<?xml version="1.0" encoding="UTF-8" standalone="no"?>
<svg xmlns:xlink="http://www.w3.org/1999/xlink" height="60.2px" width="90.0px" xmlns="http://www.w3.org/2000/svg">
  <g transform="matrix(1.0, 0.0, 0.0, 1.0, -3.25, -4.35)">
    <use height="34.15" transform="matrix(0.3906, 0.0, 0.0, 0.3906, 3.7656, 5.6602)" width="34.0" xlink:href="#shape0"/>
    <use height="24.95" transform="matrix(0.3906, 0.0, 0.0, 0.3906, 17.3422, 9.6055)" width="27.9" xlink:href="#shape1"/>
    <use height="24.2" transform="matrix(0.3906, 0.0, 0.0, 0.3906, 29.8938, 9.9375)" width="24.75" xlink:href="#shape2"/>
    <use height="37.55" transform="matrix(0.3906, 0.0, 0.0, 0.3906, 46.3438, 4.332)" width="24.5" xlink:href="#shape3"/>
    <use height="24.75" transform="matrix(0.3906, 0.0, 0.0, 0.3906, 57.5422, 9.6445)" width="27.1" xlink:href="#shape4"/>
    <use height="23.2" transform="matrix(0.3906, 0.0, 0.0, 0.3906, 69.0, 9.9375)" width="29.55" xlink:href="#shape5"/>
    <use height="24.8" transform="matrix(0.3906, 0.0, 0.0, 0.3906, 81.0727, 9.6836)" width="25.55" xlink:href="#shape6"/>
    <use height="24.8" transform="matrix(0.3906, 0.0, 0.0, 0.3906, 15.7227, 29.6836)" width="25.55" xlink:href="#shape6"/>
    <use height="24.75" transform="matrix(0.3906, 0.0, 0.0, 0.3906, 26.9922, 29.6445)" width="27.1" xlink:href="#shape4"/>
    <use height="23.5" transform="matrix(0.3906, 0.0, 0.0, 0.3906, 39.5438, 29.8203)" width="17.4" xlink:href="#shape7"/>
    <use height="23.7" transform="matrix(0.3906, 0.0, 0.0, 0.3906, 47.5438, 29.7422)" width="24.5" xlink:href="#shape8"/>
    <use height="24.8" transform="matrix(0.3906, 0.0, 0.0, 0.3906, 58.7227, 29.6836)" width="25.55" xlink:href="#shape6"/>
    <use height="38.35" transform="matrix(0.3906, 0.0, 0.0, 0.3906, 69.9922, 24.332)" width="27.1" xlink:href="#shape9"/>
    <use height="34.15" transform="matrix(0.3906, 0.0, 0.0, 0.3906, 3.2344, 46.6602)" width="28.85" xlink:href="#shape10"/>
    <use height="35.3" transform="matrix(0.3906, 0.0, 0.0, 0.3906, 15.718, 46.6602)" width="25.5" xlink:href="#shape11"/>
    <use height="35.6" transform="matrix(0.3906, 0.0, 0.0, 0.3906, 32.4938, 50.6445)" width="27.1" xlink:href="#shape12"/>
    <use height="24.95" transform="matrix(0.3906, 0.0, 0.0, 0.3906, 44.3422, 50.6055)" width="27.9" xlink:href="#shape1"/>
    <use height="36.7" transform="matrix(0.3906, 0.0, 0.0, 0.3906, 56.6984, 45.6641)" width="9.2" xlink:href="#shape13"/>
    <use height="23.7" transform="matrix(0.3906, 0.0, 0.0, 0.3906, 62.0938, 50.7422)" width="24.5" xlink:href="#shape8"/>
    <use height="30.15" transform="matrix(0.3906, 0.0, 0.0, 0.3906, 72.9797, 48.2227)" width="15.55" xlink:href="#shape14"/>
    <use height="24.9" transform="matrix(0.3906, 0.0, 0.0, 0.3906, 79.4969, 50.625)" width="20.3" xlink:href="#shape15"/>
    <use height="35.15" transform="matrix(0.3906, 0.0, 0.0, 0.3906, 89.0977, 46.6602)" width="10.6" xlink:href="#shape16"/>
  </g>
  <defs>
    <g id="shape0" transform="matrix(1.0, 0.0, 0.0, 1.0, 0.6, 34.15)">
      <path d="M10.0 -34.15 L16.45 -24.8 22.65 -34.15 33.4 -34.15 20.6 -16.35 20.6 0.0 11.75 0.0 11.75 -16.35 -0.6 -34.15 10.0 -34.15" fill="#000000" fill-rule="evenodd" stroke="none"/>
    </g>
    <g id="shape1" transform="matrix(1.0, 0.0, 0.0, 1.0, -1.9, 24.05)">
      <path d="M3.7 -18.05 Q5.5 -20.85 8.6 -22.45 11.75 -24.05 15.9 -24.05 20.0 -24.05 23.1 -22.45 26.25 -20.85 28.0 -18.05 29.8 -15.3 29.8 -11.6 29.8 -7.9 28.0 -5.1 26.25 -2.3 23.1 -0.75 20.0 0.85 15.9 0.9 11.75 0.85 8.6 -0.75 5.5 -2.3 3.7 -5.1 1.95 -7.9 1.9 -11.6 1.95 -15.3 3.7 -18.05 M15.9 -17.0 Q13.6 -16.95 12.1 -15.45 10.6 -13.95 10.55 -11.65 10.6 -9.4 12.1 -7.9 13.6 -6.4 15.9 -6.35 18.15 -6.4 19.6 -7.9 21.1 -9.4 21.15 -11.65 21.1 -13.95 19.6 -15.45 18.15 -16.95 15.9 -17.0" fill="#000000" fill-rule="evenodd" stroke="none"/>
    </g>
    <g id="shape2" transform="matrix(1.0, 0.0, 0.0, 1.0, -2.8, 23.2)">
      <path d="M6.0 -1.4 Q2.85 -3.8 2.8 -8.45 L2.8 -23.2 11.0 -23.2 11.0 -10.0 Q11.0 -7.9 12.05 -6.85 13.1 -5.75 15.2 -5.75 17.3 -5.75 18.35 -6.85 19.35 -7.9 19.35 -10.0 L19.35 -23.2 27.55 -23.2 27.55 -8.45 Q27.55 -3.8 24.4 -1.4 21.25 0.95 15.2 1.0 9.15 0.95 6.0 -1.4" fill="#000000" fill-rule="evenodd" stroke="none"/>
    </g>
    <g id="shape3" transform="matrix(1.0, 0.0, 0.0, 1.0, -2.8, 37.55)">
      <path d="M2.8 -37.55 L11.0 -37.55 11.0 -20.3 Q12.6 -22.2 14.3 -22.95 16.05 -23.75 18.55 -23.7 20.65 -23.7 22.3 -23.05 23.95 -22.4 25.15 -21.15 26.35 -20.0 26.85 -18.55 27.35 -17.1 27.3 -14.75 L27.3 0.0 19.1 0.0 19.1 -11.75 19.1 -13.55 18.95 -14.6 18.6 -15.4 Q18.2 -16.25 17.3 -16.7 L15.3 -17.2 Q13.25 -17.2 12.15 -15.95 11.0 -14.75 11.0 -12.45 L11.0 0.0 2.8 0.0 2.8 -37.55" fill="#000000" fill-rule="evenodd" stroke="none"/>
    </g>
    <g id="shape4" transform="matrix(1.0, 0.0, 0.0, 1.0, -1.9, 23.95)">
      <path d="M13.6 -23.95 Q15.8 -23.95 17.55 -23.25 19.3 -22.5 20.8 -20.95 L20.8 -23.2 29.0 -23.2 29.0 0.0 20.8 0.0 20.8 -2.55 Q19.45 -0.8 17.7 0.0 15.95 0.8 13.65 0.8 10.3 0.75 7.65 -0.9 5.0 -2.5 3.5 -5.3 1.95 -8.1 1.9 -11.6 1.95 -15.15 3.45 -17.95 5.0 -20.7 7.6 -22.3 10.25 -23.95 13.6 -23.95 M15.8 -16.9 Q13.5 -16.85 12.0 -15.35 10.5 -13.85 10.45 -11.6 10.5 -9.35 12.05 -7.85 13.55 -6.35 15.8 -6.3 18.0 -6.35 19.5 -7.85 21.0 -9.3 21.05 -11.55 21.0 -13.85 19.5 -15.35 18.0 -16.85 15.8 -16.9" fill="#000000" fill-rule="evenodd" stroke="none"/>
    </g>
    <g id="shape5" transform="matrix(1.0, 0.0, 0.0, 1.0, 0.0, 23.2)">
      <path d="M9.25 -23.2 L14.75 -11.3 20.4 -23.2 29.55 -23.2 17.5 0.0 12.0 0.0 0.0 -23.2 9.25 -23.2" fill="#000000" fill-rule="evenodd" stroke="none"/>
    </g>
    <g id="shape6" transform="matrix(1.0, 0.0, 0.0, 1.0, -1.85, 23.85)">
      <path d="M3.45 -17.95 Q5.0 -20.75 7.8 -22.3 10.65 -23.85 14.5 -23.85 20.6 -23.8 23.95 -20.5 27.35 -17.15 27.4 -11.15 L27.4 -10.1 10.15 -10.1 Q10.2 -7.45 11.45 -6.15 12.7 -4.85 15.25 -4.85 16.6 -4.8 17.5 -5.35 18.45 -5.85 19.15 -7.05 L27.05 -7.05 Q25.9 -3.1 22.9 -1.1 19.95 0.95 15.35 0.95 11.2 0.9 8.2 -0.6 5.2 -2.1 3.55 -4.85 1.9 -7.6 1.85 -11.35 1.9 -15.2 3.45 -17.95 M10.35 -14.85 L19.8 -14.85 Q19.35 -16.6 18.1 -17.6 16.85 -18.55 15.1 -18.6 13.1 -18.6 11.9 -17.6 10.7 -16.65 10.35 -14.85" fill="#000000" fill-rule="evenodd" stroke="none"/>
    </g>
    <g id="shape7" transform="matrix(1.0, 0.0, 0.0, 1.0, -2.8, 23.5)">
      <path d="M19.35 -23.5 L20.2 -23.45 20.2 -15.6 18.5 -16.25 16.75 -16.4 Q13.85 -16.4 12.45 -14.8 11.0 -13.15 11.0 -9.9 L11.0 0.0 2.8 0.0 2.8 -23.2 11.0 -23.2 11.0 -19.4 Q12.4 -21.55 14.2 -22.55 16.0 -23.5 18.65 -23.5 L19.35 -23.5" fill="#000000" fill-rule="evenodd" stroke="none"/>
    </g>
    <g id="shape8" transform="matrix(1.0, 0.0, 0.0, 1.0, -2.8, 23.7)">
      <path d="M11.0 -20.3 Q12.6 -22.2 14.3 -22.95 16.05 -23.75 18.55 -23.7 20.65 -23.7 22.3 -23.05 23.95 -22.4 25.15 -21.15 26.35 -20.0 26.85 -18.55 27.35 -17.1 27.3 -14.75 L27.3 0.0 19.1 0.0 19.1 -11.75 19.1 -13.55 18.95 -14.6 18.6 -15.4 Q18.2 -16.25 17.3 -16.7 L15.3 -17.2 Q13.25 -17.2 12.15 -15.95 11.0 -14.75 11.0 -12.45 L11.0 0.0 2.8 0.0 2.8 -23.2 11.0 -23.2 11.0 -20.3" fill="#000000" fill-rule="evenodd" stroke="none"/>
    </g>
    <g id="shape9" transform="matrix(1.0, 0.0, 0.0, 1.0, -1.9, 37.55)">
      <path d="M15.8 -16.9 Q13.5 -16.85 12.0 -15.35 10.5 -13.85 10.45 -11.6 10.5 -9.35 12.05 -7.85 13.55 -6.35 15.8 -6.3 18.0 -6.35 19.5 -7.85 21.0 -9.3 21.05 -11.55 21.0 -13.85 19.5 -15.35 18.0 -16.85 15.8 -16.9 M20.8 -37.55 L29.0 -37.55 29.0 0.0 20.8 0.0 20.8 -2.55 Q19.45 -0.8 17.7 0.0 15.95 0.8 13.65 0.8 10.3 0.75 7.65 -0.9 5.0 -2.5 3.5 -5.3 1.95 -8.1 1.9 -11.6 1.95 -15.15 3.45 -17.95 5.0 -20.7 7.6 -22.3 10.25 -23.95 13.6 -23.95 15.8 -23.95 17.55 -23.25 19.3 -22.5 20.8 -20.95 L20.8 -37.55" fill="#000000" fill-rule="evenodd" stroke="none"/>
    </g>
    <g id="shape10" transform="matrix(1.0, 0.0, 0.0, 1.0, -0.6, 34.15)">
      <path d="M9.1 -13.8 L17.1 -13.8 17.1 -26.95 9.1 -13.8 M0.6 -7.0 L0.6 -12.75 13.75 -34.15 25.3 -34.15 25.3 -13.8 29.45 -13.8 29.45 -7.0 25.3 -7.0 25.3 0.0 17.1 0.0 17.1 -7.0 0.6 -7.0" fill="#000000" fill-rule="evenodd" stroke="none"/>
    </g>
    <g id="shape11" transform="matrix(1.0, 0.0, 0.0, 1.0, -2.35, 34.15)">
      <path d="M25.35 -34.15 L25.35 -26.6 13.55 -26.6 12.95 -22.85 14.45 -23.0 15.65 -23.05 Q19.2 -23.0 21.95 -21.45 24.65 -19.95 26.25 -17.25 27.85 -14.6 27.85 -11.2 27.85 -7.35 26.1 -4.6 24.4 -1.85 21.15 -0.35 17.95 1.1 13.5 1.15 10.35 1.15 7.65 0.4 4.9 -0.4 2.35 -2.0 L3.7 -10.3 Q6.15 -8.2 8.4 -7.25 10.65 -6.3 13.0 -6.3 15.5 -6.35 17.05 -7.75 18.65 -9.15 18.7 -11.4 18.65 -14.0 16.55 -15.55 14.5 -17.1 11.1 -17.15 L7.9 -16.8 4.6 -15.75 7.6 -34.15 25.35 -34.15" fill="#000000" fill-rule="evenodd" stroke="none"/>
    </g>
    <g id="shape12" transform="matrix(1.0, 0.0, 0.0, 1.0, -2.8, 23.95)">
      <path d="M11.0 -23.2 L11.0 -20.65 Q12.35 -22.35 14.1 -23.15 15.85 -23.95 18.2 -23.95 21.5 -23.9 24.15 -22.3 26.8 -20.65 28.35 -17.85 29.9 -15.1 29.9 -11.55 29.9 -8.05 28.35 -5.25 26.85 -2.5 24.2 -0.85 21.55 0.75 18.25 0.8 16.05 0.8 14.3 0.05 12.55 -0.65 11.0 -2.25 L11.0 11.65 2.8 11.65 2.8 -23.2 11.0 -23.2 M16.1 -16.9 Q13.8 -16.85 12.3 -15.35 10.8 -13.85 10.75 -11.6 10.8 -9.35 12.3 -7.85 13.85 -6.35 16.1 -6.3 18.35 -6.35 19.8 -7.85 21.3 -9.35 21.35 -11.6 21.3 -13.85 19.8 -15.35 18.35 -16.85 16.1 -16.9" fill="#000000" fill-rule="evenodd" stroke="none"/>
    </g>
    <g id="shape13" transform="matrix(1.0, 0.0, 0.0, 1.0, -2.3, 36.7)">
      <path d="M2.8 -23.2 L11.0 -23.2 11.0 0.0 2.8 0.0 2.8 -23.2 M10.2 -28.85 Q8.9 -27.55 6.9 -27.5 4.95 -27.55 3.65 -28.85 2.35 -30.15 2.3 -32.1 2.35 -34.05 3.65 -35.35 4.95 -36.65 6.9 -36.7 8.9 -36.65 10.2 -35.35 11.45 -34.05 11.5 -32.1 11.45 -30.15 10.2 -28.85" fill="#000000" fill-rule="evenodd" stroke="none"/>
    </g>
    <g id="shape14" transform="matrix(1.0, 0.0, 0.0, 1.0, -1.1, 30.15)">
      <path d="M3.8 -30.15 L12.0 -30.15 12.0 -23.2 16.65 -23.2 16.65 -16.4 12.0 -16.4 12.0 0.0 3.8 0.0 3.8 -16.4 1.1 -16.4 1.1 -23.2 3.8 -23.2 3.8 -30.15" fill="#000000" fill-rule="evenodd" stroke="none"/>
    </g>
    <g id="shape15" transform="matrix(1.0, 0.0, 0.0, 1.0, -1.4, 24.0)">
      <path d="M18.25 -17.2 Q17.1 -17.8 15.95 -18.05 L13.75 -18.35 Q12.7 -18.3 12.0 -17.85 11.3 -17.4 11.3 -16.7 11.25 -16.15 11.5 -15.85 11.75 -15.55 12.55 -15.3 L14.95 -14.7 Q18.45 -14.0 20.1 -12.3 21.7 -10.6 21.7 -7.75 21.7 -5.15 20.35 -3.2 19.0 -1.25 16.5 -0.2 14.05 0.85 10.65 0.9 8.25 0.9 5.95 0.2 3.65 -0.45 1.4 -1.8 L4.35 -7.55 Q6.0 -6.5 7.75 -5.85 9.45 -5.2 10.95 -5.2 12.05 -5.2 12.75 -5.7 13.45 -6.2 13.45 -7.0 13.5 -7.85 12.8 -8.3 L10.0 -9.15 Q6.3 -9.9 4.7 -11.4 3.15 -12.9 3.2 -15.7 3.25 -19.55 6.0 -21.75 8.75 -23.95 13.5 -24.0 L17.35 -23.65 21.0 -22.55 18.25 -17.2" fill="#000000" fill-rule="evenodd" stroke="none"/>
    </g>
    <g id="shape16" transform="matrix(1.0, 0.0, 0.0, 1.0, -3.45, 34.15)">
      <path d="M5.0 -8.05 Q6.5 -9.55 8.75 -9.6 11.0 -9.55 12.5 -8.05 14.0 -6.6 14.05 -4.35 14.0 -2.05 12.5 -0.55 11.0 0.95 8.75 1.0 6.5 0.95 5.0 -0.55 3.5 -2.05 3.45 -4.35 3.5 -6.6 5.0 -8.05 M4.45 -34.15 L13.0 -34.15 13.0 -11.6 4.45 -11.6 4.45 -34.15" fill="#000000" fill-rule="evenodd" stroke="none"/>
    </g>
  </defs>
</svg>
