<?xml version="1.0" encoding="UTF-8" standalone="no"?>
<svg xmlns:xlink="http://www.w3.org/1999/xlink" height="13.4px" width="13.05px" xmlns="http://www.w3.org/2000/svg">
  <g transform="matrix(1.0, 0.0, 0.0, 1.0, 8.5, 6.7)">
    <use height="13.4" transform="matrix(1.0, 0.0, 0.0, 1.0, -8.5, -6.7)" width="13.05" xlink:href="#shape0"/>
  </g>
  <defs>
    <g id="shape0" transform="matrix(1.0, 0.0, 0.0, 1.0, 8.5, 6.7)">
      <path d="M3.2 -4.15 L3.15 -4.15 -4.85 -2.85 -4.5 3.0 Q-4.1 3.0 -3.9 3.4 L-3.8 3.85 -3.8 4.2 -4.15 4.95 -4.85 5.75 -5.1 6.0 -5.2 6.05 -5.65 6.3 -7.2 6.7 -7.75 6.65 -8.5 6.2 Q-7.8 3.8 -5.4 3.25 L-5.05 3.2 -5.4 -5.05 3.6 -6.7 3.55 -6.65 3.9 1.65 4.1 1.65 4.25 1.75 4.5 2.2 Q4.6 2.7 4.35 3.2 L3.35 4.45 3.25 4.5 3.15 4.6 Q2.1 5.2 1.15 5.2 L0.6 5.15 Q0.2 5.1 -0.05 4.85 0.6 2.35 3.1 1.85 L3.45 1.8 3.2 -4.15" fill="#0033cc" fill-rule="evenodd" stroke="none"/>
    </g>
  </defs>
</svg>
