<?xml version="1.0" encoding="UTF-8" standalone="no"?>
<svg xmlns:xlink="http://www.w3.org/1999/xlink" height="295.15px" width="325.55px" xmlns="http://www.w3.org/2000/svg">
  <g transform="matrix(1.0, 0.0, 0.0, 1.0, 165.55, 150.4)">
    <use height="218.3" transform="matrix(1.0, 0.0, 0.0, 1.0, -106.55, -73.55)" width="266.55" xlink:href="#sprite0"/>
    <use height="266.6" transform="matrix(1.0, 0.0, 0.0, 1.0, -165.55, -150.4)" width="271.05" xlink:href="#sprite1"/>
  </g>
  <defs>
    <g id="sprite0" transform="matrix(1.0, 0.0, 0.0, 1.0, 133.25, 109.15)">
      <use height="218.3" transform="matrix(1.0, 0.0, 0.0, 1.0, -133.25, -109.15)" width="266.55" xlink:href="#shape0"/>
    </g>
    <g id="shape0" transform="matrix(1.0, 0.0, 0.0, 1.0, 133.25, 109.15)">
      <path d="M56.05 -71.8 Q62.3 -71.65 67.7 -69.6 L83.45 -76.35 83.55 -77.05 Q86.2 -84.4 92.6 -85.9 94.8 -88.45 97.45 -90.7 107.6 -99.45 120.5 -97.05 126.5 -95.95 130.7 -91.4 136.0 -85.7 130.5 -79.85 129.45 -78.85 128.15 -78.4 123.6 -76.8 119.5 -74.6 122.2 -70.1 120.6 -64.5 118.65 -62.0 115.55 -61.9 114.3 -62.35 113.7 -63.4 112.95 -64.65 111.55 -64.65 108.05 -64.7 105.75 -66.35 100.55 -58.25 92.65 -62.15 L84.4 -54.8 85.1 -53.45 Q87.6 -48.85 86.75 -43.5 L85.55 -36.75 Q84.8 -32.5 82.35 -30.7 81.05 -28.75 78.3 -27.85 66.05 -23.8 53.35 -21.1 55.25 -10.95 53.35 -0.55 52.1 6.4 49.5 13.05 44.05 26.95 33.85 37.9 30.7 41.3 26.8 43.85 24.05 46.45 20.35 48.4 6.3 55.65 -9.6 57.2 -24.0 58.65 -37.85 55.05 -41.25 54.2 -44.05 52.55 -49.25 62.1 -55.25 71.15 -56.85 73.55 -59.05 74.3 -61.45 76.2 -65.75 75.8 L-72.6 75.15 Q-77.95 74.6 -81.75 70.95 L-82.85 69.9 Q-87.3 73.1 -92.1 75.95 -90.45 84.6 -99.65 87.45 -98.65 90.1 -99.55 93.5 -99.9 94.85 -98.9 95.9 -98.05 96.8 -97.95 98.1 -98.85 101.05 -101.8 102.25 -107.6 102.3 -111.25 98.55 -114.45 101.9 -117.2 105.9 -118.0 107.05 -119.25 107.75 -126.35 111.55 -130.45 104.9 -133.7 99.65 -133.2 93.55 -132.1 80.5 -121.0 73.0 -118.1 71.05 -115.05 69.6 -111.95 63.85 -104.15 63.2 L-103.4 63.3 -92.7 49.9 Q-93.3 44.1 -91.8 38.05 -91.6 37.15 -90.9 36.75 -81.3 27.95 -69.95 21.2 -71.4 18.05 -71.6 14.4 -71.9 9.45 -71.55 4.55 -87.4 -1.7 -99.55 -14.2 L-105.05 -20.35 Q-113.2 -30.15 -116.65 -42.45 -117.6 -45.95 -117.75 -49.45 -118.8 -57.9 -112.95 -65.25 -106.75 -73.1 -96.65 -73.7 -86.55 -74.45 -81.15 -67.35 L-80.95 -67.25 -80.7 -67.1 Q-77.3 -61.0 -77.0 -53.8 L-76.55 -50.25 Q-75.5 -44.85 -73.2 -39.9 -69.25 -31.8 -61.8 -26.9 -55.95 -36.9 -47.1 -44.75 -41.1 -50.0 -34.25 -53.9 -39.85 -60.1 -47.85 -64.0 L-53.75 -66.55 -70.05 -72.75 Q-72.3 -73.6 -73.45 -75.6 L-73.75 -76.15 -74.05 -76.2 -74.7 -78.5 -74.8 -78.75 -74.8 -78.85 Q-75.5 -82.35 -74.95 -86.1 -72.7 -100.25 -59.4 -106.35 -54.25 -108.7 -48.65 -108.95 -45.4 -109.55 -42.85 -108.35 -29.95 -105.7 -21.3 -95.3 L-18.4 -91.9 Q-8.85 -80.55 -3.6 -66.8 -3.1 -65.55 -2.95 -64.1 L-2.75 -63.9 -2.6 -63.75 -2.6 -63.7 1.65 -63.95 Q16.65 -64.35 30.15 -58.15 32.45 -57.1 34.25 -55.4 43.65 -64.45 54.6 -71.3 55.15 -71.85 56.05 -71.8 M55.6 -70.0 L55.2 -70.05 Q45.8 -63.25 37.3 -54.65 33.15 -50.5 28.75 -47.15 L27.2 -44.6 Q22.0 -33.6 31.1 -26.05 35.0 -24.15 39.25 -23.15 L42.6 -22.6 Q48.4 -21.9 54.35 -23.35 65.4 -26.05 76.25 -29.15 L77.0 -29.7 Q78.7 -30.4 80.25 -31.3 L80.45 -31.4 Q81.8 -32.9 82.65 -34.75 85.15 -40.35 84.85 -46.05 84.55 -52.95 80.05 -58.25 70.2 -69.95 55.6 -70.0 M91.55 -78.05 L90.75 -77.6 90.5 -77.4 90.4 -77.4 Q85.8 -74.8 80.9 -72.8 75.3 -70.5 69.85 -68.65 76.25 -65.65 81.45 -59.65 L83.65 -56.05 91.2 -63.85 91.15 -64.35 91.55 -64.8 91.95 -65.05 92.15 -64.85 98.3 -71.3 98.95 -74.15 Q97.4 -80.1 91.55 -78.05 M118.25 -88.95 Q117.65 -89.55 117.3 -90.3 L116.95 -90.4 116.25 -90.65 115.8 -90.55 114.3 -90.7 114.1 -90.6 Q111.85 -90.4 109.7 -89.55 L109.05 -89.3 109.8 -89.25 118.25 -88.9 118.35 -88.9 118.25 -88.95 M85.65 -77.25 L90.25 -79.2 91.0 -79.7 92.4 -80.1 92.85 -80.3 93.1 -80.2 96.05 -79.8 Q103.0 -77.35 99.9 -69.8 L98.85 -69.0 97.45 -67.05 94.05 -63.5 Q95.8 -62.7 97.85 -62.9 100.3 -63.05 101.95 -64.85 105.9 -69.05 105.4 -75.25 104.7 -83.25 97.1 -84.05 88.75 -84.95 85.65 -77.25 M96.45 -86.3 Q100.0 -86.25 102.55 -83.9 109.15 -77.7 106.5 -68.1 L106.45 -67.9 107.25 -67.35 Q112.35 -68.1 115.3 -64.15 L115.85 -64.0 116.6 -63.9 116.8 -64.0 117.9 -64.45 118.9 -65.6 Q120.65 -73.65 113.45 -77.5 113.05 -78.35 113.8 -78.8 L114.25 -78.8 Q115.8 -78.45 117.15 -77.55 L118.2 -76.4 Q119.3 -77.15 120.5 -77.5 L126.85 -79.25 Q129.15 -80.7 130.65 -83.0 131.4 -84.15 131.1 -85.4 129.4 -93.3 120.95 -95.35 L117.95 -95.75 113.15 -95.95 Q106.4 -94.75 100.8 -90.85 98.25 -89.1 96.35 -86.85 L95.85 -86.3 96.45 -86.3 M110.2 -87.9 L109.85 -87.85 Q106.85 -87.2 104.15 -86.2 L104.05 -86.4 103.85 -87.05 Q109.75 -93.6 118.3 -91.65 120.5 -89.7 120.0 -87.1 L118.5 -87.0 Q114.4 -88.3 110.2 -87.9 M-22.7 -94.1 Q-25.8 -97.45 -29.45 -100.2 -32.75 -102.7 -36.55 -103.95 -38.65 -105.3 -40.9 -106.15 -41.2 -105.85 -41.6 -105.8 -53.35 -108.85 -63.25 -101.65 -74.4 -93.6 -73.1 -79.8 L-73.05 -79.25 Q-71.9 -77.1 -70.15 -75.15 -68.7 -73.55 -66.6 -73.0 -52.3 -69.55 -39.7 -61.35 -36.45 -59.25 -33.7 -56.8 -32.75 -55.95 -32.55 -54.85 L-27.6 -57.3 Q-16.55 -62.25 -4.75 -63.5 -5.7 -66.7 -7.05 -69.7 L-11.35 -78.8 Q-16.15 -87.1 -22.7 -94.1 M32.65 -53.8 L32.85 -54.0 32.8 -54.05 Q26.6 -57.55 19.5 -59.55 3.25 -64.15 -13.3 -59.95 -21.25 -57.9 -28.7 -54.5 -36.55 -50.9 -43.35 -45.65 -52.1 -38.95 -58.1 -29.85 -65.4 -18.65 -68.3 -5.65 -69.35 -0.85 -69.65 3.85 L-69.1 4.1 Q-68.85 4.2 -69.0 4.45 -69.2 5.05 -69.75 5.15 -70.15 12.75 -68.65 20.25 L-68.65 20.45 -68.25 20.2 -65.3 18.6 -65.05 18.35 -64.95 18.3 -64.7 18.3 -63.3 17.55 Q-62.0 16.6 -60.45 15.95 -58.2 15.0 -55.9 14.6 -43.15 14.8 -39.55 26.5 -37.75 32.35 -38.45 38.05 -39.05 42.85 -41.45 47.55 L-43.2 50.9 Q-19.75 59.2 4.8 52.3 14.55 49.55 22.9 44.05 L27.05 41.1 29.4 38.85 Q42.7 26.7 48.35 9.65 51.35 0.65 52.3 -8.75 52.95 -14.85 51.75 -20.75 L42.0 -20.4 Q36.3 -21.2 31.15 -24.5 20.8 -31.05 24.0 -43.4 24.95 -45.5 26.5 -47.45 27.5 -48.75 28.8 -49.75 L29.85 -50.95 29.95 -51.15 30.05 -51.25 30.3 -51.4 32.65 -53.8 M-99.15 -71.2 Q-110.45 -68.9 -114.55 -58.1 L-115.45 -56.5 Q-115.45 -55.7 -115.7 -55.0 L-115.95 -54.2 Q-116.65 -39.85 -108.15 -27.75 -99.4 -15.4 -86.95 -6.2 -79.55 -0.7 -71.45 3.05 L-71.05 -0.6 -69.7 -7.55 Q-67.7 -15.3 -64.1 -22.55 L-62.5 -25.65 Q-70.05 -29.45 -73.65 -37.1 -74.6 -38.3 -75.05 -39.75 L-75.15 -40.1 Q-79.75 -50.45 -80.8 -61.8 -80.95 -63.6 -81.8 -65.15 -87.7 -73.55 -99.15 -71.2 M-60.75 18.2 Q-65.15 21.6 -70.25 24.45 -80.8 30.45 -89.85 37.7 L-89.95 38.05 Q-93.75 52.2 -85.05 64.8 -81.1 70.55 -74.55 72.65 -69.1 74.45 -63.05 73.5 -61.05 73.2 -59.25 72.3 L-59.1 72.1 -56.7 69.4 Q-56.4 69.0 -55.95 68.8 -50.1 59.15 -44.55 49.2 -41.6 43.85 -40.7 38.05 L-40.4 34.65 Q-40.2 30.3 -41.05 26.05 -45.9 15.3 -57.9 17.4 L-60.75 18.2 M-106.3 69.75 L-106.3 69.8 -106.55 70.0 -107.2 70.65 Q-110.7 75.75 -105.4 78.8 L-102.45 79.0 -94.6 74.75 -94.75 74.45 -94.4 74.15 -93.9 73.9 -93.4 74.1 -83.9 68.85 -86.75 65.75 Q-91.15 59.2 -92.4 52.2 -95.6 56.95 -99.3 61.75 -102.55 66.0 -106.3 69.75 M-101.45 80.9 Q-109.55 81.9 -110.1 74.55 -110.2 73.0 -109.7 71.6 L-109.7 71.3 -109.4 70.95 -108.65 69.7 -107.95 69.1 -104.85 65.15 Q-113.1 66.15 -114.45 74.45 -115.7 82.0 -108.15 84.75 -102.3 86.9 -97.2 84.2 -95.05 83.05 -94.25 80.75 -93.55 78.8 -93.85 76.95 L-98.15 79.25 Q-99.3 79.85 -100.4 80.1 L-101.45 80.9 M-116.95 72.95 Q-119.65 74.2 -122.0 76.2 -127.25 80.6 -130.2 86.75 -131.0 89.05 -131.25 91.45 L-131.7 94.45 Q-131.95 103.15 -124.75 106.9 L-122.3 107.1 Q-119.7 106.25 -117.7 104.4 L-114.35 98.75 -112.65 96.85 -113.5 95.5 Q-114.0 93.95 -113.95 92.35 L-113.8 91.95 Q-113.15 91.35 -112.45 91.95 -110.65 99.9 -102.4 100.35 -101.8 99.9 -101.05 99.7 L-100.3 98.75 -100.15 98.6 -100.05 97.8 -100.05 97.25 Q-103.1 93.4 -101.05 88.65 L-101.3 87.7 -101.55 87.7 Q-111.5 87.75 -115.75 79.75 -117.35 76.65 -116.45 73.2 L-116.3 72.6 -116.95 72.95 M-118.4 80.65 Q-120.05 83.0 -121.5 85.7 L-121.65 86.05 Q-123.1 90.0 -122.95 94.3 -122.95 95.15 -123.45 95.75 -126.1 95.55 -127.4 92.9 -127.0 84.15 -119.15 80.15 L-118.55 80.5 -118.4 80.65 M-122.85 85.3 Q-122.55 84.6 -122.7 84.55 L-123.1 85.15 Q-124.5 87.0 -125.3 89.1 L-125.4 89.25 Q-125.4 90.05 -125.7 90.75 L-125.9 91.15 -125.85 91.9 -125.85 92.25 -124.8 93.55 -124.75 93.65 -124.75 93.55 Q-124.7 89.2 -122.85 85.3" fill="#000000" fill-rule="evenodd" stroke="none"/>
      <path d="M55.6 -70.0 Q70.2 -69.95 80.05 -58.25 84.55 -52.95 84.85 -46.05 85.15 -40.35 82.65 -34.75 81.8 -32.9 80.45 -31.4 L80.25 -31.3 Q78.7 -30.4 77.0 -29.7 L76.25 -29.15 Q65.4 -26.05 54.35 -23.35 48.4 -21.9 42.6 -22.6 L39.25 -23.15 Q35.0 -24.15 31.1 -26.05 22.0 -33.6 27.2 -44.6 L28.75 -47.15 Q33.15 -50.5 37.3 -54.65 45.8 -63.25 55.2 -70.05 L55.6 -70.0" fill="url(#gradient0)" fill-rule="evenodd" stroke="none"/>
      <path d="M85.65 -77.25 Q88.75 -84.95 97.1 -84.05 104.7 -83.25 105.4 -75.25 105.9 -69.05 101.95 -64.85 100.3 -63.05 97.85 -62.9 95.8 -62.7 94.05 -63.5 L97.45 -67.05 98.85 -69.0 99.9 -69.8 Q103.0 -77.35 96.05 -79.8 L93.1 -80.2 92.85 -80.3 92.4 -80.1 91.0 -79.7 90.25 -79.2 85.65 -77.25 M109.7 -89.55 Q111.85 -90.4 114.1 -90.6 L114.3 -90.7 115.8 -90.55 116.25 -90.65 116.95 -90.4 117.3 -90.3 Q117.65 -89.55 118.25 -88.95 L118.25 -88.9 109.8 -89.25 109.7 -89.55 M96.35 -86.85 Q98.25 -89.1 100.8 -90.85 106.4 -94.75 113.15 -95.95 L117.95 -95.75 120.95 -95.35 Q129.4 -93.3 131.1 -85.4 131.4 -84.15 130.65 -83.0 129.15 -80.7 126.85 -79.25 L120.5 -77.5 Q119.3 -77.15 118.2 -76.4 L117.15 -77.55 Q115.8 -78.45 114.25 -78.8 L113.8 -78.8 Q113.05 -78.35 113.45 -77.5 120.65 -73.65 118.9 -65.6 L117.9 -64.45 116.8 -64.0 116.6 -63.9 115.85 -64.0 115.3 -64.15 Q112.35 -68.1 107.25 -67.35 L106.45 -67.9 106.5 -68.1 Q109.15 -77.7 102.55 -83.9 100.0 -86.25 96.45 -86.3 L96.35 -86.85 M110.2 -87.9 Q114.4 -88.3 118.5 -87.0 L120.0 -87.1 Q120.5 -89.7 118.3 -91.65 109.75 -93.6 103.85 -87.05 L104.05 -86.4 104.15 -86.2 Q106.85 -87.2 109.85 -87.85 L110.2 -87.9 M-116.45 73.2 Q-117.35 76.65 -115.75 79.75 -111.5 87.75 -101.55 87.7 L-101.3 87.7 -101.05 88.65 Q-103.1 93.4 -100.05 97.25 L-100.05 97.8 -100.15 98.6 -100.3 98.75 -101.05 99.7 Q-101.8 99.9 -102.4 100.35 -110.65 99.9 -112.45 91.95 -113.15 91.35 -113.8 91.95 L-113.95 92.35 Q-114.0 93.95 -113.5 95.5 L-112.65 96.85 -114.35 98.75 -117.7 104.4 Q-119.7 106.25 -122.3 107.1 L-124.75 106.9 Q-131.95 103.15 -131.7 94.45 L-131.25 91.45 Q-131.0 89.05 -130.2 86.75 -127.25 80.6 -122.0 76.2 -119.65 74.2 -116.95 72.95 L-116.45 73.2 M-101.45 80.9 L-100.4 80.1 Q-99.3 79.85 -98.15 79.25 L-93.85 76.95 Q-93.55 78.8 -94.25 80.75 -95.05 83.05 -97.2 84.2 -102.3 86.9 -108.15 84.75 -115.7 82.0 -114.45 74.45 -113.1 66.15 -104.85 65.15 L-107.95 69.1 -108.65 69.7 -109.4 70.95 -109.7 71.3 -109.7 71.6 Q-110.2 73.0 -110.1 74.55 -109.55 81.9 -101.45 80.9 M-118.4 80.65 L-118.55 80.5 -119.15 80.15 Q-127.0 84.15 -127.4 92.9 -126.1 95.55 -123.45 95.75 -122.95 95.15 -122.95 94.3 -123.1 90.0 -121.65 86.05 L-121.5 85.7 Q-120.05 83.0 -118.4 80.65 M-123.1 85.15 L-122.85 85.3 Q-124.7 89.2 -124.75 93.55 L-124.8 93.55 -125.85 92.25 -125.85 91.9 -125.9 91.15 -125.7 90.75 Q-125.4 90.05 -125.4 89.25 L-125.3 89.1 Q-124.5 87.0 -123.1 85.15" fill="#ffffff" fill-rule="evenodd" stroke="none"/>
      <path d="M91.55 -78.05 Q97.4 -80.1 98.95 -74.15 L98.3 -71.3 92.15 -64.85 91.95 -65.05 91.55 -64.8 91.15 -64.35 91.2 -63.85 83.65 -56.05 81.45 -59.65 Q76.25 -65.65 69.85 -68.65 75.3 -70.5 80.9 -72.8 85.8 -74.8 90.4 -77.4 L90.5 -77.4 90.75 -77.6 91.55 -78.05" fill="url(#gradient1)" fill-rule="evenodd" stroke="none"/>
      <path d="M-22.7 -94.1 Q-16.15 -87.1 -11.35 -78.8 L-7.05 -69.7 Q-5.7 -66.7 -4.75 -63.5 -16.55 -62.25 -27.6 -57.3 L-32.55 -54.85 Q-32.75 -55.95 -33.7 -56.8 -36.45 -59.25 -39.7 -61.35 -52.3 -69.55 -66.6 -73.0 -68.7 -73.55 -70.15 -75.15 -71.9 -77.1 -73.05 -79.25 L-73.1 -79.8 Q-74.4 -93.6 -63.25 -101.65 -53.35 -108.85 -41.6 -105.8 -41.2 -105.85 -40.9 -106.15 -38.65 -105.3 -36.55 -103.95 -32.75 -102.7 -29.45 -100.2 -25.8 -97.45 -22.7 -94.1" fill="url(#gradient2)" fill-rule="evenodd" stroke="none"/>
      <path d="M32.8 -54.05 L32.65 -53.8 30.3 -51.4 30.05 -51.25 29.95 -51.15 29.85 -50.95 28.8 -49.75 Q27.5 -48.75 26.5 -47.45 24.95 -45.5 24.0 -43.4 20.8 -31.05 31.15 -24.5 36.3 -21.2 42.0 -20.4 L51.75 -20.75 Q52.95 -14.85 52.3 -8.75 51.35 0.65 48.35 9.65 42.7 26.7 29.4 38.85 L27.05 41.1 22.9 44.05 Q14.55 49.55 4.8 52.3 -19.75 59.2 -43.2 50.9 L-41.45 47.55 Q-39.05 42.85 -38.45 38.05 -37.75 32.35 -39.55 26.5 -43.15 14.8 -55.9 14.6 -58.2 15.0 -60.45 15.95 -62.0 16.6 -63.3 17.55 L-64.7 18.3 -64.95 18.3 -65.05 18.35 -65.3 18.6 -68.25 20.2 -68.65 20.25 Q-70.15 12.75 -69.75 5.15 -69.2 5.05 -69.0 4.45 -68.85 4.2 -69.1 4.1 L-69.65 3.85 Q-69.35 -0.85 -68.3 -5.65 -65.4 -18.65 -58.1 -29.85 -52.1 -38.95 -43.35 -45.65 -36.55 -50.9 -28.7 -54.5 -21.25 -57.9 -13.3 -59.95 3.25 -64.15 19.5 -59.55 26.6 -57.55 32.8 -54.05" fill="url(#gradient3)" fill-rule="evenodd" stroke="none"/>
      <path d="M-99.15 -71.2 Q-87.7 -73.55 -81.8 -65.15 -80.95 -63.6 -80.8 -61.8 -79.75 -50.45 -75.15 -40.1 L-75.05 -39.75 Q-74.6 -38.3 -73.65 -37.1 -70.05 -29.45 -62.5 -25.65 L-64.1 -22.55 Q-67.7 -15.3 -69.7 -7.55 L-71.05 -0.6 -71.45 3.05 Q-79.55 -0.7 -86.95 -6.2 -99.4 -15.4 -108.15 -27.75 -116.65 -39.85 -115.95 -54.2 L-115.7 -55.0 Q-115.45 -55.7 -115.45 -56.5 L-114.55 -58.1 Q-110.45 -68.9 -99.15 -71.2" fill="url(#gradient4)" fill-rule="evenodd" stroke="none"/>
      <path d="M-60.75 18.2 L-57.9 17.4 Q-45.9 15.3 -41.05 26.05 -40.2 30.3 -40.4 34.65 L-40.7 38.05 Q-41.6 43.85 -44.55 49.2 -50.1 59.15 -55.95 68.8 -56.4 69.0 -56.7 69.4 L-59.1 72.1 -59.25 72.3 Q-61.05 73.2 -63.05 73.5 -69.1 74.45 -74.55 72.65 -81.1 70.55 -85.05 64.8 -93.75 52.2 -89.95 38.05 L-89.85 37.7 Q-80.8 30.45 -70.25 24.45 -65.15 21.6 -60.75 18.2" fill="url(#gradient5)" fill-rule="evenodd" stroke="none"/>
      <path d="M-106.3 69.75 Q-102.55 66.0 -99.3 61.75 -95.6 56.95 -92.4 52.2 -91.15 59.2 -86.75 65.75 L-83.9 68.85 -93.4 74.1 -93.9 73.9 -94.4 74.15 -94.75 74.45 -94.6 74.75 -102.45 79.0 -105.4 78.8 Q-110.7 75.75 -107.2 70.65 L-106.55 70.0 -106.3 69.8 -106.3 69.75" fill="url(#gradient6)" fill-rule="evenodd" stroke="none"/>
    </g>
    <linearGradient gradientTransform="matrix(-0.0125, -0.0217, 0.0251, -0.0146, 60.9, -43.1)" gradientUnits="userSpaceOnUse" id="gradient0" spreadMethod="pad" x1="-819.2" x2="819.2">
      <stop offset="0.0" stop-color="#981d07"/>
      <stop offset="1.0" stop-color="#f02d0b"/>
    </linearGradient>
    <linearGradient gradientTransform="matrix(0.0097, 0.0108, -0.0102, 0.0092, 84.45, -67.3)" gradientUnits="userSpaceOnUse" id="gradient1" spreadMethod="pad" x1="-819.2" x2="819.2">
      <stop offset="0.0" stop-color="#54b4cc"/>
      <stop offset="1.0" stop-color="#205e6c"/>
    </linearGradient>
    <linearGradient gradientTransform="matrix(-0.0118, 0.026, -0.0288, -0.013, -39.0, -80.8)" gradientUnits="userSpaceOnUse" id="gradient2" spreadMethod="pad" x1="-819.2" x2="819.2">
      <stop offset="0.0" stop-color="#54b4cc"/>
      <stop offset="1.0" stop-color="#205e6c"/>
    </linearGradient>
    <linearGradient gradientTransform="matrix(-0.0258, -0.0403, 0.0603, -0.0385, -7.45, 1.25)" gradientUnits="userSpaceOnUse" id="gradient3" spreadMethod="pad" x1="-819.2" x2="819.2">
      <stop offset="0.0" stop-color="#981d07"/>
      <stop offset="1.0" stop-color="#f02d0b"/>
    </linearGradient>
    <linearGradient gradientTransform="matrix(0.0221, -0.0078, 0.0153, 0.043, -89.25, -34.35)" gradientUnits="userSpaceOnUse" id="gradient4" spreadMethod="pad" x1="-819.2" x2="819.2">
      <stop offset="0.0" stop-color="#54b4cc"/>
      <stop offset="1.0" stop-color="#205e6c"/>
    </linearGradient>
    <linearGradient gradientTransform="matrix(-0.017, -0.0173, 0.0247, -0.0242, -58.55, 50.2)" gradientUnits="userSpaceOnUse" id="gradient5" spreadMethod="pad" x1="-819.2" x2="819.2">
      <stop offset="0.0" stop-color="#981d07"/>
      <stop offset="1.0" stop-color="#f02d0b"/>
    </linearGradient>
    <linearGradient gradientTransform="matrix(0.0085, 0.0099, -0.0124, 0.0106, -94.7, 66.6)" gradientUnits="userSpaceOnUse" id="gradient6" spreadMethod="pad" x1="-819.2" x2="819.2">
      <stop offset="0.0" stop-color="#54b4cc"/>
      <stop offset="1.0" stop-color="#205e6c"/>
    </linearGradient>
    <g id="sprite1" transform="matrix(1.0, 0.0, 0.0, 1.0, 136.5, 134.15)">
      <use height="115.35" transform="matrix(1.0, 0.0, 0.0, 1.0, 6.25, -134.15)" width="48.05" xlink:href="#sprite2"/>
      <use height="115.35" transform="matrix(0.0085, 0.997, 0.997, -0.0085, -136.5238, 1.9378)" width="48.05" xlink:href="#sprite2"/>
      <use height="84.95" transform="matrix(1.3251, -1.0754, 1.0753, 1.325, -55.3389, 19.8991)" width="74.35" xlink:href="#sprite3"/>
    </g>
    <g id="sprite2" transform="matrix(1.0, 0.0, 0.0, 1.0, 24.0, 60.5)">
      <use height="109.7" transform="matrix(1.0, 0.0, 0.0, 1.0, -24.0, -54.85)" width="48.05" xlink:href="#shape1"/>
    </g>
    <g id="shape1" transform="matrix(1.0, 0.0, 0.0, 1.0, 24.0, 54.85)">
      <path d="M-13.75 -25.05 L-14.3 -28.5 Q-14.65 -30.95 -15.35 -33.25 L-15.95 -35.5 Q-16.8 -40.1 -19.05 -44.25 L-19.25 -44.75 -20.7 -49.05 -20.9 -49.45 -21.5 -51.25 Q-21.75 -52.6 -20.55 -52.4 L-20.3 -52.35 -19.6 -51.65 Q-18.9 -51.05 -18.05 -50.7 L-16.0 -49.6 -15.35 -49.2 -12.25 -47.35 -8.55 -44.5 Q-6.15 -42.45 -4.05 -39.95 L-2.35 -38.15 -1.65 -37.3 1.45 -33.7 2.0 -33.0 7.45 -25.0 Q10.15 -21.0 12.3 -16.55 L14.45 -11.7 16.5 -6.75 Q18.3 -2.45 19.55 2.25 20.75 6.9 21.3 11.75 L21.95 17.0 22.1 18.0 22.4 19.5 22.55 21.0 22.7 24.0 Q22.8 28.85 22.25 33.55 L22.25 33.7 Q20.35 40.55 16.45 46.8 14.5 50.0 11.95 52.25 L14.1 54.15 Q13.95 54.75 13.3 54.85 L10.7 53.3 8.45 54.8 8.2 54.55 8.0 54.2 9.25 52.3 Q-3.3 43.5 -7.7 28.4 -11.9 14.2 -11.1 -0.8 -10.8 -6.15 -11.1 -11.65 L-11.5 -16.15 -11.65 -16.85 -11.65 -17.35 -12.75 -21.75 -13.75 -25.05" fill="#000000" fill-rule="evenodd" stroke="none"/>
      <path d="M-13.75 -25.05 L-14.65 -28.1 Q-16.2 -32.65 -18.1 -37.1 L-18.3 -37.5 -18.8 -39.55 Q-21.6 -45.45 -23.7 -51.4 L-23.9 -52.55 -23.95 -53.15 -23.95 -53.2 -23.95 -54.3 -23.75 -54.5 Q-23.45 -54.85 -23.15 -54.85 L-22.4 -54.85 -22.05 -54.75 -21.4 -54.8 Q-13.15 -52.95 -7.2 -46.5 L3.1 -35.1 Q12.9 -24.0 18.35 -10.05 23.75 3.75 24.05 18.75 24.2 26.55 22.25 33.7 L22.25 33.55 Q22.8 28.85 22.7 24.0 L22.55 21.0 22.4 19.5 22.1 18.0 21.95 17.0 21.3 11.75 Q20.75 6.9 19.55 2.25 18.3 -2.45 16.5 -6.75 L14.45 -11.7 12.3 -16.55 Q10.15 -21.0 7.45 -25.0 L2.0 -33.0 1.45 -33.7 -1.65 -37.3 -2.35 -38.15 -4.05 -39.95 Q-6.15 -42.45 -8.55 -44.5 L-12.25 -47.35 -15.35 -49.2 -16.0 -49.6 -18.05 -50.7 Q-18.9 -51.05 -19.6 -51.65 L-20.3 -52.35 -20.55 -52.4 Q-21.75 -52.6 -21.5 -51.25 L-20.9 -49.45 -20.7 -49.05 -19.25 -44.75 -19.05 -44.25 Q-16.8 -40.1 -15.95 -35.5 L-15.35 -33.25 Q-14.65 -30.95 -14.3 -28.5 L-13.75 -25.05" fill="#666666" fill-rule="evenodd" stroke="none"/>
    </g>
    <g id="sprite3" transform="matrix(1.0, 0.0, 0.0, 1.0, 35.95, 40.5)">
      <use height="62.85" transform="matrix(1.0, 0.0, 0.0, 1.0, -35.95, -40.5)" width="72.4" xlink:href="#sprite4"/>
      <use height="37.7" transform="matrix(1.0, 0.0, 0.0, 1.0, -25.2, -27.95)" width="49.5" xlink:href="#sprite6"/>
      <use height="37.45" transform="matrix(0.9966, -0.0792, 0.0792, 0.9966, -34.932, 4.1523)" width="70.25" xlink:href="#shape5"/>
      <use height="5.7" transform="matrix(0.9966, -0.0792, 0.0792, 0.9966, -18.6065, 33.1216)" width="40.65" xlink:href="#sprite10"/>
      <use height="22.4" transform="matrix(0.9966, -0.0792, 0.0792, 0.9966, -17.0786, 1.3505)" width="34.4" xlink:href="#sprite11"/>
    </g>
    <g id="sprite4" transform="matrix(1.0, 0.0, 0.0, 1.0, 36.0, 39.3)">
      <use height="57.65" transform="matrix(0.9966, -0.0792, 0.0792, 0.9966, -35.9936, -33.9156)" width="68.05" xlink:href="#sprite5"/>
    </g>
    <g id="sprite5" transform="matrix(1.0, 0.0, 0.0, 1.0, 33.9, 29.15)">
      <use height="57.65" transform="matrix(1.0, 0.0, 0.0, 1.0, -33.9, -29.15)" width="68.05" xlink:href="#shape2"/>
    </g>
    <g id="shape2" transform="matrix(1.0, 0.0, 0.0, 1.0, 33.9, 29.15)">
      <path d="M-22.05 21.5 L-21.1 22.05 Q-20.7 22.05 -20.7 21.7 L-20.75 21.55 Q-25.3 18.15 -28.85 13.7 L-28.85 13.6 -28.9 13.3 Q-32.55 7.8 -32.75 1.15 L-32.85 0.9 -32.8 0.7 -32.9 -1.05 -32.85 -1.15 -32.8 -1.3 -32.8 -1.8 -32.75 -2.2 -32.55 -5.05 -32.45 -5.2 -32.35 -5.5 -32.35 -5.6 -32.4 -5.8 -32.05 -6.8 -30.9 -10.7 -30.55 -11.1 -29.7 -12.95 -29.5 -13.2 -28.9 -14.2 -28.75 -14.25 -28.5 -14.5 -28.3 -14.7 -27.45 -16.05 -27.05 -16.25 -27.0 -16.35 -26.5 -17.1 -26.35 -17.15 -22.85 -20.4 Q-21.6 -21.05 -20.4 -22.05 -19.1 -23.15 -17.6 -23.85 L-17.5 -23.95 -17.4 -24.1 -17.3 -24.2 -15.1 -25.1 -13.15 -25.7 -7.3 -27.35 Q4.05 -29.7 14.8 -25.0 L19.15 -22.9 Q24.45 -20.1 27.7 -15.3 L27.9 -15.2 28.15 -15.2 Q28.55 -14.35 29.1 -13.55 33.35 -7.2 32.9 0.15 L33.1 0.35 Q32.75 4.2 31.4 7.9 L31.3 8.05 Q29.55 13.2 25.8 17.05 L25.75 17.1 Q24.75 18.65 23.15 19.65 L23.05 19.8 Q22.7 20.05 22.8 20.35 L23.7 20.25 Q13.85 28.5 0.0 28.5 -12.75 28.5 -22.05 21.5 M30.8 11.75 L32.0 8.75 32.2 8.65 30.8 11.75" fill="url(#gradient7)" fill-rule="evenodd" stroke="none"/>
      <path d="M23.7 20.25 L22.8 20.35 Q22.7 20.05 23.05 19.8 L23.15 19.65 Q24.75 18.65 25.75 17.1 L25.8 17.05 Q29.55 13.2 31.3 8.05 L31.4 7.9 Q32.75 4.2 33.1 0.35 L32.9 0.15 Q33.35 -7.2 29.1 -13.55 28.55 -14.35 28.15 -15.2 L27.9 -15.2 27.7 -15.3 Q24.45 -20.1 19.15 -22.9 L14.8 -25.0 Q4.05 -29.7 -7.3 -27.35 L-13.15 -25.7 -15.1 -25.1 -17.3 -24.2 -17.4 -24.1 -17.5 -23.95 -17.6 -23.85 Q-19.1 -23.15 -20.4 -22.05 -21.6 -21.05 -22.85 -20.4 L-26.35 -17.15 -26.5 -17.1 -27.0 -16.35 -27.05 -16.25 -27.45 -16.05 -28.3 -14.7 -28.5 -14.5 -28.75 -14.25 -28.9 -14.2 -29.5 -13.2 -29.7 -12.95 -30.55 -11.1 -30.9 -10.7 -32.05 -6.8 -32.4 -5.8 -32.35 -5.6 -32.35 -5.5 -32.45 -5.2 -32.55 -5.05 -32.75 -2.2 -32.8 -1.8 -32.8 -1.3 -32.85 -1.15 -32.9 -1.05 -32.8 0.7 -32.85 0.9 -32.75 1.15 Q-32.55 7.8 -28.9 13.3 L-28.85 13.6 -28.85 13.7 Q-25.3 18.15 -20.75 21.55 L-20.7 21.7 Q-20.7 22.05 -21.1 22.05 L-22.05 21.5 Q-23.65 20.5 -25.05 19.15 -26.75 18.1 -27.85 16.25 -33.85 9.25 -33.9 0.0 L-33.75 -1.65 -33.65 -2.6 -33.65 -2.9 -33.6 -3.1 -33.55 -3.2 -33.3 -5.35 -33.3 -5.8 -31.45 -11.4 -30.8 -12.5 -30.8 -12.7 -30.75 -12.8 -30.65 -12.95 -30.55 -13.05 Q-27.45 -18.6 -22.05 -21.85 L-17.75 -24.65 Q-14.15 -26.55 -10.1 -27.7 0.0 -30.5 10.15 -27.95 17.9 -25.4 24.3 -20.4 L26.8 -18.35 26.9 -18.3 27.1 -18.2 27.25 -17.9 Q27.25 -18.1 27.5 -18.0 L27.8 -17.45 27.85 -17.35 Q31.6 -12.55 33.3 -6.75 L33.3 -6.55 Q33.9 -4.5 33.95 -2.4 L34.0 -2.3 Q33.95 -1.95 34.05 -1.65 L34.15 -1.45 34.05 -0.45 34.0 -0.2 34.1 0.05 34.1 0.15 33.8 2.9 33.7 3.25 32.45 8.2 32.2 8.65 32.0 8.75 30.8 11.75 Q28.35 16.75 23.75 20.2 L23.7 20.25" fill="#000000" fill-rule="evenodd" stroke="none"/>
    </g>
    <radialGradient cx="0" cy="0" gradientTransform="matrix(0.0435, 0.0, 0.0, 0.0435, 1.35, -6.55)" gradientUnits="userSpaceOnUse" id="gradient7" r="819.2" spreadMethod="pad">
      <stop offset="0.0" stop-color="#54b4cc"/>
      <stop offset="0.7176470588235294" stop-color="#54b4cc"/>
      <stop offset="1.0" stop-color="#3e8699"/>
    </radialGradient>
    <g id="sprite6" transform="matrix(1.0, 0.0, 0.0, 1.0, 24.8, 18.8)">
      <use height="34.35" transform="matrix(0.9966, -0.0792, 0.0792, 0.9966, -24.8179, -15.3403)" width="21.5" xlink:href="#sprite7"/>
      <use height="34.35" transform="matrix(-0.9984, 0.0487, 0.0487, 0.9984, 23.0507, -18.7968)" width="21.5" xlink:href="#sprite9"/>
    </g>
    <g id="sprite7" transform="matrix(1.0, 0.0, 0.0, 1.0, 10.75, 17.1)">
      <use height="34.35" transform="matrix(1.0, 0.0, 0.0, 1.0, -10.75, -17.1)" width="21.5" xlink:href="#shape3"/>
      <use height="26.55" transform="matrix(1.0, 0.0, 0.0, 1.0, -9.7998, -10.4998)" width="19.65" xlink:href="#sprite8"/>
    </g>
    <g id="shape3" transform="matrix(1.0, 0.0, 0.0, 1.0, 10.75, 17.1)">
      <path d="M5.95 -10.15 Q7.85 -9.0 9.2 -6.25 11.0 -2.55 10.7 5.25 10.55 10.6 9.9 13.45 9.2 16.85 -0.3 17.2 L-5.65 17.05 -7.8 16.65 Q-9.35 15.2 -10.15 11.4 -10.65 8.9 -10.75 5.8 L-10.75 5.1 -10.7 2.75 Q-10.45 -2.95 -7.75 -6.95 -4.95 -11.05 -0.7 -11.35 L1.55 -11.5 Q3.85 -11.4 5.35 -10.45 L5.95 -10.15 M5.65 -9.15 Q4.05 -10.35 1.2 -10.5 -5.65 -10.9 -8.85 -1.8 -6.2 -6.1 -2.1 -7.65 2.65 -9.45 7.75 -6.65 L5.65 -9.15 M-9.1 2.05 L-9.2 3.0 Q-9.4 7.6 -8.55 11.15 -7.8 14.5 -6.45 15.85 L-6.85 15.9 -5.5 16.1 -0.35 16.2 Q4.55 16.05 7.55 13.25 8.85 12.05 9.25 5.0 9.55 -0.95 8.6 -4.25 L8.05 -5.65 8.05 -5.7 Q2.25 -7.75 -2.05 -6.1 -5.85 -4.65 -8.8 -0.25 L-9.1 2.05 M5.2 6.2 Q5.2 10.1 4.15 11.95 2.85 14.35 -0.4 14.45 -5.35 14.6 -6.0 7.9 L-0.35 6.6 -5.9 3.7 Q-5.1 -2.45 -0.35 -2.3 5.2 -2.15 5.2 6.2 M-0.3 -16.95 Q2.5 -17.7 3.7 -15.2 -1.55 -17.35 -5.3 -12.25 L-4.25 -14.05 Q-2.8 -16.3 -0.3 -16.95" fill="#000000" fill-rule="evenodd" stroke="none"/>
      <path d="M-9.1 2.05 L-8.85 1.7 -6.7 -0.5 -6.25 -0.85 -4.0 -2.35 -1.55 -3.75 1.4 -4.6 1.8 -4.65 Q4.7 -4.8 7.55 -4.55 L8.0 -4.4 8.6 -4.25 Q9.55 -0.95 9.25 5.0 8.85 12.05 7.55 13.25 4.55 16.05 -0.35 16.2 L-5.5 16.1 -6.85 15.9 -6.45 15.85 Q-7.8 14.5 -8.55 11.15 -9.4 7.6 -9.2 3.0 L-9.1 2.05 M5.2 6.2 Q5.2 -2.15 -0.35 -2.3 -5.1 -2.45 -5.9 3.7 L-0.35 6.6 -6.0 7.9 Q-5.35 14.6 -0.4 14.45 2.85 14.35 4.15 11.95 5.2 10.1 5.2 6.2" fill="#ffffff" fill-rule="evenodd" stroke="none"/>
      <path d="M5.65 -9.15 L7.75 -6.65 Q2.65 -9.45 -2.1 -7.65 -6.2 -6.1 -8.85 -1.8 -5.65 -10.9 1.2 -10.5 4.05 -10.35 5.65 -9.15" fill="#53b3cb" fill-rule="evenodd" stroke="none"/>
      <path d="M8.6 -4.25 L8.0 -4.4 7.55 -4.55 Q4.7 -4.8 1.8 -4.65 L1.4 -4.6 -1.55 -3.75 -4.0 -2.35 -6.25 -0.85 -6.7 -0.5 -8.85 1.7 -9.1 2.05 -8.8 -0.25 Q-5.85 -4.65 -2.05 -6.1 2.25 -7.75 8.05 -5.7 L8.05 -5.65 8.6 -4.25" fill="#cccccc" fill-rule="evenodd" stroke="none"/>
    </g>
    <g id="sprite9" transform="matrix(1.0, 0.0, 0.0, 1.0, 10.75, 17.1)">
      <use height="34.35" transform="matrix(1.0, 0.0, 0.0, 1.0, -10.75, -17.1)" width="21.5" xlink:href="#shape4"/>
      <use height="26.55" transform="matrix(1.0, 0.0, 0.0, 1.0, -9.7998, -10.4998)" width="19.65" xlink:href="#sprite8"/>
    </g>
    <g id="shape4" transform="matrix(1.0, 0.0, 0.0, 1.0, 10.75, 17.1)">
      <path d="M5.35 -10.45 L5.95 -10.15 Q7.85 -9.0 9.2 -6.25 11.0 -2.55 10.7 5.25 10.55 10.6 9.9 13.45 9.2 16.85 -0.3 17.2 L-5.65 17.05 -7.8 16.65 Q-9.35 15.2 -10.15 11.4 -10.65 8.9 -10.75 5.8 L-10.75 5.1 -10.7 2.75 Q-10.45 -2.95 -7.75 -6.95 -4.95 -11.05 -0.7 -11.35 L1.55 -11.5 Q3.85 -11.4 5.35 -10.45 M5.65 -9.15 Q4.05 -10.35 1.2 -10.5 -5.65 -10.9 -8.85 -1.8 -6.2 -6.1 -2.1 -7.65 2.65 -9.45 7.75 -6.65 L5.65 -9.15 M-9.1 2.05 L-9.2 3.0 Q-9.4 7.6 -8.55 11.15 -7.8 14.5 -6.45 15.85 L-6.85 15.9 -5.5 16.1 -0.35 16.2 Q4.55 16.05 7.55 13.25 8.85 12.05 9.25 5.0 9.55 -0.95 8.6 -4.25 L8.05 -5.65 8.05 -5.7 Q2.25 -7.75 -2.05 -6.1 -5.85 -4.65 -8.8 -0.25 L-9.1 2.05 M-0.3 -16.95 Q2.5 -17.7 3.7 -15.2 -1.55 -17.35 -5.3 -12.25 L-4.25 -14.05 Q-2.8 -16.3 -0.3 -16.95" fill="#000000" fill-rule="evenodd" stroke="none"/>
      <path d="M-9.1 2.05 L-8.85 1.7 -6.7 -0.5 -6.25 -0.85 -4.0 -2.35 -1.55 -3.75 1.4 -4.6 1.8 -4.65 Q4.7 -4.8 7.55 -4.55 L8.0 -4.4 8.6 -4.25 Q9.55 -0.95 9.25 5.0 8.85 12.05 7.55 13.25 4.55 16.05 -0.35 16.2 L-5.5 16.1 -6.85 15.9 -6.45 15.85 Q-7.8 14.5 -8.55 11.15 -9.4 7.6 -9.2 3.0 L-9.1 2.05" fill="#ffffff" fill-rule="evenodd" stroke="none"/>
      <path d="M5.65 -9.15 L7.75 -6.65 Q2.65 -9.45 -2.1 -7.65 -6.2 -6.1 -8.85 -1.8 -5.65 -10.9 1.2 -10.5 4.05 -10.35 5.65 -9.15" fill="#53b3cb" fill-rule="evenodd" stroke="none"/>
      <path d="M8.6 -4.25 L8.0 -4.4 7.55 -4.55 Q4.7 -4.8 1.8 -4.65 L1.4 -4.6 -1.55 -3.75 -4.0 -2.35 -6.25 -0.85 -6.7 -0.5 -8.85 1.7 -9.1 2.05 -8.8 -0.25 Q-5.85 -4.65 -2.05 -6.1 2.25 -7.75 8.05 -5.7 L8.05 -5.65 8.6 -4.25" fill="#cccccc" fill-rule="evenodd" stroke="none"/>
      <path d="M-4.95 11.95 Q-6.0 10.1 -6.0 6.2 -6.0 -2.15 -0.45 -2.3 4.3 -2.45 5.1 3.7 L-0.45 6.6 5.2 7.9 Q4.55 14.6 -0.4 14.45 -3.65 14.35 -4.95 11.95" fill="#000000" fill-rule="evenodd" stroke="none"/>
    </g>
    <g id="shape5" transform="matrix(1.0, 0.0, 0.0, 1.0, 35.25, 17.7)">
      <path d="M4.2 -7.65 L8.85 -7.55 13.9 -6.85 Q16.5 -6.25 18.15 -4.1 L21.25 -0.05 Q22.85 2.05 25.2 3.35 27.0 4.35 28.75 5.5 L27.35 7.05 25.65 6.35 Q23.4 5.5 21.8 3.4 L20.85 1.85 19.15 -0.9 Q16.7 -4.8 12.35 -6.4 9.2 -7.55 4.2 -7.65 M-25.8 -12.0 L-33.0 -3.9 -34.25 -5.4 -34.2 -5.5 Q-34.1 -5.8 -34.35 -6.0 L-34.35 -6.2 -34.3 -7.35 -34.2 -7.55 -34.0 -8.4 -33.9 -8.5 Q-33.65 -8.75 -33.65 -9.1 L-33.5 -9.2 -33.4 -9.3 -33.35 -9.4 -33.3 -9.6 -33.2 -9.7 -33.05 -9.85 Q-31.7 -12.35 -30.6 -14.95 L-30.55 -15.05 -30.3 -16.25 -25.8 -12.0 M-30.95 3.1 Q-29.9 2.8 -29.0 1.85 -28.9 3.6 -27.6 3.6 L-27.5 3.6 Q-28.55 4.8 -29.9 5.05 L-30.55 3.8 -30.95 3.4 -30.95 3.25 -30.95 3.1 M-27.2 -0.6 L-27.0 -0.9 Q-21.5 -9.15 -15.75 -9.15 L-10.05 -8.55 -5.8 -8.0 -14.35 -8.4 Q-18.65 -7.1 -20.35 -6.15 -23.05 -4.65 -24.6 -1.9 L-26.35 1.7 -26.35 0.85 Q-26.35 -0.4 -27.2 -0.6 M-31.0 -16.35 L-31.0 -16.9 -30.95 -16.85 -31.0 -16.35" fill="#a88b69" fill-rule="evenodd" stroke="none"/>
      <path d="M-5.8 -8.0 L4.2 -7.65 Q9.2 -7.55 12.35 -6.4 16.7 -4.8 19.15 -0.9 L20.85 1.85 21.8 3.4 Q23.4 5.5 25.65 6.35 L27.35 7.05 25.2 9.4 Q16.9 16.45 6.05 18.0 L3.85 18.6 0.65 18.45 0.25 18.35 0.0 18.4 -4.25 18.05 -9.8 17.2 Q-19.8 14.95 -27.6 8.1 L-29.9 5.05 Q-28.55 4.8 -27.5 3.6 -26.6 3.5 -26.4 1.85 L-26.35 1.7 -24.6 -1.9 Q-23.05 -4.65 -20.35 -6.15 -18.65 -7.1 -14.35 -8.4 L-5.8 -8.0 M-7.75 18.8 L-7.95 18.75 -12.45 17.9 Q-14.6 17.35 -16.45 16.25 L-15.25 16.7 Q-11.6 18.0 -7.75 18.8 M-22.15 13.2 L-24.4 11.8 -26.45 10.3 Q-24.5 11.75 -22.35 13.0 L-22.15 13.2 M22.15 5.75 Q22.15 4.75 20.9 4.75 20.0 4.75 19.35 5.45 18.75 6.15 18.75 7.1 18.75 8.0 19.75 8.0 20.75 8.0 21.45 7.35 22.15 6.7 22.15 5.75 M-22.85 -1.65 Q-22.85 -2.6 -23.65 -2.6 -24.55 -2.6 -24.55 -1.15 -24.55 0.1 -23.65 0.1 -22.85 0.1 -22.85 -1.65" fill="#8c7357" fill-rule="evenodd" stroke="none"/>
      <path d="M28.75 5.5 Q27.0 4.35 25.2 3.35 22.85 2.05 21.25 -0.05 L18.15 -4.1 Q16.5 -6.25 13.9 -6.85 L8.85 -7.55 4.2 -7.65 -5.8 -8.0 -10.05 -8.55 -15.75 -9.15 Q-21.5 -9.15 -27.0 -0.9 L-27.2 -0.6 Q-27.95 -0.6 -28.45 0.1 -29.0 0.85 -29.0 1.85 -29.9 2.8 -30.95 3.1 L-31.3 2.65 -32.4 -0.9 Q-32.25 -2.55 -33.0 -3.9 L-25.8 -12.0 -25.5 -11.75 Q-21.6 -14.35 -15.0 -15.75 -8.4 -17.1 -0.9 -16.9 16.05 -16.4 26.3 -9.15 26.85 -7.7 28.1 -5.7 29.45 -3.5 29.85 -1.0 L30.55 3.45 28.75 5.5 M24.15 -2.0 Q24.15 -2.95 23.5 -3.15 22.65 -3.3 22.65 -2.0 22.65 -0.5 23.15 -0.5 24.15 -0.35 24.15 -2.0 M26.45 3.2 Q27.1 3.25 27.1 1.9 L27.1 1.85 Q27.1 0.4 26.1 0.8 25.8 0.9 25.85 1.85 L25.85 2.0 Q25.85 3.15 26.45 3.2 M-28.95 -4.5 Q-28.95 -3.2 -28.3 -3.2 -27.7 -3.2 -27.7 -4.95 -27.7 -5.95 -28.3 -5.95 -28.95 -5.95 -28.95 -4.5 M-31.3 -5.1 Q-31.8 -5.1 -31.8 -3.7 -31.8 -2.5 -31.3 -2.5 -30.8 -2.5 -30.8 -4.2 -30.8 -5.1 -31.3 -5.1" fill="#c19f79" fill-rule="evenodd" stroke="none"/>
      <path d="M30.55 3.45 L29.85 -1.0 Q29.45 -3.5 28.1 -5.7 26.85 -7.7 26.3 -9.15 L30.1 -13.7 Q30.05 -12.7 30.4 -11.65 L31.8 -9.0 Q33.75 -5.55 34.0 -1.8 33.65 -0.15 32.5 1.2 L30.55 3.45 M30.9 -13.55 L30.85 -13.6 30.9 -13.55 M35.0 -2.25 L34.8 -3.35 34.55 -4.25 Q35.05 -3.25 35.0 -2.25" fill="#b2936f" fill-rule="evenodd" stroke="none"/>
      <path d="M-29.0 1.85 Q-29.0 0.85 -28.45 0.1 -27.95 -0.6 -27.2 -0.6 -26.35 -0.4 -26.35 0.85 L-26.35 1.7 -26.4 1.85 Q-26.6 3.5 -27.5 3.6 L-27.6 3.6 Q-28.9 3.6 -29.0 1.85 M24.15 -2.0 Q24.15 -0.35 23.15 -0.5 22.65 -0.5 22.65 -2.0 22.65 -3.3 23.5 -3.15 24.15 -2.95 24.15 -2.0 M26.45 3.2 Q25.85 3.15 25.85 2.0 L25.85 1.85 Q25.8 0.9 26.1 0.8 27.1 0.4 27.1 1.85 L27.1 1.9 Q27.1 3.25 26.45 3.2 M22.15 5.75 Q22.15 6.7 21.45 7.35 20.75 8.0 19.75 8.0 18.75 8.0 18.75 7.1 18.75 6.15 19.35 5.45 20.0 4.75 20.9 4.75 22.15 4.75 22.15 5.75 M-31.3 -5.1 Q-30.8 -5.1 -30.8 -4.2 -30.8 -2.5 -31.3 -2.5 -31.8 -2.5 -31.8 -3.7 -31.8 -5.1 -31.3 -5.1 M-28.95 -4.5 Q-28.95 -5.95 -28.3 -5.95 -27.7 -5.95 -27.7 -4.95 -27.7 -3.2 -28.3 -3.2 -28.95 -3.2 -28.95 -4.5 M-22.85 -1.65 Q-22.85 0.1 -23.65 0.1 -24.55 0.1 -24.55 -1.15 -24.55 -2.6 -23.65 -2.6 -22.85 -2.6 -22.85 -1.65" fill="#352c21" fill-rule="evenodd" stroke="none"/>
      <path d="M28.75 5.5 L30.55 3.45 32.5 1.2 Q33.65 -0.15 34.0 -1.8 33.75 -5.55 31.8 -9.0 L30.4 -11.65 Q30.05 -12.7 30.1 -13.7 L30.3 -14.9 30.45 -15.05 30.9 -14.0 30.9 -13.9 30.9 -13.8 30.85 -13.6 30.9 -13.55 31.3 -12.05 31.35 -11.95 Q33.25 -8.2 34.55 -4.25 L34.8 -3.35 35.0 -2.25 Q35.0 -1.3 34.5 -0.4 33.55 1.35 32.15 2.75 L30.65 4.65 Q27.7 9.0 23.5 12.15 17.4 16.6 10.15 18.25 L5.5 19.25 -0.15 19.7 -7.75 18.8 Q-11.6 18.0 -15.25 16.7 L-16.45 16.25 Q-18.5 15.4 -20.35 14.2 L-20.75 13.95 -21.7 13.45 -22.05 13.3 -22.15 13.2 -22.35 13.0 Q-24.5 11.75 -26.45 10.3 L-28.35 8.8 Q-30.25 6.65 -31.5 4.2 -33.2 1.55 -33.3 -1.55 -33.4 -3.3 -34.9 -4.2 L-35.25 -5.55 -35.25 -5.7 Q-35.25 -7.55 -34.4 -9.2 L-34.3 -9.35 -34.0 -9.85 -33.95 -9.95 Q-32.55 -12.05 -31.6 -14.45 L-31.6 -14.65 -31.6 -14.85 -31.0 -16.35 -30.95 -16.85 -30.95 -16.95 -30.95 -17.05 Q-31.25 -17.55 -30.7 -17.65 L-30.7 -17.7 Q-30.3 -17.0 -30.3 -16.25 L-30.55 -15.05 -30.6 -14.95 Q-31.7 -12.35 -33.05 -9.85 L-33.2 -9.7 -33.3 -9.6 -33.35 -9.4 -33.4 -9.3 -33.5 -9.2 -33.65 -9.1 Q-33.65 -8.75 -33.9 -8.5 L-34.0 -8.4 -34.2 -7.55 -34.3 -7.35 -34.35 -6.2 -34.35 -6.0 Q-34.1 -5.8 -34.2 -5.5 L-34.25 -5.4 -33.0 -3.9 Q-32.25 -2.55 -32.4 -0.9 L-31.3 2.65 -30.95 3.1 -30.95 3.25 -30.95 3.4 -30.55 3.8 -29.9 5.05 -27.6 8.1 Q-19.8 14.95 -9.8 17.2 L-4.25 18.05 0.0 18.4 0.25 18.35 0.65 18.45 3.85 18.6 6.05 18.0 Q16.9 16.45 25.2 9.4 L27.35 7.05 28.75 5.5" fill="#000000" fill-rule="evenodd" stroke="none"/>
    </g>
    <g id="sprite10" transform="matrix(1.0, 0.0, 0.0, 1.0, 20.35, 2.85)">
      <use height="5.7" transform="matrix(1.0, 0.0, 0.0, 1.0, -20.35, -2.85)" width="40.65" xlink:href="#shape6"/>
    </g>
    <g id="shape6" transform="matrix(1.0, 0.0, 0.0, 1.0, 20.35, 2.85)">
      <path d="M-17.95 -1.45 L0.05 -1.2 12.65 -0.65 17.4 -0.35 20.3 -1.6 -0.6 -1.95 -20.35 -2.85 -17.95 -1.45" fill="#65543f" fill-rule="evenodd" stroke="none"/>
      <path d="M-4.35 2.8 L7.25 2.7 Q11.05 2.4 13.85 1.25 0.7 -0.65 -15.75 0.1 -11.7 2.3 -4.35 2.8" fill="#8c7357" fill-rule="evenodd" stroke="none"/>
    </g>
    <g id="sprite11" transform="matrix(1.0, 0.0, 0.0, 1.0, 17.2, 11.2)">
      <use height="22.4" transform="matrix(1.0, 0.0, 0.0, 1.0, -17.2, -11.2)" width="34.4" xlink:href="#shape7"/>
    </g>
    <g id="shape7" transform="matrix(1.0, 0.0, 0.0, 1.0, 17.2, 11.2)">
      <path d="M-11.8 8.6 Q-6.85 11.2 0.95 11.2 8.6 11.2 12.45 8.9 16.85 6.25 17.2 0.05 17.45 -4.4 12.3 -7.8 7.15 -11.2 0.05 -11.2 -7.5 -11.2 -12.05 -8.5 -17.0 -5.5 -17.2 0.05 -17.35 5.6 -11.8 8.6" fill="url(#gradient8)" fill-rule="evenodd" stroke="none"/>
      <path d="M0.95 -2.7 Q0.95 -3.95 2.2 -4.8 3.45 -5.7 5.2 -5.7 6.95 -5.7 8.2 -4.8 9.45 -3.95 9.45 -2.7 9.45 -1.45 8.2 -0.55 6.95 0.3 5.2 0.3 3.45 0.3 2.2 -0.55 0.95 -1.45 0.95 -2.7 M4.4 -2.9 L4.55 -2.5 5.0 -2.35 Q6.05 -2.1 6.35 -3.1 L6.3 -3.15 5.95 -3.65 5.6 -3.8 Q4.85 -3.8 4.4 -3.2 L4.4 -2.9" fill="url(#gradient9)" fill-rule="evenodd" stroke="none"/>
      <path d="M4.4 -2.9 L4.4 -3.2 Q4.85 -3.8 5.6 -3.8 L5.95 -3.65 6.3 -3.15 6.35 -3.1 Q6.05 -2.1 5.0 -2.35 L4.55 -2.5 4.4 -2.9" fill="#ffffff" fill-rule="evenodd" stroke="none"/>
    </g>
    <radialGradient cx="0" cy="0" gradientTransform="matrix(0.022, 0.0, 0.0, 0.022, 0.65, -2.1)" gradientUnits="userSpaceOnUse" id="gradient8" r="819.2" spreadMethod="pad">
      <stop offset="0.0" stop-color="#202020"/>
      <stop offset="0.7843137254901961" stop-color="#0a0a0a"/>
      <stop offset="1.0" stop-color="#0a0a0a"/>
    </radialGradient>
    <radialGradient cx="0" cy="0" gradientTransform="matrix(0.0052, 0.0, 0.0, 0.0052, 5.2, -2.7)" gradientUnits="userSpaceOnUse" id="gradient9" r="819.2" spreadMethod="pad">
      <stop offset="0.0" stop-color="#5d5d5d"/>
      <stop offset="0.37254901960784315" stop-color="#5d5d5d"/>
      <stop offset="1.0" stop-color="#202020"/>
    </radialGradient>
  </defs>
</svg>
