<?xml version="1.0" encoding="UTF-8" standalone="no"?>
<svg xmlns:xlink="http://www.w3.org/1999/xlink" height="58.55px" width="59.55px" xmlns="http://www.w3.org/2000/svg">
  <g transform="matrix(1.0, 0.0, 0.0, 1.0, 29.75, 29.25)">
    <use height="58.55" transform="matrix(1.0, 0.0, 0.0, 1.0, -29.75, -29.25)" width="59.55" xlink:href="#shape0"/>
  </g>
  <defs>
    <g id="shape0" transform="matrix(1.0, 0.0, 0.0, 1.0, 29.75, 29.25)">
      <path d="M5.15 -16.95 L5.3 -16.85 5.35 -16.9 6.1 -16.75 6.4 -16.7 6.6 -16.65 6.7 -16.6 6.75 -16.55 6.8 -16.5 6.8 -16.55 6.9 -17.0 7.3 -16.75 7.65 -16.5 8.8 -15.6 9.1 -15.4 10.0 -14.9 11.35 -13.5 11.25 -13.35 11.15 -13.45 10.9 -13.65 10.0 -14.2 10.05 -13.9 10.05 -13.4 10.1 -13.1 9.45 -13.3 8.85 -13.9 8.8 -14.05 8.35 -14.65 8.3 -14.3 8.15 -14.0 7.95 -13.6 7.75 -13.6 7.85 -13.5 7.35 -12.9 7.3 -13.6 7.25 -14.9 7.2 -15.1 6.5 -15.6 3.9 -16.7 2.8 -17.65 2.8 -17.8 3.1 -17.8 Q3.6 -17.45 4.25 -17.35 L4.75 -17.15 5.15 -16.95 M-17.1 -1.6 L-16.7 -1.9 -16.6 -1.75 -16.7 -1.4 -16.75 -1.05 -17.0 -0.05 -16.95 0.15 -16.45 0.9 -15.9 1.55 -15.25 2.35 -15.5 2.3 -16.05 2.1 -17.0 1.6 -17.05 3.7 -17.1 4.2 -17.1 4.3 -17.55 3.7 -18.1 2.1 -18.2 1.9 -18.4 1.85 -18.95 1.75 -19.65 1.55 -19.9 1.45 -20.15 1.0 -20.0 0.6 -19.9 0.55 -19.75 0.55 -19.25 0.5 -18.5 0.35 -19.3 -1.25 -19.5 -1.9 -19.15 -1.65 -18.25 -1.05 -18.05 -1.0 -17.1 -1.6 M-3.55 -13.55 L-3.45 -13.6 -3.25 -13.05 Q-3.15 -12.8 -2.7 -12.8 L-2.1 -12.1 -1.9 -12.05 0.85 -12.1 1.0 -11.9 0.1 -11.05 -0.2 -10.75 -0.55 -10.4 -0.65 -10.3 -0.9 -10.15 -0.1 -8.55 0.0 -8.4 -0.15 -8.3 -0.25 -8.35 -1.9 -9.05 -2.0 -9.15 Q-2.45 -9.55 -2.55 -9.05 L-2.65 -8.9 Q-3.45 -8.15 -3.75 -7.3 L-4.0 -7.5 -4.1 -10.05 Q-4.1 -10.1 -4.25 -10.15 L-6.85 -11.1 -6.95 -11.35 -6.4 -11.45 -6.0 -11.5 -4.65 -11.6 Q-4.2 -11.6 -4.0 -11.9 L-3.95 -12.05 -3.7 -13.15 -3.55 -13.55 M-14.75 7.25 L-14.7 7.15 -14.4 7.25 Q-14.0 7.35 -13.65 7.6 L-13.0 7.85 -13.0 7.7 -12.9 7.2 -12.65 7.7 -12.05 8.65 -11.15 9.3 Q-10.3 9.6 -9.5 10.0 L-9.5 10.15 -10.4 10.15 -11.25 10.2 -10.65 11.25 -10.75 11.3 -10.5 11.55 -9.45 13.6 -9.35 13.75 -9.45 13.8 Q-9.75 13.1 -10.35 12.55 L-10.55 12.4 -12.45 10.65 -12.65 10.55 -12.9 10.55 -13.7 10.75 -14.15 10.4 Q-13.8 9.6 -13.25 9.2 L-13.4 9.1 -13.8 8.75 -14.8 7.6 -14.75 7.25" fill="#1e1fad" fill-rule="evenodd" stroke="none"/>
      <path d="M8.3 -14.3 L8.35 -14.65 8.8 -14.05 8.85 -13.9 9.45 -13.3 10.1 -13.1 10.05 -13.4 10.05 -13.9 10.0 -14.2 10.9 -13.65 11.15 -13.45 11.25 -13.35 11.35 -13.5 10.0 -14.9 9.1 -15.4 8.8 -15.6 7.65 -16.5 7.3 -16.75 6.9 -17.0 6.8 -16.55 6.8 -16.5 6.75 -16.55 6.7 -16.6 6.6 -16.65 6.4 -16.7 6.1 -16.75 5.35 -16.9 5.3 -16.85 5.15 -16.95 4.6 -17.4 4.05 -17.9 3.95 -18.0 2.2 -19.6 3.25 -19.4 Q6.55 -18.75 9.45 -17.0 L10.1 -16.4 11.2 -15.3 13.3 -13.05 16.0 -9.95 Q21.15 -3.7 26.25 4.45 L24.25 2.35 Q22.35 0.65 20.2 -0.4 L19.9 -0.55 16.4 -5.05 16.1 -5.6 15.55 -6.5 13.1 -9.4 11.5 -11.2 9.85 -12.9 9.45 -13.3 9.4 -13.35 9.15 -13.55 8.3 -14.3 M4.95 -21.0 L5.8 -20.3 4.85 -20.95 2.85 -22.05 Q-0.65 -23.7 -4.75 -23.95 L-4.8 -23.95 -7.35 -25.35 -7.85 -25.7 Q-10.05 -27.45 -12.85 -28.3 L-14.05 -28.7 -12.55 -28.75 Q-9.7 -28.75 -7.15 -27.95 L-5.8 -27.45 -5.15 -27.15 Q-1.75 -25.7 1.6 -23.45 L2.3 -22.95 3.2 -22.3 4.95 -21.0 M-0.1 24.3 Q-7.75 19.05 -13.45 13.65 L-15.95 11.15 -17.8 9.2 -19.7 7.0 -20.55 5.9 -20.5 5.9 Q-21.8 3.3 -22.1 0.25 L-22.15 -0.25 -22.1 -3.5 -21.7 -2.8 -19.9 0.3 -19.75 0.55 -19.9 0.55 -20.0 0.6 -20.15 1.0 -19.9 1.45 -19.65 1.55 -18.95 1.75 -18.75 2.05 -17.55 3.7 -17.1 4.3 -16.8 4.75 -16.7 4.8 -16.2 5.5 -15.3 6.6 -15.0 6.95 -14.75 7.25 -14.8 7.6 -13.8 8.75 -13.4 9.1 -13.25 9.2 Q-13.8 9.6 -14.15 10.4 L-13.7 10.75 -12.9 10.55 -12.65 10.55 -12.45 10.65 -10.55 12.4 -10.35 12.55 Q-9.75 13.1 -9.45 13.8 L-9.35 13.75 -9.45 13.6 -10.5 11.55 -9.2 12.65 -6.25 14.95 -5.35 15.55 -4.9 15.85 -4.8 16.3 Q-3.9 20.8 -0.05 24.25 L-0.1 24.3 M-25.6 -2.0 Q-27.3 -5.3 -28.3 -8.6 -29.05 -10.95 -29.05 -13.35 -29.05 -16.25 -28.05 -18.8 -27.85 -16.5 -26.9 -14.3 L-25.25 -10.3 -25.15 -10.15 Q-25.65 -8.25 -25.65 -6.15 -25.65 -3.05 -24.65 -0.35 L-24.4 0.2 -24.7 -0.3 -25.6 -2.0" fill="#cccccc" fill-rule="evenodd" stroke="none"/>
      <path d="M11.2 -15.3 L10.1 -16.4 9.45 -17.0 9.05 -17.45 5.8 -20.3 4.95 -21.0 6.8 -22.65 9.5 -24.75 Q12.85 -22.7 15.35 -19.8 L12.8 -17.15 11.2 -15.3 M11.95 -6.1 L11.35 -6.05 12.85 -4.05 12.5 -4.1 11.4 -4.5 11.1 -4.6 10.5 -4.75 10.35 -4.8 9.8 -4.6 8.9 -3.85 8.65 -3.6 8.45 -3.75 8.2 -4.1 8.15 -4.15 8.2 -5.65 5.5 -7.1 5.0 -7.35 4.6 -7.75 7.0 -7.65 7.6 -7.6 8.85 -7.15 9.1 -8.7 10.15 -7.4 10.65 -7.45 10.75 -7.3 10.8 -7.45 11.4 -7.35 12.4 -6.95 12.75 -6.8 13.25 -6.6 13.55 -6.25 12.55 -6.2 12.25 -6.15 11.95 -6.1 M-0.25 -17.5 L-0.5 -17.15 Q-0.7 -16.7 -0.75 -17.15 L-0.7 -16.8 -0.5 -16.3 -0.4 -15.55 Q-0.85 -15.7 -1.3 -16.1 L-1.3 -16.25 -1.4 -16.2 -1.6 -16.45 Q-1.95 -16.85 -2.0 -16.65 L-2.25 -16.05 -2.25 -15.95 Q-2.4 -15.45 -2.75 -15.4 L-2.9 -15.55 -2.8 -15.7 -3.05 -15.95 -3.05 -16.05 -3.05 -16.4 Q-3.0 -17.05 -3.4 -17.15 -4.45 -17.5 -5.35 -18.1 L-5.6 -18.4 -3.65 -18.15 -3.2 -18.0 Q-2.55 -17.65 -2.4 -17.8 L-2.55 -18.05 -3.15 -19.15 -1.65 -18.3 -1.45 -18.25 -1.15 -18.3 -0.5 -18.35 Q-0.3 -18.2 -0.15 -18.2 L0.05 -18.2 0.1 -18.2 0.25 -18.05 -0.25 -17.5 M-2.95 -19.8 L-3.2 -19.75 Q-11.6 -19.15 -17.15 -13.4 -19.75 -10.75 -21.0 -7.7 L-21.4 -8.4 -22.8 -10.9 -23.95 -13.45 Q-22.55 -16.3 -19.9 -18.75 -15.2 -23.05 -8.85 -23.8 L-5.7 -21.75 -5.15 -21.4 -4.35 -20.85 -2.95 -19.8 M-22.35 12.65 Q-26.0 9.2 -28.0 4.45 L-25.6 2.45 -23.9 1.3 Q-22.75 3.55 -20.85 5.55 L-20.55 5.9 -19.7 7.0 -17.8 9.2 -19.85 10.7 -22.35 12.65 M-4.75 -23.95 L-4.75 -23.9 -4.8 -23.95 -4.75 -23.95 M-8.05 -4.25 L-7.5 -4.1 -6.5 -2.9 -6.4 -2.8 -5.25 -3.35 -3.95 -3.8 -3.9 -3.75 -4.05 -3.4 -4.8 -2.05 -4.9 -1.4 -4.75 -1.25 -4.1 -0.7 -3.9 -0.3 -3.7 0.05 -3.55 0.25 -3.1 0.65 Q-2.75 0.85 -3.0 0.95 L-3.4 0.8 -3.75 0.75 -4.4 0.7 -5.25 0.4 Q-5.65 0.25 -5.85 0.7 L-6.05 0.95 -7.05 2.45 -7.2 2.6 Q-7.4 2.95 -7.4 2.7 L-7.55 1.95 -7.75 0.2 -7.8 0.05 Q-8.35 -0.4 -9.25 -0.45 L-9.5 -0.45 -9.65 -0.45 Q-10.3 -0.5 -10.45 -0.95 L-10.45 -1.0 -10.45 -1.05 -10.2 -1.1 -8.9 -1.5 -8.55 -1.7 -8.25 -1.8 -8.2 -2.3 -8.2 -2.55 Q-8.35 -3.35 -8.1 -4.2 L-8.05 -4.25 M-17.15 -12.65 Q-16.6 -12.95 -15.9 -13.1 L-15.85 -13.1 -13.9 -12.9 -13.95 -13.05 -14.05 -13.3 -14.35 -14.3 -14.4 -15.05 -14.25 -14.95 -13.95 -14.75 -13.85 -14.65 -13.15 -13.9 -12.9 -13.75 -12.65 -13.75 -11.75 -14.1 -11.05 -14.4 -11.25 -13.9 -11.35 -13.55 Q-11.35 -12.75 -11.75 -12.3 L-10.9 -11.3 -10.75 -11.1 -10.7 -11.0 -10.5 -10.3 -11.25 -10.55 -11.3 -10.55 -11.25 -10.65 -11.05 -10.9 -11.45 -10.6 -12.9 -11.3 -12.95 -10.65 Q-13.0 -9.65 -13.4 -8.9 L-13.5 -9.15 -13.6 -9.3 -13.8 -9.75 -14.0 -10.3 Q-14.15 -11.55 -15.0 -11.85 L-16.0 -12.1 Q-16.35 -12.15 -16.65 -12.3 L-17.15 -12.65" fill="#ff0000" fill-rule="evenodd" stroke="none"/>
      <path d="M13.3 -13.05 L11.2 -15.3 12.8 -17.15 15.35 -19.8 17.3 -17.2 14.9 -14.7 13.3 -13.05 M9.5 -24.75 L6.8 -22.65 4.95 -21.0 3.2 -22.3 6.0 -24.8 7.3 -26.0 9.5 -24.75 M-21.0 -7.7 L-21.0 -7.6 Q-21.85 -5.65 -22.1 -3.5 L-22.35 -3.9 -23.1 -5.3 -25.15 -10.15 -25.15 -10.25 Q-24.75 -11.9 -23.95 -13.45 L-22.8 -10.9 -21.4 -8.4 -21.0 -7.7 M-19.6 14.95 L-22.35 12.65 -19.85 10.7 -17.8 9.2 -15.95 11.15 -16.2 11.35 -17.4 12.5 -19.6 14.95 M-28.0 4.45 L-28.65 2.75 -26.5 1.05 -24.7 -0.3 -24.4 0.2 -23.9 1.3 -25.6 2.45 -28.0 4.45 M-8.85 -23.8 L-6.1 -23.95 -4.8 -23.95 -4.75 -23.9 -4.0 -23.45 0.2 -20.9 1.45 -20.1 2.2 -19.6 -2.95 -19.8 -4.35 -20.85 -5.15 -21.4 -5.7 -21.75 -8.85 -23.8" fill="#dd0000" fill-rule="evenodd" stroke="none"/>
      <path d="M16.0 -9.95 L13.3 -13.05 14.9 -14.7 17.3 -17.2 19.3 -13.5 16.0 -9.95 M9.45 -17.0 Q6.55 -18.75 3.25 -19.4 L2.2 -19.6 1.45 -20.1 0.2 -20.9 -4.0 -23.45 -4.75 -23.9 -4.75 -23.95 Q-0.65 -23.7 2.85 -22.05 L4.85 -20.95 5.8 -20.3 9.05 -17.45 9.45 -17.0 M-13.45 13.65 L-17.2 16.5 -19.6 14.95 -17.4 12.5 -16.2 11.35 -15.95 11.15 -13.45 13.65 M-28.65 2.75 L-29.25 0.9 -25.6 -2.0 -24.7 -0.3 -26.5 1.05 -28.65 2.75 M1.6 -23.45 L5.0 -27.0 7.3 -26.0 6.0 -24.8 3.2 -22.3 2.3 -22.95 1.6 -23.45 M-25.15 -10.15 L-23.1 -5.3 -22.35 -3.9 -22.1 -3.5 -22.15 -0.25 -22.1 0.25 Q-21.8 3.3 -20.5 5.9 L-20.85 5.55 -21.25 5.0 -23.8 1.2 -24.4 0.2 -24.65 -0.35 Q-25.65 -3.05 -25.65 -6.15 -25.65 -8.25 -25.15 -10.15" fill="#b90000" fill-rule="evenodd" stroke="none"/>
      <path d="M19.9 -0.55 L20.2 -0.4 Q22.35 0.65 24.25 2.35 L26.25 4.45 Q29.3 8.3 29.3 13.3 29.3 19.7 24.25 24.25 19.2 28.8 12.1 28.8 5.25 28.8 0.35 24.6 L-0.05 24.25 Q-3.9 20.8 -4.8 16.3 L-4.9 15.85 -5.1 13.3 -5.0 11.55 -8.35 8.45 -10.5 6.55 -12.8 4.15 -15.5 0.7 -16.25 -0.3 -16.75 -1.05 -16.7 -1.4 -16.6 -1.75 -16.7 -1.9 -17.1 -1.6 -18.4 -3.55 -20.0 -6.05 -20.95 -7.6 -21.0 -7.6 -21.0 -7.7 Q-19.75 -10.75 -17.15 -13.4 -11.6 -19.15 -3.2 -19.75 L-2.95 -19.8 -2.25 -19.2 -1.15 -18.3 -1.45 -18.25 -1.65 -18.3 -3.15 -19.15 -2.55 -18.05 -2.4 -17.8 Q-2.55 -17.65 -3.2 -18.0 L-3.65 -18.15 -5.6 -18.4 -5.35 -18.1 Q-4.45 -17.5 -3.4 -17.15 -3.0 -17.05 -3.05 -16.4 L-3.05 -16.05 -3.05 -15.95 -2.8 -15.7 -2.9 -15.55 -2.75 -15.4 Q-2.4 -15.45 -2.25 -15.95 L-2.25 -16.05 -2.0 -16.65 Q-1.95 -16.85 -1.6 -16.45 L-1.4 -16.2 -1.3 -16.25 -1.3 -16.1 Q-0.85 -15.7 -0.4 -15.55 L-0.5 -16.3 -0.7 -16.8 -0.75 -17.15 Q-0.7 -16.7 -0.5 -17.15 L-0.25 -17.5 0.2 -17.1 1.05 -16.3 1.15 -16.2 1.45 -16.0 3.3 -14.6 3.85 -14.15 5.75 -12.45 7.95 -10.25 8.55 -9.75 9.55 -8.75 10.65 -7.45 10.15 -7.4 9.1 -8.7 8.85 -7.15 7.6 -7.6 7.0 -7.65 4.6 -7.75 5.0 -7.35 5.5 -7.1 8.2 -5.65 8.15 -4.15 8.2 -4.1 8.45 -3.75 8.65 -3.6 8.9 -3.85 9.8 -4.6 10.35 -4.8 10.5 -4.75 11.1 -4.6 11.4 -4.5 12.5 -4.1 12.85 -4.05 11.35 -6.05 11.95 -6.1 13.6 -4.0 13.65 -3.95 14.6 -2.9 15.7 -1.9 15.95 -1.85 Q18.0 -1.45 19.9 -0.55 M15.7 -1.9 L12.1 -2.2 Q5.0 -2.2 -0.05 2.35 -4.4 6.25 -5.0 11.55 -4.4 6.25 -0.05 2.35 5.0 -2.2 12.1 -2.2 L15.7 -1.9 M12.35 24.55 Q17.55 24.55 21.2 21.3 24.9 18.1 24.9 13.55 24.9 9.0 21.2 5.75 17.55 2.55 12.35 2.55 7.15 2.55 3.45 5.75 -0.2 9.0 -0.2 13.55 -0.2 18.1 3.45 21.3 7.15 24.55 12.35 24.55 M-26.5 -21.65 L-26.35 -21.85 -24.25 -24.25 Q-21.15 -27.1 -17.25 -28.15 L-17.0 -28.2 Q-16.45 -27.9 -15.85 -27.75 L-14.8 -27.35 -14.0 -26.9 -11.3 -25.4 -10.45 -24.85 -8.85 -23.8 Q-15.2 -23.05 -19.9 -18.75 -22.55 -16.3 -23.95 -13.45 L-24.5 -14.8 -25.2 -16.7 -26.5 -21.65 M-3.55 -13.55 L-3.7 -13.15 -3.95 -12.05 -4.0 -11.9 Q-4.2 -11.6 -4.65 -11.6 L-6.0 -11.5 -6.4 -11.45 -6.95 -11.35 -6.85 -11.1 -4.25 -10.15 Q-4.1 -10.1 -4.1 -10.05 L-4.0 -7.5 -3.75 -7.3 Q-3.45 -8.15 -2.65 -8.9 L-2.55 -9.05 Q-2.45 -9.55 -2.0 -9.15 L-1.9 -9.05 -0.25 -8.35 -0.15 -8.3 0.0 -8.4 -0.1 -8.55 -0.9 -10.15 -0.65 -10.3 -0.55 -10.4 -0.2 -10.75 0.1 -11.05 1.0 -11.9 0.85 -12.1 -1.9 -12.05 -2.1 -12.1 -2.7 -12.8 Q-3.15 -12.8 -3.25 -13.05 L-3.45 -13.6 -3.55 -13.55 M-8.05 -4.25 L-8.1 -4.2 Q-8.35 -3.35 -8.2 -2.55 L-8.2 -2.3 -8.25 -1.8 -8.55 -1.7 -8.9 -1.5 -10.2 -1.1 -10.45 -1.05 -10.45 -1.0 -10.45 -0.95 Q-10.3 -0.5 -9.65 -0.45 L-9.5 -0.45 -9.25 -0.45 Q-8.35 -0.4 -7.8 0.05 L-7.75 0.2 -7.55 1.95 -7.4 2.7 Q-7.4 2.95 -7.2 2.6 L-7.05 2.45 -6.05 0.95 -5.85 0.7 Q-5.65 0.25 -5.25 0.4 L-4.4 0.7 -3.75 0.75 -3.4 0.8 -3.0 0.95 Q-2.75 0.85 -3.1 0.65 L-3.55 0.25 -3.7 0.05 -3.9 -0.3 -4.1 -0.7 -4.75 -1.25 -4.9 -1.4 -4.8 -2.05 -4.05 -3.4 -3.9 -3.75 -3.95 -3.8 -5.25 -3.35 -6.4 -2.8 -6.5 -2.9 -7.5 -4.1 -8.05 -4.25 M-17.15 -12.65 L-16.65 -12.3 Q-16.35 -12.15 -16.0 -12.1 L-15.0 -11.85 Q-14.15 -11.55 -14.0 -10.3 L-13.8 -9.75 -13.6 -9.3 -13.5 -9.15 -13.4 -8.9 Q-13.0 -9.65 -12.95 -10.65 L-12.9 -11.3 -11.45 -10.6 -11.05 -10.9 -11.25 -10.65 -11.3 -10.55 -11.25 -10.55 -10.5 -10.3 -10.7 -11.0 -10.75 -11.1 -10.9 -11.3 -11.75 -12.3 Q-11.35 -12.75 -11.35 -13.55 L-11.25 -13.9 -11.05 -14.4 -11.75 -14.1 -12.65 -13.75 -12.9 -13.75 -13.15 -13.9 -13.85 -14.65 -13.95 -14.75 -14.25 -14.95 -14.4 -15.05 -14.35 -14.3 -14.05 -13.3 -13.95 -13.05 -13.9 -12.9 -15.85 -13.1 -15.9 -13.1 Q-16.6 -12.95 -17.15 -12.65 M-25.15 -10.25 L-25.15 -10.15 -25.25 -10.3 -25.15 -10.25" fill="#ffffff" fill-rule="evenodd" stroke="none"/>
      <path d="M5.15 -16.95 L4.75 -17.15 4.25 -17.35 Q3.6 -17.45 3.1 -17.8 L2.8 -17.8 2.8 -17.65 3.9 -16.7 6.5 -15.6 7.2 -15.1 7.25 -14.9 7.3 -13.6 7.35 -12.9 7.85 -13.5 7.75 -13.6 7.95 -13.6 8.15 -14.0 8.3 -14.3 9.15 -13.55 9.4 -13.35 9.45 -13.3 9.85 -12.9 11.5 -11.2 13.1 -9.4 15.55 -6.5 16.1 -5.6 16.4 -5.05 19.9 -0.55 Q18.0 -1.45 15.95 -1.85 L15.7 -1.9 14.6 -2.9 13.65 -3.95 13.6 -4.0 11.95 -6.1 12.25 -6.15 12.55 -6.2 13.55 -6.25 13.25 -6.6 12.75 -6.8 12.4 -6.95 11.4 -7.35 10.8 -7.45 10.75 -7.3 10.65 -7.45 9.55 -8.75 8.55 -9.75 7.95 -10.25 5.75 -12.45 3.85 -14.15 3.3 -14.6 1.45 -16.0 1.15 -16.2 1.05 -16.3 0.2 -17.1 -0.25 -17.5 0.25 -18.05 0.1 -18.2 0.05 -18.2 -0.15 -18.2 Q-0.3 -18.2 -0.5 -18.35 L-1.15 -18.3 -2.25 -19.2 -2.95 -19.8 2.2 -19.6 3.95 -18.0 4.05 -17.9 4.6 -17.4 5.15 -16.95 M-21.0 -7.6 L-20.95 -7.6 -20.0 -6.05 -18.4 -3.55 -17.1 -1.6 -18.05 -1.0 -18.25 -1.05 -19.15 -1.65 -19.5 -1.9 -19.3 -1.25 -18.5 0.35 -19.25 0.5 -19.75 0.55 -19.9 0.3 -21.7 -2.8 -22.1 -3.5 Q-21.85 -5.65 -21.0 -7.6 M-16.75 -1.05 L-16.25 -0.3 -15.5 0.7 -12.8 4.15 -10.5 6.55 -8.35 8.45 -5.0 11.55 -5.1 13.3 -4.9 15.85 -5.35 15.55 -6.25 14.95 -9.2 12.65 -10.5 11.55 -10.75 11.3 -10.65 11.25 -11.25 10.2 -10.4 10.15 -9.5 10.15 -9.5 10.0 Q-10.3 9.6 -11.15 9.3 L-12.05 8.65 -12.65 7.7 -12.9 7.2 -13.0 7.7 -13.0 7.85 -13.65 7.6 Q-14.0 7.35 -14.4 7.25 L-14.7 7.15 -14.75 7.25 -15.0 6.95 -15.3 6.6 -16.2 5.5 -16.7 4.8 -16.8 4.75 -17.1 4.3 -17.1 4.2 -17.05 3.7 -17.0 1.6 -16.05 2.1 -15.5 2.3 -15.25 2.35 -15.9 1.55 -16.45 0.9 -16.95 0.15 -17.0 -0.05 -16.75 -1.05 M-28.05 -18.8 L-27.8 -19.4 -26.5 -21.65 -25.2 -16.7 -24.5 -14.8 -23.95 -13.45 Q-24.75 -11.9 -25.15 -10.25 L-25.25 -10.3 -26.9 -14.3 Q-27.85 -16.5 -28.05 -18.8 M-17.0 -28.2 L-14.35 -28.65 -14.05 -28.7 -12.85 -28.3 Q-10.05 -27.45 -7.85 -25.7 L-7.35 -25.35 -4.8 -23.95 -6.1 -23.95 -8.85 -23.8 -10.45 -24.85 -11.3 -25.4 -14.0 -26.9 -14.8 -27.35 -15.85 -27.75 Q-16.45 -27.9 -17.0 -28.2 M-18.95 1.75 L-18.4 1.85 -18.2 1.9 -18.1 2.1 -17.55 3.7 -18.75 2.05 -18.95 1.75" fill="#ebebeb" fill-rule="evenodd" stroke="none"/>
      <path d="M12.35 24.55 Q7.15 24.55 3.45 21.3 -0.2 18.1 -0.2 13.55 -0.2 9.0 3.45 5.75 7.15 2.55 12.35 2.55 17.55 2.55 21.2 5.75 24.9 9.0 24.9 13.55 24.9 18.1 21.2 21.3 17.55 24.55 12.35 24.55" fill="url(#gradient0)" fill-rule="evenodd" stroke="none"/>
      <path d="M20.2 -0.4 Q22.35 0.65 24.25 2.35 L26.25 4.45 Q21.15 -3.7 16.0 -9.95 L13.3 -13.05 11.2 -15.3 10.1 -16.4 9.45 -17.0 M15.35 -19.8 Q12.85 -22.7 9.5 -24.75 M4.95 -21.0 L5.8 -20.3 9.05 -17.45 9.45 -17.0 M16.0 -9.95 L19.3 -13.5 17.3 -17.2 15.35 -19.8 M-5.0 11.55 Q-4.4 6.25 -0.05 2.35 5.0 -2.2 12.1 -2.2 L15.7 -1.9 M15.95 -1.85 Q18.0 -1.45 19.9 -0.55 M12.35 24.55 Q7.15 24.55 3.45 21.3 -0.2 18.1 -0.2 13.55 -0.2 9.0 3.45 5.75 7.15 2.55 12.35 2.55 17.55 2.55 21.2 5.75 24.9 9.0 24.9 13.55 24.9 18.1 21.2 21.3 17.55 24.55 12.35 24.55 M0.35 24.6 L-0.1 24.3 Q-7.75 19.05 -13.45 13.65 L-17.2 16.5 -19.6 14.95 -22.35 12.65 Q-26.0 9.2 -28.0 4.45 L-28.65 2.75 -29.25 0.9 -25.6 -2.0 Q-27.3 -5.3 -28.3 -8.6 -29.05 -10.95 -29.05 -13.35 -29.05 -16.25 -28.05 -18.8 M-27.8 -19.4 L-26.5 -21.65 M-26.35 -21.85 L-24.25 -24.25 Q-21.15 -27.1 -17.25 -28.15 M-17.0 -28.2 L-14.35 -28.65 M-14.05 -28.7 L-12.55 -28.75 Q-9.7 -28.75 -7.15 -27.95 L-5.8 -27.45 -5.15 -27.15 Q-1.75 -25.7 1.6 -23.45 L5.0 -27.0 7.3 -26.0 9.5 -24.75 M3.2 -22.3 L2.3 -22.95 1.6 -23.45 M4.95 -21.0 L3.2 -22.3 M-24.4 0.2 L-23.8 1.2 -21.25 5.0 -20.85 5.55 -20.5 5.9 M-25.6 -2.0 L-24.7 -0.3 -24.4 0.2 -23.9 1.3 Q-22.75 3.55 -20.85 5.55 L-20.55 5.9 M-4.9 15.85 L-5.1 13.3 -5.0 11.55 M-17.8 9.2 L-19.7 7.0 -20.55 5.9 M-15.95 11.15 L-17.8 9.2 M-15.95 11.15 L-13.45 13.65 M0.35 24.6 L-0.05 24.25 Q-3.9 20.8 -4.8 16.3" fill="none" stroke="#000000" stroke-linecap="round" stroke-linejoin="round" stroke-width="1.0"/>
      <path d="M26.25 4.45 Q29.3 8.3 29.3 13.3 29.3 19.7 24.25 24.25 19.2 28.8 12.1 28.8 5.25 28.8 0.35 24.6" fill="none" stroke="#000000" stroke-linecap="round" stroke-linejoin="round" stroke-width="1.0"/>
    </g>
    <radialGradient cx="0" cy="0" gradientTransform="matrix(0.0302, 0.0, 0.0, 0.0302, 6.25, 6.85)" gradientUnits="userSpaceOnUse" id="gradient0" r="819.2" spreadMethod="pad">
      <stop offset="0.0" stop-color="#000000"/>
      <stop offset="1.0" stop-color="#ffffff"/>
    </radialGradient>
  </defs>
</svg>
