<?xml version="1.0" encoding="UTF-8" standalone="no"?>
<svg xmlns:xlink="http://www.w3.org/1999/xlink" height="107.3px" width="183.3px" xmlns="http://www.w3.org/2000/svg">
  <g transform="matrix(1.0, 0.0, 0.0, 1.0, -9.85, 0.15)">
    <use height="17.0" transform="matrix(1.0, 0.0, 0.0, 1.0, 11.7, 12.7)" width="8.0" xlink:href="#sprite0"/>
    <use height="107.3" transform="matrix(1.0, 0.0, 0.0, 1.0, 24.85, -0.15)" width="168.3" xlink:href="#sprite1"/>
    <use height="0.0" transform="matrix(1.0, 0.0, 0.0, 1.0, 9.85, 27.85)" width="0.0" xlink:href="#sprite2"/>
  </g>
  <defs>
    <g id="sprite1" transform="matrix(1.0, 0.0, 0.0, 1.0, 0.5, 0.5)">
      <use height="28.0" id="tabCapture" transform="matrix(1.0, 0.0, 0.0, 1.0, -0.5, -0.5)" width="28.0" xlink:href="#button0"/>
    </g>
    <g id="button0" transform="matrix(1.0, 0.0, 0.0, 1.0, 0.5, 0.5)">
      <use height="28.0" transform="matrix(1.0, 0.0, 0.0, 1.0, -0.5, -0.5)" width="28.0" xlink:href="#shape0"/>
    </g>
    <g id="shape0" transform="matrix(1.0, 0.0, 0.0, 1.0, 0.5, 0.5)">
      <path d="M0.0 0.0 L27.0 0.0 27.0 27.0 0.0 27.0 0.0 0.0" fill="#000000" fill-rule="evenodd" stroke="none"/>
      <path d="M0.0 0.0 L27.0 0.0 27.0 27.0 0.0 27.0 0.0 0.0 Z" fill="none" stroke="#00ff00" stroke-linecap="round" stroke-linejoin="round" stroke-width="1.0"/>
    </g>
  </defs>
</svg>
