<?xml version="1.0" encoding="UTF-8" standalone="no"?>
<svg xmlns:xlink="http://www.w3.org/1999/xlink" height="103.9px" width="91.6px" xmlns="http://www.w3.org/2000/svg">
  <g transform="matrix(1.0, 0.0, 0.0, 1.0, 49.65, 57.35)">
    <use height="61.55" transform="matrix(0.8986, -0.0473, 0.0473, 0.8986, -23.128, -50.258)" width="53.85" xlink:href="#shape0"/>
    <use height="72.7" transform="matrix(0.8986, -0.0473, 0.0473, 0.8986, -26.4361, -22.0112)" width="61.35" xlink:href="#shape1"/>
    <use height="63.35" transform="matrix(0.81, 0.0, 0.0, 0.81, -15.5016, -24.3074)" width="48.45" xlink:href="#shape2"/>
    <use height="14.65" transform="matrix(0.8372, 0.0, 0.0, 0.6696, -7.1791, -10.5718)" width="6.45" xlink:href="#shape3"/>
    <use height="14.65" transform="matrix(0.8372, 0.0, 0.0, 0.6696, 6.4209, -11.0218)" width="6.45" xlink:href="#shape3"/>
  </g>
  <defs>
    <g id="shape0" transform="matrix(1.0, 0.0, 0.0, 1.0, 26.9, 30.75)">
      <path d="M3.2 -30.55 L4.05 -30.45 Q9.9 -29.75 14.55 -27.05 L15.2 -26.65 Q19.15 -24.3 20.2 -21.5 L19.35 -17.2 18.1 -10.1 Q19.65 -9.2 21.7 -6.65 24.35 -3.35 25.75 0.6 27.45 5.6 26.7 10.8 26.35 13.2 25.45 15.6 24.05 19.15 21.55 22.6 1.1 39.0 -20.9 22.6 -25.65 18.35 -26.65 12.9 -27.5 8.35 -25.7 3.25 -24.3 -0.7 -21.65 -4.45 -19.6 -7.35 -18.3 -8.25 L-19.35 -14.6 -20.25 -20.95 Q-15.4 -26.9 -8.5 -29.3 -4.75 -30.6 -0.65 -30.7 L3.2 -30.55 M-8.4 -11.0 Q-12.65 -12.3 -17.1 -8.6 -21.25 -5.2 -23.75 0.75 -25.3 4.45 -25.7 8.0 L-24.75 5.95 Q-21.7 -0.75 -19.7 -3.35 -17.55 -6.25 -15.35 -7.85 -12.9 -9.7 -10.9 -9.5 -9.35 -9.4 -7.75 -8.6 L-4.9 -6.9 -2.15 -5.0 Q-0.55 -4.05 0.85 -3.65 4.2 -2.7 8.0 -4.45 L11.0 -6.15 11.25 -6.3 13.75 -7.65 Q15.2 -8.35 16.35 -8.3 17.7 -8.3 18.9 -7.35 21.65 -5.25 24.35 2.35 25.65 6.05 25.6 11.3 L25.8 10.15 Q26.45 5.2 24.8 0.35 23.45 -3.5 20.95 -6.6 18.8 -9.25 17.35 -9.8 14.95 -10.7 12.15 -9.0 L11.7 -8.7 9.9 -7.4 Q8.45 -6.4 7.6 -5.95 4.7 -4.5 2.5 -4.65 L2.15 -4.7 Q0.6 -4.95 -1.0 -6.05 L-1.15 -6.15 -1.75 -6.6 -2.75 -7.4 -4.4 -8.75 Q-6.45 -10.4 -8.4 -11.0 M0.25 -29.95 L-0.65 -29.9 Q0.9 -19.75 -0.9 -11.05 L2.45 -11.1 3.1 -11.05 Q9.1 -10.9 11.65 -9.7 L11.95 -9.85 Q12.35 -18.25 15.05 -25.85 13.35 -27.15 11.3 -28.0 7.55 -29.65 3.15 -29.9 L0.25 -29.95 M-1.65 -7.3 L-0.95 -7.0 Q0.55 -6.35 2.25 -6.15 L2.8 -6.1 Q7.35 -5.85 10.85 -9.1 6.9 -10.4 2.4 -10.45 L-0.95 -10.3 -1.2 -10.3 -5.05 -9.8 Q-3.45 -8.2 -1.65 -7.3 M12.15 21.0 Q16.25 17.9 16.25 13.75 L16.05 12.05 Q15.3 8.6 11.5 6.05 6.75 2.85 0.1 2.85 -6.6 2.85 -11.3 6.05 -14.5 8.15 -15.5 10.9 -16.05 12.2 -16.05 13.75 -16.05 18.25 -11.3 21.45 L-9.55 22.5 Q-5.4 24.6 0.1 24.65 6.75 24.6 11.5 21.45 L12.15 21.0" fill="#000000" fill-rule="evenodd" stroke="none"/>
      <path d="M0.25 -29.95 L3.15 -29.9 Q7.55 -29.65 11.3 -28.0 13.35 -27.15 15.05 -25.85 12.35 -18.25 11.95 -9.85 L11.65 -9.7 Q9.1 -10.9 3.1 -11.05 L2.45 -11.1 -0.9 -11.05 Q0.9 -19.75 -0.65 -29.9 L0.25 -29.95 M-8.4 -11.0 Q-6.45 -10.4 -4.4 -8.75 L-2.75 -7.4 -1.75 -6.6 -1.15 -6.15 -1.0 -6.05 Q0.6 -4.95 2.15 -4.7 L2.5 -4.65 Q4.7 -4.5 7.6 -5.95 8.45 -6.4 9.9 -7.4 L11.7 -8.7 12.15 -9.0 Q14.95 -10.7 17.35 -9.8 18.8 -9.25 20.95 -6.6 23.45 -3.5 24.8 0.35 26.45 5.2 25.8 10.15 L25.6 11.3 Q25.65 6.05 24.35 2.35 21.65 -5.25 18.9 -7.35 17.7 -8.3 16.35 -8.3 15.2 -8.35 13.75 -7.65 L11.25 -6.3 11.0 -6.15 8.0 -4.45 Q4.2 -2.7 0.85 -3.65 -0.55 -4.05 -2.15 -5.0 L-4.9 -6.9 -7.75 -8.6 Q-9.35 -9.4 -10.9 -9.5 -12.9 -9.7 -15.35 -7.85 -17.55 -6.25 -19.7 -3.35 -21.7 -0.75 -24.75 5.95 L-25.7 8.0 Q-25.3 4.45 -23.75 0.75 -21.25 -5.2 -17.1 -8.6 -12.65 -12.3 -8.4 -11.0" fill="#00ccff" fill-rule="evenodd" stroke="none"/>
      <path d="M-1.2 -10.3 L-0.95 -10.3 2.4 -10.45 Q6.9 -10.4 10.85 -9.1 7.35 -5.85 2.8 -6.1 L2.25 -6.15 Q0.55 -6.35 -0.95 -7.0 L-1.65 -7.3 -1.2 -10.3" fill="#cc0000" fill-rule="evenodd" stroke="none"/>
      <path d="M-1.65 -7.3 Q-3.45 -8.2 -5.05 -9.8 L-1.2 -10.3 -1.65 -7.3" fill="#990000" fill-rule="evenodd" stroke="none"/>
      <path d="M12.15 21.0 L11.5 21.45 Q6.75 24.6 0.1 24.65 -5.4 24.6 -9.55 22.5 L-9.0 18.05 Q-4.9 20.05 0.45 20.1 6.75 20.05 11.35 17.25 L12.15 21.0" fill="#660000" fill-rule="evenodd" stroke="none"/>
      <path d="M-15.5 10.9 Q-14.5 8.15 -11.3 6.05 -6.6 2.85 0.1 2.85 6.75 2.85 11.5 6.05 15.3 8.6 16.05 12.05 15.0 14.75 11.85 16.9 L11.35 17.25 Q6.75 20.05 0.45 20.1 -4.9 20.05 -9.0 18.05 L-10.95 16.9 Q-14.8 14.3 -15.5 10.9" fill="#333333" fill-rule="evenodd" stroke="none"/>
      <path d="M16.05 12.05 L16.25 13.75 Q16.25 17.9 12.15 21.0 L11.35 17.25 11.85 16.9 Q15.0 14.75 16.05 12.05 M-9.55 22.5 L-11.3 21.45 Q-16.05 18.25 -16.05 13.75 -16.05 12.2 -15.5 10.9 -14.8 14.3 -10.95 16.9 L-9.0 18.05 -9.55 22.5" fill="#330000" fill-rule="evenodd" stroke="none"/>
    </g>
    <g id="shape1" transform="matrix(1.0, 0.0, 0.0, 1.0, 32.9, 57.5)">
      <path d="M25.95 -46.6 L24.95 -43.15 Q23.45 -39.35 20.65 -35.6 21.6 -33.8 27.15 -36.95 27.15 -35.2 25.5 -32.85 27.25 -31.05 28.05 -28.95 28.9 -26.5 28.05 -24.4 L24.45 -27.6 Q30.4 -17.6 23.65 -13.8 23.9 -16.0 22.05 -18.15 21.75 -16.1 20.5 -13.9 L17.85 -10.15 Q18.0 -12.65 16.75 -14.8 15.55 -16.9 13.65 -17.75 11.65 -18.7 9.9 -17.75 7.85 -16.75 6.75 -13.55 9.15 -12.0 10.9 -8.1 12.55 -4.5 13.1 0.05 13.7 4.65 12.9 8.45 12.05 12.5 9.8 14.4 8.05 14.35 6.7 13.05 5.7 12.1 4.6 10.2 L2.8 7.25 Q1.8 5.85 0.8 5.7 L-0.65 8.0 -2.2 10.95 Q-4.3 14.7 -5.85 15.05 -9.35 15.8 -11.5 12.5 -13.5 9.5 -13.8 4.15 -14.15 -1.15 -12.65 -6.35 -11.15 -11.95 -8.15 -15.15 -8.05 -16.9 -9.65 -17.8 -11.2 -18.65 -13.4 -18.25 -15.8 -17.85 -17.6 -16.15 -19.75 -14.2 -20.45 -11.0 -22.25 -10.9 -23.95 -14.25 L-25.1 -17.0 -25.65 -19.2 Q-27.3 -18.1 -27.8 -14.1 -29.75 -17.25 -30.3 -20.85 -30.9 -24.9 -29.3 -27.8 L-31.15 -26.55 -32.9 -25.1 Q-33.0 -27.3 -32.1 -29.4 -31.3 -31.45 -29.8 -33.1 -30.45 -36.35 -29.7 -38.95 -23.75 -32.0 -21.25 -36.0 -26.15 -40.3 -27.15 -45.85 L-27.4 -49.4 -21.0 -49.4 -21.0 -57.5 20.8 -57.5 20.8 -46.6 25.95 -46.6 M25.05 -31.9 L24.05 -33.15 Q25.75 -33.85 26.3 -36.0 25.0 -34.75 22.8 -34.3 20.35 -33.85 19.3 -35.2 19.1 -55.65 1.15 -56.95 -7.5 -57.6 -12.4 -52.85 -17.25 -48.3 -19.3 -37.7 -19.7 -35.6 -20.95 -34.55 -22.1 -33.6 -23.65 -33.65 -25.2 -33.75 -26.65 -34.65 -28.2 -35.6 -29.15 -37.15 -29.5 -34.45 -27.9 -33.15 -29.85 -32.75 -30.95 -30.6 L-31.7 -28.6 -32.25 -26.6 -31.25 -27.5 -29.8 -28.65 Q-27.85 -29.95 -27.0 -29.25 -29.45 -26.95 -29.75 -22.8 -30.05 -18.7 -28.1 -15.95 -28.0 -17.3 -26.95 -19.05 -25.8 -20.95 -24.6 -21.3 -25.2 -15.25 -21.0 -11.95 -20.8 -13.2 -19.85 -14.65 -18.95 -16.15 -17.6 -17.35 L-14.85 -19.3 Q-13.3 -20.0 -12.0 -19.7 L-10.4 -19.05 -7.15 -17.8 Q-2.0 -16.15 2.9 -16.35 4.15 -16.4 5.85 -17.05 L8.7 -18.25 Q10.35 -18.95 11.55 -19.05 13.1 -19.25 14.5 -18.55 16.45 -17.65 17.45 -15.65 18.3 -13.9 18.25 -11.55 20.6 -14.8 21.45 -20.5 24.1 -17.35 24.45 -15.45 25.9 -17.4 26.05 -19.25 26.2 -20.75 25.5 -22.55 L24.1 -25.6 Q23.25 -27.5 23.15 -28.9 L25.8 -27.75 Q27.2 -26.95 27.7 -25.75 28.35 -28.35 26.55 -30.45 L25.05 -31.9 M5.3 -7.5 Q4.75 -4.8 4.7 -2.7 2.4 0.2 -1.9 -1.15 -3.15 -1.6 -4.75 -2.45 L-6.25 -3.2 -6.8 -8.55 Q-7.2 -11.5 -7.85 -13.8 -9.75 -11.8 -11.1 -7.45 -12.45 -3.2 -12.65 1.3 -12.9 6.15 -11.65 9.35 -10.25 13.0 -7.15 13.6 -6.2 13.8 -4.85 12.4 L-2.3 9.1 0.55 5.4 Q2.25 3.5 3.8 3.0 L2.75 4.05 Q1.85 4.65 1.6 5.0 2.75 5.55 3.75 6.7 L5.3 8.95 6.75 11.3 Q7.65 12.5 8.7 13.2 10.6 13.05 11.5 9.7 12.35 6.55 12.0 2.0 11.65 -2.65 10.25 -6.45 8.7 -10.65 6.35 -12.25 L5.3 -7.5 M3.75 -3.2 Q4.1 -9.9 6.6 -16.2 0.6 -14.25 -7.45 -16.75 -5.5 -11.45 -5.4 -3.9 -0.8 -0.2 3.75 -3.2" fill="#000000" fill-rule="evenodd" stroke="none"/>
      <path d="M25.05 -31.9 L26.55 -30.45 Q28.35 -28.35 27.7 -25.75 27.2 -26.95 25.8 -27.75 L23.15 -28.9 Q23.25 -27.5 24.1 -25.6 L25.5 -22.55 Q26.2 -20.75 26.05 -19.25 25.9 -17.4 24.45 -15.45 24.1 -17.35 21.45 -20.5 20.6 -14.8 18.25 -11.55 18.3 -13.9 17.45 -15.65 16.45 -17.65 14.5 -18.55 13.1 -19.25 11.55 -19.05 10.35 -18.95 8.7 -18.25 L5.85 -17.05 Q4.15 -16.4 2.9 -16.35 -2.0 -16.15 -7.15 -17.8 L-10.4 -19.05 -12.0 -19.7 Q-13.3 -20.0 -14.85 -19.3 L-17.6 -17.35 Q-18.95 -16.15 -19.85 -14.65 -20.8 -13.2 -21.0 -11.95 -25.2 -15.25 -24.6 -21.3 -25.8 -20.95 -26.95 -19.05 -28.0 -17.3 -28.1 -15.95 -30.05 -18.7 -29.75 -22.8 -29.45 -26.95 -27.0 -29.25 -27.85 -29.95 -29.8 -28.65 L-31.25 -27.5 -32.25 -26.6 -31.7 -28.6 -30.95 -30.6 Q-29.85 -32.75 -27.9 -33.15 -29.5 -34.45 -29.15 -37.15 -28.2 -35.6 -26.65 -34.65 -25.2 -33.75 -23.65 -33.65 -22.1 -33.6 -20.95 -34.55 -19.7 -35.6 -19.3 -37.7 -17.25 -48.3 -12.4 -52.85 -7.5 -57.6 1.15 -56.95 19.1 -55.65 19.3 -35.2 20.35 -33.85 22.8 -34.3 25.0 -34.75 26.3 -36.0 25.75 -33.85 24.05 -33.15 L25.05 -31.9 M3.75 -3.2 Q-0.8 -0.2 -5.4 -3.9 -5.5 -11.45 -7.45 -16.75 0.6 -14.25 6.6 -16.2 4.1 -9.9 3.75 -3.2" fill="#ffffff" fill-rule="evenodd" stroke="none"/>
      <path d="M5.3 -7.5 L6.35 -12.25 Q8.7 -10.65 10.25 -6.45 11.65 -2.65 12.0 2.0 12.35 6.55 11.5 9.7 10.6 13.05 8.7 13.2 7.65 12.5 6.75 11.3 L5.3 8.95 3.75 6.7 Q2.75 5.55 1.6 5.0 1.85 4.65 2.75 4.05 L3.8 3.0 Q2.25 3.5 0.55 5.4 L-2.3 9.1 -4.85 12.4 Q-6.2 13.8 -7.15 13.6 -10.25 13.0 -11.65 9.35 -12.9 6.15 -12.65 1.3 -12.45 -3.2 -11.1 -7.45 -9.75 -11.8 -7.85 -13.8 -7.2 -11.5 -6.8 -8.55 L-6.25 -3.2 -4.75 -2.45 Q-3.15 -1.6 -1.9 -1.15 2.4 0.2 4.7 -2.7 4.75 -4.8 5.3 -7.5" fill="#990000" fill-rule="evenodd" stroke="none"/>
    </g>
    <g id="shape2" transform="matrix(1.0, 0.0, 0.0, 1.0, 24.2, 31.8)">
      <path d="M4.2 -25.35 Q4.9 -28.6 6.45 -30.35 8.1 -32.2 10.15 -31.7 12.25 -31.25 13.75 -28.6 15.2 -26.05 15.65 -22.2 L15.75 -21.6 15.8 -21.1 15.2 -23.8 14.25 -26.9 Q12.75 -30.55 10.3 -30.8 6.8 -31.2 4.4 -25.35 L4.0 -24.25 4.2 -25.35 M19.25 -5.55 L19.9 -5.0 21.85 -2.9 Q24.4 0.05 24.25 1.45 23.95 3.65 22.25 5.7 L20.55 7.35 18.8 9.0 Q21.65 12.75 20.45 14.35 19.35 15.7 14.75 15.55 L13.95 18.15 12.65 22.6 11.1 27.95 Q10.5 29.75 9.9 30.2 7.75 31.0 3.9 31.35 0.0 31.7 -2.85 31.45 -5.7 31.2 -7.25 28.45 L-13.55 16.05 -16.7 16.25 Q-17.9 15.85 -18.6 14.8 -19.35 13.75 -19.4 12.4 -19.5 11.0 -18.7 9.75 -19.25 8.9 -20.3 7.8 L-21.95 6.0 Q-23.65 3.85 -24.05 2.15 -24.45 0.6 -23.75 -0.8 -23.2 -2.0 -21.65 -3.5 L-19.3 -5.75 -18.55 -6.45 -21.5 -2.3 Q-18.8 -1.9 -14.3 2.05 -15.2 -0.5 -15.8 -4.1 -16.55 -8.3 -16.45 -11.95 -16.4 -16.4 -15.15 -19.25 -13.75 -22.6 -10.8 -23.55 -11.3 -23.95 -12.55 -24.4 L-10.1 -23.7 Q-0.3 -18.5 -2.0 -1.4 L-2.0 -1.15 Q-0.8 -1.95 0.25 -1.9 1.25 -1.85 2.4 -1.0 2.6 -1.3 2.45 -4.15 2.3 -7.9 2.55 -10.55 3.55 -20.3 10.75 -25.65 L9.75 -24.25 Q12.9 -22.15 14.85 -18.4 16.6 -15.0 17.05 -10.75 17.5 -6.75 16.7 -2.95 15.85 0.8 14.0 3.25 16.3 2.35 17.95 0.75 20.55 -1.45 21.8 -1.45 L20.15 -3.8 19.55 -4.6 19.4 -4.85 18.55 -6.05 19.25 -5.55 M-17.35 -20.15 L-17.35 -20.55 Q-17.6 -23.35 -16.75 -26.05 -15.8 -29.05 -14.05 -30.45 -12.2 -31.95 -10.25 -30.85 -8.2 -29.7 -6.6 -25.8 L-6.35 -25.25 -6.6 -25.25 Q-8.15 -29.2 -10.1 -30.15 -11.85 -31.0 -13.55 -29.5 -15.1 -28.15 -16.15 -25.35 -17.2 -22.6 -17.2 -19.7 L-17.3 -19.7 -17.35 -20.15 M9.25 -23.8 Q5.0 -20.3 3.65 -13.65 2.8 -9.65 2.8 -1.8 4.35 -3.85 6.2 -4.05 8.0 -4.35 9.5 -3.3 11.0 -2.3 11.7 -0.45 12.35 1.4 11.65 3.65 L13.3 3.7 Q15.15 1.9 16.0 -2.1 16.85 -6.1 16.5 -10.85 16.15 -15.6 14.1 -19.05 12.0 -22.55 9.25 -23.8 M5.55 -3.5 Q3.55 -2.75 2.85 -0.75 2.15 1.25 2.5 3.05 2.85 4.8 4.1 6.1 L7.2 6.8 7.45 6.85 7.8 6.95 8.1 7.0 9.0 6.85 Q9.75 6.5 10.35 5.35 11.85 2.5 11.35 0.05 10.85 -2.1 9.05 -3.1 7.3 -4.15 5.55 -3.5 M2.15 -0.55 Q1.4 -1.35 0.25 -1.4 -0.95 -1.5 -1.7 -0.55 -1.1 2.85 -2.55 6.15 -0.05 5.65 3.35 6.05 1.25 3.15 2.15 -0.55 M23.15 -0.05 L20.15 -0.1 17.55 1.9 Q15.8 3.35 14.7 3.9 13.0 4.75 11.5 4.2 L10.65 5.85 9.25 7.25 13.2 8.8 Q2.7 5.9 -2.35 6.75 -7.45 7.55 -9.55 8.3 L-12.65 9.4 Q-10.55 7.95 -8.75 7.4 L-11.45 5.2 -17.25 0.6 Q-20.85 -2.1 -22.85 -0.9 -24.9 0.25 -22.2 4.55 -19.5 8.8 -18.35 9.05 -17.05 7.6 -16.9 7.1 -18.2 3.8 -20.3 2.6 -20.8 3.3 -20.65 4.05 -21.05 3.6 -21.05 3.05 -21.05 2.5 -20.55 2.1 -20.1 1.65 -19.35 1.55 -18.65 1.4 -19.05 1.7 L-20.0 2.2 Q-17.55 3.5 -16.4 6.55 -15.8 6.25 -15.5 5.15 -15.7 6.95 -16.6 8.15 L-18.1 10.45 Q-19.0 12.45 -18.15 14.0 -17.2 15.65 -14.95 15.25 L-9.95 13.95 -5.85 12.75 -1.55 12.0 4.0 12.15 7.35 12.85 12.35 14.05 Q18.9 15.35 19.7 13.75 20.2 12.6 19.75 11.5 L18.3 9.65 16.55 7.8 Q15.8 6.8 16.05 5.4 16.1 6.35 16.8 7.1 17.35 5.7 18.75 4.4 L21.3 2.25 20.1 1.7 21.5 1.95 22.1 2.45 22.2 3.3 Q22.15 3.85 21.75 4.2 21.85 3.25 21.5 2.7 15.75 6.9 18.25 8.4 20.45 7.35 22.65 4.1 24.85 0.85 23.15 -0.05 M0.75 17.65 Q2.3 14.8 2.8 13.15 L-0.6 12.95 0.75 17.65 M8.05 13.9 Q5.3 13.2 3.55 13.25 3.1 16.0 0.25 19.15 L-0.2 17.55 -0.6 15.9 Q-1.15 13.9 -2.2 13.0 L-11.1 15.15 Q-11.1 17.0 -8.3 22.1 -5.45 27.2 -3.75 27.8 1.5 26.55 8.6 27.2 L10.7 21.1 12.55 14.95 8.05 13.9 M13.9 15.35 L13.5 15.15 11.3 21.95 Q9.6 27.25 9.1 27.75 L7.2 27.7 Q5.65 27.55 3.65 27.65 L-0.7 28.05 -3.5 28.55 -4.25 28.8 -6.35 26.2 -9.7 20.85 -12.3 15.4 -12.9 15.75 -8.95 23.85 Q-5.7 30.1 -4.45 30.45 L0.15 30.85 4.8 30.45 7.25 30.15 9.65 29.5 11.9 22.45 Q13.35 16.9 13.9 15.35 M-3.4 -14.4 Q-4.4 -17.9 -6.15 -20.1 -7.95 -22.3 -10.5 -23.15 -13.8 -22.25 -15.0 -18.0 -16.2 -13.8 -16.0 -8.75 -15.9 -4.2 -14.7 -0.6 L-13.8 2.3 -11.6 4.2 Q-12.3 1.2 -11.65 -0.5 -11.05 -2.25 -9.5 -3.25 -7.9 -4.3 -6.1 -4.0 -4.05 -3.65 -2.45 -1.55 -2.0 -4.1 -2.2 -7.5 -2.45 -10.95 -3.4 -14.4 M-3.95 -2.55 Q-5.3 -3.75 -7.0 -3.65 -8.8 -3.55 -10.2 -2.15 -11.3 -1.0 -11.55 0.75 -11.75 2.25 -11.25 3.85 -10.75 5.35 -9.85 6.3 -8.9 7.2 -7.95 7.1 L-3.25 6.15 Q-2.0 3.25 -2.25 0.85 -2.55 -1.3 -3.95 -2.55" fill="#000000" fill-rule="evenodd" stroke="none"/>
      <path d="M9.25 -23.8 Q12.0 -22.55 14.1 -19.05 16.15 -15.6 16.5 -10.85 16.85 -6.1 16.0 -2.1 15.15 1.9 13.3 3.7 L11.65 3.65 Q12.35 1.4 11.7 -0.45 11.0 -2.3 9.5 -3.3 8.0 -4.35 6.2 -4.05 4.35 -3.85 2.8 -1.8 2.8 -9.65 3.65 -13.65 5.0 -20.3 9.25 -23.8 M-3.4 -14.4 Q-2.45 -10.95 -2.2 -7.5 -2.0 -4.1 -2.45 -1.55 -4.05 -3.65 -6.1 -4.0 -7.9 -4.3 -9.5 -3.25 -11.05 -2.25 -11.65 -0.5 -12.3 1.2 -11.6 4.2 L-13.8 2.3 -14.7 -0.6 Q-15.9 -4.2 -16.0 -8.75 -16.2 -13.8 -15.0 -18.0 -13.8 -22.25 -10.5 -23.15 -7.95 -22.3 -6.15 -20.1 -4.4 -17.9 -3.4 -14.4" fill="#ccffff" fill-rule="evenodd" stroke="none"/>
      <path d="M4.2 -25.35 L4.0 -24.25 4.4 -25.35 Q6.8 -31.2 10.3 -30.8 12.75 -30.55 14.25 -26.9 L15.2 -23.8 15.8 -21.1 15.75 -21.6 Q17.0 -12.2 19.25 -5.55 L18.55 -6.05 19.4 -4.85 19.55 -4.6 20.15 -3.8 21.8 -1.45 Q20.55 -1.45 17.95 0.75 16.3 2.35 14.0 3.25 15.85 0.8 16.7 -2.95 17.5 -6.75 17.05 -10.75 16.6 -15.0 14.85 -18.4 12.9 -22.15 9.75 -24.25 L10.75 -25.65 Q3.55 -20.3 2.55 -10.55 2.3 -7.9 2.45 -4.15 2.6 -1.3 2.4 -1.0 1.25 -1.85 0.25 -1.9 -0.8 -1.95 -2.0 -1.15 L-2.0 -1.4 Q-0.3 -18.5 -10.1 -23.7 L-12.55 -24.4 Q-11.3 -23.95 -10.8 -23.55 -13.75 -22.6 -15.15 -19.25 -16.4 -16.4 -16.45 -11.95 -16.55 -8.3 -15.8 -4.1 -15.2 -0.5 -14.3 2.05 -18.8 -1.9 -21.5 -2.3 L-18.55 -6.45 -19.3 -5.75 Q-17.15 -10.9 -17.35 -20.15 L-17.3 -19.7 -17.2 -19.7 Q-17.2 -22.6 -16.15 -25.35 -15.1 -28.15 -13.55 -29.5 -11.85 -31.0 -10.1 -30.15 -8.15 -29.2 -6.6 -25.25 L-6.35 -25.25 -6.6 -25.8 Q0.2 -16.45 4.2 -25.35 M5.55 -3.5 Q7.3 -4.15 9.05 -3.1 10.85 -2.1 11.35 0.05 11.85 2.5 10.35 5.35 9.75 6.5 9.0 6.85 L8.1 7.0 7.8 6.95 7.45 6.85 7.2 6.8 4.1 6.1 Q2.85 4.8 2.5 3.05 2.15 1.25 2.85 -0.75 3.55 -2.75 5.55 -3.5 M-3.95 -2.55 Q-2.55 -1.3 -2.25 0.85 -2.0 3.25 -3.25 6.15 L-7.95 7.1 Q-8.9 7.2 -9.85 6.3 -10.75 5.35 -11.25 3.85 -11.75 2.25 -11.55 0.75 -11.3 -1.0 -10.2 -2.15 -8.8 -3.55 -7.0 -3.65 -5.3 -3.75 -3.95 -2.55" fill="#ffffff" fill-rule="evenodd" stroke="none"/>
      <path d="M2.15 -0.55 Q1.25 3.15 3.35 6.05 -0.05 5.65 -2.55 6.15 -1.1 2.85 -1.7 -0.55 -0.95 -1.5 0.25 -1.4 1.4 -1.35 2.15 -0.55 M23.15 -0.05 Q24.85 0.85 22.65 4.1 20.45 7.35 18.25 8.4 15.75 6.9 21.5 2.7 21.85 3.25 21.75 4.2 22.15 3.85 22.2 3.3 L22.1 2.45 21.5 1.95 20.1 1.7 21.3 2.25 18.75 4.4 Q17.35 5.7 16.8 7.1 16.1 6.35 16.05 5.4 15.8 6.8 16.55 7.8 L18.3 9.65 19.75 11.5 Q20.2 12.6 19.7 13.75 18.9 15.35 12.35 14.05 L7.35 12.85 4.0 12.15 -1.55 12.0 -5.85 12.75 -9.95 13.95 -14.95 15.25 Q-17.2 15.65 -18.15 14.0 -19.0 12.45 -18.1 10.45 L-16.6 8.15 Q-15.7 6.95 -15.5 5.15 -15.8 6.25 -16.4 6.55 -17.55 3.5 -20.0 2.2 L-19.05 1.7 Q-18.65 1.4 -19.35 1.55 -20.1 1.65 -20.55 2.1 -21.05 2.5 -21.05 3.05 -21.05 3.6 -20.65 4.05 -20.8 3.3 -20.3 2.6 -18.2 3.8 -16.9 7.1 -17.05 7.6 -18.35 9.05 -19.5 8.8 -22.2 4.55 -24.9 0.25 -22.85 -0.9 -20.85 -2.1 -17.25 0.6 L-11.45 5.2 -8.75 7.4 Q-10.55 7.95 -12.65 9.4 L-9.55 8.3 Q-7.45 7.55 -2.35 6.75 2.7 5.9 13.2 8.8 L9.25 7.25 10.65 5.85 11.5 4.2 Q13.0 4.75 14.7 3.9 15.8 3.35 17.55 1.9 L20.15 -0.1 23.15 -0.05 M13.9 15.35 Q13.35 16.9 11.9 22.45 L9.65 29.5 7.25 30.15 4.8 30.45 0.15 30.85 -4.45 30.45 Q-5.7 30.1 -8.95 23.85 L-12.9 15.75 -12.3 15.4 -9.7 20.85 -6.35 26.2 -4.25 28.8 -3.5 28.55 -0.7 28.05 3.65 27.65 Q5.65 27.55 7.2 27.7 L9.1 27.75 Q9.6 27.25 11.3 21.95 L13.5 15.15 13.9 15.35" fill="#ffcc00" fill-rule="evenodd" stroke="none"/>
      <path d="M8.05 13.9 L12.55 14.95 10.7 21.1 8.6 27.2 Q1.5 26.55 -3.75 27.8 -5.45 27.2 -8.3 22.1 -11.1 17.0 -11.1 15.15 L-2.2 13.0 Q-1.15 13.9 -0.6 15.9 L-0.2 17.55 0.25 19.15 Q3.1 16.0 3.55 13.25 5.3 13.2 8.05 13.9" fill="#ff6666" fill-rule="evenodd" stroke="none"/>
      <path d="M0.75 17.65 L-0.6 12.95 2.8 13.15 Q2.3 14.8 0.75 17.65" fill="#ff3333" fill-rule="evenodd" stroke="none"/>
    </g>
    <g id="shape3" transform="matrix(1.0, 0.0, 0.0, 1.0, 3.2, 7.35)">
      <path d="M-2.25 -5.25 Q-1.3 -7.35 0.05 -7.35 1.35 -7.35 2.3 -5.25 3.25 -3.1 3.25 -0.05 3.25 3.0 2.3 5.15 1.35 7.3 0.05 7.3 -1.3 7.3 -2.25 5.15 -3.2 3.0 -3.2 -0.05 -3.2 -3.1 -2.25 -5.25" fill="#000000" fill-rule="evenodd" stroke="none"/>
    </g>
  </defs>
</svg>
