<?xml version="1.0" encoding="UTF-8" standalone="no"?>
<svg xmlns:xlink="http://www.w3.org/1999/xlink" height="103.9px" width="91.6px" xmlns="http://www.w3.org/2000/svg">
  <g transform="matrix(1.0, 0.0, 0.0, 1.0, 49.65, 57.35)">
    <use height="57.5" transform="matrix(-0.8976, 0.063, 0.063, 0.8976, 33.6581, -52.9463)" width="55.3" xlink:href="#shape0"/>
    <use height="74.6" transform="matrix(-0.8976, 0.063, 0.063, 0.8976, 33.3216, -27.2588)" width="58.95" xlink:href="#shape1"/>
    <use height="56.45" transform="matrix(-0.837, 0.1482, 0.1482, 0.837, 17.4897, -27.28)" width="47.6" xlink:href="#shape2"/>
    <use height="14.65" transform="matrix(-0.835, 0.0586, 0.0468, 0.6678, 4.1276, -14.196)" width="6.45" xlink:href="#shape3"/>
    <use height="14.65" transform="matrix(-0.668, 0.0468, 0.0375, 0.5343, -5.2879, -13.0267)" width="6.45" xlink:href="#shape3"/>
  </g>
  <defs>
    <g id="shape0" transform="matrix(1.0, 0.0, 0.0, 1.0, 27.65, 28.75)">
      <path d="M27.25 6.35 Q26.4 10.2 24.4 13.25 L18.05 18.8 Q-2.1 34.4 -22.4 25.55 -26.0 21.2 -25.2 14.85 -24.55 9.3 -20.8 3.1 -18.75 0.9 -22.5 -3.55 L-25.55 -6.65 -27.65 -8.55 Q-26.95 -14.05 -23.75 -18.5 -20.7 -22.8 -16.0 -25.45 -11.35 -28.1 -6.0 -28.65 -0.5 -29.2 4.65 -27.3 L7.7 -25.9 10.65 -24.3 Q9.9 -15.35 15.85 -4.4 20.7 -6.35 23.7 -5.05 26.35 -3.95 27.25 -0.6 28.05 2.4 27.25 6.35 M5.7 -26.25 L2.35 -27.15 -6.9 -27.55 Q-2.9 -20.95 -1.2 -12.7 L2.6 -13.5 6.95 -13.9 7.05 -13.9 Q5.55 -19.65 5.7 -26.25 M18.75 -2.9 L22.05 -4.1 23.95 -4.25 23.75 -4.4 Q22.45 -5.15 20.25 -4.8 L16.8 -3.75 Q13.95 -2.65 10.85 -3.3 L10.15 -3.45 7.1 -4.55 4.1 -5.85 Q1.7 -6.95 -0.25 -7.35 L-2.25 -7.65 Q-6.05 -7.85 -9.85 -5.4 -21.05 1.55 -23.2 9.7 -22.45 8.15 -20.05 5.45 -17.7 2.7 -14.75 0.1 -11.8 -2.55 -7.75 -4.55 -3.75 -6.55 -1.65 -6.0 L2.45 -4.6 5.8 -3.25 Q9.85 -1.6 13.0 -1.4 15.0 -1.25 18.75 -2.9 M10.6 -3.9 L11.75 -3.65 Q13.15 -3.5 14.3 -4.15 13.3 -5.75 12.45 -8.25 L11.0 -12.6 7.25 -13.1 2.65 -12.9 -1.3 -12.1 Q-3.75 -11.45 -6.1 -10.4 -10.55 -8.5 -13.8 -5.6 -17.35 -2.55 -18.85 1.05 -12.4 -5.85 -6.7 -7.7 -3.6 -8.7 -0.45 -8.25 L2.25 -7.65 5.8 -6.1 8.95 -4.55 Q9.85 -4.15 10.6 -3.9 M16.45 5.5 Q14.85 4.25 12.05 3.65 6.65 2.45 0.0 4.25 -6.7 6.05 -10.75 9.8 -14.8 13.5 -13.9 16.95 L-13.9 17.0 Q-12.95 20.45 -7.55 21.65 L-4.95 22.05 Q-0.65 22.4 4.5 21.05 11.15 19.25 15.25 15.55 L15.95 14.85 Q19.2 11.5 18.4 8.35 17.9 6.65 16.45 5.5" fill="#000000" fill-rule="evenodd" stroke="none"/>
      <path d="M18.75 -2.9 Q15.0 -1.25 13.0 -1.4 9.85 -1.6 5.8 -3.25 L2.45 -4.6 -1.65 -6.0 Q-3.75 -6.55 -7.75 -4.55 -11.8 -2.55 -14.75 0.1 -17.7 2.7 -20.05 5.45 -22.45 8.15 -23.2 9.7 -21.05 1.55 -9.85 -5.4 -6.05 -7.85 -2.25 -7.65 L-0.25 -7.35 Q1.7 -6.95 4.1 -5.85 L7.1 -4.55 10.15 -3.45 10.85 -3.3 Q13.95 -2.65 16.8 -3.75 L20.25 -4.8 Q22.45 -5.15 23.75 -4.4 L23.95 -4.25 22.05 -4.1 18.75 -2.9 M5.7 -26.25 Q5.55 -19.65 7.05 -13.9 L6.95 -13.9 2.6 -13.5 -1.2 -12.7 Q-2.9 -20.95 -6.9 -27.55 L2.35 -27.15 5.7 -26.25" fill="#00ccff" fill-rule="evenodd" stroke="none"/>
      <path d="M7.25 -13.1 L11.0 -12.6 12.45 -8.25 Q13.3 -5.75 14.3 -4.15 13.15 -3.5 11.75 -3.65 L10.6 -3.9 Q8.2 -7.45 7.25 -13.1 M-0.45 -8.25 Q-3.6 -8.7 -6.7 -7.7 -12.4 -5.85 -18.85 1.05 -17.35 -2.55 -13.8 -5.6 -10.55 -8.5 -6.1 -10.4 -3.75 -11.45 -1.3 -12.1 L-0.45 -8.25" fill="#990000" fill-rule="evenodd" stroke="none"/>
      <path d="M10.6 -3.9 Q9.85 -4.15 8.95 -4.55 L5.8 -6.1 2.25 -7.65 -0.45 -8.25 -1.3 -12.1 2.65 -12.9 7.25 -13.1 Q8.2 -7.45 10.6 -3.9" fill="#cc0000" fill-rule="evenodd" stroke="none"/>
      <path d="M15.95 14.85 L15.25 15.55 Q11.15 19.25 4.5 21.05 -0.65 22.4 -4.95 22.05 L-5.9 19.25 Q-2.0 19.4 2.55 18.2 9.2 16.4 13.3 12.7 L14.3 11.7 15.95 14.85" fill="#660000" fill-rule="evenodd" stroke="none"/>
      <path d="M-13.9 16.95 Q-14.8 13.5 -10.75 9.8 -6.7 6.05 0.0 4.25 6.65 2.45 12.05 3.65 14.85 4.25 16.45 5.5 17.2 8.5 14.3 11.7 L13.3 12.7 Q9.2 16.4 2.55 18.2 -2.0 19.4 -5.9 19.25 L-9.5 18.8 Q-12.3 18.2 -13.9 16.95" fill="#333333" fill-rule="evenodd" stroke="none"/>
      <path d="M16.45 5.5 Q17.9 6.65 18.4 8.35 19.2 11.5 15.95 14.85 L14.3 11.7 Q17.2 8.5 16.45 5.5 M-4.95 22.05 L-7.55 21.65 Q-12.95 20.45 -13.9 17.0 L-13.9 16.95 Q-12.3 18.2 -9.5 18.8 L-5.9 19.25 -4.95 22.05" fill="#330000" fill-rule="evenodd" stroke="none"/>
    </g>
    <g id="shape1" transform="matrix(1.0, 0.0, 0.0, 1.0, 38.55, 59.25)">
      <path d="M14.05 -53.0 Q13.2 -49.1 11.15 -46.05 L11.4 -44.35 11.7 -42.25 Q12.1 -39.55 13.05 -39.05 14.35 -38.4 15.3 -39.55 L16.1 -40.55 Q16.55 -41.15 17.0 -41.35 17.2 -40.8 17.05 -40.0 L16.6 -38.65 Q16.25 -37.85 16.25 -37.45 16.15 -36.9 16.6 -36.5 L19.4 -33.9 Q20.35 -32.55 20.4 -30.15 19.3 -31.3 18.3 -31.75 L17.6 -32.0 Q17.2 -32.2 16.95 -32.35 18.3 -27.25 15.35 -24.05 L15.05 -25.5 14.35 -24.1 Q13.95 -23.3 13.35 -23.05 13.05 -24.8 11.8 -25.9 9.3 -20.7 2.65 -17.3 2.3 -16.35 2.3 -14.95 L2.3 -12.6 5.55 -9.3 8.65 -6.0 Q11.9 -2.15 12.65 2.05 13.25 5.65 13.25 8.2 13.2 12.95 10.8 11.7 10.1 11.35 7.3 7.85 L3.6 3.3 Q2.8 4.3 2.0 6.05 L0.7 9.35 -0.65 12.4 Q-1.5 13.95 -2.35 14.65 -3.5 15.5 -5.05 15.35 -6.5 15.15 -8.05 14.0 -11.35 11.7 -13.65 7.0 -16.15 1.95 -15.9 -2.95 -15.6 -8.65 -11.5 -12.35 L-11.05 -12.85 -11.55 -14.6 -12.65 -16.3 Q-13.6 -17.45 -15.45 -18.65 L-18.7 -20.7 Q-20.5 -21.95 -21.4 -23.1 -24.05 -21.5 -25.15 -18.9 -26.4 -16.0 -24.85 -13.45 -26.25 -13.65 -27.9 -15.8 -29.4 -17.8 -30.75 -20.8 -32.05 -23.75 -32.65 -26.45 -33.3 -29.3 -32.85 -30.6 -33.85 -29.6 -34.6 -27.25 -35.4 -28.05 -35.3 -30.0 L-34.85 -32.95 Q-39.25 -37.55 -38.4 -44.5 L-37.7 -48.0 -27.35 -48.0 -20.1 -56.0 14.2 -59.25 Q14.75 -56.45 14.05 -53.0 M1.05 -14.6 L1.0 -16.8 Q-5.3 -15.5 -11.35 -16.8 L-10.25 -14.6 -8.55 -10.65 -6.05 -4.3 Q-4.25 -3.05 -1.6 -2.75 L3.2 -3.05 1.7 -9.8 Q1.2 -12.4 1.05 -14.6 M10.8 -43.85 L10.4 -46.85 Q9.15 -52.15 4.6 -54.35 0.6 -56.3 -5.4 -55.7 -10.8 -55.15 -16.55 -52.75 -22.0 -50.5 -25.7 -47.5 -25.6 -43.8 -28.55 -42.85 -30.95 -42.15 -34.45 -43.35 -34.05 -41.95 -33.1 -40.9 -32.05 -39.75 -30.75 -39.35 -32.6 -36.6 -33.4 -34.65 -34.6 -31.9 -34.45 -29.4 -32.85 -33.0 -31.15 -33.35 -33.45 -29.25 -30.75 -23.05 L-30.55 -25.05 Q-30.2 -26.35 -29.45 -26.55 L-29.9 -23.35 -29.8 -21.0 Q-29.6 -19.95 -28.9 -18.8 L-26.8 -15.95 Q-26.95 -16.95 -26.5 -18.4 L-25.25 -21.25 Q-23.35 -24.55 -21.1 -24.4 -18.2 -20.95 -13.65 -19.0 -9.2 -17.1 -4.35 -17.2 0.65 -17.35 4.7 -19.65 9.15 -22.25 11.6 -27.0 11.85 -27.45 13.85 -24.8 L14.2 -27.45 Q14.65 -27.7 15.2 -27.05 L15.85 -26.0 Q16.55 -28.05 16.0 -31.15 L15.5 -33.1 Q15.25 -33.95 15.35 -34.05 16.45 -34.05 17.6 -33.35 L19.45 -31.85 Q19.05 -34.9 14.7 -36.65 L16.15 -39.05 Q12.8 -36.35 11.5 -40.3 11.05 -41.6 10.8 -43.85 M4.45 -3.9 L5.15 -4.6 Q5.55 -5.0 6.0 -5.05 5.75 -3.4 3.8 -2.3 1.95 -1.3 -0.55 -1.3 -3.25 -1.3 -5.45 -2.65 -8.0 -4.15 -9.25 -7.1 L-8.45 -7.05 -7.75 -6.25 -10.15 -11.5 Q-12.5 -11.4 -13.7 -8.0 -14.85 -4.8 -14.45 -0.3 -14.05 4.45 -12.0 8.2 -9.7 12.45 -5.95 14.05 -4.2 14.8 -2.6 13.15 -1.55 12.0 0.0 8.85 1.95 4.85 2.65 3.75 4.25 1.1 6.0 0.55 L4.3 2.3 6.25 4.9 8.5 7.9 Q11.2 11.35 11.95 10.6 12.55 9.95 12.5 7.45 12.45 4.7 11.5 1.65 10.45 -2.05 8.45 -4.95 6.05 -8.4 2.7 -10.3 3.35 -6.15 4.45 -3.9" fill="#000000" fill-rule="evenodd" stroke="none"/>
      <path d="M10.8 -43.85 Q11.05 -41.6 11.5 -40.3 12.8 -36.35 16.15 -39.05 L14.7 -36.65 Q19.05 -34.9 19.45 -31.85 L17.6 -33.35 Q16.45 -34.05 15.35 -34.05 15.25 -33.95 15.5 -33.1 L16.0 -31.15 Q16.55 -28.05 15.85 -26.0 L15.2 -27.05 Q14.65 -27.7 14.2 -27.45 L13.85 -24.8 Q11.85 -27.45 11.6 -27.0 9.15 -22.25 4.7 -19.65 0.65 -17.35 -4.35 -17.2 -9.2 -17.1 -13.65 -19.0 -18.2 -20.95 -21.1 -24.4 -23.35 -24.55 -25.25 -21.25 L-26.5 -18.4 Q-26.95 -16.95 -26.8 -15.95 L-28.9 -18.8 Q-29.6 -19.95 -29.8 -21.0 L-29.9 -23.35 -29.45 -26.55 Q-30.2 -26.35 -30.55 -25.05 L-30.75 -23.05 Q-33.45 -29.25 -31.15 -33.35 -32.85 -33.0 -34.45 -29.4 -34.6 -31.9 -33.4 -34.65 -32.6 -36.6 -30.75 -39.35 -32.05 -39.75 -33.1 -40.9 -34.05 -41.95 -34.45 -43.35 -30.95 -42.15 -28.55 -42.85 -25.6 -43.8 -25.7 -47.5 -22.0 -50.5 -16.55 -52.75 -10.8 -55.15 -5.4 -55.7 0.6 -56.3 4.6 -54.35 9.15 -52.15 10.4 -46.85 L10.8 -43.85 M1.05 -14.6 Q1.2 -12.4 1.7 -9.8 L3.2 -3.05 -1.6 -2.75 Q-4.25 -3.05 -6.05 -4.3 L-8.55 -10.65 -10.25 -14.6 -11.35 -16.8 Q-5.3 -15.5 1.0 -16.8 L1.05 -14.6" fill="#ffffff" fill-rule="evenodd" stroke="none"/>
      <path d="M4.45 -3.9 Q3.35 -6.15 2.7 -10.3 6.05 -8.4 8.45 -4.95 10.45 -2.05 11.5 1.65 12.45 4.7 12.5 7.45 12.55 9.95 11.95 10.6 11.2 11.35 8.5 7.9 L6.25 4.9 4.3 2.3 6.0 0.55 Q4.25 1.1 2.65 3.75 1.95 4.85 0.0 8.85 -1.55 12.0 -2.6 13.15 -4.2 14.8 -5.95 14.05 -9.7 12.45 -12.0 8.2 -14.05 4.45 -14.45 -0.3 -14.85 -4.8 -13.7 -8.0 -12.5 -11.4 -10.15 -11.5 L-7.75 -6.25 -8.45 -7.05 -9.25 -7.1 Q-8.0 -4.15 -5.45 -2.65 -3.25 -1.3 -0.55 -1.3 1.95 -1.3 3.8 -2.3 5.75 -3.4 6.0 -5.05 5.55 -5.0 5.15 -4.6 L4.45 -3.9" fill="#990000" fill-rule="evenodd" stroke="none"/>
    </g>
    <g id="shape2" transform="matrix(1.0, 0.0, 0.0, 1.0, 23.8, 28.2)">
      <path d="M-5.15 -24.15 L-5.1 -23.65 Q-6.1 -25.25 -7.35 -26.3 -8.95 -27.55 -10.5 -27.55 -11.7 -27.55 -12.45 -26.0 -13.05 -24.9 -13.5 -22.45 L-14.3 -18.35 Q-14.85 -16.2 -15.55 -15.3 L-15.75 -15.3 -15.8 -15.3 -15.65 -15.5 -15.25 -16.25 -14.65 -18.2 -14.15 -21.5 -13.8 -24.6 Q-13.55 -26.15 -13.0 -26.9 -12.25 -28.0 -10.9 -28.05 -9.65 -28.15 -8.25 -27.45 -6.9 -26.8 -6.0 -25.75 -5.3 -24.9 -5.15 -24.15 M-22.8 2.0 Q-22.55 2.9 -22.7 4.15 L-23.05 6.45 Q-23.55 9.45 -22.3 11.7 -21.75 8.15 -18.55 6.75 -16.45 5.85 -12.35 5.75 -15.05 0.6 -15.0 -3.65 -15.0 -6.8 -13.35 -10.55 L-11.95 -13.6 -10.7 -16.7 Q-9.5 -20.35 -10.2 -23.9 -9.5 -23.25 -9.55 -21.95 -7.1 -21.45 -4.85 -19.4 -2.8 -17.55 -1.15 -14.75 0.35 -12.1 1.2 -9.1 2.0 -6.2 1.95 -3.75 L3.25 -2.75 4.4 -1.6 Q4.9 -1.8 4.65 -2.45 L4.15 -3.4 Q2.45 -7.0 2.65 -12.95 2.85 -19.0 4.9 -22.35 L5.1 -22.35 Q4.45 -21.45 5.8 -19.85 L6.95 -18.7 7.9 -17.75 Q8.15 -19.45 7.55 -22.55 6.9 -25.9 5.9 -27.0 4.6 -28.5 2.1 -24.15 L1.6 -23.15 2.0 -24.05 2.05 -24.15 2.7 -25.45 3.85 -27.7 Q5.25 -28.75 6.4 -27.55 7.3 -26.55 7.95 -24.1 8.45 -22.05 8.6 -19.65 8.75 -17.45 8.55 -16.55 L10.25 -11.5 Q11.05 -8.6 11.0 -6.2 13.95 -6.25 14.75 -2.0 L16.65 -2.6 18.95 -3.35 Q21.85 -4.1 22.85 -3.0 24.45 -1.25 23.3 0.35 22.4 1.55 19.5 2.95 L14.35 5.35 Q11.45 6.7 10.6 7.9 L12.25 13.35 Q13.2 16.85 13.35 19.25 13.7 26.1 7.35 27.45 1.15 30.25 -5.95 23.0 -9.9 19.0 -13.05 17.3 -16.0 15.7 -20.3 15.05 -21.75 14.85 -22.65 13.2 -23.45 11.75 -23.65 9.45 -23.9 7.35 -23.65 5.25 -23.45 3.65 -23.05 2.6 L-22.95 2.35 -22.8 2.0 M-9.45 -21.35 Q-9.35 -19.45 -10.25 -16.75 L-12.25 -11.75 Q-13.5 -8.6 -13.9 -6.35 -14.5 -3.2 -13.8 -0.4 L-12.65 3.4 Q-12.0 4.9 -11.05 5.55 -10.05 6.15 -8.45 6.0 -6.9 5.85 -4.3 4.9 -4.95 4.1 -4.95 2.3 -4.95 0.5 -4.3 -1.15 -3.55 -3.0 -2.25 -3.85 -0.7 -4.85 1.35 -4.15 L0.65 -8.75 Q0.1 -11.4 -0.85 -13.15 -2.45 -15.95 -4.5 -18.3 -7.35 -21.55 -9.45 -21.35 M-19.25 7.9 Q-20.5 8.7 -21.2 9.95 -22.05 11.4 -21.65 12.7 -21.35 13.85 -20.0 14.2 L-18.75 14.4 -17.55 14.55 Q-15.2 15.0 -11.9 17.25 L-5.9 21.75 -0.15 25.85 Q2.85 27.6 4.95 27.35 12.4 26.3 12.75 20.35 12.85 18.0 11.95 14.7 L9.95 8.95 9.1 9.8 Q12.95 19.9 10.75 22.05 7.4 25.35 3.8 24.95 1.0 24.65 -2.65 21.8 L-5.8 19.15 -8.95 16.4 Q-12.7 13.2 -15.4 12.45 L-17.25 12.6 -17.7 13.05 -18.55 13.25 -18.55 12.75 Q-16.65 11.25 -15.55 9.65 -15.0 10.25 -16.0 11.25 L-11.05 10.85 -5.3 11.85 0.55 12.65 Q3.7 12.65 5.9 11.5 7.65 10.55 9.4 8.8 L12.4 5.55 Q14.2 3.4 15.5 2.35 17.3 0.7 19.3 -0.05 15.55 2.6 13.95 4.6 L16.6 3.5 20.05 1.95 Q24.1 -0.35 22.25 -2.85 18.6 -3.35 13.5 -0.5 9.05 1.95 6.25 5.2 5.9 7.25 4.6 8.45 3.35 9.55 1.65 9.65 0.0 9.7 -1.45 8.8 -3.05 7.8 -3.8 6.0 L-7.65 6.55 -11.75 6.5 -15.7 6.6 Q-17.8 6.9 -19.25 7.9 M-2.1 -2.55 Q-3.85 0.15 -3.15 3.0 -2.55 5.45 -0.15 7.8 -1.3 7.15 -2.25 5.8 -3.2 4.4 -3.6 2.9 -4.05 1.2 -3.7 -0.15 -3.35 -1.7 -2.1 -2.55 M1.0 -3.8 Q-0.85 -4.25 -2.4 -2.8 -4.0 -1.4 -4.3 0.95 -4.7 3.5 -3.25 5.9 -1.65 8.65 0.4 9.2 2.25 9.65 3.75 8.3 5.2 6.95 5.5 4.6 5.8 2.0 4.5 -0.55 3.05 -3.3 1.0 -3.8 M-8.5 11.95 Q-13.05 10.95 -15.15 11.9 -9.5 14.15 -4.8 18.85 L-0.45 22.5 Q2.35 24.4 4.4 24.45 6.2 24.5 7.95 23.4 L10.9 20.9 Q10.75 16.3 8.45 10.6 L6.1 12.2 3.05 13.25 2.9 15.3 Q2.85 16.45 2.4 17.55 L0.75 15.5 -1.05 13.55 -4.7 12.85 -8.5 11.95 M-0.15 13.55 L2.25 16.35 2.25 13.5 1.05 13.45 -0.15 13.55 M8.75 -14.1 Q6.95 -19.25 4.4 -20.55 2.9 -16.45 3.3 -11.4 3.65 -6.85 5.45 -2.4 L7.15 -2.55 Q7.7 -4.5 8.05 -4.9 8.45 -5.55 10.1 -6.15 L9.85 -9.75 8.75 -14.1 M6.0 -0.05 L5.15 -1.55 4.9 -1.2 5.25 -0.15 6.0 -0.05 M7.5 0.2 Q7.2 -0.85 7.15 -2.05 L5.55 -1.8 6.4 0.05 7.5 0.2 M12.15 -5.3 L9.65 -5.45 Q8.35 -4.75 8.1 -2.95 7.8 -0.9 9.05 1.6 12.2 -0.9 14.2 -1.75 13.55 -4.35 12.15 -5.3 M9.7 -5.1 L10.45 -5.15 Q9.5 -4.6 9.15 -3.05 L8.85 -0.8 Q8.2 -3.05 9.05 -4.4 L9.7 -5.1 M7.65 0.7 L5.5 0.5 Q6.15 2.7 6.25 4.4 L8.35 2.25 7.65 0.7" fill="#000000" fill-rule="evenodd" stroke="none"/>
      <path d="M-9.45 -21.35 Q-7.35 -21.55 -4.5 -18.3 -2.45 -15.95 -0.85 -13.15 0.1 -11.4 0.65 -8.75 L1.35 -4.15 Q-0.7 -4.85 -2.25 -3.85 -3.55 -3.0 -4.3 -1.15 -4.95 0.5 -4.95 2.3 -4.95 4.1 -4.3 4.9 -6.9 5.85 -8.45 6.0 -10.05 6.15 -11.05 5.55 -12.0 4.9 -12.65 3.4 L-13.8 -0.4 Q-14.5 -3.2 -13.9 -6.35 -13.5 -8.6 -12.25 -11.75 L-10.25 -16.75 Q-9.35 -19.45 -9.45 -21.35 M8.75 -14.1 L9.85 -9.75 10.1 -6.15 Q8.45 -5.55 8.05 -4.9 7.7 -4.5 7.15 -2.55 L5.45 -2.4 Q3.65 -6.85 3.3 -11.4 2.9 -16.45 4.4 -20.55 6.95 -19.25 8.75 -14.1 M7.5 0.2 L6.4 0.05 5.55 -1.8 7.15 -2.05 Q7.2 -0.85 7.5 0.2" fill="#ccffff" fill-rule="evenodd" stroke="none"/>
      <path d="M-15.75 -15.3 L-15.55 -15.3 Q-14.85 -16.2 -14.3 -18.35 L-13.5 -22.45 Q-13.05 -24.9 -12.45 -26.0 -11.7 -27.55 -10.5 -27.55 -8.95 -27.55 -7.35 -26.3 -6.1 -25.25 -5.1 -23.65 L-5.15 -24.15 Q-0.05 -20.25 2.0 -24.05 L1.6 -23.15 2.1 -24.15 Q4.6 -28.5 5.9 -27.0 6.9 -25.9 7.55 -22.55 8.15 -19.45 7.9 -17.75 L6.95 -18.7 5.8 -19.85 Q4.45 -21.45 5.1 -22.35 L4.9 -22.35 Q2.85 -19.0 2.65 -12.95 2.45 -7.0 4.15 -3.4 L4.65 -2.45 Q4.9 -1.8 4.4 -1.6 L3.25 -2.75 1.95 -3.75 Q2.0 -6.2 1.2 -9.1 0.35 -12.1 -1.15 -14.75 -2.8 -17.55 -4.85 -19.4 -7.1 -21.45 -9.55 -21.95 -9.5 -23.25 -10.2 -23.9 -9.5 -20.35 -10.7 -16.7 L-11.95 -13.6 -13.35 -10.55 Q-15.0 -6.8 -15.0 -3.65 -15.05 0.6 -12.35 5.75 -16.45 5.85 -18.55 6.75 -21.75 8.15 -22.3 11.7 -23.55 9.45 -23.05 6.45 L-22.7 4.15 Q-22.55 2.9 -22.8 2.0 -18.1 -6.0 -15.75 -15.3 M-2.1 -2.55 Q-3.35 -1.7 -3.7 -0.15 -4.05 1.2 -3.6 2.9 -3.2 4.4 -2.25 5.8 -1.3 7.15 -0.15 7.8 -2.55 5.45 -3.15 3.0 -3.85 0.15 -2.1 -2.55 M1.0 -3.8 Q3.05 -3.3 4.5 -0.55 5.8 2.0 5.5 4.6 5.2 6.95 3.75 8.3 2.25 9.65 0.4 9.2 -1.65 8.65 -3.25 5.9 -4.7 3.5 -4.3 0.95 -4.0 -1.4 -2.4 -2.8 -0.85 -4.25 1.0 -3.8 M6.0 -0.05 L5.25 -0.15 4.9 -1.2 5.15 -1.55 6.0 -0.05 M12.15 -5.3 Q13.55 -4.35 14.2 -1.75 12.2 -0.9 9.05 1.6 7.8 -0.9 8.1 -2.95 8.35 -4.75 9.65 -5.45 L12.15 -5.3 M9.7 -5.1 L9.05 -4.4 Q8.2 -3.05 8.85 -0.8 L9.15 -3.05 Q9.5 -4.6 10.45 -5.15 L9.7 -5.1" fill="#ffffff" fill-rule="evenodd" stroke="none"/>
      <path d="M-19.25 7.9 Q-17.8 6.9 -15.7 6.6 L-11.75 6.5 -7.65 6.55 -3.8 6.0 Q-3.05 7.8 -1.45 8.8 0.0 9.7 1.65 9.65 3.35 9.55 4.6 8.45 5.9 7.25 6.25 5.2 9.05 1.95 13.5 -0.5 18.6 -3.35 22.25 -2.85 24.1 -0.35 20.05 1.95 L16.6 3.5 13.95 4.6 Q15.55 2.6 19.3 -0.05 17.3 0.7 15.5 2.35 14.2 3.4 12.4 5.55 L9.4 8.8 Q7.65 10.55 5.9 11.5 3.7 12.65 0.55 12.65 L-5.3 11.85 -11.05 10.85 -16.0 11.25 Q-15.0 10.25 -15.55 9.65 -16.65 11.25 -18.55 12.75 L-18.55 13.25 -17.7 13.05 -17.25 12.6 -15.4 12.45 Q-12.7 13.2 -8.95 16.4 L-5.8 19.15 -2.65 21.8 Q1.0 24.65 3.8 24.95 7.4 25.35 10.75 22.05 12.95 19.9 9.1 9.8 L9.95 8.95 11.95 14.7 Q12.85 18.0 12.75 20.35 12.4 26.3 4.95 27.35 2.85 27.6 -0.15 25.85 L-5.9 21.75 -11.9 17.25 Q-15.2 15.0 -17.55 14.55 L-18.75 14.4 -20.0 14.2 Q-21.35 13.85 -21.65 12.7 -22.05 11.4 -21.2 9.95 -20.5 8.7 -19.25 7.9 M7.65 0.7 L8.35 2.25 6.25 4.4 Q6.15 2.7 5.5 0.5 L7.65 0.7" fill="#ffcc00" fill-rule="evenodd" stroke="none"/>
      <path d="M-8.5 11.95 L-4.7 12.85 -1.05 13.55 0.75 15.5 2.4 17.55 Q2.85 16.45 2.9 15.3 L3.05 13.25 6.1 12.2 8.45 10.6 Q10.75 16.3 10.9 20.9 L7.95 23.4 Q6.2 24.5 4.4 24.45 2.35 24.4 -0.45 22.5 L-4.8 18.85 Q-9.5 14.15 -15.15 11.9 -13.05 10.95 -8.5 11.95" fill="#ff6666" fill-rule="evenodd" stroke="none"/>
      <path d="M-0.15 13.55 L1.05 13.45 2.25 13.5 2.25 16.35 -0.15 13.55" fill="#ff3333" fill-rule="evenodd" stroke="none"/>
    </g>
    <g id="shape3" transform="matrix(1.0, 0.0, 0.0, 1.0, 3.2, 7.35)">
      <path d="M-2.25 -5.25 Q-1.3 -7.35 0.05 -7.35 1.35 -7.35 2.3 -5.25 3.25 -3.1 3.25 -0.05 3.25 3.0 2.3 5.15 1.35 7.3 0.05 7.3 -1.3 7.3 -2.25 5.15 -3.2 3.0 -3.2 -0.05 -3.2 -3.1 -2.25 -5.25" fill="#000000" fill-rule="evenodd" stroke="none"/>
    </g>
  </defs>
</svg>
