<?xml version="1.0" encoding="UTF-8" standalone="no"?>
<svg xmlns:xlink="http://www.w3.org/1999/xlink" height="103.9px" width="91.6px" xmlns="http://www.w3.org/2000/svg">
  <g transform="matrix(1.0, 0.0, 0.0, 1.0, 49.65, 57.35)">
    <use height="91.4" transform="matrix(0.7719, 0.2397, -0.2397, 0.7719, -27.7609, -54.9382)" width="83.75" xlink:href="#shape0"/>
  </g>
  <defs>
    <g id="shape0" transform="matrix(1.0, 0.0, 0.0, 1.0, 65.15, 82.1)">
      <path d="M-36.85 -73.7 L-50.05 -60.95 -61.3 -68.25 -61.5 -67.7 Q-64.2 -60.55 -63.75 -52.9 L-63.15 -48.3 -50.05 -60.95 -36.1 -51.95 -36.7 -50.3 Q-38.25 -46.45 -40.3 -43.3 -42.25 -40.3 -44.35 -38.55 L-46.2 -37.25 Q-46.85 -36.9 -47.45 -36.7 L-45.4 -36.55 Q-40.25 -40.1 -37.15 -46.5 L-35.65 -50.3 -35.3 -51.45 -35.0 -52.45 Q-29.7 -52.05 -24.85 -49.6 -25.25 -47.9 -25.85 -46.65 L-27.05 -44.85 -27.15 -44.65 Q-28.4 -42.35 -30.05 -40.3 -33.0 -36.7 -36.65 -34.9 L-33.65 -34.15 -30.65 -33.5 Q-26.7 -33.5 -23.4 -39.35 -22.15 -41.65 -21.25 -44.4 -20.4 -46.9 -20.15 -48.8 -23.25 -55.75 -23.15 -62.85 L-26.3 -65.25 Q-24.15 -61.6 -24.0 -56.95 L-24.2 -53.8 -24.2 -53.6 -24.4 -52.5 -24.35 -52.9 -24.3 -53.25 Q-24.05 -58.1 -26.4 -63.6 -29.75 -64.6 -33.1 -68.65 L-35.4 -71.7 Q-35.75 -73.35 -36.25 -74.55 L-35.75 -73.95 -36.3 -74.65 -36.25 -74.55 -38.7 -77.35 Q-37.85 -76.05 -37.1 -74.25 L-36.85 -73.7 M-46.6 -81.95 Q-43.5 -82.5 -40.8 -80.65 -38.75 -79.35 -36.35 -76.25 L-34.35 -73.7 -32.5 -71.35 -31.9 -70.75 Q-30.1 -68.9 -28.4 -68.6 -26.95 -68.35 -24.9 -68.6 -22.8 -68.9 -21.55 -69.6 L-19.65 -71.4 -18.1 -73.45 Q-17.25 -74.65 -16.3 -75.15 -15.15 -75.9 -13.55 -75.85 -9.9 -75.7 -9.8 -72.75 -9.7 -70.9 -11.15 -67.55 L-10.4 -66.25 -9.7 -64.75 Q-8.85 -62.85 -7.85 -62.5 -6.15 -65.75 -4.15 -65.2 -2.2 -64.75 -1.2 -61.3 -0.15 -62.2 1.7 -61.8 1.45 -65.15 2.55 -67.2 3.5 -69.1 5.2 -69.35 6.9 -69.65 8.55 -68.25 10.4 -66.7 11.55 -63.7 14.2 -63.0 15.95 -60.85 17.55 -58.85 18.2 -55.95 18.8 -53.25 18.5 -50.35 18.15 -47.5 17.05 -45.3 13.8 -38.85 7.55 -35.05 L8.45 -31.7 7.8 -32.4 Q7.35 -32.75 6.95 -32.8 6.4 -31.75 8.0 -30.15 L9.75 -28.55 11.8 -26.8 Q14.5 -24.5 15.75 -22.6 17.55 -19.95 17.25 -17.2 17.1 -15.95 16.25 -14.65 15.3 -13.2 13.75 -12.1 9.9 -9.5 4.0 -10.0 3.8 -9.45 4.5 -8.5 7.65 -8.45 10.45 -7.35 13.1 -6.25 15.0 -4.2 16.95 -2.2 17.85 0.5 18.75 3.3 18.4 6.55 L13.15 6.1 8.05 6.85 3.05 8.15 -2.1 9.15 Q-6.35 9.75 -8.9 8.25 -11.25 6.85 -11.65 4.2 -12.1 1.65 -10.65 -1.1 -9.15 -4.0 -6.1 -5.8 L-10.7 -11.85 Q-14.65 -16.65 -15.6 -16.45 -17.1 -16.25 -15.4 -12.6 -18.5 -13.9 -19.9 -15.05 -20.25 -13.25 -16.3 -8.9 L-18.15 -9.1 -19.9 -9.6 -19.3 -9.25 -18.95 -8.75 -22.95 -8.55 Q-25.1 -8.9 -27.25 -10.05 -29.45 -11.2 -31.0 -12.8 -32.7 -14.45 -33.3 -16.15 -34.0 -14.85 -33.6 -11.2 -36.05 -13.35 -37.3 -16.45 -38.55 -19.6 -38.3 -22.85 -41.5 -24.6 -43.25 -28.15 -44.95 -31.4 -45.05 -35.25 L-46.7 -35.4 -48.8 -35.45 -52.65 -35.65 Q-57.2 -36.2 -59.45 -38.7 -63.6 -43.35 -64.75 -50.35 -65.85 -57.1 -64.0 -64.0 -63.35 -66.55 -62.3 -68.85 -60.5 -72.75 -57.8 -75.75 -53.1 -80.9 -46.6 -81.95 M-21.9 -68.5 Q-24.1 -67.35 -27.35 -67.25 L-23.0 -64.1 -22.55 -66.35 -21.9 -68.5 M-10.8 -71.7 Q-10.75 -73.45 -11.85 -74.25 -12.95 -75.05 -14.45 -74.75 -17.1 -74.2 -19.0 -71.5 -20.5 -69.45 -21.4 -66.35 -22.6 -62.4 -21.65 -57.1 L-20.55 -52.45 -19.25 -47.8 Q-17.8 -42.1 -17.95 -38.35 -18.15 -33.5 -20.75 -29.35 -19.25 -30.55 -18.7 -32.3 -18.05 -34.05 -17.75 -35.95 -17.4 -37.75 -17.2 -39.65 -16.95 -41.55 -17.0 -43.5 -17.0 -45.5 -17.4 -47.4 L-18.0 -51.05 Q-18.3 -52.95 -18.9 -54.75 L-19.75 -58.45 -20.1 -62.25 Q-20.15 -64.3 -19.75 -66.15 -19.35 -68.0 -18.35 -69.5 L-16.05 -72.3 Q-14.65 -73.65 -12.8 -73.25 -11.15 -72.9 -10.8 -71.7 M7.25 -68.55 L4.1 -68.35 Q2.65 -67.45 2.25 -65.5 1.8 -63.7 2.3 -61.55 2.75 -59.45 3.85 -57.85 5.05 -56.15 6.6 -55.7 8.85 -55.1 10.1 -56.25 11.15 -57.2 11.35 -59.25 11.5 -61.1 11.0 -63.25 10.55 -65.25 9.8 -66.5 8.95 -67.9 7.25 -68.55 M10.7 -60.4 Q9.55 -65.75 6.55 -67.85 8.15 -68.8 9.5 -65.15 10.4 -62.7 10.7 -60.4 M15.15 -59.55 Q13.6 -61.75 11.9 -62.3 12.5 -60.45 11.9 -58.6 13.2 -57.25 13.95 -55.9 14.95 -53.9 14.3 -52.65 L13.85 -54.0 13.45 -55.5 Q12.9 -57.2 11.65 -57.8 11.2 -56.0 9.7 -55.3 8.3 -54.75 6.55 -55.3 4.75 -55.9 3.45 -57.4 2.0 -59.0 1.7 -61.1 0.55 -61.8 -0.25 -61.3 -1.15 -60.75 -0.8 -59.45 4.5 -55.55 7.0 -49.5 9.55 -43.25 8.05 -36.95 13.45 -41.25 15.75 -45.95 17.65 -49.9 17.3 -53.75 16.95 -57.0 15.15 -59.55 M-3.2 -63.05 Q-2.6 -62.4 -2.6 -61.7 -4.0 -63.85 -5.25 -63.9 L-4.85 -64.2 -4.25 -64.1 -3.2 -63.05 M-3.8 -42.45 L-2.8 -45.0 Q-2.4 -46.45 -2.7 -47.7 -4.2 -46.45 -7.1 -45.5 L-11.65 -45.35 Q-5.45 -46.25 -2.7 -48.95 -1.9 -49.7 -1.85 -46.95 -1.8 -44.25 -2.3 -43.4 0.75 -42.6 3.05 -40.9 5.65 -39.0 6.9 -36.35 8.05 -39.9 5.55 -43.45 3.8 -45.95 -0.9 -49.7 L-4.75 -52.65 -8.3 -55.8 Q-11.95 -59.45 -12.35 -62.8 L-9.8 -62.9 Q-10.1 -64.5 -11.55 -66.5 -13.85 -61.4 -14.55 -58.75 -15.15 -56.75 -14.35 -55.25 L-13.45 -53.9 -12.45 -52.25 -15.05 -54.4 -14.95 -51.8 -14.65 -48.0 Q-14.3 -42.3 -14.85 -38.25 -16.55 -25.0 -27.95 -21.0 -20.55 -15.1 -9.15 -18.55 -11.05 -17.4 -13.45 -16.8 L-9.1 -11.8 Q-6.85 -8.9 -5.65 -6.2 -0.35 -8.45 3.6 -8.45 0.3 -13.95 0.15 -20.35 L-2.75 -20.55 -6.55 -20.05 -10.4 -20.25 Q-12.35 -20.8 -13.45 -22.6 L-13.35 -22.7 Q-11.35 -20.95 -8.6 -20.95 L-6.3 -21.15 -4.05 -21.6 0.05 -21.45 Q2.15 -20.55 3.4 -17.2 4.5 -19.5 4.75 -21.05 L4.7 -23.7 4.0 -26.2 Q3.6 -27.9 3.5 -29.7 5.1 -27.6 5.8 -23.15 7.25 -28.25 5.6 -32.4 L4.4 -34.6 Q3.9 -35.35 4.15 -35.35 L5.75 -34.75 7.35 -33.85 5.6 -36.75 2.8 -39.9 Q-1.1 -43.45 -3.8 -42.45 M-1.4 -59.75 Q-0.9 -60.45 -1.7 -61.8 -2.4 -63.05 -3.65 -64.0 -5.05 -65.0 -5.95 -64.7 -7.05 -64.4 -7.0 -62.4 -3.8 -61.3 -1.4 -59.75 M2.55 -47.65 Q5.8 -44.6 7.25 -41.4 7.45 -50.15 2.15 -55.8 -2.75 -61.05 -11.55 -62.8 -11.35 -60.0 -8.95 -57.3 -7.4 -55.55 -3.55 -52.6 L2.55 -47.65 M9.55 -23.45 Q10.6 -22.2 11.25 -20.85 12.95 -17.5 11.55 -15.65 12.3 -20.35 7.5 -24.9 L5.4 -19.6 Q3.55 -15.3 3.05 -15.05 L2.75 -15.75 2.5 -16.9 Q2.15 -18.5 1.2 -19.4 L2.05 -15.35 Q2.5 -12.95 3.2 -11.4 L9.35 -11.55 Q12.2 -12.15 14.75 -14.25 18.4 -17.3 14.65 -22.4 12.05 -25.9 7.5 -28.9 L7.75 -27.05 7.65 -25.15 7.75 -25.2 9.55 -23.45 M5.25 -7.35 Q1.3 -7.75 -2.25 -6.4 -6.35 -4.95 -9.2 -1.5 -10.7 0.25 -11.0 2.05 -11.35 3.75 -10.5 5.2 -9.75 6.55 -8.0 7.4 -6.25 8.25 -3.8 8.25 -1.4 8.25 1.65 7.45 L6.95 6.05 Q10.05 5.2 12.3 5.1 15.3 4.95 18.05 5.9 18.05 4.1 17.05 1.75 L15.25 -2.1 Q14.4 -4.1 11.6 -5.55 8.8 -7.05 5.25 -7.35 M-20.45 -16.55 Q-19.85 -15.65 -18.7 -14.85 -17.55 -14.05 -16.6 -13.85 -17.25 -14.95 -17.1 -16.35 L-20.45 -16.55 M-34.75 -13.2 Q-34.85 -16.15 -33.35 -18.2 -29.8 -9.9 -20.55 -9.15 -23.15 -11.2 -24.4 -14.25 -20.45 -10.5 -18.0 -9.7 -21.0 -12.5 -21.25 -16.6 -26.95 -18.25 -29.7 -20.7 -33.2 -21.05 -36.85 -22.15 -38.35 -18.2 -34.75 -13.2" fill="#000000" fill-rule="evenodd" stroke="none"/>
      <path d="M-36.1 -51.95 L-50.05 -60.95 -63.15 -48.3 -63.75 -52.9 Q-64.2 -60.55 -61.5 -67.7 L-61.3 -68.25 -50.05 -60.95 -36.85 -73.7 -36.6 -73.0 Q-35.85 -70.95 -35.25 -68.65 L-34.45 -64.9 -34.85 -68.65 -35.4 -71.7 -33.1 -68.65 Q-29.75 -64.6 -26.4 -63.6 -24.05 -58.1 -24.3 -53.25 L-24.35 -52.9 -24.85 -49.6 Q-29.7 -52.05 -35.0 -52.45 -34.1 -55.9 -34.0 -59.5 -34.85 -55.45 -36.1 -51.95 M-21.9 -68.5 L-22.55 -66.35 -23.0 -64.1 -27.35 -67.25 Q-24.1 -67.35 -21.9 -68.5 M-10.8 -71.7 Q-11.15 -72.9 -12.8 -73.25 -14.65 -73.65 -16.05 -72.3 L-18.35 -69.5 Q-19.35 -68.0 -19.75 -66.15 -20.15 -64.3 -20.1 -62.25 L-19.75 -58.45 -18.9 -54.75 Q-18.3 -52.95 -18.0 -51.05 L-17.4 -47.4 Q-17.0 -45.5 -17.0 -43.5 -16.95 -41.55 -17.2 -39.65 -17.4 -37.75 -17.75 -35.95 -18.05 -34.05 -18.7 -32.3 -19.25 -30.55 -20.75 -29.35 -18.15 -33.5 -17.95 -38.35 -17.8 -42.1 -19.25 -47.8 L-20.55 -52.45 -21.65 -57.1 Q-22.6 -62.4 -21.4 -66.35 -20.5 -69.45 -19.0 -71.5 -17.1 -74.2 -14.45 -74.75 -12.95 -75.05 -11.85 -74.25 -10.75 -73.45 -10.8 -71.7" fill="#00ccff" fill-rule="evenodd" stroke="none"/>
      <path d="M-36.85 -73.7 L-37.1 -74.25 Q-37.85 -76.05 -38.7 -77.35 L-36.25 -74.55 -36.3 -74.65 -35.75 -73.95 -36.25 -74.55 Q-35.75 -73.35 -35.4 -71.7 L-34.85 -68.65 -34.45 -64.9 -35.25 -68.65 Q-35.85 -70.95 -36.6 -73.0 L-36.85 -73.7 M-35.0 -52.45 L-35.3 -51.45 -35.65 -50.3 -37.15 -46.5 Q-40.25 -40.1 -45.4 -36.55 L-47.45 -36.7 Q-46.85 -36.9 -46.2 -37.25 L-44.35 -38.55 Q-42.25 -40.3 -40.3 -43.3 -38.25 -46.45 -36.7 -50.3 L-36.1 -51.95 Q-34.85 -55.45 -34.0 -59.5 -34.1 -55.9 -35.0 -52.45 M7.25 -68.55 Q8.95 -67.9 9.8 -66.5 10.55 -65.25 11.0 -63.25 11.5 -61.1 11.35 -59.25 11.15 -57.2 10.1 -56.25 8.85 -55.1 6.6 -55.7 5.05 -56.15 3.85 -57.85 2.75 -59.45 2.3 -61.55 1.8 -63.7 2.25 -65.5 2.65 -67.45 4.1 -68.35 L7.25 -68.55 M10.7 -60.4 Q10.4 -62.7 9.5 -65.15 8.15 -68.8 6.55 -67.85 9.55 -65.75 10.7 -60.4 M-3.2 -63.05 L-4.25 -64.1 -4.85 -64.2 -5.25 -63.9 Q-4.0 -63.85 -2.6 -61.7 -2.6 -62.4 -3.2 -63.05 M-1.4 -59.75 Q-3.8 -61.3 -7.0 -62.4 -7.05 -64.4 -5.95 -64.7 -5.05 -65.0 -3.65 -64.0 -2.4 -63.05 -1.7 -61.8 -0.9 -60.45 -1.4 -59.75 M-3.8 -42.45 Q-1.1 -43.45 2.8 -39.9 L5.6 -36.75 7.35 -33.85 5.75 -34.75 4.15 -35.35 Q3.9 -35.35 4.4 -34.6 L5.6 -32.4 Q7.25 -28.25 5.8 -23.15 5.1 -27.6 3.5 -29.7 3.6 -27.9 4.0 -26.2 L4.7 -23.7 4.75 -21.05 Q4.5 -19.5 3.4 -17.2 2.15 -20.55 0.05 -21.45 L-4.05 -21.6 -6.3 -21.15 -8.6 -20.95 Q-11.35 -20.95 -13.35 -22.7 L-13.45 -22.6 Q-12.35 -20.8 -10.4 -20.25 L-6.55 -20.05 -2.75 -20.55 0.15 -20.35 Q0.3 -13.95 3.6 -8.45 -0.35 -8.45 -5.65 -6.2 -6.85 -8.9 -9.1 -11.8 L-13.45 -16.8 Q-11.05 -17.4 -9.15 -18.55 -20.55 -15.1 -27.95 -21.0 -16.55 -25.0 -14.85 -38.25 -14.3 -42.3 -14.65 -48.0 L-14.95 -51.8 -15.05 -54.4 -12.45 -52.25 -13.45 -53.9 -14.35 -55.25 Q-15.15 -56.75 -14.55 -58.75 -13.85 -61.4 -11.55 -66.5 -10.1 -64.5 -9.8 -62.9 L-12.35 -62.8 Q-11.95 -59.45 -8.3 -55.8 L-4.75 -52.65 -0.9 -49.7 Q3.8 -45.95 5.55 -43.45 8.05 -39.9 6.9 -36.35 5.65 -39.0 3.05 -40.9 0.75 -42.6 -2.3 -43.4 -1.8 -44.25 -1.85 -46.95 -1.9 -49.7 -2.7 -48.95 -5.45 -46.25 -11.65 -45.35 L-7.1 -45.5 Q-4.2 -46.45 -2.7 -47.7 -2.4 -46.45 -2.8 -45.0 L-3.8 -42.45 M-34.75 -13.2 Q-38.35 -18.2 -36.85 -22.15 -33.2 -21.05 -29.7 -20.7 -26.95 -18.25 -21.25 -16.6 -21.0 -12.5 -18.0 -9.7 -20.45 -10.5 -24.4 -14.25 -23.15 -11.2 -20.55 -9.15 -29.8 -9.9 -33.35 -18.2 -34.85 -16.15 -34.75 -13.2 M-20.45 -16.55 L-17.1 -16.35 Q-17.25 -14.95 -16.6 -13.85 -17.55 -14.05 -18.7 -14.85 -19.85 -15.65 -20.45 -16.55" fill="#ffffff" fill-rule="evenodd" stroke="none"/>
      <path d="M15.15 -59.55 Q16.95 -57.0 17.3 -53.75 17.65 -49.9 15.75 -45.95 13.45 -41.25 8.05 -36.95 9.55 -43.25 7.0 -49.5 4.5 -55.55 -0.8 -59.45 -1.15 -60.75 -0.25 -61.3 0.55 -61.8 1.7 -61.1 2.0 -59.0 3.45 -57.4 4.75 -55.9 6.55 -55.3 8.3 -54.75 9.7 -55.3 11.2 -56.0 11.65 -57.8 12.9 -57.2 13.45 -55.5 L13.85 -54.0 14.3 -52.65 Q14.95 -53.9 13.95 -55.9 13.2 -57.25 11.9 -58.6 12.5 -60.45 11.9 -62.3 13.6 -61.75 15.15 -59.55 M9.55 -23.45 L7.75 -25.2 7.65 -25.15 7.75 -27.05 7.5 -28.9 Q12.05 -25.9 14.65 -22.4 18.4 -17.3 14.75 -14.25 12.2 -12.15 9.35 -11.55 L3.2 -11.4 Q2.5 -12.95 2.05 -15.35 L1.2 -19.4 Q2.15 -18.5 2.5 -16.9 L2.75 -15.75 3.05 -15.05 Q3.55 -15.3 5.4 -19.6 L7.5 -24.9 Q12.3 -20.35 11.55 -15.65 12.95 -17.5 11.25 -20.85 10.6 -22.2 9.55 -23.45" fill="#ffcc00" fill-rule="evenodd" stroke="none"/>
      <path d="M2.55 -47.65 L-3.55 -52.6 Q-7.4 -55.55 -8.95 -57.3 -11.35 -60.0 -11.55 -62.8 -2.75 -61.05 2.15 -55.8 7.45 -50.15 7.25 -41.4 5.8 -44.6 2.55 -47.65" fill="#ccffff" fill-rule="evenodd" stroke="none"/>
      <path d="M-24.35 -52.9 L-24.4 -52.5 -24.2 -53.6 -24.2 -53.8 -24.0 -56.95 Q-24.15 -61.6 -26.3 -65.25 L-23.15 -62.85 Q-23.25 -55.75 -20.15 -48.8 -20.4 -46.9 -21.25 -44.4 -22.15 -41.65 -23.4 -39.35 -26.7 -33.5 -30.65 -33.5 L-33.65 -34.15 -36.65 -34.9 Q-33.0 -36.7 -30.05 -40.3 -28.4 -42.35 -27.15 -44.65 L-27.05 -44.85 -25.85 -46.65 Q-25.25 -47.9 -24.85 -49.6 L-24.35 -52.9 M5.25 -7.35 Q8.8 -7.05 11.6 -5.55 14.4 -4.1 15.25 -2.1 L17.05 1.75 Q18.05 4.1 18.05 5.9 15.3 4.95 12.3 5.1 10.05 5.2 6.95 6.05 L1.65 7.45 Q-1.4 8.25 -3.8 8.25 -6.25 8.25 -8.0 7.4 -9.75 6.55 -10.5 5.2 -11.35 3.75 -11.0 2.05 -10.7 0.25 -9.2 -1.5 -6.35 -4.95 -2.25 -6.4 1.3 -7.75 5.25 -7.35" fill="#990000" fill-rule="evenodd" stroke="none"/>
    </g>
  </defs>
</svg>
