<?xml version="1.0" encoding="UTF-8" standalone="no"?>
<svg xmlns:xlink="http://www.w3.org/1999/xlink" height="77.3px" width="68.1px" xmlns="http://www.w3.org/2000/svg">
  <g transform="matrix(1.0, 0.0, 0.0, 1.0, 34.3, 38.1)">
    <path d="M20.0 6.2 Q-1.65 0.25 -20.35 5.75 L-22.35 6.35 -20.4 4.95 Q-14.2 0.6 -5.3 -1.5 -0.4 -0.15 4.0 -1.3 L4.1 -1.35 Q13.35 1.5 20.05 5.4 L20.0 6.2 M20.1 4.4 Q12.65 0.25 4.5 -2.25 4.85 -3.85 3.75 -6.1 L0.95 -4.4 3.25 -4.55 Q3.8 -3.4 3.4 -2.2 -0.45 -1.25 -4.7 -2.4 L-3.55 -10.55 -5.75 -2.45 Q-13.15 -0.65 -20.5 3.8 L-22.45 -21.75 Q-12.55 -25.65 -1.95 -18.25 L-1.6 -18.15 -1.25 -18.25 Q11.1 -26.3 27.55 -19.15 L27.85 -19.1 Q32.3 5.2 30.2 26.9 19.65 32.6 0.1 35.3 -10.25 33.4 -18.45 30.75 L-20.25 7.1 Q-1.05 1.0 19.95 7.45 L18.65 28.8 28.9 25.6 Q30.5 6.75 26.85 -18.0 L21.45 -20.25 20.1 4.4 M-29.25 26.4 L-30.6 25.7 Q-32.15 4.0 -27.85 -18.9 L-27.5 -19.0 -27.1 -19.3 Q-30.85 5.65 -29.25 26.4 M1.1 14.9 Q2.1 13.35 1.05 11.95 -0.65 9.6 -2.25 11.15 L-2.85 11.8 Q-2.55 11.8 -1.65 12.3 0.55 13.5 0.15 15.15 -0.05 16.0 -0.95 16.95 L1.1 14.9" fill="#3399ff" fill-rule="evenodd" stroke="none"/>
    <path d="M22.9 -25.25 L27.1 -23.55 Q27.7 -27.1 25.75 -34.2 16.15 -36.2 -2.6 -36.2 L23.8 -32.2 Q22.95 -27.6 22.9 -25.25 M20.05 5.4 Q13.35 1.5 4.1 -1.35 L4.0 -1.3 Q-0.4 -0.15 -5.3 -1.5 -14.2 0.6 -20.4 4.95 L-22.35 6.35 -20.35 5.75 Q-1.65 0.25 20.0 6.2 L22.5 6.9 20.05 5.4 M-20.5 3.8 Q-13.15 -0.65 -5.75 -2.45 L-3.55 -10.55 -4.7 -2.4 Q-0.45 -1.25 3.4 -2.2 3.8 -3.4 3.25 -4.55 L0.95 -4.4 3.75 -6.1 Q4.85 -3.85 4.5 -2.25 12.65 0.25 20.1 4.4 23.6 6.3 27.0 8.65 L26.9 8.4 27.0 8.6 27.1 9.15 27.0 8.8 Q27.65 13.25 24.85 13.8 26.15 12.65 26.15 9.65 23.0 8.4 19.95 7.45 -1.05 1.0 -20.25 7.1 L-25.35 8.95 Q-25.75 10.05 -24.25 11.8 -26.6 12.05 -26.35 7.75 L-20.5 3.8 M-18.45 30.75 Q-10.25 33.4 0.1 35.3 19.65 32.6 30.2 26.9 32.3 5.2 27.85 -19.1 L27.55 -19.15 Q11.1 -26.3 -1.25 -18.25 L-1.6 -18.15 -1.95 -18.25 Q-12.55 -25.65 -22.45 -21.75 L-27.1 -19.3 -27.5 -19.0 -27.85 -18.9 Q-32.15 4.0 -30.6 25.7 L-29.25 26.4 Q-24.4 28.8 -18.45 30.75 M1.1 14.9 L-0.95 16.95 Q-0.05 16.0 0.15 15.15 0.55 13.5 -1.65 12.3 -2.55 11.8 -2.85 11.8 L-2.25 11.15 Q-0.65 9.6 1.05 11.95 2.1 13.35 1.1 14.9 M33.8 28.4 Q21.85 35.9 0.7 39.2 -21.95 34.1 -34.3 26.7 -34.25 -5.85 -28.95 -37.15 0.0 -39.3 28.25 -36.6 34.0 -8.25 33.8 28.4" fill="#000033" fill-rule="evenodd" stroke="none"/>
    <path d="M22.9 -25.25 Q22.95 -27.6 23.8 -32.2 L-2.6 -36.2 Q16.15 -36.2 25.75 -34.2 27.7 -27.1 27.1 -23.55 L22.9 -25.25" fill="#ccffff" fill-rule="evenodd" stroke="none"/>
    <path d="M20.05 5.4 L22.5 6.9 20.0 6.2 20.05 5.4 M19.95 7.45 Q23.0 8.4 26.15 9.65 26.15 12.65 24.85 13.8 27.65 13.25 27.0 8.8 L27.1 9.15 27.0 8.6 26.9 8.4 27.0 8.65 Q23.6 6.3 20.1 4.4 L21.45 -20.25 26.85 -18.0 Q30.5 6.75 28.9 25.6 L18.65 28.8 19.95 7.45" fill="#66ccff" fill-rule="evenodd" stroke="none"/>
    <path d="M-20.5 3.8 L-26.35 7.75 Q-26.6 12.05 -24.25 11.8 -25.75 10.05 -25.35 8.95 L-20.25 7.1 -18.45 30.75 Q-24.4 28.8 -29.25 26.4 -30.85 5.65 -27.1 -19.3 L-22.45 -21.75 -20.5 3.8" fill="#3366ff" fill-rule="evenodd" stroke="none"/>
  </g>
</svg>
