<?xml version="1.0" encoding="UTF-8" standalone="no"?>
<svg xmlns:xlink="http://www.w3.org/1999/xlink" height="275.3px" width="765.85px" xmlns="http://www.w3.org/2000/svg">
  <g transform="matrix(1.0, 0.0, 0.0, 1.0, 1.75, 2.7)">
    <path d="M328.0 -0.5 L329.4 -0.9 484.6 -0.9 484.0 -2.7 764.1 -2.7 714.2 175.9 635.75 161.25 636.25 155.6 645.85 157.35 Q648.5 154.05 646.65 142.0 642.65 138.5 640.25 139.0 637.9 139.45 637.15 136.3 L635.95 132.1 634.3 132.05 Q633.1 132.95 633.9 128.2 634.7 123.45 628.6 127.55 L631.1 159.05 630.6 159.15 Q594.7 190.65 553.7 217.0 L553.15 217.2 553.1 217.2 545.3 196.45 Q514.95 183.6 484.15 181.35 L483.45 178.45 440.85 170.3 Q437.9 158.3 449.5 140.55 L458.8 140.25 427.4 112.1 431.65 107.85 428.3 105.85 436.15 85.95 421.05 69.15 425.6 62.55 414.45 49.15 405.05 62.2 409.8 69.8 394.5 88.7 401.5 107.7 399.75 110.5 402.65 114.45 402.35 114.65 375.4 144.6 380.05 144.3 Q390.8 154.35 390.4 168.95 L341.6 179.35 273.45 272.6 Q258.95 251.1 220.9 232.0 201.9 184.8 173.7 165.9 L173.3 161.45 182.65 162.3 Q191.6 167.25 200.95 176.35 207.55 182.7 209.6 184.15 210.5 184.7 213.35 180.95 216.15 177.2 218.25 168.65 220.35 160.05 219.5 152.1 219.15 149.3 218.3 146.1 216.7 140.2 213.2 133.05 212.05 137.3 201.25 144.85 190.45 152.35 181.5 153.8 L172.5 153.7 169.75 125.65 184.05 124.6 184.05 -0.5 328.0 -0.5 M523.7 -0.9 L484.6 -0.9 523.7 -0.9 M166.35 131.25 L158.9 134.4 154.25 127.5 154.35 127.45 165.9 126.7 166.35 131.25 M167.9 147.6 L161.85 138.7 166.85 136.45 167.9 147.6 M164.25 158.3 Q158.95 153.25 152.2 152.4 L147.9 147.0 147.75 145.05 158.75 140.1 168.5 153.9 168.9 158.15 164.25 158.3 M96.3 85.3 Q75.7 90.4 76.8 109.85 L-1.75 56.45 -1.75 -0.5 122.4 -0.5 122.4 56.7 Q119.7 68.8 117.35 81.25 102.7 72.4 96.3 85.3 M136.9 129.35 L132.15 133.65 128.75 127.65 129.55 123.6 136.9 129.35 M127.85 145.5 L132.2 141.25 137.05 153.05 128.7 153.15 127.85 145.5 M134.4 138.45 L140.4 131.8 139.35 147.15 134.4 138.45 M150.05 127.7 L155.7 135.75 147.4 139.25 146.75 127.95 150.05 127.7 M106.7 130.5 L106.55 141.9 94.15 141.35 89.85 137.8 Q86.15 127.15 90.7 127.75 94.15 127.15 94.95 128.1 95.7 128.95 98.75 129.25 L106.7 130.5" fill="#00ffff" fill-rule="evenodd" stroke="none"/>
    <path d="M328.0 -0.5 L329.4 -0.9 484.6 -0.9 523.7 -0.9" fill="none" stroke="#ff0000" stroke-linecap="round" stroke-linejoin="round" stroke-width="0.05"/>
  </g>
</svg>
