<?xml version="1.0" encoding="UTF-8" standalone="no"?>
<svg xmlns:xlink="http://www.w3.org/1999/xlink" height="43.45px" width="106.95px" xmlns="http://www.w3.org/2000/svg">
  <g transform="matrix(1.0, 0.0, 0.0, 1.0, 53.45, 21.7)">
    <path d="M14.75 -20.7 L16.6 -19.45 Q17.35 -18.6 17.6 -17.5 L17.9 -13.75 18.1 -10.8 18.25 -7.1 Q18.15 -6.0 17.55 -5.05 16.95 -4.1 15.9 -3.55 14.8 -3.0 13.35 -2.9 L10.85 -3.2 Q9.7 -3.6 8.95 -4.45 8.25 -5.3 8.05 -6.4 7.8 -7.45 7.65 -10.15 L7.45 -13.1 7.4 -16.8 Q7.4 -17.9 8.0 -18.85 8.6 -19.8 9.65 -20.35 10.75 -20.9 12.25 -20.95 L14.75 -20.7 M11.85 -16.15 L12.35 -8.05 12.55 -6.15 Q12.75 -5.8 13.2 -5.8 13.65 -5.85 13.7 -6.3 L13.75 -8.2 13.25 -16.2 13.0 -17.75 Q12.9 -18.05 12.45 -18.05 L11.9 -17.75 Q11.75 -17.5 11.85 -16.15 M6.35 -20.25 L3.75 -9.0 4.15 -2.7 0.0 -2.45 -0.4 -8.75 -4.3 -19.6 -0.15 -19.85 Q1.2 -14.85 1.4 -13.05 L2.2 -20.0 6.35 -20.25 M19.7 -10.8 L19.05 -21.05 23.55 -21.35 24.4 -8.35 24.55 -6.9 25.1 -6.55 Q25.55 -6.6 25.6 -6.95 L25.65 -8.6 24.85 -21.4 29.35 -21.7 30.1 -10.1 30.1 -7.35 Q30.05 -6.55 29.45 -5.65 L27.9 -4.25 Q26.85 -3.75 25.45 -3.7 L22.7 -4.0 Q21.5 -4.45 20.85 -5.25 20.2 -6.0 20.05 -6.9 L19.7 -10.8 M53.35 5.7 L53.45 7.45 53.4 9.35 Q53.2 10.1 52.45 10.65 51.8 11.25 50.8 11.3 49.5 11.4 48.85 10.45 L48.95 12.0 45.6 12.2 45.35 8.3 48.6 8.1 Q48.65 8.9 49.25 8.85 L49.75 8.45 49.75 6.7 49.6 4.35 49.45 3.3 Q49.3 3.0 48.95 3.05 48.55 3.05 48.5 3.5 L48.5 5.1 48.55 5.95 45.0 6.15 Q44.9 4.25 45.15 3.4 45.35 2.5 46.35 1.8 47.3 1.1 48.85 1.0 L50.8 1.2 Q51.65 1.5 52.2 2.15 L52.95 3.45 Q53.25 4.15 53.35 5.7 M45.8 15.75 L45.6 12.9 48.95 12.7 49.15 15.55 45.8 15.75 M44.05 15.85 L40.4 16.1 40.05 10.15 38.95 10.2 39.3 16.15 35.6 16.4 34.7 2.2 38.4 1.95 38.75 7.05 39.85 7.0 39.5 1.9 43.15 1.65 44.05 15.85 M33.6 6.85 L33.65 7.5 29.95 7.75 29.85 6.45 29.65 4.9 Q29.55 4.6 29.15 4.65 28.8 4.65 28.7 4.95 28.6 5.25 28.65 6.35 L29.05 13.15 29.3 14.35 29.8 14.65 Q30.2 14.6 30.35 14.25 L30.4 12.9 30.3 11.25 29.55 11.3 29.4 9.15 33.7 8.85 34.2 16.45 31.9 16.6 31.5 15.65 30.6 16.65 29.25 17.1 27.5 16.75 Q26.65 16.35 26.15 15.7 L25.6 14.35 25.35 12.15 25.1 7.9 Q24.95 5.9 25.1 4.95 25.25 4.05 26.25 3.2 27.25 2.35 28.9 2.25 30.5 2.15 31.65 2.8 32.75 3.35 33.15 4.25 L33.6 6.85 M22.2 17.15 L20.2 17.65 17.95 17.4 16.4 16.35 Q15.9 15.7 15.75 14.95 L15.5 11.8 14.95 3.4 18.6 3.2 19.3 13.85 Q19.35 14.8 19.5 15.0 L19.9 15.25 20.35 14.9 20.35 13.55 19.7 3.1 23.35 2.9 23.95 12.4 24.0 14.65 23.5 16.0 22.2 17.15 M14.15 11.85 L14.2 14.9 Q14.2 15.8 13.7 16.5 L12.35 17.75 10.25 18.3 8.2 18.05 6.7 17.0 Q6.1 16.3 5.9 15.45 L5.65 12.35 5.5 9.95 5.4 6.9 Q5.45 6.0 5.9 5.25 6.4 4.5 7.25 4.05 8.15 3.55 9.35 3.5 L11.4 3.75 Q12.35 4.05 12.95 4.75 L13.7 6.35 14.0 9.45 14.15 11.85 M9.1 6.15 Q8.9 6.4 9.0 7.5 L9.4 14.15 9.65 15.6 Q9.7 15.9 10.1 15.9 L10.55 15.5 10.6 13.95 10.2 7.4 9.95 6.15 Q9.85 5.85 9.5 5.9 9.25 5.9 9.1 6.15 M3.7 4.15 L4.6 18.35 1.35 18.55 -1.0 12.2 -0.6 18.65 -3.65 18.85 -4.55 4.65 -1.5 4.45 1.0 10.75 0.6 4.35 3.7 4.15 M-20.9 -15.35 L-17.35 -15.4 Q-16.4 -15.25 -15.75 -14.45 -15.1 -13.65 -15.0 -11.8 -14.9 -10.15 -15.3 -9.6 -15.65 -8.95 -16.85 -8.8 -15.75 -8.6 -15.35 -8.2 L-14.8 -7.35 -14.6 -5.25 -14.35 -1.5 -17.8 -1.3 -18.1 -6.0 Q-18.15 -7.15 -18.4 -7.45 L-19.3 -7.65 -18.9 -1.25 -22.6 -1.0 -23.5 -15.2 -20.9 -15.35 M-28.65 -3.2 L-28.75 -0.65 -32.55 -0.4 -31.6 -14.7 -26.25 -15.05 -23.25 -1.0 -27.0 -0.75 -27.35 -3.3 -28.65 -3.2 M-28.55 -11.7 L-28.85 -5.7 -27.6 -5.75 -28.55 -11.7 M-7.45 -13.35 L-9.9 -13.2 -9.75 -10.5 -7.45 -10.6 -7.25 -7.9 -9.55 -7.8 -9.4 -4.7 -6.7 -4.85 -6.5 -2.0 -12.9 -1.6 -13.8 -15.8 -7.65 -16.2 -7.45 -13.35 M-19.65 -13.0 L-19.45 -9.85 Q-18.85 -9.85 -18.6 -10.05 -18.35 -10.25 -18.4 -11.2 L-18.45 -11.95 Q-18.5 -12.65 -18.75 -12.85 L-19.65 -13.0 M-5.65 10.3 L-5.45 13.0 -7.75 13.1 -7.6 16.2 -4.9 16.05 -4.7 18.9 -11.1 19.3 -12.0 5.1 -5.85 4.7 -5.65 7.55 -8.1 7.7 -7.95 10.4 -5.65 10.3 M-16.65 5.4 L-15.75 19.6 -19.0 19.8 -21.35 13.45 -20.95 19.9 -24.0 20.1 -24.9 5.9 -21.85 5.7 -19.35 12.0 -19.75 5.6 -16.65 5.4 M-25.9 11.95 L-25.75 14.35 -25.7 17.4 Q-25.7 18.3 -26.2 19.0 -26.7 19.8 -27.55 20.25 L-29.65 20.8 -31.7 20.55 -33.2 19.5 Q-33.8 18.8 -34.0 17.95 L-34.25 14.85 -34.4 12.45 -34.5 9.4 Q-34.45 8.5 -34.0 7.75 -33.5 7.0 -32.65 6.55 -31.75 6.05 -30.55 6.0 L-28.5 6.25 Q-27.55 6.55 -26.95 7.25 -26.35 8.0 -26.2 8.85 L-25.9 11.95 M-29.95 8.65 Q-30.05 8.35 -30.4 8.4 L-30.8 8.65 -30.9 10.0 -30.5 16.65 -30.25 18.1 -29.8 18.4 -29.35 18.0 Q-29.2 17.7 -29.3 16.45 L-29.7 9.9 Q-29.75 8.9 -29.95 8.65 M-40.2 9.0 L-40.6 9.25 -40.7 10.6 -40.3 17.25 -40.05 18.7 -39.6 19.0 -39.15 18.6 Q-39.0 18.3 -39.1 17.05 L-39.5 10.5 Q-39.55 9.5 -39.75 9.25 -39.85 8.95 -40.2 9.0 M-36.75 7.85 Q-36.15 8.6 -36.0 9.45 L-35.7 12.55 -35.55 14.95 -35.5 18.0 Q-35.5 18.9 -36.0 19.6 -36.5 20.4 -37.35 20.85 -38.25 21.3 -39.45 21.4 L-41.5 21.15 -43.0 20.1 Q-43.6 19.4 -43.8 18.55 L-44.05 15.45 -44.2 13.05 -44.3 10.0 Q-44.25 9.1 -43.8 8.35 L-42.45 7.15 Q-41.55 6.65 -40.35 6.6 L-38.3 6.85 Q-37.35 7.15 -36.75 7.85 M-47.35 10.2 L-46.65 21.55 -50.35 21.75 -51.05 10.4 -53.25 10.55 -53.45 7.7 -45.4 7.2 -45.2 10.05 -47.35 10.2" fill="#333333" fill-rule="evenodd" stroke="none"/>
  </g>
</svg>
