<?xml version="1.0" encoding="UTF-8" standalone="no"?>
<svg xmlns:xlink="http://www.w3.org/1999/xlink" height="98.55px" width="94.35px" xmlns="http://www.w3.org/2000/svg">
  <g transform="matrix(1.0, 0.0, 0.0, 1.0, 91.4, 47.5)">
    <path d="M-6.0 50.95 L-6.65 48.75 -11.0 38.65 -8.8 36.05 Q-13.5 25.15 -18.25 19.15 -20.9 15.75 -24.75 14.55 L-30.15 13.25 Q-31.2 10.35 -34.2 9.45 -31.55 8.6 -29.95 7.8 -25.9 5.6 -23.85 -1.0 -21.85 -3.4 -20.85 -6.7 -19.9 -9.55 -20.1 -11.15 -20.5 -13.55 -22.05 -15.85 -23.25 -17.5 -24.45 -18.0 -24.45 -20.0 -24.75 -22.0 -25.25 -25.15 -26.4 -27.9 L-25.45 -28.5 Q-15.2 -8.75 -16.3 15.2 -14.0 17.9 -10.95 16.9 -2.55 -10.7 -22.35 -33.9 -25.2 -32.05 -27.95 -30.95 -30.25 -34.75 -34.05 -37.6 -36.95 -39.85 -40.1 -41.0 -45.3 -42.9 -51.2 -42.0 L-55.9 -40.75 Q-62.1 -38.45 -66.2 -32.55 -69.0 -28.65 -70.0 -24.25 L-76.65 -25.35 Q-88.15 1.9 -73.0 25.0 L-72.85 27.5 -77.05 33.4 -75.25 35.15 -85.7 43.65 -85.35 43.75 -85.4 43.8 -91.4 43.2 -83.15 -47.5 2.95 -39.7 -5.25 51.05 -6.0 50.95 M-68.4 45.3 L-69.5 44.8 -70.25 44.3 -71.85 42.95 -71.1 42.5 Q-69.7 41.55 -69.1 39.9 L-68.65 40.6 -67.45 42.2 -66.0 43.65 -64.5 44.7 Q-63.85 45.1 -63.15 45.45 L-62.85 45.6 -68.4 45.3 M-53.55 46.65 L-51.4 46.35 Q-49.5 45.95 -47.9 45.35 -45.6 44.5 -43.95 43.1 L-44.15 45.35 -44.35 47.5 -53.55 46.65 M-43.4 47.6 L-42.9 42.15 -41.5 40.15 Q-40.65 40.7 -39.75 39.4 -38.95 38.15 -39.2 37.0 L-39.7 35.9 Q-40.05 35.45 -40.45 35.3 L-40.55 33.9 Q-40.0 33.6 -39.35 32.25 -38.55 30.55 -38.55 28.85 -38.55 27.6 -39.0 26.55 L-38.85 26.55 -37.95 26.45 Q-36.45 26.3 -35.25 25.15 L-34.95 24.8 Q-33.9 23.45 -33.65 22.0 -33.3 18.75 -35.95 17.3 L-34.6 16.3 Q-32.55 14.75 -30.75 13.95 L-25.0 15.25 Q-21.35 16.5 -18.9 19.65 -15.85 23.6 -13.15 28.7 L-11.55 32.0 Q-13.7 36.1 -17.4 37.95 L-18.8 36.35 -22.3 32.8 Q-23.9 31.2 -25.95 30.3 L-26.7 28.75 -24.5 34.25 -24.15 35.75 Q-23.4 38.85 -23.2 42.0 L-23.05 45.25 -23.45 49.3 -23.5 49.4 -43.4 47.6 M-20.55 49.6 L-21.1 45.2 -21.4 43.25 -20.3 43.7 -17.7 49.9 -20.55 49.6 M-53.7 -13.7 L-55.5 -12.0 Q-57.0 -10.45 -57.95 -8.55 -59.15 -6.1 -60.6 -3.8 L-61.85 -2.4 -63.35 -1.55 -64.7 -1.35 Q-65.6 -1.45 -66.3 -1.9 -68.75 -3.55 -68.55 -6.35 -68.55 -6.8 -68.15 -6.85 L-66.0 -6.7 Q-65.0 -6.35 -64.05 -5.7 L-63.8 -5.5 -63.65 -5.4 -63.5 -5.45 Q-62.85 -6.2 -62.45 -7.2 L-61.6 -9.1 -60.8 -10.5 Q-59.85 -9.4 -59.8 -10.75 -59.8 -11.25 -60.1 -11.6 L-59.95 -11.85 -59.9 -11.85 Q-58.65 -13.6 -56.5 -14.85 L-53.7 -13.7 M-38.15 -17.9 L-33.55 -15.6 Q-34.7 -15.5 -34.25 -14.25 -33.9 -13.25 -33.3 -14.2 -33.0 -14.85 -33.3 -15.4 L-32.8 -15.05 -31.95 -14.35 Q-30.7 -13.1 -29.2 -12.35 -27.8 -11.6 -27.4 -13.5 -27.0 -15.35 -25.3 -16.7 L-23.35 -14.9 Q-21.9 -13.2 -22.85 -12.15 -24.5 -9.55 -26.5 -8.4 L-27.65 -7.85 -28.8 -7.55 Q-28.55 -7.7 -28.45 -8.25 -28.35 -9.2 -28.95 -9.3 -29.65 -9.45 -29.8 -8.5 -30.0 -7.6 -29.3 -7.45 -31.3 -7.4 -33.15 -9.65 L-35.85 -12.75 -36.45 -13.35 -37.1 -13.9 -39.85 -15.45 Q-38.8 -16.4 -38.15 -17.6 L-38.15 -17.9 M-57.4 -12.4 Q-57.9 -13.45 -58.5 -13.1 -59.05 -12.85 -58.55 -11.8 -58.1 -10.8 -57.45 -11.0 -56.95 -11.4 -57.4 -12.4 M-70.5 -20.85 Q-70.75 -18.0 -70.25 -14.9 -69.75 -11.6 -68.5 -8.7 L-68.75 -8.6 Q-69.9 -7.95 -70.2 -6.0 -70.55 -4.35 -70.15 -1.75 -69.85 0.15 -68.55 2.1 -66.85 4.65 -64.1 6.2 L-62.45 7.4 Q-65.05 9.0 -67.95 12.6 L-69.95 15.45 Q-75.15 -3.05 -72.05 -21.25 L-70.5 -20.85 M-61.7 -6.55 Q-61.15 -5.4 -60.55 -5.7 -60.1 -5.95 -60.65 -7.05 -61.15 -8.2 -61.7 -7.9 -62.2 -7.65 -61.7 -6.55 M-62.9 -3.1 Q-62.5 -2.3 -62.0 -2.65 -61.45 -2.95 -61.85 -3.8 -62.25 -4.65 -62.75 -4.3 -63.3 -4.0 -62.9 -3.1 M-57.25 22.35 L-53.8 24.45 Q-50.2 26.1 -46.35 25.2 L-43.8 24.25 -41.95 24.75 -41.25 25.1 -40.45 25.8 -39.85 26.75 -40.35 26.9 -43.55 27.55 -46.65 27.65 -49.75 27.3 -52.6 26.4 -55.5 24.75 Q-56.85 23.8 -57.25 22.35 M-54.6 36.45 Q-51.75 37.6 -47.8 36.95 -44.75 36.4 -43.05 35.2 L-42.15 34.25 -41.95 34.05 -41.65 35.55 -41.6 36.0 -41.6 36.5 -41.6 36.95 -41.75 38.0 -42.6 38.35 Q-44.2 39.1 -45.9 39.0 L-49.05 38.55 -52.0 37.9 Q-53.5 37.55 -54.6 36.45 M-39.6 17.4 L-37.95 17.95 Q-37.0 18.2 -36.1 18.75 -35.2 19.25 -34.85 20.3 -34.6 21.25 -34.9 22.2 -35.2 23.05 -35.9 23.65 L-37.35 24.8 Q-38.15 25.25 -39.1 25.3 L-39.15 25.2 Q-39.7 24.45 -40.5 24.05 L-42.4 23.1 -42.2 22.95 -41.15 21.55 Q-40.15 19.55 -39.6 17.4 M-37.4 -15.25 Q-37.65 -14.15 -36.9 -13.95 -36.2 -13.9 -35.95 -15.0 -35.8 -16.2 -36.45 -16.25 -37.25 -16.4 -37.4 -15.25 M-32.2 -11.2 Q-32.4 -10.0 -31.75 -9.9 -31.1 -9.8 -30.9 -11.05 -30.7 -12.25 -31.3 -12.35 -32.0 -12.5 -32.2 -11.2 M-16.9 38.6 Q-13.55 36.75 -11.2 32.75 L-10.65 33.85 Q-12.05 36.6 -15.2 38.65 L-16.4 39.35 -16.9 38.6 M-15.9 40.05 Q-12.6 38.35 -10.4 34.5 L-9.8 35.9 Q-12.75 39.6 -15.2 41.3 L-15.9 40.05 M-74.7 34.65 L-76.0 33.35 -75.2 32.2 -74.35 33.25 -74.7 34.65 M-72.7 28.75 L-72.55 29.5 -73.15 30.5 -73.6 29.95 -72.7 28.75 M-74.0 30.7 L-73.5 31.25 -74.05 32.45 -74.7 31.65 -74.0 30.7" fill="#cccccc" fill-rule="evenodd" stroke="none"/>
    <path d="M-85.4 43.8 L-85.35 43.75 -85.7 43.65 -75.25 35.15 -77.05 33.4 -72.85 27.5 -73.0 25.0 Q-88.15 1.9 -76.65 -25.35 L-70.0 -24.25 Q-69.0 -28.65 -66.2 -32.55 -62.1 -38.45 -55.9 -40.75 L-51.2 -42.0 Q-45.3 -42.9 -40.1 -41.0 -36.95 -39.85 -34.05 -37.6 -30.25 -34.75 -27.95 -30.95 -25.2 -32.05 -22.35 -33.9 -2.55 -10.7 -10.95 16.9 -14.0 17.9 -16.3 15.2 -15.2 -8.75 -25.45 -28.5 L-26.4 -27.9 Q-25.25 -25.15 -24.75 -22.0 -24.45 -20.0 -24.45 -18.0 -23.25 -17.5 -22.05 -15.85 -20.5 -13.55 -20.1 -11.15 -19.9 -9.55 -20.85 -6.7 -21.85 -3.4 -23.85 -1.0 -25.9 5.6 -29.95 7.8 -31.55 8.6 -34.2 9.45 -31.2 10.35 -30.15 13.25 L-24.75 14.55 Q-20.9 15.75 -18.25 19.15 -13.5 25.15 -8.8 36.05 L-11.0 38.65 -6.65 48.75 -6.0 50.95 -6.9 50.9 -7.45 49.0 -11.65 39.3 -14.8 42.15 Q-17.15 43.85 -19.2 43.85 L-18.75 45.2 -16.75 50.0 -17.7 49.9 -20.3 43.7 -21.4 43.25 -21.1 45.2 -20.55 49.6 -21.4 49.55 -21.9 45.2 -22.2 43.35 -22.35 41.8 Q-22.7 39.15 -24.5 34.25 L-26.7 28.75 -25.95 30.3 -24.65 32.95 Q-23.0 36.6 -22.05 39.3 -19.5 38.95 -17.4 37.95 -13.7 36.1 -11.55 32.0 L-13.15 28.7 Q-15.85 23.6 -18.9 19.65 -21.35 16.5 -25.0 15.25 L-30.75 13.95 Q-32.55 14.75 -34.6 16.3 L-35.95 17.3 Q-33.3 18.75 -33.65 22.0 -33.9 23.45 -34.95 24.8 L-35.25 25.15 Q-36.45 26.3 -37.95 26.45 L-38.85 26.55 -39.0 26.55 Q-38.55 27.6 -38.55 28.85 -38.55 30.55 -39.35 32.25 -40.0 33.6 -40.55 33.9 L-40.45 35.3 Q-40.05 35.45 -39.7 35.9 L-39.2 37.0 Q-38.95 38.15 -39.75 39.4 -40.65 40.7 -41.5 40.15 L-42.9 42.15 -43.4 47.6 -44.35 47.5 -44.15 45.35 -43.95 43.1 Q-45.6 44.5 -47.9 45.35 -49.5 45.95 -51.4 46.35 L-53.55 46.65 -62.85 45.6 -63.15 45.45 Q-63.85 45.1 -64.5 44.7 L-66.0 43.65 -67.45 42.2 -68.65 40.6 -69.1 39.9 -70.1 37.9 -71.2 34.75 -72.3 30.95 -73.05 32.6 -73.6 34.4 -73.95 36.1 -74.0 37.7 -73.65 39.65 -72.9 41.5 -71.85 42.95 -70.25 44.3 -69.5 44.8 -68.4 45.3 -70.8 45.05 -71.05 44.9 -72.8 43.35 -73.65 42.05 Q-74.9 39.85 -74.95 37.45 L-84.3 43.9 -85.4 43.8 M-62.05 -33.65 L-62.8 -33.1 -62.2 -34.05 -61.45 -34.9 Q-60.1 -35.45 -58.25 -34.95 -57.4 -34.75 -56.2 -32.6 -58.4 -35.05 -60.65 -34.4 L-62.05 -33.65 M-43.1 -37.15 Q-41.55 -38.35 -40.1 -38.35 -39.6 -38.35 -39.05 -37.85 L-38.2 -37.2 -39.05 -37.4 -40.65 -37.55 Q-43.0 -37.3 -44.05 -34.2 -43.8 -36.65 -43.1 -37.15 M-51.05 -41.2 Q-53.75 -40.75 -56.05 -39.8 -61.75 -37.55 -65.5 -32.1 -68.2 -28.4 -69.15 -24.2 L-69.3 -23.55 -69.4 -22.9 -69.7 -20.65 Q-69.9 -17.95 -69.4 -15.05 -68.95 -11.75 -67.7 -8.9 -66.0 -9.1 -64.1 -7.35 -63.05 -9.9 -61.4 -12.15 -63.9 -14.65 -65.05 -18.6 -66.25 -23.0 -65.1 -26.75 -63.85 -30.7 -60.6 -31.65 -57.35 -32.55 -54.25 -29.75 -52.55 -28.25 -51.35 -26.1 L-48.7 -26.85 -45.55 -26.9 Q-45.15 -29.35 -43.85 -31.4 -41.75 -35.0 -38.4 -35.05 -35.05 -35.15 -32.7 -31.85 -30.45 -28.6 -30.25 -24.05 -30.15 -19.55 -32.1 -16.15 L-29.1 -13.8 -28.25 -15.95 Q-27.4 -18.05 -25.95 -18.25 L-25.25 -18.25 -25.55 -21.9 Q-26.05 -24.9 -27.1 -27.45 L-28.0 -29.4 -28.35 -30.05 -28.7 -30.65 Q-30.9 -34.25 -34.55 -36.95 -37.3 -39.05 -40.25 -40.15 -45.3 -42.1 -51.05 -41.2 M-38.35 -34.2 Q-41.25 -34.15 -43.15 -30.95 -44.3 -29.05 -44.7 -26.7 -42.5 -26.15 -40.75 -24.3 L-40.7 -24.45 Q-40.25 -26.25 -39.15 -27.3 -38.05 -28.4 -36.85 -28.1 -35.7 -27.8 -35.15 -26.35 -34.7 -24.9 -35.15 -23.1 -35.6 -21.3 -36.7 -20.25 -37.5 -19.55 -38.25 -19.45 L-38.25 -19.3 -37.45 -19.0 Q-35.05 -18.0 -32.8 -16.55 -30.95 -19.7 -31.05 -23.95 -31.25 -28.4 -33.3 -31.3 -35.45 -34.3 -38.35 -34.2 M-44.9 -24.7 L-42.9 -24.7 -44.85 -25.4 -45.7 -25.55 Q-48.3 -25.95 -50.7 -24.6 L-51.45 -24.15 -53.8 -22.0 Q-52.55 -22.85 -51.2 -23.4 L-50.35 -23.7 Q-48.25 -24.45 -45.75 -24.6 L-44.9 -24.7 M-39.95 -23.4 L-39.45 -22.65 -39.0 -22.95 -39.95 -23.4 M-54.85 -29.1 Q-57.65 -31.55 -60.4 -30.75 -63.15 -29.95 -64.35 -26.5 -65.45 -23.05 -64.3 -18.8 -63.2 -15.1 -60.9 -12.8 L-57.75 -15.95 -57.0 -16.6 -56.95 -16.75 -57.25 -16.9 -57.5 -17.05 -57.95 -17.4 -57.35 -19.45 -59.3 -18.95 -59.6 -19.6 Q-60.35 -21.25 -60.1 -22.8 -59.95 -24.35 -58.85 -24.85 -57.75 -25.35 -56.5 -24.5 L-55.1 -23.15 Q-53.95 -24.75 -52.15 -25.7 -53.25 -27.7 -54.85 -29.1 M-39.85 -15.45 L-41.15 -14.5 -42.0 -14.1 Q-43.55 -13.4 -45.5 -13.05 -48.1 -12.65 -50.65 -13.05 L-51.55 -13.2 -53.7 -13.7 -56.5 -14.85 -56.9 -15.05 -56.95 -15.85 -57.75 -15.15 -60.5 -12.4 -61.0 -11.75 Q-62.85 -9.25 -63.8 -6.3 -65.85 -8.35 -67.4 -8.3 L-67.75 -8.25 -68.25 -8.15 -68.65 -7.9 Q-70.35 -6.75 -69.55 -1.85 -69.3 -0.15 -68.05 1.75 -66.4 4.1 -63.7 5.65 L-61.9 7.1 Q-60.8 6.55 -59.75 6.35 -56.3 5.75 -53.15 7.6 -49.85 6.8 -45.6 8.4 -43.35 9.25 -41.95 10.65 L-41.9 10.65 -37.0 9.65 -35.15 9.2 -30.55 7.45 Q-26.4 5.25 -24.35 -1.4 -22.4 -3.65 -21.4 -6.9 -20.45 -9.6 -20.7 -11.05 -21.05 -13.3 -22.5 -15.5 -23.5 -16.85 -24.45 -17.35 L-25.25 -17.65 -25.85 -17.65 Q-27.0 -17.5 -27.7 -15.65 L-28.95 -12.9 Q-30.6 -14.45 -32.4 -15.65 L-33.05 -16.05 Q-35.15 -17.35 -37.3 -18.3 L-38.15 -18.65 -38.15 -17.9 -38.15 -17.6 Q-38.8 -16.4 -39.85 -15.45 M-70.5 -20.85 L-72.05 -21.25 Q-75.15 -3.05 -69.95 15.45 L-67.95 12.6 Q-65.05 9.0 -62.45 7.4 L-64.1 6.2 Q-66.85 4.65 -68.55 2.1 -69.85 0.15 -70.15 -1.75 -70.55 -4.35 -70.2 -6.0 -69.9 -7.95 -68.75 -8.6 L-68.5 -8.7 Q-69.75 -11.6 -70.25 -14.9 -70.75 -18.0 -70.5 -20.85 M-70.1 -23.6 Q-73.05 -23.75 -76.3 -24.65 -83.55 -7.15 -79.65 8.35 -83.1 -7.25 -76.1 -24.05 L-71.3 -23.0 -70.25 -22.85 -70.1 -23.6 M-57.25 22.35 L-57.9 21.65 Q-59.0 20.15 -59.15 17.85 L-58.55 19.1 Q-57.0 21.95 -53.35 23.6 -50.05 24.95 -46.25 23.55 -42.8 22.2 -41.45 19.9 L-41.45 19.8 Q-40.25 17.7 -41.3 14.95 L-42.1 13.3 -43.6 11.45 -44.0 11.05 -45.35 9.95 Q-48.2 7.9 -52.75 8.7 -55.15 9.05 -56.65 10.05 L-57.05 10.35 Q-58.25 11.25 -58.85 12.6 L-59.1 13.2 Q-58.8 11.45 -57.6 10.1 L-57.3 9.8 -55.95 8.75 -55.3 8.4 Q-58.25 7.0 -60.65 8.0 L-60.75 8.05 -61.2 8.25 Q-64.25 9.85 -67.55 14.1 L-69.5 17.0 Q-71.55 20.55 -71.65 23.75 -70.4 23.8 -67.55 22.85 L-65.8 22.2 Q-66.1 22.95 -67.7 23.8 L-67.9 23.85 Q-69.8 24.65 -71.65 24.85 L-71.6 26.4 -71.55 27.15 Q-71.45 29.0 -71.0 29.8 L-68.75 30.0 -65.5 30.15 -67.45 31.3 -70.4 31.45 -70.35 33.1 -70.0 34.25 -69.1 35.8 -67.2 36.9 Q-65.5 37.8 -64.25 38.1 L-65.45 38.4 -67.75 38.35 -68.35 38.05 -68.1 38.75 -68.05 38.9 -67.5 40.15 -66.65 41.5 -66.2 42.1 Q-64.75 43.85 -62.5 44.65 L-61.7 44.9 -60.9 45.1 -60.05 45.25 -58.95 45.4 Q-55.75 45.8 -52.8 45.4 -49.95 45.0 -47.3 43.9 -45.15 43.0 -43.8 41.7 L-42.75 40.55 -42.15 39.45 -41.95 38.85 -41.75 38.0 -41.6 36.95 -41.6 36.5 -41.6 36.0 -41.65 35.55 -41.95 34.05 -42.15 34.25 -43.05 35.2 Q-44.75 36.4 -47.8 36.95 -51.75 37.6 -54.6 36.45 L-55.3 36.15 Q-52.4 36.6 -48.9 36.0 -45.35 35.5 -42.95 33.95 L-42.05 33.25 -41.7 32.95 Q-40.15 31.55 -39.65 29.75 -39.2 28.15 -39.85 26.75 L-40.45 25.8 -41.25 25.1 -41.95 24.75 -43.8 24.25 -46.35 25.2 Q-50.2 26.1 -53.8 24.45 L-57.25 22.35 M-38.0 10.4 L-41.55 11.05 Q-40.45 12.4 -39.95 14.3 -39.7 12.55 -38.85 11.1 L-38.0 10.4 M-39.6 17.4 Q-40.15 19.55 -41.15 21.55 L-42.2 22.95 -42.4 23.1 -40.5 24.05 Q-39.7 24.45 -39.15 25.2 L-39.1 25.3 Q-38.15 25.25 -37.35 24.8 L-35.9 23.65 Q-35.2 23.05 -34.9 22.2 -34.6 21.25 -34.85 20.3 -35.2 19.25 -36.1 18.75 -37.0 18.2 -37.95 17.95 L-39.6 17.4 M-39.2 15.35 L-39.25 16.3 -39.15 16.3 -36.85 16.9 Q-34.05 14.5 -31.15 13.15 -32.15 10.4 -35.75 9.9 L-38.25 11.6 Q-39.15 13.3 -39.2 15.35 M-27.25 -29.7 L-26.7 -29.95 -22.5 -32.45 Q-10.75 -18.6 -9.2 -2.7 -10.3 -18.65 -22.45 -33.1 -25.1 -31.4 -27.6 -30.35 L-27.25 -29.7 M-16.4 39.35 L-15.2 38.65 Q-12.05 36.6 -10.65 33.85 L-11.2 32.75 Q-13.55 36.75 -16.9 38.6 -19.1 39.75 -21.7 40.0 L-21.55 40.9 Q-18.95 40.7 -16.4 39.35 M-15.2 41.3 Q-12.75 39.6 -9.8 35.9 L-10.4 34.5 Q-12.6 38.35 -15.9 40.05 -18.4 41.35 -21.45 41.45 L-21.25 42.25 Q-18.65 43.75 -15.2 41.3 M-40.45 35.7 L-40.6 37.65 -41.1 39.5 Q-40.25 39.55 -39.9 38.7 -39.4 37.3 -40.0 36.05 -40.15 35.8 -40.45 35.7 M-74.0 30.7 L-74.7 31.65 -74.05 32.45 -73.5 31.25 -74.0 30.7 M-72.7 28.75 L-73.6 29.95 -73.15 30.5 -72.55 29.5 -72.7 28.75 M-74.7 34.65 L-74.35 33.25 -75.2 32.2 -76.0 33.35 -74.7 34.65 M-75.0 36.85 L-74.9 35.7 -81.95 41.45 -75.0 36.85" fill="#000000" fill-rule="evenodd" stroke="none"/>
    <path d="M-84.3 43.9 L-74.95 37.45 Q-74.9 39.85 -73.65 42.05 L-72.8 43.35 -71.05 44.9 -70.8 45.05 -84.3 43.9 M-16.75 50.0 L-18.75 45.2 -19.2 43.85 Q-17.15 43.85 -14.8 42.15 L-11.65 39.3 -7.45 49.0 -6.9 50.9 -16.75 50.0 M-62.05 -33.65 L-60.65 -34.4 Q-58.4 -35.05 -56.2 -32.6 -57.4 -34.75 -58.25 -34.95 -60.1 -35.45 -61.45 -34.9 L-62.2 -34.05 -62.8 -33.1 -62.05 -33.65 M-51.05 -41.2 Q-45.3 -42.1 -40.25 -40.15 -37.3 -39.05 -34.55 -36.95 -30.9 -34.25 -28.7 -30.65 L-28.35 -30.05 -28.0 -29.4 -27.1 -27.45 Q-26.05 -24.9 -25.55 -21.9 L-25.25 -18.25 -25.95 -18.25 Q-27.4 -18.05 -28.25 -15.95 L-29.1 -13.8 -32.1 -16.15 Q-30.15 -19.55 -30.25 -24.05 -30.45 -28.6 -32.7 -31.85 -35.05 -35.15 -38.4 -35.05 -41.75 -35.0 -43.85 -31.4 -45.15 -29.35 -45.55 -26.9 L-48.7 -26.85 -51.35 -26.1 Q-52.55 -28.25 -54.25 -29.75 -57.35 -32.55 -60.6 -31.65 -63.85 -30.7 -65.1 -26.75 -66.25 -23.0 -65.05 -18.6 -63.9 -14.65 -61.4 -12.15 -63.05 -9.9 -64.1 -7.35 -66.0 -9.1 -67.7 -8.9 -68.95 -11.75 -69.4 -15.05 -69.9 -17.95 -69.7 -20.65 L-69.4 -22.9 -69.3 -23.55 -69.15 -24.2 Q-68.2 -28.4 -65.5 -32.1 -61.75 -37.55 -56.05 -39.8 -53.75 -40.75 -51.05 -41.2 M-43.1 -37.15 Q-43.8 -36.65 -44.05 -34.2 -43.0 -37.3 -40.65 -37.55 L-39.05 -37.4 -38.2 -37.2 -39.05 -37.85 Q-39.6 -38.35 -40.1 -38.35 -41.55 -38.35 -43.1 -37.15 M-44.9 -24.7 L-45.75 -24.6 Q-48.25 -24.45 -50.35 -23.7 L-51.2 -23.4 Q-52.55 -22.85 -53.8 -22.0 L-51.45 -24.15 -50.7 -24.6 Q-48.3 -25.95 -45.7 -25.55 L-44.85 -25.4 -42.9 -24.7 -44.9 -24.7 M-70.1 -23.6 L-70.25 -22.85 -71.3 -23.0 -76.1 -24.05 Q-83.1 -7.25 -79.65 8.35 -83.55 -7.15 -76.3 -24.65 -73.05 -23.75 -70.1 -23.6 M-38.0 10.4 L-38.85 11.1 Q-39.7 12.55 -39.95 14.3 -40.45 12.4 -41.55 11.05 L-38.0 10.4 M-27.25 -29.7 L-27.6 -30.35 Q-25.1 -31.4 -22.45 -33.1 -10.3 -18.65 -9.2 -2.7 -10.75 -18.6 -22.5 -32.45 L-26.7 -29.95 -27.25 -29.7 M-75.0 36.85 L-81.95 41.45 -74.9 35.7 -75.0 36.85" fill="#666666" fill-rule="evenodd" stroke="none"/>
    <path d="M-71.85 42.95 L-72.9 41.5 -73.65 39.65 -74.0 37.7 -73.95 36.1 -73.6 34.4 -73.05 32.6 -72.3 30.95 -71.2 34.75 -70.1 37.9 -69.1 39.9 Q-69.7 41.55 -71.1 42.5 L-71.85 42.95 M-38.35 -34.2 Q-35.45 -34.3 -33.3 -31.3 -31.25 -28.4 -31.05 -23.95 -30.95 -19.7 -32.8 -16.55 -35.05 -18.0 -37.45 -19.0 L-38.25 -19.3 -38.25 -19.45 Q-37.5 -19.55 -36.7 -20.25 -35.6 -21.3 -35.15 -23.1 -34.7 -24.9 -35.15 -26.35 -35.7 -27.8 -36.85 -28.1 -38.05 -28.4 -39.15 -27.3 -40.25 -26.25 -40.7 -24.45 L-40.75 -24.3 Q-42.5 -26.15 -44.7 -26.7 -44.3 -29.05 -43.15 -30.95 -41.25 -34.15 -38.35 -34.2 M-54.85 -29.1 Q-53.25 -27.7 -52.15 -25.7 -53.95 -24.75 -55.1 -23.15 L-56.5 -24.5 Q-57.75 -25.35 -58.85 -24.85 -59.95 -24.35 -60.1 -22.8 -60.35 -21.25 -59.6 -19.6 L-59.3 -18.95 -57.35 -19.45 -57.95 -17.4 -57.5 -17.05 -57.25 -16.9 -56.95 -16.75 -57.0 -16.6 -57.75 -15.95 -60.9 -12.8 Q-63.2 -15.1 -64.3 -18.8 -65.45 -23.05 -64.35 -26.5 -63.15 -29.95 -60.4 -30.75 -57.65 -31.55 -54.85 -29.1 M-39.95 -23.4 L-39.0 -22.95 -39.45 -22.65 -39.95 -23.4 M-41.75 38.0 L-41.95 38.85 -42.15 39.45 -42.75 40.55 -43.8 41.7 Q-45.15 43.0 -47.3 43.9 -49.95 45.0 -52.8 45.4 -55.75 45.8 -58.95 45.4 L-60.05 45.25 -60.9 45.1 -61.7 44.9 -62.5 44.65 Q-64.75 43.85 -66.2 42.1 L-66.65 41.5 -67.5 40.15 -68.05 38.9 -68.1 38.75 -68.35 38.05 -67.75 38.35 -65.45 38.4 -64.25 38.1 Q-65.5 37.8 -67.2 36.9 L-69.1 35.8 -70.0 34.25 -70.35 33.1 -70.4 31.45 -67.45 31.3 -65.5 30.15 -68.75 30.0 -71.0 29.8 Q-71.45 29.0 -71.55 27.15 L-71.6 26.4 -71.65 24.85 Q-69.8 24.65 -67.9 23.85 L-67.7 23.8 Q-66.1 22.95 -65.8 22.2 L-67.55 22.85 Q-70.4 23.8 -71.65 23.75 -71.55 20.55 -69.5 17.0 L-67.55 14.1 Q-64.25 9.85 -61.2 8.25 L-60.75 8.05 -60.65 8.0 Q-58.25 7.0 -55.3 8.4 L-55.95 8.75 -57.3 9.8 -57.6 10.1 Q-58.8 11.45 -59.1 13.2 L-58.85 12.6 Q-58.25 11.25 -57.05 10.35 L-56.65 10.05 Q-55.15 9.05 -52.75 8.7 -48.2 7.9 -45.35 9.95 L-44.0 11.05 -43.6 11.45 -42.1 13.3 -41.3 14.95 Q-40.25 17.7 -41.45 19.8 L-41.45 19.9 Q-42.8 22.2 -46.25 23.55 -50.05 24.95 -53.35 23.6 -57.0 21.95 -58.55 19.1 L-59.15 17.85 Q-59.0 20.15 -57.9 21.65 L-57.25 22.35 Q-56.85 23.8 -55.5 24.75 L-52.6 26.4 -49.75 27.3 -46.65 27.65 -43.55 27.55 -40.35 26.9 -39.85 26.75 Q-39.2 28.15 -39.65 29.75 -40.15 31.55 -41.7 32.95 L-42.05 33.25 -42.95 33.95 Q-45.35 35.5 -48.9 36.0 -52.4 36.6 -55.3 36.15 L-54.6 36.45 Q-53.5 37.55 -52.0 37.9 L-49.05 38.55 -45.9 39.0 Q-44.2 39.1 -42.6 38.35 L-41.75 38.0" fill="#ffffff" fill-rule="evenodd" stroke="none"/>
    <path d="M-17.4 37.95 Q-19.5 38.95 -22.05 39.3 -23.0 36.6 -24.65 32.95 L-25.95 30.3 Q-23.9 31.2 -22.3 32.8 L-18.8 36.35 -17.4 37.95 M-24.5 34.25 Q-22.7 39.15 -22.35 41.8 L-22.2 43.35 -21.9 45.2 -21.4 49.55 -23.5 49.4 -23.45 49.3 -23.05 45.25 -23.2 42.0 Q-23.4 38.85 -24.15 35.75 L-24.5 34.25 M-53.7 -13.7 L-51.55 -13.2 -50.65 -13.05 Q-48.1 -12.65 -45.5 -13.05 -43.55 -13.4 -42.0 -14.1 L-41.15 -14.5 -39.85 -15.45 -37.1 -13.9 -36.45 -13.35 -35.85 -12.75 -33.15 -9.65 Q-31.3 -7.4 -29.3 -7.45 L-28.8 -7.55 -27.65 -7.85 -26.5 -8.4 Q-24.5 -9.55 -22.85 -12.15 -21.9 -13.2 -23.35 -14.9 L-25.3 -16.7 Q-27.0 -15.35 -27.4 -13.5 -27.8 -11.6 -29.2 -12.35 -30.7 -13.1 -31.95 -14.35 L-32.8 -15.05 -33.3 -15.4 -33.55 -15.6 -38.15 -17.9 -38.15 -18.65 -37.3 -18.3 Q-35.15 -17.35 -33.05 -16.05 L-32.4 -15.65 Q-30.6 -14.45 -28.95 -12.9 L-27.7 -15.65 Q-27.0 -17.5 -25.85 -17.65 L-25.25 -17.65 -24.45 -17.35 Q-23.5 -16.85 -22.5 -15.5 -21.05 -13.3 -20.7 -11.05 -20.45 -9.6 -21.4 -6.9 -22.4 -3.65 -24.35 -1.4 -26.4 5.25 -30.55 7.45 L-35.15 9.2 -37.0 9.65 -41.9 10.65 -41.95 10.65 Q-43.35 9.25 -45.6 8.4 -49.85 6.8 -53.15 7.6 -56.3 5.75 -59.75 6.35 -60.8 6.55 -61.9 7.1 L-63.7 5.65 Q-66.4 4.1 -68.05 1.75 -69.3 -0.15 -69.55 -1.85 -70.35 -6.75 -68.65 -7.9 L-68.25 -8.15 -67.75 -8.25 -67.4 -8.3 Q-65.85 -8.35 -63.8 -6.3 -62.85 -9.25 -61.0 -11.75 L-60.5 -12.4 -57.75 -15.15 -56.95 -15.85 -56.9 -15.05 -56.5 -14.85 Q-58.65 -13.6 -59.9 -11.85 L-59.95 -11.85 -60.1 -11.6 -60.7 -11.75 Q-61.2 -11.5 -60.85 -10.6 L-60.8 -10.5 -61.6 -9.1 -62.45 -7.2 Q-62.85 -6.2 -63.5 -5.45 L-63.65 -5.4 -63.8 -5.5 -64.05 -5.7 Q-65.0 -6.35 -66.0 -6.7 L-68.15 -6.85 Q-68.55 -6.8 -68.55 -6.35 -68.75 -3.55 -66.3 -1.9 -65.6 -1.45 -64.7 -1.35 L-63.35 -1.55 -61.85 -2.4 -60.6 -3.8 Q-59.15 -6.1 -57.95 -8.55 -57.0 -10.45 -55.5 -12.0 L-53.7 -13.7 M-58.45 1.5 L-59.7 1.65 Q-63.85 2.0 -66.55 -0.05 L-63.55 2.05 Q-61.45 3.05 -58.7 2.65 L-58.2 2.55 -57.0 2.3 Q-54.55 1.6 -51.5 -0.1 -47.45 -2.35 -44.4 -2.8 L-38.45 -2.6 -32.55 -2.4 -31.1 -2.7 -29.7 -3.1 Q-25.25 -4.7 -23.7 -8.85 L-24.4 -8.15 Q-25.85 -6.15 -28.4 -4.9 L-29.85 -4.25 Q-31.85 -3.5 -34.3 -3.05 L-40.05 -3.55 -45.7 -4.0 Q-48.55 -3.6 -52.1 -1.25 -55.65 1.05 -58.45 1.5 M-40.55 3.7 L-37.45 0.4 Q-45.3 4.45 -51.2 1.95 -50.7 3.25 -47.85 4.4 L-47.3 4.6 Q-45.4 5.3 -44.45 5.2 -41.55 4.7 -40.55 3.7 M-39.2 15.35 Q-39.15 13.3 -38.25 11.6 L-35.75 9.9 Q-32.15 10.4 -31.15 13.15 -34.05 14.5 -36.85 16.9 L-39.15 16.3 -39.25 16.3 -39.2 15.35 M-16.4 39.35 Q-18.95 40.7 -21.55 40.9 L-21.7 40.0 Q-19.1 39.75 -16.9 38.6 L-16.4 39.35 M-15.2 41.3 Q-18.65 43.75 -21.25 42.25 L-21.45 41.45 Q-18.4 41.35 -15.9 40.05 L-15.2 41.3 M-40.45 35.7 Q-40.15 35.8 -40.0 36.05 -39.4 37.3 -39.9 38.7 -40.25 39.55 -41.1 39.5 L-40.6 37.65 -40.45 35.7" fill="#999999" fill-rule="evenodd" stroke="none"/>
    <path d="M-60.8 -10.5 L-60.85 -10.6 Q-61.2 -11.5 -60.7 -11.75 L-60.1 -11.6 Q-59.8 -11.25 -59.8 -10.75 -59.85 -9.4 -60.8 -10.5 M-33.55 -15.6 L-33.3 -15.4 Q-33.0 -14.85 -33.3 -14.2 -33.9 -13.25 -34.25 -14.25 -34.7 -15.5 -33.55 -15.6 M-28.8 -7.55 L-29.3 -7.45 Q-30.0 -7.6 -29.8 -8.5 -29.65 -9.45 -28.95 -9.3 -28.35 -9.2 -28.45 -8.25 -28.55 -7.7 -28.8 -7.55 M-57.4 -12.4 Q-56.95 -11.4 -57.45 -11.0 -58.1 -10.8 -58.55 -11.8 -59.05 -12.85 -58.5 -13.1 -57.9 -13.45 -57.4 -12.4 M-62.9 -3.1 Q-63.3 -4.0 -62.75 -4.3 -62.25 -4.65 -61.85 -3.8 -61.45 -2.95 -62.0 -2.65 -62.5 -2.3 -62.9 -3.1 M-61.7 -6.55 Q-62.2 -7.65 -61.7 -7.9 -61.15 -8.2 -60.65 -7.05 -60.1 -5.95 -60.55 -5.7 -61.15 -5.4 -61.7 -6.55 M-58.45 1.5 Q-55.65 1.05 -52.1 -1.25 -48.55 -3.6 -45.7 -4.0 L-40.05 -3.55 -34.3 -3.05 Q-31.85 -3.5 -29.85 -4.25 L-28.4 -4.9 Q-25.85 -6.15 -24.4 -8.15 L-23.7 -8.85 Q-25.25 -4.7 -29.7 -3.1 L-31.1 -2.7 -32.55 -2.4 -38.45 -2.6 -44.4 -2.8 Q-47.45 -2.35 -51.5 -0.1 -54.55 1.6 -57.0 2.3 L-58.2 2.55 -58.7 2.65 Q-61.45 3.05 -63.55 2.05 L-66.55 -0.05 Q-63.85 2.0 -59.7 1.65 L-58.45 1.5 M-40.55 3.7 Q-41.55 4.7 -44.45 5.2 -45.4 5.3 -47.3 4.6 L-47.85 4.4 Q-50.7 3.25 -51.2 1.95 -45.3 4.45 -37.45 0.4 L-40.55 3.7 M-37.4 -15.25 Q-37.25 -16.4 -36.45 -16.25 -35.8 -16.2 -35.95 -15.0 -36.2 -13.9 -36.9 -13.95 -37.65 -14.15 -37.4 -15.25 M-32.2 -11.2 Q-32.0 -12.5 -31.3 -12.35 -30.7 -12.25 -30.9 -11.05 -31.1 -9.8 -31.75 -9.9 -32.4 -10.0 -32.2 -11.2" fill="#333333" fill-rule="evenodd" stroke="none"/>
  </g>
</svg>
