<?xml version="1.0" encoding="UTF-8" standalone="no"?>
<svg xmlns:xlink="http://www.w3.org/1999/xlink" height="100.8px" width="128.4px" xmlns="http://www.w3.org/2000/svg">
  <g transform="matrix(1.0, 0.0, 0.0, 1.0, 60.75, 49.3)">
    <path d="M64.45 -13.1 L66.25 -30.25 Q5.85 -36.75 -53.4 -48.9 L-56.05 -24.4 -59.9 25.7 59.15 50.8 64.45 -13.1 65.55 -13.0 59.8 50.9 59.65 51.25 59.4 51.45 59.05 51.5 -60.75 26.75 -59.7 4.85 -59.6 3.5 -59.6 3.1 -59.55 2.2 -59.2 -2.55 -58.7 -8.45 -54.05 -49.05 -53.95 -49.3 -44.2 -47.8 -16.05 -42.75 Q21.35 -35.95 39.85 -33.95 L67.65 -30.6 65.6 -13.05 64.45 -13.1" fill="#333333" fill-rule="evenodd" stroke="none"/>
    <path d="M64.45 -13.1 L59.15 50.8 -59.9 25.7 -56.05 -24.4 -53.4 -48.9 Q5.85 -36.75 66.25 -30.25 L64.45 -13.1 63.05 -13.2 64.45 -13.1" fill="#ffffff" fill-rule="evenodd" stroke="none"/>
  </g>
</svg>
