<?xml version="1.0" encoding="UTF-8" standalone="no"?>
<svg xmlns:xlink="http://www.w3.org/1999/xlink" height="272.5px" width="129.9px" xmlns="http://www.w3.org/2000/svg">
  <g transform="matrix(1.0, 0.0, 0.0, 1.0, 60.55, 93.95)">
    <path d="M69.35 -80.25 L55.7 88.1 55.7 88.15 Q55.55 89.7 54.4 90.7 53.2 91.7 51.65 91.55 L51.6 91.55 -56.05 81.4 -55.95 81.4 -56.15 81.4 Q-57.2 81.25 -58.0 80.6 L-57.95 80.65 -59.05 79.3 -59.05 79.25 -59.1 79.2 -59.45 77.45 -59.45 77.4 -59.45 77.35 -59.45 77.25 Q-50.3 -3.45 -45.95 -90.35 -45.9 -91.35 -45.35 -92.2 L-45.15 -92.45 Q-44.65 -93.2 -43.8 -93.55 L-43.75 -93.6 -43.7 -93.6 -41.9 -93.95 -41.85 -93.95 65.95 -84.3 66.0 -84.3 Q67.45 -84.15 68.45 -83.0 L68.35 -83.1 68.5 -82.9 Q69.45 -81.75 69.35 -80.25 M54.5 97.3 L54.6 97.3 Q55.45 97.3 56.25 98.05 L56.2 98.05 Q57.0 98.8 57.5 100.25 L57.55 100.3 57.6 100.5 Q57.95 101.9 57.95 103.45 L56.05 172.95 Q56.0 174.45 55.55 175.75 L55.5 175.85 Q55.0 177.2 54.2 177.95 L54.1 178.0 54.0 178.05 Q53.35 178.5 52.7 178.5 L52.3 178.55 -57.45 160.6 -57.5 160.6 Q-58.65 160.35 -59.45 158.95 L-59.7 158.65 Q-60.6 156.85 -60.55 154.55 L-58.7 90.65 Q-58.6 89.1 -58.05 87.8 L-58.05 87.7 Q-57.6 86.55 -56.9 85.9 L-56.6 85.7 -56.4 87.6 -56.2 86.35 Q-56.0 85.75 -55.6 85.45 L-55.15 85.25 -54.8 85.25 Q-4.8 96.1 45.85 97.15 L54.4 97.3 54.5 97.3" fill="#ffff00" fill-rule="evenodd" stroke="none"/>
  </g>
</svg>
