<?xml version="1.0" encoding="UTF-8" standalone="no"?>
<svg xmlns:xlink="http://www.w3.org/1999/xlink" height="28.0px" width="103.2px" xmlns="http://www.w3.org/2000/svg">
  <g transform="matrix(1.0, 0.0, 0.0, 1.0, 51.6, 14.0)">
    <path d="M51.6 0.3 L48.3 0.75 47.95 -2.1 51.25 -2.55 51.6 0.3 M50.85 -3.2 L48.1 -2.8 46.05 -13.45 49.95 -14.0 50.85 -3.2 M31.9 -5.75 L32.65 -6.1 32.75 -7.25 Q32.9 -9.05 31.3 -8.95 L31.9 -5.75 M34.05 -11.0 Q36.2 -10.2 36.45 -7.75 36.65 -5.55 34.6 -4.95 36.35 -4.85 36.75 -2.6 L37.5 2.2 34.1 2.7 33.1 -3.45 32.25 -3.55 32.95 2.85 29.25 3.35 27.3 -10.9 29.95 -11.25 34.05 -11.0 M43.4 -13.1 L47.5 0.85 43.7 1.35 43.15 -1.15 41.8 -0.95 41.95 1.6 38.1 2.1 38.05 -12.35 43.4 -13.1 M17.8 -9.65 Q17.55 -6.4 18.15 -3.25 18.85 0.7 20.35 4.55 L16.95 5.0 15.1 -0.05 15.1 5.25 11.5 5.75 Q12.65 1.95 11.95 -1.7 11.2 -5.3 9.55 -8.5 L13.1 -9.0 14.4 -5.2 14.65 -9.2 17.8 -9.65 M18.75 -6.8 L18.35 -9.65 26.45 -10.8 26.85 -7.95 24.65 -7.65 26.2 3.75 22.45 4.3 20.95 -7.1 18.75 -6.8 M9.3 -5.5 L6.9 -5.2 7.25 -2.5 9.55 -2.85 9.95 -0.15 7.6 0.2 8.05 3.35 10.8 2.95 11.2 5.8 4.75 6.7 2.8 -7.55 8.95 -8.4 9.4 -5.55 9.3 -5.5 M42.7 -3.7 L41.35 -9.6 41.45 -3.5 42.7 -3.7 M-4.45 -6.7 L-3.55 4.1 -6.3 4.5 -8.35 -6.15 -4.45 -6.7 M-12.6 6.35 L-12.45 8.9 -16.3 9.4 -16.35 -5.05 -11.0 -5.8 -6.9 8.15 -10.7 8.65 -11.25 6.15 -12.6 6.35 M-19.75 2.35 L-19.95 2.4 Q-17.4 3.45 -16.85 6.2 L-16.7 7.15 Q-16.65 8.35 -16.9 9.5 L-20.3 10.0 -21.35 3.8 -22.35 3.75 -21.45 10.15 -25.15 10.65 -27.1 -3.6 Q-21.85 -5.8 -18.95 -2.1 -18.2 -1.15 -18.2 0.1 -18.05 1.95 -19.75 2.35 M-13.05 -2.3 L-12.95 3.8 -11.7 3.6 -13.05 -2.3 M-29.75 -0.35 L-28.2 11.05 -31.95 11.6 -33.45 0.2 -35.65 0.5 -36.05 -2.35 -27.95 -3.5 -27.55 -0.65 -29.75 -0.35 M-22.45 1.55 L-21.75 1.2 -21.95 -1.2 -23.1 -1.65 -22.45 1.55 M-3.15 4.75 L-2.8 7.6 -6.1 8.05 -6.45 5.2 -3.15 4.75 M-37.05 4.15 L-34.05 11.85 -37.45 12.3 -39.3 7.25 -39.3 12.55 -42.9 13.05 Q-41.55 10.0 -41.8 7.15 L-42.0 5.6 Q-42.85 2.0 -44.85 -1.2 L-41.25 -1.5 -40.0 2.1 -39.75 -1.9 -36.6 -2.35 -37.05 4.15 M-44.85 4.45 L-44.45 7.15 -46.8 7.5 -46.35 10.65 -43.6 10.25 -43.2 13.1 -49.65 14.0 -51.6 -0.25 -45.45 -1.1 -45.0 1.75 -47.5 2.1 -47.15 4.8 -44.85 4.45" fill="#333333" fill-rule="evenodd" stroke="none"/>
    <path d="M31.9 -5.75 L31.3 -8.95 Q32.9 -9.05 32.75 -7.25 L32.65 -6.1 31.9 -5.75 M42.7 -3.7 L41.45 -3.5 41.35 -9.6 42.7 -3.7 M-13.05 -2.3 L-11.7 3.6 -12.95 3.8 -13.05 -2.3 M-22.45 1.55 L-23.1 -1.65 -21.95 -1.2 -21.75 1.2 -22.45 1.55" fill="#ffffff" fill-rule="evenodd" stroke="none"/>
  </g>
</svg>
