<?xml version="1.0" encoding="UTF-8" standalone="no"?>
<svg xmlns:xlink="http://www.w3.org/1999/xlink" height="50.35px" width="105.55px" xmlns="http://www.w3.org/2000/svg">
  <g transform="matrix(1.0, 0.0, 0.0, 1.0, 52.75, 25.15)">
    <path d="M42.5 -6.8 L45.1 12.2 40.8 12.8 37.0 4.5 38.2 13.15 34.1 13.7 31.5 -5.3 35.6 -5.85 39.6 2.35 38.4 -6.2 42.5 -6.8 M50.6 -7.85 L51.8 6.55 48.1 7.05 45.4 -7.15 50.6 -7.85 M7.95 -24.65 L9.7 -25.1 Q11.5 -25.35 13.2 -24.65 L13.7 -24.4 Q15.35 -23.55 16.0 -21.75 L16.05 -21.5 16.25 -20.75 16.5 -18.5 11.6 -17.8 Q11.8 -19.65 11.2 -20.75 L11.1 -20.85 10.15 -21.75 9.85 -21.75 9.75 -20.75 9.7 -20.55 Q9.4 -16.7 10.3 -12.8 L11.5 -8.65 12.5 -8.6 Q13.1 -10.85 12.4 -13.15 L11.4 -13.0 11.0 -15.9 16.75 -16.7 18.15 -6.5 15.05 -6.05 14.4 -7.35 Q13.55 -5.4 11.45 -5.15 10.1 -5.0 8.85 -5.6 7.6 -6.25 7.1 -7.45 4.75 -13.2 4.75 -19.6 L4.75 -19.65 4.8 -20.75 Q4.95 -22.35 6.25 -23.5 7.05 -24.25 7.95 -24.65 M-4.4 -17.85 Q-4.6 -11.7 -2.55 -6.55 -0.85 -7.0 -1.35 -9.3 -2.3 -13.6 -2.6 -17.95 L-2.6 -18.2 Q-2.8 -19.6 -3.9 -19.95 -4.9 -19.4 -4.45 -18.1 L-4.4 -17.9 -4.4 -17.85 M1.35 -20.5 L1.9 -19.05 2.45 -16.3 2.9 -12.35 3.15 -10.75 Q3.55 -8.65 2.9 -6.65 2.2 -4.6 0.15 -3.8 -1.95 -3.0 -4.15 -3.4 -6.25 -3.8 -7.2 -5.7 -8.15 -7.65 -8.4 -9.75 L-8.95 -14.05 -9.3 -16.9 -9.35 -17.45 Q-9.55 -19.3 -8.5 -20.75 L-8.0 -21.35 Q-6.5 -22.85 -4.4 -23.15 L-1.85 -23.05 Q0.3 -22.65 1.25 -20.75 L1.35 -20.5 M23.35 -1.3 Q22.35 -0.75 22.8 0.55 L22.8 0.75 Q22.6 6.95 24.7 12.1 26.4 11.65 25.9 9.35 24.95 5.05 24.65 0.7 24.55 -0.9 23.35 -1.3 M29.9 4.35 Q30.1 6.4 30.45 8.45 30.8 10.7 29.8 12.7 28.85 14.5 26.9 15.05 24.7 15.65 22.55 15.05 20.4 14.4 19.65 12.2 19.05 10.4 18.8 8.55 L18.25 4.25 Q17.95 2.1 18.05 -0.05 18.25 -2.35 20.2 -3.5 22.1 -4.65 24.35 -4.55 26.6 -4.5 27.9 -2.7 29.2 -0.95 29.55 1.25 L29.9 4.35 M11.95 16.75 L9.35 -2.25 14.25 -2.9 16.85 16.1 11.95 16.75 M6.1 0.5 Q6.95 2.1 7.1 3.9 L2.5 4.5 2.2 2.3 Q2.1 1.75 1.55 1.75 0.85 1.65 0.7 2.4 0.55 3.05 0.75 3.75 L0.8 3.95 1.2 4.45 Q5.8 6.2 7.85 10.3 9.15 12.8 8.05 15.35 6.9 17.95 3.95 18.35 1.35 18.7 -0.55 16.95 -2.7 14.95 -2.75 11.8 L1.8 11.2 2.6 14.9 Q3.35 15.3 3.65 14.55 4.55 12.25 2.6 11.0 L-1.1 8.9 Q-3.2 7.85 -3.75 5.6 -4.3 3.45 -3.75 1.3 L-3.45 0.85 Q-1.3 -1.75 2.15 -1.75 4.85 -1.75 6.1 0.5 M-8.5 19.5 L-9.2 16.15 -11.0 16.4 -10.85 19.8 -15.95 20.5 -16.05 1.2 -8.9 0.2 -3.45 18.8 -8.5 19.5 M52.8 11.2 L48.4 11.8 47.9 8.0 52.3 7.4 52.8 11.2 M-12.9 -18.75 L-12.05 -16.4 -11.75 -14.7 -11.6 -13.3 -16.5 -12.65 Q-16.5 -14.1 -16.85 -15.5 L-16.95 -15.85 Q-17.3 -17.05 -18.05 -17.95 -18.5 -16.65 -18.55 -15.15 L-18.6 -14.8 Q-18.75 -10.55 -17.75 -6.35 -17.5 -5.15 -16.4 -4.7 L-16.05 -4.7 Q-15.75 -4.85 -15.75 -5.2 -15.6 -7.4 -16.1 -9.55 L-11.2 -10.2 Q-10.7 -8.3 -10.9 -6.4 -11.1 -4.7 -12.15 -3.35 -13.3 -1.9 -15.15 -1.4 -18.2 -0.7 -20.6 -2.5 L-21.55 -3.7 -21.95 -4.7 -22.15 -5.15 Q-23.2 -9.6 -23.6 -14.2 L-23.6 -14.25 Q-24.1 -16.45 -23.0 -18.4 -22.1 -20.05 -20.4 -20.75 L-19.85 -20.95 -15.7 -21.1 -14.75 -20.75 Q-13.5 -20.15 -12.9 -18.75 M-52.75 6.2 L-47.85 5.55 -45.25 24.55 -50.15 25.2 -52.75 6.2 M-19.0 1.6 L-18.9 20.95 -26.4 22.0 -31.85 3.35 -26.65 2.65 -23.55 15.8 -24.2 2.35 -19.0 1.6 M-9.8 12.75 L-11.65 4.9 -11.5 13.0 -9.8 12.75 M-40.65 4.55 L-36.65 12.75 -37.85 4.2 -33.75 3.6 -31.15 22.6 -35.45 23.2 -39.25 14.9 -38.05 23.55 -42.15 24.1 -44.75 5.1 -40.65 4.55" fill="#333333" fill-rule="evenodd" stroke="none"/>
    <path d="M-4.4 -17.85 L-4.4 -17.9 -4.45 -18.1 Q-4.9 -19.4 -3.9 -19.95 -2.8 -19.6 -2.6 -18.2 L-2.6 -17.95 Q-2.3 -13.6 -1.35 -9.3 -0.85 -7.0 -2.55 -6.55 -4.6 -11.7 -4.4 -17.85 M23.35 -1.3 Q24.55 -0.9 24.65 0.7 24.95 5.05 25.9 9.35 26.4 11.65 24.7 12.1 22.6 6.95 22.8 0.75 L22.8 0.55 Q22.35 -0.75 23.35 -1.3 M-9.8 12.75 L-11.5 13.0 -11.65 4.9 -9.8 12.75" fill="#ffffff" fill-rule="evenodd" stroke="none"/>
  </g>
</svg>
