<?xml version="1.0" encoding="UTF-8" standalone="no"?>
<svg xmlns:xlink="http://www.w3.org/1999/xlink" height="90.55px" width="107.9px" xmlns="http://www.w3.org/2000/svg">
  <g transform="matrix(1.0, 0.0, 0.0, 1.0, 53.95, 45.3)">
    <path d="M50.85 9.25 L43.95 6.65 44.35 6.35 42.2 3.95 Q41.05 -5.1 38.05 -13.55 L23.1 -11.4 24.35 6.4 24.75 6.55 24.6 6.55 23.45 9.55 23.85 9.7 16.0 15.8 Q15.35 15.0 15.05 14.1 L15.0 13.95 14.75 14.15 -0.3 -21.75 -2.5 -26.9 -7.0 -37.55 -7.35 -38.4 43.4 -45.3 50.85 9.25 M-4.4 20.85 L-9.8 18.95 Q-10.4 -4.4 -9.65 -25.45 L-7.8 -25.45 -6.35 -6.15 -8.3 -7.15 -9.35 -7.0 -6.3 -4.95 -6.2 -4.15 -7.95 -4.05 -7.25 -3.85 -8.15 -3.4 -6.2 -3.6 -5.95 -0.75 -5.3 8.4 Q-8.1 13.75 -8.15 19.4 -7.3 13.75 -5.2 9.65 L-4.4 20.85 M-10.85 -37.9 L-10.9 -36.6 -11.35 -25.75 Q-12.1 -3.9 -12.05 18.2 L-12.55 18.0 -12.55 18.45 -21.5 15.35 -21.0 15.0 -23.3 12.4 -24.95 13.2 -22.5 5.3 -22.95 4.6 Q-24.45 2.3 -27.0 1.25 L-27.75 0.95 Q-29.75 0.15 -31.75 0.15 -36.3 0.2 -40.6 2.05 L-42.85 3.25 Q-45.85 4.9 -47.1 8.3 L-43.0 15.5 -43.8 15.4 -45.2 18.6 -44.65 18.8 -46.8 20.35 -53.95 -32.05 -10.85 -37.9 M-40.9 2.75 L-41.9 3.5 Q-43.3 5.1 -43.45 6.7 L-45.9 7.55 -45.2 7.5 -46.6 8.1 Q-44.3 3.9 -40.0 2.3 L-40.9 2.75 M-40.05 5.1 L-36.8 5.2 -33.95 5.15 -31.25 3.95 -26.85 4.75 -27.75 5.2 Q-29.75 5.05 -31.15 4.2 -31.95 4.65 -32.45 4.55 -34.85 6.75 -37.75 5.5 L-39.9 6.9 -42.4 6.75 -41.7 6.1 -40.05 5.1 M28.65 6.85 L25.65 6.1 Q24.35 0.45 24.3 -6.55 L25.45 -7.45 25.8 -5.85 24.65 -6.0 25.3 -5.2 25.95 -5.1 26.2 -4.15 25.05 -3.65 26.25 -3.85 27.0 -0.5 25.65 0.85 Q25.75 2.05 26.35 1.9 25.9 1.45 25.95 1.15 L27.2 0.4 28.65 6.85 M-40.0 16.0 L-42.0 15.7 -42.5 14.95 -40.3 15.05 -40.0 16.0 M-5.95 -0.75 L-6.0 -0.75 -5.95 -0.75" fill="#999999" fill-rule="evenodd" stroke="none"/>
    <path d="M30.0 -12.2 L37.1 -12.15 Q37.05 -10.85 37.15 -10.2 L38.3 -9.9 Q38.3 -10.9 37.5 -12.8 L30.0 -12.2 M-7.35 -38.4 L-7.0 -37.55 -2.5 -26.9 -0.3 -21.75 14.75 14.15 15.0 13.95 15.05 14.1 Q15.35 15.0 16.0 15.8 L23.85 9.7 23.45 9.55 24.6 6.55 24.75 6.55 24.35 6.4 23.1 -11.4 38.05 -13.55 Q41.05 -5.1 42.2 3.95 L44.35 6.35 43.95 6.65 50.85 9.25 50.95 10.05 48.45 9.2 48.65 14.5 43.4 15.2 46.6 16.8 37.35 25.9 38.9 33.0 40.45 33.85 38.45 34.1 25.2 27.0 25.85 35.85 24.75 36.0 23.9 25.65 20.75 24.35 21.55 34.95 16.3 37.15 14.55 37.35 21.0 34.55 20.4 24.2 16.35 22.2 15.65 23.05 12.65 37.65 11.05 37.85 13.25 25.75 Q10.55 28.8 8.3 32.2 7.25 33.75 6.65 35.65 L7.9 38.3 7.05 38.4 5.9 35.8 2.7 36.5 2.45 39.05 1.5 39.15 1.85 36.3 -7.15 28.9 -1.6 39.55 -3.25 39.75 -11.25 26.35 -14.5 29.4 -12.05 39.5 -6.15 40.15 -7.95 40.45 -8.15 40.4 -12.4 40.0 -14.75 29.65 -17.4 31.85 -15.25 41.45 -16.4 41.6 -18.25 33.45 -27.8 43.15 -29.8 43.4 -29.35 42.95 Q-29.15 43.0 -29.25 42.85 L-28.5 42.05 -29.7 36.4 -31.15 37.6 -30.1 43.45 -30.9 43.55 -32.05 36.6 -31.8 35.95 -44.35 30.0 -41.25 27.3 -45.75 28.05 -45.8 28.05 -45.9 27.3 -40.4 26.85 -43.05 29.55 -31.85 35.15 Q-32.45 34.15 -31.15 34.2 L-40.1 29.4 -38.45 25.8 -44.8 25.75 -46.1 20.95 -46.7 21.3 -46.8 20.35 -44.65 18.8 -45.2 18.6 -43.8 15.4 -43.0 15.5 -47.1 8.3 Q-45.85 4.9 -42.85 3.25 L-40.6 2.05 Q-36.3 0.2 -31.75 0.15 -29.75 0.15 -27.75 0.95 -33.2 0.4 -38.15 1.7 L-40.0 2.3 Q-44.3 3.9 -46.6 8.1 L-45.2 7.5 -45.9 7.55 -43.45 6.7 -41.7 6.1 -42.4 6.75 -39.9 6.9 -34.4 7.9 Q-32.85 8.05 -31.55 7.3 L-27.75 5.2 -26.85 4.75 -31.25 3.95 -33.95 5.15 -36.8 5.2 -40.05 5.1 -38.25 3.3 -37.55 3.5 -38.2 3.6 -38.4 4.45 -34.55 4.95 Q-33.6 4.75 -32.9 3.9 -32.9 3.25 -33.4 2.95 -34.9 1.95 -36.55 2.45 L-41.9 3.5 -40.9 2.75 Q-39.45 2.1 -37.7 2.25 L-37.2 2.3 Q-35.25 1.05 -33.1 1.9 -30.5 -0.05 -27.9 1.65 L-27.85 1.75 -27.9 1.8 Q-30.45 0.65 -32.8 2.15 -32.1 2.8 -32.2 3.95 -31.5 3.8 -31.4 3.45 -31.3 2.9 -31.9 2.8 L-31.9 2.7 Q-31.65 2.5 -31.35 2.7 -30.95 3.0 -31.0 3.55 -28.85 4.8 -23.8 4.25 -24.95 2.45 -27.0 1.25 -24.45 2.3 -22.95 4.6 L-22.5 5.3 -24.95 13.2 -23.3 12.4 -21.0 15.0 -21.5 15.35 -12.55 18.45 -12.55 18.0 -12.05 18.2 Q-12.1 -3.9 -11.35 -25.75 L-10.9 -36.6 -10.85 -37.9 -9.9 -38.05 -10.1 -29.45 -10.2 -25.5 Q-10.75 -3.35 -10.45 18.75 L-9.8 18.95 -4.4 20.85 2.4 23.25 5.75 20.65 7.25 19.5 10.5 16.95 10.9 16.6 11.25 16.5 13.2 15.25 Q5.9 -4.9 -0.5 -19.95 L-3.3 -26.55 -7.8 -37.45 -8.15 -38.3 -7.35 -38.4 M2.3 -5.95 L1.7 -5.5 2.45 -5.4 2.7 -5.4 2.5 -5.35 0.35 -4.8 -0.05 -4.7 -1.5 -4.2 Q-0.95 -2.75 0.5 -2.3 L1.1 -2.2 1.65 -2.15 1.1 -2.1 0.55 -2.1 Q-1.2 -2.25 -1.85 -4.1 L-2.4 -5.0 -0.55 -6.75 -0.3 -7.05 1.25 -8.75 1.5 -9.0 2.5 -9.2 1.6 -7.8 0.05 -5.8 -0.25 -5.45 -0.4 -5.25 -0.2 -5.25 0.2 -5.35 2.25 -5.95 2.3 -5.95 M2.4 5.85 L3.65 6.9 Q6.6 9.45 9.1 13.1 L11.25 16.5 9.35 13.7 Q6.8 10.25 4.0 8.0 L2.65 7.0 Q0.55 5.55 -1.7 4.7 -3.75 6.8 -5.2 9.65 -7.3 13.75 -8.15 19.4 -8.1 13.75 -5.3 8.4 -3.95 5.75 -1.95 3.15 0.3 4.25 2.4 5.85 M28.65 6.85 L33.7 7.35 36.05 6.6 Q38.95 5.75 41.25 3.85 40.95 -2.7 38.6 -8.7 L37.5 -8.9 Q33.9 -9.6 31.05 -7.3 L25.45 -7.45 24.3 -6.55 24.2 -6.5 24.15 -6.45 Q24.0 0.05 25.3 5.95 L25.65 6.1 28.65 6.85 M25.8 -5.85 L30.85 -4.75 30.9 -2.8 32.9 -3.1 32.85 -3.75 32.3 -3.6 33.0 -4.0 33.3 -3.15 37.65 -1.95 39.7 -0.9 39.4 0.4 39.45 -0.75 37.75 -1.1 Q31.95 -2.05 27.2 0.4 L25.95 1.15 Q25.9 1.45 26.35 1.9 25.75 2.05 25.65 0.85 L27.0 -0.5 Q28.75 -2.0 30.6 -2.8 L30.8 -4.55 26.25 -3.85 25.05 -3.65 26.2 -4.15 29.9 -4.7 25.95 -5.1 25.3 -5.2 24.65 -6.0 25.8 -5.85 M37.3 -5.55 L32.25 -4.75 32.55 -5.25 37.05 -7.7 37.85 -8.05 37.15 -6.9 33.2 -5.2 37.25 -5.8 38.15 -5.65 37.3 -5.55 M32.85 1.85 L32.7 1.45 Q31.8 0.5 33.05 0.95 L32.85 1.85 M37.7 -1.45 L38.4 -1.35 37.7 -1.65 Q34.25 -2.9 31.25 -2.35 28.2 -1.8 26.65 0.3 L30.85 -1.0 37.7 -1.45 M25.0 10.15 L22.85 11.6 24.15 15.95 29.7 16.1 28.35 19.5 35.8 23.7 25.65 10.4 25.0 10.15 M24.5 9.3 L31.55 12.05 33.4 8.7 25.15 7.15 24.5 9.3 M33.25 13.5 L35.9 13.4 36.9 11.8 34.05 9.2 32.1 12.55 33.25 13.5 M31.9 12.7 L27.6 11.15 32.3 17.7 33.2 14.05 31.9 12.7 M35.8 13.7 L33.75 14.1 32.75 18.35 36.15 23.1 38.05 17.35 35.8 13.7 M34.55 8.5 L37.35 11.15 43.25 6.45 41.95 4.6 34.55 8.5 M40.8 9.15 L37.15 11.85 36.3 13.6 38.3 16.7 40.8 9.15 M35.55 24.2 L28.0 19.65 29.35 16.25 23.85 16.2 22.65 11.7 20.9 12.75 22.2 17.7 27.7 17.25 25.45 19.8 35.45 25.15 35.2 24.65 Q35.75 25.3 35.55 24.2 M45.45 8.15 L42.95 7.45 42.35 7.9 36.7 23.55 42.55 17.35 40.25 14.5 45.5 12.7 45.45 8.15 M37.55 24.55 L45.4 16.75 42.5 15.0 47.9 13.8 47.65 8.7 45.65 8.2 45.85 12.85 40.6 14.55 42.9 17.35 41.0 20.15 40.8 20.2 Q40.4 20.6 41.15 20.65 L40.85 21.1 40.3 20.6 37.6 24.3 Q37.4 23.9 37.2 24.15 36.9 24.65 37.55 24.55 M-39.2 13.1 L-42.3 7.1 -45.05 7.8 -42.6 13.25 -39.2 13.1 M-42.05 13.45 L-41.25 14.8 -38.75 15.0 -39.4 13.3 -42.05 13.45 M-42.85 13.35 L-45.6 8.05 -46.45 8.55 -42.7 14.6 -41.45 14.75 -42.25 13.4 -42.85 13.35 M-6.35 -6.15 L-3.25 -4.85 -3.45 -3.8 Q-3.4 -1.3 -5.95 -0.75 -3.8 -1.65 -3.8 -3.75 L-6.2 -3.6 -8.15 -3.4 -7.25 -3.85 -7.95 -4.05 -6.2 -4.15 -5.2 -4.35 -6.3 -4.95 -9.35 -7.0 -8.3 -7.15 -6.35 -6.15 M-37.75 7.5 L-36.15 12.9 -34.2 12.65 -34.7 8.05 -37.75 7.5 M-31.25 14.55 L-31.35 12.2 -33.7 12.8 -33.7 12.95 -33.65 14.7 -34.1 12.9 -36.1 13.1 -35.6 15.0 -32.7 14.85 -40.3 15.05 -42.5 14.95 -42.0 15.7 -40.0 16.0 -32.85 17.1 -25.75 13.6 -25.35 12.25 -28.1 13.35 -26.9 12.8 -26.45 10.45 -28.45 11.4 -28.6 13.55 -28.85 13.65 -28.75 11.5 -31.05 12.2 -30.95 14.3 -29.2 13.8 -31.25 14.55 M-36.5 12.95 L-38.1 7.45 -41.7 7.05 -39.0 13.2 -36.5 12.95 M-33.7 12.75 L-33.7 12.8 -33.6 12.7 -33.7 12.75 M-31.35 11.95 L-31.5 8.0 -34.05 8.0 -33.7 12.65 -31.35 11.95 M-31.05 11.9 L-28.7 11.15 -28.5 6.05 -31.25 7.6 -31.05 11.9 M-28.1 5.8 L-28.45 11.0 -26.4 9.95 -25.45 4.7 -28.1 5.8 M-24.85 9.2 L-24.05 8.45 -23.1 5.25 -25.1 4.75 -26.25 12.45 Q-25.0 11.95 -24.75 11.25 -24.55 10.55 -24.85 9.2 M-5.95 -0.75 L-6.0 -0.75 -5.95 -0.75 M-39.25 13.35 L-38.5 15.0 -35.85 15.0 -36.4 13.15 -39.25 13.35 M-29.6 34.8 L-31.35 36.5 -31.25 37.05 -19.9 26.2 -23.25 24.35 -17.0 23.0 -17.2 17.55 -19.5 17.05 -19.35 22.0 -25.4 23.9 -22.8 26.85 -25.0 29.8 -25.4 29.85 -25.65 30.05 -25.7 30.3 -25.5 30.55 -25.15 30.65 -25.85 30.65 -29.15 34.1 -29.45 34.1 Q-30.45 34.3 -29.6 34.8 M-24.8 30.15 L-24.6 30.4 -24.95 30.55 -24.8 30.15 M-16.3 18.15 L-16.15 23.75 -22.3 24.55 -18.55 26.25 -29.4 36.05 -28.15 41.7 -20.05 33.1 -23.8 33.15 -21.35 33.0 -13.1 25.2 -13.85 24.75 -12.6 19.25 -16.3 18.15 M-12.25 24.4 L-0.95 31.4 1.6 24.0 -11.4 19.55 -12.25 24.4 M-19.75 17.0 L-22.65 16.2 -23.2 16.6 -30.15 33.55 -23.25 26.85 -25.85 23.8 -19.7 21.85 -19.75 17.0 M-32.3 17.4 L-29.2 20.2 -22.3 15.1 -23.7 13.15 -32.3 17.4 M-28.2 26.25 L-25.05 17.95 -29.45 20.95 -30.45 22.95 -28.2 26.25 M-34.05 23.4 L-35.5 22.0 -40.4 20.3 -35.1 27.3 -34.05 23.4 M-33.95 22.85 L-30.9 22.7 -29.75 21.0 -32.95 18.2 -35.25 21.85 -33.95 22.85 M-31.0 23.05 L-33.4 23.5 -34.6 28.0 -30.75 33.1 -28.45 27.0 -31.0 23.05 M-33.7 17.65 L-43.15 16.05 -43.95 18.25 -35.9 21.2 -33.7 17.65 M-31.5 34.65 Q-32.05 34.35 -31.8 35.0 L-31.5 34.65 M-19.85 32.85 L-18.85 31.75 -20.6 32.9 -19.85 32.85 M-44.5 25.5 L-38.1 25.6 -39.7 29.25 -31.15 33.7 -43.3 19.25 -45.85 20.85 -44.5 25.5 M52.75 23.15 L42.15 23.25 44.3 23.1 48.55 20.0 49.0 20.4 49.85 19.9 52.15 22.55 52.65 22.5 52.75 23.15 M53.6 29.7 L53.7 30.3 52.9 32.15 52.6 32.2 53.6 29.7 M49.2 20.65 L51.7 22.55 49.85 20.25 49.2 20.65 M48.5 20.45 L44.95 23.0 50.9 22.65 48.5 20.45 M37.4 24.95 L36.95 24.9 35.75 26.6 37.4 24.95 M24.3 20.2 L27.0 17.65 21.7 18.6 20.3 13.5 16.3 16.35 18.35 19.9 17.8 20.55 35.95 31.35 35.25 25.8 24.3 20.2 M37.65 31.95 L37.35 32.1 Q38.1 32.9 38.05 32.2 L38.5 32.8 37.05 26.15 35.85 27.35 36.65 31.75 37.65 31.95 M16.7 20.05 L14.5 15.65 3.35 23.75 7.95 30.1 16.7 20.05 M6.0 35.1 L7.35 31.65 2.65 25.3 -0.05 32.8 1.85 35.05 Q3.4 35.7 6.0 35.1" fill="#000000" fill-rule="evenodd" stroke="none"/>
    <path d="M30.0 -12.2 L37.5 -12.8 Q38.3 -10.9 38.3 -9.9 L37.15 -10.2 Q37.05 -10.85 37.1 -12.15 L30.0 -12.2 M-8.15 -38.3 L-7.8 -37.45 -3.3 -26.55 Q-4.1 -26.2 -4.95 -25.95 L-6.2 -25.65 -7.8 -25.45 -9.65 -25.45 -10.2 -25.5 -10.1 -29.45 -9.9 -38.05 -8.15 -38.3 M-46.7 21.3 L-46.1 20.95 -44.8 25.75 -38.45 25.8 -40.1 29.4 -31.15 34.2 Q-32.45 34.15 -31.85 35.15 L-43.05 29.55 -40.4 26.85 -45.9 27.3 -45.95 26.85 -45.25 26.55 -45.45 26.15 -46.05 26.05 -46.7 21.3 M-45.75 28.05 L-41.25 27.3 -44.35 30.0 -31.8 35.95 -32.05 36.6 -30.9 43.55 -43.45 45.25 -45.75 28.05 M-30.1 43.45 L-31.15 37.6 -29.7 36.4 -28.5 42.05 -29.25 42.85 -29.25 42.75 Q-29.8 42.75 -29.35 42.95 L-29.8 43.4 -27.8 43.15 -18.25 33.45 -16.4 41.6 -30.1 43.45 M-15.25 41.45 L-17.4 31.85 -14.75 29.65 -12.4 40.0 -8.15 40.4 -13.05 41.05 Q-13.35 40.9 -13.7 40.7 L-14.2 41.3 -15.25 41.45 M-6.15 40.15 L-12.05 39.5 -14.5 29.4 -11.25 26.35 -3.25 39.75 -6.15 40.15 M12.65 37.65 L15.65 23.05 16.35 22.2 20.4 24.2 21.0 34.55 14.55 37.35 12.65 37.65 M16.3 37.15 L21.55 34.95 20.75 24.35 23.9 25.65 24.75 36.0 25.85 35.85 25.2 27.0 38.45 34.1 23.9 36.1 22.7 35.3 22.15 36.35 16.3 37.15 M40.45 33.85 L38.9 33.0 37.35 25.9 46.6 16.8 43.4 15.2 48.65 14.5 48.45 9.2 50.95 10.05 52.65 22.5 52.15 22.55 49.85 19.9 49.0 20.4 48.55 20.0 44.3 23.1 42.15 23.25 52.75 23.15 53.6 29.7 52.6 32.2 40.45 33.85 M21.55 13.45 L21.65 13.75 21.9 13.85 22.2 13.75 22.3 13.45 22.2 13.2 Q22.05 13.05 21.9 13.05 21.75 13.05 21.65 13.2 L21.55 13.45 M25.0 10.15 L25.65 10.4 35.8 23.7 28.35 19.5 29.7 16.1 24.15 15.95 22.85 11.6 25.0 10.15 M41.8 14.45 Q41.6 14.45 41.5 14.55 L41.4 14.85 41.5 15.1 41.8 15.2 42.05 15.1 42.15 14.85 42.05 14.55 41.8 14.45 M35.2 24.65 L35.45 25.15 25.45 19.8 27.7 17.25 22.2 17.7 20.9 12.75 22.65 11.7 23.85 16.2 29.35 16.25 28.0 19.65 35.55 24.2 35.2 24.65 M45.45 8.15 L45.5 12.7 40.25 14.5 42.55 17.35 36.7 23.55 42.35 7.9 42.95 7.45 45.45 8.15 M46.5 13.0 L46.4 13.25 46.5 13.55 46.8 13.65 47.05 13.55 47.15 13.25 47.05 13.0 46.8 12.85 Q46.6 12.85 46.5 13.0 M46.6 9.95 L46.9 10.05 47.15 9.95 47.25 9.65 47.15 9.4 46.9 9.25 Q46.7 9.25 46.6 9.4 L46.5 9.65 46.6 9.95 M41.0 20.15 L42.9 17.35 40.6 14.55 45.85 12.85 45.65 8.2 47.65 8.7 47.9 13.8 42.5 15.0 45.4 16.75 37.55 24.55 37.6 24.3 40.3 20.6 40.85 21.1 41.15 20.65 41.0 20.15 M-4.6 -28.5 L-8.6 -37.85 -6.7 -27.85 Q-5.2 -27.55 -4.6 -28.5 M-17.85 22.45 L-17.95 22.15 -18.25 22.05 -18.6 22.15 -18.7 22.45 -18.6 22.75 -18.25 22.9 -17.95 22.75 -17.85 22.45 M-18.4 18.3 L-18.5 18.6 -18.4 18.9 -18.05 19.0 -17.75 18.9 -17.65 18.6 -17.75 18.3 -18.05 18.15 -18.4 18.3 M-25.0 29.8 L-22.8 26.85 -25.4 23.9 -19.35 22.0 -19.5 17.05 -17.2 17.55 -17.0 23.0 -23.25 24.35 -19.9 26.2 -31.25 37.05 -31.35 36.5 -29.6 34.8 -29.25 34.6 -29.15 34.1 -25.85 30.65 -25.15 30.65 -24.95 30.55 -24.6 30.4 -24.8 30.15 -25.0 29.8 M-16.3 18.15 L-12.6 19.25 -13.85 24.75 -13.1 25.2 -21.35 33.0 -23.8 33.15 -20.05 33.1 -28.15 41.7 -29.4 36.05 -18.55 26.25 -22.3 24.55 -16.15 23.75 -16.3 18.15 M-15.75 32.7 Q-16.0 32.7 -16.2 32.95 L-16.35 33.55 -16.2 34.15 -15.75 34.35 Q-15.5 34.35 -15.3 34.15 L-15.1 33.55 -15.3 32.95 Q-15.5 32.7 -15.75 32.7 M-19.75 17.0 L-19.7 21.85 -25.85 23.8 -23.25 26.85 -30.15 33.55 -23.2 16.6 -22.65 16.2 -19.75 17.0 M-21.6 27.0 L-21.3 26.9 -21.15 26.6 -21.3 26.3 Q-21.4 26.15 -21.6 26.15 -21.8 26.15 -21.9 26.3 L-22.05 26.6 -21.9 26.9 -21.6 27.0 M-24.35 24.45 L-24.05 24.6 Q-23.85 24.6 -23.75 24.45 L-23.6 24.15 -23.75 23.85 -24.05 23.75 -24.35 23.85 -24.45 24.15 -24.35 24.45 M-37.25 31.9 L-37.1 32.2 -36.8 32.35 -36.5 32.2 -36.4 31.9 -36.5 31.6 -36.8 31.5 -37.1 31.6 -37.25 31.9 M-30.45 38.85 L-30.3 39.15 -30.0 39.25 -29.7 39.15 -29.6 38.85 -29.7 38.5 -30.0 38.4 -30.3 38.5 -30.45 38.85 M-44.5 25.5 L-45.85 20.85 -43.3 19.25 -31.15 33.7 -39.7 29.25 -38.1 25.6 -44.5 25.5 M-40.1 26.45 L-39.95 26.75 -39.65 26.9 -39.35 26.75 -39.25 26.45 -39.35 26.15 -39.65 26.05 -39.95 26.15 -40.1 26.45 M-41.05 29.8 L-40.9 29.5 Q-40.9 29.3 -41.05 29.2 -41.15 29.05 -41.35 29.05 L-41.65 29.2 -41.75 29.5 -41.65 29.8 -41.35 29.9 -41.05 29.8 M53.7 30.3 L53.95 32.0 52.9 32.15 53.7 30.3 M44.25 17.4 L44.35 17.1 44.25 16.85 43.95 16.7 Q43.8 16.7 43.7 16.85 L43.6 17.1 43.7 17.4 43.95 17.5 44.25 17.4 M37.4 24.95 L35.75 26.6 36.95 24.9 37.4 24.95 M28.05 16.6 L27.95 16.9 28.05 17.15 28.35 17.25 28.6 17.15 28.7 16.9 28.6 16.6 28.35 16.5 28.05 16.6 M27.3 19.7 L27.2 19.45 Q27.1 19.3 26.95 19.3 26.75 19.3 26.65 19.45 L26.55 19.7 26.65 19.95 26.95 20.1 27.2 19.95 27.3 19.7 M22.7 16.85 L22.8 17.15 23.1 17.25 23.35 17.15 23.5 16.85 23.35 16.6 23.1 16.5 22.8 16.6 22.7 16.85 M30.9 21.6 Q30.7 21.6 30.6 21.75 L30.5 22.0 30.6 22.25 30.9 22.4 31.15 22.25 31.25 22.0 31.15 21.75 30.9 21.6 M24.3 20.2 L35.25 25.8 35.95 31.35 17.8 20.55 18.35 19.9 16.3 16.35 20.3 13.5 21.7 18.6 27.0 17.65 24.3 20.2 M23.25 28.4 L23.45 27.8 23.25 27.2 22.85 26.95 22.4 27.2 22.2 27.8 22.4 28.4 22.85 28.6 Q23.1 28.6 23.25 28.4 M37.15 28.8 L37.25 28.5 37.15 28.25 36.85 28.1 Q36.7 28.1 36.6 28.25 L36.45 28.5 36.6 28.8 36.85 28.9 37.15 28.8 M37.65 31.95 L36.65 31.75 35.85 27.35 37.05 26.15 38.5 32.8 38.05 32.2 37.65 31.95" fill="#333333" fill-rule="evenodd" stroke="none"/>
    <path d="M10.5 16.95 L7.25 19.5 4.0 8.0 Q6.8 10.25 9.35 13.7 L10.5 16.95 M5.75 20.65 L2.4 23.25 -4.4 20.85 -5.2 9.65 Q-3.75 6.8 -1.7 4.7 0.55 5.55 2.65 7.0 L5.75 20.65 M-9.8 18.95 L-10.45 18.75 Q-10.75 -3.35 -10.2 -25.5 L-9.65 -25.45 Q-10.4 -4.4 -9.8 18.95 M-27.0 1.25 Q-24.95 2.45 -23.8 4.25 -28.85 4.8 -31.0 3.55 -30.95 3.0 -31.35 2.7 -31.65 2.5 -31.9 2.7 L-31.9 2.8 Q-31.3 2.9 -31.4 3.45 -31.5 3.8 -32.2 3.95 -32.1 2.8 -32.8 2.15 -30.45 0.65 -27.9 1.8 L-27.85 1.75 Q-26.55 2.8 -26.45 4.05 L-24.4 3.7 Q-25.7 1.75 -28.35 1.0 L-27.9 1.65 Q-30.5 -0.05 -33.1 1.9 -35.25 1.05 -37.2 2.3 L-37.7 2.25 Q-39.45 2.1 -40.9 2.75 L-40.0 2.3 -38.15 1.7 Q-33.2 0.4 -27.75 0.95 L-27.0 1.25 M-41.9 3.5 L-36.55 2.45 Q-34.9 1.95 -33.4 2.95 -32.9 3.25 -32.9 3.9 -33.6 4.75 -34.55 4.95 L-38.4 4.45 -38.2 3.6 -37.55 3.5 -38.25 3.3 -40.05 5.1 -41.7 6.1 -43.45 6.7 Q-43.3 5.1 -41.9 3.5 M-27.75 5.2 L-31.55 7.3 Q-32.85 8.05 -34.4 7.9 L-39.9 6.9 -37.75 5.5 Q-34.85 6.75 -32.45 4.55 -31.95 4.65 -31.15 4.2 -29.75 5.05 -27.75 5.2 M2.45 -5.4 L1.7 -5.5 2.3 -5.95 2.45 -5.4 M2.25 -5.95 L0.2 -5.35 0.05 -5.8 1.6 -7.8 2.25 -5.95 M1.25 -8.75 L-0.3 -7.05 -2.1 -13.45 -0.55 -6.75 -2.4 -5.0 -1.85 -4.1 Q-1.2 -2.25 0.55 -2.1 L2.4 5.85 Q0.3 4.25 -1.95 3.15 -3.95 5.75 -5.3 8.4 L-5.95 -0.75 Q-3.4 -1.3 -3.45 -3.8 L-3.25 -4.85 -6.35 -6.15 -7.8 -25.45 -6.2 -25.65 -4.95 -25.95 1.25 -8.75 M1.1 -2.1 L1.65 -2.15 1.1 -2.2 0.35 -4.8 2.5 -5.35 9.1 13.1 Q6.6 9.45 3.65 6.9 L1.1 -2.1 M0.5 -2.3 Q-0.95 -2.75 -1.5 -4.2 L-0.05 -4.7 0.5 -2.3 M25.45 -7.45 L31.05 -7.3 Q33.9 -9.6 37.5 -8.9 L38.6 -8.7 Q40.95 -2.7 41.25 3.85 38.95 5.75 36.05 6.6 L33.7 7.35 28.65 6.85 27.2 0.4 Q31.95 -2.05 37.75 -1.1 L38.3 4.85 40.85 3.55 Q40.5 -1.7 38.5 -8.35 L36.95 -8.75 37.05 -7.7 32.55 -5.25 32.25 -4.75 37.3 -5.55 37.65 -1.95 33.3 -3.15 33.0 -4.0 32.3 -3.6 32.85 -3.75 32.9 -3.1 30.9 -2.8 30.85 -4.75 25.8 -5.85 25.45 -7.45 M25.65 6.1 L25.3 5.95 Q24.0 0.05 24.15 -6.45 L24.2 -6.5 24.3 -6.55 Q24.35 0.45 25.65 6.1 M37.15 -6.9 L37.25 -5.8 33.2 -5.2 37.15 -6.9 M32.85 1.85 L33.05 0.95 Q31.8 0.5 32.7 1.45 L32.85 1.85 M37.7 -1.65 L37.7 -1.45 30.85 -1.0 26.65 0.3 Q28.2 -1.8 31.25 -2.35 34.25 -2.9 37.7 -1.65 M26.2 -4.15 L25.95 -5.1 29.9 -4.7 26.2 -4.15 M26.25 -3.85 L30.8 -4.55 30.6 -2.8 Q28.75 -2.0 27.0 -0.5 L26.25 -3.85 M-4.6 -28.5 Q-5.2 -27.55 -6.7 -27.85 L-8.6 -37.85 -4.6 -28.5 M-32.7 14.85 L-31.25 14.55 -29.2 13.8 -28.85 13.65 -28.6 13.55 -28.1 13.35 -25.35 12.25 -25.75 13.6 -32.85 17.1 -40.0 16.0 -40.3 15.05 -32.7 14.85 M-6.3 -4.95 L-5.2 -4.35 -6.2 -4.15 -6.3 -4.95 M-6.2 -3.6 L-3.8 -3.75 Q-3.8 -1.65 -5.95 -0.75 L-6.2 -3.6" fill="#cccccc" fill-rule="evenodd" stroke="none"/>
    <path d="M-3.3 -26.55 L-0.5 -19.95 Q5.9 -4.9 13.2 15.25 L11.25 16.5 10.9 16.6 10.5 16.95 9.35 13.7 11.25 16.5 9.1 13.1 2.5 -5.35 2.7 -5.4 2.45 -5.4 2.3 -5.95 2.25 -5.95 1.6 -7.8 2.5 -9.2 1.5 -9.0 1.25 -8.75 -4.95 -25.95 Q-4.1 -26.2 -3.3 -26.55 M7.25 19.5 L5.75 20.65 2.65 7.0 4.0 8.0 7.25 19.5 M-27.85 1.75 L-27.9 1.65 -28.35 1.0 Q-25.7 1.75 -24.4 3.7 L-26.45 4.05 Q-26.55 2.8 -27.85 1.75 M-29.25 42.85 Q-29.15 43.0 -29.35 42.95 -29.8 42.75 -29.25 42.75 L-29.25 42.85 M0.2 -5.35 L-0.2 -5.25 -0.25 -5.45 0.05 -5.8 0.2 -5.35 M-0.3 -7.05 L-0.55 -6.75 -2.1 -13.45 -0.3 -7.05 M0.55 -2.1 L1.1 -2.1 3.65 6.9 2.4 5.85 0.55 -2.1 M1.1 -2.2 L0.5 -2.3 -0.05 -4.7 0.35 -4.8 1.1 -2.2 M21.55 13.45 L21.65 13.2 Q21.75 13.05 21.9 13.05 22.05 13.05 22.2 13.2 L22.3 13.45 22.2 13.75 21.9 13.85 21.65 13.75 21.55 13.45 M37.65 -1.95 L37.3 -5.55 38.15 -5.65 37.25 -5.8 37.15 -6.9 37.85 -8.05 37.05 -7.7 36.95 -8.75 38.5 -8.35 Q40.5 -1.7 40.85 3.55 L38.3 4.85 37.75 -1.1 39.45 -0.75 39.4 0.4 39.7 -0.9 37.65 -1.95 M37.7 -1.65 L38.4 -1.35 37.7 -1.45 37.7 -1.65 M24.5 9.3 L25.15 7.15 33.4 8.7 31.55 12.05 24.5 9.3 M33.8 12.0 L34.0 11.65 34.5 11.5 35.0 11.65 35.2 12.0 34.5 12.55 34.0 12.35 33.8 12.0 M31.9 12.7 L33.2 14.05 32.3 17.7 27.6 11.15 31.9 12.7 M41.8 14.45 L42.05 14.55 42.15 14.85 42.05 15.1 41.8 15.2 41.5 15.1 41.4 14.85 41.5 14.55 Q41.6 14.45 41.8 14.45 M40.8 9.15 L38.3 16.7 36.3 13.6 37.15 11.85 40.8 9.15 M34.55 8.5 L41.95 4.6 43.25 6.45 37.35 11.15 34.55 8.5 M35.2 24.65 L35.55 24.2 Q35.75 25.3 35.2 24.65 M46.6 9.95 L46.5 9.65 46.6 9.4 Q46.7 9.25 46.9 9.25 L47.15 9.4 47.25 9.65 47.15 9.95 46.9 10.05 46.6 9.95 M46.5 13.0 Q46.6 12.85 46.8 12.85 L47.05 13.0 47.15 13.25 47.05 13.55 46.8 13.65 46.5 13.55 46.4 13.25 46.5 13.0 M37.55 24.55 Q36.9 24.65 37.2 24.15 37.4 23.9 37.6 24.3 L37.55 24.55 M41.15 20.65 Q40.4 20.6 40.8 20.2 L41.0 20.15 41.15 20.65 M-42.85 13.35 L-42.25 13.4 -41.45 14.75 -42.7 14.6 -46.45 8.55 -45.6 8.05 -42.85 13.35 M-42.05 13.45 L-39.4 13.3 -38.75 15.0 -41.25 14.8 -42.05 13.45 M-39.2 13.1 L-42.6 13.25 -45.05 7.8 -42.3 7.1 -39.2 13.1 M-32.7 14.85 L-35.6 15.0 -36.1 13.1 -34.1 12.9 -33.65 14.7 -33.7 12.95 -33.7 12.8 -31.35 12.2 -31.25 14.55 -32.7 14.85 M-37.75 7.5 L-34.7 8.05 -34.2 12.65 -36.15 12.9 -37.75 7.5 M-29.2 13.8 L-30.95 14.3 -31.05 12.2 -28.75 11.5 -28.85 13.65 -29.2 13.8 M-28.6 13.55 L-28.45 11.4 -26.45 10.45 -26.9 12.8 -28.1 13.35 -28.6 13.55 M-33.7 12.75 L-33.6 12.7 -33.7 12.8 -33.7 12.75 M-36.5 12.95 L-39.0 13.2 -41.7 7.05 -38.1 7.45 -36.5 12.95 M-31.35 11.95 L-33.7 12.65 -34.05 8.0 -31.5 8.0 -31.35 11.95 M-24.85 9.2 Q-24.55 10.55 -24.75 11.25 -25.0 11.95 -26.25 12.45 L-25.1 4.75 -23.1 5.25 -24.05 8.45 -24.85 9.2 M-28.1 5.8 L-25.45 4.7 -26.4 9.95 -28.45 11.0 -28.1 5.8 M-31.05 11.9 L-31.25 7.6 -28.5 6.05 -28.7 11.15 -31.05 11.9 M-39.25 13.35 L-36.4 13.15 -35.85 15.0 -38.5 15.0 -39.25 13.35 M-18.4 18.3 L-18.05 18.15 -17.75 18.3 -17.65 18.6 -17.75 18.9 -18.05 19.0 -18.4 18.9 -18.5 18.6 -18.4 18.3 M-17.85 22.45 L-17.95 22.75 -18.25 22.9 -18.6 22.75 -18.7 22.45 -18.6 22.15 -18.25 22.05 -17.95 22.15 -17.85 22.45 M-29.6 34.8 Q-30.45 34.3 -29.45 34.1 L-29.15 34.1 -29.25 34.6 -29.6 34.8 M-25.15 30.65 L-25.5 30.55 -25.7 30.3 -25.65 30.05 -25.4 29.85 -25.0 29.8 -24.8 30.15 -24.95 30.55 -25.15 30.65 M-12.25 24.4 L-11.4 19.55 1.6 24.0 -0.95 31.4 -12.25 24.4 M-15.75 32.7 Q-15.5 32.7 -15.3 32.95 L-15.1 33.55 -15.3 34.15 Q-15.5 34.35 -15.75 34.35 L-16.2 34.15 -16.35 33.55 -16.2 32.95 Q-16.0 32.7 -15.75 32.7 M-24.35 24.45 L-24.45 24.15 -24.35 23.85 -24.05 23.75 -23.75 23.85 -23.6 24.15 -23.75 24.45 Q-23.85 24.6 -24.05 24.6 L-24.35 24.45 M-21.6 27.0 L-21.9 26.9 -22.05 26.6 -21.9 26.3 Q-21.8 26.15 -21.6 26.15 -21.4 26.15 -21.3 26.3 L-21.15 26.6 -21.3 26.9 -21.6 27.0 M-28.2 26.25 L-30.45 22.95 -29.45 20.95 -25.05 17.95 -28.2 26.25 M-32.3 17.4 L-23.7 13.15 -22.3 15.1 -29.2 20.2 -32.3 17.4 M-33.05 20.8 Q-32.85 20.65 -32.5 20.65 L-31.9 20.8 Q-31.65 20.95 -31.65 21.2 L-31.9 21.6 -32.5 21.8 -33.05 21.6 -33.3 21.2 -33.05 20.8 M-34.05 23.4 L-35.1 27.3 -40.4 20.3 -35.5 22.0 -34.05 23.4 M-32.25 26.85 L-31.5 26.65 -30.75 26.85 Q-30.45 27.05 -30.45 27.35 L-30.75 27.85 -31.5 28.1 -32.25 27.85 -32.55 27.35 -32.25 26.85 M-33.7 17.65 L-35.9 21.2 -43.95 18.25 -43.15 16.05 -33.7 17.65 M-37.25 31.9 L-37.1 31.6 -36.8 31.5 -36.5 31.6 -36.4 31.9 -36.5 32.2 -36.8 32.35 -37.1 32.2 -37.25 31.9 M-31.5 34.65 L-31.8 35.0 Q-32.05 34.35 -31.5 34.65 M-30.45 38.85 L-30.3 38.5 -30.0 38.4 -29.7 38.5 -29.6 38.85 -29.7 39.15 -30.0 39.25 -30.3 39.15 -30.45 38.85 M-19.85 32.85 L-20.6 32.9 -18.85 31.75 -19.85 32.85 M-41.05 29.8 L-41.35 29.9 -41.65 29.8 -41.75 29.5 -41.65 29.2 -41.35 29.05 Q-41.15 29.05 -41.05 29.2 -40.9 29.3 -40.9 29.5 L-41.05 29.8 M-40.1 26.45 L-39.95 26.15 -39.65 26.05 -39.35 26.15 -39.25 26.45 -39.35 26.75 -39.65 26.9 -39.95 26.75 -40.1 26.45 M49.2 20.65 L49.85 20.25 51.7 22.55 49.2 20.65 M44.25 17.4 L43.95 17.5 43.7 17.4 43.6 17.1 43.7 16.85 Q43.8 16.7 43.95 16.7 L44.25 16.85 44.35 17.1 44.25 17.4 M48.5 20.45 L50.9 22.65 44.95 23.0 48.5 20.45 M34.8 17.3 L35.45 17.1 36.1 17.3 36.35 17.75 36.1 18.2 35.45 18.4 34.8 18.2 34.55 17.75 Q34.55 17.45 34.8 17.3 M30.9 21.6 L31.15 21.75 31.25 22.0 31.15 22.25 30.9 22.4 30.6 22.25 30.5 22.0 30.6 21.75 Q30.7 21.6 30.9 21.6 M22.7 16.85 L22.8 16.6 23.1 16.5 23.35 16.6 23.5 16.85 23.35 17.15 23.1 17.25 22.8 17.15 22.7 16.85 M27.3 19.7 L27.2 19.95 26.95 20.1 26.65 19.95 26.55 19.7 26.65 19.45 Q26.75 19.3 26.95 19.3 27.1 19.3 27.2 19.45 L27.3 19.7 M28.05 16.6 L28.35 16.5 28.6 16.6 28.7 16.9 28.6 17.15 28.35 17.25 28.05 17.15 27.95 16.9 28.05 16.6 M23.25 28.4 Q23.1 28.6 22.85 28.6 L22.4 28.4 22.2 27.8 22.4 27.2 22.85 26.95 23.25 27.2 23.45 27.8 23.25 28.4 M37.15 28.8 L36.85 28.9 36.6 28.8 36.45 28.5 36.6 28.25 Q36.7 28.1 36.85 28.1 L37.15 28.25 37.25 28.5 37.15 28.8 M38.05 32.2 Q38.1 32.9 37.35 32.1 L37.65 31.95 38.05 32.2 M16.7 20.05 L7.95 30.1 3.35 23.75 14.5 15.65 16.7 20.05 M2.85 30.95 Q3.2 30.6 3.65 30.65 4.15 30.6 4.5 30.95 L4.8 31.8 4.5 32.6 Q4.15 32.95 3.65 32.95 3.2 32.95 2.85 32.6 2.5 32.25 2.5 31.8 2.5 31.3 2.85 30.95" fill="#ffffff" fill-rule="evenodd" stroke="none"/>
    <path d="M2.45 39.05 L2.7 36.5 5.9 35.8 7.05 38.4 2.45 39.05 M33.8 12.0 L34.0 12.35 34.5 12.55 35.2 12.0 35.0 11.65 34.5 11.5 34.0 11.65 33.8 12.0 M33.25 13.5 L32.1 12.55 34.05 9.2 36.9 11.8 35.9 13.4 33.25 13.5 M35.8 13.7 L38.05 17.35 36.15 23.1 32.75 18.35 33.75 14.1 35.8 13.7 M-33.05 20.8 L-33.3 21.2 -33.05 21.6 -32.5 21.8 -31.9 21.6 -31.65 21.2 Q-31.65 20.95 -31.9 20.8 L-32.5 20.65 Q-32.85 20.65 -33.05 20.8 M-33.95 22.85 L-35.25 21.85 -32.95 18.2 -29.75 21.0 -30.9 22.7 -33.95 22.85 M-32.25 26.85 L-32.55 27.35 -32.25 27.85 -31.5 28.1 -30.75 27.85 -30.45 27.35 Q-30.45 27.05 -30.75 26.85 L-31.5 26.65 -32.25 26.85 M-31.0 23.05 L-28.45 27.0 -30.75 33.1 -34.6 28.0 -33.4 23.5 -31.0 23.05 M34.8 17.3 Q34.55 17.45 34.55 17.75 L34.8 18.2 35.45 18.4 36.1 18.2 36.35 17.75 36.1 17.3 35.45 17.1 34.8 17.3 M2.85 30.95 Q2.5 31.3 2.5 31.8 2.5 32.25 2.85 32.6 3.2 32.95 3.65 32.95 4.15 32.95 4.5 32.6 L4.8 31.8 4.5 30.95 Q4.15 30.6 3.65 30.65 3.2 30.6 2.85 30.95 M6.0 35.1 Q3.4 35.7 1.85 35.05 L-0.05 32.8 2.65 25.3 7.35 31.65 6.0 35.1" fill="#666666" fill-rule="evenodd" stroke="none"/>
    <path d="M-0.2 -5.25 L-0.4 -5.25 -0.25 -5.45 -0.2 -5.25" fill="#cccc66" fill-rule="evenodd" stroke="none"/>
  </g>
</svg>
