<?xml version="1.0" encoding="UTF-8" standalone="no"?>
<svg xmlns:xlink="http://www.w3.org/1999/xlink" height="96.4px" width="124.65px" xmlns="http://www.w3.org/2000/svg">
  <g transform="matrix(1.0, 0.0, 0.0, 1.0, 60.7, 26.65)">
    <path d="M-57.8 4.85 L-58.85 4.9 -60.7 -12.85 -33.5 -15.0 Q-15.4 -16.2 21.25 -21.45 L58.05 -26.65 58.3 -26.45 58.45 -26.1 62.45 14.7 62.85 20.6 63.1 25.4 63.15 26.3 63.2 26.7 63.25 28.05 63.95 50.0 -53.3 69.75 -53.65 69.7 -53.95 69.5 -54.05 69.15 -58.85 4.9 -57.8 4.85 -53.4 69.1 63.15 48.95 60.0 -1.4 57.8 -26.05 Q-0.3 -16.35 -59.3 -12.4 L-57.8 4.85" fill="#333333" fill-rule="evenodd" stroke="none"/>
    <path d="M-57.8 4.85 L-59.3 -12.4 Q-0.3 -16.35 57.8 -26.05 L60.0 -1.4 63.15 48.95 -53.4 69.1 -57.8 4.85 -56.4 4.8 -57.8 4.85" fill="#ffffff" fill-rule="evenodd" stroke="none"/>
  </g>
</svg>
