<?xml version="1.0" encoding="UTF-8" standalone="no"?>
<svg xmlns:xlink="http://www.w3.org/1999/xlink" height="618.15px" width="807.45px" xmlns="http://www.w3.org/2000/svg">
  <g transform="matrix(1.0, 0.0, 0.0, 1.0, 5.75, 12.5)">
    <path d="M686.75 188.5 L687.3 176.1 653.85 176.15 653.85 605.65 149.5 605.65 149.5 180.15 116.65 181.0 116.65 194.55 Q115.2 194.85 112.75 196.2 L109.3 196.1 Q107.0 195.35 106.8 193.8 106.55 192.2 95.5 190.75 84.4 189.3 68.5 183.75 L68.8 196.0 23.25 184.45 22.95 192.85 -3.75 184.95 -5.75 -12.5 799.7 -10.5 801.7 182.9 780.75 189.15 779.85 180.15 734.9 192.55 734.9 180.05 Q719.0 185.6 707.3 186.75 695.6 187.85 695.5 189.5 695.35 191.1 693.8 191.85 692.2 192.55 690.65 191.3 L686.75 188.5" fill="#00ffff" fill-rule="evenodd" stroke="none"/>
  </g>
</svg>
