<?xml version="1.0" encoding="UTF-8" standalone="no"?>
<svg xmlns:xlink="http://www.w3.org/1999/xlink" height="187.2px" width="74.7px" xmlns="http://www.w3.org/2000/svg">
  <g transform="matrix(1.0, 0.0, 0.0, 1.0, 36.8, 96.2)">
    <path d="M6.6 -48.8 Q4.7 -46.7 1.0 -48.2 L0.8 -74.5 6.6 -48.8" fill="#cccccc" fill-rule="evenodd" stroke="none"/>
    <path d="M9.0 -43.2 L4.55 -42.55 1.2 -42.4 -3.0 -42.6 -7.65 -43.5 -9.1 -43.9 -7.0 -53.8 -0.05 -87.0 2.65 -73.0 9.0 -43.2 M6.6 -48.8 L0.8 -74.5 1.0 -48.2 Q4.7 -46.7 6.6 -48.8" fill="#333333" fill-rule="evenodd" stroke="none"/>
    <path d="M24.8 81.8 Q28.6 80.2 32.25 78.0 22.65 18.85 12.95 -25.15 L9.0 -43.2 2.65 -73.0 -0.05 -87.0 -7.0 -53.8 -9.1 -43.9 Q-21.7 15.9 -31.85 76.05 L-30.3 76.95 Q-23.9 80.6 -16.85 82.8 -8.75 85.35 0.15 85.9 5.0 86.2 9.75 85.7 L14.55 84.95 Q19.75 83.85 24.8 81.8 M12.1 4.1 L12.8 3.55 15.5 3.45 12.55 6.65 7.7 11.0 6.8 11.7 6.2 12.15 6.8 12.2 7.8 12.25 13.35 11.7 13.4 11.7 13.35 11.7 11.65 12.55 13.6 13.1 14.15 13.25 13.6 13.25 7.95 13.7 6.9 13.8 3.0 14.35 Q3.75 18.3 7.15 20.05 L8.6 20.6 9.95 20.95 8.6 20.85 7.2 20.6 Q2.9 19.4 2.1 14.45 L2.05 14.4 1.05 11.8 6.65 8.25 7.4 7.7 12.1 4.1 M21.75 63.2 Q23.8 67.8 25.55 72.95 23.9 68.7 22.05 64.9 17.2 54.9 11.1 47.85 L8.25 44.7 Q3.6 40.0 -1.7 36.85 -7.95 41.2 -13.0 47.75 -20.25 57.15 -25.05 71.05 -22.25 56.8 -12.6 44.45 -7.95 38.4 -1.6 32.8 3.6 36.65 8.1 41.65 L10.85 44.85 Q17.1 52.75 21.75 63.2 M11.15 -43.8 L14.35 -29.7 Q24.65 15.0 37.9 79.85 32.95 84.8 25.85 87.6 21.05 89.45 15.3 90.3 L9.9 90.85 Q5.8 91.1 1.3 90.95 -26.45 88.8 -36.8 79.3 -25.5 16.6 -11.85 -45.0 L-5.65 -72.4 -0.05 -96.2 Q1.7 -86.9 4.7 -72.9 L11.15 -43.8 M-8.45 7.05 L-1.2 11.8 -2.2 14.4 -2.2 14.45 Q-3.25 20.8 -10.0 20.95 -4.15 19.7 -3.15 14.35 L-9.2 13.6 -14.3 13.25 -11.8 12.55 -13.55 11.7 -9.05 12.2 -6.35 12.15 -8.8 10.2 Q-12.4 7.2 -15.65 3.45 L-12.95 3.55 -8.45 7.05 M-10.0 20.95 L-10.1 20.95 -10.0 20.95" fill="#000000" fill-rule="evenodd" stroke="none"/>
    <path d="M4.55 -42.55 L12.1 4.1 7.4 7.7 5.8 -9.4 6.65 8.25 1.05 11.8 2.05 14.4 2.1 14.45 Q2.9 19.4 7.2 20.6 L8.1 41.65 Q3.6 36.65 -1.6 32.8 -7.95 38.4 -12.6 44.45 L-10.0 20.95 Q-3.25 20.8 -2.2 14.45 L-2.2 14.4 -1.2 11.8 -8.45 7.05 -3.0 -42.6 1.2 -42.4 4.55 -42.55 M12.55 6.65 L13.35 11.7 13.6 13.1 11.65 12.55 13.35 11.7 7.8 12.25 7.7 11.0 12.55 6.65 M13.6 13.25 L21.75 63.2 Q17.1 52.75 10.85 44.85 L8.6 20.85 9.95 20.95 8.6 20.6 7.95 13.7 13.6 13.25 M22.05 64.9 L24.8 81.8 Q19.75 83.85 14.55 84.95 L11.1 47.85 Q17.2 54.9 22.05 64.9 M9.75 85.7 Q5.0 86.2 0.15 85.9 -8.75 85.35 -16.85 82.8 L-13.0 47.75 Q-7.95 41.2 -1.7 36.85 3.6 40.0 8.25 44.7 L9.75 85.7 M-30.3 76.95 L-31.85 76.05 Q-21.7 15.9 -9.1 -43.9 L-7.65 -43.5 Q-20.25 13.05 -30.3 76.95 M6.8 11.7 L6.8 12.2 6.2 12.15 6.8 11.7 M7.15 20.05 Q3.75 18.3 3.0 14.35 L6.9 13.8 7.15 20.05 M-9.05 12.2 L-8.8 10.2 -6.35 12.15 -9.05 12.2 M-9.2 13.6 L-3.15 14.35 Q-4.15 19.7 -10.0 20.95 L-9.2 13.6" fill="#cccc66" fill-rule="evenodd" stroke="none"/>
    <path d="M9.0 -43.2 L12.95 -25.15 Q22.65 18.85 32.25 78.0 28.6 80.2 24.8 81.8 L22.05 64.9 Q23.9 68.7 25.55 72.95 23.8 67.8 21.75 63.2 L13.6 13.25 14.15 13.25 13.6 13.1 13.35 11.7 12.55 6.65 15.5 3.45 12.8 3.55 12.1 4.1 4.55 -42.55 9.0 -43.2 M13.35 11.7 L13.4 11.7 13.35 11.7 M14.55 84.95 L9.75 85.7 8.25 44.7 11.1 47.85 14.55 84.95 M7.7 11.0 L7.8 12.25 6.8 12.2 6.8 11.7 7.7 11.0 M7.2 20.6 L8.6 20.85 10.85 44.85 8.1 41.65 7.2 20.6 M8.6 20.6 L7.15 20.05 6.9 13.8 7.95 13.7 8.6 20.6 M7.4 7.7 L6.65 8.25 5.8 -9.4 7.4 7.7" fill="#ccff66" fill-rule="evenodd" stroke="none"/>
    <path d="M-16.85 82.8 Q-23.9 80.6 -30.3 76.95 -20.25 13.05 -7.65 -43.5 L-3.0 -42.6 -8.45 7.05 -12.95 3.55 -15.65 3.45 Q-12.4 7.2 -8.8 10.2 L-9.05 12.2 -13.55 11.7 -11.8 12.55 -14.3 13.25 -9.2 13.6 -10.0 20.95 -12.6 44.45 Q-22.25 56.8 -25.05 71.05 -20.25 57.15 -13.0 47.75 L-16.85 82.8 M-10.0 20.95 L-10.1 20.95 -10.0 20.95" fill="#999966" fill-rule="evenodd" stroke="none"/>
  </g>
</svg>
