<?xml version="1.0" encoding="UTF-8" standalone="no"?>
<svg xmlns:xlink="http://www.w3.org/1999/xlink" height="51.25px" width="243.0px" xmlns="http://www.w3.org/2000/svg">
  <g transform="matrix(1.0, 0.0, 0.0, 1.0, 121.5, 24.15)">
    <path d="M16.05 -23.75 L22.2 -23.55 Q24.75 -23.55 26.9 -21.35 L28.8 -23.8 Q36.8 -23.55 41.05 -23.6 45.25 -23.7 46.7 -21.3 46.7 -21.95 51.25 -22.25 55.8 -22.55 56.95 -20.85 57.6 -22.35 62.05 -22.8 64.85 -23.15 67.9 -22.9 L68.9 -21.85 76.65 -21.55 Q85.85 -23.8 93.35 -21.75 L94.35 -21.95 Q105.15 -23.0 106.4 -19.65 109.35 -22.5 113.1 -22.3 L119.05 -21.9 120.9 -21.15 Q121.55 -21.2 121.5 -18.55 121.4 -15.95 119.3 -8.45 117.2 -0.95 117.25 -0.4 L117.1 -0.35 113.95 -0.3 108.5 -0.55 Q106.9 -0.15 101.5 -0.65 L98.65 -0.85 97.55 -1.5 97.85 -1.65 97.45 -1.55 97.2 -1.65 97.25 -1.5 Q85.95 1.25 78.0 -0.85 75.45 0.85 68.0 -0.35 L67.4 -2.35 66.65 -6.95 Q66.0 -4.6 65.35 -3.15 64.7 -1.75 63.25 -1.35 L58.15 -0.4 53.45 -0.15 51.55 -0.85 Q50.8 -1.15 48.25 -6.2 48.7 -4.8 48.25 -2.65 47.8 -0.5 45.8 -0.3 43.75 -0.15 40.0 -0.3 L32.15 -0.4 Q28.05 -0.3 28.05 -2.0 27.3 -0.3 26.85 -0.15 23.55 1.25 20.1 0.3 18.25 1.05 16.25 1.2 L13.3 1.1 10.8 0.7 Q9.15 0.3 8.25 -1.0 6.8 -3.1 7.3 -5.6 6.0 -4.75 4.5 -4.65 3.15 -4.5 1.8 -4.65 L2.4 -1.3 Q-3.7 1.05 -9.8 -0.4 L-9.7 -0.65 -10.25 -2.5 -10.7 -4.1 -11.0 -6.3 -11.4 -10.55 Q-11.85 -16.25 -11.05 -21.55 L-7.95 -22.55 Q-4.1 -23.8 0.0 -23.8 L2.95 -23.85 5.0 -23.8 6.6 -23.55 9.0 -22.3 Q9.6 -22.8 11.1 -23.35 L16.05 -23.75 M77.9 15.35 L76.95 26.15 65.6 26.0 65.45 26.6 54.25 25.6 53.7 26.15 37.15 26.4 36.15 25.75 Q35.15 24.6 33.85 21.2 L29.75 21.4 29.35 24.7 Q29.05 25.9 27.6 26.5 26.1 27.1 23.9 27.1 L20.75 27.1 Q17.7 27.05 16.5 24.35 L15.3 25.05 Q13.65 26.05 11.7 26.5 L7.45 26.95 Q3.45 26.95 -0.1 25.3 -1.6 24.55 -2.85 23.5 L-3.85 22.5 -3.95 22.4 -4.05 22.3 Q-6.1 19.95 -6.6 16.95 -7.35 12.3 -4.8 8.45 -3.3 6.2 -1.0 4.7 1.05 3.35 3.4 2.8 L5.15 2.5 Q11.15 1.65 16.2 4.95 L17.1 3.4 22.95 2.15 Q28.25 1.1 35.6 4.9 36.4 2.95 37.65 3.05 L44.7 3.0 Q50.6 2.8 54.05 3.9 L54.85 3.2 55.9 3.2 Q59.15 3.05 65.95 3.45 L76.85 4.0 Q77.25 4.05 78.3 4.85 78.55 6.55 77.9 15.35 M-115.65 -22.55 Q-112.85 -23.85 -111.2 -23.95 L-107.95 -24.15 -104.5 -23.6 -101.15 -22.2 Q-99.9 -22.95 -98.4 -23.0 L-91.25 -22.75 -88.7 -22.35 Q-88.1 -23.1 -87.15 -23.2 L-81.65 -23.25 -78.55 -23.05 Q-74.85 -23.35 -70.05 -23.15 L-61.7 -22.85 Q-58.1 -22.75 -57.8 -20.95 -57.45 -18.85 -57.7 -16.65 L-55.15 -20.85 Q-54.0 -22.5 -52.15 -22.6 L-47.35 -22.9 Q-44.45 -23.2 -42.5 -22.35 -40.55 -21.55 -39.0 -18.15 -39.85 -22.0 -35.95 -22.1 L-26.45 -21.35 Q-25.05 -23.1 -23.4 -23.05 L-18.15 -22.55 Q-14.5 -22.15 -13.5 -20.8 -12.5 -19.45 -13.6 -17.7 -15.35 -14.95 -17.25 -12.3 L-15.05 -9.8 Q-13.4 -7.75 -13.95 -5.25 -14.45 -3.15 -16.5 -2.15 -19.75 -0.55 -23.2 0.4 L-25.2 0.95 -26.9 -0.1 -34.05 1.05 Q-35.5 1.2 -36.75 0.5 L-37.8 -0.35 -38.6 -0.1 Q-42.55 1.35 -46.35 0.3 L-48.2 -0.2 Q-48.6 0.65 -49.5 1.0 L-50.9 1.25 -55.0 0.65 -59.05 0.1 -60.65 0.45 Q-67.7 0.35 -74.75 0.65 L-77.9 0.45 -78.0 -0.85 Q-79.75 0.15 -83.6 0.85 -87.5 1.5 -88.35 0.5 -89.2 -0.55 -92.65 -0.1 -96.1 0.3 -98.35 -0.05 -100.6 -0.45 -100.15 -1.8 -103.55 0.35 -104.4 0.5 L-110.4 0.4 Q-115.5 0.15 -117.0 -0.7 -118.6 -1.6 -120.05 -3.5 -121.55 -5.4 -121.5 -7.5 -121.5 -9.65 -118.25 -10.3 -121.3 -12.15 -120.7 -15.9 -120.15 -19.65 -119.3 -20.45 -118.5 -21.25 -115.65 -22.55 M-7.45 6.2 Q-7.9 7.85 -8.35 12.45 -8.8 17.05 -10.4 21.15 -12.0 25.25 -13.2 25.8 -14.4 26.35 -16.3 26.35 L-21.8 25.55 Q-22.4 26.25 -25.7 26.1 L-29.9 25.6 -30.85 25.25 -33.05 23.25 -33.8 23.9 Q-36.1 25.8 -38.95 26.55 L-45.7 27.0 Q-47.5 26.75 -49.15 26.1 L-53.55 24.4 -53.8 24.6 Q-55.8 25.95 -56.6 26.1 L-61.65 26.35 Q-65.85 26.35 -65.95 25.65 -66.0 24.9 -67.7 25.65 -69.5 26.4 -72.9 26.35 L-77.75 25.9 Q-79.25 25.45 -79.4 23.55 -79.55 21.6 -79.3 16.8 L-78.9 8.55 -78.6 4.6 -68.3 4.4 -65.85 7.8 -65.4 4.7 -65.3 4.5 Q-63.6 3.75 -52.9 4.7 L-52.9 5.7 Q-48.55 3.15 -41.55 3.95 -35.75 4.65 -35.85 5.15 -32.45 3.1 -24.2 3.9 -22.0 4.95 -21.7 5.7 L-20.7 4.45 -20.65 4.4 Q-13.9 2.8 -7.15 4.4 -7.05 4.55 -7.45 6.2" fill="#990000" fill-rule="evenodd" stroke="none"/>
  </g>
</svg>
