<?xml version="1.0" encoding="UTF-8" standalone="no"?>
<svg xmlns:xlink="http://www.w3.org/1999/xlink" height="171.25px" width="377.6px" xmlns="http://www.w3.org/2000/svg">
  <g transform="matrix(1.0, 0.0, 0.0, 1.0, 188.8, 85.6)">
    <path d="M58.3 -70.55 Q62.4 -71.2 65.35 -68.15 67.45 -65.9 68.1 -62.8 L68.2 -62.1 69.35 -62.3 77.65 -61.9 77.75 -61.9 Q80.4 -61.25 82.0 -59.6 84.95 -56.65 83.5 -52.75 L83.5 -52.6 82.3 -50.75 82.2 -50.7 82.15 -50.65 82.0 -50.5 82.6 -49.3 Q83.55 -47.2 83.35 -43.95 L83.35 -43.75 Q83.05 -40.5 81.5 -38.4 L81.5 -38.35 81.45 -38.3 81.45 -38.25 Q79.35 -35.35 75.2 -34.2 L75.15 -34.2 68.3 -33.65 Q64.35 -34.15 61.45 -36.0 L61.35 -36.1 Q59.7 -37.15 58.6 -38.45 L58.3 -38.2 58.25 -38.15 Q54.75 -34.5 49.55 -33.3 L48.3 -29.15 47.5 -26.1 Q48.65 -25.3 49.7 -24.15 52.7 -20.6 52.65 -16.0 L52.45 -11.0 53.75 -11.0 60.7 -10.15 61.2 -11.55 Q63.0 -15.75 67.0 -17.6 L67.2 -17.7 76.65 -21.7 76.8 -21.8 Q80.15 -23.05 83.8 -22.2 L83.85 -22.2 Q86.6 -21.55 88.65 -19.8 90.9 -21.05 93.45 -21.2 L99.95 -21.55 Q102.65 -21.65 105.15 -20.5 106.85 -23.85 110.35 -25.6 L110.45 -25.65 Q114.5 -27.65 118.75 -26.5 L118.8 -26.45 128.6 -23.5 128.65 -23.45 128.8 -23.4 Q133.1 -21.9 135.4 -17.75 L135.5 -17.5 143.55 -16.0 Q146.3 -15.6 148.65 -13.65 L148.75 -13.55 Q150.9 -11.8 152.05 -9.4 L152.2 -9.25 152.25 -9.25 152.25 -9.2 152.25 -9.15 152.3 -8.95 152.55 -8.25 152.6 -8.15 152.65 -8.05 152.9 -7.1 153.45 -8.85 153.5 -8.9 153.5 -8.95 Q154.75 -13.55 158.8 -15.9 162.55 -18.15 166.8 -17.5 L167.1 -17.5 Q172.05 -16.45 181.8 -12.25 L181.95 -12.2 Q185.95 -10.3 187.75 -6.1 189.6 -1.85 188.2 2.45 L188.1 2.65 188.1 2.6 166.55 60.35 Q164.9 64.6 160.75 66.7 156.65 68.7 152.25 67.5 L152.2 67.5 141.65 64.2 141.6 64.2 141.4 64.15 141.3 64.05 Q138.8 63.15 136.85 61.15 134.7 59.05 133.85 56.35 L133.75 56.2 132.25 48.65 Q128.7 49.8 124.9 48.55 L124.85 48.55 124.75 48.5 120.1 46.55 119.95 46.4 115.9 44.55 115.65 44.45 115.7 44.45 Q111.65 42.55 109.85 38.45 109.1 36.85 108.85 35.35 L104.45 35.6 Q102.0 35.6 99.7 34.65 97.35 35.95 94.9 36.1 L84.65 36.6 Q81.9 36.6 79.4 35.4 77.55 38.2 75.15 40.7 70.95 44.9 65.55 47.2 59.85 49.55 53.75 49.6 47.6 49.55 41.95 47.2 38.0 45.55 34.75 42.9 L33.85 43.8 Q30.15 47.0 25.4 46.95 L25.35 46.95 25.3 46.95 8.9 45.8 8.8 45.8 8.7 45.8 Q4.9 45.4 2.2 43.05 L-0.95 43.95 -1.05 43.95 -1.1 43.95 -12.25 45.25 -12.3 45.25 -15.4 45.1 Q-16.5 47.05 -18.3 48.55 L-18.35 48.6 -18.5 48.75 Q-21.2 50.9 -24.45 51.35 L-24.55 51.35 -30.5 51.8 120.45 51.8 Q127.45 51.8 132.4 56.8 137.3 61.75 137.4 68.7 137.3 75.75 132.4 80.65 127.45 85.65 120.45 85.65 L-106.75 85.65 Q-113.75 85.65 -118.7 80.65 -123.6 75.75 -123.6 68.7 -123.6 61.75 -118.7 56.8 -113.8 51.8 -106.75 51.8 L-39.05 51.8 Q-41.3 51.15 -43.25 49.65 -47.0 46.7 -47.7 42.15 L-47.75 42.05 -48.65 33.4 Q-51.1 35.0 -53.75 36.15 -59.25 38.45 -65.35 38.45 -71.45 38.45 -76.95 36.15 L-77.15 36.05 Q-79.6 35.0 -81.7 33.65 -83.9 37.6 -87.2 40.95 -91.5 45.2 -96.95 47.55 -102.75 50.0 -109.05 50.0 -114.9 50.0 -120.2 47.95 L-119.95 48.7 Q-118.75 53.7 -121.6 58.0 L-121.55 57.95 -121.65 58.05 Q-124.25 62.1 -128.85 63.35 L-129.1 63.35 -145.3 66.55 -145.35 66.55 Q-150.15 67.3 -154.2 64.5 -158.45 61.65 -159.3 56.7 L-159.35 56.6 -159.35 56.5 -164.85 15.6 -172.5 17.1 -172.6 17.1 -172.65 17.1 -172.8 17.1 Q-177.5 17.8 -181.45 15.05 -185.4 12.3 -186.4 7.65 L-186.4 7.6 -188.65 -4.7 -188.65 -4.8 Q-189.35 -9.5 -186.55 -13.4 L-186.45 -13.55 Q-183.65 -17.5 -179.05 -18.4 L-178.8 -18.5 Q-146.0 -24.3 -129.55 -26.55 L-129.45 -26.55 Q-125.1 -27.0 -121.3 -24.4 -117.5 -21.75 -116.4 -17.4 L-116.35 -17.35 -116.4 -17.35 -116.35 -17.2 -115.05 -11.2 -109.05 -11.8 Q-102.8 -11.8 -97.1 -9.4 L-96.95 -9.35 Q-93.9 -8.05 -91.2 -6.15 -89.25 -9.55 -86.4 -12.35 -82.3 -16.5 -76.95 -18.75 -71.45 -21.1 -65.35 -21.1 -59.25 -21.1 -53.75 -18.75 -48.45 -16.55 -44.4 -12.45 L-44.3 -12.35 -41.9 -9.7 -41.35 -9.85 -41.25 -9.85 -30.85 -11.05 -30.8 -11.05 Q-28.65 -11.2 -26.5 -10.55 -25.35 -12.65 -23.45 -14.15 -20.8 -16.3 -17.5 -16.75 L-17.35 -16.75 -10.5 -17.25 -10.05 -21.65 -10.05 -21.8 Q-9.45 -26.45 -5.9 -29.45 L-5.85 -29.5 -5.8 -29.55 -5.65 -29.75 Q-2.0 -32.7 2.55 -32.45 L2.75 -32.45 32.9 -29.45 33.25 -31.95 33.9 -35.05 30.75 -34.15 30.65 -34.15 30.6 -34.1 30.55 -34.1 Q26.45 -33.5 23.6 -35.45 L23.45 -35.5 Q22.4 -36.25 21.65 -37.15 L21.05 -36.85 20.55 -36.5 20.35 -36.4 Q19.55 -35.95 18.45 -35.75 L18.25 -35.75 18.2 -35.75 Q16.15 -35.4 14.05 -36.5 L13.1 -37.15 Q11.5 -35.05 8.9 -34.75 5.4 -34.45 3.2 -36.8 L3.1 -36.85 2.9 -37.1 Q1.45 -36.3 -0.4 -35.75 L-0.45 -35.75 Q-3.7 -34.85 -7.25 -35.2 L-7.3 -35.2 Q-11.2 -35.7 -14.05 -37.55 L-14.4 -37.75 -14.6 -37.55 -14.65 -37.55 Q-16.25 -36.05 -18.25 -35.55 L-22.25 -35.75 -22.3 -35.75 Q-25.6 -36.7 -26.75 -39.9 L-28.45 -38.5 Q-34.05 -34.35 -41.75 -33.55 L-50.6 -33.85 -50.65 -33.7 -50.7 -33.7 -50.75 -33.7 -50.8 -33.6 Q-52.45 -32.0 -55.0 -31.85 L-55.1 -31.85 -57.9 -32.15 -57.95 -32.15 -58.05 -32.2 Q-59.65 -32.45 -60.85 -33.75 L-61.05 -34.05 Q-62.6 -35.8 -63.1 -38.4 L-63.15 -38.6 Q-65.6 -40.15 -68.05 -42.25 -73.6 -46.9 -74.75 -50.85 -76.1 -55.35 -72.3 -58.95 L-72.2 -59.05 Q-70.5 -60.75 -67.4 -62.05 L-67.15 -62.2 -62.5 -63.7 -62.35 -64.85 -62.35 -64.95 Q-61.9 -68.5 -60.6 -70.95 L-67.95 -71.95 Q-68.95 -70.35 -70.95 -69.6 L-70.9 -69.6 -71.0 -69.55 Q-72.55 -69.0 -74.4 -69.1 L-74.55 -69.1 Q-79.7 -69.4 -81.5 -72.95 L-81.55 -73.1 Q-82.0 -73.95 -82.0 -75.35 -82.05 -76.8 -81.6 -77.7 L-81.35 -78.3 -81.3 -78.4 -81.25 -78.6 -80.35 -80.25 -80.35 -80.3 Q-78.75 -83.1 -75.8 -83.95 L-75.7 -83.95 Q-65.55 -87.3 -53.15 -83.75 -42.05 -80.6 -33.25 -73.25 L-33.1 -73.15 -30.65 -70.95 -30.35 -71.7 Q-28.65 -75.3 -25.0 -77.8 L-24.95 -77.85 Q-21.5 -80.25 -17.6 -80.75 -12.45 -81.4 -9.2 -78.3 L-8.95 -78.25 -8.85 -78.2 Q-7.8 -77.8 -6.8 -77.1 L-6.55 -76.9 -6.55 -76.85 Q-2.35 -73.8 -3.75 -68.35 -4.5 -65.95 -6.0 -63.8 L-5.8 -63.85 2.6 -63.4 2.6 -63.3 2.65 -63.3 Q5.1 -62.7 6.5 -61.3 L6.7 -61.45 6.85 -61.45 6.9 -61.5 Q8.55 -62.5 10.55 -62.1 L10.7 -62.7 10.7 -62.8 10.8 -63.0 10.8 -63.05 10.8 -63.1 10.85 -63.15 Q11.4 -64.25 12.1 -64.85 L12.1 -64.8 12.2 -64.9 Q12.95 -65.75 14.35 -66.1 L14.4 -66.1 14.45 -66.1 16.55 -66.2 16.6 -66.2 16.75 -66.2 Q20.3 -65.6 22.95 -61.4 L24.2 -62.0 24.25 -62.0 Q29.05 -63.3 33.8 -63.45 37.9 -63.6 40.4 -62.35 L40.55 -62.35 40.75 -62.2 40.8 -62.2 42.6 -60.9 43.4 -61.5 43.55 -61.65 Q46.05 -63.25 48.7 -62.6 50.2 -62.3 51.4 -61.05 L51.55 -60.8 51.85 -60.5 52.45 -60.65 52.4 -60.65 52.5 -60.7 53.35 -60.85 Q52.8 -62.05 52.85 -63.45 52.7 -66.1 55.0 -68.75 L55.1 -68.8 Q56.25 -70.15 58.05 -70.5 L58.3 -70.55 M-48.15 -64.75 L-45.3 -64.3 -48.25 -66.15 -48.2 -65.6 -48.15 -64.75 M-48.5 -50.1 L-48.55 -50.2 -48.65 -50.25 -48.9 -50.25 -48.95 -50.2 -49.05 -50.05 -49.05 -49.9 -48.9 -49.8 -48.85 -49.8 -48.75 -49.7 -48.75 -49.85 -48.8 -49.85 -48.85 -49.85 -48.95 -49.9 -49.05 -50.05 -48.85 -50.1 -48.8 -50.1 -48.75 -50.1 -48.75 -50.2 -48.6 -50.15 -48.5 -50.1 -48.45 -50.05 -48.45 -50.1 -48.5 -50.1 M-48.75 -49.7 L-48.75 -49.45 -48.55 -49.5 -48.6 -49.7 -48.75 -49.7" fill="#ffffff" fill-rule="evenodd" stroke="none"/>
    <path d="M57.8 -67.8 Q60.95 -68.4 63.25 -66.05 65.0 -64.25 65.5 -61.75 65.75 -60.4 65.6 -59.1 L68.85 -59.65 76.45 -59.35 Q78.55 -58.85 79.8 -57.6 81.9 -55.5 80.8 -52.65 L80.05 -51.5 Q79.25 -50.85 78.25 -50.4 79.4 -49.35 80.0 -48.0 80.75 -46.2 80.55 -43.45 80.3 -40.75 79.1 -39.1 77.4 -36.7 73.9 -35.7 71.0 -34.9 67.75 -35.25 64.35 -35.65 61.85 -37.25 59.15 -38.95 58.25 -41.6 L56.3 -39.05 Q52.85 -35.5 47.55 -34.6 L45.9 -29.35 44.8 -24.95 Q46.4 -24.1 47.7 -22.6 50.25 -19.7 50.2 -15.9 L49.85 -8.75 53.2 -8.95 Q57.45 -8.95 61.5 -7.7 61.65 -9.2 62.35 -10.65 63.85 -14.2 67.25 -15.75 L76.7 -19.75 82.55 -20.05 Q85.5 -19.35 87.5 -17.1 89.85 -18.85 92.65 -19.05 L98.95 -19.35 Q102.15 -19.45 105.0 -17.45 L105.25 -18.3 Q106.6 -21.85 110.1 -23.6 113.45 -25.3 117.0 -24.3 L126.8 -21.35 Q130.4 -20.1 132.25 -16.65 L132.75 -15.6 132.9 -15.55 141.7 -13.95 Q143.95 -13.55 145.9 -11.95 147.85 -10.45 148.85 -8.3 L149.15 -7.5 151.15 0.0 153.7 -8.25 Q154.75 -12.1 158.1 -14.05 161.3 -16.0 164.95 -15.4 169.8 -14.35 179.15 -10.35 182.5 -8.75 184.05 -5.2 185.55 -1.65 184.3 1.95 L163.05 59.05 Q161.65 62.55 158.25 64.25 154.8 65.95 151.15 64.95 L140.6 61.65 Q138.45 60.9 136.75 59.2 135.0 57.45 134.25 55.2 L132.3 45.5 Q128.4 47.65 124.15 46.2 L119.7 44.3 115.3 42.25 Q111.95 40.65 110.4 37.25 109.4 35.1 109.5 32.95 L103.3 33.3 Q100.8 33.35 98.5 32.15 96.2 33.65 93.75 33.8 L83.8 34.3 Q80.85 34.3 78.3 32.65 L77.85 32.35 Q75.95 35.95 73.0 38.95 69.1 42.85 64.1 44.95 58.85 47.15 53.2 47.15 47.45 47.15 42.25 44.95 37.7 43.0 34.15 39.65 L32.2 41.95 Q29.1 44.65 25.1 44.55 L8.8 43.45 Q5.05 43.0 2.5 40.2 0.8 41.2 -1.25 41.55 L-12.3 42.85 -16.3 42.35 Q-17.25 44.95 -19.5 46.75 -21.7 48.5 -24.4 48.85 L-34.9 49.8 Q-38.65 50.0 -41.6 47.6 -44.7 45.15 -45.3 41.4 L-46.65 29.45 Q-49.9 32.3 -53.95 34.0 -59.05 36.15 -64.65 36.15 -70.25 36.15 -75.35 34.0 -78.75 32.6 -81.6 30.35 -83.75 35.3 -87.6 39.15 -91.6 43.15 -96.7 45.3 -102.05 47.6 -107.85 47.6 -113.75 47.6 -119.05 45.3 L-121.65 44.05 -120.6 48.65 Q-119.6 52.8 -121.95 56.45 -124.2 59.85 -128.1 60.8 L-144.15 64.0 Q-148.1 64.6 -151.45 62.3 -155.0 59.9 -155.7 55.7 L-161.45 13.2 -171.05 15.0 Q-175.05 15.7 -178.4 13.35 -181.7 11.05 -182.5 7.2 L-184.75 -5.0 Q-185.3 -9.0 -182.9 -12.3 -180.6 -15.55 -176.75 -16.3 -144.25 -22.1 -128.0 -24.3 -124.3 -24.7 -121.15 -22.55 -117.95 -20.3 -117.0 -16.65 L-115.35 -8.75 Q-111.75 -9.75 -107.85 -9.7 -102.05 -9.75 -96.7 -7.5 -92.85 -5.85 -89.6 -3.1 -87.55 -7.5 -84.1 -10.85 -80.35 -14.7 -75.35 -16.75 -70.25 -18.95 -64.65 -18.95 -59.05 -18.95 -53.95 -16.75 -49.0 -14.7 -45.2 -10.85 -43.55 -9.25 -42.25 -7.4 L-40.6 -7.8 -30.35 -9.0 Q-27.75 -9.2 -25.2 -8.0 -24.25 -10.65 -21.95 -12.45 -19.8 -14.25 -17.05 -14.6 L-8.6 -15.3 -8.05 -21.35 Q-7.5 -25.3 -4.35 -27.85 -1.3 -30.4 2.5 -30.2 L34.4 -26.95 Q34.35 -28.9 34.8 -31.3 35.45 -34.7 36.8 -38.5 33.35 -36.25 30.1 -35.65 26.65 -35.1 24.3 -36.75 22.65 -37.85 21.85 -39.75 L19.85 -38.05 19.2 -37.7 17.9 -37.25 Q16.4 -36.95 14.85 -37.8 13.6 -38.5 12.5 -40.0 L11.7 -38.25 Q10.6 -36.5 8.6 -36.3 6.1 -36.05 4.55 -37.75 3.8 -38.55 3.4 -39.55 1.75 -38.0 -0.9 -37.25 L-7.0 -36.75 Q-10.4 -37.15 -12.9 -38.75 L-14.8 -40.3 -15.05 -39.55 -15.75 -38.5 Q-16.95 -37.45 -18.5 -37.1 L-21.45 -37.25 Q-24.4 -38.1 -25.0 -41.5 L-25.2 -43.25 -25.2 -43.75 Q-26.8 -41.55 -29.3 -39.65 -34.4 -35.85 -41.45 -35.15 L-50.8 -35.55 -51.6 -34.6 Q-52.75 -33.55 -54.55 -33.4 L-57.05 -33.7 Q-58.05 -33.9 -58.8 -34.7 -60.1 -36.15 -60.55 -38.35 L-60.65 -39.3 Q-63.4 -41.0 -66.15 -43.25 -71.0 -47.4 -72.05 -50.85 -73.05 -54.2 -70.25 -56.95 -68.65 -58.5 -65.7 -59.75 L-60.0 -61.5 -59.75 -64.05 Q-59.35 -67.5 -58.0 -69.8 -57.45 -70.8 -56.25 -71.2 -62.9 -73.3 -68.45 -73.1 -69.0 -71.35 -70.8 -70.65 L-73.6 -70.3 Q-77.5 -70.5 -78.9 -73.1 -79.2 -73.6 -79.2 -74.55 L-79.0 -76.05 -78.55 -77.0 -77.9 -78.35 Q-76.7 -80.55 -74.45 -81.2 -64.85 -84.4 -53.1 -81.0 -42.55 -78.0 -34.1 -71.0 -31.3 -68.7 -29.15 -66.25 -29.25 -68.1 -28.3 -70.1 -26.75 -73.25 -23.6 -75.45 -20.6 -77.5 -17.15 -77.95 -12.75 -78.55 -10.05 -75.75 L-9.55 -75.6 Q-8.65 -75.3 -7.75 -74.65 -4.5 -72.3 -5.65 -68.1 -6.45 -65.15 -8.9 -62.7 -11.05 -60.5 -13.85 -59.25 -14.85 -58.8 -15.85 -58.5 L-15.45 -57.6 -13.5 -58.95 Q-10.4 -60.75 -5.55 -61.25 L2.05 -60.8 Q4.25 -60.25 5.4 -58.9 L6.15 -57.75 6.2 -57.9 Q6.7 -58.7 7.5 -59.05 9.3 -60.15 11.4 -59.1 L12.15 -58.65 12.25 -60.75 12.5 -61.55 13.4 -62.8 Q13.85 -63.25 14.75 -63.5 L16.2 -63.6 Q19.2 -63.0 21.4 -59.1 L22.2 -57.55 22.25 -57.6 23.15 -58.75 Q23.85 -59.35 24.45 -59.45 29.0 -60.75 33.5 -60.85 37.05 -61.0 39.25 -59.95 41.0 -59.15 41.9 -57.55 L42.0 -57.3 42.15 -57.4 Q43.05 -58.65 44.1 -59.35 45.9 -60.5 47.8 -60.05 48.7 -59.85 49.45 -59.05 50.2 -58.25 50.35 -57.3 L52.5 -58.15 55.55 -58.2 56.15 -59.0 56.0 -59.15 Q54.2 -60.7 54.2 -62.75 54.15 -64.75 55.9 -66.75 56.65 -67.65 57.8 -67.8 M10.05 -56.1 L9.15 -56.25 8.55 -55.5 Q8.05 -54.65 7.35 -52.05 6.55 -49.25 6.2 -46.55 5.25 -39.3 8.3 -39.6 9.5 -39.7 9.75 -44.55 L9.9 -48.2 Q10.0 -50.1 10.35 -50.65 L13.1 -45.3 Q15.05 -41.5 16.45 -40.7 L17.35 -40.45 18.15 -40.9 Q20.3 -42.2 20.9 -45.4 21.45 -48.2 20.7 -51.75 20.0 -55.05 18.55 -57.5 17.1 -60.1 15.6 -60.4 15.15 -60.05 16.2 -54.0 L17.4 -46.55 Q17.4 -45.75 17.0 -45.75 L13.65 -51.4 Q11.0 -55.7 10.05 -56.1 M69.3 -56.45 Q65.3 -56.0 62.8 -54.5 59.9 -52.8 60.25 -50.35 60.5 -48.9 62.65 -48.3 L67.35 -47.7 72.1 -47.05 Q74.3 -46.4 74.65 -44.75 74.35 -43.8 72.6 -43.05 71.0 -42.45 68.85 -42.2 L64.9 -42.3 Q63.1 -42.65 62.65 -43.5 62.35 -44.1 62.9 -44.6 63.4 -45.0 65.1 -44.6 L68.4 -43.75 71.3 -43.45 Q72.6 -43.75 72.55 -45.3 71.6 -45.9 69.65 -46.35 L65.6 -46.9 Q60.5 -46.9 61.2 -43.35 61.6 -41.3 63.65 -40.0 65.45 -38.8 68.15 -38.5 L73.0 -38.85 Q75.4 -39.55 76.45 -41.05 77.1 -41.95 77.3 -43.8 77.45 -45.65 77.0 -46.7 75.85 -49.35 69.75 -50.0 L65.55 -50.4 Q63.65 -50.7 63.45 -51.35 64.8 -51.95 71.15 -52.55 76.9 -53.15 77.75 -53.95 78.4 -55.55 75.6 -56.25 L69.3 -56.45 M54.15 -51.55 Q54.85 -51.5 55.0 -50.65 55.5 -47.6 52.95 -44.95 50.45 -42.4 47.5 -42.45 L50.7 -47.55 Q53.5 -51.65 54.15 -51.55 M59.4 -60.7 Q60.1 -60.15 60.25 -59.55 60.5 -58.45 59.45 -57.5 L58.4 -56.45 Q58.55 -55.85 59.6 -56.1 61.3 -56.55 62.0 -58.05 62.6 -59.4 62.25 -61.05 61.95 -62.7 60.9 -63.7 59.8 -64.9 58.4 -64.6 56.8 -62.8 58.15 -61.65 L59.4 -60.7 M46.5 -53.75 Q47.2 -55.55 47.1 -56.9 45.05 -57.35 42.5 -51.4 41.5 -49.05 41.0 -46.75 40.35 -44.45 40.55 -43.5 L41.4 -41.05 Q39.1 -36.3 38.1 -30.75 36.5 -22.55 41.0 -22.7 42.05 -28.45 45.1 -37.7 50.2 -37.95 53.45 -40.9 56.15 -43.4 57.0 -47.25 57.75 -50.65 56.7 -53.1 55.55 -55.65 53.35 -55.05 51.2 -54.5 47.95 -50.7 L43.35 -44.95 Q42.9 -46.15 43.4 -47.7 43.75 -48.75 44.85 -50.65 L46.5 -53.75 M4.0 -52.2 L3.45 -51.95 3.85 -51.6 4.0 -52.2 M25.3 -56.3 Q24.85 -55.2 28.4 -53.8 27.8 -51.95 26.65 -50.8 L25.55 -49.7 24.85 -46.35 Q24.3 -43.85 24.4 -43.2 24.8 -38.1 29.5 -38.9 32.85 -39.55 36.8 -42.5 37.0 -43.5 36.15 -44.7 L32.4 -44.6 28.65 -43.95 29.35 -46.8 Q29.75 -48.0 32.5 -47.8 35.45 -47.65 36.25 -48.4 36.4 -50.65 34.45 -50.95 L32.6 -51.05 30.85 -50.95 31.75 -53.5 35.65 -53.45 Q38.3 -53.6 39.25 -54.25 39.85 -57.8 33.6 -57.6 29.65 -57.5 25.3 -56.3 M2.95 -55.45 Q3.9 -56.95 1.2 -57.65 L-5.2 -57.95 Q-9.3 -57.55 -11.85 -56.1 -14.9 -54.4 -14.5 -51.85 -14.3 -50.4 -12.15 -49.85 L-7.4 -49.25 -2.7 -48.6 Q-0.45 -47.9 -0.15 -46.3 -0.3 -45.3 -2.0 -44.6 -3.6 -43.95 -5.8 -43.7 L-9.8 -43.8 Q-11.7 -44.2 -12.15 -45.05 -12.45 -45.65 -11.85 -46.1 L-9.65 -46.15 -6.4 -45.3 Q-4.45 -44.75 -3.5 -44.95 -2.2 -45.25 -2.2 -46.8 -3.2 -47.45 -5.15 -47.9 L-9.15 -48.4 Q-14.3 -48.4 -13.6 -44.8 -13.25 -42.8 -11.2 -41.5 -9.3 -40.3 -6.65 -40.0 L-1.8 -40.35 Q0.6 -41.05 1.7 -42.55 2.3 -43.5 2.5 -45.35 2.65 -47.2 2.25 -48.2 1.05 -50.85 -5.05 -51.5 L-9.2 -51.9 Q-11.15 -52.2 -11.35 -52.85 L-3.6 -54.05 Q2.5 -54.8 2.95 -55.45 M0.55 -2.0 L8.3 -1.55 5.85 15.85 Q4.25 26.8 3.55 32.85 3.3 35.45 5.05 37.45 6.7 39.35 9.15 39.65 L25.3 40.75 Q27.8 40.85 29.7 39.1 31.7 37.3 31.75 34.65 L31.85 30.75 Q33.45 33.7 36.05 36.25 43.15 43.35 53.2 43.35 63.25 43.35 70.35 36.25 75.55 31.0 76.9 24.15 L78.0 26.8 Q78.75 28.45 80.3 29.45 81.85 30.45 83.65 30.45 L93.55 30.05 Q96.6 29.75 98.25 27.2 100.15 29.55 103.15 29.5 L113.05 28.9 114.5 28.6 113.65 31.3 Q112.85 33.5 113.85 35.7 114.75 37.8 116.85 38.8 L121.1 40.75 Q123.6 42.0 125.45 42.7 L129.8 42.5 Q132.05 41.55 133.0 39.3 L134.3 36.0 137.95 54.15 Q138.85 57.0 141.8 58.05 L152.2 61.3 Q154.45 61.9 156.55 60.9 158.65 59.8 159.5 57.7 L180.75 0.7 Q181.5 -1.55 180.6 -3.75 179.65 -5.9 177.55 -6.9 168.85 -10.7 164.25 -11.65 162.0 -12.1 160.0 -10.85 157.9 -9.55 157.35 -7.25 L150.75 13.45 145.4 -6.85 Q144.05 -9.6 141.05 -10.25 L132.4 -11.85 129.65 -11.55 Q129.8 -13.3 128.95 -14.85 127.8 -17.0 125.6 -17.7 L115.95 -20.7 Q113.8 -21.25 111.8 -20.25 109.65 -19.2 108.85 -17.05 L106.15 -8.3 104.65 -12.25 Q103.85 -13.8 102.35 -14.7 100.8 -15.65 99.05 -15.55 L92.85 -15.25 Q91.15 -15.15 89.7 -14.05 88.25 -13.0 87.7 -11.35 L87.05 -8.85 85.7 -13.05 Q84.75 -15.3 82.55 -16.2 80.3 -17.05 78.1 -16.2 L68.8 -12.3 Q66.65 -11.35 65.75 -9.2 64.8 -7.05 65.55 -4.85 L67.1 -0.85 Q61.05 -5.2 53.2 -5.15 49.15 -5.15 45.6 -4.0 L45.85 -5.4 46.4 -16.0 Q46.45 -18.35 44.9 -20.1 L43.85 -21.1 43.1 -20.25 Q42.2 -19.45 41.15 -19.4 38.6 -19.3 36.85 -20.75 35.7 -21.65 35.1 -23.05 L2.3 -26.35 Q-0.15 -26.5 -2.0 -24.9 -3.95 -23.35 -4.3 -20.9 L-5.15 -11.65 -6.3 -11.7 -16.65 -10.85 Q-18.95 -10.55 -20.5 -8.7 -22.1 -6.85 -21.9 -4.4 L-21.35 1.05 -24.8 -3.1 Q-26.85 -5.45 -29.95 -5.2 L-40.0 -4.05 Q-42.05 -3.75 -43.45 -2.3 -45.15 -5.5 -47.85 -8.2 -54.8 -15.15 -64.65 -15.15 -74.5 -15.15 -81.45 -8.2 -86.7 -3.0 -88.0 3.9 -89.05 2.55 -90.25 1.35 -97.6 -5.95 -107.85 -5.95 -113.65 -5.95 -118.45 -3.7 L-118.5 -5.35 -120.75 -15.8 Q-121.35 -18.05 -123.3 -19.4 -125.25 -20.8 -127.55 -20.55 -143.9 -18.35 -176.05 -12.6 -178.45 -12.1 -179.85 -10.05 -181.35 -8.0 -181.0 -5.55 L-178.8 6.45 Q-178.3 8.85 -176.25 10.3 -174.2 11.7 -171.75 11.3 L-158.2 8.75 -152.0 55.15 Q-151.5 57.7 -149.35 59.15 -147.25 60.6 -144.8 60.2 L-128.95 57.15 Q-126.45 56.5 -125.05 54.35 -123.6 52.1 -124.25 49.55 L-127.7 34.0 -125.45 36.5 Q-118.2 43.75 -107.85 43.8 -97.6 43.75 -90.25 36.5 -84.6 30.8 -83.35 23.35 L-81.45 25.45 Q-74.5 32.35 -64.65 32.35 -54.8 32.35 -47.85 25.45 -45.35 22.9 -43.75 20.05 L-41.55 40.85 Q-41.2 43.15 -39.25 44.65 -37.45 46.1 -35.15 46.0 L-24.85 45.1 Q-22.5 44.8 -20.9 42.95 -19.35 41.05 -19.55 38.55 L-20.1 34.35 -17.75 37.05 Q-15.75 39.35 -12.65 39.1 L-1.8 37.8 Q0.5 37.4 2.0 35.6 3.5 33.75 3.4 31.45 1.95 11.4 0.55 -2.0 M-23.15 -66.15 Q-24.25 -67.35 -22.15 -69.3 -20.15 -71.15 -18.7 -71.1 L-23.15 -66.15 M-25.4 -68.45 Q-26.45 -65.75 -24.55 -63.6 -24.7 -61.6 -23.95 -60.6 -23.05 -59.45 -22.0 -61.75 L-15.95 -62.0 Q-13.25 -62.95 -11.2 -65.05 -9.3 -67.0 -8.75 -69.0 -8.3 -71.1 -9.65 -72.05 -10.95 -72.95 -11.75 -72.7 -13.2 -74.95 -16.25 -74.8 -18.95 -74.65 -21.65 -72.75 -24.45 -70.85 -25.4 -68.45 M-34.65 -51.05 Q-35.0 -49.7 -36.1 -48.4 L-35.85 -48.65 Q-34.8 -49.45 -34.4 -51.15 -34.05 -52.9 -34.6 -54.6 -34.15 -52.95 -34.65 -51.05 M-20.05 -64.6 Q-19.0 -66.5 -17.15 -68.25 -14.95 -70.35 -13.25 -70.6 -11.25 -70.75 -10.95 -69.85 -10.15 -67.25 -14.15 -65.65 -17.55 -64.25 -20.05 -64.6 M-21.05 -57.15 Q-21.45 -55.8 -21.7 -51.0 -22.0 -46.8 -21.9 -44.55 L-21.8 -42.1 Q-21.55 -40.7 -20.5 -40.35 -19.15 -39.9 -18.0 -40.95 -17.55 -48.65 -18.35 -55.65 -18.55 -57.15 -19.4 -58.05 -20.45 -59.15 -21.05 -57.15 M-31.5 -55.7 Q-30.65 -53.15 -31.2 -50.5 -31.8 -47.7 -33.75 -46.1 -37.5 -43.1 -42.9 -42.4 -47.6 -41.8 -52.9 -43.0 L-52.85 -54.75 Q-52.1 -55.55 -47.15 -54.35 -42.7 -53.25 -41.15 -52.35 -41.25 -51.7 -42.35 -50.8 -43.4 -49.95 -43.3 -49.4 L-40.8 -48.9 Q-38.2 -50.4 -37.85 -51.85 -36.8 -55.95 -43.1 -57.9 -47.55 -59.3 -52.35 -59.15 L-52.8 -59.4 -52.85 -64.3 Q-53.25 -67.55 -55.1 -68.2 -56.15 -66.5 -56.45 -63.65 L-57.0 -58.8 Q-61.2 -58.05 -64.4 -56.7 -69.7 -54.55 -68.85 -51.85 -68.1 -49.3 -64.0 -45.85 -60.65 -43.0 -57.55 -41.35 L-57.3 -39.0 Q-57.05 -37.7 -56.35 -36.95 L-53.75 -37.1 Q-53.3 -37.5 -52.95 -39.5 -47.3 -37.9 -41.75 -38.45 -35.6 -39.1 -31.25 -42.3 -24.55 -47.4 -26.45 -55.0 -28.25 -61.95 -36.2 -68.5 -44.05 -75.05 -53.95 -77.85 -64.75 -80.95 -73.4 -78.15 -74.35 -77.85 -75.0 -76.75 L-75.95 -74.7 Q-75.45 -73.75 -73.35 -73.6 -71.25 -73.5 -71.6 -74.45 -71.75 -74.8 -72.6 -75.0 L-73.9 -75.35 Q-73.6 -75.8 -72.6 -75.95 -67.8 -77.0 -61.35 -75.85 -55.05 -74.8 -48.9 -72.0 -42.5 -69.05 -38.0 -65.0 -33.15 -60.6 -31.5 -55.7 M-50.3 -68.95 L-51.4 -69.45 Q-50.0 -67.7 -49.6 -64.65 L-49.45 -62.3 Q-45.45 -62.0 -42.2 -61.0 -37.2 -59.5 -35.35 -56.4 -37.15 -59.95 -41.15 -63.25 -45.05 -66.5 -50.3 -68.95 M-60.6 -51.15 L-62.25 -50.9 -60.65 -49.9 -60.6 -51.15 M-57.05 -54.9 L-57.3 -49.75 -57.65 -44.65 -60.4 -46.0 Q-62.85 -47.3 -64.6 -48.6 -69.7 -52.3 -66.35 -53.35 -63.4 -54.25 -57.05 -54.9 M-49.65 -51.5 L-49.7 -45.7 Q-46.3 -45.3 -43.35 -45.65 L-42.65 -45.75 -42.75 -45.75 -44.55 -46.3 -45.9 -47.3 Q-46.5 -48.1 -46.6 -48.8 -46.75 -49.85 -46.45 -50.7 L-49.65 -51.5 M-5.9 72.1 Q-3.7 72.1 -3.65 74.2 -3.7 76.3 -5.9 76.3 L-13.6 76.3 Q-16.55 76.3 -16.5 73.2 L-16.5 62.55 Q-16.5 59.75 -13.9 59.8 -11.35 59.75 -11.3 62.55 L-11.3 72.1 -5.9 72.1 M-48.3 59.65 Q-47.15 59.65 -46.4 60.4 -45.75 61.15 -45.75 62.3 L-45.75 74.2 Q-45.75 76.7 -48.65 76.7 L-50.35 76.25 Q-51.1 75.85 -51.75 74.65 L-56.1 67.6 -56.1 74.0 Q-56.15 76.7 -58.65 76.7 -61.2 76.7 -61.2 74.0 L-61.2 62.45 Q-61.2 59.65 -58.2 59.65 -56.35 59.65 -55.4 61.3 L-50.85 69.1 -50.85 62.3 Q-50.85 61.15 -50.1 60.4 -49.45 59.65 -48.3 59.65 M-59.8 2.75 Q-59.85 3.8 -60.6 4.55 -61.35 5.3 -62.4 5.3 -63.5 5.3 -64.25 4.55 -65.0 3.8 -65.0 2.75 -65.0 1.65 -64.25 0.9 -63.5 0.1 -62.4 0.1 -61.35 0.1 -60.6 0.9 -59.85 1.65 -59.8 2.75 M-126.55 2.5 Q-130.8 7.2 -132.1 13.1 L-134.15 4.1 -126.55 2.5 M-107.55 10.65 Q-106.7 9.8 -105.5 9.8 -104.3 9.8 -103.4 10.65 -102.6 11.5 -102.6 12.75 -102.6 13.95 -103.4 14.8 -104.3 15.6 -105.5 15.65 -106.7 15.6 -107.55 14.8 -108.4 13.9 -108.4 12.75 -108.4 11.5 -107.55 10.65 M-113.4 60.2 Q-116.7 63.4 -116.7 68.0 -116.7 72.55 -113.4 75.85 -110.2 79.05 -105.65 79.1 L119.2 79.1 Q123.8 79.05 127.0 75.85 130.25 72.55 130.25 68.0 130.25 63.4 127.0 60.2 123.75 56.9 119.2 56.9 L-105.65 56.9 Q-110.2 56.9 -113.4 60.2 M-93.0 61.8 Q-90.45 64.15 -90.45 68.2 -90.45 72.3 -93.0 74.65 -95.3 76.7 -98.85 76.7 -102.35 76.7 -104.65 74.65 -107.25 72.3 -107.25 68.2 -107.25 64.15 -104.65 61.8 -102.35 59.65 -98.85 59.65 -95.35 59.65 -93.0 61.8 M-95.65 68.2 Q-95.65 63.75 -98.85 63.75 -102.05 63.75 -102.05 68.2 -102.05 72.65 -98.85 72.65 -95.65 72.65 -95.65 68.2 M-116.05 57.55 Q-111.8 53.2 -105.65 53.2 L119.2 53.2 Q125.3 53.2 129.65 57.55 133.95 61.9 134.0 68.0 133.95 74.15 129.65 78.45 125.3 82.8 119.2 82.8 L-105.65 82.8 Q-111.7 82.8 -116.05 78.45 -120.4 74.15 -120.4 68.0 -120.4 61.9 -116.05 57.55 M109.85 63.85 L109.85 66.15 114.65 66.15 Q116.9 66.15 116.9 68.05 116.9 69.9 114.65 69.9 L109.85 69.9 109.85 72.5 116.15 72.5 Q118.35 72.5 118.4 74.4 118.35 76.3 116.15 76.3 L107.6 76.3 Q104.65 76.3 104.65 73.2 L104.65 63.15 Q104.65 60.05 107.6 60.05 L115.9 60.05 Q118.1 60.05 118.15 61.95 118.1 63.85 115.9 63.85 L109.85 63.85 M55.5 10.35 Q56.6 10.35 57.45 11.15 58.2 11.95 58.25 13.1 58.2 14.2 57.45 15.0 56.6 15.8 55.5 15.8 54.35 15.8 53.55 15.0 52.75 14.2 52.75 13.1 52.75 11.95 53.55 11.15 54.35 10.35 55.5 10.35 M38.0 0.15 L36.05 1.95 Q34.1 3.85 32.75 5.95 L32.85 -0.1 38.0 0.15 M74.25 59.65 Q75.45 59.65 76.15 60.4 76.8 61.15 76.8 62.3 L76.8 74.2 Q76.8 76.7 73.9 76.7 72.8 76.7 72.2 76.25 71.45 75.85 70.8 74.65 L66.45 67.6 66.45 74.0 Q66.4 76.7 63.9 76.7 61.35 76.7 61.4 74.0 L61.4 62.45 Q61.4 59.65 64.35 59.65 66.2 59.65 67.15 61.3 L71.75 69.1 71.75 62.3 Q71.75 61.15 72.45 60.4 73.1 59.65 74.25 59.65 M25.55 73.8 L25.55 62.55 Q25.55 59.75 28.15 59.8 30.75 59.75 30.8 62.55 L30.8 73.8 Q30.75 76.55 28.15 76.6 26.9 76.6 26.2 75.85 25.5 75.1 25.55 73.8" fill="#09008b" fill-rule="evenodd" stroke="none"/>
    <path d="M46.5 -53.75 L44.85 -50.65 Q43.75 -48.75 43.4 -47.7 42.9 -46.15 43.35 -44.95 L47.95 -50.7 Q51.2 -54.5 53.35 -55.05 55.55 -55.65 56.7 -53.1 57.75 -50.65 57.0 -47.25 56.15 -43.4 53.45 -40.9 50.2 -37.95 45.1 -37.7 42.05 -28.45 41.0 -22.7 36.5 -22.55 38.1 -30.75 39.1 -36.3 41.4 -41.05 L40.55 -43.5 Q40.35 -44.45 41.0 -46.75 41.5 -49.05 42.5 -51.4 45.05 -57.35 47.1 -56.9 47.2 -55.55 46.5 -53.75 M59.4 -60.7 L58.15 -61.65 Q56.8 -62.8 58.4 -64.6 59.8 -64.9 60.9 -63.7 61.95 -62.7 62.25 -61.05 62.6 -59.4 62.0 -58.05 61.3 -56.55 59.6 -56.1 58.55 -55.85 58.4 -56.45 L59.45 -57.5 Q60.5 -58.45 60.25 -59.55 60.1 -60.15 59.4 -60.7 M54.15 -51.55 Q53.5 -51.65 50.7 -47.55 L47.5 -42.45 Q50.45 -42.4 52.95 -44.95 55.5 -47.6 55.0 -50.65 54.85 -51.5 54.15 -51.55 M69.3 -56.45 L75.6 -56.25 Q78.4 -55.55 77.75 -53.95 76.9 -53.15 71.15 -52.55 64.8 -51.95 63.45 -51.35 63.65 -50.7 65.55 -50.4 L69.75 -50.0 Q75.85 -49.35 77.0 -46.7 77.45 -45.65 77.3 -43.8 77.1 -41.95 76.45 -41.05 75.4 -39.55 73.0 -38.85 L68.15 -38.5 Q65.45 -38.8 63.65 -40.0 61.6 -41.3 61.2 -43.35 60.5 -46.9 65.6 -46.9 L69.65 -46.35 Q71.6 -45.9 72.55 -45.3 72.6 -43.75 71.3 -43.45 L68.4 -43.75 65.1 -44.6 Q63.4 -45.0 62.9 -44.6 62.35 -44.1 62.65 -43.5 63.1 -42.65 64.9 -42.3 L68.85 -42.2 Q71.0 -42.45 72.6 -43.05 74.35 -43.8 74.65 -44.75 74.3 -46.4 72.1 -47.05 L67.35 -47.7 62.65 -48.3 Q60.5 -48.9 60.25 -50.35 59.9 -52.8 62.8 -54.5 65.3 -56.0 69.3 -56.45 M10.05 -56.1 Q11.0 -55.7 13.65 -51.4 L17.0 -45.75 Q17.4 -45.75 17.4 -46.55 L16.2 -54.0 Q15.15 -60.05 15.6 -60.4 17.1 -60.1 18.55 -57.5 20.0 -55.05 20.7 -51.75 21.45 -48.2 20.9 -45.4 20.3 -42.2 18.15 -40.9 L17.35 -40.45 16.45 -40.7 Q15.05 -41.5 13.1 -45.3 L10.35 -50.65 Q10.0 -50.1 9.9 -48.2 L9.75 -44.55 Q9.5 -39.7 8.3 -39.6 5.25 -39.3 6.2 -46.55 6.55 -49.25 7.35 -52.05 8.05 -54.65 8.55 -55.5 L9.15 -56.25 10.05 -56.1 M2.95 -55.45 Q2.5 -54.8 -3.6 -54.05 L-11.35 -52.85 Q-11.15 -52.2 -9.2 -51.9 L-5.05 -51.5 Q1.05 -50.85 2.25 -48.2 2.65 -47.2 2.5 -45.35 2.3 -43.5 1.7 -42.55 0.6 -41.05 -1.8 -40.35 L-6.65 -40.0 Q-9.3 -40.3 -11.2 -41.5 -13.25 -42.8 -13.6 -44.8 -14.3 -48.4 -9.15 -48.4 L-5.15 -47.9 Q-3.2 -47.45 -2.2 -46.8 -2.2 -45.25 -3.5 -44.95 -4.45 -44.75 -6.4 -45.3 L-9.65 -46.15 -11.85 -46.1 Q-12.45 -45.65 -12.15 -45.05 -11.7 -44.2 -9.8 -43.8 L-5.8 -43.7 Q-3.6 -43.95 -2.0 -44.6 -0.3 -45.3 -0.15 -46.3 -0.45 -47.9 -2.7 -48.6 L-7.4 -49.25 -12.15 -49.85 Q-14.3 -50.4 -14.5 -51.85 -14.9 -54.4 -11.85 -56.1 -9.3 -57.55 -5.2 -57.95 L1.2 -57.65 Q3.9 -56.95 2.95 -55.45 M25.3 -56.3 Q29.65 -57.5 33.6 -57.6 39.85 -57.8 39.25 -54.25 38.3 -53.6 35.65 -53.45 L31.75 -53.5 30.85 -50.95 32.6 -51.05 34.45 -50.95 Q36.4 -50.65 36.25 -48.4 35.45 -47.65 32.5 -47.8 29.75 -48.0 29.35 -46.8 L28.65 -43.95 32.4 -44.6 36.15 -44.7 Q37.0 -43.5 36.8 -42.5 32.85 -39.55 29.5 -38.9 24.8 -38.1 24.4 -43.2 24.3 -43.85 24.85 -46.35 L25.55 -49.7 26.65 -50.8 Q27.8 -51.95 28.4 -53.8 24.85 -55.2 25.3 -56.3 M1.55 -18.85 Q1.0 -17.15 -1.0 -8.25 L0.1 -20.35 Q0.15 -21.15 0.75 -21.6 1.3 -22.05 2.05 -22.0 L40.4 -17.95 3.45 -20.4 Q2.0 -20.55 1.55 -18.85 M70.6 -8.3 L79.75 -12.1 72.55 -7.85 Q71.3 -7.05 71.75 -5.9 L82.1 25.1 Q73.7 4.2 69.75 -6.3 69.3 -7.75 70.6 -8.3 M93.2 -10.85 L99.25 -11.2 94.7 -9.95 Q93.4 -9.55 93.15 -8.85 L88.3 4.95 91.8 -9.9 Q92.15 -10.8 93.2 -10.85 M114.8 -16.45 L124.25 -13.55 115.9 -14.75 Q114.5 -14.95 114.15 -13.9 L107.2 3.1 112.95 -15.6 Q113.45 -16.8 114.8 -16.45 M130.6 -7.15 L131.8 -7.5 140.25 -5.9 Q135.5 -6.1 133.35 -5.8 131.65 -5.55 131.35 -4.15 L117.8 32.7 129.9 -6.1 Q130.05 -6.8 130.6 -7.15 M162.6 -3.35 Q160.65 1.25 151.25 25.95 L161.65 -6.1 Q161.75 -6.7 162.3 -7.05 162.8 -7.4 163.45 -7.35 167.45 -6.55 175.8 -2.9 167.1 -5.35 164.6 -5.4 163.8 -5.5 163.3 -4.85 L162.6 -3.35 M-176.3 -7.6 L-175.2 -8.3 Q-143.4 -13.95 -127.05 -16.2 L-172.35 -6.8 Q-173.0 -6.65 -173.55 -5.8 -174.1 -4.95 -174.05 -4.3 L-174.2 1.25 -174.5 5.55 -176.65 -6.25 Q-176.75 -7.0 -176.3 -7.6 M-25.4 -68.45 Q-24.45 -70.85 -21.65 -72.75 -18.95 -74.65 -16.25 -74.8 -13.2 -74.95 -11.75 -72.7 -10.95 -72.95 -9.65 -72.05 -8.3 -71.1 -8.75 -69.0 -9.3 -67.0 -11.2 -65.05 -13.25 -62.95 -15.95 -62.0 L-22.0 -61.75 Q-23.05 -59.45 -23.95 -60.6 -24.7 -61.6 -24.55 -63.6 -26.45 -65.75 -25.4 -68.45 M-23.15 -66.15 L-18.7 -71.1 Q-20.15 -71.15 -22.15 -69.3 -24.25 -67.35 -23.15 -66.15 M-31.5 -55.7 Q-33.15 -60.6 -38.0 -65.0 -42.5 -69.05 -48.9 -72.0 -55.05 -74.8 -61.35 -75.85 -67.8 -77.0 -72.6 -75.95 -73.6 -75.8 -73.9 -75.35 L-72.6 -75.0 Q-71.75 -74.8 -71.6 -74.45 -71.25 -73.5 -73.35 -73.6 -75.45 -73.75 -75.95 -74.7 L-75.0 -76.75 Q-74.35 -77.85 -73.4 -78.15 -64.75 -80.95 -53.95 -77.85 -44.05 -75.05 -36.2 -68.5 -28.25 -61.95 -26.45 -55.0 -24.55 -47.4 -31.25 -42.3 -35.6 -39.1 -41.75 -38.45 -47.3 -37.9 -52.95 -39.5 -53.3 -37.5 -53.75 -37.1 L-56.35 -36.95 Q-57.05 -37.7 -57.3 -39.0 L-57.55 -41.35 Q-60.65 -43.0 -64.0 -45.85 -68.1 -49.3 -68.85 -51.85 -69.7 -54.55 -64.4 -56.7 -61.2 -58.05 -57.0 -58.8 L-56.45 -63.65 Q-56.15 -66.5 -55.1 -68.2 -53.25 -67.55 -52.85 -64.3 L-52.8 -59.4 -52.35 -59.15 Q-47.55 -59.3 -43.1 -57.9 -36.8 -55.95 -37.85 -51.85 -38.2 -50.4 -40.8 -48.9 L-43.3 -49.4 Q-43.4 -49.95 -42.35 -50.8 -41.25 -51.7 -41.15 -52.35 -42.7 -53.25 -47.15 -54.35 -52.1 -55.55 -52.85 -54.75 L-52.9 -43.0 Q-47.6 -41.8 -42.9 -42.4 -37.5 -43.1 -33.75 -46.1 -31.8 -47.7 -31.2 -50.5 -30.65 -53.15 -31.5 -55.7 M-21.05 -57.15 Q-20.45 -59.15 -19.4 -58.05 -18.55 -57.15 -18.35 -55.65 -17.55 -48.65 -18.0 -40.95 -19.15 -39.9 -20.5 -40.35 -21.55 -40.7 -21.8 -42.1 L-21.9 -44.55 Q-22.0 -46.8 -21.7 -51.0 -21.45 -55.8 -21.05 -57.15 M-20.05 -64.6 Q-17.55 -64.25 -14.15 -65.65 -10.15 -67.25 -10.95 -69.85 -11.25 -70.75 -13.25 -70.6 -14.95 -70.35 -17.15 -68.25 -19.0 -66.5 -20.05 -64.6 M-57.05 -54.9 Q-63.4 -54.25 -66.35 -53.35 -69.7 -52.3 -64.6 -48.6 -62.85 -47.3 -60.4 -46.0 L-57.65 -44.65 -57.3 -49.75 -57.05 -54.9 M-72.35 25.95 Q-77.3 23.85 -80.45 19.4 -83.95 14.45 -83.95 8.45 -83.95 0.55 -78.35 -4.95 -72.85 -10.55 -64.95 -10.5 -60.55 -10.55 -56.6 -8.6 -59.8 -9.8 -63.2 -9.75 -71.05 -9.8 -76.6 -4.2 -82.15 1.35 -82.15 9.25 -82.2 14.75 -79.2 19.35 -76.5 23.7 -71.9 26.05 L-72.35 25.95 M-54.95 -0.5 Q-53.5 1.4 -53.45 3.8 -53.5 6.65 -55.55 8.75 -57.6 10.8 -60.45 10.8 -62.4 10.8 -64.1 9.75 L-62.3 10.0 Q-59.45 10.0 -57.35 7.95 -55.3 5.9 -55.3 3.05 -55.3 -0.95 -58.65 -2.95 -56.4 -2.35 -54.95 -0.5 M-29.65 -0.8 Q-36.3 0.9 -37.75 1.5 -39.25 2.1 -39.2 3.25 -38.15 16.35 -37.2 40.75 -38.75 28.3 -40.85 2.05 -40.95 0.6 -39.4 0.35 L-29.55 -0.85 -29.65 -0.8 M-15.75 -3.85 L-15.95 12.15 -17.55 -4.85 Q-17.65 -6.35 -16.15 -6.4 L-5.45 -7.4 -14.4 -5.55 Q-15.8 -5.25 -15.75 -3.85 M-14.6 34.0 L-24.1 22.95 Q-13.6 34.4 -12.65 34.55 -13.9 34.9 -14.6 34.0 M-117.5 36.7 Q-120.15 35.3 -122.35 33.15 -128.3 27.15 -128.3 18.75 -128.3 10.35 -122.35 4.45 -116.4 -1.5 -108.0 -1.5 -103.4 -1.5 -99.1 0.55 -102.4 -0.7 -106.15 -0.7 -114.65 -0.7 -126.5 19.6 -126.5 27.95 -120.55 33.85 -118.6 35.8 -116.3 37.15 L-117.5 36.7 M-98.15 18.95 Q-100.35 21.1 -103.4 21.1 -105.35 21.1 -107.15 20.05 L-105.2 20.35 Q-102.2 20.3 -100.0 18.2 -97.9 16.0 -97.9 13.0 -97.9 8.85 -101.4 6.75 -99.1 7.35 -97.6 9.3 -96.1 11.3 -96.05 13.8 -96.05 16.85 -98.15 18.95 M-147.65 54.4 L-154.25 4.95 Q-145.5 54.75 -144.7 55.7 L-146.65 55.6 Q-147.5 55.2 -147.65 54.4 M-126.5 19.6 L-120.55 5.2 Q-126.5 11.15 -126.5 19.6 M103.35 25.1 L103.0 25.15 Q101.9 25.1 101.45 24.1 L98.8 15.35 103.25 24.9 103.35 25.1 M142.15 52.85 L136.35 23.7 143.95 53.55 144.35 54.3 143.15 53.9 Q142.35 53.65 142.15 52.85 M43.9 36.4 Q39.75 34.25 36.95 30.3 33.35 25.2 33.4 19.0 33.35 10.8 39.15 5.05 44.9 -0.7 53.05 -0.65 57.6 -0.7 61.7 1.35 58.4 0.1 54.85 0.1 46.7 0.1 40.95 5.9 35.2 11.6 35.2 19.75 35.2 25.45 38.25 30.3 40.85 34.35 45.05 36.8 L43.9 36.4 M64.7 14.15 Q64.65 17.1 62.6 19.25 60.5 21.3 57.55 21.3 55.55 21.3 53.8 20.3 L55.75 20.5 Q58.65 20.5 60.75 18.4 62.85 16.3 62.85 13.4 62.85 9.35 59.45 7.3 61.7 7.9 63.2 9.8 64.65 11.75 64.7 14.15 M7.95 33.3 L10.45 14.55 13.1 -4.2 Q11.05 22.75 9.75 34.1 9.7 34.8 10.1 35.35 L9.55 35.3 Q8.8 35.2 8.4 34.65 7.9 34.05 7.95 33.3" fill="#ffffff" fill-rule="evenodd" stroke="none"/>
    <path d="M1.55 -18.85 Q2.0 -20.55 3.45 -20.4 L40.4 -17.95 2.05 -22.0 Q1.3 -22.05 0.75 -21.6 0.15 -21.15 0.1 -20.35 L-1.0 -8.25 Q1.0 -17.15 1.55 -18.85 M12.75 -5.6 L13.15 -7.4 1.1 -6.3 12.75 -5.6 M0.45 -5.1 Q-0.85 -5.2 -1.65 -6.15 -2.45 -7.1 -2.4 -8.35 L-1.25 -20.55 Q-1.15 -21.85 -0.15 -22.6 0.85 -23.4 2.1 -23.35 21.15 -21.85 40.65 -19.3 41.8 -19.1 42.6 -18.2 43.35 -17.25 43.4 -16.05 L42.9 -5.65 Q42.75 -4.45 41.85 -3.6 40.9 -2.75 39.7 -2.75 L29.85 -3.35 29.35 15.65 28.7 34.65 Q28.65 36.0 27.7 36.85 26.75 37.75 25.4 37.75 L9.45 36.65 Q8.15 36.5 7.35 35.5 6.45 34.5 6.55 33.2 L9.15 14.4 11.8 -4.35 0.45 -5.1 M39.9 -7.15 Q39.4 -6.1 37.85 -6.15 L26.7 -6.4 Q25.65 21.95 25.35 33.4 25.3 34.95 23.65 35.0 L10.2 35.45 25.5 36.3 Q26.15 36.3 26.7 35.85 27.15 35.4 27.2 34.75 27.35 23.25 28.3 -4.9 L39.8 -4.2 Q41.2 -4.15 41.4 -5.6 L41.85 -15.95 Q40.55 -8.75 39.9 -7.15 M68.5 -7.95 Q68.95 -9.05 70.0 -9.5 L79.2 -13.35 Q80.3 -13.8 81.4 -13.35 82.45 -12.95 82.9 -11.85 L87.45 2.65 90.5 -10.3 Q91.15 -12.15 93.1 -12.25 L99.2 -12.55 Q101.1 -12.65 101.95 -10.85 L106.4 1.15 111.7 -16.05 Q112.1 -17.1 113.1 -17.6 L115.15 -17.75 124.65 -14.85 Q125.75 -14.5 126.3 -13.45 126.85 -12.45 126.6 -11.25 121.2 6.7 115.4 23.95 114.7 25.7 112.85 25.9 L103.05 26.45 Q100.95 26.55 100.2 24.65 L97.55 15.8 96.05 24.85 Q95.45 26.85 93.4 27.0 L83.6 27.45 Q81.6 27.45 80.75 25.7 74.4 10.1 68.4 -5.85 68.0 -6.95 68.5 -7.95 M130.6 -7.15 Q130.05 -6.8 129.9 -6.1 L117.8 32.7 131.35 -4.15 Q131.65 -5.55 133.35 -5.8 135.5 -6.1 140.25 -5.9 L131.8 -7.5 130.6 -7.15 M114.8 -16.45 Q113.45 -16.8 112.95 -15.6 L107.2 3.1 114.15 -13.9 Q114.5 -14.95 115.9 -14.75 L124.25 -13.55 114.8 -16.45 M93.2 -10.85 Q92.15 -10.8 91.8 -9.9 L88.3 4.95 93.15 -8.85 Q93.4 -9.55 94.7 -9.95 L99.25 -11.2 93.2 -10.85 M70.6 -8.3 Q69.3 -7.75 69.75 -6.3 73.7 4.2 82.1 25.1 L71.75 -5.9 Q71.3 -7.05 72.55 -7.85 L79.75 -12.1 70.6 -8.3 M129.85 -8.3 Q130.75 -8.95 131.95 -8.75 L140.45 -7.25 Q141.95 -6.95 142.65 -5.55 L150.45 24.1 Q153.85 14.25 160.3 -6.4 160.6 -7.6 161.6 -8.25 162.55 -8.85 163.7 -8.65 167.45 -7.9 176.3 -4.1 177.35 -3.6 177.85 -2.55 178.3 -1.45 177.95 -0.35 L156.65 56.55 Q156.2 57.65 155.2 58.15 L153.0 58.4 142.7 55.15 Q141.3 54.65 140.8 53.2 L135.2 24.95 130.15 38.1 Q129.75 39.2 128.65 39.7 L126.45 39.85 122.3 38.0 118.1 36.05 Q117.0 35.55 116.6 34.5 116.1 33.4 116.5 32.3 L128.6 -6.5 Q128.85 -7.65 129.85 -8.3 M162.6 -3.35 L163.3 -4.85 Q163.8 -5.5 164.6 -5.4 167.1 -5.35 175.8 -2.9 167.45 -6.55 163.45 -7.35 162.8 -7.4 162.3 -7.05 161.75 -6.7 161.65 -6.1 L151.25 25.95 Q160.65 1.25 162.6 -3.35 M-177.45 -8.3 Q-176.7 -9.35 -175.45 -9.65 -143.15 -15.4 -127.15 -17.55 -125.95 -17.65 -125.0 -16.95 -123.95 -16.3 -123.7 -15.1 L-121.5 -4.85 Q-121.3 -3.6 -121.95 -2.55 -122.65 -1.5 -123.85 -1.2 L-137.85 1.8 Q-136.3 7.55 -132.45 26.0 -128.5 45.05 -127.15 50.3 -126.85 51.6 -127.55 52.75 -128.3 53.85 -129.6 54.2 L-145.35 57.2 Q-146.65 57.4 -147.65 56.7 -148.75 55.95 -149.0 54.65 L-155.55 5.15 -172.25 8.3 Q-173.55 8.5 -174.55 7.8 -175.55 7.1 -175.85 5.85 L-178.0 -6.0 Q-178.15 -7.3 -177.45 -8.3 M-176.3 -7.6 Q-176.75 -7.0 -176.65 -6.25 L-174.5 5.55 -174.2 1.25 -174.05 -4.3 Q-174.1 -4.95 -173.55 -5.8 -173.0 -6.65 -172.35 -6.8 L-127.05 -16.2 Q-143.4 -13.95 -175.2 -8.3 L-176.3 -7.6 M-124.05 -2.5 Q-123.4 -2.7 -123.0 -3.25 -122.6 -3.85 -122.75 -4.5 L-124.9 -14.7 Q-124.8 -9.85 -124.95 -5.65 -125.05 -3.95 -126.25 -3.65 L-141.7 -0.35 Q-133.5 38.4 -130.65 49.5 -130.5 50.25 -130.9 50.9 -131.3 51.45 -132.05 51.7 L-144.3 55.65 -129.8 52.9 Q-129.05 52.75 -128.6 52.1 -128.25 51.45 -128.4 50.7 -131.25 39.6 -139.45 0.8 L-124.05 -2.5 M-64.65 -12.1 Q-56.05 -12.15 -50.0 -6.05 -43.95 0.0 -43.95 8.6 -43.95 17.15 -50.0 23.25 -56.05 29.3 -64.65 29.35 -73.25 29.3 -79.35 23.25 -85.4 17.15 -85.4 8.6 -85.4 0.0 -79.35 -6.05 -73.25 -12.15 -64.65 -12.1 M-71.9 26.05 Q-76.5 23.7 -79.2 19.35 -82.2 14.75 -82.15 9.25 -82.15 1.35 -76.6 -4.2 -71.05 -9.8 -63.2 -9.75 -59.8 -9.8 -56.6 -8.6 -60.55 -10.55 -64.95 -10.5 -72.85 -10.55 -78.35 -4.95 -83.95 0.55 -83.95 8.45 -83.95 14.45 -80.45 19.4 -77.3 23.85 -72.35 25.95 L-73.45 25.55 Q-69.4 27.7 -64.6 27.75 -56.75 27.7 -51.2 22.15 -45.6 16.6 -45.55 8.75 -45.6 3.35 -48.4 -1.2 -51.1 -5.65 -55.65 -8.05 -52.0 -5.4 -49.9 -1.4 -47.75 2.8 -47.7 7.5 -47.75 15.4 -53.35 21.05 -59.0 26.7 -66.95 26.7 L-71.9 26.05 M-66.4 -1.25 Q-68.05 0.35 -68.05 2.75 -68.05 5.05 -66.4 6.7 -64.75 8.35 -62.4 8.35 -60.1 8.35 -58.4 6.7 -56.8 5.05 -56.75 2.75 -56.8 0.35 -58.4 -1.25 -60.1 -2.95 -62.4 -2.9 -64.75 -2.95 -66.4 -1.25 M-67.55 -2.35 Q-65.4 -4.5 -62.35 -4.5 L-60.65 -4.3 Q-62.45 -5.55 -64.65 -5.55 -67.65 -5.6 -69.75 -3.5 -71.85 -1.4 -71.85 1.6 -71.85 3.8 -70.55 5.65 -69.3 7.45 -67.3 8.3 -69.7 6.1 -69.7 2.85 -69.7 -0.2 -67.55 -2.35 M-54.95 -0.5 Q-56.4 -2.35 -58.65 -2.95 -55.3 -0.95 -55.3 3.05 -55.3 5.9 -57.35 7.95 -59.45 10.0 -62.3 10.0 L-64.1 9.75 Q-62.4 10.8 -60.45 10.8 -57.6 10.8 -55.55 8.75 -53.5 6.65 -53.45 3.8 -53.5 1.4 -54.95 -0.5 M-29.65 -0.8 L-17.55 12.35 -28.05 -0.35 Q-28.55 -0.95 -29.25 -0.85 L-29.55 -0.85 -39.4 0.35 Q-40.95 0.6 -40.85 2.05 -38.75 28.3 -37.2 40.75 -38.15 16.35 -39.2 3.25 -39.25 2.1 -37.75 1.5 -36.3 0.9 -29.65 -0.8 M-27.1 -1.2 L-17.4 10.55 -18.95 -4.65 Q-19.0 -5.9 -18.25 -6.8 -17.5 -7.65 -16.3 -7.8 L-6.15 -8.65 Q-5.0 -8.75 -4.05 -8.0 -3.1 -7.3 -2.9 -6.1 -1.4 6.8 0.45 31.65 0.45 32.8 -0.3 33.75 -1.05 34.6 -2.2 34.8 L-12.95 36.05 Q-14.5 36.15 -15.5 35.05 L-24.25 24.9 -22.6 38.9 Q-22.45 40.1 -23.25 41.05 -24.0 41.9 -25.2 42.1 L-35.35 43.0 Q-36.5 43.0 -37.4 42.35 -38.35 41.55 -38.55 40.4 -40.3 26.05 -42.25 2.1 -42.3 0.95 -41.55 0.05 -40.8 -0.85 -39.65 -1.0 L-29.65 -2.2 Q-28.1 -2.35 -27.1 -1.2 M-15.75 -3.85 Q-15.8 -5.25 -14.4 -5.55 L-5.45 -7.4 -16.15 -6.4 Q-17.65 -6.35 -17.55 -4.85 L-15.95 12.15 -15.75 -3.85 M-2.35 33.4 Q-1.05 33.2 -1.1 31.85 -3.0 6.2 -4.45 -6.4 -3.55 19.65 -3.35 30.7 -3.35 31.75 -4.65 32.2 L-12.55 34.65 -2.35 33.4 M-26.15 21.75 L-28.6 18.95 -26.3 38.05 Q-26.25 39.25 -27.55 39.45 L-35.15 41.5 -25.3 40.65 Q-24.0 40.5 -24.05 39.2 L-26.15 21.75 M-14.6 34.0 Q-13.9 34.9 -12.65 34.55 -13.6 34.4 -24.1 22.95 L-14.6 34.0 M-117.5 36.7 L-118.4 36.35 Q-113.6 39.3 -107.85 39.35 -99.45 39.3 -93.45 33.4 -87.55 27.4 -87.55 19.0 -87.6 12.9 -90.9 7.85 -94.1 2.95 -99.45 0.55 -95.05 3.3 -92.45 7.8 -89.8 12.45 -89.75 17.85 -89.8 26.25 -95.7 32.2 -101.65 38.1 -110.05 38.15 -113.3 38.15 -116.3 37.15 -118.6 35.8 -120.55 33.85 -126.5 27.95 -126.5 19.6 -114.65 -0.7 -106.15 -0.7 -102.4 -0.7 -99.1 0.55 -103.4 -1.5 -108.0 -1.5 -116.4 -1.5 -122.35 4.45 -128.3 10.35 -128.3 18.75 -128.3 27.15 -122.35 33.15 -120.15 35.3 -117.5 36.7 M-98.15 18.95 Q-96.05 16.85 -96.05 13.8 -96.1 11.3 -97.6 9.3 -99.1 7.35 -101.4 6.75 -97.9 8.85 -97.9 13.0 -97.9 16.0 -100.0 18.2 -102.2 20.3 -105.2 20.35 L-107.15 20.05 Q-105.35 21.1 -103.4 21.1 -100.35 21.1 -98.15 18.95 M-86.0 18.9 Q-86.05 27.95 -92.4 34.4 -98.85 40.75 -107.85 40.75 -116.95 40.75 -123.3 34.4 -129.75 27.9 -129.75 18.9 -129.75 9.85 -123.3 3.45 -116.9 -3.0 -107.85 -2.95 -98.85 -3.0 -92.4 3.45 -86.05 9.8 -86.0 18.9 M-110.75 7.55 Q-108.55 5.3 -105.45 5.3 L-103.1 5.7 Q-105.15 4.15 -107.65 4.15 -110.8 4.15 -112.95 6.35 -115.15 8.55 -115.15 11.65 -115.15 14.1 -113.7 16.1 -112.3 18.05 -110.0 18.75 -112.95 16.5 -112.95 12.85 -112.95 9.75 -110.75 7.55 M-109.7 8.5 Q-111.45 10.25 -111.4 12.75 -111.45 15.15 -109.7 16.95 -107.95 18.65 -105.5 18.65 -103.05 18.65 -101.3 16.95 -99.55 15.2 -99.55 12.75 -99.55 10.25 -101.3 8.5 -103.05 6.75 -105.5 6.8 -108.0 6.75 -109.7 8.5 M-155.85 3.9 L-156.05 2.3 -171.85 6.9 -155.85 3.9 M-147.65 54.4 Q-147.5 55.2 -146.65 55.6 L-144.7 55.7 Q-145.5 54.75 -154.25 4.95 L-147.65 54.4 M92.8 23.55 Q92.5 24.2 91.1 24.4 L83.55 26.0 93.25 25.55 Q94.2 25.45 94.55 24.65 L96.4 12.75 Q93.8 21.5 92.8 23.55 M86.55 8.6 L86.8 4.7 81.85 -10.95 86.55 8.6 M113.25 20.6 Q112.2 22.7 111.35 23.15 109.7 23.9 103.55 25.2 L112.75 24.45 Q113.7 24.35 113.95 23.5 L125.15 -11.55 113.25 20.6 M105.95 6.75 L105.9 2.45 101.35 -9.9 105.95 6.75 M148.85 29.5 L149.7 25.95 141.6 -4.75 148.85 29.5 M126.95 38.5 Q128.25 38.9 128.75 37.65 L133.8 24.55 Q130.5 32.25 127.35 36.3 126.4 37.5 124.5 37.3 L126.95 38.5 M103.35 25.1 L103.25 24.9 98.8 15.35 101.45 24.1 Q101.9 25.1 103.0 25.15 L103.35 25.1 M153.45 57.05 Q154.7 57.45 155.2 56.2 L176.4 -0.7 Q158.45 41.95 153.45 55.05 153.15 55.7 151.0 56.3 L153.45 57.05 M142.15 52.85 Q142.35 53.65 143.15 53.9 L144.35 54.3 143.95 53.55 136.35 23.7 142.15 52.85 M74.4 19.1 Q74.35 27.9 68.15 34.1 61.95 40.3 53.2 40.35 44.4 40.3 38.2 34.1 31.95 27.9 32.0 19.1 31.95 10.3 38.2 4.1 44.4 -2.1 53.2 -2.1 61.95 -2.1 68.15 4.1 74.35 10.3 74.4 19.1 M43.9 36.4 L42.9 36.0 Q47.65 38.85 53.2 38.85 61.35 38.85 67.15 33.1 72.85 27.35 72.85 19.25 72.85 13.3 69.6 8.4 66.45 3.6 61.25 1.3 65.55 3.9 68.1 8.3 70.6 12.8 70.6 18.0 70.6 26.15 64.9 31.95 59.1 37.7 51.0 37.7 47.9 37.7 45.05 36.8 40.85 34.35 38.25 30.3 35.2 25.45 35.2 19.75 35.2 11.6 40.95 5.9 46.7 0.1 54.85 0.1 58.4 0.1 61.7 1.35 57.6 -0.7 53.05 -0.65 44.9 -0.7 39.15 5.05 33.35 10.8 33.4 19.0 33.35 25.2 36.95 30.3 39.75 34.25 43.9 36.4 M64.7 14.15 Q64.65 11.75 63.2 9.8 61.7 7.9 59.45 7.3 62.85 9.35 62.85 13.4 62.85 16.3 60.75 18.4 58.65 20.5 55.75 20.5 L53.8 20.3 Q55.55 21.3 57.55 21.3 60.5 21.3 62.6 19.25 64.65 17.1 64.7 14.15 M55.5 7.35 Q53.1 7.3 51.45 9.0 49.7 10.7 49.75 13.1 49.7 15.45 51.45 17.1 53.1 18.8 55.5 18.85 57.85 18.8 59.6 17.1 61.25 15.45 61.25 13.1 61.25 10.7 59.6 9.0 57.85 7.3 55.5 7.35 M55.55 5.9 L57.8 6.2 Q55.8 4.7 53.3 4.7 50.25 4.7 48.1 6.85 45.95 8.95 46.0 12.0 45.95 14.4 47.45 16.35 48.8 18.25 51.05 19.0 48.2 16.75 48.2 13.25 48.2 10.2 50.35 8.05 52.5 5.9 55.55 5.9 M7.95 33.3 Q7.9 34.05 8.4 34.65 8.8 35.2 9.55 35.3 L10.1 35.35 Q9.7 34.8 9.75 34.1 11.05 22.75 13.1 -4.2 L10.45 14.55 7.95 33.3" fill="#ff0000" fill-rule="evenodd" stroke="none"/>
    <path d="M12.75 -5.6 L1.1 -6.3 13.15 -7.4 12.75 -5.6 M39.9 -7.15 Q40.55 -8.75 41.85 -15.95 L41.4 -5.6 Q41.2 -4.15 39.8 -4.2 L28.3 -4.9 Q27.35 23.25 27.2 34.75 27.15 35.4 26.7 35.85 26.15 36.3 25.5 36.3 L10.2 35.45 23.65 35.0 Q25.3 34.95 25.35 33.4 25.65 21.95 26.7 -6.4 L37.85 -6.15 Q39.4 -6.1 39.9 -7.15 M-124.05 -2.5 L-139.45 0.8 Q-131.25 39.6 -128.4 50.7 -128.25 51.45 -128.6 52.1 -129.05 52.75 -129.8 52.9 L-144.3 55.65 -132.05 51.7 Q-131.3 51.45 -130.9 50.9 -130.5 50.25 -130.65 49.5 -133.5 38.4 -141.7 -0.35 L-126.25 -3.65 Q-125.05 -3.95 -124.95 -5.65 -124.8 -9.85 -124.9 -14.7 L-122.75 -4.5 Q-122.6 -3.85 -123.0 -3.25 -123.4 -2.7 -124.05 -2.5 M-71.9 26.05 L-66.95 26.7 Q-59.0 26.7 -53.35 21.05 -47.75 15.4 -47.7 7.5 -47.75 2.8 -49.9 -1.4 -52.0 -5.4 -55.65 -8.05 -51.1 -5.65 -48.4 -1.2 -45.6 3.35 -45.55 8.75 -45.6 16.6 -51.2 22.15 -56.75 27.7 -64.6 27.75 -69.4 27.7 -73.45 25.55 L-72.35 25.95 -71.9 26.05 M-67.55 -2.35 Q-69.7 -0.2 -69.7 2.85 -69.7 6.1 -67.3 8.3 -69.3 7.45 -70.55 5.65 -71.85 3.8 -71.85 1.6 -71.85 -1.4 -69.75 -3.5 -67.65 -5.6 -64.65 -5.55 -62.45 -5.55 -60.65 -4.3 L-62.35 -4.5 Q-65.4 -4.5 -67.55 -2.35 M-29.55 -0.85 L-29.25 -0.85 Q-28.55 -0.95 -28.05 -0.35 L-17.55 12.35 -29.65 -0.8 -29.55 -0.85 M-26.15 21.75 L-24.05 39.2 Q-24.0 40.5 -25.3 40.65 L-35.15 41.5 -27.55 39.45 Q-26.25 39.25 -26.3 38.05 L-28.6 18.95 -26.15 21.75 M-2.35 33.4 L-12.55 34.65 -4.65 32.2 Q-3.35 31.75 -3.35 30.7 -3.55 19.65 -4.45 -6.4 -3.0 6.2 -1.1 31.85 -1.05 33.2 -2.35 33.4 M-116.3 37.15 Q-113.3 38.15 -110.05 38.15 -101.65 38.1 -95.7 32.2 -89.8 26.25 -89.75 17.85 -89.8 12.45 -92.45 7.8 -95.05 3.3 -99.45 0.55 -94.1 2.95 -90.9 7.85 -87.6 12.9 -87.55 19.0 -87.55 27.4 -93.45 33.4 -99.45 39.3 -107.85 39.35 -113.6 39.3 -118.4 36.35 L-117.5 36.7 -116.3 37.15 M-110.75 7.55 Q-112.95 9.75 -112.95 12.85 -112.95 16.5 -110.0 18.75 -112.3 18.05 -113.7 16.1 -115.15 14.1 -115.15 11.65 -115.15 8.55 -112.95 6.35 -110.8 4.15 -107.65 4.15 -105.15 4.15 -103.1 5.7 L-105.45 5.3 Q-108.55 5.3 -110.75 7.55 M-155.85 3.9 L-171.85 6.9 -156.05 2.3 -155.85 3.9 M126.95 38.5 L124.5 37.3 Q126.4 37.5 127.35 36.3 130.5 32.25 133.8 24.55 L128.75 37.65 Q128.25 38.9 126.95 38.5 M148.85 29.5 L141.6 -4.75 149.7 25.95 148.85 29.5 M105.95 6.75 L101.35 -9.9 105.9 2.45 105.95 6.75 M113.25 20.6 L125.15 -11.55 113.95 23.5 Q113.7 24.35 112.75 24.45 L103.55 25.2 Q109.7 23.9 111.35 23.15 112.2 22.7 113.25 20.6 M86.55 8.6 L81.85 -10.95 86.8 4.7 86.55 8.6 M92.8 23.55 Q93.8 21.5 96.4 12.75 L94.55 24.65 Q94.2 25.45 93.25 25.55 L83.55 26.0 91.1 24.4 Q92.5 24.2 92.8 23.55 M153.45 57.05 L151.0 56.3 Q153.15 55.7 153.45 55.05 158.45 41.95 176.4 -0.7 L155.2 56.2 Q154.7 57.45 153.45 57.05 M45.05 36.8 Q47.9 37.7 51.0 37.7 59.1 37.7 64.9 31.95 70.6 26.15 70.6 18.0 70.6 12.8 68.1 8.3 65.55 3.9 61.25 1.3 66.45 3.6 69.6 8.4 72.85 13.3 72.85 19.25 72.85 27.35 67.15 33.1 61.35 38.85 53.2 38.85 47.65 38.85 42.9 36.0 L43.9 36.4 45.05 36.8 M55.55 5.9 Q52.5 5.9 50.35 8.05 48.2 10.2 48.2 13.25 48.2 16.75 51.05 19.0 48.8 18.25 47.45 16.35 45.95 14.4 46.0 12.0 45.95 8.95 48.1 6.85 50.25 4.7 53.3 4.7 55.8 4.7 57.8 6.2 L55.55 5.9" fill="#990000" fill-rule="evenodd" stroke="none"/>
    <path d="M0.45 -5.1 L11.8 -4.35 9.15 14.4 6.55 33.2 Q6.45 34.5 7.35 35.5 8.15 36.5 9.45 36.65 L25.4 37.75 Q26.75 37.75 27.7 36.85 28.65 36.0 28.7 34.65 L29.35 15.65 29.85 -3.35 39.7 -2.75 Q40.9 -2.75 41.85 -3.6 42.75 -4.45 42.9 -5.65 L43.4 -16.05 Q43.35 -17.25 42.6 -18.2 41.8 -19.1 40.65 -19.3 21.15 -21.85 2.1 -23.35 0.85 -23.4 -0.15 -22.6 -1.15 -21.85 -1.25 -20.55 L-2.4 -8.35 Q-2.45 -7.1 -1.65 -6.15 -0.85 -5.2 0.45 -5.1 M0.55 -2.0 Q1.95 11.4 3.4 31.45 3.5 33.75 2.0 35.6 0.5 37.4 -1.8 37.8 L-12.65 39.1 Q-15.75 39.35 -17.75 37.05 L-20.1 34.35 -19.55 38.55 Q-19.35 41.05 -20.9 42.95 -22.5 44.8 -24.85 45.1 L-35.15 46.0 Q-37.45 46.1 -39.25 44.65 -41.2 43.15 -41.55 40.85 L-43.75 20.05 Q-45.35 22.9 -47.85 25.45 -54.8 32.35 -64.65 32.35 -74.5 32.35 -81.45 25.45 L-83.35 23.35 Q-84.6 30.8 -90.25 36.5 -97.6 43.75 -107.85 43.8 -118.2 43.75 -125.45 36.5 L-127.7 34.0 -124.25 49.55 Q-123.6 52.1 -125.05 54.35 -126.45 56.5 -128.95 57.15 L-144.8 60.2 Q-147.25 60.6 -149.35 59.15 -151.5 57.7 -152.0 55.15 L-158.2 8.75 -171.75 11.3 Q-174.2 11.7 -176.25 10.3 -178.3 8.85 -178.8 6.45 L-181.0 -5.55 Q-181.35 -8.0 -179.85 -10.05 -178.45 -12.1 -176.05 -12.6 -143.9 -18.35 -127.55 -20.55 -125.25 -20.8 -123.3 -19.4 -121.35 -18.05 -120.75 -15.8 L-118.5 -5.35 -118.45 -3.7 Q-113.65 -5.95 -107.85 -5.95 -97.6 -5.95 -90.25 1.35 -89.05 2.55 -88.0 3.9 -86.7 -3.0 -81.45 -8.2 -74.5 -15.15 -64.65 -15.15 -54.8 -15.15 -47.85 -8.2 -45.15 -5.5 -43.45 -2.3 -42.05 -3.75 -40.0 -4.05 L-29.95 -5.2 Q-26.85 -5.45 -24.8 -3.1 L-21.35 1.05 -21.9 -4.4 Q-22.1 -6.85 -20.5 -8.7 -18.95 -10.55 -16.65 -10.85 L-6.3 -11.7 -5.15 -11.65 -4.3 -20.9 Q-3.95 -23.35 -2.0 -24.9 -0.15 -26.5 2.3 -26.35 L35.1 -23.05 Q35.7 -21.65 36.85 -20.75 38.6 -19.3 41.15 -19.4 42.2 -19.45 43.1 -20.25 L43.85 -21.1 44.9 -20.1 Q46.45 -18.35 46.4 -16.0 L45.85 -5.4 45.6 -4.0 Q49.15 -5.15 53.2 -5.15 61.05 -5.2 67.1 -0.85 L65.55 -4.85 Q64.8 -7.05 65.75 -9.2 66.65 -11.35 68.8 -12.3 L78.1 -16.2 Q80.3 -17.05 82.55 -16.2 84.75 -15.3 85.7 -13.05 L87.05 -8.85 87.7 -11.35 Q88.25 -13.0 89.7 -14.05 91.15 -15.15 92.85 -15.25 L99.05 -15.55 Q100.8 -15.65 102.35 -14.7 103.85 -13.8 104.65 -12.25 L106.15 -8.3 108.85 -17.05 Q109.65 -19.2 111.8 -20.25 113.8 -21.25 115.95 -20.7 L125.6 -17.7 Q127.8 -17.0 128.95 -14.85 129.8 -13.3 129.65 -11.55 L132.4 -11.85 141.05 -10.25 Q144.05 -9.6 145.4 -6.85 L150.75 13.45 157.35 -7.25 Q157.9 -9.55 160.0 -10.85 162.0 -12.1 164.25 -11.65 168.85 -10.7 177.55 -6.9 179.65 -5.9 180.6 -3.75 181.5 -1.55 180.75 0.7 L159.5 57.7 Q158.65 59.8 156.55 60.9 154.45 61.9 152.2 61.3 L141.8 58.05 Q138.85 57.0 137.95 54.15 L134.3 36.0 133.0 39.3 Q132.05 41.55 129.8 42.5 L125.45 42.7 Q123.6 42.0 121.1 40.75 L116.85 38.8 Q114.75 37.8 113.85 35.7 112.85 33.5 113.65 31.3 L114.5 28.6 113.05 28.9 103.15 29.5 Q100.15 29.55 98.25 27.2 96.6 29.75 93.55 30.05 L83.65 30.45 Q81.85 30.45 80.3 29.45 78.75 28.45 78.0 26.8 L76.9 24.15 Q75.55 31.0 70.35 36.25 63.25 43.35 53.2 43.35 43.15 43.35 36.05 36.25 33.45 33.7 31.85 30.75 L31.75 34.65 Q31.7 37.3 29.7 39.1 27.8 40.85 25.3 40.75 L9.15 39.65 Q6.7 39.35 5.05 37.45 3.3 35.45 3.55 32.85 4.25 26.8 5.85 15.85 L8.3 -1.55 0.55 -2.0 M68.5 -7.95 Q68.0 -6.95 68.4 -5.85 74.4 10.1 80.75 25.7 81.6 27.45 83.6 27.45 L93.4 27.0 Q95.45 26.85 96.05 24.85 L97.55 15.8 100.2 24.65 Q100.95 26.55 103.05 26.45 L112.85 25.9 Q114.7 25.7 115.4 23.95 121.2 6.7 126.6 -11.25 126.85 -12.45 126.3 -13.45 125.75 -14.5 124.65 -14.85 L115.15 -17.75 113.1 -17.6 Q112.1 -17.1 111.7 -16.05 L106.4 1.15 101.95 -10.85 Q101.1 -12.65 99.2 -12.55 L93.1 -12.25 Q91.15 -12.15 90.5 -10.3 L87.45 2.65 82.9 -11.85 Q82.45 -12.95 81.4 -13.35 80.3 -13.8 79.2 -13.35 L70.0 -9.5 Q68.95 -9.05 68.5 -7.95 M129.85 -8.3 Q128.85 -7.65 128.6 -6.5 L116.5 32.3 Q116.1 33.4 116.6 34.5 117.0 35.55 118.1 36.05 L122.3 38.0 126.45 39.85 128.65 39.7 Q129.75 39.2 130.15 38.1 L135.2 24.95 140.8 53.2 Q141.3 54.65 142.7 55.15 L153.0 58.4 155.2 58.15 Q156.2 57.65 156.65 56.55 L177.95 -0.35 Q178.3 -1.45 177.85 -2.55 177.35 -3.6 176.3 -4.1 167.45 -7.9 163.7 -8.65 162.55 -8.85 161.6 -8.25 160.6 -7.6 160.3 -6.4 153.85 14.25 150.45 24.1 L142.65 -5.55 Q141.95 -6.95 140.45 -7.25 L131.95 -8.75 Q130.75 -8.95 129.85 -8.3 M-177.45 -8.3 Q-178.15 -7.3 -178.0 -6.0 L-175.85 5.85 Q-175.55 7.1 -174.55 7.8 -173.55 8.5 -172.25 8.3 L-155.55 5.15 -149.0 54.65 Q-148.75 55.95 -147.65 56.7 -146.65 57.4 -145.35 57.2 L-129.6 54.2 Q-128.3 53.85 -127.55 52.75 -126.85 51.6 -127.15 50.3 -128.5 45.05 -132.45 26.0 -136.3 7.55 -137.85 1.8 L-123.85 -1.2 Q-122.65 -1.5 -121.95 -2.55 -121.3 -3.6 -121.5 -4.85 L-123.7 -15.1 Q-123.95 -16.3 -125.0 -16.95 -125.95 -17.65 -127.15 -17.55 -143.15 -15.4 -175.45 -9.65 -176.7 -9.35 -177.45 -8.3 M-64.65 -12.1 Q-73.25 -12.15 -79.35 -6.05 -85.4 0.0 -85.4 8.6 -85.4 17.15 -79.35 23.25 -73.25 29.3 -64.65 29.35 -56.05 29.3 -50.0 23.25 -43.95 17.15 -43.95 8.6 -43.95 0.0 -50.0 -6.05 -56.05 -12.15 -64.65 -12.1 M-66.4 -1.25 Q-64.75 -2.95 -62.4 -2.9 -60.1 -2.95 -58.4 -1.25 -56.8 0.35 -56.75 2.75 -56.8 5.05 -58.4 6.7 -60.1 8.35 -62.4 8.35 -64.75 8.35 -66.4 6.7 -68.05 5.05 -68.05 2.75 -68.05 0.35 -66.4 -1.25 M-27.1 -1.2 Q-28.1 -2.35 -29.65 -2.2 L-39.65 -1.0 Q-40.8 -0.85 -41.55 0.05 -42.3 0.95 -42.25 2.1 -40.3 26.05 -38.55 40.4 -38.35 41.55 -37.4 42.35 -36.5 43.0 -35.35 43.0 L-25.2 42.1 Q-24.0 41.9 -23.25 41.05 -22.45 40.1 -22.6 38.9 L-24.25 24.9 -15.5 35.05 Q-14.5 36.15 -12.95 36.05 L-2.2 34.8 Q-1.05 34.6 -0.3 33.75 0.45 32.8 0.45 31.65 -1.4 6.8 -2.9 -6.1 -3.1 -7.3 -4.05 -8.0 -5.0 -8.75 -6.15 -8.65 L-16.3 -7.8 Q-17.5 -7.65 -18.25 -6.8 -19.0 -5.9 -18.95 -4.65 L-17.4 10.55 -27.1 -1.2 M-59.8 2.75 Q-59.85 1.65 -60.6 0.9 -61.35 0.1 -62.4 0.1 -63.5 0.1 -64.25 0.9 -65.0 1.65 -65.0 2.75 -65.0 3.8 -64.25 4.55 -63.5 5.3 -62.4 5.3 -61.35 5.3 -60.6 4.55 -59.85 3.8 -59.8 2.75 M-48.3 59.65 Q-49.45 59.65 -50.1 60.4 -50.85 61.15 -50.85 62.3 L-50.85 69.1 -55.4 61.3 Q-56.35 59.65 -58.2 59.65 -61.2 59.65 -61.2 62.45 L-61.2 74.0 Q-61.2 76.7 -58.65 76.7 -56.15 76.7 -56.1 74.0 L-56.1 67.6 -51.75 74.65 Q-51.1 75.85 -50.35 76.25 L-48.65 76.7 Q-45.75 76.7 -45.75 74.2 L-45.75 62.3 Q-45.75 61.15 -46.4 60.4 -47.15 59.65 -48.3 59.65 M-5.9 72.1 L-11.3 72.1 -11.3 62.55 Q-11.35 59.75 -13.9 59.8 -16.5 59.75 -16.5 62.55 L-16.5 73.2 Q-16.55 76.3 -13.6 76.3 L-5.9 76.3 Q-3.7 76.3 -3.65 74.2 -3.7 72.1 -5.9 72.1 M-86.0 18.9 Q-86.05 9.8 -92.4 3.45 -98.85 -3.0 -107.85 -2.95 -116.9 -3.0 -123.3 3.45 -129.75 9.85 -129.75 18.9 -129.75 27.9 -123.3 34.4 -116.95 40.75 -107.85 40.75 -98.85 40.75 -92.4 34.4 -86.05 27.95 -86.0 18.9 M-109.7 8.5 Q-108.0 6.75 -105.5 6.8 -103.05 6.75 -101.3 8.5 -99.55 10.25 -99.55 12.75 -99.55 15.2 -101.3 16.95 -103.05 18.65 -105.5 18.65 -107.95 18.65 -109.7 16.95 -111.45 15.15 -111.4 12.75 -111.45 10.25 -109.7 8.5 M-107.55 10.65 Q-108.4 11.5 -108.4 12.75 -108.4 13.9 -107.55 14.8 -106.7 15.6 -105.5 15.65 -104.3 15.6 -103.4 14.8 -102.6 13.95 -102.6 12.75 -102.6 11.5 -103.4 10.65 -104.3 9.8 -105.5 9.8 -106.7 9.8 -107.55 10.65 M-126.55 2.5 L-134.15 4.1 -132.1 13.1 Q-130.8 7.2 -126.55 2.5 M-95.65 68.2 Q-95.65 72.65 -98.85 72.65 -102.05 72.65 -102.05 68.2 -102.05 63.75 -98.85 63.75 -95.65 63.75 -95.65 68.2 M-93.0 61.8 Q-95.35 59.65 -98.85 59.65 -102.35 59.65 -104.65 61.8 -107.25 64.15 -107.25 68.2 -107.25 72.3 -104.65 74.65 -102.35 76.7 -98.85 76.7 -95.3 76.7 -93.0 74.65 -90.45 72.3 -90.45 68.2 -90.45 64.15 -93.0 61.8 M-113.4 60.2 Q-110.2 56.9 -105.65 56.9 L119.2 56.9 Q123.75 56.9 127.0 60.2 130.25 63.4 130.25 68.0 130.25 72.55 127.0 75.85 123.8 79.05 119.2 79.1 L-105.65 79.1 Q-110.2 79.05 -113.4 75.85 -116.7 72.55 -116.7 68.0 -116.7 63.4 -113.4 60.2 M109.85 63.85 L115.9 63.85 Q118.1 63.85 118.15 61.95 118.1 60.05 115.9 60.05 L107.6 60.05 Q104.65 60.05 104.65 63.15 L104.65 73.2 Q104.65 76.3 107.6 76.3 L116.15 76.3 Q118.35 76.3 118.4 74.4 118.35 72.5 116.15 72.5 L109.85 72.5 109.85 69.9 114.65 69.9 Q116.9 69.9 116.9 68.05 116.9 66.15 114.65 66.15 L109.85 66.15 109.85 63.85 M74.4 19.1 Q74.35 10.3 68.15 4.1 61.95 -2.1 53.2 -2.1 44.4 -2.1 38.2 4.1 31.95 10.3 32.0 19.1 31.95 27.9 38.2 34.1 44.4 40.3 53.2 40.35 61.95 40.3 68.15 34.1 74.35 27.9 74.4 19.1 M55.5 10.35 Q54.35 10.35 53.55 11.15 52.75 11.95 52.75 13.1 52.75 14.2 53.55 15.0 54.35 15.8 55.5 15.8 56.6 15.8 57.45 15.0 58.2 14.2 58.25 13.1 58.2 11.95 57.45 11.15 56.6 10.35 55.5 10.35 M55.5 7.35 Q57.85 7.3 59.6 9.0 61.25 10.7 61.25 13.1 61.25 15.45 59.6 17.1 57.85 18.8 55.5 18.85 53.1 18.8 51.45 17.1 49.7 15.45 49.75 13.1 49.7 10.7 51.45 9.0 53.1 7.3 55.5 7.35 M38.0 0.15 L32.85 -0.1 32.75 5.95 Q34.1 3.85 36.05 1.95 L38.0 0.15 M25.55 73.8 Q25.5 75.1 26.2 75.85 26.9 76.6 28.15 76.6 30.75 76.55 30.8 73.8 L30.8 62.55 Q30.75 59.75 28.15 59.8 25.55 59.75 25.55 62.55 L25.55 73.8 M74.25 59.65 Q73.1 59.65 72.45 60.4 71.75 61.15 71.75 62.3 L71.75 69.1 67.15 61.3 Q66.2 59.65 64.35 59.65 61.4 59.65 61.4 62.45 L61.4 74.0 Q61.35 76.7 63.9 76.7 66.4 76.7 66.45 74.0 L66.45 67.6 70.8 74.65 Q71.45 75.85 72.2 76.25 72.8 76.7 73.9 76.7 76.8 76.7 76.8 74.2 L76.8 62.3 Q76.8 61.15 76.15 60.4 75.45 59.65 74.25 59.65" fill="#f4e400" fill-rule="evenodd" stroke="none"/>
    <path d="M-126.5 19.6 Q-126.5 11.15 -120.55 5.2 L-126.5 19.6" fill="#cc0000" fill-rule="evenodd" stroke="none"/>
  </g>
</svg>
