<?xml version="1.0" encoding="UTF-8" standalone="no"?>
<svg xmlns:xlink="http://www.w3.org/1999/xlink" height="6.7px" width="16.45px" xmlns="http://www.w3.org/2000/svg">
  <g transform="matrix(1.0, 0.0, 0.0, 1.0, 8.2, 3.3)">
    <path d="M3.2 -2.6 L3.2 -2.55 3.35 -2.15 3.45 -2.55 3.45 -2.6 3.8 -3.05 4.3 -3.2 7.35 -3.2 8.0 -2.9 8.25 -2.3 8.25 2.4 8.0 3.0 7.35 3.25 5.5 3.25 4.9 3.0 4.85 2.95 4.75 3.05 4.7 3.1 4.25 3.25 2.25 3.25 1.75 3.1 1.7 3.05 1.6 3.0 1.0 3.25 -0.7 3.25 -1.3 3.0 -1.5 2.65 -1.95 2.9 -4.6 3.4 Q-6.75 3.4 -7.5 2.7 L-7.55 2.65 Q-8.15 2.2 -8.2 0.95 L-8.1 0.5 -8.1 0.45 -7.85 0.2 Q-8.2 -0.3 -8.15 -0.95 -8.2 -2.25 -6.95 -2.85 L-7.0 -2.85 -4.45 -3.3 Q-2.4 -3.3 -1.5 -2.5 L-1.3 -2.9 -0.7 -3.2 2.35 -3.2 2.9 -3.0 3.2 -2.6" fill="#ffffff" fill-rule="evenodd" stroke="none"/>
    <path d="M2.5 -2.6 L2.8 -2.25 2.9 -1.85 3.0 -2.25 3.3 -2.65 3.75 -2.75 6.4 -2.75 6.95 -2.55 7.15 -2.0 7.15 2.1 6.95 2.6 6.4 2.85 4.8 2.85 Q4.45 2.8 4.25 2.6 L4.25 2.55 4.15 2.65 4.1 2.7 3.7 2.85 1.95 2.85 1.5 2.7 1.5 2.65 1.4 2.6 0.9 2.85 -0.6 2.85 -1.1 2.6 -1.3 2.3 -1.7 2.55 Q-2.45 2.95 -4.0 2.95 -5.9 2.95 -6.5 2.35 L-6.55 2.3 Q-7.1 1.9 -7.15 0.85 L-7.15 0.8 -7.05 0.45 -7.05 0.4 -6.8 0.15 -7.1 -0.85 Q-7.1 -1.95 -6.05 -2.5 L-6.1 -2.5 -3.85 -2.9 Q-2.1 -2.9 -1.3 -2.2 L-1.1 -2.55 -0.6 -2.75 2.05 -2.75 2.5 -2.6 M3.75 -2.0 L2.95 0.75 2.9 0.75 2.05 -2.0 -0.6 -2.0 -0.6 2.1 0.9 2.1 0.9 -1.0 1.95 2.1 3.65 2.1 4.8 -1.0 4.8 2.1 6.4 2.1 6.4 -2.0 3.75 -2.0 M-6.05 -0.1 L-4.55 0.45 -3.25 0.85 -3.2 1.05 Q-3.2 1.45 -3.95 1.45 L-4.45 1.3 -4.6 0.8 -6.4 0.8 -6.05 1.8 -4.0 2.2 Q-1.4 2.2 -1.4 0.85 -1.4 0.4 -1.7 0.1 L-3.15 -0.45 -4.45 -0.85 -4.5 -1.0 Q-4.55 -1.35 -3.95 -1.35 L-3.45 -1.25 -3.25 -0.8 -1.55 -0.8 Q-1.6 -2.15 -3.85 -2.15 -6.35 -2.15 -6.35 -0.85 -6.35 -0.4 -6.05 -0.1" fill="#ffffff" fill-rule="evenodd" stroke="none"/>
    <path d="M-6.05 -0.1 Q-6.35 -0.4 -6.35 -0.85 -6.35 -2.15 -3.85 -2.15 -1.6 -2.15 -1.55 -0.8 L-3.25 -0.8 -3.45 -1.25 -3.95 -1.35 Q-4.55 -1.35 -4.5 -1.0 L-4.45 -0.85 -3.15 -0.45 -1.7 0.1 Q-1.4 0.4 -1.4 0.85 -1.4 2.2 -4.0 2.2 L-6.05 1.8 -6.4 0.8 -4.6 0.8 -4.45 1.3 -3.95 1.45 Q-3.2 1.45 -3.2 1.05 L-3.25 0.85 -4.55 0.45 -6.05 -0.1 M3.75 -2.0 L6.4 -2.0 6.4 2.1 4.8 2.1 4.8 -1.0 3.65 2.1 1.95 2.1 0.9 -1.0 0.9 2.1 -0.6 2.1 -0.6 -2.0 2.05 -2.0 2.9 0.75 2.95 0.75 3.75 -2.0" fill="#000099" fill-rule="evenodd" stroke="none"/>
  </g>
</svg>
