<?xml version="1.0" encoding="UTF-8" standalone="no"?>
<svg xmlns:xlink="http://www.w3.org/1999/xlink" height="4.95px" width="4.9px" xmlns="http://www.w3.org/2000/svg">
  <g transform="matrix(1.0, 0.0, 0.0, 1.0, 2.45, 2.45)">
    <use height="4.95" transform="matrix(1.0, 0.0, 0.0, 1.0, -2.45, -2.45)" width="4.9" xlink:href="#shape0"/>
  </g>
  <defs>
    <g id="shape0" transform="matrix(1.0, 0.0, 0.0, 1.0, 2.45, 2.45)">
      <path d="M1.75 -1.75 Q2.45 -1.0 2.45 0.05 2.45 1.0 1.75 1.75 1.0 2.5 0.0 2.5 -1.0 2.5 -1.75 1.75 -2.45 1.05 -2.45 0.0 -2.45 -1.0 -1.75 -1.75 -1.0 -2.45 0.0 -2.45 1.0 -2.45 1.75 -1.75 M1.5 -0.2 Q1.5 -0.95 1.0 -1.45 0.45 -2.0 -0.25 -1.95 -1.0 -2.0 -1.5 -1.45 -2.0 -0.9 -2.0 -0.2 -2.0 0.5 -1.5 1.05 -1.0 1.55 -0.25 1.6 0.45 1.55 1.0 1.05 1.5 0.5 1.5 -0.2" fill="#000099" fill-rule="evenodd" stroke="none"/>
      <path d="M1.5 -0.2 Q1.5 0.5 1.0 1.05 0.45 1.55 -0.25 1.6 -1.0 1.55 -1.5 1.05 -2.0 0.5 -2.0 -0.2 -2.0 -0.9 -1.5 -1.45 -1.0 -2.0 -0.25 -1.95 0.45 -2.0 1.0 -1.45 1.5 -0.95 1.5 -0.2" fill="#3300ff" fill-rule="evenodd" stroke="none"/>
    </g>
  </defs>
</svg>
