<?xml version="1.0" encoding="UTF-8" standalone="no"?>
<svg xmlns:xlink="http://www.w3.org/1999/xlink" height="246.25px" width="485.2px" xmlns="http://www.w3.org/2000/svg">
  <g transform="matrix(1.0, 0.0, 0.0, 1.0, 231.1, 137.3)">
    <path d="M-213.6 -94.6 L-222.4 -131.7 247.05 -117.8 222.25 41.5 195.4 44.05 Q208.75 44.0 221.65 46.25 L219.55 63.0 158.8 69.35 213.85 73.2 207.05 102.25 -176.55 103.45 -180.1 82.9 -145.75 79.4 -184.5 73.8 -212.9 -84.8 -133.8 -88.1 -213.6 -94.6" fill="#ffffcc" fill-rule="evenodd" stroke="none"/>
    <path d="M-209.75 -89.35 L-219.7 -91.5 -231.1 -137.3 254.1 -123.85 224.9 64.65 215.5 67.65 220.0 70.6 211.1 108.95 -181.05 108.85 -187.0 80.7 -182.2 79.55 -189.5 75.9 -220.45 -87.4 -209.75 -89.35 M-213.6 -94.6 L-133.8 -88.1 -212.9 -84.8 -184.5 73.8 -145.75 79.4 -180.1 82.9 -176.55 103.45 207.05 102.25 213.85 73.2 158.8 69.35 219.55 63.0 221.65 46.25 Q208.75 44.0 195.4 44.05 L222.25 41.5 247.05 -117.8 -222.4 -131.7 -213.6 -94.6" fill="#ff9966" fill-rule="evenodd" stroke="none"/>
  </g>
</svg>
