<?xml version="1.0" encoding="UTF-8" standalone="no"?>
<svg xmlns:xlink="http://www.w3.org/1999/xlink" height="67.95px" width="475.0px" xmlns="http://www.w3.org/2000/svg">
  <g transform="matrix(1.0, 0.0, 0.0, 1.0, 157.45, 33.95)">
    <path d="M286.05 -33.95 L288.0 -33.95 287.85 -33.65 286.05 -33.95" fill="#000033" fill-rule="evenodd" stroke="none"/>
    <path d="M72.85 -33.95 L220.25 -33.95 139.8 34.0 -139.15 34.0 72.85 -33.95 M223.35 -33.95 L286.05 -33.95 287.85 -33.65 288.0 -33.95 317.55 -33.95 317.55 34.0 145.75 34.0 223.35 -33.95 M-152.65 34.0 L-157.45 34.0 -157.45 -5.1 -24.35 -33.95 67.85 -33.95 -152.65 34.0" fill="#333333" fill-rule="evenodd" stroke="none"/>
    <path d="M67.85 -33.95 L72.85 -33.95 -139.15 34.0 -152.65 34.0 67.85 -33.95 M220.25 -33.95 L223.35 -33.95 145.75 34.0 139.8 34.0 220.25 -33.95" fill="#000000" fill-rule="evenodd" stroke="none"/>
  </g>
</svg>
