<?xml version="1.0" encoding="UTF-8" standalone="no"?>
<svg xmlns:xlink="http://www.w3.org/1999/xlink" height="370.95px" width="538.95px" xmlns="http://www.w3.org/2000/svg">
  <g transform="matrix(1.0, 0.0, 0.0, 1.0, 54.35, 198.15)">
    <path d="M184.85 -98.1 L184.8 -98.15 184.65 -98.35 96.55 -157.75 113.45 -165.95 203.15 -105.15 202.45 -98.95 184.85 -98.1" fill="#333399" fill-rule="evenodd" stroke="none"/>
    <path d="M-53.15 -83.3 L94.6 -156.9 183.8 -97.7 140.35 172.8 -52.45 172.8 -53.15 -83.3" fill="#6699cc" fill-rule="evenodd" stroke="none"/>
    <path d="M202.45 -98.95 L171.65 172.8 142.5 172.8 184.85 -97.85 184.85 -98.1 202.45 -98.95" fill="#ccccff" fill-rule="evenodd" stroke="none"/>
    <path d="M202.45 -98.95 L203.15 -105.15 113.45 -165.95 96.55 -157.75 184.65 -98.35 184.8 -98.15 184.85 -98.1 184.85 -97.85 142.5 172.8 140.35 172.8 183.8 -97.7 94.6 -156.9 -53.15 -83.3 -54.35 -125.55 -54.35 -198.15 484.6 -198.15 482.6 172.8 171.65 172.8 202.45 -98.95" fill="#000033" fill-rule="evenodd" stroke="none"/>
  </g>
</svg>
