<?xml version="1.0" encoding="UTF-8" standalone="no"?>
<svg xmlns:xlink="http://www.w3.org/1999/xlink" height="26.55px" width="673.55px" xmlns="http://www.w3.org/2000/svg">
  <g transform="matrix(1.0, 0.0, 0.0, 1.0, 336.75, 13.1)">
    <path d="M336.8 -9.75 L336.8 -8.35 -336.75 -8.35 -336.75 -9.75 336.8 -9.75 M336.8 6.35 L336.8 7.75 -336.75 7.75 -336.75 6.35 336.8 6.35 M336.8 12.05 L336.8 13.45 -336.75 13.45 -336.75 12.05 336.8 12.05" fill="#333333" fill-rule="evenodd" stroke="none"/>
    <path d="M336.8 -11.75 L336.8 -9.75 -336.75 -9.75 -336.75 -11.75 336.8 -11.75 M336.8 -8.35 L336.8 6.35 -336.75 6.35 -336.75 -8.35 336.8 -8.35 M336.8 9.2 L336.8 12.05 -336.75 12.05 -336.75 9.2 336.8 9.2" fill="#666666" fill-rule="evenodd" stroke="none"/>
    <path d="M-336.75 -11.75 L-336.75 -13.1 336.8 -13.1 336.8 -11.75 -336.75 -11.75 M336.8 7.75 L336.8 9.2 -336.75 9.2 -336.75 7.75 336.8 7.75" fill="#999999" fill-rule="evenodd" stroke="none"/>
  </g>
</svg>
