<?xml version="1.0" encoding="UTF-8" standalone="no"?>
<svg xmlns:xlink="http://www.w3.org/1999/xlink" height="299.9px" width="358.2px" xmlns="http://www.w3.org/2000/svg">
  <g transform="matrix(1.0, 0.0, 0.0, 1.0, 160.7, 95.55)">
    <path d="M176.65 -50.65 L176.65 -50.8 176.7 -50.8 176.8 -50.65 176.65 -50.65" fill="#000033" fill-rule="evenodd" stroke="none"/>
    <path d="M140.05 -37.6 L139.9 -37.75 140.15 -37.7 140.05 -37.6" fill="#ccccff" fill-rule="evenodd" stroke="none"/>
    <path d="M197.15 -30.35 L197.5 -30.05 195.7 -29.55 197.2 -30.65 197.15 -30.35 M-160.7 -67.25 L-160.4 -67.25 -160.65 -67.15 -160.7 -67.25" fill="#333399" fill-rule="evenodd" stroke="none"/>
    <path d="M-8.05 -92.65 L-7.8 -95.55 -7.75 -95.5 -8.05 -92.65 M-75.9 204.35 L-74.7 204.25 -74.7 204.35 -75.9 204.35" fill="#6699cc" fill-rule="evenodd" stroke="none"/>
  </g>
</svg>
