<?xml version="1.0" encoding="UTF-8" standalone="no"?>
<svg xmlns:xlink="http://www.w3.org/1999/xlink" height="337.0px" width="261.6px" xmlns="http://www.w3.org/2000/svg">
  <g transform="matrix(1.0, 0.0, 0.0, 1.0, 122.4, 182.8)">
    <path d="M134.05 -85.4 L128.25 -86.8 132.65 -103.35 135.85 -102.1 139.2 -100.8 138.7 -84.3 134.05 -85.4 M109.9 141.45 L95.25 138.8 103.0 101.0 113.85 104.5 118.1 105.9 117.1 142.1 109.9 141.45 M-10.65 -121.0 L-10.0 -120.4 Q-8.0 -118.35 -6.6 -116.05 -4.45 -112.45 -3.8 -108.2 L-3.75 -107.95 -3.75 -107.9 Q-2.75 -99.85 -7.75 -94.15 -10.7 -90.8 -14.7 -89.4 L-14.95 -89.4 -37.55 -66.15 -74.55 -91.0 -71.85 -99.2 -70.65 -98.4 -71.6 -99.7 -42.7 -114.05 Q-41.7 -118.45 -39.0 -121.5 -34.25 -127.0 -26.55 -127.25 L-25.9 -127.25 Q-20.05 -127.3 -15.05 -124.3 -13.15 -123.2 -11.35 -121.65 L-10.65 -121.0 M-15.0 -89.4 L-15.3 -89.4 -15.25 -89.3 -15.0 -89.4" fill="#000033" fill-rule="evenodd" stroke="none"/>
    <path d="M135.85 -102.1 L132.65 -103.35 128.25 -86.8 134.05 -85.4 113.85 104.5 103.0 101.0 95.25 138.8 109.9 141.45 108.55 154.2 55.65 154.2 84.2 41.55 -77.4 -67.8 74.2 47.5 53.9 154.2 0.05 154.2 -122.4 69.6 -122.4 -41.2 -81.05 -72.4 -122.4 -50.25 -122.4 -97.05 48.45 -182.8 128.85 -125.8 137.65 -119.1 135.85 -102.1 M-10.65 -121.0 Q6.2 -132.25 21.55 -143.6 L22.85 -144.55 Q30.5 -150.15 39.25 -155.45 L-15.05 -124.3 Q-20.05 -127.3 -25.9 -127.25 L-26.55 -127.25 Q-34.25 -127.0 -39.0 -121.5 -41.7 -118.45 -42.7 -114.05 L-71.6 -99.7 -70.65 -98.4 -71.85 -99.2 -74.55 -91.0 -37.55 -66.15 -14.95 -89.4 -14.7 -89.4 Q-10.7 -90.8 -7.75 -94.15 -2.75 -99.85 -3.75 -107.9 L-3.75 -107.95 -3.8 -108.2 107.2 -38.75 -6.6 -116.05 Q-8.0 -118.35 -10.0 -120.4 L-10.65 -121.0 M122.1 -109.3 L47.55 -160.35 118.55 -107.8 Q114.5 -82.5 105.55 -44.15 L122.1 -109.3 M-122.4 81.0 L-3.55 154.2 -122.4 154.2 -122.4 81.0" fill="#333399" fill-rule="evenodd" stroke="none"/>
    <path d="M-122.4 -50.25 L-81.05 -72.4 -122.4 -41.2 -122.4 -50.25 M-122.4 69.6 L0.05 154.2 -3.55 154.2 -122.4 81.0 -122.4 69.6 M53.9 154.2 L74.2 47.5 -77.4 -67.8 84.2 41.55 55.65 154.2 53.9 154.2 M-15.05 -124.3 L39.25 -155.45 Q30.5 -150.15 22.85 -144.55 L21.55 -143.6 Q6.2 -132.25 -10.65 -121.0 L-11.35 -121.65 Q-13.15 -123.2 -15.05 -124.3 M-6.6 -116.05 L107.2 -38.75 -3.8 -108.2 Q-4.45 -112.45 -6.6 -116.05 M122.1 -109.3 L105.55 -44.15 Q114.5 -82.5 118.55 -107.8 L47.55 -160.35 122.1 -109.3" fill="#000066" fill-rule="evenodd" stroke="none"/>
  </g>
</svg>
