<?xml version="1.0" encoding="UTF-8" standalone="no"?>
<svg xmlns:xlink="http://www.w3.org/1999/xlink" height="276.4px" width="317.65px" xmlns="http://www.w3.org/2000/svg">
  <g transform="matrix(1.0, 0.0, 0.0, 1.0, 141.15, 150.35)">
    <path d="M31.4 -142.05 Q40.1 -138.15 44.5 -132.85 49.25 -127.15 46.1 -122.85 L40.3 -115.2 Q44.5 -112.4 45.75 -110.05 46.85 -108.0 45.85 -105.85 45.1 -104.35 42.65 -101.7 L38.15 -96.8 39.05 -91.85 Q39.25 -89.0 37.9 -87.1 43.2 -83.45 49.8 -84.0 L50.25 -83.65 Q48.65 -80.35 44.9 -78.5 41.7 -76.95 37.5 -76.65 39.15 -73.6 39.0 -63.4 35.55 -67.05 30.1 -69.15 31.25 -64.3 30.2 -60.1 43.1 -59.2 59.05 -59.85 L87.8 -61.9 Q93.25 -66.45 100.95 -64.45 108.0 -62.65 112.4 -56.9 113.85 -59.0 119.45 -75.0 124.5 -89.75 125.9 -90.1 134.15 -92.4 134.4 -81.85 134.5 -75.2 131.9 -66.4 L136.3 -73.95 Q140.25 -81.15 143.15 -85.2 152.85 -98.95 157.6 -89.75 160.35 -84.45 154.2 -72.65 149.3 -63.25 143.55 -57.2 145.85 -55.65 149.9 -56.75 152.85 -57.55 157.85 -60.2 L165.95 -64.55 Q170.35 -66.7 172.85 -66.7 178.45 -60.35 175.45 -55.25 173.0 -51.3 164.7 -47.6 L149.5 -42.0 Q140.85 -39.0 138.7 -36.9 134.45 -32.8 134.55 -28.9 134.65 -26.2 137.3 -22.4 L139.5 -19.25 141.45 -16.05 Q143.15 -12.25 141.5 -8.5 139.65 -4.3 135.15 -2.1 130.2 0.25 126.65 -2.75 126.05 -3.2 126.25 -5.45 L126.65 -10.35 Q126.85 -17.7 121.85 -21.3 L112.65 -21.8 Q107.4 -22.55 103.95 -24.75 101.1 -22.8 97.3 -21.95 L89.8 -21.65 Q85.85 -22.25 83.2 -24.35 80.3 -26.7 79.5 -30.55 58.55 -36.65 31.0 -37.5 34.7 -25.65 45.35 -16.1 52.4 -9.75 66.85 -1.35 67.2 1.95 68.65 8.15 70.1 14.5 70.45 17.35 71.0 22.35 70.0 26.25 68.8 30.85 65.1 34.85 69.15 37.25 74.5 41.95 L84.1 50.85 Q90.05 56.5 93.55 59.3 98.6 63.35 102.5 65.05 L109.35 68.1 Q113.25 70.05 115.6 72.05 121.7 77.35 118.5 85.25 L120.35 87.4 70.85 118.2 Q67.95 111.7 64.5 105.7 55.5 106.55 53.1 99.25 52.15 96.2 52.6 92.35 53.1 88.6 54.85 85.25 45.15 70.65 35.5 60.4 28.95 62.2 23.85 65.35 L20.6 67.4 Q19.05 68.3 18.1 68.6 15.85 69.2 12.55 66.8 9.65 64.65 1.25 56.55 -10.05 59.45 -18.75 56.7 L-32.4 67.1 Q-44.1 65.45 -54.6 56.95 -57.65 61.5 -60.2 68.15 L-64.3 80.05 Q-62.0 81.05 -61.0 84.5 -60.05 87.95 -60.8 91.7 -61.7 95.85 -64.35 98.25 -67.45 101.0 -72.25 100.7 -77.05 109.7 -79.6 124.65 L-79.85 126.05 -119.15 62.8 Q-117.35 61.5 -115.0 60.6 -111.65 59.2 -108.45 59.05 L-95.6 48.75 Q-87.25 42.25 -82.9 38.35 -92.2 29.85 -91.75 21.05 -91.4 13.8 -84.15 5.6 -79.8 0.6 -69.05 -8.3 -58.6 -17.05 -55.25 -21.0 -59.65 -21.45 -64.5 -18.05 L-68.8 -14.7 -73.3 -11.15 Q-79.0 -7.0 -84.25 -6.1 -91.4 -4.9 -100.0 -8.75 -101.45 -11.4 -103.9 -14.8 L-108.15 -20.55 Q-113.25 -27.7 -114.65 -33.2 L-115.85 -34.25 Q-119.55 -28.45 -122.1 -8.65 L-123.8 7.0 -125.1 19.25 Q-128.75 22.35 -133.7 21.0 -138.5 19.7 -140.65 15.45 -143.1 10.5 -133.5 -19.55 L-125.8 -42.0 -120.25 -56.6 Q-122.35 -57.85 -124.5 -62.4 -126.4 -66.5 -127.9 -72.2 -129.3 -77.65 -129.85 -82.4 -130.45 -87.3 -129.75 -89.35 -129.25 -90.95 -127.7 -92.8 L-124.95 -95.85 Q-121.6 -99.65 -121.2 -103.5 -117.75 -108.35 -112.6 -108.75 -108.05 -109.15 -101.65 -105.75 -91.7 -129.9 -81.55 -141.6 -72.9 -151.6 -66.7 -150.15 -64.0 -149.5 -62.4 -146.5 -60.9 -143.55 -60.85 -138.95 -60.75 -128.55 -67.65 -115.7 L-74.7 -116.7 -75.1 -121.8 Q-72.75 -126.2 -70.35 -135.1 L-71.55 -138.8 Q-77.65 -135.4 -84.0 -122.35 L-88.9 -111.65 Q-91.75 -105.25 -93.15 -102.6 -84.65 -99.55 -81.05 -97.55 -76.55 -95.05 -75.35 -92.1 -74.2 -89.0 -76.05 -84.15 -77.8 -79.7 -82.85 -71.75 -78.7 -67.55 -77.8 -62.2 -76.9 -56.7 -79.7 -51.6 -76.35 -48.6 -74.6 -44.15 -69.85 -42.2 -64.45 -43.7 -60.7 -44.8 -54.85 -48.45 -47.1 -53.3 -45.2 -54.2 -39.65 -56.95 -35.1 -56.8 -33.35 -63.85 -29.35 -68.55 L-30.4 -73.35 Q-33.85 -70.2 -36.7 -60.3 -41.2 -66.05 -42.3 -67.95 L-43.2 -69.65 Q-44.85 -73.25 -44.55 -76.6 L-44.5 -76.9 -49.5 -70.75 Q-52.3 -74.6 -49.55 -81.5 -48.8 -83.5 -47.65 -85.55 -46.1 -88.45 -43.8 -91.55 L-47.05 -94.75 Q-51.55 -100.05 -50.8 -104.8 -48.6 -101.95 -44.75 -100.3 L-42.65 -99.55 Q-44.35 -105.4 -43.2 -114.6 -42.0 -124.0 -38.3 -132.25 -34.3 -141.45 -28.6 -145.9 -22.05 -150.95 -14.45 -148.75 -12.75 -148.3 -10.75 -146.9 L-7.4 -144.3 Q-3.3 -141.1 0.05 -141.3 4.7 -146.5 14.05 -146.3 21.4 -146.2 29.3 -142.95 L31.4 -142.05 M28.55 -142.35 Q22.7 -144.75 17.2 -144.95 10.05 -146.1 4.8 -143.0 1.85 -141.25 -0.45 -138.2 -1.7 -136.35 -0.2 -135.7 15.85 -151.9 44.35 -130.55 L42.45 -134.0 Q35.25 -139.65 28.55 -142.35 M43.85 -107.25 Q46.5 -109.4 41.9 -112.25 35.3 -117.2 19.7 -116.7 39.2 -113.15 43.85 -107.25 M34.4 -70.1 L31.6 -69.35 Q34.95 -69.2 38.5 -64.95 38.05 -68.25 34.4 -70.1 M81.15 -31.7 Q84.9 -21.05 98.0 -24.7 86.35 -25.95 81.1 -34.95 54.45 -42.85 35.15 -39.3 58.6 -38.45 81.15 -31.7 M108.1 -24.65 Q113.45 -21.95 117.95 -22.35 123.2 -22.8 125.5 -18.85 127.75 -14.95 127.5 -11.35 127.2 -7.8 127.3 -4.1 130.2 0.0 133.85 -4.2 137.5 -8.5 134.3 -10.0 131.05 -11.55 128.9 -17.6 126.75 -23.7 125.5 -25.25 124.2 -26.8 121.35 -25.3 118.45 -23.75 114.6 -23.65 110.75 -23.6 108.1 -24.65 M167.1 -54.95 L167.45 -54.55 167.65 -54.75 167.1 -54.95 M159.6 -48.5 L159.4 -48.75 159.55 -48.5 159.6 -48.5 M98.45 68.15 L98.05 68.55 98.65 68.35 98.45 68.15 M16.2 61.2 Q11.0 62.8 4.45 57.0 9.8 63.85 17.05 67.1 L16.2 61.2 M55.55 87.6 Q51.25 103.45 63.25 103.85 55.25 97.05 61.8 85.75 62.0 81.55 55.55 87.6 M58.25 77.45 Q50.35 69.55 37.85 60.55 49.05 72.7 55.0 82.95 L58.25 77.45 M-42.0 -106.2 Q-42.1 -107.4 -41.35 -111.5 -40.55 -116.0 -37.1 -126.9 -33.7 -137.8 -26.15 -143.3 -19.25 -148.35 -10.5 -144.95 L-16.0 -147.35 Q-21.6 -149.85 -29.15 -143.55 -36.7 -137.3 -39.75 -125.35 -42.75 -113.6 -42.0 -106.2 M-97.7 -107.1 Q-88.05 -137.15 -69.8 -149.0 -83.5 -145.4 -99.3 -107.4 L-97.7 -107.1 M-113.0 -107.4 Q-118.55 -106.35 -120.4 -101.75 -122.3 -97.2 -126.15 -93.55 -130.05 -89.95 -128.9 -82.6 -127.75 -75.25 -124.95 -67.95 -125.4 -74.5 -124.9 -78.0 -124.4 -81.5 -121.0 -82.3 -125.6 -88.45 -119.4 -91.85 L-113.95 -94.7 Q-117.05 -101.95 -109.5 -107.2 L-113.0 -107.4 M-118.75 -53.3 L-120.3 -53.95 Q-129.3 -31.65 -135.0 -10.45 L-132.25 -11.75 Q-128.55 -30.25 -118.75 -53.3 M-87.0 -72.8 L-86.45 -72.3 -86.3 -72.45 -87.0 -72.8 M-132.25 -9.8 L-135.5 -8.4 Q-138.9 1.35 -140.15 9.75 -136.4 5.05 -133.6 6.4 -134.4 -0.85 -132.25 -9.8 M-107.4 -23.35 L-103.4 -15.95 Q-100.15 -9.55 -90.15 -7.85 -80.2 -6.15 -72.45 -14.25 -64.75 -22.35 -53.75 -24.75 -63.8 -24.75 -72.7 -17.65 -81.6 -10.55 -92.9 -13.75 -100.25 -22.3 -107.4 -23.35 M-39.6 -72.85 Q-41.75 -73.05 -43.9 -77.55 -44.05 -69.8 -37.1 -62.7 -39.65 -67.35 -39.6 -72.85 M-43.45 -96.6 Q-47.75 -97.6 -50.35 -103.4 -49.6 -96.8 -43.7 -92.4 L-43.45 -96.6 M-42.8 -88.35 L-43.25 -90.8 Q-52.4 -79.2 -49.25 -72.5 -48.15 -81.1 -42.8 -88.35 M-68.55 6.65 Q-69.25 -2.7 -57.65 -14.9 -83.25 3.85 -88.05 14.25 -76.6 1.55 -68.55 6.65" fill="#000000" fill-rule="evenodd" stroke="none"/>
    <path d="M81.1 -34.95 L81.15 -31.7 Q58.6 -38.45 35.15 -39.3 54.45 -42.85 81.1 -34.95 M16.2 61.2 L17.05 67.1 Q9.8 63.85 4.45 57.0 11.0 62.8 16.2 61.2 M16.4 64.9 L16.45 65.3 16.5 65.25 16.4 64.9 M-107.4 -23.35 Q-100.25 -22.3 -92.9 -13.75 -81.6 -10.55 -72.7 -17.65 -63.8 -24.75 -53.75 -24.75 -64.75 -22.35 -72.45 -14.25 -80.2 -6.15 -90.15 -7.85 -100.15 -9.55 -103.4 -15.95 L-107.4 -23.35 M-68.55 6.65 Q-76.6 1.55 -88.05 14.25 -83.25 3.85 -57.65 -14.9 -69.25 -2.7 -68.55 6.65" fill="#330066" fill-rule="evenodd" stroke="none"/>
    <path d="M81.15 -31.7 L81.1 -34.95 Q86.35 -25.95 98.0 -24.7 84.9 -21.05 81.15 -31.7 M55.55 87.6 Q62.0 81.55 61.8 85.75 55.25 97.05 63.25 103.85 51.25 103.45 55.55 87.6" fill="#660000" fill-rule="evenodd" stroke="none"/>
    <path d="M34.4 -70.1 Q38.05 -68.25 38.5 -64.95 34.95 -69.2 31.6 -69.35 L34.4 -70.1 M108.1 -24.65 Q110.75 -23.6 114.6 -23.65 118.45 -23.75 121.35 -25.3 124.2 -26.8 125.5 -25.25 126.75 -23.7 128.9 -17.6 131.05 -11.55 134.3 -10.0 137.5 -8.5 133.85 -4.2 130.2 0.0 127.3 -4.1 127.2 -7.8 127.5 -11.35 127.75 -14.95 125.5 -18.85 123.2 -22.8 117.95 -22.35 113.45 -21.95 108.1 -24.65 M58.25 77.45 L55.0 82.95 Q49.05 72.7 37.85 60.55 50.35 69.55 58.25 77.45 M-113.0 -107.4 L-109.5 -107.2 Q-117.05 -101.95 -113.95 -94.7 L-119.4 -91.85 Q-125.6 -88.45 -121.0 -82.3 -124.4 -81.5 -124.9 -78.0 -125.4 -74.5 -124.95 -67.95 -127.75 -75.25 -128.9 -82.6 -130.05 -89.95 -126.15 -93.55 -122.3 -97.2 -120.4 -101.75 -118.55 -106.35 -113.0 -107.4 M-43.45 -96.6 L-43.7 -92.4 Q-49.6 -96.8 -50.35 -103.4 -47.75 -97.6 -43.45 -96.6 M-39.6 -72.85 Q-39.65 -67.35 -37.1 -62.7 -44.05 -69.8 -43.9 -77.55 -41.75 -73.05 -39.6 -72.85 M-42.8 -88.35 Q-48.15 -81.1 -49.25 -72.5 -52.4 -79.2 -43.25 -90.8 L-42.8 -88.35" fill="#ffffff" fill-rule="evenodd" stroke="none"/>
    <path d="M-42.0 -106.2 Q-42.75 -113.6 -39.75 -125.35 -36.7 -137.3 -29.15 -143.55 -21.6 -149.85 -16.0 -147.35 L-10.5 -144.95 Q-19.25 -148.35 -26.15 -143.3 -33.7 -137.8 -37.1 -126.9 -40.55 -116.0 -41.35 -111.5 -42.1 -107.4 -42.0 -106.2" fill="#00ccff" fill-rule="evenodd" stroke="none"/>
    <path d="M4.8 -143.0 Q5.8 -141.9 8.2 -142.65 L11.75 -143.4 Q15.1 -143.8 18.6 -143.5 L25.35 -142.4 Q27.35 -141.85 28.55 -142.35 35.25 -139.65 42.45 -134.0 L44.35 -130.55 Q15.85 -151.9 -0.2 -135.7 -1.7 -136.35 -0.45 -138.2 1.85 -141.25 4.8 -143.0 M43.85 -107.25 Q39.2 -113.15 19.7 -116.7 35.3 -117.2 41.9 -112.25 46.5 -109.4 43.85 -107.25" fill="#ffcc00" fill-rule="evenodd" stroke="none"/>
    <path d="M28.55 -142.35 Q27.35 -141.85 25.35 -142.4 L18.6 -143.5 Q15.1 -143.8 11.75 -143.4 L8.2 -142.65 Q5.8 -141.9 4.8 -143.0 10.05 -146.1 17.2 -144.95 22.7 -144.75 28.55 -142.35" fill="#ffff33" fill-rule="evenodd" stroke="none"/>
    <path d="M-97.7 -107.1 L-99.3 -107.4 Q-83.5 -145.4 -69.8 -149.0 -88.05 -137.15 -97.7 -107.1 M-118.75 -53.3 Q-128.55 -30.25 -132.25 -11.75 L-135.0 -10.45 Q-129.3 -31.65 -120.3 -53.95 L-118.75 -53.3" fill="#996600" fill-rule="evenodd" stroke="none"/>
    <path d="M-132.25 -9.8 Q-134.4 -0.85 -133.6 6.4 -136.4 5.05 -140.15 9.75 -138.9 1.35 -135.5 -8.4 L-132.25 -9.8" fill="#ffff00" fill-rule="evenodd" stroke="none"/>
  </g>
</svg>
