<?xml version="1.0" encoding="UTF-8" standalone="no"?>
<svg xmlns:xlink="http://www.w3.org/1999/xlink" height="349.8px" width="263.0px" xmlns="http://www.w3.org/2000/svg">
  <g transform="matrix(1.0, 0.0, 0.0, 1.0, 68.05, 176.35)">
    <path d="M117.45 173.45 L106.05 173.45 134.1 91.0 49.45 -7.6 142.1 88.25 117.45 173.45 M37.15 173.45 L29.75 173.45 -53.8 108.65 43.35 3.5 -43.7 106.45 37.15 173.45 M111.2 -88.05 Q136.2 -117.45 156.3 -141.95 149.45 -133.15 143.8 -124.5 L142.85 -123.05 Q132.85 -107.45 117.7 -86.5 L111.65 -87.25 111.2 -88.05 M126.75 -45.8 Q144.65 -15.1 163.05 14.7 147.25 -4.8 121.75 -43.9 L121.95 -43.95 Q124.5 -44.6 126.75 -45.8 M176.8 -85.5 L157.2 -144.95 181.75 -85.8 162.6 8.75 176.8 -85.5 M194.95 18.0 L194.95 18.85 194.05 19.0 194.95 18.0" fill="#000066" fill-rule="evenodd" stroke="none"/>
    <path d="M158.85 -176.35 L166.85 -176.35 192.0 -103.0 189.75 -82.15 189.55 -81.75 189.4 -81.55 189.5 -81.8 187.3 -85.5 183.4 -70.35 183.7 -69.35 187.9 -65.1 167.55 124.35 162.35 120.85 156.3 153.35 163.6 161.3 162.3 173.45 117.45 173.45 142.1 88.25 49.45 -7.6 134.1 91.0 106.05 173.45 37.15 173.45 -43.7 106.45 43.35 3.5 -53.8 108.65 29.75 173.45 -68.05 173.45 -68.05 72.75 158.85 -176.35 M-68.05 67.25 L-68.05 18.6 148.25 -176.35 157.35 -176.35 -68.05 67.25 M117.7 -86.5 Q132.85 -107.45 142.85 -123.05 L143.8 -124.5 Q149.45 -133.15 156.3 -141.95 136.2 -117.45 111.2 -88.05 L106.9 -95.75 100.6 -95.75 55.8 -45.55 89.1 -10.7 110.05 -44.15 Q113.0 -43.35 116.15 -43.3 L117.85 -43.35 121.75 -43.9 Q147.25 -4.8 163.05 14.7 144.65 -15.1 126.75 -45.8 130.0 -47.6 132.45 -50.65 137.85 -57.45 136.3 -66.5 134.75 -75.6 127.15 -81.65 122.7 -85.25 117.7 -86.5 M101.75 -17.7 L101.75 -17.75 101.75 -17.7 M183.25 -69.8 L183.65 -69.4 183.4 -70.25 183.25 -69.8 M176.8 -85.5 L162.6 8.75 181.75 -85.8 157.2 -144.95 176.8 -85.5" fill="#333399" fill-rule="evenodd" stroke="none"/>
    <path d="M157.35 -176.35 L158.85 -176.35 -68.05 72.75 -68.05 67.25 157.35 -176.35 M189.55 -81.75 L192.45 -80.65 191.95 -64.15 187.9 -65.1 183.7 -69.35 183.4 -70.35 187.3 -85.5 189.5 -81.8 189.4 -81.55 189.55 -81.75 M167.55 124.35 L171.8 125.75 170.8 161.95 163.6 161.3 156.3 153.35 162.35 120.85 167.55 124.35 M117.7 -86.5 Q122.7 -85.25 127.15 -81.65 134.75 -75.6 136.3 -66.5 137.85 -57.45 132.45 -50.65 130.0 -47.6 126.75 -45.8 124.5 -44.6 121.95 -43.95 L121.75 -43.9 117.85 -43.35 116.15 -43.3 Q113.0 -43.35 110.05 -44.15 L89.1 -10.7 55.8 -45.55 100.6 -95.75 106.9 -95.75 111.2 -88.05 111.65 -87.25 117.7 -86.5 M183.25 -69.8 L183.4 -70.25 183.65 -69.4 183.25 -69.8" fill="#000033" fill-rule="evenodd" stroke="none"/>
  </g>
</svg>
