<?xml version="1.0" encoding="UTF-8" standalone="no"?>
<svg xmlns:xlink="http://www.w3.org/1999/xlink" height="347.2px" width="150.05px" xmlns="http://www.w3.org/2000/svg">
  <g transform="matrix(1.0, 0.0, 0.0, 1.0, 60.45, 182.55)">
    <path d="M13.85 -129.85 L5.55 -125.1 -20.15 -109.75 -28.1 -105.05 Q-19.5 -138.8 -3.75 -182.35 L42.4 -182.55 55.95 -82.85 61.3 -43.65 89.6 164.65 38.8 164.65 21.3 21.9 25.15 162.45 25.2 164.65 -5.25 164.65 Q11.45 148.0 16.35 129.35 21.8 108.7 12.8 94.5 3.05 88.45 -4.5 89.5 -12.1 90.55 -23.4 95.65 -34.75 100.7 -35.9 98.95 -27.6 54.3 11.3 3.65 L0.5 1.35 32.15 -16.5 31.85 -21.05 32.15 -21.2 27.8 -82.8 27.45 -83.1 27.45 -83.25 26.6 -83.9 34.1 -80.15 28.75 -137.95 18.6 -132.2 29.45 -138.7 Q13.9 -130.05 13.85 -129.85" fill="#333399" fill-rule="evenodd" stroke="none"/>
    <path d="M5.55 -125.1 L13.85 -129.85 12.0 -94.5 1.1 -87.35 -0.1 -87.5 -2.35 -87.65 -4.6 -87.6 Q-14.55 -87.1 -21.65 -80.85 L-22.5 -80.0 Q-26.7 -76.05 -28.45 -71.35 L-28.55 -71.15 -28.85 -70.3 Q-29.85 -67.15 -29.8 -63.65 -29.7 -54.3 -22.2 -48.05 -18.9 -45.3 -9.25 -43.45 L-7.85 -6.0 0.15 1.7 0.5 1.35 11.3 3.65 Q-27.6 54.3 -35.9 98.95 -34.75 100.7 -23.4 95.65 -12.1 90.55 -4.5 89.5 3.05 88.45 12.8 94.5 21.8 108.7 16.35 129.35 11.45 148.0 -5.25 164.65 L-60.45 164.65 -28.15 -104.9 -28.15 -105.05 -28.1 -105.05 -20.15 -109.75 -21.85 -93.85 3.75 -115.15 5.55 -125.1 M18.6 -132.2 L28.75 -137.95 34.1 -80.15 26.6 -83.9 22.1 -87.2 12.95 -83.0 Q10.05 -84.95 6.7 -85.9 L3.2 -86.95 17.45 -91.4 17.25 -101.4 17.45 -101.6 17.25 -101.45 16.65 -131.1 18.6 -132.2 M28.05 164.65 L27.6 164.65 26.65 162.4 Q26.4 161.0 28.05 164.65" fill="#ccccff" fill-rule="evenodd" stroke="none"/>
    <path d="M26.6 -83.9 L27.45 -83.25 27.45 -83.1 31.85 -21.05 32.15 -16.5 0.5 1.35 0.15 1.7 -7.85 -6.0 -9.25 -43.45 Q-18.9 -45.3 -22.2 -48.05 -29.7 -54.3 -29.8 -63.65 -29.85 -67.15 -28.85 -70.3 L-28.55 -71.15 -28.45 -71.35 Q-26.7 -76.05 -22.5 -80.0 L-21.65 -80.85 Q-14.55 -87.1 -4.6 -87.6 L-2.35 -87.65 -0.1 -87.5 1.1 -87.35 3.2 -86.95 6.7 -85.9 Q9.7 -84.75 12.4 -82.75 L12.95 -83.0 22.1 -87.2 26.6 -83.9 M25.2 164.65 L25.15 162.45 26.65 162.4 27.6 164.65 25.2 164.65 M61.3 -43.65 L55.95 -82.85 Q60.15 -81.3 63.5 -77.3 68.9 -70.8 68.9 -61.6 68.9 -52.45 63.5 -45.95 L61.3 -43.65" fill="#000033" fill-rule="evenodd" stroke="none"/>
    <path d="M13.85 -129.85 Q13.9 -130.05 29.45 -138.7 L18.6 -132.2 16.65 -131.1 17.25 -101.45 17.45 -101.6 17.25 -101.4 17.45 -91.4 3.2 -86.95 1.1 -87.35 12.0 -94.5 13.85 -129.85" fill="#ffffff" fill-rule="evenodd" stroke="none"/>
    <path d="M-20.15 -109.75 L5.55 -125.1 3.75 -115.15 -21.85 -93.85 -20.15 -109.75" fill="#dddddd" fill-rule="evenodd" stroke="none"/>
    <path d="M25.15 162.45 L21.3 21.9 38.8 164.65 28.05 164.65 Q26.4 161.0 26.65 162.4 L25.15 162.45" fill="#000066" fill-rule="evenodd" stroke="none"/>
  </g>
</svg>
