<?xml version="1.0" encoding="UTF-8" standalone="no"?>
<svg xmlns:xlink="http://www.w3.org/1999/xlink" height="317.8px" width="303.8px" xmlns="http://www.w3.org/2000/svg">
  <g transform="matrix(1.0, 0.0, 0.0, 1.0, 155.65, 176.85)">
    <path d="M40.4 -107.1 L39.8 -107.3 Q32.1 -109.8 24.2 -106.35 L22.55 -105.55 -8.75 -133.15 24.2 -134.75 81.5 -89.7 51.95 -90.7 51.9 -89.55 51.85 -89.6 51.9 -90.7 Q52.0 -94.6 50.6 -97.85 47.65 -104.55 40.4 -107.1 M12.85 -95.6 L12.85 -95.5 Q12.05 -93.8 11.6 -92.1 10.15 -86.55 12.5 -81.2 14.25 -77.15 17.7 -74.55 L17.95 -74.45 21.5 -65.15 Q11.25 -58.35 1.25 -47.35 -12.85 -31.85 -6.95 -11.0 L-69.75 14.1 Q-83.8 5.4 -111.0 4.45 -116.65 24.4 -112.4 31.15 L-112.75 31.25 -112.9 33.05 Q-115.05 41.15 -117.5 47.8 -125.85 60.25 -129.25 61.6 -132.65 62.95 -138.25 68.75 L-138.15 71.7 -138.0 72.5 -137.4 73.15 -136.5 74.0 -135.9 74.15 -137.3 74.85 Q-127.0 73.6 -115.9 68.8 L-120.05 117.9 -121.4 140.95 -155.65 140.95 -130.15 -127.3 -91.4 -129.15 -116.65 -118.15 -118.35 -52.0 Q-114.3 -91.65 -113.45 -116.0 L-85.45 -129.45 -64.0 -130.85 -64.95 -130.45 -97.1 -117.45 -97.0 -78.1 -96.05 -78.45 -95.35 -77.8 -19.0 -108.3 -35.9 -127.65 -39.0 -131.7 -39.15 -131.85 -10.9 -133.05 Q2.45 -118.15 10.8 -103.0 L-121.15 -42.4 12.8 -95.55 12.85 -95.6 M-5.8 -7.35 L6.45 5.5 Q18.6 18.05 13.4 34.95 8.2 51.85 -18.8 49.45 -45.85 47.05 -58.4 25.85 -60.6 22.15 -63.4 19.25 L-5.8 -7.35 M-108.3 65.05 L-108.25 65.05 Q-96.65 58.85 -81.45 63.65 -59.8 70.45 -46.0 78.1 L-43.1 80.1 Q-24.1 94.05 -16.1 117.55 -12.65 127.6 -10.55 138.6 L-17.25 140.95 -118.6 140.95 -108.3 65.1 -108.3 65.05 M-123.05 49.9 L-122.6 49.8 -123.0 49.75 -123.05 49.9 M-117.7 48.4 L-117.6 48.3 -117.5 48.25 -117.7 48.4" fill="#ccccff" fill-rule="evenodd" stroke="none"/>
    <path d="M22.55 -105.55 L24.2 -106.35 Q32.1 -109.8 39.8 -107.3 L40.4 -107.1 40.75 -106.85 41.4 -105.55 Q44.4 -98.6 41.0 -91.2 L40.95 -91.1 Q37.5 -83.85 29.7 -80.4 21.8 -77.0 14.05 -79.45 L13.8 -79.5 13.95 -79.35 13.8 -79.35 13.75 -79.5 13.5 -79.6 13.35 -79.7 Q15.75 -75.75 18.5 -74.3 L18.25 -74.4 18.0 -74.45 18.15 -74.3 18.15 -74.25 18.5 -74.0 19.55 -73.35 20.1 -72.85 21.5 -72.4 23.25 -71.75 Q25.5 -71.05 27.8 -70.8 L32.45 -71.25 Q36.15 -72.05 39.8 -74.05 L39.85 -74.05 Q47.85 -78.5 50.9 -86.25 L51.85 -89.35 51.9 -89.55 51.95 -90.7 81.5 -89.7 148.15 -37.3 148.15 39.9 142.0 34.75 69.4 -37.85 148.15 54.25 148.15 82.5 -10.55 138.6 Q-12.65 127.6 -16.1 117.55 -24.1 94.05 -43.1 80.1 L-46.0 78.1 Q-59.8 70.45 -81.45 63.65 -96.65 58.85 -108.25 65.05 L-108.3 65.05 -104.7 38.3 -63.4 19.25 Q-60.6 22.15 -58.4 25.85 -45.85 47.05 -18.8 49.45 8.2 51.85 13.4 34.95 18.6 18.05 6.45 5.5 L-5.8 -7.35 60.6 -38.0 -6.95 -11.0 Q-12.85 -31.85 1.25 -47.35 11.25 -58.35 21.5 -65.15 L17.95 -74.45 17.7 -74.55 Q14.25 -77.15 12.5 -81.2 10.15 -86.55 11.6 -92.1 12.05 -93.8 12.85 -95.5 L12.85 -95.6 Q15.95 -102.15 22.55 -105.55 M24.2 -134.75 L-8.75 -133.15 -25.85 -148.2 -18.45 -141.05 -11.95 -134.25 -10.9 -133.05 -39.15 -131.85 -44.45 -138.75 -64.0 -130.85 -85.45 -129.45 -113.45 -116.0 Q-114.3 -91.65 -118.35 -52.0 L-116.65 -118.15 -91.4 -129.15 -130.15 -127.3 -129.65 -132.2 -119.7 -137.0 -29.45 -176.85 24.2 -134.75 M54.85 -87.65 L54.8 -87.65 54.75 -87.5 54.75 -87.35 54.9 -87.35 54.8 -87.5 54.85 -87.6 54.85 -87.65 M75.1 -67.2 L75.3 -67.2 75.3 -67.35 75.1 -67.2 75.1 -67.25 28.95 -45.55 34.55 -38.5 75.3 -58.05 75.2 -66.65 73.8 -66.25 75.1 -67.2 M55.75 -87.15 L55.7 -87.15 55.75 -87.15 M-35.9 -127.65 L-19.0 -108.3 -95.35 -77.8 -96.05 -78.45 -21.5 -108.9 -35.9 -127.65 M-121.4 140.95 L-120.05 117.9 -115.9 68.8 Q-127.0 73.6 -137.3 74.85 L-135.9 74.15 -136.5 74.0 -137.4 73.15 -138.0 72.5 -138.15 71.7 -138.25 68.75 Q-132.65 62.95 -129.25 61.6 -125.85 60.25 -117.5 47.8 -115.05 41.15 -112.9 33.05 L-115.9 68.8 Q-112.15 67.15 -108.3 65.1 L-118.6 140.95 -121.4 140.95 M-112.4 31.15 Q-116.65 24.4 -111.0 4.45 -83.8 5.4 -69.75 14.1 L-6.95 -11.0 -5.8 -7.35 -63.4 19.25 Q-66.25 16.25 -69.75 14.1 L-112.4 31.15 M108.25 -28.9 L108.0 -28.65 108.3 -28.85 108.25 -28.9 M148.15 96.25 L148.15 140.95 -0.4 140.95 148.15 96.25 M-85.45 -129.45 L-33.05 -154.65 -91.4 -129.15 -85.45 -129.45 M-117.7 48.4 L-117.5 48.25 -117.6 48.3 -117.7 48.4 M-123.05 49.9 L-123.0 49.75 -122.6 49.8 -123.05 49.9" fill="#333399" fill-rule="evenodd" stroke="none"/>
    <path d="M-8.75 -133.15 L22.55 -105.55 Q15.95 -102.15 12.85 -95.6 L12.8 -95.55 -121.15 -42.4 10.8 -103.0 Q2.45 -118.15 -10.9 -133.05 L-8.75 -133.15 M-10.1 140.95 L-17.25 140.95 -10.55 138.6 -10.1 140.95" fill="#ffffff" fill-rule="evenodd" stroke="none"/>
    <path d="M-6.95 -11.0 L60.6 -38.0 -5.8 -7.35 -6.95 -11.0 M-63.4 19.25 L-104.7 38.3 -108.3 65.05 -108.3 65.1 Q-112.15 67.15 -115.9 68.8 L-112.9 33.05 -112.75 31.25 -112.4 31.15 -69.75 14.1 Q-66.25 16.25 -63.4 19.25 M-10.55 138.6 L148.15 82.5 148.15 96.25 -0.4 140.95 -10.1 140.95 -10.55 138.6 M148.15 54.25 L69.4 -37.85 142.0 34.75 148.15 39.9 148.15 54.25 M-39.15 -131.85 L-39.0 -131.7 -64.95 -130.45 -64.0 -130.85 -44.45 -138.75 -39.15 -131.85 M-8.75 -133.15 L-10.9 -133.05 -11.95 -134.25 -18.45 -141.05 -25.85 -148.2 -8.75 -133.15 M-85.45 -129.45 L-91.4 -129.15 -33.05 -154.65 -85.45 -129.45" fill="#000066" fill-rule="evenodd" stroke="none"/>
    <path d="M40.4 -107.1 Q47.65 -104.55 50.6 -97.85 52.0 -94.6 51.9 -90.7 L51.85 -89.6 51.9 -89.55 51.85 -89.35 50.9 -86.25 Q47.85 -78.5 39.85 -74.05 L39.8 -74.05 Q36.15 -72.05 32.45 -71.25 L27.8 -70.8 Q25.5 -71.05 23.25 -71.75 L21.5 -72.4 20.1 -72.85 19.55 -73.35 18.5 -74.0 18.15 -74.25 18.15 -74.3 18.25 -74.4 18.5 -74.3 Q15.75 -75.75 13.35 -79.7 L13.5 -79.6 13.75 -79.5 13.8 -79.35 13.95 -79.35 13.8 -79.5 14.05 -79.45 Q21.8 -77.0 29.7 -80.4 37.5 -83.85 40.95 -91.1 L41.0 -91.2 Q44.4 -98.6 41.4 -105.55 L40.75 -106.85 40.4 -107.1 M75.1 -67.2 L73.8 -66.25 75.2 -66.65 75.3 -58.05 34.55 -38.5 28.95 -45.55 75.1 -67.25 75.1 -67.2" fill="#000033" fill-rule="evenodd" stroke="none"/>
    <path d="M-39.0 -131.7 L-35.9 -127.65 -21.5 -108.9 -96.05 -78.45 -97.0 -78.1 -97.1 -117.45 -64.95 -130.45 -39.0 -131.7" fill="#cccccc" fill-rule="evenodd" stroke="none"/>
    <path d="M44.15 -73.45 Q45.55 -73.35 46.05 -71.55 46.4 -69.8 47.2 -67.4 47.85 -64.85 48.6 -63.75 L49.45 -61.9 49.3 -61.15 49.2 -60.85 48.4 -61.0 Q46.75 -61.8 46.25 -63.2 45.7 -64.55 44.6 -65.8 L42.5 -68.0 41.0 -70.05 Q40.7 -71.25 41.3 -71.9 42.75 -73.55 44.15 -73.45" fill="#000033" fill-rule="evenodd" stroke="none"/>
  </g>
</svg>
