<?xml version="1.0" encoding="UTF-8" standalone="no"?>
<svg xmlns:xlink="http://www.w3.org/1999/xlink" height="3.5px" width="2.85px" xmlns="http://www.w3.org/2000/svg">
  <g transform="matrix(1.0, 0.0, 0.0, 1.0, 1.6, 2.0)">
    <path d="M0.6 -0.55 L0.35 -1.3 Q0.1 -1.65 -0.25 -1.65 -0.6 -1.65 -0.85 -1.3 L-1.1 -0.55 -0.85 0.2 Q-0.6 0.55 -0.25 0.55 0.1 0.55 0.35 0.2 L0.6 -0.55 M1.25 -0.25 Q1.25 0.5 0.85 1.0 0.4 1.5 -0.2 1.5 -0.8 1.5 -1.2 1.0 -1.6 0.5 -1.6 -0.25 -1.6 -1.0 -1.2 -1.5 -0.8 -2.0 -0.2 -2.0 0.4 -2.0 0.85 -1.5 1.25 -1.0 1.25 -0.25" fill="#003399" fill-rule="evenodd" stroke="none"/>
    <path d="M0.6 -0.55 L0.35 0.2 Q0.1 0.55 -0.25 0.55 -0.6 0.55 -0.85 0.2 L-1.1 -0.55 -0.85 -1.3 Q-0.6 -1.65 -0.25 -1.65 0.1 -1.65 0.35 -1.3 L0.6 -0.55" fill="#3366cc" fill-rule="evenodd" stroke="none"/>
  </g>
</svg>
