<?xml version="1.0" encoding="UTF-8" standalone="no"?>
<svg xmlns:xlink="http://www.w3.org/1999/xlink" height="44.2px" width="56.25px" xmlns="http://www.w3.org/2000/svg">
  <g transform="matrix(1.0, 0.0, 0.0, 1.0, 96.05, 130.45)">
    <path d="M-80.75 -87.25 Q-76.85 -88.85 -74.3 -91.75 -71.55 -94.9 -72.0 -97.6 -72.55 -100.45 -75.05 -101.25 -78.0 -102.2 -82.55 -100.05 L-82.6 -100.5 Q-86.15 -98.95 -88.25 -95.75 -90.3 -92.7 -90.0 -89.85 -89.7 -87.2 -86.95 -86.45 -84.25 -85.75 -80.75 -87.25 M-84.2 -91.4 Q-84.6 -93.75 -81.85 -95.3 L-81.85 -95.0 Q-80.1 -95.95 -79.0 -95.6 -78.1 -95.25 -77.95 -94.3 -77.45 -91.45 -80.8 -90.3 L-83.1 -90.15 Q-84.1 -90.45 -84.2 -91.4" fill="#000033" fill-rule="evenodd" stroke="none"/>
    <path d="M-62.2 -93.9 Q-53.8 -97.45 -58.3 -110.35 L-62.15 -108.7 Q-61.2 -106.55 -61.0 -104.3 -60.7 -100.9 -62.75 -100.05 -64.35 -99.4 -65.15 -102.0 -65.8 -104.35 -65.3 -106.45 L-71.1 -104.95 Q-71.95 -99.9 -70.1 -96.2 -67.75 -91.55 -62.2 -93.9" fill="#000033" fill-rule="evenodd" stroke="none"/>
    <path d="M-48.2 -99.8 L-42.65 -103.1 -46.4 -110.65 -41.1 -113.75 -42.05 -116.8 -56.35 -111.2 -54.95 -105.7 -50.45 -108.0 -48.2 -99.8" fill="#000033" fill-rule="evenodd" stroke="none"/>
    <path d="M-95.3 -97.5 L-91.85 -97.7 -90.8 -102.4 -86.6 -100.4 -79.3 -104.7 -86.55 -106.4 -81.1 -113.75 -86.4 -111.5 -90.55 -105.35 -89.65 -110.7 -96.05 -108.35 -95.3 -97.5" fill="#000033" fill-rule="evenodd" stroke="none"/>
    <path d="M-71.3 -120.25 L-80.2 -115.4 -77.3 -105.35 -67.1 -108.85 -68.45 -113.25 -72.75 -111.1 -73.15 -111.8 -70.85 -113.55 -71.55 -115.15 -74.7 -113.65 -75.4 -115.55 -70.7 -118.1 -71.3 -120.25" fill="#000033" fill-rule="evenodd" stroke="none"/>
    <path d="M-65.45 -110.55 L-54.9 -114.15 -56.55 -118.55 -60.9 -116.3 -61.3 -117.05 -59.05 -118.75 -59.85 -120.4 -63.05 -118.8 -63.8 -120.7 -59.0 -123.25 -59.8 -125.4 -68.85 -120.55 -65.45 -110.55" fill="#000033" fill-rule="evenodd" stroke="none"/>
    <path d="M-41.9 -123.75 Q-39.25 -126.1 -39.95 -128.3 -41.05 -131.45 -46.9 -129.95 -51.75 -128.75 -56.75 -125.5 L-52.25 -115.05 -45.85 -118.4 -47.65 -120.9 Q-44.35 -121.6 -41.9 -123.75 M-48.8 -123.2 L-49.65 -126.4 Q-48.55 -127.2 -47.5 -127.35 -46.4 -127.45 -46.25 -126.8 -45.85 -125.55 -48.8 -123.2" fill="#000033" fill-rule="evenodd" stroke="none"/>
  </g>
</svg>
