<?xml version="1.0" encoding="UTF-8" standalone="no"?>
<svg xmlns:xlink="http://www.w3.org/1999/xlink" height="20.65px" width="28.25px" xmlns="http://www.w3.org/2000/svg">
  <g transform="matrix(1.0, 0.0, 0.0, 1.0, 14.0, 10.2)">
    <path d="M0.55 -7.8 L0.35 -7.65 Q0.25 -7.55 2.05 -3.5 3.85 0.55 12.25 9.0 -1.4 2.7 -9.0 -5.9 L-9.05 -5.9 -12.9 -8.2 -14.0 -8.85 -1.85 -10.2 0.55 -7.8" fill="#ffffff" fill-rule="evenodd" stroke="none"/>
    <path d="M0.55 -7.8 L0.65 -7.9 2.85 -3.7 Q5.0 0.45 9.65 5.3 L14.25 10.25 14.2 10.4 14.05 10.45 6.8 6.9 Q-0.4 3.3 -5.45 -1.25 -10.5 -5.85 -9.7 -5.9 L-9.05 -5.9 -9.0 -5.9 Q-1.4 2.7 12.25 9.0 3.85 0.55 2.05 -3.5 0.25 -7.55 0.35 -7.65 L0.55 -7.8" fill="#000000" fill-rule="evenodd" stroke="none"/>
  </g>
</svg>
