<?xml version="1.0" encoding="UTF-8" standalone="no"?>
<svg xmlns:xlink="http://www.w3.org/1999/xlink" height="422.55px" width="544.9px" xmlns="http://www.w3.org/2000/svg">
  <g transform="matrix(1.0, 0.0, 0.0, 1.0, 343.2, 190.8)">
    <path d="M199.6 143.0 L199.6 165.05 -16.15 165.05 -16.4 166.05 -19.75 165.05 -152.7 165.05 -147.65 167.4 -11.6 167.4 -11.3 166.45 -7.95 167.4 199.6 167.4 199.6 168.4 -4.5 168.4 131.3 207.4 199.6 207.4 199.6 208.4 134.75 208.4 199.6 227.05 199.6 228.1 131.15 208.4 -60.15 208.4 -10.35 231.75 -12.7 231.75 -62.5 208.4 -232.8 208.4 Q-224.25 219.0 -216.1 229.7 L-214.55 231.75 -215.8 231.75 -217.35 229.7 Q-225.3 219.35 -233.6 209.05 L-234.15 208.4 -343.2 208.4 -343.2 207.4 -234.95 207.4 Q-250.65 188.15 -267.7 169.05 L-268.25 168.4 -343.2 168.4 -343.2 167.4 -269.15 167.4 -268.4 166.75 -267.8 167.4 -150.05 167.4 Q-151.6 166.7 -153.1 165.95 L-152.7 165.05 -155.05 165.05 -269.9 165.05 -271.25 165.05 -343.2 165.05 -343.2 143.0 199.6 143.0 M-145.55 168.4 L-62.3 207.4 127.7 207.4 -8.1 168.4 -145.55 168.4 M-64.6 207.4 L-147.85 168.4 -266.95 168.4 Q-249.6 187.8 -233.65 207.4 L-64.6 207.4" fill="#330033" fill-rule="evenodd" stroke="none"/>
    <path d="M199.6 165.05 L199.6 167.4 -7.95 167.4 -11.3 166.45 -16.15 165.05 199.6 165.05 M199.6 168.4 L199.6 207.4 131.3 207.4 -4.5 168.4 199.6 168.4 M199.6 208.4 L199.6 227.05 134.75 208.4 199.6 208.4 M199.6 228.1 L199.6 231.75 -10.35 231.75 -60.15 208.4 131.15 208.4 199.6 228.1 M-12.7 231.75 L-214.55 231.75 -216.1 229.7 Q-224.25 219.0 -232.8 208.4 L-62.5 208.4 -12.7 231.75 M-215.8 231.75 L-343.2 231.75 -343.2 208.4 -234.15 208.4 -233.6 209.05 Q-225.3 219.35 -217.35 229.7 L-215.8 231.75 M-343.2 207.4 L-343.2 168.4 -268.25 168.4 -267.7 169.05 Q-250.65 188.15 -234.95 207.4 L-343.2 207.4 M-343.2 167.4 L-343.2 165.05 -271.25 165.05 -270.95 165.4 -269.15 167.4 -343.2 167.4 M-11.6 167.4 L-147.65 167.4 -152.7 165.05 -19.75 165.05 -16.4 166.05 -11.6 167.4 M-153.1 165.95 Q-151.6 166.7 -150.05 167.4 L-267.8 167.4 -268.4 166.75 -269.9 165.05 -155.05 165.05 -153.1 165.95 M-145.55 168.4 L-8.1 168.4 127.7 207.4 -62.3 207.4 -145.55 168.4 M-64.6 207.4 L-233.65 207.4 Q-249.6 187.8 -266.95 168.4 L-147.85 168.4 -64.6 207.4" fill="#663366" fill-rule="evenodd" stroke="none"/>
    <path d="M-343.2 -122.7 Q-222.95 -156.25 -65.85 -189.9 L-60.55 -190.8 199.6 -190.8 199.6 85.85 -343.2 85.85 -343.2 -122.7" fill="#000099" fill-rule="evenodd" stroke="none"/>
    <path d="M-343.2 -122.7 L-343.2 -190.8 -65.85 -190.8 -65.85 -189.9 Q-222.95 -156.25 -343.2 -122.7" fill="#000066" fill-rule="evenodd" stroke="none"/>
    <path d="M-65.85 -189.9 L-65.85 -190.8 -60.55 -190.8 -65.85 -189.9" fill="#003399" fill-rule="evenodd" stroke="none"/>
    <path d="M-152.7 165.05 L-153.1 165.95 -155.05 165.05 -152.7 165.05 M-268.4 166.75 L-269.15 167.4 -270.95 165.4 -271.25 165.05 -269.9 165.05 -268.4 166.75 M-16.4 166.05 L-16.15 165.05 -11.3 166.45 -11.6 167.4 -16.4 166.05" fill="#330000" fill-rule="evenodd" stroke="none"/>
    <path d="M199.6 85.85 L201.7 85.85 201.7 143.0 199.6 143.0 -343.2 143.0 -343.2 85.85 199.6 85.85" fill="#333399" fill-rule="evenodd" stroke="none"/>
  </g>
</svg>
