<?xml version="1.0" encoding="UTF-8" standalone="no"?>
<svg xmlns:xlink="http://www.w3.org/1999/xlink" height="141.8px" width="56.85px" xmlns="http://www.w3.org/2000/svg">
  <g transform="matrix(1.0, 0.0, 0.0, 1.0, 29.15, 116.35)">
    <path d="M-5.65 21.2 L-20.35 19.8 Q-27.9 18.45 -28.0 16.85 L-27.85 16.45 Q-26.65 15.0 -20.35 13.85 -12.35 12.45 -0.95 12.45 L-0.8 12.45 -0.65 12.45 -0.5 12.45 Q10.9 12.45 18.9 13.85 L18.95 13.85 Q25.2 15.0 26.4 16.45 L26.55 16.85 Q26.45 18.45 18.9 19.8 L5.75 21.15 Q6.4 19.75 6.65 18.25 L6.8 16.5 6.85 13.3 Q0.45 12.25 -7.1 13.2 -7.1 17.35 -6.35 20.1 L-5.65 21.2" fill="#336699" fill-rule="evenodd" stroke="none"/>
    <path d="M-4.95 22.2 L-5.65 21.2 -6.35 20.1 Q-7.1 17.35 -7.1 13.2 0.45 12.25 6.85 13.3 L6.8 16.5 6.65 18.25 Q6.4 19.75 5.75 21.15 L5.6 21.5 5.2 22.15 Q4.15 23.75 2.6 24.65 1.6 25.25 0.6 25.4 -1.25 25.65 -2.8 24.65 L-4.45 22.95 -4.95 22.2" fill="#ccff99" fill-rule="evenodd" stroke="none"/>
    <path d="M-4.95 22.2 Q-13.9 22.0 -20.55 20.8 -29.1 19.25 -29.0 16.85 -29.0 16.4 -29.15 16.95 -28.65 13.65 -21.9 9.1 -15.2 4.45 -4.35 3.3 L-3.95 3.25 -3.95 -2.35 -3.3 -2.35 -3.3 -111.25 -3.15 -114.8 -2.8 -116.35 2.7 -116.35 3.05 -114.8 3.2 -111.25 3.2 -2.35 3.9 -2.35 3.9 3.4 Q14.05 4.65 20.5 9.1 27.2 13.65 27.7 16.95 27.55 16.4 27.55 16.85 27.65 19.25 19.1 20.8 L5.2 22.15 5.6 21.5 5.75 21.15 18.9 19.8 Q26.45 18.45 26.55 16.85 L26.4 16.45 Q25.2 15.0 18.95 13.85 L18.9 13.85 Q10.9 12.45 -0.5 12.45 L-0.65 12.45 -0.8 12.45 -0.95 12.45 Q-12.35 12.45 -20.35 13.85 -26.65 15.0 -27.85 16.45 L-28.0 16.85 Q-27.9 18.45 -20.35 19.8 L-5.65 21.2 -4.95 22.2" fill="#000066" fill-rule="evenodd" stroke="none"/>
  </g>
</svg>
