<?xml version="1.0" encoding="UTF-8" standalone="no"?>
<svg xmlns:xlink="http://www.w3.org/1999/xlink" height="486.75px" width="649.7px" xmlns="http://www.w3.org/2000/svg">
  <g transform="matrix(1.0, 0.0, 0.0, 1.0, 339.3, 312.75)">
    <path d="M279.95 73.85 Q279.55 73.15 279.55 72.2 276.0 76.15 279.85 79.7 L284.5 80.05 Q288.75 77.5 286.3 73.05 284.0 81.0 279.95 73.85 M279.55 -312.75 L286.3 -312.75 286.15 54.65 287.35 54.7 Q294.85 55.95 289.35 62.65 L289.85 63.55 290.05 64.2 Q290.3 68.15 286.3 68.45 L286.5 69.2 287.05 69.9 Q293.5 77.05 285.8 82.65 L286.45 85.45 288.4 86.35 288.9 84.6 Q289.05 84.15 289.35 83.8 294.65 76.7 303.15 80.85 L304.6 80.1 306.9 81.2 307.0 83.7 308.0 85.05 Q313.8 93.9 305.65 99.05 L305.85 99.5 306.75 101.7 Q311.95 117.4 299.55 128.0 L307.2 135.65 307.4 136.45 307.25 137.1 Q305.6 143.65 301.0 142.1 296.2 140.45 294.15 131.4 L287.35 133.55 288.2 137.35 288.0 138.1 Q285.55 142.45 281.75 141.25 277.75 139.95 277.7 133.55 L270.85 131.4 267.4 140.9 266.8 141.5 Q259.4 144.65 257.65 136.45 L265.45 128.0 263.65 126.25 262.0 124.45 Q254.6 114.85 278.5 86.0 L278.9 85.5 279.3 83.35 279.2 82.65 279.2 82.6 Q270.7 75.45 279.55 68.9 L279.45 68.55 279.2 68.25 279.45 68.25 279.45 49.25 279.55 49.25 279.55 -312.75" fill="#000000" fill-opacity="0.3529412" fill-rule="evenodd" stroke="none"/>
    <path d="M-333.25 88.2 L-274.0 82.55 -230.7 85.05 -230.7 85.2 -230.65 85.2 -230.3 85.15 -230.35 85.7 Q-223.6 105.1 -215.5 121.4 L-231.15 118.2 Q-231.05 138.45 -229.5 159.8 L-304.5 174.0 -327.95 151.05 -330.15 124.7 -339.3 118.55 Q-332.95 105.45 -333.05 90.5 L-333.25 88.2" fill="#000000" fill-opacity="0.2509804" fill-rule="evenodd" stroke="none"/>
  </g>
</svg>
