<?xml version="1.0" encoding="UTF-8" standalone="no"?>
<svg xmlns:xlink="http://www.w3.org/1999/xlink" height="235.9px" width="41.4px" xmlns="http://www.w3.org/2000/svg">
  <g transform="matrix(1.0, 0.0, 0.0, 1.0, 20.65, 128.2)">
    <path d="M8.6 -127.4 L6.2 -127.4 1.65 -126.4 Q-4.2 -124.4 -7.35 -119.65 -10.55 -114.9 -9.2 -110.2 L-8.65 -108.65 -19.85 -106.4 -19.3 -37.7 -19.1 -10.55 -19.25 -10.55 -18.4 98.1 -15.3 98.1 -15.5 -10.55 -15.7 -100.65 19.6 -108.1 19.65 -114.45 18.85 -114.25 Q19.6 -117.1 18.85 -119.9 17.75 -123.8 14.05 -125.8 11.7 -127.1 8.6 -127.4 M19.9 98.1 L19.9 99.4 20.05 99.5 20.1 99.55 20.25 100.0 20.25 107.7 -20.65 107.7 -20.65 -106.45 -20.45 -106.9 -20.5 -106.85 -20.1 -107.1 -20.1 -107.15 -9.7 -109.25 -9.95 -110.05 Q-11.4 -115.05 -8.05 -120.1 -4.8 -125.05 1.3 -127.15 3.7 -128.0 6.05 -128.15 L8.6 -128.15 14.05 -127.05 19.65 -127.0 19.65 -119.05 Q20.0 -117.1 19.65 -115.2 L19.8 -115.15 19.85 -115.1 20.05 -114.95 20.15 -114.9 20.15 -114.85 20.25 -114.5 20.2 -107.25 20.15 -107.25 19.6 -107.35 19.75 -107.5 19.6 -107.45 19.6 -107.8 19.5 -107.45 8.8 -105.15 8.8 98.1 19.9 98.1 M19.8 99.35 L19.75 99.2 19.55 99.3 19.8 99.35" fill="#003399" fill-rule="evenodd" stroke="none"/>
    <path d="M8.6 -127.4 Q11.7 -127.1 14.05 -125.8 17.75 -123.8 18.85 -119.9 19.6 -117.1 18.85 -114.25 L19.65 -114.45 19.6 -108.1 -15.7 -100.65 -15.5 -10.55 -15.3 98.1 -18.4 98.1 -19.25 -10.55 -19.1 -10.55 -19.3 -37.7 -19.85 -106.4 -8.65 -108.65 -9.2 -110.2 Q-10.55 -114.9 -7.35 -119.65 -4.2 -124.4 1.65 -126.4 L6.2 -127.4 8.6 -127.4 M19.5 -107.45 L19.6 -107.8 19.6 -107.45 19.5 -107.45 M19.6 -104.35 L19.55 -105.5 20.0 -103.2 19.6 -105.15 19.6 -104.35" fill="#3366cc" fill-rule="evenodd" stroke="none"/>
    <path d="M19.9 98.1 L8.8 98.1 8.8 -105.15 19.5 -107.45 19.6 -107.45 19.75 -107.5 19.6 -107.35 20.15 -107.25 20.2 -107.25 20.75 -107.2 20.3 -34.9 20.25 -34.9 20.15 -18.1 20.3 -18.1 19.7 68.0 19.9 98.1 M19.6 -104.35 L19.6 -105.15 20.0 -103.2 19.55 -105.5 19.6 -104.35" fill="#000033" fill-rule="evenodd" stroke="none"/>
  </g>
</svg>
