<?xml version="1.0" encoding="UTF-8" standalone="no"?>
<svg xmlns:xlink="http://www.w3.org/1999/xlink" height="57.6px" width="18.65px" xmlns="http://www.w3.org/2000/svg">
  <g transform="matrix(1.0, 0.0, 0.0, 1.0, 9.35, 30.9)">
    <path d="M-5.95 -17.55 L-5.3 -16.85 -5.25 -16.8 -4.9 -16.5 -3.8 -15.7 -3.75 -15.7 -2.85 -15.25 -0.4 -14.75 -0.35 -14.75 -0.2 -14.75 -0.15 -14.75 0.2 -14.75 0.35 -14.75 Q1.85 -14.8 3.15 -15.3 L3.2 -15.35 3.8 -15.65 4.25 -15.95 4.3 -15.95 5.0 -16.45 5.85 -17.25 6.1 -17.5 6.1 -17.55 Q7.95 -19.75 7.95 -22.65 7.95 -25.95 5.65 -28.2 4.55 -29.35 3.3 -29.85 1.9 -30.5 0.25 -30.5 L0.1 -30.5 -2.65 -30.1 -2.7 -30.05 -2.7 -30.0 Q-4.2 -29.45 -5.45 -28.2 -7.75 -25.95 -7.75 -22.65 -7.75 -19.75 -5.95 -17.6 L-6.0 -17.6 -5.95 -17.55 M5.9 -28.45 Q8.35 -26.1 8.35 -22.65 8.35 -19.25 5.9 -16.8 5.25 -16.15 4.5 -15.65 L4.2 -15.5 2.75 19.4 7.5 19.8 7.75 19.9 7.7 19.9 7.85 20.1 9.3 26.2 9.3 26.25 9.3 26.4 9.2 26.65 9.15 26.65 8.9 26.7 -8.95 26.7 -9.15 26.65 -9.3 26.45 -9.3 26.5 -9.35 26.25 -8.35 20.0 -8.2 19.75 -7.95 19.65 -3.45 19.4 -4.3 -15.65 -5.75 -16.8 Q-8.15 -19.25 -8.15 -22.65 -8.15 -26.1 -5.75 -28.45 -4.45 -29.75 -2.9 -30.35 L-2.8 -30.4 0.1 -30.9 0.25 -30.9 Q2.0 -30.85 3.45 -30.2 4.8 -29.65 5.9 -28.45 M-1.75 -21.8 L-1.45 -21.5 Q-0.9 -20.9 0.0 -20.85 0.75 -20.9 1.4 -21.5 1.95 -22.05 1.95 -22.85 1.95 -23.7 1.4 -24.3 L1.25 -24.4 Q0.7 -24.9 0.0 -24.85 -0.9 -24.9 -1.45 -24.3 -2.1 -23.7 -2.05 -22.85 -2.1 -22.3 -1.75 -21.8 M1.65 -24.7 L1.7 -24.65 Q2.4 -23.95 2.4 -22.95 2.4 -21.9 1.7 -21.2 0.95 -20.5 -0.1 -20.45 -1.1 -20.5 -1.8 -21.2 L-2.1 -21.5 Q-2.55 -22.15 -2.55 -22.95 -2.55 -23.95 -1.8 -24.65 -1.1 -25.4 -0.1 -25.4 0.9 -25.4 1.65 -24.7 M0.2 -14.3 L-0.15 -14.3 -0.2 -14.3 -0.35 -14.3 -0.4 -14.3 -2.85 -14.8 -3.75 -15.25 -3.8 -15.25 -3.0 19.65 -7.9 19.95 -8.9 26.2 8.95 26.2 7.5 20.1 2.4 19.65 3.7 -11.6 3.75 -11.6 3.85 -14.85 3.85 -14.9 3.8 -15.2 3.2 -14.9 3.15 -14.85 Q1.85 -14.35 0.35 -14.3 L0.2 -14.3" fill="#000033" fill-rule="evenodd" stroke="none"/>
    <path d="M-5.95 -17.6 Q-7.75 -19.75 -7.75 -22.65 -7.75 -25.95 -5.45 -28.2 -4.2 -29.45 -2.7 -30.0 L-2.7 -30.05 -2.65 -30.1 0.1 -30.5 0.25 -30.5 Q1.9 -30.5 3.3 -29.85 4.55 -29.35 5.65 -28.2 7.95 -25.95 7.95 -22.65 7.95 -19.75 6.1 -17.55 L6.1 -17.5 5.85 -17.25 5.0 -16.45 4.3 -15.95 4.25 -15.95 3.8 -15.65 3.2 -15.35 3.15 -15.3 Q1.85 -14.8 0.35 -14.75 L0.2 -14.75 -0.15 -14.75 -0.2 -14.75 -0.35 -14.75 -0.4 -14.75 -2.85 -15.25 -3.75 -15.7 -3.8 -15.7 -4.9 -16.5 -5.25 -16.8 -5.3 -16.85 -5.95 -17.55 -5.95 -17.6 M1.25 -24.4 L1.4 -24.3 Q1.95 -23.7 1.95 -22.85 1.95 -22.05 1.4 -21.5 0.75 -20.9 0.0 -20.85 -0.9 -20.9 -1.45 -21.5 L-1.75 -21.8 Q-1.7 -24.5 1.25 -24.4 M1.65 -24.7 Q0.9 -25.4 -0.1 -25.4 -1.1 -25.4 -1.8 -24.65 -2.55 -23.95 -2.55 -22.95 -2.55 -22.15 -2.1 -21.5 L-1.8 -21.2 Q-1.1 -20.5 -0.1 -20.45 0.95 -20.5 1.7 -21.2 2.4 -21.9 2.4 -22.95 2.4 -23.95 1.7 -24.65 L1.65 -24.7 M0.2 -14.3 L0.35 -14.3 Q1.85 -14.35 3.15 -14.85 L3.2 -14.9 3.8 -15.2 3.85 -14.9 3.85 -14.85 3.75 -11.6 3.7 -11.6 2.4 19.65 7.5 20.1 8.95 26.2 -8.9 26.2 -7.9 19.95 -3.0 19.65 -3.8 -15.25 -3.75 -15.25 -2.85 -14.8 -0.4 -14.3 -0.35 -14.3 -0.2 -14.3 -0.15 -14.3 0.2 -14.3" fill="#003399" fill-rule="evenodd" stroke="none"/>
    <path d="M-1.75 -21.8 Q-2.1 -22.3 -2.05 -22.85 -2.1 -23.7 -1.45 -24.3 -0.9 -24.9 0.0 -24.85 0.7 -24.9 1.25 -24.4 -1.7 -24.5 -1.75 -21.8" fill="#3366cc" fill-rule="evenodd" stroke="none"/>
  </g>
</svg>
