<?xml version="1.0" encoding="UTF-8" standalone="no"?>
<svg xmlns:xlink="http://www.w3.org/1999/xlink" height="24.4px" width="316.75px" xmlns="http://www.w3.org/2000/svg">
  <g transform="matrix(1.0, 0.0, 0.0, 1.0, -72.05, -99.95)">
    <path d="M72.05 103.95 L72.05 100.35 388.8 100.35 388.8 103.95 72.05 103.95" fill="#3366cc" fill-rule="evenodd" stroke="none"/>
    <path d="M72.05 104.35 L72.05 103.95 388.8 103.95 388.8 104.35 72.05 104.35 M72.05 100.35 L72.05 99.95 388.8 99.95 388.8 100.35 72.05 100.35 M388.8 107.25 L388.8 121.2 72.05 121.2 72.05 107.25 388.8 107.25 M388.8 123.95 L388.8 124.35 72.05 124.35 72.05 123.95 388.8 123.95" fill="#000033" fill-rule="evenodd" stroke="none"/>
    <path d="M388.8 104.35 L388.8 107.25 72.05 107.25 72.05 104.35 388.8 104.35 M388.8 121.2 L388.8 123.95 72.05 123.95 72.05 121.2 388.8 121.2" fill="#003399" fill-rule="evenodd" stroke="none"/>
  </g>
</svg>
