<?xml version="1.0" encoding="UTF-8" standalone="no"?>
<svg xmlns:xlink="http://www.w3.org/1999/xlink" height="273.95px" width="104.7px" xmlns="http://www.w3.org/2000/svg">
  <g transform="matrix(1.0, 0.0, 0.0, 1.0, 56.6, 127.2)">
    <path d="M-48.0 -114.65 L-48.0 -127.2 48.1 -124.4 47.95 -82.2 47.95 -83.55 47.9 -74.0 47.95 -74.0 47.9 -33.25 47.85 -33.25 47.25 145.15 -8.95 146.75 -8.95 146.4 -8.95 107.1 -43.4 107.1 -43.0 -33.25 -42.95 -33.25 -42.9 -71.25 -42.95 -71.25 -42.9 -85.2 -42.85 -94.75 -42.9 -94.75 -42.9 -95.2 -42.85 -95.2 -42.8 -115.7 -48.0 -114.65 M-42.9 -94.75 L-42.9 -93.55 -42.9 -94.75" fill="#003399" fill-rule="evenodd" stroke="none"/>
    <path d="M-48.0 -114.65 L-42.8 -115.7 -42.85 -95.2 -42.9 -95.2 -42.9 -94.75 -42.85 -94.75 -42.9 -85.2 -42.95 -71.25 -42.9 -71.25 -42.95 -33.25 -43.0 -33.25 -43.4 107.1 -47.75 107.1 -47.75 106.8 -48.0 -114.65 M-42.9 -94.75 L-42.9 -93.55 -42.9 -94.75" fill="#3366cc" fill-rule="evenodd" stroke="none"/>
    <path d="M-43.4 107.1 L-8.95 107.1 -8.95 146.4 -56.6 141.2 -56.6 106.8 -47.75 106.8 -47.75 107.1 -43.4 107.1" fill="#000033" fill-rule="evenodd" stroke="none"/>
  </g>
</svg>
