<?xml version="1.0" encoding="UTF-8" standalone="no"?>
<svg xmlns:xlink="http://www.w3.org/1999/xlink" height="423.55px" width="777.5px" xmlns="http://www.w3.org/2000/svg">
  <g transform="matrix(1.0, 0.0, 0.0, 1.0, 388.8, 191.8)">
    <path d="M33.1 28.55 Q72.45 -6.95 153.6 -42.55 184.3 -56.05 220.95 -69.5 287.5 -94.0 373.7 -118.5 L388.7 -122.7 388.7 85.85 45.0 85.85 36.7 46.35 36.65 46.0 36.65 45.95 33.1 28.55" fill="#000099" fill-rule="evenodd" stroke="none"/>
    <path d="M388.7 -122.7 L373.7 -118.5 Q287.5 -94.0 220.95 -69.5 184.3 -56.05 153.6 -42.55 72.45 -6.95 33.1 28.55 L32.45 28.7 -3.65 -120.35 -21.8 -190.8 388.7 -190.8 388.7 -122.7 M-202.15 5.1 L-202.2 4.9 -183.7 1.15 -184.45 9.9 -184.1 10.05 -184.6 9.9 -202.15 5.1" fill="#000066" fill-rule="evenodd" stroke="none"/>
    <path d="M36.7 46.35 L45.0 85.85 44.8 85.85 56.3 141.95 56.25 142.2 56.4 142.45 56.5 143.0 56.95 143.0 57.05 143.6 57.75 165.05 57.75 165.1 -85.3 165.05 -100.9 167.4 -103.4 167.8 -171.15 178.0 -146.45 -42.9 -154.55 -45.5 -154.6 -45.5 -154.6 -45.35 -249.2 -17.6 -250.15 -17.75 -250.25 -17.75 -250.9 -17.85 -359.75 -31.15 -359.15 -23.8 -359.1 -23.2 -359.1 -23.15 -344.3 149.35 -342.75 167.4 -343.1 167.55 -343.25 167.9 -343.1 168.25 -342.75 168.4 -342.7 168.4 -339.7 203.15 -339.75 203.15 Q-340.0 203.2 -340.1 203.35 L-340.2 203.75 -340.0 204.05 -339.65 204.15 -339.6 204.35 -345.75 205.3 -359.55 207.4 -362.65 207.4 -363.0 207.55 -363.15 207.9 -363.15 207.95 -382.35 210.95 -388.8 211.95 -388.8 -191.8 -22.05 -191.8 -21.8 -190.8 -3.65 -120.35 32.45 28.7 36.7 46.35 M-184.45 9.9 L-183.5 10.2 -183.1 10.3 -182.6 10.45 -185.5 47.7 -236.7 51.6 -236.65 51.3 -236.6 49.6 -187.35 45.85 -184.6 9.9 -184.1 10.05 -184.45 9.9" fill="#000033" fill-rule="evenodd" stroke="none"/>
    <path d="M45.0 85.85 L388.7 85.85 388.7 143.0 56.95 143.0 56.5 143.0 56.4 142.45 56.3 141.95 44.8 85.85 45.0 85.85 M-359.0 -23.75 L-359.15 -23.8 -359.75 -31.15 -250.9 -17.85 -250.15 -17.75 -249.2 -17.6 -154.6 -45.35 -154.55 -45.5 -146.45 -42.9 -171.15 178.0 -172.6 190.9 -182.3 192.6 -183.45 192.4 -162.05 16.0 -182.45 10.45 -182.6 10.45 -183.1 10.3 -183.5 10.2 -184.45 9.9 -183.7 1.15 -202.2 4.9 -202.15 5.1 -202.65 5.0 -219.9 0.3 -218.4 0.45 -254.9 -9.25 -257.05 189.2 -257.2 189.5 -257.25 189.6 -257.4 189.65 -257.45 189.65 -257.55 189.65 -257.65 189.65 -257.7 189.65 -258.05 189.15 -255.9 -9.3 -255.85 -9.5 -265.25 -11.95 -268.3 162.35 -268.4 167.4 -268.45 167.6 -268.45 167.65 -268.55 167.75 -268.9 167.9 Q-268.7 167.9 -268.55 168.05 L-268.45 168.15 -268.4 168.4 -268.75 188.45 -268.9 188.8 -269.25 188.95 -269.6 188.8 -269.75 188.45 -269.4 168.4 -269.25 168.05 -268.9 167.9 -269.25 167.75 Q-269.4 167.6 -269.2 167.6 L-268.9 149.35 -266.25 -12.1 -266.2 -12.2 -269.6 -13.05 -359.0 -23.75" fill="#333399" fill-rule="evenodd" stroke="none"/>
    <path d="M-359.1 -23.2 L-359.0 -23.75 -269.6 -13.05 -266.2 -12.2 -266.25 -12.1 -268.9 149.35 -344.3 149.35 -359.1 -23.15 -359.1 -23.2" fill="#3366cc" fill-rule="evenodd" stroke="none"/>
    <path d="M-268.3 162.35 L-265.25 -11.95 -255.85 -9.5 -255.9 -9.3 -258.05 189.15 -268.2 188.45 -268.15 168.4 -268.15 167.6 -268.1 162.35 -268.3 162.35 M-257.05 189.2 L-254.9 -9.25 -218.4 0.45 -219.9 0.3 -202.65 5.0 -202.65 5.2 -235.1 11.0 -235.3 11.05 -235.7 20.75 -235.65 20.75 -236.7 43.45 -236.8 43.45 -236.9 47.4 -237.1 51.3 -236.65 51.3 -236.7 51.6 -185.5 47.7 -182.6 10.45 -182.45 10.45 -162.05 16.0 -183.45 192.4 -183.45 192.45 -183.5 192.8 -252.15 189.45 -252.15 189.3 -252.35 189.0 -252.75 188.9 -255.0 189.3 -257.05 189.2" fill="#ccccff" fill-rule="evenodd" stroke="none"/>
    <path d="M358.95 165.05 L357.95 165.05 139.35 165.05 137.05 165.05 57.75 165.05 57.05 143.6 56.95 143.0 388.7 143.0 388.7 165.05 358.95 165.05 M357.95 167.4 L358.95 167.4 388.7 167.4 388.7 168.4 358.95 168.4 358.95 207.4 388.7 207.4 388.7 208.4 358.95 208.4 358.95 231.75 357.95 231.75 357.95 208.4 209.05 208.4 185.35 231.75 183.95 231.75 207.65 208.4 46.7 208.4 18.6 221.55 -3.3 231.75 -5.65 231.75 16.8 221.3 44.35 208.4 -73.35 208.3 -105.95 208.25 -106.05 208.25 -106.3 208.4 -180.5 231.75 -183.8 231.75 -109.7 208.4 -335.85 208.4 -336.95 208.4 -337.2 208.35 -337.45 208.4 -362.65 208.4 -363.0 208.25 -363.15 207.95 -363.15 207.9 -363.0 207.55 -362.65 207.4 -359.55 207.4 -338.4 207.4 -337.45 207.4 Q-337.3 207.4 -337.2 207.5 L-336.95 207.4 -106.45 207.4 -106.3 207.45 -106.1 207.3 -98.0 204.75 17.3 168.4 -103.45 168.4 -103.4 167.8 -100.9 167.4 20.5 167.4 20.55 167.4 132.05 167.4 133.95 166.55 134.35 167.4 249.4 167.4 249.75 167.55 249.9 167.9 249.8 168.25 250.6 167.4 357.95 167.4 M357.95 168.4 L249.6 168.4 210.1 207.4 357.95 207.4 357.95 168.4 M56.4 142.45 L56.25 142.2 56.3 141.95 56.4 142.45 M-80.35 207.3 L46.45 207.4 129.9 168.4 20.65 168.4 -95.75 205.05 -102.7 207.25 -80.35 207.3 M48.8 207.4 L208.65 207.4 248.2 168.4 132.2 168.4 48.8 207.4 M-257.7 189.65 L-257.65 189.65 -258.35 189.7 -257.7 189.65 M-257.55 189.65 L-257.45 189.65 -257.1 189.6 -257.4 189.65 -257.25 189.6 -255.0 189.3 -252.75 188.9 -252.35 189.0 -252.15 189.3 -252.15 189.45 -252.25 189.7 -252.55 189.9 -339.6 204.15 -339.65 204.15 -340.0 204.05 -340.2 203.75 -340.1 203.35 Q-340.0 203.2 -339.75 203.15 L-339.7 203.15 -260.55 190.05 -257.55 189.65 M-268.45 167.6 L-268.15 167.6 -268.15 168.4 -268.4 168.4 -268.45 168.15 -268.55 168.05 Q-268.7 167.9 -268.9 167.9 L-268.55 167.75 -268.45 167.65 -268.45 167.6 M-269.2 167.6 Q-269.4 167.6 -269.25 167.75 L-268.9 167.9 -269.25 168.05 -269.4 168.4 -342.7 168.4 -342.75 168.4 -343.1 168.25 -343.25 167.9 -343.1 167.55 -342.75 167.4 -275.85 167.6 -269.2 167.6" fill="#330033" fill-rule="evenodd" stroke="none"/>
    <path d="M357.95 165.05 L357.95 167.4 250.6 167.4 249.8 168.25 249.9 167.9 249.75 167.55 249.4 167.4 134.35 167.4 139.35 165.05 357.95 165.05 M358.95 167.4 L358.95 165.05 388.7 165.05 388.7 167.4 358.95 167.4 M57.75 165.05 L137.05 165.05 133.95 166.55 132.05 167.4 20.55 167.4 20.5 167.4 -100.9 167.4 -85.3 165.05 57.75 165.1 57.75 165.05 M388.7 168.4 L388.7 207.4 358.95 207.4 358.95 168.4 388.7 168.4 M388.7 208.4 L388.7 231.75 358.95 231.75 358.95 208.4 388.7 208.4 M357.95 231.75 L185.35 231.75 209.05 208.4 357.95 208.4 357.95 231.75 M183.95 231.75 L89.6 231.75 18.6 221.55 46.7 208.4 207.65 208.4 183.95 231.75 M-283.85 231.75 L-382.35 231.75 -382.35 210.95 -363.15 207.95 -363.0 208.25 -362.65 208.4 -337.45 208.4 -337.2 208.35 -336.95 208.4 -335.85 208.4 -283.85 231.75 M357.95 168.4 L357.95 207.4 210.1 207.4 249.6 168.4 357.95 168.4 M-103.4 167.8 L-103.45 168.4 17.3 168.4 -98.0 204.75 -183.45 192.45 -183.45 192.4 -182.3 192.6 -172.6 190.9 -171.15 178.0 -103.4 167.8 M-338.4 207.4 L-359.55 207.4 -345.75 205.3 -338.4 207.4 M-95.75 205.05 L20.65 168.4 129.9 168.4 46.45 207.4 -80.35 207.3 -95.75 205.05 M-73.35 208.3 L44.35 208.4 16.8 221.3 -73.35 208.3 M48.8 207.4 L132.2 168.4 248.2 168.4 208.65 207.4 48.8 207.4" fill="#663366" fill-rule="evenodd" stroke="none"/>
    <path d="M-184.6 9.9 L-187.35 45.85 -236.6 49.6 -236.65 51.3 -237.1 51.3 -236.9 47.4 -236.7 43.45 -235.65 20.75 -235.5 18.3 -235.1 11.0 -202.65 5.2 -202.6 5.2 -202.15 5.1 -184.6 9.9" fill="#cccccc" fill-rule="evenodd" stroke="none"/>
    <path d="M-202.6 5.2 L-202.65 5.2 -202.65 5.0 -202.6 5.2" fill="#999999" fill-rule="evenodd" stroke="none"/>
    <path d="M-202.65 5.0 L-202.15 5.1 -202.6 5.2 -202.65 5.0 M-235.1 11.0 L-235.5 18.3 -235.7 20.75 -235.3 11.05 -235.1 11.0" fill="#99ccff" fill-rule="evenodd" stroke="none"/>
    <path d="M89.6 231.75 L-3.3 231.75 18.6 221.55 89.6 231.75 M-5.65 231.75 L-180.5 231.75 -106.3 208.4 -106.05 208.25 -105.95 208.25 -73.35 208.3 16.8 221.3 -5.65 231.75 M-183.8 231.75 L-283.85 231.75 -335.85 208.4 -109.7 208.4 -183.8 231.75 M-98.0 204.75 L-106.1 207.3 -106.3 207.45 -106.45 207.4 -336.95 207.4 -337.2 207.5 Q-337.3 207.4 -337.45 207.4 L-338.4 207.4 -345.75 205.3 -339.6 204.35 -339.65 204.15 -339.6 204.15 -252.55 189.9 -252.25 189.7 -252.15 189.45 -183.5 192.8 -183.45 192.45 -98.0 204.75 M-80.35 207.3 L-102.7 207.25 -95.75 205.05 -80.35 207.3 M-344.3 149.35 L-268.9 149.35 -269.2 167.6 -275.85 167.6 -342.75 167.4 -344.3 149.35 M-258.05 189.15 L-257.7 189.65 -258.35 189.7 -257.65 189.65 -257.55 189.65 -260.55 190.05 -339.7 203.15 -342.7 168.4 -269.4 168.4 -269.75 188.45 -269.6 188.8 -269.25 188.95 -268.9 188.8 -268.75 188.45 -268.4 168.4 -268.15 168.4 -268.2 188.45 -258.05 189.15 M-257.45 189.65 L-257.4 189.65 -257.1 189.6 -257.45 189.65 M-257.25 189.6 L-257.2 189.5 -257.05 189.2 -255.0 189.3 -257.25 189.6 M-268.3 162.35 L-268.1 162.35 -268.15 167.6 -268.45 167.6 -268.4 167.4 -268.3 162.35" fill="#9999ff" fill-rule="evenodd" stroke="none"/>
    <path d="M357.95 165.05 L358.95 165.05 358.95 167.4 357.95 167.4 357.95 165.05 M137.05 165.05 L139.35 165.05 134.35 167.4 133.95 166.55 137.05 165.05" fill="#330000" fill-rule="evenodd" stroke="none"/>
    <path d="M33.1 28.55 L36.65 45.95 36.65 46.0 36.7 46.35 32.45 28.7 33.1 28.55" fill="#003399" fill-rule="evenodd" stroke="none"/>
  </g>
</svg>
