<?xml version="1.0" encoding="UTF-8" standalone="no"?>
<svg xmlns:xlink="http://www.w3.org/1999/xlink" height="37.35px" width="43.35px" xmlns="http://www.w3.org/2000/svg">
  <g transform="matrix(1.0, 0.0, 0.0, 1.0, 21.7, 18.65)">
    <path d="M-13.65 10.15 Q-14.05 9.3 -15.3 9.75 L-15.2 9.3 Q-17.05 10.0 -17.9 12.8 -18.2 13.9 -17.8 14.6 -17.5 15.25 -16.65 15.3 -14.55 15.2 -13.65 11.95 -13.35 10.8 -13.65 10.15 M-9.35 5.15 Q-8.5 7.0 -9.4 10.4 -10.3 13.6 -12.9 16.05 -15.3 18.25 -17.8 18.65 -20.05 18.95 -21.1 17.2 -22.15 15.35 -21.3 12.45 -20.35 9.1 -18.1 6.4 -15.8 3.65 -13.4 3.2 L-13.55 3.7 Q-10.4 3.0 -9.35 5.15 M-16.9 -11.3 L-12.7 -11.65 -15.4 -5.5 -10.7 -11.3 -6.95 -12.0 -12.9 -5.25 -10.0 -0.4 -15.45 1.8 -16.7 -2.2 -19.15 2.95 -20.95 1.8 -16.9 -11.3 M2.6 7.7 L4.45 0.85 14.35 -0.25 13.3 3.8 9.15 5.35 7.5 15.35 3.25 16.9 5.9 6.85 2.6 7.7 M0.35 1.55 L3.1 1.05 Q-0.55 17.4 -6.15 18.2 -9.8 18.7 -9.0 12.7 -8.35 7.8 -5.8 2.4 L-2.25 2.95 Q-3.45 5.15 -4.1 8.15 -4.9 11.4 -3.8 11.25 -2.4 11.0 -1.0 7.0 -0.05 4.2 0.35 1.55 M1.05 -16.1 L0.4 -13.15 -3.25 -11.9 -3.75 -9.25 -1.4 -9.9 -1.8 -7.65 -3.75 -6.45 -3.9 -5.45 -0.7 -6.4 -2.05 -0.55 -8.75 -0.45 -5.75 -13.7 1.05 -16.1 M2.5 -15.45 L9.55 -18.0 8.9 -14.95 5.15 -13.65 4.65 -10.95 7.05 -11.7 6.7 -9.35 4.7 -8.15 4.55 -7.1 7.85 -8.05 6.55 -2.1 -0.45 -1.95 2.5 -15.45 M11.2 -16.85 Q15.5 -19.05 18.7 -18.55 22.5 -18.0 21.4 -13.55 20.6 -10.55 18.0 -8.7 15.6 -7.0 13.55 -7.4 L13.3 -3.65 8.35 -2.15 11.2 -16.85 M17.35 -14.15 Q17.6 -15.15 17.0 -15.4 16.35 -15.7 15.35 -15.1 L14.2 -10.75 Q16.9 -12.4 17.35 -14.15" fill="#000033" fill-rule="evenodd" stroke="none"/>
  </g>
</svg>
