<?xml version="1.0" encoding="UTF-8" standalone="no"?>
<svg xmlns:xlink="http://www.w3.org/1999/xlink" height="23.3px" width="17.6px" xmlns="http://www.w3.org/2000/svg">
  <g transform="matrix(1.0, 0.0, 0.0, 1.0, 8.8, 11.65)">
    <path d="M-2.8 -5.75 Q-4.05 -3.5 -4.05 -0.35 -4.05 2.8 -2.8 5.0 -1.65 7.05 0.0 7.1 1.65 7.05 2.8 5.0 4.05 2.8 4.05 -0.35 4.05 -3.5 2.8 -5.75 1.65 -7.75 0.0 -7.8 -1.65 -7.75 -2.8 -5.75 M0.0 -11.65 Q3.7 -11.65 6.25 -8.2 8.8 -4.8 8.8 0.0 8.8 4.8 6.25 8.15 3.7 11.65 0.0 11.65 -3.7 11.65 -6.3 8.15 -8.8 4.8 -8.8 0.0 -8.8 -4.8 -6.3 -8.2 -3.7 -11.65 0.0 -11.65" fill="#333399" fill-rule="evenodd" stroke="none"/>
  </g>
</svg>
