<?xml version="1.0" encoding="UTF-8" standalone="no"?>
<svg xmlns:xlink="http://www.w3.org/1999/xlink" height="52.8px" width="45.35px" xmlns="http://www.w3.org/2000/svg">
  <g transform="matrix(1.0, 0.0, 0.0, 1.0, 22.7, 23.75)">
    <path d="M-10.95 -22.0 Q1.15 -17.6 15.55 -17.8 L16.95 -17.85 Q19.15 -17.6 20.75 -15.6 22.6 -13.35 22.65 -10.15 22.6 -6.95 20.75 -4.7 18.9 -2.45 16.3 -2.45 L15.65 -2.45 14.85 -2.6 0.3 -5.25 -15.25 29.05 -19.7 22.75 -7.6 -6.7 -13.65 -7.8 -15.95 -7.35 Q-18.75 -7.35 -20.75 -9.75 -22.7 -12.15 -22.7 -15.55 -22.7 -18.95 -20.75 -21.35 -18.75 -23.75 -15.95 -23.75 -14.05 -23.75 -12.5 -22.6 L-11.2 -21.35 -10.95 -22.0" fill="#000033" fill-rule="evenodd" stroke="none"/>
    <path d="M-12.5 -22.6 L-10.95 -22.0 -11.2 -21.35 -12.5 -22.6" fill="#333366" fill-rule="evenodd" stroke="none"/>
  </g>
</svg>
