<?xml version="1.0" encoding="UTF-8" standalone="no"?>
<svg xmlns:xlink="http://www.w3.org/1999/xlink" height="42.7px" width="68.1px" xmlns="http://www.w3.org/2000/svg">
  <g transform="matrix(1.0, 0.0, 0.0, 1.0, 4.2, 24.3)">
    <path d="M62.85 -11.7 Q63.45 -12.65 63.25 -13.65 63.05 -14.9 61.5 -16.65 61.15 -17.05 61.25 -18.5 L61.15 -21.1 Q60.85 -22.45 59.35 -22.8 57.65 -23.25 54.05 -22.25 L54.55 -20.6 55.05 -18.9 Q55.25 -18.15 55.75 -17.9 L56.9 -17.65 58.1 -17.55 Q58.8 -17.35 59.15 -16.75 L56.4 -16.95 Q57.5 -16.05 57.2 -14.5 56.9 -13.1 55.6 -12.0 54.2 -10.85 52.55 -10.95 50.6 -11.05 49.0 -12.95 48.4 -11.9 48.45 -10.65 48.5 -9.15 49.5 -8.65 51.1 -10.35 54.85 -10.65 L57.1 -10.65 Q58.05 -10.55 57.75 -10.35 53.8 -10.15 51.45 -8.4 49.4 -7.0 49.2 -5.0 48.95 -3.2 50.4 -2.35 L54.55 -2.45 Q54.35 -3.05 55.65 -4.4 55.05 -2.75 56.05 -1.75 L56.8 -1.2 57.1 -0.85 56.1 -1.15 Q55.15 -1.55 54.85 -1.95 54.25 -1.25 52.85 -1.15 51.45 -0.95 50.2 -1.5 48.7 -2.05 48.2 -3.35 47.55 -4.8 48.3 -6.9 47.6 -9.0 46.0 -9.15 L44.85 -9.1 44.05 -9.15 Q44.85 -10.0 47.35 -9.75 47.05 -11.0 47.35 -12.1 47.65 -13.3 48.4 -14.1 47.85 -16.1 48.8 -17.85 48.1 -15.05 49.5 -13.6 50.6 -12.4 52.65 -12.5 54.55 -12.5 55.5 -13.55 56.65 -14.65 55.5 -15.95 54.9 -16.65 53.9 -19.75 53.0 -22.65 52.55 -22.85 51.3 -23.5 47.85 -21.6 44.55 -19.8 43.0 -17.9 42.45 -17.25 41.8 -13.75 41.1 -10.3 40.5 -9.65 36.5 -4.9 35.9 0.5 35.65 2.65 36.0 4.55 36.35 6.25 37.0 7.4 L39.9 4.75 43.1 2.5 42.4 0.95 Q42.05 -0.55 42.5 -2.7 42.85 1.15 45.05 2.85 46.8 4.2 49.7 4.1 51.8 4.05 54.25 3.2 56.2 2.5 56.5 2.1 61.6 -0.4 61.0 -8.0 60.9 -9.05 61.6 -10.05 L62.85 -11.7 M2.85 -6.0 L2.6 -6.1 2.9 -6.0 4.4 -5.2 Q6.45 -3.9 7.65 -3.3 12.9 -0.55 17.95 -0.85 19.7 -0.9 22.15 -2.15 L23.85 -3.05 25.35 -3.4 26.65 -3.7 27.45 -4.3 28.2 -4.7 29.25 -4.35 Q29.65 -6.0 30.8 -7.55 31.95 -9.25 33.45 -10.25 35.1 -11.45 36.75 -11.6 38.6 -11.8 40.2 -10.75 40.8 -11.6 40.95 -13.1 L41.25 -15.55 Q41.5 -16.75 42.9 -18.5 44.35 -20.2 46.25 -21.6 48.3 -23.1 50.05 -23.6 52.05 -24.15 53.2 -23.25 58.0 -25.25 60.35 -23.45 62.75 -21.8 62.05 -16.75 65.85 -14.2 61.85 -8.65 62.15 -1.5 58.3 1.8 54.85 4.7 47.55 4.75 45.75 12.85 43.1 15.95 38.85 21.05 31.5 15.6 23.85 19.75 14.1 17.0 9.9 15.8 5.8 13.35 2.15 11.1 -0.9 8.15 L-1.2 7.85 -0.8 7.95 0.05 8.4 2.15 9.9 Q5.85 12.55 8.8 13.95 19.5 19.05 30.3 14.55 27.95 9.4 27.9 5.55 27.8 3.85 28.2 1.45 L29.05 -3.6 Q25.7 -2.85 21.0 6.85 21.2 4.7 22.5 2.3 L25.05 -1.8 Q24.95 -3.65 21.0 0.1 L17.95 3.2 15.75 5.55 Q16.1 4.25 17.45 2.85 L18.55 1.65 19.6 0.45 12.65 -0.05 Q10.35 -0.6 8.6 -1.75 L5.8 -4.0 2.85 -6.0 M44.9 4.15 L43.95 3.5 Q40.0 5.85 37.7 8.35 38.15 9.05 39.8 9.5 L42.15 10.0 Q39.1 11.1 37.15 9.15 35.45 7.4 35.1 3.8 34.8 0.25 35.85 -3.35 36.95 -7.25 39.25 -9.45 39.35 -10.7 37.0 -10.55 33.9 -10.3 31.75 -7.0 29.8 -4.05 29.1 0.45 28.45 4.75 29.2 8.7 29.95 12.75 31.9 14.55 35.4 17.7 38.45 17.4 41.05 17.15 43.1 14.55 44.8 12.35 45.65 9.2 46.45 6.25 46.1 4.5 L44.9 4.15" fill="#000000" fill-rule="evenodd" stroke="none"/>
    <path d="M62.85 -11.7 L61.6 -10.05 Q60.9 -9.05 61.0 -8.0 61.6 -0.4 56.5 2.1 56.2 2.5 54.25 3.2 51.8 4.05 49.7 4.1 46.8 4.2 45.05 2.85 42.85 1.15 42.5 -2.7 42.05 -0.55 42.4 0.95 L43.1 2.5 39.9 4.75 37.0 7.4 Q36.35 6.25 36.0 4.55 35.65 2.65 35.9 0.5 36.5 -4.9 40.5 -9.65 41.1 -10.3 41.8 -13.75 42.45 -17.25 43.0 -17.9 44.55 -19.8 47.85 -21.6 51.3 -23.5 52.55 -22.85 53.0 -22.65 53.9 -19.75 54.9 -16.65 55.5 -15.95 56.65 -14.65 55.5 -13.55 54.55 -12.5 52.65 -12.5 50.6 -12.4 49.5 -13.6 48.1 -15.05 48.8 -17.85 47.85 -16.1 48.4 -14.1 47.65 -13.3 47.35 -12.1 47.05 -11.0 47.35 -9.75 44.85 -10.0 44.05 -9.15 L44.85 -9.1 46.0 -9.15 Q47.6 -9.0 48.3 -6.9 47.55 -4.8 48.2 -3.35 48.7 -2.05 50.2 -1.5 51.45 -0.95 52.85 -1.15 54.25 -1.25 54.85 -1.95 55.15 -1.55 56.1 -1.15 L57.1 -0.85 56.8 -1.2 56.05 -1.75 Q55.05 -2.75 55.65 -4.4 54.35 -3.05 54.55 -2.45 L50.4 -2.35 Q48.95 -3.2 49.2 -5.0 49.4 -7.0 51.45 -8.4 53.8 -10.15 57.75 -10.35 58.05 -10.55 57.1 -10.65 L54.85 -10.65 Q51.1 -10.35 49.5 -8.65 48.5 -9.15 48.45 -10.65 48.4 -11.9 49.0 -12.95 50.6 -11.05 52.55 -10.95 54.2 -10.85 55.6 -12.0 56.9 -13.1 57.2 -14.5 57.5 -16.05 56.4 -16.95 L59.15 -16.75 Q58.8 -17.35 58.1 -17.55 L56.9 -17.65 55.75 -17.9 Q55.25 -18.15 55.05 -18.9 L54.55 -20.6 54.05 -22.25 Q57.65 -23.25 59.35 -22.8 60.85 -22.45 61.15 -21.1 L61.25 -18.5 Q61.15 -17.05 61.5 -16.65 63.05 -14.9 63.25 -13.65 63.45 -12.65 62.85 -11.7" fill="#ffffff" fill-rule="evenodd" stroke="none"/>
    <path d="M44.9 4.15 L46.1 4.5 Q46.45 6.25 45.65 9.2 44.8 12.35 43.1 14.55 41.05 17.15 38.45 17.4 35.4 17.7 31.9 14.55 29.95 12.75 29.2 8.7 28.45 4.75 29.1 0.45 29.8 -4.05 31.75 -7.0 33.9 -10.3 37.0 -10.55 39.35 -10.7 39.25 -9.45 36.95 -7.25 35.85 -3.35 34.8 0.25 35.1 3.8 35.45 7.4 37.15 9.15 39.1 11.1 42.15 10.0 L39.8 9.5 Q38.15 9.05 37.7 8.35 40.0 5.85 43.95 3.5 L44.9 4.15" fill="#990000" fill-rule="evenodd" stroke="none"/>
    <path d="M-0.8 7.95 Q-9.1 -5.35 2.85 -6.0 L5.8 -4.0 8.6 -1.75 Q10.35 -0.6 12.65 -0.05 L19.6 0.45 18.55 1.65 17.45 2.85 Q16.1 4.25 15.75 5.55 L17.95 3.2 21.0 0.1 Q24.95 -3.65 25.05 -1.8 L22.5 2.3 Q21.2 4.7 21.0 6.85 25.7 -2.85 29.05 -3.6 L28.2 1.45 Q27.8 3.85 27.9 5.55 27.95 9.4 30.3 14.55 19.5 19.05 8.8 13.95 5.85 12.55 2.15 9.9 L0.05 8.4 -0.8 7.95" fill="#660099" fill-rule="evenodd" stroke="none"/>
  </g>
</svg>
