<?xml version="1.0" encoding="UTF-8" standalone="no"?>
<svg xmlns:xlink="http://www.w3.org/1999/xlink" height="41.1px" width="53.3px" xmlns="http://www.w3.org/2000/svg">
  <g transform="matrix(1.0, 0.0, 0.0, 1.0, 16.75, 6.85)">
    <path d="M-5.7 -1.45 Q-2.2 1.55 -1.95 3.4 L-1.9 4.15 -2.2 5.4 -2.6 6.5 -2.6 6.6 -3.4 8.15 -3.2 8.2 Q-0.7 9.15 2.8 9.15 6.3 9.15 8.75 8.2 L9.5 7.9 9.5 7.85 9.6 7.55 9.9 6.5 10.1 5.65 10.2 4.5 Q10.3 2.65 9.7 1.1 8.75 -1.25 6.75 -3.1 5.05 -4.6 1.5 -6.3 L2.35 -6.85 Q9.15 -3.0 10.25 0.4 11.35 3.8 11.1 5.4 L10.75 7.0 10.7 7.15 10.5 7.75 10.4 8.05 Q11.35 8.75 11.35 9.6 11.35 11.05 8.6 12.1 L7.6 12.4 7.45 12.6 13.55 12.0 24.05 11.25 30.35 11.65 Q30.45 12.15 31.15 12.25 37.7 13.35 36.3 16.85 L35.45 18.25 34.65 19.25 Q34.3 19.7 34.35 20.3 34.35 20.95 34.9 22.05 35.3 22.8 34.7 24.4 34.15 25.75 33.45 26.5 32.8 27.15 31.0 27.75 L27.5 28.75 Q25.35 29.35 24.4 29.9 23.0 30.65 22.95 31.6 20.8 34.75 14.35 34.15 8.85 33.65 5.1 32.2 1.3 30.75 0.8 30.8 0.25 30.8 -1.1 30.0 L-3.65 28.6 -5.9 27.5 Q-5.7 27.3 -6.05 27.0 -8.65 25.85 -10.95 24.35 -16.3 20.85 -16.65 19.0 -16.9 17.35 -14.65 15.8 L-14.25 15.55 -14.15 15.45 -13.9 14.6 Q-13.05 14.5 -11.7 13.85 L-9.3 12.65 -6.95 10.8 Q-7.5 10.25 -7.5 9.6 -7.5 8.5 -5.9 7.65 -5.55 7.4 -5.0 7.25 L-4.75 7.1 -3.85 6.85 Q-3.25 5.6 -3.15 4.5 L-3.1 3.75 Q-3.25 1.9 -6.35 -1.1 L-5.7 -1.45 M35.1 15.1 Q34.8 14.3 33.3 13.9 L30.3 13.25 Q24.05 19.4 17.55 29.05 17.35 30.2 15.15 29.95 10.0 29.85 1.85 27.9 L1.5 29.45 1.85 29.6 Q10.5 32.8 16.25 33.15 22.0 33.45 22.65 29.2 23.75 28.45 25.5 27.95 L30.6 26.7 Q32.95 26.1 33.5 24.75 34.0 23.4 33.5 21.65 33.05 19.85 33.6 18.65 L34.7 16.7 Q35.25 15.65 35.1 15.1 M22.7 12.05 L13.8 12.95 6.5 13.7 Q4.55 15.65 1.2 17.45 L6.1 12.8 1.95 13.15 Q-1.95 13.15 -4.75 12.1 L-6.25 11.35 Q-8.25 13.0 -11.4 14.8 -12.75 15.55 -13.25 15.3 -13.75 19.9 -5.9 23.7 9.2 28.9 14.75 28.65 16.35 29.05 19.45 24.0 22.55 18.95 29.55 12.4 L22.7 12.05 M10.35 9.25 L10.15 8.55 9.95 8.25 9.15 8.75 8.25 9.1 Q5.8 10.05 2.3 10.05 -1.2 10.05 -3.7 9.1 L-4.0 9.0 -4.95 8.55 -4.35 7.7 -4.3 7.6 -4.9 7.65 Q-5.35 7.7 -5.95 8.1 -6.55 8.5 -6.55 9.25 L-6.25 10.1 -5.55 10.75 -4.1 11.45 Q-1.6 12.4 1.9 12.4 4.9 12.4 7.1 11.7 L7.85 11.45 8.55 11.2 Q10.35 10.35 10.35 9.25 M-10.75 23.4 L-6.05 25.9 -6.1 24.75 Q-15.55 20.05 -14.05 16.5 -15.5 17.55 -15.7 18.3 -16.1 19.6 -10.75 23.4 M-4.9 26.9 Q-2.9 28.4 -0.2 29.25 L0.0 27.25 -4.65 25.55 -4.9 26.9" fill="#000000" fill-rule="evenodd" stroke="none"/>
    <path d="M1.5 -6.3 Q5.05 -4.6 6.75 -3.1 8.75 -1.25 9.7 1.1 10.3 2.65 10.2 4.5 L10.1 5.65 9.9 6.5 9.6 7.55 9.5 7.85 9.5 7.9 8.75 8.2 Q6.3 9.15 2.8 9.15 -0.7 9.15 -3.2 8.2 L-3.4 8.15 -2.6 6.6 -2.6 6.5 -2.2 5.4 -1.9 4.15 -1.95 3.4 Q-2.2 1.55 -5.7 -1.45 -5.6 -7.45 1.5 -6.3 M35.1 15.1 Q35.25 15.65 34.7 16.7 L33.6 18.65 Q33.05 19.85 33.5 21.65 34.0 23.4 33.5 24.75 32.95 26.1 30.6 26.7 L25.5 27.95 Q23.75 28.45 22.65 29.2 22.0 33.45 16.25 33.15 10.5 32.8 1.85 29.6 L1.5 29.45 1.85 27.9 Q10.0 29.85 15.15 29.95 17.35 30.2 17.55 29.05 24.05 19.4 30.3 13.25 L33.3 13.9 Q34.8 14.3 35.1 15.1 M-10.75 23.4 Q-16.1 19.6 -15.7 18.3 -15.5 17.55 -14.05 16.5 -15.55 20.05 -6.1 24.75 L-6.05 25.9 -10.75 23.4" fill="#ffcc00" fill-rule="evenodd" stroke="none"/>
    <path d="M22.7 12.05 L29.55 12.4 Q22.55 18.95 19.45 24.0 16.35 29.05 14.75 28.65 9.2 28.9 -5.9 23.7 -13.75 19.9 -13.25 15.3 -12.75 15.55 -11.4 14.8 -8.25 13.0 -6.25 11.35 L-4.75 12.1 Q-1.95 13.15 1.95 13.15 L6.1 12.8 1.2 17.45 Q4.55 15.65 6.5 13.7 L13.8 12.95 22.7 12.05 M10.35 9.25 Q10.35 10.35 8.55 11.2 L7.85 11.45 7.1 11.7 Q4.9 12.4 1.9 12.4 -1.6 12.4 -4.1 11.45 L-5.55 10.75 -6.25 10.1 -6.55 9.25 Q-6.55 8.5 -5.95 8.1 -5.35 7.7 -4.9 7.65 L-4.3 7.6 -4.35 7.7 -4.95 8.55 -4.0 9.0 -3.7 9.1 Q-1.2 10.05 2.3 10.05 5.8 10.05 8.25 9.1 L9.15 8.75 9.95 8.25 10.15 8.55 10.35 9.25 M-4.9 26.9 L-4.65 25.55 0.0 27.25 -0.2 29.25 Q-2.9 28.4 -4.9 26.9" fill="#990000" fill-rule="evenodd" stroke="none"/>
  </g>
</svg>
