<?xml version="1.0" encoding="UTF-8" standalone="no"?>
<svg xmlns:xlink="http://www.w3.org/1999/xlink" height="49.65px" width="45.85px" xmlns="http://www.w3.org/2000/svg">
  <g transform="matrix(1.0, 0.0, 0.0, 1.0, 18.55, 8.15)">
    <path d="M7.8 -8.1 Q12.8 -7.65 15.55 -4.0 18.3 -0.35 17.45 4.55 16.55 9.25 12.5 13.45 L11.7 14.8 16.2 17.7 Q19.55 20.15 22.1 22.6 L24.15 24.75 24.85 25.6 Q28.5 30.25 26.7 33.4 L25.5 34.6 23.95 35.25 22.4 35.95 Q21.55 36.4 21.15 37.1 L20.5 38.4 20.0 39.6 Q19.35 40.85 17.95 41.3 L14.4 41.2 12.65 40.65 10.9 40.2 Q9.8 39.95 8.5 40.2 L6.15 40.8 3.7 41.4 1.1 41.25 Q-1.7 40.5 -3.1 36.8 L-3.6 35.35 -4.05 33.8 -4.1 33.6 Q-4.7 31.4 -6.4 27.05 L-6.95 25.7 -7.4 24.7 Q-8.4 22.6 -9.55 21.2 L-10.15 20.5 -10.2 20.45 -14.1 16.55 -16.9 13.75 Q-19.9 10.05 -17.4 7.65 -16.55 6.8 -14.75 6.45 L-11.15 6.15 -7.35 6.1 -6.55 6.05 Q-5.75 3.95 -3.6 2.85 -3.75 1.8 -5.65 -2.35 L-3.85 -4.25 Q2.5 -8.6 7.8 -8.1 M9.5 -6.7 L2.75 -6.5 Q-0.95 -5.6 -4.05 -2.95 -5.05 -2.1 -4.25 -1.25 L-3.95 -0.45 -3.4 0.6 -2.8 2.45 -2.75 2.7 Q-1.6 1.9 -0.55 3.25 L-0.25 3.75 -0.15 3.9 Q0.75 3.5 1.6 3.05 L1.7 2.95 3.15 2.0 3.25 1.9 5.1 -0.15 Q4.9 0.85 4.15 1.85 L3.95 2.05 3.35 2.75 2.9 3.1 0.15 4.95 -1.3 5.65 Q-1.9 7.8 -0.35 10.0 1.3 12.4 4.4 13.45 L10.2 13.65 10.8 13.45 11.6 12.75 12.45 11.95 13.0 11.25 13.85 10.1 15.5 7.0 Q18.5 -0.1 14.0 -4.35 12.4 -5.9 9.5 -6.7 M0.55 16.85 Q-3.45 15.45 -5.6 12.35 -7.45 9.65 -6.85 7.05 L-11.0 7.1 -11.1 7.1 Q-19.2 10.95 -8.4 18.2 L-7.85 18.55 -7.65 18.65 Q-5.9 19.5 -4.45 21.85 L-3.6 23.45 Q-1.85 27.1 -0.75 33.25 15.95 30.6 23.3 25.05 L22.45 24.15 Q16.95 18.65 10.95 15.55 9.8 16.5 8.05 17.05 L1.75 17.2 0.3 17.05 0.95 16.95 0.55 16.85 M1.05 16.15 L2.9 16.65 5.85 15.8 Q7.6 15.35 9.1 14.55 L3.3 14.35 Q0.2 13.3 -1.45 10.9 -3.1 8.55 -2.3 6.25 L-2.2 6.05 Q-1.85 5.1 -1.05 4.4 L-1.7 3.6 -2.65 4.0 -3.65 4.7 -4.6 5.8 -5.2 6.9 -5.25 7.05 Q-6.15 9.6 -4.3 12.25 -2.45 14.95 1.05 16.15 M0.4 34.0 Q-1.85 34.9 -1.85 33.3 -3.15 27.7 -4.7 24.2 L-6.1 25.15 -5.95 25.45 Q-3.95 29.8 -3.5 31.95 L-3.1 33.5 -2.6 35.0 -1.85 37.0 Q-0.75 39.9 1.5 40.25 L6.05 39.8 Q8.45 39.05 9.6 39.05 L11.2 39.3 12.75 39.8 16.8 40.35 Q18.8 40.15 19.15 39.05 L20.25 36.7 Q21.0 35.4 22.25 34.9 L24.0 34.15 Q24.6 33.8 25.65 33.35 27.75 30.4 24.05 25.9 17.05 31.45 1.35 33.65 L0.4 34.0 M-14.8 7.4 Q-16.2 7.7 -17.05 9.1 -17.4 9.65 -17.25 11.3 -15.5 14.6 -11.45 17.7 L-9.6 19.7 -8.85 18.75 Q-20.4 10.5 -12.3 7.1 L-14.8 7.4 M-7.95 19.4 L-8.1 19.3 -8.95 20.45 -6.65 24.0 -5.4 22.75 Q-6.6 20.5 -7.95 19.4" fill="#000000" fill-rule="evenodd" stroke="none"/>
    <path d="M9.5 -6.7 Q12.4 -5.9 14.0 -4.35 18.5 -0.1 15.5 7.0 L13.85 10.1 13.0 11.25 12.45 11.95 11.6 12.75 10.8 13.45 10.2 13.65 4.4 13.45 Q1.3 12.4 -0.35 10.0 -1.9 7.8 -1.3 5.65 L0.15 4.95 2.9 3.1 3.35 2.75 3.95 2.05 4.15 1.85 Q4.9 0.85 5.1 -0.15 L3.25 1.9 3.15 2.0 1.7 2.95 1.6 3.05 Q0.75 3.5 -0.15 3.9 L-0.25 3.75 -0.55 3.25 Q-1.6 1.9 -2.75 2.7 L-2.8 2.45 -3.4 0.6 -3.95 -0.45 -4.25 -1.25 Q-5.05 -2.1 -4.05 -2.95 -0.95 -5.6 2.75 -6.5 L9.5 -6.7 M-14.8 7.4 L-12.3 7.1 Q-20.4 10.5 -8.85 18.75 L-9.6 19.7 -11.45 17.7 Q-15.5 14.6 -17.25 11.3 -17.4 9.65 -17.05 9.1 -16.2 7.7 -14.8 7.4 M0.4 34.0 L1.35 33.65 Q17.05 31.45 24.05 25.9 27.75 30.4 25.65 33.35 24.6 33.8 24.0 34.15 L22.25 34.9 Q21.0 35.4 20.25 36.7 L19.15 39.05 Q18.8 40.15 16.8 40.35 L12.75 39.8 11.2 39.3 9.6 39.05 Q8.45 39.05 6.05 39.8 L1.5 40.25 Q-0.75 39.9 -1.85 37.0 L-2.6 35.0 -3.1 33.5 -3.5 31.95 Q-3.95 29.8 -5.95 25.45 L-6.1 25.15 -4.7 24.2 Q-3.15 27.7 -1.85 33.3 -1.85 34.9 0.4 34.0" fill="#ffcc00" fill-rule="evenodd" stroke="none"/>
    <path d="M0.55 16.85 L0.95 16.95 0.3 17.05 1.75 17.2 8.05 17.05 Q9.8 16.5 10.95 15.55 16.95 18.65 22.45 24.15 L23.3 25.05 Q15.95 30.6 -0.75 33.25 -1.85 27.1 -3.6 23.45 L-4.45 21.85 Q-5.9 19.5 -7.65 18.65 L-7.85 18.55 -8.4 18.2 Q-19.2 10.95 -11.1 7.1 L-11.0 7.1 -6.85 7.05 Q-7.45 9.65 -5.6 12.35 -3.45 15.45 0.55 16.85 M1.05 16.15 Q-2.45 14.95 -4.3 12.25 -6.15 9.6 -5.25 7.05 L-5.2 6.9 -4.6 5.8 -3.65 4.7 -2.65 4.0 -1.7 3.6 -1.05 4.4 Q-1.85 5.1 -2.2 6.05 L-2.3 6.25 Q-3.1 8.55 -1.45 10.9 0.2 13.3 3.3 14.35 L9.1 14.55 Q7.6 15.35 5.85 15.8 L2.9 16.65 1.05 16.15 M-7.95 19.4 Q-6.6 20.5 -5.4 22.75 L-6.65 24.0 -8.95 20.45 -8.1 19.3 -7.95 19.4" fill="#990000" fill-rule="evenodd" stroke="none"/>
  </g>
</svg>
