<?xml version="1.0" encoding="UTF-8" standalone="no"?>
<svg xmlns:xlink="http://www.w3.org/1999/xlink" height="79.85px" width="66.1px" xmlns="http://www.w3.org/2000/svg">
  <g transform="matrix(1.0, 0.0, 0.0, 1.0, 33.75, 7.9)">
    <path d="M4.8 7.15 L5.0 7.15 4.85 7.25 Q4.4 7.65 2.9 8.05 L-1.1 9.1 Q-7.2 10.8 -10.1 13.95 L-9.15 15.35 -8.55 16.45 -6.25 18.45 Q-4.8 19.3 -3.95 21.75 -3.15 23.95 -3.35 25.75 3.1 24.45 5.1 26.95 L10.0 22.2 Q14.3 17.9 17.1 15.55 26.65 7.45 30.5 10.6 32.55 12.25 32.3 15.25 32.1 17.8 30.15 21.0 28.5 23.8 26.1 26.2 23.75 28.5 21.95 29.25 L20.45 28.35 Q19.85 27.8 19.75 26.8 L21.85 23.9 24.7 20.7 26.85 17.85 Q27.6 16.55 26.9 16.05 25.2 14.75 17.2 22.05 L7.8 31.35 Q9.35 32.2 10.35 34.2 11.4 36.2 11.3 38.4 11.2 40.8 9.8 42.6 8.2 44.55 5.1 45.3 4.6 47.15 2.3 48.3 0.25 49.3 -1.7 49.0 -3.55 51.1 -6.45 51.25 -9.25 51.35 -10.9 49.6 L-21.75 62.5 -29.35 71.65 Q-30.6 72.35 -31.95 71.3 L-32.85 70.4 -33.25 69.6 Q-33.5 67.6 -25.75 58.5 L-19.5 51.35 -14.65 46.0 Q-16.3 43.55 -17.7 39.55 -26.2 41.05 -28.45 33.9 -29.1 31.85 -29.35 28.3 -29.6 25.0 -29.85 24.5 -36.85 9.9 -31.35 3.9 -29.5 1.85 -26.1 0.75 L-23.55 0.05 -21.6 -0.45 Q-19.2 -1.15 -8.7 -5.2 -0.55 -8.35 -0.4 -7.85 L-0.45 -7.75 Q-0.8 -7.5 -3.1 -6.4 -5.95 -5.05 -9.45 -3.6 -19.1 0.35 -24.25 1.1 -28.05 1.65 -30.05 4.4 -31.75 6.85 -31.95 10.7 -32.1 14.1 -31.1 18.0 -30.15 21.55 -28.55 24.15 -25.2 19.55 -20.5 17.45 -15.35 15.05 -10.1 16.35 -11.35 13.7 -20.3 9.2 -18.3 8.95 -16.0 10.05 -14.75 10.55 -12.1 12.3 L-12.05 12.2 -14.15 9.45 Q-15.4 7.85 -16.6 6.95 -15.65 6.95 -13.45 8.95 -11.5 10.7 -10.85 11.8 -6.3 9.05 4.8 7.15 M21.15 28.15 Q22.0 28.8 24.3 26.9 26.65 25.05 28.65 22.2 30.95 19.0 31.5 16.25 32.15 13.0 30.15 11.35 26.55 8.2 15.35 17.9 9.6 22.85 2.05 31.2 L5.1 33.6 9.05 29.1 15.65 22.55 Q24.75 14.05 26.9 15.1 28.5 15.85 27.5 17.7 26.9 18.9 24.55 21.5 22.0 24.3 21.3 25.35 20.1 27.3 21.15 28.15 M9.1 34.7 Q8.2 32.9 7.25 32.05 L5.85 34.05 6.65 34.6 Q7.05 34.95 7.0 35.4 4.2 37.2 0.0 28.95 L1.6 30.7 4.6 27.45 Q2.9 26.1 0.8 26.2 L-2.75 27.05 -6.25 27.4 Q-8.15 27.0 -9.8 24.85 -16.95 26.35 -20.3 33.1 -18.9 33.8 -17.3 37.3 L-15.95 40.6 -14.45 43.95 Q-12.55 47.8 -10.3 49.2 -7.45 50.95 -3.45 49.1 L-4.15 48.7 -1.8 48.4 0.65 48.0 Q3.5 47.25 4.05 44.95 3.0 45.1 2.45 44.35 6.75 44.15 8.7 42.5 10.35 41.05 10.25 38.75 10.2 36.85 9.1 34.7 M-8.85 24.85 Q-6.75 26.5 -5.1 26.0 -3.5 23.35 -5.05 21.0 -6.45 18.8 -9.8 17.8 L-16.95 17.45 Q-21.05 18.2 -23.9 21.0 -27.4 24.3 -28.15 28.0 -28.8 31.25 -27.3 34.05 -25.85 36.65 -23.25 37.95 -20.55 39.25 -18.0 38.5 L-18.9 35.8 Q-19.5 34.3 -20.65 33.7 -20.95 34.5 -22.15 35.8 -21.0 30.8 -16.65 27.35 -12.4 23.95 -7.05 23.6 -6.4 24.0 -8.85 24.85 M-30.45 65.7 Q-32.6 68.75 -32.3 69.35 -32.35 70.05 -31.2 70.75 -30.05 71.45 -29.75 71.0 L-24.45 64.4 Q-25.7 64.5 -26.5 63.65 -27.4 62.8 -27.25 61.6 -28.75 63.2 -30.45 65.7 M-11.7 49.1 L-14.35 46.75 -20.75 53.85 -26.4 60.35 Q-26.7 60.95 -26.55 61.65 L-26.0 62.9 -25.0 63.7 Q-24.35 63.9 -23.75 63.5 L-11.7 49.1" fill="#000000" fill-rule="evenodd" stroke="none"/>
    <path d="M-0.45 -7.75 Q9.85 -4.75 4.8 7.15 -6.3 9.05 -10.85 11.8 -11.5 10.7 -13.45 8.95 -15.65 6.95 -16.6 6.95 -15.4 7.85 -14.15 9.45 L-12.05 12.2 -12.1 12.3 Q-14.75 10.55 -16.0 10.05 -18.3 8.95 -20.3 9.2 -11.35 13.7 -10.1 16.35 -15.35 15.05 -20.5 17.45 -25.2 19.55 -28.55 24.15 -30.15 21.55 -31.1 18.0 -32.1 14.1 -31.95 10.7 -31.75 6.85 -30.05 4.4 -28.05 1.65 -24.25 1.1 -19.1 0.35 -9.45 -3.6 -5.95 -5.05 -3.1 -6.4 -0.8 -7.5 -0.45 -7.75" fill="#660099" fill-rule="evenodd" stroke="none"/>
    <path d="M21.15 28.15 Q20.1 27.3 21.3 25.35 22.0 24.3 24.55 21.5 26.9 18.9 27.5 17.7 28.5 15.85 26.9 15.1 24.75 14.05 15.65 22.55 L9.05 29.1 5.1 33.6 2.05 31.2 Q9.6 22.85 15.35 17.9 26.55 8.2 30.15 11.35 32.15 13.0 31.5 16.25 30.95 19.0 28.65 22.2 26.65 25.05 24.3 26.9 22.0 28.8 21.15 28.15 M-11.7 49.1 L-23.75 63.5 Q-24.35 63.9 -25.0 63.7 L-26.0 62.9 -26.55 61.65 Q-26.7 60.95 -26.4 60.35 L-20.75 53.85 -14.35 46.75 -11.7 49.1" fill="#996600" fill-rule="evenodd" stroke="none"/>
    <path d="M9.1 34.7 Q10.2 36.85 10.25 38.75 10.35 41.05 8.7 42.5 6.75 44.15 2.45 44.35 3.0 45.1 4.05 44.95 3.5 47.25 0.65 48.0 L-1.8 48.4 -4.15 48.7 -3.45 49.1 Q-7.45 50.95 -10.3 49.2 -12.55 47.8 -14.45 43.95 L-15.95 40.6 -17.3 37.3 Q-18.9 33.8 -20.3 33.1 -16.95 26.35 -9.8 24.85 -8.15 27.0 -6.25 27.4 L-2.75 27.05 0.8 26.2 Q2.9 26.1 4.6 27.45 L1.6 30.7 0.0 28.95 Q4.2 37.2 7.0 35.4 7.05 34.95 6.65 34.6 L5.85 34.05 7.25 32.05 Q8.2 32.9 9.1 34.7" fill="#ffffff" fill-rule="evenodd" stroke="none"/>
    <path d="M-8.85 24.85 Q-6.4 24.0 -7.05 23.6 -12.4 23.95 -16.65 27.35 -21.0 30.8 -22.15 35.8 -20.95 34.5 -20.65 33.7 -19.5 34.3 -18.9 35.8 L-18.0 38.5 Q-20.55 39.25 -23.25 37.95 -25.85 36.65 -27.3 34.05 -28.8 31.25 -28.15 28.0 -27.4 24.3 -23.9 21.0 -21.05 18.2 -16.95 17.45 L-9.8 17.8 Q-6.45 18.8 -5.05 21.0 -3.5 23.35 -5.1 26.0 -6.75 26.5 -8.85 24.85" fill="#990000" fill-rule="evenodd" stroke="none"/>
    <path d="M-30.45 65.7 Q-28.75 63.2 -27.25 61.6 -27.4 62.8 -26.5 63.65 -25.7 64.5 -24.45 64.4 L-29.75 71.0 Q-30.05 71.45 -31.2 70.75 -32.35 70.05 -32.3 69.35 -32.6 68.75 -30.45 65.7" fill="#ffff00" fill-rule="evenodd" stroke="none"/>
  </g>
</svg>
