<?xml version="1.0" encoding="UTF-8" standalone="no"?>
<svg xmlns:xlink="http://www.w3.org/1999/xlink" height="57.5px" width="55.3px" xmlns="http://www.w3.org/2000/svg">
  <g transform="matrix(1.0, 0.0, 0.0, 1.0, 27.65, 28.75)">
    <path d="M27.25 6.35 Q26.4 10.2 24.4 13.25 L18.05 18.8 Q-2.1 34.4 -22.4 25.55 -26.0 21.2 -25.2 14.85 -24.55 9.3 -20.8 3.1 -18.75 0.9 -22.5 -3.55 L-25.55 -6.65 -27.65 -8.55 Q-26.95 -14.05 -23.75 -18.5 -20.7 -22.8 -16.0 -25.45 -11.35 -28.1 -6.0 -28.65 -0.5 -29.2 4.65 -27.3 L7.7 -25.9 10.65 -24.3 Q9.9 -15.35 15.85 -4.4 20.7 -6.35 23.7 -5.05 26.35 -3.95 27.25 -0.6 28.05 2.4 27.25 6.35 M5.7 -26.25 L2.35 -27.15 -6.9 -27.55 Q-2.9 -20.95 -1.2 -12.7 L2.6 -13.5 6.95 -13.9 7.05 -13.9 Q5.55 -19.65 5.7 -26.25 M18.75 -2.9 L22.05 -4.1 23.95 -4.25 23.75 -4.4 Q22.45 -5.15 20.25 -4.8 L16.8 -3.75 Q13.95 -2.65 10.85 -3.3 L10.15 -3.45 7.1 -4.55 4.1 -5.85 Q1.7 -6.95 -0.25 -7.35 L-2.25 -7.65 Q-6.05 -7.85 -9.85 -5.4 -21.05 1.55 -23.2 9.7 -22.45 8.15 -20.05 5.45 -17.7 2.7 -14.75 0.1 -11.8 -2.55 -7.75 -4.55 -3.75 -6.55 -1.65 -6.0 L2.45 -4.6 5.8 -3.25 Q9.85 -1.6 13.0 -1.4 15.0 -1.25 18.75 -2.9 M10.6 -3.9 L11.75 -3.65 Q13.15 -3.5 14.3 -4.15 13.3 -5.75 12.45 -8.25 L11.0 -12.6 7.25 -13.1 2.65 -12.9 -1.3 -12.1 Q-3.75 -11.45 -6.1 -10.4 -10.55 -8.5 -13.8 -5.6 -17.35 -2.55 -18.85 1.05 -12.4 -5.85 -6.7 -7.7 -3.6 -8.7 -0.45 -8.25 L2.25 -7.65 5.8 -6.1 8.95 -4.55 Q9.85 -4.15 10.6 -3.9 M16.45 5.5 Q14.85 4.25 12.05 3.65 6.65 2.45 0.0 4.25 -6.7 6.05 -10.75 9.8 -14.8 13.5 -13.9 16.95 L-13.9 17.0 Q-12.95 20.45 -7.55 21.65 L-4.95 22.05 Q-0.65 22.4 4.5 21.05 11.15 19.25 15.25 15.55 L15.95 14.85 Q19.2 11.5 18.4 8.35 17.9 6.65 16.45 5.5" fill="#000000" fill-rule="evenodd" stroke="none"/>
    <path d="M18.75 -2.9 Q15.0 -1.25 13.0 -1.4 9.85 -1.6 5.8 -3.25 L2.45 -4.6 -1.65 -6.0 Q-3.75 -6.55 -7.75 -4.55 -11.8 -2.55 -14.75 0.1 -17.7 2.7 -20.05 5.45 -22.45 8.15 -23.2 9.7 -21.05 1.55 -9.85 -5.4 -6.05 -7.85 -2.25 -7.65 L-0.25 -7.35 Q1.7 -6.95 4.1 -5.85 L7.1 -4.55 10.15 -3.45 10.85 -3.3 Q13.95 -2.65 16.8 -3.75 L20.25 -4.8 Q22.45 -5.15 23.75 -4.4 L23.95 -4.25 22.05 -4.1 18.75 -2.9 M5.7 -26.25 Q5.55 -19.65 7.05 -13.9 L6.95 -13.9 2.6 -13.5 -1.2 -12.7 Q-2.9 -20.95 -6.9 -27.55 L2.35 -27.15 5.7 -26.25" fill="#00ccff" fill-rule="evenodd" stroke="none"/>
    <path d="M7.25 -13.1 L11.0 -12.6 12.45 -8.25 Q13.3 -5.75 14.3 -4.15 13.15 -3.5 11.75 -3.65 L10.6 -3.9 Q8.2 -7.45 7.25 -13.1 M-0.45 -8.25 Q-3.6 -8.7 -6.7 -7.7 -12.4 -5.85 -18.85 1.05 -17.35 -2.55 -13.8 -5.6 -10.55 -8.5 -6.1 -10.4 -3.75 -11.45 -1.3 -12.1 L-0.45 -8.25" fill="#990000" fill-rule="evenodd" stroke="none"/>
    <path d="M10.6 -3.9 Q9.85 -4.15 8.95 -4.55 L5.8 -6.1 2.25 -7.65 -0.45 -8.25 -1.3 -12.1 2.65 -12.9 7.25 -13.1 Q8.2 -7.45 10.6 -3.9" fill="#cc0000" fill-rule="evenodd" stroke="none"/>
    <path d="M15.95 14.85 L15.25 15.55 Q11.15 19.25 4.5 21.05 -0.65 22.4 -4.95 22.05 L-5.9 19.25 Q-2.0 19.4 2.55 18.2 9.2 16.4 13.3 12.7 L14.3 11.7 15.95 14.85" fill="#660000" fill-rule="evenodd" stroke="none"/>
    <path d="M-13.9 16.95 Q-14.8 13.5 -10.75 9.8 -6.7 6.05 0.0 4.25 6.65 2.45 12.05 3.65 14.85 4.25 16.45 5.5 17.2 8.5 14.3 11.7 L13.3 12.7 Q9.2 16.4 2.55 18.2 -2.0 19.4 -5.9 19.25 L-9.5 18.8 Q-12.3 18.2 -13.9 16.95" fill="#333333" fill-rule="evenodd" stroke="none"/>
    <path d="M16.45 5.5 Q17.9 6.65 18.4 8.35 19.2 11.5 15.95 14.85 L14.3 11.7 Q17.2 8.5 16.45 5.5 M-4.95 22.05 L-7.55 21.65 Q-12.95 20.45 -13.9 17.0 L-13.9 16.95 Q-12.3 18.2 -9.5 18.8 L-5.9 19.25 -4.95 22.05" fill="#330000" fill-rule="evenodd" stroke="none"/>
  </g>
</svg>
