<?xml version="1.0" encoding="UTF-8" standalone="no"?>
<svg xmlns:xlink="http://www.w3.org/1999/xlink" height="74.6px" width="58.95px" xmlns="http://www.w3.org/2000/svg">
  <g transform="matrix(1.0, 0.0, 0.0, 1.0, 38.55, 59.25)">
    <path d="M14.05 -53.0 Q13.2 -49.1 11.15 -46.05 L11.4 -44.35 11.7 -42.25 Q12.1 -39.55 13.05 -39.05 14.35 -38.4 15.3 -39.55 L16.1 -40.55 Q16.55 -41.15 17.0 -41.35 17.2 -40.8 17.05 -40.0 L16.6 -38.65 Q16.25 -37.85 16.25 -37.45 16.15 -36.9 16.6 -36.5 L19.4 -33.9 Q20.35 -32.55 20.4 -30.15 19.3 -31.3 18.3 -31.75 L17.6 -32.0 Q17.2 -32.2 16.95 -32.35 18.3 -27.25 15.35 -24.05 L15.05 -25.5 14.35 -24.1 Q13.95 -23.3 13.35 -23.05 13.05 -24.8 11.8 -25.9 9.3 -20.7 2.65 -17.3 2.3 -16.35 2.3 -14.95 L2.3 -12.6 5.55 -9.3 8.65 -6.0 Q11.9 -2.15 12.65 2.05 13.25 5.65 13.25 8.2 13.2 12.95 10.8 11.7 10.1 11.35 7.3 7.85 L3.6 3.3 Q2.8 4.3 2.0 6.05 L0.7 9.35 -0.65 12.4 Q-1.5 13.95 -2.35 14.65 -3.5 15.5 -5.05 15.35 -6.5 15.15 -8.05 14.0 -11.35 11.7 -13.65 7.0 -16.15 1.95 -15.9 -2.95 -15.6 -8.65 -11.5 -12.35 L-11.05 -12.85 -11.55 -14.6 -12.65 -16.3 Q-13.6 -17.45 -15.45 -18.65 L-18.7 -20.7 Q-20.5 -21.95 -21.4 -23.1 -24.05 -21.5 -25.15 -18.9 -26.4 -16.0 -24.85 -13.45 -26.25 -13.65 -27.9 -15.8 -29.4 -17.8 -30.75 -20.8 -32.05 -23.75 -32.65 -26.45 -33.3 -29.3 -32.85 -30.6 -33.85 -29.6 -34.6 -27.25 -35.4 -28.05 -35.3 -30.0 L-34.85 -32.95 Q-39.25 -37.55 -38.4 -44.5 L-37.7 -48.0 -27.35 -48.0 -20.1 -56.0 14.2 -59.25 Q14.75 -56.45 14.05 -53.0 M1.05 -14.6 L1.0 -16.8 Q-5.3 -15.5 -11.35 -16.8 L-10.25 -14.6 -8.55 -10.65 -6.05 -4.3 Q-4.25 -3.05 -1.6 -2.75 L3.2 -3.05 1.7 -9.8 Q1.2 -12.4 1.05 -14.6 M10.8 -43.85 L10.4 -46.85 Q9.15 -52.15 4.6 -54.35 0.6 -56.3 -5.4 -55.7 -10.8 -55.15 -16.55 -52.75 -22.0 -50.5 -25.7 -47.5 -25.6 -43.8 -28.55 -42.85 -30.95 -42.15 -34.45 -43.35 -34.05 -41.95 -33.1 -40.9 -32.05 -39.75 -30.75 -39.35 -32.6 -36.6 -33.4 -34.65 -34.6 -31.9 -34.45 -29.4 -32.85 -33.0 -31.15 -33.35 -33.45 -29.25 -30.75 -23.05 L-30.55 -25.05 Q-30.2 -26.35 -29.45 -26.55 L-29.9 -23.35 -29.8 -21.0 Q-29.6 -19.95 -28.9 -18.8 L-26.8 -15.95 Q-26.95 -16.95 -26.5 -18.4 L-25.25 -21.25 Q-23.35 -24.55 -21.1 -24.4 -18.2 -20.95 -13.65 -19.0 -9.2 -17.1 -4.35 -17.2 0.65 -17.35 4.7 -19.65 9.15 -22.25 11.6 -27.0 11.85 -27.45 13.85 -24.8 L14.2 -27.45 Q14.65 -27.7 15.2 -27.05 L15.85 -26.0 Q16.55 -28.05 16.0 -31.15 L15.5 -33.1 Q15.25 -33.95 15.35 -34.05 16.45 -34.05 17.6 -33.35 L19.45 -31.85 Q19.05 -34.9 14.7 -36.65 L16.15 -39.05 Q12.8 -36.35 11.5 -40.3 11.05 -41.6 10.8 -43.85 M4.45 -3.9 L5.15 -4.6 Q5.55 -5.0 6.0 -5.05 5.75 -3.4 3.8 -2.3 1.95 -1.3 -0.55 -1.3 -3.25 -1.3 -5.45 -2.65 -8.0 -4.15 -9.25 -7.1 L-8.45 -7.05 -7.75 -6.25 -10.15 -11.5 Q-12.5 -11.4 -13.7 -8.0 -14.85 -4.8 -14.45 -0.3 -14.05 4.45 -12.0 8.2 -9.7 12.45 -5.95 14.05 -4.2 14.8 -2.6 13.15 -1.55 12.0 0.0 8.85 1.95 4.85 2.65 3.75 4.25 1.1 6.0 0.55 L4.3 2.3 6.25 4.9 8.5 7.9 Q11.2 11.35 11.95 10.6 12.55 9.95 12.5 7.45 12.45 4.7 11.5 1.65 10.45 -2.05 8.45 -4.95 6.05 -8.4 2.7 -10.3 3.35 -6.15 4.45 -3.9" fill="#000000" fill-rule="evenodd" stroke="none"/>
    <path d="M10.8 -43.85 Q11.05 -41.6 11.5 -40.3 12.8 -36.35 16.15 -39.05 L14.7 -36.65 Q19.05 -34.9 19.45 -31.85 L17.6 -33.35 Q16.45 -34.05 15.35 -34.05 15.25 -33.95 15.5 -33.1 L16.0 -31.15 Q16.55 -28.05 15.85 -26.0 L15.2 -27.05 Q14.65 -27.7 14.2 -27.45 L13.85 -24.8 Q11.85 -27.45 11.6 -27.0 9.15 -22.25 4.7 -19.65 0.65 -17.35 -4.35 -17.2 -9.2 -17.1 -13.65 -19.0 -18.2 -20.95 -21.1 -24.4 -23.35 -24.55 -25.25 -21.25 L-26.5 -18.4 Q-26.95 -16.95 -26.8 -15.95 L-28.9 -18.8 Q-29.6 -19.95 -29.8 -21.0 L-29.9 -23.35 -29.45 -26.55 Q-30.2 -26.35 -30.55 -25.05 L-30.75 -23.05 Q-33.45 -29.25 -31.15 -33.35 -32.85 -33.0 -34.45 -29.4 -34.6 -31.9 -33.4 -34.65 -32.6 -36.6 -30.75 -39.35 -32.05 -39.75 -33.1 -40.9 -34.05 -41.95 -34.45 -43.35 -30.95 -42.15 -28.55 -42.85 -25.6 -43.8 -25.7 -47.5 -22.0 -50.5 -16.55 -52.75 -10.8 -55.15 -5.4 -55.7 0.6 -56.3 4.6 -54.35 9.15 -52.15 10.4 -46.85 L10.8 -43.85 M1.05 -14.6 Q1.2 -12.4 1.7 -9.8 L3.2 -3.05 -1.6 -2.75 Q-4.25 -3.05 -6.05 -4.3 L-8.55 -10.65 -10.25 -14.6 -11.35 -16.8 Q-5.3 -15.5 1.0 -16.8 L1.05 -14.6" fill="#ffffff" fill-rule="evenodd" stroke="none"/>
    <path d="M4.45 -3.9 Q3.35 -6.15 2.7 -10.3 6.05 -8.4 8.45 -4.95 10.45 -2.05 11.5 1.65 12.45 4.7 12.5 7.45 12.55 9.95 11.95 10.6 11.2 11.35 8.5 7.9 L6.25 4.9 4.3 2.3 6.0 0.55 Q4.25 1.1 2.65 3.75 1.95 4.85 0.0 8.85 -1.55 12.0 -2.6 13.15 -4.2 14.8 -5.95 14.05 -9.7 12.45 -12.0 8.2 -14.05 4.45 -14.45 -0.3 -14.85 -4.8 -13.7 -8.0 -12.5 -11.4 -10.15 -11.5 L-7.75 -6.25 -8.45 -7.05 -9.25 -7.1 Q-8.0 -4.15 -5.45 -2.65 -3.25 -1.3 -0.55 -1.3 1.95 -1.3 3.8 -2.3 5.75 -3.4 6.0 -5.05 5.55 -5.0 5.15 -4.6 L4.45 -3.9" fill="#990000" fill-rule="evenodd" stroke="none"/>
  </g>
</svg>
