<?xml version="1.0" encoding="UTF-8" standalone="no"?>
<svg xmlns:xlink="http://www.w3.org/1999/xlink" height="41.15px" width="41.55px" xmlns="http://www.w3.org/2000/svg">
  <g transform="matrix(1.0, 0.0, 0.0, 1.0, 20.75, 20.55)">
    <path d="M3.8 -14.2 Q4.4 -16.7 5.65 -17.6 6.75 -18.5 7.95 -17.6 9.15 -16.7 9.6 -14.6 10.05 -12.3 9.3 -9.55 11.05 -3.8 10.35 2.3 L12.65 2.35 Q13.55 2.8 13.9 3.35 L14.45 4.95 14.7 7.05 15.8 6.8 17.4 6.45 Q19.45 6.05 20.2 6.95 21.6 8.45 19.8 10.45 L18.2 11.75 Q17.3 12.25 16.7 12.3 17.4 15.65 13.0 18.05 8.8 20.3 2.3 20.55 -4.6 20.9 -10.4 18.8 -17.0 16.4 -19.95 11.7 -21.1 9.85 -20.55 6.85 -20.0 3.95 -18.4 2.25 L-18.55 2.75 -19.65 6.95 Q-19.05 6.1 -17.5 6.35 -16.35 6.5 -14.35 7.5 L-11.15 9.2 Q-9.4 10.1 -8.7 10.2 -8.75 9.8 -9.05 9.5 L-9.55 8.9 Q-11.6 6.15 -11.5 2.6 -11.45 -0.3 -9.9 -4.15 L-6.65 -10.75 -4.05 -15.8 Q-4.05 -15.25 -3.4 -14.6 L-2.3 -13.75 -1.35 -13.0 Q1.15 -10.4 2.4 -5.45 3.6 -0.75 2.95 3.0 4.7 3.75 5.65 5.05 L5.9 4.7 Q4.3 -0.25 4.45 -5.05 4.65 -10.55 7.15 -14.2 6.9 -13.7 7.5 -12.8 L8.15 -12.05 8.6 -11.4 Q9.0 -12.5 8.8 -14.1 8.55 -15.7 7.9 -16.6 7.15 -17.65 6.15 -17.05 5.05 -16.5 3.9 -14.2 L3.65 -13.7 3.8 -14.2 M-9.85 -12.25 L-9.3 -14.55 Q-8.6 -16.8 -7.4 -18.4 -6.1 -20.3 -4.9 -20.5 -3.5 -20.8 -2.4 -18.65 L-1.5 -16.65 -1.05 -15.45 -1.0 -14.65 -1.55 -15.95 -2.3 -17.55 Q-3.3 -19.55 -4.45 -19.65 -6.25 -19.95 -8.05 -16.25 L-9.3 -13.25 -9.9 -11.0 -9.85 -12.25 M9.9 -1.1 L9.7 -5.8 Q9.0 -11.6 6.9 -13.0 5.05 -9.05 5.05 -4.75 5.0 -1.65 6.15 3.55 6.3 4.15 6.55 4.35 L7.1 4.45 7.8 4.3 Q8.2 4.25 8.55 4.55 L9.1 3.45 9.55 2.4 9.9 -1.1 M19.5 10.0 Q20.45 8.95 19.85 8.05 19.2 7.1 17.85 7.35 13.4 8.05 10.85 9.45 7.95 10.95 5.35 14.15 4.7 14.95 3.4 15.15 L1.15 15.05 Q-1.5 14.55 -2.8 10.5 -6.4 11.2 -9.2 10.65 -11.35 10.25 -13.3 9.05 L-16.1 7.3 Q-17.45 6.55 -18.5 6.95 -19.8 7.4 -19.55 10.0 -19.3 12.95 -14.85 15.55 -8.8 19.1 -1.35 19.6 6.5 20.1 12.4 16.95 L15.0 15.4 Q16.35 14.15 16.2 12.8 L14.75 12.3 Q11.2 14.7 7.05 16.0 2.85 17.3 -1.45 17.3 -5.85 17.3 -9.7 15.85 -13.85 14.25 -16.95 11.2 L-17.65 11.9 Q-17.85 10.8 -17.15 10.15 -16.4 9.55 -15.35 9.95 L-16.5 10.85 Q-12.5 14.8 -6.75 16.15 -1.25 17.45 4.35 16.0 6.95 15.4 11.0 13.35 15.6 11.0 17.5 10.4 16.55 11.05 15.65 11.8 18.7 10.9 19.5 10.0 M9.2 9.5 L9.2 9.6 Q11.4 8.15 14.3 7.2 L14.1 5.75 13.8 4.15 Q13.3 2.25 11.4 2.5 9.7 3.85 9.4 6.0 8.9 4.6 10.15 2.9 9.05 3.35 8.8 5.9 8.5 8.3 9.2 9.5 M7.05 5.0 L6.6 5.1 7.25 6.8 7.35 6.85 8.2 7.2 8.35 5.3 7.05 5.0 M0.65 4.4 Q-1.6 6.6 -1.0 9.55 -0.55 11.9 1.7 14.3 0.7 14.05 -0.2 12.85 -1.05 11.8 -1.3 10.7 -1.55 9.3 -1.25 7.4 -0.9 5.25 0.0 4.4 L0.4 4.15 Q0.75 4.0 0.65 4.4 M3.5 4.05 Q2.6 3.6 2.4 3.35 0.7 3.1 -0.45 4.25 -1.5 5.25 -1.95 7.15 -2.4 8.9 -2.1 10.65 -1.8 12.45 -0.85 13.4 1.0 15.35 2.9 14.95 4.55 14.55 5.65 12.6 6.65 10.65 6.55 8.55 6.4 6.15 4.8 4.8 L3.5 4.05 M6.75 6.7 L6.2 5.3 6.0 5.6 6.55 6.75 6.75 6.7 M8.25 7.6 Q7.25 6.95 6.7 7.15 7.3 9.0 6.9 11.4 L8.8 9.8 8.5 8.85 8.25 7.6 M1.95 2.9 Q3.3 -1.65 1.6 -6.65 -0.15 -11.9 -4.2 -14.55 L-6.2 -10.65 -8.3 -6.5 Q-10.7 -1.5 -10.9 2.05 -11.0 4.25 -9.9 6.8 -8.65 9.65 -6.65 10.3 L-4.7 10.2 -2.8 9.75 Q-2.6 6.95 -1.7 5.25 -0.5 2.75 1.95 2.9" fill="#000000" fill-rule="evenodd" stroke="none"/>
    <path d="M9.9 -1.1 L9.55 2.4 9.1 3.45 8.55 4.55 Q8.2 4.25 7.8 4.3 L7.1 4.45 6.55 4.35 Q6.3 4.15 6.15 3.55 5.0 -1.65 5.05 -4.75 5.05 -9.05 6.9 -13.0 9.0 -11.6 9.7 -5.8 L9.9 -1.1 M7.05 5.0 L8.35 5.3 8.2 7.2 7.35 6.85 7.25 6.8 6.6 5.1 7.05 5.0 M1.95 2.9 Q-0.5 2.75 -1.7 5.25 -2.6 6.95 -2.8 9.75 L-4.7 10.2 -6.65 10.3 Q-8.65 9.65 -9.9 6.8 -11.0 4.25 -10.9 2.05 -10.7 -1.5 -8.3 -6.5 L-6.2 -10.65 -4.2 -14.55 Q-0.15 -11.9 1.6 -6.65 3.3 -1.65 1.95 2.9" fill="#ccffff" fill-rule="evenodd" stroke="none"/>
    <path d="M19.5 10.0 Q18.7 10.9 15.65 11.8 16.55 11.05 17.5 10.4 15.6 11.0 11.0 13.35 6.95 15.4 4.35 16.0 -1.25 17.45 -6.75 16.15 -12.5 14.8 -16.5 10.85 L-15.35 9.95 Q-16.4 9.55 -17.15 10.15 -17.85 10.8 -17.65 11.9 L-16.95 11.2 Q-13.85 14.25 -9.7 15.85 -5.85 17.3 -1.45 17.3 2.85 17.3 7.05 16.0 11.2 14.7 14.75 12.3 L16.2 12.8 Q16.35 14.15 15.0 15.4 L12.4 16.95 Q6.5 20.1 -1.35 19.6 -8.8 19.1 -14.85 15.55 -19.3 12.95 -19.55 10.0 -19.8 7.4 -18.5 6.95 -17.45 6.55 -16.1 7.3 L-13.3 9.05 Q-11.35 10.25 -9.2 10.65 -6.4 11.2 -2.8 10.5 -1.5 14.55 1.15 15.05 L3.4 15.15 Q4.7 14.95 5.35 14.15 7.95 10.95 10.85 9.45 13.4 8.05 17.85 7.35 19.2 7.1 19.85 8.05 20.45 8.95 19.5 10.0 M8.25 7.6 L8.5 8.85 8.8 9.8 6.9 11.4 Q7.3 9.0 6.7 7.15 7.25 6.95 8.25 7.6" fill="#ffcc00" fill-rule="evenodd" stroke="none"/>
    <path d="M-18.55 2.75 Q-12.0 -4.05 -9.85 -12.25 L-9.9 -11.0 -9.3 -13.25 -8.05 -16.25 Q-6.25 -19.95 -4.45 -19.65 -3.3 -19.55 -2.3 -17.55 L-1.55 -15.95 -1.0 -14.65 -1.05 -15.45 Q1.55 -11.05 3.8 -14.2 L3.65 -13.7 3.9 -14.2 Q5.05 -16.5 6.15 -17.05 7.15 -17.65 7.9 -16.6 8.55 -15.7 8.8 -14.1 9.0 -12.5 8.6 -11.4 L8.15 -12.05 7.5 -12.8 Q6.9 -13.7 7.15 -14.2 4.65 -10.55 4.45 -5.05 4.3 -0.25 5.9 4.7 L5.65 5.05 Q4.7 3.75 2.95 3.0 3.6 -0.75 2.4 -5.45 1.15 -10.4 -1.35 -13.0 L-2.3 -13.75 -3.4 -14.6 Q-4.05 -15.25 -4.05 -15.8 L-6.65 -10.75 -9.9 -4.15 Q-11.45 -0.3 -11.5 2.6 -11.6 6.15 -9.55 8.9 L-9.05 9.5 Q-8.75 9.8 -8.7 10.2 -9.4 10.1 -11.15 9.2 L-14.35 7.5 Q-16.35 6.5 -17.5 6.35 -19.05 6.1 -19.65 6.95 L-18.55 2.75 M9.2 9.5 Q8.5 8.3 8.8 5.9 9.05 3.35 10.15 2.9 8.9 4.6 9.4 6.0 9.7 3.85 11.4 2.5 13.3 2.25 13.8 4.15 L14.1 5.75 14.3 7.2 Q11.4 8.15 9.2 9.6 L9.2 9.5 M0.65 4.4 Q0.75 4.0 0.4 4.15 L0.0 4.4 Q-0.9 5.25 -1.25 7.4 -1.55 9.3 -1.3 10.7 -1.05 11.8 -0.2 12.85 0.7 14.05 1.7 14.3 -0.55 11.9 -1.0 9.55 -1.6 6.6 0.65 4.4 M3.5 4.05 L4.8 4.8 Q6.4 6.15 6.55 8.55 6.65 10.65 5.65 12.6 4.55 14.55 2.9 14.95 1.0 15.35 -0.85 13.4 -1.8 12.45 -2.1 10.65 -2.4 8.9 -1.95 7.15 -1.5 5.25 -0.45 4.25 0.7 3.1 2.4 3.35 2.6 3.6 3.5 4.05 M6.75 6.7 L6.55 6.75 6.0 5.6 6.2 5.3 6.75 6.7" fill="#ffffff" fill-rule="evenodd" stroke="none"/>
  </g>
</svg>
