<?xml version="1.0" encoding="UTF-8" standalone="no"?>
<svg xmlns:xlink="http://www.w3.org/1999/xlink" height="61.55px" width="53.85px" xmlns="http://www.w3.org/2000/svg">
  <g transform="matrix(1.0, 0.0, 0.0, 1.0, 26.9, 30.75)">
    <path d="M3.2 -30.55 L4.05 -30.45 Q9.9 -29.75 14.55 -27.05 L15.2 -26.65 Q19.15 -24.3 20.2 -21.5 L19.35 -17.2 18.1 -10.1 Q19.65 -9.2 21.7 -6.65 24.35 -3.35 25.75 0.6 27.45 5.6 26.7 10.8 26.35 13.2 25.45 15.6 24.05 19.15 21.55 22.6 1.1 39.0 -20.9 22.6 -25.65 18.35 -26.65 12.9 -27.5 8.35 -25.7 3.25 -24.3 -0.7 -21.65 -4.45 -19.6 -7.35 -18.3 -8.25 L-19.35 -14.6 -20.25 -20.95 Q-15.4 -26.9 -8.5 -29.3 -4.75 -30.6 -0.65 -30.7 L3.2 -30.55 M-8.4 -11.0 Q-12.65 -12.3 -17.1 -8.6 -21.25 -5.2 -23.75 0.75 -25.3 4.45 -25.7 8.0 L-24.75 5.95 Q-21.7 -0.75 -19.7 -3.35 -17.55 -6.25 -15.35 -7.85 -12.9 -9.7 -10.9 -9.5 -9.35 -9.4 -7.75 -8.6 L-4.9 -6.9 -2.15 -5.0 Q-0.55 -4.05 0.85 -3.65 4.2 -2.7 8.0 -4.45 L11.0 -6.15 11.25 -6.3 13.75 -7.65 Q15.2 -8.35 16.35 -8.3 17.7 -8.3 18.9 -7.35 21.65 -5.25 24.35 2.35 25.65 6.05 25.6 11.3 L25.8 10.15 Q26.45 5.2 24.8 0.35 23.45 -3.5 20.95 -6.6 18.8 -9.25 17.35 -9.8 14.95 -10.7 12.15 -9.0 L11.7 -8.7 9.9 -7.4 Q8.45 -6.4 7.6 -5.95 4.7 -4.5 2.5 -4.65 L2.15 -4.7 Q0.6 -4.95 -1.0 -6.05 L-1.15 -6.15 -1.75 -6.6 -2.75 -7.4 -4.4 -8.75 Q-6.45 -10.4 -8.4 -11.0 M0.25 -29.95 L-0.65 -29.9 Q0.9 -19.75 -0.9 -11.05 L2.45 -11.1 3.1 -11.05 Q9.1 -10.9 11.65 -9.7 L11.95 -9.85 Q12.35 -18.25 15.05 -25.85 13.35 -27.15 11.3 -28.0 7.55 -29.65 3.15 -29.9 L0.25 -29.95 M-1.65 -7.3 L-0.95 -7.0 Q0.55 -6.35 2.25 -6.15 L2.8 -6.1 Q7.35 -5.85 10.85 -9.1 6.9 -10.4 2.4 -10.45 L-0.95 -10.3 -1.2 -10.3 -5.05 -9.8 Q-3.45 -8.2 -1.65 -7.3 M12.15 21.0 Q16.25 17.9 16.25 13.75 L16.05 12.05 Q15.3 8.6 11.5 6.05 6.75 2.85 0.1 2.85 -6.6 2.85 -11.3 6.05 -14.5 8.15 -15.5 10.9 -16.05 12.2 -16.05 13.75 -16.05 18.25 -11.3 21.45 L-9.55 22.5 Q-5.4 24.6 0.1 24.65 6.75 24.6 11.5 21.45 L12.15 21.0" fill="#000000" fill-rule="evenodd" stroke="none"/>
    <path d="M0.25 -29.95 L3.15 -29.9 Q7.55 -29.65 11.3 -28.0 13.35 -27.15 15.05 -25.85 12.35 -18.25 11.95 -9.85 L11.65 -9.7 Q9.1 -10.9 3.1 -11.05 L2.45 -11.1 -0.9 -11.05 Q0.9 -19.75 -0.65 -29.9 L0.25 -29.95 M-8.4 -11.0 Q-6.45 -10.4 -4.4 -8.75 L-2.75 -7.4 -1.75 -6.6 -1.15 -6.15 -1.0 -6.05 Q0.6 -4.95 2.15 -4.7 L2.5 -4.65 Q4.7 -4.5 7.6 -5.95 8.45 -6.4 9.9 -7.4 L11.7 -8.7 12.15 -9.0 Q14.95 -10.7 17.35 -9.8 18.8 -9.25 20.95 -6.6 23.45 -3.5 24.8 0.35 26.45 5.2 25.8 10.15 L25.6 11.3 Q25.65 6.05 24.35 2.35 21.65 -5.25 18.9 -7.35 17.7 -8.3 16.35 -8.3 15.2 -8.35 13.75 -7.65 L11.25 -6.3 11.0 -6.15 8.0 -4.45 Q4.2 -2.7 0.85 -3.65 -0.55 -4.05 -2.15 -5.0 L-4.9 -6.9 -7.75 -8.6 Q-9.35 -9.4 -10.9 -9.5 -12.9 -9.7 -15.35 -7.85 -17.55 -6.25 -19.7 -3.35 -21.7 -0.75 -24.75 5.95 L-25.7 8.0 Q-25.3 4.45 -23.75 0.75 -21.25 -5.2 -17.1 -8.6 -12.65 -12.3 -8.4 -11.0" fill="#00ccff" fill-rule="evenodd" stroke="none"/>
    <path d="M-1.2 -10.3 L-0.95 -10.3 2.4 -10.45 Q6.9 -10.4 10.85 -9.1 7.35 -5.85 2.8 -6.1 L2.25 -6.15 Q0.55 -6.35 -0.95 -7.0 L-1.65 -7.3 -1.2 -10.3" fill="#cc0000" fill-rule="evenodd" stroke="none"/>
    <path d="M-1.65 -7.3 Q-3.45 -8.2 -5.05 -9.8 L-1.2 -10.3 -1.65 -7.3" fill="#990000" fill-rule="evenodd" stroke="none"/>
    <path d="M12.15 21.0 L11.5 21.45 Q6.75 24.6 0.1 24.65 -5.4 24.6 -9.55 22.5 L-9.0 18.05 Q-4.9 20.05 0.45 20.1 6.75 20.05 11.35 17.25 L12.15 21.0" fill="#660000" fill-rule="evenodd" stroke="none"/>
    <path d="M-15.5 10.9 Q-14.5 8.15 -11.3 6.05 -6.6 2.85 0.1 2.85 6.75 2.85 11.5 6.05 15.3 8.6 16.05 12.05 15.0 14.75 11.85 16.9 L11.35 17.25 Q6.75 20.05 0.45 20.1 -4.9 20.05 -9.0 18.05 L-10.95 16.9 Q-14.8 14.3 -15.5 10.9" fill="#333333" fill-rule="evenodd" stroke="none"/>
    <path d="M16.05 12.05 L16.25 13.75 Q16.25 17.9 12.15 21.0 L11.35 17.25 11.85 16.9 Q15.0 14.75 16.05 12.05 M-9.55 22.5 L-11.3 21.45 Q-16.05 18.25 -16.05 13.75 -16.05 12.2 -15.5 10.9 -14.8 14.3 -10.95 16.9 L-9.0 18.05 -9.55 22.5" fill="#330000" fill-rule="evenodd" stroke="none"/>
  </g>
</svg>
