<?xml version="1.0" encoding="UTF-8" standalone="no"?>
<svg xmlns:xlink="http://www.w3.org/1999/xlink" height="72.7px" width="61.35px" xmlns="http://www.w3.org/2000/svg">
  <g transform="matrix(1.0, 0.0, 0.0, 1.0, 32.9, 57.5)">
    <path d="M25.95 -46.6 L24.95 -43.15 Q23.45 -39.35 20.65 -35.6 21.6 -33.8 27.15 -36.95 27.15 -35.2 25.5 -32.85 27.25 -31.05 28.05 -28.95 28.9 -26.5 28.05 -24.4 L24.45 -27.6 Q30.4 -17.6 23.65 -13.8 23.9 -16.0 22.05 -18.15 21.75 -16.1 20.5 -13.9 L17.85 -10.15 Q18.0 -12.65 16.75 -14.8 15.55 -16.9 13.65 -17.75 11.65 -18.7 9.9 -17.75 7.85 -16.75 6.75 -13.55 9.15 -12.0 10.9 -8.1 12.55 -4.5 13.1 0.05 13.7 4.65 12.9 8.45 12.05 12.5 9.8 14.4 8.05 14.35 6.7 13.05 5.7 12.1 4.6 10.2 L2.8 7.25 Q1.8 5.85 0.8 5.7 L-0.65 8.0 -2.2 10.95 Q-4.3 14.7 -5.85 15.05 -9.35 15.8 -11.5 12.5 -13.5 9.5 -13.8 4.15 -14.15 -1.15 -12.65 -6.35 -11.15 -11.95 -8.15 -15.15 -8.05 -16.9 -9.65 -17.8 -11.2 -18.65 -13.4 -18.25 -15.8 -17.85 -17.6 -16.15 -19.75 -14.2 -20.45 -11.0 -22.25 -10.9 -23.95 -14.25 L-25.1 -17.0 -25.65 -19.2 Q-27.3 -18.1 -27.8 -14.1 -29.75 -17.25 -30.3 -20.85 -30.9 -24.9 -29.3 -27.8 L-31.15 -26.55 -32.9 -25.1 Q-33.0 -27.3 -32.1 -29.4 -31.3 -31.45 -29.8 -33.1 -30.45 -36.35 -29.7 -38.95 -23.75 -32.0 -21.25 -36.0 -26.15 -40.3 -27.15 -45.85 L-27.4 -49.4 -21.0 -49.4 -21.0 -57.5 20.8 -57.5 20.8 -46.6 25.95 -46.6 M25.05 -31.9 L24.05 -33.15 Q25.75 -33.85 26.3 -36.0 25.0 -34.75 22.8 -34.3 20.35 -33.85 19.3 -35.2 19.1 -55.65 1.15 -56.95 -7.5 -57.6 -12.4 -52.85 -17.25 -48.3 -19.3 -37.7 -19.7 -35.6 -20.95 -34.55 -22.1 -33.6 -23.65 -33.65 -25.2 -33.75 -26.65 -34.65 -28.2 -35.6 -29.15 -37.15 -29.5 -34.45 -27.9 -33.15 -29.85 -32.75 -30.95 -30.6 L-31.7 -28.6 -32.25 -26.6 -31.25 -27.5 -29.8 -28.65 Q-27.85 -29.95 -27.0 -29.25 -29.45 -26.95 -29.75 -22.8 -30.05 -18.7 -28.1 -15.95 -28.0 -17.3 -26.95 -19.05 -25.8 -20.95 -24.6 -21.3 -25.2 -15.25 -21.0 -11.95 -20.8 -13.2 -19.85 -14.65 -18.95 -16.15 -17.6 -17.35 L-14.85 -19.3 Q-13.3 -20.0 -12.0 -19.7 L-10.4 -19.05 -7.15 -17.8 Q-2.0 -16.15 2.9 -16.35 4.15 -16.4 5.85 -17.05 L8.7 -18.25 Q10.35 -18.95 11.55 -19.05 13.1 -19.25 14.5 -18.55 16.45 -17.65 17.45 -15.65 18.3 -13.9 18.25 -11.55 20.6 -14.8 21.45 -20.5 24.1 -17.35 24.45 -15.45 25.9 -17.4 26.05 -19.25 26.2 -20.75 25.5 -22.55 L24.1 -25.6 Q23.25 -27.5 23.15 -28.9 L25.8 -27.75 Q27.2 -26.95 27.7 -25.75 28.35 -28.35 26.55 -30.45 L25.05 -31.9 M5.3 -7.5 Q4.75 -4.8 4.7 -2.7 2.4 0.2 -1.9 -1.15 -3.15 -1.6 -4.75 -2.45 L-6.25 -3.2 -6.8 -8.55 Q-7.2 -11.5 -7.85 -13.8 -9.75 -11.8 -11.1 -7.45 -12.45 -3.2 -12.65 1.3 -12.9 6.15 -11.65 9.35 -10.25 13.0 -7.15 13.6 -6.2 13.8 -4.85 12.4 L-2.3 9.1 0.55 5.4 Q2.25 3.5 3.8 3.0 L2.75 4.05 Q1.85 4.65 1.6 5.0 2.75 5.55 3.75 6.7 L5.3 8.95 6.75 11.3 Q7.65 12.5 8.7 13.2 10.6 13.05 11.5 9.7 12.35 6.55 12.0 2.0 11.65 -2.65 10.25 -6.45 8.7 -10.65 6.35 -12.25 L5.3 -7.5 M3.75 -3.2 Q4.1 -9.9 6.6 -16.2 0.6 -14.25 -7.45 -16.75 -5.5 -11.45 -5.4 -3.9 -0.8 -0.2 3.75 -3.2" fill="#000000" fill-rule="evenodd" stroke="none"/>
    <path d="M25.05 -31.9 L26.55 -30.45 Q28.35 -28.35 27.7 -25.75 27.2 -26.95 25.8 -27.75 L23.15 -28.9 Q23.25 -27.5 24.1 -25.6 L25.5 -22.55 Q26.2 -20.75 26.05 -19.25 25.9 -17.4 24.45 -15.45 24.1 -17.35 21.45 -20.5 20.6 -14.8 18.25 -11.55 18.3 -13.9 17.45 -15.65 16.45 -17.65 14.5 -18.55 13.1 -19.25 11.55 -19.05 10.35 -18.95 8.7 -18.25 L5.85 -17.05 Q4.15 -16.4 2.9 -16.35 -2.0 -16.15 -7.15 -17.8 L-10.4 -19.05 -12.0 -19.7 Q-13.3 -20.0 -14.85 -19.3 L-17.6 -17.35 Q-18.95 -16.15 -19.85 -14.65 -20.8 -13.2 -21.0 -11.95 -25.2 -15.25 -24.6 -21.3 -25.8 -20.95 -26.95 -19.05 -28.0 -17.3 -28.1 -15.95 -30.05 -18.7 -29.75 -22.8 -29.45 -26.95 -27.0 -29.25 -27.85 -29.95 -29.8 -28.65 L-31.25 -27.5 -32.25 -26.6 -31.7 -28.6 -30.95 -30.6 Q-29.85 -32.75 -27.9 -33.15 -29.5 -34.45 -29.15 -37.15 -28.2 -35.6 -26.65 -34.65 -25.2 -33.75 -23.65 -33.65 -22.1 -33.6 -20.95 -34.55 -19.7 -35.6 -19.3 -37.7 -17.25 -48.3 -12.4 -52.85 -7.5 -57.6 1.15 -56.95 19.1 -55.65 19.3 -35.2 20.35 -33.85 22.8 -34.3 25.0 -34.75 26.3 -36.0 25.75 -33.85 24.05 -33.15 L25.05 -31.9 M3.75 -3.2 Q-0.8 -0.2 -5.4 -3.9 -5.5 -11.45 -7.45 -16.75 0.6 -14.25 6.6 -16.2 4.1 -9.9 3.75 -3.2" fill="#ffffff" fill-rule="evenodd" stroke="none"/>
    <path d="M5.3 -7.5 L6.35 -12.25 Q8.7 -10.65 10.25 -6.45 11.65 -2.65 12.0 2.0 12.35 6.55 11.5 9.7 10.6 13.05 8.7 13.2 7.65 12.5 6.75 11.3 L5.3 8.95 3.75 6.7 Q2.75 5.55 1.6 5.0 1.85 4.65 2.75 4.05 L3.8 3.0 Q2.25 3.5 0.55 5.4 L-2.3 9.1 -4.85 12.4 Q-6.2 13.8 -7.15 13.6 -10.25 13.0 -11.65 9.35 -12.9 6.15 -12.65 1.3 -12.45 -3.2 -11.1 -7.45 -9.75 -11.8 -7.85 -13.8 -7.2 -11.5 -6.8 -8.55 L-6.25 -3.2 -4.75 -2.45 Q-3.15 -1.6 -1.9 -1.15 2.4 0.2 4.7 -2.7 4.75 -4.8 5.3 -7.5" fill="#990000" fill-rule="evenodd" stroke="none"/>
  </g>
</svg>
