<?xml version="1.0" encoding="UTF-8" standalone="no"?>
<svg xmlns:xlink="http://www.w3.org/1999/xlink" height="63.35px" width="48.45px" xmlns="http://www.w3.org/2000/svg">
  <g transform="matrix(1.0, 0.0, 0.0, 1.0, 24.2, 31.8)">
    <path d="M4.2 -25.35 Q4.9 -28.6 6.45 -30.35 8.1 -32.2 10.15 -31.7 12.25 -31.25 13.75 -28.6 15.2 -26.05 15.65 -22.2 L15.75 -21.6 15.8 -21.1 15.2 -23.8 14.25 -26.9 Q12.75 -30.55 10.3 -30.8 6.8 -31.2 4.4 -25.35 L4.0 -24.25 4.2 -25.35 M19.25 -5.55 L19.9 -5.0 21.85 -2.9 Q24.4 0.05 24.25 1.45 23.95 3.65 22.25 5.7 L20.55 7.35 18.8 9.0 Q21.65 12.75 20.45 14.35 19.35 15.7 14.75 15.55 L13.95 18.15 12.65 22.6 11.1 27.95 Q10.5 29.75 9.9 30.2 7.75 31.0 3.9 31.35 0.0 31.7 -2.85 31.45 -5.7 31.2 -7.25 28.45 L-13.55 16.05 -16.7 16.25 Q-17.9 15.85 -18.6 14.8 -19.35 13.75 -19.4 12.4 -19.5 11.0 -18.7 9.75 -19.25 8.9 -20.3 7.8 L-21.95 6.0 Q-23.65 3.85 -24.05 2.15 -24.45 0.6 -23.75 -0.8 -23.2 -2.0 -21.65 -3.5 L-19.3 -5.75 -18.55 -6.45 -21.5 -2.3 Q-18.8 -1.9 -14.3 2.05 -15.2 -0.5 -15.8 -4.1 -16.55 -8.3 -16.45 -11.95 -16.4 -16.4 -15.15 -19.25 -13.75 -22.6 -10.8 -23.55 -11.3 -23.95 -12.55 -24.4 L-10.1 -23.7 Q-0.3 -18.5 -2.0 -1.4 L-2.0 -1.15 Q-0.8 -1.95 0.25 -1.9 1.25 -1.85 2.4 -1.0 2.6 -1.3 2.45 -4.15 2.3 -7.9 2.55 -10.55 3.55 -20.3 10.75 -25.65 L9.75 -24.25 Q12.9 -22.15 14.85 -18.4 16.6 -15.0 17.05 -10.75 17.5 -6.75 16.7 -2.95 15.85 0.8 14.0 3.25 16.3 2.35 17.95 0.75 20.55 -1.45 21.8 -1.45 L20.15 -3.8 19.55 -4.6 19.4 -4.85 18.55 -6.05 19.25 -5.55 M-17.35 -20.15 L-17.35 -20.55 Q-17.6 -23.35 -16.75 -26.05 -15.8 -29.05 -14.05 -30.45 -12.2 -31.95 -10.25 -30.85 -8.2 -29.7 -6.6 -25.8 L-6.35 -25.25 -6.6 -25.25 Q-8.15 -29.2 -10.1 -30.15 -11.85 -31.0 -13.55 -29.5 -15.1 -28.15 -16.15 -25.35 -17.2 -22.6 -17.2 -19.7 L-17.3 -19.7 -17.35 -20.15 M9.25 -23.8 Q5.0 -20.3 3.65 -13.65 2.8 -9.65 2.8 -1.8 4.35 -3.85 6.2 -4.05 8.0 -4.35 9.5 -3.3 11.0 -2.3 11.7 -0.45 12.35 1.4 11.65 3.65 L13.3 3.7 Q15.15 1.9 16.0 -2.1 16.85 -6.1 16.5 -10.85 16.15 -15.6 14.1 -19.05 12.0 -22.55 9.25 -23.8 M5.55 -3.5 Q3.55 -2.75 2.85 -0.75 2.15 1.25 2.5 3.05 2.85 4.8 4.1 6.1 L7.2 6.8 7.45 6.85 7.8 6.95 8.1 7.0 9.0 6.85 Q9.75 6.5 10.35 5.35 11.85 2.5 11.35 0.05 10.85 -2.1 9.05 -3.1 7.3 -4.15 5.55 -3.5 M2.15 -0.55 Q1.4 -1.35 0.25 -1.4 -0.95 -1.5 -1.7 -0.55 -1.1 2.85 -2.55 6.15 -0.05 5.65 3.35 6.05 1.25 3.15 2.15 -0.55 M23.15 -0.05 L20.15 -0.1 17.55 1.9 Q15.8 3.35 14.7 3.9 13.0 4.75 11.5 4.2 L10.65 5.85 9.25 7.25 13.2 8.8 Q2.7 5.9 -2.35 6.75 -7.45 7.55 -9.55 8.3 L-12.65 9.4 Q-10.55 7.95 -8.75 7.4 L-11.45 5.2 -17.25 0.6 Q-20.85 -2.1 -22.85 -0.9 -24.9 0.25 -22.2 4.55 -19.5 8.8 -18.35 9.05 -17.05 7.6 -16.9 7.1 -18.2 3.8 -20.3 2.6 -20.8 3.3 -20.65 4.05 -21.05 3.6 -21.05 3.05 -21.05 2.5 -20.55 2.1 -20.1 1.65 -19.35 1.55 -18.65 1.4 -19.05 1.7 L-20.0 2.2 Q-17.55 3.5 -16.4 6.55 -15.8 6.25 -15.5 5.15 -15.7 6.95 -16.6 8.15 L-18.1 10.45 Q-19.0 12.45 -18.15 14.0 -17.2 15.65 -14.95 15.25 L-9.95 13.95 -5.85 12.75 -1.55 12.0 4.0 12.15 7.35 12.85 12.35 14.05 Q18.9 15.35 19.7 13.75 20.2 12.6 19.75 11.5 L18.3 9.65 16.55 7.8 Q15.8 6.8 16.05 5.4 16.1 6.35 16.8 7.1 17.35 5.7 18.75 4.4 L21.3 2.25 20.1 1.7 21.5 1.95 22.1 2.45 22.2 3.3 Q22.15 3.85 21.75 4.2 21.85 3.25 21.5 2.7 15.75 6.9 18.25 8.4 20.45 7.35 22.65 4.1 24.85 0.85 23.15 -0.05 M0.75 17.65 Q2.3 14.8 2.8 13.15 L-0.6 12.95 0.75 17.65 M8.05 13.9 Q5.3 13.2 3.55 13.25 3.1 16.0 0.25 19.15 L-0.2 17.55 -0.6 15.9 Q-1.15 13.9 -2.2 13.0 L-11.1 15.15 Q-11.1 17.0 -8.3 22.1 -5.45 27.2 -3.75 27.8 1.5 26.55 8.6 27.2 L10.7 21.1 12.55 14.95 8.05 13.9 M13.9 15.35 L13.5 15.15 11.3 21.95 Q9.6 27.25 9.1 27.75 L7.2 27.7 Q5.65 27.55 3.65 27.65 L-0.7 28.05 -3.5 28.55 -4.25 28.8 -6.35 26.2 -9.7 20.85 -12.3 15.4 -12.9 15.75 -8.95 23.85 Q-5.7 30.1 -4.45 30.45 L0.15 30.85 4.8 30.45 7.25 30.15 9.65 29.5 11.9 22.45 Q13.35 16.9 13.9 15.35 M-3.4 -14.4 Q-4.4 -17.9 -6.15 -20.1 -7.95 -22.3 -10.5 -23.15 -13.8 -22.25 -15.0 -18.0 -16.2 -13.8 -16.0 -8.75 -15.9 -4.2 -14.7 -0.6 L-13.8 2.3 -11.6 4.2 Q-12.3 1.2 -11.65 -0.5 -11.05 -2.25 -9.5 -3.25 -7.9 -4.3 -6.1 -4.0 -4.05 -3.65 -2.45 -1.55 -2.0 -4.1 -2.2 -7.5 -2.45 -10.95 -3.4 -14.4 M-3.95 -2.55 Q-5.3 -3.75 -7.0 -3.65 -8.8 -3.55 -10.2 -2.15 -11.3 -1.0 -11.55 0.75 -11.75 2.25 -11.25 3.85 -10.75 5.35 -9.85 6.3 -8.9 7.2 -7.95 7.1 L-3.25 6.15 Q-2.0 3.25 -2.25 0.85 -2.55 -1.3 -3.95 -2.55" fill="#000000" fill-rule="evenodd" stroke="none"/>
    <path d="M9.25 -23.8 Q12.0 -22.55 14.1 -19.05 16.15 -15.6 16.5 -10.85 16.85 -6.1 16.0 -2.1 15.15 1.9 13.3 3.7 L11.65 3.65 Q12.35 1.4 11.7 -0.45 11.0 -2.3 9.5 -3.3 8.0 -4.35 6.2 -4.05 4.35 -3.85 2.8 -1.8 2.8 -9.65 3.65 -13.65 5.0 -20.3 9.25 -23.8 M-3.4 -14.4 Q-2.45 -10.95 -2.2 -7.5 -2.0 -4.1 -2.45 -1.55 -4.05 -3.65 -6.1 -4.0 -7.9 -4.3 -9.5 -3.25 -11.05 -2.25 -11.65 -0.5 -12.3 1.2 -11.6 4.2 L-13.8 2.3 -14.7 -0.6 Q-15.9 -4.2 -16.0 -8.75 -16.2 -13.8 -15.0 -18.0 -13.8 -22.25 -10.5 -23.15 -7.95 -22.3 -6.15 -20.1 -4.4 -17.9 -3.4 -14.4" fill="#ccffff" fill-rule="evenodd" stroke="none"/>
    <path d="M4.2 -25.35 L4.0 -24.25 4.4 -25.35 Q6.8 -31.2 10.3 -30.8 12.75 -30.55 14.25 -26.9 L15.2 -23.8 15.8 -21.1 15.75 -21.6 Q17.0 -12.2 19.25 -5.55 L18.55 -6.05 19.4 -4.85 19.55 -4.6 20.15 -3.8 21.8 -1.45 Q20.55 -1.45 17.95 0.75 16.3 2.35 14.0 3.25 15.85 0.8 16.7 -2.95 17.5 -6.75 17.05 -10.75 16.6 -15.0 14.85 -18.4 12.9 -22.15 9.75 -24.25 L10.75 -25.65 Q3.55 -20.3 2.55 -10.55 2.3 -7.9 2.45 -4.15 2.6 -1.3 2.4 -1.0 1.25 -1.85 0.25 -1.9 -0.8 -1.95 -2.0 -1.15 L-2.0 -1.4 Q-0.3 -18.5 -10.1 -23.7 L-12.55 -24.4 Q-11.3 -23.95 -10.8 -23.55 -13.75 -22.6 -15.15 -19.25 -16.4 -16.4 -16.45 -11.95 -16.55 -8.3 -15.8 -4.1 -15.2 -0.5 -14.3 2.05 -18.8 -1.9 -21.5 -2.3 L-18.55 -6.45 -19.3 -5.75 Q-17.15 -10.9 -17.35 -20.15 L-17.3 -19.7 -17.2 -19.7 Q-17.2 -22.6 -16.15 -25.35 -15.1 -28.15 -13.55 -29.5 -11.85 -31.0 -10.1 -30.15 -8.15 -29.2 -6.6 -25.25 L-6.35 -25.25 -6.6 -25.8 Q0.2 -16.45 4.2 -25.35 M5.55 -3.5 Q7.3 -4.15 9.05 -3.1 10.85 -2.1 11.35 0.05 11.85 2.5 10.35 5.35 9.75 6.5 9.0 6.85 L8.1 7.0 7.8 6.95 7.45 6.85 7.2 6.8 4.1 6.1 Q2.85 4.8 2.5 3.05 2.15 1.25 2.85 -0.75 3.55 -2.75 5.55 -3.5 M-3.95 -2.55 Q-2.55 -1.3 -2.25 0.85 -2.0 3.25 -3.25 6.15 L-7.95 7.1 Q-8.9 7.2 -9.85 6.3 -10.75 5.35 -11.25 3.85 -11.75 2.25 -11.55 0.75 -11.3 -1.0 -10.2 -2.15 -8.8 -3.55 -7.0 -3.65 -5.3 -3.75 -3.95 -2.55" fill="#ffffff" fill-rule="evenodd" stroke="none"/>
    <path d="M2.15 -0.55 Q1.25 3.15 3.35 6.05 -0.05 5.65 -2.55 6.15 -1.1 2.85 -1.7 -0.55 -0.95 -1.5 0.25 -1.4 1.4 -1.35 2.15 -0.55 M23.15 -0.05 Q24.85 0.85 22.65 4.1 20.45 7.35 18.25 8.4 15.75 6.9 21.5 2.7 21.85 3.25 21.75 4.2 22.15 3.85 22.2 3.3 L22.1 2.45 21.5 1.95 20.1 1.7 21.3 2.25 18.75 4.4 Q17.35 5.7 16.8 7.1 16.1 6.35 16.05 5.4 15.8 6.8 16.55 7.8 L18.3 9.65 19.75 11.5 Q20.2 12.6 19.7 13.75 18.9 15.35 12.35 14.05 L7.35 12.85 4.0 12.15 -1.55 12.0 -5.85 12.75 -9.95 13.95 -14.95 15.25 Q-17.2 15.65 -18.15 14.0 -19.0 12.45 -18.1 10.45 L-16.6 8.15 Q-15.7 6.95 -15.5 5.15 -15.8 6.25 -16.4 6.55 -17.55 3.5 -20.0 2.2 L-19.05 1.7 Q-18.65 1.4 -19.35 1.55 -20.1 1.65 -20.55 2.1 -21.05 2.5 -21.05 3.05 -21.05 3.6 -20.65 4.05 -20.8 3.3 -20.3 2.6 -18.2 3.8 -16.9 7.1 -17.05 7.6 -18.35 9.05 -19.5 8.8 -22.2 4.55 -24.9 0.25 -22.85 -0.9 -20.85 -2.1 -17.25 0.6 L-11.45 5.2 -8.75 7.4 Q-10.55 7.95 -12.65 9.4 L-9.55 8.3 Q-7.45 7.55 -2.35 6.75 2.7 5.9 13.2 8.8 L9.25 7.25 10.65 5.85 11.5 4.2 Q13.0 4.75 14.7 3.9 15.8 3.35 17.55 1.9 L20.15 -0.1 23.15 -0.05 M13.9 15.35 Q13.35 16.9 11.9 22.45 L9.65 29.5 7.25 30.15 4.8 30.45 0.15 30.85 -4.45 30.45 Q-5.7 30.1 -8.95 23.85 L-12.9 15.75 -12.3 15.4 -9.7 20.85 -6.35 26.2 -4.25 28.8 -3.5 28.55 -0.7 28.05 3.65 27.65 Q5.65 27.55 7.2 27.7 L9.1 27.75 Q9.6 27.25 11.3 21.95 L13.5 15.15 13.9 15.35" fill="#ffcc00" fill-rule="evenodd" stroke="none"/>
    <path d="M8.05 13.9 L12.55 14.95 10.7 21.1 8.6 27.2 Q1.5 26.55 -3.75 27.8 -5.45 27.2 -8.3 22.1 -11.1 17.0 -11.1 15.15 L-2.2 13.0 Q-1.15 13.9 -0.6 15.9 L-0.2 17.55 0.25 19.15 Q3.1 16.0 3.55 13.25 5.3 13.2 8.05 13.9" fill="#ff6666" fill-rule="evenodd" stroke="none"/>
    <path d="M0.75 17.65 L-0.6 12.95 2.8 13.15 Q2.3 14.8 0.75 17.65" fill="#ff3333" fill-rule="evenodd" stroke="none"/>
  </g>
</svg>
