<?xml version="1.0" encoding="UTF-8" standalone="no"?>
<svg xmlns:xlink="http://www.w3.org/1999/xlink" height="50.2px" width="46.95px" xmlns="http://www.w3.org/2000/svg">
  <g transform="matrix(1.0, 0.0, 0.0, 1.0, 23.45, 25.05)">
    <path d="M4.65 -17.45 Q5.1 -20.5 6.75 -22.6 8.55 -24.95 10.75 -25.05 13.05 -25.15 14.6 -22.7 16.1 -20.25 16.4 -15.85 L16.45 -14.8 16.45 -14.5 15.8 -17.9 15.0 -20.9 Q14.4 -22.3 13.3 -23.0 12.0 -23.9 9.8 -24.0 7.75 -23.1 6.4 -20.85 5.8 -19.9 4.85 -17.4 L4.5 -16.5 4.65 -17.45 M19.1 4.3 Q20.05 4.75 21.05 6.0 22.15 7.4 22.85 9.1 23.5 10.95 23.5 12.55 23.4 14.25 22.4 15.3 21.8 15.85 20.7 16.15 L18.85 16.75 Q19.65 17.15 20.15 18.15 20.6 19.1 20.45 20.1 20.25 21.15 19.3 21.7 18.2 22.35 16.3 22.15 L15.5 23.8 14.05 24.95 10.95 25.0 7.7 24.4 2.3 23.75 -4.5 23.95 -10.95 24.35 Q-12.2 24.3 -13.25 23.6 -14.45 22.8 -14.85 21.75 L-17.55 21.45 Q-18.65 20.9 -19.15 19.8 -19.7 18.7 -19.45 17.55 -19.2 16.25 -18.2 15.4 L-20.7 14.65 Q-22.15 14.15 -22.8 13.2 -23.6 12.2 -23.45 10.55 -23.35 9.05 -22.6 7.35 -21.9 5.75 -20.8 4.45 -19.9 3.3 -19.0 2.75 L-18.65 2.55 -20.35 4.8 Q-21.35 6.2 -21.7 7.3 -18.75 5.85 -13.7 8.5 -14.5 5.7 -14.95 2.3 -15.55 -1.9 -15.35 -5.45 -14.95 -15.05 -9.45 -16.8 L-11.55 -18.1 Q-7.7 -17.05 -5.55 -14.6 -3.7 -12.35 -2.6 -9.4 -1.55 -6.45 -1.25 -3.35 -0.95 -0.3 -1.15 2.5 L-1.35 4.6 -1.6 6.6 2.7 6.75 3.05 5.85 3.1 3.45 Q3.0 -0.75 3.35 -3.4 4.45 -13.35 12.05 -18.7 L10.6 -17.1 Q13.55 -15.0 15.3 -11.5 16.9 -8.35 17.3 -4.4 17.65 -0.7 16.9 3.15 16.1 6.9 14.4 9.95 L17.85 9.05 21.4 8.9 Q21.45 7.75 20.45 6.35 L19.55 5.25 19.15 4.7 18.75 4.15 19.1 4.3 M-16.15 -12.95 L-16.2 -12.75 Q-16.35 -17.35 -14.95 -20.55 -13.7 -23.5 -11.6 -24.4 -9.6 -25.3 -7.7 -23.85 -5.8 -22.3 -4.85 -18.65 L-4.8 -18.45 -4.95 -18.65 -5.8 -20.15 -6.8 -21.8 Q-8.05 -23.6 -10.05 -23.65 -13.3 -23.75 -15.0 -18.35 L-15.85 -14.55 -15.95 -14.2 -16.15 -12.95 M16.75 -0.45 Q17.1 -6.65 15.45 -9.95 13.8 -13.3 12.8 -14.5 11.7 -15.75 10.1 -16.6 6.0 -13.0 4.6 -7.2 3.2 -1.5 3.7 4.7 L3.7 4.85 4.65 3.65 Q5.4 2.9 6.35 2.65 L6.65 2.6 7.35 2.5 7.4 2.5 7.7 2.5 8.85 2.7 9.65 2.95 9.8 3.05 Q11.2 3.75 12.0 5.3 L12.25 5.85 Q12.7 6.9 12.8 8.15 L12.75 9.55 12.8 10.2 13.6 10.05 Q16.35 5.7 16.75 -0.45 M20.4 15.35 Q21.6 14.65 22.25 13.55 23.0 12.35 22.8 11.15 22.65 10.0 21.35 9.75 L18.35 9.85 15.05 10.55 12.65 10.85 Q12.25 11.95 11.45 12.9 L9.55 14.4 Q11.9 15.15 12.85 16.0 L12.8 16.05 Q8.3 14.4 0.95 14.25 -6.45 14.0 -11.35 15.4 -10.75 14.9 -9.5 14.65 L-7.75 14.15 -7.6 14.1 -8.95 13.65 -10.15 12.8 Q-11.1 11.9 -11.65 10.25 L-14.0 9.3 -16.8 8.1 Q-20.35 6.75 -21.95 9.05 -23.6 11.35 -22.0 12.9 -20.45 14.4 -18.85 14.6 L-17.25 14.8 -16.0 13.9 Q-17.75 11.5 -20.25 11.4 L-20.2 12.05 Q-20.15 12.45 -20.25 12.65 -21.0 11.9 -20.6 10.85 -20.2 9.75 -18.95 9.45 -19.85 10.05 -20.0 10.85 -16.6 11.15 -15.45 13.2 -15.15 12.65 -15.35 11.3 -14.15 12.9 -14.75 13.7 L-16.6 15.5 -18.3 17.15 Q-19.0 18.15 -18.5 19.25 -17.95 20.5 -16.5 21.0 -6.55 18.8 0.5 18.65 9.7 18.45 17.1 21.5 18.75 21.25 19.1 20.55 19.7 19.25 18.85 18.25 L16.8 16.65 Q14.7 13.95 15.95 12.35 15.7 13.25 16.05 13.85 17.1 12.9 17.7 12.6 18.85 11.95 20.05 12.25 L19.5 10.9 Q20.65 11.9 20.55 12.9 20.4 13.9 19.75 14.2 L20.15 12.75 Q16.95 12.75 16.65 14.9 16.85 16.0 18.05 16.0 19.2 16.0 20.4 15.35 M11.6 6.2 L11.4 5.7 Q10.65 4.3 9.4 3.7 L9.25 3.6 Q8.25 3.05 7.25 3.2 L7.2 3.2 Q6.05 3.25 5.0 4.05 3.3 5.35 2.85 7.6 2.4 9.65 3.2 11.4 L3.3 11.65 Q4.2 13.15 5.65 13.75 L6.3 13.95 8.1 14.0 8.25 13.95 9.85 13.25 10.05 13.1 Q11.4 12.1 11.85 10.4 L12.0 9.8 12.05 8.3 Q12.0 7.15 11.6 6.2 M0.2 22.8 L7.35 23.6 13.65 24.05 14.7 23.15 15.1 21.8 Q8.8 19.5 0.7 19.6 -6.45 19.65 -13.9 21.5 L-12.45 22.9 Q-11.65 23.5 -10.65 23.5 L-5.2 23.1 0.2 22.8 M3.3 12.3 L3.15 12.15 3.05 11.9 2.9 11.6 2.8 11.45 2.6 10.85 Q2.0 9.05 2.5 7.5 L-1.3 7.6 -1.25 8.65 Q-1.3 10.2 -1.85 11.4 -2.35 12.55 -3.35 13.4 L0.6 13.15 4.25 13.45 3.3 12.3 M-13.75 -11.25 Q-14.95 -7.3 -14.9 -2.65 -14.85 2.0 -14.0 5.45 -13.3 8.25 -12.2 9.15 L-11.65 9.25 -11.7 8.45 -11.7 8.3 -11.7 7.7 -11.6 6.7 -11.2 5.45 -10.5 4.2 -10.3 3.95 -10.15 3.8 -8.8 2.7 -8.15 2.45 -8.1 2.45 -7.8 2.4 -6.6 2.3 -5.8 2.4 -5.65 2.45 Q-4.1 2.8 -2.95 4.15 L-2.6 4.6 -2.0 5.55 Q-0.15 -12.15 -9.1 -16.6 -12.6 -15.25 -13.75 -11.25 M-7.8 3.2 L-8.1 3.25 Q-9.2 3.6 -10.05 4.65 -11.35 6.25 -11.3 8.55 L-11.2 9.45 Q-11.0 11.0 -10.05 12.2 L-9.9 12.4 Q-8.45 13.95 -6.45 13.95 -5.5 13.95 -4.65 13.55 L-4.55 13.5 Q-3.7 13.15 -3.0 12.25 -1.95 10.95 -1.85 9.2 -1.7 8.2 -2.15 7.1 -2.55 5.75 -3.4 4.75 -4.45 3.55 -5.85 3.25 L-7.8 3.2" fill="#000000" fill-rule="evenodd" stroke="none"/>
    <path d="M20.4 15.35 Q19.2 16.0 18.05 16.0 16.85 16.0 16.65 14.9 16.95 12.75 20.15 12.75 L19.75 14.2 Q20.4 13.9 20.55 12.9 20.65 11.9 19.5 10.9 L20.05 12.25 Q18.85 11.95 17.7 12.6 17.1 12.9 16.05 13.85 15.7 13.25 15.95 12.35 14.7 13.95 16.8 16.65 L18.85 18.25 Q19.7 19.25 19.1 20.55 18.75 21.25 17.1 21.5 9.7 18.45 0.5 18.65 -6.55 18.8 -16.5 21.0 -17.95 20.5 -18.5 19.25 -19.0 18.15 -18.3 17.15 L-16.6 15.5 -14.75 13.7 Q-14.15 12.9 -15.35 11.3 -15.15 12.65 -15.45 13.2 -16.6 11.15 -20.0 10.85 -19.85 10.05 -18.95 9.45 -20.2 9.75 -20.6 10.85 -21.0 11.9 -20.25 12.65 -20.15 12.45 -20.2 12.05 L-20.25 11.4 Q-17.75 11.5 -16.0 13.9 L-17.25 14.8 -18.85 14.6 Q-20.45 14.4 -22.0 12.9 -23.6 11.35 -21.95 9.05 -20.35 6.75 -16.8 8.1 L-14.0 9.3 -11.65 10.25 Q-11.1 11.9 -10.15 12.8 L-8.95 13.65 -7.6 14.1 -7.75 14.15 -9.5 14.65 Q-10.75 14.9 -11.35 15.4 -6.45 14.0 0.95 14.25 8.3 14.4 12.8 16.05 L12.85 16.0 Q11.9 15.15 9.55 14.4 L11.45 12.9 Q12.25 11.95 12.65 10.85 L15.05 10.55 18.35 9.85 21.35 9.75 Q22.65 10.0 22.8 11.15 23.0 12.35 22.25 13.55 21.6 14.65 20.4 15.35 M3.3 12.3 L4.25 13.45 0.6 13.15 -3.35 13.4 Q-2.35 12.55 -1.85 11.4 -1.3 10.2 -1.25 8.65 L-1.3 7.6 2.5 7.5 Q2.0 9.05 2.6 10.85 L2.8 11.45 2.9 11.6 3.05 11.9 3.15 12.15 3.3 12.3 M0.2 22.8 L-5.2 23.1 -10.65 23.5 Q-11.65 23.5 -12.45 22.9 L-13.9 21.5 Q-6.45 19.65 0.7 19.6 8.8 19.5 15.1 21.8 L14.7 23.15 13.65 24.05 7.35 23.6 0.2 22.8" fill="#ffcc00" fill-rule="evenodd" stroke="none"/>
    <path d="M16.75 -0.45 Q16.35 5.7 13.6 10.05 L12.8 10.2 12.75 9.55 12.8 8.15 Q12.7 6.9 12.25 5.85 L12.0 5.3 Q11.2 3.75 9.8 3.05 L9.65 2.95 8.85 2.7 7.7 2.5 7.4 2.5 7.35 2.5 6.65 2.6 6.35 2.65 Q5.4 2.9 4.65 3.65 L3.7 4.85 3.7 4.7 Q3.2 -1.5 4.6 -7.2 6.0 -13.0 10.1 -16.6 11.7 -15.75 12.8 -14.5 13.8 -13.3 15.45 -9.95 17.1 -6.65 16.75 -0.45 M-13.75 -11.25 Q-12.6 -15.25 -9.1 -16.6 -0.15 -12.15 -2.0 5.55 L-2.6 4.6 -2.95 4.15 Q-4.1 2.8 -5.65 2.45 L-5.8 2.4 -6.6 2.3 -7.8 2.4 -8.1 2.45 -8.15 2.45 -8.8 2.7 -10.15 3.8 -10.3 3.95 -10.5 4.2 -11.2 5.45 -11.6 6.7 -11.7 7.7 -11.7 8.3 -11.7 8.45 -11.65 9.25 -12.2 9.15 Q-13.3 8.25 -14.0 5.45 -14.85 2.0 -14.9 -2.65 -14.95 -7.3 -13.75 -11.25" fill="#ccffff" fill-rule="evenodd" stroke="none"/>
    <path d="M4.65 -17.45 L4.5 -16.5 4.85 -17.4 Q5.8 -19.9 6.4 -20.85 7.75 -23.1 9.8 -24.0 12.0 -23.9 13.3 -23.0 14.4 -22.3 15.0 -20.9 L15.8 -17.9 16.45 -14.5 16.45 -14.8 19.1 4.3 18.75 4.15 19.15 4.7 19.55 5.25 20.45 6.35 Q21.45 7.75 21.4 8.9 L17.85 9.05 14.4 9.95 Q16.1 6.9 16.9 3.15 17.65 -0.7 17.3 -4.4 16.9 -8.35 15.3 -11.5 13.55 -15.0 10.6 -17.1 L12.05 -18.7 Q4.45 -13.35 3.35 -3.4 3.0 -0.75 3.1 3.45 L3.05 5.85 2.7 6.75 -1.6 6.6 -1.35 4.6 -1.15 2.5 Q-0.95 -0.3 -1.25 -3.35 -1.55 -6.45 -2.6 -9.4 -3.7 -12.35 -5.55 -14.6 -7.7 -17.05 -11.55 -18.1 L-9.45 -16.8 Q-14.95 -15.05 -15.35 -5.45 -15.55 -1.9 -14.95 2.3 -14.5 5.7 -13.7 8.5 -18.75 5.85 -21.7 7.3 -21.35 6.2 -20.35 4.8 L-18.65 2.55 -19.0 2.75 Q-15.55 -3.05 -16.15 -12.95 L-15.95 -14.2 -15.85 -14.55 -15.0 -18.35 Q-13.3 -23.75 -10.05 -23.65 -8.05 -23.6 -6.8 -21.8 L-5.8 -20.15 -4.95 -18.65 -4.8 -18.45 -4.85 -18.65 Q0.6 -9.65 4.65 -17.45 M11.6 6.2 Q12.0 7.15 12.05 8.3 L12.0 9.8 11.85 10.4 Q11.4 12.1 10.05 13.1 L9.85 13.25 8.25 13.95 8.1 14.0 6.3 13.95 5.65 13.75 Q4.2 13.15 3.3 11.65 L3.2 11.4 Q2.4 9.65 2.85 7.6 3.3 5.35 5.0 4.05 6.05 3.25 7.2 3.2 L7.25 3.2 Q8.25 3.05 9.25 3.6 L9.4 3.7 Q10.65 4.3 11.4 5.7 L11.6 6.2 M-7.8 3.2 L-5.85 3.25 Q-4.45 3.55 -3.4 4.75 -2.55 5.75 -2.15 7.1 -1.7 8.2 -1.85 9.2 -1.95 10.95 -3.0 12.25 -3.7 13.15 -4.55 13.5 L-4.65 13.55 Q-5.5 13.95 -6.45 13.95 -8.45 13.95 -9.9 12.4 L-10.05 12.2 Q-11.0 11.0 -11.2 9.45 L-11.3 8.55 Q-11.35 6.25 -10.05 4.65 -9.2 3.6 -8.1 3.25 L-7.8 3.2" fill="#ffffff" fill-rule="evenodd" stroke="none"/>
  </g>
</svg>
