<?xml version="1.0" encoding="UTF-8" standalone="no"?>
<svg xmlns:xlink="http://www.w3.org/1999/xlink" height="53.3px" width="66.85px" xmlns="http://www.w3.org/2000/svg">
  <g transform="matrix(1.0, 0.0, 0.0, 1.0, 9.2, 18.0)">
    <path d="M-2.8 -3.5 L-1.85 -4.55 Q11.3 0.35 20.3 5.5 L20.85 5.85 Q22.4 5.45 22.6 6.85 L23.05 7.15 23.5 7.4 23.95 4.0 24.3 0.2 Q24.8 -4.6 25.75 -7.35 27.0 -11.2 29.5 -12.9 32.0 -14.6 38.2 -14.8 L39.65 -15.1 Q40.05 -15.15 41.8 -16.1 43.5 -17.15 45.35 -17.8 47.2 -18.45 49.0 -17.15 50.8 -15.95 51.55 -14.5 52.1 -13.5 52.7 -11.05 L53.2 -9.2 Q54.2 -6.75 55.85 -5.25 57.45 -3.75 57.65 -0.1 57.8 3.55 52.85 11.25 L49.1 16.65 Q48.95 17.5 47.8 19.65 46.65 21.85 45.15 23.2 L43.4 24.6 Q43.15 24.6 42.6 25.0 L39.45 28.5 36.65 30.6 33.35 32.5 Q29.35 34.55 26.5 35.1 24.05 35.5 21.6 35.05 18.8 34.5 17.25 32.95 16.15 31.8 15.85 30.65 15.6 29.75 15.7 28.4 15.8 27.0 16.9 24.2 L15.15 21.8 14.8 21.35 Q13.5 21.4 13.15 19.6 L12.8 18.95 Q10.35 16.1 7.5 13.55 L6.5 12.65 Q0.55 7.5 -9.2 2.75 L-8.75 2.0 Q0.65 6.75 6.75 11.7 L8.35 13.05 13.25 17.85 Q13.1 14.35 14.3 11.75 15.8 8.35 19.7 6.55 12.95 2.4 8.75 0.5 4.0 -1.7 -2.8 -3.5 M25.55 -1.8 Q25.15 0.1 24.45 6.0 L24.15 8.05 26.0 8.05 26.95 0.4 Q27.5 -6.85 27.95 -9.45 26.35 -6.2 25.55 -1.8 M36.95 -13.85 L33.35 -13.45 Q29.0 -12.7 28.45 -9.9 L28.15 -6.3 Q27.4 2.75 26.45 8.2 41.75 10.0 48.6 16.5 51.4 12.7 53.55 8.9 56.15 4.3 56.65 1.3 57.1 -1.75 56.25 -3.05 L54.45 -5.3 Q53.5 -6.25 53.0 -7.4 L51.95 -10.05 51.2 -12.5 Q50.15 -15.55 48.7 -16.45 46.85 -17.55 44.25 -16.4 L42.15 -15.3 Q40.8 -14.6 40.05 -14.35 L36.95 -13.85 M47.8 17.6 Q40.8 11.3 26.3 9.05 25.5 12.9 24.65 14.75 L23.65 16.8 Q36.2 18.4 42.6 23.75 45.6 21.95 46.65 19.95 L47.8 17.6 M22.8 8.3 Q19.8 10.2 17.9 13.05 16.0 15.8 15.7 20.8 L17.7 23.5 20.85 18.45 21.9 15.95 Q21.65 12.2 23.25 9.05 L23.35 8.9 22.8 8.3 M20.3 6.95 Q16.85 9.05 15.25 11.85 13.6 14.9 13.85 18.55 13.8 20.85 15.05 20.35 14.85 15.85 16.9 12.9 18.9 9.95 22.15 7.65 22.25 6.15 20.3 6.95 M22.85 11.85 Q22.45 13.4 22.5 16.25 L23.05 16.55 25.25 11.05 25.85 8.85 24.15 8.85 Q23.25 10.25 22.85 11.85 M22.55 17.55 L22.15 17.1 19.8 21.95 18.55 23.6 Q17.35 25.1 16.6 27.1 15.9 29.05 17.7 31.85 19.45 34.6 24.1 34.25 28.7 33.85 32.6 31.9 L36.95 29.15 40.15 26.35 41.75 24.7 Q35.05 19.65 23.2 17.8 L18.45 27.7 20.9 21.25 22.55 17.55" fill="#000000" fill-rule="evenodd" stroke="none"/>
    <path d="M-2.8 -3.5 Q4.0 -1.7 8.75 0.5 12.95 2.4 19.7 6.55 15.8 8.35 14.3 11.75 13.1 14.35 13.25 17.85 L8.35 13.05 6.75 11.7 Q0.65 6.75 -8.75 2.0 -9.5 -4.2 -2.8 -3.5 M36.95 -13.85 L40.05 -14.35 Q40.8 -14.6 42.15 -15.3 L44.25 -16.4 Q46.85 -17.55 48.7 -16.45 50.15 -15.55 51.2 -12.5 L51.95 -10.05 53.0 -7.4 Q53.5 -6.25 54.45 -5.3 L56.25 -3.05 Q57.1 -1.75 56.65 1.3 56.15 4.3 53.55 8.9 51.4 12.7 48.6 16.5 41.75 10.0 26.45 8.2 27.4 2.75 28.15 -6.3 L28.45 -9.9 Q29.0 -12.7 33.35 -13.45 L36.95 -13.85 M25.55 -1.8 Q26.35 -6.2 27.95 -9.45 27.5 -6.85 26.95 0.4 L26.0 8.05 24.15 8.05 24.45 6.0 Q25.15 0.1 25.55 -1.8 M22.55 17.55 L20.9 21.25 18.45 27.7 23.2 17.8 Q35.05 19.65 41.75 24.7 L40.15 26.35 36.95 29.15 32.6 31.9 Q28.7 33.85 24.1 34.25 19.45 34.6 17.7 31.85 15.9 29.05 16.6 27.1 17.35 25.1 18.55 23.6 L19.8 21.95 22.15 17.1 22.55 17.55" fill="#ffcc00" fill-rule="evenodd" stroke="none"/>
    <path d="M22.85 11.85 Q23.25 10.25 24.15 8.85 L25.85 8.85 25.25 11.05 23.05 16.55 22.5 16.25 Q22.45 13.4 22.85 11.85 M20.3 6.95 Q22.25 6.15 22.15 7.65 18.9 9.95 16.9 12.9 14.85 15.85 15.05 20.35 13.8 20.85 13.85 18.55 13.6 14.9 15.25 11.85 16.85 9.05 20.3 6.95 M22.8 8.3 L23.35 8.9 23.25 9.05 Q21.65 12.2 21.9 15.95 L20.85 18.45 17.7 23.5 15.7 20.8 Q16.0 15.8 17.9 13.05 19.8 10.2 22.8 8.3 M47.8 17.6 L46.65 19.95 Q45.6 21.95 42.6 23.75 36.2 18.4 23.65 16.8 L24.65 14.75 Q25.5 12.9 26.3 9.05 40.8 11.3 47.8 17.6" fill="#990000" fill-rule="evenodd" stroke="none"/>
  </g>
</svg>
