<?xml version="1.0" encoding="UTF-8" standalone="no"?>
<svg xmlns:xlink="http://www.w3.org/1999/xlink" height="47.4px" width="58.8px" xmlns="http://www.w3.org/2000/svg">
  <g transform="matrix(1.0, 0.0, 0.0, 1.0, 47.05, 22.45)">
    <path d="M0.45 -3.75 Q-0.15 -3.85 -0.9 -4.3 -2.1 -4.9 -2.5 -5.25 -2.95 -3.2 -5.65 -1.9 -7.25 -1.2 -9.55 -1.05 L-10.9 -1.05 -11.05 -1.1 -11.45 -1.15 -11.95 -1.25 Q-12.9 -1.5 -13.65 -1.95 L-15.05 -2.95 -15.75 -3.0 Q-18.75 -3.0 -20.9 -0.85 -23.05 1.35 -23.05 4.5 -23.05 7.45 -21.1 9.55 L-19.2 10.45 -18.4 10.75 -17.0 11.2 -16.45 11.35 -14.2 11.8 -11.55 12.05 Q-7.85 12.15 -3.2 10.2 2.5 6.1 3.55 4.25 4.5 2.55 4.7 2.6 L1.95 -0.45 Q1.05 -1.8 0.45 -3.75 M0.2 -5.6 L0.7 -7.95 0.75 -7.95 1.2 -4.55 Q2.7 2.5 11.55 2.85 L9.0 3.25 5.95 3.1 Q7.1 4.45 8.8 5.05 L10.3 5.45 11.75 5.8 11.75 5.85 10.05 5.75 8.2 5.55 Q6.15 5.15 5.45 3.7 1.05 9.1 -3.3 11.4 -7.65 13.5 -15.0 12.95 L-15.2 15.0 -15.35 16.25 -16.0 16.1 Q-16.4 18.4 -16.95 19.6 -17.5 22.0 -20.9 22.55 L-22.45 22.05 Q-24.15 21.9 -25.3 22.6 L-26.95 23.65 -28.55 24.5 -32.15 24.6 Q-33.15 24.15 -34.15 23.3 L-35.75 21.75 Q-36.65 20.8 -37.45 20.45 -38.5 19.9 -39.75 20.0 L-43.3 19.65 Q-45.0 19.05 -45.95 17.3 -47.9 13.7 -46.35 7.75 L-46.85 7.6 -46.45 6.15 -45.8 4.35 Q-42.85 -3.25 -36.6 -10.75 -30.35 -18.25 -24.5 -21.1 -21.5 -22.65 -19.1 -22.4 -16.6 -22.2 -15.1 -20.0 -13.15 -17.15 -13.5 -11.9 L-13.9 -7.55 -14.1 -4.65 -12.8 -3.55 -11.7 -2.2 Q-9.95 -1.7 -8.1 -2.15 -4.95 -2.95 -3.2 -5.95 -4.4 -7.1 -4.95 -8.45 -5.35 -9.25 -5.35 -9.95 L-3.55 -7.3 Q-2.05 -5.25 0.2 -5.6 M-24.75 -3.55 Q-22.25 -6.05 -18.75 -6.05 L-16.5 -5.75 Q-16.9 -7.95 -16.25 -9.7 -16.55 -7.8 -15.35 -5.35 L-15.1 -4.9 -15.1 -5.25 -14.6 -9.45 Q-14.3 -11.75 -14.25 -14.3 -14.2 -16.85 -15.55 -19.25 -16.95 -21.65 -18.95 -21.75 -21.0 -21.9 -23.6 -20.6 -28.8 -18.05 -34.95 -11.3 -41.15 -4.55 -44.35 3.35 L-45.9 6.45 Q-32.6 14.25 -15.9 14.9 -15.6 13.95 -15.85 12.7 -18.45 12.05 -20.3 11.2 -22.85 10.75 -24.75 8.8 -27.2 6.25 -27.2 2.65 L-27.05 0.8 -26.6 -1.9 -26.5 -0.9 Q-25.9 -2.35 -24.75 -3.55 M-16.25 -4.7 L-18.45 -5.0 Q-21.65 -5.0 -23.9 -2.7 -25.85 -0.7 -26.1 2.1 L-26.1 2.9 Q-26.1 6.15 -23.9 8.4 -22.25 10.1 -20.05 10.55 -21.1 10.05 -21.95 9.15 L-22.35 8.7 Q-24.1 6.65 -24.1 3.9 -24.1 0.75 -21.95 -1.45 -19.8 -3.6 -16.8 -3.6 L-15.55 -3.5 Q-14.05 -3.25 -12.8 -2.4 L-13.1 -2.7 -13.25 -2.85 -14.1 -3.6 Q-15.1 -4.35 -16.25 -4.7 M-16.95 16.0 Q-24.9 15.85 -32.0 13.9 L-35.5 12.8 Q-40.7 10.85 -45.4 7.85 L-45.5 8.15 Q-46.55 12.5 -45.5 15.05 -44.05 18.8 -42.7 18.9 L-40.15 19.1 -38.2 19.25 Q-36.85 19.4 -35.7 20.45 L-34.7 21.4 -33.1 23.0 Q-32.05 24.0 -29.95 23.95 -28.55 23.7 -26.7 22.45 -24.3 20.9 -22.75 21.35 L-19.65 21.4 Q-17.75 19.45 -16.95 16.0" fill="#000000" fill-rule="evenodd" stroke="none"/>
    <path d="M0.45 -3.75 Q1.05 -1.8 1.95 -0.45 L4.7 2.6 Q4.5 2.55 3.55 4.25 2.5 6.1 -3.2 10.2 -7.85 12.15 -11.55 12.05 L-14.2 11.8 -16.45 11.35 -17.0 11.2 -18.4 10.75 -19.2 10.45 -21.1 9.55 Q-23.05 7.45 -23.05 4.5 -23.05 1.35 -20.9 -0.85 -18.75 -3.0 -15.75 -3.0 L-15.05 -2.95 -13.65 -1.95 Q-12.9 -1.5 -11.95 -1.25 L-11.45 -1.15 -11.05 -1.1 -10.9 -1.05 -9.55 -1.05 Q-7.25 -1.2 -5.65 -1.9 -2.95 -3.2 -2.5 -5.25 -2.1 -4.9 -0.9 -4.3 -0.15 -3.85 0.45 -3.75 M-16.95 16.0 Q-17.75 19.45 -19.65 21.4 L-22.75 21.35 Q-24.3 20.9 -26.7 22.45 -28.55 23.7 -29.95 23.95 -32.05 24.0 -33.1 23.0 L-34.7 21.4 -35.7 20.45 Q-36.85 19.4 -38.2 19.25 L-40.15 19.1 -42.7 18.9 Q-44.05 18.8 -45.5 15.05 -46.55 12.5 -45.5 8.15 L-45.4 7.85 Q-40.7 10.85 -35.5 12.8 L-32.0 13.9 Q-24.9 15.85 -16.95 16.0" fill="#ffcc00" fill-rule="evenodd" stroke="none"/>
    <path d="M-24.75 -3.55 Q-25.9 -2.35 -26.5 -0.9 L-26.6 -1.9 -27.05 0.8 -27.2 2.65 Q-27.2 6.25 -24.75 8.8 -22.85 10.75 -20.3 11.2 -18.45 12.05 -15.85 12.7 -15.6 13.95 -15.9 14.9 -32.6 14.25 -45.9 6.45 L-44.35 3.35 Q-41.15 -4.55 -34.95 -11.3 -28.8 -18.05 -23.6 -20.6 -21.0 -21.9 -18.95 -21.75 -16.95 -21.65 -15.55 -19.25 -14.2 -16.85 -14.25 -14.3 -14.3 -11.75 -14.6 -9.45 L-15.1 -5.25 -15.1 -4.9 -15.35 -5.35 Q-16.55 -7.8 -16.25 -9.7 -16.9 -7.95 -16.5 -5.75 L-18.75 -6.05 Q-22.25 -6.05 -24.75 -3.55 M-16.25 -4.7 Q-15.1 -4.35 -14.1 -3.6 L-13.25 -2.85 -13.1 -2.7 -12.8 -2.4 Q-14.05 -3.25 -15.55 -3.5 L-16.8 -3.6 Q-19.8 -3.6 -21.95 -1.45 -24.1 0.75 -24.1 3.9 -24.1 6.65 -22.35 8.7 L-21.95 9.15 Q-21.1 10.05 -20.05 10.55 -22.25 10.1 -23.9 8.4 -26.1 6.15 -26.1 2.9 L-26.1 2.1 Q-25.85 -0.7 -23.9 -2.7 -21.65 -5.0 -18.45 -5.0 L-16.25 -4.7" fill="#990000" fill-rule="evenodd" stroke="none"/>
  </g>
</svg>
