<?xml version="1.0" encoding="UTF-8" standalone="no"?>
<svg xmlns:xlink="http://www.w3.org/1999/xlink" height="52.05px" width="60.2px" xmlns="http://www.w3.org/2000/svg">
  <g transform="matrix(1.0, 0.0, 0.0, 1.0, 17.75, 5.95)">
    <path d="M6.45 -1.35 L7.4 -1.05 Q10.8 5.2 10.75 11.4 L10.65 13.7 10.5 14.7 10.4 15.45 10.3 16.1 10.7 16.35 Q12.2 17.3 12.2 18.3 12.15 19.65 9.35 20.45 L9.1 20.5 7.1 25.45 15.75 26.95 25.65 29.0 37.0 32.05 Q36.85 32.85 37.0 32.85 L37.7 33.1 Q40.55 34.55 42.45 36.15 42.2 38.65 38.2 39.5 L34.9 39.95 32.15 40.3 Q30.6 42.5 28.4 43.25 L24.25 43.65 20.1 43.25 Q17.75 43.1 16.35 43.75 L13.35 45.15 10.9 46.0 Q8.6 46.45 5.1 45.1 3.05 44.25 -0.95 42.1 L-7.25 38.25 -7.7 38.35 Q-7.65 38.3 -8.15 38.0 L-10.2 36.7 -11.8 35.4 -13.5 33.9 Q-15.1 32.65 -16.6 30.6 -18.9 27.3 -16.55 25.4 -14.95 24.05 -12.2 23.4 L-7.35 22.9 Q-5.95 20.7 -5.05 18.5 -6.6 17.45 -6.6 16.45 -6.55 15.3 -4.6 14.6 L-3.95 14.4 -3.85 13.9 -3.75 12.65 -3.75 12.55 -3.7 11.6 Q-3.8 8.2 -5.1 4.2 L-6.05 1.05 Q-6.85 -1.45 -6.8 -2.7 L-6.7 -4.55 Q-6.6 -5.25 -6.0 -5.85 L-5.35 -5.95 -5.45 -5.9 -5.4 -5.9 Q-6.55 -4.3 -4.7 2.45 L-3.45 7.2 Q-3.0 9.45 -2.95 11.45 L-2.9 12.25 -2.9 12.5 -3.05 14.2 -3.05 14.3 -0.5 15.1 2.65 15.65 6.1 15.95 8.65 15.8 9.2 15.75 9.2 15.55 9.45 14.15 9.55 13.1 Q10.2 5.4 6.45 -1.35 M-3.4 15.2 L-4.1 15.35 Q-5.65 15.65 -5.75 16.25 -5.85 16.8 -4.7 17.5 L-3.85 17.9 -3.55 18.0 Q-1.2 18.95 2.2 19.4 L8.2 19.55 8.25 19.55 9.45 19.35 Q10.8 19.0 10.9 18.45 11.0 17.9 10.0 17.35 9.6 17.05 9.0 16.8 L8.95 16.8 8.55 16.85 2.55 16.7 Q-0.85 16.25 -3.2 15.3 L-3.4 15.2 M-4.25 18.95 L-5.65 21.55 Q-7.05 23.65 -8.85 27.0 L-8.1 23.9 -12.5 24.4 Q-18.95 28.5 4.55 39.35 18.45 32.75 36.3 32.65 33.85 31.65 25.25 29.55 16.6 27.45 6.35 26.75 5.45 27.2 4.35 28.55 6.6 24.55 7.9 20.75 5.6 21.1 2.7 20.8 -1.15 20.45 -3.85 19.15 L-4.25 18.95 M-10.1 32.6 L-11.1 35.35 -7.85 37.45 -6.7 34.9 -10.1 32.6 M-5.95 35.35 L-7.05 37.7 Q-3.6 39.95 0.15 41.9 6.35 45.05 9.05 45.1 11.3 45.1 14.0 43.7 L15.85 42.7 Q16.8 42.2 17.5 42.25 L22.0 42.4 26.5 42.4 Q28.0 42.25 28.95 41.45 L29.75 40.65 Q30.25 40.1 30.85 39.75 31.65 39.2 33.35 38.9 L36.55 38.4 39.55 37.95 Q40.95 37.6 41.25 36.45 40.05 34.9 36.55 33.4 18.25 34.55 4.4 40.95 -1.75 37.85 -5.95 35.35 M-11.6 34.5 L-10.9 32.0 Q-17.6 26.85 -13.55 24.65 -16.6 25.55 -16.65 27.4 -16.8 30.45 -11.6 34.5" fill="#000000" fill-rule="evenodd" stroke="none"/>
    <path d="M6.45 -1.35 Q10.2 5.4 9.55 13.1 L9.45 14.15 9.2 15.55 9.2 15.75 8.65 15.8 6.1 15.95 2.65 15.65 -0.5 15.1 -3.05 14.3 -3.05 14.2 -2.9 12.5 -2.9 12.25 -2.95 11.45 Q-3.0 9.45 -3.45 7.2 L-4.7 2.45 Q-6.55 -4.3 -5.4 -5.9 3.2 -6.15 6.45 -1.35 M-11.6 34.5 Q-16.8 30.45 -16.65 27.4 -16.6 25.55 -13.55 24.65 -17.6 26.85 -10.9 32.0 L-11.6 34.5 M-5.95 35.35 Q-1.75 37.85 4.4 40.95 18.25 34.55 36.55 33.4 40.05 34.9 41.25 36.45 40.95 37.6 39.55 37.95 L36.55 38.4 33.35 38.9 Q31.65 39.2 30.85 39.75 30.25 40.1 29.75 40.65 L28.95 41.45 Q28.0 42.25 26.5 42.4 L22.0 42.4 17.5 42.25 Q16.8 42.2 15.85 42.7 L14.0 43.7 Q11.3 45.1 9.05 45.1 6.35 45.05 0.15 41.9 -3.6 39.95 -7.05 37.7 L-5.95 35.35" fill="#ffcc00" fill-rule="evenodd" stroke="none"/>
    <path d="M-10.1 32.6 L-6.7 34.9 -7.85 37.45 -11.1 35.35 -10.1 32.6 M-4.25 18.95 L-3.85 19.15 Q-1.15 20.45 2.7 20.8 5.6 21.1 7.9 20.75 6.6 24.55 4.35 28.55 5.45 27.2 6.35 26.75 16.6 27.45 25.25 29.55 33.85 31.65 36.3 32.65 18.45 32.75 4.55 39.35 -18.95 28.5 -12.5 24.4 L-8.1 23.9 -8.85 27.0 Q-7.05 23.65 -5.65 21.55 L-4.25 18.95 M-3.4 15.2 L-3.2 15.3 Q-0.85 16.25 2.55 16.7 L8.55 16.85 8.95 16.8 9.0 16.8 Q9.6 17.05 10.0 17.35 11.0 17.9 10.9 18.45 10.8 19.0 9.45 19.35 L8.25 19.55 8.2 19.55 2.2 19.4 Q-1.2 18.95 -3.55 18.0 L-3.85 17.9 -4.7 17.5 Q-5.85 16.8 -5.75 16.25 -5.65 15.65 -4.1 15.35 L-3.4 15.2" fill="#990000" fill-rule="evenodd" stroke="none"/>
  </g>
</svg>
