<?xml version="1.0" encoding="UTF-8" standalone="no"?>
<svg xmlns:xlink="http://www.w3.org/1999/xlink" height="24.85px" width="36.8px" xmlns="http://www.w3.org/2000/svg">
  <g transform="matrix(1.0, 0.0, 0.0, 1.0, 18.5, 12.1)">
    <path d="M12.55 -8.1 Q17.8 -4.6 17.8 0.3 17.8 5.25 12.55 8.75 7.3 12.25 -0.1 12.25 -7.5 12.25 -12.75 8.75 -18.0 5.25 -18.0 0.3 -18.0 -4.6 -12.75 -8.1 -9.15 -10.5 -4.55 -11.25 L-0.1 -11.6 4.4 -11.25 Q8.95 -10.5 12.55 -8.1" fill="#ffffff" fill-rule="evenodd" stroke="none"/>
    <path d="M12.55 -8.1 Q17.8 -4.6 17.8 0.3 17.8 5.25 12.55 8.75 7.3 12.25 -0.1 12.25 -7.5 12.25 -12.75 8.75 -18.0 5.25 -18.0 0.3 -18.0 -4.6 -12.75 -8.1 -9.15 -10.5 -4.55 -11.25 L-0.1 -11.6 4.4 -11.25 Q8.95 -10.5 12.55 -8.1 Z" fill="none" stroke="#000000" stroke-linecap="round" stroke-linejoin="round" stroke-width="1.0"/>
  </g>
</svg>
