<?xml version="1.0" encoding="UTF-8" standalone="no"?>
<svg xmlns:xlink="http://www.w3.org/1999/xlink" height="155.0px" width="202.1px" xmlns="http://www.w3.org/2000/svg">
  <g transform="matrix(1.0, 0.0, 0.0, 1.0, 102.6, 76.3)">
    <path d="M85.8 18.25 Q97.4 8.55 97.4 -5.1 97.4 -18.8 85.8 -28.55 78.1 -35.05 68.25 -37.2 L67.8 -37.45 67.55 -37.9 Q65.7 -44.05 59.8 -48.85 51.15 -55.8 38.9 -55.8 L34.1 -55.5 33.45 -55.65 33.0 -56.15 Q30.85 -62.4 25.0 -67.3 15.75 -75.0 2.7 -75.0 -10.4 -75.0 -19.65 -67.3 L-22.5 -64.6 -22.85 -64.35 -23.35 -64.35 -31.4 -64.95 Q-46.2 -64.95 -56.7 -57.05 -66.35 -49.8 -66.95 -39.75 L-67.25 -39.15 Q-67.5 -38.9 -67.85 -38.8 -80.0 -37.4 -89.15 -30.0 -100.35 -20.9 -100.35 -8.05 -100.35 4.8 -89.15 13.9 -86.15 16.35 -82.8 18.15 L-82.45 18.45 -82.3 19.0 Q-82.3 19.25 -82.45 19.5 -86.2 25.85 -86.2 33.65 -86.2 46.15 -76.45 55.0 -66.6 63.9 -52.65 63.95 -45.1 63.95 -38.75 61.3 -38.4 61.15 -38.05 61.3 L-37.5 61.7 Q-35.2 65.6 -30.95 68.95 -21.3 76.45 -7.7 76.45 5.9 76.45 15.5 68.95 L15.55 68.95 Q20.05 65.4 22.45 61.2 L22.95 60.75 23.65 60.8 Q29.65 63.1 36.85 63.1 50.25 63.1 59.7 54.9 69.15 46.8 69.15 35.3 69.15 31.5 68.15 28.05 L68.1 27.55 68.4 27.1 68.85 26.85 Q78.35 24.55 85.8 18.25 M87.4 19.7 Q79.65 26.25 69.85 28.55 70.9 32.15 70.9 36.15 70.9 48.2 61.0 56.7 51.15 65.2 37.2 65.2 29.8 65.2 23.5 62.8 21.0 67.2 16.25 70.9 6.3 78.7 -7.85 78.7 -22.0 78.7 -32.0 70.9 -36.45 67.45 -38.9 63.35 -45.5 66.05 -53.35 66.05 -67.85 66.05 -78.1 56.8 -88.3 47.55 -88.3 34.45 -88.3 26.3 -84.35 19.65 -87.8 17.8 -90.9 15.3 -102.6 5.8 -102.6 -7.65 -102.6 -21.1 -90.9 -30.6 -81.45 -38.25 -68.85 -39.75 -68.25 -50.35 -58.05 -58.0 -47.2 -66.15 -31.85 -66.15 L-23.55 -65.5 -20.6 -68.3 Q-10.95 -76.3 2.65 -76.3 16.25 -76.3 25.85 -68.3 32.05 -63.15 34.3 -56.6 L39.3 -56.9 Q52.05 -56.9 61.05 -49.65 67.3 -44.6 69.2 -38.1 79.4 -35.85 87.4 -29.15 99.5 -19.0 99.5 -4.7 99.5 9.6 87.4 19.7" fill="#000000" fill-rule="evenodd" stroke="none"/>
    <path d="M85.8 18.25 Q78.35 24.55 68.85 26.85 L68.4 27.1 68.1 27.55 68.15 28.05 Q69.15 31.5 69.15 35.3 69.15 46.8 59.7 54.9 50.25 63.1 36.85 63.1 29.65 63.1 23.65 60.8 L22.95 60.75 22.45 61.2 Q20.05 65.4 15.55 68.95 L15.5 68.95 Q5.9 76.45 -7.7 76.45 -21.3 76.45 -30.95 68.95 -35.2 65.6 -37.5 61.7 L-38.05 61.3 Q-38.4 61.15 -38.75 61.3 -45.1 63.95 -52.65 63.95 -66.6 63.9 -76.45 55.0 -86.2 46.15 -86.2 33.65 -86.2 25.85 -82.45 19.5 -82.3 19.25 -82.3 19.0 L-82.45 18.45 -82.8 18.15 Q-86.15 16.35 -89.15 13.9 -100.35 4.8 -100.35 -8.05 -100.35 -20.9 -89.15 -30.0 -80.0 -37.4 -67.85 -38.8 -67.5 -38.9 -67.25 -39.15 L-66.95 -39.75 Q-66.35 -49.8 -56.7 -57.05 -46.2 -64.95 -31.4 -64.95 L-23.35 -64.35 -22.85 -64.35 -22.5 -64.6 -19.65 -67.3 Q-10.4 -75.0 2.7 -75.0 15.75 -75.0 25.0 -67.3 30.85 -62.4 33.0 -56.15 L33.45 -55.65 34.1 -55.5 38.9 -55.8 Q51.15 -55.8 59.8 -48.85 65.7 -44.05 67.55 -37.9 L67.8 -37.45 68.25 -37.2 Q78.1 -35.05 85.8 -28.55 97.4 -18.8 97.4 -5.1 97.4 8.55 85.8 18.25" fill="#ffffff" fill-rule="evenodd" stroke="none"/>
  </g>
</svg>
