<?xml version="1.0" encoding="UTF-8" standalone="no"?>
<svg xmlns:xlink="http://www.w3.org/1999/xlink" height="47.15px" width="60.8px" xmlns="http://www.w3.org/2000/svg">
  <g transform="matrix(1.0, 0.0, 0.0, 1.0, 30.4, 23.1)">
    <path d="M27.0 -17.3 L-27.1 -17.9 Q-26.85 -18.95 -25.6 -19.15 -5.7 -21.8 0.8 -21.7 7.25 -21.65 25.4 -19.05 26.45 -18.9 26.85 -17.95 L27.0 -17.3 M-25.9 -14.6 L25.05 -13.15 26.25 -12.95 Q27.55 -12.8 27.85 -11.55 L27.9 -11.05 -27.85 -11.7 Q-28.15 -12.2 -28.05 -12.8 -27.95 -13.8 -26.95 -14.2 L-25.9 -14.6 M24.0 -7.25 L24.2 -7.15 Q25.45 -6.55 26.75 -6.05 27.9 -5.6 27.95 -4.45 28.0 -3.3 26.9 -2.75 L26.8 -2.7 -28.95 -4.85 Q-28.9 -5.6 -28.3 -6.05 L-26.15 -7.9 -25.0 -8.95 -25.05 -9.0 24.0 -7.25 M21.05 0.6 L22.7 2.0 25.5 4.0 Q26.35 4.55 26.35 5.55 L-27.75 2.15 -27.7 1.95 Q-27.2 0.4 -25.65 0.7 L-24.2 0.2 -23.75 0.15 -23.7 0.05 -23.6 0.0 -23.7 -0.05 -23.65 -0.2 21.05 0.6 M22.15 9.35 L22.1 9.35 23.15 9.8 25.7 10.65 Q27.0 11.0 27.05 12.3 L-28.95 9.9 Q-28.8 9.1 -27.85 8.7 L-23.25 6.65 22.15 9.35 M23.55 14.65 L23.25 14.7 23.4 14.9 23.3 14.9 23.55 15.1 23.8 15.35 -28.05 15.35 Q-27.95 14.55 -27.05 14.1 L-24.35 12.7 -24.2 12.65 23.55 14.65 M28.75 19.1 Q29.05 19.65 28.85 20.45 28.5 21.7 27.1 21.75 6.05 21.95 -1.4 22.5 -8.9 23.0 -25.9 22.05 -27.3 21.95 -27.6 20.65 -27.9 19.3 -26.65 18.65 L-25.6 18.1 28.75 19.1" fill="#cc0000" fill-rule="evenodd" stroke="none"/>
    <path d="M25.05 -13.15 L24.35 -13.3 25.0 -14.15 26.55 -16.15 Q27.0 -16.7 27.0 -17.3 L26.85 -17.95 Q26.45 -18.9 25.4 -19.05 7.25 -21.65 0.8 -21.7 -5.7 -21.8 -25.6 -19.15 -26.85 -18.95 -27.1 -17.9 L-27.15 -17.7 Q-27.4 -16.4 -26.2 -15.75 L-24.95 -15.05 -25.9 -14.6 -26.95 -14.2 Q-27.95 -13.8 -28.05 -12.8 -28.15 -12.2 -27.85 -11.7 L-27.4 -11.1 -25.7 -9.65 -25.05 -9.0 -25.0 -8.95 -26.15 -7.9 -28.3 -6.05 Q-28.9 -5.6 -28.95 -4.85 L-28.95 -4.55 Q-28.95 -3.65 -28.15 -3.15 L-23.9 -0.2 -23.7 -0.05 -23.6 0.0 -23.7 0.05 -24.2 0.2 -25.65 0.7 Q-27.2 0.4 -27.7 1.95 L-27.75 2.15 Q-28.1 3.55 -26.8 4.25 L-23.85 5.9 -22.9 6.45 -23.25 6.65 -27.85 8.7 Q-28.8 9.1 -28.95 9.9 L-28.95 10.65 Q-28.7 12.05 -27.25 12.15 L-23.95 12.45 -24.2 12.65 -24.35 12.7 -27.05 14.1 Q-27.95 14.55 -28.05 15.35 L-28.05 16.0 Q-27.85 17.35 -26.45 17.5 L-24.95 17.7 -25.6 18.1 -26.65 18.65 Q-27.9 19.3 -27.6 20.65 -27.3 21.95 -25.9 22.05 -8.9 23.0 -1.4 22.5 6.05 21.95 27.1 21.75 28.5 21.7 28.85 20.45 29.05 19.65 28.75 19.1 L28.05 18.4 24.6 16.15 23.8 15.35 23.55 15.1 23.4 14.9 23.25 14.7 23.55 14.65 25.55 14.15 Q27.0 13.9 27.05 12.45 L27.05 12.3 Q27.0 11.0 25.7 10.65 L23.15 9.8 22.1 9.35 22.15 9.35 23.05 8.65 Q24.2 7.8 25.45 7.05 26.35 6.55 26.35 5.55 26.35 4.55 25.5 4.0 L22.7 2.0 21.05 0.6 21.0 0.55 23.35 -0.9 26.8 -2.7 26.9 -2.75 Q28.0 -3.3 27.95 -4.45 27.9 -5.6 26.75 -6.05 25.45 -6.55 24.2 -7.15 L24.0 -7.25 23.55 -7.45 24.4 -8.0 26.95 -9.6 Q27.85 -10.1 27.9 -11.05 L27.85 -11.55 Q27.55 -12.8 26.25 -12.95 L25.05 -13.15 M27.65 -15.25 L26.85 -14.25 Q28.95 -13.75 29.25 -11.65 29.55 -9.5 27.65 -8.4 L26.45 -7.65 27.25 -7.35 Q29.25 -6.6 29.35 -4.5 29.4 -2.4 27.5 -1.45 L24.0 0.35 23.3 0.7 23.55 0.9 26.3 2.85 Q27.8 3.8 27.75 5.6 27.75 7.35 26.2 8.25 L25.1 8.95 26.1 9.3 Q28.45 10.0 28.45 12.4 28.45 14.75 26.2 15.45 L28.8 17.2 Q30.85 18.45 30.25 20.8 29.6 23.1 27.15 23.15 6.15 23.35 -1.3 23.9 -8.85 24.4 -26.0 23.45 -28.05 23.3 -28.8 21.5 -29.5 19.75 -28.35 18.3 -29.45 17.35 -29.5 15.85 -29.55 14.3 -28.4 13.3 -30.35 12.55 -30.4 10.4 -30.45 8.25 -28.4 7.4 L-25.95 6.3 -27.45 5.5 Q-29.55 4.35 -29.1 2.1 -28.7 -0.1 -26.6 -0.5 L-28.9 -1.95 Q-30.3 -2.85 -30.4 -4.5 -30.45 -6.1 -29.2 -7.15 L-27.05 -8.95 -28.25 -10.05 Q-29.6 -11.15 -29.45 -12.8 -29.35 -14.45 -27.85 -15.3 -29.05 -16.7 -28.4 -18.45 -27.75 -20.25 -25.8 -20.5 -5.75 -23.2 0.8 -23.1 7.3 -23.05 25.6 -20.45 27.45 -20.2 28.15 -18.45 28.8 -16.7 27.65 -15.25" fill="#000000" fill-rule="evenodd" stroke="none"/>
    <path d="M27.0 -17.3 Q27.0 -16.7 26.55 -16.15 L25.0 -14.15 24.35 -13.3 25.05 -13.15 -25.9 -14.6 -24.95 -15.05 -26.2 -15.75 Q-27.4 -16.4 -27.15 -17.7 L-27.1 -17.9 27.0 -17.3 M27.9 -11.05 Q27.85 -10.1 26.95 -9.6 L24.4 -8.0 23.55 -7.45 24.0 -7.25 -25.05 -9.0 -25.7 -9.65 -27.4 -11.1 -27.85 -11.7 27.9 -11.05 M26.8 -2.7 L23.35 -0.9 21.0 0.55 21.05 0.6 -23.65 -0.2 -23.9 -0.2 -28.15 -3.15 Q-28.95 -3.65 -28.95 -4.55 L-28.95 -4.85 26.8 -2.7 M26.35 5.55 Q26.35 6.55 25.45 7.05 24.2 7.8 23.05 8.65 L22.15 9.35 -23.25 6.65 -22.9 6.45 -23.85 5.9 -26.8 4.25 Q-28.1 3.55 -27.75 2.15 L26.35 5.55 M27.05 12.3 L27.05 12.45 Q27.0 13.9 25.55 14.15 L23.55 14.65 -24.2 12.65 -23.95 12.45 -27.25 12.15 Q-28.7 12.05 -28.95 10.65 L-28.95 9.9 27.05 12.3 M23.8 15.35 L24.6 16.15 28.05 18.4 28.75 19.1 -25.6 18.1 -24.95 17.7 -26.45 17.5 Q-27.85 17.35 -28.05 16.0 L-28.05 15.35 23.8 15.35" fill="#990000" fill-rule="evenodd" stroke="none"/>
  </g>
</svg>
