<?xml version="1.0" encoding="UTF-8" standalone="no"?>
<svg xmlns:xlink="http://www.w3.org/1999/xlink" height="111.45px" width="168.7px" xmlns="http://www.w3.org/2000/svg">
  <g transform="matrix(1.0, 0.0, 0.0, 1.0, 84.35, 55.7)">
    <path d="M6.55 30.55 L10.8 30.55 67.95 28.6 Q71.3 27.1 72.25 24.2 84.0 -2.45 80.95 -25.85 79.25 -32.3 71.75 -35.6 L60.85 -39.2 Q8.35 -55.35 -56.35 -51.65 -74.4 -49.25 -80.15 -26.05 -83.8 -11.45 -75.65 6.9 -70.85 17.75 -61.95 29.9 L-59.2 30.0 6.55 30.55 M72.55 -38.8 L72.7 -38.7 Q81.55 -34.85 83.5 -27.15 L83.6 -26.8 Q86.7 -2.8 77.05 23.35 L77.05 23.4 Q75.85 26.3 73.95 28.3 L75.8 28.2 Q83.95 43.15 73.8 53.2 L52.75 54.45 49.35 45.75 37.55 47.95 37.25 55.1 Q23.05 55.6 8.65 55.75 L7.2 48.15 -5.65 48.8 -7.8 55.75 -36.85 55.2 -38.7 48.4 -47.6 49.25 -48.3 54.8 -67.65 53.9 Q-70.6 49.9 -71.9 45.95 -74.7 37.7 -70.15 29.75 L-68.2 29.8 Q-79.45 11.75 -82.85 -3.4 -85.75 -16.4 -82.95 -27.3 -76.65 -52.55 -56.8 -55.0 L-56.6 -55.0 Q6.4 -58.6 58.0 -43.5 65.4 -41.35 72.55 -38.8 M50.9 43.55 Q51.45 44.0 51.75 44.75 L54.45 51.6 56.6 51.5 60.35 51.3 72.45 50.5 Q79.6 42.5 74.05 31.05 L69.55 31.3 24.95 32.9 -45.2 32.85 -50.25 32.85 -54.0 32.8 -68.65 32.55 Q-71.7 39.15 -69.05 46.05 -68.1 48.6 -66.3 51.25 L-50.85 51.95 -50.45 48.9 Q-50.3 47.95 -49.6 47.3 -48.95 46.6 -48.0 46.55 L-39.1 45.65 -38.5 45.65 -37.65 45.9 -37.3 46.15 -36.8 46.55 -36.2 47.65 -34.85 52.5 -32.7 52.6 -9.95 53.0 -8.4 48.0 -8.25 47.65 -7.45 46.65 Q-6.8 46.1 -5.9 46.05 L6.95 45.4 7.85 45.5 7.9 45.5 8.75 45.95 Q9.55 46.6 9.75 47.6 L9.75 47.65 10.75 52.95 13.25 52.95 34.5 52.45 34.65 47.8 34.65 47.65 Q34.75 46.8 35.35 46.15 35.95 45.4 36.9 45.25 L48.7 43.05 50.35 43.2 50.55 43.35 50.9 43.55" fill="#000000" fill-rule="evenodd" stroke="none"/>
    <path d="M6.55 30.55 Q27.45 27.45 43.55 16.5 65.95 1.3 65.95 -20.15 65.95 -30.4 60.85 -39.2 L71.75 -35.6 Q79.25 -32.3 80.95 -25.85 84.0 -2.45 72.25 24.2 71.3 27.1 67.95 28.6 L10.8 30.55 6.55 30.55 M56.6 51.5 L54.45 51.6 51.75 44.75 Q51.45 44.0 50.9 43.55 L52.85 43.4 56.6 51.5 M13.25 52.95 L10.75 52.95 9.75 47.65 9.75 47.6 Q9.55 46.6 8.75 45.95 L8.8 45.75 11.2 46.4 13.25 52.95 M-32.7 52.6 L-34.85 52.5 -36.2 47.65 -36.8 46.55 -37.3 46.15 -37.25 45.95 -34.6 46.1 -32.7 52.6 M-50.25 32.85 L-45.2 32.85 24.95 32.9 69.55 31.3 74.05 31.05 Q79.6 42.5 72.45 50.5 L60.35 51.3 63.05 47.4 Q66.35 41.1 60.2 38.15 L-50.25 32.85" fill="#333333" fill-rule="evenodd" stroke="none"/>
    <path d="M60.85 -39.2 Q65.95 -30.4 65.95 -20.15 65.95 1.3 43.55 16.5 27.45 27.45 6.55 30.55 L-59.2 30.0 -61.95 29.9 Q-70.85 17.75 -75.65 6.9 -83.8 -11.45 -80.15 -26.05 -74.4 -49.25 -56.35 -51.65 8.35 -55.35 60.85 -39.2 M56.6 51.5 L52.85 43.4 50.9 43.55 50.55 43.35 50.35 43.2 48.7 43.05 36.9 45.25 Q35.95 45.4 35.35 46.15 34.75 46.8 34.65 47.65 L34.65 47.8 34.5 52.45 13.25 52.95 11.2 46.4 8.8 45.75 8.75 45.95 7.9 45.5 7.85 45.5 6.95 45.4 -5.9 46.05 Q-6.8 46.1 -7.45 46.65 L-8.25 47.65 -8.4 48.0 -9.95 53.0 -32.7 52.6 -34.6 46.1 -37.25 45.95 -37.3 46.15 -37.65 45.9 -38.5 45.65 -39.1 45.65 -48.0 46.55 Q-48.95 46.6 -49.6 47.3 -50.3 47.95 -50.45 48.9 L-50.85 51.95 -66.3 51.25 Q-68.1 48.6 -69.05 46.05 -71.7 39.15 -68.65 32.55 L-54.0 32.8 -50.25 32.85 60.2 38.15 Q66.35 41.1 63.05 47.4 L60.35 51.3 56.6 51.5 M-50.0 -39.0 Q-51.05 -40.05 -52.15 -40.7 -49.85 -41.6 -47.2 -41.95 -13.35 -47.4 10.75 -45.9 -20.75 -51.3 -56.8 -49.25 -71.65 -47.25 -76.4 -28.15 -80.65 -11.3 -65.75 11.65 -70.35 -6.8 -66.8 -20.85 L-65.4 -25.45 -64.5 -24.45 Q-61.5 -21.45 -57.25 -21.45 -53.05 -21.45 -50.0 -24.45 -47.0 -27.45 -47.0 -31.75 -47.0 -36.05 -50.0 -39.0 M-65.55 37.9 Q-63.35 35.35 -56.6 35.2 -60.6 32.95 -66.9 34.85 -71.25 37.95 -66.7 47.55 -68.2 40.75 -65.55 37.9" fill="#666666" fill-rule="evenodd" stroke="none"/>
    <path d="M-50.0 -39.0 Q-47.0 -36.05 -47.0 -31.75 -47.0 -27.45 -50.0 -24.45 -53.05 -21.45 -57.25 -21.45 -61.5 -21.45 -64.5 -24.45 L-65.4 -25.45 -66.8 -20.85 Q-70.35 -6.8 -65.75 11.65 -80.65 -11.3 -76.4 -28.15 -71.65 -47.25 -56.8 -49.25 -20.75 -51.3 10.75 -45.9 -13.35 -47.4 -47.2 -41.95 -49.85 -41.6 -52.15 -40.7 -51.05 -40.05 -50.0 -39.0 M-65.55 37.9 Q-68.2 40.75 -66.7 47.55 -71.25 37.95 -66.9 34.85 -60.6 32.95 -56.6 35.2 -63.35 35.35 -65.55 37.9" fill="#cccccc" fill-rule="evenodd" stroke="none"/>
  </g>
</svg>
