<?xml version="1.0" encoding="UTF-8" standalone="no"?>
<svg xmlns:xlink="http://www.w3.org/1999/xlink" height="24.9px" width="24.9px" xmlns="http://www.w3.org/2000/svg">
  <g transform="matrix(1.0, 0.0, 0.0, 1.0, 12.45, 12.45)">
    <path d="M9.9 -0.6 Q9.9 -5.05 6.8 -8.15 3.65 -11.3 -0.75 -11.3 -5.2 -11.3 -8.3 -8.15 -11.45 -5.05 -11.45 -0.6 -11.45 3.8 -8.3 6.9 -5.2 10.05 -0.75 10.05 3.65 10.05 6.8 6.9 9.9 3.8 9.9 -0.6 M12.45 0.0 Q12.4 5.15 8.8 8.8 5.15 12.4 0.0 12.45 -5.2 12.4 -8.8 8.8 -12.45 5.15 -12.45 0.0 -12.45 -5.2 -8.8 -8.8 -5.2 -12.45 0.0 -12.45 5.15 -12.45 8.8 -8.8 12.4 -5.2 12.45 0.0" fill="#333333" fill-rule="evenodd" stroke="none"/>
    <path d="M9.9 -0.6 Q9.9 3.8 6.8 6.9 3.65 10.05 -0.75 10.05 -5.2 10.05 -8.3 6.9 -11.45 3.8 -11.45 -0.6 -11.45 -5.05 -8.3 -8.15 -5.2 -11.3 -0.75 -11.3 3.65 -11.3 6.8 -8.15 9.9 -5.05 9.9 -0.6 M2.15 -4.5 Q1.7 -5.7 0.75 -6.65 -0.95 -8.35 -3.3 -8.35 -5.75 -8.35 -7.4 -6.65 -9.1 -5.0 -9.1 -2.6 -9.1 -0.2 -7.4 1.5 -5.75 3.15 -3.3 3.2 L-2.6 3.15 -3.75 2.3 Q-5.1 1.0 -5.1 -0.9 -5.1 -2.8 -3.75 -4.1 -2.45 -5.4 -0.55 -5.4 0.95 -5.4 2.15 -4.5" fill="#666666" fill-rule="evenodd" stroke="none"/>
    <path d="M2.15 -4.5 Q0.95 -5.4 -0.55 -5.4 -2.45 -5.4 -3.75 -4.1 -5.1 -2.8 -5.1 -0.9 -5.1 1.0 -3.75 2.3 L-2.6 3.15 -3.3 3.2 Q-5.75 3.15 -7.4 1.5 -9.1 -0.2 -9.1 -2.6 -9.1 -5.0 -7.4 -6.65 -5.75 -8.35 -3.3 -8.35 -0.95 -8.35 0.75 -6.65 1.7 -5.7 2.15 -4.5" fill="#cccccc" fill-rule="evenodd" stroke="none"/>
  </g>
</svg>
