<?xml version="1.0" encoding="UTF-8" standalone="no"?>
<svg xmlns:xlink="http://www.w3.org/1999/xlink" height="132.35px" width="89.95px" xmlns="http://www.w3.org/2000/svg">
  <g transform="matrix(1.0, 0.0, 0.0, 1.0, 42.85, 70.9)">
    <path d="M-36.4 -5.4 L-36.4 -11.55 Q-36.75 -31.6 -40.3 -51.3 L-39.0 -49.4 -38.1 -48.05 Q-30.8 -36.7 -27.9 -22.0 -25.0 -7.3 -27.35 4.95 -29.75 17.2 -25.15 21.9 -20.55 26.55 -17.55 30.95 -14.6 35.35 -14.4 42.3 -14.25 49.0 -20.85 54.9 L-21.2 55.2 Q-24.5 50.5 -29.9 45.7 -35.3 40.9 -42.85 39.25 L-42.8 39.1 Q-39.75 28.3 -38.2 17.3 -37.1 9.35 -36.7 1.35 L-36.4 -5.4" fill="#cccccc" fill-rule="evenodd" stroke="none"/>
    <path d="M47.1 54.7 L34.0 61.45 Q30.25 -0.7 5.95 -70.9 40.85 -14.9 47.1 54.7" fill="#333333" fill-rule="evenodd" stroke="none"/>
  </g>
</svg>
