<?xml version="1.0" encoding="UTF-8" standalone="no"?>
<svg xmlns:xlink="http://www.w3.org/1999/xlink" height="87.25px" width="87.25px" xmlns="http://www.w3.org/2000/svg">
  <g transform="matrix(1.0, 0.0, 0.0, 1.0, 43.6, 43.6)">
    <path d="M30.85 -30.85 Q43.6 -18.1 43.65 0.0 43.6 18.1 30.85 30.85 18.1 43.6 0.0 43.65 -18.1 43.6 -30.85 30.85 -43.6 18.1 -43.6 0.0 -43.6 -18.1 -30.85 -30.85 -18.1 -43.6 0.0 -43.6 18.1 -43.6 30.85 -30.85 M38.65 -1.2 Q38.65 -17.55 27.1 -29.1 15.55 -40.65 -0.8 -40.65 -17.15 -40.65 -28.7 -29.1 -40.25 -17.55 -40.25 -1.2 -40.25 15.15 -28.7 26.7 -17.15 38.25 -0.8 38.25 15.55 38.25 27.1 26.7 38.65 15.15 38.65 -1.2" fill="#000000" fill-rule="evenodd" stroke="none"/>
    <path d="M14.9 -16.45 Q20.95 -10.4 21.0 -1.75 20.95 6.85 14.9 12.95 8.8 19.05 0.2 19.05 -8.45 19.05 -14.55 12.95 -16.5 11.0 -17.8 8.8 -20.65 4.1 -20.6 -1.75 -20.65 -10.4 -14.55 -16.45 -8.45 -22.55 0.2 -22.55 6.0 -22.55 10.7 -19.75 12.9 -18.45 14.9 -16.45" fill="#999999" fill-rule="evenodd" stroke="none"/>
    <path d="M14.9 -16.45 Q12.9 -18.45 10.7 -19.75 6.0 -22.55 0.2 -22.55 -8.45 -22.55 -14.55 -16.45 -20.65 -10.4 -20.6 -1.75 -20.65 4.1 -17.8 8.8 -16.5 11.0 -14.55 12.95 -8.45 19.05 0.2 19.05 8.8 19.05 14.9 12.95 20.95 6.85 21.0 -1.75 20.95 -10.4 14.9 -16.45 M16.95 -17.7 Q23.75 -10.9 23.75 -1.25 23.75 8.4 16.95 15.25 10.1 22.05 0.45 22.05 -9.2 22.05 -16.0 15.25 -22.85 8.4 -22.85 -1.25 -22.85 -4.7 -21.95 -7.8 -20.4 -13.35 -16.0 -17.7 -10.8 -22.95 -3.95 -24.15 L0.45 -24.55 Q10.1 -24.55 16.95 -17.7" fill="#333333" fill-rule="evenodd" stroke="none"/>
    <path d="M16.95 -17.7 Q10.1 -24.55 0.45 -24.55 L-3.95 -24.15 Q-10.8 -22.95 -16.0 -17.7 -20.4 -13.35 -21.95 -7.8 -22.85 -4.7 -22.85 -1.25 -22.85 8.4 -16.0 15.25 -9.2 22.05 0.45 22.05 10.1 22.05 16.95 15.25 23.75 8.4 23.75 -1.25 23.75 -10.9 16.95 -17.7 M23.8 -19.45 Q21.85 -22.65 19.0 -25.45 10.0 -34.25 -2.65 -34.25 -15.35 -34.25 -24.3 -25.45 -33.25 -16.65 -33.25 -4.2 -33.25 8.25 -24.3 17.05 L-23.6 17.7 Q-28.8 10.25 -28.8 0.7 -28.8 -11.8 -19.95 -20.6 -11.15 -29.45 1.35 -29.45 13.85 -29.45 22.7 -20.6 L23.8 -19.45 M38.65 -1.2 Q38.65 15.15 27.1 26.7 15.55 38.25 -0.8 38.25 -17.15 38.25 -28.7 26.7 -40.25 15.15 -40.25 -1.2 -40.25 -17.55 -28.7 -29.1 -17.15 -40.65 -0.8 -40.65 15.55 -40.65 27.1 -29.1 38.65 -17.55 38.65 -1.2" fill="#666666" fill-rule="evenodd" stroke="none"/>
    <path d="M23.8 -19.45 L22.7 -20.6 Q13.85 -29.45 1.35 -29.45 -11.15 -29.45 -19.95 -20.6 -28.8 -11.8 -28.8 0.7 -28.8 10.25 -23.6 17.7 L-24.3 17.05 Q-33.25 8.25 -33.25 -4.2 -33.25 -16.65 -24.3 -25.45 -15.35 -34.25 -2.65 -34.25 10.0 -34.25 19.0 -25.45 21.85 -22.65 23.8 -19.45" fill="#cccccc" fill-rule="evenodd" stroke="none"/>
  </g>
</svg>
