<?xml version="1.0" encoding="UTF-8" standalone="no"?>
<svg xmlns:xlink="http://www.w3.org/1999/xlink" height="115.45px" width="115.4px" xmlns="http://www.w3.org/2000/svg">
  <g transform="matrix(1.0, 0.0, 0.0, 1.0, 57.7, 57.75)">
    <path d="M35.85 -38.5 L34.2 -40.1 Q19.4 -53.8 -1.05 -53.8 -22.7 -53.8 -38.0 -38.5 -53.3 -23.25 -53.25 -1.6 -53.3 15.05 -44.2 27.95 -41.5 31.8 -38.0 35.3 -22.7 50.6 -1.05 50.6 20.55 50.6 35.85 35.3 51.15 20.05 51.15 -1.6 51.15 -23.25 35.85 -38.5 M57.7 0.0 Q57.7 23.9 40.8 40.8 23.9 57.7 0.0 57.7 -23.95 57.7 -40.8 40.8 -50.15 31.45 -54.35 19.95 -57.75 10.65 -57.7 0.0 -57.75 -23.95 -40.8 -40.8 -23.95 -57.75 0.0 -57.75 15.1 -57.75 27.4 -50.95 34.6 -47.05 40.8 -40.8 57.7 -23.95 57.7 0.0" fill="#000000" fill-rule="evenodd" stroke="none"/>
    <path d="M-32.15 22.55 L-31.95 22.4 -31.25 23.4 -32.15 22.55 M30.0 -27.3 L30.35 -27.5 31.45 -25.75 30.0 -27.3" fill="#99ffff" fill-rule="evenodd" stroke="none"/>
    <path d="M-32.15 22.55 Q-44.0 10.9 -44.0 -5.55 -44.0 -22.05 -32.15 -33.7 -20.3 -45.35 -3.5 -45.35 13.25 -45.35 25.1 -33.7 28.1 -30.75 30.3 -27.5 L30.35 -27.5 30.0 -27.3 Q18.3 -39.0 1.8 -39.0 -14.75 -39.0 -26.45 -27.3 -38.15 -15.65 -38.15 0.9 -38.15 12.95 -31.95 22.4 L-32.15 22.55" fill="#cccccc" fill-rule="evenodd" stroke="none"/>
    <path d="M30.35 -27.5 L30.3 -27.5 Q28.1 -30.75 25.1 -33.7 13.25 -45.35 -3.5 -45.35 -20.3 -45.35 -32.15 -33.7 -44.0 -22.05 -44.0 -5.55 -44.0 10.9 -32.15 22.55 L-31.25 23.4 -31.95 22.4 Q-38.15 12.95 -38.15 0.9 -38.15 -15.65 -26.45 -27.3 -14.75 -39.0 1.8 -39.0 18.3 -39.0 30.0 -27.3 L31.45 -25.75 30.35 -27.5 M-44.2 27.95 Q-53.3 15.05 -53.25 -1.6 -53.3 -23.25 -38.0 -38.5 -22.7 -53.8 -1.05 -53.8 19.4 -53.8 34.2 -40.1 L35.85 -38.5 35.05 -38.15 Q38.85 -28.85 38.85 -18.0 38.85 4.25 22.85 19.95 6.85 35.7 -15.75 35.7 -31.6 35.7 -44.2 27.95" fill="#666666" fill-rule="evenodd" stroke="none"/>
    <path d="M-44.2 27.95 Q-31.6 35.7 -15.75 35.7 6.85 35.7 22.85 19.95 38.85 4.25 38.85 -18.0 38.85 -28.85 35.05 -38.15 L35.85 -38.5 Q51.15 -23.25 51.15 -1.6 51.15 20.05 35.85 35.3 20.55 50.6 -1.05 50.6 -22.7 50.6 -38.0 35.3 -41.5 31.8 -44.2 27.95" fill="#333333" fill-rule="evenodd" stroke="none"/>
  </g>
</svg>
