<?xml version="1.0" encoding="UTF-8" standalone="no"?>
<svg xmlns:xlink="http://www.w3.org/1999/xlink" height="6.35px" width="24.85px" xmlns="http://www.w3.org/2000/svg">
  <g transform="matrix(1.0, 0.0, 0.0, 1.0, 12.4, 3.15)">
    <path d="M12.2 3.0 L12.3 2.55 9.7 2.65 7.15 2.2 Q4.7 1.55 2.5 0.3 L2.45 0.3 2.3 0.2 Q0.4 -0.8 -0.85 0.75 L-1.4 1.55 -2.1 2.4 -3.1 2.7 Q-4.15 2.9 -5.25 2.25 -6.65 0.3 -6.7 -2.05 L-6.7 -2.5 Q-8.95 -2.9 -10.35 -1.95 L-10.55 -1.8 -12.4 -0.6 -12.4 -1.45 -10.6 -2.55 -6.0 -2.7 Q-6.05 -0.2 -5.0 1.55 -3.7 2.25 -2.75 1.95 -1.8 1.65 -1.15 0.2 -0.55 -1.25 2.25 -0.05 5.05 1.15 7.55 1.7 L12.4 1.85 12.45 1.85 12.3 2.9 12.3 3.0 12.2 3.0 M-10.35 -1.5 L-10.55 -1.8 -10.35 -1.5" fill="#666666" fill-rule="evenodd" stroke="none"/>
    <path d="M-12.4 -0.6 L-10.55 -1.8 -10.35 -1.95 Q-8.95 -2.9 -6.7 -2.5 L-6.7 -2.05 Q-6.65 0.3 -5.25 2.25 -4.15 2.9 -3.1 2.7 L-2.1 2.4 -1.4 1.55 -0.85 0.75 Q0.4 -0.8 2.3 0.2 L2.45 0.3 2.5 0.3 Q4.7 1.55 7.15 2.2 L9.7 2.65 12.3 2.55 12.2 3.0 9.7 3.1 7.15 2.65 7.0 2.6 Q4.55 1.9 2.3 0.65 0.6 -0.25 -0.65 0.95 L-1.4 2.0 -1.85 2.6 Q-2.35 3.1 -3.1 3.15 -4.15 3.35 -5.25 2.7 L-5.45 2.4 Q-6.75 0.4 -6.7 -2.05 -8.95 -2.45 -10.35 -1.5 L-12.4 -0.15 -12.4 -0.6 M-10.35 -1.5 L-10.55 -1.8 -10.35 -1.5" fill="#333333" fill-rule="evenodd" stroke="none"/>
  </g>
</svg>
