<?xml version="1.0" encoding="UTF-8" standalone="no"?>
<svg xmlns:xlink="http://www.w3.org/1999/xlink" height="4.05px" width="2.9px" xmlns="http://www.w3.org/2000/svg">
  <g transform="matrix(1.0, 0.0, 0.0, 1.0, 1.85, 1.55)">
    <path d="M1.05 -0.1 L0.8 0.05 Q0.6 0.15 0.55 0.4 L0.45 1.9 0.2 1.8 0.25 0.2 -0.1 0.7 Q-0.4 1.55 -0.15 2.5 L-0.4 2.45 -0.55 1.6 Q-0.65 1.0 -0.35 0.5 L-0.8 1.0 -1.35 2.3 -1.4 2.3 -1.55 2.2 -1.4 1.45 Q-1.2 0.75 -0.6 0.35 L-1.7 1.1 -1.85 0.95 -1.6 0.6 Q-1.05 0.1 -0.25 -0.15 L-0.55 -0.45 Q-1.2 -0.9 -1.0 -1.55 L-0.8 -1.5 -0.65 -0.8 Q-0.45 -0.35 0.45 -0.3 L0.9 -0.25 1.05 -0.1" fill="#cc9933" fill-rule="evenodd" stroke="none"/>
  </g>
</svg>
