<?xml version="1.0" encoding="UTF-8" standalone="no"?>
<svg xmlns:xlink="http://www.w3.org/1999/xlink" height="45.95px" width="47.75px" xmlns="http://www.w3.org/2000/svg">
  <g transform="matrix(1.0, 0.0, 0.0, 1.0, 23.85, 22.95)">
    <path d="M4.25 -15.35 L4.25 -15.45 5.4 -17.65 Q6.2 -19.4 6.75 -19.95 8.15 -21.4 9.3 -20.5 10.25 -19.8 10.9 -17.55 L11.6 -13.2 11.5 -9.75 Q13.6 -4.6 13.7 -0.25 15.25 -0.45 16.2 1.75 16.95 3.6 16.8 5.2 20.7 4.45 22.55 5.3 24.1 6.0 23.9 7.65 23.7 9.15 22.25 10.4 20.8 11.65 18.9 12.55 18.85 13.8 18.35 14.6 L16.4 16.8 Q14.95 18.2 10.15 19.65 5.3 21.1 1.0 20.6 L-5.95 19.95 Q-8.6 19.8 -10.8 20.55 L-12.95 21.6 -15.95 22.75 -19.65 22.6 Q-21.7 21.8 -22.65 20.35 -23.6 18.9 -23.5 17.25 L-23.6 15.05 -23.8 12.9 Q-24.0 10.65 -23.45 9.05 L-23.3 8.55 -23.3 8.75 -23.1 13.9 Q-22.85 9.9 -20.3 5.85 L-20.75 7.7 -21.45 9.35 Q-22.25 11.4 -21.9 13.0 -19.95 11.05 -16.45 10.7 L-10.35 10.9 Q-12.35 9.15 -12.85 6.2 -13.3 3.6 -12.5 0.85 -11.95 -1.25 -10.15 -3.7 L-6.75 -7.9 Q-4.8 -10.45 -4.05 -12.3 -3.05 -14.85 -3.65 -17.4 -2.8 -16.3 -3.1 -14.1 0.6 -12.95 2.4 -8.4 3.85 -4.75 3.75 -0.2 5.75 0.8 6.95 3.75 L7.15 3.15 7.2 3.3 Q6.05 -0.95 5.95 -3.2 5.85 -5.45 6.7 -8.0 L8.0 -12.0 Q8.4 -13.6 8.3 -14.9 8.8 -12.4 11.15 -10.65 11.3 -13.55 10.75 -16.45 10.2 -19.4 8.7 -20.1 7.7 -20.15 7.2 -19.7 6.7 -19.3 5.95 -17.7 5.2 -16.1 4.25 -15.35 M-10.7 -10.2 L-10.4 -10.65 -10.1 -11.2 -9.4 -12.9 -8.8 -15.85 -8.25 -18.8 Q-7.85 -20.4 -7.1 -21.45 -6.15 -23.0 -4.85 -22.95 -3.75 -22.9 -2.55 -21.6 -1.55 -20.5 -0.7 -18.75 -0.05 -17.45 0.25 -16.2 L0.35 -15.65 0.0 -16.25 -0.5 -17.4 -1.95 -20.2 Q-2.8 -21.75 -4.6 -22.3 -6.4 -22.9 -7.9 -17.2 L-8.85 -13.25 Q-9.6 -10.7 -10.6 -10.25 L-10.6 -10.15 -10.7 -10.2 M2.95 -0.6 Q3.1 -4.7 1.8 -8.2 0.15 -12.6 -3.1 -13.65 -3.65 -11.45 -5.2 -9.0 L-8.35 -4.85 Q-10.3 -2.35 -11.1 -0.6 -12.35 1.9 -12.3 4.45 -12.25 6.4 -11.5 8.1 -10.7 9.95 -9.15 10.95 -4.4 10.8 -1.9 8.9 -2.55 7.6 -2.5 5.95 -2.45 4.35 -1.75 2.9 -1.05 1.35 0.1 0.45 1.4 -0.55 2.95 -0.6 M7.5 -8.8 Q6.6 -6.55 6.4 -3.6 6.15 -0.7 7.55 3.05 L10.35 2.85 Q11.3 0.15 13.2 -0.25 13.25 -2.75 12.35 -5.8 L11.0 -9.9 8.55 -12.85 Q8.35 -11.1 7.5 -8.8 M23.3 8.0 Q23.55 7.15 23.0 6.5 22.45 5.85 21.25 5.6 18.4 5.05 13.9 6.85 8.5 8.95 2.55 14.0 L2.95 13.1 Q0.2 12.5 -1.65 9.7 -4.0 10.95 -6.9 11.35 L-11.85 11.55 -16.5 11.65 Q-18.95 11.95 -20.7 13.2 -21.9 14.0 -22.4 15.25 -22.85 16.35 -22.6 17.65 -22.4 18.9 -21.55 19.9 -20.75 21.0 -19.55 21.55 L-15.45 21.7 -13.6 20.9 -11.65 19.95 Q-9.45 19.05 -5.35 19.25 L-1.65 19.5 2.3 19.75 Q7.0 19.9 11.6 18.4 16.2 16.9 17.7 14.55 L18.1 13.05 Q18.15 12.15 17.5 11.75 16.25 13.25 14.75 14.05 L11.8 15.0 8.75 15.5 Q6.9 15.85 5.6 16.55 3.55 17.55 1.2 17.7 L-3.0 17.4 -7.2 16.8 -11.4 17.15 -13.05 17.95 -15.15 19.05 Q-17.8 20.4 -18.8 19.9 -19.85 19.35 -20.15 17.95 -19.4 16.35 -16.1 16.0 -13.65 15.7 -8.9 16.0 L-1.0 16.85 3.65 16.35 8.1 14.25 13.0 11.65 Q19.15 8.55 20.95 9.5 18.45 10.1 17.55 10.6 L18.9 11.6 Q22.75 9.9 23.3 8.0 M16.35 5.4 Q16.7 2.45 15.6 1.15 14.55 0.0 13.05 0.6 11.45 1.15 10.8 2.9 10.0 4.9 11.0 7.4 L13.6 6.2 Q15.15 5.5 16.35 5.4 M13.1 1.15 Q11.65 2.6 11.0 5.15 11.15 2.3 12.7 1.15 L13.1 1.15 M16.55 11.45 L16.25 11.2 Q12.95 12.4 8.3 15.0 10.15 14.9 12.85 13.9 15.9 12.75 16.55 11.45 M7.4 3.95 L7.15 4.15 7.4 5.0 7.95 5.15 7.4 3.95 M8.45 5.35 L9.95 5.85 9.95 5.45 Q9.85 4.3 10.2 3.45 9.1 3.0 7.75 3.8 L8.45 5.35 M7.0 9.85 Q7.3 8.8 7.25 7.3 7.2 5.75 6.85 4.75 5.1 0.05 2.6 -0.05 1.55 -0.1 0.6 0.75 -0.35 1.5 -0.95 2.85 -1.6 4.15 -1.75 5.65 -1.95 7.25 -1.45 8.65 -0.45 11.95 3.4 12.7 L7.0 9.85 M7.5 5.6 Q7.95 7.75 7.8 9.15 L10.4 7.55 Q10.15 6.9 10.05 6.25 L7.5 5.6 M-0.7 4.25 Q-0.15 2.25 0.6 1.75 -1.5 6.6 0.45 10.0 -0.2 9.25 -0.7 7.75 -1.25 6.2 -0.7 4.25 M-13.85 17.3 Q-12.75 16.65 -11.95 16.6 -14.7 16.4 -16.0 16.55 -18.8 16.8 -19.45 18.15 -18.65 19.7 -17.75 19.35 L-15.4 18.25 -13.85 17.3" fill="#000000" fill-rule="evenodd" stroke="none"/>
    <path d="M-23.3 8.75 Q-15.0 -1.0 -10.7 -10.2 L-10.6 -10.15 -10.6 -10.25 Q-9.6 -10.7 -8.85 -13.25 L-7.9 -17.2 Q-6.4 -22.9 -4.6 -22.3 -2.8 -21.75 -1.95 -20.2 L-0.5 -17.4 0.0 -16.25 0.35 -15.65 0.25 -16.2 Q3.55 -11.8 4.2 -14.95 L3.7 -14.75 Q2.8 -14.5 4.0 -15.2 L4.25 -15.35 Q5.2 -16.1 5.95 -17.7 6.7 -19.3 7.2 -19.7 7.7 -20.15 8.7 -20.1 10.2 -19.4 10.75 -16.45 11.3 -13.55 11.15 -10.65 8.8 -12.4 8.3 -14.9 8.4 -13.6 8.0 -12.0 L6.7 -8.0 Q5.85 -5.45 5.95 -3.2 6.05 -0.95 7.2 3.3 L7.15 3.15 6.95 3.75 Q5.75 0.8 3.75 -0.2 3.85 -4.75 2.4 -8.4 0.6 -12.95 -3.1 -14.1 -2.8 -16.3 -3.65 -17.4 -3.05 -14.85 -4.05 -12.3 -4.8 -10.45 -6.75 -7.9 L-10.15 -3.7 Q-11.95 -1.25 -12.5 0.85 -13.3 3.6 -12.85 6.2 -12.35 9.15 -10.35 10.9 L-16.45 10.7 Q-19.95 11.05 -21.9 13.0 -22.25 11.4 -21.45 9.35 L-20.75 7.7 -20.3 5.85 Q-22.85 9.9 -23.1 13.9 L-23.3 8.75 M16.35 5.4 Q15.15 5.5 13.6 6.2 L11.0 7.4 Q10.0 4.9 10.8 2.9 11.45 1.15 13.05 0.6 14.55 0.0 15.6 1.15 16.7 2.45 16.35 5.4 M13.1 1.15 L12.7 1.15 Q11.15 2.3 11.0 5.15 11.65 2.6 13.1 1.15 M7.4 3.95 L7.95 5.15 7.4 5.0 7.15 4.15 7.4 3.95 M7.0 9.85 L3.4 12.7 Q-0.45 11.95 -1.45 8.65 -1.95 7.25 -1.75 5.65 -1.6 4.15 -0.95 2.85 -0.35 1.5 0.6 0.75 1.55 -0.1 2.6 -0.05 5.1 0.05 6.85 4.75 7.2 5.75 7.25 7.3 7.3 8.8 7.0 9.85 M-0.7 4.25 Q-1.25 6.2 -0.7 7.75 -0.2 9.25 0.45 10.0 -1.5 6.6 0.6 1.75 -0.15 2.25 -0.7 4.25" fill="#ffffff" fill-rule="evenodd" stroke="none"/>
    <path d="M23.3 8.0 Q22.75 9.9 18.9 11.6 L17.55 10.6 Q18.45 10.1 20.95 9.5 19.15 8.55 13.0 11.65 L8.1 14.25 3.65 16.35 -1.0 16.85 -8.9 16.0 Q-13.65 15.7 -16.1 16.0 -19.4 16.35 -20.15 17.95 -19.85 19.35 -18.8 19.9 -17.8 20.4 -15.15 19.05 L-13.05 17.95 -11.4 17.15 -7.2 16.8 -3.0 17.4 1.2 17.7 Q3.55 17.55 5.6 16.55 6.9 15.85 8.75 15.5 L11.8 15.0 14.75 14.05 Q16.25 13.25 17.5 11.75 18.15 12.15 18.1 13.05 L17.7 14.55 Q16.2 16.9 11.6 18.4 7.0 19.9 2.3 19.75 L-1.65 19.5 -5.35 19.25 Q-9.45 19.05 -11.65 19.95 L-13.6 20.9 -15.45 21.7 -19.55 21.55 Q-20.75 21.0 -21.55 19.9 -22.4 18.9 -22.6 17.65 -22.85 16.35 -22.4 15.25 -21.9 14.0 -20.7 13.2 -18.95 11.95 -16.5 11.65 L-11.85 11.55 -6.9 11.35 Q-4.0 10.95 -1.65 9.7 0.2 12.5 2.95 13.1 L2.55 14.0 Q8.5 8.95 13.9 6.85 18.4 5.05 21.25 5.6 22.45 5.85 23.0 6.5 23.55 7.15 23.3 8.0 M7.5 5.6 L10.05 6.25 Q10.15 6.9 10.4 7.55 L7.8 9.15 Q7.95 7.75 7.5 5.6" fill="#ffcc00" fill-rule="evenodd" stroke="none"/>
    <path d="M16.55 11.45 Q15.9 12.75 12.85 13.9 10.15 14.9 8.3 15.0 12.95 12.4 16.25 11.2 L16.55 11.45 M-13.85 17.3 L-15.4 18.25 -17.75 19.35 Q-18.65 19.7 -19.45 18.15 -18.8 16.8 -16.0 16.55 -14.7 16.4 -11.95 16.6 -12.75 16.65 -13.85 17.3" fill="#660033" fill-rule="evenodd" stroke="none"/>
    <path d="M7.5 -8.8 Q8.35 -11.1 8.55 -12.85 L11.0 -9.9 12.35 -5.8 Q13.25 -2.75 13.2 -0.25 11.3 0.15 10.35 2.85 L7.55 3.05 Q6.15 -0.7 6.4 -3.6 6.6 -6.55 7.5 -8.8 M2.95 -0.6 Q1.4 -0.55 0.1 0.45 -1.05 1.35 -1.75 2.9 -2.45 4.35 -2.5 5.95 -2.55 7.6 -1.9 8.9 -4.4 10.8 -9.15 10.95 -10.7 9.95 -11.5 8.1 -12.25 6.4 -12.3 4.45 -12.35 1.9 -11.1 -0.6 -10.3 -2.35 -8.35 -4.85 L-5.2 -9.0 Q-3.65 -11.45 -3.1 -13.65 0.15 -12.6 1.8 -8.2 3.1 -4.7 2.95 -0.6 M8.45 5.35 L7.75 3.8 Q9.1 3.0 10.2 3.45 9.85 4.3 9.95 5.45 L9.95 5.85 8.45 5.35" fill="#ccffff" fill-rule="evenodd" stroke="none"/>
  </g>
</svg>
