<?xml version="1.0" encoding="UTF-8" standalone="no"?>
<svg xmlns:xlink="http://www.w3.org/1999/xlink" height="44.15px" width="74.05px" xmlns="http://www.w3.org/2000/svg">
  <g transform="matrix(1.0, 0.0, 0.0, 1.0, 5.8, 20.85)">
    <path d="M67.5 -4.35 Q67.4 -5.55 66.4 -5.55 L63.8 -5.0 Q58.95 -3.45 56.6 -4.0 L56.25 -2.6 Q55.35 -5.45 59.25 -9.45 L63.0 -13.2 Q65.4 -15.85 65.2 -16.75 64.8 -18.35 62.0 -17.6 59.15 -16.85 56.75 -14.65 54.85 -12.95 52.4 -10.05 L48.9 -6.5 49.55 -5.95 Q48.8 -5.75 48.4 -6.25 46.55 -8.0 49.5 -13.65 L51.35 -17.55 Q52.0 -19.4 51.05 -20.0 48.85 -21.4 45.05 -16.25 41.25 -11.15 40.6 -6.45 L40.05 1.6 39.1 9.05 38.85 10.05 38.9 10.0 39.6 9.1 Q39.3 10.45 38.4 11.8 L36.4 14.2 34.95 15.5 Q33.35 16.75 33.0 17.35 32.45 18.35 33.45 19.35 L33.5 19.4 34.0 19.8 Q34.9 20.35 36.3 20.2 38.0 19.9 39.8 18.7 44.0 15.7 44.0 11.55 44.5 12.5 44.15 13.6 46.85 12.9 49.05 9.75 51.5 6.2 50.05 3.35 51.2 4.3 51.15 6.55 51.0 8.8 49.7 10.3 55.55 7.4 57.1 0.95 L57.25 1.95 Q60.7 2.0 64.2 -0.2 67.6 -2.35 67.5 -4.35 M1.6 -5.5 L1.4 -5.65 1.65 -5.55 2.75 -4.5 5.15 -2.15 Q9.1 1.3 13.55 2.15 L17.5 1.9 19.15 1.55 Q20.0 1.4 20.5 1.55 L21.7 1.55 22.5 1.2 23.25 1.0 24.1 1.55 Q24.8 0.2 26.1 -0.95 27.45 -2.1 29.0 -2.7 L32.1 -3.15 Q33.6 -2.95 36.35 -1.05 L39.55 -1.55 Q39.55 -5.0 39.85 -6.6 40.3 -10.6 43.9 -15.95 48.0 -22.15 51.3 -20.5 52.6 -19.95 52.2 -18.05 51.95 -16.8 50.7 -14.15 49.05 -10.95 48.75 -9.95 47.95 -7.85 48.6 -6.9 L51.15 -9.5 54.8 -13.85 Q58.75 -18.3 62.75 -18.6 64.35 -18.75 65.2 -18.1 66.1 -17.4 65.85 -16.25 65.4 -14.3 61.65 -10.75 57.65 -6.95 56.85 -4.65 L60.6 -4.8 64.1 -5.85 66.9 -6.3 Q68.05 -6.05 68.25 -4.35 68.45 -2.05 65.1 0.25 61.5 2.6 57.15 2.6 56.55 5.55 54.25 8.05 51.9 10.45 48.75 11.4 46.95 13.4 44.1 14.15 43.1 17.95 38.95 19.95 35.45 21.7 33.55 20.35 L31.75 22.05 Q26.95 25.55 21.8 19.25 14.2 21.25 6.45 16.75 3.0 14.8 0.05 11.8 -2.65 9.1 -4.65 5.95 L-4.85 5.6 -4.55 5.75 -3.9 6.35 -2.4 8.1 Q0.2 11.1 2.5 13.0 10.65 19.7 20.95 18.1 20.0 13.15 20.75 9.8 21.1 8.3 21.9 6.35 L23.75 2.15 Q20.65 2.1 14.55 9.45 15.2 7.65 16.85 5.85 L19.9 2.85 Q20.15 1.2 15.95 3.6 14.6 4.35 12.65 5.65 L10.3 7.2 Q10.85 6.15 12.3 5.25 L13.55 4.45 14.75 3.65 Q11.1 2.85 8.8 1.7 6.95 0.75 5.65 -0.65 L1.6 -5.5 M28.3 13.3 Q29.05 15.1 30.25 15.75 L32.2 16.7 Q29.3 16.95 28.05 14.9 26.9 13.0 27.4 9.8 27.85 6.7 29.6 3.8 31.35 0.7 33.8 -0.75 34.15 -1.8 32.1 -2.15 29.35 -2.6 26.8 -0.2 24.5 1.9 22.95 5.65 21.45 9.25 21.25 12.8 21.0 16.45 22.35 18.45 24.7 21.9 27.4 22.3 29.7 22.65 32.0 20.8 L33.05 19.9 32.95 19.8 Q31.4 17.9 33.7 15.75 L35.85 13.95 36.7 13.1 37.25 11.1 36.35 11.1 Q31.95 11.45 28.1 12.45 L28.15 12.9 28.3 13.35 28.3 13.3 M39.5 -0.65 L34.75 -0.05 Q30.9 3.1 29.5 6.95 28.75 8.95 28.7 11.2 L37.4 10.5 38.05 10.45 38.35 9.05 Q39.05 5.5 39.5 -0.65" fill="#000000" fill-rule="evenodd" stroke="none"/>
    <path d="M67.5 -4.35 Q67.6 -2.35 64.2 -0.2 60.7 2.0 57.25 1.95 L57.1 0.95 Q55.55 7.4 49.7 10.3 51.0 8.8 51.15 6.55 51.2 4.3 50.05 3.35 51.5 6.2 49.05 9.75 46.85 12.9 44.15 13.6 44.5 12.5 44.0 11.55 44.0 15.7 39.8 18.7 38.0 19.9 36.3 20.2 34.9 20.35 34.0 19.8 L33.5 19.4 33.45 19.35 Q32.45 18.35 33.0 17.35 33.35 16.75 34.95 15.5 L36.4 14.2 38.4 11.8 Q39.3 10.45 39.6 9.1 L38.9 10.0 38.85 10.05 39.1 9.05 40.05 1.6 40.6 -6.45 Q41.25 -11.15 45.05 -16.25 48.85 -21.4 51.05 -20.0 52.0 -19.4 51.35 -17.55 L49.5 -13.65 Q46.55 -8.0 48.4 -6.25 48.8 -5.75 49.55 -5.95 L48.9 -6.5 52.4 -10.05 Q54.85 -12.95 56.75 -14.65 59.15 -16.85 62.0 -17.6 64.8 -18.35 65.2 -16.75 65.4 -15.85 63.0 -13.2 L59.25 -9.45 Q55.35 -5.45 56.25 -2.6 L56.6 -4.0 Q58.95 -3.45 63.8 -5.0 L66.4 -5.55 Q67.4 -5.55 67.5 -4.35 M28.3 13.3 L28.3 13.35 28.15 12.9 28.3 13.3 M39.5 -0.65 Q39.05 5.5 38.35 9.05 L38.05 10.45 37.4 10.5 28.7 11.2 Q28.75 8.95 29.5 6.95 30.9 3.1 34.75 -0.05 L39.5 -0.65" fill="#ffffff" fill-rule="evenodd" stroke="none"/>
    <path d="M28.1 12.45 Q31.95 11.45 36.35 11.1 L37.25 11.1 36.7 13.1 35.85 13.95 33.7 15.75 Q31.4 17.9 32.95 19.8 L33.05 19.9 32.0 20.8 Q29.7 22.65 27.4 22.3 24.7 21.9 22.35 18.45 21.0 16.45 21.25 12.8 21.45 9.25 22.95 5.65 24.5 1.9 26.8 -0.2 29.35 -2.6 32.1 -2.15 34.15 -1.8 33.8 -0.75 31.35 0.7 29.6 3.8 27.85 6.7 27.4 9.8 26.9 13.0 28.05 14.9 29.3 16.95 32.2 16.7 L30.25 15.75 Q29.05 15.1 28.3 13.3 L28.15 12.9 28.1 12.45" fill="#990000" fill-rule="evenodd" stroke="none"/>
    <path d="M-4.55 5.75 Q-8.9 -7.55 1.6 -5.5 L5.65 -0.65 Q6.95 0.75 8.8 1.7 11.1 2.85 14.75 3.65 L13.55 4.45 12.3 5.25 Q10.85 6.15 10.3 7.2 L12.65 5.65 Q14.6 4.35 15.95 3.6 20.15 1.2 19.9 2.85 L16.85 5.85 Q15.2 7.65 14.55 9.45 20.65 2.1 23.75 2.15 L21.9 6.35 Q21.1 8.3 20.75 9.8 20.0 13.15 20.95 18.1 10.65 19.7 2.5 13.0 0.2 11.1 -2.4 8.1 L-3.9 6.35 -4.55 5.75" fill="#660099" fill-rule="evenodd" stroke="none"/>
  </g>
</svg>
