<?xml version="1.0" encoding="UTF-8" standalone="no"?>
<svg xmlns:xlink="http://www.w3.org/1999/xlink" height="29.95px" width="29.15px" xmlns="http://www.w3.org/2000/svg">
  <g transform="matrix(1.0, 0.0, 0.0, 1.0, 14.55, 14.95)">
    <path d="M13.85 7.1 Q13.8 4.35 12.85 1.3 11.8 -2.4 9.8 -5.3 7.4 -8.75 4.05 -10.65 4.7 -6.5 5.8 -4.25 L6.5 -4.95 Q6.9 -5.35 7.35 -5.4 7.1 -3.75 5.15 -2.65 3.3 -1.65 0.8 -1.65 -1.9 -1.65 -4.1 -3.0 -6.65 -4.5 -7.9 -7.45 L-7.1 -7.4 -6.4 -6.6 -8.8 -11.85 Q-11.15 -11.75 -12.35 -8.35 -13.5 -5.15 -13.1 -0.65 -12.7 4.1 -10.65 7.85 -8.35 12.1 -4.6 13.7 -2.85 14.45 -1.25 12.8 -0.2 11.65 1.35 8.5 3.3 4.5 4.0 3.4 5.6 0.75 7.35 0.2 L5.65 1.95 7.6 4.55 9.85 7.55 Q12.55 11.0 13.3 10.25 13.9 9.6 13.85 7.1 M2.4 -14.95 L3.65 -14.95 3.65 -12.95 6.9 -9.65 10.0 -6.35 Q13.25 -2.5 14.0 1.7 14.6 5.3 14.6 7.85 14.55 12.6 12.15 11.35 11.45 11.0 8.65 7.5 L4.95 2.95 Q4.15 3.95 3.35 5.7 L2.05 9.0 0.7 12.05 -1.0 14.3 Q-2.15 15.15 -3.7 15.0 -5.15 14.8 -6.7 13.65 -10.0 11.35 -12.3 6.65 -14.8 1.6 -14.55 -3.3 -14.25 -9.0 -10.15 -12.7 L-9.7 -13.2 -10.2 -14.95 -8.9 -14.95 -7.2 -11.0 -4.7 -4.65 Q-2.9 -3.4 -0.25 -3.1 L4.55 -3.4 3.05 -10.15 Q2.55 -12.75 2.4 -14.95" fill="#000000" fill-rule="evenodd" stroke="none"/>
    <path d="M13.85 7.1 Q13.9 9.6 13.3 10.25 12.55 11.0 9.85 7.55 L7.6 4.55 5.65 1.95 7.35 0.2 Q5.6 0.75 4.0 3.4 3.3 4.5 1.35 8.5 -0.2 11.65 -1.25 12.8 -2.85 14.45 -4.6 13.7 -8.35 12.1 -10.65 7.85 -12.7 4.1 -13.1 -0.65 -13.5 -5.15 -12.35 -8.35 -11.15 -11.75 -8.8 -11.85 L-6.4 -6.6 -7.1 -7.4 -7.9 -7.45 Q-6.65 -4.5 -4.1 -3.0 -1.9 -1.65 0.8 -1.65 3.3 -1.65 5.15 -2.65 7.1 -3.75 7.35 -5.4 6.9 -5.35 6.5 -4.95 L5.8 -4.25 Q4.7 -6.5 4.05 -10.65 7.4 -8.75 9.8 -5.3 11.8 -2.4 12.85 1.3 13.8 4.35 13.85 7.1" fill="#990000" fill-rule="evenodd" stroke="none"/>
    <path d="M-8.9 -14.95 L2.4 -14.95 Q2.55 -12.75 3.05 -10.15 L4.55 -3.4 -0.25 -3.1 Q-2.9 -3.4 -4.7 -4.65 L-7.2 -11.0 -8.9 -14.95" fill="#ffffff" fill-rule="evenodd" stroke="none"/>
  </g>
</svg>
