<?xml version="1.0" encoding="UTF-8" standalone="no"?>
<svg xmlns:xlink="http://www.w3.org/1999/xlink" height="74.0px" width="71.15px" xmlns="http://www.w3.org/2000/svg">
  <g transform="matrix(1.0, 0.0, 0.0, 1.0, 35.55, 37.0)">
    <path d="M-16.15 -23.15 L-17.0 -21.65 Q-20.75 -16.4 -20.75 -11.0 L-20.65 -9.5 -20.65 -8.0 Q-21.0 -5.8 -26.5 -6.25 -29.85 -6.55 -33.65 -7.55 -32.6 -6.1 -30.1 -5.05 L-27.95 -4.2 Q-26.75 -3.75 -25.95 -3.25 -27.35 -1.6 -29.95 0.15 L-34.35 3.0 -29.85 2.7 -25.4 2.25 -30.2 9.2 -26.7 7.4 Q-24.6 6.4 -23.0 6.15 -22.9 7.05 -23.7 10.0 L-24.95 13.85 Q-23.65 12.4 -21.35 10.5 -18.85 8.4 -18.9 9.05 -18.4 13.9 -15.6 16.75 -16.7 13.05 -15.65 8.7 L-16.4 6.65 -17.05 4.55 -15.35 7.65 Q-16.65 1.75 -15.8 -0.35 L-15.05 5.25 Q-14.45 8.25 -13.3 10.55 -13.0 7.75 -11.6 6.25 -10.45 5.0 -8.25 4.45 L-4.05 3.85 0.25 3.0 Q-2.9 0.95 -4.4 -3.0 -5.6 -6.35 -5.6 -10.65 L-7.1 -6.95 Q-7.1 -9.55 -5.65 -12.1 L-2.35 -16.35 1.15 -20.35 Q2.9 -22.65 3.25 -24.65 L3.3 -26.0 Q3.3 -26.8 3.6 -27.25 4.05 -26.5 3.9 -25.35 L3.4 -23.45 Q7.35 -20.2 9.45 -15.1 11.4 -10.3 11.25 -4.9 12.55 -6.15 13.5 -5.75 11.6 -10.35 11.6 -15.9 L11.75 -20.85 11.85 -26.15 11.8 -26.75 11.85 -27.3 12.35 -25.4 12.2 -23.4 14.35 -21.35 16.15 -19.0 15.65 -21.9 14.55 -26.5 Q12.7 -32.4 10.8 -30.55 10.3 -30.05 9.65 -28.1 L8.85 -25.3 Q8.1 -25.6 8.5 -27.1 L6.35 -28.15 7.1 -24.15 7.05 -23.7 Q5.1 -29.6 3.3 -30.6 1.8 -31.4 0.15 -28.9 L-2.8 -22.95 Q-4.7 -18.7 -5.9 -17.15 L-6.25 -17.3 Q-3.1 -21.5 -0.7 -28.85 L-2.3 -28.55 -3.95 -28.05 Q-5.9 -27.5 -7.1 -28.3 -7.5 -29.45 -7.0 -30.95 L-6.5 -32.2 -6.0 -33.4 Q-7.85 -32.35 -11.15 -29.0 -12.65 -32.65 -12.4 -35.25 -13.25 -33.4 -13.65 -30.9 -13.95 -29.25 -14.05 -26.4 L-17.25 -27.25 -20.5 -27.45 -18.1 -26.4 Q-16.5 -25.5 -16.15 -24.8 -15.85 -24.05 -16.15 -23.15 M-17.65 -24.75 Q-18.4 -26.4 -21.6 -27.25 -22.05 -28.5 -18.85 -28.1 L-14.95 -27.3 Q-15.15 -29.9 -14.4 -32.4 -13.65 -34.95 -12.1 -37.0 -11.6 -32.4 -10.65 -30.45 -9.15 -32.5 -4.45 -34.8 L-6.0 -31.3 Q-6.7 -29.75 -6.65 -29.25 -6.55 -28.65 -5.2 -28.7 -3.85 -28.85 -0.45 -29.75 1.55 -32.2 3.05 -32.35 4.85 -32.55 5.8 -29.35 L8.8 -27.8 9.15 -28.95 9.55 -30.1 Q10.1 -31.3 11.15 -31.75 14.2 -33.0 15.55 -26.45 L16.3 -21.3 16.75 -17.8 Q17.05 -16.75 18.1 -14.5 L19.3 -11.1 Q21.35 -10.15 24.15 -10.6 L28.95 -11.95 25.65 -7.75 30.9 -5.15 Q27.95 -3.85 27.05 -2.9 L27.25 -0.65 27.05 1.6 30.6 0.8 Q33.1 0.35 34.05 0.75 L35.1 1.85 35.6 3.35 Q35.65 4.2 35.35 4.9 35.05 5.7 34.45 6.1 31.3 8.15 26.6 9.0 L22.95 9.6 19.7 10.4 Q16.45 11.55 15.1 14.7 13.45 18.5 13.9 26.4 14.85 25.75 16.4 25.4 L19.2 25.25 Q20.55 25.5 20.8 26.35 21.1 27.3 19.8 29.0 L17.3 30.55 12.05 33.5 Q4.4 37.5 3.0 36.95 -0.8 35.35 -5.45 28.8 L-8.95 23.2 -11.35 18.4 -12.9 14.2 Q-13.85 11.7 -14.9 10.2 -15.95 12.0 -15.35 17.65 -19.25 13.6 -19.7 10.15 L-22.95 13.05 Q-24.9 15.1 -26.15 15.7 L-26.3 15.55 Q-25.55 14.05 -25.0 11.65 L-24.0 7.65 Q-26.6 8.05 -31.9 10.55 L-31.9 10.3 -29.15 6.9 -26.75 3.2 -31.2 3.6 -35.55 3.3 -31.5 0.35 Q-29.0 -1.4 -27.7 -2.9 -31.8 -4.0 -35.15 -8.4 L-32.3 -7.7 -28.95 -6.95 Q-24.8 -6.35 -22.85 -7.7 -21.55 -8.6 -21.6 -10.3 L-21.7 -11.85 -21.7 -13.4 Q-21.5 -14.9 -20.1 -17.35 L-18.95 -19.35 -17.95 -21.3 Q-17.05 -23.4 -17.65 -24.75 M16.0 6.4 L15.8 6.75 Q15.05 7.75 13.9 8.2 L11.65 8.5 Q10.4 8.4 9.35 7.7 8.2 7.0 7.55 5.9 5.9 3.2 7.25 -0.65 5.25 1.35 1.45 3.45 0.1 4.2 -2.75 4.55 L-5.1 4.8 -7.45 5.15 Q-10.0 5.65 -11.2 6.9 -12.7 8.45 -12.45 11.5 -12.3 14.0 -10.3 18.5 -8.3 22.85 -5.5 27.1 -2.55 31.6 0.1 34.05 3.1 36.8 4.95 36.1 L7.6 34.8 12.8 32.05 Q20.1 27.95 19.85 26.75 19.6 25.6 17.0 26.2 L15.05 26.85 Q14.15 27.25 13.85 27.65 L3.4 32.95 Q2.5 33.5 -0.25 30.7 -3.0 27.85 -5.25 23.95 -7.85 19.5 -8.2 16.1 -8.6 12.05 -5.6 10.45 L-1.65 10.25 Q-0.15 10.65 2.7 12.15 L7.05 14.2 10.95 14.35 Q13.05 13.55 15.6 12.05 L20.05 9.4 Q22.65 7.8 24.55 6.9 27.1 5.7 29.5 5.2 L29.5 5.35 26.0 6.8 Q23.95 7.7 22.6 8.55 L25.55 7.95 29.75 7.05 Q35.0 5.6 34.95 3.15 34.9 1.55 32.35 1.5 30.25 1.45 26.6 2.5 L20.4 4.65 Q17.6 5.8 16.55 6.45 L16.0 6.4 16.1 6.2 15.85 6.35 16.0 6.4 M16.1 6.2 Q18.9 4.25 20.9 3.65 18.95 1.95 18.45 -1.3 L17.05 -1.0 Q16.4 -0.65 16.15 0.05 17.3 3.85 16.1 6.2 M19.05 -4.15 Q19.65 -5.45 19.5 -6.55 18.8 -11.75 17.3 -15.3 15.45 -19.6 12.15 -22.7 11.0 -12.9 14.2 -5.5 L15.25 -4.7 16.45 -3.5 Q17.95 -1.95 18.6 -2.15 L18.65 -3.2 19.05 -4.15 M16.25 -2.9 L15.0 -4.15 Q13.3 -5.5 12.2 -4.8 14.45 -4.05 15.85 -0.65 16.15 -1.35 17.25 -1.9 L16.25 -2.9 M19.7 -9.8 L20.35 -5.95 Q22.15 -7.4 24.0 -6.65 25.65 -5.95 26.65 -3.8 27.65 -4.6 29.65 -5.35 L26.75 -6.45 24.05 -7.55 25.75 -9.25 27.5 -10.9 Q23.9 -9.55 19.7 -9.8 M19.95 -2.6 Q19.85 -1.2 20.4 0.05 20.1 -0.4 19.9 -1.15 L19.7 -2.8 Q19.65 -4.85 20.85 -5.1 20.0 -4.1 19.95 -2.6 M25.15 -5.15 Q24.05 -6.6 22.45 -6.3 20.95 -6.1 19.95 -4.6 18.9 -3.0 19.15 -1.05 19.4 1.3 21.45 3.4 L26.15 1.8 Q26.7 0.3 26.45 -1.8 26.1 -3.9 25.15 -5.15 M8.95 -3.7 L10.8 -4.8 Q10.95 -9.85 9.05 -14.8 6.95 -20.45 3.25 -23.0 2.5 -21.5 -1.25 -16.95 -4.7 -12.75 -4.95 -11.85 -5.5 -10.2 -5.25 -7.95 -5.0 -5.85 -4.1 -3.65 -3.2 -1.45 -1.9 0.25 -0.55 2.05 1.0 2.9 2.6 2.15 4.55 0.65 L7.8 -1.9 Q8.05 -2.9 8.95 -3.7 M11.95 -4.55 Q10.7 -4.85 9.55 -3.55 8.5 -2.35 7.95 -0.25 7.4 1.9 7.65 3.85 8.0 6.5 9.9 7.55 L13.4 7.65 Q15.3 6.75 15.8 4.45 16.35 1.75 14.6 -1.75 13.35 -4.2 11.95 -4.55 M8.55 -1.4 Q8.9 -2.6 9.7 -3.1 8.5 -1.15 8.55 1.3 8.55 3.8 9.9 5.6 9.2 5.0 8.75 3.75 8.3 2.55 8.25 1.15 8.2 -0.25 8.55 -1.4 M10.5 22.4 Q9.9 17.9 10.0 15.75 L7.75 15.4 Q6.9 16.75 4.8 17.3 L3.2 20.65 1.35 23.75 0.95 23.45 Q1.65 21.0 0.95 17.7 -2.5 18.2 -4.3 16.85 -6.25 15.35 -5.8 11.9 -7.65 13.5 -7.2 16.6 -6.85 19.2 -4.9 22.65 -3.3 25.55 -0.95 28.45 1.15 31.05 2.75 32.35 6.3 30.05 11.05 27.65 L10.5 22.4 M2.45 15.3 L1.4 15.2 0.45 15.05 Q1.3 16.4 1.7 18.25 2.05 19.95 1.85 21.55 L3.35 18.95 Q4.15 17.45 4.1 16.1 3.65 15.4 2.45 15.3 M11.75 27.25 L13.4 26.6 Q12.85 23.5 13.2 19.9 13.55 16.6 14.6 13.45 L10.95 15.55 Q10.4 21.2 11.75 27.25" fill="#000000" fill-rule="evenodd" stroke="none"/>
    <path d="M-16.15 -23.15 Q-15.85 -24.05 -16.15 -24.8 -16.5 -25.5 -18.1 -26.4 L-20.5 -27.45 -17.25 -27.25 -14.05 -26.4 Q-13.95 -29.25 -13.65 -30.9 -13.25 -33.4 -12.4 -35.25 -12.65 -32.65 -11.15 -29.0 -7.85 -32.35 -6.0 -33.4 L-6.5 -32.2 -7.0 -30.95 Q-7.5 -29.45 -7.1 -28.3 -5.9 -27.5 -3.95 -28.05 L-2.3 -28.55 -0.7 -28.85 Q-3.1 -21.5 -6.25 -17.3 L-5.9 -17.15 Q-4.7 -18.7 -2.8 -22.95 L0.15 -28.9 Q1.8 -31.4 3.3 -30.6 5.1 -29.6 7.05 -23.7 L7.1 -24.15 6.35 -28.15 8.5 -27.1 Q8.1 -25.6 8.85 -25.3 L9.65 -28.1 Q10.3 -30.05 10.8 -30.55 12.7 -32.4 14.55 -26.5 L15.65 -21.9 16.15 -19.0 14.35 -21.35 12.2 -23.4 12.35 -25.4 11.85 -27.3 11.8 -26.75 11.85 -26.15 11.75 -20.85 11.6 -15.9 Q11.6 -10.35 13.5 -5.75 12.55 -6.15 11.25 -4.9 11.4 -10.3 9.45 -15.1 7.35 -20.2 3.4 -23.45 L3.9 -25.35 Q4.05 -26.5 3.6 -27.25 3.3 -26.8 3.3 -26.0 L3.25 -24.65 Q2.9 -22.65 1.15 -20.35 L-2.35 -16.35 -5.65 -12.1 Q-7.1 -9.55 -7.1 -6.95 L-5.6 -10.65 Q-5.6 -6.35 -4.4 -3.0 -2.9 0.95 0.25 3.0 L-4.05 3.85 -8.25 4.45 Q-10.45 5.0 -11.6 6.25 -13.0 7.75 -13.3 10.55 -14.45 8.25 -15.05 5.25 L-15.8 -0.35 Q-16.65 1.75 -15.35 7.65 L-17.05 4.55 -16.4 6.65 -15.65 8.7 Q-16.7 13.05 -15.6 16.75 -18.4 13.9 -18.9 9.05 -18.85 8.4 -21.35 10.5 -23.65 12.4 -24.95 13.85 L-23.7 10.0 Q-22.9 7.05 -23.0 6.15 -24.6 6.4 -26.7 7.4 L-30.2 9.2 -25.4 2.25 -29.85 2.7 -34.35 3.0 -29.95 0.15 Q-27.35 -1.6 -25.95 -3.25 -26.75 -3.75 -27.95 -4.2 L-30.1 -5.05 Q-32.6 -6.1 -33.65 -7.55 -29.85 -6.55 -26.5 -6.25 -21.0 -5.8 -20.65 -8.0 L-20.65 -9.5 -20.75 -11.0 Q-20.75 -16.4 -17.0 -21.65 L-16.15 -23.15 M16.0 6.4 L15.85 6.35 16.1 6.2 16.0 6.4 M19.7 -9.8 Q23.9 -9.55 27.5 -10.9 L25.75 -9.25 24.05 -7.55 26.75 -6.45 29.65 -5.35 Q27.65 -4.6 26.65 -3.8 25.65 -5.95 24.0 -6.65 22.15 -7.4 20.35 -5.95 L19.7 -9.8 M19.95 -2.6 Q20.0 -4.1 20.85 -5.1 19.65 -4.85 19.7 -2.8 L19.9 -1.15 Q20.1 -0.4 20.4 0.05 19.85 -1.2 19.95 -2.6 M25.15 -5.15 Q26.1 -3.9 26.45 -1.8 26.7 0.3 26.15 1.8 L21.45 3.4 Q19.4 1.3 19.15 -1.05 18.9 -3.0 19.95 -4.6 20.95 -6.1 22.45 -6.3 24.05 -6.6 25.15 -5.15 M11.95 -4.55 Q13.35 -4.2 14.6 -1.75 16.35 1.75 15.8 4.45 15.3 6.75 13.4 7.65 L9.9 7.55 Q8.0 6.5 7.65 3.85 7.4 1.9 7.95 -0.25 8.5 -2.35 9.55 -3.55 10.7 -4.85 11.95 -4.55 M8.55 -1.4 Q8.2 -0.25 8.25 1.15 8.3 2.55 8.75 3.75 9.2 5.0 9.9 5.6 8.55 3.8 8.55 1.3 8.5 -1.15 9.7 -3.1 8.9 -2.6 8.55 -1.4" fill="#ffffff" fill-rule="evenodd" stroke="none"/>
    <path d="M16.0 6.4 L16.55 6.45 Q17.6 5.8 20.4 4.65 L26.6 2.5 Q30.25 1.45 32.35 1.5 34.9 1.55 34.95 3.15 35.0 5.6 29.75 7.05 L25.55 7.95 22.6 8.55 Q23.95 7.7 26.0 6.8 L29.5 5.35 29.5 5.2 Q27.1 5.7 24.55 6.9 22.65 7.8 20.05 9.4 L15.6 12.05 Q13.05 13.55 10.95 14.35 L7.05 14.2 2.7 12.15 Q-0.15 10.65 -1.65 10.25 L-5.6 10.45 Q-8.6 12.05 -8.2 16.1 -7.85 19.5 -5.25 23.95 -3.0 27.85 -0.25 30.7 2.5 33.5 3.4 32.95 L13.85 27.65 Q14.15 27.25 15.05 26.85 L17.0 26.2 Q19.6 25.6 19.85 26.75 20.1 27.95 12.8 32.05 L7.6 34.8 4.95 36.1 Q3.1 36.8 0.1 34.05 -2.55 31.6 -5.5 27.1 -8.3 22.85 -10.3 18.5 -12.3 14.0 -12.45 11.5 -12.7 8.45 -11.2 6.9 -10.0 5.65 -7.45 5.15 L-5.1 4.8 -2.75 4.55 Q0.1 4.2 1.45 3.45 5.25 1.35 7.25 -0.65 5.9 3.2 7.55 5.9 8.2 7.0 9.35 7.7 10.4 8.4 11.65 8.5 L13.9 8.2 Q15.05 7.75 15.8 6.75 L16.0 6.4 M16.1 6.2 Q17.3 3.85 16.15 0.05 16.4 -0.65 17.05 -1.0 L18.45 -1.3 Q18.95 1.95 20.9 3.65 18.9 4.25 16.1 6.2 M16.25 -2.9 L17.25 -1.9 Q16.15 -1.35 15.85 -0.65 14.45 -4.05 12.2 -4.8 13.3 -5.5 15.0 -4.15 L16.25 -2.9 M11.75 27.25 Q10.4 21.2 10.95 15.55 L14.6 13.45 Q13.55 16.6 13.2 19.9 12.85 23.5 13.4 26.6 L11.75 27.25" fill="#ffcc00" fill-rule="evenodd" stroke="none"/>
    <path d="M19.05 -4.15 L18.65 -3.2 18.6 -2.15 Q17.95 -1.95 16.45 -3.5 L15.25 -4.7 14.2 -5.5 Q11.0 -12.9 12.15 -22.7 15.45 -19.6 17.3 -15.3 18.8 -11.75 19.5 -6.55 19.65 -5.45 19.05 -4.15 M8.95 -3.7 Q8.05 -2.9 7.8 -1.9 L4.55 0.65 Q2.6 2.15 1.0 2.9 -0.55 2.05 -1.9 0.25 -3.2 -1.45 -4.1 -3.65 -5.0 -5.85 -5.25 -7.95 -5.5 -10.2 -4.95 -11.85 -4.7 -12.75 -1.25 -16.95 2.5 -21.5 3.25 -23.0 6.95 -20.45 9.05 -14.8 10.95 -9.85 10.8 -4.8 L8.95 -3.7" fill="#ccffff" fill-rule="evenodd" stroke="none"/>
    <path d="M10.5 22.4 L11.05 27.65 Q6.3 30.05 2.75 32.35 1.15 31.05 -0.95 28.45 -3.3 25.55 -4.9 22.65 -6.85 19.2 -7.2 16.6 -7.65 13.5 -5.8 11.9 -6.25 15.35 -4.3 16.85 -2.5 18.2 0.95 17.7 1.65 21.0 0.95 23.45 L1.35 23.75 3.2 20.65 4.8 17.3 Q6.9 16.75 7.75 15.4 L10.0 15.75 Q9.9 17.9 10.5 22.4" fill="#ff6666" fill-rule="evenodd" stroke="none"/>
    <path d="M2.45 15.3 Q3.65 15.4 4.1 16.1 4.15 17.45 3.35 18.95 L1.85 21.55 Q2.05 19.95 1.7 18.25 1.3 16.4 0.45 15.05 L1.4 15.2 2.45 15.3" fill="#ff3333" fill-rule="evenodd" stroke="none"/>
  </g>
</svg>
