<?xml version="1.0" encoding="UTF-8" standalone="no"?>
<svg xmlns:xlink="http://www.w3.org/1999/xlink" height="315.7px" width="366.25px" xmlns="http://www.w3.org/2000/svg">
  <g transform="matrix(1.0, 0.0, 0.0, 1.0, 208.8, 140.35)">
    <path d="M132.95 -140.35 L154.6 -140.35 63.95 -58.85 Q59.5 -63.6 54.2 -67.85 L132.95 -140.35 M-191.1 171.05 L-201.4 165.2 4.75 -22.3 Q9.05 -17.85 14.55 -14.55 L-191.1 171.05 M44.85 -74.5 L44.9 -74.55 45.1 -74.35 44.85 -74.5 M52.45 -66.25 L53.55 -65.4 55.95 -63.45 Q61.45 -58.65 66.0 -53.1 L22.5 -13.1 Q20.25 -13.65 17.95 -15.1 14.55 -17.0 11.55 -19.5 L6.6 -24.05 3.1 -27.85 2.55 -28.45 0.2 -31.4 43.5 -72.8 46.7 -70.6 47.95 -69.7 52.45 -66.25 M-1.45 -30.3 L-1.25 -30.0 -1.2 -29.9 -1.5 -30.2 -1.45 -30.3" fill="#003399" fill-rule="evenodd" stroke="none"/>
    <path d="M154.6 -140.35 L157.45 -140.35 65.4 -57.25 68.65 -52.9 22.9 -11.1 Q18.15 -12.15 16.85 -13.25 L-191.1 175.35 -191.1 171.05 14.55 -14.55 Q9.05 -17.85 4.75 -22.3 L-201.4 165.2 -208.8 165.2 -2.8 -32.1 -5.3 -36.7 33.9 -76.35 33.35 -75.95 36.95 -78.95 42.6 -75.9 110.55 -140.35 132.95 -140.35 54.2 -67.85 Q59.5 -63.6 63.95 -58.85 L154.6 -140.35 M-1.45 -30.3 L-1.5 -30.2 -1.2 -29.9 -1.25 -30.0 -1.45 -30.3 M52.45 -66.25 L47.95 -69.7 46.7 -70.6 43.5 -72.8 0.2 -31.4 2.55 -28.45 3.1 -27.85 6.6 -24.05 11.55 -19.5 Q14.55 -17.0 17.95 -15.1 20.25 -13.65 22.5 -13.1 L66.0 -53.1 Q61.45 -58.65 55.95 -63.45 L53.55 -65.4 52.45 -66.25 M44.85 -74.5 L45.1 -74.35 44.9 -74.55 44.85 -74.5" fill="#000066" fill-rule="evenodd" stroke="none"/>
  </g>
</svg>
