<?xml version="1.0" encoding="UTF-8" standalone="no"?>
<svg xmlns:xlink="http://www.w3.org/1999/xlink" height="20.85px" width="27.65px" xmlns="http://www.w3.org/2000/svg">
  <g transform="matrix(1.0, 0.0, 0.0, 1.0, 13.55, 10.25)">
    <path d="M-10.2 -6.3 Q-9.45 -7.25 -8.1 -7.3 -3.65 -7.55 1.95 -4.25 6.6 -1.5 10.35 2.65 12.3 4.75 10.2 6.7 9.3 7.5 8.25 7.5 7.0 7.5 6.1 6.55 4.7 4.0 -0.85 0.85 -6.35 -2.3 -8.55 -1.65 -9.35 -1.8 -9.95 -2.35 -10.7 -3.15 -10.75 -4.3 -10.85 -5.45 -10.2 -6.3" fill="#cc9966" fill-rule="evenodd" stroke="none"/>
    <path d="M-10.2 -6.3 Q-10.85 -5.45 -10.75 -4.3 -10.7 -3.15 -9.95 -2.35 -9.35 -1.8 -8.55 -1.65 -6.35 -2.3 -0.85 0.85 4.7 4.0 6.1 6.55 7.0 7.5 8.25 7.5 9.3 7.5 10.2 6.7 12.3 4.75 10.35 2.65 6.6 -1.5 1.95 -4.25 -3.65 -7.55 -8.1 -7.3 -9.45 -7.25 -10.2 -6.3 M-13.55 -3.85 Q-13.65 -6.2 -12.3 -8.0 -10.7 -10.1 -7.9 -10.25 -2.55 -10.5 3.65 -6.8 8.55 -3.9 12.55 0.45 14.4 2.5 14.05 5.15 13.8 7.4 12.1 8.95 10.35 10.55 8.05 10.6 5.4 10.65 3.55 8.6 1.9 6.75 -0.6 4.85 -4.75 1.7 -7.15 1.85 -10.05 2.0 -11.85 0.1 -13.4 -1.55 -13.55 -3.85" fill="#996633" fill-rule="evenodd" stroke="none"/>
  </g>
</svg>
