<?xml version="1.0" encoding="UTF-8" standalone="no"?>
<svg xmlns:xlink="http://www.w3.org/1999/xlink" height="93.2px" width="92.05px" xmlns="http://www.w3.org/2000/svg">
  <g transform="matrix(1.0, 0.0, 0.0, 1.0, 46.05, 46.6)">
    <path d="M37.1 -14.7 Q38.8 -9.95 39.05 -4.85 39.55 7.3 31.5 14.25 23.4 21.15 11.5 18.8 -0.45 16.45 -9.25 6.25 -18.05 -4.05 -18.55 -16.2 -19.1 -28.35 -11.0 -35.25 -7.1 -38.65 -2.2 -39.8 L3.2 -39.55 Q19.45 -37.7 30.5 -24.8 34.6 -20.0 37.1 -14.7" fill="#666666" fill-rule="evenodd" stroke="none"/>
    <path d="M37.1 -14.7 Q34.6 -20.0 30.5 -24.8 19.45 -37.7 3.2 -39.55 L-2.2 -39.8 Q-15.15 -39.65 -25.05 -31.1 -37.05 -20.85 -37.65 -4.5 -38.35 11.9 -27.25 24.75 -16.2 37.6 0.1 39.45 16.35 41.3 28.3 31.1 40.25 20.8 40.95 4.4 41.3 -5.85 37.1 -14.7 M33.75 -28.95 Q46.7 -13.9 45.95 5.25 45.2 24.45 31.25 36.45 17.25 48.45 -1.8 46.25 -20.85 44.1 -33.8 29.05 -46.75 13.95 -46.0 -5.25 -45.3 -24.4 -31.3 -36.35 -17.3 -48.4 1.75 -46.25 20.8 -44.05 33.75 -28.95" fill="#000000" fill-rule="evenodd" stroke="none"/>
    <path d="M-2.2 -39.8 Q-7.1 -38.65 -11.0 -35.25 -19.1 -28.35 -18.55 -16.2 -18.05 -4.05 -9.25 6.25 -0.45 16.45 11.5 18.8 23.4 21.15 31.5 14.25 39.55 7.3 39.05 -4.85 38.8 -9.95 37.1 -14.7 41.3 -5.85 40.95 4.4 40.25 20.8 28.3 31.1 16.35 41.3 0.1 39.45 -16.2 37.6 -27.25 24.75 -38.35 11.9 -37.65 -4.5 -37.05 -20.85 -25.05 -31.1 -15.15 -39.65 -2.2 -39.8" fill="#333333" fill-rule="evenodd" stroke="none"/>
  </g>
</svg>
