<?xml version="1.0" encoding="UTF-8" standalone="no"?>
<svg xmlns:xlink="http://www.w3.org/1999/xlink" height="42.7px" width="21.65px" xmlns="http://www.w3.org/2000/svg">
  <g transform="matrix(1.0, 0.0, 0.0, 1.0, 10.8, 21.35)">
    <path d="M-6.7 13.85 L-8.55 17.8 -1.75 19.25 10.35 -19.95 Q10.25 -21.05 9.35 -20.45 L9.15 -20.0 -6.7 13.85 M10.85 -20.2 L-1.55 21.35 -10.8 19.35 9.05 -20.8 Q10.5 -22.1 10.85 -20.2" fill="#000000" fill-rule="evenodd" stroke="none"/>
    <path d="M8.7 -19.0 L8.9 -19.05 8.8 -18.8 -2.15 9.15 Q-3.5 10.4 -3.1 8.95 L-3.4 8.85 8.7 -19.0" fill="#999999" fill-rule="evenodd" stroke="none"/>
    <path d="M8.7 -19.0 L8.8 -19.15 8.9 -19.2 8.9 -19.05 8.7 -19.0" fill="#ffffff" fill-rule="evenodd" stroke="none"/>
    <path d="M8.9 -19.05 L8.9 -19.2 8.8 -19.15 8.7 -19.0 -3.4 8.85 -3.1 8.95 Q-3.5 10.4 -2.15 9.15 L8.8 -18.8 8.9 -19.05 M9.15 -20.0 L9.45 -19.4 -1.55 15.0 Q-6.25 15.85 -6.7 13.85 L9.15 -20.0" fill="#666666" fill-rule="evenodd" stroke="none"/>
    <path d="M-6.7 13.85 Q-6.25 15.85 -1.55 15.0 L9.45 -19.4 9.15 -20.0 9.35 -20.45 Q10.25 -21.05 10.35 -19.95 L-1.75 19.25 -8.55 17.8 -6.7 13.85" fill="#333333" fill-rule="evenodd" stroke="none"/>
  </g>
</svg>
