<?xml version="1.0" encoding="UTF-8" standalone="no"?>
<svg xmlns:xlink="http://www.w3.org/1999/xlink" height="128.25px" width="122.15px" xmlns="http://www.w3.org/2000/svg">
  <g transform="matrix(1.0, 0.0, 0.0, 1.0, -121.9, 218.45)">
    <path d="M226.95 -198.7 Q213.25 -214.5 199.65 -213.35 186.0 -212.25 154.8 -204.15 123.5 -196.1 136.65 -180.25 L167.8 -142.75 197.9 -106.85 Q206.05 -97.25 214.7 -108.15 218.75 -113.35 222.95 -123.15 235.95 -153.6 238.3 -168.25 240.4 -181.45 229.45 -195.6 L227.0 -198.65 226.95 -198.7 M230.45 -201.3 Q246.3 -183.05 243.65 -166.15 241.0 -149.25 226.15 -114.15 211.25 -79.0 197.35 -95.45 L162.5 -137.05 126.45 -180.45 Q111.2 -198.75 147.2 -207.95 183.15 -217.15 198.85 -218.35 214.55 -219.6 230.45 -201.3" fill="#000000" fill-rule="evenodd" stroke="none"/>
    <path d="M226.65 -198.4 L226.95 -198.7 227.0 -198.65 226.65 -198.4 M229.4 -191.85 Q244.55 -173.65 229.2 -146.35 238.95 -175.05 229.4 -191.85" fill="#999999" fill-rule="evenodd" stroke="none"/>
    <path d="M214.7 -108.15 Q209.9 -106.25 205.3 -111.7 L178.4 -143.75 150.6 -177.25 Q138.85 -191.35 166.8 -198.55 194.65 -205.8 206.85 -206.8 216.7 -207.6 226.65 -198.4 L227.0 -198.65 229.45 -195.6 Q240.4 -181.45 238.3 -168.25 235.95 -153.6 222.95 -123.15 218.75 -113.35 214.7 -108.15 M229.4 -191.85 Q238.95 -175.05 229.2 -146.35 244.55 -173.65 229.4 -191.85" fill="#666666" fill-rule="evenodd" stroke="none"/>
    <path d="M226.65 -198.4 Q216.7 -207.6 206.85 -206.8 194.65 -205.8 166.8 -198.55 138.85 -191.35 150.6 -177.25 L178.4 -143.75 205.3 -111.7 Q209.9 -106.25 214.7 -108.15 206.05 -97.25 197.9 -106.85 L167.8 -142.75 136.65 -180.25 Q123.5 -196.1 154.8 -204.15 186.0 -212.25 199.65 -213.35 213.25 -214.5 226.95 -198.7 L226.65 -198.4" fill="#333333" fill-rule="evenodd" stroke="none"/>
    <path d="M155.3 -179.45 L154.8 -180.1 Q163.8 -184.15 176.8 -187.5 L186.85 -176.8 187.45 -176.15 Q193.35 -169.45 198.7 -162.55 L199.3 -161.75 Q204.25 -155.3 208.7 -148.6 204.75 -135.1 198.95 -126.3 L198.2 -127.25 Q204.1 -137.75 207.55 -148.35 203.5 -154.4 198.65 -160.7 L186.3 -141.75 184.8 -143.55 197.95 -161.55 Q192.6 -168.4 186.3 -175.55 L166.95 -165.25 165.7 -166.8 185.7 -176.25 184.2 -177.9 177.15 -185.5 176.3 -186.4 Q168.05 -184.2 155.3 -179.45 M200.25 -116.85 Q197.45 -116.35 197.05 -115.65 L144.8 -179.6 Q145.55 -179.9 146.7 -182.45 L200.25 -116.85" fill="#333333" fill-rule="evenodd" stroke="none"/>
    <path d="M177.5 -184.05 L183.85 -177.0 169.6 -170.6 179.3 -178.65 177.5 -184.05 M186.1 -148.75 L192.2 -163.1 189.8 -169.95 196.75 -161.9 186.1 -148.75 M199.05 -158.45 Q202.65 -154.5 206.55 -148.25 L199.9 -132.9 202.9 -149.0 199.05 -158.45" fill="#cccccc" fill-rule="evenodd" stroke="none"/>
    <path d="M198.2 -127.25 L198.95 -126.3 Q204.75 -135.1 208.7 -148.6 204.25 -155.3 199.3 -161.75 L198.7 -162.55 Q193.35 -169.45 187.45 -176.15 L186.85 -176.8 176.8 -187.5 Q163.8 -184.15 154.8 -180.1 L155.3 -179.45 165.7 -166.8 166.95 -165.25 184.8 -143.55 186.3 -141.75 198.2 -127.25 M146.7 -182.45 Q161.05 -187.15 176.8 -190.65 183.3 -184.25 189.05 -177.9 L189.55 -177.35 Q195.55 -170.6 200.7 -163.9 206.95 -155.8 211.9 -147.75 207.85 -131.5 200.25 -116.85 L146.7 -182.45" fill="#666666" fill-rule="evenodd" stroke="none"/>
    <path d="M198.2 -127.25 L186.3 -141.75 198.65 -160.7 Q203.5 -154.4 207.55 -148.35 204.1 -137.75 198.2 -127.25 M184.8 -143.55 L166.95 -165.25 186.3 -175.55 Q192.6 -168.4 197.95 -161.55 L184.8 -143.55 M165.7 -166.8 L155.3 -179.45 Q168.05 -184.2 176.3 -186.4 L177.15 -185.5 184.2 -177.9 185.7 -176.25 165.7 -166.8 M186.1 -148.75 L196.75 -161.9 189.8 -169.95 192.2 -163.1 186.1 -148.75 M177.5 -184.05 L179.3 -178.65 169.6 -170.6 183.85 -177.0 177.5 -184.05 M199.05 -158.45 L202.9 -149.0 199.9 -132.9 206.55 -148.25 Q202.65 -154.5 199.05 -158.45" fill="#999999" fill-rule="evenodd" stroke="none"/>
    <path d="M210.35 -190.2 L200.95 -208.55 184.4 -205.65 182.85 -207.4 201.9 -210.75 211.8 -191.45 210.35 -190.2 M217.5 -180.85 L219.25 -182.2 236.0 -168.4 228.65 -150.45 227.15 -152.5 233.4 -167.75 217.5 -180.85" fill="#333333" fill-rule="evenodd" stroke="none"/>
    <path d="M184.4 -205.65 L200.95 -208.55 210.35 -190.2 203.3 -184.15 184.4 -205.65 M217.5 -180.85 L233.4 -167.75 227.15 -152.5 210.35 -175.45 217.5 -180.85" fill="#ffff99" fill-rule="evenodd" stroke="none"/>
  </g>
</svg>
