<?xml version="1.0" encoding="UTF-8" standalone="no"?>
<svg xmlns:xlink="http://www.w3.org/1999/xlink" height="210.45px" width="198.35px" xmlns="http://www.w3.org/2000/svg">
  <g transform="matrix(1.0, 0.0, 0.0, 1.0, 99.15, 105.2)">
    <path d="M63.2 -49.85 L63.75 -49.25 Q93.6 -12.95 98.4 27.3 99.3 34.85 99.2 41.75 98.8 73.15 78.1 91.0 52.8 112.7 12.05 101.4 -28.7 90.1 -61.0 52.45 -93.35 14.75 -98.35 -27.25 -103.3 -69.2 -78.0 -90.9 -52.75 -112.65 -12.0 -101.35 28.75 -90.05 61.1 -52.35 L63.2 -49.85 M94.3 49.3 Q95.75 38.35 94.05 25.3 88.9 -13.6 58.65 -48.85 28.35 -84.15 -9.35 -95.15 L-17.65 -97.2 Q-49.65 -103.9 -70.05 -86.35 -93.1 -66.6 -88.0 -27.65 -82.85 11.25 -52.6 46.55 -22.3 81.85 15.4 92.8 53.1 103.8 76.15 84.0 91.45 70.85 94.3 49.3" fill="#000000" fill-rule="evenodd" stroke="none"/>
    <path d="M-17.65 -97.2 L-9.35 -95.15 Q28.35 -84.15 58.65 -48.85 88.9 -13.6 94.05 25.3 95.75 38.35 94.3 49.3 L93.0 50.45 Q79.55 62.0 52.15 49.3 24.75 36.55 -0.55 7.05 -25.9 -22.5 -34.3 -51.5 -42.75 -80.5 -29.3 -92.05 -24.4 -96.25 -17.65 -97.2" fill="#666666" fill-rule="evenodd" stroke="none"/>
    <path d="M94.3 49.3 Q91.45 70.85 76.15 84.0 53.1 103.8 15.4 92.8 -22.3 81.85 -52.6 46.55 -82.85 11.25 -88.0 -27.65 -93.1 -66.6 -70.05 -86.35 -49.65 -103.9 -17.65 -97.2 -24.4 -96.25 -29.3 -92.05 -42.75 -80.5 -34.3 -51.5 -25.9 -22.5 -0.55 7.05 24.75 36.55 52.15 49.3 79.55 62.0 93.0 50.45 L94.3 49.3" fill="#333333" fill-rule="evenodd" stroke="none"/>
  </g>
</svg>
