<?xml version="1.0" encoding="UTF-8" standalone="no"?>
<svg xmlns:xlink="http://www.w3.org/1999/xlink" height="233.95px" width="236.0px" xmlns="http://www.w3.org/2000/svg">
  <g transform="matrix(1.0, 0.0, 0.0, 1.0, 118.0, 116.95)">
    <path d="M75.0 -103.95 Q57.4 -112.55 33.5 -111.05 -6.6 -108.5 -57.15 -87.85 -107.7 -67.25 -108.15 -25.15 -108.55 12.35 -80.95 49.35 L-76.25 55.55 -73.85 58.5 -72.8 59.75 -68.3 64.75 Q-35.6 100.5 6.35 105.85 51.8 111.65 76.4 64.25 100.95 16.8 109.55 -22.45 115.3 -48.85 107.15 -69.2 103.15 -79.15 95.85 -87.65 86.9 -98.1 75.0 -103.95 M115.55 -21.05 Q106.6 21.05 80.55 71.95 54.45 122.75 5.65 116.25 -43.25 109.7 -80.75 64.85 -118.25 19.95 -118.0 -25.25 -117.8 -70.5 -63.65 -92.35 -9.55 -114.25 33.45 -116.75 76.45 -119.25 100.5 -91.2 124.55 -63.2 115.55 -21.05" fill="#000000" fill-rule="evenodd" stroke="none"/>
    <path d="M-80.95 49.35 Q-102.0 19.3 -98.0 -13.8 -93.5 -51.55 -44.6 -75.05 4.3 -98.5 41.7 -104.75 60.9 -107.95 75.0 -103.95 86.9 -98.1 95.85 -87.65 103.15 -79.15 107.15 -69.2 110.2 -53.5 103.4 -32.85 91.55 3.15 64.15 48.15 36.7 93.05 -4.85 92.35 -41.9 91.65 -68.3 64.75 L-72.8 59.75 -73.85 58.5 -76.25 55.55 -80.95 49.35" fill="#666666" fill-rule="evenodd" stroke="none"/>
    <path d="M75.0 -103.95 Q60.9 -107.95 41.7 -104.75 4.3 -98.5 -44.6 -75.05 -93.5 -51.55 -98.0 -13.8 -102.0 19.3 -80.95 49.35 -108.55 12.35 -108.15 -25.15 -107.7 -67.25 -57.15 -87.85 -6.6 -108.5 33.5 -111.05 57.4 -112.55 75.0 -103.95 M-68.3 64.75 Q-41.9 91.65 -4.85 92.35 36.7 93.05 64.15 48.15 91.55 3.15 103.4 -32.85 110.2 -53.5 107.15 -69.2 115.3 -48.85 109.55 -22.45 100.95 16.8 76.4 64.25 51.8 111.65 6.35 105.85 -35.6 100.5 -68.3 64.75" fill="#333333" fill-rule="evenodd" stroke="none"/>
  </g>
</svg>
