<?xml version="1.0" encoding="UTF-8" standalone="no"?>
<svg xmlns:xlink="http://www.w3.org/1999/xlink" height="176.65px" width="173.35px" xmlns="http://www.w3.org/2000/svg">
  <g transform="matrix(1.0, 0.0, 0.0, 1.0, 86.65, 88.3)">
    <path d="M86.7 -18.2 Q79.2 -14.6 78.05 -5.4 77.75 35.35 86.55 88.35 56.0 79.5 31.9 59.0 15.95 45.3 2.85 26.6 L-1.45 20.2 Q-28.7 -17.2 -86.65 -32.35 -58.3 -65.05 -18.7 -88.3 L70.45 -33.75 86.7 -18.2 M76.1 -5.25 Q77.2 -12.2 80.0 -15.5 81.6 -17.45 83.9 -18.1 L68.85 -32.85 -18.95 -85.9 Q-55.0 -62.75 -81.65 -33.95 -25.95 -19.25 -1.2 14.75 L4.3 22.9 Q16.2 39.4 30.65 51.85 52.15 70.5 79.4 80.25 70.8 28.55 76.1 -5.25" fill="#000000" fill-rule="evenodd" stroke="none"/>
    <path d="M68.85 -32.85 L83.9 -18.1 Q81.6 -17.45 80.0 -15.5 77.2 -12.2 76.1 -5.25 L68.85 -32.85 M30.65 51.85 Q16.2 39.4 4.3 22.9 8.25 -0.5 18.85 -13.1 18.15 19.9 30.65 51.85" fill="#cccc99" fill-rule="evenodd" stroke="none"/>
    <path d="M76.1 -5.25 Q70.8 28.55 79.4 80.25 52.15 70.5 30.65 51.85 18.15 19.9 18.85 -13.1 8.25 -0.5 4.3 22.9 L-1.2 14.75 Q-25.95 -19.25 -81.65 -33.95 -55.0 -62.75 -18.95 -85.9 L68.85 -32.85 76.1 -5.25" fill="#ffffcc" fill-rule="evenodd" stroke="none"/>
    <path d="M8.9 -52.6 Q5.35 -53.15 2.55 -50.4 -0.1 -47.85 0.3 -45.0 1.85 -43.3 4.4 -43.6 6.9 -44.0 8.7 -46.25 9.75 -47.7 9.8 -49.5 9.9 -51.35 8.9 -52.6 M-4.35 -59.8 Q-4.65 -61.85 -7.1 -64.0 L-13.2 -55.6 Q-10.0 -54.45 -7.4 -55.9 -5.05 -57.25 -4.35 -59.8 M3.4 -57.0 Q6.25 -58.05 8.35 -57.6 9.65 -57.3 10.25 -56.1 L10.45 -55.6 Q14.05 -53.1 14.1 -49.1 14.15 -45.8 11.85 -42.75 9.55 -39.65 6.4 -38.9 L1.5 -39.1 Q-0.85 -40.0 -1.8 -43.35 -3.55 -45.45 -3.45 -48.25 -3.4 -51.05 -1.55 -53.4 0.4 -55.85 3.4 -57.0 M-10.5 -68.5 L-10.25 -69.65 -10.15 -71.2 Q-9.95 -71.7 -9.5 -71.5 -3.05 -68.1 -1.6 -62.8 -0.25 -57.65 -3.7 -53.25 -5.85 -50.35 -9.85 -50.25 -13.35 -50.1 -16.55 -52.2 -17.3 -52.65 -17.25 -53.65 L-18.05 -54.55 -18.5 -55.3 -18.95 -55.9 -18.7 -56.65 Q-17.1 -59.7 -10.4 -66.95 -10.65 -67.6 -10.5 -68.5" fill="#990000" fill-rule="evenodd" stroke="none"/>
    <path d="M55.8 -21.75 L61.2 -18.5 66.45 -14.95 Q67.25 -14.25 67.15 -13.45 L66.85 -11.55 66.75 -10.25 66.4 -9.7 Q66.15 -9.4 65.8 -9.6 64.7 -10.05 61.3 -12.4 56.5 -5.75 53.15 -1.8 L52.4 -1.35 Q52.0 -1.35 51.5 -1.7 L50.8 -2.35 49.9 -3.4 Q49.15 -4.15 49.45 -4.85 50.25 -7.1 53.0 -10.35 L57.35 -15.1 55.35 -16.5 Q54.55 -17.1 54.5 -17.6 L54.3 -18.9 Q54.1 -19.8 54.25 -20.2 L54.8 -21.6 55.2 -22.1 55.8 -21.75 M30.45 -41.9 L31.5 -40.7 Q32.15 -40.0 31.95 -39.35 L30.45 -34.05 Q29.35 -30.2 29.05 -27.6 L33.3 -33.0 37.1 -37.5 Q37.35 -37.8 37.7 -37.7 38.45 -37.4 38.6 -36.85 L38.95 -35.9 Q39.4 -35.0 38.75 -34.05 L34.1 -27.65 Q30.7 -23.15 28.8 -21.3 28.45 -20.9 27.4 -21.0 26.55 -21.05 26.0 -21.8 L24.75 -22.95 24.25 -23.45 24.05 -24.15 24.65 -28.3 25.5 -31.95 20.85 -25.2 Q20.55 -24.8 20.1 -25.05 19.35 -25.5 18.8 -26.4 L17.4 -27.95 Q16.8 -28.7 17.2 -29.4 18.9 -32.35 22.25 -36.25 L27.9 -42.75 Q28.25 -43.2 29.1 -42.75 L30.45 -41.9 M46.7 -22.35 Q46.8 -24.2 45.85 -25.45 42.2 -26.05 39.45 -23.35 36.8 -20.8 37.15 -18.0 38.65 -16.2 41.15 -16.5 43.7 -16.85 45.45 -19.1 46.6 -20.55 46.7 -22.35 M45.35 -30.45 Q46.6 -30.15 47.2 -28.95 L47.4 -28.45 Q51.0 -25.85 51.0 -21.9 51.0 -18.5 48.65 -15.5 46.3 -12.5 43.15 -11.8 40.6 -11.15 38.3 -12.1 35.95 -13.0 35.0 -16.3 33.25 -18.5 33.4 -21.25 33.45 -24.1 35.4 -26.35 37.35 -28.8 40.35 -29.9 43.2 -30.95 45.35 -30.45" fill="#990000" fill-rule="evenodd" stroke="none"/>
    <path d="M48.45 35.95 Q47.5 37.05 46.75 37.25 45.55 37.45 43.55 35.8 41.8 34.15 41.5 32.95 41.25 31.9 42.1 30.55 43.75 27.65 47.15 30.8 50.15 33.5 48.45 35.95 M47.4 27.0 Q46.4 25.25 48.15 22.8 L52.4 17.6 57.1 11.8 Q57.55 11.2 58.45 12.05 L60.05 14.3 Q61.45 16.1 59.6 18.95 54.1 27.15 51.05 30.9 L49.9 30.95 48.85 29.1 48.0 28.05 47.4 27.0 M48.6 4.1 Q48.8 3.7 49.25 4.0 L50.45 5.2 51.4 6.6 52.35 7.9 Q52.65 9.05 51.55 10.85 L45.3 19.8 37.35 29.7 Q36.9 30.15 36.45 29.9 L35.6 29.25 34.55 27.9 33.2 26.55 Q32.3 25.5 32.95 24.0 33.65 22.3 36.6 18.5 L32.95 16.0 28.7 21.3 Q28.25 21.85 27.75 21.6 L26.25 20.15 25.05 18.5 Q24.5 17.9 24.9 17.25 25.45 15.75 28.55 11.95 28.45 11.25 28.6 10.7 L29.1 8.7 Q29.2 7.9 30.0 8.2 L31.2 8.85 38.25 0.6 Q38.65 0.15 39.3 0.4 39.9 0.55 40.5 1.55 L41.6 3.05 Q42.3 4.25 41.1 6.0 L36.25 12.05 39.85 14.7 48.6 4.1 M-7.3 -36.1 L-7.0 -35.45 Q-2.25 -32.05 -2.2 -26.75 -2.15 -22.25 -5.25 -18.25 -8.4 -14.2 -12.6 -13.2 -15.95 -12.3 -19.1 -13.55 -22.2 -14.8 -23.45 -19.2 -25.8 -22.1 -25.65 -25.8 -25.6 -29.55 -23.0 -32.65 -20.45 -35.9 -16.4 -37.4 -12.65 -38.8 -9.8 -38.15 -8.1 -37.75 -7.3 -36.1 M-7.95 -27.35 Q-7.85 -29.75 -9.1 -31.45 -13.9 -32.2 -17.6 -28.6 -21.15 -25.2 -20.6 -21.45 -18.6 -19.1 -15.25 -19.5 -11.9 -20.0 -9.5 -23.05 -8.05 -24.95 -7.95 -27.35 M-35.15 -55.6 L-34.6 -56.25 -33.85 -55.85 -26.6 -51.5 Q-22.2 -48.95 -19.55 -46.8 -18.5 -45.95 -18.65 -44.85 L-19.05 -42.2 Q-19.05 -40.65 -19.15 -40.6 L-19.6 -39.8 Q-19.9 -39.45 -20.4 -39.65 -21.85 -40.3 -26.45 -43.35 -32.8 -34.45 -37.3 -29.15 -37.85 -28.55 -38.25 -28.55 L-39.5 -29.05 -40.35 -29.9 -41.6 -31.3 Q-42.6 -32.35 -42.2 -33.35 -41.2 -36.3 -37.5 -40.6 L-31.65 -46.95 -34.45 -48.9 Q-35.5 -49.65 -35.5 -50.3 L-35.8 -52.0 -35.85 -53.75 -35.15 -55.6 M12.25 -3.7 Q14.85 -7.6 19.3 -9.6 23.8 -11.75 27.35 -10.6 29.25 -10.15 29.95 -7.7 L32.3 -5.1 Q33.4 -3.65 33.35 -2.2 33.3 0.2 31.6 2.35 L30.15 3.4 28.8 3.5 26.5 3.4 Q25.1 3.45 25.8 2.1 28.05 -2.7 26.9 -4.75 22.0 -4.85 17.9 -0.3 16.15 1.5 15.35 3.7 14.45 5.75 15.1 7.4 16.5 9.05 19.15 9.35 21.35 9.7 23.9 8.9 24.75 8.5 24.85 9.65 24.85 10.45 23.95 12.25 L23.55 13.55 Q23.15 14.35 22.25 14.75 L16.8 14.9 Q14.75 14.05 13.3 12.05 11.75 9.95 11.15 7.15 8.45 1.55 12.25 -3.7 M12.75 -20.95 Q13.25 -21.5 13.8 -21.25 15.25 -20.4 15.8 -19.3 L17.05 -17.65 Q18.0 -16.4 16.85 -14.6 11.8 -6.95 9.6 -4.6 4.7 0.45 -0.7 -0.1 -4.85 -0.45 -5.95 -4.8 -7.15 -6.8 -7.1 -8.9 -7.1 -12.5 -3.7 -16.9 -0.05 -21.7 4.3 -25.8 4.85 -26.25 5.7 -25.3 L6.8 -23.45 7.75 -21.95 Q8.2 -21.1 7.45 -20.15 L1.65 -14.05 Q-2.5 -9.45 -2.5 -7.0 -0.9 -6.25 1.55 -7.65 4.05 -9.2 6.55 -12.35 L12.75 -20.95" fill="#990000" fill-rule="evenodd" stroke="none"/>
    <path d="M46.95 -52.5 L39.95 -57.9 36.65 -52.15 30.45 -45.55 41.6 -37.85 45.3 -46.05 46.95 -52.5 M46.15 -45.4 L42.05 -36.4 29.05 -45.45 35.85 -52.75 39.55 -59.25 47.8 -53.1 46.15 -45.4" fill="#33ccff" fill-rule="evenodd" stroke="none"/>
    <path d="M46.95 -52.5 L45.3 -46.05 41.6 -37.85 30.45 -45.55 36.65 -52.15 39.95 -57.9 46.95 -52.5" fill="#33ccff" fill-opacity="0.5019608" fill-rule="evenodd" stroke="none"/>
  </g>
</svg>
