<?xml version="1.0" encoding="UTF-8" standalone="no"?>
<svg xmlns:xlink="http://www.w3.org/1999/xlink" height="59.15px" width="52.1px" xmlns="http://www.w3.org/2000/svg">
  <g transform="matrix(1.0, 0.0, 0.0, 1.0, 26.05, 29.55)">
    <path d="M13.0 -14.2 Q11.1 -15.95 9.55 -19.1 L8.05 -22.3 6.4 -25.4 4.15 -25.3 Q3.2 -24.7 2.45 -23.15 1.75 -21.85 1.45 -20.25 L1.4 -19.9 Q1.15 -18.65 1.3 -17.85 0.75 -18.5 0.85 -20.05 L0.9 -20.3 Q1.0 -21.8 1.6 -23.25 2.35 -25.0 3.5 -25.85 4.75 -26.9 6.3 -26.5 7.4 -25.3 8.2 -23.65 L9.5 -20.65 Q10.3 -18.65 11.1 -17.35 12.15 -15.35 13.75 -13.55 L13.0 -14.2 M-2.1 -22.7 L-2.2 -21.45 -2.55 -23.4 -3.15 -25.8 Q-4.2 -28.8 -6.05 -28.65 -7.2 -28.6 -8.8 -26.2 L-11.7 -21.1 Q-13.7 -17.3 -14.55 -16.0 -15.4 -14.7 -16.05 -14.15 -16.6 -13.75 -17.05 -13.75 L-15.9 -15.0 -14.3 -17.4 -11.9 -21.95 -9.75 -26.2 Q-8.55 -28.25 -7.5 -28.9 -4.75 -30.8 -3.1 -27.2 -2.55 -25.85 -2.25 -24.1 L-2.1 -22.7 M-21.6 0.5 Q-23.7 4.45 -24.1 6.85 -22.2 6.0 -19.85 6.15 -17.7 6.25 -15.6 7.15 L-16.05 6.1 -16.7 5.1 Q-18.3 1.75 -17.1 -3.35 -16.55 -5.7 -15.55 -7.65 -14.55 -9.75 -13.2 -11.0 L-8.6 -15.85 Q-6.5 -18.65 -5.75 -21.85 -5.5 -19.75 -7.3 -16.15 -5.1 -15.35 -3.6 -12.85 -2.25 -10.6 -1.6 -7.3 -1.0 -4.4 -1.05 -1.25 -1.15 1.75 -1.8 3.8 L0.15 3.7 2.05 4.05 Q0.6 -0.6 1.5 -5.7 2.4 -10.65 5.2 -14.75 4.25 -16.45 3.85 -18.95 L4.4 -18.05 4.7 -17.05 Q5.95 -14.25 9.4 -11.25 L12.25 -8.8 14.95 -6.2 Q16.55 -4.4 17.15 -0.7 17.75 3.05 16.75 5.25 L16.15 6.3 20.05 6.05 Q22.25 6.15 23.75 7.1 23.65 5.65 22.85 4.15 L22.0 2.8 21.5 2.1 21.05 1.5 21.25 1.65 Q22.8 2.55 23.8 4.25 24.85 6.0 24.95 7.95 26.45 8.9 25.9 10.85 25.4 12.6 24.0 13.6 24.55 15.05 24.0 16.25 23.55 17.3 22.35 18.0 21.2 18.6 19.8 18.75 L17.25 18.5 Q19.8 25.25 16.65 27.9 14.05 30.15 7.65 29.4 2.55 28.8 -4.35 26.5 -9.65 24.7 -13.85 22.7 -15.7 23.05 -17.2 22.7 -18.65 22.3 -19.55 21.35 -20.45 20.3 -20.55 18.85 -20.7 17.3 -20.0 15.55 L-21.35 15.35 -22.65 15.15 Q-29.9 13.2 -21.8 0.7 L-21.4 0.15 -21.6 0.5 M14.1 -5.95 L12.0 -7.7 9.7 -9.5 Q6.8 -11.8 5.4 -14.1 2.8 -10.35 2.0 -5.7 1.2 -1.1 2.35 3.35 3.95 1.75 6.0 1.2 7.9 0.65 9.6 1.25 11.3 1.8 12.2 3.35 13.15 5.0 12.85 7.5 L14.1 7.2 15.2 6.55 Q17.05 1.8 16.6 -1.3 16.25 -3.85 14.1 -5.95 M20.45 10.1 L22.65 10.4 20.85 10.75 Q19.65 10.8 19.25 11.3 19.75 11.65 21.0 12.05 L22.75 12.8 Q25.9 10.7 24.85 9.0 23.35 6.55 19.15 7.0 17.0 7.25 12.8 8.7 12.6 9.75 11.25 11.55 L13.55 12.1 Q15.0 12.35 15.8 12.8 -3.4 10.25 -12.9 15.35 -11.35 14.05 -10.0 13.45 -13.6 11.9 -13.3 8.7 -14.4 8.55 -16.85 7.6 -19.05 6.75 -20.45 6.75 -22.1 6.75 -23.35 7.65 -24.6 8.4 -25.05 9.6 -25.55 10.85 -25.05 12.0 -24.55 13.2 -22.9 13.95 L-21.85 14.05 -20.75 14.4 Q-19.45 14.7 -19.1 13.6 -18.65 12.2 -20.05 11.55 -21.1 11.1 -22.6 11.15 -22.4 10.65 -21.7 10.55 L-20.5 10.5 Q-18.45 11.7 -18.2 13.25 -18.1 14.2 -18.8 15.95 -19.7 17.9 -19.7 18.65 -19.85 20.1 -18.3 21.2 -17.05 22.05 -15.2 21.9 -13.95 21.75 -12.1 20.95 -4.85 17.9 2.95 17.15 L18.45 17.6 Q21.45 17.95 22.4 16.95 24.45 14.8 22.3 13.5 L20.25 12.6 18.6 11.8 Q18.4 11.65 18.35 11.3 18.25 10.95 18.45 10.75 18.85 10.1 20.45 10.1 M11.1 10.6 Q11.8 9.5 12.1 8.15 12.4 6.75 12.15 5.4 11.6 2.3 8.95 1.5 6.45 0.75 4.6 2.25 L3.3 3.55 2.25 4.55 Q1.8 8.05 2.4 9.35 3.25 11.25 6.6 11.15 L7.8 11.25 9.05 11.45 Q10.45 11.5 11.1 10.6 M16.2 18.55 L14.05 18.35 Q15.65 22.9 13.1 24.6 10.95 25.95 6.05 25.35 -0.45 24.55 -9.1 21.05 L-12.9 22.5 Q-9.8 23.85 -4.55 25.4 2.15 27.45 7.25 28.05 13.75 28.75 16.3 26.9 19.3 24.6 16.2 18.55 M3.45 11.1 Q1.8 9.7 1.4 8.35 1.05 7.1 1.55 4.85 -1.0 4.4 -2.05 4.85 -0.95 8.55 -2.35 11.55 L0.55 11.3 3.45 11.1 M12.85 23.3 Q13.55 22.55 13.4 20.7 13.25 19.1 12.7 18.1 1.5 17.0 -7.3 20.4 L-3.05 22.1 Q0.05 23.15 2.95 23.8 10.65 25.5 12.85 23.3 M-3.85 -12.65 Q-5.3 -15.15 -7.45 -15.6 -7.6 -14.95 -8.75 -13.85 L-11.3 -11.7 Q-15.1 -8.3 -16.15 -4.6 -17.0 -1.6 -16.75 1.5 -16.45 5.05 -14.7 7.15 L-14.95 7.25 -14.1 7.6 -13.2 7.8 Q-13.25 5.85 -12.0 4.3 -10.9 2.8 -9.05 2.15 L-5.45 1.95 Q-3.6 2.4 -2.5 4.15 L-2.2 4.05 -2.35 4.05 Q-1.85 2.15 -1.75 -0.8 -1.65 -4.1 -2.1 -7.05 -2.65 -10.5 -3.85 -12.65 M-2.75 5.1 Q-3.5 3.35 -4.9 2.6 L-8.4 2.45 Q-9.75 2.95 -10.85 4.1 -11.9 5.15 -12.4 6.55 -12.95 7.95 -12.75 9.35 -12.55 10.85 -11.5 12.0 -10.2 13.45 -7.7 12.85 L-5.65 12.25 -3.65 11.9 Q-2.4 10.65 -2.2 8.7 -2.0 6.8 -2.75 5.1" fill="#000000" fill-rule="evenodd" stroke="none"/>
    <path d="M14.1 -5.95 Q16.25 -3.85 16.6 -1.3 17.05 1.8 15.2 6.55 L14.1 7.2 12.85 7.5 Q13.15 5.0 12.2 3.35 11.3 1.8 9.6 1.25 7.9 0.65 6.0 1.2 3.95 1.75 2.35 3.35 1.2 -1.1 2.0 -5.7 2.8 -10.35 5.4 -14.1 6.8 -11.8 9.7 -9.5 L12.0 -7.7 14.1 -5.95 M-3.85 -12.65 Q-2.65 -10.5 -2.1 -7.05 -1.65 -4.1 -1.75 -0.8 -1.85 2.15 -2.35 4.05 L-2.2 4.05 -2.5 4.15 Q-3.6 2.4 -5.45 1.95 L-9.05 2.15 Q-10.9 2.8 -12.0 4.3 -13.25 5.85 -13.2 7.8 L-14.1 7.6 -14.95 7.25 -14.7 7.15 Q-16.45 5.05 -16.75 1.5 -17.0 -1.6 -16.15 -4.6 -15.1 -8.3 -11.3 -11.7 L-8.75 -13.85 Q-7.6 -14.95 -7.45 -15.6 -5.3 -15.15 -3.85 -12.65" fill="#ccffff" fill-rule="evenodd" stroke="none"/>
    <path d="M0.9 -20.3 L0.85 -20.05 Q0.75 -18.5 1.3 -17.85 1.15 -18.65 1.4 -19.9 L1.45 -20.25 Q1.75 -21.85 2.45 -23.15 3.2 -24.7 4.15 -25.3 L6.4 -25.4 8.05 -22.3 9.55 -19.1 Q11.1 -15.95 13.0 -14.2 16.2 -4.05 21.25 1.65 L21.05 1.5 21.5 2.1 22.0 2.8 22.85 4.15 Q23.65 5.65 23.75 7.1 22.25 6.15 20.05 6.05 L16.15 6.3 16.75 5.25 Q17.75 3.05 17.15 -0.7 16.55 -4.4 14.95 -6.2 L12.25 -8.8 9.4 -11.25 Q5.95 -14.25 4.7 -17.05 L4.4 -18.05 3.85 -18.95 Q4.25 -16.45 5.2 -14.75 2.4 -10.65 1.5 -5.7 0.6 -0.6 2.05 4.05 L0.15 3.7 -1.8 3.8 Q-1.15 1.75 -1.05 -1.25 -1.0 -4.4 -1.6 -7.3 -2.25 -10.6 -3.6 -12.85 -5.1 -15.35 -7.3 -16.15 -5.5 -19.75 -5.75 -21.85 -6.5 -18.65 -8.6 -15.85 L-13.2 -11.0 Q-14.55 -9.75 -15.55 -7.65 -16.55 -5.7 -17.1 -3.35 -18.3 1.75 -16.7 5.1 L-16.05 6.1 -15.6 7.15 Q-17.7 6.25 -19.85 6.15 -22.2 6.0 -24.1 6.85 -23.7 4.45 -21.6 0.5 -16.6 -4.85 -16.05 -14.15 -15.4 -14.7 -14.55 -16.0 -13.7 -17.3 -11.7 -21.1 L-8.8 -26.2 Q-7.2 -28.6 -6.05 -28.65 -4.2 -28.8 -3.15 -25.8 L-2.55 -23.4 -2.2 -21.45 -2.1 -22.7 Q-1.1 -14.0 0.9 -20.3 M11.1 10.6 Q10.45 11.5 9.05 11.45 L7.8 11.25 6.6 11.15 Q3.25 11.25 2.4 9.35 1.8 8.05 2.25 4.55 L3.3 3.55 4.6 2.25 Q6.45 0.75 8.95 1.5 11.6 2.3 12.15 5.4 12.4 6.75 12.1 8.15 11.8 9.5 11.1 10.6 M-2.75 5.1 Q-2.0 6.8 -2.2 8.7 -2.4 10.65 -3.65 11.9 L-5.65 12.25 -7.7 12.85 Q-10.2 13.45 -11.5 12.0 -12.55 10.85 -12.75 9.35 -12.95 7.95 -12.4 6.55 -11.9 5.15 -10.85 4.1 -9.75 2.95 -8.4 2.45 L-4.9 2.6 Q-3.5 3.35 -2.75 5.1" fill="#ffffff" fill-rule="evenodd" stroke="none"/>
    <path d="M20.45 10.1 Q18.85 10.1 18.45 10.75 18.25 10.95 18.35 11.3 18.4 11.65 18.6 11.8 L20.25 12.6 22.3 13.5 Q24.45 14.8 22.4 16.95 21.45 17.95 18.45 17.6 L2.95 17.15 Q-4.85 17.9 -12.1 20.95 -13.95 21.75 -15.2 21.9 -17.05 22.05 -18.3 21.2 -19.85 20.1 -19.7 18.65 -19.7 17.9 -18.8 15.95 -18.1 14.2 -18.2 13.25 -18.45 11.7 -20.5 10.5 L-21.7 10.55 Q-22.4 10.65 -22.6 11.15 -21.1 11.1 -20.05 11.55 -18.65 12.2 -19.1 13.6 -19.45 14.7 -20.75 14.4 L-21.85 14.05 -22.9 13.95 Q-24.55 13.2 -25.05 12.0 -25.55 10.85 -25.05 9.6 -24.6 8.4 -23.35 7.65 -22.1 6.75 -20.45 6.75 -19.05 6.75 -16.85 7.6 -14.4 8.55 -13.3 8.7 -13.6 11.9 -10.0 13.45 -11.35 14.05 -12.9 15.35 -3.4 10.25 15.8 12.8 15.0 12.35 13.55 12.1 L11.25 11.55 Q12.6 9.75 12.8 8.7 17.0 7.25 19.15 7.0 23.35 6.55 24.85 9.0 25.9 10.7 22.75 12.8 L21.0 12.05 Q19.75 11.65 19.25 11.3 19.65 10.8 20.85 10.75 L22.65 10.4 20.45 10.1 M3.45 11.1 L0.55 11.3 -2.35 11.55 Q-0.95 8.55 -2.05 4.85 -1.0 4.4 1.55 4.85 1.05 7.1 1.4 8.35 1.8 9.7 3.45 11.1 M16.2 18.55 Q19.3 24.6 16.3 26.9 13.75 28.75 7.25 28.05 2.15 27.45 -4.55 25.4 -9.8 23.85 -12.9 22.5 L-9.1 21.05 Q-0.45 24.55 6.05 25.35 10.95 25.95 13.1 24.6 15.65 22.9 14.05 18.35 L16.2 18.55" fill="#ffcc00" fill-rule="evenodd" stroke="none"/>
    <path d="M12.85 23.3 Q10.65 25.5 2.95 23.8 0.05 23.15 -3.05 22.1 L-7.3 20.4 Q1.5 17.0 12.7 18.1 13.25 19.1 13.4 20.7 13.55 22.55 12.85 23.3" fill="#ff6666" fill-rule="evenodd" stroke="none"/>
  </g>
</svg>
