<?xml version="1.0" encoding="UTF-8" standalone="no"?>
<svg xmlns:xlink="http://www.w3.org/1999/xlink" height="44.9px" width="62.7px" xmlns="http://www.w3.org/2000/svg">
  <g transform="matrix(1.0, 0.0, 0.0, 1.0, 5.8, 28.0)">
    <path d="M0.7 -5.9 L0.45 -6.0 0.7 -5.9 2.0 -5.15 Q3.8 -3.95 4.9 -3.35 9.5 -0.75 14.05 -0.85 15.6 -0.9 17.85 -1.95 L19.35 -2.65 20.7 -2.95 21.9 -3.2 22.6 -3.7 23.3 -4.05 24.25 -3.7 Q24.65 -5.15 25.7 -6.55 26.75 -8.0 28.15 -8.9 29.6 -9.9 31.1 -10.0 32.7 -10.1 34.05 -9.2 35.95 -11.8 36.4 -13.25 36.8 -14.65 37.2 -20.3 L37.2 -20.4 Q37.1 -21.45 37.65 -22.1 38.65 -23.35 41.4 -21.9 L49.25 -17.3 Q48.2 -21.25 48.7 -24.1 49.15 -26.55 50.6 -27.55 L52.95 -27.65 Q54.1 -26.75 54.15 -24.65 54.1 -23.9 55.25 -20.35 56.6 -16.35 56.9 -13.8 57.1 -11.8 55.65 -9.8 L52.6 -6.55 48.45 -1.5 Q45.9 1.3 43.45 2.35 L43.45 2.4 40.3 3.7 40.3 4.95 Q38.45 12.1 36.05 14.85 32.05 19.25 25.7 14.15 18.7 17.7 10.1 14.95 6.35 13.75 2.8 11.45 -0.45 9.35 -3.05 6.65 L-3.35 6.35 -3.0 6.45 -2.25 6.9 -0.4 8.3 Q2.8 10.75 5.45 12.1 14.85 16.95 24.65 13.2 22.65 8.55 22.7 5.15 22.7 3.6 23.1 1.45 L24.0 -3.05 Q20.95 -2.45 16.5 6.05 16.75 4.15 18.0 2.05 L20.4 -1.55 Q20.3 -3.25 16.7 0.05 L13.9 2.75 11.85 4.8 Q12.2 3.6 13.45 2.4 L14.5 1.35 15.5 0.3 9.25 -0.3 Q7.2 -0.9 5.7 -1.95 L3.25 -4.05 0.7 -5.9 M37.45 -19.0 L37.45 -18.95 Q37.85 -13.8 36.15 -11.1 L34.55 -9.05 34.05 -8.5 33.0 -6.9 34.05 -7.7 Q35.75 -8.8 37.55 -8.7 L38.75 -8.4 38.9 -8.3 38.85 -8.3 37.1 -8.15 Q35.3 -7.75 33.85 -6.65 32.6 -5.7 31.75 -4.35 30.8 -2.6 30.35 -0.65 29.85 1.65 30.1 4.65 L31.3 4.65 30.3 4.15 33.9 4.35 36.5 4.05 37.3 3.9 38.65 3.55 39.95 3.1 Q45.45 1.1 48.9 -3.15 L55.4 -10.55 Q56.85 -12.25 55.95 -16.05 L54.05 -21.75 53.3 -25.6 Q53.2 -27.05 52.25 -27.2 51.3 -27.45 50.45 -26.4 48.0 -23.4 50.0 -16.55 52.95 -12.7 51.2 -9.75 51.4 -12.0 50.7 -13.95 49.95 -16.05 48.5 -16.9 L40.05 -21.9 Q38.7 -22.65 38.0 -21.5 37.2 -20.25 39.2 -16.75 40.5 -17.25 41.6 -16.1 L43.95 -13.55 47.4 -10.6 Q48.7 -9.05 48.2 -7.25 47.55 -5.25 46.15 -4.8 48.7 -7.8 46.65 -10.3 L44.7 -12.05 43.15 -13.3 41.35 -15.55 Q40.35 -16.6 39.6 -16.25 38.25 -15.7 38.5 -12.7 38.75 -9.25 41.6 -6.7 39.1 -7.15 38.0 -10.95 36.85 -14.75 38.65 -16.4 L37.5 -18.95 37.35 -19.4 37.45 -19.0 M33.3 -8.15 Q33.25 -9.1 31.3 -9.05 28.5 -8.9 26.5 -6.0 24.7 -3.45 23.95 0.6 23.25 4.4 23.8 7.95 24.35 11.6 26.05 13.25 29.1 16.15 31.85 16.0 34.15 15.8 36.05 13.55 37.65 11.65 38.5 8.85 39.25 6.25 39.0 4.65 L38.2 4.4 33.1 5.0 32.5 4.95 30.3 5.35 30.35 5.85 31.45 7.85 31.7 8.2 31.75 8.25 33.25 8.95 35.35 9.45 Q32.65 10.3 31.0 8.65 31.5 10.25 32.5 11.75 29.35 8.65 29.2 3.85 L29.2 2.95 Q29.15 0.15 30.1 -2.65 31.1 -5.8 33.0 -7.7 L33.3 -8.15" fill="#000000" fill-rule="evenodd" stroke="none"/>
    <path d="M37.5 -18.95 L38.65 -16.4 Q36.85 -14.75 38.0 -10.95 39.1 -7.15 41.6 -6.7 38.75 -9.25 38.5 -12.7 38.25 -15.7 39.6 -16.25 40.35 -16.6 41.35 -15.55 L43.15 -13.3 44.7 -12.05 46.65 -10.3 Q48.7 -7.8 46.15 -4.8 47.55 -5.25 48.2 -7.25 48.7 -9.05 47.4 -10.6 L43.95 -13.55 41.6 -16.1 Q40.5 -17.25 39.2 -16.75 37.2 -20.25 38.0 -21.5 38.7 -22.65 40.05 -21.9 L48.5 -16.9 Q49.95 -16.05 50.7 -13.95 51.4 -12.0 51.2 -9.75 52.95 -12.7 50.0 -16.55 48.0 -23.4 50.45 -26.4 51.3 -27.45 52.25 -27.2 53.2 -27.05 53.3 -25.6 L54.05 -21.75 55.95 -16.05 Q56.85 -12.25 55.4 -10.55 L48.9 -3.15 Q45.45 1.1 39.95 3.1 L38.65 3.55 37.3 3.9 36.5 4.05 33.9 4.35 30.3 4.15 31.3 4.65 30.1 4.65 Q29.85 1.65 30.35 -0.65 30.8 -2.6 31.75 -4.35 32.6 -5.7 33.85 -6.65 35.3 -7.75 37.1 -8.15 L38.85 -8.3 38.9 -8.3 38.75 -8.4 37.55 -8.7 Q35.75 -8.8 34.05 -7.7 L33.0 -6.9 34.05 -8.5 34.55 -9.05 36.15 -11.1 Q37.85 -13.8 37.45 -18.95 L37.45 -19.0 37.5 -19.0 37.5 -18.95" fill="#ffffff" fill-rule="evenodd" stroke="none"/>
    <path d="M33.3 -8.15 L33.0 -7.7 Q31.1 -5.8 30.1 -2.65 29.15 0.15 29.2 2.95 L29.2 3.85 Q29.35 8.65 32.5 11.75 31.5 10.25 31.0 8.65 32.65 10.3 35.35 9.45 L33.25 8.95 31.75 8.25 31.7 8.2 31.45 7.85 30.35 5.85 30.3 5.35 32.5 4.95 33.1 5.0 38.2 4.4 39.0 4.65 Q39.25 6.25 38.5 8.85 37.65 11.65 36.05 13.55 34.15 15.8 31.85 16.0 29.1 16.15 26.05 13.25 24.35 11.6 23.8 7.95 23.25 4.4 23.95 0.6 24.7 -3.45 26.5 -6.0 28.5 -8.9 31.3 -9.05 33.25 -9.1 33.3 -8.15" fill="#990000" fill-rule="evenodd" stroke="none"/>
    <path d="M0.7 -5.9 L3.25 -4.05 5.7 -1.95 Q7.2 -0.9 9.25 -0.3 L15.5 0.3 14.5 1.35 13.45 2.4 Q12.2 3.6 11.85 4.8 L13.9 2.75 16.7 0.05 Q20.3 -3.25 20.4 -1.55 L18.0 2.05 Q16.75 4.15 16.5 6.05 20.95 -2.45 24.0 -3.05 L23.1 1.45 Q22.7 3.6 22.7 5.15 22.65 8.55 24.65 13.2 14.85 16.95 5.45 12.1 2.8 10.75 -0.4 8.3 L-2.25 6.9 -3.0 6.45 Q-10.05 -5.65 0.7 -5.9" fill="#660099" fill-rule="evenodd" stroke="none"/>
  </g>
</svg>
