<?xml version="1.0" encoding="UTF-8" standalone="no"?>
<svg xmlns:xlink="http://www.w3.org/1999/xlink" height="56.8px" width="81.4px" xmlns="http://www.w3.org/2000/svg">
  <g transform="matrix(1.0, 0.0, 0.0, 1.0, 40.7, 28.4)">
    <path d="M4.25 6.8 Q4.05 1.25 5.05 -4.4 6.95 -15.65 13.25 -24.8 16.7 -19.15 23.75 -13.55 L29.35 -9.25 34.45 -4.95 Q39.6 0.15 40.5 6.3 L40.55 6.65 Q24.75 10.55 4.25 6.8 M40.7 8.6 Q40.95 15.55 37.05 25.4 L34.35 27.0 Q32.7 27.85 31.4 27.7 32.15 21.7 29.8 17.6 27.65 13.85 23.5 12.5 19.4 11.1 14.7 12.45 9.8 13.8 5.8 17.6 4.6 13.0 4.3 8.3 23.65 12.05 40.7 8.6 M-4.1 8.3 Q-4.4 14.95 -5.55 19.3 L-5.2 19.3 -5.95 19.55 Q-8.55 15.35 -13.15 14.2 -17.3 13.1 -21.8 14.75 -26.3 16.35 -29.05 19.95 -32.1 23.75 -31.95 28.4 -32.95 28.5 -34.15 28.0 L-36.15 27.1 -35.6 26.9 Q-39.8 21.75 -40.55 13.1 L-40.7 8.8 Q-22.05 11.85 -4.1 8.3 M-40.6 6.85 Q-40.3 2.5 -39.05 -1.7 -36.55 -10.65 -27.35 -18.9 L-21.15 -24.2 Q-18.35 -26.8 -18.0 -28.4 -12.7 -27.35 -9.25 -21.3 -6.3 -16.05 -5.0 -7.65 -3.9 -0.7 -4.05 7.0 -22.7 10.65 -40.6 6.85" fill="#ffffff" fill-rule="evenodd" stroke="none"/>
    <path d="M40.55 6.65 L40.7 8.6 Q23.65 12.05 4.3 8.3 L4.25 6.8 Q24.75 10.55 40.55 6.65 M-4.05 7.0 L-4.1 7.5 -4.1 8.3 Q-22.05 11.85 -40.7 8.8 L-40.6 6.85 Q-22.7 10.65 -4.05 7.0" fill="#000000" fill-rule="evenodd" stroke="none"/>
  </g>
</svg>
