<?xml version="1.0" encoding="UTF-8" standalone="no"?>
<svg xmlns:xlink="http://www.w3.org/1999/xlink" height="26.75px" width="45.8px" xmlns="http://www.w3.org/2000/svg">
  <g transform="matrix(1.0, 0.0, 0.0, 1.0, 3.25, 9.85)">
    <path d="M3.25 -5.9 L3.0 -6.0 3.25 -5.9 4.55 -5.15 7.45 -3.35 Q12.05 -0.75 16.6 -0.85 18.15 -0.9 20.4 -1.95 L21.9 -2.65 23.25 -2.95 24.45 -3.2 25.15 -3.7 25.85 -4.05 26.8 -3.7 Q27.2 -5.15 28.25 -6.55 29.3 -8.0 30.7 -8.9 32.2 -9.9 36.15 -9.85 40.1 -9.85 42.55 3.1 L42.55 6.0 Q40.85 12.3 38.6 14.85 34.6 19.25 28.25 14.15 21.25 17.7 12.65 14.95 8.9 13.75 5.35 11.45 2.1 9.35 -0.5 6.65 L-0.8 6.35 -0.45 6.45 0.3 6.9 2.15 8.3 Q5.35 10.75 8.0 12.1 17.4 16.95 27.2 13.2 25.2 8.55 25.25 5.15 25.25 3.6 25.65 1.45 L26.55 -3.05 Q23.5 -2.45 19.05 6.05 19.3 4.15 20.55 2.05 L22.95 -1.55 Q22.85 -3.25 19.25 0.05 L16.45 2.75 14.4 4.8 Q14.75 3.6 16.0 2.4 L17.05 1.35 18.05 0.3 11.8 -0.3 Q9.75 -0.9 8.25 -1.95 L5.8 -4.05 Q4.45 -5.25 3.25 -5.9 M34.2 -4.15 L34.6 -4.8 Q33.35 -2.6 32.9 -0.65 32.4 1.65 32.65 4.65 L32.9 5.85 34.0 7.85 34.25 8.2 34.3 8.25 Q34.8 8.65 35.8 8.95 L37.9 9.45 Q35.2 10.3 33.55 8.65 34.05 10.25 35.05 11.75 31.9 8.65 31.75 3.85 L31.75 2.95 Q31.7 0.15 32.65 -2.65 33.65 -5.8 35.55 -7.7 L35.85 -8.15 Q35.8 -9.1 33.85 -9.05 31.05 -8.9 29.05 -6.0 27.25 -3.45 26.5 0.6 25.8 4.4 26.35 7.95 26.9 11.6 28.6 13.25 31.65 16.15 34.4 16.0 36.7 15.8 38.6 13.55 40.2 11.65 41.05 8.85 41.8 6.25 41.1 3.55 39.4 -7.2 36.45 -7.6 36.05 -7.35 34.6 -4.8 L34.2 -4.15" fill="#000000" fill-rule="evenodd" stroke="none"/>
    <path d="M34.6 -4.8 L34.5 -4.65 34.2 -4.15 34.6 -4.8" fill="#ffffff" fill-rule="evenodd" stroke="none"/>
    <path d="M3.25 -5.9 Q4.45 -5.25 5.8 -4.05 L8.25 -1.95 Q9.75 -0.9 11.8 -0.3 L18.05 0.3 17.05 1.35 16.0 2.4 Q14.75 3.6 14.4 4.8 L16.45 2.75 19.25 0.05 Q22.85 -3.25 22.95 -1.55 L20.55 2.05 Q19.3 4.15 19.05 6.05 23.5 -2.45 26.55 -3.05 L25.65 1.45 Q25.25 3.6 25.25 5.15 25.2 8.55 27.2 13.2 17.4 16.95 8.0 12.1 5.35 10.75 2.15 8.3 L0.3 6.9 -0.45 6.45 Q-7.5 -5.65 3.25 -5.9" fill="#660099" fill-rule="evenodd" stroke="none"/>
    <path d="M34.6 -4.8 Q36.05 -7.35 36.45 -7.6 39.4 -7.2 41.1 3.55 41.8 6.25 41.05 8.85 40.2 11.65 38.6 13.55 36.7 15.8 34.4 16.0 31.65 16.15 28.6 13.25 26.9 11.6 26.35 7.95 25.8 4.4 26.5 0.6 27.25 -3.45 29.05 -6.0 31.05 -8.9 33.85 -9.05 35.8 -9.1 35.85 -8.15 L35.55 -7.7 Q33.65 -5.8 32.65 -2.65 31.7 0.15 31.75 2.95 L31.75 3.85 Q31.9 8.65 35.05 11.75 34.05 10.25 33.55 8.65 35.2 10.3 37.9 9.45 L35.8 8.95 Q34.8 8.65 34.3 8.25 L34.25 8.2 34.0 7.85 32.9 5.85 32.65 4.65 Q32.4 1.65 32.9 -0.65 33.35 -2.6 34.6 -4.8 L34.2 -4.15 34.5 -4.65 34.6 -4.8" fill="#990000" fill-rule="evenodd" stroke="none"/>
  </g>
</svg>
