<?xml version="1.0" encoding="UTF-8" standalone="no"?>
<svg xmlns:xlink="http://www.w3.org/1999/xlink" height="72.35px" width="87.0px" xmlns="http://www.w3.org/2000/svg">
  <g transform="matrix(1.0, 0.0, 0.0, 1.0, 43.5, 36.2)">
    <path d="M7.4 3.6 Q8.1 -3.1 9.65 -9.2 13.95 -25.8 24.3 -36.2 28.75 -33.95 32.4 -28.4 34.55 -25.1 37.6 -18.25 42.6 -7.3 42.35 5.35 26.75 9.55 7.4 3.6 M42.1 9.3 Q40.9 23.5 33.75 35.7 L31.6 36.15 Q31.2 29.4 28.5 24.15 25.85 19.2 22.0 16.9 18.15 14.65 14.25 15.75 10.1 16.9 7.1 21.7 6.55 13.15 7.25 5.35 22.1 11.1 42.1 9.3 M-42.9 3.85 L-42.85 2.0 Q-42.3 -10.85 -38.65 -20.75 -34.6 -32.05 -27.5 -36.2 -9.2 -27.75 -7.65 2.3 -27.2 8.25 -42.9 3.85 M-7.55 4.15 Q-7.25 13.0 -8.35 23.65 -12.15 18.35 -17.25 16.5 -22.05 14.8 -26.45 16.5 -30.95 18.2 -33.2 22.65 -35.65 27.45 -34.55 34.0 -38.75 32.6 -41.1 23.1 -42.8 16.3 -42.95 7.85 -22.65 9.85 -7.55 4.15" fill="#ffffff" fill-rule="evenodd" stroke="none"/>
    <path d="M7.25 5.35 L6.95 5.25 6.7 3.35 7.4 3.6 Q26.75 9.55 42.35 5.35 L43.5 5.0 43.05 9.2 42.1 9.3 Q22.1 11.1 7.25 5.35 M-7.65 2.3 L-6.7 2.0 -6.95 3.9 -7.55 4.15 Q-22.65 9.85 -42.95 7.85 L-43.05 7.85 -43.5 3.65 -42.9 3.85 Q-27.2 8.25 -7.65 2.3" fill="#000000" fill-rule="evenodd" stroke="none"/>
  </g>
</svg>
