<?xml version="1.0" encoding="UTF-8" standalone="no"?>
<svg xmlns:xlink="http://www.w3.org/1999/xlink" height="57.75px" width="47.2px" xmlns="http://www.w3.org/2000/svg">
  <g transform="matrix(1.0, 0.0, 0.0, 1.0, 23.8, 28.85)">
    <path d="M5.25 -22.85 L5.4 -23.25 Q6.45 -26.05 7.75 -26.75 9.1 -27.45 10.3 -25.9 11.35 -24.5 11.75 -22.05 12.1 -19.5 11.35 -17.45 13.4 -11.4 12.9 -3.65 14.7 -3.6 15.7 -1.65 16.55 0.05 16.3 1.9 24.35 -1.4 23.3 4.2 L23.25 4.35 23.25 4.2 Q23.25 4.85 22.45 6.05 21.65 7.2 17.85 8.4 L14.9 9.05 Q13.2 9.4 12.25 9.85 10.35 10.8 9.6 13.75 L9.0 16.6 8.4 19.65 Q7.5 23.3 5.5 25.35 2.8 28.1 -2.35 28.85 -5.6 29.3 -9.5 26.0 -12.9 23.15 -16.25 17.9 -19.3 13.2 -21.45 8.05 -23.5 3.05 -23.75 0.15 -23.95 -1.7 -23.05 -3.5 L-21.5 -6.05 -21.25 -6.45 -21.05 -6.7 -21.05 -6.6 Q-21.15 -5.85 -21.55 -5.0 L-22.35 -3.5 Q-23.3 -1.65 -22.7 0.2 -21.1 -2.25 -19.6 -2.15 -18.55 -2.15 -16.9 -0.45 L-15.45 1.15 -13.75 2.8 Q-11.6 4.65 -9.15 5.2 -12.05 2.3 -12.7 -2.0 -13.35 -5.95 -12.3 -10.6 -11.3 -15.0 -9.1 -18.85 -6.85 -22.8 -4.1 -24.95 L-5.0 -23.75 Q-2.2 -22.95 -0.1 -20.6 1.8 -18.45 2.95 -15.25 3.95 -12.3 4.15 -9.0 4.35 -5.8 3.8 -3.1 6.1 -2.2 6.95 -1.0 L8.0 -1.35 Q3.4 -8.25 8.8 -23.2 L8.5 -21.2 Q10.0 -20.75 11.0 -18.5 11.35 -20.55 11.1 -22.5 10.8 -24.4 9.95 -25.35 9.05 -26.35 7.85 -25.7 6.75 -25.15 5.6 -23.25 L5.0 -22.2 5.25 -22.85 M-11.5 -22.25 L-11.45 -22.6 Q-11.0 -24.9 -9.65 -26.45 -7.9 -28.6 -5.3 -28.8 -2.75 -29.05 -0.9 -27.25 0.75 -25.6 1.1 -22.85 L1.2 -21.7 0.7 -22.8 Q-0.25 -25.0 -0.95 -26.0 -2.6 -28.25 -4.7 -28.0 -7.2 -27.8 -9.05 -25.65 -10.95 -23.55 -11.65 -20.25 L-11.5 -22.25 M8.2 -20.4 Q7.7 -19.15 7.05 -16.1 6.4 -13.05 6.4 -9.6 6.35 -6.25 7.4 -3.7 8.4 -1.2 9.95 -1.05 11.3 -3.1 12.35 -3.6 L12.3 -7.85 Q12.2 -10.7 11.75 -13.3 10.55 -20.45 8.2 -20.4 M5.55 -1.7 Q4.45 -2.65 2.7 -2.65 0.9 -2.7 -0.1 -1.7 -1.2 -0.65 -1.65 1.35 -2.1 3.2 -1.8 5.2 -1.5 7.25 -0.5 8.55 0.6 10.0 2.3 10.1 3.2 8.9 4.75 7.75 5.65 7.0 7.55 5.8 7.85 3.85 7.4 1.8 6.85 -0.5 5.55 -1.7 M8.55 -0.95 L7.25 -0.6 7.75 0.85 9.5 1.05 9.8 -0.4 Q9.3 -0.95 8.55 -0.95 M3.0 -3.25 Q3.6 -5.6 3.4 -8.8 3.2 -12.25 2.15 -15.25 1.0 -18.6 -0.85 -20.6 -2.95 -22.85 -5.75 -22.95 -7.95 -20.6 -9.6 -16.85 -11.3 -13.05 -11.95 -8.7 -12.6 -4.4 -11.6 -0.55 -10.65 3.3 -7.8 5.4 -6.8 5.65 -4.95 5.4 L-2.65 4.95 Q-3.05 1.8 -1.65 -0.65 -0.1 -3.55 3.0 -3.25 M13.45 -3.3 Q12.55 -3.35 11.6 -2.5 10.65 -1.7 10.15 -0.05 9.6 1.6 10.2 3.05 L10.7 4.2 15.75 2.15 Q16.5 0.25 15.45 -1.5 14.35 -3.3 13.45 -3.3 M7.95 1.55 L8.0 1.75 Q8.45 3.6 8.35 5.4 L10.25 4.3 Q9.7 3.3 9.55 1.8 8.85 1.4 7.95 1.55 M22.95 2.9 L22.95 2.8 Q22.8 2.25 22.25 1.95 L21.55 1.75 21.35 1.7 19.55 1.8 18.5 2.0 Q16.85 2.35 14.7 3.2 10.3 4.9 6.25 7.45 2.6 9.7 1.45 11.3 L2.0 10.45 Q0.5 10.55 -0.9 8.85 L-2.65 5.8 Q-6.9 6.85 -10.25 5.65 -12.75 4.75 -15.05 2.5 L-16.8 0.65 -18.25 -0.85 Q-19.75 -2.15 -20.95 -1.4 -23.05 -0.1 -22.0 4.45 -21.05 8.4 -17.95 13.8 -14.95 18.95 -11.45 22.9 -7.75 27.05 -5.2 27.8 L-2.45 27.9 Q-0.8 27.65 2.2 26.4 5.15 25.15 6.2 23.2 7.25 21.25 7.9 17.9 8.5 14.5 9.95 11.35 L7.45 12.9 6.65 15.8 5.75 19.15 Q4.45 23.15 2.4 24.3 L-0.95 25.25 -4.4 25.5 Q-5.9 25.2 -8.7 22.0 -11.3 19.1 -14.05 14.8 -16.85 10.5 -18.45 7.0 -20.25 3.2 -19.85 1.9 -15.0 7.75 -10.55 10.55 -4.9 14.1 -0.85 14.45 2.45 14.75 5.85 12.9 L8.85 11.0 12.05 8.85 Q16.25 6.15 20.45 5.15 L18.75 6.0 17.0 6.75 Q14.9 7.65 14.15 8.75 18.85 7.85 22.1 5.65 L22.95 3.4 22.95 2.9 M7.85 1.25 L7.85 1.3 7.9 1.35 7.85 1.25 M5.4 18.05 L6.25 13.75 Q3.9 15.1 1.1 15.4 -1.8 15.7 -4.75 14.65 -4.65 16.75 -6.05 18.8 -6.3 16.55 -7.85 14.45 -9.35 12.25 -11.25 10.7 L-15.0 7.8 -19.25 3.75 Q-16.4 9.75 -12.55 15.75 -7.05 24.35 -4.1 24.6 1.6 25.05 3.9 21.65 4.8 20.3 5.4 18.05 M11.0 3.25 Q9.75 -0.2 12.3 -2.6 10.6 -0.6 11.0 3.25 M-1.25 3.1 Q-1.2 1.65 -0.75 0.45 -0.3 -0.8 0.45 -1.3 -0.65 0.9 -0.7 3.15 -0.85 5.75 0.45 7.5 -0.4 7.0 -0.85 5.7 -1.25 4.55 -1.25 3.1 M-8.15 13.2 Q-7.25 14.1 -6.65 15.35 -6.05 16.55 -5.9 17.45 L-5.45 15.95 -5.35 14.4 -8.15 13.2" fill="#000000" fill-rule="evenodd" stroke="none"/>
    <path d="M8.2 -20.4 Q10.55 -20.45 11.75 -13.3 12.2 -10.7 12.3 -7.85 L12.35 -3.6 Q11.3 -3.1 9.95 -1.05 8.4 -1.2 7.4 -3.7 6.35 -6.25 6.4 -9.6 6.4 -13.05 7.05 -16.1 7.7 -19.15 8.2 -20.4 M3.0 -3.25 Q-0.1 -3.55 -1.65 -0.65 -3.05 1.8 -2.65 4.95 L-4.95 5.4 Q-6.8 5.65 -7.8 5.4 -10.65 3.3 -11.6 -0.55 -12.6 -4.4 -11.95 -8.7 -11.3 -13.05 -9.6 -16.85 -7.95 -20.6 -5.75 -22.95 -2.95 -22.85 -0.85 -20.6 1.0 -18.6 2.15 -15.25 3.2 -12.25 3.4 -8.8 3.6 -5.6 3.0 -3.25" fill="#ccffff" fill-rule="evenodd" stroke="none"/>
    <path d="M22.95 2.9 L22.95 3.4 22.1 5.65 Q18.85 7.85 14.15 8.75 14.9 7.65 17.0 6.75 L18.75 6.0 20.45 5.15 Q16.25 6.15 12.05 8.85 L8.85 11.0 5.85 12.9 Q2.45 14.75 -0.85 14.45 -4.9 14.1 -10.55 10.55 -15.0 7.75 -19.85 1.9 -20.25 3.2 -18.45 7.0 -16.85 10.5 -14.05 14.8 -11.3 19.1 -8.7 22.0 -5.9 25.2 -4.4 25.5 L-0.95 25.25 2.4 24.3 Q4.45 23.15 5.75 19.15 L6.65 15.8 7.45 12.9 9.95 11.35 Q8.5 14.5 7.9 17.9 7.25 21.25 6.2 23.2 5.15 25.15 2.2 26.4 -0.8 27.65 -2.45 27.9 L-5.2 27.8 Q-7.75 27.05 -11.45 22.9 -14.95 18.95 -17.95 13.8 -21.05 8.4 -22.0 4.45 -23.05 -0.1 -20.95 -1.4 -19.75 -2.15 -18.25 -0.85 L-16.8 0.65 -15.05 2.5 Q-12.75 4.75 -10.25 5.65 -6.9 6.85 -2.65 5.8 L-0.9 8.85 Q0.5 10.55 2.0 10.45 L1.45 11.3 Q2.6 9.7 6.25 7.45 10.3 4.9 14.7 3.2 16.85 2.35 18.5 2.0 L19.55 1.8 21.35 1.7 21.55 1.75 22.25 1.95 Q22.8 2.25 22.95 2.8 L22.95 2.9 M7.95 1.55 Q8.85 1.4 9.55 1.8 9.7 3.3 10.25 4.3 L8.35 5.4 Q8.45 3.6 8.0 1.75 L7.95 1.55" fill="#ffcc00" fill-rule="evenodd" stroke="none"/>
    <path d="M5.25 -22.85 L5.0 -22.2 5.6 -23.25 Q6.75 -25.15 7.85 -25.7 9.05 -26.35 9.95 -25.35 10.8 -24.4 11.1 -22.5 11.35 -20.55 11.0 -18.5 10.0 -20.75 8.5 -21.2 L8.8 -23.2 Q3.4 -8.25 8.0 -1.35 L6.95 -1.0 Q6.1 -2.2 3.8 -3.1 4.35 -5.8 4.15 -9.0 3.95 -12.3 2.95 -15.25 1.8 -18.45 -0.1 -20.6 -2.2 -22.95 -5.0 -23.75 L-4.1 -24.95 Q-6.85 -22.8 -9.1 -18.85 -11.3 -15.0 -12.3 -10.6 -13.35 -5.95 -12.7 -2.0 -12.05 2.3 -9.15 5.2 -11.6 4.65 -13.75 2.8 L-15.45 1.15 -16.9 -0.45 Q-18.55 -2.15 -19.6 -2.15 -21.1 -2.25 -22.7 0.2 -23.3 -1.65 -22.35 -3.5 L-21.55 -5.0 Q-21.15 -5.85 -21.05 -6.6 -14.25 -12.0 -11.5 -22.25 L-11.65 -20.25 Q-10.95 -23.55 -9.05 -25.65 -7.2 -27.8 -4.7 -28.0 -2.6 -28.25 -0.95 -26.0 -0.25 -25.0 0.7 -22.8 L1.2 -21.7 1.1 -22.85 Q3.95 -19.9 5.25 -22.85 M8.55 -0.95 Q9.3 -0.95 9.8 -0.4 L9.5 1.05 7.75 0.85 7.25 -0.6 8.55 -0.95 M5.55 -1.7 Q6.85 -0.5 7.4 1.8 7.85 3.85 7.55 5.8 5.65 7.0 4.75 7.75 3.2 8.9 2.3 10.1 0.6 10.0 -0.5 8.55 -1.5 7.25 -1.8 5.2 -2.1 3.2 -1.65 1.35 -1.2 -0.65 -0.1 -1.7 0.9 -2.7 2.7 -2.65 4.45 -2.65 5.55 -1.7 M13.45 -3.3 Q14.35 -3.3 15.45 -1.5 16.5 0.25 15.75 2.15 L10.7 4.2 10.2 3.05 Q9.6 1.6 10.15 -0.05 10.65 -1.7 11.6 -2.5 12.55 -3.35 13.45 -3.3 M7.85 1.25 L7.9 1.35 7.85 1.3 7.85 1.25 M-1.25 3.1 Q-1.25 4.55 -0.85 5.7 -0.4 7.0 0.45 7.5 -0.85 5.75 -0.7 3.15 -0.65 0.9 0.45 -1.3 -0.3 -0.8 -0.75 0.45 -1.2 1.65 -1.25 3.1 M11.0 3.25 Q10.6 -0.6 12.3 -2.6 9.75 -0.2 11.0 3.25" fill="#ffffff" fill-rule="evenodd" stroke="none"/>
    <path d="M5.4 18.05 Q4.8 20.3 3.9 21.65 1.6 25.05 -4.1 24.6 -7.05 24.35 -12.55 15.75 -16.4 9.75 -19.25 3.75 L-15.0 7.8 -11.25 10.7 Q-9.35 12.25 -7.85 14.45 -6.3 16.55 -6.05 18.8 -4.65 16.75 -4.75 14.65 -1.8 15.7 1.1 15.4 3.9 15.1 6.25 13.75 L5.4 18.05" fill="#ff6666" fill-rule="evenodd" stroke="none"/>
    <path d="M-8.15 13.2 L-5.35 14.4 -5.45 15.95 -5.9 17.45 Q-6.05 16.55 -6.65 15.35 -7.25 14.1 -8.15 13.2" fill="#ff3333" fill-rule="evenodd" stroke="none"/>
  </g>
</svg>
