<?xml version="1.0" encoding="UTF-8" standalone="no"?>
<svg xmlns:xlink="http://www.w3.org/1999/xlink" height="25.1px" width="22.65px" xmlns="http://www.w3.org/2000/svg">
  <g transform="matrix(1.0, 0.0, 0.0, 1.0, 11.3, 12.55)">
    <path d="M2.45 4.5 L2.3 5.05 Q-0.45 6.2 -5.5 5.0 L-11.15 3.2 -11.05 2.4 -5.35 4.3 2.45 4.5 M10.75 4.1 L10.65 4.85 Q9.55 5.5 7.65 5.4 L5.45 5.05 5.45 4.65 7.3 4.85 Q9.7 4.95 10.75 4.1" fill="#000000" fill-rule="evenodd" stroke="none"/>
    <path d="M-11.05 2.4 L-10.1 -1.25 Q-8.95 -4.8 -6.8 -7.85 -4.7 -10.95 -2.3 -12.55 0.1 -12.0 1.55 -9.6 2.85 -7.5 3.2 -4.3 3.55 -1.45 3.1 1.6 L2.45 4.5 -5.35 4.3 -11.05 2.4 M2.3 5.05 L1.7 6.4 Q-0.95 5.55 -2.9 7.8 -4.55 9.75 -4.8 12.55 L-7.15 12.4 -9.4 12.0 Q-11.2 9.5 -11.3 5.85 L-11.15 3.2 -5.5 5.0 Q-0.45 6.2 2.3 5.05 M5.45 4.65 L5.6 3.05 Q5.65 2.25 5.85 1.45 6.5 -1.55 7.65 -4.15 8.8 -6.7 9.45 -7.7 11.55 -7.35 11.3 -0.8 L10.75 4.05 10.75 4.1 Q9.7 4.95 7.3 4.85 L5.45 4.65 M10.65 4.85 L10.0 7.25 8.7 8.4 Q7.65 8.95 7.4 9.65 6.05 9.2 5.65 6.8 L5.45 5.05 7.65 5.4 Q9.55 5.5 10.65 4.85" fill="#ffffff" fill-rule="evenodd" stroke="none"/>
  </g>
</svg>
