<?xml version="1.0" encoding="UTF-8" standalone="no"?>
<svg xmlns:xlink="http://www.w3.org/1999/xlink" height="25.05px" width="30.15px" xmlns="http://www.w3.org/2000/svg">
  <g transform="matrix(1.0, 0.0, 0.0, 1.0, -30.1, 9.7)">
    <path d="M31.35 3.9 L31.25 3.9 31.75 2.85 38.45 3.5 Q40.75 1.65 44.65 -3.15 47.4 -6.4 49.35 -6.6 L53.9 -7.1 53.85 -7.15 56.3 -7.5 58.7 -7.25 Q59.7 -6.2 58.8 -4.7 58.0 -3.3 55.8 -2.45 L53.55 -1.8 Q52.25 -1.5 51.75 -1.05 L57.6 0.2 Q60.1 0.8 60.1 2.5 60.05 3.5 58.7 4.25 57.3 5.05 55.35 5.1 55.6 6.3 54.75 6.95 56.25 7.35 56.25 8.7 56.45 11.65 47.7 11.65 L46.65 11.45 Q44.7 13.75 41.6 14.8 38.25 15.95 35.65 14.8 L31.7 14.2 30.9 14.1 30.55 13.35 34.75 14.15 Q34.15 13.8 33.9 13.05 36.35 15.05 39.8 14.5 43.1 13.9 45.95 11.3 44.6 11.05 44.2 10.4 47.8 11.35 51.65 11.05 55.95 10.65 55.8 8.7 55.75 7.85 54.3 7.5 L51.2 7.0 Q46.6 6.4 46.35 4.4 L47.45 5.2 Q48.75 4.15 51.4 4.25 L55.65 4.55 Q57.1 4.55 58.35 3.85 59.65 3.1 59.6 2.3 59.55 1.15 57.5 0.8 L53.7 0.1 Q50.35 -0.85 48.8 -0.85 45.5 -0.95 43.65 1.5 44.25 -0.25 46.1 -1.1 L50.95 -1.3 Q51.7 -1.95 54.2 -2.6 56.65 -3.25 57.85 -4.5 59.3 -5.95 58.35 -6.85 L54.4 -6.7 49.5 -5.9 Q48.2 -5.8 47.15 -4.9 L44.95 -2.4 Q40.8 2.75 35.45 6.95 35.95 5.8 37.95 4.05 L31.35 3.9 M54.75 5.05 L51.05 4.75 Q49.1 4.7 47.85 5.5 49.1 6.2 51.0 6.4 L54.1 6.8 Q55.4 5.95 54.75 5.05" fill="#000000" fill-rule="evenodd" stroke="none"/>
    <path d="M31.35 3.9 L37.95 4.05 Q35.95 5.8 35.45 6.95 40.8 2.75 44.95 -2.4 L47.15 -4.9 Q48.2 -5.8 49.5 -5.9 L54.4 -6.7 58.35 -6.85 Q59.3 -5.95 57.85 -4.5 56.65 -3.25 54.2 -2.6 51.7 -1.95 50.95 -1.3 L46.1 -1.1 Q44.25 -0.25 43.65 1.5 45.5 -0.95 48.8 -0.85 50.35 -0.85 53.7 0.1 L57.5 0.8 Q59.55 1.15 59.6 2.3 59.65 3.1 58.35 3.85 57.1 4.55 55.65 4.55 L51.4 4.25 Q48.75 4.15 47.45 5.2 L46.35 4.4 Q46.6 6.4 51.2 7.0 L54.3 7.5 Q55.75 7.85 55.8 8.7 55.95 10.65 51.65 11.05 47.8 11.35 44.2 10.4 44.6 11.05 45.95 11.3 43.1 13.9 39.8 14.5 36.35 15.05 33.9 13.05 34.15 13.8 34.75 14.15 L30.55 13.35 Q29.35 9.55 31.35 3.9 M60.25 -9.7 L60.25 -9.65 60.1 -9.7 60.25 -9.7 M54.75 5.05 Q55.4 5.95 54.1 6.8 L51.0 6.4 Q49.1 6.2 47.85 5.5 49.1 4.7 51.05 4.75 L54.75 5.05" fill="#ffffff" fill-rule="evenodd" stroke="none"/>
  </g>
</svg>
