<?xml version="1.0" encoding="UTF-8" standalone="no"?>
<svg xmlns:xlink="http://www.w3.org/1999/xlink" height="36.5px" width="25.75px" xmlns="http://www.w3.org/2000/svg">
  <g transform="matrix(1.0, 0.0, 0.0, 1.0, -31.65, 27.85)">
    <path d="M51.5 -20.55 Q49.0 -19.65 45.1 -22.55 45.6 -21.05 48.1 -20.0 L48.2 -19.15 Q45.75 -21.15 43.5 -20.0 43.7 -20.95 43.55 -23.4 43.3 -25.65 43.65 -26.2 44.05 -27.0 45.05 -27.05 45.95 -27.15 46.45 -26.65 48.55 -25.05 52.3 -23.05 53.1 -22.65 52.7 -21.7 52.3 -20.85 51.5 -20.55 M35.35 -7.3 L37.3 -0.05 Q37.6 -1.05 36.9 -4.25 L35.6 -9.1 Q34.55 -13.15 35.15 -15.6 35.55 -17.25 36.5 -17.75 36.95 -18.05 38.5 -17.1 L40.55 -15.85 43.4 -14.7 Q45.0 -13.95 44.1 -12.65 42.95 -11.0 40.7 -11.2 L38.05 -11.8 37.3 -12.0 Q37.55 -11.0 40.35 -10.55 42.05 -10.3 43.45 -11.1 44.45 -11.65 44.8 -12.4 45.2 -13.25 44.95 -14.2 44.75 -14.85 42.4 -15.85 42.15 -18.45 43.8 -19.4 45.35 -20.3 47.45 -18.75 L50.75 -16.1 53.8 -14.4 Q56.0 -13.25 54.8 -11.7 54.2 -10.8 52.45 -10.55 49.6 -10.2 45.8 -12.8 46.6 -11.4 48.8 -10.55 50.4 -9.9 51.15 -9.9 51.55 -4.6 47.75 -2.05 48.1 -3.5 47.85 -5.2 47.55 -6.75 46.95 -7.4 48.45 -1.1 43.9 2.8 40.9 5.4 32.65 7.85 32.7 7.5 32.45 7.8 32.2 8.1 31.75 3.7 31.25 -0.75 33.1 -3.8 34.85 -6.9 35.35 -7.3 M54.75 -19.75 Q55.25 -20.2 56.05 -19.6 56.85 -19.0 56.8 -17.95 56.75 -16.1 54.95 -14.5 L53.1 -15.5 Q51.85 -16.1 51.25 -16.65 L54.75 -19.75" fill="#ffffff" fill-rule="evenodd" stroke="none"/>
    <path d="M51.5 -20.55 Q52.3 -20.85 52.7 -21.7 53.1 -22.65 52.3 -23.05 48.55 -25.05 46.45 -26.65 45.95 -27.15 45.05 -27.05 44.05 -27.0 43.65 -26.2 43.3 -25.65 43.55 -23.4 43.7 -20.95 43.5 -20.0 45.75 -21.15 48.2 -19.15 L48.1 -20.0 Q45.6 -21.05 45.1 -22.55 49.0 -19.65 51.5 -20.55 M35.35 -7.3 L35.1 -8.65 Q34.35 -11.75 34.35 -13.4 34.25 -16.1 36.1 -18.15 37.45 -18.8 40.1 -17.1 40.75 -16.45 41.75 -16.2 41.7 -18.35 42.95 -20.1 43.15 -21.1 43.0 -22.85 42.65 -25.1 43.45 -27.1 44.05 -27.75 45.55 -27.85 L47.65 -26.7 50.65 -24.85 50.65 -24.8 51.95 -24.15 53.0 -23.25 Q53.6 -22.6 53.4 -22.0 52.8 -20.5 51.45 -19.95 L48.6 -19.9 Q48.5 -19.15 48.7 -18.6 L50.65 -16.95 54.3 -20.15 Q54.9 -20.8 55.9 -20.3 57.95 -19.1 57.2 -16.75 56.55 -14.7 55.25 -14.15 56.55 -12.6 55.0 -11.05 53.55 -9.7 51.65 -9.85 52.0 -7.3 50.9 -4.85 49.7 -2.45 47.45 -1.2 46.35 2.7 41.55 5.3 38.1 7.05 32.8 8.65 L32.65 7.85 Q40.9 5.4 43.9 2.8 48.45 -1.1 46.95 -7.4 47.55 -6.75 47.85 -5.2 48.1 -3.5 47.75 -2.05 51.55 -4.6 51.15 -9.9 50.4 -9.9 48.8 -10.55 46.6 -11.4 45.8 -12.8 49.6 -10.2 52.45 -10.55 54.2 -10.8 54.8 -11.7 56.0 -13.25 53.8 -14.4 L50.75 -16.1 47.45 -18.75 Q45.35 -20.3 43.8 -19.4 42.15 -18.45 42.4 -15.85 44.75 -14.85 44.95 -14.2 45.2 -13.25 44.8 -12.4 44.45 -11.65 43.45 -11.1 42.05 -10.3 40.35 -10.55 37.55 -11.0 37.3 -12.0 L38.05 -11.8 40.7 -11.2 Q42.95 -11.0 44.1 -12.65 45.0 -13.95 43.4 -14.7 L40.55 -15.85 38.5 -17.1 Q36.95 -18.05 36.5 -17.75 35.55 -17.25 35.15 -15.6 34.55 -13.15 35.6 -9.1 L36.9 -4.25 Q37.6 -1.05 37.3 -0.05 L35.35 -7.3 M54.75 -19.75 L51.25 -16.65 Q51.85 -16.1 53.1 -15.5 L54.95 -14.5 Q56.75 -16.1 56.8 -17.95 56.85 -19.0 56.05 -19.6 55.25 -20.2 54.75 -19.75" fill="#000000" fill-rule="evenodd" stroke="none"/>
  </g>
</svg>
