<?xml version="1.0" encoding="UTF-8" standalone="no"?>
<svg xmlns:xlink="http://www.w3.org/1999/xlink" height="30.2px" width="35.6px" xmlns="http://www.w3.org/2000/svg">
  <g transform="matrix(1.0, 0.0, 0.0, 1.0, -29.85, 17.65)">
    <path d="M63.4 -9.55 Q62.55 -10.7 60.3 -9.9 58.5 -9.25 57.15 -8.1 57.75 -7.2 57.85 -5.8 L57.9 -3.3 Q58.7 -4.0 59.5 -4.2 59.25 -6.5 60.0 -7.3 59.6 -4.75 60.65 -2.65 61.8 -0.3 64.1 -0.85 64.95 -1.1 64.7 -2.55 L64.15 -4.9 Q64.0 -5.45 63.95 -7.3 63.85 -8.8 63.4 -9.55 M33.65 -3.2 L33.55 -3.2 33.9 -3.9 34.2 -3.95 37.5 -4.4 Q38.85 -5.95 40.2 -8.5 L42.4 -12.85 Q44.85 -17.7 47.05 -17.65 47.75 -17.65 49.0 -16.45 L51.1 -14.65 53.0 -13.55 Q54.1 -12.55 53.2 -11.1 52.6 -10.15 51.0 -9.75 L48.05 -9.7 Q46.55 -8.2 46.9 -6.4 48.85 -6.45 52.45 -8.3 55.2 -9.75 56.65 -8.65 L59.85 -10.4 63.35 -10.25 Q64.35 -9.5 64.6 -7.75 L65.4 -2.55 Q65.6 -1.1 64.75 -0.55 L61.85 -0.5 Q60.25 -1.35 59.65 -3.6 58.8 -3.35 57.8 -2.55 L58.3 0.65 Q58.5 2.6 57.0 3.2 55.4 3.85 53.85 2.45 48.1 8.65 42.25 7.2 40.3 8.25 38.25 8.25 38.4 9.75 37.3 11.2 36.1 12.8 34.55 12.5 33.75 12.3 33.25 11.25 L32.45 9.3 30.6 6.7 Q29.9 5.7 29.85 4.8 29.8 4.35 29.9 4.0 30.1 3.1 30.9 2.35 L32.45 1.3 34.35 0.1 37.0 -3.8 33.65 -3.2 M57.25 -5.1 Q57.25 -6.85 56.5 -7.85 55.45 -9.1 52.45 -7.55 48.75 -5.7 47.0 -5.95 L47.15 -5.15 Q45.25 -7.3 47.4 -9.95 46.1 -10.8 46.05 -11.85 48.25 -9.8 50.7 -10.25 52.85 -10.6 53.1 -12.0 53.15 -12.9 52.2 -13.5 51.4 -13.9 50.55 -14.35 L48.7 -16.0 Q47.6 -17.1 46.9 -17.05 45.25 -17.0 43.7 -14.0 L40.95 -8.3 38.2 -4.15 35.3 -0.35 36.95 -1.05 Q36.15 -0.15 33.4 1.5 31.0 2.9 30.45 4.05 30.1 5.1 31.2 6.6 L32.9 8.95 33.8 11.05 Q34.45 12.3 35.5 11.8 36.85 11.25 37.45 9.55 38.3 7.0 35.65 3.95 36.45 4.05 37.25 5.25 38.1 6.45 38.25 7.75 42.15 7.45 46.7 2.7 46.0 4.4 43.1 6.8 48.6 7.5 53.35 2.0 52.25 0.55 52.05 -1.7 51.9 -3.85 52.6 -4.8 52.0 -2.0 53.25 0.5 54.6 3.2 56.85 2.65 57.8 2.3 57.65 0.75 L57.2 -2.15 57.25 -5.1" fill="#000000" fill-rule="evenodd" stroke="none"/>
    <path d="M63.4 -9.55 Q63.85 -8.8 63.95 -7.3 64.0 -5.45 64.15 -4.9 L64.7 -2.55 Q64.95 -1.1 64.1 -0.85 61.8 -0.3 60.65 -2.65 59.6 -4.75 60.0 -7.3 59.25 -6.5 59.5 -4.2 58.7 -4.0 57.9 -3.3 L57.85 -5.8 Q57.75 -7.2 57.15 -8.1 58.5 -9.25 60.3 -9.9 62.55 -10.7 63.4 -9.55 M32.45 1.3 Q32.2 -0.95 33.65 -3.2 L37.0 -3.8 34.35 0.1 32.45 1.3 M57.25 -5.1 L57.2 -2.15 57.65 0.75 Q57.8 2.3 56.85 2.65 54.6 3.2 53.25 0.5 52.0 -2.0 52.6 -4.8 51.9 -3.85 52.05 -1.7 52.25 0.55 53.35 2.0 48.6 7.5 43.1 6.8 46.0 4.4 46.7 2.7 42.15 7.45 38.25 7.75 38.1 6.45 37.25 5.25 36.45 4.05 35.65 3.95 38.3 7.0 37.45 9.55 36.85 11.25 35.5 11.8 34.45 12.3 33.8 11.05 L32.9 8.95 31.2 6.6 Q30.1 5.1 30.45 4.05 31.0 2.9 33.4 1.5 36.15 -0.15 36.95 -1.05 L35.3 -0.35 38.2 -4.15 40.95 -8.3 43.7 -14.0 Q45.25 -17.0 46.9 -17.05 47.6 -17.1 48.7 -16.0 L50.55 -14.35 Q51.4 -13.9 52.2 -13.5 53.15 -12.9 53.1 -12.0 52.85 -10.6 50.7 -10.25 48.25 -9.8 46.05 -11.85 46.1 -10.8 47.4 -9.95 45.25 -7.3 47.15 -5.15 L47.0 -5.95 Q48.75 -5.7 52.45 -7.55 55.45 -9.1 56.5 -7.85 57.25 -6.85 57.25 -5.1" fill="#ffffff" fill-rule="evenodd" stroke="none"/>
  </g>
</svg>
