<?xml version="1.0" encoding="UTF-8" standalone="no"?>
<svg xmlns:xlink="http://www.w3.org/1999/xlink" height="20.45px" width="36.45px" xmlns="http://www.w3.org/2000/svg">
  <g transform="matrix(1.0, 0.0, 0.0, 1.0, -25.95, 24.65)">
    <path d="M25.95 -15.25 L25.95 -16.4 Q32.5 -24.15 37.4 -23.25 43.2 -22.25 47.65 -23.35 L50.4 -24.2 52.2 -24.65 Q55.55 -24.8 55.45 -21.35 L59.2 -21.35 Q61.4 -21.25 62.2 -19.6 62.6 -18.6 62.1 -17.15 61.35 -15.15 61.25 -14.1 61.05 -11.05 59.35 -11.05 57.75 -11.1 56.85 -12.6 56.15 -13.8 56.15 -15.25 L54.45 -15.2 54.0 -13.05 Q53.55 -12.05 52.4 -12.05 51.15 -12.0 50.05 -13.15 L47.05 -11.6 Q47.1 -11.25 47.5 -10.65 49.1 -11.75 51.65 -11.45 54.25 -11.15 54.7 -9.5 54.95 -8.3 51.85 -6.85 L49.4 -5.25 Q48.15 -4.3 47.25 -4.2 45.95 -4.1 44.2 -5.15 L41.1 -6.9 Q38.35 -7.5 36.0 -9.35 34.5 -8.65 34.25 -7.55 L33.5 -6.55 32.2 -6.3 35.45 -9.85 Q34.3 -11.65 34.3 -12.0 L35.1 -11.2 36.55 -9.6 Q39.05 -7.35 43.1 -7.25 42.95 -7.0 42.5 -6.9 L44.5 -5.7 Q45.95 -4.8 47.05 -4.7 47.7 -4.7 49.2 -5.85 L51.6 -7.5 Q54.45 -8.9 54.15 -9.45 53.4 -10.9 50.75 -10.9 48.0 -10.85 46.15 -8.9 46.45 -9.85 47.05 -10.4 L46.55 -11.35 45.4 -10.95 Q47.25 -12.65 49.65 -13.8 48.9 -15.35 48.95 -17.25 49.0 -19.5 50.15 -20.7 48.6 -15.6 51.2 -13.0 51.8 -12.5 52.6 -12.7 53.4 -12.85 53.5 -13.4 L54.05 -17.75 54.6 -20.7 Q54.95 -22.45 54.1 -23.5 53.45 -24.1 52.25 -24.0 L50.65 -23.5 48.0 -22.65 Q43.6 -21.6 36.85 -22.6 32.65 -23.2 25.95 -15.25 M46.3 -16.15 L46.1 -13.4 Q45.9 -11.75 44.6 -11.55 42.4 -11.25 41.25 -12.95 39.95 -14.9 41.2 -18.25 40.7 -15.15 41.6 -13.5 42.55 -11.8 44.65 -12.15 45.45 -12.35 45.55 -13.75 L45.7 -16.2 Q46.45 -19.65 46.05 -20.2 45.3 -21.2 42.95 -21.2 L39.65 -20.75 Q40.8 -21.7 43.15 -21.65 45.5 -21.6 46.6 -20.5 47.05 -19.95 46.75 -18.25 L46.3 -16.15 M56.2 -15.9 Q56.6 -18.0 57.85 -18.9 56.2 -15.65 56.95 -13.55 57.45 -12.1 58.8 -11.65 L60.0 -11.75 Q60.45 -12.3 60.7 -14.45 60.8 -15.5 61.55 -17.55 62.0 -18.8 61.4 -19.65 60.55 -20.75 58.6 -20.75 L56.95 -20.65 55.35 -20.7 Q54.95 -19.4 54.5 -15.7 L56.2 -15.9 M35.95 -12.25 Q32.5 -12.5 31.75 -14.95 33.1 -12.95 35.95 -12.75 38.5 -12.65 40.25 -13.9 39.25 -12.05 35.95 -12.25" fill="#000000" fill-rule="evenodd" stroke="none"/>
    <path d="M32.2 -6.3 L32.2 -6.25 Q27.0 -8.7 25.95 -15.25 32.65 -23.2 36.85 -22.6 43.6 -21.6 48.0 -22.65 L50.65 -23.5 52.25 -24.0 Q53.45 -24.1 54.1 -23.5 54.95 -22.45 54.6 -20.7 L54.05 -17.75 53.5 -13.4 Q53.4 -12.85 52.6 -12.7 51.8 -12.5 51.2 -13.0 48.6 -15.6 50.15 -20.7 49.0 -19.5 48.95 -17.25 48.9 -15.35 49.65 -13.8 47.25 -12.65 45.4 -10.95 L46.55 -11.35 47.05 -10.4 Q46.45 -9.85 46.15 -8.9 48.0 -10.85 50.75 -10.9 53.4 -10.9 54.15 -9.45 54.45 -8.9 51.6 -7.5 L49.2 -5.85 Q47.7 -4.7 47.05 -4.7 45.95 -4.8 44.5 -5.7 L42.5 -6.9 Q42.95 -7.0 43.1 -7.25 39.05 -7.35 36.55 -9.6 L35.1 -11.2 34.3 -12.0 Q34.3 -11.65 35.45 -9.85 L32.2 -6.3 M46.3 -16.15 L46.75 -18.25 Q47.05 -19.95 46.6 -20.5 45.5 -21.6 43.15 -21.65 40.8 -21.7 39.65 -20.75 L42.95 -21.2 Q45.3 -21.2 46.05 -20.2 46.45 -19.65 45.7 -16.2 L45.55 -13.75 Q45.45 -12.35 44.65 -12.15 42.55 -11.8 41.6 -13.5 40.7 -15.15 41.2 -18.25 39.95 -14.9 41.25 -12.95 42.4 -11.25 44.6 -11.55 45.9 -11.75 46.1 -13.4 L46.3 -16.15 M56.2 -15.9 L54.5 -15.7 Q54.95 -19.4 55.35 -20.7 L56.95 -20.65 58.6 -20.75 Q60.55 -20.75 61.4 -19.65 62.0 -18.8 61.55 -17.55 60.8 -15.5 60.7 -14.45 60.45 -12.3 60.0 -11.75 L58.8 -11.65 Q57.45 -12.1 56.95 -13.55 56.2 -15.65 57.85 -18.9 56.6 -18.0 56.2 -15.9 M35.95 -12.25 Q39.25 -12.05 40.25 -13.9 38.5 -12.65 35.95 -12.75 33.1 -12.95 31.75 -14.95 32.5 -12.5 35.95 -12.25" fill="#ffffff" fill-rule="evenodd" stroke="none"/>
  </g>
</svg>
