<?xml version="1.0" encoding="UTF-8" standalone="no"?>
<svg xmlns:xlink="http://www.w3.org/1999/xlink" height="1.8px" width="1.95px" xmlns="http://www.w3.org/2000/svg">
  <g transform="matrix(1.0, 0.0, 0.0, 1.0, 1.0, 0.95)">
    <path d="M0.55 -0.2 L0.1 -0.15 -0.15 -0.55 -0.15 -0.1 -0.55 0.05 -0.1 0.05 0.15 0.45 0.15 0.05 0.55 -0.2 M0.95 -0.35 L0.25 0.1 0.25 0.85 -0.2 0.15 -1.0 0.1 -0.3 -0.2 -0.3 -0.95 0.15 -0.25 0.95 -0.35" fill="#ff6600" fill-rule="evenodd" stroke="none"/>
    <path d="M0.55 -0.2 L0.15 0.05 0.15 0.45 -0.1 0.05 -0.55 0.05 -0.15 -0.1 -0.15 -0.55 0.1 -0.15 0.55 -0.2" fill="#ffff00" fill-rule="evenodd" stroke="none"/>
  </g>
</svg>
