<?xml version="1.0" encoding="UTF-8" standalone="no"?>
<svg xmlns:xlink="http://www.w3.org/1999/xlink" height="59.0px" width="28.7px" xmlns="http://www.w3.org/2000/svg">
  <g transform="matrix(1.0, 0.0, 0.0, 1.0, 14.35, 29.5)">
    <path d="M13.55 27.85 L11.5 -22.0 0.0 -2.6 -1.4 -24.15 -7.0 -15.8 -12.1 -24.35 -6.85 -13.25 -3.3 -16.85 -1.05 1.75 7.35 -13.55 11.65 28.1 11.15 28.15 6.7 -11.0 -1.25 6.25 -3.9 -14.15 -7.0 -10.85 -14.35 -29.5 -7.4 -18.6 -0.75 -26.3 1.0 -5.2 13.15 -25.8 14.35 27.75 13.55 27.85" fill="#66ffff" fill-rule="evenodd" stroke="none"/>
    <path d="M11.65 28.1 L7.35 -13.55 -1.05 1.75 -3.3 -16.85 -6.85 -13.25 -12.1 -24.35 -7.0 -15.8 -1.4 -24.15 0.0 -2.6 11.5 -22.0 13.55 27.85 13.6 29.4 11.8 29.5 11.65 28.1" fill="#ffffff" fill-rule="evenodd" stroke="none"/>
  </g>
</svg>
