<?xml version="1.0" encoding="UTF-8" standalone="no"?>
<svg xmlns:xlink="http://www.w3.org/1999/xlink" height="92.9px" width="105.6px" xmlns="http://www.w3.org/2000/svg">
  <g transform="matrix(1.0, 0.0, 0.0, 1.0, 52.8, 46.45)">
    <path d="M5.4 -37.65 L4.75 -44.3 -48.0 -38.55 -26.8 -34.25 5.4 -37.65 M6.05 -44.25 L7.05 -37.9 44.85 -41.35 6.05 -44.25 M51.2 -42.25 L52.1 -27.4 52.25 -24.35 Q53.5 4.05 52.0 32.4 14.1 41.9 -19.65 46.45 -33.05 37.65 -45.75 25.25 -51.0 -7.8 -52.8 -39.3 L4.65 -46.45 50.8 -42.35 51.2 -42.25 M49.9 -27.4 L48.8 -39.85 -26.4 -32.1 Q-25.05 6.95 -18.6 44.4 14.8 39.8 49.8 30.9 51.9 3.25 50.1 -24.35 L49.9 -27.4 M-50.3 -37.6 Q-49.7 -6.05 -44.15 24.7 -33.0 35.5 -20.75 43.5 -26.75 3.25 -28.75 -32.45 L-50.3 -37.6" fill="#333300" fill-rule="evenodd" stroke="none"/>
    <path d="M6.05 -44.25 L44.85 -41.35 7.05 -37.9 6.05 -44.25" fill="#999933" fill-rule="evenodd" stroke="none"/>
    <path d="M5.4 -37.65 L-26.8 -34.25 -48.0 -38.55 4.75 -44.3 5.4 -37.65" fill="#666633" fill-rule="evenodd" stroke="none"/>
    <path d="M49.9 -27.4 L50.1 -24.35 Q51.9 3.25 49.8 30.9 14.8 39.8 -18.6 44.4 -25.05 6.95 -26.4 -32.1 L48.8 -39.85 49.9 -27.4" fill="#cccc99" fill-rule="evenodd" stroke="none"/>
    <path d="M-50.3 -37.6 L-28.75 -32.45 Q-26.75 3.25 -20.75 43.5 -33.0 35.5 -44.15 24.7 -49.7 -6.05 -50.3 -37.6" fill="#999966" fill-rule="evenodd" stroke="none"/>
  </g>
</svg>
