<?xml version="1.0" encoding="UTF-8" standalone="no"?>
<svg xmlns:xlink="http://www.w3.org/1999/xlink" height="79.25px" width="151.9px" xmlns="http://www.w3.org/2000/svg">
  <g transform="matrix(1.0, 0.0, 0.0, 1.0, 126.4, 37.95)">
    <path d="M25.5 -1.2 Q25.45 18.7 0.75 29.65 -23.95 40.6 -53.65 41.25 -83.35 41.9 -102.35 30.25 -121.35 18.65 -125.55 -3.75 -129.75 -26.25 -113.3 -34.1 -103.4 -38.85 -89.15 -37.75 -79.85 -37.05 -68.65 -33.8 -40.35 -25.6 -7.45 -23.35 21.4 -21.4 25.0 -5.85 25.5 -3.65 25.5 -1.2 M21.35 -1.15 L21.35 -1.25 Q21.25 -17.6 -9.1 -19.4 -39.55 -21.25 -65.7 -28.0 -91.9 -34.8 -107.05 -28.3 L-109.0 -27.35 Q-122.0 -20.55 -118.35 -3.3 -114.5 15.2 -96.9 24.8 -79.35 34.35 -51.85 33.8 -24.35 33.25 -1.5 24.25 21.35 15.25 21.35 -1.15" fill="#000000" fill-rule="evenodd" stroke="none"/>
    <path d="M21.35 -1.25 L21.35 -1.2 Q16.55 7.15 1.4 12.5 -20.7 20.3 -47.3 20.8 -73.9 21.25 -90.85 12.95 -107.85 4.7 -111.6 -11.3 -114.0 -21.4 -109.0 -27.35 L-107.05 -28.3 Q-91.9 -34.8 -65.7 -28.0 -39.55 -21.25 -9.1 -19.4 21.25 -17.6 21.35 -1.25 M-90.6 -18.9 Q-90.6 -16.75 -87.35 -15.3 -84.05 -13.8 -79.4 -13.8 -74.7 -13.8 -71.45 -15.3 -68.15 -16.75 -68.15 -18.9 -68.15 -21.0 -71.45 -22.5 -74.7 -24.0 -79.4 -24.0 -84.05 -24.0 -87.35 -22.5 -90.6 -21.0 -90.6 -18.9" fill="#999999" fill-rule="evenodd" stroke="none"/>
    <path d="M21.35 -1.2 L21.35 -1.15 Q21.35 15.25 -1.5 24.25 -24.35 33.25 -51.85 33.8 -79.35 34.35 -96.9 24.8 -114.5 15.2 -118.35 -3.3 -122.0 -20.55 -109.0 -27.35 -114.0 -21.4 -111.6 -11.3 -107.85 4.7 -90.85 12.95 -73.9 21.25 -47.3 20.8 -20.7 20.3 1.4 12.5 16.55 7.15 21.35 -1.2" fill="#666666" fill-rule="evenodd" stroke="none"/>
    <path d="M-90.6 -18.9 Q-90.6 -21.0 -87.35 -22.5 -84.05 -24.0 -79.4 -24.0 -74.7 -24.0 -71.45 -22.5 -68.15 -21.0 -68.15 -18.9 -68.15 -16.75 -71.45 -15.3 -74.7 -13.8 -79.4 -13.8 -84.05 -13.8 -87.35 -15.3 -90.6 -16.75 -90.6 -18.9" fill="#ffffff" fill-rule="evenodd" stroke="none"/>
  </g>
</svg>
