<?xml version="1.0" encoding="UTF-8" standalone="no"?>
<svg xmlns:xlink="http://www.w3.org/1999/xlink" height="78.2px" width="111.65px" xmlns="http://www.w3.org/2000/svg">
  <g transform="matrix(1.0, 0.0, 0.0, 1.0, 94.25, 47.8)">
    <path d="M10.6 -14.8 Q9.9 -19.2 8.45 -23.9 -31.1 -29.85 -75.95 -42.35 -86.6 -33.9 -89.4 -23.5 -93.0 -10.4 -83.85 5.8 -46.6 20.05 -2.1 22.3 14.3 8.3 10.6 -14.8 M-6.15 -31.2 Q14.1 -27.15 14.45 -27.55 24.35 10.75 0.8 30.4 -47.15 25.3 -87.7 12.8 -99.3 -14.15 -90.4 -31.85 -86.55 -39.6 -77.3 -47.8 -26.45 -35.25 -6.15 -31.2" fill="#000000" fill-rule="evenodd" stroke="none"/>
    <path d="M-89.4 -23.5 Q-86.6 -33.9 -75.95 -42.35 -31.1 -29.85 8.45 -23.9 9.9 -19.2 10.6 -14.8 8.25 -2.35 -2.1 6.5 -46.6 4.25 -83.85 -10.0 -87.85 -17.05 -89.4 -23.5 M-3.85 -23.6 Q-37.3 -25.5 -66.6 -36.25 -40.0 -16.75 -3.85 -23.6" fill="#999999" fill-rule="evenodd" stroke="none"/>
    <path d="M10.6 -14.8 Q14.3 8.3 -2.1 22.3 -46.6 20.05 -83.85 5.8 -93.0 -10.4 -89.4 -23.5 -87.85 -17.05 -83.85 -10.0 -46.6 4.25 -2.1 6.5 8.25 -2.35 10.6 -14.8" fill="#666666" fill-rule="evenodd" stroke="none"/>
    <path d="M-3.85 -23.6 Q-40.0 -16.75 -66.6 -36.25 -37.3 -25.5 -3.85 -23.6" fill="#cccccc" fill-rule="evenodd" stroke="none"/>
  </g>
</svg>
