<?xml version="1.0" encoding="UTF-8" standalone="no"?>
<svg xmlns:xlink="http://www.w3.org/1999/xlink" height="173.3px" width="197.3px" xmlns="http://www.w3.org/2000/svg">
  <g transform="matrix(1.0, 0.0, 0.0, 1.0, 169.4, 99.25)">
    <path d="M2.4 39.35 Q13.35 15.2 19.65 -13.6 26.0 -42.5 -8.15 -54.2 -42.25 -65.95 -85.2 -85.05 -128.15 -104.15 -146.8 -75.95 -165.45 -47.75 -164.5 -0.8 -164.25 11.7 -162.0 21.6 L-160.8 26.25 Q-154.0 49.25 -134.9 55.55 -106.25 65.0 -57.45 64.3 -11.8 63.6 0.8 42.45 L2.35 39.4 2.4 39.35 M-2.75 -56.75 Q33.6 -43.8 26.85 -11.95 20.1 19.9 8.45 46.55 -3.3 73.2 -55.3 74.0 -107.3 74.8 -137.8 64.4 -162.35 56.0 -167.8 20.95 -169.15 12.35 -169.35 2.2 -170.4 -49.6 -150.5 -80.7 -130.6 -111.85 -84.85 -90.75 -39.1 -69.7 -2.75 -56.75" fill="#000000" fill-rule="evenodd" stroke="none"/>
    <path d="M2.4 39.35 L2.35 39.4 2.35 39.35 2.4 39.35" fill="#6699cc" fill-rule="evenodd" stroke="none"/>
    <path d="M-162.0 21.6 Q-164.25 11.7 -164.5 -0.8 -165.45 -47.75 -146.8 -75.95 -128.15 -104.15 -85.2 -85.05 -42.25 -65.95 -8.15 -54.2 26.0 -42.5 19.65 -13.6 13.35 15.2 2.4 39.35 L2.35 39.35 Q-107.0 54.45 -162.0 21.6 M0.8 42.45 Q-11.8 63.6 -57.45 64.3 -106.25 65.0 -134.9 55.55 -154.0 49.25 -160.8 26.25 -105.5 59.75 0.8 42.45" fill="#999999" fill-rule="evenodd" stroke="none"/>
    <path d="M2.35 39.4 L0.8 42.45 Q-105.5 59.75 -160.8 26.25 L-162.0 21.6 Q-107.0 54.45 2.35 39.35 L2.35 39.4" fill="#333333" fill-rule="evenodd" stroke="none"/>
  </g>
</svg>
