<?xml version="1.0" encoding="UTF-8" standalone="no"?>
<svg xmlns:xlink="http://www.w3.org/1999/xlink" height="27.55px" width="64.05px" xmlns="http://www.w3.org/2000/svg">
  <g transform="matrix(1.0, 0.0, 0.0, 1.0, 32.0, 13.7)">
    <path d="M2.95 -8.55 Q16.15 -4.1 24.65 1.55 33.1 7.2 31.9 10.8 30.7 14.35 20.55 13.75 10.35 13.1 -2.85 8.7 -16.1 4.2 -24.55 -1.45 -33.05 -7.1 -31.85 -10.65 -31.2 -12.55 -28.15 -13.25 L-20.45 -13.6 Q-13.55 -13.2 -5.25 -11.05 L0.8 -9.25 2.95 -8.55 M27.55 5.15 Q25.8 3.65 22.9 1.85 14.65 -3.25 2.0 -7.5 -10.65 -11.75 -20.25 -12.7 L-29.15 -12.3 Q-30.55 -11.75 -30.85 -10.75 -31.85 -7.85 -23.6 -2.75 -15.4 2.3 -2.7 6.55 9.95 10.8 19.55 11.75 29.2 12.7 30.2 9.8 30.8 7.95 27.55 5.15" fill="#000000" fill-rule="evenodd" stroke="none"/>
    <path d="M27.55 5.15 Q30.8 7.95 30.2 9.8 29.2 12.7 19.55 11.75 9.95 10.8 -2.7 6.55 -15.4 2.3 -23.6 -2.75 -31.85 -7.85 -30.85 -10.75 -30.55 -11.75 -29.15 -12.3 L-29.25 -12.0 Q-30.2 -9.3 -22.45 -4.55 -14.75 0.2 -2.9 4.2 8.95 8.2 18.0 9.1 27.0 9.95 27.95 7.25 28.25 6.3 27.55 5.15" fill="#666666" fill-rule="evenodd" stroke="none"/>
    <path d="M-29.15 -12.3 L-20.25 -12.7 Q-10.65 -11.75 2.0 -7.5 14.65 -3.25 22.9 1.85 25.8 3.65 27.55 5.15 28.25 6.3 27.95 7.25 27.0 9.95 18.0 9.1 8.95 8.2 -2.9 4.2 -14.75 0.2 -22.45 -4.55 -30.2 -9.3 -29.25 -12.0 L-29.15 -12.3 M-9.45 -5.5 Q-7.3 -5.3 -7.4 -5.85 -7.55 -6.45 -9.3 -7.25 -11.05 -8.1 -12.95 -8.55 L-16.2 -9.0 Q-17.6 -8.95 -17.75 -8.5 -17.85 -8.0 -16.6 -7.35 -15.35 -6.65 -13.5 -6.2 L-9.45 -5.5" fill="#999999" fill-rule="evenodd" stroke="none"/>
    <path d="M-9.45 -5.5 L-13.5 -6.2 Q-15.35 -6.65 -16.6 -7.35 -17.85 -8.0 -17.75 -8.5 -17.6 -8.95 -16.2 -9.0 L-12.95 -8.55 Q-11.05 -8.1 -9.3 -7.25 -7.55 -6.45 -7.4 -5.85 -7.3 -5.3 -9.45 -5.5" fill="#ffffff" fill-rule="evenodd" stroke="none"/>
  </g>
</svg>
