<?xml version="1.0" encoding="UTF-8" standalone="no"?>
<svg xmlns:xlink="http://www.w3.org/1999/xlink" height="151.0px" width="297.2px" xmlns="http://www.w3.org/2000/svg">
  <g transform="matrix(1.0, 0.0, 0.0, 1.0, 148.6, 75.5)">
    <path d="M148.6 -67.0 L148.6 74.05 131.15 74.8 Q-11.7 80.05 -129.5 46.3 -136.35 39.15 -140.7 31.4 -142.4 28.45 -143.7 25.4 -156.3 -3.8 -136.6 -41.7 -132.1 -50.45 -125.85 -59.7 30.15 -84.85 131.15 -69.95 L148.6 -67.0 M137.9 43.05 L137.9 -61.4 131.15 -62.55 Q33.9 -78.65 -120.65 -54.8 -131.9 -39.0 -137.25 -24.65 -148.25 4.65 -134.55 27.55 -13.8 55.0 131.15 50.4 L137.9 50.2 137.9 43.05 M-130.2 33.8 Q-127.45 37.3 -124.1 40.65 -9.15 72.2 131.15 66.0 L137.9 65.7 137.9 55.5 131.15 55.75 Q-11.2 60.2 -130.2 33.8" fill="#000000" fill-rule="evenodd" stroke="none"/>
    <path d="M-137.25 -24.65 Q-131.9 -39.0 -120.65 -54.8 33.9 -78.65 131.15 -62.55 L137.9 -61.4 137.9 43.05 131.15 43.25 Q-5.15 46.8 -118.4 14.35 -135.25 -3.15 -137.25 -24.65" fill="#999999" fill-rule="evenodd" stroke="none"/>
    <path d="M137.9 43.05 L137.9 50.2 131.15 50.4 Q-13.8 55.0 -134.55 27.55 -148.25 4.65 -137.25 -24.65 -135.25 -3.15 -118.4 14.35 -5.15 46.8 131.15 43.25 L137.9 43.05 M-130.2 33.8 Q-11.2 60.2 131.15 55.75 L137.9 55.5 137.9 65.7 131.15 66.0 Q-9.15 72.2 -124.1 40.65 -127.45 37.3 -130.2 33.8" fill="#666666" fill-rule="evenodd" stroke="none"/>
  </g>
</svg>
