<?xml version="1.0" encoding="UTF-8" standalone="no"?>
<svg xmlns:xlink="http://www.w3.org/1999/xlink" height="347.9px" width="533.0px" xmlns="http://www.w3.org/2000/svg">
  <g transform="matrix(1.0, 0.0, 0.0, 1.0, 268.0, 172.5)">
    <path d="M-267.95 122.05 L-267.05 122.85 Q-32.1 -96.7 265.0 -123.35 L265.0 175.4 -255.2 175.4 -255.2 175.2 -255.2 175.4 -267.95 175.4 -267.95 122.05 M184.1 54.95 L184.1 54.85 183.95 54.9 184.1 54.95" fill="#3366cc" fill-rule="evenodd" stroke="none"/>
    <path d="M-267.95 122.05 L-267.95 72.9 -267.3 97.9 -268.0 -172.5 -255.2 -172.5 -255.2 -171.75 -255.2 -172.5 265.0 -172.5 265.0 -123.35 Q-32.1 -96.7 -267.05 122.85 L-267.95 122.05" fill="#003399" fill-rule="evenodd" stroke="none"/>
  </g>
</svg>
