<?xml version="1.0" encoding="UTF-8" standalone="no"?>
<svg xmlns:xlink="http://www.w3.org/1999/xlink" height="29.45px" width="29.25px" xmlns="http://www.w3.org/2000/svg">
  <g transform="matrix(1.0, 0.0, 0.0, 1.0, 14.7, 14.7)">
    <path d="M14.05 3.1 Q14.1 4.3 12.65 6.55 L11.25 8.35 11.1 8.5 Q7.6 11.35 4.25 11.9 -1.15 12.8 -5.9 9.55 -10.6 6.3 -11.9 0.85 -13.1 -4.4 -9.95 -9.7 L-9.8 -9.85 -10.0 -9.45 -9.7 -9.9 -9.65 -10.0 -9.35 -10.3 Q9.55 -16.55 14.05 3.1 M-9.65 -10.2 L-9.25 -10.4 -9.3 -10.35 -9.35 -10.3 -9.65 -10.2" fill="#cc0000" fill-rule="evenodd" stroke="none"/>
    <path d="M11.1 8.5 L9.4 10.45 8.7 11.1 6.95 12.65 Q5.5 13.95 1.85 14.55 -3.6 15.4 -8.3 12.2 -13.05 8.95 -14.35 3.5 -15.6 -2.0 -12.65 -6.5 L-9.95 -9.7 Q-13.1 -4.4 -11.9 0.85 -10.6 6.3 -5.9 9.55 -1.15 12.8 4.25 11.9 7.6 11.35 11.1 8.5 M-9.8 -9.85 L-9.65 -10.2 -9.65 -10.0 -9.7 -9.9 -10.0 -9.45 -9.8 -9.85" fill="#660000" fill-rule="evenodd" stroke="none"/>
    <path d="M-9.25 -10.4 L-8.95 -10.8 Q-6.2 -13.8 -1.85 -14.5 3.55 -15.4 8.3 -12.15 13.0 -8.95 14.3 -3.45 14.9 -0.7 14.05 3.1 9.55 -16.55 -9.35 -10.3 L-9.3 -10.35 -9.25 -10.4" fill="#ff3333" fill-rule="evenodd" stroke="none"/>
  </g>
</svg>
