<?xml version="1.0" encoding="UTF-8" standalone="no"?>
<svg xmlns:xlink="http://www.w3.org/1999/xlink" height="93.95px" width="103.85px" xmlns="http://www.w3.org/2000/svg">
  <g transform="matrix(1.0, 0.0, 0.0, 1.0, 51.9, 46.95)">
    <path d="M-2.15 -40.4 Q20.2 -26.7 38.2 -17.8 56.15 -8.9 50.7 7.15 45.25 23.2 37.6 36.25 29.9 49.3 3.0 46.5 -23.9 43.7 -39.0 36.5 -51.15 30.65 -51.85 12.2 -52.0 7.7 -51.45 2.4 -48.85 -24.4 -36.65 -39.2 -24.45 -54.1 -2.15 -40.4 M-35.05 -36.55 Q-37.5 -33.65 -39.5 -30.25 L-39.55 -30.25 Q-6.55 27.95 40.05 22.85 43.95 14.85 47.1 5.85 52.15 -8.7 35.25 -16.8 18.3 -24.95 -2.65 -37.45 -23.65 -49.95 -35.05 -36.55 M-48.85 12.9 L-48.55 15.4 Q-46.45 27.65 -36.95 32.1 -22.75 38.75 2.5 41.35 26.1 43.8 33.9 33.65 L34.9 32.2 34.95 32.15 38.7 25.45 Q-9.85 28.65 -40.2 -29.05 -47.0 -16.95 -48.8 1.2 -49.45 7.65 -48.85 12.9" fill="#000000" fill-rule="evenodd" stroke="none"/>
    <path d="M-48.85 12.9 Q-49.45 7.65 -48.8 1.2 -47.0 -16.95 -40.2 -29.05 -9.85 28.65 38.7 25.45 L34.95 32.15 34.9 32.2 33.9 33.65 Q26.1 43.8 2.5 41.35 -22.75 38.75 -36.95 32.1 -46.45 27.65 -48.55 15.4 L-48.85 12.9" fill="#333333" fill-rule="evenodd" stroke="none"/>
    <path d="M-35.05 -36.55 Q-23.65 -49.95 -2.65 -37.45 18.3 -24.95 35.25 -16.8 52.15 -8.7 47.1 5.85 43.95 14.85 40.05 22.85 -6.55 27.95 -39.55 -30.25 L-39.5 -30.25 Q-37.5 -33.65 -35.05 -36.55" fill="#999999" fill-rule="evenodd" stroke="none"/>
  </g>
</svg>
