<?xml version="1.0" encoding="UTF-8" standalone="no"?>
<svg xmlns:xlink="http://www.w3.org/1999/xlink" height="26.15px" width="26.15px" xmlns="http://www.w3.org/2000/svg">
  <g transform="matrix(1.0, 0.0, 0.0, 1.0, 13.1, 13.1)">
    <path d="M-9.0 -9.45 L-8.85 -9.7 -8.75 -9.85 -8.7 -9.95 -8.45 -10.2 -8.1 -10.35 Q-4.65 -13.1 0.0 -13.1 5.4 -13.1 9.25 -9.25 13.05 -5.45 13.05 0.0 L12.95 1.75 12.85 1.75 12.9 2.0 12.9 2.15 12.8 2.75 Q12.05 6.4 9.25 9.25 5.4 13.05 0.0 13.05 -5.45 13.05 -9.3 9.25 -11.85 6.7 -12.65 3.45 L-13.05 0.85 -13.1 0.0 -12.8 -2.85 Q-12.05 -6.5 -9.3 -9.25 L-9.25 -9.25 -9.1 -9.4 -9.05 -9.5 -9.0 -9.45" fill="#ff3333" fill-rule="evenodd" stroke="none"/>
    <path d="M-9.05 -9.5 L-8.95 -9.7 -8.85 -9.8 -9.0 -9.45 -9.05 -9.5" fill="#cc0000" fill-rule="evenodd" stroke="none"/>
  </g>
</svg>
