<?xml version="1.0" encoding="UTF-8" standalone="no"?>
<svg xmlns:xlink="http://www.w3.org/1999/xlink" height="64.95px" width="91.0px" xmlns="http://www.w3.org/2000/svg">
  <g transform="matrix(1.0, 0.0, 0.0, 1.0, 45.4, 32.25)">
    <path d="M-19.85 -26.95 Q-14.15 -28.4 -7.95 -27.1 L-6.1 -26.65 Q1.6 -30.0 8.9 -25.8 19.55 -31.55 28.1 -23.75 L27.95 -23.5 Q19.2 -28.9 9.95 -24.75 12.2 -22.1 11.1 -18.0 13.75 -18.1 14.35 -19.25 15.05 -21.3 12.75 -21.95 L12.9 -22.3 Q13.9 -22.9 14.8 -22.1 16.2 -20.7 15.75 -18.8 22.85 -12.95 41.45 -12.3 37.9 -20.2 29.9 -26.4 9.8 -31.45 -9.25 -29.2 L-16.4 -28.15 -25.45 -26.0 Q-36.6 -20.75 -43.5 -10.4 L-43.4 -10.15 Q-40.65 -11.25 -38.05 -11.95 L-40.6 -12.2 -32.45 -13.45 -31.2 -13.7 Q-18.25 -16.25 -13.1 -20.45 -12.35 -23.05 -10.6 -23.55 -8.25 -23.2 -8.05 -22.15 L-10.75 -22.25 Q-11.95 -20.75 -12.0 -19.35 -9.9 -18.4 -7.85 -18.75 -5.8 -16.75 -2.95 -15.8 0.7 -14.5 4.6 -15.25 7.15 -15.8 8.65 -17.8 11.55 -21.65 7.65 -24.55 4.3 -26.9 0.15 -26.55 -3.5 -26.35 -6.6 -25.0 L-6.85 -25.05 Q-7.05 -26.2 -8.6 -26.35 L-8.95 -26.4 Q-12.85 -26.9 -16.5 -25.55 -20.55 -24.0 -23.95 -24.65 L-25.3 -25.0 Q-22.65 -26.3 -19.85 -26.95 M26.55 -10.95 Q28.4 -11.7 30.15 -12.1 19.8 -12.9 15.0 -17.65 13.25 -16.75 9.65 -16.5 7.35 -14.75 4.9 -14.2 -3.0 -12.55 -8.9 -17.2 -11.15 -17.35 -12.3 -17.85 L-12.85 -18.15 Q-20.95 -14.7 -27.55 -13.15 L-25.15 -12.95 -20.75 -12.05 -18.4 -11.35 -9.65 -8.7 -0.05 -5.6 2.35 -4.85 Q6.85 -3.5 11.0 -4.35 L12.7 -4.85 14.45 -5.55 23.45 -9.65 25.5 -10.5 26.55 -10.95 M2.75 -3.5 L1.5 -3.85 1.3 12.05 Q5.4 12.3 9.15 11.9 L9.75 11.85 9.95 9.6 11.0 -3.55 Q6.7 -2.55 2.75 -3.5 M15.0 -4.9 L13.75 -4.45 12.65 -4.05 11.1 11.65 Q15.8 11.05 19.95 10.05 L20.5 8.05 22.35 -0.15 23.45 -8.3 15.0 -4.9 M27.9 -10.2 L26.35 -9.55 25.1 -9.0 21.05 9.75 Q25.3 8.65 29.05 7.05 L29.45 5.85 35.35 -11.6 Q31.85 -11.65 27.9 -10.2 M37.6 -11.5 L36.85 -11.65 30.75 6.3 32.2 6.25 33.05 5.95 31.45 6.95 30.25 7.75 27.25 16.5 27.6 16.4 30.75 15.15 Q31.9 14.65 33.4 13.0 L34.55 11.35 34.7 11.05 35.85 7.95 Q36.85 4.55 34.7 5.1 L36.35 4.35 37.9 3.4 38.4 2.75 40.85 -1.55 Q42.3 -4.65 43.45 -8.45 L42.8 -9.05 42.7 -9.15 Q40.75 -10.95 37.6 -11.5 M43.4 -1.75 Q40.95 4.45 37.9 10.3 34.45 16.95 30.2 23.15 21.05 29.85 -1.55 32.7 -9.2 31.1 -16.6 28.5 -24.45 25.75 -31.95 21.85 L-34.3 18.3 -36.25 15.0 Q-39.5 9.25 -41.8 2.9 -43.55 -1.95 -44.75 -7.15 L-45.4 -10.1 Q-38.9 -22.4 -27.75 -27.55 -20.1 -30.05 -12.3 -31.2 8.4 -34.35 30.2 -28.15 42.0 -20.05 45.6 -7.9 L43.4 -1.75 M41.9 -11.35 L41.5 -12.25 39.45 -12.1 41.9 -11.35 M26.5 15.4 L28.5 8.8 22.85 10.6 22.75 10.6 20.75 11.1 19.05 18.95 25.7 17.05 26.0 16.95 26.5 15.4 M-23.0 23.75 Q-11.25 28.9 -1.2 29.9 19.2 27.65 27.9 22.2 31.65 18.9 31.7 15.9 L29.3 17.0 27.65 17.7 26.8 18.05 25.6 18.5 Q22.3 19.7 18.8 20.5 L17.95 20.7 10.1 21.9 8.95 22.0 8.9 22.0 1.15 22.2 0.1 22.2 -6.95 21.65 -7.95 21.5 -17.4 19.9 -18.25 19.7 -18.35 19.65 -24.2 18.2 -27.2 17.35 -27.55 17.25 -27.95 17.15 -32.35 16.1 Q-32.3 18.25 -30.65 19.8 L-29.5 20.7 -23.0 23.75 M9.2 18.7 L9.35 16.8 9.35 16.75 9.7 12.85 Q6.45 13.15 2.9 12.9 L1.15 12.75 1.2 20.85 9.05 20.55 9.2 18.7 M13.1 12.5 L12.05 12.6 11.0 12.75 10.6 16.65 10.6 16.75 10.25 20.45 18.25 19.15 18.65 16.95 19.7 11.35 13.1 12.5 M0.1 20.85 L0.3 13.55 -7.95 13.3 -7.1 20.45 0.1 20.85 M-43.15 -8.75 L-42.95 -8.15 Q-41.35 -2.9 -39.25 1.8 -37.3 6.05 -35.0 9.85 L-33.75 10.7 -34.0 10.65 -34.7 10.55 Q-34.55 13.05 -32.8 15.0 L-32.65 15.2 -31.85 15.45 -28.2 16.5 -30.5 11.2 -32.55 10.55 -30.8 10.5 -39.7 -10.05 -42.8 -8.9 -43.15 -8.75 M-20.25 -10.8 L-25.0 -11.75 -18.6 12.0 -11.2 12.4 -9.2 12.5 -12.2 -8.4 -12.45 -8.5 -20.25 -10.8 M-31.45 -11.85 L-31.5 -11.85 Q-34.5 -11.6 -37.7 -10.65 L-38.3 -10.5 -38.3 -10.4 Q-36.3 -4.1 -33.95 1.65 L-29.9 10.6 Q-27.75 11.45 -25.2 11.75 L-29.8 11.3 -27.5 16.7 -24.2 17.5 -18.6 18.75 -20.1 12.25 -24.5 11.85 -22.25 11.9 -19.25 11.7 Q-20.15 8.25 -21.35 4.5 L-21.5 4.05 -22.15 2.05 -22.3 1.6 Q-24.4 -4.75 -27.25 -11.9 -29.35 -12.05 -31.45 -11.85 M-0.15 -4.4 L-9.7 -7.6 -11.65 -8.15 -8.05 12.55 -0.85 12.55 -0.25 12.55 -0.15 -4.4 M-19.45 12.55 L-17.6 18.95 -8.1 20.35 -9.1 13.25 -11.2 13.15 -19.45 12.55" fill="#000000" fill-rule="evenodd" stroke="none"/>
    <path d="M2.75 -3.5 Q6.7 -2.55 11.0 -3.55 L9.95 9.6 Q6.25 10.3 2.6 9.6 L2.75 -3.5 M15.0 -4.9 L23.45 -8.3 22.35 -0.15 20.5 8.05 Q17.55 9.4 12.3 9.75 L15.0 -4.9 M27.9 -10.2 Q31.85 -11.65 35.35 -11.6 L29.45 5.85 Q26.65 7.25 22.9 7.3 26.0 0.55 27.9 -10.2 M37.6 -11.5 Q40.75 -10.95 42.7 -9.15 L42.8 -9.05 43.45 -8.45 Q42.3 -4.65 40.85 -1.55 L38.4 2.75 Q33.9 4.9 32.05 4.5 34.9 -1.5 37.6 -11.5 M36.35 4.35 L34.7 5.1 Q36.85 4.55 35.85 7.95 L34.7 11.05 34.55 11.35 Q30.65 13.85 29.95 11.75 L31.45 6.95 33.05 5.95 32.2 6.25 36.35 4.35 M22.75 10.6 L22.85 10.6 28.5 8.8 26.5 15.4 Q22.7 17.05 20.45 16.9 L22.75 10.6 M2.9 12.9 Q6.45 13.15 9.7 12.85 L9.35 16.75 9.35 16.8 9.2 18.7 Q5.45 19.45 2.75 18.7 L2.9 12.9 M13.1 12.5 L19.7 11.35 18.65 16.95 Q15.95 18.2 12.2 17.85 L13.1 12.5 M-31.7 -9.3 L-28.05 -9.85 Q-23.2 2.95 -21.2 10.0 L-24.05 9.65 Q-26.25 1.0 -31.7 -9.3 M-0.95 -3.4 L-0.85 11.2 -4.9 11.1 -4.6 -0.95 Q-6.35 -4.5 -10.15 -6.15 -6.65 -5.9 -0.95 -3.4 M-15.95 -1.5 Q-18.85 -7.4 -23.0 -9.7 -15.75 -8.5 -13.7 -6.7 -11.3 4.15 -10.35 11.4 L-10.3 11.8 -10.4 11.45 Q-13.15 4.2 -15.95 -1.5 M-10.2 14.05 L-10.1 15.85 -17.05 13.7 -10.2 14.05 M-1.35 17.55 L-6.05 14.55 -1.35 14.55 -1.35 17.55 M-33.3 9.0 L-40.0 -6.65 Q-37.1 -2.35 -35.4 1.7 -33.8 5.45 -33.3 9.0 M-21.5 14.4 L-26.3 12.7 -21.5 13.2 -21.5 14.4" fill="#ffffff" fill-rule="evenodd" stroke="none"/>
    <path d="M29.3 -25.95 L26.75 -26.5 Q31.6 -21.0 32.05 -14.45 L39.85 -14.1 Q37.1 -19.2 29.3 -25.95 M-16.4 -28.15 L-9.25 -29.2 Q9.8 -31.45 29.9 -26.4 37.9 -20.2 41.45 -12.3 22.85 -12.95 15.75 -18.8 16.2 -20.7 14.8 -22.1 13.9 -22.9 12.9 -22.3 L12.75 -21.95 Q15.05 -21.3 14.35 -19.25 13.75 -18.1 11.1 -18.0 12.2 -22.1 9.95 -24.75 19.2 -28.9 27.95 -23.5 L28.1 -23.75 Q19.55 -31.55 8.9 -25.8 1.6 -30.0 -6.1 -26.65 L-7.95 -27.1 Q-14.15 -28.4 -19.85 -26.95 L-19.4 -27.15 -16.4 -28.15 M-23.95 -24.65 Q-20.55 -24.0 -16.5 -25.55 -12.85 -26.9 -8.95 -26.4 L-8.6 -26.35 Q-7.05 -26.2 -6.85 -25.05 L-6.6 -25.0 Q-3.5 -26.35 0.15 -26.55 4.3 -26.9 7.65 -24.55 11.55 -21.65 8.65 -17.8 7.15 -15.8 4.6 -15.25 0.7 -14.5 -2.95 -15.8 -5.8 -16.75 -7.85 -18.75 -9.9 -18.4 -12.0 -19.35 -11.95 -20.75 -10.75 -22.25 L-8.05 -22.15 Q-8.25 -23.2 -10.6 -23.55 -12.35 -23.05 -13.1 -20.45 -18.25 -16.25 -31.2 -13.7 L-31.1 -14.2 -30.8 -15.45 Q-30.1 -18.25 -28.3 -20.4 L-24.5 -24.2 -23.95 -24.65 M-18.4 -11.35 Q-13.3 -13.0 -9.9 -15.15 -0.1 -9.05 9.8 -15.9 11.55 -15.25 14.75 -16.4 19.35 -12.6 26.55 -10.95 L25.5 -10.5 23.45 -9.65 14.45 -5.55 12.7 -4.85 11.0 -4.35 Q6.85 -3.5 2.35 -4.85 L-0.05 -5.6 -9.65 -8.7 -18.4 -11.35 M41.9 -11.35 L39.45 -12.1 41.5 -12.25 41.9 -11.35 M-24.2 18.2 L-18.35 19.65 -18.25 19.7 -17.4 19.9 -7.95 21.5 -6.95 21.65 0.1 22.2 1.15 22.2 8.9 22.0 8.95 22.0 10.1 21.9 17.95 20.7 18.8 20.5 Q22.3 19.7 25.6 18.5 L26.8 18.05 27.65 17.7 29.3 17.0 31.7 15.9 Q31.65 18.9 27.9 22.2 19.2 27.65 -1.2 29.9 -11.25 28.9 -23.0 23.75 L-23.4 22.85 -23.65 22.05 Q-24.2 20.15 -24.2 18.2 M22.75 23.35 L26.5 21.9 28.3 18.85 24.25 20.6 22.75 23.35" fill="#ccccff" fill-rule="evenodd" stroke="none"/>
    <path d="M-16.4 -28.15 L-19.4 -27.15 -19.85 -26.95 Q-22.65 -26.3 -25.3 -25.0 L-23.95 -24.65 -24.5 -24.2 -28.3 -20.4 Q-30.1 -18.25 -30.8 -15.45 L-31.1 -14.2 -31.2 -13.7 -32.45 -13.45 -40.6 -12.2 -38.05 -11.95 Q-40.65 -11.25 -43.4 -10.15 L-43.5 -10.4 Q-36.6 -20.75 -25.45 -26.0 L-16.4 -28.15 M-18.4 -11.35 L-20.75 -12.05 -25.15 -12.95 -27.55 -13.15 Q-20.95 -14.7 -12.85 -18.15 L-12.3 -17.85 Q-11.15 -17.35 -8.9 -17.2 -3.0 -12.55 4.9 -14.2 7.35 -14.75 9.65 -16.5 13.25 -16.75 15.0 -17.65 19.8 -12.9 30.15 -12.1 28.4 -11.7 26.55 -10.95 19.35 -12.6 14.75 -16.4 11.55 -15.25 9.8 -15.9 -0.1 -9.05 -9.9 -15.15 -13.3 -13.0 -18.4 -11.35 M-24.2 18.2 Q-24.2 20.15 -23.65 22.05 L-23.4 22.85 -23.0 23.75 -29.5 20.7 -30.65 19.8 Q-32.3 18.25 -32.35 16.1 L-27.95 17.15 -27.55 17.25 -27.2 17.35 -24.2 18.2" fill="#9999cc" fill-rule="evenodd" stroke="none"/>
    <path d="M29.3 -25.95 Q37.1 -19.2 39.85 -14.1 L32.05 -14.45 Q31.6 -21.0 26.75 -26.5 L29.3 -25.95 M22.75 23.35 L24.25 20.6 28.3 18.85 26.5 21.9 22.75 23.35" fill="#ccffff" fill-rule="evenodd" stroke="none"/>
    <path d="M9.95 9.6 L9.75 11.85 9.15 11.9 Q5.4 12.3 1.3 12.05 L1.5 -3.85 2.75 -3.5 2.6 9.6 Q6.25 10.3 9.95 9.6 M20.5 8.05 L19.95 10.05 Q15.8 11.05 11.1 11.65 L12.65 -4.05 13.75 -4.45 15.0 -4.9 12.3 9.75 Q17.55 9.4 20.5 8.05 M29.45 5.85 L29.05 7.05 Q25.3 8.65 21.05 9.75 L25.1 -9.0 26.35 -9.55 27.9 -10.2 Q26.0 0.55 22.9 7.3 26.65 7.25 29.45 5.85 M32.2 6.25 L30.75 6.3 36.85 -11.65 37.6 -11.5 Q34.9 -1.5 32.05 4.5 33.9 4.9 38.4 2.75 L37.9 3.4 36.35 4.35 32.2 6.25 M34.55 11.35 L33.4 13.0 Q31.9 14.65 30.75 15.15 L27.6 16.4 27.25 16.5 30.25 7.75 31.45 6.95 29.95 11.75 Q30.65 13.85 34.55 11.35 M26.5 15.4 L26.0 16.95 25.7 17.05 19.05 18.95 20.75 11.1 22.75 10.6 20.45 16.9 Q22.7 17.05 26.5 15.4 M9.2 18.7 L9.05 20.55 1.2 20.85 1.15 12.75 2.9 12.9 2.75 18.7 Q5.45 19.45 9.2 18.7 M0.1 20.85 L-7.1 20.45 -7.95 13.3 0.3 13.55 0.1 20.85 M18.65 16.95 L18.25 19.15 10.25 20.45 10.6 16.75 10.6 16.65 11.0 12.75 12.05 12.6 13.1 12.5 12.2 17.85 Q15.95 18.2 18.65 16.95 M-43.15 -8.75 L-42.8 -8.9 -39.7 -10.05 -30.8 10.5 -32.55 10.55 -30.5 11.2 -28.2 16.5 -31.85 15.45 -32.65 15.2 -32.8 15.0 Q-34.55 13.05 -34.7 10.55 L-34.0 10.65 -33.75 10.7 -35.0 9.85 Q-37.3 6.05 -39.25 1.8 -41.35 -2.9 -42.95 -8.15 L-43.15 -8.75 M-31.45 -11.85 Q-29.35 -12.05 -27.25 -11.9 -24.4 -4.75 -22.3 1.6 L-22.15 2.05 -21.5 4.05 -21.35 4.5 Q-20.15 8.25 -19.25 11.7 L-22.25 11.9 -24.5 11.85 -20.1 12.25 -18.6 18.75 -24.2 17.5 -27.5 16.7 -29.8 11.3 -25.2 11.75 Q-27.75 11.45 -29.9 10.6 L-33.95 1.65 Q-36.3 -4.1 -38.3 -10.4 L-38.3 -10.5 -37.7 -10.65 Q-34.5 -11.6 -31.5 -11.85 L-31.45 -11.85 M-20.25 -10.8 L-12.45 -8.5 -12.2 -8.4 -9.2 12.5 -11.2 12.4 -18.6 12.0 -25.0 -11.75 -20.25 -10.8 M-31.7 -9.3 Q-26.25 1.0 -24.05 9.65 L-21.2 10.0 Q-23.2 2.95 -28.05 -9.85 L-31.7 -9.3 M-0.15 -4.4 L-0.25 12.55 -0.85 12.55 -8.05 12.55 -11.65 -8.15 -9.7 -7.6 -0.15 -4.4 M-0.95 -3.4 Q-6.65 -5.9 -10.15 -6.15 -6.35 -4.5 -4.6 -0.95 L-4.9 11.1 -0.85 11.2 -0.95 -3.4 M-15.95 -1.5 Q-13.15 4.2 -10.4 11.45 L-10.3 11.8 -10.35 11.4 Q-11.3 4.15 -13.7 -6.7 -15.75 -8.5 -23.0 -9.7 -18.85 -7.4 -15.95 -1.5 M-19.45 12.55 L-11.2 13.15 -9.1 13.25 -8.1 20.35 -17.6 18.95 -19.45 12.55 M-21.5 14.4 L-21.5 13.2 -26.3 12.7 -21.5 14.4 M-33.3 9.0 Q-33.8 5.45 -35.4 1.7 -37.1 -2.35 -40.0 -6.65 L-33.3 9.0 M-1.35 17.55 L-1.35 14.55 -6.05 14.55 -1.35 17.55 M-10.2 14.05 L-17.05 13.7 -10.1 15.85 -10.2 14.05" fill="#cccccc" fill-rule="evenodd" stroke="none"/>
  </g>
</svg>
