<?xml version="1.0" encoding="UTF-8" standalone="no"?>
<svg xmlns:xlink="http://www.w3.org/1999/xlink" height="108.4px" width="42.4px" xmlns="http://www.w3.org/2000/svg">
  <g transform="matrix(1.0, 0.0, 0.0, 1.0, 20.25, 54.6)">
    <path d="M-5.7 34.7 Q-6.5 35.55 -6.5 36.75 -6.5 37.95 -5.7 38.85 -4.85 39.7 -3.7 39.7 L-3.15 39.65 Q-2.35 39.5 -1.7 38.85 -0.9 37.95 -0.9 36.75 -0.9 35.55 -1.7 34.7 L-2.45 34.15 Q-3.0 33.85 -3.7 33.85 -4.85 33.8 -5.7 34.7 M-11.95 35.0 Q1.25 31.15 11.85 36.75 L11.1 47.35 -5.25 40.0 -17.55 49.7 -17.55 36.95 Q-14.7 35.75 -11.95 35.0 M-10.55 39.75 Q-10.55 38.55 -11.35 37.7 L-12.1 37.15 -13.35 36.85 Q-14.5 36.8 -15.35 37.7 -16.15 38.55 -16.15 39.75 -16.15 40.95 -15.35 41.85 -14.5 42.7 -13.35 42.7 L-12.8 42.65 Q-12.0 42.5 -11.35 41.85 -10.55 40.95 -10.55 39.75 M-9.95 33.0 Q-13.65 33.85 -17.55 35.35 L-17.5 -48.7 18.15 -52.05 12.0 35.15 Q2.1 30.35 -9.95 33.0 M7.55 37.0 Q7.0 36.7 6.3 36.7 5.15 36.65 4.3 37.55 3.5 38.4 3.5 39.6 3.5 40.8 4.3 41.7 5.15 42.55 6.3 42.55 L6.85 42.5 8.3 41.7 Q9.1 40.8 9.1 39.6 9.1 38.4 8.3 37.55 L7.55 37.0" fill="#333333" fill-rule="evenodd" stroke="none"/>
    <path d="M-5.7 34.7 Q-4.85 33.8 -3.7 33.85 -3.0 33.85 -2.45 34.15 L-1.7 34.7 Q-0.9 35.55 -0.9 36.75 -0.9 37.95 -1.7 38.85 -2.35 39.5 -3.15 39.65 L-3.7 39.7 Q-4.85 39.7 -5.7 38.85 -6.5 37.95 -6.5 36.75 -6.5 35.55 -5.7 34.7 M-5.2 35.0 Q-5.8 35.6 -5.8 36.45 -5.8 37.25 -5.2 37.85 -4.65 38.45 -3.85 38.45 L-2.95 38.25 -2.45 37.85 Q-1.9 37.25 -1.9 36.45 -1.9 35.6 -2.45 35.0 L-2.5 34.95 Q-3.1 34.4 -3.85 34.4 -4.65 34.4 -5.2 35.0 M-11.95 35.0 Q-14.7 35.75 -17.55 36.95 L-17.55 49.7 -5.25 40.0 11.1 47.35 11.85 36.75 Q1.25 31.15 -11.95 35.0 M-10.55 39.75 Q-10.55 40.95 -11.35 41.85 -12.0 42.5 -12.8 42.65 L-13.35 42.7 Q-14.5 42.7 -15.35 41.85 -16.15 40.95 -16.15 39.75 -16.15 38.55 -15.35 37.7 -14.5 36.8 -13.35 36.85 L-12.1 37.15 -11.35 37.7 Q-10.55 38.55 -10.55 39.75 M-12.1 38.0 L-12.15 37.95 Q-12.75 37.4 -13.5 37.4 -14.3 37.4 -14.85 38.0 -15.45 38.6 -15.45 39.45 -15.45 40.25 -14.85 40.85 -14.3 41.45 -13.5 41.45 L-12.6 41.25 -12.1 40.85 Q-11.55 40.25 -11.55 39.45 -11.55 38.6 -12.1 38.0 M-9.95 33.0 Q2.1 30.35 12.0 35.15 L18.15 -52.05 -17.5 -48.7 -17.55 35.35 Q-13.65 33.85 -9.95 33.0 M-19.55 53.8 L-19.6 53.8 -20.25 -51.05 22.15 -54.6 14.2 51.1 -4.85 43.85 -19.55 53.8 M7.55 37.0 L8.3 37.55 Q9.1 38.4 9.1 39.6 9.1 40.8 8.3 41.7 L6.85 42.5 6.3 42.55 Q5.15 42.55 4.3 41.7 3.5 40.8 3.5 39.6 3.5 38.4 4.3 37.55 5.15 36.65 6.3 36.7 7.0 36.7 7.55 37.0 M7.55 37.85 L7.5 37.8 Q6.9 37.25 6.15 37.25 5.35 37.25 4.8 37.85 4.2 38.45 4.2 39.3 4.2 40.1 4.8 40.7 5.35 41.3 6.15 41.3 L7.05 41.1 7.55 40.7 Q8.1 40.1 8.1 39.3 8.1 38.45 7.55 37.85" fill="#000000" fill-rule="evenodd" stroke="none"/>
    <path d="M-5.2 35.0 Q-4.65 34.4 -3.85 34.4 -3.1 34.4 -2.5 34.95 L-2.45 35.0 Q-1.9 35.6 -1.9 36.45 -1.9 37.25 -2.45 37.85 L-2.95 38.25 -3.85 38.45 Q-4.65 38.45 -5.2 37.85 -5.8 37.25 -5.8 36.45 -5.8 35.6 -5.2 35.0 M-12.1 38.0 Q-11.55 38.6 -11.55 39.45 -11.55 40.25 -12.1 40.85 L-12.6 41.25 -13.5 41.45 Q-14.3 41.45 -14.85 40.85 -15.45 40.25 -15.45 39.45 -15.45 38.6 -14.85 38.0 -14.3 37.4 -13.5 37.4 -12.75 37.4 -12.15 37.95 L-12.1 38.0 M7.55 37.85 Q8.1 38.45 8.1 39.3 8.1 40.1 7.55 40.7 L7.05 41.1 6.15 41.3 Q5.35 41.3 4.8 40.7 4.2 40.1 4.2 39.3 4.2 38.45 4.8 37.85 5.35 37.25 6.15 37.25 6.9 37.25 7.5 37.8 L7.55 37.85" fill="#ffffff" fill-rule="evenodd" stroke="none"/>
  </g>
</svg>
