<?xml version="1.0" encoding="UTF-8" standalone="no"?>
<svg xmlns:xlink="http://www.w3.org/1999/xlink" height="20.15px" width="44.75px" xmlns="http://www.w3.org/2000/svg">
  <g transform="matrix(1.0, 0.0, 0.0, 1.0, 22.45, 9.1)">
    <path d="M-20.05 5.3 L19.65 5.3 19.7 7.4 -20.1 7.4 -20.05 5.3 M-20.05 2.45 L-6.25 -6.9 19.55 3.0 19.6 4.7 -20.05 4.7 -20.05 2.45" fill="#2b2b2b" fill-rule="evenodd" stroke="none"/>
    <path d="M-22.45 1.4 L-6.45 -9.1 22.3 1.8 21.45 11.0 -22.25 11.05 -22.45 1.4 M-20.05 2.45 L-20.05 4.7 19.6 4.7 19.55 3.0 -6.25 -6.9 -20.05 2.45 M-20.05 5.3 L-20.1 7.4 19.7 7.4 19.65 5.3 -20.05 5.3" fill="#000000" fill-rule="evenodd" stroke="none"/>
  </g>
</svg>
