<?xml version="1.0" encoding="UTF-8" standalone="no"?>
<svg xmlns:xlink="http://www.w3.org/1999/xlink" height="44.35px" width="41.7px" xmlns="http://www.w3.org/2000/svg">
  <g transform="matrix(1.0, 0.0, 0.0, 1.0, 20.95, 21.9)">
    <path d="M-3.45 -19.0 Q-11.9 -9.55 -17.2 0.65 -10.05 9.65 1.45 18.6 11.9 13.3 17.75 6.75 L16.0 3.45 10.15 6.05 0.45 2.0 Q-0.55 3.85 -2.35 4.0 0.65 0.65 0.4 -4.3 1.05 -2.0 0.85 0.45 L10.3 3.0 15.85 1.3 Q18.0 -1.55 17.55 -5.35 8.2 -12.85 -3.45 -19.0 M19.15 -6.95 Q20.0 -2.05 18.0 2.45 L20.75 7.75 Q13.2 16.05 1.35 22.45 -9.8 13.35 -20.95 0.65 -14.05 -10.85 -4.85 -21.9 7.75 -15.55 19.15 -6.95" fill="#000000" fill-rule="evenodd" stroke="none"/>
    <path d="M-3.45 -19.0 Q8.2 -12.85 17.55 -5.35 18.0 -1.55 15.85 1.3 L10.3 3.0 0.85 0.45 Q1.05 -2.0 0.4 -4.3 0.65 0.65 -2.35 4.0 -0.55 3.85 0.45 2.0 L10.15 6.05 16.0 3.45 17.75 6.75 Q11.9 13.3 1.45 18.6 -10.05 9.65 -17.2 0.65 -11.9 -9.55 -3.45 -19.0" fill="#999999" fill-rule="evenodd" stroke="none"/>
  </g>
</svg>
