<?xml version="1.0" encoding="UTF-8" standalone="no"?>
<svg xmlns:xlink="http://www.w3.org/1999/xlink" height="65.15px" width="28.3px" xmlns="http://www.w3.org/2000/svg">
  <g transform="matrix(1.0, 0.0, 0.0, 1.0, 14.3, 31.0)">
    <path d="M1.45 -16.35 Q1.45 -17.2 0.9 -17.8 L0.85 -17.85 Q0.25 -18.4 -0.5 -18.4 -1.3 -18.4 -1.85 -17.8 -2.45 -17.2 -2.45 -16.35 -2.45 -15.55 -1.85 -14.95 -1.3 -14.35 -0.5 -14.35 L0.4 -14.55 0.9 -14.95 Q1.45 -15.55 1.45 -16.35 M2.45 -16.05 Q2.45 -14.85 1.65 -13.95 1.0 -13.3 0.2 -13.15 L-0.35 -13.1 Q-1.5 -13.1 -2.35 -13.95 -3.15 -14.85 -3.15 -16.05 -3.15 -17.25 -2.35 -18.1 -1.5 -19.0 -0.35 -18.95 L0.9 -18.65 1.65 -18.1 Q2.45 -17.25 2.45 -16.05 M-12.4 24.4 L-14.3 24.4 -4.8 -9.25 -8.35 -16.4 -1.0 -31.0 7.05 -16.45 3.7 -9.1 14.0 24.4 12.1 24.4 2.35 -9.05 -3.35 -8.65 -12.4 24.4 M2.75 -10.2 L6.0 -15.7 -0.55 -27.6 -7.15 -15.65 -4.45 -11.35 Q-1.95 -9.8 2.75 -10.2 M0.6 10.5 L-0.1 10.6 Q-1.6 10.55 -2.6 9.5 -3.65 8.4 -3.65 6.85 -3.65 5.3 -2.6 4.25 -1.6 3.15 -0.1 3.15 L1.5 3.5 2.4 4.25 Q3.45 5.3 3.45 6.85 3.45 8.4 2.4 9.5 1.65 10.3 0.6 10.5 M0.85 8.7 L1.45 8.25 Q2.2 7.45 2.2 6.4 2.2 5.35 1.45 4.6 L1.4 4.55 Q0.7 3.85 -0.3 3.85 -1.3 3.85 -2.05 4.6 -2.75 5.35 -2.75 6.4 -2.75 7.45 -2.05 8.25 -1.3 9.0 -0.3 9.0 L0.85 8.7" fill="#000000" fill-rule="evenodd" stroke="none"/>
    <path d="M2.45 -16.05 Q2.45 -17.25 1.65 -18.1 L0.9 -18.65 -0.35 -18.95 Q-1.5 -19.0 -2.35 -18.1 -3.15 -17.25 -3.15 -16.05 -3.15 -14.85 -2.35 -13.95 -1.5 -13.1 -0.35 -13.1 L0.2 -13.15 Q1.0 -13.3 1.65 -13.95 2.45 -14.85 2.45 -16.05 M12.1 24.4 Q-0.45 43.95 -12.4 24.4 L-3.35 -8.65 2.35 -9.05 12.1 24.4 M2.75 -10.2 Q-1.95 -9.8 -4.45 -11.35 L-7.15 -15.65 -0.55 -27.6 6.0 -15.7 2.75 -10.2 M0.6 10.5 Q1.65 10.3 2.4 9.5 3.45 8.4 3.45 6.85 3.45 5.3 2.4 4.25 L1.5 3.5 -0.1 3.15 Q-1.6 3.15 -2.6 4.25 -3.65 5.3 -3.65 6.85 -3.65 8.4 -2.6 9.5 -1.6 10.55 -0.1 10.6 L0.6 10.5" fill="#666666" fill-rule="evenodd" stroke="none"/>
    <path d="M1.45 -16.35 Q1.45 -15.55 0.9 -14.95 L0.4 -14.55 -0.5 -14.35 Q-1.3 -14.35 -1.85 -14.95 -2.45 -15.55 -2.45 -16.35 -2.45 -17.2 -1.85 -17.8 -1.3 -18.4 -0.5 -18.4 0.25 -18.4 0.85 -17.85 L0.9 -17.8 Q1.45 -17.2 1.45 -16.35 M0.85 8.7 L-0.3 9.0 Q-1.3 9.0 -2.05 8.25 -2.75 7.45 -2.75 6.4 -2.75 5.35 -2.05 4.6 -1.3 3.85 -0.3 3.85 0.7 3.85 1.4 4.55 L1.45 4.6 Q2.2 5.35 2.2 6.4 2.2 7.45 1.45 8.25 L0.85 8.7" fill="#ffffff" fill-rule="evenodd" stroke="none"/>
  </g>
</svg>
