<?xml version="1.0" encoding="UTF-8" standalone="no"?>
<svg xmlns:xlink="http://www.w3.org/1999/xlink" height="95.0px" width="64.05px" xmlns="http://www.w3.org/2000/svg">
  <g transform="matrix(1.0, 0.0, 0.0, 1.0, 31.1, 46.85)">
    <path d="M-14.95 9.2 L-14.9 9.35 -14.95 9.35 -14.95 9.2" fill="#e8e59c" fill-rule="evenodd" stroke="none"/>
    <path d="M-28.1 34.0 Q-16.15 41.8 -0.3 44.0 19.05 40.8 29.2 36.0 26.0 23.05 21.65 11.2 L20.7 8.65 19.8 6.2 13.85 -8.8 Q6.1 -27.5 -2.4 -43.45 -20.9 -5.6 -28.1 34.0 M-31.1 36.55 Q-23.6 -4.85 -2.45 -46.85 7.1 -29.7 15.75 -9.75 L21.85 4.9 22.1 5.5 22.95 7.65 Q28.65 22.2 32.95 38.3 19.4 44.3 -0.3 48.15 -19.65 43.55 -31.1 36.55" fill="#333333" fill-rule="evenodd" stroke="none"/>
    <path d="M12.8 -7.95 Q6.0 -24.3 -1.9 -40.0 L-0.1 25.65 0.75 25.55 Q2.5 25.55 3.7 26.8 4.65 27.8 4.85 29.15 L4.9 29.8 Q4.9 31.55 3.7 32.75 2.5 34.0 0.75 34.0 L0.1 33.95 0.3 41.7 Q22.2 38.1 27.35 34.9 25.0 24.5 21.45 14.55 L19.5 9.2 18.4 6.3 Q15.05 6.3 12.6 3.9 10.15 1.5 10.15 -1.95 10.15 -5.35 12.6 -7.8 L12.8 -7.95 M-9.0 -3.75 L-9.1 -3.75 Q-11.9 -3.75 -13.9 -1.7 -15.9 0.4 -15.9 3.35 -15.9 6.3 -13.9 8.35 -12.05 10.3 -9.45 10.45 -10.65 9.9 -11.65 8.65 -13.25 6.5 -13.25 3.4 -13.25 0.35 -11.65 -1.8 -10.5 -3.3 -9.0 -3.75 M-14.95 9.2 L-14.95 9.35 -14.9 9.35 -14.95 9.2 M-21.2 24.15 L-21.25 24.2 Q-23.1 25.5 -23.7 27.6 -24.35 29.75 -23.35 31.5 -22.4 33.2 -20.4 33.45 -18.55 33.7 -16.85 32.55 -17.8 32.8 -18.85 32.55 -20.6 32.05 -21.6 30.25 -22.65 28.5 -22.3 26.5 -22.05 25.1 -21.2 24.15 M-28.1 34.0 Q-20.9 -5.6 -2.4 -43.45 6.1 -27.5 13.85 -8.8 L19.8 6.2 20.7 8.65 21.65 11.2 Q26.0 23.05 29.2 36.0 19.05 40.8 -0.3 44.0 -16.15 41.8 -28.1 34.0 M22.45 20.4 Q22.45 23.0 20.8 24.85 19.15 26.75 16.8 26.75 15.4 26.75 14.25 26.05 L12.8 24.85 Q11.15 23.0 11.15 20.4 11.15 17.8 12.8 15.9 14.45 14.05 16.8 14.05 19.15 14.05 20.8 15.9 L21.05 16.2 Q22.45 18.0 22.45 20.4" fill="#ccff66" fill-rule="evenodd" stroke="none"/>
    <path d="M-9.0 -3.75 Q-10.5 -3.3 -11.65 -1.8 -13.25 0.35 -13.25 3.4 -13.25 6.5 -11.65 8.65 -10.65 9.9 -9.45 10.45 -12.05 10.3 -13.9 8.35 -15.9 6.3 -15.9 3.35 -15.9 0.4 -13.9 -1.7 -11.9 -3.75 -9.1 -3.75 L-9.0 -3.75 M12.8 -7.95 L12.6 -7.8 Q10.15 -5.35 10.15 -1.95 10.15 1.5 12.6 3.9 15.05 6.3 18.4 6.3 L19.5 9.2 21.45 14.55 Q25.0 24.5 27.35 34.9 22.2 38.1 0.3 41.7 L0.1 33.95 0.75 34.0 Q2.5 34.0 3.7 32.75 4.9 31.55 4.9 29.8 L4.85 29.15 Q4.65 27.8 3.7 26.8 2.5 25.55 0.75 25.55 L-0.1 25.65 -1.9 -40.0 Q6.0 -24.3 12.8 -7.95 M-21.2 24.15 Q-22.05 25.1 -22.3 26.5 -22.65 28.5 -21.6 30.25 -20.6 32.05 -18.85 32.55 -17.8 32.8 -16.85 32.55 -18.55 33.7 -20.4 33.45 -22.4 33.2 -23.35 31.5 -24.35 29.75 -23.7 27.6 -23.1 25.5 -21.25 24.2 L-21.2 24.15 M22.45 20.4 Q22.45 18.0 21.05 16.2 L20.8 15.9 Q19.15 14.05 16.8 14.05 14.45 14.05 12.8 15.9 11.15 17.8 11.15 20.4 11.15 23.0 12.8 24.85 L14.25 26.05 Q15.4 26.75 16.8 26.75 19.15 26.75 20.8 24.85 22.45 23.0 22.45 20.4" fill="#ffff99" fill-rule="evenodd" stroke="none"/>
  </g>
</svg>
