<?xml version="1.0" encoding="UTF-8" standalone="no"?>
<svg xmlns:xlink="http://www.w3.org/1999/xlink" height="15.3px" width="14.65px" xmlns="http://www.w3.org/2000/svg">
  <g transform="matrix(1.0, 0.0, 0.0, 1.0, 7.35, 7.65)">
    <path d="M2.7 -6.45 L0.3 -6.85 Q-2.4 -6.85 -4.3 -4.95 -6.2 -3.05 -6.15 -0.25 L-6.15 -0.1 Q-0.4 -2.65 6.8 -0.05 L6.8 -0.25 6.75 -0.8 Q6.6 -3.2 4.9 -4.95 3.9 -5.95 2.7 -6.45 M2.55 -7.15 Q3.9 -6.6 5.1 -5.45 7.1 -3.45 7.3 -0.6 L7.3 0.0 Q7.3 2.5 5.9 4.45 L5.1 5.4 Q2.85 7.65 -0.3 7.65 L-1.95 7.45 -2.35 7.35 Q-3.95 6.8 -5.2 5.5 -7.35 3.25 -7.35 0.05 -7.35 -3.2 -5.2 -5.5 -3.3 -7.45 -0.65 -7.65 L-0.3 -7.65 Q1.2 -7.7 2.55 -7.15 M1.45 1.15 Q1.85 0.7 2.45 0.7 3.05 0.7 3.45 1.15 3.85 1.6 3.85 2.2 3.85 2.8 3.45 3.2 3.05 3.65 2.45 3.65 1.85 3.65 1.45 3.2 1.05 2.8 1.05 2.2 1.05 1.6 1.45 1.15 M4.9 4.4 L5.6 3.6 Q6.55 2.3 6.75 0.65 0.5 -2.2 -6.0 1.0 -5.8 2.9 -4.3 4.4 -3.25 5.55 -1.85 6.0 L0.3 6.35 Q2.95 6.35 4.9 4.4" fill="#003333" fill-rule="evenodd" stroke="none"/>
    <path d="M1.45 1.15 Q1.05 1.6 1.05 2.2 1.05 2.8 1.45 3.2 1.85 3.65 2.45 3.65 3.05 3.65 3.45 3.2 3.85 2.8 3.85 2.2 3.85 1.6 3.45 1.15 3.05 0.7 2.45 0.7 1.85 0.7 1.45 1.15 M4.9 4.4 Q2.95 6.35 0.3 6.35 L-1.85 6.0 Q-3.25 5.55 -4.3 4.4 -5.8 2.9 -6.0 1.0 0.5 -2.2 6.75 0.65 6.55 2.3 5.6 3.6 L4.9 4.4" fill="#ffffcc" fill-rule="evenodd" stroke="none"/>
    <path d="M2.7 -6.45 Q3.9 -5.95 4.9 -4.95 6.6 -3.2 6.75 -0.8 L6.8 -0.25 6.8 -0.05 Q-0.4 -2.65 -6.15 -0.1 L-6.15 -0.25 Q-6.2 -3.05 -4.3 -4.95 -2.4 -6.85 0.3 -6.85 L2.7 -6.45" fill="#669966" fill-rule="evenodd" stroke="none"/>
  </g>
</svg>
