<?xml version="1.0" encoding="UTF-8" standalone="no"?>
<svg xmlns:xlink="http://www.w3.org/1999/xlink" height="14.4px" width="48.7px" xmlns="http://www.w3.org/2000/svg">
  <g transform="matrix(1.0, 0.0, 0.0, 1.0, 24.35, 7.2)">
    <path d="M2.0 -6.45 Q5.7 -1.95 13.75 0.3 24.85 1.9 24.3 4.55 23.75 7.2 22.05 7.0 23.95 4.35 21.9 3.3 19.85 2.2 15.45 1.65 11.05 1.05 4.1 -2.9 4.15 -2.4 3.85 -2.0 -1.7 -0.65 -5.7 -1.9 L-5.7 -2.5 Q-9.7 -1.15 -14.4 -0.8 -20.25 -0.1 -21.85 2.2 -24.15 4.65 -21.95 7.1 -24.6 6.2 -24.35 3.95 -23.5 -1.35 -13.9 -1.45 -5.85 -2.5 -2.55 -7.2 L-4.3 -2.85 Q-2.25 -1.9 3.15 -2.9 3.85 -4.5 2.55 -4.7 1.95 -4.65 1.45 -4.2 L2.0 -6.45" fill="#003333" fill-rule="evenodd" stroke="none"/>
    <path d="M18.6 5.75 Q-1.55 0.45 -19.5 6.85 -12.4 1.15 8.6 2.7 19.95 4.05 21.05 7.2 L18.6 5.75" fill="#003333" fill-rule="evenodd" stroke="none"/>
    <path d="M6.35 4.55 Q2.2 7.45 -6.0 5.55 L2.4 5.05 6.35 4.55" fill="#003333" fill-rule="evenodd" stroke="none"/>
  </g>
</svg>
