<?xml version="1.0" encoding="UTF-8" standalone="no"?>
<svg xmlns:xlink="http://www.w3.org/1999/xlink" height="159.75px" width="66.0px" xmlns="http://www.w3.org/2000/svg">
  <g transform="matrix(1.0, 0.0, 0.0, 1.0, 30.15, 82.1)">
    <path d="M4.4 -51.05 Q4.95 -51.65 5.75 -51.65 L5.8 -51.65 Q6.55 -51.65 7.1 -51.05 L7.65 -49.7 Q7.6 -48.9 7.1 -48.3 6.55 -47.75 5.8 -47.7 L5.75 -47.7 Q4.95 -47.75 4.4 -48.3 3.85 -48.9 3.9 -49.7 3.85 -50.5 4.4 -51.05 M0.95 -50.1 Q0.6 -50.5 0.1 -50.55 L-0.1 -50.55 Q-0.8 -50.6 -1.2 -50.1 -1.6 -49.7 -1.6 -49.05 -1.6 -48.45 -1.2 -48.0 -0.8 -47.55 -0.1 -47.55 L0.1 -47.55 Q0.6 -47.65 0.95 -48.0 1.35 -48.45 1.35 -49.05 1.35 -49.7 0.95 -50.1 M4.5 -51.0 Q4.1 -50.6 4.1 -49.95 4.1 -49.35 4.5 -48.9 4.9 -48.45 5.6 -48.45 L5.8 -48.45 Q6.3 -48.55 6.65 -48.9 7.05 -49.35 7.05 -49.95 7.05 -50.6 6.65 -51.0 6.3 -51.4 5.8 -51.45 L5.6 -51.45 Q4.9 -51.5 4.5 -51.0 M0.1 -50.75 Q0.85 -50.75 1.4 -50.15 L1.95 -48.8 Q1.9 -48.0 1.4 -47.4 0.85 -46.85 0.1 -46.8 L0.05 -46.8 Q-0.75 -46.85 -1.3 -47.4 -1.85 -48.0 -1.8 -48.8 -1.85 -49.6 -1.3 -50.15 -0.75 -50.75 0.05 -50.75 L0.1 -50.75 M9.75 -52.1 Q9.4 -51.7 9.4 -51.05 9.4 -50.45 9.75 -50.0 10.05 -49.55 10.55 -49.55 L10.7 -49.55 Q11.05 -49.65 11.35 -50.0 L11.5 -50.25 11.65 -51.05 11.35 -52.1 11.3 -52.15 10.7 -52.55 10.55 -52.55 Q10.05 -52.6 9.75 -52.1 M9.65 -52.15 Q10.05 -52.75 10.65 -52.75 L10.7 -52.75 10.85 -52.75 11.25 -52.6 11.15 -53.55 9.55 -53.25 Q-0.05 -51.55 -10.8 -50.85 L-10.85 -50.7 -10.5 -50.75 Q-9.85 -50.75 -9.45 -50.15 -9.0 -49.6 -9.0 -48.8 -9.0 -48.0 -9.45 -47.4 -9.9 -46.85 -10.5 -46.8 -11.15 -46.85 -11.6 -47.4 L-11.75 -47.7 -12.1 -46.55 -9.55 -45.45 5.05 -46.05 Q10.2 -46.75 11.65 -48.4 L11.6 -49.25 Q11.2 -48.85 10.7 -48.8 L10.65 -48.8 Q10.05 -48.85 9.65 -49.4 9.25 -50.0 9.25 -50.8 9.25 -51.6 9.65 -52.15 M13.4 -50.05 L14.4 -50.85 Q17.6 -53.75 20.8 -60.0 22.2 -53.95 21.2 -50.2 20.2 -46.45 19.0 -44.85 L13.3 -43.75 13.6 -42.75 Q26.8 4.9 35.85 67.45 L2.8 77.65 -30.15 66.65 Q-24.85 14.35 -13.15 -39.05 L-12.45 -42.25 -19.8 -42.7 Q-20.95 -44.25 -22.35 -46.9 -23.35 -48.75 -23.45 -52.1 L-23.4 -55.6 -21.1 -53.1 Q-17.1 -49.05 -13.65 -47.4 L-11.75 -55.25 Q-9.75 -65.05 -9.1 -76.1 -4.9 -74.95 -2.3 -71.2 0.8 -77.3 5.8 -82.1 7.3 -74.3 10.45 -67.7 12.45 -58.5 13.25 -51.6 L13.4 -50.05 M15.55 -49.8 L14.8 -49.2 Q11.5 -46.9 9.7 -46.15 7.95 -45.45 0.45 -44.15 12.2 -45.0 16.5 -46.05 L17.9 -46.45 Q20.65 -51.1 19.95 -56.3 18.3 -52.1 15.55 -49.8 M-4.2 -52.8 L7.2 -54.0 10.7 -54.6 9.0 -66.95 Q5.95 -71.95 4.95 -78.65 3.55 -77.35 0.95 -73.65 L-2.5 -68.6 Q-3.7 -71.7 -7.6 -73.5 -7.75 -63.45 -9.6 -55.4 L-10.3 -52.65 -4.2 -52.8 M12.3 -42.05 L11.9 -43.6 Q2.85 -41.95 -10.85 -42.1 L-13.8 -26.7 Q-12.6 -27.75 -11.05 -28.6 L-10.65 -28.85 -10.3 -27.65 -1.35 -22.4 -0.15 -35.75 0.5 -22.1 2.15 -22.95 11.0 -27.9 11.4 -29.1 11.7 -29.0 12.8 -28.35 Q14.3 -27.3 14.8 -25.85 L13.55 -25.1 12.25 -24.3 Q7.8 -21.75 2.05 -19.15 5.6 -17.6 12.85 -18.6 9.5 -16.9 2.75 -18.1 4.25 -13.65 11.95 -12.65 4.9 -12.0 1.95 -16.65 L1.0 -18.65 -0.05 -18.3 -0.5 -21.15 -0.65 -17.6 Q-4.25 -5.25 -4.05 2.3 -3.85 9.85 -2.45 11.1 -1.65 11.8 1.7 9.75 L7.2 5.75 7.3 5.7 Q9.4 3.1 4.95 0.35 3.1 0.05 2.2 1.6 2.1 -0.15 4.25 -0.65 9.8 1.1 8.65 5.7 L8.05 6.35 Q12.2 14.5 15.35 22.5 22.4 40.25 24.7 57.0 L24.8 57.25 Q25.5 63.35 22.75 63.45 24.8 61.25 24.3 57.45 19.6 47.1 15.25 39.9 8.0 27.85 1.85 24.55 0.2 23.65 -1.4 23.4 -10.25 30.1 -19.55 57.1 -20.0 61.25 -18.85 65.0 -20.75 62.75 -20.2 57.15 L-19.75 55.9 Q-16.9 31.65 -9.4 8.0 L-9.5 7.7 -9.6 7.4 Q-10.1 4.95 -8.4 2.6 -5.9 2.4 -6.05 3.9 -6.8 2.95 -7.9 3.15 -9.5 4.75 -8.75 7.4 -7.55 8.7 -3.95 10.1 -6.2 -5.2 -1.9 -18.0 L-1.8 -18.65 -1.95 -18.7 Q-4.15 -12.15 -11.1 -12.9 -4.7 -13.85 -3.45 -18.15 -9.1 -17.0 -11.9 -18.65 -5.85 -17.65 -2.85 -19.15 -7.35 -21.55 -11.2 -24.05 L-11.8 -24.45 -13.9 -25.9 Q-23.6 19.85 -26.25 65.3 L-21.3 66.5 2.5 73.85 30.7 66.05 Q26.15 13.65 12.3 -42.05 M12.85 -18.6 L12.9 -18.6 12.85 -18.6 M15.4 25.4 Q11.4 15.45 6.55 7.85 4.2 10.05 1.7 11.1 -0.25 11.9 -2.3 12.05 -5.35 11.3 -7.75 9.45 -15.55 31.4 -19.55 55.25 -10.45 27.95 -1.3 20.8 0.25 21.55 1.8 22.6 8.75 27.25 15.3 37.95 20.0 45.65 24.5 56.55 20.8 38.85 15.4 25.4 M-22.5 -52.55 Q-21.65 -48.2 -18.9 -44.2 L-13.9 -43.95 -8.8 -43.75 -4.65 -44.05 -10.55 -44.75 -12.05 -45.3 Q-18.55 -47.95 -22.35 -52.6 L-22.55 -52.85 -22.5 -52.55 M-5.3 -50.4 L-5.5 -50.4 Q-6.2 -50.45 -6.6 -49.95 -7.0 -49.55 -7.0 -48.9 -7.0 -48.3 -6.6 -47.85 -6.2 -47.4 -5.5 -47.4 L-5.3 -47.4 Q-4.8 -47.5 -4.45 -47.85 -4.05 -48.3 -4.05 -48.9 -4.05 -49.55 -4.45 -49.95 -4.8 -50.35 -5.3 -50.4 M-10.65 -50.55 L-10.9 -50.55 -11.5 -50.1 Q-11.85 -49.7 -11.85 -49.05 L-11.6 -48.15 -11.5 -48.0 Q-11.2 -47.55 -10.65 -47.55 L-10.5 -47.55 Q-10.1 -47.65 -9.8 -48.0 -9.5 -48.45 -9.5 -49.05 -9.5 -49.7 -9.8 -50.1 -10.1 -50.5 -10.5 -50.55 L-10.65 -50.55 M-5.3 -50.6 Q-4.55 -50.6 -4.0 -50.0 -3.5 -49.45 -3.45 -48.65 -3.5 -47.85 -4.0 -47.25 -4.55 -46.7 -5.3 -46.65 L-5.35 -46.65 Q-6.15 -46.7 -6.7 -47.25 -7.25 -47.85 -7.2 -48.65 -7.25 -49.45 -6.7 -50.0 -6.15 -50.6 -5.35 -50.6 L-5.3 -50.6" fill="#000000" fill-rule="evenodd" stroke="none"/>
    <path d="M-11.05 -28.6 L-9.15 -38.7 -9.1 -38.7 -5.65 -38.6 2.75 -39.2 Q6.75 -39.8 10.1 -41.1 L11.7 -41.75 12.3 -42.05 Q26.15 13.65 30.7 66.05 L2.5 73.85 -21.3 66.5 Q-19.75 20.4 -11.8 -24.45 L-11.2 -24.05 Q-7.35 -21.55 -2.85 -19.15 -5.85 -17.65 -11.9 -18.65 -9.1 -17.0 -3.45 -18.15 -4.7 -13.85 -11.1 -12.9 -4.15 -12.15 -1.95 -18.7 L-1.8 -18.65 -1.9 -18.0 Q-6.2 -5.2 -3.95 10.1 -7.55 8.7 -8.75 7.4 -9.5 4.75 -7.9 3.15 -6.8 2.95 -6.05 3.9 -5.9 2.4 -8.4 2.6 -10.1 4.95 -9.6 7.4 L-9.5 7.7 -9.4 8.0 Q-16.9 31.65 -19.75 55.9 L-20.2 57.15 Q-20.75 62.75 -18.85 65.0 -20.0 61.25 -19.55 57.1 -10.25 30.1 -1.4 23.4 0.2 23.65 1.85 24.55 8.0 27.85 15.25 39.9 14.8 54.15 13.3 67.45 L26.65 64.35 Q22.35 13.1 13.55 -25.1 L14.8 -25.85 Q14.3 -27.3 12.8 -28.35 L10.7 -36.65 11.7 -29.0 11.4 -29.1 11.0 -27.9 2.15 -22.95 0.5 -22.1 -0.15 -35.75 -1.35 -22.4 -10.3 -27.65 -10.65 -28.85 -11.05 -28.6 M15.35 22.5 Q12.2 14.5 8.05 6.35 L8.65 5.7 Q9.8 1.1 4.25 -0.65 2.1 -0.15 2.2 1.6 3.1 0.05 4.95 0.35 9.4 3.1 7.3 5.7 L7.2 5.75 1.7 9.75 Q-1.65 11.8 -2.45 11.1 -3.85 9.85 -4.05 2.3 -4.25 -5.25 -0.65 -17.6 L-0.5 -21.15 -0.05 -18.3 1.0 -18.65 1.95 -16.65 Q4.9 -12.0 11.95 -12.65 4.25 -13.65 2.75 -18.1 9.5 -16.9 12.85 -18.6 5.6 -17.6 2.05 -19.15 7.8 -21.75 12.25 -24.3 L12.85 -18.6 Q15.05 2.8 15.35 22.5 M15.3 37.95 Q8.75 27.25 1.8 22.6 0.25 21.55 -1.3 20.8 -10.45 27.95 -19.55 55.25 -15.55 31.4 -7.75 9.45 -5.35 11.3 -2.3 12.05 -0.25 11.9 1.7 11.1 4.2 10.05 6.55 7.85 11.4 15.45 15.4 25.4 L15.3 37.95" fill="#9999cc" fill-rule="evenodd" stroke="none"/>
    <path d="M3.45 -71.55 L3.45 -72.2 Q2.7 -70.75 2.55 -69.05 2.3 -66.95 4.05 -65.85 L7.7 -65.7 8.15 -66.1 Q6.8 -66.25 5.7 -67.1 4.7 -67.95 4.15 -69.1 3.65 -70.15 3.45 -71.55 M0.95 -73.65 Q3.55 -77.35 4.95 -78.65 5.95 -71.95 9.0 -66.95 L10.7 -54.6 7.2 -54.0 -4.2 -52.8 Q-3.6 -54.1 -3.3 -55.5 -2.4 -60.0 -4.3 -65.8 -3.8 -67.35 -2.5 -66.05 0.05 -70.05 0.95 -73.65" fill="#666666" fill-rule="evenodd" stroke="none"/>
    <path d="M3.45 -71.55 Q3.65 -70.15 4.15 -69.1 4.7 -67.95 5.7 -67.1 6.8 -66.25 8.15 -66.1 L7.7 -65.7 4.05 -65.85 Q2.3 -66.95 2.55 -69.05 2.7 -70.75 3.45 -72.2 L3.45 -71.55 M15.55 -49.8 Q18.3 -52.1 19.95 -56.3 20.65 -51.1 17.9 -46.45 L16.5 -46.05 Q12.2 -45.0 0.45 -44.15 7.95 -45.45 9.7 -46.15 11.5 -46.9 14.8 -49.2 L15.55 -49.8 M-4.2 -52.8 L-10.3 -52.65 -9.6 -55.4 Q-7.75 -63.45 -7.6 -73.5 -3.7 -71.7 -2.5 -68.6 L0.95 -73.65 Q0.05 -70.05 -2.5 -66.05 -3.8 -67.35 -4.3 -65.8 -2.4 -60.0 -3.3 -55.5 -3.6 -54.1 -4.2 -52.8 M-22.5 -52.55 L-22.55 -52.85 -22.35 -52.6 Q-18.55 -47.95 -12.05 -45.3 L-10.55 -44.75 -4.65 -44.05 -8.8 -43.75 -13.9 -43.95 -18.9 -44.2 Q-21.65 -48.2 -22.5 -52.55" fill="#333333" fill-rule="evenodd" stroke="none"/>
    <path d="M4.5 -51.0 Q4.9 -51.5 5.6 -51.45 L5.8 -51.45 Q6.3 -51.4 6.65 -51.0 7.05 -50.6 7.05 -49.95 7.05 -49.35 6.65 -48.9 6.3 -48.55 5.8 -48.45 L5.6 -48.45 Q4.9 -48.45 4.5 -48.9 4.1 -49.35 4.1 -49.95 4.1 -50.6 4.5 -51.0 M0.95 -50.1 Q1.35 -49.7 1.35 -49.05 1.35 -48.45 0.95 -48.0 0.6 -47.65 0.1 -47.55 L-0.1 -47.55 Q-0.8 -47.55 -1.2 -48.0 -1.6 -48.45 -1.6 -49.05 -1.6 -49.7 -1.2 -50.1 -0.8 -50.6 -0.1 -50.55 L0.1 -50.55 Q0.6 -50.5 0.95 -50.1 M9.75 -52.1 Q10.05 -52.6 10.55 -52.55 L10.7 -52.55 11.3 -52.15 11.35 -52.1 11.65 -51.05 11.5 -50.25 11.35 -50.0 Q11.05 -49.65 10.7 -49.55 L10.55 -49.55 Q10.05 -49.55 9.75 -50.0 9.4 -50.45 9.4 -51.05 9.4 -51.7 9.75 -52.1 M-10.65 -50.55 L-10.5 -50.55 Q-10.1 -50.5 -9.8 -50.1 -9.5 -49.7 -9.5 -49.05 -9.5 -48.45 -9.8 -48.0 -10.1 -47.65 -10.5 -47.55 L-10.65 -47.55 Q-11.2 -47.55 -11.5 -48.0 L-11.6 -48.15 -11.85 -49.05 Q-11.85 -49.7 -11.5 -50.1 L-10.9 -50.55 -10.65 -50.55 M-5.3 -50.4 Q-4.8 -50.35 -4.45 -49.95 -4.05 -49.55 -4.05 -48.9 -4.05 -48.3 -4.45 -47.85 -4.8 -47.5 -5.3 -47.4 L-5.5 -47.4 Q-6.2 -47.4 -6.6 -47.85 -7.0 -48.3 -7.0 -48.9 -7.0 -49.55 -6.6 -49.95 -6.2 -50.45 -5.5 -50.4 L-5.3 -50.4" fill="#cccccc" fill-rule="evenodd" stroke="none"/>
    <path d="M4.4 -51.05 Q3.85 -50.5 3.9 -49.7 3.85 -48.9 4.4 -48.3 4.95 -47.75 5.75 -47.7 L5.8 -47.7 Q6.55 -47.75 7.1 -48.3 7.6 -48.9 7.65 -49.7 L7.1 -51.05 Q6.55 -51.65 5.8 -51.65 L5.75 -51.65 Q4.95 -51.65 4.4 -51.05 M0.1 -50.75 L0.05 -50.75 Q-0.75 -50.75 -1.3 -50.15 -1.85 -49.6 -1.8 -48.8 -1.85 -48.0 -1.3 -47.4 -0.75 -46.85 0.05 -46.8 L0.1 -46.8 Q0.85 -46.85 1.4 -47.4 1.9 -48.0 1.95 -48.8 L1.4 -50.15 Q0.85 -50.75 0.1 -50.75 M9.65 -52.15 Q9.25 -51.6 9.25 -50.8 9.25 -50.0 9.65 -49.4 10.05 -48.85 10.65 -48.8 L10.7 -48.8 Q11.2 -48.85 11.6 -49.25 L11.65 -48.4 Q10.2 -46.75 5.05 -46.05 L-9.55 -45.45 -12.1 -46.55 -11.75 -47.7 -11.6 -47.4 Q-11.15 -46.85 -10.5 -46.8 -9.9 -46.85 -9.45 -47.4 -9.0 -48.0 -9.0 -48.8 -9.0 -49.6 -9.45 -50.15 -9.85 -50.75 -10.5 -50.75 L-10.85 -50.7 -10.8 -50.85 Q-0.05 -51.55 9.55 -53.25 L11.15 -53.55 11.25 -52.6 10.85 -52.75 10.7 -52.75 10.65 -52.75 Q10.05 -52.75 9.65 -52.15 M-5.3 -50.6 L-5.35 -50.6 Q-6.15 -50.6 -6.7 -50.0 -7.25 -49.45 -7.2 -48.65 -7.25 -47.85 -6.7 -47.25 -6.15 -46.7 -5.35 -46.65 L-5.3 -46.65 Q-4.55 -46.7 -4.0 -47.25 -3.5 -47.85 -3.45 -48.65 -3.5 -49.45 -4.0 -50.0 -4.55 -50.6 -5.3 -50.6" fill="#999999" fill-rule="evenodd" stroke="none"/>
    <path d="M15.25 39.9 Q19.6 47.1 24.3 57.45 24.8 61.25 22.75 63.45 25.5 63.35 24.8 57.25 L24.7 57.0 Q22.4 40.25 15.35 22.5 15.05 2.8 12.85 -18.6 L12.9 -18.6 12.85 -18.6 12.25 -24.3 13.55 -25.1 Q22.35 13.1 26.65 64.35 L13.3 67.45 Q14.8 54.15 15.25 39.9 M12.8 -28.35 L11.7 -29.0 10.7 -36.65 12.8 -28.35 M15.4 25.4 Q20.8 38.85 24.5 56.55 20.0 45.65 15.3 37.95 L15.4 25.4" fill="#ccccff" fill-rule="evenodd" stroke="none"/>
    <path d="M-11.05 -28.6 Q-12.6 -27.75 -13.8 -26.7 L-10.85 -42.1 Q2.85 -41.95 11.9 -43.6 L12.3 -42.05 11.7 -41.75 10.1 -41.1 Q6.75 -39.8 2.75 -39.2 L-5.65 -38.6 -9.1 -38.7 -9.15 -38.7 -11.05 -28.6 M-21.3 66.5 L-26.25 65.3 Q-23.6 19.85 -13.9 -25.9 L-11.8 -24.45 Q-19.75 20.4 -21.3 66.5" fill="#6666cc" fill-rule="evenodd" stroke="none"/>
  </g>
</svg>
