<?xml version="1.0" encoding="UTF-8" standalone="no"?>
<svg xmlns:xlink="http://www.w3.org/1999/xlink" height="187.2px" width="74.7px" xmlns="http://www.w3.org/2000/svg">
  <g transform="matrix(1.0, 0.0, 0.0, 1.0, 36.8, 96.2)">
    <path d="M11.15 -43.8 L14.35 -29.7 Q24.65 15.0 37.9 79.85 32.95 84.8 25.85 87.6 21.05 89.45 15.3 90.3 L9.9 90.85 Q5.8 91.1 1.3 90.95 -26.45 88.8 -36.8 79.3 -25.5 16.6 -11.85 -45.0 L-5.65 -72.4 -0.05 -96.2 Q1.7 -86.9 4.7 -72.9 L11.15 -43.8 M9.0 -43.2 L2.65 -73.0 -0.05 -87.0 -7.0 -53.8 -9.1 -43.9 Q-21.7 15.9 -31.85 76.05 L-30.3 76.95 Q-23.9 80.6 -16.85 82.8 -8.75 85.35 0.15 85.9 5.0 86.2 9.75 85.7 L14.55 84.95 Q19.75 83.85 24.8 81.8 28.6 80.2 32.25 78.0 22.65 18.85 12.95 -25.15 L9.0 -43.2" fill="#000000" fill-rule="evenodd" stroke="none"/>
    <path d="M6.6 -48.8 L0.8 -74.5 1.0 -48.2 Q4.7 -46.7 6.6 -48.8 M4.55 -42.55 L1.2 -42.4 -3.0 -42.6 -7.65 -43.5 -9.1 -43.9 -7.0 -53.8 -0.05 -87.0 2.65 -73.0 9.0 -43.2 4.55 -42.55" fill="#333333" fill-rule="evenodd" stroke="none"/>
    <path d="M6.6 -48.8 Q4.7 -46.7 1.0 -48.2 L0.8 -74.5 6.6 -48.8" fill="#cccccc" fill-rule="evenodd" stroke="none"/>
    <path d="M-3.0 -42.6 L1.2 -42.4 4.55 -42.55 24.8 81.8 Q19.75 83.85 14.55 84.95 L5.8 -9.4 Q8.85 55.55 9.75 85.7 5.0 86.2 0.15 85.9 -8.75 85.35 -16.85 82.8 L-3.0 -42.6 M-9.1 -43.9 L-7.65 -43.5 Q-20.25 13.05 -30.3 76.95 L-31.85 76.05 Q-21.7 15.9 -9.1 -43.9" fill="#cccc66" fill-rule="evenodd" stroke="none"/>
    <path d="M4.55 -42.55 L9.0 -43.2 12.95 -25.15 Q22.65 18.85 32.25 78.0 28.6 80.2 24.8 81.8 L4.55 -42.55 M9.75 85.7 Q8.85 55.55 5.8 -9.4 L14.55 84.95 9.75 85.7" fill="#ccff66" fill-rule="evenodd" stroke="none"/>
    <path d="M-7.65 -43.5 L-3.0 -42.6 -16.85 82.8 Q-23.9 80.6 -30.3 76.95 -20.25 13.05 -7.65 -43.5" fill="#999966" fill-rule="evenodd" stroke="none"/>
  </g>
</svg>
