<?xml version="1.0" encoding="UTF-8" standalone="no"?>
<svg xmlns:xlink="http://www.w3.org/1999/xlink" height="155.25px" width="150.5px" xmlns="http://www.w3.org/2000/svg">
  <g transform="matrix(1.0, 0.0, 0.0, 1.0, 75.25, 77.65)">
    <path d="M-75.25 18.0 L-75.25 17.3 Q-74.95 -0.9 -71.75 -10.85 -70.1 -16.15 -49.3 -41.5 -27.05 -68.7 -22.35 -77.65 4.3 -61.55 16.4 -29.7 24.05 -9.6 24.65 9.5 L24.7 10.3 Q24.95 21.0 23.0 31.45 16.5 33.7 11.7 38.05 6.35 43.05 4.95 49.1 L-14.7 64.4 Q-26.35 73.15 -35.8 77.6 -45.25 73.05 -54.8 66.45 -62.7 60.95 -67.9 51.7 -26.85 26.9 22.55 10.5 -30.5 10.0 -75.25 18.0 M-68.05 51.45 L-69.95 47.65 Q-75.35 35.9 -75.25 18.5 -43.95 14.5 -4.75 16.1 -39.3 29.95 -68.05 51.45 M70.15 -5.5 L70.05 -5.75 Q56.95 -3.8 34.75 7.25 21.1 -32.45 31.0 -75.95 50.85 -57.3 61.7 -31.6 66.55 -20.05 70.1 -5.75 L70.15 -5.5 72.75 6.55 Q67.05 2.75 54.15 2.65 60.2 -2.8 70.15 -5.5 M34.8 7.4 Q57.75 5.25 72.95 7.7 L75.1 20.95 Q75.95 27.6 72.4 35.35 70.5 39.4 70.0 41.05 69.05 44.25 69.7 47.5 66.0 48.55 56.7 39.4 L49.55 32.15 Q45.6 28.35 43.25 27.25 38.25 17.45 34.8 7.4" fill="#ffffff" fill-rule="evenodd" stroke="none"/>
    <path d="M-67.9 51.7 L-68.05 51.45 Q-39.3 29.95 -4.75 16.1 -43.95 14.5 -75.25 18.5 L-75.25 18.0 Q-30.5 10.0 22.55 10.5 -26.85 26.9 -67.9 51.7 M34.75 7.25 Q56.95 -3.8 70.05 -5.75 L70.15 -5.5 Q60.2 -2.8 54.15 2.65 67.05 2.75 72.75 6.55 L72.95 7.7 Q57.75 5.25 34.8 7.4 L34.75 7.25" fill="#000000" fill-rule="evenodd" stroke="none"/>
  </g>
</svg>
