<?xml version="1.0" encoding="UTF-8" standalone="no"?>
<svg xmlns:xlink="http://www.w3.org/1999/xlink" height="87.95px" width="123.05px" xmlns="http://www.w3.org/2000/svg">
  <g transform="matrix(1.0, 0.0, 0.0, 1.0, 61.5, 43.95)">
    <path d="M53.85 8.6 Q61.55 14.05 61.55 21.55 61.55 29.65 52.6 35.35 43.65 41.05 31.05 41.05 18.4 41.05 9.45 35.35 L7.15 33.7 Q4.55 36.4 -0.05 38.7 -10.6 44.0 -25.5 44.0 -40.4 44.0 -50.95 38.7 -60.15 34.15 -61.3 27.9 L-59.85 28.65 Q-49.3 33.95 -34.4 33.95 -20.0 33.95 -9.65 29.0 L-10.55 29.0 Q-25.45 29.0 -36.0 22.25 -43.65 17.4 -45.75 11.05 L-46.35 8.45 -44.9 9.4 -43.4 10.3 Q-33.3 16.15 -19.45 16.15 -9.05 16.15 -0.75 12.9 2.8 11.45 6.0 9.4 8.85 7.6 10.9 5.6 14.2 2.4 15.6 -1.3 16.55 -3.95 16.55 -6.85 L16.4 -9.3 Q21.3 -5.8 23.55 -1.55 30.75 -2.55 36.3 -6.05 43.85 -10.9 43.85 -17.7 L43.85 -18.05 43.7 -19.5 42.65 -20.2 Q38.35 -22.95 33.1 -24.1 L37.0 -26.15 Q44.1 -30.7 44.1 -37.1 L44.0 -38.75 Q50.1 -34.45 50.1 -28.45 50.1 -22.9 44.75 -18.7 50.2 -14.35 50.25 -8.5 50.2 -1.65 42.65 3.15 L42.35 3.35 Q35.2 7.8 25.35 8.0 24.35 16.25 14.9 22.25 12.75 23.65 10.45 24.75 L10.5 26.0 10.25 28.3 Q16.25 30.15 23.5 30.15 36.1 30.15 45.05 24.45 54.0 18.75 54.0 10.65 L53.85 8.6 M-38.65 -8.4 Q-44.25 -12.6 -45.05 -18.1 L-43.95 -17.3 Q-38.55 -13.85 -31.7 -12.65 L-36.0 -10.3 -38.65 -8.4 M10.85 -22.65 L10.95 -22.65 10.85 -22.6 Q8.35 -21.6 6.15 -20.2 L5.6 -19.85 Q2.85 -18.0 1.15 -15.8 L-5.0 -16.75 -4.1 -17.3 Q0.55 -20.25 2.55 -23.9 L3.4 -25.7 Q4.15 -27.8 4.15 -30.0 L4.0 -31.95 Q9.7 -27.95 10.85 -22.65" fill="#999999" fill-rule="evenodd" stroke="none"/>
    <path d="M42.35 3.35 Q47.95 4.8 52.6 7.75 L53.85 8.6 54.0 10.65 Q54.0 18.75 45.05 24.45 36.1 30.15 23.5 30.15 16.25 30.15 10.25 28.3 L10.5 26.0 10.45 24.75 Q12.75 23.65 14.9 22.25 24.35 16.25 25.35 8.0 35.2 7.8 42.35 3.35 M-61.3 27.9 L-61.5 26.0 Q-61.5 18.5 -50.95 13.25 -48.45 12.0 -45.75 11.05 -43.65 17.4 -36.0 22.25 -25.45 29.0 -10.55 29.0 L-9.65 29.0 Q-20.0 33.95 -34.4 33.95 -49.3 33.95 -59.85 28.65 L-61.3 27.9 M-46.35 8.45 L-46.55 6.0 Q-46.55 -2.25 -38.65 -8.4 L-36.0 -10.3 -31.7 -12.65 Q-38.55 -13.85 -43.95 -17.3 L-45.05 -18.1 -45.2 -19.95 Q-45.25 -27.45 -36.95 -32.7 -28.7 -37.95 -17.05 -37.95 -5.65 -37.95 2.55 -32.9 4.15 -36.55 8.7 -39.45 15.8 -43.95 25.85 -43.95 35.85 -43.95 43.0 -39.45 L44.0 -38.75 44.1 -37.1 Q44.1 -30.7 37.0 -26.15 L33.1 -24.1 Q38.35 -22.95 42.65 -20.2 L43.7 -19.5 43.85 -18.05 43.85 -17.7 Q43.85 -10.9 36.3 -6.05 30.75 -2.55 23.55 -1.55 21.3 -5.8 16.4 -9.3 L16.55 -6.85 Q16.55 -3.95 15.6 -1.3 14.2 2.4 10.9 5.6 8.85 7.6 6.0 9.4 2.8 11.45 -0.75 12.9 -9.05 16.15 -19.45 16.15 -33.3 16.15 -43.4 10.3 L-44.9 9.4 -46.35 8.45 M10.85 -22.65 Q9.7 -27.95 4.0 -31.95 L4.15 -30.0 Q4.15 -27.8 3.4 -25.7 L2.55 -23.9 Q0.55 -20.25 -4.1 -17.3 L-5.0 -16.75 1.15 -15.8 Q2.85 -18.0 5.6 -19.85 L6.15 -20.2 Q8.35 -21.6 10.85 -22.6 L10.95 -22.65 10.85 -22.65" fill="#cccccc" fill-rule="evenodd" stroke="none"/>
  </g>
</svg>
