<?xml version="1.0" encoding="UTF-8" standalone="no"?>
<svg xmlns:xlink="http://www.w3.org/1999/xlink" height="37.8px" width="40.9px" xmlns="http://www.w3.org/2000/svg">
  <g transform="matrix(1.0, 0.0, 0.0, 1.0, 20.45, 18.9)">
    <path d="M4.2 -10.4 L1.45 -3.2 Q-4.2 -5.65 -8.0 -8.65 -13.1 3.65 -9.65 9.3 L-3.45 5.25 -0.95 -2.2 10.85 3.1 12.0 -5.2 4.2 -10.4 M12.6 -15.45 L12.9 -15.45 12.65 -15.4 5.05 -13.5 4.4 -11.3 12.45 -6.25 20.45 -6.4 13.1 -5.0 12.15 4.7 -0.45 -0.7 Q-3.95 6.8 -3.4 14.4 -3.3 20.05 -3.7 18.6 -4.15 17.1 -4.5 7.2 L-7.65 8.75 -6.85 8.1 -15.05 13.9 -15.2 13.55 -11.05 9.85 Q-11.5 5.7 -12.8 3.45 L-20.45 -0.2 -12.2 2.3 -9.0 -10.55 Q0.0 -4.55 1.05 -4.95 2.05 -5.35 3.7 -13.5 L0.55 -18.9 4.4 -14.2 12.6 -15.45" fill="#333333" fill-rule="evenodd" stroke="none"/>
  </g>
</svg>
