<?xml version="1.0" encoding="UTF-8" standalone="no"?>
<svg xmlns:xlink="http://www.w3.org/1999/xlink" height="38.45px" width="42.35px" xmlns="http://www.w3.org/2000/svg">
  <g transform="matrix(1.0, 0.0, 0.0, 1.0, 20.4, 20.65)">
    <path d="M-8.1 -14.4 Q-8.55 -15.05 -9.15 -15.15 -14.9 -11.5 -13.15 -5.0 L-13.05 -4.8 Q-10.15 -1.8 -7.1 -4.7 L-6.65 -5.15 Q-5.1 -10.1 -8.1 -14.4 M6.45 -5.9 L5.6 -5.95 Q-0.25 -4.5 -0.3 1.0 -0.3 2.4 0.3 3.6 3.55 5.85 6.35 3.25 L7.1 2.15 Q8.65 -2.0 6.45 -5.9 M0.6 -16.6 L3.2 -14.8 Q6.4 -12.05 7.75 -8.05 13.1 -6.95 16.4 -2.45 L16.65 -2.1 Q19.65 2.2 20.75 7.4 21.7 11.9 21.95 16.55 L21.95 16.7 21.25 17.8 21.05 15.45 19.0 7.4 Q17.9 3.65 16.4 1.1 L15.65 -0.05 Q13.65 -2.85 12.25 -3.95 L9.2 -5.7 8.7 -5.65 Q10.25 -2.8 9.75 0.4 9.25 3.75 6.65 5.65 4.9 6.95 2.6 6.65 -2.25 6.0 -2.45 1.3 L-2.45 0.55 Q-1.6 -6.4 5.5 -8.0 4.3 -11.8 0.85 -14.0 -2.95 -16.4 -7.2 -16.0 -5.1 -13.25 -4.6 -9.95 -4.25 -7.5 -5.05 -4.6 -5.85 -1.75 -9.65 -1.2 -13.5 -0.7 -14.9 -4.2 -15.6 -6.8 -15.2 -9.45 -14.55 -13.3 -11.65 -15.8 L-10.8 -16.4 Q-12.3 -18.0 -16.65 -18.85 L-20.4 -19.3 Q-18.95 -20.65 -16.3 -20.65 -13.65 -20.65 -11.4 -19.15 L-9.0 -17.55 Q-4.1 -19.05 0.6 -16.6" fill="#000000" fill-rule="evenodd" stroke="none"/>
  </g>
</svg>
