<?xml version="1.0" encoding="UTF-8" standalone="no"?>
<svg xmlns:xlink="http://www.w3.org/1999/xlink" height="504.1px" width="549.3px" xmlns="http://www.w3.org/2000/svg">
  <g transform="matrix(1.0, 0.0, 0.0, 1.0, 274.6, 252.05)">
    <path d="M-216.25 252.05 L-226.25 252.05 -274.05 150.85 Q-275.05 148.55 -274.3 146.15 L-274.55 146.85 Q-274.15 144.15 -272.05 142.55 L-271.95 142.2 -185.05 77.4 -191.05 71.25 -191.15 71.0 Q-226.25 31.15 -217.35 -29.9 -208.55 -90.0 -161.75 -135.85 -142.85 -154.25 -122.25 -165.8 L-122.0 -165.9 Q-110.55 -172.55 -98.45 -177.05 -68.4 -187.25 -43.45 -190.9 L8.65 -214.65 8.85 -214.15 95.45 -252.05 274.7 -252.05 274.7 229.5 238.25 152.0 238.5 151.9 196.95 63.3 196.7 63.45 194.85 59.5 195.05 59.4 106.3 -130.3 62.85 -97.9 62.7 -98.2 56.55 -93.5 Q51.55 -123.0 32.0 -145.45 4.7 -176.9 -37.85 -179.1 -65.1 -180.7 -95.2 -170.1 -106.55 -165.85 -117.35 -159.65 -137.2 -148.5 -155.35 -130.65 -200.45 -86.7 -209.05 -29.05 -217.45 28.7 -184.55 66.45 -179.0 72.85 -172.8 78.15 L-266.35 148.05 -216.25 252.05 M106.5 252.05 L-170.15 252.05 -202.95 183.05 90.3 -39.9 92.1 -36.1 92.55 -33.4 3.75 34.55 106.5 252.05 M159.2 -126.15 Q151.85 -122.45 150.3 -112.7 148.1 -103.5 152.3 -94.45 156.9 -84.9 165.65 -80.2 174.15 -75.25 181.7 -78.5 189.5 -82.5 191.65 -92.5 193.55 -102.2 189.1 -111.8 184.75 -120.8 176.3 -124.95 167.25 -129.7 159.2 -126.15 M196.7 63.45 L201.7 74.65 196.45 63.55 196.7 63.45" fill="#003399" fill-rule="evenodd" stroke="none"/>
    <path d="M-216.25 252.05 L-266.35 148.05 -172.8 78.15 Q-179.0 72.85 -184.55 66.45 -217.45 28.7 -209.05 -29.05 -200.45 -86.7 -155.35 -130.65 -137.2 -148.5 -117.35 -159.65 -106.55 -165.85 -95.2 -170.1 -65.1 -180.7 -37.85 -179.1 4.7 -176.9 32.0 -145.45 51.55 -123.0 56.55 -93.5 L62.7 -98.2 62.85 -97.9 106.3 -130.3 195.05 59.4 194.85 59.5 196.7 63.45 196.95 63.3 238.5 151.9 238.25 152.0 274.7 229.5 274.7 252.05 229.4 252.05 103.25 -12.65 103.2 -12.7 106.7 -5.3 101.45 -15.8 102.25 -14.7 93.15 -33.9 92.55 -33.4 92.1 -36.1 90.3 -39.9 -202.95 183.05 -170.15 252.05 -216.25 252.05 M159.2 -126.15 Q167.25 -129.7 176.3 -124.95 184.75 -120.8 189.1 -111.8 193.55 -102.2 191.65 -92.5 189.5 -82.5 181.7 -78.5 174.15 -75.25 165.65 -80.2 156.9 -84.9 152.3 -94.45 148.1 -103.5 150.3 -112.7 151.85 -122.45 159.2 -126.15 M196.7 63.45 L196.45 63.55 201.7 74.65 196.7 63.45" fill="#3366cc" fill-rule="evenodd" stroke="none"/>
    <path d="M229.4 252.05 L106.5 252.05 3.75 34.55 92.55 -33.4 93.15 -33.9 102.25 -14.7 101.45 -15.8 106.7 -5.3 103.2 -12.7 103.25 -12.65 229.4 252.05" fill="#000033" fill-rule="evenodd" stroke="none"/>
  </g>
</svg>
