<?xml version="1.0" encoding="UTF-8" standalone="no"?>
<svg xmlns:xlink="http://www.w3.org/1999/xlink" height="390.1px" width="498.1px" xmlns="http://www.w3.org/2000/svg">
  <g transform="matrix(1.0, 0.0, 0.0, 1.0, 249.05, 195.05)">
    <path d="M85.55 -126.55 L86.05 -125.35 Q95.0 -151.05 107.5 -176.95 121.45 -152.75 134.2 -124.6 L143.2 -103.95 143.6 -103.05 144.9 -100.05 Q152.95 -80.5 159.2 -58.95 L162.2 -53.3 167.75 -49.45 167.85 -49.75 167.95 -49.4 168.85 -48.75 168.2 -47.05 168.7 -43.6 Q182.85 -34.6 197.5 -25.95 223.8 -38.15 249.05 -50.9 L249.05 195.05 199.1 195.05 196.65 188.35 191.55 188.9 178.15 124.0 174.75 128.0 180.15 195.05 -60.1 195.05 -55.85 192.75 -55.6 192.2 -55.65 192.2 -56.5 182.5 -57.15 179.8 -61.55 179.35 -60.95 174.9 -61.7 175.05 -72.85 94.25 -92.4 112.2 -85.7 186.5 -88.0 186.7 -88.75 195.05 -249.05 195.05 -249.05 -69.6 -238.55 -75.3 -241.35 -76.7 -231.1 -93.25 -226.45 -91.8 -226.85 -92.45 -229.9 -97.35 Q-234.95 -106.1 -238.55 -115.75 -241.3 -123.15 -243.2 -131.0 L-244.25 -135.5 Q-234.55 -154.35 -217.55 -162.35 -205.95 -166.3 -194.1 -168.2 -162.6 -173.25 -129.2 -164.1 -111.15 -152.0 -105.5 -133.55 -107.05 -128.8 -108.75 -124.15 -112.4 -114.65 -116.95 -105.75 -120.8 -98.1 -125.3 -90.85 L-115.15 -94.3 -104.55 -78.0 -107.25 -76.55 Q-84.35 -64.5 -60.5 -53.0 -28.45 -77.1 2.65 -107.7 L8.0 -121.9 Q11.35 -158.25 17.25 -195.05 L71.25 -195.05 Q78.65 -162.85 84.9 -126.2 L85.55 -126.55" fill="#000033" fill-rule="evenodd" stroke="none"/>
  </g>
</svg>
