<?xml version="1.0" encoding="UTF-8" standalone="no"?>
<svg xmlns:xlink="http://www.w3.org/1999/xlink" height="184.25px" width="432.8px" xmlns="http://www.w3.org/2000/svg">
  <g transform="matrix(1.0, 0.0, 0.0, 1.0, 216.5, 93.45)">
    <path d="M54.55 -52.95 Q63.0 -54.3 72.0 -51.85 76.85 -48.6 78.35 -43.6 L77.5 -41.1 75.3 -36.15 73.05 -32.15 75.75 -33.05 78.6 -28.7 77.9 -28.3 88.2 -23.05 Q98.3 -31.15 107.45 -40.1 L106.95 -40.55 108.2 -44.2 Q110.95 -60.85 114.35 -77.25 L115.95 -85.1 117.45 -91.85 118.9 -85.25 120.85 -77.05 121.85 -73.05 128.3 -45.3 129.95 -40.9 129.55 -40.5 138.5 -32.6 Q145.85 -33.0 153.1 -32.35 L154.5 -23.85 Q162.0 -29.65 169.0 -35.95 L168.55 -36.3 170.0 -40.15 Q171.45 -56.1 174.75 -72.35 L174.95 -73.35 172.6 -73.45 171.7 -74.8 Q171.4 -75.4 171.35 -76.5 L171.35 -77.65 172.1 -76.85 Q173.4 -75.55 174.55 -75.0 L175.1 -77.55 Q175.7 -80.75 175.85 -84.35 177.2 -84.0 178.1 -82.8 179.05 -84.8 180.65 -86.35 181.15 -83.85 182.25 -81.7 L183.25 -76.5 183.3 -76.0 183.6 -76.3 Q184.6 -77.25 185.65 -79.3 186.1 -77.35 185.8 -76.1 L185.15 -74.35 183.3 -74.0 183.4 -73.65 Q187.55 -59.55 190.65 -41.3 L190.85 -41.4 192.75 -36.7 192.3 -36.3 Q202.15 -28.05 212.95 -20.65 L212.95 -20.75 213.0 -20.65 213.25 -20.45 213.1 -20.05 216.3 2.35 212.5 38.4 211.6 38.3 210.9 41.7 210.1 41.6 212.7 46.5 Q209.0 52.05 205.3 56.1 201.25 53.35 198.65 49.8 L199.55 47.5 Q198.85 45.5 199.1 43.4 L202.25 40.45 202.15 40.45 201.95 36.9 201.1 36.75 202.05 22.35 199.6 11.45 195.5 17.65 196.85 38.9 196.5 38.95 194.5 83.2 198.05 84.75 197.8 88.8 183.0 89.05 182.4 89.05 167.6 89.3 167.2 85.25 170.7 83.55 169.2 63.9 Q166.1 62.2 163.9 60.2 L164.95 58.45 Q164.15 56.95 164.45 55.3 166.2 54.1 168.05 53.05 L167.9 53.05 167.65 50.35 166.7 50.25 167.55 42.35 167.3 39.4 166.85 39.4 166.95 36.5 165.15 30.95 162.2 33.9 162.6 37.7 161.75 37.85 161.6 41.4 161.5 41.4 164.7 44.2 Q165.0 46.35 164.4 48.35 L165.35 50.65 Q163.6 53.15 161.2 55.35 L158.9 85.6 162.9 86.75 162.6 89.85 145.1 90.15 145.1 90.1 128.3 90.35 128.15 89.4 120.85 89.55 120.3 89.55 106.2 89.75 105.85 85.6 109.15 83.85 106.8 50.5 Q101.55 55.25 96.35 58.75 90.25 56.15 86.4 52.8 L87.75 50.6 Q86.7 48.75 87.15 46.75 89.4 45.35 91.8 44.1 L91.85 43.95 91.75 43.95 91.5 40.65 90.2 40.5 90.55 37.7 87.85 16.95 81.9 22.45 83.7 42.45 83.05 42.5 79.4 84.15 84.75 85.65 84.3 89.4 60.95 89.65 38.45 89.85 37.95 86.05 43.25 84.45 38.75 42.9 38.2 42.9 39.6 22.9 33.15 17.2 33.1 17.4 30.7 34.45 31.65 41.35 30.4 41.5 30.15 44.8 30.0 44.85 Q32.5 46.1 34.9 47.5 35.3 49.5 34.3 51.4 L35.75 53.55 Q31.9 56.95 25.9 59.65 L23.65 58.15 21.0 60.55 Q16.4 58.15 13.45 55.05 L14.5 53.0 Q13.7 51.3 14.0 49.4 L17.55 46.85 17.45 46.8 17.4 46.2 16.95 46.25 15.8 43.1 14.45 43.25 10.85 25.8 9.9 26.85 11.4 45.45 10.95 45.5 8.5 84.3 12.5 85.65 12.2 89.2 -5.25 89.5 -5.25 89.45 -22.1 89.7 -22.2 88.85 -22.5 88.85 -37.3 89.1 -37.7 85.05 -34.2 83.35 -36.15 57.7 -40.25 53.5 Q-43.85 56.5 -47.45 58.9 -53.55 56.3 -57.4 52.95 L-56.05 50.75 Q-57.1 48.9 -56.65 46.9 -54.45 45.5 -52.1 44.25 L-52.0 44.1 -52.05 44.1 -52.25 41.5 -52.45 40.8 -53.6 40.65 -53.45 39.45 -53.65 39.5 -56.65 17.8 -61.9 22.6 -60.1 42.6 -60.75 42.65 -64.4 84.3 -59.05 85.8 -59.5 89.55 -82.85 89.8 -105.35 90.0 -105.85 86.2 -100.55 84.6 -105.05 43.05 -105.6 43.05 -104.2 23.05 -110.65 17.35 -114.05 27.95 -112.15 41.5 -113.4 41.65 -113.65 44.95 -113.8 45.0 Q-111.3 46.25 -108.9 47.65 -108.5 49.65 -109.5 51.55 L-108.05 53.7 Q-111.9 57.1 -117.9 59.8 -123.65 56.1 -129.4 51.0 L-129.2 50.75 -131.9 47.35 -131.1 44.9 Q-131.75 42.85 -131.5 40.65 L-130.2 39.25 -134.85 16.85 -133.7 35.95 -134.1 36.0 -135.9 81.85 -132.55 83.5 -132.8 87.7 -146.85 87.95 -147.4 87.95 -158.25 88.1 -158.45 90.3 -175.9 90.6 -175.9 90.55 -192.75 90.8 -193.15 87.3 -189.2 85.8 -192.85 47.15 -193.25 47.1 -192.4 28.45 -197.2 23.2 -199.7 33.05 -198.15 45.65 -199.1 45.75 -199.25 48.9 -199.35 48.9 -195.7 51.4 Q-195.35 53.25 -196.1 55.0 L-195.0 57.0 Q-197.85 60.2 -202.35 62.75 -206.65 59.3 -211.0 54.55 L-208.2 50.15 -209.1 50.25 -210.0 47.3 -211.0 47.45 -216.5 16.0 -213.55 -3.95 -213.75 -4.35 Q-201.55 -11.25 -190.5 -18.9 L-191.05 -19.25 -189.05 -23.4 -189.0 -23.4 Q-186.3 -38.6 -178.8 -54.05 -175.1 -47.55 -171.65 -39.95 L-169.2 -34.4 -169.1 -34.15 -168.9 -33.65 -160.25 -41.7 -160.75 -42.15 -159.5 -45.8 Q-156.75 -62.45 -153.35 -78.85 L-151.75 -86.7 -150.25 -93.45 -148.8 -86.85 -146.85 -78.65 -145.85 -74.65 Q-143.0 -63.15 -139.4 -46.9 L-137.75 -42.5 -138.15 -42.1 Q-128.8 -33.45 -118.5 -25.75 L-118.45 -25.8 -118.45 -25.7 -118.25 -25.55 -118.4 -25.15 -117.6 -19.25 Q-109.2 -23.4 -101.2 -27.8 L-101.95 -28.2 -99.2 -32.65 -97.95 -32.25 -98.05 -32.4 -98.9 -33.75 Q-100.25 -36.1 -101.2 -38.7 L-102.45 -42.8 -102.75 -44.0 Q-100.15 -49.05 -95.55 -51.2 -92.45 -52.3 -89.25 -52.8 -80.8 -54.15 -71.8 -51.7 -66.95 -48.45 -65.45 -43.45 L-66.3 -40.95 Q-67.3 -38.4 -68.5 -36.0 -69.55 -33.95 -70.75 -32.0 L-68.05 -32.9 -65.2 -28.55 -65.9 -28.15 Q-59.75 -24.9 -53.35 -21.8 -44.25 -28.65 -35.9 -36.15 L-36.35 -36.5 -34.9 -40.35 Q-33.45 -56.3 -30.15 -72.55 L-29.95 -73.55 -32.3 -73.65 -33.2 -75.0 -33.55 -76.7 -33.55 -77.85 -32.8 -77.05 Q-31.5 -75.75 -30.35 -75.2 L-29.8 -77.75 Q-29.2 -80.95 -29.05 -84.55 -27.7 -84.2 -26.8 -83.0 -25.85 -85.0 -24.25 -86.55 -23.75 -84.05 -22.65 -81.9 L-21.65 -76.7 -21.6 -76.2 -21.3 -76.5 Q-20.3 -77.45 -19.25 -79.5 -18.8 -77.55 -19.1 -76.3 L-19.75 -74.55 -21.6 -74.2 -21.5 -73.85 Q-17.35 -59.75 -14.25 -41.5 L-14.05 -41.6 -13.95 -41.25 Q-11.55 -48.2 -8.15 -55.15 -4.45 -48.65 -1.0 -41.05 L1.45 -35.5 1.55 -35.25 1.9 -34.45 Q4.05 -29.2 5.75 -23.4 L6.55 -21.9 8.05 -20.85 8.05 -20.95 8.1 -20.85 8.35 -20.65 8.15 -20.2 8.3 -19.3 16.05 -14.55 Q29.85 -20.95 42.6 -27.95 L41.85 -28.35 44.6 -32.8 45.85 -32.4 45.75 -32.55 44.9 -33.9 Q43.55 -36.25 42.6 -38.85 41.85 -40.85 41.35 -42.95 L41.05 -44.15 Q43.65 -49.2 48.25 -51.35 51.35 -52.45 54.55 -52.95 M-161.85 84.0 L-158.55 82.25 -160.35 56.85 -162.15 85.4 -161.7 85.55 -161.85 84.0 M106.15 41.95 L106.05 41.95 105.0 45.15 103.8 45.05 106.65 48.35 106.15 41.95" fill="#000033" fill-rule="evenodd" stroke="none"/>
  </g>
</svg>
