<?xml version="1.0" encoding="UTF-8" standalone="no"?>
<svg xmlns:xlink="http://www.w3.org/1999/xlink" height="190.75px" width="279.6px" xmlns="http://www.w3.org/2000/svg">
  <g transform="matrix(1.0, 0.0, 0.0, 1.0, -58.35, 445.75)">
    <path d="M206.1 -436.8 L206.25 -436.8 Q249.0 -435.9 264.9 -413.05 281.05 -390.1 309.0 -330.55 337.25 -270.8 295.15 -270.75 L195.55 -270.75 Q138.0 -270.8 99.8 -271.2 74.05 -271.5 79.9 -299.3 82.8 -312.45 92.75 -331.85 123.6 -392.05 143.6 -414.9 161.6 -435.45 198.1 -436.65 202.05 -436.9 206.1 -436.8 M205.8 -445.7 Q156.4 -446.75 133.3 -420.55 110.15 -394.35 74.4 -325.15 38.6 -255.8 82.6 -255.45 126.85 -255.0 193.5 -255.0 L308.8 -255.0 Q357.45 -254.9 324.95 -323.55 292.45 -392.05 273.85 -418.25 255.3 -444.6 205.8 -445.7" fill="#000000" fill-rule="evenodd" stroke="none"/>
    <path d="M206.25 -436.8 L206.1 -436.8 206.15 -435.9 206.25 -436.8 M192.25 -431.7 Q143.9 -431.75 121.05 -372.0 153.4 -424.8 192.25 -431.7" fill="#999999" fill-rule="evenodd" stroke="none"/>
    <path d="M206.15 -435.9 L206.1 -436.8 Q202.05 -436.9 198.1 -436.65 161.6 -435.45 143.6 -414.9 123.6 -392.05 92.75 -331.85 82.8 -312.45 79.9 -299.3 83.2 -289.3 97.8 -289.15 131.85 -288.8 183.25 -288.75 L272.2 -288.8 Q309.75 -288.7 284.55 -342.05 259.6 -395.3 245.25 -415.8 233.65 -432.35 206.15 -435.9 M192.25 -431.7 Q153.4 -424.8 121.05 -372.0 143.9 -431.75 192.25 -431.7" fill="#666666" fill-rule="evenodd" stroke="none"/>
    <path d="M206.25 -436.8 L206.15 -435.9 Q233.65 -432.35 245.25 -415.8 259.6 -395.3 284.55 -342.05 309.75 -288.7 272.2 -288.8 L183.25 -288.75 Q131.85 -288.8 97.8 -289.15 83.2 -289.3 79.9 -299.3 74.05 -271.5 99.8 -271.2 138.0 -270.8 195.55 -270.75 L295.15 -270.75 Q337.25 -270.8 309.0 -330.55 281.05 -390.1 264.9 -413.05 249.0 -435.9 206.25 -436.8" fill="#333333" fill-rule="evenodd" stroke="none"/>
  </g>
</svg>
