<?xml version="1.0" encoding="UTF-8" standalone="no"?>
<svg xmlns:xlink="http://www.w3.org/1999/xlink" height="5.2px" width="20.2px" xmlns="http://www.w3.org/2000/svg">
  <g transform="matrix(1.0, 0.0, 0.0, 1.0, -0.3, 2.0)">
    <path d="M17.1 -1.35 L1.05 -0.05 1.05 0.45 14.95 2.45 15.2 2.45 Q17.6 2.35 18.85 1.75 19.85 1.2 19.85 0.2 L19.85 0.15 Q19.75 -1.2 17.1 -1.35 M0.35 -0.6 L17.05 -2.0 Q20.55 -1.8 20.5 0.25 20.6 3.0 15.15 3.2 L14.85 3.2 0.3 1.1 0.35 -0.6" fill="#000000" fill-rule="evenodd" stroke="none"/>
    <path d="M17.1 -1.35 Q19.75 -1.2 19.85 0.15 L19.85 0.2 Q19.85 1.2 18.85 1.75 17.6 2.35 15.2 2.45 L14.95 2.45 1.05 0.45 1.05 -0.05 17.1 -1.35 M13.6 1.4 L6.75 0.95 13.6 1.9 15.2 1.95 Q19.9 1.95 19.0 -0.35 18.4 1.0 15.25 1.35 L13.6 1.4" fill="#339999" fill-rule="evenodd" stroke="none"/>
    <path d="M13.6 1.4 L15.25 1.35 Q18.4 1.0 19.0 -0.35 19.9 1.95 15.2 1.95 L13.6 1.9 6.75 0.95 13.6 1.4" fill="#33cccc" fill-rule="evenodd" stroke="none"/>
  </g>
</svg>
