<?xml version="1.0" encoding="UTF-8" standalone="no"?>
<svg xmlns:xlink="http://www.w3.org/1999/xlink" height="14.4px" width="58.25px" xmlns="http://www.w3.org/2000/svg">
  <g transform="matrix(1.0, 0.0, 0.0, 1.0, 29.1, 7.2)">
    <path d="M21.4 -1.2 L22.85 0.35 22.05 1.1 21.9 1.15 21.35 1.5 20.9 1.7 17.75 2.75 17.3 2.9 19.55 1.95 20.15 1.65 20.25 1.55 21.0 0.95 Q21.6 0.3 21.6 -0.4 L21.4 -1.2 M-4.5 -5.5 L-0.8 -5.6 0.65 -5.55 -8.1 -4.7 -8.4 -4.65 -9.6 -4.4 -9.6 -4.45 -9.2 -4.55 -8.4 -4.75 -6.65 -5.15 -4.5 -5.5 M6.6 -2.05 L4.65 -2.5 -1.35 -3.1 -1.45 -3.1 -2.7 -3.1 -3.6 -3.1 -4.35 -3.1 -4.85 -3.1 -12.3 -2.4 -13.75 -2.1 -12.95 -2.3 -10.95 -2.75 -9.2 -3.05 -5.35 -3.4 -2.5 -3.45 -2.15 -3.45 -1.25 -3.45 6.05 -2.85 7.75 -2.5 8.6 -2.3 11.3 -1.4 Q13.1 -0.55 13.1 0.5 L12.65 1.5 12.05 2.05 11.95 2.1 11.45 2.35 11.3 2.45 10.7 2.4 11.25 1.95 11.7 0.9 11.55 0.3 Q11.15 -0.4 9.9 -1.0 L7.25 -1.9 6.6 -2.05 M-16.5 -0.7 L-16.45 -0.9 -16.3 -1.3 -15.3 -2.25 -14.2 -2.95 -11.95 -3.75 -10.95 -4.05 -10.95 -4.0 -12.45 -3.45 -13.55 -2.8 -14.5 -1.9 -14.5 -1.8 -14.8 -1.0 -14.8 -0.9 -14.7 -0.45 Q-14.35 1.0 -11.35 2.1 L-9.4 2.7 -9.2 2.75 -6.55 3.35 -6.5 3.35 -5.55 3.6 -0.15 4.2 0.3 4.2 3.05 4.3 4.25 4.3 4.55 4.3 7.55 4.25 10.2 4.05 16.05 3.2 16.0 3.3 11.2 4.25 9.0 4.5 2.5 4.8 0.45 4.8 -0.8 4.7 -1.05 4.7 -3.9 4.5 -7.3 4.05 -7.95 3.95 -8.25 3.85 -10.95 3.3 -11.2 3.2 -13.1 2.6 Q-16.55 1.3 -16.5 -0.4 L-16.5 -0.45 -16.5 -0.7" fill="#ffffff" fill-rule="evenodd" stroke="none"/>
    <path d="M2.6 -0.4 L2.15 -0.7 Q1.1 -1.25 -0.4 -1.25 -1.9 -1.25 -2.95 -0.7 -4.0 -0.15 -4.0 0.65 L-4.0 0.75 -14.7 -0.45 -14.8 -0.9 -14.8 -1.0 -14.5 -1.8 -14.5 -1.9 -13.55 -2.8 -12.45 -3.45 -10.95 -4.0 -10.95 -4.05 -11.95 -3.75 -14.2 -2.95 -15.3 -2.25 -16.3 -1.3 -16.45 -0.9 -16.5 -0.7 -20.35 -1.1 -20.4 -1.1 -19.05 -1.9 -16.45 -2.85 -15.55 -3.1 -12.25 -3.9 -10.8 -4.15 -10.5 -4.15 -10.45 -4.15 -10.15 -4.25 -9.85 -4.3 -9.6 -4.3 -7.0 -4.55 -1.05 -4.8 -0.4 -4.8 -0.25 -4.8 11.15 -3.9 7.75 -2.5 6.05 -2.85 -1.25 -3.45 -2.15 -3.45 -2.5 -3.45 -5.35 -3.4 -9.2 -3.05 -10.95 -2.75 -12.95 -2.3 -13.75 -2.1 -12.3 -2.4 -4.85 -3.1 -4.35 -3.1 -3.6 -3.1 -2.7 -3.1 -1.45 -3.1 -1.35 -3.1 4.65 -2.5 6.6 -2.05 2.6 -0.4 M-3.1 1.95 L-2.95 2.05 Q-1.9 2.6 -0.4 2.6 1.1 2.6 2.15 2.05 L2.9 1.5 10.7 2.4 11.3 2.45 11.45 2.45 16.75 3.05 16.85 3.05 19.35 3.3 Q18.15 4.1 16.05 4.75 L14.7 5.15 Q8.4 6.85 -0.4 6.85 L-6.95 6.6 -8.45 6.45 -12.55 5.85 -7.95 3.95 -7.3 4.05 -3.9 4.5 -1.05 4.7 -0.8 4.7 0.45 4.8 2.5 4.8 9.0 4.5 11.2 4.25 16.0 3.3 16.05 3.2 10.2 4.05 7.55 4.25 4.55 4.3 4.25 4.3 3.05 4.3 0.3 4.2 -0.15 4.2 -5.55 3.6 -6.5 3.35 -6.55 3.35 -3.1 1.95" fill="#9999cc" fill-opacity="0.5411765" fill-rule="evenodd" stroke="none"/>
    <path d="M11.3 2.45 L11.45 2.35 11.45 2.45 11.3 2.45" fill="#990033" fill-opacity="0.7921569" fill-rule="evenodd" stroke="none"/>
    <path d="M1.9 -0.3 L1.9 -0.25 Q0.95 -0.75 -0.4 -0.75 L-2.75 -0.25 -2.7 -0.3 Q-3.45 0.1 -3.5 0.65 L-3.5 0.75 -2.85 1.55 -2.8 1.6 -2.75 1.6 -0.4 2.1 Q0.95 2.1 1.9 1.6 L2.5 1.2 2.5 1.15 2.65 0.65 Q2.65 0.3 2.3 0.0 L2.25 -0.05 1.9 -0.3 M-4.0 0.75 L-4.0 0.65 Q-4.0 -0.15 -2.95 -0.7 -1.9 -1.25 -0.4 -1.25 1.1 -1.25 2.15 -0.7 L2.6 -0.4 Q3.15 0.05 3.15 0.65 L2.9 1.5 2.15 2.05 Q1.1 2.6 -0.4 2.6 -1.9 2.6 -2.95 2.05 L-3.1 1.95 Q-4.0 1.45 -4.0 0.75" fill="#330000" fill-rule="evenodd" stroke="none"/>
    <path d="M1.9 -0.3 L2.25 -0.05 2.3 0.0 Q2.65 0.3 2.65 0.65 L2.5 1.15 2.5 1.2 1.9 1.6 Q0.95 2.1 -0.4 2.1 L-2.75 1.6 -2.8 1.6 -2.85 1.55 -3.5 0.75 -3.5 0.65 Q-3.45 0.1 -2.7 -0.3 L-2.75 -0.25 -0.4 -0.75 Q0.95 -0.75 1.9 -0.25 L1.9 -0.3" fill="#339999" fill-rule="evenodd" stroke="none"/>
    <path d="M5.2 -6.8 L6.95 -7.05 Q10.15 -7.35 14.0 -6.95 L15.45 -6.8 17.85 -6.4 18.2 -6.3 19.35 -6.1 22.2 -5.3 23.8 -4.65 23.85 -4.6 24.75 -4.2 24.8 -4.15 Q26.4 -3.4 27.4 -2.65 L28.75 -1.15 Q29.15 -0.45 29.15 0.3 L29.1 0.7 28.7 1.7 28.05 2.4 27.9 2.45 27.45 2.75 27.25 2.9 27.1 3.0 26.6 3.2 25.5 3.65 25.3 3.75 25.25 3.65 26.05 3.2 26.1 3.2 26.5 2.9 26.6 2.85 26.7 2.75 27.2 2.15 27.75 0.75 27.75 0.45 27.6 -0.15 27.35 -0.7 26.0 -2.2 23.35 -3.75 22.7 -4.05 21.9 -4.45 20.95 -4.8 20.75 -4.85 16.5 -6.05 16.2 -6.05 12.75 -6.55 12.55 -6.6 11.3 -6.65 3.8 -6.4 3.8 -6.5 5.2 -6.8 M0.65 -5.55 L0.95 -5.55 1.1 -5.55 11.25 -4.65 15.0 -3.8 18.95 -2.4 21.4 -1.2 21.6 -0.4 Q21.6 0.3 21.0 0.95 L20.25 1.55 20.15 1.65 19.55 1.95 17.3 2.9 17.75 2.75 20.9 1.7 21.35 1.5 21.9 1.15 22.05 1.1 22.85 0.35 23.0 1.1 Q22.95 2.4 21.25 3.5 L18.45 4.8 17.25 5.2 16.4 5.4 Q9.8 7.2 0.6 7.2 L-7.95 6.75 -9.9 6.95 -13.95 7.05 -19.95 6.5 -21.85 6.05 -22.3 5.9 -22.6 5.85 -24.7 5.15 -24.9 5.0 -26.45 4.35 Q-29.15 2.85 -29.1 0.9 L-29.1 0.85 -29.05 0.6 Q-28.95 -0.35 -28.1 -1.15 L-27.7 -1.45 -27.15 -1.85 -25.35 -2.75 -24.65 -3.0 -24.55 -3.05 -24.4 -3.1 -23.95 -3.3 -25.75 -2.35 -26.0 -2.2 -26.05 -2.15 -26.65 -1.65 -27.0 -1.35 Q-27.65 -0.55 -27.7 0.35 L-27.7 0.4 -27.65 0.9 Q-27.4 2.5 -25.0 3.8 L-23.5 4.55 -23.3 4.6 -21.25 5.3 -21.15 5.3 -20.4 5.55 -18.85 5.9 -14.35 6.45 -12.55 6.55 -9.75 6.5 -12.1 6.15 -15.25 5.4 -19.15 4.05 Q-23.2 2.5 -23.2 0.5 L-23.2 0.45 Q-23.15 -0.7 -21.75 -1.7 L-20.4 -2.5 -17.8 -3.45 -16.65 -3.8 -13.65 -4.5 -13.55 -4.5 -10.85 -4.95 -10.5 -5.0 -9.6 -5.1 -4.5 -5.5 -6.65 -5.15 -8.4 -4.75 -9.2 -4.55 -9.6 -4.45 -9.6 -4.4 -8.4 -4.65 -8.1 -4.7 0.65 -5.55 M2.6 -0.4 L6.6 -2.05 7.25 -1.9 9.9 -1.0 Q11.15 -0.4 11.55 0.3 L11.7 0.9 11.25 1.95 10.7 2.4 2.9 1.5 3.15 0.65 Q3.15 0.05 2.6 -0.4 M7.75 -2.5 L11.15 -3.9 -0.25 -4.8 -0.4 -4.8 -1.05 -4.8 -7.0 -4.55 -9.6 -4.3 -9.85 -4.3 -10.15 -4.25 -10.45 -4.15 -10.5 -4.15 -10.8 -4.15 -12.25 -3.9 -15.55 -3.1 -16.45 -2.85 -19.05 -1.9 -20.4 -1.1 -20.35 -1.1 -16.5 -0.7 -16.5 -0.45 -16.5 -0.4 Q-16.55 1.3 -13.1 2.6 L-11.2 3.2 -10.95 3.3 -8.25 3.85 -7.95 3.95 -12.55 5.85 -8.45 6.45 -6.95 6.6 -0.4 6.85 Q8.4 6.85 14.7 5.15 L16.05 4.75 Q18.15 4.1 19.35 3.3 L16.85 3.05 16.75 3.05 11.45 2.45 11.45 2.35 11.95 2.1 12.05 2.05 12.65 1.5 13.1 0.5 Q13.1 -0.55 11.3 -1.4 L8.6 -2.3 7.75 -2.5 M-14.7 -0.45 L-4.0 0.75 Q-4.0 1.45 -3.1 1.95 L-6.55 3.35 -9.2 2.75 -9.4 2.7 -11.35 2.1 Q-14.35 1.0 -14.7 -0.45" fill="#339999" fill-opacity="0.7019608" fill-rule="evenodd" stroke="none"/>
  </g>
</svg>
