<?xml version="1.0" encoding="UTF-8" standalone="no"?>
<svg xmlns:xlink="http://www.w3.org/1999/xlink" height="21.85px" width="28.15px" xmlns="http://www.w3.org/2000/svg">
  <g transform="matrix(1.0, 0.0, 0.0, 1.0, 12.2, 15.7)">
    <path d="M2.1 -0.55 Q1.75 2.2 0.8 3.65 -1.0 1.75 -3.25 2.65 -4.25 3.0 -5.1 3.9 -5.95 4.7 -6.4 5.8 L-7.95 6.0 -9.5 6.0 -10.75 4.7 Q-11.35 4.15 -11.95 1.95 L-11.95 1.9 Q-12.4 0.25 -12.0 -1.6 L-12.0 -1.75 -11.6 -3.05 Q-10.7 -5.7 -9.3 -7.6 L-6.2 -11.1 Q-4.0 -13.55 -2.6 -15.7 -1.75 -14.4 -0.8 -11.7 0.1 -9.05 1.3 -6.15 2.2 -3.95 2.2 -1.8 L2.1 -0.55 M15.5 -1.45 L15.8 -0.45 Q16.05 0.65 15.9 1.8 L15.85 2.0 Q15.5 4.0 13.8 6.15 12.65 6.15 12.15 5.65 L11.85 5.75 Q10.85 3.35 9.15 2.55 7.2 1.7 5.1 3.25 3.25 1.3 3.15 -2.2 L3.15 -3.5 Q3.4 -7.95 3.95 -10.45 L4.95 -14.5 Q6.65 -12.2 9.6 -9.5 L13.75 -5.2 Q14.8 -3.9 15.5 -1.5 L3.95 -1.9 Q10.6 -0.45 15.05 1.55 12.8 -0.2 8.45 -1.5 11.75 -1.85 15.5 -1.45 M-3.35 -1.4 Q-7.25 -0.35 -11.95 1.95 -4.6 -0.85 2.2 -1.8 -4.15 -2.8 -10.45 -1.6 L-3.35 -1.4" fill="#ffffff" fill-rule="evenodd" stroke="none"/>
    <path d="M15.5 -1.5 L15.5 -1.45 Q11.75 -1.85 8.45 -1.5 12.8 -0.2 15.05 1.55 10.6 -0.45 3.95 -1.9 L15.5 -1.5 M-3.35 -1.4 L-10.45 -1.6 Q-4.15 -2.8 2.2 -1.8 -4.6 -0.85 -11.95 1.95 -7.25 -0.35 -3.35 -1.4" fill="#000000" fill-rule="evenodd" stroke="none"/>
  </g>
</svg>
