<?xml version="1.0" encoding="UTF-8" standalone="no"?>
<svg xmlns:xlink="http://www.w3.org/1999/xlink" height="542.2px" width="531.25px" xmlns="http://www.w3.org/2000/svg">
  <g transform="matrix(1.0, 0.0, 0.0, 1.0, 265.6, 271.1)">
    <path d="M88.35 -138.5 Q87.6 -140.65 87.0 -142.75 L81.9 -144.95 Q27.1 -168.7 -0.95 -187.7 L-2.7 -188.9 Q-11.1 -180.75 -22.35 -177.25 -20.45 -166.0 -21.35 -152.55 -21.8 -146.85 -22.65 -141.2 2.7 -136.25 31.3 -125.65 38.35 -128.65 45.65 -131.05 68.55 -138.6 88.35 -138.5 M194.15 -268.65 Q230.85 -261.2 251.1 -227.85 271.45 -194.45 263.35 -154.75 255.25 -115.15 223.5 -92.4 198.9 -74.8 171.35 -75.3 176.8 -55.45 175.05 -30.2 170.7 30.6 126.7 87.05 82.7 143.5 24.85 162.5 -8.95 173.65 -35.95 168.2 -33.7 192.8 -46.5 217.0 -64.7 251.55 -102.85 264.95 -141.1 278.3 -176.9 262.7 -212.7 247.15 -225.1 211.75 -237.55 176.3 -219.35 141.75 -212.7 129.2 -203.4 119.45 L-204.45 115.15 Q-217.2 61.85 -219.75 28.1 L-219.8 27.1 Q-236.3 25.35 -247.3 12.95 -259.85 -1.1 -258.0 -20.65 -256.1 -40.15 -240.9 -53.65 -230.9 -62.55 -219.0 -65.4 L-219.7 -72.6 Q-220.1 -79.65 -219.55 -87.4 -218.95 -96.0 -217.2 -104.45 -221.7 -110.45 -226.25 -121.0 -229.0 -121.3 -231.55 -122.45 -232.5 -121.95 -233.6 -121.7 -237.05 -120.85 -239.9 -122.75 -242.75 -124.65 -243.3 -128.15 -243.55 -129.55 -243.3 -130.9 L-256.05 -162.6 -259.05 -162.2 Q-262.15 -162.4 -264.05 -164.65 -265.95 -166.95 -265.55 -170.0 -265.15 -173.1 -262.7 -175.15 -260.25 -177.2 -257.15 -177.05 -254.05 -176.9 -252.15 -174.6 -250.25 -172.35 -250.6 -169.25 -251.0 -166.2 -253.4 -164.15 L-241.3 -144.45 Q-240.4 -147.7 -238.4 -150.7 L-238.1 -151.1 Q-243.9 -167.6 -245.5 -177.8 -248.35 -195.9 -231.4 -215.4 -214.4 -234.95 -197.6 -233.65 -188.5 -233.0 -173.0 -229.75 -170.1 -233.05 -166.25 -234.8 L-188.15 -245.1 Q-189.85 -242.9 -192.6 -242.2 -195.6 -241.5 -198.05 -243.15 -200.55 -244.8 -201.05 -247.85 -201.55 -250.9 -199.75 -253.55 -198.0 -256.25 -195.0 -256.95 -192.0 -257.7 -189.5 -256.05 -187.0 -254.4 -186.5 -251.35 -186.25 -249.55 -186.7 -247.85 L-154.75 -238.95 -152.6 -239.8 Q-149.15 -240.6 -146.3 -238.7 -143.5 -236.85 -142.9 -233.35 -142.55 -230.9 -143.4 -228.7 -141.55 -225.85 -140.85 -222.15 -133.6 -220.2 -128.4 -217.9 -120.95 -221.45 -113.1 -224.0 -94.7 -230.1 -79.1 -229.2 -77.2 -239.15 -71.0 -248.35 -59.7 -265.25 -40.6 -269.75 -21.55 -274.25 -5.9 -263.7 7.8 -254.5 11.85 -238.45 L12.95 -238.55 Q46.8 -240.6 101.3 -235.2 L105.65 -234.75 Q114.0 -245.25 125.55 -253.5 157.35 -276.2 194.15 -268.65 M-164.7 -10.95 Q-167.0 -1.8 -172.65 5.85 L-171.25 7.4 Q-148.6 32.6 -117.65 83.75 L-114.75 88.6 Q-109.35 89.35 -104.0 90.8 L-104.75 82.55 Q-105.35 72.6 -104.55 61.7 -104.0 53.6 -102.7 45.6 -118.95 13.15 -128.45 -15.75 -148.25 -9.35 -164.7 -10.95" fill="#000000" fill-rule="evenodd" stroke="none"/>
  </g>
</svg>
