<?xml version="1.0" encoding="UTF-8" standalone="no"?>
<svg xmlns:xlink="http://www.w3.org/1999/xlink" height="50.2px" width="431.05px" xmlns="http://www.w3.org/2000/svg">
  <g transform="matrix(1.0, 0.0, 0.0, 1.0, 215.5, 25.1)">
    <path d="M190.45 25.1 Q200.9 25.1 208.25 17.7 215.55 10.4 215.55 0.0 215.55 -10.35 208.25 -17.75 200.9 -25.1 190.45 -25.1 L-190.4 -25.1 Q-200.85 -25.1 -208.15 -17.75 -215.5 -10.35 -215.5 0.0 -215.5 10.4 -208.1 17.7 -200.8 25.1 -190.4 25.1 L190.45 25.1" fill="#000099" fill-rule="evenodd" stroke="none"/>
    <path d="M190.45 18.75 Q198.25 18.75 203.7 13.25 209.25 7.8 209.25 0.0 209.25 -7.8 203.7 -13.25 198.25 -18.75 190.45 -18.75 L-190.4 -18.75 Q-198.2 -18.75 -203.65 -13.25 -209.15 -7.8 -209.15 0.0 -209.15 7.8 -203.65 13.25 -198.2 18.75 -190.4 18.75 L190.45 18.75" fill="#ffff00" fill-rule="evenodd" stroke="none"/>
    <path d="M-168.8 10.85 Q-164.5 6.95 -164.5 -0.1 -164.5 -6.95 -168.8 -10.95 -172.8 -14.5 -178.65 -14.5 -184.6 -14.5 -188.5 -10.95 -192.9 -6.95 -192.9 -0.1 -192.9 6.95 -188.6 10.85 -184.65 14.35 -178.65 14.35 -172.7 14.35 -168.8 10.85 M-173.3 -0.1 Q-173.3 7.45 -178.65 7.45 -184.1 7.45 -184.1 -0.1 -184.1 -7.6 -178.65 -7.6 -173.3 -7.6 -173.3 -0.1" fill="#000099" fill-rule="evenodd" stroke="none"/>
    <path d="M-88.75 10.1 L-88.75 -10.1 Q-88.75 -12.05 -89.85 -13.3 -91.05 -14.5 -93.05 -14.5 -94.95 -14.5 -96.15 -13.3 -97.3 -12.05 -97.3 -10.1 L-97.3 1.45 -97.35 1.45 -105.1 -11.8 Q-106.7 -14.5 -109.85 -14.5 -114.9 -14.5 -114.9 -9.8 L-114.9 9.75 Q-114.9 14.35 -110.6 14.35 -106.35 14.35 -106.35 9.75 L-106.35 -1.1 -106.3 -1.1 -98.95 10.85 Q-97.8 12.95 -96.55 13.65 -95.5 14.35 -93.7 14.35 -88.75 14.35 -88.75 10.1" fill="#000099" fill-rule="evenodd" stroke="none"/>
    <path d="M-21.15 13.7 Q-17.4 13.7 -17.4 10.1 -17.4 6.6 -21.15 6.6 L-30.35 6.6 -30.35 -9.6 Q-30.35 -14.35 -34.75 -14.35 -39.15 -14.35 -39.15 -9.6 L-39.15 8.45 Q-39.15 13.7 -34.2 13.7 L-21.15 13.7" fill="#000099" fill-rule="evenodd" stroke="none"/>
    <path d="M40.95 9.45 L40.95 -9.6 Q40.95 -14.35 36.5 -14.35 32.1 -14.35 32.1 -9.6 L32.1 9.45 Q32.1 11.65 33.3 12.95 34.45 14.15 36.5 14.15 40.95 14.15 40.95 9.45" fill="#000099" fill-rule="evenodd" stroke="none"/>
    <path d="M119.0 10.1 L119.0 -10.1 Q119.0 -12.05 117.85 -13.3 116.7 -14.5 114.7 -14.5 112.75 -14.5 111.6 -13.3 110.4 -12.05 110.4 -10.1 L110.4 1.45 110.35 1.45 102.65 -11.8 Q101.05 -14.5 97.9 -14.5 92.85 -14.5 92.85 -9.8 L92.85 9.75 Q92.85 14.35 97.1 14.35 101.4 14.35 101.4 9.75 L101.4 -1.1 101.45 -1.1 108.8 10.85 Q109.95 12.95 111.2 13.65 112.25 14.35 114.05 14.35 119.0 14.35 119.0 10.1" fill="#000099" fill-rule="evenodd" stroke="none"/>
    <path d="M175.0 7.25 L175.0 2.85 183.15 2.85 Q186.95 2.85 186.95 -0.3 186.95 -3.55 183.15 -3.55 L175.0 -3.55 175.0 -7.4 185.2 -7.4 Q189.05 -7.4 189.05 -10.65 189.05 -13.85 185.2 -13.85 L171.2 -13.85 Q166.2 -13.85 166.2 -8.6 L166.2 8.45 Q166.2 13.7 171.2 13.7 L185.65 13.7 Q189.45 13.7 189.45 10.45 189.45 7.25 185.65 7.25 L175.0 7.25" fill="#000099" fill-rule="evenodd" stroke="none"/>
  </g>
</svg>
