<?xml version="1.0" encoding="UTF-8" standalone="no"?>
<svg xmlns:xlink="http://www.w3.org/1999/xlink" height="517.15px" width="442.85px" xmlns="http://www.w3.org/2000/svg">
  <g transform="matrix(1.0, 0.0, 0.0, 1.0, 220.85, 142.8)">
    <path d="M27.85 -142.8 L29.25 -142.05 29.9 -141.35 29.75 -139.65 29.35 -138.7 27.85 -138.15 Q25.55 -138.45 25.55 -140.45 L25.7 -141.25 26.4 -142.25 27.8 -142.65 27.85 -142.8 M62.05 -74.85 L62.7 -74.05 62.8 -72.3 Q62.75 -70.65 61.55 -69.65 61.1 -69.35 60.65 -69.3 L57.75 -69.35 56.55 -70.25 56.05 -72.0 Q55.65 -73.5 56.55 -74.6 L57.25 -75.4 58.3 -76.1 60.95 -75.8 62.05 -74.85 M143.3 -82.25 L142.9 -81.35 141.45 -80.75 Q138.3 -80.4 137.9 -83.1 L138.1 -83.9 138.8 -84.85 Q139.55 -85.0 140.2 -85.3 L140.25 -85.45 142.8 -84.6 143.5 -84.0 143.3 -82.25 M125.4 -23.55 L126.0 -23.0 Q123.5 -20.85 123.65 -23.5 123.65 -23.75 124.0 -24.0 L125.4 -23.55 M220.75 -113.85 L220.85 -112.1 Q220.8 -110.45 219.6 -109.45 L218.7 -109.1 215.75 -109.15 214.6 -110.05 214.1 -111.8 Q213.7 -113.3 214.6 -114.4 L215.3 -115.2 216.35 -115.9 219.0 -115.6 220.1 -114.65 220.75 -113.85 M191.75 97.2 Q191.2 95.25 192.95 95.15 L193.55 95.15 Q195.25 97.65 192.35 97.6 L191.75 97.2 M173.9 134.95 L173.75 136.65 173.35 137.55 171.85 138.15 Q168.75 138.5 168.35 135.8 L168.55 135.05 169.25 134.05 170.65 133.65 170.7 133.45 173.2 134.3 173.9 134.95 M70.75 26.25 Q71.35 27.35 70.8 28.5 L70.5 29.25 69.95 29.65 69.0 30.0 67.0 28.75 Q66.55 26.65 68.15 25.4 L69.0 25.0 Q69.65 25.25 70.15 25.6 L70.75 26.25 M16.0 76.0 L17.2 76.6 17.75 77.25 17.6 78.7 17.25 79.5 16.0 80.0 Q14.05 79.7 14.0 78.0 14.0 77.6 14.15 77.3 L14.75 76.5 16.0 76.15 16.0 76.0 M73.25 136.1 Q73.9 137.4 73.3 138.75 L72.95 139.6 72.3 140.1 71.2 140.5 68.85 139.05 Q68.3 136.55 70.15 135.15 70.6 134.8 71.2 134.65 L72.55 135.4 73.25 136.1 M22.4 181.45 L23.0 182.0 Q20.5 184.15 20.65 181.5 20.65 181.25 21.0 181.0 21.75 181.1 22.4 181.45 M118.6 212.8 L118.75 213.5 Q117.1 214.8 116.0 213.0 115.5 211.3 117.0 211.25 L117.5 211.25 118.6 212.8 M110.5 290.35 L110.0 290.0 Q109.5 288.3 111.0 288.25 L111.5 288.25 Q113.0 290.35 110.5 290.35 M11.5 247.25 Q13.0 249.35 10.5 249.35 L10.0 249.0 Q9.5 247.3 11.0 247.25 L11.5 247.25 M52.2 345.0 L52.55 345.0 Q53.6 346.5 51.85 346.5 L51.5 346.2 Q51.15 345.05 52.2 345.0 M197.4 226.5 L198.0 227.0 Q196.0 229.4 194.65 226.65 194.3 226.05 195.0 226.0 196.25 226.1 197.4 226.5 M221.4 290.45 L222.0 291.0 Q219.5 293.15 219.65 290.5 219.65 290.25 220.0 290.0 220.75 290.1 221.4 290.45 M166.1 374.35 L165.75 374.1 Q165.4 372.95 166.45 372.85 L166.8 372.85 Q167.85 374.35 166.1 374.35 M-216.8 -129.95 Q-219.15 -127.05 -220.75 -130.3 -221.1 -131.0 -220.3 -131.1 L-217.5 -130.5 -216.8 -129.95 M-162.9 -122.35 Q-163.25 -123.85 -162.35 -124.95 L-161.7 -125.7 -160.6 -126.4 -157.95 -126.15 -156.9 -125.2 -156.2 -124.35 -156.1 -122.6 Q-156.15 -121.0 -157.4 -120.0 L-158.3 -119.65 -161.2 -119.7 -162.35 -120.55 -162.9 -122.35 M-76.3 -108.85 Q-79.3 -106.35 -79.1 -109.4 L-78.65 -110.05 -77.0 -109.5 -76.3 -108.85 M-123.2 -1.75 L-123.4 -0.3 -123.7 0.5 -124.95 1.0 Q-127.6 1.3 -127.95 -1.0 L-127.8 -1.7 -127.2 -2.5 -126.0 -2.85 -125.95 -3.0 -123.8 -2.3 Q-123.45 -2.15 -123.2 -1.75 M-19.85 -76.65 Q-20.55 -76.35 -21.3 -76.1 -23.65 -76.4 -23.65 -78.4 L-23.45 -79.2 -22.75 -80.2 -21.35 -80.6 -21.3 -80.75 Q-20.55 -80.45 -19.95 -80.05 L-19.25 -79.3 -19.45 -77.6 -19.85 -76.65 M-103.05 85.85 L-102.35 84.9 -100.95 84.45 -100.9 84.3 Q-99.6 84.6 -98.4 85.15 L-97.7 85.75 -97.85 87.5 -98.25 88.4 -99.75 89.0 Q-102.85 89.35 -103.25 86.65 L-103.05 85.85 M-42.35 141.65 Q-45.35 144.2 -45.15 141.1 L-44.7 140.5 Q-43.85 140.65 -43.05 141.05 L-42.35 141.65 M-191.05 135.8 Q-190.3 136.1 -189.7 136.55 L-189.0 137.3 -189.2 139.0 -189.6 139.9 -191.05 140.5 Q-193.4 140.2 -193.4 138.15 L-193.2 137.35 -192.5 136.4 -191.1 136.0 -191.05 135.8 M-169.55 200.5 Q-169.2 200.6 -168.95 201.0 -170.95 203.45 -172.35 200.65 -172.65 200.05 -171.95 200.0 L-169.55 200.5 M-204.55 249.45 L-203.95 250.0 Q-206.5 252.15 -206.35 249.5 L-205.95 249.0 Q-205.2 249.1 -204.55 249.45 M-177.4 354.9 Q-177.15 355.0 -176.95 355.25 -178.7 356.8 -178.6 354.95 L-178.35 354.6 -177.4 354.9 M-43.55 228.5 Q-43.2 228.6 -42.95 229.0 -44.95 231.45 -46.35 228.65 -46.65 228.05 -45.95 228.0 L-43.55 228.5 M-119.45 276.35 L-119.95 276.0 Q-120.5 274.3 -118.95 274.25 L-118.45 274.25 Q-117.0 276.35 -119.45 276.35 M-70.1 311.0 L-69.7 311.4 Q-71.45 312.9 -71.35 311.05 L-71.1 310.7 -70.1 311.0 M-23.45 368.8 L-23.0 369.2 Q-24.75 370.7 -24.7 368.85 L-24.4 368.5 -23.45 368.8" fill="#ffffff" fill-rule="evenodd" stroke="none"/>
  </g>
</svg>
