<?xml version="1.0" encoding="UTF-8" standalone="no"?>
<svg xmlns:xlink="http://www.w3.org/1999/xlink" height="107.35px" width="243.1px" xmlns="http://www.w3.org/2000/svg">
  <g transform="matrix(1.0, 0.0, 0.0, 1.0, 122.05, 53.55)">
    <path d="M75.25 15.9 Q79.25 13.7 84.3 13.7 90.3 13.7 94.55 16.65 98.85 19.6 98.85 23.7 98.85 26.3 97.05 28.45 123.75 38.4 120.75 41.35 118.4 43.7 56.25 44.9 L-11.75 45.85 Q-14.4 45.95 -11.9 47.4 L-6.15 50.4 Q-2.9 52.3 -4.4 53.05 L-16.3 53.65 -43.5 52.65 -82.85 50.5 Q-132.3 46.85 -119.4 40.05 -106.95 33.5 -83.75 29.25 -87.15 24.5 -87.15 19.45 -87.15 9.5 -75.35 2.1 -63.7 -5.25 -46.35 -6.45 L-46.65 -10.0 Q-46.65 -19.65 -39.55 -26.6 -32.4 -33.45 -22.4 -33.45 -15.5 -33.45 -9.65 -30.0 -7.55 -40.1 1.3 -46.8 10.25 -53.55 21.95 -53.55 35.3 -53.55 44.65 -45.05 54.1 -36.55 54.1 -24.55 54.1 -13.6 46.05 -5.4 49.15 -4.6 51.15 -2.0 53.2 0.6 53.2 3.9 L53.0 5.65 54.7 5.6 Q62.2 5.6 68.0 8.55 73.7 11.45 75.25 15.9" fill="#e6e8e3" fill-rule="evenodd" stroke="none"/>
    <path d="M36.2 26.2 L36.95 26.2 36.45 25.8 36.2 26.2 M94.3 28.05 Q120.1 37.7 117.15 40.6 114.9 42.9 54.7 44.0 L-11.1 44.9 Q-13.65 45.0 -11.2 46.45 L-5.7 49.35 Q-2.55 51.2 -4.0 51.9 L-15.5 52.45 -41.9 51.5 -79.95 49.45 Q-127.9 45.85 -115.35 39.3 -103.5 33.15 -80.85 28.8 -84.15 24.15 -84.15 19.3 -84.15 9.7 -72.75 2.5 -61.4 -4.65 -44.6 -5.8 L-44.85 -9.2 Q-44.85 -18.6 -38.0 -25.3 -31.15 -31.9 -21.35 -31.9 -14.7 -31.9 -9.1 -28.6 -7.05 -38.45 1.5 -44.9 10.15 -51.4 21.5 -51.4 34.4 -51.4 43.55 -43.25 52.65 -35.0 52.65 -23.35 52.65 -12.7 44.85 -4.75 47.85 -3.95 49.75 -1.5 51.75 1.05 51.75 4.2 L51.6 5.95 53.25 5.9 Q60.5 5.9 66.05 8.75 71.55 11.6 73.1 15.85 76.95 13.75 81.9 13.75 87.7 13.75 91.85 16.6 95.95 19.45 95.95 23.5 95.95 25.9 94.3 28.05" fill="#ffffff" fill-rule="evenodd" stroke="none"/>
    <path d="M-28.9 31.3 Q-36.65 38.85 -55.7 38.55 -84.6 38.1 -82.35 17.2 -74.7 29.75 -54.35 31.15 -34.05 32.5 -21.35 15.35 -23.2 21.7 -24.05 23.75 -25.9 28.4 -28.9 31.3" fill="#e3f0ff" fill-rule="evenodd" stroke="none"/>
    <path d="M73.0 21.4 Q73.0 30.7 58.05 30.7 43.2 30.7 40.0 23.7 65.35 33.0 73.0 21.4" fill="#e3f0ff" fill-rule="evenodd" stroke="none"/>
    <path d="M49.95 -29.65 Q55.4 -9.7 37.75 -3.2 26.9 -0.4 17.4 -6.9 48.6 -1.35 49.95 -29.65" fill="#e3f0ff" fill-rule="evenodd" stroke="none"/>
    <path d="M94.15 24.85 Q91.05 37.05 79.15 37.7 67.25 38.3 58.05 30.7 63.15 33.5 76.0 34.45 88.85 35.45 94.15 24.85" fill="#dcebf5" fill-rule="evenodd" stroke="none"/>
    <path d="M-81.75 32.85 Q-97.4 37.05 -100.85 40.25 -104.3 43.5 -90.25 46.7 -109.95 45.1 -113.4 41.9 -116.8 38.65 -81.75 32.25 L-81.75 32.85" fill="#dcebf5" fill-rule="evenodd" stroke="none"/>
  </g>
</svg>
