<?xml version="1.0" encoding="UTF-8" standalone="no"?>
<svg xmlns:xlink="http://www.w3.org/1999/xlink" height="41.3px" width="32.9px" xmlns="http://www.w3.org/2000/svg">
  <g transform="matrix(1.0, 0.0, 0.0, 1.0, 16.45, 20.65)">
    <path d="M0.6 -15.95 L-1.95 -10.8 0.85 -9.6 3.2 -14.45 0.6 -15.95 M7.6 -6.3 L9.55 -5.35 12.45 -9.0 10.5 -10.55 7.6 -6.3 M5.05 -7.45 L8.35 -12.0 5.7 -13.2 2.85 -8.65 5.05 -7.45 M8.0 -2.05 L5.75 -3.55 2.1 2.0 4.65 3.15 8.0 -2.05 M3.95 -4.6 L1.6 -5.8 -1.8 -0.05 0.7 1.2 3.95 -4.6 M-2.95 -8.25 L-6.25 -1.95 -3.45 -0.6 -0.25 -6.75 -2.95 -8.25 M-1.7 20.65 L-16.45 14.65 -2.55 -20.65 16.45 -9.85 -1.7 20.65" fill="#33cccc" fill-rule="evenodd" stroke="none"/>
    <path d="M0.6 -15.95 L3.2 -14.45 0.85 -9.6 -1.95 -10.8 0.6 -15.95 M3.95 -4.6 L0.7 1.2 -1.8 -0.05 1.6 -5.8 3.95 -4.6 M8.0 -2.05 L4.65 3.15 2.1 2.0 5.75 -3.55 8.0 -2.05 M5.05 -7.45 L2.85 -8.65 5.7 -13.2 8.35 -12.0 5.05 -7.45 M7.6 -6.3 L10.5 -10.55 12.45 -9.0 9.55 -5.35 7.6 -6.3 M-2.95 -8.25 L-0.25 -6.75 -3.45 -0.6 -6.25 -1.95 -2.95 -8.25" fill="#99ffff" fill-rule="evenodd" stroke="none"/>
    <path d="M0.6 9.85 L-1.4 8.75 1.2 4.65 3.6 5.7 0.6 9.85 M-3.35 2.65 L-0.85 4.0 -2.45 8.4 -5.15 7.3 -3.35 2.65 M-9.2 5.35 L-6.9 0.65 -4.55 2.05 -6.7 6.45 -9.2 5.35" fill="#99ffff" fill-rule="evenodd" stroke="none"/>
  </g>
</svg>
