<?xml version="1.0" encoding="UTF-8" standalone="no"?>
<svg xmlns:xlink="http://www.w3.org/1999/xlink" height="70.45px" width="326.2px" xmlns="http://www.w3.org/2000/svg">
  <g transform="matrix(1.0, 0.0, 0.0, 1.0, 163.1, 34.9)">
    <path d="M5.6 -29.3 Q15.9 -33.7 27.05 -32.25 38.45 -30.4 49.2 -26.9 L51.7 -26.1 Q83.0 -15.65 120.1 8.1 139.55 20.5 163.1 26.45 L40.95 30.85 -65.1 35.55 -163.1 27.55 Q-118.8 -2.75 -83.0 -17.9 -46.5 -33.35 -31.8 -34.2 L-16.8 -34.85 -10.45 -33.8 Q-4.45 -32.95 -0.15 -30.4 4.15 -27.85 3.7 -28.5 L5.6 -29.3" fill="#006600" fill-rule="evenodd" stroke="none"/>
    <path d="M4.55 -30.15 Q4.8 -30.25 5.75 -29.75 6.65 -29.3 7.15 -28.7 L7.9 -28.05 8.95 -26.85 9.3 -26.35 10.1 -25.15 Q11.25 -23.15 12.2 -20.6 13.2 -17.8 14.4 -13.05 15.6 -8.35 15.5 3.4 L6.65 3.75 7.0 -6.95 6.05 -17.0 5.4 -21.05 4.1 -24.75 2.35 -27.95 1.6 -29.15 2.3 -29.5 3.6 -29.9 4.55 -30.15 M3.9 -29.0 L3.45 -29.35 3.35 -29.3 3.9 -29.0 M5.25 -27.35 L5.25 -27.4 5.2 -27.35 5.25 -27.35 M5.8 -27.65 L5.75 -27.6 5.8 -27.6 5.8 -27.65 M7.2 -24.15 L7.55 -23.15 7.6 -23.15 7.2 -24.15 M7.8 -23.6 L7.95 -23.3 7.8 -23.65 7.8 -23.6 M10.1 -16.95 L10.15 -17.0 10.1 -17.05 10.0 -17.3 10.05 -17.05 10.1 -16.95" fill="#ade3d9" fill-rule="evenodd" stroke="none"/>
  </g>
</svg>
