<?xml version="1.0" encoding="UTF-8" standalone="no"?>
<svg xmlns:xlink="http://www.w3.org/1999/xlink" height="98.55px" width="504.7px" xmlns="http://www.w3.org/2000/svg">
  <g transform="matrix(1.0, 0.0, 0.0, 1.0, 252.35, 49.25)">
    <path d="M252.35 -7.65 L252.35 25.55 244.1 28.4 Q220.2 36.1 192.5 39.1 168.3 41.65 143.45 40.5 121.55 39.45 103.15 35.8 86.35 32.4 68.15 33.0 53.15 33.5 36.5 36.8 24.95 39.05 9.5 43.45 L-1.85 46.7 -11.6 49.3 -252.35 9.9 Q-193.5 -17.1 -137.6 -31.35 -76.65 -46.9 -13.45 -48.95 53.6 -51.15 127.4 -38.3 186.6 -28.0 252.35 -7.65" fill="#009900" fill-rule="evenodd" stroke="none"/>
    <path d="M31.1 -48.85 L37.7 -48.4 Q29.1 -31.1 39.8 -21.0 47.8 -13.5 66.0 -10.2 52.45 -5.45 44.2 -1.95 37.0 -7.25 32.8 -11.6 27.95 -16.7 25.95 -21.8 23.75 -27.4 24.65 -33.65 25.55 -40.2 31.1 -48.85 M32.0 -43.45 L31.9 -42.65 32.4 -44.1 32.15 -44.3 32.0 -43.45 M30.7 -36.9 L30.6 -36.85 30.65 -36.75 30.7 -36.9 M48.15 -8.6 L48.05 -8.65 48.15 -8.6" fill="#ade3d9" fill-rule="evenodd" stroke="none"/>
  </g>
</svg>
