<?xml version="1.0" encoding="UTF-8" standalone="no"?>
<svg xmlns:xlink="http://www.w3.org/1999/xlink" height="50.0px" width="123.65px" xmlns="http://www.w3.org/2000/svg">
  <g transform="matrix(1.0, 0.0, 0.0, 1.0, 61.8, 25.0)">
    <path d="M-19.9 -5.55 L-19.95 -6.05 Q-19.95 -13.9 -8.95 -19.45 2.1 -25.0 17.65 -25.0 33.2 -25.0 44.2 -19.45 55.2 -13.9 55.2 -6.05 55.2 -0.7 49.75 3.8 57.45 6.95 57.45 11.65 57.45 13.65 56.0 15.3 L54.4 14.7 Q56.05 12.9 56.05 10.9 56.05 6.45 48.75 3.45 53.95 -0.8 53.95 -5.95 53.95 -13.4 43.5 -18.7 33.0 -24.0 18.2 -24.0 3.4 -24.0 -7.05 -18.7 -17.5 -13.4 -17.5 -5.95 L-17.45 -4.8 -19.9 -5.55 M59.35 17.2 L60.85 18.2 Q63.6 20.45 58.75 21.8 51.85 23.7 25.05 24.6 -3.35 25.55 -25.45 24.2 -48.35 22.8 -57.95 19.8 -63.05 18.25 -61.4 16.7 -59.85 15.2 -52.15 13.9 -55.9 14.8 -56.95 15.75 -58.5 17.25 -53.7 18.75 -44.55 21.6 -22.8 22.9 -1.75 24.2 25.25 23.25 50.7 22.4 57.3 20.6 61.9 19.3 59.35 17.2 M-49.6 13.35 Q-53.7 10.05 -53.7 5.9 -53.7 0.65 -47.25 -3.05 -40.75 -6.8 -31.65 -6.8 L-28.1 -6.65 -28.65 -6.65 Q-37.35 -6.65 -43.45 -3.1 -49.6 0.45 -49.6 5.45 -49.6 9.0 -46.35 11.95 L-45.65 12.7 -49.6 13.35" fill="#dee1e6" fill-rule="evenodd" stroke="none"/>
    <path d="M-19.9 -5.55 L-17.45 -4.8 -17.5 -5.95 Q-17.5 -13.4 -7.05 -18.7 3.4 -24.0 18.2 -24.0 33.0 -24.0 43.5 -18.7 53.95 -13.4 53.95 -5.95 53.95 -0.8 48.75 3.45 56.05 6.45 56.05 10.9 56.05 12.9 54.4 14.7 L56.0 15.3 Q58.15 16.2 59.3 17.15 L59.35 17.2 Q61.9 19.3 57.3 20.6 50.7 22.4 25.25 23.25 -1.75 24.2 -22.8 22.9 -44.55 21.6 -53.7 18.75 -58.5 17.25 -56.95 15.75 -55.9 14.8 -52.15 13.9 L-49.6 13.35 -45.65 12.7 Q-41.35 16.55 -29.5 17.6 -17.5 17.6 -12.8 12.15 -44.25 16.6 -47.35 3.75 -49.2 8.7 -46.35 11.95 -49.6 9.0 -49.6 5.45 -49.6 0.45 -43.45 -3.1 -37.35 -6.65 -28.65 -6.65 L-28.1 -6.65 Q-23.7 -6.6 -19.9 -5.55 M18.6 9.9 Q24.55 16.2 35.55 17.6 43.6 18.6 48.0 16.75 51.05 15.4 53.05 12.15 55.2 8.7 50.5 7.2 49.7 23.85 20.05 9.9 31.4 9.75 44.95 2.25 21.4 13.15 -7.25 -3.7 3.85 9.45 18.6 9.9" fill="#ffffff" fill-rule="evenodd" stroke="none"/>
    <path d="M-46.35 11.95 Q-49.2 8.7 -47.35 3.75 -44.25 16.6 -12.8 12.15 -17.5 17.6 -29.5 17.6 -41.35 16.55 -45.65 12.7 L-46.35 11.95 M20.05 9.9 Q49.7 23.85 50.5 7.2 55.2 8.7 53.05 12.15 51.05 15.4 48.0 16.75 43.6 18.6 35.55 17.6 24.55 16.2 18.6 9.9 L17.55 8.7 20.05 9.9" fill="#d2e3e6" fill-rule="evenodd" stroke="none"/>
    <path d="M18.6 9.9 Q3.85 9.45 -7.25 -3.7 21.4 13.15 44.95 2.25 31.4 9.75 20.05 9.9 L17.55 8.7 18.6 9.9" fill="#e3f0ff" fill-rule="evenodd" stroke="none"/>
  </g>
</svg>
