<?xml version="1.0" encoding="UTF-8" standalone="no"?>
<svg xmlns:xlink="http://www.w3.org/1999/xlink" height="17.95px" width="205.5px" xmlns="http://www.w3.org/2000/svg">
  <g transform="matrix(1.0, 0.0, 0.0, 1.0, 166.6, -76.75)">
    <path d="M24.25 94.7 L24.15 94.7 18.35 94.7 11.85 94.6 8.7 94.35 -0.95 92.55 -126.45 92.55 -135.4 94.35 -138.6 94.6 -144.95 94.7 -150.85 94.7 -150.95 94.7 -150.7 94.7 -150.85 94.6 -150.7 94.6 -149.8 92.55 -166.6 92.55 -136.85 76.75 7.2 76.75 38.9 92.55 23.2 92.55 24.15 94.6 24.15 94.7 24.25 94.7 24.25 94.6 24.8 94.7 24.25 94.7 M11.75 94.7 L9.7 94.7 9.25 94.6 11.75 94.7 M-135.95 94.6 L-136.4 94.7 -138.45 94.7 -135.95 94.6 M-151.5 94.7 L-150.85 94.6 -150.85 94.7 -151.5 94.7" fill="#006600" fill-rule="evenodd" stroke="none"/>
  </g>
</svg>
