<?xml version="1.0" encoding="UTF-8" standalone="no"?>
<svg xmlns:xlink="http://www.w3.org/1999/xlink" height="30.75px" width="30.75px" xmlns="http://www.w3.org/2000/svg">
  <g transform="matrix(1.0, 0.0, 0.0, 1.0, 10.25, 10.25)">
    <use height="20.5" transform="matrix(1.0, 0.0, 0.0, 1.0, 0.0, 0.0)" width="20.5" xlink:href="#shape0"/>
    <use height="13.9" transform="matrix(1.0, 0.0, 0.0, 1.0, 6.8, 3.5)" width="5.75" xlink:href="#shape1"/>
  </g>
  <defs>
    <g id="shape0" transform="matrix(1.0, 0.0, 0.0, 1.0, 10.25, 10.25)">
      <path d="M10.25 -8.0 L10.25 7.95 Q10.25 8.85 9.6 9.55 8.85 10.2 8.0 10.25 L-7.95 10.25 Q-8.9 10.2 -9.55 9.55 -10.25 8.85 -10.25 7.95 L-10.25 -8.0 Q-10.25 -8.95 -9.55 -9.55 -8.9 -10.3 -7.95 -10.25 L7.95 -10.25 Q8.85 -10.3 9.6 -9.55 10.25 -8.95 10.25 -8.0 M9.75 7.95 L9.75 -8.0 Q9.75 -8.75 9.25 -9.2 8.65 -9.8 8.0 -9.75 L-7.95 -9.75 Q-8.7 -9.8 -9.2 -9.2 -9.75 -8.75 -9.75 -8.0 L-9.75 7.95 Q-9.75 8.65 -9.2 9.2 -8.7 9.7 -7.95 9.75 L7.95 9.75 9.25 9.2 Q9.75 8.65 9.75 7.95" fill="url(#gradient0)" fill-rule="evenodd" stroke="none"/>
      <path d="M9.75 7.95 Q9.75 8.65 9.25 9.2 L7.95 9.75 -7.95 9.75 Q-8.7 9.7 -9.2 9.2 -9.75 8.65 -9.75 7.95 L-9.75 -8.0 Q-9.75 -8.75 -9.2 -9.2 -8.7 -9.8 -7.95 -9.75 L8.0 -9.75 Q8.65 -9.8 9.25 -9.2 9.75 -8.75 9.75 -8.0 L9.75 7.95" fill="url(#gradient1)" fill-rule="evenodd" stroke="none"/>
    </g>
    <linearGradient gradientTransform="matrix(0.0018, 0.0018, -0.7071, 0.7071, 22.5, -22.65)" gradientUnits="userSpaceOnUse" id="gradient0" spreadMethod="pad" x1="-819.2" x2="819.2">
      <stop offset="0.0" stop-color="#fff5b4"/>
      <stop offset="1.0" stop-color="#f1ca26"/>
    </linearGradient>
    <radialGradient cx="0" cy="0" gradientTransform="matrix(0.0125, 0.0, 0.0, 0.0125, 0.15, 0.4)" gradientUnits="userSpaceOnUse" id="gradient1" r="819.2" spreadMethod="pad">
      <stop offset="0.0" stop-color="#fff381"/>
      <stop offset="1.0" stop-color="#ffdf51"/>
    </radialGradient>
    <g id="shape1" transform="matrix(1.0, 0.0, 0.0, 1.0, 3.45, 6.75)">
      <path d="M2.3 7.15 L-1.6 7.15 -1.6 -2.5 -3.45 -2.5 -3.45 -3.8 0.8 -6.75 2.3 -6.75 2.3 7.15" fill="#e8a44d" fill-rule="evenodd" stroke="none"/>
    </g>
  </defs>
</svg>
