<?xml version="1.0" encoding="UTF-8" standalone="no"?>
<svg xmlns:xlink="http://www.w3.org/1999/xlink" height="18.9px" width="21.15px" xmlns="http://www.w3.org/2000/svg">
  <g transform="matrix(1.0, 0.0, 0.0, 1.0, 10.55, 9.45)">
    <use height="18.9" transform="matrix(1.0, 0.0, 0.0, 1.0, -10.55, -9.45)" width="21.15" xlink:href="#shape0"/>
  </g>
  <defs>
    <g id="shape0" transform="matrix(1.0, 0.0, 0.0, 1.0, 10.55, 9.45)">
      <path d="M-6.7 -9.4 L-6.65 -9.4 -6.6 -9.45 -6.55 -9.4 -6.5 -9.4 -6.45 -9.35 -6.45 -9.3 Q-4.35 -7.35 -1.7 -6.3 L-0.35 -5.7 -0.3 -5.7 -0.25 -5.65 -0.15 -5.55 -0.2 -5.45 -0.2 -4.75 -0.15 -4.7 Q1.85 -2.6 3.1 0.0 L3.5 -0.05 Q4.9 0.0 5.3 1.2 6.6 1.55 7.75 2.5 L8.45 3.3 8.55 3.4 Q10.25 4.9 10.45 7.2 10.85 8.25 10.15 9.25 L9.55 9.4 Q8.85 9.15 8.45 8.55 L7.85 7.7 7.8 7.55 7.2 6.7 7.15 6.5 6.45 5.8 7.3 7.9 7.3 8.5 Q6.1 9.55 5.2 8.3 L4.8 7.85 4.2 6.85 4.0 6.65 Q3.25 4.9 1.75 3.7 L1.7 3.6 Q0.1 4.0 -1.1 2.85 -1.55 2.4 -1.5 1.8 -1.5 1.05 -0.75 0.85 L0.35 1.0 -2.35 -1.3 -2.35 -1.35 Q-3.15 -0.6 -4.05 0.0 L-4.05 0.05 -4.1 0.15 -4.25 0.25 -4.4 0.15 Q-6.45 -1.25 -8.2 -3.1 -9.65 -4.6 -10.45 -6.5 -10.85 -7.55 -9.95 -8.35 -8.65 -9.45 -6.95 -9.45 L-6.7 -9.4 M-6.85 -9.0 L-8.0 -8.8 -9.3 -8.3 -10.0 -7.55 -10.2 -7.25 Q-9.75 -5.35 -8.4 -3.9 L-7.5 -2.9 -4.4 -0.3 -4.2 -0.15 Q-1.75 -1.95 -0.9 -4.1 -0.65 -4.75 -0.55 -5.35 L-0.55 -5.45 Q-3.5 -6.35 -5.95 -8.25 L-6.5 -8.8 -6.7 -9.05 -6.85 -9.0 M-0.2 -5.55 L-0.2 -5.45 -0.2 -5.55 M0.15 -3.85 L-0.3 -4.4 -0.4 -4.3 -0.95 -3.1 -2.1 -1.6 0.05 0.3 1.0 1.15 1.0 1.05 Q1.75 0.35 2.7 0.1 L2.6 -0.1 2.55 -0.3 2.1 -1.1 0.15 -3.85 M9.75 5.7 L9.7 5.65 9.5 5.25 8.7 4.1 8.65 4.1 7.35 2.8 7.4 2.95 6.85 2.4 Q5.95 1.75 4.95 1.5 4.1 1.25 3.2 1.5 L1.8 1.55 1.7 1.55 1.25 1.55 1.05 1.55 1.0 1.6 0.95 1.55 -0.2 1.35 Q-1.15 1.1 -1.1 1.95 L-0.85 2.65 -0.8 2.7 -0.5 3.0 2.15 3.2 2.2 3.2 2.25 3.25 2.25 3.3 2.25 3.4 2.2 3.45 2.15 3.5 Q3.2 4.45 3.85 5.7 4.7 7.35 6.05 8.45 L6.1 8.5 6.9 8.35 7.0 8.1 7.0 8.05 6.9 7.8 6.85 7.7 6.8 7.7 6.8 7.65 6.3 6.45 6.1 6.0 5.85 5.15 5.95 4.9 6.0 4.65 6.05 4.85 6.1 4.9 6.1 4.95 6.25 5.35 6.35 5.3 6.45 5.35 Q7.8 6.6 8.65 8.2 L8.75 8.35 8.8 8.45 9.7 9.05 9.95 8.85 10.05 8.65 10.1 7.7 Q9.9 6.65 8.9 5.4 L8.5 4.9 8.5 4.85 8.55 4.85 8.6 4.8 9.3 5.4 9.85 6.15 9.75 5.7 M2.95 0.4 L2.85 0.4 Q2.0 0.6 1.4 1.25 L1.45 1.25 1.45 1.2 2.5 1.15 2.9 1.05 2.85 1.1 3.55 1.0 3.8 0.95 4.8 1.1 4.75 1.0 4.75 0.95 Q4.25 0.5 3.55 0.45 L3.15 0.4 2.95 0.4 M4.0 0.4 L4.3 0.55 3.8 0.35 4.0 0.4" fill="#000000" fill-rule="evenodd" stroke="none"/>
      <path d="M-6.5 -8.8 L-6.8 -9.0 -6.85 -9.0 -6.7 -9.05 -6.5 -8.8" fill="#4d0000" fill-rule="evenodd" stroke="none"/>
      <path d="M-6.5 -8.8 L-5.95 -8.25 Q-3.5 -6.35 -0.55 -5.45 L-0.55 -5.35 Q-0.65 -4.75 -0.9 -4.1 -1.75 -1.95 -4.2 -0.15 L-4.4 -0.3 -7.5 -2.9 -8.4 -3.9 Q-9.75 -5.35 -10.2 -7.25 L-10.0 -7.55 -9.3 -8.3 -8.0 -8.8 -6.85 -9.0 -6.8 -9.0 -6.5 -8.8" fill="#a10095" fill-rule="evenodd" stroke="none"/>
      <path d="M0.15 -3.85 L0.65 -3.25 Q-0.55 -1.55 0.05 0.3 L-2.1 -1.6 -0.95 -3.1 -0.4 -4.3 -0.3 -4.4 0.15 -3.85" fill="#ce66f9" fill-rule="evenodd" stroke="none"/>
      <path d="M0.65 -3.25 L0.15 -3.85 2.1 -1.1 0.65 -3.25" fill="#550022" fill-rule="evenodd" stroke="none"/>
      <path d="M6.1 4.95 L6.1 4.9 6.05 4.85 6.0 4.65 5.95 4.9 5.85 5.15 6.1 6.0 6.3 6.45 6.8 7.65 6.8 7.7 6.85 7.7 6.9 7.8 7.0 8.05 7.0 8.1 6.9 8.35 6.1 8.5 6.05 8.45 Q4.7 7.35 3.85 5.7 3.2 4.45 2.15 3.5 L2.2 3.45 2.25 3.4 2.25 3.3 2.25 3.25 2.2 3.2 2.15 3.2 -0.5 3.0 -0.8 2.7 -0.85 2.65 -1.1 1.95 Q-1.15 1.1 -0.2 1.35 L0.95 1.55 1.0 1.6 1.05 1.55 1.25 1.55 1.7 1.55 1.8 1.55 3.2 1.5 Q4.1 1.25 4.95 1.5 5.95 1.75 6.85 2.4 L7.4 2.95 7.35 2.8 8.65 4.1 8.7 4.1 9.5 5.25 9.7 5.65 9.75 5.7 9.3 5.4 8.6 4.8 8.55 4.85 8.5 4.85 8.5 4.9 8.9 5.4 Q9.9 6.65 10.1 7.7 L10.05 8.65 10.1 8.15 9.7 8.45 Q8.9 8.55 7.55 6.3 7.1 5.5 6.1 4.95 M2.9 1.05 L2.5 1.15 1.45 1.2 1.45 1.25 1.4 1.25 Q2.0 0.6 2.85 0.4 L2.95 0.4 3.4 0.75 2.9 1.05" fill="#ffffff" fill-rule="evenodd" stroke="none"/>
      <path d="M0.05 0.3 Q-0.55 -1.55 0.65 -3.25 L2.1 -1.1 2.55 -0.3 2.6 -0.1 2.7 0.1 Q1.75 0.35 1.0 1.05 L1.0 1.15 0.05 0.3" fill="#d885fd" fill-rule="evenodd" stroke="none"/>
      <path d="M6.1 4.95 Q7.1 5.5 7.55 6.3 8.9 8.55 9.7 8.45 L10.1 8.15 10.05 8.65 9.95 8.85 9.7 9.05 8.8 8.45 8.75 8.35 8.65 8.2 Q7.8 6.6 6.45 5.35 L6.35 5.3 6.25 5.35 6.1 4.95 M9.3 5.4 L9.75 5.7 9.85 6.15 9.3 5.4 M2.9 1.05 L3.4 0.75 2.95 0.4 3.15 0.4 3.55 0.45 Q4.25 0.5 4.75 0.95 L4.75 1.0 4.8 1.1 3.8 0.95 3.55 1.0 2.85 1.1 2.9 1.05" fill="#dedede" fill-rule="evenodd" stroke="none"/>
    </g>
  </defs>
</svg>
