<?xml version="1.0" encoding="UTF-8" standalone="no"?>
<svg xmlns:xlink="http://www.w3.org/1999/xlink" height="255.95px" width="320.0px" xmlns="http://www.w3.org/2000/svg">
  <g transform="matrix(1.0, 0.0, 0.0, 1.0, 0.0, 0.0)">
    <use height="11.15" transform="matrix(1.0, 0.0, 0.0, 1.0, 100.9, 124.4)" width="117.95" xlink:href="#shape0"/>
    <use height="256.0" id="bg" transform="matrix(1.0, 0.0, 0.0, 0.9375, 0.0, 0.0)" width="320.0" xlink:href="#sprite0"/>
    <use height="240.0" id="mold" transform="matrix(1.0, 0.0, 0.0, 1.0, 0.0, 0.0)" width="320.0" xlink:href="#sprite1"/>
    <use height="16.0" id="controller" transform="matrix(1.0, 0.0, 0.0, 1.0, 0.0, 239.95)" width="320.0" xlink:href="#sprite2"/>
    <use height="54.25" id="process" transform="matrix(1.0, 0.0, 0.0, 1.0, 135.3, 96.1)" width="54.25" xlink:href="#sprite10"/>
    <use height="17.35" id="load_txt" transform="matrix(1.0, 0.0, 0.0, 1.0, 166.25, 222.0)" width="153.05" xlink:href="#text0"/>
  </g>
  <defs>
    <g id="shape0" transform="matrix(1.0, 0.0, 0.0, 1.0, -100.9, -124.4)">
      <path d="M215.25 126.8 L216.3 126.8 216.3 127.6 215.25 127.6 215.25 131.25 215.3 131.8 215.45 132.0 215.85 132.1 216.3 132.05 216.45 133.0 215.65 133.1 214.75 132.9 214.3 132.45 214.2 131.2 214.2 127.6 213.4 127.6 213.4 126.8 214.2 126.8 214.2 125.25 215.25 124.6 215.25 126.8 M217.65 131.8 L218.85 131.8 218.85 133.0 217.65 133.0 217.65 131.8 M212.4 126.8 L212.4 133.0 211.35 133.0 211.35 126.8 212.4 126.8 M211.35 125.6 L211.35 124.4 212.4 124.4 212.4 125.6 211.35 125.6 M208.65 128.8 Q208.65 128.15 208.35 127.85 207.95 127.5 207.15 127.5 206.45 127.5 206.05 127.75 205.7 128.05 205.55 128.7 L204.5 128.55 Q204.65 127.9 205.0 127.5 205.3 127.1 205.9 126.85 L207.3 126.65 208.6 126.8 Q209.1 127.0 209.35 127.3 L209.7 128.0 209.75 129.0 209.75 130.4 209.8 132.25 210.05 133.0 208.95 133.0 208.75 132.25 207.65 132.95 206.45 133.15 Q205.45 133.15 204.9 132.65 204.35 132.15 204.35 131.35 L204.55 130.55 Q204.75 130.15 205.1 129.9 L205.85 129.55 206.8 129.4 208.65 129.05 208.65 128.8 M203.75 124.4 L201.4 133.0 200.3 133.0 198.5 126.45 198.2 125.45 197.95 126.45 196.15 133.0 195.0 133.0 192.7 124.4 193.85 124.4 195.15 130.05 195.55 131.8 195.9 130.2 197.55 124.4 198.95 124.4 200.15 128.75 200.8 131.8 201.25 129.95 202.6 124.4 203.75 124.4 M206.7 132.3 L207.8 132.05 208.5 131.3 208.65 130.25 208.65 129.9 206.95 130.3 206.0 130.5 205.6 130.85 Q205.45 131.05 205.45 131.35 205.45 131.75 205.8 132.05 L206.7 132.3 M179.4 126.65 L180.7 126.85 Q181.25 127.05 181.5 127.4 L181.85 128.4 180.8 128.5 180.4 127.75 Q180.1 127.5 179.45 127.5 L178.45 127.75 Q178.1 128.0 178.1 128.3 178.1 128.5 178.25 128.7 L178.65 128.95 179.6 129.25 181.15 129.7 181.85 130.25 182.1 131.15 181.8 132.15 180.9 132.9 179.6 133.15 Q178.35 133.15 177.75 132.65 177.1 132.15 176.9 131.15 L177.95 131.0 Q178.05 131.6 178.45 131.95 L179.55 132.25 180.65 132.0 181.0 131.3 180.7 130.7 179.6 130.35 178.0 129.85 177.35 129.25 177.1 128.45 177.3 127.65 177.8 127.05 178.5 126.75 179.4 126.65 M175.7 128.0 L175.75 129.0 175.75 130.4 175.8 132.25 176.05 133.0 174.95 133.0 174.75 132.25 173.65 132.95 172.45 133.15 Q171.45 133.15 170.9 132.65 170.35 132.15 170.35 131.35 L170.55 130.55 Q170.75 130.15 171.1 129.9 171.4 129.7 171.85 129.55 L172.8 129.4 174.65 129.05 174.65 128.8 Q174.65 128.15 174.35 127.85 173.95 127.5 173.15 127.5 L172.05 127.75 Q171.7 128.05 171.55 128.7 L170.5 128.55 171.0 127.5 171.9 126.85 173.3 126.65 174.6 126.8 Q175.1 127.0 175.35 127.3 L175.7 128.0 M173.8 132.05 L174.5 131.3 174.65 130.25 174.65 129.9 172.95 130.3 172.0 130.5 171.6 130.85 Q171.45 131.05 171.45 131.35 171.45 131.75 171.8 132.05 L172.7 132.3 173.8 132.05 M169.45 129.9 L169.4 130.15 164.8 130.15 Q164.85 131.2 165.35 131.75 165.9 132.25 166.65 132.25 L167.65 131.95 168.3 131.0 169.4 131.15 Q169.15 132.1 168.45 132.6 167.75 133.15 166.65 133.15 165.3 133.15 164.5 132.3 163.7 131.45 163.7 129.95 163.7 128.35 164.5 127.5 165.3 126.65 166.6 126.65 167.85 126.65 168.65 127.5 169.45 128.35 169.45 129.9 M167.9 128.1 Q167.4 127.5 166.6 127.5 165.9 127.5 165.4 128.0 164.9 128.5 164.85 129.3 L168.3 129.3 167.9 128.1 M162.4 133.0 L161.35 133.0 161.35 124.4 162.4 124.4 162.4 133.0 M188.75 129.9 L188.7 130.15 184.1 130.15 Q184.15 131.2 184.65 131.75 185.2 132.25 185.95 132.25 L186.95 131.95 187.6 131.0 188.7 131.15 Q188.45 132.1 187.75 132.6 187.05 133.15 185.95 133.15 184.6 133.15 183.8 132.3 183.0 131.45 183.0 129.95 183.0 128.35 183.8 127.5 184.6 126.65 185.9 126.65 187.15 126.65 187.95 127.5 188.75 128.35 188.75 129.9 M184.15 129.3 L187.6 129.3 187.2 128.1 Q186.7 127.5 185.9 127.5 185.2 127.5 184.7 128.0 184.2 128.5 184.15 129.3 M139.0 126.65 Q140.1 126.65 140.8 127.55 L140.8 126.8 141.75 126.8 141.75 132.15 141.5 134.2 140.55 135.15 138.95 135.55 Q137.85 135.55 137.15 135.05 136.45 134.5 136.5 133.5 L137.5 133.65 137.9 134.35 138.95 134.65 140.1 134.35 140.6 133.55 140.7 132.2 Q140.0 133.0 139.0 133.0 137.7 133.0 137.0 132.05 136.3 131.15 136.3 129.85 136.3 128.95 136.6 128.2 136.95 127.45 137.55 127.05 138.15 126.65 139.0 126.65 M140.3 128.1 Q139.75 127.5 139.05 127.5 138.35 127.5 137.85 128.1 137.35 128.65 137.35 129.8 137.35 131.0 137.85 131.55 138.35 132.15 139.1 132.15 139.8 132.15 140.3 131.55 140.8 131.0 140.8 129.8 140.8 128.65 140.3 128.1 M132.75 127.55 Q132.05 127.55 131.6 128.0 131.1 128.4 131.1 129.6 L131.1 133.0 130.05 133.0 130.05 126.8 131.0 126.8 131.0 127.65 Q131.7 126.65 132.95 126.65 L134.0 126.85 134.7 127.35 135.05 128.15 135.1 129.15 135.1 133.0 134.05 133.0 134.05 129.2 133.9 128.25 133.5 127.75 132.75 127.55 M128.45 126.8 L128.45 133.0 127.4 133.0 127.4 126.8 128.45 126.8 M127.4 125.6 L127.4 124.4 128.45 124.4 128.45 125.6 127.4 125.6 M121.9 128.1 Q121.45 128.65 121.45 129.9 121.45 131.1 121.95 131.7 122.45 132.25 123.15 132.25 123.85 132.25 124.3 131.7 124.8 131.15 124.8 130.0 124.8 128.7 124.3 128.1 123.8 127.5 123.1 127.5 122.4 127.5 121.9 128.1 M123.0 126.65 L124.0 126.9 124.7 127.5 124.7 124.4 125.75 124.4 125.75 133.0 124.8 133.0 124.8 132.2 Q124.2 133.15 123.05 133.15 122.3 133.15 121.65 132.75 L120.7 131.6 Q120.35 130.85 120.35 129.9 120.35 128.95 120.65 128.2 121.0 127.45 121.6 127.05 122.2 126.65 123.0 126.65 M159.4 128.75 Q158.7 129.5 156.85 129.5 L154.65 129.5 154.65 133.0 153.55 133.0 153.55 124.4 156.75 124.4 158.05 124.5 159.15 124.9 159.8 125.7 160.1 126.9 Q160.1 128.0 159.4 128.75 M158.9 126.95 L158.65 126.0 Q158.35 125.6 157.9 125.5 L156.85 125.4 154.65 125.4 154.65 128.5 156.9 128.5 Q158.0 128.5 158.45 128.1 L158.9 126.95 M143.65 133.0 L143.65 131.8 144.85 131.8 144.85 133.0 143.65 133.0 M147.0 133.0 L147.0 131.8 148.2 131.8 148.2 133.0 147.0 133.0 M150.35 131.8 L151.55 131.8 151.55 133.0 150.35 133.0 150.35 131.8 M100.9 124.4 L102.0 124.4 102.0 132.0 106.25 132.0 106.25 133.0 100.9 133.0 100.9 124.4 M119.15 129.0 L119.15 130.4 119.2 132.25 119.45 133.0 118.35 133.0 118.15 132.25 117.05 132.95 115.85 133.15 Q114.85 133.15 114.3 132.65 113.75 132.15 113.75 131.35 L113.95 130.55 Q114.15 130.15 114.5 129.9 114.8 129.7 115.25 129.55 L116.2 129.4 118.05 129.05 118.05 128.8 117.75 127.85 Q117.35 127.5 116.55 127.5 L115.45 127.75 Q115.1 128.05 114.95 128.7 L113.9 128.55 Q114.05 127.9 114.4 127.5 L115.3 126.85 116.7 126.65 118.0 126.8 Q118.5 127.0 118.75 127.3 L119.1 128.0 119.15 129.0 M112.9 129.8 Q112.9 131.0 112.5 131.7 L111.45 132.75 Q110.8 133.15 109.95 133.15 108.65 133.15 107.85 132.3 107.05 131.45 107.05 129.9 107.05 128.15 108.0 127.35 108.8 126.65 109.95 126.65 111.25 126.65 112.05 127.5 112.9 128.3 112.9 129.8 M115.2 132.05 L116.1 132.3 117.2 132.05 117.9 131.3 118.05 130.25 118.05 129.9 116.35 130.3 115.4 130.5 115.0 130.85 Q114.85 131.05 114.85 131.35 114.85 131.75 115.2 132.05 M108.15 129.9 Q108.15 131.1 108.65 131.7 109.2 132.25 109.95 132.25 110.75 132.25 111.25 131.7 111.8 131.1 111.8 129.85 111.8 128.7 111.25 128.1 110.75 127.5 109.95 127.5 109.2 127.5 108.65 128.1 108.15 128.7 108.15 129.9" fill="#000000" fill-rule="evenodd" stroke="none"/>
    </g>
    <g id="sprite0" transform="matrix(1.0, 0.0, 0.0, 1.0, 0.0, 0.0)">
      <use height="500.0" transform="matrix(0.64, 0.0, 0.0, 0.512, 2.0E-4, 0.0016)" width="500.0" xlink:href="#shape1"/>
    </g>
    <g id="shape1" transform="matrix(1.0, 0.0, 0.0, 1.0, 250.0, 250.0)">
      <path d="M-250.0 -250.0 L250.0 -250.0 250.0 250.0 -250.0 250.0 -250.0 -250.0" fill="#000000" fill-rule="evenodd" stroke="none"/>
    </g>
    <g id="sprite1" transform="matrix(1.0, 0.0, 0.0, 1.0, 0.0, 0.0)">
      <use height="240.0" transform="matrix(1.0, 0.0, 0.0, 1.0, 0.0, 0.0)" width="320.0" xlink:href="#shape2"/>
    </g>
    <g id="shape2" transform="matrix(1.0, 0.0, 0.0, 1.0, 0.0, 0.0)">
      <path d="M0.0 240.0 L0.0 0.0 320.0 0.0 320.0 240.0 0.0 240.0" fill="#00ff00" fill-rule="evenodd" stroke="none"/>
    </g>
    <g id="sprite2" transform="matrix(1.0, 0.0, 0.0, 1.0, 160.0, 8.0)">
      <use height="16.0" transform="matrix(1.0, 0.0, 0.0, 1.0, -160.0, -8.0)" width="320.0" xlink:href="#shape3"/>
      <use height="15.6" id="pl" transform="matrix(1.0, 0.0, 0.0, 1.0, -142.45, -7.8)" width="15.5" xlink:href="#sprite3"/>
      <use height="5.0" id="sliderBG" transform="matrix(1.0, 0.0, 0.0, 1.0, -120.1, -2.5)" width="210.45" xlink:href="#sprite5"/>
      <use height="4.0" id="loadingBar" transform="matrix(0.0025, 0.0, 0.0, 1.0, -116.75, -2.15)" width="203.45" xlink:href="#sprite6"/>
      <use height="12.0" id="sliderButton" transform="matrix(1.0, 0.0, 0.0, 1.0, -122.8, -6.0)" width="12.0" xlink:href="#sprite7"/>
      <use height="15.55" id="volumeControl" transform="matrix(1.0, 0.0, 0.0, 1.0, 96.15, -7.75)" width="62.5" xlink:href="#sprite8"/>
    </g>
    <g id="shape3" transform="matrix(1.0, 0.0, 0.0, 1.0, 160.0, 8.0)">
      <path d="M160.0 -8.0 L160.0 8.0 -160.0 8.0 -160.0 -8.0 160.0 -8.0" fill="url(#gradient0)" fill-rule="evenodd" stroke="none"/>
    </g>
    <linearGradient gradientTransform="matrix(0.0, -0.0098, 0.0095, 0.0, -0.05, 0.0)" gradientUnits="userSpaceOnUse" id="gradient0" spreadMethod="pad" x1="-819.2" x2="819.2">
      <stop offset="0.0" stop-color="#666666"/>
      <stop offset="0.3176470588235294" stop-color="#999999"/>
      <stop offset="0.5254901960784314" stop-color="#999999"/>
      <stop offset="1.0" stop-color="#cccccc"/>
    </linearGradient>
    <g id="sprite3" transform="matrix(1.0, 0.0, 0.0, 1.0, 7.75, 7.8)">
      <use height="15.55" transform="matrix(1.0, 0.0, 0.0, 1.0, -7.75, -7.75)" width="15.5" xlink:href="#sprite4"/>
      <use height="15.6" id="myButton" transform="matrix(1.0, 0.0, 0.0, 1.0, -7.75, -7.8)" width="15.5" xlink:href="#button0"/>
      <use height="8.5" transform="matrix(1.0, 0.0, 0.0, 1.0, -3.05, -4.25)" width="6.1" xlink:href="#shape5"/>
    </g>
    <g id="sprite4" transform="matrix(1.0, 0.0, 0.0, 1.0, 0.0, 0.0)">
      <use height="15.55" transform="matrix(1.0, 0.0, 0.0, 1.0, 0.0, 0.0)" width="15.5" xlink:href="#shape4"/>
    </g>
    <g id="shape4" transform="matrix(1.0, 0.0, 0.0, 1.0, 0.0, 0.0)">
      <path d="M15.5 0.0 L15.5 15.55 0.0 15.55 0.0 0.0 15.5 0.0" fill="url(#gradient1)" fill-rule="evenodd" stroke="none"/>
      <path d="M15.5 0.0 L15.5 15.55 M0.0 15.55 L0.0 0.0" fill="none" stroke="#999999" stroke-linecap="round" stroke-linejoin="round" stroke-width="0.05"/>
    </g>
    <linearGradient gradientTransform="matrix(0.0, -0.0095, 0.0095, 0.0, 159.2, 7.8)" gradientUnits="userSpaceOnUse" id="gradient1" spreadMethod="pad" x1="-819.2" x2="819.2">
      <stop offset="0.0" stop-color="#666666"/>
      <stop offset="0.3176470588235294" stop-color="#999999"/>
      <stop offset="0.5254901960784314" stop-color="#999999"/>
      <stop offset="1.0" stop-color="#cccccc"/>
    </linearGradient>
    <g id="shape5" transform="matrix(1.0, 0.0, 0.0, 1.0, 3.05, 4.25)">
      <path d="M2.55 -3.75 L2.55 3.75 0.45 3.75 0.45 -3.75 2.55 -3.75 M-0.45 -3.75 L-0.45 3.75 -2.55 3.75 -2.55 -3.75 -0.45 -3.75" fill="#e7e3e7" fill-rule="evenodd" stroke="none"/>
      <path d="M3.05 -3.75 L3.05 3.75 2.9 4.1 2.55 4.25 0.45 4.25 0.1 4.1 0.0 4.0 -0.1 4.1 -0.45 4.25 -2.55 4.25 -2.9 4.1 -3.05 3.75 -3.05 -3.75 -2.9 -4.1 -2.55 -4.25 -0.45 -4.25 -0.1 -4.1 0.0 -3.95 0.1 -4.1 0.45 -4.25 2.55 -4.25 2.9 -4.1 3.05 -3.75 M-0.2 -3.75 L-0.3 -3.9 -0.45 -4.0 -2.55 -4.0 -2.75 -3.9 -2.8 -3.75 -2.8 3.75 -2.75 3.95 -2.55 4.0 -0.45 4.0 -0.3 3.95 -0.2 3.75 -0.2 -3.75 M2.8 -3.75 L2.7 -3.9 2.55 -4.0 0.45 -4.0 0.25 -3.9 0.2 -3.75 0.2 3.75 0.25 3.95 0.45 4.0 2.55 4.0 2.7 3.95 2.8 3.75 2.8 -3.75" fill="#333333" fill-opacity="0.49803922" fill-rule="evenodd" stroke="none"/>
      <path d="M2.8 -3.75 L2.8 3.75 2.7 3.95 2.55 4.0 0.45 4.0 0.25 3.95 0.2 3.75 0.2 -3.75 0.25 -3.9 0.45 -4.0 2.55 -4.0 2.7 -3.9 2.8 -3.75 M-0.2 -3.75 L-0.2 3.75 -0.3 3.95 -0.45 4.0 -2.55 4.0 -2.75 3.95 -2.8 3.75 -2.8 -3.75 -2.75 -3.9 -2.55 -4.0 -0.45 -4.0 -0.3 -3.9 -0.2 -3.75" fill="#e7e3e7" fill-rule="evenodd" stroke="none"/>
    </g>
    <g id="sprite5" transform="matrix(1.0, 0.0, 0.0, 1.0, 0.0, 2.5)">
      <use height="5.0" transform="matrix(1.0, 0.0, 0.0, 1.0, 0.0, -2.5)" width="210.45" xlink:href="#shape6"/>
    </g>
    <g id="shape6" transform="matrix(1.0, 0.0, 0.0, 1.0, 0.0, 2.5)">
      <path d="M3.3 2.5 L3.3 -2.5 1.25 -2.0 1.8 -2.25 3.3 -2.5 4.45 -2.5 4.45 2.5 3.3 2.5 M0.95 1.75 L3.2 2.5 1.8 2.25 0.95 1.75" fill="url(#gradient2)" fill-rule="evenodd" stroke="none"/>
      <path d="M1.25 -2.0 L3.3 -2.5 3.3 2.5 3.2 2.5 0.95 1.75 Q0.0 1.0 0.0 0.0 L0.0 -0.1 0.0 -0.2 Q0.05 -1.1 0.7 -1.65 L1.25 -2.0" fill="url(#gradient3)" fill-rule="evenodd" stroke="none"/>
      <path d="M4.45 2.5 L4.45 -2.5 161.55 -2.5 161.55 2.5 4.45 2.5" fill="url(#gradient4)" fill-rule="evenodd" stroke="none"/>
      <path d="M205.95 -2.5 L207.25 -2.5 207.45 -2.5 207.55 -2.5 207.55 2.5 207.45 2.5 207.25 2.5 205.95 2.5 205.95 -2.5" fill="url(#gradient5)" fill-rule="evenodd" stroke="none"/>
      <path d="M207.55 -2.5 Q208.7 -2.45 209.5 -1.8 210.45 -1.05 210.45 0.0 210.45 1.0 209.5 1.75 208.7 2.4 207.55 2.5 L207.55 -2.5" fill="url(#gradient6)" fill-rule="evenodd" stroke="none"/>
      <path d="M161.55 -2.5 L205.95 -2.5 205.95 2.5 161.55 2.5 161.55 -2.5" fill="url(#gradient7)" fill-rule="evenodd" stroke="none"/>
    </g>
    <linearGradient gradientTransform="matrix(0.0, -0.0031, 0.0037, 0.0, 124.65, 0.0)" gradientUnits="userSpaceOnUse" id="gradient2" spreadMethod="pad" x1="-819.2" x2="819.2">
      <stop offset="0.0" stop-color="#999999"/>
      <stop offset="0.15294117647058825" stop-color="#cccccc"/>
      <stop offset="0.2784313725490196" stop-color="#c6c6c6"/>
      <stop offset="0.7215686274509804" stop-color="#999999"/>
      <stop offset="1.0" stop-color="#666666"/>
    </linearGradient>
    <radialGradient cx="0" cy="0" gradientTransform="matrix(0.0046, 0.0, 0.0, 0.004, 3.3, 1.4)" gradientUnits="userSpaceOnUse" id="gradient3" r="819.2" spreadMethod="pad">
      <stop offset="0.0" stop-color="#cccccc"/>
      <stop offset="0.8470588235294118" stop-color="#999999" stop-opacity="0.9019608"/>
      <stop offset="1.0" stop-color="#666666" stop-opacity="0.6"/>
    </radialGradient>
    <linearGradient gradientTransform="matrix(0.0, -0.0031, 0.0037, 0.0, 123.25, 0.0)" gradientUnits="userSpaceOnUse" id="gradient4" spreadMethod="pad" x1="-819.2" x2="819.2">
      <stop offset="0.0" stop-color="#999999"/>
      <stop offset="0.15294117647058825" stop-color="#cccccc"/>
      <stop offset="0.2784313725490196" stop-color="#c6c6c6"/>
      <stop offset="0.7215686274509804" stop-color="#999999"/>
      <stop offset="1.0" stop-color="#666666"/>
    </linearGradient>
    <linearGradient gradientTransform="matrix(0.0, -0.0031, 0.0036, 0.0, 88.55, 0.0)" gradientUnits="userSpaceOnUse" id="gradient5" spreadMethod="pad" x1="-819.2" x2="819.2">
      <stop offset="0.0" stop-color="#999999"/>
      <stop offset="0.15294117647058825" stop-color="#cccccc"/>
      <stop offset="0.2784313725490196" stop-color="#c6c6c6"/>
      <stop offset="0.7215686274509804" stop-color="#999999"/>
      <stop offset="1.0" stop-color="#666666"/>
    </linearGradient>
    <linearGradient gradientTransform="matrix(0.0018, 0.0, 0.0, 0.0031, 209.0, 0.0)" gradientUnits="userSpaceOnUse" id="gradient6" spreadMethod="pad" x1="-819.2" x2="819.2">
      <stop offset="0.0" stop-color="#999999"/>
      <stop offset="0.15294117647058825" stop-color="#cccccc"/>
      <stop offset="0.2784313725490196" stop-color="#c6c6c6"/>
      <stop offset="0.7215686274509804" stop-color="#999999"/>
      <stop offset="1.0" stop-color="#666666"/>
    </linearGradient>
    <linearGradient gradientTransform="matrix(0.0, -0.0031, 0.0037, 0.0, 87.25, 0.0)" gradientUnits="userSpaceOnUse" id="gradient7" spreadMethod="pad" x1="-819.2" x2="819.2">
      <stop offset="0.0" stop-color="#999999"/>
      <stop offset="0.15294117647058825" stop-color="#cccccc"/>
      <stop offset="0.2784313725490196" stop-color="#c6c6c6"/>
      <stop offset="0.7215686274509804" stop-color="#999999"/>
      <stop offset="1.0" stop-color="#666666"/>
    </linearGradient>
    <g id="sprite6" transform="matrix(1.0, 0.0, 0.0, 1.0, 0.0, 2.0)">
      <use height="4.0" transform="matrix(1.0, 0.0, 0.0, 1.0, 0.0, -2.0)" width="203.45" xlink:href="#shape7"/>
    </g>
    <g id="shape7" transform="matrix(1.0, 0.0, 0.0, 1.0, 0.0, 2.0)">
      <path d="M203.45 -2.0 L203.45 2.0 0.0 2.0 0.0 -2.0 203.45 -2.0" fill="#ffffff" fill-rule="evenodd" stroke="none"/>
    </g>
    <g id="sprite7" transform="matrix(1.0, 0.0, 0.0, 1.0, 6.0, 6.0)">
      <use height="12.0" transform="matrix(1.0, 0.0, 0.0, 1.0, -6.0, -6.0)" width="12.0" xlink:href="#shape8"/>
      <use height="10.8" id="button" transform="matrix(1.0, 0.0, 0.0, 1.0, -5.4, -5.4)" width="10.8" xlink:href="#button1"/>
    </g>
    <g id="shape8" transform="matrix(1.0, 0.0, 0.0, 1.0, 6.0, 6.0)">
      <path d="M0.0 -6.0 Q2.45 -6.0 4.2 -4.25 5.95 -2.45 6.0 0.0 5.95 2.45 4.2 4.2 2.45 6.0 0.0 6.0 -2.5 6.0 -4.3 4.2 -6.05 2.45 -6.0 0.0 -6.05 -2.45 -4.3 -4.25 -2.5 -6.0 0.0 -6.0 M0.0 -5.7 Q-2.4 -5.7 -4.1 -4.05 -5.75 -2.35 -5.7 0.0 -5.75 2.35 -4.1 4.0 -2.4 5.7 0.0 5.7 2.35 5.7 4.0 4.0 5.65 2.35 5.7 0.0 5.65 -2.35 4.0 -4.05 2.35 -5.7 0.0 -5.7" fill="url(#gradient8)" fill-rule="evenodd" stroke="none"/>
      <path d="M0.0 -5.4 Q-2.25 -5.4 -3.85 -3.85 L-3.9 -3.8 Q-5.45 -2.2 -5.4 0.0 -5.45 2.25 -3.9 3.8 -2.3 5.4 0.0 5.4 2.2 5.4 3.75 3.8 L3.8 3.8 Q5.4 2.2 5.4 0.0 5.4 -2.25 3.8 -3.85 2.2 -5.4 0.0 -5.4 M0.0 -5.7 Q2.35 -5.7 4.0 -4.05 5.65 -2.35 5.7 0.0 5.65 2.35 4.0 4.0 2.35 5.7 0.0 5.7 -2.4 5.7 -4.1 4.0 -5.75 2.35 -5.7 0.0 -5.75 -2.35 -4.1 -4.05 -2.4 -5.7 0.0 -5.7" fill="url(#gradient9)" fill-rule="evenodd" stroke="none"/>
      <path d="M0.0 -5.4 Q2.2 -5.4 3.8 -3.85 5.4 -2.25 5.4 0.0 5.4 2.2 3.8 3.8 L3.75 3.8 Q2.2 5.4 0.0 5.4 -2.3 5.4 -3.9 3.8 -5.45 2.25 -5.4 0.0 -5.45 -2.2 -3.9 -3.8 L-3.85 -3.85 Q-2.25 -5.4 0.0 -5.4" fill="url(#gradient10)" fill-rule="evenodd" stroke="none"/>
    </g>
    <radialGradient cx="0" cy="0" gradientTransform="matrix(0.0094, 0.0, 0.0, 0.0136, 0.05, -4.75)" gradientUnits="userSpaceOnUse" id="gradient8" r="819.2" spreadMethod="pad">
      <stop offset="0.0" stop-color="#999999" stop-opacity="0.8"/>
      <stop offset="0.8431372549019608" stop-color="#333333" stop-opacity="0.8"/>
    </radialGradient>
    <radialGradient cx="0" cy="0" gradientTransform="matrix(0.0094, 0.0, 0.0, 0.0136, 0.05, -4.75)" gradientUnits="userSpaceOnUse" id="gradient9" r="819.2" spreadMethod="pad">
      <stop offset="0.0" stop-color="#cccccc" stop-opacity="0.6627451"/>
      <stop offset="0.8431372549019608" stop-color="#666666" stop-opacity="0.6627451"/>
    </radialGradient>
    <radialGradient cx="0" cy="0" gradientTransform="matrix(0.0094, 0.0, 0.0, 0.0136, 0.05, -4.75)" gradientUnits="userSpaceOnUse" id="gradient10" r="819.2" spreadMethod="pad">
      <stop offset="0.0" stop-color="#cccccc"/>
      <stop offset="0.8431372549019608" stop-color="#666666"/>
    </radialGradient>
    <g id="sprite8" transform="matrix(1.0, 0.0, 0.0, 1.0, 8.0, 7.75)">
      <use height="11.35" transform="matrix(1.0, 0.0, 0.0, 1.0, -1.95, -5.65)" width="9.9" xlink:href="#sprite9"/>
      <use height="15.55" transform="matrix(1.0, 0.0, 0.0, 1.0, -8.0, -7.75)" width="20.5" xlink:href="#shape10"/>
      <use height="5.0" id="sliderBG" transform="matrix(0.1692, 0.0, 0.0, 1.0, 15.9, -2.5)" width="210.45" xlink:href="#sprite5"/>
      <use height="12.0" id="volumeSlider" transform="matrix(0.75, 0.0, 0.0, 0.75, 45.5, -4.5)" width="12.0" xlink:href="#sprite7"/>
    </g>
    <g id="sprite9" transform="matrix(1.0, 0.0, 0.0, 1.0, 4.95, 5.65)">
      <use height="11.35" transform="matrix(1.0, 0.0, 0.0, 1.0, -4.95, -5.65)" width="9.9" xlink:href="#shape9"/>
    </g>
    <g id="shape9" transform="matrix(1.0, 0.0, 0.0, 1.0, 4.95, 5.65)">
      <path d="M3.0 -5.15 L4.45 -5.15 Q3.8 -2.5 3.85 0.0 3.8 2.5 4.45 5.2 L3.0 5.2 -1.8 2.55 -4.45 2.55 -4.45 -2.5 -1.8 -2.5 3.0 -5.15 M-3.7 1.8 L-3.65 1.75 -3.7 1.8" fill="#ffffff" fill-rule="evenodd" stroke="none"/>
      <path d="M-3.7 1.8 L-3.65 1.75 -3.7 1.8" fill="#b5b5b5" fill-rule="evenodd" stroke="none"/>
      <path d="M3.0 -5.15 L-1.8 -2.5 -4.45 -2.5 -4.45 2.55 -1.8 2.55 3.0 5.2 4.45 5.2 Q3.8 2.5 3.85 0.0 3.8 -2.5 4.45 -5.15 L3.0 -5.15 Z" fill="none" stroke="#727272" stroke-linecap="round" stroke-linejoin="round" stroke-width="1.0"/>
    </g>
    <g id="shape10" transform="matrix(1.0, 0.0, 0.0, 1.0, 8.0, 7.75)">
      <path d="M12.5 -7.75 L12.5 7.8 M-8.0 -7.75 L-8.0 7.8" fill="none" stroke="#999999" stroke-linecap="round" stroke-linejoin="round" stroke-width="0.05"/>
    </g>
    <g id="sprite10" transform="matrix(1.0, 0.0, 0.0, 1.0, 27.1, 27.1)">
      <use height="54.25" transform="matrix(1.0, 0.0, 0.0, 1.0, -27.1, -27.1)" width="54.25" xlink:href="#shape11"/>
    </g>
    <g id="shape11" transform="matrix(1.0, 0.0, 0.0, 1.0, 27.1, 27.1)">
      <path d="M19.2 -19.15 Q27.15 -11.2 27.15 0.0 27.15 11.25 19.2 19.2 11.25 27.15 0.0 27.15 -11.2 27.15 -19.15 19.2 -27.1 11.25 -27.1 0.0 -27.1 -11.2 -19.15 -19.15 -11.2 -27.1 0.0 -27.1 11.25 -27.1 19.2 -19.15" fill="#0066cc" fill-rule="evenodd" stroke="none"/>
    </g>
  </defs>
</svg>
