<?xml version="1.0" encoding="UTF-8" standalone="no"?>
<svg xmlns:xlink="http://www.w3.org/1999/xlink" height="17.5px" width="15.2px" xmlns="http://www.w3.org/2000/svg">
  <g transform="matrix(1.0, 0.0, 0.0, 1.0, 7.6, 8.75)">
    <path d="M6.9 4.7 Q7.45 5.3 7.55 6.1 L7.55 6.35 7.6 6.55 7.55 6.9 7.5 7.1 Q7.2 8.05 6.3 8.5 L5.8 8.65 3.95 8.5 3.45 8.25 3.25 8.05 3.5 7.95 3.2 7.35 Q1.25 5.35 -0.15 3.05 L1.0 2.8 Q2.35 2.25 3.15 1.2 4.65 3.3 6.8 4.7 L6.85 4.7 6.9 4.7" fill="url(#gradient0)" fill-rule="evenodd" stroke="none"/>
    <path d="M-6.2 -7.35 L-5.9 -7.65 Q-4.95 -8.3 -3.75 -8.35 -0.85 -8.5 0.3 -5.95 L1.3 -4.4 0.9 -3.75 0.9 -3.7 1.0 -3.55 1.0 -3.5 1.2 -3.55 1.25 -3.55 Q1.35 -4.1 1.75 -4.55 2.8 -5.65 3.85 -4.7 4.15 -3.85 3.55 -3.1 2.7 -1.9 2.4 -0.55 L2.4 -0.5 0.65 0.55 -0.1 0.7 -1.65 0.95 Q-2.05 0.65 -2.6 0.4 -4.9 -0.65 -6.35 -2.7 -7.05 -3.6 -7.15 -4.75 -7.25 -6.25 -6.2 -7.35 M3.0 -0.85 L3.1 -0.9 3.25 -0.7 3.3 -0.4 3.25 0.4 Q2.8 1.35 1.9 1.9 0.55 2.7 -0.95 2.55 -1.85 2.45 -2.0 1.65 L-2.0 1.6 -1.95 1.45 -1.95 1.35 -1.95 1.25 -1.9 1.2 -1.8 1.2 -1.75 1.2 -1.6 1.25 Q1.4 1.5 3.0 -0.85 M-0.25 -1.05 L-0.2 -1.05 -0.05 -1.05 -0.1 -1.1 -0.1 -1.15 -0.15 -1.25 -0.2 -1.3 Q-1.25 -2.9 -3.2 -2.9 L-3.3 -2.9 Q-4.0 -2.9 -4.45 -2.45 L-3.3 -2.5 Q-1.45 -2.5 -0.3 -1.1 L-0.25 -1.05" fill="#ffffff" fill-rule="evenodd" stroke="none"/>
    <path d="M3.25 8.05 L3.2 8.05 2.95 7.8 Q1.05 5.75 -0.45 3.4 L-0.6 3.0 -1.15 2.9 Q-2.55 2.55 -2.25 1.25 L-2.15 1.05 Q-5.7 -0.4 -7.3 -3.9 -7.75 -4.75 -7.55 -5.75 -7.35 -6.8 -6.65 -7.45 -6.1 -8.15 -5.15 -8.45 L-3.7 -8.75 Q-0.35 -8.75 0.95 -5.75 L1.45 -4.6 2.25 -5.35 2.65 -5.5 Q4.35 -5.55 4.25 -3.95 L3.95 -3.05 3.05 -1.35 Q4.2 -0.6 3.45 0.7 L3.4 0.85 Q4.85 2.75 6.75 4.3 L7.0 4.5 7.0 4.55 6.9 4.7 6.85 4.7 6.8 4.7 Q4.65 3.3 3.15 1.2 2.35 2.25 1.0 2.8 L-0.15 3.05 Q1.25 5.35 3.2 7.35 L3.5 7.95 3.25 8.05 M-6.2 -7.35 Q-7.25 -6.25 -7.15 -4.75 -7.05 -3.6 -6.35 -2.7 -4.9 -0.65 -2.6 0.4 -2.05 0.65 -1.65 0.95 L-0.1 0.7 0.65 0.55 2.4 -0.5 2.4 -0.55 Q2.7 -1.9 3.55 -3.1 4.15 -3.85 3.85 -4.7 2.8 -5.65 1.75 -4.55 1.35 -4.1 1.25 -3.55 L1.2 -3.55 1.0 -3.5 1.0 -3.55 0.9 -3.7 0.9 -3.75 1.3 -4.4 0.3 -5.95 Q-0.85 -8.5 -3.75 -8.35 -4.95 -8.3 -5.9 -7.65 L-6.2 -7.35 M3.1 -0.9 L2.9 -1.05 2.85 -1.0 3.0 -0.9 3.0 -0.85 Q1.4 1.5 -1.6 1.25 L-1.75 1.2 -1.8 1.2 -1.9 1.2 -1.95 1.25 -1.95 1.35 -1.95 1.45 -2.0 1.6 -2.0 1.65 Q-1.85 2.45 -0.95 2.55 0.55 2.7 1.9 1.9 2.8 1.35 3.25 0.4 L3.3 -0.4 3.25 -0.7 3.1 -0.9 M-0.25 -1.05 L-0.3 -1.1 Q-1.45 -2.5 -3.3 -2.5 L-4.45 -2.45 Q-4.0 -2.9 -3.3 -2.9 L-3.2 -2.9 Q-1.25 -2.9 -0.2 -1.3 L-0.15 -1.25 -0.1 -1.15 -0.1 -1.1 -0.05 -1.05 -0.2 -1.05 -0.25 -1.05" fill="#000000" fill-rule="evenodd" stroke="none"/>
  </g>
  <defs>
    <linearGradient gradientTransform="matrix(-0.0037, 0.0029, -0.0029, -0.0036, 1.95, 6.0)" gradientUnits="userSpaceOnUse" id="gradient0" spreadMethod="pad" x1="-819.2" x2="819.2">
      <stop offset="0.0" stop-color="#6f3827"/>
      <stop offset="1.0" stop-color="#000000"/>
    </linearGradient>
  </defs>
</svg>
