<?xml version="1.0" encoding="UTF-8" standalone="no"?>
<svg xmlns:xlink="http://www.w3.org/1999/xlink" height="11.7px" width="13.6px" xmlns="http://www.w3.org/2000/svg">
  <g transform="matrix(1.0, 0.0, 0.0, 1.0, 6.8, 5.85)">
    <path d="M-6.25 -1.75 L-6.55 -2.2 -6.8 -3.05 -6.8 -3.25 Q-6.9 -4.15 -6.35 -4.8 L-4.85 -3.4 -3.4 -2.4 -1.95 -1.4 -1.75 -1.3 -1.85 -1.1 -2.15 -0.85 -3.3 0.3 -3.4 0.45 Q-4.55 -0.95 -6.1 -1.9 L-6.2 -1.85 -6.25 -1.75" fill="url(#gradient0)" fill-rule="evenodd" stroke="none"/>
    <path d="M-6.25 -1.75 L-6.2 -1.85 -6.1 -1.9 Q-4.55 -0.95 -3.4 0.45 L-3.3 0.3 -2.15 -0.85 -1.85 -1.1 Q-1.1 -1.85 -0.45 -2.75 L-0.15 -3.15 -2.45 -5.0 -2.8 -5.3 -2.85 -5.4 -2.8 -5.5 -2.75 -5.5 -2.7 -5.55 -1.15 -4.45 -1.05 -4.6 -1.05 -4.65 0.0 -5.1 0.35 -5.1 0.4 -5.1 0.45 -5.15 0.6 -4.95 0.7 -4.8 Q2.25 -2.65 4.65 -1.4 L4.85 -1.3 Q5.9 -0.9 6.4 0.35 7.2 2.25 6.35 4.1 L6.3 4.2 Q5.9 5.1 4.9 5.5 L2.45 5.8 Q0.0 5.45 -2.2 4.35 -4.3 3.2 -5.55 1.25 L-5.5 1.25 Q-5.9 0.55 -5.5 -0.3 L-5.15 -0.75 -6.0 -1.45 -6.25 -1.7 -6.25 -1.75 M-5.35 0.75 L-5.2 1.15 Q-4.3 1.25 -3.55 0.6 L-4.95 -0.55 -5.35 0.75 M-3.2 0.6 L-3.3 0.7 -3.4 0.75 -4.7 1.6 -4.9 1.6 -4.95 1.6 -4.95 1.65 -2.85 3.5 Q-1.55 4.35 0.0 4.85 L3.45 5.3 4.95 5.05 5.2 4.95 6.05 4.05 Q6.45 3.3 6.4 2.4 6.35 1.05 5.6 -0.15 L5.05 -0.75 5.0 -0.75 4.2 -1.15 Q2.9 -1.9 1.9 -2.9 1.2 -3.55 0.7 -4.35 0.5 -3.35 -0.2 -2.45 L-2.0 -0.45 -3.2 0.6 -3.25 0.6 -3.2 0.6 M0.3 -4.7 L-0.95 -4.3 0.0 -3.45 0.35 -4.45 0.3 -4.7" fill="#000000" fill-rule="evenodd" stroke="none"/>
    <path d="M-1.85 -1.1 L-1.75 -1.3 -1.95 -1.4 -3.4 -2.4 -4.85 -3.4 -6.35 -4.8 -6.2 -5.0 -6.05 -5.1 -5.15 -5.65 -3.7 -5.85 Q-3.2 -5.8 -2.8 -5.55 L-2.75 -5.5 -2.8 -5.5 -2.85 -5.4 -2.8 -5.3 -2.45 -5.0 -0.15 -3.15 -0.45 -2.75 Q-1.1 -1.85 -1.85 -1.1" fill="#6f3827" fill-rule="evenodd" stroke="none"/>
    <path d="M-5.35 0.75 L-4.95 -0.55 -3.55 0.6 Q-4.3 1.25 -5.2 1.15 L-5.35 0.75 M0.3 -4.7 L0.35 -4.45 0.0 -3.45 -0.95 -4.3 0.3 -4.7" fill="#c54e00" fill-rule="evenodd" stroke="none"/>
    <path d="M-4.9 1.6 L-4.7 1.6 -3.4 0.75 -3.3 0.7 -3.2 0.6 -2.0 -0.45 Q-2.05 0.15 -1.55 0.7 L-0.5 1.55 1.4 2.5 1.95 2.7 2.1 2.85 2.5 3.05 Q1.9 3.05 1.4 3.4 L1.15 3.6 Q0.9 3.9 1.2 4.15 L2.1 4.25 2.65 4.0 2.95 3.85 Q2.8 4.4 3.15 4.8 L3.3 4.95 3.4 5.0 Q3.85 5.15 4.05 4.75 L4.1 4.5 3.9 3.95 3.8 3.75 Q4.15 4.1 4.6 3.9 L4.95 3.75 5.0 3.75 6.05 4.05 5.2 4.95 4.95 5.05 3.45 5.3 0.0 4.85 Q-1.55 4.35 -2.85 3.5 L-4.95 1.65 -4.9 1.6 M-2.25 2.8 L-1.95 3.05 -1.7 3.15 -1.45 3.1 -1.2 2.95 -1.0 2.65 -1.05 2.15 -1.25 2.05 -1.5 1.95 -1.7 2.0 -1.9 2.1 -2.0 2.15 -1.75 1.7 -1.75 1.65 Q-1.7 1.3 -1.8 1.05 L-2.05 0.65 -2.4 0.55 Q-2.7 0.6 -2.85 0.95 L-2.95 1.55 -2.95 1.8 -2.95 1.85 -3.0 1.8 -3.2 1.8 Q-3.55 1.75 -3.65 2.05 L-3.45 2.5 -2.8 2.6 -2.95 2.85 -2.95 3.05 -2.85 3.3 -2.75 3.4 -2.35 3.35 -2.25 3.05 -2.25 2.8" fill="url(#gradient1)" fill-rule="evenodd" stroke="none"/>
    <path d="M6.05 4.05 L5.0 3.75 5.35 3.1 5.3 2.8 5.2 2.65 4.7 2.45 3.85 2.75 3.8 2.8 4.1 2.0 3.85 1.55 3.35 1.65 3.2 1.75 3.05 2.0 3.05 2.1 3.0 2.15 3.0 2.2 2.75 2.0 2.45 1.75 2.1 1.8 1.9 2.0 Q1.7 2.4 1.95 2.7 L1.4 2.5 -0.5 1.55 -1.55 0.7 Q-2.05 0.15 -2.0 -0.45 L-0.2 -2.45 Q0.5 -3.35 0.7 -4.35 1.2 -3.55 1.9 -2.9 2.9 -1.9 4.2 -1.15 L5.0 -0.75 5.05 -0.75 5.6 -0.15 Q6.35 1.05 6.4 2.4 6.45 3.3 6.05 4.05 M-3.2 0.6 L-3.25 0.6 -3.2 0.6 M1.7 -2.75 L1.5 -2.75 1.4 -2.65 1.25 -2.5 Q1.05 -2.1 1.1 -1.6 L1.1 -1.55 0.85 -1.85 0.5 -2.0 -0.1 -1.9 -0.3 -1.45 -0.25 -1.25 0.05 -1.05 0.65 -0.95 0.7 -0.95 0.6 -0.9 -0.1 -0.35 -0.25 0.0 -0.25 0.2 -0.2 0.35 0.4 0.45 1.05 -0.1 1.2 -0.4 1.25 -0.45 1.25 -0.2 1.6 0.4 1.85 0.55 2.35 0.5 2.5 0.35 Q2.8 -0.1 2.4 -0.45 L2.3 -0.55 1.9 -0.85 1.75 -0.95 1.6 -1.0 Q2.15 -1.1 2.1 -1.7 L2.05 -2.05 2.0 -2.25 1.7 -2.75" fill="#ff6600" fill-rule="evenodd" stroke="none"/>
    <path d="M5.0 3.75 L4.95 3.75 4.6 3.9 Q4.15 4.1 3.8 3.75 L3.9 3.95 4.1 4.5 4.05 4.75 Q3.85 5.15 3.4 5.0 L3.3 4.95 3.15 4.8 Q2.8 4.4 2.95 3.85 L2.65 4.0 2.1 4.25 1.2 4.15 Q0.9 3.9 1.15 3.6 L1.4 3.4 Q1.9 3.05 2.5 3.05 L2.1 2.85 1.95 2.7 Q1.7 2.4 1.9 2.0 L2.1 1.8 2.45 1.75 2.75 2.0 3.0 2.2 3.0 2.15 3.05 2.1 3.05 2.0 3.2 1.75 3.35 1.65 3.85 1.55 4.1 2.0 3.8 2.8 3.85 2.75 4.7 2.45 5.2 2.65 5.3 2.8 5.35 3.1 5.0 3.75 M-2.95 1.85 L-2.95 1.8 -2.95 1.55 -2.85 0.95 Q-2.7 0.6 -2.4 0.55 L-2.05 0.65 -1.8 1.05 Q-1.7 1.3 -1.75 1.65 L-1.75 1.7 -2.0 2.15 -1.9 2.1 -1.7 2.0 -1.5 1.95 -1.25 2.05 -1.05 2.15 -1.0 2.65 -1.2 2.95 -1.45 3.1 -1.7 3.15 -1.95 3.05 -2.25 2.8 -2.25 3.05 -2.35 3.35 -2.75 3.4 -2.85 3.3 -2.95 3.05 -2.95 2.85 -2.8 2.6 -3.45 2.5 -3.65 2.05 Q-3.55 1.75 -3.2 1.8 L-3.0 1.8 -2.95 1.85 -2.9 1.95 -2.75 2.15 -2.75 2.2 Q-2.7 1.95 -2.95 1.85 M-2.25 2.8 L-2.25 2.7 -2.3 2.65 -2.25 2.8 M1.7 -2.75 L2.0 -2.25 2.05 -2.05 2.1 -1.7 Q2.15 -1.1 1.6 -1.0 L1.75 -0.95 1.9 -0.85 2.3 -0.55 2.4 -0.45 Q2.8 -0.1 2.5 0.35 L2.35 0.5 1.85 0.55 1.6 0.4 1.25 -0.2 1.25 -0.45 1.2 -0.4 1.05 -0.1 0.4 0.45 -0.2 0.35 -0.25 0.2 -0.25 0.0 -0.1 -0.35 0.6 -0.9 0.7 -0.95 0.65 -0.95 0.05 -1.05 -0.25 -1.25 -0.3 -1.45 -0.1 -1.9 0.5 -2.0 0.85 -1.85 1.1 -1.55 1.1 -1.6 Q1.05 -2.1 1.25 -2.5 L1.4 -2.65 1.5 -2.75 1.7 -2.75 M2.5 3.05 L2.65 3.1 2.6 3.05 2.5 3.05 M3.8 2.8 L3.75 2.85 3.7 2.85 3.8 2.8" fill="#009900" fill-rule="evenodd" stroke="none"/>
  </g>
  <defs>
    <linearGradient gradientTransform="matrix(-0.0022, 0.0022, -0.0023, -0.0023, -4.5, -1.2)" gradientUnits="userSpaceOnUse" id="gradient0" spreadMethod="pad" x1="-819.2" x2="819.2">
      <stop offset="0.0" stop-color="#6f3827"/>
      <stop offset="1.0" stop-color="#000000"/>
    </linearGradient>
    <linearGradient gradientTransform="matrix(-0.0033, 0.0058, -0.0031, -0.0017, -1.15, 6.1)" gradientUnits="userSpaceOnUse" id="gradient1" spreadMethod="pad" x1="-819.2" x2="819.2">
      <stop offset="0.0" stop-color="#ff6600"/>
      <stop offset="1.0" stop-color="#000000"/>
    </linearGradient>
  </defs>
</svg>
