<?xml version="1.0" encoding="UTF-8" standalone="no"?>
<svg xmlns:xlink="http://www.w3.org/1999/xlink" height="10.45px" width="15.5px" xmlns="http://www.w3.org/2000/svg">
  <g transform="matrix(1.0, 0.0, 0.0, 1.0, 7.75, 5.2)">
    <path d="M7.65 -3.7 L7.65 -3.65 7.65 -3.6 7.15 -3.2 Q6.25 -2.65 5.25 -2.25 L2.35 -1.25 Q2.1 -0.2 0.85 0.25 L0.15 0.15 0.05 0.2 0.05 0.25 Q0.5 1.8 -1.0 2.25 L-1.85 2.05 -2.2 1.75 -3.55 4.15 -3.95 4.65 -7.05 4.7 -7.4 4.25 -7.5 4.15 -7.75 2.95 -7.65 1.6 -7.6 1.3 Q-6.95 -0.3 -5.55 -1.45 -3.3 -3.25 -0.4 -3.6 L-0.05 -3.95 0.4 -4.15 Q1.55 -4.05 2.05 -3.3 L5.8 -5.2 5.9 -5.15 5.95 -5.1 6.0 -5.05 6.0 -4.95 5.95 -4.8 Q4.1 -3.75 2.15 -3.1 L2.4 -2.1 2.4 -1.5 6.4 -3.25 7.5 -3.8 7.65 -3.7 M0.05 -3.6 Q1.3 -3.2 1.25 -1.75 1.2 -0.7 0.55 -0.1 1.85 -0.3 2.0 -1.75 L2.0 -2.45 Q1.7 -3.8 0.35 -3.7 L0.05 -3.6 M0.9 -1.6 Q0.95 -2.7 0.05 -3.25 L-0.2 -3.4 -3.25 -2.4 Q-5.65 -1.3 -7.0 0.85 L-7.3 2.2 Q-7.45 3.05 -7.2 3.8 L-7.15 4.0 -6.8 4.5 -6.6 4.7 Q-4.25 5.3 -3.45 3.2 L-2.75 1.7 -2.4 1.4 Q-2.75 0.75 -2.55 -0.1 L-2.5 -0.35 -4.0 0.75 -5.1 1.95 -5.25 2.35 -5.55 2.95 -5.65 3.15 -5.6 2.55 -5.45 2.3 Q-4.7 0.15 -2.5 -0.85 L-2.3 -0.9 -1.75 -1.35 -1.7 -1.35 -1.7 -1.25 -1.7 -1.2 Q-2.6 0.0 -2.05 1.35 L-2.05 1.4 -0.4 1.35 Q-0.2 1.05 -0.3 0.75 -0.6 -0.35 -0.25 -1.4 L0.3 -2.05 0.2 -1.45 Q-0.2 -0.75 0.0 0.05 L0.8 -1.35 0.9 -1.6" fill="#000000" fill-rule="evenodd" stroke="none"/>
    <path d="M5.95 -5.1 L6.4 -5.2 6.9 -5.2 Q7.7 -4.95 7.75 -4.05 L7.75 -3.95 7.65 -3.7 7.5 -3.8 6.4 -3.25 2.4 -1.5 2.4 -2.1 2.15 -3.1 Q4.1 -3.75 5.95 -4.8 L6.0 -4.95 6.0 -5.05 5.95 -5.1" fill="#40e49f" fill-rule="evenodd" stroke="none"/>
    <path d="M0.9 -1.6 L0.8 -1.35 0.0 0.05 Q-0.2 -0.75 0.2 -1.45 L0.3 -2.05 -0.25 -1.4 Q-0.6 -0.35 -0.3 0.75 -0.2 1.05 -0.4 1.35 L-2.05 1.4 -2.05 1.35 Q-2.6 0.0 -1.7 -1.2 L-1.7 -1.25 -1.7 -1.35 -1.75 -1.35 -2.3 -0.9 -2.5 -0.85 Q-4.7 0.15 -5.45 2.3 L-5.6 2.55 -5.65 3.15 -5.55 2.95 -5.25 2.35 -5.1 1.95 -4.0 0.75 -2.5 -0.35 -2.55 -0.1 Q-2.75 0.75 -2.4 1.4 L-2.75 1.7 -3.45 3.2 Q-4.25 5.3 -6.6 4.7 L-6.8 4.5 -7.15 4.0 -7.2 3.8 Q-7.45 3.05 -7.3 2.2 L-7.0 0.85 Q-5.65 -1.3 -3.25 -2.4 L-0.2 -3.4 0.05 -3.25 Q0.95 -2.7 0.9 -1.6" fill="url(#gradient0)" fill-rule="evenodd" stroke="none"/>
    <path d="M0.05 -3.6 L0.35 -3.7 Q1.7 -3.8 2.0 -2.45 L2.0 -1.75 Q1.85 -0.3 0.55 -0.1 1.2 -0.7 1.25 -1.75 1.3 -3.2 0.05 -3.6" fill="url(#gradient1)" fill-rule="evenodd" stroke="none"/>
  </g>
  <defs>
    <radialGradient cx="0" cy="0" gradientTransform="matrix(0.0201, 0.0, 0.0, 0.0191, -4.35, 0.35)" gradientUnits="userSpaceOnUse" id="gradient0" r="819.2" spreadMethod="pad">
      <stop offset="0.0" stop-color="#ffffff"/>
      <stop offset="1.0" stop-color="#000000"/>
    </radialGradient>
    <radialGradient cx="0" cy="0" gradientTransform="matrix(0.0046, 0.0, 0.0, 0.0046, 1.65, -1.4)" gradientUnits="userSpaceOnUse" id="gradient1" r="819.2" spreadMethod="pad">
      <stop offset="0.0" stop-color="#ffffff"/>
      <stop offset="1.0" stop-color="#000000"/>
    </radialGradient>
  </defs>
</svg>
