<?xml version="1.0" encoding="UTF-8" standalone="no"?>
<svg xmlns:xlink="http://www.w3.org/1999/xlink" height="36.0px" width="29.25px" xmlns="http://www.w3.org/2000/svg">
  <g transform="matrix(1.0, 0.0, 0.0, 1.0, 14.6, 17.95)">
    <path d="M-0.2 6.1 Q-3.95 6.5 -7.55 5.45 -7.25 3.75 -7.2 1.9 L-7.15 -1.05 -7.1 -5.55 -7.05 -5.95 -6.7 -8.6 Q-6.35 -10.85 -4.7 -12.25 L-4.35 -12.35 Q-4.45 -11.7 -4.05 -11.0 L-3.5 -10.6 Q-2.35 -10.35 -1.7 -11.35 L-1.65 -10.3 -1.65 -8.5 Q-1.75 -6.7 -1.5 -4.9 -1.25 -3.25 -1.15 -1.6 -1.1 0.3 -0.7 2.2 L-0.2 6.1" fill="url(#gradient0)" fill-rule="evenodd" stroke="none"/>
    <path d="M-1.7 -11.35 Q-2.35 -10.35 -3.5 -10.6 L-4.05 -11.0 Q-4.45 -11.7 -4.35 -12.35 L-4.7 -12.25 Q-6.35 -10.85 -6.7 -8.6 L-7.05 -5.95 -7.1 -5.55 -7.15 -1.05 -7.2 1.9 Q-7.25 3.75 -7.55 5.45 -3.95 6.5 -0.2 6.1 L1.5 5.8 5.7 4.65 7.15 4.0 6.1 -1.35 5.7 -2.95 5.25 -4.75 3.9 -9.0 Q3.25 -11.1 1.55 -12.4 L1.45 -11.8 Q1.25 -11.1 0.5 -10.85 -0.85 -10.45 -1.65 -11.45 L-1.7 -11.35 M-7.15 -8.2 L-6.7 -10.0 Q-6.1 -12.05 -4.2 -12.75 L-3.9 -13.35 -3.55 -13.6 -3.5 -13.7 -2.95 -13.9 -2.85 -13.9 -2.8 -15.45 -2.85 -15.5 -2.8 -16.5 Q-2.8 -17.2 -2.4 -17.7 L-1.9 -17.95 Q-0.85 -17.85 -0.6 -16.95 L-0.55 -16.8 -0.55 -16.55 -0.5 -16.5 -0.55 -16.5 -0.55 -16.4 -0.55 -16.35 -0.15 -13.95 0.35 -13.9 Q1.35 -13.6 1.5 -12.75 L1.55 -12.75 Q3.55 -11.55 4.3 -9.2 L5.8 -4.35 5.75 -4.2 5.75 -4.15 6.8 0.2 7.25 2.2 7.5 4.05 7.5 4.15 7.5 4.3 7.75 5.0 7.8 5.05 Q9.25 7.75 11.15 10.15 12.1 11.35 13.4 12.2 14.45 12.9 14.5 14.05 L14.65 14.15 14.65 14.2 13.45 15.05 11.2 16.1 Q8.25 17.6 4.9 17.9 L1.15 18.0 -1.0 17.75 -3.45 17.5 Q-5.1 17.35 -6.8 17.5 L-11.15 17.15 -12.7 16.55 Q-13.9 15.95 -14.6 14.95 -14.25 13.65 -13.35 12.55 L-9.5 7.9 -8.9 7.0 -7.95 5.45 Q-7.55 2.7 -7.55 -0.15 L-7.5 -4.05 Q-7.6 -6.15 -7.15 -8.2 M-0.15 6.4 L-3.5 6.6 Q-5.75 6.6 -7.65 5.7 L-7.75 5.8 Q-9.0 8.25 -10.9 10.25 -12.9 12.3 -14.2 14.75 -13.1 16.4 -11.0 16.8 L-8.4 17.15 -5.35 17.1 -1.25 17.3 1.1 17.65 Q6.6 18.05 11.55 15.5 L13.85 14.3 13.85 14.25 14.15 14.1 14.25 14.0 14.25 13.9 Q13.35 12.4 11.85 11.35 L11.25 10.8 Q9.45 8.6 8.0 6.2 L7.45 5.25 7.25 4.4 Q4.6 5.7 1.55 6.2 L-0.15 6.4 M-0.9 -16.55 L-1.2 -17.2 -1.7 -17.6 Q-2.55 -17.45 -2.5 -16.45 L-2.5 -16.3 -2.4 -15.7 -2.4 -15.65 -2.55 -12.45 -1.75 -12.2 -0.5 -12.35 -0.3 -12.55 -0.2 -12.7 Q-0.75 -14.25 -0.8 -15.9 L-0.9 -16.5 -0.9 -16.55 M0.05 -13.2 L0.2 -13.3 0.35 -13.2 0.4 -13.15 Q0.1 -11.65 -1.45 -11.7 L0.9 -11.6 1.2 -12.0 1.2 -12.05 1.25 -12.2 1.25 -12.25 Q1.15 -13.1 0.45 -13.45 L0.4 -13.45 -0.05 -13.6 0.05 -13.15 0.05 -13.2 M-3.15 -13.45 L-3.25 -13.4 -3.55 -13.1 -3.7 -12.95 -3.75 -12.95 -3.8 -12.95 -4.0 -12.65 -4.0 -12.6 -4.0 -12.55 -4.05 -12.5 -4.0 -11.65 Q-3.9 -11.25 -3.5 -11.0 -2.8 -10.6 -2.3 -11.3 L-1.95 -11.75 Q-2.45 -11.9 -2.8 -12.15 L-2.95 -12.15 -3.05 -12.25 -3.05 -12.3 -3.45 -12.8 -3.35 -12.95 -3.25 -13.0 -2.95 -12.75 -2.85 -13.55 -3.15 -13.45" fill="#000000" fill-rule="evenodd" stroke="none"/>
    <path d="M1.1 17.65 L-1.25 17.3 -5.35 17.1 -8.4 17.15 -11.0 16.8 Q-13.1 16.4 -14.2 14.75 -12.9 12.3 -10.9 10.25 -9.0 8.25 -7.75 5.8 L-7.65 5.7 Q-5.75 6.6 -3.5 6.6 L-0.15 6.4 -0.15 6.5 -0.15 6.7 -0.15 6.8 -0.15 7.5 0.0 9.1 0.15 10.3 0.4 11.7 0.9 15.5 1.1 17.65" fill="url(#gradient1)" fill-rule="evenodd" stroke="none"/>
    <path d="M-0.9 -16.55 L-0.9 -16.5 -0.8 -15.9 Q-0.75 -14.25 -0.2 -12.7 L-0.3 -12.55 -0.5 -12.35 -1.75 -12.2 -2.55 -12.45 -2.4 -15.65 -2.4 -15.7 -2.5 -16.3 -2.5 -16.45 Q-2.55 -17.45 -1.7 -17.6 L-1.2 -17.2 -0.9 -16.55" fill="#40e49f" fill-rule="evenodd" stroke="none"/>
    <path d="M-3.15 -13.45 L-2.85 -13.55 -2.95 -12.75 -3.25 -13.0 -3.35 -12.95 -3.45 -12.8 -3.05 -12.3 -3.05 -12.25 -2.95 -12.15 -2.8 -12.15 Q-2.45 -11.9 -1.95 -11.75 L-2.3 -11.3 Q-2.8 -10.6 -3.5 -11.0 -3.9 -11.25 -4.0 -11.65 L-4.05 -12.5 -4.0 -12.55 -4.0 -12.6 -4.0 -12.65 -3.8 -12.95 -3.75 -12.95 -3.7 -12.95 -3.55 -13.1 -3.25 -13.4 -3.15 -13.45 M0.05 -13.2 L0.05 -13.15 -0.05 -13.6 0.4 -13.45 0.45 -13.45 Q1.15 -13.1 1.25 -12.25 L1.25 -12.2 1.2 -12.05 1.2 -12.0 0.9 -11.6 -1.45 -11.7 Q0.1 -11.65 0.4 -13.15 L0.35 -13.2 0.2 -13.3 0.05 -13.2" fill="#ff33cc" fill-rule="evenodd" stroke="none"/>
    <path d="M-0.2 6.1 L-0.7 2.2 Q-1.1 0.3 -1.15 -1.6 -1.25 -3.25 -1.5 -4.9 -1.75 -6.7 -1.65 -8.5 L-1.65 -10.3 -1.7 -11.35 -1.65 -11.45 Q-0.85 -10.45 0.5 -10.85 1.25 -11.1 1.45 -11.8 L1.55 -12.4 Q3.25 -11.1 3.9 -9.0 L5.25 -4.75 5.7 -2.95 6.1 -1.35 7.15 4.0 5.7 4.65 1.5 5.8 -0.2 6.1" fill="url(#gradient2)" fill-rule="evenodd" stroke="none"/>
    <path d="M1.1 17.65 L0.9 15.5 0.4 11.7 0.15 10.3 0.0 9.1 -0.15 7.5 -0.15 6.8 -0.15 6.7 -0.15 6.5 -0.15 6.4 1.55 6.2 Q4.6 5.7 7.25 4.4 L7.45 5.25 8.0 6.2 Q9.45 8.6 11.25 10.8 L11.85 11.35 Q13.35 12.4 14.25 13.9 L14.25 14.0 14.15 14.1 13.85 14.25 13.85 14.3 11.55 15.5 Q6.6 18.05 1.1 17.65" fill="url(#gradient3)" fill-rule="evenodd" stroke="none"/>
  </g>
  <defs>
    <linearGradient gradientTransform="matrix(-0.0045, 1.0E-4, -3.0E-4, -0.0113, -7.4, -1.75)" gradientUnits="userSpaceOnUse" id="gradient0" spreadMethod="pad" x1="-819.2" x2="819.2">
      <stop offset="0.0" stop-color="#ff3366"/>
      <stop offset="1.0" stop-color="#000000"/>
    </linearGradient>
    <linearGradient gradientTransform="matrix(-0.0089, -0.0028, 0.0022, -0.007, -9.7, 11.15)" gradientUnits="userSpaceOnUse" id="gradient1" spreadMethod="pad" x1="-819.2" x2="819.2">
      <stop offset="0.0" stop-color="#009bb7"/>
      <stop offset="1.0" stop-color="#000000"/>
    </linearGradient>
    <linearGradient gradientTransform="matrix(0.0054, -6.0E-4, 0.0012, 0.0112, 4.9, -3.4)" gradientUnits="userSpaceOnUse" id="gradient2" spreadMethod="pad" x1="-819.2" x2="819.2">
      <stop offset="0.0" stop-color="#ff3366"/>
      <stop offset="1.0" stop-color="#000000"/>
    </linearGradient>
    <linearGradient gradientTransform="matrix(0.0088, 0.0, 0.0, 0.0081, 7.0, 11.05)" gradientUnits="userSpaceOnUse" id="gradient3" spreadMethod="pad" x1="-819.2" x2="819.2">
      <stop offset="0.0" stop-color="#009bb7"/>
      <stop offset="1.0" stop-color="#000000"/>
    </linearGradient>
  </defs>
</svg>
