<?xml version="1.0" encoding="UTF-8" standalone="no"?>
<svg xmlns:xlink="http://www.w3.org/1999/xlink" height="78.25px" width="88.65px" xmlns="http://www.w3.org/2000/svg">
  <g transform="matrix(1.0, 0.0, 0.0, 1.0, 44.3, 39.1)">
    <path d="M0.6 17.45 Q-5.15 17.25 -7.8 11.85 -11.1 5.0 -10.35 -2.75 -9.65 -9.55 -5.6 -15.0 -4.6 -16.3 -3.2 -17.1 -2.9 -16.35 -3.9 -15.45 L-5.4 -13.65 -5.65 -13.2 -3.95 -12.25 Q-2.4 -13.15 -0.6 -13.45 -0.25 -12.65 -1.55 -12.1 L-2.85 -11.45 -1.6 -10.45 Q0.65 -8.45 2.25 -5.65 4.8 -1.05 5.65 4.1 L5.65 4.3 5.6 4.5 5.6 4.55 Q6.4 8.8 5.2 12.5 L7.85 9.7 Q8.85 8.65 10.05 7.95 10.4 2.35 9.7 -3.25 8.75 -11.45 2.85 -16.9 L1.1 -18.2 Q-1.85 -20.35 -5.25 -21.7 -10.75 -23.85 -16.7 -23.55 L-16.85 -23.6 Q-16.55 -24.8 -15.4 -25.5 -13.9 -27.3 -11.75 -28.55 L-8.1 -30.55 -10.85 -31.0 Q-12.05 -31.1 -12.9 -31.75 -14.95 -26.75 -20.2 -25.3 -21.65 -24.85 -22.6 -25.6 -19.0 -28.65 -17.45 -32.85 -22.65 -32.7 -26.1 -36.5 -26.45 -29.05 -31.9 -23.55 L-32.65 -22.7 -35.55 -19.25 Q-39.85 -13.35 -42.0 -6.4 -43.1 -2.85 -42.95 0.9 L-42.45 6.25 -41.9 8.95 Q-41.45 11.55 -40.4 13.9 -37.35 20.65 -31.35 25.15 L-29.45 26.45 Q-29.5 25.15 -29.15 23.85 L-28.75 22.9 Q-28.25 21.65 -27.2 20.6 L-26.55 20.0 Q-21.8 15.75 -15.4 18.35 -11.35 20.0 -7.0 19.9 -2.8 19.8 0.55 17.65 L0.7 17.45 0.6 17.45 M-12.5 -26.7 L-14.3 -25.05 -14.35 -25.05 -14.7 -24.7 -14.85 -24.55 Q-6.85 -24.55 0.2 -20.35 L2.05 -19.2 2.2 -19.0 2.25 -18.95 Q3.6 -18.2 4.6 -16.95 L4.85 -16.7 Q8.95 -12.8 10.3 -6.95 12.0 0.1 11.3 7.25 L12.4 6.8 Q15.2 6.75 16.25 9.25 L16.35 9.35 Q21.45 11.5 27.0 10.5 29.8 8.4 33.25 7.1 L33.75 6.9 34.2 6.75 35.35 6.45 36.15 6.25 37.05 6.05 Q42.65 5.55 44.1 10.55 45.0 13.6 42.8 15.95 42.05 16.75 41.2 17.0 L41.15 17.05 41.05 17.2 Q41.7 20.0 39.15 22.1 36.05 24.7 31.85 24.8 L30.7 24.65 30.55 24.65 Q20.9 30.85 10.1 35.05 3.3 37.65 -3.85 38.75 -12.35 40.1 -20.15 36.95 -25.65 34.7 -28.5 29.6 L-29.2 27.95 Q-33.7 26.0 -36.7 22.0 L-37.1 21.8 -37.35 21.35 -37.35 21.25 Q-42.3 15.05 -43.85 7.4 L-44.15 4.65 Q-44.75 -1.4 -43.1 -7.2 -41.85 -11.7 -39.3 -15.6 -35.15 -22.3 -30.1 -28.4 -28.55 -30.25 -27.7 -32.55 -26.8 -34.95 -26.85 -37.4 -27.25 -38.05 -27.05 -38.55 L-26.9 -39.05 -26.85 -39.1 -26.65 -38.7 Q-22.85 -34.0 -16.9 -34.2 L-16.6 -34.15 -16.6 -34.2 -16.35 -34.1 -16.15 -34.05 -16.1 -33.75 -16.1 -33.7 -16.1 -33.4 Q-16.15 -30.6 -18.45 -28.45 L-20.6 -26.35 -18.6 -26.95 Q-15.95 -28.5 -14.6 -31.05 L-13.3 -32.9 -13.2 -32.95 -12.9 -32.8 -12.9 -32.75 Q-8.65 -31.65 -4.25 -31.6 L-4.1 -31.45 Q-5.9 -30.0 -8.3 -28.85 L-12.5 -26.7 M-15.0 -10.45 L-14.9 -11.95 -14.75 -12.6 Q-14.1 -17.25 -10.0 -19.55 L-9.7 -19.65 Q-9.3 -19.6 -9.2 -19.2 L-9.2 -19.1 -9.3 -18.95 -9.4 -18.75 Q-13.75 -15.25 -14.2 -9.7 L-14.3 -9.4 Q-14.85 -9.45 -14.95 -10.25 L-15.0 -10.45 M4.8 14.55 L4.25 15.15 1.55 18.3 1.1 18.7 Q-1.45 20.9 -5.2 21.3 L-9.35 21.1 -15.0 19.45 Q-19.4 17.6 -23.65 19.55 L-24.95 20.3 -25.55 20.8 -27.0 22.35 -27.45 23.55 Q-28.2 24.8 -28.1 26.3 -27.8 30.1 -24.6 32.6 -18.8 37.1 -11.45 37.65 -3.95 38.2 3.2 36.05 10.3 33.9 17.0 30.75 23.1 27.8 28.7 24.1 L29.7 23.4 31.9 23.3 31.95 23.4 32.45 23.25 35.3 22.7 Q38.05 22.3 39.5 19.95 L39.95 18.3 40.0 18.0 39.85 17.05 39.85 17.0 37.15 16.6 Q34.6 16.5 32.1 17.7 L31.95 17.7 31.7 17.65 Q28.4 19.75 25.2 22.05 18.85 26.55 11.35 28.65 1.2 31.5 -9.3 30.65 -13.5 30.3 -17.15 28.35 -18.25 27.8 -18.55 26.85 L-19.4 27.65 -19.75 27.95 -19.8 28.2 -19.9 28.9 -20.0 28.95 -20.05 29.05 -20.25 29.2 -20.7 29.15 -20.9 29.0 -20.95 28.0 -20.75 27.15 Q-19.2 25.05 -16.65 24.45 L-15.4 24.3 -15.1 24.25 -14.45 24.35 -14.2 24.4 -13.85 24.65 -13.7 24.9 -13.65 25.2 -14.55 25.25 Q-16.3 25.35 -17.65 26.2 -16.2 27.3 -14.6 28.05 -10.85 29.85 -6.4 29.8 5.3 29.75 16.15 25.4 21.0 23.45 25.25 20.5 L31.5 16.0 Q34.1 14.05 37.05 13.15 37.55 13.25 37.8 13.65 L37.8 13.75 35.15 15.4 35.9 15.3 36.25 15.25 Q38.85 14.8 40.65 16.1 41.15 15.05 42.1 14.2 43.25 13.1 43.0 11.55 42.15 6.8 37.0 7.55 L34.75 7.95 33.5 8.4 Q30.05 9.6 27.3 11.95 L22.7 15.45 22.6 15.3 22.6 15.1 22.7 14.7 22.75 14.55 25.35 11.85 Q21.0 12.55 16.7 10.95 L16.6 10.9 Q15.3 10.6 14.35 9.25 L14.15 8.9 13.35 8.35 12.2 8.3 Q8.2 10.7 5.0 14.3 L4.8 14.55 M-7.7 -9.0 L-5.75 -10.95 -4.7 -11.75 -5.95 -12.7 Q-7.0 -10.95 -7.7 -9.0 M-2.5 -9.8 L-3.7 -10.95 -6.35 -8.7 Q-7.8 -7.05 -8.4 -4.95 L-8.65 -4.55 Q-9.05 -2.2 -9.05 0.1 L-9.05 0.25 Q-9.05 2.25 -8.7 4.3 L-7.9 7.95 Q-7.15 10.55 -5.65 12.85 -3.15 16.6 1.2 15.75 -1.05 14.7 -1.85 12.0 L-2.2 10.7 2.35 7.0 -2.4 7.45 -2.3 6.1 Q-1.9 2.95 -0.35 0.15 0.75 -1.35 2.45 -2.05 L2.55 -2.05 Q1.45 -4.6 -0.15 -6.95 -1.25 -8.5 -2.5 -9.8" fill="#000000" fill-rule="evenodd" stroke="none"/>
    <path d="M-32.65 -22.7 L-31.9 -23.55 Q-26.45 -29.05 -26.1 -36.5 -22.65 -32.7 -17.45 -32.85 -19.0 -28.65 -22.6 -25.6 -21.65 -24.85 -20.2 -25.3 -14.95 -26.75 -12.9 -31.75 -12.05 -31.1 -10.85 -31.0 L-8.1 -30.55 -11.75 -28.55 Q-13.9 -27.3 -15.4 -25.5 -16.55 -24.8 -16.85 -23.6 L-16.7 -23.55 Q-10.75 -23.85 -5.25 -21.7 -1.85 -20.35 1.1 -18.2 L2.85 -16.9 Q8.75 -11.45 9.7 -3.25 10.4 2.35 10.05 7.95 8.85 8.65 7.85 9.7 L5.2 12.5 Q6.4 8.8 5.6 4.55 L5.6 4.5 5.65 4.3 5.65 4.1 Q4.8 -1.05 2.25 -5.65 0.65 -8.45 -1.6 -10.45 L-2.85 -11.45 -1.55 -12.1 Q-0.25 -12.65 -0.6 -13.45 -2.4 -13.15 -3.95 -12.25 L-5.65 -13.2 -5.4 -13.65 -3.9 -15.45 Q-2.9 -16.35 -3.2 -17.1 -4.6 -16.3 -5.6 -15.0 -9.65 -9.55 -10.35 -2.75 -11.1 5.0 -7.8 11.85 -5.15 17.25 0.6 17.45 L0.55 17.65 Q-2.8 19.8 -7.0 19.9 -11.35 20.0 -15.4 18.35 -21.8 15.75 -26.55 20.0 -27.75 19.45 -28.65 18.55 L-29.5 17.65 Q-31.9 15.2 -33.45 12.1 L-33.85 11.05 -34.85 8.05 Q-36.6 3.65 -36.7 -1.15 -36.85 -6.1 -36.05 -10.9 L-35.6 -13.15 -34.6 -17.35 Q-33.9 -20.2 -32.65 -22.7 M-15.0 -10.45 L-14.95 -10.25 Q-14.85 -9.45 -14.3 -9.4 L-14.2 -9.7 Q-13.75 -15.25 -9.4 -18.75 L-9.3 -18.95 -9.2 -19.1 -9.2 -19.2 Q-9.3 -19.6 -9.7 -19.65 L-10.0 -19.55 Q-14.1 -17.25 -14.75 -12.6 L-14.9 -11.95 -15.0 -10.45 M-7.7 -9.0 Q-7.0 -10.95 -5.95 -12.7 L-4.7 -11.75 -5.75 -10.95 -7.7 -9.0" fill="#55bb65" fill-rule="evenodd" stroke="none"/>
    <path d="M-32.65 -22.7 Q-33.9 -20.2 -34.6 -17.35 L-35.6 -13.15 -36.05 -10.9 Q-36.85 -6.1 -36.7 -1.15 -36.6 3.65 -34.85 8.05 L-33.85 11.05 -33.45 12.1 Q-31.9 15.2 -29.5 17.65 L-28.65 18.55 Q-27.75 19.45 -26.55 20.0 L-27.2 20.6 Q-28.25 21.65 -28.75 22.9 L-29.15 23.85 Q-29.5 25.15 -29.45 26.45 L-31.35 25.15 Q-37.35 20.65 -40.4 13.9 -41.45 11.55 -41.9 8.95 L-42.45 6.25 -42.95 0.9 Q-43.1 -2.85 -42.0 -6.4 -39.85 -13.35 -35.55 -19.25 L-32.65 -22.7" fill="#43a752" fill-rule="evenodd" stroke="none"/>
    <path d="M32.45 23.25 L31.95 23.4 31.9 23.3 29.7 23.4 28.7 24.1 Q23.1 27.8 17.0 30.75 10.3 33.9 3.2 36.05 -3.95 38.2 -11.45 37.65 -18.8 37.1 -24.6 32.6 -27.8 30.1 -28.1 26.3 -28.2 24.8 -27.45 23.55 L-27.0 22.35 -25.55 20.8 -24.95 20.3 -23.65 19.55 Q-19.4 17.6 -15.0 19.45 L-9.35 21.1 -5.2 21.3 Q-1.45 20.9 1.1 18.7 L1.55 18.3 4.25 15.15 4.8 14.55 4.85 14.6 Q2.75 19.15 -1.65 21.2 L-4.5 22.25 -6.7 22.8 Q-9.55 23.35 -12.2 24.2 L-12.45 24.3 Q-12.95 24.6 -13.7 24.9 L-13.85 24.65 -14.2 24.4 -14.45 24.35 -15.1 24.25 -15.4 24.3 -16.65 24.45 Q-19.2 25.05 -20.75 27.15 L-20.95 28.0 -20.9 29.0 -20.7 29.15 -20.25 29.2 -20.05 29.05 -20.0 28.95 -19.9 28.9 -19.8 28.2 -19.75 27.95 -19.4 27.65 -18.55 26.85 Q-18.25 27.8 -17.15 28.35 -13.5 30.3 -9.3 30.65 1.2 31.5 11.35 28.65 18.85 26.55 25.2 22.05 28.4 19.75 31.7 17.65 L31.95 17.7 32.1 17.7 Q34.6 16.5 37.15 16.6 37.5 17.3 37.3 18.35 36.75 21.05 34.3 22.4 L32.45 23.25" fill="#e05512" fill-rule="evenodd" stroke="none"/>
    <path d="M32.45 23.25 L34.3 22.4 Q36.75 21.05 37.3 18.35 37.5 17.3 37.15 16.6 L39.85 17.0 39.85 17.05 40.0 18.0 39.95 18.3 39.5 19.95 Q38.05 22.3 35.3 22.7 L32.45 23.25 M-13.7 24.9 Q-12.95 24.6 -12.45 24.3 L-12.2 24.2 Q-9.55 23.35 -6.7 22.8 L-4.5 22.25 -1.65 21.2 Q2.75 19.15 4.85 14.6 L4.8 14.55 5.0 14.3 Q8.2 10.7 12.2 8.3 L13.35 8.35 14.15 8.9 14.35 9.25 Q15.3 10.6 16.6 10.9 L16.7 10.95 Q21.0 12.55 25.35 11.85 L22.75 14.55 22.7 14.7 22.6 15.1 22.6 15.3 22.7 15.45 27.3 11.95 Q30.05 9.6 33.5 8.4 L34.75 7.95 37.0 7.55 Q42.15 6.8 43.0 11.55 43.25 13.1 42.1 14.2 41.15 15.05 40.65 16.1 38.85 14.8 36.25 15.25 L35.9 15.3 35.15 15.4 37.8 13.75 37.8 13.65 Q37.55 13.25 37.05 13.15 34.1 14.05 31.5 16.0 L25.25 20.5 Q21.0 23.45 16.15 25.4 5.3 29.75 -6.4 29.8 -10.85 29.85 -14.6 28.05 -16.2 27.3 -17.65 26.2 -16.3 25.35 -14.55 25.25 L-13.65 25.2 -13.7 24.9" fill="#f07942" fill-rule="evenodd" stroke="none"/>
    <path d="M-9.05 0.1 Q-8.65 -1.95 -7.5 -3.65 L-7.25 -4.15 Q-6.9 -5.5 -6.0 -6.25 L-5.65 -6.6 Q-4.25 -8.45 -2.5 -9.8 -1.25 -8.5 -0.15 -6.95 1.45 -4.6 2.55 -2.05 L2.45 -2.05 Q0.75 -1.35 -0.35 0.15 -1.9 2.95 -2.3 6.1 L-2.4 7.45 2.35 7.0 -2.2 10.7 -1.85 12.0 Q-1.05 14.7 1.2 15.75 -3.15 16.6 -5.65 12.85 -7.15 10.55 -7.9 7.95 L-8.7 4.3 Q-9.05 2.25 -9.05 0.25 L-9.05 0.1" fill="#ffffff" fill-rule="evenodd" stroke="none"/>
    <path d="M-2.5 -9.8 Q-4.25 -8.45 -5.65 -6.6 L-6.0 -6.25 Q-6.9 -5.5 -7.25 -4.15 L-7.5 -3.65 Q-8.65 -1.95 -9.05 0.1 -9.05 -2.2 -8.65 -4.55 L-8.4 -4.95 Q-7.8 -7.05 -6.35 -8.7 L-3.7 -10.95 -2.5 -9.8" fill="#cccccc" fill-rule="evenodd" stroke="none"/>
  </g>
</svg>
