<?xml version="1.0" encoding="UTF-8" standalone="no"?>
<svg xmlns:xlink="http://www.w3.org/1999/xlink" height="31.0px" width="73.25px" xmlns="http://www.w3.org/2000/svg">
  <g transform="matrix(1.0, 0.0, 0.0, 1.0, 36.35, 11.4)">
    <path d="M-10.4 -11.4 Q-6.85 -10.6 -3.45 -9.2 -1.0 -8.15 1.65 -7.7 L7.4 -7.25 7.5 -7.25 Q12.4 -7.3 17.3 -8.5 L23.95 -9.85 Q29.6 -11.2 34.1 -8.0 L34.3 -7.85 Q37.35 -5.55 36.85 -1.95 L36.6 -0.85 Q36.0 1.25 34.55 2.8 L32.1 4.75 Q25.6 8.35 17.95 8.05 L13.65 7.6 Q8.15 7.6 2.7 6.1 0.45 5.45 -1.65 4.45 L-1.65 4.5 Q-5.8 11.2 -12.7 15.35 -20.2 19.75 -28.7 19.6 -32.05 19.55 -34.75 17.95 L-35.8 17.1 -35.8 16.8 -35.85 16.65 -35.75 16.6 Q-36.7 15.5 -36.2 13.55 -35.05 9.15 -32.5 5.35 -27.0 -2.95 -18.1 -7.6 L-11.85 -11.1 -11.5 -11.0 -11.0 -11.25 -10.4 -11.4 M12.9 -6.35 L8.65 -6.1 Q0.7 -5.75 -6.7 -9.0 -8.25 -9.7 -9.8 -10.0 -10.9 -10.2 -11.8 -9.55 L-11.95 -9.55 Q-12.65 -8.7 -13.85 -8.15 L-16.5 -6.9 Q-22.9 -3.45 -28.05 1.75 -33.3 7.1 -34.85 14.3 L-34.8 16.05 -34.55 16.45 -34.5 16.5 -34.4 16.55 Q-26.2 17.05 -19.5 11.95 L-14.45 8.3 -14.45 8.65 -14.45 8.75 -15.85 10.3 -16.7 11.1 Q-21.25 15.45 -27.5 17.45 L-30.2 18.0 Q-21.2 18.85 -13.3 14.25 -8.7 11.55 -5.3 7.35 L-2.35 3.9 -2.35 3.7 -2.3 3.6 -2.25 3.55 -2.1 3.35 -2.0 3.3 -1.8 3.2 Q4.95 5.6 12.1 6.35 14.45 6.0 16.95 6.45 L22.25 6.7 Q29.85 6.05 34.65 0.4 L34.7 0.35 34.95 0.0 35.3 -0.65 35.6 -1.95 Q35.85 -4.7 34.3 -6.35 33.3 -7.4 31.7 -8.0 27.3 -9.65 22.55 -8.5 L13.15 -6.5 13.0 -6.45 12.9 -6.35" fill="#000000" fill-rule="evenodd" stroke="none"/>
    <path d="M-16.7 11.1 L-15.85 10.3 -14.45 8.75 -14.15 9.05 -15.75 10.4 -16.7 11.1" fill="#888fdd" fill-rule="evenodd" stroke="none"/>
    <path d="M35.3 -0.65 L34.95 0.0 34.65 -0.2 35.3 -0.65" fill="#5a63cf" fill-rule="evenodd" stroke="none"/>
    <path d="M34.95 0.0 L34.7 0.35 34.65 0.4 Q29.85 6.05 22.25 6.7 L16.95 6.45 Q14.45 6.0 12.1 6.35 4.95 5.6 -1.8 3.2 L-2.0 3.3 -2.1 3.35 -2.25 3.55 -2.3 3.6 -2.35 3.7 -2.35 3.9 -5.3 7.35 Q-8.7 11.55 -13.3 14.25 -21.2 18.85 -30.2 18.0 L-27.5 17.45 Q-21.25 15.45 -16.7 11.1 L-15.75 10.4 -14.15 9.05 Q-11.4 6.6 -8.95 3.85 -7.9 2.6 -6.4 2.05 -5.8 1.75 -5.2 1.6 -2.05 0.5 1.25 0.6 L2.75 0.9 Q7.05 2.35 11.7 2.5 L18.75 2.55 27.7 2.15 Q29.85 1.95 31.9 1.2 33.4 0.6 34.65 -0.2 L34.95 0.0" fill="#0db5c8" fill-rule="evenodd" stroke="none"/>
    <path d="M-34.55 16.45 L-34.8 16.05 -34.85 14.3 Q-33.3 7.1 -28.05 1.75 -22.9 -3.45 -16.5 -6.9 L-13.85 -8.15 Q-12.65 -8.7 -11.95 -9.55 L-11.8 -9.55 Q-10.9 -10.2 -9.8 -10.0 -8.25 -9.7 -6.7 -9.0 0.7 -5.75 8.65 -6.1 L12.9 -6.35 13.15 -6.5 22.55 -8.5 Q27.3 -9.65 31.7 -8.0 33.3 -7.4 34.3 -6.35 35.85 -4.7 35.6 -1.95 L35.3 -0.65 34.65 -0.2 Q33.4 0.6 31.9 1.2 29.85 1.95 27.7 2.15 L18.75 2.55 11.7 2.5 Q7.05 2.35 2.75 0.9 L1.25 0.6 Q-2.05 0.5 -5.2 1.6 -5.8 1.75 -6.4 2.05 -7.9 2.6 -8.95 3.85 -11.4 6.6 -14.15 9.05 L-14.45 8.75 -14.45 8.65 -14.45 8.3 -19.5 11.95 Q-26.2 17.05 -34.4 16.55 L-34.55 16.45" fill="#0ecfe4" fill-rule="evenodd" stroke="none"/>
  </g>
</svg>
