<?xml version="1.0" encoding="UTF-8" standalone="no"?>
<svg xmlns:xlink="http://www.w3.org/1999/xlink" height="54.85px" width="105.85px" xmlns="http://www.w3.org/2000/svg">
  <g transform="matrix(1.0, 0.0, 0.0, 1.0, 52.9, 27.4)">
    <path d="M5.55 -11.7 L5.55 -11.8 5.6 -11.8 5.55 -11.7" fill="#ffffff" fill-rule="evenodd" stroke="none"/>
    <path d="M3.45 -13.65 Q8.75 -12.0 14.25 -11.0 21.6 -9.7 28.35 -6.5 29.8 -5.8 31.05 -4.9 L33.6 -5.15 34.3 -5.35 34.15 -5.55 35.4 -5.95 36.75 -6.45 Q38.35 -7.3 39.85 -8.35 L41.55 -9.65 41.75 -9.55 Q44.0 -11.35 46.55 -12.5 L47.25 -12.75 Q49.0 -12.9 50.5 -12.3 L50.7 -12.2 50.75 -12.1 50.8 -12.0 50.9 -11.9 Q53.65 -10.2 52.7 -6.95 L52.6 -6.6 Q52.2 -4.8 51.0 -3.5 L51.2 -3.0 50.85 -3.35 Q49.65 -2.2 47.8 -1.45 L46.55 -0.55 Q43.05 1.85 38.85 3.25 L37.0 3.55 Q37.45 6.7 35.35 9.85 31.1 16.2 24.55 20.05 18.1 23.85 10.85 25.6 5.5 26.9 0.0 27.3 L-1.55 27.4 -6.1 27.4 -10.35 27.1 -13.8 26.55 -16.05 26.0 Q-18.45 25.2 -20.5 23.7 L-23.2 23.5 Q-24.3 23.05 -25.45 22.75 -32.9 20.9 -38.6 15.9 -40.65 16.7 -42.35 18.0 -43.5 20.0 -45.55 20.0 L-46.0 19.7 Q-49.05 13.85 -49.1 7.3 L-50.9 7.0 -51.1 6.9 Q-51.05 2.9 -52.25 -0.9 L-52.5 -0.6 Q-53.2 -4.2 -52.7 -8.0 L-52.5 -9.55 Q-51.45 -15.3 -48.15 -19.95 L-47.95 -19.95 -47.9 -20.0 -47.65 -20.05 -47.65 -20.1 Q-45.2 -18.0 -42.15 -17.55 L-42.1 -17.65 -41.9 -17.95 -41.9 -18.05 -41.9 -18.15 -41.85 -18.25 Q-39.65 -21.45 -36.5 -23.8 -32.3 -26.95 -27.0 -27.35 -21.55 -27.65 -16.55 -25.7 L-15.75 -25.4 -15.6 -25.3 -15.5 -25.2 -14.8 -24.6 -14.75 -24.65 -14.55 -24.8 -14.55 -25.15 Q-14.1 -25.85 -13.25 -25.8 -10.0 -24.45 -9.1 -20.85 L-8.85 -19.9 Q-5.4 -17.3 -1.45 -15.5 L2.95 -13.8 3.45 -13.65 M2.95 -12.45 L0.4 -13.35 0.35 -13.35 0.35 -13.3 -0.85 -13.7 -0.85 -13.85 -1.05 -13.95 Q-2.85 -14.75 -4.55 -15.65 L-6.9 -17.1 -6.65 -16.3 -7.3 -16.9 -8.0 -17.05 -8.2 -17.05 -8.25 -17.5 -8.3 -17.75 -8.45 -17.5 -8.5 -17.5 Q-10.05 -18.0 -10.4 -19.9 -10.95 -22.95 -13.35 -24.5 L-13.5 -24.6 -13.55 -24.3 -13.65 -24.0 -13.65 -23.95 Q-11.9 -17.45 -12.3 -10.4 -12.75 -2.95 -13.8 4.35 L-14.0 5.75 -14.1 6.45 Q-15.2 12.6 -17.25 18.55 -18.05 20.8 -19.45 22.75 L-19.55 22.85 -19.45 23.0 -15.4 24.55 -15.15 24.15 -15.05 24.25 -13.85 24.85 -14.0 25.0 -13.9 25.0 -9.65 25.9 -6.55 26.25 -6.45 26.15 -6.4 26.2 -5.6 26.4 -4.1 26.35 -1.0 26.25 -0.2 26.2 0.3 26.15 0.35 26.15 2.25 25.8 2.05 26.0 8.05 24.95 8.05 24.9 Q13.55 24.0 19.05 21.45 L22.05 19.9 23.55 19.1 Q25.3 18.15 26.9 17.0 L27.05 16.5 28.9 15.4 28.85 15.45 32.5 11.8 Q35.1 8.75 35.7 4.9 L35.8 3.7 35.75 3.65 35.65 3.4 Q34.0 -1.4 29.6 -4.05 L27.65 -5.5 27.2 -5.9 26.6 -6.1 26.45 -6.2 25.8 -6.5 Q23.3 -7.7 20.9 -8.0 L20.75 -8.05 Q15.0 -10.45 8.45 -11.05 L5.6 -11.8 5.55 -11.8 5.55 -11.7 5.6 -11.55 4.5 -11.9 4.45 -12.05 4.15 -12.15 2.95 -12.45 M40.45 -7.1 Q38.6 -5.65 36.5 -4.6 L35.3 -4.15 35.25 -4.25 33.95 -3.85 32.7 -3.55 33.0 -3.25 34.15 -2.05 34.5 -1.6 35.55 -0.05 35.6 -0.05 35.75 0.05 Q36.5 1.35 36.85 2.6 L37.0 2.55 37.0 2.45 37.75 2.2 38.7 1.85 41.6 0.6 44.55 -0.9 44.55 -0.95 45.65 -1.6 45.7 -1.7 46.3 -2.0 49.05 -3.95 Q50.5 -5.35 51.45 -7.15 L51.75 -8.0 51.65 -8.45 Q51.65 -9.4 51.1 -10.2 L50.75 -10.6 49.0 -11.2 47.25 -11.4 42.05 -8.5 40.45 -7.1 M-16.35 -23.8 L-16.9 -24.15 Q-18.2 -25.1 -19.85 -25.5 -29.9 -27.95 -37.25 -21.35 -39.6 -19.25 -41.4 -16.8 L-41.4 -16.75 -41.6 -16.4 Q-45.15 -16.2 -47.7 -18.7 -50.9 -13.25 -51.55 -7.0 L-51.65 -5.8 -51.55 -2.2 Q-50.15 1.65 -49.75 5.9 L-49.75 6.0 Q-45.95 6.2 -42.3 4.55 -41.95 4.4 -41.8 4.7 L-41.9 5.1 -42.0 5.25 Q-43.35 6.2 -44.75 6.75 -40.8 12.75 -34.75 17.05 -28.35 21.55 -20.4 22.3 L-20.35 22.3 -17.75 16.3 -15.8 8.25 -15.75 8.05 -15.35 5.45 -15.25 4.5 -14.0 -6.3 Q-13.3 -13.7 -14.3 -21.0 L-14.6 -23.1 Q-15.5 -23.3 -16.35 -23.8 M-44.95 18.8 Q-42.7 16.2 -39.5 15.1 L-40.55 14.1 -42.55 12.05 Q-44.75 9.8 -45.9 7.1 L-47.9 7.35 Q-47.8 13.2 -45.2 18.5 L-45.05 18.9 -44.95 18.8" fill="#000000" fill-rule="evenodd" stroke="none"/>
    <path d="M-19.45 23.0 L-19.55 22.85 -19.45 22.75 -19.45 23.0" fill="#c90303" fill-rule="evenodd" stroke="none"/>
    <path d="M-51.55 -7.0 Q-50.9 -13.25 -47.7 -18.7 -45.15 -16.2 -41.6 -16.4 L-41.4 -16.75 -41.4 -16.8 Q-39.6 -19.25 -37.25 -21.35 -29.9 -27.95 -19.85 -25.5 -18.2 -25.1 -16.9 -24.15 L-16.35 -23.8 -15.5 -19.65 -15.1 -17.45 Q-14.7 -13.35 -14.75 -9.2 -14.8 -6.5 -15.5 -3.95 L-15.8 -2.45 Q-16.2 0.95 -17.75 4.1 L-18.15 4.95 -19.9 4.35 -21.3 3.75 Q-24.75 2.2 -27.85 0.1 L-29.05 -0.8 -31.6 -3.45 Q-32.75 -4.85 -34.35 -5.25 L-34.85 -5.3 -35.35 -5.3 -36.35 -5.1 -36.85 -5.0 -38.6 -4.75 -39.85 -4.65 -41.35 -4.55 -47.85 -5.1 Q-50.05 -5.55 -51.55 -7.0" fill="#7f7f7f" fill-rule="evenodd" stroke="none"/>
    <path d="M-51.55 -7.0 Q-50.05 -5.55 -47.85 -5.1 L-41.35 -4.55 -39.85 -4.65 -38.6 -4.75 -36.85 -5.0 -36.35 -5.1 -35.35 -5.3 -34.85 -5.3 -34.35 -5.25 Q-32.75 -4.85 -31.6 -3.45 L-29.05 -0.8 -27.85 0.1 Q-24.75 2.2 -21.3 3.75 L-19.9 4.35 -18.15 4.95 -17.75 4.1 Q-16.2 0.95 -15.8 -2.45 L-15.5 -3.95 Q-14.8 -6.5 -14.75 -9.2 -14.7 -13.35 -15.1 -17.45 L-15.5 -19.65 -16.35 -23.8 Q-15.5 -23.3 -14.6 -23.1 L-14.3 -21.0 Q-13.3 -13.7 -14.0 -6.3 L-15.25 4.5 -15.35 5.45 -15.75 8.05 -15.8 8.25 -17.75 16.3 -20.35 22.3 -20.4 22.3 Q-28.35 21.55 -34.75 17.05 -40.8 12.75 -44.75 6.75 -43.35 6.2 -42.0 5.25 L-41.9 5.1 -41.8 4.7 Q-41.95 4.4 -42.3 4.55 -45.95 6.2 -49.75 6.0 L-49.75 5.9 Q-50.15 1.65 -51.55 -2.2 L-51.65 -5.8 -51.55 -7.0 M-45.2 18.5 Q-47.8 13.2 -47.9 7.35 L-45.9 7.1 Q-44.75 9.8 -42.55 12.05 L-40.55 14.1 -39.5 15.1 Q-42.7 16.2 -44.95 18.8 L-45.2 18.5" fill="#696969" fill-rule="evenodd" stroke="none"/>
    <path d="M2.95 -12.45 L4.15 -12.15 4.45 -12.05 4.5 -11.9 5.6 -11.55 5.55 -11.7 5.6 -11.8 8.45 -11.05 Q15.0 -10.45 20.75 -8.05 L20.9 -8.0 Q23.3 -7.7 25.8 -6.5 L26.45 -6.2 26.6 -6.1 27.2 -5.9 27.65 -5.5 29.6 -4.05 Q34.0 -1.4 35.65 3.4 L35.75 3.65 35.8 3.7 35.7 4.9 Q35.1 8.75 32.5 11.8 L28.85 15.45 28.9 15.4 27.05 16.5 26.9 17.0 Q25.3 18.15 23.55 19.1 L22.05 19.9 19.05 21.45 Q13.55 24.0 8.05 24.9 L8.05 24.95 2.05 26.0 2.25 25.8 0.35 26.15 0.3 26.15 -0.2 26.2 -1.0 26.25 -0.35 24.8 -0.1 23.8 Q0.1 22.55 0.85 21.45 1.55 20.45 1.85 19.2 2.3 17.3 2.9 15.45 L3.65 12.0 3.7 11.4 4.0 9.2 4.15 8.4 4.3 7.4 4.55 5.2 4.85 1.6 4.9 0.8 4.75 -2.8 4.65 -3.6 4.55 -4.6 4.05 -8.4 3.9 -9.2 3.15 -11.8 2.95 -12.45 M-5.6 26.4 L-6.4 26.2 -6.45 26.15 -6.55 26.25 -9.65 25.9 -9.5 25.35 -7.6 20.2 -6.7 17.2 -4.8 9.6 -4.65 8.6 -3.9 2.4 -3.65 -1.0 -3.55 -8.8 Q-3.5 -12.35 -4.55 -15.65 -2.85 -14.75 -1.05 -13.95 L-0.7 -12.75 -0.55 -12.2 -0.45 -11.2 0.0 -7.4 0.05 -6.8 0.3 -5.0 0.45 -3.6 0.65 0.4 0.55 1.45 Q0.4 1.8 0.4 2.2 L0.05 6.2 Q-0.4 10.1 -1.15 13.8 L-2.3 17.85 -3.0 20.0 Q-4.1 23.4 -5.6 26.4 M-13.9 25.0 L-14.0 25.0 -13.85 24.85 -13.9 25.0 M-15.05 24.25 L-15.15 24.15 -15.4 24.55 -19.45 23.0 -19.45 22.75 Q-18.05 20.8 -17.25 18.55 -15.2 12.6 -14.1 6.45 L-14.0 5.75 -13.8 4.35 Q-12.75 -2.95 -12.3 -10.4 -11.9 -17.45 -13.65 -23.95 L-13.65 -24.0 -13.55 -24.3 -13.35 -24.5 Q-10.95 -22.95 -10.4 -19.9 -10.05 -18.0 -8.5 -17.5 L-8.45 -17.5 -8.25 -17.5 -8.2 -17.05 -8.35 -17.05 Q-7.75 -14.3 -7.8 -11.4 L-7.9 -7.2 -8.0 -3.4 Q-8.0 -1.7 -8.25 0.0 L-8.4 1.2 -8.9 4.0 -9.6 7.8 Q-10.25 11.35 -11.45 14.8 L-11.9 16.6 -12.2 17.8 Q-13.45 21.15 -15.05 24.25 M0.35 -13.3 L0.35 -13.35 0.4 -13.35 0.35 -13.3" fill="#f02d0b" fill-rule="evenodd" stroke="none"/>
    <path d="M0.4 -13.35 L2.95 -12.45 3.15 -11.8 3.9 -9.2 4.05 -8.4 4.55 -4.6 4.65 -3.6 4.75 -2.8 4.9 0.8 4.85 1.6 4.55 5.2 4.3 7.4 4.15 8.4 4.0 9.2 3.7 11.4 3.65 12.0 2.9 15.45 Q2.3 17.3 1.85 19.2 1.55 20.45 0.85 21.45 0.1 22.55 -0.1 23.8 L-0.35 24.8 -1.0 26.25 -4.1 26.35 -5.6 26.4 Q-4.1 23.4 -3.0 20.0 L-2.3 17.85 -1.15 13.8 Q-0.4 10.1 0.05 6.2 L0.4 2.2 Q0.4 1.8 0.55 1.45 L0.65 0.4 0.45 -3.6 0.3 -5.0 0.05 -6.8 0.0 -7.4 -0.45 -11.2 -0.55 -12.2 -0.7 -12.75 -1.05 -13.95 -0.85 -13.85 -0.85 -13.7 0.35 -13.3 0.4 -13.35 M-9.65 25.9 L-13.9 25.0 -13.85 24.85 -15.05 24.25 Q-13.45 21.15 -12.2 17.8 L-11.9 16.6 -11.45 14.8 Q-10.25 11.35 -9.6 7.8 L-8.9 4.0 -8.4 1.2 -8.25 0.0 Q-8.0 -1.7 -8.0 -3.4 L-7.9 -7.2 -7.8 -11.4 Q-7.75 -14.3 -8.35 -17.05 L-8.2 -17.05 -8.0 -17.05 -7.3 -16.9 -6.65 -16.3 -6.9 -17.1 -4.55 -15.65 Q-3.5 -12.35 -3.55 -8.8 L-3.65 -1.0 -3.9 2.4 -4.65 8.6 -4.8 9.6 -6.7 17.2 -7.6 20.2 -9.5 25.35 -9.65 25.9" fill="#c62509" fill-rule="evenodd" stroke="none"/>
    <path d="M34.15 -2.05 L33.0 -3.25 32.7 -3.55 33.95 -3.85 35.25 -4.25 35.3 -4.15 36.5 -4.6 Q38.6 -5.65 40.45 -7.1 L41.25 -4.6 41.6 -2.95 41.4 -2.9 Q39.55 -2.3 37.65 -2.05 L36.15 -1.85 34.15 -2.05" fill="#0ecfe4" fill-rule="evenodd" stroke="none"/>
    <path d="M34.15 -2.05 L36.15 -1.85 37.65 -2.05 Q39.55 -2.3 41.4 -2.9 L41.6 -2.95 41.25 -4.6 40.45 -7.1 42.05 -8.5 47.25 -11.4 49.0 -11.2 50.75 -10.6 51.1 -10.2 Q51.65 -9.4 51.65 -8.45 L51.75 -8.0 51.45 -7.15 Q50.5 -5.35 49.05 -3.95 L46.3 -2.0 45.7 -1.7 45.65 -1.6 44.55 -0.95 44.55 -0.9 41.6 0.6 38.7 1.85 37.75 2.2 37.0 2.45 37.0 2.55 36.85 2.6 Q36.5 1.35 35.75 0.05 L35.6 -0.05 35.55 -0.05 34.5 -1.6 34.15 -2.05" fill="#0db5c8" fill-rule="evenodd" stroke="none"/>
  </g>
</svg>
