<?xml version="1.0" encoding="UTF-8" standalone="no"?>
<svg xmlns:xlink="http://www.w3.org/1999/xlink" height="72.6px" width="65.6px" xmlns="http://www.w3.org/2000/svg">
  <g transform="matrix(1.0, 0.0, 0.0, 1.0, 37.8, 36.3)">
    <path d="M25.5 -26.8 Q20.4 -21.45 14.85 -16.6 L8.65 -11.05 9.8 -9.25 Q12.55 -4.9 12.2 0.7 L11.8 2.8 12.05 3.1 12.1 3.1 12.45 3.6 Q15.0 7.3 12.7 11.7 L11.95 13.0 10.95 14.2 9.25 15.9 8.65 16.7 Q3.35 21.9 -1.2 27.75 -3.6 30.8 -6.7 33.1 L-6.9 33.2 Q-10.8 36.2 -16.35 36.3 L-18.25 36.3 Q-20.25 36.45 -22.3 35.6 -27.3 33.45 -30.9 29.55 L-31.5 28.8 -31.8 28.35 -32.05 27.95 Q-33.55 27.0 -34.4 25.55 -37.0 23.55 -37.6 19.8 -38.0 17.45 -37.65 15.2 L-37.45 14.2 Q-37.15 12.6 -36.45 11.1 L-35.7 9.6 Q-36.1 7.6 -35.6 5.65 -35.2 3.75 -33.75 2.6 -33.25 1.95 -32.45 1.65 L-31.4 1.35 -31.15 1.3 Q-28.95 1.05 -27.45 2.4 -22.95 0.8 -18.15 0.8 L-17.9 0.8 -16.85 0.8 -15.95 0.3 Q-16.2 -2.55 -15.45 -5.15 L-15.7 -5.2 -15.55 -5.65 Q-17.15 -5.9 -18.0 -7.85 L-17.85 -8.3 -17.75 -8.35 -17.65 -8.15 -17.65 -8.05 Q-16.65 -6.8 -15.25 -6.4 L-15.25 -6.45 -15.2 -6.55 Q-16.5 -7.2 -17.1 -8.6 -17.45 -9.3 -17.05 -9.6 -16.3 -8.0 -14.95 -7.3 L-14.9 -7.45 -14.8 -7.55 -15.0 -7.75 Q-16.2 -9.1 -15.85 -10.55 -15.6 -9.35 -14.75 -8.4 L-14.75 -8.3 -14.65 -8.25 -13.9 -10.7 -12.95 -12.4 Q-11.25 -14.55 -8.7 -15.55 L-6.95 -16.2 -6.05 -16.35 Q-7.95 -22.65 -7.95 -29.5 -8.0 -31.75 -6.6 -33.5 L-6.0 -34.05 -4.8 -34.8 -4.3 -35.0 Q-1.55 -34.85 -0.75 -32.05 1.25 -24.85 -0.1 -17.4 L-0.3 -16.2 Q1.85 -15.75 3.8 -14.75 6.65 -20.1 10.0 -25.2 13.2 -30.0 17.7 -33.75 20.35 -36.0 23.7 -36.3 27.7 -36.3 27.8 -32.7 27.85 -29.25 25.5 -26.8 M4.9 -10.05 Q3.75 -10.75 3.3 -12.3 L3.1 -12.45 3.0 -12.55 2.95 -12.8 3.0 -13.2 3.1 -13.5 3.35 -13.9 Q-0.8 -15.95 -5.95 -15.3 L-8.0 -14.95 -10.6 -13.15 -9.45 -13.3 Q-9.15 -12.35 -10.9 -11.85 L-12.2 -11.45 -12.95 -10.15 -13.0 -10.1 -12.95 -10.1 -12.8 -10.2 -12.65 -10.25 -12.2 -10.2 -11.85 -10.1 -11.7 -10.0 Q-10.4 -7.3 -11.25 -4.25 L-12.75 0.35 Q-11.7 0.8 -10.8 1.45 L-10.65 1.55 -10.5 1.7 -10.4 1.6 Q-10.85 -1.4 -9.75 -4.5 -8.85 -7.1 -7.05 -8.85 -5.55 -11.05 -2.8 -11.2 -0.4 -10.0 0.35 -7.7 1.4 -8.0 2.45 -8.6 L2.5 -8.65 Q1.7 -10.1 0.35 -11.35 L-0.55 -12.25 -3.25 -12.95 Q-2.6 -13.55 -1.45 -13.35 1.55 -12.75 3.05 -9.95 L3.1 -9.9 3.3 -9.35 3.45 -9.45 3.5 -9.45 3.35 -9.05 3.5 -7.8 3.35 -6.5 3.15 -7.1 Q2.1 -5.65 0.65 -5.35 L0.65 -5.0 Q2.3 -5.1 3.8 -6.2 L3.9 -6.2 Q3.05 -4.5 1.15 -4.0 L1.05 -3.95 0.55 -3.85 0.25 -2.0 Q-0.35 1.2 -2.1 3.65 0.4 4.65 2.95 4.75 6.35 4.85 9.7 3.25 L10.8 2.7 11.0 1.35 11.2 0.8 Q11.35 -3.95 9.55 -8.05 9.35 -8.15 9.3 -8.4 8.95 -9.2 8.3 -9.8 L7.9 -10.35 7.5 -10.0 7.45 -9.7 7.35 -9.5 Q5.9 -9.45 4.9 -10.05 M0.6 -6.35 Q1.9 -6.65 3.1 -7.25 L2.75 -8.15 Q1.95 -7.25 0.55 -6.75 L0.6 -6.35 M11.55 11.65 L11.9 11.2 Q12.9 9.95 12.9 8.4 L12.85 7.55 12.7 6.6 Q12.35 4.9 11.3 3.5 5.85 7.2 -0.85 5.25 -1.45 5.05 -2.0 4.8 L-2.7 4.4 -3.55 5.3 -4.45 6.1 -5.0 6.4 -5.25 6.5 -5.8 6.75 -6.25 6.9 Q-5.2 8.95 -4.7 11.3 L-4.65 11.6 Q-4.55 12.3 -4.85 12.9 L-5.25 11.55 -5.55 10.75 Q-7.1 6.15 -10.45 3.2 L-12.55 1.6 Q-13.65 1.1 -14.55 1.05 -17.05 0.95 -18.25 3.9 L-18.75 5.35 Q-19.35 7.65 -19.0 10.05 L-18.8 11.1 -18.8 11.15 -18.9 11.65 -19.0 11.75 -19.1 11.7 -19.35 11.45 -19.7 10.95 -19.75 10.85 -19.85 9.6 -19.9 7.85 Q-19.9 6.45 -19.55 5.15 L-19.35 4.55 Q-18.8 3.1 -17.85 1.85 L-17.8 1.85 -17.7 1.7 -17.7 1.65 -17.35 1.25 -17.75 1.6 -17.9 1.8 -17.9 1.85 -20.3 1.9 Q-24.5 2.2 -28.45 3.85 L-29.4 4.1 -29.5 4.0 -29.55 3.8 -29.55 3.75 -29.25 3.45 -29.2 3.35 -29.15 3.3 -29.15 3.25 -28.95 3.2 -28.7 3.05 -28.55 3.0 -28.65 2.9 -28.6 2.55 -31.2 2.4 -32.5 2.9 -32.75 3.0 Q-34.4 4.75 -34.5 7.15 L-34.5 7.95 -34.5 8.1 -34.1 7.65 -33.75 7.55 Q-33.75 8.1 -34.05 8.7 L-34.6 9.6 -34.6 9.65 -34.65 9.85 -34.75 9.85 -34.8 9.85 -35.25 10.4 -35.95 12.3 -36.15 13.0 -36.3 13.65 Q-37.35 18.6 -34.65 23.15 L-33.85 24.0 -33.75 24.1 -33.55 24.7 -31.7 26.75 -31.5 27.1 -31.4 27.2 Q-28.8 29.05 -25.0 29.2 -12.95 29.6 -4.0 21.55 L0.15 17.55 3.3 13.75 Q3.95 12.5 4.9 11.55 L3.25 11.7 3.2 11.6 3.15 11.45 3.15 11.25 Q3.25 11.0 3.55 10.9 L4.5 10.5 Q7.4 10.3 8.45 12.8 L8.45 12.85 8.4 12.95 8.0 13.2 Q7.1 12.15 6.0 11.8 L5.55 12.0 5.45 12.2 5.4 12.35 Q1.45 18.65 -4.55 23.3 -9.55 27.2 -15.5 29.05 -22.85 31.35 -30.05 28.9 L-30.25 28.85 -29.4 29.8 Q-26.25 33.2 -21.4 34.7 L-18.05 35.4 Q-11.05 35.6 -5.75 31.2 L-5.7 31.15 -4.9 30.35 -2.05 27.35 1.25 23.55 2.65 21.85 Q4.75 19.2 7.1 16.85 L11.55 11.65 M10.05 10.5 L10.1 10.6 10.1 10.65 10.1 10.75 10.05 10.75 10.05 10.5 M-12.5 -9.5 L-12.75 -9.1 -12.75 -9.05 -13.5 -7.75 -12.9 -7.35 -12.45 -7.45 -12.4 -7.5 -12.0 -7.5 -11.95 -8.55 -11.9 -9.0 -12.15 -9.3 -12.2 -9.45 -12.5 -9.5 M-13.05 -6.35 L-13.65 -6.15 -13.9 -6.0 -13.9 -5.85 -13.95 -5.75 -14.35 -5.65 -14.45 -5.55 -14.7 -4.75 Q-15.25 -2.9 -15.4 -0.9 L-15.25 -0.15 -15.25 0.1 -14.85 0.1 Q-15.1 -0.8 -14.8 -2.0 L-14.35 -3.0 -13.65 -3.75 -13.55 -3.8 -13.4 -3.85 -12.95 -3.85 -12.9 -3.85 -12.65 -3.8 -12.4 -3.75 -12.05 -6.75 -12.5 -6.65 -12.9 -6.5 -13.05 -6.35 M-3.9 -10.25 L-5.05 -9.6 -5.55 -9.05 -5.3 -9.0 Q-3.85 -8.55 -2.75 -7.5 L-1.0 -7.5 -0.75 -7.5 Q-1.3 -9.0 -2.55 -10.2 L-3.9 -10.25 M-4.4 -7.85 Q-5.1 -8.4 -5.9 -8.55 L-6.1 -8.6 Q-7.7 -7.05 -8.45 -4.85 -8.5 -4.65 -8.7 -4.6 L-9.2 -3.0 -8.65 -3.3 -8.4 -3.45 Q-4.95 -3.2 -4.7 0.35 L-4.65 0.9 Q-4.7 1.6 -4.9 2.3 L-5.7 3.95 -6.4 4.8 -7.25 5.2 -6.7 6.05 -5.7 5.9 -5.15 5.45 -3.1 3.3 Q-1.75 1.55 -1.0 -0.6 L-0.85 -1.1 -0.95 -1.2 -1.0 -1.5 Q-1.65 -4.2 -3.25 -6.4 L-4.4 -7.85 M-1.8 -6.45 L-1.8 -6.4 -1.05 -6.15 -0.6 -6.15 -0.4 -6.2 -0.45 -6.5 -0.65 -6.5 -1.8 -6.45 M-1.05 -5.2 L-0.6 -5.1 -0.55 -5.25 -1.15 -5.35 -1.05 -5.2 M-12.75 6.15 Q-10.45 7.4 -9.45 9.95 -8.55 12.2 -9.9 14.0 L-10.0 14.05 Q-11.25 14.4 -12.35 13.6 -14.7 11.3 -14.45 8.05 L-14.4 7.4 -14.3 7.2 -14.2 7.1 -14.2 6.9 -14.15 6.75 -13.75 6.35 -13.55 6.2 -12.95 6.15 -12.75 6.15" fill="#000000" fill-rule="evenodd" stroke="none"/>
    <path d="M-12.95 -10.15 L-12.2 -11.45 -10.9 -11.85 Q-9.15 -12.35 -9.45 -13.3 L-10.6 -13.15 -8.0 -14.95 -5.95 -15.3 Q-0.8 -15.95 3.35 -13.9 L3.1 -13.5 3.0 -13.2 2.95 -12.8 3.0 -12.55 3.1 -12.45 3.3 -12.3 Q3.75 -10.75 4.9 -10.05 L5.35 -8.05 5.5 -7.1 Q6.15 -2.1 3.65 2.15 L3.65 2.2 3.8 2.3 Q3.9 3.7 2.95 4.75 0.4 4.65 -2.1 3.65 -0.35 1.2 0.25 -2.0 L0.55 -3.85 1.05 -3.95 1.15 -4.0 Q3.05 -4.5 3.9 -6.2 L3.8 -6.2 Q2.3 -5.1 0.65 -5.0 L0.65 -5.35 Q2.1 -5.65 3.15 -7.1 L3.35 -6.5 3.5 -7.8 3.35 -9.05 3.5 -9.45 3.45 -9.45 3.3 -9.35 3.1 -9.9 3.05 -9.95 Q1.55 -12.75 -1.45 -13.35 -2.6 -13.55 -3.25 -12.95 L-0.55 -12.25 0.35 -11.35 Q1.7 -10.1 2.5 -8.65 L2.45 -8.6 Q1.4 -8.0 0.35 -7.7 -0.4 -10.0 -2.8 -11.2 -5.55 -11.05 -7.05 -8.85 -8.85 -7.1 -9.75 -4.5 -10.85 -1.4 -10.4 1.6 L-10.5 1.7 -10.65 1.55 -10.8 1.45 Q-11.7 0.8 -12.75 0.35 L-11.25 -4.25 Q-10.4 -7.3 -11.7 -10.0 L-11.85 -10.1 -12.2 -10.2 -12.65 -10.25 -12.8 -10.2 -12.95 -10.1 -12.95 -10.15 M0.6 -6.35 L0.55 -6.75 Q1.95 -7.25 2.75 -8.15 L3.1 -7.25 Q1.9 -6.65 0.6 -6.35 M-12.5 -9.5 L-12.2 -9.45 -12.15 -9.3 -11.9 -9.0 -11.95 -8.55 -12.0 -7.5 -12.4 -7.5 -12.45 -7.45 -12.9 -7.35 -13.5 -7.75 -12.75 -9.05 -12.75 -9.1 -12.5 -9.5 M-3.9 -10.25 L-2.55 -10.2 Q-1.3 -9.0 -0.75 -7.5 L-1.0 -7.5 -2.75 -7.5 Q-3.85 -8.55 -5.3 -9.0 L-5.55 -9.05 -5.05 -9.6 -3.9 -10.25 M-1.05 -5.2 L-1.15 -5.35 -0.55 -5.25 -0.6 -5.1 -1.05 -5.2 M-1.8 -6.45 L-0.65 -6.5 -0.45 -6.5 -0.4 -6.2 -0.6 -6.15 -1.05 -6.15 -1.8 -6.4 -1.8 -6.45" fill="#75640a" fill-rule="evenodd" stroke="none"/>
    <path d="M-13.05 -6.35 L-12.9 -6.5 -12.5 -6.65 -12.05 -6.75 -12.4 -3.75 -12.65 -3.8 -12.9 -3.85 -12.95 -3.85 -13.4 -3.85 -13.55 -3.8 -13.65 -3.75 -14.35 -3.0 -14.8 -2.0 Q-15.1 -0.8 -14.85 0.1 L-15.25 0.1 -15.25 -0.15 -15.4 -0.9 Q-15.25 -2.9 -14.7 -4.75 L-14.45 -5.55 -14.35 -5.65 -13.95 -5.75 -13.9 -5.85 -13.9 -6.0 -13.65 -6.15 -13.05 -6.35 M-4.4 -7.85 L-3.25 -6.4 Q-1.65 -4.2 -1.0 -1.5 L-0.95 -1.2 -0.85 -1.1 -1.0 -0.6 Q-1.75 1.55 -3.1 3.3 L-5.15 5.45 -5.7 5.9 -6.7 6.05 -7.25 5.2 -6.4 4.8 -5.7 3.95 -4.9 2.3 Q-4.7 1.6 -4.65 0.9 L-4.7 0.35 Q-4.95 -3.2 -8.4 -3.45 L-8.65 -3.3 -9.2 -3.0 -8.7 -4.6 Q-8.5 -4.65 -8.45 -4.85 -7.7 -7.05 -6.1 -8.6 L-5.9 -8.55 Q-5.1 -8.4 -4.4 -7.85" fill="#ffffff" fill-rule="evenodd" stroke="none"/>
    <path d="M2.95 4.75 Q3.9 3.7 3.8 2.3 L3.65 2.2 3.65 2.15 Q6.15 -2.1 5.5 -7.1 L5.35 -8.05 4.9 -10.05 Q5.9 -9.45 7.35 -9.5 L7.45 -9.7 7.5 -10.0 7.9 -10.35 8.3 -9.8 Q8.95 -9.2 9.3 -8.4 9.35 -8.15 9.55 -8.05 11.35 -3.95 11.2 0.8 L11.0 1.35 10.8 2.7 9.7 3.25 Q6.35 4.85 2.95 4.75" fill="#5f5300" fill-rule="evenodd" stroke="none"/>
    <path d="M-19.85 9.6 L-20.25 9.45 -20.6 9.35 Q-21.45 9.0 -22.05 8.3 L-22.5 7.6 -22.85 6.55 -22.95 6.05 Q-23.15 4.8 -22.45 3.85 L-22.1 3.5 Q-21.3 2.8 -20.25 2.4 -19.2 1.95 -17.9 1.85 L-17.85 1.85 Q-18.8 3.1 -19.35 4.55 L-19.55 5.15 Q-19.9 6.45 -19.9 7.85 L-19.85 9.6 M-36.3 13.65 Q-35.55 13.2 -34.65 12.9 L-33.0 12.35 -31.6 12.1 -26.5 12.55 -22.6 13.65 Q-21.7 14.0 -21.4 14.45 L-20.65 15.15 Q-17.75 17.0 -14.6 18.15 L-13.6 18.4 -10.25 18.75 -8.6 18.85 -7.55 18.7 Q-2.55 17.55 -0.35 14.25 L0.4 13.55 Q2.3 12.45 3.65 10.25 L4.15 9.7 4.35 9.55 5.35 9.1 5.45 9.25 Q6.55 8.65 7.85 8.65 10.05 9.0 10.05 10.5 L10.05 10.75 10.1 10.75 10.45 10.3 11.0 10.8 11.1 10.95 11.55 11.65 7.1 16.85 Q4.75 19.2 2.65 21.85 L1.25 23.55 -2.05 27.35 -4.9 30.35 -5.7 31.15 -5.75 31.2 Q-11.05 35.6 -18.05 35.4 L-21.4 34.7 Q-26.25 33.2 -29.4 29.8 L-30.25 28.85 -30.05 28.9 Q-22.85 31.35 -15.5 29.05 -9.55 27.2 -4.55 23.3 1.45 18.65 5.4 12.35 L5.45 12.2 5.55 12.0 6.0 11.8 Q7.1 12.15 8.0 13.2 L8.4 12.95 8.45 12.85 8.45 12.8 Q7.4 10.3 4.5 10.5 L3.55 10.9 Q3.25 11.0 3.15 11.25 L3.15 11.45 3.2 11.6 3.25 11.7 4.9 11.55 Q3.95 12.5 3.3 13.75 L0.15 17.55 -4.0 21.55 Q-12.95 29.6 -25.0 29.2 -28.8 29.05 -31.4 27.2 L-31.5 27.1 -31.4 27.0 -31.7 26.75 -33.55 24.7 -33.75 24.1 -33.85 24.0 -34.65 23.15 Q-37.35 18.6 -36.3 13.65 M-1.3 21.6 L-0.95 21.25 -0.85 21.2 -1.45 21.6 -1.3 21.6 M-11.35 29.1 L-11.65 29.4 -11.25 29.2 -11.3 29.15 -11.35 29.1 M-15.8 30.4 L-15.85 30.45 -15.95 30.6 -15.7 30.55 -15.75 30.5 -15.8 30.4" fill="#c19b6b" fill-rule="evenodd" stroke="none"/>
    <path d="M-19.85 9.6 L-19.75 10.85 -19.7 10.95 -19.35 11.45 -19.1 11.7 -19.0 11.75 -18.9 11.65 -18.8 11.15 -18.8 11.1 -19.0 10.05 Q-19.35 7.65 -18.75 5.35 L-18.25 3.9 Q-17.05 0.95 -14.55 1.05 -13.65 1.1 -12.55 1.6 L-10.45 3.2 Q-7.1 6.15 -5.55 10.75 L-5.25 11.55 -4.85 12.9 Q-4.55 12.3 -4.65 11.6 L-4.7 11.3 Q-5.2 8.95 -6.25 6.9 L-5.8 6.75 -5.25 6.5 -5.0 6.4 -4.45 6.1 -3.55 5.3 -2.7 4.4 -2.0 4.8 Q-1.45 5.05 -0.85 5.25 5.85 7.2 11.3 3.5 12.35 4.9 12.7 6.6 L12.85 7.55 12.9 8.4 Q12.9 9.95 11.9 11.2 L11.55 11.65 11.1 10.95 11.0 10.8 10.45 10.3 10.1 10.75 10.1 10.65 10.1 10.6 10.05 10.5 Q10.05 9.0 7.85 8.65 6.55 8.65 5.45 9.25 L5.35 9.1 4.35 9.55 4.15 9.7 3.65 10.25 Q2.3 12.45 0.4 13.55 L-0.35 14.25 Q-2.55 17.55 -7.55 18.7 L-8.6 18.85 -10.25 18.75 -13.6 18.4 -14.6 18.15 Q-17.75 17.0 -20.65 15.15 L-21.4 14.45 Q-21.7 14.0 -22.6 13.65 L-26.5 12.55 -31.6 12.1 -33.0 12.35 -34.65 12.9 Q-35.55 13.2 -36.3 13.65 L-36.15 13.0 -35.95 12.3 -35.25 10.4 -34.8 9.85 -34.75 9.85 -34.65 9.85 -34.6 9.65 -34.6 9.6 -34.05 8.7 Q-33.75 8.1 -33.75 7.55 L-34.1 7.65 -34.5 8.1 -34.5 7.95 -34.5 7.15 Q-34.4 4.75 -32.75 3.0 L-32.5 2.9 -31.2 2.4 -28.6 2.55 -28.65 2.9 -28.55 3.0 -28.7 3.05 -28.95 3.2 -29.15 3.25 -29.15 3.3 -29.2 3.35 -29.25 3.45 -29.55 3.75 -29.55 3.8 -29.5 4.0 -29.4 4.1 -28.45 3.85 Q-24.5 2.2 -20.3 1.9 L-17.9 1.85 Q-19.2 1.95 -20.25 2.4 -21.3 2.8 -22.1 3.5 L-22.45 3.85 Q-23.15 4.8 -22.95 6.05 L-22.85 6.55 -22.5 7.6 -22.05 8.3 Q-21.45 9.0 -20.6 9.35 L-20.25 9.45 -19.85 9.6 M-31.5 27.1 L-31.7 26.75 -31.4 27.0 -31.5 27.1 M-12.75 6.15 L-12.95 6.15 -13.55 6.2 -13.75 6.35 -14.15 6.75 -14.2 6.9 -14.2 7.1 -14.3 7.2 -14.4 7.4 -14.45 8.05 Q-14.7 11.3 -12.35 13.6 -11.25 14.4 -10.0 14.05 L-9.9 14.0 Q-8.55 12.2 -9.45 9.95 -10.45 7.4 -12.75 6.15 M-17.75 1.6 L-17.7 1.65 -17.7 1.7 -17.8 1.85 -17.85 1.85 -17.9 1.85 -17.9 1.8 -17.75 1.6 M-15.8 30.4 L-15.75 30.5 -15.7 30.55 -15.95 30.6 -15.85 30.45 -15.8 30.4 M-11.35 29.1 L-11.3 29.15 -11.25 29.2 -11.65 29.4 -11.35 29.1 M-1.3 21.6 L-1.45 21.6 -0.85 21.2 -0.95 21.25 -1.3 21.6" fill="#cfb392" fill-rule="evenodd" stroke="none"/>
  </g>
</svg>
