<?xml version="1.0" encoding="UTF-8" standalone="no"?>
<svg xmlns:xlink="http://www.w3.org/1999/xlink" height="69.75px" width="70.4px" xmlns="http://www.w3.org/2000/svg">
  <g transform="matrix(1.0, 0.0, 0.0, 1.0, 39.5, 34.75)">
    <path d="M30.9 -29.2 Q30.6 -25.8 28.0 -23.6 22.4 -18.8 16.35 -14.5 L9.65 -9.65 Q10.35 -8.75 10.65 -7.7 12.95 -3.1 12.05 2.4 L11.4 4.5 11.65 4.8 11.7 4.8 12.0 5.35 Q14.1 9.25 11.45 13.4 L10.55 14.65 9.45 15.7 7.55 17.25 6.9 17.95 Q1.1 22.65 -4.05 28.0 -6.75 30.8 -10.0 32.75 L-10.25 32.8 Q-14.45 35.4 -19.95 34.95 L-21.85 34.75 Q-23.85 34.7 -25.8 33.65 -30.55 31.0 -33.75 26.8 L-34.3 26.0 -34.55 25.5 -34.75 25.1 Q-36.1 24.0 -36.8 22.45 -39.2 20.2 -39.45 16.45 -39.6 14.05 -39.0 11.85 L-38.7 10.85 Q-38.25 9.35 -37.4 7.9 L-36.5 6.45 Q-36.7 4.45 -36.0 2.55 -35.45 0.7 -33.85 -0.3 -33.3 -0.9 -32.5 -1.1 L-31.45 -1.3 -31.2 -1.3 Q-28.95 -1.35 -27.6 0.15 -23.0 -1.0 -18.2 -0.5 L-17.95 -0.5 -16.9 -0.4 -15.95 -0.8 Q-15.9 -3.65 -14.9 -6.15 L-15.15 -6.2 -14.95 -6.65 Q-16.5 -7.05 -17.15 -9.1 L-16.95 -9.55 -16.85 -9.6 -16.8 -9.35 -16.8 -9.25 Q-15.9 -7.9 -14.55 -7.4 L-14.55 -7.45 -14.5 -7.5 Q-15.75 -8.3 -16.2 -9.75 -16.45 -10.5 -16.05 -10.75 -15.45 -9.1 -14.15 -8.25 L-14.1 -8.4 -14.0 -8.5 -14.15 -8.7 Q-15.25 -10.15 -14.75 -11.6 -14.6 -10.35 -13.85 -9.35 L-13.85 -9.25 -13.75 -9.15 -12.85 -11.55 -11.7 -13.15 Q-9.8 -15.1 -7.15 -15.8 L-5.35 -16.3 -4.4 -16.35 Q-5.7 -22.85 -5.0 -29.65 -4.8 -31.9 -3.25 -33.45 L-2.6 -33.95 -1.3 -34.6 -0.85 -34.75 Q1.9 -34.3 2.4 -31.5 3.7 -24.05 1.6 -16.8 L1.25 -15.65 Q3.4 -14.95 5.25 -13.75 8.55 -18.85 12.45 -23.55 16.1 -28.05 20.95 -31.3 23.8 -33.25 27.15 -33.2 31.15 -32.8 30.9 -29.2 M5.8 -9.0 Q4.8 -9.8 4.5 -11.4 L4.3 -11.6 4.2 -11.7 4.2 -11.95 4.25 -12.35 4.4 -12.65 4.7 -13.0 Q0.75 -15.45 -4.4 -15.3 L-6.5 -15.15 Q-7.95 -14.6 -9.3 -13.65 L-8.1 -13.7 Q-7.9 -12.7 -9.7 -12.4 L-11.05 -12.1 -11.95 -10.9 -12.0 -10.85 -11.95 -10.85 -11.8 -10.95 -11.6 -10.95 -11.2 -10.85 -10.85 -10.75 -10.7 -10.6 Q-9.65 -7.8 -10.8 -4.9 -11.75 -2.6 -12.8 -0.45 L-10.95 0.85 -10.8 1.0 -10.65 1.15 -10.55 1.05 Q-10.7 -2.0 -9.3 -5.0 -8.15 -7.45 -6.15 -9.0 -4.45 -11.05 -1.75 -10.95 0.55 -9.5 1.05 -7.1 2.15 -7.3 3.25 -7.8 L3.3 -7.85 Q2.65 -9.4 1.45 -10.75 L0.65 -11.75 -2.0 -12.75 -0.15 -12.95 Q2.8 -12.05 4.0 -9.1 L4.05 -9.05 4.2 -8.45 4.35 -8.55 4.4 -8.55 4.2 -8.15 4.25 -6.9 3.95 -5.6 3.8 -6.25 Q2.6 -4.9 1.15 -4.75 L1.1 -4.4 Q2.75 -4.3 4.35 -5.25 L4.45 -5.25 Q3.45 -3.7 1.5 -3.4 L1.4 -3.35 0.9 -3.3 0.4 -1.45 Q-0.5 1.65 -2.5 3.95 -0.1 5.2 2.4 5.5 5.75 5.95 9.25 4.7 L10.45 4.3 10.75 2.95 11.0 2.4 Q11.65 -2.3 10.25 -6.55 L10.05 -6.9 9.2 -8.4 8.85 -9.0 8.4 -8.7 8.3 -8.4 8.2 -8.2 Q6.75 -8.3 5.8 -9.0 M1.2 -5.75 Q2.5 -5.9 3.8 -6.4 L3.5 -7.3 Q2.65 -6.5 1.2 -6.15 L1.2 -5.75 M10.3 13.25 L10.7 12.85 Q11.8 11.7 11.95 10.15 L12.0 9.3 11.95 8.3 Q11.75 6.6 10.85 5.15 5.05 8.25 -1.45 5.6 L-2.55 5.05 -3.2 4.65 -4.15 5.4 -5.1 6.1 -5.65 6.35 -5.9 6.4 -6.5 6.6 -6.95 6.7 Q-6.1 8.9 -5.85 11.3 L-5.85 11.6 Q-5.85 12.3 -6.15 12.85 -6.45 12.3 -6.4 11.45 -6.4 11.0 -6.65 10.65 -7.7 5.9 -10.75 2.65 L-12.7 0.85 Q-13.75 0.25 -14.6 0.1 -17.1 -0.25 -18.6 2.55 L-19.25 3.9 Q-20.05 6.15 -19.95 8.6 L-19.85 9.65 -19.85 9.7 -20.0 10.2 -20.15 10.3 -20.2 10.25 -20.45 9.95 -20.75 9.45 -20.8 9.3 -20.75 8.05 -20.65 6.3 Q-20.5 4.9 -20.0 3.65 L-19.75 3.1 Q-19.05 1.7 -18.0 0.55 L-17.95 0.55 -17.8 0.45 -17.8 0.4 -17.45 0.0 -17.85 0.3 -18.05 0.5 -18.05 0.55 -20.45 0.35 Q-24.6 0.25 -28.75 1.5 L-29.7 1.65 -29.8 1.55 -29.85 1.35 -29.85 1.3 -29.5 1.0 -29.45 0.9 -29.4 0.9 -29.4 0.85 -29.15 0.8 -28.9 0.65 -28.75 0.65 -28.85 0.55 -28.75 0.2 Q-29.95 -0.45 -31.35 -0.25 L-32.7 0.15 -32.9 0.2 Q-34.75 1.75 -35.05 4.15 L-35.15 4.95 -35.15 5.1 -34.7 4.7 -34.35 4.6 Q-34.4 5.15 -34.75 5.75 L-35.4 6.6 -35.4 6.65 -35.5 6.85 -35.6 6.8 -35.65 6.8 -36.15 7.3 -37.05 9.15 -37.3 9.85 -37.5 10.45 Q-39.05 15.25 -36.8 20.1 L-36.1 20.95 -36.0 21.05 -35.9 21.7 -34.3 23.9 -34.1 24.3 -34.05 24.4 Q-31.6 26.5 -27.85 27.05 -15.9 28.65 -6.2 21.55 -3.85 19.85 -1.65 17.95 L1.85 14.55 Q2.65 13.35 3.65 12.5 2.9 12.35 2.05 12.5 L2.0 12.35 1.95 12.2 1.95 12.0 Q2.1 11.8 2.4 11.7 L3.4 11.4 Q6.25 11.5 7.05 14.1 L7.05 14.15 7.0 14.25 6.6 14.45 Q5.8 13.3 4.7 12.85 L4.25 13.0 4.15 13.2 4.05 13.35 Q-0.45 19.2 -6.95 23.2 -12.3 26.6 -18.35 27.85 -25.95 29.4 -32.85 26.25 L-33.05 26.15 -32.3 27.2 Q-29.5 30.85 -24.85 32.85 L-21.55 33.9 Q-14.6 34.8 -8.9 30.95 L-8.8 30.95 -7.95 30.2 -4.85 27.5 -1.15 24.05 0.4 22.5 5.3 17.95 10.3 13.25 M8.9 11.95 L8.95 12.05 8.95 12.1 8.9 12.2 8.85 12.2 8.9 11.95 M-11.55 -10.2 L-11.85 -9.85 -11.85 -9.8 -12.7 -8.55 -12.15 -8.1 -11.7 -8.15 -11.65 -8.2 -11.25 -8.15 -11.1 -9.2 -11.0 -9.65 -11.2 -9.95 -11.25 -10.1 -11.55 -10.2 M-12.4 -7.1 L-13.05 -6.95 -13.3 -6.85 -13.3 -6.7 -13.35 -6.6 -13.75 -6.55 -13.85 -6.45 -14.15 -5.65 Q-14.9 -3.95 -15.25 -1.95 L-15.2 -1.2 -15.2 -0.95 -14.8 -0.9 Q-14.95 -1.8 -14.55 -3.0 L-14.0 -3.95 -13.25 -4.6 -13.15 -4.65 -13.0 -4.7 -12.55 -4.65 -12.5 -4.65 -12.25 -4.55 -12.0 -4.5 Q-11.6 -5.9 -11.35 -7.4 L-11.85 -7.35 -12.25 -7.25 -12.4 -7.1 M-2.9 -10.1 L-4.1 -9.55 -4.65 -9.05 -4.4 -9.0 Q-3.05 -8.4 -2.05 -7.25 L-0.3 -7.05 -0.05 -7.05 Q-0.45 -8.6 -1.6 -9.9 L-2.9 -10.1 M-3.65 -7.75 L-5.05 -8.6 -5.25 -8.65 Q-7.0 -7.25 -7.95 -5.15 L-8.25 -4.95 -8.9 -3.4 -8.3 -3.65 -8.05 -3.8 Q-4.65 -3.2 -4.75 0.4 L-4.8 0.95 -5.15 2.3 Q-5.45 3.15 -6.1 3.9 L-6.9 4.6 Q-7.35 4.85 -7.75 4.9 L-7.3 5.85 -6.3 5.8 -5.7 5.4 Q-4.5 4.55 -3.5 3.5 -1.95 1.85 -1.0 -0.2 L-0.8 -0.7 -0.9 -0.8 -0.9 -1.1 Q-1.3 -3.85 -2.65 -6.2 L-3.65 -7.75 M-1.2 -6.05 L-0.5 -5.7 -0.05 -5.65 0.15 -5.7 0.15 -6.0 -0.05 -6.0 -1.2 -6.1 -1.2 -6.05 M-0.6 -4.75 L-0.15 -4.6 -0.05 -4.75 -0.65 -4.9 -0.6 -4.75 M-13.35 5.3 Q-11.2 6.8 -10.45 9.45 -9.75 11.8 -11.3 13.4 L-11.4 13.45 Q-12.7 13.65 -13.7 12.8 -15.8 10.3 -15.2 7.05 L-15.1 6.4 -14.95 6.2 -14.85 6.15 -14.85 5.95 -14.8 5.8 -14.4 5.4 -14.15 5.3 -13.55 5.3 -13.35 5.3" fill="#000000" fill-rule="evenodd" stroke="none"/>
    <path d="M-11.95 -10.9 L-11.05 -12.1 -9.7 -12.4 Q-7.9 -12.7 -8.1 -13.7 L-9.3 -13.65 Q-7.95 -14.6 -6.5 -15.15 L-4.4 -15.3 Q0.75 -15.45 4.7 -13.0 L4.4 -12.65 4.25 -12.35 4.2 -11.95 4.2 -11.7 4.3 -11.6 4.5 -11.4 Q4.8 -9.8 5.8 -9.0 L6.05 -6.95 6.1 -6.0 Q6.25 -1.0 3.4 3.0 L3.4 3.05 3.5 3.2 Q3.5 4.6 2.4 5.5 -0.1 5.2 -2.5 3.95 -0.5 1.65 0.4 -1.45 L0.9 -3.3 1.4 -3.35 1.5 -3.4 Q3.45 -3.7 4.45 -5.25 L4.35 -5.25 Q2.75 -4.3 1.1 -4.4 L1.15 -4.75 Q2.6 -4.9 3.8 -6.25 L3.95 -5.6 4.25 -6.9 4.2 -8.15 4.4 -8.55 4.35 -8.55 4.2 -8.45 4.05 -9.05 4.0 -9.1 Q2.8 -12.05 -0.15 -12.95 L-2.0 -12.75 0.65 -11.75 1.45 -10.75 Q2.65 -9.4 3.3 -7.85 L3.25 -7.8 Q2.15 -7.3 1.05 -7.1 0.55 -9.5 -1.75 -10.95 -4.45 -11.05 -6.15 -9.0 -8.15 -7.45 -9.3 -5.0 -10.7 -2.0 -10.55 1.05 L-10.65 1.15 -10.8 1.0 -10.95 0.85 -12.8 -0.45 Q-11.75 -2.6 -10.8 -4.9 -9.65 -7.8 -10.7 -10.6 L-10.85 -10.75 -11.2 -10.85 -11.6 -10.95 -11.8 -10.95 -11.95 -10.85 -11.95 -10.9 M1.2 -5.75 L1.2 -6.15 Q2.65 -6.5 3.5 -7.3 L3.8 -6.4 Q2.5 -5.9 1.2 -5.75 M-11.55 -10.2 L-11.25 -10.1 -11.2 -9.95 -11.0 -9.65 -11.1 -9.2 -11.25 -8.15 -11.65 -8.2 -11.7 -8.15 -12.15 -8.1 -12.7 -8.55 -11.85 -9.8 -11.85 -9.85 -11.55 -10.2 M-2.9 -10.1 L-1.6 -9.9 Q-0.45 -8.6 -0.05 -7.05 L-0.3 -7.05 -2.05 -7.25 Q-3.05 -8.4 -4.4 -9.0 L-4.65 -9.05 -4.1 -9.55 -2.9 -10.1 M-0.6 -4.75 L-0.65 -4.9 -0.05 -4.75 -0.15 -4.6 -0.6 -4.75 M-1.2 -6.05 L-1.2 -6.1 -0.05 -6.0 0.15 -6.0 0.15 -5.7 -0.05 -5.65 -0.5 -5.7 -1.2 -6.05" fill="#75640a" fill-rule="evenodd" stroke="none"/>
    <path d="M2.4 5.5 Q3.5 4.6 3.5 3.2 L3.4 3.05 3.4 3.0 Q6.25 -1.0 6.1 -6.0 L6.05 -6.95 5.8 -9.0 Q6.75 -8.3 8.2 -8.2 L8.3 -8.4 8.4 -8.7 8.85 -9.0 9.2 -8.4 10.05 -6.9 10.25 -6.55 Q11.65 -2.3 11.0 2.4 L10.75 2.95 10.45 4.3 9.25 4.7 Q5.75 5.95 2.4 5.5" fill="#5f5300" fill-rule="evenodd" stroke="none"/>
    <path d="M10.3 13.25 L9.9 12.5 9.8 12.35 9.3 11.8 8.9 12.2 8.95 12.1 8.95 12.05 8.9 11.95 Q9.05 10.45 6.9 9.9 L4.4 10.25 4.35 10.1 3.35 10.45 3.15 10.55 2.55 11.05 Q1.0 13.15 -1.0 14.05 L-1.85 14.6 Q-4.35 17.7 -9.4 18.35 L-10.5 18.4 -12.15 18.1 -15.45 17.45 -16.35 17.1 Q-19.4 15.6 -22.1 13.5 L-22.8 12.7 Q-23.05 12.25 -23.9 11.85 -25.7 10.9 -27.65 10.35 -30.05 9.6 -32.7 9.4 L-34.1 9.5 -35.8 9.9 -37.5 10.45 -37.3 9.85 -37.05 9.15 -36.15 7.3 -35.65 6.8 -35.6 6.8 -35.5 6.85 -35.4 6.65 -35.4 6.6 -34.75 5.75 Q-34.4 5.15 -34.35 4.6 L-34.7 4.7 -35.15 5.1 -35.15 4.95 -35.05 4.15 Q-34.75 1.75 -32.9 0.2 L-32.7 0.15 -31.35 -0.25 Q-29.95 -0.45 -28.75 0.2 L-28.85 0.55 -28.75 0.65 -28.9 0.65 -29.15 0.8 -29.4 0.85 -29.4 0.9 -29.45 0.9 -29.5 1.0 -29.85 1.3 -29.85 1.35 -29.8 1.55 -29.7 1.65 -28.75 1.5 Q-24.6 0.25 -20.45 0.35 L-18.05 0.55 -20.45 0.85 Q-21.55 1.15 -22.4 1.8 L-22.8 2.1 Q-23.6 2.95 -23.5 4.2 L-23.45 4.7 -23.2 5.8 -22.85 6.55 -21.5 7.75 -21.15 7.85 -20.75 8.05 -20.8 9.3 -20.75 9.45 -20.45 9.95 -20.2 10.25 -20.15 10.3 -20.0 10.2 -19.85 9.7 -19.85 9.65 -19.95 8.6 Q-20.05 6.15 -19.25 3.9 L-18.6 2.55 Q-17.1 -0.25 -14.6 0.1 -13.75 0.25 -12.7 0.85 L-10.75 2.65 Q-7.7 5.9 -6.65 10.65 -6.4 11.0 -6.4 11.45 -6.45 12.3 -6.15 12.85 -5.85 12.3 -5.85 11.6 L-5.85 11.3 Q-6.1 8.9 -6.95 6.7 L-6.5 6.6 -5.9 6.4 -5.65 6.35 -5.1 6.1 -4.15 5.4 -3.2 4.65 -2.55 5.05 -1.45 5.6 Q5.05 8.25 10.85 5.15 11.75 6.6 11.95 8.3 L12.0 9.3 11.95 10.15 Q11.8 11.7 10.7 12.85 L10.3 13.25 M-34.1 24.3 L-34.3 23.9 -34.0 24.2 -34.1 24.3 M-13.35 5.3 L-13.55 5.3 -14.15 5.3 -14.4 5.4 -14.8 5.8 -14.85 5.95 -14.85 6.15 -14.95 6.2 -15.1 6.4 -15.2 7.05 Q-15.8 10.3 -13.7 12.8 -12.7 13.65 -11.4 13.45 L-11.3 13.4 Q-9.75 11.8 -10.45 9.45 -11.2 6.8 -13.35 5.3 M-17.85 0.3 L-17.8 0.4 -17.8 0.45 -17.95 0.55 -18.0 0.55 -18.05 0.55 -18.05 0.5 -17.85 0.3 M-3.5 21.85 L-3.65 21.85 -3.0 21.5 -3.15 21.55 -3.5 21.85 M-18.8 29.15 L-18.75 29.25 -18.7 29.35 -18.95 29.35 -18.85 29.2 -18.8 29.15 M-14.6 28.6 L-14.25 28.3 -14.2 28.35 -14.2 28.4 -14.6 28.6" fill="#cfb392" fill-rule="evenodd" stroke="none"/>
    <path d="M8.9 12.2 L9.3 11.8 9.8 12.35 9.9 12.5 10.3 13.25 5.3 17.95 0.4 22.5 -1.15 24.05 -4.85 27.5 -7.95 30.2 -8.8 30.95 -8.9 30.95 Q-14.6 34.8 -21.55 33.9 L-24.85 32.85 Q-29.5 30.85 -32.3 27.2 L-33.05 26.15 -32.85 26.25 Q-25.95 29.4 -18.35 27.85 -12.3 26.6 -6.95 23.2 -0.45 19.2 4.05 13.35 L4.15 13.2 4.25 13.0 4.7 12.85 Q5.8 13.3 6.6 14.45 L7.0 14.25 7.05 14.15 7.05 14.1 Q6.25 11.5 3.4 11.4 L2.4 11.7 Q2.1 11.8 1.95 12.0 L1.95 12.2 2.0 12.35 2.05 12.5 Q2.9 12.35 3.65 12.5 2.65 13.35 1.85 14.55 L-1.65 17.95 Q-3.85 19.85 -6.2 21.55 -15.9 28.65 -27.85 27.05 -31.6 26.5 -34.05 24.4 L-34.1 24.3 -34.0 24.2 -34.3 23.9 -35.9 21.7 -36.0 21.05 -36.1 20.95 -36.8 20.1 Q-39.05 15.25 -37.5 10.45 L-35.8 9.9 -34.1 9.5 -32.7 9.4 Q-30.05 9.6 -27.65 10.35 -25.7 10.9 -23.9 11.85 -23.05 12.25 -22.8 12.7 L-22.1 13.5 Q-19.4 15.6 -16.35 17.1 L-15.45 17.45 -12.15 18.1 -10.5 18.4 -9.4 18.35 Q-4.35 17.7 -1.85 14.6 L-1.0 14.05 Q1.0 13.15 2.55 11.05 L3.15 10.55 3.35 10.45 4.35 10.1 4.4 10.25 6.9 9.9 Q9.05 10.45 8.9 11.95 L8.85 12.2 8.9 12.2 M-20.75 8.05 L-21.15 7.85 -21.5 7.75 -22.85 6.55 -23.2 5.8 -23.45 4.7 -23.5 4.2 Q-23.6 2.95 -22.8 2.1 L-22.4 1.8 Q-21.55 1.15 -20.45 0.85 L-18.05 0.55 -18.0 0.55 Q-19.05 1.7 -19.75 3.1 L-20.0 3.65 Q-20.5 4.9 -20.65 6.3 L-20.75 8.05 M-3.5 21.85 L-3.15 21.55 -3.0 21.5 -3.65 21.85 -3.5 21.85 M-14.6 28.6 L-14.2 28.4 -14.2 28.35 -14.25 28.3 -14.6 28.6 M-18.8 29.15 L-18.85 29.2 -18.95 29.35 -18.7 29.35 -18.75 29.25 -18.8 29.15" fill="#c19b6b" fill-rule="evenodd" stroke="none"/>
    <path d="M-12.4 -7.1 L-12.25 -7.25 -11.85 -7.35 -11.35 -7.4 Q-11.6 -5.9 -12.0 -4.5 L-12.25 -4.55 -12.5 -4.65 -12.55 -4.65 -13.0 -4.7 -13.15 -4.65 -13.25 -4.6 -14.0 -3.95 -14.55 -3.0 Q-14.95 -1.8 -14.8 -0.9 L-15.2 -0.95 -15.2 -1.2 -15.25 -1.95 Q-14.9 -3.95 -14.15 -5.65 L-13.85 -6.45 -13.75 -6.55 -13.35 -6.6 -13.3 -6.7 -13.3 -6.85 -13.05 -6.95 -12.4 -7.1 M-3.65 -7.75 L-2.65 -6.2 Q-1.3 -3.85 -0.9 -1.1 L-0.9 -0.8 -0.8 -0.7 -1.0 -0.2 Q-1.95 1.85 -3.5 3.5 -4.5 4.55 -5.7 5.4 L-6.3 5.8 -7.3 5.85 -7.75 4.9 Q-7.35 4.85 -6.9 4.6 L-6.1 3.9 Q-5.45 3.15 -5.15 2.3 L-4.8 0.95 -4.75 0.4 Q-4.65 -3.2 -8.05 -3.8 L-8.3 -3.65 -8.9 -3.4 -8.25 -4.95 -7.95 -5.15 Q-7.0 -7.25 -5.25 -8.65 L-5.05 -8.6 -3.65 -7.75" fill="#ffffff" fill-rule="evenodd" stroke="none"/>
  </g>
</svg>
