<?xml version="1.0" encoding="UTF-8" standalone="no"?>
<svg xmlns:xlink="http://www.w3.org/1999/xlink" height="228.75px" width="351.25px" xmlns="http://www.w3.org/2000/svg">
  <g transform="matrix(1.0, 0.0, 0.0, 1.0, 170.6, 109.35)">
    <path d="M178.35 -85.35 Q180.65 -80.55 180.65 -74.85 L180.65 94.9 Q180.65 105.0 173.45 112.2 166.3 119.35 156.15 119.4 L-136.15 119.4 Q-146.3 119.35 -153.45 112.2 -160.65 105.0 -160.6 94.9 L-160.6 -74.85 Q-160.65 -85.0 -153.45 -92.2 -150.2 -95.45 -146.35 -97.2 -141.7 -99.35 -136.15 -99.35 L156.15 -99.35 Q166.3 -99.35 173.45 -92.2 176.6 -89.05 178.35 -85.35" fill="url(#gradient0)" fill-rule="evenodd" stroke="none"/>
    <path d="M144.35 -96.15 Q149.75 -94.6 154.05 -90.3 156.8 -87.55 158.45 -84.3 L154.7 -80.15 Q153.1 -83.2 150.45 -85.8 146.1 -90.2 140.55 -91.7 L144.35 -96.15" fill="#d3d29c" fill-rule="evenodd" stroke="none"/>
    <path d="M158.45 -84.3 Q156.8 -87.55 154.05 -90.3 149.75 -94.6 144.35 -96.15 141.2 -97.1 137.65 -97.1 L-137.6 -97.1 Q-142.7 -97.1 -147.05 -95.2 -150.85 -93.5 -154.05 -90.3 -159.3 -85.05 -160.5 -78.15 L-160.85 -73.85 -160.85 73.9 Q-160.85 83.5 -154.05 90.3 -151.3 93.1 -148.05 94.75 -143.3 97.15 -137.6 97.15 L137.65 97.15 Q144.1 97.15 149.3 94.05 151.8 92.5 154.05 90.3 160.85 83.5 160.9 73.9 L160.9 -73.85 Q160.85 -79.6 158.45 -84.3 M168.35 -95.35 Q170.65 -90.55 170.65 -84.85 L170.65 84.9 Q170.65 95.0 163.45 102.2 156.3 109.35 146.15 109.4 L-146.15 109.4 Q-156.3 109.35 -163.45 102.2 -170.65 95.0 -170.6 84.9 L-170.6 -84.85 Q-170.65 -95.0 -163.45 -102.2 -160.2 -105.45 -156.35 -107.2 -151.7 -109.35 -146.15 -109.35 L146.15 -109.35 Q156.3 -109.35 163.45 -102.2 166.6 -99.05 168.35 -95.35" fill="#308945" fill-rule="evenodd" stroke="none"/>
    <path d="M140.55 -91.7 Q146.1 -90.2 150.45 -85.8 153.1 -83.2 154.7 -80.15 157.15 -75.4 157.15 -69.65 L157.15 72.55 157.0 72.55 Q156.1 80.15 150.45 85.75 143.8 92.45 134.4 92.45 L-134.35 92.45 Q-138.6 92.45 -142.3 91.1 -146.85 89.4 -150.5 85.75 -156.15 80.15 -157.0 72.55 L-157.15 72.55 -157.15 -69.65 Q-157.2 -71.65 -156.9 -73.5 -155.8 -80.55 -150.5 -85.8 -147.35 -89.0 -143.5 -90.65 -139.3 -92.45 -134.35 -92.45 L134.4 -92.45 140.55 -91.7" fill="#ffffbf" fill-rule="evenodd" stroke="none"/>
    <path d="M154.7 -80.15 L158.45 -84.3 Q160.85 -79.6 160.9 -73.85 L160.9 73.9 Q160.85 83.5 154.05 90.3 151.8 92.5 149.3 94.05 L134.4 92.45 Q143.8 92.45 150.45 85.75 156.1 80.15 157.0 72.55 L157.15 72.55 157.15 -69.65 Q157.15 -75.4 154.7 -80.15" fill="#eae8d0" fill-rule="evenodd" stroke="none"/>
    <path d="M144.35 -96.15 L140.55 -91.7 134.4 -92.45 -134.35 -92.45 Q-139.3 -92.45 -143.5 -90.65 L-147.05 -95.2 Q-142.7 -97.1 -137.6 -97.1 L137.65 -97.1 Q141.2 -97.1 144.35 -96.15" fill="#518b50" fill-rule="evenodd" stroke="none"/>
    <path d="M149.3 94.05 Q144.1 97.15 137.65 97.15 L-137.6 97.15 Q-143.3 97.15 -148.05 94.75 L-142.3 91.1 Q-138.6 92.45 -134.35 92.45 L134.4 92.45 149.3 94.05" fill="#5e8a55" fill-rule="evenodd" stroke="none"/>
    <path d="M-160.5 -78.15 Q-159.3 -85.05 -154.05 -90.3 -150.85 -93.5 -147.05 -95.2 L-143.5 -90.65 Q-147.35 -89.0 -150.5 -85.8 -155.8 -80.55 -156.9 -73.5 L-160.5 -78.15" fill="#b7c68f" fill-rule="evenodd" stroke="none"/>
    <path d="M-148.05 94.75 Q-151.3 93.1 -154.05 90.3 -160.85 83.5 -160.85 73.9 L-160.85 -73.85 -160.5 -78.15 -156.9 -73.5 Q-157.2 -71.65 -157.15 -69.65 L-157.15 72.55 -157.0 72.55 Q-156.15 80.15 -150.5 85.75 -146.85 89.4 -142.3 91.1 L-148.05 94.75" fill="#d9dea6" fill-rule="evenodd" stroke="none"/>
  </g>
  <defs>
    <radialGradient cx="0" cy="0" gradientTransform="matrix(0.0122, -0.2111, 0.3183, 0.0184, 5.0, -21.0)" gradientUnits="userSpaceOnUse" id="gradient0" r="819.2" spreadMethod="pad">
      <stop offset="0.29411764705882354" stop-color="#000000"/>
      <stop offset="1.0" stop-color="#000000" stop-opacity="0.0"/>
    </radialGradient>
  </defs>
</svg>
