<?xml version="1.0" encoding="UTF-8" standalone="no"?>
<svg xmlns:xlink="http://www.w3.org/1999/xlink" height="1.85px" width="3.1px" xmlns="http://www.w3.org/2000/svg">
  <g transform="matrix(1.0, 0.0, 0.0, 1.0, 1.55, 0.9)">
    <path d="M-0.3 -0.5 L-0.65 -0.35 -0.9 -0.55 -1.05 -0.4 -0.65 -0.15 Q-0.3 -0.05 -0.25 0.35 -0.3 0.95 -0.9 0.95 L-1.55 0.5 -1.15 0.35 -0.85 0.6 -0.65 0.45 -1.05 0.15 Q-1.4 0.1 -1.45 -0.4 -1.4 -0.85 -0.9 -0.9 -0.4 -0.85 -0.3 -0.5" fill="#000000" fill-rule="evenodd" stroke="none"/>
    <path d="M1.05 -0.35 L0.75 0.95 0.5 0.95 0.2 -0.4 0.2 0.95 -0.15 0.95 -0.15 -0.85 0.5 -0.85 0.7 0.15 0.9 -0.85 1.55 -0.85 1.55 0.95 1.1 0.95 1.1 -0.35 1.05 -0.35" fill="#000000" fill-rule="evenodd" stroke="none"/>
  </g>
</svg>
