<?xml version="1.0" encoding="UTF-8" standalone="no"?>
<svg xmlns:xlink="http://www.w3.org/1999/xlink" height="62.2px" width="65.9px" xmlns="http://www.w3.org/2000/svg">
  <g transform="matrix(1.0, 0.0, 0.0, 1.0, 32.95, 31.1)">
    <path d="M21.45 -27.05 L22.7 -29.2 Q22.9 -29.3 23.1 -29.5 L23.8 -30.1 24.75 -30.1 24.85 -30.1 Q29.7 -27.15 31.2 -21.8 33.3 -14.3 29.35 -7.55 L28.15 -5.6 Q25.35 -0.85 20.25 0.55 L19.45 0.2 19.5 0.15 20.1 -0.1 Q20.55 -0.25 20.85 -0.5 23.2 -2.25 24.5 -5.25 L25.15 -6.7 Q26.25 -9.2 24.55 -10.75 L24.2 -11.3 Q24.05 -11.75 24.3 -12.0 L24.4 -12.1 24.65 -11.9 Q26.35 -10.85 27.8 -11.35 L27.8 -11.45 25.05 -13.05 25.65 -14.7 26.1 -15.7 Q27.8 -18.3 27.05 -21.25 25.75 -26.15 21.45 -27.05 M16.7 -3.9 L16.7 -3.95 16.75 -3.95 16.7 -3.9 M13.95 -17.85 Q12.45 -20.05 13.4 -22.65 13.8 -23.0 14.3 -23.15 L14.6 -23.1 Q17.65 -22.85 18.8 -20.7 17.2 -21.05 15.5 -19.85 14.35 -19.05 13.95 -17.85 M15.55 -6.45 L15.9 -5.35 15.8 -5.25 Q15.35 -3.3 16.25 -1.55 17.1 0.1 18.45 0.85 L20.15 1.4 20.75 1.45 21.45 1.45 21.6 1.25 21.65 1.15 22.8 0.6 22.9 2.0 Q22.9 2.9 22.35 3.6 L22.3 3.7 22.3 3.8 22.25 3.9 21.5 4.25 Q18.95 4.65 17.0 3.75 L16.7 3.6 Q14.8 2.6 13.5 0.3 13.0 -0.9 12.8 -2.15 12.5 -3.9 13.45 -5.45 L13.55 -5.5 Q14.4 -6.2 15.55 -6.45" fill="#ffffff" fill-rule="evenodd" stroke="none"/>
    <path d="M19.45 0.2 L20.25 0.55 Q25.35 -0.85 28.15 -5.6 L29.35 -7.55 Q33.3 -14.3 31.2 -21.8 29.7 -27.15 24.85 -30.1 L24.75 -30.1 23.8 -30.1 23.1 -29.5 Q22.9 -29.3 22.7 -29.2 L21.45 -27.05 Q19.85 -23.75 20.45 -20.3 20.8 -18.05 22.15 -15.7 23.4 -14.25 25.05 -13.05 L27.8 -11.45 27.8 -11.35 Q26.35 -10.85 24.65 -11.9 L24.4 -12.1 Q21.85 -13.85 20.35 -16.45 L20.15 -17.1 19.95 -16.55 Q18.65 -12.5 18.35 -8.25 L18.25 -8.05 Q17.1 -13.25 19.55 -18.25 L19.5 -18.3 19.45 -18.35 Q19.35 -19.75 18.8 -20.7 17.65 -22.85 14.6 -23.1 L14.3 -23.15 Q13.8 -23.0 13.4 -22.65 12.45 -20.05 13.95 -17.85 L14.95 -16.7 15.4 -16.0 15.55 -15.9 15.6 -15.8 16.05 -15.05 16.3 -14.8 Q17.4 -11.9 16.6 -8.7 16.3 -7.6 16.6 -6.5 L17.25 -4.2 Q17.05 -3.9 16.75 -3.95 L16.7 -3.95 16.7 -3.9 Q17.0 -1.05 19.45 0.2 M22.95 -30.75 L23.9 -31.1 Q26.5 -30.7 28.4 -28.55 33.55 -22.8 32.85 -14.95 32.6 -11.85 31.15 -9.15 30.55 -7.65 29.55 -6.3 28.9 -5.45 28.5 -4.35 26.4 -1.5 23.5 0.2 24.85 3.4 21.55 5.05 20.05 5.8 18.4 5.35 L16.65 4.65 14.65 6.95 12.6 8.75 Q6.7 13.4 0.15 17.05 L-3.85 19.15 -6.85 20.5 Q-5.4 24.95 -6.6 29.45 -6.85 30.35 -7.65 31.0 -11.2 31.35 -14.35 30.1 -23.7 28.3 -30.1 20.85 -32.1 18.5 -32.8 15.55 L-32.95 13.9 -31.7 12.55 -31.1 12.25 Q-29.95 12.2 -29.3 12.95 -22.45 16.15 -15.45 12.35 L-13.0 11.1 -12.95 11.0 -12.85 10.9 -12.35 10.8 -12.35 10.75 Q-10.55 11.05 -9.75 12.4 L-5.75 10.65 Q-1.0 8.4 3.55 5.65 7.6 3.2 11.1 0.05 L11.2 -0.1 12.05 -0.9 Q11.75 -2.1 11.85 -3.35 11.95 -4.6 12.5 -5.8 L14.35 -7.15 15.15 -7.35 15.4 -7.35 Q15.15 -9.15 15.65 -11.05 L16.0 -12.45 15.8 -13.15 15.75 -13.65 13.7 -16.8 12.95 -17.9 12.55 -18.35 Q11.9 -19.95 12.1 -21.7 L12.45 -23.05 Q13.3 -23.95 14.4 -24.3 L14.65 -24.25 14.65 -24.3 Q17.85 -23.95 19.4 -21.55 19.3 -24.5 20.5 -27.2 L22.2 -30.15 22.65 -30.5 22.95 -30.75 M15.55 -6.45 Q14.4 -6.2 13.55 -5.5 L13.45 -5.45 Q12.5 -3.9 12.8 -2.15 13.0 -0.9 13.5 0.3 14.8 2.6 16.7 3.6 L17.0 3.75 Q18.95 4.65 21.5 4.25 L22.25 3.9 22.3 3.8 22.3 3.7 22.35 3.6 Q22.9 2.9 22.9 2.0 L22.8 0.6 21.65 1.15 21.6 1.25 21.45 1.45 20.75 1.45 20.15 1.4 18.45 0.85 Q17.1 0.1 16.25 -1.55 15.35 -3.3 15.8 -5.25 L15.9 -5.35 15.55 -6.45 M-6.05 12.0 Q-9.05 13.55 -12.1 14.05 -13.0 17.75 -12.2 21.5 -8.25 20.1 -4.5 18.3 0.45 15.95 5.1 13.0 9.85 10.0 13.9 6.3 L14.75 5.5 15.95 4.25 Q13.7 2.85 12.5 0.3 L12.45 0.2 12.35 0.1 12.25 -0.1 12.2 -0.05 12.15 0.0 11.2 1.0 Q6.75 5.5 0.9 8.35 L-5.55 11.7 -6.05 12.0 M-18.05 28.0 Q-17.3 28.5 -16.2 28.65 L-15.85 28.75 -15.55 28.9 -14.1 29.25 -13.55 29.25 -10.9 30.15 Q-9.15 30.65 -7.9 29.75 L-7.25 29.0 Q-6.45 25.0 -7.8 21.05 L-7.85 20.9 -11.95 22.45 -11.6 23.6 Q-10.9 25.55 -9.75 27.35 L-9.05 28.0 Q-8.85 27.1 -8.8 26.2 L-8.75 26.1 -8.8 23.35 Q-8.8 23.25 -8.7 23.3 -8.0 25.1 -7.9 27.15 L-7.9 27.25 -8.2 28.65 -8.25 28.75 -9.0 29.15 -9.45 28.9 -9.4 29.1 -9.9 28.75 Q-11.05 27.2 -11.75 25.45 -14.4 19.55 -13.0 13.25 L-12.95 13.0 Q-12.65 12.6 -12.25 12.5 -11.9 12.55 -11.85 12.95 L-11.85 13.05 -11.9 13.3 -10.6 12.75 -11.5 12.15 -11.65 12.3 -11.85 12.3 -12.15 12.3 -12.4 12.1 -13.0 12.1 Q-19.45 16.75 -27.15 14.85 -28.95 14.4 -30.45 13.35 L-30.55 13.3 -30.65 13.25 -31.05 13.25 -31.65 13.8 -32.0 14.25 Q-31.6 18.25 -28.55 21.2 -25.8 23.85 -22.55 25.85 -20.65 27.0 -18.65 27.85 L-18.1 28.1 -17.75 28.2 -18.05 28.0 M-18.65 27.5 L-18.55 27.6 -18.7 27.5 -18.65 27.5" fill="#000000" fill-rule="evenodd" stroke="none"/>
    <path d="M21.45 -27.05 Q25.75 -26.15 27.05 -21.25 27.8 -18.3 26.1 -15.7 L25.65 -14.7 25.05 -13.05 Q23.4 -14.25 22.15 -15.7 20.8 -18.05 20.45 -20.3 19.85 -23.75 21.45 -27.05 M24.4 -12.1 L24.3 -12.0 Q24.05 -11.75 24.2 -11.3 L24.55 -10.75 Q26.25 -9.2 25.15 -6.7 L24.5 -5.25 Q23.2 -2.25 20.85 -0.5 20.55 -0.25 20.1 -0.1 L19.5 0.15 19.45 0.2 Q17.0 -1.05 16.7 -3.9 L16.75 -3.95 Q17.05 -3.9 17.25 -4.2 L16.6 -6.5 Q16.3 -7.6 16.6 -8.7 17.4 -11.9 16.3 -14.8 L16.05 -15.05 15.6 -15.8 15.55 -15.9 15.4 -16.0 14.95 -16.7 13.95 -17.85 Q14.35 -19.05 15.5 -19.85 17.2 -21.05 18.8 -20.7 19.35 -19.75 19.45 -18.35 L19.5 -18.3 19.55 -18.25 Q17.1 -13.25 18.25 -8.05 L18.35 -8.25 Q18.65 -12.5 19.95 -16.55 L20.35 -16.45 Q21.85 -13.85 24.4 -12.1" fill="#e2ebef" fill-rule="evenodd" stroke="none"/>
    <path d="M-4.5 18.3 Q-6.25 15.85 -6.15 12.75 L-6.05 12.0 -5.55 11.7 0.9 8.35 Q6.75 5.5 11.2 1.0 11.65 4.15 13.9 6.3 9.85 10.0 5.1 13.0 0.45 15.95 -4.5 18.3 M12.5 0.3 L12.15 0.0 12.2 -0.05 12.35 0.1 12.45 0.2 12.5 0.3" fill="#75640a" fill-rule="evenodd" stroke="none"/>
    <path d="M-6.05 12.0 L-6.15 12.75 Q-6.25 15.85 -4.5 18.3 -8.25 20.1 -12.2 21.5 -13.0 17.75 -12.1 14.05 -9.05 13.55 -6.05 12.0 M13.9 6.3 Q11.65 4.15 11.2 1.0 L12.15 0.0 12.5 0.3 Q13.7 2.85 15.95 4.25 L14.75 5.5 13.9 6.3" fill="#5f5300" fill-rule="evenodd" stroke="none"/>
    <path d="M-18.1 28.1 L-18.65 27.85 Q-20.65 27.0 -22.55 25.85 -25.8 23.85 -28.55 21.2 -31.6 18.25 -32.0 14.25 L-31.65 13.8 -31.05 13.25 -30.65 13.25 -30.55 13.3 -30.45 13.35 Q-28.95 14.4 -27.15 14.85 -19.45 16.75 -13.0 12.1 L-12.4 12.1 -12.15 12.3 -11.85 12.3 -11.65 12.3 -11.5 12.15 -10.6 12.75 -11.9 13.3 -11.85 13.05 -11.85 12.95 Q-11.9 12.55 -12.25 12.5 -12.65 12.6 -12.95 13.0 L-13.0 13.25 Q-14.4 19.55 -11.75 25.45 -11.05 27.2 -9.9 28.75 L-9.4 29.1 -9.45 28.9 -9.0 29.15 -8.25 28.75 -8.2 28.65 -7.9 27.25 -7.9 27.15 Q-8.0 25.1 -8.7 23.3 -8.8 23.25 -8.8 23.35 L-8.75 26.1 -8.8 26.2 Q-8.85 27.1 -9.05 28.0 L-9.75 27.35 Q-10.9 25.55 -11.6 23.6 L-11.95 22.45 -7.85 20.9 -7.8 21.05 Q-6.45 25.0 -7.25 29.0 L-7.9 29.75 Q-9.15 30.65 -10.9 30.15 L-13.55 29.25 -14.1 29.25 -15.55 28.9 -15.85 28.75 -16.2 28.65 Q-17.3 28.5 -18.05 28.0 L-18.1 28.1 M-18.65 27.5 L-18.7 27.5 -18.55 27.6 -18.65 27.5" fill="url(#gradient0)" fill-rule="evenodd" stroke="none"/>
  </g>
  <defs>
    <linearGradient gradientTransform="matrix(-0.0036, 0.0076, -0.0101, -0.0048, -25.25, 25.85)" gradientUnits="userSpaceOnUse" id="gradient0" spreadMethod="pad" x1="-819.2" x2="819.2">
      <stop offset="0.0" stop-color="#39fd7b"/>
      <stop offset="1.0" stop-color="#000000"/>
    </linearGradient>
  </defs>
</svg>
