<?xml version="1.0" encoding="UTF-8" standalone="no"?>
<svg xmlns:xlink="http://www.w3.org/1999/xlink" height="135.6px" width="72.45px" xmlns="http://www.w3.org/2000/svg">
  <g transform="matrix(1.0, 0.0, 0.0, 1.0, 36.2, 67.8)">
    <path d="M-17.2 -67.8 Q-13.75 -67.0 -12.2 -63.65 L-10.7 -60.7 Q-7.6 -56.45 -3.8 -53.1 L-3.35 -53.2 -3.1 -53.25 Q4.45 -52.0 9.85 -46.55 L13.4 -43.2 Q19.0 -38.2 22.75 -31.85 26.45 -25.5 29.65 -18.8 L30.55 -16.75 Q32.25 -13.35 33.35 -9.55 34.9 -4.25 35.45 1.3 35.75 4.45 35.1 7.5 L35.1 7.55 Q36.65 13.8 36.15 20.45 35.55 28.25 29.7 33.3 L29.1 33.7 Q28.2 34.4 26.9 34.7 12.1 38.0 -0.85 30.45 L-2.55 29.4 Q-5.35 29.65 -7.8 28.65 L-7.55 29.1 -7.4 29.4 -6.2 31.0 -6.55 30.85 Q-3.8 35.4 -0.2 39.35 3.4 43.25 7.45 46.8 L16.35 54.15 Q18.55 55.9 20.05 58.3 20.9 59.75 20.9 61.25 L20.95 61.25 Q21.7 64.5 18.0 65.3 L11.05 66.85 Q1.9 68.8 -7.1 66.7 -9.1 66.2 -10.5 65.05 -12.6 66.55 -15.55 66.75 L-21.7 66.8 -24.0 66.5 Q-24.3 66.7 -24.75 66.5 L-24.9 66.25 Q-26.45 65.75 -27.8 64.75 -29.1 63.75 -29.7 62.3 -30.85 59.35 -30.7 56.1 -30.55 52.2 -27.55 49.75 -26.8 49.1 -25.8 48.8 L-23.1 48.25 Q-17.15 48.35 -11.75 50.15 -18.05 44.8 -22.6 37.85 L-30.35 25.35 Q-31.45 23.55 -32.05 21.6 -33.9 21.5 -35.05 19.65 -37.35 15.85 -35.05 12.3 -33.55 10.05 -31.25 8.6 -29.25 7.35 -27.1 6.35 L-27.05 6.2 -26.95 6.1 -26.65 5.95 -26.5 5.75 -26.0 5.4 -25.95 5.55 Q-22.9 3.85 -19.55 2.75 -12.75 0.45 -5.6 -0.4 -4.25 -2.7 -3.5 -5.2 L-3.2 -8.1 -3.25 -8.4 Q-3.4 -10.95 -3.8 -13.45 L-4.3 -15.75 -4.75 -17.75 -8.4 -24.75 -8.9 -26.0 Q-13.15 -31.8 -15.85 -38.5 -18.35 -44.7 -13.45 -49.1 L-11.65 -50.2 Q-13.65 -51.75 -15.2 -53.95 -17.35 -56.9 -19.05 -60.2 L-19.5 -61.3 Q-20.65 -63.55 -19.6 -66.05 L-18.75 -67.1 Q-18.0 -67.65 -17.2 -67.8 M-18.55 -61.7 Q-18.15 -61.1 -18.05 -60.45 -15.2 -54.95 -10.6 -50.7 L-9.15 -49.35 -9.1 -49.35 Q-8.6 -49.3 -8.5 -48.85 L-8.5 -48.65 Q-5.9 -47.75 -3.85 -49.6 -3.45 -50.6 -3.4 -51.65 -9.25 -56.15 -12.9 -62.55 L-13.05 -62.75 Q-14.15 -65.95 -17.3 -66.55 L-18.05 -66.35 Q-20.15 -64.4 -18.55 -61.7 M8.05 -0.85 L16.95 0.4 Q24.25 1.85 31.35 3.85 33.05 4.3 34.2 5.45 34.25 -0.45 32.75 -6.1 L32.25 -8.25 31.1 -11.75 30.9 -11.8 27.75 -19.4 22.35 -29.9 Q18.35 -37.2 12.05 -42.85 L3.75 -49.5 Q1.85 -50.85 -0.5 -51.35 L-2.5 -51.9 -2.55 -51.85 Q-2.1 -49.25 -4.95 -47.85 -6.6 -47.05 -8.45 -47.6 L-8.5 -47.6 Q-10.2 -48.2 -11.3 -49.35 L-14.0 -46.55 Q-15.25 -45.15 -15.35 -43.2 -15.55 -39.65 -13.8 -36.5 L-6.4 -23.75 Q-2.8 -17.95 -2.2 -11.25 -1.9 -8.85 -2.15 -6.4 -2.2 -5.5 -2.4 -4.55 -2.9 -2.45 -3.9 -0.6 L2.15 -1.1 8.05 -0.85 M-11.55 2.25 L-2.6 1.6 7.2 2.45 12.1 3.2 Q13.3 3.45 14.2 4.1 L14.15 4.1 13.8 4.05 13.7 4.15 13.55 4.2 6.85 3.35 0.65 2.8 -11.35 3.15 -15.3 3.8 -15.45 3.9 -15.65 4.05 -24.45 6.4 Q-27.5 7.55 -30.4 9.2 -34.05 11.25 -34.95 15.15 -35.15 16.1 -34.85 17.05 -34.15 19.3 -32.35 20.7 -32.85 18.85 -32.95 16.95 L-32.9 16.15 -33.95 17.2 Q-34.45 15.75 -32.7 14.6 -30.4 13.15 -27.7 13.45 -21.9 14.1 -16.65 16.65 L-17.05 16.5 Q-12.15 18.8 -8.35 22.95 -5.55 26.0 -2.2 28.3 L-1.7 28.3 -1.55 28.35 -1.4 28.5 -1.35 28.8 -1.35 28.9 Q1.0 30.35 3.6 31.5 8.7 33.7 14.3 34.3 L25.0 33.7 Q26.95 33.25 28.7 32.3 L29.85 31.3 31.5 29.55 Q35.8 23.0 34.9 15.0 L33.95 6.95 32.55 6.1 32.25 5.9 Q31.2 5.2 29.95 4.85 22.65 2.75 15.2 1.4 L7.8 0.45 Q-1.95 -0.25 -11.6 1.85 L-15.5 2.85 -11.55 2.25 M-10.75 22.45 Q-12.1 21.1 -13.65 20.0 L-15.5 18.65 -15.6 18.6 -15.25 19.0 Q-17.2 18.0 -19.15 17.1 -21.6 16.0 -24.1 15.2 L-25.6 14.85 Q-25.0 17.85 -23.4 20.7 L-15.55 33.3 Q-11.4 39.5 -6.8 45.35 L-3.5 49.3 Q2.95 50.3 9.35 52.0 L9.55 52.25 9.55 52.35 9.55 52.4 9.5 52.5 9.45 52.6 Q6.0 52.5 2.45 51.5 -1.7 50.4 -5.8 50.8 -6.6 50.9 -7.25 51.4 -10.1 53.8 -10.85 57.3 -11.7 60.95 -10.0 64.25 L-6.9 65.25 Q-8.95 61.3 -7.75 56.8 -7.25 55.1 -6.4 53.5 L-5.45 52.65 Q-5.05 53.2 -5.75 53.85 L-5.85 53.95 -6.45 56.1 -6.45 56.4 Q-7.05 58.15 -7.05 60.05 L-7.05 60.4 Q-6.9 63.2 -5.6 65.6 L-0.95 66.4 Q-3.05 60.95 -0.95 55.3 -0.55 54.25 0.3 53.65 0.6 54.55 -0.2 55.65 L-0.25 55.75 Q-0.85 57.5 -0.85 59.4 L-0.85 59.8 -0.9 60.0 -0.95 60.1 Q-1.0 63.35 0.15 66.35 L0.2 66.5 7.75 66.3 Q14.25 65.5 19.9 62.7 L19.95 62.4 19.95 62.25 19.3 60.05 19.25 59.75 Q15.75 53.95 9.8 50.2 7.05 48.5 4.75 46.15 -0.3 40.95 -4.85 35.25 -8.35 30.85 -10.65 25.65 L-11.5 23.1 Q-11.6 22.65 -11.2 22.55 L-10.95 22.7 -8.85 26.65 -8.6 26.75 -8.45 27.1 -4.4 28.15 Q-7.4 25.95 -9.95 23.25 L-10.75 22.45 M-5.7 48.8 Q-10.85 42.55 -15.45 35.8 L-23.25 23.65 Q-25.75 19.55 -26.6 14.95 L-26.6 14.7 Q-28.95 14.45 -31.15 15.25 -32.45 17.55 -31.3 20.2 L-31.25 20.5 Q-27.9 27.25 -23.9 33.65 -19.7 40.35 -14.2 45.95 -12.55 47.65 -11.2 49.5 L-11.15 49.5 -11.05 49.7 -10.45 50.55 -10.45 50.6 -9.45 51.0 -9.4 51.05 -9.4 51.15 -9.45 51.3 -9.5 51.4 -9.55 51.5 -9.7 51.5 -15.1 50.35 Q-20.65 48.8 -26.0 50.3 -27.0 50.6 -27.65 51.4 -29.45 53.75 -29.55 56.85 -29.65 60.25 -27.7 63.05 -26.95 64.1 -25.8 64.7 -28.85 58.8 -25.15 52.7 -24.65 51.9 -23.8 51.6 -25.3 53.8 -25.8 56.65 L-25.85 56.75 Q-26.55 61.3 -24.25 65.2 L-24.0 65.25 -20.0 65.55 -20.5 64.85 Q-21.4 63.2 -21.75 61.35 L-21.75 61.25 Q-22.15 57.1 -20.6 53.5 L-20.6 53.4 -19.65 52.3 -20.5 54.65 -20.55 54.75 -20.65 55.85 -20.7 56.05 -20.6 61.3 -20.6 61.65 Q-19.95 63.5 -18.9 65.25 L-19.05 65.55 -18.85 65.55 Q-15.0 65.45 -11.25 64.4 L-11.95 63.15 Q-13.9 56.9 -9.8 51.85 L-9.5 51.55 Q-7.9 49.7 -5.55 49.15 L-5.45 49.1 -5.7 48.8" fill="#000000" fill-rule="evenodd" stroke="none"/>
    <path d="M-18.55 -61.7 Q-20.15 -64.4 -18.05 -66.35 L-17.3 -66.55 Q-14.15 -65.95 -13.05 -62.75 L-12.9 -62.55 Q-9.25 -56.15 -3.4 -51.65 -3.45 -50.6 -3.85 -49.6 -5.9 -47.75 -8.5 -48.65 L-8.5 -48.85 Q-8.6 -49.3 -9.1 -49.35 L-9.15 -49.35 -10.6 -50.7 Q-15.2 -54.95 -18.05 -60.45 -18.15 -61.1 -18.55 -61.7 M-10.95 22.7 L-11.2 22.55 Q-11.6 22.65 -11.5 23.1 L-10.65 25.65 Q-8.35 30.85 -4.85 35.25 -0.3 40.95 4.75 46.15 7.05 48.5 9.8 50.2 15.75 53.95 19.25 59.75 L19.3 60.05 19.95 62.25 19.95 62.4 19.9 62.7 Q14.25 65.5 7.75 66.3 L0.2 66.5 0.15 66.35 Q-1.0 63.35 -0.95 60.1 L-0.9 60.0 -0.85 59.8 -0.85 59.4 Q-0.85 57.5 -0.25 55.75 L-0.2 55.65 Q0.6 54.55 0.3 53.65 -0.55 54.25 -0.95 55.3 -3.05 60.95 -0.95 66.4 L-5.6 65.6 Q-6.9 63.2 -7.05 60.4 L-7.05 60.05 Q-7.05 58.15 -6.45 56.4 L-6.45 56.1 -5.85 53.95 -5.75 53.85 Q-5.05 53.2 -5.45 52.65 L-6.4 53.5 Q-7.25 55.1 -7.75 56.8 -8.95 61.3 -6.9 65.25 L-10.0 64.25 Q-11.7 60.95 -10.85 57.3 -10.1 53.8 -7.25 51.4 -6.6 50.9 -5.8 50.8 -1.7 50.4 2.45 51.5 6.0 52.5 9.45 52.6 L9.5 52.5 9.55 52.4 9.55 52.35 9.55 52.25 9.35 52.0 Q2.95 50.3 -3.5 49.3 L-6.8 45.35 Q-11.4 39.5 -15.55 33.3 L-23.4 20.7 Q-25.0 17.85 -25.6 14.85 L-24.1 15.2 Q-21.6 16.0 -19.15 17.1 -17.2 18.0 -15.25 19.0 L-15.6 18.6 -15.5 18.65 -13.65 20.0 Q-12.1 21.1 -10.75 22.45 L-10.95 22.7 M-9.55 51.5 L-9.5 51.4 -9.45 51.3 -9.4 51.15 -9.4 51.05 -9.45 51.0 -10.45 50.6 -10.45 50.55 -11.05 49.7 -11.15 49.5 -11.2 49.5 Q-12.55 47.65 -14.2 45.95 -19.7 40.35 -23.9 33.65 -27.9 27.25 -31.25 20.5 L-31.3 20.2 Q-32.45 17.55 -31.15 15.25 -28.95 14.45 -26.6 14.7 L-26.6 14.95 Q-25.75 19.55 -23.25 23.65 L-15.45 35.8 Q-10.85 42.55 -5.7 48.8 L-5.55 49.15 Q-7.9 49.7 -9.5 51.55 L-9.55 51.5 M-9.7 51.5 L-9.8 51.85 Q-13.9 56.9 -11.95 63.15 L-11.25 64.4 Q-15.0 65.45 -18.85 65.55 L-18.9 65.25 Q-19.95 63.5 -20.6 61.65 L-20.6 61.3 -20.7 56.05 -20.65 55.85 -20.55 54.75 -20.5 54.65 -19.65 52.3 -20.6 53.4 -20.6 53.5 Q-22.15 57.1 -21.75 61.25 L-21.75 61.35 Q-21.4 63.2 -20.5 64.85 L-20.0 65.55 -24.0 65.25 -24.25 65.2 Q-26.55 61.3 -25.85 56.75 L-25.8 56.65 Q-25.3 53.8 -23.8 51.6 -24.65 51.9 -25.15 52.7 -28.85 58.8 -25.8 64.7 -26.95 64.1 -27.7 63.05 -29.65 60.25 -29.55 56.85 -29.45 53.75 -27.65 51.4 -27.0 50.6 -26.0 50.3 -20.65 48.8 -15.1 50.35 L-9.7 51.5" fill="#75640a" fill-rule="evenodd" stroke="none"/>
    <path d="M-8.45 -47.6 Q-6.6 -47.05 -4.95 -47.85 -2.1 -49.25 -2.55 -51.85 L-2.5 -51.9 -0.5 -51.35 Q1.85 -50.85 3.75 -49.5 L12.05 -42.85 Q18.35 -37.2 22.35 -29.9 L27.75 -19.4 30.9 -11.8 31.1 -11.75 32.25 -8.25 32.75 -6.1 Q34.25 -0.45 34.2 5.45 33.05 4.3 31.35 3.85 24.25 1.85 16.95 0.4 L8.05 -0.85 Q8.35 -2.9 8.15 -5.05 7.6 -11.25 5.4 -17.1 L4.55 -18.9 Q3.25 -21.15 2.4 -23.6 L1.6 -25.35 3.9 -25.25 Q4.9 -25.45 5.25 -26.3 6.9 -29.9 2.8 -31.55 L4.05 -32.95 Q4.7 -34.1 3.95 -35.2 1.6 -38.45 -1.75 -36.0 L-1.75 -36.05 Q-2.45 -38.65 -4.95 -39.05 -6.95 -43.25 -8.5 -47.55 L-8.45 -47.6 M0.45 -28.05 L0.4 -28.1 -0.5 -30.4 -1.45 -32.2 -1.85 -32.9 -1.8 -33.0 Q-1.15 -34.5 -0.05 -35.65 L2.3 -35.4 Q3.4 -34.75 2.8 -33.8 1.65 -31.9 -0.55 -31.35 L-0.65 -31.1 -0.6 -30.9 -0.55 -30.8 -0.3 -30.65 Q3.5 -31.05 4.75 -27.9 L4.65 -27.4 Q4.2 -26.2 2.8 -26.25 L2.2 -26.55 Q1.35 -26.85 0.8 -27.6 L0.45 -28.05 M-2.8 -34.7 L-4.3 -37.7 Q-3.6 -37.25 -3.3 -36.45 L-2.8 -34.7 M5.8 -26.9 L5.85 -26.75 7.2 -25.3 Q9.6 -22.3 9.7 -18.3 L10.25 -18.2 Q10.6 -18.6 10.6 -19.15 L10.6 -20.15 10.6 -20.25 Q10.6 -22.5 9.75 -24.15 L9.85 -24.25 Q12.4 -26.6 10.75 -29.8 10.7 -29.95 10.8 -30.1 11.05 -30.75 10.7 -31.4 L10.55 -31.45 10.3 -31.55 10.1 -31.5 10.0 -31.45 Q9.6 -31.15 9.6 -30.7 L9.3 -29.7 Q7.85 -28.0 8.1 -26.25 7.3 -26.95 6.3 -27.45 L6.05 -27.4 5.9 -27.2 5.8 -26.9" fill="url(#gradient0)" fill-rule="evenodd" stroke="none"/>
    <path d="M-8.5 -47.55 Q-6.95 -43.25 -4.95 -39.05 L-5.0 -39.05 Q-8.7 -37.9 -7.15 -34.35 L-6.55 -33.3 -7.0 -33.3 Q-7.75 -33.1 -8.3 -32.55 L-9.35 -31.45 -9.45 -31.2 -9.45 -29.95 -9.35 -29.6 Q-8.4 -28.05 -6.75 -27.6 L-4.65 -27.45 Q-5.2 -25.9 -3.65 -24.1 -2.95 -23.25 -1.85 -23.15 1.35 -22.8 0.6 -25.8 L1.6 -25.35 2.4 -23.6 Q3.25 -21.15 4.55 -18.9 L5.4 -17.1 Q7.6 -11.25 8.15 -5.05 8.35 -2.9 8.05 -0.85 L2.15 -1.1 -3.9 -0.6 Q-2.9 -2.45 -2.4 -4.55 -2.2 -5.5 -2.15 -6.4 -1.9 -8.85 -2.2 -11.25 -2.8 -17.95 -6.4 -23.75 L-13.8 -36.5 Q-15.55 -39.65 -15.35 -43.2 -15.25 -45.15 -14.0 -46.55 L-11.3 -49.35 Q-10.2 -48.2 -8.5 -47.6 L-8.5 -47.55 M0.45 -28.05 Q-0.45 -28.85 -1.4 -28.5 L-1.5 -28.2 -1.45 -27.9 -1.45 -27.85 -0.8 -26.45 -0.55 -24.45 Q-0.7 -24.2 -1.0 -24.2 L-1.5 -24.1 -2.65 -24.85 Q-3.4 -25.8 -3.55 -26.9 L-3.0 -28.1 Q-2.6 -28.5 -2.8 -28.9 L-2.85 -28.95 -2.95 -29.05 -3.85 -29.15 Q-6.65 -27.95 -8.15 -30.15 L-8.15 -30.25 -8.2 -30.55 -8.25 -30.65 -7.75 -31.25 Q-6.45 -32.35 -4.5 -32.1 L-4.4 -32.1 -4.3 -32.15 -4.25 -32.35 -4.25 -32.45 -4.25 -32.6 Q-4.5 -33.25 -5.1 -33.75 -7.05 -35.4 -5.9 -37.45 L-5.7 -37.55 -4.45 -37.8 -4.3 -37.7 -2.8 -34.7 -2.65 -32.75 Q-2.15 -32.45 -1.85 -32.9 L-1.45 -32.2 -0.5 -30.4 0.4 -28.1 0.45 -28.05 M-3.4 -31.95 L-4.0 -31.35 Q-4.1 -29.1 -1.75 -28.9 -1.35 -29.0 -1.2 -29.4 -0.25 -31.7 -2.95 -32.1 L-3.4 -31.95" fill="url(#gradient1)" fill-rule="evenodd" stroke="none"/>
    <path d="M-4.95 -39.05 Q-2.45 -38.65 -1.75 -36.05 L-1.75 -36.0 Q1.6 -38.45 3.95 -35.2 4.7 -34.1 4.05 -32.95 L2.8 -31.55 Q6.9 -29.9 5.25 -26.3 4.9 -25.45 3.9 -25.25 L1.6 -25.35 0.6 -25.8 Q1.35 -22.8 -1.85 -23.15 -2.95 -23.25 -3.65 -24.1 -5.2 -25.9 -4.65 -27.45 L-6.75 -27.6 Q-8.4 -28.05 -9.35 -29.6 L-9.45 -29.95 -9.45 -31.2 -9.35 -31.45 -8.3 -32.55 Q-7.75 -33.1 -7.0 -33.3 L-6.55 -33.3 -7.15 -34.35 Q-8.7 -37.9 -5.0 -39.05 L-4.95 -39.05 M-4.3 -37.7 L-4.45 -37.8 -5.7 -37.55 -5.9 -37.45 Q-7.05 -35.4 -5.1 -33.75 -4.5 -33.25 -4.25 -32.6 L-4.25 -32.45 -4.25 -32.35 -4.3 -32.15 -4.4 -32.1 -4.5 -32.1 Q-6.45 -32.35 -7.75 -31.25 L-8.25 -30.65 -8.2 -30.55 -8.15 -30.25 -8.15 -30.15 Q-6.65 -27.95 -3.85 -29.15 L-2.95 -29.05 -2.85 -28.95 -2.8 -28.9 Q-2.6 -28.5 -3.0 -28.1 L-3.55 -26.9 Q-3.4 -25.8 -2.65 -24.85 L-1.5 -24.1 -1.0 -24.2 Q-0.7 -24.2 -0.55 -24.45 L-0.8 -26.45 -1.45 -27.85 -1.45 -27.9 -1.5 -28.2 -1.4 -28.5 Q-0.45 -28.85 0.45 -28.05 L0.8 -27.6 Q1.35 -26.85 2.2 -26.55 L2.8 -26.25 Q4.2 -26.2 4.65 -27.4 L4.75 -27.9 Q3.5 -31.05 -0.3 -30.65 L-0.55 -30.8 -0.6 -30.9 -0.65 -31.1 -0.55 -31.35 Q1.65 -31.9 2.8 -33.8 3.4 -34.75 2.3 -35.4 L-0.05 -35.65 Q-1.15 -34.5 -1.8 -33.0 L-1.85 -32.9 Q-2.15 -32.45 -2.65 -32.75 L-2.8 -34.7 -3.3 -36.45 Q-3.6 -37.25 -4.3 -37.7 M-11.6 1.85 L-11.55 2.25 -15.5 2.85 -11.6 1.85" fill="#505ff6" fill-rule="evenodd" stroke="none"/>
    <path d="M-8.45 -47.6 L-8.5 -47.55 -8.5 -47.6 -8.45 -47.6" fill="#39fd7b" fill-rule="evenodd" stroke="none"/>
    <path d="M-3.4 -31.95 L-2.95 -32.1 Q-0.25 -31.7 -1.2 -29.4 -1.35 -29.0 -1.75 -28.9 -4.1 -29.1 -4.0 -31.35 L-3.4 -31.95 M5.8 -26.9 L5.9 -27.2 6.05 -27.4 6.3 -27.45 Q7.3 -26.95 8.1 -26.25 7.85 -28.0 9.3 -29.7 L9.6 -30.7 Q9.6 -31.15 10.0 -31.45 L10.1 -31.5 10.3 -31.55 10.55 -31.45 10.7 -31.4 Q11.05 -30.75 10.8 -30.1 10.7 -29.95 10.75 -29.8 12.4 -26.6 9.85 -24.25 L9.75 -24.15 Q10.6 -22.5 10.6 -20.25 L10.6 -20.15 10.6 -19.15 Q10.6 -18.6 10.25 -18.2 L9.7 -18.3 Q9.6 -22.3 7.2 -25.3 L5.85 -26.75 5.8 -26.9" fill="#0ed524" fill-rule="evenodd" stroke="none"/>
    <path d="M-11.6 1.85 Q-1.95 -0.25 7.8 0.45 L15.2 1.4 Q22.65 2.75 29.95 4.85 31.2 5.2 32.25 5.9 L32.55 6.1 33.95 6.95 34.9 15.0 Q35.8 23.0 31.5 29.55 L29.85 31.3 28.7 32.3 Q26.95 33.25 25.0 33.7 L14.3 34.3 Q8.7 33.7 3.6 31.5 1.0 30.35 -1.35 28.9 L-1.35 28.8 -1.4 28.5 -1.55 28.35 -1.7 28.3 -2.2 28.3 Q-5.55 26.0 -8.35 22.95 -12.15 18.8 -17.05 16.5 L-16.65 16.65 Q-21.9 14.1 -27.7 13.45 -30.4 13.15 -32.7 14.6 -34.45 15.75 -33.95 17.2 L-32.9 16.15 -32.95 16.95 Q-32.85 18.85 -32.35 20.7 -34.15 19.3 -34.85 17.05 -35.15 16.1 -34.95 15.15 -34.05 11.25 -30.4 9.2 -27.5 7.55 -24.45 6.4 L-15.65 4.05 -15.45 3.9 -15.3 3.8 -11.35 3.15 0.65 2.8 6.85 3.35 13.55 4.2 13.7 4.15 13.8 4.05 14.15 4.1 14.2 4.1 Q13.3 3.45 12.1 3.2 L7.2 2.45 -2.6 1.6 -11.55 2.25 -11.6 1.85" fill="url(#gradient2)" fill-rule="evenodd" stroke="none"/>
    <path d="M-10.95 22.7 L-10.75 22.45 -9.95 23.25 Q-7.4 25.95 -4.4 28.15 L-8.45 27.1 -8.6 26.75 -8.85 26.65 -10.95 22.7" fill="#5f5300" fill-rule="evenodd" stroke="none"/>
  </g>
  <defs>
    <linearGradient gradientTransform="matrix(0.026, 9.0E-4, -0.0013, 0.035, 34.35, -22.9)" gradientUnits="userSpaceOnUse" id="gradient0" spreadMethod="pad" x1="-819.2" x2="819.2">
      <stop offset="0.0" stop-color="#39fd7b"/>
      <stop offset="1.0" stop-color="#000000"/>
    </linearGradient>
    <linearGradient gradientTransform="matrix(-0.0135, 0.005, -0.0103, -0.0279, -7.85, -14.0)" gradientUnits="userSpaceOnUse" id="gradient1" spreadMethod="pad" x1="-819.2" x2="819.2">
      <stop offset="0.0" stop-color="#39fd7b"/>
      <stop offset="1.0" stop-color="#000000"/>
    </linearGradient>
    <linearGradient gradientTransform="matrix(0.0248, 0.0166, -0.0116, 0.0173, 29.2, 17.2)" gradientUnits="userSpaceOnUse" id="gradient2" spreadMethod="pad" x1="-819.2" x2="819.2">
      <stop offset="0.0" stop-color="#505ff6"/>
      <stop offset="1.0" stop-color="#000000"/>
    </linearGradient>
  </defs>
</svg>
