<?xml version="1.0" encoding="UTF-8" standalone="no"?>
<svg xmlns:xlink="http://www.w3.org/1999/xlink" height="77.1px" width="65.6px" xmlns="http://www.w3.org/2000/svg">
  <g transform="matrix(1.0, 0.0, 0.0, 1.0, 32.8, 38.55)">
    <path d="M30.5 -29.05 Q25.4 -23.7 19.85 -18.85 L13.65 -13.3 Q14.4 -12.5 14.8 -11.5 17.55 -7.15 17.2 -1.55 17.15 -0.3 16.7 0.75 L16.8 0.7 16.95 0.8 17.1 0.85 Q18.45 2.8 18.8 4.8 19.3 7.6 17.85 10.45 16.85 12.35 15.2 13.7 L15.15 13.75 13.85 14.75 Q13.65 15.3 12.65 15.85 L11.8 16.3 11.65 16.25 Q9.3 21.5 7.4 27.0 5.25 33.1 -0.15 36.5 -4.55 39.3 -9.8 38.25 L-10.7 37.95 Q-13.05 37.15 -14.65 34.85 L-15.75 32.35 -16.05 31.35 Q-16.6 29.05 -16.35 26.65 -21.1 26.9 -25.95 25.05 L-26.5 24.8 -26.55 24.8 Q-31.75 23.05 -32.6 17.55 -33.0 15.2 -32.65 12.95 L-32.45 11.95 Q-32.15 10.35 -31.45 8.85 L-30.7 7.35 Q-31.1 5.35 -30.6 3.4 -30.2 1.5 -28.75 0.35 L-27.45 -0.6 -26.05 -0.95 Q-23.95 -1.05 -22.65 0.4 L-21.45 0.05 -15.55 -1.1 -13.35 -1.05 -13.15 -1.3 -12.2 -2.0 -13.05 -2.35 Q-14.75 -3.1 -14.2 -4.4 L-12.45 -3.0 Q-13.0 -3.9 -12.8 -5.2 L-12.7 -5.2 Q-12.2 -4.75 -12.15 -3.95 L-12.1 -3.85 -11.6 -3.4 Q-11.35 -6.15 -10.25 -8.7 L-9.9 -9.7 -9.65 -10.1 -9.7 -10.45 -8.9 -12.95 -7.95 -14.65 Q-6.25 -16.8 -3.7 -17.8 -2.9 -18.2 -1.95 -18.45 L-1.05 -18.6 Q-2.95 -24.9 -2.95 -31.75 -3.0 -34.0 -1.6 -35.75 L-1.0 -36.3 0.2 -37.05 0.7 -37.25 Q3.45 -37.1 4.25 -34.3 6.25 -27.1 4.9 -19.65 L4.7 -18.45 Q6.85 -18.0 8.8 -17.0 11.65 -22.35 15.0 -27.45 18.2 -32.25 22.7 -36.0 25.35 -38.25 28.7 -38.55 32.7 -38.55 32.8 -34.95 32.85 -31.5 30.5 -29.05 M1.75 -15.2 Q2.4 -15.8 3.55 -15.6 6.55 -15.0 8.05 -12.2 L8.1 -12.15 Q8.5 -11.1 8.5 -10.05 L8.35 -8.75 Q7.6 -11.5 5.35 -13.6 L4.45 -14.5 1.75 -15.2 M9.9 -12.3 Q8.75 -13.0 8.3 -14.55 L8.1 -14.7 8.0 -14.8 7.95 -15.05 8.0 -15.45 8.1 -15.75 8.35 -16.15 Q4.2 -18.2 -0.95 -17.55 L-3.0 -17.2 Q-4.4 -16.5 -5.6 -15.4 L-4.45 -15.55 Q-4.15 -14.6 -5.9 -14.1 L-7.2 -13.7 -7.95 -12.4 -8.05 -12.2 -7.95 -12.25 -7.8 -12.3 -7.45 -12.25 -7.25 -12.2 -6.95 -11.75 -7.0 -11.45 Q-6.05 -10.05 -6.45 -7.95 -7.0 -4.75 -8.25 -1.8 -6.8 -1.35 -5.5 -0.55 L-5.35 -0.7 -5.35 -0.8 Q-4.85 -4.5 -3.8 -8.05 L-3.6 -8.95 Q-1.7 -12.35 1.95 -13.15 5.7 -11.45 5.45 -7.0 L5.05 -3.7 4.7 -2.5 6.1 -3.15 Q5.35 -2.05 4.1 -1.35 L3.85 -0.85 3.8 -0.75 3.75 -0.6 3.85 -0.6 8.0 -1.15 Q6.9 -0.05 5.05 0.35 L5.85 0.6 7.9 1.05 8.0 1.05 7.9 1.2 7.75 1.25 2.8 1.05 1.3 2.05 2.05 0.8 0.9 0.35 Q-1.9 -0.9 -4.85 -0.1 L-3.35 1.25 -0.45 3.15 Q1.3 3.3 2.8 2.6 L3.3 2.6 5.8 3.05 Q9.75 3.45 13.6 2.2 L15.65 1.25 16.0 -0.9 16.2 -1.45 Q16.35 -6.2 14.55 -10.3 14.35 -10.4 14.3 -10.65 L13.3 -12.05 12.9 -12.6 12.5 -12.25 12.45 -11.95 12.35 -11.75 Q10.9 -11.7 9.9 -12.3 M1.85 -11.85 Q1.35 -12.1 0.8 -11.85 L-1.35 -10.45 Q-2.5 -9.2 -3.1 -7.6 L-3.35 -7.15 -4.45 -1.0 -3.3 -1.35 -1.75 -1.2 -1.65 -1.25 -1.55 -1.3 -1.2 -1.35 -0.15 -1.3 3.5 -2.1 3.75 -2.75 Q4.3 -4.9 4.4 -7.2 4.6 -10.55 1.85 -11.85 M1.9 -0.55 L2.75 -0.55 2.9 -0.8 2.35 -0.65 1.9 -0.55 M15.9 11.35 L16.9 10.1 Q18.55 7.95 17.95 5.25 L17.75 4.5 Q17.35 3.2 16.55 2.15 L16.4 1.75 Q14.2 3.85 10.7 4.15 L4.35 3.85 3.25 3.6 2.8 3.45 Q0.55 4.6 -1.25 3.85 L-0.95 4.2 -0.65 4.8 -0.15 5.6 0.1 5.9 0.55 7.25 1.1 9.3 1.0 9.55 1.05 9.65 0.85 9.85 0.05 8.5 -0.8 6.3 Q-3.5 1.4 -8.55 -0.85 L-8.75 -0.95 -9.05 -1.05 -10.05 -1.1 -11.7 -1.0 -13.4 0.65 Q-14.55 2.2 -14.75 4.45 L-14.6 6.8 Q-14.7 7.75 -14.45 8.6 L-14.35 9.05 -14.45 9.6 -15.1 8.6 -15.1 8.5 Q-16.2 6.3 -15.6 3.45 -15.25 1.85 -14.4 0.45 L-14.05 -0.1 -17.2 0.3 Q-21.85 0.8 -25.9 2.6 L-25.95 2.5 -25.95 2.3 -25.95 2.2 Q-24.85 1.3 -23.55 0.75 -26.1 -0.8 -28.6 1.35 -29.35 2.55 -29.6 3.95 L-30.0 5.95 -29.95 6.25 -29.85 6.1 -28.05 4.35 Q-27.65 4.65 -28.0 5.1 L-28.05 5.2 Q-30.25 7.75 -31.2 10.8 -31.9 12.85 -31.95 15.2 L-32.0 15.4 Q-31.7 19.85 -28.55 22.75 L-28.45 22.85 Q-22.75 25.65 -16.3 25.5 L-9.9 24.65 -7.8 23.9 Q-3.35 22.2 0.55 19.3 L0.55 19.25 Q6.65 14.6 11.35 8.4 L12.05 7.05 12.25 6.75 Q11.05 6.55 9.95 7.15 L8.5 7.5 8.35 7.4 8.3 7.2 8.25 7.05 Q8.6 6.6 9.1 6.3 L9.65 6.05 11.05 5.65 13.2 5.7 13.35 5.75 13.45 5.65 13.85 5.9 13.85 5.95 14.15 6.1 Q15.1 6.7 15.4 8.05 L15.35 8.1 Q14.65 7.65 13.9 7.3 L13.25 7.05 12.45 8.25 10.85 11.5 8.0 16.1 Q3.7 22.2 0.0 28.55 L-0.6 29.55 Q-2.1 31.5 -4.4 32.7 -6.5 33.8 -8.45 33.55 L-8.55 33.55 -10.7 33.05 Q-12.65 31.65 -13.2 29.35 L-13.2 29.3 -13.4 29.1 Q-13.85 27.75 -13.65 26.35 L-15.45 26.6 -15.5 26.6 Q-16.0 32.0 -12.25 35.6 L-11.9 35.9 -10.65 36.75 -9.1 37.45 Q-2.85 38.25 1.8 33.9 3.35 32.45 4.3 30.6 6.8 25.85 8.6 20.75 10.15 16.35 12.95 12.85 L13.1 12.8 13.0 13.35 12.95 13.45 12.35 14.8 12.15 15.25 12.55 14.9 15.9 11.35 M8.35 13.55 L4.6 17.35 2.75 18.85 2.1 19.5 -0.45 21.35 -1.15 22.3 Q-2.5 23.55 -2.55 25.4 -2.65 27.45 -1.1 28.6 0.5 26.75 1.65 24.5 3.3 21.2 5.4 18.1 L8.35 13.55 M-7.75 -11.3 Q-10.25 -7.4 -10.7 -2.75 L-9.95 -2.15 -9.0 -2.0 -8.95 -2.0 Q-7.85 -5.7 -7.45 -9.6 L-7.45 -9.9 -7.6 -10.95 -7.7 -11.3 -7.75 -11.35 -7.75 -11.3 M-8.2 3.8 Q-5.5 4.8 -4.7 7.85 -4.15 10.15 -5.2 12.2 -7.2 12.7 -8.4 10.75 -9.45 9.1 -9.9 7.25 -10.45 4.95 -8.5 3.85 L-8.35 3.85 -8.2 3.8 M-2.9 30.35 L-1.9 29.45 -1.85 29.4 -2.05 29.3 Q-4.45 25.75 -2.75 22.75 -5.3 24.15 -8.0 25.05 L-11.1 25.95 -12.75 26.2 Q-12.85 30.0 -10.1 32.05 -6.45 33.35 -3.2 30.6 L-2.9 30.35" fill="#000000" fill-rule="evenodd" stroke="none"/>
    <path d="M-7.95 -12.4 L-7.2 -13.7 -5.9 -14.1 Q-4.15 -14.6 -4.45 -15.55 L-5.6 -15.4 Q-4.4 -16.5 -3.0 -17.2 L-0.95 -17.55 Q4.2 -18.2 8.35 -16.15 L8.1 -15.75 8.0 -15.45 7.95 -15.05 8.0 -14.8 8.1 -14.7 8.3 -14.55 Q8.75 -13.0 9.9 -12.3 L10.35 -10.3 10.5 -9.35 Q11.15 -4.35 8.65 -0.1 L7.9 1.05 5.85 0.6 5.05 0.35 Q6.9 -0.05 8.0 -1.15 L3.85 -0.6 3.8 -0.75 3.85 -0.85 4.1 -1.35 Q5.35 -2.05 6.1 -3.15 L4.7 -2.5 5.05 -3.7 5.45 -7.0 Q5.7 -11.45 1.95 -13.15 -1.7 -12.35 -3.6 -8.95 L-3.8 -8.05 Q-4.85 -4.5 -5.35 -0.8 L-5.35 -0.7 -5.5 -0.55 Q-6.8 -1.35 -8.25 -1.8 -7.0 -4.75 -6.45 -7.95 -6.05 -10.05 -7.0 -11.45 L-6.95 -11.75 -7.25 -12.2 -7.45 -12.25 -7.8 -12.3 -7.95 -12.4 M1.75 -15.2 L4.45 -14.5 5.35 -13.6 Q7.6 -11.5 8.35 -8.75 L8.5 -10.05 Q8.5 -11.1 8.1 -12.15 L8.05 -12.2 Q6.55 -15.0 3.55 -15.6 2.4 -15.8 1.75 -15.2 M5.8 3.05 L3.3 2.6 2.8 2.6 Q1.3 3.3 -0.45 3.15 L-3.35 1.25 -4.85 -0.1 Q-1.9 -0.9 0.9 0.35 L2.05 0.8 1.3 2.05 2.8 1.05 7.75 1.25 5.8 3.05 M1.85 -11.85 Q4.6 -10.55 4.4 -7.2 4.3 -4.9 3.75 -2.75 L3.5 -2.1 -0.15 -1.3 -1.2 -1.35 -1.55 -1.3 -1.65 -1.25 -1.75 -1.2 -3.3 -1.35 -4.45 -1.0 -3.35 -7.15 -3.1 -7.6 Q-2.5 -9.2 -1.35 -10.45 L0.8 -11.85 Q1.35 -12.1 1.85 -11.85 M-7.7 -11.3 L-7.6 -10.95 -7.45 -9.9 -7.45 -9.6 Q-7.85 -5.7 -8.95 -2.0 L-9.0 -2.0 -9.95 -2.15 -10.7 -2.75 Q-10.25 -7.4 -7.75 -11.3 L-7.7 -11.3" fill="#75640a" fill-rule="evenodd" stroke="none"/>
    <path d="M-15.1 8.5 L-15.1 8.6 -14.45 9.6 -14.35 9.05 -14.45 8.6 Q-14.7 7.75 -14.6 6.8 L-14.75 4.45 Q-14.55 2.2 -13.4 0.65 L-11.7 -1.0 -10.05 -1.1 -9.05 -1.05 -8.75 -0.95 -8.55 -0.85 Q-3.5 1.4 -0.8 6.3 L0.05 8.5 0.85 9.85 1.05 9.65 1.0 9.55 1.1 9.3 0.55 7.25 0.1 5.9 -0.15 5.6 -0.65 4.8 -0.95 4.2 -1.25 3.85 Q0.55 4.6 2.8 3.45 L3.25 3.6 4.35 3.85 10.7 4.15 Q14.2 3.85 16.4 1.75 L16.55 2.15 Q17.35 3.2 17.75 4.5 L17.95 5.25 Q18.55 7.95 16.9 10.1 L15.9 11.35 16.05 10.65 16.1 9.15 16.0 8.4 Q15.75 7.3 15.0 6.35 L14.65 6.0 14.1 5.5 13.95 5.3 14.05 5.65 14.1 5.9 14.15 6.1 13.85 5.95 13.85 5.9 13.45 5.65 13.35 5.75 13.2 5.7 11.05 5.65 9.65 6.05 9.1 6.3 Q8.6 6.6 8.25 7.05 L8.3 7.2 7.95 7.65 Q6.05 10.15 3.7 12.15 L2.4 13.1 Q-0.45 15.05 -3.55 16.15 L-4.3 16.35 -9.05 16.75 -11.0 16.35 -11.35 16.2 -13.05 15.4 -16.75 12.85 -17.35 12.5 Q-19.75 11.15 -22.3 9.9 L-22.8 9.7 -26.3 9.4 Q-28.75 9.45 -30.85 10.55 L-31.2 10.8 Q-30.25 7.75 -28.05 5.2 L-28.0 5.1 Q-27.65 4.65 -28.05 4.35 L-29.85 6.1 -30.0 5.95 -29.6 3.95 Q-29.35 2.55 -28.6 1.35 -26.1 -0.8 -23.55 0.75 -24.85 1.3 -25.95 2.2 L-25.95 2.3 -25.95 2.5 -25.9 2.6 Q-21.85 0.8 -17.2 0.3 L-14.05 -0.1 -14.4 0.45 Q-16.9 0.7 -17.45 3.15 L-17.55 4.15 Q-17.65 6.0 -16.6 7.45 L-15.75 8.35 -15.3 8.55 -15.1 8.5 M-11.9 35.9 L-12.25 35.6 Q-16.0 32.0 -15.5 26.6 L-15.45 26.6 -13.65 26.35 Q-13.85 27.75 -13.4 29.1 L-13.2 29.3 -13.2 29.35 Q-12.65 31.65 -10.7 33.05 L-8.55 33.55 -8.45 33.55 Q-6.5 33.8 -4.4 32.7 -2.1 31.5 -0.6 29.55 L0.0 28.55 Q3.7 22.2 8.0 16.1 L10.85 11.5 9.75 14.15 9.45 14.9 Q8.65 17.7 7.35 20.1 L6.8 21.2 6.1 22.6 4.8 24.95 4.4 25.6 2.9 28.15 Q1.8 30.1 0.15 31.85 L-1.55 33.35 Q-3.05 34.55 -5.05 35.35 -7.2 36.2 -9.55 35.95 L-11.3 35.8 -11.85 35.75 -11.9 35.9 M-8.2 3.8 L-8.35 3.85 -8.5 3.85 Q-10.45 4.95 -9.9 7.25 -9.45 9.1 -8.4 10.75 -7.2 12.7 -5.2 12.2 -4.15 10.15 -4.7 7.85 -5.5 4.8 -8.2 3.8" fill="#cfb392" fill-rule="evenodd" stroke="none"/>
    <path d="M7.9 1.05 L8.65 -0.1 Q11.15 -4.35 10.5 -9.35 L10.35 -10.3 9.9 -12.3 Q10.9 -11.7 12.35 -11.75 L12.45 -11.95 12.5 -12.25 12.9 -12.6 13.3 -12.05 14.3 -10.65 Q14.35 -10.4 14.55 -10.3 16.35 -6.2 16.2 -1.45 L16.0 -0.9 15.65 1.25 13.6 2.2 Q9.75 3.45 5.8 3.05 L7.75 1.25 7.9 1.2 8.0 1.05 7.9 1.05" fill="#5f5300" fill-rule="evenodd" stroke="none"/>
    <path d="M-15.1 8.5 L-15.3 8.55 -15.75 8.35 -16.6 7.45 Q-17.65 6.0 -17.55 4.15 L-17.45 3.15 Q-16.9 0.7 -14.4 0.45 -15.25 1.85 -15.6 3.45 -16.2 6.3 -15.1 8.5 M-31.2 10.8 L-30.85 10.55 Q-28.75 9.45 -26.3 9.4 L-22.8 9.7 -22.3 9.9 Q-19.75 11.15 -17.35 12.5 L-16.75 12.85 -13.05 15.4 -11.35 16.2 -11.0 16.35 -9.05 16.75 -4.3 16.35 -3.55 16.15 Q-0.45 15.05 2.4 13.1 L3.7 12.15 Q6.05 10.15 7.95 7.65 L8.3 7.2 8.35 7.4 8.5 7.5 9.95 7.15 Q11.05 6.55 12.25 6.75 L12.05 7.05 11.35 8.4 Q6.65 14.6 0.55 19.25 L0.55 19.3 Q-3.35 22.2 -7.8 23.9 L-9.9 24.65 -16.3 25.5 Q-22.75 25.65 -28.45 22.85 L-28.55 22.75 Q-31.7 19.85 -32.0 15.4 L-31.95 15.2 Q-31.9 12.85 -31.2 10.8 M14.15 6.1 L14.1 5.9 14.05 5.65 13.95 5.3 14.1 5.5 14.65 6.0 15.0 6.35 Q15.75 7.3 16.0 8.4 L16.1 9.15 16.05 10.65 15.9 11.35 12.55 14.9 12.35 14.8 12.95 13.45 13.0 13.35 13.1 12.8 12.95 12.85 Q10.15 16.35 8.6 20.75 6.8 25.85 4.3 30.6 3.35 32.45 1.8 33.9 -2.85 38.25 -9.1 37.45 L-10.65 36.75 -11.9 35.9 -11.85 35.75 -11.3 35.8 -9.55 35.95 Q-7.2 36.2 -5.05 35.35 -3.05 34.55 -1.55 33.35 L0.15 31.85 Q1.8 30.1 2.9 28.15 L4.4 25.6 4.8 24.95 6.1 22.6 6.8 21.2 7.35 20.1 Q8.65 17.7 9.45 14.9 L9.75 14.15 10.85 11.5 12.45 8.25 13.25 7.05 13.9 7.3 Q14.65 7.65 15.35 8.1 L15.4 8.05 Q15.1 6.7 14.15 6.1" fill="#c19b6b" fill-rule="evenodd" stroke="none"/>
    <path d="M8.35 13.55 L5.4 18.1 Q3.3 21.2 1.65 24.5 0.5 26.75 -1.1 28.6 -2.65 27.45 -2.55 25.4 -2.5 23.55 -1.15 22.3 L-0.45 21.35 2.1 19.5 2.75 18.85 4.6 17.35 8.35 13.55" fill="#ff66cc" fill-rule="evenodd" stroke="none"/>
    <path d="M-8.0 25.05 L-8.15 26.65 -8.1 27.4 Q-7.55 29.6 -5.3 30.15 L-4.3 30.35 -2.9 30.35 -3.2 30.6 Q-6.45 33.35 -10.1 32.05 -12.85 30.0 -12.75 26.2 L-11.1 25.95 -8.0 25.05" fill="#660000" fill-rule="evenodd" stroke="none"/>
    <path d="M-1.9 29.45 L-2.9 30.35 -4.3 30.35 -5.3 30.15 Q-7.55 29.6 -8.1 27.4 L-8.15 26.65 -8.0 25.05 Q-5.3 24.15 -2.75 22.75 -4.45 25.75 -2.05 29.3 L-1.9 29.45" fill="#3c0000" fill-rule="evenodd" stroke="none"/>
  </g>
</svg>
