<?xml version="1.0" encoding="UTF-8" standalone="no"?>
<svg xmlns:xlink="http://www.w3.org/1999/xlink" height="74.65px" width="70.55px" xmlns="http://www.w3.org/2000/svg">
  <g transform="matrix(1.0, 0.0, 0.0, 1.0, 34.3, 37.0)">
    <path d="M33.35 -25.7 Q27.75 -20.9 21.7 -16.65 L14.95 -11.75 Q15.6 -10.95 15.9 -9.9 18.2 -5.25 17.25 0.25 L16.5 2.5 16.65 2.45 16.75 2.55 16.9 2.65 Q18.05 4.75 18.2 6.7 18.4 9.55 16.65 12.25 15.45 14.05 13.65 15.2 L13.6 15.25 12.2 16.1 Q11.95 16.65 10.95 17.05 L10.05 17.45 9.9 17.35 Q7.0 22.3 4.55 27.6 1.75 33.45 -3.95 36.3 -8.6 38.55 -13.75 37.05 L-14.6 36.65 Q-16.85 35.6 -18.2 33.1 L-19.05 30.5 -19.25 29.45 Q-19.55 27.15 -19.05 24.8 -23.8 24.55 -28.4 22.2 L-28.95 21.9 -29.0 21.85 Q-33.95 19.6 -34.25 14.05 -34.4 11.65 -33.8 9.45 L-33.5 8.5 Q-33.05 6.95 -32.2 5.5 L-31.25 4.1 Q-31.45 2.05 -30.75 0.2 -30.15 -1.65 -28.65 -2.65 -28.05 -3.25 -27.25 -3.45 L-25.8 -3.65 Q-23.7 -3.55 -22.55 -1.95 L-21.3 -2.2 -15.35 -2.75 -13.15 -2.45 -12.9 -2.65 -11.95 -3.3 Q-12.4 -3.45 -12.7 -3.7 -14.35 -4.65 -13.65 -5.85 L-12.1 -4.3 Q-12.5 -5.25 -12.2 -6.5 L-12.1 -6.5 Q-11.65 -6.0 -11.7 -5.2 L-11.65 -5.1 -11.2 -4.6 Q-10.65 -7.3 -9.3 -9.7 L-8.85 -10.7 -8.55 -11.05 -8.55 -11.4 -7.5 -13.8 -6.35 -15.4 Q-4.45 -17.35 -1.85 -18.1 L0.0 -18.55 0.9 -18.6 Q-0.35 -25.05 0.35 -31.85 0.55 -34.1 2.15 -35.7 L2.8 -36.2 4.05 -36.85 4.6 -37.0 Q7.35 -36.55 7.85 -33.65 9.05 -26.3 6.9 -19.05 L6.6 -17.85 Q8.7 -17.2 10.55 -16.0 13.95 -21.0 17.75 -25.75 21.45 -30.15 26.3 -33.45 29.2 -35.4 32.6 -35.35 36.55 -34.95 36.25 -31.3 35.95 -27.85 33.35 -25.7 M5.2 -15.15 Q8.05 -14.2 9.3 -11.3 L9.3 -11.25 Q9.6 -10.15 9.5 -9.1 L9.2 -7.85 Q8.75 -10.65 6.7 -12.95 L5.9 -13.95 3.35 -14.9 5.2 -15.15 M11.15 -11.2 Q10.05 -12.0 9.75 -13.6 L9.6 -13.75 9.5 -13.85 9.45 -14.1 9.55 -14.5 9.7 -14.8 10.0 -15.2 Q6.1 -17.65 0.9 -17.55 L-1.2 -17.4 Q-2.65 -16.85 -3.95 -15.9 L-2.75 -15.9 Q-2.6 -14.95 -4.4 -14.6 L-5.7 -14.35 -6.6 -13.2 -6.7 -13.0 -6.6 -13.05 -6.45 -13.05 -6.1 -13.0 -5.9 -12.9 -5.65 -12.45 -5.75 -12.15 Q-4.95 -10.65 -5.55 -8.55 -6.45 -5.45 -8.0 -2.65 -6.6 -2.05 -5.4 -1.1 L-5.25 -1.25 -5.2 -1.35 Q-4.35 -4.95 -2.95 -8.4 L-2.65 -9.3 Q-0.4 -12.5 3.3 -12.85 6.85 -10.8 6.15 -6.4 L5.4 -3.15 4.9 -2.0 6.4 -2.5 Q5.5 -1.5 4.25 -0.9 L3.95 -0.45 3.9 -0.35 3.8 -0.2 3.9 -0.2 8.05 -0.3 Q6.85 0.65 4.95 0.9 L5.75 1.2 7.75 1.9 7.85 1.9 7.7 2.05 7.55 2.05 Q5.05 2.3 2.7 1.35 L1.1 2.2 1.95 1.0 0.85 0.45 Q-1.8 -1.1 -4.8 -0.6 L-3.5 0.9 -0.8 3.1 2.55 2.9 3.05 2.95 5.45 3.65 Q9.35 4.45 13.25 3.6 L15.4 2.9 16.0 0.75 16.25 0.25 Q16.9 -4.45 15.55 -8.75 L15.3 -9.1 Q15.05 -9.95 14.45 -10.6 L14.1 -11.2 13.75 -10.9 13.65 -10.6 13.55 -10.4 Q12.05 -10.5 11.15 -11.2 M3.1 -11.6 L2.05 -11.7 Q0.8 -11.3 -0.25 -10.55 -1.55 -9.4 -2.3 -7.85 L-2.6 -7.45 -4.3 -1.45 -3.15 -1.7 -1.6 -1.4 -1.5 -1.4 -1.4 -1.45 -1.05 -1.5 0.0 -1.3 3.7 -1.75 4.05 -2.35 Q4.75 -4.4 5.1 -6.7 5.65 -10.0 3.1 -11.6 M1.95 -0.35 L2.8 -0.25 3.0 -0.5 2.4 -0.4 1.95 -0.35 M14.6 12.95 L15.75 11.8 Q17.6 9.85 17.3 7.1 L17.2 6.3 Q16.9 5.0 16.25 3.9 L16.1 3.45 Q13.7 5.35 10.2 5.25 7.0 5.15 3.9 4.3 L2.85 3.95 2.45 3.75 Q0.05 4.6 -1.65 3.7 L-1.4 4.1 -1.15 4.7 -0.75 5.55 -0.5 5.85 -0.2 7.25 0.15 9.35 0.0 9.6 0.05 9.7 -0.2 9.9 -0.85 8.45 -1.45 6.15 Q-3.65 1.05 -8.4 -1.75 L-8.6 -1.85 -8.9 -2.0 -9.9 -2.15 -11.55 -2.2 Q-12.65 -1.65 -13.35 -0.75 -14.7 0.7 -15.1 2.85 -15.35 4.05 -15.2 5.2 -15.4 6.15 -15.25 7.05 L-15.2 7.5 -15.35 8.05 -15.9 6.95 -15.9 6.85 Q-16.75 4.55 -15.85 1.8 -15.35 0.25 -14.35 -1.05 L-13.95 -1.55 -17.15 -1.5 Q-21.8 -1.5 -26.0 -0.1 L-26.05 -0.2 -26.05 -0.4 -26.05 -0.5 Q-24.85 -1.3 -23.5 -1.7 -25.85 -3.55 -28.6 -1.65 -29.45 -0.5 -29.85 0.85 L-30.45 2.75 -30.45 3.05 -30.35 2.95 -28.35 1.35 Q-28.0 1.7 -28.4 2.1 L-28.45 2.2 Q-30.85 4.55 -32.15 7.5 -33.05 9.45 -33.35 11.75 L-33.4 11.95 Q-33.6 16.45 -30.8 19.6 L-30.7 19.75 Q-25.3 23.1 -18.85 23.65 L-12.45 23.45 -10.25 22.95 Q-5.65 21.7 -1.45 19.25 L-1.45 19.2 Q5.05 15.2 10.4 9.55 L11.25 8.25 11.5 8.0 9.15 8.15 7.65 8.35 7.55 8.2 7.5 8.0 7.45 7.85 Q7.85 7.45 8.4 7.2 L8.95 7.0 10.4 6.75 12.5 7.05 12.65 7.1 12.75 7.0 Q13.05 7.1 13.15 7.3 L13.15 7.35 13.4 7.55 Q14.3 8.25 14.45 9.6 L14.4 9.65 13.05 8.7 Q12.7 8.5 12.4 8.4 L11.55 9.5 9.6 12.6 6.25 16.85 Q1.4 22.45 -3.0 28.4 L-3.7 29.35 Q-5.4 31.1 -7.75 32.05 -10.0 32.9 -11.9 32.45 L-12.0 32.45 -14.1 31.75 Q-15.9 30.15 -16.15 27.8 L-16.15 27.75 -16.35 27.55 Q-16.65 26.15 -16.3 24.75 L-18.15 24.85 -18.2 24.85 Q-19.25 30.15 -15.9 34.1 L-15.6 34.45 -14.45 35.45 -12.95 36.3 Q-6.85 37.75 -1.75 33.9 -0.05 32.6 1.05 30.85 4.05 26.4 6.4 21.55 8.4 17.3 11.5 14.15 11.55 14.05 11.65 14.1 L11.5 14.6 11.45 14.7 10.75 16.0 10.5 16.4 10.95 16.1 14.6 12.95 M6.9 14.3 L2.75 17.75 0.8 19.05 0.05 19.6 -2.7 21.2 -3.5 22.05 Q-4.95 23.15 -5.2 25.0 -5.5 27.0 -4.1 28.35 -2.3 26.65 -0.9 24.5 1.1 21.45 3.45 18.55 L6.9 14.3 M-6.5 -12.05 Q-9.45 -8.4 -10.35 -3.85 L-9.7 -3.2 -8.75 -2.95 -8.7 -2.95 Q-7.2 -6.45 -6.4 -10.35 L-6.35 -10.65 -6.4 -11.7 -6.45 -12.05 -6.5 -12.1 -6.5 -12.05 M-8.55 2.95 Q-5.95 4.2 -5.45 7.3 -5.2 9.65 -6.45 11.6 -8.5 11.9 -9.45 9.8 -10.35 8.05 -10.6 6.15 -10.9 3.8 -8.85 2.95 L-8.7 3.0 -8.55 2.95 M-6.05 29.85 L-5.0 29.1 -4.9 29.05 -5.1 28.95 Q-7.1 25.15 -5.15 22.3 -7.75 23.45 -10.55 24.05 L-13.75 24.65 -15.45 24.7 Q-15.95 28.5 -13.4 30.8 -9.9 32.5 -6.4 30.05 L-6.05 29.85" fill="#000000" fill-rule="evenodd" stroke="none"/>
    <path d="M-6.6 -13.2 L-5.7 -14.35 -4.4 -14.6 Q-2.6 -14.95 -2.75 -15.9 L-3.95 -15.9 Q-2.65 -16.85 -1.2 -17.4 L0.9 -17.55 Q6.1 -17.65 10.0 -15.2 L9.7 -14.8 9.55 -14.5 9.45 -14.1 9.5 -13.85 9.6 -13.75 9.75 -13.6 Q10.05 -12.0 11.15 -11.2 L11.4 -9.15 11.45 -8.2 Q11.55 -3.15 8.6 0.8 L7.75 1.9 5.75 1.2 4.95 0.9 Q6.85 0.65 8.05 -0.3 L3.9 -0.2 3.9 -0.35 3.95 -0.45 4.25 -0.9 Q5.5 -1.5 6.4 -2.5 L4.9 -2.0 5.4 -3.15 6.15 -6.4 Q6.85 -10.8 3.3 -12.85 -0.4 -12.5 -2.65 -9.3 L-2.95 -8.4 Q-4.35 -4.95 -5.2 -1.35 L-5.25 -1.25 -5.4 -1.1 Q-6.6 -2.05 -8.0 -2.65 -6.45 -5.45 -5.55 -8.55 -4.95 -10.65 -5.75 -12.15 L-5.65 -12.45 -5.9 -12.9 -6.1 -13.0 -6.45 -13.05 -6.6 -13.2 M5.2 -15.15 L3.35 -14.9 5.9 -13.95 6.7 -12.95 Q8.75 -10.65 9.2 -7.85 L9.5 -9.1 Q9.6 -10.15 9.3 -11.25 L9.3 -11.3 Q8.05 -14.2 5.2 -15.15 M5.45 3.65 L3.05 2.95 2.55 2.9 -0.8 3.1 -3.5 0.9 -4.8 -0.6 Q-1.8 -1.1 0.85 0.45 L1.95 1.0 1.1 2.2 2.7 1.35 Q5.05 2.3 7.55 2.05 L5.45 3.65 M3.1 -11.6 Q5.65 -10.0 5.1 -6.7 4.75 -4.4 4.05 -2.35 L3.7 -1.75 0.0 -1.3 -1.05 -1.5 -1.4 -1.45 -1.5 -1.4 -1.6 -1.4 -3.15 -1.7 -4.3 -1.45 -2.6 -7.45 -2.3 -7.85 Q-1.55 -9.4 -0.25 -10.55 0.8 -11.3 2.05 -11.7 L3.1 -11.6 M-6.45 -12.05 L-6.4 -11.7 -6.35 -10.65 -6.4 -10.35 Q-7.2 -6.45 -8.7 -2.95 L-8.75 -2.95 -9.7 -3.2 -10.35 -3.85 Q-9.45 -8.4 -6.5 -12.05 L-6.45 -12.05" fill="#75640a" fill-rule="evenodd" stroke="none"/>
    <path d="M7.75 1.9 L8.6 0.8 Q11.55 -3.15 11.45 -8.2 L11.4 -9.15 11.15 -11.2 Q12.05 -10.5 13.55 -10.4 L13.65 -10.6 13.75 -10.9 14.1 -11.2 14.45 -10.6 Q15.05 -9.95 15.3 -9.1 L15.55 -8.75 Q16.9 -4.45 16.25 0.25 L16.0 0.75 15.4 2.9 13.25 3.6 Q9.35 4.45 5.45 3.65 L7.55 2.05 7.7 2.05 7.85 1.9 7.75 1.9" fill="#5f5300" fill-rule="evenodd" stroke="none"/>
    <path d="M-15.9 6.85 L-15.9 6.95 -15.35 8.05 -15.2 7.5 -15.25 7.05 Q-15.4 6.15 -15.2 5.2 -15.35 4.05 -15.1 2.85 -14.7 0.7 -13.35 -0.75 -12.65 -1.65 -11.55 -2.2 L-9.9 -2.15 -8.9 -2.0 -8.6 -1.85 -8.4 -1.75 Q-3.65 1.05 -1.45 6.15 L-0.85 8.45 -0.2 9.9 0.05 9.7 0.0 9.6 0.15 9.35 -0.2 7.25 -0.5 5.85 -0.75 5.55 -1.15 4.7 -1.4 4.1 -1.65 3.7 Q0.05 4.6 2.45 3.75 L2.85 3.95 3.9 4.3 Q7.0 5.15 10.2 5.25 13.7 5.35 16.1 3.45 L16.25 3.9 Q16.9 5.0 17.2 6.3 L17.3 7.1 Q17.6 9.85 15.75 11.8 L14.6 12.95 14.85 12.3 15.05 10.8 15.0 10.0 Q14.9 8.9 14.25 7.85 L13.9 7.5 13.45 6.9 13.3 6.7 13.35 7.05 13.4 7.3 13.4 7.55 13.15 7.35 13.15 7.3 Q13.05 7.1 12.75 7.0 L12.65 7.1 12.5 7.05 10.4 6.75 8.95 7.0 8.4 7.2 Q7.85 7.45 7.45 7.85 L7.5 8.0 7.1 8.45 Q4.95 10.75 2.45 12.5 L1.05 13.25 Q-2.0 14.9 -5.25 15.7 L-5.95 15.8 Q-8.25 15.95 -10.75 15.7 -11.95 15.55 -12.65 15.1 L-13.0 14.9 -14.55 13.95 -18.0 11.05 -18.55 10.65 Q-20.8 9.05 -23.2 7.5 L-23.65 7.25 Q-25.35 6.75 -27.15 6.6 -29.6 6.4 -31.75 7.3 L-32.15 7.5 Q-30.85 4.55 -28.45 2.2 L-28.4 2.1 Q-28.0 1.7 -28.35 1.35 L-30.35 2.95 -30.45 2.75 -29.85 0.85 Q-29.45 -0.5 -28.6 -1.65 -25.85 -3.55 -23.5 -1.7 -24.85 -1.3 -26.05 -0.5 L-26.05 -0.4 -26.05 -0.2 -26.0 -0.1 Q-21.8 -1.5 -17.15 -1.5 L-13.95 -1.55 -14.35 -1.05 Q-16.85 -1.05 -17.7 1.35 L-17.9 2.3 Q-18.2 4.1 -17.3 5.65 L-16.5 6.65 -16.1 6.9 -15.9 6.85 M-15.6 34.45 L-15.9 34.1 Q-19.25 30.15 -18.2 24.85 L-18.15 24.85 -16.3 24.75 Q-16.65 26.15 -16.35 27.55 L-16.15 27.75 -16.15 27.8 Q-15.9 30.15 -14.1 31.75 L-12.0 32.45 -11.9 32.45 Q-10.0 32.9 -7.75 32.05 -5.4 31.1 -3.7 29.35 L-3.0 28.4 Q1.4 22.45 6.25 16.85 L9.6 12.6 8.2 15.05 7.85 15.8 Q6.75 18.5 5.2 20.75 L4.55 21.8 3.7 23.1 2.15 25.3 1.65 25.9 -0.05 28.3 Q-1.35 30.1 -3.2 31.65 L-5.05 33.0 Q-6.65 34.05 -8.7 34.6 L-13.25 34.75 -15.0 34.4 -15.55 34.3 -15.6 34.45 M-8.55 2.95 L-8.7 3.0 -8.85 2.95 Q-10.9 3.8 -10.6 6.15 -10.35 8.05 -9.45 9.8 -8.5 11.9 -6.45 11.6 -5.2 9.65 -5.45 7.3 -5.95 4.2 -8.55 2.95" fill="#cfb392" fill-rule="evenodd" stroke="none"/>
    <path d="M-15.9 6.85 L-16.1 6.9 -16.5 6.65 -17.3 5.65 Q-18.2 4.1 -17.9 2.3 L-17.7 1.35 Q-16.85 -1.05 -14.35 -1.05 -15.35 0.25 -15.85 1.8 -16.75 4.55 -15.9 6.85 M-32.15 7.5 L-31.75 7.3 Q-29.6 6.4 -27.15 6.6 -25.35 6.75 -23.65 7.25 L-23.2 7.5 Q-20.8 9.05 -18.55 10.65 L-18.0 11.05 -14.55 13.95 -13.0 14.9 -12.65 15.1 Q-11.95 15.55 -10.75 15.7 -8.25 15.95 -5.95 15.8 L-5.25 15.7 Q-2.0 14.9 1.05 13.25 L2.45 12.5 Q4.95 10.75 7.1 8.45 L7.5 8.0 7.55 8.2 7.65 8.35 9.15 8.15 11.5 8.0 11.25 8.25 10.4 9.55 Q5.05 15.2 -1.45 19.2 L-1.45 19.25 Q-5.65 21.7 -10.25 22.95 L-12.45 23.45 -18.85 23.65 Q-25.3 23.1 -30.7 19.75 L-30.8 19.6 Q-33.6 16.45 -33.4 11.95 L-33.35 11.75 Q-33.05 9.45 -32.15 7.5 M13.4 7.55 L13.4 7.3 13.35 7.05 13.3 6.7 13.45 6.9 13.9 7.5 14.25 7.85 Q14.9 8.9 15.0 10.0 L15.05 10.8 14.85 12.3 14.6 12.95 10.95 16.1 10.75 16.0 11.45 14.7 11.5 14.6 11.65 14.1 Q11.55 14.05 11.5 14.15 8.4 17.3 6.4 21.55 4.05 26.4 1.05 30.85 -0.05 32.6 -1.75 33.9 -6.85 37.75 -12.95 36.3 L-14.45 35.45 -15.6 34.45 -15.55 34.3 -15.0 34.4 -13.25 34.75 -8.7 34.6 Q-6.65 34.05 -5.05 33.0 L-3.2 31.65 Q-1.35 30.1 -0.05 28.3 L1.65 25.9 2.15 25.3 3.7 23.1 4.55 21.8 5.2 20.75 Q6.75 18.5 7.85 15.8 L8.2 15.05 9.6 12.6 11.55 9.5 12.4 8.4 Q12.7 8.5 13.05 8.7 L14.4 9.65 14.45 9.6 Q14.3 8.25 13.4 7.55" fill="#c19b6b" fill-rule="evenodd" stroke="none"/>
    <path d="M6.9 14.3 L3.45 18.55 Q1.1 21.45 -0.9 24.5 -2.3 26.65 -4.1 28.35 -5.5 27.0 -5.2 25.0 -4.95 23.15 -3.5 22.05 L-2.7 21.2 0.05 19.6 0.8 19.05 2.75 17.75 6.9 14.3" fill="#ff66cc" fill-rule="evenodd" stroke="none"/>
    <path d="M-5.0 29.1 L-6.05 29.85 -7.4 29.7 -8.4 29.4 Q-10.6 28.65 -10.9 26.4 L-10.9 25.65 -10.55 24.05 Q-7.75 23.45 -5.15 22.3 -7.1 25.15 -5.1 28.95 L-5.0 29.1" fill="#3c0000" fill-rule="evenodd" stroke="none"/>
    <path d="M-6.05 29.85 L-6.4 30.05 Q-9.9 32.5 -13.4 30.8 -15.95 28.5 -15.45 24.7 L-13.75 24.65 -10.55 24.05 -10.9 25.65 -10.9 26.4 Q-10.6 28.65 -8.4 29.4 L-7.4 29.7 -6.05 29.85" fill="#660000" fill-rule="evenodd" stroke="none"/>
  </g>
</svg>
