<?xml version="1.0" encoding="UTF-8" standalone="no"?>
<svg xmlns:xlink="http://www.w3.org/1999/xlink" height="78.85px" width="61.15px" xmlns="http://www.w3.org/2000/svg">
  <g transform="matrix(1.0, 0.0, 0.0, 1.0, 30.6, 39.4)">
    <path d="M-20.45 -31.3 Q-18.65 -31.75 -17.0 -32.65 -13.8 -35.2 -12.45 -39.0 L-12.4 -39.05 -12.35 -39.3 -12.25 -39.4 -12.05 -39.3 -12.0 -39.35 Q-6.6 -34.35 -0.1 -30.65 3.2 -28.75 6.7 -27.15 L10.8 -25.35 10.85 -25.4 11.15 -25.25 11.2 -25.2 13.05 -24.5 13.85 -24.3 14.55 -23.75 14.55 -23.65 Q19.25 -20.9 21.75 -15.7 L21.8 -15.6 Q22.8 -14.25 23.4 -12.55 L23.45 -12.45 Q25.7 -6.4 24.95 -0.05 L25.1 -0.15 Q28.9 0.3 30.1 4.05 31.15 7.35 29.8 10.45 28.25 13.95 25.35 16.5 L25.65 16.75 Q26.05 17.55 26.7 18.05 29.45 20.85 27.85 24.05 26.8 26.25 24.4 26.6 L24.2 26.6 Q20.6 27.0 17.05 26.75 L17.0 26.95 16.75 27.2 Q11.6 27.65 7.5 31.15 L2.3 35.9 Q-2.45 40.6 -8.8 39.05 -10.15 38.7 -11.05 37.65 -12.8 35.8 -13.15 33.6 L-16.2 33.25 Q-19.65 32.55 -19.8 29.35 -19.95 27.1 -19.1 25.05 -23.5 24.4 -27.3 22.0 -28.65 21.15 -29.45 19.8 -31.2 16.85 -30.3 13.65 L-30.25 13.1 -30.1 12.65 -29.9 12.45 Q-28.85 11.35 -27.4 10.95 L-26.95 10.95 -26.7 10.95 -26.8 10.85 Q-29.35 7.1 -29.6 2.25 -29.95 -5.4 -26.75 -12.2 L-26.3 -13.3 -25.05 -15.15 -25.05 -15.2 -25.1 -15.3 -25.15 -15.35 -24.75 -16.1 -24.2 -17.0 -24.25 -17.0 Q-22.15 -20.5 -18.5 -22.85 L-27.7 -23.35 -29.25 -23.2 Q-29.75 -23.15 -29.95 -23.55 L-29.9 -23.75 -29.85 -23.95 Q-25.75 -25.15 -23.75 -28.95 L-22.9 -29.9 -22.6 -29.75 -22.55 -29.65 -22.55 -29.55 Q-18.45 -27.8 -13.95 -27.45 -17.2 -29.4 -20.7 -30.65 L-20.6 -31.1 -20.45 -31.3 M16.9 -20.75 L14.5 -22.7 12.85 -23.7 Q10.15 -24.6 7.55 -25.65 2.4 -27.8 -2.4 -30.85 L-8.95 -35.25 Q-10.75 -36.5 -11.9 -38.15 -13.55 -33.05 -18.55 -30.8 -14.95 -29.7 -12.45 -27.25 L-12.75 -26.85 -12.9 -26.8 -13.05 -26.9 Q-18.25 -26.35 -22.85 -28.8 -23.8 -26.45 -25.9 -24.8 L-18.95 -24.05 Q-18.1 -23.9 -17.45 -23.4 L-17.4 -23.45 Q-17.05 -23.4 -17.0 -23.0 L-16.95 -22.95 -17.05 -22.65 -17.2 -22.5 -17.45 -22.55 -21.7 -18.95 -22.25 -18.25 -21.6 -18.75 -19.9 -19.9 Q-17.7 -21.1 -15.25 -21.35 L-14.25 -21.25 -14.05 -21.2 -13.8 -20.95 -13.1 -20.7 -13.6 -20.6 -14.0 -20.65 Q-17.7 -20.35 -20.35 -18.5 L-21.05 -17.7 Q-23.95 -15.4 -25.65 -12.25 -26.7 -10.5 -27.3 -8.45 -29.5 -1.25 -27.9 6.15 -27.35 8.55 -26.05 10.6 L-25.8 11.0 -24.1 11.2 -21.7 11.8 -23.15 9.75 Q-24.55 7.25 -25.05 4.4 -25.75 0.15 -24.9 -3.9 L-23.75 -7.8 Q-21.7 -13.05 -16.75 -15.65 L-16.1 -15.95 -15.6 -15.8 -15.55 -15.75 Q-18.05 -14.25 -19.8 -12.2 -15.3 -10.7 -12.6 -6.6 L-11.75 -5.4 -11.4 -4.85 -10.65 -5.45 -8.85 -6.35 Q-8.3 -5.95 -9.05 -5.5 L-9.15 -5.45 -9.25 -5.35 Q-9.45 -4.9 -10.2 -4.4 L-10.95 -3.85 Q-8.9 -0.5 -7.85 3.3 L-7.25 6.05 Q-7.0 7.55 -7.4 8.85 L-3.8 7.35 -2.75 7.0 -2.75 6.9 -1.4 6.6 -1.2 6.55 -1.15 6.55 -0.95 6.5 2.75 6.1 2.7 6.05 Q4.65 5.9 6.55 6.0 5.7 4.95 5.35 3.5 4.9 1.8 4.75 0.1 L4.7 -0.05 Q4.3 -3.55 4.8 -7.05 L3.9 -7.25 Q3.05 -7.45 2.7 -7.8 L2.55 -7.8 2.4 -7.8 Q1.55 -7.95 1.9 -8.5 L3.9 -8.4 4.85 -8.15 4.95 -8.8 5.25 -10.2 Q6.1 -15.05 9.65 -18.2 7.2 -19.4 4.35 -19.75 L4.35 -19.85 4.75 -20.15 5.5 -20.15 Q9.05 -19.9 12.0 -18.1 13.6 -17.15 15.0 -15.7 19.45 -11.25 21.0 -5.05 21.65 -2.25 21.4 0.6 L21.1 2.25 Q22.3 1.05 23.85 0.35 24.9 -6.75 21.75 -13.2 21.35 -13.65 21.3 -14.4 L21.15 -14.95 20.8 -15.55 Q19.2 -18.5 16.9 -20.75 M9.85 -22.9 L9.35 -22.95 7.0 -22.95 6.95 -23.05 6.9 -23.25 6.9 -23.35 6.95 -23.45 7.0 -23.55 Q7.25 -23.8 7.6 -23.85 L7.85 -23.9 8.7 -23.9 Q11.95 -23.9 14.3 -22.45 L16.7 -20.5 18.45 -17.65 18.45 -17.55 18.35 -17.55 18.05 -17.55 17.95 -17.65 Q15.0 -22.3 9.85 -22.9 M-20.4 -11.45 Q-22.65 -8.55 -23.65 -4.6 L-24.15 -1.75 Q-24.85 4.1 -22.15 9.6 -21.45 11.1 -20.2 12.0 -20.7 9.9 -20.05 7.65 -19.0 4.05 -16.9 0.85 -15.05 -2.05 -12.4 -4.0 L-12.2 -4.2 Q-14.95 -8.7 -19.6 -11.0 L-20.4 -11.45 M5.7 -6.85 L5.75 -6.75 5.8 -6.8 5.7 -6.85 M5.8 -7.9 L6.1 -7.8 Q9.3 -7.05 12.15 -5.1 L12.45 -4.85 13.15 -4.35 Q15.7 -2.5 17.7 -0.1 19.2 1.7 19.55 3.8 20.35 2.5 20.4 0.85 20.8 -6.7 16.15 -12.75 L12.9 -16.15 10.45 -17.75 9.95 -17.0 Q6.55 -13.1 5.8 -7.9 M28.3 2.85 L28.2 2.65 27.95 2.4 27.45 1.7 27.3 1.55 27.2 1.5 26.65 1.15 26.55 1.05 24.6 1.15 24.5 1.2 24.4 1.3 24.05 1.3 Q22.1 1.9 20.7 3.85 L19.85 5.2 19.8 5.2 19.75 5.4 19.45 5.55 Q18.2 7.0 16.25 7.75 L15.9 7.9 16.45 8.1 17.55 8.5 Q18.6 8.95 18.95 9.95 17.7 9.85 16.25 9.15 L16.2 9.15 14.75 8.6 14.1 8.35 13.95 8.35 13.8 8.25 11.95 7.65 11.25 7.5 Q4.9 6.4 -1.1 7.6 L-4.2 8.55 -8.3 10.3 Q-11.0 11.65 -13.15 13.75 L-13.25 13.95 -13.4 14.0 -13.9 14.5 -15.45 15.95 -15.85 16.25 -16.15 16.1 -16.2 16.0 -16.25 15.9 -16.25 15.85 -16.25 15.8 -14.95 14.25 -16.25 14.3 -18.0 14.05 -18.2 14.0 Q-21.45 13.4 -24.5 12.15 L-27.5 12.0 -28.15 12.3 -28.2 12.35 -28.8 12.75 Q-31.05 17.15 -27.35 20.75 L-26.55 21.45 Q-24.05 23.4 -20.7 23.55 -19.5 23.65 -18.9 24.45 -18.45 23.05 -18.9 21.65 L-19.6 21.15 Q-21.45 19.85 -23.55 19.1 L-24.85 18.7 -25.5 20.25 -25.7 20.8 -26.25 20.9 -26.4 20.8 Q-26.55 19.1 -25.45 17.8 L-24.55 17.0 Q-24.0 16.6 -23.4 16.55 -22.85 16.45 -22.55 16.8 L-22.5 16.9 -22.5 17.0 -22.5 17.1 -22.6 17.3 Q-23.6 17.55 -24.25 18.1 -21.0 18.8 -18.3 20.8 L-18.1 21.15 -17.95 21.35 -17.9 21.85 -17.85 22.0 Q-17.55 25.15 -18.8 28.25 -19.5 29.95 -18.1 31.05 -15.35 33.15 -11.75 32.5 L-9.2 31.95 Q-5.25 30.8 -1.7 28.45 0.45 26.95 3.0 26.2 8.2 24.65 13.6 25.4 18.85 26.15 24.1 25.6 L24.8 25.5 Q26.1 25.1 26.95 24.0 27.6 23.2 27.7 22.25 26.85 19.15 24.5 17.0 L24.45 17.0 24.35 16.9 23.95 16.55 Q20.8 13.15 23.35 9.1 L23.9 8.35 22.9 8.4 22.65 8.45 22.5 8.6 22.15 9.0 22.1 9.05 21.95 9.05 21.45 8.7 Q21.45 8.45 21.6 8.25 22.05 7.55 22.85 7.35 26.6 7.0 27.25 10.2 L27.2 10.3 27.15 10.35 Q26.85 10.5 26.65 10.25 26.1 9.1 25.1 8.65 L25.05 8.75 24.95 8.9 24.75 9.05 24.55 9.15 Q21.85 13.0 24.7 15.95 26.75 13.95 28.25 11.55 L28.65 10.6 Q29.15 10.0 29.3 9.2 L29.65 7.35 29.0 4.75 28.3 2.85 M15.8 7.05 L18.35 5.3 18.8 4.8 Q17.2 1.65 14.85 -0.9 L12.25 -3.3 Q12.5 -2.2 12.35 -0.9 12.2 -0.35 11.75 -0.3 L10.15 -0.8 9.65 -0.9 8.55 -1.05 10.85 0.95 10.9 1.1 11.0 1.5 Q9.65 3.8 7.1 4.75 L7.8 6.05 11.0 6.5 13.5 7.15 14.75 7.5 15.8 7.05 M13.75 19.55 L7.95 18.85 Q5.95 18.4 4.05 18.8 L2.0 19.1 Q-2.4 19.55 -5.9 22.3 L-8.55 24.7 -8.75 24.65 -8.9 24.45 -8.95 24.35 Q-7.1 21.05 -3.35 19.5 0.5 17.95 4.6 17.85 9.5 17.5 13.75 19.5 L13.75 19.55 M-11.7 -3.3 L-11.75 -3.25 -11.7 -3.2 -11.7 -3.3 M-18.35 12.9 L-17.9 13.05 -15.65 13.45 -14.2 13.5 -11.25 11.05 -8.5 9.4 -8.4 7.9 Q-11.1 8.05 -13.25 6.45 L-13.3 6.05 -13.3 5.9 -12.0 3.15 -12.95 3.7 -14.65 5.1 Q-15.1 5.25 -15.45 4.8 L-15.7 4.35 -16.3 2.55 -17.75 5.8 Q-18.9 9.1 -19.1 12.6 L-18.5 12.85 -18.35 12.9 M-8.0 32.5 L-9.5 33.05 Q-8.95 33.6 -8.55 34.45 L-8.05 35.1 Q-6.8 35.45 -5.55 35.1 -1.75 32.3 1.95 29.3 4.2 27.5 6.85 26.45 2.55 27.1 -1.45 29.3 -4.5 31.0 -7.75 32.4 L-8.0 32.5 M13.95 26.45 L9.4 26.25 9.4 26.3 9.3 26.6 9.25 26.7 Q2.05 28.9 -3.2 34.45 -5.7 37.1 -8.75 35.45 L-9.6 34.65 -10.4 33.3 -12.5 33.55 Q-11.3 36.25 -8.9 37.9 -7.0 39.2 -4.6 38.55 0.0 37.2 3.45 33.8 7.7 29.65 12.95 27.05 L14.0 26.6 14.4 26.5 13.95 26.45 M-14.85 3.75 L-15.0 3.55 -14.9 3.75 -14.85 3.75" fill="#000000" fill-rule="evenodd" stroke="none"/>
    <path d="M-21.7 -18.95 L-17.45 -22.55 -17.2 -22.5 -17.05 -22.65 -16.95 -22.95 -17.0 -23.0 Q-17.05 -23.4 -17.4 -23.45 L-17.45 -23.4 Q-18.1 -23.9 -18.95 -24.05 L-25.9 -24.8 Q-23.8 -26.45 -22.85 -28.8 -18.25 -26.35 -13.05 -26.9 L-12.9 -26.8 -12.75 -26.85 -12.45 -27.25 Q-14.95 -29.7 -18.55 -30.8 -13.55 -33.05 -11.9 -38.15 -10.75 -36.5 -8.95 -35.25 L-2.4 -30.85 Q2.4 -27.8 7.55 -25.65 10.15 -24.6 12.85 -23.7 L14.5 -22.7 16.9 -20.75 16.7 -20.5 14.3 -22.45 Q11.95 -23.9 8.7 -23.9 L7.85 -23.9 7.6 -23.85 Q7.25 -23.8 7.0 -23.55 L6.95 -23.45 6.9 -23.35 6.9 -23.25 6.95 -23.05 7.0 -22.95 9.35 -22.95 9.85 -22.9 9.75 -22.45 10.9 -20.55 12.0 -18.1 Q9.05 -19.9 5.5 -20.15 L4.75 -20.15 4.35 -19.85 4.35 -19.75 Q7.2 -19.4 9.65 -18.2 6.1 -15.05 5.25 -10.2 L4.95 -8.8 4.85 -8.15 3.9 -8.4 1.9 -8.5 Q1.55 -7.95 2.4 -7.8 L2.55 -7.8 2.7 -7.8 Q3.05 -7.45 3.9 -7.25 L4.8 -7.05 Q4.3 -3.55 4.7 -0.05 L4.75 0.1 Q-1.0 2.55 -7.85 3.3 -8.9 -0.5 -10.95 -3.85 L-10.2 -4.4 Q-9.45 -4.9 -9.25 -5.35 L-9.15 -5.45 -9.05 -5.5 Q-8.3 -5.95 -8.85 -6.35 L-10.65 -5.45 -11.4 -4.85 -11.75 -5.4 -12.6 -6.6 Q-15.3 -10.7 -19.8 -12.2 -18.05 -14.25 -15.55 -15.75 L-15.6 -15.8 -16.1 -15.95 -16.75 -15.65 Q-21.7 -13.05 -23.75 -7.8 L-24.9 -3.9 -25.6 -7.1 Q-26.0 -9.8 -25.65 -12.25 -23.95 -15.4 -21.05 -17.7 L-20.35 -18.5 Q-17.7 -20.35 -14.0 -20.65 L-13.6 -20.6 -13.1 -20.7 -13.8 -20.95 -14.05 -21.2 -14.25 -21.25 -15.25 -21.35 Q-17.7 -21.1 -19.9 -19.9 L-21.6 -18.75 -21.7 -18.95 M-26.05 10.6 Q-25.15 10.4 -24.1 11.2 L-25.8 11.0 -26.05 10.6" fill="#55bb65" fill-rule="evenodd" stroke="none"/>
    <path d="M-25.65 -12.25 Q-26.0 -9.8 -25.6 -7.1 L-24.9 -3.9 Q-25.75 0.15 -25.05 4.4 -24.55 7.25 -23.15 9.75 L-21.7 11.8 -24.1 11.2 Q-25.15 10.4 -26.05 10.6 -27.35 8.55 -27.9 6.15 -29.5 -1.25 -27.3 -8.45 -26.7 -10.5 -25.65 -12.25 M-7.85 3.3 Q-1.0 2.55 4.75 0.1 4.9 1.8 5.35 3.5 5.7 4.95 6.55 6.0 4.65 5.9 2.7 6.05 L2.75 6.1 -0.95 6.5 -1.15 6.55 -1.2 6.55 -1.4 6.6 -2.75 6.9 -2.75 7.0 -3.8 7.35 -7.4 8.85 Q-7.0 7.55 -7.25 6.05 L-7.85 3.3 M12.0 -18.1 L10.9 -20.55 9.75 -22.45 9.85 -22.9 Q15.0 -22.3 17.95 -17.65 L18.05 -17.55 18.35 -17.55 18.45 -17.55 18.45 -17.65 16.7 -20.5 16.9 -20.75 Q19.2 -18.5 20.8 -15.55 L21.15 -14.95 21.3 -14.4 Q21.35 -13.65 21.75 -13.2 24.9 -6.75 23.85 0.35 22.3 1.05 21.1 2.25 L21.4 0.6 Q21.65 -2.25 21.0 -5.05 19.45 -11.25 15.0 -15.7 13.6 -17.15 12.0 -18.1 M-20.4 -11.45 L-19.6 -11.0 Q-14.95 -8.7 -12.2 -4.2 L-12.4 -4.0 Q-15.05 -2.05 -16.9 0.85 -19.0 4.05 -20.05 7.65 -20.7 9.9 -20.2 12.0 -21.45 11.1 -22.15 9.6 -24.85 4.1 -24.15 -1.75 L-23.65 -4.6 Q-22.65 -8.55 -20.4 -11.45 M5.8 -7.9 Q6.55 -13.1 9.95 -17.0 L10.45 -17.75 12.9 -16.15 16.15 -12.75 Q20.8 -6.7 20.4 0.85 20.35 2.5 19.55 3.8 19.2 1.7 17.7 -0.1 15.7 -2.5 13.15 -4.35 L12.45 -4.85 12.15 -5.1 Q9.3 -7.05 6.1 -7.8 L5.8 -7.9" fill="#43a752" fill-rule="evenodd" stroke="none"/>
    <path d="M-28.2 12.35 L-28.15 12.3 -27.5 12.0 -24.5 12.15 Q-21.45 13.4 -18.2 14.0 L-18.0 14.05 -16.25 14.3 -14.95 14.25 -16.25 15.8 -16.25 15.85 -16.25 15.9 -16.2 16.0 -16.15 16.1 -15.85 16.25 -15.45 15.95 -13.9 14.5 -13.4 14.0 -13.25 13.95 -13.15 13.75 Q-11.0 11.65 -8.3 10.3 L-4.2 8.55 -1.1 7.6 Q4.9 6.4 11.25 7.5 L11.95 7.65 13.8 8.25 13.95 8.35 14.1 8.35 14.75 8.6 16.2 9.15 16.25 9.15 Q17.7 9.85 18.95 9.95 18.6 8.95 17.55 8.5 L16.45 8.1 15.9 7.9 16.25 7.75 Q18.2 7.0 19.45 5.55 L19.75 5.4 19.8 5.2 19.85 5.2 20.7 3.85 Q22.1 1.9 24.05 1.3 L24.4 1.3 24.5 1.2 24.6 1.15 26.55 1.05 26.65 1.15 27.2 1.5 27.3 1.55 27.45 1.7 27.95 2.4 28.2 2.65 28.3 2.85 26.45 2.95 Q24.75 3.5 23.05 4.6 19.4 6.95 19.05 11.4 18.95 12.5 19.2 13.45 19.75 15.6 21.1 17.25 L21.75 18.05 Q23.35 20.1 24.4 22.45 25.1 24.05 24.8 25.5 L24.1 25.6 Q18.85 26.15 13.6 25.4 8.2 24.65 3.0 26.2 0.45 26.95 -1.7 28.45 -5.25 30.8 -9.2 31.95 -9.65 31.6 -10.55 31.7 -12.35 31.85 -13.7 30.55 -15.05 29.2 -14.9 27.4 -14.5 23.35 -17.6 21.95 L-17.85 22.0 -17.9 21.85 -17.95 21.35 -18.1 21.15 -18.3 20.8 Q-21.0 18.8 -24.25 18.1 -23.6 17.55 -22.6 17.3 L-22.5 17.1 -22.5 17.0 -22.5 16.9 -22.55 16.8 Q-22.85 16.45 -23.4 16.55 -24.0 16.6 -24.55 17.0 L-25.45 17.8 -27.15 16.5 Q-29.5 14.65 -28.2 12.35 M13.75 19.55 L13.75 19.5 Q9.5 17.5 4.6 17.85 0.5 17.95 -3.35 19.5 -7.1 21.05 -8.95 24.35 L-8.9 24.45 -8.75 24.65 -8.55 24.7 -5.9 22.3 Q-2.4 19.55 2.0 19.1 L4.05 18.8 Q5.95 18.4 7.95 18.85 L13.75 19.55" fill="#f07942" fill-rule="evenodd" stroke="none"/>
    <path d="M-28.2 12.35 Q-29.5 14.65 -27.15 16.5 L-25.45 17.8 Q-26.55 19.1 -26.4 20.8 L-26.25 20.9 -25.7 20.8 -25.5 20.25 -24.85 18.7 -23.55 19.1 Q-21.45 19.85 -19.6 21.15 L-18.9 21.65 Q-18.45 23.05 -18.9 24.45 -19.5 23.65 -20.7 23.55 -24.05 23.4 -26.55 21.45 L-27.35 20.75 Q-31.05 17.15 -28.8 12.75 L-28.2 12.35 M-17.85 22.0 L-17.6 21.95 Q-14.5 23.35 -14.9 27.4 -15.05 29.2 -13.7 30.55 -12.35 31.85 -10.55 31.7 -9.65 31.6 -9.2 31.95 L-11.75 32.5 Q-15.35 33.15 -18.1 31.05 -19.5 29.95 -18.8 28.25 -17.55 25.15 -17.85 22.0 M24.8 25.5 Q25.1 24.05 24.4 22.45 23.35 20.1 21.75 18.05 L21.1 17.25 Q19.75 15.6 19.2 13.45 18.95 12.5 19.05 11.4 19.4 6.95 23.05 4.6 24.75 3.5 26.45 2.95 L28.3 2.85 29.0 4.75 29.65 7.35 29.3 9.2 Q29.15 10.0 28.65 10.6 L28.25 11.55 Q26.75 13.95 24.7 15.95 21.85 13.0 24.55 9.15 L24.75 9.05 24.95 8.9 25.05 8.75 25.1 8.65 Q26.1 9.1 26.65 10.25 26.85 10.5 27.15 10.35 L27.2 10.3 27.25 10.2 Q26.6 7.0 22.85 7.35 22.05 7.55 21.6 8.25 21.45 8.45 21.45 8.7 L21.95 9.05 22.1 9.05 22.15 9.0 22.5 8.6 22.65 8.45 22.9 8.4 23.9 8.35 23.35 9.1 Q20.8 13.15 23.95 16.55 L24.35 16.9 24.45 17.0 24.5 17.0 Q26.85 19.15 27.7 22.25 27.6 23.2 26.95 24.0 26.1 25.1 24.8 25.5 M14.0 26.6 L12.95 27.05 Q7.7 29.65 3.45 33.8 0.0 37.2 -4.6 38.55 -7.0 39.2 -8.9 37.9 -11.3 36.25 -12.5 33.55 L-10.4 33.3 -9.6 34.65 -8.75 35.45 Q-5.7 37.1 -3.2 34.45 2.05 28.9 9.25 26.7 L9.3 26.6 9.4 26.3 9.4 26.25 13.95 26.45 14.0 26.6" fill="#e05512" fill-rule="evenodd" stroke="none"/>
    <path d="M10.15 -0.8 L11.75 -0.3 Q12.2 -0.35 12.35 -0.9 12.5 -2.2 12.25 -3.3 L14.85 -0.9 Q17.2 1.65 18.8 4.8 L18.35 5.3 15.8 7.05 15.45 6.4 14.85 5.5 13.95 3.9 13.1 2.3 Q12.0 0.5 10.15 -0.8" fill="#cccccc" fill-rule="evenodd" stroke="none"/>
    <path d="M15.8 7.05 L14.75 7.5 13.5 7.15 11.0 6.5 7.8 6.05 7.1 4.75 Q9.65 3.8 11.0 1.5 L10.9 1.1 10.85 0.95 8.55 -1.05 9.65 -0.9 10.15 -0.8 Q12.0 0.5 13.1 2.3 L13.95 3.9 14.85 5.5 15.45 6.4 15.8 7.05 M-15.7 4.35 L-15.45 4.8 Q-15.1 5.25 -14.65 5.1 L-12.95 3.7 -12.0 3.15 -13.3 5.9 -13.3 6.05 -13.25 6.45 Q-11.1 8.05 -8.4 7.9 L-8.5 9.4 -11.25 11.05 -14.2 13.5 -15.65 13.45 -17.9 13.05 -18.35 12.9 -17.9 13.0 Q-17.45 8.6 -15.8 4.5 L-15.7 4.35" fill="#ffffff" fill-rule="evenodd" stroke="none"/>
    <path d="M-8.0 32.5 L-7.75 32.4 Q-4.5 31.0 -1.45 29.3 2.55 27.1 6.85 26.45 4.2 27.5 1.95 29.3 -1.75 32.3 -5.55 35.1 -6.8 35.45 -8.05 35.1 L-8.55 34.45 Q-8.95 33.6 -9.5 33.05 L-8.0 32.5" fill="#660000" fill-rule="evenodd" stroke="none"/>
  </g>
</svg>
