<?xml version="1.0" encoding="UTF-8" standalone="no"?>
<svg xmlns:xlink="http://www.w3.org/1999/xlink" height="125.65px" width="147.9px" xmlns="http://www.w3.org/2000/svg">
  <g transform="matrix(1.0, 0.0, 0.0, 1.0, 73.95, 62.8)">
    <path d="M-25.95 -61.2 Q-30.7 -62.15 -35.6 -61.35 -39.75 -60.8 -43.45 -58.5 -45.7 -57.05 -47.65 -55.25 -47.8 -54.8 -48.4 -54.25 L-50.35 -51.8 -51.45 -49.65 Q-51.15 -49.35 -50.6 -49.35 L-49.9 -48.85 -49.5 -48.7 Q-47.75 -47.3 -46.65 -45.3 L-46.45 -44.45 -46.7 -44.15 -46.8 -44.05 -49.1 -46.75 Q-50.05 -48.05 -51.55 -48.55 L-51.6 -48.55 -51.9 -48.7 -51.9 -48.65 Q-53.6 -44.5 -53.7 -39.75 L-52.55 -42.25 Q-50.15 -42.65 -48.85 -40.25 -46.9 -36.8 -46.5 -33.0 L-46.55 -32.8 -46.75 -32.9 -47.1 -33.3 -47.2 -33.45 -47.15 -33.55 -47.15 -33.7 -47.15 -33.75 -47.2 -33.85 Q-48.15 -36.95 -49.85 -39.6 L-50.5 -40.65 -50.65 -40.8 -51.15 -41.2 -51.2 -41.3 -51.35 -41.35 -51.55 -41.45 -51.65 -41.5 -51.75 -41.5 -52.15 -41.35 -52.6 -40.4 -52.9 -39.9 -52.85 -39.85 -52.85 -39.7 -52.8 -39.5 -52.85 -39.4 Q-53.35 -37.2 -53.4 -34.85 -53.0 -31.45 -51.95 -28.15 -50.15 -30.9 -47.1 -32.4 L-46.5 -32.7 Q-43.1 -34.2 -40.25 -31.9 L-40.25 -31.85 -43.35 -32.3 -45.2 -32.15 Q-49.0 -30.7 -51.5 -27.65 L-51.0 -27.3 -50.95 -27.2 -50.95 -27.15 -50.95 -27.1 -49.75 -25.9 -48.75 -25.85 Q-45.8 -26.9 -44.95 -29.9 -44.1 -29.15 -44.9 -27.75 -46.45 -25.1 -48.75 -25.0 L-47.7 -24.35 Q-42.0 -21.5 -37.15 -25.75 -32.9 -29.5 -27.65 -30.9 L-27.55 -30.9 -23.75 -31.55 Q-21.3 -31.85 -19.3 -30.65 L-19.2 -30.3 -19.0 -29.8 Q-19.15 -29.65 -19.4 -29.65 L-20.05 -30.1 -20.05 -30.15 -27.9 -29.8 Q-31.05 -28.85 -33.9 -26.6 -36.9 -24.3 -40.25 -22.7 -41.0 -22.35 -41.8 -22.3 L-46.6 -22.8 Q-49.05 -23.65 -50.75 -25.3 L-51.1 -25.4 -51.25 -25.65 -51.25 -25.75 -51.8 -26.45 -51.95 -26.4 -52.4 -26.9 -52.55 -27.1 -52.75 -27.4 Q-55.9 -28.45 -58.95 -26.95 L-60.05 -26.35 Q-63.1 -24.45 -64.25 -21.0 -65.75 -17.0 -64.25 -13.0 -62.9 -9.3 -59.7 -7.1 L-58.8 -6.5 -58.75 -6.5 Q-54.9 -3.75 -50.3 -3.15 L-50.1 -3.1 Q-43.0 -3.6 -37.7 -8.7 -35.15 -11.2 -32.2 -13.35 -30.5 -14.6 -28.55 -15.05 L-32.85 -15.15 -32.85 -15.35 -32.8 -15.55 -32.4 -15.85 Q-30.0 -16.45 -27.55 -15.95 L-27.3 -15.95 -25.25 -14.75 -24.15 -13.85 Q-24.1 -13.6 -24.3 -13.5 L-24.55 -13.45 -25.95 -14.0 -26.45 -14.2 -26.55 -14.25 -26.55 -14.35 Q-32.55 -13.2 -36.7 -8.6 L-39.2 -6.2 Q-43.9 -2.5 -49.5 -2.4 -44.3 -1.35 -38.9 -3.6 -34.25 -5.65 -29.6 -7.85 -24.8 -10.1 -20.9 -13.65 -17.95 -16.3 -15.65 -19.35 L-15.5 -19.5 -15.15 -18.45 -17.5 -15.75 Q-14.95 -15.55 -13.5 -13.85 L-13.1 -13.35 -12.8 -13.6 -12.5 -13.45 -12.45 -13.35 -12.9 -12.45 -13.95 -10.05 -13.9 -9.95 -13.85 -9.85 -14.0 -9.5 -14.0 -9.45 -9.55 3.95 -9.1 5.2 -8.5 7.0 -8.4 6.95 -8.15 6.95 -7.9 7.35 -7.9 7.45 -8.25 7.9 -7.8 9.15 -7.0 11.8 -6.7 12.8 -6.85 12.95 -5.25 14.15 -5.25 14.1 -5.1 14.05 -4.9 14.0 -4.9 13.95 Q0.25 13.65 5.25 14.8 6.1 12.75 7.2 10.85 8.15 9.15 9.25 7.55 L10.0 6.7 9.1 6.55 8.9 6.45 8.8 6.4 8.75 6.35 Q7.85 4.25 6.75 2.3 4.95 -0.95 2.55 -3.9 L1.75 -5.25 1.75 -5.45 1.8 -5.55 2.0 -5.65 2.05 -5.7 2.2 -5.75 Q5.75 -2.2 8.0 2.4 L8.85 4.3 9.3 5.35 Q16.05 6.45 21.85 3.4 L24.75 1.55 Q28.75 -1.4 29.7 -6.15 L29.4 -6.35 Q29.2 -6.4 29.15 -6.5 22.9 -8.45 17.9 -12.85 L14.2 -16.5 Q9.35 -23.25 0.8 -21.8 -0.35 -21.6 -1.3 -20.9 L-1.95 -20.85 -2.0 -20.9 -2.05 -21.0 -2.1 -21.2 -2.1 -21.3 -2.05 -21.4 Q-1.0 -22.35 0.35 -22.8 L2.7 -23.25 Q10.75 -23.25 15.45 -16.9 17.45 -14.2 20.2 -12.15 23.7 -9.5 27.8 -8.0 L29.7 -7.15 30.1 -7.15 30.3 -7.1 Q31.0 -4.2 28.9 -1.55 L27.1 0.45 28.3 1.6 33.1 6.45 37.0 10.75 38.7 12.65 38.15 10.1 37.9 9.6 37.7 8.0 37.7 7.6 Q37.65 6.5 37.2 5.55 L35.85 0.55 Q34.3 -3.8 31.7 -7.55 28.65 -11.95 24.85 -15.75 15.7 -24.85 3.0 -26.9 L-5.25 -27.7 -5.4 -27.7 -5.45 -27.8 -5.45 -28.0 -5.45 -28.05 -5.4 -28.15 -5.2 -28.3 -5.1 -28.35 -4.9 -28.4 -3.65 -28.5 Q3.9 -28.5 10.95 -25.85 17.95 -23.25 23.6 -18.25 29.2 -13.35 33.1 -7.0 37.0 -0.7 38.35 6.55 L38.7 8.45 38.85 9.1 38.95 9.45 Q39.65 11.55 39.8 13.85 L45.3 19.4 47.5 19.15 Q53.75 19.05 53.75 25.0 64.05 27.05 70.85 34.95 76.45 41.45 72.0 48.15 70.4 50.2 68.0 50.85 62.95 52.2 58.95 48.75 54.3 44.75 50.7 39.95 50.4 44.75 45.9 46.4 42.5 47.55 39.55 45.55 41.65 39.45 40.5 33.1 L40.15 32.95 Q37.3 39.95 30.85 44.05 24.1 48.3 15.9 46.9 L14.55 46.55 Q14.75 51.25 15.45 55.9 15.6 56.8 15.1 57.5 L15.0 57.55 Q14.45 58.85 12.7 59.45 2.65 63.05 -8.05 62.85 L-16.3 62.35 -16.9 62.25 Q-20.85 61.75 -24.65 60.6 -27.8 59.6 -29.65 57.15 L-29.8 57.15 -30.05 57.05 -30.25 56.9 -30.35 56.8 -30.5 56.65 Q-30.9 54.45 -30.1 52.4 -29.35 50.3 -28.15 48.45 L-27.4 47.35 Q-31.45 49.7 -36.3 50.5 L-46.45 50.95 -49.6 50.6 Q-55.75 49.7 -61.3 46.9 -62.4 46.3 -62.9 45.35 L-63.25 45.25 -63.35 45.15 Q-62.85 42.8 -61.4 40.7 -58.4 36.35 -53.9 33.4 -48.45 29.75 -41.9 29.45 -39.2 29.1 -37.1 30.1 -37.25 25.55 -36.05 21.15 -33.9 13.25 -28.65 7.15 -26.6 4.7 -23.7 3.5 L-23.05 3.25 -22.65 3.2 Q-19.85 4.05 -17.85 6.15 -15.3 1.45 -15.6 -4.2 -15.75 -6.95 -15.05 -9.65 L-14.8 -9.9 -14.85 -10.15 -14.8 -10.55 Q-14.45 -11.95 -13.5 -12.95 -14.45 -13.15 -15.4 -13.95 -15.95 -14.4 -16.65 -14.5 -17.5 -14.65 -18.15 -15.05 -21.8 -11.4 -26.4 -8.7 -27.8 -7.85 -29.3 -7.15 L-35.1 -4.2 Q-41.75 -1.0 -48.9 -1.2 -50.95 -1.35 -52.3 -2.55 L-52.3 -2.6 Q-55.05 -3.1 -57.45 -4.5 L-57.5 -4.55 -57.55 -4.65 -59.4 -5.55 -59.7 -5.8 -60.6 -6.65 -61.45 -7.1 Q-63.25 -8.75 -64.45 -10.85 L-65.4 -12.9 Q-68.15 -11.8 -70.45 -13.95 L-71.25 -14.6 Q-73.05 -16.55 -73.6 -19.05 L-73.95 -22.95 Q-73.6 -26.15 -70.95 -28.15 L-69.85 -29.0 Q-64.5 -31.5 -60.5 -27.5 L-60.4 -27.45 -59.6 -27.95 -59.25 -28.1 Q-56.15 -29.5 -53.3 -28.55 L-53.7 -29.8 Q-55.15 -36.05 -54.5 -42.4 -54.0 -46.7 -52.3 -50.6 -50.6 -53.75 -47.95 -56.2 L-47.85 -56.15 Q-45.65 -58.5 -42.45 -59.85 -41.25 -60.4 -40.5 -61.0 -33.5 -63.9 -26.05 -62.1 -25.3 -61.95 -24.7 -61.45 L-24.7 -61.4 -24.75 -61.05 -24.8 -60.95 -25.95 -61.2 M-20.5 -58.9 L-20.45 -58.9 -19.8 -58.8 -19.65 -58.75 Q-13.3 -54.85 -10.7 -47.7 -9.2 -43.5 -9.9 -39.1 L-10.3 -38.95 -10.65 -39.05 -10.7 -39.1 -10.65 -39.7 Q-10.35 -46.6 -14.4 -52.35 -16.8 -55.8 -20.15 -58.4 L-20.55 -58.75 -20.5 -58.9 M-30.05 -55.9 L-30.15 -55.75 -30.3 -55.35 -30.25 -55.3 -30.15 -55.1 -29.9 -54.9 -30.6 -54.65 -31.0 -54.5 Q-31.6 -54.25 -32.05 -53.8 L-31.45 -55.4 -31.35 -55.6 Q-30.15 -58.0 -27.65 -59.55 -24.4 -61.65 -22.0 -59.5 L-19.9 -56.25 -14.75 -46.35 Q-11.4 -39.85 -8.55 -32.95 -6.3 -27.3 -3.65 -21.8 L-3.45 -21.25 -3.35 -21.05 -3.15 -20.75 -2.7 -19.85 -2.6 -19.8 Q-0.05 -15.3 1.2 -10.45 L1.55 -8.9 1.5 -8.75 1.5 -8.65 1.5 -8.1 Q1.3 -4.5 -2.05 -4.05 L-2.2 -3.95 Q-4.4 -3.75 -6.35 -5.3 -10.3 -8.55 -12.15 -13.35 L-13.25 -16.75 Q-13.55 -17.8 -14.05 -18.45 L-14.25 -19.1 -15.55 -22.6 -16.9 -26.25 -19.25 -33.05 -23.6 -47.0 Q-25.25 -52.6 -29.65 -55.9 L-29.7 -55.9 -30.05 -55.9 M-14.5 -6.4 L-14.55 -6.0 Q-14.2 -0.45 -15.8 4.75 -16.15 5.9 -16.9 6.5 -13.4 7.7 -9.55 7.2 L-10.1 5.7 -10.1 5.65 -12.35 -0.8 -14.4 -8.15 -14.5 -6.4 M-15.65 19.1 L-15.1 13.85 -14.85 12.55 -14.95 12.5 -15.05 12.4 Q-17.75 7.25 -22.7 4.4 L-23.1 4.25 Q-29.65 7.65 -32.75 14.5 -35.0 19.65 -35.75 25.1 L-36.3 30.5 -36.15 30.6 -36.15 30.7 -36.15 30.75 -36.25 30.95 -36.25 31.05 -36.3 31.15 -36.35 31.85 Q-36.65 32.15 -37.0 31.85 L-37.05 31.05 Q-43.7 30.05 -49.95 32.55 -55.65 34.85 -59.25 39.75 -60.95 42.0 -62.25 44.45 L-58.7 46.75 Q-57.95 44.5 -56.3 42.4 -52.75 37.8 -47.3 36.15 L-46.4 35.95 -45.65 36.0 -45.5 36.05 Q-52.2 38.5 -56.2 44.8 L-57.85 47.15 Q-55.6 48.2 -53.15 48.8 -48.9 49.85 -44.5 49.95 L-37.95 49.45 Q-33.0 48.65 -28.6 46.4 L-26.45 45.35 -25.75 45.3 -25.2 44.7 Q-26.05 43.4 -26.15 41.55 -26.55 34.4 -24.6 27.5 -23.3 22.85 -20.55 18.95 L-19.6 17.95 -19.45 17.9 -19.3 17.85 -18.9 18.1 -18.9 18.2 -20.5 20.8 -15.7 26.15 -15.7 19.75 -15.65 19.1 M-4.4 14.85 Q-5.85 15.35 -7.5 14.2 -10.2 12.4 -12.5 10.15 L-12.95 9.65 -13.1 9.9 -13.15 10.0 Q-14.25 15.25 -14.45 20.75 L-14.5 24.45 -14.3 27.55 -14.3 27.6 -14.3 27.65 Q-13.85 32.1 -12.25 36.3 L-12.15 36.55 -11.8 36.6 Q-11.65 36.6 -11.65 36.75 L-11.65 36.85 -11.75 37.15 -11.95 37.2 -12.0 37.5 -8.15 36.95 -7.05 36.9 Q-9.15 35.4 -9.9 32.65 -11.6 25.65 -8.6 19.2 L-7.85 18.2 -7.55 18.0 Q-7.3 18.95 -8.1 20.15 L-8.55 21.0 -8.95 22.85 -9.0 23.15 Q-10.0 28.65 -7.85 33.7 -7.05 35.5 -5.65 36.85 L-3.6 36.95 -3.55 36.95 1.3 37.3 Q1.0 31.8 2.0 26.2 2.65 22.55 3.75 18.9 L4.85 15.75 -4.4 14.8 -4.45 14.8 -4.4 14.85 M-16.75 7.5 L-16.7 7.55 -14.35 11.0 -13.4 8.85 -13.45 8.75 -13.3 8.45 -16.7 7.5 -16.75 7.5 M-11.35 8.6 L-12.55 8.55 -11.2 9.6 -11.35 8.6 M-10.1 9.85 L-10.0 10.3 -9.95 10.55 -8.15 11.95 -7.9 12.15 -7.7 12.3 -7.8 12.1 -8.75 9.45 -9.15 8.4 -9.9 8.5 -10.35 8.55 -10.1 9.85 M-45.65 -14.65 L-45.5 -14.55 -45.35 -14.4 -45.3 -14.1 -45.35 -13.9 -45.5 -13.6 Q-46.1 -13.25 -46.45 -13.8 L-46.5 -14.3 -46.3 -14.55 -45.9 -14.7 -45.65 -14.65 M-52.4 -14.7 Q-52.95 -14.35 -53.35 -14.9 L-53.4 -15.4 -53.2 -15.65 -52.8 -15.8 -52.55 -15.75 -52.4 -15.65 -52.25 -15.5 -52.15 -15.2 -52.2 -15.0 -52.4 -14.7 M-50.65 -10.55 L-50.2 -10.3 -50.15 -10.2 Q-50.35 -8.3 -51.7 -9.55 -51.9 -9.75 -51.75 -10.05 -51.4 -10.65 -50.65 -10.55 M-63.65 -27.15 L-63.55 -27.3 -63.4 -27.55 -63.4 -27.65 -63.4 -27.75 -63.4 -27.85 -63.45 -27.95 Q-64.85 -29.5 -67.3 -28.9 -68.5 -28.7 -69.5 -27.9 L-71.05 -26.15 -71.45 -25.6 -71.95 -23.45 -72.05 -22.05 -71.95 -21.85 Q-71.65 -21.45 -71.2 -21.55 L-71.15 -21.55 -71.05 -21.65 -70.9 -21.8 -70.9 -21.9 -70.85 -22.0 -70.85 -23.05 -70.65 -24.15 -70.55 -24.3 -69.85 -25.3 -69.55 -25.6 -69.1 -25.9 Q-66.65 -27.2 -63.95 -26.7 L-63.65 -27.15 M-58.25 -15.3 Q-57.55 -13.6 -59.45 -14.15 L-59.8 -14.6 Q-59.7 -15.25 -59.05 -15.45 L-58.9 -15.45 -58.4 -15.4 -58.25 -15.3 M24.15 35.6 L24.4 35.45 Q26.1 34.7 27.15 33.4 27.2 27.05 25.25 21.1 23.9 17.1 22.0 13.5 L20.65 11.2 Q19.45 9.05 17.9 7.2 L16.95 6.15 16.45 6.25 13.85 6.7 11.05 6.75 9.6 9.1 9.5 9.25 9.1 9.55 8.35 10.9 Q5.4 16.35 4.05 22.45 2.5 29.65 2.15 37.0 L2.2 37.45 2.3 37.55 2.4 37.65 2.45 37.8 2.5 37.9 2.5 38.0 2.45 38.2 2.35 38.25 2.35 38.35 Q2.4 38.95 2.0 39.35 L1.85 39.45 1.45 39.2 1.4 38.45 -1.1 38.3 -1.5 38.25 Q-4.9 38.0 -8.4 38.15 -13.5 38.3 -17.95 40.55 -22.55 42.9 -25.85 46.75 -29.25 50.7 -29.55 55.8 -28.05 57.55 -25.95 58.65 L-25.8 57.85 -25.65 57.5 Q-25.25 56.25 -24.15 55.2 L-22.55 53.55 Q-16.75 48.0 -9.0 46.35 L-7.95 46.5 -7.85 46.55 Q-14.75 48.75 -20.45 53.45 -23.15 55.65 -24.95 58.65 L-24.95 58.85 -24.95 58.95 -25.0 59.05 -25.0 59.1 -23.8 59.5 Q-17.4 61.15 -11.0 61.45 -1.35 61.95 8.3 59.4 L13.1 57.65 Q13.95 57.25 14.05 56.45 L13.25 46.5 13.2 45.85 13.15 45.8 13.2 45.8 Q12.85 42.5 13.05 39.1 13.4 31.85 14.4 24.8 15.3 21.7 16.45 18.7 16.6 18.4 16.9 18.3 16.95 18.0 17.2 18.0 17.3 19.45 16.7 21.15 L16.2 22.85 Q19.0 29.4 19.1 36.45 L21.45 36.3 24.15 35.6 M-21.15 22.1 Q-23.35 26.5 -24.25 31.5 -25.4 37.85 -24.75 44.25 -21.3 40.85 -16.5 38.9 -14.7 38.15 -12.8 37.7 L-13.15 37.4 Q-18.5 38.05 -23.15 35.2 -23.85 34.75 -23.7 33.9 -20.2 30.65 -15.35 30.1 L-15.6 27.7 -18.5 25.05 -21.15 22.1 M-18.75 32.3 Q-20.95 32.75 -22.6 34.2 -20.65 35.75 -17.85 35.95 L-13.95 36.35 -14.6 34.5 -15.2 31.05 Q-16.75 31.9 -18.75 32.3 M27.9 2.4 L26.5 1.0 22.4 3.95 22.4 4.0 19.55 5.3 21.65 7.2 22.55 8.0 Q26.45 11.55 30.05 15.4 L31.85 17.25 38.6 24.05 Q39.6 22.4 41.0 21.3 42.45 20.1 44.3 19.6 L38.65 14.2 35.65 10.9 32.4 7.25 31.35 5.95 31.2 5.65 30.8 5.25 27.9 2.4 M18.4 5.7 L17.9 5.85 18.05 6.0 19.4 7.4 Q22.05 10.45 23.85 14.05 L24.75 16.0 24.95 16.1 25.1 16.3 25.2 16.45 Q30.55 18.35 34.55 22.2 L37.05 24.95 37.7 25.85 37.7 25.8 38.1 24.95 34.8 21.9 34.7 21.8 29.15 16.0 24.4 11.2 23.5 10.3 20.55 7.6 18.4 5.7 M44.05 20.9 Q42.8 21.25 41.75 21.95 40.25 23.0 39.3 24.75 L38.85 25.55 38.55 26.35 38.35 26.85 Q38.0 28.15 38.25 29.3 L38.55 30.1 Q39.05 31.05 40.2 31.85 L40.4 32.0 Q44.7 25.35 52.55 24.8 51.65 20.1 46.3 20.5 L44.05 20.9 M28.45 30.1 Q28.55 29.55 28.95 29.2 L28.95 29.15 29.25 29.35 29.3 29.4 Q29.9 34.2 25.4 36.6 L24.25 37.15 Q20.05 38.85 16.05 36.7 L16.0 36.3 16.05 36.1 18.05 36.4 Q17.65 30.3 15.75 24.55 15.05 27.55 14.95 30.7 14.1 37.75 14.45 45.0 L14.45 45.05 16.0 45.25 Q18.1 45.95 20.35 45.85 L24.3 45.25 Q32.6 43.1 37.05 35.9 L39.35 32.35 39.15 32.1 Q37.2 30.75 37.4 28.1 L37.4 27.75 Q34.05 23.0 29.2 19.8 L25.3 17.4 25.25 17.35 25.25 17.4 Q26.55 20.95 27.5 24.55 28.25 27.3 28.2 30.1 L28.1 31.95 28.4 31.2 Q28.3 30.55 28.45 30.1 M41.15 32.25 Q43.7 38.7 40.65 44.9 43.6 47.0 46.65 45.1 49.05 43.5 49.45 40.65 49.55 39.8 49.2 39.05 L45.9 38.05 Q51.25 37.8 54.25 42.6 57.6 48.0 63.55 49.4 69.35 50.7 71.95 45.7 72.85 43.9 72.35 41.8 70.1 32.8 61.15 29.1 L57.35 27.55 Q51.5 24.25 45.8 27.8 43.0 29.5 41.15 32.25 M68.6 34.55 L66.8 36.4 Q61.25 31.6 54.35 28.9 60.05 29.3 64.9 32.35 L68.6 34.55 M67.15 35.45 L67.3 34.35 61.35 31.05 67.15 35.45 M66.0 38.95 Q66.25 39.65 65.95 40.3 L64.4 41.9 Q59.15 36.05 51.9 33.05 57.1 32.5 62.15 36.2 L66.0 38.95 M62.85 39.5 L64.3 41.1 65.3 39.3 Q61.3 36.05 56.6 34.25 L62.85 39.5 M50.15 48.2 L49.7 48.7 50.7 47.05 50.15 48.2" fill="#000000" fill-rule="evenodd" stroke="none"/>
    <path d="M-5.25 -27.7 L3.0 -26.9 Q15.7 -24.85 24.85 -15.75 28.65 -11.95 31.7 -7.55 34.3 -3.8 35.85 0.55 L37.2 5.55 Q37.65 6.5 37.7 7.6 L37.7 8.0 Q36.0 7.2 34.1 6.75 L33.1 6.45 28.3 1.6 27.1 0.45 28.9 -1.55 Q31.0 -4.2 30.3 -7.1 L30.1 -7.15 29.7 -7.15 27.8 -8.0 Q23.7 -9.5 20.2 -12.15 17.45 -14.2 15.45 -16.9 10.75 -23.25 2.7 -23.25 L0.35 -22.8 Q-1.0 -22.35 -2.05 -21.4 L-2.1 -21.3 -2.1 -21.2 -2.05 -21.0 -2.75 -21.95 -5.25 -27.7 M-1.95 -20.85 L-1.3 -20.9 Q-0.35 -21.6 0.8 -21.8 9.35 -23.25 14.2 -16.5 L17.9 -12.85 Q22.9 -8.45 29.15 -6.5 29.2 -6.4 29.4 -6.35 L29.7 -6.15 Q28.75 -1.4 24.75 1.55 L21.85 3.4 Q20.7 2.25 18.6 1.3 L16.8 0.1 Q12.7 -3.55 8.1 -6.7 L5.3 -8.95 Q3.9 -10.3 2.35 -10.45 1.9 -13.0 0.7 -15.35 L-1.25 -19.5 -1.95 -20.85 M8.75 6.35 L8.8 6.4 8.9 6.45 9.1 6.55 8.75 6.4 8.75 6.35 M18.05 6.0 L18.4 5.7 20.55 7.6 23.5 10.3 24.4 11.2 29.15 16.0 23.85 14.05 Q22.05 10.45 19.4 7.4 L18.05 6.0 M34.8 21.9 L38.1 24.95 37.7 25.8 37.7 25.85 37.05 24.95 34.55 22.2 34.8 21.9" fill="#f02d0b" fill-rule="evenodd" stroke="none"/>
    <path d="M21.85 3.4 Q16.05 6.45 9.3 5.35 L8.85 4.3 8.0 2.4 Q5.75 -2.2 2.2 -5.75 L2.05 -5.8 2.4 -7.05 2.4 -7.25 2.35 -7.35 2.6 -8.05 2.35 -10.45 Q3.9 -10.3 5.3 -8.95 L8.1 -6.7 Q12.7 -3.55 16.8 0.1 L18.6 1.3 Q20.7 2.25 21.85 3.4 M1.75 -5.25 L2.55 -3.9 Q4.95 -0.95 6.75 2.3 -1.7 1.85 -9.1 5.2 L-9.55 3.95 -14.0 -9.45 -14.0 -9.5 -13.85 -9.85 -13.9 -9.95 -13.95 -10.05 -12.9 -12.45 Q-10.85 -7.95 -7.15 -4.7 L-7.05 -4.65 Q-6.65 -4.45 -6.3 -4.05 -3.75 -2.35 -1.35 -3.25 0.75 -3.6 1.75 -5.25 M9.1 6.55 L10.0 6.7 9.25 7.55 Q8.15 9.15 7.2 10.85 L2.6 10.6 Q-2.4 10.35 -7.0 11.8 L-7.8 9.15 -2.35 7.45 Q0.25 6.65 3.1 6.55 L4.6 6.5 8.75 6.4 9.1 6.55 M-14.5 -6.4 L-14.4 -8.15 -12.35 -0.8 -10.1 5.65 -10.1 5.7 -9.55 7.2 Q-13.4 7.7 -16.9 6.5 -16.15 5.9 -15.8 4.75 -14.2 -0.45 -14.55 -6.0 L-14.5 -6.4" fill="#d6280a" fill-rule="evenodd" stroke="none"/>
    <path d="M-19.3 -30.65 Q-21.3 -31.85 -23.75 -31.55 L-27.55 -30.9 -27.6 -31.2 -27.25 -35.7 -27.15 -37.7 Q-27.25 -46.1 -30.65 -53.7 L-28.6 -53.8 -28.2 -53.5 Q-27.1 -51.9 -26.15 -50.15 -24.3 -46.45 -23.15 -42.4 -21.45 -36.45 -19.3 -30.65 M-20.15 -58.4 Q-16.8 -55.8 -14.4 -52.35 -10.35 -46.6 -10.65 -39.7 L-16.45 -52.05 Q-17.95 -55.5 -20.15 -58.4 M-44.5 49.95 Q-40.1 47.75 -35.45 46.2 L-34.55 45.65 Q-33.9 44.9 -33.75 43.85 -32.05 34.3 -28.9 24.8 L-28.15 21.75 Q-27.4 17.65 -24.3 14.9 -23.9 14.55 -23.45 14.6 -18.8 15.35 -15.65 19.1 L-15.7 19.75 -15.7 26.15 -20.5 20.8 -18.9 18.2 -18.9 18.1 -19.3 17.85 -19.45 17.9 -19.6 17.95 -20.55 18.95 Q-23.3 22.85 -24.6 27.5 -26.55 34.4 -26.15 41.55 -26.05 43.4 -25.2 44.7 L-25.75 45.3 -26.45 45.35 -28.6 46.4 Q-33.0 48.65 -37.95 49.45 L-44.5 49.95 M-11.0 61.45 Q-2.0 60.0 5.55 54.7 6.1 54.3 6.7 54.0 L7.1 53.7 7.8 48.8 7.9 43.3 Q7.75 37.4 8.85 31.75 L9.35 29.35 9.85 26.75 Q10.85 21.5 14.05 17.2 15.8 16.05 18.05 16.25 L19.05 16.85 Q22.45 20.9 22.8 26.3 L23.1 28.8 Q23.8 32.15 24.15 35.6 L21.45 36.3 19.1 36.45 Q19.0 29.4 16.2 22.85 L16.7 21.15 Q17.3 19.45 17.2 18.0 16.95 18.0 16.9 18.3 16.6 18.4 16.45 18.7 15.3 21.7 14.4 24.8 13.4 31.85 13.05 39.1 12.85 42.5 13.2 45.8 L13.15 45.8 13.2 45.85 13.25 46.5 14.05 56.45 Q13.95 57.25 13.1 57.65 L8.3 59.4 Q-1.35 61.95 -11.0 61.45 M41.0 21.3 Q39.6 22.4 38.6 24.05 L31.85 17.25 30.05 15.4 Q26.45 11.55 22.55 8.0 L21.65 7.2 19.55 5.3 22.4 4.0 22.4 3.95 26.5 1.0 27.9 2.4 Q26.65 4.7 24.05 5.7 24.0 8.1 26.4 9.25 27.6 9.8 28.55 10.85 31.35 13.85 34.45 16.5 L35.8 17.55 38.5 19.45 Q39.85 20.3 41.0 21.3" fill="#0db5c8" fill-rule="evenodd" stroke="none"/>
    <path d="M-51.6 -48.55 L-51.55 -48.55 Q-50.05 -48.05 -49.1 -46.75 L-46.8 -44.05 -46.7 -44.15 -46.45 -44.45 -46.65 -45.3 Q-47.75 -47.3 -49.5 -48.7 L-49.9 -48.85 -50.6 -49.35 Q-51.15 -49.35 -51.45 -49.65 L-50.35 -51.8 -48.4 -54.25 Q-47.8 -54.8 -47.65 -55.25 -45.7 -57.05 -43.45 -58.5 -39.75 -60.8 -35.6 -61.35 -30.7 -62.15 -25.95 -61.2 L-27.95 -60.3 -29.35 -59.3 Q-32.5 -56.95 -32.75 -53.15 L-32.7 -53.05 -32.55 -52.95 -32.3 -52.9 Q-31.5 -53.45 -30.65 -53.7 -27.25 -46.1 -27.15 -37.7 L-27.25 -35.7 -27.6 -31.2 -27.55 -30.9 -27.65 -30.9 Q-32.9 -29.5 -37.15 -25.75 -42.0 -21.5 -47.7 -24.35 L-48.75 -25.0 Q-46.45 -25.1 -44.9 -27.75 -44.1 -29.15 -44.95 -29.9 -45.8 -26.9 -48.75 -25.85 L-49.75 -25.9 -50.95 -27.1 -50.95 -27.15 -50.95 -27.2 -51.0 -27.3 -51.5 -27.65 Q-49.0 -30.7 -45.2 -32.15 L-43.35 -32.3 -40.25 -31.85 -40.25 -31.9 Q-43.1 -34.2 -46.5 -32.7 L-47.1 -32.4 Q-50.15 -30.9 -51.95 -28.15 -53.0 -31.45 -53.4 -34.85 -53.35 -37.2 -52.85 -39.4 L-52.8 -39.5 -52.85 -39.7 -52.85 -39.85 -52.9 -39.9 -52.6 -40.4 -52.15 -41.35 -51.75 -41.5 -51.65 -41.5 -51.55 -41.45 -51.35 -41.35 -51.2 -41.3 -51.15 -41.2 -50.65 -40.8 -50.5 -40.65 -49.85 -39.6 Q-48.15 -36.95 -47.2 -33.85 L-47.15 -33.75 -47.15 -33.7 -47.15 -33.55 -47.2 -33.45 -47.1 -33.3 -46.75 -32.9 -46.55 -32.8 -46.5 -33.0 Q-46.9 -36.8 -48.85 -40.25 -50.15 -42.65 -52.55 -42.25 L-53.7 -39.75 Q-53.6 -44.5 -51.9 -48.65 L-51.6 -48.55 M-13.5 -13.85 Q-14.95 -15.55 -17.5 -15.75 L-15.15 -18.45 -14.95 -17.85 -14.85 -17.6 -14.65 -16.9 -13.5 -13.85 M-44.5 49.95 Q-48.9 49.85 -53.15 48.8 -55.6 48.2 -57.85 47.15 L-56.2 44.8 Q-52.2 38.5 -45.5 36.05 L-45.65 36.0 -46.4 35.95 -47.3 36.15 Q-52.75 37.8 -56.3 42.4 -57.95 44.5 -58.7 46.75 L-62.25 44.45 Q-60.95 42.0 -59.25 39.75 -55.65 34.85 -49.95 32.55 -43.7 30.05 -37.05 31.05 L-37.0 31.85 Q-36.65 32.15 -36.35 31.85 L-36.3 31.15 -36.25 31.05 -36.25 30.95 -36.15 30.75 -36.15 30.7 -36.15 30.6 -36.3 30.5 -35.75 25.1 Q-35.0 19.65 -32.75 14.5 -29.65 7.65 -23.1 4.25 L-22.7 4.4 Q-17.75 7.25 -15.05 12.4 L-14.95 12.5 -14.85 12.55 -15.1 13.85 -15.65 19.1 Q-18.8 15.35 -23.45 14.6 -23.9 14.55 -24.3 14.9 -27.4 17.65 -28.15 21.75 L-28.9 24.8 Q-32.05 34.3 -33.75 43.85 -33.9 44.9 -34.55 45.65 L-35.45 46.2 Q-40.1 47.75 -44.5 49.95 M-10.1 9.85 L-10.35 8.55 -9.9 8.5 -9.15 8.4 -8.75 9.45 -7.8 12.1 -7.7 12.3 -7.9 12.15 -8.15 11.95 -9.95 10.55 -10.0 10.3 -10.1 9.85 M-11.0 61.45 Q-17.4 61.15 -23.8 59.5 L-25.0 59.1 -25.0 59.05 -24.95 58.95 -24.95 58.85 -24.95 58.65 Q-23.15 55.65 -20.45 53.45 -14.75 48.75 -7.85 46.55 L-7.95 46.5 -9.0 46.35 Q-16.75 48.0 -22.55 53.55 L-24.15 55.2 Q-25.25 56.25 -25.65 57.5 L-25.8 57.85 -25.95 58.65 Q-28.05 57.55 -29.55 55.8 -29.25 50.7 -25.85 46.75 -22.55 42.9 -17.95 40.55 -13.5 38.3 -8.4 38.15 -4.9 38.0 -1.5 38.25 L-1.1 38.3 1.4 38.45 1.45 39.2 1.85 39.45 2.0 39.35 Q2.4 38.95 2.35 38.35 L2.35 38.25 2.45 38.2 2.5 38.0 2.5 37.9 2.45 37.8 2.4 37.65 2.3 37.55 2.2 37.45 2.15 37.0 Q2.5 29.65 4.05 22.45 5.4 16.35 8.35 10.9 L9.1 9.55 9.5 9.25 9.6 9.1 11.05 6.75 13.85 6.7 16.45 6.25 16.95 6.15 17.9 7.2 Q19.45 9.05 20.65 11.2 L22.0 13.5 Q23.9 17.1 25.25 21.1 27.2 27.05 27.15 33.4 26.1 34.7 24.4 35.45 L24.15 35.6 Q23.8 32.15 23.1 28.8 L22.8 26.3 Q22.45 20.9 19.05 16.85 L18.05 16.25 Q15.8 16.05 14.05 17.2 10.85 21.5 9.85 26.75 L9.35 29.35 8.85 31.75 Q7.75 37.4 7.9 43.3 L7.8 48.8 7.1 53.7 6.7 54.0 Q6.1 54.3 5.55 54.7 -2.0 60.0 -11.0 61.45 M41.0 21.3 Q39.85 20.3 38.5 19.45 L35.8 17.55 34.45 16.5 Q31.35 13.85 28.55 10.85 27.6 9.8 26.4 9.25 24.0 8.1 24.05 5.7 26.65 4.7 27.9 2.4 L30.8 5.25 31.2 5.65 31.35 5.95 32.4 7.25 35.65 10.9 38.65 14.2 44.3 19.6 Q42.45 20.1 41.0 21.3" fill="#0ecfe4" fill-rule="evenodd" stroke="none"/>
    <path d="M37.7 8.0 L37.9 9.6 38.15 10.1 38.7 12.65 37.0 10.75 33.1 6.45 34.1 6.75 Q36.0 7.2 37.7 8.0 M6.75 2.3 Q7.85 4.25 8.75 6.35 L8.75 6.4 4.6 6.5 3.1 6.55 Q0.25 6.65 -2.35 7.45 L-7.8 9.15 -8.25 7.9 -7.9 7.45 -7.9 7.35 -8.15 6.95 -8.4 6.95 -8.5 7.0 -9.1 5.2 Q-1.7 1.85 6.75 2.3 M7.2 10.85 Q6.1 12.75 5.25 14.8 0.25 13.65 -4.9 13.95 L-4.9 14.0 -5.1 14.05 -5.25 14.1 -5.25 14.15 -6.85 12.95 -6.7 12.8 -7.0 11.8 Q-2.4 10.35 2.6 10.6 L7.2 10.85" fill="#a72007" fill-rule="evenodd" stroke="none"/>
    <path d="M29.15 16.0 L34.7 21.8 34.8 21.9 34.55 22.2 Q30.55 18.35 25.2 16.45 L25.1 16.3 24.95 16.1 24.75 16.0 23.85 14.05 29.15 16.0" fill="#c62509" fill-rule="evenodd" stroke="none"/>
    <path d="M-18.75 32.3 Q-16.75 31.9 -15.2 31.05 L-14.6 34.5 -13.95 36.35 -17.85 35.95 Q-20.65 35.75 -22.6 34.2 -20.95 32.75 -18.75 32.3 M44.05 20.9 L46.3 20.5 Q51.65 20.1 52.55 24.8 44.7 25.35 40.4 32.0 L40.2 31.85 Q39.05 31.05 38.55 30.1 L38.25 29.3 Q38.0 28.15 38.35 26.85 L38.55 26.35 38.85 25.55 39.3 24.75 Q40.25 23.0 41.75 21.95 42.8 21.25 44.05 20.9 M41.15 32.25 Q43.0 29.5 45.8 27.8 51.5 24.25 57.35 27.55 L61.15 29.1 Q70.1 32.8 72.35 41.8 72.85 43.9 71.95 45.7 69.35 50.7 63.55 49.4 57.6 48.0 54.25 42.6 51.25 37.8 45.9 38.05 L49.2 39.05 Q49.55 39.8 49.45 40.65 49.05 43.5 46.65 45.1 43.6 47.0 40.65 44.9 43.7 38.7 41.15 32.25 M62.85 39.5 L56.6 34.25 Q61.3 36.05 65.3 39.3 L64.3 41.1 62.85 39.5 M66.0 38.95 L62.15 36.2 Q57.1 32.5 51.9 33.05 59.15 36.05 64.4 41.9 L65.95 40.3 Q66.25 39.65 66.0 38.95 M67.15 35.45 L61.35 31.05 67.3 34.35 67.15 35.45 M68.6 34.55 L64.9 32.35 Q60.05 29.3 54.35 28.9 61.25 31.6 66.8 36.4 L68.6 34.55" fill="#ffffff" fill-rule="evenodd" stroke="none"/>
    <path d="M-25.95 -61.2 L-24.8 -60.95 -24.75 -61.05 -24.7 -61.4 -24.7 -61.45 -23.1 -61.5 -22.95 -61.5 -22.85 -61.4 -21.85 -60.65 -21.35 -59.95 -20.5 -58.9 -20.55 -58.75 -20.15 -58.4 Q-17.95 -55.5 -16.45 -52.05 L-10.65 -39.7 -10.7 -39.1 -10.65 -39.05 -10.3 -38.95 -10.15 -38.7 -7.05 -31.85 -5.45 -28.05 -5.45 -28.0 -5.45 -27.8 -5.4 -27.7 -5.25 -27.7 -2.75 -21.95 -2.05 -21.0 -2.0 -20.9 -1.95 -20.85 -1.25 -19.5 0.7 -15.35 Q1.9 -13.0 2.35 -10.45 L2.6 -8.05 2.35 -7.35 2.4 -7.25 2.4 -7.05 2.05 -5.8 2.0 -5.65 1.8 -5.55 1.75 -5.45 1.75 -5.25 Q0.75 -3.6 -1.35 -3.25 -3.75 -2.35 -6.3 -4.05 -6.65 -4.45 -7.05 -4.65 L-7.15 -4.7 Q-10.85 -7.95 -12.9 -12.45 L-12.45 -13.35 -12.5 -13.45 -12.8 -13.6 -13.1 -13.35 -13.5 -13.85 -14.65 -16.9 -14.85 -17.6 -14.95 -17.85 -15.15 -18.45 -15.5 -19.5 -17.8 -26.45 -19.0 -29.8 -19.2 -30.3 -19.3 -30.65 Q-21.45 -36.45 -23.15 -42.4 -24.3 -46.45 -26.15 -50.15 -27.1 -51.9 -28.2 -53.5 L-28.55 -53.8 -28.6 -53.8 -30.65 -53.7 Q-31.5 -53.45 -32.3 -52.9 L-32.55 -52.95 -32.7 -53.05 -32.75 -53.15 Q-32.5 -56.95 -29.35 -59.3 L-27.95 -60.3 -25.95 -61.2 M-29.7 -55.9 L-29.65 -55.9 Q-25.25 -52.6 -23.6 -47.0 L-19.25 -33.05 -16.9 -26.25 -15.55 -22.6 -14.25 -19.1 -14.05 -18.45 Q-13.55 -17.8 -13.25 -16.75 L-12.15 -13.35 Q-10.3 -8.55 -6.35 -5.3 -4.4 -3.75 -2.2 -3.95 L-2.05 -4.05 Q1.3 -4.5 1.5 -8.1 L1.5 -8.65 1.5 -8.75 1.55 -8.9 1.2 -10.45 Q-0.05 -15.3 -2.6 -19.8 L-2.7 -19.85 -3.15 -20.75 -3.35 -21.05 -3.45 -21.25 -3.65 -21.8 Q-6.3 -27.3 -8.55 -32.95 -11.4 -39.85 -14.75 -46.35 L-19.9 -56.25 -22.0 -59.5 Q-24.4 -61.65 -27.65 -59.55 -30.15 -58.0 -31.35 -55.6 L-31.45 -55.4 -32.05 -53.8 Q-31.6 -54.25 -31.0 -54.5 L-30.6 -54.65 -29.9 -54.9 -30.15 -55.1 -30.25 -55.3 -30.3 -55.35 -30.15 -55.75 -30.05 -55.9 -29.8 -55.85 -29.7 -55.9 M-4.4 14.8 L4.85 15.75 3.75 18.9 Q2.65 22.55 2.0 26.2 1.0 31.8 1.3 37.3 L-3.55 36.95 -3.6 36.95 -5.65 36.85 Q-7.05 35.5 -7.85 33.7 -10.0 28.65 -9.0 23.15 L-8.95 22.85 -8.55 21.0 -8.1 20.15 Q-7.3 18.95 -7.55 18.0 L-7.85 18.2 -8.6 19.2 Q-11.6 25.65 -9.9 32.65 -9.15 35.4 -7.05 36.9 L-8.15 36.95 -12.0 37.5 -11.95 37.2 -11.75 37.15 -11.65 36.85 -11.65 36.75 Q-11.65 36.6 -11.8 36.6 L-12.15 36.55 -12.25 36.3 Q-13.85 32.1 -14.3 27.65 L-14.3 27.6 -14.3 27.55 -14.5 24.45 -14.45 20.75 Q-14.25 15.25 -13.15 10.0 L-13.1 9.9 -12.95 9.65 -12.5 10.15 Q-10.2 12.4 -7.5 14.2 -5.85 15.35 -4.4 14.85 L-4.4 14.8 M25.3 17.4 L29.2 19.8 Q34.05 23.0 37.4 27.75 L37.4 28.1 Q37.2 30.75 39.15 32.1 L39.35 32.35 37.05 35.9 Q32.6 43.1 24.3 45.25 L20.35 45.85 Q18.1 45.95 16.0 45.25 L14.45 45.05 14.45 45.0 Q14.1 37.75 14.95 30.7 15.05 27.55 15.75 24.55 17.65 30.3 18.05 36.4 L16.05 36.1 16.0 36.3 16.05 36.7 Q20.05 38.85 24.25 37.15 L25.4 36.6 Q29.9 34.2 29.3 29.4 L29.25 29.35 28.95 29.15 28.95 29.2 Q28.55 29.55 28.45 30.1 L28.2 30.1 Q28.25 27.3 27.5 24.55 26.55 20.95 25.25 17.4 L25.3 17.4" fill="#666666" fill-rule="evenodd" stroke="none"/>
    <path d="M-58.95 -26.95 Q-55.9 -28.45 -52.75 -27.4 L-52.55 -27.1 -52.4 -26.9 -51.95 -26.4 -51.8 -26.45 -51.25 -25.75 -51.25 -25.65 -51.1 -25.4 -50.75 -25.3 Q-49.05 -23.65 -46.6 -22.8 L-41.8 -22.3 Q-41.0 -22.35 -40.25 -22.7 -36.9 -24.3 -33.9 -26.6 -31.05 -28.85 -27.9 -29.8 L-20.05 -30.15 -20.05 -30.1 -19.4 -29.65 Q-19.15 -29.65 -19.0 -29.8 L-17.8 -26.45 Q-24.15 -27.65 -29.9 -24.7 -34.8 -22.25 -38.95 -18.75 L-41.0 -17.4 -42.85 -16.55 Q-47.95 -14.4 -52.35 -17.25 L-54.2 -18.85 -56.0 -21.1 Q-58.0 -23.85 -58.95 -26.95" fill="#c19f79" fill-rule="evenodd" stroke="none"/>
    <path d="M-15.5 -19.5 L-15.65 -19.35 Q-17.95 -16.3 -20.9 -13.65 -24.8 -10.1 -29.6 -7.85 -34.25 -5.65 -38.9 -3.6 -44.3 -1.35 -49.5 -2.4 -43.9 -2.5 -39.2 -6.2 L-36.7 -8.6 Q-32.55 -13.2 -26.55 -14.35 L-26.55 -14.25 -26.45 -14.2 -25.95 -14.0 -24.55 -13.45 -24.3 -13.5 Q-24.1 -13.6 -24.15 -13.85 L-25.25 -14.75 -27.3 -15.95 -27.55 -15.95 Q-30.0 -16.45 -32.4 -15.85 L-32.8 -15.55 -32.85 -15.35 -32.85 -15.15 -28.55 -15.05 Q-30.5 -14.6 -32.2 -13.35 -35.15 -11.2 -37.7 -8.7 -43.0 -3.6 -50.1 -3.1 L-50.3 -3.15 Q-54.9 -3.75 -58.75 -6.5 L-58.8 -6.5 -59.7 -7.1 Q-62.9 -9.3 -64.25 -13.0 -65.75 -17.0 -64.25 -21.0 -63.1 -24.45 -60.05 -26.35 L-58.95 -26.95 Q-58.0 -23.85 -56.0 -21.1 L-54.2 -18.85 -52.35 -17.25 Q-47.95 -14.4 -42.85 -16.55 L-41.0 -17.4 -38.95 -18.75 Q-34.8 -22.25 -29.9 -24.7 -24.15 -27.65 -17.8 -26.45 L-15.5 -19.5 M-50.65 -10.55 Q-51.4 -10.65 -51.75 -10.05 -51.9 -9.75 -51.7 -9.55 -50.35 -8.3 -50.15 -10.2 L-50.2 -10.3 -50.65 -10.55 M-52.4 -14.7 L-52.2 -15.0 -52.15 -15.2 -52.25 -15.5 -52.4 -15.65 -52.55 -15.75 -52.8 -15.8 -53.2 -15.65 -53.4 -15.4 -53.35 -14.9 Q-52.95 -14.35 -52.4 -14.7 M-45.65 -14.65 L-45.9 -14.7 -46.3 -14.55 -46.5 -14.3 -46.45 -13.8 Q-46.1 -13.25 -45.5 -13.6 L-45.35 -13.9 -45.3 -14.1 -45.35 -14.4 -45.5 -14.55 -45.65 -14.65 M-58.25 -15.3 L-58.4 -15.4 -58.9 -15.45 -59.05 -15.45 Q-59.7 -15.25 -59.8 -14.6 L-59.45 -14.15 Q-57.55 -13.6 -58.25 -15.3" fill="#a88b69" fill-rule="evenodd" stroke="none"/>
    <path d="M-63.65 -27.15 L-63.95 -26.7 Q-66.65 -27.2 -69.1 -25.9 L-69.55 -25.6 -69.85 -25.3 -70.55 -24.3 -70.65 -24.15 -70.85 -23.05 -70.85 -22.0 -70.9 -21.9 -70.9 -21.8 -71.05 -21.65 -71.15 -21.55 -71.2 -21.55 Q-71.65 -21.45 -71.95 -21.85 L-72.05 -22.05 -71.95 -23.45 -71.45 -25.6 -71.05 -26.15 -69.5 -27.9 Q-68.5 -28.7 -67.3 -28.9 -64.85 -29.5 -63.45 -27.95 L-63.4 -27.85 -63.4 -27.75 -63.4 -27.65 -63.4 -27.55 -63.55 -27.3 -63.65 -27.15" fill="#999999" fill-rule="evenodd" stroke="none"/>
  </g>
</svg>
