<?xml version="1.0" encoding="UTF-8" standalone="no"?>
<svg xmlns:xlink="http://www.w3.org/1999/xlink" height="60.15px" width="47.35px" xmlns="http://www.w3.org/2000/svg">
  <g transform="matrix(1.0, 0.0, 0.0, 1.0, 23.65, 30.1)">
    <path d="M5.85 -29.3 Q8.0 -28.05 8.3 -25.0 8.7 -21.35 8.5 -17.6 8.1 -10.1 10.7 -3.15 13.3 3.9 18.25 9.5 L19.0 10.45 19.2 10.75 Q22.7 15.7 23.65 21.7 23.8 22.45 23.5 23.0 23.8 24.1 22.05 24.95 16.35 27.55 10.1 28.85 L0.35 30.05 -3.1 30.05 Q-9.25 29.9 -14.95 28.05 -20.1 26.35 -23.35 22.25 L-23.6 22.0 -23.65 21.9 -23.6 21.5 -23.6 21.25 -23.6 21.05 Q-22.35 18.15 -20.0 16.0 -15.4 11.85 -9.35 10.2 L-4.0 9.2 Q-1.5 8.85 0.8 9.15 L0.1 7.7 -0.35 7.05 Q-3.2 0.85 -4.15 -5.85 -5.2 -13.25 -3.7 -20.55 -2.9 -24.45 -0.6 -27.7 0.4 -29.1 1.9 -29.65 L2.1 -29.6 3.0 -29.9 3.65 -30.1 Q4.9 -29.9 5.85 -29.3 M5.3 -28.3 L2.2 -28.45 1.45 -28.15 Q-2.1 -24.5 -2.8 -19.25 L-3.45 -12.6 -2.9 -5.85 -2.5 -4.25 Q-1.5 2.45 1.8 8.5 L2.15 9.35 Q6.35 10.15 9.8 13.15 10.35 13.6 10.35 14.25 L6.65 12.5 Q-0.15 9.1 -7.85 11.05 -13.2 12.4 -17.65 15.55 -21.0 17.95 -22.65 21.6 -20.1 24.2 -17.05 25.8 -15.85 21.85 -12.5 18.9 -8.4 15.25 -2.85 14.85 L-1.15 15.25 -1.1 15.35 -5.3 16.05 Q-11.15 18.05 -14.35 23.35 L-16.15 26.25 Q-13.15 27.65 -9.6 28.15 L2.7 28.55 5.05 28.3 Q12.4 27.4 19.35 25.05 21.15 24.4 22.35 23.0 L22.35 22.9 22.35 22.7 Q21.9 17.85 19.5 13.6 L19.05 12.95 19.05 12.85 19.0 12.7 17.9 11.55 15.25 7.75 Q10.25 1.05 8.35 -7.05 6.8 -13.75 7.5 -20.8 7.85 -24.5 6.0 -27.45 L5.3 -28.3" fill="#000000" fill-rule="evenodd" stroke="none"/>
    <path d="M5.3 -28.3 L6.0 -27.45 Q7.85 -24.5 7.5 -20.8 6.8 -13.75 8.35 -7.05 10.25 1.05 15.25 7.75 L17.9 11.55 19.0 12.7 19.05 12.85 19.05 12.95 19.5 13.6 Q21.9 17.85 22.35 22.7 L22.35 22.9 22.35 23.0 Q21.15 24.4 19.35 25.05 12.4 27.4 5.05 28.3 L2.7 28.55 Q5.45 26.65 8.0 24.45 10.6 22.25 12.4 19.4 L13.2 18.1 Q14.25 16.25 13.0 14.55 L12.65 13.95 10.55 10.5 Q7.4 6.0 5.5 0.55 3.75 -4.35 3.0 -9.5 L2.8 -12.5 2.75 -16.5 Q2.55 -22.8 5.3 -28.3" fill="#0db5c8" fill-rule="evenodd" stroke="none"/>
    <path d="M2.7 28.55 L-9.6 28.15 Q-13.15 27.65 -16.15 26.25 L-14.35 23.35 Q-11.15 18.05 -5.3 16.05 L-1.1 15.35 -1.15 15.25 -2.85 14.85 Q-8.4 15.25 -12.5 18.9 -15.85 21.85 -17.05 25.8 -20.1 24.2 -22.65 21.6 -21.0 17.95 -17.65 15.55 -13.2 12.4 -7.85 11.05 -0.15 9.1 6.65 12.5 L10.35 14.25 Q10.35 13.6 9.8 13.15 6.35 10.15 2.15 9.35 L1.8 8.5 Q-1.5 2.45 -2.5 -4.25 L-2.9 -5.85 -3.45 -12.6 -2.8 -19.25 Q-2.1 -24.5 1.45 -28.15 L2.2 -28.45 5.3 -28.3 Q2.55 -22.8 2.75 -16.5 L2.8 -12.5 3.0 -9.5 Q3.75 -4.35 5.5 0.55 7.4 6.0 10.55 10.5 L12.65 13.95 13.0 14.55 Q14.25 16.25 13.2 18.1 L12.4 19.4 Q10.6 22.25 8.0 24.45 5.45 26.65 2.7 28.55" fill="#0ecfe4" fill-rule="evenodd" stroke="none"/>
  </g>
</svg>
