<?xml version="1.0" encoding="UTF-8" standalone="no"?>
<svg xmlns:xlink="http://www.w3.org/1999/xlink" height="39.15px" width="35.35px" xmlns="http://www.w3.org/2000/svg">
  <g transform="matrix(1.0, 0.0, 0.0, 1.0, 17.65, 19.6)">
    <path d="M-16.4 9.2 L-14.95 7.75 -13.4 6.25 -11.65 4.4 -9.55 2.45 Q-10.9 0.5 -11.6 -1.8 L-11.55 -2.05 Q-8.65 -3.35 -6.15 -5.2 -3.35 -7.35 -1.05 -10.1 L-0.15 -11.15 1.35 -12.85 Q6.05 -18.15 12.8 -19.55 L13.05 -19.55 13.1 -19.55 13.4 -19.6 14.9 -19.1 15.05 -19.0 15.9 -17.85 Q19.35 -12.4 16.1 -6.05 12.7 0.65 8.2 6.7 6.75 8.75 4.9 10.15 L4.0 10.35 3.55 10.05 0.45 9.75 -0.15 10.3 -6.15 16.1 -8.2 18.05 -9.4 19.2 -10.4 19.25 -10.3 18.95 Q-9.7 17.25 -8.15 15.95 L-6.15 14.25 -1.75 10.1 -0.9 9.35 Q-2.2 8.85 -3.45 8.05 L-6.0 6.1 -6.15 6.0 -6.8 5.45 -8.85 3.35 -10.9 5.7 -12.4 7.3 Q-14.7 9.8 -17.3 11.75 L-17.65 11.7 -17.65 11.5 -17.5 11.15 Q-17.15 10.1 -16.4 9.2 M15.25 -16.7 Q14.5 -17.95 13.2 -18.6 6.1 -16.55 1.25 -10.85 L-0.15 -9.25 Q-2.9 -6.3 -6.15 -3.8 L-8.15 -2.4 Q-9.15 -1.7 -10.3 -1.3 L-8.45 1.65 -8.2 1.75 -8.05 1.8 -7.95 2.0 -7.85 2.2 -7.95 2.35 -6.15 4.25 -4.85 5.4 -1.85 7.35 -0.15 8.15 Q1.9 9.0 4.15 9.2 L4.85 8.95 Q9.55 2.7 13.75 -3.95 17.05 -9.2 15.85 -15.05 L15.25 -16.7" fill="#000000" fill-rule="evenodd" stroke="none"/>
    <path d="M-4.85 5.4 L-6.15 4.25 -7.95 2.35 -7.85 2.2 -7.95 2.0 -8.05 1.8 -8.2 1.75 -8.45 1.65 -10.3 -1.3 Q-9.15 -1.7 -8.15 -2.4 L-6.15 -3.8 Q-2.9 -6.3 -0.15 -9.25 L1.25 -10.85 Q6.1 -16.55 13.2 -18.6 14.5 -17.95 15.25 -16.7 L12.25 -11.15 10.75 -8.4 Q7.25 -2.4 1.9 1.8 L0.6 2.6 Q0.2 2.75 -0.15 2.95 -2.6 4.1 -4.85 5.4" fill="#f02d0b" fill-rule="evenodd" stroke="none"/>
    <path d="M-14.2 19.35 L-14.5 19.35 Q-16.4 19.05 -17.65 17.5 L-17.65 11.7 -17.3 11.75 Q-14.7 9.8 -12.4 7.3 L-10.9 5.7 Q-9.15 8.3 -6.15 9.65 L-6.05 9.7 Q-5.7 9.65 -6.15 10.25 L-6.4 10.55 -14.35 19.2 -14.2 19.35 M-17.65 11.5 L-17.65 11.35 -17.5 11.15 -17.65 11.5" fill="#0ecfe4" fill-rule="evenodd" stroke="none"/>
    <path d="M-10.3 18.95 L-11.35 19.3 -13.95 19.4 -14.2 19.35 -14.35 19.2 -6.4 10.55 -6.15 10.25 Q-5.7 9.65 -6.05 9.7 L-6.15 9.65 Q-9.15 8.3 -10.9 5.7 L-8.85 3.35 -6.8 5.45 -6.15 6.0 -6.0 6.1 -3.45 8.05 Q-2.2 8.85 -0.9 9.35 L-1.75 10.1 -6.15 14.25 -8.15 15.95 Q-9.7 17.25 -10.3 18.95" fill="#0db5c8" fill-rule="evenodd" stroke="none"/>
    <path d="M-4.85 5.4 Q-2.6 4.1 -0.15 2.95 0.2 2.75 0.6 2.6 L1.9 1.8 Q7.25 -2.4 10.75 -8.4 L12.25 -11.15 15.25 -16.7 15.85 -15.05 Q17.05 -9.2 13.75 -3.95 9.55 2.7 4.85 8.95 L4.15 9.2 Q1.9 9.0 -0.15 8.15 L-1.85 7.35 -4.85 5.4" fill="#d6280a" fill-rule="evenodd" stroke="none"/>
    <path d="M-17.65 11.35 L-17.5 11.15 Q-17.15 10.1 -16.4 9.2" fill="none" stroke="#66ff00" stroke-linecap="round" stroke-linejoin="round" stroke-width="0.05"/>
  </g>
</svg>
