<?xml version="1.0" encoding="UTF-8" standalone="no"?>
<svg xmlns:xlink="http://www.w3.org/1999/xlink" height="80.35px" width="64.55px" xmlns="http://www.w3.org/2000/svg">
  <g transform="matrix(1.0, 0.0, 0.0, 1.0, 29.15, 23.4)">
    <path d="M13.05 9.35 L12.8 9.65 12.2 10.3 16.3 8.1 Q18.4 6.9 20.5 7.35 22.75 3.15 22.65 -1.65 L22.3 -4.3 Q20.95 -9.85 16.6 -13.5 L15.15 -14.45 15.0 -14.55 Q9.85 -17.85 5.0 -21.55 L4.9 -21.7 4.9 -21.8 4.8 -21.85 4.4 -22.2 Q4.35 -21.55 3.75 -20.85 1.95 -18.85 -0.3 -18.35 1.8 -17.55 3.6 -16.2 L3.65 -16.1 3.45 -15.8 3.4 -15.8 Q3.3 -15.7 3.05 -15.7 L-1.75 -16.15 Q-2.6 -16.3 -3.0 -16.75 -3.35 -15.95 -4.3 -15.55 L-3.75 -15.4 Q-1.75 -15.05 0.0 -14.1 L0.0 -14.05 0.7 -14.05 0.8 -14.0 0.9 -13.95 0.95 -13.85 0.9 -13.75 Q-3.4 -12.45 -6.0 -8.8 L-6.95 -6.8 -7.5 -5.35 -7.55 -5.2 -7.75 -4.5 -7.75 -4.4 -7.7 -4.35 -7.7 -4.25 -7.8 -4.0 -7.9 -3.65 Q-6.9 -3.35 -6.25 -2.25 L-6.05 -1.95 -5.85 -2.0 -5.0 -2.3 -4.95 -2.3 -4.85 -2.25 -4.75 -2.25 -4.75 -2.15 -4.7 -2.1 -4.7 -1.85 Q-5.1 -1.4 -5.65 -1.3 L-5.05 -0.05 Q-3.0 4.25 -2.95 9.05 L-2.95 9.15 -2.9 9.15 Q-0.6 8.7 1.7 9.2 L3.7 9.8 4.85 10.2 Q3.75 8.6 3.25 6.65 2.5 3.9 2.25 1.1 2.0 -1.95 3.2 -4.3 L3.75 -5.3 2.45 -5.15 2.3 -5.15 2.2 -5.25 2.2 -5.35 2.2 -5.45 Q2.2 -5.8 2.6 -5.95 L3.4 -6.0 4.35 -6.1 5.55 -7.3 4.65 -7.55 Q4.55 -7.9 4.8 -8.05 8.0 -8.15 10.15 -5.75 11.85 -4.15 12.95 -1.95 14.1 0.45 14.3 2.9 14.45 5.1 13.9 7.4 L13.05 9.35 M-28.25 56.95 L-29.15 56.95 Q-28.55 50.5 -25.05 44.9 -24.05 43.25 -22.6 42.2 L-22.6 42.15 Q-21.9 41.4 -21.05 41.05 L-20.55 40.85 Q-16.6 42.65 -14.55 46.4 L-14.35 45.2 -14.25 44.35 -13.95 44.1 -13.8 44.05 Q-11.65 46.65 -8.85 48.2 L-8.6 47.7 -8.65 47.65 -8.7 47.45 Q-8.3 44.35 -6.85 41.8 -8.85 41.0 -10.5 39.3 L-10.6 38.9 -10.4 38.45 Q-4.75 36.5 -1.35 31.45 2.1 26.35 7.85 24.55 L7.7 23.15 0.2 24.1 -8.85 24.05 -10.8 24.4 -11.5 24.7 -14.85 25.5 -15.8 25.25 Q-17.35 24.0 -16.7 22.55 L-17.2 22.5 -17.55 22.4 -17.6 22.35 -17.7 22.35 -17.75 22.25 -17.9 22.3 -17.95 22.3 -18.05 22.25 Q-19.35 21.75 -20.0 20.6 -21.8 17.65 -18.7 16.05 L-18.6 16.0 -18.35 15.9 -16.3 15.45 -12.15 15.35 Q-8.4 14.6 -5.35 12.25 L-5.5 11.65 -5.5 11.2 -5.45 11.1 -5.4 10.95 Q-6.5 9.9 -7.2 8.45 L-7.65 7.4 -8.55 4.45 -8.65 4.45 -8.7 4.45 -8.85 2.75 Q-9.3 -0.55 -8.8 -3.9 L-8.8 -3.95 -8.35 -5.1 Q-7.1 -10.4 -2.1 -13.35 L-0.9 -13.85 -1.15 -13.9 Q-3.9 -14.85 -6.85 -15.15 L-7.0 -15.35 -7.05 -15.55 -7.05 -15.65 -6.75 -15.9 Q-4.6 -15.85 -3.35 -17.55 L-3.15 -17.6 -2.8 -17.5 -2.85 -17.45 Q-0.4 -16.75 2.2 -16.35 L-1.9 -18.25 -2.3 -18.25 -2.35 -18.4 -2.4 -18.6 -2.3 -18.6 -2.15 -18.9 -2.05 -18.9 -1.9 -18.95 -1.6 -18.85 -1.45 -18.8 Q2.45 -19.7 4.0 -23.3 L4.1 -23.3 4.1 -23.35 4.25 -23.35 5.75 -21.95 8.95 -19.6 9.7 -19.1 16.0 -15.0 16.05 -14.95 17.45 -13.65 17.55 -13.6 17.75 -13.55 18.6 -12.65 Q22.45 -8.95 23.35 -3.7 L23.35 -3.55 23.3 -3.4 Q23.7 0.1 22.9 3.5 L22.05 6.35 Q21.7 7.25 21.15 7.55 21.65 7.7 22.2 8.0 23.0 8.45 23.25 9.35 23.75 11.3 22.55 12.45 21.95 13.9 20.85 15.1 17.9 18.2 14.2 20.35 14.9 22.05 14.75 24.25 L14.7 24.95 Q14.95 25.05 15.1 25.3 L15.15 25.4 15.65 25.75 15.65 25.7 Q22.35 29.25 27.15 35.2 29.0 37.5 31.85 38.75 L35.4 40.35 Q34.7 42.75 32.3 44.25 L30.7 45.15 31.25 46.3 31.5 47.0 31.55 47.1 Q33.5 51.9 34.6 56.95 L33.6 56.95 Q32.3 51.9 30.25 47.1 L30.2 46.95 29.75 45.6 25.75 46.8 26.6 48.5 Q28.55 52.55 29.85 56.95 L28.8 56.95 25.8 48.75 25.05 46.9 24.45 47.0 24.45 48.15 24.4 49.2 Q24.2 53.15 23.3 56.95 L22.2 56.95 22.4 56.3 23.1 52.5 23.4 49.8 23.45 49.5 23.45 49.05 23.5 46.3 Q23.45 43.75 23.05 41.25 L22.15 37.25 21.25 34.65 20.35 32.6 18.4 29.5 18.4 29.45 Q16.8 27.45 14.65 25.85 L14.5 27.05 14.65 27.6 14.75 27.55 15.1 27.5 14.95 28.3 Q14.5 29.6 12.85 29.95 L11.8 30.05 9.2 29.65 Q7.65 29.0 6.9 27.4 L6.8 27.1 6.8 26.85 Q6.9 26.55 7.2 26.6 L7.2 26.55 Q7.7 26.7 7.65 27.2 L7.65 27.3 7.75 27.4 8.1 27.75 7.95 25.5 5.3 26.5 3.65 27.85 3.6 27.95 2.9 28.85 2.8 28.95 2.55 29.4 2.5 29.5 2.05 30.85 0.95 33.8 0.05 35.95 -1.25 38.6 -2.45 40.75 -3.55 42.55 -3.7 42.75 -3.9 42.85 -3.95 42.95 -5.4 45.15 -7.15 47.35 -7.6 47.9 -6.7 47.6 -4.8 47.25 -2.25 47.3 -2.2 47.3 -0.2 44.2 -0.1 44.1 1.05 43.0 Q1.75 42.3 2.7 41.95 L3.25 41.8 3.75 41.65 Q4.6 41.65 5.3 42.05 L5.8 42.3 6.0 42.4 6.8 43.35 7.45 44.25 7.95 45.15 9.9 48.95 Q14.85 51.25 18.2 55.4 L19.4 56.95 18.1 56.95 17.6 56.3 15.2 53.65 13.2 51.75 10.4 50.1 11.35 52.55 11.55 52.5 11.7 52.5 Q14.45 54.15 14.15 56.95 L13.3 56.95 Q13.45 54.75 11.55 53.15 L12.45 56.35 12.6 56.95 11.5 56.95 10.95 54.4 10.5 52.95 9.15 49.5 8.25 47.25 7.3 45.7 6.65 44.8 6.5 44.65 Q4.7 41.65 2.0 43.55 L1.3 44.15 Q-1.25 46.6 -2.0 50.1 L-2.3 50.7 Q-3.15 53.75 -3.55 56.95 L-4.65 56.95 Q-4.3 53.8 -3.5 50.75 L-2.65 48.35 Q-5.45 48.2 -8.05 49.05 L-8.3 49.15 -9.15 50.1 -9.6 49.65 -9.2 48.9 Q-11.45 48.45 -12.85 46.35 L-13.25 45.85 -13.7 48.3 -13.7 48.4 -13.75 48.5 -14.1 51.7 -14.15 56.0 -14.1 56.95 -15.85 56.95 Q-17.25 55.05 -18.8 53.3 L-20.05 56.95 -21.2 56.95 -20.2 53.3 Q-19.6 51.5 -18.15 50.55 L-17.75 50.8 -17.7 50.9 -17.8 51.2 -17.95 51.35 -18.05 51.55 -18.05 51.75 -18.45 52.55 Q-16.6 54.15 -15.25 56.15 L-15.1 50.6 -14.8 48.1 -15.2 47.4 Q-15.4 46.9 -15.75 46.55 -16.85 44.4 -18.75 42.9 L-19.65 42.15 -20.25 41.95 -20.4 41.85 Q-20.9 42.0 -21.25 42.25 L-22.05 42.9 -22.2 43.1 -22.45 43.25 Q-24.45 45.2 -25.65 47.75 L-25.7 47.85 Q-27.6 52.25 -28.25 56.95 M9.65 -10.0 L9.2 -10.25 Q7.45 -11.5 5.65 -10.75 L5.4 -10.8 5.3 -10.9 5.25 -11.0 5.3 -11.05 Q5.3 -11.6 5.9 -11.75 8.4 -12.05 10.35 -10.45 11.6 -9.45 11.5 -8.15 10.8 -8.25 10.45 -8.9 L9.65 -10.0 M6.55 -7.0 L6.4 -6.9 5.2 -6.05 Q8.35 -5.9 10.7 -4.15 9.05 -6.1 6.55 -7.0 M4.2 -4.35 L3.8 -3.2 Q3.05 -0.85 3.15 1.7 3.35 1.5 3.7 1.4 L4.25 1.35 4.4 1.4 Q5.4 1.75 6.1 2.6 7.35 4.1 8.0 5.85 L5.6 6.8 5.25 7.05 5.3 7.15 5.3 7.2 5.35 7.25 8.45 7.7 8.55 8.9 8.25 9.75 7.7 10.85 10.35 10.85 11.25 10.75 11.2 10.55 Q13.35 8.05 13.55 4.8 13.65 2.55 13.05 0.45 L13.0 0.2 12.25 -1.75 11.35 -2.45 Q8.8 -5.1 5.05 -5.35 L4.7 -5.3 4.2 -4.35 M-13.5 24.25 Q-9.35 22.65 -4.85 23.2 0.9 23.95 6.5 22.55 L7.6 22.25 8.35 22.0 12.9 20.1 13.8 19.6 Q18.3 17.0 21.5 12.8 L21.5 12.75 21.5 12.65 21.85 12.05 Q22.55 11.3 22.75 10.3 L22.75 10.15 22.65 9.65 22.65 9.5 21.65 8.55 Q20.65 7.9 19.55 8.1 L19.45 8.05 19.35 8.0 19.3 7.95 Q16.9 8.15 15.0 9.65 10.65 12.9 5.8 11.3 L5.7 11.25 5.65 11.25 4.55 10.8 3.8 10.5 -3.4 10.25 -3.45 10.25 -3.55 10.3 -3.75 10.35 -4.25 10.5 -4.5 11.0 -4.4 11.15 -4.65 11.45 -4.7 11.7 -4.1 11.2 -3.9 11.25 -3.7 11.4 Q-3.85 12.1 -4.5 12.7 -6.8 14.65 -9.65 15.75 -7.45 16.2 -5.35 17.15 L-7.05 17.3 Q-9.35 16.4 -11.75 16.2 L-12.3 16.15 -15.6 16.2 -15.85 16.25 -18.35 17.0 Q-20.3 17.6 -19.65 19.4 -18.8 21.55 -16.45 21.9 L-16.4 21.7 -16.25 21.6 -14.7 20.35 -16.4 20.45 -16.4 20.4 -15.8 19.7 Q-12.95 19.1 -9.95 19.6 L-4.5 20.25 Q1.45 20.7 6.85 18.8 L7.25 18.65 8.4 18.15 9.2 17.8 9.5 17.65 9.55 17.65 10.9 16.9 13.1 15.5 Q14.5 14.55 15.15 12.95 15.5 12.0 16.1 11.3 14.95 11.6 14.05 12.8 L13.95 12.85 13.9 12.8 13.8 12.75 13.7 12.75 13.7 12.65 Q13.95 11.15 15.5 10.6 L17.1 10.3 Q18.55 10.2 19.5 11.25 L19.5 11.35 19.25 11.65 19.15 11.7 18.5 11.6 17.1 11.25 16.8 11.55 Q15.75 14.7 13.0 16.6 L11.75 17.4 10.75 17.95 7.7 19.35 7.0 19.65 Q2.8 21.1 -1.8 20.95 L-4.45 20.8 -11.6 20.3 -12.6 20.3 -13.85 20.9 Q-14.7 21.35 -15.45 22.05 L-15.5 22.1 Q-16.35 23.0 -15.95 24.15 L-15.9 24.25 -15.7 24.45 -15.65 24.6 -15.4 24.7 -14.6 24.7 -13.5 24.25 M13.35 22.0 L13.35 21.85 13.2 20.9 11.0 22.0 8.55 22.9 8.8 24.6 8.85 28.3 Q11.2 29.75 13.75 28.05 L13.35 22.0 M-1.1 36.15 L1.3 30.3 1.3 30.1 1.7 29.75 1.7 29.55 1.6 29.65 Q-1.75 32.7 -4.75 36.25 -6.5 38.3 -9.0 39.2 L-7.6 40.25 -7.4 40.4 -5.25 41.5 -4.3 41.8 -4.1 41.6 -4.1 41.4 -4.05 41.3 -3.85 41.1 -2.75 39.45 -2.3 38.65 -2.3 38.55 -1.45 36.9 -1.1 36.15 M28.0 45.15 L29.6 44.45 Q29.7 44.2 30.0 44.25 L30.05 44.3 30.75 43.95 Q32.9 42.95 34.15 41.05 26.75 37.6 21.7 31.15 L21.6 31.05 21.4 30.75 21.35 30.55 18.9 28.6 20.65 31.1 21.95 33.65 22.25 34.45 23.5 38.75 Q24.35 42.45 24.45 46.35 L28.0 45.15 M3.25 56.95 Q3.65 53.5 5.3 50.7 5.9 51.65 5.3 53.05 4.95 53.75 4.85 54.5 L5.65 56.95 4.6 56.95 4.55 56.7 4.5 56.95 3.25 56.95 M-8.05 -2.95 L-8.25 0.35 -6.8 -1.4 -7.95 -2.95 -8.05 -3.0 -8.05 -2.95 M-6.35 -0.65 L-6.35 -0.7 -6.5 -0.55 Q-7.8 0.7 -8.05 2.4 L-8.0 2.85 -7.7 4.35 Q-7.0 7.55 -5.05 10.3 L-4.55 9.8 -5.5 8.1 Q-4.8 7.85 -4.3 7.35 L-4.3 7.25 -4.35 7.2 -4.45 7.2 -5.75 6.9 Q-5.9 5.65 -5.4 4.3 L-5.25 4.25 -5.0 4.05 -4.35 4.1 Q-4.85 2.25 -5.7 0.55 L-6.35 -0.65 M-6.25 42.0 L-7.3 45.6 -6.2 44.1 -4.8 42.35 -5.55 42.2 -6.25 42.0 M-12.6 56.95 Q-12.7 53.5 -10.6 50.65 -10.3 51.6 -10.8 53.0 -11.6 54.9 -11.45 56.95 L-12.6 56.95" fill="#000000" fill-rule="evenodd" stroke="none"/>
    <path d="M15.15 -14.45 L16.15 -13.0 Q16.4 -12.3 16.8 -11.7 18.85 -8.35 19.6 -4.6 19.85 -3.15 19.6 -1.7 L19.4 -0.65 19.25 0.5 18.5 2.7 17.7 4.2 17.15 5.15 15.95 6.8 13.05 9.35 13.9 7.4 Q14.45 5.1 14.3 2.9 14.1 0.45 12.95 -1.95 11.85 -4.15 10.15 -5.75 8.0 -8.15 4.8 -8.05 4.55 -7.9 4.65 -7.55 L5.55 -7.3 4.35 -6.1 3.4 -6.0 2.6 -5.95 Q2.2 -5.8 2.2 -5.45 L2.2 -5.35 2.2 -5.25 2.3 -5.15 2.45 -5.15 3.75 -5.3 3.2 -4.3 Q2.0 -1.95 2.25 1.1 2.5 3.9 3.25 6.65 3.75 8.6 4.85 10.2 L3.7 9.8 1.7 9.2 Q-0.6 8.7 -2.9 9.15 L-2.95 9.05 Q-3.0 4.25 -5.05 -0.05 L-5.65 -1.3 Q-5.1 -1.4 -4.7 -1.85 L-4.7 -2.1 -4.75 -2.15 -4.75 -2.25 -4.85 -2.25 -4.95 -2.3 -5.0 -2.3 -5.85 -2.0 -6.05 -1.95 -6.25 -2.25 Q-6.9 -3.35 -7.9 -3.65 L-7.8 -4.0 -7.7 -4.25 -7.7 -4.35 -7.75 -4.4 -7.75 -4.5 -7.55 -5.2 -7.5 -5.35 -6.95 -6.8 -6.0 -8.8 Q-3.4 -12.45 0.9 -13.75 L0.95 -13.85 0.9 -13.95 0.8 -14.0 0.7 -14.05 0.0 -14.05 0.0 -14.1 Q-1.75 -15.05 -3.75 -15.4 L-4.3 -15.55 Q-3.35 -15.95 -3.0 -16.75 -2.6 -16.3 -1.75 -16.15 L3.05 -15.7 Q3.3 -15.7 3.4 -15.8 L3.45 -15.8 3.65 -16.1 3.6 -16.2 Q1.8 -17.55 -0.3 -18.35 1.95 -18.85 3.75 -20.85 4.35 -21.55 4.4 -22.2 L4.8 -21.85 4.9 -21.8 4.9 -21.7 5.0 -21.55 Q9.85 -17.85 15.0 -14.55 L15.15 -14.45 M-28.25 56.95 Q-27.6 52.25 -25.7 47.85 L-25.65 47.75 Q-24.45 45.2 -22.45 43.25 L-22.2 43.1 -22.05 42.9 -21.25 42.25 Q-20.9 42.0 -20.4 41.85 L-20.25 41.95 -19.65 42.15 -18.75 42.9 Q-16.85 44.4 -15.75 46.55 -15.4 46.9 -15.2 47.4 L-14.8 48.1 -15.1 50.6 -15.45 50.25 -16.05 49.75 Q-17.65 48.5 -19.55 48.2 L-19.75 48.2 Q-21.1 49.3 -21.7 50.9 L-22.1 51.7 Q-23.4 53.8 -24.0 56.2 L-24.25 56.95 -28.25 56.95 M-3.55 56.95 Q-3.15 53.75 -2.3 50.7 L-2.0 50.1 Q-1.25 46.6 1.3 44.15 L2.0 43.55 Q4.7 41.65 6.5 44.65 L6.65 44.8 7.3 45.7 8.25 47.25 9.15 49.5 10.5 52.95 8.75 49.95 8.4 49.4 Q7.85 48.4 6.95 47.75 L6.65 47.45 Q6.3 47.0 5.7 47.0 L5.5 47.05 Q5.45 47.2 5.15 47.15 L4.8 47.2 4.1 47.45 3.9 47.5 2.9 49.25 2.4 49.75 1.5 51.6 1.05 52.85 Q0.35 54.85 -0.1 56.95 L-3.55 56.95 M30.2 46.95 L30.25 47.1 Q32.3 51.9 33.6 56.95 L31.0 56.95 29.6 52.35 29.15 51.1 28.65 49.6 28.25 47.9 30.2 46.95 M6.55 -7.0 Q9.05 -6.1 10.7 -4.15 8.35 -5.9 5.2 -6.05 L6.4 -6.9 6.55 -7.0 M9.65 -10.0 L10.45 -8.9 Q10.8 -8.25 11.5 -8.15 11.6 -9.45 10.35 -10.45 8.4 -12.05 5.9 -11.75 5.3 -11.6 5.3 -11.05 L5.25 -11.0 5.3 -10.9 5.4 -10.8 5.65 -10.75 Q7.45 -11.5 9.2 -10.25 L9.65 -10.0 M8.8 24.6 L9.25 24.6 10.15 24.5 Q11.35 24.2 12.25 23.35 L13.05 22.45 13.35 22.0 13.75 28.05 Q11.2 29.75 8.85 28.3 L8.8 24.6 M-8.05 -2.95 L-7.95 -2.95 -6.8 -1.4 -8.25 0.35 -8.05 -2.95" fill="#55bb65" fill-rule="evenodd" stroke="none"/>
    <path d="M13.0 0.2 L13.05 0.45 Q13.65 2.55 13.55 4.8 13.35 8.05 11.2 10.55 L11.25 10.75 10.35 10.85 7.7 10.85 8.25 9.75 8.55 8.9 8.45 7.7 5.35 7.25 5.3 7.2 5.3 7.15 5.25 7.05 5.6 6.8 8.0 5.85 Q7.35 4.1 6.1 2.6 5.4 1.75 4.4 1.4 L4.25 1.35 3.7 1.4 Q3.35 1.5 3.15 1.7 3.05 -0.85 3.8 -3.2 L4.2 -4.35 5.5 -4.1 7.35 -3.55 7.75 -3.45 Q9.65 -2.75 11.25 -1.55 L12.95 0.25 13.0 0.2 M-6.35 -0.65 L-6.5 -0.55 -6.35 -0.7 -6.35 -0.65 M-7.7 4.35 L-7.4 2.85 -7.2 2.5 -5.7 0.55 Q-4.85 2.25 -4.35 4.1 L-5.0 4.05 -5.25 4.25 -5.4 4.3 Q-5.9 5.65 -5.75 6.9 L-4.45 7.2 -4.35 7.2 -4.3 7.25 -4.3 7.35 Q-4.8 7.85 -5.5 8.1 L-4.55 9.8 -5.05 10.3 Q-7.0 7.55 -7.7 4.35" fill="#ffffff" fill-rule="evenodd" stroke="none"/>
    <path d="M4.2 -4.35 L4.7 -5.3 5.05 -5.35 Q8.8 -5.1 11.35 -2.45 L12.25 -1.75 13.0 0.2 12.95 0.25 11.25 -1.55 Q9.65 -2.75 7.75 -3.45 L7.35 -3.55 5.5 -4.1 4.2 -4.35 M-6.5 -0.55 L-6.35 -0.65 -5.7 0.55 -7.2 2.5 -7.4 2.85 -7.7 4.35 -8.0 2.85 -8.05 2.4 Q-7.8 0.7 -6.5 -0.55" fill="#cccccc" fill-rule="evenodd" stroke="none"/>
    <path d="M-13.5 24.25 L-14.6 24.7 -15.4 24.7 -15.65 24.6 -15.7 24.45 -15.9 24.25 -15.95 24.15 Q-16.35 23.0 -15.5 22.1 L-15.45 22.05 Q-14.7 21.35 -13.85 20.9 -14.55 21.65 -14.35 22.7 L-14.1 23.5 -13.5 24.25 M9.5 17.65 L9.2 17.8 8.4 18.15 7.25 18.65 6.85 18.8 Q1.45 20.7 -4.5 20.25 L-9.95 19.6 Q-12.95 19.1 -15.8 19.7 L-16.4 20.4 -16.4 20.45 -14.7 20.35 -16.25 21.6 -16.4 21.7 -16.45 21.9 Q-18.8 21.55 -19.65 19.4 -20.3 17.6 -18.35 17.0 L-15.85 16.25 -15.6 16.2 -12.3 16.15 -11.75 16.2 Q-9.35 16.4 -7.05 17.3 L-5.35 17.15 Q-7.45 16.2 -9.65 15.75 -6.8 14.65 -4.5 12.7 -3.85 12.1 -3.7 11.4 L-3.9 11.25 -4.1 11.2 -4.7 11.7 -4.65 11.45 -4.4 11.15 -4.5 11.0 -4.25 10.5 -3.75 10.35 -3.55 10.3 -3.45 10.25 -3.4 10.25 3.8 10.5 4.3 11.1 Q5.1 12.25 6.5 12.65 L7.7 12.9 9.35 13.0 Q10.6 12.8 11.25 13.75 L11.4 14.15 Q11.65 15.4 10.7 16.45 L10.5 16.65 9.45 17.6 9.45 17.65 9.5 17.65" fill="#f07942" fill-rule="evenodd" stroke="none"/>
    <path d="M3.8 10.5 L4.55 10.8 5.65 11.25 5.7 11.25 5.8 11.3 Q10.65 12.9 15.0 9.65 16.9 8.15 19.3 7.95 L19.35 8.0 19.45 8.05 19.55 8.1 Q20.65 7.9 21.65 8.55 L22.65 9.5 22.65 9.65 22.75 10.15 22.75 10.3 Q22.55 11.3 21.85 12.05 L21.5 12.65 21.5 12.75 21.5 12.8 Q18.3 17.0 13.8 19.6 L12.9 20.1 8.35 22.0 7.6 22.25 6.5 22.55 Q0.9 23.95 -4.85 23.2 -9.35 22.65 -13.5 24.25 L-14.1 23.5 -14.35 22.7 Q-14.55 21.65 -13.85 20.9 L-12.6 20.3 -11.6 20.3 -4.45 20.8 -1.8 20.95 Q2.8 21.1 7.0 19.65 L7.7 19.35 10.75 17.95 11.75 17.4 13.0 16.6 Q15.75 14.7 16.8 11.55 L17.1 11.25 18.5 11.6 19.15 11.7 19.25 11.65 19.5 11.35 19.5 11.25 Q18.55 10.2 17.1 10.3 L15.5 10.6 Q13.95 11.15 13.7 12.65 L13.7 12.75 13.8 12.75 13.9 12.8 13.95 12.85 14.05 12.8 Q14.95 11.6 16.1 11.3 15.5 12.0 15.15 12.95 14.5 14.55 13.1 15.5 L10.9 16.9 9.55 17.65 9.5 17.65 9.45 17.65 9.45 17.6 10.5 16.65 10.7 16.45 Q11.65 15.4 11.4 14.15 L11.25 13.75 Q10.6 12.8 9.35 13.0 L7.7 12.9 6.5 12.65 Q5.1 12.25 4.3 11.1 L3.8 10.5" fill="#e05512" fill-rule="evenodd" stroke="none"/>
    <path d="M18.2 55.4 Q14.85 51.25 9.9 48.95 L7.95 45.15 9.0 45.45 11.3 46.45 11.9 46.75 12.5 47.05 Q13.65 47.6 14.65 48.35 L15.35 48.8 16.35 49.5 16.8 49.9 Q18.3 50.85 19.5 52.15 L18.65 54.55 18.2 55.4 M5.3 42.05 Q4.6 41.65 3.75 41.65 L3.25 41.8 2.7 41.95 1.85 42.0 -0.45 42.15 -2.9 42.6 -3.5 42.8 -3.95 42.95 -3.9 42.85 -3.7 42.75 -3.55 42.55 -2.45 40.75 -0.45 40.05 1.05 39.75 1.45 39.7 3.25 39.6 3.75 39.7 8.6 40.4 10.9 41.05 11.45 41.25 13.75 42.1 Q16.05 42.85 18.1 44.4 L18.85 44.95 20.65 46.3 20.55 47.0 20.15 49.25 20.1 49.2 18.95 48.3 16.95 46.75 12.6 44.15 Q10.45 43.15 8.1 42.55 L7.2 42.3 6.45 42.2 6.05 42.1 5.3 42.05 M-0.2 44.2 L-2.2 47.3 -2.25 47.3 -4.8 47.25 -6.7 47.6 -7.6 47.9 -7.15 47.35 -5.4 45.15 -4.8 45.0 -4.05 44.8 -0.2 44.1 -0.2 44.2 M-1.25 38.6 L0.05 35.95 1.05 35.5 3.9 34.75 5.7 34.55 6.0 34.5 9.35 34.65 10.8 34.9 13.85 35.75 15.25 36.25 16.7 36.85 17.55 37.3 20.05 38.8 20.8 39.2 20.8 40.7 20.85 42.0 20.85 43.75 20.6 43.55 20.3 43.25 19.1 42.4 17.85 41.6 17.4 41.3 15.0 40.05 13.95 39.6 13.55 39.35 Q13.0 38.9 12.35 38.8 L11.7 38.65 9.0 38.15 7.6 37.95 2.75 37.6 0.55 38.0 0.3 38.1 -0.1 38.2 -0.6 38.35 -1.25 38.6 M0.95 33.8 L2.05 30.85 Q4.35 29.7 7.1 29.65 L9.2 29.65 11.8 30.05 12.85 29.95 15.1 30.55 15.6 30.75 17.5 31.4 Q18.65 31.8 19.7 32.35 L19.75 32.45 20.1 33.65 20.6 36.2 20.55 36.2 20.25 36.0 20.05 35.85 18.6 35.3 18.35 35.2 17.95 35.0 16.9 34.55 Q15.5 33.9 14.0 33.55 L13.55 33.4 Q12.2 32.85 10.65 32.8 L10.3 32.75 9.7 32.6 9.5 32.6 7.1 32.6 6.0 32.65 Q4.3 32.7 2.8 33.3 L2.5 33.4 Q1.6 33.4 0.95 33.8 M3.65 27.85 L5.3 26.5 7.95 25.5 8.1 27.75 7.75 27.4 7.65 27.3 7.65 27.2 Q7.7 26.7 7.2 26.55 L7.2 26.6 Q6.9 26.55 6.8 26.85 L6.8 27.1 6.9 27.4 6.3 27.45 4.55 27.7 3.65 27.85 M14.95 28.3 L15.1 27.5 14.75 27.55 14.65 27.6 14.5 27.05 14.65 25.85 Q16.8 27.45 18.4 29.45 L18.4 29.5 17.15 28.9 16.9 28.8 14.95 28.3 M1.7 29.75 L1.3 30.1 1.3 30.3 -1.1 36.15 -1.7 36.8 -2.45 37.45 -5.7 39.8 -7.4 40.4 -7.6 40.25 -9.0 39.2 Q-6.5 38.3 -4.75 36.25 -1.75 32.7 1.6 29.65 L1.7 29.75 M22.25 34.45 L21.95 33.65 20.65 31.1 18.9 28.6 21.35 30.55 21.4 30.75 21.6 31.05 21.7 31.15 Q26.75 37.6 34.15 41.05 32.9 42.95 30.75 43.95 L30.05 44.3 30.0 44.25 Q29.7 44.2 29.6 44.45 L28.0 45.15 27.85 44.9 27.45 44.15 26.5 42.65 25.15 40.4 23.2 36.1 22.8 35.2 22.35 34.4 22.25 34.45" fill="#3399ff" fill-rule="evenodd" stroke="none"/>
    <path d="M19.4 56.95 L18.2 55.4 18.65 54.55 19.5 52.15 20.45 53.2 20.75 53.65 22.1 55.7 22.4 56.3 22.2 56.95 19.4 56.95 M20.35 32.6 L21.25 34.65 22.15 37.25 20.7 36.25 20.6 36.2 20.1 33.65 19.75 32.45 19.8 32.4 20.35 32.6 M23.05 41.25 Q23.45 43.75 23.5 46.3 L22.85 45.5 22.65 45.35 22.3 44.95 22.0 44.75 20.85 43.75 20.85 42.0 20.8 40.7 20.8 39.2 21.35 39.55 21.7 39.75 22.4 40.5 22.8 41.0 23.05 41.25 M23.45 49.05 L23.45 49.5 23.4 49.8 23.1 52.5 21.15 50.3 20.95 50.0 Q20.7 49.65 20.35 49.45 L20.15 49.3 20.15 49.25 20.55 47.0 20.65 46.3 21.15 46.75 21.55 47.0 22.65 48.0 22.9 48.3 23.1 48.5 23.45 49.05 M-7.4 40.4 L-5.7 39.8 -2.45 37.45 -1.7 36.8 -1.1 36.15 -1.45 36.9 -2.3 38.55 -2.3 38.65 -2.75 39.45 -3.85 41.1 -4.05 41.3 -4.1 41.4 -4.1 41.6 -4.3 41.8 -5.25 41.5 -7.4 40.4 M22.25 34.45 L22.35 34.4 22.8 35.2 23.2 36.1 25.15 40.4 26.5 42.65 27.45 44.15 27.85 44.9 28.0 45.15 24.45 46.35 Q24.35 42.45 23.5 38.75 L22.25 34.45" fill="#007dfb" fill-rule="evenodd" stroke="none"/>
    <path d="M7.95 45.15 L7.45 44.25 6.8 43.35 6.0 42.4 5.8 42.3 5.3 42.05 6.05 42.1 6.45 42.2 7.2 42.3 8.1 42.55 Q10.45 43.15 12.6 44.15 L16.95 46.75 18.95 48.3 20.1 49.2 20.15 49.3 20.35 49.45 Q20.7 49.65 20.95 50.0 L21.15 50.3 23.1 52.5 22.4 56.3 22.1 55.7 20.75 53.65 20.45 53.2 19.5 52.15 Q18.3 50.85 16.8 49.9 L16.35 49.5 15.35 48.8 14.65 48.35 Q13.65 47.6 12.5 47.05 L11.9 46.75 11.3 46.45 9.0 45.45 7.95 45.15 M2.7 41.95 Q1.75 42.3 1.05 43.0 L-0.1 44.1 -0.2 44.1 -4.05 44.8 -4.8 45.0 -5.4 45.15 -3.95 42.95 -3.5 42.8 -2.9 42.6 -0.45 42.15 1.85 42.0 2.7 41.95 M-2.45 40.75 L-1.25 38.6 -0.6 38.35 -0.1 38.2 0.3 38.1 0.55 38.0 2.75 37.6 7.6 37.95 9.0 38.15 11.7 38.65 12.35 38.8 Q13.0 38.9 13.55 39.35 L13.95 39.6 15.0 40.05 17.4 41.3 17.85 41.6 19.1 42.4 20.3 43.25 20.6 43.55 20.85 43.75 22.0 44.75 22.3 44.95 22.65 45.35 22.85 45.5 23.5 46.3 23.45 49.05 23.1 48.5 22.9 48.3 22.65 48.0 21.55 47.0 21.15 46.75 20.65 46.3 18.85 44.95 18.1 44.4 Q16.05 42.85 13.75 42.1 L11.45 41.25 10.9 41.05 8.6 40.4 3.75 39.7 3.25 39.6 1.45 39.7 1.05 39.75 -0.45 40.05 -2.45 40.75 M0.05 35.95 L0.95 33.8 Q1.6 33.4 2.5 33.4 L2.8 33.3 Q4.3 32.7 6.0 32.65 L7.1 32.6 9.5 32.6 9.7 32.6 10.3 32.75 10.65 32.8 Q12.2 32.85 13.55 33.4 L14.0 33.55 Q15.5 33.9 16.9 34.55 L17.95 35.0 18.35 35.2 18.6 35.3 20.05 35.85 20.25 36.0 20.55 36.2 20.6 36.2 20.6 36.35 20.7 36.25 22.15 37.25 23.05 41.25 22.8 41.0 22.4 40.5 21.7 39.75 21.35 39.55 20.8 39.2 20.05 38.8 17.55 37.3 16.7 36.85 15.25 36.25 13.85 35.75 10.8 34.9 9.35 34.65 6.0 34.5 5.7 34.55 3.9 34.75 1.05 35.5 0.05 35.95 M2.05 30.85 L2.5 29.5 2.55 29.4 2.8 28.95 2.9 28.85 3.6 27.95 3.65 27.85 4.55 27.7 6.3 27.45 6.9 27.4 Q7.65 29.0 9.2 29.65 L7.1 29.65 Q4.35 29.7 2.05 30.85 M12.85 29.95 Q14.5 29.6 14.95 28.3 L16.9 28.8 17.15 28.9 18.4 29.5 20.35 32.6 19.8 32.4 19.75 32.35 19.7 32.35 Q18.65 31.8 17.5 31.4 L15.6 30.75 15.1 30.55 12.85 29.95" fill="#0060bf" fill-rule="evenodd" stroke="none"/>
    <path d="M13.05 9.35 L15.95 6.8 17.15 5.15 17.7 4.2 18.5 2.7 19.25 0.5 19.4 -0.65 19.6 -1.7 Q19.85 -3.15 19.6 -4.6 18.85 -8.35 16.8 -11.7 16.4 -12.3 16.15 -13.0 L15.15 -14.45 16.6 -13.5 Q20.95 -9.85 22.3 -4.3 L22.65 -1.65 Q22.75 3.15 20.5 7.35 18.4 6.9 16.3 8.1 L12.2 10.3 12.8 9.65 13.05 9.35 M-15.1 50.6 L-15.25 56.15 Q-16.6 54.15 -18.45 52.55 L-18.05 51.75 -18.05 51.55 -17.95 51.35 -17.8 51.2 -17.7 50.9 -17.75 50.8 -18.15 50.55 Q-19.6 51.5 -20.2 53.3 L-21.2 56.95 -24.25 56.95 -24.0 56.2 Q-23.4 53.8 -22.1 51.7 L-21.7 50.9 Q-21.1 49.3 -19.75 48.2 L-19.55 48.2 Q-17.65 48.5 -16.05 49.75 L-15.45 50.25 -15.1 50.6 M10.5 52.95 L10.95 54.4 11.5 56.95 5.65 56.95 4.85 54.5 Q4.95 53.75 5.3 53.05 5.9 51.65 5.3 50.7 3.65 53.5 3.25 56.95 L-0.1 56.95 Q0.35 54.85 1.05 52.85 L1.5 51.6 2.4 49.75 2.9 49.25 3.9 47.5 4.1 47.45 4.8 47.2 5.15 47.15 Q5.45 47.2 5.5 47.05 L5.7 47.0 Q6.3 47.0 6.65 47.45 L6.95 47.75 Q7.85 48.4 8.4 49.4 L8.75 49.95 10.5 52.95 M29.85 56.95 Q28.55 52.55 26.6 48.5 L25.75 46.8 29.75 45.6 30.2 46.95 28.25 47.9 28.65 49.6 29.15 51.1 29.6 52.35 31.0 56.95 29.85 56.95 M13.35 22.0 L13.05 22.45 12.25 23.35 Q11.35 24.2 10.15 24.5 L9.25 24.6 8.8 24.6 8.55 22.9 11.0 22.0 13.2 20.9 13.35 21.85 13.35 22.0 M-6.25 42.0 L-5.55 42.2 -4.8 42.35 -6.2 44.1 -7.3 45.6 -6.25 42.0" fill="#43a752" fill-rule="evenodd" stroke="none"/>
    <path d="M-0.1 44.1 L-0.2 44.2 -0.2 44.1 -0.1 44.1 M20.1 49.2 L20.15 49.25 20.15 49.3 20.1 49.2" fill="#f02d0b" fill-rule="evenodd" stroke="none"/>
    <path d="M-14.1 56.95 L-14.15 56.0 -14.1 51.7 -13.75 48.5 -13.7 48.4 -13.7 48.3 -13.25 45.85 -12.85 46.35 Q-11.45 48.45 -9.2 48.9 L-9.6 49.65 -9.15 50.1 -8.3 49.15 -8.05 49.05 Q-5.45 48.2 -2.65 48.35 L-3.5 50.75 Q-4.3 53.8 -4.65 56.95 L-11.45 56.95 Q-11.6 54.9 -10.8 53.0 -10.3 51.6 -10.6 50.65 -12.7 53.5 -12.6 56.95 L-14.1 56.95 M14.15 56.95 Q14.45 54.15 11.7 52.5 L11.55 52.5 11.35 52.55 10.4 50.1 13.2 51.75 15.2 53.65 17.6 56.3 18.1 56.95 14.15 56.95" fill="#6633cc" fill-rule="evenodd" stroke="none"/>
    <path d="M12.6 56.95 L12.45 56.35 11.55 53.15 Q13.45 54.75 13.3 56.95 L12.6 56.95 M4.5 56.95 L4.55 56.7 4.6 56.95 4.5 56.95" fill="#4d269b" fill-rule="evenodd" stroke="none"/>
    <path d="M19.7 32.35 L19.75 32.35 19.8 32.4 19.75 32.45 19.7 32.35 M20.6 36.2 L20.7 36.25 20.6 36.35 20.6 36.2" fill="#d6280a" fill-rule="evenodd" stroke="none"/>
  </g>
</svg>
