<?xml version="1.0" encoding="UTF-8" standalone="no"?>
<svg xmlns:xlink="http://www.w3.org/1999/xlink" height="14.5px" width="76.1px" xmlns="http://www.w3.org/2000/svg">
  <g transform="matrix(1.0, 0.0, 0.0, 1.0, 41.05, 18.25)">
    <path d="M7.65 -16.7 Q4.45 -17.0 1.25 -16.8 L0.95 -17.05 0.95 -17.15 1.0 -17.25 1.05 -17.4 8.7 -18.2 9.6 -18.25 Q16.0 -18.45 21.85 -16.6 L21.85 -16.55 Q16.65 -15.75 11.4 -16.3 L7.65 -16.7 M15.6 -14.6 Q19.95 -15.15 23.5 -13.25 L23.55 -13.15 Q23.5 -11.15 21.3 -10.5 L18.05 -9.6 16.1 -9.15 14.0 -8.85 13.85 -8.75 13.75 -8.65 10.6 -8.7 10.5 -8.85 10.5 -8.9 10.7 -9.15 Q13.8 -9.9 16.75 -10.95 18.05 -11.4 19.2 -12.15 L19.25 -12.25 19.35 -12.55 19.35 -12.65 19.35 -12.75 19.35 -13.1 18.6 -13.4 Q16.65 -13.5 15.05 -14.15 L15.05 -14.25 15.2 -14.45 15.35 -14.5 15.45 -14.55 15.6 -14.6 M6.95 -17.35 L6.85 -17.35 6.95 -17.3 19.3 -16.9 9.6 -17.65 6.95 -17.35 M2.2 -6.9 Q1.05 -6.25 -0.6 -5.85 L-4.6 -5.7 Q-7.65 -6.25 -10.2 -7.25 L-10.15 -7.35 -10.1 -7.4 -9.9 -7.5 -9.7 -7.55 -9.25 -7.7 -9.25 -7.75 2.15 -6.95 2.2 -6.9 M-0.65 -6.6 L-6.0 -7.05 -7.6 -7.0 Q-5.0 -5.55 -2.0 -6.25 L-0.65 -6.6 M12.45 -9.15 Q18.15 -8.95 23.05 -12.35 L23.1 -12.6 23.1 -13.0 Q21.75 -13.75 20.15 -13.9 L19.6 -13.8 19.45 -13.8 19.85 -13.25 20.0 -12.95 19.75 -12.3 19.7 -11.9 16.75 -10.3 12.45 -9.15 M11.65 -5.8 Q18.2 -6.3 24.7 -7.55 L24.2 -7.8 24.05 -8.1 24.05 -8.2 24.15 -8.35 24.3 -8.55 Q28.1 -8.55 31.2 -10.15 L31.2 -10.25 31.2 -10.45 31.2 -10.55 31.1 -10.7 31.0 -11.0 31.0 -11.1 29.6 -12.45 Q29.05 -12.9 28.4 -12.85 L28.15 -13.1 Q28.0 -13.35 28.2 -13.45 L28.35 -13.5 Q32.05 -13.05 35.0 -11.0 L35.05 -10.9 Q34.5 -7.7 30.8 -6.9 L18.7 -4.65 15.8 -4.35 12.55 -4.05 9.15 -4.15 Q8.45 -4.2 8.3 -4.75 9.65 -5.65 11.65 -5.8 M30.75 -12.3 L30.9 -12.25 31.45 -11.65 31.8 -10.25 31.8 -9.9 Q28.9 -7.75 25.0 -8.0 25.65 -7.9 25.9 -7.4 17.95 -5.35 9.55 -4.75 L12.3 -4.6 25.8 -6.25 Q28.55 -6.7 31.15 -7.75 L33.55 -8.75 Q34.45 -9.45 34.55 -10.6 L34.5 -10.8 Q32.8 -11.95 30.8 -12.35 L30.55 -12.4 30.75 -12.3 M-29.05 -16.35 L-29.25 -16.35 -29.4 -16.4 -29.45 -16.45 -29.5 -16.45 -29.75 -16.4 -29.9 -16.35 -30.25 -16.25 -30.45 -16.2 -30.6 -16.15 -30.45 -16.15 -29.1 -16.25 -21.7 -16.85 -21.5 -16.9 -21.7 -16.95 -22.0 -17.0 -29.05 -16.35 M-31.65 -16.1 Q-31.15 -16.65 -30.4 -16.8 L-26.25 -17.5 -24.4 -17.65 Q-20.15 -17.8 -16.25 -16.8 L-16.25 -16.75 -30.3 -15.65 -31.15 -15.6 -31.3 -15.65 -31.5 -15.85 -31.6 -15.95 -31.65 -16.1 M-31.3 -12.9 L-31.55 -12.6 -31.45 -12.1 -31.35 -11.65 -31.35 -11.55 Q-29.7 -9.8 -27.25 -9.4 L-24.9 -8.75 Q-29.1 -8.1 -33.4 -9.75 -35.35 -10.5 -35.1 -12.45 -34.6 -12.9 -33.9 -13.05 -33.4 -13.15 -33.0 -13.5 -29.15 -14.55 -25.15 -14.9 L-24.55 -14.65 -24.5 -14.6 Q-27.6 -14.3 -30.75 -13.3 L-31.0 -13.25 -31.3 -12.9 M-31.6 -13.2 L-31.3 -13.4 Q-31.05 -13.65 -31.65 -13.45 L-34.5 -12.45 -34.65 -12.35 -34.85 -12.0 -34.85 -11.7 Q-33.15 -9.25 -29.85 -9.15 L-29.5 -9.1 -27.4 -8.9 Q-30.05 -9.3 -31.9 -11.15 L-32.0 -11.9 -32.15 -12.55 -31.6 -13.2 M-38.05 -10.2 L-38.1 -10.1 -38.4 -9.9 -38.55 -9.55 -38.6 -9.45 Q-35.4 -7.55 -31.55 -7.15 L-23.2 -6.15 -17.35 -5.45 Q-14.7 -5.15 -12.6 -4.05 L-12.8 -3.8 -12.9 -3.75 Q-24.45 -4.55 -35.9 -6.1 -38.7 -6.5 -40.95 -8.05 L-41.05 -8.8 -41.05 -9.1 -40.05 -9.9 -38.25 -10.75 Q-37.85 -10.55 -38.05 -10.2 M-40.45 -8.75 L-38.95 -7.6 Q-31.65 -5.7 -24.1 -5.45 L-37.2 -8.1 Q-37.9 -8.3 -38.55 -8.75 L-39.4 -9.3 -40.35 -8.8 -40.45 -8.75 M-23.3 -5.3 L-22.75 -5.3 -23.25 -5.4 -23.4 -5.4 Q-23.65 -5.35 -23.3 -5.3" fill="#389cff" fill-rule="evenodd" stroke="none"/>
    <path d="M6.95 -17.3 L6.95 -17.35 9.6 -17.65 19.3 -16.9 6.95 -17.3 M12.45 -9.15 L16.75 -10.3 19.7 -11.9 19.75 -12.3 20.0 -12.95 19.85 -13.25 19.45 -13.8 19.6 -13.8 20.15 -13.9 Q21.75 -13.75 23.1 -13.0 L23.1 -12.6 23.05 -12.35 Q18.15 -8.95 12.45 -9.15 M-0.65 -6.6 L-2.0 -6.25 Q-5.0 -5.55 -7.6 -7.0 L-6.0 -7.05 -0.65 -6.6 M30.8 -12.35 Q32.8 -11.95 34.5 -10.8 L34.55 -10.6 Q34.45 -9.45 33.55 -8.75 L31.15 -7.75 Q28.55 -6.7 25.8 -6.25 L12.3 -4.6 9.55 -4.75 Q17.95 -5.35 25.9 -7.4 25.65 -7.9 25.0 -8.0 28.9 -7.75 31.8 -9.9 L31.8 -10.25 31.45 -11.65 30.9 -12.25 30.75 -12.3 30.8 -12.35 M-29.1 -16.25 L-29.05 -16.35 -22.0 -17.0 -21.7 -16.95 -21.7 -16.85 -29.1 -16.25 M-31.6 -13.2 L-32.15 -12.55 -32.0 -11.9 -31.9 -11.15 Q-30.05 -9.3 -27.4 -8.9 L-29.5 -9.1 -29.85 -9.15 Q-33.15 -9.25 -34.85 -11.7 L-34.85 -12.0 -34.65 -12.35 -34.5 -12.45 -31.65 -13.45 Q-31.05 -13.65 -31.3 -13.4 L-31.6 -13.2 M-40.45 -8.75 L-40.35 -8.8 -39.4 -9.3 -38.55 -8.75 Q-37.9 -8.3 -37.2 -8.1 L-24.1 -5.45 Q-31.65 -5.7 -38.95 -7.6 L-40.45 -8.75" fill="#dfefff" fill-rule="evenodd" stroke="none"/>
  </g>
</svg>
