<?xml version="1.0" encoding="UTF-8" standalone="no"?>
<svg xmlns:xlink="http://www.w3.org/1999/xlink" height="128.9px" width="455.15px" xmlns="http://www.w3.org/2000/svg">
  <g transform="matrix(1.0, 0.0, 0.0, 1.0, 265.05, 64.55)">
    <path d="M15.7 -61.2 L16.2 -61.35 Q17.5 -61.05 17.65 -59.65 L17.65 -59.5 Q17.15 -58.75 16.25 -59.3 L16.2 -59.8 16.05 -60.3 15.55 -60.75 15.45 -60.9 15.7 -61.2 M21.65 -54.15 L21.65 -54.2 Q22.25 -52.9 22.2 -51.15 L22.15 -51.0 21.5 -50.4 Q19.9 -51.6 21.05 -53.7 21.2 -54.1 21.65 -54.15 M-6.55 -56.15 Q-6.4 -56.0 -6.55 -55.8 L-6.6 -55.65 Q-5.9 -53.2 -6.15 -50.65 L-6.25 -50.5 Q-6.6 -50.35 -6.95 -50.5 L-7.35 -50.85 Q-7.7 -52.55 -6.85 -54.25 -7.25 -55.25 -6.6 -56.1 L-6.55 -56.15" fill="#dfefff" fill-rule="evenodd" stroke="none"/>
    <path d="M-59.6 -11.35 L-60.4 -10.4 -60.3 -10.25 -59.2 -9.2 Q-55.0 -7.0 -50.15 -6.8 L-47.5 -7.0 -40.9 -6.65 -31.6 -4.15 Q-25.0 -2.5 -18.1 -2.25 -13.7 -2.1 -10.4 -4.35 L-10.45 -4.55 -10.7 -5.0 Q-10.0 -5.7 -8.95 -5.75 L10.8 -5.05 10.9 -5.15 10.95 -5.15 21.55 -4.7 7.95 -3.9 4.6 -3.8 4.1 -3.9 1.3 -4.05 -3.25 -4.4 Q-6.1 -4.5 -6.95 -2.15 -21.0 0.25 -34.95 -2.65 -36.15 -2.85 -37.2 -3.4 -39.6 -4.6 -42.25 -4.6 -52.65 -4.7 -62.65 -6.9 L-62.6 -7.15 Q-62.45 -7.3 -62.45 -7.55 -63.1 -8.6 -64.45 -8.75 -68.45 -9.3 -71.05 -12.15 L-70.7 -12.6 Q-68.3 -14.2 -65.65 -15.45 L-63.8 -16.1 -61.65 -16.75 -61.65 -16.7 -65.15 -14.35 -65.1 -13.9 Q-64.85 -12.25 -62.95 -11.95 -61.0 -12.35 -59.5 -11.6 L-59.6 -11.35 M22.55 -8.45 L22.55 -8.95 Q26.1 -10.0 29.8 -10.45 L34.5 -10.05 34.45 -9.95 Q28.45 -8.2 22.55 -8.45 M53.4 -10.1 L51.7 -10.0 Q47.75 -8.75 43.8 -8.95 51.45 -10.3 58.6 -13.1 59.75 -13.6 60.4 -14.8 61.8 -17.4 59.25 -19.45 L62.1 -18.8 Q64.95 -18.2 65.9 -15.9 L63.05 -12.6 63.0 -12.45 63.1 -12.05 Q63.35 -11.75 63.75 -11.7 66.0 -11.4 67.95 -11.75 66.0 -10.3 63.65 -9.5 49.95 -4.65 35.45 -4.55 L39.85 -5.45 Q46.2 -6.1 52.3 -7.9 54.55 -8.55 53.4 -10.1 M83.7 -62.4 L88.35 -63.35 90.45 -63.4 90.7 -63.15 Q90.8 -62.75 91.25 -62.55 92.5 -62.1 93.85 -62.15 L104.5 -61.3 Q108.45 -60.5 112.1 -58.7 L109.8 -58.95 96.3 -59.95 96.1 -59.9 Q93.2 -59.4 92.2 -61.6 L91.85 -61.65 Q87.6 -61.4 83.7 -62.3 L83.7 -62.4 M113.45 -32.95 L113.5 -32.8 Q111.0 -31.7 109.1 -33.25 L109.15 -33.4 109.8 -33.85 110.05 -33.85 110.2 -33.6 111.95 -33.5 113.45 -32.95 M159.2 -15.0 Q161.85 -15.2 164.35 -14.3 167.45 -13.15 168.65 -10.2 169.5 -8.05 171.65 -7.15 175.9 -5.4 179.25 -2.3 179.75 -1.4 180.4 -0.6 181.8 1.05 182.65 2.95 182.85 4.25 183.7 5.3 187.15 9.3 188.95 14.1 188.25 13.95 187.7 13.4 L183.65 9.05 183.3 8.25 Q179.0 2.0 172.75 -1.9 L172.2 -2.15 Q168.95 -3.3 168.35 -6.3 168.1 -7.5 167.3 -8.4 163.8 -12.4 159.2 -15.0 M-171.75 -55.95 L-171.75 -56.05 Q-168.65 -58.25 -164.9 -58.8 L-163.5 -58.75 -162.65 -58.25 -161.95 -57.35 -162.7 -56.75 Q-167.2 -55.65 -171.75 -55.95 M-169.3 -8.9 Q-168.7 -8.55 -168.05 -8.4 -165.35 -7.95 -162.45 -8.4 L-162.35 -8.3 -162.05 -8.15 -162.0 -8.1 -161.95 -8.0 Q-162.5 -7.25 -163.45 -6.9 -169.2 -4.85 -170.05 0.95 L-170.95 1.45 -174.05 1.4 -174.2 1.15 -175.15 -0.15 Q-177.35 -5.1 -172.75 -8.15 L-172.55 -8.25 -169.8 -8.85 -169.75 -8.9 -169.3 -8.9 M-48.35 -13.15 L-47.95 -12.95 Q-46.45 -11.3 -44.45 -10.3 L-45.8 -10.4 Q-48.35 -10.6 -49.65 -12.3 L-49.55 -12.4 -48.35 -13.15 M-79.1 -57.7 L-81.05 -58.1 -81.2 -58.3 Q-81.95 -59.5 -81.8 -61.0 L-81.7 -61.1 -81.15 -61.65 -79.5 -61.35 -79.35 -61.1 Q-78.25 -59.4 -79.1 -57.7 M-59.7 33.4 L-59.25 33.6 -59.2 33.7 -59.1 33.9 Q-58.95 34.0 -58.75 34.05 L-58.7 34.15 Q-58.3 34.75 -58.35 35.45 -60.0 37.5 -61.65 35.95 L-61.65 35.9 Q-60.7 34.75 -60.65 33.25 L-60.55 33.15 -60.4 32.9 Q-60.1 32.85 -59.8 33.1 L-59.8 33.2 -59.7 33.4 M-30.6 -42.45 L-31.2 -42.25 Q-33.4 -42.45 -34.75 -44.15 L-34.9 -44.5 -35.9 -46.4 -35.8 -46.45 -35.05 -46.75 -33.95 -46.65 -30.35 -43.45 -30.4 -43.1 -30.55 -42.55 -30.6 -42.45 M-93.95 46.2 Q-93.6 46.2 -93.4 46.55 L-93.35 47.0 Q-92.6 49.6 -90.75 51.6 L-90.7 51.9 -90.35 53.1 -90.4 53.4 -90.5 54.3 -96.8 63.3 Q-97.55 63.85 -97.7 63.3 -95.4 57.85 -97.6 52.45 L-97.6 51.85 Q-96.1 48.9 -93.95 46.2 M-146.4 24.2 Q-145.4 21.05 -143.65 18.1 L-143.5 18.1 -142.95 17.75 Q-142.8 17.65 -142.7 17.9 L-142.2 18.75 Q-142.0 20.35 -142.55 21.85 -143.6 24.55 -146.35 24.6 L-146.4 24.2 M154.5 25.25 L154.65 25.25 Q158.65 28.4 157.9 33.5 156.8 33.35 155.8 32.65 L155.7 32.55 Q154.0 29.15 154.5 25.25 M72.8 21.8 Q71.3 22.1 70.25 21.0 68.3 19.05 67.65 16.2 70.0 16.2 71.45 18.25 71.35 18.65 71.6 18.9 72.5 19.75 73.2 20.9 L73.25 20.95 73.25 21.45 72.8 21.8" fill="#dfefff" fill-rule="evenodd" stroke="none"/>
    <path d="M3.4 -2.95 L2.6 -3.1 Q-1.5 -3.2 -5.6 -2.9 L-5.9 -2.1 -5.95 -1.85 Q-8.55 -0.5 -11.7 -0.3 -20.6 0.25 -29.5 -0.6 -35.05 -1.15 -40.05 -3.35 L-42.1 -3.85 -54.65 -4.7 -57.35 -4.95 Q-60.55 -5.25 -63.3 -6.6 -63.6 -6.7 -63.5 -7.1 L-63.45 -7.4 Q-68.1 -8.15 -71.45 -11.35 -72.45 -12.35 -71.2 -13.2 -67.65 -15.45 -63.8 -17.1 L-62.4 -17.6 -57.35 -18.75 -50.75 -19.95 -50.05 -19.75 -50.0 -19.65 -50.5 -19.45 Q-50.7 -18.95 -51.85 -18.65 L-58.45 -16.85 -60.8 -16.2 Q-63.15 -15.7 -64.4 -13.85 -63.95 -12.9 -62.8 -12.7 L-62.65 -12.65 Q-60.2 -13.2 -58.55 -11.85 -58.55 -11.25 -59.05 -10.85 L-59.4 -10.55 -58.7 -9.8 Q-52.35 -6.7 -45.2 -7.85 L-42.25 -7.75 -29.9 -4.5 -27.55 -3.95 -17.9 -3.15 Q-14.5 -3.2 -11.35 -4.5 L-11.4 -4.6 -11.5 -5.05 -11.5 -5.25 Q-10.15 -6.75 -8.0 -6.85 L6.75 -6.3 9.5 -5.85 9.45 -5.9 9.4 -5.95 Q9.55 -6.25 9.95 -6.25 L9.95 -6.3 24.1 -5.85 Q26.3 -6.15 27.9 -5.3 L27.95 -5.05 27.95 -4.95 Q26.0 -3.9 23.5 -3.85 L17.85 -3.45 11.45 -2.95 Q8.95 -3.3 6.4 -3.0 L3.4 -2.95 M-62.65 -6.9 Q-52.65 -4.7 -42.25 -4.6 -39.6 -4.6 -37.2 -3.4 -36.15 -2.85 -34.95 -2.65 -21.0 0.25 -6.95 -2.15 -6.1 -4.5 -3.25 -4.4 L1.3 -4.05 4.1 -3.9 4.6 -3.8 7.95 -3.9 21.55 -4.7 10.95 -5.15 10.9 -5.15 10.8 -5.05 -8.95 -5.75 Q-10.0 -5.7 -10.7 -5.0 L-10.45 -4.55 -10.4 -4.35 Q-13.7 -2.1 -18.1 -2.25 -25.0 -2.5 -31.6 -4.15 L-40.9 -6.65 -47.5 -7.0 -50.15 -6.8 Q-55.0 -7.0 -59.2 -9.2 L-60.3 -10.25 -60.4 -10.4 -59.6 -11.35 -59.4 -11.55 -59.5 -11.6 Q-61.0 -12.35 -62.95 -11.95 -64.85 -12.25 -65.1 -13.9 L-65.15 -14.35 -61.65 -16.7 -61.5 -16.8 -61.65 -16.75 -63.8 -16.1 -65.65 -15.45 Q-68.3 -14.2 -70.7 -12.6 L-71.05 -12.15 Q-68.45 -9.3 -64.45 -8.75 -63.1 -8.6 -62.45 -7.55 -62.45 -7.3 -62.6 -7.15 L-62.7 -6.9 -62.65 -6.9 M22.55 -8.45 Q28.45 -8.2 34.45 -9.95 L35.05 -10.05 34.5 -10.05 29.8 -10.45 Q26.1 -10.0 22.55 -8.95 L21.15 -8.55 22.55 -8.45 M22.1 -9.65 L27.5 -10.9 28.8 -11.15 29.85 -11.3 40.2 -10.9 40.25 -10.85 Q37.95 -8.8 34.35 -9.0 L32.35 -8.75 Q25.6 -6.75 18.7 -8.05 L18.65 -8.15 Q18.5 -8.25 18.45 -8.45 L18.45 -8.55 18.45 -8.6 22.1 -9.65 M33.45 -4.35 Q37.25 -6.3 41.8 -6.6 47.5 -6.95 52.7 -8.9 L53.05 -9.2 Q51.05 -9.35 48.8 -8.45 45.5 -7.2 42.55 -8.55 42.5 -8.7 42.6 -8.85 L43.3 -9.6 43.45 -9.75 Q51.45 -11.1 58.65 -14.4 59.85 -14.95 60.2 -16.25 59.1 -19.3 56.05 -20.2 55.0 -20.5 54.35 -21.05 L54.35 -21.1 54.4 -21.2 55.1 -21.45 59.65 -20.45 Q63.15 -19.5 66.05 -17.4 L66.55 -16.6 Q66.9 -14.6 65.1 -13.25 L64.1 -12.4 Q66.6 -12.7 68.95 -12.35 L69.0 -12.3 69.0 -12.2 69.05 -11.9 69.0 -11.6 Q65.85 -8.95 61.7 -7.8 L59.55 -7.2 Q48.35 -4.15 36.75 -3.35 34.7 -3.2 33.45 -4.35 M53.4 -10.1 Q54.55 -8.55 52.3 -7.9 46.2 -6.1 39.85 -5.45 L35.45 -4.55 Q49.95 -4.65 63.65 -9.5 66.0 -10.3 67.95 -11.75 66.0 -11.4 63.75 -11.7 63.35 -11.75 63.1 -12.05 L63.0 -12.45 63.05 -12.6 65.9 -15.9 Q64.95 -18.2 62.1 -18.8 L59.25 -19.45 Q61.8 -17.4 60.4 -14.8 59.75 -13.6 58.6 -13.1 51.45 -10.3 43.8 -8.95 47.75 -8.75 51.7 -10.0 L53.4 -10.1 M91.7 -63.5 L91.8 -63.45 Q98.35 -63.6 104.8 -62.2 108.35 -61.45 111.7 -60.0 113.35 -59.3 114.3 -57.9 L114.3 -57.8 114.25 -57.7 114.2 -57.65 114.0 -57.45 100.45 -58.65 93.4 -59.3 Q91.95 -59.5 91.45 -60.8 85.2 -61.45 79.15 -61.05 L79.1 -61.15 79.05 -61.25 79.1 -61.35 79.15 -61.55 79.25 -61.6 79.3 -61.6 79.45 -61.7 79.5 -61.8 83.0 -63.2 88.45 -64.35 Q90.6 -65.0 91.7 -63.5 M83.7 -62.3 Q87.6 -61.4 91.85 -61.65 L92.2 -61.6 Q93.2 -59.4 96.1 -59.9 L96.3 -59.95 109.8 -58.95 112.1 -58.7 Q108.45 -60.5 104.5 -61.3 L93.85 -62.15 Q92.5 -62.1 91.25 -62.55 90.8 -62.75 90.7 -63.15 L90.45 -63.4 88.35 -63.35 83.7 -62.4 83.55 -62.35 83.7 -62.3 M108.0 -32.95 L108.0 -33.2 107.95 -33.4 107.95 -33.5 108.5 -34.1 109.85 -34.85 Q112.65 -34.85 114.35 -33.15 114.65 -32.8 114.55 -32.35 113.15 -30.6 110.7 -31.4 109.2 -31.9 108.0 -32.85 L108.0 -32.95 M113.5 -32.8 L113.45 -32.95 111.95 -33.5 110.2 -33.6 110.05 -33.85 109.8 -33.85 109.15 -33.4 109.05 -33.3 109.1 -33.25 Q111.0 -31.7 113.5 -32.8 M154.9 -15.05 L155.0 -15.2 155.05 -15.3 155.2 -15.3 155.6 -15.45 157.1 -15.95 Q164.25 -16.9 168.75 -11.95 169.7 -10.95 170.3 -9.75 171.45 -7.6 173.85 -6.75 178.1 -5.3 180.8 -1.75 183.25 1.4 184.7 5.1 L185.35 6.1 Q189.05 10.05 190.1 15.1 187.75 15.35 186.05 13.25 L182.75 9.45 Q181.9 7.75 180.6 6.25 178.4 3.6 175.9 1.3 171.65 -1.2 167.95 -4.5 167.5 -4.9 167.45 -5.55 167.1 -8.6 164.35 -10.35 L161.4 -12.45 Q158.45 -14.9 154.9 -14.95 L154.9 -15.05 M159.2 -15.0 Q163.8 -12.4 167.3 -8.4 168.1 -7.5 168.35 -6.3 168.95 -3.3 172.2 -2.15 L172.75 -1.9 Q179.0 2.0 183.3 8.25 L183.65 9.05 187.7 13.4 Q188.25 13.95 188.95 14.1 187.15 9.3 183.7 5.3 182.85 4.25 182.65 2.95 181.8 1.05 180.4 -0.6 179.75 -1.4 179.25 -2.3 175.9 -5.4 171.65 -7.15 169.5 -8.05 168.65 -10.2 167.45 -13.15 164.35 -14.3 161.85 -15.2 159.2 -15.0 M-253.6 -5.95 Q-259.4 -1.15 -262.55 5.6 -263.65 8.0 -263.95 10.5 -260.55 9.1 -258.95 5.5 -257.7 2.6 -255.15 0.75 -252.2 -1.4 -248.6 -2.3 -247.35 -2.6 -246.2 -3.25 L-245.8 -4.3 -245.5 -5.6 -245.45 -5.9 Q-243.45 -10.15 -239.7 -13.1 -235.85 -16.15 -231.85 -18.8 -231.55 -19.0 -231.8 -18.95 -239.2 -17.55 -245.15 -13.05 -248.65 -10.5 -251.8 -7.55 L-253.6 -5.95 M-171.75 -56.05 L-171.85 -55.95 -171.75 -55.95 Q-167.2 -55.65 -162.7 -56.75 L-161.95 -57.35 -162.65 -58.25 -163.5 -58.75 -164.9 -58.8 Q-168.65 -58.25 -171.75 -56.05 M-170.45 -58.2 Q-167.8 -59.45 -164.9 -59.9 -163.3 -59.85 -161.95 -59.05 L-161.8 -58.95 -161.1 -57.85 Q-160.75 -57.0 -161.4 -56.25 -164.35 -54.2 -168.15 -54.95 L-169.6 -54.95 Q-171.55 -54.5 -172.95 -55.45 -172.5 -57.25 -170.45 -58.2 M-230.6 -19.95 L-230.5 -19.9 Q-230.95 -17.15 -233.85 -16.0 L-235.25 -15.3 Q-241.05 -11.8 -244.05 -5.95 L-245.3 -3.3 Q-245.95 -1.9 -247.55 -1.55 -251.75 -0.55 -255.05 2.0 -256.95 3.45 -258.0 5.6 -259.5 8.75 -262.35 10.85 -263.1 11.4 -264.0 11.6 -265.7 10.25 -264.65 8.05 L-263.9 6.3 Q-261.45 -0.15 -256.25 -4.8 L-245.7 -13.95 Q-242.75 -16.4 -239.1 -17.7 L-231.25 -20.15 -230.6 -19.95 M-169.8 -9.85 L-169.15 -9.85 -168.95 -9.8 Q-166.75 -8.3 -163.95 -9.15 L-162.05 -9.3 -161.3 -8.8 -160.95 -8.45 Q-161.5 -6.0 -164.35 -5.05 -168.1 -3.8 -168.9 0.0 -169.45 2.85 -172.65 2.75 -174.4 2.7 -175.45 1.2 -178.5 -3.0 -175.2 -7.2 -173.9 -8.8 -171.9 -9.45 L-169.8 -9.85 M-169.3 -8.9 L-169.75 -8.9 -169.8 -8.85 -172.55 -8.25 -172.75 -8.15 Q-177.35 -5.1 -175.15 -0.15 L-174.2 1.15 -174.05 1.4 -170.95 1.45 -170.05 0.95 Q-169.2 -4.85 -163.45 -6.9 -162.5 -7.25 -161.95 -8.0 L-162.0 -8.1 -162.05 -8.15 -162.35 -8.3 -162.45 -8.4 Q-165.35 -7.95 -168.05 -8.4 -168.7 -8.55 -169.3 -8.9 M-80.65 -62.65 Q-77.65 -62.05 -77.75 -58.85 L-78.05 -57.35 Q-78.2 -57.1 -78.5 -56.95 L-78.85 -56.7 Q-83.25 -56.85 -82.55 -61.2 -82.4 -62.2 -81.35 -62.5 L-80.65 -62.65 M-79.1 -57.7 Q-78.25 -59.4 -79.35 -61.1 L-79.5 -61.35 -81.15 -61.65 -81.7 -61.1 -81.8 -61.0 Q-81.95 -59.5 -81.2 -58.3 L-81.05 -58.1 -79.1 -57.7 M-48.35 -13.15 L-49.55 -12.4 -49.65 -12.3 Q-48.35 -10.6 -45.8 -10.4 L-44.45 -10.3 Q-46.45 -11.3 -47.95 -12.95 L-48.35 -13.15 M-47.55 -13.2 Q-45.3 -11.0 -42.1 -10.6 L-39.0 -9.95 -39.1 -9.65 -39.2 -9.55 Q-45.35 -8.4 -50.15 -11.65 -50.6 -11.95 -50.55 -12.5 -49.25 -13.7 -47.6 -14.4 -47.3 -14.0 -47.5 -13.3 L-47.55 -13.2 M-29.6 -43.35 Q-29.35 -42.6 -29.85 -42.0 -30.85 -40.85 -32.45 -41.35 -34.8 -42.05 -35.95 -44.2 L-36.7 -46.25 Q-36.85 -46.85 -36.45 -47.35 L-33.0 -47.9 Q-32.55 -47.7 -32.5 -47.15 L-32.5 -47.05 -32.6 -46.7 -32.55 -46.6 Q-30.4 -45.4 -29.6 -43.35 M-30.6 -42.45 L-30.55 -42.55 -30.4 -43.1 -30.35 -43.45 -33.95 -46.65 -35.05 -46.75 -35.8 -46.45 -35.9 -46.4 -34.9 -44.5 -34.75 -44.15 Q-33.4 -42.45 -31.2 -42.25 L-30.6 -42.45 M-59.7 33.4 L-59.8 33.2 -59.8 33.1 Q-60.1 32.85 -60.4 32.9 L-60.55 33.15 -60.65 33.25 Q-60.7 34.75 -61.65 35.9 L-61.65 35.95 Q-60.0 37.5 -58.35 35.45 -58.3 34.75 -58.7 34.15 L-58.75 34.05 Q-58.95 34.0 -59.1 33.9 L-59.2 33.7 -59.25 33.6 -59.7 33.4 M-62.55 35.55 Q-61.65 34.35 -61.35 32.85 -61.25 32.1 -60.6 31.9 -57.05 32.55 -57.75 35.95 L-58.1 36.55 Q-60.65 38.9 -62.45 36.2 L-62.55 35.55 M-93.3 45.3 Q-92.1 47.05 -91.15 49.15 L-90.25 50.9 Q-88.75 53.25 -90.3 55.5 L-94.95 62.5 Q-95.7 63.75 -96.95 64.2 L-98.1 64.35 -98.25 64.25 -98.6 63.9 Q-97.95 60.8 -97.7 57.6 -97.45 54.75 -98.55 52.2 -98.95 51.25 -98.35 50.45 L-94.35 45.3 -94.2 45.25 -94.05 45.25 -94.05 45.2 -93.55 45.25 -93.3 45.3 M-93.95 46.2 Q-96.1 48.9 -97.6 51.85 L-97.6 52.45 Q-95.4 57.85 -97.7 63.3 -97.55 63.85 -96.8 63.3 L-90.5 54.3 -90.4 53.4 -90.35 53.1 -90.7 51.9 -90.75 51.6 Q-92.6 49.6 -93.35 47.0 L-93.4 46.55 Q-93.6 46.2 -93.95 46.2 M-142.6 23.7 Q-144.3 25.75 -146.9 25.65 L-147.3 25.3 -147.45 25.1 Q-147.0 21.7 -145.15 18.7 L-145.1 18.55 Q-144.3 17.15 -142.9 16.65 L-142.75 16.65 -142.55 16.7 Q-139.75 20.2 -142.6 23.7 M-146.35 24.6 Q-143.6 24.55 -142.55 21.85 -142.0 20.35 -142.2 18.75 L-142.7 17.9 Q-142.8 17.65 -142.95 17.75 L-143.5 18.1 -143.65 18.1 Q-145.4 21.05 -146.4 24.2 L-146.55 24.6 -146.35 24.6 M153.35 23.8 L153.55 23.5 153.85 23.4 Q155.0 23.6 155.45 24.75 L155.45 24.85 Q159.4 27.85 159.0 33.0 L158.95 33.85 Q156.8 35.25 155.0 32.85 153.6 31.05 153.6 28.65 L153.7 24.35 153.45 24.05 153.35 23.8 M154.65 25.25 L154.5 25.2 154.5 25.25 Q154.0 29.15 155.7 32.55 L155.8 32.65 Q156.8 33.35 157.9 33.5 158.65 28.4 154.65 25.25 M66.65 15.85 L66.65 15.75 66.9 15.45 67.35 15.2 Q71.35 15.55 73.45 19.15 L73.5 19.25 73.5 19.35 73.55 19.55 73.55 19.65 73.55 19.8 73.65 19.85 73.95 20.05 Q74.9 21.75 73.1 22.55 L70.95 22.6 Q67.7 21.2 66.9 17.6 L66.65 15.85 M72.8 21.8 L73.25 21.45 73.25 20.95 73.2 20.9 Q72.5 19.75 71.6 18.9 71.35 18.65 71.45 18.25 70.0 16.2 67.65 16.2 68.3 19.05 70.25 21.0 71.3 22.1 72.8 21.8" fill="#389cff" fill-rule="evenodd" stroke="none"/>
  </g>
</svg>
