<?xml version="1.0" encoding="UTF-8" standalone="no"?>
<svg xmlns:xlink="http://www.w3.org/1999/xlink" height="15.9px" width="35.25px" xmlns="http://www.w3.org/2000/svg">
  <g transform="matrix(1.0, 0.0, 0.0, 1.0, 10.45, 55.6)">
    <path d="M18.6 -55.6 L19.6 -53.45 19.65 -53.35 Q19.6 -52.45 18.9 -51.9 L18.75 -51.85 Q18.35 -51.85 18.1 -52.15 L18.15 -54.55 18.1 -54.8 18.45 -55.5 18.6 -55.6 M23.35 -44.75 L23.4 -44.65 Q24.7 -43.5 24.8 -41.75 L24.75 -41.4 Q23.3 -40.6 22.45 -42.15 22.5 -44.45 21.9 -46.45 L22.1 -46.8 Q22.45 -46.7 22.4 -46.35 L22.4 -46.2 Q23.1 -45.65 23.35 -44.75 M-6.7 -46.85 Q-6.85 -45.8 -7.55 -44.95 -7.7 -43.75 -8.7 -42.95 -8.65 -41.45 -9.05 -40.05 L-9.15 -39.8 -9.85 -39.75 -10.35 -40.25 Q-10.55 -41.05 -10.4 -41.8 L-10.4 -41.9 -10.4 -42.15 -10.4 -42.25 Q-8.25 -45.0 -7.05 -47.95 -6.65 -47.65 -6.7 -47.0 L-6.7 -46.85" fill="#dfefff" fill-rule="evenodd" stroke="none"/>
  </g>
</svg>
