<?xml version="1.0" encoding="UTF-8" standalone="no"?>
<svg xmlns:xlink="http://www.w3.org/1999/xlink" height="47.95px" width="134.2px" xmlns="http://www.w3.org/2000/svg">
  <g transform="matrix(1.0, 0.0, 0.0, 1.0, 63.1, 25.8)">
    <path d="M35.15 -25.3 Q35.7 -25.85 36.55 -25.75 L37.15 -25.75 Q54.5 -25.2 70.85 -20.0 L71.1 -19.85 35.0 -25.1 35.15 -25.3 M9.5 -24.95 Q-7.6 -25.5 -24.6 -24.0 -39.0 -22.85 -53.15 -20.0 L-63.1 -18.05 Q-58.55 -21.45 -52.0 -22.3 L-23.8 -25.15 -8.6 -25.7 9.4 -25.05 9.5 -24.95 M37.9 -21.55 L38.0 -21.45 Q14.15 -23.3 -9.9 -21.75 L-27.8 -20.1 -28.9 -20.1 Q-24.65 -22.1 -19.15 -22.55 L3.55 -23.75 29.95 -22.75 Q27.7 -23.15 25.95 -23.95 L34.05 -22.5 34.1 -22.4 31.75 -22.5 37.9 -21.55" fill="#dfefff" fill-rule="evenodd" stroke="none"/>
    <path d="M-11.55 22.15 L-12.7 22.15 -12.65 22.05 -12.65 22.0 -12.75 21.8 Q-12.35 18.65 -10.9 16.15 -12.9 15.35 -14.5 13.65 L-14.6 13.25 Q-14.6 12.95 -14.4 12.8 -8.8 10.8 -5.35 5.75 -1.9 0.7 3.85 -1.1 L3.55 -3.85 Q2.3 -6.15 3.8 -7.95 4.75 -9.15 6.25 -9.1 9.1 -7.8 10.15 -5.35 10.85 -3.7 10.75 -1.4 L10.7 -0.7 11.05 -0.4 11.1 -0.3 11.65 0.05 Q18.3 3.6 23.1 9.5 25.0 11.85 27.8 13.05 L31.35 14.7 Q30.7 17.05 28.25 18.6 L26.65 19.5 27.2 20.6 27.25 20.65 27.45 21.3 27.5 21.4 27.8 22.15 26.5 22.15 26.2 21.4 26.15 21.3 25.7 19.95 Q23.75 20.75 21.7 21.15 L22.2 22.15 21.4 22.15 21.0 21.25 20.45 21.3 20.4 22.15 19.5 22.15 19.5 20.65 Q19.35 14.6 17.25 8.95 16.15 6.1 14.35 3.8 12.75 1.75 10.65 0.2 L10.6 0.2 10.45 1.4 10.6 1.9 10.75 1.85 11.05 1.85 Q10.9 4.25 7.8 4.4 4.05 4.55 2.75 1.45 L2.75 1.15 Q2.9 0.9 3.2 0.95 L3.2 0.9 Q3.7 1.0 3.65 1.55 L3.65 1.65 4.1 2.05 3.9 -0.15 1.3 0.85 -0.45 2.25 -1.15 3.2 -1.25 3.25 Q-1.2 3.55 -1.45 3.75 L-1.55 3.85 Q-3.0 8.55 -5.3 12.9 L-6.5 15.1 -7.6 16.9 -7.75 17.1 -7.95 17.2 -7.95 17.3 -9.45 19.5 -11.2 21.65 -11.55 22.15 M5.35 22.15 L4.45 22.15 4.25 21.55 3.25 20.05 2.6 19.15 2.45 19.0 Q0.7 16.0 -2.05 17.9 L-2.7 18.5 Q-4.4 20.1 -5.3 22.15 L-11.4 22.15 -10.7 21.95 -8.85 21.6 -6.3 21.65 -6.2 21.65 Q-5.4 20.0 -4.2 18.55 L-4.15 18.45 -3.0 17.3 Q-2.3 16.6 -1.3 16.3 L-0.8 16.15 -0.3 16.0 1.3 16.4 1.75 16.65 1.95 16.75 2.75 17.7 3.4 18.55 3.95 19.45 5.35 22.15 M9.35 -3.65 L9.3 -3.85 Q9.05 -6.9 6.1 -7.95 5.3 -8.25 4.65 -7.75 3.7 -7.05 3.65 -6.0 L3.65 -5.95 3.7 -6.0 Q4.45 -3.65 4.75 -1.05 L4.85 2.6 Q7.15 4.1 9.7 2.4 L9.35 -3.65 M23.95 19.45 L25.55 18.8 Q25.65 18.55 25.95 18.6 L25.95 18.55 26.0 18.6 26.75 18.3 Q28.85 17.3 30.1 15.4 22.7 11.95 17.65 5.5 L17.55 5.4 17.4 5.1 17.3 4.9 14.85 2.95 Q15.85 4.05 16.65 5.4 L17.9 8.0 18.2 8.8 Q20.3 14.5 20.4 20.7 L23.95 19.45 M-2.35 4.05 L-2.3 3.9 -2.4 4.0 Q-5.8 7.05 -8.8 10.55 -10.5 12.6 -13.05 13.5 L-11.65 14.6 -11.4 14.75 -9.25 15.8 -8.35 16.15 -8.15 15.95 -8.1 15.75 -8.1 15.65 -7.9 15.4 -6.75 13.75 -6.35 12.95 -6.3 12.9 -5.15 10.5 Q-3.8 7.6 -2.75 4.65 L-2.7 4.45 -2.35 4.05 M-9.6 16.55 L-10.3 16.35 -11.35 19.95 -10.25 18.4 -8.85 16.7 -9.6 16.55 M-29.7 22.15 L-30.65 22.15 -29.1 19.25 Q-28.1 17.6 -26.65 16.5 L-26.6 16.5 Q-25.95 15.75 -25.1 15.4 L-24.6 15.2 Q-20.6 17.0 -18.6 20.75 L-18.4 19.55 -18.25 18.7 -17.95 18.45 -17.8 18.4 Q-15.95 20.65 -13.55 22.15 L-15.55 22.15 -16.9 20.7 -17.3 20.2 -17.65 22.15 -19.0 22.15 -19.2 21.75 Q-19.4 21.25 -19.8 20.9 -20.85 18.7 -22.8 17.2 L-23.7 16.5 -24.3 16.25 -24.45 16.2 Q-24.95 16.3 -25.3 16.6 L-26.1 17.25 -26.25 17.4 -26.45 17.6 Q-28.5 19.5 -29.7 22.1 L-29.7 22.15" fill="#000000" fill-rule="evenodd" stroke="none"/>
    <path d="M24.4 22.15 L22.2 22.15 21.7 21.15 Q23.75 20.75 25.7 19.95 L26.15 21.3 24.4 22.15 M3.0 22.15 L-0.35 22.15 -0.15 21.85 0.05 21.75 0.8 21.5 1.15 21.5 1.5 21.4 Q1.5 21.3 1.65 21.3 2.25 21.35 2.6 21.8 L2.9 22.1 3.0 22.15 M9.35 -3.65 L9.0 -3.2 8.2 -2.35 Q7.3 -1.5 6.1 -1.15 L5.25 -1.05 4.75 -1.05 Q4.45 -3.65 3.7 -6.0 L3.65 -6.0 Q3.7 -7.05 4.65 -7.75 5.3 -8.25 6.1 -7.95 9.05 -6.9 9.3 -3.85 L9.35 -3.65 M-10.25 18.4 L-9.6 16.55 -8.85 16.7 -10.25 18.4" fill="#0db5c8" fill-rule="evenodd" stroke="none"/>
    <path d="M26.5 22.15 L24.4 22.15 26.15 21.3 26.2 21.4 26.5 22.15 M4.45 22.15 L3.0 22.15 2.9 22.1 2.6 21.8 Q2.25 21.35 1.65 21.3 1.5 21.3 1.5 21.4 L1.15 21.5 0.8 21.5 0.05 21.75 -0.15 21.85 -0.35 22.15 -5.3 22.15 Q-4.4 20.1 -2.7 18.5 L-2.05 17.9 Q0.7 16.0 2.45 19.0 L2.6 19.15 3.25 20.05 4.25 21.55 4.45 22.15 M4.75 -1.05 L5.25 -1.05 6.1 -1.15 Q7.3 -1.5 8.2 -2.35 L9.0 -3.2 9.35 -3.65 9.7 2.4 Q7.15 4.1 4.85 2.6 L4.75 -1.05 M-10.25 18.4 L-11.35 19.95 -10.3 16.35 -9.6 16.55 -10.25 18.4 M-19.0 22.15 L-29.7 22.15 -29.7 22.1 Q-28.5 19.5 -26.45 17.6 L-26.25 17.4 -26.1 17.25 -25.3 16.6 Q-24.95 16.3 -24.45 16.2 L-24.3 16.25 -23.7 16.5 -22.8 17.2 Q-20.85 18.7 -19.8 20.9 -19.4 21.25 -19.2 21.75 L-19.0 22.15" fill="#0ecfe4" fill-rule="evenodd" stroke="none"/>
    <path d="M16.4 22.15 L14.35 22.15 12.9 21.05 Q10.85 19.6 8.55 18.5 6.4 17.45 4.05 16.85 L3.2 16.65 2.4 16.5 1.3 16.4 -0.3 16.0 -0.8 16.15 -1.3 16.3 -2.2 16.35 -4.5 16.5 -6.95 16.95 -7.95 17.3 -7.95 17.2 -7.75 17.1 -7.6 16.9 -6.5 15.1 -4.5 14.4 -2.95 14.1 -2.6 14.0 -0.8 13.95 -0.3 14.0 4.6 14.75 6.9 15.4 7.4 15.6 9.7 16.4 Q12.05 17.2 14.05 18.75 L14.85 19.25 16.6 20.65 16.5 21.3 16.4 22.15 M9.85 22.15 L5.35 22.15 3.95 19.45 4.95 19.8 7.25 20.8 7.9 21.1 8.45 21.4 9.85 22.15 M-11.4 22.15 L-11.55 22.15 -11.2 21.65 -9.45 19.5 -8.85 19.35 -8.1 19.15 Q-6.15 18.5 -4.15 18.45 L-4.2 18.55 Q-5.4 20.0 -6.2 21.65 L-6.3 21.65 -8.85 21.6 -10.7 21.95 -11.4 22.15 M-5.3 12.9 Q-3.0 8.55 -1.55 3.85 L-1.45 3.75 Q-1.2 3.55 -1.25 3.25 L-1.15 3.2 -0.45 2.25 1.3 0.85 3.9 -0.15 4.1 2.05 3.65 1.65 3.65 1.55 Q3.7 1.0 3.2 0.9 L3.2 0.95 Q2.9 0.9 2.75 1.15 L2.75 1.45 Q4.05 4.55 7.8 4.4 10.9 4.25 11.05 1.85 L10.75 1.85 10.6 1.9 10.45 1.4 10.6 0.2 10.65 0.2 Q12.75 1.75 14.35 3.8 L15.7 6.8 16.05 8.0 16.6 10.7 16.7 11.7 16.8 15.05 16.8 16.35 16.8 18.1 16.6 17.9 16.25 17.6 15.1 16.7 13.85 15.9 13.4 15.6 11.0 14.4 9.95 13.95 9.5 13.65 Q8.95 13.25 8.3 13.15 L7.65 12.95 4.95 12.5 3.55 12.25 -1.3 11.95 -3.5 12.35 -3.75 12.45 -4.1 12.55 -4.65 12.7 -5.3 12.9 M18.2 8.8 L17.9 8.0 16.65 5.4 Q15.85 4.05 14.85 2.95 L17.3 4.9 17.4 5.1 17.55 5.4 17.65 5.5 Q22.7 11.95 30.1 15.4 28.85 17.3 26.75 18.3 L26.0 18.6 25.95 18.55 25.95 18.6 Q25.65 18.55 25.55 18.8 L23.95 19.45 23.8 19.25 23.4 18.5 22.45 16.95 21.15 14.75 19.2 10.45 18.75 9.55 18.35 8.7 18.2 8.8 M-2.4 4.0 L-2.35 4.05 -2.7 4.45 -2.75 4.65 Q-3.8 7.6 -5.15 10.5 L-5.75 11.1 -6.5 11.8 Q-8.05 13.1 -9.75 14.1 L-11.4 14.75 -11.65 14.6 -13.05 13.5 Q-10.5 12.6 -8.8 10.55 -5.8 7.05 -2.4 4.0" fill="#f02d0b" fill-rule="evenodd" stroke="none"/>
    <path d="M19.5 22.15 L18.45 22.15 17.5 21.3 17.15 21.05 16.6 20.65 14.85 19.25 14.05 18.75 Q12.05 17.2 9.7 16.4 L7.4 15.6 6.9 15.4 4.6 14.75 -0.3 14.0 -0.8 13.95 -2.6 14.0 -2.95 14.1 -4.5 14.4 -6.5 15.1 -5.3 12.9 -4.65 12.7 -4.1 12.55 -3.75 12.45 -3.5 12.35 -1.3 11.95 3.55 12.25 4.95 12.5 7.65 12.95 8.3 13.15 Q8.95 13.25 9.5 13.65 L9.95 13.95 11.0 14.4 13.4 15.6 13.85 15.9 15.1 16.7 16.25 17.6 16.6 17.9 16.8 18.1 17.95 19.1 18.25 19.3 18.65 19.7 18.85 19.85 19.5 20.65 19.5 22.15 M14.35 22.15 L9.85 22.15 8.45 21.4 7.9 21.1 7.25 20.8 4.95 19.8 3.95 19.45 3.4 18.55 2.75 17.7 1.95 16.75 1.75 16.65 1.3 16.4 2.4 16.5 3.2 16.65 4.05 16.85 Q6.4 17.45 8.55 18.5 10.85 19.6 12.9 21.05 L14.35 22.15 M-9.45 19.5 L-7.95 17.3 -6.95 16.95 -4.5 16.5 -2.2 16.35 -1.3 16.3 Q-2.3 16.6 -3.0 17.3 L-4.15 18.45 Q-6.15 18.5 -8.1 19.15 L-8.85 19.35 -9.45 19.5" fill="#c62509" fill-rule="evenodd" stroke="none"/>
    <path d="M18.45 22.15 L16.4 22.15 16.5 21.3 16.6 20.65 17.15 21.05 17.5 21.3 18.45 22.15 M14.35 3.8 Q16.15 6.1 17.25 8.95 19.35 14.6 19.5 20.65 L18.85 19.85 18.65 19.7 18.25 19.3 17.95 19.1 16.8 18.1 16.8 16.35 16.8 15.05 16.7 11.7 16.6 10.7 16.05 8.0 15.7 6.8 14.35 3.8 M18.2 8.8 L18.35 8.7 18.75 9.55 19.2 10.45 21.15 14.75 22.45 16.95 23.4 18.5 23.8 19.25 23.95 19.45 20.4 20.7 Q20.3 14.5 18.2 8.8 M-5.15 10.5 L-6.3 12.9 -6.35 12.95 -6.75 13.75 -7.9 15.4 -8.1 15.65 -8.1 15.75 -8.15 15.95 -8.35 16.15 -9.25 15.8 -11.4 14.75 -9.75 14.1 Q-8.05 13.1 -6.5 11.8 L-5.75 11.1 -5.15 10.5" fill="#d6280a" fill-rule="evenodd" stroke="none"/>
    <path d="M-15.55 22.15 L-17.65 22.15 -17.3 20.2 -16.9 20.7 -15.55 22.15" fill="#666666" fill-rule="evenodd" stroke="none"/>
  </g>
</svg>
