<?xml version="1.0" encoding="UTF-8" standalone="no"?>
<svg xmlns:xlink="http://www.w3.org/1999/xlink" height="46.15px" width="113.25px" xmlns="http://www.w3.org/2000/svg">
  <g transform="matrix(1.0, 0.0, 0.0, 1.0, 54.3, 48.95)">
    <path d="M35.7 -40.55 L35.75 -40.75 35.65 -40.65 35.6 -40.65 Q32.2 -38.65 29.7 -35.2 L28.65 -34.2 Q25.0 -31.6 22.95 -27.95 24.85 -26.55 22.8 -24.6 L21.0 -22.9 Q18.45 -20.55 15.25 -20.8 L14.9 -20.8 14.85 -20.85 14.55 -21.25 14.55 -21.3 Q13.7 -22.8 14.75 -24.8 L15.1 -25.6 15.85 -27.8 15.9 -27.85 15.65 -27.9 Q12.8 -24.75 10.25 -21.3 9.4 -20.15 8.05 -19.5 5.95 -18.4 4.55 -20.25 L4.5 -20.65 4.5 -21.65 4.5 -21.75 4.25 -21.7 4.15 -21.6 3.65 -21.25 0.5 -17.35 0.4 -17.2 Q-0.85 -14.75 -3.0 -12.95 -4.3 -10.05 -8.25 -10.75 -9.65 -11.0 -10.55 -12.2 -13.2 -15.7 -14.55 -19.85 L-16.8 -25.95 -17.75 -28.05 Q-17.65 -25.05 -18.1 -22.05 -18.65 -18.7 -22.15 -18.15 L-23.85 -18.2 Q-25.4 -18.15 -26.5 -19.85 L-27.45 -21.25 Q-27.85 -21.8 -27.85 -22.5 L-28.65 -24.55 -28.8 -25.0 -28.7 -24.5 Q-28.3 -22.6 -28.85 -20.85 -29.05 -20.25 -29.65 -20.05 L-30.85 -20.0 Q-34.1 -22.7 -36.3 -26.3 L-36.35 -26.55 -36.35 -26.65 -36.95 -27.6 -37.0 -27.8 -37.5 -28.65 -37.55 -28.8 -38.45 -29.75 Q-39.55 -32.8 -41.45 -35.5 L-41.8 -36.2 Q-44.75 -41.0 -47.95 -45.5 L-48.1 -45.55 -49.8 -47.8 -50.1 -47.8 -50.05 -47.7 Q-48.5 -41.1 -44.75 -35.35 L-42.15 -31.25 Q-40.95 -29.3 -40.9 -26.95 L-41.05 -26.5 -41.15 -26.15 -41.3 -26.05 -41.35 -25.95 Q-41.95 -25.8 -42.55 -25.95 L-43.55 -26.15 -43.9 -26.35 -43.95 -26.45 -44.05 -26.6 -44.1 -26.7 -45.7 -28.2 -46.55 -28.85 -47.1 -28.8 -46.85 -28.55 -41.45 -22.65 Q-40.25 -21.2 -40.6 -19.7 -40.7 -19.4 -40.95 -19.25 -44.4 -19.45 -47.15 -21.85 L-48.45 -22.75 -50.35 -24.05 -50.95 -24.45 -50.95 -24.5 -51.0 -24.55 -51.05 -24.55 Q-52.35 -24.9 -53.4 -24.2 L-53.45 -24.1 Q-51.45 -21.7 -48.8 -19.65 L-46.45 -17.65 -40.6 -11.95 Q-34.3 -9.3 -27.4 -9.0 L-20.25 -8.55 -7.2 -7.55 2.6 -7.2 16.25 -7.9 21.65 -8.3 Q29.05 -8.7 36.1 -10.7 36.25 -11.15 36.75 -11.2 L36.85 -11.2 Q38.95 -13.65 41.75 -15.45 42.95 -16.2 43.7 -17.3 L43.65 -17.35 43.3 -17.6 43.2 -17.8 43.05 -18.25 Q45.2 -20.65 48.4 -22.0 51.3 -23.2 53.05 -25.65 50.35 -25.35 47.55 -23.95 45.15 -22.7 43.15 -20.95 40.2 -18.3 36.4 -17.2 33.6 -16.35 32.45 -18.55 31.65 -20.1 32.9 -21.45 L34.35 -23.25 Q32.55 -22.15 30.1 -21.55 27.25 -20.85 26.2 -23.35 25.4 -25.15 26.2 -27.1 28.35 -32.55 33.1 -35.85 34.7 -38.05 35.7 -40.55 M36.35 -41.8 L36.45 -41.7 Q36.8 -39.45 35.4 -37.3 L33.95 -35.3 Q33.55 -34.85 32.85 -34.75 27.75 -30.45 26.95 -24.05 26.9 -23.6 27.2 -23.2 L28.05 -22.4 Q31.35 -22.15 34.2 -24.15 35.0 -24.75 35.85 -24.45 L36.0 -24.1 35.95 -23.6 Q33.8 -21.65 33.25 -19.1 33.15 -18.65 33.6 -18.5 L38.05 -18.75 Q41.65 -20.3 44.6 -22.85 46.7 -24.65 49.4 -25.7 L52.15 -26.7 53.95 -26.6 Q53.95 -23.9 51.2 -22.4 L44.15 -18.35 Q45.35 -16.3 42.85 -14.75 L39.1 -12.05 37.05 -10.3 36.85 -9.95 36.55 -9.85 36.3 -9.65 36.05 -9.6 35.95 -9.7 Q27.55 -7.4 18.65 -7.0 L7.85 -6.6 Q-4.95 -6.2 -17.7 -7.2 L-21.3 -7.6 -27.15 -8.15 Q-32.5 -8.5 -37.65 -9.7 -40.05 -10.25 -41.9 -11.7 L-42.05 -12.1 -42.0 -12.15 Q-44.1 -13.75 -45.95 -15.7 L-48.45 -18.1 -49.1 -18.95 Q-52.1 -21.0 -54.2 -23.85 -54.4 -24.15 -54.2 -24.5 -53.7 -25.45 -52.55 -25.6 -50.4 -25.45 -48.9 -24.05 L-42.35 -20.3 -41.3 -20.35 Q-43.2 -24.25 -46.75 -26.85 -48.0 -27.75 -48.05 -29.25 L-48.0 -29.35 -47.3 -29.85 -46.4 -29.85 -46.2 -29.8 Q-44.45 -28.3 -42.55 -27.05 L-42.3 -26.9 -42.0 -27.05 Q-41.9 -28.0 -42.2 -28.9 L-42.55 -29.85 -48.15 -39.55 -48.3 -40.25 -49.35 -42.2 -49.7 -42.8 -50.9 -46.9 -50.95 -48.15 -50.35 -48.85 -50.1 -48.95 Q-48.65 -48.25 -47.95 -47.05 -43.7 -41.55 -40.25 -35.55 L-37.95 -31.3 Q-37.75 -30.35 -37.0 -29.65 L-36.75 -29.45 Q-35.2 -25.4 -32.0 -22.6 L-31.8 -22.5 -30.55 -21.0 -30.5 -20.95 -29.8 -20.95 -29.4 -21.45 -29.35 -21.5 -29.95 -25.25 -29.9 -26.3 -28.9 -26.4 -28.25 -25.95 Q-27.65 -24.95 -27.35 -23.8 L-27.3 -23.3 Q-26.9 -22.9 -26.85 -22.3 L-26.8 -22.0 Q-25.75 -20.45 -24.25 -19.25 L-23.7 -19.1 -22.55 -19.05 Q-20.0 -19.15 -19.05 -22.0 -18.3 -24.1 -18.75 -26.45 -19.1 -28.15 -17.85 -29.05 L-17.6 -29.0 -17.45 -28.95 -17.25 -28.8 -17.05 -28.6 -16.95 -28.35 -16.8 -28.05 Q-14.85 -24.15 -13.85 -19.9 -13.6 -18.85 -13.0 -17.8 L-11.2 -14.4 Q-9.6 -11.05 -5.8 -11.45 L-3.55 -13.35 Q-0.15 -18.15 3.85 -22.35 L5.2 -22.45 5.45 -21.45 Q5.35 -20.95 5.6 -20.5 L5.9 -20.3 6.55 -20.05 Q11.0 -22.05 13.25 -26.55 14.0 -28.05 15.4 -28.9 L16.2 -28.85 16.45 -28.8 Q17.15 -27.15 16.15 -25.3 15.2 -23.6 15.3 -21.95 L15.35 -21.9 15.55 -21.55 Q20.3 -22.25 22.85 -26.45 L22.9 -26.55 22.9 -26.65 22.95 -26.85 22.15 -27.5 22.05 -27.6 Q22.25 -30.3 24.6 -32.1 29.3 -35.65 33.1 -40.0 L33.85 -40.75 Q34.7 -41.55 35.75 -41.85 L36.35 -41.8 M17.2 -45.65 Q13.95 -39.1 9.5 -33.3 L7.9 -31.35 7.6 -31.1 7.1 -31.15 6.8 -31.05 6.65 -31.15 6.6 -31.2 6.55 -31.3 Q6.6 -31.85 6.9 -32.25 L7.05 -32.6 7.15 -32.7 7.25 -32.8 Q8.5 -39.15 12.0 -44.55 12.9 -45.95 14.3 -46.55 L15.85 -47.1 Q17.1 -47.0 17.2 -45.75 L17.2 -45.65 M16.1 -46.05 L14.9 -45.95 Q12.6 -44.5 11.35 -41.9 L11.1 -41.6 Q9.35 -37.4 8.25 -33.05 10.35 -35.2 11.9 -37.85 14.2 -41.8 16.1 -45.85 L16.1 -46.05 M-0.1 -4.05 L-0.1 -3.95 Q-2.5 -2.75 -5.6 -2.8 -10.4 -2.85 -15.0 -4.05 L-16.7 -4.7 -16.5 -4.9 -16.1 -5.0 -16.0 -5.05 -2.4 -4.55 -0.55 -4.5 -0.2 -4.2 -0.1 -4.05 M17.65 -4.45 L17.6 -4.55 Q27.1 -5.95 36.65 -8.25 39.2 -8.85 41.4 -9.95 L41.2 -10.2 40.1 -10.8 39.05 -10.95 Q38.9 -11.0 38.95 -11.2 L39.15 -11.4 40.25 -11.55 Q42.55 -11.55 44.5 -10.35 L44.65 -10.25 Q45.1 -7.95 42.35 -7.15 L36.85 -5.5 34.65 -5.1 20.15 -4.0 Q18.8 -3.9 17.65 -4.45 M29.15 -5.65 Q33.75 -5.7 38.8 -6.85 41.9 -7.55 44.1 -9.45 43.5 -10.45 42.2 -10.4 42.15 -8.3 39.45 -7.85 L37.05 -7.3 29.15 -5.65 M58.95 -40.15 Q58.75 -37.65 56.3 -35.85 55.8 -35.45 55.6 -34.85 54.9 -32.4 52.8 -30.7 49.45 -28.0 45.4 -27.45 L45.3 -27.65 45.3 -27.85 45.3 -27.95 Q49.05 -31.55 52.0 -36.0 53.25 -37.9 55.15 -39.1 L58.05 -40.5 58.85 -40.25 58.95 -40.15 M48.25 -29.55 L47.7 -28.95 48.45 -29.2 Q52.25 -30.85 54.6 -34.35 55.0 -36.8 57.15 -38.4 57.95 -38.95 57.95 -39.45 52.3 -36.75 49.3 -31.15 L48.25 -29.55 M-46.4 -12.5 L-45.4 -12.95 Q-44.95 -12.25 -46.3 -11.55 L-46.35 -11.5 Q-44.4 -9.3 -41.15 -8.65 -34.95 -7.45 -28.6 -6.95 L-25.55 -6.45 -24.65 -6.35 Q-24.45 -6.35 -24.4 -6.15 L-24.7 -6.1 -24.9 -5.9 -25.0 -5.85 -26.5 -5.85 Q-34.85 -4.95 -43.2 -6.8 -46.4 -7.5 -49.25 -8.95 L-49.55 -9.6 -49.65 -9.8 -49.65 -10.45 -49.65 -10.65 Q-48.25 -12.0 -46.5 -12.75 L-46.4 -12.5 M-47.3 -11.3 L-47.5 -11.2 -48.85 -10.2 -48.45 -9.45 -48.4 -9.4 Q-41.85 -6.6 -34.75 -6.6 -39.95 -7.45 -44.95 -9.2 -46.5 -9.75 -47.3 -11.15 L-47.3 -11.3 M-12.05 -3.95 L-5.5 -3.6 -4.5 -3.7 -12.05 -3.95" fill="#389cff" fill-rule="evenodd" stroke="none"/>
    <path d="M35.65 -40.65 L35.7 -40.55 35.6 -40.65 35.65 -40.65 M48.45 -29.2 L48.25 -29.55 48.45 -29.2" fill="#aad5ff" fill-rule="evenodd" stroke="none"/>
    <path d="M35.6 -40.65 L35.7 -40.55 Q34.7 -38.05 33.1 -35.85 28.35 -32.55 26.2 -27.1 25.4 -25.15 26.2 -23.35 27.25 -20.85 30.1 -21.55 32.55 -22.15 34.35 -23.25 L32.9 -21.45 Q31.65 -20.1 32.45 -18.55 33.6 -16.35 36.4 -17.2 40.2 -18.3 43.15 -20.95 45.15 -22.7 47.55 -23.95 50.35 -25.35 53.05 -25.65 51.3 -23.2 48.4 -22.0 45.2 -20.65 43.05 -18.25 L43.2 -17.8 43.3 -17.6 43.65 -17.35 43.7 -17.3 Q42.95 -16.2 41.75 -15.45 38.95 -13.65 36.85 -11.2 L36.75 -11.2 Q36.25 -11.15 36.1 -10.7 29.05 -8.7 21.65 -8.3 L16.25 -7.9 2.6 -7.2 -7.2 -7.55 -20.25 -8.55 -27.4 -9.0 Q-34.3 -9.3 -40.6 -11.95 L-46.45 -17.65 -48.8 -19.65 Q-51.45 -21.7 -53.45 -24.1 L-53.4 -24.2 Q-52.35 -24.9 -51.05 -24.55 L-51.0 -24.55 -50.95 -24.5 -50.95 -24.45 -50.35 -24.05 -48.45 -22.75 -47.15 -21.85 Q-44.4 -19.45 -40.95 -19.25 -40.7 -19.4 -40.6 -19.7 -40.25 -21.2 -41.45 -22.65 L-46.85 -28.55 -46.55 -28.85 -45.7 -28.2 -44.1 -26.7 -44.05 -26.6 -43.95 -26.45 -43.9 -26.35 -43.55 -26.15 -42.55 -25.95 Q-41.95 -25.8 -41.35 -25.95 L-41.3 -26.05 -41.15 -26.15 -41.05 -26.5 -40.9 -26.95 Q-40.95 -29.3 -42.15 -31.25 L-44.75 -35.35 Q-48.5 -41.1 -50.05 -47.7 L-49.8 -47.8 -48.1 -45.55 -47.95 -45.5 Q-44.75 -41.0 -41.8 -36.2 L-41.45 -35.5 Q-39.55 -32.8 -38.45 -29.75 L-37.55 -28.8 -37.5 -28.65 -37.0 -27.8 -36.95 -27.6 -36.35 -26.65 -36.35 -26.55 -36.3 -26.3 Q-34.1 -22.7 -30.85 -20.0 L-29.65 -20.05 Q-29.05 -20.25 -28.85 -20.85 -28.3 -22.6 -28.7 -24.5 L-28.65 -24.55 -27.85 -22.5 Q-27.85 -21.8 -27.45 -21.25 L-26.5 -19.85 Q-25.4 -18.15 -23.85 -18.2 L-22.15 -18.15 Q-18.65 -18.7 -18.1 -22.05 -17.65 -25.05 -17.75 -28.05 L-16.8 -25.95 -14.55 -19.85 Q-13.2 -15.7 -10.55 -12.2 -9.65 -11.0 -8.25 -10.75 -4.3 -10.05 -3.0 -12.95 -0.85 -14.75 0.4 -17.2 L0.5 -17.35 3.65 -21.25 4.15 -21.6 4.25 -21.7 4.5 -21.75 4.5 -21.65 4.5 -20.65 4.55 -20.25 Q5.95 -18.4 8.05 -19.5 9.4 -20.15 10.25 -21.3 12.8 -24.75 15.65 -27.9 L15.85 -27.8 15.1 -25.6 14.75 -24.8 Q13.7 -22.8 14.55 -21.3 L14.55 -21.25 14.85 -20.85 14.9 -20.8 15.25 -20.8 Q18.45 -20.55 21.0 -22.9 L22.8 -24.6 Q24.85 -26.55 22.95 -27.95 25.0 -31.6 28.65 -34.2 L29.7 -35.2 Q32.2 -38.65 35.6 -40.65 M16.1 -46.05 L16.1 -45.85 Q14.2 -41.8 11.9 -37.85 10.35 -35.2 8.25 -33.05 9.35 -37.4 11.1 -41.6 L11.35 -41.9 Q12.6 -44.5 14.9 -45.95 L16.1 -46.05 M48.45 -29.2 L48.25 -29.55 49.3 -31.15 Q52.3 -36.75 57.95 -39.45 57.95 -38.95 57.15 -38.4 55.0 -36.8 54.6 -34.35 52.25 -30.85 48.45 -29.2" fill="#dfefff" fill-rule="evenodd" stroke="none"/>
  </g>
</svg>
