<?xml version="1.0" encoding="UTF-8" standalone="no"?>
<svg xmlns:xlink="http://www.w3.org/1999/xlink" height="117.55px" width="356.3px" xmlns="http://www.w3.org/2000/svg">
  <g transform="matrix(1.0, 0.0, 0.0, 1.0, 190.5, 115.9)">
    <path d="M18.35 -65.35 Q18.05 -64.65 17.3 -65.0 16.75 -65.6 17.25 -66.1 L17.45 -66.25 17.6 -66.25 17.85 -66.15 18.3 -65.55 18.35 -65.35 M11.05 -69.35 Q12.35 -69.5 12.7 -68.45 L12.7 -68.35 Q11.2 -67.55 10.4 -69.1 L10.5 -69.2 10.75 -69.25 11.05 -69.35 M4.5 -68.85 Q3.85 -68.35 2.9 -68.2 1.5 -66.65 -0.3 -67.15 L-0.35 -67.2 Q0.9 -69.35 3.65 -69.1 L4.0 -69.2 4.45 -68.95 4.5 -68.85" fill="#dfefff" fill-rule="evenodd" stroke="none"/>
    <path d="M106.2 -103.0 Q108.9 -103.45 110.4 -101.6 111.05 -100.85 110.4 -100.05 108.7 -98.0 106.0 -97.45 98.65 -95.9 91.75 -93.1 88.95 -92.0 86.4 -90.3 L85.15 -89.35 85.6 -89.25 85.95 -89.15 86.7 -88.85 Q88.5 -86.1 85.2 -84.6 81.45 -82.9 78.3 -80.25 75.75 -78.1 72.65 -76.75 69.95 -75.55 67.7 -73.6 65.65 -71.8 63.1 -71.2 L62.55 -71.1 62.45 -71.2 62.45 -71.35 62.55 -71.45 63.65 -72.65 64.95 -73.8 Q68.75 -79.6 74.7 -83.65 76.55 -85.0 75.7 -87.05 72.5 -87.75 69.5 -86.2 65.9 -84.3 62.45 -82.0 L59.0 -79.45 Q55.95 -76.95 52.3 -75.4 L49.95 -73.95 44.9 -69.7 44.45 -69.1 Q44.25 -68.8 43.9 -68.95 L44.15 -69.5 44.1 -69.6 44.1 -69.8 44.4 -70.1 Q45.65 -72.95 47.9 -75.5 L54.2 -82.0 Q58.5 -85.95 63.65 -88.7 69.55 -91.85 75.35 -95.2 79.3 -97.45 83.75 -98.35 91.95 -99.95 100.1 -102.05 L105.95 -102.95 106.2 -103.0 M109.7 -101.15 L109.6 -101.4 109.55 -101.55 Q102.9 -102.45 96.4 -100.25 91.4 -98.55 86.15 -97.85 79.25 -96.9 73.35 -93.3 L58.05 -83.9 Q55.4 -82.25 53.3 -79.9 L47.6 -73.15 Q50.2 -75.35 53.3 -76.9 L56.2 -78.55 Q59.45 -80.7 62.5 -83.2 L63.8 -84.15 Q68.45 -86.95 73.6 -88.35 75.1 -88.6 76.35 -87.75 L76.45 -87.7 Q77.85 -84.15 74.45 -82.0 71.6 -80.25 69.3 -77.8 L65.7 -73.65 Q70.65 -77.0 75.85 -80.0 L78.1 -81.45 Q81.45 -83.8 85.1 -85.6 87.1 -86.6 85.95 -88.1 L85.45 -88.2 Q84.8 -88.2 84.3 -88.55 L84.0 -88.85 Q84.8 -91.05 87.25 -92.15 95.3 -95.8 103.85 -97.7 107.1 -98.4 109.65 -100.3 L109.7 -100.4 109.7 -100.5 109.75 -100.6 109.8 -100.75 109.85 -100.85 109.85 -100.95 109.75 -101.05 109.7 -101.15 M12.7 -103.6 Q17.7 -108.75 23.5 -112.9 L24.1 -113.3 24.2 -113.45 26.3 -114.6 26.95 -114.95 27.1 -114.9 28.35 -115.25 Q31.1 -115.45 30.5 -113.1 30.3 -112.35 29.75 -111.75 27.1 -108.8 23.65 -106.6 22.25 -105.75 21.1 -104.5 15.9 -99.05 13.55 -92.0 L11.65 -86.95 9.25 -79.6 Q8.7 -77.9 7.8 -76.35 7.55 -75.4 7.0 -74.6 L6.0 -73.45 5.85 -73.45 5.25 -73.6 Q4.9 -76.05 5.4 -78.65 5.7 -80.0 4.95 -81.0 L4.8 -81.1 4.05 -81.25 3.5 -80.8 3.15 -80.5 Q1.15 -77.75 -0.55 -74.8 -1.15 -73.8 -1.4 -72.65 L-2.45 -65.5 -2.8 -63.9 -5.8 -54.9 -6.45 -49.7 -6.95 -49.8 -6.9 -53.2 -7.05 -53.35 -6.85 -54.55 Q-6.65 -58.95 -5.75 -63.3 -5.4 -65.0 -6.55 -66.0 -8.85 -63.8 -9.8 -60.5 -10.0 -59.9 -10.55 -59.7 -10.9 -59.65 -11.1 -59.95 -10.6 -65.25 -8.0 -70.15 -6.1 -73.75 -4.95 -77.65 L-4.15 -79.45 -3.4 -81.25 -3.35 -81.4 -3.2 -81.7 -3.1 -81.8 -3.05 -81.95 -3.05 -82.15 -2.9 -82.35 -2.8 -82.45 -2.05 -84.05 Q-1.2 -85.75 0.75 -86.6 L1.4 -86.7 1.55 -86.6 1.65 -86.55 Q3.9 -86.75 4.5 -88.85 5.85 -90.65 5.25 -92.6 L5.15 -92.8 Q5.3 -94.45 6.2 -95.65 L6.8 -96.7 7.5 -97.85 11.65 -102.7 12.7 -103.6 M6.9 -76.65 L9.55 -83.25 10.75 -87.35 10.8 -87.45 10.9 -87.5 11.05 -87.6 Q12.35 -92.4 14.7 -96.9 L17.25 -101.5 Q21.55 -107.25 27.65 -111.05 28.8 -111.75 29.55 -112.9 L29.9 -113.6 29.85 -113.7 29.7 -113.95 29.55 -114.15 26.65 -113.7 26.6 -113.65 Q20.25 -109.65 14.75 -104.45 10.55 -100.45 7.35 -95.75 L6.6 -94.35 6.55 -94.25 Q6.1 -93.9 6.05 -93.3 L6.2 -93.0 6.3 -92.95 Q6.8 -89.7 4.5 -86.95 3.05 -85.2 0.85 -85.8 L-0.85 -84.15 -1.15 -83.4 Q-4.1 -77.5 -6.5 -71.35 L-8.9 -65.3 -9.15 -64.4 -8.7 -65.25 Q-7.8 -66.7 -6.1 -66.95 -5.35 -66.55 -4.95 -65.8 -4.8 -62.9 -5.1 -60.0 -2.95 -65.95 -2.35 -72.3 -2.1 -75.1 -0.45 -77.35 L2.2 -80.55 Q2.6 -81.75 3.6 -82.0 L3.6 -82.05 3.65 -82.05 5.55 -81.85 Q7.0 -79.6 6.4 -76.9 L5.9 -74.85 6.9 -76.65 M46.1 -39.35 Q48.85 -42.65 51.95 -45.55 L54.95 -48.0 57.05 -49.25 Q60.0 -48.1 58.7 -45.05 L58.45 -44.0 64.25 -48.5 Q69.1 -52.5 73.6 -56.9 L77.3 -60.0 82.55 -64.15 85.55 -66.35 Q78.55 -64.15 72.3 -60.15 69.4 -58.3 67.1 -60.3 66.85 -60.45 66.95 -60.8 67.4 -62.15 68.3 -63.3 L59.5 -55.85 Q53.9 -50.9 49.5 -45.15 L45.65 -39.6 43.65 -36.2 46.1 -39.35 M86.35 -67.3 L86.65 -67.0 86.7 -66.95 Q86.0 -64.75 83.45 -63.7 L82.05 -62.8 Q78.5 -59.2 74.35 -56.25 L72.3 -54.55 Q68.15 -50.3 63.45 -46.65 L60.6 -44.05 Q59.45 -42.85 57.9 -42.85 57.15 -44.75 58.0 -46.9 L57.95 -47.6 Q57.75 -48.1 57.1 -48.2 50.9 -44.5 46.85 -38.5 L46.35 -38.1 42.3 -32.6 41.6 -31.85 40.75 -30.45 39.55 -27.9 39.3 -27.7 39.2 -27.55 Q38.95 -27.65 38.9 -28.05 L38.85 -28.1 39.2 -29.2 39.15 -29.3 39.15 -29.5 39.45 -29.95 Q40.5 -33.15 42.05 -36.15 42.95 -37.8 44.25 -39.1 47.4 -43.95 51.0 -48.35 54.4 -52.5 58.35 -56.1 64.95 -62.15 72.0 -67.45 73.1 -68.3 74.35 -68.95 L74.6 -69.2 74.7 -69.15 75.05 -69.35 Q75.4 -68.5 74.25 -67.65 73.35 -66.55 71.95 -65.85 L71.95 -65.75 71.9 -65.55 Q69.55 -63.7 68.0 -61.15 L67.85 -60.6 Q70.65 -59.75 73.3 -61.6 78.9 -65.45 85.4 -67.2 L86.35 -67.3 M86.15 -53.35 L86.4 -53.75 86.45 -53.9 92.3 -60.3 94.05 -62.15 Q97.1 -65.1 100.4 -67.55 L102.75 -68.85 Q105.7 -70.0 107.75 -72.3 108.15 -72.8 108.1 -73.45 104.9 -74.35 101.55 -73.05 100.55 -72.7 99.95 -73.35 L99.95 -73.5 100.1 -73.7 Q101.7 -74.35 103.1 -75.15 L106.65 -77.2 Q111.45 -79.9 116.7 -81.65 L123.05 -83.65 Q130.45 -85.95 138.1 -87.35 L143.95 -88.2 149.35 -88.65 Q156.75 -88.55 163.95 -87.15 165.0 -86.95 165.75 -86.4 L165.75 -86.3 Q165.9 -85.8 165.5 -85.4 L164.45 -84.7 Q163.8 -84.5 163.2 -84.1 L148.0 -83.05 Q141.0 -82.6 134.4 -80.7 L132.45 -79.9 Q134.4 -80.3 135.9 -79.4 136.05 -77.1 133.6 -76.5 128.45 -75.15 123.45 -73.35 L116.0 -70.75 Q109.1 -68.5 102.8 -64.85 97.25 -61.65 92.55 -57.35 90.6 -55.55 88.5 -54.3 L86.7 -52.9 86.25 -52.95 86.2 -53.05 86.15 -53.35 M31.7 -82.7 L31.85 -82.7 32.05 -82.65 Q32.65 -80.9 31.8 -79.0 31.15 -77.55 31.1 -75.9 30.95 -68.4 27.4 -61.85 26.25 -59.8 26.0 -57.5 L25.55 -55.0 Q24.4 -52.05 21.45 -51.6 L20.6 -51.2 Q16.25 -47.95 14.5 -43.1 L14.5 -43.05 12.75 -36.95 12.7 -36.85 Q12.3 -36.5 11.9 -36.85 12.15 -41.85 13.6 -46.65 L13.55 -46.7 16.6 -56.9 Q17.3 -59.5 19.3 -61.35 L21.8 -61.3 Q24.35 -64.1 25.5 -67.85 L26.25 -70.0 Q28.85 -75.2 30.5 -80.8 L30.7 -81.35 30.95 -81.75 30.95 -81.85 30.95 -82.05 31.55 -82.65 31.7 -82.7 M30.4 -77.95 L30.75 -79.45 30.25 -78.0 Q29.5 -74.4 28.05 -71.05 26.05 -66.25 23.5 -61.8 23.0 -60.95 22.15 -60.35 21.7 -60.2 21.2 -60.35 L20.85 -60.85 Q20.0 -60.9 19.3 -60.2 16.2 -55.2 15.25 -49.3 L14.75 -47.5 13.9 -43.95 Q14.45 -45.45 15.3 -46.9 16.6 -49.05 18.4 -50.8 L20.1 -52.25 Q21.35 -53.15 22.9 -52.95 25.15 -55.4 25.3 -58.85 25.35 -59.6 25.7 -60.35 L25.7 -60.55 Q29.8 -67.0 30.0 -74.7 30.05 -76.4 30.4 -77.95 M17.15 -13.4 Q19.55 -11.5 23.0 -12.15 L25.45 -12.5 Q28.95 -12.7 31.1 -15.3 33.35 -15.45 33.85 -13.15 38.6 -10.5 44.0 -10.2 L44.5 -10.2 45.1 -10.2 45.2 -10.15 45.2 -9.9 45.45 -9.75 45.55 -9.5 45.5 -9.3 45.3 -9.15 45.2 -9.05 47.9 -9.1 Q53.15 -10.0 57.45 -12.9 L57.9 -13.45 57.4 -14.2 56.75 -14.75 56.65 -14.85 Q56.5 -15.45 57.05 -15.8 57.7 -16.2 58.45 -16.45 L58.5 -16.6 58.6 -16.7 58.7 -16.8 58.55 -17.0 58.5 -17.2 58.45 -17.35 Q55.8 -19.5 52.2 -19.6 49.4 -19.65 47.2 -20.85 L47.3 -21.05 47.4 -21.2 47.6 -21.3 48.1 -21.2 49.2 -21.45 50.7 -21.45 Q56.4 -21.8 61.65 -19.75 64.95 -18.45 64.1 -15.45 63.9 -14.55 63.15 -13.9 L63.0 -13.55 62.8 -13.05 61.65 -12.05 Q63.4 -11.9 64.85 -12.7 L65.85 -13.05 66.2 -13.45 66.65 -13.75 Q67.2 -14.0 67.6 -14.45 L67.7 -15.2 Q67.8 -15.85 67.55 -16.45 67.25 -17.15 67.55 -17.75 L67.65 -17.8 68.05 -17.8 68.2 -17.7 68.35 -17.45 68.4 -17.35 Q69.9 -16.2 69.85 -14.35 L69.8 -12.45 69.85 -12.4 69.95 -12.3 Q70.0 -10.2 67.5 -9.55 L63.6 -8.35 Q56.35 -5.5 48.65 -4.4 L41.9 -3.3 Q35.1 -1.95 28.1 -1.4 25.55 -1.2 22.95 -1.3 L14.45 -1.15 13.2 -1.15 Q7.9 -1.0 2.65 -1.2 -1.95 -0.7 -6.4 -1.75 L-6.75 -1.75 -9.7 -1.6 Q-7.25 -1.45 -4.6 -0.5 L-4.15 -0.1 Q-5.35 1.25 -7.45 1.35 -18.9 2.1 -30.25 0.85 L-45.4 -0.8 -47.95 -1.1 -51.1 -1.2 -51.5 -1.7 -51.5 -1.8 Q-51.15 -2.6 -50.3 -2.95 L-48.2 -3.3 -56.95 -4.25 -67.7 -5.85 Q-71.7 -6.65 -74.7 -9.05 L-74.75 -9.05 -75.1 -9.05 Q-77.6 -12.3 -74.5 -14.9 -71.7 -17.3 -67.9 -17.3 -63.35 -20.35 -57.8 -20.25 L-56.25 -20.45 Q-52.95 -21.4 -49.5 -21.4 L-48.85 -21.5 Q-47.7 -21.7 -46.95 -20.9 L-46.9 -20.85 Q-48.2 -18.95 -50.95 -18.8 -55.05 -18.55 -58.85 -17.1 -62.2 -15.9 -65.3 -14.2 L-65.45 -14.0 -65.8 -13.45 -65.9 -13.2 -65.75 -12.75 -64.8 -11.8 Q-60.05 -11.45 -55.4 -12.5 -52.3 -13.15 -49.7 -11.5 -45.5 -8.8 -40.4 -8.25 L-39.1 -7.9 Q-32.9 -5.25 -26.05 -5.3 L-24.05 -5.3 -17.2 -5.25 -15.85 -5.6 -15.75 -5.7 -15.7 -5.8 -15.65 -5.9 Q-20.4 -8.7 -26.2 -9.65 L-29.7 -10.5 Q-31.4 -11.45 -31.05 -13.3 -29.35 -14.1 -27.8 -15.15 -25.55 -16.7 -25.15 -19.4 L-24.6 -19.95 -21.9 -20.45 -20.6 -22.8 Q-20.85 -28.8 -22.35 -34.55 -22.75 -36.1 -22.65 -37.65 -22.55 -38.55 -22.05 -39.35 L-21.85 -39.55 Q-19.5 -40.0 -18.2 -37.9 -15.05 -38.1 -14.35 -41.4 L-13.95 -44.05 -14.0 -46.6 -13.75 -47.4 -13.65 -47.45 -13.45 -46.9 -13.4 -46.95 Q-10.85 -42.2 -10.2 -36.65 -9.75 -33.0 -13.35 -32.85 -14.4 -34.45 -16.15 -34.8 -17.3 -35.0 -17.85 -33.95 -18.95 -31.8 -18.15 -29.35 -16.9 -25.3 -16.2 -21.15 L-15.65 -17.95 Q-13.6 -12.75 -8.05 -13.05 -5.75 -16.1 -2.05 -16.5 L-1.15 -16.35 2.25 -14.7 Q4.35 -13.45 6.9 -13.7 L15.05 -15.7 16.35 -15.8 Q18.05 -15.0 17.15 -13.4 M16.45 -14.4 L16.1 -14.85 8.2 -13.1 6.75 -12.8 Q4.2 -12.45 2.15 -13.7 0.4 -14.4 -1.25 -15.35 L-3.3 -15.4 Q-5.6 -14.4 -7.45 -12.6 -8.35 -11.75 -9.65 -12.0 -16.05 -13.35 -17.1 -19.7 L-19.15 -31.75 Q-19.65 -34.8 -16.7 -35.8 -16.0 -36.05 -15.25 -35.8 -13.8 -35.4 -13.2 -33.9 -11.9 -33.6 -11.25 -34.8 -11.3 -39.6 -13.05 -44.05 -13.1 -42.55 -13.75 -41.0 L-13.8 -40.9 Q-14.5 -36.8 -18.6 -37.0 -19.55 -37.65 -20.2 -38.65 L-21.15 -38.7 Q-22.45 -36.7 -21.25 -34.2 -20.7 -32.95 -20.6 -31.6 -20.45 -28.8 -19.85 -26.15 -19.15 -23.05 -20.7 -20.35 -21.9 -18.85 -24.1 -19.05 L-24.55 -18.9 Q-25.2 -14.1 -30.1 -12.9 -30.0 -11.1 -27.8 -10.65 L-23.6 -9.95 Q-18.55 -9.15 -14.85 -6.15 L-14.6 -5.9 -14.4 -5.55 -14.4 -5.45 -14.45 -5.35 -14.5 -5.3 -14.65 -5.1 -14.7 -5.1 -14.8 -5.05 -15.05 -4.85 -15.35 -4.75 -17.15 -4.25 Q-27.5 -3.55 -37.35 -6.45 L-40.3 -7.3 -45.8 -8.7 Q-48.5 -9.3 -50.8 -10.7 -53.5 -12.3 -56.65 -11.5 L-61.3 -10.5 Q-65.0 -9.9 -66.55 -12.65 -67.0 -13.45 -66.4 -14.15 -64.75 -15.9 -62.45 -16.85 L-57.95 -18.45 Q-54.45 -19.55 -50.8 -20.0 -54.4 -20.3 -58.4 -19.25 L-61.85 -18.6 Q-64.85 -18.25 -67.4 -16.7 -68.4 -16.1 -69.65 -16.05 -74.1 -15.85 -75.1 -11.95 -75.3 -11.4 -75.05 -10.85 -74.1 -9.6 -72.75 -8.75 -71.5 -7.95 -70.0 -7.45 -66.15 -6.15 -62.25 -5.75 L-60.05 -5.55 -46.7 -4.05 Q-46.05 -3.95 -45.9 -3.35 -46.6 -2.0 -48.5 -2.25 -32.65 0.35 -16.35 0.65 L-5.65 -0.1 -10.25 -0.6 Q-10.8 -1.0 -10.8 -1.65 L-10.7 -1.95 Q-8.1 -3.4 -4.9 -2.35 L-4.8 -2.3 3.05 -2.05 3.5 -1.95 12.85 -2.0 16.65 -2.4 Q22.3 -2.65 28.05 -2.4 L30.4 -2.5 51.2 -5.85 Q56.75 -6.9 62.05 -8.65 65.6 -9.85 68.75 -11.6 L68.95 -12.35 68.85 -13.1 69.0 -14.35 Q69.15 -15.0 68.65 -15.5 L68.3 -14.15 Q67.85 -13.25 67.0 -12.6 66.3 -12.05 65.4 -11.95 64.55 -11.2 63.35 -11.1 L61.2 -11.1 61.1 -11.2 60.8 -11.5 60.75 -11.6 60.7 -11.85 60.7 -12.05 Q60.65 -12.45 60.9 -12.75 L61.15 -13.0 61.25 -13.05 61.7 -13.2 61.7 -13.3 61.8 -13.55 61.9 -13.65 62.1 -13.85 62.1 -13.95 62.15 -14.1 62.15 -14.2 62.45 -14.6 63.0 -15.15 63.7 -16.3 Q61.95 -19.85 57.6 -20.25 L55.7 -20.35 52.4 -20.4 Q55.25 -19.75 58.05 -18.7 59.35 -18.25 59.45 -16.85 59.5 -15.8 58.55 -15.35 L57.9 -15.05 Q59.9 -12.85 57.05 -11.4 51.35 -8.5 44.95 -8.05 44.2 -8.0 43.75 -8.6 L43.75 -8.8 43.75 -8.95 43.7 -9.25 43.45 -9.45 43.35 -9.55 Q37.95 -9.6 33.15 -12.45 L32.75 -13.1 32.7 -13.2 32.5 -13.95 32.4 -14.15 31.9 -14.4 31.6 -14.4 Q28.0 -11.1 22.9 -11.15 L21.15 -11.1 Q18.05 -10.9 16.4 -13.1 16.1 -13.5 16.2 -14.0 L16.45 -14.4 M164.0 -85.55 Q164.4 -85.6 164.6 -85.9 L164.1 -86.0 Q159.7 -87.15 155.05 -87.35 145.2 -87.75 135.45 -85.95 L128.55 -84.25 118.45 -81.15 Q111.5 -79.0 105.25 -75.25 L104.65 -74.9 105.25 -74.95 Q107.25 -75.1 109.05 -73.8 109.2 -72.8 108.7 -71.95 L107.85 -70.7 99.65 -65.95 98.7 -65.3 Q94.4 -61.7 91.05 -57.35 L91.1 -57.4 97.45 -62.45 99.2 -63.55 Q103.15 -65.85 107.2 -67.95 110.6 -69.7 114.2 -71.0 121.5 -73.7 128.9 -76.0 L133.8 -77.75 134.8 -78.2 134.85 -78.3 134.95 -78.5 135.0 -78.6 135.05 -78.7 135.0 -78.75 131.5 -79.2 131.45 -79.3 131.4 -79.6 131.4 -79.8 131.4 -79.9 131.4 -79.95 131.45 -80.05 Q133.55 -81.9 136.45 -82.35 145.35 -83.8 154.35 -84.35 L164.0 -85.55 M-128.55 -65.35 L-133.05 -66.45 Q-136.45 -67.05 -137.4 -69.95 L-137.5 -70.8 -137.3 -71.05 -137.25 -71.15 -136.95 -71.55 -135.9 -72.2 -135.35 -72.55 Q-138.45 -74.3 -142.05 -75.2 -148.9 -76.8 -155.9 -77.85 -169.75 -79.85 -183.75 -78.35 L-185.75 -77.85 -186.85 -77.65 -188.7 -77.2 -167.05 -76.3 -163.1 -76.1 -152.55 -75.0 Q-148.9 -74.45 -145.95 -72.45 L-145.8 -72.15 Q-145.65 -69.0 -149.0 -68.8 L-150.55 -68.75 Q-155.2 -68.55 -159.1 -66.55 -157.5 -65.55 -155.3 -65.35 L-146.25 -64.65 Q-141.5 -64.3 -137.1 -62.55 -136.1 -62.2 -135.45 -61.3 L-135.45 -60.75 -135.7 -60.0 -128.9 -56.2 Q-126.85 -55.0 -124.5 -54.3 L-116.6 -52.05 -119.55 -53.6 -125.05 -56.65 Q-128.4 -58.5 -129.15 -61.9 L-129.0 -62.8 Q-128.45 -63.9 -128.25 -65.05 L-128.4 -65.2 -128.45 -65.3 -128.55 -65.35 M-156.1 -78.8 Q-148.65 -77.8 -141.45 -76.0 -137.85 -75.1 -134.8 -73.15 L-134.3 -72.6 -134.35 -72.3 -134.35 -72.2 -134.6 -71.9 -134.8 -71.75 -135.7 -71.15 -136.1 -71.05 -136.35 -70.75 -136.4 -70.65 -136.55 -70.45 Q-136.15 -68.1 -133.4 -67.65 -130.05 -67.15 -127.45 -65.35 -127.15 -65.15 -127.3 -64.75 -128.0 -63.2 -128.2 -61.5 -128.3 -60.9 -127.85 -60.4 -124.1 -56.45 -118.95 -54.35 L-117.9 -53.9 Q-114.7 -52.4 -111.6 -50.7 -110.05 -50.15 -108.7 -49.25 L-105.85 -47.3 Q-104.25 -46.2 -103.3 -44.8 -104.7 -45.0 -105.95 -46.25 L-106.6 -46.65 -109.55 -48.6 Q-110.5 -48.85 -111.5 -49.4 L-113.3 -50.15 -119.35 -51.9 Q-122.8 -52.8 -126.15 -54.1 -128.8 -55.15 -131.35 -56.55 -132.75 -57.3 -134.25 -57.85 -136.05 -58.55 -136.5 -60.15 L-136.35 -60.85 Q-139.4 -63.1 -143.45 -63.35 L-152.9 -64.0 Q-156.6 -64.25 -159.7 -65.9 -160.3 -66.25 -160.0 -66.95 L-159.95 -67.15 Q-155.15 -69.65 -149.5 -70.0 L-147.1 -70.4 -146.95 -70.95 -146.65 -71.6 -146.65 -71.7 -146.7 -72.0 -146.75 -72.2 Q-150.25 -73.7 -154.2 -74.25 L-163.3 -75.35 -173.65 -75.8 Q-178.35 -75.65 -183.05 -75.65 -186.75 -75.65 -190.3 -76.6 L-190.45 -76.7 -190.5 -76.9 -190.5 -77.35 -190.45 -77.45 Q-189.05 -78.65 -187.15 -78.7 L-186.4 -78.7 -181.05 -79.6 -170.9 -80.0 -156.1 -78.8 M-188.9 -77.25 L-189.05 -77.2 -188.85 -77.2 -188.9 -77.25 M-70.55 -115.8 Q-68.6 -110.85 -65.8 -106.2 L-61.7 -99.55 Q-60.4 -97.55 -59.75 -95.35 L-58.5 -92.1 -58.15 -90.95 Q-57.45 -89.85 -57.3 -88.55 -57.25 -88.25 -57.45 -88.05 L-57.75 -87.95 -57.95 -88.0 Q-60.65 -91.15 -63.85 -93.65 L-64.55 -94.2 -67.75 -97.15 Q-71.0 -100.75 -71.65 -105.35 L-72.0 -107.85 -72.5 -110.3 Q-74.25 -113.7 -71.25 -115.9 L-70.75 -115.85 -70.55 -115.8 M-59.05 -90.6 Q-60.7 -95.45 -63.0 -99.95 L-63.95 -101.4 Q-67.9 -106.4 -69.85 -112.35 -70.1 -113.0 -70.6 -113.45 L-70.85 -114.6 -71.15 -114.7 -71.95 -113.7 -72.05 -113.6 Q-72.3 -112.55 -72.0 -111.5 L-71.95 -111.15 Q-70.7 -107.85 -70.5 -104.2 -70.45 -103.4 -70.05 -102.65 -67.9 -98.6 -64.65 -95.4 L-63.1 -94.3 Q-61.6 -93.6 -60.6 -92.2 L-59.15 -90.5 -58.8 -90.1 -59.0 -90.5 -59.05 -90.6 M-87.55 -80.8 L-87.35 -80.3 -87.05 -79.55 -87.05 -79.45 -87.05 -79.4 -87.1 -79.2 -87.15 -79.1 -87.3 -78.9 -87.3 -78.8 -87.4 -78.65 -87.5 -78.55 -87.6 -78.45 Q-90.15 -78.45 -92.3 -80.05 L-99.95 -85.65 Q-104.2 -88.75 -109.2 -90.75 L-117.8 -93.8 Q-124.05 -95.8 -130.5 -96.7 -137.8 -97.7 -145.0 -96.4 L-149.4 -95.1 Q-144.4 -93.0 -139.0 -92.65 L-136.75 -92.45 Q-131.35 -91.75 -126.0 -90.45 -121.05 -89.25 -116.7 -86.75 -116.25 -86.55 -116.1 -86.05 L-116.05 -85.65 -118.55 -83.65 Q-115.75 -82.1 -113.45 -79.85 L-111.35 -78.5 Q-105.5 -76.2 -99.35 -75.05 -101.55 -77.25 -104.25 -78.7 -105.65 -79.4 -105.95 -80.85 -106.15 -81.95 -104.95 -82.2 -102.2 -82.8 -99.75 -81.35 -93.4 -77.6 -86.6 -74.65 L-85.05 -73.9 Q-84.05 -73.4 -82.95 -73.3 -83.75 -73.85 -83.65 -74.8 L-83.65 -75.25 -79.9 -75.15 Q-78.6 -74.15 -77.15 -73.25 L-72.1 -69.55 -73.4 -71.15 -82.25 -79.55 Q-84.65 -81.75 -87.6 -81.45 L-87.65 -81.35 -87.6 -80.85 -87.55 -80.8 M-87.8 -82.6 Q-84.65 -82.55 -82.2 -80.55 -78.95 -77.85 -75.85 -74.95 L-71.95 -70.9 Q-70.0 -68.75 -68.4 -66.3 L-67.8 -65.55 -66.2 -64.35 -65.2 -63.3 -61.8 -60.0 -61.8 -59.9 -61.9 -59.75 -62.0 -59.65 -62.25 -59.55 -62.4 -59.55 Q-64.05 -60.7 -65.5 -62.2 L-66.2 -62.9 -66.8 -63.3 Q-69.55 -65.45 -71.95 -67.95 L-74.45 -70.25 Q-77.95 -73.05 -82.1 -74.8 L-82.7 -74.9 -82.7 -74.6 -82.7 -74.4 -81.95 -73.55 -82.0 -72.65 Q-82.0 -72.45 -82.15 -72.35 -85.6 -72.7 -88.75 -74.7 L-90.8 -75.8 Q-96.65 -78.3 -102.2 -81.2 L-105.15 -81.1 Q-104.05 -78.6 -101.2 -77.7 -100.55 -77.5 -99.95 -77.1 -98.5 -76.2 -98.55 -74.7 -98.55 -74.25 -99.0 -74.25 L-103.3 -74.8 Q-109.05 -76.45 -114.25 -79.3 L-115.3 -80.05 -119.2 -83.2 Q-119.55 -83.45 -119.35 -83.9 -118.7 -85.45 -117.15 -85.95 -120.05 -88.0 -123.75 -88.95 L-132.2 -90.7 -145.2 -92.7 -145.6 -92.8 Q-148.65 -93.5 -150.85 -95.2 -150.0 -96.1 -148.7 -96.45 L-148.65 -96.5 Q-145.05 -97.75 -141.25 -98.15 L-126.9 -97.1 Q-119.5 -96.0 -112.65 -93.1 L-105.15 -89.85 Q-103.05 -88.95 -101.15 -87.65 L-92.45 -81.65 -89.05 -79.4 -88.15 -79.5 -88.15 -79.55 -88.15 -79.8 -88.3 -80.1 -88.35 -80.2 Q-88.75 -80.65 -88.65 -81.3 -88.6 -81.95 -88.15 -82.35 L-87.8 -82.6 M-77.4 -57.95 L-80.6 -60.0 Q-86.85 -63.9 -94.0 -65.95 -101.85 -68.15 -109.8 -68.75 L-109.85 -68.75 -97.4 -63.55 Q-94.05 -62.2 -91.15 -60.15 -90.6 -59.75 -91.1 -59.2 -92.25 -58.0 -94.1 -58.05 L-98.0 -57.55 Q-91.4 -55.05 -84.6 -52.7 -80.8 -51.35 -77.2 -49.6 -74.65 -48.4 -72.4 -46.65 -71.05 -45.6 -69.35 -44.95 L-69.25 -44.9 -69.3 -45.0 Q-72.85 -48.35 -76.9 -51.05 L-80.6 -53.75 Q-81.95 -54.85 -82.55 -56.4 -83.2 -58.0 -81.4 -58.4 -79.4 -58.45 -77.65 -57.6 L-77.6 -57.6 -76.35 -57.25 -77.35 -57.95 -77.4 -57.95 M-110.65 -69.65 L-110.65 -69.7 -108.85 -69.6 Q-101.75 -69.05 -94.8 -67.15 -87.55 -65.15 -81.1 -61.5 -77.1 -59.25 -73.65 -56.3 L-72.95 -55.7 -72.6 -55.4 -72.6 -55.3 -72.8 -55.0 -73.05 -54.95 -73.65 -55.35 Q-74.85 -55.45 -76.15 -56.05 L-78.3 -57.05 Q-80.1 -57.55 -81.85 -57.1 L-81.85 -57.05 -81.9 -56.95 -81.85 -56.8 -81.8 -56.7 -81.8 -56.5 Q-80.95 -55.2 -79.65 -54.35 L-78.05 -53.2 Q-76.45 -51.45 -74.25 -50.2 L-72.9 -49.25 -71.7 -48.35 Q-70.2 -47.45 -69.0 -46.2 -68.0 -44.85 -66.55 -43.95 -65.5 -43.3 -65.3 -42.2 -66.3 -42.05 -67.25 -42.9 -68.85 -43.55 -70.45 -44.45 L-72.35 -45.45 -72.45 -45.55 -72.75 -46.05 -72.95 -46.3 Q-78.65 -49.4 -84.6 -51.65 -90.1 -53.7 -95.7 -55.35 -97.55 -55.9 -98.95 -57.05 -98.75 -59.2 -96.05 -59.1 -93.7 -59.0 -91.8 -59.7 -98.05 -63.0 -104.65 -65.65 L-108.6 -67.05 Q-110.2 -67.55 -111.1 -68.8 L-111.2 -69.3 -111.15 -69.4 -110.65 -69.65 M-96.0 -41.35 Q-90.55 -37.9 -83.75 -38.35 L-77.05 -37.65 -79.0 -38.75 Q-80.95 -39.65 -83.05 -40.0 L-94.85 -41.9 -95.9 -41.55 -96.1 -41.45 -96.0 -41.35 M-83.8 -37.5 Q-90.3 -37.1 -95.95 -40.1 -96.9 -40.6 -97.25 -41.65 L-97.25 -41.7 -97.15 -42.0 -97.0 -42.2 -96.95 -42.3 -95.55 -42.65 -94.8 -42.9 -80.15 -40.35 -78.8 -40.05 Q-76.2 -38.05 -72.9 -37.35 -70.05 -36.7 -67.9 -35.15 L-67.95 -35.05 -68.05 -34.85 -68.15 -34.75 -80.3 -37.25 -83.8 -37.5 M-8.4 -92.45 Q-10.35 -91.55 -11.25 -89.55 L-11.3 -89.45 -12.6 -82.1 -12.95 -80.85 Q-9.75 -83.75 -9.3 -87.95 L-9.25 -88.2 Q-8.6 -89.5 -8.25 -90.95 L-8.05 -91.85 -8.15 -92.15 -8.3 -92.4 -8.4 -92.45 M-8.3 -93.5 Q-6.4 -92.55 -7.25 -90.3 L-9.45 -84.05 -10.0 -82.9 Q-11.75 -80.4 -13.8 -78.45 L-14.25 -78.6 -14.35 -78.7 Q-14.1 -81.2 -13.35 -83.65 L-13.05 -85.35 Q-13.0 -88.9 -11.05 -91.75 -10.05 -93.2 -8.3 -93.5 M-41.25 -34.4 L-41.3 -34.6 Q-44.55 -37.3 -45.45 -41.2 -46.1 -43.95 -45.15 -46.65 -43.15 -52.35 -36.9 -51.45 -34.2 -50.15 -31.35 -51.35 -30.8 -54.4 -32.65 -57.2 L-33.5 -58.75 Q-36.0 -64.35 -38.85 -69.7 L-42.95 -75.3 -43.05 -75.4 Q-46.05 -81.55 -46.25 -88.45 -46.3 -90.8 -45.35 -93.0 -44.45 -95.2 -45.8 -96.95 -46.05 -97.3 -46.45 -97.5 L-47.15 -97.35 -47.4 -97.3 -47.65 -96.95 -47.75 -96.8 Q-49.45 -92.9 -48.5 -88.5 -48.1 -86.7 -48.25 -84.9 -48.75 -77.8 -45.4 -71.7 L-45.35 -71.75 Q-44.9 -71.55 -45.1 -71.15 L-44.85 -70.75 -44.5 -70.2 Q-41.45 -65.8 -40.8 -60.5 -40.4 -56.9 -43.8 -55.5 -45.75 -54.7 -47.15 -53.2 L-47.75 -52.35 Q-51.4 -47.8 -48.75 -42.4 -47.3 -39.45 -44.85 -37.25 L-41.35 -34.25 -41.0 -33.95 -41.25 -34.4 M-30.35 -53.1 Q-29.7 -50.45 -32.4 -49.9 -34.95 -49.4 -37.4 -50.3 L-39.8 -50.55 Q-41.05 -50.35 -42.1 -49.75 -46.4 -44.95 -43.75 -39.25 -43.05 -37.85 -41.95 -36.7 -40.1 -34.75 -39.05 -32.4 L-38.8 -32.2 -38.6 -31.75 -38.55 -31.55 -38.7 -31.5 -38.65 -31.3 -38.8 -31.15 -39.05 -31.05 -39.85 -31.65 -40.75 -32.35 -42.95 -34.3 Q-44.65 -35.65 -45.95 -37.3 -51.5 -41.85 -50.45 -48.9 -50.05 -51.65 -47.95 -53.7 -45.8 -55.75 -43.1 -57.15 -42.1 -57.7 -41.85 -58.8 -41.25 -61.4 -42.25 -63.9 L-42.4 -64.1 -42.45 -64.2 -42.5 -64.35 -42.5 -64.55 -44.55 -68.1 -44.7 -68.3 -44.75 -68.55 -45.9 -70.15 Q-49.6 -76.75 -49.3 -84.4 -49.15 -88.65 -49.6 -92.95 -49.8 -94.85 -49.05 -96.3 L-48.3 -97.4 -48.3 -97.5 -48.3 -97.6 -47.85 -98.05 -47.0 -98.45 Q-43.2 -97.55 -44.4 -93.75 -46.65 -86.6 -43.7 -79.4 L-43.05 -77.4 -38.9 -71.3 -38.85 -71.3 -38.7 -71.25 -38.55 -71.15 Q-35.0 -64.8 -32.0 -58.1 -30.9 -55.65 -30.35 -53.1 M-9.5 -63.6 L-9.55 -63.6 -9.85 -62.95 -9.85 -62.85 -9.5 -63.6 M-40.95 -25.15 Q-41.15 -25.4 -40.95 -25.6 L-40.8 -25.7 -36.7 -20.75 -35.9 -20.3 Q-32.95 -18.45 -34.45 -15.65 L-34.6 -15.45 Q-38.8 -15.85 -40.25 -19.9 -40.5 -20.55 -40.35 -21.35 -40.0 -23.05 -40.8 -24.6 L-40.95 -24.7 -41.05 -24.8 -41.05 -24.95 -40.95 -25.15 M-39.55 -20.25 L-39.05 -19.05 -38.6 -18.45 Q-37.35 -17.15 -35.7 -16.4 L-34.85 -16.55 Q-34.65 -18.05 -35.8 -19.05 -38.25 -20.05 -39.35 -22.1 -39.2 -21.2 -39.55 -20.35 L-39.55 -20.25 M-48.6 -20.45 L-48.3 -20.55 -48.8 -20.5 -49.9 -20.2 -48.6 -20.45" fill="#389cff" fill-rule="evenodd" stroke="none"/>
    <path d="M109.7 -101.15 L109.75 -101.05 109.85 -100.95 109.85 -100.85 109.8 -100.75 109.75 -100.6 109.7 -100.5 109.7 -100.4 109.65 -100.3 Q107.1 -98.4 103.85 -97.7 95.3 -95.8 87.25 -92.15 84.8 -91.05 84.0 -88.85 L84.3 -88.55 Q84.8 -88.2 85.45 -88.2 L85.95 -88.1 Q87.1 -86.6 85.1 -85.6 81.45 -83.8 78.1 -81.45 L75.85 -80.0 Q70.65 -77.0 65.7 -73.65 L69.3 -77.8 Q71.6 -80.25 74.45 -82.0 77.85 -84.15 76.45 -87.7 L76.35 -87.75 Q75.1 -88.6 73.6 -88.35 68.45 -86.95 63.8 -84.15 L62.5 -83.2 Q59.45 -80.7 56.2 -78.55 L53.3 -76.9 Q50.2 -75.35 47.6 -73.15 L53.3 -79.9 Q55.4 -82.25 58.05 -83.9 L73.35 -93.3 Q79.25 -96.9 86.15 -97.85 91.4 -98.55 96.4 -100.25 102.9 -102.45 109.55 -101.55 L109.6 -101.4 109.7 -101.15 M6.05 -93.3 Q6.1 -93.9 6.55 -94.25 L6.6 -94.35 7.35 -95.75 Q10.55 -100.45 14.75 -104.45 20.25 -109.65 26.6 -113.65 L26.65 -113.7 29.55 -114.15 29.7 -113.95 29.85 -113.7 29.9 -113.6 29.55 -112.9 Q28.8 -111.75 27.65 -111.05 21.55 -107.25 17.25 -101.5 L14.7 -96.9 Q12.35 -92.4 11.05 -87.6 L10.9 -87.5 10.8 -87.45 10.75 -87.35 9.55 -83.25 6.9 -76.65 6.4 -76.9 Q7.0 -79.6 5.55 -81.85 L3.65 -82.05 3.6 -82.05 3.6 -82.0 Q2.6 -81.75 2.2 -80.55 L-0.45 -77.35 Q-2.1 -75.1 -2.35 -72.3 -2.95 -65.95 -5.1 -60.0 -4.8 -62.9 -4.95 -65.8 -5.35 -66.55 -6.1 -66.95 -7.8 -66.7 -8.7 -65.25 L-8.9 -65.3 -6.5 -71.35 Q-4.1 -77.5 -1.15 -83.4 L-0.85 -84.15 0.85 -85.8 Q3.05 -85.2 4.5 -86.95 6.8 -89.7 6.3 -92.95 L6.05 -93.3 M45.65 -39.6 L49.5 -45.15 Q53.9 -50.9 59.5 -55.85 L68.3 -63.3 Q67.4 -62.15 66.95 -60.8 66.85 -60.45 67.1 -60.3 69.4 -58.3 72.3 -60.15 78.55 -64.15 85.55 -66.35 L82.55 -64.15 77.3 -60.0 73.6 -56.9 Q69.1 -52.5 64.25 -48.5 L58.45 -44.0 58.7 -45.05 Q60.0 -48.1 57.05 -49.25 L54.95 -48.0 51.95 -45.55 Q48.85 -42.65 46.1 -39.35 L45.65 -39.6 M30.25 -78.0 L30.4 -77.95 Q30.05 -76.4 30.0 -74.7 29.8 -67.0 25.7 -60.55 L25.7 -60.35 Q25.35 -59.6 25.3 -58.85 25.15 -55.4 22.9 -52.95 21.35 -53.15 20.1 -52.25 L18.4 -50.8 Q16.6 -49.05 15.3 -46.9 14.45 -45.45 13.9 -43.95 L14.75 -47.5 15.25 -49.3 Q16.2 -55.2 19.3 -60.2 20.0 -60.9 20.85 -60.85 L21.2 -60.35 Q21.7 -60.2 22.15 -60.35 23.0 -60.95 23.5 -61.8 26.05 -66.25 28.05 -71.05 29.5 -74.4 30.25 -78.0 M16.45 -14.4 L16.2 -14.0 Q16.1 -13.5 16.4 -13.1 18.05 -10.9 21.15 -11.1 L22.9 -11.15 Q28.0 -11.1 31.6 -14.4 L31.9 -14.4 32.4 -14.15 32.5 -13.95 32.7 -13.2 32.75 -13.1 33.15 -12.45 Q37.95 -9.6 43.35 -9.55 L43.45 -9.45 43.7 -9.25 43.75 -8.95 43.75 -8.8 43.75 -8.6 Q44.2 -8.0 44.95 -8.05 51.35 -8.5 57.05 -11.4 59.9 -12.85 57.9 -15.05 L58.55 -15.35 Q59.5 -15.8 59.45 -16.85 59.35 -18.25 58.05 -18.7 55.25 -19.75 52.4 -20.4 L55.7 -20.35 57.6 -20.25 Q61.95 -19.85 63.7 -16.3 L63.0 -15.15 62.45 -14.6 62.15 -14.2 62.15 -14.1 62.1 -13.95 62.1 -13.85 61.9 -13.65 61.8 -13.55 61.7 -13.3 61.7 -13.2 61.25 -13.05 61.15 -13.0 60.9 -12.75 Q60.65 -12.45 60.7 -12.05 L60.7 -11.85 60.75 -11.6 60.8 -11.5 61.1 -11.2 61.2 -11.1 63.35 -11.1 Q64.55 -11.2 65.4 -11.95 66.3 -12.05 67.0 -12.6 67.85 -13.25 68.3 -14.15 L68.65 -15.5 Q69.15 -15.0 69.0 -14.35 L68.85 -13.1 68.95 -12.35 68.75 -11.6 Q65.6 -9.85 62.05 -8.65 56.75 -6.9 51.2 -5.85 L30.4 -2.5 28.05 -2.4 Q22.3 -2.65 16.65 -2.4 L12.85 -2.0 3.5 -1.95 3.05 -2.05 -4.8 -2.3 -4.9 -2.35 Q-8.1 -3.4 -10.7 -1.95 L-10.8 -1.65 Q-10.8 -1.0 -10.25 -0.6 L-5.65 -0.1 -16.35 0.65 Q-32.65 0.35 -48.5 -2.25 -46.6 -2.0 -45.9 -3.35 -46.05 -3.95 -46.7 -4.05 L-60.05 -5.55 -62.25 -5.75 Q-66.15 -6.15 -70.0 -7.45 -71.5 -7.95 -72.75 -8.75 -74.1 -9.6 -75.05 -10.85 -75.3 -11.4 -75.1 -11.95 -74.1 -15.85 -69.65 -16.05 -68.4 -16.1 -67.4 -16.7 -64.85 -18.25 -61.85 -18.6 L-58.4 -19.25 Q-54.4 -20.3 -50.8 -20.0 -54.45 -19.55 -57.95 -18.45 L-62.45 -16.85 Q-64.75 -15.9 -66.4 -14.15 -67.0 -13.45 -66.55 -12.65 -65.0 -9.9 -61.3 -10.5 L-56.65 -11.5 Q-53.5 -12.3 -50.8 -10.7 -48.5 -9.3 -45.8 -8.7 L-40.3 -7.3 -37.35 -6.45 Q-27.5 -3.55 -17.15 -4.25 L-15.35 -4.75 -15.05 -4.85 -14.8 -5.05 -14.7 -5.1 -14.65 -5.1 -14.5 -5.3 -14.45 -5.35 -14.4 -5.45 -14.4 -5.55 -14.6 -5.9 -14.85 -6.15 Q-18.55 -9.15 -23.6 -9.95 L-27.8 -10.65 Q-30.0 -11.1 -30.1 -12.9 -25.2 -14.1 -24.55 -18.9 L-24.1 -19.05 Q-21.9 -18.85 -20.7 -20.35 -19.15 -23.05 -19.85 -26.15 -20.45 -28.8 -20.6 -31.6 -20.7 -32.95 -21.25 -34.2 -22.45 -36.7 -21.15 -38.7 L-20.2 -38.65 Q-19.55 -37.65 -18.6 -37.0 -14.5 -36.8 -13.8 -40.9 L-13.75 -41.0 Q-13.1 -42.55 -13.05 -44.05 -11.3 -39.6 -11.25 -34.8 -11.9 -33.6 -13.2 -33.9 -13.8 -35.4 -15.25 -35.8 -16.0 -36.05 -16.7 -35.8 -19.65 -34.8 -19.15 -31.75 L-17.1 -19.7 Q-16.05 -13.35 -9.65 -12.0 -8.35 -11.75 -7.45 -12.6 -5.6 -14.4 -3.3 -15.4 L-1.25 -15.35 Q0.4 -14.4 2.15 -13.7 4.2 -12.45 6.75 -12.8 L8.2 -13.1 16.1 -14.85 16.45 -14.4 M164.1 -86.0 L164.0 -85.55 154.35 -84.35 Q145.35 -83.8 136.45 -82.35 133.55 -81.9 131.45 -80.05 L131.4 -79.95 131.4 -79.9 131.4 -79.8 131.4 -79.6 131.45 -79.3 131.5 -79.2 135.0 -78.75 135.05 -78.7 135.0 -78.6 134.95 -78.5 134.85 -78.3 134.8 -78.2 133.8 -77.75 128.9 -76.0 Q121.5 -73.7 114.2 -71.0 110.6 -69.7 107.2 -67.95 103.15 -65.85 99.2 -63.55 L97.45 -62.45 91.1 -57.4 91.05 -57.35 Q94.4 -61.7 98.7 -65.3 L99.65 -65.95 107.85 -70.7 108.7 -71.95 Q109.2 -72.8 109.05 -73.8 107.25 -75.1 105.25 -74.95 L105.25 -75.25 Q111.5 -79.0 118.45 -81.15 L128.55 -84.25 135.45 -85.95 Q145.2 -87.75 155.05 -87.35 159.7 -87.15 164.1 -86.0 M-128.4 -65.2 L-128.25 -65.05 Q-128.45 -63.9 -129.0 -62.8 L-129.15 -61.9 Q-128.4 -58.5 -125.05 -56.65 L-119.55 -53.6 -116.6 -52.05 -124.5 -54.3 Q-126.85 -55.0 -128.9 -56.2 L-135.7 -60.0 -135.45 -60.75 -135.45 -61.3 Q-136.1 -62.2 -137.1 -62.55 -141.5 -64.3 -146.25 -64.65 L-155.3 -65.35 Q-157.5 -65.55 -159.1 -66.55 -155.2 -68.55 -150.55 -68.75 L-149.0 -68.8 Q-145.65 -69.0 -145.8 -72.15 L-145.95 -72.45 Q-148.9 -74.45 -152.55 -75.0 L-163.1 -76.1 -167.05 -76.3 -188.7 -77.2 -186.85 -77.65 -185.75 -77.85 -183.75 -78.35 Q-169.75 -79.85 -155.9 -77.85 -148.9 -76.8 -142.05 -75.2 -138.45 -74.3 -135.35 -72.55 L-135.9 -72.2 -136.95 -71.55 -137.25 -71.15 -137.3 -71.05 -137.5 -70.8 -137.4 -69.95 Q-136.45 -67.05 -133.05 -66.45 L-128.55 -65.35 -128.4 -65.2 M-59.15 -90.5 L-60.6 -92.2 Q-61.6 -93.6 -63.1 -94.3 L-64.65 -95.4 Q-67.9 -98.6 -70.05 -102.65 -70.45 -103.4 -70.5 -104.2 -70.7 -107.85 -71.95 -111.15 L-72.0 -111.5 Q-72.3 -112.55 -72.05 -113.6 L-71.95 -113.7 -71.15 -114.7 -70.85 -114.6 -70.6 -113.45 Q-70.1 -113.0 -69.85 -112.35 -67.9 -106.4 -63.95 -101.4 L-63.0 -99.95 Q-60.7 -95.45 -59.05 -90.6 L-59.15 -90.5 M-87.55 -80.8 L-87.6 -80.85 -87.65 -81.35 -87.6 -81.45 Q-84.65 -81.75 -82.25 -79.55 L-73.4 -71.15 -72.1 -69.55 -77.15 -73.25 Q-78.6 -74.15 -79.9 -75.15 L-83.65 -75.25 -83.65 -74.8 Q-83.75 -73.85 -82.95 -73.3 -84.05 -73.4 -85.05 -73.9 L-86.6 -74.65 Q-93.4 -77.6 -99.75 -81.35 -102.2 -82.8 -104.95 -82.2 -106.15 -81.95 -105.95 -80.85 -105.65 -79.4 -104.25 -78.7 -101.55 -77.25 -99.35 -75.05 -105.5 -76.2 -111.35 -78.5 L-113.45 -79.85 Q-115.75 -82.1 -118.55 -83.65 L-116.05 -85.65 -116.1 -86.05 Q-116.25 -86.55 -116.7 -86.75 -121.05 -89.25 -126.0 -90.45 -131.35 -91.75 -136.75 -92.45 L-139.0 -92.65 Q-144.4 -93.0 -149.4 -95.1 L-145.0 -96.4 Q-137.8 -97.7 -130.5 -96.7 -124.05 -95.8 -117.8 -93.8 L-109.2 -90.75 Q-104.2 -88.75 -99.95 -85.65 L-92.3 -80.05 Q-90.15 -78.45 -87.6 -78.45 L-87.5 -78.55 -87.4 -78.65 -87.3 -78.8 -87.3 -78.9 -87.15 -79.1 -87.1 -79.2 -87.05 -79.4 -87.05 -79.45 -87.05 -79.55 -87.35 -80.3 -87.55 -80.8 M-69.35 -44.95 Q-71.05 -45.6 -72.4 -46.65 -74.65 -48.4 -77.2 -49.6 -80.8 -51.35 -84.6 -52.7 -91.4 -55.05 -98.0 -57.55 L-94.1 -58.05 Q-92.25 -58.0 -91.1 -59.2 -90.6 -59.75 -91.15 -60.15 -94.05 -62.2 -97.4 -63.55 L-109.85 -68.75 -109.8 -68.75 Q-101.85 -68.15 -94.0 -65.95 -86.85 -63.9 -80.6 -60.0 L-77.4 -57.95 -77.65 -57.6 Q-79.4 -58.45 -81.4 -58.4 -83.2 -58.0 -82.55 -56.4 -81.95 -54.85 -80.6 -53.75 L-76.9 -51.05 Q-72.85 -48.35 -69.3 -45.0 L-69.35 -44.95 M-95.9 -41.55 L-94.85 -41.9 -83.05 -40.0 Q-80.95 -39.65 -79.0 -38.75 L-77.05 -37.65 -83.75 -38.35 Q-90.55 -37.9 -96.0 -41.35 L-95.9 -41.55 M-8.15 -92.15 L-8.05 -91.85 -8.25 -90.95 Q-8.6 -89.5 -9.25 -88.2 L-9.3 -87.95 Q-9.75 -83.75 -12.95 -80.85 L-12.6 -82.1 -11.3 -89.45 -11.25 -89.55 Q-10.35 -91.55 -8.4 -92.45 L-8.15 -92.15 M-41.35 -34.25 L-44.85 -37.25 Q-47.3 -39.45 -48.75 -42.4 -51.4 -47.8 -47.75 -52.35 L-47.15 -53.2 Q-45.75 -54.7 -43.8 -55.5 -40.4 -56.9 -40.8 -60.5 -41.45 -65.8 -44.5 -70.2 L-44.85 -70.75 -45.1 -71.15 Q-44.9 -71.55 -45.35 -71.75 L-45.4 -71.7 Q-48.75 -77.8 -48.25 -84.9 -48.1 -86.7 -48.5 -88.5 -49.45 -92.9 -47.75 -96.8 L-47.65 -96.95 -47.4 -97.3 -47.15 -97.35 -46.45 -97.5 Q-46.05 -97.3 -45.8 -96.95 -44.45 -95.2 -45.35 -93.0 -46.3 -90.8 -46.25 -88.45 -46.05 -81.55 -43.05 -75.4 L-42.95 -75.3 -38.85 -69.7 Q-36.0 -64.35 -33.5 -58.75 L-32.65 -57.2 Q-30.8 -54.4 -31.35 -51.35 -34.2 -50.15 -36.9 -51.45 -43.15 -52.35 -45.15 -46.65 -46.1 -43.95 -45.45 -41.2 -44.55 -37.3 -41.3 -34.6 L-41.25 -34.4 -41.35 -34.25 M-39.55 -20.25 L-39.55 -20.35 Q-39.2 -21.2 -39.35 -22.1 -38.25 -20.05 -35.8 -19.05 -34.65 -18.05 -34.85 -16.55 L-35.7 -16.4 Q-37.35 -17.15 -38.6 -18.45 L-39.05 -19.05 -39.55 -20.25" fill="#dfefff" fill-rule="evenodd" stroke="none"/>
  </g>
</svg>
