<?xml version="1.0" encoding="UTF-8" standalone="no"?>
<svg xmlns:xlink="http://www.w3.org/1999/xlink" height="11.15px" width="117.95px" xmlns="http://www.w3.org/2000/svg">
  <g transform="matrix(1.0, 0.0, 0.0, 1.0, -100.9, -124.4)">
    <path d="M215.25 126.8 L216.3 126.8 216.3 127.6 215.25 127.6 215.25 131.25 215.3 131.8 215.45 132.0 215.85 132.1 216.3 132.05 216.45 133.0 215.65 133.1 214.75 132.9 214.3 132.45 214.2 131.2 214.2 127.6 213.4 127.6 213.4 126.8 214.2 126.8 214.2 125.25 215.25 124.6 215.25 126.8 M217.65 131.8 L218.85 131.8 218.85 133.0 217.65 133.0 217.65 131.8 M212.4 126.8 L212.4 133.0 211.35 133.0 211.35 126.8 212.4 126.8 M211.35 125.6 L211.35 124.4 212.4 124.4 212.4 125.6 211.35 125.6 M208.65 128.8 Q208.65 128.15 208.35 127.85 207.95 127.5 207.15 127.5 206.45 127.5 206.05 127.75 205.7 128.05 205.55 128.7 L204.5 128.55 Q204.65 127.9 205.0 127.5 205.3 127.1 205.9 126.85 L207.3 126.65 208.6 126.8 Q209.1 127.0 209.35 127.3 L209.7 128.0 209.75 129.0 209.75 130.4 209.8 132.25 210.05 133.0 208.95 133.0 208.75 132.25 207.65 132.95 206.45 133.15 Q205.45 133.15 204.9 132.65 204.35 132.15 204.35 131.35 L204.55 130.55 Q204.75 130.15 205.1 129.9 L205.85 129.55 206.8 129.4 208.65 129.05 208.65 128.8 M203.75 124.4 L201.4 133.0 200.3 133.0 198.5 126.45 198.2 125.45 197.95 126.45 196.15 133.0 195.0 133.0 192.7 124.4 193.85 124.4 195.15 130.05 195.55 131.8 195.9 130.2 197.55 124.4 198.95 124.4 200.15 128.75 200.8 131.8 201.25 129.95 202.6 124.4 203.75 124.4 M206.7 132.3 L207.8 132.05 208.5 131.3 208.65 130.25 208.65 129.9 206.95 130.3 206.0 130.5 205.6 130.85 Q205.45 131.05 205.45 131.35 205.45 131.75 205.8 132.05 L206.7 132.3 M179.4 126.65 L180.7 126.85 Q181.25 127.05 181.5 127.4 L181.85 128.4 180.8 128.5 180.4 127.75 Q180.1 127.5 179.45 127.5 L178.45 127.75 Q178.1 128.0 178.1 128.3 178.1 128.5 178.25 128.7 L178.65 128.95 179.6 129.25 181.15 129.7 181.85 130.25 182.1 131.15 181.8 132.15 180.9 132.9 179.6 133.15 Q178.35 133.15 177.75 132.65 177.1 132.15 176.9 131.15 L177.95 131.0 Q178.05 131.6 178.45 131.95 L179.55 132.25 180.65 132.0 181.0 131.3 180.7 130.7 179.6 130.35 178.0 129.85 177.35 129.25 177.1 128.45 177.3 127.65 177.8 127.05 178.5 126.75 179.4 126.65 M175.7 128.0 L175.75 129.0 175.75 130.4 175.8 132.25 176.05 133.0 174.95 133.0 174.75 132.25 173.65 132.95 172.45 133.15 Q171.45 133.15 170.9 132.65 170.35 132.15 170.35 131.35 L170.55 130.55 Q170.75 130.15 171.1 129.9 171.4 129.7 171.85 129.55 L172.8 129.4 174.65 129.05 174.65 128.8 Q174.65 128.15 174.35 127.85 173.95 127.5 173.15 127.5 L172.05 127.75 Q171.7 128.05 171.55 128.7 L170.5 128.55 171.0 127.5 171.9 126.85 173.3 126.65 174.6 126.8 Q175.1 127.0 175.35 127.3 L175.7 128.0 M173.8 132.05 L174.5 131.3 174.65 130.25 174.65 129.9 172.95 130.3 172.0 130.5 171.6 130.85 Q171.45 131.05 171.45 131.35 171.45 131.75 171.8 132.05 L172.7 132.3 173.8 132.05 M169.45 129.9 L169.4 130.15 164.8 130.15 Q164.85 131.2 165.35 131.75 165.9 132.25 166.65 132.25 L167.65 131.95 168.3 131.0 169.4 131.15 Q169.15 132.1 168.45 132.6 167.75 133.15 166.65 133.15 165.3 133.15 164.5 132.3 163.7 131.45 163.7 129.95 163.7 128.35 164.5 127.5 165.3 126.65 166.6 126.65 167.85 126.65 168.65 127.5 169.45 128.35 169.45 129.9 M167.9 128.1 Q167.4 127.5 166.6 127.5 165.9 127.5 165.4 128.0 164.9 128.5 164.85 129.3 L168.3 129.3 167.9 128.1 M162.4 133.0 L161.35 133.0 161.35 124.4 162.4 124.4 162.4 133.0 M188.75 129.9 L188.7 130.15 184.1 130.15 Q184.15 131.2 184.65 131.75 185.2 132.25 185.95 132.25 L186.95 131.95 187.6 131.0 188.7 131.15 Q188.45 132.1 187.75 132.6 187.05 133.15 185.95 133.15 184.6 133.15 183.8 132.3 183.0 131.45 183.0 129.95 183.0 128.35 183.8 127.5 184.6 126.65 185.9 126.65 187.15 126.65 187.95 127.5 188.75 128.35 188.75 129.9 M184.15 129.3 L187.6 129.3 187.2 128.1 Q186.7 127.5 185.9 127.5 185.2 127.5 184.7 128.0 184.2 128.5 184.15 129.3 M139.0 126.65 Q140.1 126.65 140.8 127.55 L140.8 126.8 141.75 126.8 141.75 132.15 141.5 134.2 140.55 135.15 138.95 135.55 Q137.85 135.55 137.15 135.05 136.45 134.5 136.5 133.5 L137.5 133.65 137.9 134.35 138.95 134.65 140.1 134.35 140.6 133.55 140.7 132.2 Q140.0 133.0 139.0 133.0 137.7 133.0 137.0 132.05 136.3 131.15 136.3 129.85 136.3 128.95 136.6 128.2 136.95 127.45 137.55 127.05 138.15 126.65 139.0 126.65 M140.3 128.1 Q139.75 127.5 139.05 127.5 138.35 127.5 137.85 128.1 137.35 128.65 137.35 129.8 137.35 131.0 137.85 131.55 138.35 132.15 139.1 132.15 139.8 132.15 140.3 131.55 140.8 131.0 140.8 129.8 140.8 128.65 140.3 128.1 M132.75 127.55 Q132.05 127.55 131.6 128.0 131.1 128.4 131.1 129.6 L131.1 133.0 130.05 133.0 130.05 126.8 131.0 126.8 131.0 127.65 Q131.7 126.65 132.95 126.65 L134.0 126.85 134.7 127.35 135.05 128.15 135.1 129.15 135.1 133.0 134.05 133.0 134.05 129.2 133.9 128.25 133.5 127.75 132.75 127.55 M128.45 126.8 L128.45 133.0 127.4 133.0 127.4 126.8 128.45 126.8 M127.4 125.6 L127.4 124.4 128.45 124.4 128.45 125.6 127.4 125.6 M121.9 128.1 Q121.45 128.65 121.45 129.9 121.45 131.1 121.95 131.7 122.45 132.25 123.15 132.25 123.85 132.25 124.3 131.7 124.8 131.15 124.8 130.0 124.8 128.7 124.3 128.1 123.8 127.5 123.1 127.5 122.4 127.5 121.9 128.1 M123.0 126.65 L124.0 126.9 124.7 127.5 124.7 124.4 125.75 124.4 125.75 133.0 124.8 133.0 124.8 132.2 Q124.2 133.15 123.05 133.15 122.3 133.15 121.65 132.75 L120.7 131.6 Q120.35 130.85 120.35 129.9 120.35 128.95 120.65 128.2 121.0 127.45 121.6 127.05 122.2 126.65 123.0 126.65 M159.4 128.75 Q158.7 129.5 156.85 129.5 L154.65 129.5 154.65 133.0 153.55 133.0 153.55 124.4 156.75 124.4 158.05 124.5 159.15 124.9 159.8 125.7 160.1 126.9 Q160.1 128.0 159.4 128.75 M158.9 126.95 L158.65 126.0 Q158.35 125.6 157.9 125.5 L156.85 125.4 154.65 125.4 154.65 128.5 156.9 128.5 Q158.0 128.5 158.45 128.1 L158.9 126.95 M143.65 133.0 L143.65 131.8 144.85 131.8 144.85 133.0 143.65 133.0 M147.0 133.0 L147.0 131.8 148.2 131.8 148.2 133.0 147.0 133.0 M150.35 131.8 L151.55 131.8 151.55 133.0 150.35 133.0 150.35 131.8 M100.9 124.4 L102.0 124.4 102.0 132.0 106.25 132.0 106.25 133.0 100.9 133.0 100.9 124.4 M119.15 129.0 L119.15 130.4 119.2 132.25 119.45 133.0 118.35 133.0 118.15 132.25 117.05 132.95 115.85 133.15 Q114.85 133.15 114.3 132.65 113.75 132.15 113.75 131.35 L113.95 130.55 Q114.15 130.15 114.5 129.9 114.8 129.7 115.25 129.55 L116.2 129.4 118.05 129.05 118.05 128.8 117.75 127.85 Q117.35 127.5 116.55 127.5 L115.45 127.75 Q115.1 128.05 114.95 128.7 L113.9 128.55 Q114.05 127.9 114.4 127.5 L115.3 126.85 116.7 126.65 118.0 126.8 Q118.5 127.0 118.75 127.3 L119.1 128.0 119.15 129.0 M112.9 129.8 Q112.9 131.0 112.5 131.7 L111.45 132.75 Q110.8 133.15 109.95 133.15 108.65 133.15 107.85 132.3 107.05 131.45 107.05 129.9 107.05 128.15 108.0 127.35 108.8 126.65 109.95 126.65 111.25 126.65 112.05 127.5 112.9 128.3 112.9 129.8 M115.2 132.05 L116.1 132.3 117.2 132.05 117.9 131.3 118.05 130.25 118.05 129.9 116.35 130.3 115.4 130.5 115.0 130.85 Q114.85 131.05 114.85 131.35 114.85 131.75 115.2 132.05 M108.15 129.9 Q108.15 131.1 108.65 131.7 109.2 132.25 109.95 132.25 110.75 132.25 111.25 131.7 111.8 131.1 111.8 129.85 111.8 128.7 111.25 128.1 110.75 127.5 109.95 127.5 109.2 127.5 108.65 128.1 108.15 128.7 108.15 129.9" fill="#000000" fill-rule="evenodd" stroke="none"/>
  </g>
</svg>
