<?xml version="1.0" encoding="UTF-8" standalone="no"?>
<svg xmlns:xlink="http://www.w3.org/1999/xlink" height="24.2px" width="39.9px" xmlns="http://www.w3.org/2000/svg">
  <g transform="matrix(1.0, 0.0, 0.0, 1.0, 19.95, 12.1)">
    <path d="M18.65 -3.35 L18.9 -3.1 18.95 -3.0 Q15.35 -0.9 11.25 0.3 L11.25 0.35 9.25 0.9 5.05 1.8 1.95 2.3 Q2.0 6.95 -0.4 10.9 -0.9 11.7 -1.75 12.1 -5.05 11.45 -7.55 9.4 -15.4 5.2 -19.0 -3.65 -20.15 -6.45 -19.9 -9.45 L-19.55 -11.05 -18.05 -12.0 -17.45 -12.1 Q-16.4 -11.85 -16.05 -11.0 -10.8 -6.05 -3.4 -7.8 L-0.85 -8.35 -0.8 -8.4 -0.65 -8.5 -0.2 -8.45 -0.15 -8.5 Q1.3 -7.7 1.7 -6.2 L5.8 -6.8 10.3 -7.7 15.9 -9.7 16.45 -9.9 16.95 -9.6 17.0 -9.55 16.95 -9.5 Q16.1 -8.3 14.35 -7.85 L11.25 -6.95 9.25 -6.4 8.2 -6.35 5.65 -5.75 5.1 -5.6 -0.9 -5.3 Q-2.8 -2.0 -3.15 1.8 L4.7 0.85 9.2 -0.1 9.3 -0.2 11.25 -0.85 Q14.45 -1.9 17.55 -3.1 L18.45 -3.45 18.65 -3.35 M-10.25 6.4 L-8.75 7.55 -8.5 7.7 -8.25 7.95 -7.1 8.7 -6.55 8.8 -4.45 10.4 Q-3.05 11.35 -1.65 10.85 L-0.85 10.3 Q1.0 6.7 0.95 2.55 L0.95 2.4 -3.15 2.8 -3.2 3.95 Q-3.15 6.0 -2.6 8.0 L-2.6 8.05 -2.15 8.85 -1.4 7.2 -1.35 7.15 Q-1.2 5.7 -0.6 4.5 -0.6 4.4 -0.5 4.45 -0.4 6.35 -0.9 8.35 L-0.9 8.45 -1.6 9.7 -1.65 9.8 -2.45 9.95 -2.8 9.6 -2.8 9.8 -3.15 9.35 Q-3.75 7.55 -3.85 5.7 -4.55 -0.65 -1.5 -6.3 L-1.35 -6.5 -0.6 -6.8 Q-0.3 -6.65 -0.35 -6.25 L-0.4 -6.15 -0.5 -5.95 0.8 -6.1 0.15 -6.95 0.0 -6.8 -0.15 -6.85 -0.45 -7.0 -0.6 -7.2 -1.15 -7.35 Q-8.3 -4.7 -14.65 -8.55 -16.15 -9.5 -17.15 -10.9 L-17.25 -11.0 -17.3 -11.05 -17.65 -11.15 -18.35 -10.8 -18.8 -10.45 Q-19.6 -6.55 -17.7 -2.9 -16.0 0.35 -13.65 3.15 L-10.75 6.1 -10.35 6.5 -10.05 6.7 -10.25 6.4 M-10.65 5.75 L-10.65 5.8 -10.55 5.9 -10.65 5.75" fill="#000000" fill-rule="evenodd" stroke="none"/>
    <path d="M16.95 -9.5 L18.55 -9.2 19.4 -8.4 19.6 -8.0 19.9 -7.15 19.95 -6.5 Q19.95 -5.2 19.3 -4.25 L18.85 -3.6 18.65 -3.35 18.45 -3.45 17.55 -3.1 Q14.45 -1.9 11.25 -0.85 L9.3 -0.2 9.2 -0.1 4.7 0.85 Q3.8 -2.0 4.8 -4.9 L5.1 -5.6 5.65 -5.75 8.2 -6.35 9.25 -6.4 11.25 -6.95 14.35 -7.85 Q16.1 -8.3 16.95 -9.5" fill="#75640a" fill-rule="evenodd" stroke="none"/>
    <path d="M-10.35 6.5 L-10.75 6.1 -13.65 3.15 Q-16.0 0.35 -17.7 -2.9 -19.6 -6.55 -18.8 -10.45 L-18.35 -10.8 -17.65 -11.15 -17.3 -11.05 -17.25 -11.0 -17.15 -10.9 Q-16.15 -9.5 -14.65 -8.55 -8.3 -4.7 -1.15 -7.35 L-0.6 -7.2 -0.45 -7.0 -0.15 -6.85 0.0 -6.8 0.15 -6.95 0.8 -6.1 -0.5 -5.95 -0.4 -6.15 -0.35 -6.25 Q-0.3 -6.65 -0.6 -6.8 L-1.35 -6.5 -1.5 -6.3 Q-4.55 -0.65 -3.85 5.7 -3.75 7.55 -3.15 9.35 L-2.8 9.8 -2.8 9.6 -2.45 9.95 -1.65 9.8 -1.6 9.7 -0.9 8.45 -0.9 8.35 Q-0.4 6.35 -0.5 4.45 -0.6 4.4 -0.6 4.5 -1.2 5.7 -1.35 7.15 L-1.4 7.2 -2.15 8.85 -2.6 8.05 -2.6 8.0 Q-3.15 6.0 -3.2 3.95 L-3.15 2.8 0.95 2.4 0.95 2.55 Q1.0 6.7 -0.85 10.3 L-1.65 10.85 Q-3.05 11.35 -4.45 10.4 L-6.55 8.8 -7.1 8.7 -8.25 7.95 -8.5 7.7 -8.75 7.55 -10.25 6.4 -10.35 6.5 M-10.65 5.75 L-10.55 5.9 -10.65 5.8 -10.65 5.75" fill="url(#gradient0)" fill-rule="evenodd" stroke="none"/>
    <path d="M4.7 0.85 L-3.15 1.8 Q-2.8 -2.0 -0.9 -5.3 L5.1 -5.6 4.8 -4.9 Q3.8 -2.0 4.7 0.85" fill="#5f5300" fill-rule="evenodd" stroke="none"/>
  </g>
  <defs>
    <linearGradient gradientTransform="matrix(-0.0054, 0.0063, -0.0076, -0.0073, -16.1, 2.4)" gradientUnits="userSpaceOnUse" id="gradient0" spreadMethod="pad" x1="-819.2" x2="819.2">
      <stop offset="0.0" stop-color="#39fd7b"/>
      <stop offset="1.0" stop-color="#000000"/>
    </linearGradient>
  </defs>
</svg>
