<?xml version="1.0" encoding="UTF-8" standalone="no"?>
<svg xmlns:xlink="http://www.w3.org/1999/xlink" height="8.25px" width="7.25px" xmlns="http://www.w3.org/2000/svg">
  <g transform="matrix(1.0, 0.0, 0.0, 1.0, 3.65, 4.1)">
    <path d="M3.35 -0.2 L3.25 -0.3 -3.0 -3.8 -3.2 -3.85 -3.35 -3.75 -3.4 -3.6 -3.4 3.65 -3.35 3.8 -3.2 3.9 -3.0 3.9 3.25 0.15 3.35 0.0 3.35 -0.2 M3.6 -0.25 L3.6 0.1 3.4 0.35 -2.9 4.1 -3.2 4.15 -3.5 4.0 -3.65 3.65 -3.65 -3.6 -3.5 -3.9 -3.25 -4.1 -2.9 -4.0 3.4 -0.5 3.6 -0.25" fill="#333333" fill-opacity="0.29803923" fill-rule="evenodd" stroke="none"/>
    <path d="M3.35 -0.2 L3.35 0.0 3.25 0.15 -3.0 3.9 -3.2 3.9 -3.35 3.8 -3.4 3.65 -3.4 -3.6 -3.35 -3.75 -3.2 -3.85 -3.0 -3.8 3.25 -0.3 3.35 -0.2 M-3.15 3.65 L3.15 -0.1 -3.15 -3.6 -3.15 3.65" fill="#333333" fill-opacity="0.6" fill-rule="evenodd" stroke="none"/>
    <path d="M-3.15 3.65 L-3.15 -3.6 3.15 -0.1 -3.15 3.65" fill="#ffffff" fill-rule="evenodd" stroke="none"/>
  </g>
</svg>
