<?xml version="1.0" encoding="UTF-8" standalone="no"?>
<svg xmlns:xlink="http://www.w3.org/1999/xlink" height="11.35px" width="9.9px" xmlns="http://www.w3.org/2000/svg">
  <g transform="matrix(1.0, 0.0, 0.0, 1.0, 4.95, 5.65)">
    <path d="M3.0 -5.15 L4.45 -5.15 Q3.8 -2.5 3.85 0.0 3.8 2.5 4.45 5.2 L3.0 5.2 -1.8 2.55 -4.45 2.55 -4.45 -2.5 -1.8 -2.5 3.0 -5.15 M-3.7 1.8 L-3.65 1.75 -3.7 1.8" fill="#ffffff" fill-rule="evenodd" stroke="none"/>
    <path d="M-3.7 1.8 L-3.65 1.75 -3.7 1.8" fill="#b5b5b5" fill-rule="evenodd" stroke="none"/>
    <path d="M3.0 -5.15 L-1.8 -2.5 -4.45 -2.5 -4.45 2.55 -1.8 2.55 3.0 5.2 4.45 5.2 Q3.8 2.5 3.85 0.0 3.8 -2.5 4.45 -5.15 L3.0 -5.15 Z" fill="none" stroke="#727272" stroke-linecap="round" stroke-linejoin="round" stroke-width="1.0"/>
  </g>
</svg>
