<?xml version="1.0" encoding="UTF-8" standalone="no"?>
<svg xmlns:xlink="http://www.w3.org/1999/xlink" height="41.15px" width="48.2px" xmlns="http://www.w3.org/2000/svg">
  <g transform="matrix(1.0, 0.0, 0.0, 1.0, 24.1, 20.6)">
    <path d="M3.5 -4.95 L2.75 -5.2 0.45 -5.35 0.65 -4.55 0.65 -4.2 1.25 -3.55 1.25 -3.4 1.25 -3.1 1.25 -3.0 1.15 -2.8 1.15 -2.45 Q1.0 3.15 -2.7 5.85 L-3.35 6.25 -4.05 6.65 -4.55 6.55 -4.6 6.45 -5.1 6.35 -5.9 6.5 -5.9 6.6 Q-5.85 7.65 -5.05 8.2 -1.4 11.0 1.8 7.2 4.5 4.5 5.15 0.2 5.6 -3.15 3.5 -4.95 M-0.65 -7.35 L-0.15 -6.55 -0.1 -6.35 0.0 -6.0 Q0.25 -5.6 0.6 -5.7 L0.6 -5.9 Q1.55 -6.45 2.7 -6.4 5.9 -5.2 5.8 -1.05 L5.65 0.85 5.95 1.25 6.0 1.35 Q11.9 5.65 17.45 10.4 20.55 12.85 23.25 15.75 L23.35 15.85 23.9 17.1 24.1 17.75 23.8 18.1 23.65 18.1 23.4 17.75 22.0 16.0 20.1 14.05 17.45 11.95 16.2 10.8 12.0 7.2 11.75 6.8 7.55 3.85 5.45 2.15 Q4.7 5.35 2.6 7.7 L4.8 9.25 11.95 15.0 12.1 15.1 12.65 15.5 Q13.6 15.95 14.3 16.9 L14.35 17.0 14.15 17.35 13.95 17.45 13.75 17.45 12.85 16.8 12.75 16.8 12.5 16.75 12.3 16.55 6.65 11.95 5.95 11.2 4.55 10.3 2.0 8.25 1.8 8.45 Q-0.9 11.35 -4.3 9.95 -6.75 8.95 -6.75 6.5 L-8.25 6.15 Q-11.35 5.05 -12.8 1.5 -14.35 -2.4 -17.65 -3.8 -21.1 -5.25 -23.05 -8.8 -24.1 -10.65 -24.0 -12.5 -24.2 -13.6 -23.9 -14.75 L-23.25 -16.2 Q-20.0 -21.2 -14.45 -20.55 -9.05 -19.4 -5.2 -14.9 L-5.2 -14.95 -5.05 -14.85 -5.0 -14.75 -4.9 -14.7 -4.65 -14.3 -4.65 -14.2 -2.9 -11.65 -1.05 -8.15 -1.05 -8.1 -1.0 -8.05 -0.85 -7.8 -0.65 -7.2 -0.65 -7.35 M-8.05 -16.55 L-8.65 -17.05 Q-13.5 -20.8 -19.1 -18.85 -23.75 -17.25 -23.2 -11.6 L-23.2 -11.55 Q-22.4 -7.4 -18.75 -5.9 -15.15 -4.45 -13.1 -0.7 -11.7 3.55 -8.3 4.85 L-6.7 5.4 -6.65 5.35 -6.05 5.35 -6.05 5.45 -4.3 5.1 -4.2 5.2 -4.1 5.4 -3.35 5.2 -3.05 5.05 -3.0 5.1 Q-0.4 2.85 0.35 -1.25 L0.6 -2.9 0.55 -3.25 0.35 -3.55 0.3 -3.65 -0.1 -4.35 -2.65 -9.55 Q-4.1 -12.55 -6.15 -14.8 L-6.55 -15.2 -6.2 -14.75 Q-3.35 -11.2 -2.3 -6.4 -2.55 -6.0 -2.95 -6.2 L-3.1 -6.4 -3.15 -6.65 -3.35 -6.95 -3.35 -7.3 -3.65 -7.5 -3.8 -7.85 Q-6.05 -12.1 -9.8 -14.15 L-9.8 -14.2 Q-9.5 -15.8 -8.1 -16.55 L-7.7 -16.25 -8.05 -16.55 M-4.55 -10.65 Q-5.85 -13.55 -8.1 -15.5 L-8.25 -15.5 -8.95 -14.7 Q-6.5 -13.1 -4.55 -10.6 L-4.5 -10.55 -4.55 -10.65 M-6.45 -5.15 Q-8.65 -8.85 -11.3 -11.8 L-11.45 -11.75 -12.3 -10.35 Q-9.2 -8.15 -6.45 -5.1 L-6.4 -5.05 -6.45 -5.15 M-12.8 -9.5 L-13.05 -9.4 -13.25 -9.45 -13.35 -9.6 -13.35 -9.7 Q-12.8 -11.7 -11.25 -12.85 L-10.0 -11.75 -10.0 -11.55 -9.85 -11.3 -8.1 -9.1 Q-5.25 -5.7 -4.3 -1.05 L-4.35 -1.0 Q-4.5 -0.75 -4.75 -0.85 L-4.95 -1.05 Q-7.8 -6.8 -12.8 -9.5" fill="#000000" fill-rule="evenodd" stroke="none"/>
    <path d="M3.5 -4.95 Q5.6 -3.15 5.15 0.2 4.5 4.5 1.8 7.2 -1.4 11.0 -5.05 8.2 -5.85 7.65 -5.9 6.6 L-5.9 6.5 -5.1 6.35 -4.6 6.45 -4.55 6.55 -4.05 6.65 -3.35 6.25 -2.7 5.85 Q1.0 3.15 1.15 -2.45 L1.15 -2.8 1.25 -3.0 1.25 -3.1 1.25 -3.4 1.25 -3.55 0.65 -4.2 0.65 -4.55 0.45 -5.35 2.75 -5.2 3.5 -4.95 M-0.65 -7.35 L-0.65 -7.2 -0.85 -7.8 -0.65 -7.35 M-1.05 -8.15 L-2.9 -11.65 -4.65 -14.2 -4.65 -14.3 -4.55 -14.25 -4.0 -13.55 -3.8 -13.35 -2.8 -11.85 -2.8 -11.8 -2.75 -11.6 -1.5 -9.35 -1.4 -9.15 -1.35 -8.95 -1.3 -8.8 -1.05 -8.15 M-6.15 -14.8 Q-4.1 -12.55 -2.65 -9.55 L-0.1 -4.35 0.3 -3.65 0.35 -3.55 0.55 -3.25 0.6 -2.9 0.35 -1.25 Q-0.4 2.85 -3.0 5.1 L-3.05 5.05 -3.35 5.2 -4.1 5.4 -4.2 5.2 -4.3 5.1 -6.05 5.45 -6.05 5.35 -6.65 5.35 -6.7 5.4 -8.3 4.85 Q-11.7 3.55 -13.1 -0.7 -15.15 -4.45 -18.75 -5.9 -22.4 -7.4 -23.2 -11.55 L-23.2 -11.6 Q-23.75 -17.25 -19.1 -18.85 -13.5 -20.8 -8.65 -17.05 L-8.05 -16.55 -8.1 -16.55 Q-9.5 -15.8 -9.8 -14.2 L-9.8 -14.15 Q-6.05 -12.1 -3.8 -7.85 L-3.65 -7.5 -3.35 -7.3 -3.35 -6.95 -3.15 -6.65 -3.1 -6.4 -2.95 -6.2 Q-2.55 -6.0 -2.3 -6.4 -3.35 -11.2 -6.2 -14.75 L-6.15 -14.8 M-4.55 -10.6 Q-6.5 -13.1 -8.95 -14.7 L-8.25 -15.5 -8.1 -15.5 Q-5.85 -13.55 -4.55 -10.65 L-4.55 -10.6 M-12.8 -9.5 Q-7.8 -6.8 -4.95 -1.05 L-4.75 -0.85 Q-4.5 -0.75 -4.35 -1.0 L-4.3 -1.05 Q-5.25 -5.7 -8.1 -9.1 L-9.85 -11.3 -10.0 -11.55 -10.0 -11.75 -11.25 -12.85 Q-12.8 -11.7 -13.35 -9.7 L-13.35 -9.6 -13.25 -9.45 -13.05 -9.4 -12.8 -9.5 M-6.45 -5.1 Q-9.2 -8.15 -12.3 -10.35 L-11.45 -11.75 -11.3 -11.8 Q-8.65 -8.85 -6.45 -5.15 L-6.45 -5.1" fill="#ffffff" fill-rule="evenodd" stroke="none"/>
    <path d="M13.95 17.45 L14.15 17.35 14.35 17.0 14.3 16.9 Q13.6 15.95 12.65 15.5 L12.1 15.1 11.95 15.0 4.8 9.25 5.1 8.4 5.75 6.4 Q6.2 5.15 7.05 4.3 L7.3 4.05 7.55 3.85 11.75 6.8 12.0 7.2 16.2 10.8 17.45 11.95 20.1 14.05 22.0 16.0 23.4 17.75 23.4 18.0 23.35 18.25 23.3 18.4 23.25 18.75 22.9 19.4 22.75 19.5 22.0 20.15 21.7 20.35 19.9 20.45 19.5 20.35 19.15 20.2 18.75 20.1 18.4 19.95 17.0 19.4 16.55 19.1 16.0 18.8 14.5 17.9 13.95 17.45" fill="#75640a" fill-rule="evenodd" stroke="none"/>
    <path d="M4.8 9.25 L2.6 7.7 Q4.7 5.35 5.45 2.15 L7.55 3.85 7.3 4.05 7.05 4.3 Q6.2 5.15 5.75 6.4 L5.1 8.4 4.8 9.25" fill="#5f5300" fill-rule="evenodd" stroke="none"/>
  </g>
</svg>
