<?xml version="1.0" encoding="UTF-8" standalone="no"?>
<svg xmlns:xlink="http://www.w3.org/1999/xlink" height="90.05px" width="45.35px" xmlns="http://www.w3.org/2000/svg">
  <g transform="matrix(1.0, 0.0, 0.0, 1.0, 22.65, 45.0)">
    <path d="M-12.6 -44.25 Q-9.85 -43.05 -8.3 -40.55 L-7.9 -39.8 Q-6.85 -37.7 -7.9 -35.6 L-7.95 -34.75 Q-6.25 -30.0 -1.15 -29.35 L0.95 -28.75 Q5.65 -26.8 7.45 -22.2 L7.65 -21.2 7.55 -19.7 7.1 -17.8 Q6.9 -17.2 6.35 -16.75 3.65 -14.3 3.8 -10.7 L3.9 -9.7 Q4.15 -6.05 7.35 -4.1 8.65 -3.3 10.4 -3.4 11.15 -3.45 11.75 -3.0 L13.9 -1.7 Q16.1 -0.5 16.55 2.25 L16.9 3.3 Q18.05 5.6 16.95 7.85 15.9 9.95 15.6 11.85 15.2 14.55 16.6 16.7 L17.95 18.25 20.5 20.7 Q23.3 24.0 22.5 29.25 L21.9 30.3 18.55 33.5 17.45 34.85 Q16.6 36.25 16.85 38.8 L17.1 40.85 17.05 41.35 16.75 42.25 15.55 43.95 14.75 44.55 13.95 44.9 12.9 45.05 11.4 45.0 Q7.8 44.8 5.4 41.8 3.55 39.6 4.4 36.65 L4.55 36.5 4.45 36.45 3.55 35.65 2.95 34.8 Q2.4 33.15 2.6 31.3 L2.75 30.25 Q3.3 27.6 3.2 24.8 3.1 23.45 2.55 22.25 1.6 20.1 0.05 18.65 -1.55 17.05 -1.4 14.8 L-1.0 12.85 -0.8 11.8 Q-0.4 6.6 -3.6 2.8 L-4.15 2.4 -7.05 0.7 Q-9.4 -0.65 -10.6 -2.2 L-11.8 -4.1 Q-12.65 -5.5 -12.45 -7.2 -12.3 -8.7 -12.9 -9.8 L-13.3 -10.6 -15.75 -14.6 Q-17.1 -16.55 -18.95 -18.35 L-19.75 -19.0 Q-21.2 -20.2 -20.35 -21.7 L-19.5 -22.65 Q-18.9 -23.55 -18.85 -24.7 -18.85 -25.2 -19.25 -25.55 L-21.65 -28.15 Q-23.85 -30.7 -21.25 -32.85 L-20.45 -33.5 -19.25 -34.4 Q-18.6 -34.95 -18.25 -35.75 L-18.15 -36.7 Q-18.3 -39.45 -19.4 -41.8 L-19.6 -42.7 Q-19.6 -45.4 -16.55 -44.95 L-13.6 -44.5 -12.6 -44.25" fill="#ffffff" fill-rule="evenodd" stroke="none"/>
  </g>
</svg>
