<?xml version="1.0" encoding="UTF-8" standalone="no"?>
<svg xmlns:xlink="http://www.w3.org/1999/xlink" height="31.0px" width="37.1px" xmlns="http://www.w3.org/2000/svg">
  <g transform="matrix(1.0, 0.0, 0.0, 1.0, 18.55, 15.5)">
    <path d="M-3.7 -9.7 Q-6.25 -7.45 -8.05 -4.45 L-11.2 0.75 -11.65 1.45 -11.75 1.55 -12.0 1.85 -12.05 2.2 -11.75 3.85 Q-10.85 7.95 -7.55 10.2 L-7.55 10.15 -7.15 10.3 -6.2 10.5 -6.1 10.3 -6.0 10.2 -3.8 10.55 -3.8 10.45 -3.05 10.45 -3.0 10.5 -1.05 9.95 Q3.2 8.65 4.95 4.4 7.45 0.65 11.95 -0.8 16.4 -2.3 17.5 -6.45 L17.45 -6.5 Q18.1 -12.15 12.35 -13.75 5.4 -15.7 -0.6 -11.95 L-1.3 -11.45 Q0.45 -10.7 0.85 -9.1 L0.85 -9.05 Q-3.85 -7.0 -6.6 -2.75 L-6.8 -2.4 -7.15 -2.2 -7.2 -1.85 Q-7.25 -1.65 -7.45 -1.55 L-7.5 -1.3 -7.65 -1.1 Q-8.15 -0.9 -8.45 -1.3 -7.2 -6.1 -3.65 -9.65 L-3.15 -10.1 -3.7 -9.7 M-5.55 -9.2 L-5.25 -9.6 -5.1 -9.65 -5.05 -9.75 -4.85 -9.85 -4.85 -9.8 Q-0.1 -14.3 6.6 -15.45 13.45 -16.1 17.5 -11.1 L18.3 -9.65 Q18.7 -8.5 18.45 -7.4 18.55 -5.55 17.25 -3.7 14.8 -0.15 10.55 1.3 6.45 2.7 4.55 6.6 2.75 10.15 -1.1 11.25 L-2.9 11.6 Q-2.95 14.05 -6.0 15.05 -10.25 16.45 -13.55 13.55 -18.4 9.95 -18.55 4.05 -18.65 -0.1 -14.65 -1.3 -13.25 -1.35 -12.1 -0.8 L-12.05 -0.6 Q-11.65 -0.5 -11.35 -0.9 L-11.2 -1.25 -11.1 -1.45 -10.5 -2.25 -10.55 -2.1 -10.25 -2.7 -10.1 -2.95 -10.05 -3.0 -10.05 -3.05 -7.75 -6.55 -5.55 -9.1 -5.55 -9.2 M-3.3 0.0 Q0.1 -3.05 3.95 -5.25 L2.9 -6.65 2.7 -6.7 Q-0.65 -3.75 -3.35 -0.05 L-3.4 0.05 -3.3 0.0 M4.55 -4.4 Q-1.65 -1.7 -5.2 4.05 L-5.45 4.25 -5.95 4.1 -6.0 4.05 Q-4.85 -0.6 -1.3 -4.0 L0.9 -6.2 1.05 -6.45 1.1 -6.65 2.6 -7.75 Q4.55 -6.6 5.25 -4.6 L5.25 -4.5 5.1 -4.35 4.85 -4.3 4.55 -4.4 M-1.3 -11.45 L-1.75 -11.15 -1.3 -11.45 M-5.65 -5.5 Q-3.25 -8.0 -0.2 -9.6 L-1.1 -10.4 -1.3 -10.4 Q-4.1 -8.45 -5.7 -5.55 L-5.75 -5.45 -5.65 -5.5 M-11.9 -0.25 L-14.75 -0.1 -15.7 0.15 Q-18.3 1.95 -17.7 5.3 -16.95 9.6 -13.55 12.3 -9.6 16.1 -5.05 13.3 -4.1 12.75 -4.0 11.7 L-4.0 11.6 -4.95 11.45 -5.6 11.55 -5.7 11.65 -6.3 11.75 -7.2 11.35 -7.95 10.95 Q-12.6 8.25 -12.75 2.65 L-12.7 2.3 -12.85 2.1 -12.9 2.0 -12.9 1.7 -12.9 1.55 Q-12.6 1.15 -12.15 0.9 L-12.15 0.55 -11.9 -0.25" fill="#000000" fill-rule="evenodd" stroke="none"/>
    <path d="M-3.65 -9.65 Q-7.2 -6.1 -8.45 -1.3 -8.15 -0.9 -7.65 -1.1 L-7.5 -1.3 -7.45 -1.55 Q-7.25 -1.65 -7.2 -1.85 L-7.15 -2.2 -6.8 -2.4 -6.6 -2.75 Q-3.85 -7.0 0.85 -9.05 L0.85 -9.1 Q0.45 -10.7 -1.3 -11.45 L-0.6 -11.95 Q5.4 -15.7 12.35 -13.75 18.1 -12.15 17.45 -6.5 L17.5 -6.45 Q16.4 -2.3 11.95 -0.8 7.45 0.65 4.95 4.4 3.2 8.65 -1.05 9.95 L-3.0 10.5 -3.05 10.45 -3.8 10.45 -3.8 10.55 -6.0 10.2 -6.1 10.3 -6.2 10.5 -7.15 10.3 -7.55 10.15 -7.55 10.2 Q-10.85 7.95 -11.75 3.85 L-12.05 2.2 -12.0 1.85 -11.75 1.55 -11.65 1.45 -11.2 0.75 -8.05 -4.45 Q-6.25 -7.45 -3.7 -9.7 L-3.65 -9.65 M-10.5 -2.25 L-10.25 -2.7 -10.55 -2.1 -10.5 -2.25 M-10.05 -3.05 L-9.7 -3.7 -9.65 -3.85 -9.6 -4.05 -9.45 -4.25 -7.9 -6.5 -7.85 -6.7 -7.85 -6.75 -6.6 -8.25 -6.35 -8.45 -5.65 -9.15 -5.55 -9.2 -5.55 -9.1 -7.75 -6.55 -10.05 -3.05 M-3.35 -0.05 Q-0.65 -3.75 2.7 -6.7 L2.9 -6.65 3.95 -5.25 Q0.1 -3.05 -3.3 0.0 L-3.35 -0.05 M4.55 -4.4 L4.85 -4.3 5.1 -4.35 5.25 -4.5 5.25 -4.6 Q4.55 -6.6 2.6 -7.75 L1.1 -6.65 1.05 -6.45 0.9 -6.2 -1.3 -4.0 Q-4.85 -0.6 -6.0 4.05 L-5.95 4.1 -5.45 4.25 -5.2 4.05 Q-1.65 -1.7 4.55 -4.4 M-5.7 -5.55 Q-4.1 -8.45 -1.3 -10.4 L-1.1 -10.4 -0.2 -9.6 Q-3.25 -8.0 -5.65 -5.5 L-5.7 -5.55 M-11.9 -0.25 L-12.15 0.55 -12.15 0.9 Q-12.6 1.15 -12.9 1.55 L-12.9 1.7 -12.9 2.0 -12.85 2.1 -12.7 2.3 -12.75 2.65 Q-12.6 8.25 -7.95 10.95 L-7.2 11.35 -6.3 11.75 -5.7 11.65 -5.6 11.55 -4.95 11.45 -4.0 11.6 -4.0 11.7 Q-4.1 12.75 -5.05 13.3 -9.6 16.1 -13.55 12.3 -16.95 9.6 -17.7 5.3 -18.3 1.95 -15.7 0.15 L-14.75 -0.1 -11.9 -0.25" fill="#ffffff" fill-rule="evenodd" stroke="none"/>
  </g>
</svg>
