<?xml version="1.0" encoding="UTF-8" standalone="no"?>
<svg xmlns:xlink="http://www.w3.org/1999/xlink" height="95.5px" width="81.0px" xmlns="http://www.w3.org/2000/svg">
  <g transform="matrix(1.0, 0.0, 0.0, 1.0, 40.45, 47.0)">
    <path d="M28.95 -10.15 L25.85 -21.0 23.0 -29.5 22.9 -29.8 Q21.1 -34.8 18.35 -38.2 11.25 -46.95 -1.95 -45.05 L-2.25 -45.0 -5.4 -43.2 Q-8.2 -41.4 -10.55 -39.1 -8.3 -41.65 -6.05 -43.4 -3.65 -45.2 -1.25 -46.1 8.6 -49.8 18.7 -38.25 L18.75 -38.2 Q22.1 -34.35 24.3 -29.75 25.5 -27.25 26.35 -24.45 L27.35 -21.15 30.5 -10.2 32.55 -2.45 Q35.15 8.0 37.25 18.55 L40.55 36.05 38.5 39.7 Q15.75 50.8 -6.5 47.9 -20.2 46.05 -33.7 39.0 -37.2 37.15 -40.45 34.8 -39.15 13.4 -31.3 -5.55 L-27.85 -13.2 Q-24.75 -19.45 -20.9 -25.35 L-15.35 -33.35 -15.0 -33.8 -15.3 -33.35 -15.9 -32.45 -20.15 -25.2 Q-23.55 -19.15 -26.4 -12.9 L-29.65 -5.15 Q-32.15 1.15 -34.1 7.65 L-36.0 15.35 -37.55 24.05 -38.2 33.55 -38.0 35.5 Q-24.0 43.75 -7.9 45.5 L-4.6 45.75 Q4.45 46.75 13.3 45.35 25.05 43.4 35.95 38.4 L38.05 37.4 37.35 34.55 35.95 24.65 34.75 16.9 33.05 8.25 30.95 -2.1 29.0 -10.1 28.95 -10.15" fill="#000000" fill-rule="evenodd" stroke="none"/>
    <path d="M29.0 -10.1 L28.7 -10.1 28.95 -10.15 29.0 -10.1" fill="#d6280a" fill-rule="evenodd" stroke="none"/>
    <path d="M-15.3 -33.35 L-15.0 -33.8 -15.1 -33.3 -15.3 -33.35" fill="#6666cc" fill-rule="evenodd" stroke="none"/>
    <path d="M-2.25 -45.0 L-1.95 -45.05 Q11.25 -46.95 18.35 -38.2 21.1 -34.8 22.9 -29.8 L23.0 -29.5 25.85 -21.0 28.95 -10.15 28.7 -10.1 29.0 -10.1 30.95 -2.1 33.05 8.25 17.55 10.4 Q3.5 11.75 -10.65 10.8 L-17.7 10.2 -17.95 2.15 Q-17.75 -5.85 -15.8 -13.55 -13.95 -20.9 -11.05 -27.85 L-8.85 -32.85 Q-5.9 -39.15 -2.05 -44.85 L-2.25 -45.0 M34.75 16.9 L35.95 24.65 16.9 28.3 Q1.15 30.15 -14.45 28.5 L-16.5 18.85 Q0.45 20.9 17.55 19.3 L34.75 16.9 M37.35 34.55 L38.05 37.4 35.95 38.4 Q25.05 43.4 13.3 45.35 4.45 46.75 -4.6 45.75 L-7.9 45.5 -9.1 43.15 -11.4 38.05 Q-3.0 38.7 5.45 38.5 L15.25 38.1 37.35 34.55" fill="#f02d0b" fill-rule="evenodd" stroke="none"/>
    <path d="M-17.7 10.2 L-10.65 10.8 Q3.5 11.75 17.55 10.4 L33.05 8.25 34.75 16.9 17.55 19.3 Q0.45 20.9 -16.5 18.85 L-17.05 15.65 -17.7 10.2 M35.95 24.65 L37.35 34.55 15.25 38.1 5.45 38.5 Q-3.0 38.7 -11.4 38.05 -12.95 34.15 -14.05 30.05 L-14.45 28.5 Q1.15 30.15 16.9 28.3 L35.95 24.65" fill="#c62509" fill-rule="evenodd" stroke="none"/>
    <path d="M-2.25 -45.0 L-2.05 -44.85 Q-5.9 -39.15 -8.85 -32.85 L-11.05 -27.85 Q-13.95 -20.9 -15.8 -13.55 -17.75 -5.85 -17.95 2.15 L-17.7 10.2 Q-25.9 9.3 -34.1 7.65 -32.15 1.15 -29.65 -5.15 L-26.4 -12.9 Q-23.55 -19.15 -20.15 -25.2 L-15.9 -32.45 -15.3 -33.35 -15.1 -33.3 -15.0 -33.8 Q-13.0 -36.75 -10.55 -39.1 -8.2 -41.4 -5.4 -43.2 L-2.25 -45.0 M-7.9 45.5 Q-24.0 43.75 -38.0 35.5 L-38.2 33.55 Q-24.9 36.95 -11.4 38.05 L-9.1 43.15 -7.9 45.5 M-37.55 24.05 L-36.0 15.35 -27.5 17.15 -16.5 18.85 -14.45 28.5 -27.15 26.55 -37.55 24.05" fill="#c9260a" fill-rule="evenodd" stroke="none"/>
    <path d="M-38.2 33.55 L-37.55 24.05 -27.15 26.55 -14.45 28.5 -14.05 30.05 Q-12.95 34.15 -11.4 38.05 -24.9 36.95 -38.2 33.55 M-36.0 15.35 L-34.1 7.65 Q-25.9 9.3 -17.7 10.2 L-17.05 15.65 -16.5 18.85 -27.5 17.15 -36.0 15.35" fill="#9e1e07" fill-rule="evenodd" stroke="none"/>
  </g>
</svg>
