<?xml version="1.0" encoding="UTF-8" standalone="no"?>
<svg xmlns:xlink="http://www.w3.org/1999/xlink" height="147.1px" width="55.75px" xmlns="http://www.w3.org/2000/svg">
  <g transform="matrix(1.0, 0.0, 0.0, 1.0, 27.55, 123.1)">
    <path d="M-24.3 -56.55 L-20.0 -120.95 -19.25 -120.95 Q-1.95 -125.95 15.25 -119.45 L22.55 -56.75 Q-0.9 -63.45 -24.3 -56.55 M24.1 -42.8 L28.0 -6.2 Q29.35 7.55 20.6 16.05 16.8 19.8 11.5 21.85 6.45 23.85 0.8 24.0 -4.8 24.15 -10.0 22.45 -15.35 20.65 -19.3 17.05 -28.35 8.9 -27.5 -5.45 L-25.2 -42.8 Q-0.55 -50.3 24.1 -42.8" fill="#ffffff" fill-rule="evenodd" stroke="none"/>
    <path d="M-24.3 -56.55 Q-0.9 -63.45 22.55 -56.75 L24.1 -42.8 Q-0.55 -50.3 -25.2 -42.8 L-24.3 -56.55" fill="#ff0000" fill-rule="evenodd" stroke="none"/>
  </g>
</svg>
