<?xml version="1.0" encoding="UTF-8" standalone="no"?>
<svg xmlns:xlink="http://www.w3.org/1999/xlink" height="95.5px" width="81.0px" xmlns="http://www.w3.org/2000/svg">
  <g transform="matrix(1.0, 0.0, 0.0, 1.0, 40.45, 47.0)">
    <path d="M25.85 -21.0 L23.0 -29.5 22.9 -29.8 Q21.1 -34.8 18.35 -38.2 11.15 -47.05 -2.25 -45.0 L-5.4 -43.2 Q-8.2 -41.4 -10.55 -39.1 -8.3 -41.65 -6.05 -43.4 6.1 -52.65 18.7 -38.25 L18.75 -38.2 Q22.1 -34.35 24.3 -29.75 25.5 -27.25 26.35 -24.45 L27.35 -21.15 30.5 -10.2 32.55 -2.45 Q35.15 8.0 37.25 18.55 L40.55 36.05 38.5 39.7 Q1.8 57.6 -33.7 39.0 -37.2 37.15 -40.45 34.8 -39.15 13.4 -31.3 -5.55 L-27.85 -13.2 Q-24.75 -19.45 -20.9 -25.35 L-15.35 -33.35 -15.0 -33.8 -15.3 -33.35 -15.9 -32.45 -20.15 -25.2 Q-23.55 -19.15 -26.4 -12.9 L-29.65 -5.15 Q-32.15 1.15 -34.1 7.65 L-36.0 15.35 -37.55 24.05 -38.2 33.55 -38.0 35.5 Q-22.6 44.6 -4.6 45.75 4.45 46.75 13.3 45.35 25.05 43.4 35.95 38.4 L38.05 37.4 37.35 34.55 35.95 24.65 34.75 16.9 33.05 8.25 30.95 -2.1 29.0 -10.1 28.95 -10.15 25.85 -21.0" fill="#000000" fill-rule="evenodd" stroke="none"/>
    <path d="M28.95 -10.15 L29.0 -10.1 28.7 -10.1 28.95 -10.15" fill="#d6280a" fill-rule="evenodd" stroke="none"/>
    <path d="M-15.3 -33.35 L-15.0 -33.8 -15.1 -33.3 -15.3 -33.35" fill="#6666cc" fill-rule="evenodd" stroke="none"/>
    <path d="M-5.4 -43.2 L-2.25 -45.0 2.55 -41.0 -5.4 -43.2" fill="#3636a3" fill-rule="evenodd" stroke="none"/>
    <path d="M13.3 45.35 Q4.45 46.75 -4.6 45.75 -22.6 44.6 -38.0 35.5 L-38.2 33.55 Q-16.65 39.05 5.45 38.5 L15.25 38.1 13.3 45.35 M-37.55 24.05 L-36.0 15.35 -27.5 17.15 Q-5.1 21.4 17.55 19.3 L16.9 28.3 Q-5.3 30.9 -27.15 26.55 L-37.55 24.05 M-34.1 7.65 Q-32.15 1.15 -29.65 -5.15 L-28.8 -4.95 -26.2 -4.4 -17.75 -2.65 Q-10.35 -1.15 -2.75 -0.85 1.1 -0.65 5.0 -0.75 L8.25 -0.75 Q12.4 -0.6 16.6 -0.75 17.25 4.8 17.55 10.4 3.5 11.75 -10.65 10.8 -22.35 10.0 -34.1 7.65 M-26.4 -12.9 Q-23.55 -19.15 -20.15 -25.2 L-14.85 -24.2 -11.3 -23.7 -7.65 -23.05 -4.3 -22.6 -0.55 -22.1 6.8 -21.4 12.9 -21.4 Q14.3 -15.6 15.3 -9.7 L9.5 -9.65 Q5.75 -9.5 2.0 -9.6 L-12.35 -10.65 -26.4 -12.9 M-10.55 -39.1 Q-8.2 -41.4 -5.4 -43.2 L2.55 -41.0 Q7.3 -36.35 10.05 -30.35 L2.3 -30.65 -1.6 -31.05 -15.1 -33.3 -15.0 -33.8 Q-13.0 -36.75 -10.55 -39.1" fill="#3399ff" fill-rule="evenodd" stroke="none"/>
    <path d="M22.9 -29.8 L21.35 -29.95 17.8 -30.2 Q13.9 -30.2 10.05 -30.35 11.3 -27.5 12.15 -24.3 L12.9 -21.4 21.7 -21.0 Q23.75 -20.85 25.85 -21.0 L28.95 -10.15 28.7 -10.1 25.15 -9.7 20.15 -9.4 15.3 -9.7 16.6 -0.75 23.65 -1.25 30.95 -2.1 33.05 8.25 17.55 10.4 17.55 19.3 34.75 16.9 35.95 24.65 16.9 28.3 15.25 38.1 5.45 38.5 Q-16.65 39.05 -38.2 33.55 L-37.55 24.05 -27.15 26.55 Q-5.3 30.9 16.9 28.3 L17.55 19.3 Q-5.1 21.4 -27.5 17.15 L-36.0 15.35 -34.1 7.65 Q-22.35 10.0 -10.65 10.8 3.5 11.75 17.55 10.4 17.25 4.8 16.6 -0.75 12.4 -0.6 8.25 -0.75 L5.0 -0.75 Q1.1 -0.65 -2.75 -0.85 -10.35 -1.15 -17.75 -2.65 L-26.2 -4.4 -28.8 -4.95 -29.65 -5.15 -26.4 -12.9 -12.35 -10.65 2.0 -9.6 Q5.75 -9.5 9.5 -9.65 L15.3 -9.7 Q14.3 -15.6 12.9 -21.4 L6.8 -21.4 -0.55 -22.1 -4.3 -22.6 -7.65 -23.05 -11.3 -23.7 -14.85 -24.2 -20.15 -25.2 -15.9 -32.45 -15.3 -33.35 -15.1 -33.3 -1.6 -31.05 2.3 -30.65 10.05 -30.35 Q7.3 -36.35 2.55 -41.0 L6.7 -40.0 11.0 -39.35 15.25 -38.65 18.35 -38.2 Q21.1 -34.8 22.9 -29.8 M37.35 34.55 L38.05 37.4 35.95 38.4 Q25.05 43.4 13.3 45.35 L15.25 38.1 37.35 34.55" fill="#006cd9" fill-rule="evenodd" stroke="none"/>
    <path d="M22.9 -29.8 L23.0 -29.5 25.85 -21.0 Q23.75 -20.85 21.7 -21.0 L12.9 -21.4 12.15 -24.3 Q11.3 -27.5 10.05 -30.35 13.9 -30.2 17.8 -30.2 L21.35 -29.95 22.9 -29.8 M29.0 -10.1 L30.95 -2.1 23.65 -1.25 16.6 -0.75 15.3 -9.7 20.15 -9.4 25.15 -9.7 28.7 -10.1 29.0 -10.1 M33.05 8.25 L34.75 16.9 17.55 19.3 17.55 10.4 33.05 8.25 M35.95 24.65 L37.35 34.55 15.25 38.1 16.9 28.3 35.95 24.65 M-2.25 -45.0 Q11.15 -47.05 18.35 -38.2 L15.25 -38.65 11.0 -39.35 6.7 -40.0 2.55 -41.0 -2.25 -45.0" fill="#004e9b" fill-rule="evenodd" stroke="none"/>
  </g>
</svg>
