<?xml version="1.0" encoding="UTF-8" standalone="no"?>
<svg xmlns:xlink="http://www.w3.org/1999/xlink" height="218.3px" width="266.55px" xmlns="http://www.w3.org/2000/svg">
  <g transform="matrix(1.0, 0.0, 0.0, 1.0, 133.25, 109.15)">
    <path d="M56.05 -71.8 Q62.3 -71.65 67.7 -69.6 L83.45 -76.35 83.55 -77.05 Q86.2 -84.4 92.6 -85.9 94.8 -88.45 97.45 -90.7 107.6 -99.45 120.5 -97.05 126.5 -95.95 130.7 -91.4 136.0 -85.7 130.5 -79.85 129.45 -78.85 128.15 -78.4 123.6 -76.8 119.5 -74.6 122.2 -70.1 120.6 -64.5 118.65 -62.0 115.55 -61.9 114.3 -62.35 113.7 -63.4 112.95 -64.65 111.55 -64.65 108.05 -64.7 105.75 -66.35 100.55 -58.25 92.65 -62.15 L84.4 -54.8 85.1 -53.45 Q87.6 -48.85 86.75 -43.5 L85.55 -36.75 Q84.8 -32.5 82.35 -30.7 81.05 -28.75 78.3 -27.85 66.05 -23.8 53.35 -21.1 55.25 -10.95 53.35 -0.55 52.1 6.4 49.5 13.05 44.05 26.95 33.85 37.9 30.7 41.3 26.8 43.85 24.05 46.45 20.35 48.4 6.3 55.65 -9.6 57.2 -24.0 58.65 -37.85 55.05 -41.25 54.2 -44.05 52.55 -49.25 62.1 -55.25 71.15 -56.85 73.55 -59.05 74.3 -61.45 76.2 -65.75 75.8 L-72.6 75.15 Q-77.95 74.6 -81.75 70.95 L-82.85 69.9 Q-87.3 73.1 -92.1 75.95 -90.45 84.6 -99.65 87.45 -98.65 90.1 -99.55 93.5 -99.9 94.85 -98.9 95.9 -98.05 96.8 -97.95 98.1 -98.85 101.05 -101.8 102.25 -107.6 102.3 -111.25 98.55 -114.45 101.9 -117.2 105.9 -118.0 107.05 -119.25 107.75 -126.35 111.55 -130.45 104.9 -133.7 99.65 -133.2 93.55 -132.1 80.5 -121.0 73.0 -118.1 71.05 -115.05 69.6 -111.95 63.85 -104.15 63.2 L-103.4 63.3 -92.7 49.9 Q-93.3 44.1 -91.8 38.05 -91.6 37.15 -90.9 36.75 -81.3 27.95 -69.95 21.2 -71.4 18.05 -71.6 14.4 -71.9 9.45 -71.55 4.55 -87.4 -1.7 -99.55 -14.2 L-105.05 -20.35 Q-113.2 -30.15 -116.65 -42.45 -117.6 -45.95 -117.75 -49.45 -118.8 -57.9 -112.95 -65.25 -106.75 -73.1 -96.65 -73.7 -86.55 -74.45 -81.15 -67.35 L-80.95 -67.25 -80.7 -67.1 Q-77.3 -61.0 -77.0 -53.8 L-76.55 -50.25 Q-75.5 -44.85 -73.2 -39.9 -69.25 -31.8 -61.8 -26.9 -55.95 -36.9 -47.1 -44.75 -41.1 -50.0 -34.25 -53.9 -39.85 -60.1 -47.85 -64.0 L-53.75 -66.55 -70.05 -72.75 Q-72.3 -73.6 -73.45 -75.6 L-73.75 -76.15 -74.05 -76.2 -74.7 -78.5 -74.8 -78.75 -74.8 -78.85 Q-75.5 -82.35 -74.95 -86.1 -72.7 -100.25 -59.4 -106.35 -54.25 -108.7 -48.65 -108.95 -45.4 -109.55 -42.85 -108.35 -29.95 -105.7 -21.3 -95.3 L-18.4 -91.9 Q-8.85 -80.55 -3.6 -66.8 -3.1 -65.55 -2.95 -64.1 L-2.75 -63.9 -2.6 -63.75 -2.6 -63.7 1.65 -63.95 Q16.65 -64.35 30.15 -58.15 32.45 -57.1 34.25 -55.4 43.65 -64.45 54.6 -71.3 55.15 -71.85 56.05 -71.8 M55.6 -70.0 L55.2 -70.05 Q45.8 -63.25 37.3 -54.65 33.15 -50.5 28.75 -47.15 L27.2 -44.6 Q22.0 -33.6 31.1 -26.05 35.0 -24.15 39.25 -23.15 L42.6 -22.6 Q48.4 -21.9 54.35 -23.35 65.4 -26.05 76.25 -29.15 L77.0 -29.7 Q78.7 -30.4 80.25 -31.3 L80.45 -31.4 Q81.8 -32.9 82.65 -34.75 85.15 -40.35 84.85 -46.05 84.55 -52.95 80.05 -58.25 70.2 -69.95 55.6 -70.0 M91.55 -78.05 L90.75 -77.6 90.5 -77.4 90.4 -77.4 Q85.8 -74.8 80.9 -72.8 75.3 -70.5 69.85 -68.65 76.25 -65.65 81.45 -59.65 L83.65 -56.05 91.2 -63.85 91.15 -64.35 91.55 -64.8 91.95 -65.05 92.15 -64.85 98.3 -71.3 98.95 -74.15 Q97.4 -80.1 91.55 -78.05 M118.25 -88.95 Q117.65 -89.55 117.3 -90.3 L116.95 -90.4 116.25 -90.65 115.8 -90.55 114.3 -90.7 114.1 -90.6 Q111.85 -90.4 109.7 -89.55 L109.05 -89.3 109.8 -89.25 118.25 -88.9 118.35 -88.9 118.25 -88.95 M85.65 -77.25 L90.25 -79.2 91.0 -79.7 92.4 -80.1 92.85 -80.3 93.1 -80.2 96.05 -79.8 Q103.0 -77.35 99.9 -69.8 L98.85 -69.0 97.45 -67.05 94.05 -63.5 Q95.8 -62.7 97.85 -62.9 100.3 -63.05 101.95 -64.85 105.9 -69.05 105.4 -75.25 104.7 -83.25 97.1 -84.05 88.75 -84.95 85.65 -77.25 M96.45 -86.3 Q100.0 -86.25 102.55 -83.9 109.15 -77.7 106.5 -68.1 L106.45 -67.9 107.25 -67.35 Q112.35 -68.1 115.3 -64.15 L115.85 -64.0 116.6 -63.9 116.8 -64.0 117.9 -64.45 118.9 -65.6 Q120.65 -73.65 113.45 -77.5 113.05 -78.35 113.8 -78.8 L114.25 -78.8 Q115.8 -78.45 117.15 -77.55 L118.2 -76.4 Q119.3 -77.15 120.5 -77.5 L126.85 -79.25 Q129.15 -80.7 130.65 -83.0 131.4 -84.15 131.1 -85.4 129.4 -93.3 120.95 -95.35 L117.95 -95.75 113.15 -95.95 Q106.4 -94.75 100.8 -90.85 98.25 -89.1 96.35 -86.85 L95.85 -86.3 96.45 -86.3 M110.2 -87.9 L109.85 -87.85 Q106.85 -87.2 104.15 -86.2 L104.05 -86.4 103.85 -87.05 Q109.75 -93.6 118.3 -91.65 120.5 -89.7 120.0 -87.1 L118.5 -87.0 Q114.4 -88.3 110.2 -87.9 M-22.7 -94.1 Q-25.8 -97.45 -29.45 -100.2 -32.75 -102.7 -36.55 -103.95 -38.65 -105.3 -40.9 -106.15 -41.2 -105.85 -41.6 -105.8 -53.35 -108.85 -63.25 -101.65 -74.4 -93.6 -73.1 -79.8 L-73.05 -79.25 Q-71.9 -77.1 -70.15 -75.15 -68.7 -73.55 -66.6 -73.0 -52.3 -69.55 -39.7 -61.35 -36.45 -59.25 -33.7 -56.8 -32.75 -55.95 -32.55 -54.85 L-27.6 -57.3 Q-16.55 -62.25 -4.75 -63.5 -5.7 -66.7 -7.05 -69.7 L-11.35 -78.8 Q-16.15 -87.1 -22.7 -94.1 M32.65 -53.8 L32.85 -54.0 32.8 -54.05 Q26.6 -57.55 19.5 -59.55 3.25 -64.15 -13.3 -59.95 -21.25 -57.9 -28.7 -54.5 -36.55 -50.9 -43.35 -45.65 -52.1 -38.95 -58.1 -29.85 -65.4 -18.65 -68.3 -5.65 -69.35 -0.85 -69.65 3.85 L-69.1 4.1 Q-68.85 4.2 -69.0 4.45 -69.2 5.05 -69.75 5.15 -70.15 12.75 -68.65 20.25 L-68.65 20.45 -68.25 20.2 -65.3 18.6 -65.05 18.35 -64.95 18.3 -64.7 18.3 -63.3 17.55 Q-62.0 16.6 -60.45 15.95 -58.2 15.0 -55.9 14.6 -43.15 14.8 -39.55 26.5 -37.75 32.35 -38.45 38.05 -39.05 42.85 -41.45 47.55 L-43.2 50.9 Q-19.75 59.2 4.8 52.3 14.55 49.55 22.9 44.05 L27.05 41.1 29.4 38.85 Q42.7 26.7 48.35 9.65 51.35 0.65 52.3 -8.75 52.95 -14.85 51.75 -20.75 L42.0 -20.4 Q36.3 -21.2 31.15 -24.5 20.8 -31.05 24.0 -43.4 24.95 -45.5 26.5 -47.45 27.5 -48.75 28.8 -49.75 L29.85 -50.95 29.95 -51.15 30.05 -51.25 30.3 -51.4 32.65 -53.8 M-99.15 -71.2 Q-110.45 -68.9 -114.55 -58.1 L-115.45 -56.5 Q-115.45 -55.7 -115.7 -55.0 L-115.95 -54.2 Q-116.65 -39.85 -108.15 -27.75 -99.4 -15.4 -86.95 -6.2 -79.55 -0.7 -71.45 3.05 L-71.05 -0.6 -69.7 -7.55 Q-67.7 -15.3 -64.1 -22.55 L-62.5 -25.65 Q-70.05 -29.45 -73.65 -37.1 -74.6 -38.3 -75.05 -39.75 L-75.15 -40.1 Q-79.75 -50.45 -80.8 -61.8 -80.95 -63.6 -81.8 -65.15 -87.7 -73.55 -99.15 -71.2 M-60.75 18.2 Q-65.15 21.6 -70.25 24.45 -80.8 30.45 -89.85 37.7 L-89.95 38.05 Q-93.75 52.2 -85.05 64.8 -81.1 70.55 -74.55 72.65 -69.1 74.45 -63.05 73.5 -61.05 73.2 -59.25 72.3 L-59.1 72.1 -56.7 69.4 Q-56.4 69.0 -55.95 68.8 -50.1 59.15 -44.55 49.2 -41.6 43.85 -40.7 38.05 L-40.4 34.65 Q-40.2 30.3 -41.05 26.05 -45.9 15.3 -57.9 17.4 L-60.75 18.2 M-106.3 69.75 L-106.3 69.8 -106.55 70.0 -107.2 70.65 Q-110.7 75.75 -105.4 78.8 L-102.45 79.0 -94.6 74.75 -94.75 74.45 -94.4 74.15 -93.9 73.9 -93.4 74.1 -83.9 68.85 -86.75 65.75 Q-91.15 59.2 -92.4 52.2 -95.6 56.95 -99.3 61.75 -102.55 66.0 -106.3 69.75 M-101.45 80.9 Q-109.55 81.9 -110.1 74.55 -110.2 73.0 -109.7 71.6 L-109.7 71.3 -109.4 70.95 -108.65 69.7 -107.95 69.1 -104.85 65.15 Q-113.1 66.15 -114.45 74.45 -115.7 82.0 -108.15 84.75 -102.3 86.9 -97.2 84.2 -95.05 83.05 -94.25 80.75 -93.55 78.8 -93.85 76.95 L-98.15 79.25 Q-99.3 79.85 -100.4 80.1 L-101.45 80.9 M-116.95 72.95 Q-119.65 74.2 -122.0 76.2 -127.25 80.6 -130.2 86.75 -131.0 89.05 -131.25 91.45 L-131.7 94.45 Q-131.95 103.15 -124.75 106.9 L-122.3 107.1 Q-119.7 106.25 -117.7 104.4 L-114.35 98.75 -112.65 96.85 -113.5 95.5 Q-114.0 93.95 -113.95 92.35 L-113.8 91.95 Q-113.15 91.35 -112.45 91.95 -110.65 99.9 -102.4 100.35 -101.8 99.9 -101.05 99.7 L-100.3 98.75 -100.15 98.6 -100.05 97.8 -100.05 97.25 Q-103.1 93.4 -101.05 88.65 L-101.3 87.7 -101.55 87.7 Q-111.5 87.75 -115.75 79.75 -117.35 76.65 -116.45 73.2 L-116.3 72.6 -116.95 72.95 M-118.4 80.65 Q-120.05 83.0 -121.5 85.7 L-121.65 86.05 Q-123.1 90.0 -122.95 94.3 -122.95 95.15 -123.45 95.75 -126.1 95.55 -127.4 92.9 -127.0 84.15 -119.15 80.15 L-118.55 80.5 -118.4 80.65 M-122.85 85.3 Q-122.55 84.6 -122.7 84.55 L-123.1 85.15 Q-124.5 87.0 -125.3 89.1 L-125.4 89.25 Q-125.4 90.05 -125.7 90.75 L-125.9 91.15 -125.85 91.9 -125.85 92.25 -124.8 93.55 -124.75 93.65 -124.75 93.55 Q-124.7 89.2 -122.85 85.3" fill="#000000" fill-rule="evenodd" stroke="none"/>
    <path d="M55.6 -70.0 Q70.2 -69.95 80.05 -58.25 84.55 -52.95 84.85 -46.05 85.15 -40.35 82.65 -34.75 81.8 -32.9 80.45 -31.4 L80.25 -31.3 Q78.7 -30.4 77.0 -29.7 L76.25 -29.15 Q65.4 -26.05 54.35 -23.35 48.4 -21.9 42.6 -22.6 L39.25 -23.15 Q35.0 -24.15 31.1 -26.05 22.0 -33.6 27.2 -44.6 L28.75 -47.15 Q33.15 -50.5 37.3 -54.65 45.8 -63.25 55.2 -70.05 L55.6 -70.0" fill="url(#gradient0)" fill-rule="evenodd" stroke="none"/>
    <path d="M85.65 -77.25 Q88.75 -84.95 97.1 -84.05 104.7 -83.25 105.4 -75.25 105.9 -69.05 101.95 -64.85 100.3 -63.05 97.85 -62.9 95.8 -62.7 94.05 -63.5 L97.45 -67.05 98.85 -69.0 99.9 -69.8 Q103.0 -77.35 96.05 -79.8 L93.1 -80.2 92.85 -80.3 92.4 -80.1 91.0 -79.7 90.25 -79.2 85.65 -77.25 M109.7 -89.55 Q111.85 -90.4 114.1 -90.6 L114.3 -90.7 115.8 -90.55 116.25 -90.65 116.95 -90.4 117.3 -90.3 Q117.65 -89.55 118.25 -88.95 L118.25 -88.9 109.8 -89.25 109.7 -89.55 M96.35 -86.85 Q98.25 -89.1 100.8 -90.85 106.4 -94.75 113.15 -95.95 L117.95 -95.75 120.95 -95.35 Q129.4 -93.3 131.1 -85.4 131.4 -84.15 130.65 -83.0 129.15 -80.7 126.85 -79.25 L120.5 -77.5 Q119.3 -77.15 118.2 -76.4 L117.15 -77.55 Q115.8 -78.45 114.25 -78.8 L113.8 -78.8 Q113.05 -78.35 113.45 -77.5 120.65 -73.65 118.9 -65.6 L117.9 -64.45 116.8 -64.0 116.6 -63.9 115.85 -64.0 115.3 -64.15 Q112.35 -68.1 107.25 -67.35 L106.45 -67.9 106.5 -68.1 Q109.15 -77.7 102.55 -83.9 100.0 -86.25 96.45 -86.3 L96.35 -86.85 M110.2 -87.9 Q114.4 -88.3 118.5 -87.0 L120.0 -87.1 Q120.5 -89.7 118.3 -91.65 109.75 -93.6 103.85 -87.05 L104.05 -86.4 104.15 -86.2 Q106.85 -87.2 109.85 -87.85 L110.2 -87.9 M-116.45 73.2 Q-117.35 76.65 -115.75 79.75 -111.5 87.75 -101.55 87.7 L-101.3 87.7 -101.05 88.65 Q-103.1 93.4 -100.05 97.25 L-100.05 97.8 -100.15 98.6 -100.3 98.75 -101.05 99.7 Q-101.8 99.9 -102.4 100.35 -110.65 99.9 -112.45 91.95 -113.15 91.35 -113.8 91.95 L-113.95 92.35 Q-114.0 93.95 -113.5 95.5 L-112.65 96.85 -114.35 98.75 -117.7 104.4 Q-119.7 106.25 -122.3 107.1 L-124.75 106.9 Q-131.95 103.15 -131.7 94.45 L-131.25 91.45 Q-131.0 89.05 -130.2 86.75 -127.25 80.6 -122.0 76.2 -119.65 74.2 -116.95 72.95 L-116.45 73.2 M-101.45 80.9 L-100.4 80.1 Q-99.3 79.85 -98.15 79.25 L-93.85 76.95 Q-93.55 78.8 -94.25 80.75 -95.05 83.05 -97.2 84.2 -102.3 86.9 -108.15 84.75 -115.7 82.0 -114.45 74.45 -113.1 66.15 -104.85 65.15 L-107.95 69.1 -108.65 69.7 -109.4 70.95 -109.7 71.3 -109.7 71.6 Q-110.2 73.0 -110.1 74.55 -109.55 81.9 -101.45 80.9 M-118.4 80.65 L-118.55 80.5 -119.15 80.15 Q-127.0 84.15 -127.4 92.9 -126.1 95.55 -123.45 95.75 -122.95 95.15 -122.95 94.3 -123.1 90.0 -121.65 86.05 L-121.5 85.7 Q-120.05 83.0 -118.4 80.65 M-123.1 85.15 L-122.85 85.3 Q-124.7 89.2 -124.75 93.55 L-124.8 93.55 -125.85 92.25 -125.85 91.9 -125.9 91.15 -125.7 90.75 Q-125.4 90.05 -125.4 89.25 L-125.3 89.1 Q-124.5 87.0 -123.1 85.15" fill="#ffffff" fill-rule="evenodd" stroke="none"/>
    <path d="M91.55 -78.05 Q97.4 -80.1 98.95 -74.15 L98.3 -71.3 92.15 -64.85 91.95 -65.05 91.55 -64.8 91.15 -64.35 91.2 -63.85 83.65 -56.05 81.45 -59.65 Q76.25 -65.65 69.85 -68.65 75.3 -70.5 80.9 -72.8 85.8 -74.8 90.4 -77.4 L90.5 -77.4 90.75 -77.6 91.55 -78.05" fill="url(#gradient1)" fill-rule="evenodd" stroke="none"/>
    <path d="M-22.7 -94.1 Q-16.15 -87.1 -11.35 -78.8 L-7.05 -69.7 Q-5.7 -66.7 -4.75 -63.5 -16.55 -62.25 -27.6 -57.3 L-32.55 -54.85 Q-32.75 -55.95 -33.7 -56.8 -36.45 -59.25 -39.7 -61.35 -52.3 -69.55 -66.6 -73.0 -68.7 -73.55 -70.15 -75.15 -71.9 -77.1 -73.05 -79.25 L-73.1 -79.8 Q-74.4 -93.6 -63.25 -101.65 -53.35 -108.85 -41.6 -105.8 -41.2 -105.85 -40.9 -106.15 -38.65 -105.3 -36.55 -103.95 -32.75 -102.7 -29.45 -100.2 -25.8 -97.45 -22.7 -94.1" fill="url(#gradient2)" fill-rule="evenodd" stroke="none"/>
    <path d="M32.8 -54.05 L32.65 -53.8 30.3 -51.4 30.05 -51.25 29.95 -51.15 29.85 -50.95 28.8 -49.75 Q27.5 -48.75 26.5 -47.45 24.95 -45.5 24.0 -43.4 20.8 -31.05 31.15 -24.5 36.3 -21.2 42.0 -20.4 L51.75 -20.75 Q52.95 -14.85 52.3 -8.75 51.35 0.65 48.35 9.65 42.7 26.7 29.4 38.85 L27.05 41.1 22.9 44.05 Q14.55 49.55 4.8 52.3 -19.75 59.2 -43.2 50.9 L-41.45 47.55 Q-39.05 42.85 -38.45 38.05 -37.75 32.35 -39.55 26.5 -43.15 14.8 -55.9 14.6 -58.2 15.0 -60.45 15.95 -62.0 16.6 -63.3 17.55 L-64.7 18.3 -64.95 18.3 -65.05 18.35 -65.3 18.6 -68.25 20.2 -68.65 20.25 Q-70.15 12.75 -69.75 5.15 -69.2 5.05 -69.0 4.45 -68.85 4.2 -69.1 4.1 L-69.65 3.85 Q-69.35 -0.85 -68.3 -5.65 -65.4 -18.65 -58.1 -29.85 -52.1 -38.95 -43.35 -45.65 -36.55 -50.9 -28.7 -54.5 -21.25 -57.9 -13.3 -59.95 3.25 -64.15 19.5 -59.55 26.6 -57.55 32.8 -54.05" fill="url(#gradient3)" fill-rule="evenodd" stroke="none"/>
    <path d="M-99.15 -71.2 Q-87.7 -73.55 -81.8 -65.15 -80.95 -63.6 -80.8 -61.8 -79.75 -50.45 -75.15 -40.1 L-75.05 -39.75 Q-74.6 -38.3 -73.65 -37.1 -70.05 -29.45 -62.5 -25.65 L-64.1 -22.55 Q-67.7 -15.3 -69.7 -7.55 L-71.05 -0.6 -71.45 3.05 Q-79.55 -0.7 -86.95 -6.2 -99.4 -15.4 -108.15 -27.75 -116.65 -39.85 -115.95 -54.2 L-115.7 -55.0 Q-115.45 -55.7 -115.45 -56.5 L-114.55 -58.1 Q-110.45 -68.9 -99.15 -71.2" fill="url(#gradient4)" fill-rule="evenodd" stroke="none"/>
    <path d="M-60.75 18.2 L-57.9 17.4 Q-45.9 15.3 -41.05 26.05 -40.2 30.3 -40.4 34.65 L-40.7 38.05 Q-41.6 43.85 -44.55 49.2 -50.1 59.15 -55.95 68.8 -56.4 69.0 -56.7 69.4 L-59.1 72.1 -59.25 72.3 Q-61.05 73.2 -63.05 73.5 -69.1 74.45 -74.55 72.65 -81.1 70.55 -85.05 64.8 -93.75 52.2 -89.95 38.05 L-89.85 37.7 Q-80.8 30.45 -70.25 24.45 -65.15 21.6 -60.75 18.2" fill="url(#gradient5)" fill-rule="evenodd" stroke="none"/>
    <path d="M-106.3 69.75 Q-102.55 66.0 -99.3 61.75 -95.6 56.95 -92.4 52.2 -91.15 59.2 -86.75 65.75 L-83.9 68.85 -93.4 74.1 -93.9 73.9 -94.4 74.15 -94.75 74.45 -94.6 74.75 -102.45 79.0 -105.4 78.8 Q-110.7 75.75 -107.2 70.65 L-106.55 70.0 -106.3 69.8 -106.3 69.75" fill="url(#gradient6)" fill-rule="evenodd" stroke="none"/>
  </g>
  <defs>
    <linearGradient gradientTransform="matrix(-0.0125, -0.0217, 0.0251, -0.0146, 60.9, -43.1)" gradientUnits="userSpaceOnUse" id="gradient0" spreadMethod="pad" x1="-819.2" x2="819.2">
      <stop offset="0.0" stop-color="#981d07"/>
      <stop offset="1.0" stop-color="#f02d0b"/>
    </linearGradient>
    <linearGradient gradientTransform="matrix(0.0097, 0.0108, -0.0102, 0.0092, 84.45, -67.3)" gradientUnits="userSpaceOnUse" id="gradient1" spreadMethod="pad" x1="-819.2" x2="819.2">
      <stop offset="0.0" stop-color="#54b4cc"/>
      <stop offset="1.0" stop-color="#205e6c"/>
    </linearGradient>
    <linearGradient gradientTransform="matrix(-0.0118, 0.026, -0.0288, -0.013, -39.0, -80.8)" gradientUnits="userSpaceOnUse" id="gradient2" spreadMethod="pad" x1="-819.2" x2="819.2">
      <stop offset="0.0" stop-color="#54b4cc"/>
      <stop offset="1.0" stop-color="#205e6c"/>
    </linearGradient>
    <linearGradient gradientTransform="matrix(-0.0258, -0.0403, 0.0603, -0.0385, -7.45, 1.25)" gradientUnits="userSpaceOnUse" id="gradient3" spreadMethod="pad" x1="-819.2" x2="819.2">
      <stop offset="0.0" stop-color="#981d07"/>
      <stop offset="1.0" stop-color="#f02d0b"/>
    </linearGradient>
    <linearGradient gradientTransform="matrix(0.0221, -0.0078, 0.0153, 0.043, -89.25, -34.35)" gradientUnits="userSpaceOnUse" id="gradient4" spreadMethod="pad" x1="-819.2" x2="819.2">
      <stop offset="0.0" stop-color="#54b4cc"/>
      <stop offset="1.0" stop-color="#205e6c"/>
    </linearGradient>
    <linearGradient gradientTransform="matrix(-0.017, -0.0173, 0.0247, -0.0242, -58.55, 50.2)" gradientUnits="userSpaceOnUse" id="gradient5" spreadMethod="pad" x1="-819.2" x2="819.2">
      <stop offset="0.0" stop-color="#981d07"/>
      <stop offset="1.0" stop-color="#f02d0b"/>
    </linearGradient>
    <linearGradient gradientTransform="matrix(0.0085, 0.0099, -0.0124, 0.0106, -94.7, 66.6)" gradientUnits="userSpaceOnUse" id="gradient6" spreadMethod="pad" x1="-819.2" x2="819.2">
      <stop offset="0.0" stop-color="#54b4cc"/>
      <stop offset="1.0" stop-color="#205e6c"/>
    </linearGradient>
  </defs>
</svg>
