<?xml version="1.0" encoding="UTF-8" standalone="no"?>
<svg xmlns:xlink="http://www.w3.org/1999/xlink" height="17.25px" width="14.95px" xmlns="http://www.w3.org/2000/svg">
  <g transform="matrix(1.0, 0.0, 0.0, 1.0, 7.45, 8.6)">
    <path d="M-5.55 -1.65 Q-6.25 -2.8 -7.3 -3.65 L-7.35 -3.65 -7.4 -3.7 -7.45 -3.75 -7.4 -3.85 -7.3 -3.95 -4.65 -6.4 -4.6 -6.45 -2.3 -8.5 -2.25 -8.55 -2.2 -8.6 -2.15 -8.6 -2.1 -8.55 -2.0 -8.45 -1.55 -7.75 -1.5 -7.5 Q-0.2 -4.7 -0.25 -1.6 L-0.2 1.35 Q-0.2 2.55 -0.65 3.5 0.7 2.25 2.7 2.25 L2.95 2.35 Q5.15 2.85 6.5 4.65 7.45 6.0 7.45 7.55 L7.45 7.6 7.45 7.65 7.4 7.65 7.3 7.65 6.85 7.8 6.8 7.85 6.7 7.85 5.4 8.2 5.4 8.25 5.4 8.3 5.2 8.3 5.15 8.3 4.25 8.45 3.15 8.55 -3.4 8.0 -4.2 7.6 -4.35 7.5 -4.4 7.55 -4.5 7.65 -4.55 7.6 -4.65 7.55 -4.7 7.5 -4.7 7.4 -4.55 7.15 -4.45 6.65 Q-4.1 3.9 -4.55 1.2 -4.8 -0.4 -5.55 -1.65 M-0.85 -3.9 Q-1.2 -6.15 -2.15 -8.2 L-4.65 -6.0 -4.7 -5.95 -5.3 -5.45 -6.35 -4.5 -7.0 -3.85 -6.75 -3.75 -6.2 -3.25 -5.55 -2.35 Q-4.95 -1.5 -4.65 -0.5 -3.9 2.25 -3.85 5.2 -3.8 6.3 -4.2 7.2 L-2.2 7.8 -2.0 7.85 1.0 8.2 5.05 7.9 4.75 7.2 4.0 6.15 Q3.6 5.75 3.65 5.4 L3.85 5.55 3.9 5.55 5.0 6.85 5.05 7.0 5.35 7.85 5.45 7.85 6.6 7.55 5.75 5.4 5.75 5.35 5.7 5.3 5.3 4.7 5.4 4.8 5.75 5.15 6.4 6.05 6.75 7.1 6.85 7.5 6.9 7.45 7.25 7.35 7.2 7.2 6.7 5.7 Q6.05 4.3 4.75 3.5 L4.3 3.2 Q3.55 2.8 2.7 2.75 0.5 2.65 -1.0 4.35 L-1.1 4.3 -1.2 4.25 -1.25 4.2 -1.25 4.15 -1.2 4.1 -1.1 4.05 -1.15 3.95 -1.2 3.9 -1.15 3.8 -1.05 3.55 -0.6 0.4 -0.6 -0.7 -0.6 -0.75 -0.6 -0.85 -0.75 -3.0 -0.85 -3.9" fill="#000000" fill-rule="evenodd" stroke="none"/>
    <path d="M-6.75 -3.75 L-7.0 -3.85 -6.35 -4.5 -5.3 -5.45 -4.7 -5.95 -4.65 -6.0 -2.15 -8.2 Q-1.2 -6.15 -0.85 -3.9 L-6.75 -3.75 M-0.6 -0.75 L-0.6 -0.7 -0.6 0.4 -1.15 3.8 -1.2 3.9 -1.15 3.95 -1.2 4.1 -1.25 4.15 -1.25 4.2 -1.2 4.25 -1.1 4.3 -1.0 4.35 Q0.5 2.65 2.7 2.75 3.55 2.8 4.3 3.2 L4.75 3.5 Q6.1 4.5 7.0 6.7 L6.65 6.0 6.4 6.05 5.75 5.15 5.6 4.95 5.35 4.7 5.4 4.8 5.3 4.7 5.7 5.3 Q6.25 6.9 6.2 7.35 6.1 7.8 5.15 7.2 L5.05 7.0 5.0 6.85 3.9 5.55 3.85 5.5 3.85 5.55 3.65 5.4 Q3.6 5.75 4.0 6.15 4.35 8.15 1.5 7.75 -1.25 7.4 -3.05 6.2 -2.9 1.75 -3.15 0.4 L-1.4 -0.2 Q-0.65 -0.55 -0.6 -0.75 M-1.2 4.25 L-1.25 4.3 -1.2 4.25" fill="#d885fd" fill-rule="evenodd" stroke="none"/>
    <path d="M-0.85 -3.9 L-0.75 -3.0 -0.6 -0.85 -0.6 -0.75 Q-0.65 -0.55 -1.4 -0.2 L-3.15 0.4 Q-2.9 1.75 -3.05 6.2 -1.25 7.4 1.5 7.75 4.35 8.15 4.0 6.15 L4.75 7.2 5.05 7.9 1.0 8.2 -2.2 7.8 -4.2 7.2 Q-3.8 6.3 -3.85 5.2 -3.9 2.25 -4.65 -0.5 -4.95 -1.5 -5.55 -2.35 L-6.2 -3.25 -6.75 -3.75 -0.85 -3.9 M7.2 7.2 L7.25 7.35 6.9 7.45 6.75 7.1 6.4 6.05 6.65 6.0 7.0 6.7 7.2 7.2 M5.7 5.3 L5.75 5.35 5.75 5.4 6.6 7.55 5.45 7.85 5.15 7.2 Q6.1 7.8 6.2 7.35 6.25 6.9 5.7 5.3 M3.9 5.55 L3.85 5.55 3.85 5.5 3.9 5.55" fill="#ce66f9" fill-rule="evenodd" stroke="none"/>
    <path d="M-5.55 -1.65 Q-4.8 -0.4 -4.55 1.2 -4.1 3.9 -4.45 6.65 L-4.55 7.15 Q-3.8 1.6 -5.55 -1.65 M-4.4 7.55 L-4.35 7.5 -4.2 7.6 -4.4 7.55 M4.25 8.45 L5.15 8.3 5.2 8.3 4.25 8.45 M5.4 8.3 L5.4 8.25 5.4 8.2 6.7 7.85 6.8 7.85 6.85 7.8 7.3 7.65 7.4 7.65 5.4 8.3 M7.45 7.6 L7.45 7.55 7.5 7.6 7.45 7.6 M-0.6 0.4 L-1.05 3.55 -1.15 3.8 -0.6 0.4 M-1.15 3.95 L-1.1 4.05 -1.2 4.1 -1.15 3.95 M4.75 3.5 Q6.05 4.3 6.7 5.7 L7.2 7.2 7.0 6.7 Q6.1 4.5 4.75 3.5 M6.9 7.45 L6.85 7.5 6.75 7.1 6.9 7.45 M5.75 5.15 L5.4 4.8 5.35 4.7 5.6 4.95 5.75 5.15 M5.45 7.85 L5.35 7.85 5.05 7.0 5.15 7.2 5.45 7.85 M1.0 8.2 L-2.0 7.85 -2.2 7.8 1.0 8.2 M-1.2 4.25 L-1.25 4.3 -1.2 4.25" fill="#550022" fill-rule="evenodd" stroke="none"/>
  </g>
</svg>
