<?xml version="1.0" encoding="UTF-8" standalone="no"?>
<svg xmlns:xlink="http://www.w3.org/1999/xlink" height="30.2px" width="183.35px" xmlns="http://www.w3.org/2000/svg">
  <g transform="matrix(1.0, 0.0, 0.0, 1.0, 91.65, 15.1)">
    <path d="M-77.4 -3.35 Q-75.85 -0.1 -73.55 6.4 L-76.3 8.45 -78.15 9.75 -79.3 7.7 -80.7 4.55 -83.35 4.9 Q-84.85 5.1 -85.55 5.75 -85.9 6.0 -86.4 7.4 -86.85 8.65 -87.1 8.65 L-88.3 8.15 -89.65 7.5 -83.2 -10.15 -81.9 -10.55 Q-81.55 -10.55 -79.6 -7.3 L-77.4 -3.35 M-83.1 -0.45 L-80.75 -0.75 Q-81.3 -2.55 -82.2 -3.95 L-83.1 -0.45" fill="#000000" fill-rule="evenodd" stroke="none"/>
    <path d="M-77.4 -3.35 Q-75.85 -0.1 -73.55 6.4 L-76.3 8.45 -78.15 9.75 -79.3 7.7 -80.7 4.55 -83.35 4.9 Q-84.85 5.1 -85.55 5.75 -85.9 6.0 -86.4 7.4 -86.85 8.65 -87.1 8.65 L-88.3 8.15 -89.65 7.5 -83.2 -10.15 -81.9 -10.55 Q-81.55 -10.55 -79.6 -7.3 L-77.4 -3.35 M-83.1 -0.45 L-80.75 -0.75 Q-81.3 -2.55 -82.2 -3.95 L-83.1 -0.45" fill="none" stroke="#000000" stroke-linecap="round" stroke-linejoin="round" stroke-width="4.0"/>
    <path d="M-62.4 -8.7 Q-61.8 -7.45 -61.8 -6.65 -61.8 -2.8 -65.4 -0.05 -61.65 1.85 -61.65 5.45 -61.65 6.65 -62.6 8.45 -63.6 10.4 -64.65 10.7 L-68.95 11.55 -71.9 11.85 -73.1 11.85 -73.1 -5.5 -72.75 -12.2 -71.4 -12.1 -69.05 -12.2 -68.9 -9.25 Q-68.4 -9.85 -66.5 -10.05 L-63.8 -10.05 Q-63.05 -10.05 -62.4 -8.7 M-65.95 -5.95 L-66.8 -6.55 Q-67.7 -6.5 -68.8 -5.65 L-68.8 -2.7 -67.05 -3.7 Q-66.05 -4.55 -65.95 -5.95 M-67.1 5.65 Q-67.75 4.75 -68.1 4.75 L-70.35 4.75 -70.55 5.45 -70.3 6.8 Q-70.0 7.75 -69.55 7.75 L-68.45 7.1 Q-67.45 6.35 -67.1 5.65" fill="#000000" fill-rule="evenodd" stroke="none"/>
    <path d="M-62.4 -8.7 Q-61.8 -7.45 -61.8 -6.65 -61.8 -2.8 -65.4 -0.05 -61.65 1.85 -61.65 5.45 -61.65 6.65 -62.6 8.45 -63.6 10.4 -64.65 10.7 L-68.95 11.55 -71.9 11.85 -73.1 11.85 -73.1 -5.5 -72.75 -12.2 -71.4 -12.1 -69.05 -12.2 -68.9 -9.25 Q-68.4 -9.85 -66.5 -10.05 L-63.8 -10.05 Q-63.05 -10.05 -62.4 -8.7 M-65.95 -5.95 L-66.8 -6.55 Q-67.7 -6.5 -68.8 -5.65 L-68.8 -2.7 -67.05 -3.7 Q-66.05 -4.55 -65.95 -5.95 M-67.1 5.65 Q-67.75 4.75 -68.1 4.75 L-70.35 4.75 -70.55 5.45 -70.3 6.8 Q-70.0 7.75 -69.55 7.75 L-68.45 7.1 Q-67.45 6.35 -67.1 5.65" fill="none" stroke="#000000" stroke-linecap="round" stroke-linejoin="round" stroke-width="4.0"/>
    <path d="M-51.85 -0.35 Q-51.85 2.4 -53.35 4.3 -54.65 6.0 -56.0 6.0 -58.0 5.95 -59.65 4.35 -61.65 2.4 -61.65 -1.15 -61.65 -4.0 -59.8 -5.65 -58.35 -6.9 -56.65 -6.9 -54.35 -6.9 -53.0 -4.7 -51.85 -2.8 -51.85 -0.35 M-55.3 -1.8 L-56.4 -2.15 -57.5 -2.5 -58.1 1.05 -55.85 1.95 Q-55.7 1.75 -55.5 0.1 L-55.3 -1.8" fill="#000000" fill-rule="evenodd" stroke="none"/>
    <path d="M-51.85 -0.35 Q-51.85 2.4 -53.35 4.3 -54.65 6.0 -56.0 6.0 -58.0 5.95 -59.65 4.35 -61.65 2.4 -61.65 -1.15 -61.65 -4.0 -59.8 -5.65 -58.35 -6.9 -56.65 -6.9 -54.35 -6.9 -53.0 -4.7 -51.85 -2.8 -51.85 -0.35 M-55.3 -1.8 L-56.4 -2.15 -57.5 -2.5 -58.1 1.05 -55.85 1.95 Q-55.7 1.75 -55.5 0.1 L-55.3 -1.8" fill="none" stroke="#000000" stroke-linecap="round" stroke-linejoin="round" stroke-width="4.0"/>
    <path d="M-41.0 -7.2 L-41.0 -7.45 -41.0 -7.75 Q-41.0 -8.15 -40.7 -8.15 L-39.3 -7.85 -37.8 -7.55 Q-37.45 -5.15 -37.45 -3.9 -37.45 1.2 -38.9 4.65 -40.95 9.4 -45.3 9.4 -47.8 9.4 -49.7 7.35 -52.0 4.95 -52.0 0.9 -52.0 -0.65 -50.95 -5.1 -49.85 -9.8 -49.25 -9.8 L-46.35 -8.05 Q-46.85 -6.8 -46.95 -5.4 L-47.05 -2.65 Q-47.05 2.55 -44.3 2.6 -43.55 2.55 -42.35 1.7 -41.35 0.9 -41.0 -0.8 L-40.7 -2.7 -40.5 -4.6 -40.75 -5.95 -41.0 -7.2" fill="#000000" fill-rule="evenodd" stroke="none"/>
    <path d="M-41.0 -7.2 L-41.0 -7.45 -41.0 -7.75 Q-41.0 -8.15 -40.7 -8.15 L-39.3 -7.85 -37.8 -7.55 Q-37.45 -5.15 -37.45 -3.9 -37.45 1.2 -38.9 4.65 -40.95 9.4 -45.3 9.4 -47.8 9.4 -49.7 7.35 -52.0 4.95 -52.0 0.9 -52.0 -0.65 -50.95 -5.1 -49.85 -9.8 -49.25 -9.8 L-46.35 -8.05 Q-46.85 -6.8 -46.95 -5.4 L-47.05 -2.65 Q-47.05 2.55 -44.3 2.6 -43.55 2.55 -42.35 1.7 -41.35 0.9 -41.0 -0.8 L-40.7 -2.7 -40.5 -4.6 -40.75 -5.95 -41.0 -7.2 Z" fill="none" stroke="#000000" stroke-linecap="round" stroke-linejoin="round" stroke-width="4.0"/>
    <path d="M-23.65 -6.3 L-26.2 -5.15 Q-27.9 -4.2 -28.45 -3.05 L-27.1 7.45 Q-30.1 8.35 -32.0 9.4 L-32.55 -1.65 Q-32.75 -1.95 -33.1 -1.95 L-34.25 -1.5 Q-35.05 -1.0 -35.25 -1.0 L-36.1 -0.75 Q-36.7 -0.45 -36.95 -0.5 L-38.05 -0.5 Q-37.9 -1.0 -37.9 -2.45 L-38.05 -6.15 -25.65 -10.6 -24.2 -10.6 -23.65 -6.3" fill="#000000" fill-rule="evenodd" stroke="none"/>
    <path d="M-23.65 -6.3 L-26.2 -5.15 Q-27.9 -4.2 -28.45 -3.05 L-27.1 7.45 Q-30.1 8.35 -32.0 9.4 L-32.55 -1.65 Q-32.75 -1.95 -33.1 -1.95 L-34.25 -1.5 Q-35.05 -1.0 -35.25 -1.0 L-36.1 -0.75 Q-36.7 -0.45 -36.95 -0.5 L-38.05 -0.5 Q-37.9 -1.0 -37.9 -2.45 L-38.05 -6.15 -25.65 -10.6 -24.2 -10.6 -23.65 -6.3 Z" fill="none" stroke="#000000" stroke-linecap="round" stroke-linejoin="round" stroke-width="4.0"/>
    <path d="M1.4 -6.3 Q-0.35 -5.6 -1.15 -5.15 -2.85 -4.2 -3.4 -3.05 L-2.05 7.45 Q-5.05 8.35 -6.95 9.4 L-7.5 -1.65 Q-7.7 -1.95 -8.05 -1.95 L-9.2 -1.5 Q-10.0 -1.0 -10.2 -1.0 L-11.05 -0.75 -11.9 -0.5 -13.0 -0.5 Q-12.85 -1.0 -12.85 -2.45 L-13.0 -6.15 -0.6 -10.6 0.85 -10.6 1.4 -6.3" fill="#000000" fill-rule="evenodd" stroke="none"/>
    <path d="M1.4 -6.3 Q-0.35 -5.6 -1.15 -5.15 -2.85 -4.2 -3.4 -3.05 L-2.05 7.45 Q-5.05 8.35 -6.95 9.4 L-7.5 -1.65 Q-7.7 -1.95 -8.05 -1.95 L-9.2 -1.5 Q-10.0 -1.0 -10.2 -1.0 L-11.05 -0.75 -11.9 -0.5 -13.0 -0.5 Q-12.85 -1.0 -12.85 -2.45 L-13.0 -6.15 -0.6 -10.6 0.85 -10.6 1.4 -6.3 Z" fill="none" stroke="#000000" stroke-linecap="round" stroke-linejoin="round" stroke-width="4.0"/>
    <path d="M10.45 -0.35 Q10.45 2.4 8.95 4.3 7.65 6.0 6.3 6.0 4.3 5.95 2.65 4.35 0.65 2.4 0.65 -1.15 0.65 -4.0 2.5 -5.65 3.95 -6.9 5.65 -6.9 7.95 -6.9 9.3 -4.7 10.45 -2.8 10.45 -0.35 M7.0 -1.8 Q6.75 -1.8 5.9 -2.15 L4.8 -2.5 4.2 1.05 6.45 1.95 6.8 0.1 7.0 -1.8" fill="#000000" fill-rule="evenodd" stroke="none"/>
    <path d="M10.45 -0.35 Q10.45 2.4 8.95 4.3 7.65 6.0 6.3 6.0 4.3 5.95 2.65 4.35 0.65 2.4 0.65 -1.15 0.65 -4.0 2.5 -5.65 3.95 -6.9 5.65 -6.9 7.95 -6.9 9.3 -4.7 10.45 -2.8 10.45 -0.35 M7.0 -1.8 Q6.75 -1.8 5.9 -2.15 L4.8 -2.5 4.2 1.05 6.45 1.95 6.8 0.1 7.0 -1.8" fill="none" stroke="#000000" stroke-linecap="round" stroke-linejoin="round" stroke-width="4.0"/>
    <path d="M20.15 -0.35 Q20.15 2.4 18.65 4.3 17.35 6.0 16.0 6.0 14.0 5.95 12.35 4.35 10.35 2.4 10.35 -1.15 10.35 -4.0 12.2 -5.65 13.65 -6.9 15.35 -6.9 17.65 -6.9 19.0 -4.7 20.15 -2.8 20.15 -0.35 M16.7 -1.8 L15.6 -2.15 14.5 -2.5 13.9 1.05 16.15 1.95 16.5 0.1 16.7 -1.8" fill="#000000" fill-rule="evenodd" stroke="none"/>
    <path d="M20.15 -0.35 Q20.15 2.4 18.65 4.3 17.35 6.0 16.0 6.0 14.0 5.95 12.35 4.35 10.35 2.4 10.35 -1.15 10.35 -4.0 12.2 -5.65 13.65 -6.9 15.35 -6.9 17.65 -6.9 19.0 -4.7 20.15 -2.8 20.15 -0.35 M16.7 -1.8 L15.6 -2.15 14.5 -2.5 13.9 1.05 16.15 1.95 16.5 0.1 16.7 -1.8" fill="none" stroke="#000000" stroke-linecap="round" stroke-linejoin="round" stroke-width="4.0"/>
    <path d="M33.95 -13.1 L33.95 7.65 Q33.25 7.95 31.45 9.1 L23.95 1.4 23.95 2.35 Q23.95 4.65 24.5 6.45 L24.5 7.4 22.55 8.85 21.0 9.9 Q20.65 9.95 20.45 7.05 L19.75 -7.0 Q23.05 -9.0 23.85 -9.0 24.1 -9.0 26.0 -5.7 28.1 -2.05 29.05 -1.05 L30.6 -11.85 33.95 -13.1" fill="#000000" fill-rule="evenodd" stroke="none"/>
    <path d="M33.95 -13.1 L33.95 7.65 Q33.25 7.95 31.45 9.1 L23.95 1.4 23.95 2.35 Q23.95 4.65 24.5 6.45 L24.5 7.4 22.55 8.85 21.0 9.9 Q20.65 9.95 20.45 7.05 L19.75 -7.0 Q23.05 -9.0 23.85 -9.0 24.1 -9.0 26.0 -5.7 28.1 -2.05 29.05 -1.05 L30.6 -11.85 33.95 -13.1 Z" fill="none" stroke="#000000" stroke-linecap="round" stroke-linejoin="round" stroke-width="4.0"/>
    <path d="M48.35 -6.3 L45.8 -5.15 Q44.1 -4.2 43.55 -3.05 L44.9 7.45 Q41.9 8.35 40.0 9.4 L39.45 -1.65 Q39.25 -1.95 38.9 -1.95 L37.75 -1.5 Q36.95 -1.0 36.75 -1.0 L35.9 -0.75 35.05 -0.5 33.95 -0.5 34.1 -2.45 33.95 -6.15 46.35 -10.6 47.8 -10.6 48.35 -6.3" fill="#000000" fill-rule="evenodd" stroke="none"/>
    <path d="M48.35 -6.3 L45.8 -5.15 Q44.1 -4.2 43.55 -3.05 L44.9 7.45 Q41.9 8.35 40.0 9.4 L39.45 -1.65 Q39.25 -1.95 38.9 -1.95 L37.75 -1.5 Q36.95 -1.0 36.75 -1.0 L35.9 -0.75 35.05 -0.5 33.95 -0.5 34.1 -2.45 33.95 -6.15 46.35 -10.6 47.8 -10.6 48.35 -6.3 Z" fill="none" stroke="#000000" stroke-linecap="round" stroke-linejoin="round" stroke-width="4.0"/>
    <path d="M57.4 -0.35 Q57.4 2.4 55.9 4.3 54.6 6.0 53.25 6.0 51.25 5.95 49.6 4.35 47.6 2.4 47.6 -1.15 47.6 -4.0 49.45 -5.65 50.9 -6.9 52.6 -6.9 54.9 -6.9 56.25 -4.7 57.4 -2.8 57.4 -0.35 M53.95 -1.8 L52.85 -2.15 51.75 -2.5 51.15 1.05 53.4 1.95 53.75 0.1 53.95 -1.8" fill="#000000" fill-rule="evenodd" stroke="none"/>
    <path d="M57.4 -0.35 Q57.4 2.4 55.9 4.3 54.6 6.0 53.25 6.0 51.25 5.95 49.6 4.35 47.6 2.4 47.6 -1.15 47.6 -4.0 49.45 -5.65 50.9 -6.9 52.6 -6.9 54.9 -6.9 56.25 -4.7 57.4 -2.8 57.4 -0.35 M53.95 -1.8 L52.85 -2.15 51.75 -2.5 51.15 1.05 53.4 1.95 53.75 0.1 53.95 -1.8" fill="none" stroke="#000000" stroke-linecap="round" stroke-linejoin="round" stroke-width="4.0"/>
    <path d="M74.7 12.3 L70.65 13.1 67.05 0.0 Q66.8 -0.1 66.7 0.2 65.35 6.15 64.05 10.35 62.5 10.45 60.3 9.75 57.8 -0.7 56.35 -7.65 L58.85 -8.8 59.9 -3.3 Q60.5 -0.45 61.25 2.2 L64.1 -9.0 Q64.45 -9.35 65.35 -9.35 L66.25 -9.25 67.15 -9.2 67.95 -9.3 70.5 2.7 72.15 -3.4 73.35 -9.6 76.2 -9.6 74.7 12.3" fill="#000000" fill-rule="evenodd" stroke="none"/>
    <path d="M74.7 12.3 L70.65 13.1 67.05 0.0 Q66.8 -0.1 66.7 0.2 65.35 6.15 64.05 10.35 62.5 10.45 60.3 9.75 57.8 -0.7 56.35 -7.65 L58.85 -8.8 59.9 -3.3 Q60.5 -0.45 61.25 2.2 L64.1 -9.0 Q64.45 -9.35 65.35 -9.35 L66.25 -9.25 67.15 -9.2 67.95 -9.3 70.5 2.7 72.15 -3.4 73.35 -9.6 76.2 -9.6 74.7 12.3 Z" fill="none" stroke="#000000" stroke-linecap="round" stroke-linejoin="round" stroke-width="4.0"/>
    <path d="M89.7 -13.1 L89.7 7.65 87.2 9.1 79.7 1.4 79.7 2.35 Q79.7 4.65 80.25 6.45 L80.25 7.4 78.3 8.85 76.75 9.9 Q76.4 9.95 76.2 7.05 L75.5 -7.0 Q78.8 -9.0 79.6 -9.0 L81.75 -5.7 Q83.85 -2.05 84.8 -1.05 L86.35 -11.85 89.7 -13.1" fill="#000000" fill-rule="evenodd" stroke="none"/>
    <path d="M89.7 -13.1 L89.7 7.65 87.2 9.1 79.7 1.4 79.7 2.35 Q79.7 4.65 80.25 6.45 L80.25 7.4 78.3 8.85 76.75 9.9 Q76.4 9.95 76.2 7.05 L75.5 -7.0 Q78.8 -9.0 79.6 -9.0 L81.75 -5.7 Q83.85 -2.05 84.8 -1.05 L86.35 -11.85 89.7 -13.1 Z" fill="none" stroke="#000000" stroke-linecap="round" stroke-linejoin="round" stroke-width="4.0"/>
    <path d="M-80.75 -0.75 Q-81.3 -2.55 -82.2 -3.95 L-83.1 -0.45 -80.75 -0.75 M-79.6 -7.3 L-77.4 -3.35 Q-75.85 -0.1 -73.55 6.4 L-76.3 8.45 -78.15 9.75 -79.3 7.7 -80.65 4.55 -83.35 4.9 Q-84.85 5.1 -85.55 5.75 -85.9 6.0 -86.4 7.4 -86.85 8.65 -87.1 8.65 L-88.3 8.15 -89.65 7.5 -83.2 -10.15 -81.9 -10.55 Q-81.55 -10.55 -79.6 -7.3" fill="#ffff00" fill-rule="evenodd" stroke="none"/>
    <path d="M-61.8 -6.6 Q-61.8 -2.8 -65.4 -0.05 -61.65 1.85 -61.65 5.45 -61.65 6.65 -62.6 8.45 -63.6 10.4 -64.65 10.7 L-68.95 11.55 -71.9 11.85 -73.1 11.85 -73.1 -5.5 -72.75 -12.2 -71.4 -12.1 -69.05 -12.2 -68.9 -9.25 Q-68.4 -9.85 -66.5 -10.0 L-63.8 -10.05 Q-63.05 -10.05 -62.4 -8.65 -61.8 -7.45 -61.8 -6.6 M-68.8 -2.7 L-67.05 -3.7 Q-66.05 -4.5 -65.95 -5.9 L-66.8 -6.5 Q-67.7 -6.5 -68.8 -5.6 L-68.8 -2.7 M-70.35 4.75 L-70.55 5.45 -70.3 6.8 Q-70.0 7.8 -69.55 7.8 L-68.45 7.15 Q-67.45 6.4 -67.1 5.7 -67.75 4.75 -68.1 4.75 L-70.35 4.75" fill="#ffff00" fill-rule="evenodd" stroke="none"/>
    <path d="M-56.4 -2.15 L-57.5 -2.5 -58.1 1.05 -55.85 1.95 Q-55.7 1.75 -55.5 0.1 L-55.3 -1.8 -56.4 -2.15 M-59.8 -5.65 Q-58.35 -6.9 -56.65 -6.9 -54.35 -6.9 -53.0 -4.7 -51.85 -2.8 -51.85 -0.35 -51.85 2.4 -53.35 4.3 -54.65 6.0 -56.0 6.0 -58.0 5.95 -59.65 4.35 -61.65 2.4 -61.65 -1.15 -61.65 -4.0 -59.8 -5.65" fill="#ffff00" fill-rule="evenodd" stroke="none"/>
    <path d="M-37.45 -3.9 Q-37.45 1.2 -38.9 4.65 -40.95 9.4 -45.3 9.4 -47.8 9.4 -49.7 7.35 -52.0 4.95 -52.0 0.9 -52.0 -0.65 -50.95 -5.1 -49.85 -9.8 -49.25 -9.8 L-46.35 -8.05 Q-46.85 -6.8 -46.95 -5.4 L-47.05 -2.65 Q-47.05 2.55 -44.3 2.6 -43.55 2.55 -42.35 1.7 -41.35 0.9 -41.0 -0.8 L-40.7 -2.7 -40.5 -4.6 -40.75 -5.95 -41.0 -7.2 -41.0 -7.45 -41.0 -7.75 Q-41.0 -8.15 -40.7 -8.15 L-39.3 -7.85 -37.8 -7.55 Q-37.45 -5.15 -37.45 -3.9" fill="#ffff00" fill-rule="evenodd" stroke="none"/>
    <path d="M-23.65 -6.3 L-26.2 -5.15 Q-27.95 -4.2 -28.45 -3.05 L-27.1 7.45 Q-30.1 8.35 -32.05 9.4 L-32.55 -1.65 -33.15 -1.95 -34.25 -1.5 Q-35.1 -1.0 -35.25 -1.0 L-36.1 -0.75 Q-36.7 -0.45 -36.95 -0.5 L-38.05 -0.5 -37.95 -2.45 -38.05 -6.15 -25.65 -10.6 -24.2 -10.6 -23.65 -6.3" fill="#ffff00" fill-rule="evenodd" stroke="none"/>
    <path d="M1.4 -6.3 Q-0.35 -5.6 -1.15 -5.15 -2.9 -4.2 -3.4 -3.05 L-2.05 7.45 Q-5.05 8.35 -7.0 9.4 L-7.5 -1.65 Q-7.7 -1.95 -8.1 -1.95 L-9.2 -1.5 Q-10.05 -1.0 -10.2 -1.0 L-11.05 -0.75 -11.9 -0.5 -13.0 -0.5 -12.9 -2.45 -13.0 -6.15 -0.6 -10.6 0.85 -10.6 1.4 -6.3" fill="#ffff00" fill-rule="evenodd" stroke="none"/>
    <path d="M5.9 -2.15 L4.8 -2.5 4.2 1.05 6.45 1.95 6.8 0.1 7.0 -1.8 Q6.75 -1.8 5.9 -2.15 M2.5 -5.65 Q3.95 -6.9 5.65 -6.9 7.95 -6.9 9.3 -4.7 10.45 -2.8 10.45 -0.35 10.45 2.4 8.95 4.3 7.65 6.0 6.3 6.0 4.3 5.95 2.65 4.35 0.65 2.4 0.65 -1.15 0.65 -4.0 2.5 -5.65" fill="#ffff00" fill-rule="evenodd" stroke="none"/>
    <path d="M15.6 -2.15 L14.5 -2.5 13.9 1.05 16.15 1.95 16.5 0.1 16.7 -1.8 15.6 -2.15 M12.2 -5.65 Q13.65 -6.9 15.35 -6.9 17.65 -6.9 19.0 -4.7 20.15 -2.8 20.15 -0.35 20.15 2.4 18.65 4.3 17.35 6.0 16.0 6.0 14.0 5.95 12.35 4.35 10.35 2.4 10.35 -1.15 10.35 -4.0 12.2 -5.65" fill="#ffff00" fill-rule="evenodd" stroke="none"/>
    <path d="M33.95 -13.05 L33.95 7.7 Q33.25 7.95 31.45 9.15 L23.95 1.45 23.95 2.4 Q23.95 4.7 24.55 6.5 L24.55 7.45 22.55 8.85 21.0 9.95 Q20.65 9.95 20.45 7.1 L19.75 -7.0 Q23.05 -9.0 23.85 -9.0 L26.0 -5.65 Q28.1 -2.0 29.05 -1.0 L30.6 -11.85 33.95 -13.05" fill="#ffff00" fill-rule="evenodd" stroke="none"/>
    <path d="M48.35 -6.3 L45.8 -5.15 Q44.05 -4.2 43.55 -3.05 L44.9 7.45 Q41.9 8.35 39.95 9.4 L39.45 -1.65 38.85 -1.95 37.75 -1.5 Q36.9 -1.0 36.75 -1.0 L35.9 -0.75 35.05 -0.5 33.95 -0.5 34.05 -2.45 33.95 -6.15 46.35 -10.6 47.8 -10.6 48.35 -6.3" fill="#ffff00" fill-rule="evenodd" stroke="none"/>
    <path d="M52.85 -2.15 L51.75 -2.5 51.15 1.05 53.4 1.95 53.75 0.1 53.95 -1.8 52.85 -2.15 M49.45 -5.65 Q50.9 -6.9 52.6 -6.9 54.9 -6.9 56.25 -4.7 57.4 -2.8 57.4 -0.35 57.4 2.4 55.9 4.3 54.6 6.0 53.25 6.0 51.25 5.95 49.6 4.35 47.6 2.4 47.6 -1.15 47.6 -4.0 49.45 -5.65" fill="#ffff00" fill-rule="evenodd" stroke="none"/>
    <path d="M76.2 -9.6 L74.65 12.3 70.6 13.1 67.0 0.0 Q66.8 -0.1 66.65 0.2 65.35 6.15 64.0 10.35 62.5 10.45 60.3 9.75 57.8 -0.7 56.35 -7.65 L58.85 -8.8 59.9 -3.3 61.2 2.2 64.1 -9.0 Q64.45 -9.35 65.35 -9.35 L66.25 -9.25 67.15 -9.2 67.95 -9.3 70.5 2.7 72.15 -3.4 73.35 -9.6 76.2 -9.6" fill="#ffff00" fill-rule="evenodd" stroke="none"/>
    <path d="M89.7 -13.05 L89.7 7.7 Q89.0 7.95 87.2 9.15 L79.7 1.45 79.7 2.4 Q79.7 4.7 80.3 6.5 L80.3 7.45 Q79.75 7.7 78.3 8.85 L76.75 9.95 Q76.4 9.95 76.2 7.1 L75.5 -7.0 Q78.8 -9.0 79.6 -9.0 L81.75 -5.65 Q83.85 -2.0 84.8 -1.0 L86.35 -11.85 89.7 -13.05" fill="#ffff00" fill-rule="evenodd" stroke="none"/>
  </g>
</svg>
