<?xml version="1.0" encoding="UTF-8" standalone="no"?>
<svg xmlns:xlink="http://www.w3.org/1999/xlink" height="31.1px" width="63.05px" xmlns="http://www.w3.org/2000/svg">
  <g transform="matrix(1.0, 0.0, 0.0, 1.0, -293.45, -511.85)">
    <path d="M307.55 517.8 Q308.2 519.2 308.2 520.1 308.2 524.45 304.1 527.55 308.35 529.65 308.35 533.7 308.35 535.1 307.3 537.1 306.15 539.3 305.0 539.65 L300.1 540.6 296.85 540.95 295.45 540.95 295.45 521.45 295.85 513.85 297.35 514.0 300.05 513.85 Q300.0 516.2 300.2 517.2 300.75 516.5 302.85 516.35 L305.95 516.25 Q306.8 516.25 307.55 517.8 M302.6 520.25 Q301.55 520.3 300.3 521.25 L300.3 524.55 302.3 523.45 Q303.4 522.5 303.55 520.95 302.8 520.25 302.6 520.25 M302.2 534.0 Q301.5 532.95 301.1 532.95 L298.55 532.95 Q298.3 533.25 298.3 533.75 298.3 534.4 298.6 535.3 298.95 536.35 299.5 536.35 L300.75 535.65 302.2 534.0" fill="#000000" fill-rule="evenodd" stroke="none"/>
    <path d="M307.55 517.8 Q308.2 519.2 308.2 520.1 308.2 524.45 304.1 527.55 308.35 529.65 308.35 533.7 308.35 535.1 307.3 537.1 306.15 539.3 305.0 539.65 L300.1 540.6 296.85 540.95 295.45 540.95 295.45 521.45 295.85 513.85 297.35 514.0 300.05 513.85 Q300.0 516.2 300.2 517.2 300.75 516.5 302.85 516.35 L305.95 516.25 Q306.8 516.25 307.55 517.8 M302.6 520.25 Q301.55 520.3 300.3 521.25 L300.3 524.55 302.3 523.45 Q303.4 522.5 303.55 520.95 302.8 520.25 302.6 520.25 M302.2 534.0 Q301.5 532.95 301.1 532.95 L298.55 532.95 Q298.3 533.25 298.3 533.75 298.3 534.4 298.6 535.3 298.95 536.35 299.5 536.35 L300.75 535.65 302.2 534.0" fill="none" stroke="#000000" stroke-linecap="round" stroke-linejoin="round" stroke-width="4.0"/>
    <path d="M321.6 523.9 Q323.3 527.6 325.9 534.85 L322.8 537.2 Q320.95 538.7 320.7 538.7 320.45 538.7 319.45 536.35 L317.85 532.8 314.85 533.2 Q313.15 533.4 312.35 534.15 312.0 534.4 311.45 536.0 L310.65 537.45 309.3 536.85 307.75 536.1 315.0 516.25 316.45 515.8 Q316.85 515.8 319.05 519.45 L321.6 523.9 M317.8 526.85 Q317.15 524.8 316.15 523.2 L315.1 527.2 317.8 526.85" fill="#000000" fill-rule="evenodd" stroke="none"/>
    <path d="M321.6 523.9 Q323.3 527.6 325.9 534.85 L322.8 537.2 Q320.95 538.7 320.7 538.7 320.45 538.7 319.45 536.35 L317.85 532.8 314.85 533.2 Q313.15 533.4 312.35 534.15 312.0 534.4 311.45 536.0 L310.65 537.45 309.3 536.85 307.75 536.1 315.0 516.25 316.45 515.8 Q316.85 515.8 319.05 519.45 L321.6 523.9 M317.8 526.85 Q317.15 524.8 316.15 523.2 L315.1 527.2 317.8 526.85" fill="none" stroke="#000000" stroke-linecap="round" stroke-linejoin="round" stroke-width="4.0"/>
    <path d="M336.4 523.3 Q330.15 523.3 330.15 526.65 330.15 530.25 333.65 530.25 L335.8 529.85 338.7 529.0 339.1 533.2 Q338.2 534.45 335.8 535.35 333.8 536.1 332.5 536.1 330.35 536.1 328.25 533.85 325.75 531.15 325.75 527.25 325.75 521.65 329.5 518.75 332.25 516.6 335.65 516.6 336.8 516.6 338.1 517.6 337.75 520.8 337.7 523.3 L336.4 523.3" fill="#000000" fill-rule="evenodd" stroke="none"/>
    <path d="M336.4 523.3 Q330.15 523.3 330.15 526.65 330.15 530.25 333.65 530.25 L335.8 529.85 338.7 529.0 339.1 533.2 Q338.2 534.45 335.8 535.35 333.8 536.1 332.5 536.1 330.35 536.1 328.25 533.85 325.75 531.15 325.75 527.25 325.75 521.65 329.5 518.75 332.25 516.6 335.65 516.6 336.8 516.6 338.1 517.6 337.75 520.8 337.7 523.3 L336.4 523.3 Z" fill="none" stroke="#000000" stroke-linecap="round" stroke-linejoin="round" stroke-width="4.0"/>
    <path d="M348.3 526.85 L351.65 528.15 Q353.35 529.0 354.5 530.3 354.4 530.9 352.0 534.1 L349.4 537.25 Q348.95 537.25 346.5 534.9 L343.65 532.0 343.95 534.7 344.2 537.4 344.2 538.75 Q343.35 538.9 340.25 540.0 L338.7 519.4 343.25 518.15 344.4 525.55 348.35 520.15 Q350.75 516.85 351.15 516.85 L351.9 517.6 352.8 518.85 348.3 526.85" fill="#000000" fill-rule="evenodd" stroke="none"/>
    <path d="M348.3 526.85 L351.65 528.15 Q353.35 529.0 354.5 530.3 354.4 530.9 352.0 534.1 L349.4 537.25 Q348.95 537.25 346.5 534.9 L343.65 532.0 343.95 534.7 344.2 537.4 344.2 538.75 Q343.35 538.9 340.25 540.0 L338.7 519.4 343.25 518.15 344.4 525.55 348.35 520.15 Q350.75 516.85 351.15 516.85 L351.9 517.6 352.8 518.85 348.3 526.85 Z" fill="none" stroke="#000000" stroke-linecap="round" stroke-linejoin="round" stroke-width="4.0"/>
    <path d="M307.55 517.85 Q308.2 519.2 308.2 520.15 308.2 524.45 304.1 527.55 308.35 529.7 308.35 533.75 308.35 535.1 307.3 537.1 306.15 539.3 305.0 539.65 L300.1 540.65 296.85 540.95 295.45 540.95 295.45 521.45 295.85 513.85 297.35 514.0 300.05 513.85 Q300.0 516.2 300.2 517.2 300.75 516.55 302.85 516.35 L305.95 516.25 Q306.8 516.3 307.55 517.85 M300.3 524.6 L302.3 523.45 Q303.4 522.55 303.55 520.95 L302.6 520.3 Q301.55 520.3 300.3 521.3 L300.3 524.6 M302.2 534.0 Q301.5 533.0 301.1 532.95 L298.55 532.95 Q298.3 533.25 298.3 533.75 298.3 534.4 298.6 535.3 298.95 536.4 299.5 536.4 L300.75 535.65 302.2 534.0" fill="#ffff00" fill-rule="evenodd" stroke="none"/>
    <path d="M321.6 523.9 Q323.3 527.6 325.9 534.85 L322.8 537.2 Q320.95 538.7 320.7 538.7 320.45 538.7 319.45 536.35 L317.85 532.8 314.85 533.2 Q313.15 533.4 312.35 534.15 312.0 534.4 311.45 536.0 L310.65 537.45 309.3 536.85 307.75 536.1 315.0 516.25 316.45 515.8 Q316.85 515.8 319.05 519.45 L321.6 523.9 M317.8 526.85 Q317.15 524.8 316.15 523.2 L315.1 527.2 317.8 526.85" fill="#ffff00" fill-rule="evenodd" stroke="none"/>
    <path d="M336.4 523.3 Q330.15 523.3 330.15 526.65 330.15 530.25 333.65 530.25 L335.8 529.85 338.7 529.0 339.1 533.2 Q338.2 534.45 335.8 535.35 333.8 536.1 332.5 536.1 330.35 536.1 328.25 533.85 325.75 531.15 325.75 527.25 325.75 521.65 329.5 518.75 332.25 516.6 335.65 516.6 336.8 516.6 338.1 517.6 337.75 520.8 337.7 523.3 L336.4 523.3" fill="#ffff00" fill-rule="evenodd" stroke="none"/>
    <path d="M352.8 518.85 L348.35 526.85 351.65 528.15 Q353.35 529.0 354.55 530.3 354.4 530.9 352.05 534.1 349.7 537.25 349.4 537.25 349.0 537.25 346.5 534.9 L343.65 532.0 343.95 534.7 344.25 537.4 344.25 538.75 Q343.4 538.9 340.25 540.0 L338.7 519.4 343.25 518.15 344.4 525.55 348.35 520.15 Q350.8 516.85 351.15 516.85 L351.95 517.6 352.8 518.85" fill="#ffff00" fill-rule="evenodd" stroke="none"/>
  </g>
</svg>
