<?xml version="1.0" encoding="UTF-8" standalone="no"?>
<svg xmlns:xlink="http://www.w3.org/1999/xlink" height="23.9px" width="25.9px" xmlns="http://www.w3.org/2000/svg">
  <g transform="matrix(1.0, 0.0, 0.0, 1.0, 12.95, 11.95)">
    <path d="M1.85 8.9 L1.55 11.4 1.4 11.85 1.35 11.9 1.3 11.95 Q-0.15 11.95 -1.4 11.1 L-1.45 11.1 -1.5 11.15 -1.7 11.0 -2.0 8.95 -2.0 8.85 -2.05 8.75 -2.05 8.7 -2.1 8.7 -3.25 8.45 Q-6.55 7.55 -9.05 5.2 L-9.85 4.45 -10.25 3.75 -10.6 3.2 -10.75 3.05 -11.05 2.45 -11.15 2.3 Q-11.85 0.45 -12.05 -1.55 -12.25 -4.15 -11.45 -6.6 L-11.35 -6.8 -12.95 -8.45 -10.85 -11.5 -10.8 -11.45 -10.7 -11.5 -10.6 -11.5 -10.55 -11.45 -10.55 -11.35 -10.5 -11.3 -10.5 -11.2 -10.5 -11.1 -10.45 -11.05 -10.4 -11.0 -10.35 -10.85 -10.1 -10.45 -10.05 -10.6 -10.0 -10.7 -9.85 -11.8 -9.8 -11.9 -9.75 -11.9 -9.7 -11.95 -8.8 -11.85 -7.25 -11.8 -7.15 -11.8 -7.1 -11.75 -7.05 -11.55 -7.1 -10.25 -7.05 -10.1 -6.0 -10.35 Q-3.0 -10.45 -0.2 -9.3 2.0 -8.4 3.75 -6.85 L5.0 -5.4 Q7.15 -3.35 7.6 -0.4 L7.55 0.2 7.55 0.8 7.55 0.9 10.45 -0.75 Q11.05 -1.4 11.8 -1.65 L12.45 -1.5 12.55 -1.5 12.6 -1.4 12.75 -1.2 12.85 -1.1 12.8 0.15 12.7 0.4 12.65 0.75 12.65 0.7 12.75 0.75 12.8 0.8 Q13.4 2.6 11.55 3.35 10.35 3.8 9.5 4.7 L8.95 5.25 8.4 5.85 7.55 6.4 4.1 8.15 Q3.25 8.7 2.4 8.75 L1.85 8.75 1.85 8.9 M11.9 -1.2 L11.7 -1.15 11.3 -1.0 10.6 -0.5 9.4 0.25 9.3 0.3 9.15 0.4 8.15 1.0 7.9 1.1 7.4 1.3 7.3 1.3 7.25 1.2 7.2 1.35 7.0 1.4 Q7.2 0.7 7.05 -0.4 L6.25 -2.75 5.85 -3.35 Q5.35 -3.85 4.8 -3.6 4.1 -3.3 3.9 -2.2 L4.0 -1.6 Q4.2 -0.35 4.8 0.75 L5.4 1.6 5.3 1.6 4.75 0.85 Q4.15 -0.3 3.9 -1.7 3.65 -3.1 4.0 -3.95 4.35 -4.8 5.05 -4.5 L5.4 -4.3 5.2 -4.55 5.1 -4.6 4.9 -4.95 3.95 -5.2 3.05 -5.05 3.7 -5.4 4.6 -5.3 3.7 -6.3 Q1.25 -8.75 -2.1 -9.6 L-6.75 -9.85 -7.1 -9.75 Q-9.1 -9.2 -10.25 -7.7 L-11.25 -5.95 -11.65 -4.0 -11.7 -3.75 -11.65 -2.1 -11.65 -1.95 -11.6 -1.75 -11.15 1.0 -11.1 1.15 -10.9 1.9 -10.7 2.3 -10.15 3.25 -9.95 3.6 -9.5 4.25 -9.5 4.3 -7.9 5.75 -5.65 7.1 -3.8 7.8 -0.8 8.35 0.4 8.35 0.35 8.3 0.25 8.25 -0.1 7.65 Q-0.2 6.8 0.05 6.2 0.4 5.3 1.45 4.85 L1.8 4.75 Q0.4 4.4 -0.7 3.15 -1.8 1.9 -2.05 0.45 -2.35 -1.1 -1.45 -1.95 -0.55 -2.8 0.9 -2.4 2.25 -2.05 3.35 -0.8 4.5 0.4 4.75 1.9 L4.6 2.05 4.6 2.0 Q4.35 0.6 3.25 -0.65 2.15 -1.9 0.8 -2.2 L0.3 -2.3 Q-0.75 -1.65 -1.05 -0.15 -1.35 1.35 -0.75 2.75 L-0.5 3.0 Q0.55 4.25 1.9 4.6 L2.3 4.65 2.15 4.8 2.25 4.85 2.2 4.9 2.2 4.95 2.15 4.95 1.35 5.2 1.05 5.45 Q0.35 6.0 0.25 6.85 L0.3 7.75 0.45 8.0 0.7 8.1 3.0 8.3 4.3 7.75 6.05 6.85 6.85 6.35 8.3 5.35 8.6 5.05 9.3 4.5 9.65 4.2 10.0 3.85 10.5 3.5 Q11.25 3.05 11.7 2.85 L11.9 2.75 12.3 2.45 12.4 2.3 12.6 1.3 12.6 1.1 12.55 1.05 12.5 1.05 12.35 1.05 12.2 1.05 12.2 1.0 12.15 0.95 12.15 0.9 12.2 0.8 12.2 0.75 12.2 0.7 12.25 0.6 12.4 0.25 12.45 -0.3 12.45 -0.9 12.45 -1.0 12.35 -1.1 12.25 -1.2 11.9 -1.2 M6.65 1.45 L5.9 1.55 5.65 1.6 5.25 1.05 5.8 0.35 5.0 0.35 Q4.75 -0.7 5.25 -1.05 5.9 -1.6 6.5 -0.2 6.95 0.9 6.65 1.45 M-9.65 -10.1 L-9.65 -10.05 -9.65 -9.95 -9.7 -9.8 -9.85 -9.6 -9.95 -9.55 -10.05 -9.6 -10.1 -9.6 -10.15 -9.7 -10.15 -9.75 -10.2 -9.75 -10.2 -9.8 -10.3 -10.0 -10.45 -10.25 -10.8 -11.0 -10.85 -10.85 -12.45 -8.55 -12.1 -8.2 -11.15 -7.2 -11.05 -7.35 -11.05 -7.4 Q-9.8 -9.2 -7.8 -9.85 L-7.6 -10.0 -7.5 -10.0 -7.5 -10.15 -7.45 -11.35 -8.8 -11.45 -9.4 -11.45 -9.5 -11.45 -9.55 -11.2 -9.65 -10.1 M-3.35 -1.55 L-3.3 0.1 -3.8 -1.25 Q-3.75 -2.45 -3.15 -3.0 -2.7 -3.45 -1.5 -3.85 -3.05 -2.85 -3.35 -1.55 M4.85 -3.8 Q5.5 -4.05 5.9 -3.4 5.15 -4.7 4.45 -4.35 3.85 -3.95 3.9 -2.4 4.15 -3.5 4.85 -3.8 M-1.8 -1.05 Q-2.25 1.0 -0.7 2.85 -1.6 1.45 -1.3 -0.15 -1.0 -1.75 0.25 -2.35 -1.25 -2.55 -1.8 -1.05 M0.6 2.75 Q0.0 1.75 0.55 1.2 0.85 0.9 1.4 1.0 1.95 1.1 2.45 1.6 L3.1 2.7 Q3.2 3.3 2.9 3.6 2.25 4.3 1.15 3.35 L1.7 2.45 0.6 2.75 M1.5 8.85 L1.55 8.75 0.85 8.55 0.7 8.5 0.65 8.55 -1.7 8.75 Q-1.45 9.3 -1.45 10.05 L-1.35 10.7 Q-0.25 11.55 1.1 11.5 L1.2 11.05 1.45 9.25 1.45 8.95 1.5 8.85" fill="#000000" fill-rule="evenodd" stroke="none"/>
    <path d="M12.8 0.15 L12.75 0.75 12.65 0.7 12.65 0.75 12.7 0.4 12.8 0.15 M9.5 4.7 L9.05 5.25 8.5 5.8 8.4 5.85 8.95 5.25 9.5 4.7 M2.4 8.75 L1.9 8.9 1.85 8.9 1.85 8.75 2.4 8.75 M11.7 -1.15 L11.4 -0.95 10.85 -0.6 10.6 -0.5 11.3 -1.0 11.7 -1.15 M8.15 1.0 L7.55 1.4 7.35 1.6 6.05 3.0 7.3 1.35 6.95 1.4 7.0 1.4 7.2 1.35 7.3 1.3 7.4 1.3 7.9 1.1 8.15 1.0 M5.9 1.55 L5.0 1.8 Q4.8 1.85 3.85 3.2 L2.8 4.45 2.2 4.95 2.2 4.9 2.25 4.85 2.15 4.8 2.3 4.65 4.6 2.05 4.75 1.9 4.9 1.65 5.3 1.6 5.4 1.6 5.65 1.6 5.9 1.55 M2.25 4.95 L2.1 5.05 1.05 5.45 1.35 5.2 2.15 4.95 2.2 4.95 2.25 4.95 M0.25 6.85 Q0.25 7.55 0.7 8.1 L0.45 8.0 0.3 7.75 0.25 6.85 M9.65 4.2 L10.3 3.55 10.5 3.5 10.0 3.85 9.65 4.2 M11.7 2.85 L11.85 2.75 12.4 2.3 12.3 2.45 11.9 2.75 11.7 2.85 M12.6 1.1 L12.15 1.25 10.4 1.85 10.15 1.95 Q9.5 2.3 7.95 3.8 L7.55 4.15 Q6.65 5.0 5.2 5.85 L4.95 6.0 Q3.2 6.9 2.3 6.95 1.75 7.05 1.7 6.45 L1.85 6.7 2.25 6.85 Q4.1 6.8 7.4 3.95 L9.55 1.9 Q10.05 1.5 12.2 0.8 L12.15 0.9 12.15 0.95 12.2 1.0 12.2 1.05 12.35 1.05 12.5 1.05 12.55 1.05 12.6 1.1 M12.45 -0.9 Q12.3 -1.25 11.9 -1.2 L12.25 -1.2 12.35 -1.1 12.45 -1.0 12.45 -0.9 M0.85 8.55 L1.55 8.75 1.5 8.85 0.85 8.55" fill="#c02204" fill-rule="evenodd" stroke="none"/>
    <path d="M11.7 -1.15 L11.9 -1.2 Q12.3 -1.25 12.45 -0.9 L12.45 -0.3 12.4 0.25 12.25 0.6 11.2 0.8 Q9.9 1.2 8.4 2.35 5.75 5.25 3.15 6.55 5.35 5.8 8.1 3.2 9.0 2.1 9.95 1.6 10.75 1.1 12.2 0.75 L12.2 0.8 Q10.05 1.5 9.55 1.9 L7.4 3.95 Q4.1 6.8 2.25 6.85 L1.85 6.7 1.7 6.45 Q1.75 7.05 2.3 6.95 3.2 6.9 4.95 6.0 L5.2 5.85 3.9 6.6 Q6.5 5.5 7.9 4.2 9.9 2.35 10.65 1.95 L12.55 1.15 12.15 1.25 12.6 1.1 12.6 1.3 12.4 2.3 11.85 2.75 11.7 2.85 Q11.25 3.05 10.5 3.5 L10.3 3.55 9.65 4.2 9.3 4.5 10.35 3.45 11.6 2.85 Q12.3 2.5 12.55 1.95 L11.0 2.65 Q9.65 3.45 8.3 5.35 L6.85 6.35 Q1.1 8.75 0.6 7.95 L0.7 8.1 Q0.25 7.55 0.25 6.85 0.35 6.0 1.05 5.45 L2.1 5.05 2.25 4.95 Q2.9 5.05 6.0 3.0 L3.95 3.45 2.8 4.45 3.85 3.2 Q4.8 1.85 5.0 1.8 L5.9 1.55 6.65 1.45 6.95 1.4 7.3 1.35 6.05 3.0 7.35 1.6 7.55 1.4 8.15 1.0 9.15 0.4 8.8 0.65 6.3 3.05 3.25 5.3 2.2 5.9 2.3 5.9 Q2.75 5.9 3.85 5.15 L6.35 3.55 7.3 2.3 Q7.95 1.35 9.95 0.3 L11.3 -0.15 Q11.9 -0.35 12.05 -1.05 12.1 -1.35 11.85 -1.05 L11.15 -0.55 9.4 0.25 10.6 -0.5 10.85 -0.6 11.4 -0.95 11.7 -1.15 M10.4 1.85 Q9.95 2.05 9.6 2.4 L7.95 3.8 Q9.5 2.3 10.15 1.95 L10.4 1.85 M3.0 8.3 L4.8 7.45 6.05 6.85 4.3 7.75 3.0 8.3" fill="#ff672d" fill-rule="evenodd" stroke="none"/>
    <path d="M9.4 0.25 L11.15 -0.55 11.85 -1.05 Q12.1 -1.35 12.05 -1.05 11.9 -0.35 11.3 -0.15 L9.95 0.3 Q7.95 1.35 7.3 2.3 L6.35 3.55 3.85 5.15 Q2.75 5.9 2.3 5.9 L2.2 5.9 3.25 5.3 6.3 3.05 8.8 0.65 9.15 0.4 9.3 0.3 9.4 0.25 M12.15 1.25 L12.55 1.15 10.65 1.95 Q9.9 2.35 7.9 4.2 6.5 5.5 3.9 6.6 L5.2 5.85 Q6.65 5.0 7.55 4.15 L7.95 3.8 9.6 2.4 Q9.95 2.05 10.4 1.85 L12.15 1.25" fill="#ffa12c" fill-rule="evenodd" stroke="none"/>
    <path d="M2.8 4.45 L3.95 3.45 6.0 3.0 Q2.9 5.05 2.25 4.95 L2.2 4.95 2.8 4.45 M0.7 8.1 L0.6 7.95 Q1.1 8.75 6.85 6.35 L6.05 6.85 4.8 7.45 3.0 8.3 0.7 8.1 M8.3 5.35 Q9.65 3.45 11.0 2.65 L12.55 1.95 Q12.3 2.5 11.6 2.85 L10.35 3.45 9.3 4.5 8.6 5.05 8.3 5.35 M12.2 0.75 Q10.75 1.1 9.95 1.6 9.0 2.1 8.1 3.2 5.35 5.8 3.15 6.55 5.75 5.25 8.4 2.35 9.9 1.2 11.2 0.8 L12.25 0.6 12.2 0.7 12.2 0.75" fill="#fe571f" fill-rule="evenodd" stroke="none"/>
    <path d="M-10.45 -10.25 L-10.3 -10.0 -10.2 -9.8 -10.2 -9.75 -10.15 -9.75 -10.15 -9.7 -10.1 -9.6 -10.05 -9.6 -9.95 -9.55 -9.85 -9.6 -9.7 -9.8 -9.65 -9.95 -9.65 -10.05 -9.65 -10.1 -9.4 -11.45 -8.8 -11.45 -7.45 -11.35 -7.5 -10.15 -7.5 -10.0 -7.6 -10.0 -7.8 -9.85 Q-9.8 -9.2 -11.05 -7.4 L-11.05 -7.35 -12.1 -8.2 -12.45 -8.55 -10.85 -10.85 -10.45 -10.25" fill="#ce66f9" fill-rule="evenodd" stroke="none"/>
    <path d="M-10.45 -10.25 L-10.85 -10.85 -10.8 -11.0 -10.45 -10.25 M-12.1 -8.2 L-11.05 -7.35 -11.15 -7.2 -12.1 -8.2 M-9.4 -11.45 L-9.65 -10.1 -9.55 -11.2 -9.5 -11.45 -9.4 -11.45 M-11.1 1.15 L-10.7 2.3 -10.9 1.9 -11.1 1.15 M-9.5 4.25 L-9.35 4.4 -7.9 5.75 -9.5 4.3 -9.5 4.25 M-0.8 8.35 L0.25 8.25 0.35 8.3 0.4 8.35 -0.8 8.35" fill="#550022" fill-rule="evenodd" stroke="none"/>
    <path d="M-10.25 -7.7 Q-9.1 -9.2 -7.1 -9.75 L-6.75 -9.85 -2.1 -9.6 Q1.25 -8.75 3.7 -6.3 L4.6 -5.3 3.7 -5.4 3.05 -5.05 3.95 -5.2 4.9 -4.95 5.1 -4.6 5.2 -4.55 5.4 -4.3 5.05 -4.5 Q4.35 -4.8 4.0 -3.95 3.65 -3.1 3.9 -1.7 4.15 -0.3 4.75 0.85 L5.3 1.6 4.9 1.65 4.75 1.9 Q4.5 0.4 3.35 -0.8 2.25 -2.05 0.9 -2.4 -0.55 -2.8 -1.45 -1.95 -2.35 -1.1 -2.05 0.45 -1.8 1.9 -0.7 3.15 0.4 4.4 1.8 4.75 L1.45 4.85 Q0.4 5.3 0.05 6.2 -3.0 5.8 -5.55 4.4 -8.65 2.65 -9.95 -0.15 -11.4 -3.4 -10.25 -7.7 M7.2 1.35 L7.25 1.2 7.3 1.3 7.2 1.35 M-3.35 -1.55 Q-3.05 -2.85 -1.5 -3.85 -2.7 -3.45 -3.15 -3.0 -3.75 -2.45 -3.8 -1.25 L-3.3 0.1 -3.35 -1.55 M4.6 -3.95 Q4.05 -3.65 3.95 -2.65 4.1 -3.35 4.55 -3.65 5.0 -4.05 5.4 -3.85 L4.6 -3.95 M4.85 -3.8 Q4.15 -3.5 3.9 -2.4 3.85 -3.95 4.45 -4.35 5.15 -4.7 5.9 -3.4 5.5 -4.05 4.85 -3.8 M-1.15 -0.85 Q-0.75 -1.9 0.0 -2.35 -1.05 -1.95 -1.45 -0.75 -1.85 0.35 -1.4 1.1 -1.6 0.15 -1.15 -0.85 M-1.8 -1.05 Q-1.25 -2.55 0.25 -2.35 -1.0 -1.75 -1.3 -0.15 -1.6 1.45 -0.7 2.85 -2.25 1.0 -1.8 -1.05" fill="#d885fd" fill-rule="evenodd" stroke="none"/>
    <path d="M-10.25 -7.7 Q-11.4 -3.4 -9.95 -0.15 -8.65 2.65 -5.55 4.4 -3.0 5.8 0.05 6.2 -0.2 6.8 -0.1 7.65 L0.25 8.25 -0.8 8.35 -3.8 7.8 -5.65 7.1 -7.9 5.75 -9.35 4.4 -9.5 4.25 -9.95 3.6 -10.15 3.25 -10.7 2.3 -11.1 1.15 -11.15 1.0 -11.6 -1.75 -11.65 -1.95 -11.65 -2.1 -11.7 -3.75 -11.65 -4.0 -11.25 -5.95 -10.25 -7.7 M0.85 8.55 L1.5 8.85 1.45 8.95 1.45 9.25 1.2 11.05 1.1 11.5 Q-0.25 11.55 -1.35 10.7 L-1.45 10.05 Q-1.45 9.3 -1.7 8.75 L0.65 8.55 0.7 8.5 0.85 8.55" fill="#c76cfd" fill-rule="evenodd" stroke="none"/>
    <path d="M4.6 -3.95 L5.4 -3.85 Q5.0 -4.05 4.55 -3.65 4.1 -3.35 3.95 -2.65 4.05 -3.65 4.6 -3.95 M-1.15 -0.85 Q-1.6 0.15 -1.4 1.1 -1.85 0.35 -1.45 -0.75 -1.05 -1.95 0.0 -2.35 -0.75 -1.9 -1.15 -0.85" fill="#eeb7ff" fill-rule="evenodd" stroke="none"/>
    <path d="M6.95 1.4 L6.65 1.45 Q6.95 0.9 6.5 -0.2 5.9 -1.6 5.25 -1.05 4.75 -0.7 5.0 0.35 L5.8 0.35 5.25 1.05 5.65 1.6 5.4 1.6 4.8 0.75 Q4.2 -0.35 4.0 -1.6 L3.9 -2.2 Q4.1 -3.3 4.8 -3.6 5.35 -3.85 5.85 -3.35 L6.25 -2.75 7.05 -0.4 Q7.2 0.7 7.0 1.4 L6.95 1.4 M2.3 4.65 L1.9 4.6 Q0.55 4.25 -0.5 3.0 L-0.75 2.75 Q-1.35 1.35 -1.05 -0.15 -0.75 -1.65 0.3 -2.3 L0.8 -2.2 Q2.15 -1.9 3.25 -0.65 4.35 0.6 4.6 2.0 L4.6 2.05 2.3 4.65 M0.6 2.75 L1.7 2.45 1.15 3.35 Q2.25 4.3 2.9 3.6 3.2 3.3 3.1 2.7 L2.45 1.6 Q1.95 1.1 1.4 1.0 0.85 0.9 0.55 1.2 0.0 1.75 0.6 2.75" fill="#ffffff" fill-rule="evenodd" stroke="none"/>
  </g>
</svg>
