<?xml version="1.0" encoding="UTF-8" standalone="no"?>
<svg xmlns:xlink="http://www.w3.org/1999/xlink" height="25.45px" width="25.85px" xmlns="http://www.w3.org/2000/svg">
  <g transform="matrix(1.0, 0.0, 0.0, 1.0, 12.9, 12.7)">
    <path d="M12.2 -6.35 L12.55 -5.7 12.55 -5.65 12.55 -5.55 12.5 -5.5 12.5 -5.4 12.05 -5.25 8.8 -5.15 8.25 -5.1 8.15 -5.1 8.0 -5.1 7.85 -5.1 7.8 -5.1 7.8 -5.05 7.75 -5.05 7.55 -5.0 7.1 -4.75 7.5 -5.05 Q7.95 -5.4 8.3 -5.4 L11.15 -5.55 12.05 -5.8 12.2 -6.35 M7.0 -4.65 L7.6 -4.8 7.6 -4.75 Q7.5 -4.4 7.95 -4.0 8.4 -3.2 9.45 -2.85 L9.95 -2.6 10.45 -2.25 9.15 -2.85 7.55 -3.75 Q6.85 -4.1 6.85 -4.35 L7.05 -4.7 7.0 -4.65 M5.65 -2.2 Q4.95 -1.25 3.75 -1.5 L4.35 -2.3 4.45 -2.5 4.65 -2.9 Q4.95 -2.3 5.65 -2.2 M4.2 -5.0 Q4.6 -4.0 4.4 -3.15 4.0 -2.0 3.5 -1.6 L3.4 -1.55 3.4 -1.5 Q2.75 -1.1 2.05 -1.3 L1.7 -1.45 1.45 -1.6 Q0.65 -2.05 0.2 -2.95 L1.1 -2.4 Q1.75 -2.0 2.45 -1.9 3.4 -1.75 3.9 -2.75 4.4 -3.7 4.2 -5.0 M7.75 -12.2 L8.05 -12.25 8.55 -11.7 8.6 -11.4 8.55 -11.15 Q8.4 -10.5 7.45 -9.7 L7.35 -9.6 6.75 -9.25 Q5.7 -8.65 5.3 -7.7 L5.2 -7.6 5.1 -7.4 5.1 -7.6 Q5.1 -8.45 6.7 -9.6 8.25 -10.75 8.25 -11.6 L7.95 -12.1 7.75 -12.2 M5.05 -6.8 L5.0 -6.85 5.3 -7.35 5.4 -7.35 6.75 -7.3 8.45 -7.5 6.2 -6.75 5.05 -6.8 M1.85 -1.15 L3.2 -1.2 3.1 -0.9 Q2.75 -0.4 2.05 -0.4 L1.8 -0.4 1.1 -0.7 0.55 -1.05 1.85 -1.15" fill="#dedede" fill-rule="evenodd" stroke="none"/>
    <path d="M7.1 -4.75 L7.55 -5.0 7.75 -5.05 7.8 -5.05 7.8 -5.1 7.85 -5.1 8.0 -5.1 8.15 -5.1 8.25 -5.1 8.8 -5.15 12.05 -5.25 12.5 -5.4 12.5 -5.5 12.55 -5.55 12.55 -5.65 12.55 -5.7 12.2 -6.35 Q11.6 -7.15 10.45 -7.35 L8.45 -7.5 6.75 -7.3 5.4 -7.35 5.3 -7.35 5.0 -6.85 5.05 -6.8 4.95 -6.7 5.1 -7.4 5.2 -7.6 5.3 -7.7 Q5.7 -8.65 6.75 -9.25 L7.35 -9.6 7.45 -9.7 Q8.4 -10.5 8.55 -11.15 L8.6 -11.4 8.55 -11.7 8.05 -12.25 7.75 -12.2 Q6.35 -11.95 5.2 -11.15 L4.3 -10.4 2.95 -8.95 1.4 -6.7 1.9 -6.6 1.3 -6.5 1.15 -6.4 1.7 -6.35 1.0 -6.25 0.95 -6.2 0.9 -6.15 0.3 -6.4 -0.8 -6.85 Q-1.85 -7.4 -2.45 -7.4 L-3.1 -6.95 -3.15 -6.5 -3.15 -5.95 -2.9 -5.35 Q-2.05 -4.0 -0.55 -3.65 L0.3 -3.8 0.0 -3.6 0.1 -3.2 0.15 -3.05 0.2 -2.95 Q0.65 -2.05 1.45 -1.6 L1.7 -1.45 2.05 -1.3 Q2.75 -1.1 3.4 -1.5 L3.4 -1.55 3.5 -1.6 Q4.0 -2.0 4.4 -3.15 4.6 -4.0 4.2 -5.0 L3.9 -5.55 Q4.85 -4.8 4.65 -3.1 L4.45 -2.5 4.35 -2.3 3.75 -1.5 Q4.95 -1.25 5.65 -2.2 L5.75 -2.35 5.75 -2.45 5.8 -2.6 5.85 -2.65 Q7.0 -2.7 7.85 -1.9 9.0 -0.8 10.55 -1.0 L10.65 -1.0 10.9 -1.5 10.45 -2.25 9.95 -2.6 9.45 -2.85 Q8.4 -3.2 7.95 -4.0 7.5 -4.4 7.6 -4.75 L7.6 -4.8 7.0 -4.65 7.1 -4.75 M-12.8 8.45 L-12.9 8.15 Q-12.05 6.7 -10.6 5.9 L-10.25 5.75 -10.0 5.8 -9.95 5.85 -9.9 5.9 -5.4 9.35 -3.2 5.75 -0.85 0.9 -0.85 0.85 -0.05 -1.15 0.0 -1.2 -0.45 -2.15 -0.4 -2.7 -0.35 -2.9 -0.25 -3.0 -0.3 -3.05 -0.3 -3.2 -0.3 -3.25 Q-2.6 -3.6 -3.45 -5.7 L-3.45 -5.75 -3.65 -6.65 -3.65 -6.8 -3.65 -6.9 -3.35 -7.4 -2.5 -7.85 Q-0.95 -7.7 0.45 -6.85 L0.8 -6.55 0.95 -6.75 1.0 -6.8 Q2.35 -9.2 4.45 -11.0 5.7 -12.05 7.2 -12.55 L7.9 -12.7 8.3 -12.7 8.4 -12.65 Q9.35 -11.85 8.8 -10.65 L8.55 -10.25 Q7.9 -9.35 6.85 -8.8 L5.5 -7.5 5.55 -7.5 7.1 -7.85 8.2 -7.9 Q10.8 -8.2 12.6 -6.5 13.2 -5.9 12.75 -5.2 L12.1 -4.85 Q10.25 -4.7 8.55 -4.85 L8.45 -4.8 8.1 -4.75 8.05 -4.7 8.0 -4.7 7.95 -4.6 7.95 -4.55 Q9.05 -3.25 10.7 -2.5 L10.9 -2.35 Q11.8 -1.3 10.65 -0.6 L9.5 -0.55 Q7.9 -1.25 6.4 -2.2 L6.2 -2.25 Q5.35 -0.85 3.65 -1.15 3.25 -0.25 2.45 -0.1 L2.4 0.0 2.05 0.0 1.3 2.2 1.3 2.3 -0.2 5.7 -0.35 6.05 -0.65 6.8 -4.0 11.6 -5.0 12.7 -5.3 12.65 -5.35 12.6 -5.7 12.5 -7.9 11.55 -10.95 9.85 Q-11.75 9.45 -12.35 8.85 L-12.8 8.45 M0.55 -1.05 L1.1 -0.7 1.8 -0.4 2.05 -0.4 Q2.75 -0.4 3.1 -0.9 L3.2 -1.2 1.85 -1.15 Q0.7 -1.7 0.05 -2.8 L0.0 -2.8 0.0 -2.75 Q-0.3 -2.4 0.0 -1.75 L0.1 -1.6 0.25 -1.35 0.3 -1.3 0.35 -1.2 0.55 -1.05 M-9.95 6.3 L-10.1 6.15 -10.15 6.15 -10.45 6.3 -11.0 6.65 -11.8 7.35 -12.4 8.15 -12.5 8.25 -12.5 8.35 -12.45 8.4 -12.3 8.5 -5.85 12.05 -5.25 12.25 -5.1 12.3 -3.6 10.5 -1.55 7.6 -1.35 7.35 -0.85 6.35 -0.85 6.3 -0.5 5.45 -0.45 5.4 0.85 2.25 0.9 2.2 1.7 -0.05 1.65 -0.1 Q0.8 -0.3 0.3 -0.8 L0.0 -0.1 -0.95 2.05 -1.95 4.2 Q-3.25 6.9 -4.85 9.3 L-4.9 9.4 -5.15 9.75 -5.25 9.8 -5.35 9.85 -5.55 9.7 Q-6.45 9.4 -7.15 8.7 L-8.5 7.6 -8.7 7.45 -9.95 6.3" fill="#000000" fill-rule="evenodd" stroke="none"/>
    <path d="M12.2 -6.35 L12.05 -5.8 11.15 -5.55 8.3 -5.4 Q7.95 -5.4 7.5 -5.05 L7.1 -4.75 7.0 -4.65 7.05 -4.7 6.85 -4.35 Q6.85 -4.1 7.55 -3.75 L9.15 -2.85 10.45 -2.25 10.9 -1.5 10.65 -1.0 10.55 -1.0 Q9.0 -0.8 7.85 -1.9 7.0 -2.7 5.85 -2.65 L5.8 -2.6 5.75 -2.45 5.75 -2.35 5.65 -2.2 Q4.95 -2.3 4.65 -2.9 L4.45 -2.5 4.65 -3.1 Q4.85 -4.8 3.9 -5.55 L4.2 -5.0 Q4.4 -3.7 3.9 -2.75 3.4 -1.75 2.45 -1.9 1.75 -2.0 1.1 -2.4 L0.2 -2.95 0.15 -3.05 0.1 -3.2 0.0 -3.6 0.3 -3.8 -0.55 -3.65 Q-2.05 -4.0 -2.9 -5.35 L-3.15 -5.95 -3.15 -6.5 -3.1 -6.95 -2.45 -7.4 Q-1.85 -7.4 -0.8 -6.85 L0.3 -6.4 0.9 -6.15 0.95 -6.2 1.0 -6.25 1.7 -6.35 1.15 -6.4 1.3 -6.5 1.9 -6.6 1.4 -6.7 2.95 -8.95 4.3 -10.4 5.2 -11.15 Q6.35 -11.95 7.75 -12.2 L7.95 -12.1 8.25 -11.6 Q8.25 -10.75 6.7 -9.6 5.1 -8.45 5.1 -7.6 L5.1 -7.4 4.95 -6.7 5.05 -6.8 6.2 -6.75 8.45 -7.5 10.45 -7.35 Q11.6 -7.15 12.2 -6.35 M0.55 -1.05 L0.35 -1.2 0.3 -1.3 0.25 -1.35 0.1 -1.6 0.0 -1.75 Q-0.3 -2.4 0.0 -2.75 L0.0 -2.8 0.05 -2.8 Q0.7 -1.7 1.85 -1.15 L0.55 -1.05" fill="#ffffff" fill-rule="evenodd" stroke="none"/>
    <path d="M-5.3 12.65 L-5.35 12.65 -5.6 12.55 -5.7 12.5 -5.35 12.6 -5.3 12.65 M-12.35 8.85 L-12.8 8.6 -12.8 8.45 -12.35 8.85 M-10.15 6.15 L-10.1 6.15 -9.95 6.3 -10.15 6.15 M0.85 2.25 L-0.45 5.4 -0.5 5.45 -0.85 6.3 -1.35 7.35 -1.55 7.6 -3.6 10.5 Q-0.55 6.3 1.65 -0.1 L0.85 2.25 M-12.3 8.5 L-12.45 8.4 -12.5 8.35 -12.5 8.25 -12.4 8.15 -11.8 7.35 -11.65 7.2 -11.0 6.65 -10.45 6.3 -10.7 6.6 -12.15 8.35 -12.3 8.5" fill="#2649ff" fill-rule="evenodd" stroke="none"/>
    <path d="M-10.15 6.15 L-9.95 6.3 -10.7 7.05 -11.3 7.65 -12.15 8.35 -10.7 6.6 -10.45 6.3 -10.15 6.15 M-8.5 7.6 L-7.15 8.7 Q-6.45 9.4 -5.55 9.7 L-5.35 9.85 -5.25 9.8 -5.15 9.75 -4.9 9.4 -4.85 9.3 Q-3.25 6.9 -1.95 4.2 L-0.95 2.05 0.0 -0.1 0.9 0.8 Q0.65 2.35 -1.8 7.05 -4.4 11.85 -5.25 12.15 -5.8 12.3 -10.15 9.45 L-9.1 8.35 -8.5 7.6" fill="#7ed8ff" fill-rule="evenodd" stroke="none"/>
    <path d="M-9.95 6.3 L-8.7 7.45 -8.5 7.6 -9.1 8.35 -10.15 9.45 Q-5.8 12.3 -5.25 12.15 -4.4 11.85 -1.8 7.05 0.65 2.35 0.9 0.8 L0.0 -0.1 0.3 -0.8 Q0.8 -0.3 1.65 -0.1 -0.55 6.3 -3.6 10.5 L-5.1 12.3 -5.25 12.25 -5.85 12.05 -12.3 8.5 -12.15 8.35 -11.3 7.65 -10.7 7.05 -9.95 6.3" fill="#65bcff" fill-rule="evenodd" stroke="none"/>
  </g>
</svg>
