<?xml version="1.0" encoding="UTF-8" standalone="no"?>
<svg xmlns:xlink="http://www.w3.org/1999/xlink" height="24.7px" width="10.6px" xmlns="http://www.w3.org/2000/svg">
  <g transform="matrix(1.0, 0.0, 0.0, 1.0, 5.3, 12.35)">
    <path d="M-4.6 -8.1 Q-3.75 -11.05 -1.0 -11.95 L-0.85 -11.9 Q0.1 -10.65 -0.05 -9.0 L-0.25 -6.85 Q-0.9 -6.2 -1.1 -5.2 L-1.05 -5.15 -0.95 -5.1 -0.9 -5.2 -0.2 -6.35 -0.1 -6.4 -0.05 -6.5 Q0.4 -7.0 1.0 -7.3 L1.95 -7.2 2.15 -6.7 Q1.95 -5.8 1.2 -5.25 L0.8 -4.7 Q0.3 -3.1 -1.05 -2.15 L-1.05 -2.05 -1.05 -1.95 -2.1 -1.45 -3.1 -1.3 -3.3 -1.45 -3.4 -1.55 -3.35 -1.6 -3.6 -1.75 -4.0 -2.3 Q-5.4 -5.1 -4.6 -8.1" fill="url(#gradient0)" fill-rule="evenodd" stroke="none"/>
    <path d="M3.55 12.15 L3.4 12.25 2.0 10.15 0.25 6.9 -1.9 1.9 -2.4 0.9 -2.55 0.4 Q-3.85 0.45 -4.05 -0.85 L-3.95 -1.45 -3.9 -1.55 Q-4.45 -2.15 -4.8 -3.05 -5.75 -5.85 -4.8 -8.6 -4.15 -10.5 -2.6 -11.7 -1.8 -12.35 -0.8 -12.35 L-0.65 -12.15 Q0.35 -11.15 0.4 -9.55 0.45 -8.35 0.15 -7.25 L1.2 -7.75 1.3 -7.8 Q2.7 -7.85 2.5 -6.5 L2.05 -5.65 1.2 -4.65 0.5 -3.3 -0.05 -2.4 0.2 -1.45 -0.1 -0.85 -0.45 -0.4 -0.25 0.3 -0.2 0.35 2.25 5.65 4.85 10.15 5.1 10.45 5.3 10.9 5.25 11.0 5.0 11.0 4.4 10.15 Q2.95 8.05 1.8 5.7 L-0.65 0.55 -0.8 -0.15 -2.2 0.35 -1.7 1.6 -1.7 1.65 0.8 7.0 2.45 10.15 3.35 11.7 3.6 12.05 3.55 12.15 M-4.6 -8.1 Q-5.4 -5.1 -4.0 -2.3 L-3.6 -1.75 -3.35 -1.6 -3.4 -1.55 -3.3 -1.45 -3.1 -1.3 -2.1 -1.45 -1.05 -1.95 -1.05 -2.05 -1.05 -2.15 Q0.3 -3.1 0.8 -4.7 L1.2 -5.25 Q1.95 -5.8 2.15 -6.7 L1.95 -7.2 1.0 -7.3 Q0.4 -7.0 -0.05 -6.5 L-0.1 -6.4 -0.2 -6.35 -0.9 -5.2 -0.95 -5.1 -1.05 -5.15 -1.1 -5.2 Q-0.9 -6.2 -0.25 -6.85 L-0.05 -9.0 Q0.1 -10.65 -0.85 -11.9 L-1.0 -11.95 Q-3.75 -11.05 -4.6 -8.1 M-3.55 -1.1 L-3.5 -1.2 -3.6 -1.25 -3.7 -1.05 Q-3.9 -0.5 -3.0 -0.2 L-1.2 -0.3 Q-0.3 -0.7 -0.2 -1.45 L-0.2 -2.05 -0.35 -2.1 -0.5 -2.0 -0.55 -1.9 -0.6 -1.85 -0.8 -1.75 -1.15 -1.45 Q-2.1 -0.8 -3.15 -1.0 L-3.2 -1.0 -3.25 -1.05 -3.5 -1.1 -3.55 -1.1" fill="#000000" fill-rule="evenodd" stroke="none"/>
    <path d="M-3.7 -1.05 L-3.55 -1.1 -3.5 -1.1 -3.25 -1.05 -3.2 -1.0 -3.15 -1.0 Q-2.1 -0.8 -1.15 -1.45 L-0.8 -1.75 -0.6 -1.85 -0.55 -1.9 -0.5 -2.0 -0.35 -2.1 -0.2 -2.05 -0.2 -1.45 Q-0.3 -0.7 -1.2 -0.3 L-3.0 -0.2 Q-3.9 -0.5 -3.7 -1.05" fill="url(#gradient1)" fill-rule="evenodd" stroke="none"/>
    <path d="M5.25 11.0 L5.2 11.55 5.05 11.85 4.65 12.2 4.5 12.3 3.55 12.15 3.6 12.05 3.35 11.7 2.45 10.15 0.8 7.0 -1.7 1.65 -1.7 1.6 -2.2 0.35 -0.8 -0.15 -0.65 0.55 1.8 5.7 Q2.95 8.05 4.4 10.15 L5.0 11.0 5.25 11.0" fill="url(#gradient2)" fill-rule="evenodd" stroke="none"/>
  </g>
  <defs>
    <linearGradient gradientTransform="matrix(-0.0031, 0.0055, -0.0036, -0.0021, -3.3, -2.85)" gradientUnits="userSpaceOnUse" id="gradient0" spreadMethod="pad" x1="-819.2" x2="819.2">
      <stop offset="0.0" stop-color="#ffffff"/>
      <stop offset="1.0" stop-color="#000000"/>
    </linearGradient>
    <linearGradient gradientTransform="matrix(-9.0E-4, 0.0016, -0.0016, -9.0E-4, -3.35, 0.0)" gradientUnits="userSpaceOnUse" id="gradient1" spreadMethod="pad" x1="-819.2" x2="819.2">
      <stop offset="0.0" stop-color="#ffffff"/>
      <stop offset="1.0" stop-color="#000000"/>
    </linearGradient>
    <linearGradient gradientTransform="matrix(-0.0038, 0.0024, -0.0041, -0.0064, 0.85, 7.35)" gradientUnits="userSpaceOnUse" id="gradient2" spreadMethod="pad" x1="-819.2" x2="819.2">
      <stop offset="0.0" stop-color="#236fdd"/>
      <stop offset="1.0" stop-color="#000000"/>
    </linearGradient>
  </defs>
</svg>
