<?xml version="1.0" encoding="UTF-8" standalone="no"?>
<svg xmlns:xlink="http://www.w3.org/1999/xlink" height="48.9px" width="21.15px" xmlns="http://www.w3.org/2000/svg">
  <g transform="matrix(1.0, 0.0, 0.0, 1.0, 10.55, 24.45)">
    <path d="M-0.2 -24.0 L0.15 -23.5 Q0.75 -21.6 0.8 -19.6 L0.5 -19.2 -0.05 -19.1 Q-0.8 -19.1 -1.35 -19.5 L-1.35 -19.65 -1.4 -19.75 -1.4 -19.8 -1.4 -19.9 -1.45 -20.15 -1.6 -21.5 -1.4 -23.05 Q-1.15 -24.1 -0.2 -24.0" fill="#10356a" fill-rule="evenodd" stroke="none"/>
    <path d="M-0.2 -24.0 Q-1.15 -24.1 -1.4 -23.05 L-1.6 -21.5 -1.45 -20.15 -1.4 -19.9 -1.4 -19.8 -1.4 -19.75 -1.35 -19.65 -1.35 -19.5 Q-0.8 -19.1 -0.05 -19.1 L0.5 -19.2 0.8 -19.6 Q0.75 -21.6 0.15 -23.5 L-0.2 -24.0 M-1.8 -23.25 Q-1.4 -24.4 -0.2 -24.45 1.0 -23.55 1.05 -21.95 L1.15 -20.3 Q2.4 -20.2 3.1 -19.3 L3.25 -18.95 3.85 -16.8 4.8 -10.95 4.95 -9.8 Q5.25 -9.05 5.15 -8.15 L5.15 -8.1 6.0 -2.35 6.6 3.0 7.15 5.15 Q7.45 6.75 7.35 8.3 L7.45 8.45 7.4 8.55 7.4 8.65 7.35 8.75 Q7.75 11.65 8.6 14.45 L9.75 18.75 10.6 21.5 10.1 22.05 10.05 22.1 Q7.3 23.8 4.05 24.3 L2.55 24.15 2.25 24.1 0.6 19.3 0.25 18.35 0.2 18.25 -0.05 17.55 -2.0 22.6 -2.4 23.85 -2.5 24.25 -2.6 24.3 -2.7 24.35 -2.75 24.4 Q-6.25 24.75 -9.0 22.65 -10.6 21.45 -10.55 19.65 L-10.45 19.25 Q-9.0 16.65 -8.1 13.8 L-7.0 9.75 -6.25 7.9 -6.4 7.45 -6.25 5.2 -6.0 3.35 -5.8 2.25 -5.5 -2.45 -5.4 -4.7 -5.0 -8.3 -4.9 -10.25 -4.15 -16.15 Q-4.0 -16.95 -4.0 -17.8 -3.95 -18.8 -3.3 -19.5 L-2.65 -19.85 -1.8 -20.1 -2.05 -22.0 -1.8 -23.25 M-1.8 -19.65 L-1.7 -19.75 -1.75 -19.8 -1.85 -19.75 -3.1 -19.3 Q-3.65 -18.2 -3.7 -16.9 L-4.0 -14.35 -4.65 -8.5 -4.65 -8.35 -4.7 -8.35 -5.05 -3.35 -5.25 0.35 -5.5 2.75 -5.75 4.6 Q-6.1 6.3 -5.8 7.95 L-5.7 8.2 Q-3.4 10.05 -0.4 10.25 L-0.15 10.3 0.2 10.3 2.85 10.2 Q4.7 10.0 6.2 9.05 L7.05 8.3 Q6.9 5.8 6.4 3.4 L6.35 3.35 6.3 3.3 6.2 2.65 6.2 2.6 5.55 -2.45 4.75 -8.15 4.8 -8.3 4.75 -8.8 4.5 -10.45 3.55 -16.25 3.05 -18.45 Q2.8 -19.7 1.45 -19.85 1.3 -19.85 1.2 -19.95 L1.2 -19.85 1.1 -19.45 Q0.8 -18.7 -0.05 -18.7 L-0.55 -18.75 Q-1.45 -18.9 -1.8 -19.65 M0.15 17.35 L0.25 17.5 1.1 19.8 1.25 20.15 Q2.05 21.9 2.5 23.8 4.65 24.2 6.75 23.25 L7.55 22.95 9.35 22.15 9.7 21.8 9.75 21.75 9.85 21.65 9.9 21.6 9.95 21.6 10.2 21.35 Q9.1 18.6 8.5 15.7 L7.8 12.75 7.3 10.55 7.0 8.95 Q5.55 10.25 3.5 10.5 L0.2 10.6 -0.15 10.55 -1.85 10.35 Q-4.4 9.95 -6.0 8.2 L-7.65 13.5 Q-8.5 16.35 -9.95 18.95 L-10.25 20.0 -9.9 20.95 Q-7.8 24.0 -4.1 23.9 L-2.8 24.05 -2.55 23.05 -2.5 22.9 -0.45 17.45 -0.2 17.05 -0.1 17.0 0.05 17.1 0.1 17.15 0.1 17.25 0.15 17.35" fill="#000000" fill-rule="evenodd" stroke="none"/>
    <path d="M-1.85 -19.75 L-1.8 -19.65 Q-1.45 -18.9 -0.55 -18.75 L-0.05 -18.7 0.2 10.3 -0.15 10.3 -0.4 10.25 Q-3.4 10.05 -5.7 8.2 L-5.8 7.95 Q-6.1 6.3 -5.75 4.6 L-5.5 2.75 -5.25 0.35 -5.05 -3.35 -4.7 -8.35 -4.65 -8.35 -4.65 -8.5 -4.0 -14.35 -3.7 -16.9 Q-3.65 -18.2 -3.1 -19.3 L-1.85 -19.75" fill="url(#gradient0)" fill-rule="evenodd" stroke="none"/>
    <path d="M0.2 10.3 L-0.05 -18.7 Q0.8 -18.7 1.1 -19.45 L1.2 -19.85 1.2 -19.95 Q1.3 -19.85 1.45 -19.85 2.8 -19.7 3.05 -18.45 L3.55 -16.25 4.5 -10.45 4.75 -8.8 4.8 -8.3 4.75 -8.15 5.55 -2.45 6.2 2.6 6.2 2.65 6.3 3.3 6.35 3.35 6.4 3.4 Q6.9 5.8 7.05 8.3 L6.2 9.05 Q4.7 10.0 2.85 10.2 L0.2 10.3" fill="url(#gradient1)" fill-rule="evenodd" stroke="none"/>
    <path d="M-0.15 10.55 L0.2 10.6 3.5 10.5 Q5.55 10.25 7.0 8.95 L7.3 10.55 7.8 12.75 8.5 15.7 Q9.1 18.6 10.2 21.35 L9.95 21.6 9.9 21.6 9.85 21.65 9.75 21.75 9.7 21.8 9.35 22.15 7.55 22.95 6.75 23.25 Q4.65 24.2 2.5 23.8 2.05 21.9 1.25 20.15 L1.1 19.8 0.25 17.5 0.15 17.35 0.15 17.15 -0.15 10.55" fill="url(#gradient2)" fill-rule="evenodd" stroke="none"/>
    <path d="M-0.15 10.55 L0.15 17.15 0.1 17.15 0.05 17.1 -0.1 17.0 -0.2 17.05 -0.45 17.45 -2.5 22.9 -2.55 23.05 -2.8 24.05 -4.1 23.9 Q-7.8 24.0 -9.9 20.95 L-10.25 20.0 -9.95 18.95 Q-8.5 16.35 -7.65 13.5 L-6.0 8.2 Q-4.4 9.95 -1.85 10.35 L-0.15 10.55" fill="url(#gradient3)" fill-rule="evenodd" stroke="none"/>
  </g>
  <defs>
    <linearGradient gradientTransform="matrix(-0.0066, -3.0E-4, 7.0E-4, -0.0183, -5.1, -5.15)" gradientUnits="userSpaceOnUse" id="gradient0" spreadMethod="pad" x1="-819.2" x2="819.2">
      <stop offset="0.0" stop-color="#ffd485"/>
      <stop offset="1.0" stop-color="#000000"/>
    </linearGradient>
    <linearGradient gradientTransform="matrix(0.0067, -0.0011, 0.0031, 0.0182, 6.35, -2.95)" gradientUnits="userSpaceOnUse" id="gradient1" spreadMethod="pad" x1="-819.2" x2="819.2">
      <stop offset="0.0" stop-color="#ffd485"/>
      <stop offset="1.0" stop-color="#000000"/>
    </linearGradient>
    <linearGradient gradientTransform="matrix(0.0056, -0.0012, 0.0018, 0.0085, 8.5, 16.05)" gradientUnits="userSpaceOnUse" id="gradient2" spreadMethod="pad" x1="-819.2" x2="819.2">
      <stop offset="0.0" stop-color="#e57026"/>
      <stop offset="1.0" stop-color="#000000"/>
    </linearGradient>
    <linearGradient gradientTransform="matrix(-0.0062, -0.0013, 0.002, -0.0095, -9.65, 16.85)" gradientUnits="userSpaceOnUse" id="gradient3" spreadMethod="pad" x1="-819.2" x2="819.2">
      <stop offset="0.0" stop-color="#e57026"/>
      <stop offset="1.0" stop-color="#000000"/>
    </linearGradient>
  </defs>
</svg>
