<?xml version="1.0" encoding="UTF-8" standalone="no"?>
<svg xmlns:xlink="http://www.w3.org/1999/xlink" height="19.25px" width="18.9px" xmlns="http://www.w3.org/2000/svg">
  <g transform="matrix(1.0, 0.0, 0.0, 1.0, 9.45, 9.6)">
    <path d="M7.35 -8.95 L7.5 -8.85 7.5 -8.9 7.55 -8.8 7.55 -8.75 7.65 -7.6 Q7.55 -5.65 6.35 -4.15 L5.4 -3.3 5.8 -1.5 Q6.8 1.3 9.3 2.6 L9.4 2.65 9.45 2.7 9.4 2.8 9.25 3.85 8.45 5.05 7.65 5.65 7.05 6.5 Q6.3 7.05 5.45 7.3 4.4 8.75 2.55 9.3 L-0.15 9.65 Q-1.65 9.55 -3.1 8.85 L-5.5 7.7 -5.5 7.6 -6.15 7.45 -6.6 7.25 Q-7.6 6.5 -7.75 5.45 -8.85 4.8 -9.3 3.6 L-9.35 3.55 -9.45 3.4 Q-6.85 1.3 -6.05 -2.05 L-5.75 -3.15 Q-7.7 -4.5 -8.0 -6.85 L-8.1 -8.3 -7.85 -8.65 -7.8 -8.7 -7.75 -8.7 -7.65 -8.65 -4.7 -8.55 -4.2 -8.55 -3.45 -8.2 Q-3.05 -8.85 -2.25 -9.15 L-0.65 -9.6 -0.5 -9.6 Q1.7 -9.7 2.95 -8.0 4.15 -9.1 6.0 -8.8 L7.35 -8.95 M-0.5 -9.15 L-1.5 -8.95 Q-2.55 -8.65 -3.35 -7.95 L-3.4 -7.9 -3.4 -7.8 -3.5 -7.8 -3.65 -7.8 -3.7 -7.85 -3.75 -7.9 -3.75 -7.95 -6.9 -8.25 -7.65 -8.35 -7.7 -8.4 -7.7 -8.35 Q-7.8 -5.85 -6.1 -4.0 L-5.65 -3.55 -4.2 -6.95 Q-5.05 -7.7 -6.3 -7.55 L-7.15 -7.65 -7.3 -7.95 -7.25 -8.0 -7.2 -8.0 -5.15 -7.7 -4.25 -7.5 -4.1 -7.45 -3.95 -7.25 -3.85 -7.35 -3.75 -7.3 -3.7 -7.25 Q-5.05 -4.7 -5.7 -1.8 -6.45 1.2 -8.7 3.3 L-8.95 3.4 -9.0 3.45 -7.75 5.1 -7.6 4.2 -6.95 3.3 Q-5.75 2.5 -4.3 2.3 -5.3 1.2 -5.15 -0.4 -5.05 -1.7 -4.05 -2.3 L-4.05 -2.35 -3.65 -2.6 -3.15 -2.65 Q-1.1 -2.6 -0.65 -0.65 -0.4 0.35 -0.55 1.35 L-0.3 1.35 0.7 1.45 Q0.45 0.95 0.5 0.3 0.7 -2.05 3.0 -2.75 L3.05 -2.75 3.35 -2.7 Q5.15 -2.5 5.2 -0.55 5.2 1.45 3.6 2.6 L3.7 2.65 3.75 2.6 3.85 2.55 Q5.6 2.3 6.85 3.3 7.8 4.05 7.7 5.3 8.35 4.75 8.6 4.0 L9.2 2.85 Q6.2 1.45 5.35 -1.7 L5.0 -3.2 4.95 -3.2 4.85 -3.35 4.95 -3.4 4.8 -4.35 4.75 -4.4 4.75 -4.45 4.65 -4.75 4.6 -5.0 4.55 -5.0 4.55 -5.05 4.5 -5.15 4.5 -5.2 3.9 -6.35 3.85 -6.65 3.5 -7.0 3.45 -7.1 3.2 -7.25 3.1 -7.5 3.2 -7.6 3.75 -7.1 3.75 -7.15 Q4.5 -7.15 5.2 -7.65 5.7 -8.1 6.35 -8.15 6.75 -8.2 7.0 -7.9 L7.0 -7.85 6.95 -7.85 6.95 -7.8 6.9 -7.8 6.85 -7.75 Q5.5 -7.85 4.4 -6.9 L4.05 -6.75 4.95 -5.0 5.3 -3.65 Q7.45 -5.5 7.25 -8.35 L7.25 -8.45 6.1 -8.3 Q4.35 -8.65 2.95 -7.7 L2.85 -7.75 2.75 -7.8 2.7 -7.85 2.65 -7.9 Q1.35 -9.35 -0.5 -9.15 M-2.75 -3.75 L-2.7 -3.7 -2.75 -3.65 -2.75 -3.6 -2.8 -3.55 Q-3.85 -3.85 -4.55 -3.0 L-4.75 -2.75 -4.75 -2.65 -4.75 -2.5 -4.8 -2.5 -4.8 -2.45 -4.9 -2.45 -5.0 -2.45 -5.0 -2.5 -5.05 -2.6 -5.1 -2.65 -4.85 -3.25 -4.45 -3.6 -4.45 -3.65 -3.5 -4.0 Q-3.0 -4.1 -2.75 -3.75 M-4.55 -1.25 L-4.75 -0.2 -3.9 -1.15 Q-3.1 -1.75 -2.15 -1.9 L-1.9 -1.9 -2.35 -2.15 -3.5 -2.25 -4.45 -1.4 -4.55 -1.25 M-3.8 2.3 Q-3.35 1.95 -2.8 1.75 L-3.05 1.3 -1.85 0.55 -1.9 0.55 -2.0 0.45 -3.15 0.65 -2.85 -0.55 -2.8 -0.6 -2.8 -0.7 -2.75 -0.7 -2.4 -0.95 -2.2 -0.95 Q-1.5 -0.9 -1.25 -0.3 L-1.2 -0.25 -1.1 0.75 -1.0 1.25 -1.0 1.35 -0.85 1.35 Q-0.8 -0.15 -1.55 -1.45 -2.75 -1.75 -3.75 -0.85 L-4.7 0.45 -4.15 1.9 -3.85 2.2 -3.8 2.3 M-5.85 3.1 Q-7.5 3.7 -7.35 5.25 -7.3 6.05 -6.7 6.65 -5.65 7.6 -4.15 7.5 -2.7 7.4 -1.45 6.75 L-0.35 6.45 -0.25 6.45 -0.25 5.2 -0.15 4.45 -0.25 4.45 -0.65 4.3 Q-2.3 3.65 -2.6 2.05 L-2.8 2.1 -3.7 2.75 -4.6 3.3 -4.65 3.25 -4.65 3.15 -4.05 2.55 -4.1 2.5 -5.85 3.1 M-1.95 2.7 Q-1.35 3.75 -0.25 3.9 L0.3 3.9 0.85 3.65 1.8 2.7 2.0 2.15 1.0 1.9 0.95 1.9 -0.3 1.75 -2.3 1.95 -2.3 2.05 -1.95 2.7 M1.05 1.5 L1.75 1.7 1.55 0.95 2.65 0.7 2.7 0.7 1.8 0.35 1.6 0.3 1.8 -0.25 Q2.0 -0.75 2.45 -1.0 L2.7 -0.9 Q3.7 -0.2 3.65 1.1 L3.65 1.15 3.2 2.35 3.45 2.5 4.15 1.45 4.6 0.6 4.55 0.55 4.5 0.45 4.4 0.1 4.3 -0.35 4.25 -0.35 4.2 -0.4 4.2 -0.45 4.1 -0.65 4.05 -0.7 4.05 -0.75 4.0 -0.8 3.95 -0.8 Q3.85 -0.9 3.9 -0.95 2.8 -1.75 1.5 -1.35 L1.4 -1.3 1.0 -0.05 Q0.85 0.7 1.05 1.45 L1.05 1.5 M2.7 -4.15 L3.1 -4.2 Q4.4 -4.25 4.8 -3.1 L4.8 -3.0 4.75 -2.95 4.65 -2.85 Q3.9 -4.3 2.35 -3.6 L2.25 -3.6 2.2 -3.7 2.2 -3.75 2.7 -4.15 M2.05 -1.8 Q3.25 -1.95 4.15 -1.15 L4.2 -1.1 4.2 -1.0 4.25 -0.95 4.3 -0.95 4.35 -0.9 4.4 -0.7 4.65 -0.45 4.8 0.0 4.8 -0.7 Q4.75 -2.35 3.05 -2.35 L2.8 -2.35 2.0 -1.9 1.85 -1.75 2.05 -1.8 M0.2 4.45 L0.05 6.45 3.5 6.9 6.1 6.65 Q7.35 6.15 7.35 4.9 L7.25 4.45 Q7.0 3.7 6.35 3.25 L4.05 2.95 4.45 3.3 4.6 3.75 4.55 3.8 4.5 3.8 4.4 3.8 4.05 3.35 3.0 2.65 2.95 2.6 2.85 2.55 2.8 2.5 2.35 2.3 Q1.85 3.8 0.25 4.35 L0.2 4.4 0.2 4.45 M4.7 4.35 L4.7 4.4 4.6 4.55 4.5 4.6 Q4.25 4.55 4.35 4.35 L4.45 4.25 4.5 4.2 4.7 4.35 M4.25 6.0 L4.0 5.65 4.15 5.55 4.2 5.5 4.3 5.55 4.35 5.6 4.4 5.75 4.45 5.85 4.3 5.95 4.25 6.0 M2.7 4.05 L2.9 4.2 2.9 4.25 2.8 4.4 2.7 4.45 Q2.45 4.4 2.55 4.2 L2.65 4.1 2.7 4.05 M2.8 5.65 L2.7 5.8 2.6 5.85 Q2.35 5.8 2.45 5.6 L2.55 5.5 2.6 5.45 2.8 5.6 2.8 5.65 M2.65 7.25 Q1.25 8.15 -0.2 8.0 L-2.0 7.45 -4.45 7.7 -3.85 8.0 Q-2.1 9.1 -0.15 9.2 L2.65 8.8 Q4.0 8.4 4.95 7.4 L2.7 7.25 2.65 7.25 M-0.1 6.8 L-0.2 6.75 -1.55 7.35 -0.2 7.65 Q1.0 7.7 2.1 7.1 L0.0 6.7 -0.05 6.8 -0.1 6.8 M-3.1 4.15 L-3.05 4.2 -3.35 4.55 -3.4 4.55 Q-3.7 4.3 -3.35 4.05 L-3.3 4.0 -3.1 4.15 M-2.95 5.55 L-2.8 5.5 Q-2.6 5.55 -2.65 5.7 L-2.65 5.75 -2.95 5.7 -2.95 5.6 -2.95 5.55 M-4.55 4.5 L-4.5 4.6 -4.65 4.85 -4.7 4.9 Q-4.95 4.9 -5.0 4.65 L-4.95 4.5 -4.85 4.4 -4.8 4.4 -4.75 4.35 -4.65 4.4 -4.6 4.45 -4.55 4.5 M-4.2 6.2 L-4.35 5.85 -4.35 5.8 -4.2 5.65 -4.15 5.65 -3.9 5.85 -3.9 5.9 -4.2 6.2" fill="#000000" fill-rule="evenodd" stroke="none"/>
    <path d="M-7.65 -8.35 L-6.9 -8.25 -3.75 -7.95 -3.75 -7.9 -3.7 -7.85 -3.65 -7.8 -3.5 -7.8 -3.4 -7.8 -3.4 -7.9 -3.35 -7.95 Q-2.55 -8.65 -1.5 -8.95 L-0.5 -9.15 -0.3 1.35 -0.55 1.35 Q-0.4 0.35 -0.65 -0.65 -1.1 -2.6 -3.15 -2.65 L-3.65 -2.6 -4.05 -2.35 -4.05 -2.3 Q-5.05 -1.7 -5.15 -0.4 -5.3 1.2 -4.3 2.3 -5.75 2.5 -6.95 3.3 L-7.6 4.2 -7.75 5.1 -9.0 3.45 -8.95 3.4 -8.7 3.3 Q-6.45 1.2 -5.7 -1.8 -5.05 -4.7 -3.7 -7.25 L-3.75 -7.3 -3.85 -7.35 -3.95 -7.25 -4.1 -7.45 -4.25 -7.5 -5.15 -7.7 -7.2 -8.0 -7.25 -8.0 -7.3 -7.95 -7.15 -7.65 -6.3 -7.55 Q-5.05 -7.7 -4.2 -6.95 L-5.65 -3.55 -6.1 -4.0 Q-7.8 -5.85 -7.7 -8.35 L-7.65 -8.35 M-2.75 -3.75 Q-3.0 -4.1 -3.5 -4.0 L-4.45 -3.65 -4.45 -3.6 -4.85 -3.25 -5.1 -2.65 -5.05 -2.6 -5.0 -2.5 -5.0 -2.45 -4.9 -2.45 -4.8 -2.45 -4.8 -2.5 -4.75 -2.5 -4.75 -2.65 -4.75 -2.75 -4.55 -3.0 Q-3.85 -3.85 -2.8 -3.55 L-2.75 -3.6 -2.75 -3.65 -2.7 -3.7 -2.75 -3.75" fill="url(#gradient0)" fill-rule="evenodd" stroke="none"/>
    <path d="M-4.55 -1.25 L-4.45 -1.4 -3.5 -2.25 -2.35 -2.15 -1.9 -1.9 -2.15 -1.9 Q-3.1 -1.75 -3.9 -1.15 L-4.75 -0.2 -4.55 -1.25 M2.0 -1.9 L2.8 -2.35 3.05 -2.35 Q4.75 -2.35 4.8 -0.7 L4.8 0.0 4.65 -0.45 4.4 -0.7 4.35 -0.9 4.3 -0.95 4.25 -0.95 4.2 -1.0 4.2 -1.1 4.15 -1.15 Q3.25 -1.95 2.05 -1.8 L2.0 -1.9" fill="#1d5ebb" fill-rule="evenodd" stroke="none"/>
    <path d="M-3.8 2.3 L-3.85 2.2 -4.15 1.9 -4.7 0.45 -3.75 -0.85 Q-2.75 -1.75 -1.55 -1.45 -0.8 -0.15 -0.85 1.35 L-1.0 1.35 -1.0 1.25 -1.1 0.75 -1.2 -0.25 -1.25 -0.3 Q-1.5 -0.9 -2.2 -0.95 L-2.4 -0.95 -2.75 -0.7 -2.8 -0.7 -2.8 -0.6 -2.85 -0.55 -3.15 0.65 -2.0 0.45 -1.9 0.55 -1.85 0.55 -3.05 1.3 -2.8 1.75 Q-3.35 1.95 -3.8 2.3 M1.05 1.5 L1.05 1.45 Q0.85 0.7 1.0 -0.05 L1.4 -1.3 1.5 -1.35 Q2.8 -1.75 3.9 -0.95 3.85 -0.9 3.95 -0.8 L4.0 -0.8 4.05 -0.75 4.05 -0.7 4.1 -0.65 4.2 -0.45 4.2 -0.4 4.25 -0.35 4.3 -0.35 4.4 0.1 4.5 0.45 4.55 0.55 4.6 0.6 4.15 1.45 3.45 2.5 3.2 2.35 3.65 1.15 3.65 1.1 Q3.7 -0.2 2.7 -0.9 L2.45 -1.0 Q2.0 -0.75 1.8 -0.25 L1.6 0.3 1.8 0.35 2.7 0.7 2.65 0.7 1.55 0.95 1.75 1.7 1.05 1.5" fill="#ffffff" fill-rule="evenodd" stroke="none"/>
    <path d="M-5.85 3.1 L-4.1 2.5 -4.05 2.55 -4.65 3.15 -4.65 3.25 -4.6 3.3 -3.7 2.75 -2.8 2.1 -2.6 2.05 Q-2.3 3.65 -0.65 4.3 L-0.25 4.45 -0.15 4.45 -0.25 5.2 -0.25 6.45 -0.35 6.45 -1.45 6.75 Q-2.7 7.4 -4.15 7.5 -5.65 7.6 -6.7 6.65 -7.3 6.05 -7.35 5.25 -7.5 3.7 -5.85 3.1 M-4.2 6.2 L-3.9 5.9 -3.9 5.85 -4.15 5.65 -4.2 5.65 -4.35 5.8 -4.35 5.85 -4.2 6.2 M-4.55 4.5 L-4.6 4.45 -4.65 4.4 -4.75 4.35 -4.8 4.4 -4.85 4.4 -4.95 4.5 -5.0 4.65 Q-4.95 4.9 -4.7 4.9 L-4.65 4.85 -4.5 4.6 -4.55 4.5 M-2.95 5.55 L-2.95 5.6 -2.95 5.7 -2.65 5.75 -2.65 5.7 Q-2.6 5.55 -2.8 5.5 L-2.95 5.55 M-3.1 4.15 L-3.3 4.0 -3.35 4.05 Q-3.7 4.3 -3.4 4.55 L-3.35 4.55 -3.05 4.2 -3.1 4.15" fill="url(#gradient1)" fill-rule="evenodd" stroke="none"/>
    <path d="M-1.95 2.7 L-2.3 2.05 -2.3 1.95 -0.3 1.75 0.95 1.9 1.0 1.9 2.0 2.15 1.8 2.7 0.85 3.65 0.3 3.9 -0.25 3.9 Q-1.35 3.75 -1.95 2.7" fill="url(#gradient2)" fill-rule="evenodd" stroke="none"/>
    <path d="M-0.3 1.35 L-0.5 -9.15 Q1.35 -9.35 2.65 -7.9 L2.7 -7.85 2.75 -7.8 2.85 -7.75 2.95 -7.7 Q4.35 -8.65 6.1 -8.3 L7.25 -8.45 7.25 -8.35 Q7.45 -5.5 5.3 -3.65 L4.95 -5.0 4.05 -6.75 4.4 -6.9 Q5.5 -7.85 6.85 -7.75 L6.9 -7.8 6.95 -7.8 6.95 -7.85 7.0 -7.85 7.0 -7.9 Q6.75 -8.2 6.35 -8.15 5.7 -8.1 5.2 -7.65 4.5 -7.15 3.75 -7.15 L3.75 -7.1 3.2 -7.6 3.1 -7.5 3.2 -7.25 3.45 -7.1 3.5 -7.0 3.85 -6.65 3.9 -6.35 4.5 -5.2 4.5 -5.15 4.55 -5.05 4.55 -5.0 4.6 -5.0 4.65 -4.75 4.75 -4.45 4.75 -4.4 4.8 -4.35 4.95 -3.4 4.85 -3.35 4.95 -3.2 5.0 -3.2 5.35 -1.7 Q6.2 1.45 9.2 2.85 L8.6 4.0 Q8.35 4.75 7.7 5.3 7.8 4.05 6.85 3.3 5.6 2.3 3.85 2.55 L3.75 2.6 3.7 2.65 3.6 2.6 Q5.2 1.45 5.2 -0.55 5.15 -2.5 3.35 -2.7 L3.05 -2.75 3.0 -2.75 Q0.7 -2.05 0.5 0.3 0.45 0.95 0.7 1.45 L-0.3 1.35 M2.7 -4.15 L2.2 -3.75 2.2 -3.7 2.25 -3.6 2.35 -3.6 Q3.9 -4.3 4.65 -2.85 L4.75 -2.95 4.8 -3.0 4.8 -3.1 Q4.4 -4.25 3.1 -4.2 L2.7 -4.15" fill="url(#gradient3)" fill-rule="evenodd" stroke="none"/>
    <path d="M0.25 4.35 Q1.85 3.8 2.35 2.3 L2.8 2.5 2.85 2.55 2.95 2.6 3.0 2.65 4.05 3.35 4.4 3.8 4.5 3.8 4.55 3.8 4.6 3.75 4.45 3.3 4.05 2.95 6.35 3.25 Q7.0 3.7 7.25 4.45 L7.35 4.9 Q7.35 6.15 6.1 6.65 L3.5 6.9 0.05 6.45 0.2 4.45 0.25 4.35 M2.8 5.65 L2.8 5.6 2.6 5.45 2.55 5.5 2.45 5.6 Q2.35 5.8 2.6 5.85 L2.7 5.8 2.8 5.65 M2.7 4.05 L2.65 4.1 2.55 4.2 Q2.45 4.4 2.7 4.45 L2.8 4.4 2.9 4.25 2.9 4.2 2.7 4.05 M4.25 6.0 L4.3 5.95 4.45 5.85 4.4 5.75 4.35 5.6 4.3 5.55 4.2 5.5 4.15 5.55 4.0 5.65 4.25 6.0 M4.7 4.35 L4.5 4.2 4.45 4.25 4.35 4.35 Q4.25 4.55 4.5 4.6 L4.6 4.55 4.7 4.4 4.7 4.35" fill="url(#gradient4)" fill-rule="evenodd" stroke="none"/>
    <path d="M2.65 7.25 L2.7 7.25 4.95 7.4 Q4.0 8.4 2.65 8.8 L-0.15 9.2 Q-2.1 9.1 -3.85 8.0 L-4.45 7.7 -2.0 7.45 -0.2 8.0 Q1.25 8.15 2.65 7.25" fill="url(#gradient5)" fill-rule="evenodd" stroke="none"/>
    <path d="M-0.1 6.8 L-0.05 6.8 0.0 6.7 2.1 7.1 Q1.0 7.7 -0.2 7.65 L-1.55 7.35 -0.2 6.75 -0.1 6.8" fill="url(#gradient6)" fill-rule="evenodd" stroke="none"/>
  </g>
  <defs>
    <linearGradient gradientTransform="matrix(-0.0053, 2.0E-4, -3.0E-4, -0.0087, -7.1, 2.3)" gradientUnits="userSpaceOnUse" id="gradient0" spreadMethod="pad" x1="-819.2" x2="819.2">
      <stop offset="0.0" stop-color="#236fdd"/>
      <stop offset="1.0" stop-color="#000000"/>
    </linearGradient>
    <linearGradient gradientTransform="matrix(-0.0037, 0.0024, -0.0018, -0.0028, -4.8, 5.35)" gradientUnits="userSpaceOnUse" id="gradient1" spreadMethod="pad" x1="-819.2" x2="819.2">
      <stop offset="0.0" stop-color="#c29962"/>
      <stop offset="1.0" stop-color="#000000"/>
    </linearGradient>
    <radialGradient cx="0" cy="0" gradientTransform="matrix(0.001, 0.0, 0.0, 0.001, 0.0, 2.35)" gradientUnits="userSpaceOnUse" id="gradient2" r="819.2" spreadMethod="pad">
      <stop offset="0.0" stop-color="#ffffff"/>
      <stop offset="1.0" stop-color="#000000"/>
    </radialGradient>
    <linearGradient gradientTransform="matrix(0.0059, 0.0, 0.0, 0.0088, 6.75, -0.15)" gradientUnits="userSpaceOnUse" id="gradient3" spreadMethod="pad" x1="-819.2" x2="819.2">
      <stop offset="0.0" stop-color="#236fdd"/>
      <stop offset="1.0" stop-color="#000000"/>
    </linearGradient>
    <linearGradient gradientTransform="matrix(0.0043, 0.0013, -9.0E-4, 0.0027, 6.15, 5.15)" gradientUnits="userSpaceOnUse" id="gradient4" spreadMethod="pad" x1="-819.2" x2="819.2">
      <stop offset="0.0" stop-color="#c29962"/>
      <stop offset="1.0" stop-color="#000000"/>
    </linearGradient>
    <linearGradient gradientTransform="matrix(4.0E-4, 0.0057, -0.0012, 1.0E-4, 0.55, 10.8)" gradientUnits="userSpaceOnUse" id="gradient5" spreadMethod="pad" x1="-819.2" x2="819.2">
      <stop offset="0.0" stop-color="#c29962"/>
      <stop offset="1.0" stop-color="#000000"/>
    </linearGradient>
    <radialGradient cx="0" cy="0" gradientTransform="matrix(0.0029, 0.0, 0.0, 0.0029, -0.05, 7.0)" gradientUnits="userSpaceOnUse" id="gradient6" r="819.2" spreadMethod="pad">
      <stop offset="0.0" stop-color="#ff0000"/>
      <stop offset="1.0" stop-color="#000000"/>
    </radialGradient>
  </defs>
</svg>
