<?xml version="1.0" encoding="UTF-8" standalone="no"?>
<svg xmlns:xlink="http://www.w3.org/1999/xlink" height="42.4px" width="12.5px" xmlns="http://www.w3.org/2000/svg">
  <g transform="matrix(1.0, 0.0, 0.0, 1.0, 6.25, 21.2)">
    <path d="M5.75 -20.05 L5.8 -19.45 Q5.85 -17.65 5.15 -16.0 L4.8 -14.65 Q3.9 -12.25 3.3 -9.85 2.9 -8.65 2.65 -7.45 L1.2 -1.75 Q0.5 1.05 0.3 3.95 L0.2 4.05 0.2 4.1 0.2 4.65 0.05 5.8 0.1 6.2 0.55 7.25 Q1.7 9.85 1.95 12.7 2.25 15.65 0.85 18.25 0.35 18.7 0.15 19.3 L-1.05 20.25 -1.35 19.25 -1.7 18.1 Q-1.95 16.85 -1.55 15.65 -1.4 15.15 -1.6 14.8 L-2.05 15.55 Q-2.45 18.1 -1.35 20.4 L-2.6 20.8 -3.2 20.5 -3.75 20.05 -4.25 19.65 Q-4.95 17.45 -4.1 15.15 L-4.0 14.4 Q-4.75 15.25 -4.95 16.45 -5.15 17.8 -4.8 18.95 L-5.05 18.55 Q-6.3 15.75 -5.5 12.75 L-4.0 8.2 Q-3.1 5.7 -2.9 3.15 L-2.8 2.65 -1.55 -3.1 -0.65 -6.65 0.4 -11.1 0.55 -11.4 Q1.15 -14.3 2.05 -17.1 2.75 -19.25 4.5 -20.75 5.3 -20.9 5.75 -20.05" fill="url(#gradient0)" fill-rule="evenodd" stroke="none"/>
    <path d="M5.75 -20.05 Q5.3 -20.9 4.5 -20.75 2.75 -19.25 2.05 -17.1 1.15 -14.3 0.55 -11.4 L0.4 -11.1 -0.65 -6.65 -1.55 -3.1 -2.8 2.65 -2.9 3.15 Q-3.1 5.7 -4.0 8.2 L-5.5 12.75 Q-6.3 15.75 -5.05 18.55 L-4.8 18.95 Q-5.15 17.8 -4.95 16.45 -4.75 15.25 -4.0 14.4 L-4.1 15.15 Q-4.95 17.45 -4.25 19.65 L-3.75 20.05 -3.2 20.5 -2.6 20.8 -1.35 20.4 Q-2.45 18.1 -2.05 15.55 L-1.6 14.8 Q-1.4 15.15 -1.55 15.65 -1.95 16.85 -1.7 18.1 L-1.35 19.25 -1.05 20.25 0.15 19.3 Q0.35 18.7 0.85 18.25 2.25 15.65 1.95 12.7 1.7 9.85 0.55 7.25 L0.1 6.2 0.05 5.8 0.2 4.65 0.2 4.1 0.2 4.05 0.3 3.95 Q0.5 1.05 1.2 -1.75 L2.65 -7.45 Q2.9 -8.65 3.3 -9.85 3.9 -12.25 4.8 -14.65 L5.15 -16.0 Q5.85 -17.65 5.8 -19.45 L5.75 -20.05 M4.85 -21.2 Q6.45 -20.7 6.25 -19.0 L5.55 -15.85 3.95 -10.65 3.65 -9.85 2.5 -5.25 1.2 0.5 Q0.9 1.85 0.75 3.25 L0.7 4.3 0.45 5.7 Q0.4 6.4 0.85 6.95 L1.2 7.6 Q2.2 10.4 2.35 13.4 2.55 16.3 1.0 18.65 L0.7 19.3 Q-0.6 20.8 -2.6 21.2 L-2.8 21.1 Q-3.45 20.95 -4.0 20.4 L-4.1 20.3 Q-6.5 18.2 -6.2 14.9 -5.9 12.0 -4.8 9.25 -3.8 6.65 -3.35 3.95 L-3.4 3.9 -3.25 3.0 -3.15 2.4 -3.1 2.4 -2.25 -1.75 -0.9 -7.5 0.15 -11.7 0.25 -12.3 1.85 -17.55 Q2.55 -19.5 4.05 -20.85 L4.1 -20.9 4.15 -20.95 4.3 -21.0 4.65 -21.15 4.85 -21.2" fill="#000000" fill-rule="evenodd" stroke="none"/>
  </g>
  <defs>
    <linearGradient gradientTransform="matrix(0.007, 8.0E-4, -0.0027, 0.0252, 2.15, -1.15)" gradientUnits="userSpaceOnUse" id="gradient0" spreadMethod="pad" x1="-819.2" x2="819.2">
      <stop offset="0.0" stop-color="#236fdd"/>
      <stop offset="1.0" stop-color="#000000"/>
    </linearGradient>
  </defs>
</svg>
