<?xml version="1.0" encoding="UTF-8" standalone="no"?>
<svg xmlns:xlink="http://www.w3.org/1999/xlink" height="24.5px" width="19.25px" xmlns="http://www.w3.org/2000/svg">
  <g transform="matrix(1.0, 0.0, 0.0, 1.0, -5.85, -3.25)">
    <use height="24.2" transform="matrix(1.0, 0.0, 0.0, 1.0, 6.05, 3.3)" width="18.7" xlink:href="#shape0"/>
  </g>
  <defs>
    <g id="shape0" transform="matrix(1.0, 0.0, 0.0, 1.0, -6.05, -3.3)">
      <path d="M23.25 23.65 Q21.5 25.8 18.5 26.85 15.6 27.8 12.6 27.35 10.65 27.05 9.1 26.25 6.75 25.0 6.2 22.85 5.7 21.0 6.75 18.9 7.65 16.95 10.45 15.2 9.0 13.95 8.5 13.15 7.55 11.8 7.55 10.15 7.55 6.55 11.15 4.5 12.8 3.55 15.5 3.35 19.1 3.15 21.25 4.15 24.15 5.6 24.15 8.9 24.15 10.05 23.65 11.2 23.15 12.4 22.3 13.15 L20.65 14.5 Q23.55 15.9 24.35 17.8 25.0 19.1 24.55 20.75 24.25 22.3 23.25 23.65 M13.85 10.95 Q14.35 11.5 15.3 11.5 17.15 11.5 17.65 9.95 17.95 9.1 17.45 8.5 17.05 8.0 16.2 7.9 15.3 7.8 14.55 8.2 13.65 8.7 13.45 9.65 13.25 10.45 13.85 10.95 M15.3 18.1 Q13.15 18.4 12.9 20.25 12.8 21.3 13.85 21.7 L15.4 21.9 Q16.45 21.8 17.15 21.1 17.95 20.35 17.75 19.35 17.35 17.8 15.3 18.1" fill="#336666" fill-rule="evenodd" stroke="none"/>
    </g>
  </defs>
</svg>
