<?xml version="1.0" encoding="UTF-8" standalone="no"?>
<svg xmlns:xlink="http://www.w3.org/1999/xlink" height="24.5px" width="19.25px" xmlns="http://www.w3.org/2000/svg">
  <g transform="matrix(1.0, 0.0, 0.0, 1.0, -5.85, -3.25)">
    <use height="23.6" transform="matrix(1.0, 0.0, 0.0, 1.0, 6.85, 4.05)" width="17.5" xlink:href="#shape0"/>
  </g>
  <defs>
    <g id="shape0" transform="matrix(1.0, 0.0, 0.0, 1.0, -6.85, -4.05)">
      <path d="M23.25 23.65 Q21.7 25.8 18.4 26.85 15.4 27.8 12.3 27.6 L8.3 27.25 6.85 20.75 12.4 21.3 14.65 21.1 Q15.6 20.85 16.1 20.15 17.05 18.9 16.1 17.7 15.3 16.55 12.0 15.2 L14.35 13.45 Q16.0 12.0 15.6 10.85 15.3 10.15 13.85 10.15 L10.85 10.65 7.95 11.5 8.7 5.2 14.65 4.35 Q20.65 3.55 22.8 5.0 24.45 6.15 24.25 8.5 24.15 10.25 22.8 11.9 L20.15 14.6 Q23.65 16.45 24.15 18.9 24.8 21.5 23.25 23.65" fill="#cc6600" fill-rule="evenodd" stroke="none"/>
    </g>
  </defs>
</svg>
