<?xml version="1.0" encoding="UTF-8" standalone="no"?>
<svg xmlns:xlink="http://www.w3.org/1999/xlink" height="24.5px" width="19.25px" xmlns="http://www.w3.org/2000/svg">
  <g transform="matrix(1.0, 0.0, 0.0, 1.0, -5.85, -3.25)">
    <use height="23.95" transform="matrix(1.0, 0.0, 0.0, 1.0, 6.55, 3.7)" width="18.1" xlink:href="#shape0"/>
  </g>
  <defs>
    <g id="shape0" transform="matrix(1.0, 0.0, 0.0, 1.0, -6.55, -3.7)">
      <path d="M24.55 7.15 Q24.9 8.5 24.15 10.35 23.55 12.0 22.5 13.25 L15.5 21.9 18.9 21.6 23.65 20.65 23.25 26.55 9.4 27.6 Q7.65 27.45 7.05 26.65 6.2 25.6 6.85 23.95 7.25 22.85 8.3 21.6 L11.6 17.7 15.4 13.25 16.55 11.6 Q17.15 10.35 16.75 9.85 16.3 9.3 15.3 9.45 L12.2 10.25 Q10.55 10.85 7.55 12.3 L7.75 5.3 Q11.8 4.25 14.15 3.95 17.95 3.45 20.95 3.95 24.05 4.5 24.55 7.15" fill="#ff6600" fill-rule="evenodd" stroke="none"/>
    </g>
  </defs>
</svg>
