<?xml version="1.0" encoding="UTF-8" standalone="no"?>
<svg xmlns:xlink="http://www.w3.org/1999/xlink" height="1048.7px" width="1205.05px" xmlns="http://www.w3.org/2000/svg">
  <g transform="matrix(1.0, 0.0, 0.0, 1.0, 669.85, 399.25)">
    <clipPath id="clipPath0" transform="matrix(1.0, 0.0, 0.0, 1.0, 669.85, 399.25)">
      <use height="111.0" transform="matrix(1.0, 0.0, 0.0, 1.0, -325.0, -55.5)" width="649.0" xlink:href="#shape0"/>
    </clipPath>
    <g clip-path="url(#clipPath0)">
      <use height="1048.7" transform="matrix(1.0, 0.0, 0.0, 1.0, -669.85, -399.25)" width="1205.05" xlink:href="#sprite0"/>
    </g>
    <use height="5.0" transform="matrix(1.0, 0.0, 0.0, 1.0, -328.5, -58.5)" width="655.95" xlink:href="#shape4"/>
    <use height="98.3" transform="matrix(0.75, 0.0, 0.0, 0.75, -320.2, -35.775)" width="249.7" xlink:href="#sprite1"/>
    <use height="76.4" transform="matrix(1.0, 0.0, 0.0, 1.0, 174.45, -37.25)" width="142.15" xlink:href="#sprite2"/>
  </g>
  <defs>
    <g id="shape0" transform="matrix(1.0, 0.0, 0.0, 1.0, 325.0, 55.5)">
      <path d="M324.0 55.5 L-325.0 55.5 -325.0 -55.5 324.0 -55.5 324.0 55.5" fill="#308945" fill-rule="evenodd" stroke="none"/>
    </g>
    <g id="sprite0" transform="matrix(1.0, 0.0, 0.0, 1.0, 344.85, 208.2)">
      <use height="549.95" transform="matrix(1.0, 0.0, 0.0, 1.0, 0.0, 0.0)" width="649.95" xlink:href="#shape1"/>
      <clipPath id="clipPath1" transform="matrix(1.0, 0.0, 0.0, 1.0, 344.85, 208.2)">
        <use height="549.95" transform="matrix(1.0, 0.0, 0.0, 1.0, 0.0, 0.0)" width="649.95" xlink:href="#shape1"/>
      </clipPath>
      <g clip-path="url(#clipPath1)">
        <use height="918.95" transform="matrix(1.0, 0.0, 0.0, 1.0, -112.3, -201.15)" width="919.0" xlink:href="#shape2"/>
        <use height="106.9" transform="matrix(1.7335, -0.6498, 0.6498, 1.7335, 131.576, -32.6694)" width="270.15" xlink:href="#shape3"/>
        <use height="106.9" transform="matrix(1.7335, -0.6498, 0.6498, 1.7335, -344.874, 145.8806)" width="270.15" xlink:href="#shape3"/>
        <use height="106.9" transform="matrix(1.7335, -0.6498, 0.6498, 1.7335, 195.226, 137.1306)" width="270.15" xlink:href="#shape3"/>
        <use height="106.9" transform="matrix(1.7335, -0.6498, 0.6498, 1.7335, -281.274, 315.6806)" width="270.15" xlink:href="#shape3"/>
        <use height="106.9" transform="matrix(1.7335, -0.6498, 0.6498, 1.7335, 258.876, 306.9306)" width="270.15" xlink:href="#shape3"/>
        <use height="106.9" transform="matrix(1.7335, -0.6498, 0.6498, 1.7335, -217.624, 485.4806)" width="270.15" xlink:href="#shape3"/>
        <use height="106.9" transform="matrix(1.7335, -0.6498, 0.6498, 1.7335, 322.426, 476.6306)" width="270.15" xlink:href="#shape3"/>
        <use height="106.9" transform="matrix(1.7335, -0.6498, 0.6498, 1.7335, -154.024, 655.1806)" width="270.15" xlink:href="#shape3"/>
      </g>
    </g>
    <g id="shape1" transform="matrix(1.0, 0.0, 0.0, 1.0, 0.0, 0.0)">
      <path d="M649.95 0.0 L649.95 549.95 0.0 549.95 0.0 0.0 649.95 0.0" fill="url(#gradient0)" fill-rule="evenodd" stroke="none"/>
    </g>
    <linearGradient gradientTransform="matrix(-0.0046, 0.1305, -0.2218, -0.0179, 288.0, 496.95)" gradientUnits="userSpaceOnUse" id="gradient0" spreadMethod="pad" x1="-819.2" x2="819.2">
      <stop offset="0.0" stop-color="#165dad"/>
      <stop offset="1.0" stop-color="#002f62"/>
    </linearGradient>
    <g id="shape2" transform="matrix(1.0, 0.0, 0.0, 1.0, 112.3, 201.15)">
      <path d="M594.1 -128.15 Q754.15 -25.9 795.0 159.65 835.95 345.1 733.7 505.25 631.45 665.2 445.95 706.1 260.45 747.0 100.4 644.85 -59.65 542.55 -100.6 357.05 -141.5 171.5 -39.25 11.55 62.95 -148.6 248.45 -189.4 434.0 -230.4 594.1 -128.15" fill="url(#gradient1)" fill-rule="evenodd" stroke="none"/>
    </g>
    <radialGradient cx="0" cy="0" gradientTransform="matrix(0.7906, -0.5615, 0.6503, 0.9158, 90.95, -60.4)" gradientUnits="userSpaceOnUse" id="gradient1" r="819.2" spreadMethod="pad">
      <stop offset="0.0" stop-color="#00cccc"/>
      <stop offset="0.4470588235294118" stop-color="#0066ff"/>
      <stop offset="1.0" stop-color="#6600cc"/>
    </radialGradient>
    <g id="shape3" transform="matrix(1.0, 0.0, 0.0, 1.0, 143.95, 53.45)">
      <path d="M38.25 -26.35 L38.85 -32.05 46.85 -27.85 40.4 -25.35 38.25 -26.35 M30.5 -32.7 L36.1 -33.7 35.85 -23.9 Q38.25 -23.3 39.7 -22.2 L41.35 -20.45 49.1 -23.2 Q50.8 -20.35 51.35 -16.6 51.95 -12.6 51.05 -8.4 L44.6 -4.1 44.55 0.45 44.15 3.55 48.95 5.85 Q48.85 9.5 46.6 16.6 44.25 23.95 42.45 25.6 L36.2 23.5 33.9 28.0 36.65 34.4 Q35.2 38.1 32.7 40.9 30.35 43.45 27.9 44.4 L21.75 38.4 Q19.4 39.25 17.3 39.15 L12.4 45.4 Q10.35 44.2 9.55 43.25 L7.0 38.7 9.2 31.65 8.35 26.85 4.7 25.55 4.4 20.2 5.4 12.95 9.25 12.25 9.7 10.4 Q10.65 6.4 11.8 4.05 L6.8 1.6 Q7.1 -0.4 7.0 -2.25 L15.05 -1.6 17.8 -20.3 22.45 -23.1 23.7 -30.4 Q26.5 -31.75 30.5 -32.7 M39.1 -34.7 L39.45 -37.8 47.75 -32.05 47.35 -30.2 39.1 -34.7 M2.9 -38.1 L4.9 -37.35 Q4.65 -36.25 3.45 -36.7 L0.4 -36.85 Q0.65 -37.5 1.45 -38.2 L1.2 -38.25 Q-0.5 -38.85 0.1 -40.65 0.3 -41.35 0.9 -41.65 4.7 -43.7 7.15 -41.35 L0.65 -40.05 5.75 -38.2 Q7.65 -37.5 6.3 -35.65 4.8 -33.6 2.35 -34.5 -0.1 -35.4 0.35 -36.75 0.55 -35.75 1.9 -35.7 4.2 -35.6 5.75 -37.0 5.35 -38.4 3.8 -38.15 L2.9 -38.1 M-0.4 29.6 L-16.6 27.7 -12.4 -4.85 -21.95 -5.4 -21.9 -16.15 13.0 -21.8 10.75 -4.65 -0.25 -4.85 -0.35 29.55 -0.4 29.55 -0.4 29.6 M56.15 -10.85 Q56.6 -14.8 56.0 -20.35 L62.4 -18.6 Q63.05 -13.95 62.6 -9.75 L56.15 -10.85 M54.75 -27.65 Q60.5 -25.0 60.55 -25.05 L61.7 -21.8 55.4 -24.45 54.75 -27.65 M24.8 -6.7 Q22.6 -5.4 20.85 -2.45 19.05 0.45 18.2 4.25 16.85 10.0 18.15 14.6 19.45 19.2 22.65 20.1 24.75 20.7 27.0 19.4 L27.45 19.1 30.2 16.2 Q31.55 14.45 32.4 12.45 L33.55 8.75 34.3 3.4 Q34.35 0.55 33.7 -1.9 32.4 -6.5 29.2 -7.4 27.0 -8.0 24.8 -6.7 M36.4 -16.4 L35.0 -17.8 Q33.45 -18.95 31.55 -19.25 29.35 -19.65 27.3 -18.85 25.15 -18.1 23.55 -16.5 22.4 -15.45 21.9 -14.15 L22.1 -13.45 Q25.1 -15.95 28.2 -15.7 30.95 -15.5 33.4 -13.2 35.6 -11.1 37.1 -7.75 38.5 -4.5 38.75 -1.2 L39.25 -1.5 Q39.75 -7.3 38.7 -11.35 L38.4 -12.3 Q37.7 -14.5 36.4 -16.4 M63.8 -4.1 L65.5 2.7 67.5 -2.25 69.95 2.6 71.3 -8.7 84.25 -9.35 79.4 28.75 71.25 28.9 68.15 20.6 65.2 26.85 56.7 26.65 52.45 -3.85 63.8 -4.1 M97.0 20.1 L96.5 26.4 84.85 26.75 86.45 -8.1 97.15 -7.95 99.1 -4.2 98.85 -18.45 118.0 -20.35 109.25 23.9 100.1 23.9 97.15 18.6 97.1 18.6 97.0 20.1 M100.85 31.2 L100.0 40.55 96.5 41.0 95.15 35.7 94.7 41.0 92.15 41.25 92.1 32.55 96.6 32.1 97.8 37.35 98.05 31.5 100.85 31.2 M90.15 32.15 L89.2 41.45 86.45 41.7 86.65 32.45 90.15 32.15 M84.85 41.8 L79.25 42.3 79.65 33.1 83.1 32.75 82.25 40.35 85.0 40.25 84.85 41.8 M105.75 32.7 L105.5 34.8 108.3 34.55 107.8 36.25 105.35 36.45 105.15 38.4 108.2 38.05 107.75 39.75 102.25 40.3 102.75 31.05 109.4 30.4 108.9 32.45 105.75 32.7 M60.3 45.4 L60.35 45.3 Q61.6 43.3 62.25 41.05 62.85 38.95 62.55 36.85 62.2 34.6 60.5 33.15 57.25 39.55 60.3 45.4 M58.85 47.1 Q56.4 46.65 55.2 44.05 54.05 41.4 54.75 38.15 55.4 34.85 57.65 32.85 59.85 30.8 62.25 31.25 L62.5 31.3 Q64.7 31.8 65.85 34.3 67.05 36.95 66.35 40.2 65.6 43.5 63.45 45.5 L62.5 46.25 Q60.7 47.45 58.85 47.1 M49.75 18.55 L53.8 20.8 Q52.65 26.85 51.1 29.3 L46.15 26.85 Q48.15 24.6 49.75 18.55 M45.9 37.6 L39.05 34.55 37.0 29.75 45.7 34.05 45.9 37.6 M77.4 33.55 L76.5 42.85 73.05 43.3 71.7 38.0 71.2 43.3 68.7 43.55 68.65 34.85 73.1 34.45 74.35 39.65 74.55 33.8 77.4 33.55 M19.45 32.4 L20.5 32.5 23.9 32.1 24.9 31.8 28.95 29.4 Q31.05 27.7 32.6 25.2 L34.6 21.25 35.5 18.55 34.95 18.25 Q32.25 23.8 26.95 26.5 25.2 27.4 23.25 27.45 L22.85 27.45 20.4 27.0 Q18.35 26.2 16.95 24.55 15.35 22.7 14.5 20.45 L13.15 15.2 12.35 15.75 Q11.75 21.9 12.9 26.6 13.9 30.9 16.2 33.45 18.4 35.9 21.3 36.25 24.25 36.6 27.25 34.9 L27.0 34.3 Q21.95 35.75 19.45 32.45 L19.45 32.4 M-135.6 -19.45 L-136.15 -21.65 -94.65 -21.45 -91.65 -9.5 -100.3 -6.9 -86.3 36.15 -107.7 43.45 -114.6 -2.6 -130.25 1.6 -135.6 -19.45 M-85.1 -8.95 Q-83.9 -11.6 -82.2 -13.4 -80.0 -15.75 -77.25 -16.35 -74.55 -17.0 -71.75 -15.8 -69.1 -14.6 -66.7 -11.85 -65.15 -10.1 -63.95 -7.9 -61.25 -3.15 -60.2 3.35 -59.65 6.85 -59.7 10.15 L-59.7 11.15 Q-59.85 13.95 -60.45 16.55 L-61.3 19.65 -61.55 20.3 Q-62.55 22.9 -63.95 24.85 L-65.05 26.15 Q-67.25 28.5 -69.95 29.15 -72.7 29.75 -75.45 28.55 -78.15 27.35 -80.5 24.6 -85.55 18.85 -87.0 9.45 -88.55 0.0 -85.7 -7.55 L-85.6 -7.75 -85.1 -9.0 -85.1 -8.95 M-55.7 -51.9 Q-48.9 -50.55 -43.8 -45.9 -42.2 -44.45 -41.15 -42.5 -40.55 -41.35 -40.3 -40.05 -40.15 -39.2 -40.35 -38.3 -40.65 -37.25 -41.3 -36.4 -42.05 -35.45 -43.0 -34.85 -47.4 -32.15 -52.45 -33.6 L-52.75 -32.55 -54.0 -32.35 -54.55 -34.4 Q-58.25 -35.6 -58.9 -38.5 -57.05 -36.8 -54.65 -35.9 L-54.45 -40.55 -58.95 -39.65 Q-58.35 -42.3 -54.5 -42.35 -54.55 -44.6 -53.7 -46.65 -52.1 -45.0 -52.55 -42.7 L-50.4 -42.75 -48.75 -42.5 -47.4 -41.65 Q-45.6 -39.75 -47.0 -37.95 L-48.15 -38.25 -47.2 -39.5 Q-49.7 -40.85 -52.5 -40.6 L-52.45 -35.2 -49.75 -34.8 Q-46.55 -34.75 -44.1 -36.85 -43.2 -37.65 -42.75 -38.75 -42.5 -39.35 -42.55 -40.0 -42.7 -41.15 -43.2 -42.15 -43.85 -43.45 -44.8 -44.45 -46.35 -46.05 -48.2 -47.2 -54.8 -51.35 -62.25 -49.85 L-61.35 -49.25 -61.45 -49.2 Q-62.35 -48.65 -63.25 -49.35 -62.1 -50.8 -60.4 -51.5 -58.15 -52.4 -55.7 -51.9 M-70.35 -4.35 Q-71.65 -4.2 -72.65 -3.2 -68.95 -1.65 -67.4 2.4 -66.95 3.7 -66.75 5.15 L-66.6 6.45 Q-69.25 1.1 -75.0 1.95 -75.45 4.55 -75.0 7.35 -74.3 11.9 -71.9 14.9 -69.55 17.85 -66.9 17.6 -65.15 17.4 -63.95 15.8 -63.35 15.05 -62.9 13.95 -61.55 10.5 -62.25 6.0 -62.7 2.95 -63.95 0.55 L-65.3 -1.6 Q-67.7 -4.65 -70.35 -4.35 M-51.1 -6.1 L-50.85 -6.35 Q-47.8 -9.6 -44.3 -9.05 -40.7 -8.45 -38.7 -4.15 -37.3 -1.0 -37.4 2.85 L-37.75 6.2 -38.45 8.8 -38.4 8.75 -38.65 9.4 -40.6 13.2 -40.7 13.3 -41.7 14.55 Q-44.9 18.0 -48.5 17.45 -52.15 16.85 -54.05 12.55 -56.05 8.3 -55.15 2.8 -54.3 -2.7 -51.1 -6.1 M-45.2 -1.6 Q-43.15 -0.4 -42.65 2.1 -42.5 2.9 -42.5 3.75 L-42.55 4.55 Q-44.2 1.55 -47.65 1.3 -48.25 2.65 -48.35 4.45 -48.5 7.2 -47.3 9.2 -46.15 11.25 -44.3 11.35 -42.5 11.45 -41.1 9.55 -39.65 7.65 -39.5 4.9 -39.35 2.15 -40.55 0.1 -41.75 -1.9 -43.55 -2.0 -44.35 -2.1 -45.2 -1.6 M-1.8 -46.1 Q1.1 -44.65 -0.9 -42.65 -1.2 -42.4 -1.55 -42.25 -0.7 -43.65 -2.0 -44.85 L-1.8 -46.1 M-7.05 -42.4 L-8.55 -37.05 Q-6.85 -39.95 -4.0 -41.65 -1.45 -41.0 -2.1 -38.15 -2.75 -35.8 -4.8 -34.5 -6.1 -33.7 -7.6 -33.65 L-9.35 -26.75 Q-12.75 -29.2 -10.0 -33.9 L-9.35 -35.15 Q-10.45 -39.55 -7.2 -42.35 L-7.05 -42.4 M-16.9 -41.8 Q-13.85 -43.3 -10.8 -41.9 -10.25 -41.65 -10.5 -41.1 L-13.9 -40.75 -14.25 -39.55 Q-11.9 -40.35 -11.8 -38.4 L-14.8 -37.85 -15.2 -36.35 -11.75 -36.75 -11.45 -35.9 Q-14.1 -33.0 -16.45 -35.15 -17.35 -35.95 -17.1 -37.2 L-16.65 -39.0 -15.4 -40.85 Q-16.4 -41.05 -16.85 -41.75 L-16.9 -41.8 M-4.95 -36.3 Q-2.5 -37.85 -3.6 -40.05 -5.55 -38.3 -6.6 -35.85 -5.7 -35.85 -4.95 -36.3 M-19.7 -35.25 Q-20.0 -34.8 -20.55 -34.7 L-21.3 -35.3 -23.65 -39.2 -23.75 -36.4 Q-23.75 -34.95 -24.6 -34.15 -26.0 -35.4 -25.7 -37.4 -25.4 -39.75 -24.2 -41.8 -23.9 -41.85 -23.7 -41.6 -21.85 -39.55 -20.45 -37.1 L-21.35 -43.65 Q-19.95 -43.25 -19.35 -41.8 -17.9 -38.35 -19.7 -35.25 M-27.1 -41.35 L-33.55 -40.05 Q-32.8 -39.6 -31.9 -39.5 -29.5 -39.5 -28.1 -37.85 -27.15 -36.65 -28.4 -35.3 -30.3 -33.3 -32.6 -34.95 -35.45 -37.05 -32.7 -38.2 L-32.9 -38.25 Q-34.45 -38.95 -34.45 -40.65 -31.35 -43.95 -27.0 -41.9 L-27.1 -41.35 M-32.55 -47.45 Q-32.75 -46.55 -33.6 -45.6 -35.75 -43.35 -38.5 -44.05 -39.0 -43.0 -39.35 -43.5 -39.75 -43.95 -39.7 -44.85 -40.6 -45.8 -40.15 -47.05 -39.75 -48.2 -38.5 -49.1 -37.25 -50.0 -36.0 -50.05 -34.6 -50.15 -33.95 -49.15 -33.5 -49.25 -32.95 -48.85 -32.35 -48.4 -32.55 -47.45 M-33.6 -48.0 Q-36.05 -48.35 -37.4 -45.8 L-37.65 -45.35 Q-35.1 -45.2 -33.65 -47.1 -33.35 -47.55 -33.6 -48.0 M-37.1 -48.35 Q-37.75 -48.35 -38.65 -47.5 -39.6 -46.55 -39.1 -46.05 L-37.1 -48.35 M-37.3 -42.35 Q-36.25 -40.35 -36.35 -37.9 L-36.45 -34.55 Q-37.25 -33.9 -37.5 -34.7 -38.65 -38.1 -38.1 -41.75 L-37.7 -42.5 -37.3 -42.35 M-28.4 -37.05 Q-29.0 -38.45 -30.7 -37.95 L-29.35 -37.25 -29.55 -36.8 -33.85 -36.85 Q-31.75 -34.55 -28.65 -36.85 L-28.4 -37.05 M-28.55 -0.85 L-17.3 -1.75 -18.85 23.2 -26.2 22.85 -28.4 19.55 -28.65 25.7 -41.15 25.2 -40.45 20.15 Q-39.0 18.45 -37.9 16.5 -35.95 12.9 -35.15 8.35 L-34.8 3.2 -28.05 3.9 -28.55 -0.85" fill="#ffffff" fill-opacity="0.05490196" fill-rule="evenodd" stroke="none"/>
      <path d="M39.1 -34.7 L47.35 -30.2 47.75 -32.05 39.45 -37.8 39.1 -34.7 M30.5 -32.7 Q26.5 -31.75 23.7 -30.4 L22.45 -23.1 17.8 -20.3 15.05 -1.6 7.0 -2.25 Q7.1 -0.4 6.8 1.6 L11.8 4.05 Q10.65 6.4 9.7 10.4 L9.25 12.25 5.4 12.95 4.4 20.2 4.7 25.55 8.35 26.85 9.2 31.65 7.0 38.7 9.55 43.25 Q10.35 44.2 12.4 45.4 L17.3 39.15 Q19.4 39.25 21.75 38.4 L27.9 44.4 Q30.35 43.45 32.7 40.9 35.2 38.1 36.65 34.4 L33.9 28.0 36.2 23.5 42.45 25.6 Q44.25 23.95 46.6 16.6 48.85 9.5 48.95 5.85 L44.15 3.55 44.55 0.45 44.6 -4.1 51.05 -8.4 Q51.95 -12.6 51.35 -16.6 50.8 -20.35 49.1 -23.2 L41.35 -20.45 39.7 -22.2 Q38.25 -23.3 35.85 -23.9 L36.1 -33.7 30.5 -32.7 M38.25 -26.35 L40.4 -25.35 46.85 -27.85 38.85 -32.05 38.25 -26.35 M1.55 -43.6 L6.5 -43.85 Q7.55 -43.65 8.15 -42.75 9.45 -40.9 7.4 -39.75 8.3 -39.0 8.5 -37.8 8.7 -36.35 8.0 -35.1 6.55 -32.6 3.5 -32.6 -0.05 -32.6 -1.65 -35.55 -2.65 -33.9 -4.3 -33.0 -5.35 -32.45 -6.5 -32.25 L-7.45 -28.6 Q-7.2 -25.55 -9.75 -25.6 -11.95 -25.65 -12.35 -27.85 -12.6 -30.1 -11.95 -32.2 L-11.4 -33.95 Q-13.2 -32.65 -15.4 -32.5 -16.6 -32.5 -17.5 -33.3 L-18.25 -34.35 Q-19.15 -33.25 -20.5 -33.3 -21.7 -33.3 -22.4 -34.25 -22.8 -33.45 -24.15 -32.85 -25.15 -32.5 -25.95 -33.15 L-26.7 -34.1 Q-28.1 -32.9 -30.0 -32.7 -31.85 -32.6 -33.55 -33.25 L-35.0 -34.25 Q-35.2 -33.45 -36.0 -33.05 L-38.0 -32.9 Q-40.0 -33.6 -39.8 -35.8 -41.05 -34.1 -42.85 -33.05 -44.5 -32.1 -46.35 -31.8 -48.9 -31.35 -51.45 -31.8 -52.65 -30.25 -54.55 -31.1 -55.6 -31.6 -55.85 -32.7 L-56.0 -33.4 Q-59.0 -35.05 -60.85 -37.8 -61.85 -39.25 -60.85 -40.6 -59.05 -43.05 -55.9 -43.55 -56.0 -45.9 -54.65 -47.75 L-54.25 -48.05 Q-57.0 -48.9 -59.85 -48.8 -60.3 -47.7 -61.5 -47.5 L-63.3 -47.75 Q-65.7 -48.8 -63.9 -50.85 -61.25 -53.9 -56.8 -53.35 -50.4 -52.6 -45.1 -48.9 -43.3 -47.65 -41.8 -46.0 -41.8 -48.05 -40.35 -49.45 -38.85 -50.95 -36.8 -51.3 -34.25 -51.8 -32.2 -50.05 -30.1 -48.25 -31.6 -45.75 -33.05 -43.4 -35.65 -42.6 L-35.55 -42.4 Q-33.95 -43.3 -31.5 -43.8 -29.4 -44.3 -27.3 -43.75 -26.2 -43.45 -25.6 -42.5 -25.15 -43.2 -24.35 -43.25 -23.55 -43.4 -22.85 -42.9 -23.2 -44.7 -21.55 -45.05 -20.55 -45.3 -19.8 -44.6 -18.8 -43.75 -18.25 -42.5 -17.0 -44.1 -14.7 -44.2 L-10.75 -43.8 Q-9.7 -43.55 -9.15 -42.6 -8.3 -43.95 -6.8 -43.9 -6.1 -43.85 -5.65 -43.3 L-5.4 -42.65 Q-4.45 -43.25 -3.35 -43.15 L-3.05 -43.1 -2.75 -43.5 Q-3.95 -44.4 -3.55 -45.85 -3.3 -47.05 -2.2 -47.35 -0.2 -47.95 0.95 -46.1 1.65 -45.0 1.55 -43.6 M2.9 -38.1 L3.8 -38.15 Q5.35 -38.4 5.75 -37.0 4.2 -35.6 1.9 -35.7 0.55 -35.75 0.35 -36.75 -0.1 -35.4 2.35 -34.5 4.8 -33.6 6.3 -35.65 7.65 -37.5 5.75 -38.2 L0.65 -40.05 7.15 -41.35 Q4.7 -43.7 0.9 -41.65 0.3 -41.35 0.1 -40.65 -0.5 -38.85 1.2 -38.25 L1.45 -38.2 Q0.65 -37.5 0.4 -36.85 L3.45 -36.7 Q4.65 -36.25 4.9 -37.35 L2.9 -38.1 M17.85 -26.15 L19.35 -34.35 Q29.15 -41.0 38.6 -41.1 L49.3 -33.3 48.4 -28.05 53.45 -30.0 61.65 -26.2 Q62.6 -24.35 63.3 -21.25 64.45 -16.0 64.25 -9.45 L68.25 -9.35 69.0 -17.35 93.0 -16.05 92.95 -23.2 126.2 -28.0 113.15 26.85 Q114.35 28.25 114.85 30.45 115.35 32.7 114.95 35.2 114.4 38.5 112.6 40.8 110.85 43.05 108.65 43.35 L67.1 48.55 Q65.4 50.75 62.65 51.9 L62.5 51.95 Q59.9 53.0 57.6 52.55 54.05 51.9 51.8 48.15 49.8 44.85 50.0 41.5 L46.5 39.9 43.8 45.45 Q42.3 48.35 40.55 49.6 L25.75 53.05 23.2 49.0 11.7 53.3 Q4.4 50.45 1.55 40.8 L2.85 34.5 1.4 34.3 -21.8 32.65 -20.8 27.2 -25.4 27.05 -26.05 30.7 -46.2 29.9 -44.85 23.75 Q-47.85 25.35 -51.1 24.85 L-51.2 24.85 -51.75 24.75 -52.2 24.6 Q-54.9 23.9 -57.0 21.85 -58.8 27.45 -62.15 31.15 L-63.95 32.85 Q-66.7 35.1 -70.0 35.8 -77.15 37.35 -83.15 34.05 L-81.7 40.0 -111.65 53.45 -117.6 3.4 -134.35 9.1 -143.95 -28.85 -92.7 -25.7 -90.25 -15.3 Q-85.75 -20.45 -79.0 -21.9 -73.4 -23.15 -67.9 -18.9 -65.8 -17.25 -63.95 -14.95 -61.2 -11.6 -59.15 -6.85 -56.75 -10.15 -53.05 -11.85 -49.55 -13.5 -45.95 -13.25 -42.8 -13.05 -40.1 -10.85 -37.5 -8.7 -35.9 -5.1 L-28.2 -5.55 -26.85 -19.25 17.85 -26.15 M-0.35 29.55 L-0.25 -4.85 10.75 -4.65 13.0 -21.8 -21.9 -16.15 -21.95 -5.4 -12.4 -4.85 -16.6 27.7 -0.4 29.6 -0.35 29.6 -0.35 29.55 M36.4 -16.4 Q37.7 -14.5 38.4 -12.3 L38.7 -11.35 Q39.75 -7.3 39.25 -1.5 L38.75 -1.2 Q38.5 -4.5 37.1 -7.75 35.6 -11.1 33.4 -13.2 30.95 -15.5 28.2 -15.7 25.1 -15.95 22.1 -13.45 L21.9 -14.15 Q22.4 -15.45 23.55 -16.5 25.15 -18.1 27.3 -18.85 29.35 -19.65 31.55 -19.25 33.45 -18.95 35.0 -17.8 L36.4 -16.4 M24.8 -6.7 Q27.0 -8.0 29.2 -7.4 32.4 -6.5 33.7 -1.9 34.35 0.55 34.3 3.4 L33.55 8.75 32.4 12.45 Q31.55 14.45 30.2 16.2 L27.45 19.1 27.0 19.4 Q24.75 20.7 22.65 20.1 19.45 19.2 18.15 14.6 16.85 10.0 18.2 4.25 19.05 0.45 20.85 -2.45 22.6 -5.4 24.8 -6.7 M54.75 -27.65 L55.4 -24.45 61.7 -21.8 60.55 -25.05 Q60.5 -25.0 54.75 -27.65 M56.15 -10.85 L62.6 -9.75 Q63.05 -13.95 62.4 -18.6 L56.0 -20.35 Q56.6 -14.8 56.15 -10.85 M63.8 -4.1 L52.45 -3.85 56.7 26.65 65.2 26.85 68.15 20.6 71.25 28.9 79.4 28.75 84.25 -9.35 71.3 -8.7 69.95 2.6 67.5 -2.25 65.5 2.7 63.8 -4.1 M97.15 18.6 L100.1 23.9 109.25 23.9 118.0 -20.35 98.85 -18.45 99.1 -4.2 97.15 -7.95 86.45 -8.1 84.85 26.75 96.5 26.4 97.0 20.1 97.15 18.6 M105.75 32.7 L108.9 32.45 109.4 30.4 102.75 31.05 102.25 40.3 107.75 39.75 108.2 38.05 105.15 38.4 105.35 36.45 107.8 36.25 108.3 34.55 105.5 34.8 105.75 32.7 M84.85 41.8 L85.0 40.25 82.25 40.35 83.1 32.75 79.65 33.1 79.25 42.3 84.85 41.8 M90.15 32.15 L86.65 32.45 86.45 41.7 89.2 41.45 90.15 32.15 M100.85 31.2 L98.05 31.5 97.8 37.35 96.6 32.1 92.1 32.55 92.15 41.25 94.7 41.0 95.15 35.7 96.5 41.0 100.0 40.55 100.85 31.2 M49.75 18.55 Q48.15 24.6 46.15 26.85 L51.1 29.3 Q52.65 26.85 53.8 20.8 L49.75 18.55 M58.85 47.1 Q60.7 47.45 62.5 46.25 L63.45 45.5 Q65.6 43.5 66.35 40.2 67.05 36.95 65.85 34.3 64.7 31.8 62.5 31.3 L62.25 31.25 Q59.85 30.8 57.65 32.85 55.4 34.85 54.75 38.15 54.05 41.4 55.2 44.05 56.4 46.65 58.85 47.1 M60.3 45.4 Q57.25 39.55 60.5 33.15 62.2 34.6 62.55 36.85 62.85 38.95 62.25 41.05 61.6 43.3 60.35 45.3 L60.3 45.4 M19.45 32.45 Q21.95 35.75 27.0 34.3 L27.25 34.9 Q24.25 36.6 21.3 36.25 18.4 35.9 16.2 33.45 13.9 30.9 12.9 26.6 11.75 21.9 12.35 15.75 L13.15 15.2 14.5 20.45 Q15.35 22.7 16.95 24.55 18.35 26.2 20.4 27.0 L22.85 27.45 23.25 27.45 Q25.2 27.4 26.95 26.5 32.25 23.8 34.95 18.25 L35.5 18.55 34.6 21.25 32.6 25.2 Q31.05 27.7 28.95 29.4 L24.9 31.8 23.9 32.1 20.5 32.5 19.45 32.4 19.4 32.4 19.45 32.45 M77.4 33.55 L74.55 33.8 74.35 39.65 73.1 34.45 68.65 34.85 68.7 43.55 71.2 43.3 71.7 38.0 73.05 43.3 76.5 42.85 77.4 33.55 M45.9 37.6 L45.7 34.05 37.0 29.75 39.05 34.55 45.9 37.6 M27.2 15.65 Q29.75 12.85 30.95 7.85 32.25 2.15 30.85 -1.75 28.4 1.3 27.3 6.1 26.0 11.5 27.2 15.65 M-136.15 -21.65 L-136.2 -21.65 -135.6 -19.45 -130.25 1.6 -114.6 -2.6 -107.7 43.45 -86.3 36.15 -100.3 -6.9 -91.65 -9.5 -94.65 -21.45 -136.15 -21.65 M-87.3 -21.95 L-88.7 -22.65 Q-87.05 -28.75 -83.4 -31.5 -80.15 -33.95 -75.9 -33.4 -72.0 -32.95 -68.4 -30.15 -64.85 -27.4 -63.15 -23.5 L-64.95 -22.1 Q-66.75 -24.0 -69.4 -25.3 -72.3 -26.7 -75.25 -27.0 -82.55 -27.75 -87.3 -21.95 M-55.7 -51.9 Q-58.15 -52.4 -60.4 -51.5 -62.1 -50.8 -63.25 -49.35 -62.35 -48.65 -61.45 -49.2 L-61.35 -49.25 -62.25 -49.85 Q-54.8 -51.35 -48.2 -47.2 -46.35 -46.05 -44.8 -44.45 -43.85 -43.45 -43.2 -42.15 -42.7 -41.15 -42.55 -40.0 -42.5 -39.35 -42.75 -38.75 -43.2 -37.65 -44.1 -36.85 -46.55 -34.75 -49.75 -34.8 L-52.45 -35.2 -52.5 -40.6 Q-49.7 -40.85 -47.2 -39.5 L-48.15 -38.25 -47.0 -37.95 Q-45.6 -39.75 -47.4 -41.65 L-48.75 -42.5 -50.4 -42.75 -52.55 -42.7 Q-52.1 -45.0 -53.7 -46.65 -54.55 -44.6 -54.5 -42.35 -58.35 -42.3 -58.95 -39.65 L-54.45 -40.55 -54.65 -35.9 Q-57.05 -36.8 -58.9 -38.5 -58.25 -35.6 -54.55 -34.4 L-54.0 -32.35 -52.75 -32.55 -52.45 -33.6 Q-47.4 -32.15 -43.0 -34.85 -42.05 -35.45 -41.3 -36.4 -40.65 -37.25 -40.35 -38.3 -40.15 -39.2 -40.3 -40.05 -40.55 -41.35 -41.15 -42.5 -42.2 -44.45 -43.8 -45.9 -48.9 -50.55 -55.7 -51.9 M-85.1 -8.95 L-85.1 -9.0 -85.6 -7.75 -85.7 -7.55 Q-88.55 0.0 -87.0 9.45 -85.55 18.85 -80.5 24.6 -78.15 27.35 -75.45 28.55 -72.7 29.75 -69.95 29.15 -67.25 28.5 -65.05 26.15 L-63.95 24.85 Q-62.55 22.9 -61.55 20.3 L-61.3 19.65 -60.45 16.55 Q-59.85 13.95 -59.7 11.15 L-59.7 10.15 Q-59.65 6.85 -60.2 3.35 -61.25 -3.15 -63.95 -7.9 -65.15 -10.1 -66.7 -11.85 -69.1 -14.6 -71.75 -15.8 -74.55 -17.0 -77.25 -16.35 -80.0 -15.75 -82.2 -13.4 -83.9 -11.6 -85.1 -8.95 M-44.75 -37.85 L-44.35 -38.4 Q-43.85 -39.5 -44.2 -40.6 L-44.1 -39.8 Q-44.1 -38.75 -44.75 -37.85 M-44.55 -41.45 Q-46.35 -44.85 -51.5 -47.05 L-52.0 -47.3 Q-51.3 -46.45 -51.15 -45.1 L-51.1 -44.05 -47.75 -43.5 Q-45.45 -42.9 -44.55 -41.45 M-56.8 -38.7 L-56.1 -38.25 -56.05 -38.8 -56.8 -38.7 M-48.75 -36.85 Q-49.95 -37.45 -49.6 -38.75 L-51.05 -39.1 -51.0 -36.45 -47.85 -36.5 -48.75 -36.85 M-70.35 -4.35 Q-67.7 -4.65 -65.3 -1.6 L-63.95 0.55 Q-62.7 2.95 -62.25 6.0 -61.55 10.5 -62.9 13.95 -63.35 15.05 -63.95 15.8 -65.15 17.4 -66.9 17.6 -69.55 17.85 -71.9 14.9 -74.3 11.9 -75.0 7.35 -75.45 4.55 -75.0 1.95 -69.25 1.1 -66.6 6.45 L-66.75 5.15 Q-66.95 3.7 -67.4 2.4 -68.95 -1.65 -72.65 -3.2 -71.65 -4.2 -70.35 -4.35 M-42.7 -20.05 Q-40.2 -18.5 -38.4 -15.35 L-40.05 -14.45 Q-43.25 -16.9 -46.35 -17.15 -49.9 -17.5 -52.9 -14.95 L-54.45 -15.75 Q-53.65 -18.15 -51.75 -19.65 -49.85 -21.1 -47.45 -21.25 -45.0 -21.45 -42.7 -20.05 M-50.85 -6.35 L-50.85 -6.4 -51.05 -6.2 -51.1 -6.1 Q-54.3 -2.7 -55.15 2.8 -56.05 8.3 -54.05 12.55 -52.15 16.85 -48.5 17.45 -44.9 18.0 -41.7 14.55 L-40.7 13.3 -40.6 13.2 -38.65 9.4 -38.4 8.75 -38.45 8.8 -37.75 6.2 -37.4 2.85 Q-37.3 -1.0 -38.7 -4.15 -40.7 -8.45 -44.3 -9.05 -47.8 -9.6 -50.85 -6.35 M-19.7 -35.25 Q-17.9 -38.35 -19.35 -41.8 -19.95 -43.25 -21.35 -43.65 L-20.45 -37.1 Q-21.85 -39.55 -23.7 -41.6 -23.9 -41.85 -24.2 -41.8 -25.4 -39.75 -25.7 -37.4 -26.0 -35.4 -24.6 -34.15 -23.75 -34.95 -23.75 -36.4 L-23.65 -39.2 -21.3 -35.3 -20.55 -34.7 Q-20.0 -34.8 -19.7 -35.25 M-4.95 -36.3 Q-5.7 -35.85 -6.6 -35.85 -5.55 -38.3 -3.6 -40.05 -2.5 -37.85 -4.95 -36.3 M-16.9 -41.8 L-16.85 -41.75 Q-16.4 -41.05 -15.4 -40.85 L-16.65 -39.0 -17.1 -37.2 Q-17.35 -35.95 -16.45 -35.15 -14.1 -33.0 -11.45 -35.9 L-11.75 -36.75 -15.2 -36.35 -14.8 -37.85 -11.8 -38.4 Q-11.9 -40.35 -14.25 -39.55 L-13.9 -40.75 -10.5 -41.1 Q-10.25 -41.65 -10.8 -41.9 -13.85 -43.3 -16.9 -41.8 M-7.05 -42.4 L-7.2 -42.35 Q-10.45 -39.55 -9.35 -35.15 L-10.0 -33.9 Q-12.75 -29.2 -9.35 -26.75 L-7.6 -33.65 Q-6.1 -33.7 -4.8 -34.5 -2.75 -35.8 -2.1 -38.15 -1.45 -41.0 -4.0 -41.65 -6.85 -39.95 -8.55 -37.05 L-7.05 -42.4 M-1.8 -46.1 L-2.0 -44.85 Q-0.7 -43.65 -1.55 -42.25 -1.2 -42.4 -0.9 -42.65 1.1 -44.65 -1.8 -46.1 M-45.2 -1.6 Q-44.35 -2.1 -43.55 -2.0 -41.75 -1.9 -40.55 0.1 -39.35 2.15 -39.5 4.9 -39.65 7.65 -41.1 9.55 -42.5 11.45 -44.3 11.35 -46.15 11.25 -47.3 9.2 -48.5 7.2 -48.35 4.45 -48.25 2.65 -47.65 1.3 -44.2 1.55 -42.55 4.55 L-42.5 3.75 Q-42.5 2.9 -42.65 2.1 -43.15 -0.4 -45.2 -1.6 M-26.55 -39.9 L-26.8 -39.8 -26.6 -39.65 -26.55 -39.9 M-28.4 -37.05 L-28.65 -36.85 Q-31.75 -34.55 -33.85 -36.85 L-29.55 -36.8 -29.35 -37.25 -30.7 -37.95 Q-29.0 -38.45 -28.4 -37.05 M-37.3 -42.35 L-37.7 -42.5 -38.1 -41.75 Q-38.65 -38.1 -37.5 -34.7 -37.25 -33.9 -36.45 -34.55 L-36.35 -37.9 Q-36.25 -40.35 -37.3 -42.35 M-37.1 -48.35 L-39.1 -46.05 Q-39.6 -46.55 -38.65 -47.5 -37.75 -48.35 -37.1 -48.35 M-33.6 -48.0 Q-33.35 -47.55 -33.65 -47.1 -35.1 -45.2 -37.65 -45.35 L-37.4 -45.8 Q-36.05 -48.35 -33.6 -48.0 M-32.55 -47.45 Q-32.35 -48.4 -32.95 -48.85 -33.5 -49.25 -33.95 -49.15 -34.6 -50.15 -36.0 -50.05 -37.25 -50.0 -38.5 -49.1 -39.75 -48.2 -40.15 -47.05 -40.6 -45.8 -39.7 -44.85 -39.75 -43.95 -39.35 -43.5 -39.0 -43.0 -38.5 -44.05 -35.75 -43.35 -33.6 -45.6 -32.75 -46.55 -32.55 -47.45 M-27.1 -41.35 L-27.0 -41.9 Q-31.35 -43.95 -34.45 -40.65 -34.45 -38.95 -32.9 -38.25 L-32.7 -38.2 Q-35.45 -37.05 -32.6 -34.95 -30.3 -33.3 -28.4 -35.3 -27.15 -36.65 -28.1 -37.85 -29.5 -39.5 -31.9 -39.5 -32.8 -39.6 -33.55 -40.05 L-27.1 -41.35 M-28.55 -0.85 L-28.05 3.9 -34.8 3.2 -35.15 8.35 Q-35.95 12.9 -37.9 16.5 -39.0 18.45 -40.45 20.15 L-41.15 25.2 -28.65 25.7 -28.4 19.55 -26.2 22.85 -18.85 23.2 -17.3 -1.75 -28.55 -0.85" fill="#000000" fill-opacity="0.05490196" fill-rule="evenodd" stroke="none"/>
      <path d="M97.0 20.1 L97.1 18.6 97.15 18.6 97.0 20.1 M-136.15 -21.65 L-135.6 -19.45 -136.2 -21.65 -136.15 -21.65" fill="#f7fa16" fill-opacity="0.05490196" fill-rule="evenodd" stroke="none"/>
    </g>
    <g id="shape4" transform="matrix(1.0, 0.0, 0.0, 1.0, 328.5, 58.5)">
      <path d="M-326.0 -56.0 L324.95 -56.0" fill="none" stroke="#000000" stroke-linecap="round" stroke-linejoin="round" stroke-width="5.0"/>
    </g>
    <g id="sprite1" transform="matrix(1.0, 0.0, 0.0, 1.0, 124.8, 49.7)">
      <use height="98.3" transform="matrix(1.0, 0.0, 0.0, 1.0, -124.8, -49.7)" width="249.7" xlink:href="#shape5"/>
    </g>
    <g id="shape5" transform="matrix(1.0, 0.0, 0.0, 1.0, 124.8, 49.7)">
      <path d="M18.7 -21.0 L18.85 -21.85 22.8 -24.2 23.85 -30.35 Q26.2 -31.5 29.55 -32.3 L34.25 -33.15 34.05 -24.9 Q36.1 -24.4 37.3 -23.45 L38.65 -22.0 45.2 -24.3 Q46.6 -21.9 47.1 -18.75 47.6 -15.35 46.85 -11.9 L41.4 -8.25 Q41.6 -4.35 41.0 -1.8 L45.05 0.1 Q45.0 3.2 43.1 9.15 41.1 15.35 39.6 16.7 L35.3 15.25 41.45 13.6 43.05 9.15 Q44.5 4.65 44.9 1.8 L31.1 5.65 32.1 2.55 43.4 -0.65 41.0 -1.8 41.35 -4.4 32.75 -1.95 Q32.8 -4.35 32.2 -6.4 31.15 -10.25 28.45 -11.05 26.6 -11.55 24.75 -10.4 22.9 -9.35 21.45 -6.85 19.95 -4.4 19.2 -1.25 18.05 3.6 19.15 7.5 20.25 11.35 22.95 12.1 24.75 12.6 26.6 11.5 L27.0 11.25 26.55 11.55 Q24.7 12.65 22.95 12.1 20.7 11.5 19.6 8.85 L15.35 10.0 15.0 8.0 14.3 8.45 Q13.8 13.6 14.75 17.55 15.6 21.2 17.55 23.3 19.35 25.35 21.8 25.7 24.3 26.0 26.8 24.55 25.2 25.55 23.35 25.75 21.45 25.95 19.8 25.1 18.3 24.35 17.25 23.1 L10.75 24.95 11.65 21.8 15.75 20.65 Q15.1 19.25 14.7 17.55 13.95 14.35 14.15 10.35 L7.65 12.2 7.8 9.45 18.85 6.3 Q18.45 4.3 18.65 2.05 L12.1 3.95 Q12.85 0.6 13.85 -1.4 L9.65 -3.45 9.8 -6.7 16.55 -6.15 16.95 -8.9 33.85 -13.6 31.95 -15.85 29.9 -17.3 17.7 -13.9 17.9 -15.4 22.3 -16.7 22.5 -16.1 Q25.0 -18.2 27.65 -18.0 29.9 -17.85 32.0 -15.9 33.85 -14.15 35.1 -11.3 36.3 -8.6 36.45 -5.8 L36.9 -6.1 Q37.3 -10.95 36.45 -14.35 L47.2 -17.35 46.3 -21.9 34.5 -18.6 33.3 -19.8 45.7 -23.25 45.15 -24.3 38.65 -22.0 37.25 -23.45 Q36.05 -24.35 34.05 -24.9 L34.05 -25.35 18.7 -21.0 M34.35 14.95 L33.4 16.9 32.4 18.75 34.7 24.1 Q33.5 27.25 31.4 29.55 29.4 31.75 27.35 32.55 L22.2 27.45 18.45 28.1 14.35 33.35 Q12.6 32.35 11.95 31.55 L10.8 29.75 34.2 23.05 32.4 18.75 28.25 19.95 Q30.0 18.5 31.3 16.35 L34.0 15.65 34.35 14.95 M2.4 -43.55 Q4.85 -42.35 3.15 -40.65 L2.6 -40.35 Q3.35 -41.45 2.25 -42.5 L2.4 -43.55 M8.0 -36.2 Q7.85 -35.25 6.8 -35.65 L4.25 -35.8 5.1 -36.9 4.95 -36.95 Q3.5 -37.5 4.0 -39.0 4.15 -39.55 4.65 -39.85 7.85 -41.55 9.9 -39.6 L4.45 -38.5 8.75 -36.95 Q10.35 -36.35 9.2 -34.75 7.95 -33.0 5.85 -33.8 3.8 -34.55 4.2 -35.7 4.4 -34.85 5.5 -34.8 7.45 -34.7 8.75 -35.9 8.4 -37.05 7.1 -36.9 L6.35 -36.8 8.0 -36.2 M2.1 -36.9 Q1.6 -34.9 -0.15 -33.8 -1.25 -33.15 -2.5 -33.1 L-3.95 -27.3 Q-6.8 -29.35 -4.5 -33.3 L-3.95 -34.35 Q-4.9 -38.05 -2.15 -40.4 L-2.0 -40.45 -3.3 -35.95 Q-1.85 -38.35 0.55 -39.85 2.7 -39.25 2.1 -36.9 M27.0 -18.0 Q25.55 -17.95 24.1 -17.15 L27.0 -18.0 M24.85 21.9 L23.75 22.25 21.15 22.55 24.0 22.2 24.85 21.9 M-24.6 -46.1 Q-24.25 -46.2 -23.8 -45.85 -23.3 -45.5 -23.45 -44.7 -23.6 -43.95 -24.35 -43.15 -26.15 -41.25 -28.45 -41.85 -28.85 -40.95 -29.2 -41.35 -29.5 -41.75 -29.45 -42.5 -30.2 -43.3 -29.85 -44.35 -29.5 -45.3 -28.45 -46.05 -27.4 -46.8 -26.35 -46.85 -25.2 -46.95 -24.6 -46.1 M-47.75 -46.15 L-49.25 -46.3 Q-48.3 -47.5 -46.85 -48.1 L-42.9 -48.45 Q-37.2 -47.3 -32.9 -43.4 -31.55 -42.15 -30.7 -40.55 -30.15 -39.6 -30.0 -38.5 -29.85 -37.7 -30.05 -36.95 -30.25 -36.1 -30.8 -35.4 -31.4 -34.6 -32.25 -34.1 -35.95 -31.8 -40.2 -33.05 L-40.45 -32.15 -41.45 -32.0 -41.95 -33.7 Q-45.05 -34.7 -45.65 -37.15 -44.05 -35.7 -42.05 -34.95 L-41.85 -38.9 -45.65 -38.15 Q-45.15 -40.35 -41.9 -40.4 -41.95 -42.3 -41.25 -44.05 -39.85 -42.6 -40.25 -40.7 L-38.45 -40.75 -37.1 -40.55 -35.95 -39.8 Q-34.4 -38.25 -35.6 -36.75 L-36.55 -36.95 -35.75 -38.0 Q-37.85 -39.15 -40.25 -38.95 L-40.2 -34.4 -37.95 -34.05 Q-35.2 -34.05 -33.2 -35.8 -32.45 -36.45 -32.05 -37.35 -31.8 -37.85 -31.85 -38.45 -31.95 -39.4 -32.4 -40.2 L-33.75 -42.15 Q-35.05 -43.5 -36.6 -44.45 -42.2 -47.95 -48.45 -46.7 L-47.7 -46.2 -47.75 -46.15 M-4.95 -39.35 L-7.75 -39.05 -8.1 -38.1 Q-6.05 -38.7 -6.05 -37.1 L-8.55 -36.6 -8.85 -35.4 -6.0 -35.7 -5.7 -34.95 Q-7.95 -32.55 -9.95 -34.35 -10.65 -35.0 -10.45 -36.05 L-10.1 -37.6 -9.05 -39.15 Q-9.85 -39.3 -10.25 -39.9 L-10.3 -39.95 Q-7.7 -41.2 -5.15 -40.0 -4.7 -39.8 -4.95 -39.35 M-0.25 -35.35 Q1.8 -36.6 0.9 -38.5 -0.75 -36.95 -1.6 -34.95 -0.9 -34.95 -0.25 -35.35 M-16.0 -39.75 Q-14.45 -38.05 -13.25 -36.0 L-14.05 -41.5 Q-12.85 -41.15 -12.35 -39.95 -11.1 -37.05 -12.65 -34.45 -12.9 -34.05 -13.4 -33.95 L-14.0 -34.5 -15.95 -37.75 -16.05 -35.4 Q-16.05 -34.2 -16.8 -33.55 -17.95 -34.55 -17.7 -36.25 -17.4 -38.2 -16.45 -39.9 L-16.0 -39.75 M-18.85 -39.55 L-24.3 -38.5 -22.9 -38.0 Q-20.9 -38.0 -19.75 -36.6 -18.9 -35.6 -19.95 -34.5 -21.55 -32.8 -23.5 -34.2 -25.85 -35.95 -23.6 -36.9 L-23.75 -36.95 Q-25.05 -37.55 -25.05 -39.0 -22.45 -41.75 -18.8 -40.05 L-18.85 -39.55 M-26.75 -33.85 Q-27.45 -33.3 -27.65 -34.0 -28.55 -36.85 -28.1 -39.9 L-27.8 -40.55 -27.45 -40.4 Q-26.55 -38.75 -26.65 -36.7 L-26.75 -33.85 M-19.95 -35.95 Q-20.45 -37.15 -21.9 -36.7 L-20.75 -36.15 -20.9 -35.75 -24.55 -35.8 Q-22.8 -33.85 -20.15 -35.8 L-19.95 -35.95 M-27.75 -42.95 Q-25.6 -42.8 -24.4 -44.4 -24.1 -44.75 -24.35 -45.15 -26.4 -45.45 -27.55 -43.3 L-27.75 -42.95 M-28.95 -43.5 L-27.25 -45.45 -28.55 -44.75 Q-29.4 -43.95 -28.95 -43.5" fill="#ffffff" fill-rule="evenodd" stroke="none"/>
      <path d="M35.3 15.25 L39.6 16.7 Q41.1 15.35 43.1 9.15 45.0 3.2 45.05 0.1 L41.0 -1.8 Q41.6 -4.35 41.4 -8.25 L46.85 -11.9 Q47.6 -15.35 47.1 -18.75 46.6 -21.9 45.2 -24.3 L38.65 -22.0 37.3 -23.45 Q36.1 -24.4 34.05 -24.9 L34.25 -33.15 29.55 -32.3 Q26.2 -31.5 23.85 -30.35 L22.8 -24.2 18.85 -21.85 18.7 -21.0 17.9 -15.4 17.7 -13.9 16.95 -8.9 16.55 -6.15 9.8 -6.7 9.65 -3.45 13.85 -1.4 Q12.85 0.6 12.1 3.95 L11.7 5.5 8.45 6.1 7.8 9.45 7.65 12.2 7.85 16.7 10.95 17.75 11.65 21.8 10.75 24.95 9.8 27.7 10.8 29.75 11.95 31.55 Q12.6 32.35 14.35 33.35 L18.45 28.1 22.2 27.45 27.35 32.55 Q29.4 31.75 31.4 29.55 33.5 27.25 34.7 24.1 L32.4 18.75 33.4 16.9 34.35 14.95 35.3 15.25 M33.3 -19.8 L34.5 -18.6 Q35.6 -16.95 36.2 -15.15 L36.45 -14.35 Q37.3 -10.95 36.9 -6.1 L36.45 -5.8 Q36.3 -8.6 35.1 -11.3 33.85 -14.15 32.0 -15.9 29.9 -17.85 27.65 -18.0 25.0 -18.2 22.5 -16.1 L22.3 -16.7 Q22.75 -17.8 23.7 -18.7 25.05 -20.0 26.85 -20.65 L30.45 -21.0 Q32.05 -20.7 33.3 -19.8 M26.8 24.55 Q24.3 26.0 21.8 25.7 19.35 25.35 17.55 23.3 15.6 21.2 14.75 17.55 13.8 13.6 14.3 8.45 L15.0 8.0 15.35 10.0 16.1 12.4 Q16.8 14.3 18.15 15.85 19.35 17.25 21.05 17.9 L23.1 18.3 23.45 18.3 Q25.1 18.25 26.55 17.5 31.05 15.2 33.3 10.5 L33.75 10.75 33.0 13.1 31.3 16.35 Q30.0 18.5 28.25 19.95 L24.85 21.9 24.0 22.2 21.15 22.55 20.25 22.45 20.25 22.4 Q22.35 25.25 26.6 24.0 L26.8 24.55 M27.0 11.25 L26.6 11.5 Q24.75 12.6 22.95 12.1 20.25 11.35 19.15 7.5 18.05 3.6 19.2 -1.25 19.95 -4.4 21.45 -6.85 22.9 -9.35 24.75 -10.4 26.6 -11.55 28.45 -11.05 31.15 -10.25 32.2 -6.4 32.8 -4.35 32.75 -1.95 L32.1 2.55 31.1 5.65 Q30.4 7.35 29.3 8.8 L27.0 11.25 M20.2 -33.7 Q28.4 -39.25 36.35 -39.35 L45.35 -32.8 44.6 -28.4 48.8 -30.0 55.75 -26.85 Q56.55 -25.25 57.15 -22.7 58.1 -18.25 57.95 -12.75 L61.25 -12.65 61.9 -19.4 82.1 -18.3 82.05 -24.35 110.0 -28.35 99.0 17.75 Q100.05 18.95 100.45 20.8 100.85 22.7 100.55 24.8 100.1 27.55 98.55 29.5 97.1 31.4 95.25 31.65 L92.5 32.0 90.45 32.35 60.3 36.0 Q58.85 37.9 56.55 38.85 L56.45 38.85 Q54.25 39.75 52.35 39.4 49.35 38.85 47.45 35.7 45.75 32.9 45.95 30.1 L43.0 28.7 40.75 33.4 Q39.45 35.85 38.0 36.9 L25.55 39.8 23.4 36.4 13.75 40.0 Q7.6 37.65 5.2 29.5 L6.3 24.2 5.1 24.0 5.1 24.05 -14.4 22.65 -13.55 18.05 -17.45 17.95 -18.0 21.0 -34.95 20.3 -33.8 15.15 Q-36.3 16.5 -39.05 16.1 L-39.15 16.1 -39.6 16.0 -39.95 15.9 Q-42.25 15.3 -44.0 13.55 -45.5 18.3 -48.35 21.4 L-49.85 22.8 Q-52.2 24.7 -54.9 25.3 -60.95 26.6 -66.0 23.8 L-64.8 28.85 -90.0 40.1 -94.95 -1.95 -109.05 2.85 -117.15 -29.1 -74.0 -26.4 -72.0 -17.65 Q-68.15 -22.0 -62.55 -23.25 -57.8 -24.25 -53.2 -20.7 -51.4 -19.3 -49.85 -17.4 -47.55 -14.5 -45.8 -10.55 -43.8 -13.35 -40.7 -14.8 -37.75 -16.15 -34.7 -15.95 -32.05 -15.8 -29.8 -13.9 -27.65 -12.1 -26.25 -9.1 L-19.8 -9.5 -18.65 -21.0 18.9 -26.8 20.2 -33.7 M-6.5 -28.2 Q-6.65 -30.1 -6.15 -31.9 L-5.7 -33.35 Q-7.2 -32.25 -9.05 -32.1 -10.05 -32.1 -10.8 -32.8 L-11.45 -33.7 Q-12.2 -32.75 -13.35 -32.8 -14.35 -32.8 -14.95 -33.6 -15.3 -32.9 -16.4 -32.45 -17.25 -32.1 -17.95 -32.65 L-18.55 -33.5 Q-19.7 -32.45 -21.3 -32.25 L-24.3 -32.75 Q-25.0 -33.05 -25.55 -33.6 -25.7 -32.9 -26.35 -32.6 L-28.05 -32.45 Q-29.7 -33.05 -29.55 -34.9 -30.6 -33.45 -32.1 -32.6 -33.5 -31.8 -35.05 -31.55 -37.2 -31.15 -39.35 -31.55 -40.35 -30.2 -41.95 -30.95 -42.8 -31.35 -43.05 -32.3 L-43.15 -32.9 Q-45.65 -34.25 -47.25 -36.6 -48.1 -37.8 -47.25 -38.95 -45.7 -41.0 -43.1 -41.45 -43.15 -43.4 -42.05 -44.95 L-41.7 -45.2 -46.4 -45.8 Q-46.8 -44.85 -47.8 -44.7 L-49.3 -44.95 Q-51.35 -45.8 -49.8 -47.55 -47.6 -50.1 -43.85 -49.65 -38.45 -49.05 -34.0 -45.95 L-31.25 -43.5 Q-31.25 -45.2 -30.0 -46.4 -28.75 -47.6 -27.05 -47.95 -24.9 -48.35 -23.15 -46.85 -21.4 -45.35 -22.65 -43.25 -23.85 -41.3 -26.1 -40.6 L-26.0 -40.45 Q-24.65 -41.2 -22.6 -41.65 L-19.05 -41.55 Q-18.1 -41.35 -17.6 -40.55 -17.25 -41.1 -16.6 -41.15 L-15.3 -40.9 Q-15.6 -42.35 -14.2 -42.7 -13.4 -42.85 -12.75 -42.3 L-11.45 -40.55 Q-10.35 -41.85 -8.45 -41.95 L-5.15 -41.65 Q-4.25 -41.4 -3.8 -40.6 -3.1 -41.75 -1.8 -41.7 -1.2 -41.7 -0.85 -41.2 L-0.65 -40.65 Q0.15 -41.2 1.1 -41.1 L1.35 -41.05 1.6 -41.4 Q0.6 -42.15 0.9 -43.35 1.15 -44.35 2.05 -44.6 3.75 -45.1 4.7 -43.55 5.3 -42.6 5.2 -41.45 L9.35 -41.7 Q10.25 -41.5 10.75 -40.75 11.85 -39.2 10.1 -38.25 10.9 -37.6 11.05 -36.55 11.25 -35.35 10.65 -34.3 9.4 -32.2 6.85 -32.2 3.85 -32.25 2.5 -34.7 1.7 -33.3 0.3 -32.55 -0.6 -32.1 -1.55 -31.95 L-2.4 -28.85 Q-2.15 -26.3 -4.25 -26.3 -6.15 -26.35 -6.5 -28.2 M2.1 -36.9 Q2.7 -39.25 0.55 -39.85 -1.85 -38.35 -3.3 -35.95 L-2.0 -40.45 -2.15 -40.4 Q-4.9 -38.05 -3.95 -34.35 L-4.5 -33.3 Q-6.8 -29.35 -3.95 -27.3 L-2.5 -33.1 Q-1.25 -33.15 -0.15 -33.8 1.6 -34.9 2.1 -36.9 M8.0 -36.2 L6.35 -36.8 7.1 -36.9 Q8.4 -37.05 8.75 -35.9 7.45 -34.7 5.5 -34.8 4.4 -34.85 4.2 -35.7 3.8 -34.55 5.85 -33.8 7.95 -33.0 9.2 -34.75 10.35 -36.35 8.75 -36.95 L4.45 -38.5 9.9 -39.6 Q7.85 -41.55 4.65 -39.85 4.15 -39.55 4.0 -39.0 3.5 -37.5 4.95 -36.95 L5.1 -36.9 4.25 -35.8 6.8 -35.65 Q7.85 -35.25 8.0 -36.2 M2.4 -43.55 L2.25 -42.5 Q3.35 -41.45 2.6 -40.35 L3.15 -40.65 Q4.85 -42.35 2.4 -43.55 M3.7 -8.9 L8.85 -8.8 12.95 -8.7 14.85 -23.1 -14.5 -18.4 -14.5 -12.75 -14.55 -9.35 -6.5 -8.9 -10.05 18.45 -3.25 19.25 3.6 20.1 3.55 20.05 3.6 20.1 3.7 -8.9 M54.8 -25.85 L49.95 -28.05 50.5 -25.35 55.8 -23.15 Q55.4 -24.7 54.8 -25.85 M36.8 -33.95 L43.7 -30.2 44.05 -31.75 37.05 -36.6 36.8 -33.95 M43.3 -28.2 L36.55 -31.75 36.05 -26.95 37.9 -26.15 43.3 -28.2 M51.1 -13.9 L56.5 -13.0 Q56.9 -16.5 56.35 -20.45 L51.0 -21.9 Q51.5 -17.25 51.1 -13.9 M48.0 -8.05 L51.55 17.6 58.7 17.75 61.2 12.5 63.8 19.5 70.65 19.35 74.75 -12.65 63.85 -12.1 62.7 -2.6 60.65 -6.7 59.0 -2.55 57.55 -8.25 48.0 -8.05 M87.2 -8.35 L85.6 -11.5 84.45 -11.5 76.55 -11.6 75.25 17.7 85.05 17.4 85.45 12.05 85.55 10.85 88.05 15.25 95.75 15.25 103.1 -21.9 87.0 -20.3 87.2 -8.35 M122.0 -39.15 L123.15 -36.2 124.2 -39.15 124.9 -39.15 124.9 -35.45 124.45 -35.45 124.4 -38.7 123.25 -35.45 122.95 -35.45 121.7 -38.7 121.7 -35.45 121.3 -35.45 121.3 -39.15 122.0 -39.15 M120.1 -38.3 Q119.2 -39.3 118.6 -38.15 L118.55 -38.05 Q120.8 -37.4 119.5 -36.25 119.65 -36.9 118.85 -37.15 118.15 -37.4 118.0 -38.1 118.9 -40.1 120.5 -38.4 L120.1 -38.3 M119.0 -35.85 Q118.3 -35.4 117.85 -36.3 L118.2 -36.5 119.1 -35.95 119.0 -35.85 M88.7 21.45 L86.35 21.65 86.15 26.6 85.1 22.2 81.3 22.55 81.35 29.85 83.5 29.65 83.9 25.2 85.05 29.65 87.95 29.25 88.7 21.45 M92.6 24.45 L92.8 22.65 95.45 22.45 95.85 20.75 90.3 21.3 89.85 29.1 94.5 28.6 94.85 27.2 92.3 27.45 92.45 25.85 94.5 25.65 94.95 24.2 92.6 24.45 M76.55 30.25 L78.9 30.05 79.7 22.2 76.75 22.5 76.55 30.25 M75.35 29.0 L73.05 29.1 73.8 22.75 70.85 23.0 70.55 30.75 75.25 30.35 75.35 29.0 M56.25 21.45 Q54.2 21.1 52.4 22.8 50.5 24.5 49.95 27.25 49.35 30.05 50.35 32.25 51.3 34.45 53.35 34.8 54.95 35.1 56.45 34.1 L57.25 33.45 Q59.1 31.75 59.65 29.0 60.3 26.25 59.25 24.05 58.3 21.95 56.45 21.5 L56.25 21.45 M42.75 17.75 L46.85 19.85 Q48.2 17.75 49.15 12.7 L45.75 10.8 Q44.4 15.9 42.75 17.75 M36.7 24.2 L42.5 26.8 42.35 23.8 35.0 20.2 36.7 24.2 M54.6 33.4 Q52.05 28.45 54.75 23.05 56.2 24.3 56.5 26.15 56.75 27.95 56.25 29.7 55.7 31.6 54.65 33.25 L54.6 33.4 M68.95 23.4 L66.6 23.6 66.4 28.5 65.35 24.15 61.6 24.45 61.65 31.8 63.75 31.6 64.15 27.15 65.3 31.6 68.2 31.2 68.95 23.4 M26.85 0.3 Q25.8 4.85 26.75 8.35 28.95 6.0 29.95 1.8 31.05 -3.0 29.85 -6.25 27.8 -3.7 26.85 0.3 M-109.45 -23.0 L-110.6 -23.0 -110.1 -21.15 -105.55 -3.45 -92.45 -7.0 -86.6 31.75 -68.65 25.55 -80.4 -10.65 -73.15 -12.8 -75.7 -22.85 -109.45 -23.0 M-47.75 -46.15 L-47.7 -46.2 -48.45 -46.7 Q-42.2 -47.95 -36.6 -44.45 -35.05 -43.5 -33.75 -42.15 L-32.4 -40.2 Q-31.95 -39.4 -31.85 -38.45 -31.8 -37.85 -32.05 -37.35 -32.45 -36.45 -33.2 -35.8 -35.2 -34.05 -37.95 -34.05 L-40.2 -34.4 -40.25 -38.95 Q-37.85 -39.15 -35.75 -38.0 L-36.55 -36.95 -35.6 -36.75 Q-34.4 -38.25 -35.95 -39.8 L-37.1 -40.55 -38.45 -40.75 -40.25 -40.7 Q-39.85 -42.6 -41.25 -44.05 -41.95 -42.3 -41.9 -40.4 -45.15 -40.35 -45.65 -38.15 L-41.85 -38.9 -42.05 -34.95 Q-44.05 -35.7 -45.65 -37.15 -45.05 -34.7 -41.95 -33.7 L-41.45 -32.0 -40.45 -32.15 -40.2 -33.05 Q-35.95 -31.8 -32.25 -34.1 -31.4 -34.6 -30.8 -35.4 -30.25 -36.1 -30.05 -36.95 -29.85 -37.7 -30.0 -38.5 -30.15 -39.6 -30.7 -40.55 -31.55 -42.15 -32.9 -43.4 -37.2 -47.3 -42.9 -48.45 L-46.85 -48.1 Q-48.3 -47.5 -49.25 -46.3 L-47.75 -46.15 M-24.6 -46.1 Q-25.2 -46.95 -26.35 -46.85 -27.4 -46.8 -28.45 -46.05 -29.5 -45.3 -29.85 -44.35 -30.2 -43.3 -29.45 -42.5 -29.5 -41.75 -29.2 -41.35 -28.85 -40.95 -28.45 -41.85 -26.15 -41.25 -24.35 -43.15 -23.6 -43.95 -23.45 -44.7 -23.3 -45.5 -23.8 -45.85 -24.25 -46.2 -24.6 -46.1 M-39.1 -42.75 L-39.05 -41.85 -36.2 -41.4 Q-34.3 -40.85 -33.55 -39.65 -35.1 -42.5 -39.4 -44.35 L-39.8 -44.55 Q-39.2 -43.85 -39.1 -42.75 M-43.25 -36.95 L-43.2 -37.45 -43.85 -37.35 -43.25 -36.95 M-38.95 -35.45 L-36.3 -35.5 Q-36.7 -35.6 -37.05 -35.8 -38.05 -36.3 -37.8 -37.4 L-39.0 -37.65 -38.95 -35.45 M-53.55 -30.15 Q-50.6 -27.8 -49.15 -24.55 L-50.7 -23.4 Q-52.25 -25.0 -54.45 -26.1 -56.9 -27.25 -59.35 -27.5 -65.45 -28.15 -69.5 -23.25 L-70.65 -23.85 Q-69.3 -29.0 -66.2 -31.3 -63.45 -33.35 -59.9 -32.9 -56.6 -32.45 -53.55 -30.15 M-57.15 -7.5 Q-56.3 -8.3 -55.2 -8.45 -53.0 -8.7 -51.0 -6.15 L-49.85 -4.35 Q-48.8 -2.35 -48.4 0.2 -47.8 4.0 -48.95 6.9 L-49.85 8.5 Q-50.85 9.85 -52.35 10.0 -54.55 10.25 -56.55 7.7 -58.55 5.2 -59.15 1.35 -59.5 -0.95 -59.15 -3.2 -54.3 -3.9 -52.1 0.6 L-52.2 -0.5 Q-52.4 -1.7 -52.75 -2.75 -54.0 -6.2 -57.15 -7.5 M-56.45 -18.05 Q-58.75 -19.1 -61.05 -18.55 -63.35 -18.05 -65.2 -16.05 -66.65 -14.55 -67.65 -12.35 L-67.75 -12.1 -68.05 -11.3 -68.1 -11.25 -68.15 -11.15 Q-70.55 -4.8 -69.25 3.1 -68.0 11.05 -63.8 15.9 -61.8 18.15 -59.55 19.2 -57.2 20.2 -54.9 19.7 -52.6 19.15 -50.75 17.2 L-49.85 16.1 Q-48.65 14.45 -47.85 12.25 L-47.65 11.75 -46.9 9.1 Q-46.4 6.9 -46.3 4.6 L-46.3 3.75 Q-46.25 0.95 -46.7 -2.0 -47.6 -7.45 -49.85 -11.45 -50.85 -13.3 -52.2 -14.8 -54.2 -17.1 -56.45 -18.05 M-39.6 -21.3 Q-38.0 -22.55 -36.0 -22.7 -33.95 -22.8 -32.0 -21.65 -29.9 -20.35 -28.35 -17.7 L-29.75 -16.95 Q-32.45 -19.0 -35.05 -19.25 -38.0 -19.5 -40.55 -17.4 L-41.85 -18.05 Q-41.15 -20.05 -39.6 -21.3 M-39.0 -10.0 L-39.05 -9.95 Q-41.7 -7.05 -42.45 -2.45 -43.2 2.15 -41.55 5.75 -39.95 9.35 -36.9 9.85 -33.85 10.35 -31.15 7.4 L-30.55 6.7 -30.3 6.4 -30.25 6.3 -28.55 3.1 -28.35 2.55 -28.4 2.6 -27.85 0.4 -27.75 -0.1 -27.6 -1.4 -27.5 -2.4 -27.55 -2.4 Q-27.45 -5.65 -28.65 -8.3 -30.3 -11.9 -33.3 -12.4 -36.25 -12.85 -38.85 -10.15 L-38.85 -10.2 -39.0 -10.0 M-19.95 -35.95 L-20.15 -35.8 Q-22.8 -33.85 -24.55 -35.8 L-20.9 -35.75 -20.75 -36.15 -21.9 -36.7 Q-20.45 -37.15 -19.95 -35.95 M-26.75 -33.85 L-26.65 -36.7 Q-26.55 -38.75 -27.45 -40.4 L-27.8 -40.55 -28.1 -39.9 Q-28.55 -36.85 -27.65 -34.0 -27.45 -33.3 -26.75 -33.85 M-18.85 -39.55 L-18.8 -40.05 Q-22.45 -41.75 -25.05 -39.0 -25.05 -37.55 -23.75 -36.95 L-23.6 -36.9 Q-25.85 -35.95 -23.5 -34.2 -21.55 -32.8 -19.95 -34.5 -18.9 -35.6 -19.75 -36.6 -20.9 -38.0 -22.9 -38.0 L-24.3 -38.5 -18.85 -39.55 M-16.0 -39.75 L-16.45 -39.9 Q-17.4 -38.2 -17.7 -36.25 -17.95 -34.55 -16.8 -33.55 -16.05 -34.2 -16.05 -35.4 L-15.95 -37.75 -14.0 -34.5 -13.4 -33.95 Q-12.9 -34.05 -12.65 -34.45 -11.1 -37.05 -12.35 -39.95 -12.85 -41.15 -14.05 -41.5 L-13.25 -36.0 Q-14.45 -38.05 -16.0 -39.75 M-0.25 -35.35 Q-0.9 -34.95 -1.6 -34.95 -0.75 -36.95 0.9 -38.5 1.8 -36.6 -0.25 -35.35 M-4.95 -39.35 Q-4.7 -39.8 -5.15 -40.0 -7.7 -41.2 -10.3 -39.95 L-10.25 -39.9 Q-9.85 -39.3 -9.05 -39.15 L-10.1 -37.6 -10.45 -36.05 Q-10.65 -35.0 -9.95 -34.35 -7.95 -32.55 -5.7 -34.95 L-6.0 -35.7 -8.85 -35.4 -8.55 -36.6 -6.05 -37.1 Q-6.05 -38.7 -8.1 -38.1 L-7.75 -39.05 -4.95 -39.35 M-18.6 -38.25 L-18.45 -38.1 -18.45 -38.35 -18.6 -38.25 M-28.95 -43.5 Q-29.4 -43.95 -28.55 -44.75 L-27.25 -45.45 -28.95 -43.5 M-27.75 -42.95 L-27.55 -43.3 Q-26.4 -45.45 -24.35 -45.15 -24.1 -44.75 -24.4 -44.4 -25.6 -42.8 -27.75 -42.95 M-33.15 -38.3 Q-33.2 -37.3 -33.8 -36.55 L-33.35 -37.1 Q-32.95 -38.0 -33.25 -38.9 L-33.15 -38.3 M-34.1 -6.15 L-32.7 -6.5 Q-31.2 -6.4 -30.15 -4.7 -29.2 -3.0 -29.3 -0.7 -29.45 1.65 -30.6 3.25 -31.8 4.85 -33.35 4.75 -34.9 4.65 -35.85 2.95 -36.85 1.25 -36.75 -1.1 -36.65 -2.55 -36.15 -3.7 -33.3 -3.5 -31.85 -1.0 L-31.8 -1.65 -31.95 -3.05 Q-32.35 -5.15 -34.1 -6.15 M-18.9 -5.6 L-20.1 -5.5 -19.7 -1.55 -21.8 -1.75 -25.35 -2.1 -25.4 -0.3 -25.65 2.2 Q-26.3 6.05 -27.95 9.05 -28.9 10.7 -30.15 12.15 L-30.65 16.35 -20.15 16.8 -20.0 11.6 -19.05 13.0 -18.15 14.4 -11.9 14.7 -10.6 -6.25 -18.9 -5.6" fill="#000000" fill-rule="evenodd" stroke="none"/>
      <path d="M18.7 -21.0 L34.05 -25.35 34.05 -24.9 Q36.05 -24.35 37.25 -23.45 L38.65 -22.0 45.15 -24.3 45.7 -23.25 33.3 -19.8 Q32.05 -20.7 30.45 -21.0 L26.85 -20.65 Q25.05 -20.0 23.7 -18.7 22.75 -17.8 22.3 -16.7 L17.9 -15.4 18.7 -21.0 M34.5 -18.6 L46.3 -21.9 47.2 -17.35 36.45 -14.35 36.2 -15.15 Q35.6 -16.95 34.5 -18.6 M17.7 -13.9 L29.9 -17.3 31.95 -15.85 33.85 -13.6 16.95 -8.9 17.7 -13.9 M12.1 3.95 L18.65 2.05 Q18.45 4.3 18.85 6.3 L7.8 9.45 8.45 6.1 11.7 5.5 12.1 3.95 M7.65 12.2 L14.15 10.35 Q13.95 14.35 14.7 17.55 15.1 19.25 15.75 20.65 L11.65 21.8 10.95 17.75 7.85 16.7 7.65 12.2 M10.75 24.95 L17.25 23.1 Q18.3 24.35 19.8 25.1 21.45 25.95 23.35 25.75 25.2 25.55 26.8 24.55 L26.6 24.0 Q22.35 25.25 20.25 22.4 L20.25 22.45 21.15 22.55 23.75 22.25 24.85 21.9 28.25 19.95 32.4 18.75 34.2 23.05 10.8 29.75 9.8 27.7 10.75 24.95 M15.35 10.0 L19.6 8.85 Q20.7 11.5 22.95 12.1 24.7 12.65 26.55 11.55 L27.0 11.25 29.3 8.8 Q30.4 7.35 31.1 5.65 L44.9 1.8 Q44.5 4.65 43.05 9.15 L41.45 13.6 35.3 15.25 34.35 14.95 34.0 15.65 31.3 16.35 33.0 13.1 33.75 10.75 33.3 10.5 Q31.05 15.2 26.55 17.5 25.1 18.25 23.45 18.3 L23.1 18.3 21.05 17.9 Q19.35 17.25 18.15 15.85 16.8 14.3 16.1 12.4 L15.35 10.0 M32.75 -1.95 L41.35 -4.4 41.0 -1.8 43.4 -0.65 32.1 2.55 32.75 -1.95 M27.0 -18.0 L24.1 -17.15 Q25.55 -17.95 27.0 -18.0 M51.1 -13.9 Q51.5 -17.25 51.0 -21.9 L56.35 -20.45 Q56.9 -16.5 56.5 -13.0 L51.1 -13.9 M43.3 -28.2 L37.9 -26.15 36.05 -26.95 36.55 -31.75 43.3 -28.2 M36.8 -33.95 L37.05 -36.6 44.05 -31.75 43.7 -30.2 36.8 -33.95 M54.8 -25.85 Q55.4 -24.7 55.8 -23.15 L50.5 -25.35 49.95 -28.05 54.8 -25.85 M42.75 17.75 Q44.4 15.9 45.75 10.8 L49.15 12.7 Q48.2 17.75 46.85 19.85 L42.75 17.75 M36.7 24.2 L35.0 20.2 42.35 23.8 42.5 26.8 36.7 24.2" fill="#aeaeae" fill-rule="evenodd" stroke="none"/>
      <path d="M20.2 -33.7 L18.9 -26.8 -18.65 -21.0 -19.8 -9.5 -26.25 -9.1 Q-27.65 -12.1 -29.8 -13.9 -32.05 -15.8 -34.7 -15.95 -37.75 -16.15 -40.7 -14.8 -43.8 -13.35 -45.8 -10.55 -47.55 -14.5 -49.85 -17.4 -51.4 -19.3 -53.2 -20.7 -57.8 -24.25 -62.55 -23.25 -68.15 -22.0 -72.0 -17.65 L-74.0 -26.4 -117.15 -29.1 -109.05 2.85 -94.95 -1.95 -90.0 40.1 -64.8 28.85 -66.0 23.8 Q-60.95 26.6 -54.9 25.3 -52.2 24.7 -49.85 22.8 L-48.35 21.4 Q-45.5 18.3 -44.0 13.55 -42.25 15.3 -39.95 15.9 L-39.6 16.0 -39.15 16.1 -39.05 16.1 Q-36.3 16.5 -33.8 15.15 L-34.95 20.3 -18.0 21.0 -17.45 17.95 -13.55 18.05 -14.4 22.65 5.1 24.05 5.1 24.0 6.3 24.2 5.2 29.5 Q7.6 37.65 13.75 40.0 L23.4 36.4 25.55 39.8 38.0 36.9 Q39.45 35.85 40.75 33.4 L43.0 28.7 45.95 30.1 Q45.75 32.9 47.45 35.7 49.35 38.85 52.35 39.4 54.25 39.75 56.45 38.85 L56.55 38.85 Q58.85 37.9 60.3 36.0 L90.45 32.35 92.5 32.0 95.25 31.65 Q97.1 31.4 98.55 29.5 100.1 27.55 100.55 24.8 100.85 22.7 100.45 20.8 100.05 18.95 99.0 17.75 L110.0 -28.35 82.05 -24.35 82.1 -18.3 61.9 -19.4 61.25 -12.65 57.95 -12.75 Q58.1 -18.25 57.15 -22.7 56.55 -25.25 55.75 -26.85 L48.8 -30.0 44.6 -28.4 45.35 -32.8 36.35 -39.35 Q28.4 -39.25 20.2 -33.7 M-2.4 -28.85 L10.55 -30.7 Q18.0 -39.2 26.75 -42.75 35.7 -46.4 43.8 -43.95 49.5 -42.2 53.75 -37.65 57.8 -33.2 60.15 -26.65 L82.2 -30.7 106.65 -35.1 Q112.05 -35.95 114.6 -32.95 117.05 -30.15 115.85 -25.3 L106.2 15.1 106.05 15.65 Q108.6 20.0 107.7 25.7 106.95 30.35 104.05 33.75 101.15 37.2 97.4 37.7 L55.1 43.75 Q45.85 45.2 42.2 40.4 L41.55 39.65 Q34.9 45.15 27.9 47.15 20.65 49.25 14.1 47.25 8.25 45.45 3.95 40.65 -0.25 36.0 -2.5 29.15 L-42.4 25.85 Q-45.15 29.5 -49.85 30.65 L-51.25 30.95 -59.1 30.6 Q-58.75 32.75 -59.75 34.05 -60.35 34.85 -62.1 35.8 L-86.85 47.4 Q-96.05 51.7 -96.85 40.35 L-99.85 8.3 -107.25 10.95 Q-109.8 11.85 -111.85 10.5 -113.85 9.2 -114.75 6.35 -121.5 -16.0 -124.4 -26.85 -125.5 -30.9 -123.7 -33.45 -121.7 -36.25 -116.7 -35.8 L-76.55 -31.05 Q-72.95 -36.05 -68.05 -37.75 -63.6 -39.25 -58.65 -37.85 -54.05 -36.55 -49.95 -33.0 -45.9 -29.55 -43.4 -24.85 -37.95 -28.2 -32.45 -27.45 -27.9 -26.8 -24.9 -23.45 L-23.6 -21.9 -22.7 -23.45 Q-21.6 -25.05 -20.05 -25.7 L-17.85 -26.3 -15.4 -26.75 -6.5 -28.2 Q-6.15 -26.35 -4.25 -26.3 -2.15 -26.3 -2.4 -28.85 M26.85 0.3 Q27.8 -3.7 29.85 -6.25 31.05 -3.0 29.95 1.8 28.95 6.0 26.75 8.35 25.8 4.85 26.85 0.3 M-53.55 -30.15 Q-56.6 -32.45 -59.9 -32.9 -63.45 -33.35 -66.2 -31.3 -69.3 -29.0 -70.65 -23.85 L-69.5 -23.25 Q-65.45 -28.15 -59.35 -27.5 -56.9 -27.25 -54.45 -26.1 -52.25 -25.0 -50.7 -23.4 L-49.15 -24.55 Q-50.6 -27.8 -53.55 -30.15 M-39.6 -21.3 Q-41.15 -20.05 -41.85 -18.05 L-40.55 -17.4 Q-38.0 -19.5 -35.05 -19.25 -32.45 -19.0 -29.75 -16.95 L-28.35 -17.7 Q-29.9 -20.35 -32.0 -21.65 -33.95 -22.8 -36.0 -22.7 -38.0 -22.55 -39.6 -21.3" fill="#ff3517" fill-rule="evenodd" stroke="none"/>
      <path d="M3.7 -8.9 L3.7 -9.0 8.85 -8.8 3.7 -8.9 M1.7 -11.05 L1.6 17.85 -7.7 16.65 -4.15 -11.05 -12.5 -11.55 -12.5 -16.75 12.6 -20.75 11.25 -10.75 1.7 -11.05 M3.3 19.75 L3.55 20.05 3.3 19.75 M57.35 15.8 L53.4 15.7 50.35 -6.15 55.85 -6.3 58.3 4.2 60.95 -2.1 64.35 4.65 65.85 -10.3 72.75 -10.65 69.05 17.45 65.25 17.55 60.9 6.95 57.35 15.8 M87.2 -8.25 L85.6 -11.5 84.45 -11.5 85.6 -11.5 87.2 -8.35 87.2 -8.25 M78.7 -9.65 L84.65 -9.55 89.45 -0.95 89.25 -18.6 100.9 -19.75 94.45 13.35 89.55 13.35 84.25 2.95 83.4 15.5 77.5 15.65 78.7 -9.65 M85.45 12.05 L85.55 10.8 85.55 10.85 85.45 12.05 M-3.25 19.25 L-10.05 18.45 -6.5 -8.9 -14.55 -9.35 -14.5 -12.75 -14.45 -9.45 -6.5 -9.0 -10.0 18.35 -3.25 19.25 M-110.1 -21.15 L-110.6 -23.0 -109.45 -23.0 -110.55 -23.0 -110.1 -21.15 M-71.7 24.25 L-85.05 28.85 -90.8 -9.9 -104.25 -6.25 -107.95 -20.8 -77.6 -20.7 -76.05 -14.4 -83.5 -12.2 -71.7 24.25 M-19.65 -1.5 L-21.8 -1.75 -19.7 -1.55 -20.1 -5.5 -18.9 -5.6 -20.05 -5.5 -19.65 -1.5 M-25.4 -0.3 L-20.9 0.2 -18.4 5.55 -18.2 -3.8 -12.6 -4.25 -13.6 12.6 -17.05 12.75 -21.2 6.85 -21.9 14.85 -28.6 14.65 -27.95 9.05 Q-26.3 6.05 -25.65 2.2 L-25.4 -0.3 M-19.05 13.0 L-20.0 11.6 -20.0 11.55 -19.05 13.0" fill="#f7fa16" fill-rule="evenodd" stroke="none"/>
      <path d="M3.7 -9.0 L3.7 -8.9 3.6 20.1 3.55 20.05 3.3 19.75 1.6 17.85 1.7 -11.05 3.7 -9.0 M12.95 -8.7 L11.25 -10.75 12.6 -20.75 -12.5 -16.75 -14.5 -18.4 14.85 -23.1 12.95 -8.7 M50.35 -6.15 L48.0 -8.05 57.55 -8.25 59.0 -2.55 58.3 4.2 55.85 -6.3 50.35 -6.15 M58.7 17.75 L57.35 15.8 60.9 6.95 61.2 12.5 58.7 17.75 M60.65 -6.7 L62.7 -2.6 64.35 4.65 60.95 -2.1 60.65 -6.7 M63.85 -12.1 L74.75 -12.65 70.65 19.35 69.05 17.45 72.75 -10.65 65.85 -10.3 63.85 -12.1 M84.45 -11.5 L85.6 -11.5 87.2 -8.25 89.45 -0.95 84.65 -9.55 78.7 -9.65 76.55 -11.6 84.45 -11.5 M89.25 -18.6 L87.0 -20.3 103.1 -21.9 95.75 15.25 94.45 13.35 100.9 -19.75 89.25 -18.6 M84.25 2.95 L85.55 10.8 85.45 12.05 85.05 17.4 83.4 15.5 84.25 2.95 M-110.55 -23.0 L-109.45 -23.0 -75.7 -22.85 -73.15 -12.8 -76.05 -14.4 -77.6 -20.7 -107.95 -20.8 -110.55 -23.0 M-80.4 -10.65 L-68.65 25.55 -71.7 24.25 -83.5 -12.2 -80.4 -10.65 M-21.8 -1.75 L-19.65 -1.5 -18.4 5.55 -20.9 0.2 -25.4 -0.3 -25.35 -2.1 -21.8 -1.75 M-20.05 -5.5 L-18.9 -5.6 -10.6 -6.25 -11.9 14.7 -13.6 12.6 -12.6 -4.25 -18.2 -3.8 -20.05 -5.5 M-20.0 11.6 L-20.15 16.8 -21.9 14.85 -21.2 6.85 -20.0 11.55 -20.0 11.6" fill="#fff8c2" fill-rule="evenodd" stroke="none"/>
      <path d="M8.85 -8.8 L3.7 -9.0 1.7 -11.05 11.25 -10.75 12.95 -8.7 8.85 -8.8 M1.6 17.85 L3.3 19.75 3.55 20.05 3.6 20.1 -3.25 19.25 -10.0 18.35 -6.5 -9.0 -14.45 -9.45 -14.5 -12.75 -14.5 -18.4 -12.5 -16.75 -12.5 -11.55 -4.15 -11.05 -7.7 16.65 1.6 17.85 M48.0 -8.05 L50.35 -6.15 53.4 15.7 57.35 15.8 58.7 17.75 51.55 17.6 48.0 -8.05 M58.3 4.2 L59.0 -2.55 60.65 -6.7 60.95 -2.1 58.3 4.2 M62.7 -2.6 L63.85 -12.1 65.85 -10.3 64.35 4.65 62.7 -2.6 M70.65 19.35 L63.8 19.5 61.2 12.5 60.9 6.95 65.25 17.55 69.05 17.45 70.65 19.35 M87.2 -8.25 L87.2 -8.35 87.0 -20.3 89.25 -18.6 89.45 -0.95 87.2 -8.25 M76.55 -11.6 L78.7 -9.65 77.5 15.65 83.4 15.5 85.05 17.4 75.25 17.7 76.55 -11.6 M94.45 13.35 L95.75 15.25 88.05 15.25 85.55 10.85 85.55 10.8 84.25 2.95 89.55 13.35 94.45 13.35 M-110.1 -21.15 L-110.55 -23.0 -107.95 -20.8 -104.25 -6.25 -90.8 -9.9 -85.05 28.85 -71.7 24.25 -68.65 25.55 -86.6 31.75 -92.45 -7.0 -105.55 -3.45 -110.1 -21.15 M-73.15 -12.8 L-80.4 -10.65 -83.5 -12.2 -76.05 -14.4 -73.15 -12.8 M-19.65 -1.5 L-20.05 -5.5 -18.2 -3.8 -18.4 5.55 -19.65 -1.5 M-11.9 14.7 L-18.15 14.4 -19.05 13.0 -20.0 11.55 -21.2 6.85 -17.05 12.75 -13.6 12.6 -11.9 14.7 M-20.15 16.8 L-30.65 16.35 -30.15 12.15 Q-28.9 10.7 -27.95 9.05 L-28.6 14.65 -21.9 14.85 -20.15 16.8" fill="#ff9700" fill-rule="evenodd" stroke="none"/>
      <path d="M88.7 21.45 L87.95 29.25 85.05 29.65 83.9 25.2 83.5 29.65 81.35 29.85 81.3 22.55 85.1 22.2 86.15 26.6 86.35 21.65 88.7 21.45 M75.35 29.0 L75.25 30.35 70.55 30.75 70.85 23.0 73.8 22.75 73.05 29.1 75.35 29.0 M76.55 30.25 L76.75 22.5 79.7 22.2 78.9 30.05 76.55 30.25 M92.6 24.45 L94.95 24.2 94.5 25.65 92.45 25.85 92.3 27.45 94.85 27.2 94.5 28.6 89.85 29.1 90.3 21.3 95.85 20.75 95.45 22.45 92.8 22.65 92.6 24.45 M56.25 21.45 L56.45 21.5 Q58.3 21.95 59.25 24.05 60.3 26.25 59.65 29.0 59.1 31.75 57.25 33.45 L56.45 34.1 Q54.95 35.1 53.35 34.8 51.3 34.45 50.35 32.25 49.35 30.05 49.95 27.25 50.5 24.5 52.4 22.8 54.2 21.1 56.25 21.45 M54.6 33.4 L54.65 33.25 Q55.7 31.6 56.25 29.7 56.75 27.95 56.5 26.15 56.2 24.3 54.75 23.05 52.05 28.45 54.6 33.4 M68.95 23.4 L68.2 31.2 65.3 31.6 64.15 27.15 63.75 31.6 61.65 31.8 61.6 24.45 65.35 24.15 66.4 28.5 66.6 23.6 68.95 23.4" fill="#ffea00" fill-rule="evenodd" stroke="none"/>
      <path d="M-56.45 -18.05 Q-54.2 -17.1 -52.2 -14.8 -50.85 -13.3 -49.85 -11.45 -47.6 -7.45 -46.7 -2.0 -46.25 0.95 -46.3 3.75 L-46.3 4.6 Q-46.4 6.9 -46.9 9.1 L-47.65 11.75 -47.85 12.25 Q-48.65 14.45 -49.85 16.1 L-50.75 17.2 Q-52.6 19.15 -54.9 19.7 -57.2 20.2 -59.55 19.2 -61.8 18.15 -63.8 15.9 -68.0 11.05 -69.25 3.1 -70.55 -4.8 -68.15 -11.15 L-68.1 -11.25 -68.05 -11.3 -67.75 -12.1 -67.65 -12.35 Q-66.65 -14.55 -65.2 -16.05 -63.35 -18.05 -61.05 -18.55 -58.75 -19.1 -56.45 -18.05 M-57.15 -7.5 Q-54.0 -6.2 -52.75 -2.75 -52.4 -1.7 -52.2 -0.5 L-52.1 0.6 Q-54.3 -3.9 -59.15 -3.2 -59.5 -0.95 -59.15 1.35 -58.55 5.2 -56.55 7.7 -54.55 10.25 -52.35 10.0 -50.85 9.85 -49.85 8.5 L-48.95 6.9 Q-47.8 4.0 -48.4 0.2 -48.8 -2.35 -49.85 -4.35 L-51.0 -6.15 Q-53.0 -8.7 -55.2 -8.45 -56.3 -8.3 -57.15 -7.5" fill="url(#gradient2)" fill-rule="evenodd" stroke="none"/>
      <path d="M-39.0 -10.0 L-38.85 -10.2 -38.85 -10.15 Q-36.25 -12.85 -33.3 -12.4 -30.3 -11.9 -28.65 -8.3 -27.45 -5.65 -27.55 -2.4 L-27.5 -2.4 -27.6 -1.4 -27.75 -0.1 -27.85 0.4 -28.4 2.6 -28.35 2.55 -28.55 3.1 -30.25 6.3 -30.3 6.4 -30.55 6.7 -31.15 7.4 Q-33.85 10.35 -36.9 9.85 -39.95 9.35 -41.55 5.75 -43.2 2.15 -42.45 -2.45 -41.7 -7.05 -39.05 -9.95 L-39.0 -10.0 M-34.1 -6.15 Q-32.35 -5.15 -31.95 -3.05 L-31.8 -1.65 -31.85 -1.0 Q-33.3 -3.5 -36.15 -3.7 -36.65 -2.55 -36.75 -1.1 -36.85 1.25 -35.85 2.95 -34.9 4.65 -33.35 4.75 -31.8 4.85 -30.6 3.25 -29.45 1.65 -29.3 -0.7 -29.2 -3.0 -30.15 -4.7 -31.2 -6.4 -32.7 -6.5 L-34.1 -6.15" fill="url(#gradient3)" fill-rule="evenodd" stroke="none"/>
    </g>
    <radialGradient cx="0" cy="0" gradientTransform="matrix(0.0181, -0.004, 0.0072, 0.033, -57.55, -1.25)" gradientUnits="userSpaceOnUse" id="gradient2" r="819.2" spreadMethod="pad">
      <stop offset="0.611764705882353" stop-color="#ffffff"/>
      <stop offset="0.8941176470588236" stop-color="#606060"/>
    </radialGradient>
    <radialGradient cx="0" cy="0" gradientTransform="matrix(0.0117, 6.0E-4, -0.001, 0.0197, -34.65, -2.6)" gradientUnits="userSpaceOnUse" id="gradient3" r="819.2" spreadMethod="pad">
      <stop offset="0.611764705882353" stop-color="#ffffff"/>
      <stop offset="0.8941176470588236" stop-color="#606060"/>
    </radialGradient>
    <g id="sprite2" transform="matrix(1.0, 0.0, 0.0, 1.0, 76.05, 41.2)">
      <use height="8.55" transform="matrix(2.3845, -0.2717, 0.2717, 2.3845, -69.2503, -19.7503)" width="13.55" xlink:href="#shape6"/>
      <use height="1.85" transform="matrix(2.3846, -0.2717, 0.2717, 2.3846, 58.2094, -0.325)" width="3.1" xlink:href="#shape7"/>
      <use height="16.05" transform="matrix(2.3868, -0.2509, 0.2509, 2.3868, -34.9742, -33.8183)" width="29.35" xlink:href="#shape8"/>
      <use height="8.9" transform="matrix(2.3846, -0.2717, 0.2717, 2.3846, -22.9162, 8.2945)" width="32.8" xlink:href="#shape9"/>
      <use height="8.9" transform="matrix(2.3846, -0.2717, 0.2717, 2.3846, -76.0626, 13.9697)" width="19.05" xlink:href="#shape10"/>
    </g>
    <g id="shape6" transform="matrix(1.0, 0.0, 0.0, 1.0, 6.75, 4.25)">
      <path d="M1.05 -1.8 Q1.0 -3.1 0.15 -3.0 L-0.1 -3.0 -0.1 -0.6 0.25 -0.6 Q1.05 -0.75 1.05 -1.8 M2.6 -1.8 Q2.65 -0.55 1.65 0.25 L2.6 4.3 1.05 4.3 0.3 0.65 -0.1 0.65 -0.1 4.3 -1.65 4.3 -1.65 -4.25 0.1 -4.25 Q2.45 -4.4 2.6 -1.8 M6.75 -4.25 L6.75 -2.9 4.75 -2.9 4.75 -0.75 6.2 -0.75 6.2 0.65 4.75 0.65 4.75 3.0 6.8 3.0 6.8 4.3 3.2 4.3 3.2 -4.25 6.75 -4.25 M-3.3 -4.25 L-2.25 4.3 -3.75 4.3 -3.95 2.4 -5.2 2.4 -5.45 4.3 -6.75 4.3 -5.55 -4.25 -3.3 -4.25 M-4.1 1.15 L-4.55 -2.9 -5.05 1.15 -4.1 1.15" fill="#ffffff" fill-opacity="0.7490196" fill-rule="evenodd" stroke="none"/>
    </g>
    <g id="shape7" transform="matrix(1.0, 0.0, 0.0, 1.0, 1.55, 0.9)">
      <path d="M-0.3 -0.5 L-0.65 -0.35 -0.9 -0.55 -1.05 -0.4 -0.65 -0.15 Q-0.3 -0.05 -0.25 0.35 -0.3 0.95 -0.9 0.95 L-1.55 0.5 -1.15 0.35 -0.85 0.6 -0.65 0.45 -1.05 0.15 Q-1.4 0.1 -1.45 -0.4 -1.4 -0.85 -0.9 -0.9 -0.4 -0.85 -0.3 -0.5" fill="#ffffff" fill-opacity="0.7490196" fill-rule="evenodd" stroke="none"/>
      <path d="M1.05 -0.35 L0.75 0.95 0.5 0.95 0.2 -0.4 0.2 0.95 -0.15 0.95 -0.15 -0.85 0.5 -0.85 0.7 0.15 0.9 -0.85 1.55 -0.85 1.55 0.95 1.1 0.95 1.1 -0.35 1.05 -0.35" fill="#ffffff" fill-opacity="0.7490196" fill-rule="evenodd" stroke="none"/>
    </g>
    <g id="shape8" transform="matrix(1.0, 0.0, 0.0, 1.0, 14.65, 8.0)">
      <path d="M4.95 -0.4 Q5.35 2.15 4.5 4.25 3.65 6.4 0.85 6.85 -1.95 7.15 -3.3 5.3 -4.65 3.45 -4.95 0.9 -5.3 -1.6 -4.5 -3.75 -3.65 -5.85 -0.85 -6.35 1.95 -6.6 3.3 -4.75 4.65 -2.95 4.95 -0.4 M13.5 -8.0 L14.65 0.7 Q15.1 5.0 10.85 5.55 6.55 6.0 6.05 1.8 L4.9 -6.85 8.1 -7.3 9.3 1.55 Q9.4 3.15 10.9 3.15 12.35 2.7 12.0 1.0 L10.85 -7.65 13.5 -8.0 M1.5 0.05 Q1.3 -1.85 0.9 -2.95 0.5 -4.1 -0.55 -4.0 -1.6 -3.8 -1.7 -2.65 L-1.5 0.45 -0.9 3.5 Q-0.5 4.6 0.55 4.5 1.6 4.35 1.7 3.15 1.8 1.95 1.5 0.05 M-11.3 -4.7 L-8.95 0.1 -7.6 -5.15 -4.75 -5.55 -7.25 2.5 -6.6 7.65 -9.8 8.05 -10.45 3.1 -14.65 -4.25 -11.3 -4.7" fill="#ffffff" fill-opacity="0.7490196" fill-rule="evenodd" stroke="none"/>
    </g>
    <g id="shape9" transform="matrix(1.0, 0.0, 0.0, 1.0, 16.4, 4.45)">
      <path d="M1.95 -4.3 L1.95 2.1 Q1.9 4.55 -0.05 4.4 -1.95 4.55 -2.05 2.1 L-2.05 -4.3 -0.5 -4.3 -0.5 2.3 Q-0.55 3.0 0.05 3.1 0.65 3.0 0.65 2.3 L0.65 -4.3 1.95 -4.3 M4.55 -2.6 Q4.35 -2.0 4.35 0.0 4.35 2.05 4.55 2.6 4.75 3.2 5.1 3.1 L5.65 2.5 5.7 1.55 5.15 1.55 5.15 0.3 7.05 0.3 7.05 4.25 6.4 4.25 6.15 3.7 Q5.8 4.35 4.95 4.45 2.55 4.35 2.7 0.0 2.9 -4.65 4.95 -4.45 5.7 -4.5 6.35 -3.9 6.95 -3.35 7.0 -1.75 L7.0 -1.2 5.6 -1.2 5.55 -2.3 Q5.5 -3.05 5.0 -3.1 4.7 -3.2 4.55 -2.6 M9.35 -4.3 L9.35 -0.85 10.35 -0.85 10.35 -4.3 11.9 -4.3 11.9 4.25 10.35 4.25 10.35 0.65 9.35 0.65 9.35 4.25 7.8 4.25 7.8 -4.3 9.35 -4.3 M14.45 -3.3 Q13.8 -3.25 13.8 -1.9 L12.65 -2.0 Q12.55 -4.15 14.55 -4.4 16.25 -4.3 16.4 -2.6 16.35 -1.45 15.8 -0.75 15.3 -0.05 15.2 1.5 L15.2 1.7 13.95 1.7 13.95 1.25 Q14.05 -0.3 14.45 -0.95 14.95 -1.6 15.0 -2.4 15.05 -3.25 14.45 -3.3 M15.35 4.25 L13.8 4.25 13.8 2.7 15.35 2.7 15.35 4.25 M-12.85 -4.3 L-12.85 -2.95 -14.85 -2.95 -14.85 -0.8 -13.4 -0.8 -13.4 0.6 -14.85 0.6 -14.85 2.95 -12.8 2.95 -12.8 4.25 -16.4 4.25 -16.4 -4.3 -12.85 -4.3 M-10.7 -4.3 L-9.3 0.2 -9.25 0.2 -9.25 -4.3 -8.0 -4.3 -8.0 4.25 -9.25 4.25 -10.9 -0.9 -10.9 4.25 -12.25 4.25 -12.25 -4.3 -10.7 -4.3 M-4.6 -2.7 L-5.0 -3.1 Q-5.55 -3.4 -5.6 -0.9 L-5.6 0.9 Q-5.55 3.4 -5.0 3.1 -4.45 3.4 -4.45 0.9 L-4.45 -0.9 Q-4.45 -2.25 -4.6 -2.7 M-5.0 -4.45 Q-3.95 -4.5 -3.35 -3.5 -2.75 -2.5 -2.75 0.0 -2.75 2.5 -3.35 3.5 -3.95 4.5 -5.0 4.45 -6.05 4.5 -6.65 3.5 -7.25 2.5 -7.3 0.0 -7.25 -2.5 -6.65 -3.5 -6.05 -4.5 -5.0 -4.45" fill="#ffffff" fill-opacity="0.7490196" fill-rule="evenodd" stroke="none"/>
    </g>
    <g id="shape10" transform="matrix(1.0, 0.0, 0.0, 1.0, 9.5, 4.45)">
      <path d="M1.7 -0.9 L1.7 0.9 Q1.75 3.4 2.3 3.1 2.85 3.4 2.85 0.9 L2.7 -2.7 2.3 -3.1 Q1.75 -3.4 1.7 -0.9 M2.3 -4.45 Q3.35 -4.5 3.95 -3.5 4.55 -2.5 4.55 0.0 4.55 2.5 3.95 3.5 3.35 4.5 2.3 4.45 1.25 4.5 0.65 3.5 0.05 2.5 0.0 0.0 0.05 -2.5 0.65 -3.5 1.25 -4.5 2.3 -4.45 M6.85 -4.3 L8.25 0.2 8.3 0.2 8.3 -4.3 9.55 -4.3 9.55 4.25 8.3 4.25 6.65 -0.9 6.65 4.25 5.3 4.25 5.3 -4.3 6.85 -4.3 M-6.6 -2.95 L-6.6 4.25 -8.15 4.25 -8.15 -2.95 -9.5 -2.95 -9.5 -4.3 -5.25 -4.3 -5.25 -2.95 -6.6 -2.95 M-2.4 -2.7 L-2.8 -3.1 Q-3.35 -3.4 -3.4 -0.9 L-3.4 0.9 Q-3.35 3.4 -2.8 3.1 -2.25 3.4 -2.25 0.9 L-2.25 -0.9 Q-2.25 -2.25 -2.4 -2.7 M-2.8 -4.45 Q-1.75 -4.5 -1.15 -3.5 -0.55 -2.5 -0.55 0.0 -0.55 2.5 -1.15 3.5 -1.75 4.5 -2.8 4.45 -3.85 4.5 -4.45 3.5 -5.05 2.5 -5.1 0.0 -5.05 -2.5 -4.45 -3.5 -3.85 -4.5 -2.8 -4.45" fill="#ffffff" fill-opacity="0.7490196" fill-rule="evenodd" stroke="none"/>
    </g>
  </defs>
</svg>
