<?xml version="1.0" encoding="UTF-8" standalone="no"?>
<svg xmlns:xlink="http://www.w3.org/1999/xlink" height="315.2px" width="236.15px" xmlns="http://www.w3.org/2000/svg">
  <g transform="matrix(1.0, 0.0, 0.0, 1.0, 125.0, 291.2)">
    <clipPath id="clipPath0" transform="matrix(1.0, 0.0, 0.0, 1.0, 125.0, 291.2)">
      <use height="147.1" transform="matrix(1.0, 0.0, 0.0, 1.0, -27.55, -123.1)" width="55.75" xlink:href="#shape0"/>
    </clipPath>
    <g clip-path="url(#clipPath0)">
      <use height="148.05" transform="matrix(1.0, 0.0, 0.0, 1.0, -27.55, -124.05)" width="55.8" xlink:href="#shape1"/>
    </g>
    <use height="115.65" id="head_mc" transform="matrix(-0.1269, 0.3833, 0.3833, 0.1269, -10.6499, -169.3741)" width="114.1" xlink:href="#sprite0"/>
  </g>
  <defs>
    <g id="shape0" transform="matrix(1.0, 0.0, 0.0, 1.0, 27.55, 123.1)">
      <path d="M-24.3 -56.55 L-20.0 -120.95 -19.25 -120.95 Q-1.95 -125.95 15.25 -119.45 L22.55 -56.75 Q-0.9 -63.45 -24.3 -56.55 M24.1 -42.8 L28.0 -6.2 Q29.35 7.55 20.6 16.05 16.8 19.8 11.5 21.85 6.45 23.85 0.8 24.0 -4.8 24.15 -10.0 22.45 -15.35 20.65 -19.3 17.05 -28.35 8.9 -27.5 -5.45 L-25.2 -42.8 Q-0.55 -50.3 24.1 -42.8" fill="#ffffff" fill-rule="evenodd" stroke="none"/>
      <path d="M-24.3 -56.55 Q-0.9 -63.45 22.55 -56.75 L24.1 -42.8 Q-0.55 -50.3 -25.2 -42.8 L-24.3 -56.55" fill="#ff0000" fill-rule="evenodd" stroke="none"/>
    </g>
    <g id="shape1" transform="matrix(1.0, 0.0, 0.0, 1.0, 27.55, 124.05)">
      <path d="M-24.3 -56.55 L-20.0 -120.95 -19.25 -120.95 Q-1.95 -125.95 15.25 -119.45 L22.55 -56.75 Q-0.9 -63.45 -24.3 -56.55 M24.1 -42.8 L28.0 -6.2 Q29.35 7.55 20.6 16.05 16.8 19.8 11.5 21.85 6.45 23.85 0.8 24.0 -4.8 24.15 -10.0 22.45 -15.35 20.65 -19.3 17.05 -28.35 8.9 -27.5 -5.45 L-25.2 -42.8 Q-0.55 -50.3 24.1 -42.8" fill="#ffffff" fill-rule="evenodd" stroke="none"/>
      <path d="M-24.3 -56.55 Q-0.9 -63.45 22.55 -56.75 L24.1 -42.8 Q-0.55 -50.3 -25.2 -42.8 L-24.3 -56.55" fill="#ff0000" fill-rule="evenodd" stroke="none"/>
      <path d="M10.45 -78.1 L7.55 -81.45 3.4 -79.95 5.7 -83.75 3.0 -87.25 7.3 -86.2 9.8 -89.9 10.15 -85.45 14.4 -84.2 10.35 -82.5 10.45 -78.1" fill="#1e1fad" fill-rule="evenodd" stroke="none"/>
      <path d="M3.05 -106.4 L6.5 -105.55 8.5 -108.5 8.75 -104.95 12.15 -103.95 8.9 -102.65 9.0 -99.1 6.7 -101.75 3.35 -100.6 5.2 -103.6 3.05 -106.4" fill="#b43534" fill-rule="evenodd" stroke="none"/>
      <path d="M-8.3 -96.1 L-11.2 -99.45 -15.35 -97.95 -13.05 -101.75 -15.75 -105.25 -11.45 -104.2 -8.95 -107.9 -8.6 -103.45 -4.35 -102.2 -8.4 -100.5 -8.3 -96.1" fill="#1e1fad" fill-rule="evenodd" stroke="none"/>
      <path d="M5.95 -112.25 L3.05 -115.6 -1.1 -114.1 1.2 -117.9 -1.5 -121.4 2.8 -120.35 5.3 -124.05 5.65 -119.6 9.9 -118.35 5.85 -116.65 5.95 -112.25" fill="#1e1fad" fill-rule="evenodd" stroke="none"/>
      <path d="M-14.35 -111.65 L-16.5 -115.0 -19.55 -113.5 -17.85 -117.3 -19.85 -120.8 -16.7 -119.75 -14.85 -123.45 -14.6 -119.0 -11.45 -117.75 -14.45 -116.05 -14.35 -111.65" fill="#1e1fad" fill-rule="evenodd" stroke="none"/>
      <path d="M-18.25 -78.1 L-20.1 -81.45 -22.75 -79.95 -21.25 -83.75 -23.0 -87.25 -20.25 -86.2 -18.65 -89.9 -18.4 -85.45 -15.7 -84.2 -18.3 -82.5 -18.25 -78.1" fill="#1e1fad" fill-rule="evenodd" stroke="none"/>
      <path d="M-22.0 -58.6 L-23.85 -61.95 -26.5 -60.45 -25.0 -64.25 -26.75 -67.75 -24.0 -66.7 -22.4 -70.4 -22.15 -65.95 -19.45 -64.7 -22.05 -63.0 -22.0 -58.6" fill="#1e1fad" fill-rule="evenodd" stroke="none"/>
      <path d="M22.95 -67.6 L21.1 -70.95 18.45 -69.45 19.95 -73.25 18.2 -76.75 20.95 -75.7 22.55 -79.4 22.8 -74.95 25.5 -73.7 22.9 -72.0 22.95 -67.6" fill="#1e1fad" fill-rule="evenodd" stroke="none"/>
      <path d="M-15.15 -90.45 L-11.7 -89.6 -9.7 -92.55 -9.45 -89.0 -6.05 -88.0 -9.3 -86.7 -9.2 -83.15 -11.5 -85.8 -14.85 -84.65 -13.0 -87.65 -15.15 -90.45" fill="#b43534" fill-rule="evenodd" stroke="none"/>
      <path d="M-12.55 -68.9 L-9.1 -68.05 -7.1 -71.0 -6.85 -67.45 -3.45 -66.45 -6.7 -65.15 -6.6 -61.6 -8.9 -64.25 -12.25 -63.1 -10.4 -66.1 -12.55 -68.9" fill="#b43534" fill-rule="evenodd" stroke="none"/>
      <path d="M11.95 -69.45 L14.3 -68.6 15.7 -71.55 15.9 -68.0 18.2 -67.0 15.95 -65.7 16.05 -62.15 14.45 -64.8 12.15 -63.65 13.45 -66.65 11.95 -69.45" fill="#b43534" fill-rule="evenodd" stroke="none"/>
      <path d="M12.65 -94.95 L14.55 -94.1 15.6 -97.05 15.75 -93.5 17.6 -92.5 15.85 -91.2 15.9 -87.65 14.65 -90.3 12.85 -89.15 13.85 -92.15 12.65 -94.95" fill="#b43534" fill-rule="evenodd" stroke="none"/>
      <path d="M-23.0 -98.7 L-21.1 -97.85 -20.05 -100.8 -19.9 -97.25 -18.05 -96.25 -19.8 -94.95 -19.75 -91.4 -21.0 -94.05 -22.8 -92.9 -21.8 -95.9 -23.0 -98.7" fill="#b43534" fill-rule="evenodd" stroke="none"/>
      <path d="M7.0 -122.7 Q11.35 -122.0 15.65 -120.35 18.75 -99.25 22.15 -62.35 24.15 -40.7 27.6 -13.4 28.55 -5.8 28.1 0.7 27.1 14.5 15.6 19.25 -0.3 25.85 -11.8 20.9 -23.05 16.1 -26.65 1.95 L15.95 -2.1 16.0 -2.2 7.0 -122.7" fill="url(#gradient0)" fill-rule="evenodd" stroke="none"/>
    </g>
    <linearGradient gradientTransform="matrix(-0.0091, 6.0E-4, -9.0E-4, -0.0132, 19.5, -56.65)" gradientUnits="userSpaceOnUse" id="gradient0" spreadMethod="pad" x1="-819.2" x2="819.2">
      <stop offset="0.0" stop-color="#000000" stop-opacity="0.5019608"/>
      <stop offset="1.0" stop-color="#000000" stop-opacity="0.0"/>
    </linearGradient>
    <g id="sprite0" transform="matrix(1.0, 0.0, 0.0, 1.0, 54.55, 50.55)">
      <use height="115.65" transform="matrix(1.0, 0.0, 0.0, 1.0, -54.55, -50.55)" width="114.1" xlink:href="#shape2"/>
    </g>
    <g id="shape2" transform="matrix(1.0, 0.0, 0.0, 1.0, 54.55, 50.55)">
      <path d="M33.9 31.85 Q25.9 36.65 16.7 38.0 L11.15 38.2 Q-2.7 37.95 -16.5 39.0 L-22.45 38.15 -24.95 37.45 Q-31.15 34.05 -36.1 28.9 L-39.6 25.0 Q-45.65 17.55 -46.25 7.7 -52.0 4.4 -53.9 -2.1 -55.85 -8.85 -51.95 -14.75 -48.55 -19.9 -42.3 -20.6 -32.5 -20.7 -28.65 -11.65 L-23.75 -11.3 Q-20.2 -10.7 -17.3 -8.7 -16.85 -20.6 -10.65 -30.55 -8.6 -33.9 -6.0 -36.85 5.65 -50.25 23.55 -50.55 L28.6 -50.15 Q38.95 -48.95 45.6 -41.05 L43.75 -41.15 43.7 -41.2 Q34.95 -49.55 22.8 -49.3 8.65 -48.15 -2.55 -39.6 L-1.1 -39.65 -0.05 -38.5 Q3.3 -34.2 0.9 -29.35 L0.1 -28.3 0.25 -29.3 0.0 -29.65 Q0.8 -34.4 -1.7 -38.3 L-2.75 -38.65 -2.95 -39.2 -2.8 -39.4 -3.0 -39.25 -5.35 -36.7 Q-8.0 -33.75 -9.7 -30.3 L-10.35 -29.0 -9.4 -30.15 -7.3 -31.6 Q-2.95 -29.9 -3.25 -24.6 -3.85 -14.5 -7.2 -5.05 -8.95 0.0 -8.25 5.5 -4.45 7.55 -0.35 7.85 2.8 8.05 5.55 7.05 17.1 3.1 29.15 5.25 31.75 6.0 33.9 7.7 L35.5 9.2 35.45 11.25 Q33.0 8.8 29.7 7.45 27.05 6.55 24.4 6.55 14.35 5.95 4.9 8.5 L0.35 9.4 Q-10.75 8.65 -15.5 -1.2 -16.65 -3.6 -16.95 -6.25 -20.85 -9.8 -26.15 -10.15 -37.35 -9.25 -42.4 0.95 -44.3 4.9 -44.1 9.35 -43.6 20.15 -35.05 27.1 -26.0 34.5 -14.35 34.0 L-10.85 33.2 Q-1.95 30.55 6.9 26.9 L0.15 26.0 0.0 25.6 Q10.7 23.2 18.95 30.45 L18.7 31.3 Q17.0 31.15 15.75 30.35 13.15 28.45 10.1 27.55 6.4 28.6 2.9 30.05 -2.9 32.5 -8.85 34.2 -20.8 37.4 -31.5 31.3 -25.35 38.25 -16.15 37.55 L18.85 35.3 Q27.3 34.85 34.15 29.7 L33.9 31.85 M51.75 -34.7 Q55.45 -31.3 57.2 -26.4 62.75 -11.05 55.15 3.1 L54.55 2.9 55.05 0.05 Q56.65 -2.9 57.3 -6.1 60.3 -20.75 52.05 -32.95 L50.95 -35.2 51.75 -34.7 M35.5 -33.4 Q33.7 -32.65 31.55 -32.7 L30.3 -32.75 Q32.85 -36.75 37.65 -38.6 44.1 -41.15 50.1 -38.05 53.5 -14.75 53.85 8.75 L54.4 39.95 Q54.55 47.35 54.3 54.7 54.15 59.35 50.3 61.9 45.05 65.45 40.35 61.05 35.35 56.45 34.95 49.65 34.4 39.5 35.9 29.5 37.05 21.7 37.1 13.9 37.25 -1.9 39.25 -17.75 40.4 -27.05 36.1 -35.35 L35.25 -35.7 35.85 -33.55 35.5 -33.4 M-49.25 -15.6 L-50.1 -12.2 -48.95 -11.95 Q-45.1 -17.3 -38.65 -16.2 -37.8 -16.1 -37.05 -15.6 -34.05 -13.45 -32.55 -10.35 L-31.35 -10.45 Q-30.5 -12.85 -32.25 -15.2 -35.55 -19.7 -41.3 -19.5 -46.0 -19.2 -49.25 -15.6 M-10.65 -26.4 L-10.8 -26.2 -10.5 -26.3 Q-6.6 -25.05 -5.2 -21.0 L-4.85 -19.9 Q-3.25 -25.1 -6.3 -29.7 L-7.9 -30.0 -10.65 -26.4 M-5.4 -16.95 L-5.95 -18.95 Q-7.0 -23.55 -11.6 -24.45 -15.25 -16.3 -16.1 -7.55 L-15.7 -7.1 -16.05 -6.55 -15.45 -4.8 -15.05 -7.65 -14.7 -8.05 -14.55 -8.9 -12.95 -9.5 -14.55 -11.0 Q-14.05 -15.55 -12.2 -20.0 L-11.2 -20.05 Q-10.85 -19.95 -10.6 -19.7 -9.0 -17.9 -9.35 -15.2 -9.1 -6.75 -13.2 0.7 -11.6 3.0 -9.4 4.75 -8.85 -6.4 -5.4 -16.95 M-36.75 11.15 Q-36.75 10.55 -36.35 10.15 -35.95 9.75 -35.35 9.75 -34.75 9.75 -34.35 10.15 -33.95 10.55 -33.95 11.15 -33.95 11.75 -34.35 12.15 -34.75 12.55 -35.35 12.55 -35.95 12.55 -36.35 12.15 -36.75 11.75 -36.75 11.15 M-36.35 1.45 L-35.75 2.35 -36.85 4.35 -38.35 4.1 -38.6 3.75 Q-38.95 2.2 -37.7 1.25 L-37.2 1.15 -36.35 1.45 M-31.55 2.4 Q-31.25 2.7 -31.25 3.15 -31.25 3.6 -31.55 3.9 -31.85 4.2 -32.3 4.2 -32.75 4.2 -33.05 3.9 L-33.35 3.15 -33.05 2.4 Q-32.75 2.1 -32.3 2.1 -31.85 2.1 -31.55 2.4 M-30.05 9.25 Q-29.7 8.9 -29.2 8.9 -28.7 8.9 -28.35 9.25 -28.0 9.6 -28.0 10.1 -28.0 10.6 -28.35 10.95 -28.7 11.3 -29.2 11.3 -29.7 11.3 -30.05 10.95 L-30.4 10.1 -30.05 9.25" fill="#000000" fill-rule="evenodd" stroke="none"/>
      <path d="M29.15 5.25 Q17.1 3.1 5.55 7.05 2.8 8.05 -0.35 7.85 -4.45 7.55 -8.25 5.5 -8.95 0.0 -7.2 -5.05 -3.85 -14.5 -3.25 -24.6 -2.95 -29.9 -7.3 -31.6 L-9.4 -30.15 -9.7 -30.3 Q-8.0 -33.75 -5.35 -36.7 L-3.0 -39.25 -2.95 -39.2 -2.75 -38.65 -1.7 -38.3 Q0.8 -34.4 0.0 -29.65 L0.25 -29.3 0.1 -28.3 0.9 -29.35 Q0.3 -24.7 1.4 -20.25 1.85 -18.45 3.7 -18.5 5.95 -20.25 7.15 -22.85 L9.65 -28.1 13.5 -35.7 Q16.4 -41.45 22.5 -42.65 30.0 -43.9 33.05 -37.6 29.9 -35.65 29.2 -32.1 L29.25 -31.8 35.45 -31.6 Q37.8 -15.2 31.4 0.1 L29.15 5.25" fill="#0ecfe4" fill-rule="evenodd" stroke="none"/>
      <path d="M33.9 31.85 L34.15 29.7 35.55 18.85 35.45 11.25 35.5 9.2 Q37.0 -6.45 37.65 -22.15 37.85 -27.1 36.4 -31.85 L35.45 -31.6 29.25 -31.8 29.2 -32.1 Q29.9 -35.65 33.05 -37.6 L33.45 -37.9 Q38.2 -40.7 43.65 -41.15 L43.75 -41.15 45.6 -41.05 50.05 -39.45 50.8 -39.7 51.75 -34.7 50.95 -35.2 52.05 -32.95 52.45 -29.9 Q54.25 -15.0 55.05 0.05 L54.55 2.9 55.15 3.1 Q55.55 25.55 56.35 47.9 56.6 54.2 54.5 59.85 L54.05 59.85 Q50.95 66.4 43.55 64.75 40.4 64.1 38.55 61.9 35.8 58.65 34.75 54.5 31.95 43.25 33.9 31.85 M35.5 -33.4 L35.85 -33.55 35.25 -35.7 36.1 -35.35 Q40.4 -27.05 39.25 -17.75 37.25 -1.9 37.1 13.9 37.05 21.7 35.9 29.5 34.4 39.5 34.95 49.65 35.35 56.45 40.35 61.05 45.05 65.45 50.3 61.9 54.15 59.35 54.3 54.7 54.55 47.35 54.4 39.95 L53.85 8.75 Q53.5 -14.75 50.1 -38.05 44.1 -41.15 37.65 -38.6 32.85 -36.75 30.3 -32.75 L31.55 -32.7 Q33.7 -32.65 35.5 -33.4 M-49.25 -15.6 Q-46.0 -19.2 -41.3 -19.5 -35.55 -19.7 -32.25 -15.2 -30.5 -12.85 -31.35 -10.45 L-32.55 -10.35 Q-34.05 -13.45 -37.05 -15.6 -37.8 -16.1 -38.65 -16.2 -45.1 -17.3 -48.95 -11.95 L-50.1 -12.2 -49.25 -15.6" fill="#999999" fill-rule="evenodd" stroke="none"/>
      <path d="M35.5 9.2 L33.9 7.7 Q31.75 6.0 29.15 5.25 L31.4 0.1 Q37.8 -15.2 35.45 -31.6 L36.4 -31.85 Q37.85 -27.1 37.65 -22.15 37.0 -6.45 35.5 9.2 M0.9 -29.35 Q3.3 -34.2 -0.05 -38.5 L-1.1 -39.65 -2.55 -39.6 Q8.65 -48.15 22.8 -49.3 34.95 -49.55 43.7 -41.2 L43.65 -41.15 Q38.2 -40.7 33.45 -37.9 L33.05 -37.6 Q30.0 -43.9 22.5 -42.65 16.4 -41.45 13.5 -35.7 L9.65 -28.1 7.15 -22.85 Q5.95 -20.25 3.7 -18.5 1.85 -18.45 1.4 -20.25 0.3 -24.7 0.9 -29.35 M55.05 0.05 Q54.25 -15.0 52.45 -29.9 L52.05 -32.95 Q60.3 -20.75 57.3 -6.1 56.65 -2.9 55.05 0.05 M-10.5 -26.3 L-10.65 -26.4 -7.9 -30.0 -6.3 -29.7 Q-3.25 -25.1 -4.85 -19.9 L-5.2 -21.0 Q-6.6 -25.05 -10.5 -26.3" fill="#0db5c8" fill-rule="evenodd" stroke="none"/>
      <path d="M34.15 29.7 Q27.3 34.85 18.85 35.3 L-16.15 37.55 Q-25.35 38.25 -31.5 31.3 -20.8 37.4 -8.85 34.2 -2.9 32.5 2.9 30.05 6.4 28.6 10.1 27.55 13.15 28.45 15.75 30.35 17.0 31.15 18.7 31.3 L18.95 30.45 Q10.7 23.2 0.0 25.6 L0.15 26.0 6.9 26.9 Q-1.95 30.55 -10.85 33.2 L-14.35 34.0 Q-26.0 34.5 -35.05 27.1 -43.6 20.15 -44.1 9.35 -44.3 4.9 -42.4 0.95 -37.35 -9.25 -26.15 -10.15 -26.8 -0.15 -20.4 7.45 -16.55 12.0 -10.65 13.1 L-3.7 13.85 14.8 12.75 Q26.6 11.45 35.55 18.85 L34.15 29.7 M-30.05 9.25 L-30.4 10.1 -30.05 10.95 Q-29.7 11.3 -29.2 11.3 -28.7 11.3 -28.35 10.95 -28.0 10.6 -28.0 10.1 -28.0 9.6 -28.35 9.25 -28.7 8.9 -29.2 8.9 -29.7 8.9 -30.05 9.25 M-31.55 2.4 Q-31.85 2.1 -32.3 2.1 -32.75 2.1 -33.05 2.4 L-33.35 3.15 -33.05 3.9 Q-32.75 4.2 -32.3 4.2 -31.85 4.2 -31.55 3.9 -31.25 3.6 -31.25 3.15 -31.25 2.7 -31.55 2.4 M-36.35 1.45 L-37.2 1.15 -37.7 1.25 Q-38.95 2.2 -38.6 3.75 L-38.35 4.1 -36.85 4.35 -35.75 2.35 -36.35 1.45 M-36.75 11.15 Q-36.75 11.75 -36.35 12.15 -35.95 12.55 -35.35 12.55 -34.75 12.55 -34.35 12.15 -33.95 11.75 -33.95 11.15 -33.95 10.55 -34.35 10.15 -34.75 9.75 -35.35 9.75 -35.95 9.75 -36.35 10.15 -36.75 10.55 -36.75 11.15" fill="#a88b69" fill-rule="evenodd" stroke="none"/>
      <path d="M-5.4 -16.95 Q-8.85 -6.4 -9.4 4.75 -11.6 3.0 -13.2 0.7 -9.1 -6.75 -9.35 -15.2 -9.0 -17.9 -10.6 -19.7 -10.85 -19.95 -11.2 -20.05 L-12.2 -20.0 Q-14.05 -15.55 -14.55 -11.0 L-12.95 -9.5 -14.55 -8.9 -14.7 -8.05 -15.05 -7.65 -15.45 -4.8 -16.05 -6.55 -15.7 -7.1 -16.1 -7.55 Q-15.25 -16.3 -11.6 -24.45 -7.0 -23.55 -5.95 -18.95 L-5.4 -16.95" fill="#ffffff" fill-rule="evenodd" stroke="none"/>
      <path d="M-26.15 -10.15 Q-20.85 -9.8 -16.95 -6.25 -16.65 -3.6 -15.5 -1.2 -10.75 8.65 0.35 9.4 L4.9 8.5 Q14.35 5.95 24.4 6.55 27.05 6.55 29.7 7.45 33.0 8.8 35.45 11.25 L35.55 18.85 Q26.6 11.45 14.8 12.75 L-3.7 13.85 -10.65 13.1 Q-16.55 12.0 -20.4 7.45 -26.8 -0.15 -26.15 -10.15" fill="#c19f79" fill-rule="evenodd" stroke="none"/>
    </g>
  </defs>
</svg>
