<?xml version="1.0" encoding="UTF-8" standalone="no"?>
<svg xmlns:xlink="http://www.w3.org/1999/xlink" height="38.25px" width="85.1px" xmlns="http://www.w3.org/2000/svg">
  <g transform="matrix(1.0, 0.0, 0.0, 1.0, -27.15, -6.35)">
    <use height="34.15" transform="matrix(0.4883, 0.0, 0.0, 0.4883, 40.0, 6.3252)" width="51.95" xlink:href="#shape0"/>
    <use height="34.15" transform="matrix(0.4883, 0.0, 0.0, 0.4883, 65.5453, 6.3252)" width="35.6" xlink:href="#shape1"/>
    <use height="34.15" transform="matrix(0.4883, 0.0, 0.0, 0.4883, 82.807, 6.3252)" width="34.0" xlink:href="#shape2"/>
    <use height="34.15" transform="matrix(0.4883, 0.0, 0.0, 0.4883, 27.1709, 27.3252)" width="23.45" xlink:href="#shape3"/>
    <use height="36.4" transform="matrix(0.4883, 0.0, 0.0, 0.4883, 39.801, 26.8369)" width="37.8" xlink:href="#shape4"/>
    <use height="36.45" transform="matrix(0.4883, 0.0, 0.0, 0.4883, 66.501, 26.8125)" width="35.75" xlink:href="#shape5"/>
    <use height="36.4" transform="matrix(0.4883, 0.0, 0.0, 0.4883, 85.951, 26.8369)" width="37.8" xlink:href="#shape4"/>
    <use height="35.15" transform="matrix(0.4883, 0.0, 0.0, 0.4883, 107.0846, 27.3252)" width="10.6" xlink:href="#shape6"/>
  </g>
  <defs>
    <g id="shape0" transform="matrix(1.0, 0.0, 0.0, 1.0, 0.0, 34.15)">
      <path d="M9.3 -34.15 L15.2 -12.05 22.45 -34.15 29.5 -34.15 36.2 -12.05 42.65 -34.15 51.95 -34.15 41.05 0.0 31.95 0.0 25.75 -19.75 19.2 0.0 10.2 0.0 0.0 -34.15 9.3 -34.15" fill="#ffcc33" fill-rule="evenodd" stroke="none"/>
    </g>
    <g id="shape1" transform="matrix(1.0, 0.0, 0.0, 1.0, -0.4, 34.15)">
      <path d="M24.35 -5.95 L12.1 -5.95 9.75 0.0 0.4 0.0 13.5 -34.15 23.15 -34.15 36.0 0.0 26.55 0.0 24.35 -5.95 M21.95 -12.7 L18.3 -23.6 14.55 -12.7 21.95 -12.7" fill="#ffcc33" fill-rule="evenodd" stroke="none"/>
    </g>
    <g id="shape2" transform="matrix(1.0, 0.0, 0.0, 1.0, 0.6, 34.15)">
      <path d="M10.0 -34.15 L16.45 -24.8 22.65 -34.15 33.4 -34.15 20.6 -16.35 20.6 0.0 11.75 0.0 11.75 -16.35 -0.6 -34.15 10.0 -34.15" fill="#ffcc33" fill-rule="evenodd" stroke="none"/>
    </g>
    <g id="shape3" transform="matrix(1.0, 0.0, 0.0, 1.0, -0.35, 34.15)">
      <path d="M7.6 -26.6 L0.35 -26.6 0.35 -34.15 23.8 -34.15 23.8 -26.6 16.45 -26.6 16.45 0.0 7.6 0.0 7.6 -26.6" fill="#ffcc33" fill-rule="evenodd" stroke="none"/>
    </g>
    <g id="shape4" transform="matrix(1.0, 0.0, 0.0, 1.0, -2.05, 35.15)">
      <path d="M20.95 -35.15 Q26.4 -35.1 30.65 -32.75 34.9 -30.4 37.35 -26.3 39.8 -22.25 39.85 -17.0 39.8 -11.75 37.35 -7.65 34.9 -3.55 30.65 -1.2 26.4 1.2 20.95 1.25 15.5 1.2 11.25 -1.2 7.0 -3.55 4.55 -7.65 2.1 -11.75 2.05 -17.0 2.1 -22.2 4.55 -26.3 7.0 -30.4 11.25 -32.75 15.5 -35.1 20.95 -35.15 M25.85 -25.25 Q23.65 -26.55 20.95 -26.55 18.25 -26.55 16.1 -25.25 13.95 -23.95 12.65 -21.8 11.35 -19.65 11.35 -17.0 11.35 -14.3 12.65 -12.15 13.95 -9.95 16.1 -8.65 18.25 -7.4 20.95 -7.35 23.65 -7.4 25.85 -8.65 28.0 -9.95 29.3 -12.15 30.55 -14.3 30.6 -17.0 30.55 -19.65 29.3 -21.8 28.0 -23.95 25.85 -25.25" fill="#ffcc33" fill-rule="evenodd" stroke="none"/>
    </g>
    <g id="shape5" transform="matrix(1.0, 0.0, 0.0, 1.0, -2.05, 35.2)">
      <path d="M20.6 -35.2 Q26.05 -35.2 29.8 -32.85 33.55 -30.5 35.95 -25.6 L27.5 -22.1 Q26.35 -24.85 24.55 -26.2 22.75 -27.55 20.2 -27.55 17.65 -27.5 15.65 -26.15 13.65 -24.75 12.5 -22.35 11.35 -19.95 11.35 -16.85 11.35 -13.65 12.5 -11.25 13.65 -8.85 15.7 -7.5 17.75 -6.1 20.45 -6.1 23.5 -6.1 25.25 -7.6 27.05 -9.05 27.45 -12.05 L20.2 -12.05 20.2 -18.95 37.8 -18.95 37.55 -14.4 36.9 -10.95 Q36.5 -9.4 35.8 -8.0 33.6 -3.45 29.65 -1.15 25.7 1.2 20.3 1.25 14.85 1.2 10.75 -1.05 6.7 -3.35 4.4 -7.4 2.1 -11.5 2.05 -16.9 2.1 -22.4 4.45 -26.5 6.75 -30.6 10.9 -32.9 15.05 -35.15 20.6 -35.2" fill="#ffcc33" fill-rule="evenodd" stroke="none"/>
    </g>
    <g id="shape6" transform="matrix(1.0, 0.0, 0.0, 1.0, -3.45, 34.15)">
      <path d="M5.0 -8.05 Q6.5 -9.55 8.75 -9.6 11.0 -9.55 12.5 -8.05 14.0 -6.6 14.05 -4.35 14.0 -2.05 12.5 -0.55 11.0 0.95 8.75 1.0 6.5 0.95 5.0 -0.55 3.5 -2.05 3.45 -4.35 3.5 -6.6 5.0 -8.05 M4.45 -34.15 L13.0 -34.15 13.0 -11.6 4.45 -11.6 4.45 -34.15" fill="#ffcc33" fill-rule="evenodd" stroke="none"/>
    </g>
  </defs>
</svg>
