<?xml version="1.0" encoding="UTF-8" standalone="no"?>
<svg xmlns:xlink="http://www.w3.org/1999/xlink" height="46.25px" width="121.0px" xmlns="http://www.w3.org/2000/svg">
  <g transform="matrix(1.0, 0.0, 0.0, 1.0, -11.2, -5.4)">
    <use height="37.5" transform="matrix(0.3516, 0.0, 0.0, 0.3516, 43.2164, 5.3789)" width="35.5" xlink:href="#shape0"/>
    <use height="36.45" transform="matrix(0.3516, 0.0, 0.0, 0.3516, 56.6637, 5.7305)" width="33.0" xlink:href="#shape1"/>
    <use height="36.75" transform="matrix(0.3516, 0.0, 0.0, 0.3516, 68.9758, 6.1348)" width="46.25" xlink:href="#shape2"/>
    <use height="36.4" transform="matrix(0.3516, 0.0, 0.0, 0.3516, 85.9055, 5.502)" width="39.65" xlink:href="#shape3"/>
    <use height="36.0" transform="matrix(0.3516, 0.0, 0.0, 0.3516, 11.1813, 21.8711)" width="34.65" xlink:href="#shape4"/>
    <use height="35.7" transform="matrix(0.3516, 0.0, 0.0, 0.3516, 24.384, 21.959)" width="42.15" xlink:href="#shape5"/>
    <use height="35.7" transform="matrix(0.3516, 0.0, 0.0, 0.3516, 40.284, 21.959)" width="42.15" xlink:href="#shape5"/>
    <use height="36.35" transform="matrix(0.3516, 0.0, 0.0, 0.3516, 56.2367, 21.8711)" width="41.15" xlink:href="#shape6"/>
    <use height="36.0" transform="matrix(0.3516, 0.0, 0.0, 0.3516, 71.6813, 21.8711)" width="34.65" xlink:href="#shape4"/>
    <use height="35.7" transform="matrix(0.3516, 0.0, 0.0, 0.3516, 84.884, 21.959)" width="42.15" xlink:href="#shape5"/>
    <use height="35.2" transform="matrix(0.3516, 0.0, 0.0, 0.3516, 100.6082, 21.6602)" width="46.1" xlink:href="#shape7"/>
    <use height="36.35" transform="matrix(0.3516, 0.0, 0.0, 0.3516, 117.7367, 21.8711)" width="41.15" xlink:href="#shape6"/>
    <use height="36.35" transform="matrix(0.3516, 0.0, 0.0, 0.3516, 45.2867, 38.8711)" width="41.15" xlink:href="#shape6"/>
    <use height="35.7" transform="matrix(0.3516, 0.0, 0.0, 0.3516, 60.784, 38.959)" width="42.15" xlink:href="#shape5"/>
    <use height="35.2" transform="matrix(0.3516, 0.0, 0.0, 0.3516, 76.5082, 38.6602)" width="46.1" xlink:href="#shape7"/>
    <use height="36.65" transform="matrix(0.3516, 0.0, 0.0, 0.3516, 93.6016, 38.7656)" width="14.85" xlink:href="#shape8"/>
  </g>
  <defs>
    <g id="shape0" transform="matrix(1.0, 0.0, 0.0, 1.0, -0.9, 35.9)">
      <path d="M16.25 -23.5 L16.4 -20.75 16.6 -18.2 Q19.7 -18.35 21.25 -19.35 22.75 -20.3 22.7 -21.45 22.65 -22.6 21.0 -23.3 L16.25 -23.5 M28.5 -34.1 Q31.7 -32.85 33.8 -30.4 35.9 -28.0 36.35 -24.15 36.6 -22.25 35.9 -19.75 35.2 -17.25 33.15 -14.75 31.1 -12.3 27.3 -10.5 23.5 -8.65 17.6 -8.1 L17.85 -4.55 18.1 -1.5 18.25 -0.25 12.95 0.5 8.2 1.05 4.75 1.45 3.45 1.6 2.2 -16.15 0.9 -33.3 6.65 -34.8 13.85 -35.75 Q17.7 -36.05 21.5 -35.7 25.25 -35.35 28.5 -34.1" fill="#ffffff" fill-rule="evenodd" stroke="none"/>
    </g>
    <g id="shape1" transform="matrix(1.0, 0.0, 0.0, 1.0, -0.75, 34.9)">
      <path d="M0.75 -34.0 L6.1 -34.5 11.25 -34.8 15.1 -34.9 16.6 -34.9 17.8 -24.2 18.9 -13.1 22.9 -13.95 26.9 -14.9 30.0 -15.7 31.25 -16.0 32.3 -10.8 33.1 -6.0 33.6 -2.45 33.75 -1.1 21.75 0.25 4.4 1.55 3.4 -6.9 2.55 -14.8 1.7 -23.4 0.75 -34.0" fill="#ffffff" fill-rule="evenodd" stroke="none"/>
    </g>
    <g id="shape2" transform="matrix(1.0, 0.0, 0.0, 1.0, -0.5, 33.75)">
      <path d="M25.4 -13.2 L24.45 -16.6 23.4 -20.1 22.45 -16.5 21.4 -12.7 23.55 -12.95 25.4 -13.2 M33.0 -33.75 L36.05 -27.15 39.8 -19.05 43.55 -10.4 46.75 -2.3 Q43.5 -1.1 39.4 -0.05 L29.8 2.15 28.6 -2.1 27.45 -6.05 22.85 -5.25 19.3 -4.65 18.3 -0.95 17.25 3.0 11.25 1.6 5.85 0.1 2.0 -1.1 0.5 -1.65 3.5 -8.15 7.35 -16.35 11.55 -25.1 15.65 -33.3 21.65 -33.6 27.25 -33.7 31.35 -33.75 33.0 -33.75" fill="#ffffff" fill-rule="evenodd" stroke="none"/>
    </g>
    <g id="shape3" transform="matrix(1.0, 0.0, 0.0, 1.0, -0.3, 35.55)">
      <path d="M20.6 -26.7 L22.6 -30.8 24.25 -34.2 24.95 -35.55 26.35 -35.25 29.9 -34.4 34.75 -33.15 39.95 -31.55 39.05 -30.0 36.55 -25.8 32.8 -19.55 28.15 -11.95 28.15 -5.75 28.1 0.1 22.1 0.45 16.6 0.65 12.6 0.8 11.0 0.85 11.2 -6.25 11.45 -12.85 7.3 -19.45 3.75 -25.3 1.25 -29.55 0.3 -31.15 6.05 -32.95 11.2 -34.35 14.85 -35.25 16.25 -35.55 16.95 -34.2 18.6 -30.8 20.6 -26.7" fill="#ffffff" fill-rule="evenodd" stroke="none"/>
    </g>
    <g id="shape4" transform="matrix(1.0, 0.0, 0.0, 1.0, -0.8, 34.5)">
      <path d="M32.65 -34.5 L33.75 -29.3 34.65 -24.15 35.2 -20.25 35.45 -18.65 34.0 -18.7 30.5 -18.7 26.15 -18.6 27.1 -9.05 27.9 0.0 22.25 0.65 16.9 1.1 12.85 1.4 11.25 1.5 11.2 -5.25 11.2 -11.45 11.2 -17.75 6.25 -17.2 2.4 -16.6 0.8 -16.3 0.8 -21.75 0.95 -26.9 1.1 -30.7 1.2 -32.25 11.35 -33.0 21.6 -33.7 32.65 -34.5" fill="#ffffff" fill-rule="evenodd" stroke="none"/>
    </g>
    <g id="shape5" transform="matrix(1.0, 0.0, 0.0, 1.0, -0.95, 34.25)">
      <path d="M18.95 -18.3 Q17.4 -17.1 17.35 -15.35 17.4 -13.55 18.95 -12.35 20.45 -11.2 22.75 -11.15 25.0 -11.2 26.55 -12.35 28.05 -13.55 28.1 -15.35 28.05 -17.1 26.55 -18.3 25.0 -19.5 22.75 -19.55 20.45 -19.5 18.95 -18.3 M32.95 -31.85 Q37.5 -29.5 40.15 -25.55 42.75 -21.6 43.05 -16.65 43.25 -13.15 41.95 -9.9 40.65 -6.65 37.9 -4.1 35.15 -1.55 31.1 -0.05 27.05 1.45 21.7 1.45 17.4 1.45 13.65 0.3 9.9 -0.9 7.05 -3.15 4.15 -5.45 2.55 -8.75 0.95 -12.1 0.95 -16.4 1.0 -20.8 2.85 -24.1 4.7 -27.45 7.75 -29.7 10.85 -31.95 14.6 -33.1 18.4 -34.25 22.4 -34.25 28.45 -34.2 32.95 -31.85" fill="#ffffff" fill-rule="evenodd" stroke="none"/>
    </g>
    <g id="shape6" transform="matrix(1.0, 0.0, 0.0, 1.0, -1.1, 34.5)">
      <path d="M32.25 -34.05 L37.35 -33.5 40.9 -33.05 42.25 -32.85 41.75 -22.85 41.1 -11.85 40.25 -0.4 34.7 0.55 29.35 1.25 25.35 1.7 23.75 1.85 21.1 -3.2 18.6 -7.7 16.8 -10.95 16.1 -12.15 16.05 -6.8 15.95 -2.65 15.9 1.45 11.05 1.1 6.2 0.65 2.55 0.3 1.1 0.1 1.25 -16.7 1.65 -34.35 7.15 -34.2 12.05 -33.9 15.55 -33.65 16.9 -33.5 19.9 -27.4 22.8 -21.9 24.9 -18.0 25.75 -16.45 25.95 -22.8 26.15 -28.6 26.3 -32.85 26.35 -34.5 32.25 -34.05" fill="#ffffff" fill-rule="evenodd" stroke="none"/>
    </g>
    <g id="shape7" transform="matrix(1.0, 0.0, 0.0, 1.0, -0.45, 35.1)">
      <path d="M33.1 -33.55 L38.8 -33.6 46.55 -33.45 44.75 -25.25 43.3 -18.75 42.0 -13.2 40.65 -7.6 39.05 -1.1 35.2 -0.6 31.4 -0.25 28.45 0.0 27.3 0.1 26.1 -3.35 24.85 -6.7 23.9 -9.15 23.5 -10.15 23.05 -8.75 21.8 -5.2 20.2 -0.25 16.1 -0.35 12.35 -0.55 9.55 -0.7 8.45 -0.8 7.25 -5.2 5.65 -11.4 3.8 -18.55 2.0 -25.8 0.45 -32.3 5.7 -33.45 10.5 -34.35 13.95 -34.9 15.25 -35.1 15.55 -33.8 16.3 -30.3 17.4 -25.35 18.65 -19.7 19.25 -20.8 20.75 -23.55 22.85 -27.05 23.65 -26.0 25.55 -23.4 27.65 -20.05 28.65 -24.5 29.7 -28.85 30.5 -32.15 30.85 -33.45 33.1 -33.55" fill="#ffffff" fill-rule="evenodd" stroke="none"/>
    </g>
    <g id="shape8" transform="matrix(1.0, 0.0, 0.0, 1.0, -1.0, 34.8)">
      <path d="M3.0 -0.15 Q2.1 -1.15 1.95 -2.55 1.85 -3.95 2.6 -5.1 3.4 -6.3 4.75 -7.05 6.15 -7.8 7.95 -7.95 L11.2 -7.55 Q12.7 -7.0 13.65 -6.0 14.6 -4.95 14.7 -3.55 14.8 -2.2 14.0 -1.0 13.25 0.15 11.85 0.95 10.5 1.7 8.7 1.85 L5.45 1.45 Q3.95 0.9 3.0 -0.15 M15.85 -34.05 L15.7 -26.0 15.45 -18.15 15.1 -9.9 11.0 -9.65 6.45 -9.4 2.8 -9.2 1.3 -9.1 1.1 -17.85 1.0 -26.55 1.05 -34.8 6.45 -34.65 11.2 -34.4 14.55 -34.2 15.85 -34.05" fill="#ffffff" fill-rule="evenodd" stroke="none"/>
    </g>
  </defs>
</svg>
