<?xml version="1.0" encoding="UTF-8" standalone="no"?>
<svg xmlns:xlink="http://www.w3.org/1999/xlink" height="72.65px" width="13.75px" xmlns="http://www.w3.org/2000/svg">
  <g transform="matrix(1.0, 0.0, 0.0, 1.0, 6.05, 10.4)">
    <use height="72.65" transform="matrix(1.0, 0.0, 0.0, 1.0, -6.05, -10.4)" width="13.75" xlink:href="#shape0"/>
  </g>
  <defs>
    <g id="shape0" transform="matrix(1.0, 0.0, 0.0, 1.0, 6.05, 10.4)">
      <path d="M6.45 6.3 L-0.55 -8.5 -4.8 6.9 -3.25 6.8 Q-2.6 4.85 -2.25 2.9 L-1.75 0.9 -1.65 0.45 -1.7 -0.2 -1.6 -0.65 -0.85 -3.0 -0.9 -3.6 Q0.65 -3.55 1.6 -1.8 L5.55 6.35 6.45 6.3 M0.7 62.25 L-0.25 62.25 -1.0 7.7 -5.45 7.9 -5.8 7.85 -6.0 7.6 -6.0 7.3 -1.2 -10.05 -1.05 -10.3 -0.75 -10.4 -0.45 -10.35 -0.25 -10.15 7.65 6.5 7.7 6.85 7.5 7.1 7.25 7.25 1.5 7.6 2.45 62.25 1.45 62.25 0.4 0.1 -0.1 0.1 0.05 7.15 0.0 7.25 0.7 62.25" fill="#996600" fill-rule="evenodd" stroke="none"/>
      <path d="M0.7 62.25 L0.0 7.25 0.05 7.15 -0.1 0.1 0.4 0.1 1.45 62.25 0.7 62.25" fill="#cccc00" fill-rule="evenodd" stroke="none"/>
      <path d="M6.45 6.3 L5.55 6.35 1.6 -1.8 Q0.65 -3.55 -0.9 -3.6 L-0.85 -3.0 -1.6 -0.65 -1.7 -0.2 -1.65 0.45 -1.75 0.9 -2.25 2.9 Q-2.6 4.85 -3.25 6.8 L-4.8 6.9 -0.55 -8.5 6.45 6.3" fill="#e7c654" fill-rule="evenodd" stroke="none"/>
    </g>
  </defs>
</svg>
