<?xml version="1.0" encoding="UTF-8" standalone="no"?>
<svg xmlns:xlink="http://www.w3.org/1999/xlink" height="34.15px" width="48.45px" xmlns="http://www.w3.org/2000/svg">
  <g transform="matrix(1.0, 0.0, 0.0, 1.0, 8.15, 0.7)">
    <use height="21.9" transform="matrix(1.0, 0.0, 0.0, 1.0, 0.8, 11.55)" width="32.7" xlink:href="#shape0"/>
    <clipPath id="clipPath0" transform="matrix(1.0, 0.0, 0.0, 1.0, 8.15, 0.7)">
      <use height="19.15" transform="matrix(1.0, 0.0, 0.0, 1.0, -1.6, 8.6)" width="35.9" xlink:href="#shape1"/>
    </clipPath>
    <g clip-path="url(#clipPath0)">
      <use height="70.5" transform="matrix(0.45, 0.0, 0.0, 0.45, -8.1748, -0.7224)" width="107.7" xlink:href="#shape2"/>
    </g>
    <use height="19.15" transform="matrix(1.0, 0.0, 0.0, 1.0, -1.6, 8.6)" width="35.9" xlink:href="#shape3"/>
  </g>
  <defs>
    <g id="shape0" transform="matrix(1.0, 0.0, 0.0, 1.0, -0.8, -11.55)">
      <path d="M20.5 30.8 Q14.45 32.85 9.05 31.25 L2.3 23.6 32.0 13.05 31.3 24.95 Q26.6 28.8 20.5 30.8" fill="#896f69" fill-rule="evenodd" stroke="none"/>
      <path d="M20.5 30.8 Q26.6 28.8 31.3 24.95 L32.0 13.05 2.3 23.6 9.05 31.25 Q14.45 32.85 20.5 30.8 Z" fill="none" stroke="#332e27" stroke-linecap="round" stroke-linejoin="round" stroke-width="3.0"/>
      <path d="M11.75 31.5 L7.9 26.1" fill="none" stroke="#332e27" stroke-linecap="round" stroke-linejoin="round" stroke-width="1.0"/>
      <path d="M14.65 31.7 L12.2 26.75" fill="none" stroke="#332e27" stroke-linecap="round" stroke-linejoin="round" stroke-width="1.0"/>
      <path d="M19.4 30.8 L17.8 25.85" fill="none" stroke="#332e27" stroke-linecap="round" stroke-linejoin="round" stroke-width="1.0"/>
      <path d="M24.1 29.0 L23.45 23.85" fill="none" stroke="#332e27" stroke-linecap="round" stroke-linejoin="round" stroke-width="1.0"/>
      <path d="M27.95 20.45 L27.95 26.55" fill="none" stroke="#332e27" stroke-linecap="round" stroke-linejoin="round" stroke-width="1.0"/>
      <path d="M29.5 19.1 L29.5 25.65" fill="none" stroke="#332e27" stroke-linecap="round" stroke-linejoin="round" stroke-width="1.0"/>
    </g>
    <g id="shape1" transform="matrix(1.0, 0.0, 0.0, 1.0, 1.6, -8.6)">
      <path d="M20.1 9.65 Q23.5 9.45 24.85 10.8 25.75 10.1 27.1 10.1 28.45 10.1 29.35 11.25 31.6 10.8 32.5 11.9 L33.3 13.15 Q33.35 13.6 32.25 14.4 29.8 16.15 29.1 16.2 32.25 17.1 29.8 19.1 27.3 21.1 24.85 20.45 26.4 22.7 25.05 23.8 23.7 24.95 21.45 22.7 21.9 24.7 19.65 25.6 17.4 26.5 15.4 24.5 14.95 26.5 12.7 26.75 10.45 26.95 9.1 24.7 8.2 26.75 6.4 26.75 4.6 26.75 4.35 24.5 3.25 25.85 1.9 25.4 0.55 24.95 0.75 24.05 -0.6 24.5 -0.6 22.9 -0.6 21.9 -0.05 21.4 L1.45 20.2 Q2.8 19.1 3.9 18.85 4.15 16.65 8.85 13.5 13.6 10.35 14.5 11.45 16.75 9.9 20.1 9.65" fill="#000000" fill-rule="evenodd" stroke="none"/>
      <path d="M20.1 9.65 Q16.75 9.9 14.5 11.45 13.6 10.35 8.85 13.5 4.15 16.65 3.9 18.85 2.8 19.1 1.45 20.2 L-0.05 21.4 Q-0.6 21.9 -0.6 22.9 -0.6 24.5 0.75 24.05 0.55 24.95 1.9 25.4 3.25 25.85 4.35 24.5 4.6 26.75 6.4 26.75 8.2 26.75 9.1 24.7 10.45 26.95 12.7 26.75 14.95 26.5 15.4 24.5 17.4 26.5 19.65 25.6 21.9 24.7 21.45 22.7 23.7 24.95 25.05 23.8 26.4 22.7 24.85 20.45 27.3 21.1 29.8 19.1 32.25 17.1 29.1 16.2 29.8 16.15 32.25 14.4 33.35 13.6 33.3 13.15 L32.5 11.9 Q31.6 10.8 29.35 11.25 28.45 10.1 27.1 10.1 25.75 10.1 24.85 10.8 23.5 9.45 20.1 9.65 Z" fill="none" stroke="#483527" stroke-linecap="round" stroke-linejoin="round" stroke-width="2.0"/>
    </g>
    <g id="shape2" transform="matrix(1.0, 0.0, 0.0, 1.0, 54.5, 42.05)">
      <path d="M8.35 -19.0 Q0.85 -18.5 -4.15 -15.0 -6.15 -17.5 -16.65 -10.5 -27.15 -3.5 -27.65 1.5 -30.15 2.0 -33.15 4.5 L-36.5 7.1 Q-37.65 8.25 -37.65 10.5 -37.65 14.0 -34.65 13.0 -35.15 15.0 -32.15 16.0 -29.15 17.0 -26.65 14.0 -26.15 19.0 -22.15 19.0 -18.15 19.0 -16.15 14.5 -13.15 19.5 -8.15 19.0 -3.15 18.5 -2.15 14.0 2.35 18.5 7.35 16.5 12.35 14.5 11.35 10.0 16.35 15.0 19.35 12.5 22.35 10.0 18.85 5.0 24.35 6.5 29.85 2.0 35.35 -2.5 28.35 -4.5 29.85 -4.55 35.35 -8.5 37.75 -10.2 37.65 -11.25 37.6 -11.8 35.85 -14.0 33.85 -16.5 28.85 -15.5 26.85 -18.0 23.85 -18.0 20.85 -18.0 18.85 -16.5 15.85 -19.5 8.35 -19.0 Z" fill="none" stroke="#483527" stroke-linecap="round" stroke-linejoin="round" stroke-width="2.0"/>
      <path d="M8.35 -19.0 Q0.85 -18.5 -4.15 -15.0 -6.15 -17.5 -16.65 -10.5 -27.15 -3.5 -27.65 1.5 -30.15 2.0 -33.15 4.5 L-36.5 7.1 Q-37.65 8.25 -37.65 10.5 -37.65 14.0 -34.65 13.0 -35.15 15.0 -32.15 16.0 -29.15 17.0 -26.65 14.0 -26.15 19.0 -22.15 19.0 -18.15 19.0 -16.15 14.5 -13.15 19.5 -8.15 19.0 -3.15 18.5 -2.15 14.0 2.35 18.5 7.35 16.5 12.35 14.5 11.35 10.0 16.35 15.0 19.35 12.5 22.35 10.0 18.85 5.0 24.35 6.5 29.85 2.0 35.35 -2.5 28.35 -4.5 29.85 -4.55 35.35 -8.5 37.75 -10.2 37.65 -11.25 37.6 -11.8 35.85 -14.0 33.85 -16.5 28.85 -15.5 26.85 -18.0 23.85 -18.0 20.85 -18.0 18.85 -16.5 15.85 -19.5 8.35 -19.0" fill="#6f4f34" fill-rule="evenodd" stroke="none"/>
      <path d="M7.55 -27.4 Q0.05 -26.9 -4.95 -23.4 -6.95 -25.9 -17.45 -18.9 -27.95 -11.9 -28.45 -6.9 -30.95 -6.4 -33.95 -3.9 L-37.3 -1.3 Q-38.45 -0.15 -38.45 2.1 -38.45 5.6 -35.45 4.6 -35.95 6.6 -32.95 7.6 -29.95 8.6 -27.45 5.6 -26.95 10.6 -22.95 10.6 -18.95 10.6 -16.95 6.1 -13.95 11.1 -8.95 10.6 -3.95 10.1 -2.95 5.6 1.55 10.1 6.55 8.1 11.55 6.1 10.55 1.6 15.55 6.6 18.55 4.1 21.55 1.6 18.05 -3.4 23.55 -1.9 29.05 -6.4 34.55 -10.9 27.55 -12.9 29.1 -13.0 34.55 -16.9 36.95 -18.6 36.85 -19.65 36.8 -20.2 35.05 -22.4 33.05 -24.9 28.05 -23.9 26.05 -26.4 23.05 -26.4 20.05 -26.4 18.05 -24.9 15.05 -27.9 7.55 -27.4" fill="#e3b892" fill-rule="evenodd" stroke="none"/>
      <path d="M28.2 -22.3 Q26.2 -24.8 23.2 -24.8 20.2 -24.8 18.2 -23.3 15.2 -26.3 7.7 -25.8 0.2 -25.3 -4.8 -21.8 -6.8 -24.3 -17.3 -17.3 -27.8 -10.3 -28.3 -5.3 -30.8 -4.8 -33.8 -2.3 L-37.15 0.3 Q-38.3 1.45 -38.3 3.7 -38.3 7.2 -35.3 6.2 -35.8 8.2 -32.8 9.2 -29.8 10.2 -27.3 7.2 -26.8 12.2 -22.8 12.2 -18.8 12.2 -16.8 7.7 -13.8 12.7 -8.8 12.2 -3.8 11.7 -2.8 7.2 1.7 11.7 6.7 9.7 11.7 7.7 10.7 3.2 15.7 8.2 18.7 5.7 21.7 3.2 18.2 -1.8 23.7 -0.3 29.2 -4.8 34.7 -9.3 27.7 -11.3 29.25 -11.4 34.7 -15.3 37.1 -17.0 37.0 -18.05 L35.2 -20.8 Q33.2 -23.3 28.2 -22.3 Z" fill="none" stroke="#e3b892" stroke-linecap="round" stroke-linejoin="round" stroke-width="32.4"/>
      <path d="M7.85 -24.2 Q0.35 -23.7 -4.65 -20.2 -6.65 -22.7 -17.15 -15.7 -27.65 -8.7 -28.15 -3.7 -30.65 -3.2 -33.65 -0.7 L-37.0 1.9 Q-38.15 3.05 -38.15 5.3 -38.15 8.8 -35.15 7.8 -35.65 9.8 -32.65 10.8 -29.65 11.8 -27.15 8.8 -26.65 13.8 -22.65 13.8 -18.65 13.8 -16.65 9.3 -13.65 14.3 -8.65 13.8 -3.65 13.3 -2.65 8.8 1.85 13.3 6.85 11.3 11.85 9.3 10.85 4.8 15.85 9.8 18.85 7.3 21.85 4.8 18.35 -0.2 23.85 1.3 29.35 -3.2 34.85 -7.7 27.85 -9.7 29.4 -9.75 34.85 -13.7 37.25 -15.4 37.15 -16.45 37.1 -17.0 35.35 -19.2 33.35 -21.7 28.35 -20.7 26.35 -23.2 23.35 -23.2 20.35 -23.2 18.35 -21.7 15.35 -24.7 7.85 -24.2 Z" fill="none" stroke="#e3b892" stroke-linecap="round" stroke-linejoin="round" stroke-width="24.75"/>
      <path d="M7.9 -23.75 Q0.4 -23.25 -4.6 -19.75 -6.6 -22.25 -17.1 -15.25 -27.6 -8.25 -28.1 -3.25 -30.6 -2.75 -33.6 -0.25 L-36.95 2.35 Q-38.1 3.5 -38.1 5.75 -38.1 9.25 -35.1 8.25 -35.6 10.25 -32.6 11.25 -29.6 12.25 -27.1 9.25 -26.6 14.25 -22.6 14.25 -18.6 14.25 -16.6 9.75 -13.6 14.75 -8.6 14.25 -3.6 13.75 -2.6 9.25 1.9 13.75 6.9 11.75 11.9 9.75 10.9 5.25 15.9 10.25 18.9 7.75 21.9 5.25 18.4 0.25 23.9 1.75 29.4 -2.75 34.9 -7.25 27.9 -9.25 29.4 -9.35 34.9 -13.25 37.3 -14.95 37.2 -16.0 37.15 -16.55 35.4 -18.75 33.4 -21.25 28.4 -20.25 26.4 -22.75 23.4 -22.75 20.4 -22.75 18.4 -21.25 15.4 -24.25 7.9 -23.75 Z" fill="none" stroke="#dbb089" stroke-linecap="round" stroke-linejoin="round" stroke-width="22.8"/>
      <path d="M7.95 -23.35 Q0.45 -22.85 -4.55 -19.35 -6.55 -21.85 -17.05 -14.85 -27.55 -7.85 -28.05 -2.85 -30.55 -2.35 -33.55 0.15 L-36.9 2.75 Q-38.05 3.9 -38.05 6.15 -38.05 9.65 -35.05 8.65 -35.55 10.65 -32.55 11.65 -29.55 12.65 -27.05 9.65 -26.55 14.65 -22.55 14.65 -18.55 14.65 -16.55 10.15 -13.55 15.15 -8.55 14.65 -3.55 14.15 -2.55 9.65 1.95 14.15 6.95 12.15 11.95 10.15 10.95 5.65 15.95 10.65 18.95 8.15 21.95 5.65 18.45 0.65 23.95 2.15 29.45 -2.35 34.95 -6.85 27.95 -8.85 29.45 -8.95 34.95 -12.85 37.35 -14.55 37.25 -15.6 37.2 -16.15 35.45 -18.35 33.45 -20.85 28.45 -19.85 26.45 -22.35 23.45 -22.35 20.45 -22.35 18.45 -20.85 15.45 -23.85 7.95 -23.35 Z" fill="none" stroke="#d3a881" stroke-linecap="round" stroke-linejoin="round" stroke-width="20.85"/>
      <path d="M7.95 -22.95 Q0.45 -22.45 -4.55 -18.95 -6.55 -21.45 -17.05 -14.45 -27.55 -7.45 -28.05 -2.45 -30.55 -1.95 -33.55 0.55 L-36.9 3.15 Q-38.05 4.3 -38.05 6.55 -38.05 10.05 -35.05 9.05 -35.55 11.05 -32.55 12.05 -29.55 13.05 -27.05 10.05 -26.55 15.05 -22.55 15.05 -18.55 15.05 -16.55 10.55 -13.55 15.55 -8.55 15.05 -3.55 14.55 -2.55 10.05 1.95 14.55 6.95 12.55 11.95 10.55 10.95 6.05 15.95 11.05 18.95 8.55 21.95 6.05 18.45 1.05 23.95 2.55 29.45 -1.95 34.95 -6.45 27.95 -8.45 29.5 -8.55 34.95 -12.45 37.35 -14.15 37.25 -15.2 37.2 -15.75 35.45 -17.95 33.45 -20.45 28.45 -19.45 26.45 -21.95 23.45 -21.95 20.45 -21.95 18.45 -20.45 15.45 -23.45 7.95 -22.95 Z" fill="none" stroke="#caa078" stroke-linecap="round" stroke-linejoin="round" stroke-width="18.85"/>
      <path d="M8.0 -22.55 Q0.5 -22.05 -4.5 -18.55 -6.5 -21.05 -17.0 -14.05 -27.5 -7.05 -28.0 -2.05 -30.5 -1.55 -33.5 0.95 L-36.85 3.55 Q-38.0 4.7 -38.0 6.95 -38.0 10.45 -35.0 9.45 -35.5 11.45 -32.5 12.45 -29.5 13.45 -27.0 10.45 -26.5 15.45 -22.5 15.45 -18.5 15.45 -16.5 10.95 -13.5 15.95 -8.5 15.45 -3.5 14.95 -2.5 10.45 2.0 14.95 7.0 12.95 12.0 10.95 11.0 6.45 16.0 11.45 19.0 8.95 22.0 6.45 18.5 1.45 24.0 2.95 29.5 -1.55 35.0 -6.05 28.0 -8.05 29.55 -8.1 35.0 -12.05 37.4 -13.75 37.3 -14.8 L35.5 -17.55 Q33.5 -20.05 28.5 -19.05 26.5 -21.55 23.5 -21.55 20.5 -21.55 18.5 -20.05 15.5 -23.05 8.0 -22.55 Z" fill="none" stroke="#c29870" stroke-linecap="round" stroke-linejoin="round" stroke-width="16.900000000000002"/>
      <path d="M8.05 -22.1 Q0.55 -21.6 -4.45 -18.1 -6.45 -20.6 -16.95 -13.6 -27.45 -6.6 -27.95 -1.6 -30.45 -1.1 -33.45 1.4 L-36.8 4.0 Q-37.95 5.15 -37.95 7.4 -37.95 10.9 -34.95 9.9 -35.45 11.9 -32.45 12.9 -29.45 13.9 -26.95 10.9 -26.45 15.9 -22.45 15.9 -18.45 15.9 -16.45 11.4 -13.45 16.4 -8.45 15.9 -3.45 15.4 -2.45 10.9 2.05 15.4 7.05 13.4 12.05 11.4 11.05 6.9 16.05 11.9 19.05 9.4 22.05 6.9 18.55 1.9 24.05 3.4 29.55 -1.1 35.05 -5.6 28.05 -7.6 29.55 -7.7 35.05 -11.6 37.45 -13.3 37.35 -14.35 37.3 -14.9 35.55 -17.1 33.55 -19.6 28.55 -18.6 26.55 -21.1 23.55 -21.1 20.55 -21.1 18.55 -19.6 15.55 -22.6 8.05 -22.1 Z" fill="none" stroke="#ba8f67" stroke-linecap="round" stroke-linejoin="round" stroke-width="14.950000000000001"/>
      <path d="M8.1 -21.7 Q0.6 -21.2 -4.4 -17.7 -6.4 -20.2 -16.9 -13.2 -27.4 -6.2 -27.9 -1.2 -30.4 -0.7 -33.4 1.8 L-36.75 4.4 Q-37.9 5.55 -37.9 7.8 -37.9 11.3 -34.9 10.3 -35.4 12.3 -32.4 13.3 -29.4 14.3 -26.9 11.3 -26.4 16.3 -22.4 16.3 -18.4 16.3 -16.4 11.8 -13.4 16.8 -8.4 16.3 -3.4 15.8 -2.4 11.3 2.1 15.8 7.1 13.8 12.1 11.8 11.1 7.3 16.1 12.3 19.1 9.8 22.1 7.3 18.6 2.3 24.1 3.8 29.6 -0.7 35.1 -5.2 28.1 -7.2 29.6 -7.3 35.1 -11.2 37.5 -12.9 37.4 -13.95 37.35 -14.5 35.6 -16.7 33.6 -19.2 28.6 -18.2 26.6 -20.7 23.6 -20.7 20.6 -20.7 18.6 -19.2 15.6 -22.2 8.1 -21.7 Z" fill="none" stroke="#b1875e" stroke-linecap="round" stroke-linejoin="round" stroke-width="13.0"/>
      <path d="M8.1 -21.3 Q0.6 -20.8 -4.4 -17.3 -6.4 -19.8 -16.9 -12.8 -27.4 -5.8 -27.9 -0.8 -30.4 -0.3 -33.4 2.2 L-36.75 4.8 Q-37.9 5.95 -37.9 8.2 -37.9 11.7 -34.9 10.7 -35.4 12.7 -32.4 13.7 -29.4 14.7 -26.9 11.7 -26.4 16.7 -22.4 16.7 -18.4 16.7 -16.4 12.2 -13.4 17.2 -8.4 16.7 -3.4 16.2 -2.4 11.7 2.1 16.2 7.1 14.2 12.1 12.2 11.1 7.7 16.1 12.7 19.1 10.2 22.1 7.7 18.6 2.7 24.1 4.2 29.6 -0.3 35.1 -4.8 28.1 -6.8 29.65 -6.9 35.1 -10.8 37.5 -12.5 37.4 -13.55 37.35 -14.1 35.6 -16.3 33.6 -18.8 28.6 -17.8 26.6 -20.3 23.6 -20.3 20.6 -20.3 18.6 -18.8 15.6 -21.8 8.1 -21.3 Z" fill="none" stroke="#a97f56" stroke-linecap="round" stroke-linejoin="round" stroke-width="11.0"/>
      <path d="M8.15 -20.85 Q0.65 -20.35 -4.35 -16.85 -6.35 -19.35 -16.85 -12.35 -27.35 -5.35 -27.85 -0.35 -30.35 0.15 -33.35 2.65 L-36.7 5.25 Q-37.85 6.4 -37.85 8.65 -37.85 12.15 -34.85 11.15 -35.35 13.15 -32.35 14.15 -29.35 15.15 -26.85 12.15 -26.35 17.15 -22.35 17.15 -18.35 17.15 -16.35 12.65 -13.35 17.65 -8.35 17.15 -3.35 16.65 -2.35 12.15 2.15 16.65 7.15 14.65 12.15 12.65 11.15 8.15 16.15 13.15 19.15 10.65 22.15 8.15 18.65 3.15 24.15 4.65 29.65 0.15 35.15 -4.35 28.15 -6.35 29.7 -6.4 35.15 -10.35 37.55 -12.05 37.45 -13.1 37.4 -13.65 35.65 -15.85 33.65 -18.35 28.65 -17.35 26.65 -19.85 23.65 -19.85 20.65 -19.85 18.65 -18.35 15.65 -21.35 8.15 -20.85 Z" fill="none" stroke="#9e754f" stroke-linecap="round" stroke-linejoin="round" stroke-width="8.8"/>
      <path d="M8.2 -20.35 Q0.7 -19.85 -4.3 -16.35 -6.3 -18.85 -16.8 -11.85 -27.3 -4.85 -27.8 0.15 -30.3 0.65 -33.3 3.15 L-36.65 5.75 Q-37.8 6.9 -37.8 9.15 -37.8 12.65 -34.8 11.65 -35.3 13.65 -32.3 14.65 -29.3 15.65 -26.8 12.65 -26.3 17.65 -22.3 17.65 -18.3 17.65 -16.3 13.15 -13.3 18.15 -8.3 17.65 -3.3 17.15 -2.3 12.65 2.2 17.15 7.2 15.15 12.2 13.15 11.2 8.65 16.2 13.65 19.2 11.15 22.2 8.65 18.7 3.65 24.2 5.15 29.7 0.65 35.2 -3.85 28.2 -5.85 29.75 -5.95 35.2 -9.85 37.6 -11.55 37.5 -12.6 37.45 -13.15 35.7 -15.35 33.7 -17.85 28.7 -16.85 26.7 -19.35 23.7 -19.35 20.7 -19.35 18.7 -17.85 15.7 -20.85 8.2 -20.35 Z" fill="none" stroke="#926c48" stroke-linecap="round" stroke-linejoin="round" stroke-width="6.6000000000000005"/>
      <path d="M8.25 -19.9 Q0.75 -19.4 -4.25 -15.9 -6.25 -18.4 -16.75 -11.4 -27.25 -4.4 -27.75 0.6 -30.25 1.1 -33.25 3.6 L-36.6 6.2 Q-37.75 7.35 -37.75 9.6 -37.75 13.1 -34.75 12.1 -35.25 14.1 -32.25 15.1 -29.25 16.1 -26.75 13.1 -26.25 18.1 -22.25 18.1 -18.25 18.1 -16.25 13.6 -13.25 18.6 -8.25 18.1 -3.25 17.6 -2.25 13.1 2.25 17.6 7.25 15.6 12.25 13.6 11.25 9.1 16.25 14.1 19.25 11.6 22.25 9.1 18.75 4.1 24.25 5.6 29.75 1.1 35.25 -3.4 28.25 -5.4 29.75 -5.5 35.25 -9.4 37.65 -11.1 37.55 -12.15 37.5 -12.7 35.75 -14.9 33.75 -17.4 28.75 -16.4 26.75 -18.9 23.75 -18.9 20.75 -18.9 18.75 -17.4 15.75 -20.4 8.25 -19.9 Z" fill="none" stroke="#866241" stroke-linecap="round" stroke-linejoin="round" stroke-width="4.4"/>
      <path d="M8.3 -19.45 Q0.8 -18.95 -4.2 -15.45 -6.2 -17.95 -16.7 -10.95 -27.2 -3.95 -27.7 1.05 -30.2 1.55 -33.2 4.05 L-36.55 6.65 Q-37.7 7.8 -37.7 10.05 -37.7 13.55 -34.7 12.55 -35.2 14.55 -32.2 15.55 -29.2 16.55 -26.7 13.55 -26.2 18.55 -22.2 18.55 -18.2 18.55 -16.2 14.05 -13.2 19.05 -8.2 18.55 -3.2 18.05 -2.2 13.55 2.3 18.05 7.3 16.05 12.3 14.05 11.3 9.55 16.3 14.55 19.3 12.05 22.3 9.55 18.8 4.55 24.3 6.05 29.8 1.55 35.3 -2.95 28.3 -4.95 29.8 -5.05 35.3 -8.95 37.7 -10.65 37.6 -11.7 37.55 -12.25 35.8 -14.45 33.8 -16.95 28.8 -15.95 26.8 -18.45 23.8 -18.45 20.8 -18.45 18.8 -16.95 15.8 -19.95 8.3 -19.45 Z" fill="none" stroke="#7b583b" stroke-linecap="round" stroke-linejoin="round" stroke-width="2.2"/>
    </g>
    <g id="shape3" transform="matrix(1.0, 0.0, 0.0, 1.0, 1.6, -8.6)">
      <path d="M20.1 9.65 Q16.75 9.9 14.5 11.45 13.6 10.35 8.85 13.5 4.15 16.65 3.9 18.85 2.8 19.1 1.45 20.2 L-0.05 21.4 Q-0.6 21.9 -0.6 22.9 -0.6 24.5 0.75 24.05 0.55 24.95 1.9 25.4 3.25 25.85 4.35 24.5 4.6 26.75 6.4 26.75 8.2 26.75 9.1 24.7 10.45 26.95 12.7 26.75 14.95 26.5 15.4 24.5 17.4 26.5 19.65 25.6 21.9 24.7 21.45 22.7 23.7 24.95 25.05 23.8 26.4 22.7 24.85 20.45 27.3 21.1 29.8 19.1 32.25 17.1 29.1 16.2 29.8 16.15 32.25 14.4 33.35 13.6 33.3 13.15 L32.5 11.9 Q31.6 10.8 29.35 11.25 28.45 10.1 27.1 10.1 25.75 10.1 24.85 10.8 23.5 9.45 20.1 9.65 Z" fill="none" stroke="#483527" stroke-linecap="round" stroke-linejoin="round" stroke-width="2.0"/>
      <path d="M16.0 19.45 Q16.0 18.85 16.6 18.4 17.15 18.0 17.95 18.0 18.7 18.0 19.3 18.4 19.85 18.85 19.85 19.45 19.85 20.05 19.3 20.5 18.7 20.9 17.95 20.9 17.15 20.9 16.6 20.5 16.0 20.05 16.0 19.45" fill="url(#gradient0)" fill-rule="evenodd" stroke="none"/>
      <path d="M9.05 19.55 Q9.05 20.1 9.45 20.5 9.9 20.9 10.5 20.9 11.1 20.9 11.55 20.5 11.95 20.1 11.95 19.55 11.95 19.0 11.55 18.6 11.1 18.2 10.5 18.2 9.9 18.2 9.45 18.6 9.05 19.0 9.05 19.55" fill="url(#gradient1)" fill-rule="evenodd" stroke="none"/>
      <path d="M5.0 20.35 Q5.0 20.85 5.35 21.2 5.7 21.6 6.25 21.6 6.75 21.6 7.1 21.2 L7.45 20.35 Q7.45 19.8 7.1 19.45 6.75 19.1 6.25 19.1 5.7 19.1 5.35 19.45 5.0 19.8 5.0 20.35" fill="url(#gradient2)" fill-rule="evenodd" stroke="none"/>
      <path d="M8.6 15.4 Q8.6 16.0 9.0 16.45 9.45 16.85 10.05 16.85 10.65 16.85 11.1 16.45 11.5 16.0 11.5 15.4 11.5 14.8 11.1 14.35 L10.05 13.95 Q9.45 13.95 9.0 14.35 8.6 14.8 8.6 15.4" fill="url(#gradient3)" fill-rule="evenodd" stroke="none"/>
      <path d="M10.8 12.65 L11.65 13.25 12.95 13.05 Q13.6 12.75 13.95 12.2 14.3 11.65 14.1 11.2 13.85 10.75 13.25 10.6 L11.9 10.8 10.9 11.65 Q10.55 12.2 10.8 12.65" fill="url(#gradient4)" fill-rule="evenodd" stroke="none"/>
      <path d="M17.8 10.9 Q17.8 11.3 18.4 11.6 L19.75 11.9 21.1 11.6 Q21.65 11.3 21.65 10.9 21.65 10.5 21.1 10.15 L19.75 9.9 18.4 10.15 Q17.8 10.5 17.8 10.9" fill="url(#gradient5)" fill-rule="evenodd" stroke="none"/>
      <path d="M14.9 13.25 Q14.9 13.8 15.3 14.2 15.75 14.6 16.35 14.6 16.95 14.6 17.4 14.2 17.8 13.8 17.8 13.25 17.8 12.7 17.4 12.3 16.95 11.9 16.35 11.9 15.75 11.9 15.3 12.3 14.9 12.7 14.9 13.25" fill="url(#gradient6)" fill-rule="evenodd" stroke="none"/>
      <path d="M20.75 13.8 Q20.75 14.35 21.2 14.7 21.65 15.05 22.3 15.05 22.95 15.05 23.4 14.7 23.9 14.35 23.9 13.8 23.9 13.3 23.4 12.95 22.95 12.6 22.3 12.6 21.65 12.6 21.2 12.95 20.75 13.3 20.75 13.8" fill="url(#gradient7)" fill-rule="evenodd" stroke="none"/>
      <path d="M22.3 17.4 Q22.5 17.85 23.05 18.0 L24.2 17.95 25.15 17.25 Q25.45 16.8 25.3 16.35 L24.55 15.75 23.4 15.8 22.5 16.5 Q22.15 16.95 22.3 17.4" fill="url(#gradient8)" fill-rule="evenodd" stroke="none"/>
      <path d="M26.1 12.8 L27.15 13.05 28.2 12.8 28.6 12.15 Q28.6 11.75 28.2 11.5 L27.15 11.25 26.1 11.5 Q25.7 11.75 25.7 12.15 L26.1 12.8" fill="url(#gradient9)" fill-rule="evenodd" stroke="none"/>
    </g>
    <radialGradient cx="0" cy="0" gradientTransform="matrix(0.0027, 0.0, 0.0, 0.0027, 17.75, 18.8)" gradientUnits="userSpaceOnUse" id="gradient0" r="819.2" spreadMethod="pad">
      <stop offset="0.0" stop-color="#8856ae"/>
      <stop offset="0.18823529411764706" stop-color="#8856ae"/>
      <stop offset="0.6705882352941176" stop-color="#4b2c58"/>
      <stop offset="1.0" stop-color="#4b2c58"/>
    </radialGradient>
    <radialGradient cx="0" cy="0" gradientTransform="matrix(0.0024, 0.0, 0.0, 0.0024, 10.35, 18.95)" gradientUnits="userSpaceOnUse" id="gradient1" r="819.2" spreadMethod="pad">
      <stop offset="0.0" stop-color="#8856ae"/>
      <stop offset="0.18823529411764706" stop-color="#8856ae"/>
      <stop offset="0.6705882352941176" stop-color="#4b2c58"/>
      <stop offset="1.0" stop-color="#4b2c58"/>
    </radialGradient>
    <radialGradient cx="0" cy="0" gradientTransform="matrix(0.0022, 0.0, 0.0, 0.0022, 6.1, 19.8)" gradientUnits="userSpaceOnUse" id="gradient2" r="819.2" spreadMethod="pad">
      <stop offset="0.0" stop-color="#8856ae"/>
      <stop offset="0.18823529411764706" stop-color="#8856ae"/>
      <stop offset="0.6705882352941176" stop-color="#4b2c58"/>
      <stop offset="1.0" stop-color="#4b2c58"/>
    </radialGradient>
    <radialGradient cx="0" cy="0" gradientTransform="matrix(0.0026, 0.0, 0.0, 0.0026, 9.9, 14.75)" gradientUnits="userSpaceOnUse" id="gradient3" r="819.2" spreadMethod="pad">
      <stop offset="0.0" stop-color="#8856ae"/>
      <stop offset="0.18823529411764706" stop-color="#8856ae"/>
      <stop offset="0.6705882352941176" stop-color="#4b2c58"/>
      <stop offset="1.0" stop-color="#4b2c58"/>
    </radialGradient>
    <radialGradient cx="0" cy="0" gradientTransform="matrix(0.0025, 0.0, 0.0, 0.0025, 12.3, 11.3)" gradientUnits="userSpaceOnUse" id="gradient4" r="819.2" spreadMethod="pad">
      <stop offset="0.0" stop-color="#8856ae"/>
      <stop offset="0.18823529411764706" stop-color="#8856ae"/>
      <stop offset="0.6705882352941176" stop-color="#4b2c58"/>
      <stop offset="1.0" stop-color="#4b2c58"/>
    </radialGradient>
    <radialGradient cx="0" cy="0" gradientTransform="matrix(0.0026, 0.0, 0.0, 0.0026, 19.55, 10.45)" gradientUnits="userSpaceOnUse" id="gradient5" r="819.2" spreadMethod="pad">
      <stop offset="0.0" stop-color="#8856ae"/>
      <stop offset="0.18823529411764706" stop-color="#8856ae"/>
      <stop offset="0.6705882352941176" stop-color="#4b2c58"/>
      <stop offset="1.0" stop-color="#4b2c58"/>
    </radialGradient>
    <radialGradient cx="0" cy="0" gradientTransform="matrix(0.0024, 0.0, 0.0, 0.0024, 16.2, 12.65)" gradientUnits="userSpaceOnUse" id="gradient6" r="819.2" spreadMethod="pad">
      <stop offset="0.0" stop-color="#8856ae"/>
      <stop offset="0.18823529411764706" stop-color="#8856ae"/>
      <stop offset="0.6705882352941176" stop-color="#4b2c58"/>
      <stop offset="1.0" stop-color="#4b2c58"/>
    </radialGradient>
    <radialGradient cx="0" cy="0" gradientTransform="matrix(0.0022, 0.0, 0.0, 0.0022, 22.15, 13.3)" gradientUnits="userSpaceOnUse" id="gradient7" r="819.2" spreadMethod="pad">
      <stop offset="0.0" stop-color="#8856ae"/>
      <stop offset="0.18823529411764706" stop-color="#8856ae"/>
      <stop offset="0.6705882352941176" stop-color="#4b2c58"/>
      <stop offset="1.0" stop-color="#4b2c58"/>
    </radialGradient>
    <radialGradient cx="0" cy="0" gradientTransform="matrix(0.0021, 0.0, 0.0, 0.0021, 23.65, 16.35)" gradientUnits="userSpaceOnUse" id="gradient8" r="819.2" spreadMethod="pad">
      <stop offset="0.0" stop-color="#8856ae"/>
      <stop offset="0.18823529411764706" stop-color="#8856ae"/>
      <stop offset="0.6705882352941176" stop-color="#4b2c58"/>
      <stop offset="1.0" stop-color="#4b2c58"/>
    </radialGradient>
    <radialGradient cx="0" cy="0" gradientTransform="matrix(0.002, 0.0, 0.0, 0.002, 27.0, 11.7)" gradientUnits="userSpaceOnUse" id="gradient9" r="819.2" spreadMethod="pad">
      <stop offset="0.0" stop-color="#8856ae"/>
      <stop offset="0.18823529411764706" stop-color="#8856ae"/>
      <stop offset="0.6705882352941176" stop-color="#4b2c58"/>
      <stop offset="1.0" stop-color="#4b2c58"/>
    </radialGradient>
  </defs>
</svg>
