<?xml version="1.0" encoding="UTF-8" standalone="no"?>
<svg xmlns:xlink="http://www.w3.org/1999/xlink" height="113.85px" width="277.15px" xmlns="http://www.w3.org/2000/svg">
  <g transform="matrix(1.0, 0.0, 0.0, 1.0, 31.3, 0.0)">
    <use height="113.15" transform="matrix(1.0, 0.0, 0.0, 1.0, -31.3, 0.7)" width="277.15" xlink:href="#sprite0"/>
    <use height="17.0" transform="matrix(1.0, 0.0, 0.0, 1.0, 25.55, 9.55)" width="8.0" xlink:href="#sprite2"/>
    <use height="17.0" transform="matrix(1.0, 0.0, 0.0, 1.0, 29.4, 30.4)" width="8.0" xlink:href="#sprite3"/>
    <use height="0.0" transform="matrix(1.0, 0.0, 0.0, 1.0, 19.85, 16.85)" width="0.0" xlink:href="#sprite4"/>
  </g>
  <defs>
    <g id="sprite0" transform="matrix(1.0, 0.0, 0.0, 1.0, 35.15, 0.15)">
      <use height="100.0" id="boundingBox_mc" transform="matrix(0.16, 0.0, 0.0, 0.16, 0.0, 0.0)" width="100.0" xlink:href="#sprite1"/>
    </g>
    <g id="sprite1" transform="matrix(1.0, 0.0, 0.0, 1.0, 0.0, 0.0)">
      <use height="100.0" transform="matrix(1.0, 0.0, 0.0, 1.0, 0.0, 0.0)" width="100.0" xlink:href="#shape0"/>
    </g>
    <g id="shape0" transform="matrix(1.0, 0.0, 0.0, 1.0, 0.0, 0.0)">
      <path d="M100.0 100.0 L0.0 100.0 0.0 0.0 100.0 0.0 100.0 100.0" fill="#ffffff" fill-rule="evenodd" stroke="none"/>
      <path d="M100.0 100.0 L0.0 100.0 0.0 0.0 100.0 0.0 100.0 100.0 Z" fill="none" stroke="#666666" stroke-linecap="round" stroke-linejoin="round" stroke-width="0.05"/>
    </g>
  </defs>
</svg>
