<?xml version="1.0" encoding="UTF-8" standalone="no"?>
<svg xmlns:xlink="http://www.w3.org/1999/xlink" height="38.0px" width="36.7px" xmlns="http://www.w3.org/2000/svg">
  <g transform="matrix(1.0, 0.0, 0.0, 1.0, 18.35, 19.0)">
    <use height="38.0" transform="matrix(1.0, 0.0, 0.0, 1.0, -18.35, -19.0)" width="36.7" xlink:href="#shape0"/>
  </g>
  <defs>
    <g id="shape0" transform="matrix(1.0, 0.0, 0.0, 1.0, 18.35, 19.0)">
      <path d="M-18.3 -17.5 L-16.9 10.1 15.65 16.75 Q14.8 12.0 13.4 7.55 9.6 -5.2 2.2 -15.6 L-18.3 -17.5" fill="#878743" fill-rule="evenodd" stroke="none"/>
      <path d="M-16.9 10.1 L-16.85 11.8 18.35 19.0 Q17.0 13.2 15.1 7.6 10.75 -5.15 3.35 -17.2 L-18.35 -19.0 -18.3 -17.5 2.2 -15.6 Q9.6 -5.2 13.4 7.55 14.8 12.0 15.65 16.75 L-16.9 10.1" fill="#333300" fill-rule="evenodd" stroke="none"/>
    </g>
  </defs>
</svg>
