<?xml version="1.0" encoding="UTF-8" standalone="no"?>
<svg xmlns:xlink="http://www.w3.org/1999/xlink" height="315.2px" width="236.15px" xmlns="http://www.w3.org/2000/svg">
  <g transform="matrix(1.0, 0.0, 0.0, 1.0, 125.0, 291.2)">
    <clipPath id="clipPath0" transform="matrix(1.0, 0.0, 0.0, 1.0, 125.0, 291.2)">
      <use height="147.1" transform="matrix(1.0, 0.0, 0.0, 1.0, -27.55, -123.1)" width="55.75" xlink:href="#shape0"/>
    </clipPath>
    <g clip-path="url(#clipPath0)">
      <use height="148.05" transform="matrix(1.0, 0.0, 0.0, 1.0, -27.55, -124.05)" width="55.8" xlink:href="#shape1"/>
    </g>
    <use height="52.9" transform="matrix(0.0, -0.7442, 0.7442, 0.0, -21.7853, -118.4888)" width="61.25" xlink:href="#sprite0"/>
  </g>
  <defs>
    <g id="shape0" transform="matrix(1.0, 0.0, 0.0, 1.0, 27.55, 123.1)">
      <path d="M-24.3 -56.55 L-20.0 -120.95 -19.25 -120.95 Q-1.95 -125.95 15.25 -119.45 L22.55 -56.75 Q-0.9 -63.45 -24.3 -56.55 M24.1 -42.8 L28.0 -6.2 Q29.35 7.55 20.6 16.05 16.8 19.8 11.5 21.85 6.45 23.85 0.8 24.0 -4.8 24.15 -10.0 22.45 -15.35 20.65 -19.3 17.05 -28.35 8.9 -27.5 -5.45 L-25.2 -42.8 Q-0.55 -50.3 24.1 -42.8" fill="#ffffff" fill-rule="evenodd" stroke="none"/>
      <path d="M-24.3 -56.55 Q-0.9 -63.45 22.55 -56.75 L24.1 -42.8 Q-0.55 -50.3 -25.2 -42.8 L-24.3 -56.55" fill="#ff0000" fill-rule="evenodd" stroke="none"/>
    </g>
    <g id="shape1" transform="matrix(1.0, 0.0, 0.0, 1.0, 27.55, 124.05)">
      <path d="M-24.3 -56.55 L-20.0 -120.95 -19.25 -120.95 Q-1.95 -125.95 15.25 -119.45 L22.55 -56.75 Q-0.9 -63.45 -24.3 -56.55 M24.1 -42.8 L28.0 -6.2 Q29.35 7.55 20.6 16.05 16.8 19.8 11.5 21.85 6.45 23.85 0.8 24.0 -4.8 24.15 -10.0 22.45 -15.35 20.65 -19.3 17.05 -28.35 8.9 -27.5 -5.45 L-25.2 -42.8 Q-0.55 -50.3 24.1 -42.8" fill="#ffffff" fill-rule="evenodd" stroke="none"/>
      <path d="M-24.3 -56.55 Q-0.9 -63.45 22.55 -56.75 L24.1 -42.8 Q-0.55 -50.3 -25.2 -42.8 L-24.3 -56.55" fill="#ff0000" fill-rule="evenodd" stroke="none"/>
      <path d="M10.45 -78.1 L7.55 -81.45 3.4 -79.95 5.7 -83.75 3.0 -87.25 7.3 -86.2 9.8 -89.9 10.15 -85.45 14.4 -84.2 10.35 -82.5 10.45 -78.1" fill="#1e1fad" fill-rule="evenodd" stroke="none"/>
      <path d="M3.05 -106.4 L6.5 -105.55 8.5 -108.5 8.75 -104.95 12.15 -103.95 8.9 -102.65 9.0 -99.1 6.7 -101.75 3.35 -100.6 5.2 -103.6 3.05 -106.4" fill="#b43534" fill-rule="evenodd" stroke="none"/>
      <path d="M-8.3 -96.1 L-11.2 -99.45 -15.35 -97.95 -13.05 -101.75 -15.75 -105.25 -11.45 -104.2 -8.95 -107.9 -8.6 -103.45 -4.35 -102.2 -8.4 -100.5 -8.3 -96.1" fill="#1e1fad" fill-rule="evenodd" stroke="none"/>
      <path d="M5.95 -112.25 L3.05 -115.6 -1.1 -114.1 1.2 -117.9 -1.5 -121.4 2.8 -120.35 5.3 -124.05 5.65 -119.6 9.9 -118.35 5.85 -116.65 5.95 -112.25" fill="#1e1fad" fill-rule="evenodd" stroke="none"/>
      <path d="M-14.35 -111.65 L-16.5 -115.0 -19.55 -113.5 -17.85 -117.3 -19.85 -120.8 -16.7 -119.75 -14.85 -123.45 -14.6 -119.0 -11.45 -117.75 -14.45 -116.05 -14.35 -111.65" fill="#1e1fad" fill-rule="evenodd" stroke="none"/>
      <path d="M-18.25 -78.1 L-20.1 -81.45 -22.75 -79.95 -21.25 -83.75 -23.0 -87.25 -20.25 -86.2 -18.65 -89.9 -18.4 -85.45 -15.7 -84.2 -18.3 -82.5 -18.25 -78.1" fill="#1e1fad" fill-rule="evenodd" stroke="none"/>
      <path d="M-22.0 -58.6 L-23.85 -61.95 -26.5 -60.45 -25.0 -64.25 -26.75 -67.75 -24.0 -66.7 -22.4 -70.4 -22.15 -65.95 -19.45 -64.7 -22.05 -63.0 -22.0 -58.6" fill="#1e1fad" fill-rule="evenodd" stroke="none"/>
      <path d="M22.95 -67.6 L21.1 -70.95 18.45 -69.45 19.95 -73.25 18.2 -76.75 20.95 -75.7 22.55 -79.4 22.8 -74.95 25.5 -73.7 22.9 -72.0 22.95 -67.6" fill="#1e1fad" fill-rule="evenodd" stroke="none"/>
      <path d="M-15.15 -90.45 L-11.7 -89.6 -9.7 -92.55 -9.45 -89.0 -6.05 -88.0 -9.3 -86.7 -9.2 -83.15 -11.5 -85.8 -14.85 -84.65 -13.0 -87.65 -15.15 -90.45" fill="#b43534" fill-rule="evenodd" stroke="none"/>
      <path d="M-12.55 -68.9 L-9.1 -68.05 -7.1 -71.0 -6.85 -67.45 -3.45 -66.45 -6.7 -65.15 -6.6 -61.6 -8.9 -64.25 -12.25 -63.1 -10.4 -66.1 -12.55 -68.9" fill="#b43534" fill-rule="evenodd" stroke="none"/>
      <path d="M11.95 -69.45 L14.3 -68.6 15.7 -71.55 15.9 -68.0 18.2 -67.0 15.95 -65.7 16.05 -62.15 14.45 -64.8 12.15 -63.65 13.45 -66.65 11.95 -69.45" fill="#b43534" fill-rule="evenodd" stroke="none"/>
      <path d="M12.65 -94.95 L14.55 -94.1 15.6 -97.05 15.75 -93.5 17.6 -92.5 15.85 -91.2 15.9 -87.65 14.65 -90.3 12.85 -89.15 13.85 -92.15 12.65 -94.95" fill="#b43534" fill-rule="evenodd" stroke="none"/>
      <path d="M-23.0 -98.7 L-21.1 -97.85 -20.05 -100.8 -19.9 -97.25 -18.05 -96.25 -19.8 -94.95 -19.75 -91.4 -21.0 -94.05 -22.8 -92.9 -21.8 -95.9 -23.0 -98.7" fill="#b43534" fill-rule="evenodd" stroke="none"/>
      <path d="M7.0 -122.7 Q11.35 -122.0 15.65 -120.35 18.75 -99.25 22.15 -62.35 24.15 -40.7 27.6 -13.4 28.55 -5.8 28.1 0.7 27.1 14.5 15.6 19.25 -0.3 25.85 -11.8 20.9 -23.05 16.1 -26.65 1.95 L15.95 -2.1 16.0 -2.2 7.0 -122.7" fill="url(#gradient0)" fill-rule="evenodd" stroke="none"/>
    </g>
    <linearGradient gradientTransform="matrix(-0.0091, 6.0E-4, -9.0E-4, -0.0132, 19.5, -56.65)" gradientUnits="userSpaceOnUse" id="gradient0" spreadMethod="pad" x1="-819.2" x2="819.2">
      <stop offset="0.0" stop-color="#000000" stop-opacity="0.5019608"/>
      <stop offset="1.0" stop-color="#000000" stop-opacity="0.0"/>
    </linearGradient>
    <g id="sprite0" transform="matrix(1.0, 0.0, 0.0, 1.0, 30.65, 26.45)">
      <use height="52.9" transform="matrix(1.0, 0.0, 0.0, 1.0, -30.65, -26.45)" width="61.25" xlink:href="#shape2"/>
    </g>
    <g id="shape2" transform="matrix(1.0, 0.0, 0.0, 1.0, 30.65, 26.45)">
      <path d="M4.9 -12.65 L4.95 -12.55 Q7.35 -9.2 8.65 -5.4 L9.4 -3.5 9.4 -3.45 9.3 -3.35 9.95 0.3 10.05 1.65 Q10.1 3.6 9.5 5.4 L9.6 5.5 9.7 5.6 9.95 6.05 10.15 6.85 19.25 6.45 Q21.35 5.1 23.75 4.2 24.95 3.7 26.2 3.55 L26.55 3.55 26.7 3.55 Q30.9 3.6 30.6 7.7 30.5 9.35 29.4 10.6 L29.3 10.7 29.25 10.7 29.1 10.8 29.05 10.9 29.0 10.95 28.95 11.05 28.65 11.35 28.15 11.7 Q29.6 12.9 28.6 15.1 28.35 15.65 27.75 15.9 L23.7 16.9 22.75 16.95 Q21.55 17.05 20.45 17.6 L10.7 22.7 Q4.65 25.9 -2.15 26.35 -9.7 26.85 -16.65 24.35 -18.5 23.7 -19.95 22.45 -21.85 21.85 -22.4 19.5 -22.65 18.4 -22.0 17.45 L-21.1 16.35 Q-21.85 16.35 -22.75 15.55 L-25.25 12.95 Q-28.05 9.75 -29.55 5.75 L-29.65 5.55 -29.75 5.45 Q-31.65 -0.75 -29.55 -6.9 L-29.1 -8.3 -28.95 -8.5 -28.85 -8.6 -28.05 -10.75 -28.0 -10.85 -23.45 -18.75 -22.95 -19.75 -20.8 -24.0 Q-20.25 -25.15 -19.95 -26.4 L-19.8 -26.45 -19.75 -26.4 -19.65 -26.45 Q-16.0 -23.4 -11.25 -24.55 L-11.1 -24.75 -10.85 -25.0 -10.7 -25.05 -10.55 -25.1 -10.2 -24.9 -10.1 -24.9 -10.05 -24.7 -10.05 -24.5 -10.45 -24.25 -13.8 -19.95 Q-11.25 -21.8 -9.0 -23.9 L-9.05 -23.95 -8.75 -24.25 -8.55 -24.35 -3.9 -24.45 -3.45 -24.3 -3.4 -24.2 -3.35 -23.95 -3.4 -23.65 Q-6.4 -21.7 -8.85 -19.15 L-9.05 -18.95 -7.55 -19.1 Q-0.55 -18.65 3.8 -13.6 L4.9 -12.65 M5.75 4.7 Q3.15 -0.5 3.0 -6.3 L3.0 -8.0 1.65 -8.1 1.45 -8.35 1.5 -8.45 1.5 -8.55 1.55 -8.6 1.65 -8.7 1.7 -8.7 2.8 -8.9 3.05 -8.95 3.05 -9.35 Q3.15 -10.9 4.1 -11.8 L3.75 -12.15 3.55 -12.35 3.5 -12.45 3.5 -12.55 3.45 -12.6 3.45 -12.65 2.85 -13.3 2.75 -13.4 1.3 -14.7 -0.8 -16.35 Q-5.65 -18.8 -11.0 -17.85 L-11.1 -17.95 -11.1 -18.05 -11.1 -18.1 -11.0 -18.2 -10.95 -18.3 -10.2 -18.65 -10.2 -18.75 Q-8.85 -20.7 -6.9 -22.2 L-6.4 -22.7 Q-7.65 -22.55 -8.45 -23.25 -8.65 -22.55 -9.5 -21.9 -11.8 -20.05 -14.4 -18.75 L-14.85 -18.7 -14.9 -18.65 Q-15.15 -18.65 -15.25 -18.9 L-15.25 -19.0 Q-14.1 -21.45 -12.3 -23.5 -14.95 -22.75 -18.0 -23.95 L-19.45 -25.05 -19.7 -24.45 -19.8 -24.35 -19.75 -24.25 -19.75 -24.05 Q-22.95 -17.35 -26.7 -10.9 L-26.8 -10.7 -27.85 -8.9 Q-30.55 -2.55 -28.95 4.2 L-27.85 7.25 Q-25.35 12.55 -20.55 15.85 -18.55 14.2 -15.55 14.3 L-9.95 14.4 -10.95 14.05 -11.35 13.85 Q-12.45 13.25 -13.35 12.2 -15.25 10.05 -16.25 7.55 -17.4 4.8 -17.5 1.55 -17.55 -1.4 -16.6 -4.05 -15.6 -7.85 -12.05 -9.55 -11.7 -9.5 -11.65 -9.1 L-11.65 -9.05 -12.5 -8.3 -10.45 -7.65 -9.45 -8.1 -8.55 -8.45 Q-8.05 -8.5 -7.8 -8.15 L-7.75 -8.05 -7.75 -7.95 -7.8 -7.8 -7.9 -7.7 -9.4 -7.1 -8.25 -6.35 Q-5.7 -4.45 -4.3 -1.05 -3.0 2.15 -2.25 5.5 -1.7 7.9 -2.0 10.25 L-1.0 9.15 0.85 7.4 Q3.05 5.55 5.8 4.8 L5.75 4.7 M4.7 -11.1 L4.65 -11.15 4.55 -11.05 4.2 -8.75 Q5.6 -8.4 6.7 -7.65 L4.7 -11.1 M4.3 -7.7 L4.1 -7.75 4.1 -7.7 4.05 -6.05 Q4.05 -3.75 4.6 -1.45 L5.2 -1.85 5.6 -1.8 5.8 -1.8 Q7.1 -0.6 7.65 0.85 L6.35 1.85 6.3 1.9 6.25 2.0 6.3 2.1 8.05 2.25 7.95 4.6 8.75 4.85 Q9.3 0.85 8.3 -3.05 L7.75 -4.85 7.6 -5.35 Q6.4 -7.0 4.3 -7.7 M-2.9 20.85 L-2.55 20.85 0.6 20.65 Q7.45 19.75 13.65 15.9 L19.2 12.2 Q22.15 10.05 25.6 9.1 L26.6 9.5 26.65 9.55 24.7 10.4 27.1 10.9 27.3 10.95 27.5 11.1 Q29.85 9.4 29.55 6.65 29.3 4.35 26.85 4.75 L23.75 5.35 23.4 5.45 Q21.5 6.15 19.85 7.2 L19.25 7.55 Q16.75 9.1 14.75 11.35 13.8 12.15 12.85 12.1 14.6 9.9 16.75 8.2 L9.45 7.75 Q8.45 7.5 7.9 6.8 L8.0 6.5 8.2 6.35 9.15 6.6 8.95 6.35 8.5 6.1 8.55 5.9 8.0 5.55 7.35 5.65 7.1 5.7 6.95 5.7 Q2.4 6.45 -0.75 10.0 L-1.4 10.75 -2.35 11.85 -2.45 11.95 Q-6.85 16.4 -13.3 15.25 -16.2 14.7 -18.9 15.8 L-18.95 15.9 -19.0 16.0 -19.05 16.1 Q-20.4 16.5 -21.1 17.75 L-21.7 19.3 -21.6 19.5 -21.4 20.05 -21.35 20.25 Q-20.55 21.25 -19.4 21.65 -19.0 21.8 -18.7 22.1 L-18.65 22.2 -18.6 22.25 Q-8.5 27.1 3.05 24.5 9.85 22.95 15.65 18.95 20.2 15.85 25.55 15.3 L27.05 15.15 27.9 14.75 28.1 14.45 28.1 14.25 28.15 13.95 28.2 13.8 Q28.0 12.35 26.6 11.85 L26.5 11.8 24.1 11.45 22.4 11.5 21.35 12.05 Q17.45 14.05 13.85 16.55 L11.1 18.2 Q2.5 22.9 -7.3 21.65 -11.35 21.15 -14.2 18.3 L-14.7 18.15 -16.05 19.3 -16.65 19.8 -16.8 19.8 Q-17.1 19.8 -17.25 19.6 L-17.3 19.5 Q-16.85 17.85 -15.2 17.1 -14.25 16.65 -13.3 16.55 -11.35 16.3 -10.25 17.75 L-10.2 17.85 -10.3 17.95 -10.35 18.05 -10.4 18.1 -10.55 18.1 Q-12.2 17.35 -13.55 17.65 -12.55 18.05 -11.65 18.9 -10.1 20.3 -8.05 20.55 L-2.9 20.85 M-14.2 -12.45 L-14.2 -12.35 -14.25 -12.15 -14.45 -11.95 Q-16.85 -11.75 -18.05 -9.45 L-18.4 -8.95 -18.65 -7.35 Q-18.7 -6.4 -19.4 -5.9 -20.2 -7.25 -19.4 -9.05 -18.15 -11.85 -15.3 -12.95 -14.6 -13.1 -14.25 -12.5 L-14.2 -12.45 M-13.35 -7.45 Q-15.6 -5.05 -16.3 -2.0 -14.75 -5.25 -11.4 -7.15 L-13.15 -7.4 -13.35 -7.45 M-9.35 -5.85 L-10.45 -6.65 -10.85 -6.45 Q-14.75 -4.1 -16.1 0.15 L-16.6 1.4 -16.35 3.95 -16.3 4.25 Q-15.75 6.9 -14.4 9.2 -12.4 12.65 -8.7 14.15 L-8.65 14.35 -7.6 14.0 -5.35 12.9 -4.75 12.5 -4.7 12.4 -2.45 10.45 Q-2.55 4.65 -4.9 0.0 -6.25 -2.7 -8.3 -4.85 L-9.35 -5.85" fill="#000000" fill-rule="evenodd" stroke="none"/>
      <path d="M-26.8 -10.7 L-26.7 -10.9 Q-22.95 -17.35 -19.75 -24.05 L-19.75 -24.25 -19.8 -24.35 -19.7 -24.45 -19.45 -25.05 -18.0 -23.95 Q-14.95 -22.75 -12.3 -23.5 -14.1 -21.45 -15.25 -19.0 L-15.25 -18.9 Q-15.15 -18.65 -14.9 -18.65 L-14.85 -18.7 -14.4 -18.75 Q-11.8 -20.05 -9.5 -21.9 -8.65 -22.55 -8.45 -23.25 -7.65 -22.55 -6.4 -22.7 L-6.9 -22.2 Q-8.85 -20.7 -10.2 -18.75 L-10.2 -18.65 -10.95 -18.3 -11.0 -18.2 -11.1 -18.1 -11.1 -18.05 -11.1 -17.95 -11.0 -17.85 Q-5.65 -18.8 -0.8 -16.35 L1.3 -14.7 2.75 -13.4 2.85 -13.3 3.45 -12.65 3.45 -12.6 3.5 -12.55 3.5 -12.45 3.55 -12.35 3.75 -12.15 4.1 -11.8 Q3.15 -10.9 3.05 -9.35 L3.05 -8.95 2.8 -8.9 1.7 -8.7 1.65 -8.7 1.55 -8.6 1.5 -8.55 1.5 -8.45 1.45 -8.35 1.65 -8.1 3.0 -8.0 3.0 -6.3 Q3.15 -0.5 5.75 4.7 L5.8 4.8 Q3.05 5.55 0.85 7.4 L-1.0 9.15 -2.0 10.25 Q-1.7 7.9 -2.25 5.5 -3.0 2.15 -4.3 -1.05 -5.7 -4.45 -8.25 -6.35 L-9.4 -7.1 -7.9 -7.7 -7.8 -7.8 -7.75 -7.95 -7.75 -8.05 -7.8 -8.15 Q-8.05 -8.5 -8.55 -8.45 L-9.45 -8.1 -10.45 -7.65 -12.5 -8.3 -11.65 -9.05 -11.65 -9.1 Q-11.7 -9.5 -12.05 -9.55 -15.6 -7.85 -16.6 -4.05 -17.55 -1.4 -17.5 1.55 -17.4 4.8 -16.25 7.55 -15.25 10.05 -13.35 12.2 -12.45 13.25 -11.35 13.85 -13.7 13.45 -15.9 12.7 L-18.1 11.55 -19.25 10.85 Q-20.2 10.35 -20.95 9.7 L-22.95 7.7 -23.8 6.55 -24.55 5.5 Q-25.65 4.1 -26.15 2.4 -27.45 -2.05 -27.1 -6.85 -27.0 -7.7 -27.05 -8.6 -27.1 -9.7 -26.8 -10.7 M4.55 -11.05 L4.7 -11.1 6.7 -7.65 Q5.6 -8.4 4.2 -8.75 L4.55 -11.05 M-13.35 -7.45 L-13.15 -7.4 -11.4 -7.15 Q-14.75 -5.25 -16.3 -2.0 -15.6 -5.05 -13.35 -7.45 M-14.2 -12.45 L-14.25 -12.5 Q-14.6 -13.1 -15.3 -12.95 -18.15 -11.85 -19.4 -9.05 -20.2 -7.25 -19.4 -5.9 -18.7 -6.4 -18.65 -7.35 L-18.4 -8.95 -18.05 -9.45 Q-16.85 -11.75 -14.45 -11.95 L-14.25 -12.15 -14.2 -12.35 -14.2 -12.45" fill="#55bb65" fill-rule="evenodd" stroke="none"/>
      <path d="M-26.8 -10.7 Q-27.1 -9.7 -27.05 -8.6 -27.0 -7.7 -27.1 -6.85 -27.45 -2.05 -26.15 2.4 -25.65 4.1 -24.55 5.5 L-23.8 6.55 -22.95 7.7 -20.95 9.7 Q-20.2 10.35 -19.25 10.85 L-18.1 11.55 -15.9 12.7 Q-13.7 13.45 -11.35 13.85 L-10.95 14.05 -9.95 14.4 -15.55 14.3 Q-18.55 14.2 -20.55 15.85 -25.35 12.55 -27.85 7.25 L-28.95 4.2 Q-30.55 -2.55 -27.85 -8.9 L-26.8 -10.7" fill="#43a752" fill-rule="evenodd" stroke="none"/>
      <path d="M4.1 -7.7 L4.3 -7.7 Q6.4 -7.0 7.6 -5.35 L7.75 -4.85 8.3 -3.05 7.15 -4.45 6.75 -4.75 Q5.5 -5.6 4.05 -6.05 L4.1 -7.7 M-16.35 3.95 L-16.6 1.4 -16.1 0.15 Q-14.75 -4.1 -10.85 -6.45 L-10.45 -6.65 -9.35 -5.85 -10.65 -4.85 -12.35 -3.3 -12.7 -2.9 Q-14.35 -1.1 -15.45 1.1 -16.1 2.45 -16.25 4.0 L-16.35 3.95" fill="#cccccc" fill-rule="evenodd" stroke="none"/>
      <path d="M4.3 -7.7 L4.1 -7.7 4.1 -7.75 4.3 -7.7 M4.05 -6.05 Q5.5 -5.6 6.75 -4.75 L7.15 -4.45 8.3 -3.05 Q9.3 0.85 8.75 4.85 L7.95 4.6 8.05 2.25 6.3 2.1 6.25 2.0 6.3 1.9 6.35 1.85 7.65 0.85 Q7.1 -0.6 5.8 -1.8 L5.6 -1.8 5.2 -1.85 4.6 -1.45 Q4.05 -3.75 4.05 -6.05 M-16.35 3.95 L-16.25 4.0 Q-16.1 2.45 -15.45 1.1 -14.35 -1.1 -12.7 -2.9 L-12.35 -3.3 -10.65 -4.85 -9.35 -5.85 -8.3 -4.85 Q-6.25 -2.7 -4.9 0.0 -2.55 4.65 -2.45 10.45 L-4.7 12.4 -4.75 12.5 -5.35 12.9 -7.6 14.0 -8.65 14.35 -8.7 14.15 Q-12.4 12.65 -14.4 9.2 -15.75 6.9 -16.3 4.25 L-16.35 3.95" fill="#ffffff" fill-rule="evenodd" stroke="none"/>
      <path d="M-0.75 10.0 Q2.4 6.45 6.95 5.7 L7.1 5.7 7.35 5.65 8.0 5.55 8.55 5.9 8.5 6.1 8.95 6.35 9.15 6.6 8.2 6.35 8.0 6.5 7.9 6.8 Q8.45 7.5 9.45 7.75 L16.75 8.2 Q14.6 9.9 12.85 12.1 13.8 12.15 14.75 11.35 16.75 9.1 19.25 7.55 L19.85 7.2 Q21.5 6.15 23.4 5.45 L23.75 5.35 26.85 4.75 Q29.3 4.35 29.55 6.65 29.85 9.4 27.5 11.1 L27.3 10.95 27.1 10.9 24.7 10.4 26.65 9.55 26.6 9.5 25.6 9.1 Q22.15 10.05 19.2 12.2 L13.65 15.9 Q7.45 19.75 0.6 20.65 L-2.55 20.85 -2.9 20.85 -2.9 20.8 -4.9 20.2 Q-6.5 19.65 -6.95 18.15 L-7.0 17.65 Q-6.8 16.25 -5.35 15.75 -4.35 15.35 -3.6 14.75 L-2.5 13.8 Q-1.2 12.6 -0.95 10.9 L-0.75 10.0 M24.1 11.45 L26.5 11.8 26.6 11.85 Q28.0 12.35 28.2 13.8 L28.15 13.95 28.1 14.25 28.1 14.45 27.9 14.75 27.05 15.15 25.55 15.3 25.8 14.15 25.65 13.15 Q25.25 11.95 24.1 11.45" fill="#f07942" fill-rule="evenodd" stroke="none"/>
      <path d="M-0.75 10.0 L-0.95 10.9 Q-1.2 12.6 -2.5 13.8 L-3.6 14.75 Q-4.35 15.35 -5.35 15.75 -6.8 16.25 -7.0 17.65 L-6.95 18.15 Q-6.5 19.65 -4.9 20.2 L-2.9 20.8 -2.9 20.85 -8.05 20.55 Q-10.1 20.3 -11.65 18.9 -12.55 18.05 -13.55 17.65 -12.2 17.35 -10.55 18.1 L-10.4 18.1 -10.35 18.05 -10.3 17.95 -10.2 17.85 -10.25 17.75 Q-11.35 16.3 -13.3 16.55 -14.25 16.65 -15.2 17.1 -16.85 17.85 -17.3 19.5 L-17.25 19.6 Q-17.1 19.8 -16.8 19.8 L-16.65 19.8 -16.05 19.3 -14.7 18.15 -14.2 18.3 Q-11.35 21.15 -7.3 21.65 2.5 22.9 11.1 18.2 L13.85 16.55 Q17.45 14.05 21.35 12.05 L22.4 11.5 24.1 11.45 Q25.25 11.95 25.65 13.15 L25.8 14.15 25.55 15.3 Q20.2 15.85 15.65 18.95 9.85 22.95 3.05 24.5 -8.5 27.1 -18.6 22.25 L-18.65 22.2 -18.7 22.1 Q-19.0 21.8 -19.4 21.65 -20.55 21.25 -21.35 20.25 L-21.4 20.05 -21.6 19.5 -21.7 19.3 -21.1 17.75 Q-20.4 16.5 -19.05 16.1 L-19.0 16.0 -18.95 15.9 -18.9 15.8 Q-16.2 14.7 -13.3 15.25 -6.85 16.4 -2.45 11.95 L-2.35 11.85 -1.4 10.75 -0.75 10.0" fill="#e05512" fill-rule="evenodd" stroke="none"/>
      <path d="M-6.0 1.45 Q-3.65 6.1 -3.55 11.9 L-5.8 13.85 -7.05 13.1 -7.85 12.3 -8.35 11.0 -5.3 8.75 -5.3 8.7 -5.3 8.6 -5.3 8.5 -5.85 8.4 -8.9 8.75 Q-9.2 6.5 -8.7 4.15 -8.4 2.85 -7.5 1.9 L-7.25 1.65 Q-7.1 1.45 -6.75 1.4 L-6.0 1.45" fill="#000000" fill-rule="evenodd" stroke="none"/>
    </g>
  </defs>
</svg>
