<?xml version="1.0" encoding="UTF-8" standalone="no"?>
<svg xmlns:xlink="http://www.w3.org/1999/xlink" height="315.2px" width="236.15px" xmlns="http://www.w3.org/2000/svg">
  <g transform="matrix(1.0, 0.0, 0.0, 1.0, 125.0, 291.2)">
    <clipPath id="clipPath0" transform="matrix(1.0, 0.0, 0.0, 1.0, 125.0, 291.2)">
      <use height="147.1" transform="matrix(1.0, 0.0, 0.0, 1.0, -27.55, -123.1)" width="55.75" xlink:href="#shape0"/>
    </clipPath>
    <g clip-path="url(#clipPath0)">
      <use height="148.05" transform="matrix(1.0, 0.0, 0.0, 1.0, -27.55, -124.05)" width="55.8" xlink:href="#shape1"/>
    </g>
    <use height="90.05" transform="matrix(0.8364, -2.0384, 1.6344, 0.6706, -96.744, -164.9599)" width="45.35" xlink:href="#sprite0"/>
  </g>
  <defs>
    <g id="shape0" transform="matrix(1.0, 0.0, 0.0, 1.0, 27.55, 123.1)">
      <path d="M-24.3 -56.55 L-20.0 -120.95 -19.25 -120.95 Q-1.95 -125.95 15.25 -119.45 L22.55 -56.75 Q-0.9 -63.45 -24.3 -56.55 M24.1 -42.8 L28.0 -6.2 Q29.35 7.55 20.6 16.05 16.8 19.8 11.5 21.85 6.45 23.85 0.8 24.0 -4.8 24.15 -10.0 22.45 -15.35 20.65 -19.3 17.05 -28.35 8.9 -27.5 -5.45 L-25.2 -42.8 Q-0.55 -50.3 24.1 -42.8" fill="#ffffff" fill-rule="evenodd" stroke="none"/>
      <path d="M-24.3 -56.55 Q-0.9 -63.45 22.55 -56.75 L24.1 -42.8 Q-0.55 -50.3 -25.2 -42.8 L-24.3 -56.55" fill="#ff0000" fill-rule="evenodd" stroke="none"/>
    </g>
    <g id="shape1" transform="matrix(1.0, 0.0, 0.0, 1.0, 27.55, 124.05)">
      <path d="M-24.3 -56.55 L-20.0 -120.95 -19.25 -120.95 Q-1.95 -125.95 15.25 -119.45 L22.55 -56.75 Q-0.9 -63.45 -24.3 -56.55 M24.1 -42.8 L28.0 -6.2 Q29.35 7.55 20.6 16.05 16.8 19.8 11.5 21.85 6.45 23.85 0.8 24.0 -4.8 24.15 -10.0 22.45 -15.35 20.65 -19.3 17.05 -28.35 8.9 -27.5 -5.45 L-25.2 -42.8 Q-0.55 -50.3 24.1 -42.8" fill="#ffffff" fill-rule="evenodd" stroke="none"/>
      <path d="M-24.3 -56.55 Q-0.9 -63.45 22.55 -56.75 L24.1 -42.8 Q-0.55 -50.3 -25.2 -42.8 L-24.3 -56.55" fill="#ff0000" fill-rule="evenodd" stroke="none"/>
      <path d="M10.45 -78.1 L7.55 -81.45 3.4 -79.95 5.7 -83.75 3.0 -87.25 7.3 -86.2 9.8 -89.9 10.15 -85.45 14.4 -84.2 10.35 -82.5 10.45 -78.1" fill="#1e1fad" fill-rule="evenodd" stroke="none"/>
      <path d="M3.05 -106.4 L6.5 -105.55 8.5 -108.5 8.75 -104.95 12.15 -103.95 8.9 -102.65 9.0 -99.1 6.7 -101.75 3.35 -100.6 5.2 -103.6 3.05 -106.4" fill="#b43534" fill-rule="evenodd" stroke="none"/>
      <path d="M-8.3 -96.1 L-11.2 -99.45 -15.35 -97.95 -13.05 -101.75 -15.75 -105.25 -11.45 -104.2 -8.95 -107.9 -8.6 -103.45 -4.35 -102.2 -8.4 -100.5 -8.3 -96.1" fill="#1e1fad" fill-rule="evenodd" stroke="none"/>
      <path d="M5.95 -112.25 L3.05 -115.6 -1.1 -114.1 1.2 -117.9 -1.5 -121.4 2.8 -120.35 5.3 -124.05 5.65 -119.6 9.9 -118.35 5.85 -116.65 5.95 -112.25" fill="#1e1fad" fill-rule="evenodd" stroke="none"/>
      <path d="M-14.35 -111.65 L-16.5 -115.0 -19.55 -113.5 -17.85 -117.3 -19.85 -120.8 -16.7 -119.75 -14.85 -123.45 -14.6 -119.0 -11.45 -117.75 -14.45 -116.05 -14.35 -111.65" fill="#1e1fad" fill-rule="evenodd" stroke="none"/>
      <path d="M-18.25 -78.1 L-20.1 -81.45 -22.75 -79.95 -21.25 -83.75 -23.0 -87.25 -20.25 -86.2 -18.65 -89.9 -18.4 -85.45 -15.7 -84.2 -18.3 -82.5 -18.25 -78.1" fill="#1e1fad" fill-rule="evenodd" stroke="none"/>
      <path d="M-22.0 -58.6 L-23.85 -61.95 -26.5 -60.45 -25.0 -64.25 -26.75 -67.75 -24.0 -66.7 -22.4 -70.4 -22.15 -65.95 -19.45 -64.7 -22.05 -63.0 -22.0 -58.6" fill="#1e1fad" fill-rule="evenodd" stroke="none"/>
      <path d="M22.95 -67.6 L21.1 -70.95 18.45 -69.45 19.95 -73.25 18.2 -76.75 20.95 -75.7 22.55 -79.4 22.8 -74.95 25.5 -73.7 22.9 -72.0 22.95 -67.6" fill="#1e1fad" fill-rule="evenodd" stroke="none"/>
      <path d="M-15.15 -90.45 L-11.7 -89.6 -9.7 -92.55 -9.45 -89.0 -6.05 -88.0 -9.3 -86.7 -9.2 -83.15 -11.5 -85.8 -14.85 -84.65 -13.0 -87.65 -15.15 -90.45" fill="#b43534" fill-rule="evenodd" stroke="none"/>
      <path d="M-12.55 -68.9 L-9.1 -68.05 -7.1 -71.0 -6.85 -67.45 -3.45 -66.45 -6.7 -65.15 -6.6 -61.6 -8.9 -64.25 -12.25 -63.1 -10.4 -66.1 -12.55 -68.9" fill="#b43534" fill-rule="evenodd" stroke="none"/>
      <path d="M11.95 -69.45 L14.3 -68.6 15.7 -71.55 15.9 -68.0 18.2 -67.0 15.95 -65.7 16.05 -62.15 14.45 -64.8 12.15 -63.65 13.45 -66.65 11.95 -69.45" fill="#b43534" fill-rule="evenodd" stroke="none"/>
      <path d="M12.65 -94.95 L14.55 -94.1 15.6 -97.05 15.75 -93.5 17.6 -92.5 15.85 -91.2 15.9 -87.65 14.65 -90.3 12.85 -89.15 13.85 -92.15 12.65 -94.95" fill="#b43534" fill-rule="evenodd" stroke="none"/>
      <path d="M-23.0 -98.7 L-21.1 -97.85 -20.05 -100.8 -19.9 -97.25 -18.05 -96.25 -19.8 -94.95 -19.75 -91.4 -21.0 -94.05 -22.8 -92.9 -21.8 -95.9 -23.0 -98.7" fill="#b43534" fill-rule="evenodd" stroke="none"/>
      <path d="M7.0 -122.7 Q11.35 -122.0 15.65 -120.35 18.75 -99.25 22.15 -62.35 24.15 -40.7 27.6 -13.4 28.55 -5.8 28.1 0.7 27.1 14.5 15.6 19.25 -0.3 25.85 -11.8 20.9 -23.05 16.1 -26.65 1.95 L15.95 -2.1 16.0 -2.2 7.0 -122.7" fill="url(#gradient0)" fill-rule="evenodd" stroke="none"/>
    </g>
    <linearGradient gradientTransform="matrix(-0.0091, 6.0E-4, -9.0E-4, -0.0132, 19.5, -56.65)" gradientUnits="userSpaceOnUse" id="gradient0" spreadMethod="pad" x1="-819.2" x2="819.2">
      <stop offset="0.0" stop-color="#000000" stop-opacity="0.5019608"/>
      <stop offset="1.0" stop-color="#000000" stop-opacity="0.0"/>
    </linearGradient>
    <g id="sprite0" transform="matrix(1.0, 0.0, 0.0, 1.0, 22.65, 45.0)">
      <use height="90.05" transform="matrix(1.0, 0.0, 0.0, 1.0, -22.65, -45.0)" width="45.35" xlink:href="#shape2"/>
    </g>
    <g id="shape2" transform="matrix(1.0, 0.0, 0.0, 1.0, 22.65, 45.0)">
      <path d="M-12.6 -44.25 Q-9.85 -43.05 -8.3 -40.55 L-7.9 -39.8 Q-6.85 -37.7 -7.9 -35.6 L-7.95 -34.75 Q-6.25 -30.0 -1.15 -29.35 L0.95 -28.75 Q5.65 -26.8 7.45 -22.2 L7.65 -21.2 7.55 -19.7 7.1 -17.8 Q6.9 -17.2 6.35 -16.75 3.65 -14.3 3.8 -10.7 L3.9 -9.7 Q4.15 -6.05 7.35 -4.1 8.65 -3.3 10.4 -3.4 11.15 -3.45 11.75 -3.0 L13.9 -1.7 Q16.1 -0.5 16.55 2.25 L16.9 3.3 Q18.05 5.6 16.95 7.85 15.9 9.95 15.6 11.85 15.2 14.55 16.6 16.7 L17.95 18.25 20.5 20.7 Q23.3 24.0 22.5 29.25 L21.9 30.3 18.55 33.5 17.45 34.85 Q16.6 36.25 16.85 38.8 L17.1 40.85 17.05 41.35 16.75 42.25 15.55 43.95 14.75 44.55 13.95 44.9 12.9 45.05 11.4 45.0 Q7.8 44.8 5.4 41.8 3.55 39.6 4.4 36.65 L4.55 36.5 4.45 36.45 3.55 35.65 2.95 34.8 Q2.4 33.15 2.6 31.3 L2.75 30.25 Q3.3 27.6 3.2 24.8 3.1 23.45 2.55 22.25 1.6 20.1 0.05 18.65 -1.55 17.05 -1.4 14.8 L-1.0 12.85 -0.8 11.8 Q-0.4 6.6 -3.6 2.8 L-4.15 2.4 -7.05 0.7 Q-9.4 -0.65 -10.6 -2.2 L-11.8 -4.1 Q-12.65 -5.5 -12.45 -7.2 -12.3 -8.7 -12.9 -9.8 L-13.3 -10.6 -15.75 -14.6 Q-17.1 -16.55 -18.95 -18.35 L-19.75 -19.0 Q-21.2 -20.2 -20.35 -21.7 L-19.5 -22.65 Q-18.9 -23.55 -18.85 -24.7 -18.85 -25.2 -19.25 -25.55 L-21.65 -28.15 Q-23.85 -30.7 -21.25 -32.85 L-20.45 -33.5 -19.25 -34.4 Q-18.6 -34.95 -18.25 -35.75 L-18.15 -36.7 Q-18.3 -39.45 -19.4 -41.8 L-19.6 -42.7 Q-19.6 -45.4 -16.55 -44.95 L-13.6 -44.5 -12.6 -44.25" fill="#ffffff" fill-opacity="0.12156863" fill-rule="evenodd" stroke="none"/>
    </g>
  </defs>
</svg>
