<?xml version="1.0" encoding="UTF-8" standalone="no"?>
<svg xmlns:xlink="http://www.w3.org/1999/xlink" height="163.1px" width="99.8px" xmlns="http://www.w3.org/2000/svg">
  <g transform="matrix(1.0, 0.0, 0.0, 1.0, 49.25, 79.5)">
    <use height="55.3" transform="matrix(1.0, 0.0, 0.0, 1.0, -22.2, 27.3)" width="47.5" xlink:href="#shape0"/>
    <use height="43.85" transform="matrix(1.0, 0.0, 0.0, 1.0, -19.25, -79.5)" width="40.45" xlink:href="#shape1"/>
    <use height="99.8" transform="matrix(1.0, 0.0, 0.0, 1.0, -49.25, -51.9)" width="99.8" xlink:href="#shape2"/>
  </g>
  <defs>
    <g id="shape0" transform="matrix(1.0, 0.0, 0.0, 1.0, 22.2, -27.3)">
      <path d="M2.75 28.5 L24.8 27.3 20.05 72.4 25.3 74.65 24.0 78.0 2.15 77.75 1.95 65.2 2.75 28.5" fill="#0d0f0d" fill-rule="evenodd" stroke="none"/>
      <path d="M0.45 76.35 L-3.9 82.6 -15.4 81.8 -20.9 73.6 -21.9 69.25 -17.75 66.4 -22.2 27.5 -0.15 28.7 0.6 62.6 0.45 76.35" fill="#0d0f0d" fill-rule="evenodd" stroke="none"/>
      <path d="M24.0 28.25 L24.0 28.15 24.6 28.15 24.0 28.25 19.8 66.85 11.3 66.25 2.85 66.85 3.45 30.6 24.0 28.25" fill="#261817" fill-rule="evenodd" stroke="none"/>
      <path d="M4.05 69.9 L4.05 71.1 6.45 71.1 7.1 69.9 6.45 68.7 5.25 68.7 4.05 68.7 4.05 69.9 M10.7 67.5 L9.5 67.5 8.9 68.7 9.5 69.3 10.3 69.7 8.9 69.3 2.85 74.15 2.85 67.5 11.9 66.85 19.8 67.5 19.8 72.3 10.85 69.85 11.9 69.3 11.9 67.5 10.7 67.5 M8.3 70.5 L8.9 70.5 24.6 74.75 24.0 75.95 2.85 75.35 2.85 74.15 8.3 70.5 M16.15 69.9 L16.15 70.5 17.35 71.1 18.55 70.5 19.2 69.9 18.55 68.7 17.35 68.7 16.15 68.7 16.15 69.9 M2.85 77.15 L2.85 75.95 24.0 76.55 24.0 77.15 2.85 77.15" fill="#181e16" fill-rule="evenodd" stroke="none"/>
      <path d="M4.05 69.9 L4.05 68.7 5.25 68.7 6.45 68.7 7.1 69.9 6.45 71.1 4.05 71.1 4.05 69.9 4.65 70.5 5.85 70.5 5.85 69.9 6.45 69.9 5.25 68.7 4.05 69.9 M9.5 69.3 L8.9 68.7 9.5 67.5 10.7 67.5 9.5 68.1 9.5 69.3 11.3 69.3 11.3 68.1 10.7 67.5 11.9 67.5 11.9 69.3 10.85 69.85 10.7 69.9 10.3 69.7 9.5 69.3 M17.35 68.7 L18.55 68.7 19.2 69.9 18.55 70.5 17.35 71.1 16.15 70.5 16.15 69.9 16.75 70.5 17.95 70.5 17.95 69.9 18.55 69.9 17.35 68.7 16.15 69.9 16.15 68.7 17.35 68.7" fill="#0d0f0d" fill-rule="evenodd" stroke="none"/>
      <path d="M4.05 69.9 L5.25 68.7 6.45 69.9 5.85 69.9 5.85 70.5 4.65 70.5 4.05 69.9 M9.5 69.3 L9.5 68.1 10.7 67.5 11.3 68.1 11.3 69.3 9.5 69.3 M17.35 68.7 L18.55 69.9 17.95 69.9 17.95 70.5 16.75 70.5 16.15 69.9 17.35 68.7" fill="#7e7e82" fill-rule="evenodd" stroke="none"/>
      <path d="M-7.5 63.65 L-6.7 63.25 -6.1 62.6 -6.7 61.4 -7.9 61.4 -9.1 61.4 -9.1 63.25 -8.05 63.8 -17.0 66.25 -17.0 61.4 -9.1 60.8 -0.05 61.4 -0.05 68.05 -6.1 63.25 -7.5 63.65 M-13.35 63.85 L-13.35 62.6 -14.55 62.6 -15.75 62.6 -16.4 63.85 -15.75 64.45 -14.55 65.05 -13.35 64.45 -13.35 63.85 M-1.25 63.85 L-1.25 62.6 -2.45 62.6 -3.7 62.6 -4.3 63.85 -3.7 65.05 -1.25 65.05 -1.25 63.85 M-0.95 68.6 L-0.65 76.3 -4.35 81.85 -15.4 81.15 -20.3 73.25 -21.2 69.5 -16.9 66.95 -7.1 64.6 -0.95 68.6" fill="#181e16" fill-rule="evenodd" stroke="none"/>
      <path d="M-0.65 30.55 L-0.05 60.8 -8.5 60.2 -17.0 60.8 -21.2 28.2 -21.8 28.15 -21.2 28.15 -21.2 28.2 -0.65 30.55" fill="#261817" fill-rule="evenodd" stroke="none"/>
      <path d="M-8.05 63.8 L-9.1 63.25 -9.1 61.4 -7.9 61.4 -6.7 61.4 -6.1 62.6 -6.7 63.25 -7.5 63.65 -7.9 63.85 -8.05 63.8 M-13.35 63.85 L-14.55 62.6 -15.75 63.85 -15.15 63.85 -15.15 64.45 -13.95 64.45 -13.35 63.85 -13.35 64.45 -14.55 65.05 -15.75 64.45 -16.4 63.85 -15.75 62.6 -14.55 62.6 -13.35 62.6 -13.35 63.85 M-2.45 62.6 L-1.25 62.6 -1.25 63.85 -2.45 62.6 -3.7 63.85 -3.05 63.85 -3.05 64.45 -1.85 64.45 -1.25 63.85 -1.25 65.05 -3.7 65.05 -4.3 63.85 -3.7 62.6 -2.45 62.6 M-7.9 61.4 L-8.5 62.0 -8.5 63.25 -6.7 63.25 -6.7 62.0 -7.9 61.4" fill="#0d0f0d" fill-rule="evenodd" stroke="none"/>
      <path d="M-13.35 63.85 L-13.95 64.45 -15.15 64.45 -15.15 63.85 -15.75 63.85 -14.55 62.6 -13.35 63.85 M-2.45 62.6 L-1.25 63.85 -1.85 64.45 -3.05 64.45 -3.05 63.85 -3.7 63.85 -2.45 62.6 M-7.9 61.4 L-6.7 62.0 -6.7 63.25 -8.5 63.25 -8.5 62.0 -7.9 61.4" fill="#7e7e82" fill-rule="evenodd" stroke="none"/>
    </g>
    <g id="shape1" transform="matrix(1.0, 0.0, 0.0, 1.0, 19.25, 79.5)">
      <path d="M2.75 -77.45 L2.1 -78.3 -0.9 -78.9 -0.85 -78.65 -2.75 -78.9 -7.55 -78.3 -9.05 -75.55 -9.35 -75.65 -8.15 -78.3 -8.15 -78.9 -7.55 -78.9 -2.75 -79.5 2.1 -78.9 2.7 -78.9 3.35 -77.95 2.75 -77.45 M12.85 -61.65 L13.45 -62.0 14.8 -59.55 17.25 -51.7 17.25 -51.35 18.4 -49.55 21.2 -41.7 21.2 -41.1 12.7 -37.45 7.0 -36.25 0.65 -35.65 -5.75 -35.65 -12.15 -36.85 -19.25 -40.5 -19.25 -41.1 -17.05 -50.4 -17.25 -50.5 -17.25 -51.1 -15.15 -60.7 -14.75 -60.4 -16.65 -50.5 -13.6 -48.05 -10.0 -46.85 -10.0 -47.15 -5.75 -45.65 -0.3 -45.65 4.55 -46.25 7.75 -47.45 8.15 -47.45 12.4 -48.65 14.8 -49.85 15.6 -50.45 17.25 -51.1 17.05 -51.55 17.25 -51.7 12.85 -61.65" fill="#0d0f0d" fill-rule="evenodd" stroke="none"/>
      <path d="M-0.85 -78.65 L0.4 -75.0 -0.3 -74.05 -0.9 -70.45 -0.8 -69.85 -0.9 -69.25 -0.3 -66.2 1.2 -64.35 1.5 -63.8 1.75 -63.65 2.1 -63.2 3.85 -62.15 2.1 -62.55 -2.1 -61.95 -3.35 -61.95 -3.85 -62.3 -2.75 -63.8 -2.1 -66.8 -2.75 -66.8 -2.75 -68.0 -2.75 -70.45 -3.65 -71.65 -4.55 -73.45 -6.9 -74.9 -6.35 -78.3 -7.55 -78.3 -2.75 -78.9 -0.85 -78.65 M-10.0 -54.1 L-5.75 -55.9 -1.5 -57.15 3.3 -57.15 5.75 -56.5 6.05 -56.4 6.35 -55.3 7.55 -47.45 7.75 -47.45 4.55 -46.25 -0.3 -45.65 -5.75 -45.65 -10.0 -47.15 -10.0 -54.1 M4.9 -60.6 L5.8 -57.35 3.3 -57.75 -1.5 -57.75 -5.75 -56.5 -10.0 -54.25 -10.0 -54.7 -9.35 -58.8 -8.8 -59.2 -6.95 -59.55 -4.55 -61.35 -4.3 -61.7 -3.35 -61.35 -2.1 -61.35 2.1 -61.95 3.9 -61.35 4.9 -60.6 M17.05 -51.55 L17.25 -51.1 15.6 -50.45 17.05 -51.55" fill="#f1e4e2" fill-rule="evenodd" stroke="none"/>
      <path d="M-9.05 -75.55 L-7.55 -78.3 -6.35 -78.3 -6.9 -74.9 -7.55 -75.3 -9.05 -75.55 M-10.0 -54.1 L-10.0 -47.15 -10.0 -46.85 -13.6 -48.05 -16.65 -50.5 -14.75 -60.4 -13.6 -59.55 -10.6 -58.95 -9.75 -59.05 -10.6 -58.35 -12.4 -55.3 -13.0 -52.3 -13.6 -51.1 -10.0 -54.1 M-10.0 -54.25 Q-10.85 -53.8 -11.75 -53.3 L-11.2 -55.9 -10.0 -58.35 -9.35 -58.8 -10.0 -54.7 -10.0 -54.25" fill="#f4f2f2" fill-rule="evenodd" stroke="none"/>
      <path d="M-0.85 -78.65 L-0.9 -78.9 2.1 -78.3 2.75 -77.45 1.5 -76.5 0.4 -75.0 -0.85 -78.65 M5.25 -61.3 L8.75 -60.15 12.4 -61.35 12.85 -61.65 17.25 -51.7 17.05 -51.55 15.6 -50.45 14.8 -49.85 12.4 -48.65 8.15 -47.45 7.75 -47.45 7.55 -47.45 6.35 -55.3 6.05 -56.4 11.8 -54.1 11.2 -54.7 9.95 -57.15 5.25 -61.3 M-15.15 -60.7 L-16.05 -61.35 -17.85 -63.8 -17.95 -64.35 -16.65 -62.55 -13.6 -60.75 -10.6 -60.15 -7.95 -60.7 -9.75 -59.05 -10.6 -58.95 -13.6 -59.55 -14.75 -60.4 -15.15 -60.7 M-3.85 -62.3 L-4.45 -62.75 -3.35 -65.0 -2.75 -68.0 -3.35 -71.05 -3.65 -71.65 -2.75 -70.45 -2.75 -68.0 -2.75 -66.8 -2.1 -66.8 -2.75 -63.8 -3.85 -62.3 M4.9 -60.6 L6.35 -59.55 10.6 -55.3 6.95 -57.15 5.8 -57.35 4.9 -60.6 M-8.8 -59.2 L-5.15 -61.95 -4.3 -61.7 -4.55 -61.35 -6.95 -59.55 -8.8 -59.2" fill="#c6bebe" fill-rule="evenodd" stroke="none"/>
      <path d="M16.65 -71.9 L16.65 -73.85 17.25 -72.85 17.25 -70.45 17.25 -69.25 17.85 -69.25 17.25 -66.2 15.4 -63.2 13.45 -62.0 12.85 -61.65 12.4 -61.35 8.75 -60.15 5.25 -61.3 4.55 -61.95 8.15 -61.35 11.8 -61.95 14.8 -63.8 16.65 -66.8 17.25 -70.45 16.65 -71.9 M16.05 -74.85 L15.15 -76.05 15.4 -75.9 16.05 -74.85 M3.85 -62.15 L2.1 -63.2 1.75 -63.65 4.55 -61.95 3.85 -62.15 M1.2 -64.35 L-0.3 -66.2 -0.9 -69.25 -0.8 -69.85 -0.3 -66.8 1.2 -64.35" fill="#afaaaa" fill-rule="evenodd" stroke="none"/>
      <path d="M0.4 -75.0 L1.5 -76.5 2.75 -77.45 3.35 -77.95 4.55 -78.9 8.15 -79.5 11.8 -78.9 14.8 -76.5 15.15 -76.05 16.05 -74.85 16.65 -74.05 16.65 -73.85 16.65 -71.9 16.0 -73.45 14.2 -76.5 11.8 -78.3 8.15 -78.9 4.55 -78.3 2.1 -76.5 0.3 -73.45 -0.3 -70.45 0.3 -70.45 0.3 -67.4 2.1 -64.4 4.55 -62.55 8.15 -61.95 11.8 -62.55 14.2 -64.4 16.0 -67.4 17.25 -70.45 16.65 -66.8 14.8 -63.8 11.8 -61.95 8.15 -61.35 4.55 -61.95 5.25 -61.3 9.95 -57.15 11.2 -54.7 11.8 -54.1 6.05 -56.4 5.75 -56.5 3.3 -57.15 -1.5 -57.15 -5.75 -55.9 -10.0 -54.1 -13.6 -51.1 -13.0 -52.3 -12.4 -55.3 -10.6 -58.35 -9.75 -59.05 -7.95 -60.7 -10.6 -60.15 -13.6 -60.75 -16.65 -62.55 -17.95 -64.35 -18.45 -65.0 -19.05 -68.0 -18.45 -71.05 -16.65 -73.45 -13.6 -75.3 -10.6 -75.9 -9.35 -75.65 -9.05 -75.55 -7.55 -75.3 -6.9 -74.9 -4.55 -73.45 -3.65 -71.65 -3.35 -71.05 -5.15 -73.45 -7.55 -74.65 -10.6 -75.3 -13.6 -74.65 -16.05 -73.45 -17.85 -71.05 -18.45 -68.0 -17.85 -68.0 -17.85 -65.0 -16.05 -62.55 -13.6 -61.35 -10.6 -60.75 -7.55 -61.35 -5.15 -62.55 -3.35 -65.0 -4.45 -62.75 -3.85 -62.3 -3.35 -61.95 -2.1 -61.95 2.1 -62.55 3.85 -62.15 4.55 -61.95 1.75 -63.65 1.5 -63.8 1.2 -64.35 -0.3 -66.8 -0.8 -69.85 -0.9 -70.45 -0.3 -74.05 0.4 -75.0 M5.8 -57.35 L6.95 -57.15 10.6 -55.3 6.35 -59.55 4.9 -60.6 3.9 -61.35 2.1 -61.95 -2.1 -61.35 -3.35 -61.35 -4.3 -61.7 -5.15 -61.95 -8.8 -59.2 -9.35 -58.8 -10.0 -58.35 -11.2 -55.9 -11.75 -53.3 Q-10.85 -53.8 -10.0 -54.25 L-5.75 -56.5 -1.5 -57.75 3.3 -57.75 5.8 -57.35" fill="#000000" fill-rule="evenodd" stroke="none"/>
      <path d="M17.25 -70.45 L16.0 -67.4 14.2 -64.4 11.8 -62.55 8.15 -61.95 4.55 -62.55 2.1 -64.4 0.3 -67.4 0.3 -70.45 -0.3 -70.45 0.3 -73.45 2.1 -76.5 4.55 -78.3 8.15 -78.9 11.8 -78.3 14.2 -76.5 16.0 -73.45 16.65 -71.9 17.25 -70.45 M2.1 -69.85 L1.5 -69.85 0.9 -69.25 0.9 -67.4 1.5 -66.8 2.7 -66.2 3.3 -67.4 3.3 -68.6 2.1 -69.85 M-3.35 -65.0 L-5.15 -62.55 -7.55 -61.35 -10.6 -60.75 -13.6 -61.35 -16.05 -62.55 -17.85 -65.0 -17.85 -68.0 -18.45 -68.0 -17.85 -71.05 -16.05 -73.45 -13.6 -74.65 -10.6 -75.3 -7.55 -74.65 -5.15 -73.45 -3.35 -71.05 -2.75 -68.0 -3.35 -65.0 M-5.75 -69.25 L-6.35 -69.85 -6.95 -69.85 -8.15 -68.6 -8.15 -67.4 -7.55 -66.2 -6.35 -66.8 -5.75 -67.4 -5.75 -69.25" fill="#c4e1df" fill-rule="evenodd" stroke="none"/>
      <path d="M2.1 -69.85 L3.3 -68.6 3.3 -67.4 2.7 -66.2 1.5 -66.8 0.9 -67.4 0.9 -69.25 1.5 -69.85 2.1 -69.85 M-5.75 -69.25 L-5.75 -67.4 -6.35 -66.8 -7.55 -66.2 -8.15 -67.4 -8.15 -68.6 -6.95 -69.85 -6.35 -69.85 -5.75 -69.25" fill="#383432" fill-rule="evenodd" stroke="none"/>
    </g>
    <g id="shape2" transform="matrix(1.0, 0.0, 0.0, 1.0, 49.25, 51.9)">
      <path d="M-31.85 24.35 L-31.7 27.95 -32.95 28.55 -32.95 31.6 -29.9 34.6 -29.3 34.6 -29.9 38.85 -28.1 41.25 -36.55 47.9 -46.85 38.25 -43.8 33.4 -45.0 34.0 -45.65 29.75 -46.85 30.35 -49.25 -5.9 -45.65 -28.9 -46.25 -30.1 -18.25 -47.25 -19.0 -47.65 -17.2 -51.9 -16.6 -51.9 0.95 -47.35 18.5 -51.9 19.1 -51.9 20.9 -47.65 20.25 -47.3 47.5 -30.1 46.9 -28.9 50.55 -5.9 47.55 29.0 47.5 29.15 46.9 29.15 46.3 29.15 45.7 33.4 44.5 32.8 47.5 37.65 37.25 46.7 28.75 40.05 30.6 38.25 30.0 34.0 30.6 34.0 33.6 31.0 33.6 27.95 32.4 27.35 33.1 23.1 47.5 24.95 49.95 -5.9 46.3 -27.1 33.6 -3.5 32.4 -1.7 36.05 13.45 33.2 22.55 34.8 12.85 32.4 -1.1 31.2 8.6 29.75 32.0 -28.35 32.45 -29.3 10.4 -30.5 -0.45 -32.3 14.05 -31.9 23.25 -33.55 14.65 -33.55 14.05 -30.5 -1.7 -32.3 -3.5 -45.0 -27.1 -48.65 -5.9 -46.85 25.55 -34.75 24.55 -46.25 26.15 -46.85 26.15 -46.25 29.75 -32.3 27.95 -32.9 24.4 -31.85 24.35 M16.65 -34.95 L17.9 -34.95 18.5 -33.75 26.35 -33.75 26.35 -41.6 25.15 -41.0 23.95 -42.2 24.55 -42.8 25.15 -42.8 25.95 -42.8 23.95 -44.0 23.3 -36.15 15.45 -34.95 15.8 -34.4 16.05 -34.95 16.65 -34.95 16.05 -33.75 16.65 -33.15 17.3 -33.75 17.9 -33.75 16.65 -34.95 M46.9 29.15 L47.5 25.55 46.9 25.55 33.6 23.7 33.0 26.75 46.9 29.15 M16.65 -33.15 L16.5 -33.15 18.5 -29.5 12.55 -25.25 13.05 -25.25 13.65 -24.65 13.65 -23.55 22.1 -29.5 18.2 -33.45 17.9 -33.15 16.65 -33.15 M26.35 -42.2 L25.15 -42.8 24.55 -42.2 25.15 -41.6 25.75 -42.2 26.35 -42.2 26.95 -42.2 26.35 -42.6 26.35 -42.2 M23.95 -34.35 L23.3 -34.35 22.7 -35.55 23.3 -36.15 23.95 -36.15 23.3 -35.55 23.95 -34.35 24.55 -35.55 25.15 -35.55 23.95 -36.15 25.15 -36.15 25.15 -35.55 25.15 -34.35 23.95 -34.35 M20.9 -29.5 L19.7 -30.1 19.1 -29.5 19.7 -28.9 20.3 -29.5 20.9 -29.5 M21.5 -29.5 L20.9 -28.9 19.7 -28.3 18.5 -29.5 19.7 -30.7 20.3 -30.7 21.5 -29.5 M22.1 24.3 L20.9 7.4 42.7 -31.95 42.05 -31.95 27.55 -41.6 26.95 -33.15 20.3 -33.15 23.95 -29.5 1.8 -14.4 2.15 -14.4 2.1 20.1 1.55 -12.55 -0.85 -14.4 -1.45 26.15 -19.0 24.45 -2.1 25.55 -1.45 -14.4 -22.65 -29.5 -18.4 -33.15 -25.65 -33.15 -26.25 -41.6 -40.8 -31.95 -41.4 -31.95 -19.6 7.4 -20.85 24.3 -21.45 28.55 2.15 31.0 2.15 30.75 22.7 28.55 22.1 24.3 M2.15 26.15 L19.9 24.5 2.15 26.75 2.15 26.15 M22.7 -36.75 L23.3 -44.0 19.7 -46.45 2.75 -19.2 17.9 -29.5 15.65 -33.55 15.45 -33.75 15.5 -33.8 14.85 -34.95 22.7 -36.75 M1.55 -42.2 L2.75 -41.0 2.15 -40.4 0.95 -39.8 -0.25 -40.4 -0.85 -41.0 -0.25 -41.6 0.95 -42.2 1.55 -42.2 M6.4 -40.4 L7.0 -40.4 19.7 -48.25 17.3 -50.7 2.15 -46.45 6.4 -40.4 M3.85 -37.95 L3.95 -37.95 7.8 -28.95 18.95 -46.55 6.4 -39.2 5.6 -40.15 3.85 -37.95 M0.95 -42.2 L-0.25 -41.0 0.35 -40.4 1.55 -40.4 1.55 -41.0 2.15 -41.0 0.95 -42.2 M5.2 -40.4 L0.95 -45.25 -2.7 -39.8 -0.85 -37.95 2.75 -37.95 5.2 -40.4 M2.15 -30.1 L0.95 -30.7 -0.25 -29.5 0.35 -28.9 2.15 -28.9 2.15 -30.1 M7.0 -28.9 L2.75 -37.35 -0.85 -37.35 -3.9 -28.9 0.95 -18.0 7.0 -28.9 M2.75 -28.9 L0.95 -28.3 -0.25 -28.9 -0.85 -29.5 -0.25 -30.7 0.95 -31.3 1.55 -31.3 2.75 -30.7 2.75 -28.9 M4.55 -17.4 L4.55 -17.15 13.25 -23.3 12.45 -22.85 11.25 -24.05 12.2 -25.0 3.2 -18.6 3.35 -18.6 2.75 -17.4 3.35 -17.4 3.35 -16.8 4.55 -17.4 3.35 -18.6 4.55 -18.6 4.55 -17.4 M3.35 -16.8 L2.75 -16.8 2.15 -17.4 2.5 -18.1 1.55 -17.4 1.55 -15.0 4.1 -16.8 3.35 -16.8 M12.45 -23.45 L12.45 -24.05 13.05 -24.05 12.45 -24.65 11.85 -24.05 12.45 -23.45 M15.05 -17.5 L14.85 -17.4 11.85 -18.0 15.0 -17.5 15.05 -17.5 15.75 -17.95 15.45 -18.0 21.5 -21.65 22.1 -21.65 22.1 -21.05 23.3 -21.65 23.7 -21.05 24.45 -19.8 26.35 -16.8 28.15 -16.8 27.55 -15.6 15.05 -17.5 M-16.0 -33.15 L-16.6 -33.15 -16.9 -33.45 -21.45 -29.5 1.55 -13.2 0.95 -16.8 -1.05 -18.2 -0.25 -17.4 -1.45 -16.2 -2.7 -16.8 -2.7 -17.4 -2.7 -18.0 -2.1 -18.6 -1.65 -18.6 -9.15 -23.85 -8.15 -22.85 -9.35 -21.65 -10.55 -22.25 -10.55 -22.85 -10.55 -23.45 -9.95 -24.05 -9.4 -24.05 -17.2 -29.5 -15.2 -33.15 -16.0 -33.15 -14.8 -33.75 -16.0 -34.95 -16.6 -33.75 -16.0 -33.75 -16.0 -33.15 M-16.0 -34.95 L-14.8 -34.95 -14.8 -33.9 -14.2 -34.95 -22.05 -36.15 -22.65 -44.0 -25.65 -42.2 -25.05 -42.2 -25.05 -41.0 -25.05 -33.75 -17.2 -33.75 -16.6 -34.95 -16.0 -34.95 M-10.55 -22.85 L-9.95 -22.85 -9.35 -22.25 -8.75 -22.85 -9.35 -23.45 -10.55 -22.85 M-2.7 -17.4 L-2.1 -17.4 -1.45 -16.8 -0.85 -17.4 -1.45 -18.0 -2.7 -17.4 M1.55 -8.35 L0.95 -7.75 0.35 -7.75 -0.85 -7.75 -0.85 -8.35 -0.85 -8.95 -0.25 -9.55 0.35 -9.55 1.55 -8.35 M0.95 -8.35 L0.35 -8.95 -0.85 -8.35 -0.25 -8.35 0.35 -7.75 0.95 -8.35 M0.35 -1.1 L-0.85 -1.7 -0.85 -2.3 -0.85 -2.9 -0.25 -3.5 0.35 -3.5 1.55 -2.3 0.35 -1.1 M0.35 -2.9 L-0.85 -2.3 -0.25 -2.3 0.35 -1.7 0.95 -2.3 0.35 -2.9 M38.45 -21.05 L39.65 -19.85 40.85 -20.45 40.85 -21.05 41.45 -21.05 40.85 -21.65 39.65 -22.25 38.45 -21.05 M30.6 -6.5 L32.4 -6.5 33.0 -5.3 32.4 -4.1 30.6 -3.5 29.35 -4.1 29.0 -4.85 22.1 6.8 31.8 -3.5 32.4 -3.5 41.25 -19.75 39.65 -19.2 38.45 -19.85 37.85 -21.05 38.45 -22.25 39.65 -22.85 40.25 -22.85 41.45 -22.25 42.0 -21.15 46.9 -30.1 43.9 -31.3 40.85 -27.1 34.25 -15.0 35.4 -15.6 36.05 -15.6 37.25 -15.0 37.85 -13.8 37.25 -12.55 35.4 -11.95 34.2 -12.55 33.6 -13.75 30.0 -6.5 30.6 -6.5 29.35 -5.3 30.0 -4.1 31.8 -4.1 31.8 -5.9 30.6 -6.5 M35.4 -12.55 L36.65 -13.2 36.65 -15.0 34.8 -15.0 34.2 -13.8 35.4 -12.55 M45.1 25.55 L46.3 25.55 46.9 26.75 46.3 27.95 45.1 27.95 45.7 27.35 45.7 26.75 46.3 26.75 45.1 25.55 43.9 26.75 43.9 25.55 45.1 25.55 M43.9 26.75 L45.1 27.95 43.9 27.95 43.9 26.75 M41.45 26.15 L40.85 25.55 39.65 25.55 39.05 26.15 40.25 27.35 40.85 26.75 40.85 26.15 41.45 26.15 M42.05 26.15 L41.45 27.35 40.25 27.95 39.05 27.35 38.45 26.15 39.05 25.55 40.25 24.95 40.85 24.95 42.05 26.15 M45.1 32.2 L45.1 29.75 34.8 27.95 34.2 31.0 45.1 32.2 M46.3 37.65 L43.3 32.8 34.8 31.6 30.6 34.6 31.2 37.65 33.6 38.85 37.85 37.65 37.85 35.2 39.05 38.85 37.85 38.25 33.6 40.05 31.2 38.85 30.6 40.05 37.25 45.5 46.3 37.65 M35.4 24.3 L36.05 24.3 36.65 24.95 36.65 25.55 35.4 24.3 34.2 25.55 35.4 26.75 36.05 26.15 36.05 25.55 36.65 25.55 36.65 26.75 35.4 26.75 34.2 26.75 33.6 25.55 34.2 24.95 35.4 24.3 M-0.85 3.75 L-0.85 3.15 -0.25 2.55 0.35 2.55 1.55 3.75 0.35 4.95 -0.85 4.35 -0.85 3.75 -0.25 3.75 0.35 4.35 0.95 3.75 0.35 3.15 -0.85 3.75 M0.35 11.0 L0.95 10.4 0.35 9.2 0.95 9.2 1.55 10.4 0.95 11.0 0.35 11.0 -0.85 11.0 -0.85 10.4 -0.85 9.2 0.35 9.2 -0.85 10.4 -0.25 10.4 0.35 11.0 M1.55 17.05 L0.35 17.05 -0.25 17.05 -0.85 16.45 -0.25 15.85 -0.25 15.25 0.35 15.25 1.55 15.85 1.55 17.05 M0.35 15.85 L-0.25 16.45 0.35 16.45 0.35 17.05 0.95 16.45 0.35 15.85 M-0.85 22.5 L-0.25 22.5 0.35 23.1 0.95 22.5 0.35 21.9 -0.85 22.5 -0.85 21.9 -0.25 21.3 0.35 21.3 1.55 22.5 0.35 23.7 -0.85 23.1 -0.85 22.5 M20.9 26.75 L19.7 26.15 19.1 26.75 19.7 27.35 19.1 27.35 18.5 26.75 19.7 25.55 20.3 25.55 20.9 26.15 20.9 26.75 20.9 27.35 19.7 27.35 20.3 26.75 20.9 26.75 M11.85 27.35 L11.85 26.75 13.05 26.15 13.65 26.15 13.65 26.75 14.25 27.35 13.65 27.95 13.05 27.95 13.05 27.35 13.65 27.35 13.05 26.75 11.85 27.35 13.05 27.95 11.85 27.95 11.85 27.35 M5.8 27.35 L6.4 27.35 7.0 27.95 6.4 29.15 5.8 29.15 5.8 27.95 6.4 27.95 5.8 27.35 4.55 27.95 5.8 29.15 4.55 29.15 4.55 27.95 4.55 27.35 5.8 27.35 M0.95 28.55 L-0.25 29.75 -1.45 29.15 -1.45 28.55 -1.45 27.95 -0.25 27.95 0.35 27.95 0.95 28.55 M2.75 27.95 L2.75 29.15 2.15 29.15 2.15 27.35 2.75 27.95 M-41.4 -28.3 L-42.6 -29.5 -43.8 -28.9 -43.8 -27.7 -42.6 -27.1 -41.4 -28.3 M-41.4 -29.5 L-40.8 -28.3 -41.4 -27.1 -42.6 -26.5 -43.9 -26.9 -40.75 -21.15 -40.2 -22.25 -39.0 -22.85 -38.35 -22.85 -37.15 -22.25 -36.55 -21.05 -37.15 -19.85 -38.35 -19.2 -40.0 -19.75 -31.1 -3.5 -30.5 -3.5 -20.25 6.8 -27.85 -5.2 -28.1 -4.7 -29.9 -4.1 -31.1 -4.7 -31.7 -5.9 -30.5 -7.15 -29.9 -7.15 -28.8 -6.75 -32.45 -14.1 -32.95 -13.2 -34.75 -12.55 Q-35.35 -12.9 -35.95 -13.2 L-36.55 -14.4 -35.35 -15.6 -34.75 -15.6 -32.95 -15.0 -32.9 -14.95 -39.6 -27.1 -42.6 -31.3 -45.65 -30.1 -44.4 -27.85 -44.4 -29.5 -43.2 -30.1 -42.6 -30.1 -41.4 -29.5 M-3.9 -39.2 L-13.65 -44.65 -4.8 -29.25 -2.1 -37.35 -2.0 -37.45 -3.65 -39.5 -3.9 -39.2 M-4.5 -40.4 L0.35 -46.45 -16.0 -50.05 -17.2 -48.25 -5.1 -40.4 -4.5 -40.4 M-16.85 -46.45 L-21.45 -43.4 -21.45 -36.75 -13.55 -34.95 -16.6 -29.5 -0.85 -19.2 -15.15 -45.5 -16.85 -46.45 M-17.8 -29.5 L-17.8 -28.9 -19.0 -28.3 -20.25 -29.5 -19.6 -30.1 -19.6 -30.7 -19.0 -30.7 -17.8 -30.1 -17.8 -29.5 -19.0 -30.1 -19.6 -29.5 -19.0 -29.5 -19.0 -28.9 -17.8 -29.5 M-22.65 -41.0 L-22.65 -40.4 -23.85 -39.8 -25.05 -41.0 -24.45 -41.6 -24.45 -42.2 -23.85 -42.2 -22.65 -41.6 -22.65 -41.0 -23.85 -41.6 -24.45 -41.0 -23.85 -41.0 -23.85 -40.4 -22.65 -41.0 M-23.25 -36.15 L-22.05 -36.15 -21.45 -35.55 -22.05 -34.35 -23.25 -34.35 -22.05 -35.55 -23.25 -36.15 -23.85 -35.55 -23.25 -35.55 -23.25 -34.35 -23.85 -34.35 -24.45 -35.55 -23.85 -36.15 -23.25 -36.15 M-39.6 -21.65 L-40.2 -21.05 -39.6 -21.05 -39.6 -20.45 -38.35 -19.85 -37.15 -21.05 -38.35 -22.25 -39.6 -21.65 M-35.35 -13.2 L-33.55 -13.2 -32.95 -14.4 -33.55 -15.0 -34.75 -15.6 -35.95 -14.4 -35.35 -14.4 -35.35 -13.2 M-30.5 -4.7 L-28.7 -4.7 -28.7 -6.5 -29.9 -7.15 -31.1 -5.9 -30.5 -5.9 -30.5 -4.7 M-33.55 27.35 L-34.75 27.95 -35.95 27.35 -35.95 25.55 -35.35 24.95 -34.75 24.95 -33.55 25.55 -32.95 26.75 -33.55 27.35 -33.55 25.55 -35.35 25.55 -35.35 27.35 -33.55 27.35 M-40.8 26.75 L-40.8 26.15 -40.2 25.55 -39.6 25.55 -38.35 26.15 -37.75 27.35 -38.35 27.95 -39.6 28.55 -40.8 27.95 -40.8 26.75 -40.2 26.75 -40.2 27.95 -39.0 27.95 -38.35 26.75 -39.0 26.15 -40.2 26.15 -40.8 26.75 M-34.15 28.55 L-44.4 30.35 -44.4 32.8 -33.55 31.6 -34.15 28.55 M-30.5 38.25 L-29.9 35.2 -34.15 32.2 -42.6 34.0 -45.65 38.25 -36.55 46.1 -29.9 40.65 -30.5 39.45 -32.95 40.65 -37.15 38.85 -38.35 40.05 -37.15 35.8 -37.15 38.25 -32.95 39.45 -30.5 38.25 M-1.45 28.55 L-0.85 28.55 -0.25 29.15 0.35 28.55 -0.25 27.95 -1.45 28.55 M-6.3 27.35 L-5.7 27.95 -6.9 29.15 -8.15 28.55 -8.15 27.35 -6.9 27.35 -6.3 27.35 M-6.3 27.95 L-6.9 27.35 -7.5 27.95 -6.9 27.95 -6.9 28.55 -6.3 27.95 M-14.8 27.35 L-14.2 27.35 -13.55 27.95 -12.95 27.35 -13.55 26.75 -14.8 27.35 -14.8 26.75 -13.55 26.75 -12.95 26.75 -12.35 27.35 -13.55 28.55 -14.8 27.95 -14.8 27.35 M-19.0 26.15 L-18.4 26.15 -17.8 26.75 -19.0 27.95 -20.25 27.35 -20.25 26.15 -19.0 26.15 -19.6 26.75 -19.0 26.75 -19.0 27.35 -18.4 26.75 -19.0 26.15 M-43.8 26.75 L-45.65 26.75 -45.65 28.55 -43.8 28.55 -43.8 26.75 -43.2 27.95 -43.8 28.55 -45.0 29.15 -46.25 28.55 -46.25 26.75 -45.65 26.15 -45.0 26.15 -43.8 26.75" fill="#0d0f0d" fill-rule="evenodd" stroke="none"/>
      <path d="M16.65 -34.95 L17.9 -33.75 17.3 -33.75 16.65 -33.15 16.05 -33.75 16.65 -34.95 M25.15 -42.8 L26.35 -42.2 25.75 -42.2 25.15 -41.6 24.55 -42.2 25.15 -42.8 M23.95 -34.35 L23.3 -35.55 23.95 -36.15 25.15 -35.55 24.55 -35.55 23.95 -34.35 M20.9 -29.5 L20.3 -29.5 19.7 -28.9 19.1 -29.5 19.7 -30.1 20.9 -29.5 M0.95 -42.2 L2.15 -41.0 1.55 -41.0 1.55 -40.4 0.35 -40.4 -0.25 -41.0 0.95 -42.2 M3.85 -37.95 L5.6 -40.15 6.4 -39.2 18.95 -46.55 7.8 -28.95 3.95 -37.95 3.85 -37.95 M6.4 -40.4 L2.15 -46.45 17.3 -50.7 19.7 -48.25 7.0 -40.4 6.4 -40.4 M2.15 -30.1 L2.15 -28.9 0.35 -28.9 -0.25 -29.5 0.95 -30.7 2.15 -30.1 M4.55 -17.4 L3.35 -16.8 3.35 -17.4 2.75 -17.4 3.35 -18.6 4.55 -17.4 M12.45 -23.45 L11.85 -24.05 12.45 -24.65 13.05 -24.05 12.45 -24.05 12.45 -23.45 M23.7 -21.05 L23.95 -21.05 24.45 -19.8 23.7 -21.05 M-16.0 -33.15 L-16.0 -33.75 -16.6 -33.75 -16.0 -34.95 -14.8 -33.75 -16.0 -33.15 M-10.55 -22.85 L-9.35 -23.45 -8.75 -22.85 -9.35 -22.25 -9.95 -22.85 -10.55 -22.85 M-2.7 -17.4 L-1.45 -18.0 -0.85 -17.4 -1.45 -16.8 -2.1 -17.4 -2.7 -17.4 M0.95 -8.35 L0.35 -7.75 -0.25 -8.35 -0.85 -8.35 0.35 -8.95 0.95 -8.35 M38.45 -21.05 L39.65 -22.25 40.85 -21.65 41.45 -21.05 40.85 -21.05 40.85 -20.45 39.65 -19.85 38.45 -21.05 M0.35 -2.9 L0.95 -2.3 0.35 -1.7 -0.25 -2.3 -0.85 -2.3 0.35 -2.9 M30.6 -6.5 L31.8 -5.9 31.8 -4.1 30.0 -4.1 29.35 -5.3 30.6 -6.5 M35.4 -12.55 L34.2 -13.8 34.8 -15.0 36.65 -15.0 36.65 -13.2 35.4 -12.55 M45.1 25.55 L46.3 26.75 45.7 26.75 45.7 27.35 45.1 27.95 43.9 26.75 45.1 25.55 M41.45 26.15 L40.85 26.15 40.85 26.75 40.25 27.35 39.05 26.15 39.65 25.55 40.85 25.55 41.45 26.15 M45.1 32.2 L34.2 31.0 34.8 27.95 45.1 29.75 45.1 32.2 M35.4 24.3 L36.65 25.55 36.05 25.55 36.05 26.15 35.4 26.75 34.2 25.55 35.4 24.3 M-0.85 3.75 L0.35 3.15 0.95 3.75 0.35 4.35 -0.25 3.75 -0.85 3.75 M0.35 9.2 L0.95 10.4 0.35 11.0 -0.25 10.4 -0.85 10.4 0.35 9.2 M6.4 12.85 L17.8 14.0 6.4 13.45 6.4 12.85 M0.35 15.85 L0.95 16.45 0.35 17.05 0.35 16.45 -0.25 16.45 0.35 15.85 M-0.85 22.5 L0.35 21.9 0.95 22.5 0.35 23.1 -0.25 22.5 -0.85 22.5 M19.7 27.35 L19.1 26.75 19.7 26.15 20.9 26.75 20.3 26.75 19.7 27.35 M11.85 27.35 L13.05 26.75 13.65 27.35 13.05 27.35 13.05 27.95 11.85 27.35 M5.8 27.35 L6.4 27.95 5.8 27.95 5.8 29.15 4.55 27.95 5.8 27.35 M-41.4 -28.3 L-42.6 -27.1 -43.8 -27.7 -43.8 -28.9 -42.6 -29.5 -41.4 -28.3 M-4.5 -40.4 L-5.1 -40.4 -17.2 -48.25 -16.0 -50.05 0.35 -46.45 -4.5 -40.4 M-3.9 -39.2 L-3.65 -39.5 -2.0 -37.45 -2.1 -37.35 -4.8 -29.25 -13.65 -44.65 -3.9 -39.2 M-17.8 -29.5 L-19.0 -28.9 -19.0 -29.5 -19.6 -29.5 -19.0 -30.1 -17.8 -29.5 M-22.65 -41.0 L-23.85 -40.4 -23.85 -41.0 -24.45 -41.0 -23.85 -41.6 -22.65 -41.0 M-23.25 -36.15 L-22.05 -35.55 -23.25 -34.35 -23.25 -35.55 -23.85 -35.55 -23.25 -36.15 M-39.6 -21.65 L-38.35 -22.25 -37.15 -21.05 -38.35 -19.85 -39.6 -20.45 -39.6 -21.05 -40.2 -21.05 -39.6 -21.65 M-30.5 -4.7 L-30.5 -5.9 -31.1 -5.9 -29.9 -7.15 -28.7 -6.5 -28.7 -4.7 -30.5 -4.7 M-35.35 -13.2 L-35.35 -14.4 -35.95 -14.4 -34.75 -15.6 -33.55 -15.0 -32.95 -14.4 -33.55 -13.2 -35.35 -13.2 M-16.65 14.0 L-17.1 14.05 -16.75 14.0 -16.65 14.0 M-5.1 12.85 L-5.1 13.45 -16.55 14.0 -5.1 12.85 M-33.55 27.35 L-35.35 27.35 -35.35 25.55 -33.55 25.55 -33.55 27.35 M-40.8 26.75 L-40.2 26.15 -39.0 26.15 -38.35 26.75 -39.0 27.95 -40.2 27.95 -40.2 26.75 -40.8 26.75 M-34.15 28.55 L-33.55 31.6 -44.4 32.8 -44.4 30.35 -34.15 28.55 M-1.45 28.55 L-0.25 27.95 0.35 28.55 -0.25 29.15 -0.85 28.55 -1.45 28.55 M-14.8 27.35 L-13.55 26.75 -12.95 27.35 -13.55 27.95 -14.2 27.35 -14.8 27.35 M-6.3 27.95 L-6.9 28.55 -6.9 27.95 -7.5 27.95 -6.9 27.35 -6.3 27.95 M-19.0 26.15 L-18.4 26.75 -19.0 27.35 -19.0 26.75 -19.6 26.75 -19.0 26.15 M-43.8 26.75 L-43.8 28.55 -45.65 28.55 -45.65 26.75 -43.8 26.75" fill="#7e7e82" fill-rule="evenodd" stroke="none"/>
      <path d="M1.55 -42.2 L0.95 -42.2 -0.25 -41.6 -0.85 -41.0 -0.25 -40.4 0.95 -39.8 2.15 -40.4 2.75 -41.0 1.55 -42.2 M5.2 -40.4 L2.75 -37.95 -0.85 -37.95 -2.7 -39.8 0.95 -45.25 5.2 -40.4 M2.75 -28.9 L2.75 -30.7 1.55 -31.3 0.95 -31.3 -0.25 -30.7 -0.85 -29.5 -0.25 -28.9 0.95 -28.3 2.75 -28.9 M7.0 -28.9 L0.95 -18.0 -3.9 -28.9 -0.85 -37.35 2.75 -37.35 7.0 -28.9" fill="#191516" fill-rule="evenodd" stroke="none"/>
      <path d="M-31.85 24.35 L-32.9 24.4 -32.95 24.3 -34.75 24.55 -46.85 25.55 -48.65 -5.9 -45.0 -27.1 -32.3 -3.5 -30.5 -1.7 -33.55 14.05 -33.55 14.65 -31.9 23.25 -31.7 24.3 -31.85 24.35 M33.2 22.55 L36.05 13.45 32.4 -1.7 33.6 -3.5 46.3 -27.1 49.95 -5.9 47.5 24.95 33.1 23.1 33.0 23.1 33.2 22.55 M2.1 20.1 L2.15 -14.4 1.8 -14.4 23.95 -29.5 20.3 -33.15 26.95 -33.15 27.55 -41.6 42.05 -31.95 42.7 -31.95 20.9 7.4 22.1 24.3 21.5 24.3 19.9 24.5 2.15 26.15 2.15 25.65 2.1 20.1 M-20.85 24.3 L-19.6 7.4 -41.4 -31.95 -40.8 -31.95 -26.25 -41.6 -25.65 -33.15 -18.4 -33.15 -22.65 -29.5 -1.45 -14.4 -2.1 25.55 -19.0 24.45 -20.25 24.3 -20.85 24.3 M22.7 -36.75 L14.85 -34.95 15.5 -33.8 15.45 -33.75 15.65 -33.55 17.9 -29.5 2.75 -19.2 19.7 -46.45 23.3 -44.0 22.7 -36.75 M15.05 -17.5 L15.0 -17.5 11.85 -18.0 14.85 -17.4 15.05 -17.5 27.55 -15.6 28.15 -16.8 26.35 -16.8 24.45 -19.8 23.95 -21.05 23.7 -21.05 23.3 -21.65 22.1 -21.05 22.1 -21.65 21.5 -21.65 15.45 -18.0 15.75 -17.95 15.05 -17.5 M6.4 12.85 L6.4 13.45 17.8 14.0 6.4 12.85 M-16.85 -46.45 L-15.15 -45.5 -0.85 -19.2 -16.6 -29.5 -13.55 -34.95 -21.45 -36.75 -21.45 -43.4 -16.85 -46.45 M-16.65 14.0 L-16.75 14.0 -17.1 14.05 -16.65 14.0 M-5.1 12.85 L-16.55 14.0 -5.1 13.45 -5.1 12.85" fill="#261817" fill-rule="evenodd" stroke="none"/>
      <path d="M-32.9 24.4 L-32.3 27.95 -46.25 29.75 -46.85 26.15 -46.25 26.15 -34.75 24.55 -32.95 24.3 -32.9 24.4 M46.9 29.15 L33.0 26.75 33.6 23.7 46.9 25.55 47.5 25.55 46.9 29.15 M25.15 -42.8 L24.55 -42.8 23.95 -42.2 25.15 -41.0 26.35 -41.6 26.35 -33.75 18.5 -33.75 17.9 -34.95 16.65 -34.95 16.05 -34.95 15.8 -34.4 15.45 -34.95 23.3 -36.15 23.95 -44.0 25.95 -42.8 25.15 -42.8 M16.65 -33.15 L17.9 -33.15 18.2 -33.45 22.1 -29.5 13.65 -23.55 13.65 -24.65 13.05 -25.25 12.55 -25.25 18.5 -29.5 16.5 -33.15 16.65 -33.15 M26.35 -42.2 L26.35 -42.6 26.95 -42.2 26.35 -42.2 M23.95 -36.15 L23.3 -36.15 22.7 -35.55 23.3 -34.35 23.95 -34.35 25.15 -34.35 25.15 -35.55 25.15 -36.15 23.95 -36.15 M21.5 -29.5 L20.3 -30.7 19.7 -30.7 18.5 -29.5 19.7 -28.3 20.9 -28.9 21.5 -29.5 M22.1 24.3 L22.7 28.55 2.15 30.75 2.15 31.0 -21.45 28.55 -20.85 24.3 -20.25 24.3 -19.0 24.45 -1.45 26.15 -0.85 -14.4 1.55 -12.55 2.1 20.1 2.15 25.65 2.15 26.15 2.15 26.75 19.9 24.5 21.5 24.3 22.1 24.3 M3.35 -18.6 L3.2 -18.6 12.2 -25.0 11.25 -24.05 12.45 -22.85 13.25 -23.3 4.55 -17.15 4.55 -17.4 4.55 -18.6 3.35 -18.6 M3.35 -16.8 L4.1 -16.8 1.55 -15.0 1.55 -17.4 2.5 -18.1 2.15 -17.4 2.75 -16.8 3.35 -16.8 M-2.7 -17.4 L-2.7 -16.8 -1.45 -16.2 -0.25 -17.4 -1.05 -18.2 0.95 -16.8 1.55 -13.2 -21.45 -29.5 -16.9 -33.45 -16.6 -33.15 -16.0 -33.15 -15.2 -33.15 -17.2 -29.5 -9.4 -24.05 -9.95 -24.05 -10.55 -23.45 -10.55 -22.85 -10.55 -22.25 -9.35 -21.65 -8.15 -22.85 -9.15 -23.85 -1.65 -18.6 -2.1 -18.6 -2.7 -18.0 -2.7 -17.4 M-16.0 -34.95 L-16.6 -34.95 -17.2 -33.75 -25.05 -33.75 -25.05 -41.0 -25.05 -42.2 -25.65 -42.2 -22.65 -44.0 -22.05 -36.15 -14.2 -34.95 -14.8 -33.9 -14.8 -34.95 -16.0 -34.95 M1.55 -8.35 L0.35 -9.55 -0.25 -9.55 -0.85 -8.95 -0.85 -8.35 -0.85 -7.75 0.35 -7.75 0.95 -7.75 1.55 -8.35 M0.35 -1.1 L1.55 -2.3 0.35 -3.5 -0.25 -3.5 -0.85 -2.9 -0.85 -2.3 -0.85 -1.7 0.35 -1.1 M30.6 -6.5 L30.0 -6.5 33.6 -13.75 34.2 -12.55 35.4 -11.95 37.25 -12.55 37.85 -13.8 37.25 -15.0 36.05 -15.6 35.4 -15.6 34.25 -15.0 40.85 -27.1 43.9 -31.3 46.9 -30.1 42.0 -21.15 41.45 -22.25 40.25 -22.85 39.65 -22.85 38.45 -22.25 37.85 -21.05 38.45 -19.85 39.65 -19.2 41.25 -19.75 32.4 -3.5 31.8 -3.5 22.1 6.8 29.0 -4.85 29.35 -4.1 30.6 -3.5 32.4 -4.1 33.0 -5.3 32.4 -6.5 30.6 -6.5 M45.1 27.95 L46.3 27.95 46.9 26.75 46.3 25.55 45.1 25.55 43.9 25.55 43.9 26.75 43.9 27.95 45.1 27.95 M42.05 26.15 L40.85 24.95 40.25 24.95 39.05 25.55 38.45 26.15 39.05 27.35 40.25 27.95 41.45 27.35 42.05 26.15 M36.65 25.55 L36.65 24.95 36.05 24.3 35.4 24.3 34.2 24.95 33.6 25.55 34.2 26.75 35.4 26.75 36.65 26.75 36.65 25.55 M-0.85 3.75 L-0.85 4.35 0.35 4.95 1.55 3.75 0.35 2.55 -0.25 2.55 -0.85 3.15 -0.85 3.75 M0.35 11.0 L0.95 11.0 1.55 10.4 0.95 9.2 0.35 9.2 -0.85 9.2 -0.85 10.4 -0.85 11.0 0.35 11.0 M1.55 17.05 L1.55 15.85 0.35 15.25 -0.25 15.25 -0.25 15.85 -0.85 16.45 -0.25 17.05 0.35 17.05 1.55 17.05 M-0.85 22.5 L-0.85 23.1 0.35 23.7 1.55 22.5 0.35 21.3 -0.25 21.3 -0.85 21.9 -0.85 22.5 M20.9 26.75 L20.9 26.15 20.3 25.55 19.7 25.55 18.5 26.75 19.1 27.35 19.7 27.35 20.9 27.35 20.9 26.75 M13.05 27.95 L13.65 27.95 14.25 27.35 13.65 26.75 13.65 26.15 13.05 26.15 11.85 26.75 11.85 27.35 11.85 27.95 13.05 27.95 M5.8 29.15 L6.4 29.15 7.0 27.95 6.4 27.35 5.8 27.35 4.55 27.35 4.55 27.95 4.55 29.15 5.8 29.15 M0.95 28.55 L0.35 27.95 -0.25 27.95 -1.45 27.95 -1.45 28.55 -1.45 29.15 -0.25 29.75 0.95 28.55 M2.75 27.95 L2.15 27.35 2.15 29.15 2.75 29.15 2.75 27.95 M-41.4 -29.5 L-42.6 -30.1 -43.2 -30.1 -44.4 -29.5 -44.4 -27.85 -45.65 -30.1 -42.6 -31.3 -39.6 -27.1 -32.9 -14.95 -32.95 -15.0 -34.75 -15.6 -35.35 -15.6 -36.55 -14.4 -35.95 -13.2 Q-35.35 -12.9 -34.75 -12.55 L-32.95 -13.2 -32.45 -14.1 -28.8 -6.75 -29.9 -7.15 -30.5 -7.15 -31.7 -5.9 -31.1 -4.7 -29.9 -4.1 -28.1 -4.7 -27.85 -5.2 -20.25 6.8 -30.5 -3.5 -31.1 -3.5 -40.0 -19.75 -38.35 -19.2 -37.15 -19.85 -36.55 -21.05 -37.15 -22.25 -38.35 -22.85 -39.0 -22.85 -40.2 -22.25 -40.75 -21.15 -43.9 -26.9 -42.6 -26.5 -41.4 -27.1 -40.8 -28.3 -41.4 -29.5 M-17.8 -29.5 L-17.8 -30.1 -19.0 -30.7 -19.6 -30.7 -19.6 -30.1 -20.25 -29.5 -19.0 -28.3 -17.8 -28.9 -17.8 -29.5 M-22.65 -41.0 L-22.65 -41.6 -23.85 -42.2 -24.45 -42.2 -24.45 -41.6 -25.05 -41.0 -23.85 -39.8 -22.65 -40.4 -22.65 -41.0 M-23.25 -34.35 L-22.05 -34.35 -21.45 -35.55 -22.05 -36.15 -23.25 -36.15 -23.85 -36.15 -24.45 -35.55 -23.85 -34.35 -23.25 -34.35 M-33.55 27.35 L-32.95 26.75 -33.55 25.55 -34.75 24.95 -35.35 24.95 -35.95 25.55 -35.95 27.35 -34.75 27.95 -33.55 27.35 M-40.8 26.75 L-40.8 27.95 -39.6 28.55 -38.35 27.95 -37.75 27.35 -38.35 26.15 -39.6 25.55 -40.2 25.55 -40.8 26.15 -40.8 26.75 M-6.3 27.35 L-6.9 27.35 -8.15 27.35 -8.15 28.55 -6.9 29.15 -5.7 27.95 -6.3 27.35 M-19.0 26.15 L-20.25 26.15 -20.25 27.35 -19.0 27.95 -17.8 26.75 -18.4 26.15 -19.0 26.15 M-14.8 27.35 L-14.8 27.95 -13.55 28.55 -12.35 27.35 -12.95 26.75 -13.55 26.75 -14.8 26.75 -14.8 27.35 M-43.8 26.75 L-45.0 26.15 -45.65 26.15 -46.25 26.75 -46.25 28.55 -45.0 29.15 -43.8 28.55 -43.2 27.95 -43.8 26.75" fill="#181e16" fill-rule="evenodd" stroke="none"/>
      <path d="M46.3 37.65 L37.25 45.5 30.6 40.05 31.2 38.85 33.6 40.05 37.85 38.25 39.05 38.85 37.85 35.2 37.85 37.65 33.6 38.85 31.2 37.65 30.6 34.6 34.8 31.6 43.3 32.8 46.3 37.65 M-30.5 38.25 L-32.95 39.45 -37.15 38.25 -37.15 35.8 -38.35 40.05 -37.15 38.85 -32.95 40.65 -30.5 39.45 -29.9 40.65 -36.55 46.1 -45.65 38.25 -42.6 34.0 -34.15 32.2 -29.9 35.2 -30.5 38.25" fill="#f1e4e2" fill-rule="evenodd" stroke="none"/>
    </g>
  </defs>
</svg>
