<?xml version="1.0" encoding="UTF-8" standalone="no"?>
<svg xmlns:xlink="http://www.w3.org/1999/xlink" height="163.1px" width="99.8px" xmlns="http://www.w3.org/2000/svg">
  <g transform="matrix(1.0, 0.0, 0.0, 1.0, 49.25, 79.5)">
    <use height="54.3" transform="matrix(1.0, 0.0, 0.0, 1.0, -22.2, 29.3)" width="47.7" xlink:href="#shape0"/>
    <use height="43.85" transform="matrix(1.0, 0.0, 0.0, 1.0, -19.25, -79.5)" width="40.45" xlink:href="#shape1"/>
    <use height="99.8" transform="matrix(1.0, 0.0, 0.0, 1.0, -49.25, -50.9)" width="99.8" xlink:href="#shape2"/>
  </g>
  <defs>
    <g id="shape0" transform="matrix(1.0, 0.0, 0.0, 1.0, 22.2, -29.3)">
      <path d="M3.45 30.5 L25.5 29.3 24.3 54.9 20.65 65.2 20.75 70.2 25.2 72.45 23.9 75.8 7.2 76.2 2.85 74.75 2.65 65.4 3.8 54.1 3.45 30.5" fill="#0d0f0d" fill-rule="evenodd" stroke="none"/>
      <path d="M-0.15 32.5 L0.45 79.15 -4.2 83.6 -15.35 83.15 -20.6 79.6 -21.9 76.25 -17.45 74.0 -17.35 69.0 -22.2 31.3 -0.15 32.5" fill="#0d0f0d" fill-rule="evenodd" stroke="none"/>
      <path d="M24.3 30.2 L24.3 30.15 24.9 30.15 24.3 30.2 M3.45 32.75 L24.0 30.4 23.4 55.0 20.15 64.5 11.7 63.9 3.2 64.5 4.1 53.6 3.45 32.75" fill="#261817" fill-rule="evenodd" stroke="none"/>
      <path d="M4.2 67.45 L4.2 68.65 6.6 68.65 7.2 67.45 6.6 66.2 5.4 66.2 4.2 66.2 4.2 67.45 M10.85 65.0 L9.65 65.0 9.0 66.2 9.65 66.85 10.85 67.45 12.05 66.85 12.05 65.0 10.85 65.0 M9.0 68.6 L2.95 71.65 2.95 65.0 12.05 64.4 19.9 65.0 19.9 69.85 9.0 68.6 M3.9 71.85 L10.0 69.2 19.85 70.75 24.15 72.45 23.25 74.9 7.25 75.25 3.6 74.3 3.9 71.85 M17.5 66.2 L16.3 66.2 16.3 67.45 16.3 68.05 17.5 68.65 18.7 68.05 19.3 67.45 18.7 66.2 17.5 66.2" fill="#181e16" fill-rule="evenodd" stroke="none"/>
      <path d="M4.2 67.45 L4.8 68.05 6.0 68.05 6.0 67.45 6.6 67.45 5.4 66.2 6.6 66.2 7.2 67.45 6.6 68.65 4.2 68.65 4.2 67.45 4.2 66.2 5.4 66.2 4.2 67.45 M10.85 65.0 L9.65 65.6 9.65 66.85 9.0 66.2 9.65 65.0 10.85 65.0 12.05 65.0 12.05 66.85 10.85 67.45 9.65 66.85 11.45 66.85 11.45 65.6 10.85 65.0 M17.5 66.2 L16.3 67.45 16.3 66.2 17.5 66.2 18.7 66.2 19.3 67.45 18.7 68.05 17.5 68.65 16.3 68.05 16.3 67.45 16.9 68.05 18.1 68.05 18.1 67.45 18.7 67.45 17.5 66.2" fill="#0d0f0d" fill-rule="evenodd" stroke="none"/>
      <path d="M5.4 66.2 L6.6 67.45 6.0 67.45 6.0 68.05 4.8 68.05 4.2 67.45 5.4 66.2 M9.65 66.85 L9.65 65.6 10.85 65.0 11.45 65.6 11.45 66.85 9.65 66.85 M16.3 67.45 L17.5 66.2 18.7 67.45 18.1 67.45 18.1 68.05 16.9 68.05 16.3 67.45" fill="#7e7e82" fill-rule="evenodd" stroke="none"/>
      <path d="M-0.55 34.75 L0.1 68.5 -8.4 67.9 -16.85 68.5 -21.1 32.4 -0.55 34.75 M-21.4 32.15 L-21.4 32.2 -22.0 32.15 -21.4 32.15" fill="#261817" fill-rule="evenodd" stroke="none"/>
      <path d="M-16.4 71.35 L-15.75 71.95 -14.55 72.55 -13.35 71.95 -13.35 71.35 -13.35 70.1 -14.55 70.1 -15.75 70.1 -16.4 71.35 M-17.0 68.9 L-9.15 68.3 -0.05 68.9 -0.05 75.55 Q-3.05 74.05 -6.1 72.5 L-17.0 73.75 -17.0 68.9 M-6.7 70.75 L-6.1 70.1 -6.7 68.9 -7.9 68.9 -9.1 68.9 -9.1 70.75 -7.9 71.35 -6.7 70.75 M-1.25 70.1 L-2.45 70.1 -3.7 70.1 -4.3 71.35 -3.7 72.55 -1.25 72.55 -1.25 71.35 -1.25 70.1 M-21.2 76.35 L-16.9 74.65 -7.1 73.1 -0.95 75.75 -0.65 79.4 -4.35 83.05 -15.4 82.6 -20.3 78.8 -21.2 76.35" fill="#181e16" fill-rule="evenodd" stroke="none"/>
      <path d="M-16.4 71.35 L-15.75 70.1 -14.55 70.1 -13.35 70.1 -13.35 71.35 -13.35 71.95 -14.55 72.55 -15.75 71.95 -16.4 71.35 M-14.55 70.1 L-15.75 71.35 -15.15 71.35 -15.15 71.95 -13.95 71.95 -13.35 71.35 -14.55 70.1 M-7.9 68.9 L-6.7 68.9 -6.1 70.1 -6.7 70.75 -6.7 69.5 -7.9 68.9 -8.5 69.5 -8.5 70.75 -6.7 70.75 -7.9 71.35 -9.1 70.75 -9.1 68.9 -7.9 68.9 M-1.25 70.1 L-1.25 71.35 -1.25 72.55 -3.7 72.55 -4.3 71.35 -3.7 70.1 -2.45 70.1 -1.25 70.1 M-3.05 71.95 L-1.85 71.95 -1.25 71.35 -2.45 70.1 -3.7 71.35 -3.05 71.35 -3.05 71.95" fill="#0d0f0d" fill-rule="evenodd" stroke="none"/>
      <path d="M-14.55 70.1 L-13.35 71.35 -13.95 71.95 -15.15 71.95 -15.15 71.35 -15.75 71.35 -14.55 70.1 M-7.9 68.9 L-6.7 69.5 -6.7 70.75 -8.5 70.75 -8.5 69.5 -7.9 68.9 M-3.05 71.95 L-3.05 71.35 -3.7 71.35 -2.45 70.1 -1.25 71.35 -1.85 71.95 -3.05 71.95" fill="#7e7e82" fill-rule="evenodd" stroke="none"/>
    </g>
    <g id="shape1" transform="matrix(1.0, 0.0, 0.0, 1.0, 19.25, 79.5)">
      <path d="M2.75 -77.45 L2.1 -78.3 -0.9 -78.9 -0.85 -78.65 -2.75 -78.9 -7.55 -78.3 -9.05 -75.55 -9.35 -75.65 -8.15 -78.3 -8.15 -78.9 -7.55 -78.9 -2.75 -79.5 2.1 -78.9 2.7 -78.9 3.35 -77.95 2.75 -77.45 M12.85 -61.65 L13.45 -62.0 14.8 -59.55 17.25 -51.7 17.25 -51.35 18.4 -49.55 21.2 -41.7 21.2 -41.1 12.7 -37.45 7.0 -36.25 0.65 -35.65 -5.75 -35.65 -12.15 -36.85 -19.25 -40.5 -19.25 -41.1 -17.05 -50.4 -17.25 -50.5 -17.25 -51.1 -15.15 -60.7 -14.75 -60.4 -16.65 -50.5 -13.6 -48.05 -10.0 -46.85 -10.0 -47.15 -5.75 -45.65 -0.3 -45.65 4.55 -46.25 7.75 -47.45 8.15 -47.45 12.4 -48.65 14.8 -49.85 15.6 -50.45 17.25 -51.1 17.05 -51.55 17.25 -51.7 12.85 -61.65" fill="#0d0f0d" fill-rule="evenodd" stroke="none"/>
      <path d="M-0.85 -78.65 L0.4 -75.0 -0.3 -74.05 -0.9 -70.45 -0.8 -69.85 -0.9 -69.25 -0.3 -66.2 1.2 -64.35 1.5 -63.8 1.75 -63.65 2.1 -63.2 3.85 -62.15 2.1 -62.55 -2.1 -61.95 -3.35 -61.95 -3.85 -62.3 -2.75 -63.8 -2.1 -66.8 -2.75 -66.8 -2.75 -68.0 -2.75 -70.45 -3.65 -71.65 -4.55 -73.45 -6.9 -74.9 -6.35 -78.3 -7.55 -78.3 -2.75 -78.9 -0.85 -78.65 M-10.0 -54.1 L-5.75 -55.9 -1.5 -57.15 3.3 -57.15 5.75 -56.5 6.05 -56.4 6.35 -55.3 7.55 -47.45 7.75 -47.45 4.55 -46.25 -0.3 -45.65 -5.75 -45.65 -10.0 -47.15 -10.0 -54.1 M4.9 -60.6 L5.8 -57.35 3.3 -57.75 -1.5 -57.75 -5.75 -56.5 -10.0 -54.25 -10.0 -54.7 -9.35 -58.8 -8.8 -59.2 -6.95 -59.55 -4.55 -61.35 -4.3 -61.7 -3.35 -61.35 -2.1 -61.35 2.1 -61.95 3.9 -61.35 4.9 -60.6 M17.05 -51.55 L17.25 -51.1 15.6 -50.45 17.05 -51.55" fill="#f1e4e2" fill-rule="evenodd" stroke="none"/>
      <path d="M-9.05 -75.55 L-7.55 -78.3 -6.35 -78.3 -6.9 -74.9 -7.55 -75.3 -9.05 -75.55 M-10.0 -54.1 L-10.0 -47.15 -10.0 -46.85 -13.6 -48.05 -16.65 -50.5 -14.75 -60.4 -13.6 -59.55 -10.6 -58.95 -9.75 -59.05 -10.6 -58.35 -12.4 -55.3 -13.0 -52.3 -13.6 -51.1 -10.0 -54.1 M-10.0 -54.25 Q-10.85 -53.8 -11.75 -53.3 L-11.2 -55.9 -10.0 -58.35 -9.35 -58.8 -10.0 -54.7 -10.0 -54.25" fill="#f4f2f2" fill-rule="evenodd" stroke="none"/>
      <path d="M-0.85 -78.65 L-0.9 -78.9 2.1 -78.3 2.75 -77.45 1.5 -76.5 0.4 -75.0 -0.85 -78.65 M5.25 -61.3 L8.75 -60.15 12.4 -61.35 12.85 -61.65 17.25 -51.7 17.05 -51.55 15.6 -50.45 14.8 -49.85 12.4 -48.65 8.15 -47.45 7.75 -47.45 7.55 -47.45 6.35 -55.3 6.05 -56.4 11.8 -54.1 11.2 -54.7 9.95 -57.15 5.25 -61.3 M-15.15 -60.7 L-16.05 -61.35 -17.85 -63.8 -17.95 -64.35 -16.65 -62.55 -13.6 -60.75 -10.6 -60.15 -7.95 -60.7 -9.75 -59.05 -10.6 -58.95 -13.6 -59.55 -14.75 -60.4 -15.15 -60.7 M-3.85 -62.3 L-4.45 -62.75 -3.35 -65.0 -2.75 -68.0 -3.35 -71.05 -3.65 -71.65 -2.75 -70.45 -2.75 -68.0 -2.75 -66.8 -2.1 -66.8 -2.75 -63.8 -3.85 -62.3 M4.9 -60.6 L6.35 -59.55 10.6 -55.3 6.95 -57.15 5.8 -57.35 4.9 -60.6 M-8.8 -59.2 L-5.15 -61.95 -4.3 -61.7 -4.55 -61.35 -6.95 -59.55 -8.8 -59.2" fill="#c6bebe" fill-rule="evenodd" stroke="none"/>
      <path d="M16.65 -71.9 L16.65 -73.85 17.25 -72.85 17.25 -70.45 17.25 -69.25 17.85 -69.25 17.25 -66.2 15.4 -63.2 13.45 -62.0 12.85 -61.65 12.4 -61.35 8.75 -60.15 5.25 -61.3 4.55 -61.95 8.15 -61.35 11.8 -61.95 14.8 -63.8 16.65 -66.8 17.25 -70.45 16.65 -71.9 M16.05 -74.85 L15.15 -76.05 15.4 -75.9 16.05 -74.85 M3.85 -62.15 L2.1 -63.2 1.75 -63.65 4.55 -61.95 3.85 -62.15 M1.2 -64.35 L-0.3 -66.2 -0.9 -69.25 -0.8 -69.85 -0.3 -66.8 1.2 -64.35" fill="#afaaaa" fill-rule="evenodd" stroke="none"/>
      <path d="M0.4 -75.0 L1.5 -76.5 2.75 -77.45 3.35 -77.95 4.55 -78.9 8.15 -79.5 11.8 -78.9 14.8 -76.5 15.15 -76.05 16.05 -74.85 16.65 -74.05 16.65 -73.85 16.65 -71.9 16.0 -73.45 14.2 -76.5 11.8 -78.3 8.15 -78.9 4.55 -78.3 2.1 -76.5 0.3 -73.45 -0.3 -70.45 0.3 -70.45 0.3 -67.4 2.1 -64.4 4.55 -62.55 8.15 -61.95 11.8 -62.55 14.2 -64.4 16.0 -67.4 17.25 -70.45 16.65 -66.8 14.8 -63.8 11.8 -61.95 8.15 -61.35 4.55 -61.95 5.25 -61.3 9.95 -57.15 11.2 -54.7 11.8 -54.1 6.05 -56.4 5.75 -56.5 3.3 -57.15 -1.5 -57.15 -5.75 -55.9 -10.0 -54.1 -13.6 -51.1 -13.0 -52.3 -12.4 -55.3 -10.6 -58.35 -9.75 -59.05 -7.95 -60.7 -10.6 -60.15 -13.6 -60.75 -16.65 -62.55 -17.95 -64.35 -18.45 -65.0 -19.05 -68.0 -18.45 -71.05 -16.65 -73.45 -13.6 -75.3 -10.6 -75.9 -9.35 -75.65 -9.05 -75.55 -7.55 -75.3 -6.9 -74.9 -4.55 -73.45 -3.65 -71.65 -3.35 -71.05 -5.15 -73.45 -7.55 -74.65 -10.6 -75.3 -13.6 -74.65 -16.05 -73.45 -17.85 -71.05 -18.45 -68.0 -17.85 -68.0 -17.85 -65.0 -16.05 -62.55 -13.6 -61.35 -10.6 -60.75 -7.55 -61.35 -5.15 -62.55 -3.35 -65.0 -4.45 -62.75 -3.85 -62.3 -3.35 -61.95 -2.1 -61.95 2.1 -62.55 3.85 -62.15 4.55 -61.95 1.75 -63.65 1.5 -63.8 1.2 -64.35 -0.3 -66.8 -0.8 -69.85 -0.9 -70.45 -0.3 -74.05 0.4 -75.0 M5.8 -57.35 L6.95 -57.15 10.6 -55.3 6.35 -59.55 4.9 -60.6 3.9 -61.35 2.1 -61.95 -2.1 -61.35 -3.35 -61.35 -4.3 -61.7 -5.15 -61.95 -8.8 -59.2 -9.35 -58.8 -10.0 -58.35 -11.2 -55.9 -11.75 -53.3 Q-10.85 -53.8 -10.0 -54.25 L-5.75 -56.5 -1.5 -57.75 3.3 -57.75 5.8 -57.35" fill="#000000" fill-rule="evenodd" stroke="none"/>
      <path d="M17.25 -70.45 L16.0 -67.4 14.2 -64.4 11.8 -62.55 8.15 -61.95 4.55 -62.55 2.1 -64.4 0.3 -67.4 0.3 -70.45 -0.3 -70.45 0.3 -73.45 2.1 -76.5 4.55 -78.3 8.15 -78.9 11.8 -78.3 14.2 -76.5 16.0 -73.45 16.65 -71.9 17.25 -70.45 M2.1 -69.85 L1.5 -69.85 0.9 -69.25 0.9 -67.4 1.5 -66.8 2.7 -66.2 3.3 -67.4 3.3 -68.6 2.1 -69.85 M-3.35 -65.0 L-5.15 -62.55 -7.55 -61.35 -10.6 -60.75 -13.6 -61.35 -16.05 -62.55 -17.85 -65.0 -17.85 -68.0 -18.45 -68.0 -17.85 -71.05 -16.05 -73.45 -13.6 -74.65 -10.6 -75.3 -7.55 -74.65 -5.15 -73.45 -3.35 -71.05 -2.75 -68.0 -3.35 -65.0 M-5.75 -69.25 L-6.35 -69.85 -6.95 -69.85 -8.15 -68.6 -8.15 -67.4 -7.55 -66.2 -6.35 -66.8 -5.75 -67.4 -5.75 -69.25" fill="#c4e1df" fill-rule="evenodd" stroke="none"/>
      <path d="M2.1 -69.85 L3.3 -68.6 3.3 -67.4 2.7 -66.2 1.5 -66.8 0.9 -67.4 0.9 -69.25 1.5 -69.85 2.1 -69.85 M-5.75 -69.25 L-5.75 -67.4 -6.35 -66.8 -7.55 -66.2 -8.15 -67.4 -8.15 -68.6 -6.95 -69.85 -6.35 -69.85 -5.75 -69.25" fill="#383432" fill-rule="evenodd" stroke="none"/>
    </g>
    <g id="shape2" transform="matrix(1.0, 0.0, 0.0, 1.0, 49.25, 50.9)">
      <path d="M-31.85 25.35 L-31.7 28.95 -32.95 29.55 -32.95 32.6 -29.9 35.6 -29.3 35.6 -29.9 39.85 -28.1 42.25 -36.55 48.9 -46.85 39.25 -43.8 34.4 -45.0 35.0 -45.65 30.75 -46.85 31.35 -49.25 -4.9 -45.65 -27.9 -46.25 -29.1 -18.25 -46.25 -19.0 -46.65 -17.2 -50.9 -16.6 -50.9 0.95 -46.35 18.5 -50.9 19.1 -50.9 20.9 -46.65 20.25 -46.3 47.5 -29.1 46.9 -27.9 50.55 -4.9 47.55 30.0 47.5 30.15 46.9 30.15 46.3 30.15 45.7 34.4 44.5 33.8 47.5 38.65 37.25 47.7 28.75 41.05 30.6 39.25 30.0 35.0 30.6 35.0 33.6 32.0 33.6 28.95 32.4 28.35 33.1 24.1 47.5 25.95 49.95 -4.9 46.3 -26.1 33.6 -2.5 32.4 -0.7 36.05 14.45 33.2 23.55 34.8 13.85 32.4 -0.1 31.2 9.6 29.75 33.0 -28.35 33.45 -29.3 11.4 -30.5 0.55 -32.3 15.05 -31.9 24.25 -33.55 15.65 -33.55 15.05 -30.5 -0.7 -32.3 -2.5 -45.0 -26.1 -48.65 -4.9 -46.85 26.55 -34.75 25.55 -46.25 27.15 -46.85 27.15 -46.25 30.75 -32.3 28.95 -32.9 25.4 -31.85 25.35 M16.65 -33.95 L17.9 -33.95 18.5 -32.75 26.35 -32.75 26.35 -40.6 25.15 -40.0 23.95 -41.2 24.55 -41.8 25.15 -41.8 25.95 -41.8 23.95 -43.0 23.3 -35.15 15.45 -33.95 15.8 -33.4 16.05 -33.95 16.65 -33.95 16.05 -32.75 16.65 -32.15 17.3 -32.75 17.9 -32.75 16.65 -33.95 M46.9 30.15 L47.5 26.55 46.9 26.55 33.6 24.7 33.0 27.75 46.9 30.15 M16.65 -32.15 L16.5 -32.15 18.5 -28.5 12.55 -24.25 13.05 -24.25 13.65 -23.65 13.65 -22.55 22.1 -28.5 18.2 -32.45 17.9 -32.15 16.65 -32.15 M26.35 -41.2 L25.15 -41.8 24.55 -41.2 25.15 -40.6 25.75 -41.2 26.35 -41.2 26.95 -41.2 26.35 -41.6 26.35 -41.2 M23.95 -33.35 L23.3 -33.35 22.7 -34.55 23.3 -35.15 23.95 -35.15 23.3 -34.55 23.95 -33.35 24.55 -34.55 25.15 -34.55 23.95 -35.15 25.15 -35.15 25.15 -34.55 25.15 -33.35 23.95 -33.35 M20.9 -28.5 L19.7 -29.1 19.1 -28.5 19.7 -27.9 20.3 -28.5 20.9 -28.5 M21.5 -28.5 L20.9 -27.9 19.7 -27.3 18.5 -28.5 19.7 -29.7 20.3 -29.7 21.5 -28.5 M22.1 25.3 L20.9 8.4 42.7 -30.95 42.05 -30.95 27.55 -40.6 26.95 -32.15 20.3 -32.15 23.95 -28.5 1.8 -13.4 2.15 -13.4 2.1 21.1 1.55 -11.55 -0.85 -13.4 -1.45 27.15 -19.0 25.45 -2.1 26.55 -1.45 -13.4 -22.65 -28.5 -18.4 -32.15 -25.65 -32.15 -26.25 -40.6 -40.8 -30.95 -41.4 -30.95 -19.6 8.4 -20.85 25.3 -21.45 29.55 2.15 32.0 2.15 31.75 22.7 29.55 22.1 25.3 M2.15 27.15 L19.9 25.5 2.15 27.75 2.15 27.15 M22.7 -35.75 L23.3 -43.0 19.7 -45.45 2.75 -18.2 17.9 -28.5 15.65 -32.55 15.45 -32.75 15.5 -32.8 14.85 -33.95 22.7 -35.75 M1.55 -40.0 L2.15 -40.0 0.95 -41.2 -0.25 -40.0 0.35 -39.4 1.55 -39.4 1.55 -40.0 M2.75 -40.0 L2.15 -39.4 0.95 -38.8 -0.25 -39.4 -0.85 -40.0 -0.25 -40.6 0.95 -41.2 1.55 -41.2 2.75 -40.0 M6.4 -38.2 L5.6 -39.15 3.85 -36.95 3.95 -36.95 7.8 -27.95 18.95 -45.55 6.4 -38.2 M6.4 -39.4 L7.0 -39.4 19.7 -47.25 17.3 -49.7 2.15 -45.45 6.4 -39.4 M5.2 -39.4 L0.95 -44.25 -2.7 -38.8 -0.85 -36.95 2.75 -36.95 5.2 -39.4 M2.15 -27.9 L2.15 -29.1 0.95 -29.7 -0.25 -28.5 0.35 -27.9 2.15 -27.9 M7.0 -27.9 L2.75 -36.35 -0.85 -36.35 -3.9 -27.9 0.95 -17.0 7.0 -27.9 M0.95 -30.3 L1.55 -30.3 2.75 -29.7 2.75 -27.9 0.95 -27.3 -0.25 -27.9 -0.85 -28.5 -0.25 -29.7 0.95 -30.3 M12.45 -22.45 L12.45 -23.05 13.05 -23.05 12.45 -23.65 11.85 -23.05 12.45 -22.45 M4.55 -16.4 L4.55 -16.15 13.25 -22.3 12.45 -21.85 11.25 -23.05 12.2 -24.0 3.2 -17.6 3.35 -17.6 2.75 -16.4 3.35 -16.4 3.35 -15.8 4.55 -16.4 3.35 -17.6 4.55 -17.6 4.55 -16.4 M3.35 -15.8 L2.75 -15.8 2.15 -16.4 2.5 -17.1 1.55 -16.4 1.55 -14.0 4.1 -15.8 3.35 -15.8 M15.05 -16.5 L14.85 -16.4 11.85 -17.0 15.0 -16.5 15.05 -16.5 15.75 -16.95 15.45 -17.0 21.5 -20.65 22.1 -20.65 22.1 -20.05 23.3 -20.65 23.7 -20.05 24.45 -18.8 26.35 -15.8 28.15 -15.8 27.55 -14.6 15.05 -16.5 M1.55 -7.35 L0.95 -6.75 0.35 -6.75 -0.85 -6.75 -0.85 -7.35 -0.85 -7.95 -0.25 -8.55 0.35 -8.55 1.55 -7.35 M0.95 -7.35 L0.35 -7.95 -0.85 -7.35 -0.25 -7.35 0.35 -6.75 0.95 -7.35 M0.35 -0.1 L-0.85 -0.7 -0.85 -1.3 -0.85 -1.9 -0.25 -2.5 0.35 -2.5 1.55 -1.3 0.35 -0.1 M0.35 -1.9 L-0.85 -1.3 -0.25 -1.3 0.35 -0.7 0.95 -1.3 0.35 -1.9 M-16.0 -32.15 L-16.6 -32.15 -16.9 -32.45 -21.45 -28.5 1.55 -12.2 0.95 -15.8 -1.05 -17.2 -0.25 -16.4 -1.45 -15.2 -2.7 -15.8 -2.7 -16.4 -2.7 -17.0 -2.1 -17.6 -1.65 -17.6 -9.15 -22.85 -8.15 -21.85 -9.35 -20.65 -10.55 -21.25 -10.55 -21.85 -10.55 -22.45 -9.95 -23.05 -9.4 -23.05 -17.2 -28.5 -15.2 -32.15 -16.0 -32.15 -14.8 -32.75 -16.0 -33.95 -16.6 -32.75 -16.0 -32.75 -16.0 -32.15 M-16.0 -33.95 L-14.8 -33.95 -14.8 -32.9 -14.2 -33.95 -22.05 -35.15 -22.65 -43.0 -25.65 -41.2 -25.05 -41.2 -25.05 -40.0 -25.05 -32.75 -17.2 -32.75 -16.6 -33.95 -16.0 -33.95 M-10.55 -21.85 L-9.95 -21.85 -9.35 -21.25 -8.75 -21.85 -9.35 -22.45 -10.55 -21.85 M-2.7 -16.4 L-2.1 -16.4 -1.45 -15.8 -0.85 -16.4 -1.45 -17.0 -2.7 -16.4 M38.45 -20.05 L39.65 -18.85 40.85 -19.45 40.85 -20.05 41.45 -20.05 40.85 -20.65 39.65 -21.25 38.45 -20.05 M30.6 -5.5 L32.4 -5.5 33.0 -4.3 32.4 -3.1 30.6 -2.5 29.35 -3.1 29.0 -3.85 22.1 7.8 31.8 -2.5 32.4 -2.5 41.25 -18.75 39.65 -18.2 38.45 -18.85 37.85 -20.05 38.45 -21.25 39.65 -21.85 40.25 -21.85 41.45 -21.25 42.0 -20.15 46.9 -29.1 43.9 -30.3 40.85 -26.1 34.25 -14.0 35.4 -14.6 36.05 -14.6 37.25 -14.0 37.85 -12.8 37.25 -11.55 35.4 -10.95 34.2 -11.55 33.6 -12.75 30.0 -5.5 30.6 -5.5 29.35 -4.3 30.0 -3.1 31.8 -3.1 31.8 -4.9 30.6 -5.5 M34.2 -12.8 L35.4 -11.55 36.65 -12.2 36.65 -14.0 34.8 -14.0 34.2 -12.8 M45.1 26.55 L46.3 26.55 46.9 27.75 46.3 28.95 45.1 28.95 45.7 28.35 45.7 27.75 46.3 27.75 45.1 26.55 43.9 27.75 43.9 26.55 45.1 26.55 M43.9 27.75 L45.1 28.95 43.9 28.95 43.9 27.75 M41.45 27.15 L40.85 26.55 39.65 26.55 39.05 27.15 40.25 28.35 40.85 27.75 40.85 27.15 41.45 27.15 M40.85 25.95 L42.05 27.15 41.45 28.35 40.25 28.95 39.05 28.35 38.45 27.15 39.05 26.55 40.25 25.95 40.85 25.95 M45.1 33.2 L45.1 30.75 34.8 28.95 34.2 32.0 45.1 33.2 M46.3 38.65 L43.3 33.8 34.8 32.6 30.6 35.6 31.2 38.65 33.6 39.85 37.85 38.65 37.85 36.2 39.05 39.85 37.85 39.25 33.6 41.05 31.2 39.85 30.6 41.05 37.25 46.5 46.3 38.65 M-0.85 4.75 L-0.85 4.15 -0.25 3.55 0.35 3.55 1.55 4.75 0.35 5.95 -0.85 5.35 -0.85 4.75 -0.25 4.75 0.35 5.35 0.95 4.75 0.35 4.15 -0.85 4.75 M0.35 12.0 L0.95 11.4 0.35 10.2 0.95 10.2 1.55 11.4 0.95 12.0 0.35 12.0 -0.85 12.0 -0.85 11.4 -0.85 10.2 0.35 10.2 -0.85 11.4 -0.25 11.4 0.35 12.0 M1.55 18.05 L0.35 18.05 -0.25 18.05 -0.85 17.45 -0.25 16.85 -0.25 16.25 0.35 16.25 1.55 16.85 1.55 18.05 M0.35 16.85 L-0.25 17.45 0.35 17.45 0.35 18.05 0.95 17.45 0.35 16.85 M-0.85 23.5 L-0.25 23.5 0.35 24.1 0.95 23.5 0.35 22.9 -0.85 23.5 -0.85 22.9 -0.25 22.3 0.35 22.3 1.55 23.5 0.35 24.7 -0.85 24.1 -0.85 23.5 M20.9 27.75 L19.7 27.15 19.1 27.75 19.7 28.35 19.1 28.35 18.5 27.75 19.7 26.55 20.3 26.55 20.9 27.15 20.9 27.75 20.9 28.35 19.7 28.35 20.3 27.75 20.9 27.75 M11.85 28.35 L11.85 27.75 13.05 27.15 13.65 27.15 13.65 27.75 14.25 28.35 13.65 28.95 13.05 28.95 13.05 28.35 13.65 28.35 13.05 27.75 11.85 28.35 13.05 28.95 11.85 28.95 11.85 28.35 M5.8 30.15 L5.8 28.95 6.4 28.95 5.8 28.35 6.4 28.35 7.0 28.95 6.4 30.15 5.8 30.15 4.55 30.15 4.55 28.95 4.55 28.35 5.8 28.35 4.55 28.95 5.8 30.15 M0.95 29.55 L-0.25 30.75 -1.45 30.15 -1.45 29.55 -1.45 28.95 -0.25 28.95 0.35 28.95 0.95 29.55 M2.15 30.15 L2.15 28.35 2.75 28.95 2.75 30.15 2.15 30.15 M36.65 26.55 L36.65 27.75 35.4 27.75 34.2 27.75 33.6 26.55 34.2 25.95 35.4 25.3 36.05 25.3 36.65 25.95 36.65 26.55 35.4 25.3 34.2 26.55 35.4 27.75 36.05 27.15 36.05 26.55 36.65 26.55 M-41.4 -28.5 L-40.8 -27.3 -41.4 -26.1 -42.6 -25.5 -43.9 -25.9 -40.75 -20.15 -40.2 -21.25 -39.0 -21.85 -38.35 -21.85 -37.15 -21.25 -36.55 -20.05 -37.15 -18.85 -38.35 -18.2 -40.0 -18.75 -31.1 -2.5 -30.5 -2.5 -20.25 7.8 -27.85 -4.2 -28.1 -3.7 -29.9 -3.1 -31.1 -3.7 -31.7 -4.9 -30.5 -6.15 -29.9 -6.15 -28.8 -5.75 -32.45 -13.1 -32.95 -12.2 -34.75 -11.55 Q-35.35 -11.9 -35.95 -12.2 L-36.55 -13.4 -35.35 -14.6 -34.75 -14.6 -32.95 -14.0 -32.9 -13.95 -39.6 -26.1 -42.6 -30.3 -45.65 -29.1 -44.4 -26.85 -44.4 -28.5 -43.2 -29.1 -42.6 -29.1 -41.4 -28.5 M-42.6 -26.1 L-41.4 -27.3 -42.6 -28.5 -43.8 -27.9 -43.8 -26.7 -42.6 -26.1 M-3.9 -38.2 L-13.65 -43.65 -4.8 -28.25 -2.1 -36.35 -2.0 -36.45 -3.65 -38.5 -3.9 -38.2 M-4.5 -39.4 L0.35 -45.45 -16.0 -49.05 -17.2 -47.25 -5.1 -39.4 -4.5 -39.4 M-16.85 -45.45 L-21.45 -42.4 -21.45 -35.75 -13.55 -33.95 -16.6 -28.5 -0.85 -18.2 -15.15 -44.5 -16.85 -45.45 M-19.0 -29.7 L-17.8 -29.1 -17.8 -28.5 -17.8 -27.9 -19.0 -27.3 -20.25 -28.5 -19.6 -29.1 -19.6 -29.7 -19.0 -29.7 M-19.0 -27.9 L-17.8 -28.5 -19.0 -29.1 -19.6 -28.5 -19.0 -28.5 -19.0 -27.9 M-22.65 -40.0 L-22.65 -39.4 -23.85 -38.8 -25.05 -40.0 -24.45 -40.6 -24.45 -41.2 -23.85 -41.2 -22.65 -40.6 -22.65 -40.0 -23.85 -40.6 -24.45 -40.0 -23.85 -40.0 -23.85 -39.4 -22.65 -40.0 M-23.25 -35.15 L-22.05 -35.15 -21.45 -34.55 -22.05 -33.35 -23.25 -33.35 -22.05 -34.55 -23.25 -35.15 -23.85 -34.55 -23.25 -34.55 -23.25 -33.35 -23.85 -33.35 -24.45 -34.55 -23.85 -35.15 -23.25 -35.15 M-39.6 -20.65 L-40.2 -20.05 -39.6 -20.05 -39.6 -19.45 -38.35 -18.85 -37.15 -20.05 -38.35 -21.25 -39.6 -20.65 M-34.75 -14.6 L-35.95 -13.4 -35.35 -13.4 -35.35 -12.2 -33.55 -12.2 -32.95 -13.4 -33.55 -14.0 -34.75 -14.6 M-30.5 -3.7 L-28.7 -3.7 -28.7 -5.5 -29.9 -6.15 -31.1 -4.9 -30.5 -4.9 -30.5 -3.7 M-33.55 26.55 L-35.35 26.55 -35.35 28.35 -33.55 28.35 -34.75 28.95 -35.95 28.35 -35.95 26.55 -35.35 25.95 -34.75 25.95 -33.55 26.55 -32.95 27.75 -33.55 28.35 -33.55 26.55 M-40.8 27.75 L-40.8 27.15 -40.2 26.55 -39.6 26.55 -38.35 27.15 -37.75 28.35 -38.35 28.95 -39.6 29.55 -40.8 28.95 -40.8 27.75 -40.2 27.75 -40.2 28.95 -39.0 28.95 -38.35 27.75 -39.0 27.15 -40.2 27.15 -40.8 27.75 M-34.15 29.55 L-44.4 31.35 -44.4 33.8 -33.55 32.6 -34.15 29.55 M-30.5 39.25 L-29.9 36.2 -34.15 33.2 -42.6 35.0 -45.65 39.25 -36.55 47.1 -29.9 41.65 -30.5 40.45 -32.95 41.65 -37.15 39.85 -38.35 41.05 -37.15 36.8 -37.15 39.25 -32.95 40.45 -30.5 39.25 M-1.45 29.55 L-0.85 29.55 -0.25 30.15 0.35 29.55 -0.25 28.95 -1.45 29.55 M-8.15 28.35 L-6.9 28.35 -6.3 28.35 -5.7 28.95 -6.9 30.15 -8.15 29.55 -8.15 28.35 M-6.9 28.35 L-7.5 28.95 -6.9 28.95 -6.9 29.55 -6.3 28.95 -6.9 28.35 M-13.55 27.75 L-12.95 27.75 -12.35 28.35 -13.55 29.55 -14.8 28.95 -14.8 28.35 -14.8 27.75 -13.55 27.75 -14.8 28.35 -14.2 28.35 -13.55 28.95 -12.95 28.35 -13.55 27.75 M-19.0 27.15 L-19.6 27.75 -19.0 27.75 -19.0 28.35 -18.4 27.75 -19.0 27.15 -18.4 27.15 -17.8 27.75 -19.0 28.95 -20.25 28.35 -20.25 27.15 -19.0 27.15 M-43.8 27.75 L-45.65 27.75 -45.65 29.55 -43.8 29.55 -43.8 27.75 -43.2 28.95 -43.8 29.55 -45.0 30.15 -46.25 29.55 -46.25 27.75 -45.65 27.15 -45.0 27.15 -43.8 27.75" fill="#0d0f0d" fill-rule="evenodd" stroke="none"/>
      <path d="M16.65 -33.95 L17.9 -32.75 17.3 -32.75 16.65 -32.15 16.05 -32.75 16.65 -33.95 M25.15 -41.8 L26.35 -41.2 25.75 -41.2 25.15 -40.6 24.55 -41.2 25.15 -41.8 M23.95 -33.35 L23.3 -34.55 23.95 -35.15 25.15 -34.55 24.55 -34.55 23.95 -33.35 M20.9 -28.5 L20.3 -28.5 19.7 -27.9 19.1 -28.5 19.7 -29.1 20.9 -28.5 M1.55 -40.0 L1.55 -39.4 0.35 -39.4 -0.25 -40.0 0.95 -41.2 2.15 -40.0 1.55 -40.0 M6.4 -39.4 L2.15 -45.45 17.3 -49.7 19.7 -47.25 7.0 -39.4 6.4 -39.4 M6.4 -38.2 L18.95 -45.55 7.8 -27.95 3.95 -36.95 3.85 -36.95 5.6 -39.15 6.4 -38.2 M2.15 -27.9 L0.35 -27.9 -0.25 -28.5 0.95 -29.7 2.15 -29.1 2.15 -27.9 M12.45 -22.45 L11.85 -23.05 12.45 -23.65 13.05 -23.05 12.45 -23.05 12.45 -22.45 M4.55 -16.4 L3.35 -15.8 3.35 -16.4 2.75 -16.4 3.35 -17.6 4.55 -16.4 M23.7 -20.05 L23.95 -20.05 24.45 -18.8 23.7 -20.05 M0.95 -7.35 L0.35 -6.75 -0.25 -7.35 -0.85 -7.35 0.35 -7.95 0.95 -7.35 M0.35 -1.9 L0.95 -1.3 0.35 -0.7 -0.25 -1.3 -0.85 -1.3 0.35 -1.9 M-16.0 -32.15 L-16.0 -32.75 -16.6 -32.75 -16.0 -33.95 -14.8 -32.75 -16.0 -32.15 M-10.55 -21.85 L-9.35 -22.45 -8.75 -21.85 -9.35 -21.25 -9.95 -21.85 -10.55 -21.85 M-2.7 -16.4 L-1.45 -17.0 -0.85 -16.4 -1.45 -15.8 -2.1 -16.4 -2.7 -16.4 M38.45 -20.05 L39.65 -21.25 40.85 -20.65 41.45 -20.05 40.85 -20.05 40.85 -19.45 39.65 -18.85 38.45 -20.05 M30.6 -5.5 L31.8 -4.9 31.8 -3.1 30.0 -3.1 29.35 -4.3 30.6 -5.5 M34.2 -12.8 L34.8 -14.0 36.65 -14.0 36.65 -12.2 35.4 -11.55 34.2 -12.8 M45.1 26.55 L46.3 27.75 45.7 27.75 45.7 28.35 45.1 28.95 43.9 27.75 45.1 26.55 M41.45 27.15 L40.85 27.15 40.85 27.75 40.25 28.35 39.05 27.15 39.65 26.55 40.85 26.55 41.45 27.15 M45.1 33.2 L34.2 32.0 34.8 28.95 45.1 30.75 45.1 33.2 M-0.85 4.75 L0.35 4.15 0.95 4.75 0.35 5.35 -0.25 4.75 -0.85 4.75 M0.35 10.2 L0.95 11.4 0.35 12.0 -0.25 11.4 -0.85 11.4 0.35 10.2 M6.4 13.85 L17.8 15.0 6.4 14.45 6.4 13.85 M0.35 16.85 L0.95 17.45 0.35 18.05 0.35 17.45 -0.25 17.45 0.35 16.85 M-0.85 23.5 L0.35 22.9 0.95 23.5 0.35 24.1 -0.25 23.5 -0.85 23.5 M19.7 28.35 L19.1 27.75 19.7 27.15 20.9 27.75 20.3 27.75 19.7 28.35 M11.85 28.35 L13.05 27.75 13.65 28.35 13.05 28.35 13.05 28.95 11.85 28.35 M5.8 28.35 L6.4 28.95 5.8 28.95 5.8 30.15 4.55 28.95 5.8 28.35 M36.65 26.55 L36.05 26.55 36.05 27.15 35.4 27.75 34.2 26.55 35.4 25.3 36.65 26.55 M-42.6 -26.1 L-43.8 -26.7 -43.8 -27.9 -42.6 -28.5 -41.4 -27.3 -42.6 -26.1 M-4.5 -39.4 L-5.1 -39.4 -17.2 -47.25 -16.0 -49.05 0.35 -45.45 -4.5 -39.4 M-3.9 -38.2 L-3.65 -38.5 -2.0 -36.45 -2.1 -36.35 -4.8 -28.25 -13.65 -43.65 -3.9 -38.2 M-19.0 -27.9 L-19.0 -28.5 -19.6 -28.5 -19.0 -29.1 -17.8 -28.5 -19.0 -27.9 M-22.65 -40.0 L-23.85 -39.4 -23.85 -40.0 -24.45 -40.0 -23.85 -40.6 -22.65 -40.0 M-23.25 -35.15 L-22.05 -34.55 -23.25 -33.35 -23.25 -34.55 -23.85 -34.55 -23.25 -35.15 M-39.6 -20.65 L-38.35 -21.25 -37.15 -20.05 -38.35 -18.85 -39.6 -19.45 -39.6 -20.05 -40.2 -20.05 -39.6 -20.65 M-30.5 -3.7 L-30.5 -4.9 -31.1 -4.9 -29.9 -6.15 -28.7 -5.5 -28.7 -3.7 -30.5 -3.7 M-34.75 -14.6 L-33.55 -14.0 -32.95 -13.4 -33.55 -12.2 -35.35 -12.2 -35.35 -13.4 -35.95 -13.4 -34.75 -14.6 M-16.65 15.0 L-17.1 15.05 -16.75 15.0 -16.65 15.0 M-5.1 13.85 L-5.1 14.45 -16.55 15.0 -5.1 13.85 M-33.55 28.35 L-35.35 28.35 -35.35 26.55 -33.55 26.55 -33.55 28.35 M-40.8 27.75 L-40.2 27.15 -39.0 27.15 -38.35 27.75 -39.0 28.95 -40.2 28.95 -40.2 27.75 -40.8 27.75 M-34.15 29.55 L-33.55 32.6 -44.4 33.8 -44.4 31.35 -34.15 29.55 M-1.45 29.55 L-0.25 28.95 0.35 29.55 -0.25 30.15 -0.85 29.55 -1.45 29.55 M-6.9 28.35 L-6.3 28.95 -6.9 29.55 -6.9 28.95 -7.5 28.95 -6.9 28.35 M-13.55 27.75 L-12.95 28.35 -13.55 28.95 -14.2 28.35 -14.8 28.35 -13.55 27.75 M-19.0 27.15 L-18.4 27.75 -19.0 28.35 -19.0 27.75 -19.6 27.75 -19.0 27.15 M-43.8 27.75 L-43.8 29.55 -45.65 29.55 -45.65 27.75 -43.8 27.75" fill="#7e7e82" fill-rule="evenodd" stroke="none"/>
      <path d="M2.75 -40.0 L1.55 -41.2 0.95 -41.2 -0.25 -40.6 -0.85 -40.0 -0.25 -39.4 0.95 -38.8 2.15 -39.4 2.75 -40.0 M5.2 -39.4 L2.75 -36.95 -0.85 -36.95 -2.7 -38.8 0.95 -44.25 5.2 -39.4 M0.95 -30.3 L-0.25 -29.7 -0.85 -28.5 -0.25 -27.9 0.95 -27.3 2.75 -27.9 2.75 -29.7 1.55 -30.3 0.95 -30.3 M7.0 -27.9 L0.95 -17.0 -3.9 -27.9 -0.85 -36.35 2.75 -36.35 7.0 -27.9" fill="#191516" fill-rule="evenodd" stroke="none"/>
      <path d="M-31.85 25.35 L-32.9 25.4 -32.95 25.3 -34.75 25.55 -46.85 26.55 -48.65 -4.9 -45.0 -26.1 -32.3 -2.5 -30.5 -0.7 -33.55 15.05 -33.55 15.65 -31.9 24.25 -31.7 25.3 -31.85 25.35 M33.2 23.55 L36.05 14.45 32.4 -0.7 33.6 -2.5 46.3 -26.1 49.95 -4.9 47.5 25.95 33.1 24.1 33.0 24.1 33.2 23.55 M2.1 21.1 L2.15 -13.4 1.8 -13.4 23.95 -28.5 20.3 -32.15 26.95 -32.15 27.55 -40.6 42.05 -30.95 42.7 -30.95 20.9 8.4 22.1 25.3 21.5 25.3 19.9 25.5 2.15 27.15 2.15 26.65 2.1 21.1 M-20.85 25.3 L-19.6 8.4 -41.4 -30.95 -40.8 -30.95 -26.25 -40.6 -25.65 -32.15 -18.4 -32.15 -22.65 -28.5 -1.45 -13.4 -2.1 26.55 -19.0 25.45 -20.25 25.3 -20.85 25.3 M22.7 -35.75 L14.85 -33.95 15.5 -32.8 15.45 -32.75 15.65 -32.55 17.9 -28.5 2.75 -18.2 19.7 -45.45 23.3 -43.0 22.7 -35.75 M15.05 -16.5 L15.0 -16.5 11.85 -17.0 14.85 -16.4 15.05 -16.5 27.55 -14.6 28.15 -15.8 26.35 -15.8 24.45 -18.8 23.95 -20.05 23.7 -20.05 23.3 -20.65 22.1 -20.05 22.1 -20.65 21.5 -20.65 15.45 -17.0 15.75 -16.95 15.05 -16.5 M6.4 13.85 L6.4 14.45 17.8 15.0 6.4 13.85 M-16.85 -45.45 L-15.15 -44.5 -0.85 -18.2 -16.6 -28.5 -13.55 -33.95 -21.45 -35.75 -21.45 -42.4 -16.85 -45.45 M-16.65 15.0 L-16.75 15.0 -17.1 15.05 -16.65 15.0 M-5.1 13.85 L-16.55 15.0 -5.1 14.45 -5.1 13.85" fill="#261817" fill-rule="evenodd" stroke="none"/>
      <path d="M-32.9 25.4 L-32.3 28.95 -46.25 30.75 -46.85 27.15 -46.25 27.15 -34.75 25.55 -32.95 25.3 -32.9 25.4 M46.9 30.15 L33.0 27.75 33.6 24.7 46.9 26.55 47.5 26.55 46.9 30.15 M25.15 -41.8 L24.55 -41.8 23.95 -41.2 25.15 -40.0 26.35 -40.6 26.35 -32.75 18.5 -32.75 17.9 -33.95 16.65 -33.95 16.05 -33.95 15.8 -33.4 15.45 -33.95 23.3 -35.15 23.95 -43.0 25.95 -41.8 25.15 -41.8 M16.65 -32.15 L17.9 -32.15 18.2 -32.45 22.1 -28.5 13.65 -22.55 13.65 -23.65 13.05 -24.25 12.55 -24.25 18.5 -28.5 16.5 -32.15 16.65 -32.15 M26.35 -41.2 L26.35 -41.6 26.95 -41.2 26.35 -41.2 M23.95 -35.15 L23.3 -35.15 22.7 -34.55 23.3 -33.35 23.95 -33.35 25.15 -33.35 25.15 -34.55 25.15 -35.15 23.95 -35.15 M21.5 -28.5 L20.3 -29.7 19.7 -29.7 18.5 -28.5 19.7 -27.3 20.9 -27.9 21.5 -28.5 M22.1 25.3 L22.7 29.55 2.15 31.75 2.15 32.0 -21.45 29.55 -20.85 25.3 -20.25 25.3 -19.0 25.45 -1.45 27.15 -0.85 -13.4 1.55 -11.55 2.1 21.1 2.15 26.65 2.15 27.15 2.15 27.75 19.9 25.5 21.5 25.3 22.1 25.3 M3.35 -17.6 L3.2 -17.6 12.2 -24.0 11.25 -23.05 12.45 -21.85 13.25 -22.3 4.55 -16.15 4.55 -16.4 4.55 -17.6 3.35 -17.6 M3.35 -15.8 L4.1 -15.8 1.55 -14.0 1.55 -16.4 2.5 -17.1 2.15 -16.4 2.75 -15.8 3.35 -15.8 M1.55 -7.35 L0.35 -8.55 -0.25 -8.55 -0.85 -7.95 -0.85 -7.35 -0.85 -6.75 0.35 -6.75 0.95 -6.75 1.55 -7.35 M0.35 -0.1 L1.55 -1.3 0.35 -2.5 -0.25 -2.5 -0.85 -1.9 -0.85 -1.3 -0.85 -0.7 0.35 -0.1 M-2.7 -16.4 L-2.7 -15.8 -1.45 -15.2 -0.25 -16.4 -1.05 -17.2 0.95 -15.8 1.55 -12.2 -21.45 -28.5 -16.9 -32.45 -16.6 -32.15 -16.0 -32.15 -15.2 -32.15 -17.2 -28.5 -9.4 -23.05 -9.95 -23.05 -10.55 -22.45 -10.55 -21.85 -10.55 -21.25 -9.35 -20.65 -8.15 -21.85 -9.15 -22.85 -1.65 -17.6 -2.1 -17.6 -2.7 -17.0 -2.7 -16.4 M-16.0 -33.95 L-16.6 -33.95 -17.2 -32.75 -25.05 -32.75 -25.05 -40.0 -25.05 -41.2 -25.65 -41.2 -22.65 -43.0 -22.05 -35.15 -14.2 -33.95 -14.8 -32.9 -14.8 -33.95 -16.0 -33.95 M30.6 -5.5 L30.0 -5.5 33.6 -12.75 34.2 -11.55 35.4 -10.95 37.25 -11.55 37.85 -12.8 37.25 -14.0 36.05 -14.6 35.4 -14.6 34.25 -14.0 40.85 -26.1 43.9 -30.3 46.9 -29.1 42.0 -20.15 41.45 -21.25 40.25 -21.85 39.65 -21.85 38.45 -21.25 37.85 -20.05 38.45 -18.85 39.65 -18.2 41.25 -18.75 32.4 -2.5 31.8 -2.5 22.1 7.8 29.0 -3.85 29.35 -3.1 30.6 -2.5 32.4 -3.1 33.0 -4.3 32.4 -5.5 30.6 -5.5 M45.1 28.95 L46.3 28.95 46.9 27.75 46.3 26.55 45.1 26.55 43.9 26.55 43.9 27.75 43.9 28.95 45.1 28.95 M40.85 25.95 L40.25 25.95 39.05 26.55 38.45 27.15 39.05 28.35 40.25 28.95 41.45 28.35 42.05 27.15 40.85 25.95 M-0.85 4.75 L-0.85 5.35 0.35 5.95 1.55 4.75 0.35 3.55 -0.25 3.55 -0.85 4.15 -0.85 4.75 M0.35 12.0 L0.95 12.0 1.55 11.4 0.95 10.2 0.35 10.2 -0.85 10.2 -0.85 11.4 -0.85 12.0 0.35 12.0 M1.55 18.05 L1.55 16.85 0.35 16.25 -0.25 16.25 -0.25 16.85 -0.85 17.45 -0.25 18.05 0.35 18.05 1.55 18.05 M-0.85 23.5 L-0.85 24.1 0.35 24.7 1.55 23.5 0.35 22.3 -0.25 22.3 -0.85 22.9 -0.85 23.5 M20.9 27.75 L20.9 27.15 20.3 26.55 19.7 26.55 18.5 27.75 19.1 28.35 19.7 28.35 20.9 28.35 20.9 27.75 M13.05 28.95 L13.65 28.95 14.25 28.35 13.65 27.75 13.65 27.15 13.05 27.15 11.85 27.75 11.85 28.35 11.85 28.95 13.05 28.95 M5.8 30.15 L6.4 30.15 7.0 28.95 6.4 28.35 5.8 28.35 4.55 28.35 4.55 28.95 4.55 30.15 5.8 30.15 M0.95 29.55 L0.35 28.95 -0.25 28.95 -1.45 28.95 -1.45 29.55 -1.45 30.15 -0.25 30.75 0.95 29.55 M2.15 30.15 L2.75 30.15 2.75 28.95 2.15 28.35 2.15 30.15 M36.65 26.55 L36.65 25.95 36.05 25.3 35.4 25.3 34.2 25.95 33.6 26.55 34.2 27.75 35.4 27.75 36.65 27.75 36.65 26.55 M-41.4 -28.5 L-42.6 -29.1 -43.2 -29.1 -44.4 -28.5 -44.4 -26.85 -45.65 -29.1 -42.6 -30.3 -39.6 -26.1 -32.9 -13.95 -32.95 -14.0 -34.75 -14.6 -35.35 -14.6 -36.55 -13.4 -35.95 -12.2 Q-35.35 -11.9 -34.75 -11.55 L-32.95 -12.2 -32.45 -13.1 -28.8 -5.75 -29.9 -6.15 -30.5 -6.15 -31.7 -4.9 -31.1 -3.7 -29.9 -3.1 -28.1 -3.7 -27.85 -4.2 -20.25 7.8 -30.5 -2.5 -31.1 -2.5 -40.0 -18.75 -38.35 -18.2 -37.15 -18.85 -36.55 -20.05 -37.15 -21.25 -38.35 -21.85 -39.0 -21.85 -40.2 -21.25 -40.75 -20.15 -43.9 -25.9 -42.6 -25.5 -41.4 -26.1 -40.8 -27.3 -41.4 -28.5 M-19.0 -29.7 L-19.6 -29.7 -19.6 -29.1 -20.25 -28.5 -19.0 -27.3 -17.8 -27.9 -17.8 -28.5 -17.8 -29.1 -19.0 -29.7 M-22.65 -40.0 L-22.65 -40.6 -23.85 -41.2 -24.45 -41.2 -24.45 -40.6 -25.05 -40.0 -23.85 -38.8 -22.65 -39.4 -22.65 -40.0 M-23.25 -33.35 L-22.05 -33.35 -21.45 -34.55 -22.05 -35.15 -23.25 -35.15 -23.85 -35.15 -24.45 -34.55 -23.85 -33.35 -23.25 -33.35 M-33.55 26.55 L-34.75 25.95 -35.35 25.95 -35.95 26.55 -35.95 28.35 -34.75 28.95 -33.55 28.35 -32.95 27.75 -33.55 26.55 M-40.8 27.75 L-40.8 28.95 -39.6 29.55 -38.35 28.95 -37.75 28.35 -38.35 27.15 -39.6 26.55 -40.2 26.55 -40.8 27.15 -40.8 27.75 M-8.15 28.35 L-8.15 29.55 -6.9 30.15 -5.7 28.95 -6.3 28.35 -6.9 28.35 -8.15 28.35 M-13.55 27.75 L-14.8 27.75 -14.8 28.35 -14.8 28.95 -13.55 29.55 -12.35 28.35 -12.95 27.75 -13.55 27.75 M-19.0 27.15 L-20.25 27.15 -20.25 28.35 -19.0 28.95 -17.8 27.75 -18.4 27.15 -19.0 27.15 M-43.8 27.75 L-45.0 27.15 -45.65 27.15 -46.25 27.75 -46.25 29.55 -45.0 30.15 -43.8 29.55 -43.2 28.95 -43.8 27.75" fill="#181e16" fill-rule="evenodd" stroke="none"/>
      <path d="M46.3 38.65 L37.25 46.5 30.6 41.05 31.2 39.85 33.6 41.05 37.85 39.25 39.05 39.85 37.85 36.2 37.85 38.65 33.6 39.85 31.2 38.65 30.6 35.6 34.8 32.6 43.3 33.8 46.3 38.65 M-30.5 39.25 L-32.95 40.45 -37.15 39.25 -37.15 36.8 -38.35 41.05 -37.15 39.85 -32.95 41.65 -30.5 40.45 -29.9 41.65 -36.55 47.1 -45.65 39.25 -42.6 35.0 -34.15 33.2 -29.9 36.2 -30.5 39.25" fill="#f1e4e2" fill-rule="evenodd" stroke="none"/>
    </g>
  </defs>
</svg>
