<?xml version="1.0" encoding="UTF-8" standalone="no"?>
<svg xmlns:xlink="http://www.w3.org/1999/xlink" height="45.2px" width="218.4px" xmlns="http://www.w3.org/2000/svg">
  <g transform="matrix(1.0, 0.0, 0.0, 1.0, 8.35, 10.4)">
    <use height="16.75" transform="matrix(1.0, 0.0, 0.0, 1.0, 0.4, 11.35)" width="206.75" xlink:href="#shape0"/>
  </g>
  <defs>
    <g id="shape0" transform="matrix(1.0, 0.0, 0.0, 1.0, -0.4, -11.35)">
      <path d="M203.45 17.55 L203.45 13.2 207.15 13.2 207.15 27.85 203.45 27.9 199.4 21.35 197.85 18.3 198.2 20.75 198.2 27.85 194.6 27.85 194.6 13.15 198.8 13.15 202.3 18.6 Q203.3 20.15 203.75 21.4 203.45 19.5 203.45 17.55 M189.65 13.15 L193.1 13.15 189.25 27.85 185.45 27.85 183.4 19.8 181.5 27.85 177.55 27.85 173.65 13.15 177.85 13.2 179.85 21.6 181.9 13.2 185.45 13.15 187.6 21.65 189.65 13.15 M165.95 16.3 Q163.75 16.25 163.75 20.65 163.75 24.7 165.9 24.75 167.0 24.7 167.5 23.75 168.0 22.75 168.05 20.15 168.0 16.25 165.95 16.3 M170.95 14.95 Q172.9 16.95 172.9 20.4 172.85 23.85 170.95 26.0 168.95 28.1 165.9 28.1 162.8 28.05 160.85 26.05 158.85 24.0 158.9 20.55 158.9 17.2 160.8 15.15 162.65 13.0 165.95 13.0 169.0 13.0 170.95 14.95 M148.0 13.15 L158.3 13.15 158.3 16.65 155.3 16.65 155.3 27.8 151.05 27.8 151.05 16.65 147.95 16.65 148.0 13.15 M143.0 13.2 L146.7 13.15 146.7 27.85 143.0 27.85 138.95 21.35 137.4 18.3 137.75 20.75 137.75 27.85 134.15 27.8 134.15 13.15 138.35 13.15 141.85 18.6 143.3 21.35 Q143.0 19.5 143.0 17.55 L143.0 13.2 M125.3 24.7 Q126.35 24.65 126.9 23.7 127.4 22.7 127.4 20.1 127.4 16.2 125.35 16.25 123.15 16.2 123.15 20.6 123.1 24.65 125.3 24.7 M130.35 14.9 Q132.25 16.9 132.25 20.35 132.25 23.8 130.3 25.95 128.3 28.05 125.3 28.1 122.15 28.05 120.25 26.0 118.25 23.95 118.3 20.5 118.25 17.15 120.15 15.1 122.05 12.95 125.35 12.95 128.4 12.95 130.35 14.9 M102.45 16.65 L99.45 16.65 99.45 27.85 95.2 27.8 95.2 16.65 92.1 16.65 92.15 13.15 102.45 13.15 102.45 16.65 M110.05 24.75 Q111.15 24.7 111.65 23.75 112.15 22.7 112.2 20.1 112.15 16.25 110.15 16.25 107.9 16.2 107.9 20.6 107.9 24.7 110.05 24.75 M110.15 12.95 Q113.15 12.95 115.1 14.95 117.05 16.95 117.05 20.35 117.0 23.8 115.1 25.95 113.1 28.05 110.05 28.1 106.95 28.05 105.0 26.05 103.05 23.95 103.05 20.5 103.05 17.2 104.95 15.1 106.8 12.95 110.15 12.95 M86.6 16.65 L83.6 16.65 83.6 27.8 79.35 27.8 79.35 16.65 76.3 16.65 76.3 13.15 86.65 13.1 86.6 16.65 M69.55 24.65 L70.9 24.3 71.5 23.45 71.65 21.75 71.6 13.15 75.15 13.15 75.15 22.9 Q75.15 25.65 73.5 26.85 71.8 28.1 69.25 28.1 66.45 28.05 64.8 26.9 63.1 25.75 63.15 23.15 L63.15 13.2 67.7 13.15 67.7 22.6 Q67.7 23.6 68.15 24.1 68.6 24.6 69.55 24.65 M41.55 17.55 Q41.55 16.3 40.05 16.3 L38.05 16.3 38.05 18.75 40.15 18.75 Q40.95 18.75 41.25 18.4 L41.55 17.55 M44.75 14.35 Q45.8 15.5 45.85 17.0 45.8 18.1 45.2 19.05 44.55 19.85 43.35 20.2 46.2 20.9 46.2 23.6 46.2 25.25 45.2 26.55 44.15 27.8 40.9 27.85 L33.95 27.8 33.95 13.15 41.35 13.15 Q43.65 13.1 44.75 14.35 M41.85 23.3 Q41.85 22.8 41.45 22.3 41.1 21.95 40.1 21.95 L38.05 21.9 38.05 24.55 40.25 24.6 Q41.05 24.55 41.5 24.15 L41.85 23.3 M49.3 15.1 Q51.2 12.95 54.5 12.95 57.55 12.9 59.5 14.9 61.4 16.9 61.4 20.35 61.35 23.75 59.45 25.9 57.45 28.05 54.4 28.05 51.3 28.0 49.4 26.0 47.4 23.9 47.4 20.45 47.4 17.15 49.3 15.1 M54.4 24.7 Q55.5 24.65 56.05 23.7 56.55 22.7 56.55 20.1 56.55 16.2 54.5 16.25 52.25 16.2 52.25 20.55 52.25 24.65 54.4 24.7 M28.0 13.15 L32.55 27.8 28.0 27.85 27.1 24.95 23.2 24.9 22.3 27.8 18.7 27.8 23.25 13.1 28.0 13.15 M24.0 21.7 L26.4 21.75 25.15 17.5 24.0 21.7 M1.8 21.2 Q1.9 19.15 3.4 17.8 4.95 16.5 7.0 16.65 9.0 16.75 10.35 18.25 11.7 19.75 11.55 21.8 11.45 23.85 9.9 25.2 8.4 26.55 6.4 26.4 4.35 26.25 3.0 24.75 1.65 23.25 1.8 21.2" fill="#d25b2f" fill-rule="evenodd" stroke="none"/>
      <path d="M205.75 26.25 L202.05 26.3 198.0 19.75 196.45 16.7 196.8 19.15 196.8 26.25 193.2 26.25 193.2 11.55 197.4 11.55 200.9 17.0 202.35 19.8 Q202.05 17.9 202.05 15.95 L202.05 11.6 205.75 11.6 205.75 26.25 M191.7 11.55 L187.85 26.25 184.05 26.25 182.0 18.2 180.1 26.25 176.15 26.25 172.25 11.55 176.45 11.6 178.45 20.0 180.5 11.6 184.05 11.55 186.2 20.05 188.25 11.55 191.7 11.55 M164.55 14.7 Q162.35 14.65 162.35 19.05 162.35 23.1 164.5 23.15 165.6 23.1 166.1 22.15 166.6 21.15 166.65 18.55 166.6 14.65 164.55 14.7 M171.5 18.8 Q171.45 22.25 169.55 24.4 167.55 26.5 164.5 26.5 161.4 26.45 159.45 24.45 157.45 22.4 157.5 18.95 157.5 15.6 159.4 13.55 161.25 11.4 164.55 11.4 167.6 11.4 169.55 13.35 171.5 15.35 171.5 18.8 M146.55 15.05 L146.6 11.55 156.9 11.55 156.9 15.05 153.9 15.05 153.9 26.2 149.65 26.2 149.65 15.05 146.55 15.05 M136.95 11.55 L140.45 17.0 Q141.45 18.55 141.9 19.75 141.6 17.9 141.6 15.95 L141.6 11.6 145.3 11.55 145.3 26.25 141.6 26.25 137.55 19.75 136.0 16.7 136.35 19.15 136.35 26.25 132.75 26.2 132.75 11.55 136.95 11.55 M130.85 18.75 Q130.85 22.2 128.9 24.35 126.9 26.45 123.9 26.5 120.75 26.45 118.85 24.4 116.85 22.35 116.9 18.9 116.85 15.55 118.75 13.5 120.65 11.35 123.95 11.35 127.0 11.35 128.95 13.3 130.85 15.3 130.85 18.75 M123.95 14.65 Q121.75 14.6 121.75 19.0 121.7 23.05 123.9 23.1 124.95 23.05 125.5 22.1 126.0 21.1 126.0 18.5 126.0 14.6 123.95 14.65 M108.65 23.15 Q109.75 23.1 110.25 22.15 110.75 21.1 110.8 18.5 110.75 14.65 108.75 14.65 106.5 14.6 106.5 19.0 106.5 23.1 108.65 23.15 M101.65 18.9 Q101.65 15.6 103.55 13.5 105.4 11.35 108.75 11.35 111.75 11.35 113.7 13.35 115.65 15.35 115.65 18.75 115.6 22.2 113.7 24.35 111.7 26.45 108.65 26.5 105.55 26.45 103.6 24.45 101.65 22.35 101.65 18.9 M82.2 15.05 L82.2 26.2 77.95 26.2 77.95 15.05 74.9 15.05 74.9 11.55 85.25 11.5 85.2 15.05 82.2 15.05 M98.05 15.05 L98.05 26.25 93.8 26.2 93.8 15.05 90.7 15.05 90.75 11.55 101.05 11.55 101.05 15.05 98.05 15.05 M66.3 11.55 L66.3 21.0 Q66.3 22.0 66.75 22.5 67.2 23.0 68.15 23.05 68.95 23.05 69.5 22.7 L70.1 21.85 70.25 20.15 70.2 11.55 73.75 11.55 73.75 21.3 Q73.75 24.05 72.1 25.25 70.4 26.5 67.85 26.5 65.05 26.45 63.4 25.3 61.7 24.15 61.75 21.55 L61.75 11.6 66.3 11.55 M46.0 18.85 Q46.0 15.55 47.9 13.5 49.8 11.35 53.1 11.35 56.15 11.3 58.1 13.3 60.0 15.3 60.0 18.75 59.95 22.15 58.05 24.3 56.05 26.45 53.0 26.45 49.9 26.4 48.0 24.4 46.0 22.3 46.0 18.85 M43.8 17.45 L41.95 18.6 Q44.8 19.3 44.8 22.0 44.8 23.65 43.8 24.95 42.75 26.2 39.5 26.25 L32.55 26.2 32.55 11.55 39.95 11.55 Q42.25 11.5 43.35 12.75 44.4 13.9 44.45 15.4 44.4 16.5 43.8 17.45 M54.65 22.1 Q55.15 21.1 55.15 18.5 55.15 14.6 53.1 14.65 50.85 14.6 50.85 18.95 50.85 23.05 53.0 23.1 54.1 23.05 54.65 22.1 M26.6 11.55 L31.15 26.2 26.6 26.25 25.7 23.35 21.8 23.3 20.9 26.2 17.3 26.2 21.85 11.5 26.6 11.55 M22.6 20.1 L25.0 20.15 23.75 15.9 22.6 20.1 M36.65 14.7 L36.65 17.15 38.75 17.15 39.85 16.8 40.15 15.95 Q40.15 14.7 38.65 14.7 L36.65 14.7 M36.65 22.95 L38.85 23.0 Q39.65 22.95 40.1 22.55 L40.45 21.7 40.05 20.7 Q39.7 20.35 38.7 20.35 L36.65 20.3 36.65 22.95 M8.5 23.6 Q7.0 24.95 5.0 24.8 2.95 24.65 1.6 23.15 0.25 21.65 0.4 19.6 0.5 17.55 2.0 16.2 3.55 14.9 5.6 15.05 7.6 15.15 8.95 16.65 10.3 18.15 10.15 20.2 10.05 22.25 8.5 23.6" fill="#f9f309" fill-rule="evenodd" stroke="none"/>
    </g>
  </defs>
</svg>
