<?xml version="1.0" encoding="UTF-8" standalone="no"?>
<svg xmlns:xlink="http://www.w3.org/1999/xlink" height="285.4px" width="344.5px" xmlns="http://www.w3.org/2000/svg">
  <g transform="matrix(1.0, 0.0, 0.0, 1.0, 161.95, 206.75)">
    <use height="122.15" transform="matrix(1.0, 0.0, 0.0, 1.0, -161.95, -72.7)" width="324.25" xlink:href="#shape0"/>
    <use height="30.6" transform="matrix(1.0, 0.0, 0.0, 1.0, -64.9, -78.75)" width="80.05" xlink:href="#shape1"/>
    <use height="50.5" transform="matrix(0.7272, 0.0, 0.0, 0.7272, -84.0701, 35.0506)" width="223.5" xlink:href="#shape2"/>
  </g>
  <defs>
    <g id="shape0" transform="matrix(1.0, 0.0, 0.0, 1.0, 162.1, 58.05)">
      <path d="M57.6 -38.95 L58.05 -41.05 48.9 -47.35 48.55 -43.9 57.6 -38.95 M48.25 -41.05 L47.55 -34.7 49.3 -33.9 57.25 -36.1 48.25 -41.05 M59.75 -42.3 L58.8 -36.6 64.3 -38.75 Q68.85 -36.65 73.35 -34.6 L74.05 -32.55 Q76.65 -24.55 76.2 -16.2 L80.55 -16.0 81.4 -24.85 107.8 -23.45 107.75 -31.3 144.3 -36.55 129.95 23.7 Q132.65 27.7 132.1 32.55 131.6 36.7 128.65 39.6 L127.35 40.6 Q126.55 41.2 125.6 41.5 117.2 43.3 108.3 44.15 L95.45 45.7 79.6 47.6 76.65 49.65 73.75 51.25 Q71.9 52.15 69.95 52.15 L68.1 51.7 66.6 51.0 64.15 49.0 63.9 48.7 Q60.7 44.95 60.5 39.85 L56.7 38.05 54.1 43.1 53.65 43.85 51.35 45.55 Q41.75 52.2 30.05 53.1 17.7 53.6 9.5 44.4 L8.6 42.65 7.4 39.45 7.35 39.3 8.7 32.1 -18.4 30.05 -17.3 24.1 -22.35 23.95 -23.05 28.0 -45.2 27.05 -43.7 20.25 Q-46.55 22.0 -49.85 21.5 L-53.9 20.4 Q-55.75 19.75 -57.05 18.25 L-58.35 21.65 Q-61.3 28.85 -68.2 32.25 -73.25 34.85 -79.0 34.0 -82.6 33.45 -85.85 31.6 L-84.25 38.2 -117.15 52.95 -123.65 -2.05 -142.1 4.2 -152.65 -37.55 -96.35 -34.05 -93.65 -22.6 Q-91.0 -25.15 -87.85 -26.95 -85.9 -28.0 -83.8 -28.7 -81.8 -29.5 -79.6 -29.65 -77.7 -30.0 -75.8 -29.6 -71.85 -28.8 -68.8 -26.3 -66.05 -24.05 -63.85 -21.0 -61.15 -17.4 -59.45 -13.3 -56.8 -16.3 -53.3 -18.05 -49.75 -19.8 -45.9 -20.35 -41.7 -20.2 -38.25 -17.4 -35.3 -15.0 -33.8 -11.35 L-25.35 -11.9 -23.95 -26.95 25.2 -34.55 26.85 -43.55 Q36.6 -49.6 47.8 -50.95 L59.75 -42.3 M45.0 -32.7 L45.25 -42.85 39.0 -41.75 Q35.25 -40.85 31.65 -39.2 L30.3 -31.15 25.15 -28.1 25.0 -27.05 23.95 -19.7 23.75 -18.35 22.65 -10.9 22.15 -7.55 13.25 -8.3 13.05 -4.05 18.6 -1.35 16.45 5.55 15.75 7.7 11.45 8.45 11.0 12.1 10.8 13.45 10.45 16.4 10.8 22.3 14.8 23.7 15.75 29.05 14.95 31.5 13.3 36.7 14.6 39.4 Q15.65 41.75 18.05 43.3 L19.25 44.1 24.65 37.25 Q27.15 37.4 29.5 36.4 L36.25 43.0 Q41.25 40.65 43.8 35.85 L45.85 31.95 42.85 25.0 44.9 20.95 45.35 20.0 46.3 20.35 47.0 20.55 52.2 22.35 54.65 18.25 58.95 4.25 59.4 0.6 57.25 -0.4 54.05 -1.85 54.55 -5.3 Q54.75 -7.65 54.6 -10.3 L61.7 -15.05 Q62.7 -19.85 62.05 -24.0 L61.95 -24.5 61.0 -28.15 60.2 -30.0 59.5 -31.3 51.0 -28.3 50.7 -28.7 Q48.4 -31.45 45.0 -32.1 L45.0 -32.7 M44.7 -17.35 L42.3 -20.3 Q41.0 -21.5 39.6 -22.2 L35.9 -23.1 Q34.0 -23.1 32.0 -22.0 30.95 -21.45 29.85 -20.55 L29.65 -21.3 Q32.45 -25.9 37.7 -26.95 41.15 -27.45 44.0 -25.4 L45.5 -23.85 48.15 -18.3 Q49.2 -14.05 48.75 -7.45 L48.1 -7.15 Q47.85 -10.75 46.35 -14.3 L44.7 -17.35 M24.9 3.15 Q25.45 -3.15 28.5 -8.5 30.1 -11.25 32.9 -13.05 35.0 -14.45 37.65 -13.85 39.5 -13.45 40.65 -11.8 43.6 -7.45 43.25 -2.1 L42.5 3.8 41.15 7.85 Q40.05 10.7 38.15 13.1 36.05 15.85 32.85 16.45 30.9 16.75 29.35 15.85 26.95 14.6 26.15 12.0 25.45 10.5 25.15 8.75 L24.9 3.15 M4.95 26.6 L5.15 -11.4 17.2 -11.0 17.2 -11.05 19.65 -29.45 -18.3 -23.3 -18.3 -12.05 -7.85 -11.4 -12.4 24.5 4.95 26.6 M19.05 14.0 Q19.05 12.8 19.2 11.5 L20.05 10.9 Q20.25 12.3 20.6 13.6 21.7 18.1 23.9 20.7 26.65 24.0 30.3 24.3 33.9 24.55 37.5 22.05 41.2 19.45 44.0 14.2 L44.65 14.5 Q43.2 18.95 41.4 21.9 L38.95 25.05 37.25 26.55 Q32.75 30.45 26.95 29.8 L27.0 29.85 Q28.15 31.15 29.8 31.75 32.55 32.75 35.3 31.85 L35.5 32.5 Q32.55 34.45 29.05 34.05 25.4 33.5 23.1 30.65 22.0 29.35 21.15 27.5 L20.65 26.4 Q18.7 21.6 19.05 14.0 M34.8 -1.55 L28.95 -6.1 27.95 -4.0 34.45 -0.4 34.8 -1.55 M26.35 2.3 Q25.95 4.5 26.3 6.65 L33.35 6.05 34.0 1.45 27.15 -1.6 26.35 2.3 M35.5 11.4 L37.2 8.75 Q41.6 1.15 39.5 -7.7 33.75 1.05 35.5 11.4 M72.15 -33.3 L65.75 -36.2 66.5 -32.65 73.45 -29.75 72.15 -33.3 M74.4 -16.9 Q74.85 -21.55 74.1 -26.25 L67.1 -28.15 Q67.9 -23.05 67.25 -17.75 L74.4 -16.6 74.4 -16.9 M79.85 -7.8 L77.55 -2.65 75.5 -10.25 63.45 -9.9 63.45 -9.8 68.1 23.3 77.1 23.5 80.55 16.65 84.05 25.75 92.7 25.6 98.05 -15.9 84.2 -15.15 82.55 -2.75 79.85 -7.8 M152.8 -49.65 L152.9 -50.5 Q154.55 -51.75 156.3 -50.3 L156.4 -49.75 155.45 -49.65 154.9 -50.35 153.85 -50.2 Q153.3 -49.6 156.35 -48.4 156.75 -47.0 156.05 -46.45 L153.45 -46.3 152.55 -47.75 153.55 -47.9 154.25 -47.0 Q155.8 -46.75 155.35 -47.9 L154.25 -48.3 Q153.35 -48.6 152.8 -49.65 M158.85 -51.1 L159.8 -47.7 160.65 -51.1 162.15 -51.1 162.15 -46.15 161.25 -46.15 161.25 -50.05 160.2 -46.15 159.3 -46.15 158.3 -50.05 158.3 -46.15 157.4 -46.15 157.4 -51.1 158.85 -51.1 M114.5 -25.85 L114.6 -10.1 114.55 -10.1 112.2 -14.45 100.8 -14.55 99.05 23.35 111.4 23.0 112.3 14.55 115.55 20.3 125.5 20.25 125.6 20.25 135.2 -27.95 114.5 -25.85 M109.65 39.25 L110.15 33.45 111.6 39.25 115.45 38.75 116.4 28.55 113.35 28.85 113.1 35.3 111.75 29.5 106.75 29.95 106.85 39.55 109.65 39.25 M125.3 29.8 L125.75 27.6 118.5 28.3 117.95 38.55 124.0 37.85 124.5 36.05 121.15 36.4 121.35 34.25 124.05 34.05 124.6 32.15 121.55 32.4 121.8 30.15 125.3 29.8 M103.65 39.75 L104.7 29.5 100.85 29.9 100.6 40.0 103.65 39.75 M96.0 38.55 L96.95 30.2 93.15 30.55 92.75 40.75 98.85 40.1 99.0 38.4 96.0 38.55 M87.55 31.35 L87.3 37.8 85.95 32.05 80.95 32.45 81.05 42.1 83.85 41.75 84.35 35.95 85.8 41.75 89.65 41.3 90.6 31.05 87.55 31.35 M64.75 17.1 L60.25 14.8 56.35 23.75 61.85 26.4 64.75 17.1 M65.7 36.15 Q64.95 39.8 66.25 42.65 67.5 45.4 70.2 45.95 72.95 46.35 75.25 44.25 77.6 42.1 78.45 38.4 79.2 34.65 77.9 31.9 76.65 29.1 74.0 28.55 71.2 28.15 68.9 30.3 66.55 32.4 65.7 36.15 M73.5 33.0 Q74.35 34.85 74.15 37.0 73.85 41.05 71.7 44.25 70.6 42.1 70.55 39.65 70.4 34.95 72.0 30.6 L73.5 33.0 M55.95 35.5 L55.85 31.6 46.2 26.95 48.45 32.15 55.95 35.5 M25.7 40.6 L22.85 45.95 24.5 46.2 26.85 46.0 29.65 46.1 Q29.55 45.3 29.8 45.2 L29.9 41.7 25.7 40.6 M-86.95 -39.55 Q-84.95 -41.55 -82.15 -42.25 -75.6 -43.4 -70.2 -39.35 -66.05 -36.3 -63.85 -31.6 L-65.8 -30.1 Q-69.65 -33.9 -74.9 -35.1 -78.3 -35.95 -81.75 -35.25 -86.85 -34.05 -90.4 -29.95 L-91.9 -30.75 Q-90.65 -35.9 -86.95 -39.55 M-143.8 -29.35 L-137.4 -4.05 -120.4 -8.85 -112.65 41.75 -89.95 33.95 -89.4 33.75 -104.85 -13.45 -104.85 -13.55 -95.4 -16.4 -98.65 -29.2 -143.8 -29.35 M-89.0 -13.1 L-89.35 -11.85 -90.15 -7.7 Q-90.9 -3.0 -90.4 1.55 -89.95 6.0 -88.7 10.3 -87.35 14.85 -84.7 18.85 -82.05 22.95 -77.75 25.15 -72.45 27.85 -67.75 24.2 -63.55 21.1 -62.05 16.15 -60.8 12.05 -60.45 7.8 -60.0 2.55 -60.9 -2.85 -61.65 -7.4 -63.3 -11.35 -65.4 -16.35 -69.25 -20.2 -72.55 -23.45 -76.95 -23.7 -80.2 -23.85 -82.85 -21.85 -87.25 -18.55 -89.0 -13.1 M-45.05 -15.75 L-47.0 -15.0 Q-51.85 -12.35 -53.75 -6.9 -55.4 -2.2 -55.0 2.9 -54.6 8.5 -50.25 12.05 -47.5 14.25 -44.0 13.0 -41.4 12.15 -39.8 9.75 -36.85 5.35 -35.95 0.2 -35.05 -4.65 -36.4 -9.3 -37.95 -14.6 -43.15 -15.4 L-45.05 -15.75 M-43.15 -28.7 Q-39.55 -27.5 -36.65 -22.65 L-38.5 -21.7 Q-41.8 -24.3 -45.4 -24.7 -49.05 -25.1 -52.6 -22.25 L-54.3 -23.15 Q-52.95 -26.75 -49.9 -28.35 -46.75 -29.9 -43.15 -28.7 M-44.1 -7.55 L-42.8 -7.85 -41.7 -7.65 Q-39.9 -7.2 -39.1 -5.45 -37.9 -2.9 -37.95 0.0 -37.95 2.65 -39.5 4.85 -40.5 6.25 -42.05 6.6 -44.3 7.0 -45.55 5.25 L-46.7 3.05 Q-48.05 -0.65 -46.75 -4.4 -43.1 -3.95 -41.2 -0.85 L-41.15 -1.85 Q-41.0 -5.65 -44.1 -7.55 M-71.65 -10.35 L-70.2 -10.45 -69.05 -9.9 -66.75 -7.95 Q-64.15 -5.2 -63.35 -1.55 -62.75 1.1 -62.55 3.9 -62.3 7.45 -63.95 10.6 -65.25 13.1 -67.95 13.5 -70.05 13.6 -71.6 12.2 -74.8 9.4 -76.05 5.45 -77.45 1.0 -76.85 -3.7 L-73.25 -3.35 Q-69.65 -2.15 -67.6 1.2 -67.95 -0.65 -68.6 -2.4 -69.25 -4.25 -70.3 -5.9 -71.75 -8.15 -74.2 -9.35 L-71.65 -10.35 M-17.35 16.9 L-17.35 16.95 -20.7 17.1 -17.35 16.9 M-16.25 18.3 L-15.15 19.65 -13.4 -7.75 -25.8 -6.7 -23.95 5.85 -25.25 -1.45 -32.5 -2.25 -32.7 0.1 -32.9 2.35 Q-33.45 7.55 -36.1 12.25 -37.3 14.55 -38.95 16.4 L-39.65 21.9 -25.9 22.4 -25.65 15.6 -23.15 19.4 -15.15 19.7 -16.25 18.3 M-23.65 7.4 L-23.55 4.95 -23.6 7.7 -23.65 7.4 M-31.45 19.8 L-28.2 19.9 -28.2 19.95 -31.45 19.8" fill="#000000" fill-rule="evenodd" stroke="none"/>
      <path d="M51.4 -58.05 Q57.95 -57.6 63.65 -54.45 69.0 -51.4 72.8 -46.35 76.9 -40.85 79.15 -34.35 L113.5 -40.55 126.0 -42.8 137.3 -45.05 144.4 -45.55 Q147.05 -45.35 149.3 -43.6 150.45 -42.65 151.25 -41.25 152.55 -39.0 152.45 -36.3 152.3 -32.8 151.4 -29.5 L149.05 -20.4 139.15 21.0 Q141.8 25.8 141.65 31.3 141.5 35.5 139.9 39.45 137.05 46.3 130.1 49.05 L127.85 49.75 75.45 56.9 72.25 57.4 67.2 58.1 65.05 58.35 58.65 57.8 58.25 57.7 50.95 54.9 50.65 54.8 50.25 55.05 47.2 57.1 Q37.15 63.75 24.95 63.0 13.75 61.9 6.1 54.0 1.55 49.05 -1.15 42.85 L-2.75 38.6 -54.9 34.3 Q-57.75 38.15 -62.3 39.8 -65.6 40.95 -68.9 41.25 -72.85 41.5 -76.8 40.5 -76.4 42.3 -76.9 43.8 -78.55 46.15 -80.85 47.8 L-111.55 61.85 Q-114.75 63.75 -118.55 64.05 -121.4 64.3 -123.2 62.1 -125.25 59.7 -125.6 56.5 L-127.9 32.7 Q-128.75 22.05 -130.05 11.4 -134.3 13.05 -138.7 14.4 L-141.3 14.95 Q-144.55 15.0 -146.85 12.95 -148.75 11.25 -149.5 8.8 L-158.15 -20.5 -161.25 -32.35 Q-161.9 -35.0 -162.1 -37.75 L-161.85 -40.5 Q-161.5 -41.8 -160.65 -42.8 L-158.15 -45.1 Q-156.85 -46.0 -155.25 -46.2 L-147.5 -46.0 -138.6 -44.7 -103.8 -40.55 -99.6 -40.05 Q-96.2 -44.6 -91.3 -47.3 L-87.7 -48.95 Q-85.0 -49.8 -82.0 -49.75 -76.35 -49.65 -71.6 -47.2 -65.75 -44.15 -61.35 -39.2 -58.45 -36.0 -56.2 -32.0 -50.6 -35.45 -44.2 -35.5 L-38.25 -34.1 -35.6 -32.95 Q-33.7 -31.95 -32.3 -30.35 L-30.4 -28.1 Q-26.7 -34.3 -19.45 -34.6 L-12.8 -35.65 0.8 -37.65 9.25 -38.9 14.3 -39.7 Q18.95 -44.95 24.55 -49.0 34.15 -55.85 45.85 -57.6 L51.4 -58.05 M59.75 -42.3 L47.8 -50.95 Q36.6 -49.6 26.85 -43.55 L25.2 -34.55 -23.95 -26.95 -25.35 -11.9 -33.8 -11.35 Q-35.3 -15.0 -38.25 -17.4 -41.7 -20.2 -45.9 -20.35 -49.75 -19.8 -53.3 -18.05 -56.8 -16.3 -59.45 -13.3 -61.15 -17.4 -63.85 -21.0 -66.05 -24.05 -68.8 -26.3 -71.85 -28.8 -75.8 -29.6 -77.7 -30.0 -79.6 -29.65 -81.8 -29.5 -83.8 -28.7 -85.9 -28.0 -87.85 -26.95 -91.0 -25.15 -93.65 -22.6 L-96.35 -34.05 -152.65 -37.55 -142.1 4.2 -123.65 -2.05 -117.15 52.95 -84.25 38.2 -85.85 31.6 Q-82.6 33.45 -79.0 34.0 -73.25 34.85 -68.2 32.25 -61.3 28.85 -58.35 21.65 L-57.05 18.25 Q-55.75 19.75 -53.9 20.4 L-49.85 21.5 Q-46.55 22.0 -43.7 20.25 L-45.2 27.05 -23.05 28.0 -22.35 23.95 -17.3 24.1 -18.4 30.05 8.7 32.1 7.35 39.3 7.4 39.45 8.6 42.65 9.5 44.4 Q17.7 53.6 30.05 53.1 41.75 52.2 51.35 45.55 L53.65 43.85 54.1 43.1 56.7 38.05 60.5 39.85 Q60.7 44.95 63.9 48.7 L64.15 49.0 66.6 51.0 68.1 51.7 69.95 52.15 Q71.9 52.15 73.75 51.25 L76.65 49.65 79.6 47.6 95.45 45.7 108.3 44.15 Q117.2 43.3 125.6 41.5 126.55 41.2 127.35 40.6 L128.65 39.6 Q131.6 36.7 132.1 32.55 132.65 27.7 129.95 23.7 L144.3 -36.55 107.75 -31.3 107.8 -23.45 81.4 -24.85 80.55 -16.0 76.2 -16.2 Q76.65 -24.55 74.05 -32.55 L73.35 -34.6 Q68.85 -36.65 64.3 -38.75 L58.8 -36.6 59.75 -42.3 M-86.95 -39.55 Q-90.65 -35.9 -91.9 -30.75 L-90.4 -29.95 Q-86.85 -34.05 -81.75 -35.25 -78.3 -35.95 -74.9 -35.1 -69.65 -33.9 -65.8 -30.1 L-63.85 -31.6 Q-66.05 -36.3 -70.2 -39.35 -75.6 -43.4 -82.15 -42.25 -84.95 -41.55 -86.95 -39.55 M-43.15 -28.7 Q-46.75 -29.9 -49.9 -28.35 -52.95 -26.75 -54.3 -23.15 L-52.6 -22.25 Q-49.05 -25.1 -45.4 -24.7 -41.8 -24.3 -38.5 -21.7 L-36.65 -22.65 Q-39.55 -27.5 -43.15 -28.7" fill="#f8350f" fill-rule="evenodd" stroke="none"/>
      <path d="M57.6 -38.95 L48.55 -43.9 48.9 -47.35 58.05 -41.05 57.6 -38.95 M48.25 -41.05 L57.25 -36.1 49.3 -33.9 47.55 -34.7 48.25 -41.05 M25.0 -27.05 L45.0 -32.7 45.0 -32.1 Q48.4 -31.45 50.7 -28.7 L51.0 -28.3 59.5 -31.3 60.2 -30.0 44.0 -25.4 Q41.15 -27.45 37.7 -26.95 32.45 -25.9 29.65 -21.3 L23.95 -19.7 25.0 -27.05 M61.0 -28.15 L61.95 -24.5 62.2 -22.2 48.15 -18.3 45.5 -23.85 61.0 -28.15 M54.55 -5.3 L54.05 -1.85 57.25 -0.4 42.5 3.8 43.25 -2.1 54.55 -5.3 M58.95 4.25 L54.65 18.25 46.65 20.45 46.3 20.35 45.35 20.0 44.9 20.95 41.4 21.9 Q43.2 18.95 44.65 14.5 L44.0 14.2 Q41.2 19.45 37.5 22.05 33.9 24.55 30.3 24.3 26.65 24.0 23.9 20.7 21.7 18.1 20.6 13.6 L26.15 12.0 Q26.95 14.6 29.35 15.85 30.9 16.75 32.85 16.45 36.05 15.85 38.15 13.1 40.05 10.7 41.15 7.85 L59.15 2.85 58.95 4.25 M14.6 39.4 L13.3 36.7 14.25 34.0 14.55 33.15 23.1 30.65 Q25.4 33.5 29.05 34.05 32.55 34.45 35.5 32.5 L35.3 31.85 Q32.55 32.75 29.8 31.75 28.15 31.15 27.0 29.85 L26.95 29.8 Q32.75 30.45 37.25 26.55 L42.8 25.0 45.25 30.6 14.6 39.4 M15.75 29.05 L14.8 23.7 10.8 22.3 10.45 16.4 19.05 14.0 Q18.7 21.6 20.65 26.4 L21.15 27.5 15.75 29.05 M11.0 12.1 L11.45 8.45 15.75 7.7 16.45 5.55 24.9 3.15 25.15 8.75 10.9 12.8 11.0 12.1 M22.7 -11.2 L23.65 -17.75 39.6 -22.2 Q41.0 -21.5 42.3 -20.3 L44.7 -17.35 22.7 -11.2 M35.9 -23.1 L32.0 -22.0 Q34.0 -23.1 35.9 -23.1 M34.8 -1.55 L34.45 -0.4 27.95 -4.0 28.95 -6.1 34.8 -1.55 M26.35 2.3 L27.15 -1.6 34.0 1.45 33.35 6.05 26.3 6.65 Q25.95 4.5 26.35 2.3 M74.4 -16.9 L74.4 -16.6 67.25 -17.75 Q67.9 -23.05 67.1 -28.15 L74.1 -26.25 Q74.85 -21.55 74.4 -16.9 M72.15 -33.3 L73.45 -29.75 66.5 -32.65 65.75 -36.2 72.15 -33.3 M64.75 17.1 L61.85 26.4 56.35 23.75 60.25 14.8 64.75 17.1 M55.95 35.5 L48.45 32.15 46.2 26.95 55.85 31.6 55.95 35.5 M25.7 40.6 L29.9 41.7 29.8 45.2 Q29.55 45.3 29.65 46.1 L26.85 46.0 24.5 46.2 22.85 45.95 25.7 40.6" fill="#a6a6a6" fill-rule="evenodd" stroke="none"/>
      <path d="M25.0 -27.05 L25.15 -28.1 30.3 -31.15 31.65 -39.2 Q35.25 -40.85 39.0 -41.75 L45.25 -42.85 45.0 -32.7 25.0 -27.05 M60.2 -30.0 L61.0 -28.15 45.5 -23.85 44.0 -25.4 60.2 -30.0 M61.95 -24.5 L62.05 -24.0 Q62.7 -19.85 61.7 -15.05 L54.6 -10.3 Q54.75 -7.65 54.55 -5.3 L43.25 -2.1 Q43.6 -7.45 40.65 -11.8 39.5 -13.45 37.65 -13.85 35.0 -14.45 32.9 -13.05 30.1 -11.25 28.5 -8.5 25.45 -3.15 24.9 3.15 L16.45 5.55 18.6 -1.35 13.05 -4.05 13.25 -8.3 22.15 -7.55 22.65 -10.9 22.7 -11.2 44.7 -17.35 46.35 -14.3 Q47.85 -10.75 48.1 -7.15 L48.75 -7.45 Q49.2 -14.05 48.15 -18.3 L62.2 -22.2 61.95 -24.5 M57.25 -0.4 L59.4 0.6 58.95 4.25 59.15 2.85 41.15 7.85 42.5 3.8 57.25 -0.4 M54.65 18.25 L52.2 22.35 47.0 20.55 46.65 20.45 54.65 18.25 M44.9 20.95 L42.85 25.0 45.85 31.95 43.8 35.85 Q41.25 40.65 36.25 43.0 L29.5 36.4 Q27.15 37.4 24.65 37.25 L19.25 44.1 18.05 43.3 Q15.65 41.75 14.6 39.4 L45.25 30.6 42.8 25.0 37.25 26.55 38.95 25.05 41.4 21.9 44.9 20.95 M14.95 31.5 L15.75 29.05 21.15 27.5 Q22.0 29.35 23.1 30.65 L14.55 33.15 14.25 34.0 14.95 31.5 M10.45 16.4 L10.8 13.45 10.9 12.8 25.15 8.75 Q25.45 10.5 26.15 12.0 L20.6 13.6 Q20.25 12.3 20.05 10.9 L19.2 11.5 Q19.05 12.8 19.05 14.0 L10.45 16.4 M23.75 -18.35 L23.95 -19.7 29.65 -21.3 29.85 -20.55 Q30.95 -21.45 32.0 -22.0 L35.9 -23.1 39.6 -22.2 23.65 -17.75 23.75 -18.35 M-89.0 -13.1 Q-87.25 -18.55 -82.85 -21.85 -80.2 -23.85 -76.95 -23.7 -72.55 -23.45 -69.25 -20.2 -65.4 -16.35 -63.3 -11.35 -61.65 -7.4 -60.9 -2.85 -60.0 2.55 -60.45 7.8 -60.8 12.05 -62.05 16.15 -63.55 21.1 -67.75 24.2 -72.45 27.85 -77.75 25.15 -82.05 22.95 -84.7 18.85 -87.35 14.85 -88.7 10.3 -89.95 6.0 -90.4 1.55 -90.9 -3.0 -90.15 -7.7 L-89.35 -11.85 -89.0 -13.1 M-45.05 -15.75 L-43.15 -15.4 Q-37.95 -14.6 -36.4 -9.3 -35.05 -4.65 -35.95 0.2 -36.85 5.35 -39.8 9.75 -41.4 12.15 -44.0 13.0 -47.5 14.25 -50.25 12.05 -54.6 8.5 -55.0 2.9 -55.4 -2.2 -53.75 -6.9 -51.85 -12.35 -47.0 -15.0 L-45.05 -15.75 M-71.65 -10.35 L-74.2 -9.35 Q-71.75 -8.15 -70.3 -5.9 -69.25 -4.25 -68.6 -2.4 -67.95 -0.65 -67.6 1.2 -69.65 -2.15 -73.25 -3.35 L-76.85 -3.7 Q-77.45 1.0 -76.05 5.45 -74.8 9.4 -71.6 12.2 -70.05 13.6 -67.95 13.5 -65.25 13.1 -63.95 10.6 -62.3 7.45 -62.55 3.9 -62.75 1.1 -63.35 -1.55 -64.15 -5.2 -66.75 -7.95 L-69.05 -9.9 -70.2 -10.45 -71.65 -10.35 M-44.1 -7.55 Q-41.0 -5.65 -41.15 -1.85 L-41.2 -0.85 Q-43.1 -3.95 -46.75 -4.4 -48.05 -0.65 -46.7 3.05 L-45.55 5.25 Q-44.3 7.0 -42.05 6.6 -40.5 6.25 -39.5 4.85 -37.95 2.65 -37.95 0.0 -37.9 -2.9 -39.1 -5.45 -39.9 -7.2 -41.7 -7.65 L-42.8 -7.85 -44.1 -7.55" fill="#ffffff" fill-rule="evenodd" stroke="none"/>
      <path d="M2.7 -13.95 L5.15 -11.4 4.95 26.6 2.6 23.9 2.7 -13.95 M16.25 -12.2 L15.15 -13.55 16.9 -26.6 -15.85 -21.4 -18.3 -23.3 19.65 -29.45 17.2 -11.05 16.25 -12.2 M79.85 -7.8 L82.55 -2.75 84.65 6.55 80.25 -2.3 80.0 -5.3 79.85 -7.8 M84.2 -15.15 L98.05 -15.9 92.7 25.6 90.85 23.35 95.6 -13.45 86.6 -12.95 84.2 -15.15 M80.55 16.65 L77.1 23.5 76.35 22.45 75.45 21.1 80.1 9.8 80.55 16.65 M63.45 -9.9 L75.5 -10.25 77.55 -2.65 76.7 5.8 73.5 -7.75 66.3 -7.6 63.45 -9.9 M117.2 -23.8 L114.5 -25.85 135.2 -27.95 125.6 20.25 124.0 17.95 132.4 -25.35 117.2 -23.8 M112.3 14.55 L111.4 23.0 109.45 20.75 110.65 4.4 112.3 14.55 M100.8 -14.55 L112.2 -14.45 114.55 -10.1 117.45 -0.8 111.1 -12.05 103.35 -12.15 100.8 -14.55 M-93.25 32.2 L-108.6 -15.35 -106.95 -14.55 -104.85 -13.45 -89.4 33.75 -89.6 33.8 -93.25 32.2 M-98.95 -18.35 L-101.0 -26.55 -140.7 -26.7 -143.8 -29.35 -98.65 -29.2 -95.4 -16.4 -98.95 -18.35 M-23.35 -4.5 L-25.8 -6.7 -13.4 -7.75 -15.15 19.65 -16.25 18.3 -17.35 16.95 -17.35 16.9 -16.05 -5.1 -23.35 -4.5 M-23.95 5.85 L-23.7 7.5 -26.9 0.75 -32.7 0.1 -32.5 -2.25 -25.25 -1.45 -23.95 5.85 M-23.65 7.6 L-23.65 7.4 -23.6 7.7 -23.65 7.6 M-28.2 19.9 L-27.25 9.5 -25.65 15.6 -25.9 22.4 -28.2 19.95 -28.2 19.9" fill="#f6f8b1" fill-rule="evenodd" stroke="none"/>
      <path d="M5.15 -11.4 L2.7 -13.95 15.15 -13.55 16.25 -12.2 17.2 -11.0 5.15 -11.4 M2.6 23.9 L4.95 26.6 -12.4 24.5 -7.85 -11.4 -18.3 -12.05 -18.3 -23.3 -15.85 -21.4 -15.85 -14.6 -4.95 -14.0 -6.5 -12.6 -4.95 -13.95 -9.6 22.3 2.6 23.9 M77.55 -2.65 L79.85 -7.8 80.0 -5.3 80.15 -2.3 76.7 5.8 77.55 -2.65 M82.55 -2.75 L84.2 -15.15 86.6 -12.95 84.65 6.55 82.55 -2.75 M92.7 25.6 L84.05 25.75 80.55 16.65 80.1 9.8 85.75 23.45 90.85 23.35 92.7 25.6 M77.1 23.5 L68.1 23.3 63.45 -9.8 66.25 -7.55 70.25 21.05 75.45 21.2 76.35 22.45 77.1 23.5 M114.6 -10.1 L114.5 -25.85 117.2 -23.8 117.45 -1.05 114.6 -10.1 M125.5 20.25 L115.55 20.3 112.3 14.55 110.65 4.4 117.55 17.95 123.95 17.95 125.5 20.25 M111.4 23.0 L99.05 23.35 100.8 -14.55 103.35 -12.15 101.8 21.0 109.45 20.75 111.4 23.0 M-140.7 -26.7 L-135.8 -7.6 -118.3 -12.4 -110.75 38.2 -93.25 32.2 -89.6 33.8 -89.95 33.95 -112.65 41.75 -120.4 -8.85 -137.4 -4.05 -143.8 -29.35 -140.7 -26.7 M-108.6 -15.35 L-98.95 -18.35 -95.4 -16.4 -104.85 -13.55 -106.95 -14.55 -108.6 -15.35 M-25.8 -6.7 L-23.35 -4.5 -23.55 4.95 -23.65 7.4 -23.65 7.6 -23.7 7.5 -23.95 5.85 -25.8 -6.7 M-17.35 16.95 L-16.25 18.3 -15.15 19.7 -23.15 19.4 -25.65 15.6 -27.25 9.5 -21.8 17.15 -20.7 17.1 -17.35 16.95 M-36.1 12.25 L-36.95 19.6 -31.45 19.8 -28.2 19.95 -25.9 22.4 -39.65 21.9 -38.95 16.4 Q-37.3 14.55 -36.1 12.25" fill="#d8901f" fill-rule="evenodd" stroke="none"/>
      <path d="M2.7 -13.95 L2.6 23.9 -9.6 22.3 -4.95 -13.95 -6.5 -12.6 -4.95 -14.0 -15.85 -14.6 -15.85 -21.4 16.9 -26.6 15.15 -13.55 2.7 -13.95 M17.2 -11.0 L16.25 -12.2 17.2 -11.05 17.2 -11.0 M63.45 -9.8 L63.45 -9.9 66.3 -7.6 73.5 -7.75 76.7 5.8 80.15 -2.3 80.0 -5.3 80.25 -2.3 84.65 6.55 86.6 -12.95 95.6 -13.45 90.85 23.35 85.75 23.45 80.1 9.8 75.45 21.1 76.35 22.45 75.45 21.2 70.25 21.05 66.25 -7.55 63.45 -9.8 M114.6 -10.1 L117.45 -1.05 117.2 -23.8 132.4 -25.35 124.0 17.95 125.6 20.25 125.5 20.25 123.95 17.95 117.55 17.95 110.65 4.4 109.45 20.75 101.8 21.0 103.35 -12.15 111.1 -12.05 117.45 -0.8 114.55 -10.1 114.6 -10.1 M125.3 29.8 L121.8 30.15 121.55 32.4 124.6 32.15 124.05 34.05 121.35 34.25 121.15 36.4 124.5 36.05 124.0 37.85 117.95 38.55 118.5 28.3 125.75 27.6 125.3 29.8 M109.65 39.25 L106.85 39.55 106.75 29.95 111.75 29.5 113.1 35.3 113.35 28.85 116.4 28.55 115.45 38.75 111.6 39.25 110.15 33.45 109.65 39.25 M87.55 31.35 L90.6 31.05 89.65 41.3 85.8 41.75 84.35 35.95 83.85 41.75 81.05 42.1 80.95 32.45 85.95 32.05 87.3 37.8 87.55 31.35 M96.0 38.55 L99.0 38.4 98.85 40.1 92.75 40.75 93.15 30.55 96.95 30.2 96.0 38.55 M103.65 39.75 L100.6 40.0 100.85 29.9 104.7 29.5 103.65 39.75 M73.5 33.0 L72.0 30.6 Q70.4 34.95 70.55 39.65 70.6 42.1 71.7 44.25 73.85 41.05 74.15 37.0 74.35 34.85 73.5 33.0 M65.7 36.15 Q66.55 32.4 68.9 30.3 71.2 28.15 74.0 28.55 76.65 29.1 77.9 31.9 79.2 34.65 78.45 38.4 77.6 42.1 75.25 44.25 72.95 46.35 70.2 45.95 67.5 45.4 66.25 42.65 64.95 39.8 65.7 36.15 M-93.25 32.2 L-110.75 38.2 -118.3 -12.4 -135.8 -7.6 -140.7 -26.7 -101.0 -26.55 -98.95 -18.35 -108.6 -15.35 -93.25 32.2 M-106.95 -14.55 L-104.85 -13.55 -104.85 -13.45 -106.95 -14.55 M-23.35 -4.5 L-16.05 -5.1 -17.35 16.9 -20.7 17.1 -21.8 17.15 -27.25 9.5 -28.2 19.9 -31.45 19.8 -36.95 19.6 -36.1 12.25 Q-33.45 7.55 -32.9 2.35 L-32.7 0.1 -26.9 0.75 -23.7 7.5 -23.65 7.6 -23.6 7.7 -23.55 4.95 -23.35 -4.5" fill="#f7f619" fill-rule="evenodd" stroke="none"/>
      <path d="M35.5 11.4 Q33.75 1.05 39.5 -7.7 41.6 1.15 37.2 8.75 L35.5 11.4" fill="#f6200f" fill-rule="evenodd" stroke="none"/>
    </g>
    <g id="shape1" transform="matrix(1.0, 0.0, 0.0, 1.0, 40.05, 15.3)">
      <path d="M40.0 -3.1 L39.85 -2.55 39.35 -1.45 38.75 -0.7 Q40.9 1.75 39.4 4.55 L38.55 5.6 Q37.5 6.6 36.2 7.0 L33.65 6.8 Q32.35 6.8 31.3 6.1 L28.75 3.9 Q28.05 5.5 26.6 6.5 25.15 7.45 23.5 7.6 L21.2 15.05 Q19.7 15.75 18.45 14.65 17.25 13.7 17.05 12.4 16.85 8.9 18.0 5.7 15.9 7.15 13.35 7.15 11.3 7.15 10.5 5.25 L7.7 6.55 5.75 5.2 5.65 5.7 Q5.45 6.5 4.55 6.9 3.3 7.45 2.3 6.5 L1.25 5.5 Q-0.25 6.85 -2.5 7.1 -5.5 7.4 -7.9 5.4 L-8.7 6.15 -9.8 6.55 -10.6 6.75 -11.4 6.45 Q-12.6 5.85 -12.95 4.55 L-13.15 3.65 Q-15.65 7.25 -19.95 8.1 -22.95 8.65 -25.9 8.1 -26.8 8.65 -27.75 8.7 -28.75 9.0 -29.45 8.35 L-33.7 4.35 -35.35 2.55 Q-36.15 1.7 -36.3 0.6 -36.5 -1.25 -35.3 -2.35 L-33.7 -3.6 -30.85 -4.85 -29.05 -9.75 -33.7 -10.4 -35.2 -10.6 -35.95 -9.75 Q-36.25 -9.4 -36.7 -9.3 -38.0 -9.0 -39.2 -9.65 -40.0 -10.2 -40.05 -11.25 L-39.9 -12.45 Q-38.95 -14.65 -36.55 -15.05 L-33.7 -15.3 -31.7 -15.25 Q-22.1 -14.5 -15.4 -7.5 -14.85 -10.1 -12.75 -11.75 -11.75 -12.55 -10.55 -12.9 -6.85 -14.25 -4.4 -11.2 -3.6 -10.25 -3.7 -8.7 -3.85 -7.05 -5.05 -6.0 -6.55 -4.65 -8.65 -3.8 L-8.4 -3.3 -6.5 -4.25 -2.5 -5.15 Q-0.6 -5.65 1.05 -4.7 L2.45 -3.7 4.0 -4.3 5.1 -4.35 5.25 -4.25 6.35 -6.45 7.25 -6.3 Q8.45 -5.75 9.5 -4.9 L10.55 -3.7 Q11.5 -4.65 12.55 -5.0 16.65 -6.0 20.3 -4.1 L23.85 -5.0 24.65 -3.85 27.3 -4.35 27.45 -4.85 Q26.55 -5.75 26.75 -6.85 27.0 -7.95 28.0 -8.65 L29.3 -9.15 30.55 -8.4 31.4 -7.4 32.3 -4.9 37.0 -5.0 Q38.85 -4.7 40.0 -3.1 M38.5 -2.8 Q38.05 -3.55 37.35 -3.55 35.8 -3.8 34.15 -3.6 L32.5 -3.1 Q31.4 -2.7 30.45 -2.0 29.7 -1.45 29.65 -0.45 29.95 0.4 30.85 0.6 L34.9 0.9 36.3 1.35 Q37.25 1.7 36.75 2.55 34.25 4.35 31.25 3.25 L31.1 2.4 35.65 2.75 35.9 1.95 Q34.3 1.2 32.4 1.25 31.55 1.45 30.8 1.85 30.05 2.25 30.2 3.05 30.45 4.1 31.5 4.7 33.3 5.7 35.45 5.3 37.9 5.2 38.35 2.65 38.6 1.15 37.2 0.4 35.3 -0.5 33.0 -0.5 32.0 -0.3 31.25 -1.0 L37.25 -2.0 38.1 -2.4 38.5 -2.8 M29.55 -5.1 L29.55 -4.5 28.7 -3.5 Q29.5 -3.05 30.2 -3.9 30.65 -4.5 30.6 -5.35 30.5 -7.45 28.6 -7.6 L28.15 -6.65 29.55 -5.1 M26.25 -2.75 Q23.15 -0.8 21.25 2.45 L23.05 -3.6 Q21.3 -2.8 20.85 -1.25 20.35 0.5 20.0 2.3 19.8 3.5 20.3 4.4 L19.0 9.5 Q18.75 10.6 18.8 11.8 18.9 13.2 20.35 13.6 L22.25 6.0 24.35 5.7 Q25.6 5.25 26.55 4.2 28.7 1.85 28.2 -1.25 27.95 -2.75 26.25 -2.75 M26.6 1.65 Q25.9 2.65 24.75 3.1 L23.35 3.6 26.65 -1.0 Q27.7 0.1 26.6 1.65 M-9.0 -12.0 Q-11.65 -11.6 -13.2 -9.3 -14.25 -7.75 -13.05 -6.3 L-12.45 -4.6 -11.75 -5.4 Q-8.1 -4.85 -5.8 -7.75 -4.9 -8.9 -5.4 -10.15 -5.75 -11.0 -6.75 -11.05 -7.55 -12.05 -9.0 -12.0 M-4.6 -0.5 Q-5.7 -0.4 -6.3 -1.05 L0.65 -2.3 0.85 -3.1 0.55 -3.35 -3.3 -3.7 -5.0 -3.2 Q-6.15 -2.8 -7.05 -2.05 -7.85 -1.4 -7.9 -0.5 -7.65 0.3 -6.7 0.55 L-2.7 0.85 Q-0.75 0.95 -0.75 2.5 -3.3 4.3 -6.35 3.15 -6.9 2.85 -6.5 2.3 L-1.95 2.65 -1.65 1.9 Q-3.3 1.2 -5.2 1.2 L-6.8 1.8 Q-7.55 2.15 -7.3 3.0 -7.0 4.15 -6.05 4.55 -3.4 5.85 -0.7 4.85 0.25 4.45 0.5 3.35 L0.6 1.85 Q0.45 0.45 -0.9 0.0 L-4.6 -0.5 M3.05 -1.15 Q2.35 2.05 3.0 5.25 L3.95 5.35 4.6 -0.15 8.0 4.9 Q9.65 4.05 9.9 2.15 10.2 -0.45 9.05 -2.65 L8.25 -3.9 7.1 -5.1 8.0 2.2 4.15 -3.0 Q3.25 -2.15 3.05 -1.15 M-6.9 -8.0 Q-8.65 -6.75 -10.8 -6.85 -9.7 -8.9 -7.45 -9.95 L-6.45 -9.8 Q-5.85 -8.7 -6.9 -8.0 M-12.4 -8.65 L-11.25 -9.7 Q-10.65 -10.15 -10.15 -10.2 L-12.4 -7.6 Q-12.75 -8.1 -12.4 -8.65 M-11.35 -2.7 L-11.35 4.8 -10.4 5.4 -9.5 5.0 -10.65 -3.75 -11.35 -2.7 M-14.6 -3.25 Q-15.65 -5.6 -17.5 -7.35 -23.5 -12.95 -31.9 -13.8 L-33.7 -13.6 -36.25 -13.3 Q-38.25 -13.15 -39.0 -11.4 L-36.8 -11.35 -37.95 -11.7 -35.55 -12.2 -33.7 -12.05 -30.9 -11.6 Q-27.3 -10.7 -23.85 -9.25 -19.7 -7.5 -17.1 -3.8 -16.25 -2.65 -16.2 -1.3 -16.1 0.55 -17.2 2.05 -18.65 3.95 -21.1 4.35 L-27.05 4.35 -27.15 -1.6 -25.55 -1.65 -21.5 -0.6 -22.2 0.65 -21.0 1.3 -20.1 0.2 Q-19.8 -0.35 -19.9 -0.95 L-20.4 -1.95 -21.5 -2.85 Q-24.15 -3.8 -26.95 -3.8 L-27.8 -7.9 -28.45 -8.3 -29.3 -3.55 Q-31.5 -3.0 -33.7 -1.85 L-34.15 -1.6 Q-34.95 -1.1 -35.2 0.05 L-33.7 2.05 Q-31.85 4.05 -29.35 5.2 L-28.75 7.4 -27.6 7.45 -27.05 6.05 -21.4 6.5 Q-19.2 6.45 -17.55 5.4 -16.25 4.6 -15.35 3.45 -12.9 0.45 -14.6 -3.25 M18.45 -3.45 Q16.65 -3.95 14.65 -3.45 L12.15 -2.9 13.65 -1.9 Q11.15 0.9 12.3 4.2 12.45 4.7 12.9 5.1 13.8 5.9 15.1 5.4 16.75 4.8 18.0 3.65 L17.65 2.55 13.85 3.0 14.2 1.6 17.65 0.75 17.2 -0.4 14.95 -0.5 15.3 -1.8 19.1 -2.3 18.45 -3.45 M-25.55 0.05 L-25.5 3.0 -21.95 2.85 -23.45 2.1 -23.9 0.4 -25.55 0.05 M-17.85 0.1 L-18.0 -1.65 -18.3 1.15 -17.85 0.1 M-18.55 -2.7 Q-21.3 -6.85 -26.0 -8.7 L-26.6 -8.95 Q-25.5 -7.35 -25.55 -5.35 -23.2 -5.25 -21.0 -4.45 -19.4 -3.9 -18.55 -2.7 M-34.5 0.0 Q-34.2 -0.3 -33.8 -0.4 L-33.7 -0.4 -29.3 -1.6 -29.5 3.55 -33.7 0.55 -34.5 0.0 M-31.0 0.35 L-31.85 0.5 -31.05 0.95 -31.0 0.35" fill="#000000" fill-rule="evenodd" stroke="none"/>
      <path d="M18.45 -3.45 L19.1 -2.3 15.3 -1.8 14.95 -0.5 17.2 -0.4 17.65 0.75 14.2 1.6 13.85 3.0 17.65 2.55 18.0 3.65 Q16.75 4.8 15.1 5.4 13.8 5.9 12.9 5.1 12.45 4.7 12.3 4.2 11.15 0.9 13.65 -1.9 L12.15 -2.9 14.65 -3.45 Q16.65 -3.95 18.45 -3.45 M-14.6 -3.25 Q-12.9 0.45 -15.35 3.45 -16.25 4.6 -17.55 5.4 -19.2 6.45 -21.4 6.5 L-27.05 6.05 -27.6 7.45 -28.75 7.4 -29.35 5.2 Q-31.85 4.05 -33.7 2.05 L-35.2 0.05 Q-34.95 -1.1 -34.15 -1.6 L-33.7 -1.85 Q-31.5 -3.0 -29.3 -3.55 L-28.45 -8.3 -27.8 -7.9 -26.95 -3.8 Q-24.15 -3.8 -21.5 -2.85 L-20.4 -1.95 -19.9 -0.95 Q-19.8 -0.35 -20.1 0.2 L-21.0 1.3 -22.2 0.65 -21.5 -0.6 -25.55 -1.65 -27.15 -1.6 -27.05 4.35 -21.1 4.35 Q-18.65 3.95 -17.2 2.05 -16.1 0.55 -16.2 -1.3 -16.25 -2.65 -17.1 -3.8 -19.7 -7.5 -23.85 -9.25 -27.3 -10.7 -30.9 -11.6 L-33.7 -12.05 -35.55 -12.2 -37.95 -11.7 -36.8 -11.35 -39.0 -11.4 Q-38.25 -13.15 -36.25 -13.3 L-33.7 -13.6 -31.9 -13.8 Q-23.5 -12.95 -17.5 -7.35 -15.65 -5.6 -14.6 -3.25 M-11.35 -2.7 L-10.65 -3.75 -9.5 5.0 -10.4 5.4 -11.35 4.8 -11.35 -2.7 M-12.4 -8.65 Q-12.75 -8.1 -12.4 -7.6 L-10.15 -10.2 Q-10.65 -10.15 -11.25 -9.7 L-12.4 -8.65 M-6.9 -8.0 Q-5.85 -8.7 -6.45 -9.8 L-7.45 -9.95 Q-9.7 -8.9 -10.8 -6.85 -8.65 -6.75 -6.9 -8.0 M3.05 -1.15 Q3.25 -2.15 4.15 -3.0 L8.0 2.2 7.1 -5.1 8.25 -3.9 9.05 -2.65 Q10.2 -0.45 9.9 2.15 9.65 4.05 8.0 4.9 L4.6 -0.15 3.95 5.35 3.0 5.25 Q2.35 2.05 3.05 -1.15 M-4.6 -0.5 L-0.9 0.0 Q0.45 0.45 0.6 1.85 L0.5 3.35 Q0.25 4.45 -0.7 4.85 -3.4 5.85 -6.05 4.55 -7.0 4.15 -7.3 3.0 -7.55 2.15 -6.8 1.8 L-5.2 1.2 Q-3.3 1.2 -1.65 1.9 L-1.95 2.65 -6.5 2.3 Q-6.9 2.85 -6.35 3.15 -3.3 4.3 -0.75 2.5 -0.75 0.95 -2.7 0.85 L-6.7 0.55 Q-7.65 0.3 -7.9 -0.5 -7.85 -1.4 -7.05 -2.05 -6.15 -2.8 -5.0 -3.2 L-3.3 -3.7 0.55 -3.35 0.85 -3.1 0.65 -2.3 -6.3 -1.05 Q-5.7 -0.4 -4.6 -0.5 M-9.0 -12.0 Q-7.55 -12.05 -6.75 -11.05 -5.75 -11.0 -5.4 -10.15 -4.9 -8.9 -5.8 -7.75 -8.1 -4.85 -11.75 -5.4 L-12.45 -4.6 -13.05 -6.3 Q-14.25 -7.75 -13.2 -9.3 -11.65 -11.6 -9.0 -12.0 M26.6 1.65 Q27.7 0.1 26.65 -1.0 L23.35 3.6 24.75 3.1 Q25.9 2.65 26.6 1.65 M26.25 -2.75 Q27.95 -2.75 28.2 -1.25 28.7 1.85 26.55 4.2 25.6 5.25 24.35 5.7 L22.25 6.0 20.35 13.6 Q18.9 13.2 18.8 11.8 18.75 10.6 19.0 9.5 L20.3 4.4 Q19.8 3.5 20.0 2.3 20.35 0.5 20.85 -1.25 21.3 -2.8 23.05 -3.6 L21.25 2.45 Q23.15 -0.8 26.25 -2.75 M29.55 -5.1 L28.15 -6.65 28.6 -7.6 Q30.5 -7.45 30.6 -5.35 30.65 -4.5 30.2 -3.9 29.5 -3.05 28.7 -3.5 L29.55 -4.5 29.55 -5.1 M38.5 -2.8 L38.1 -2.4 37.25 -2.0 31.25 -1.0 Q32.0 -0.3 33.0 -0.5 35.3 -0.5 37.2 0.4 38.6 1.15 38.35 2.65 37.9 5.2 35.45 5.3 33.3 5.7 31.5 4.7 30.45 4.1 30.2 3.05 30.05 2.25 30.8 1.85 31.55 1.45 32.4 1.25 34.3 1.2 35.9 1.95 L35.65 2.75 31.1 2.4 31.25 3.25 Q34.25 4.35 36.75 2.55 37.25 1.7 36.3 1.35 L34.9 0.9 30.85 0.6 Q29.95 0.4 29.65 -0.45 29.7 -1.45 30.45 -2.0 31.4 -2.7 32.5 -3.1 L34.15 -3.6 Q35.8 -3.8 37.35 -3.55 38.05 -3.55 38.5 -2.8 M-34.5 0.0 L-33.7 0.55 -29.5 3.55 -29.3 -1.6 -33.7 -0.4 -33.8 -0.4 Q-34.2 -0.3 -34.5 0.0" fill="#ffffff" fill-rule="evenodd" stroke="none"/>
    </g>
    <g id="shape2" transform="matrix(1.0, 0.0, 0.0, 1.0, 111.75, 25.3)">
      <path d="M-1.75 -7.6 L0.2 -7.1 -4.2 -3.8 -9.1 -9.55 -6.35 -8.85 -3.9 -6.05 -1.75 -7.6 M8.95 -4.2 L-1.45 6.15 -6.65 0.15 -3.7 0.45 -1.4 3.35 6.9 -4.6 8.95 -4.2 M17.75 -10.7 L17.95 -5.4 25.0 -5.25 23.25 -3.65 16.0 -3.65 15.3 -12.85 17.75 -10.7 M19.0 2.2 L22.25 5.45 26.5 0.15 26.9 7.25 30.65 7.25 30.9 7.9 31.45 9.1 25.8 8.85 25.45 3.15 22.45 7.4 16.6 2.25 19.0 2.2 M31.7 -4.9 L35.15 -4.85 36.05 -3.6 32.7 -3.6 31.7 -4.9 M25.65 -17.2 L25.75 -9.7 24.65 -11.3 24.2 -18.85 25.65 -17.2 M36.8 -4.75 L38.65 -3.8 40.55 -0.4 43.3 -1.6 44.75 -0.75 40.15 1.1 36.8 -4.75 M55.65 -11.6 L55.75 -7.7 64.25 -6.25 65.35 -5.0 54.25 -6.4 54.3 -13.55 55.65 -11.6 M51.7 -4.15 L53.4 -2.15 53.25 1.65 59.65 2.3 57.05 9.5 61.9 10.25 62.75 12.8 54.95 11.15 57.8 3.3 51.95 2.8 51.7 -4.15 M87.7 -0.8 L90.05 0.1 92.85 5.85 96.85 4.25 98.55 4.95 98.45 4.95 92.5 7.35 91.8 6.2 91.4 5.55 87.7 -0.8 M-104.85 -10.55 L-102.8 -9.4 -91.25 16.2 -87.0 14.45 -84.55 15.75 -92.2 20.4 -106.85 -11.6 -104.85 -10.55 M-89.4 5.3 L-82.7 2.75 -80.75 3.6 -85.9 5.8 -86.25 5.95 -87.2 6.35 -89.4 5.3 M-63.3 1.95 L-71.2 3.7 -71.8 -2.4 -70.4 -1.65 -70.1 -1.5 -69.65 1.9 -64.65 1.0 -63.3 1.95 M-66.3 -8.8 L-63.85 -8.3 -59.35 -3.4 -56.9 -5.15 -54.95 -4.9 -59.85 -1.15 -66.3 -8.8 M-40.75 -13.95 L-41.7 -15.95 -35.8 -15.05 -36.15 -8.25 -37.8 -9.95 -37.55 -13.4 -40.75 -13.95 M-46.4 -21.55 L-44.55 -19.45 -45.15 -5.8 -41.6 -5.05 -40.7 -3.15 -47.2 -4.3 -46.4 -21.55 M-33.25 4.8 L-31.9 7.05 -31.9 6.95 -31.85 7.05 -31.9 7.05 -39.15 6.3 -38.4 -4.75 -39.35 -5.0 -40.6 -5.4 -41.55 -6.8 -37.0 -6.15 -37.7 4.2 -33.25 4.8 M-23.9 -13.05 L-24.05 -16.65 -21.85 -14.5 -21.75 -6.9 -23.65 -8.6 -23.85 -12.65 -23.9 -13.05 M-14.95 7.5 L-21.05 6.35 -18.3 -2.4 -22.65 -2.3 -24.25 -3.65 -16.15 -3.95 -18.3 4.35 -15.85 5.0 -14.95 7.4 -14.95 7.5 M-22.5 1.55 L-28.75 1.65 -28.95 -8.4 -27.25 -6.8 -27.25 -0.45 -24.15 -0.45 -22.5 1.55 M-59.3 5.1 L-55.5 9.8 -47.75 0.65 -45.7 0.75 -55.5 12.25 -62.6 5.05 -59.3 5.1 M-79.65 4.9 Q-78.8 5.3 -77.9 5.75 L-77.15 9.3 -78.35 8.75 -79.65 4.9 M-70.05 13.65 L-68.65 14.75 -74.2 15.6 -74.35 10.85 -76.7 11.4 -78.05 11.0 -73.1 9.8 -72.65 14.15 -70.05 13.65 M-80.65 10.5 L-79.6 13.7 -77.45 13.1 -76.05 13.65 -80.2 15.1 -82.3 10.1 -80.65 10.5 M105.55 11.05 L107.35 11.8 91.9 19.9 87.65 11.8 90.7 13.15 92.8 17.3 105.55 11.05 M69.35 2.1 L70.2 4.9 74.8 3.8 73.2 11.6 79.1 12.6 80.1 14.3 80.1 14.4 80.05 14.4 77.65 13.95 71.55 12.8 73.3 5.55 69.15 6.65 67.35 1.35 69.35 2.1 M36.95 4.1 L39.35 4.65 40.85 7.4 48.85 3.95 50.45 4.65 40.0 9.4 36.95 4.1 M11.35 4.25 Q10.05 4.25 9.15 3.2 8.25 2.1 8.25 0.55 L9.5 0.5 Q9.85 2.6 11.9 2.7 L12.9 2.3 13.55 3.7 Q12.65 4.3 11.35 4.25" fill="#f79710" fill-rule="evenodd" stroke="none"/>
      <path d="M0.25 -7.15 L0.2 -7.1 -1.75 -7.6 0.25 -7.15 M-9.1 -9.55 L-9.2 -9.65 -6.35 -8.9 -4.2 -10.75 -1.75 -7.6 -3.9 -6.05 -6.35 -8.85 -9.1 -9.55 M-3.7 0.45 L5.35 -6.7 6.9 -4.6 -1.4 3.35 -3.7 0.45 M25.0 -5.25 L17.95 -5.4 17.75 -10.7 25.7 -9.7 24.65 -11.3 25.75 -9.7 25.65 -17.2 32.5 -16.2 32.05 -8.65 35.3 -8.15 35.15 -4.85 31.7 -4.9 30.65 7.25 26.9 7.25 26.5 0.15 22.25 5.45 19.0 2.2 26.35 -5.25 25.0 -5.25 M43.3 -1.6 L40.55 -0.4 38.65 -3.8 42.0 -5.4 43.3 -1.6 M31.45 9.0 L31.45 9.1 30.9 7.9 31.45 9.0 M64.25 -6.25 L55.75 -7.7 55.65 -11.6 64.5 -9.9 64.25 -6.25 M53.4 -2.15 L65.1 -0.9 61.9 10.25 57.05 9.5 59.65 2.3 53.25 1.65 53.4 -2.15 M65.8 -9.1 L65.75 -8.75 65.4 -11.15 66.0 -11.05 65.8 -9.1 M90.05 0.1 L94.65 -1.5 96.85 4.25 92.85 5.85 90.05 0.1 M98.55 5.0 L92.5 7.4 92.15 6.8 91.8 6.2 92.5 7.35 98.45 4.95 98.55 5.0 M-84.55 15.75 L-87.0 14.45 -91.25 16.2 -102.8 -9.4 -104.85 -10.55 -102.8 -9.45 -94.65 -10.85 -91.8 -0.7 -84.2 -2.8 -82.7 2.75 -89.4 5.3 -87.0 14.45 -84.5 15.75 -84.55 15.75 M-86.4 6.05 L-87.15 6.35 -86.55 8.35 -87.2 6.35 -86.25 5.95 -86.4 6.05 M-71.8 -2.4 L-71.8 -2.45 -70.4 -1.65 -71.8 -2.4 M-63.25 1.95 L-63.3 1.95 -64.65 1.0 -69.65 1.9 -70.1 -1.5 -64.95 -2.05 -64.65 0.95 -63.25 1.95 M-56.9 -5.15 L-59.35 -3.4 -63.85 -8.3 -60.0 -10.45 -56.9 -5.15 M-36.15 -8.25 L-35.8 -15.05 -41.7 -15.95 -41.95 -9.1 -36.15 -8.25 M-41.6 -5.05 L-45.15 -5.8 -44.55 -19.45 -32.2 -18.2 -33.25 4.8 -37.7 4.2 -37.0 -6.15 -41.55 -6.8 -41.6 -5.05 M-40.6 -5.35 L-40.6 -5.4 -39.35 -5.0 -40.6 -5.35 M-23.85 -12.65 L-23.65 -8.6 -21.75 -6.9 -21.85 -14.5 -17.55 -14.35 -17.9 -6.9 -12.25 -7.0 -15.8 5.0 -14.95 7.4 -15.85 5.0 -18.3 4.35 -16.15 -3.95 -24.25 -3.65 -24.05 -0.45 -22.5 1.5 -22.5 1.55 -24.15 -0.45 -27.25 -0.45 -27.25 -6.8 -21.8 -6.8 -23.7 -8.6 -23.85 -12.05 -23.85 -12.65 M-47.75 0.65 L-55.5 9.8 -59.3 5.1 -49.95 -1.8 -47.75 0.65 M-77.15 9.3 L-77.9 5.75 -74.25 4.75 -74.15 8.45 -70.15 7.35 -70.05 13.65 -72.65 14.15 -73.1 9.8 -78.05 11.0 -77.45 13.05 -76.05 13.65 -77.45 13.1 -79.6 13.7 -80.65 10.5 -77.15 9.3 M90.7 13.15 L103.9 7.75 105.55 11.05 92.8 17.3 90.7 13.15 M86.8 0.85 L86.75 0.85 84.8 0.15 80.55 1.95 79.1 12.6 73.2 11.6 74.8 3.8 70.2 4.9 69.35 2.1 83.45 -3.2 84.85 0.15 86.8 0.85 M82.35 2.3 L81.6 2.55 80.1 14.4 80.05 14.45 77.65 13.95 80.05 14.4 80.05 14.45 80.05 14.4 80.1 14.4 80.1 14.3 81.55 2.55 82.75 2.15 82.35 2.3 M50.45 4.65 L48.85 3.95 40.85 7.4 39.35 4.65 36.95 4.1 36.9 4.0 39.35 4.55 47.7 1.35 48.85 3.9 50.45 4.65 M9.5 0.5 Q13.05 -3.25 13.45 0.9 L13.5 1.95 12.9 2.3 11.9 2.7 Q9.85 2.6 9.5 0.5" fill="#f3f31d" fill-rule="evenodd" stroke="none"/>
      <path d="M0.25 -7.15 L-1.75 -7.6 -4.2 -10.75 -6.35 -8.9 -9.2 -9.65 -3.9 -13.55 0.25 -7.15 M-6.65 0.15 L5.4 -9.1 8.95 -4.2 6.9 -4.6 5.35 -6.7 -3.7 0.45 -6.65 0.15 M17.75 -10.7 L15.3 -12.85 24.65 -11.3 25.7 -9.7 17.75 -10.7 M23.25 -3.65 L25.0 -5.25 26.35 -5.25 19.0 2.2 16.6 2.25 23.25 -3.65 M30.65 7.25 L31.7 -4.9 32.7 -3.6 31.45 9.0 30.9 7.9 30.65 7.25 M35.15 -4.85 L35.3 -8.15 32.05 -8.65 32.5 -16.2 25.65 -17.2 24.2 -18.85 33.95 -17.55 33.3 -9.85 36.35 -9.35 36.05 -3.6 35.15 -4.85 M38.65 -3.8 L36.8 -4.75 42.35 -7.25 44.75 -0.75 43.3 -1.6 42.0 -5.4 38.65 -3.8 M64.25 -6.25 L64.5 -9.9 55.65 -11.6 54.3 -13.55 65.4 -11.15 65.75 -8.75 65.7 -8.5 65.35 -5.0 64.25 -6.25 M53.4 -2.15 L51.7 -4.15 66.75 -2.25 62.75 12.8 61.9 10.25 65.1 -0.9 53.4 -2.15 M87.7 -0.8 L95.25 -3.4 98.55 4.95 96.85 4.25 94.65 -1.5 90.05 0.1 87.7 -0.8 M98.55 4.95 L98.55 5.0 98.45 4.95 98.55 4.95 M-104.85 -10.55 L-106.85 -11.6 -92.55 -14.65 -89.9 -3.75 -82.9 -5.5 -80.75 3.6 -82.7 2.75 -84.2 -2.8 -91.8 -0.7 -94.65 -10.85 -102.8 -9.45 -104.85 -10.55 M-84.5 15.75 L-87.0 14.45 -89.4 5.3 -87.2 6.35 -86.55 8.35 -84.5 15.75 M-71.8 -2.45 L-63.6 -3.4 -63.25 1.95 -64.65 0.95 -64.95 -2.05 -70.1 -1.5 -70.4 -1.65 -71.8 -2.45 M-63.85 -8.3 L-66.3 -8.8 -59.45 -12.85 -54.95 -4.9 -56.9 -5.15 -60.0 -10.45 -63.85 -8.3 M-41.7 -15.95 L-40.75 -13.95 -40.8 -10.55 -37.8 -9.95 -36.15 -8.25 -41.95 -9.1 -41.7 -15.95 M-44.55 -19.45 L-46.4 -21.55 -30.55 -20.5 -31.75 4.35 -31.9 6.95 -31.9 7.05 -33.25 4.8 -32.2 -18.2 -44.55 -19.45 M-40.7 -3.15 L-41.6 -5.05 -41.55 -6.8 -40.6 -5.4 -40.6 -5.35 -40.7 -3.15 M-21.85 -14.5 L-24.05 -16.65 -16.15 -16.3 -16.6 -8.6 -10.15 -8.7 -14.95 7.5 -14.95 7.4 -15.8 5.0 -12.25 -7.0 -17.9 -6.9 -17.55 -14.35 -21.85 -14.5 M-22.65 -2.3 L-22.5 1.5 -24.05 -0.45 -24.25 -3.65 -22.65 -2.3 M-28.95 -8.4 L-23.7 -8.6 -21.8 -6.8 -27.25 -6.8 -28.95 -8.4 M-47.75 0.65 L-49.95 -1.8 -59.3 5.1 -62.6 5.05 -49.75 -4.45 -45.7 0.75 -47.75 0.65 M-77.9 5.75 Q-78.8 5.3 -79.65 4.9 L-73.35 3.0 -73.0 6.95 -68.5 5.6 -68.65 14.75 -70.05 13.65 -70.15 7.35 -74.15 8.45 -74.25 4.75 -77.9 5.75 M-78.35 8.75 L-77.15 9.3 -80.65 10.5 -82.3 10.1 -78.35 8.75 M-76.05 13.65 L-77.45 13.05 -78.05 11.0 -76.7 11.4 -76.05 13.65 M105.55 11.05 L103.9 7.75 90.7 13.15 87.65 11.8 104.9 5.75 107.35 11.8 105.55 11.05 M86.8 0.85 L84.85 0.15 83.45 -3.2 69.35 2.1 67.35 1.35 84.4 -5.25 86.8 0.85 M79.1 12.6 L80.55 1.95 81.55 2.55 80.1 14.3 79.1 12.6 M80.05 14.45 L80.05 14.4 80.05 14.45 M50.45 4.65 L48.85 3.9 47.7 1.35 39.35 4.55 36.9 4.0 48.35 -0.15 50.45 4.65 M8.25 0.55 Q12.0 -5.4 14.6 0.75 L14.7 0.95 Q14.85 1.6 14.5 2.4 13.7 4.45 11.35 4.25 12.65 4.3 13.55 3.7 L12.9 2.3 13.5 1.95 13.45 0.9 Q13.05 -3.25 9.5 0.5 L8.25 0.55" fill="#f6f5c1" fill-rule="evenodd" stroke="none"/>
      <path d="M0.2 -7.1 L0.25 -7.15 -3.9 -13.55 -9.2 -9.65 -9.1 -9.55 -4.2 -3.8 0.2 -7.1 M8.95 -4.2 L5.4 -9.1 -6.65 0.15 -1.45 6.15 8.95 -4.2 M15.3 -12.85 L16.0 -3.65 23.25 -3.65 16.6 2.25 22.45 7.4 25.45 3.15 25.8 8.85 31.45 9.1 31.45 9.0 32.7 -3.6 36.05 -3.6 36.35 -9.35 33.3 -9.85 33.95 -17.55 24.2 -18.85 24.65 -11.3 15.3 -12.85 M6.1 -14.0 L12.35 -6.0 11.55 -17.0 21.0 -15.4 20.4 -22.8 37.5 -20.25 Q37.95 -20.05 37.05 -12.7 L39.75 -12.25 39.8 -9.95 44.4 -11.95 47.45 -3.5 48.25 -3.8 48.15 -8.1 50.8 -7.75 50.95 -17.85 69.75 -13.8 68.85 -5.45 71.1 -5.15 70.75 -3.7 86.3 -9.7 88.35 -4.65 97.3 -7.75 101.55 3.25 106.85 1.4 111.75 13.35 90.4 24.5 83.85 11.95 83.05 18.45 67.35 15.4 68.55 10.4 66.95 10.75 65.3 16.7 50.25 13.6 52.6 7.4 38.55 13.8 35.05 7.65 34.6 12.7 23.2 12.35 15.95 6.2 14.05 7.3 12.4 7.65 10.65 7.65 9.85 7.5 9.05 7.2 Q7.5 6.35 6.45 5.15 L5.6 3.95 -1.7 11.2 -9.75 1.9 -12.55 11.45 -25.45 8.95 -24.25 5.1 -28.3 5.0 -28.6 10.8 -42.8 9.25 -42.35 2.05 -55.25 17.25 -65.05 7.4 -65.2 17.65 -77.55 19.55 -77.65 17.75 -81.95 19.3 -82.5 18.5 -93.75 25.2 -111.75 -14.15 -89.95 -18.75 -87.4 -8.0 -80.4 -9.6 -77.9 0.7 -75.0 -0.15 -75.55 -5.45 -68.65 -6.25 -71.5 -9.75 -58.15 -17.6 -52.1 -7.0 -50.5 -8.2 -49.7 -25.3 -26.95 -23.8 -27.15 -20.25 -12.55 -19.45 -13.0 -12.15 -11.55 -12.15 Q-7.25 -15.3 -3.0 -18.5 L2.0 -10.85 6.1 -14.0 M36.8 -4.75 L40.15 1.1 44.75 -0.75 42.35 -7.25 36.8 -4.75 M54.3 -13.55 L54.25 -6.4 65.35 -5.0 65.7 -8.5 65.8 -9.1 66.0 -11.05 65.4 -11.15 54.3 -13.55 M62.75 12.8 L66.75 -2.25 51.7 -4.15 51.95 2.8 57.8 3.3 54.95 11.15 62.75 12.8 M98.55 4.95 L95.25 -3.4 87.7 -0.8 91.4 5.55 92.15 6.8 92.5 7.4 98.55 5.0 98.55 4.95 M-106.85 -11.6 L-92.2 20.4 -84.55 15.75 -84.5 15.75 -86.55 8.35 -87.15 6.35 -86.4 6.05 -85.9 5.8 -80.75 3.6 -82.9 -5.5 -89.9 -3.75 -92.55 -14.65 -106.85 -11.6 M-71.8 -2.45 L-71.8 -2.4 -71.2 3.7 -63.3 1.95 -63.25 1.95 -63.6 -3.4 -71.8 -2.45 M-66.3 -8.8 L-59.85 -1.15 -54.95 -4.9 -59.45 -12.85 -66.3 -8.8 M-40.75 -13.95 L-37.55 -13.4 -37.8 -9.95 -40.8 -10.55 -40.75 -13.95 M-46.4 -21.55 L-47.2 -4.3 -40.7 -3.15 -40.6 -5.35 -39.35 -5.0 -38.4 -4.75 -39.15 6.3 -31.9 7.05 -31.85 7.05 -31.75 4.35 -30.55 -20.5 -46.4 -21.55 M-24.05 -16.65 L-23.9 -13.05 -23.85 -12.05 -23.7 -8.6 -28.95 -8.4 -28.75 1.65 -22.5 1.55 -22.5 1.5 -22.65 -2.3 -18.3 -2.4 -21.05 6.35 -14.95 7.5 -10.15 -8.7 -16.6 -8.6 -16.15 -16.3 -24.05 -16.65 M-62.6 5.05 L-55.5 12.25 -45.7 0.75 -49.75 -4.45 -62.6 5.05 M-79.65 4.9 L-78.35 8.75 -82.3 10.1 -80.2 15.1 -76.05 13.65 -76.7 11.4 -74.35 10.85 -74.2 15.6 -68.65 14.75 -68.5 5.6 -73.0 6.95 -73.35 3.0 -79.65 4.9 M107.35 11.8 L104.9 5.75 87.65 11.8 91.9 19.9 107.35 11.8 M86.75 0.85 L86.8 0.85 84.4 -5.25 67.35 1.35 69.15 6.65 73.3 5.55 71.55 12.8 77.65 13.95 80.05 14.45 80.1 14.4 81.6 2.55 82.35 2.3 86.75 0.85 M88.75 7.8 L86.8 4.45 84.7 5.2 84.15 9.4 88.75 7.8 M36.9 4.0 L36.95 4.1 40.0 9.4 50.45 4.65 48.35 -0.15 36.9 4.0 M11.35 4.25 Q13.7 4.45 14.5 2.4 14.85 1.6 14.7 0.95 L14.6 0.75 Q12.0 -5.4 8.25 0.55 8.25 2.1 9.15 3.2 10.05 4.25 11.35 4.25" fill="#000000" fill-rule="evenodd" stroke="none"/>
    </g>
  </defs>
</svg>
