<?xml version="1.0" encoding="UTF-8" standalone="no"?>
<svg xmlns:xlink="http://www.w3.org/1999/xlink" height="230.35px" width="328.0px" xmlns="http://www.w3.org/2000/svg">
  <g transform="matrix(1.0, 0.0, 0.0, 1.0, 161.05, 127.9)">
    <use height="197.25" transform="matrix(1.0, 0.0, 0.0, 1.0, -161.05, -94.8)" width="328.0" xlink:href="#sprite0"/>
    <use height="60.1" transform="matrix(1.0, 0.0, 0.0, 1.0, -96.35, -29.15)" width="214.1" xlink:href="#text0"/>
    <use height="98.3" transform="matrix(0.75, 0.0, 0.0, 0.75, -88.8, -127.925)" width="249.7" xlink:href="#sprite1"/>
  </g>
  <defs>
    <g id="sprite0" transform="matrix(1.0, 0.0, 0.0, 1.0, 161.05, 94.8)">
      <use height="197.25" transform="matrix(1.0, 0.0, 0.0, 1.0, -161.05, -94.8)" width="328.0" xlink:href="#shape0"/>
    </g>
    <g id="shape0" transform="matrix(1.0, 0.0, 0.0, 1.0, 161.05, 94.8)">
      <path d="M164.8 -76.25 Q166.95 -72.05 166.95 -67.05 L166.95 81.05 Q166.95 89.9 160.2 96.15 153.5 102.4 143.95 102.45 L-130.55 102.45 Q-140.1 102.4 -146.8 96.15 -153.55 89.9 -153.55 81.05 L-153.55 -67.05 Q-153.55 -75.9 -146.8 -82.2 -143.75 -85.05 -140.15 -86.55 -135.8 -88.45 -130.55 -88.45 L143.95 -88.45 Q153.5 -88.45 160.2 -82.2 163.15 -79.45 164.8 -76.25" fill="url(#gradient0)" fill-rule="evenodd" stroke="none"/>
      <path d="M153.0 -87.65 Q156.15 -84.5 157.9 -80.8 160.2 -76.0 160.2 -70.3 L160.2 70.45 Q160.2 80.55 153.0 87.75 145.85 94.9 135.7 94.95 L-136.6 94.95 Q-146.75 94.9 -153.9 87.75 -161.1 80.55 -161.05 70.45 L-161.05 -70.3 Q-161.1 -80.45 -153.9 -87.65 -150.65 -90.9 -146.8 -92.65 -142.15 -94.8 -136.6 -94.8 L135.7 -94.8 Q145.85 -94.8 153.0 -87.65 M133.9 -81.6 Q130.75 -82.55 127.2 -82.55 L-128.05 -82.55 Q-133.15 -82.55 -137.5 -80.65 -141.3 -78.95 -144.5 -75.75 -149.75 -70.5 -150.95 -63.6 L-151.3 -59.3 -151.3 59.45 Q-151.3 69.05 -144.5 75.85 -141.75 78.65 -138.5 80.3 -133.75 82.7 -128.05 82.7 L127.2 82.7 Q133.65 82.7 138.85 79.6 141.35 78.05 143.6 75.85 150.4 69.05 150.45 59.45 L150.45 -59.3 Q150.4 -65.05 148.0 -69.75 146.35 -73.0 143.6 -75.75 139.3 -80.05 133.9 -81.6" fill="#308945" fill-rule="evenodd" stroke="none"/>
      <path d="M-137.5 -80.65 Q-133.15 -82.55 -128.05 -82.55 L127.2 -82.55 Q130.75 -82.55 133.9 -81.6 L130.1 -77.15 123.95 -77.9 -124.8 -77.9 Q-129.75 -77.9 -133.95 -76.1 L-137.5 -80.65" fill="#518b50" fill-rule="evenodd" stroke="none"/>
      <path d="M-133.95 -76.1 Q-129.75 -77.9 -124.8 -77.9 L123.95 -77.9 130.1 -77.15 Q135.65 -75.65 140.0 -71.25 142.65 -68.65 144.25 -65.6 146.7 -60.85 146.7 -55.1 L146.7 55.2 Q146.7 64.65 140.0 71.3 133.35 78.0 123.95 78.0 L-124.8 78.0 Q-129.05 78.0 -132.75 76.65 -137.3 74.95 -140.95 71.3 -147.65 64.65 -147.6 55.2 L-147.6 -55.1 -147.35 -58.95 Q-146.25 -66.0 -140.95 -71.25 -137.8 -74.45 -133.95 -76.1" fill="#ffffbf" fill-rule="evenodd" stroke="none"/>
      <path d="M130.1 -77.15 L133.9 -81.6 Q139.3 -80.05 143.6 -75.75 146.35 -73.0 148.0 -69.75 L144.25 -65.6 Q142.65 -68.65 140.0 -71.25 135.65 -75.65 130.1 -77.15" fill="#d3d29c" fill-rule="evenodd" stroke="none"/>
      <path d="M148.0 -69.75 Q150.4 -65.05 150.45 -59.3 L150.45 59.45 Q150.4 69.05 143.6 75.85 141.35 78.05 138.85 79.6 L123.95 78.0 Q133.35 78.0 140.0 71.3 146.7 64.65 146.7 55.2 L146.7 -55.1 Q146.7 -60.85 144.25 -65.6 L148.0 -69.75" fill="#eae8d0" fill-rule="evenodd" stroke="none"/>
      <path d="M138.85 79.6 Q133.65 82.7 127.2 82.7 L-128.05 82.7 Q-133.75 82.7 -138.5 80.3 L-132.75 76.65 Q-129.05 78.0 -124.8 78.0 L123.95 78.0 138.85 79.6" fill="#5e8a55" fill-rule="evenodd" stroke="none"/>
      <path d="M-137.5 -80.65 L-133.95 -76.1 Q-137.8 -74.45 -140.95 -71.25 -146.25 -66.0 -147.35 -58.95 L-150.95 -63.6 Q-149.75 -70.5 -144.5 -75.75 -141.3 -78.95 -137.5 -80.65" fill="#b7c68f" fill-rule="evenodd" stroke="none"/>
      <path d="M-138.5 80.3 Q-141.75 78.65 -144.5 75.85 -151.3 69.05 -151.3 59.45 L-151.3 -59.3 -150.95 -63.6 -147.35 -58.95 -147.6 -55.1 -147.6 55.2 Q-147.65 64.65 -140.95 71.3 -137.3 74.95 -132.75 76.65 L-138.5 80.3" fill="#d9dea6" fill-rule="evenodd" stroke="none"/>
    </g>
    <radialGradient cx="0" cy="0" gradientTransform="matrix(0.0114, -0.1842, 0.2989, 0.016, 2.0, -20.1)" gradientUnits="userSpaceOnUse" id="gradient0" r="819.2" spreadMethod="pad">
      <stop offset="0.29411764705882354" stop-color="#000000"/>
      <stop offset="1.0" stop-color="#000000" stop-opacity="0.0"/>
    </radialGradient>
    <g id="text0" transform="matrix(1.0, 0.0, 0.0, 1.0, 24.35, -6.3)">
      <g transform="matrix(1.0, 0.0, 0.0, 1.0, -25.4, 0.0)">
        <use fill="#000000" height="60.1" transform="matrix(0.625, 0.0, 0.0, 0.625, 0.0, 29.0)" width="214.1" xlink:href="#font_Times_New_Roman_T0"/>
        <use fill="#000000" height="60.1" transform="matrix(0.625, 0.0, 0.0, 0.625, 19.55, 29.0)" width="214.1" xlink:href="#font_Times_New_Roman_a0"/>
        <use fill="#000000" height="60.1" transform="matrix(0.625, 0.0, 0.0, 0.625, 33.75, 29.0)" width="214.1" xlink:href="#font_Times_New_Roman_r0"/>
        <use fill="#000000" height="60.1" transform="matrix(0.625, 0.0, 0.0, 0.625, 44.4, 29.0)" width="214.1" xlink:href="#font_Times_New_Roman_g0"/>
        <use fill="#000000" height="60.1" transform="matrix(0.625, 0.0, 0.0, 0.625, 60.4, 29.0)" width="214.1" xlink:href="#font_Times_New_Roman_e0"/>
        <use fill="#000000" height="60.1" transform="matrix(0.625, 0.0, 0.0, 0.625, 74.6, 29.0)" width="214.1" xlink:href="#font_Times_New_Roman_t0"/>
        <use fill="#000000" height="60.1" transform="matrix(0.625, 0.0, 0.0, 0.625, 91.5, 29.0)" width="214.1" xlink:href="#font_Times_New_Roman_M0"/>
        <use fill="#000000" height="60.1" transform="matrix(0.625, 0.0, 0.0, 0.625, 119.95, 29.0)" width="214.1" xlink:href="#font_Times_New_Roman_i0"/>
        <use fill="#000000" height="60.1" transform="matrix(0.625, 0.0, 0.0, 0.625, 128.85, 29.0)" width="214.1" xlink:href="#font_Times_New_Roman_s0"/>
        <use fill="#000000" height="60.1" transform="matrix(0.625, 0.0, 0.0, 0.625, 141.3, 29.0)" width="214.1" xlink:href="#font_Times_New_Roman_s0"/>
        <use fill="#000000" height="60.1" transform="matrix(0.625, 0.0, 0.0, 0.625, 153.75, 29.0)" width="214.1" xlink:href="#font_Times_New_Roman_e0"/>
        <use fill="#000000" height="60.1" transform="matrix(0.625, 0.0, 0.0, 0.625, 167.95, 29.0)" width="214.1" xlink:href="#font_Times_New_Roman_d0"/>
        <use fill="#000000" height="60.1" transform="matrix(0.625, 0.0, 0.0, 0.625, 183.95, 29.0)" width="214.1" xlink:href="#font_Times_New_Roman__1"/>
      </g>
      <g transform="matrix(1.0, 0.0, 0.0, 1.0, -25.4, 0.0)">
        <use fill="#000000" height="60.1" transform="matrix(0.625, 0.0, 0.0, 0.625, 5.0, 66.0)" width="214.1" xlink:href="#font_Times_New_Roman_-0"/>
        <use fill="#000000" height="60.1" transform="matrix(0.625, 0.0, 0.0, 0.625, 23.65, 66.0)" width="214.1" xlink:href="#font_Times_New_Roman_G0"/>
        <use fill="#000000" height="60.1" transform="matrix(0.625, 0.0, 0.0, 0.625, 46.75, 66.0)" width="214.1" xlink:href="#font_Times_New_Roman_a0"/>
        <use fill="#000000" height="60.1" transform="matrix(0.625, 0.0, 0.0, 0.625, 60.95, 66.0)" width="214.1" xlink:href="#font_Times_New_Roman_m0"/>
        <use fill="#000000" height="60.1" transform="matrix(0.625, 0.0, 0.0, 0.625, 85.85, 66.0)" width="214.1" xlink:href="#font_Times_New_Roman_e0"/>
        <use fill="#000000" height="60.1" transform="matrix(0.625, 0.0, 0.0, 0.625, 108.05, 66.0)" width="214.1" xlink:href="#font_Times_New_Roman_O0"/>
        <use fill="#000000" height="60.1" transform="matrix(0.625, 0.0, 0.0, 0.625, 131.15, 66.0)" width="214.1" xlink:href="#font_Times_New_Roman_v0"/>
        <use fill="#000000" height="60.1" transform="matrix(0.625, 0.0, 0.0, 0.625, 147.15, 66.0)" width="214.1" xlink:href="#font_Times_New_Roman_e0"/>
        <use fill="#000000" height="60.1" transform="matrix(0.625, 0.0, 0.0, 0.625, 161.35, 66.0)" width="214.1" xlink:href="#font_Times_New_Roman_r0"/>
        <use fill="#000000" height="60.1" transform="matrix(0.625, 0.0, 0.0, 0.625, 180.0, 66.0)" width="214.1" xlink:href="#font_Times_New_Roman_-0"/>
      </g>
    </g>
    <g id="font_Times_New_Roman_T0">
      <path d="M29.65 -33.9 L1.95 -33.9 1.55 -25.95 2.5 -25.95 Q2.7 -28.25 3.6 -29.6 4.55 -30.95 5.85 -31.4 L9.2 -31.75 13.3 -31.75 13.3 -5.85 Q13.3 -3.0 12.75 -2.2 11.85 -0.9 9.7 -0.9 L8.5 -0.9 8.5 0.0 22.85 0.0 22.85 -0.9 21.7 -0.9 Q19.7 -0.9 18.75 -1.95 18.1 -2.75 18.1 -5.85 L18.1 -31.75 22.85 -31.75 Q24.95 -31.75 26.25 -31.05 27.55 -30.4 28.3 -28.95 28.8 -28.05 29.05 -25.95 L30.0 -25.95 29.65 -33.9" fill-rule="evenodd" stroke="none"/>
    </g>
    <g id="font_Times_New_Roman_a0">
      <path d="M14.6 -4.9 L14.6 -4.9 Q11.5 -2.4 9.6 -2.4 8.2 -2.4 7.1 -3.6 6.05 -4.8 6.05 -6.6 6.05 -8.0 6.9 -9.2 7.75 -10.4 9.7 -11.5 10.8 -12.15 14.6 -13.65 L14.6 -4.9 M14.6 -3.3 L14.6 -3.3 Q14.6 -1.25 15.35 -0.4 16.05 0.45 17.3 0.45 19.85 0.45 22.65 -3.3 L22.65 -4.7 20.6 -2.85 19.9 -2.7 Q19.55 -2.7 19.25 -2.95 18.95 -3.2 18.85 -3.9 18.7 -4.65 18.7 -7.95 L18.7 -15.7 Q18.7 -19.05 18.25 -20.1 17.55 -21.75 16.1 -22.55 14.15 -23.55 11.1 -23.55 7.1 -23.55 4.9 -21.75 2.7 -19.95 2.7 -17.8 2.7 -16.7 3.3 -16.05 3.9 -15.4 4.8 -15.4 5.75 -15.4 6.35 -16.0 6.95 -16.65 6.95 -17.8 L6.9 -19.25 Q6.9 -20.35 7.85 -21.2 8.75 -22.05 10.35 -22.05 12.4 -22.05 13.5 -20.75 14.6 -19.5 14.6 -16.05 L14.6 -15.15 Q8.7 -13.0 6.15 -11.5 3.6 -10.0 2.6 -8.3 1.85 -7.1 1.85 -5.4 1.85 -2.75 3.4 -1.15 4.9 0.5 7.3 0.5 8.8 0.5 10.15 -0.15 11.05 -0.55 14.6 -3.3" fill-rule="evenodd" stroke="none"/>
    </g>
    <g id="font_Times_New_Roman_r0">
      <path d="M8.3 -23.55 L7.25 -23.55 0.35 -20.75 0.6 -19.85 2.35 -20.25 Q3.0 -20.25 3.45 -19.9 L4.05 -18.75 4.2 -14.0 4.2 -5.15 4.05 -2.7 Q3.8 -1.85 3.2 -1.45 2.35 -0.9 0.6 -0.9 L0.6 0.0 12.3 0.0 12.3 -0.9 Q10.75 -0.9 9.95 -1.35 9.1 -1.8 8.8 -2.45 8.3 -3.45 8.3 -5.35 L8.3 -16.3 Q9.5 -18.65 10.65 -19.7 11.15 -20.2 11.6 -20.2 12.15 -20.2 13.25 -19.3 14.3 -18.45 15.2 -18.45 16.1 -18.45 16.75 -19.15 17.4 -19.8 17.4 -20.8 17.4 -21.9 16.5 -22.7 15.6 -23.55 14.2 -23.55 11.2 -23.55 8.3 -18.4 L8.3 -23.55" fill-rule="evenodd" stroke="none"/>
    </g>
    <g id="font_Times_New_Roman_g0">
      <path d="M7.5 0.0 L7.5 0.0 16.15 0.6 Q20.0 0.7 21.3 1.25 22.55 1.8 22.55 3.1 22.55 4.9 20.45 6.5 18.3 8.05 13.8 8.05 9.05 8.05 6.55 6.5 5.1 5.6 5.1 4.4 5.1 3.5 5.7 2.4 6.3 1.3 7.5 0.0 M12.1 -22.35 L12.1 -22.35 Q14.1 -22.35 15.35 -20.7 17.1 -18.45 17.1 -14.5 17.1 -11.45 15.85 -10.0 14.65 -8.6 12.75 -8.6 10.75 -8.6 9.45 -10.25 7.75 -12.4 7.75 -16.35 7.75 -19.4 9.0 -20.9 10.25 -22.35 12.1 -22.35 M7.75 -8.35 L7.75 -8.35 Q5.15 -6.2 4.45 -5.0 3.75 -3.85 3.75 -2.95 3.75 -2.2 4.3 -1.55 4.8 -0.95 6.1 -0.2 L3.55 2.5 1.8 5.1 Q1.55 5.7 1.55 6.3 1.55 7.65 3.4 8.9 6.75 11.05 11.55 11.05 17.85 11.05 21.75 7.4 24.4 4.95 24.4 2.1 24.4 0.05 23.0 -1.35 21.6 -2.75 19.3 -3.05 L12.6 -3.4 9.1 -3.6 Q7.9 -3.75 7.5 -4.15 7.1 -4.55 7.1 -5.0 7.1 -5.5 7.5 -6.2 7.85 -6.9 8.95 -7.85 L12.45 -7.35 Q16.55 -7.35 19.0 -9.65 21.45 -11.9 21.45 -15.1 21.45 -17.9 20.05 -19.7 L23.05 -19.7 24.3 -19.8 24.55 -20.0 24.7 -20.9 24.55 -21.7 24.3 -21.9 23.05 -21.95 18.2 -21.95 Q15.8 -23.55 12.5 -23.55 8.5 -23.55 5.95 -21.1 3.4 -18.65 3.4 -15.25 3.4 -13.05 4.5 -11.2 5.65 -9.35 7.75 -8.35" fill-rule="evenodd" stroke="none"/>
    </g>
    <g id="font_Times_New_Roman_e0">
      <path d="M5.45 -15.7 L5.45 -15.7 Q5.75 -18.6 7.4 -20.2 9.0 -21.8 11.1 -21.8 12.45 -21.8 13.7 -21.0 14.9 -20.2 15.55 -18.8 15.95 -17.9 16.05 -15.7 L5.45 -15.7 M5.45 -14.25 L21.3 -14.25 Q21.3 -18.5 18.8 -21.05 16.35 -23.6 12.5 -23.6 7.95 -23.6 4.95 -20.3 1.9 -17.0 1.9 -11.15 1.9 -5.7 4.85 -2.5 7.8 0.7 11.9 0.7 15.7 0.7 18.25 -2.1 20.75 -4.9 21.3 -8.35 L20.5 -8.85 Q19.4 -5.85 17.75 -4.6 16.05 -3.35 13.8 -3.35 10.45 -3.35 7.95 -6.25 5.45 -9.15 5.45 -14.25" fill-rule="evenodd" stroke="none"/>
    </g>
    <g id="font_Times_New_Roman_t0">
      <path d="M8.25 -30.4 L7.5 -30.4 5.9 -26.95 Q4.75 -25.15 3.35 -23.8 1.9 -22.5 0.5 -21.95 L0.5 -21.15 4.15 -21.15 4.15 -5.75 Q4.15 -3.25 4.65 -2.05 5.2 -0.9 6.3 -0.25 7.4 0.4 8.55 0.4 10.25 0.4 11.85 -0.85 13.45 -2.1 14.3 -4.55 L13.35 -4.55 Q12.9 -3.55 12.15 -3.0 11.35 -2.5 10.55 -2.5 9.55 -2.5 8.9 -3.3 8.25 -4.05 8.25 -6.3 L8.25 -21.15 13.6 -21.15 13.6 -22.9 8.25 -22.9 8.25 -30.4" fill-rule="evenodd" stroke="none"/>
    </g>
    <g id="font_Times_New_Roman_M0">
      <path d="M20.95 0.0 L21.8 0.0 34.85 -28.5 34.85 -5.85 Q34.85 -3.0 34.3 -2.2 33.45 -0.9 31.25 -0.9 L30.05 -0.9 30.05 0.0 44.45 0.0 44.45 -0.9 43.3 -0.9 Q41.3 -0.9 40.35 -1.95 39.65 -2.75 39.65 -5.85 L39.65 -28.0 Q39.65 -30.85 40.2 -31.65 41.1 -32.95 43.3 -32.95 L44.45 -32.95 44.45 -33.9 34.85 -33.9 22.75 -7.35 10.45 -33.9 0.85 -33.9 0.85 -32.95 3.9 -32.45 Q4.8 -32.0 5.15 -31.25 5.65 -30.25 5.65 -28.0 L5.65 -5.85 Q5.65 -3.0 5.1 -2.2 4.2 -0.9 2.05 -0.9 L0.85 -0.9 0.85 0.0 12.65 0.0 12.65 -0.9 11.45 -0.9 Q9.45 -0.9 8.55 -1.95 7.85 -2.75 7.85 -5.85 L7.85 -28.5 20.95 0.0" fill-rule="evenodd" stroke="none"/>
    </g>
    <g id="font_Times_New_Roman_i0">
      <path d="M9.5 -23.55 L8.4 -23.55 1.5 -20.75 1.85 -19.85 Q2.85 -20.25 3.55 -20.25 L4.6 -19.9 5.15 -18.8 Q5.35 -17.7 5.35 -14.0 L5.35 -5.15 Q5.35 -3.05 5.05 -2.3 L4.1 -1.2 1.85 -0.9 1.85 0.0 13.0 0.0 13.0 -0.9 10.75 -1.25 Q10.15 -1.6 9.85 -2.3 9.5 -3.0 9.5 -5.15 L9.5 -23.55 M7.45 -35.55 L7.45 -35.55 Q6.35 -35.55 5.65 -34.8 4.9 -34.05 4.9 -33.0 4.9 -31.95 5.65 -31.2 6.4 -30.45 7.45 -30.45 8.5 -30.45 9.25 -31.2 9.95 -31.95 9.95 -33.0 9.95 -34.05 9.25 -34.8 8.5 -35.55 7.45 -35.55" fill-rule="evenodd" stroke="none"/>
    </g>
    <g id="font_Times_New_Roman_s0">
      <path d="M16.4 -23.55 L15.6 -23.55 15.05 -22.8 14.45 -22.6 12.75 -23.0 9.45 -23.55 Q6.4 -23.55 4.45 -21.65 2.5 -19.75 2.5 -16.95 2.5 -14.75 3.65 -13.35 4.75 -11.9 8.4 -10.1 12.0 -8.3 13.25 -7.1 14.45 -5.95 14.45 -4.2 14.45 -2.8 13.35 -1.75 12.25 -0.75 10.55 -0.75 8.1 -0.75 6.1 -2.55 4.15 -4.3 3.45 -7.8 L2.6 -7.8 2.6 0.35 3.45 0.35 Q3.75 -0.3 4.35 -0.3 L5.7 -0.05 10.5 0.7 Q13.4 0.7 15.8 -1.2 18.15 -3.1 18.15 -6.25 18.15 -10.3 13.05 -12.75 L9.4 -14.55 Q7.05 -15.7 6.25 -16.7 5.45 -17.7 5.45 -19.1 5.45 -20.25 6.55 -21.15 7.6 -22.1 9.35 -22.1 11.65 -22.1 13.15 -20.75 14.65 -19.45 15.6 -15.75 L16.4 -15.75 16.4 -23.55" fill-rule="evenodd" stroke="none"/>
    </g>
    <g id="font_Times_New_Roman_d0">
      <path d="M17.8 -4.3 L17.8 -4.3 Q15.65 -2.05 13.4 -2.05 10.7 -2.05 8.5 -4.7 6.3 -7.4 6.3 -12.45 6.3 -17.45 8.55 -20.05 10.3 -22.05 12.5 -22.05 13.65 -22.05 14.9 -21.3 16.15 -20.6 16.9 -19.2 17.65 -17.8 17.8 -16.1 L17.8 -4.3 M17.8 -2.55 L17.8 0.7 18.95 0.7 25.75 -2.1 25.45 -3.0 Q24.35 -2.55 23.65 -2.55 23.1 -2.55 22.7 -2.9 22.3 -3.25 22.1 -4.15 21.9 -5.05 21.9 -9.05 L21.9 -35.55 20.8 -35.55 13.95 -32.75 14.3 -31.85 16.0 -32.25 17.0 -31.95 Q17.4 -31.6 17.6 -30.7 17.8 -29.8 17.8 -25.9 L17.8 -21.65 Q15.8 -23.6 12.8 -23.6 7.9 -23.6 4.8 -19.5 1.7 -15.4 1.7 -10.5 1.7 -5.55 4.5 -2.4 7.3 0.7 11.05 0.7 12.9 0.7 14.5 -0.05 16.1 -0.8 17.8 -2.55" fill-rule="evenodd" stroke="none"/>
    </g>
    <g id="font_Times_New_Roman__1">
      <path d="M8.5 -4.8 L8.5 -4.8 Q7.35 -4.8 6.55 -4.0 5.75 -3.2 5.75 -2.05 5.75 -0.9 6.55 -0.1 7.35 0.7 8.5 0.7 9.65 0.7 10.5 -0.1 11.3 -0.9 11.3 -2.05 11.3 -3.2 10.5 -4.0 9.65 -4.8 8.5 -4.8 M9.0 -8.95 L11.25 -29.2 11.35 -30.9 Q11.35 -32.75 10.55 -33.7 9.75 -34.65 8.55 -34.65 7.4 -34.65 6.55 -33.7 5.7 -32.75 5.7 -31.2 L5.85 -29.2 8.05 -8.95 9.0 -8.95" fill-rule="evenodd" stroke="none"/>
    </g>
    <g id="font_Times_New_Roman_-0">
      <path d="M2.1 -13.35 L2.1 -9.6 15.0 -9.6 15.0 -13.35 2.1 -13.35" fill-rule="evenodd" stroke="none"/>
    </g>
    <g id="font_Times_New_Roman_G0">
      <path d="M31.45 -34.65 L30.5 -34.65 Q30.45 -33.4 30.1 -32.95 29.75 -32.5 29.3 -32.5 28.8 -32.5 27.4 -33.05 L23.15 -34.35 19.75 -34.65 Q14.7 -34.65 10.95 -32.5 6.5 -29.85 3.95 -25.0 1.8 -20.9 1.8 -16.4 1.8 -10.25 5.65 -5.5 10.75 0.8 20.55 0.8 L26.8 0.05 Q29.6 -0.65 32.45 -2.2 L32.45 -12.6 Q32.45 -15.3 32.95 -16.25 33.7 -17.55 35.65 -17.55 L36.25 -17.55 36.25 -18.5 23.15 -18.5 23.15 -17.55 26.0 -17.1 Q26.8 -16.7 27.2 -15.9 27.6 -15.15 27.6 -12.6 L27.6 -2.8 Q25.95 -1.85 24.2 -1.4 L20.6 -0.9 Q17.4 -0.9 14.35 -2.75 11.3 -4.65 9.45 -8.65 7.55 -12.65 7.55 -17.5 7.55 -23.45 10.4 -27.8 13.75 -32.9 20.25 -32.9 25.0 -32.9 28.0 -30.0 30.1 -27.95 31.45 -23.95 L32.3 -23.95 31.45 -34.65" fill-rule="evenodd" stroke="none"/>
    </g>
    <g id="font_Times_New_Roman_m0">
      <path d="M8.4 -18.7 L8.4 -23.55 7.35 -23.55 0.45 -20.75 0.8 -19.85 2.5 -20.25 Q3.15 -20.25 3.5 -19.9 L4.05 -18.8 4.3 -13.9 4.3 -5.15 Q4.3 -3.05 3.95 -2.3 3.65 -1.55 3.0 -1.2 L0.8 -0.9 0.8 0.0 12.15 0.0 12.15 -0.9 9.65 -1.2 Q9.05 -1.55 8.75 -2.25 8.4 -2.9 8.4 -5.15 L8.4 -17.45 Q9.55 -18.8 11.6 -19.9 12.95 -20.65 14.3 -20.65 16.25 -20.65 17.35 -19.05 18.2 -17.8 18.2 -15.0 L18.2 -5.15 18.05 -2.7 Q17.8 -1.8 17.1 -1.35 16.35 -0.9 14.45 -0.9 L14.45 0.0 26.05 0.0 26.05 -0.9 23.55 -1.25 Q22.85 -1.65 22.6 -2.25 22.3 -2.8 22.3 -5.15 L22.3 -16.1 22.25 -17.15 22.3 -17.45 Q24.2 -19.25 25.55 -19.9 L28.2 -20.55 Q30.35 -20.55 31.35 -18.95 32.0 -17.8 32.0 -15.0 L32.0 -5.15 31.9 -2.75 Q31.65 -1.85 31.1 -1.45 30.25 -0.9 28.8 -0.9 L28.3 -0.9 28.3 0.0 39.6 0.0 39.6 -0.9 Q38.1 -0.9 37.4 -1.25 36.75 -1.65 36.5 -2.2 36.15 -3.0 36.15 -5.15 L36.15 -15.0 Q36.15 -18.1 35.6 -19.55 34.8 -21.7 33.4 -22.6 31.95 -23.55 30.15 -23.55 28.25 -23.55 26.5 -22.6 24.7 -21.7 22.15 -18.7 21.6 -21.05 20.05 -22.3 18.5 -23.55 16.35 -23.55 L13.8 -23.05 Q12.5 -22.5 11.35 -21.55 L8.4 -18.7" fill-rule="evenodd" stroke="none"/>
    </g>
    <g id="font_Times_New_Roman_O0">
      <path d="M18.25 -32.85 L18.25 -32.85 Q23.1 -32.85 25.85 -29.45 29.3 -25.15 29.3 -16.45 29.3 -8.45 26.2 -4.7 23.05 -1.0 18.3 -1.0 13.8 -1.0 11.1 -4.4 7.55 -8.85 7.55 -17.15 7.55 -25.25 10.95 -29.45 13.7 -32.85 18.25 -32.85 M18.75 -34.65 L18.75 -34.65 Q12.1 -34.65 7.3 -30.25 1.8 -25.15 1.8 -17.05 1.8 -9.15 6.6 -4.2 11.35 0.8 18.35 0.8 25.25 0.8 30.15 -4.3 35.0 -9.4 35.0 -17.15 35.0 -24.65 30.2 -29.65 25.35 -34.65 18.75 -34.65" fill-rule="evenodd" stroke="none"/>
    </g>
    <g id="font_Times_New_Roman_v0">
      <path d="M0.45 -22.9 L0.45 -21.95 2.1 -21.55 3.4 -20.55 4.45 -18.6 12.6 0.7 13.65 0.7 21.75 -18.95 Q22.45 -20.7 23.35 -21.45 23.85 -21.85 25.15 -21.95 L25.15 -22.9 17.65 -22.9 17.65 -21.95 19.4 -21.8 20.1 -21.3 20.3 -20.75 Q20.3 -20.0 19.7 -18.6 L14.35 -5.5 9.05 -18.15 Q8.5 -19.35 8.5 -20.2 8.5 -21.0 9.05 -21.5 9.55 -21.95 10.5 -21.95 L11.2 -21.95 11.2 -22.9 0.45 -22.9" fill-rule="evenodd" stroke="none"/>
    </g>
    <g id="sprite1" transform="matrix(1.0, 0.0, 0.0, 1.0, 124.8, 49.7)">
      <use height="98.3" transform="matrix(1.0, 0.0, 0.0, 1.0, -124.8, -49.7)" width="249.7" xlink:href="#shape1"/>
    </g>
    <g id="shape1" transform="matrix(1.0, 0.0, 0.0, 1.0, 124.8, 49.7)">
      <path d="M18.7 -21.0 L18.85 -21.85 22.8 -24.2 23.85 -30.35 Q26.2 -31.5 29.55 -32.3 L34.25 -33.15 34.05 -24.9 Q36.1 -24.4 37.3 -23.45 L38.65 -22.0 45.2 -24.3 Q46.6 -21.9 47.1 -18.75 47.6 -15.35 46.85 -11.9 L41.4 -8.25 Q41.6 -4.35 41.0 -1.8 L45.05 0.1 Q45.0 3.2 43.1 9.15 41.1 15.35 39.6 16.7 L35.3 15.25 41.45 13.6 43.05 9.15 Q44.5 4.65 44.9 1.8 L31.1 5.65 32.1 2.55 43.4 -0.65 41.0 -1.8 41.35 -4.4 32.75 -1.95 Q32.8 -4.35 32.2 -6.4 31.15 -10.25 28.45 -11.05 26.6 -11.55 24.75 -10.4 22.9 -9.35 21.45 -6.85 19.95 -4.4 19.2 -1.25 18.05 3.6 19.15 7.5 20.25 11.35 22.95 12.1 24.75 12.6 26.6 11.5 L27.0 11.25 26.55 11.55 Q24.7 12.65 22.95 12.1 20.7 11.5 19.6 8.85 L15.35 10.0 15.0 8.0 14.3 8.45 Q13.8 13.6 14.75 17.55 15.6 21.2 17.55 23.3 19.35 25.35 21.8 25.7 24.3 26.0 26.8 24.55 25.2 25.55 23.35 25.75 21.45 25.95 19.8 25.1 18.3 24.35 17.25 23.1 L10.75 24.95 11.65 21.8 15.75 20.65 Q15.1 19.25 14.7 17.55 13.95 14.35 14.15 10.35 L7.65 12.2 7.8 9.45 18.85 6.3 Q18.45 4.3 18.65 2.05 L12.1 3.95 Q12.85 0.6 13.85 -1.4 L9.65 -3.45 9.8 -6.7 16.55 -6.15 16.95 -8.9 33.85 -13.6 31.95 -15.85 29.9 -17.3 17.7 -13.9 17.9 -15.4 22.3 -16.7 22.5 -16.1 Q25.0 -18.2 27.65 -18.0 29.9 -17.85 32.0 -15.9 33.85 -14.15 35.1 -11.3 36.3 -8.6 36.45 -5.8 L36.9 -6.1 Q37.3 -10.95 36.45 -14.35 L47.2 -17.35 46.3 -21.9 34.5 -18.6 33.3 -19.8 45.7 -23.25 45.15 -24.3 38.65 -22.0 37.25 -23.45 Q36.05 -24.35 34.05 -24.9 L34.05 -25.35 18.7 -21.0 M34.35 14.95 L33.4 16.9 32.4 18.75 34.7 24.1 Q33.5 27.25 31.4 29.55 29.4 31.75 27.35 32.55 L22.2 27.45 18.45 28.1 14.35 33.35 Q12.6 32.35 11.95 31.55 L10.8 29.75 34.2 23.05 32.4 18.75 28.25 19.95 Q30.0 18.5 31.3 16.35 L34.0 15.65 34.35 14.95 M2.4 -43.55 Q4.85 -42.35 3.15 -40.65 L2.6 -40.35 Q3.35 -41.45 2.25 -42.5 L2.4 -43.55 M8.0 -36.2 Q7.85 -35.25 6.8 -35.65 L4.25 -35.8 5.1 -36.9 4.95 -36.95 Q3.5 -37.5 4.0 -39.0 4.15 -39.55 4.65 -39.85 7.85 -41.55 9.9 -39.6 L4.45 -38.5 8.75 -36.95 Q10.35 -36.35 9.2 -34.75 7.95 -33.0 5.85 -33.8 3.8 -34.55 4.2 -35.7 4.4 -34.85 5.5 -34.8 7.45 -34.7 8.75 -35.9 8.4 -37.05 7.1 -36.9 L6.35 -36.8 8.0 -36.2 M2.1 -36.9 Q1.6 -34.9 -0.15 -33.8 -1.25 -33.15 -2.5 -33.1 L-3.95 -27.3 Q-6.8 -29.35 -4.5 -33.3 L-3.95 -34.35 Q-4.9 -38.05 -2.15 -40.4 L-2.0 -40.45 -3.3 -35.95 Q-1.85 -38.35 0.55 -39.85 2.7 -39.25 2.1 -36.9 M27.0 -18.0 Q25.55 -17.95 24.1 -17.15 L27.0 -18.0 M24.85 21.9 L23.75 22.25 21.15 22.55 24.0 22.2 24.85 21.9 M-24.6 -46.1 Q-24.25 -46.2 -23.8 -45.85 -23.3 -45.5 -23.45 -44.7 -23.6 -43.95 -24.35 -43.15 -26.15 -41.25 -28.45 -41.85 -28.85 -40.95 -29.2 -41.35 -29.5 -41.75 -29.45 -42.5 -30.2 -43.3 -29.85 -44.35 -29.5 -45.3 -28.45 -46.05 -27.4 -46.8 -26.35 -46.85 -25.2 -46.95 -24.6 -46.1 M-47.75 -46.15 L-49.25 -46.3 Q-48.3 -47.5 -46.85 -48.1 L-42.9 -48.45 Q-37.2 -47.3 -32.9 -43.4 -31.55 -42.15 -30.7 -40.55 -30.15 -39.6 -30.0 -38.5 -29.85 -37.7 -30.05 -36.95 -30.25 -36.1 -30.8 -35.4 -31.4 -34.6 -32.25 -34.1 -35.95 -31.8 -40.2 -33.05 L-40.45 -32.15 -41.45 -32.0 -41.95 -33.7 Q-45.05 -34.7 -45.65 -37.15 -44.05 -35.7 -42.05 -34.95 L-41.85 -38.9 -45.65 -38.15 Q-45.15 -40.35 -41.9 -40.4 -41.95 -42.3 -41.25 -44.05 -39.85 -42.6 -40.25 -40.7 L-38.45 -40.75 -37.1 -40.55 -35.95 -39.8 Q-34.4 -38.25 -35.6 -36.75 L-36.55 -36.95 -35.75 -38.0 Q-37.85 -39.15 -40.25 -38.95 L-40.2 -34.4 -37.95 -34.05 Q-35.2 -34.05 -33.2 -35.8 -32.45 -36.45 -32.05 -37.35 -31.8 -37.85 -31.85 -38.45 -31.95 -39.4 -32.4 -40.2 L-33.75 -42.15 Q-35.05 -43.5 -36.6 -44.45 -42.2 -47.95 -48.45 -46.7 L-47.7 -46.2 -47.75 -46.15 M-4.95 -39.35 L-7.75 -39.05 -8.1 -38.1 Q-6.05 -38.7 -6.05 -37.1 L-8.55 -36.6 -8.85 -35.4 -6.0 -35.7 -5.7 -34.95 Q-7.95 -32.55 -9.95 -34.35 -10.65 -35.0 -10.45 -36.05 L-10.1 -37.6 -9.05 -39.15 Q-9.85 -39.3 -10.25 -39.9 L-10.3 -39.95 Q-7.7 -41.2 -5.15 -40.0 -4.7 -39.8 -4.95 -39.35 M-0.25 -35.35 Q1.8 -36.6 0.9 -38.5 -0.75 -36.95 -1.6 -34.95 -0.9 -34.95 -0.25 -35.35 M-16.0 -39.75 Q-14.45 -38.05 -13.25 -36.0 L-14.05 -41.5 Q-12.85 -41.15 -12.35 -39.95 -11.1 -37.05 -12.65 -34.45 -12.9 -34.05 -13.4 -33.95 L-14.0 -34.5 -15.95 -37.75 -16.05 -35.4 Q-16.05 -34.2 -16.8 -33.55 -17.95 -34.55 -17.7 -36.25 -17.4 -38.2 -16.45 -39.9 L-16.0 -39.75 M-18.85 -39.55 L-24.3 -38.5 -22.9 -38.0 Q-20.9 -38.0 -19.75 -36.6 -18.9 -35.6 -19.95 -34.5 -21.55 -32.8 -23.5 -34.2 -25.85 -35.95 -23.6 -36.9 L-23.75 -36.95 Q-25.05 -37.55 -25.05 -39.0 -22.45 -41.75 -18.8 -40.05 L-18.85 -39.55 M-26.75 -33.85 Q-27.45 -33.3 -27.65 -34.0 -28.55 -36.85 -28.1 -39.9 L-27.8 -40.55 -27.45 -40.4 Q-26.55 -38.75 -26.65 -36.7 L-26.75 -33.85 M-19.95 -35.95 Q-20.45 -37.15 -21.9 -36.7 L-20.75 -36.15 -20.9 -35.75 -24.55 -35.8 Q-22.8 -33.85 -20.15 -35.8 L-19.95 -35.95 M-27.75 -42.95 Q-25.6 -42.8 -24.4 -44.4 -24.1 -44.75 -24.35 -45.15 -26.4 -45.45 -27.55 -43.3 L-27.75 -42.95 M-28.95 -43.5 L-27.25 -45.45 -28.55 -44.75 Q-29.4 -43.95 -28.95 -43.5" fill="#ffffff" fill-rule="evenodd" stroke="none"/>
      <path d="M35.3 15.25 L39.6 16.7 Q41.1 15.35 43.1 9.15 45.0 3.2 45.05 0.1 L41.0 -1.8 Q41.6 -4.35 41.4 -8.25 L46.85 -11.9 Q47.6 -15.35 47.1 -18.75 46.6 -21.9 45.2 -24.3 L38.65 -22.0 37.3 -23.45 Q36.1 -24.4 34.05 -24.9 L34.25 -33.15 29.55 -32.3 Q26.2 -31.5 23.85 -30.35 L22.8 -24.2 18.85 -21.85 18.7 -21.0 17.9 -15.4 17.7 -13.9 16.95 -8.9 16.55 -6.15 9.8 -6.7 9.65 -3.45 13.85 -1.4 Q12.85 0.6 12.1 3.95 L11.7 5.5 8.45 6.1 7.8 9.45 7.65 12.2 7.85 16.7 10.95 17.75 11.65 21.8 10.75 24.95 9.8 27.7 10.8 29.75 11.95 31.55 Q12.6 32.35 14.35 33.35 L18.45 28.1 22.2 27.45 27.35 32.55 Q29.4 31.75 31.4 29.55 33.5 27.25 34.7 24.1 L32.4 18.75 33.4 16.9 34.35 14.95 35.3 15.25 M33.3 -19.8 L34.5 -18.6 Q35.6 -16.95 36.2 -15.15 L36.45 -14.35 Q37.3 -10.95 36.9 -6.1 L36.45 -5.8 Q36.3 -8.6 35.1 -11.3 33.85 -14.15 32.0 -15.9 29.9 -17.85 27.65 -18.0 25.0 -18.2 22.5 -16.1 L22.3 -16.7 Q22.75 -17.8 23.7 -18.7 25.05 -20.0 26.85 -20.65 L30.45 -21.0 Q32.05 -20.7 33.3 -19.8 M26.8 24.55 Q24.3 26.0 21.8 25.7 19.35 25.35 17.55 23.3 15.6 21.2 14.75 17.55 13.8 13.6 14.3 8.45 L15.0 8.0 15.35 10.0 16.1 12.4 Q16.8 14.3 18.15 15.85 19.35 17.25 21.05 17.9 L23.1 18.3 23.45 18.3 Q25.1 18.25 26.55 17.5 31.05 15.2 33.3 10.5 L33.75 10.75 33.0 13.1 31.3 16.35 Q30.0 18.5 28.25 19.95 L24.85 21.9 24.0 22.2 21.15 22.55 20.25 22.45 20.25 22.4 Q22.35 25.25 26.6 24.0 L26.8 24.55 M27.0 11.25 L26.6 11.5 Q24.75 12.6 22.95 12.1 20.25 11.35 19.15 7.5 18.05 3.6 19.2 -1.25 19.95 -4.4 21.45 -6.85 22.9 -9.35 24.75 -10.4 26.6 -11.55 28.45 -11.05 31.15 -10.25 32.2 -6.4 32.8 -4.35 32.75 -1.95 L32.1 2.55 31.1 5.65 Q30.4 7.35 29.3 8.8 L27.0 11.25 M20.2 -33.7 Q28.4 -39.25 36.35 -39.35 L45.35 -32.8 44.6 -28.4 48.8 -30.0 55.75 -26.85 Q56.55 -25.25 57.15 -22.7 58.1 -18.25 57.95 -12.75 L61.25 -12.65 61.9 -19.4 82.1 -18.3 82.05 -24.35 110.0 -28.35 99.0 17.75 Q100.05 18.95 100.45 20.8 100.85 22.7 100.55 24.8 100.1 27.55 98.55 29.5 97.1 31.4 95.25 31.65 L92.5 32.0 90.45 32.35 60.3 36.0 Q58.85 37.9 56.55 38.85 L56.45 38.85 Q54.25 39.75 52.35 39.4 49.35 38.85 47.45 35.7 45.75 32.9 45.95 30.1 L43.0 28.7 40.75 33.4 Q39.45 35.85 38.0 36.9 L25.55 39.8 23.4 36.4 13.75 40.0 Q7.6 37.65 5.2 29.5 L6.3 24.2 5.1 24.0 5.1 24.05 -14.4 22.65 -13.55 18.05 -17.45 17.95 -18.0 21.0 -34.95 20.3 -33.8 15.15 Q-36.3 16.5 -39.05 16.1 L-39.15 16.1 -39.6 16.0 -39.95 15.9 Q-42.25 15.3 -44.0 13.55 -45.5 18.3 -48.35 21.4 L-49.85 22.8 Q-52.2 24.7 -54.9 25.3 -60.95 26.6 -66.0 23.8 L-64.8 28.85 -90.0 40.1 -94.95 -1.95 -109.05 2.85 -117.15 -29.1 -74.0 -26.4 -72.0 -17.65 Q-68.15 -22.0 -62.55 -23.25 -57.8 -24.25 -53.2 -20.7 -51.4 -19.3 -49.85 -17.4 -47.55 -14.5 -45.8 -10.55 -43.8 -13.35 -40.7 -14.8 -37.75 -16.15 -34.7 -15.95 -32.05 -15.8 -29.8 -13.9 -27.65 -12.1 -26.25 -9.1 L-19.8 -9.5 -18.65 -21.0 18.9 -26.8 20.2 -33.7 M-6.5 -28.2 Q-6.65 -30.1 -6.15 -31.9 L-5.7 -33.35 Q-7.2 -32.25 -9.05 -32.1 -10.05 -32.1 -10.8 -32.8 L-11.45 -33.7 Q-12.2 -32.75 -13.35 -32.8 -14.35 -32.8 -14.95 -33.6 -15.3 -32.9 -16.4 -32.45 -17.25 -32.1 -17.95 -32.65 L-18.55 -33.5 Q-19.7 -32.45 -21.3 -32.25 L-24.3 -32.75 Q-25.0 -33.05 -25.55 -33.6 -25.7 -32.9 -26.35 -32.6 L-28.05 -32.45 Q-29.7 -33.05 -29.55 -34.9 -30.6 -33.45 -32.1 -32.6 -33.5 -31.8 -35.05 -31.55 -37.2 -31.15 -39.35 -31.55 -40.35 -30.2 -41.95 -30.95 -42.8 -31.35 -43.05 -32.3 L-43.15 -32.9 Q-45.65 -34.25 -47.25 -36.6 -48.1 -37.8 -47.25 -38.95 -45.7 -41.0 -43.1 -41.45 -43.15 -43.4 -42.05 -44.95 L-41.7 -45.2 -46.4 -45.8 Q-46.8 -44.85 -47.8 -44.7 L-49.3 -44.95 Q-51.35 -45.8 -49.8 -47.55 -47.6 -50.1 -43.85 -49.65 -38.45 -49.05 -34.0 -45.95 L-31.25 -43.5 Q-31.25 -45.2 -30.0 -46.4 -28.75 -47.6 -27.05 -47.95 -24.9 -48.35 -23.15 -46.85 -21.4 -45.35 -22.65 -43.25 -23.85 -41.3 -26.1 -40.6 L-26.0 -40.45 Q-24.65 -41.2 -22.6 -41.65 L-19.05 -41.55 Q-18.1 -41.35 -17.6 -40.55 -17.25 -41.1 -16.6 -41.15 L-15.3 -40.9 Q-15.6 -42.35 -14.2 -42.7 -13.4 -42.85 -12.75 -42.3 L-11.45 -40.55 Q-10.35 -41.85 -8.45 -41.95 L-5.15 -41.65 Q-4.25 -41.4 -3.8 -40.6 -3.1 -41.75 -1.8 -41.7 -1.2 -41.7 -0.85 -41.2 L-0.65 -40.65 Q0.15 -41.2 1.1 -41.1 L1.35 -41.05 1.6 -41.4 Q0.6 -42.15 0.9 -43.35 1.15 -44.35 2.05 -44.6 3.75 -45.1 4.7 -43.55 5.3 -42.6 5.2 -41.45 L9.35 -41.7 Q10.25 -41.5 10.75 -40.75 11.85 -39.2 10.1 -38.25 10.9 -37.6 11.05 -36.55 11.25 -35.35 10.65 -34.3 9.4 -32.2 6.85 -32.2 3.85 -32.25 2.5 -34.7 1.7 -33.3 0.3 -32.55 -0.6 -32.1 -1.55 -31.95 L-2.4 -28.85 Q-2.15 -26.3 -4.25 -26.3 -6.15 -26.35 -6.5 -28.2 M2.1 -36.9 Q2.7 -39.25 0.55 -39.85 -1.85 -38.35 -3.3 -35.95 L-2.0 -40.45 -2.15 -40.4 Q-4.9 -38.05 -3.95 -34.35 L-4.5 -33.3 Q-6.8 -29.35 -3.95 -27.3 L-2.5 -33.1 Q-1.25 -33.15 -0.15 -33.8 1.6 -34.9 2.1 -36.9 M8.0 -36.2 L6.35 -36.8 7.1 -36.9 Q8.4 -37.05 8.75 -35.9 7.45 -34.7 5.5 -34.8 4.4 -34.85 4.2 -35.7 3.8 -34.55 5.85 -33.8 7.95 -33.0 9.2 -34.75 10.35 -36.35 8.75 -36.95 L4.45 -38.5 9.9 -39.6 Q7.85 -41.55 4.65 -39.85 4.15 -39.55 4.0 -39.0 3.5 -37.5 4.95 -36.95 L5.1 -36.9 4.25 -35.8 6.8 -35.65 Q7.85 -35.25 8.0 -36.2 M2.4 -43.55 L2.25 -42.5 Q3.35 -41.45 2.6 -40.35 L3.15 -40.65 Q4.85 -42.35 2.4 -43.55 M3.7 -8.9 L8.85 -8.8 12.95 -8.7 14.85 -23.1 -14.5 -18.4 -14.5 -12.75 -14.55 -9.35 -6.5 -8.9 -10.05 18.45 -3.25 19.25 3.6 20.1 3.55 20.05 3.6 20.1 3.7 -8.9 M54.8 -25.85 L49.95 -28.05 50.5 -25.35 55.8 -23.15 Q55.4 -24.7 54.8 -25.85 M36.8 -33.95 L43.7 -30.2 44.05 -31.75 37.05 -36.6 36.8 -33.95 M43.3 -28.2 L36.55 -31.75 36.05 -26.95 37.9 -26.15 43.3 -28.2 M51.1 -13.9 L56.5 -13.0 Q56.9 -16.5 56.35 -20.45 L51.0 -21.9 Q51.5 -17.25 51.1 -13.9 M48.0 -8.05 L51.55 17.6 58.7 17.75 61.2 12.5 63.8 19.5 70.65 19.35 74.75 -12.65 63.85 -12.1 62.7 -2.6 60.65 -6.7 59.0 -2.55 57.55 -8.25 48.0 -8.05 M87.2 -8.35 L85.6 -11.5 84.45 -11.5 76.55 -11.6 75.25 17.7 85.05 17.4 85.45 12.05 85.55 10.85 88.05 15.25 95.75 15.25 103.1 -21.9 87.0 -20.3 87.2 -8.35 M122.0 -39.15 L123.15 -36.2 124.2 -39.15 124.9 -39.15 124.9 -35.45 124.45 -35.45 124.4 -38.7 123.25 -35.45 122.95 -35.45 121.7 -38.7 121.7 -35.45 121.3 -35.45 121.3 -39.15 122.0 -39.15 M120.1 -38.3 Q119.2 -39.3 118.6 -38.15 L118.55 -38.05 Q120.8 -37.4 119.5 -36.25 119.65 -36.9 118.85 -37.15 118.15 -37.4 118.0 -38.1 118.9 -40.1 120.5 -38.4 L120.1 -38.3 M119.0 -35.85 Q118.3 -35.4 117.85 -36.3 L118.2 -36.5 119.1 -35.95 119.0 -35.85 M88.7 21.45 L86.35 21.65 86.15 26.6 85.1 22.2 81.3 22.55 81.35 29.85 83.5 29.65 83.9 25.2 85.05 29.65 87.95 29.25 88.7 21.45 M92.6 24.45 L92.8 22.65 95.45 22.45 95.85 20.75 90.3 21.3 89.85 29.1 94.5 28.6 94.85 27.2 92.3 27.45 92.45 25.85 94.5 25.65 94.95 24.2 92.6 24.45 M76.55 30.25 L78.9 30.05 79.7 22.2 76.75 22.5 76.55 30.25 M75.35 29.0 L73.05 29.1 73.8 22.75 70.85 23.0 70.55 30.75 75.25 30.35 75.35 29.0 M56.25 21.45 Q54.2 21.1 52.4 22.8 50.5 24.5 49.95 27.25 49.35 30.05 50.35 32.25 51.3 34.45 53.35 34.8 54.95 35.1 56.45 34.1 L57.25 33.45 Q59.1 31.75 59.65 29.0 60.3 26.25 59.25 24.05 58.3 21.95 56.45 21.5 L56.25 21.45 M42.75 17.75 L46.85 19.85 Q48.2 17.75 49.15 12.7 L45.75 10.8 Q44.4 15.9 42.75 17.75 M36.7 24.2 L42.5 26.8 42.35 23.8 35.0 20.2 36.7 24.2 M54.6 33.4 Q52.05 28.45 54.75 23.05 56.2 24.3 56.5 26.15 56.75 27.95 56.25 29.7 55.7 31.6 54.65 33.25 L54.6 33.4 M68.95 23.4 L66.6 23.6 66.4 28.5 65.35 24.15 61.6 24.45 61.65 31.8 63.75 31.6 64.15 27.15 65.3 31.6 68.2 31.2 68.95 23.4 M26.85 0.3 Q25.8 4.85 26.75 8.35 28.95 6.0 29.95 1.8 31.05 -3.0 29.85 -6.25 27.8 -3.7 26.85 0.3 M-109.45 -23.0 L-110.6 -23.0 -110.1 -21.15 -105.55 -3.45 -92.45 -7.0 -86.6 31.75 -68.65 25.55 -80.4 -10.65 -73.15 -12.8 -75.7 -22.85 -109.45 -23.0 M-47.75 -46.15 L-47.7 -46.2 -48.45 -46.7 Q-42.2 -47.95 -36.6 -44.45 -35.05 -43.5 -33.75 -42.15 L-32.4 -40.2 Q-31.95 -39.4 -31.85 -38.45 -31.8 -37.85 -32.05 -37.35 -32.45 -36.45 -33.2 -35.8 -35.2 -34.05 -37.95 -34.05 L-40.2 -34.4 -40.25 -38.95 Q-37.85 -39.15 -35.75 -38.0 L-36.55 -36.95 -35.6 -36.75 Q-34.4 -38.25 -35.95 -39.8 L-37.1 -40.55 -38.45 -40.75 -40.25 -40.7 Q-39.85 -42.6 -41.25 -44.05 -41.95 -42.3 -41.9 -40.4 -45.15 -40.35 -45.65 -38.15 L-41.85 -38.9 -42.05 -34.95 Q-44.05 -35.7 -45.65 -37.15 -45.05 -34.7 -41.95 -33.7 L-41.45 -32.0 -40.45 -32.15 -40.2 -33.05 Q-35.95 -31.8 -32.25 -34.1 -31.4 -34.6 -30.8 -35.4 -30.25 -36.1 -30.05 -36.95 -29.85 -37.7 -30.0 -38.5 -30.15 -39.6 -30.7 -40.55 -31.55 -42.15 -32.9 -43.4 -37.2 -47.3 -42.9 -48.45 L-46.85 -48.1 Q-48.3 -47.5 -49.25 -46.3 L-47.75 -46.15 M-24.6 -46.1 Q-25.2 -46.95 -26.35 -46.85 -27.4 -46.8 -28.45 -46.05 -29.5 -45.3 -29.85 -44.35 -30.2 -43.3 -29.45 -42.5 -29.5 -41.75 -29.2 -41.35 -28.85 -40.95 -28.45 -41.85 -26.15 -41.25 -24.35 -43.15 -23.6 -43.95 -23.45 -44.7 -23.3 -45.5 -23.8 -45.85 -24.25 -46.2 -24.6 -46.1 M-39.1 -42.75 L-39.05 -41.85 -36.2 -41.4 Q-34.3 -40.85 -33.55 -39.65 -35.1 -42.5 -39.4 -44.35 L-39.8 -44.55 Q-39.2 -43.85 -39.1 -42.75 M-43.25 -36.95 L-43.2 -37.45 -43.85 -37.35 -43.25 -36.95 M-38.95 -35.45 L-36.3 -35.5 Q-36.7 -35.6 -37.05 -35.8 -38.05 -36.3 -37.8 -37.4 L-39.0 -37.65 -38.95 -35.45 M-53.55 -30.15 Q-50.6 -27.8 -49.15 -24.55 L-50.7 -23.4 Q-52.25 -25.0 -54.45 -26.1 -56.9 -27.25 -59.35 -27.5 -65.45 -28.15 -69.5 -23.25 L-70.65 -23.85 Q-69.3 -29.0 -66.2 -31.3 -63.45 -33.35 -59.9 -32.9 -56.6 -32.45 -53.55 -30.15 M-57.15 -7.5 Q-56.3 -8.3 -55.2 -8.45 -53.0 -8.7 -51.0 -6.15 L-49.85 -4.35 Q-48.8 -2.35 -48.4 0.2 -47.8 4.0 -48.95 6.9 L-49.85 8.5 Q-50.85 9.85 -52.35 10.0 -54.55 10.25 -56.55 7.7 -58.55 5.2 -59.15 1.35 -59.5 -0.95 -59.15 -3.2 -54.3 -3.9 -52.1 0.6 L-52.2 -0.5 Q-52.4 -1.7 -52.75 -2.75 -54.0 -6.2 -57.15 -7.5 M-56.45 -18.05 Q-58.75 -19.1 -61.05 -18.55 -63.35 -18.05 -65.2 -16.05 -66.65 -14.55 -67.65 -12.35 L-67.75 -12.1 -68.05 -11.3 -68.1 -11.25 -68.15 -11.15 Q-70.55 -4.8 -69.25 3.1 -68.0 11.05 -63.8 15.9 -61.8 18.15 -59.55 19.2 -57.2 20.2 -54.9 19.7 -52.6 19.15 -50.75 17.2 L-49.85 16.1 Q-48.65 14.45 -47.85 12.25 L-47.65 11.75 -46.9 9.1 Q-46.4 6.9 -46.3 4.6 L-46.3 3.75 Q-46.25 0.95 -46.7 -2.0 -47.6 -7.45 -49.85 -11.45 -50.85 -13.3 -52.2 -14.8 -54.2 -17.1 -56.45 -18.05 M-39.6 -21.3 Q-38.0 -22.55 -36.0 -22.7 -33.95 -22.8 -32.0 -21.65 -29.9 -20.35 -28.35 -17.7 L-29.75 -16.95 Q-32.45 -19.0 -35.05 -19.25 -38.0 -19.5 -40.55 -17.4 L-41.85 -18.05 Q-41.15 -20.05 -39.6 -21.3 M-39.0 -10.0 L-39.05 -9.95 Q-41.7 -7.05 -42.45 -2.45 -43.2 2.15 -41.55 5.75 -39.95 9.35 -36.9 9.85 -33.85 10.35 -31.15 7.4 L-30.55 6.7 -30.3 6.4 -30.25 6.3 -28.55 3.1 -28.35 2.55 -28.4 2.6 -27.85 0.4 -27.75 -0.1 -27.6 -1.4 -27.5 -2.4 -27.55 -2.4 Q-27.45 -5.65 -28.65 -8.3 -30.3 -11.9 -33.3 -12.4 -36.25 -12.85 -38.85 -10.15 L-38.85 -10.2 -39.0 -10.0 M-19.95 -35.95 L-20.15 -35.8 Q-22.8 -33.85 -24.55 -35.8 L-20.9 -35.75 -20.75 -36.15 -21.9 -36.7 Q-20.45 -37.15 -19.95 -35.95 M-26.75 -33.85 L-26.65 -36.7 Q-26.55 -38.75 -27.45 -40.4 L-27.8 -40.55 -28.1 -39.9 Q-28.55 -36.85 -27.65 -34.0 -27.45 -33.3 -26.75 -33.85 M-18.85 -39.55 L-18.8 -40.05 Q-22.45 -41.75 -25.05 -39.0 -25.05 -37.55 -23.75 -36.95 L-23.6 -36.9 Q-25.85 -35.95 -23.5 -34.2 -21.55 -32.8 -19.95 -34.5 -18.9 -35.6 -19.75 -36.6 -20.9 -38.0 -22.9 -38.0 L-24.3 -38.5 -18.85 -39.55 M-16.0 -39.75 L-16.45 -39.9 Q-17.4 -38.2 -17.7 -36.25 -17.95 -34.55 -16.8 -33.55 -16.05 -34.2 -16.05 -35.4 L-15.95 -37.75 -14.0 -34.5 -13.4 -33.95 Q-12.9 -34.05 -12.65 -34.45 -11.1 -37.05 -12.35 -39.95 -12.85 -41.15 -14.05 -41.5 L-13.25 -36.0 Q-14.45 -38.05 -16.0 -39.75 M-0.25 -35.35 Q-0.9 -34.95 -1.6 -34.95 -0.75 -36.95 0.9 -38.5 1.8 -36.6 -0.25 -35.35 M-4.95 -39.35 Q-4.7 -39.8 -5.15 -40.0 -7.7 -41.2 -10.3 -39.95 L-10.25 -39.9 Q-9.85 -39.3 -9.05 -39.15 L-10.1 -37.6 -10.45 -36.05 Q-10.65 -35.0 -9.95 -34.35 -7.95 -32.55 -5.7 -34.95 L-6.0 -35.7 -8.85 -35.4 -8.55 -36.6 -6.05 -37.1 Q-6.05 -38.7 -8.1 -38.1 L-7.75 -39.05 -4.95 -39.35 M-18.6 -38.25 L-18.45 -38.1 -18.45 -38.35 -18.6 -38.25 M-28.95 -43.5 Q-29.4 -43.95 -28.55 -44.75 L-27.25 -45.45 -28.95 -43.5 M-27.75 -42.95 L-27.55 -43.3 Q-26.4 -45.45 -24.35 -45.15 -24.1 -44.75 -24.4 -44.4 -25.6 -42.8 -27.75 -42.95 M-33.15 -38.3 Q-33.2 -37.3 -33.8 -36.55 L-33.35 -37.1 Q-32.95 -38.0 -33.25 -38.9 L-33.15 -38.3 M-34.1 -6.15 L-32.7 -6.5 Q-31.2 -6.4 -30.15 -4.7 -29.2 -3.0 -29.3 -0.7 -29.45 1.65 -30.6 3.25 -31.8 4.85 -33.35 4.75 -34.9 4.65 -35.85 2.95 -36.85 1.25 -36.75 -1.1 -36.65 -2.55 -36.15 -3.7 -33.3 -3.5 -31.85 -1.0 L-31.8 -1.65 -31.95 -3.05 Q-32.35 -5.15 -34.1 -6.15 M-18.9 -5.6 L-20.1 -5.5 -19.7 -1.55 -21.8 -1.75 -25.35 -2.1 -25.4 -0.3 -25.65 2.2 Q-26.3 6.05 -27.95 9.05 -28.9 10.7 -30.15 12.15 L-30.65 16.35 -20.15 16.8 -20.0 11.6 -19.05 13.0 -18.15 14.4 -11.9 14.7 -10.6 -6.25 -18.9 -5.6" fill="#000000" fill-rule="evenodd" stroke="none"/>
      <path d="M18.7 -21.0 L34.05 -25.35 34.05 -24.9 Q36.05 -24.35 37.25 -23.45 L38.65 -22.0 45.15 -24.3 45.7 -23.25 33.3 -19.8 Q32.05 -20.7 30.45 -21.0 L26.85 -20.65 Q25.05 -20.0 23.7 -18.7 22.75 -17.8 22.3 -16.7 L17.9 -15.4 18.7 -21.0 M34.5 -18.6 L46.3 -21.9 47.2 -17.35 36.45 -14.35 36.2 -15.15 Q35.6 -16.95 34.5 -18.6 M17.7 -13.9 L29.9 -17.3 31.95 -15.85 33.85 -13.6 16.95 -8.9 17.7 -13.9 M12.1 3.95 L18.65 2.05 Q18.45 4.3 18.85 6.3 L7.8 9.45 8.45 6.1 11.7 5.5 12.1 3.95 M7.65 12.2 L14.15 10.35 Q13.95 14.35 14.7 17.55 15.1 19.25 15.75 20.65 L11.65 21.8 10.95 17.75 7.85 16.7 7.65 12.2 M10.75 24.95 L17.25 23.1 Q18.3 24.35 19.8 25.1 21.45 25.95 23.35 25.75 25.2 25.55 26.8 24.55 L26.6 24.0 Q22.35 25.25 20.25 22.4 L20.25 22.45 21.15 22.55 23.75 22.25 24.85 21.9 28.25 19.95 32.4 18.75 34.2 23.05 10.8 29.75 9.8 27.7 10.75 24.95 M15.35 10.0 L19.6 8.85 Q20.7 11.5 22.95 12.1 24.7 12.65 26.55 11.55 L27.0 11.25 29.3 8.8 Q30.4 7.35 31.1 5.65 L44.9 1.8 Q44.5 4.65 43.05 9.15 L41.45 13.6 35.3 15.25 34.35 14.95 34.0 15.65 31.3 16.35 33.0 13.1 33.75 10.75 33.3 10.5 Q31.05 15.2 26.55 17.5 25.1 18.25 23.45 18.3 L23.1 18.3 21.05 17.9 Q19.35 17.25 18.15 15.85 16.8 14.3 16.1 12.4 L15.35 10.0 M32.75 -1.95 L41.35 -4.4 41.0 -1.8 43.4 -0.65 32.1 2.55 32.75 -1.95 M27.0 -18.0 L24.1 -17.15 Q25.55 -17.95 27.0 -18.0 M51.1 -13.9 Q51.5 -17.25 51.0 -21.9 L56.35 -20.45 Q56.9 -16.5 56.5 -13.0 L51.1 -13.9 M43.3 -28.2 L37.9 -26.15 36.05 -26.95 36.55 -31.75 43.3 -28.2 M36.8 -33.95 L37.05 -36.6 44.05 -31.75 43.7 -30.2 36.8 -33.95 M54.8 -25.85 Q55.4 -24.7 55.8 -23.15 L50.5 -25.35 49.95 -28.05 54.8 -25.85 M42.75 17.75 Q44.4 15.9 45.75 10.8 L49.15 12.7 Q48.2 17.75 46.85 19.85 L42.75 17.75 M36.7 24.2 L35.0 20.2 42.35 23.8 42.5 26.8 36.7 24.2" fill="#aeaeae" fill-rule="evenodd" stroke="none"/>
      <path d="M20.2 -33.7 L18.9 -26.8 -18.65 -21.0 -19.8 -9.5 -26.25 -9.1 Q-27.65 -12.1 -29.8 -13.9 -32.05 -15.8 -34.7 -15.95 -37.75 -16.15 -40.7 -14.8 -43.8 -13.35 -45.8 -10.55 -47.55 -14.5 -49.85 -17.4 -51.4 -19.3 -53.2 -20.7 -57.8 -24.25 -62.55 -23.25 -68.15 -22.0 -72.0 -17.65 L-74.0 -26.4 -117.15 -29.1 -109.05 2.85 -94.95 -1.95 -90.0 40.1 -64.8 28.85 -66.0 23.8 Q-60.95 26.6 -54.9 25.3 -52.2 24.7 -49.85 22.8 L-48.35 21.4 Q-45.5 18.3 -44.0 13.55 -42.25 15.3 -39.95 15.9 L-39.6 16.0 -39.15 16.1 -39.05 16.1 Q-36.3 16.5 -33.8 15.15 L-34.95 20.3 -18.0 21.0 -17.45 17.95 -13.55 18.05 -14.4 22.65 5.1 24.05 5.1 24.0 6.3 24.2 5.2 29.5 Q7.6 37.65 13.75 40.0 L23.4 36.4 25.55 39.8 38.0 36.9 Q39.45 35.85 40.75 33.4 L43.0 28.7 45.95 30.1 Q45.75 32.9 47.45 35.7 49.35 38.85 52.35 39.4 54.25 39.75 56.45 38.85 L56.55 38.85 Q58.85 37.9 60.3 36.0 L90.45 32.35 92.5 32.0 95.25 31.65 Q97.1 31.4 98.55 29.5 100.1 27.55 100.55 24.8 100.85 22.7 100.45 20.8 100.05 18.95 99.0 17.75 L110.0 -28.35 82.05 -24.35 82.1 -18.3 61.9 -19.4 61.25 -12.65 57.95 -12.75 Q58.1 -18.25 57.15 -22.7 56.55 -25.25 55.75 -26.85 L48.8 -30.0 44.6 -28.4 45.35 -32.8 36.35 -39.35 Q28.4 -39.25 20.2 -33.7 M-2.4 -28.85 L10.55 -30.7 Q18.0 -39.2 26.75 -42.75 35.7 -46.4 43.8 -43.95 49.5 -42.2 53.75 -37.65 57.8 -33.2 60.15 -26.65 L82.2 -30.7 106.65 -35.1 Q112.05 -35.95 114.6 -32.95 117.05 -30.15 115.85 -25.3 L106.2 15.1 106.05 15.65 Q108.6 20.0 107.7 25.7 106.95 30.35 104.05 33.75 101.15 37.2 97.4 37.7 L55.1 43.75 Q45.85 45.2 42.2 40.4 L41.55 39.65 Q34.9 45.15 27.9 47.15 20.65 49.25 14.1 47.25 8.25 45.45 3.95 40.65 -0.25 36.0 -2.5 29.15 L-42.4 25.85 Q-45.15 29.5 -49.85 30.65 L-51.25 30.95 -59.1 30.6 Q-58.75 32.75 -59.75 34.05 -60.35 34.85 -62.1 35.8 L-86.85 47.4 Q-96.05 51.7 -96.85 40.35 L-99.85 8.3 -107.25 10.95 Q-109.8 11.85 -111.85 10.5 -113.85 9.2 -114.75 6.35 -121.5 -16.0 -124.4 -26.85 -125.5 -30.9 -123.7 -33.45 -121.7 -36.25 -116.7 -35.8 L-76.55 -31.05 Q-72.95 -36.05 -68.05 -37.75 -63.6 -39.25 -58.65 -37.85 -54.05 -36.55 -49.95 -33.0 -45.9 -29.55 -43.4 -24.85 -37.95 -28.2 -32.45 -27.45 -27.9 -26.8 -24.9 -23.45 L-23.6 -21.9 -22.7 -23.45 Q-21.6 -25.05 -20.05 -25.7 L-17.85 -26.3 -15.4 -26.75 -6.5 -28.2 Q-6.15 -26.35 -4.25 -26.3 -2.15 -26.3 -2.4 -28.85 M26.85 0.3 Q27.8 -3.7 29.85 -6.25 31.05 -3.0 29.95 1.8 28.95 6.0 26.75 8.35 25.8 4.85 26.85 0.3 M-53.55 -30.15 Q-56.6 -32.45 -59.9 -32.9 -63.45 -33.35 -66.2 -31.3 -69.3 -29.0 -70.65 -23.85 L-69.5 -23.25 Q-65.45 -28.15 -59.35 -27.5 -56.9 -27.25 -54.45 -26.1 -52.25 -25.0 -50.7 -23.4 L-49.15 -24.55 Q-50.6 -27.8 -53.55 -30.15 M-39.6 -21.3 Q-41.15 -20.05 -41.85 -18.05 L-40.55 -17.4 Q-38.0 -19.5 -35.05 -19.25 -32.45 -19.0 -29.75 -16.95 L-28.35 -17.7 Q-29.9 -20.35 -32.0 -21.65 -33.95 -22.8 -36.0 -22.7 -38.0 -22.55 -39.6 -21.3" fill="#ff3517" fill-rule="evenodd" stroke="none"/>
      <path d="M3.7 -8.9 L3.7 -9.0 8.85 -8.8 3.7 -8.9 M1.7 -11.05 L1.6 17.85 -7.7 16.65 -4.15 -11.05 -12.5 -11.55 -12.5 -16.75 12.6 -20.75 11.25 -10.75 1.7 -11.05 M3.3 19.75 L3.55 20.05 3.3 19.75 M57.35 15.8 L53.4 15.7 50.35 -6.15 55.85 -6.3 58.3 4.2 60.95 -2.1 64.35 4.65 65.85 -10.3 72.75 -10.65 69.05 17.45 65.25 17.55 60.9 6.95 57.35 15.8 M87.2 -8.25 L85.6 -11.5 84.45 -11.5 85.6 -11.5 87.2 -8.35 87.2 -8.25 M78.7 -9.65 L84.65 -9.55 89.45 -0.95 89.25 -18.6 100.9 -19.75 94.45 13.35 89.55 13.35 84.25 2.95 83.4 15.5 77.5 15.65 78.7 -9.65 M85.45 12.05 L85.55 10.8 85.55 10.85 85.45 12.05 M-3.25 19.25 L-10.05 18.45 -6.5 -8.9 -14.55 -9.35 -14.5 -12.75 -14.45 -9.45 -6.5 -9.0 -10.0 18.35 -3.25 19.25 M-110.1 -21.15 L-110.6 -23.0 -109.45 -23.0 -110.55 -23.0 -110.1 -21.15 M-71.7 24.25 L-85.05 28.85 -90.8 -9.9 -104.25 -6.25 -107.95 -20.8 -77.6 -20.7 -76.05 -14.4 -83.5 -12.2 -71.7 24.25 M-19.65 -1.5 L-21.8 -1.75 -19.7 -1.55 -20.1 -5.5 -18.9 -5.6 -20.05 -5.5 -19.65 -1.5 M-25.4 -0.3 L-20.9 0.2 -18.4 5.55 -18.2 -3.8 -12.6 -4.25 -13.6 12.6 -17.05 12.75 -21.2 6.85 -21.9 14.85 -28.6 14.65 -27.95 9.05 Q-26.3 6.05 -25.65 2.2 L-25.4 -0.3 M-19.05 13.0 L-20.0 11.6 -20.0 11.55 -19.05 13.0" fill="#f7fa16" fill-rule="evenodd" stroke="none"/>
      <path d="M3.7 -9.0 L3.7 -8.9 3.6 20.1 3.55 20.05 3.3 19.75 1.6 17.85 1.7 -11.05 3.7 -9.0 M12.95 -8.7 L11.25 -10.75 12.6 -20.75 -12.5 -16.75 -14.5 -18.4 14.85 -23.1 12.95 -8.7 M50.35 -6.15 L48.0 -8.05 57.55 -8.25 59.0 -2.55 58.3 4.2 55.85 -6.3 50.35 -6.15 M58.7 17.75 L57.35 15.8 60.9 6.95 61.2 12.5 58.7 17.75 M60.65 -6.7 L62.7 -2.6 64.35 4.65 60.95 -2.1 60.65 -6.7 M63.85 -12.1 L74.75 -12.65 70.65 19.35 69.05 17.45 72.75 -10.65 65.85 -10.3 63.85 -12.1 M84.45 -11.5 L85.6 -11.5 87.2 -8.25 89.45 -0.95 84.65 -9.55 78.7 -9.65 76.55 -11.6 84.45 -11.5 M89.25 -18.6 L87.0 -20.3 103.1 -21.9 95.75 15.25 94.45 13.35 100.9 -19.75 89.25 -18.6 M84.25 2.95 L85.55 10.8 85.45 12.05 85.05 17.4 83.4 15.5 84.25 2.95 M-110.55 -23.0 L-109.45 -23.0 -75.7 -22.85 -73.15 -12.8 -76.05 -14.4 -77.6 -20.7 -107.95 -20.8 -110.55 -23.0 M-80.4 -10.65 L-68.65 25.55 -71.7 24.25 -83.5 -12.2 -80.4 -10.65 M-21.8 -1.75 L-19.65 -1.5 -18.4 5.55 -20.9 0.2 -25.4 -0.3 -25.35 -2.1 -21.8 -1.75 M-20.05 -5.5 L-18.9 -5.6 -10.6 -6.25 -11.9 14.7 -13.6 12.6 -12.6 -4.25 -18.2 -3.8 -20.05 -5.5 M-20.0 11.6 L-20.15 16.8 -21.9 14.85 -21.2 6.85 -20.0 11.55 -20.0 11.6" fill="#fff8c2" fill-rule="evenodd" stroke="none"/>
      <path d="M8.85 -8.8 L3.7 -9.0 1.7 -11.05 11.25 -10.75 12.95 -8.7 8.85 -8.8 M1.6 17.85 L3.3 19.75 3.55 20.05 3.6 20.1 -3.25 19.25 -10.0 18.35 -6.5 -9.0 -14.45 -9.45 -14.5 -12.75 -14.5 -18.4 -12.5 -16.75 -12.5 -11.55 -4.15 -11.05 -7.7 16.65 1.6 17.85 M48.0 -8.05 L50.35 -6.15 53.4 15.7 57.35 15.8 58.7 17.75 51.55 17.6 48.0 -8.05 M58.3 4.2 L59.0 -2.55 60.65 -6.7 60.95 -2.1 58.3 4.2 M62.7 -2.6 L63.85 -12.1 65.85 -10.3 64.35 4.65 62.7 -2.6 M70.65 19.35 L63.8 19.5 61.2 12.5 60.9 6.95 65.25 17.55 69.05 17.45 70.65 19.35 M87.2 -8.25 L87.2 -8.35 87.0 -20.3 89.25 -18.6 89.45 -0.95 87.2 -8.25 M76.55 -11.6 L78.7 -9.65 77.5 15.65 83.4 15.5 85.05 17.4 75.25 17.7 76.55 -11.6 M94.45 13.35 L95.75 15.25 88.05 15.25 85.55 10.85 85.55 10.8 84.25 2.95 89.55 13.35 94.45 13.35 M-110.1 -21.15 L-110.55 -23.0 -107.95 -20.8 -104.25 -6.25 -90.8 -9.9 -85.05 28.85 -71.7 24.25 -68.65 25.55 -86.6 31.75 -92.45 -7.0 -105.55 -3.45 -110.1 -21.15 M-73.15 -12.8 L-80.4 -10.65 -83.5 -12.2 -76.05 -14.4 -73.15 -12.8 M-19.65 -1.5 L-20.05 -5.5 -18.2 -3.8 -18.4 5.55 -19.65 -1.5 M-11.9 14.7 L-18.15 14.4 -19.05 13.0 -20.0 11.55 -21.2 6.85 -17.05 12.75 -13.6 12.6 -11.9 14.7 M-20.15 16.8 L-30.65 16.35 -30.15 12.15 Q-28.9 10.7 -27.95 9.05 L-28.6 14.65 -21.9 14.85 -20.15 16.8" fill="#ff9700" fill-rule="evenodd" stroke="none"/>
      <path d="M88.7 21.45 L87.95 29.25 85.05 29.65 83.9 25.2 83.5 29.65 81.35 29.85 81.3 22.55 85.1 22.2 86.15 26.6 86.35 21.65 88.7 21.45 M75.35 29.0 L75.25 30.35 70.55 30.75 70.85 23.0 73.8 22.75 73.05 29.1 75.35 29.0 M76.55 30.25 L76.75 22.5 79.7 22.2 78.9 30.05 76.55 30.25 M92.6 24.45 L94.95 24.2 94.5 25.65 92.45 25.85 92.3 27.45 94.85 27.2 94.5 28.6 89.85 29.1 90.3 21.3 95.85 20.75 95.45 22.45 92.8 22.65 92.6 24.45 M56.25 21.45 L56.45 21.5 Q58.3 21.95 59.25 24.05 60.3 26.25 59.65 29.0 59.1 31.75 57.25 33.45 L56.45 34.1 Q54.95 35.1 53.35 34.8 51.3 34.45 50.35 32.25 49.35 30.05 49.95 27.25 50.5 24.5 52.4 22.8 54.2 21.1 56.25 21.45 M54.6 33.4 L54.65 33.25 Q55.7 31.6 56.25 29.7 56.75 27.95 56.5 26.15 56.2 24.3 54.75 23.05 52.05 28.45 54.6 33.4 M68.95 23.4 L68.2 31.2 65.3 31.6 64.15 27.15 63.75 31.6 61.65 31.8 61.6 24.45 65.35 24.15 66.4 28.5 66.6 23.6 68.95 23.4" fill="#ffea00" fill-rule="evenodd" stroke="none"/>
      <path d="M-56.45 -18.05 Q-54.2 -17.1 -52.2 -14.8 -50.85 -13.3 -49.85 -11.45 -47.6 -7.45 -46.7 -2.0 -46.25 0.95 -46.3 3.75 L-46.3 4.6 Q-46.4 6.9 -46.9 9.1 L-47.65 11.75 -47.85 12.25 Q-48.65 14.45 -49.85 16.1 L-50.75 17.2 Q-52.6 19.15 -54.9 19.7 -57.2 20.2 -59.55 19.2 -61.8 18.15 -63.8 15.9 -68.0 11.05 -69.25 3.1 -70.55 -4.8 -68.15 -11.15 L-68.1 -11.25 -68.05 -11.3 -67.75 -12.1 -67.65 -12.35 Q-66.65 -14.55 -65.2 -16.05 -63.35 -18.05 -61.05 -18.55 -58.75 -19.1 -56.45 -18.05 M-57.15 -7.5 Q-54.0 -6.2 -52.75 -2.75 -52.4 -1.7 -52.2 -0.5 L-52.1 0.6 Q-54.3 -3.9 -59.15 -3.2 -59.5 -0.95 -59.15 1.35 -58.55 5.2 -56.55 7.7 -54.55 10.25 -52.35 10.0 -50.85 9.85 -49.85 8.5 L-48.95 6.9 Q-47.8 4.0 -48.4 0.2 -48.8 -2.35 -49.85 -4.35 L-51.0 -6.15 Q-53.0 -8.7 -55.2 -8.45 -56.3 -8.3 -57.15 -7.5" fill="url(#gradient1)" fill-rule="evenodd" stroke="none"/>
      <path d="M-39.0 -10.0 L-38.85 -10.2 -38.85 -10.15 Q-36.25 -12.85 -33.3 -12.4 -30.3 -11.9 -28.65 -8.3 -27.45 -5.65 -27.55 -2.4 L-27.5 -2.4 -27.6 -1.4 -27.75 -0.1 -27.85 0.4 -28.4 2.6 -28.35 2.55 -28.55 3.1 -30.25 6.3 -30.3 6.4 -30.55 6.7 -31.15 7.4 Q-33.85 10.35 -36.9 9.85 -39.95 9.35 -41.55 5.75 -43.2 2.15 -42.45 -2.45 -41.7 -7.05 -39.05 -9.95 L-39.0 -10.0 M-34.1 -6.15 Q-32.35 -5.15 -31.95 -3.05 L-31.8 -1.65 -31.85 -1.0 Q-33.3 -3.5 -36.15 -3.7 -36.65 -2.55 -36.75 -1.1 -36.85 1.25 -35.85 2.95 -34.9 4.65 -33.35 4.75 -31.8 4.85 -30.6 3.25 -29.45 1.65 -29.3 -0.7 -29.2 -3.0 -30.15 -4.7 -31.2 -6.4 -32.7 -6.5 L-34.1 -6.15" fill="url(#gradient2)" fill-rule="evenodd" stroke="none"/>
    </g>
    <radialGradient cx="0" cy="0" gradientTransform="matrix(0.0181, -0.004, 0.0072, 0.033, -57.55, -1.25)" gradientUnits="userSpaceOnUse" id="gradient1" r="819.2" spreadMethod="pad">
      <stop offset="0.611764705882353" stop-color="#ffffff"/>
      <stop offset="0.8941176470588236" stop-color="#606060"/>
    </radialGradient>
    <radialGradient cx="0" cy="0" gradientTransform="matrix(0.0117, 6.0E-4, -0.001, 0.0197, -34.65, -2.6)" gradientUnits="userSpaceOnUse" id="gradient2" r="819.2" spreadMethod="pad">
      <stop offset="0.611764705882353" stop-color="#ffffff"/>
      <stop offset="0.8941176470588236" stop-color="#606060"/>
    </radialGradient>
  </defs>
</svg>
