<?xml version="1.0" encoding="UTF-8" standalone="no"?>
<svg xmlns:xlink="http://www.w3.org/1999/xlink" height="7.0px" width="9.35px" xmlns="http://www.w3.org/2000/svg">
  <g transform="matrix(1.0, 0.0, 0.0, 1.0, 4.65, 3.5)">
    <use height="7.0" transform="matrix(1.0, 0.0, 0.0, 1.0, -4.65, -3.5)" width="9.35" xlink:href="#shape0"/>
  </g>
  <defs>
    <g id="shape0" transform="matrix(1.0, 0.0, 0.0, 1.0, 4.65, 3.5)">
      <path d="M1.5 -3.3 L0.9 -3.3 0.6 -3.3 Q-0.6 -3.3 -1.4 -2.35 -1.95 -1.7 -2.1 -0.9 L-2.2 0.0 -2.05 1.2 -1.4 2.35 Q-0.6 3.3 0.6 3.3 L0.9 3.3 1.5 3.3 1.65 3.3 1.7 3.3 Q2.85 3.3 3.65 2.35 4.45 1.35 4.5 0.0 4.45 -1.4 3.65 -2.35 2.85 -3.3 1.7 -3.3 L1.65 -3.3 1.5 -3.3 M1.7 -3.5 Q2.95 -3.5 3.8 -2.45 4.65 -1.45 4.7 0.0 4.65 1.45 3.8 2.45 2.95 3.45 1.7 3.5 L0.9 3.5 0.6 3.5 Q-0.65 3.45 -1.55 2.45 L-2.25 1.15 -4.3 0.9 Q-5.0 0.0 -4.3 -0.7 L-2.3 -0.85 Q-2.15 -1.8 -1.55 -2.45 -0.65 -3.5 0.6 -3.5 L1.7 -3.5" fill="#333333" fill-rule="evenodd" stroke="none"/>
      <path d="M1.5 3.3 L0.9 3.3 0.6 3.3 Q-0.6 3.3 -1.4 2.35 L-2.05 1.2 -2.2 0.0 -2.1 -0.9 Q-1.95 -1.7 -1.4 -2.35 -0.6 -3.3 0.6 -3.3 L0.9 -3.3 1.5 -3.3 0.7 -3.1 Q-0.1 -2.85 -0.5 -2.35 -1.05 -1.75 -1.2 -0.95 L-1.3 0.0 -1.1 1.3 -0.5 2.35 Q-0.1 2.85 0.7 3.1 L1.5 3.3" fill="#666666" fill-rule="evenodd" stroke="none"/>
      <path d="M1.5 3.3 L0.7 3.1 Q-0.1 2.85 -0.5 2.35 L-1.1 1.3 -1.3 0.0 -1.2 -0.95 Q-1.05 -1.75 -0.5 -2.35 -0.1 -2.85 0.7 -3.1 L1.5 -3.3 1.65 -3.3 0.9 -3.1 -0.3 -2.35 Q-1.15 -1.4 -1.1 0.0 -1.15 1.35 -0.3 2.35 L0.9 3.1 1.65 3.3 1.5 3.3" fill="#cccccc" fill-rule="evenodd" stroke="none"/>
      <path d="M1.65 -3.3 L1.7 -3.3 Q2.85 -3.3 3.65 -2.35 4.45 -1.4 4.5 0.0 4.45 1.35 3.65 2.35 2.85 3.3 1.7 3.3 L1.65 3.3 0.9 3.1 -0.3 2.35 Q-1.15 1.35 -1.1 0.0 -1.15 -1.4 -0.3 -2.35 L0.9 -3.1 1.65 -3.3" fill="#999999" fill-rule="evenodd" stroke="none"/>
    </g>
  </defs>
</svg>
