<?xml version="1.0" encoding="UTF-8" standalone="no"?>
<svg xmlns:xlink="http://www.w3.org/1999/xlink" height="64.35px" width="87.7px" xmlns="http://www.w3.org/2000/svg">
  <g transform="matrix(1.0, 0.0, 0.0, 1.0, 63.1, 25.8)">
    <use height="59.1" transform="matrix(-0.3781, 0.0471, 0.0497, 0.7568, 10.6598, -23.5799)" width="77.1" xlink:href="#shape0"/>
    <use height="59.0" transform="matrix(0.5975, 0.5965, 0.7241, -0.6855, -62.4351, 21.4128)" width="28.7" xlink:href="#shape1"/>
  </g>
  <defs>
    <g id="shape0" transform="matrix(1.0, 0.0, 0.0, 1.0, 38.55, 29.55)">
      <path d="M23.6 -23.1 L8.4 -6.05 38.55 12.0 1.7 4.3 8.0 29.55 -5.1 9.05 -16.2 21.55 -12.45 1.35 -38.55 -4.1 -17.55 -10.5 -28.85 -28.25 -9.15 -16.55 -6.7 -29.55 -3.1 -14.95 23.6 -23.1 M-14.55 -8.75 L-29.55 -4.15 -10.95 -0.3 -13.6 14.1 -5.7 5.2 3.65 19.85 -0.85 1.8 25.45 7.3 3.95 -5.6 14.8 -17.75 -4.25 -11.95 -6.85 -22.35 -8.55 -13.05 -22.6 -21.4 -14.55 -8.75" fill="#66ffff" fill-rule="evenodd" stroke="none"/>
      <path d="M-14.55 -8.75 L-22.6 -21.4 -8.55 -13.05 -6.85 -22.35 -4.25 -11.95 14.8 -17.75 3.95 -5.6 25.45 7.3 -0.85 1.8 3.65 19.85 -5.7 5.2 -13.6 14.1 -10.95 -0.3 -29.55 -4.15 -14.55 -8.75" fill="#ffffff" fill-rule="evenodd" stroke="none"/>
    </g>
    <g id="shape1" transform="matrix(1.0, 0.0, 0.0, 1.0, 14.35, 29.5)">
      <path d="M13.55 27.85 L11.5 -22.0 0.0 -2.6 -1.4 -24.15 -7.0 -15.8 -12.1 -24.35 -6.85 -13.25 -3.3 -16.85 -1.05 1.75 7.35 -13.55 11.65 28.1 11.15 28.15 6.7 -11.0 -1.25 6.25 -3.9 -14.15 -7.0 -10.85 -14.35 -29.5 -7.4 -18.6 -0.75 -26.3 1.0 -5.2 13.15 -25.8 14.35 27.75 13.55 27.85" fill="#66ffff" fill-rule="evenodd" stroke="none"/>
      <path d="M11.65 28.1 L7.35 -13.55 -1.05 1.75 -3.3 -16.85 -6.85 -13.25 -12.1 -24.35 -7.0 -15.8 -1.4 -24.15 0.0 -2.6 11.5 -22.0 13.55 27.85 13.6 29.4 11.8 29.5 11.65 28.1" fill="#ffffff" fill-rule="evenodd" stroke="none"/>
    </g>
  </defs>
</svg>
