<?xml version="1.0" encoding="UTF-8" standalone="no"?>
<svg xmlns:xlink="http://www.w3.org/1999/xlink" height="78.15px" width="96.95px" xmlns="http://www.w3.org/2000/svg">
  <g transform="matrix(1.0, 0.0, 0.0, 1.0, -1.15, -5.25)">
    <use height="34.15" transform="matrix(0.3906, 0.0, 0.0, 0.3906, 17.0, 5.6602)" width="51.95" xlink:href="#shape0"/>
    <use height="36.4" transform="matrix(0.3906, 0.0, 0.0, 0.3906, 38.4008, 5.2695)" width="37.8" xlink:href="#shape1"/>
    <use height="34.15" transform="matrix(0.3906, 0.0, 0.0, 0.3906, 54.25, 5.6602)" width="51.95" xlink:href="#shape0"/>
    <use height="35.15" transform="matrix(0.3906, 0.0, 0.0, 0.3906, 76.1977, 5.6602)" width="10.6" xlink:href="#shape2"/>
    <use height="34.15" transform="matrix(0.3906, 0.0, 0.0, 0.3906, 5.7656, 26.6602)" width="34.0" xlink:href="#shape3"/>
    <use height="36.4" transform="matrix(0.3906, 0.0, 0.0, 0.3906, 19.9008, 26.2695)" width="37.8" xlink:href="#shape1"/>
    <use height="35.05" transform="matrix(0.3906, 0.0, 0.0, 0.3906, 37.1563, 26.6602)" width="29.75" xlink:href="#shape4"/>
    <use height="34.15" transform="matrix(0.3906, 0.0, 0.0, 0.3906, 55.9063, 26.6602)" width="35.6" xlink:href="#shape5"/>
    <use height="34.15" transform="matrix(0.3906, 0.0, 0.0, 0.3906, 71.6563, 26.6602)" width="28.35" xlink:href="#shape6"/>
    <use height="34.15" transform="matrix(0.3906, 0.0, 0.0, 0.3906, 84.5063, 26.6602)" width="19.4" xlink:href="#shape7"/>
    <use height="34.15" transform="matrix(0.3906, 0.0, 0.0, 0.3906, 1.1367, 48.6602)" width="23.45" xlink:href="#shape8"/>
    <use height="36.4" transform="matrix(0.3906, 0.0, 0.0, 0.3906, 11.5008, 48.2695)" width="37.8" xlink:href="#shape1"/>
    <use height="36.4" transform="matrix(0.3906, 0.0, 0.0, 0.3906, 28.1508, 48.2695)" width="37.8" xlink:href="#shape1"/>
    <use height="34.15" transform="matrix(0.3906, 0.0, 0.0, 0.3906, 45.4063, 48.6602)" width="34.05" xlink:href="#shape9"/>
    <use height="6.8" transform="matrix(0.267, 0.0, 0.0, 1.9617, 61.8, 48.6429)" width="12.95" xlink:href="#shape10"/>
    <use height="34.15" transform="matrix(0.3906, 0.0, 0.0, 0.3906, 68.3563, 48.6602)" width="34.05" xlink:href="#shape9"/>
    <use height="36.45" transform="matrix(0.3906, 0.0, 0.0, 0.3906, 84.1508, 48.25)" width="35.75" xlink:href="#shape11"/>
    <use height="6.8" transform="matrix(0.267, 0.0, 0.0, 1.9617, 23.4, 69.6429)" width="12.95" xlink:href="#shape10"/>
    <use height="34.15" transform="matrix(0.3906, 0.0, 0.0, 0.3906, 28.6867, 69.6602)" width="23.45" xlink:href="#shape8"/>
    <use height="35.05" transform="matrix(0.3906, 0.0, 0.0, 0.3906, 44.9563, 69.6602)" width="29.75" xlink:href="#shape4"/>
    <use height="34.15" transform="matrix(0.3906, 0.0, 0.0, 0.3906, 59.6563, 69.6602)" width="25.95" xlink:href="#shape12"/>
    <use height="35.15" transform="matrix(0.3906, 0.0, 0.0, 0.3906, 71.8977, 69.6602)" width="10.6" xlink:href="#shape2"/>
  </g>
  <defs>
    <g id="shape0" transform="matrix(1.0, 0.0, 0.0, 1.0, 0.0, 34.15)">
      <path d="M9.3 -34.15 L15.2 -12.05 22.45 -34.15 29.5 -34.15 36.2 -12.05 42.65 -34.15 51.95 -34.15 41.05 0.0 31.95 0.0 25.75 -19.75 19.2 0.0 10.2 0.0 0.0 -34.15 9.3 -34.15" fill="#ffff00" fill-rule="evenodd" stroke="none"/>
    </g>
    <g id="shape1" transform="matrix(1.0, 0.0, 0.0, 1.0, -2.05, 35.15)">
      <path d="M20.95 -35.15 Q26.4 -35.1 30.65 -32.75 34.9 -30.4 37.35 -26.3 39.8 -22.25 39.85 -17.0 39.8 -11.75 37.35 -7.65 34.9 -3.55 30.65 -1.2 26.4 1.2 20.95 1.25 15.5 1.2 11.25 -1.2 7.0 -3.55 4.55 -7.65 2.1 -11.75 2.05 -17.0 2.1 -22.2 4.55 -26.3 7.0 -30.4 11.25 -32.75 15.5 -35.1 20.95 -35.15 M25.85 -25.25 Q23.65 -26.55 20.95 -26.55 18.25 -26.55 16.1 -25.25 13.95 -23.95 12.65 -21.8 11.35 -19.65 11.35 -17.0 11.35 -14.3 12.65 -12.15 13.95 -9.95 16.1 -8.65 18.25 -7.4 20.95 -7.35 23.65 -7.4 25.85 -8.65 28.0 -9.95 29.3 -12.15 30.55 -14.3 30.6 -17.0 30.55 -19.65 29.3 -21.8 28.0 -23.95 25.85 -25.25" fill="#ffff00" fill-rule="evenodd" stroke="none"/>
    </g>
    <g id="shape2" transform="matrix(1.0, 0.0, 0.0, 1.0, -3.45, 34.15)">
      <path d="M5.0 -8.05 Q6.5 -9.55 8.75 -9.6 11.0 -9.55 12.5 -8.05 14.0 -6.6 14.05 -4.35 14.0 -2.05 12.5 -0.55 11.0 0.95 8.75 1.0 6.5 0.95 5.0 -0.55 3.5 -2.05 3.45 -4.35 3.5 -6.6 5.0 -8.05 M4.45 -34.15 L13.0 -34.15 13.0 -11.6 4.45 -11.6 4.45 -34.15" fill="#ffff00" fill-rule="evenodd" stroke="none"/>
    </g>
    <g id="shape3" transform="matrix(1.0, 0.0, 0.0, 1.0, 0.6, 34.15)">
      <path d="M10.0 -34.15 L16.45 -24.8 22.65 -34.15 33.4 -34.15 20.6 -16.35 20.6 0.0 11.75 0.0 11.75 -16.35 -0.6 -34.15 10.0 -34.15" fill="#ffff00" fill-rule="evenodd" stroke="none"/>
    </g>
    <g id="shape4" transform="matrix(1.0, 0.0, 0.0, 1.0, -3.6, 34.15)">
      <path d="M24.5 -34.15 L33.35 -34.15 33.35 -14.4 Q33.35 -11.95 33.0 -10.1 32.7 -8.25 31.95 -6.75 31.25 -5.3 30.0 -3.9 27.85 -1.5 24.9 -0.3 21.95 0.9 18.1 0.9 14.25 0.85 11.05 -0.5 7.9 -1.85 6.05 -4.25 4.75 -5.95 4.15 -8.3 3.6 -10.7 3.6 -14.4 L3.6 -34.15 12.45 -34.15 12.45 -15.65 12.5 -12.65 12.8 -10.9 Q13.0 -10.25 13.45 -9.55 14.2 -8.3 15.45 -7.65 16.75 -6.95 18.35 -6.95 20.1 -6.95 21.5 -7.7 22.85 -8.4 23.55 -9.7 L24.15 -11.05 24.4 -12.8 24.5 -15.65 24.5 -34.15" fill="#ffff00" fill-rule="evenodd" stroke="none"/>
    </g>
    <g id="shape5" transform="matrix(1.0, 0.0, 0.0, 1.0, -0.4, 34.15)">
      <path d="M24.35 -5.95 L12.1 -5.95 9.75 0.0 0.4 0.0 13.5 -34.15 23.15 -34.15 36.0 0.0 26.55 0.0 24.35 -5.95 M21.95 -12.7 L18.3 -23.6 14.55 -12.7 21.95 -12.7" fill="#ffff00" fill-rule="evenodd" stroke="none"/>
    </g>
    <g id="shape6" transform="matrix(1.0, 0.0, 0.0, 1.0, -3.6, 34.15)">
      <path d="M18.1 -26.2 Q16.7 -27.3 14.1 -27.35 L12.45 -27.35 12.45 -18.85 14.1 -18.85 Q16.7 -18.85 18.15 -19.95 19.55 -21.05 19.55 -23.1 19.55 -25.1 18.1 -26.2 M25.75 -31.1 Q27.15 -29.65 27.9 -27.7 28.65 -25.75 28.7 -23.6 28.65 -19.75 26.75 -17.3 24.85 -14.85 21.2 -13.95 L31.95 0.0 20.9 0.0 12.45 -13.1 12.45 0.0 3.6 0.0 3.6 -34.15 17.35 -34.15 Q20.25 -34.15 22.3 -33.4 24.3 -32.7 25.75 -31.1" fill="#ffff00" fill-rule="evenodd" stroke="none"/>
    </g>
    <g id="shape7" transform="matrix(1.0, 0.0, 0.0, 1.0, -3.6, 34.15)">
      <path d="M23.0 -34.15 L23.0 -26.6 12.45 -26.6 12.45 -20.95 22.45 -20.95 22.45 -13.4 12.45 -13.4 12.45 -7.5 23.0 -7.5 23.0 0.0 3.6 0.0 3.6 -34.15 23.0 -34.15" fill="#ffff00" fill-rule="evenodd" stroke="none"/>
    </g>
    <g id="shape8" transform="matrix(1.0, 0.0, 0.0, 1.0, -0.35, 34.15)">
      <path d="M7.6 -26.6 L0.35 -26.6 0.35 -34.15 23.8 -34.15 23.8 -26.6 16.45 -26.6 16.45 0.0 7.6 0.0 7.6 -26.6" fill="#ffff00" fill-rule="evenodd" stroke="none"/>
    </g>
    <g id="shape9" transform="matrix(1.0, 0.0, 0.0, 1.0, -3.6, 34.15)">
      <path d="M3.6 -34.15 L12.45 -34.15 28.8 -13.25 28.8 -34.15 37.65 -34.15 37.65 0.0 28.8 0.0 12.45 -20.9 12.45 0.0 3.6 0.0 3.6 -34.15" fill="#ffff00" fill-rule="evenodd" stroke="none"/>
    </g>
    <g id="shape10" transform="matrix(1.0, 0.0, 0.0, 1.0, 0.0, 15.5)">
      <path d="M0.0 -15.5 L12.95 -15.5 12.95 -8.7 0.0 -8.7 0.0 -15.5" fill="#ffff00" fill-rule="evenodd" stroke="none"/>
    </g>
    <g id="shape11" transform="matrix(1.0, 0.0, 0.0, 1.0, -2.05, 35.2)">
      <path d="M20.6 -35.2 Q26.05 -35.2 29.8 -32.85 33.55 -30.5 35.95 -25.6 L27.5 -22.1 Q26.35 -24.85 24.55 -26.2 22.75 -27.55 20.2 -27.55 17.65 -27.5 15.65 -26.15 13.65 -24.75 12.5 -22.35 11.35 -19.95 11.35 -16.85 11.35 -13.65 12.5 -11.25 13.65 -8.85 15.7 -7.5 17.75 -6.1 20.45 -6.1 23.5 -6.1 25.25 -7.6 27.05 -9.05 27.45 -12.05 L20.2 -12.05 20.2 -18.95 37.8 -18.95 37.55 -14.4 36.9 -10.95 Q36.5 -9.4 35.8 -8.0 33.6 -3.45 29.65 -1.15 25.7 1.2 20.3 1.25 14.85 1.2 10.75 -1.05 6.7 -3.35 4.4 -7.4 2.1 -11.5 2.05 -16.9 2.1 -22.4 4.45 -26.5 6.75 -30.6 10.9 -32.9 15.05 -35.15 20.6 -35.2" fill="#ffff00" fill-rule="evenodd" stroke="none"/>
    </g>
    <g id="shape12" transform="matrix(1.0, 0.0, 0.0, 1.0, -3.6, 34.15)">
      <path d="M19.05 -25.95 Q17.85 -27.0 15.45 -27.0 L12.45 -27.0 12.45 -18.45 15.4 -18.45 Q17.95 -18.45 19.1 -19.5 20.3 -20.55 20.3 -22.8 20.3 -24.9 19.05 -25.95 M26.25 -31.25 Q27.9 -29.75 28.7 -27.65 29.55 -25.55 29.55 -22.9 29.55 -17.2 26.6 -14.3 23.7 -11.35 18.0 -11.35 L12.45 -11.35 12.45 0.0 3.6 0.0 3.6 -34.15 17.7 -34.15 22.65 -33.5 Q24.65 -32.8 26.25 -31.25" fill="#ffff00" fill-rule="evenodd" stroke="none"/>
    </g>
  </defs>
</svg>
