<?xml version="1.0" encoding="UTF-8" standalone="no"?>
<svg xmlns:xlink="http://www.w3.org/1999/xlink" height="420.8px" width="804.95px" xmlns="http://www.w3.org/2000/svg">
  <g transform="matrix(1.0, 0.0, 0.0, 1.0, 29.5, 420.5)">
    <use height="72.75" transform="matrix(1.0, 0.0, 0.0, 1.0, 377.2, -394.95)" width="53.4" xlink:href="#sprite0"/>
  </g>
  <defs>
    <g id="sprite0" transform="matrix(1.0, 0.0, 0.0, 1.0, 26.65, 36.35)">
      <use height="72.75" transform="matrix(1.0, 0.0, 0.0, 1.0, -26.65, -36.35)" width="53.4" xlink:href="#shape0"/>
    </g>
    <g id="shape0" transform="matrix(1.0, 0.0, 0.0, 1.0, 26.65, 36.35)">
      <path d="M22.3 -31.0 L18.6 -32.1 14.6 -32.0 14.4 -32.0 Q13.6 -32.4 12.9 -32.95 L11.65 -33.95 Q10.25 -35.15 8.6 -35.55 L5.1 -35.4 Q3.3 -34.75 3.05 -33.65 L3.0 -32.0 Q3.05 -31.3 2.45 -31.25 -3.2 -31.0 -3.95 -27.0 -4.3 -25.45 -1.15 -25.0 L-0.7 -24.6 Q-0.6 -24.35 -0.75 -24.05 L-2.2 -21.95 -3.05 -19.85 Q-3.35 -18.45 -2.4 -17.2 -1.45 -15.95 0.0 -15.55 L2.1 -15.15 2.75 -15.3 3.55 -15.85 4.3 -15.95 4.55 -15.3 Q3.45 -8.5 10.5 -7.0 12.45 -6.65 13.6 -9.3 14.3 -10.75 15.15 -14.75 15.25 -15.3 15.85 -15.55 L16.55 -15.55 Q16.75 -15.6 17.5 -14.9 L18.3 -14.15 Q19.95 -13.75 22.05 -15.15 24.05 -16.55 24.45 -18.05 L24.7 -19.3 24.8 -20.95 Q24.55 -22.9 22.65 -23.1 22.1 -23.2 22.1 -23.6 22.05 -24.05 22.5 -24.3 L24.7 -25.2 Q25.7 -25.75 25.85 -26.4 26.5 -29.6 22.3 -31.0 M0.5 -14.9 L0.1 -15.0 Q-1.65 -15.4 -2.7 -16.8 -3.8 -18.25 -3.45 -20.0 L-2.5 -22.35 -1.15 -24.35 Q-2.65 -24.7 -3.5 -25.3 -4.7 -26.1 -4.45 -27.25 -3.5 -31.65 2.6 -31.95 2.45 -32.8 2.65 -33.9 2.9 -35.3 5.1 -36.0 L8.9 -36.15 Q10.65 -35.75 12.2 -34.5 L14.85 -32.65 Q17.35 -32.95 18.85 -32.7 L22.65 -31.65 Q27.45 -30.05 26.65 -26.3 26.4 -25.4 25.1 -24.7 L22.9 -23.75 Q26.4 -23.35 25.15 -17.95 24.8 -16.1 22.75 -14.6 20.5 -12.95 18.45 -13.6 L16.9 -14.75 15.95 -14.7 Q15.0 -10.55 14.3 -8.9 12.9 -6.0 10.55 -6.4 2.9 -8.05 4.15 -15.4 3.2 -14.6 2.3 -14.6 L2.2 -14.6 0.5 -14.9 M17.45 -20.55 L17.9 -19.6 16.4 -19.9 16.5 -19.9 17.45 -20.55 M9.4 -19.15 L9.3 -18.45 Q9.15 -16.45 8.6 -15.95 L8.35 -16.8 Q8.0 -18.45 8.35 -19.45 L9.4 -19.15 M4.45 -21.7 L2.9 -20.95 Q3.0 -21.8 3.75 -22.4 L4.45 -21.7 M3.0 -27.25 L1.65 -27.7 2.9 -28.05 3.45 -28.1 3.0 -27.25 M8.6 -30.85 L8.6 -31.55 9.05 -30.95 8.6 -30.85 M17.65 -28.25 Q18.85 -28.1 19.8 -27.25 L18.55 -27.25 17.65 -28.25" fill="#ffcc66" fill-rule="evenodd" stroke="none"/>
      <path d="M22.3 -31.0 Q26.5 -29.6 25.85 -26.4 25.7 -25.75 24.7 -25.2 L22.5 -24.3 Q22.05 -24.05 22.1 -23.6 22.1 -23.2 22.65 -23.1 24.55 -22.9 24.8 -20.95 L24.7 -19.3 24.45 -18.05 Q24.05 -16.55 22.05 -15.15 19.95 -13.75 18.3 -14.15 L17.5 -14.9 Q16.75 -15.6 16.55 -15.55 L15.85 -15.55 Q15.25 -15.3 15.15 -14.75 14.3 -10.75 13.6 -9.3 12.45 -6.65 10.5 -7.0 3.45 -8.5 4.55 -15.3 L4.3 -15.95 3.55 -15.85 2.75 -15.3 2.1 -15.15 0.0 -15.55 Q-1.45 -15.95 -2.4 -17.2 -3.35 -18.45 -3.05 -19.85 L-2.2 -21.95 -0.75 -24.05 Q-0.6 -24.35 -0.7 -24.6 L-1.15 -25.0 Q-4.3 -25.45 -3.95 -27.0 -3.2 -31.0 2.45 -31.25 3.05 -31.3 3.0 -32.0 L3.05 -33.65 Q3.3 -34.75 5.1 -35.4 L8.6 -35.55 Q10.25 -35.15 11.65 -33.95 L12.9 -32.95 Q13.6 -32.4 14.4 -32.0 L14.6 -32.0 18.6 -32.1 22.3 -31.0 M19.55 -23.9 L20.95 -25.05 Q23.15 -26.8 22.8 -28.05 22.45 -29.9 19.3 -30.45 L14.0 -30.85 Q12.9 -31.0 10.5 -32.2 8.55 -33.1 7.05 -32.8 6.25 -32.65 5.85 -31.3 5.3 -30.0 4.7 -29.7 4.0 -29.35 2.8 -29.15 L0.8 -28.9 Q-1.4 -28.6 -1.1 -27.2 -1.0 -26.55 -0.2 -25.95 L0.65 -24.75 Q0.85 -23.75 0.15 -22.2 -0.6 -20.6 -0.4 -19.6 L0.25 -17.55 2.6 -18.1 3.3 -18.25 4.95 -18.6 5.15 -17.7 Q5.85 -14.3 6.25 -13.45 7.35 -10.85 9.55 -11.25 10.4 -11.45 10.8 -12.35 L11.2 -14.35 Q11.25 -15.75 11.5 -16.3 11.9 -17.35 12.75 -17.55 L15.0 -17.8 17.35 -17.65 Q20.15 -17.55 20.95 -18.95 L18.75 -21.8 Q19.4 -22.7 19.55 -23.75 L19.55 -23.9" fill="#ffff33" fill-rule="evenodd" stroke="none"/>
      <path d="M18.75 -21.8 L20.95 -18.95 Q20.15 -17.55 17.35 -17.65 L15.0 -17.8 12.75 -17.55 Q11.9 -17.35 11.5 -16.3 11.25 -15.75 11.2 -14.35 L10.8 -12.35 Q10.4 -11.45 9.55 -11.25 7.35 -10.85 6.25 -13.45 5.85 -14.3 5.15 -17.7 L4.95 -18.6 3.3 -18.25 2.6 -18.1 0.25 -17.55 -0.4 -19.6 Q-0.6 -20.6 0.15 -22.2 0.85 -23.75 0.65 -24.75 L-0.2 -25.95 Q-1.0 -26.55 -1.1 -27.2 -1.4 -28.6 0.8 -28.9 L2.8 -29.15 Q4.0 -29.35 4.7 -29.7 5.3 -30.0 5.85 -31.3 6.25 -32.65 7.05 -32.8 8.55 -33.1 10.5 -32.2 12.9 -31.0 14.0 -30.85 L19.3 -30.45 Q22.45 -29.9 22.8 -28.05 23.15 -26.8 20.95 -25.05 L19.55 -23.9 Q19.7 -25.7 18.55 -27.25 L19.8 -27.25 Q18.85 -28.1 17.65 -28.25 15.4 -30.4 11.9 -30.75 L9.05 -30.95 8.6 -31.55 8.6 -30.85 5.7 -29.9 Q4.25 -29.2 3.45 -28.1 L2.9 -28.05 1.65 -27.7 3.0 -27.25 2.65 -26.1 Q2.35 -24.15 3.75 -22.4 3.0 -21.8 2.9 -20.95 L4.45 -21.7 4.55 -21.55 5.85 -20.6 Q6.55 -20.05 7.5 -19.75 L8.35 -19.45 Q8.0 -18.45 8.35 -16.8 L8.6 -15.95 Q9.15 -16.45 9.3 -18.45 L9.4 -19.15 10.25 -19.05 Q13.7 -18.6 16.4 -19.9 L17.9 -19.6 17.45 -20.55 Q18.2 -21.1 18.75 -21.8" fill="#ffff99" fill-rule="evenodd" stroke="none"/>
      <path d="M18.75 -21.8 Q18.2 -21.1 17.45 -20.55 L16.5 -19.9 16.4 -19.9 Q13.7 -18.6 10.25 -19.05 L9.4 -19.15 8.35 -19.45 7.5 -19.75 Q6.55 -20.05 5.85 -20.6 L4.55 -21.55 4.45 -21.7 3.75 -22.4 Q2.35 -24.15 2.65 -26.1 L3.0 -27.25 3.45 -28.1 Q4.25 -29.2 5.7 -29.9 L8.6 -30.85 9.05 -30.95 11.9 -30.75 Q15.4 -30.4 17.65 -28.25 L18.55 -27.25 Q19.7 -25.7 19.55 -23.9 L19.55 -23.75 Q19.4 -22.7 18.75 -21.8 M18.55 -26.0 L18.6 -25.2 Q18.3 -23.45 16.2 -22.35 13.85 -21.1 10.7 -21.45 L9.85 -21.65 Q8.9 -21.85 8.05 -22.2 6.65 -22.8 5.65 -23.75 3.85 -25.45 4.15 -27.2 4.15 -27.7 4.55 -28.35 3.45 -27.35 3.7 -25.05 3.9 -22.9 5.55 -21.4 L6.2 -20.85 7.9 -20.05 10.5 -19.5 Q13.7 -19.2 16.2 -20.45 18.6 -21.8 18.9 -23.8 19.05 -24.9 18.55 -26.0 M11.65 -30.15 L9.7 -30.0 8.6 -29.45 Q8.35 -29.3 9.0 -28.5 9.6 -27.65 10.7 -27.5 L13.0 -27.8 Q13.9 -28.25 13.75 -28.45 L13.2 -29.35 Q12.75 -30.05 11.65 -30.15" fill="#ff9900" fill-rule="evenodd" stroke="none"/>
      <path d="M18.55 -26.0 Q19.05 -24.9 18.9 -23.8 18.6 -21.8 16.2 -20.45 13.7 -19.2 10.5 -19.5 L7.9 -20.05 6.2 -20.85 5.55 -21.4 Q3.9 -22.9 3.7 -25.05 3.45 -27.35 4.55 -28.35 4.15 -27.7 4.15 -27.2 3.85 -25.45 5.65 -23.75 6.65 -22.8 8.05 -22.2 8.9 -21.85 9.85 -21.65 L10.7 -21.45 Q13.85 -21.1 16.2 -22.35 18.3 -23.45 18.6 -25.2 L18.55 -26.0" fill="#cc6600" fill-rule="evenodd" stroke="none"/>
      <path d="M11.65 -30.15 Q12.75 -30.05 13.2 -29.35 L13.75 -28.45 Q13.9 -28.25 13.0 -27.8 L10.7 -27.5 Q9.6 -27.65 9.0 -28.5 8.35 -29.3 8.6 -29.45 L9.7 -30.0 11.65 -30.15" fill="#ffcc33" fill-rule="evenodd" stroke="none"/>
      <path d="M-7.7 -9.2 L-7.55 -10.15 Q-6.1 -12.95 -11.0 -13.2 -15.95 -13.45 -20.85 -8.9 L-17.25 -10.45 Q-11.7 -12.0 -7.7 -9.2 M-5.85 -10.85 Q-5.3 -9.35 -5.55 -6.8 L-5.95 -3.8 -6.1 -4.15 Q-6.95 -6.1 -9.5 -7.1 L-14.05 -7.35 -12.25 -6.8 Q-10.4 -6.4 -8.5 -4.35 L-7.55 -2.8 Q-9.3 -2.5 -11.3 -1.65 L-14.5 -1.45 Q-15.85 -2.0 -17.35 -3.65 L-20.3 -7.4 -22.55 -10.2 -18.35 -12.0 Q-15.4 -13.2 -12.95 -13.65 -7.55 -14.7 -5.85 -10.85 M-0.85 -3.8 L1.8 -3.75 5.1 -2.9 7.6 -2.25 5.95 0.55 3.55 3.85 Q0.8 6.75 -1.8 5.3 -2.7 4.7 -3.65 3.15 L-4.7 1.25 -4.5 1.35 -1.25 1.55 Q0.7 1.05 1.5 -0.2 L0.15 0.25 -3.05 0.4 -4.3 -0.05 -3.25 -1.25 -2.55 -2.35 Q-1.95 -3.5 -0.85 -3.8 M-1.85 -2.25 L-2.1 -1.15 Q0.95 -3.1 4.3 -2.25 L5.3 -2.1 4.95 -2.35 Q2.2 -3.65 -0.6 -2.95 -1.25 -2.55 -1.85 -2.25" fill="#009900" fill-rule="evenodd" stroke="none"/>
      <path d="M-7.7 -9.2 Q-11.7 -12.0 -17.25 -10.45 L-20.85 -8.9 Q-15.95 -13.45 -11.0 -13.2 -6.1 -12.95 -7.55 -10.15 L-7.7 -9.2 M-1.85 -2.25 Q-1.25 -2.55 -0.6 -2.95 2.2 -3.65 4.95 -2.35 L5.3 -2.1 4.3 -2.25 Q0.95 -3.1 -2.1 -1.15 L-1.85 -2.25" fill="#66cc33" fill-rule="evenodd" stroke="none"/>
      <path d="M-5.05 -2.35 L-5.05 -2.0 -5.15 -2.0 -6.4 -1.95 Q-8.8 -1.7 -10.95 -0.75 L-14.85 -0.55 Q-16.4 -1.15 -18.05 -3.05 L-21.0 -6.8 -24.2 -10.6 -18.75 -12.9 Q-15.45 -14.2 -13.1 -14.6 -6.95 -15.75 -5.0 -11.25 -4.3 -9.6 -4.6 -6.65 L-4.7 -6.25 -5.05 -2.35 M-5.95 0.55 Q-4.3 -0.85 -3.2 -2.65 -2.4 -4.15 -1.0 -4.45 0.1 -4.85 1.9 -4.45 L5.25 -3.6 8.7 -2.7 6.5 0.95 4.95 3.3 4.4 3.9 4.05 4.3 3.6 4.8 Q0.7 7.5 -2.1 5.85 L-3.65 4.3 -4.3 3.45 -4.3 3.35 -4.7 2.65 -6.0 0.65 -6.0 0.55 -5.95 0.55 M-5.85 -10.85 Q-7.55 -14.7 -12.95 -13.65 -15.4 -13.2 -18.35 -12.0 L-22.55 -10.2 -20.3 -7.4 -17.35 -3.65 Q-15.85 -2.0 -14.5 -1.45 L-11.3 -1.65 Q-9.3 -2.5 -7.55 -2.8 L-8.5 -4.35 Q-10.4 -6.4 -12.25 -6.8 L-14.05 -7.35 -9.5 -7.1 Q-6.95 -6.1 -6.1 -4.15 L-5.95 -3.8 -5.55 -6.8 Q-5.3 -9.35 -5.85 -10.85 M-0.85 -3.8 Q-1.95 -3.5 -2.55 -2.35 L-3.25 -1.25 -4.3 -0.05 -3.05 0.4 0.15 0.25 1.5 -0.2 Q0.7 1.05 -1.25 1.55 L-4.5 1.35 -4.7 1.25 -3.65 3.15 Q-2.7 4.7 -1.8 5.3 0.8 6.75 3.55 3.85 L5.95 0.55 7.6 -2.25 5.1 -2.9 1.8 -3.75 -0.85 -3.8" fill="#006600" fill-rule="evenodd" stroke="none"/>
      <path d="M2.2 -14.6 Q-0.3 -11.8 -2.25 -8.45 -3.8 -5.85 -5.05 -2.35 L-4.7 -6.25 Q-2.5 -11.15 0.5 -14.9 L2.2 -14.6 M-5.15 -2.0 L-5.95 0.55 -6.0 0.55 -6.0 0.65 -6.4 1.95 -6.55 2.65 -6.7 3.35 -6.95 4.3 -7.35 5.7 Q-7.8 7.2 -7.95 7.2 -8.25 7.2 -8.1 5.15 L-8.1 4.3 -8.05 3.35 -7.95 2.75 -7.9 2.65 -6.4 -1.95 -5.15 -2.0" fill="#003300" fill-rule="evenodd" stroke="none"/>
      <path d="M4.95 3.3 L7.05 3.6 Q13.7 4.6 13.7 6.4 L12.1 17.9 12.1 18.05 12.1 18.15 11.25 19.15 8.55 33.35 Q8.45 34.15 7.2 34.8 L5.65 35.3 3.7 35.7 3.35 35.8 -6.45 36.4 -13.5 36.2 -14.9 35.95 -15.55 35.85 -16.15 35.8 -16.65 35.7 -17.1 35.65 -20.15 34.8 Q-21.4 34.15 -21.45 33.35 L-24.2 19.15 -24.3 19.05 -24.75 18.7 -25.0 18.35 -25.05 17.9 -25.05 17.75 -26.65 6.5 Q-26.65 4.6 -20.0 3.6 L-7.9 2.65 -7.95 2.75 -8.05 3.35 -19.9 4.3 Q-24.35 4.95 -25.55 5.8 L-25.95 6.4 -25.95 6.55 -24.35 17.8 -24.3 18.15 -23.75 18.6 -23.6 18.75 -23.05 19.0 -20.45 19.6 -19.85 19.7 -19.15 19.95 -18.9 20.0 -18.2 20.1 -17.8 20.15 -17.25 20.25 -16.8 20.3 -16.25 20.3 -14.75 20.5 -12.35 20.7 -6.45 20.85 5.65 20.0 6.25 19.95 6.25 19.85 6.75 19.8 7.1 19.7 8.6 19.4 Q8.7 19.3 8.75 19.3 L8.75 19.4 9.25 19.3 10.15 18.9 10.65 18.75 10.65 18.7 11.4 17.9 11.4 17.8 13.0 6.55 13.0 6.4 Q13.0 5.15 6.95 4.3 L4.4 3.9 4.95 3.3 M-6.7 3.35 L-6.55 2.65 -6.45 2.65 -4.7 2.65 -4.3 3.35 -6.45 3.35 -6.7 3.35 M-22.9 19.55 L-23.1 19.45 -23.45 19.4 -20.75 33.3 Q-20.85 33.6 -20.3 33.9 L-17.2 34.95 -16.65 35.0 -16.25 35.1 -15.6 35.15 -14.5 35.3 -13.5 35.4 -6.45 35.7 2.2 35.25 3.45 35.1 3.7 35.0 5.7 34.6 6.8 34.25 Q7.1 34.05 7.35 34.0 L7.9 33.3 10.55 19.45 Q10.25 19.45 10.0 19.6 L9.8 19.7 9.05 19.85 8.6 20.0 8.0 20.15 7.1 20.3 6.75 20.4 5.55 20.65 4.45 20.8 -6.3 21.4 -16.1 20.95 -16.7 20.85 -18.05 20.65 -20.2 20.25 -21.95 19.85 -22.4 19.7 -22.9 19.55 M-16.7 20.85 L-16.7 20.8 -17.2 20.7 -17.8 20.65 -16.7 20.85" fill="#330000" fill-rule="evenodd" stroke="none"/>
      <path d="M-8.1 4.3 L-8.1 5.15 Q-8.25 7.2 -7.95 7.2 -7.8 7.2 -7.35 5.7 L-6.95 4.3 -6.45 4.3 -3.65 4.3 -2.1 5.85 Q0.7 7.5 3.6 4.8 L6.8 5.15 Q12.05 5.95 12.05 6.4 12.05 6.65 10.95 6.95 L7.65 7.6 6.8 7.65 -6.45 8.6 -8.9 8.55 -9.05 8.6 -11.15 8.55 -16.15 8.2 -18.75 7.8 -19.35 7.75 -19.75 7.65 -20.45 7.6 -21.4 7.45 -24.3 6.9 Q-25.05 6.55 -25.0 6.4 -25.05 5.95 -19.75 5.15 L-8.1 4.3 M5.55 20.65 L6.75 20.4 7.1 20.3 8.0 20.15 5.25 34.3 Q4.55 35.0 3.55 34.6 L5.55 20.65" fill="#660000" fill-rule="evenodd" stroke="none"/>
      <path d="M-8.1 4.3 L-19.75 5.15 Q-25.05 5.95 -25.0 6.4 -25.05 6.55 -24.3 6.9 L-21.4 7.45 -20.45 7.6 -19.75 7.65 -19.35 7.75 -18.75 7.8 -16.15 8.2 -11.15 8.55 -9.05 8.6 -8.9 8.55 -6.45 8.6 6.8 7.65 7.65 7.6 10.95 6.95 Q12.05 6.65 12.05 6.4 12.05 5.95 6.8 5.15 L3.6 4.8 4.05 4.3 4.4 3.9 6.95 4.3 Q13.0 5.15 13.0 6.4 L13.0 6.55 11.4 17.8 11.4 17.9 10.65 18.7 12.45 7.2 11.2 7.65 7.5 8.55 6.95 8.6 -6.45 9.55 -10.85 9.45 -12.0 9.4 -18.65 8.75 -17.8 20.1 -17.8 20.15 -18.2 20.1 -18.9 20.0 -19.15 19.95 -19.85 19.7 -20.05 19.6 -22.1 8.3 -23.35 7.9 -23.25 8.0 -24.05 7.65 -24.45 7.6 -24.35 7.6 -25.2 7.2 -23.75 18.6 -24.3 18.15 -24.35 17.8 -25.95 6.55 -25.95 6.4 -25.55 5.8 Q-24.35 4.95 -19.9 4.3 L-8.05 3.35 -8.1 4.3 M-3.65 4.3 L-6.45 4.3 -6.95 4.3 -6.7 3.35 -6.45 3.35 -4.3 3.35 -4.3 3.45 -3.65 4.3 M-20.3 33.9 Q-20.85 33.6 -20.75 33.3 L-23.45 19.4 -23.1 19.45 -22.9 19.55 -20.3 33.9 M10.0 19.6 Q10.25 19.45 10.55 19.45 L7.9 33.3 7.35 34.0 10.0 19.6" fill="#ff0000" fill-rule="evenodd" stroke="none"/>
      <path d="M-17.8 20.15 L-17.8 20.1 -18.65 8.75 -12.0 9.4 -10.85 9.45 -6.45 9.55 6.95 8.6 7.5 8.55 6.25 19.85 6.25 19.95 5.65 20.0 -6.45 20.85 -12.35 20.7 -14.75 20.5 -16.25 20.3 -16.8 20.3 -17.25 20.25 -17.8 20.15 M11.2 7.65 L12.45 7.2 10.65 18.7 10.15 18.9 9.25 19.3 8.75 19.4 8.75 19.3 11.2 7.65 M-23.75 18.6 L-25.2 7.2 -24.35 7.6 -24.45 7.6 -24.05 7.65 -23.25 8.0 -23.35 7.9 -22.1 8.3 -20.05 19.6 -20.45 19.6 -23.05 19.0 -23.6 18.75 -23.75 18.6 M-20.2 20.25 L-18.05 20.65 -16.7 20.85 -16.45 22.2 -16.4 22.8 Q-15.0 30.55 -14.5 35.3 L-15.6 35.15 -16.25 35.1 -16.65 35.0 -17.2 34.95 -20.2 20.25 M-16.7 20.85 L-17.8 20.65 -17.2 20.7 -16.7 20.8 -16.7 20.85" fill="#cc0000" fill-rule="evenodd" stroke="none"/>
      <path d="M7.5 8.55 L11.2 7.65 8.75 19.3 Q8.7 19.3 8.6 19.4 L7.1 19.7 6.75 19.8 6.25 19.85 7.5 8.55 M-20.05 19.6 L-19.85 19.7 -20.45 19.6 -20.05 19.6 M-22.9 19.55 L-22.4 19.7 -21.95 19.85 -20.2 20.25 -17.2 34.95 -20.3 33.9 -22.9 19.55 M-18.05 20.65 L-16.7 20.85 -16.1 20.95 -6.3 21.4 4.45 20.8 5.55 20.65 3.55 34.6 Q4.55 35.0 5.25 34.3 L8.0 20.15 8.6 20.0 9.05 19.85 9.8 19.7 10.0 19.6 7.35 34.0 Q7.1 34.05 6.8 34.25 L5.7 34.6 3.7 35.0 3.45 35.1 2.2 35.25 -6.45 35.7 -13.5 35.4 -14.5 35.3 Q-15.0 30.55 -16.4 22.8 L-16.45 22.2 -16.7 20.85 -18.05 20.65 M10.15 18.9 L10.65 18.7 10.65 18.75 10.15 18.9" fill="#990000" fill-rule="evenodd" stroke="none"/>
    </g>
  </defs>
</svg>
