<?xml version="1.0" encoding="UTF-8" standalone="no"?>
<svg xmlns:xlink="http://www.w3.org/1999/xlink" height="203.6px" width="337.0px" xmlns="http://www.w3.org/2000/svg">
  <g transform="matrix(1.0, 0.0, 0.0, 1.0, 90.3, 1.3)">
    <use height="113.85" transform="matrix(1.0, 0.0, 0.0, 1.0, -30.45, -1.15)" width="277.15" xlink:href="#sprite0"/>
    <use height="113.15" transform="matrix(1.0, 0.0, 0.0, 1.0, -90.3, -1.3)" width="277.15" xlink:href="#sprite2"/>
    <use height="0.0" transform="matrix(1.0, 0.0, 0.0, 1.0, -25.15, 3.8)" width="0.0" xlink:href="#sprite3"/>
    <use height="73.9" transform="matrix(1.0, 0.0, 0.0, 1.0, -89.15, 128.4)" width="102.0" xlink:href="#sprite4"/>
  </g>
  <defs>
    <g id="sprite0" transform="matrix(1.0, 0.0, 0.0, 1.0, 31.3, 0.0)">
      <use height="100.0" id="boundingBox_mc" transform="matrix(1.0, 0.0, 0.0, 0.22, 0.0, 0.0)" width="100.0" xlink:href="#sprite1"/>
    </g>
    <g id="sprite1" transform="matrix(1.0, 0.0, 0.0, 1.0, 0.0, 0.0)">
      <use height="100.0" transform="matrix(1.0, 0.0, 0.0, 1.0, 0.0, 0.0)" width="100.0" xlink:href="#shape0"/>
    </g>
    <g id="shape0" transform="matrix(1.0, 0.0, 0.0, 1.0, 0.0, 0.0)">
      <path d="M100.0 100.0 L0.0 100.0 0.0 0.0 100.0 0.0 100.0 100.0" fill="#ffffff" fill-rule="evenodd" stroke="none"/>
      <path d="M100.0 100.0 L0.0 100.0 0.0 0.0 100.0 0.0 100.0 100.0 Z" fill="none" stroke="#666666" stroke-linecap="round" stroke-linejoin="round" stroke-width="0.05"/>
    </g>
    <g id="sprite2" transform="matrix(1.0, 0.0, 0.0, 1.0, 35.15, 0.15)">
      <use height="100.0" id="boundingBox_mc" transform="matrix(0.16, 0.0, 0.0, 0.16, 0.0, 0.0)" width="100.0" xlink:href="#sprite1"/>
    </g>
    <g id="sprite4" transform="matrix(1.0, 0.0, 0.0, 1.0, 0.15, -0.25)">
      <use height="16.0" transform="matrix(1.0, 0.0, 0.0, 1.0, 19.8, 58.05)" width="16.0" xlink:href="#sprite5"/>
      <use height="16.0" transform="matrix(1.0, 0.0, 0.0, 1.0, 19.8, 38.25)" width="16.0" xlink:href="#sprite7"/>
      <use height="16.0" transform="matrix(1.0, 0.0, 0.0, 1.0, 19.8, 19.25)" width="16.0" xlink:href="#sprite10"/>
      <use height="16.0" transform="matrix(1.0, 0.0, 0.0, 1.0, 20.2, 0.25)" width="16.0" xlink:href="#sprite11"/>
      <use height="5.0" transform="matrix(1.0, 0.0, 0.0, 1.0, 58.75, 27.8)" width="14.0" xlink:href="#sprite12"/>
      <use height="5.0" transform="matrix(1.0, 0.0, 0.0, 1.0, 58.75, 18.65)" width="14.0" xlink:href="#sprite13"/>
      <use height="5.0" transform="matrix(1.0, 0.0, 0.0, 1.0, 58.75, 9.85)" width="14.0" xlink:href="#sprite16"/>
      <use height="5.0" transform="matrix(1.0, 0.0, 0.0, 1.0, 58.75, 0.65)" width="14.0" xlink:href="#sprite17"/>
      <use height="8.0" transform="matrix(1.0, 0.0, 0.0, 1.0, 96.85, 41.0)" width="5.0" xlink:href="#sprite18"/>
      <use height="8.0" transform="matrix(1.0, 0.0, 0.0, 1.0, 96.85, 26.6)" width="5.0" xlink:href="#sprite19"/>
      <use height="8.0" transform="matrix(1.0, 0.0, 0.0, 1.0, 96.85, 13.45)" width="5.0" xlink:href="#sprite21"/>
      <use height="8.0" transform="matrix(1.0, 0.0, 0.0, 1.0, 96.85, 0.25)" width="5.0" xlink:href="#sprite22"/>
      <use height="1.0" transform="matrix(1.0, 0.0, 0.0, 1.0, 78.3, 26.6)" width="14.0" xlink:href="#sprite23"/>
      <use height="1.0" transform="matrix(1.0, 0.0, 0.0, 1.0, 77.9, 17.95)" width="14.0" xlink:href="#sprite24"/>
      <use height="1.0" transform="matrix(1.0, 0.0, 0.0, 1.0, 77.9, 9.3)" width="14.0" xlink:href="#sprite25"/>
      <use height="1.0" transform="matrix(1.0, 0.0, 0.0, 1.0, 77.9, 0.65)" width="14.0" xlink:href="#sprite28"/>
      <use height="5.0" transform="matrix(1.0, 0.0, 0.0, 1.0, 40.8, 27.8)" width="14.0" xlink:href="#sprite29"/>
      <use height="5.0" transform="matrix(1.0, 0.0, 0.0, 1.0, 41.2, 18.25)" width="14.0" xlink:href="#sprite30"/>
      <use height="5.0" transform="matrix(1.0, 0.0, 0.0, 1.0, 41.55, 9.05)" width="14.0" xlink:href="#sprite31"/>
      <use height="5.0" transform="matrix(1.0, 0.0, 0.0, 1.0, 41.6, 0.7)" width="14.0" xlink:href="#sprite32"/>
      <use height="4.0" transform="matrix(1.0, 0.0, 0.0, 1.0, 39.85, 47.35)" width="16.0" xlink:href="#sprite33"/>
      <use height="16.0" transform="matrix(1.0, 0.0, 0.0, 1.0, -0.15, 58.15)" width="16.0" xlink:href="#sprite34"/>
      <use height="16.0" transform="matrix(1.0, 0.0, 0.0, 1.0, -0.15, 38.85)" width="16.0" xlink:href="#sprite35"/>
      <use height="16.0" transform="matrix(1.0, 0.0, 0.0, 1.0, 0.25, 19.55)" width="16.0" xlink:href="#sprite36"/>
      <use height="16.0" transform="matrix(1.0, 0.0, 0.0, 1.0, 0.65, 0.25)" width="16.0" xlink:href="#sprite37"/>
      <use height="16.0" transform="matrix(1.0, 0.0, 0.0, 1.0, 58.9, 56.6)" width="16.0" xlink:href="#sprite38"/>
      <use height="16.0" transform="matrix(1.0, 0.0, 0.0, 1.0, 40.15, 57.0)" width="16.0" xlink:href="#sprite39"/>
    </g>
    <g id="sprite5" transform="matrix(1.0, 0.0, 0.0, 1.0, 0.0, 0.0)">
      <use height="4.0" transform="matrix(1.0, 0.0, 0.0, 1.0, 0.0, 0.0)" width="16.0" xlink:href="#sprite6"/>
      <use height="16.0" transform="matrix(1.0, 0.0, 0.0, -1.0, 0.0, 16.0)" width="16.0" xlink:href="#shape3"/>
      <use height="16.0" transform="matrix(-1.0, 0.0, 0.0, -1.0, 16.0, 16.0)" width="16.0" xlink:href="#shape4"/>
      <use height="14.0" transform="matrix(1.0, 0.0, 0.0, -1.0, 1.0, 15.0)" width="14.0" xlink:href="#shape5"/>
      <use height="14.0" transform="matrix(1.0, 0.0, 0.0, -1.0, 1.0, 15.0)" width="14.0" xlink:href="#shape6"/>
      <use height="4.0" transform="matrix(1.0, 0.0, 0.0, -1.0, 5.0, 10.0)" width="6.0" xlink:href="#shape7"/>
      <use height="1.65" transform="matrix(0.9964, 0.0, 0.0, 0.9697, 1.0, 1.0)" width="13.95" xlink:href="#shape8"/>
    </g>
    <g id="sprite6" transform="matrix(1.0, 0.0, 0.0, 1.0, 0.0, 0.0)">
      <use height="18.3" transform="matrix(0.8743, 0.0, 0.0, 0.2186, 0.0, 0.0)" width="18.3" xlink:href="#shape1"/>
      <use height="18.3" transform="matrix(0.8197, 0.0, 0.0, 0.2186, 0.0, 0.0)" width="18.3" xlink:href="#shape1"/>
      <use height="18.3" transform="matrix(0.765, 0.0, 0.0, 0.2186, 1.0, 0.0)" width="18.3" xlink:href="#shape1"/>
      <use height="1.0" transform="matrix(1.1667, 0.0, 0.0, 4.0, 1.0, 0.0)" width="12.0" xlink:href="#shape2"/>
    </g>
    <g id="shape1" transform="matrix(1.0, 0.0, 0.0, 1.0, 0.0, 0.0)">
      <path d="M18.3 0.0 L18.3 18.3 0.0 18.3 0.0 0.0 18.3 0.0" fill="#eeeeee" fill-rule="evenodd" stroke="none"/>
    </g>
    <g id="shape2" transform="matrix(1.0, 0.0, 0.0, 1.0, 0.0, 0.0)">
      <path d="M12.0 0.6 L12.0 1.0 0.0 1.0 0.0 0.0 12.0 0.0 12.0 0.6" fill="url(#gradient0)" fill-rule="evenodd" stroke="none"/>
    </g>
    <linearGradient gradientTransform="matrix(-0.0068, 0.0, 0.0, -0.0012, 6.3, 0.0)" gradientUnits="userSpaceOnUse" id="gradient0" spreadMethod="pad" x1="-819.2" x2="819.2">
      <stop offset="0.16470588235294117" stop-color="#ffffff" stop-opacity="0.49803922"/>
      <stop offset="0.6705882352941176" stop-color="#ffffff" stop-opacity="0.0"/>
      <stop offset="1.0" stop-color="#2d2d2d" stop-opacity="0.09803922"/>
    </linearGradient>
    <g id="shape3" transform="matrix(1.0, 0.0, 0.0, 1.0, 0.0, 0.0)">
      <path d="M0.0 0.0 L16.0 0.0 16.0 13.0 Q15.95 14.25 15.1 15.1 14.25 15.95 13.0 16.0 L3.0 16.0 Q1.7 15.95 0.9 15.1 0.05 14.25 0.0 13.0 L0.0 0.0" fill="#cccccc" fill-rule="evenodd" stroke="none"/>
    </g>
    <g id="shape4" transform="matrix(1.0, 0.0, 0.0, 1.0, 0.0, 0.0)">
      <path d="M16.0 13.0 Q15.95 14.25 15.1 15.1 14.25 15.95 13.0 16.0 L3.0 16.0 Q1.7 15.95 0.9 15.1 0.05 14.25 0.0 13.0 L0.0 0.0 16.0 0.0 16.0 13.0" fill="url(#gradient1)" fill-rule="evenodd" stroke="none"/>
    </g>
    <linearGradient gradientTransform="matrix(0.0098, 0.0, 0.0, 0.0098, 8.0, 8.0)" gradientUnits="userSpaceOnUse" id="gradient1" spreadMethod="pad" x1="-819.2" x2="819.2">
      <stop offset="0.0" stop-color="#ffffff" stop-opacity="0.2509804"/>
      <stop offset="1.0" stop-color="#2d2d2d" stop-opacity="0.3137255"/>
    </linearGradient>
    <g id="shape5" transform="matrix(1.0, 0.0, 0.0, 1.0, 0.0, 0.0)">
      <path d="M14.0 0.0 L14.0 12.0 Q14.0 12.85 13.4 13.4 12.85 14.0 12.0 14.0 L2.0 14.0 Q1.15 14.0 0.6 13.4 0.0 12.85 0.0 12.0 L0.0 0.0 14.0 0.0" fill="#f7f7f7" fill-rule="evenodd" stroke="none"/>
    </g>
    <g id="shape6" transform="matrix(1.0, 0.0, 0.0, 1.0, 0.0, 0.0)">
      <path d="M0.0 0.0 L14.0 0.0 14.0 12.0 Q14.0 12.85 13.4 13.4 12.85 14.0 12.0 14.0 L2.0 14.0 Q1.15 14.0 0.6 13.4 0.0 12.85 0.0 12.0 L0.0 0.0" fill="url(#gradient2)" fill-rule="evenodd" stroke="none"/>
    </g>
    <linearGradient gradientTransform="matrix(0.0085, 0.0, 0.0, 0.0085, 7.0, 7.0)" gradientUnits="userSpaceOnUse" id="gradient2" spreadMethod="pad" x1="-819.2" x2="819.2">
      <stop offset="0.16470588235294117" stop-color="#ffffff" stop-opacity="0.49803922"/>
      <stop offset="0.6705882352941176" stop-color="#ffffff" stop-opacity="0.0"/>
      <stop offset="1.0" stop-color="#2d2d2d" stop-opacity="0.09803922"/>
    </linearGradient>
    <g id="shape7" transform="matrix(1.0, 0.0, 0.0, 1.0, 0.0, 0.0)">
      <path d="M6.0 4.0 L0.0 4.0 3.0 0.0 6.0 4.0" fill="#2b333c" fill-rule="evenodd" stroke="none"/>
    </g>
    <g id="shape8" transform="matrix(1.0, 0.0, 0.0, 1.0, 0.0, 0.0)">
      <path d="M12.4 1.05 L1.55 1.05 Q0.6 1.1 0.0 1.65 0.15 0.95 0.7 0.45 1.2 0.0 1.95 0.0 L11.95 0.0 Q12.7 0.0 13.25 0.45 13.8 0.95 13.95 1.65 13.3 1.1 12.4 1.05" fill="#ffffff" fill-rule="evenodd" stroke="none"/>
    </g>
    <g id="sprite7" transform="matrix(1.0, 0.0, 0.0, 1.0, 0.0, 0.0)">
      <use height="4.0" transform="matrix(1.0, 0.0, 0.0, 1.0, 0.0, 0.0)" width="16.0" xlink:href="#sprite6"/>
      <use height="16.0" transform="matrix(1.0, 0.0, 0.0, -1.0, 0.0, 16.0)" width="16.0" xlink:href="#shape3"/>
      <use height="16.0" transform="matrix(1.0, 0.0, 0.0, -1.0, 0.0, 16.0)" width="16.0" xlink:href="#sprite8"/>
      <use height="16.0" transform="matrix(-1.0, 0.0, 0.0, -1.0, 16.0, 16.0)" width="16.0" xlink:href="#shape4"/>
      <use height="14.0" transform="matrix(1.0, 0.0, 0.0, -1.0, 1.0, 15.0)" width="14.0" xlink:href="#shape5"/>
      <use height="14.0" transform="matrix(-1.0, 0.0, 0.0, -1.0, 15.0, 15.0)" width="14.0" xlink:href="#shape6"/>
      <use height="4.0" transform="matrix(1.0, 0.0, 0.0, -1.0, 5.0, 10.0)" width="6.0" xlink:href="#shape7"/>
      <use height="14.0" transform="matrix(1.0, 0.0, 0.0, -1.0, 1.0, 15.0)" width="14.0" xlink:href="#sprite9"/>
      <use height="1.65" transform="matrix(0.9964, 0.0, 0.0, 0.9697, 1.0, 1.0)" width="13.95" xlink:href="#shape8"/>
    </g>
    <g id="sprite8" transform="matrix(1.0, 0.0, 0.0, 1.0, 0.0, 0.0)">
      <use height="16.0" transform="matrix(1.0, 0.0, 0.0, 1.0, 0.0, 0.0)" width="16.0" xlink:href="#shape9"/>
    </g>
    <g id="shape9" transform="matrix(1.0, 0.0, 0.0, 1.0, 0.0, 0.0)">
      <path d="M0.0 0.0 L16.0 0.0 16.0 13.0 Q15.95 14.25 15.1 15.1 14.25 15.95 13.0 16.0 L3.0 16.0 Q1.7 15.95 0.9 15.1 0.05 14.25 0.0 13.0 L0.0 0.0" fill="#00ff00" fill-opacity="0.7490196" fill-rule="evenodd" stroke="none"/>
    </g>
    <g id="sprite9" transform="matrix(1.0, 0.0, 0.0, 1.0, 0.0, 0.0)">
      <use height="14.0" transform="matrix(1.0, 0.0, 0.0, 1.0, 0.0, 0.0)" width="14.0" xlink:href="#shape10"/>
    </g>
    <g id="shape10" transform="matrix(1.0, 0.0, 0.0, 1.0, 0.0, 0.0)">
      <path d="M0.0 0.0 L14.0 0.0 14.0 12.0 Q14.0 12.85 13.4 13.4 12.85 14.0 12.0 14.0 L2.0 14.0 Q1.15 14.0 0.6 13.4 0.0 12.85 0.0 12.0 L0.0 0.0" fill="#00ff00" fill-opacity="0.19607843" fill-rule="evenodd" stroke="none"/>
    </g>
    <g id="sprite10" transform="matrix(1.0, 0.0, 0.0, 1.0, 0.0, 0.0)">
      <use height="4.0" transform="matrix(1.0, 0.0, 0.0, 1.0, 0.0, 0.0)" width="16.0" xlink:href="#sprite6"/>
      <use height="16.0" transform="matrix(1.0, 0.0, 0.0, -1.0, 0.0, 16.0)" width="16.0" xlink:href="#shape3"/>
      <use height="16.0" transform="matrix(1.0, 0.0, 0.0, -1.0, 0.0, 16.0)" width="16.0" xlink:href="#sprite8"/>
      <use height="16.0" transform="matrix(-1.0, 0.0, 0.0, -1.0, 16.0, 16.0)" width="16.0" xlink:href="#shape4"/>
      <use height="14.0" transform="matrix(1.0, 0.0, 0.0, -1.0, 1.0, 15.0)" width="14.0" xlink:href="#shape5"/>
      <use height="14.0" transform="matrix(1.0, 0.0, 0.0, -1.0, 1.0, 15.0)" width="14.0" xlink:href="#shape6"/>
      <use height="4.0" transform="matrix(1.0, 0.0, 0.0, -1.0, 5.0, 10.0)" width="6.0" xlink:href="#shape7"/>
      <use height="1.65" transform="matrix(0.9964, 0.0, 0.0, 0.9697, 1.0, 1.0)" width="13.95" xlink:href="#shape8"/>
    </g>
    <g id="sprite11" transform="matrix(1.0, 0.0, 0.0, 1.0, 0.0, 0.0)">
      <use height="4.0" transform="matrix(1.0, 0.0, 0.0, 1.0, 0.0, 0.0)" width="16.0" xlink:href="#sprite6"/>
      <use height="16.0" transform="matrix(1.0, 0.0, 0.0, -1.0, 0.0, 16.0)" width="16.0" xlink:href="#shape3"/>
      <use height="16.0" transform="matrix(-1.0, 0.0, 0.0, -1.0, 16.0, 16.0)" width="16.0" xlink:href="#shape4"/>
      <use height="14.0" transform="matrix(1.0, 0.0, 0.0, -1.0, 1.0, 15.0)" width="14.0" xlink:href="#shape5"/>
      <use height="14.0" transform="matrix(1.0, 0.0, 0.0, -1.0, 1.0, 15.0)" width="14.0" xlink:href="#shape6"/>
      <use height="4.0" transform="matrix(1.0, 0.0, 0.0, -1.0, 5.0, 10.0)" width="6.0" xlink:href="#shape7"/>
      <use height="1.65" transform="matrix(0.9964, 0.0, 0.0, 0.9697, 1.0, 1.0)" width="13.95" xlink:href="#shape8"/>
    </g>
    <g id="sprite12" transform="matrix(1.0, 0.0, 0.0, 1.0, -1.0, 0.0)">
      <use height="5.0" transform="matrix(1.0, 0.0, 0.0, -1.0, 1.0, 5.0)" width="14.0" xlink:href="#shape11"/>
      <use height="5.0" transform="matrix(1.0, 0.0, 0.0, -1.0, 1.0, 5.0)" width="14.0" xlink:href="#shape12"/>
      <use height="4.0" transform="matrix(1.0, 0.0, 0.0, -1.0, 1.0, 4.0)" width="13.0" xlink:href="#shape13"/>
      <use height="3.0" transform="matrix(1.0, 0.0, 0.0, -1.0, 1.0, 3.0)" width="12.0" xlink:href="#shape14"/>
      <use height="3.0" transform="matrix(1.0, 0.0, 0.0, -1.0, 1.0, 3.0)" width="12.0" xlink:href="#shape15"/>
    </g>
    <g id="shape11" transform="matrix(1.0, 0.0, 0.0, 1.0, 0.0, 0.0)">
      <path d="M13.25 0.75 Q13.95 1.45 14.0 2.5 L14.0 5.0 0.0 5.0 0.0 0.0 11.5 0.0 Q12.55 0.05 13.25 0.75" fill="#cccccc" fill-rule="evenodd" stroke="none"/>
    </g>
    <g id="shape12" transform="matrix(1.0, 0.0, 0.0, 1.0, 0.0, 0.0)">
      <path d="M14.0 5.0 L0.0 5.0 0.0 0.0 11.5 0.0 Q12.55 0.05 13.25 0.75 13.95 1.45 14.0 2.5 L14.0 5.0" fill="url(#gradient3)" fill-rule="evenodd" stroke="none"/>
    </g>
    <linearGradient gradientTransform="matrix(0.0068, 0.0, 0.0, 0.0031, 7.05, 2.5)" gradientUnits="userSpaceOnUse" id="gradient3" spreadMethod="pad" x1="-819.2" x2="819.2">
      <stop offset="0.0" stop-color="#ffffff" stop-opacity="0.2509804"/>
      <stop offset="1.0" stop-color="#2d2d2d" stop-opacity="0.3137255"/>
    </linearGradient>
    <g id="shape13" transform="matrix(1.0, 0.0, 0.0, 1.0, 0.0, 0.0)">
      <path d="M13.0 1.5 L13.0 4.0 0.0 4.0 0.0 0.0 11.5 0.0 Q12.1 0.0 12.55 0.45 12.95 0.85 13.0 1.5" fill="#ffffff" fill-opacity="0.8980392" fill-rule="evenodd" stroke="none"/>
    </g>
    <g id="shape14" transform="matrix(1.0, 0.0, 0.0, 1.0, 0.0, 0.0)">
      <path d="M0.0 0.0 L11.5 0.0 Q11.95 0.05 12.0 0.5 L12.0 1.25 12.0 2.4 12.0 3.0 0.0 3.0 0.0 0.0" fill="#f7f7f7" fill-rule="evenodd" stroke="none"/>
    </g>
    <g id="shape15" transform="matrix(1.0, 0.0, 0.0, 1.0, 0.0, 0.0)">
      <path d="M0.0 0.0 L11.5 0.0 Q11.95 0.05 12.0 0.5 L12.0 1.25 12.0 2.4 12.0 3.0 0.0 3.0 0.0 0.0" fill="url(#gradient4)" fill-rule="evenodd" stroke="none"/>
    </g>
    <linearGradient gradientTransform="matrix(-0.0068, 0.0, 0.0, -0.0018, 6.3, 1.5)" gradientUnits="userSpaceOnUse" id="gradient4" spreadMethod="pad" x1="-819.2" x2="819.2">
      <stop offset="0.16470588235294117" stop-color="#ffffff" stop-opacity="0.49803922"/>
      <stop offset="0.6705882352941176" stop-color="#ffffff" stop-opacity="0.0"/>
      <stop offset="1.0" stop-color="#2d2d2d" stop-opacity="0.09803922"/>
    </linearGradient>
    <g id="sprite13" transform="matrix(1.0, 0.0, 0.0, 1.0, -1.0, 0.0)">
      <use height="5.0" transform="matrix(1.0, 0.0, 0.0, -1.0, 1.0, 5.0)" width="14.0" xlink:href="#shape11"/>
      <use height="5.0" transform="matrix(1.0, 0.0, 0.0, -1.0, 1.0, 5.0)" width="14.0" xlink:href="#sprite14"/>
      <use height="5.0" transform="matrix(1.0, 0.0, 0.0, -1.0, 1.0, 5.0)" width="14.0" xlink:href="#shape12"/>
      <use height="4.0" transform="matrix(1.0, 0.0, 0.0, -1.0, 1.0, 4.0)" width="13.0" xlink:href="#shape13"/>
      <use height="3.0" transform="matrix(1.0, 0.0, 0.0, -1.0, 1.0, 3.0)" width="12.0" xlink:href="#shape14"/>
      <use height="3.0" transform="matrix(1.0, 0.0, 0.0, -1.0, 1.0, 3.0)" width="12.0" xlink:href="#sprite15"/>
      <use height="3.0" transform="matrix(1.0, 0.0, 0.0, -1.0, 1.0, 3.0)" width="12.0" xlink:href="#shape15"/>
    </g>
    <g id="sprite14" transform="matrix(1.0, 0.0, 0.0, 1.0, 0.0, 0.0)">
      <use height="5.0" transform="matrix(1.0, 0.0, 0.0, 1.0, 0.0, 0.0)" width="14.0" xlink:href="#shape16"/>
    </g>
    <g id="shape16" transform="matrix(1.0, 0.0, 0.0, 1.0, 0.0, 0.0)">
      <path d="M0.0 5.0 L0.0 0.0 11.5 0.0 Q12.55 0.05 13.25 0.75 13.95 1.45 14.0 2.5 L14.0 5.0 0.0 5.0" fill="#00ff00" fill-opacity="0.7490196" fill-rule="evenodd" stroke="none"/>
    </g>
    <g id="sprite15" transform="matrix(1.0, 0.0, 0.0, 1.0, 0.0, 0.0)">
      <use height="3.0" transform="matrix(1.0, 0.0, 0.0, 1.0, 0.0, 0.0)" width="12.0" xlink:href="#shape17"/>
    </g>
    <g id="shape17" transform="matrix(1.0, 0.0, 0.0, 1.0, 0.0, 0.0)">
      <path d="M12.0 3.0 L0.0 3.0 0.0 0.0 11.5 0.0 Q11.95 0.05 12.0 0.5 L12.0 1.25 12.0 2.4 12.0 3.0" fill="#00ff00" fill-opacity="0.19607843" fill-rule="evenodd" stroke="none"/>
    </g>
    <g id="sprite16" transform="matrix(1.0, 0.0, 0.0, 1.0, -1.0, 0.0)">
      <use height="5.0" transform="matrix(1.0, 0.0, 0.0, -1.0, 1.0, 5.0)" width="14.0" xlink:href="#shape11"/>
      <use height="5.0" transform="matrix(1.0, 0.0, 0.0, -1.0, 1.0, 5.0)" width="14.0" xlink:href="#sprite14"/>
      <use height="5.0" transform="matrix(1.0, 0.0, 0.0, -1.0, 1.0, 5.0)" width="14.0" xlink:href="#shape12"/>
      <use height="4.0" transform="matrix(1.0, 0.0, 0.0, -1.0, 1.0, 4.0)" width="13.0" xlink:href="#shape13"/>
      <use height="3.0" transform="matrix(1.0, 0.0, 0.0, -1.0, 1.0, 3.0)" width="12.0" xlink:href="#shape14"/>
      <use height="3.0" transform="matrix(1.0, 0.0, 0.0, -1.0, 1.0, 3.0)" width="12.0" xlink:href="#shape15"/>
    </g>
    <g id="sprite17" transform="matrix(1.0, 0.0, 0.0, 1.0, -1.0, 0.0)">
      <use height="5.0" transform="matrix(1.0, 0.0, 0.0, -1.0, 1.0, 5.0)" width="14.0" xlink:href="#shape11"/>
      <use height="5.0" transform="matrix(1.0, 0.0, 0.0, -1.0, 1.0, 5.0)" width="14.0" xlink:href="#shape12"/>
      <use height="4.0" transform="matrix(1.0, 0.0, 0.0, -1.0, 1.0, 4.0)" width="13.0" xlink:href="#shape13"/>
      <use height="3.0" transform="matrix(1.0, 0.0, 0.0, -1.0, 1.0, 3.0)" width="12.0" xlink:href="#shape14"/>
      <use height="3.0" transform="matrix(1.0, 0.0, 0.0, -1.0, 1.0, 3.0)" width="12.0" xlink:href="#shape15"/>
    </g>
    <g id="sprite18" transform="matrix(1.0, 0.0, 0.0, 1.0, 0.0, 0.0)">
      <use height="7.0" transform="matrix(1.0, 0.0, 0.0, 1.0, 0.0, 1.0)" width="5.0" xlink:href="#shape18"/>
      <use height="7.0" transform="matrix(1.0, 0.0, 0.0, 1.0, 0.0, 0.0)" width="5.0" xlink:href="#shape18"/>
    </g>
    <g id="shape18" transform="matrix(1.0, 0.0, 0.0, 1.0, 0.0, 0.0)">
      <path d="M5.0 1.0 L0.0 1.0 0.0 0.0 5.0 0.0 5.0 1.0 M5.0 3.0 L0.0 3.0 0.0 2.0 5.0 2.0 5.0 3.0 M0.0 5.0 L0.0 4.0 5.0 4.0 5.0 5.0 0.0 5.0 M5.0 6.0 L5.0 7.0 0.0 7.0 0.0 6.0 5.0 6.0" fill="#aab3b3" fill-rule="evenodd" stroke="none"/>
    </g>
    <g id="sprite19" transform="matrix(1.0, 0.0, 0.0, 1.0, 0.0, 0.0)">
      <use height="1.0" transform="matrix(0.3571, 0.0, 0.0, 8.0, 0.0, 0.0)" width="14.0" xlink:href="#sprite20"/>
      <use height="7.0" transform="matrix(1.0, 0.0, 0.0, 1.0, 0.0, 0.0)" width="5.0" xlink:href="#shape18"/>
      <use height="7.0" transform="matrix(1.0, 0.0, 0.0, 1.0, 0.0, 1.0)" width="5.0" xlink:href="#shape18"/>
    </g>
    <g id="sprite20" transform="matrix(1.0, 0.0, 0.0, 1.0, 0.0, 0.0)">
      <use height="12.0" transform="matrix(1.1667, 0.0, 0.0, 0.0833, 0.0, 0.0)" width="12.0" xlink:href="#shape19"/>
    </g>
    <g id="shape19" transform="matrix(1.0, 0.0, 0.0, 1.0, 0.0, 0.0)">
      <path d="M12.0 12.0 L0.0 12.0 0.0 0.0 12.0 0.0 12.0 12.0" fill="#00ff00" fill-rule="evenodd" stroke="none"/>
    </g>
    <g id="sprite21" transform="matrix(1.0, 0.0, 0.0, 1.0, 0.0, 0.0)">
      <use height="1.0" transform="matrix(0.3571, 0.0, 0.0, 6.9999, 0.0, 0.8)" width="14.0" xlink:href="#sprite20"/>
      <use height="7.0" transform="matrix(1.0, 0.0, 0.0, 1.0, 0.0, 1.0)" width="5.0" xlink:href="#shape18"/>
      <use height="7.0" transform="matrix(1.0, 0.0, 0.0, 1.0, 0.0, 0.0)" width="5.0" xlink:href="#shape18"/>
    </g>
    <g id="sprite22" transform="matrix(1.0, 0.0, 0.0, 1.0, 0.0, 0.0)">
      <use height="7.0" transform="matrix(1.0, 0.0, 0.0, 1.0, 0.0, 1.0)" width="5.0" xlink:href="#shape18"/>
      <use height="7.0" transform="matrix(1.0, 0.0, 0.0, 1.0, 0.0, 0.0)" width="5.0" xlink:href="#shape18"/>
    </g>
    <g id="sprite23" transform="matrix(1.0, 0.0, 0.0, 1.0, -1.0, 0.0)">
      <use height="18.3" transform="matrix(0.765, 0.0, 0.0, 0.0546, 1.0, 0.0)" width="18.3" xlink:href="#shape1"/>
      <use height="1.0" transform="matrix(1.0, 0.0, 0.0, 1.0, 1.0, 0.0)" width="14.0" xlink:href="#shape20"/>
      <use height="1.0" transform="matrix(0.9286, 0.0, 0.0, 1.0, 1.0, 0.0)" width="14.0" xlink:href="#sprite20"/>
      <use height="1.0" transform="matrix(0.8571, 0.0, 0.0, 1.0, 1.0, 0.0)" width="14.0" xlink:href="#sprite20"/>
      <use height="1.0" transform="matrix(1.0, 0.0, 0.0, 1.0, 1.0, 0.0)" width="12.0" xlink:href="#shape2"/>
    </g>
    <g id="shape20" transform="matrix(1.0, 0.0, 0.0, 1.0, 0.0, 0.0)">
      <path d="M0.0 1.0 L0.0 0.0 14.0 0.0 14.0 1.0 0.0 1.0" fill="url(#gradient5)" fill-rule="evenodd" stroke="none"/>
    </g>
    <linearGradient gradientTransform="matrix(0.0068, 0.0, 0.0, 0.0016, 7.05, -0.25)" gradientUnits="userSpaceOnUse" id="gradient5" spreadMethod="pad" x1="-819.2" x2="819.2">
      <stop offset="0.0" stop-color="#ffffff" stop-opacity="0.2509804"/>
      <stop offset="1.0" stop-color="#2d2d2d" stop-opacity="0.3137255"/>
    </linearGradient>
    <g id="sprite24" transform="matrix(1.0, 0.0, 0.0, 1.0, -1.0, 0.0)">
      <use height="18.3" transform="matrix(0.765, 0.0, 0.0, 0.0546, 1.0, 0.0)" width="18.3" xlink:href="#shape1"/>
      <use height="1.0" transform="matrix(1.0, 0.0, 0.0, 1.0, 1.0, 0.0)" width="14.0" xlink:href="#sprite20"/>
      <use height="1.0" transform="matrix(1.0, 0.0, 0.0, 1.0, 1.0, 0.0)" width="14.0" xlink:href="#shape20"/>
      <use height="1.0" transform="matrix(0.9286, 0.0, 0.0, 1.0, 1.0, 0.0)" width="14.0" xlink:href="#sprite20"/>
      <use height="18.3" transform="matrix(0.7104, 0.0, 0.0, 0.0546, 1.0, 0.0)" width="18.3" xlink:href="#shape1"/>
      <use height="1.0" transform="matrix(0.8571, 0.0, 0.0, 1.0, 1.0, 0.0)" width="14.0" xlink:href="#sprite20"/>
      <use height="1.0" transform="matrix(1.0, 0.0, 0.0, 1.0, 1.0, 0.0)" width="12.0" xlink:href="#shape2"/>
    </g>
    <g id="sprite25" transform="matrix(1.0, 0.0, 0.0, 1.0, -1.0, 0.0)">
      <use height="18.3" transform="matrix(0.765, 0.0, 0.0, 0.0546, 1.0, 0.0)" width="18.3" xlink:href="#shape1"/>
      <use height="1.0" transform="matrix(1.0, 0.0, 0.0, 1.0, 1.0, 0.0)" width="14.0" xlink:href="#sprite20"/>
      <use height="1.0" transform="matrix(1.0, 0.0, 0.0, 1.0, 1.0, 0.0)" width="14.0" xlink:href="#shape20"/>
      <use height="1.0" transform="matrix(0.9286, 0.0, 0.0, 1.0, 1.0, 0.0)" width="14.0" xlink:href="#sprite26"/>
      <use height="1.0" transform="matrix(0.7508, 0.0, 0.0, 1.0, 1.0, 0.0)" width="16.0" xlink:href="#sprite27"/>
      <use height="1.0" transform="matrix(0.9986, 0.0, 0.0, 1.0, 1.0, 0.0)" width="12.0" xlink:href="#shape2"/>
    </g>
    <g id="sprite26" transform="matrix(1.0, 0.0, 0.0, 1.0, 0.0, 0.0)">
      <use height="18.3" transform="matrix(0.765, 0.0, 0.0, 0.0546, 0.0, 0.0)" width="18.3" xlink:href="#shape1"/>
    </g>
    <g id="sprite27" transform="matrix(1.0, 0.0, 0.0, 1.0, 0.0, 0.0)">
      <use height="1.0" transform="matrix(1.0, 0.0, 0.0, 1.0, 0.0, 0.0)" width="16.0" xlink:href="#shape21"/>
    </g>
    <g id="shape21" transform="matrix(1.0, 0.0, 0.0, 1.0, 0.0, 0.0)">
      <path d="M16.0 1.0 L0.0 1.0 0.0 0.0 16.0 0.0 16.0 1.0" fill="url(#gradient6)" fill-rule="evenodd" stroke="none"/>
    </g>
    <linearGradient gradientTransform="matrix(0.0098, 0.0, 0.0, 6.0E-4, 8.0, 0.5)" gradientUnits="userSpaceOnUse" id="gradient6" spreadMethod="pad" x1="-819.2" x2="819.2">
      <stop offset="0.4666666666666667" stop-color="#f7f7f7"/>
      <stop offset="1.0" stop-color="#f7f7f7"/>
    </linearGradient>
    <g id="sprite28" transform="matrix(1.0, 0.0, 0.0, 1.0, -1.0, 0.0)">
      <use height="18.3" transform="matrix(0.765, 0.0, 0.0, 0.0546, 1.0, 0.0)" width="18.3" xlink:href="#shape1"/>
      <use height="1.0" transform="matrix(1.0, 0.0, 0.0, 1.0, 1.0, 0.0)" width="14.0" xlink:href="#shape20"/>
      <use height="18.3" transform="matrix(0.7104, 0.0, 0.0, 0.0546, 1.0, 0.0)" width="18.3" xlink:href="#shape1"/>
      <use height="1.0" transform="matrix(1.0, 0.0, 0.0, 1.0, 1.0, 0.0)" width="12.0" xlink:href="#shape2"/>
    </g>
    <g id="sprite29" transform="matrix(1.0, 0.0, 0.0, 1.0, -1.0, 0.0)">
      <use height="5.0" transform="matrix(1.0, 0.0, 0.0, 1.0, 1.0, 0.0)" width="14.0" xlink:href="#shape11"/>
      <use height="5.0" transform="matrix(1.0, 0.0, 0.0, 1.0, 1.0, 0.0)" width="14.0" xlink:href="#shape12"/>
      <use height="4.0" transform="matrix(1.0, 0.0, 0.0, 1.0, 1.0, 1.0)" width="13.0" xlink:href="#shape13"/>
      <use height="3.0" transform="matrix(1.0, 0.0, 0.0, 1.0, 1.0, 2.0)" width="12.0" xlink:href="#shape14"/>
      <use height="3.0" transform="matrix(1.0, 0.0, 0.0, 1.0, 1.0, 2.0)" width="12.0" xlink:href="#shape15"/>
    </g>
    <g id="sprite30" transform="matrix(1.0, 0.0, 0.0, 1.0, -1.0, 0.0)">
      <use height="5.0" transform="matrix(1.0, 0.0, 0.0, 1.0, 1.0, 0.0)" width="14.0" xlink:href="#shape11"/>
      <use height="5.0" transform="matrix(1.0, 0.0, 0.0, 1.0, 1.0, 0.0)" width="14.0" xlink:href="#sprite14"/>
      <use height="5.0" transform="matrix(1.0, 0.0, 0.0, 1.0, 1.0, 0.0)" width="14.0" xlink:href="#shape12"/>
      <use height="4.0" transform="matrix(1.0, 0.0, 0.0, 1.0, 1.0, 1.0)" width="13.0" xlink:href="#shape13"/>
      <use height="3.0" transform="matrix(1.0, 0.0, 0.0, 1.0, 1.0, 2.0)" width="12.0" xlink:href="#shape14"/>
      <use height="3.0" transform="matrix(1.0, 0.0, 0.0, 1.0, 1.0, 2.0)" width="12.0" xlink:href="#sprite15"/>
      <use height="3.0" transform="matrix(1.0, 0.0, 0.0, 1.0, 1.0, 2.0)" width="12.0" xlink:href="#shape15"/>
    </g>
    <g id="sprite31" transform="matrix(1.0, 0.0, 0.0, 1.0, -1.0, 0.0)">
      <use height="5.0" transform="matrix(1.0, 0.0, 0.0, 1.0, 1.0, 0.0)" width="14.0" xlink:href="#shape11"/>
      <use height="5.0" transform="matrix(1.0, 0.0, 0.0, 1.0, 1.0, 0.0)" width="14.0" xlink:href="#sprite14"/>
      <use height="5.0" transform="matrix(1.0, 0.0, 0.0, 1.0, 1.0, 0.0)" width="14.0" xlink:href="#shape12"/>
      <use height="4.0" transform="matrix(1.0, 0.0, 0.0, 1.0, 1.0, 1.0)" width="13.0" xlink:href="#shape13"/>
      <use height="3.0" transform="matrix(1.0, 0.0, 0.0, 1.0, 1.0, 2.0)" width="12.0" xlink:href="#shape14"/>
      <use height="3.0" transform="matrix(1.0, 0.0, 0.0, 1.0, 1.0, 2.0)" width="12.0" xlink:href="#shape15"/>
    </g>
    <g id="sprite32" transform="matrix(1.0, 0.0, 0.0, 1.0, -1.0, 0.0)">
      <use height="5.0" transform="matrix(1.0, 0.0, 0.0, 1.0, 1.0, 0.0)" width="14.0" xlink:href="#shape11"/>
      <use height="5.0" transform="matrix(1.0, 0.0, 0.0, 1.0, 1.0, 0.0)" width="14.0" xlink:href="#shape12"/>
      <use height="4.0" transform="matrix(1.0, 0.0, 0.0, 1.0, 1.0, 1.0)" width="13.0" xlink:href="#shape13"/>
      <use height="3.0" transform="matrix(1.0, 0.0, 0.0, 1.0, 1.0, 2.0)" width="12.0" xlink:href="#shape14"/>
      <use height="3.0" transform="matrix(1.0, 0.0, 0.0, 1.0, 1.0, 2.0)" width="12.0" xlink:href="#shape15"/>
    </g>
    <g id="sprite33" transform="matrix(1.0, 0.0, 0.0, 1.0, 0.0, 0.0)">
      <use height="18.3" transform="matrix(0.8743, 0.0, 0.0, 0.2186, 0.0, 0.0)" width="18.3" xlink:href="#shape1"/>
      <use height="18.3" transform="matrix(0.8197, 0.0, 0.0, 0.2186, 0.0, 0.0)" width="18.3" xlink:href="#shape1"/>
      <use height="18.3" transform="matrix(0.765, 0.0, 0.0, 0.2186, 1.0, 0.0)" width="18.3" xlink:href="#shape1"/>
      <use height="1.0" transform="matrix(1.1667, 0.0, 0.0, 4.0, 1.0, 0.0)" width="12.0" xlink:href="#shape2"/>
    </g>
    <g id="sprite34" transform="matrix(1.0, 0.0, 0.0, 1.0, 0.0, 0.0)">
      <use height="4.0" transform="matrix(1.0, 0.0, 0.0, 1.0, 0.0, 12.0)" width="16.0" xlink:href="#sprite6"/>
      <use height="16.0" transform="matrix(1.0, 0.0, 0.0, 1.0, 0.0, 0.0)" width="16.0" xlink:href="#shape3"/>
      <use height="16.0" transform="matrix(-1.0, 0.0, 0.0, 1.0, 16.0, 0.0)" width="16.0" xlink:href="#shape4"/>
      <use height="14.0" transform="matrix(1.0, 0.0, 0.0, 1.0, 1.0, 1.0)" width="14.0" xlink:href="#shape5"/>
      <use height="14.0" transform="matrix(1.0, 0.0, 0.0, 1.0, 1.0, 1.0)" width="14.0" xlink:href="#shape6"/>
      <use height="4.0" transform="matrix(1.0, 0.0, 0.0, 1.0, 5.0, 6.0)" width="6.0" xlink:href="#shape7"/>
      <use height="1.0" transform="matrix(0.875, 0.0, 0.0, 1.0, 1.0, 1.0)" width="16.0" xlink:href="#shape21"/>
    </g>
    <g id="sprite35" transform="matrix(1.0, 0.0, 0.0, 1.0, 0.0, 0.0)">
      <use height="4.0" transform="matrix(1.0, 0.0, 0.0, 1.0, 0.0, 12.0)" width="16.0" xlink:href="#sprite6"/>
      <use height="4.0" transform="matrix(1.0, 0.0, 0.0, 1.0, 0.0, 0.0)" width="16.0" xlink:href="#sprite6"/>
      <use height="16.0" transform="matrix(1.0, 0.0, 0.0, 1.0, 0.0, 0.0)" width="16.0" xlink:href="#shape3"/>
      <use height="16.0" transform="matrix(1.0, 0.0, 0.0, 1.0, 0.0, 0.0)" width="16.0" xlink:href="#sprite8"/>
      <use height="16.0" transform="matrix(-1.0, 0.0, 0.0, 1.0, 16.0, 0.0)" width="16.0" xlink:href="#shape4"/>
      <use height="14.0" transform="matrix(1.0, 0.0, 0.0, 1.0, 1.0, 1.0)" width="14.0" xlink:href="#shape5"/>
      <use height="14.0" transform="matrix(-1.0, 0.0, 0.0, 1.0, 15.0, 1.0)" width="14.0" xlink:href="#shape6"/>
      <use height="4.0" transform="matrix(1.0, 0.0, 0.0, 1.0, 5.0, 6.0)" width="6.0" xlink:href="#shape7"/>
      <use height="14.0" transform="matrix(1.0, 0.0, 0.0, 1.0, 1.0, 1.0)" width="14.0" xlink:href="#sprite9"/>
      <use height="1.0" transform="matrix(0.875, 0.0, 0.0, 1.0, 1.0, 1.0)" width="16.0" xlink:href="#shape21"/>
    </g>
    <g id="sprite36" transform="matrix(1.0, 0.0, 0.0, 1.0, 0.0, 0.0)">
      <use height="4.0" transform="matrix(1.0, 0.0, 0.0, 1.0, 0.0, 12.0)" width="16.0" xlink:href="#sprite6"/>
      <use height="16.0" transform="matrix(1.0, 0.0, 0.0, 1.0, 0.0, 0.0)" width="16.0" xlink:href="#shape3"/>
      <use height="16.0" transform="matrix(1.0, 0.0, 0.0, 1.0, 0.0, 0.0)" width="16.0" xlink:href="#sprite8"/>
      <use height="16.0" transform="matrix(-1.0, 0.0, 0.0, 1.0, 16.0, 0.0)" width="16.0" xlink:href="#shape4"/>
      <use height="14.0" transform="matrix(1.0, 0.0, 0.0, 1.0, 1.0, 1.0)" width="14.0" xlink:href="#shape5"/>
      <use height="1.0" transform="matrix(0.875, 0.0, 0.0, 1.0, 1.0, 1.0)" width="16.0" xlink:href="#shape21"/>
      <use height="14.0" transform="matrix(1.0, 0.0, 0.0, 1.0, 1.0, 1.0)" width="14.0" xlink:href="#shape6"/>
      <use height="4.0" transform="matrix(1.0, 0.0, 0.0, 1.0, 5.0, 6.0)" width="6.0" xlink:href="#shape7"/>
    </g>
    <g id="sprite37" transform="matrix(1.0, 0.0, 0.0, 1.0, 0.0, 0.0)">
      <use height="4.0" transform="matrix(1.0, 0.0, 0.0, 1.0, 0.0, 12.0)" width="16.0" xlink:href="#sprite6"/>
      <use height="16.0" transform="matrix(1.0, 0.0, 0.0, 1.0, 0.0, 0.0)" width="16.0" xlink:href="#shape3"/>
      <use height="16.0" transform="matrix(-1.0, 0.0, 0.0, 1.0, 16.0, 0.0)" width="16.0" xlink:href="#shape4"/>
      <use height="14.0" transform="matrix(1.0, 0.0, 0.0, 1.0, 1.0, 1.0)" width="14.0" xlink:href="#shape5"/>
      <use height="14.0" transform="matrix(1.0, 0.0, 0.0, 1.0, 1.0, 1.0)" width="14.0" xlink:href="#shape6"/>
      <use height="4.0" transform="matrix(1.0, 0.0, 0.0, 1.0, 5.0, 6.0)" width="6.0" xlink:href="#shape7"/>
      <use height="1.0" transform="matrix(0.875, 0.0, 0.0, 1.0, 1.0, 1.0)" width="16.0" xlink:href="#shape21"/>
    </g>
    <g id="sprite38" transform="matrix(1.0, 0.0, 0.0, 1.0, 0.0, 0.0)">
      <use height="4.0" id="dfs" transform="matrix(1.0, 0.0, 0.0, 4.0, 0.0, 0.0)" width="16.0" xlink:href="#sprite6"/>
    </g>
    <g id="sprite39" transform="matrix(1.0, 0.0, 0.0, 1.0, 0.0, 0.0)">
      <use height="4.0" id="dfs" transform="matrix(1.0, 0.0, 0.0, 4.0, 0.0, 0.0)" width="16.0" xlink:href="#sprite6"/>
    </g>
  </defs>
</svg>
