<?xml version="1.0" encoding="UTF-8" standalone="no"?>
<svg xmlns:xlink="http://www.w3.org/1999/xlink" height="23.1px" width="53.0px" xmlns="http://www.w3.org/2000/svg">
  <g transform="matrix(1.0, 0.0, 0.0, 1.0, 26.45, 11.55)">
    <use height="23.1" transform="matrix(1.0, 0.0, 0.0, 1.0, -26.45, -11.55)" width="53.0" xlink:href="#shape0"/>
  </g>
  <defs>
    <g id="shape0" transform="matrix(1.0, 0.0, 0.0, 1.0, 26.45, 11.55)">
      <path d="M23.3 -5.0 L24.55 -4.45 24.65 -4.4 25.5 -3.85 25.6 -3.8 Q26.4 -3.15 26.5 -2.3 26.75 0.0 24.9 1.2 L24.85 1.25 23.55 2.0 22.75 3.2 22.65 3.35 Q21.9 4.1 20.75 4.3 L19.35 7.1 Q19.3 8.15 17.2 9.05 L17.15 9.1 16.95 9.15 15.05 9.8 15.0 9.8 14.6 9.9 14.65 9.85 13.5 10.15 12.8 10.3 12.65 10.35 12.7 10.35 7.95 11.1 4.8 11.4 4.75 11.4 3.9 11.45 3.0 11.5 -0.2 11.55 -1.4 11.55 -3.45 11.5 -3.8 11.45 -3.85 11.45 -6.15 11.3 -10.4 10.85 -10.45 10.85 -10.95 10.75 -13.05 10.35 -13.5 10.25 -13.6 10.25 -13.95 10.15 -15.85 9.65 -15.8 9.7 -16.05 9.6 -16.0 9.6 -16.85 9.35 Q-19.8 8.35 -19.8 7.1 L-21.9 2.9 Q-23.45 2.75 -24.7 1.8 -26.5 0.45 -26.45 -1.65 -26.5 -3.15 -25.4 -4.6 L-25.15 -4.8 -24.45 -5.15 -24.4 -5.15 -23.55 -5.35 Q-21.7 -7.95 -14.95 -9.75 -8.15 -11.55 -0.1 -11.55 8.05 -11.55 14.25 -9.75 20.3 -8.05 23.3 -5.0" fill="#333333" fill-rule="evenodd" stroke="none"/>
      <path d="M6.45 -9.45 L7.35 -9.05 7.55 -8.75 7.25 -8.55 5.95 -8.45 4.7 -8.55 Q4.15 -8.55 4.5 -9.0 4.9 -9.55 5.55 -9.6 L6.45 -9.45 M1.15 -7.75 Q1.45 -7.45 1.05 -7.3 L0.4 -7.15 0.2 -7.15 -1.15 -8.2 -1.2 -8.55 -0.85 -8.6 0.2 -8.35 Q0.85 -8.15 1.15 -7.75 M-4.85 -8.75 L-5.15 -8.7 -5.45 -8.5 -6.2 -8.3 -6.75 -8.6 -6.9 -8.75 -7.0 -8.8 -7.15 -9.1 -6.9 -9.3 Q-5.9 -9.6 -4.9 -9.3 L-4.65 -9.05 -4.85 -8.75" fill="#660000" fill-rule="evenodd" stroke="none"/>
      <path d="M5.55 -9.6 L-0.45 -10.0 -0.1 -10.0 Q7.85 -10.0 13.95 -8.25 19.7 -6.55 22.45 -3.65 24.85 -2.7 24.95 -2.1 25.15 -0.8 24.1 -0.1 L23.15 0.4 22.45 0.9 21.5 2.25 Q21.05 2.75 20.1 2.75 L18.85 2.5 18.75 2.45 17.8 2.05 Q16.45 1.35 15.55 1.35 L14.65 1.55 13.6 2.2 Q12.45 3.05 11.65 3.1 L10.25 3.0 8.3 2.6 4.95 2.15 3.5 2.35 2.25 2.75 -0.45 3.4 -1.85 3.3 -4.4 2.75 -7.9 2.15 -8.35 2.15 -9.95 2.35 -11.55 2.6 -13.7 2.2 -14.85 1.75 Q-16.85 0.9 -18.15 0.9 L-19.3 1.0 -19.7 1.1 -20.5 1.3 -21.3 1.35 Q-22.75 1.35 -23.75 0.55 -24.9 -0.35 -24.9 -1.65 -24.9 -2.65 -24.1 -3.65 L-23.05 -4.0 Q-21.6 -6.05 -16.65 -7.65 L-18.95 -6.55 Q-20.5 -5.8 -22.05 -4.35 -23.6 -2.95 -22.95 -1.25 -22.35 0.45 -19.25 -1.8 -16.15 -4.1 -13.3 -4.0 -16.65 0.6 -13.3 -0.15 -9.95 -1.0 -9.1 -1.45 L-7.05 -1.85 Q-5.85 -1.85 -3.65 -0.25 L0.35 -0.15 Q2.15 -1.7 3.8 -1.45 5.4 -1.25 8.4 0.3 11.45 1.85 12.95 -0.4 14.45 -2.65 14.45 -2.35 20.55 1.3 22.3 -1.5 L22.0 -3.65 Q21.95 -4.65 18.9 -6.1 L13.5 -8.05 6.45 -9.45 5.55 -9.6" fill="#e6a600" fill-rule="evenodd" stroke="none"/>
      <path d="M5.55 -9.6 Q4.9 -9.55 4.5 -9.0 4.15 -8.55 4.7 -8.55 L5.95 -8.45 7.25 -8.55 7.55 -8.75 7.35 -9.05 6.45 -9.45 13.5 -8.05 18.9 -6.1 Q21.95 -4.65 22.0 -3.65 L22.3 -1.5 Q20.55 1.3 14.45 -2.35 14.45 -2.65 12.95 -0.4 11.45 1.85 8.4 0.3 5.4 -1.25 3.8 -1.45 2.15 -1.7 0.35 -0.15 L-3.65 -0.25 Q-5.85 -1.85 -7.05 -1.85 L-9.1 -1.45 Q-9.95 -1.0 -13.3 -0.15 -16.65 0.6 -13.3 -4.0 -16.15 -4.1 -19.25 -1.8 -22.35 0.45 -22.95 -1.25 -23.6 -2.95 -22.05 -4.35 -20.5 -5.8 -18.95 -6.55 L-16.65 -7.65 -14.85 -8.2 -14.65 -8.25 Q-10.3 -9.8 -3.5 -9.95 L-0.8 -10.0 -0.45 -10.0 5.55 -9.6 M1.15 -7.75 Q0.85 -8.15 0.2 -8.35 L-0.85 -8.6 -1.2 -8.55 -1.15 -8.2 0.2 -7.15 0.4 -7.15 1.05 -7.3 Q1.45 -7.45 1.15 -7.75 M-4.85 -8.75 L-4.65 -9.05 -4.9 -9.3 Q-5.9 -9.6 -6.9 -9.3 L-7.15 -9.1 -7.0 -8.8 -6.9 -8.75 -6.75 -8.6 -6.2 -8.3 -5.45 -8.5 -5.15 -8.7 -4.85 -8.75" fill="#e6c745" fill-rule="evenodd" stroke="none"/>
      <path d="M-0.45 -10.0 L-0.8 -10.0 -3.5 -9.95 Q-10.3 -9.8 -14.65 -8.25 L-14.85 -8.2 -16.65 -7.65 Q-21.6 -6.05 -23.05 -4.0 L-24.1 -3.65 Q-24.9 -2.65 -24.9 -1.65 -24.9 -0.35 -23.75 0.55 -22.75 1.35 -21.3 1.35 L-20.5 1.3 -19.7 1.1 -19.3 1.0 -18.15 0.9 Q-16.85 0.9 -14.85 1.75 L-13.7 2.2 -11.55 2.6 -9.95 2.35 -8.35 2.15 -7.9 2.15 -4.4 2.75 -1.85 3.3 -0.45 3.4 2.25 2.75 3.5 2.35 4.95 2.15 8.3 2.6 10.25 3.0 11.65 3.1 Q12.45 3.05 13.6 2.2 L14.65 1.55 15.55 1.35 Q16.45 1.35 17.8 2.05 L18.75 2.45 18.85 2.5 20.1 2.75 Q21.05 2.75 21.5 2.25 L22.45 0.9 23.15 0.4 24.1 -0.1 Q25.15 -0.8 24.95 -2.1 24.85 -2.7 22.45 -3.65 19.7 -6.55 13.95 -8.25 7.85 -10.0 -0.1 -10.0 L-0.45 -10.0 M-21.25 1.9 L-21.3 1.9 Q-22.9 1.9 -24.1 1.0 -25.45 -0.05 -25.45 -1.65 -25.5 -2.85 -24.6 -4.0 L-24.25 -4.2 -22.9 -4.45 Q-21.4 -7.0 -14.7 -8.75 -8.05 -10.55 -0.1 -10.55 7.9 -10.6 14.0 -8.8 19.85 -7.15 22.75 -4.15 L24.15 -3.55 24.95 -3.0 Q25.4 -2.65 25.5 -2.15 25.7 -0.5 24.35 0.4 L22.85 1.25 21.9 2.65 Q21.25 3.3 20.1 3.35 L19.65 3.3 19.5 3.3 19.05 3.2 18.65 3.1 18.65 3.05 17.55 2.6 Q16.35 1.9 15.55 1.9 15.1 1.9 14.45 2.3 L13.9 2.65 13.5 3.0 12.95 3.35 11.65 3.65 8.15 3.15 4.95 2.7 3.5 2.95 2.45 3.3 1.15 3.75 -0.45 3.95 -1.8 3.9 -2.65 3.75 -4.55 3.35 -7.7 2.75 -8.35 2.7 -9.85 2.9 -10.65 3.1 -11.55 3.15 -13.4 2.9 -13.5 2.9 -15.1 2.25 Q-16.95 1.45 -18.15 1.45 L-19.0 1.55 -19.6 1.65 -20.25 1.85 -20.6 1.9 -21.25 1.9" fill="#cc6600" fill-rule="evenodd" stroke="none"/>
      <path d="M-20.25 1.85 L-19.6 1.65 -19.0 1.55 -18.15 1.45 Q-16.95 1.45 -15.1 2.25 L-13.5 2.9 -13.4 2.9 -11.55 3.15 -10.65 3.1 -9.85 2.9 -8.35 2.7 -7.7 2.75 -4.55 3.35 -2.65 3.75 -1.8 3.9 -0.45 3.95 1.15 3.75 2.45 3.3 3.5 2.95 4.95 2.7 8.15 3.15 11.65 3.65 12.95 3.35 13.5 3.0 13.9 2.65 14.45 2.3 Q15.1 1.9 15.55 1.9 16.35 1.9 17.55 2.6 L18.65 3.05 17.05 7.4 16.9 7.45 16.6 7.6 13.5 8.6 13.55 8.45 15.0 5.55 Q15.6 4.4 15.8 3.1 L15.65 3.3 15.3 4.0 15.05 4.55 14.05 6.5 12.85 8.75 12.6 8.8 12.05 8.9 8.05 9.55 4.85 9.8 4.95 9.2 5.15 8.25 5.6 5.35 5.6 5.3 5.95 3.3 5.85 3.35 5.65 3.9 5.3 5.05 5.05 5.95 4.2 8.9 4.1 9.25 3.95 9.85 3.05 9.9 -0.2 9.95 -1.4 9.95 -3.7 9.65 -3.65 9.55 -3.95 8.45 -4.6 6.3 -4.95 5.25 -5.15 4.55 -5.45 3.65 Q-5.5 3.45 -5.65 3.7 L-5.15 5.75 -5.1 5.95 -4.25 9.65 -4.2 9.85 -6.2 9.75 -6.95 9.7 -11.0 9.2 -13.05 8.8 -13.35 8.0 -14.85 4.7 -15.8 2.95 -15.35 4.1 -15.2 4.5 -14.65 6.15 -13.9 8.05 -13.6 8.7 -13.65 8.65 -16.0 8.0 -16.95 7.65 -20.25 1.85 M13.25 6.4 L13.0 7.6 13.05 7.6 13.25 6.4" fill="#666666" fill-rule="evenodd" stroke="none"/>
      <path d="M20.1 3.35 L18.35 6.85 18.35 6.9 Q18.3 7.5 16.75 8.15 L16.6 8.25 14.8 8.8 14.35 8.9 13.3 9.2 13.25 9.2 12.6 9.35 12.45 9.35 7.85 10.1 4.7 10.4 3.85 10.45 2.95 10.5 -0.2 10.55 -1.4 10.55 -3.4 10.5 -3.75 10.45 -6.1 10.3 -10.3 9.85 -10.8 9.75 -12.85 9.4 -13.35 9.3 -13.75 9.2 -15.55 8.7 -15.75 8.65 -16.5 8.4 Q-18.8 7.65 -18.8 6.85 L-21.25 1.9 -20.6 1.9 -18.25 6.7 -18.2 6.8 -18.2 6.85 Q-18.25 7.1 -17.05 7.6 L-16.95 7.65 -16.0 8.0 -13.65 8.65 -13.6 8.7 -13.9 8.05 -14.65 6.15 -15.2 4.5 -15.35 4.1 -15.8 2.95 -14.85 4.7 -13.35 8.0 -13.05 8.8 -11.0 9.2 -6.95 9.7 -6.2 9.75 -4.2 9.85 -4.25 9.65 -5.1 5.95 -5.15 5.75 -5.65 3.7 Q-5.5 3.45 -5.45 3.65 L-5.15 4.55 -4.95 5.25 -4.6 6.3 -3.95 8.45 -3.65 9.55 -3.7 9.65 -1.4 9.95 -0.2 9.95 3.05 9.9 3.95 9.85 4.1 9.25 4.2 8.9 5.05 5.95 5.3 5.05 5.65 3.9 5.85 3.35 5.95 3.3 5.6 5.3 5.6 5.35 5.15 8.25 4.95 9.2 4.85 9.8 8.05 9.55 12.05 8.9 12.6 8.8 12.85 8.75 14.05 6.5 15.05 4.55 15.3 4.0 15.65 3.3 15.8 3.1 Q15.6 4.4 15.0 5.55 L13.55 8.45 13.5 8.6 16.6 7.6 16.9 7.45 17.05 7.4 17.7 7.0 17.8 6.85 17.8 6.8 17.85 6.6 19.5 3.3 19.65 3.3 20.1 3.35" fill="#333333" fill-rule="evenodd" stroke="none"/>
      <path d="M-20.6 1.9 L-20.25 1.85 -16.95 7.65 -17.05 7.6 Q-18.25 7.1 -18.2 6.85 L-18.2 6.8 -18.25 6.7 -20.6 1.9 M18.65 3.05 L18.65 3.1 19.05 3.2 19.5 3.3 17.85 6.6 17.8 6.8 17.8 6.85 17.7 7.0 17.05 7.4 18.65 3.05 M13.25 6.4 L13.05 7.6 13.0 7.6 13.25 6.4" fill="#999999" fill-rule="evenodd" stroke="none"/>
    </g>
  </defs>
</svg>
