<?xml version="1.0" encoding="UTF-8" standalone="no"?>
<svg xmlns:xlink="http://www.w3.org/1999/xlink" height="28.55px" width="40.55px" xmlns="http://www.w3.org/2000/svg">
  <g transform="matrix(1.0, 0.0, 0.0, 1.0, 15.5, 16.85)">
    <use height="13.8" transform="matrix(1.7135, 0.0, 0.0, 1.1812, -15.503, -4.6395)" width="8.55" xlink:href="#shape0"/>
    <use height="14.65" transform="matrix(0.8753, -0.1353, 0.1353, 0.8753, 7.8548, -10.7506)" width="6.45" xlink:href="#shape1"/>
    <use height="14.65" transform="matrix(0.6534, -0.101, 0.101, 0.6534, 2.5171, -7.9293)" width="6.45" xlink:href="#shape1"/>
    <use height="14.65" transform="matrix(0.4251, -0.0657, 0.0657, 0.4251, -0.9934, -4.7645)" width="6.45" xlink:href="#shape1"/>
    <use height="14.65" transform="matrix(0.3801, -0.0587, 0.0587, 0.3801, -5.0478, -2.8554)" width="6.45" xlink:href="#shape1"/>
  </g>
  <defs>
    <g id="shape0" transform="matrix(1.0, 0.0, 0.0, 1.0, 13.6, 2.15)">
      <path d="M-8.8 10.9 L-6.15 4.7 Q-4.25 0.15 -7.15 -1.05 -10.1 -2.35 -12.85 -1.5 L-12.75 -1.95 -7.35 -1.65 Q-3.85 -0.9 -5.7 4.0 L-8.55 10.9 -8.8 10.9" fill="#000000" fill-rule="evenodd" stroke="none"/>
      <path d="M-12.85 -1.5 Q-10.1 -2.35 -7.15 -1.05 -4.25 0.15 -6.15 4.7 L-8.8 10.9 Q-11.8 12.4 -13.6 10.9 -13.75 4.65 -12.85 -1.5" fill="#ccffff" fill-rule="evenodd" stroke="none"/>
    </g>
    <g id="shape1" transform="matrix(1.0, 0.0, 0.0, 1.0, 3.2, 7.35)">
      <path d="M-2.25 -5.25 Q-1.3 -7.35 0.05 -7.35 1.35 -7.35 2.3 -5.25 3.25 -3.1 3.25 -0.05 3.25 3.0 2.3 5.15 1.35 7.3 0.05 7.3 -1.3 7.3 -2.25 5.15 -3.2 3.0 -3.2 -0.05 -3.2 -3.1 -2.25 -5.25" fill="#000000" fill-rule="evenodd" stroke="none"/>
    </g>
  </defs>
</svg>
