<?xml version="1.0" encoding="UTF-8" standalone="no"?>
<svg xmlns:xlink="http://www.w3.org/1999/xlink" height="28.55px" width="40.55px" xmlns="http://www.w3.org/2000/svg">
  <g transform="matrix(1.0, 0.0, 0.0, 1.0, 15.5, 16.85)">
    <use height="13.8" transform="matrix(1.4282, 0.0, 0.0, 1.1086, -14.7232, -3.6334)" width="8.55" xlink:href="#shape0"/>
    <use height="14.65" transform="matrix(1.043, -0.1612, 0.1612, 1.043, 15.9775, -15.8006)" width="6.45" xlink:href="#shape1"/>
    <use height="14.65" transform="matrix(0.7786, -0.1203, 0.1203, 0.7786, 9.6242, -11.6877)" width="6.45" xlink:href="#shape1"/>
    <use height="14.65" transform="matrix(0.5066, -0.0783, 0.0783, 0.5066, 5.4034, -7.923)" width="6.45" xlink:href="#shape1"/>
    <use height="14.65" transform="matrix(0.4529, -0.07, 0.07, 0.4529, 0.5863, -5.6547)" width="6.45" xlink:href="#shape1"/>
    <use height="14.65" transform="matrix(0.3082, -0.0476, 0.0476, 0.3082, -2.3364, -3.4129)" width="6.45" xlink:href="#shape1"/>
  </g>
  <defs>
    <g id="shape0" transform="matrix(1.0, 0.0, 0.0, 1.0, 13.6, 2.15)">
      <path d="M-8.8 10.9 L-6.15 4.7 Q-4.25 0.15 -7.15 -1.05 -10.1 -2.35 -12.85 -1.5 L-12.75 -1.95 -7.35 -1.65 Q-3.85 -0.9 -5.7 4.0 L-8.55 10.9 -8.8 10.9" fill="#000000" fill-rule="evenodd" stroke="none"/>
      <path d="M-12.85 -1.5 Q-10.1 -2.35 -7.15 -1.05 -4.25 0.15 -6.15 4.7 L-8.8 10.9 Q-11.8 12.4 -13.6 10.9 -13.75 4.65 -12.85 -1.5" fill="#ccffff" fill-rule="evenodd" stroke="none"/>
    </g>
    <g id="shape1" transform="matrix(1.0, 0.0, 0.0, 1.0, 3.2, 7.35)">
      <path d="M-2.25 -5.25 Q-1.3 -7.35 0.05 -7.35 1.35 -7.35 2.3 -5.25 3.25 -3.1 3.25 -0.05 3.25 3.0 2.3 5.15 1.35 7.3 0.05 7.3 -1.3 7.3 -2.25 5.15 -3.2 3.0 -3.2 -0.05 -3.2 -3.1 -2.25 -5.25" fill="#000000" fill-rule="evenodd" stroke="none"/>
    </g>
  </defs>
</svg>
