<?xml version="1.0" encoding="UTF-8" standalone="no"?>
<svg xmlns:xlink="http://www.w3.org/1999/xlink" height="160.1px" width="160.1px" xmlns="http://www.w3.org/2000/svg">
  <g transform="matrix(1.0, 0.0, 0.0, 1.0, 80.05, 80.05)">
    <use height="160.1" transform="matrix(1.0, 0.0, 0.0, 1.0, -80.05, -80.05)" width="160.1" xlink:href="#shape0"/>
  </g>
  <defs>
    <g id="shape0" transform="matrix(1.0, 0.0, 0.0, 1.0, 80.05, 80.05)">
      <path d="M-56.6 -56.6 Q-33.15 -80.05 0.0 -80.05 33.15 -80.05 56.6 -56.6 80.05 -33.15 80.05 0.0 80.05 33.15 56.6 56.6 33.15 80.05 0.0 80.05 -33.15 80.05 -56.6 56.6 -80.05 33.15 -80.05 0.0 -80.05 -33.15 -56.6 -56.6 M-51.1 -51.05 Q-72.25 -29.9 -72.25 0.0 -72.25 29.95 -51.1 51.1 -29.95 72.25 0.0 72.25 29.9 72.25 51.1 51.1 72.25 29.95 72.25 0.0 72.25 -29.9 51.1 -51.05 29.9 -72.25 0.0 -72.2 -29.95 -72.25 -51.1 -51.05" fill="#fb0200" fill-rule="evenodd" stroke="none"/>
      <path d="M-51.1 -51.05 Q-29.95 -72.25 0.0 -72.2 29.9 -72.25 51.1 -51.05 72.25 -29.9 72.25 0.0 72.25 29.95 51.1 51.1 29.9 72.25 0.0 72.25 -29.95 72.25 -51.1 51.1 -72.25 29.95 -72.25 0.0 -72.25 -29.9 -51.1 -51.05" fill="#ffffff" fill-rule="evenodd" stroke="none"/>
      <path d="M-16.55 -54.9 L-4.75 -54.4 -0.05 -65.2 3.1 -53.8 14.85 -52.65 4.95 -46.15 7.55 -34.65 -1.65 -41.95 -11.85 -36.0 -7.65 -47.1 -16.55 -54.9" fill="#1e1fad" fill-rule="evenodd" stroke="none"/>
      <path d="M-16.55 45.1 L-4.75 45.6 -0.05 34.8 3.1 46.2 14.85 47.35 4.95 53.85 7.55 65.35 -1.65 58.05 -11.85 64.0 -7.65 52.9 -16.55 45.1" fill="#1e1fad" fill-rule="evenodd" stroke="none"/>
      <path d="M-66.55 -4.9 L-54.75 -4.4 -50.05 -15.2 -46.9 -3.8 -35.15 -2.65 -45.05 3.85 -42.45 15.35 -51.65 8.05 -61.85 14.0 -57.65 2.9 -66.55 -4.9" fill="#1e1fad" fill-rule="evenodd" stroke="none"/>
      <path d="M31.45 -4.9 L43.25 -4.4 47.95 -15.2 51.1 -3.8 62.85 -2.65 52.95 3.85 55.55 15.35 46.35 8.05 36.15 14.0 40.35 2.9 31.45 -4.9" fill="#1e1fad" fill-rule="evenodd" stroke="none"/>
    </g>
  </defs>
</svg>
