<?xml version="1.0" encoding="UTF-8" standalone="no"?>
<svg xmlns:xlink="http://www.w3.org/1999/xlink" height="93.35px" width="137.35px" xmlns="http://www.w3.org/2000/svg">
  <g transform="matrix(1.0, 0.0, 0.0, 1.0, -13.0, -3.8)">
    <use height="34.15" transform="matrix(0.3516, 0.0, 0.0, 0.3516, 16.7891, 4.9941)" width="34.0" xlink:href="#shape0"/>
    <use height="24.95" transform="matrix(0.3516, 0.0, 0.0, 0.3516, 28.568, 8.5449)" width="27.9" xlink:href="#shape1"/>
    <use height="24.2" transform="matrix(0.3516, 0.0, 0.0, 0.3516, 39.4344, 8.8438)" width="24.75" xlink:href="#shape2"/>
    <use height="24.8" transform="matrix(0.3516, 0.0, 0.0, 0.3516, 53.0504, 8.6152)" width="25.55" xlink:href="#shape3"/>
    <use height="24.75" transform="matrix(0.3516, 0.0, 0.0, 0.3516, 62.768, 8.5801)" width="27.1" xlink:href="#shape4"/>
    <use height="23.5" transform="matrix(0.3516, 0.0, 0.0, 0.3516, 73.6344, 8.7383)" width="17.4" xlink:href="#shape5"/>
    <use height="23.7" transform="matrix(0.3516, 0.0, 0.0, 0.3516, 80.4344, 8.668)" width="24.5" xlink:href="#shape6"/>
    <use height="24.8" transform="matrix(0.3516, 0.0, 0.0, 0.3516, 90.0504, 8.6152)" width="25.55" xlink:href="#shape3"/>
    <use height="38.35" transform="matrix(0.3516, 0.0, 0.0, 0.3516, 99.768, 3.7988)" width="27.1" xlink:href="#shape7"/>
    <use height="36.95" transform="matrix(0.3516, 0.0, 0.0, 0.3516, 114.0246, 4.5547)" width="27.35" xlink:href="#shape8"/>
    <use height="36.7" transform="matrix(0.3516, 0.0, 0.0, 0.3516, 124.0664, 4.5547)" width="28.9" xlink:href="#shape9"/>
    <use height="36.7" transform="matrix(0.3516, 0.0, 0.0, 0.3516, 134.2664, 4.5547)" width="28.9" xlink:href="#shape9"/>
    <use height="35.6" transform="matrix(0.3516, 0.0, 0.0, 0.3516, 12.9844, 27.5801)" width="27.1" xlink:href="#shape10"/>
    <use height="24.95" transform="matrix(0.3516, 0.0, 0.0, 0.3516, 23.218, 27.5449)" width="27.9" xlink:href="#shape1"/>
    <use height="36.7" transform="matrix(0.3516, 0.0, 0.0, 0.3516, 33.9086, 23.0977)" width="9.2" xlink:href="#shape11"/>
    <use height="23.7" transform="matrix(0.3516, 0.0, 0.0, 0.3516, 38.3344, 27.668)" width="24.5" xlink:href="#shape6"/>
    <use height="30.15" transform="matrix(0.3516, 0.0, 0.0, 0.3516, 47.6867, 25.4004)" width="15.55" xlink:href="#shape12"/>
    <use height="24.9" transform="matrix(0.3516, 0.0, 0.0, 0.3516, 53.1422, 27.5625)" width="20.3" xlink:href="#shape13"/>
    <use height="35.15" transform="matrix(0.3516, 0.0, 0.0, 0.3516, 61.3629, 23.9941)" width="10.6" xlink:href="#shape14"/>
    <use height="34.15" transform="matrix(0.3516, 0.0, 0.0, 0.3516, 69.3391, 23.9941)" width="34.0" xlink:href="#shape0"/>
    <use height="24.95" transform="matrix(0.3516, 0.0, 0.0, 0.3516, 81.118, 27.5449)" width="27.9" xlink:href="#shape1"/>
    <use height="24.2" transform="matrix(0.3516, 0.0, 0.0, 0.3516, 91.9844, 27.8438)" width="24.75" xlink:href="#shape2"/>
    <use height="23.5" transform="matrix(0.3516, 0.0, 0.0, 0.3516, 102.0344, 27.7383)" width="17.4" xlink:href="#shape5"/>
    <use height="34.15" transform="matrix(0.3516, 0.0, 0.0, 0.3516, 111.873, 23.9941)" width="23.45" xlink:href="#shape15"/>
    <use height="24.95" transform="matrix(0.3516, 0.0, 0.0, 0.3516, 120.318, 27.5449)" width="27.9" xlink:href="#shape1"/>
    <use height="24.95" transform="matrix(0.3516, 0.0, 0.0, 0.3516, 130.868, 27.5449)" width="27.9" xlink:href="#shape1"/>
    <use height="23.7" transform="matrix(0.3516, 0.0, 0.0, 0.3516, 141.7344, 27.668)" width="24.5" xlink:href="#shape6"/>
    <use height="24.9" transform="matrix(0.3516, 0.0, 0.0, 0.3516, 18.4922, 46.5625)" width="20.3" xlink:href="#shape13"/>
    <use height="37.5" transform="matrix(0.3516, 0.0, 0.0, 0.3516, 26.4844, 41.8164)" width="28.75" xlink:href="#shape16"/>
    <use height="36.7" transform="matrix(0.3516, 0.0, 0.0, 0.3516, 36.8086, 42.0977)" width="9.2" xlink:href="#shape11"/>
    <use height="6.8" transform="matrix(0.2226, 0.0, 0.0, 1.9388, 41.25, 41.8491)" width="12.95" xlink:href="#shape17"/>
    <use height="6.8" transform="matrix(0.2226, 0.0, 0.0, 1.9388, 45.5, 41.8491)" width="12.95" xlink:href="#shape17"/>
    <use height="24.9" transform="matrix(0.3516, 0.0, 0.0, 0.3516, 49.2422, 46.5625)" width="20.3" xlink:href="#shape13"/>
    <use height="24.9" transform="matrix(0.3516, 0.0, 0.0, 0.3516, 60.6422, 46.5625)" width="20.3" xlink:href="#shape13"/>
    <use height="24.75" transform="matrix(0.3516, 0.0, 0.0, 0.3516, 68.318, 46.5801)" width="27.1" xlink:href="#shape4"/>
    <use height="23.2" transform="matrix(0.3516, 0.0, 0.0, 0.3516, 78.2, 46.8438)" width="29.55" xlink:href="#shape18"/>
    <use height="24.8" transform="matrix(0.3516, 0.0, 0.0, 0.3516, 88.6504, 46.6152)" width="25.55" xlink:href="#shape3"/>
    <use height="38.35" transform="matrix(0.3516, 0.0, 0.0, 0.3516, 98.368, 41.7988)" width="27.1" xlink:href="#shape7"/>
    <use height="35.85" transform="matrix(0.3516, 0.0, 0.0, 0.3516, 112.8707, 42.7129)" width="25.2" xlink:href="#shape19"/>
    <use height="36.7" transform="matrix(0.3516, 0.0, 0.0, 0.3516, 122.6586, 42.0977)" width="9.2" xlink:href="#shape11"/>
    <use height="6.8" transform="matrix(0.2226, 0.0, 0.0, 1.9388, 127.1, 41.8491)" width="12.95" xlink:href="#shape17"/>
    <use height="6.8" transform="matrix(0.2226, 0.0, 0.0, 1.9388, 131.35, 41.8491)" width="12.95" xlink:href="#shape17"/>
    <use height="34.85" transform="matrix(0.3516, 0.0, 0.0, 0.3516, 134.6, 46.8438)" width="31.15" xlink:href="#shape20"/>
    <use height="35.85" transform="matrix(0.3516, 0.0, 0.0, 0.3516, 22.7207, 61.7129)" width="25.2" xlink:href="#shape19"/>
    <use height="30.15" transform="matrix(0.3516, 0.0, 0.0, 0.3516, 32.0867, 63.4004)" width="15.55" xlink:href="#shape12"/>
    <use height="23.5" transform="matrix(0.3516, 0.0, 0.0, 0.3516, 38.0344, 65.7383)" width="17.4" xlink:href="#shape5"/>
    <use height="24.8" transform="matrix(0.3516, 0.0, 0.0, 0.3516, 44.5004, 65.6152)" width="25.55" xlink:href="#shape3"/>
    <use height="24.8" transform="matrix(0.3516, 0.0, 0.0, 0.3516, 54.2004, 65.6152)" width="25.55" xlink:href="#shape3"/>
    <use height="30.15" transform="matrix(0.3516, 0.0, 0.0, 0.3516, 63.6367, 63.4004)" width="15.55" xlink:href="#shape12"/>
    <use height="38.05" transform="matrix(0.3516, 0.0, 0.0, 0.3516, 72.6934, 60.623)" width="16.9" xlink:href="#shape21"/>
    <use height="23.5" transform="matrix(0.3516, 0.0, 0.0, 0.3516, 79.1344, 65.7383)" width="17.4" xlink:href="#shape5"/>
    <use height="24.95" transform="matrix(0.3516, 0.0, 0.0, 0.3516, 85.618, 65.5449)" width="27.9" xlink:href="#shape1"/>
    <use height="23.6" transform="matrix(0.3516, 0.0, 0.0, 0.3516, 96.4844, 65.7031)" width="39.25" xlink:href="#shape22"/>
    <use height="30.15" transform="matrix(0.3516, 0.0, 0.0, 0.3516, 114.9867, 63.4004)" width="15.55" xlink:href="#shape12"/>
    <use height="37.55" transform="matrix(0.3516, 0.0, 0.0, 0.3516, 120.9344, 60.7988)" width="24.5" xlink:href="#shape23"/>
    <use height="24.8" transform="matrix(0.3516, 0.0, 0.0, 0.3516, 130.5504, 65.6152)" width="25.55" xlink:href="#shape3"/>
    <use height="24.8" transform="matrix(0.3516, 0.0, 0.0, 0.3516, 43.6504, 84.6152)" width="25.55" xlink:href="#shape3"/>
    <use height="23.2" transform="matrix(0.3516, 0.0, 0.0, 0.3516, 52.7, 84.8438)" width="29.55" xlink:href="#shape18"/>
    <use height="36.7" transform="matrix(0.3516, 0.0, 0.0, 0.3516, 63.3086, 80.0977)" width="9.2" xlink:href="#shape11"/>
    <use height="6.8" transform="matrix(0.2226, 0.0, 0.0, 1.9388, 67.75, 79.8491)" width="12.95" xlink:href="#shape17"/>
    <use height="35.8" transform="matrix(0.3516, 0.0, 0.0, 0.3516, 75.6207, 80.748)" width="26.15" xlink:href="#shape24"/>
    <use height="24.95" transform="matrix(0.3516, 0.0, 0.0, 0.3516, 85.568, 84.5449)" width="27.9" xlink:href="#shape1"/>
    <use height="35.6" transform="matrix(0.3516, 0.0, 0.0, 0.3516, 96.118, 84.6152)" width="26.9" xlink:href="#shape25"/>
    <use height="24.9" transform="matrix(0.3516, 0.0, 0.0, 0.3516, 106.4422, 84.5625)" width="20.3" xlink:href="#shape13"/>
    <use height="35.15" transform="matrix(0.3516, 0.0, 0.0, 0.3516, 114.6629, 80.9941)" width="10.6" xlink:href="#shape14"/>
  </g>
  <defs>
    <g id="shape0" transform="matrix(1.0, 0.0, 0.0, 1.0, 0.6, 34.15)">
      <path d="M10.0 -34.15 L16.45 -24.8 22.65 -34.15 33.4 -34.15 20.6 -16.35 20.6 0.0 11.75 0.0 11.75 -16.35 -0.6 -34.15 10.0 -34.15" fill="#ffffff" fill-rule="evenodd" stroke="none"/>
    </g>
    <g id="shape1" transform="matrix(1.0, 0.0, 0.0, 1.0, -1.9, 24.05)">
      <path d="M3.7 -18.05 Q5.5 -20.85 8.6 -22.45 11.75 -24.05 15.9 -24.05 20.0 -24.05 23.1 -22.45 26.25 -20.85 28.0 -18.05 29.8 -15.3 29.8 -11.6 29.8 -7.9 28.0 -5.1 26.25 -2.3 23.1 -0.75 20.0 0.85 15.9 0.9 11.75 0.85 8.6 -0.75 5.5 -2.3 3.7 -5.1 1.95 -7.9 1.9 -11.6 1.95 -15.3 3.7 -18.05 M15.9 -17.0 Q13.6 -16.95 12.1 -15.45 10.6 -13.95 10.55 -11.65 10.6 -9.4 12.1 -7.9 13.6 -6.4 15.9 -6.35 18.15 -6.4 19.6 -7.9 21.1 -9.4 21.15 -11.65 21.1 -13.95 19.6 -15.45 18.15 -16.95 15.9 -17.0" fill="#ffffff" fill-rule="evenodd" stroke="none"/>
    </g>
    <g id="shape2" transform="matrix(1.0, 0.0, 0.0, 1.0, -2.8, 23.2)">
      <path d="M6.0 -1.4 Q2.85 -3.8 2.8 -8.45 L2.8 -23.2 11.0 -23.2 11.0 -10.0 Q11.0 -7.9 12.05 -6.85 13.1 -5.75 15.2 -5.75 17.3 -5.75 18.35 -6.85 19.35 -7.9 19.35 -10.0 L19.35 -23.2 27.55 -23.2 27.55 -8.45 Q27.55 -3.8 24.4 -1.4 21.25 0.95 15.2 1.0 9.15 0.95 6.0 -1.4" fill="#ffffff" fill-rule="evenodd" stroke="none"/>
    </g>
    <g id="shape3" transform="matrix(1.0, 0.0, 0.0, 1.0, -1.85, 23.85)">
      <path d="M3.45 -17.95 Q5.0 -20.75 7.8 -22.3 10.65 -23.85 14.5 -23.85 20.6 -23.8 23.95 -20.5 27.35 -17.15 27.4 -11.15 L27.4 -10.1 10.15 -10.1 Q10.2 -7.45 11.45 -6.15 12.7 -4.85 15.25 -4.85 16.6 -4.8 17.5 -5.35 18.45 -5.85 19.15 -7.05 L27.05 -7.05 Q25.9 -3.1 22.9 -1.1 19.95 0.95 15.35 0.95 11.2 0.9 8.2 -0.6 5.2 -2.1 3.55 -4.85 1.9 -7.6 1.85 -11.35 1.9 -15.2 3.45 -17.95 M10.35 -14.85 L19.8 -14.85 Q19.35 -16.6 18.1 -17.6 16.85 -18.55 15.1 -18.6 13.1 -18.6 11.9 -17.6 10.7 -16.65 10.35 -14.85" fill="#ffffff" fill-rule="evenodd" stroke="none"/>
    </g>
    <g id="shape4" transform="matrix(1.0, 0.0, 0.0, 1.0, -1.9, 23.95)">
      <path d="M13.6 -23.95 Q15.8 -23.95 17.55 -23.25 19.3 -22.5 20.8 -20.95 L20.8 -23.2 29.0 -23.2 29.0 0.0 20.8 0.0 20.8 -2.55 Q19.45 -0.8 17.7 0.0 15.95 0.8 13.65 0.8 10.3 0.75 7.65 -0.9 5.0 -2.5 3.5 -5.3 1.95 -8.1 1.9 -11.6 1.95 -15.15 3.45 -17.95 5.0 -20.7 7.6 -22.3 10.25 -23.95 13.6 -23.95 M15.8 -16.9 Q13.5 -16.85 12.0 -15.35 10.5 -13.85 10.45 -11.6 10.5 -9.35 12.05 -7.85 13.55 -6.35 15.8 -6.3 18.0 -6.35 19.5 -7.85 21.0 -9.3 21.05 -11.55 21.0 -13.85 19.5 -15.35 18.0 -16.85 15.8 -16.9" fill="#ffffff" fill-rule="evenodd" stroke="none"/>
    </g>
    <g id="shape5" transform="matrix(1.0, 0.0, 0.0, 1.0, -2.8, 23.5)">
      <path d="M19.35 -23.5 L20.2 -23.45 20.2 -15.6 18.5 -16.25 16.75 -16.4 Q13.85 -16.4 12.45 -14.8 11.0 -13.15 11.0 -9.9 L11.0 0.0 2.8 0.0 2.8 -23.2 11.0 -23.2 11.0 -19.4 Q12.4 -21.55 14.2 -22.55 16.0 -23.5 18.65 -23.5 L19.35 -23.5" fill="#ffffff" fill-rule="evenodd" stroke="none"/>
    </g>
    <g id="shape6" transform="matrix(1.0, 0.0, 0.0, 1.0, -2.8, 23.7)">
      <path d="M11.0 -20.3 Q12.6 -22.2 14.3 -22.95 16.05 -23.75 18.55 -23.7 20.65 -23.7 22.3 -23.05 23.95 -22.4 25.15 -21.15 26.35 -20.0 26.85 -18.55 27.35 -17.1 27.3 -14.75 L27.3 0.0 19.1 0.0 19.1 -11.75 19.1 -13.55 18.95 -14.6 18.6 -15.4 Q18.2 -16.25 17.3 -16.7 L15.3 -17.2 Q13.25 -17.2 12.15 -15.95 11.0 -14.75 11.0 -12.45 L11.0 0.0 2.8 0.0 2.8 -23.2 11.0 -23.2 11.0 -20.3" fill="#ffffff" fill-rule="evenodd" stroke="none"/>
    </g>
    <g id="shape7" transform="matrix(1.0, 0.0, 0.0, 1.0, -1.9, 37.55)">
      <path d="M15.8 -16.9 Q13.5 -16.85 12.0 -15.35 10.5 -13.85 10.45 -11.6 10.5 -9.35 12.05 -7.85 13.55 -6.35 15.8 -6.3 18.0 -6.35 19.5 -7.85 21.0 -9.3 21.05 -11.55 21.0 -13.85 19.5 -15.35 18.0 -16.85 15.8 -16.9 M20.8 -37.55 L29.0 -37.55 29.0 0.0 20.8 0.0 20.8 -2.55 Q19.45 -0.8 17.7 0.0 15.95 0.8 13.65 0.8 10.3 0.75 7.65 -0.9 5.0 -2.5 3.5 -5.3 1.95 -8.1 1.9 -11.6 1.95 -15.15 3.45 -17.95 5.0 -20.7 7.6 -22.3 10.25 -23.95 13.6 -23.95 15.8 -23.95 17.55 -23.25 19.3 -22.5 20.8 -20.95 L20.8 -37.55" fill="#ffffff" fill-rule="evenodd" stroke="none"/>
    </g>
    <g id="shape8" transform="matrix(1.0, 0.0, 0.0, 1.0, -1.35, 35.4)">
      <path d="M21.5 -34.2 Q23.95 -32.95 25.35 -30.8 26.7 -28.6 26.75 -25.75 26.75 -23.2 25.9 -21.45 25.0 -19.7 23.1 -18.45 25.7 -17.6 27.2 -15.3 28.65 -13.0 28.7 -9.7 28.65 -6.35 26.95 -3.8 25.3 -1.3 22.25 0.1 19.2 1.5 15.2 1.55 11.1 1.55 8.0 -0.25 4.95 -2.0 3.0 -5.35 2.15 -6.85 1.75 -8.15 1.4 -9.4 1.35 -10.9 L10.4 -10.9 Q10.6 -8.6 11.85 -7.4 13.1 -6.15 15.3 -6.15 17.35 -6.15 18.6 -7.4 19.85 -8.65 19.9 -10.65 19.85 -12.5 18.5 -13.8 17.2 -15.15 15.4 -15.2 L14.65 -15.1 13.7 -14.95 13.7 -21.0 14.25 -20.95 14.7 -20.9 Q16.4 -20.95 17.45 -22.0 18.45 -23.0 18.5 -24.75 18.45 -26.25 17.5 -27.2 16.55 -28.1 15.0 -28.15 13.35 -28.15 12.4 -27.1 11.45 -26.1 11.35 -24.25 L3.15 -24.25 Q3.85 -29.65 7.05 -32.5 10.3 -35.4 15.75 -35.4 19.0 -35.4 21.5 -34.2" fill="#ffffff" fill-rule="evenodd" stroke="none"/>
    </g>
    <g id="shape9" transform="matrix(1.0, 0.0, 0.0, 1.0, -0.9, 35.4)">
      <path d="M15.4 -27.5 Q13.65 -27.45 12.4 -26.15 11.1 -24.8 10.4 -22.45 9.7 -20.1 9.7 -17.0 9.7 -13.85 10.4 -11.5 11.1 -9.15 12.4 -7.85 13.65 -6.5 15.4 -6.5 17.05 -6.5 18.3 -7.85 19.6 -9.15 20.3 -11.5 21.0 -13.85 21.0 -17.0 21.0 -20.1 20.3 -22.45 19.6 -24.8 18.3 -26.15 17.05 -27.45 15.4 -27.5 M22.95 -33.1 Q26.2 -30.8 28.0 -26.7 29.8 -22.6 29.8 -17.1 29.8 -11.55 28.0 -7.45 26.2 -3.3 22.95 -1.05 19.75 1.25 15.4 1.3 11.0 1.25 7.75 -1.05 4.5 -3.3 2.7 -7.45 0.9 -11.55 0.9 -17.1 0.9 -22.6 2.7 -26.7 4.55 -30.8 7.75 -33.1 11.0 -35.4 15.4 -35.4 19.75 -35.4 22.95 -33.1" fill="#ffffff" fill-rule="evenodd" stroke="none"/>
    </g>
    <g id="shape10" transform="matrix(1.0, 0.0, 0.0, 1.0, -2.8, 23.95)">
      <path d="M11.0 -23.2 L11.0 -20.65 Q12.35 -22.35 14.1 -23.15 15.85 -23.95 18.2 -23.95 21.5 -23.9 24.15 -22.3 26.8 -20.65 28.35 -17.85 29.9 -15.1 29.9 -11.55 29.9 -8.05 28.35 -5.25 26.85 -2.5 24.2 -0.85 21.55 0.75 18.25 0.8 16.05 0.8 14.3 0.05 12.55 -0.65 11.0 -2.25 L11.0 11.65 2.8 11.65 2.8 -23.2 11.0 -23.2 M16.1 -16.9 Q13.8 -16.85 12.3 -15.35 10.8 -13.85 10.75 -11.6 10.8 -9.35 12.3 -7.85 13.85 -6.35 16.1 -6.3 18.35 -6.35 19.8 -7.85 21.3 -9.35 21.35 -11.6 21.3 -13.85 19.8 -15.35 18.35 -16.85 16.1 -16.9" fill="#ffffff" fill-rule="evenodd" stroke="none"/>
    </g>
    <g id="shape11" transform="matrix(1.0, 0.0, 0.0, 1.0, -2.3, 36.7)">
      <path d="M2.8 -23.2 L11.0 -23.2 11.0 0.0 2.8 0.0 2.8 -23.2 M10.2 -28.85 Q8.9 -27.55 6.9 -27.5 4.95 -27.55 3.65 -28.85 2.35 -30.15 2.3 -32.1 2.35 -34.05 3.65 -35.35 4.95 -36.65 6.9 -36.7 8.9 -36.65 10.2 -35.35 11.45 -34.05 11.5 -32.1 11.45 -30.15 10.2 -28.85" fill="#ffffff" fill-rule="evenodd" stroke="none"/>
    </g>
    <g id="shape12" transform="matrix(1.0, 0.0, 0.0, 1.0, -1.1, 30.15)">
      <path d="M3.8 -30.15 L12.0 -30.15 12.0 -23.2 16.65 -23.2 16.65 -16.4 12.0 -16.4 12.0 0.0 3.8 0.0 3.8 -16.4 1.1 -16.4 1.1 -23.2 3.8 -23.2 3.8 -30.15" fill="#ffffff" fill-rule="evenodd" stroke="none"/>
    </g>
    <g id="shape13" transform="matrix(1.0, 0.0, 0.0, 1.0, -1.4, 24.0)">
      <path d="M18.25 -17.2 Q17.1 -17.8 15.95 -18.05 L13.75 -18.35 Q12.7 -18.3 12.0 -17.85 11.3 -17.4 11.3 -16.7 11.25 -16.15 11.5 -15.85 11.75 -15.55 12.55 -15.3 L14.95 -14.7 Q18.45 -14.0 20.1 -12.3 21.7 -10.6 21.7 -7.75 21.7 -5.15 20.35 -3.2 19.0 -1.25 16.5 -0.2 14.05 0.85 10.65 0.9 8.25 0.9 5.95 0.2 3.65 -0.45 1.4 -1.8 L4.35 -7.55 Q6.0 -6.5 7.75 -5.85 9.45 -5.2 10.95 -5.2 12.05 -5.2 12.75 -5.7 13.45 -6.2 13.45 -7.0 13.5 -7.85 12.8 -8.3 L10.0 -9.15 Q6.3 -9.9 4.7 -11.4 3.15 -12.9 3.2 -15.7 3.25 -19.55 6.0 -21.75 8.75 -23.95 13.5 -24.0 L17.35 -23.65 21.0 -22.55 18.25 -17.2" fill="#ffffff" fill-rule="evenodd" stroke="none"/>
    </g>
    <g id="shape14" transform="matrix(1.0, 0.0, 0.0, 1.0, -3.45, 34.15)">
      <path d="M5.0 -8.05 Q6.5 -9.55 8.75 -9.6 11.0 -9.55 12.5 -8.05 14.0 -6.6 14.05 -4.35 14.0 -2.05 12.5 -0.55 11.0 0.95 8.75 1.0 6.5 0.95 5.0 -0.55 3.5 -2.05 3.45 -4.35 3.5 -6.6 5.0 -8.05 M4.45 -34.15 L13.0 -34.15 13.0 -11.6 4.45 -11.6 4.45 -34.15" fill="#ffffff" fill-rule="evenodd" stroke="none"/>
    </g>
    <g id="shape15" transform="matrix(1.0, 0.0, 0.0, 1.0, -0.35, 34.15)">
      <path d="M7.6 -26.6 L0.35 -26.6 0.35 -34.15 23.8 -34.15 23.8 -26.6 16.45 -26.6 16.45 0.0 7.6 0.0 7.6 -26.6" fill="#ffffff" fill-rule="evenodd" stroke="none"/>
    </g>
    <g id="shape16" transform="matrix(1.0, 0.0, 0.0, 1.0, -2.8, 37.5)">
      <path d="M11.0 -37.5 L11.0 -14.85 19.6 -23.2 30.8 -23.2 19.2 -12.5 31.55 0.0 20.0 0.0 11.0 -9.4 11.0 0.0 2.8 0.0 2.8 -37.5 11.0 -37.5" fill="#ffffff" fill-rule="evenodd" stroke="none"/>
    </g>
    <g id="shape17" transform="matrix(1.0, 0.0, 0.0, 1.0, 0.0, 15.5)">
      <path d="M0.0 -15.5 L12.95 -15.5 12.95 -8.7 0.0 -8.7 0.0 -15.5" fill="#ffffff" fill-rule="evenodd" stroke="none"/>
    </g>
    <g id="shape18" transform="matrix(1.0, 0.0, 0.0, 1.0, 0.0, 23.2)">
      <path d="M9.25 -23.2 L14.75 -11.3 20.4 -23.2 29.55 -23.2 17.5 0.0 12.0 0.0 0.0 -23.2 9.25 -23.2" fill="#ffffff" fill-rule="evenodd" stroke="none"/>
    </g>
    <g id="shape19" transform="matrix(1.0, 0.0, 0.0, 1.0, -2.05, 34.95)">
      <path d="M25.9 -32.2 L22.35 -25.3 Q20.85 -26.45 19.45 -27.05 L16.5 -27.6 Q14.9 -27.55 13.8 -26.75 12.75 -25.95 12.7 -24.65 12.7 -23.85 13.3 -23.2 13.85 -22.55 15.0 -22.0 L15.55 -21.8 16.6 -21.45 18.85 -20.8 Q23.3 -19.5 25.3 -17.25 27.3 -14.95 27.25 -11.3 27.2 -5.5 23.75 -2.35 20.3 0.85 13.95 0.9 10.8 0.9 7.8 -0.1 4.75 -1.05 2.05 -2.95 L5.85 -10.1 Q7.85 -8.35 9.8 -7.5 11.75 -6.65 13.7 -6.65 15.65 -6.65 16.8 -7.55 17.95 -8.45 18.0 -9.95 18.05 -11.3 16.9 -12.15 15.7 -13.05 12.65 -13.9 L9.5 -14.9 7.45 -15.8 6.0 -16.8 Q4.75 -17.9 4.1 -19.55 3.45 -21.2 3.45 -23.45 3.45 -26.9 4.9 -29.5 6.35 -32.05 9.0 -33.5 11.6 -34.95 15.05 -34.95 L20.55 -34.25 Q23.3 -33.55 25.9 -32.2" fill="#ffffff" fill-rule="evenodd" stroke="none"/>
    </g>
    <g id="shape20" transform="matrix(1.0, 0.0, 0.0, 1.0, 0.0, 23.2)">
      <path d="M11.2 -3.1 L0.0 -23.2 9.55 -23.2 15.75 -11.3 21.75 -23.2 31.15 -23.2 12.5 11.65 3.35 11.65 11.2 -3.1" fill="#ffffff" fill-rule="evenodd" stroke="none"/>
    </g>
    <g id="shape21" transform="matrix(1.0, 0.0, 0.0, 1.0, -0.55, 38.05)">
      <path d="M15.65 -37.85 L17.45 -37.15 17.45 -30.05 15.85 -30.7 14.6 -30.85 Q13.75 -30.85 13.05 -30.4 12.3 -30.0 12.0 -29.35 11.8 -28.95 11.75 -28.2 L11.7 -26.1 11.7 -23.2 17.45 -23.2 17.45 -16.4 11.7 -16.4 11.7 0.0 3.5 0.0 3.5 -16.4 0.55 -16.4 0.55 -23.2 3.5 -23.2 3.5 -26.7 Q3.45 -29.6 4.1 -31.4 4.75 -33.25 6.25 -34.75 7.8 -36.35 9.75 -37.2 11.7 -38.05 13.85 -38.05 L15.65 -37.85" fill="#ffffff" fill-rule="evenodd" stroke="none"/>
    </g>
    <g id="shape22" transform="matrix(1.0, 0.0, 0.0, 1.0, -2.8, 23.6)">
      <path d="M11.0 -23.2 L11.0 -20.35 Q12.75 -22.1 14.5 -22.85 16.25 -23.6 18.5 -23.55 21.2 -23.55 23.1 -22.55 25.0 -21.5 26.4 -19.25 27.75 -21.4 29.75 -22.5 31.7 -23.6 34.2 -23.6 38.05 -23.6 40.05 -21.4 42.05 -19.2 42.05 -15.05 L42.05 0.0 33.85 0.0 33.85 -11.45 33.85 -13.25 33.7 -14.3 33.45 -15.15 Q33.0 -16.15 32.25 -16.65 31.45 -17.2 30.45 -17.2 28.5 -17.2 27.5 -15.75 26.55 -14.3 26.55 -11.45 L26.55 0.0 18.35 0.0 18.35 -11.5 18.3 -13.35 18.2 -14.4 18.0 -15.15 Q17.6 -16.15 16.7 -16.75 15.8 -17.35 14.75 -17.35 13.8 -17.35 12.9 -16.8 12.0 -16.25 11.55 -15.4 L11.15 -13.9 Q11.0 -13.0 11.0 -11.45 L11.0 0.0 2.8 0.0 2.8 -23.2 11.0 -23.2" fill="#ffffff" fill-rule="evenodd" stroke="none"/>
    </g>
    <g id="shape23" transform="matrix(1.0, 0.0, 0.0, 1.0, -2.8, 37.55)">
      <path d="M2.8 -37.55 L11.0 -37.55 11.0 -20.3 Q12.6 -22.2 14.3 -22.95 16.05 -23.75 18.55 -23.7 20.65 -23.7 22.3 -23.05 23.95 -22.4 25.15 -21.15 26.35 -20.0 26.85 -18.55 27.35 -17.1 27.3 -14.75 L27.3 0.0 19.1 0.0 19.1 -11.75 19.1 -13.55 18.95 -14.6 18.6 -15.4 Q18.2 -16.25 17.3 -16.7 L15.3 -17.2 Q13.25 -17.2 12.15 -15.95 11.0 -14.75 11.0 -12.45 L11.0 0.0 2.8 0.0 2.8 -37.55" fill="#ffffff" fill-rule="evenodd" stroke="none"/>
    </g>
    <g id="shape24" transform="matrix(1.0, 0.0, 0.0, 1.0, -2.05, 34.85)">
      <path d="M24.7 -25.35 Q22.8 -26.25 20.5 -26.25 17.8 -26.25 15.75 -25.05 13.7 -23.85 12.55 -21.7 11.35 -19.6 11.35 -16.85 11.35 -14.15 12.55 -12.1 13.7 -10.05 15.8 -8.85 17.85 -7.7 20.5 -7.65 22.7 -7.65 24.55 -8.55 26.45 -9.4 28.2 -11.25 L28.2 -0.75 24.8 0.3 22.5 0.8 20.35 0.95 Q15.15 0.9 11.05 -1.45 6.9 -3.8 4.5 -7.8 2.1 -11.8 2.05 -16.9 2.1 -21.95 4.5 -26.0 6.9 -30.05 11.0 -32.4 15.05 -34.8 20.15 -34.85 L23.95 -34.45 28.2 -33.1 28.2 -22.5 Q26.6 -24.4 24.7 -25.35" fill="#ffffff" fill-rule="evenodd" stroke="none"/>
    </g>
    <g id="shape25" transform="matrix(1.0, 0.0, 0.0, 1.0, -1.9, 23.85)">
      <path d="M13.7 -23.85 Q15.9 -23.9 17.5 -23.15 19.15 -22.45 20.6 -20.8 L20.6 -23.2 28.8 -23.2 28.8 -1.55 28.5 2.55 Q28.2 4.25 27.55 5.55 L25.65 8.0 Q23.8 9.9 21.25 10.8 18.65 11.75 15.35 11.75 11.85 11.7 9.05 10.6 6.25 9.5 4.45 7.55 2.65 5.55 2.15 2.85 L11.4 2.85 Q11.8 4.0 12.75 4.6 13.75 5.2 15.25 5.2 17.8 5.15 19.2 3.7 20.55 2.25 20.6 -0.4 L20.6 -2.55 Q18.8 -0.85 17.15 -0.2 15.45 0.5 13.2 0.5 9.9 0.45 7.35 -1.05 4.8 -2.5 3.4 -5.15 1.95 -7.8 1.9 -11.25 1.95 -14.9 3.5 -17.7 5.0 -20.55 7.65 -22.2 10.3 -23.85 13.7 -23.85 M15.75 -16.95 Q13.5 -16.9 12.0 -15.4 10.5 -13.9 10.45 -11.65 10.5 -9.4 12.0 -7.9 13.5 -6.4 15.75 -6.35 17.95 -6.4 19.45 -7.9 20.95 -9.4 21.0 -11.65 20.95 -13.9 19.45 -15.4 17.95 -16.9 15.75 -16.95" fill="#ffffff" fill-rule="evenodd" stroke="none"/>
    </g>
  </defs>
</svg>
