<?xml version="1.0" encoding="UTF-8" standalone="no"?>
<svg xmlns:xlink="http://www.w3.org/1999/xlink" height="93.5px" width="85.25px" xmlns="http://www.w3.org/2000/svg">
  <g transform="matrix(1.0, 0.0, 0.0, 1.0, 40.65, 46.7)">
    <use height="61.55" transform="matrix(0.9, 0.0, 0.0, 0.9, -22.8098, -46.7248)" width="53.85" xlink:href="#shape0"/>
    <use height="72.7" transform="matrix(0.9, 0.0, 0.0, 0.9, -27.6098, -18.6496)" width="61.35" xlink:href="#shape1"/>
    <use height="52.1" transform="matrix(1.0, 0.0, 0.0, 1.0, -18.25, -20.9)" width="40.55" xlink:href="#sprite0"/>
    <use height="14.65" transform="matrix(0.8297, 0.0978, -0.0782, 0.6637, -5.7805, -10.8907)" width="6.45" xlink:href="#shape3"/>
    <use height="14.65" transform="matrix(0.8306, -0.0916, 0.0733, 0.6643, 3.8535, -10.5894)" width="6.45" xlink:href="#shape3"/>
    <use height="21.85" transform="matrix(1.0, 0.0, 0.0, 1.0, -12.2, -15.7)" width="28.15" xlink:href="#shape4"/>
    <use height="20.35" transform="matrix(1.0, 0.0, 0.0, 1.0, 18.85, -10.25)" width="25.75" xlink:href="#sprite1"/>
    <use height="20.35" transform="matrix(-1.0, 0.0, 0.0, 1.0, -14.35, -6.8)" width="25.75" xlink:href="#sprite1"/>
    <use height="20.35" transform="matrix(1.0, 0.0, 0.0, 1.0, 18.4, -16.0)" width="25.75" xlink:href="#sprite1"/>
    <use height="20.35" transform="matrix(-1.0, 0.0, 0.0, 1.0, -13.9, -10.2)" width="25.75" xlink:href="#sprite1"/>
    <use height="20.35" transform="matrix(1.0, 0.0, 0.0, 1.0, 18.3, -5.25)" width="25.75" xlink:href="#sprite1"/>
    <use height="20.35" transform="matrix(-1.0, 0.0, 0.0, 1.0, -14.9, -1.8)" width="25.75" xlink:href="#sprite1"/>
    <use height="20.35" transform="matrix(1.0, 0.0, 0.0, 1.0, 17.85, -11.0)" width="25.75" xlink:href="#sprite1"/>
    <use height="20.35" transform="matrix(-1.0, 0.0, 0.0, 1.0, -14.45, -5.2)" width="25.75" xlink:href="#sprite1"/>
  </g>
  <defs>
    <g id="shape0" transform="matrix(1.0, 0.0, 0.0, 1.0, 26.9, 30.75)">
      <path d="M3.2 -30.55 L4.05 -30.45 Q9.9 -29.75 14.55 -27.05 L15.2 -26.65 Q19.15 -24.3 20.2 -21.5 L19.35 -17.2 18.1 -10.1 Q19.65 -9.2 21.7 -6.65 24.35 -3.35 25.75 0.6 27.45 5.6 26.7 10.8 26.35 13.2 25.45 15.6 24.05 19.15 21.55 22.6 1.1 39.0 -20.9 22.6 -25.65 18.35 -26.65 12.9 -27.5 8.35 -25.7 3.25 -24.3 -0.7 -21.65 -4.45 -19.6 -7.35 -18.3 -8.25 L-19.35 -14.6 -20.25 -20.95 Q-15.4 -26.9 -8.5 -29.3 -4.75 -30.6 -0.65 -30.7 L3.2 -30.55 M-8.4 -11.0 Q-12.65 -12.3 -17.1 -8.6 -21.25 -5.2 -23.75 0.75 -25.3 4.45 -25.7 8.0 L-24.75 5.95 Q-21.7 -0.75 -19.7 -3.35 -17.55 -6.25 -15.35 -7.85 -12.9 -9.7 -10.9 -9.5 -9.35 -9.4 -7.75 -8.6 L-4.9 -6.9 -2.15 -5.0 Q-0.55 -4.05 0.85 -3.65 4.2 -2.7 8.0 -4.45 L11.0 -6.15 11.25 -6.3 13.75 -7.65 Q15.2 -8.35 16.35 -8.3 17.7 -8.3 18.9 -7.35 21.65 -5.25 24.35 2.35 25.65 6.05 25.6 11.3 L25.8 10.15 Q26.45 5.2 24.8 0.35 23.45 -3.5 20.95 -6.6 18.8 -9.25 17.35 -9.8 14.95 -10.7 12.15 -9.0 L11.7 -8.7 9.9 -7.4 Q8.45 -6.4 7.6 -5.95 4.7 -4.5 2.5 -4.65 L2.15 -4.7 Q0.6 -4.95 -1.0 -6.05 L-1.15 -6.15 -1.75 -6.6 -2.75 -7.4 -4.4 -8.75 Q-6.45 -10.4 -8.4 -11.0 M0.25 -29.95 L-0.65 -29.9 Q0.9 -19.75 -0.9 -11.05 L2.45 -11.1 3.1 -11.05 Q9.1 -10.9 11.65 -9.7 L11.95 -9.85 Q12.35 -18.25 15.05 -25.85 13.35 -27.15 11.3 -28.0 7.55 -29.65 3.15 -29.9 L0.25 -29.95 M-1.65 -7.3 L-0.95 -7.0 Q0.55 -6.35 2.25 -6.15 L2.8 -6.1 Q7.35 -5.85 10.85 -9.1 6.9 -10.4 2.4 -10.45 L-0.95 -10.3 -1.2 -10.3 -5.05 -9.8 Q-3.45 -8.2 -1.65 -7.3 M12.15 21.0 Q16.25 17.9 16.25 13.75 L16.05 12.05 Q15.3 8.6 11.5 6.05 6.75 2.85 0.1 2.85 -6.6 2.85 -11.3 6.05 -14.5 8.15 -15.5 10.9 -16.05 12.2 -16.05 13.75 -16.05 18.25 -11.3 21.45 L-9.55 22.5 Q-5.4 24.6 0.1 24.65 6.75 24.6 11.5 21.45 L12.15 21.0" fill="#000000" fill-rule="evenodd" stroke="none"/>
      <path d="M0.25 -29.95 L3.15 -29.9 Q7.55 -29.65 11.3 -28.0 13.35 -27.15 15.05 -25.85 12.35 -18.25 11.95 -9.85 L11.65 -9.7 Q9.1 -10.9 3.1 -11.05 L2.45 -11.1 -0.9 -11.05 Q0.9 -19.75 -0.65 -29.9 L0.25 -29.95 M-8.4 -11.0 Q-6.45 -10.4 -4.4 -8.75 L-2.75 -7.4 -1.75 -6.6 -1.15 -6.15 -1.0 -6.05 Q0.6 -4.95 2.15 -4.7 L2.5 -4.65 Q4.7 -4.5 7.6 -5.95 8.45 -6.4 9.9 -7.4 L11.7 -8.7 12.15 -9.0 Q14.95 -10.7 17.35 -9.8 18.8 -9.25 20.95 -6.6 23.45 -3.5 24.8 0.35 26.45 5.2 25.8 10.15 L25.6 11.3 Q25.65 6.05 24.35 2.35 21.65 -5.25 18.9 -7.35 17.7 -8.3 16.35 -8.3 15.2 -8.35 13.75 -7.65 L11.25 -6.3 11.0 -6.15 8.0 -4.45 Q4.2 -2.7 0.85 -3.65 -0.55 -4.05 -2.15 -5.0 L-4.9 -6.9 -7.75 -8.6 Q-9.35 -9.4 -10.9 -9.5 -12.9 -9.7 -15.35 -7.85 -17.55 -6.25 -19.7 -3.35 -21.7 -0.75 -24.75 5.95 L-25.7 8.0 Q-25.3 4.45 -23.75 0.75 -21.25 -5.2 -17.1 -8.6 -12.65 -12.3 -8.4 -11.0" fill="#00ccff" fill-rule="evenodd" stroke="none"/>
      <path d="M-1.2 -10.3 L-0.95 -10.3 2.4 -10.45 Q6.9 -10.4 10.85 -9.1 7.35 -5.85 2.8 -6.1 L2.25 -6.15 Q0.55 -6.35 -0.95 -7.0 L-1.65 -7.3 -1.2 -10.3" fill="#cc0000" fill-rule="evenodd" stroke="none"/>
      <path d="M-1.65 -7.3 Q-3.45 -8.2 -5.05 -9.8 L-1.2 -10.3 -1.65 -7.3" fill="#990000" fill-rule="evenodd" stroke="none"/>
      <path d="M12.15 21.0 L11.5 21.45 Q6.75 24.6 0.1 24.65 -5.4 24.6 -9.55 22.5 L-9.0 18.05 Q-4.9 20.05 0.45 20.1 6.75 20.05 11.35 17.25 L12.15 21.0" fill="#660000" fill-rule="evenodd" stroke="none"/>
      <path d="M-15.5 10.9 Q-14.5 8.15 -11.3 6.05 -6.6 2.85 0.1 2.85 6.75 2.85 11.5 6.05 15.3 8.6 16.05 12.05 15.0 14.75 11.85 16.9 L11.35 17.25 Q6.75 20.05 0.45 20.1 -4.9 20.05 -9.0 18.05 L-10.95 16.9 Q-14.8 14.3 -15.5 10.9" fill="#333333" fill-rule="evenodd" stroke="none"/>
      <path d="M16.05 12.05 L16.25 13.75 Q16.25 17.9 12.15 21.0 L11.35 17.25 11.85 16.9 Q15.0 14.75 16.05 12.05 M-9.55 22.5 L-11.3 21.45 Q-16.05 18.25 -16.05 13.75 -16.05 12.2 -15.5 10.9 -14.8 14.3 -10.95 16.9 L-9.0 18.05 -9.55 22.5" fill="#330000" fill-rule="evenodd" stroke="none"/>
    </g>
    <g id="shape1" transform="matrix(1.0, 0.0, 0.0, 1.0, 32.9, 57.5)">
      <path d="M25.95 -46.6 L24.95 -43.15 Q23.45 -39.35 20.65 -35.6 21.6 -33.8 27.15 -36.95 27.15 -35.2 25.5 -32.85 27.25 -31.05 28.05 -28.95 28.9 -26.5 28.05 -24.4 L24.45 -27.6 Q30.4 -17.6 23.65 -13.8 23.9 -16.0 22.05 -18.15 21.75 -16.1 20.5 -13.9 L17.85 -10.15 Q18.0 -12.65 16.75 -14.8 15.55 -16.9 13.65 -17.75 11.65 -18.7 9.9 -17.75 7.85 -16.75 6.75 -13.55 9.15 -12.0 10.9 -8.1 12.55 -4.5 13.1 0.05 13.7 4.65 12.9 8.45 12.05 12.5 9.8 14.4 8.05 14.35 6.7 13.05 5.7 12.1 4.6 10.2 L2.8 7.25 Q1.8 5.85 0.8 5.7 L-0.65 8.0 -2.2 10.95 Q-4.3 14.7 -5.85 15.05 -9.35 15.8 -11.5 12.5 -13.5 9.5 -13.8 4.15 -14.15 -1.15 -12.65 -6.35 -11.15 -11.95 -8.15 -15.15 -8.05 -16.9 -9.65 -17.8 -11.2 -18.65 -13.4 -18.25 -15.8 -17.85 -17.6 -16.15 -19.75 -14.2 -20.45 -11.0 -22.25 -10.9 -23.95 -14.25 L-25.1 -17.0 -25.65 -19.2 Q-27.3 -18.1 -27.8 -14.1 -29.75 -17.25 -30.3 -20.85 -30.9 -24.9 -29.3 -27.8 L-31.15 -26.55 -32.9 -25.1 Q-33.0 -27.3 -32.1 -29.4 -31.3 -31.45 -29.8 -33.1 -30.45 -36.35 -29.7 -38.95 -23.75 -32.0 -21.25 -36.0 -26.15 -40.3 -27.15 -45.85 L-27.4 -49.4 -21.0 -49.4 -21.0 -57.5 20.8 -57.5 20.8 -46.6 25.95 -46.6 M25.05 -31.9 L24.05 -33.15 Q25.75 -33.85 26.3 -36.0 25.0 -34.75 22.8 -34.3 20.35 -33.85 19.3 -35.2 19.1 -55.65 1.15 -56.95 -7.5 -57.6 -12.4 -52.85 -17.25 -48.3 -19.3 -37.7 -19.7 -35.6 -20.95 -34.55 -22.1 -33.6 -23.65 -33.65 -25.2 -33.75 -26.65 -34.65 -28.2 -35.6 -29.15 -37.15 -29.5 -34.45 -27.9 -33.15 -29.85 -32.75 -30.95 -30.6 L-31.7 -28.6 -32.25 -26.6 -31.25 -27.5 -29.8 -28.65 Q-27.85 -29.95 -27.0 -29.25 -29.45 -26.95 -29.75 -22.8 -30.05 -18.7 -28.1 -15.95 -28.0 -17.3 -26.95 -19.05 -25.8 -20.95 -24.6 -21.3 -25.2 -15.25 -21.0 -11.95 -20.8 -13.2 -19.85 -14.65 -18.95 -16.15 -17.6 -17.35 L-14.85 -19.3 Q-13.3 -20.0 -12.0 -19.7 L-10.4 -19.05 -7.15 -17.8 Q-2.0 -16.15 2.9 -16.35 4.15 -16.4 5.85 -17.05 L8.7 -18.25 Q10.35 -18.95 11.55 -19.05 13.1 -19.25 14.5 -18.55 16.45 -17.65 17.45 -15.65 18.3 -13.9 18.25 -11.55 20.6 -14.8 21.45 -20.5 24.1 -17.35 24.45 -15.45 25.9 -17.4 26.05 -19.25 26.2 -20.75 25.5 -22.55 L24.1 -25.6 Q23.25 -27.5 23.15 -28.9 L25.8 -27.75 Q27.2 -26.95 27.7 -25.75 28.35 -28.35 26.55 -30.45 L25.05 -31.9 M5.3 -7.5 Q4.75 -4.8 4.7 -2.7 2.4 0.2 -1.9 -1.15 -3.15 -1.6 -4.75 -2.45 L-6.25 -3.2 -6.8 -8.55 Q-7.2 -11.5 -7.85 -13.8 -9.75 -11.8 -11.1 -7.45 -12.45 -3.2 -12.65 1.3 -12.9 6.15 -11.65 9.35 -10.25 13.0 -7.15 13.6 -6.2 13.8 -4.85 12.4 L-2.3 9.1 0.55 5.4 Q2.25 3.5 3.8 3.0 L2.75 4.05 Q1.85 4.65 1.6 5.0 2.75 5.55 3.75 6.7 L5.3 8.95 6.75 11.3 Q7.65 12.5 8.7 13.2 10.6 13.05 11.5 9.7 12.35 6.55 12.0 2.0 11.65 -2.65 10.25 -6.45 8.7 -10.65 6.35 -12.25 L5.3 -7.5 M3.75 -3.2 Q4.1 -9.9 6.6 -16.2 0.6 -14.25 -7.45 -16.75 -5.5 -11.45 -5.4 -3.9 -0.8 -0.2 3.75 -3.2" fill="#000000" fill-rule="evenodd" stroke="none"/>
      <path d="M25.05 -31.9 L26.55 -30.45 Q28.35 -28.35 27.7 -25.75 27.2 -26.95 25.8 -27.75 L23.15 -28.9 Q23.25 -27.5 24.1 -25.6 L25.5 -22.55 Q26.2 -20.75 26.05 -19.25 25.9 -17.4 24.45 -15.45 24.1 -17.35 21.45 -20.5 20.6 -14.8 18.25 -11.55 18.3 -13.9 17.45 -15.65 16.45 -17.65 14.5 -18.55 13.1 -19.25 11.55 -19.05 10.35 -18.95 8.7 -18.25 L5.85 -17.05 Q4.15 -16.4 2.9 -16.35 -2.0 -16.15 -7.15 -17.8 L-10.4 -19.05 -12.0 -19.7 Q-13.3 -20.0 -14.85 -19.3 L-17.6 -17.35 Q-18.95 -16.15 -19.85 -14.65 -20.8 -13.2 -21.0 -11.95 -25.2 -15.25 -24.6 -21.3 -25.8 -20.95 -26.95 -19.05 -28.0 -17.3 -28.1 -15.95 -30.05 -18.7 -29.75 -22.8 -29.45 -26.95 -27.0 -29.25 -27.85 -29.95 -29.8 -28.65 L-31.25 -27.5 -32.25 -26.6 -31.7 -28.6 -30.95 -30.6 Q-29.85 -32.75 -27.9 -33.15 -29.5 -34.45 -29.15 -37.15 -28.2 -35.6 -26.65 -34.65 -25.2 -33.75 -23.65 -33.65 -22.1 -33.6 -20.95 -34.55 -19.7 -35.6 -19.3 -37.7 -17.25 -48.3 -12.4 -52.85 -7.5 -57.6 1.15 -56.95 19.1 -55.65 19.3 -35.2 20.35 -33.85 22.8 -34.3 25.0 -34.75 26.3 -36.0 25.75 -33.85 24.05 -33.15 L25.05 -31.9 M3.75 -3.2 Q-0.8 -0.2 -5.4 -3.9 -5.5 -11.45 -7.45 -16.75 0.6 -14.25 6.6 -16.2 4.1 -9.9 3.75 -3.2" fill="#ffffff" fill-rule="evenodd" stroke="none"/>
      <path d="M5.3 -7.5 L6.35 -12.25 Q8.7 -10.65 10.25 -6.45 11.65 -2.65 12.0 2.0 12.35 6.55 11.5 9.7 10.6 13.05 8.7 13.2 7.65 12.5 6.75 11.3 L5.3 8.95 3.75 6.7 Q2.75 5.55 1.6 5.0 1.85 4.65 2.75 4.05 L3.8 3.0 Q2.25 3.5 0.55 5.4 L-2.3 9.1 -4.85 12.4 Q-6.2 13.8 -7.15 13.6 -10.25 13.0 -11.65 9.35 -12.9 6.15 -12.65 1.3 -12.45 -3.2 -11.1 -7.45 -9.75 -11.8 -7.85 -13.8 -7.2 -11.5 -6.8 -8.55 L-6.25 -3.2 -4.75 -2.45 Q-3.15 -1.6 -1.9 -1.15 2.4 0.2 4.7 -2.7 4.75 -4.8 5.3 -7.5" fill="#990000" fill-rule="evenodd" stroke="none"/>
    </g>
    <g id="sprite0" transform="matrix(1.0, 0.0, 0.0, 1.0, 20.25, 26.05)">
      <use height="52.1" transform="matrix(1.0, 0.0, 0.0, 1.0, -20.25, -26.05)" width="40.55" xlink:href="#shape2"/>
    </g>
    <g id="shape2" transform="matrix(1.0, 0.0, 0.0, 1.0, 20.25, 26.05)">
      <path d="M2.55 -20.1 Q1.65 -21.7 1.75 -25.4 1.75 -22.6 3.75 -19.7 5.05 -17.75 8.05 -14.95 L12.4 -10.65 Q14.35 -8.35 14.4 -6.45 L13.35 -8.0 13.3 -3.45 Q13.15 -0.85 12.45 1.0 L19.0 1.7 Q19.9 2.45 20.1 3.35 20.55 5.4 19.9 7.3 L18.1 8.35 Q18.25 10.25 17.0 11.05 15.9 11.75 14.0 11.5 13.7 12.35 13.45 14.15 L12.95 16.9 Q12.55 18.35 11.85 19.25 11.0 20.25 9.5 20.6 7.75 20.95 1.95 23.65 -3.4 26.1 -4.35 26.05 -6.6 23.65 -8.75 20.05 L-12.4 13.55 -14.35 13.4 -15.9 12.95 Q-17.3 12.25 -16.7 9.5 L-18.2 9.15 -18.25 9.2 Q-20.65 7.4 -20.2 5.8 L-19.7 4.75 Q-19.35 4.05 -16.95 2.3 -14.6 0.55 -12.0 0.85 -13.4 -0.75 -13.8 -3.35 L-14.0 -8.0 -14.45 -7.1 Q-14.5 -9.7 -11.55 -13.45 L-8.95 -16.35 -6.65 -18.85 Q-5.35 -20.4 -4.7 -22.25 L-4.2 -24.05 -3.75 -26.05 -3.65 -26.05 Q-3.45 -25.0 -3.7 -23.6 L-4.35 -21.2 Q0.45 -14.35 -0.55 -1.85 0.25 -2.5 1.25 -2.2 2.15 -1.95 2.6 -1.0 2.9 -1.5 2.65 -2.15 L2.1 -3.3 Q1.05 -6.15 1.35 -11.65 1.6 -16.45 2.55 -20.1 M-0.55 -5.65 Q-0.6 -8.1 -1.25 -11.3 -1.9 -14.2 -2.8 -16.85 -3.75 -19.55 -4.6 -20.85 -6.0 -18.7 -8.2 -16.25 L-11.3 -12.75 Q-12.7 -10.85 -13.1 -8.9 -13.65 -6.55 -13.0 -3.3 L-12.5 -1.15 Q-12.15 0.05 -11.5 0.85 L-9.95 0.85 -8.4 0.65 Q-7.95 -0.45 -7.1 -1.25 -6.25 -2.15 -5.25 -2.5 -3.0 -3.4 -1.2 -1.5 -0.5 -2.9 -0.55 -5.65 M13.05 -6.35 Q12.85 -8.85 11.3 -10.9 L7.6 -14.65 Q4.65 -17.35 2.95 -19.65 2.45 -18.15 2.2 -15.7 1.85 -13.25 1.85 -10.65 1.7 -4.45 3.1 -1.9 5.2 -3.45 7.15 -2.6 8.85 -1.8 9.85 0.6 L10.15 0.5 Q10.65 1.0 11.8 1.0 13.25 -3.45 13.05 -6.35 M8.25 -1.05 Q7.05 -2.35 5.7 -2.55 4.25 -2.8 3.45 -1.5 2.6 -0.2 2.95 1.85 3.2 3.7 4.3 4.95 L6.75 5.2 9.0 5.2 Q10.1 3.7 9.75 1.9 9.45 0.25 8.25 -1.05 M2.2 -0.65 Q1.75 -1.75 0.65 -1.9 -0.45 -2.1 -0.75 -0.85 -0.1 0.7 -0.1 2.3 -0.15 4.05 -1.0 5.3 L1.3 5.1 3.6 5.05 Q3.0 3.9 2.8 2.1 L2.2 -0.65 M-1.2 5.3 Q-0.6 3.7 -0.7 1.8 -0.8 -0.45 -1.8 -1.45 -3.15 -2.8 -4.85 -2.25 -6.35 -1.8 -7.45 -0.1 -8.6 1.55 -8.5 3.3 -8.5 5.2 -6.9 6.15 L-4.05 5.75 -1.2 5.3 M13.25 11.3 L10.6 10.75 10.15 13.75 9.7 16.75 10.8 17.1 Q2.75 18.8 -3.7 21.6 -5.7 20.6 -7.35 17.65 L-8.65 15.1 -9.7 12.65 -11.5 13.3 Q-8.1 20.2 -6.7 22.25 L-5.05 24.2 Q-4.3 24.75 -3.45 24.8 L-1.6 24.4 0.8 23.25 Q5.05 21.05 8.45 19.9 L10.05 19.3 11.35 18.35 12.25 14.8 13.25 11.3 M12.2 1.55 L10.05 1.25 Q10.8 2.85 9.5 5.4 L11.75 5.85 Q13.45 6.3 13.55 6.9 7.3 5.3 1.2 5.6 -5.4 5.9 -10.95 8.35 L-11.15 8.05 Q-10.7 7.9 -9.2 7.15 -8.0 6.5 -7.15 6.4 -8.5 5.75 -8.85 4.25 -9.1 3.0 -8.65 1.45 L-11.9 1.4 -14.95 1.8 Q-16.2 2.3 -17.35 3.25 -18.55 4.3 -19.1 5.35 -19.7 6.5 -19.15 7.35 -18.55 8.35 -16.5 8.75 L-15.15 7.45 -14.25 5.85 Q-14.5 5.2 -15.4 5.45 L-16.85 5.9 Q-16.55 5.05 -15.4 4.85 -14.3 4.6 -13.75 5.25 -13.25 5.8 -13.8 6.7 L-15.1 8.5 Q-16.05 9.6 -16.2 10.4 -16.45 11.45 -15.4 12.3 -14.25 13.3 -11.85 12.55 L-9.9 11.75 -8.15 11.1 Q-3.35 9.95 2.05 9.8 L12.3 10.4 14.45 10.75 16.5 10.5 Q17.7 9.7 17.45 8.75 17.3 8.15 16.25 7.2 L14.75 5.75 Q14.15 4.95 14.9 4.45 L16.35 4.55 Q17.3 4.8 17.0 5.55 15.45 4.55 15.1 5.1 15.3 5.8 16.35 6.5 17.45 7.25 17.75 7.8 18.65 7.7 19.25 7.1 L19.9 5.65 Q20.0 4.85 19.75 4.0 19.45 3.15 18.85 2.6 17.85 1.65 14.7 1.6 L12.2 1.55 M9.0 16.5 L9.5 13.6 9.85 10.6 6.45 10.25 3.75 10.4 Q2.5 10.75 1.55 11.75 0.55 12.75 -0.3 14.8 L-2.05 10.95 -5.55 11.5 -8.95 12.5 Q-8.1 16.85 -3.7 20.9 L2.65 18.7 9.1 16.85 9.0 16.5 M-0.5 13.95 Q-0.1 13.1 0.8 12.1 L2.35 10.35 0.35 10.6 -1.6 10.85 -0.5 13.95" fill="#000000" fill-rule="evenodd" stroke="none"/>
      <path d="M8.25 -1.05 Q9.45 0.25 9.75 1.9 10.1 3.7 9.0 5.2 L6.75 5.2 4.3 4.95 Q3.2 3.7 2.95 1.85 2.6 -0.2 3.45 -1.5 4.25 -2.8 5.7 -2.55 7.05 -2.35 8.25 -1.05 M-1.2 5.3 L-4.05 5.75 -6.9 6.15 Q-8.5 5.2 -8.5 3.3 -8.6 1.55 -7.45 -0.1 -6.35 -1.8 -4.85 -2.25 -3.15 -2.8 -1.8 -1.45 -0.8 -0.45 -0.7 1.8 -0.6 3.7 -1.2 5.3" fill="#ffffff" fill-rule="evenodd" stroke="none"/>
      <path d="M13.05 -6.35 Q13.25 -3.45 11.8 1.0 10.65 1.0 10.15 0.5 L9.85 0.6 Q8.85 -1.8 7.15 -2.6 5.2 -3.45 3.1 -1.9 1.7 -4.45 1.85 -10.65 1.85 -13.25 2.2 -15.7 2.45 -18.15 2.95 -19.65 4.65 -17.35 7.6 -14.65 L11.3 -10.9 Q12.85 -8.85 13.05 -6.35 M-0.55 -5.65 Q-0.5 -2.9 -1.2 -1.5 -3.0 -3.4 -5.25 -2.5 -6.25 -2.15 -7.1 -1.25 -7.95 -0.45 -8.4 0.65 L-9.95 0.85 -11.5 0.85 Q-12.15 0.05 -12.5 -1.15 L-13.0 -3.3 Q-13.65 -6.55 -13.1 -8.9 -12.7 -10.85 -11.3 -12.75 L-8.2 -16.25 Q-6.0 -18.7 -4.6 -20.85 -3.75 -19.55 -2.8 -16.85 -1.9 -14.2 -1.25 -11.3 -0.6 -8.1 -0.55 -5.65" fill="#ccffff" fill-rule="evenodd" stroke="none"/>
      <path d="M2.2 -0.65 L2.8 2.1 Q3.0 3.9 3.6 5.05 L1.3 5.1 -1.0 5.3 Q-0.15 4.05 -0.1 2.3 -0.1 0.7 -0.75 -0.85 -0.45 -2.1 0.65 -1.9 1.75 -1.75 2.2 -0.65 M12.2 1.55 L14.7 1.6 Q17.85 1.65 18.85 2.6 19.45 3.15 19.75 4.0 20.0 4.85 19.9 5.65 L19.25 7.1 Q18.65 7.7 17.75 7.8 17.45 7.25 16.35 6.5 15.3 5.8 15.1 5.1 15.45 4.55 17.0 5.55 17.3 4.8 16.35 4.55 L14.9 4.45 Q14.15 4.95 14.75 5.75 L16.25 7.2 Q17.3 8.15 17.45 8.75 17.7 9.7 16.5 10.5 L14.45 10.75 12.3 10.4 2.05 9.8 Q-3.35 9.95 -8.15 11.1 L-9.9 11.75 -11.85 12.55 Q-14.25 13.3 -15.4 12.3 -16.45 11.45 -16.2 10.4 -16.05 9.6 -15.1 8.5 L-13.8 6.7 Q-13.25 5.8 -13.75 5.25 -14.3 4.6 -15.4 4.85 -16.55 5.05 -16.85 5.9 L-15.4 5.45 Q-14.5 5.2 -14.25 5.85 L-15.15 7.45 -16.5 8.75 Q-18.55 8.35 -19.15 7.35 -19.7 6.5 -19.1 5.35 -18.55 4.3 -17.35 3.25 -16.2 2.3 -14.95 1.8 L-11.9 1.4 -8.65 1.45 Q-9.1 3.0 -8.85 4.25 -8.5 5.75 -7.15 6.4 -8.0 6.5 -9.2 7.15 -10.7 7.9 -11.15 8.05 L-10.95 8.35 Q-5.4 5.9 1.2 5.6 7.3 5.3 13.55 6.9 13.45 6.3 11.75 5.85 L9.5 5.4 Q10.8 2.85 10.05 1.25 L12.2 1.55 M13.25 11.3 L12.25 14.8 11.35 18.35 10.05 19.3 8.45 19.9 Q5.05 21.05 0.8 23.25 L-1.6 24.4 -3.45 24.8 Q-4.3 24.75 -5.05 24.2 L-6.7 22.25 Q-8.1 20.2 -11.5 13.3 L-9.7 12.65 -8.65 15.1 -7.35 17.65 Q-5.7 20.6 -3.7 21.6 2.75 18.8 10.8 17.1 L9.7 16.75 10.15 13.75 10.6 10.75 13.25 11.3" fill="#ffcc00" fill-rule="evenodd" stroke="none"/>
      <path d="M9.0 16.5 L9.1 16.85 2.65 18.7 -3.7 20.9 Q-8.1 16.85 -8.95 12.5 L-5.55 11.5 -2.05 10.95 -0.3 14.8 Q0.55 12.75 1.55 11.75 2.5 10.75 3.75 10.4 L6.45 10.25 9.85 10.6 9.5 13.6 9.0 16.5" fill="#ff6666" fill-rule="evenodd" stroke="none"/>
      <path d="M-0.5 13.95 L-1.6 10.85 0.35 10.6 2.35 10.35 0.8 12.1 Q-0.1 13.1 -0.5 13.95" fill="#ff3333" fill-rule="evenodd" stroke="none"/>
    </g>
    <g id="shape3" transform="matrix(1.0, 0.0, 0.0, 1.0, 3.2, 7.35)">
      <path d="M-2.25 -5.25 Q-1.3 -7.35 0.05 -7.35 1.35 -7.35 2.3 -5.25 3.25 -3.1 3.25 -0.05 3.25 3.0 2.3 5.15 1.35 7.3 0.05 7.3 -1.3 7.3 -2.25 5.15 -3.2 3.0 -3.2 -0.05 -3.2 -3.1 -2.25 -5.25" fill="#000000" fill-rule="evenodd" stroke="none"/>
    </g>
    <g id="shape4" transform="matrix(1.0, 0.0, 0.0, 1.0, 12.2, 15.7)">
      <path d="M2.1 -0.55 Q1.75 2.2 0.8 3.65 -1.0 1.75 -3.25 2.65 -4.25 3.0 -5.1 3.9 -5.95 4.7 -6.4 5.8 L-7.95 6.0 -9.5 6.0 -10.75 4.7 Q-11.35 4.15 -11.95 1.95 L-11.95 1.9 Q-12.4 0.25 -12.0 -1.6 L-12.0 -1.75 -11.6 -3.05 Q-10.7 -5.7 -9.3 -7.6 L-6.2 -11.1 Q-4.0 -13.55 -2.6 -15.7 -1.75 -14.4 -0.8 -11.7 0.1 -9.05 1.3 -6.15 2.2 -3.95 2.2 -1.8 L2.1 -0.55 M15.5 -1.45 L15.8 -0.45 Q16.05 0.65 15.9 1.8 L15.85 2.0 Q15.5 4.0 13.8 6.15 12.65 6.15 12.15 5.65 L11.85 5.75 Q10.85 3.35 9.15 2.55 7.2 1.7 5.1 3.25 3.25 1.3 3.15 -2.2 L3.15 -3.5 Q3.4 -7.95 3.95 -10.45 L4.95 -14.5 Q6.65 -12.2 9.6 -9.5 L13.75 -5.2 Q14.8 -3.9 15.5 -1.5 L3.95 -1.9 Q10.6 -0.45 15.05 1.55 12.8 -0.2 8.45 -1.5 11.75 -1.85 15.5 -1.45 M-3.35 -1.4 Q-7.25 -0.35 -11.95 1.95 -4.6 -0.85 2.2 -1.8 -4.15 -2.8 -10.45 -1.6 L-3.35 -1.4" fill="#ffffff" fill-rule="evenodd" stroke="none"/>
      <path d="M15.5 -1.5 L15.5 -1.45 Q11.75 -1.85 8.45 -1.5 12.8 -0.2 15.05 1.55 10.6 -0.45 3.95 -1.9 L15.5 -1.5 M-3.35 -1.4 L-10.45 -1.6 Q-4.15 -2.8 2.2 -1.8 -4.6 -0.85 -11.95 1.95 -7.25 -0.35 -3.35 -1.4" fill="#000000" fill-rule="evenodd" stroke="none"/>
    </g>
    <g id="sprite1" transform="matrix(1.0, 0.0, 0.0, 1.0, 1.55, 2.1)">
      <use height="6.05" transform="matrix(0.077, -0.4146, 0.4146, 0.077, 0.1853, 2.7934)" width="5.2" xlink:href="#shape5"/>
    </g>
    <g id="shape5" transform="matrix(1.0, 0.0, 0.0, 1.0, 2.6, 3.05)">
      <path d="M0.6 -1.05 L-1.45 -2.15 Q-0.2 -0.7 -0.3 0.0 L-0.05 1.6 0.8 2.55 1.75 2.65 2.25 2.0 Q2.4 1.45 1.85 0.5 L0.6 -1.05 M0.8 -1.3 L2.15 0.35 Q2.75 1.45 2.55 2.1 2.35 2.8 1.85 2.95 L0.7 2.85 Q0.05 2.55 -0.25 1.7 -0.6 0.9 -0.55 0.0 -0.5 -0.9 -2.6 -3.05 L0.8 -1.3" fill="#6699cc" fill-rule="evenodd" stroke="none"/>
      <path d="M0.6 -1.05 L1.85 0.5 Q2.4 1.45 2.25 2.0 L1.75 2.65 0.8 2.55 -0.05 1.6 -0.3 0.0 Q-0.2 -0.7 -1.45 -2.15 L0.6 -1.05" fill="#ffffff" fill-rule="evenodd" stroke="none"/>
    </g>
  </defs>
</svg>
