<?xml version="1.0" encoding="UTF-8" standalone="no"?>
<svg xmlns:xlink="http://www.w3.org/1999/xlink" height="148.55px" width="231.3px" xmlns="http://www.w3.org/2000/svg">
  <g transform="matrix(1.0, 0.0, 0.0, 1.0, 76.05, 23.75)">
    <use height="155.0" transform="matrix(0.8876, 0.0, 0.0, 0.8018, -24.1181, -17.7799)" width="202.1" xlink:href="#shape0"/>
    <use height="24.85" transform="matrix(0.5625, 0.0, 0.0, 0.5625, 126.5938, 78.3438)" width="36.8" xlink:href="#shape1"/>
    <use height="24.85" transform="matrix(0.3164, 0.0, 0.0, 0.3164, 136.0465, 99.4715)" width="36.8" xlink:href="#shape1"/>
    <use height="24.85" transform="matrix(0.2848, 0.0, 0.0, 0.2848, 135.2819, 117.7044)" width="36.8" xlink:href="#shape1"/>
    <use height="27.9" transform="matrix(-1.0, 0.0, 0.0, 1.0, 127.5, 37.95)" width="136.1" xlink:href="#text0"/>
  </g>
  <defs>
    <g id="shape0" transform="matrix(1.0, 0.0, 0.0, 1.0, 102.6, 76.3)">
      <path d="M85.8 18.25 Q97.4 8.55 97.4 -5.1 97.4 -18.8 85.8 -28.55 78.1 -35.05 68.25 -37.2 L67.8 -37.45 67.55 -37.9 Q65.7 -44.05 59.8 -48.85 51.15 -55.8 38.9 -55.8 L34.1 -55.5 33.45 -55.65 33.0 -56.15 Q30.85 -62.4 25.0 -67.3 15.75 -75.0 2.7 -75.0 -10.4 -75.0 -19.65 -67.3 L-22.5 -64.6 -22.85 -64.35 -23.35 -64.35 -31.4 -64.95 Q-46.2 -64.95 -56.7 -57.05 -66.35 -49.8 -66.95 -39.75 L-67.25 -39.15 Q-67.5 -38.9 -67.85 -38.8 -80.0 -37.4 -89.15 -30.0 -100.35 -20.9 -100.35 -8.05 -100.35 4.8 -89.15 13.9 -86.15 16.35 -82.8 18.15 L-82.45 18.45 -82.3 19.0 Q-82.3 19.25 -82.45 19.5 -86.2 25.85 -86.2 33.65 -86.2 46.15 -76.45 55.0 -66.6 63.9 -52.65 63.95 -45.1 63.95 -38.75 61.3 -38.4 61.15 -38.05 61.3 L-37.5 61.7 Q-35.2 65.6 -30.95 68.95 -21.3 76.45 -7.7 76.45 5.9 76.45 15.5 68.95 L15.55 68.95 Q20.05 65.4 22.45 61.2 L22.95 60.75 23.65 60.8 Q29.65 63.1 36.85 63.1 50.25 63.1 59.7 54.9 69.15 46.8 69.15 35.3 69.15 31.5 68.15 28.05 L68.1 27.55 68.4 27.1 68.85 26.85 Q78.35 24.55 85.8 18.25 M87.4 19.7 Q79.65 26.25 69.85 28.55 70.9 32.15 70.9 36.15 70.9 48.2 61.0 56.7 51.15 65.2 37.2 65.2 29.8 65.2 23.5 62.8 21.0 67.2 16.25 70.9 6.3 78.7 -7.85 78.7 -22.0 78.7 -32.0 70.9 -36.45 67.45 -38.9 63.35 -45.5 66.05 -53.35 66.05 -67.85 66.05 -78.1 56.8 -88.3 47.55 -88.3 34.45 -88.3 26.3 -84.35 19.65 -87.8 17.8 -90.9 15.3 -102.6 5.8 -102.6 -7.65 -102.6 -21.1 -90.9 -30.6 -81.45 -38.25 -68.85 -39.75 -68.25 -50.35 -58.05 -58.0 -47.2 -66.15 -31.85 -66.15 L-23.55 -65.5 -20.6 -68.3 Q-10.95 -76.3 2.65 -76.3 16.25 -76.3 25.85 -68.3 32.05 -63.15 34.3 -56.6 L39.3 -56.9 Q52.05 -56.9 61.05 -49.65 67.3 -44.6 69.2 -38.1 79.4 -35.85 87.4 -29.15 99.5 -19.0 99.5 -4.7 99.5 9.6 87.4 19.7" fill="#000000" fill-rule="evenodd" stroke="none"/>
      <path d="M85.8 18.25 Q78.35 24.55 68.85 26.85 L68.4 27.1 68.1 27.55 68.15 28.05 Q69.15 31.5 69.15 35.3 69.15 46.8 59.7 54.9 50.25 63.1 36.85 63.1 29.65 63.1 23.65 60.8 L22.95 60.75 22.45 61.2 Q20.05 65.4 15.55 68.95 L15.5 68.95 Q5.9 76.45 -7.7 76.45 -21.3 76.45 -30.95 68.95 -35.2 65.6 -37.5 61.7 L-38.05 61.3 Q-38.4 61.15 -38.75 61.3 -45.1 63.95 -52.65 63.95 -66.6 63.9 -76.45 55.0 -86.2 46.15 -86.2 33.65 -86.2 25.85 -82.45 19.5 -82.3 19.25 -82.3 19.0 L-82.45 18.45 -82.8 18.15 Q-86.15 16.35 -89.15 13.9 -100.35 4.8 -100.35 -8.05 -100.35 -20.9 -89.15 -30.0 -80.0 -37.4 -67.85 -38.8 -67.5 -38.9 -67.25 -39.15 L-66.95 -39.75 Q-66.35 -49.8 -56.7 -57.05 -46.2 -64.95 -31.4 -64.95 L-23.35 -64.35 -22.85 -64.35 -22.5 -64.6 -19.65 -67.3 Q-10.4 -75.0 2.7 -75.0 15.75 -75.0 25.0 -67.3 30.85 -62.4 33.0 -56.15 L33.45 -55.65 34.1 -55.5 38.9 -55.8 Q51.15 -55.8 59.8 -48.85 65.7 -44.05 67.55 -37.9 L67.8 -37.45 68.25 -37.2 Q78.1 -35.05 85.8 -28.55 97.4 -18.8 97.4 -5.1 97.4 8.55 85.8 18.25" fill="#ffffff" fill-rule="evenodd" stroke="none"/>
    </g>
    <g id="shape1" transform="matrix(1.0, 0.0, 0.0, 1.0, 18.5, 12.1)">
      <path d="M12.55 -8.1 Q17.8 -4.6 17.8 0.3 17.8 5.25 12.55 8.75 7.3 12.25 -0.1 12.25 -7.5 12.25 -12.75 8.75 -18.0 5.25 -18.0 0.3 -18.0 -4.6 -12.75 -8.1 -9.15 -10.5 -4.55 -11.25 L-0.1 -11.6 4.4 -11.25 Q8.95 -10.5 12.55 -8.1" fill="#ffffff" fill-rule="evenodd" stroke="none"/>
      <path d="M12.55 -8.1 Q17.8 -4.6 17.8 0.3 17.8 5.25 12.55 8.75 7.3 12.25 -0.1 12.25 -7.5 12.25 -12.75 8.75 -18.0 5.25 -18.0 0.3 -18.0 -4.6 -12.75 -8.1 -9.15 -10.5 -4.55 -11.25 L-0.1 -11.6 4.4 -11.25 Q8.95 -10.5 12.55 -8.1 Z" fill="none" stroke="#000000" stroke-linecap="round" stroke-linejoin="round" stroke-width="1.0"/>
    </g>
    <g id="text0" transform="matrix(1.0, 0.0, 0.0, 1.0, -10.65, -2.2)">
      <g transform="matrix(1.0, 0.0, 0.0, 1.0, 8.05, 0.0)">
        <use fill="#000000" fill-opacity="0.0" height="27.9" transform="matrix(0.2539, 0.0, 0.0, 0.2539, 0.1, 13.05)" width="136.1" xlink:href="#font_ComicBook_Normal__0"/>
        <use fill="#000000" fill-opacity="0.0" height="27.9" transform="matrix(0.2539, 0.0, 0.0, 0.2539, 6.75, 13.05)" width="136.1" xlink:href="#font_ComicBook_Normal_d0"/>
        <use fill="#000000" fill-opacity="0.0" height="27.9" transform="matrix(0.2539, 0.0, 0.0, 0.2539, 17.15, 13.05)" width="136.1" xlink:href="#font_ComicBook_Normal_o0"/>
        <use fill="#000000" fill-opacity="0.0" height="27.9" transform="matrix(0.2539, 0.0, 0.0, 0.2539, 33.25, 13.05)" width="136.1" xlink:href="#font_ComicBook_Normal_n0"/>
        <use fill="#000000" fill-opacity="0.0" height="27.9" transform="matrix(0.2539, 0.0, 0.0, 0.2539, 41.4, 13.05)" width="136.1" xlink:href="#font_ComicBook_Normal_o0"/>
        <use fill="#000000" fill-opacity="0.0" height="27.9" transform="matrix(0.2539, 0.0, 0.0, 0.2539, 52.45, 13.05)" width="136.1" xlink:href="#font_ComicBook_Normal_t0"/>
        <use fill="#000000" fill-opacity="0.0" height="27.9" transform="matrix(0.2539, 0.0, 0.0, 0.2539, 67.1, 13.05)" width="136.1" xlink:href="#font_ComicBook_Normal_t0"/>
        <use fill="#000000" fill-opacity="0.0" height="27.9" transform="matrix(0.2539, 0.0, 0.0, 0.2539, 76.7, 13.05)" width="136.1" xlink:href="#font_ComicBook_Normal_o0"/>
        <use fill="#000000" fill-opacity="0.0" height="27.9" transform="matrix(0.2539, 0.0, 0.0, 0.2539, 87.75, 13.05)" width="136.1" xlink:href="#font_ComicBook_Normal_u0"/>
        <use fill="#000000" fill-opacity="0.0" height="27.9" transform="matrix(0.2539, 0.0, 0.0, 0.2539, 98.0, 13.05)" width="136.1" xlink:href="#font_ComicBook_Normal_c0"/>
        <use fill="#000000" fill-opacity="0.0" height="27.9" transform="matrix(0.2539, 0.0, 0.0, 0.2539, 107.4, 13.05)" width="136.1" xlink:href="#font_ComicBook_Normal_h0"/>
        <use fill="#000000" fill-opacity="0.0" height="27.9" transform="matrix(0.2539, 0.0, 0.0, 0.2539, 116.4, 13.05)" width="136.1" xlink:href="#font_ComicBook_Normal__2"/>
        <use fill="#000000" fill-opacity="0.0" height="27.9" transform="matrix(0.2539, 0.0, 0.0, 0.2539, 121.15, 13.05)" width="136.1" xlink:href="#font_ComicBook_Normal__0"/>
      </g>
    </g>
    <g id="font_ComicBook_Normal__0">
      <path d="M37.5 -38.2 Q38.0 -37.1 37.6 -35.9 36.95 -33.9 32.65 -29.6 L28.75 -25.7 Q26.4 -23.7 24.9 -23.7 24.15 -23.7 23.45 -24.15 22.5 -24.85 23.0 -26.3 23.35 -27.4 26.2 -31.3 28.25 -34.25 30.95 -36.55 34.25 -39.3 36.05 -39.3 37.1 -39.3 37.5 -38.2 M23.9 -34.4 Q23.3 -32.6 19.95 -29.0 17.85 -26.7 15.35 -24.8 12.7 -22.75 11.25 -22.75 10.85 -22.75 10.55 -23.1 9.6 -23.95 9.95 -24.9 10.15 -25.6 11.95 -27.65 14.55 -30.85 17.9 -33.9 21.8 -37.4 23.35 -37.4 24.35 -37.4 24.25 -36.05 L23.9 -34.4" fill-rule="evenodd" stroke="none"/>
    </g>
    <g id="font_ComicBook_Normal_d0">
      <path d="M22.05 -30.15 L18.3 -21.4 15.45 -15.3 13.25 -10.55 13.1 -9.65 Q13.25 -8.85 14.3 -8.85 15.3 -8.85 17.45 -9.7 22.75 -11.6 29.3 -16.45 34.55 -20.3 39.2 -24.95 43.25 -29.05 43.7 -30.25 44.65 -32.95 41.35 -32.95 L37.35 -32.55 33.3 -32.1 Q29.55 -32.0 22.05 -30.15 M35.35 -39.85 L40.8 -40.2 43.05 -40.35 44.25 -40.45 47.5 -40.15 Q53.05 -38.6 52.15 -35.35 50.4 -30.2 44.1 -23.3 L39.4 -18.5 34.1 -13.85 28.5 -9.6 Q24.95 -7.2 21.9 -5.45 18.8 -3.65 15.8 -2.35 12.8 -1.05 9.8 -0.2 L5.2 0.5 Q3.15 0.5 2.3 -0.2 2.15 -0.25 2.4 -0.95 L5.45 -7.75 Q8.05 -13.35 9.25 -16.7 L11.25 -23.6 Q12.3 -27.95 12.9 -29.8 L14.05 -32.7 Q15.05 -34.95 16.5 -36.35 18.25 -38.1 20.0 -38.2 L20.05 -38.2 27.4 -38.95 35.35 -39.85" fill-rule="evenodd" stroke="none"/>
    </g>
    <g id="font_ComicBook_Normal_o0">
      <path d="M21.1 -26.25 Q19.0 -23.95 17.5 -21.5 16.0 -19.05 15.15 -16.45 13.85 -12.6 15.0 -10.8 16.6 -8.1 21.1 -8.1 23.95 -8.1 26.6 -9.1 29.25 -10.1 31.85 -12.15 38.35 -17.3 40.35 -23.25 41.8 -27.5 39.65 -30.2 38.1 -32.05 34.25 -32.05 30.9 -32.05 27.55 -30.65 23.75 -29.15 21.1 -26.25 M37.55 -39.95 Q41.25 -39.95 44.1 -38.8 46.85 -37.65 47.7 -35.75 L48.65 -32.8 49.0 -29.6 Q49.05 -28.0 48.7 -26.1 L47.75 -22.4 Q45.1 -14.65 38.05 -8.05 35.9 -6.05 33.55 -4.55 31.2 -3.05 28.55 -2.0 23.5 0.0 18.7 0.0 14.05 0.0 10.8 -1.8 9.0 -2.8 7.95 -4.15 6.9 -5.5 6.4 -7.2 5.25 -11.3 6.85 -16.0 8.8 -21.75 14.5 -27.85 18.9 -32.5 23.4 -35.5 30.1 -39.95 37.55 -39.95" fill-rule="evenodd" stroke="none"/>
    </g>
    <g id="font_ComicBook_Normal_n0">
      <path d="M37.25 -24.95 L36.25 -22.2 Q35.25 -19.25 34.2 -15.05 L32.4 -7.15 Q31.95 -5.8 31.15 -4.85 L29.1 -3.25 Q26.7 -2.05 24.1 -2.05 21.65 -2.05 19.6 -4.8 17.4 -7.6 14.25 -14.3 L13.3 -13.95 Q12.95 -13.9 12.8 -13.45 L11.75 -10.55 10.7 -7.05 9.95 -4.25 Q9.5 -2.85 8.7 -2.0 7.9 -1.15 6.55 -0.65 L4.3 -0.2 Q2.2 -0.2 2.55 -2.75 2.7 -4.2 3.2 -5.65 3.8 -7.35 5.75 -11.05 7.6 -14.45 8.4 -16.85 L8.7 -17.65 9.0 -18.5 9.35 -19.45 9.8 -20.55 11.0 -23.9 Q11.9 -26.5 12.25 -28.65 12.6 -30.85 12.45 -32.7 12.4 -33.2 12.65 -33.85 13.05 -35.1 14.2 -36.1 15.35 -37.15 16.7 -37.2 L16.75 -37.25 Q19.85 -37.25 21.05 -33.7 21.45 -32.45 21.05 -30.6 20.5 -28.0 20.55 -27.25 L20.55 -25.85 20.5 -24.55 Q20.5 -23.25 20.8 -22.05 21.45 -19.75 23.1 -16.7 24.8 -13.6 25.7 -13.45 26.85 -13.45 28.15 -16.05 L29.55 -19.75 29.95 -21.1 31.25 -24.25 32.6 -27.65 34.55 -32.85 35.15 -34.45 35.65 -35.8 Q36.1 -37.25 36.95 -38.5 38.95 -41.4 41.6 -41.4 42.9 -41.35 43.4 -40.3 44.0 -39.25 43.55 -38.0 42.7 -35.5 40.45 -31.4 38.1 -27.3 37.25 -24.95" fill-rule="evenodd" stroke="none"/>
    </g>
    <g id="font_ComicBook_Normal_t0">
      <path d="M24.25 -31.7 L18.8 -31.15 Q17.15 -31.15 16.35 -31.95 15.4 -32.8 15.95 -34.35 16.5 -35.85 18.1 -36.95 19.75 -38.05 21.2 -38.05 L25.9 -38.3 32.95 -38.9 40.4 -39.5 47.3 -39.8 Q49.1 -39.8 50.05 -39.05 51.2 -38.2 50.65 -36.65 50.1 -35.0 48.4 -33.75 46.75 -32.5 45.05 -32.35 L36.1 -31.9 Q35.55 -31.8 34.75 -31.25 L33.95 -30.2 Q33.85 -27.5 32.9 -24.75 L31.15 -20.6 28.95 -15.9 26.45 -9.8 23.2 -3.2 Q22.55 -2.0 21.1 -1.2 19.7 -0.45 18.25 -0.45 L15.85 -0.9 Q14.85 -1.5 15.25 -2.65 L16.3 -5.15 17.35 -7.65 19.65 -13.25 Q21.5 -17.55 23.35 -23.05 L25.15 -29.45 25.4 -30.2 25.6 -31.05 Q25.65 -31.7 24.25 -31.7" fill-rule="evenodd" stroke="none"/>
    </g>
    <g id="font_ComicBook_Normal_u0">
      <path d="M24.45 -36.1 L24.25 -32.25 23.95 -30.65 Q23.45 -29.3 21.9 -27.05 L19.4 -23.4 15.65 -16.0 13.85 -12.9 Q12.85 -11.15 12.55 -10.15 11.95 -7.85 16.15 -7.85 L21.1 -8.3 Q31.55 -9.35 33.5 -13.95 L36.95 -21.1 40.3 -28.2 41.0 -30.95 Q41.65 -32.8 42.25 -33.75 46.35 -40.15 48.75 -40.15 50.05 -40.15 51.0 -39.15 52.0 -38.25 51.55 -36.95 L51.35 -36.55 Q45.95 -27.5 43.85 -22.1 L41.35 -15.55 Q39.2 -9.15 40.0 -3.85 40.2 -3.2 39.95 -2.6 39.3 -0.65 34.4 -0.65 32.75 -0.75 30.75 -1.45 L29.75 -1.9 28.55 -2.4 Q21.2 0.35 16.75 0.35 1.9 -0.4 4.65 -9.2 6.25 -14.0 9.15 -19.05 L14.5 -28.5 15.6 -31.6 16.8 -34.65 Q17.55 -36.2 19.15 -37.1 20.55 -37.95 22.3 -37.95 24.05 -37.85 24.45 -36.1" fill-rule="evenodd" stroke="none"/>
    </g>
    <g id="font_ComicBook_Normal_c0">
      <path d="M40.35 -40.55 Q43.15 -40.3 44.35 -37.95 45.5 -35.6 44.8 -32.45 L44.15 -30.3 Q41.55 -22.6 37.9 -22.3 35.25 -22.3 36.3 -27.55 36.5 -29.5 36.15 -30.15 35.7 -31.15 33.75 -31.15 31.3 -31.15 26.05 -27.0 21.35 -23.2 16.85 -18.3 12.25 -13.25 11.55 -11.15 L11.4 -10.55 Q11.45 -8.2 15.65 -8.2 19.75 -8.2 24.3 -9.65 L31.7 -12.4 Q35.7 -13.95 37.75 -14.05 39.35 -14.05 40.0 -13.55 40.65 -13.05 40.35 -11.95 39.55 -9.5 37.2 -7.5 34.9 -5.55 30.85 -3.75 23.25 -0.35 17.4 -0.35 11.1 -0.35 7.15 -2.75 2.5 -5.5 4.25 -10.6 6.75 -17.6 14.55 -25.2 17.75 -28.35 21.55 -31.25 25.3 -34.15 29.25 -36.45 32.85 -38.55 35.55 -39.55 38.25 -40.55 40.35 -40.55" fill-rule="evenodd" stroke="none"/>
    </g>
    <g id="font_ComicBook_Normal_h0">
      <path d="M39.1 -37.5 L40.75 -39.15 Q41.75 -40.0 42.8 -40.15 44.6 -40.15 45.2 -39.05 45.7 -38.15 45.4 -36.75 L42.35 -28.9 39.15 -21.1 36.15 -12.75 33.3 -3.95 Q32.95 -2.85 31.9 -2.2 30.7 -1.5 29.4 -1.4 26.25 -1.4 26.75 -3.95 L27.1 -5.3 28.05 -7.45 28.95 -9.7 29.6 -11.2 30.15 -12.75 30.4 -14.15 Q30.4 -15.15 29.6 -15.4 L27.95 -15.85 26.35 -16.05 24.05 -15.75 21.55 -15.35 18.65 -15.35 Q17.05 -15.35 15.7 -14.75 L14.7 -14.25 13.8 -13.85 Q12.85 -13.4 12.5 -12.65 L11.3 -9.75 10.4 -6.4 9.35 -2.85 Q8.95 -1.65 7.85 -0.85 6.8 0.0 5.55 0.0 3.0 0.0 2.6 -1.05 2.4 -1.55 2.85 -3.75 L4.15 -8.5 5.25 -12.05 6.75 -16.15 Q7.7 -18.55 9.85 -22.5 L13.1 -28.95 13.6 -31.1 14.1 -33.05 Q14.45 -34.1 15.05 -34.95 18.25 -39.25 21.15 -39.25 L21.05 -39.2 Q22.6 -39.15 23.6 -38.3 24.3 -37.6 23.85 -36.2 L19.75 -28.2 17.65 -24.75 16.15 -22.15 Q15.85 -21.25 17.05 -21.25 L24.15 -22.5 26.1 -22.85 28.05 -23.1 29.9 -23.4 Q32.9 -23.95 34.15 -25.7 34.85 -26.7 35.4 -28.35 L36.25 -31.2 36.95 -33.1 37.35 -34.6 Q37.9 -36.2 39.1 -37.5" fill-rule="evenodd" stroke="none"/>
    </g>
    <g id="font_ComicBook_Normal__2">
      <path d="M27.3 -42.55 L28.9 -42.75 Q31.2 -42.75 31.9 -40.85 32.5 -39.05 31.55 -36.25 30.7 -33.8 28.95 -31.4 L27.35 -28.35 Q25.9 -25.6 25.4 -24.05 25.05 -23.05 25.2 -22.95 L24.1 -20.75 22.75 -18.25 Q20.4 -13.95 17.65 -13.95 L16.05 -14.35 Q13.95 -15.45 15.6 -20.3 L15.95 -21.1 16.95 -23.5 19.25 -29.15 20.3 -31.9 Q21.5 -35.45 21.55 -38.0 22.7 -41.45 27.3 -42.55 M8.85 -5.15 Q9.1 -5.95 9.65 -6.8 10.65 -8.3 12.5 -9.3 14.4 -10.25 16.05 -10.25 17.6 -10.25 18.5 -9.35 19.95 -7.9 19.1 -5.4 L18.25 -3.65 Q17.25 -2.0 15.5 -0.95 13.8 0.1 12.0 0.15 10.0 0.15 9.05 -1.45 8.15 -3.1 8.85 -5.15" fill-rule="evenodd" stroke="none"/>
    </g>
  </defs>
</svg>
