<?xml version="1.0" encoding="UTF-8" standalone="no"?>
<svg xmlns:xlink="http://www.w3.org/1999/xlink" height="148.55px" width="231.3px" xmlns="http://www.w3.org/2000/svg">
  <g transform="matrix(1.0, 0.0, 0.0, 1.0, 76.05, 23.75)">
    <use height="155.0" transform="matrix(0.8876, 0.0, 0.0, 0.8018, -24.1181, -17.7799)" width="202.1" xlink:href="#shape0"/>
    <use height="24.85" transform="matrix(0.5625, 0.0, 0.0, 0.5625, 126.5938, 78.3438)" width="36.8" xlink:href="#shape1"/>
    <use height="24.85" transform="matrix(0.3164, 0.0, 0.0, 0.3164, 136.0465, 99.4715)" width="36.8" xlink:href="#shape1"/>
    <use height="24.85" transform="matrix(0.2848, 0.0, 0.0, 0.2848, 135.2819, 117.7044)" width="36.8" xlink:href="#shape1"/>
    <use height="10.9" transform="matrix(1.6104, 0.0, 0.0, 1.6104, -3.9341, 35.6486)" width="73.75" xlink:href="#sprite0"/>
  </g>
  <defs>
    <g id="shape0" transform="matrix(1.0, 0.0, 0.0, 1.0, 102.6, 76.3)">
      <path d="M85.8 18.25 Q97.4 8.55 97.4 -5.1 97.4 -18.8 85.8 -28.55 78.1 -35.05 68.25 -37.2 L67.8 -37.45 67.55 -37.9 Q65.7 -44.05 59.8 -48.85 51.15 -55.8 38.9 -55.8 L34.1 -55.5 33.45 -55.65 33.0 -56.15 Q30.85 -62.4 25.0 -67.3 15.75 -75.0 2.7 -75.0 -10.4 -75.0 -19.65 -67.3 L-22.5 -64.6 -22.85 -64.35 -23.35 -64.35 -31.4 -64.95 Q-46.2 -64.95 -56.7 -57.05 -66.35 -49.8 -66.95 -39.75 L-67.25 -39.15 Q-67.5 -38.9 -67.85 -38.8 -80.0 -37.4 -89.15 -30.0 -100.35 -20.9 -100.35 -8.05 -100.35 4.8 -89.15 13.9 -86.15 16.35 -82.8 18.15 L-82.45 18.45 -82.3 19.0 Q-82.3 19.25 -82.45 19.5 -86.2 25.85 -86.2 33.65 -86.2 46.15 -76.45 55.0 -66.6 63.9 -52.65 63.95 -45.1 63.95 -38.75 61.3 -38.4 61.15 -38.05 61.3 L-37.5 61.7 Q-35.2 65.6 -30.95 68.95 -21.3 76.45 -7.7 76.45 5.9 76.45 15.5 68.95 L15.55 68.95 Q20.05 65.4 22.45 61.2 L22.95 60.75 23.65 60.8 Q29.65 63.1 36.85 63.1 50.25 63.1 59.7 54.9 69.15 46.8 69.15 35.3 69.15 31.5 68.15 28.05 L68.1 27.55 68.4 27.1 68.85 26.85 Q78.35 24.55 85.8 18.25 M87.4 19.7 Q79.65 26.25 69.85 28.55 70.9 32.15 70.9 36.15 70.9 48.2 61.0 56.7 51.15 65.2 37.2 65.2 29.8 65.2 23.5 62.8 21.0 67.2 16.25 70.9 6.3 78.7 -7.85 78.7 -22.0 78.7 -32.0 70.9 -36.45 67.45 -38.9 63.35 -45.5 66.05 -53.35 66.05 -67.85 66.05 -78.1 56.8 -88.3 47.55 -88.3 34.45 -88.3 26.3 -84.35 19.65 -87.8 17.8 -90.9 15.3 -102.6 5.8 -102.6 -7.65 -102.6 -21.1 -90.9 -30.6 -81.45 -38.25 -68.85 -39.75 -68.25 -50.35 -58.05 -58.0 -47.2 -66.15 -31.85 -66.15 L-23.55 -65.5 -20.6 -68.3 Q-10.95 -76.3 2.65 -76.3 16.25 -76.3 25.85 -68.3 32.05 -63.15 34.3 -56.6 L39.3 -56.9 Q52.05 -56.9 61.05 -49.65 67.3 -44.6 69.2 -38.1 79.4 -35.85 87.4 -29.15 99.5 -19.0 99.5 -4.7 99.5 9.6 87.4 19.7" fill="#000000" fill-rule="evenodd" stroke="none"/>
      <path d="M85.8 18.25 Q78.35 24.55 68.85 26.85 L68.4 27.1 68.1 27.55 68.15 28.05 Q69.15 31.5 69.15 35.3 69.15 46.8 59.7 54.9 50.25 63.1 36.85 63.1 29.65 63.1 23.65 60.8 L22.95 60.75 22.45 61.2 Q20.05 65.4 15.55 68.95 L15.5 68.95 Q5.9 76.45 -7.7 76.45 -21.3 76.45 -30.95 68.95 -35.2 65.6 -37.5 61.7 L-38.05 61.3 Q-38.4 61.15 -38.75 61.3 -45.1 63.95 -52.65 63.95 -66.6 63.9 -76.45 55.0 -86.2 46.15 -86.2 33.65 -86.2 25.85 -82.45 19.5 -82.3 19.25 -82.3 19.0 L-82.45 18.45 -82.8 18.15 Q-86.15 16.35 -89.15 13.9 -100.35 4.8 -100.35 -8.05 -100.35 -20.9 -89.15 -30.0 -80.0 -37.4 -67.85 -38.8 -67.5 -38.9 -67.25 -39.15 L-66.95 -39.75 Q-66.35 -49.8 -56.7 -57.05 -46.2 -64.95 -31.4 -64.95 L-23.35 -64.35 -22.85 -64.35 -22.5 -64.6 -19.65 -67.3 Q-10.4 -75.0 2.7 -75.0 15.75 -75.0 25.0 -67.3 30.85 -62.4 33.0 -56.15 L33.45 -55.65 34.1 -55.5 38.9 -55.8 Q51.15 -55.8 59.8 -48.85 65.7 -44.05 67.55 -37.9 L67.8 -37.45 68.25 -37.2 Q78.1 -35.05 85.8 -28.55 97.4 -18.8 97.4 -5.1 97.4 8.55 85.8 18.25" fill="#ffffff" fill-rule="evenodd" stroke="none"/>
    </g>
    <g id="shape1" transform="matrix(1.0, 0.0, 0.0, 1.0, 18.5, 12.1)">
      <path d="M12.55 -8.1 Q17.8 -4.6 17.8 0.3 17.8 5.25 12.55 8.75 7.3 12.25 -0.1 12.25 -7.5 12.25 -12.75 8.75 -18.0 5.25 -18.0 0.3 -18.0 -4.6 -12.75 -8.1 -9.15 -10.5 -4.55 -11.25 L-0.1 -11.6 4.4 -11.25 Q8.95 -10.5 12.55 -8.1" fill="#ffffff" fill-rule="evenodd" stroke="none"/>
      <path d="M12.55 -8.1 Q17.8 -4.6 17.8 0.3 17.8 5.25 12.55 8.75 7.3 12.25 -0.1 12.25 -7.5 12.25 -12.75 8.75 -18.0 5.25 -18.0 0.3 -18.0 -4.6 -12.75 -8.1 -9.15 -10.5 -4.55 -11.25 L-0.1 -11.6 4.4 -11.25 Q8.95 -10.5 12.55 -8.1 Z" fill="none" stroke="#000000" stroke-linecap="round" stroke-linejoin="round" stroke-width="1.0"/>
    </g>
    <g id="sprite0" transform="matrix(1.0, 0.0, 0.0, 1.0, 42.65, 5.9)">
      <use height="10.9" transform="matrix(-1.0, 0.0, 0.0, 1.0, 31.1, -5.9)" width="73.75" xlink:href="#text0"/>
    </g>
    <g id="text0" transform="matrix(1.0, 0.0, 0.0, 1.0, -40.9, -2.2)">
      <g transform="matrix(1.0, 0.0, 0.0, 1.0, 40.15, 0.0)">
        <use fill="#000000" fill-opacity="0.6666667" height="10.9" transform="matrix(0.2539, 0.0, 0.0, 0.2539, 0.1, 13.05)" width="73.75" xlink:href="#font_ComicBook_Normal_P0"/>
        <use fill="#000000" fill-opacity="0.6666667" height="10.9" transform="matrix(0.2539, 0.0, 0.0, 0.2539, 9.3, 13.05)" width="73.75" xlink:href="#font_ComicBook_Normal_h0"/>
        <use fill="#000000" fill-opacity="0.6666667" height="10.9" transform="matrix(0.2539, 0.0, 0.0, 0.2539, 18.3, 13.05)" width="73.75" xlink:href="#font_ComicBook_Normal_o0"/>
        <use fill="#000000" fill-opacity="0.6666667" height="10.9" transform="matrix(0.2539, 0.0, 0.0, 0.2539, 29.35, 13.05)" width="73.75" xlink:href="#font_ComicBook_Normal_o0"/>
        <use fill="#000000" fill-opacity="0.6666667" height="10.9" transform="matrix(0.2539, 0.0, 0.0, 0.2539, 40.4, 13.05)" width="73.75" xlink:href="#font_ComicBook_Normal_e0"/>
        <use fill="#000000" fill-opacity="0.6666667" height="10.9" transform="matrix(0.2539, 0.0, 0.0, 0.2539, 49.45, 13.05)" width="73.75" xlink:href="#font_ComicBook_Normal_y0"/>
        <use fill="#000000" fill-opacity="0.6666667" height="10.9" transform="matrix(0.2539, 0.0, 0.0, 0.2539, 58.85, 13.05)" width="73.75" xlink:href="#font_ComicBook_Normal__0"/>
      </g>
    </g>
    <g id="font_ComicBook_Normal_P0">
      <path d="M27.85 -32.4 Q25.15 -32.4 19.8 -30.65 L16.15 -19.9 Q21.35 -20.8 25.55 -22.0 35.25 -24.85 36.7 -28.75 37.65 -31.45 34.45 -32.1 L27.85 -32.4 M34.8 -40.2 Q41.0 -40.2 44.0 -38.2 45.2 -37.4 45.8 -36.3 46.4 -35.2 46.35 -33.6 46.35 -32.05 45.7 -30.25 44.2 -26.25 39.15 -22.3 35.6 -19.55 29.1 -16.1 26.2 -14.5 22.2 -13.9 L16.3 -13.7 Q13.6 -13.7 13.45 -13.3 L12.9 -11.85 12.0 -9.0 11.0 -5.7 Q10.1 -3.1 8.9 -1.75 7.45 -0.2 5.6 -0.15 3.8 -0.15 3.0 -1.3 2.3 -2.6 2.8 -4.65 L3.25 -6.1 5.0 -10.05 6.9 -14.2 9.0 -20.55 Q10.5 -25.0 11.35 -26.9 L14.35 -33.4 Q16.05 -36.85 16.9 -37.25 20.4 -39.05 31.35 -40.05 L34.8 -40.2" fill-rule="evenodd" stroke="none"/>
    </g>
    <g id="font_ComicBook_Normal_h0">
      <path d="M39.1 -37.5 L40.75 -39.15 Q41.75 -40.0 42.8 -40.15 44.6 -40.15 45.2 -39.05 45.7 -38.15 45.4 -36.75 L42.35 -28.9 39.15 -21.1 36.15 -12.75 33.3 -3.95 Q32.95 -2.85 31.9 -2.2 30.7 -1.5 29.4 -1.4 26.25 -1.4 26.75 -3.95 L27.1 -5.3 28.05 -7.45 28.95 -9.7 29.6 -11.2 30.15 -12.75 30.4 -14.15 Q30.4 -15.15 29.6 -15.4 L27.95 -15.85 26.35 -16.05 24.05 -15.75 21.55 -15.35 18.65 -15.35 Q17.05 -15.35 15.7 -14.75 L14.7 -14.25 13.8 -13.85 Q12.85 -13.4 12.5 -12.65 L11.3 -9.75 10.4 -6.4 9.35 -2.85 Q8.95 -1.65 7.85 -0.85 6.8 0.0 5.55 0.0 3.0 0.0 2.6 -1.05 2.4 -1.55 2.85 -3.75 L4.15 -8.5 5.25 -12.05 6.75 -16.15 Q7.7 -18.55 9.85 -22.5 L13.1 -28.95 13.6 -31.1 14.1 -33.05 Q14.45 -34.1 15.05 -34.95 18.25 -39.25 21.15 -39.25 L21.05 -39.2 Q22.6 -39.15 23.6 -38.3 24.3 -37.6 23.85 -36.2 L19.75 -28.2 17.65 -24.75 16.15 -22.15 Q15.85 -21.25 17.05 -21.25 L24.15 -22.5 26.1 -22.85 28.05 -23.1 29.9 -23.4 Q32.9 -23.95 34.15 -25.7 34.85 -26.7 35.4 -28.35 L36.25 -31.2 36.95 -33.1 37.35 -34.6 Q37.9 -36.2 39.1 -37.5" fill-rule="evenodd" stroke="none"/>
    </g>
    <g id="font_ComicBook_Normal_o0">
      <path d="M21.1 -26.25 Q19.0 -23.95 17.5 -21.5 16.0 -19.05 15.15 -16.45 13.85 -12.6 15.0 -10.8 16.6 -8.1 21.1 -8.1 23.95 -8.1 26.6 -9.1 29.25 -10.1 31.85 -12.15 38.35 -17.3 40.35 -23.25 41.8 -27.5 39.65 -30.2 38.1 -32.05 34.25 -32.05 30.9 -32.05 27.55 -30.65 23.75 -29.15 21.1 -26.25 M37.55 -39.95 Q41.25 -39.95 44.1 -38.8 46.85 -37.65 47.7 -35.75 L48.65 -32.8 49.0 -29.6 Q49.05 -28.0 48.7 -26.1 L47.75 -22.4 Q45.1 -14.65 38.05 -8.05 35.9 -6.05 33.55 -4.55 31.2 -3.05 28.55 -2.0 23.5 0.0 18.7 0.0 14.05 0.0 10.8 -1.8 9.0 -2.8 7.95 -4.15 6.9 -5.5 6.4 -7.2 5.25 -11.3 6.85 -16.0 8.8 -21.75 14.5 -27.85 18.9 -32.5 23.4 -35.5 30.1 -39.95 37.55 -39.95" fill-rule="evenodd" stroke="none"/>
    </g>
    <g id="font_ComicBook_Normal_e0">
      <path d="M22.3 -29.85 Q18.1 -28.1 16.85 -24.3 L16.6 -23.25 Q16.55 -22.2 17.8 -22.2 L18.95 -22.35 19.95 -22.35 Q22.6 -22.5 28.5 -24.15 34.05 -25.65 37.3 -25.65 38.95 -25.65 40.0 -24.6 40.95 -23.6 40.45 -22.0 39.95 -20.5 38.95 -19.5 37.65 -18.1 36.15 -18.1 L29.2 -17.05 22.15 -15.25 17.55 -14.75 13.55 -14.2 Q12.85 -14.0 12.4 -13.0 L11.9 -11.2 11.45 -10.0 11.15 -8.95 Q11.1 -8.55 11.4 -8.35 12.55 -7.6 14.45 -7.6 16.85 -7.6 22.65 -9.15 28.85 -10.85 31.7 -11.2 33.65 -11.2 34.5 -10.5 35.55 -9.55 35.2 -8.05 34.55 -6.15 33.2 -5.1 31.65 -3.95 29.45 -3.65 L18.85 -1.8 Q12.3 -0.3 8.15 0.05 5.05 0.05 3.85 -0.95 2.6 -2.0 3.05 -4.05 L3.7 -6.6 Q4.3 -8.45 6.1 -11.8 8.25 -15.9 8.8 -17.35 L9.65 -19.75 11.05 -24.2 12.4 -28.2 Q13.35 -30.45 14.15 -31.6 16.3 -34.75 20.25 -36.15 22.95 -37.05 25.4 -37.25 L30.65 -37.75 37.7 -39.1 41.25 -39.6 44.85 -39.95 Q45.95 -39.95 46.45 -39.05 46.9 -38.15 46.7 -36.8 45.95 -34.65 44.65 -33.5 42.9 -32.1 40.95 -31.95 L35.4 -31.4 29.85 -31.25 Q25.7 -31.25 22.3 -29.85" fill-rule="evenodd" stroke="none"/>
    </g>
    <g id="font_ComicBook_Normal_y0">
      <path d="M37.55 -33.4 L41.55 -37.1 Q43.35 -38.75 45.35 -38.75 46.8 -38.6 47.4 -37.65 48.1 -36.8 47.75 -35.8 L47.1 -34.8 28.05 -17.15 20.95 -9.75 Q17.3 -5.9 13.1 -2.3 L10.9 -0.6 Q9.95 0.0 8.75 0.0 7.65 -0.15 7.05 -0.9 6.5 -1.65 6.8 -2.55 7.65 -5.1 10.15 -7.35 L14.9 -11.2 Q18.0 -13.45 19.3 -15.2 19.9 -15.95 20.1 -16.6 20.45 -17.6 20.0 -18.4 L17.6 -23.75 Q16.6 -26.2 15.75 -28.6 13.8 -34.0 13.45 -36.85 L13.55 -37.55 Q14.25 -39.65 19.65 -40.15 21.75 -40.15 22.3 -38.35 L23.3 -34.4 24.0 -31.75 24.6 -29.1 24.8 -25.9 Q24.95 -24.5 26.4 -24.4 27.45 -24.4 29.15 -25.8 L32.55 -28.55 35.1 -30.95 37.55 -33.4" fill-rule="evenodd" stroke="none"/>
    </g>
    <g id="font_ComicBook_Normal__0">
      <path d="M27.3 -42.55 L28.9 -42.75 Q31.2 -42.75 31.9 -40.85 32.5 -39.05 31.55 -36.25 30.7 -33.8 28.95 -31.4 L27.35 -28.35 Q25.9 -25.6 25.4 -24.05 25.05 -23.05 25.2 -22.95 L24.1 -20.75 22.75 -18.25 Q20.4 -13.95 17.65 -13.95 L16.05 -14.35 Q13.95 -15.45 15.6 -20.3 L15.95 -21.1 16.95 -23.5 19.25 -29.15 20.3 -31.9 Q21.5 -35.45 21.55 -38.0 22.7 -41.45 27.3 -42.55 M8.85 -5.15 Q9.1 -5.95 9.65 -6.8 10.65 -8.3 12.5 -9.3 14.4 -10.25 16.05 -10.25 17.6 -10.25 18.5 -9.35 19.95 -7.9 19.1 -5.4 L18.25 -3.65 Q17.25 -2.0 15.5 -0.95 13.8 0.1 12.0 0.15 10.0 0.15 9.05 -1.45 8.15 -3.1 8.85 -5.15" fill-rule="evenodd" stroke="none"/>
    </g>
  </defs>
</svg>
