<?xml version="1.0" encoding="UTF-8" standalone="no"?>
<svg xmlns:xlink="http://www.w3.org/1999/xlink" height="26.6px" width="33.2px" xmlns="http://www.w3.org/2000/svg">
  <g transform="matrix(1.0, 0.0, 0.0, 1.0, 4.2, -1.1)">
    <use height="26.6" transform="matrix(1.0, 0.0, 0.0, 1.0, -4.2, 1.1)" width="33.2" xlink:href="#shape0"/>
  </g>
  <defs>
    <g id="shape0" transform="matrix(1.0, 0.0, 0.0, 1.0, 4.2, -1.1)">
      <path d="M25.2 6.5 Q28.0 7.3 28.0 9.1 28.0 10.9 25.4 11.5 L21.2 22.1 Q14.8 23.9 10.4 24.7 L-1.0 26.7 Q0.4 23.1 -0.2 20.9 -0.8 18.7 -3.2 17.1 2.0 12.3 3.6 11.3 5.2 10.3 10.8 5.3 9.2 3.5 11.2 2.5 13.2 1.5 14.6 3.1 14.8 2.6 15.8 2.7 16.55 2.8 16.8 3.3 18.0 2.1 21.0 3.1 24.0 4.1 25.2 6.5" fill="#c4b47c" fill-rule="evenodd" stroke="none"/>
      <path d="M25.2 6.5 Q24.0 4.1 21.0 3.1 18.0 2.1 16.8 3.3 16.55 2.8 15.8 2.7 14.8 2.6 14.6 3.1 13.2 1.5 11.2 2.5 9.2 3.5 10.8 5.3 5.2 10.3 3.6 11.3 2.0 12.3 -3.2 17.1 -0.8 18.7 -0.2 20.9 0.4 23.1 -1.0 26.7 L10.4 24.7 Q14.8 23.9 21.2 22.1 L25.4 11.5 Q28.0 10.9 28.0 9.1 28.0 7.3 25.2 6.5 Z" fill="none" stroke="#514b2d" stroke-linecap="round" stroke-linejoin="round" stroke-width="2.0"/>
      <path d="M27.55 9.6 Q27.45 9.45 27.5 9.15 L27.55 8.6 Q27.55 7.95 26.8 7.75 24.6 7.1 23.8 9.15 L-2.8 17.15 Q-0.55 19.55 -0.2 20.95 0.4 23.15 -1.0 26.35 L10.4 24.35 Q14.8 23.55 21.2 21.75 L25.0 11.55 Q27.15 11.05 27.55 9.6" fill="#f0e4b5" fill-rule="evenodd" stroke="none"/>
      <path d="M20.5 21.4 L22.1 16.45 Q23.5 13.45 23.7 11.85 23.9 10.25 23.3 10.25 L-2.3 18.1 Q-0.95 19.45 -0.5 21.25 0.05 23.25 -0.8 25.8 L9.0 23.9 20.5 21.4" fill="#5c5d8e" fill-rule="evenodd" stroke="none"/>
      <path d="M20.5 21.4 L9.0 23.9 -0.8 25.8 Q0.05 23.25 -0.5 21.25 -0.95 19.45 -2.3 18.1 L23.3 10.25 Q23.9 10.25 23.7 11.85 23.5 13.45 22.1 16.45 L20.5 21.4 Z" fill="none" stroke="#313253" stroke-linecap="round" stroke-linejoin="round" stroke-width="1.0"/>
      <path d="M13.0 9.5 Q11.4 9.3 10.0 10.9" fill="none" stroke="#9d9269" stroke-linecap="round" stroke-linejoin="round" stroke-width="1.0"/>
      <path d="M12.4 4.7 Q19.4 5.1 22.4 8.5" fill="none" stroke="#58502e" stroke-linecap="round" stroke-linejoin="round" stroke-width="2.0"/>
      <path d="M9.8 19.9 Q9.8 21.0 10.45 21.75 11.15 22.5 12.1 22.5 13.05 22.5 13.7 21.75 14.4 21.0 14.4 19.9 14.4 18.85 13.7 18.05 13.05 17.3 12.1 17.3 11.15 17.3 10.45 18.05 9.8 18.85 9.8 19.9" fill="url(#gradient0)" fill-rule="evenodd" stroke="none"/>
      <path d="M9.8 19.9 Q9.8 18.85 10.45 18.05 11.15 17.3 12.1 17.3 13.05 17.3 13.7 18.05 14.4 18.85 14.4 19.9 14.4 21.0 13.7 21.75 13.05 22.5 12.1 22.5 11.15 22.5 10.45 21.75 9.8 21.0 9.8 19.9 Z" fill="none" stroke="#1d1e5f" stroke-linecap="round" stroke-linejoin="round" stroke-width="1.0"/>
      <path d="M4.85 20.8 Q4.75 21.5 5.05 22.0 L5.85 22.5 Q6.35 22.5 6.75 22.0 L7.25 20.8 Q7.35 20.1 7.1 19.6 6.85 19.1 6.35 19.1 5.85 19.1 5.4 19.6 4.95 20.1 4.85 20.8" fill="url(#gradient1)" fill-rule="evenodd" stroke="none"/>
      <path d="M4.85 20.8 Q4.95 20.1 5.4 19.6 5.85 19.1 6.35 19.1 6.85 19.1 7.1 19.6 7.35 20.1 7.25 20.8 L6.75 22.0 Q6.35 22.5 5.85 22.5 L5.05 22.0 Q4.75 21.5 4.85 20.8 Z" fill="none" stroke="#1d1e5f" stroke-linecap="round" stroke-linejoin="round" stroke-width="1.0"/>
      <path d="M1.6 19.6 Q1.6 20.15 1.9 20.35 L2.9 20.5 Q3.6 20.5 4.1 20.15 4.6 19.75 4.6 19.2 4.6 17.9 3.3 17.9 2.65 17.9 2.1 18.5 1.6 19.05 1.6 19.6" fill="url(#gradient2)" fill-rule="evenodd" stroke="none"/>
      <path d="M1.6 19.6 Q1.6 19.05 2.1 18.5 2.65 17.9 3.3 17.9 4.6 17.9 4.6 19.2 4.6 19.75 4.1 20.15 3.6 20.5 2.9 20.5 L1.9 20.35 Q1.6 20.15 1.6 19.6 Z" fill="none" stroke="#1d1e5f" stroke-linecap="round" stroke-linejoin="round" stroke-width="1.0"/>
      <path d="M7.2 17.3 Q7.2 17.75 7.5 17.75 L8.6 17.6 Q10.0 17.55 10.0 16.3 10.0 15.85 9.65 15.7 L8.6 15.6 Q7.9 15.65 7.5 16.25 7.2 16.7 7.2 17.3" fill="url(#gradient3)" fill-rule="evenodd" stroke="none"/>
      <path d="M7.2 17.3 Q7.2 16.7 7.5 16.25 7.9 15.65 8.6 15.6 L9.65 15.7 Q10.0 15.85 10.0 16.3 10.0 17.55 8.6 17.6 L7.5 17.75 Q7.2 17.75 7.2 17.3 Z" fill="none" stroke="#1d1e5f" stroke-linecap="round" stroke-linejoin="round" stroke-width="1.0"/>
      <path d="M16.8 14.1 Q16.8 14.7 17.2 15.1 17.6 15.5 18.2 15.5 18.75 15.5 19.15 15.1 19.6 14.7 19.6 14.1 19.6 13.55 19.15 13.15 18.75 12.7 18.2 12.7 17.6 12.7 17.2 13.15 16.8 13.55 16.8 14.1" fill="url(#gradient4)" fill-rule="evenodd" stroke="none"/>
      <path d="M16.8 14.1 Q16.8 13.55 17.2 13.15 17.6 12.7 18.2 12.7 18.75 12.7 19.15 13.15 19.6 13.55 19.6 14.1 19.6 14.7 19.15 15.1 18.75 15.5 18.2 15.5 17.6 15.5 17.2 15.1 16.8 14.7 16.8 14.1 Z" fill="none" stroke="#1d1e5f" stroke-linecap="round" stroke-linejoin="round" stroke-width="1.0"/>
      <path d="M20.4 12.75 Q20.4 13.1 20.7 13.25 L21.5 13.35 Q21.95 13.25 22.25 12.95 L22.6 12.35 Q22.6 12.0 22.25 11.8 L21.5 11.75 Q21.05 11.85 20.7 12.15 L20.4 12.75" fill="url(#gradient5)" fill-rule="evenodd" stroke="none"/>
      <path d="M20.4 12.75 L20.7 12.15 Q21.05 11.85 21.5 11.75 L22.25 11.8 Q22.6 12.0 22.6 12.35 L22.25 12.95 Q21.95 13.25 21.5 13.35 L20.7 13.25 Q20.4 13.1 20.4 12.75 Z" fill="none" stroke="#1d1e5f" stroke-linecap="round" stroke-linejoin="round" stroke-width="1.0"/>
      <path d="M16.95 19.1 Q16.75 19.85 17.0 20.45 17.25 21.0 17.9 20.95 18.5 20.95 19.1 20.4 L19.95 19.05 Q20.25 18.25 19.95 17.7 19.7 17.15 19.05 17.15 18.45 17.15 17.85 17.75 17.25 18.3 16.95 19.1" fill="url(#gradient6)" fill-rule="evenodd" stroke="none"/>
      <path d="M16.95 19.1 Q17.25 18.3 17.85 17.75 18.45 17.15 19.05 17.15 19.7 17.15 19.95 17.7 20.25 18.25 19.95 19.05 L19.1 20.4 Q18.5 20.95 17.9 20.95 17.25 21.0 17.0 20.45 16.75 19.85 16.95 19.1 Z" fill="none" stroke="#1d1e5f" stroke-linecap="round" stroke-linejoin="round" stroke-width="1.0"/>
    </g>
    <radialGradient cx="0" cy="0" gradientTransform="matrix(0.0032, 0.0, 0.0, 0.0032, 12.1, 19.9)" gradientUnits="userSpaceOnUse" id="gradient0" r="819.2" spreadMethod="pad">
      <stop offset="0.0" stop-color="#4446b1"/>
      <stop offset="1.0" stop-color="#2d2f89"/>
    </radialGradient>
    <radialGradient cx="0" cy="0" gradientTransform="matrix(0.0021, 0.0, 0.0, 0.0021, 6.05, 20.85)" gradientUnits="userSpaceOnUse" id="gradient1" r="819.2" spreadMethod="pad">
      <stop offset="0.0" stop-color="#4446b1"/>
      <stop offset="1.0" stop-color="#2d2f89"/>
    </radialGradient>
    <radialGradient cx="0" cy="0" gradientTransform="matrix(0.0019, 0.0, 0.0, 0.0019, 3.05, 19.25)" gradientUnits="userSpaceOnUse" id="gradient2" r="819.2" spreadMethod="pad">
      <stop offset="0.0" stop-color="#4446b1"/>
      <stop offset="1.0" stop-color="#2d2f89"/>
    </radialGradient>
    <radialGradient cx="0" cy="0" gradientTransform="matrix(0.0019, 0.0, 0.0, 0.0019, 8.55, 16.65)" gradientUnits="userSpaceOnUse" id="gradient3" r="819.2" spreadMethod="pad">
      <stop offset="0.0" stop-color="#4446b1"/>
      <stop offset="1.0" stop-color="#2d2f89"/>
    </radialGradient>
    <radialGradient cx="0" cy="0" gradientTransform="matrix(0.0017, 0.0, 0.0, 0.0017, 18.2, 14.1)" gradientUnits="userSpaceOnUse" id="gradient4" r="819.2" spreadMethod="pad">
      <stop offset="0.0" stop-color="#4446b1"/>
      <stop offset="1.0" stop-color="#2d2f89"/>
    </radialGradient>
    <radialGradient cx="0" cy="0" gradientTransform="matrix(0.0014, 0.0, 0.0, 0.0014, 21.45, 12.55)" gradientUnits="userSpaceOnUse" id="gradient5" r="819.2" spreadMethod="pad">
      <stop offset="0.0" stop-color="#4446b1"/>
      <stop offset="1.0" stop-color="#2d2f89"/>
    </radialGradient>
    <radialGradient cx="0" cy="0" gradientTransform="matrix(0.0024, 0.0, 0.0, 0.0024, 18.45, 19.05)" gradientUnits="userSpaceOnUse" id="gradient6" r="819.2" spreadMethod="pad">
      <stop offset="0.0" stop-color="#4446b1"/>
      <stop offset="1.0" stop-color="#2d2f89"/>
    </radialGradient>
  </defs>
</svg>
