<?xml version="1.0" encoding="UTF-8" standalone="no"?>
<svg xmlns:xlink="http://www.w3.org/1999/xlink" height="44.6px" width="374.55px" xmlns="http://www.w3.org/2000/svg">
  <g transform="matrix(1.0, 0.0, 0.0, 1.0, -0.65, -2.95)">
    <g transform="matrix(1.0, 0.0, 0.0, 1.0, 0.0, 0.0)">
      <use fill="#000000" height="44.6" transform="matrix(0.2344, 0.0, 0.0, 0.2344, 0.0, 12.0)" width="374.55" xlink:href="#font_Verdana_E0"/>
      <use fill="#000000" height="44.6" transform="matrix(0.2344, 0.0, 0.0, 0.2344, 7.6, 12.0)" width="374.55" xlink:href="#font_Verdana_v0"/>
      <use fill="#000000" height="44.6" transform="matrix(0.2344, 0.0, 0.0, 0.2344, 14.7, 12.0)" width="374.55" xlink:href="#font_Verdana_i0"/>
      <use fill="#000000" height="44.6" transform="matrix(0.2344, 0.0, 0.0, 0.2344, 18.0, 12.0)" width="374.55" xlink:href="#font_Verdana_l0"/>
      <use fill="#000000" height="44.6" transform="matrix(0.2344, 0.0, 0.0, 0.2344, 25.5, 12.0)" width="374.55" xlink:href="#font_Verdana_r0"/>
      <use fill="#000000" height="44.6" transform="matrix(0.2344, 0.0, 0.0, 0.2344, 30.6, 12.0)" width="374.55" xlink:href="#font_Verdana_o0"/>
      <use fill="#000000" height="44.6" transform="matrix(0.2344, 0.0, 0.0, 0.2344, 37.9, 12.0)" width="374.55" xlink:href="#font_Verdana_b0"/>
      <use fill="#000000" height="44.6" transform="matrix(0.2344, 0.0, 0.0, 0.2344, 45.4, 12.0)" width="374.55" xlink:href="#font_Verdana_o0"/>
      <use fill="#000000" height="44.6" transform="matrix(0.2344, 0.0, 0.0, 0.2344, 52.7, 12.0)" width="374.55" xlink:href="#font_Verdana_t0"/>
      <use fill="#000000" height="44.6" transform="matrix(0.2344, 0.0, 0.0, 0.2344, 61.65, 12.0)" width="374.55" xlink:href="#font_Verdana_C0"/>
      <use fill="#000000" height="44.6" transform="matrix(0.2344, 0.0, 0.0, 0.2344, 70.05, 12.0)" width="374.55" xlink:href="#font_Verdana_o0"/>
      <use fill="#000000" height="44.6" transform="matrix(0.2344, 0.0, 0.0, 0.2344, 77.35, 12.0)" width="374.55" xlink:href="#font_Verdana_g0"/>
      <use fill="#000000" height="44.6" transform="matrix(0.2344, 0.0, 0.0, 0.2344, 84.85, 12.0)" width="374.55" xlink:href="#font_Verdana_s0"/>
      <use fill="#000000" height="44.6" transform="matrix(0.2344, 0.0, 0.0, 0.2344, 95.3, 12.0)" width="374.55" xlink:href="#font_Verdana_h0"/>
      <use fill="#000000" height="44.6" transform="matrix(0.2344, 0.0, 0.0, 0.2344, 102.9, 12.0)" width="374.55" xlink:href="#font_Verdana_a0"/>
      <use fill="#000000" height="44.6" transform="matrix(0.2344, 0.0, 0.0, 0.2344, 110.1, 12.0)" width="374.55" xlink:href="#font_Verdana_v0"/>
      <use fill="#000000" height="44.6" transform="matrix(0.2344, 0.0, 0.0, 0.2344, 117.2, 12.0)" width="374.55" xlink:href="#font_Verdana_e0"/>
      <use fill="#000000" height="44.6" transform="matrix(0.2344, 0.0, 0.0, 0.2344, 128.55, 12.0)" width="374.55" xlink:href="#font_Verdana_i0"/>
      <use fill="#000000" height="44.6" transform="matrix(0.2344, 0.0, 0.0, 0.2344, 131.85, 12.0)" width="374.55" xlink:href="#font_Verdana_n0"/>
      <use fill="#000000" height="44.6" transform="matrix(0.2344, 0.0, 0.0, 0.2344, 139.45, 12.0)" width="374.55" xlink:href="#font_Verdana_v0"/>
      <use fill="#000000" height="44.6" transform="matrix(0.2344, 0.0, 0.0, 0.2344, 146.55, 12.0)" width="374.55" xlink:href="#font_Verdana_a0"/>
      <use fill="#000000" height="44.6" transform="matrix(0.2344, 0.0, 0.0, 0.2344, 153.75, 12.0)" width="374.55" xlink:href="#font_Verdana_d0"/>
      <use fill="#000000" height="44.6" transform="matrix(0.2344, 0.0, 0.0, 0.2344, 161.25, 12.0)" width="374.55" xlink:href="#font_Verdana_e0"/>
      <use fill="#000000" height="44.6" transform="matrix(0.2344, 0.0, 0.0, 0.2344, 168.4, 12.0)" width="374.55" xlink:href="#font_Verdana_d0"/>
      <use fill="#000000" height="44.6" transform="matrix(0.2344, 0.0, 0.0, 0.2344, 180.1, 12.0)" width="374.55" xlink:href="#font_Verdana_T0"/>
      <use fill="#000000" height="44.6" transform="matrix(0.2344, 0.0, 0.0, 0.2344, 187.5, 12.0)" width="374.55" xlink:href="#font_Verdana_o0"/>
      <use fill="#000000" height="44.6" transform="matrix(0.2344, 0.0, 0.0, 0.2344, 194.8, 12.0)" width="374.55" xlink:href="#font_Verdana_o0"/>
      <use fill="#000000" height="44.6" transform="matrix(0.2344, 0.0, 0.0, 0.2344, 202.1, 12.0)" width="374.55" xlink:href="#font_Verdana_n0"/>
      <use fill="#000000" height="44.6" transform="matrix(0.2344, 0.0, 0.0, 0.2344, 209.7, 12.0)" width="374.55" xlink:href="#font_Verdana_t0"/>
      <use fill="#000000" height="44.6" transform="matrix(0.2344, 0.0, 0.0, 0.2344, 214.45, 12.0)" width="374.55" xlink:href="#font_Verdana_o0"/>
      <use fill="#000000" height="44.6" transform="matrix(0.2344, 0.0, 0.0, 0.2344, 221.75, 12.0)" width="374.55" xlink:href="#font_Verdana_w0"/>
      <use fill="#000000" height="44.6" transform="matrix(0.2344, 0.0, 0.0, 0.2344, 231.55, 12.0)" width="374.55" xlink:href="#font_Verdana_n0"/>
      <use fill="#000000" height="44.6" transform="matrix(0.2344, 0.0, 0.0, 0.2344, 243.35, 12.0)" width="374.55" xlink:href="#font_Verdana_a0"/>
      <use fill="#000000" height="44.6" transform="matrix(0.2344, 0.0, 0.0, 0.2344, 250.55, 12.0)" width="374.55" xlink:href="#font_Verdana_n0"/>
      <use fill="#000000" height="44.6" transform="matrix(0.2344, 0.0, 0.0, 0.2344, 258.15, 12.0)" width="374.55" xlink:href="#font_Verdana_d0"/>
      <use fill="#000000" height="44.6" transform="matrix(0.2344, 0.0, 0.0, 0.2344, 269.85, 12.0)" width="374.55" xlink:href="#font_Verdana_i0"/>
      <use fill="#000000" height="44.6" transform="matrix(0.2344, 0.0, 0.0, 0.2344, 273.15, 12.0)" width="374.55" xlink:href="#font_Verdana_t0"/>
      <use fill="#000000" height="44.6" transform="matrix(0.2344, 0.0, 0.0, 0.2344, 277.9, 12.0)" width="374.55" xlink:href="#font_Verdana__1"/>
      <use fill="#000000" height="44.6" transform="matrix(0.2344, 0.0, 0.0, 0.2344, 281.1, 12.0)" width="374.55" xlink:href="#font_Verdana_s0"/>
      <use fill="#000000" height="44.6" transform="matrix(0.2344, 0.0, 0.0, 0.2344, 291.55, 12.0)" width="374.55" xlink:href="#font_Verdana_u0"/>
      <use fill="#000000" height="44.6" transform="matrix(0.2344, 0.0, 0.0, 0.2344, 299.15, 12.0)" width="374.55" xlink:href="#font_Verdana_p0"/>
      <use fill="#000000" height="44.6" transform="matrix(0.2344, 0.0, 0.0, 0.2344, 310.85, 12.0)" width="374.55" xlink:href="#font_Verdana_t0"/>
      <use fill="#000000" height="44.6" transform="matrix(0.2344, 0.0, 0.0, 0.2344, 315.6, 12.0)" width="374.55" xlink:href="#font_Verdana_o0"/>
      <use fill="#000000" height="44.6" transform="matrix(0.2344, 0.0, 0.0, 0.2344, 327.1, 12.0)" width="374.55" xlink:href="#font_Verdana_y0"/>
      <use fill="#000000" height="44.6" transform="matrix(0.2344, 0.0, 0.0, 0.2344, 334.2, 12.0)" width="374.55" xlink:href="#font_Verdana_o0"/>
      <use fill="#000000" height="44.6" transform="matrix(0.2344, 0.0, 0.0, 0.2344, 341.5, 12.0)" width="374.55" xlink:href="#font_Verdana_u0"/>
      <use fill="#000000" height="44.6" transform="matrix(0.2344, 0.0, 0.0, 0.2344, 353.3, 12.0)" width="374.55" xlink:href="#font_Verdana_t0"/>
      <use fill="#000000" height="44.6" transform="matrix(0.2344, 0.0, 0.0, 0.2344, 358.05, 12.0)" width="374.55" xlink:href="#font_Verdana_o0"/>
    </g>
    <g transform="matrix(1.0, 0.0, 0.0, 1.0, 0.0, 0.0)">
      <use fill="#000000" height="44.6" transform="matrix(0.2344, 0.0, 0.0, 0.2344, 0.0, 29.0)" width="374.55" xlink:href="#font_Verdana_d0"/>
      <use fill="#000000" height="44.6" transform="matrix(0.2344, 0.0, 0.0, 0.2344, 7.5, 29.0)" width="374.55" xlink:href="#font_Verdana_e0"/>
      <use fill="#000000" height="44.6" transform="matrix(0.2344, 0.0, 0.0, 0.2344, 14.65, 29.0)" width="374.55" xlink:href="#font_Verdana_f0"/>
      <use fill="#000000" height="44.6" transform="matrix(0.2344, 0.0, 0.0, 0.2344, 18.85, 29.0)" width="374.55" xlink:href="#font_Verdana_e0"/>
      <use fill="#000000" height="44.6" transform="matrix(0.2344, 0.0, 0.0, 0.2344, 26.0, 29.0)" width="374.55" xlink:href="#font_Verdana_a0"/>
      <use fill="#000000" height="44.6" transform="matrix(0.2344, 0.0, 0.0, 0.2344, 33.2, 29.0)" width="374.55" xlink:href="#font_Verdana_t0"/>
      <use fill="#000000" height="44.6" transform="matrix(0.2344, 0.0, 0.0, 0.2344, 42.15, 29.0)" width="374.55" xlink:href="#font_Verdana_t0"/>
      <use fill="#000000" height="44.6" transform="matrix(0.2344, 0.0, 0.0, 0.2344, 46.9, 29.0)" width="374.55" xlink:href="#font_Verdana_h0"/>
      <use fill="#000000" height="44.6" transform="matrix(0.2344, 0.0, 0.0, 0.2344, 54.5, 29.0)" width="374.55" xlink:href="#font_Verdana_e0"/>
      <use fill="#000000" height="44.6" transform="matrix(0.2344, 0.0, 0.0, 0.2344, 61.65, 29.0)" width="374.55" xlink:href="#font_Verdana_m0"/>
      <use fill="#000000" height="44.6" transform="matrix(0.2344, 0.0, 0.0, 0.2344, 73.3, 29.0)" width="374.55" xlink:href="#font_Verdana_.0"/>
      <use fill="#000000" height="44.6" transform="matrix(0.2344, 0.0, 0.0, 0.2344, 81.85, 29.0)" width="374.55" xlink:href="#font_Verdana_H0"/>
      <use fill="#000000" height="44.6" transform="matrix(0.2344, 0.0, 0.0, 0.2344, 90.85, 29.0)" width="374.55" xlink:href="#font_Verdana_e0"/>
      <use fill="#000000" height="44.6" transform="matrix(0.2344, 0.0, 0.0, 0.2344, 98.0, 29.0)" width="374.55" xlink:href="#font_Verdana_l0"/>
      <use fill="#000000" height="44.6" transform="matrix(0.2344, 0.0, 0.0, 0.2344, 101.3, 29.0)" width="374.55" xlink:href="#font_Verdana_p0"/>
      <use fill="#000000" height="44.6" transform="matrix(0.2344, 0.0, 0.0, 0.2344, 113.0, 29.0)" width="374.55" xlink:href="#font_Verdana_F0"/>
      <use fill="#000000" height="44.6" transform="matrix(0.2344, 0.0, 0.0, 0.2344, 119.9, 29.0)" width="374.55" xlink:href="#font_Verdana_l0"/>
      <use fill="#000000" height="44.6" transform="matrix(0.2344, 0.0, 0.0, 0.2344, 123.2, 29.0)" width="374.55" xlink:href="#font_Verdana_i0"/>
      <use fill="#000000" height="44.6" transform="matrix(0.2344, 0.0, 0.0, 0.2344, 126.5, 29.0)" width="374.55" xlink:href="#font_Verdana_p0"/>
      <use fill="#000000" height="44.6" transform="matrix(0.2344, 0.0, 0.0, 0.2344, 134.0, 29.0)" width="374.55" xlink:href="#font_Verdana_p0"/>
      <use fill="#000000" height="44.6" transform="matrix(0.2344, 0.0, 0.0, 0.2344, 141.5, 29.0)" width="374.55" xlink:href="#font_Verdana_y0"/>
      <use fill="#000000" height="44.6" transform="matrix(0.2344, 0.0, 0.0, 0.2344, 152.8, 29.0)" width="374.55" xlink:href="#font_Verdana_s0"/>
      <use fill="#000000" height="44.6" transform="matrix(0.2344, 0.0, 0.0, 0.2344, 159.05, 29.0)" width="374.55" xlink:href="#font_Verdana_a0"/>
      <use fill="#000000" height="44.6" transform="matrix(0.2344, 0.0, 0.0, 0.2344, 166.25, 29.0)" width="374.55" xlink:href="#font_Verdana_v0"/>
      <use fill="#000000" height="44.6" transform="matrix(0.2344, 0.0, 0.0, 0.2344, 173.35, 29.0)" width="374.55" xlink:href="#font_Verdana_e0"/>
      <use fill="#000000" height="44.6" transform="matrix(0.2344, 0.0, 0.0, 0.2344, 184.7, 29.0)" width="374.55" xlink:href="#font_Verdana_T0"/>
      <use fill="#000000" height="44.6" transform="matrix(0.2344, 0.0, 0.0, 0.2344, 192.1, 29.0)" width="374.55" xlink:href="#font_Verdana_o0"/>
      <use fill="#000000" height="44.6" transform="matrix(0.2344, 0.0, 0.0, 0.2344, 199.4, 29.0)" width="374.55" xlink:href="#font_Verdana_o0"/>
      <use fill="#000000" height="44.6" transform="matrix(0.2344, 0.0, 0.0, 0.2344, 206.7, 29.0)" width="374.55" xlink:href="#font_Verdana_n0"/>
      <use fill="#000000" height="44.6" transform="matrix(0.2344, 0.0, 0.0, 0.2344, 214.3, 29.0)" width="374.55" xlink:href="#font_Verdana_t0"/>
      <use fill="#000000" height="44.6" transform="matrix(0.2344, 0.0, 0.0, 0.2344, 219.05, 29.0)" width="374.55" xlink:href="#font_Verdana_o0"/>
      <use fill="#000000" height="44.6" transform="matrix(0.2344, 0.0, 0.0, 0.2344, 226.35, 29.0)" width="374.55" xlink:href="#font_Verdana_w0"/>
      <use fill="#000000" height="44.6" transform="matrix(0.2344, 0.0, 0.0, 0.2344, 236.15, 29.0)" width="374.55" xlink:href="#font_Verdana_n0"/>
      <use fill="#000000" height="44.6" transform="matrix(0.2344, 0.0, 0.0, 0.2344, 247.95, 29.0)" width="374.55" xlink:href="#font_Verdana_b0"/>
      <use fill="#000000" height="44.6" transform="matrix(0.2344, 0.0, 0.0, 0.2344, 255.45, 29.0)" width="374.55" xlink:href="#font_Verdana_y0"/>
      <use fill="#000000" height="44.6" transform="matrix(0.2344, 0.0, 0.0, 0.2344, 266.75, 29.0)" width="374.55" xlink:href="#font_Verdana_o0"/>
      <use fill="#000000" height="44.6" transform="matrix(0.2344, 0.0, 0.0, 0.2344, 274.05, 29.0)" width="374.55" xlink:href="#font_Verdana_u0"/>
      <use fill="#000000" height="44.6" transform="matrix(0.2344, 0.0, 0.0, 0.2344, 281.65, 29.0)" width="374.55" xlink:href="#font_Verdana_t0"/>
      <use fill="#000000" height="44.6" transform="matrix(0.2344, 0.0, 0.0, 0.2344, 286.4, 29.0)" width="374.55" xlink:href="#font_Verdana_s0"/>
      <use fill="#000000" height="44.6" transform="matrix(0.2344, 0.0, 0.0, 0.2344, 292.65, 29.0)" width="374.55" xlink:href="#font_Verdana_m0"/>
      <use fill="#000000" height="44.6" transform="matrix(0.2344, 0.0, 0.0, 0.2344, 304.3, 29.0)" width="374.55" xlink:href="#font_Verdana_a0"/>
      <use fill="#000000" height="44.6" transform="matrix(0.2344, 0.0, 0.0, 0.2344, 311.5, 29.0)" width="374.55" xlink:href="#font_Verdana_r0"/>
      <use fill="#000000" height="44.6" transform="matrix(0.2344, 0.0, 0.0, 0.2344, 316.6, 29.0)" width="374.55" xlink:href="#font_Verdana_t0"/>
      <use fill="#000000" height="44.6" transform="matrix(0.2344, 0.0, 0.0, 0.2344, 321.35, 29.0)" width="374.55" xlink:href="#font_Verdana_i0"/>
      <use fill="#000000" height="44.6" transform="matrix(0.2344, 0.0, 0.0, 0.2344, 324.65, 29.0)" width="374.55" xlink:href="#font_Verdana_n0"/>
      <use fill="#000000" height="44.6" transform="matrix(0.2344, 0.0, 0.0, 0.2344, 332.25, 29.0)" width="374.55" xlink:href="#font_Verdana_g0"/>
      <use fill="#000000" height="44.6" transform="matrix(0.2344, 0.0, 0.0, 0.2344, 343.95, 29.0)" width="374.55" xlink:href="#font_Verdana_s0"/>
      <use fill="#000000" height="44.6" transform="matrix(0.2344, 0.0, 0.0, 0.2344, 350.2, 29.0)" width="374.55" xlink:href="#font_Verdana_l0"/>
      <use fill="#000000" height="44.6" transform="matrix(0.2344, 0.0, 0.0, 0.2344, 353.5, 29.0)" width="374.55" xlink:href="#font_Verdana_i0"/>
      <use fill="#000000" height="44.6" transform="matrix(0.2344, 0.0, 0.0, 0.2344, 356.8, 29.0)" width="374.55" xlink:href="#font_Verdana_m0"/>
      <use fill="#000000" height="44.6" transform="matrix(0.2344, 0.0, 0.0, 0.2344, 368.45, 29.0)" width="374.55" xlink:href="#font_Verdana_y0"/>
    </g>
    <g transform="matrix(1.0, 0.0, 0.0, 1.0, 0.0, 0.0)">
      <use fill="#000000" height="44.6" transform="matrix(0.2344, 0.0, 0.0, 0.2344, 0.0, 45.0)" width="374.55" xlink:href="#font_Verdana_M0"/>
      <use fill="#000000" height="44.6" transform="matrix(0.2344, 0.0, 0.0, 0.2344, 10.1, 45.0)" width="374.55" xlink:href="#font_Verdana_r0"/>
      <use fill="#000000" height="44.6" transform="matrix(0.2344, 0.0, 0.0, 0.2344, 15.2, 45.0)" width="374.55" xlink:href="#font_Verdana_.0"/>
      <use fill="#000000" height="44.6" transform="matrix(0.2344, 0.0, 0.0, 0.2344, 23.75, 45.0)" width="374.55" xlink:href="#font_Verdana_H0"/>
      <use fill="#000000" height="44.6" transform="matrix(0.2344, 0.0, 0.0, 0.2344, 32.75, 45.0)" width="374.55" xlink:href="#font_Verdana_o0"/>
      <use fill="#000000" height="44.6" transform="matrix(0.2344, 0.0, 0.0, 0.2344, 40.05, 45.0)" width="374.55" xlink:href="#font_Verdana_l0"/>
      <use fill="#000000" height="44.6" transform="matrix(0.2344, 0.0, 0.0, 0.2344, 43.35, 45.0)" width="374.55" xlink:href="#font_Verdana_l0"/>
      <use fill="#000000" height="44.6" transform="matrix(0.2344, 0.0, 0.0, 0.2344, 46.65, 45.0)" width="374.55" xlink:href="#font_Verdana_y0"/>
      <use fill="#000000" height="44.6" transform="matrix(0.2344, 0.0, 0.0, 0.2344, 53.75, 45.0)" width="374.55" xlink:href="#font_Verdana_w0"/>
      <use fill="#000000" height="44.6" transform="matrix(0.2344, 0.0, 0.0, 0.2344, 63.55, 45.0)" width="374.55" xlink:href="#font_Verdana_o0"/>
      <use fill="#000000" height="44.6" transform="matrix(0.2344, 0.0, 0.0, 0.2344, 70.85, 45.0)" width="374.55" xlink:href="#font_Verdana_o0"/>
      <use fill="#000000" height="44.6" transform="matrix(0.2344, 0.0, 0.0, 0.2344, 78.15, 45.0)" width="374.55" xlink:href="#font_Verdana_d0"/>
      <use fill="#000000" height="44.6" transform="matrix(0.2344, 0.0, 0.0, 0.2344, 89.85, 45.0)" width="374.55" xlink:href="#font_Verdana_w0"/>
      <use fill="#000000" height="44.6" transform="matrix(0.2344, 0.0, 0.0, 0.2344, 99.65, 45.0)" width="374.55" xlink:href="#font_Verdana_i0"/>
      <use fill="#000000" height="44.6" transform="matrix(0.2344, 0.0, 0.0, 0.2344, 102.95, 45.0)" width="374.55" xlink:href="#font_Verdana_t0"/>
      <use fill="#000000" height="44.6" transform="matrix(0.2344, 0.0, 0.0, 0.2344, 107.7, 45.0)" width="374.55" xlink:href="#font_Verdana_h0"/>
      <use fill="#000000" height="44.6" transform="matrix(0.2344, 0.0, 0.0, 0.2344, 119.5, 45.0)" width="374.55" xlink:href="#font_Verdana_y0"/>
      <use fill="#000000" height="44.6" transform="matrix(0.2344, 0.0, 0.0, 0.2344, 126.6, 45.0)" width="374.55" xlink:href="#font_Verdana_o0"/>
      <use fill="#000000" height="44.6" transform="matrix(0.2344, 0.0, 0.0, 0.2344, 133.9, 45.0)" width="374.55" xlink:href="#font_Verdana_u0"/>
      <use fill="#000000" height="44.6" transform="matrix(0.2344, 0.0, 0.0, 0.2344, 141.5, 45.0)" width="374.55" xlink:href="#font_Verdana_r0"/>
      <use fill="#000000" height="44.6" transform="matrix(0.2344, 0.0, 0.0, 0.2344, 150.8, 45.0)" width="374.55" xlink:href="#font_Verdana_a0"/>
      <use fill="#000000" height="44.6" transform="matrix(0.2344, 0.0, 0.0, 0.2344, 158.0, 45.0)" width="374.55" xlink:href="#font_Verdana_r0"/>
      <use fill="#000000" height="44.6" transform="matrix(0.2344, 0.0, 0.0, 0.2344, 163.1, 45.0)" width="374.55" xlink:href="#font_Verdana_s0"/>
      <use fill="#000000" height="44.6" transform="matrix(0.2344, 0.0, 0.0, 0.2344, 169.35, 45.0)" width="374.55" xlink:href="#font_Verdana_e0"/>
      <use fill="#000000" height="44.6" transform="matrix(0.2344, 0.0, 0.0, 0.2344, 176.5, 45.0)" width="374.55" xlink:href="#font_Verdana_n0"/>
      <use fill="#000000" height="44.6" transform="matrix(0.2344, 0.0, 0.0, 0.2344, 184.1, 45.0)" width="374.55" xlink:href="#font_Verdana_a0"/>
      <use fill="#000000" height="44.6" transform="matrix(0.2344, 0.0, 0.0, 0.2344, 191.3, 45.0)" width="374.55" xlink:href="#font_Verdana_l0"/>
      <use fill="#000000" height="44.6" transform="matrix(0.2344, 0.0, 0.0, 0.2344, 198.8, 45.0)" width="374.55" xlink:href="#font_Verdana_o0"/>
      <use fill="#000000" height="44.6" transform="matrix(0.2344, 0.0, 0.0, 0.2344, 206.1, 45.0)" width="374.55" xlink:href="#font_Verdana_f0"/>
      <use fill="#000000" height="44.6" transform="matrix(0.2344, 0.0, 0.0, 0.2344, 214.5, 45.0)" width="374.55" xlink:href="#font_Verdana_g0"/>
      <use fill="#000000" height="44.6" transform="matrix(0.2344, 0.0, 0.0, 0.2344, 222.0, 45.0)" width="374.55" xlink:href="#font_Verdana_a0"/>
      <use fill="#000000" height="44.6" transform="matrix(0.2344, 0.0, 0.0, 0.2344, 229.2, 45.0)" width="374.55" xlink:href="#font_Verdana_g0"/>
      <use fill="#000000" height="44.6" transform="matrix(0.2344, 0.0, 0.0, 0.2344, 236.7, 45.0)" width="374.55" xlink:href="#font_Verdana_s0"/>
      <use fill="#000000" height="44.6" transform="matrix(0.2344, 0.0, 0.0, 0.2344, 247.15, 45.0)" width="374.55" xlink:href="#font_Verdana_a0"/>
      <use fill="#000000" height="44.6" transform="matrix(0.2344, 0.0, 0.0, 0.2344, 254.35, 45.0)" width="374.55" xlink:href="#font_Verdana_n0"/>
      <use fill="#000000" height="44.6" transform="matrix(0.2344, 0.0, 0.0, 0.2344, 261.95, 45.0)" width="374.55" xlink:href="#font_Verdana_d0"/>
      <use fill="#000000" height="44.6" transform="matrix(0.2344, 0.0, 0.0, 0.2344, 273.65, 45.0)" width="374.55" xlink:href="#font_Verdana_p0"/>
      <use fill="#000000" height="44.6" transform="matrix(0.2344, 0.0, 0.0, 0.2344, 281.15, 45.0)" width="374.55" xlink:href="#font_Verdana_r0"/>
      <use fill="#000000" height="44.6" transform="matrix(0.2344, 0.0, 0.0, 0.2344, 286.25, 45.0)" width="374.55" xlink:href="#font_Verdana_a0"/>
      <use fill="#000000" height="44.6" transform="matrix(0.2344, 0.0, 0.0, 0.2344, 293.45, 45.0)" width="374.55" xlink:href="#font_Verdana_n0"/>
      <use fill="#000000" height="44.6" transform="matrix(0.2344, 0.0, 0.0, 0.2344, 301.05, 45.0)" width="374.55" xlink:href="#font_Verdana_k0"/>
      <use fill="#000000" height="44.6" transform="matrix(0.2344, 0.0, 0.0, 0.2344, 308.15, 45.0)" width="374.55" xlink:href="#font_Verdana_s0"/>
      <use fill="#000000" height="44.6" transform="matrix(0.2344, 0.0, 0.0, 0.2344, 314.4, 45.0)" width="374.55" xlink:href="#font_Verdana_.0"/>
    </g>
  </g>
  <defs>
    <g id="font_Verdana_E0">
      <path d="M29.55 0.0 L29.55 -4.4 9.95 -4.4 9.95 -18.2 29.55 -18.2 29.55 -22.6 9.95 -22.6 9.95 -32.8 29.55 -32.8 29.55 -37.2 5.0 -37.2 5.0 0.0 29.55 0.0" fill-rule="evenodd" stroke="none"/>
    </g>
    <g id="font_Verdana_v0">
      <path d="M28.8 -27.9 L23.85 -27.9 15.3 -5.7 6.65 -27.9 1.55 -27.9 12.75 0.0 17.5 0.0 28.8 -27.9" fill-rule="evenodd" stroke="none"/>
    </g>
    <g id="font_Verdana_i0">
      <path d="M9.4 0.0 L9.4 -27.9 4.7 -27.9 4.7 0.0 9.4 0.0 M9.7 -32.6 L9.7 -37.45 4.4 -37.45 4.4 -32.6 9.7 -32.6" fill-rule="evenodd" stroke="none"/>
    </g>
    <g id="font_Verdana_l0">
      <path d="M9.4 0.0 L9.4 -38.9 4.7 -38.9 4.7 0.0 9.4 0.0" fill-rule="evenodd" stroke="none"/>
    </g>
    <g id="font_Verdana_r0">
      <path d="M22.05 -22.8 L22.05 -27.6 20.4 -27.85 18.65 -27.9 Q16.4 -27.9 14.3 -26.95 12.15 -26.05 9.35 -23.8 L9.35 -27.9 4.65 -27.9 4.65 0.0 9.35 0.0 9.35 -19.8 Q11.2 -21.35 13.25 -22.3 15.25 -23.25 17.45 -23.25 L19.8 -23.15 21.8 -22.8 22.05 -22.8" fill-rule="evenodd" stroke="none"/>
    </g>
    <g id="font_Verdana_o0">
      <path d="M23.6 -13.95 L23.6 -13.95 Q23.6 -8.65 21.45 -5.95 19.3 -3.25 15.55 -3.25 11.75 -3.25 9.65 -5.95 7.5 -8.7 7.5 -13.95 7.5 -19.35 9.65 -22.0 11.75 -24.65 15.55 -24.65 19.35 -24.65 21.45 -22.0 23.6 -19.35 23.6 -13.95 M28.45 -13.95 L28.45 -13.95 Q28.45 -20.75 24.95 -24.7 21.45 -28.7 15.55 -28.7 9.65 -28.7 6.15 -24.7 2.65 -20.75 2.65 -13.95 2.65 -7.1 6.15 -3.15 9.65 0.8 15.55 0.8 21.45 0.8 24.95 -3.15 28.45 -7.1 28.45 -13.95" fill-rule="evenodd" stroke="none"/>
    </g>
    <g id="font_Verdana_b0">
      <path d="M24.35 -14.05 L24.35 -14.05 Q24.35 -8.55 22.15 -6.0 19.95 -3.45 16.05 -3.45 L12.8 -3.8 Q11.35 -4.15 9.35 -5.05 L9.35 -21.05 Q11.15 -22.45 13.25 -23.3 15.35 -24.2 17.4 -24.2 21.05 -24.2 22.7 -21.6 24.35 -19.05 24.35 -14.05 M29.2 -14.15 L29.2 -14.15 Q29.2 -21.1 26.35 -24.9 23.5 -28.7 18.55 -28.7 15.75 -28.7 13.55 -27.65 11.3 -26.6 9.35 -25.0 L9.35 -38.9 4.65 -38.9 4.65 0.0 9.05 0.0 9.35 -1.3 Q11.05 -0.35 12.85 0.25 L17.0 0.8 Q19.55 0.8 21.65 -0.2 23.8 -1.2 25.55 -3.15 27.25 -5.05 28.25 -7.85 29.2 -10.65 29.2 -14.15" fill-rule="evenodd" stroke="none"/>
    </g>
    <g id="font_Verdana_t0">
      <path d="M19.15 -0.25 L19.15 -4.45 18.9 -4.45 17.1 -3.9 14.7 -3.55 Q12.7 -3.55 11.75 -4.0 10.8 -4.5 10.25 -5.5 9.65 -6.55 9.55 -7.8 L9.45 -11.25 9.45 -23.95 19.15 -23.95 19.15 -27.9 9.45 -27.9 9.45 -35.95 4.75 -35.95 4.75 -27.9 1.55 -27.9 1.55 -23.95 4.75 -23.95 4.75 -9.1 Q4.75 -4.05 6.95 -1.75 9.2 0.55 13.45 0.55 L16.25 0.35 19.15 -0.25" fill-rule="evenodd" stroke="none"/>
    </g>
    <g id="font_Verdana_C0">
      <path d="M33.75 -2.7 L33.75 -8.5 33.4 -8.5 Q30.7 -6.05 27.55 -4.8 24.45 -3.6 20.85 -3.6 18.25 -3.6 15.95 -4.45 13.6 -5.35 11.85 -7.2 10.15 -9.0 9.1 -11.8 8.05 -14.65 8.05 -18.55 8.05 -22.3 9.0 -25.15 9.95 -28.05 11.7 -29.9 13.45 -31.85 15.75 -32.75 18.0 -33.65 20.8 -33.65 24.25 -33.65 27.3 -32.5 30.3 -31.3 33.4 -28.75 L33.75 -28.75 33.75 -34.6 Q30.1 -36.45 27.15 -37.15 L21.15 -37.9 Q17.05 -37.9 13.7 -36.6 10.3 -35.35 7.95 -32.9 5.5 -30.4 4.2 -26.8 2.9 -23.15 2.9 -18.55 2.9 -13.7 4.25 -10.05 5.6 -6.4 8.0 -4.0 10.45 -1.6 13.75 -0.45 17.05 0.7 21.1 0.7 L25.05 0.35 28.35 -0.45 Q30.15 -1.05 31.3 -1.55 L33.75 -2.7" fill-rule="evenodd" stroke="none"/>
    </g>
    <g id="font_Verdana_g0">
      <path d="M22.6 -7.65 L22.6 -7.65 Q20.85 -6.35 18.8 -5.55 16.75 -4.75 14.7 -4.75 10.85 -4.75 9.2 -7.2 7.55 -9.6 7.55 -14.3 7.55 -19.25 9.8 -21.85 12.0 -24.45 15.9 -24.45 L19.1 -24.1 Q20.7 -23.75 22.6 -22.9 L22.6 -7.65 M27.3 -3.15 L27.3 -27.9 22.9 -27.9 22.6 -26.7 19.15 -28.2 15.05 -28.7 Q12.75 -28.7 10.45 -27.7 8.1 -26.7 6.5 -24.95 4.75 -23.05 3.75 -20.4 2.7 -17.8 2.7 -14.2 2.7 -7.65 5.65 -4.0 8.6 -0.4 13.6 -0.4 16.6 -0.4 18.55 -1.25 L22.6 -3.8 22.6 -1.25 Q22.6 0.45 22.2 1.85 21.85 3.2 20.95 4.2 20.1 5.2 18.5 5.8 L14.55 6.35 9.55 5.7 Q7.05 5.05 5.9 4.6 L5.65 4.6 5.65 9.4 9.8 10.3 14.15 10.6 Q20.85 10.6 24.05 7.25 27.3 3.95 27.3 -3.15" fill-rule="evenodd" stroke="none"/>
    </g>
    <g id="font_Verdana_s0">
      <path d="M24.6 -8.05 L24.6 -8.05 Q24.6 -11.1 22.8 -12.95 21.05 -14.75 17.75 -15.5 L15.1 -16.05 12.15 -16.65 Q9.8 -17.2 8.75 -18.1 7.7 -18.95 7.7 -20.7 7.7 -22.65 9.45 -23.6 11.25 -24.6 13.8 -24.6 16.3 -24.6 18.85 -23.7 21.45 -22.8 23.25 -21.45 L23.5 -21.45 23.5 -26.5 Q21.8 -27.35 19.25 -27.95 L14.15 -28.6 9.35 -27.9 Q7.15 -27.2 5.75 -26.05 4.3 -24.85 3.6 -23.3 2.9 -21.8 2.9 -20.05 2.9 -17.3 4.45 -15.4 5.95 -13.55 9.65 -12.55 L12.6 -11.9 15.2 -11.4 Q17.9 -10.8 18.85 -9.95 19.8 -9.1 19.8 -7.45 19.8 -5.3 18.05 -4.3 16.3 -3.3 13.2 -3.3 10.7 -3.3 7.95 -4.25 5.25 -5.25 3.0 -6.95 L2.75 -6.95 2.75 -1.65 Q4.5 -0.8 7.1 -0.05 9.7 0.7 12.8 0.7 18.25 0.7 21.45 -1.75 24.6 -4.2 24.6 -8.05" fill-rule="evenodd" stroke="none"/>
    </g>
    <g id="font_Verdana_h0">
      <path d="M28.0 0.0 L28.0 -18.1 Q28.0 -23.25 25.6 -25.95 23.25 -28.7 18.7 -28.7 16.25 -28.7 13.9 -27.65 11.55 -26.65 9.35 -24.8 L9.35 -38.9 4.65 -38.9 4.65 0.0 9.35 0.0 9.35 -20.85 13.35 -23.25 Q15.45 -24.2 17.4 -24.2 L20.45 -23.7 Q21.6 -23.2 22.25 -22.15 22.85 -21.2 23.05 -19.5 L23.3 -15.9 23.3 0.0 28.0 0.0" fill-rule="evenodd" stroke="none"/>
    </g>
    <g id="font_Verdana_a0">
      <path d="M21.65 -6.85 L21.65 -6.85 17.85 -4.55 Q15.8 -3.6 13.35 -3.6 10.35 -3.6 8.9 -4.8 7.45 -6.0 7.45 -8.4 7.45 -10.55 8.7 -11.75 9.95 -12.95 12.0 -13.55 L16.6 -14.25 21.65 -14.65 21.65 -6.85 M26.35 0.0 L26.35 -18.95 Q26.35 -21.65 25.5 -23.45 24.7 -25.3 23.1 -26.45 21.5 -27.6 19.35 -28.1 L14.2 -28.6 9.05 -28.15 5.1 -27.3 5.1 -22.55 5.35 -22.55 Q7.75 -23.45 10.05 -23.95 L14.15 -24.45 17.1 -24.25 Q18.5 -24.05 19.5 -23.45 20.55 -22.85 21.1 -21.8 21.65 -20.75 21.65 -19.15 L21.65 -18.45 14.0 -17.85 Q10.4 -17.45 7.85 -16.3 5.35 -15.2 4.0 -13.2 2.6 -11.25 2.6 -8.1 2.6 -4.2 5.25 -1.7 7.85 0.8 11.65 0.8 L15.2 0.4 Q16.75 0.0 17.9 -0.55 L20.0 -1.75 21.65 -2.95 21.65 0.0 26.35 0.0" fill-rule="evenodd" stroke="none"/>
    </g>
    <g id="font_Verdana_e0">
      <path d="M23.45 -17.05 L7.45 -17.05 Q7.75 -20.35 10.0 -22.6 12.2 -24.8 16.0 -24.8 19.75 -24.8 21.6 -22.8 23.4 -20.75 23.45 -17.05 M28.0 -13.45 L28.0 -16.0 Q28.0 -22.1 24.95 -25.4 21.9 -28.7 16.25 -28.7 10.15 -28.7 6.4 -24.65 2.65 -20.65 2.65 -13.8 2.65 -6.85 6.55 -3.1 10.45 0.65 17.4 0.65 L22.6 0.0 Q25.1 -0.7 27.45 -1.7 L27.45 -6.8 27.2 -6.8 Q26.0 -5.7 23.1 -4.55 20.2 -3.45 17.35 -3.45 L13.45 -4.05 Q11.65 -4.65 10.35 -5.85 9.0 -7.05 8.2 -8.95 7.45 -10.9 7.45 -13.45 L28.0 -13.45" fill-rule="evenodd" stroke="none"/>
    </g>
    <g id="font_Verdana_n0">
      <path d="M28.0 0.0 L28.0 -18.1 Q28.0 -23.25 25.6 -25.95 23.25 -28.7 18.7 -28.7 16.25 -28.7 13.9 -27.65 11.55 -26.65 9.35 -24.8 L9.35 -27.9 4.65 -27.9 4.65 0.0 9.35 0.0 9.35 -20.85 13.35 -23.25 Q15.45 -24.2 17.4 -24.2 L20.45 -23.7 Q21.6 -23.2 22.25 -22.15 22.85 -21.2 23.05 -19.5 L23.3 -15.9 23.3 0.0 28.0 0.0" fill-rule="evenodd" stroke="none"/>
    </g>
    <g id="font_Verdana_d0">
      <path d="M22.6 -6.85 L22.6 -6.85 Q20.8 -5.45 18.75 -4.55 16.7 -3.7 14.7 -3.7 10.95 -3.7 9.25 -6.25 7.55 -8.85 7.55 -13.85 7.55 -18.9 9.75 -21.65 11.95 -24.4 15.9 -24.4 L19.2 -24.05 22.6 -22.9 22.6 -6.85 M27.3 0.0 L27.3 -38.9 22.6 -38.9 22.6 -26.8 Q20.7 -27.75 19.0 -28.2 L15.1 -28.7 Q12.7 -28.7 10.45 -27.7 8.15 -26.7 6.45 -24.8 4.75 -22.85 3.75 -20.05 2.7 -17.3 2.7 -13.75 2.7 -6.9 5.65 -3.05 8.6 0.8 13.6 0.8 16.15 0.8 18.35 -0.2 20.55 -1.15 22.6 -2.9 L22.6 0.0 27.3 0.0" fill-rule="evenodd" stroke="none"/>
    </g>
    <g id="font_Verdana_T0">
      <path d="M31.55 -32.8 L31.55 -37.2 0.0 -37.2 0.0 -32.8 13.3 -32.8 13.3 0.0 18.25 0.0 18.25 -32.8 31.55 -32.8" fill-rule="evenodd" stroke="none"/>
    </g>
    <g id="font_Verdana_w0">
      <path d="M39.75 -27.9 L35.05 -27.9 30.2 -6.3 23.05 -27.9 19.15 -27.9 12.2 -6.3 7.05 -27.9 2.15 -27.9 9.5 0.0 13.85 0.0 20.95 -21.5 28.15 0.0 32.5 0.0 39.75 -27.9" fill-rule="evenodd" stroke="none"/>
    </g>
    <g id="font_Verdana__1">
      <path d="M9.65 -38.9 L4.1 -38.9 5.2 -24.4 8.6 -24.4 9.65 -38.9" fill-rule="evenodd" stroke="none"/>
    </g>
    <g id="font_Verdana_u0">
      <path d="M27.8 0.0 L27.8 -27.9 23.1 -27.9 23.1 -7.05 Q21.2 -5.6 19.05 -4.65 16.9 -3.7 15.05 -3.7 13.0 -3.7 11.95 -4.2 10.85 -4.7 10.2 -5.8 9.55 -6.85 9.35 -8.35 L9.15 -12.0 9.15 -27.9 4.45 -27.9 4.45 -9.8 Q4.45 -4.6 6.9 -1.9 9.35 0.8 13.75 0.8 16.35 0.8 18.55 -0.2 20.7 -1.2 23.1 -3.1 L23.1 0.0 27.8 0.0" fill-rule="evenodd" stroke="none"/>
    </g>
    <g id="font_Verdana_p0">
      <path d="M24.35 -14.15 L24.35 -14.15 Q24.35 -8.95 22.15 -6.3 19.95 -3.65 16.05 -3.65 L12.8 -4.0 Q11.35 -4.3 9.35 -5.2 L9.35 -21.05 13.25 -23.35 Q15.3 -24.2 17.35 -24.2 20.9 -24.2 22.65 -21.7 24.35 -19.2 24.35 -14.15 M29.2 -14.3 L29.2 -14.3 Q29.2 -21.05 26.4 -24.85 23.6 -28.7 18.55 -28.7 15.9 -28.7 13.55 -27.6 11.2 -26.55 9.35 -25.0 L9.35 -27.9 4.65 -27.9 4.65 10.3 9.35 10.3 9.35 -1.4 Q11.15 -0.4 12.95 0.1 L16.85 0.55 Q19.35 0.55 21.6 -0.45 23.85 -1.45 25.5 -3.3 27.25 -5.25 28.25 -8.05 29.2 -10.9 29.2 -14.3" fill-rule="evenodd" stroke="none"/>
    </g>
    <g id="font_Verdana_y0">
      <path d="M28.8 -27.9 L23.85 -27.9 15.2 -7.2 6.65 -27.9 1.55 -27.9 12.65 -1.35 7.45 10.3 12.5 10.3 28.8 -27.9" fill-rule="evenodd" stroke="none"/>
    </g>
    <g id="font_Verdana_f0">
      <path d="M19.65 -34.35 L19.65 -38.65 17.35 -39.0 14.5 -39.15 Q9.85 -39.15 7.35 -36.45 4.9 -33.8 4.9 -28.85 L4.9 -27.9 1.7 -27.9 1.7 -23.95 4.9 -23.95 4.9 0.0 9.6 0.0 9.6 -23.95 17.9 -23.95 17.9 -27.9 9.45 -27.9 9.45 -28.85 Q9.45 -32.35 10.8 -33.7 12.15 -35.05 15.2 -35.05 L17.4 -34.8 19.4 -34.35 19.65 -34.35" fill-rule="evenodd" stroke="none"/>
    </g>
    <g id="font_Verdana_m0">
      <path d="M45.4 0.0 L45.4 -18.1 Q45.4 -23.1 43.2 -25.9 41.0 -28.7 36.4 -28.7 33.75 -28.7 31.4 -27.6 29.05 -26.55 26.2 -24.15 25.2 -26.3 23.25 -27.5 21.25 -28.7 18.4 -28.7 15.9 -28.7 13.75 -27.65 11.55 -26.65 9.35 -24.8 L9.35 -27.9 4.65 -27.9 4.65 0.0 9.35 0.0 9.35 -20.85 Q11.25 -22.3 13.2 -23.25 15.15 -24.2 17.05 -24.2 19.1 -24.2 20.15 -23.65 21.25 -23.15 21.8 -22.05 22.35 -21.05 22.5 -19.4 L22.65 -15.9 22.65 0.0 27.35 0.0 27.35 -17.85 27.3 -19.35 27.2 -20.7 Q29.15 -22.25 31.15 -23.2 33.1 -24.2 35.1 -24.2 L38.2 -23.65 Q39.25 -23.1 39.85 -22.05 40.35 -21.05 40.55 -19.35 L40.7 -15.9 40.7 0.0 45.4 0.0" fill-rule="evenodd" stroke="none"/>
    </g>
    <g id="font_Verdana_.0">
      <path d="M12.3 0.0 L12.3 -7.1 6.35 -7.1 6.35 0.0 12.3 0.0" fill-rule="evenodd" stroke="none"/>
    </g>
    <g id="font_Verdana_H0">
      <path d="M33.5 0.0 L33.5 -37.2 28.55 -37.2 28.55 -22.6 9.95 -22.6 9.95 -37.2 5.0 -37.2 5.0 0.0 9.95 0.0 9.95 -18.2 28.55 -18.2 28.55 0.0 33.5 0.0" fill-rule="evenodd" stroke="none"/>
    </g>
    <g id="font_Verdana_F0">
      <path d="M28.8 -32.8 L28.8 -37.2 5.0 -37.2 5.0 0.0 9.95 0.0 9.95 -17.9 26.15 -17.9 26.15 -22.3 9.95 -22.3 9.95 -32.8 28.8 -32.8" fill-rule="evenodd" stroke="none"/>
    </g>
    <g id="font_Verdana_M0">
      <path d="M38.15 0.0 L38.15 -37.2 31.3 -37.2 21.7 -16.5 11.75 -37.2 5.0 -37.2 5.0 0.0 9.65 0.0 9.65 -32.05 19.9 -10.25 22.85 -10.25 33.2 -32.05 33.2 0.0 38.15 0.0" fill-rule="evenodd" stroke="none"/>
    </g>
    <g id="font_Verdana_k0">
      <path d="M30.0 0.0 L16.05 -15.0 29.05 -27.9 23.1 -27.9 9.55 -13.95 9.55 -38.9 4.85 -38.9 4.85 0.0 9.55 0.0 9.55 -9.3 12.6 -12.2 23.8 0.0 30.0 0.0" fill-rule="evenodd" stroke="none"/>
    </g>
  </defs>
</svg>
