<?xml version="1.0" encoding="UTF-8" standalone="no"?>
<svg xmlns:xlink="http://www.w3.org/1999/xlink" height="14.5px" width="86.45px" xmlns="http://www.w3.org/2000/svg">
  <g transform="matrix(1.0, 0.0, 0.0, 1.0, -2.8, -2.2)">
    <g transform="matrix(1.0, 0.0, 0.0, 1.0, 0.0, 0.0)">
      <use fill="#000000" height="14.5" transform="matrix(0.3125, 0.0, 0.0, 0.3125, 2.0, 16.0)" width="86.45" xlink:href="#font_Comics_F0"/>
      <use fill="#000000" height="14.5" transform="matrix(0.3125, 0.0, 0.0, 0.3125, 11.2, 16.0)" width="86.45" xlink:href="#font_Comics_L0"/>
      <use fill="#000000" height="14.5" transform="matrix(0.3125, 0.0, 0.0, 0.3125, 21.4, 16.0)" width="86.45" xlink:href="#font_Comics_I0"/>
      <use fill="#000000" height="14.5" transform="matrix(0.3125, 0.0, 0.0, 0.3125, 35.05, 16.0)" width="86.45" xlink:href="#font_Comics_P0"/>
      <use fill="#000000" height="14.5" transform="matrix(0.3125, 0.0, 0.0, 0.3125, 48.8, 16.0)" width="86.45" xlink:href="#font_Comics_P0"/>
      <use fill="#000000" height="14.5" transform="matrix(0.3125, 0.0, 0.0, 0.3125, 62.55, 16.0)" width="86.45" xlink:href="#font_Comics_Y0"/>
    </g>
  </g>
  <defs>
    <g id="font_Comics_F0">
      <path d="M3.7 -1.5 L16.0 2.8 15.7 -11.35 23.95 -12.3 23.05 -22.1 13.85 -22.1 13.2 -29.2 28.3 -28.55 28.3 -42.05 3.7 -42.7 3.7 -1.5" fill-rule="evenodd" stroke="none"/>
    </g>
    <g id="font_Comics_L0">
      <path d="M1.85 -39.95 L3.05 2.15 31.3 0.95 31.3 -11.65 16.9 -11.05 19.95 -41.45 1.85 -39.95" fill-rule="evenodd" stroke="none"/>
    </g>
    <g id="font_Comics_I0">
      <path d="M28.2 -13.2 L28.2 -13.2 Q28.7 -15.35 29.25 -21.75 29.8 -28.15 30.25 -31.2 L42.45 -31.45 42.45 -43.05 3.05 -39.3 3.9 -30.05 11.6 -30.9 11.95 -24.5 12.1 -17.6 12.05 -14.65 12.05 -12.7 3.0 -12.7 Q2.3 -9.65 2.15 -6.85 L1.9 -1.65 12.45 -0.5 25.9 0.8 35.8 1.35 37.4 1.25 Q37.85 1.15 37.85 1.05 L38.35 -12.7 31.95 -12.8 28.2 -13.2" fill-rule="evenodd" stroke="none"/>
    </g>
    <g id="font_Comics_P0">
      <path d="M19.05 -19.65 L19.05 -31.95 21.85 -32.4 Q24.2 -32.4 25.75 -31.2 27.35 -30.0 27.35 -27.95 27.35 -25.0 25.05 -23.05 22.75 -21.1 19.05 -19.65 M5.8 2.5 L22.4 0.65 19.95 -10.15 Q22.6 -9.3 25.8 -9.3 32.55 -9.3 37.45 -13.05 42.4 -16.85 42.4 -23.65 42.4 -32.95 34.75 -37.3 27.05 -41.65 15.8 -41.65 8.35 -41.65 1.85 -39.9 L5.8 2.5" fill-rule="evenodd" stroke="none"/>
    </g>
    <g id="font_Comics_Y0">
      <path d="M14.45 3.1 L34.1 1.85 34.1 -18.4 47.6 -33.15 39.6 -39.0 28.85 -27.0 20.9 -43.3 0.6 -35.35 14.1 -19.35 14.45 3.1" fill-rule="evenodd" stroke="none"/>
    </g>
  </defs>
</svg>
