<?xml version="1.0" encoding="UTF-8" standalone="no"?>
<svg xmlns:xlink="http://www.w3.org/1999/xlink" height="15.4px" width="182.5px" xmlns="http://www.w3.org/2000/svg">
  <g transform="matrix(1.0, 0.0, 0.0, 1.0, -10.4, -1.85)">
    <g transform="matrix(1.0, 0.0, 0.0, 1.0, 0.0, 0.0)">
      <use fill="#000000" height="15.4" transform="matrix(0.3125, 0.0, 0.0, 0.3125, 10.0, 16.0)" width="182.5" xlink:href="#font_Comics_M0"/>
      <use fill="#000000" height="15.4" transform="matrix(0.3125, 0.0, 0.0, 0.3125, 31.3, 16.0)" width="182.5" xlink:href="#font_Comics_R0"/>
      <use fill="#000000" height="15.4" transform="matrix(0.3125, 0.0, 0.0, 0.3125, 45.2, 16.0)" width="182.5" xlink:href="#font_Comics_.0"/>
      <use fill="#000000" height="15.4" transform="matrix(0.3125, 0.0, 0.0, 0.3125, 56.65, 16.0)" width="182.5" xlink:href="#font_Comics_H0"/>
      <use fill="#000000" height="15.4" transform="matrix(0.3125, 0.0, 0.0, 0.3125, 68.35, 16.0)" width="182.5" xlink:href="#font_Comics_O0"/>
      <use fill="#000000" height="15.4" transform="matrix(0.3125, 0.0, 0.0, 0.3125, 83.6, 16.0)" width="182.5" xlink:href="#font_Comics_L0"/>
      <use fill="#000000" height="15.4" transform="matrix(0.3125, 0.0, 0.0, 0.3125, 93.8, 16.0)" width="182.5" xlink:href="#font_Comics_L0"/>
      <use fill="#000000" height="15.4" transform="matrix(0.3125, 0.0, 0.0, 0.3125, 104.0, 16.0)" width="182.5" xlink:href="#font_Comics_Y0"/>
      <use fill="#000000" height="15.4" transform="matrix(0.3125, 0.0, 0.0, 0.3125, 119.05, 16.0)" width="182.5" xlink:href="#font_Comics_W0"/>
      <use fill="#000000" height="15.4" transform="matrix(0.3125, 0.0, 0.0, 0.3125, 137.2, 16.0)" width="182.5" xlink:href="#font_Comics_O0"/>
      <use fill="#000000" height="15.4" transform="matrix(0.3125, 0.0, 0.0, 0.3125, 152.45, 16.0)" width="182.5" xlink:href="#font_Comics_O0"/>
      <use fill="#000000" height="15.4" transform="matrix(0.3125, 0.0, 0.0, 0.3125, 167.7, 16.0)" width="182.5" xlink:href="#font_Comics_D0"/>
    </g>
  </g>
  <defs>
    <g id="font_Comics_M0">
      <path d="M1.25 -0.9 L16.6 0.65 16.9 -25.8 29.2 -1.85 34.75 -1.2 47.3 -24.55 49.15 -0.6 66.7 1.85 59.6 -40.25 45.8 -38.4 35.05 -23.65 25.2 -41.45 8.9 -42.4 1.25 -0.9" fill-rule="evenodd" stroke="none"/>
    </g>
    <g id="font_Comics_R0">
      <path d="M15.3 -23.75 L12.65 -31.0 16.5 -33.05 Q18.9 -34.3 20.45 -34.3 21.3 -34.3 21.95 -33.9 22.55 -33.5 22.95 -32.6 23.35 -31.75 23.35 -30.95 23.35 -28.6 20.9 -26.7 18.4 -24.8 15.3 -23.75 M4.35 3.5 L15.65 -0.8 13.95 -12.45 19.6 -16.1 28.25 1.8 45.5 -10.4 29.2 -22.4 Q31.8 -25.05 33.1 -27.65 34.4 -30.2 34.4 -33.1 34.4 -35.5 33.5 -38.0 32.65 -40.55 28.9 -41.8 25.15 -43.05 19.6 -43.05 L9.65 -42.1 Q4.45 -41.2 0.7 -39.65 L4.35 3.5" fill-rule="evenodd" stroke="none"/>
    </g>
    <g id="font_Comics_.0">
      <path d="M5.25 -5.25 L5.25 -5.25 Q4.0 -5.25 3.1 -4.35 2.2 -3.45 2.2 -2.25 2.2 -0.95 3.25 0.0 4.25 1.0 5.55 0.8 8.2 0.4 8.2 -2.25 8.2 -3.5 7.35 -4.4 6.45 -5.25 5.25 -5.25" fill-rule="evenodd" stroke="none"/>
    </g>
    <g id="font_Comics_H0">
      <path d="M14.15 4.0 L14.15 -11.65 20.6 -12.3 20.3 0.0 34.1 1.25 34.1 -38.1 23.35 -37.45 22.75 -20.9 17.2 -21.2 18.15 -43.0 4.0 -42.05 2.45 0.95 14.15 4.0" fill-rule="evenodd" stroke="none"/>
    </g>
    <g id="font_Comics_O0">
      <path d="M23.95 -9.5 L23.95 -9.5 Q20.55 -9.8 18.25 -12.05 16.0 -14.25 16.0 -17.5 16.0 -21.0 17.9 -23.55 19.8 -26.1 23.05 -26.7 L23.05 -25.55 24.85 -25.7 Q28.65 -25.7 30.45 -23.35 32.25 -21.0 32.25 -18.1 32.25 -14.1 30.35 -11.8 28.45 -9.45 25.0 -9.45 L24.6 -9.45 23.95 -9.5 M23.05 0.0 L23.05 0.0 Q32.9 0.0 40.25 -5.75 47.65 -11.55 47.65 -20.55 47.65 -30.05 41.45 -36.5 35.3 -42.95 23.05 -42.95 L23.05 -44.55 Q13.75 -44.55 7.5 -37.3 1.25 -30.05 1.25 -20.25 1.25 -11.7 7.7 -5.85 14.2 0.0 23.05 0.0" fill-rule="evenodd" stroke="none"/>
    </g>
    <g id="font_Comics_L0">
      <path d="M1.85 -39.95 L3.05 2.15 31.3 0.95 31.3 -11.65 16.9 -11.05 19.95 -41.45 1.85 -39.95" fill-rule="evenodd" stroke="none"/>
    </g>
    <g id="font_Comics_Y0">
      <path d="M14.45 3.1 L34.1 1.85 34.1 -18.4 47.6 -33.15 39.6 -39.0 28.85 -27.0 20.9 -43.3 0.6 -35.35 14.1 -19.35 14.45 3.1" fill-rule="evenodd" stroke="none"/>
    </g>
    <g id="font_Comics_W0">
      <path d="M8.5 4.8 L25.85 -19.0 37.9 2.5 58.75 -33.5 44.85 -39.85 35.35 -21.2 26.2 -38.6 18.25 -20.25 18.25 -43.65 0.55 -38.9 8.5 4.8" fill-rule="evenodd" stroke="none"/>
    </g>
    <g id="font_Comics_D0">
      <path d="M15.15 -13.1 L15.15 -31.8 Q19.6 -31.8 22.35 -29.95 25.1 -28.15 25.1 -23.05 25.1 -19.4 22.3 -16.9 19.5 -14.35 15.15 -13.1 M4.1 1.45 L4.1 1.45 11.2 2.3 Q22.65 2.3 31.9 -4.55 41.15 -11.45 41.15 -22.45 41.15 -32.35 35.1 -36.8 29.0 -41.25 19.25 -41.25 L10.5 -40.45 Q6.0 -39.65 1.75 -38.25 L4.1 1.45" fill-rule="evenodd" stroke="none"/>
    </g>
  </defs>
</svg>
