<?xml version="1.0" encoding="UTF-8" standalone="no"?>
<svg xmlns:xlink="http://www.w3.org/1999/xlink" height="24.95px" width="103.6px" xmlns="http://www.w3.org/2000/svg">
  <g transform="matrix(1.0, 0.0, 0.0, 1.0, -28.4, -2.95)">
    <g transform="matrix(1.0, 0.0, 0.0, 1.0, 0.0, 0.0)">
      <use fill="#000000" height="24.95" transform="matrix(0.5078, 0.0, 0.0, 0.5078, 27.0, 26.0)" width="103.6" xlink:href="#font_Comics_N0"/>
      <use fill="#000000" height="24.95" transform="matrix(0.5078, 0.0, 0.0, 0.5078, 51.2, 26.0)" width="103.6" xlink:href="#font_Comics_E0"/>
      <use fill="#000000" height="24.95" transform="matrix(0.5078, 0.0, 0.0, 0.5078, 67.1, 26.0)" width="103.6" xlink:href="#font_Comics_X0"/>
      <use fill="#000000" height="24.95" transform="matrix(0.5078, 0.0, 0.0, 0.5078, 92.85, 26.0)" width="103.6" xlink:href="#font_Comics_T0"/>
    </g>
  </g>
  <defs>
    <g id="font_Comics_N0">
      <path d="M15.7 -0.9 L15.7 -20.9 35.65 4.65 47.0 -42.7 28.3 -38.1 28.3 -20.25 17.5 -40.55 3.1 -36.25 2.15 -5.2 15.7 -0.9" fill-rule="evenodd" stroke="none"/>
    </g>
    <g id="font_Comics_E0">
      <path d="M4.0 -1.8 L30.45 1.55 29.5 -15.35 17.85 -14.45 17.2 -17.5 23.65 -19.95 22.75 -26.7 14.15 -26.1 13.2 -34.1 26.45 -35.65 25.8 -44.55 0.95 -41.45 4.0 -1.8" fill-rule="evenodd" stroke="none"/>
    </g>
    <g id="font_Comics_X0">
      <path d="M9.2 3.5 L23.1 -8.25 33.55 4.1 52.55 -6.35 38.3 -20.6 50.65 -34.15 39.9 -41.1 29.15 -27.55 20.9 -40.8 0.0 -32.9 17.1 -15.8 1.6 -6.65 9.2 3.5" fill-rule="evenodd" stroke="none"/>
    </g>
    <g id="font_Comics_T0">
      <path d="M13.2 3.4 L27.0 0.6 23.65 -26.75 37.15 -29.2 37.15 -40.25 1.85 -42.1 1.85 -23.05 13.2 -23.95 13.2 3.4" fill-rule="evenodd" stroke="none"/>
    </g>
  </defs>
</svg>
