<?xml version="1.0" encoding="UTF-8" standalone="no"?>
<svg xmlns:xlink="http://www.w3.org/1999/xlink" height="9.3px" width="137.1px" xmlns="http://www.w3.org/2000/svg">
  <g transform="matrix(1.0, 0.0, 0.0, 1.0, -0.5, -2.95)">
    <g transform="matrix(1.0, 0.0, 0.0, 1.0, 0.0, 0.0)">
      <use fill="#000000" height="9.3" transform="matrix(0.2344, 0.0, 0.0, 0.2344, 0.0, 12.0)" width="137.1" xlink:href="#font_Verdana_w0"/>
      <use fill="#000000" height="9.3" transform="matrix(0.2344, 0.0, 0.0, 0.2344, 9.8, 12.0)" width="137.1" xlink:href="#font_Verdana_w0"/>
      <use fill="#000000" height="9.3" transform="matrix(0.2344, 0.0, 0.0, 0.2344, 19.6, 12.0)" width="137.1" xlink:href="#font_Verdana_w0"/>
      <use fill="#000000" height="9.3" transform="matrix(0.2344, 0.0, 0.0, 0.2344, 29.4, 12.0)" width="137.1" xlink:href="#font_Verdana_.0"/>
      <use fill="#000000" height="9.3" transform="matrix(0.2344, 0.0, 0.0, 0.2344, 33.75, 12.0)" width="137.1" xlink:href="#font_Verdana_t0"/>
      <use fill="#000000" height="9.3" transform="matrix(0.2344, 0.0, 0.0, 0.2344, 38.5, 12.0)" width="137.1" xlink:href="#font_Verdana_o0"/>
      <use fill="#000000" height="9.3" transform="matrix(0.2344, 0.0, 0.0, 0.2344, 45.8, 12.0)" width="137.1" xlink:href="#font_Verdana_o0"/>
      <use fill="#000000" height="9.3" transform="matrix(0.2344, 0.0, 0.0, 0.2344, 53.1, 12.0)" width="137.1" xlink:href="#font_Verdana_n0"/>
      <use fill="#000000" height="9.3" transform="matrix(0.2344, 0.0, 0.0, 0.2344, 60.7, 12.0)" width="137.1" xlink:href="#font_Verdana_t0"/>
      <use fill="#000000" height="9.3" transform="matrix(0.2344, 0.0, 0.0, 0.2344, 65.45, 12.0)" width="137.1" xlink:href="#font_Verdana_o0"/>
      <use fill="#000000" height="9.3" transform="matrix(0.2344, 0.0, 0.0, 0.2344, 72.75, 12.0)" width="137.1" xlink:href="#font_Verdana_w0"/>
      <use fill="#000000" height="9.3" transform="matrix(0.2344, 0.0, 0.0, 0.2344, 82.55, 12.0)" width="137.1" xlink:href="#font_Verdana_n0"/>
      <use fill="#000000" height="9.3" transform="matrix(0.2344, 0.0, 0.0, 0.2344, 90.15, 12.0)" width="137.1" xlink:href="#font_Verdana_.0"/>
      <use fill="#000000" height="9.3" transform="matrix(0.2344, 0.0, 0.0, 0.2344, 94.5, 12.0)" width="137.1" xlink:href="#font_Verdana_c0"/>
      <use fill="#000000" height="9.3" transform="matrix(0.2344, 0.0, 0.0, 0.2344, 100.75, 12.0)" width="137.1" xlink:href="#font_Verdana_o0"/>
      <use fill="#000000" height="9.3" transform="matrix(0.2344, 0.0, 0.0, 0.2344, 108.05, 12.0)" width="137.1" xlink:href="#font_Verdana_.0"/>
      <use fill="#000000" height="9.3" transform="matrix(0.2344, 0.0, 0.0, 0.2344, 112.4, 12.0)" width="137.1" xlink:href="#font_Verdana_u0"/>
      <use fill="#000000" height="9.3" transform="matrix(0.2344, 0.0, 0.0, 0.2344, 120.0, 12.0)" width="137.1" xlink:href="#font_Verdana_k0"/>
    </g>
  </g>
  <defs>
    <g id="font_Verdana_w0">
      <path d="M39.75 -27.9 L35.05 -27.9 30.2 -6.3 23.05 -27.9 19.15 -27.9 12.2 -6.3 7.05 -27.9 2.15 -27.9 9.5 0.0 13.85 0.0 20.95 -21.5 28.15 0.0 32.5 0.0 39.75 -27.9" fill-rule="evenodd" stroke="none"/>
    </g>
    <g id="font_Verdana_.0">
      <path d="M12.3 0.0 L12.3 -7.1 6.35 -7.1 6.35 0.0 12.3 0.0" fill-rule="evenodd" stroke="none"/>
    </g>
    <g id="font_Verdana_t0">
      <path d="M19.15 -0.25 L19.15 -4.45 18.9 -4.45 17.1 -3.9 14.7 -3.55 Q12.7 -3.55 11.75 -4.0 10.8 -4.5 10.25 -5.5 9.65 -6.55 9.55 -7.8 L9.45 -11.25 9.45 -23.95 19.15 -23.95 19.15 -27.9 9.45 -27.9 9.45 -35.95 4.75 -35.95 4.75 -27.9 1.55 -27.9 1.55 -23.95 4.75 -23.95 4.75 -9.1 Q4.75 -4.05 6.95 -1.75 9.2 0.55 13.45 0.55 L16.25 0.35 19.15 -0.25" fill-rule="evenodd" stroke="none"/>
    </g>
    <g id="font_Verdana_o0">
      <path d="M23.6 -13.95 L23.6 -13.95 Q23.6 -8.65 21.45 -5.95 19.3 -3.25 15.55 -3.25 11.75 -3.25 9.65 -5.95 7.5 -8.7 7.5 -13.95 7.5 -19.35 9.65 -22.0 11.75 -24.65 15.55 -24.65 19.35 -24.65 21.45 -22.0 23.6 -19.35 23.6 -13.95 M28.45 -13.95 L28.45 -13.95 Q28.45 -20.75 24.95 -24.7 21.45 -28.7 15.55 -28.7 9.65 -28.7 6.15 -24.7 2.65 -20.75 2.65 -13.95 2.65 -7.1 6.15 -3.15 9.65 0.8 15.55 0.8 21.45 0.8 24.95 -3.15 28.45 -7.1 28.45 -13.95" fill-rule="evenodd" stroke="none"/>
    </g>
    <g id="font_Verdana_n0">
      <path d="M28.0 0.0 L28.0 -18.1 Q28.0 -23.25 25.6 -25.95 23.25 -28.7 18.7 -28.7 16.25 -28.7 13.9 -27.65 11.55 -26.65 9.35 -24.8 L9.35 -27.9 4.65 -27.9 4.65 0.0 9.35 0.0 9.35 -20.85 13.35 -23.25 Q15.45 -24.2 17.4 -24.2 L20.45 -23.7 Q21.6 -23.2 22.25 -22.15 22.85 -21.2 23.05 -19.5 L23.3 -15.9 23.3 0.0 28.0 0.0" fill-rule="evenodd" stroke="none"/>
    </g>
    <g id="font_Verdana_c0">
      <path d="M25.3 -1.75 L25.3 -6.9 25.05 -6.9 23.6 -5.9 21.7 -4.8 19.05 -3.8 16.15 -3.45 Q12.05 -3.45 9.8 -6.15 7.5 -8.85 7.5 -13.9 7.5 -19.1 9.85 -21.8 12.15 -24.5 16.15 -24.5 18.3 -24.5 20.6 -23.6 22.9 -22.7 25.05 -21.0 L25.3 -21.0 25.3 -26.25 21.05 -27.9 16.35 -28.55 Q10.15 -28.55 6.4 -24.65 2.65 -20.75 2.65 -13.9 2.65 -10.25 3.65 -7.5 4.65 -4.75 6.45 -2.95 8.25 -1.15 10.8 -0.25 13.3 0.65 16.35 0.65 L20.85 0.0 Q22.95 -0.6 25.3 -1.75" fill-rule="evenodd" stroke="none"/>
    </g>
    <g id="font_Verdana_u0">
      <path d="M27.8 0.0 L27.8 -27.9 23.1 -27.9 23.1 -7.05 Q21.2 -5.6 19.05 -4.65 16.9 -3.7 15.05 -3.7 13.0 -3.7 11.95 -4.2 10.85 -4.7 10.2 -5.8 9.55 -6.85 9.35 -8.35 L9.15 -12.0 9.15 -27.9 4.45 -27.9 4.45 -9.8 Q4.45 -4.6 6.9 -1.9 9.35 0.8 13.75 0.8 16.35 0.8 18.55 -0.2 20.7 -1.2 23.1 -3.1 L23.1 0.0 27.8 0.0" fill-rule="evenodd" stroke="none"/>
    </g>
    <g id="font_Verdana_k0">
      <path d="M30.0 0.0 L16.05 -15.0 29.05 -27.9 23.1 -27.9 9.55 -13.95 9.55 -38.9 4.85 -38.9 4.85 0.0 9.55 0.0 9.55 -9.3 12.6 -12.2 23.8 0.0 30.0 0.0" fill-rule="evenodd" stroke="none"/>
    </g>
  </defs>
</svg>
