<?xml version="1.0" encoding="UTF-8" standalone="no"?>
<svg xmlns:xlink="http://www.w3.org/1999/xlink" height="24.0px" width="102.9px" xmlns="http://www.w3.org/2000/svg">
  <g transform="matrix(1.0, 0.0, 0.0, 1.0, -28.45, -2.95)">
    <g transform="matrix(1.0, 0.0, 0.0, 1.0, 0.0, 0.0)">
      <use fill="#735fc0" height="24.0" transform="matrix(0.5078, 0.0, 0.0, 0.5078, 28.0, 26.0)" width="102.9" xlink:href="#font_Comics_B0"/>
      <use fill="#735fc0" height="24.0" transform="matrix(0.5078, 0.0, 0.0, 0.5078, 48.75, 26.0)" width="102.9" xlink:href="#font_Comics_A0"/>
      <use fill="#735fc0" height="24.0" transform="matrix(0.5078, 0.0, 0.0, 0.5078, 70.45, 26.0)" width="102.9" xlink:href="#font_Comics_C0"/>
      <use fill="#735fc0" height="24.0" transform="matrix(0.5078, 0.0, 0.0, 0.5078, 87.75, 26.0)" width="102.9" xlink:href="#font_Comics_K0"/>
    </g>
  </g>
  <defs>
    <g id="font_Comics_B0">
      <path d="M16.5 -22.55 L15.4 -31.55 Q16.2 -32.3 17.15 -32.65 L19.35 -32.95 Q21.4 -32.95 22.9 -32.0 24.45 -31.0 24.65 -30.1 L24.8 -28.7 Q24.8 -26.3 22.1 -24.45 19.35 -22.55 16.5 -22.55 M18.3 -8.95 L17.2 -15.75 Q18.05 -16.45 19.5 -16.95 L22.55 -17.4 Q24.1 -17.4 25.2 -16.8 26.35 -16.2 26.45 -15.5 L26.6 -14.45 Q26.6 -12.2 23.8 -10.6 21.0 -8.95 18.3 -8.95 M3.95 -2.15 L3.95 -2.15 Q7.45 -0.05 10.5 0.7 L17.95 1.45 Q25.35 1.45 32.95 -2.85 40.5 -7.15 40.5 -14.35 40.5 -18.8 37.8 -20.85 35.05 -22.9 31.55 -23.65 33.8 -26.1 34.85 -27.8 35.85 -29.5 35.85 -31.9 35.85 -37.0 31.55 -39.3 27.25 -41.55 20.4 -41.55 15.15 -41.55 9.75 -40.3 4.35 -39.05 1.1 -37.25 L2.9 -31.15 3.95 -2.15" fill-rule="evenodd" stroke="none"/>
    </g>
    <g id="font_Comics_A0">
      <path d="M25.2 -18.4 L16.0 -18.7 19.05 -33.75 25.2 -18.4 M0.0 1.85 L17.5 -1.85 19.35 -12.25 25.5 -12.25 28.9 -1.2 42.7 -0.9 27.65 -41.8 10.75 -44.55 0.0 1.85" fill-rule="evenodd" stroke="none"/>
    </g>
    <g id="font_Comics_C0">
      <path d="M34.1 -4.6 L26.75 -20.55 Q25.85 -17.9 23.7 -16.5 21.55 -15.1 18.95 -15.1 16.05 -15.1 14.0 -16.85 11.95 -18.6 11.95 -21.8 11.95 -26.2 14.0 -29.1 16.1 -32.05 18.9 -32.05 21.4 -32.05 23.65 -29.8 L29.5 -39.6 Q27.4 -40.65 25.5 -41.05 L21.35 -41.45 Q12.95 -41.45 6.65 -34.75 0.3 -28.05 0.3 -18.4 0.3 -9.65 5.5 -3.8 10.7 2.05 18.4 2.05 22.2 2.05 26.2 0.4 30.2 -1.2 34.1 -4.6" fill-rule="evenodd" stroke="none"/>
    </g>
    <g id="font_Comics_K0">
      <path d="M3.1 -1.85 L12.3 2.8 16.3 -11.95 26.45 1.25 46.4 -2.45 28.6 -19.35 45.5 -36.85 30.75 -37.15 17.85 -21.8 21.8 -39.6 4.0 -41.45 3.1 -1.85" fill-rule="evenodd" stroke="none"/>
    </g>
  </defs>
</svg>
