<?xml version="1.0" encoding="UTF-8" standalone="no"?>
<svg xmlns:xlink="http://www.w3.org/1999/xlink" height="10.85px" width="84.4px" xmlns="http://www.w3.org/2000/svg">
  <g transform="matrix(1.0, 0.0, 0.0, 1.0, -4.4, -3.45)">
    <g transform="matrix(1.0, 0.0, 0.0, 1.0, 0.0, 0.0)">
      <use fill="#000000" height="10.85" transform="matrix(0.2734, 0.0, 0.0, 0.2734, 3.0, 14.0)" width="84.4" xlink:href="#font_Verdana_F0"/>
      <use fill="#000000" height="10.85" transform="matrix(0.2734, 0.0, 0.0, 0.2734, 11.05, 14.0)" width="84.4" xlink:href="#font_Verdana_l0"/>
      <use fill="#000000" height="10.85" transform="matrix(0.2734, 0.0, 0.0, 0.2734, 14.9, 14.0)" width="84.4" xlink:href="#font_Verdana_o0"/>
      <use fill="#000000" height="10.85" transform="matrix(0.2734, 0.0, 0.0, 0.2734, 23.4, 14.0)" width="84.4" xlink:href="#font_Verdana_w0"/>
      <use fill="#000000" height="10.85" transform="matrix(0.2734, 0.0, 0.0, 0.2734, 34.85, 14.0)" width="84.4" xlink:href="#font_Verdana_e0"/>
      <use fill="#000000" height="10.85" transform="matrix(0.2734, 0.0, 0.0, 0.2734, 43.2, 14.0)" width="84.4" xlink:href="#font_Verdana_r0"/>
      <use fill="#000000" height="10.85" transform="matrix(0.2734, 0.0, 0.0, 0.2734, 54.05, 14.0)" width="84.4" xlink:href="#font_Verdana_P0"/>
      <use fill="#000000" height="10.85" transform="matrix(0.2734, 0.0, 0.0, 0.2734, 62.5, 14.0)" width="84.4" xlink:href="#font_Verdana_o0"/>
      <use fill="#000000" height="10.85" transform="matrix(0.2734, 0.0, 0.0, 0.2734, 71.0, 14.0)" width="84.4" xlink:href="#font_Verdana_t0"/>
    </g>
  </g>
  <defs>
    <g id="font_Verdana_F0">
      <path d="M28.8 -32.8 L28.8 -37.2 5.0 -37.2 5.0 0.0 9.95 0.0 9.95 -17.9 26.15 -17.9 26.15 -22.3 9.95 -22.3 9.95 -32.8 28.8 -32.8" fill-rule="evenodd" stroke="none"/>
    </g>
    <g id="font_Verdana_l0">
      <path d="M9.4 0.0 L9.4 -38.9 4.7 -38.9 4.7 0.0 9.4 0.0" fill-rule="evenodd" stroke="none"/>
    </g>
    <g id="font_Verdana_o0">
      <path d="M23.6 -13.95 L23.6 -13.95 Q23.6 -8.65 21.45 -5.95 19.3 -3.25 15.55 -3.25 11.75 -3.25 9.65 -5.95 7.5 -8.7 7.5 -13.95 7.5 -19.35 9.65 -22.0 11.75 -24.65 15.55 -24.65 19.35 -24.65 21.45 -22.0 23.6 -19.35 23.6 -13.95 M28.45 -13.95 L28.45 -13.95 Q28.45 -20.75 24.95 -24.7 21.45 -28.7 15.55 -28.7 9.65 -28.7 6.15 -24.7 2.65 -20.75 2.65 -13.95 2.65 -7.1 6.15 -3.15 9.65 0.8 15.55 0.8 21.45 0.8 24.95 -3.15 28.45 -7.1 28.45 -13.95" fill-rule="evenodd" stroke="none"/>
    </g>
    <g id="font_Verdana_w0">
      <path d="M39.75 -27.9 L35.05 -27.9 30.2 -6.3 23.05 -27.9 19.15 -27.9 12.2 -6.3 7.05 -27.9 2.15 -27.9 9.5 0.0 13.85 0.0 20.95 -21.5 28.15 0.0 32.5 0.0 39.75 -27.9" fill-rule="evenodd" stroke="none"/>
    </g>
    <g id="font_Verdana_e0">
      <path d="M23.45 -17.05 L7.45 -17.05 Q7.75 -20.35 10.0 -22.6 12.2 -24.8 16.0 -24.8 19.75 -24.8 21.6 -22.8 23.4 -20.75 23.45 -17.05 M28.0 -13.45 L28.0 -16.0 Q28.0 -22.1 24.95 -25.4 21.9 -28.7 16.25 -28.7 10.15 -28.7 6.4 -24.65 2.65 -20.65 2.65 -13.8 2.65 -6.85 6.55 -3.1 10.45 0.65 17.4 0.65 L22.6 0.0 Q25.1 -0.7 27.45 -1.7 L27.45 -6.8 27.2 -6.8 Q26.0 -5.7 23.1 -4.55 20.2 -3.45 17.35 -3.45 L13.45 -4.05 Q11.65 -4.65 10.35 -5.85 9.0 -7.05 8.2 -8.95 7.45 -10.9 7.45 -13.45 L28.0 -13.45" fill-rule="evenodd" stroke="none"/>
    </g>
    <g id="font_Verdana_r0">
      <path d="M22.05 -22.8 L22.05 -27.6 20.4 -27.85 18.65 -27.9 Q16.4 -27.9 14.3 -26.95 12.15 -26.05 9.35 -23.8 L9.35 -27.9 4.65 -27.9 4.65 0.0 9.35 0.0 9.35 -19.8 Q11.2 -21.35 13.25 -22.3 15.25 -23.25 17.45 -23.25 L19.8 -23.15 21.8 -22.8 22.05 -22.8" fill-rule="evenodd" stroke="none"/>
    </g>
    <g id="font_Verdana_P0">
      <path d="M24.2 -25.85 L24.2 -25.85 Q24.2 -24.2 23.75 -22.85 23.25 -21.55 22.05 -20.35 20.9 -19.15 19.0 -18.6 L14.15 -18.1 9.95 -18.1 9.95 -32.95 14.85 -32.95 18.75 -32.6 Q20.3 -32.3 21.5 -31.5 22.85 -30.6 23.55 -29.2 24.2 -27.75 24.2 -25.85 M29.35 -25.95 L29.35 -25.95 Q29.35 -29.2 28.2 -31.35 27.05 -33.45 24.9 -34.9 23.1 -36.1 20.8 -36.65 L15.1 -37.2 5.0 -37.2 5.0 0.0 9.95 0.0 9.95 -13.85 14.9 -13.85 Q18.9 -13.85 21.55 -14.8 24.15 -15.8 26.1 -17.7 27.65 -19.25 28.5 -21.35 29.35 -23.5 29.35 -25.95" fill-rule="evenodd" stroke="none"/>
    </g>
    <g id="font_Verdana_t0">
      <path d="M19.15 -0.25 L19.15 -4.45 18.9 -4.45 17.1 -3.9 14.7 -3.55 Q12.7 -3.55 11.75 -4.0 10.8 -4.5 10.25 -5.5 9.65 -6.55 9.55 -7.8 L9.45 -11.25 9.45 -23.95 19.15 -23.95 19.15 -27.9 9.45 -27.9 9.45 -35.95 4.75 -35.95 4.75 -27.9 1.55 -27.9 1.55 -23.95 4.75 -23.95 4.75 -9.1 Q4.75 -4.05 6.95 -1.75 9.2 0.55 13.45 0.55 L16.25 0.35 19.15 -0.25" fill-rule="evenodd" stroke="none"/>
    </g>
  </defs>
</svg>
