<?xml version="1.0" encoding="UTF-8" standalone="no"?>
<svg xmlns:xlink="http://www.w3.org/1999/xlink" height="13.55px" width="72.65px" xmlns="http://www.w3.org/2000/svg">
  <g transform="matrix(1.0, 0.0, 0.0, 1.0, -10.05, -3.45)">
    <g transform="matrix(1.0, 0.0, 0.0, 1.0, 0.0, 0.0)">
      <use fill="#000000" height="13.55" transform="matrix(0.2734, 0.0, 0.0, 0.2734, 9.0, 14.0)" width="72.65" xlink:href="#font_Verdana_S0"/>
      <use fill="#000000" height="13.55" transform="matrix(0.2734, 0.0, 0.0, 0.2734, 18.55, 14.0)" width="72.65" xlink:href="#font_Verdana_a0"/>
      <use fill="#000000" height="13.55" transform="matrix(0.2734, 0.0, 0.0, 0.2734, 26.95, 14.0)" width="72.65" xlink:href="#font_Verdana_n0"/>
      <use fill="#000000" height="13.55" transform="matrix(0.2734, 0.0, 0.0, 0.2734, 35.8, 14.0)" width="72.65" xlink:href="#font_Verdana_d0"/>
      <use fill="#000000" height="13.55" transform="matrix(0.2734, 0.0, 0.0, 0.2734, 44.5, 14.0)" width="72.65" xlink:href="#font_Verdana_b0"/>
      <use fill="#000000" height="13.55" transform="matrix(0.2734, 0.0, 0.0, 0.2734, 53.2, 14.0)" width="72.65" xlink:href="#font_Verdana_a0"/>
      <use fill="#000000" height="13.55" transform="matrix(0.2734, 0.0, 0.0, 0.2734, 61.6, 14.0)" width="72.65" xlink:href="#font_Verdana_g0"/>
    </g>
  </g>
  <defs>
    <g id="font_Verdana_S0">
      <path d="M32.05 -10.6 L32.05 -10.6 Q32.05 -14.6 29.95 -16.85 27.85 -19.05 23.7 -20.15 L18.7 -21.2 14.15 -22.05 Q11.15 -22.75 9.95 -24.05 8.75 -25.4 8.75 -27.7 8.75 -30.3 11.15 -31.95 13.55 -33.6 17.55 -33.6 21.15 -33.6 24.65 -32.4 28.1 -31.25 30.2 -29.45 L30.55 -29.45 30.55 -35.3 Q28.05 -36.4 24.75 -37.15 L17.55 -37.9 Q11.5 -37.9 7.55 -34.9 3.6 -31.9 3.6 -27.25 3.6 -23.15 6.0 -20.6 8.35 -18.1 13.3 -17.05 L17.95 -16.2 22.0 -15.4 Q24.5 -14.75 25.7 -13.55 26.9 -12.4 26.9 -9.9 26.9 -7.05 24.35 -5.3 21.8 -3.6 17.2 -3.6 13.95 -3.6 10.25 -4.85 6.55 -6.15 3.7 -8.5 L3.35 -8.5 3.35 -2.3 Q6.7 -0.8 9.9 -0.05 L17.15 0.7 Q20.9 0.7 23.55 -0.2 26.2 -1.1 28.2 -2.7 30.05 -4.2 31.05 -6.3 32.05 -8.45 32.05 -10.6" fill-rule="evenodd" stroke="none"/>
    </g>
    <g id="font_Verdana_a0">
      <path d="M21.65 -6.85 L21.65 -6.85 17.85 -4.55 Q15.8 -3.6 13.35 -3.6 10.35 -3.6 8.9 -4.8 7.45 -6.0 7.45 -8.4 7.45 -10.55 8.7 -11.75 9.95 -12.95 12.0 -13.55 L16.6 -14.25 21.65 -14.65 21.65 -6.85 M26.35 0.0 L26.35 -18.95 Q26.35 -21.65 25.5 -23.45 24.7 -25.3 23.1 -26.45 21.5 -27.6 19.35 -28.1 L14.2 -28.6 9.05 -28.15 5.1 -27.3 5.1 -22.55 5.35 -22.55 Q7.75 -23.45 10.05 -23.95 L14.15 -24.45 17.1 -24.25 Q18.5 -24.05 19.5 -23.45 20.55 -22.85 21.1 -21.8 21.65 -20.75 21.65 -19.15 L21.65 -18.45 14.0 -17.85 Q10.4 -17.45 7.85 -16.3 5.35 -15.2 4.0 -13.2 2.6 -11.25 2.6 -8.1 2.6 -4.2 5.25 -1.7 7.85 0.8 11.65 0.8 L15.2 0.4 Q16.75 0.0 17.9 -0.55 L20.0 -1.75 21.65 -2.95 21.65 0.0 26.35 0.0" fill-rule="evenodd" stroke="none"/>
    </g>
    <g id="font_Verdana_n0">
      <path d="M28.0 0.0 L28.0 -18.1 Q28.0 -23.25 25.6 -25.95 23.25 -28.7 18.7 -28.7 16.25 -28.7 13.9 -27.65 11.55 -26.65 9.35 -24.8 L9.35 -27.9 4.65 -27.9 4.65 0.0 9.35 0.0 9.35 -20.85 13.35 -23.25 Q15.45 -24.2 17.4 -24.2 L20.45 -23.7 Q21.6 -23.2 22.25 -22.15 22.85 -21.2 23.05 -19.5 L23.3 -15.9 23.3 0.0 28.0 0.0" fill-rule="evenodd" stroke="none"/>
    </g>
    <g id="font_Verdana_d0">
      <path d="M22.6 -6.85 L22.6 -6.85 Q20.8 -5.45 18.75 -4.55 16.7 -3.7 14.7 -3.7 10.95 -3.7 9.25 -6.25 7.55 -8.85 7.55 -13.85 7.55 -18.9 9.75 -21.65 11.95 -24.4 15.9 -24.4 L19.2 -24.05 22.6 -22.9 22.6 -6.85 M27.3 0.0 L27.3 -38.9 22.6 -38.9 22.6 -26.8 Q20.7 -27.75 19.0 -28.2 L15.1 -28.7 Q12.7 -28.7 10.45 -27.7 8.15 -26.7 6.45 -24.8 4.75 -22.85 3.75 -20.05 2.7 -17.3 2.7 -13.75 2.7 -6.9 5.65 -3.05 8.6 0.8 13.6 0.8 16.15 0.8 18.35 -0.2 20.55 -1.15 22.6 -2.9 L22.6 0.0 27.3 0.0" fill-rule="evenodd" stroke="none"/>
    </g>
    <g id="font_Verdana_b0">
      <path d="M24.35 -14.05 L24.35 -14.05 Q24.35 -8.55 22.15 -6.0 19.95 -3.45 16.05 -3.45 L12.8 -3.8 Q11.35 -4.15 9.35 -5.05 L9.35 -21.05 Q11.15 -22.45 13.25 -23.3 15.35 -24.2 17.4 -24.2 21.05 -24.2 22.7 -21.6 24.35 -19.05 24.35 -14.05 M29.2 -14.15 L29.2 -14.15 Q29.2 -21.1 26.35 -24.9 23.5 -28.7 18.55 -28.7 15.75 -28.7 13.55 -27.65 11.3 -26.6 9.35 -25.0 L9.35 -38.9 4.65 -38.9 4.65 0.0 9.05 0.0 9.35 -1.3 Q11.05 -0.35 12.85 0.25 L17.0 0.8 Q19.55 0.8 21.65 -0.2 23.8 -1.2 25.55 -3.15 27.25 -5.05 28.25 -7.85 29.2 -10.65 29.2 -14.15" fill-rule="evenodd" stroke="none"/>
    </g>
    <g id="font_Verdana_g0">
      <path d="M22.6 -7.65 L22.6 -7.65 Q20.85 -6.35 18.8 -5.55 16.75 -4.75 14.7 -4.75 10.85 -4.75 9.2 -7.2 7.55 -9.6 7.55 -14.3 7.55 -19.25 9.8 -21.85 12.0 -24.45 15.9 -24.45 L19.1 -24.1 Q20.7 -23.75 22.6 -22.9 L22.6 -7.65 M27.3 -3.15 L27.3 -27.9 22.9 -27.9 22.6 -26.7 19.15 -28.2 15.05 -28.7 Q12.75 -28.7 10.45 -27.7 8.1 -26.7 6.5 -24.95 4.75 -23.05 3.75 -20.4 2.7 -17.8 2.7 -14.2 2.7 -7.65 5.65 -4.0 8.6 -0.4 13.6 -0.4 16.6 -0.4 18.55 -1.25 L22.6 -3.8 22.6 -1.25 Q22.6 0.45 22.2 1.85 21.85 3.2 20.95 4.2 20.1 5.2 18.5 5.8 L14.55 6.35 9.55 5.7 Q7.05 5.05 5.9 4.6 L5.65 4.6 5.65 9.4 9.8 10.3 14.15 10.6 Q20.85 10.6 24.05 7.25 27.3 3.95 27.3 -3.15" fill-rule="evenodd" stroke="none"/>
    </g>
  </defs>
</svg>
