<?xml version="1.0" encoding="UTF-8" standalone="no"?>
<svg xmlns:xlink="http://www.w3.org/1999/xlink" height="10.65px" width="46.45px" xmlns="http://www.w3.org/2000/svg">
  <g transform="matrix(1.0, 0.0, 0.0, 1.0, -22.8, -3.45)">
    <g transform="matrix(1.0, 0.0, 0.0, 1.0, 0.0, 0.0)">
      <use fill="#000000" height="10.65" transform="matrix(0.2734, 0.0, 0.0, 0.2734, 23.0, 14.0)" width="46.45" xlink:href="#font_Verdana_A0"/>
      <use fill="#000000" height="10.65" transform="matrix(0.2734, 0.0, 0.0, 0.2734, 32.55, 14.0)" width="46.45" xlink:href="#font_Verdana_n0"/>
      <use fill="#000000" height="10.65" transform="matrix(0.2734, 0.0, 0.0, 0.2734, 41.4, 14.0)" width="46.45" xlink:href="#font_Verdana_v0"/>
      <use fill="#000000" height="10.65" transform="matrix(0.2734, 0.0, 0.0, 0.2734, 49.7, 14.0)" width="46.45" xlink:href="#font_Verdana_i0"/>
      <use fill="#000000" height="10.65" transform="matrix(0.2734, 0.0, 0.0, 0.2734, 53.55, 14.0)" width="46.45" xlink:href="#font_Verdana_l0"/>
    </g>
  </g>
  <defs>
    <g id="font_Verdana_A0">
      <path d="M23.9 -14.6 L10.85 -14.6 17.4 -32.9 23.9 -14.6 M34.35 0.0 L20.8 -37.2 14.2 -37.2 0.65 0.0 5.7 0.0 9.35 -10.35 25.45 -10.35 29.1 0.0 34.35 0.0" fill-rule="evenodd" stroke="none"/>
    </g>
    <g id="font_Verdana_n0">
      <path d="M28.0 0.0 L28.0 -18.1 Q28.0 -23.25 25.6 -25.95 23.25 -28.7 18.7 -28.7 16.25 -28.7 13.9 -27.65 11.55 -26.65 9.35 -24.8 L9.35 -27.9 4.65 -27.9 4.65 0.0 9.35 0.0 9.35 -20.85 13.35 -23.25 Q15.45 -24.2 17.4 -24.2 L20.45 -23.7 Q21.6 -23.2 22.25 -22.15 22.85 -21.2 23.05 -19.5 L23.3 -15.9 23.3 0.0 28.0 0.0" fill-rule="evenodd" stroke="none"/>
    </g>
    <g id="font_Verdana_v0">
      <path d="M28.8 -27.9 L23.85 -27.9 15.3 -5.7 6.65 -27.9 1.55 -27.9 12.75 0.0 17.5 0.0 28.8 -27.9" fill-rule="evenodd" stroke="none"/>
    </g>
    <g id="font_Verdana_i0">
      <path d="M9.4 0.0 L9.4 -27.9 4.7 -27.9 4.7 0.0 9.4 0.0 M9.7 -32.6 L9.7 -37.45 4.4 -37.45 4.4 -32.6 9.7 -32.6" fill-rule="evenodd" stroke="none"/>
    </g>
    <g id="font_Verdana_l0">
      <path d="M9.4 0.0 L9.4 -38.9 4.7 -38.9 4.7 0.0 9.4 0.0" fill-rule="evenodd" stroke="none"/>
    </g>
  </defs>
</svg>
