<?xml version="1.0" encoding="UTF-8" standalone="no"?>
<svg xmlns:xlink="http://www.w3.org/1999/xlink" height="10.7px" width="48.95px" xmlns="http://www.w3.org/2000/svg">
  <g transform="matrix(1.0, 0.0, 0.0, 1.0, -22.15, -3.6)">
    <g transform="matrix(1.0, 0.0, 0.0, 1.0, 0.0, 0.0)">
      <use fill="#000000" height="10.7" transform="matrix(0.2734, 0.0, 0.0, 0.2734, 21.0, 14.0)" width="48.95" xlink:href="#font_Verdana_P0"/>
      <use fill="#000000" height="10.7" transform="matrix(0.2734, 0.0, 0.0, 0.2734, 29.45, 14.0)" width="48.95" xlink:href="#font_Verdana_i0"/>
      <use fill="#000000" height="10.7" transform="matrix(0.2734, 0.0, 0.0, 0.2734, 33.3, 14.0)" width="48.95" xlink:href="#font_Verdana_a0"/>
      <use fill="#000000" height="10.7" transform="matrix(0.2734, 0.0, 0.0, 0.2734, 41.7, 14.0)" width="48.95" xlink:href="#font_Verdana_n0"/>
      <use fill="#000000" height="10.7" transform="matrix(0.2734, 0.0, 0.0, 0.2734, 50.55, 14.0)" width="48.95" xlink:href="#font_Verdana_o0"/>
    </g>
  </g>
  <defs>
    <g id="font_Verdana_P0">
      <path d="M24.2 -25.85 L24.2 -25.85 Q24.2 -24.2 23.75 -22.85 23.25 -21.55 22.05 -20.35 20.9 -19.15 19.0 -18.6 L14.15 -18.1 9.95 -18.1 9.95 -32.95 14.85 -32.95 18.75 -32.6 Q20.3 -32.3 21.5 -31.5 22.85 -30.6 23.55 -29.2 24.2 -27.75 24.2 -25.85 M29.35 -25.95 L29.35 -25.95 Q29.35 -29.2 28.2 -31.35 27.05 -33.45 24.9 -34.9 23.1 -36.1 20.8 -36.65 L15.1 -37.2 5.0 -37.2 5.0 0.0 9.95 0.0 9.95 -13.85 14.9 -13.85 Q18.9 -13.85 21.55 -14.8 24.15 -15.8 26.1 -17.7 27.65 -19.25 28.5 -21.35 29.35 -23.5 29.35 -25.95" fill-rule="evenodd" stroke="none"/>
    </g>
    <g id="font_Verdana_i0">
      <path d="M9.4 0.0 L9.4 -27.9 4.7 -27.9 4.7 0.0 9.4 0.0 M9.7 -32.6 L9.7 -37.45 4.4 -37.45 4.4 -32.6 9.7 -32.6" fill-rule="evenodd" stroke="none"/>
    </g>
    <g id="font_Verdana_a0">
      <path d="M21.65 -6.85 L21.65 -6.85 17.85 -4.55 Q15.8 -3.6 13.35 -3.6 10.35 -3.6 8.9 -4.8 7.45 -6.0 7.45 -8.4 7.45 -10.55 8.7 -11.75 9.95 -12.95 12.0 -13.55 L16.6 -14.25 21.65 -14.65 21.65 -6.85 M26.35 0.0 L26.35 -18.95 Q26.35 -21.65 25.5 -23.45 24.7 -25.3 23.1 -26.45 21.5 -27.6 19.35 -28.1 L14.2 -28.6 9.05 -28.15 5.1 -27.3 5.1 -22.55 5.35 -22.55 Q7.75 -23.45 10.05 -23.95 L14.15 -24.45 17.1 -24.25 Q18.5 -24.05 19.5 -23.45 20.55 -22.85 21.1 -21.8 21.65 -20.75 21.65 -19.15 L21.65 -18.45 14.0 -17.85 Q10.4 -17.45 7.85 -16.3 5.35 -15.2 4.0 -13.2 2.6 -11.25 2.6 -8.1 2.6 -4.2 5.25 -1.7 7.85 0.8 11.65 0.8 L15.2 0.4 Q16.75 0.0 17.9 -0.55 L20.0 -1.75 21.65 -2.95 21.65 0.0 26.35 0.0" fill-rule="evenodd" stroke="none"/>
    </g>
    <g id="font_Verdana_n0">
      <path d="M28.0 0.0 L28.0 -18.1 Q28.0 -23.25 25.6 -25.95 23.25 -28.7 18.7 -28.7 16.25 -28.7 13.9 -27.65 11.55 -26.65 9.35 -24.8 L9.35 -27.9 4.65 -27.9 4.65 0.0 9.35 0.0 9.35 -20.85 13.35 -23.25 Q15.45 -24.2 17.4 -24.2 L20.45 -23.7 Q21.6 -23.2 22.25 -22.15 22.85 -21.2 23.05 -19.5 L23.3 -15.9 23.3 0.0 28.0 0.0" fill-rule="evenodd" stroke="none"/>
    </g>
    <g id="font_Verdana_o0">
      <path d="M23.6 -13.95 L23.6 -13.95 Q23.6 -8.65 21.45 -5.95 19.3 -3.25 15.55 -3.25 11.75 -3.25 9.65 -5.95 7.5 -8.7 7.5 -13.95 7.5 -19.35 9.65 -22.0 11.75 -24.65 15.55 -24.65 19.35 -24.65 21.45 -22.0 23.6 -19.35 23.6 -13.95 M28.45 -13.95 L28.45 -13.95 Q28.45 -20.75 24.95 -24.7 21.45 -28.7 15.55 -28.7 9.65 -28.7 6.15 -24.7 2.65 -20.75 2.65 -13.95 2.65 -7.1 6.15 -3.15 9.65 0.8 15.55 0.8 21.45 0.8 24.95 -3.15 28.45 -7.1 28.45 -13.95" fill-rule="evenodd" stroke="none"/>
    </g>
  </defs>
</svg>
