<?xml version="1.0" encoding="UTF-8" standalone="no"?>
<svg xmlns:xlink="http://www.w3.org/1999/xlink" height="20.0px" width="128.9px" xmlns="http://www.w3.org/2000/svg">
  <g transform="matrix(1.0, 0.0, 0.0, 1.0, -2.05, -3.15)">
    <g transform="matrix(1.0, 0.0, 0.0, 1.0, 0.0, 0.0)">
      <use fill="#000000" height="20.0" transform="matrix(0.4297, 0.0, 0.0, 0.4297, 2.0, 22.0)" width="128.9" xlink:href="#font_Comics_S0"/>
      <use fill="#000000" height="20.0" transform="matrix(0.4297, 0.0, 0.0, 0.4297, 21.55, 22.0)" width="128.9" xlink:href="#font_Comics_Q0"/>
      <use fill="#000000" height="20.0" transform="matrix(0.4297, 0.0, 0.0, 0.4297, 42.8, 22.0)" width="128.9" xlink:href="#font_Comics_U0"/>
      <use fill="#000000" height="20.0" transform="matrix(0.4297, 0.0, 0.0, 0.4297, 60.1, 22.0)" width="128.9" xlink:href="#font_Comics_I0"/>
      <use fill="#000000" height="20.0" transform="matrix(0.4297, 0.0, 0.0, 0.4297, 78.85, 22.0)" width="128.9" xlink:href="#font_Comics_R0"/>
      <use fill="#000000" height="20.0" transform="matrix(0.4297, 0.0, 0.0, 0.4297, 98.0, 22.0)" width="128.9" xlink:href="#font_Comics_T0"/>
    </g>
  </g>
  <defs>
    <g id="font_Comics_S0">
      <path d="M-0.1 -5.35 L-0.1 -5.35 Q4.55 -0.75 9.6 0.85 14.6 2.4 22.15 2.4 31.15 2.4 37.95 -2.45 44.7 -7.3 44.7 -15.35 44.7 -24.45 39.75 -27.7 34.85 -31.0 28.15 -31.6 21.5 -32.2 21.5 -33.05 21.5 -34.8 22.6 -35.5 23.7 -36.2 25.7 -36.2 L30.15 -35.55 35.05 -34.0 35.05 -43.1 23.3 -42.25 Q16.55 -41.7 10.95 -39.35 5.35 -36.95 5.35 -31.9 L5.55 -29.3 Q5.8 -27.45 11.6 -25.3 L22.0 -22.05 Q27.45 -19.95 27.45 -16.45 27.45 -14.9 25.9 -14.1 24.4 -13.35 21.7 -13.35 17.9 -13.35 13.7 -14.95 9.5 -16.6 7.35 -19.2 L-0.1 -5.35" fill-rule="evenodd" stroke="none"/>
    </g>
    <g id="font_Comics_Q0">
      <path d="M32.9 -21.15 L27.35 -23.0 23.35 -16.25 26.75 -13.8 Q24.9 -10.7 21.8 -10.7 L19.35 -11.15 Q18.0 -11.6 17.1 -13.45 16.2 -15.25 16.2 -17.65 16.2 -20.45 17.65 -22.95 19.1 -25.45 21.85 -27.15 24.65 -28.9 27.2 -28.9 29.1 -28.9 30.4 -27.95 L32.45 -25.8 Q33.2 -24.6 33.2 -23.05 L32.9 -21.15 M19.05 2.8 L19.05 2.8 Q22.95 2.8 25.8 1.3 28.7 -0.25 30.6 -2.25 L35.65 -7.95 40.85 -4.6 48.55 -14.4 40.55 -18.1 41.65 -22.0 Q42.05 -24.0 42.05 -26.05 42.05 -31.45 39.1 -35.65 36.2 -39.85 31.9 -41.1 27.6 -42.35 25.3 -42.35 16.9 -42.35 9.7 -35.15 2.45 -28.0 2.45 -19.05 2.45 -9.35 6.85 -3.3 11.25 2.8 19.05 2.8" fill-rule="evenodd" stroke="none"/>
    </g>
    <g id="font_Comics_U0">
      <path d="M19.65 3.4 L19.65 3.4 Q27.35 3.4 31.15 -2.6 35.0 -8.6 36.1 -16.85 37.2 -25.15 37.2 -35.65 L37.2 -38.95 37.2 -42.05 27.4 -42.05 27.75 -37.95 27.9 -32.7 Q27.9 -25.55 26.5 -20.6 25.05 -15.65 21.5 -15.65 19.15 -15.65 18.05 -18.9 16.95 -22.15 16.95 -27.15 16.95 -34.45 18.7 -39.3 L4.3 -42.7 Q3.1 -38.6 2.5 -34.05 1.85 -29.5 1.85 -24.5 1.85 -12.6 6.05 -4.6 10.25 3.4 19.65 3.4" fill-rule="evenodd" stroke="none"/>
    </g>
    <g id="font_Comics_I0">
      <path d="M28.2 -13.2 L28.2 -13.2 Q28.7 -15.35 29.25 -21.75 29.8 -28.15 30.25 -31.2 L42.45 -31.45 42.45 -43.05 3.05 -39.3 3.9 -30.05 11.6 -30.9 11.95 -24.5 12.1 -17.6 12.05 -14.65 12.05 -12.7 3.0 -12.7 Q2.3 -9.65 2.15 -6.85 L1.9 -1.65 12.45 -0.5 25.9 0.8 35.8 1.35 37.4 1.25 Q37.85 1.15 37.85 1.05 L38.35 -12.7 31.95 -12.8 28.2 -13.2" fill-rule="evenodd" stroke="none"/>
    </g>
    <g id="font_Comics_R0">
      <path d="M15.3 -23.75 L12.65 -31.0 16.5 -33.05 Q18.9 -34.3 20.45 -34.3 21.3 -34.3 21.95 -33.9 22.55 -33.5 22.95 -32.6 23.35 -31.75 23.35 -30.95 23.35 -28.6 20.9 -26.7 18.4 -24.8 15.3 -23.75 M4.35 3.5 L15.65 -0.8 13.95 -12.45 19.6 -16.1 28.25 1.8 45.5 -10.4 29.2 -22.4 Q31.8 -25.05 33.1 -27.65 34.4 -30.2 34.4 -33.1 34.4 -35.5 33.5 -38.0 32.65 -40.55 28.9 -41.8 25.15 -43.05 19.6 -43.05 L9.65 -42.1 Q4.45 -41.2 0.7 -39.65 L4.35 3.5" fill-rule="evenodd" stroke="none"/>
    </g>
    <g id="font_Comics_T0">
      <path d="M13.2 3.4 L27.0 0.6 23.65 -26.75 37.15 -29.2 37.15 -40.25 1.85 -42.1 1.85 -23.05 13.2 -23.95 13.2 3.4" fill-rule="evenodd" stroke="none"/>
    </g>
  </defs>
</svg>
