<?xml version="1.0" encoding="UTF-8" standalone="no"?>
<svg xmlns:xlink="http://www.w3.org/1999/xlink" height="10.7px" width="40.75px" xmlns="http://www.w3.org/2000/svg">
  <g transform="matrix(1.0, 0.0, 0.0, 1.0, -25.55, -3.6)">
    <g transform="matrix(1.0, 0.0, 0.0, 1.0, 0.0, 0.0)">
      <use fill="#000000" height="10.7" transform="matrix(0.2734, 0.0, 0.0, 0.2734, 26.0, 14.0)" width="40.75" xlink:href="#font_Verdana_T0"/>
      <use fill="#000000" height="10.7" transform="matrix(0.2734, 0.0, 0.0, 0.2734, 34.65, 14.0)" width="40.75" xlink:href="#font_Verdana_a0"/>
      <use fill="#000000" height="10.7" transform="matrix(0.2734, 0.0, 0.0, 0.2734, 43.05, 14.0)" width="40.75" xlink:href="#font_Verdana_r0"/>
      <use fill="#000000" height="10.7" transform="matrix(0.2734, 0.0, 0.0, 0.2734, 49.0, 14.0)" width="40.75" xlink:href="#font_Verdana_t0"/>
    </g>
  </g>
  <defs>
    <g id="font_Verdana_T0">
      <path d="M31.55 -32.8 L31.55 -37.2 0.0 -37.2 0.0 -32.8 13.3 -32.8 13.3 0.0 18.25 0.0 18.25 -32.8 31.55 -32.8" fill-rule="evenodd" stroke="none"/>
    </g>
    <g id="font_Verdana_a0">
      <path d="M21.65 -6.85 L21.65 -6.85 17.85 -4.55 Q15.8 -3.6 13.35 -3.6 10.35 -3.6 8.9 -4.8 7.45 -6.0 7.45 -8.4 7.45 -10.55 8.7 -11.75 9.95 -12.95 12.0 -13.55 L16.6 -14.25 21.65 -14.65 21.65 -6.85 M26.35 0.0 L26.35 -18.95 Q26.35 -21.65 25.5 -23.45 24.7 -25.3 23.1 -26.45 21.5 -27.6 19.35 -28.1 L14.2 -28.6 9.05 -28.15 5.1 -27.3 5.1 -22.55 5.35 -22.55 Q7.75 -23.45 10.05 -23.95 L14.15 -24.45 17.1 -24.25 Q18.5 -24.05 19.5 -23.45 20.55 -22.85 21.1 -21.8 21.65 -20.75 21.65 -19.15 L21.65 -18.45 14.0 -17.85 Q10.4 -17.45 7.85 -16.3 5.35 -15.2 4.0 -13.2 2.6 -11.25 2.6 -8.1 2.6 -4.2 5.25 -1.7 7.85 0.8 11.65 0.8 L15.2 0.4 Q16.75 0.0 17.9 -0.55 L20.0 -1.75 21.65 -2.95 21.65 0.0 26.35 0.0" fill-rule="evenodd" stroke="none"/>
    </g>
    <g id="font_Verdana_r0">
      <path d="M22.05 -22.8 L22.05 -27.6 20.4 -27.85 18.65 -27.9 Q16.4 -27.9 14.3 -26.95 12.15 -26.05 9.35 -23.8 L9.35 -27.9 4.65 -27.9 4.65 0.0 9.35 0.0 9.35 -19.8 Q11.2 -21.35 13.25 -22.3 15.25 -23.25 17.45 -23.25 L19.8 -23.15 21.8 -22.8 22.05 -22.8" fill-rule="evenodd" stroke="none"/>
    </g>
    <g id="font_Verdana_t0">
      <path d="M19.15 -0.25 L19.15 -4.45 18.9 -4.45 17.1 -3.9 14.7 -3.55 Q12.7 -3.55 11.75 -4.0 10.8 -4.5 10.25 -5.5 9.65 -6.55 9.55 -7.8 L9.45 -11.25 9.45 -23.95 19.15 -23.95 19.15 -27.9 9.45 -27.9 9.45 -35.95 4.75 -35.95 4.75 -27.9 1.55 -27.9 1.55 -23.95 4.75 -23.95 4.75 -9.1 Q4.75 -4.05 6.95 -1.75 9.2 0.55 13.45 0.55 L16.25 0.35 19.15 -0.25" fill-rule="evenodd" stroke="none"/>
    </g>
  </defs>
</svg>
