<?xml version="1.0" encoding="UTF-8" standalone="no"?>
<svg xmlns:xlink="http://www.w3.org/1999/xlink" height="10.85px" width="120.9px" xmlns="http://www.w3.org/2000/svg">
  <g transform="matrix(1.0, 0.0, 0.0, 1.0, -7.55, -3.45)">
    <g transform="matrix(1.0, 0.0, 0.0, 1.0, 0.0, 0.0)">
      <use fill="#000000" height="10.85" transform="matrix(0.2734, 0.0, 0.0, 0.2734, 7.0, 14.0)" width="120.9" xlink:href="#font_Verdana_C0"/>
      <use fill="#000000" height="10.85" transform="matrix(0.2734, 0.0, 0.0, 0.2734, 16.8, 14.0)" width="120.9" xlink:href="#font_Verdana_r0"/>
      <use fill="#000000" height="10.85" transform="matrix(0.2734, 0.0, 0.0, 0.2734, 22.75, 14.0)" width="120.9" xlink:href="#font_Verdana_e0"/>
      <use fill="#000000" height="10.85" transform="matrix(0.2734, 0.0, 0.0, 0.2734, 31.1, 14.0)" width="120.9" xlink:href="#font_Verdana_a0"/>
      <use fill="#000000" height="10.85" transform="matrix(0.2734, 0.0, 0.0, 0.2734, 39.5, 14.0)" width="120.9" xlink:href="#font_Verdana_m0"/>
      <use fill="#000000" height="10.85" transform="matrix(0.2734, 0.0, 0.0, 0.2734, 58.0, 14.0)" width="120.9" xlink:href="#font_Verdana_P0"/>
      <use fill="#000000" height="10.85" transform="matrix(0.2734, 0.0, 0.0, 0.2734, 66.45, 14.0)" width="120.9" xlink:href="#font_Verdana_i0"/>
      <use fill="#000000" height="10.85" transform="matrix(0.2734, 0.0, 0.0, 0.2734, 70.3, 14.0)" width="120.9" xlink:href="#font_Verdana_e0"/>
      <use fill="#000000" height="10.85" transform="matrix(0.2734, 0.0, 0.0, 0.2734, 83.55, 14.0)" width="120.9" xlink:href="#font_Verdana_S0"/>
      <use fill="#000000" height="10.85" transform="matrix(0.2734, 0.0, 0.0, 0.2734, 93.1, 14.0)" width="120.9" xlink:href="#font_Verdana_l0"/>
      <use fill="#000000" height="10.85" transform="matrix(0.2734, 0.0, 0.0, 0.2734, 96.95, 14.0)" width="120.9" xlink:href="#font_Verdana_i0"/>
      <use fill="#000000" height="10.85" transform="matrix(0.2734, 0.0, 0.0, 0.2734, 100.8, 14.0)" width="120.9" xlink:href="#font_Verdana_c0"/>
      <use fill="#000000" height="10.85" transform="matrix(0.2734, 0.0, 0.0, 0.2734, 108.1, 14.0)" width="120.9" xlink:href="#font_Verdana_e0"/>
    </g>
  </g>
  <defs>
    <g id="font_Verdana_C0">
      <path d="M33.75 -2.7 L33.75 -8.5 33.4 -8.5 Q30.7 -6.05 27.55 -4.8 24.45 -3.6 20.85 -3.6 18.25 -3.6 15.95 -4.45 13.6 -5.35 11.85 -7.2 10.15 -9.0 9.1 -11.8 8.05 -14.65 8.05 -18.55 8.05 -22.3 9.0 -25.15 9.95 -28.05 11.7 -29.9 13.45 -31.85 15.75 -32.75 18.0 -33.65 20.8 -33.65 24.25 -33.65 27.3 -32.5 30.3 -31.3 33.4 -28.75 L33.75 -28.75 33.75 -34.6 Q30.1 -36.45 27.15 -37.15 L21.15 -37.9 Q17.05 -37.9 13.7 -36.6 10.3 -35.35 7.95 -32.9 5.5 -30.4 4.2 -26.8 2.9 -23.15 2.9 -18.55 2.9 -13.7 4.25 -10.05 5.6 -6.4 8.0 -4.0 10.45 -1.6 13.75 -0.45 17.05 0.7 21.1 0.7 L25.05 0.35 28.35 -0.45 Q30.15 -1.05 31.3 -1.55 L33.75 -2.7" fill-rule="evenodd" stroke="none"/>
    </g>
    <g id="font_Verdana_r0">
      <path d="M22.05 -22.8 L22.05 -27.6 20.4 -27.85 18.65 -27.9 Q16.4 -27.9 14.3 -26.95 12.15 -26.05 9.35 -23.8 L9.35 -27.9 4.65 -27.9 4.65 0.0 9.35 0.0 9.35 -19.8 Q11.2 -21.35 13.25 -22.3 15.25 -23.25 17.45 -23.25 L19.8 -23.15 21.8 -22.8 22.05 -22.8" fill-rule="evenodd" stroke="none"/>
    </g>
    <g id="font_Verdana_e0">
      <path d="M23.45 -17.05 L7.45 -17.05 Q7.75 -20.35 10.0 -22.6 12.2 -24.8 16.0 -24.8 19.75 -24.8 21.6 -22.8 23.4 -20.75 23.45 -17.05 M28.0 -13.45 L28.0 -16.0 Q28.0 -22.1 24.95 -25.4 21.9 -28.7 16.25 -28.7 10.15 -28.7 6.4 -24.65 2.65 -20.65 2.65 -13.8 2.65 -6.85 6.55 -3.1 10.45 0.65 17.4 0.65 L22.6 0.0 Q25.1 -0.7 27.45 -1.7 L27.45 -6.8 27.2 -6.8 Q26.0 -5.7 23.1 -4.55 20.2 -3.45 17.35 -3.45 L13.45 -4.05 Q11.65 -4.65 10.35 -5.85 9.0 -7.05 8.2 -8.95 7.45 -10.9 7.45 -13.45 L28.0 -13.45" fill-rule="evenodd" stroke="none"/>
    </g>
    <g id="font_Verdana_a0">
      <path d="M21.65 -6.85 L21.65 -6.85 17.85 -4.55 Q15.8 -3.6 13.35 -3.6 10.35 -3.6 8.9 -4.8 7.45 -6.0 7.45 -8.4 7.45 -10.55 8.7 -11.75 9.95 -12.95 12.0 -13.55 L16.6 -14.25 21.65 -14.65 21.65 -6.85 M26.35 0.0 L26.35 -18.95 Q26.35 -21.65 25.5 -23.45 24.7 -25.3 23.1 -26.45 21.5 -27.6 19.35 -28.1 L14.2 -28.6 9.05 -28.15 5.1 -27.3 5.1 -22.55 5.35 -22.55 Q7.75 -23.45 10.05 -23.95 L14.15 -24.45 17.1 -24.25 Q18.5 -24.05 19.5 -23.45 20.55 -22.85 21.1 -21.8 21.65 -20.75 21.65 -19.15 L21.65 -18.45 14.0 -17.85 Q10.4 -17.45 7.85 -16.3 5.35 -15.2 4.0 -13.2 2.6 -11.25 2.6 -8.1 2.6 -4.2 5.25 -1.7 7.85 0.8 11.65 0.8 L15.2 0.4 Q16.75 0.0 17.9 -0.55 L20.0 -1.75 21.65 -2.95 21.65 0.0 26.35 0.0" fill-rule="evenodd" stroke="none"/>
    </g>
    <g id="font_Verdana_m0">
      <path d="M45.4 0.0 L45.4 -18.1 Q45.4 -23.1 43.2 -25.9 41.0 -28.7 36.4 -28.7 33.75 -28.7 31.4 -27.6 29.05 -26.55 26.2 -24.15 25.2 -26.3 23.25 -27.5 21.25 -28.7 18.4 -28.7 15.9 -28.7 13.75 -27.65 11.55 -26.65 9.35 -24.8 L9.35 -27.9 4.65 -27.9 4.65 0.0 9.35 0.0 9.35 -20.85 Q11.25 -22.3 13.2 -23.25 15.15 -24.2 17.05 -24.2 19.1 -24.2 20.15 -23.65 21.25 -23.15 21.8 -22.05 22.35 -21.05 22.5 -19.4 L22.65 -15.9 22.65 0.0 27.35 0.0 27.35 -17.85 27.3 -19.35 27.2 -20.7 Q29.15 -22.25 31.15 -23.2 33.1 -24.2 35.1 -24.2 L38.2 -23.65 Q39.25 -23.1 39.85 -22.05 40.35 -21.05 40.55 -19.35 L40.7 -15.9 40.7 0.0 45.4 0.0" fill-rule="evenodd" stroke="none"/>
    </g>
    <g id="font_Verdana_P0">
      <path d="M24.2 -25.85 L24.2 -25.85 Q24.2 -24.2 23.75 -22.85 23.25 -21.55 22.05 -20.35 20.9 -19.15 19.0 -18.6 L14.15 -18.1 9.95 -18.1 9.95 -32.95 14.85 -32.95 18.75 -32.6 Q20.3 -32.3 21.5 -31.5 22.85 -30.6 23.55 -29.2 24.2 -27.75 24.2 -25.85 M29.35 -25.95 L29.35 -25.95 Q29.35 -29.2 28.2 -31.35 27.05 -33.45 24.9 -34.9 23.1 -36.1 20.8 -36.65 L15.1 -37.2 5.0 -37.2 5.0 0.0 9.95 0.0 9.95 -13.85 14.9 -13.85 Q18.9 -13.85 21.55 -14.8 24.15 -15.8 26.1 -17.7 27.65 -19.25 28.5 -21.35 29.35 -23.5 29.35 -25.95" fill-rule="evenodd" stroke="none"/>
    </g>
    <g id="font_Verdana_i0">
      <path d="M9.4 0.0 L9.4 -27.9 4.7 -27.9 4.7 0.0 9.4 0.0 M9.7 -32.6 L9.7 -37.45 4.4 -37.45 4.4 -32.6 9.7 -32.6" fill-rule="evenodd" stroke="none"/>
    </g>
    <g id="font_Verdana_S0">
      <path d="M32.05 -10.6 L32.05 -10.6 Q32.05 -14.6 29.95 -16.85 27.85 -19.05 23.7 -20.15 L18.7 -21.2 14.15 -22.05 Q11.15 -22.75 9.95 -24.05 8.75 -25.4 8.75 -27.7 8.75 -30.3 11.15 -31.95 13.55 -33.6 17.55 -33.6 21.15 -33.6 24.65 -32.4 28.1 -31.25 30.2 -29.45 L30.55 -29.45 30.55 -35.3 Q28.05 -36.4 24.75 -37.15 L17.55 -37.9 Q11.5 -37.9 7.55 -34.9 3.6 -31.9 3.6 -27.25 3.6 -23.15 6.0 -20.6 8.35 -18.1 13.3 -17.05 L17.95 -16.2 22.0 -15.4 Q24.5 -14.75 25.7 -13.55 26.9 -12.4 26.9 -9.9 26.9 -7.05 24.35 -5.3 21.8 -3.6 17.2 -3.6 13.95 -3.6 10.25 -4.85 6.55 -6.15 3.7 -8.5 L3.35 -8.5 3.35 -2.3 Q6.7 -0.8 9.9 -0.05 L17.15 0.7 Q20.9 0.7 23.55 -0.2 26.2 -1.1 28.2 -2.7 30.05 -4.2 31.05 -6.3 32.05 -8.45 32.05 -10.6" fill-rule="evenodd" stroke="none"/>
    </g>
    <g id="font_Verdana_l0">
      <path d="M9.4 0.0 L9.4 -38.9 4.7 -38.9 4.7 0.0 9.4 0.0" fill-rule="evenodd" stroke="none"/>
    </g>
    <g id="font_Verdana_c0">
      <path d="M25.3 -1.75 L25.3 -6.9 25.05 -6.9 23.6 -5.9 21.7 -4.8 19.05 -3.8 16.15 -3.45 Q12.05 -3.45 9.8 -6.15 7.5 -8.85 7.5 -13.9 7.5 -19.1 9.85 -21.8 12.15 -24.5 16.15 -24.5 18.3 -24.5 20.6 -23.6 22.9 -22.7 25.05 -21.0 L25.3 -21.0 25.3 -26.25 21.05 -27.9 16.35 -28.55 Q10.15 -28.55 6.4 -24.65 2.65 -20.75 2.65 -13.9 2.65 -10.25 3.65 -7.5 4.65 -4.75 6.45 -2.95 8.25 -1.15 10.8 -0.25 13.3 0.65 16.35 0.65 L20.85 0.0 Q22.95 -0.6 25.3 -1.75" fill-rule="evenodd" stroke="none"/>
    </g>
  </defs>
</svg>
