<?xml version="1.0" encoding="UTF-8" standalone="no"?>
<svg xmlns:xlink="http://www.w3.org/1999/xlink" height="13.45px" width="109.8px" xmlns="http://www.w3.org/2000/svg">
  <g transform="matrix(1.0, 0.0, 0.0, 1.0, -6.5, -3.45)">
    <g transform="matrix(1.0, 0.0, 0.0, 1.0, 0.0, 0.0)">
      <use fill="#000000" height="13.45" transform="matrix(0.2734, 0.0, 0.0, 0.2734, 5.0, 14.0)" width="109.8" xlink:href="#font_Verdana_B0"/>
      <use fill="#000000" height="13.45" transform="matrix(0.2734, 0.0, 0.0, 0.2734, 14.6, 14.0)" width="109.8" xlink:href="#font_Verdana_i0"/>
      <use fill="#000000" height="13.45" transform="matrix(0.2734, 0.0, 0.0, 0.2734, 18.45, 14.0)" width="109.8" xlink:href="#font_Verdana_r0"/>
      <use fill="#000000" height="13.45" transform="matrix(0.2734, 0.0, 0.0, 0.2734, 24.4, 14.0)" width="109.8" xlink:href="#font_Verdana_t0"/>
      <use fill="#000000" height="13.45" transform="matrix(0.2734, 0.0, 0.0, 0.2734, 29.9, 14.0)" width="109.8" xlink:href="#font_Verdana_h0"/>
      <use fill="#000000" height="13.45" transform="matrix(0.2734, 0.0, 0.0, 0.2734, 38.75, 14.0)" width="109.8" xlink:href="#font_Verdana_d0"/>
      <use fill="#000000" height="13.45" transform="matrix(0.2734, 0.0, 0.0, 0.2734, 47.45, 14.0)" width="109.8" xlink:href="#font_Verdana_a0"/>
      <use fill="#000000" height="13.45" transform="matrix(0.2734, 0.0, 0.0, 0.2734, 55.85, 14.0)" width="109.8" xlink:href="#font_Verdana_y0"/>
      <use fill="#000000" height="13.45" transform="matrix(0.2734, 0.0, 0.0, 0.2734, 69.05, 14.0)" width="109.8" xlink:href="#font_Verdana_C0"/>
      <use fill="#000000" height="13.45" transform="matrix(0.2734, 0.0, 0.0, 0.2734, 78.85, 14.0)" width="109.8" xlink:href="#font_Verdana_a0"/>
      <use fill="#000000" height="13.45" transform="matrix(0.2734, 0.0, 0.0, 0.2734, 87.25, 14.0)" width="109.8" xlink:href="#font_Verdana_k0"/>
      <use fill="#000000" height="13.45" transform="matrix(0.2734, 0.0, 0.0, 0.2734, 95.55, 14.0)" width="109.8" xlink:href="#font_Verdana_e0"/>
    </g>
  </g>
  <defs>
    <g id="font_Verdana_B0">
      <path d="M27.95 -11.25 L27.95 -11.25 Q27.95 -9.25 27.3 -8.0 26.65 -6.75 25.25 -5.8 23.9 -4.9 21.85 -4.55 L16.5 -4.2 9.95 -4.2 9.95 -18.05 17.75 -18.05 21.9 -17.85 Q23.6 -17.7 24.8 -17.05 26.6 -16.15 27.25 -14.8 27.95 -13.5 27.95 -11.25 M24.75 -28.2 L24.75 -28.2 Q24.75 -26.6 24.3 -25.4 23.8 -24.2 22.6 -23.45 21.45 -22.7 20.05 -22.45 L16.35 -22.25 9.95 -22.25 9.95 -33.0 15.85 -33.0 20.0 -32.8 Q21.7 -32.65 22.85 -32.0 23.85 -31.4 24.3 -30.5 24.75 -29.55 24.75 -28.2 M33.1 -11.45 L33.1 -11.45 Q33.1 -15.3 30.9 -17.85 28.75 -20.4 24.95 -21.15 L24.95 -21.35 Q27.2 -22.5 28.55 -24.35 29.9 -26.2 29.9 -28.85 29.9 -31.2 29.0 -32.9 28.05 -34.6 26.0 -35.65 24.15 -36.6 22.15 -36.9 L16.05 -37.2 5.0 -37.2 5.0 0.0 18.2 0.0 Q22.1 0.0 24.6 -0.7 27.1 -1.4 29.2 -3.05 31.0 -4.4 32.05 -6.55 33.1 -8.65 33.1 -11.45" fill-rule="evenodd" stroke="none"/>
    </g>
    <g id="font_Verdana_i0">
      <path d="M9.4 0.0 L9.4 -27.9 4.7 -27.9 4.7 0.0 9.4 0.0 M9.7 -32.6 L9.7 -37.45 4.4 -37.45 4.4 -32.6 9.7 -32.6" fill-rule="evenodd" stroke="none"/>
    </g>
    <g id="font_Verdana_r0">
      <path d="M22.05 -22.8 L22.05 -27.6 20.4 -27.85 18.65 -27.9 Q16.4 -27.9 14.3 -26.95 12.15 -26.05 9.35 -23.8 L9.35 -27.9 4.65 -27.9 4.65 0.0 9.35 0.0 9.35 -19.8 Q11.2 -21.35 13.25 -22.3 15.25 -23.25 17.45 -23.25 L19.8 -23.15 21.8 -22.8 22.05 -22.8" fill-rule="evenodd" stroke="none"/>
    </g>
    <g id="font_Verdana_t0">
      <path d="M19.15 -0.25 L19.15 -4.45 18.9 -4.45 17.1 -3.9 14.7 -3.55 Q12.7 -3.55 11.75 -4.0 10.8 -4.5 10.25 -5.5 9.65 -6.55 9.55 -7.8 L9.45 -11.25 9.45 -23.95 19.15 -23.95 19.15 -27.9 9.45 -27.9 9.45 -35.95 4.75 -35.95 4.75 -27.9 1.55 -27.9 1.55 -23.95 4.75 -23.95 4.75 -9.1 Q4.75 -4.05 6.95 -1.75 9.2 0.55 13.45 0.55 L16.25 0.35 19.15 -0.25" fill-rule="evenodd" stroke="none"/>
    </g>
    <g id="font_Verdana_h0">
      <path d="M28.0 0.0 L28.0 -18.1 Q28.0 -23.25 25.6 -25.95 23.25 -28.7 18.7 -28.7 16.25 -28.7 13.9 -27.65 11.55 -26.65 9.35 -24.8 L9.35 -38.9 4.65 -38.9 4.65 0.0 9.35 0.0 9.35 -20.85 13.35 -23.25 Q15.45 -24.2 17.4 -24.2 L20.45 -23.7 Q21.6 -23.2 22.25 -22.15 22.85 -21.2 23.05 -19.5 L23.3 -15.9 23.3 0.0 28.0 0.0" fill-rule="evenodd" stroke="none"/>
    </g>
    <g id="font_Verdana_d0">
      <path d="M22.6 -6.85 L22.6 -6.85 Q20.8 -5.45 18.75 -4.55 16.7 -3.7 14.7 -3.7 10.95 -3.7 9.25 -6.25 7.55 -8.85 7.55 -13.85 7.55 -18.9 9.75 -21.65 11.95 -24.4 15.9 -24.4 L19.2 -24.05 22.6 -22.9 22.6 -6.85 M27.3 0.0 L27.3 -38.9 22.6 -38.9 22.6 -26.8 Q20.7 -27.75 19.0 -28.2 L15.1 -28.7 Q12.7 -28.7 10.45 -27.7 8.15 -26.7 6.45 -24.8 4.75 -22.85 3.75 -20.05 2.7 -17.3 2.7 -13.75 2.7 -6.9 5.65 -3.05 8.6 0.8 13.6 0.8 16.15 0.8 18.35 -0.2 20.55 -1.15 22.6 -2.9 L22.6 0.0 27.3 0.0" fill-rule="evenodd" stroke="none"/>
    </g>
    <g id="font_Verdana_a0">
      <path d="M21.65 -6.85 L21.65 -6.85 17.85 -4.55 Q15.8 -3.6 13.35 -3.6 10.35 -3.6 8.9 -4.8 7.45 -6.0 7.45 -8.4 7.45 -10.55 8.7 -11.75 9.95 -12.95 12.0 -13.55 L16.6 -14.25 21.65 -14.65 21.65 -6.85 M26.35 0.0 L26.35 -18.95 Q26.35 -21.65 25.5 -23.45 24.7 -25.3 23.1 -26.45 21.5 -27.6 19.35 -28.1 L14.2 -28.6 9.05 -28.15 5.1 -27.3 5.1 -22.55 5.35 -22.55 Q7.75 -23.45 10.05 -23.95 L14.15 -24.45 17.1 -24.25 Q18.5 -24.05 19.5 -23.45 20.55 -22.85 21.1 -21.8 21.65 -20.75 21.65 -19.15 L21.65 -18.45 14.0 -17.85 Q10.4 -17.45 7.85 -16.3 5.35 -15.2 4.0 -13.2 2.6 -11.25 2.6 -8.1 2.6 -4.2 5.25 -1.7 7.85 0.8 11.65 0.8 L15.2 0.4 Q16.75 0.0 17.9 -0.55 L20.0 -1.75 21.65 -2.95 21.65 0.0 26.35 0.0" fill-rule="evenodd" stroke="none"/>
    </g>
    <g id="font_Verdana_y0">
      <path d="M28.8 -27.9 L23.85 -27.9 15.2 -7.2 6.65 -27.9 1.55 -27.9 12.65 -1.35 7.45 10.3 12.5 10.3 28.8 -27.9" fill-rule="evenodd" stroke="none"/>
    </g>
    <g id="font_Verdana_C0">
      <path d="M33.75 -2.7 L33.75 -8.5 33.4 -8.5 Q30.7 -6.05 27.55 -4.8 24.45 -3.6 20.85 -3.6 18.25 -3.6 15.95 -4.45 13.6 -5.35 11.85 -7.2 10.15 -9.0 9.1 -11.8 8.05 -14.65 8.05 -18.55 8.05 -22.3 9.0 -25.15 9.95 -28.05 11.7 -29.9 13.45 -31.85 15.75 -32.75 18.0 -33.65 20.8 -33.65 24.25 -33.65 27.3 -32.5 30.3 -31.3 33.4 -28.75 L33.75 -28.75 33.75 -34.6 Q30.1 -36.45 27.15 -37.15 L21.15 -37.9 Q17.05 -37.9 13.7 -36.6 10.3 -35.35 7.95 -32.9 5.5 -30.4 4.2 -26.8 2.9 -23.15 2.9 -18.55 2.9 -13.7 4.25 -10.05 5.6 -6.4 8.0 -4.0 10.45 -1.6 13.75 -0.45 17.05 0.7 21.1 0.7 L25.05 0.35 28.35 -0.45 Q30.15 -1.05 31.3 -1.55 L33.75 -2.7" fill-rule="evenodd" stroke="none"/>
    </g>
    <g id="font_Verdana_k0">
      <path d="M30.0 0.0 L16.05 -15.0 29.05 -27.9 23.1 -27.9 9.55 -13.95 9.55 -38.9 4.85 -38.9 4.85 0.0 9.55 0.0 9.55 -9.3 12.6 -12.2 23.8 0.0 30.0 0.0" fill-rule="evenodd" stroke="none"/>
    </g>
    <g id="font_Verdana_e0">
      <path d="M23.45 -17.05 L7.45 -17.05 Q7.75 -20.35 10.0 -22.6 12.2 -24.8 16.0 -24.8 19.75 -24.8 21.6 -22.8 23.4 -20.75 23.45 -17.05 M28.0 -13.45 L28.0 -16.0 Q28.0 -22.1 24.95 -25.4 21.9 -28.7 16.25 -28.7 10.15 -28.7 6.4 -24.65 2.65 -20.65 2.65 -13.8 2.65 -6.85 6.55 -3.1 10.45 0.65 17.4 0.65 L22.6 0.0 Q25.1 -0.7 27.45 -1.7 L27.45 -6.8 27.2 -6.8 Q26.0 -5.7 23.1 -4.55 20.2 -3.45 17.35 -3.45 L13.45 -4.05 Q11.65 -4.65 10.35 -5.85 9.0 -7.05 8.2 -8.95 7.45 -10.9 7.45 -13.45 L28.0 -13.45" fill-rule="evenodd" stroke="none"/>
    </g>
  </defs>
</svg>
