<?xml version="1.0" encoding="UTF-8" standalone="no"?>
<svg xmlns:xlink="http://www.w3.org/1999/xlink" height="240.1px" width="400.1px" xmlns="http://www.w3.org/2000/svg">
  <g transform="matrix(1.0, 0.0, 0.0, 1.0, -2.15, -2.95)">
    <g transform="matrix(1.0, 0.0, 0.0, 1.0, 0.0, 0.0)">
      <use fill="#000000" height="240.1" transform="matrix(0.2344, 0.0, 0.0, 0.2344, 2.0, 12.0)" width="400.1" xlink:href="#font_Verdana_T0"/>
      <use fill="#000000" height="240.1" transform="matrix(0.2344, 0.0, 0.0, 0.2344, 9.4, 12.0)" width="400.1" xlink:href="#font_Verdana_o0"/>
      <use fill="#000000" height="240.1" transform="matrix(0.2344, 0.0, 0.0, 0.2344, 16.7, 12.0)" width="400.1" xlink:href="#font_Verdana_o0"/>
      <use fill="#000000" height="240.1" transform="matrix(0.2344, 0.0, 0.0, 0.2344, 24.0, 12.0)" width="400.1" xlink:href="#font_Verdana_n0"/>
      <use fill="#000000" height="240.1" transform="matrix(0.2344, 0.0, 0.0, 0.2344, 31.6, 12.0)" width="400.1" xlink:href="#font_Verdana_t0"/>
      <use fill="#000000" height="240.1" transform="matrix(0.2344, 0.0, 0.0, 0.2344, 36.35, 12.0)" width="400.1" xlink:href="#font_Verdana_o0"/>
      <use fill="#000000" height="240.1" transform="matrix(0.2344, 0.0, 0.0, 0.2344, 43.65, 12.0)" width="400.1" xlink:href="#font_Verdana_w0"/>
      <use fill="#000000" height="240.1" transform="matrix(0.2344, 0.0, 0.0, 0.2344, 53.45, 12.0)" width="400.1" xlink:href="#font_Verdana_n0"/>
      <use fill="#000000" height="240.1" transform="matrix(0.2344, 0.0, 0.0, 0.2344, 65.25, 12.0)" width="400.1" xlink:href="#font_Verdana_i0"/>
      <use fill="#000000" height="240.1" transform="matrix(0.2344, 0.0, 0.0, 0.2344, 68.55, 12.0)" width="400.1" xlink:href="#font_Verdana_s0"/>
      <use fill="#000000" height="240.1" transform="matrix(0.2344, 0.0, 0.0, 0.2344, 74.8, 12.0)" width="400.1" xlink:href="#font_Verdana_n0"/>
      <use fill="#000000" height="240.1" transform="matrix(0.2344, 0.0, 0.0, 0.2344, 82.4, 12.0)" width="400.1" xlink:href="#font_Verdana__1"/>
      <use fill="#000000" height="240.1" transform="matrix(0.2344, 0.0, 0.0, 0.2344, 85.6, 12.0)" width="400.1" xlink:href="#font_Verdana_t0"/>
      <use fill="#000000" height="240.1" transform="matrix(0.2344, 0.0, 0.0, 0.2344, 94.55, 12.0)" width="400.1" xlink:href="#font_Verdana_l0"/>
      <use fill="#000000" height="240.1" transform="matrix(0.2344, 0.0, 0.0, 0.2344, 97.85, 12.0)" width="400.1" xlink:href="#font_Verdana_i0"/>
      <use fill="#000000" height="240.1" transform="matrix(0.2344, 0.0, 0.0, 0.2344, 101.15, 12.0)" width="400.1" xlink:href="#font_Verdana_k0"/>
      <use fill="#000000" height="240.1" transform="matrix(0.2344, 0.0, 0.0, 0.2344, 108.25, 12.0)" width="400.1" xlink:href="#font_Verdana_e0"/>
      <use fill="#000000" height="240.1" transform="matrix(0.2344, 0.0, 0.0, 0.2344, 119.6, 12.0)" width="400.1" xlink:href="#font_Verdana_a0"/>
      <use fill="#000000" height="240.1" transform="matrix(0.2344, 0.0, 0.0, 0.2344, 126.8, 12.0)" width="400.1" xlink:href="#font_Verdana_n0"/>
      <use fill="#000000" height="240.1" transform="matrix(0.2344, 0.0, 0.0, 0.2344, 134.4, 12.0)" width="400.1" xlink:href="#font_Verdana_y0"/>
      <use fill="#000000" height="240.1" transform="matrix(0.2344, 0.0, 0.0, 0.2344, 145.7, 12.0)" width="400.1" xlink:href="#font_Verdana_g0"/>
      <use fill="#000000" height="240.1" transform="matrix(0.2344, 0.0, 0.0, 0.2344, 153.2, 12.0)" width="400.1" xlink:href="#font_Verdana_a0"/>
      <use fill="#000000" height="240.1" transform="matrix(0.2344, 0.0, 0.0, 0.2344, 160.4, 12.0)" width="400.1" xlink:href="#font_Verdana_m0"/>
      <use fill="#000000" height="240.1" transform="matrix(0.2344, 0.0, 0.0, 0.2344, 172.05, 12.0)" width="400.1" xlink:href="#font_Verdana_e0"/>
      <use fill="#000000" height="240.1" transform="matrix(0.2344, 0.0, 0.0, 0.2344, 183.4, 12.0)" width="400.1" xlink:href="#font_Verdana_y0"/>
      <use fill="#000000" height="240.1" transform="matrix(0.2344, 0.0, 0.0, 0.2344, 190.5, 12.0)" width="400.1" xlink:href="#font_Verdana_o0"/>
      <use fill="#000000" height="240.1" transform="matrix(0.2344, 0.0, 0.0, 0.2344, 197.8, 12.0)" width="400.1" xlink:href="#font_Verdana_u0"/>
      <use fill="#000000" height="240.1" transform="matrix(0.2344, 0.0, 0.0, 0.2344, 205.4, 12.0)" width="400.1" xlink:href="#font_Verdana__1"/>
      <use fill="#000000" height="240.1" transform="matrix(0.2344, 0.0, 0.0, 0.2344, 208.6, 12.0)" width="400.1" xlink:href="#font_Verdana_v0"/>
      <use fill="#000000" height="240.1" transform="matrix(0.2344, 0.0, 0.0, 0.2344, 215.7, 12.0)" width="400.1" xlink:href="#font_Verdana_e0"/>
      <use fill="#000000" height="240.1" transform="matrix(0.2344, 0.0, 0.0, 0.2344, 227.05, 12.0)" width="400.1" xlink:href="#font_Verdana_e0"/>
      <use fill="#000000" height="240.1" transform="matrix(0.2344, 0.0, 0.0, 0.2344, 234.2, 12.0)" width="400.1" xlink:href="#font_Verdana_v0"/>
      <use fill="#000000" height="240.1" transform="matrix(0.2344, 0.0, 0.0, 0.2344, 241.3, 12.0)" width="400.1" xlink:href="#font_Verdana_e0"/>
      <use fill="#000000" height="240.1" transform="matrix(0.2344, 0.0, 0.0, 0.2344, 248.45, 12.0)" width="400.1" xlink:href="#font_Verdana_r0"/>
      <use fill="#000000" height="240.1" transform="matrix(0.2344, 0.0, 0.0, 0.2344, 257.75, 12.0)" width="400.1" xlink:href="#font_Verdana_p0"/>
      <use fill="#000000" height="240.1" transform="matrix(0.2344, 0.0, 0.0, 0.2344, 265.25, 12.0)" width="400.1" xlink:href="#font_Verdana_l0"/>
      <use fill="#000000" height="240.1" transform="matrix(0.2344, 0.0, 0.0, 0.2344, 268.55, 12.0)" width="400.1" xlink:href="#font_Verdana_a0"/>
      <use fill="#000000" height="240.1" transform="matrix(0.2344, 0.0, 0.0, 0.2344, 275.75, 12.0)" width="400.1" xlink:href="#font_Verdana_y0"/>
      <use fill="#000000" height="240.1" transform="matrix(0.2344, 0.0, 0.0, 0.2344, 282.85, 12.0)" width="400.1" xlink:href="#font_Verdana_e0"/>
      <use fill="#000000" height="240.1" transform="matrix(0.2344, 0.0, 0.0, 0.2344, 290.0, 12.0)" width="400.1" xlink:href="#font_Verdana_d0"/>
      <use fill="#000000" height="240.1" transform="matrix(0.2344, 0.0, 0.0, 0.2344, 297.5, 12.0)" width="400.1" xlink:href="#font_Verdana_.0"/>
      <use fill="#000000" height="240.1" transform="matrix(0.2344, 0.0, 0.0, 0.2344, 306.05, 12.0)" width="400.1" xlink:href="#font_Verdana_F0"/>
      <use fill="#000000" height="240.1" transform="matrix(0.2344, 0.0, 0.0, 0.2344, 312.95, 12.0)" width="400.1" xlink:href="#font_Verdana_o0"/>
      <use fill="#000000" height="240.1" transform="matrix(0.2344, 0.0, 0.0, 0.2344, 320.25, 12.0)" width="400.1" xlink:href="#font_Verdana_r0"/>
      <use fill="#000000" height="240.1" transform="matrix(0.2344, 0.0, 0.0, 0.2344, 329.55, 12.0)" width="400.1" xlink:href="#font_Verdana_s0"/>
      <use fill="#000000" height="240.1" transform="matrix(0.2344, 0.0, 0.0, 0.2344, 335.8, 12.0)" width="400.1" xlink:href="#font_Verdana_t0"/>
      <use fill="#000000" height="240.1" transform="matrix(0.2344, 0.0, 0.0, 0.2344, 340.55, 12.0)" width="400.1" xlink:href="#font_Verdana_a0"/>
      <use fill="#000000" height="240.1" transform="matrix(0.2344, 0.0, 0.0, 0.2344, 347.75, 12.0)" width="400.1" xlink:href="#font_Verdana_r0"/>
      <use fill="#000000" height="240.1" transform="matrix(0.2344, 0.0, 0.0, 0.2344, 352.85, 12.0)" width="400.1" xlink:href="#font_Verdana_t0"/>
      <use fill="#000000" height="240.1" transform="matrix(0.2344, 0.0, 0.0, 0.2344, 357.6, 12.0)" width="400.1" xlink:href="#font_Verdana_e0"/>
      <use fill="#000000" height="240.1" transform="matrix(0.2344, 0.0, 0.0, 0.2344, 364.75, 12.0)" width="400.1" xlink:href="#font_Verdana_r0"/>
      <use fill="#000000" height="240.1" transform="matrix(0.2344, 0.0, 0.0, 0.2344, 369.85, 12.0)" width="400.1" xlink:href="#font_Verdana_s0"/>
      <use fill="#000000" height="240.1" transform="matrix(0.2344, 0.0, 0.0, 0.2344, 376.1, 12.0)" width="400.1" xlink:href="#font_Verdana__2"/>
      <use fill="#000000" height="240.1" transform="matrix(0.2344, 0.0, 0.0, 0.2344, 384.65, 12.0)" width="400.1" xlink:href="#font_Verdana_i0"/>
      <use fill="#000000" height="240.1" transform="matrix(0.2344, 0.0, 0.0, 0.2344, 387.95, 12.0)" width="400.1" xlink:href="#font_Verdana_t0"/>
      <use fill="#000000" height="240.1" transform="matrix(0.2344, 0.0, 0.0, 0.2344, 392.7, 12.0)" width="400.1" xlink:href="#font_Verdana__1"/>
      <use fill="#000000" height="240.1" transform="matrix(0.2344, 0.0, 0.0, 0.2344, 395.9, 12.0)" width="400.1" xlink:href="#font_Verdana_s0"/>
    </g>
    <g transform="matrix(1.0, 0.0, 0.0, 1.0, 0.0, 0.0)">
      <use fill="#000000" height="240.1" transform="matrix(0.2344, 0.0, 0.0, 0.2344, 18.0, 29.0)" width="400.1" xlink:href="#font_Verdana_f0"/>
      <use fill="#000000" height="240.1" transform="matrix(0.2344, 0.0, 0.0, 0.2344, 22.2, 29.0)" width="400.1" xlink:href="#font_Verdana_i0"/>
      <use fill="#000000" height="240.1" transform="matrix(0.2344, 0.0, 0.0, 0.2344, 25.5, 29.0)" width="400.1" xlink:href="#font_Verdana_l0"/>
      <use fill="#000000" height="240.1" transform="matrix(0.2344, 0.0, 0.0, 0.2344, 28.8, 29.0)" width="400.1" xlink:href="#font_Verdana_l0"/>
      <use fill="#000000" height="240.1" transform="matrix(0.2344, 0.0, 0.0, 0.2344, 32.1, 29.0)" width="400.1" xlink:href="#font_Verdana_e0"/>
      <use fill="#000000" height="240.1" transform="matrix(0.2344, 0.0, 0.0, 0.2344, 39.25, 29.0)" width="400.1" xlink:href="#font_Verdana_d0"/>
      <use fill="#000000" height="240.1" transform="matrix(0.2344, 0.0, 0.0, 0.2344, 50.95, 29.0)" width="400.1" xlink:href="#font_Verdana_w0"/>
      <use fill="#000000" height="240.1" transform="matrix(0.2344, 0.0, 0.0, 0.2344, 60.75, 29.0)" width="400.1" xlink:href="#font_Verdana_i0"/>
      <use fill="#000000" height="240.1" transform="matrix(0.2344, 0.0, 0.0, 0.2344, 64.05, 29.0)" width="400.1" xlink:href="#font_Verdana_t0"/>
      <use fill="#000000" height="240.1" transform="matrix(0.2344, 0.0, 0.0, 0.2344, 68.8, 29.0)" width="400.1" xlink:href="#font_Verdana_h0"/>
      <use fill="#000000" height="240.1" transform="matrix(0.2344, 0.0, 0.0, 0.2344, 80.6, 29.0)" width="400.1" xlink:href="#font_Verdana_T0"/>
      <use fill="#000000" height="240.1" transform="matrix(0.2344, 0.0, 0.0, 0.2344, 88.0, 29.0)" width="400.1" xlink:href="#font_Verdana_o0"/>
      <use fill="#000000" height="240.1" transform="matrix(0.2344, 0.0, 0.0, 0.2344, 95.3, 29.0)" width="400.1" xlink:href="#font_Verdana_o0"/>
      <use fill="#000000" height="240.1" transform="matrix(0.2344, 0.0, 0.0, 0.2344, 102.6, 29.0)" width="400.1" xlink:href="#font_Verdana_n0"/>
      <use fill="#000000" height="240.1" transform="matrix(0.2344, 0.0, 0.0, 0.2344, 110.2, 29.0)" width="400.1" xlink:href="#font_Verdana_s0"/>
      <use fill="#000000" height="240.1" transform="matrix(0.2344, 0.0, 0.0, 0.2344, 120.65, 29.0)" width="400.1" xlink:href="#font_Verdana_f0"/>
      <use fill="#000000" height="240.1" transform="matrix(0.2344, 0.0, 0.0, 0.2344, 124.85, 29.0)" width="400.1" xlink:href="#font_Verdana_r0"/>
      <use fill="#000000" height="240.1" transform="matrix(0.2344, 0.0, 0.0, 0.2344, 129.95, 29.0)" width="400.1" xlink:href="#font_Verdana_o0"/>
      <use fill="#000000" height="240.1" transform="matrix(0.2344, 0.0, 0.0, 0.2344, 137.25, 29.0)" width="400.1" xlink:href="#font_Verdana_m0"/>
      <use fill="#000000" height="240.1" transform="matrix(0.2344, 0.0, 0.0, 0.2344, 153.1, 29.0)" width="400.1" xlink:href="#font_Verdana_t0"/>
      <use fill="#000000" height="240.1" transform="matrix(0.2344, 0.0, 0.0, 0.2344, 157.85, 29.0)" width="400.1" xlink:href="#font_Verdana_h0"/>
      <use fill="#000000" height="240.1" transform="matrix(0.2344, 0.0, 0.0, 0.2344, 165.45, 29.0)" width="400.1" xlink:href="#font_Verdana_e0"/>
      <use fill="#000000" height="240.1" transform="matrix(0.2344, 0.0, 0.0, 0.2344, 176.8, 29.0)" width="400.1" xlink:href="#font_Verdana_U0"/>
      <use fill="#000000" height="240.1" transform="matrix(0.2344, 0.0, 0.0, 0.2344, 185.6, 29.0)" width="400.1" xlink:href="#font_Verdana_K0"/>
      <use fill="#000000" height="240.1" transform="matrix(0.2344, 0.0, 0.0, 0.2344, 198.1, 29.0)" width="400.1" xlink:href="#font_Verdana_a0"/>
      <use fill="#000000" height="240.1" transform="matrix(0.2344, 0.0, 0.0, 0.2344, 205.3, 29.0)" width="400.1" xlink:href="#font_Verdana_n0"/>
      <use fill="#000000" height="240.1" transform="matrix(0.2344, 0.0, 0.0, 0.2344, 212.9, 29.0)" width="400.1" xlink:href="#font_Verdana_d0"/>
      <use fill="#000000" height="240.1" transform="matrix(0.2344, 0.0, 0.0, 0.2344, 224.6, 29.0)" width="400.1" xlink:href="#font_Verdana_a0"/>
      <use fill="#000000" height="240.1" transform="matrix(0.2344, 0.0, 0.0, 0.2344, 231.8, 29.0)" width="400.1" xlink:href="#font_Verdana_l0"/>
      <use fill="#000000" height="240.1" transform="matrix(0.2344, 0.0, 0.0, 0.2344, 235.1, 29.0)" width="400.1" xlink:href="#font_Verdana_l0"/>
      <use fill="#000000" height="240.1" transform="matrix(0.2344, 0.0, 0.0, 0.2344, 242.6, 29.0)" width="400.1" xlink:href="#font_Verdana_o0"/>
      <use fill="#000000" height="240.1" transform="matrix(0.2344, 0.0, 0.0, 0.2344, 249.9, 29.0)" width="400.1" xlink:href="#font_Verdana_v0"/>
      <use fill="#000000" height="240.1" transform="matrix(0.2344, 0.0, 0.0, 0.2344, 257.0, 29.0)" width="400.1" xlink:href="#font_Verdana_e0"/>
      <use fill="#000000" height="240.1" transform="matrix(0.2344, 0.0, 0.0, 0.2344, 264.15, 29.0)" width="400.1" xlink:href="#font_Verdana_r0"/>
      <use fill="#000000" height="240.1" transform="matrix(0.2344, 0.0, 0.0, 0.2344, 273.45, 29.0)" width="400.1" xlink:href="#font_Verdana_t0"/>
      <use fill="#000000" height="240.1" transform="matrix(0.2344, 0.0, 0.0, 0.2344, 278.2, 29.0)" width="400.1" xlink:href="#font_Verdana_h0"/>
      <use fill="#000000" height="240.1" transform="matrix(0.2344, 0.0, 0.0, 0.2344, 285.8, 29.0)" width="400.1" xlink:href="#font_Verdana_e0"/>
      <use fill="#000000" height="240.1" transform="matrix(0.2344, 0.0, 0.0, 0.2344, 297.15, 29.0)" width="400.1" xlink:href="#font_Verdana_w0"/>
      <use fill="#000000" height="240.1" transform="matrix(0.2344, 0.0, 0.0, 0.2344, 306.95, 29.0)" width="400.1" xlink:href="#font_Verdana_o0"/>
      <use fill="#000000" height="240.1" transform="matrix(0.2344, 0.0, 0.0, 0.2344, 314.25, 29.0)" width="400.1" xlink:href="#font_Verdana_r0"/>
      <use fill="#000000" height="240.1" transform="matrix(0.2344, 0.0, 0.0, 0.2344, 319.35, 29.0)" width="400.1" xlink:href="#font_Verdana_l0"/>
      <use fill="#000000" height="240.1" transform="matrix(0.2344, 0.0, 0.0, 0.2344, 322.65, 29.0)" width="400.1" xlink:href="#font_Verdana_d0"/>
      <use fill="#000000" height="240.1" transform="matrix(0.2344, 0.0, 0.0, 0.2344, 330.15, 29.0)" width="400.1" xlink:href="#font_Verdana_.0"/>
      <use fill="#000000" height="240.1" transform="matrix(0.2344, 0.0, 0.0, 0.2344, 338.7, 29.0)" width="400.1" xlink:href="#font_Verdana_Y0"/>
      <use fill="#000000" height="240.1" transform="matrix(0.2344, 0.0, 0.0, 0.2344, 346.1, 29.0)" width="400.1" xlink:href="#font_Verdana_o0"/>
      <use fill="#000000" height="240.1" transform="matrix(0.2344, 0.0, 0.0, 0.2344, 353.4, 29.0)" width="400.1" xlink:href="#font_Verdana_u0"/>
      <use fill="#000000" height="240.1" transform="matrix(0.2344, 0.0, 0.0, 0.2344, 365.2, 29.0)" width="400.1" xlink:href="#font_Verdana_c0"/>
      <use fill="#000000" height="240.1" transform="matrix(0.2344, 0.0, 0.0, 0.2344, 371.45, 29.0)" width="400.1" xlink:href="#font_Verdana_a0"/>
      <use fill="#000000" height="240.1" transform="matrix(0.2344, 0.0, 0.0, 0.2344, 378.65, 29.0)" width="400.1" xlink:href="#font_Verdana_n0"/>
    </g>
    <g transform="matrix(1.0, 0.0, 0.0, 1.0, 0.0, 0.0)">
      <use fill="#000000" height="240.1" transform="matrix(0.2344, 0.0, 0.0, 0.2344, 14.0, 45.0)" width="400.1" xlink:href="#font_Verdana_c0"/>
      <use fill="#000000" height="240.1" transform="matrix(0.2344, 0.0, 0.0, 0.2344, 20.25, 45.0)" width="400.1" xlink:href="#font_Verdana_r0"/>
      <use fill="#000000" height="240.1" transform="matrix(0.2344, 0.0, 0.0, 0.2344, 25.35, 45.0)" width="400.1" xlink:href="#font_Verdana_e0"/>
      <use fill="#000000" height="240.1" transform="matrix(0.2344, 0.0, 0.0, 0.2344, 32.5, 45.0)" width="400.1" xlink:href="#font_Verdana_a0"/>
      <use fill="#000000" height="240.1" transform="matrix(0.2344, 0.0, 0.0, 0.2344, 39.7, 45.0)" width="400.1" xlink:href="#font_Verdana_t0"/>
      <use fill="#000000" height="240.1" transform="matrix(0.2344, 0.0, 0.0, 0.2344, 44.45, 45.0)" width="400.1" xlink:href="#font_Verdana_e0"/>
      <use fill="#000000" height="240.1" transform="matrix(0.2344, 0.0, 0.0, 0.2344, 55.8, 45.0)" width="400.1" xlink:href="#font_Verdana_y0"/>
      <use fill="#000000" height="240.1" transform="matrix(0.2344, 0.0, 0.0, 0.2344, 62.9, 45.0)" width="400.1" xlink:href="#font_Verdana_o0"/>
      <use fill="#000000" height="240.1" transform="matrix(0.2344, 0.0, 0.0, 0.2344, 70.2, 45.0)" width="400.1" xlink:href="#font_Verdana_u0"/>
      <use fill="#000000" height="240.1" transform="matrix(0.2344, 0.0, 0.0, 0.2344, 77.8, 45.0)" width="400.1" xlink:href="#font_Verdana_r0"/>
      <use fill="#000000" height="240.1" transform="matrix(0.2344, 0.0, 0.0, 0.2344, 87.1, 45.0)" width="400.1" xlink:href="#font_Verdana_o0"/>
      <use fill="#000000" height="240.1" transform="matrix(0.2344, 0.0, 0.0, 0.2344, 94.4, 45.0)" width="400.1" xlink:href="#font_Verdana_w0"/>
      <use fill="#000000" height="240.1" transform="matrix(0.2344, 0.0, 0.0, 0.2344, 104.2, 45.0)" width="400.1" xlink:href="#font_Verdana_n0"/>
      <use fill="#000000" height="240.1" transform="matrix(0.2344, 0.0, 0.0, 0.2344, 116.0, 45.0)" width="400.1" xlink:href="#font_Verdana_c0"/>
      <use fill="#000000" height="240.1" transform="matrix(0.2344, 0.0, 0.0, 0.2344, 122.25, 45.0)" width="400.1" xlink:href="#font_Verdana_h0"/>
      <use fill="#000000" height="240.1" transform="matrix(0.2344, 0.0, 0.0, 0.2344, 129.85, 45.0)" width="400.1" xlink:href="#font_Verdana_a0"/>
      <use fill="#000000" height="240.1" transform="matrix(0.2344, 0.0, 0.0, 0.2344, 137.05, 45.0)" width="400.1" xlink:href="#font_Verdana_r0"/>
      <use fill="#000000" height="240.1" transform="matrix(0.2344, 0.0, 0.0, 0.2344, 142.15, 45.0)" width="400.1" xlink:href="#font_Verdana_a0"/>
      <use fill="#000000" height="240.1" transform="matrix(0.2344, 0.0, 0.0, 0.2344, 149.35, 45.0)" width="400.1" xlink:href="#font_Verdana_c0"/>
      <use fill="#000000" height="240.1" transform="matrix(0.2344, 0.0, 0.0, 0.2344, 155.6, 45.0)" width="400.1" xlink:href="#font_Verdana_t0"/>
      <use fill="#000000" height="240.1" transform="matrix(0.2344, 0.0, 0.0, 0.2344, 160.35, 45.0)" width="400.1" xlink:href="#font_Verdana_e0"/>
      <use fill="#000000" height="240.1" transform="matrix(0.2344, 0.0, 0.0, 0.2344, 167.5, 45.0)" width="400.1" xlink:href="#font_Verdana_r0"/>
      <use fill="#000000" height="240.1" transform="matrix(0.2344, 0.0, 0.0, 0.2344, 172.6, 45.0)" width="400.1" xlink:href="#font_Verdana__2"/>
      <use fill="#000000" height="240.1" transform="matrix(0.2344, 0.0, 0.0, 0.2344, 181.15, 45.0)" width="400.1" xlink:href="#font_Verdana_c0"/>
      <use fill="#000000" height="240.1" transform="matrix(0.2344, 0.0, 0.0, 0.2344, 187.4, 45.0)" width="400.1" xlink:href="#font_Verdana_o0"/>
      <use fill="#000000" height="240.1" transform="matrix(0.2344, 0.0, 0.0, 0.2344, 194.7, 45.0)" width="400.1" xlink:href="#font_Verdana_m0"/>
      <use fill="#000000" height="240.1" transform="matrix(0.2344, 0.0, 0.0, 0.2344, 206.35, 45.0)" width="400.1" xlink:href="#font_Verdana_p0"/>
      <use fill="#000000" height="240.1" transform="matrix(0.2344, 0.0, 0.0, 0.2344, 213.85, 45.0)" width="400.1" xlink:href="#font_Verdana_e0"/>
      <use fill="#000000" height="240.1" transform="matrix(0.2344, 0.0, 0.0, 0.2344, 221.0, 45.0)" width="400.1" xlink:href="#font_Verdana_t0"/>
      <use fill="#000000" height="240.1" transform="matrix(0.2344, 0.0, 0.0, 0.2344, 225.75, 45.0)" width="400.1" xlink:href="#font_Verdana_e0"/>
      <use fill="#000000" height="240.1" transform="matrix(0.2344, 0.0, 0.0, 0.2344, 237.1, 45.0)" width="400.1" xlink:href="#font_Verdana_i0"/>
      <use fill="#000000" height="240.1" transform="matrix(0.2344, 0.0, 0.0, 0.2344, 240.4, 45.0)" width="400.1" xlink:href="#font_Verdana_n0"/>
      <use fill="#000000" height="240.1" transform="matrix(0.2344, 0.0, 0.0, 0.2344, 252.2, 45.0)" width="400.1" xlink:href="#font_Verdana_c0"/>
      <use fill="#000000" height="240.1" transform="matrix(0.2344, 0.0, 0.0, 0.2344, 258.45, 45.0)" width="400.1" xlink:href="#font_Verdana_r0"/>
      <use fill="#000000" height="240.1" transform="matrix(0.2344, 0.0, 0.0, 0.2344, 263.55, 45.0)" width="400.1" xlink:href="#font_Verdana_a0"/>
      <use fill="#000000" height="240.1" transform="matrix(0.2344, 0.0, 0.0, 0.2344, 270.75, 45.0)" width="400.1" xlink:href="#font_Verdana_z0"/>
      <use fill="#000000" height="240.1" transform="matrix(0.2344, 0.0, 0.0, 0.2344, 277.05, 45.0)" width="400.1" xlink:href="#font_Verdana_y0"/>
      <use fill="#000000" height="240.1" transform="matrix(0.2344, 0.0, 0.0, 0.2344, 288.35, 45.0)" width="400.1" xlink:href="#font_Verdana_g0"/>
      <use fill="#000000" height="240.1" transform="matrix(0.2344, 0.0, 0.0, 0.2344, 295.85, 45.0)" width="400.1" xlink:href="#font_Verdana_a0"/>
      <use fill="#000000" height="240.1" transform="matrix(0.2344, 0.0, 0.0, 0.2344, 303.05, 45.0)" width="400.1" xlink:href="#font_Verdana_m0"/>
      <use fill="#000000" height="240.1" transform="matrix(0.2344, 0.0, 0.0, 0.2344, 314.7, 45.0)" width="400.1" xlink:href="#font_Verdana_e0"/>
      <use fill="#000000" height="240.1" transform="matrix(0.2344, 0.0, 0.0, 0.2344, 321.85, 45.0)" width="400.1" xlink:href="#font_Verdana_s0"/>
      <use fill="#000000" height="240.1" transform="matrix(0.2344, 0.0, 0.0, 0.2344, 328.1, 45.0)" width="400.1" xlink:href="#font_Verdana__2"/>
      <use fill="#000000" height="240.1" transform="matrix(0.2344, 0.0, 0.0, 0.2344, 336.65, 45.0)" width="400.1" xlink:href="#font_Verdana_p0"/>
      <use fill="#000000" height="240.1" transform="matrix(0.2344, 0.0, 0.0, 0.2344, 344.15, 45.0)" width="400.1" xlink:href="#font_Verdana_l0"/>
      <use fill="#000000" height="240.1" transform="matrix(0.2344, 0.0, 0.0, 0.2344, 347.45, 45.0)" width="400.1" xlink:href="#font_Verdana_a0"/>
      <use fill="#000000" height="240.1" transform="matrix(0.2344, 0.0, 0.0, 0.2344, 354.65, 45.0)" width="400.1" xlink:href="#font_Verdana_y0"/>
      <use fill="#000000" height="240.1" transform="matrix(0.2344, 0.0, 0.0, 0.2344, 365.95, 45.0)" width="400.1" xlink:href="#font_Verdana_w0"/>
      <use fill="#000000" height="240.1" transform="matrix(0.2344, 0.0, 0.0, 0.2344, 375.75, 45.0)" width="400.1" xlink:href="#font_Verdana_i0"/>
      <use fill="#000000" height="240.1" transform="matrix(0.2344, 0.0, 0.0, 0.2344, 379.05, 45.0)" width="400.1" xlink:href="#font_Verdana_t0"/>
      <use fill="#000000" height="240.1" transform="matrix(0.2344, 0.0, 0.0, 0.2344, 383.8, 45.0)" width="400.1" xlink:href="#font_Verdana_h0"/>
    </g>
    <g transform="matrix(1.0, 0.0, 0.0, 1.0, 0.0, 0.0)">
      <use fill="#000000" height="240.1" transform="matrix(0.2344, 0.0, 0.0, 0.2344, 13.0, 62.0)" width="400.1" xlink:href="#font_Verdana_y0"/>
      <use fill="#000000" height="240.1" transform="matrix(0.2344, 0.0, 0.0, 0.2344, 20.1, 62.0)" width="400.1" xlink:href="#font_Verdana_o0"/>
      <use fill="#000000" height="240.1" transform="matrix(0.2344, 0.0, 0.0, 0.2344, 27.4, 62.0)" width="400.1" xlink:href="#font_Verdana_u0"/>
      <use fill="#000000" height="240.1" transform="matrix(0.2344, 0.0, 0.0, 0.2344, 35.0, 62.0)" width="400.1" xlink:href="#font_Verdana_r0"/>
      <use fill="#000000" height="240.1" transform="matrix(0.2344, 0.0, 0.0, 0.2344, 44.3, 62.0)" width="400.1" xlink:href="#font_Verdana_f0"/>
      <use fill="#000000" height="240.1" transform="matrix(0.2344, 0.0, 0.0, 0.2344, 48.5, 62.0)" width="400.1" xlink:href="#font_Verdana_r0"/>
      <use fill="#000000" height="240.1" transform="matrix(0.2344, 0.0, 0.0, 0.2344, 53.6, 62.0)" width="400.1" xlink:href="#font_Verdana_i0"/>
      <use fill="#000000" height="240.1" transform="matrix(0.2344, 0.0, 0.0, 0.2344, 56.9, 62.0)" width="400.1" xlink:href="#font_Verdana_e0"/>
      <use fill="#000000" height="240.1" transform="matrix(0.2344, 0.0, 0.0, 0.2344, 64.05, 62.0)" width="400.1" xlink:href="#font_Verdana_n0"/>
      <use fill="#000000" height="240.1" transform="matrix(0.2344, 0.0, 0.0, 0.2344, 71.65, 62.0)" width="400.1" xlink:href="#font_Verdana_d0"/>
      <use fill="#000000" height="240.1" transform="matrix(0.2344, 0.0, 0.0, 0.2344, 79.15, 62.0)" width="400.1" xlink:href="#font_Verdana_s0"/>
      <use fill="#000000" height="240.1" transform="matrix(0.2344, 0.0, 0.0, 0.2344, 89.6, 62.0)" width="400.1" xlink:href="#font_Verdana_a0"/>
      <use fill="#000000" height="240.1" transform="matrix(0.2344, 0.0, 0.0, 0.2344, 96.8, 62.0)" width="400.1" xlink:href="#font_Verdana_n0"/>
      <use fill="#000000" height="240.1" transform="matrix(0.2344, 0.0, 0.0, 0.2344, 104.4, 62.0)" width="400.1" xlink:href="#font_Verdana_d0"/>
      <use fill="#000000" height="240.1" transform="matrix(0.2344, 0.0, 0.0, 0.2344, 116.1, 62.0)" width="400.1" xlink:href="#font_Verdana_e0"/>
      <use fill="#000000" height="240.1" transform="matrix(0.2344, 0.0, 0.0, 0.2344, 123.25, 62.0)" width="400.1" xlink:href="#font_Verdana_x0"/>
      <use fill="#000000" height="240.1" transform="matrix(0.2344, 0.0, 0.0, 0.2344, 130.35, 62.0)" width="400.1" xlink:href="#font_Verdana_p0"/>
      <use fill="#000000" height="240.1" transform="matrix(0.2344, 0.0, 0.0, 0.2344, 137.85, 62.0)" width="400.1" xlink:href="#font_Verdana_l0"/>
      <use fill="#000000" height="240.1" transform="matrix(0.2344, 0.0, 0.0, 0.2344, 141.15, 62.0)" width="400.1" xlink:href="#font_Verdana_o0"/>
      <use fill="#000000" height="240.1" transform="matrix(0.2344, 0.0, 0.0, 0.2344, 148.45, 62.0)" width="400.1" xlink:href="#font_Verdana_r0"/>
      <use fill="#000000" height="240.1" transform="matrix(0.2344, 0.0, 0.0, 0.2344, 153.55, 62.0)" width="400.1" xlink:href="#font_Verdana_e0"/>
      <use fill="#000000" height="240.1" transform="matrix(0.2344, 0.0, 0.0, 0.2344, 164.9, 62.0)" width="400.1" xlink:href="#font_Verdana_t0"/>
      <use fill="#000000" height="240.1" transform="matrix(0.2344, 0.0, 0.0, 0.2344, 169.65, 62.0)" width="400.1" xlink:href="#font_Verdana_h0"/>
      <use fill="#000000" height="240.1" transform="matrix(0.2344, 0.0, 0.0, 0.2344, 177.25, 62.0)" width="400.1" xlink:href="#font_Verdana_e0"/>
      <use fill="#000000" height="240.1" transform="matrix(0.2344, 0.0, 0.0, 0.2344, 188.6, 62.0)" width="400.1" xlink:href="#font_Verdana_s0"/>
      <use fill="#000000" height="240.1" transform="matrix(0.2344, 0.0, 0.0, 0.2344, 194.85, 62.0)" width="400.1" xlink:href="#font_Verdana_t0"/>
      <use fill="#000000" height="240.1" transform="matrix(0.2344, 0.0, 0.0, 0.2344, 199.6, 62.0)" width="400.1" xlink:href="#font_Verdana_r0"/>
      <use fill="#000000" height="240.1" transform="matrix(0.2344, 0.0, 0.0, 0.2344, 204.7, 62.0)" width="400.1" xlink:href="#font_Verdana_e0"/>
      <use fill="#000000" height="240.1" transform="matrix(0.2344, 0.0, 0.0, 0.2344, 211.85, 62.0)" width="400.1" xlink:href="#font_Verdana_e0"/>
      <use fill="#000000" height="240.1" transform="matrix(0.2344, 0.0, 0.0, 0.2344, 219.0, 62.0)" width="400.1" xlink:href="#font_Verdana_t0"/>
      <use fill="#000000" height="240.1" transform="matrix(0.2344, 0.0, 0.0, 0.2344, 223.75, 62.0)" width="400.1" xlink:href="#font_Verdana_s0"/>
      <use fill="#000000" height="240.1" transform="matrix(0.2344, 0.0, 0.0, 0.2344, 234.2, 62.0)" width="400.1" xlink:href="#font_Verdana_a0"/>
      <use fill="#000000" height="240.1" transform="matrix(0.2344, 0.0, 0.0, 0.2344, 241.4, 62.0)" width="400.1" xlink:href="#font_Verdana_n0"/>
      <use fill="#000000" height="240.1" transform="matrix(0.2344, 0.0, 0.0, 0.2344, 249.0, 62.0)" width="400.1" xlink:href="#font_Verdana_d0"/>
      <use fill="#000000" height="240.1" transform="matrix(0.2344, 0.0, 0.0, 0.2344, 260.7, 62.0)" width="400.1" xlink:href="#font_Verdana_n0"/>
      <use fill="#000000" height="240.1" transform="matrix(0.2344, 0.0, 0.0, 0.2344, 268.3, 62.0)" width="400.1" xlink:href="#font_Verdana_e0"/>
      <use fill="#000000" height="240.1" transform="matrix(0.2344, 0.0, 0.0, 0.2344, 275.45, 62.0)" width="400.1" xlink:href="#font_Verdana_i0"/>
      <use fill="#000000" height="240.1" transform="matrix(0.2344, 0.0, 0.0, 0.2344, 278.75, 62.0)" width="400.1" xlink:href="#font_Verdana_g0"/>
      <use fill="#000000" height="240.1" transform="matrix(0.2344, 0.0, 0.0, 0.2344, 286.25, 62.0)" width="400.1" xlink:href="#font_Verdana_h0"/>
      <use fill="#000000" height="240.1" transform="matrix(0.2344, 0.0, 0.0, 0.2344, 293.85, 62.0)" width="400.1" xlink:href="#font_Verdana_b0"/>
      <use fill="#000000" height="240.1" transform="matrix(0.2344, 0.0, 0.0, 0.2344, 301.35, 62.0)" width="400.1" xlink:href="#font_Verdana_o0"/>
      <use fill="#000000" height="240.1" transform="matrix(0.2344, 0.0, 0.0, 0.2344, 308.65, 62.0)" width="400.1" xlink:href="#font_Verdana_r0"/>
      <use fill="#000000" height="240.1" transform="matrix(0.2344, 0.0, 0.0, 0.2344, 313.75, 62.0)" width="400.1" xlink:href="#font_Verdana_h0"/>
      <use fill="#000000" height="240.1" transform="matrix(0.2344, 0.0, 0.0, 0.2344, 321.35, 62.0)" width="400.1" xlink:href="#font_Verdana_o0"/>
      <use fill="#000000" height="240.1" transform="matrix(0.2344, 0.0, 0.0, 0.2344, 328.65, 62.0)" width="400.1" xlink:href="#font_Verdana_o0"/>
      <use fill="#000000" height="240.1" transform="matrix(0.2344, 0.0, 0.0, 0.2344, 335.95, 62.0)" width="400.1" xlink:href="#font_Verdana_d0"/>
      <use fill="#000000" height="240.1" transform="matrix(0.2344, 0.0, 0.0, 0.2344, 343.45, 62.0)" width="400.1" xlink:href="#font_Verdana_s0"/>
      <use fill="#000000" height="240.1" transform="matrix(0.2344, 0.0, 0.0, 0.2344, 353.9, 62.0)" width="400.1" xlink:href="#font_Verdana_o0"/>
      <use fill="#000000" height="240.1" transform="matrix(0.2344, 0.0, 0.0, 0.2344, 361.2, 62.0)" width="400.1" xlink:href="#font_Verdana_f0"/>
      <use fill="#000000" height="240.1" transform="matrix(0.2344, 0.0, 0.0, 0.2344, 369.6, 62.0)" width="400.1" xlink:href="#font_Verdana_t0"/>
      <use fill="#000000" height="240.1" transform="matrix(0.2344, 0.0, 0.0, 0.2344, 374.35, 62.0)" width="400.1" xlink:href="#font_Verdana_h0"/>
      <use fill="#000000" height="240.1" transform="matrix(0.2344, 0.0, 0.0, 0.2344, 381.95, 62.0)" width="400.1" xlink:href="#font_Verdana_i0"/>
      <use fill="#000000" height="240.1" transform="matrix(0.2344, 0.0, 0.0, 0.2344, 385.25, 62.0)" width="400.1" xlink:href="#font_Verdana_s0"/>
    </g>
    <g transform="matrix(1.0, 0.0, 0.0, 1.0, 0.0, 0.0)">
      <use fill="#000000" height="240.1" transform="matrix(0.2344, 0.0, 0.0, 0.2344, 129.0, 78.0)" width="400.1" xlink:href="#font_Verdana_t0"/>
      <use fill="#000000" height="240.1" transform="matrix(0.2344, 0.0, 0.0, 0.2344, 133.75, 78.0)" width="400.1" xlink:href="#font_Verdana_o0"/>
      <use fill="#000000" height="240.1" transform="matrix(0.2344, 0.0, 0.0, 0.2344, 141.05, 78.0)" width="400.1" xlink:href="#font_Verdana_t0"/>
      <use fill="#000000" height="240.1" transform="matrix(0.2344, 0.0, 0.0, 0.2344, 145.8, 78.0)" width="400.1" xlink:href="#font_Verdana_a0"/>
      <use fill="#000000" height="240.1" transform="matrix(0.2344, 0.0, 0.0, 0.2344, 153.0, 78.0)" width="400.1" xlink:href="#font_Verdana_l0"/>
      <use fill="#000000" height="240.1" transform="matrix(0.2344, 0.0, 0.0, 0.2344, 156.3, 78.0)" width="400.1" xlink:href="#font_Verdana_l0"/>
      <use fill="#000000" height="240.1" transform="matrix(0.2344, 0.0, 0.0, 0.2344, 159.6, 78.0)" width="400.1" xlink:href="#font_Verdana_y0"/>
      <use fill="#000000" height="240.1" transform="matrix(0.2344, 0.0, 0.0, 0.2344, 170.9, 78.0)" width="400.1" xlink:href="#font_Verdana_T0"/>
      <use fill="#000000" height="240.1" transform="matrix(0.2344, 0.0, 0.0, 0.2344, 178.3, 78.0)" width="400.1" xlink:href="#font_Verdana_o0"/>
      <use fill="#000000" height="240.1" transform="matrix(0.2344, 0.0, 0.0, 0.2344, 185.6, 78.0)" width="400.1" xlink:href="#font_Verdana_o0"/>
      <use fill="#000000" height="240.1" transform="matrix(0.2344, 0.0, 0.0, 0.2344, 192.9, 78.0)" width="400.1" xlink:href="#font_Verdana_n0"/>
      <use fill="#000000" height="240.1" transform="matrix(0.2344, 0.0, 0.0, 0.2344, 200.5, 78.0)" width="400.1" xlink:href="#font_Verdana_t0"/>
      <use fill="#000000" height="240.1" transform="matrix(0.2344, 0.0, 0.0, 0.2344, 205.25, 78.0)" width="400.1" xlink:href="#font_Verdana_a0"/>
      <use fill="#000000" height="240.1" transform="matrix(0.2344, 0.0, 0.0, 0.2344, 212.45, 78.0)" width="400.1" xlink:href="#font_Verdana_s0"/>
      <use fill="#000000" height="240.1" transform="matrix(0.2344, 0.0, 0.0, 0.2344, 218.7, 78.0)" width="400.1" xlink:href="#font_Verdana_t0"/>
      <use fill="#000000" height="240.1" transform="matrix(0.2344, 0.0, 0.0, 0.2344, 223.45, 78.0)" width="400.1" xlink:href="#font_Verdana_i0"/>
      <use fill="#000000" height="240.1" transform="matrix(0.2344, 0.0, 0.0, 0.2344, 226.75, 78.0)" width="400.1" xlink:href="#font_Verdana_c0"/>
      <use fill="#000000" height="240.1" transform="matrix(0.2344, 0.0, 0.0, 0.2344, 237.2, 78.0)" width="400.1" xlink:href="#font_Verdana_w0"/>
      <use fill="#000000" height="240.1" transform="matrix(0.2344, 0.0, 0.0, 0.2344, 247.0, 78.0)" width="400.1" xlink:href="#font_Verdana_o0"/>
      <use fill="#000000" height="240.1" transform="matrix(0.2344, 0.0, 0.0, 0.2344, 254.3, 78.0)" width="400.1" xlink:href="#font_Verdana_r0"/>
      <use fill="#000000" height="240.1" transform="matrix(0.2344, 0.0, 0.0, 0.2344, 259.4, 78.0)" width="400.1" xlink:href="#font_Verdana_l0"/>
      <use fill="#000000" height="240.1" transform="matrix(0.2344, 0.0, 0.0, 0.2344, 262.7, 78.0)" width="400.1" xlink:href="#font_Verdana_d0"/>
      <use fill="#000000" height="240.1" transform="matrix(0.2344, 0.0, 0.0, 0.2344, 270.2, 78.0)" width="400.1" xlink:href="#font_Verdana_.0"/>
    </g>
    <g transform="matrix(1.0, 0.0, 0.0, 1.0, 0.0, 0.0)">
      <use fill="#000000" height="240.1" transform="matrix(0.2344, 0.0, 0.0, 0.2344, 2.0, 111.0)" width="400.1" xlink:href="#font_Verdana_B0"/>
      <use fill="#000000" height="240.1" transform="matrix(0.2344, 0.0, 0.0, 0.2344, 10.25, 111.0)" width="400.1" xlink:href="#font_Verdana_u0"/>
      <use fill="#000000" height="240.1" transform="matrix(0.2344, 0.0, 0.0, 0.2344, 17.85, 111.0)" width="400.1" xlink:href="#font_Verdana_t0"/>
      <use fill="#000000" height="240.1" transform="matrix(0.2344, 0.0, 0.0, 0.2344, 26.8, 111.0)" width="400.1" xlink:href="#font_Verdana_b0"/>
      <use fill="#000000" height="240.1" transform="matrix(0.2344, 0.0, 0.0, 0.2344, 34.3, 111.0)" width="400.1" xlink:href="#font_Verdana_e0"/>
      <use fill="#000000" height="240.1" transform="matrix(0.2344, 0.0, 0.0, 0.2344, 41.45, 111.0)" width="400.1" xlink:href="#font_Verdana_w0"/>
      <use fill="#000000" height="240.1" transform="matrix(0.2344, 0.0, 0.0, 0.2344, 51.25, 111.0)" width="400.1" xlink:href="#font_Verdana_a0"/>
      <use fill="#000000" height="240.1" transform="matrix(0.2344, 0.0, 0.0, 0.2344, 58.45, 111.0)" width="400.1" xlink:href="#font_Verdana_r0"/>
      <use fill="#000000" height="240.1" transform="matrix(0.2344, 0.0, 0.0, 0.2344, 63.55, 111.0)" width="400.1" xlink:href="#font_Verdana_e0"/>
      <use fill="#000000" height="240.1" transform="matrix(0.2344, 0.0, 0.0, 0.2344, 74.9, 111.0)" width="400.1" xlink:href="#font_Verdana_o0"/>
      <use fill="#000000" height="240.1" transform="matrix(0.2344, 0.0, 0.0, 0.2344, 82.2, 111.0)" width="400.1" xlink:href="#font_Verdana_f0"/>
      <use fill="#000000" height="240.1" transform="matrix(0.2344, 0.0, 0.0, 0.2344, 90.6, 111.0)" width="400.1" xlink:href="#font_Verdana_t0"/>
      <use fill="#000000" height="240.1" transform="matrix(0.2344, 0.0, 0.0, 0.2344, 95.35, 111.0)" width="400.1" xlink:href="#font_Verdana_h0"/>
      <use fill="#000000" height="240.1" transform="matrix(0.2344, 0.0, 0.0, 0.2344, 102.95, 111.0)" width="400.1" xlink:href="#font_Verdana_e0"/>
      <use fill="#000000" height="240.1" transform="matrix(0.2344, 0.0, 0.0, 0.2344, 114.3, 111.0)" width="400.1" xlink:href="#font_Verdana_e0"/>
      <use fill="#000000" height="240.1" transform="matrix(0.2344, 0.0, 0.0, 0.2344, 121.45, 111.0)" width="400.1" xlink:href="#font_Verdana_v0"/>
      <use fill="#000000" height="240.1" transform="matrix(0.2344, 0.0, 0.0, 0.2344, 128.55, 111.0)" width="400.1" xlink:href="#font_Verdana_i0"/>
      <use fill="#000000" height="240.1" transform="matrix(0.2344, 0.0, 0.0, 0.2344, 131.85, 111.0)" width="400.1" xlink:href="#font_Verdana_l0"/>
      <use fill="#000000" height="240.1" transform="matrix(0.2344, 0.0, 0.0, 0.2344, 139.35, 111.0)" width="400.1" xlink:href="#font_Verdana_r0"/>
      <use fill="#000000" height="240.1" transform="matrix(0.2344, 0.0, 0.0, 0.2344, 144.45, 111.0)" width="400.1" xlink:href="#font_Verdana_o0"/>
      <use fill="#000000" height="240.1" transform="matrix(0.2344, 0.0, 0.0, 0.2344, 151.75, 111.0)" width="400.1" xlink:href="#font_Verdana_b0"/>
      <use fill="#000000" height="240.1" transform="matrix(0.2344, 0.0, 0.0, 0.2344, 159.25, 111.0)" width="400.1" xlink:href="#font_Verdana_o0"/>
      <use fill="#000000" height="240.1" transform="matrix(0.2344, 0.0, 0.0, 0.2344, 166.55, 111.0)" width="400.1" xlink:href="#font_Verdana_t0"/>
      <use fill="#000000" height="240.1" transform="matrix(0.2344, 0.0, 0.0, 0.2344, 175.5, 111.0)" width="400.1" xlink:href="#font_Verdana_C0"/>
      <use fill="#000000" height="240.1" transform="matrix(0.2344, 0.0, 0.0, 0.2344, 183.9, 111.0)" width="400.1" xlink:href="#font_Verdana_o0"/>
      <use fill="#000000" height="240.1" transform="matrix(0.2344, 0.0, 0.0, 0.2344, 191.2, 111.0)" width="400.1" xlink:href="#font_Verdana_g0"/>
      <use fill="#000000" height="240.1" transform="matrix(0.2344, 0.0, 0.0, 0.2344, 198.7, 111.0)" width="400.1" xlink:href="#font_Verdana_s0"/>
      <use fill="#000000" height="240.1" transform="matrix(0.2344, 0.0, 0.0, 0.2344, 204.95, 111.0)" width="400.1" xlink:href="#font_Verdana_.0"/>
      <use fill="#000000" height="240.1" transform="matrix(0.2344, 0.0, 0.0, 0.2344, 213.5, 111.0)" width="400.1" xlink:href="#font_Verdana_T0"/>
      <use fill="#000000" height="240.1" transform="matrix(0.2344, 0.0, 0.0, 0.2344, 220.9, 111.0)" width="400.1" xlink:href="#font_Verdana_h0"/>
      <use fill="#000000" height="240.1" transform="matrix(0.2344, 0.0, 0.0, 0.2344, 228.5, 111.0)" width="400.1" xlink:href="#font_Verdana_e0"/>
      <use fill="#000000" height="240.1" transform="matrix(0.2344, 0.0, 0.0, 0.2344, 235.65, 111.0)" width="400.1" xlink:href="#font_Verdana_s0"/>
      <use fill="#000000" height="240.1" transform="matrix(0.2344, 0.0, 0.0, 0.2344, 241.9, 111.0)" width="400.1" xlink:href="#font_Verdana_e0"/>
      <use fill="#000000" height="240.1" transform="matrix(0.2344, 0.0, 0.0, 0.2344, 253.25, 111.0)" width="400.1" xlink:href="#font_Verdana_c0"/>
      <use fill="#000000" height="240.1" transform="matrix(0.2344, 0.0, 0.0, 0.2344, 259.5, 111.0)" width="400.1" xlink:href="#font_Verdana_o0"/>
      <use fill="#000000" height="240.1" transform="matrix(0.2344, 0.0, 0.0, 0.2344, 266.8, 111.0)" width="400.1" xlink:href="#font_Verdana_r0"/>
      <use fill="#000000" height="240.1" transform="matrix(0.2344, 0.0, 0.0, 0.2344, 271.9, 111.0)" width="400.1" xlink:href="#font_Verdana_p0"/>
      <use fill="#000000" height="240.1" transform="matrix(0.2344, 0.0, 0.0, 0.2344, 279.4, 111.0)" width="400.1" xlink:href="#font_Verdana_o0"/>
      <use fill="#000000" height="240.1" transform="matrix(0.2344, 0.0, 0.0, 0.2344, 286.7, 111.0)" width="400.1" xlink:href="#font_Verdana_r0"/>
      <use fill="#000000" height="240.1" transform="matrix(0.2344, 0.0, 0.0, 0.2344, 291.8, 111.0)" width="400.1" xlink:href="#font_Verdana_a0"/>
      <use fill="#000000" height="240.1" transform="matrix(0.2344, 0.0, 0.0, 0.2344, 299.0, 111.0)" width="400.1" xlink:href="#font_Verdana_t0"/>
      <use fill="#000000" height="240.1" transform="matrix(0.2344, 0.0, 0.0, 0.2344, 303.75, 111.0)" width="400.1" xlink:href="#font_Verdana_e0"/>
      <use fill="#000000" height="240.1" transform="matrix(0.2344, 0.0, 0.0, 0.2344, 315.1, 111.0)" width="400.1" xlink:href="#font_Verdana_b0"/>
      <use fill="#000000" height="240.1" transform="matrix(0.2344, 0.0, 0.0, 0.2344, 322.6, 111.0)" width="400.1" xlink:href="#font_Verdana_a0"/>
      <use fill="#000000" height="240.1" transform="matrix(0.2344, 0.0, 0.0, 0.2344, 329.8, 111.0)" width="400.1" xlink:href="#font_Verdana_d0"/>
      <use fill="#000000" height="240.1" transform="matrix(0.2344, 0.0, 0.0, 0.2344, 341.5, 111.0)" width="400.1" xlink:href="#font_Verdana_g0"/>
      <use fill="#000000" height="240.1" transform="matrix(0.2344, 0.0, 0.0, 0.2344, 349.0, 111.0)" width="400.1" xlink:href="#font_Verdana_u0"/>
      <use fill="#000000" height="240.1" transform="matrix(0.2344, 0.0, 0.0, 0.2344, 356.6, 111.0)" width="400.1" xlink:href="#font_Verdana_y0"/>
      <use fill="#000000" height="240.1" transform="matrix(0.2344, 0.0, 0.0, 0.2344, 363.7, 111.0)" width="400.1" xlink:href="#font_Verdana_s0"/>
      <use fill="#000000" height="240.1" transform="matrix(0.2344, 0.0, 0.0, 0.2344, 374.15, 111.0)" width="400.1" xlink:href="#font_Verdana_h0"/>
      <use fill="#000000" height="240.1" transform="matrix(0.2344, 0.0, 0.0, 0.2344, 381.75, 111.0)" width="400.1" xlink:href="#font_Verdana_a0"/>
      <use fill="#000000" height="240.1" transform="matrix(0.2344, 0.0, 0.0, 0.2344, 388.95, 111.0)" width="400.1" xlink:href="#font_Verdana_v0"/>
      <use fill="#000000" height="240.1" transform="matrix(0.2344, 0.0, 0.0, 0.2344, 396.05, 111.0)" width="400.1" xlink:href="#font_Verdana_e0"/>
    </g>
    <g transform="matrix(1.0, 0.0, 0.0, 1.0, 0.0, 0.0)">
      <use fill="#000000" height="240.1" transform="matrix(0.2344, 0.0, 0.0, 0.2344, 1.0, 128.0)" width="400.1" xlink:href="#font_Verdana_i0"/>
      <use fill="#000000" height="240.1" transform="matrix(0.2344, 0.0, 0.0, 0.2344, 4.3, 128.0)" width="400.1" xlink:href="#font_Verdana_n0"/>
      <use fill="#000000" height="240.1" transform="matrix(0.2344, 0.0, 0.0, 0.2344, 11.9, 128.0)" width="400.1" xlink:href="#font_Verdana_v0"/>
      <use fill="#000000" height="240.1" transform="matrix(0.2344, 0.0, 0.0, 0.2344, 19.0, 128.0)" width="400.1" xlink:href="#font_Verdana_a0"/>
      <use fill="#000000" height="240.1" transform="matrix(0.2344, 0.0, 0.0, 0.2344, 26.2, 128.0)" width="400.1" xlink:href="#font_Verdana_d0"/>
      <use fill="#000000" height="240.1" transform="matrix(0.2344, 0.0, 0.0, 0.2344, 33.7, 128.0)" width="400.1" xlink:href="#font_Verdana_e0"/>
      <use fill="#000000" height="240.1" transform="matrix(0.2344, 0.0, 0.0, 0.2344, 40.85, 128.0)" width="400.1" xlink:href="#font_Verdana_d0"/>
      <use fill="#000000" height="240.1" transform="matrix(0.2344, 0.0, 0.0, 0.2344, 52.55, 128.0)" width="400.1" xlink:href="#font_Verdana_a0"/>
      <use fill="#000000" height="240.1" transform="matrix(0.2344, 0.0, 0.0, 0.2344, 59.75, 128.0)" width="400.1" xlink:href="#font_Verdana_n0"/>
      <use fill="#000000" height="240.1" transform="matrix(0.2344, 0.0, 0.0, 0.2344, 67.35, 128.0)" width="400.1" xlink:href="#font_Verdana_d0"/>
      <use fill="#000000" height="240.1" transform="matrix(0.2344, 0.0, 0.0, 0.2344, 79.05, 128.0)" width="400.1" xlink:href="#font_Verdana_t0"/>
      <use fill="#000000" height="240.1" transform="matrix(0.2344, 0.0, 0.0, 0.2344, 83.8, 128.0)" width="400.1" xlink:href="#font_Verdana_h0"/>
      <use fill="#000000" height="240.1" transform="matrix(0.2344, 0.0, 0.0, 0.2344, 91.4, 128.0)" width="400.1" xlink:href="#font_Verdana_e0"/>
      <use fill="#000000" height="240.1" transform="matrix(0.2344, 0.0, 0.0, 0.2344, 98.55, 128.0)" width="400.1" xlink:href="#font_Verdana_y0"/>
      <use fill="#000000" height="240.1" transform="matrix(0.2344, 0.0, 0.0, 0.2344, 109.85, 128.0)" width="400.1" xlink:href="#font_Verdana_m0"/>
      <use fill="#000000" height="240.1" transform="matrix(0.2344, 0.0, 0.0, 0.2344, 121.5, 128.0)" width="400.1" xlink:href="#font_Verdana_e0"/>
      <use fill="#000000" height="240.1" transform="matrix(0.2344, 0.0, 0.0, 0.2344, 128.65, 128.0)" width="400.1" xlink:href="#font_Verdana_a0"/>
      <use fill="#000000" height="240.1" transform="matrix(0.2344, 0.0, 0.0, 0.2344, 135.85, 128.0)" width="400.1" xlink:href="#font_Verdana_n0"/>
      <use fill="#000000" height="240.1" transform="matrix(0.2344, 0.0, 0.0, 0.2344, 147.65, 128.0)" width="400.1" xlink:href="#font_Verdana_b0"/>
      <use fill="#000000" height="240.1" transform="matrix(0.2344, 0.0, 0.0, 0.2344, 155.15, 128.0)" width="400.1" xlink:href="#font_Verdana_u0"/>
      <use fill="#000000" height="240.1" transform="matrix(0.2344, 0.0, 0.0, 0.2344, 162.75, 128.0)" width="400.1" xlink:href="#font_Verdana_s0"/>
      <use fill="#000000" height="240.1" transform="matrix(0.2344, 0.0, 0.0, 0.2344, 169.0, 128.0)" width="400.1" xlink:href="#font_Verdana_i0"/>
      <use fill="#000000" height="240.1" transform="matrix(0.2344, 0.0, 0.0, 0.2344, 172.3, 128.0)" width="400.1" xlink:href="#font_Verdana_n0"/>
      <use fill="#000000" height="240.1" transform="matrix(0.2344, 0.0, 0.0, 0.2344, 179.9, 128.0)" width="400.1" xlink:href="#font_Verdana_e0"/>
      <use fill="#000000" height="240.1" transform="matrix(0.2344, 0.0, 0.0, 0.2344, 187.05, 128.0)" width="400.1" xlink:href="#font_Verdana_s0"/>
      <use fill="#000000" height="240.1" transform="matrix(0.2344, 0.0, 0.0, 0.2344, 193.3, 128.0)" width="400.1" xlink:href="#font_Verdana_s0"/>
      <use fill="#000000" height="240.1" transform="matrix(0.2344, 0.0, 0.0, 0.2344, 199.55, 128.0)" width="400.1" xlink:href="#font_Verdana_.0"/>
      <use fill="#000000" height="240.1" transform="matrix(0.2344, 0.0, 0.0, 0.2344, 208.1, 128.0)" width="400.1" xlink:href="#font_Verdana_Y0"/>
      <use fill="#000000" height="240.1" transform="matrix(0.2344, 0.0, 0.0, 0.2344, 215.5, 128.0)" width="400.1" xlink:href="#font_Verdana_o0"/>
      <use fill="#000000" height="240.1" transform="matrix(0.2344, 0.0, 0.0, 0.2344, 222.8, 128.0)" width="400.1" xlink:href="#font_Verdana_u0"/>
      <use fill="#000000" height="240.1" transform="matrix(0.2344, 0.0, 0.0, 0.2344, 234.6, 128.0)" width="400.1" xlink:href="#font_Verdana_g0"/>
      <use fill="#000000" height="240.1" transform="matrix(0.2344, 0.0, 0.0, 0.2344, 242.1, 128.0)" width="400.1" xlink:href="#font_Verdana_o0"/>
      <use fill="#000000" height="240.1" transform="matrix(0.2344, 0.0, 0.0, 0.2344, 249.4, 128.0)" width="400.1" xlink:href="#font_Verdana_n0"/>
      <use fill="#000000" height="240.1" transform="matrix(0.2344, 0.0, 0.0, 0.2344, 257.0, 128.0)" width="400.1" xlink:href="#font_Verdana_n0"/>
      <use fill="#000000" height="240.1" transform="matrix(0.2344, 0.0, 0.0, 0.2344, 264.6, 128.0)" width="400.1" xlink:href="#font_Verdana_a0"/>
      <use fill="#000000" height="240.1" transform="matrix(0.2344, 0.0, 0.0, 0.2344, 276.0, 128.0)" width="400.1" xlink:href="#font_Verdana_l0"/>
      <use fill="#000000" height="240.1" transform="matrix(0.2344, 0.0, 0.0, 0.2344, 279.3, 128.0)" width="400.1" xlink:href="#font_Verdana_e0"/>
      <use fill="#000000" height="240.1" transform="matrix(0.2344, 0.0, 0.0, 0.2344, 286.45, 128.0)" width="400.1" xlink:href="#font_Verdana_t0"/>
      <use fill="#000000" height="240.1" transform="matrix(0.2344, 0.0, 0.0, 0.2344, 295.4, 128.0)" width="400.1" xlink:href="#font_Verdana_t0"/>
      <use fill="#000000" height="240.1" transform="matrix(0.2344, 0.0, 0.0, 0.2344, 300.15, 128.0)" width="400.1" xlink:href="#font_Verdana_h0"/>
      <use fill="#000000" height="240.1" transform="matrix(0.2344, 0.0, 0.0, 0.2344, 307.75, 128.0)" width="400.1" xlink:href="#font_Verdana_a0"/>
      <use fill="#000000" height="240.1" transform="matrix(0.2344, 0.0, 0.0, 0.2344, 314.95, 128.0)" width="400.1" xlink:href="#font_Verdana_t0"/>
      <use fill="#000000" height="240.1" transform="matrix(0.2344, 0.0, 0.0, 0.2344, 323.9, 128.0)" width="400.1" xlink:href="#font_Verdana_h0"/>
      <use fill="#000000" height="240.1" transform="matrix(0.2344, 0.0, 0.0, 0.2344, 331.5, 128.0)" width="400.1" xlink:href="#font_Verdana_a0"/>
      <use fill="#000000" height="240.1" transform="matrix(0.2344, 0.0, 0.0, 0.2344, 338.7, 128.0)" width="400.1" xlink:href="#font_Verdana_p0"/>
      <use fill="#000000" height="240.1" transform="matrix(0.2344, 0.0, 0.0, 0.2344, 346.2, 128.0)" width="400.1" xlink:href="#font_Verdana_p0"/>
      <use fill="#000000" height="240.1" transform="matrix(0.2344, 0.0, 0.0, 0.2344, 353.7, 128.0)" width="400.1" xlink:href="#font_Verdana_e0"/>
      <use fill="#000000" height="240.1" transform="matrix(0.2344, 0.0, 0.0, 0.2344, 360.85, 128.0)" width="400.1" xlink:href="#font_Verdana_n0"/>
      <use fill="#000000" height="240.1" transform="matrix(0.2344, 0.0, 0.0, 0.2344, 368.45, 128.0)" width="400.1" xlink:href="#font_Verdana__3"/>
      <use fill="#000000" height="240.1" transform="matrix(0.2344, 0.0, 0.0, 0.2344, 379.2, 128.0)" width="400.1" xlink:href="#font_Verdana_J0"/>
      <use fill="#000000" height="240.1" transform="matrix(0.2344, 0.0, 0.0, 0.2344, 384.65, 128.0)" width="400.1" xlink:href="#font_Verdana_o0"/>
      <use fill="#000000" height="240.1" transform="matrix(0.2344, 0.0, 0.0, 0.2344, 391.95, 128.0)" width="400.1" xlink:href="#font_Verdana_i0"/>
      <use fill="#000000" height="240.1" transform="matrix(0.2344, 0.0, 0.0, 0.2344, 395.25, 128.0)" width="400.1" xlink:href="#font_Verdana_n0"/>
    </g>
    <g transform="matrix(1.0, 0.0, 0.0, 1.0, 0.0, 0.0)">
      <use fill="#000000" height="240.1" transform="matrix(0.2344, 0.0, 0.0, 0.2344, 2.0, 144.0)" width="400.1" xlink:href="#font_Verdana_f0"/>
      <use fill="#000000" height="240.1" transform="matrix(0.2344, 0.0, 0.0, 0.2344, 6.2, 144.0)" width="400.1" xlink:href="#font_Verdana_o0"/>
      <use fill="#000000" height="240.1" transform="matrix(0.2344, 0.0, 0.0, 0.2344, 13.5, 144.0)" width="400.1" xlink:href="#font_Verdana_r0"/>
      <use fill="#000000" height="240.1" transform="matrix(0.2344, 0.0, 0.0, 0.2344, 18.6, 144.0)" width="400.1" xlink:href="#font_Verdana_c0"/>
      <use fill="#000000" height="240.1" transform="matrix(0.2344, 0.0, 0.0, 0.2344, 24.85, 144.0)" width="400.1" xlink:href="#font_Verdana_e0"/>
      <use fill="#000000" height="240.1" transform="matrix(0.2344, 0.0, 0.0, 0.2344, 32.0, 144.0)" width="400.1" xlink:href="#font_Verdana_s0"/>
      <use fill="#000000" height="240.1" transform="matrix(0.2344, 0.0, 0.0, 0.2344, 42.45, 144.0)" width="400.1" xlink:href="#font_Verdana_w0"/>
      <use fill="#000000" height="240.1" transform="matrix(0.2344, 0.0, 0.0, 0.2344, 52.25, 144.0)" width="400.1" xlink:href="#font_Verdana_i0"/>
      <use fill="#000000" height="240.1" transform="matrix(0.2344, 0.0, 0.0, 0.2344, 55.55, 144.0)" width="400.1" xlink:href="#font_Verdana_t0"/>
      <use fill="#000000" height="240.1" transform="matrix(0.2344, 0.0, 0.0, 0.2344, 60.3, 144.0)" width="400.1" xlink:href="#font_Verdana_h0"/>
      <use fill="#000000" height="240.1" transform="matrix(0.2344, 0.0, 0.0, 0.2344, 72.1, 144.0)" width="400.1" xlink:href="#font_Verdana_y0"/>
      <use fill="#000000" height="240.1" transform="matrix(0.2344, 0.0, 0.0, 0.2344, 79.2, 144.0)" width="400.1" xlink:href="#font_Verdana_o0"/>
      <use fill="#000000" height="240.1" transform="matrix(0.2344, 0.0, 0.0, 0.2344, 86.5, 144.0)" width="400.1" xlink:href="#font_Verdana_u0"/>
      <use fill="#000000" height="240.1" transform="matrix(0.2344, 0.0, 0.0, 0.2344, 94.1, 144.0)" width="400.1" xlink:href="#font_Verdana_r0"/>
      <use fill="#000000" height="240.1" transform="matrix(0.2344, 0.0, 0.0, 0.2344, 103.4, 144.0)" width="400.1" xlink:href="#font_Verdana_f0"/>
      <use fill="#000000" height="240.1" transform="matrix(0.2344, 0.0, 0.0, 0.2344, 107.6, 144.0)" width="400.1" xlink:href="#font_Verdana_r0"/>
      <use fill="#000000" height="240.1" transform="matrix(0.2344, 0.0, 0.0, 0.2344, 112.7, 144.0)" width="400.1" xlink:href="#font_Verdana_i0"/>
      <use fill="#000000" height="240.1" transform="matrix(0.2344, 0.0, 0.0, 0.2344, 116.0, 144.0)" width="400.1" xlink:href="#font_Verdana_e0"/>
      <use fill="#000000" height="240.1" transform="matrix(0.2344, 0.0, 0.0, 0.2344, 123.15, 144.0)" width="400.1" xlink:href="#font_Verdana_n0"/>
      <use fill="#000000" height="240.1" transform="matrix(0.2344, 0.0, 0.0, 0.2344, 130.75, 144.0)" width="400.1" xlink:href="#font_Verdana_d0"/>
      <use fill="#000000" height="240.1" transform="matrix(0.2344, 0.0, 0.0, 0.2344, 138.25, 144.0)" width="400.1" xlink:href="#font_Verdana_s0"/>
      <use fill="#000000" height="240.1" transform="matrix(0.2344, 0.0, 0.0, 0.2344, 148.7, 144.0)" width="400.1" xlink:href="#font_Verdana_a0"/>
      <use fill="#000000" height="240.1" transform="matrix(0.2344, 0.0, 0.0, 0.2344, 155.9, 144.0)" width="400.1" xlink:href="#font_Verdana_n0"/>
      <use fill="#000000" height="240.1" transform="matrix(0.2344, 0.0, 0.0, 0.2344, 163.5, 144.0)" width="400.1" xlink:href="#font_Verdana_d0"/>
      <use fill="#000000" height="240.1" transform="matrix(0.2344, 0.0, 0.0, 0.2344, 175.2, 144.0)" width="400.1" xlink:href="#font_Verdana_u0"/>
      <use fill="#000000" height="240.1" transform="matrix(0.2344, 0.0, 0.0, 0.2344, 182.8, 144.0)" width="400.1" xlink:href="#font_Verdana_s0"/>
      <use fill="#000000" height="240.1" transform="matrix(0.2344, 0.0, 0.0, 0.2344, 189.05, 144.0)" width="400.1" xlink:href="#font_Verdana_e0"/>
      <use fill="#000000" height="240.1" transform="matrix(0.2344, 0.0, 0.0, 0.2344, 200.4, 144.0)" width="400.1" xlink:href="#font_Verdana_a0"/>
      <use fill="#000000" height="240.1" transform="matrix(0.2344, 0.0, 0.0, 0.2344, 207.6, 144.0)" width="400.1" xlink:href="#font_Verdana_l0"/>
      <use fill="#000000" height="240.1" transform="matrix(0.2344, 0.0, 0.0, 0.2344, 210.9, 144.0)" width="400.1" xlink:href="#font_Verdana_l0"/>
      <use fill="#000000" height="240.1" transform="matrix(0.2344, 0.0, 0.0, 0.2344, 218.4, 144.0)" width="400.1" xlink:href="#font_Verdana_y0"/>
      <use fill="#000000" height="240.1" transform="matrix(0.2344, 0.0, 0.0, 0.2344, 225.5, 144.0)" width="400.1" xlink:href="#font_Verdana_o0"/>
      <use fill="#000000" height="240.1" transform="matrix(0.2344, 0.0, 0.0, 0.2344, 232.8, 144.0)" width="400.1" xlink:href="#font_Verdana_u0"/>
      <use fill="#000000" height="240.1" transform="matrix(0.2344, 0.0, 0.0, 0.2344, 240.4, 144.0)" width="400.1" xlink:href="#font_Verdana_r0"/>
      <use fill="#000000" height="240.1" transform="matrix(0.2344, 0.0, 0.0, 0.2344, 249.7, 144.0)" width="400.1" xlink:href="#font_Verdana_g0"/>
      <use fill="#000000" height="240.1" transform="matrix(0.2344, 0.0, 0.0, 0.2344, 257.2, 144.0)" width="400.1" xlink:href="#font_Verdana_a0"/>
      <use fill="#000000" height="240.1" transform="matrix(0.2344, 0.0, 0.0, 0.2344, 264.4, 144.0)" width="400.1" xlink:href="#font_Verdana_g0"/>
      <use fill="#000000" height="240.1" transform="matrix(0.2344, 0.0, 0.0, 0.2344, 271.9, 144.0)" width="400.1" xlink:href="#font_Verdana_s0"/>
      <use fill="#000000" height="240.1" transform="matrix(0.2344, 0.0, 0.0, 0.2344, 282.35, 144.0)" width="400.1" xlink:href="#font_Verdana_-0"/>
      <use fill="#000000" height="240.1" transform="matrix(0.2344, 0.0, 0.0, 0.2344, 292.0, 144.0)" width="400.1" xlink:href="#font_Verdana_c0"/>
      <use fill="#000000" height="240.1" transform="matrix(0.2344, 0.0, 0.0, 0.2344, 298.25, 144.0)" width="400.1" xlink:href="#font_Verdana_r0"/>
      <use fill="#000000" height="240.1" transform="matrix(0.2344, 0.0, 0.0, 0.2344, 303.35, 144.0)" width="400.1" xlink:href="#font_Verdana_e0"/>
      <use fill="#000000" height="240.1" transform="matrix(0.2344, 0.0, 0.0, 0.2344, 310.5, 144.0)" width="400.1" xlink:href="#font_Verdana_a0"/>
      <use fill="#000000" height="240.1" transform="matrix(0.2344, 0.0, 0.0, 0.2344, 317.7, 144.0)" width="400.1" xlink:href="#font_Verdana_m0"/>
      <use fill="#000000" height="240.1" transform="matrix(0.2344, 0.0, 0.0, 0.2344, 333.55, 144.0)" width="400.1" xlink:href="#font_Verdana_p0"/>
      <use fill="#000000" height="240.1" transform="matrix(0.2344, 0.0, 0.0, 0.2344, 341.05, 144.0)" width="400.1" xlink:href="#font_Verdana_i0"/>
      <use fill="#000000" height="240.1" transform="matrix(0.2344, 0.0, 0.0, 0.2344, 344.35, 144.0)" width="400.1" xlink:href="#font_Verdana_e0"/>
      <use fill="#000000" height="240.1" transform="matrix(0.2344, 0.0, 0.0, 0.2344, 351.5, 144.0)" width="400.1" xlink:href="#font_Verdana_s0"/>
      <use fill="#000000" height="240.1" transform="matrix(0.2344, 0.0, 0.0, 0.2344, 357.75, 144.0)" width="400.1" xlink:href="#font_Verdana__2"/>
      <use fill="#000000" height="240.1" transform="matrix(0.2344, 0.0, 0.0, 0.2344, 366.3, 144.0)" width="400.1" xlink:href="#font_Verdana_f0"/>
      <use fill="#000000" height="240.1" transform="matrix(0.2344, 0.0, 0.0, 0.2344, 370.5, 144.0)" width="400.1" xlink:href="#font_Verdana_a0"/>
      <use fill="#000000" height="240.1" transform="matrix(0.2344, 0.0, 0.0, 0.2344, 377.7, 144.0)" width="400.1" xlink:href="#font_Verdana_l0"/>
      <use fill="#000000" height="240.1" transform="matrix(0.2344, 0.0, 0.0, 0.2344, 381.0, 144.0)" width="400.1" xlink:href="#font_Verdana_l0"/>
      <use fill="#000000" height="240.1" transform="matrix(0.2344, 0.0, 0.0, 0.2344, 384.3, 144.0)" width="400.1" xlink:href="#font_Verdana_i0"/>
      <use fill="#000000" height="240.1" transform="matrix(0.2344, 0.0, 0.0, 0.2344, 387.6, 144.0)" width="400.1" xlink:href="#font_Verdana_n0"/>
      <use fill="#000000" height="240.1" transform="matrix(0.2344, 0.0, 0.0, 0.2344, 395.2, 144.0)" width="400.1" xlink:href="#font_Verdana_g0"/>
    </g>
    <g transform="matrix(1.0, 0.0, 0.0, 1.0, 0.0, 0.0)">
      <use fill="#000000" height="240.1" transform="matrix(0.2344, 0.0, 0.0, 0.2344, 15.0, 161.0)" width="400.1" xlink:href="#font_Verdana_p0"/>
      <use fill="#000000" height="240.1" transform="matrix(0.2344, 0.0, 0.0, 0.2344, 22.5, 161.0)" width="400.1" xlink:href="#font_Verdana_i0"/>
      <use fill="#000000" height="240.1" transform="matrix(0.2344, 0.0, 0.0, 0.2344, 25.8, 161.0)" width="400.1" xlink:href="#font_Verdana_a0"/>
      <use fill="#000000" height="240.1" transform="matrix(0.2344, 0.0, 0.0, 0.2344, 33.0, 161.0)" width="400.1" xlink:href="#font_Verdana_n0"/>
      <use fill="#000000" height="240.1" transform="matrix(0.2344, 0.0, 0.0, 0.2344, 40.6, 161.0)" width="400.1" xlink:href="#font_Verdana_o0"/>
      <use fill="#000000" height="240.1" transform="matrix(0.2344, 0.0, 0.0, 0.2344, 47.9, 161.0)" width="400.1" xlink:href="#font_Verdana_s0"/>
      <use fill="#000000" height="240.1" transform="matrix(0.2344, 0.0, 0.0, 0.2344, 54.15, 161.0)" width="400.1" xlink:href="#font_Verdana__2"/>
      <use fill="#000000" height="240.1" transform="matrix(0.2344, 0.0, 0.0, 0.2344, 62.7, 161.0)" width="400.1" xlink:href="#font_Verdana_H0"/>
      <use fill="#000000" height="240.1" transform="matrix(0.2344, 0.0, 0.0, 0.2344, 71.7, 161.0)" width="400.1" xlink:href="#font_Verdana_y0"/>
      <use fill="#000000" height="240.1" transform="matrix(0.2344, 0.0, 0.0, 0.2344, 78.8, 161.0)" width="400.1" xlink:href="#font_Verdana_p0"/>
      <use fill="#000000" height="240.1" transform="matrix(0.2344, 0.0, 0.0, 0.2344, 86.3, 161.0)" width="400.1" xlink:href="#font_Verdana_n0"/>
      <use fill="#000000" height="240.1" transform="matrix(0.2344, 0.0, 0.0, 0.2344, 93.9, 161.0)" width="400.1" xlink:href="#font_Verdana_o0"/>
      <use fill="#000000" height="240.1" transform="matrix(0.2344, 0.0, 0.0, 0.2344, 101.2, 161.0)" width="400.1" xlink:href="#font_Verdana_-0"/>
      <use fill="#000000" height="240.1" transform="matrix(0.2344, 0.0, 0.0, 0.2344, 106.65, 161.0)" width="400.1" xlink:href="#font_Verdana_G0"/>
      <use fill="#000000" height="240.1" transform="matrix(0.2344, 0.0, 0.0, 0.2344, 115.95, 161.0)" width="400.1" xlink:href="#font_Verdana_o0"/>
      <use fill="#000000" height="240.1" transform="matrix(0.2344, 0.0, 0.0, 0.2344, 123.25, 161.0)" width="400.1" xlink:href="#font_Verdana_g0"/>
      <use fill="#000000" height="240.1" transform="matrix(0.2344, 0.0, 0.0, 0.2344, 130.75, 161.0)" width="400.1" xlink:href="#font_Verdana_g0"/>
      <use fill="#000000" height="240.1" transform="matrix(0.2344, 0.0, 0.0, 0.2344, 138.25, 161.0)" width="400.1" xlink:href="#font_Verdana_l0"/>
      <use fill="#000000" height="240.1" transform="matrix(0.2344, 0.0, 0.0, 0.2344, 141.55, 161.0)" width="400.1" xlink:href="#font_Verdana_e0"/>
      <use fill="#000000" height="240.1" transform="matrix(0.2344, 0.0, 0.0, 0.2344, 148.7, 161.0)" width="400.1" xlink:href="#font_Verdana_s0"/>
      <use fill="#000000" height="240.1" transform="matrix(0.2344, 0.0, 0.0, 0.2344, 154.95, 161.0)" width="400.1" xlink:href="#font_Verdana__2"/>
      <use fill="#000000" height="240.1" transform="matrix(0.2344, 0.0, 0.0, 0.2344, 163.5, 161.0)" width="400.1" xlink:href="#font_Verdana_f0"/>
      <use fill="#000000" height="240.1" transform="matrix(0.2344, 0.0, 0.0, 0.2344, 167.7, 161.0)" width="400.1" xlink:href="#font_Verdana_o0"/>
      <use fill="#000000" height="240.1" transform="matrix(0.2344, 0.0, 0.0, 0.2344, 175.0, 161.0)" width="400.1" xlink:href="#font_Verdana_g0"/>
      <use fill="#000000" height="240.1" transform="matrix(0.2344, 0.0, 0.0, 0.2344, 182.5, 161.0)" width="400.1" xlink:href="#font_Verdana_h0"/>
      <use fill="#000000" height="240.1" transform="matrix(0.2344, 0.0, 0.0, 0.2344, 190.1, 161.0)" width="400.1" xlink:href="#font_Verdana_o0"/>
      <use fill="#000000" height="240.1" transform="matrix(0.2344, 0.0, 0.0, 0.2344, 197.4, 161.0)" width="400.1" xlink:href="#font_Verdana_r0"/>
      <use fill="#000000" height="240.1" transform="matrix(0.2344, 0.0, 0.0, 0.2344, 202.5, 161.0)" width="400.1" xlink:href="#font_Verdana_n0"/>
      <use fill="#000000" height="240.1" transform="matrix(0.2344, 0.0, 0.0, 0.2344, 210.1, 161.0)" width="400.1" xlink:href="#font_Verdana_s0"/>
      <use fill="#000000" height="240.1" transform="matrix(0.2344, 0.0, 0.0, 0.2344, 220.55, 161.0)" width="400.1" xlink:href="#font_Verdana_a0"/>
      <use fill="#000000" height="240.1" transform="matrix(0.2344, 0.0, 0.0, 0.2344, 227.75, 161.0)" width="400.1" xlink:href="#font_Verdana_n0"/>
      <use fill="#000000" height="240.1" transform="matrix(0.2344, 0.0, 0.0, 0.2344, 235.35, 161.0)" width="400.1" xlink:href="#font_Verdana_d0"/>
      <use fill="#000000" height="240.1" transform="matrix(0.2344, 0.0, 0.0, 0.2344, 247.05, 161.0)" width="400.1" xlink:href="#font_Verdana_m0"/>
      <use fill="#000000" height="240.1" transform="matrix(0.2344, 0.0, 0.0, 0.2344, 258.7, 161.0)" width="400.1" xlink:href="#font_Verdana_o0"/>
      <use fill="#000000" height="240.1" transform="matrix(0.2344, 0.0, 0.0, 0.2344, 266.0, 161.0)" width="400.1" xlink:href="#font_Verdana_r0"/>
      <use fill="#000000" height="240.1" transform="matrix(0.2344, 0.0, 0.0, 0.2344, 271.1, 161.0)" width="400.1" xlink:href="#font_Verdana_e0"/>
      <use fill="#000000" height="240.1" transform="matrix(0.2344, 0.0, 0.0, 0.2344, 282.45, 161.0)" width="400.1" xlink:href="#font_Verdana_-0"/>
      <use fill="#000000" height="240.1" transform="matrix(0.2344, 0.0, 0.0, 0.2344, 292.1, 161.0)" width="400.1" xlink:href="#font_Verdana_t0"/>
      <use fill="#000000" height="240.1" transform="matrix(0.2344, 0.0, 0.0, 0.2344, 296.85, 161.0)" width="400.1" xlink:href="#font_Verdana_o0"/>
      <use fill="#000000" height="240.1" transform="matrix(0.2344, 0.0, 0.0, 0.2344, 308.35, 161.0)" width="400.1" xlink:href="#font_Verdana_k0"/>
      <use fill="#000000" height="240.1" transform="matrix(0.2344, 0.0, 0.0, 0.2344, 315.45, 161.0)" width="400.1" xlink:href="#font_Verdana_i0"/>
      <use fill="#000000" height="240.1" transform="matrix(0.2344, 0.0, 0.0, 0.2344, 318.75, 161.0)" width="400.1" xlink:href="#font_Verdana_c0"/>
      <use fill="#000000" height="240.1" transform="matrix(0.2344, 0.0, 0.0, 0.2344, 325.0, 161.0)" width="400.1" xlink:href="#font_Verdana_k0"/>
      <use fill="#000000" height="240.1" transform="matrix(0.2344, 0.0, 0.0, 0.2344, 336.3, 161.0)" width="400.1" xlink:href="#font_Verdana_t0"/>
      <use fill="#000000" height="240.1" transform="matrix(0.2344, 0.0, 0.0, 0.2344, 341.05, 161.0)" width="400.1" xlink:href="#font_Verdana_h0"/>
      <use fill="#000000" height="240.1" transform="matrix(0.2344, 0.0, 0.0, 0.2344, 348.65, 161.0)" width="400.1" xlink:href="#font_Verdana_e0"/>
      <use fill="#000000" height="240.1" transform="matrix(0.2344, 0.0, 0.0, 0.2344, 360.0, 161.0)" width="400.1" xlink:href="#font_Verdana_C0"/>
      <use fill="#000000" height="240.1" transform="matrix(0.2344, 0.0, 0.0, 0.2344, 368.4, 161.0)" width="400.1" xlink:href="#font_Verdana_o0"/>
      <use fill="#000000" height="240.1" transform="matrix(0.2344, 0.0, 0.0, 0.2344, 375.7, 161.0)" width="400.1" xlink:href="#font_Verdana_g0"/>
      <use fill="#000000" height="240.1" transform="matrix(0.2344, 0.0, 0.0, 0.2344, 383.2, 161.0)" width="400.1" xlink:href="#font_Verdana_s0"/>
    </g>
    <g transform="matrix(1.0, 0.0, 0.0, 1.0, 0.0, 0.0)">
      <use fill="#000000" height="240.1" transform="matrix(0.2344, 0.0, 0.0, 0.2344, 153.0, 177.0)" width="400.1" xlink:href="#font_Verdana_o0"/>
      <use fill="#000000" height="240.1" transform="matrix(0.2344, 0.0, 0.0, 0.2344, 160.3, 177.0)" width="400.1" xlink:href="#font_Verdana_u0"/>
      <use fill="#000000" height="240.1" transform="matrix(0.2344, 0.0, 0.0, 0.2344, 167.9, 177.0)" width="400.1" xlink:href="#font_Verdana_t0"/>
      <use fill="#000000" height="240.1" transform="matrix(0.2344, 0.0, 0.0, 0.2344, 172.65, 177.0)" width="400.1" xlink:href="#font_Verdana_t0"/>
      <use fill="#000000" height="240.1" transform="matrix(0.2344, 0.0, 0.0, 0.2344, 177.4, 177.0)" width="400.1" xlink:href="#font_Verdana_a0"/>
      <use fill="#000000" height="240.1" transform="matrix(0.2344, 0.0, 0.0, 0.2344, 188.8, 177.0)" width="400.1" xlink:href="#font_Verdana_T0"/>
      <use fill="#000000" height="240.1" transform="matrix(0.2344, 0.0, 0.0, 0.2344, 196.2, 177.0)" width="400.1" xlink:href="#font_Verdana_o0"/>
      <use fill="#000000" height="240.1" transform="matrix(0.2344, 0.0, 0.0, 0.2344, 203.5, 177.0)" width="400.1" xlink:href="#font_Verdana_o0"/>
      <use fill="#000000" height="240.1" transform="matrix(0.2344, 0.0, 0.0, 0.2344, 210.8, 177.0)" width="400.1" xlink:href="#font_Verdana_n0"/>
      <use fill="#000000" height="240.1" transform="matrix(0.2344, 0.0, 0.0, 0.2344, 218.4, 177.0)" width="400.1" xlink:href="#font_Verdana_t0"/>
      <use fill="#000000" height="240.1" transform="matrix(0.2344, 0.0, 0.0, 0.2344, 223.15, 177.0)" width="400.1" xlink:href="#font_Verdana_o0"/>
      <use fill="#000000" height="240.1" transform="matrix(0.2344, 0.0, 0.0, 0.2344, 230.45, 177.0)" width="400.1" xlink:href="#font_Verdana_w0"/>
      <use fill="#000000" height="240.1" transform="matrix(0.2344, 0.0, 0.0, 0.2344, 240.25, 177.0)" width="400.1" xlink:href="#font_Verdana_n0"/>
      <use fill="#000000" height="240.1" transform="matrix(0.2344, 0.0, 0.0, 0.2344, 247.85, 177.0)" width="400.1" xlink:href="#font_Verdana_.0"/>
    </g>
    <g transform="matrix(1.0, 0.0, 0.0, 1.0, 0.0, 0.0)">
      <use fill="#000000" height="240.1" transform="matrix(0.2344, 0.0, 0.0, 0.2344, 24.0, 210.0)" width="400.1" xlink:href="#font_Verdana_I0"/>
      <use fill="#000000" height="240.1" transform="matrix(0.2344, 0.0, 0.0, 0.2344, 29.05, 210.0)" width="400.1" xlink:href="#font_Verdana_t0"/>
      <use fill="#000000" height="240.1" transform="matrix(0.2344, 0.0, 0.0, 0.2344, 33.8, 210.0)" width="400.1" xlink:href="#font_Verdana__1"/>
      <use fill="#000000" height="240.1" transform="matrix(0.2344, 0.0, 0.0, 0.2344, 37.0, 210.0)" width="400.1" xlink:href="#font_Verdana_s0"/>
      <use fill="#000000" height="240.1" transform="matrix(0.2344, 0.0, 0.0, 0.2344, 47.45, 210.0)" width="400.1" xlink:href="#font_Verdana_a0"/>
      <use fill="#000000" height="240.1" transform="matrix(0.2344, 0.0, 0.0, 0.2344, 54.65, 210.0)" width="400.1" xlink:href="#font_Verdana_l0"/>
      <use fill="#000000" height="240.1" transform="matrix(0.2344, 0.0, 0.0, 0.2344, 57.95, 210.0)" width="400.1" xlink:href="#font_Verdana_l0"/>
      <use fill="#000000" height="240.1" transform="matrix(0.2344, 0.0, 0.0, 0.2344, 65.45, 210.0)" width="400.1" xlink:href="#font_Verdana_h0"/>
      <use fill="#000000" height="240.1" transform="matrix(0.2344, 0.0, 0.0, 0.2344, 73.05, 210.0)" width="400.1" xlink:href="#font_Verdana_a0"/>
      <use fill="#000000" height="240.1" transform="matrix(0.2344, 0.0, 0.0, 0.2344, 80.25, 210.0)" width="400.1" xlink:href="#font_Verdana_p0"/>
      <use fill="#000000" height="240.1" transform="matrix(0.2344, 0.0, 0.0, 0.2344, 87.75, 210.0)" width="400.1" xlink:href="#font_Verdana_p0"/>
      <use fill="#000000" height="240.1" transform="matrix(0.2344, 0.0, 0.0, 0.2344, 95.25, 210.0)" width="400.1" xlink:href="#font_Verdana_e0"/>
      <use fill="#000000" height="240.1" transform="matrix(0.2344, 0.0, 0.0, 0.2344, 102.4, 210.0)" width="400.1" xlink:href="#font_Verdana_n0"/>
      <use fill="#000000" height="240.1" transform="matrix(0.2344, 0.0, 0.0, 0.2344, 110.0, 210.0)" width="400.1" xlink:href="#font_Verdana_i0"/>
      <use fill="#000000" height="240.1" transform="matrix(0.2344, 0.0, 0.0, 0.2344, 113.3, 210.0)" width="400.1" xlink:href="#font_Verdana_n0"/>
      <use fill="#000000" height="240.1" transform="matrix(0.2344, 0.0, 0.0, 0.2344, 120.9, 210.0)" width="400.1" xlink:href="#font_Verdana_g0"/>
      <use fill="#000000" height="240.1" transform="matrix(0.2344, 0.0, 0.0, 0.2344, 132.6, 210.0)" width="400.1" xlink:href="#font_Verdana_r0"/>
      <use fill="#000000" height="240.1" transform="matrix(0.2344, 0.0, 0.0, 0.2344, 137.7, 210.0)" width="400.1" xlink:href="#font_Verdana_i0"/>
      <use fill="#000000" height="240.1" transform="matrix(0.2344, 0.0, 0.0, 0.2344, 141.0, 210.0)" width="400.1" xlink:href="#font_Verdana_g0"/>
      <use fill="#000000" height="240.1" transform="matrix(0.2344, 0.0, 0.0, 0.2344, 148.5, 210.0)" width="400.1" xlink:href="#font_Verdana_h0"/>
      <use fill="#000000" height="240.1" transform="matrix(0.2344, 0.0, 0.0, 0.2344, 156.1, 210.0)" width="400.1" xlink:href="#font_Verdana_t0"/>
      <use fill="#000000" height="240.1" transform="matrix(0.2344, 0.0, 0.0, 0.2344, 165.05, 210.0)" width="400.1" xlink:href="#font_Verdana_n0"/>
      <use fill="#000000" height="240.1" transform="matrix(0.2344, 0.0, 0.0, 0.2344, 172.65, 210.0)" width="400.1" xlink:href="#font_Verdana_o0"/>
      <use fill="#000000" height="240.1" transform="matrix(0.2344, 0.0, 0.0, 0.2344, 179.95, 210.0)" width="400.1" xlink:href="#font_Verdana_w0"/>
      <use fill="#000000" height="240.1" transform="matrix(0.2344, 0.0, 0.0, 0.2344, 193.95, 210.0)" width="400.1" xlink:href="#font_Verdana_a0"/>
      <use fill="#000000" height="240.1" transform="matrix(0.2344, 0.0, 0.0, 0.2344, 201.15, 210.0)" width="400.1" xlink:href="#font_Verdana_n0"/>
      <use fill="#000000" height="240.1" transform="matrix(0.2344, 0.0, 0.0, 0.2344, 208.75, 210.0)" width="400.1" xlink:href="#font_Verdana_d0"/>
      <use fill="#000000" height="240.1" transform="matrix(0.2344, 0.0, 0.0, 0.2344, 220.45, 210.0)" width="400.1" xlink:href="#font_Verdana_w0"/>
      <use fill="#000000" height="240.1" transform="matrix(0.2344, 0.0, 0.0, 0.2344, 230.25, 210.0)" width="400.1" xlink:href="#font_Verdana_e0"/>
      <use fill="#000000" height="240.1" transform="matrix(0.2344, 0.0, 0.0, 0.2344, 241.6, 210.0)" width="400.1" xlink:href="#font_Verdana_n0"/>
      <use fill="#000000" height="240.1" transform="matrix(0.2344, 0.0, 0.0, 0.2344, 249.2, 210.0)" width="400.1" xlink:href="#font_Verdana_e0"/>
      <use fill="#000000" height="240.1" transform="matrix(0.2344, 0.0, 0.0, 0.2344, 256.35, 210.0)" width="400.1" xlink:href="#font_Verdana_e0"/>
      <use fill="#000000" height="240.1" transform="matrix(0.2344, 0.0, 0.0, 0.2344, 263.5, 210.0)" width="400.1" xlink:href="#font_Verdana_d0"/>
      <use fill="#000000" height="240.1" transform="matrix(0.2344, 0.0, 0.0, 0.2344, 275.2, 210.0)" width="400.1" xlink:href="#font_Verdana_y0"/>
      <use fill="#000000" height="240.1" transform="matrix(0.2344, 0.0, 0.0, 0.2344, 282.3, 210.0)" width="400.1" xlink:href="#font_Verdana_o0"/>
      <use fill="#000000" height="240.1" transform="matrix(0.2344, 0.0, 0.0, 0.2344, 289.6, 210.0)" width="400.1" xlink:href="#font_Verdana_u0"/>
      <use fill="#000000" height="240.1" transform="matrix(0.2344, 0.0, 0.0, 0.2344, 297.2, 210.0)" width="400.1" xlink:href="#font_Verdana_r0"/>
      <use fill="#000000" height="240.1" transform="matrix(0.2344, 0.0, 0.0, 0.2344, 306.5, 210.0)" width="400.1" xlink:href="#font_Verdana_h0"/>
      <use fill="#000000" height="240.1" transform="matrix(0.2344, 0.0, 0.0, 0.2344, 314.1, 210.0)" width="400.1" xlink:href="#font_Verdana_e0"/>
      <use fill="#000000" height="240.1" transform="matrix(0.2344, 0.0, 0.0, 0.2344, 321.25, 210.0)" width="400.1" xlink:href="#font_Verdana_l0"/>
      <use fill="#000000" height="240.1" transform="matrix(0.2344, 0.0, 0.0, 0.2344, 324.55, 210.0)" width="400.1" xlink:href="#font_Verdana_p0"/>
      <use fill="#000000" height="240.1" transform="matrix(0.2344, 0.0, 0.0, 0.2344, 336.25, 210.0)" width="400.1" xlink:href="#font_Verdana_t0"/>
      <use fill="#000000" height="240.1" transform="matrix(0.2344, 0.0, 0.0, 0.2344, 341.0, 210.0)" width="400.1" xlink:href="#font_Verdana_o0"/>
      <use fill="#000000" height="240.1" transform="matrix(0.2344, 0.0, 0.0, 0.2344, 352.5, 210.0)" width="400.1" xlink:href="#font_Verdana_s0"/>
      <use fill="#000000" height="240.1" transform="matrix(0.2344, 0.0, 0.0, 0.2344, 358.75, 210.0)" width="400.1" xlink:href="#font_Verdana_a0"/>
      <use fill="#000000" height="240.1" transform="matrix(0.2344, 0.0, 0.0, 0.2344, 365.95, 210.0)" width="400.1" xlink:href="#font_Verdana_v0"/>
      <use fill="#000000" height="240.1" transform="matrix(0.2344, 0.0, 0.0, 0.2344, 373.05, 210.0)" width="400.1" xlink:href="#font_Verdana_e0"/>
    </g>
    <g transform="matrix(1.0, 0.0, 0.0, 1.0, 0.0, 0.0)">
      <use fill="#000000" height="240.1" transform="matrix(0.2344, 0.0, 0.0, 0.2344, 31.0, 227.0)" width="400.1" xlink:href="#font_Verdana_T0"/>
      <use fill="#000000" height="240.1" transform="matrix(0.2344, 0.0, 0.0, 0.2344, 38.4, 227.0)" width="400.1" xlink:href="#font_Verdana_o0"/>
      <use fill="#000000" height="240.1" transform="matrix(0.2344, 0.0, 0.0, 0.2344, 45.7, 227.0)" width="400.1" xlink:href="#font_Verdana_o0"/>
      <use fill="#000000" height="240.1" transform="matrix(0.2344, 0.0, 0.0, 0.2344, 53.0, 227.0)" width="400.1" xlink:href="#font_Verdana_n0"/>
      <use fill="#000000" height="240.1" transform="matrix(0.2344, 0.0, 0.0, 0.2344, 60.6, 227.0)" width="400.1" xlink:href="#font_Verdana_t0"/>
      <use fill="#000000" height="240.1" transform="matrix(0.2344, 0.0, 0.0, 0.2344, 65.35, 227.0)" width="400.1" xlink:href="#font_Verdana_o0"/>
      <use fill="#000000" height="240.1" transform="matrix(0.2344, 0.0, 0.0, 0.2344, 72.65, 227.0)" width="400.1" xlink:href="#font_Verdana_w0"/>
      <use fill="#000000" height="240.1" transform="matrix(0.2344, 0.0, 0.0, 0.2344, 82.45, 227.0)" width="400.1" xlink:href="#font_Verdana_n0"/>
      <use fill="#000000" height="240.1" transform="matrix(0.2344, 0.0, 0.0, 0.2344, 90.05, 227.0)" width="400.1" xlink:href="#font_Verdana_.0"/>
      <use fill="#000000" height="240.1" transform="matrix(0.2344, 0.0, 0.0, 0.2344, 98.6, 227.0)" width="400.1" xlink:href="#font_Verdana_C0"/>
      <use fill="#000000" height="240.1" transform="matrix(0.2344, 0.0, 0.0, 0.2344, 107.0, 227.0)" width="400.1" xlink:href="#font_Verdana_o0"/>
      <use fill="#000000" height="240.1" transform="matrix(0.2344, 0.0, 0.0, 0.2344, 114.3, 227.0)" width="400.1" xlink:href="#font_Verdana_m0"/>
      <use fill="#000000" height="240.1" transform="matrix(0.2344, 0.0, 0.0, 0.2344, 125.95, 227.0)" width="400.1" xlink:href="#font_Verdana_e0"/>
      <use fill="#000000" height="240.1" transform="matrix(0.2344, 0.0, 0.0, 0.2344, 137.3, 227.0)" width="400.1" xlink:href="#font_Verdana_o0"/>
      <use fill="#000000" height="240.1" transform="matrix(0.2344, 0.0, 0.0, 0.2344, 144.6, 227.0)" width="400.1" xlink:href="#font_Verdana_n0"/>
      <use fill="#000000" height="240.1" transform="matrix(0.2344, 0.0, 0.0, 0.2344, 156.4, 227.0)" width="400.1" xlink:href="#font_Verdana_a0"/>
      <use fill="#000000" height="240.1" transform="matrix(0.2344, 0.0, 0.0, 0.2344, 163.6, 227.0)" width="400.1" xlink:href="#font_Verdana_n0"/>
      <use fill="#000000" height="240.1" transform="matrix(0.2344, 0.0, 0.0, 0.2344, 171.2, 227.0)" width="400.1" xlink:href="#font_Verdana_d0"/>
      <use fill="#000000" height="240.1" transform="matrix(0.2344, 0.0, 0.0, 0.2344, 182.9, 227.0)" width="400.1" xlink:href="#font_Verdana_j0"/>
      <use fill="#000000" height="240.1" transform="matrix(0.2344, 0.0, 0.0, 0.2344, 187.05, 227.0)" width="400.1" xlink:href="#font_Verdana_o0"/>
      <use fill="#000000" height="240.1" transform="matrix(0.2344, 0.0, 0.0, 0.2344, 194.35, 227.0)" width="400.1" xlink:href="#font_Verdana_i0"/>
      <use fill="#000000" height="240.1" transform="matrix(0.2344, 0.0, 0.0, 0.2344, 197.65, 227.0)" width="400.1" xlink:href="#font_Verdana_n0"/>
      <use fill="#000000" height="240.1" transform="matrix(0.2344, 0.0, 0.0, 0.2344, 209.45, 227.0)" width="400.1" xlink:href="#font_Verdana_u0"/>
      <use fill="#000000" height="240.1" transform="matrix(0.2344, 0.0, 0.0, 0.2344, 217.05, 227.0)" width="400.1" xlink:href="#font_Verdana_s0"/>
      <use fill="#000000" height="240.1" transform="matrix(0.2344, 0.0, 0.0, 0.2344, 223.3, 227.0)" width="400.1" xlink:href="#font_Verdana__4"/>
      <use fill="#000000" height="240.1" transform="matrix(0.2344, 0.0, 0.0, 0.2344, 237.3, 227.0)" width="400.1" xlink:href="#font_Verdana_A0"/>
      <use fill="#000000" height="240.1" transform="matrix(0.2344, 0.0, 0.0, 0.2344, 245.5, 227.0)" width="400.1" xlink:href="#font_Verdana_r0"/>
      <use fill="#000000" height="240.1" transform="matrix(0.2344, 0.0, 0.0, 0.2344, 250.6, 227.0)" width="400.1" xlink:href="#font_Verdana_e0"/>
      <use fill="#000000" height="240.1" transform="matrix(0.2344, 0.0, 0.0, 0.2344, 261.95, 227.0)" width="400.1" xlink:href="#font_Verdana_Y0"/>
      <use fill="#000000" height="240.1" transform="matrix(0.2344, 0.0, 0.0, 0.2344, 269.35, 227.0)" width="400.1" xlink:href="#font_Verdana_o0"/>
      <use fill="#000000" height="240.1" transform="matrix(0.2344, 0.0, 0.0, 0.2344, 276.65, 227.0)" width="400.1" xlink:href="#font_Verdana_u0"/>
      <use fill="#000000" height="240.1" transform="matrix(0.2344, 0.0, 0.0, 0.2344, 288.45, 227.0)" width="400.1" xlink:href="#font_Verdana_T0"/>
      <use fill="#000000" height="240.1" transform="matrix(0.2344, 0.0, 0.0, 0.2344, 295.85, 227.0)" width="400.1" xlink:href="#font_Verdana_o0"/>
      <use fill="#000000" height="240.1" transform="matrix(0.2344, 0.0, 0.0, 0.2344, 303.15, 227.0)" width="400.1" xlink:href="#font_Verdana_o0"/>
      <use fill="#000000" height="240.1" transform="matrix(0.2344, 0.0, 0.0, 0.2344, 310.45, 227.0)" width="400.1" xlink:href="#font_Verdana_n0"/>
      <use fill="#000000" height="240.1" transform="matrix(0.2344, 0.0, 0.0, 0.2344, 322.25, 227.0)" width="400.1" xlink:href="#font_Verdana_E0"/>
      <use fill="#000000" height="240.1" transform="matrix(0.2344, 0.0, 0.0, 0.2344, 329.85, 227.0)" width="400.1" xlink:href="#font_Verdana_n0"/>
      <use fill="#000000" height="240.1" transform="matrix(0.2344, 0.0, 0.0, 0.2344, 337.45, 227.0)" width="400.1" xlink:href="#font_Verdana_o0"/>
      <use fill="#000000" height="240.1" transform="matrix(0.2344, 0.0, 0.0, 0.2344, 344.75, 227.0)" width="400.1" xlink:href="#font_Verdana_u0"/>
      <use fill="#000000" height="240.1" transform="matrix(0.2344, 0.0, 0.0, 0.2344, 352.35, 227.0)" width="400.1" xlink:href="#font_Verdana_g0"/>
      <use fill="#000000" height="240.1" transform="matrix(0.2344, 0.0, 0.0, 0.2344, 359.85, 227.0)" width="400.1" xlink:href="#font_Verdana_h0"/>
      <use fill="#000000" height="240.1" transform="matrix(0.2344, 0.0, 0.0, 0.2344, 367.45, 227.0)" width="400.1" xlink:href="#font_Verdana__3"/>
    </g>
  </g>
  <defs>
    <g id="font_Verdana_T0">
      <path d="M31.55 -32.8 L31.55 -37.2 0.0 -37.2 0.0 -32.8 13.3 -32.8 13.3 0.0 18.25 0.0 18.25 -32.8 31.55 -32.8" fill-rule="evenodd" stroke="none"/>
    </g>
    <g id="font_Verdana_o0">
      <path d="M23.6 -13.95 L23.6 -13.95 Q23.6 -8.65 21.45 -5.95 19.3 -3.25 15.55 -3.25 11.75 -3.25 9.65 -5.95 7.5 -8.7 7.5 -13.95 7.5 -19.35 9.65 -22.0 11.75 -24.65 15.55 -24.65 19.35 -24.65 21.45 -22.0 23.6 -19.35 23.6 -13.95 M28.45 -13.95 L28.45 -13.95 Q28.45 -20.75 24.95 -24.7 21.45 -28.7 15.55 -28.7 9.65 -28.7 6.15 -24.7 2.65 -20.75 2.65 -13.95 2.65 -7.1 6.15 -3.15 9.65 0.8 15.55 0.8 21.45 0.8 24.95 -3.15 28.45 -7.1 28.45 -13.95" fill-rule="evenodd" stroke="none"/>
    </g>
    <g id="font_Verdana_n0">
      <path d="M28.0 0.0 L28.0 -18.1 Q28.0 -23.25 25.6 -25.95 23.25 -28.7 18.7 -28.7 16.25 -28.7 13.9 -27.65 11.55 -26.65 9.35 -24.8 L9.35 -27.9 4.65 -27.9 4.65 0.0 9.35 0.0 9.35 -20.85 13.35 -23.25 Q15.45 -24.2 17.4 -24.2 L20.45 -23.7 Q21.6 -23.2 22.25 -22.15 22.85 -21.2 23.05 -19.5 L23.3 -15.9 23.3 0.0 28.0 0.0" fill-rule="evenodd" stroke="none"/>
    </g>
    <g id="font_Verdana_t0">
      <path d="M19.15 -0.25 L19.15 -4.45 18.9 -4.45 17.1 -3.9 14.7 -3.55 Q12.7 -3.55 11.75 -4.0 10.8 -4.5 10.25 -5.5 9.65 -6.55 9.55 -7.8 L9.45 -11.25 9.45 -23.95 19.15 -23.95 19.15 -27.9 9.45 -27.9 9.45 -35.95 4.75 -35.95 4.75 -27.9 1.55 -27.9 1.55 -23.95 4.75 -23.95 4.75 -9.1 Q4.75 -4.05 6.95 -1.75 9.2 0.55 13.45 0.55 L16.25 0.35 19.15 -0.25" fill-rule="evenodd" stroke="none"/>
    </g>
    <g id="font_Verdana_w0">
      <path d="M39.75 -27.9 L35.05 -27.9 30.2 -6.3 23.05 -27.9 19.15 -27.9 12.2 -6.3 7.05 -27.9 2.15 -27.9 9.5 0.0 13.85 0.0 20.95 -21.5 28.15 0.0 32.5 0.0 39.75 -27.9" fill-rule="evenodd" stroke="none"/>
    </g>
    <g id="font_Verdana_i0">
      <path d="M9.4 0.0 L9.4 -27.9 4.7 -27.9 4.7 0.0 9.4 0.0 M9.7 -32.6 L9.7 -37.45 4.4 -37.45 4.4 -32.6 9.7 -32.6" fill-rule="evenodd" stroke="none"/>
    </g>
    <g id="font_Verdana_s0">
      <path d="M24.6 -8.05 L24.6 -8.05 Q24.6 -11.1 22.8 -12.95 21.05 -14.75 17.75 -15.5 L15.1 -16.05 12.15 -16.65 Q9.8 -17.2 8.75 -18.1 7.7 -18.95 7.7 -20.7 7.7 -22.65 9.45 -23.6 11.25 -24.6 13.8 -24.6 16.3 -24.6 18.85 -23.7 21.45 -22.8 23.25 -21.45 L23.5 -21.45 23.5 -26.5 Q21.8 -27.35 19.25 -27.95 L14.15 -28.6 9.35 -27.9 Q7.15 -27.2 5.75 -26.05 4.3 -24.85 3.6 -23.3 2.9 -21.8 2.9 -20.05 2.9 -17.3 4.45 -15.4 5.95 -13.55 9.65 -12.55 L12.6 -11.9 15.2 -11.4 Q17.9 -10.8 18.85 -9.95 19.8 -9.1 19.8 -7.45 19.8 -5.3 18.05 -4.3 16.3 -3.3 13.2 -3.3 10.7 -3.3 7.95 -4.25 5.25 -5.25 3.0 -6.95 L2.75 -6.95 2.75 -1.65 Q4.5 -0.8 7.1 -0.05 9.7 0.7 12.8 0.7 18.25 0.7 21.45 -1.75 24.6 -4.2 24.6 -8.05" fill-rule="evenodd" stroke="none"/>
    </g>
    <g id="font_Verdana__1">
      <path d="M9.65 -38.9 L4.1 -38.9 5.2 -24.4 8.6 -24.4 9.65 -38.9" fill-rule="evenodd" stroke="none"/>
    </g>
    <g id="font_Verdana_l0">
      <path d="M9.4 0.0 L9.4 -38.9 4.7 -38.9 4.7 0.0 9.4 0.0" fill-rule="evenodd" stroke="none"/>
    </g>
    <g id="font_Verdana_k0">
      <path d="M30.0 0.0 L16.05 -15.0 29.05 -27.9 23.1 -27.9 9.55 -13.95 9.55 -38.9 4.85 -38.9 4.85 0.0 9.55 0.0 9.55 -9.3 12.6 -12.2 23.8 0.0 30.0 0.0" fill-rule="evenodd" stroke="none"/>
    </g>
    <g id="font_Verdana_e0">
      <path d="M23.45 -17.05 L7.45 -17.05 Q7.75 -20.35 10.0 -22.6 12.2 -24.8 16.0 -24.8 19.75 -24.8 21.6 -22.8 23.4 -20.75 23.45 -17.05 M28.0 -13.45 L28.0 -16.0 Q28.0 -22.1 24.95 -25.4 21.9 -28.7 16.25 -28.7 10.15 -28.7 6.4 -24.65 2.65 -20.65 2.65 -13.8 2.65 -6.85 6.55 -3.1 10.45 0.65 17.4 0.65 L22.6 0.0 Q25.1 -0.7 27.45 -1.7 L27.45 -6.8 27.2 -6.8 Q26.0 -5.7 23.1 -4.55 20.2 -3.45 17.35 -3.45 L13.45 -4.05 Q11.65 -4.65 10.35 -5.85 9.0 -7.05 8.2 -8.95 7.45 -10.9 7.45 -13.45 L28.0 -13.45" fill-rule="evenodd" stroke="none"/>
    </g>
    <g id="font_Verdana_a0">
      <path d="M21.65 -6.85 L21.65 -6.85 17.85 -4.55 Q15.8 -3.6 13.35 -3.6 10.35 -3.6 8.9 -4.8 7.45 -6.0 7.45 -8.4 7.45 -10.55 8.7 -11.75 9.95 -12.95 12.0 -13.55 L16.6 -14.25 21.65 -14.65 21.65 -6.85 M26.35 0.0 L26.35 -18.95 Q26.35 -21.65 25.5 -23.45 24.7 -25.3 23.1 -26.45 21.5 -27.6 19.35 -28.1 L14.2 -28.6 9.05 -28.15 5.1 -27.3 5.1 -22.55 5.35 -22.55 Q7.75 -23.45 10.05 -23.95 L14.15 -24.45 17.1 -24.25 Q18.5 -24.05 19.5 -23.45 20.55 -22.85 21.1 -21.8 21.65 -20.75 21.65 -19.15 L21.65 -18.45 14.0 -17.85 Q10.4 -17.45 7.85 -16.3 5.35 -15.2 4.0 -13.2 2.6 -11.25 2.6 -8.1 2.6 -4.2 5.25 -1.7 7.85 0.8 11.65 0.8 L15.2 0.4 Q16.75 0.0 17.9 -0.55 L20.0 -1.75 21.65 -2.95 21.65 0.0 26.35 0.0" fill-rule="evenodd" stroke="none"/>
    </g>
    <g id="font_Verdana_y0">
      <path d="M28.8 -27.9 L23.85 -27.9 15.2 -7.2 6.65 -27.9 1.55 -27.9 12.65 -1.35 7.45 10.3 12.5 10.3 28.8 -27.9" fill-rule="evenodd" stroke="none"/>
    </g>
    <g id="font_Verdana_g0">
      <path d="M22.6 -7.65 L22.6 -7.65 Q20.85 -6.35 18.8 -5.55 16.75 -4.75 14.7 -4.75 10.85 -4.75 9.2 -7.2 7.55 -9.6 7.55 -14.3 7.55 -19.25 9.8 -21.85 12.0 -24.45 15.9 -24.45 L19.1 -24.1 Q20.7 -23.75 22.6 -22.9 L22.6 -7.65 M27.3 -3.15 L27.3 -27.9 22.9 -27.9 22.6 -26.7 19.15 -28.2 15.05 -28.7 Q12.75 -28.7 10.45 -27.7 8.1 -26.7 6.5 -24.95 4.75 -23.05 3.75 -20.4 2.7 -17.8 2.7 -14.2 2.7 -7.65 5.65 -4.0 8.6 -0.4 13.6 -0.4 16.6 -0.4 18.55 -1.25 L22.6 -3.8 22.6 -1.25 Q22.6 0.45 22.2 1.85 21.85 3.2 20.95 4.2 20.1 5.2 18.5 5.8 L14.55 6.35 9.55 5.7 Q7.05 5.05 5.9 4.6 L5.65 4.6 5.65 9.4 9.8 10.3 14.15 10.6 Q20.85 10.6 24.05 7.25 27.3 3.95 27.3 -3.15" fill-rule="evenodd" stroke="none"/>
    </g>
    <g id="font_Verdana_m0">
      <path d="M45.4 0.0 L45.4 -18.1 Q45.4 -23.1 43.2 -25.9 41.0 -28.7 36.4 -28.7 33.75 -28.7 31.4 -27.6 29.05 -26.55 26.2 -24.15 25.2 -26.3 23.25 -27.5 21.25 -28.7 18.4 -28.7 15.9 -28.7 13.75 -27.65 11.55 -26.65 9.35 -24.8 L9.35 -27.9 4.65 -27.9 4.65 0.0 9.35 0.0 9.35 -20.85 Q11.25 -22.3 13.2 -23.25 15.15 -24.2 17.05 -24.2 19.1 -24.2 20.15 -23.65 21.25 -23.15 21.8 -22.05 22.35 -21.05 22.5 -19.4 L22.65 -15.9 22.65 0.0 27.35 0.0 27.35 -17.85 27.3 -19.35 27.2 -20.7 Q29.15 -22.25 31.15 -23.2 33.1 -24.2 35.1 -24.2 L38.2 -23.65 Q39.25 -23.1 39.85 -22.05 40.35 -21.05 40.55 -19.35 L40.7 -15.9 40.7 0.0 45.4 0.0" fill-rule="evenodd" stroke="none"/>
    </g>
    <g id="font_Verdana_u0">
      <path d="M27.8 0.0 L27.8 -27.9 23.1 -27.9 23.1 -7.05 Q21.2 -5.6 19.05 -4.65 16.9 -3.7 15.05 -3.7 13.0 -3.7 11.95 -4.2 10.85 -4.7 10.2 -5.8 9.55 -6.85 9.35 -8.35 L9.15 -12.0 9.15 -27.9 4.45 -27.9 4.45 -9.8 Q4.45 -4.6 6.9 -1.9 9.35 0.8 13.75 0.8 16.35 0.8 18.55 -0.2 20.7 -1.2 23.1 -3.1 L23.1 0.0 27.8 0.0" fill-rule="evenodd" stroke="none"/>
    </g>
    <g id="font_Verdana_v0">
      <path d="M28.8 -27.9 L23.85 -27.9 15.3 -5.7 6.65 -27.9 1.55 -27.9 12.75 0.0 17.5 0.0 28.8 -27.9" fill-rule="evenodd" stroke="none"/>
    </g>
    <g id="font_Verdana_r0">
      <path d="M22.05 -22.8 L22.05 -27.6 20.4 -27.85 18.65 -27.9 Q16.4 -27.9 14.3 -26.95 12.15 -26.05 9.35 -23.8 L9.35 -27.9 4.65 -27.9 4.65 0.0 9.35 0.0 9.35 -19.8 Q11.2 -21.35 13.25 -22.3 15.25 -23.25 17.45 -23.25 L19.8 -23.15 21.8 -22.8 22.05 -22.8" fill-rule="evenodd" stroke="none"/>
    </g>
    <g id="font_Verdana_p0">
      <path d="M24.35 -14.15 L24.35 -14.15 Q24.35 -8.95 22.15 -6.3 19.95 -3.65 16.05 -3.65 L12.8 -4.0 Q11.35 -4.3 9.35 -5.2 L9.35 -21.05 13.25 -23.35 Q15.3 -24.2 17.35 -24.2 20.9 -24.2 22.65 -21.7 24.35 -19.2 24.35 -14.15 M29.2 -14.3 L29.2 -14.3 Q29.2 -21.05 26.4 -24.85 23.6 -28.7 18.55 -28.7 15.9 -28.7 13.55 -27.6 11.2 -26.55 9.35 -25.0 L9.35 -27.9 4.65 -27.9 4.65 10.3 9.35 10.3 9.35 -1.4 Q11.15 -0.4 12.95 0.1 L16.85 0.55 Q19.35 0.55 21.6 -0.45 23.85 -1.45 25.5 -3.3 27.25 -5.25 28.25 -8.05 29.2 -10.9 29.2 -14.3" fill-rule="evenodd" stroke="none"/>
    </g>
    <g id="font_Verdana_d0">
      <path d="M22.6 -6.85 L22.6 -6.85 Q20.8 -5.45 18.75 -4.55 16.7 -3.7 14.7 -3.7 10.95 -3.7 9.25 -6.25 7.55 -8.85 7.55 -13.85 7.55 -18.9 9.75 -21.65 11.95 -24.4 15.9 -24.4 L19.2 -24.05 22.6 -22.9 22.6 -6.85 M27.3 0.0 L27.3 -38.9 22.6 -38.9 22.6 -26.8 Q20.7 -27.75 19.0 -28.2 L15.1 -28.7 Q12.7 -28.7 10.45 -27.7 8.15 -26.7 6.45 -24.8 4.75 -22.85 3.75 -20.05 2.7 -17.3 2.7 -13.75 2.7 -6.9 5.65 -3.05 8.6 0.8 13.6 0.8 16.15 0.8 18.35 -0.2 20.55 -1.15 22.6 -2.9 L22.6 0.0 27.3 0.0" fill-rule="evenodd" stroke="none"/>
    </g>
    <g id="font_Verdana_.0">
      <path d="M12.3 0.0 L12.3 -7.1 6.35 -7.1 6.35 0.0 12.3 0.0" fill-rule="evenodd" stroke="none"/>
    </g>
    <g id="font_Verdana_F0">
      <path d="M28.8 -32.8 L28.8 -37.2 5.0 -37.2 5.0 0.0 9.95 0.0 9.95 -17.9 26.15 -17.9 26.15 -22.3 9.95 -22.3 9.95 -32.8 28.8 -32.8" fill-rule="evenodd" stroke="none"/>
    </g>
    <g id="font_Verdana__2">
      <path d="M14.4 -7.1 L8.05 -7.1 3.7 9.25 7.35 9.25 14.4 -7.1" fill-rule="evenodd" stroke="none"/>
    </g>
    <g id="font_Verdana_f0">
      <path d="M19.65 -34.35 L19.65 -38.65 17.35 -39.0 14.5 -39.15 Q9.85 -39.15 7.35 -36.45 4.9 -33.8 4.9 -28.85 L4.9 -27.9 1.7 -27.9 1.7 -23.95 4.9 -23.95 4.9 0.0 9.6 0.0 9.6 -23.95 17.9 -23.95 17.9 -27.9 9.45 -27.9 9.45 -28.85 Q9.45 -32.35 10.8 -33.7 12.15 -35.05 15.2 -35.05 L17.4 -34.8 19.4 -34.35 19.65 -34.35" fill-rule="evenodd" stroke="none"/>
    </g>
    <g id="font_Verdana_h0">
      <path d="M28.0 0.0 L28.0 -18.1 Q28.0 -23.25 25.6 -25.95 23.25 -28.7 18.7 -28.7 16.25 -28.7 13.9 -27.65 11.55 -26.65 9.35 -24.8 L9.35 -38.9 4.65 -38.9 4.65 0.0 9.35 0.0 9.35 -20.85 13.35 -23.25 Q15.45 -24.2 17.4 -24.2 L20.45 -23.7 Q21.6 -23.2 22.25 -22.15 22.85 -21.2 23.05 -19.5 L23.3 -15.9 23.3 0.0 28.0 0.0" fill-rule="evenodd" stroke="none"/>
    </g>
    <g id="font_Verdana_U0">
      <path d="M33.05 -14.95 L33.05 -37.2 28.1 -37.2 28.1 -14.55 Q28.1 -11.85 27.7 -10.0 27.25 -8.15 26.3 -6.75 25.15 -5.1 23.3 -4.25 21.4 -3.45 18.75 -3.45 16.1 -3.45 14.2 -4.3 12.3 -5.1 11.2 -6.75 10.25 -8.15 9.85 -9.9 9.4 -11.65 9.4 -14.7 L9.4 -37.2 4.45 -37.2 4.45 -14.95 Q4.45 -10.7 5.35 -7.8 6.25 -4.9 8.25 -2.85 10.05 -1.05 12.65 -0.15 15.25 0.8 18.75 0.8 22.15 0.8 24.75 -0.1 27.3 -0.95 29.25 -2.85 31.25 -4.85 32.15 -7.85 33.05 -10.9 33.05 -14.95" fill-rule="evenodd" stroke="none"/>
    </g>
    <g id="font_Verdana_K0">
      <path d="M34.95 0.0 L17.55 -19.7 34.15 -37.2 28.15 -37.2 10.1 -17.8 10.1 -37.2 5.15 -37.2 5.15 0.0 10.1 0.0 10.1 -12.6 13.8 -16.55 28.5 0.0 34.95 0.0" fill-rule="evenodd" stroke="none"/>
    </g>
    <g id="font_Verdana_Y0">
      <path d="M31.35 -37.2 L26.1 -37.2 15.8 -20.55 5.65 -37.2 0.15 -37.2 13.3 -15.8 13.3 0.0 18.25 0.0 18.25 -16.3 31.35 -37.2" fill-rule="evenodd" stroke="none"/>
    </g>
    <g id="font_Verdana_c0">
      <path d="M25.3 -1.75 L25.3 -6.9 25.05 -6.9 23.6 -5.9 21.7 -4.8 19.05 -3.8 16.15 -3.45 Q12.05 -3.45 9.8 -6.15 7.5 -8.85 7.5 -13.9 7.5 -19.1 9.85 -21.8 12.15 -24.5 16.15 -24.5 18.3 -24.5 20.6 -23.6 22.9 -22.7 25.05 -21.0 L25.3 -21.0 25.3 -26.25 21.05 -27.9 16.35 -28.55 Q10.15 -28.55 6.4 -24.65 2.65 -20.75 2.65 -13.9 2.65 -10.25 3.65 -7.5 4.65 -4.75 6.45 -2.95 8.25 -1.15 10.8 -0.25 13.3 0.65 16.35 0.65 L20.85 0.0 Q22.95 -0.6 25.3 -1.75" fill-rule="evenodd" stroke="none"/>
    </g>
    <g id="font_Verdana_z0">
      <path d="M24.9 0.0 L24.9 -3.95 8.1 -3.95 24.45 -24.55 24.45 -27.9 2.7 -27.9 2.7 -24.0 18.6 -24.0 2.35 -3.45 2.35 0.0 24.9 0.0" fill-rule="evenodd" stroke="none"/>
    </g>
    <g id="font_Verdana_x0">
      <path d="M28.8 0.0 L17.85 -14.15 28.8 -27.9 23.3 -27.9 15.4 -17.35 7.55 -27.9 1.6 -27.9 12.4 -13.9 1.5 0.0 7.0 0.0 14.95 -10.7 22.9 0.0 28.8 0.0" fill-rule="evenodd" stroke="none"/>
    </g>
    <g id="font_Verdana_b0">
      <path d="M24.35 -14.05 L24.35 -14.05 Q24.35 -8.55 22.15 -6.0 19.95 -3.45 16.05 -3.45 L12.8 -3.8 Q11.35 -4.15 9.35 -5.05 L9.35 -21.05 Q11.15 -22.45 13.25 -23.3 15.35 -24.2 17.4 -24.2 21.05 -24.2 22.7 -21.6 24.35 -19.05 24.35 -14.05 M29.2 -14.15 L29.2 -14.15 Q29.2 -21.1 26.35 -24.9 23.5 -28.7 18.55 -28.7 15.75 -28.7 13.55 -27.65 11.3 -26.6 9.35 -25.0 L9.35 -38.9 4.65 -38.9 4.65 0.0 9.05 0.0 9.35 -1.3 Q11.05 -0.35 12.85 0.25 L17.0 0.8 Q19.55 0.8 21.65 -0.2 23.8 -1.2 25.55 -3.15 27.25 -5.05 28.25 -7.85 29.2 -10.65 29.2 -14.15" fill-rule="evenodd" stroke="none"/>
    </g>
    <g id="font_Verdana_B0">
      <path d="M27.95 -11.25 L27.95 -11.25 Q27.95 -9.25 27.3 -8.0 26.65 -6.75 25.25 -5.8 23.9 -4.9 21.85 -4.55 L16.5 -4.2 9.95 -4.2 9.95 -18.05 17.75 -18.05 21.9 -17.85 Q23.6 -17.7 24.8 -17.05 26.6 -16.15 27.25 -14.8 27.95 -13.5 27.95 -11.25 M24.75 -28.2 L24.75 -28.2 Q24.75 -26.6 24.3 -25.4 23.8 -24.2 22.6 -23.45 21.45 -22.7 20.05 -22.45 L16.35 -22.25 9.95 -22.25 9.95 -33.0 15.85 -33.0 20.0 -32.8 Q21.7 -32.65 22.85 -32.0 23.85 -31.4 24.3 -30.5 24.75 -29.55 24.75 -28.2 M33.1 -11.45 L33.1 -11.45 Q33.1 -15.3 30.9 -17.85 28.75 -20.4 24.95 -21.15 L24.95 -21.35 Q27.2 -22.5 28.55 -24.35 29.9 -26.2 29.9 -28.85 29.9 -31.2 29.0 -32.9 28.05 -34.6 26.0 -35.65 24.15 -36.6 22.15 -36.9 L16.05 -37.2 5.0 -37.2 5.0 0.0 18.2 0.0 Q22.1 0.0 24.6 -0.7 27.1 -1.4 29.2 -3.05 31.0 -4.4 32.05 -6.55 33.1 -8.65 33.1 -11.45" fill-rule="evenodd" stroke="none"/>
    </g>
    <g id="font_Verdana_C0">
      <path d="M33.75 -2.7 L33.75 -8.5 33.4 -8.5 Q30.7 -6.05 27.55 -4.8 24.45 -3.6 20.85 -3.6 18.25 -3.6 15.95 -4.45 13.6 -5.35 11.85 -7.2 10.15 -9.0 9.1 -11.8 8.05 -14.65 8.05 -18.55 8.05 -22.3 9.0 -25.15 9.95 -28.05 11.7 -29.9 13.45 -31.85 15.75 -32.75 18.0 -33.65 20.8 -33.65 24.25 -33.65 27.3 -32.5 30.3 -31.3 33.4 -28.75 L33.75 -28.75 33.75 -34.6 Q30.1 -36.45 27.15 -37.15 L21.15 -37.9 Q17.05 -37.9 13.7 -36.6 10.3 -35.35 7.95 -32.9 5.5 -30.4 4.2 -26.8 2.9 -23.15 2.9 -18.55 2.9 -13.7 4.25 -10.05 5.6 -6.4 8.0 -4.0 10.45 -1.6 13.75 -0.45 17.05 0.7 21.1 0.7 L25.05 0.35 28.35 -0.45 Q30.15 -1.05 31.3 -1.55 L33.75 -2.7" fill-rule="evenodd" stroke="none"/>
    </g>
    <g id="font_Verdana__3">
      <path d="M15.25 0.0 L15.25 -5.25 10.15 -5.25 10.15 0.0 15.25 0.0 M25.15 -28.45 L25.15 -28.45 Q25.15 -32.75 22.05 -35.35 18.9 -37.95 13.55 -37.95 L8.45 -37.4 Q5.75 -36.9 4.0 -36.2 L4.0 -31.1 4.25 -31.1 Q5.65 -32.0 8.1 -32.85 10.5 -33.7 13.2 -33.7 16.2 -33.7 18.15 -32.3 20.05 -30.9 20.05 -28.1 20.05 -25.95 19.25 -24.55 18.45 -23.15 17.0 -21.85 15.8 -20.75 13.9 -19.65 L10.4 -17.6 10.4 -10.0 14.85 -10.0 14.85 -15.6 18.75 -18.05 21.95 -20.7 Q23.4 -22.2 24.25 -24.1 25.15 -26.0 25.15 -28.45" fill-rule="evenodd" stroke="none"/>
    </g>
    <g id="font_Verdana_J0">
      <path d="M18.65 -9.65 L18.65 -37.2 5.85 -37.2 5.85 -33.25 13.7 -33.25 13.7 -11.55 13.55 -8.2 Q13.35 -6.75 12.65 -5.75 12.0 -4.75 10.65 -4.25 9.3 -3.7 7.0 -3.7 L3.9 -4.1 1.4 -4.8 1.1 -4.8 1.1 -0.2 4.45 0.35 7.65 0.55 Q12.7 0.55 15.7 -2.1 18.65 -4.75 18.65 -9.65" fill-rule="evenodd" stroke="none"/>
    </g>
    <g id="font_Verdana_-0">
      <path d="M19.45 -14.0 L19.45 -18.55 3.85 -18.55 3.85 -14.0 19.45 -14.0" fill-rule="evenodd" stroke="none"/>
    </g>
    <g id="font_Verdana_H0">
      <path d="M33.5 0.0 L33.5 -37.2 28.55 -37.2 28.55 -22.6 9.95 -22.6 9.95 -37.2 5.0 -37.2 5.0 0.0 9.95 0.0 9.95 -18.2 28.55 -18.2 28.55 0.0 33.5 0.0" fill-rule="evenodd" stroke="none"/>
    </g>
    <g id="font_Verdana_G0">
      <path d="M36.05 -2.75 L36.05 -18.7 21.2 -18.7 21.2 -14.35 31.15 -14.35 31.15 -5.25 27.0 -4.0 22.2 -3.55 Q15.65 -3.55 11.85 -7.55 8.05 -11.55 8.05 -18.8 8.05 -25.65 11.7 -29.65 15.3 -33.65 21.55 -33.65 L26.55 -33.15 30.45 -31.85 33.35 -30.25 35.6 -28.65 36.05 -28.65 36.05 -34.55 Q32.2 -36.35 28.9 -37.1 L22.4 -37.9 Q13.3 -37.9 8.1 -32.7 2.9 -27.55 2.9 -18.65 2.9 -13.75 4.3 -10.1 5.7 -6.5 8.25 -4.05 10.8 -1.65 14.45 -0.45 18.05 0.75 22.4 0.75 25.8 0.75 29.4 -0.3 33.0 -1.35 36.05 -2.75" fill-rule="evenodd" stroke="none"/>
    </g>
    <g id="font_Verdana_I0">
      <path d="M18.15 0.0 L18.15 -3.8 13.25 -3.8 13.25 -33.4 18.15 -33.4 18.15 -37.2 3.45 -37.2 3.45 -33.4 8.3 -33.4 8.3 -3.8 3.45 -3.8 3.45 0.0 18.15 0.0" fill-rule="evenodd" stroke="none"/>
    </g>
    <g id="font_Verdana_j0">
      <path d="M13.05 0.7 L13.05 -27.9 2.5 -27.9 2.5 -23.95 8.35 -23.95 8.35 -1.45 8.2 2.0 Q8.0 3.4 7.45 4.4 6.9 5.4 5.8 5.9 L2.9 6.4 0.6 6.05 -1.3 5.4 -1.55 5.4 -1.55 9.9 1.2 10.4 3.85 10.6 Q8.05 10.6 10.55 8.1 13.05 5.6 13.05 0.7 M13.35 -32.6 L13.35 -37.45 8.05 -37.45 8.05 -32.6 13.35 -32.6" fill-rule="evenodd" stroke="none"/>
    </g>
    <g id="font_Verdana__4">
      <path d="M9.55 0.0 L9.55 -5.55 4.45 -5.55 4.45 0.0 9.55 0.0 M23.5 0.0 L23.5 -5.55 18.4 -5.55 18.4 0.0 23.5 0.0 M37.45 0.0 L37.45 -5.55 32.35 -5.55 32.35 0.0 37.45 0.0" fill-rule="evenodd" stroke="none"/>
    </g>
    <g id="font_Verdana_A0">
      <path d="M23.9 -14.6 L10.85 -14.6 17.4 -32.9 23.9 -14.6 M34.35 0.0 L20.8 -37.2 14.2 -37.2 0.65 0.0 5.7 0.0 9.35 -10.35 25.45 -10.35 29.1 0.0 34.35 0.0" fill-rule="evenodd" stroke="none"/>
    </g>
    <g id="font_Verdana_E0">
      <path d="M29.55 0.0 L29.55 -4.4 9.95 -4.4 9.95 -18.2 29.55 -18.2 29.55 -22.6 9.95 -22.6 9.95 -32.8 29.55 -32.8 29.55 -37.2 5.0 -37.2 5.0 0.0 29.55 0.0" fill-rule="evenodd" stroke="none"/>
    </g>
  </defs>
</svg>
