<?xml version="1.0" encoding="UTF-8" standalone="no"?>
<svg xmlns:xlink="http://www.w3.org/1999/xlink" height="26.25px" width="253.65px" xmlns="http://www.w3.org/2000/svg">
  <g transform="matrix(1.0, 0.0, 0.0, 1.0, -10.6, -3.15)">
    <g transform="matrix(1.0, 0.0, 0.0, 1.0, 0.0, 0.0)">
      <use fill="#000000" height="26.25" transform="matrix(0.5469, 0.0, 0.0, 0.5469, 11.0, 28.0)" width="253.65" xlink:href="#font_Comics_S0"/>
      <use fill="#000000" height="26.25" transform="matrix(0.5469, 0.0, 0.0, 0.5469, 35.85, 28.0)" width="253.65" xlink:href="#font_Comics_T0"/>
      <use fill="#000000" height="26.25" transform="matrix(0.5469, 0.0, 0.0, 0.5469, 56.7, 28.0)" width="253.65" xlink:href="#font_Comics_A0"/>
      <use fill="#000000" height="26.25" transform="matrix(0.5469, 0.0, 0.0, 0.5469, 80.05, 28.0)" width="253.65" xlink:href="#font_Comics_R0"/>
      <use fill="#000000" height="26.25" transform="matrix(0.5469, 0.0, 0.0, 0.5469, 104.4, 28.0)" width="253.65" xlink:href="#font_Comics_T0"/>
      <use fill="#000000" height="26.25" transform="matrix(0.5469, 0.0, 0.0, 0.5469, 139.25, 28.0)" width="253.65" xlink:href="#font_Comics_G0"/>
      <use fill="#000000" height="26.25" transform="matrix(0.5469, 0.0, 0.0, 0.5469, 165.8, 28.0)" width="253.65" xlink:href="#font_Comics_A0"/>
      <use fill="#000000" height="26.25" transform="matrix(0.5469, 0.0, 0.0, 0.5469, 189.15, 28.0)" width="253.65" xlink:href="#font_Comics_M0"/>
      <use fill="#000000" height="26.25" transform="matrix(0.5469, 0.0, 0.0, 0.5469, 226.45, 28.0)" width="253.65" xlink:href="#font_Comics_E0"/>
    </g>
  </g>
  <defs>
    <g id="font_Comics_S0">
      <path d="M-0.1 -5.35 L-0.1 -5.35 Q4.55 -0.75 9.6 0.85 14.6 2.4 22.15 2.4 31.15 2.4 37.95 -2.45 44.7 -7.3 44.7 -15.35 44.7 -24.45 39.75 -27.7 34.85 -31.0 28.15 -31.6 21.5 -32.2 21.5 -33.05 21.5 -34.8 22.6 -35.5 23.7 -36.2 25.7 -36.2 L30.15 -35.55 35.05 -34.0 35.05 -43.1 23.3 -42.25 Q16.55 -41.7 10.95 -39.35 5.35 -36.95 5.35 -31.9 L5.55 -29.3 Q5.8 -27.45 11.6 -25.3 L22.0 -22.05 Q27.45 -19.95 27.45 -16.45 27.45 -14.9 25.9 -14.1 24.4 -13.35 21.7 -13.35 17.9 -13.35 13.7 -14.95 9.5 -16.6 7.35 -19.2 L-0.1 -5.35" fill-rule="evenodd" stroke="none"/>
    </g>
    <g id="font_Comics_T0">
      <path d="M13.2 3.4 L27.0 0.6 23.65 -26.75 37.15 -29.2 37.15 -40.25 1.85 -42.1 1.85 -23.05 13.2 -23.95 13.2 3.4" fill-rule="evenodd" stroke="none"/>
    </g>
    <g id="font_Comics_A0">
      <path d="M25.2 -18.4 L16.0 -18.7 19.05 -33.75 25.2 -18.4 M0.0 1.85 L17.5 -1.85 19.35 -12.25 25.5 -12.25 28.9 -1.2 42.7 -0.9 27.65 -41.8 10.75 -44.55 0.0 1.85" fill-rule="evenodd" stroke="none"/>
    </g>
    <g id="font_Comics_R0">
      <path d="M15.3 -23.75 L12.65 -31.0 16.5 -33.05 Q18.9 -34.3 20.45 -34.3 21.3 -34.3 21.95 -33.9 22.55 -33.5 22.95 -32.6 23.35 -31.75 23.35 -30.95 23.35 -28.6 20.9 -26.7 18.4 -24.8 15.3 -23.75 M4.35 3.5 L15.65 -0.8 13.95 -12.45 19.6 -16.1 28.25 1.8 45.5 -10.4 29.2 -22.4 Q31.8 -25.05 33.1 -27.65 34.4 -30.2 34.4 -33.1 34.4 -35.5 33.5 -38.0 32.65 -40.55 28.9 -41.8 25.15 -43.05 19.6 -43.05 L9.65 -42.1 Q4.45 -41.2 0.7 -39.65 L4.35 3.5" fill-rule="evenodd" stroke="none"/>
    </g>
    <g id="font_Comics_G0">
      <path d="M23.35 1.65 L23.35 1.65 Q31.25 0.9 36.5 -4.45 41.8 -9.8 41.8 -17.45 L47.0 -18.4 46.7 -25.5 22.1 -22.1 22.4 -15.65 27.95 -16.25 Q27.65 -13.75 26.25 -12.1 24.85 -10.45 23.5 -10.25 L21.65 -10.05 Q18.95 -10.05 17.4 -12.7 15.85 -15.3 15.6 -17.3 L15.25 -19.9 15.25 -20.75 Q15.25 -24.75 17.15 -27.75 19.05 -30.7 22.45 -30.7 24.15 -30.7 25.95 -29.45 L28.9 -27.65 36.55 -35.95 Q33.15 -39.1 29.55 -40.3 25.95 -41.45 20.9 -41.45 12.55 -41.45 6.75 -35.3 0.95 -29.1 0.95 -20.55 0.95 -11.65 7.0 -5.0 13.0 1.65 21.5 1.65 L22.3 1.65 23.35 1.65" fill-rule="evenodd" stroke="none"/>
    </g>
    <g id="font_Comics_M0">
      <path d="M1.25 -0.9 L16.6 0.65 16.9 -25.8 29.2 -1.85 34.75 -1.2 47.3 -24.55 49.15 -0.6 66.7 1.85 59.6 -40.25 45.8 -38.4 35.05 -23.65 25.2 -41.45 8.9 -42.4 1.25 -0.9" fill-rule="evenodd" stroke="none"/>
    </g>
    <g id="font_Comics_E0">
      <path d="M4.0 -1.8 L30.45 1.55 29.5 -15.35 17.85 -14.45 17.2 -17.5 23.65 -19.95 22.75 -26.7 14.15 -26.1 13.2 -34.1 26.45 -35.65 25.8 -44.55 0.95 -41.45 4.0 -1.8" fill-rule="evenodd" stroke="none"/>
    </g>
  </defs>
</svg>
