<?xml version="1.0" encoding="UTF-8" standalone="no"?>
<svg xmlns:xlink="http://www.w3.org/1999/xlink" height="11.0px" width="38.8px" xmlns="http://www.w3.org/2000/svg">
  <g transform="matrix(1.0, 0.0, 0.0, 1.0, -13.05, -1.35)">
    <g transform="matrix(1.0, 0.0, 0.0, 1.0, 0.0, 0.0)">
      <use fill="#000000" height="11.0" transform="matrix(0.2344, 0.0, 0.0, 0.2344, 13.0, 12.0)" width="38.8" xlink:href="#font_Comics_A0"/>
      <use fill="#000000" height="11.0" transform="matrix(0.2344, 0.0, 0.0, 0.2344, 23.0, 12.0)" width="38.8" xlink:href="#font_Comics_D0"/>
      <use fill="#000000" height="11.0" transform="matrix(0.2344, 0.0, 0.0, 0.2344, 32.9, 12.0)" width="38.8" xlink:href="#font_Comics_D0"/>
    </g>
  </g>
  <defs>
    <g id="font_Comics_A0">
      <path d="M25.2 -18.4 L16.0 -18.7 19.05 -33.75 25.2 -18.4 M0.0 1.85 L17.5 -1.85 19.35 -12.25 25.5 -12.25 28.9 -1.2 42.7 -0.9 27.65 -41.8 10.75 -44.55 0.0 1.85" fill-rule="evenodd" stroke="none"/>
    </g>
    <g id="font_Comics_D0">
      <path d="M15.15 -13.1 L15.15 -31.8 Q19.6 -31.8 22.35 -29.95 25.1 -28.15 25.1 -23.05 25.1 -19.4 22.3 -16.9 19.5 -14.35 15.15 -13.1 M4.1 1.45 L4.1 1.45 11.2 2.3 Q22.65 2.3 31.9 -4.55 41.15 -11.45 41.15 -22.45 41.15 -32.35 35.1 -36.8 29.0 -41.25 19.25 -41.25 L10.5 -40.45 Q6.0 -39.65 1.75 -38.25 L4.1 1.45" fill-rule="evenodd" stroke="none"/>
    </g>
  </defs>
</svg>
