<?xml version="1.0" encoding="UTF-8" standalone="no"?>
<svg xmlns:xlink="http://www.w3.org/1999/xlink" height="11.25px" width="69.85px" xmlns="http://www.w3.org/2000/svg">
  <g transform="matrix(1.0, 0.0, 0.0, 1.0, -9.05, -1.35)">
    <g transform="matrix(1.0, 0.0, 0.0, 1.0, 0.0, 0.0)">
      <use fill="#000000" height="11.25" transform="matrix(0.2344, 0.0, 0.0, 0.2344, 9.0, 12.0)" width="69.85" xlink:href="#font_Comics_R0"/>
      <use fill="#000000" height="11.25" transform="matrix(0.2344, 0.0, 0.0, 0.2344, 19.45, 12.0)" width="69.85" xlink:href="#font_Comics_E0"/>
      <use fill="#000000" height="11.25" transform="matrix(0.2344, 0.0, 0.0, 0.2344, 26.8, 12.0)" width="69.85" xlink:href="#font_Comics_M0"/>
      <use fill="#000000" height="11.25" transform="matrix(0.2344, 0.0, 0.0, 0.2344, 42.8, 12.0)" width="69.85" xlink:href="#font_Comics_O0"/>
      <use fill="#000000" height="11.25" transform="matrix(0.2344, 0.0, 0.0, 0.2344, 54.25, 12.0)" width="69.85" xlink:href="#font_Comics_V0"/>
      <use fill="#000000" height="11.25" transform="matrix(0.2344, 0.0, 0.0, 0.2344, 62.65, 12.0)" width="69.85" xlink:href="#font_Comics_E0"/>
    </g>
  </g>
  <defs>
    <g id="font_Comics_R0">
      <path d="M15.3 -23.75 L12.65 -31.0 16.5 -33.05 Q18.9 -34.3 20.45 -34.3 21.3 -34.3 21.95 -33.9 22.55 -33.5 22.95 -32.6 23.35 -31.75 23.35 -30.95 23.35 -28.6 20.9 -26.7 18.4 -24.8 15.3 -23.75 M4.35 3.5 L15.65 -0.8 13.95 -12.45 19.6 -16.1 28.25 1.8 45.5 -10.4 29.2 -22.4 Q31.8 -25.05 33.1 -27.65 34.4 -30.2 34.4 -33.1 34.4 -35.5 33.5 -38.0 32.65 -40.55 28.9 -41.8 25.15 -43.05 19.6 -43.05 L9.65 -42.1 Q4.45 -41.2 0.7 -39.65 L4.35 3.5" fill-rule="evenodd" stroke="none"/>
    </g>
    <g id="font_Comics_E0">
      <path d="M4.0 -1.8 L30.45 1.55 29.5 -15.35 17.85 -14.45 17.2 -17.5 23.65 -19.95 22.75 -26.7 14.15 -26.1 13.2 -34.1 26.45 -35.65 25.8 -44.55 0.95 -41.45 4.0 -1.8" fill-rule="evenodd" stroke="none"/>
    </g>
    <g id="font_Comics_M0">
      <path d="M1.25 -0.9 L16.6 0.65 16.9 -25.8 29.2 -1.85 34.75 -1.2 47.3 -24.55 49.15 -0.6 66.7 1.85 59.6 -40.25 45.8 -38.4 35.05 -23.65 25.2 -41.45 8.9 -42.4 1.25 -0.9" fill-rule="evenodd" stroke="none"/>
    </g>
    <g id="font_Comics_O0">
      <path d="M23.95 -9.5 L23.95 -9.5 Q20.55 -9.8 18.25 -12.05 16.0 -14.25 16.0 -17.5 16.0 -21.0 17.9 -23.55 19.8 -26.1 23.05 -26.7 L23.05 -25.55 24.85 -25.7 Q28.65 -25.7 30.45 -23.35 32.25 -21.0 32.25 -18.1 32.25 -14.1 30.35 -11.8 28.45 -9.45 25.0 -9.45 L24.6 -9.45 23.95 -9.5 M23.05 0.0 L23.05 0.0 Q32.9 0.0 40.25 -5.75 47.65 -11.55 47.65 -20.55 47.65 -30.05 41.45 -36.5 35.3 -42.95 23.05 -42.95 L23.05 -44.55 Q13.75 -44.55 7.5 -37.3 1.25 -30.05 1.25 -20.25 1.25 -11.7 7.7 -5.85 14.2 0.0 23.05 0.0" fill-rule="evenodd" stroke="none"/>
    </g>
    <g id="font_Comics_V0">
      <path d="M16.6 3.4 L37.8 -40.85 24.9 -43.6 17.2 -17.8 16.6 -38.4 2.45 -36.85 6.45 -1.55 16.6 3.4" fill-rule="evenodd" stroke="none"/>
    </g>
  </defs>
</svg>
