<?xml version="1.0" encoding="UTF-8" standalone="no"?>
<svg xmlns:xlink="http://www.w3.org/1999/xlink" height="15.35px" width="135.95px" xmlns="http://www.w3.org/2000/svg">
  <g transform="matrix(1.0, 0.0, 0.0, 1.0, -50.5, -1.85)">
    <g transform="matrix(1.0, 0.0, 0.0, 1.0, 0.0, 0.0)">
      <use fill="#000000" height="15.35" transform="matrix(0.3125, 0.0, 0.0, 0.3125, 51.0, 16.0)" width="135.95" xlink:href="#font_Comics_S0"/>
      <use fill="#000000" height="15.35" transform="matrix(0.3125, 0.0, 0.0, 0.3125, 65.2, 16.0)" width="135.95" xlink:href="#font_Comics_E0"/>
      <use fill="#000000" height="15.35" transform="matrix(0.3125, 0.0, 0.0, 0.3125, 75.0, 16.0)" width="135.95" xlink:href="#font_Comics_N0"/>
      <use fill="#000000" height="15.35" transform="matrix(0.3125, 0.0, 0.0, 0.3125, 89.9, 16.0)" width="135.95" xlink:href="#font_Comics_D0"/>
      <use fill="#000000" height="15.35" transform="matrix(0.3125, 0.0, 0.0, 0.3125, 111.1, 16.0)" width="135.95" xlink:href="#font_Comics_S0"/>
      <use fill="#000000" height="15.35" transform="matrix(0.3125, 0.0, 0.0, 0.3125, 125.3, 16.0)" width="135.95" xlink:href="#font_Comics_C0"/>
      <use fill="#000000" height="15.35" transform="matrix(0.3125, 0.0, 0.0, 0.3125, 135.95, 16.0)" width="135.95" xlink:href="#font_Comics_O0"/>
      <use fill="#000000" height="15.35" transform="matrix(0.3125, 0.0, 0.0, 0.3125, 151.2, 16.0)" width="135.95" xlink:href="#font_Comics_R0"/>
      <use fill="#000000" height="15.35" transform="matrix(0.3125, 0.0, 0.0, 0.3125, 165.1, 16.0)" width="135.95" xlink:href="#font_Comics_E0"/>
    </g>
  </g>
  <defs>
    <g id="font_Comics_S0">
      <path d="M-0.1 -5.35 L-0.1 -5.35 Q4.55 -0.75 9.6 0.85 14.6 2.4 22.15 2.4 31.15 2.4 37.95 -2.45 44.7 -7.3 44.7 -15.35 44.7 -24.45 39.75 -27.7 34.85 -31.0 28.15 -31.6 21.5 -32.2 21.5 -33.05 21.5 -34.8 22.6 -35.5 23.7 -36.2 25.7 -36.2 L30.15 -35.55 35.05 -34.0 35.05 -43.1 23.3 -42.25 Q16.55 -41.7 10.95 -39.35 5.35 -36.95 5.35 -31.9 L5.55 -29.3 Q5.8 -27.45 11.6 -25.3 L22.0 -22.05 Q27.45 -19.95 27.45 -16.45 27.45 -14.9 25.9 -14.1 24.4 -13.35 21.7 -13.35 17.9 -13.35 13.7 -14.95 9.5 -16.6 7.35 -19.2 L-0.1 -5.35" fill-rule="evenodd" stroke="none"/>
    </g>
    <g id="font_Comics_E0">
      <path d="M4.0 -1.8 L30.45 1.55 29.5 -15.35 17.85 -14.45 17.2 -17.5 23.65 -19.95 22.75 -26.7 14.15 -26.1 13.2 -34.1 26.45 -35.65 25.8 -44.55 0.95 -41.45 4.0 -1.8" fill-rule="evenodd" stroke="none"/>
    </g>
    <g id="font_Comics_N0">
      <path d="M15.7 -0.9 L15.7 -20.9 35.65 4.65 47.0 -42.7 28.3 -38.1 28.3 -20.25 17.5 -40.55 3.1 -36.25 2.15 -5.2 15.7 -0.9" fill-rule="evenodd" stroke="none"/>
    </g>
    <g id="font_Comics_D0">
      <path d="M15.15 -13.1 L15.15 -31.8 Q19.6 -31.8 22.35 -29.95 25.1 -28.15 25.1 -23.05 25.1 -19.4 22.3 -16.9 19.5 -14.35 15.15 -13.1 M4.1 1.45 L4.1 1.45 11.2 2.3 Q22.65 2.3 31.9 -4.55 41.15 -11.45 41.15 -22.45 41.15 -32.35 35.1 -36.8 29.0 -41.25 19.25 -41.25 L10.5 -40.45 Q6.0 -39.65 1.75 -38.25 L4.1 1.45" fill-rule="evenodd" stroke="none"/>
    </g>
    <g id="font_Comics_C0">
      <path d="M34.1 -4.6 L26.75 -20.55 Q25.85 -17.9 23.7 -16.5 21.55 -15.1 18.95 -15.1 16.05 -15.1 14.0 -16.85 11.95 -18.6 11.95 -21.8 11.95 -26.2 14.0 -29.1 16.1 -32.05 18.9 -32.05 21.4 -32.05 23.65 -29.8 L29.5 -39.6 Q27.4 -40.65 25.5 -41.05 L21.35 -41.45 Q12.95 -41.45 6.65 -34.75 0.3 -28.05 0.3 -18.4 0.3 -9.65 5.5 -3.8 10.7 2.05 18.4 2.05 22.2 2.05 26.2 0.4 30.2 -1.2 34.1 -4.6" fill-rule="evenodd" stroke="none"/>
    </g>
    <g id="font_Comics_O0">
      <path d="M23.95 -9.5 L23.95 -9.5 Q20.55 -9.8 18.25 -12.05 16.0 -14.25 16.0 -17.5 16.0 -21.0 17.9 -23.55 19.8 -26.1 23.05 -26.7 L23.05 -25.55 24.85 -25.7 Q28.65 -25.7 30.45 -23.35 32.25 -21.0 32.25 -18.1 32.25 -14.1 30.35 -11.8 28.45 -9.45 25.0 -9.45 L24.6 -9.45 23.95 -9.5 M23.05 0.0 L23.05 0.0 Q32.9 0.0 40.25 -5.75 47.65 -11.55 47.65 -20.55 47.65 -30.05 41.45 -36.5 35.3 -42.95 23.05 -42.95 L23.05 -44.55 Q13.75 -44.55 7.5 -37.3 1.25 -30.05 1.25 -20.25 1.25 -11.7 7.7 -5.85 14.2 0.0 23.05 0.0" fill-rule="evenodd" stroke="none"/>
    </g>
    <g id="font_Comics_R0">
      <path d="M15.3 -23.75 L12.65 -31.0 16.5 -33.05 Q18.9 -34.3 20.45 -34.3 21.3 -34.3 21.95 -33.9 22.55 -33.5 22.95 -32.6 23.35 -31.75 23.35 -30.95 23.35 -28.6 20.9 -26.7 18.4 -24.8 15.3 -23.75 M4.35 3.5 L15.65 -0.8 13.95 -12.45 19.6 -16.1 28.25 1.8 45.5 -10.4 29.2 -22.4 Q31.8 -25.05 33.1 -27.65 34.4 -30.2 34.4 -33.1 34.4 -35.5 33.5 -38.0 32.65 -40.55 28.9 -41.8 25.15 -43.05 19.6 -43.05 L9.65 -42.1 Q4.45 -41.2 0.7 -39.65 L4.35 3.5" fill-rule="evenodd" stroke="none"/>
    </g>
  </defs>
</svg>
