<?xml version="1.0" encoding="UTF-8" standalone="no"?>
<svg xmlns:xlink="http://www.w3.org/1999/xlink" height="163.95px" width="102.2px" xmlns="http://www.w3.org/2000/svg">
  <g transform="matrix(1.0, 0.0, 0.0, 1.0, 53.05, 79.85)">
    <use height="55.3" transform="matrix(1.0, 0.0, 0.0, 1.0, -24.2, 27.8)" width="47.5" xlink:href="#shape0"/>
    <use height="34.85" transform="matrix(1.0, 0.0, 0.0, 1.0, -22.85, -79.85)" width="42.95" xlink:href="#shape1"/>
    <use height="103.45" transform="matrix(1.0, 0.0, 0.0, 1.0, -53.05, -56.25)" width="102.2" xlink:href="#shape2"/>
  </g>
  <defs>
    <g id="shape0" transform="matrix(1.0, 0.0, 0.0, 1.0, 24.2, -27.8)">
      <path d="M0.75 29.0 L22.8 27.8 18.05 72.9 23.3 75.15 22.0 78.5 0.15 78.25 -0.05 65.7 0.75 29.0" fill="#0d0f0d" fill-rule="evenodd" stroke="none"/>
      <path d="M-2.15 29.2 L-1.4 63.1 -1.55 76.85 -5.9 83.1 -17.4 82.3 -22.9 74.1 -23.9 69.75 -19.75 66.9 -24.2 28.0 -2.15 29.2" fill="#0d0f0d" fill-rule="evenodd" stroke="none"/>
      <path d="M22.0 28.75 L22.0 28.65 22.6 28.65 22.0 28.75" fill="#1d1211" fill-rule="evenodd" stroke="none"/>
      <path d="M22.0 28.75 L17.8 67.35 9.3 66.75 0.85 67.35 1.45 31.1 22.0 28.75 M8.85 70.35 L9.9 69.8 9.9 68.0 8.7 68.0 7.5 68.0 6.9 69.2 7.5 69.8 8.3 70.2 6.9 69.8 0.85 74.65 0.85 68.0 9.9 67.35 17.8 68.0 17.8 72.8 8.85 70.35 M2.05 70.4 L2.05 71.6 4.45 71.6 5.1 70.4 4.45 69.2 3.25 69.2 2.05 69.2 2.05 70.4 M0.85 74.65 L6.3 71.0 6.9 71.0 22.6 75.25 22.0 76.45 0.85 75.85 0.85 74.65 M14.15 69.2 L14.15 70.4 14.15 71.0 15.35 71.6 16.55 71.0 17.2 70.4 16.55 69.2 15.35 69.2 14.15 69.2 M0.85 77.65 L0.85 76.45 22.0 77.05 22.0 77.65 0.85 77.65" fill="#181e16" fill-rule="evenodd" stroke="none"/>
      <path d="M8.7 68.0 L9.9 68.0 9.9 69.8 8.85 70.35 8.7 70.4 8.3 70.2 7.5 69.8 6.9 69.2 7.5 68.0 8.7 68.0 7.5 68.6 7.5 69.8 9.3 69.8 9.3 68.6 8.7 68.0 M2.05 70.4 L2.65 71.0 3.85 71.0 3.85 70.4 4.45 70.4 3.25 69.2 4.45 69.2 5.1 70.4 4.45 71.6 2.05 71.6 2.05 70.4 2.05 69.2 3.25 69.2 2.05 70.4 M14.15 69.2 L15.35 69.2 16.55 69.2 17.2 70.4 16.55 71.0 15.35 71.6 14.15 71.0 14.15 70.4 14.15 69.2 M14.75 71.0 L15.95 71.0 15.95 70.4 16.55 70.4 15.35 69.2 14.15 70.4 14.75 71.0" fill="#0d0f0d" fill-rule="evenodd" stroke="none"/>
      <path d="M8.7 68.0 L9.3 68.6 9.3 69.8 7.5 69.8 7.5 68.6 8.7 68.0 M3.25 69.2 L4.45 70.4 3.85 70.4 3.85 71.0 2.65 71.0 2.05 70.4 3.25 69.2 M14.75 71.0 L14.15 70.4 15.35 69.2 16.55 70.4 15.95 70.4 15.95 71.0 14.75 71.0" fill="#608051" fill-rule="evenodd" stroke="none"/>
      <path d="M-23.2 28.7 L-23.8 28.65 -23.2 28.65 -23.2 28.7" fill="#1d1211" fill-rule="evenodd" stroke="none"/>
      <path d="M-23.2 28.7 L-2.65 31.05 -2.05 61.3 -10.5 60.7 -19.0 61.3 -23.2 28.7 M-9.5 64.15 L-8.7 63.75 -8.1 63.1 -8.7 61.9 -9.9 61.9 -11.1 61.9 -11.1 63.75 -10.05 64.3 -19.0 66.75 -19.0 61.9 -11.1 61.3 -2.05 61.9 -2.05 68.55 -8.1 63.75 -9.5 64.15 M-16.55 63.1 L-17.75 63.1 -18.4 64.35 -17.75 64.95 -16.55 65.55 -15.35 64.95 -15.35 64.35 -15.35 63.1 -16.55 63.1 M-4.45 63.1 L-5.7 63.1 -6.3 64.35 -5.7 65.55 -3.25 65.55 -3.25 64.35 -3.25 63.1 -4.45 63.1 M-2.95 69.1 L-2.65 76.8 -6.35 82.35 -17.4 81.65 -22.3 73.75 -23.2 70.0 -18.9 67.45 -9.1 65.1 -2.95 69.1" fill="#181e16" fill-rule="evenodd" stroke="none"/>
      <path d="M-10.05 64.3 L-11.1 63.75 -11.1 61.9 -9.9 61.9 -8.7 61.9 -8.1 63.1 -8.7 63.75 -9.5 64.15 -9.9 64.35 -10.05 64.3 M-8.7 63.75 L-8.7 62.5 -9.9 61.9 -10.5 62.5 -10.5 63.75 -8.7 63.75 M-15.35 64.35 L-15.35 64.95 -16.55 65.55 -17.75 64.95 -18.4 64.35 -17.75 63.1 -16.55 63.1 -17.75 64.35 -17.15 64.35 -17.15 64.95 -15.95 64.95 -15.35 64.35 -16.55 63.1 -15.35 63.1 -15.35 64.35 M-4.45 63.1 L-5.7 64.35 -5.05 64.35 -5.05 64.95 -3.85 64.95 -3.25 64.35 -4.45 63.1 -3.25 63.1 -3.25 64.35 -3.25 65.55 -5.7 65.55 -6.3 64.35 -5.7 63.1 -4.45 63.1" fill="#0d0f0d" fill-rule="evenodd" stroke="none"/>
      <path d="M-8.7 63.75 L-10.5 63.75 -10.5 62.5 -9.9 61.9 -8.7 62.5 -8.7 63.75 M-15.35 64.35 L-15.95 64.95 -17.15 64.95 -17.15 64.35 -17.75 64.35 -16.55 63.1 -15.35 64.35 M-4.45 63.1 L-3.25 64.35 -3.85 64.95 -5.05 64.95 -5.05 64.35 -5.7 64.35 -4.45 63.1" fill="#608051" fill-rule="evenodd" stroke="none"/>
    </g>
    <g id="shape1" transform="matrix(1.0, 0.0, 0.0, 1.0, 22.85, 79.85)">
      <path d="M-2.25 -79.85 L-12.55 -78.65 -15.55 -77.4 -18.0 -75.6 -21.6 -70.75 -14.95 -71.35 -11.95 -72.0 -8.9 -73.8 -8.9 -75.0 -8.3 -75.6 -7.7 -75.6 -8.3 -75.0 -8.3 -73.8 -7.1 -73.2 -6.5 -76.2 -6.5 -76.8 -8.3 -77.4 -13.15 -77.4 -14.95 -76.2 -13.15 -78.0 -10.75 -78.65 -5.9 -77.4 -2.25 -78.65 1.35 -77.4 4.4 -78.0 7.4 -78.0 11.05 -76.8 10.45 -76.8 6.2 -77.4 3.8 -77.4 1.95 -76.8 -1.05 -77.4 -4.1 -77.4 -5.9 -76.2 -6.5 -75.0 -5.9 -73.2 -2.25 -72.0 0.15 -72.0 1.95 -73.8 4.4 -73.8 3.8 -75.6 2.55 -75.6 3.8 -76.2 4.4 -75.6 5.0 -74.4 13.45 -70.75 17.1 -70.15 18.3 -69.55 18.9 -69.55 18.55 -70.15 18.9 -70.15 18.5 -70.25 18.3 -70.6 18.3 -71.35 17.1 -72.55 17.1 -72.6 16.95 -72.7 14.05 -75.6 12.0 -76.65 11.05 -77.4 7.4 -78.65 -2.25 -79.85 0.15 -79.85 5.6 -79.25 10.45 -78.0 16.5 -74.4 18.3 -72.0 19.5 -68.95 20.1 -68.95 12.85 -49.85 8.6 -47.4 -1.05 -45.0 -7.1 -46.2 -15.55 -49.2 -19.2 -61.1 -21.6 -64.7 -22.85 -68.95 -19.2 -75.0 -16.2 -77.4 -12.55 -79.25 -2.25 -79.85 M16.5 -69.55 L14.05 -70.15 11.65 -70.15 8.0 -58.65 12.25 -59.25 12.85 -59.25 17.1 -69.55 16.5 -69.55 M18.9 -68.35 L17.1 -69.55 15.9 -64.1 13.45 -59.25 15.9 -59.25 17.7 -63.5 18.3 -68.35 18.9 -68.35 M3.2 -58.65 L7.4 -58.65 10.45 -70.15 4.4 -68.35 3.2 -58.65 M7.4 -70.15 L11.65 -70.75 4.4 -73.2 1.95 -73.2 1.35 -72.0 -1.65 -71.35 -6.35 -72.55 -6.4 -72.55 -6.5 -72.6 -8.9 -73.2 -11.95 -71.35 -16.2 -70.15 -14.35 -69.55 -13.15 -69.55 -7.1 -67.15 -2.85 -66.55 7.4 -70.15 M8.6 -58.05 L8.0 -58.05 7.4 -55.05 11.65 -56.25 12.85 -58.65 8.6 -58.05 M2.55 -58.05 L2.55 -54.45 6.8 -55.05 8.0 -58.05 2.55 -58.05 M1.95 -58.05 L-1.65 -58.05 -1.65 -53.85 1.95 -54.45 1.95 -58.05 M10.45 -55.05 L-2.25 -53.2 -8.9 -53.85 -14.95 -55.65 -15.55 -55.65 -16.8 -56.25 -16.2 -55.05 -14.35 -53.2 -4.7 -49.6 -1.05 -49.6 4.4 -50.8 9.85 -52.6 12.25 -53.85 13.45 -55.05 14.05 -56.25 10.45 -55.05 M12.25 -56.25 L14.05 -56.85 14.65 -57.45 15.3 -58.65 13.45 -58.65 12.25 -56.25 M4.4 -68.35 L-1.65 -66.55 -1.65 -58.05 2.55 -58.65 4.4 -68.35 M-21.0 -69.55 L-22.25 -68.35 -21.6 -65.95 -20.4 -62.9 -19.8 -62.9 -18.6 -61.7 -16.2 -61.1 -19.2 -70.15 -19.8 -70.15 -21.0 -69.55 M-11.35 -60.5 L-11.35 -59.25 -7.1 -58.65 -7.7 -66.55 -8.9 -67.15 -12.55 -68.35 -12.55 -64.7 -11.95 -60.5 -11.35 -60.5 M-6.5 -59.9 L-6.5 -58.65 -2.25 -58.65 -2.25 -66.55 -2.85 -65.95 -7.1 -65.95 -6.5 -59.9 M-15.55 -61.7 L-15.55 -61.1 -11.95 -59.25 -13.15 -68.95 -13.75 -68.95 -14.95 -69.55 -16.8 -70.15 -18.6 -70.15 -15.55 -61.7 M-14.35 -56.85 L-14.35 -55.65 -10.75 -55.05 -11.35 -58.65 -12.55 -59.25 -14.95 -59.9 -15.55 -59.9 -14.35 -56.85 M-18.6 -61.1 L-18.6 -59.9 -18.0 -58.65 -16.8 -56.85 -14.95 -56.25 -16.2 -60.5 -18.0 -61.1 -18.6 -61.1 M-10.75 -55.65 L-10.15 -55.05 -6.5 -54.45 -7.1 -58.05 -7.7 -58.05 -10.75 -58.65 -10.75 -55.65 M-5.9 -55.05 L-5.9 -53.85 -2.25 -53.85 -2.25 -58.05 -2.85 -58.05 -6.5 -58.05 -5.9 -55.05" fill="#000000" fill-rule="evenodd" stroke="none"/>
      <path d="M18.55 -70.15 L18.9 -69.55 18.3 -69.55 17.1 -70.15 13.45 -70.75 5.0 -74.4 4.4 -75.6 3.8 -76.2 2.55 -75.6 3.8 -75.6 4.4 -73.8 1.95 -73.8 0.15 -72.0 -2.25 -72.0 -5.9 -73.2 -6.5 -75.0 -5.9 -76.2 -4.1 -77.4 -1.05 -77.4 1.95 -76.8 3.8 -77.4 6.2 -77.4 10.45 -76.8 11.05 -76.8 7.4 -78.0 4.4 -78.0 1.35 -77.4 -2.25 -78.65 -5.9 -77.4 -10.75 -78.65 -13.15 -78.0 -14.95 -76.2 -13.15 -77.4 -8.3 -77.4 -6.5 -76.8 -6.5 -76.2 -7.1 -73.2 -8.3 -73.8 -8.3 -75.0 -7.7 -75.6 -8.3 -75.6 -8.9 -75.0 -8.9 -73.8 -11.95 -72.0 -14.95 -71.35 -21.6 -70.75 -18.0 -75.6 -15.55 -77.4 -12.55 -78.65 -2.25 -79.85 7.4 -78.65 11.05 -77.4 12.0 -76.65 9.25 -78.0 11.05 -76.8 12.25 -75.0 13.45 -71.35 18.3 -70.3 18.3 -70.15 18.55 -70.15 M16.95 -72.7 L17.1 -72.6 17.1 -72.55 16.95 -72.7 M18.3 -70.6 L18.5 -70.25 18.3 -70.3 18.3 -70.6 M-1.65 -71.35 L-4.7 -72.0 -6.35 -72.55 -4.1 -71.35 -1.65 -70.75 0.75 -70.75 3.2 -72.0 7.4 -70.15 -2.85 -66.55 -7.1 -67.15 -13.15 -69.55 -14.35 -69.55 -11.35 -70.75 -8.9 -72.6 -6.5 -72.6 -6.4 -72.55 -6.35 -72.55 -1.65 -71.35 M9.85 -52.6 L4.4 -50.8 -1.05 -49.6 -4.7 -49.6 -14.35 -53.2 -16.2 -55.05 -16.8 -56.25 -15.55 -55.65 -14.95 -55.65 -8.9 -53.85 -2.25 -53.2 10.45 -55.05 9.85 -52.6 M-15.55 -77.4 L-21.0 -71.35 -16.8 -71.35 -16.2 -75.0 -14.35 -77.4 -15.55 -77.4 M-12.55 -52.6 L-13.15 -53.85 -13.75 -53.85 -14.95 -55.05 -14.35 -53.2 -12.55 -52.6" fill="#d9dae6" fill-rule="evenodd" stroke="none"/>
      <path d="M16.5 -69.55 L17.1 -69.55 12.85 -59.25 12.25 -59.25 8.0 -58.65 11.65 -70.15 14.05 -70.15 16.5 -69.55 M18.9 -68.35 L18.3 -68.35 17.7 -63.5 15.9 -59.25 13.45 -59.25 15.9 -64.1 17.1 -69.55 18.9 -68.35 M3.2 -58.65 L5.6 -64.1 7.4 -67.15 9.85 -68.95 8.0 -68.95 6.8 -68.35 5.0 -67.75 3.2 -58.65 4.4 -68.35 10.45 -70.15 7.4 -58.65 3.2 -58.65 M14.05 -68.95 L12.25 -69.55 8.6 -59.25 9.85 -59.25 11.65 -64.1 14.05 -68.95 M0.75 -64.1 L1.35 -65.95 3.2 -67.75 1.35 -67.15 -1.05 -65.95 -1.05 -58.65 0.75 -58.65 0.75 -64.1 M8.6 -58.05 L12.85 -58.65 11.65 -56.25 7.4 -55.05 8.0 -58.05 8.6 -58.05 8.6 -57.45 9.25 -57.45 11.05 -58.05 8.6 -58.05 M3.2 -57.45 L3.2 -56.25 6.8 -57.45 3.2 -57.45 M1.95 -58.05 L1.95 -54.45 -1.65 -53.85 -1.65 -58.05 1.95 -58.05 M2.55 -58.05 L8.0 -58.05 6.8 -55.05 2.55 -54.45 2.55 -58.05 M4.4 -68.35 L2.55 -58.65 -1.65 -58.05 -1.65 -66.55 4.4 -68.35 M12.25 -56.25 L13.45 -58.65 15.3 -58.65 14.65 -57.45 14.05 -56.85 12.25 -56.25 M-21.0 -69.55 L-19.8 -70.15 -19.2 -70.15 -16.2 -61.1 -18.6 -61.7 -19.8 -62.9 -20.4 -62.9 -21.6 -65.95 -19.8 -62.9 -18.6 -62.3 -16.8 -62.3 -19.2 -70.15 -21.0 -69.55 M-8.9 -67.15 L-7.7 -66.55 -7.1 -58.65 -11.35 -59.25 -11.35 -60.5 -7.7 -59.25 -8.9 -67.15 M-12.55 -64.7 L-11.35 -60.5 -11.95 -60.5 -12.55 -64.7 M-2.85 -65.95 L-2.25 -66.55 -2.25 -58.65 -6.5 -58.65 -6.5 -59.9 -2.85 -59.9 -2.85 -65.95 M-14.95 -69.55 L-13.75 -68.95 -13.15 -68.95 -11.95 -59.25 -15.55 -61.1 -15.55 -61.7 -12.55 -60.5 -14.95 -69.55 M-15.55 -59.9 L-14.95 -59.9 -12.55 -59.25 -11.35 -58.65 -10.75 -55.05 -14.35 -55.65 -14.35 -56.85 -11.35 -55.65 -12.55 -59.25 -15.55 -59.9 M-18.6 -61.1 L-18.0 -61.1 -16.2 -60.5 -14.95 -56.25 -16.8 -56.85 -18.0 -58.65 -18.6 -59.9 -18.6 -61.1 -18.0 -59.25 -17.4 -58.05 -15.55 -57.45 -16.2 -60.5 -18.6 -61.1 M-7.7 -58.05 L-7.1 -58.05 -6.5 -54.45 -10.15 -55.05 -10.75 -55.65 -7.7 -55.65 -7.7 -58.05 M-2.85 -58.05 L-2.25 -58.05 -2.25 -53.85 -5.9 -53.85 -5.9 -55.05 -2.85 -55.05 -2.85 -58.05 M-1.05 -55.65 L-0.45 -55.65 1.35 -56.85 -1.05 -56.85 -1.05 -55.65" fill="#cbcbcb" fill-rule="evenodd" stroke="none"/>
      <path d="M12.0 -76.65 L14.05 -75.6 16.95 -72.7 17.1 -72.55 18.3 -71.35 18.3 -70.6 18.3 -70.3 13.45 -71.35 12.25 -75.0 11.05 -76.8 9.25 -78.0 12.0 -76.65 M18.5 -70.25 L18.9 -70.15 18.55 -70.15 18.3 -70.15 18.3 -70.3 18.5 -70.25 M-1.65 -71.35 L1.35 -72.0 1.95 -73.2 4.4 -73.2 11.65 -70.75 7.4 -70.15 3.2 -72.0 0.75 -70.75 -1.65 -70.75 -4.1 -71.35 -6.35 -72.55 -4.7 -72.0 -1.65 -71.35 M-14.35 -69.55 L-16.2 -70.15 -11.95 -71.35 -8.9 -73.2 -6.5 -72.6 -8.9 -72.6 -11.35 -70.75 -14.35 -69.55 M10.45 -55.05 L14.05 -56.25 13.45 -55.05 12.25 -53.85 9.85 -52.6 10.45 -55.05" fill="#b2b1cb" fill-rule="evenodd" stroke="none"/>
      <path d="M-15.55 -77.4 L-14.35 -77.4 -16.2 -75.0 -16.8 -71.35 -21.0 -71.35 -15.55 -77.4 M-12.55 -52.6 L-14.35 -53.2 -14.95 -55.05 -13.75 -53.85 -13.15 -53.85 -12.55 -52.6" fill="#e3f2ea" fill-rule="evenodd" stroke="none"/>
      <path d="M14.05 -68.95 L11.65 -64.1 9.85 -59.25 8.6 -59.25 12.25 -69.55 14.05 -68.95 M3.2 -58.65 L5.0 -67.75 6.8 -68.35 8.0 -68.95 9.85 -68.95 7.4 -67.15 5.6 -64.1 3.2 -58.65 M0.75 -64.1 L0.75 -58.65 -1.05 -58.65 -1.05 -65.95 1.35 -67.15 3.2 -67.75 1.35 -65.95 0.75 -64.1 M8.6 -58.05 L11.05 -58.05 9.25 -57.45 8.6 -57.45 8.6 -58.05 M3.2 -57.45 L6.8 -57.45 3.2 -56.25 3.2 -57.45 M-21.6 -65.95 L-22.25 -68.35 -21.0 -69.55 -19.2 -70.15 -16.8 -62.3 -18.6 -62.3 -19.8 -62.9 -21.6 -65.95 M-8.9 -67.15 L-7.7 -59.25 -11.35 -60.5 -12.55 -64.7 -12.55 -68.35 -8.9 -67.15 M-2.85 -65.95 L-2.85 -59.9 -6.5 -59.9 -7.1 -65.95 -2.85 -65.95 M-14.95 -69.55 L-12.55 -60.5 -15.55 -61.7 -18.6 -70.15 -16.8 -70.15 -14.95 -69.55 M-14.35 -56.85 L-15.55 -59.9 -12.55 -59.25 -11.35 -55.65 -14.35 -56.85 M-18.6 -61.1 L-16.2 -60.5 -15.55 -57.45 -17.4 -58.05 -18.0 -59.25 -18.6 -61.1 M-7.7 -58.05 L-7.7 -55.65 -10.75 -55.65 -10.75 -58.65 -7.7 -58.05 M-2.85 -58.05 L-2.85 -55.05 -5.9 -55.05 -6.5 -58.05 -2.85 -58.05 M-1.05 -55.65 L-1.05 -56.85 1.35 -56.85 -0.45 -55.65 -1.05 -55.65" fill="#ffffff" fill-rule="evenodd" stroke="none"/>
    </g>
    <g id="shape2" transform="matrix(1.0, 0.0, 0.0, 1.0, 53.05, 56.25)">
      <path d="M15.9 -56.25 L16.5 -56.25 18.9 -50.2 18.25 -49.85 46.75 -32.05 46.1 -30.85 49.15 -7.85 42.5 29.05 41.3 29.05 40.7 32.65 39.45 32.65 42.5 37.5 31.6 47.2 23.75 39.9 24.95 38.1 24.35 33.25 24.95 33.25 28.6 30.85 28.0 27.2 26.75 26.6 29.2 13.3 26.15 1.2 20.1 6.65 21.95 27.8 -0.4 31.25 -3.55 30.85 -4.7 30.85 -4.7 30.7 -25.85 27.8 -24.05 6.65 -30.1 1.2 -33.1 13.3 -30.7 26.6 -31.9 27.2 -31.9 30.85 -28.9 33.25 -28.25 33.25 -28.9 38.1 -27.05 39.9 -35.55 47.2 -46.4 37.5 -42.8 32.65 -44.0 32.65 -44.6 29.05 -46.4 29.05 -53.05 -7.85 -49.45 -30.85 -50.05 -32.05 -20.85 -49.8 -21.6 -50.2 -19.2 -56.25 -18.6 -56.25 -1.05 -50.0 15.9 -56.25 M17.7 -50.8 L15.3 -54.45 -0.3 -49.05 -0.4 -48.9 4.4 -42.95 5.0 -42.95 17.7 -50.8 M23.75 -45.35 L24.15 -45.35 22.55 -46.55 22.3 -45.15 22.55 -45.35 22.55 -44.15 23.15 -43.55 23.75 -44.15 23.75 -44.75 24.35 -44.75 23.75 -45.35 M17.7 -32.65 L18.9 -32.65 19.45 -31.55 20.1 -32.05 15.9 -35.7 24.35 -35.7 24.35 -43.55 23.15 -43.55 22.55 -43.55 22.2 -44.25 21.3 -38.7 15.45 -37.35 15.9 -36.9 15.9 -36.3 15.9 -35.7 14.65 -35.1 14.45 -35.3 16.5 -32.05 -1.05 -19.35 -1.05 -16.35 10.4 -24.8 9.25 -25.4 9.25 -26.0 9.85 -25.4 11.05 -25.4 11.05 -26.6 11.65 -26.0 10.75 -25.1 18.5 -30.85 17.7 -30.85 18.3 -31.45 18.9 -31.45 17.7 -32.65 17.7 -32.05 17.1 -31.45 17.7 -31.45 17.7 -30.85 17.1 -30.85 16.5 -31.45 17.1 -32.65 17.7 -32.65 M14.05 -36.9 L14.05 -35.7 15.3 -35.7 15.3 -36.3 15.9 -36.3 15.3 -36.9 14.05 -36.9 14.25 -37.05 13.45 -36.9 13.7 -36.5 14.05 -36.9 M21.95 -38.1 L21.3 -37.5 21.95 -36.9 22.55 -36.9 22.55 -37.5 23.15 -37.5 22.55 -38.1 21.95 -38.1 M32.8 -14.5 L32.2 -15.7 28.6 -8.45 28.45 -8.2 29.2 -8.45 29.8 -8.45 30.4 -7.85 31.0 -6.65 30.4 -5.45 29.2 -4.85 27.35 -5.45 27.35 -6.35 20.1 6.05 29.8 -4.85 30.4 -4.85 39.7 -21.65 38.25 -21.15 37.05 -21.75 36.45 -23.0 37.05 -24.2 38.25 -24.8 38.85 -24.8 40.05 -24.2 40.6 -23.2 43.8 -29.05 42.5 -29.05 41.3 -29.05 40.7 -30.25 41.3 -31.45 42.5 -32.05 43.1 -32.05 44.3 -31.45 44.7 -30.65 45.5 -32.05 42.5 -33.85 32.85 -16.95 34.05 -17.55 34.65 -17.55 35.25 -16.95 35.85 -15.7 35.25 -14.5 35.25 -16.35 34.05 -16.95 32.8 -16.35 32.8 -14.5 35.25 -14.5 34.05 -13.9 32.8 -14.5 M20.7 -39.3 L21.95 -46.55 17.7 -49.0 0.15 -21.15 15.9 -32.05 13.6 -36.15 13.45 -36.3 13.5 -36.35 12.85 -37.5 20.7 -39.3 M20.7 -37.5 L21.3 -38.1 22.55 -38.7 23.15 -38.7 23.15 -38.1 23.75 -37.5 22.55 -36.3 21.3 -36.9 20.7 -37.5 M42.5 -29.05 L43.7 -29.65 43.7 -31.45 41.9 -31.45 41.3 -30.25 42.5 -29.05 M0.15 27.8 L0.15 28.45 0.1 28.45 0.15 29.95 20.7 27.8 18.9 6.65 41.3 -33.85 40.7 -33.85 25.55 -43.55 25.55 -35.1 18.3 -35.1 21.95 -31.45 -0.45 -15.95 0.05 24.4 0.15 25.4 17.7 23.8 0.1 25.95 0.1 27.15 0.15 27.2 0.15 27.8 0.1 27.8 0.15 27.8 M1.7 -40.5 L1.95 -40.5 5.7 -31.35 17.0 -49.15 3.8 -41.75 3.05 -42.7 1.7 -40.5 M0.75 -32.05 L0.15 -30.85 -1.65 -30.25 -2.85 -30.85 -3.45 -32.05 -2.85 -32.65 -1.65 -33.25 -1.05 -33.25 0.15 -32.65 0.75 -32.05 M0.15 -40.5 L2.55 -42.95 -1.25 -47.9 -3.65 -45.1 -5.3 -42.35 -3.45 -39.9 0.15 -40.5 M9.25 -26.0 L9.25 -26.6 10.45 -27.2 11.05 -27.2 11.05 -26.6 9.85 -26.6 9.25 -26.0 M4.4 -30.85 L0.15 -39.3 -3.45 -39.3 -6.5 -30.85 -1.65 -19.95 4.4 -30.85 M12.5 -19.5 L12.25 -19.35 9.25 -19.95 12.5 -19.5 19.5 -23.6 20.1 -23.6 20.1 -23.0 21.3 -23.6 21.75 -23.0 22.15 -22.45 24.95 -18.75 26.15 -18.75 26.15 -17.55 12.5 -19.5 M0.15 -19.35 L0.15 -19.95 0.75 -20.55 1.35 -20.55 0.15 -19.35 0.75 -19.35 0.75 -18.75 0.15 -18.75 0.15 -19.35 M1.95 -19.95 L2.55 -19.35 1.95 -18.75 1.95 -19.95 M38.25 -24.2 L37.05 -23.0 38.25 -21.75 39.45 -22.4 39.45 -23.6 38.25 -24.2 M28.0 -7.85 L28.0 -6.05 29.2 -5.45 29.8 -6.05 29.8 -6.65 30.4 -6.65 29.8 -7.85 28.0 -7.85 M41.9 25.4 L41.15 25.3 41.9 26.0 41.3 27.2 40.05 27.8 38.85 27.2 38.25 26.0 38.85 25.4 39.65 25.0 36.0 24.35 36.45 24.8 37.05 26.0 36.45 26.6 35.25 27.2 34.05 26.6 33.4 26.0 34.05 24.8 35.2 24.2 28.6 23.0 28.0 26.6 41.9 28.45 42.5 25.4 41.9 25.4 M48.55 -7.25 L44.9 -29.05 31.6 -4.85 26.75 0.6 29.8 13.3 29.8 13.9 28.6 22.4 42.5 24.8 48.55 -7.25 M41.3 26.0 L40.7 25.4 39.45 25.4 38.85 26.0 40.05 27.2 40.7 26.6 40.7 26.0 41.3 26.0 M31.0 24.2 L31.6 24.8 31.0 26.0 29.8 26.6 28.6 26.0 28.6 24.2 29.8 23.6 30.4 23.6 31.0 24.2 29.2 24.2 29.2 25.4 29.8 26.0 31.0 25.4 31.0 24.2 M18.9 26.0 L17.7 25.4 17.1 26.0 17.7 26.6 18.3 26.0 18.9 26.0 18.9 26.6 17.7 26.6 17.1 26.6 16.5 26.0 17.7 24.8 18.3 24.8 18.9 25.4 18.9 26.0 M11.05 26.0 L9.85 26.6 11.05 27.2 11.05 26.6 11.65 26.6 11.05 26.0 M11.65 26.0 L12.25 26.6 11.05 27.8 9.85 27.2 9.25 26.6 9.85 26.0 11.05 25.4 11.65 25.4 11.65 26.0 M3.2 26.6 L2.55 27.8 3.2 28.45 2.55 28.45 1.95 27.8 2.55 26.6 3.2 26.6 4.4 26.6 4.4 28.45 3.2 28.45 3.2 27.8 3.8 27.8 3.2 26.6 M35.85 24.8 L34.65 24.8 34.05 25.4 34.65 26.6 35.85 26.6 35.85 25.4 36.45 25.4 35.85 24.8 M40.05 32.05 L40.05 29.05 29.2 27.2 29.2 30.25 40.05 32.05 M29.8 31.45 L24.95 34.5 26.15 37.5 28.6 38.1 32.8 37.5 32.8 35.1 34.05 38.7 32.8 38.1 28.6 39.9 25.55 38.1 24.95 39.9 32.2 45.35 41.3 37.5 38.25 32.65 29.8 31.45 M-19.8 -50.8 L-7.7 -42.95 -7.1 -42.95 -2.25 -49.0 -18.0 -54.45 -19.8 -50.8 M-45.2 -33.85 L-22.85 6.65 -24.65 27.8 -0.45 30.25 -1.05 -14.5 -3.45 -16.35 -4.1 25.4 -22.3 23.7 -4.7 24.8 -4.1 -16.35 -25.85 -32.05 -21.6 -35.1 -28.9 -35.1 -29.5 -43.55 -44.6 -33.85 -45.2 -33.85 M-47.0 -32.05 L-46.4 -32.05 -44.6 -31.45 -44.6 -29.05 -46.4 -29.05 -47.65 -29.05 -48.25 -30.25 -47.65 -31.45 -47.0 -32.05 M-45.8 -33.85 L-49.45 -32.05 -34.3 -4.85 -33.7 -4.85 -23.45 6.05 -30.95 -6.8 -31.3 -6.05 -33.1 -5.45 -34.3 -6.05 -34.95 -7.25 -34.3 -8.45 -33.7 -9.05 -33.1 -9.05 -32.05 -8.7 -36.15 -16.9 -36.15 -14.5 -37.95 -13.9 -39.15 -14.5 -39.75 -15.7 -39.15 -16.95 -38.55 -17.55 -37.95 -17.55 -36.15 -16.95 -45.8 -33.85 M-46.4 -29.05 L-45.2 -29.65 -45.2 -31.45 -47.0 -31.45 -47.65 -30.25 -47.0 -30.25 -47.0 -29.65 -46.4 -29.05 M-42.2 -24.8 L-41.0 -24.2 -40.35 -23.0 -41.0 -21.75 -42.2 -21.15 -43.4 -21.75 -44.0 -23.0 -43.4 -24.2 -42.8 -24.8 -42.2 -24.8 M-42.2 -21.75 L-41.0 -22.4 -41.0 -23.6 -42.2 -24.2 -43.4 -23.0 -42.8 -23.0 -42.8 -22.4 -42.2 -21.75 M-51.85 -7.25 L-46.4 24.8 -31.9 22.4 -33.7 13.9 -33.7 13.3 -30.1 0.6 -35.55 -4.85 -48.85 -29.05 -51.85 -7.25 M-1.65 -42.35 L-2.85 -42.35 -3.45 -43.55 -2.85 -44.15 -1.65 -44.75 -1.05 -44.75 -0.45 -44.15 -2.25 -44.15 -2.85 -43.55 -1.65 -42.35 -0.45 -42.95 -0.45 -44.15 0.15 -43.55 -0.45 -42.35 -1.65 -42.35 M-6.5 -41.75 L-16.35 -47.25 -7.4 -31.25 -4.7 -39.9 -4.55 -39.9 -6.25 -42.05 -6.5 -41.75 M-19.5 -49.05 L-24.65 -45.95 -24.65 -39.3 -16.8 -37.5 -17.05 -36.95 -18.3 -37.2 -18.0 -36.9 -17.4 -36.3 -18.0 -35.7 -18.6 -35.1 -19.8 -35.7 -22.85 -32.65 -21.6 -32.65 -21.0 -32.65 -20.4 -31.45 -21.0 -30.85 -21.6 -30.85 -22.85 -30.85 -22.85 -31.45 -22.85 -32.65 -24.05 -31.45 -1.05 -15.1 -1.65 -18.75 -19.8 -32.05 -17.7 -35.4 -19.2 -32.05 -2.85 -21.15 -17.75 -48.05 -19.5 -49.05 M-18.0 -36.9 L-19.2 -36.9 -19.8 -36.3 -19.2 -36.3 -19.2 -35.7 -18.0 -35.7 -18.0 -36.9 M-19.8 -36.9 L-19.3 -37.4 -25.25 -38.7 -25.85 -46.55 -28.9 -44.75 -28.25 -44.75 -28.25 -43.55 -27.65 -44.15 -27.65 -44.75 -27.05 -44.75 -25.85 -44.15 -25.85 -43.55 -25.85 -42.95 -27.05 -42.35 -27.65 -42.95 -28.25 -43.55 -28.25 -35.7 -19.8 -35.7 -19.8 -36.3 -19.8 -36.9 M-12.55 -26.0 L-11.95 -26.0 -10.75 -24.8 -11.95 -23.6 -13.15 -24.2 -13.75 -24.8 -12.55 -26.0 M-13.15 -24.8 L-12.55 -24.8 -12.55 -24.2 -11.95 -24.2 -11.35 -24.8 -11.95 -25.4 -12.55 -25.4 -13.15 -24.8 M-2.85 -32.05 L-2.25 -30.85 -0.45 -30.85 -0.45 -32.05 0.15 -32.05 -0.45 -32.65 -2.25 -32.65 -2.85 -32.05 M-27.65 -44.15 L-27.65 -42.95 -26.45 -42.95 -25.85 -43.55 -26.45 -44.15 -27.65 -44.15 M-27.05 -37.5 L-27.05 -38.1 -26.45 -38.7 -25.85 -38.7 -25.25 -38.1 -26.45 -38.1 -27.05 -37.5 -26.45 -37.5 -26.45 -36.9 -25.25 -36.9 -25.25 -38.1 -24.65 -37.5 -25.25 -36.9 -25.85 -36.3 -27.05 -36.9 -27.05 -37.5 M-3.45 -18.75 L-3.45 -19.95 -2.85 -19.35 -3.45 -18.75 M-33.7 -7.25 L-33.7 -6.65 -33.1 -6.05 -31.9 -6.65 -31.9 -7.85 -33.1 -8.45 -34.3 -7.25 -33.7 -7.25 M-39.15 -15.7 L-38.55 -15.7 -38.55 -15.1 -37.95 -14.5 -36.75 -15.1 -36.75 -16.95 -38.55 -16.95 -39.15 -15.7 M-21.6 -32.65 L-22.85 -31.45 -22.25 -31.45 -21.6 -30.85 -21.0 -31.45 -21.0 -32.05 -21.6 -32.65 M-4.7 -19.95 L-5.3 -19.35 -4.7 -19.35 -4.7 -18.75 -4.1 -18.15 -5.3 -18.75 -5.3 -19.35 -5.3 -19.95 -4.7 -19.95 M-3.45 -10.3 L-2.85 -10.3 -2.25 -9.7 -1.65 -10.3 -2.25 -10.9 -1.65 -10.9 -1.05 -10.3 -2.25 -9.05 -3.45 -9.7 -3.45 -10.3 -3.45 -10.9 -2.25 -10.9 -3.45 -10.3 M-2.25 -3.0 L-1.65 -3.65 -2.25 -4.25 -2.85 -3.65 -2.25 -3.65 -2.25 -3.0 -3.45 -3.0 -3.45 -4.25 -2.85 -4.85 -2.25 -4.85 -1.05 -4.25 -1.05 -3.0 -2.25 -3.0 M-1.65 2.4 L-2.25 1.8 -2.85 2.4 -2.25 2.4 -2.25 3.05 -1.65 2.4 M-1.05 2.4 L-2.25 3.65 -3.45 3.05 -3.45 1.8 -2.85 1.2 -2.25 1.2 -1.05 2.4 M-2.25 9.7 L-1.65 9.05 -2.25 8.45 -3.45 9.05 -3.45 8.45 -2.85 7.85 -2.25 7.85 -1.05 9.05 -1.65 9.7 -2.25 9.7 -3.45 9.7 -3.45 9.05 -2.85 9.05 -2.25 9.7 M-2.25 14.5 L-1.05 14.5 -1.05 15.1 -2.25 14.5 -2.85 15.1 -2.25 15.1 -2.25 15.75 -1.05 15.1 -1.05 15.75 -2.25 16.35 -3.45 15.1 -2.85 14.5 -2.25 14.5 M-2.85 20.55 L-2.25 20.55 -1.05 21.8 -1.65 22.4 -2.25 22.4 -3.45 22.4 -3.45 21.15 -2.85 20.55 M-2.25 22.4 L-1.65 21.8 -2.25 21.15 -2.85 21.8 -2.25 21.8 -2.25 22.4 M-38.55 24.2 L-37.35 24.8 -36.75 26.0 -37.35 26.6 -38.55 27.2 -39.75 26.6 -40.35 26.0 -39.75 24.8 -39.25 24.25 -45.8 25.4 -46.4 25.4 -45.8 28.45 -31.3 26.6 -31.9 23.0 -38.8 24.2 -38.55 24.2 M-32.5 26.0 L-33.7 26.6 -34.95 26.0 -34.95 24.2 -34.3 23.6 -33.7 23.6 -32.5 24.2 -34.3 24.2 -34.3 26.0 -32.5 26.0 -32.5 24.2 -31.9 25.4 -32.5 26.0 M-21.0 26.0 L-21.0 26.6 -22.25 27.2 -23.45 26.0 -22.85 25.4 -22.25 25.4 -21.0 25.4 -21.0 26.0 -22.25 25.4 -22.85 26.0 -22.25 26.0 -22.25 26.6 -21.0 26.0 M-33.1 27.2 L-44.0 29.05 -43.4 32.05 -32.5 30.25 -33.1 27.2 M-37.95 26.6 L-37.35 26.0 -38.55 24.8 -39.75 26.0 -39.15 26.0 -39.15 26.6 -37.95 26.6 M-37.95 38.7 L-36.15 35.1 -36.15 37.5 -31.9 38.1 -29.5 37.5 -28.9 34.5 -33.1 31.45 -42.2 32.65 -44.6 37.5 -35.55 45.35 -28.9 39.9 -29.5 38.1 -31.9 39.9 -36.15 38.1 -37.95 38.7 M-1.65 27.8 L-2.85 29.05 -4.1 28.45 -4.1 27.8 -4.1 27.2 -2.85 27.2 -2.25 27.2 -1.65 27.8 M-4.1 27.8 L-3.45 27.8 -2.85 29.05 -2.25 27.8 -2.85 27.2 -4.1 27.8 M-9.5 26.6 L-8.9 26.6 -8.3 27.2 -9.5 28.45 -10.75 27.8 -10.75 27.2 -10.15 27.2 -9.5 27.8 -8.9 27.2 -9.5 26.6 -10.75 27.2 -10.75 26.6 -9.5 26.6 M-16.8 26.0 L-15.55 26.0 -15.55 26.6 -15.55 27.2 -16.8 27.8 -18.0 26.6 -17.4 26.0 -16.8 26.0 -17.4 26.6 -16.8 26.6 -16.8 27.8 -15.55 26.6 -16.8 26.0 M-42.2 26.6 L-42.8 27.8 -45.2 27.8 -45.8 26.6 -45.2 25.4 -44.0 25.4 -42.8 25.4 -42.2 26.6 M-45.2 26.6 L-44.6 26.6 -44.6 27.2 -43.4 27.2 -42.8 26.6 -44.0 25.4 -45.2 26.6" fill="#0d0f0d" fill-rule="evenodd" stroke="none"/>
      <path d="M17.7 -50.8 L5.0 -42.95 4.4 -42.95 -0.4 -48.9 -0.3 -49.05 15.3 -54.45 17.7 -50.8 M22.55 -45.35 L23.75 -45.35 24.35 -44.75 23.75 -44.75 23.75 -44.15 23.15 -43.55 22.55 -44.15 22.55 -45.35 M17.7 -32.65 L18.9 -31.45 18.3 -31.45 17.7 -30.85 17.7 -31.45 17.1 -31.45 17.7 -32.05 17.7 -32.65 M11.05 -26.6 L11.05 -25.4 9.85 -25.4 9.25 -26.0 9.85 -26.6 11.05 -26.6 M15.9 -36.3 L15.3 -36.3 15.3 -35.7 14.05 -35.7 14.05 -36.9 15.3 -36.9 15.9 -36.3 M21.95 -38.1 L22.55 -38.1 23.15 -37.5 22.55 -37.5 22.55 -36.9 21.95 -36.9 21.3 -37.5 21.95 -38.1 M32.8 -14.5 L32.8 -16.35 34.05 -16.95 35.25 -16.35 35.25 -14.5 32.8 -14.5 M42.5 -29.05 L41.3 -30.25 41.9 -31.45 43.7 -31.45 43.7 -29.65 42.5 -29.05 M1.7 -40.5 L3.05 -42.7 3.8 -41.75 17.0 -49.15 5.7 -31.35 1.95 -40.5 1.7 -40.5 M21.75 -23.0 L21.95 -23.0 22.15 -22.45 21.75 -23.0 M0.15 -19.35 L1.35 -20.55 1.95 -19.95 1.95 -18.75 0.75 -18.75 0.75 -19.35 0.15 -19.35 M38.25 -24.2 L39.45 -23.6 39.45 -22.4 38.25 -21.75 37.05 -23.0 38.25 -24.2 M28.0 -7.85 L29.8 -7.85 30.4 -6.65 29.8 -6.65 29.8 -6.05 29.2 -5.45 28.0 -6.05 28.0 -7.85 M41.3 26.0 L40.7 26.0 40.7 26.6 40.05 27.2 38.85 26.0 39.45 25.4 40.7 25.4 41.3 26.0 M31.0 24.2 L31.0 25.4 29.8 26.0 29.2 25.4 29.2 24.2 31.0 24.2 M16.5 12.7 L4.4 12.7 4.4 12.1 16.5 12.7 M18.9 26.0 L18.3 26.0 17.7 26.6 17.1 26.0 17.7 25.4 18.9 26.0 M11.05 26.0 L11.65 26.6 11.05 26.6 11.05 27.2 9.85 26.6 11.05 26.0 M3.2 28.45 L2.55 27.8 3.2 26.6 3.8 27.8 3.2 27.8 3.2 28.45 M35.85 24.8 L36.45 25.4 35.85 25.4 35.85 26.6 34.65 26.6 34.05 25.4 34.65 24.8 35.85 24.8 M-19.8 -50.8 L-18.0 -54.45 -2.25 -49.0 -7.1 -42.95 -7.7 -42.95 -19.8 -50.8 M-46.4 -29.05 L-47.0 -29.65 -47.0 -30.25 -47.65 -30.25 -47.0 -31.45 -45.2 -31.45 -45.2 -29.65 -46.4 -29.05 M-42.2 -21.75 L-42.8 -22.4 -42.8 -23.0 -43.4 -23.0 -42.2 -24.2 -41.0 -23.6 -41.0 -22.4 -42.2 -21.75 M-1.65 -42.35 L-2.85 -43.55 -2.25 -44.15 -0.45 -44.15 -0.45 -42.95 -1.65 -42.35 M-6.5 -41.75 L-6.25 -42.05 -4.55 -39.9 -4.7 -39.9 -7.4 -31.25 -16.35 -47.25 -6.5 -41.75 M-18.0 -36.9 L-18.0 -35.7 -19.2 -35.7 -19.2 -36.3 -19.8 -36.3 -19.2 -36.9 -18.0 -36.9 M-13.15 -24.8 L-12.55 -25.4 -11.95 -25.4 -11.35 -24.8 -11.95 -24.2 -12.55 -24.2 -12.55 -24.8 -13.15 -24.8 M-2.85 -32.05 L-2.25 -32.65 -0.45 -32.65 0.15 -32.05 -0.45 -32.05 -0.45 -30.85 -2.25 -30.85 -2.85 -32.05 M-27.65 -44.15 L-26.45 -44.15 -25.85 -43.55 -26.45 -42.95 -27.65 -42.95 -27.65 -44.15 M-27.05 -37.5 L-26.45 -38.1 -25.25 -38.1 -25.25 -36.9 -26.45 -36.9 -26.45 -37.5 -27.05 -37.5 M-21.6 -32.65 L-21.0 -32.05 -21.0 -31.45 -21.6 -30.85 -22.25 -31.45 -22.85 -31.45 -21.6 -32.65 M-39.15 -15.7 L-38.55 -16.95 -36.75 -16.95 -36.75 -15.1 -37.95 -14.5 -38.55 -15.1 -38.55 -15.7 -39.15 -15.7 M-33.7 -7.25 L-34.3 -7.25 -33.1 -8.45 -31.9 -7.85 -31.9 -6.65 -33.1 -6.05 -33.7 -6.65 -33.7 -7.25 M-3.45 -19.95 L-3.45 -18.75 -4.1 -18.15 -4.7 -18.75 -4.7 -19.35 -5.3 -19.35 -4.7 -19.95 -3.45 -19.95 M-2.25 -10.9 L-1.65 -10.3 -2.25 -9.7 -2.85 -10.3 -3.45 -10.3 -2.25 -10.9 M-2.25 -3.0 L-2.25 -3.65 -2.85 -3.65 -2.25 -4.25 -1.65 -3.65 -2.25 -3.0 M-1.65 2.4 L-2.25 3.05 -2.25 2.4 -2.85 2.4 -2.25 1.8 -1.65 2.4 M-3.45 9.05 L-2.25 8.45 -1.65 9.05 -2.25 9.7 -2.85 9.05 -3.45 9.05 M-2.25 14.5 L-1.05 15.1 -2.25 15.75 -2.25 15.1 -2.85 15.1 -2.25 14.5 M-2.25 22.4 L-2.25 21.8 -2.85 21.8 -2.25 21.15 -1.65 21.8 -2.25 22.4 M-19.8 12.7 L-7.7 12.1 -7.7 12.7 -19.8 12.7 M-32.5 26.0 L-34.3 26.0 -34.3 24.2 -32.5 24.2 -32.5 26.0 M-21.0 26.0 L-22.25 26.6 -22.25 26.0 -22.85 26.0 -22.25 25.4 -21.0 26.0 M-37.95 26.6 L-39.15 26.6 -39.15 26.0 -39.75 26.0 -38.55 24.8 -37.35 26.0 -37.95 26.6 M-4.1 27.8 L-2.85 27.2 -2.25 27.8 -2.85 29.05 -3.45 27.8 -4.1 27.8 M-9.5 26.6 L-8.9 27.2 -9.5 27.8 -10.15 27.2 -10.75 27.2 -9.5 26.6 M-16.8 26.0 L-15.55 26.6 -16.8 27.8 -16.8 26.6 -17.4 26.6 -16.8 26.0 M-45.2 26.6 L-44.0 25.4 -42.8 26.6 -43.4 27.2 -44.6 27.2 -44.6 26.6 -45.2 26.6" fill="#608051" fill-rule="evenodd" stroke="none"/>
      <path d="M0.15 -40.5 L-3.45 -39.9 -5.3 -42.35 -3.65 -45.1 -1.25 -47.9 2.55 -42.95 0.15 -40.5 M0.75 -32.05 L0.15 -32.65 -1.05 -33.25 -1.65 -33.25 -2.85 -32.65 -3.45 -32.05 -2.85 -30.85 -1.65 -30.25 0.15 -30.85 0.75 -32.05 M4.4 -30.85 L-1.65 -19.95 -6.5 -30.85 -3.45 -39.3 0.15 -39.3 4.4 -30.85 M-0.45 -44.15 L-1.05 -44.75 -1.65 -44.75 -2.85 -44.15 -3.45 -43.55 -2.85 -42.35 -1.65 -42.35 -0.45 -42.35 0.15 -43.55 -0.45 -44.15" fill="#21301e" fill-rule="evenodd" stroke="none"/>
      <path d="M22.55 -45.35 L22.3 -45.15 22.55 -46.55 24.15 -45.35 23.75 -45.35 22.55 -45.35 M23.15 -43.55 L24.35 -43.55 24.35 -35.7 15.9 -35.7 20.1 -32.05 19.45 -31.55 18.9 -32.65 17.7 -32.65 17.1 -32.65 16.5 -31.45 17.1 -30.85 17.7 -30.85 18.5 -30.85 10.75 -25.1 11.65 -26.0 11.05 -26.6 11.05 -27.2 10.45 -27.2 9.25 -26.6 9.25 -26.0 9.25 -25.4 10.4 -24.8 -1.05 -16.35 -1.05 -19.35 16.5 -32.05 14.45 -35.3 14.65 -35.1 15.9 -35.7 15.9 -36.3 15.9 -36.9 15.45 -37.35 21.3 -38.7 22.2 -44.25 22.55 -43.55 23.15 -43.55 M14.05 -36.9 L13.7 -36.5 13.45 -36.9 14.25 -37.05 14.05 -36.9 M20.7 -37.5 L21.3 -36.9 22.55 -36.3 23.75 -37.5 23.15 -38.1 23.15 -38.7 22.55 -38.7 21.3 -38.1 20.7 -37.5 M20.7 -39.3 L12.85 -37.5 13.5 -36.35 13.45 -36.3 13.6 -36.15 15.9 -32.05 0.15 -21.15 17.7 -49.0 21.95 -46.55 20.7 -39.3 M42.5 -29.05 L43.8 -29.05 40.6 -23.2 40.05 -24.2 38.85 -24.8 38.25 -24.8 37.05 -24.2 36.45 -23.0 37.05 -21.75 38.25 -21.15 39.7 -21.65 30.4 -4.85 29.8 -4.85 20.1 6.05 27.35 -6.35 27.35 -5.45 29.2 -4.85 30.4 -5.45 31.0 -6.65 30.4 -7.85 29.8 -8.45 29.2 -8.45 28.45 -8.2 28.6 -8.45 32.2 -15.7 32.8 -14.5 34.05 -13.9 35.25 -14.5 35.85 -15.7 35.25 -16.95 34.65 -17.55 34.05 -17.55 32.85 -16.95 42.5 -33.85 45.5 -32.05 44.7 -30.65 44.3 -31.45 43.1 -32.05 42.5 -32.05 41.3 -31.45 40.7 -30.25 41.3 -29.05 42.5 -29.05 M0.15 27.8 L0.15 27.2 0.1 27.15 0.1 25.95 17.7 23.8 0.15 25.4 0.05 24.4 -0.45 -15.95 21.95 -31.45 18.3 -35.1 25.55 -35.1 25.55 -43.55 40.7 -33.85 41.3 -33.85 18.9 6.65 20.7 27.8 0.15 29.95 0.1 28.45 0.15 28.45 0.15 27.8 M12.5 -19.5 L9.25 -19.95 12.25 -19.35 12.5 -19.5 26.15 -17.55 26.15 -18.75 24.95 -18.75 22.15 -22.45 21.95 -23.0 21.75 -23.0 21.3 -23.6 20.1 -23.0 20.1 -23.6 19.5 -23.6 12.5 -19.5 M1.35 -20.55 L0.75 -20.55 0.15 -19.95 0.15 -19.35 0.15 -18.75 0.75 -18.75 1.95 -18.75 2.55 -19.35 1.95 -19.95 1.35 -20.55 M48.55 -7.25 L42.5 24.8 28.6 22.4 29.8 13.9 29.8 13.3 26.75 0.6 31.6 -4.85 44.9 -29.05 48.55 -7.25 M41.9 25.4 L42.5 25.4 41.9 28.45 28.0 26.6 28.6 23.0 35.2 24.2 34.05 24.8 33.4 26.0 34.05 26.6 35.25 27.2 36.45 26.6 37.05 26.0 36.45 24.8 36.0 24.35 39.65 25.0 38.85 25.4 38.25 26.0 38.85 27.2 40.05 27.8 41.3 27.2 41.9 26.0 41.15 25.3 41.9 25.4 M31.0 24.2 L30.4 23.6 29.8 23.6 28.6 24.2 28.6 26.0 29.8 26.6 31.0 26.0 31.6 24.8 31.0 24.2 M16.5 12.7 L4.4 12.1 4.4 12.7 16.5 12.7 M18.9 26.0 L18.9 25.4 18.3 24.8 17.7 24.8 16.5 26.0 17.1 26.6 17.7 26.6 18.9 26.6 18.9 26.0 M11.65 26.0 L11.65 25.4 11.05 25.4 9.85 26.0 9.25 26.6 9.85 27.2 11.05 27.8 12.25 26.6 11.65 26.0 M3.2 26.6 L2.55 26.6 1.95 27.8 2.55 28.45 3.2 28.45 4.4 28.45 4.4 26.6 3.2 26.6 M40.05 32.05 L29.2 30.25 29.2 27.2 40.05 29.05 40.05 32.05 M-47.0 -32.05 L-47.65 -31.45 -48.25 -30.25 -47.65 -29.05 -46.4 -29.05 -44.6 -29.05 -44.6 -31.45 -46.4 -32.05 -47.0 -32.05 M-45.2 -33.85 L-44.6 -33.85 -29.5 -43.55 -28.9 -35.1 -21.6 -35.1 -25.85 -32.05 -4.1 -16.35 -4.7 24.8 -22.3 23.7 -4.1 25.4 -3.45 -16.35 -1.05 -14.5 -0.45 30.25 -24.65 27.8 -22.85 6.65 -45.2 -33.85 M-45.8 -33.85 L-36.15 -16.95 -37.95 -17.55 -38.55 -17.55 -39.15 -16.95 -39.75 -15.7 -39.15 -14.5 -37.95 -13.9 -36.15 -14.5 -36.15 -16.9 -32.05 -8.7 -33.1 -9.05 -33.7 -9.05 -34.3 -8.45 -34.95 -7.25 -34.3 -6.05 -33.1 -5.45 -31.3 -6.05 -30.95 -6.8 -23.45 6.05 -33.7 -4.85 -34.3 -4.85 -49.45 -32.05 -45.8 -33.85 M-42.2 -24.8 L-42.8 -24.8 -43.4 -24.2 -44.0 -23.0 -43.4 -21.75 -42.2 -21.15 -41.0 -21.75 -40.35 -23.0 -41.0 -24.2 -42.2 -24.8 M-51.85 -7.25 L-48.85 -29.05 -35.55 -4.85 -30.1 0.6 -33.7 13.3 -33.7 13.9 -31.9 22.4 -46.4 24.8 -51.85 -7.25 M-19.5 -49.05 L-17.75 -48.05 -2.85 -21.15 -19.2 -32.05 -17.7 -35.4 -19.8 -32.05 -1.65 -18.75 -1.05 -15.1 -24.05 -31.45 -22.85 -32.65 -22.85 -31.45 -22.85 -30.85 -21.6 -30.85 -21.0 -30.85 -20.4 -31.45 -21.0 -32.65 -21.6 -32.65 -22.85 -32.65 -19.8 -35.7 -18.6 -35.1 -18.0 -35.7 -17.4 -36.3 -18.0 -36.9 -18.3 -37.2 -17.05 -36.95 -16.8 -37.5 -24.65 -39.3 -24.65 -45.95 -19.5 -49.05 M-12.55 -26.0 L-13.75 -24.8 -13.15 -24.2 -11.95 -23.6 -10.75 -24.8 -11.95 -26.0 -12.55 -26.0 M-19.8 -36.9 L-19.8 -36.3 -19.8 -35.7 -28.25 -35.7 -28.25 -43.55 -27.65 -42.95 -27.05 -42.35 -25.85 -42.95 -25.85 -43.55 -25.85 -44.15 -27.05 -44.75 -27.65 -44.75 -27.65 -44.15 -28.25 -43.55 -28.25 -44.75 -28.9 -44.75 -25.85 -46.55 -25.25 -38.7 -19.3 -37.4 -19.8 -36.9 M-25.25 -38.1 L-25.85 -38.7 -26.45 -38.7 -27.05 -38.1 -27.05 -37.5 -27.05 -36.9 -25.85 -36.3 -25.25 -36.9 -24.65 -37.5 -25.25 -38.1 M-3.45 -18.75 L-2.85 -19.35 -3.45 -19.95 -4.7 -19.95 -5.3 -19.95 -5.3 -19.35 -5.3 -18.75 -4.1 -18.15 -3.45 -18.75 M-3.45 -10.3 L-3.45 -9.7 -2.25 -9.05 -1.05 -10.3 -1.65 -10.9 -2.25 -10.9 -3.45 -10.9 -3.45 -10.3 M-2.25 -3.0 L-1.05 -3.0 -1.05 -4.25 -2.25 -4.85 -2.85 -4.85 -3.45 -4.25 -3.45 -3.0 -2.25 -3.0 M-1.05 2.4 L-2.25 1.2 -2.85 1.2 -3.45 1.8 -3.45 3.05 -2.25 3.65 -1.05 2.4 M-2.25 9.7 L-1.65 9.7 -1.05 9.05 -2.25 7.85 -2.85 7.85 -3.45 8.45 -3.45 9.05 -3.45 9.7 -2.25 9.7 M-1.05 15.1 L-1.05 14.5 -2.25 14.5 -2.85 14.5 -3.45 15.1 -2.25 16.35 -1.05 15.75 -1.05 15.1 M-2.85 20.55 L-3.45 21.15 -3.45 22.4 -2.25 22.4 -1.65 22.4 -1.05 21.8 -2.25 20.55 -2.85 20.55 M-19.8 12.7 L-7.7 12.7 -7.7 12.1 -19.8 12.7 M-38.55 24.2 L-38.8 24.2 -31.9 23.0 -31.3 26.6 -45.8 28.45 -46.4 25.4 -45.8 25.4 -39.25 24.25 -39.75 24.8 -40.35 26.0 -39.75 26.6 -38.55 27.2 -37.35 26.6 -36.75 26.0 -37.35 24.8 -38.55 24.2 M-32.5 24.2 L-33.7 23.6 -34.3 23.6 -34.95 24.2 -34.95 26.0 -33.7 26.6 -32.5 26.0 -31.9 25.4 -32.5 24.2 M-21.0 26.0 L-21.0 25.4 -22.25 25.4 -22.85 25.4 -23.45 26.0 -22.25 27.2 -21.0 26.6 -21.0 26.0 M-33.1 27.2 L-32.5 30.25 -43.4 32.05 -44.0 29.05 -33.1 27.2 M-1.65 27.8 L-2.25 27.2 -2.85 27.2 -4.1 27.2 -4.1 27.8 -4.1 28.45 -2.85 29.05 -1.65 27.8 M-10.75 27.2 L-10.75 27.8 -9.5 28.45 -8.3 27.2 -8.9 26.6 -9.5 26.6 -10.75 26.6 -10.75 27.2 M-16.8 26.0 L-17.4 26.0 -18.0 26.6 -16.8 27.8 -15.55 27.2 -15.55 26.6 -15.55 26.0 -16.8 26.0 M-42.2 26.6 L-42.8 25.4 -44.0 25.4 -45.2 25.4 -45.8 26.6 -45.2 27.8 -42.8 27.8 -42.2 26.6" fill="#181e16" fill-rule="evenodd" stroke="none"/>
      <path d="M29.8 31.45 L38.25 32.65 41.3 37.5 32.2 45.35 24.95 39.9 25.55 38.1 28.6 39.9 32.8 38.1 34.05 38.7 32.8 35.1 32.8 37.5 28.6 38.1 26.15 37.5 24.95 34.5 29.8 31.45 M-37.95 38.7 L-36.15 38.1 -31.9 39.9 -29.5 38.1 -28.9 39.9 -35.55 45.35 -44.6 37.5 -42.2 32.65 -33.1 31.45 -28.9 34.5 -29.5 37.5 -31.9 38.1 -36.15 37.5 -36.15 35.1 -37.95 38.7" fill="#d9dae6" fill-rule="evenodd" stroke="none"/>
    </g>
  </defs>
</svg>
