<?xml version="1.0" encoding="UTF-8" standalone="no"?>
<svg xmlns:xlink="http://www.w3.org/1999/xlink" height="60.15px" width="47.35px" xmlns="http://www.w3.org/2000/svg">
  <g transform="matrix(1.0, 0.0, 0.0, 1.0, 23.7, 30.1)">
    <use height="60.15" transform="matrix(1.0, 0.0, 0.0, 1.0, -23.7, -30.1)" width="47.35" xlink:href="#shape0"/>
  </g>
  <defs>
    <g id="shape0" transform="matrix(1.0, 0.0, 0.0, 1.0, 23.7, 30.1)">
      <path d="M5.25 -28.3 L2.15 -28.45 Q1.75 -28.25 1.4 -28.15 -2.15 -24.5 -2.85 -19.25 L-3.5 -12.6 -2.95 -5.85 -2.55 -4.25 Q-1.55 2.45 1.75 8.5 L2.1 9.35 Q6.3 10.15 9.75 13.15 10.3 13.6 10.3 14.25 L6.6 12.5 Q-0.2 9.1 -7.9 11.05 -13.25 12.4 -17.7 15.55 -21.05 17.95 -22.7 21.6 -20.15 24.2 -17.1 25.8 -15.9 21.85 -12.55 18.9 -8.45 15.25 -2.9 14.85 -1.95 14.85 -1.2 15.25 L-1.15 15.35 -5.35 16.05 Q-11.2 18.05 -14.4 23.35 L-16.2 26.25 Q-13.2 27.65 -9.65 28.15 L2.65 28.55 5.0 28.3 Q12.35 27.4 19.3 25.05 21.1 24.4 22.3 23.0 L22.3 22.9 22.3 22.7 Q21.85 17.85 19.45 13.6 L19.0 12.95 19.0 12.85 18.95 12.7 17.85 11.55 15.2 7.75 Q10.2 1.05 8.3 -7.05 6.75 -13.75 7.45 -20.8 7.8 -24.5 5.95 -27.45 L5.25 -28.3 M5.8 -29.3 Q7.95 -28.05 8.25 -25.0 8.65 -21.35 8.45 -17.6 8.05 -10.1 10.65 -3.15 13.25 3.9 18.2 9.5 L18.95 10.45 19.15 10.75 Q22.65 15.7 23.6 21.7 23.75 22.45 23.45 23.0 23.75 24.1 22.0 24.95 16.3 27.55 10.05 28.85 L0.3 30.05 -3.15 30.05 Q-9.3 29.9 -15.0 28.05 -20.15 26.35 -23.4 22.25 L-23.65 22.0 -23.7 21.9 -23.65 21.5 -23.65 21.25 -23.65 21.05 Q-22.4 18.15 -20.05 16.0 -15.45 11.85 -9.4 10.2 L-4.05 9.2 Q-1.55 8.85 0.75 9.15 L0.05 7.7 -0.4 7.05 Q-3.25 0.85 -4.2 -5.85 -5.25 -13.25 -3.75 -20.55 -2.95 -24.45 -0.65 -27.7 0.35 -29.1 1.85 -29.65 L2.05 -29.6 2.95 -29.9 3.6 -30.1 Q4.85 -29.9 5.8 -29.3" fill="#000000" fill-rule="evenodd" stroke="none"/>
      <path d="M2.65 28.55 L-9.65 28.15 Q-13.2 27.65 -16.2 26.25 L-14.4 23.35 Q-11.2 18.05 -5.35 16.05 L-1.15 15.35 -1.2 15.25 Q-1.95 14.85 -2.9 14.85 -8.45 15.25 -12.55 18.9 -15.9 21.85 -17.1 25.8 -20.15 24.2 -22.7 21.6 -21.05 17.95 -17.7 15.55 -13.25 12.4 -7.9 11.05 -0.2 9.1 6.6 12.5 L10.3 14.25 Q10.3 13.6 9.75 13.15 6.3 10.15 2.1 9.35 L1.75 8.5 Q-1.55 2.45 -2.55 -4.25 L-2.95 -5.85 -3.5 -12.6 -2.85 -19.25 Q-2.15 -24.5 1.4 -28.15 1.75 -28.25 2.15 -28.45 L5.25 -28.3 Q2.5 -22.8 2.7 -16.5 L2.75 -12.5 2.95 -9.5 Q3.7 -4.35 5.45 0.55 7.35 6.0 10.5 10.5 L12.6 13.95 12.95 14.55 Q14.2 16.25 13.15 18.1 L12.35 19.4 Q10.55 22.25 7.95 24.45 L2.65 28.55" fill="#55bb65" fill-rule="evenodd" stroke="none"/>
      <path d="M5.25 -28.3 L5.95 -27.45 Q7.8 -24.5 7.45 -20.8 6.75 -13.75 8.3 -7.05 10.2 1.05 15.2 7.75 L17.85 11.55 18.95 12.7 19.0 12.85 19.0 12.95 19.45 13.6 Q21.85 17.85 22.3 22.7 L22.3 22.9 22.3 23.0 Q21.1 24.4 19.3 25.05 12.35 27.4 5.0 28.3 L2.65 28.55 7.95 24.45 Q10.55 22.25 12.35 19.4 L13.15 18.1 Q14.2 16.25 12.95 14.55 L12.6 13.95 10.5 10.5 Q7.35 6.0 5.45 0.55 3.7 -4.35 2.95 -9.5 L2.75 -12.5 2.7 -16.5 Q2.5 -22.8 5.25 -28.3" fill="#43a752" fill-rule="evenodd" stroke="none"/>
    </g>
  </defs>
</svg>
