<?xml version="1.0" encoding="UTF-8" standalone="no"?>
<svg xmlns:xlink="http://www.w3.org/1999/xlink" height="36.05px" width="272.1px" xmlns="http://www.w3.org/2000/svg">
  <g transform="matrix(1.0, 0.0, 0.0, 1.0, 123.85, -23.2)">
    <use height="33.6" transform="matrix(1.0, 0.0, 0.0, 1.0, -123.85, 25.65)" width="271.3" xlink:href="#text0"/>
    <use height="383.0" transform="matrix(0.0751, 0.0, 0.0, 0.0312, -91.203, 23.2201)" width="658.85" xlink:href="#button0"/>
    <use height="383.0" transform="matrix(0.0934, 0.0, 0.0, 0.0312, -32.3804, 23.2201)" width="658.85" xlink:href="#button1"/>
    <use height="383.0" transform="matrix(0.0998, 0.0, 0.0, 0.0312, 37.2234, 23.2201)" width="658.85" xlink:href="#button2"/>
    <use height="383.0" transform="matrix(0.0998, 0.0, 0.0, 0.0312, 82.5234, 38.1201)" width="658.85" xlink:href="#button3"/>
  </g>
  <defs>
    <g id="text0" transform="matrix(1.0, 0.0, 0.0, 1.0, -129.05, -1.65)">
      <g transform="matrix(1.0, 0.0, 0.0, 1.0, -39.05, 0.0)">
        <use fill="#33ccff" height="33.6" transform="matrix(0.1953, 0.0, 0.0, 0.1953, 194.0, 8.95)" width="271.3" xlink:href="#font_Helvetica_C0"/>
        <use fill="#33ccff" height="33.6" transform="matrix(0.1953, 0.0, 0.0, 0.1953, 201.2, 8.95)" width="271.3" xlink:href="#font_Helvetica_o0"/>
        <use fill="#33ccff" height="33.6" transform="matrix(0.1953, 0.0, 0.0, 0.1953, 206.75, 8.95)" width="271.3" xlink:href="#font_Helvetica_n0"/>
        <use fill="#33ccff" height="33.6" transform="matrix(0.1953, 0.0, 0.0, 0.1953, 212.3, 8.95)" width="271.3" xlink:href="#font_Helvetica_t0"/>
        <use fill="#33ccff" height="33.6" transform="matrix(0.1953, 0.0, 0.0, 0.1953, 214.95, 8.95)" width="271.3" xlink:href="#font_Helvetica_a0"/>
        <use fill="#33ccff" height="33.6" transform="matrix(0.1953, 0.0, 0.0, 0.1953, 220.5, 8.95)" width="271.3" xlink:href="#font_Helvetica_c0"/>
        <use fill="#33ccff" height="33.6" transform="matrix(0.1953, 0.0, 0.0, 0.1953, 225.5, 8.95)" width="271.3" xlink:href="#font_Helvetica_t0"/>
        <use fill="#33ccff" height="33.6" transform="matrix(0.1953, 0.0, 0.0, 0.1953, 231.1, 8.95)" width="271.3" xlink:href="#font_Helvetica_U0"/>
        <use fill="#33ccff" height="33.6" transform="matrix(0.1953, 0.0, 0.0, 0.1953, 238.3, 8.95)" width="271.3" xlink:href="#font_Helvetica_s0"/>
        <use fill="#33ccff" height="33.6" transform="matrix(0.1953, 0.0, 0.0, 0.1953, 251.7, 8.95)" width="271.3" xlink:href="#font_Helvetica__1"/>
        <use fill="#33ccff" height="33.6" transform="matrix(0.1953, 0.0, 0.0, 0.1953, 259.85, 8.95)" width="271.3" xlink:href="#font_Helvetica_P0"/>
        <use fill="#33ccff" height="33.6" transform="matrix(0.1953, 0.0, 0.0, 0.1953, 266.5, 8.95)" width="271.3" xlink:href="#font_Helvetica_r0"/>
        <use fill="#33ccff" height="33.6" transform="matrix(0.1953, 0.0, 0.0, 0.1953, 269.85, 8.95)" width="271.3" xlink:href="#font_Helvetica_i0"/>
        <use fill="#33ccff" height="33.6" transform="matrix(0.1953, 0.0, 0.0, 0.1953, 272.05, 8.95)" width="271.3" xlink:href="#font_Helvetica_v0"/>
        <use fill="#33ccff" height="33.6" transform="matrix(0.1953, 0.0, 0.0, 0.1953, 277.05, 8.95)" width="271.3" xlink:href="#font_Helvetica_a0"/>
        <use fill="#33ccff" height="33.6" transform="matrix(0.1953, 0.0, 0.0, 0.1953, 282.6, 8.95)" width="271.3" xlink:href="#font_Helvetica_c0"/>
        <use fill="#33ccff" height="33.6" transform="matrix(0.1953, 0.0, 0.0, 0.1953, 287.6, 8.95)" width="271.3" xlink:href="#font_Helvetica_y0"/>
        <use fill="#33ccff" height="33.6" transform="matrix(0.1953, 0.0, 0.0, 0.1953, 295.4, 8.95)" width="271.3" xlink:href="#font_Helvetica_P0"/>
        <use fill="#33ccff" height="33.6" transform="matrix(0.1953, 0.0, 0.0, 0.1953, 302.05, 8.95)" width="271.3" xlink:href="#font_Helvetica_o0"/>
        <use fill="#33ccff" height="33.6" transform="matrix(0.1953, 0.0, 0.0, 0.1953, 307.6, 8.95)" width="271.3" xlink:href="#font_Helvetica_l0"/>
        <use fill="#33ccff" height="33.6" transform="matrix(0.1953, 0.0, 0.0, 0.1953, 309.8, 8.95)" width="271.3" xlink:href="#font_Helvetica_i0"/>
        <use fill="#33ccff" height="33.6" transform="matrix(0.1953, 0.0, 0.0, 0.1953, 312.0, 8.95)" width="271.3" xlink:href="#font_Helvetica_c0"/>
        <use fill="#33ccff" height="33.6" transform="matrix(0.1953, 0.0, 0.0, 0.1953, 317.0, 8.95)" width="271.3" xlink:href="#font_Helvetica_y0"/>
        <use fill="#33ccff" height="33.6" transform="matrix(0.1953, 0.0, 0.0, 0.1953, 327.6, 8.95)" width="271.3" xlink:href="#font_Helvetica__1"/>
        <use fill="#33ccff" height="33.6" transform="matrix(0.1953, 0.0, 0.0, 0.1953, 335.75, 8.95)" width="271.3" xlink:href="#font_Helvetica_I0"/>
        <use fill="#33ccff" height="33.6" transform="matrix(0.1953, 0.0, 0.0, 0.1953, 338.55, 8.95)" width="271.3" xlink:href="#font_Helvetica_n0"/>
        <use fill="#33ccff" height="33.6" transform="matrix(0.1953, 0.0, 0.0, 0.1953, 344.1, 8.95)" width="271.3" xlink:href="#font_Helvetica_t0"/>
        <use fill="#33ccff" height="33.6" transform="matrix(0.1953, 0.0, 0.0, 0.1953, 346.9, 8.95)" width="271.3" xlink:href="#font_Helvetica_e0"/>
        <use fill="#33ccff" height="33.6" transform="matrix(0.1953, 0.0, 0.0, 0.1953, 352.45, 8.95)" width="271.3" xlink:href="#font_Helvetica_r0"/>
        <use fill="#33ccff" height="33.6" transform="matrix(0.1953, 0.0, 0.0, 0.1953, 355.8, 8.95)" width="271.3" xlink:href="#font_Helvetica_n0"/>
        <use fill="#33ccff" height="33.6" transform="matrix(0.1953, 0.0, 0.0, 0.1953, 361.35, 8.95)" width="271.3" xlink:href="#font_Helvetica_e0"/>
        <use fill="#33ccff" height="33.6" transform="matrix(0.1953, 0.0, 0.0, 0.1953, 366.9, 8.95)" width="271.3" xlink:href="#font_Helvetica_t0"/>
        <use fill="#33ccff" height="33.6" transform="matrix(0.1953, 0.0, 0.0, 0.1953, 372.5, 8.95)" width="271.3" xlink:href="#font_Helvetica_S0"/>
        <use fill="#33ccff" height="33.6" transform="matrix(0.1953, 0.0, 0.0, 0.1953, 379.15, 8.95)" width="271.3" xlink:href="#font_Helvetica_a0"/>
        <use fill="#33ccff" height="33.6" transform="matrix(0.1953, 0.0, 0.0, 0.1953, 384.7, 8.95)" width="271.3" xlink:href="#font_Helvetica_f0"/>
        <use fill="#33ccff" height="33.6" transform="matrix(0.1953, 0.0, 0.0, 0.1953, 387.5, 8.95)" width="271.3" xlink:href="#font_Helvetica_e0"/>
        <use fill="#33ccff" height="33.6" transform="matrix(0.1953, 0.0, 0.0, 0.1953, 393.05, 8.95)" width="271.3" xlink:href="#font_Helvetica_t0"/>
        <use fill="#33ccff" height="33.6" transform="matrix(0.1953, 0.0, 0.0, 0.1953, 395.85, 8.95)" width="271.3" xlink:href="#font_Helvetica_y0"/>
      </g>
      <g transform="matrix(1.0, 0.0, 0.0, 1.0, -39.05, 0.0)">
        <use fill="#33ccff" height="33.6" transform="matrix(0.1953, 0.0, 0.0, 0.1953, 167.3, 22.1)" width="271.3" xlink:href="#font_Helvetica_U0"/>
        <use fill="#33ccff" height="33.6" transform="matrix(0.1953, 0.0, 0.0, 0.1953, 174.5, 22.1)" width="271.3" xlink:href="#font_Helvetica_s0"/>
        <use fill="#33ccff" height="33.6" transform="matrix(0.1953, 0.0, 0.0, 0.1953, 179.5, 22.1)" width="271.3" xlink:href="#font_Helvetica_e0"/>
        <use fill="#33ccff" height="33.6" transform="matrix(0.1953, 0.0, 0.0, 0.1953, 187.85, 22.1)" width="271.3" xlink:href="#font_Helvetica_o0"/>
        <use fill="#33ccff" height="33.6" transform="matrix(0.1953, 0.0, 0.0, 0.1953, 193.4, 22.1)" width="271.3" xlink:href="#font_Helvetica_f0"/>
        <use fill="#33ccff" height="33.6" transform="matrix(0.1953, 0.0, 0.0, 0.1953, 199.0, 22.1)" width="271.3" xlink:href="#font_Helvetica_t0"/>
        <use fill="#33ccff" height="33.6" transform="matrix(0.1953, 0.0, 0.0, 0.1953, 201.8, 22.1)" width="271.3" xlink:href="#font_Helvetica_h0"/>
        <use fill="#33ccff" height="33.6" transform="matrix(0.1953, 0.0, 0.0, 0.1953, 207.35, 22.1)" width="271.3" xlink:href="#font_Helvetica_i0"/>
        <use fill="#33ccff" height="33.6" transform="matrix(0.1953, 0.0, 0.0, 0.1953, 209.55, 22.1)" width="271.3" xlink:href="#font_Helvetica_s0"/>
        <use fill="#33ccff" height="33.6" transform="matrix(0.1953, 0.0, 0.0, 0.1953, 217.35, 22.1)" width="271.3" xlink:href="#font_Helvetica_s0"/>
        <use fill="#33ccff" height="33.6" transform="matrix(0.1953, 0.0, 0.0, 0.1953, 222.35, 22.1)" width="271.3" xlink:href="#font_Helvetica_i0"/>
        <use fill="#33ccff" height="33.6" transform="matrix(0.1953, 0.0, 0.0, 0.1953, 224.55, 22.1)" width="271.3" xlink:href="#font_Helvetica_t0"/>
        <use fill="#33ccff" height="33.6" transform="matrix(0.1953, 0.0, 0.0, 0.1953, 227.35, 22.1)" width="271.3" xlink:href="#font_Helvetica_e0"/>
        <use fill="#33ccff" height="33.6" transform="matrix(0.1953, 0.0, 0.0, 0.1953, 235.7, 22.1)" width="271.3" xlink:href="#font_Helvetica_s0"/>
        <use fill="#33ccff" height="33.6" transform="matrix(0.1953, 0.0, 0.0, 0.1953, 240.7, 22.1)" width="271.3" xlink:href="#font_Helvetica_i0"/>
        <use fill="#33ccff" height="33.6" transform="matrix(0.1953, 0.0, 0.0, 0.1953, 242.9, 22.1)" width="271.3" xlink:href="#font_Helvetica_g0"/>
        <use fill="#33ccff" height="33.6" transform="matrix(0.1953, 0.0, 0.0, 0.1953, 248.45, 22.1)" width="271.3" xlink:href="#font_Helvetica_n0"/>
        <use fill="#33ccff" height="33.6" transform="matrix(0.1953, 0.0, 0.0, 0.1953, 254.0, 22.1)" width="271.3" xlink:href="#font_Helvetica_i0"/>
        <use fill="#33ccff" height="33.6" transform="matrix(0.1953, 0.0, 0.0, 0.1953, 256.2, 22.1)" width="271.3" xlink:href="#font_Helvetica_f0"/>
        <use fill="#33ccff" height="33.6" transform="matrix(0.1953, 0.0, 0.0, 0.1953, 259.0, 22.1)" width="271.3" xlink:href="#font_Helvetica_i0"/>
        <use fill="#33ccff" height="33.6" transform="matrix(0.1953, 0.0, 0.0, 0.1953, 261.2, 22.1)" width="271.3" xlink:href="#font_Helvetica_e0"/>
        <use fill="#33ccff" height="33.6" transform="matrix(0.1953, 0.0, 0.0, 0.1953, 266.75, 22.1)" width="271.3" xlink:href="#font_Helvetica_s0"/>
        <use fill="#33ccff" height="33.6" transform="matrix(0.1953, 0.0, 0.0, 0.1953, 274.55, 22.1)" width="271.3" xlink:href="#font_Helvetica_y0"/>
        <use fill="#33ccff" height="33.6" transform="matrix(0.1953, 0.0, 0.0, 0.1953, 279.55, 22.1)" width="271.3" xlink:href="#font_Helvetica_o0"/>
        <use fill="#33ccff" height="33.6" transform="matrix(0.1953, 0.0, 0.0, 0.1953, 285.1, 22.1)" width="271.3" xlink:href="#font_Helvetica_u0"/>
        <use fill="#33ccff" height="33.6" transform="matrix(0.1953, 0.0, 0.0, 0.1953, 290.65, 22.1)" width="271.3" xlink:href="#font_Helvetica_r0"/>
        <use fill="#33ccff" height="33.6" transform="matrix(0.1953, 0.0, 0.0, 0.1953, 296.8, 22.1)" width="271.3" xlink:href="#font_Helvetica_a0"/>
        <use fill="#33ccff" height="33.6" transform="matrix(0.1953, 0.0, 0.0, 0.1953, 302.35, 22.1)" width="271.3" xlink:href="#font_Helvetica_g0"/>
        <use fill="#33ccff" height="33.6" transform="matrix(0.1953, 0.0, 0.0, 0.1953, 307.9, 22.1)" width="271.3" xlink:href="#font_Helvetica_r0"/>
        <use fill="#33ccff" height="33.6" transform="matrix(0.1953, 0.0, 0.0, 0.1953, 311.25, 22.1)" width="271.3" xlink:href="#font_Helvetica_e0"/>
        <use fill="#33ccff" height="33.6" transform="matrix(0.1953, 0.0, 0.0, 0.1953, 316.8, 22.1)" width="271.3" xlink:href="#font_Helvetica_e0"/>
        <use fill="#33ccff" height="33.6" transform="matrix(0.1953, 0.0, 0.0, 0.1953, 322.35, 22.1)" width="271.3" xlink:href="#font_Helvetica_m0"/>
        <use fill="#33ccff" height="33.6" transform="matrix(0.1953, 0.0, 0.0, 0.1953, 330.7, 22.1)" width="271.3" xlink:href="#font_Helvetica_e0"/>
        <use fill="#33ccff" height="33.6" transform="matrix(0.1953, 0.0, 0.0, 0.1953, 336.25, 22.1)" width="271.3" xlink:href="#font_Helvetica_n0"/>
        <use fill="#33ccff" height="33.6" transform="matrix(0.1953, 0.0, 0.0, 0.1953, 341.8, 22.1)" width="271.3" xlink:href="#font_Helvetica_t0"/>
        <use fill="#33ccff" height="33.6" transform="matrix(0.1953, 0.0, 0.0, 0.1953, 347.4, 22.1)" width="271.3" xlink:href="#font_Helvetica_t0"/>
        <use fill="#33ccff" height="33.6" transform="matrix(0.1953, 0.0, 0.0, 0.1953, 350.2, 22.1)" width="271.3" xlink:href="#font_Helvetica_o0"/>
        <use fill="#33ccff" height="33.6" transform="matrix(0.1953, 0.0, 0.0, 0.1953, 358.55, 22.1)" width="271.3" xlink:href="#font_Helvetica_t0"/>
        <use fill="#33ccff" height="33.6" transform="matrix(0.1953, 0.0, 0.0, 0.1953, 361.35, 22.1)" width="271.3" xlink:href="#font_Helvetica_h0"/>
        <use fill="#33ccff" height="33.6" transform="matrix(0.1953, 0.0, 0.0, 0.1953, 366.9, 22.1)" width="271.3" xlink:href="#font_Helvetica_e0"/>
        <use fill="#33ccff" height="33.6" transform="matrix(0.1953, 0.0, 0.0, 0.1953, 375.25, 22.1)" width="271.3" xlink:href="#font_Helvetica_t0"/>
        <use fill="#33ccff" height="33.6" transform="matrix(0.1953, 0.0, 0.0, 0.1953, 378.05, 22.1)" width="271.3" xlink:href="#font_Helvetica_e0"/>
        <use fill="#33ccff" height="33.6" transform="matrix(0.1953, 0.0, 0.0, 0.1953, 383.6, 22.1)" width="271.3" xlink:href="#font_Helvetica_r0"/>
        <use fill="#33ccff" height="33.6" transform="matrix(0.1953, 0.0, 0.0, 0.1953, 386.95, 22.1)" width="271.3" xlink:href="#font_Helvetica_m0"/>
        <use fill="#33ccff" height="33.6" transform="matrix(0.1953, 0.0, 0.0, 0.1953, 395.3, 22.1)" width="271.3" xlink:href="#font_Helvetica_s0"/>
        <use fill="#33ccff" height="33.6" transform="matrix(0.1953, 0.0, 0.0, 0.1953, 403.1, 22.1)" width="271.3" xlink:href="#font_Helvetica_o0"/>
        <use fill="#33ccff" height="33.6" transform="matrix(0.1953, 0.0, 0.0, 0.1953, 408.65, 22.1)" width="271.3" xlink:href="#font_Helvetica_f0"/>
        <use fill="#33ccff" height="33.6" transform="matrix(0.1953, 0.0, 0.0, 0.1953, 414.25, 22.1)" width="271.3" xlink:href="#font_Helvetica_u0"/>
        <use fill="#33ccff" height="33.6" transform="matrix(0.1953, 0.0, 0.0, 0.1953, 419.8, 22.1)" width="271.3" xlink:href="#font_Helvetica_s0"/>
        <use fill="#33ccff" height="33.6" transform="matrix(0.1953, 0.0, 0.0, 0.1953, 424.8, 22.1)" width="271.3" xlink:href="#font_Helvetica_e0"/>
      </g>
    </g>
    <g id="font_Helvetica_C0">
      <path d="M25.85 -31.3 Q23.45 -33.1 19.75 -33.1 15.55 -33.1 12.7 -31.1 9.85 -29.05 8.7 -25.65 7.55 -22.25 7.55 -18.6 7.55 -13.95 8.95 -10.45 10.3 -6.95 13.15 -5.25 16.05 -3.5 19.4 -3.5 23.45 -3.5 26.3 -5.85 29.1 -8.2 30.1 -12.85 L34.95 -11.6 Q33.45 -5.65 29.5 -2.5 25.5 0.65 19.8 0.65 13.85 0.65 10.15 -1.75 6.45 -4.2 4.5 -8.75 2.55 -13.35 2.55 -18.6 2.55 -24.3 4.75 -28.55 6.95 -32.85 11.0 -35.05 15.0 -37.25 19.85 -37.25 25.35 -37.25 29.1 -34.45 32.85 -31.65 34.35 -26.6 L29.55 -25.45 Q28.3 -29.45 25.85 -31.3" fill-rule="evenodd" stroke="none"/>
    </g>
    <g id="font_Helvetica_o0">
      <path d="M6.35 -13.25 Q6.35 -8.15 8.55 -5.6 10.8 -3.1 14.15 -3.1 17.5 -3.1 19.75 -5.65 21.95 -8.2 21.95 -13.4 21.95 -18.35 19.75 -20.85 17.5 -23.4 14.15 -23.4 10.8 -23.4 8.55 -20.9 6.35 -18.35 6.35 -13.25 M5.8 -24.2 Q9.25 -27.15 14.15 -27.15 19.65 -27.15 23.1 -23.55 26.6 -19.95 26.6 -13.65 26.6 -8.5 25.05 -5.55 23.5 -2.65 20.6 -1.0 17.65 0.6 14.15 0.6 8.6 0.6 5.15 -2.95 1.7 -6.55 1.7 -13.25 1.7 -20.65 5.8 -24.2" fill-rule="evenodd" stroke="none"/>
    </g>
    <g id="font_Helvetica_n0">
      <path d="M7.45 -26.55 L7.45 -22.75 Q10.35 -27.15 15.9 -27.15 18.3 -27.15 20.3 -26.25 22.3 -25.4 23.3 -24.0 24.3 -22.6 24.7 -20.7 L24.95 -16.3 24.95 0.0 20.45 0.0 20.45 -16.15 Q20.45 -18.9 19.95 -20.25 19.4 -21.6 18.1 -22.4 16.75 -23.25 14.95 -23.25 12.05 -23.25 10.0 -21.4 7.9 -19.6 7.9 -14.5 L7.9 0.0 3.4 0.0 3.4 -26.55 7.45 -26.55" fill-rule="evenodd" stroke="none"/>
    </g>
    <g id="font_Helvetica_t0">
      <path d="M13.2 -26.55 L13.2 -23.05 8.7 -23.05 8.7 -7.5 Q8.7 -5.6 8.95 -5.05 9.15 -4.5 9.7 -4.15 10.25 -3.85 11.25 -3.85 L13.2 -4.0 13.85 -0.05 10.45 0.35 Q8.0 0.35 6.65 -0.4 5.3 -1.2 4.75 -2.45 4.2 -3.7 4.2 -7.75 L4.2 -23.05 0.9 -23.05 0.9 -26.55 4.2 -26.55 4.2 -33.1 8.7 -35.8 8.7 -26.55 13.2 -26.55" fill-rule="evenodd" stroke="none"/>
    </g>
    <g id="font_Helvetica_a0">
      <path d="M20.15 -26.35 Q22.25 -25.55 23.25 -24.3 24.25 -23.1 24.65 -21.25 L24.9 -17.1 24.9 -11.1 Q24.9 -4.85 25.2 -3.15 25.45 -1.5 26.3 0.0 L21.6 0.0 Q20.9 -1.4 20.7 -3.25 18.2 -1.15 15.9 -0.25 13.6 0.6 10.95 0.6 6.55 0.6 4.2 -1.5 1.85 -3.65 1.85 -7.0 1.85 -8.95 2.75 -10.55 3.65 -12.15 5.1 -13.15 6.5 -14.1 8.3 -14.6 L12.3 -15.3 Q17.75 -15.95 20.35 -16.85 L20.35 -18.0 Q20.35 -20.75 19.1 -21.9 17.35 -23.4 13.95 -23.4 10.8 -23.4 9.3 -22.3 7.75 -21.2 7.05 -18.35 L2.65 -18.95 Q3.25 -21.8 4.6 -23.5 6.0 -25.25 8.6 -26.2 11.2 -27.15 14.6 -27.15 18.0 -27.15 20.15 -26.35 M8.05 -4.1 Q9.4 -2.9 12.0 -2.9 14.6 -2.9 16.65 -4.05 18.65 -5.2 19.6 -7.15 20.35 -8.7 20.35 -11.65 L20.35 -13.3 Q17.9 -12.3 13.0 -11.6 L9.05 -10.7 Q7.9 -10.2 7.3 -9.25 6.65 -8.3 6.65 -7.1 6.65 -5.3 8.05 -4.1" fill-rule="evenodd" stroke="none"/>
    </g>
    <g id="font_Helvetica_c0">
      <path d="M14.1 -27.15 Q18.45 -27.15 21.2 -24.95 23.95 -22.75 24.7 -18.75 L20.35 -18.05 Q19.7 -20.75 18.15 -22.1 16.55 -23.45 14.3 -23.45 10.9 -23.45 8.75 -21.0 6.65 -18.55 6.65 -13.3 6.65 -7.95 8.7 -5.5 10.75 -3.1 14.05 -3.1 16.7 -3.1 18.45 -4.7 20.25 -6.35 20.7 -9.7 L25.15 -9.15 Q24.4 -4.55 21.45 -1.95 18.45 0.6 14.1 0.6 8.65 0.6 5.35 -2.95 2.0 -6.5 2.0 -13.15 2.0 -17.45 3.45 -20.7 4.85 -23.9 7.8 -25.5 10.7 -27.15 14.1 -27.15" fill-rule="evenodd" stroke="none"/>
    </g>
    <g id="font_Helvetica_U0">
      <path d="M32.85 -36.65 L32.85 -15.45 Q32.85 -9.95 31.6 -6.7 30.35 -3.45 27.1 -1.4 23.85 0.65 18.55 0.65 13.4 0.65 10.1 -1.15 6.85 -2.9 5.45 -6.25 4.05 -9.65 4.05 -15.45 L4.05 -36.65 8.9 -36.65 8.9 -15.5 Q8.9 -10.7 9.8 -8.45 10.65 -6.2 12.85 -4.95 15.0 -3.75 18.1 -3.75 23.45 -3.75 25.75 -6.15 28.0 -8.6 28.0 -15.5 L28.0 -36.65 32.85 -36.65" fill-rule="evenodd" stroke="none"/>
    </g>
    <g id="font_Helvetica_s0">
      <path d="M17.6 -26.25 Q19.95 -25.35 21.1 -23.8 22.2 -22.25 22.65 -19.7 L18.25 -19.1 Q17.95 -21.15 16.5 -22.3 15.05 -23.45 12.45 -23.45 9.35 -23.45 8.0 -22.4 6.7 -21.4 6.7 -20.0 6.7 -19.15 7.25 -18.45 7.8 -17.7 8.95 -17.25 L12.95 -16.1 19.6 -14.0 Q21.5 -13.2 22.55 -11.65 23.65 -10.1 23.65 -7.8 23.65 -5.55 22.35 -3.55 21.0 -1.55 18.55 -0.45 16.05 0.6 12.95 0.6 7.75 0.6 5.05 -1.55 2.35 -3.7 1.6 -7.9 L6.05 -8.6 Q6.4 -5.95 8.15 -4.5 9.85 -3.1 12.9 -3.1 16.0 -3.1 17.5 -4.35 19.0 -5.6 19.0 -7.3 19.0 -8.85 17.7 -9.7 16.75 -10.3 13.1 -11.25 8.15 -12.5 6.25 -13.4 4.3 -14.3 3.35 -15.9 2.35 -17.55 2.35 -19.5 2.35 -21.25 3.15 -22.75 3.95 -24.3 5.35 -25.3 6.4 -26.05 8.25 -26.6 L12.1 -27.15 Q15.25 -27.15 17.6 -26.25" fill-rule="evenodd" stroke="none"/>
    </g>
    <g id="font_Helvetica__1">
      <path d="M8.65 -37.25 L8.65 10.8 4.7 10.8 4.7 -37.25 8.65 -37.25" fill-rule="evenodd" stroke="none"/>
    </g>
    <g id="font_Helvetica_P0">
      <path d="M22.7 -32.0 L18.2 -32.3 8.8 -32.3 8.8 -19.2 18.3 -19.2 Q23.0 -19.2 24.95 -20.95 26.95 -22.7 26.95 -25.9 26.95 -28.2 25.8 -29.8 24.6 -31.45 22.7 -32.0 M27.9 -34.55 Q29.7 -33.3 30.85 -31.05 31.95 -28.75 31.95 -26.05 31.95 -21.35 28.95 -18.1 26.0 -14.9 18.2 -14.9 L8.8 -14.9 8.8 0.0 3.95 0.0 3.95 -36.65 17.8 -36.65 23.35 -36.3 Q26.05 -35.85 27.9 -34.55" fill-rule="evenodd" stroke="none"/>
    </g>
    <g id="font_Helvetica_r0">
      <path d="M7.4 -26.55 L7.4 -22.5 Q8.95 -25.35 10.25 -26.25 11.55 -27.15 13.15 -27.15 15.4 -27.15 17.75 -25.7 L16.2 -21.5 Q14.55 -22.5 12.9 -22.5 11.45 -22.5 10.25 -21.6 9.1 -20.7 8.6 -19.15 7.85 -16.75 7.85 -13.9 L7.85 0.0 3.35 0.0 3.35 -26.55 7.4 -26.55" fill-rule="evenodd" stroke="none"/>
    </g>
    <g id="font_Helvetica_i0">
      <path d="M7.9 -26.55 L7.9 0.0 3.4 0.0 3.4 -26.55 7.9 -26.55 M3.4 -31.45 L3.4 -36.65 7.9 -36.65 7.9 -31.45 3.4 -31.45" fill-rule="evenodd" stroke="none"/>
    </g>
    <g id="font_Helvetica_v0">
      <path d="M25.0 -26.55 L14.95 0.0 10.75 0.0 0.65 -26.55 5.4 -26.55 11.1 -10.65 12.8 -5.3 14.5 -10.35 20.4 -26.55 25.0 -26.55" fill-rule="evenodd" stroke="none"/>
    </g>
    <g id="font_Helvetica_y0">
      <path d="M25.15 -26.55 L15.05 0.45 Q13.45 4.85 12.55 6.5 11.35 8.7 9.8 9.75 8.25 10.8 6.1 10.8 L3.2 10.25 2.7 6.0 5.25 6.4 7.65 5.9 9.15 4.5 10.5 1.15 10.9 0.05 0.85 -26.55 5.7 -26.55 11.2 -11.15 13.15 -5.0 Q13.9 -8.1 15.0 -11.05 L20.65 -26.55 25.15 -26.55" fill-rule="evenodd" stroke="none"/>
    </g>
    <g id="font_Helvetica_l0">
      <path d="M7.8 -36.65 L7.8 0.0 3.3 0.0 3.3 -36.65 7.8 -36.65" fill-rule="evenodd" stroke="none"/>
    </g>
    <g id="font_Helvetica_I0">
      <path d="M9.65 -36.65 L9.65 0.0 4.8 0.0 4.8 -36.65 9.65 -36.65" fill-rule="evenodd" stroke="none"/>
    </g>
    <g id="font_Helvetica_e0">
      <path d="M6.8 -15.8 L21.6 -15.8 Q21.3 -19.15 19.9 -20.85 17.75 -23.45 14.35 -23.45 11.25 -23.45 9.15 -21.35 7.0 -19.3 6.8 -15.8 M18.8 -4.4 Q20.55 -5.7 21.55 -8.55 L26.2 -7.95 Q25.1 -3.9 22.15 -1.65 19.15 0.6 14.55 0.6 8.7 0.6 5.3 -2.95 1.9 -6.55 1.9 -13.05 1.9 -19.75 5.35 -23.45 8.8 -27.15 14.3 -27.15 19.6 -27.15 23.0 -23.5 26.35 -19.9 26.35 -13.3 L26.35 -12.1 6.55 -12.1 Q6.8 -7.75 9.0 -5.4 11.25 -3.1 14.55 -3.1 17.05 -3.1 18.8 -4.4" fill-rule="evenodd" stroke="none"/>
    </g>
    <g id="font_Helvetica_S0">
      <path d="M23.2 -31.2 Q21.05 -33.0 16.8 -33.0 12.4 -33.0 10.4 -31.35 8.4 -29.75 8.4 -27.5 8.4 -25.5 9.8 -24.25 11.2 -22.95 17.15 -21.6 23.05 -20.3 25.25 -19.3 28.45 -17.8 29.95 -15.55 31.5 -13.3 31.5 -10.35 31.5 -7.4 29.8 -4.8 28.15 -2.25 25.0 -0.8 21.85 0.65 17.95 0.65 12.95 0.65 9.6 -0.8 6.25 -2.25 4.35 -5.15 2.4 -8.1 2.3 -11.75 L6.9 -12.15 Q7.2 -9.4 8.4 -7.65 9.6 -5.9 12.1 -4.8 14.6 -3.7 17.7 -3.7 20.5 -3.7 22.6 -4.55 24.75 -5.35 25.8 -6.8 26.8 -8.25 26.8 -9.95 26.8 -11.65 25.8 -12.95 24.8 -14.25 22.5 -15.1 L16.0 -16.9 Q10.95 -18.1 8.9 -19.2 6.3 -20.55 5.0 -22.6 3.7 -24.65 3.7 -27.15 3.7 -29.95 5.3 -32.35 6.85 -34.75 9.9 -36.0 12.9 -37.25 16.6 -37.25 20.7 -37.25 23.8 -35.95 26.9 -34.65 28.6 -32.1 30.25 -29.55 30.4 -26.3 L25.75 -25.95 Q25.35 -29.45 23.2 -31.2" fill-rule="evenodd" stroke="none"/>
    </g>
    <g id="font_Helvetica_f0">
      <path d="M8.95 -26.55 L14.1 -26.55 14.1 -23.05 8.95 -23.05 8.95 0.0 4.45 0.0 4.45 -23.05 0.5 -23.05 0.5 -26.55 4.45 -26.55 4.45 -29.35 Q4.45 -32.05 4.95 -33.35 5.6 -35.1 7.25 -36.15 8.85 -37.25 11.8 -37.25 L16.0 -36.8 15.35 -32.9 12.7 -33.15 Q10.65 -33.15 9.8 -32.25 8.95 -31.4 8.95 -29.0 L8.95 -26.55" fill-rule="evenodd" stroke="none"/>
    </g>
    <g id="font_Helvetica_h0">
      <path d="M7.9 -36.65 L7.9 -23.5 Q11.05 -27.15 15.85 -27.15 18.8 -27.15 20.95 -25.95 23.15 -24.8 24.1 -22.75 25.0 -20.7 25.0 -16.8 L25.0 0.0 20.5 0.0 20.5 -16.8 Q20.5 -20.2 19.05 -21.7 17.6 -23.25 14.9 -23.25 12.9 -23.25 11.15 -22.2 9.4 -21.2 8.65 -19.4 7.9 -17.65 7.9 -14.5 L7.9 0.0 3.4 0.0 3.4 -36.65 7.9 -36.65" fill-rule="evenodd" stroke="none"/>
    </g>
    <g id="font_Helvetica_g0">
      <path d="M25.05 -26.55 L25.05 -3.6 Q25.05 2.6 23.8 5.2 22.55 7.8 19.8 9.3 17.05 10.8 13.05 10.8 8.3 10.8 5.4 8.65 2.45 6.5 2.55 2.2 L6.95 2.85 Q7.2 4.9 8.45 5.8 10.15 7.05 13.05 7.05 16.15 7.05 17.85 5.8 19.55 4.55 20.15 2.3 20.5 0.95 20.5 -3.45 17.55 0.0 13.15 0.0 7.65 0.0 4.65 -3.95 1.65 -7.9 1.65 -13.4 1.65 -17.2 3.05 -20.4 4.4 -23.65 7.05 -25.4 9.65 -27.15 13.15 -27.15 17.85 -27.15 20.9 -23.35 L20.9 -26.55 25.05 -26.55 M6.3 -13.75 Q6.3 -8.5 8.35 -6.1 10.45 -3.7 13.55 -3.7 16.65 -3.7 18.75 -6.1 20.85 -8.5 20.85 -13.6 20.85 -18.45 18.7 -20.95 16.55 -23.4 13.5 -23.4 10.5 -23.4 8.4 -20.95 6.3 -18.55 6.3 -13.75" fill-rule="evenodd" stroke="none"/>
    </g>
    <g id="font_Helvetica_u0">
      <path d="M24.8 -26.55 L24.8 0.0 20.8 0.0 20.8 -3.9 Q17.7 0.6 12.35 0.6 10.0 0.6 8.0 -0.3 5.95 -1.2 4.95 -2.55 3.95 -3.9 3.55 -5.9 3.3 -7.2 3.3 -10.1 L3.3 -26.55 7.8 -26.55 7.8 -11.8 Q7.8 -8.3 8.05 -7.05 8.5 -5.3 9.85 -4.25 11.25 -3.25 13.25 -3.25 15.3 -3.25 17.05 -4.3 18.85 -5.35 19.6 -7.1 20.3 -8.9 20.3 -12.3 L20.3 -26.55 24.8 -26.55" fill-rule="evenodd" stroke="none"/>
    </g>
    <g id="font_Helvetica_m0">
      <path d="M37.25 -24.95 Q39.35 -22.75 39.35 -18.2 L39.35 0.0 34.9 0.0 34.9 -16.7 Q34.9 -19.4 34.45 -20.6 34.0 -21.8 32.85 -22.5 31.7 -23.25 30.15 -23.25 27.35 -23.25 25.5 -21.35 23.65 -19.5 23.65 -15.4 L23.65 0.0 19.15 0.0 19.15 -17.25 Q19.15 -20.25 18.05 -21.75 16.95 -23.25 14.45 -23.25 12.55 -23.25 10.95 -22.25 9.35 -21.25 8.6 -19.3 7.9 -17.4 7.9 -13.75 L7.9 0.0 3.4 0.0 3.4 -26.55 7.4 -26.55 7.4 -22.8 Q8.65 -24.75 10.75 -25.95 12.8 -27.15 15.45 -27.15 18.4 -27.15 20.3 -25.9 22.2 -24.7 22.95 -22.5 26.1 -27.15 31.15 -27.15 35.1 -27.15 37.25 -24.95" fill-rule="evenodd" stroke="none"/>
    </g>
  </defs>
</svg>
