<?xml version="1.0" encoding="UTF-8" standalone="no"?>
<svg xmlns:xlink="http://www.w3.org/1999/xlink" height="97.5px" width="98.6px" xmlns="http://www.w3.org/2000/svg">
  <g transform="matrix(1.0, 0.0, 0.0, 1.0, 49.35, 48.75)">
    <use height="49.3" transform="matrix(-0.6505, 0.5143, -0.5143, -0.6505, 42.5521, -7.6247)" width="92.0" xlink:href="#shape0"/>
  </g>
  <defs>
    <g id="shape0" transform="matrix(1.0, 0.0, 0.0, 1.0, 46.0, 24.65)">
      <path d="M-21.8 -24.45 L-25.45 -21.2 -27.0 -19.8 Q-28.3 -18.6 -28.55 -17.1 L-23.1 -12.9 Q-15.25 -7.2 -6.5 -2.8 -5.1 -2.05 -3.3 -1.8 14.75 0.3 32.75 0.4 33.95 0.4 35.0 -0.2 L35.7 -2.35 37.05 -8.75 38.4 -8.15 Q38.3 -4.8 37.5 -1.75 37.15 -0.45 36.35 0.7 35.95 1.2 35.1 1.3 L33.55 1.7 Q24.15 1.9 14.75 1.3 L0.95 0.5 Q-5.35 -0.25 -11.15 -2.9 -20.9 -7.3 -29.15 -14.2 -30.35 -15.15 -31.25 -16.55 -30.95 -18.2 -29.65 -19.4 L-23.7 -24.5 -21.8 -24.45" fill="#985532" fill-rule="evenodd" stroke="none"/>
      <path d="M-32.05 -24.65 Q-36.1 -21.55 -39.45 -17.9 L-42.35 -14.4 -42.85 -13.4 Q-42.2 -12.3 -41.05 -11.55 -31.75 -5.4 -21.9 -0.55 L-8.35 5.75 Q-2.0 8.5 4.85 8.9 L30.5 10.7 41.6 10.35 Q42.65 9.2 43.2 7.4 44.4 3.5 44.4 -0.6 L44.15 -3.3 43.7 -4.5 42.7 -5.9 Q45.9 -4.45 46.0 -0.95 L46.0 3.65 Q45.9 6.0 45.4 8.25 45.2 9.35 44.15 10.25 42.55 11.7 40.5 12.45 38.35 13.2 36.25 12.95 L18.35 11.9 -3.35 9.9 -4.9 9.4 Q-14.6 5.35 -24.1 0.75 L-35.55 -4.75 Q-37.9 -5.85 -39.85 -7.45 L-44.65 -11.35 Q-45.5 -12.15 -46.0 -13.1 L-44.9 -14.85 Q-39.95 -20.0 -34.7 -24.4 L-32.05 -24.65" fill="#8e4a27" fill-rule="evenodd" stroke="none"/>
      <path d="M1.6 -22.35 L1.4 -22.4 1.85 -22.35 1.6 -22.35 M-23.7 -24.5 L-29.65 -19.4 Q-30.95 -18.2 -31.25 -16.55 -30.35 -15.15 -29.15 -14.2 -20.9 -7.3 -11.15 -2.9 -5.35 -0.25 0.95 0.5 L14.75 1.3 Q24.15 1.9 33.55 1.7 L35.1 1.3 Q35.95 1.2 36.35 0.7 37.15 -0.45 37.5 -1.75 38.3 -4.8 38.4 -8.15 L42.7 -5.9 43.7 -4.5 44.15 -3.3 44.4 -0.6 Q44.4 3.5 43.2 7.4 42.65 9.2 41.6 10.35 L30.5 10.7 4.85 8.9 Q-2.0 8.5 -8.35 5.75 L-21.9 -0.55 Q-31.75 -5.4 -41.05 -11.55 -42.2 -12.3 -42.85 -13.4 L-42.35 -14.4 -39.45 -17.9 Q-36.1 -21.55 -32.05 -24.65 L-23.7 -24.5" fill="#c37850" fill-rule="evenodd" stroke="none"/>
      <path d="M1.4 -22.4 L1.6 -22.35 1.15 -22.45 1.4 -22.4" fill="url(#gradient0)" fill-rule="evenodd" stroke="none"/>
      <path d="M1.15 -22.45 L1.6 -22.35 1.85 -22.35 10.1 -20.55 37.05 -8.75 35.7 -2.35 35.0 -0.2 Q33.95 0.4 32.75 0.4 14.75 0.3 -3.3 -1.8 -5.1 -2.05 -6.5 -2.8 -15.25 -7.2 -23.1 -12.9 L-28.55 -17.1 Q-28.3 -18.6 -27.0 -19.8 L-25.45 -21.2 -21.8 -24.45 1.15 -22.45 M1.4 -9.25 Q0.45 -8.95 -0.3 -7.55 -0.9 -6.05 -0.25 -5.3 0.4 -4.5 1.3 -5.15 1.85 -5.7 2.1 -6.7 L2.4 -8.6 2.45 -9.55 1.4 -9.25 M9.65 -4.15 Q9.85 -3.05 10.85 -2.9 11.9 -2.9 12.1 -4.0 12.3 -5.1 12.15 -6.25 L12.0 -7.5 Q10.7 -7.45 10.1 -6.35 9.5 -5.3 9.65 -4.15 M16.05 -6.7 Q16.0 -4.9 17.05 -3.3 L17.65 -2.6 18.6 -2.85 16.7 -7.75 16.05 -6.7 M27.95 -4.65 Q26.3 -6.35 24.25 -7.5 L24.1 -7.05 Q26.0 -3.5 29.3 -1.2 29.4 -3.25 27.95 -4.65 M33.4 -3.3 L33.85 -3.5 33.95 -4.45 30.8 -7.45 Q29.8 -8.25 28.65 -8.85 29.7 -5.7 32.4 -3.95 L33.4 -3.3 M-21.45 -19.15 Q-19.4 -19.3 -17.75 -20.4 -20.35 -22.1 -23.4 -20.95 L-23.75 -20.4 Q-22.95 -19.2 -21.45 -19.15 M-23.0 -15.75 L-19.25 -17.4 -21.3 -17.9 -24.8 -16.6 -23.0 -15.75 M-18.1 -15.35 L-18.95 -13.8 -18.7 -12.75 -18.05 -12.2 Q-16.6 -12.2 -15.65 -13.15 L-14.0 -14.75 -18.1 -15.35 M-10.9 -10.65 Q-9.5 -11.5 -8.85 -13.15 L-11.5 -13.8 -12.45 -11.05 -11.6 -10.4 -10.9 -10.65 M-5.65 -8.5 Q-5.25 -7.6 -4.65 -7.15 -4.0 -6.65 -3.8 -7.25 L-2.75 -10.6 Q-5.1 -10.8 -5.65 -8.5" fill="url(#gradient1)" fill-rule="evenodd" stroke="none"/>
      <path d="M27.95 -4.65 Q29.4 -3.25 29.3 -1.2 26.0 -3.5 24.1 -7.05 L24.25 -7.5 Q26.3 -6.35 27.95 -4.65 M16.05 -6.7 L16.7 -7.75 18.6 -2.85 17.65 -2.6 17.05 -3.3 Q16.0 -4.9 16.05 -6.7 M9.65 -4.15 Q9.5 -5.3 10.1 -6.35 10.7 -7.45 12.0 -7.5 L12.15 -6.25 Q12.3 -5.1 12.1 -4.0 11.9 -2.9 10.85 -2.9 9.85 -3.05 9.65 -4.15 M1.4 -9.25 L2.45 -9.55 2.4 -8.6 2.1 -6.7 Q1.85 -5.7 1.3 -5.15 0.4 -4.5 -0.25 -5.3 -0.9 -6.05 -0.3 -7.55 0.45 -8.95 1.4 -9.25 M33.4 -3.3 L32.4 -3.95 Q29.7 -5.7 28.65 -8.85 29.8 -8.25 30.8 -7.45 L33.95 -4.45 33.85 -3.5 33.4 -3.3 M-23.0 -15.75 L-24.8 -16.6 -21.3 -17.9 -19.25 -17.4 -23.0 -15.75 M-21.45 -19.15 Q-22.95 -19.2 -23.75 -20.4 L-23.4 -20.95 Q-20.35 -22.1 -17.75 -20.4 -19.4 -19.3 -21.45 -19.15 M-5.65 -8.5 Q-5.1 -10.8 -2.75 -10.6 L-3.8 -7.25 Q-4.0 -6.65 -4.65 -7.15 -5.25 -7.6 -5.65 -8.5 M-10.9 -10.65 L-11.6 -10.4 -12.45 -11.05 -11.5 -13.8 -8.85 -13.15 Q-9.5 -11.5 -10.9 -10.65 M-18.1 -15.35 L-14.0 -14.75 -15.65 -13.15 Q-16.6 -12.2 -18.05 -12.2 L-18.7 -12.75 -18.95 -13.8 -18.1 -15.35" fill="#bf6844" fill-rule="evenodd" stroke="none"/>
      <path d="M31.45 17.65 L-6.5 16.0 -37.65 0.8 -38.55 -2.75 -5.05 11.85 34.8 14.4 31.45 17.65" fill="#454240" fill-rule="evenodd" stroke="none"/>
      <path d="M-39.85 -7.45 Q-37.9 -5.85 -35.55 -4.75 L-24.1 0.75 Q-14.6 5.35 -4.9 9.4 L-3.35 9.9 18.35 11.9 36.25 12.95 34.8 14.4 -5.05 11.85 -38.55 -2.75 -39.85 -7.45 M31.45 17.65 L24.0 24.65 -8.7 23.45 -34.65 10.55 -37.65 0.8 -6.5 16.0 31.45 17.65" fill="#54504e" fill-rule="evenodd" stroke="none"/>
    </g>
    <radialGradient cx="0" cy="0" gradientTransform="matrix(0.0414, 0.0, 0.0, 0.0414, 0.65, 0.2)" gradientUnits="userSpaceOnUse" id="gradient0" r="819.2" spreadMethod="pad">
      <stop offset="0.054901960784313725" stop-color="#e8caa7"/>
      <stop offset="0.9568627450980393" stop-color="#cd7343"/>
    </radialGradient>
    <radialGradient cx="0" cy="0" gradientTransform="matrix(0.0301, 0.0, 0.0, 0.0301, 4.35, -12.25)" gradientUnits="userSpaceOnUse" id="gradient1" r="819.2" spreadMethod="pad">
      <stop offset="0.054901960784313725" stop-color="#e8caa7"/>
      <stop offset="0.9568627450980393" stop-color="#cd7343"/>
    </radialGradient>
  </defs>
</svg>
