<?xml version="1.0" encoding="UTF-8" standalone="no"?>
<svg xmlns:xlink="http://www.w3.org/1999/xlink" height="97.5px" width="98.6px" xmlns="http://www.w3.org/2000/svg">
  <g transform="matrix(1.0, 0.0, 0.0, 1.0, 49.35, 48.75)">
    <use height="74.2" transform="matrix(-0.6505, 0.5143, -0.5143, -0.6505, 43.9468, 4.4347)" width="76.6" xlink:href="#shape0"/>
  </g>
  <defs>
    <g id="shape0" transform="matrix(1.0, 0.0, 0.0, 1.0, 38.3, 37.1)">
      <path d="M7.6 -31.0 L12.85 -26.4 Q22.3 -18.55 28.65 -8.05 29.6 -6.5 30.05 -4.75 30.5 -3.2 30.4 -1.45 30.2 3.05 29.35 7.25 28.45 11.7 26.3 16.0 L24.2 19.25 Q23.05 20.5 21.1 20.4 L14.2 21.0 9.15 21.0 Q2.2 20.05 -4.55 18.45 -6.45 18.05 -7.7 16.9 L-19.35 5.85 Q-24.55 0.45 -28.8 -6.2 -29.4 -7.15 -29.4 -8.2 -29.3 -13.7 -27.85 -19.1 -26.05 -25.85 -23.3 -32.25 -17.1 -33.85 -10.7 -33.85 -1.45 -33.25 7.6 -31.0 M27.05 -7.05 L22.95 -13.0 Q19.85 -17.25 16.0 -21.0 L7.05 -29.1 Q1.55 -30.5 -4.0 -31.25 -12.8 -32.4 -21.4 -30.2 -23.4 -25.75 -24.75 -21.05 -26.55 -14.9 -27.1 -8.75 -27.2 -7.55 -26.55 -6.45 -23.3 -1.35 -19.2 3.25 -13.2 9.85 -6.25 15.25 -5.35 15.65 -4.5 16.0 L7.1 18.4 10.05 18.75 20.9 18.05 Q22.35 18.1 23.05 16.7 26.25 10.6 27.5 4.0 28.3 -0.15 27.9 -4.55 27.75 -5.85 27.05 -7.05" fill="#985532" fill-rule="evenodd" stroke="none"/>
      <path d="M7.6 -31.0 Q-1.45 -33.25 -10.7 -33.85 -17.1 -33.85 -23.3 -32.25 -26.05 -25.85 -27.85 -19.1 -29.3 -13.7 -29.4 -8.2 -29.4 -7.15 -28.8 -6.2 -24.55 0.45 -19.35 5.85 L-7.7 16.9 Q-6.45 18.05 -4.55 18.45 2.2 20.05 9.15 21.0 L14.2 21.0 21.1 20.4 Q23.05 20.5 24.2 19.25 L26.3 16.0 Q28.45 11.7 29.35 7.25 30.2 3.05 30.4 -1.45 30.5 -3.2 30.05 -4.75 29.6 -6.5 28.65 -8.05 22.3 -18.55 12.85 -26.4 L7.6 -31.0 M32.8 -6.25 Q34.15 -4.35 34.7 -2.1 L35.75 2.45 Q36.2 4.7 35.65 6.95 L32.15 19.95 31.2 22.5 Q29.9 25.05 27.55 26.75 25.9 27.95 23.8 28.7 L21.15 29.0 1.55 28.65 Q-5.7 27.95 -11.65 23.75 -13.55 22.45 -15.05 20.8 L-30.95 2.55 Q-32.95 0.3 -34.0 -2.45 -35.4 -6.1 -35.6 -10.15 -35.7 -12.3 -35.1 -14.55 L-31.55 -26.4 Q-31.15 -27.7 -30.35 -28.8 L-28.6 -31.05 Q-25.55 -34.2 -21.1 -34.7 L-3.65 -34.85 Q6.05 -34.2 13.25 -27.55 L31.1 -8.6 32.8 -6.25" fill="#c37850" fill-rule="evenodd" stroke="none"/>
      <path d="M4.85 -28.35 L4.65 -24.75 6.3 -24.55 5.8 -28.0 5.3 -28.4 4.85 -28.35 M18.95 -13.35 L20.55 -14.0 20.15 -14.85 14.45 -15.15 14.9 -13.6 18.95 -13.35 M16.35 -19.4 L16.05 -19.5 Q14.6 -19.1 14.0 -17.55 L16.5 -18.2 Q17.35 -18.75 16.35 -19.4 M26.5 -4.15 L27.8 -4.35 27.55 -5.2 Q25.2 -6.8 22.3 -6.8 L20.35 -6.6 Q22.85 -3.95 26.5 -4.15 M27.05 -7.05 Q27.75 -5.85 27.9 -4.55 28.3 -0.15 27.5 4.0 26.25 10.6 23.05 16.7 22.35 18.1 20.9 18.05 L10.05 18.75 7.1 18.4 -4.5 16.0 Q-5.35 15.65 -6.25 15.25 -13.2 9.85 -19.2 3.25 -23.3 -1.35 -26.55 -6.45 -27.2 -7.55 -27.1 -8.75 -26.55 -14.9 -24.75 -21.05 -23.4 -25.75 -21.4 -30.2 -12.8 -32.4 -4.0 -31.25 1.55 -30.5 7.05 -29.1 L16.0 -21.0 Q19.85 -17.25 22.95 -13.0 L27.05 -7.05 M19.4 -0.35 Q19.5 1.15 20.8 1.9 23.0 3.05 25.15 3.05 L25.2 2.3 20.25 -0.55 19.4 -0.35 M-19.25 -28.55 Q-19.8 -28.0 -19.15 -27.15 L-17.6 -25.7 -16.6 -25.0 Q-15.45 -24.6 -15.2 -25.0 -15.0 -25.4 -15.2 -25.9 L-15.4 -26.5 -16.1 -27.25 Q-16.8 -27.95 -17.7 -28.5 L-19.25 -28.55 M-7.0 -30.8 L-7.55 -30.9 -9.55 -29.8 -8.1 -26.8 Q-7.3 -25.25 -5.85 -25.45 L-5.5 -25.95 Q-5.25 -28.65 -7.0 -30.8 M-2.55 -29.35 Q-2.85 -27.75 -2.0 -26.25 L-0.05 -25.75 Q0.0 -27.25 -0.4 -28.65 -0.65 -29.6 -1.75 -29.85 -2.45 -29.85 -2.55 -29.35 M-24.45 -15.95 L-23.05 -14.45 -18.7 -14.5 -20.2 -16.05 -24.05 -16.35 -24.45 -15.95 M-22.6 -21.1 Q-22.15 -20.35 -21.35 -19.9 -20.15 -19.15 -18.75 -18.65 -19.5 -21.9 -22.65 -23.25 -23.2 -23.35 -23.15 -22.9 -23.1 -21.95 -22.6 -21.1 M-21.8 -7.3 Q-20.5 -7.8 -19.45 -8.45 L-23.45 -10.25 -23.6 -10.2 Q-25.05 -9.45 -24.9 -7.9 -24.8 -7.2 -24.1 -6.95 L-21.8 -7.3 M-18.75 -1.95 L-19.8 0.2 -19.75 0.95 -18.85 1.65 Q-17.6 1.55 -17.05 0.4 L-16.0 -1.3 -18.75 -1.95 M-6.35 9.0 Q-6.85 7.7 -7.65 6.7 L-8.2 5.9 Q-9.25 6.85 -9.25 8.35 -9.3 10.25 -7.9 11.15 L-6.5 10.95 Q-5.9 10.05 -6.35 9.0 M-15.9 3.65 L-14.55 5.25 Q-12.55 4.0 -12.8 1.45 L-15.3 2.25 -15.9 3.65 M23.25 6.05 Q20.8 3.8 17.7 2.65 L18.1 4.1 Q20.8 6.6 24.2 8.15 24.1 6.85 23.25 6.05 M12.5 9.65 Q11.15 10.95 11.45 12.85 11.65 13.9 12.55 14.4 L14.25 14.55 Q14.5 12.6 13.3 10.9 L12.5 9.65 M16.3 12.35 Q17.3 13.65 18.9 13.9 L19.55 13.6 19.3 12.75 15.2 9.75 Q14.8 10.2 15.2 10.8 L16.3 12.35 M0.5 11.0 L1.6 15.9 Q3.15 15.05 3.25 13.2 3.4 11.15 1.55 10.25 L0.5 11.0 M7.25 11.05 Q5.95 10.75 5.65 11.6 5.3 12.4 5.75 13.45 6.25 14.5 7.35 14.95 8.35 15.2 8.3 14.25 L7.75 12.2 7.25 11.05" fill="url(#gradient0)" fill-rule="evenodd" stroke="none"/>
      <path d="M-20.3 18.7 L-34.0 2.95 Q-35.45 1.25 -36.35 -0.65 -39.35 -7.15 -37.7 -14.1 -36.0 -21.4 -33.7 -28.5 L-32.55 -30.95 Q-30.5 -34.0 -27.2 -35.65 -24.85 -36.9 -21.8 -36.95 L-1.65 -37.1 Q4.05 -36.5 8.95 -33.75 11.55 -32.25 13.75 -30.0 L33.6 -8.9 34.5 -7.7 Q37.65 -3.4 38.2 2.15 38.45 4.5 37.9 6.65 L33.9 22.25 Q33.35 24.35 32.05 25.95 L30.1 28.0 27.85 29.7 25.7 30.85 21.2 31.25 Q10.75 31.35 0.35 31.1 -7.85 30.5 -14.05 25.3 -17.45 22.45 -20.3 18.7 M32.8 -6.25 L31.1 -8.6 13.25 -27.55 Q6.05 -34.2 -3.65 -34.85 L-21.1 -34.7 Q-25.55 -34.2 -28.6 -31.05 L-30.35 -28.8 Q-31.15 -27.7 -31.55 -26.4 L-35.1 -14.55 Q-35.7 -12.3 -35.6 -10.15 -35.4 -6.1 -34.0 -2.45 -32.95 0.3 -30.95 2.55 L-15.05 20.8 Q-13.55 22.45 -11.65 23.75 -5.7 27.95 1.55 28.65 L21.15 29.0 23.8 28.7 Q25.9 27.95 27.55 26.75 29.9 25.05 31.2 22.5 L32.15 19.95 35.65 6.95 Q36.2 4.7 35.75 2.45 L34.7 -2.1 Q34.15 -4.35 32.8 -6.25" fill="#8e4a27" fill-rule="evenodd" stroke="none"/>
      <path d="M26.5 -4.15 Q22.85 -3.95 20.35 -6.6 L22.3 -6.8 Q25.2 -6.8 27.55 -5.2 L27.8 -4.35 26.5 -4.15 M16.35 -19.4 Q17.35 -18.75 16.5 -18.2 L14.0 -17.55 Q14.6 -19.1 16.05 -19.5 L16.35 -19.4 M18.95 -13.35 L14.9 -13.6 14.45 -15.15 20.15 -14.85 20.55 -14.0 18.95 -13.35 M4.85 -28.35 L5.3 -28.4 5.8 -28.0 6.3 -24.55 4.65 -24.75 4.85 -28.35 M-7.0 -30.8 Q-5.25 -28.65 -5.5 -25.95 L-5.85 -25.45 Q-7.3 -25.25 -8.1 -26.8 L-9.55 -29.8 -7.55 -30.9 -7.0 -30.8 M-19.25 -28.55 L-17.7 -28.5 Q-16.8 -27.95 -16.1 -27.25 L-15.4 -26.5 -15.2 -25.9 Q-15.0 -25.4 -15.2 -25.0 -15.45 -24.6 -16.6 -25.0 L-17.6 -25.7 -19.15 -27.15 Q-19.8 -28.0 -19.25 -28.55 M19.4 -0.35 L20.25 -0.55 25.2 2.3 25.15 3.05 Q23.0 3.05 20.8 1.9 19.5 1.15 19.4 -0.35 M-2.55 -29.35 Q-2.45 -29.85 -1.75 -29.85 -0.65 -29.6 -0.4 -28.65 0.0 -27.25 -0.05 -25.75 L-2.0 -26.25 Q-2.85 -27.75 -2.55 -29.35 M7.25 11.05 L7.75 12.2 8.3 14.25 Q8.35 15.2 7.35 14.95 6.25 14.5 5.75 13.45 5.3 12.4 5.65 11.6 5.95 10.75 7.25 11.05 M0.5 11.0 L1.55 10.25 Q3.4 11.15 3.25 13.2 3.15 15.05 1.6 15.9 L0.5 11.0 M16.3 12.35 L15.2 10.8 Q14.8 10.2 15.2 9.75 L19.3 12.75 19.55 13.6 18.9 13.9 Q17.3 13.65 16.3 12.35 M12.5 9.65 L13.3 10.9 Q14.5 12.6 14.25 14.55 L12.55 14.4 Q11.65 13.9 11.45 12.85 11.15 10.95 12.5 9.65 M23.25 6.05 Q24.1 6.85 24.2 8.15 20.8 6.6 18.1 4.1 L17.7 2.65 Q20.8 3.8 23.25 6.05 M-15.9 3.65 L-15.3 2.25 -12.8 1.45 Q-12.55 4.0 -14.55 5.25 L-15.9 3.65 M-6.35 9.0 Q-5.9 10.05 -6.5 10.95 L-7.9 11.15 Q-9.3 10.25 -9.25 8.35 -9.25 6.85 -8.2 5.9 L-7.65 6.7 Q-6.85 7.7 -6.35 9.0 M-18.75 -1.95 L-16.0 -1.3 -17.05 0.4 Q-17.6 1.55 -18.85 1.65 L-19.75 0.95 -19.8 0.2 -18.75 -1.95 M-21.8 -7.3 L-24.1 -6.95 Q-24.8 -7.2 -24.9 -7.9 -25.05 -9.45 -23.6 -10.2 L-23.45 -10.25 -19.45 -8.45 Q-20.5 -7.8 -21.8 -7.3 M-22.6 -21.1 Q-23.1 -21.95 -23.15 -22.9 -23.2 -23.35 -22.65 -23.25 -19.5 -21.9 -18.75 -18.65 -20.15 -19.15 -21.35 -19.9 -22.15 -20.35 -22.6 -21.1 M-24.45 -15.95 L-24.05 -16.35 -20.2 -16.05 -18.7 -14.5 -23.05 -14.45 -24.45 -15.95" fill="#bf6844" fill-rule="evenodd" stroke="none"/>
      <path d="M-20.3 18.7 Q-17.45 22.45 -14.05 25.3 -7.85 30.5 0.35 31.1 10.75 31.35 21.2 31.25 L25.7 30.85 4.05 37.1 -15.25 27.65 -20.3 18.7" fill="#54504e" fill-rule="evenodd" stroke="none"/>
    </g>
    <radialGradient cx="0" cy="0" gradientTransform="matrix(0.0323, 0.0, 0.0, 0.0323, 0.55, -6.5)" gradientUnits="userSpaceOnUse" id="gradient0" r="819.2" spreadMethod="pad">
      <stop offset="0.054901960784313725" stop-color="#e8caa7"/>
      <stop offset="0.9568627450980393" stop-color="#cd7343"/>
    </radialGradient>
  </defs>
</svg>
