<?xml version="1.0" encoding="UTF-8" standalone="no"?>
<svg xmlns:xlink="http://www.w3.org/1999/xlink" height="97.5px" width="98.6px" xmlns="http://www.w3.org/2000/svg">
  <g transform="matrix(1.0, 0.0, 0.0, 1.0, 49.35, 48.75)">
    <use height="90.0" transform="matrix(-0.7038, -0.1405, 0.1505, -0.7534, 28.0528, 40.8679)" width="99.1" xlink:href="#shape0"/>
  </g>
  <defs>
    <g id="shape0" transform="matrix(1.0, 0.0, 0.0, 1.0, 49.55, 45.0)">
      <path d="M24.7 -24.85 L24.25 -25.0 Q19.65 -23.65 17.35 -19.7 L17.35 -19.65 18.65 -19.3 19.7 -19.75 24.8 -22.9 25.25 -24.05 25.1 -24.45 26.8 -22.25 29.7 -16.55 Q33.85 -7.0 35.9 3.45 L35.8 5.55 35.15 7.3 Q31.85 12.65 27.6 17.25 L24.4 20.4 Q21.1 23.45 17.05 25.85 14.1 27.55 11.4 29.5 10.05 30.45 8.35 30.45 L-2.6 29.55 Q-12.75 28.2 -22.5 24.55 -25.45 23.45 -26.8 20.45 L-29.0 15.55 Q-33.9 4.05 -36.3 -8.2 L-33.5 -12.5 Q-31.2 -15.75 -28.55 -18.65 -25.95 -21.65 -22.95 -24.2 -17.1 -29.0 -10.55 -33.2 L3.05 -32.25 Q12.55 -31.0 21.2 -27.05 22.95 -26.3 24.4 -25.1 L24.7 -24.85 M3.6 -27.1 L3.7 -26.35 4.45 -27.4 Q5.15 -28.35 5.5 -29.45 5.85 -30.5 4.9 -30.75 4.15 -30.85 3.85 -30.25 3.55 -29.6 3.55 -28.7 L3.6 -27.1 M10.15 -28.55 Q7.6 -26.8 5.8 -24.0 L7.45 -22.75 11.7 -27.15 11.95 -28.35 11.4 -28.9 Q10.85 -29.0 10.15 -28.55 M28.05 -13.75 Q26.45 -14.25 24.6 -13.7 L21.35 -12.7 20.7 -11.6 Q21.35 -10.25 22.85 -10.35 25.85 -10.95 28.1 -12.9 L28.05 -13.75 M21.45 -6.25 L22.0 -5.65 Q26.55 -4.65 30.95 -6.4 29.3 -7.7 27.3 -7.9 24.05 -8.35 21.5 -6.7 L21.45 -6.25 M30.6 3.8 L29.95 3.4 24.2 3.75 24.6 4.8 26.65 5.6 Q28.7 6.4 30.45 5.0 L30.6 3.8 M24.15 11.4 L25.05 11.5 26.0 11.05 26.7 10.25 Q26.65 9.15 25.65 8.4 23.75 7.15 21.9 6.2 L21.7 7.4 Q21.85 10.2 24.15 11.4 M20.5 14.35 L18.45 12.75 Q17.45 12.75 17.2 14.15 L17.15 14.75 Q17.55 16.45 19.2 17.1 20.65 17.65 21.6 16.5 21.6 15.05 20.5 14.35 M4.7 22.85 Q2.9 21.7 0.9 21.0 0.65 23.6 2.5 25.8 3.65 27.2 5.2 26.55 6.3 25.6 5.75 24.15 L4.7 22.85 M13.0 16.8 L12.55 17.0 Q11.7 17.75 12.25 18.8 13.75 21.65 16.5 23.4 16.9 22.25 16.5 20.55 16.05 18.8 15.05 17.55 14.25 16.6 13.0 16.8 M-11.65 -29.35 L-9.6 -26.0 -7.95 -27.15 -10.0 -29.9 -11.45 -30.55 Q-12.2 -30.3 -11.65 -29.35 M-15.8 -24.95 Q-16.45 -25.95 -17.6 -26.2 L-18.8 -25.95 -19.25 -25.3 -18.7 -23.9 Q-17.95 -22.45 -16.5 -21.65 L-14.35 -22.75 -15.8 -24.95 M-21.0 -16.3 L-19.35 -17.0 -19.4 -17.5 Q-20.45 -20.75 -23.6 -22.25 L-24.25 -22.1 -25.15 -20.55 -25.6 -18.7 Q-23.6 -17.05 -21.0 -16.3 M-33.2 -8.15 Q-33.2 -7.5 -32.3 -7.0 -31.45 -6.55 -30.2 -6.55 -28.95 -6.55 -28.05 -7.0 -27.2 -7.5 -27.2 -8.15 -27.2 -8.8 -28.05 -9.25 L-30.2 -9.75 Q-31.45 -9.75 -32.3 -9.25 -33.2 -8.8 -33.2 -8.15 M-7.75 22.5 Q-8.45 24.7 -6.75 26.1 L-4.95 26.0 Q-4.5 25.0 -4.9 23.9 L-5.95 21.15 -6.35 20.2 Q-7.35 21.25 -7.75 22.5 M-13.7 24.15 Q-13.55 25.15 -12.85 26.0 L-11.95 26.2 Q-11.1 25.95 -11.0 25.0 L-10.8 22.85 -11.1 20.1 -13.95 21.8 -13.7 24.15 M-25.6 2.55 L-28.05 1.0 -28.4 0.85 Q-29.9 0.4 -31.6 0.8 -32.9 0.65 -32.95 1.85 L-31.3 3.5 Q-30.1 4.4 -28.85 4.05 -27.15 3.55 -25.6 2.55 M-28.85 10.95 L-28.75 11.2 -27.9 11.55 -26.6 11.45 -22.8 7.35 -25.25 7.0 -27.5 8.45 Q-28.7 9.5 -28.85 10.95 M-20.4 18.5 L-19.2 15.15 -24.0 16.75 -24.2 19.35 Q-24.2 20.0 -23.6 20.7 -22.9 21.5 -21.9 20.9 -21.0 19.85 -20.4 18.5" fill="url(#gradient0)" fill-rule="evenodd" stroke="none"/>
      <path d="M25.1 -24.45 L25.0 -24.75 24.7 -24.85 24.4 -25.1 Q22.95 -26.3 21.2 -27.05 12.55 -31.0 3.05 -32.25 L-10.55 -33.2 Q-17.1 -29.0 -22.95 -24.2 -25.95 -21.65 -28.55 -18.65 -31.2 -15.75 -33.5 -12.5 L-36.3 -8.2 Q-33.9 4.05 -29.0 15.55 L-26.8 20.45 Q-25.45 23.45 -22.5 24.55 -12.75 28.2 -2.6 29.55 L8.35 30.45 Q10.05 30.45 11.4 29.5 14.1 27.55 17.05 25.85 21.1 23.45 24.4 20.4 L27.6 17.25 Q31.85 12.65 35.15 7.3 L35.8 5.55 35.9 3.45 Q33.85 -7.0 29.7 -16.55 L26.8 -22.25 25.1 -24.45 M24.05 -28.7 Q25.9 -27.6 27.4 -26.1 28.7 -24.85 29.6 -23.25 L32.4 -17.6 Q36.65 -8.2 38.75 2.25 39.35 4.85 38.8 7.45 L38.4 8.45 33.8 14.55 Q30.7 18.7 26.8 22.1 21.1 27.05 14.35 30.9 L10.75 32.5 5.5 33.1 Q-2.0 32.6 -9.3 31.15 -15.55 30.1 -21.3 27.95 L-25.9 25.9 -27.35 25.0 -28.4 23.55 -31.05 17.9 Q-36.35 4.95 -39.4 -8.75 L-34.6 -15.5 Q-31.15 -20.25 -26.85 -24.1 -19.65 -30.55 -11.4 -35.95 L-5.25 -35.55 Q5.5 -35.15 15.75 -32.25 20.15 -31.1 24.05 -28.7" fill="#985532" fill-rule="evenodd" stroke="none"/>
      <path d="M24.55 -36.0 Q26.75 -35.65 28.7 -34.6 30.7 -33.5 32.55 -32.0 36.05 -29.1 37.6 -24.75 L45.9 -0.5 Q47.15 3.9 46.15 8.3 45.1 12.8 41.95 15.95 L21.8 35.7 Q18.4 38.8 13.9 40.05 9.45 41.35 4.9 40.55 L-24.8 33.9 Q-28.3 32.9 -31.4 30.65 -35.1 27.85 -37.15 23.55 L-37.75 22.2 -45.5 -0.55 -46.15 -3.25 Q-46.6 -6.4 -45.9 -9.3 -44.8 -13.8 -42.0 -17.2 L-24.0 -36.1 -21.75 -37.9 Q-19.8 -39.3 -17.7 -40.15 -12.65 -42.25 -7.25 -41.6 L24.55 -36.0 M24.05 -28.7 Q20.15 -31.1 15.75 -32.25 5.5 -35.15 -5.25 -35.55 L-11.4 -35.95 Q-19.65 -30.55 -26.85 -24.1 -31.15 -20.25 -34.6 -15.5 L-39.4 -8.75 Q-36.35 4.95 -31.05 17.9 L-28.4 23.55 -27.35 25.0 -25.9 25.9 -21.3 27.95 Q-15.55 30.1 -9.3 31.15 -2.0 32.6 5.5 33.1 L10.75 32.5 14.35 30.9 Q21.1 27.05 26.8 22.1 30.7 18.7 33.8 14.55 L38.4 8.45 38.8 7.45 Q39.35 4.85 38.75 2.25 36.65 -8.2 32.4 -17.6 L29.6 -23.25 Q28.7 -24.85 27.4 -26.1 25.9 -27.6 24.05 -28.7" fill="#c37850" fill-rule="evenodd" stroke="none"/>
      <path d="M25.1 -24.45 L25.25 -24.05 24.8 -22.9 19.7 -19.75 18.65 -19.3 17.35 -19.65 17.35 -19.7 Q19.65 -23.65 24.25 -25.0 L24.7 -24.85 25.0 -24.75 25.1 -24.45 M-11.65 -29.35 Q-12.2 -30.3 -11.45 -30.55 L-10.0 -29.9 -7.95 -27.15 -9.6 -26.0 -11.65 -29.35 M13.0 16.8 Q14.25 16.6 15.05 17.55 16.05 18.8 16.5 20.55 16.9 22.25 16.5 23.4 13.75 21.65 12.25 18.8 11.7 17.75 12.55 17.0 L13.0 16.8 M4.7 22.85 L5.75 24.15 Q6.3 25.6 5.2 26.55 3.65 27.2 2.5 25.8 0.65 23.6 0.9 21.0 2.9 21.7 4.7 22.85 M20.5 14.35 Q21.6 15.05 21.6 16.5 20.65 17.65 19.2 17.1 17.55 16.45 17.15 14.75 L17.2 14.15 Q17.45 12.75 18.45 12.75 L20.5 14.35 M24.15 11.4 Q21.85 10.2 21.7 7.4 L21.9 6.2 Q23.75 7.15 25.65 8.4 26.65 9.15 26.7 10.25 L26.0 11.05 25.05 11.5 24.15 11.4 M30.6 3.8 L30.45 5.0 Q28.7 6.4 26.65 5.6 L24.6 4.8 24.2 3.75 29.95 3.4 30.6 3.8 M21.45 -6.25 L21.5 -6.7 Q24.05 -8.35 27.3 -7.9 29.3 -7.7 30.95 -6.4 26.55 -4.65 22.0 -5.65 L21.45 -6.25 M28.05 -13.75 L28.1 -12.9 Q25.85 -10.95 22.85 -10.35 21.35 -10.25 20.7 -11.6 L21.35 -12.7 24.6 -13.7 Q26.45 -14.25 28.05 -13.75 M10.15 -28.55 Q10.85 -29.0 11.4 -28.9 L11.95 -28.35 11.7 -27.15 7.45 -22.75 5.8 -24.0 Q7.6 -26.8 10.15 -28.55 M3.6 -27.1 L3.55 -28.7 Q3.55 -29.6 3.85 -30.25 4.15 -30.85 4.9 -30.75 5.85 -30.5 5.5 -29.45 5.15 -28.35 4.45 -27.4 L3.7 -26.35 3.6 -27.1 M-15.8 -24.95 L-14.35 -22.75 -16.5 -21.65 Q-17.95 -22.45 -18.7 -23.9 L-19.25 -25.3 -18.8 -25.95 -17.6 -26.2 Q-16.45 -25.95 -15.8 -24.95 M-20.4 18.5 Q-21.0 19.85 -21.9 20.9 -22.9 21.5 -23.6 20.7 -24.2 20.0 -24.2 19.35 L-24.0 16.75 -19.2 15.15 -20.4 18.5 M-28.85 10.95 Q-28.7 9.5 -27.5 8.45 L-25.25 7.0 -22.8 7.35 -26.6 11.45 -27.9 11.55 -28.75 11.2 -28.85 10.95 M-25.6 2.55 Q-27.15 3.55 -28.85 4.05 -30.1 4.4 -31.3 3.5 L-32.95 1.85 Q-32.9 0.65 -31.6 0.8 -29.9 0.4 -28.4 0.85 L-28.05 1.0 -25.6 2.55 M-13.7 24.15 L-13.95 21.8 -11.1 20.1 -10.8 22.85 -11.0 25.0 Q-11.1 25.95 -11.95 26.2 L-12.85 26.0 Q-13.55 25.15 -13.7 24.15 M-7.75 22.5 Q-7.35 21.25 -6.35 20.2 L-5.95 21.15 -4.9 23.9 Q-4.5 25.0 -4.95 26.0 L-6.75 26.1 Q-8.45 24.7 -7.75 22.5 M-33.2 -8.15 Q-33.2 -8.8 -32.3 -9.25 -31.45 -9.75 -30.2 -9.75 L-28.05 -9.25 Q-27.2 -8.8 -27.2 -8.15 -27.2 -7.5 -28.05 -7.0 -28.95 -6.55 -30.2 -6.55 -31.45 -6.55 -32.3 -7.0 -33.2 -7.5 -33.2 -8.15 M-21.0 -16.3 Q-23.6 -17.05 -25.6 -18.7 L-25.15 -20.55 -24.25 -22.1 -23.6 -22.25 Q-20.45 -20.75 -19.4 -17.5 L-19.35 -17.0 -21.0 -16.3" fill="#bf6844" fill-rule="evenodd" stroke="none"/>
      <path d="M24.55 -36.0 L-7.25 -41.6 Q-12.65 -42.25 -17.7 -40.15 -19.8 -39.3 -21.75 -37.9 L-24.0 -36.1 -42.0 -17.2 Q-44.8 -13.8 -45.9 -9.3 -46.6 -6.4 -46.15 -3.25 L-45.5 -0.55 -37.75 22.2 -37.15 23.55 Q-35.1 27.85 -31.4 30.65 -28.3 32.9 -24.8 33.9 L4.9 40.55 Q9.45 41.35 13.9 40.05 18.4 38.8 21.8 35.7 L41.95 15.95 Q45.1 12.8 46.15 8.3 47.15 3.9 45.9 -0.5 L37.6 -24.75 Q36.05 -29.1 32.55 -32.0 30.7 -33.5 28.7 -34.6 26.75 -35.65 24.55 -36.0 M30.65 -37.05 Q32.6 -36.05 34.5 -34.5 38.05 -31.6 39.55 -27.25 L48.85 0.7 Q50.15 5.05 49.1 9.5 48.1 13.95 44.95 17.25 L22.45 39.75 Q20.85 41.3 19.0 42.35 16.95 43.45 14.6 44.1 10.2 45.55 5.65 44.6 L-27.15 37.15 Q-31.5 36.0 -34.95 32.8 -38.4 29.65 -40.1 25.4 L-48.95 -0.9 Q-50.05 -5.3 -49.1 -9.75 -48.15 -14.25 -45.3 -17.7 L-25.2 -39.3 Q-21.8 -42.6 -17.45 -43.95 -13.05 -45.4 -8.55 -44.85 L26.55 -38.5 Q28.7 -38.0 30.65 -37.05" fill="#8e4a27" fill-rule="evenodd" stroke="none"/>
    </g>
    <radialGradient cx="0" cy="0" gradientTransform="matrix(0.0414, 0.0, 0.0, 0.0414, -0.3, -1.55)" gradientUnits="userSpaceOnUse" id="gradient0" r="819.2" spreadMethod="pad">
      <stop offset="0.054901960784313725" stop-color="#e8caa7"/>
      <stop offset="0.9568627450980393" stop-color="#cd7343"/>
    </radialGradient>
  </defs>
</svg>
