<?xml version="1.0" encoding="UTF-8" standalone="no"?>
<svg xmlns:xlink="http://www.w3.org/1999/xlink" height="12.5px" width="436.9px" xmlns="http://www.w3.org/2000/svg">
  <g transform="matrix(1.0, 0.0, 0.0, 1.0, -0.3, -4.45)">
    <use height="35.6" transform="matrix(0.3125, 0.0, 0.0, 0.3125, 0.3125, 5.1875)" width="37.3" xlink:href="#shape0"/>
    <use height="35.7" transform="matrix(0.3125, 0.0, 0.0, 0.3125, 13.0969, 5.2969)" width="42.15" xlink:href="#shape1"/>
    <use height="36.4" transform="matrix(0.3125, 0.0, 0.0, 0.3125, 32.2438, 4.8906)" width="39.65" xlink:href="#shape2"/>
    <use height="35.7" transform="matrix(0.3125, 0.0, 0.0, 0.3125, 45.6469, 5.2969)" width="42.15" xlink:href="#shape1"/>
    <use height="35.85" transform="matrix(0.3125, 0.0, 0.0, 0.3125, 59.9813, 4.9688)" width="36.4" xlink:href="#shape3"/>
    <use height="37.25" transform="matrix(0.3125, 0.0, 0.0, 0.3125, 77.5469, 4.9375)" width="38.4" xlink:href="#shape4"/>
    <use height="36.75" transform="matrix(0.3125, 0.0, 0.0, 0.3125, 90.6063, 5.4531)" width="46.25" xlink:href="#shape5"/>
    <use height="34.8" transform="matrix(0.3125, 0.0, 0.0, 0.3125, 105.8938, 5.2344)" width="45.0" xlink:href="#shape6"/>
    <use height="36.0" transform="matrix(0.3125, 0.0, 0.0, 0.3125, 120.9625, 5.0625)" width="32.85" xlink:href="#shape7"/>
    <use height="35.2" transform="matrix(0.3125, 0.0, 0.0, 0.3125, 137.1906, 5.0313)" width="46.1" xlink:href="#shape8"/>
    <use height="37.25" transform="matrix(0.3125, 0.0, 0.0, 0.3125, 152.6469, 4.9375)" width="38.4" xlink:href="#shape4"/>
    <use height="36.75" transform="matrix(0.3125, 0.0, 0.0, 0.3125, 165.7063, 5.4531)" width="46.25" xlink:href="#shape5"/>
    <use height="36.0" transform="matrix(0.3125, 0.0, 0.0, 0.3125, 181.15, 5.2188)" width="34.65" xlink:href="#shape9"/>
    <use height="35.8" transform="matrix(0.3125, 0.0, 0.0, 0.3125, 198.1469, 5.3906)" width="16.15" xlink:href="#shape10"/>
    <use height="36.0" transform="matrix(0.3125, 0.0, 0.0, 0.3125, 204.35, 5.2188)" width="34.65" xlink:href="#shape9"/>
    <use height="36.0" transform="matrix(0.3125, 0.0, 0.0, 0.3125, 221.3, 5.2188)" width="34.65" xlink:href="#shape9"/>
    <use height="36.75" transform="matrix(0.3125, 0.0, 0.0, 0.3125, 233.1563, 5.4531)" width="46.25" xlink:href="#shape5"/>
    <use height="36.15" transform="matrix(0.3125, 0.0, 0.0, 0.3125, 248.6781, 5.2969)" width="38.55" xlink:href="#shape11"/>
    <use height="36.0" transform="matrix(0.3125, 0.0, 0.0, 0.3125, 261.8125, 5.0625)" width="32.85" xlink:href="#shape7"/>
    <use height="36.85" transform="matrix(0.3125, 0.0, 0.0, 0.3125, 273.025, 5.0)" width="37.4" xlink:href="#shape12"/>
    <use height="36.0" transform="matrix(0.3125, 0.0, 0.0, 0.3125, 290.7, 5.2188)" width="34.65" xlink:href="#shape9"/>
    <use height="35.7" transform="matrix(0.3125, 0.0, 0.0, 0.3125, 302.6969, 5.2969)" width="42.15" xlink:href="#shape1"/>
    <use height="39.05" transform="matrix(0.3125, 0.0, 0.0, 0.3125, 321.9219, 4.4375)" width="37.25" xlink:href="#shape13"/>
    <use height="36.0" transform="matrix(0.3125, 0.0, 0.0, 0.3125, 334.7625, 5.0625)" width="32.85" xlink:href="#shape7"/>
    <use height="36.75" transform="matrix(0.3125, 0.0, 0.0, 0.3125, 351.0063, 5.4531)" width="46.25" xlink:href="#shape5"/>
    <use height="36.0" transform="matrix(0.3125, 0.0, 0.0, 0.3125, 371.45, 5.2188)" width="34.65" xlink:href="#shape9"/>
    <use height="35.7" transform="matrix(0.3125, 0.0, 0.0, 0.3125, 383.4469, 5.2969)" width="42.15" xlink:href="#shape1"/>
    <use height="35.7" transform="matrix(0.3125, 0.0, 0.0, 0.3125, 397.7969, 5.2969)" width="42.15" xlink:href="#shape1"/>
    <use height="36.35" transform="matrix(0.3125, 0.0, 0.0, 0.3125, 412.1938, 5.2188)" width="41.15" xlink:href="#shape14"/>
    <use height="37.4" transform="matrix(0.3125, 0.0, 0.0, 0.3125, 426.2781, 4.8906)" width="35.0" xlink:href="#shape15"/>
  </g>
  <defs>
    <g id="shape0" transform="matrix(1.0, 0.0, 0.0, 1.0, -1.0, 34.6)">
      <path d="M19.65 -19.6 L15.3 -19.7 15.35 -18.5 15.4 -15.7 15.65 -12.35 Q18.75 -12.55 20.45 -13.45 22.15 -14.35 22.5 -15.6 22.9 -16.85 22.15 -17.95 21.4 -19.05 19.65 -19.6 M28.25 -31.8 Q33.05 -29.6 35.6 -26.1 38.15 -22.55 38.3 -18.15 38.5 -13.65 36.7 -10.0 34.85 -6.3 30.6 -3.7 26.35 -1.1 19.2 0.15 L1.6 1.0 1.3 -7.1 1.1 -15.0 1.0 -23.65 1.05 -33.8 16.65 -34.6 Q23.45 -34.0 28.25 -31.8" fill="#000000" fill-rule="evenodd" stroke="none"/>
    </g>
    <g id="shape1" transform="matrix(1.0, 0.0, 0.0, 1.0, -0.95, 34.25)">
      <path d="M18.95 -18.3 Q17.4 -17.1 17.35 -15.35 17.4 -13.55 18.95 -12.35 20.45 -11.2 22.75 -11.15 25.0 -11.2 26.55 -12.35 28.05 -13.55 28.1 -15.35 28.05 -17.1 26.55 -18.3 25.0 -19.5 22.75 -19.55 20.45 -19.5 18.95 -18.3 M32.95 -31.85 Q37.5 -29.5 40.15 -25.55 42.75 -21.6 43.05 -16.65 43.25 -13.15 41.95 -9.9 40.65 -6.65 37.9 -4.1 35.15 -1.55 31.1 -0.05 27.05 1.45 21.7 1.45 17.4 1.45 13.65 0.3 9.9 -0.9 7.05 -3.15 4.15 -5.45 2.55 -8.75 0.95 -12.1 0.95 -16.4 1.0 -20.8 2.85 -24.1 4.7 -27.45 7.75 -29.7 10.85 -31.95 14.6 -33.1 18.4 -34.25 22.4 -34.25 28.45 -34.2 32.95 -31.85" fill="#000000" fill-rule="evenodd" stroke="none"/>
    </g>
    <g id="shape2" transform="matrix(1.0, 0.0, 0.0, 1.0, -0.3, 35.55)">
      <path d="M20.6 -26.7 L22.6 -30.8 24.25 -34.2 24.95 -35.55 26.35 -35.25 29.9 -34.4 34.75 -33.15 39.95 -31.55 39.05 -30.0 36.55 -25.8 32.8 -19.55 28.15 -11.95 28.15 -5.75 28.1 0.1 22.1 0.45 16.6 0.65 12.6 0.8 11.0 0.85 11.2 -6.25 11.45 -12.85 7.3 -19.45 3.75 -25.3 1.25 -29.55 0.3 -31.15 6.05 -32.95 11.2 -34.35 14.85 -35.25 16.25 -35.55 16.95 -34.2 18.6 -30.8 20.6 -26.7" fill="#000000" fill-rule="evenodd" stroke="none"/>
    </g>
    <g id="shape3" transform="matrix(1.0, 0.0, 0.0, 1.0, -0.9, 35.3)">
      <path d="M35.45 -35.3 Q36.55 -30.15 37.05 -25.05 37.55 -20.0 37.0 -15.5 36.5 -11.0 34.55 -7.5 32.55 -3.95 28.75 -1.85 24.9 0.25 18.75 0.55 13.45 0.7 9.8 -1.05 6.2 -2.85 4.1 -6.15 2.0 -9.5 1.3 -13.9 0.6 -18.35 1.15 -23.45 1.7 -28.55 3.4 -33.95 L8.7 -33.2 13.35 -32.4 16.65 -31.8 17.95 -31.5 Q16.7 -25.45 16.4 -21.0 16.1 -16.6 16.6 -14.15 17.15 -11.7 18.45 -11.55 19.75 -11.45 20.45 -14.0 21.15 -16.5 21.25 -21.15 21.3 -25.85 20.65 -32.25 L21.95 -32.55 25.4 -33.35 30.15 -34.35 35.45 -35.3" fill="#000000" fill-rule="evenodd" stroke="none"/>
    </g>
    <g id="shape4" transform="matrix(1.0, 0.0, 0.0, 1.0, -0.95, 35.4)">
      <path d="M33.1 -34.75 L39.1 -35.4 39.3 -24.5 39.35 -15.35 39.35 -6.9 39.3 1.85 37.7 1.75 33.7 1.4 28.4 0.9 22.9 0.15 22.8 -5.35 22.7 -10.95 19.95 -10.75 17.7 -10.6 17.4 0.15 11.9 0.9 6.6 1.4 2.6 1.75 1.05 1.85 0.95 -6.7 0.95 -14.65 1.0 -23.25 1.2 -33.95 6.95 -33.85 12.3 -33.55 16.2 -33.25 17.75 -33.1 17.75 -26.35 17.75 -19.4 20.25 -19.5 22.5 -19.55 22.3 -26.5 22.1 -33.15 23.65 -33.4 27.6 -34.0 33.1 -34.75" fill="#000000" fill-rule="evenodd" stroke="none"/>
    </g>
    <g id="shape5" transform="matrix(1.0, 0.0, 0.0, 1.0, -0.5, 33.75)">
      <path d="M25.4 -13.2 L24.45 -16.6 23.4 -20.1 22.45 -16.5 21.4 -12.7 23.55 -12.95 25.4 -13.2 M33.0 -33.75 L36.05 -27.15 39.8 -19.05 43.55 -10.4 46.75 -2.3 Q43.5 -1.1 39.4 -0.05 L29.8 2.15 28.6 -2.1 27.45 -6.05 22.85 -5.25 19.3 -4.65 18.3 -0.95 17.25 3.0 11.25 1.6 5.85 0.1 2.0 -1.1 0.5 -1.65 3.5 -8.15 7.35 -16.35 11.55 -25.1 15.65 -33.3 21.65 -33.6 27.25 -33.7 31.35 -33.75 33.0 -33.75" fill="#000000" fill-rule="evenodd" stroke="none"/>
    </g>
    <g id="shape6" transform="matrix(1.0, 0.0, 0.0, 1.0, -0.3, 34.45)">
      <path d="M33.65 -33.7 L39.0 -33.95 45.3 -34.25 41.45 -24.4 38.2 -16.4 35.15 -9.25 31.75 -1.7 26.8 -0.85 22.1 -0.2 18.55 0.2 17.15 0.35 13.0 -7.15 9.25 -14.15 5.2 -21.75 0.3 -31.2 5.5 -32.45 10.45 -33.5 14.15 -34.15 15.65 -34.45 19.7 -26.45 23.2 -19.15 25.8 -26.25 28.6 -33.4 29.95 -33.5 33.65 -33.7" fill="#000000" fill-rule="evenodd" stroke="none"/>
    </g>
    <g id="shape7" transform="matrix(1.0, 0.0, 0.0, 1.0, -1.0, 35.0)">
      <path d="M22.15 -34.85 L32.55 -35.0 32.5 -33.75 32.4 -30.55 32.2 -26.25 31.85 -21.8 30.2 -21.9 26.0 -22.2 20.65 -22.6 15.4 -23.1 15.4 -21.65 15.45 -20.25 16.75 -20.15 19.85 -19.95 23.45 -19.7 23.55 -18.85 23.7 -16.75 23.95 -14.05 19.3 -13.1 15.65 -12.45 15.7 -11.6 15.8 -10.15 17.2 -10.25 20.85 -10.55 26.15 -11.1 32.2 -11.75 32.5 -10.0 33.15 -5.5 33.85 0.4 22.35 0.75 11.35 0.9 1.65 1.0 1.4 -9.2 1.15 -21.25 1.0 -33.85 11.95 -34.55 22.15 -34.85" fill="#000000" fill-rule="evenodd" stroke="none"/>
    </g>
    <g id="shape8" transform="matrix(1.0, 0.0, 0.0, 1.0, -0.45, 35.1)">
      <path d="M33.1 -33.55 L38.8 -33.6 46.55 -33.45 44.75 -25.25 43.3 -18.75 42.0 -13.2 40.65 -7.6 39.05 -1.1 35.2 -0.6 31.4 -0.25 28.45 0.0 27.3 0.1 26.1 -3.35 24.85 -6.7 23.9 -9.15 23.5 -10.15 23.05 -8.75 21.8 -5.2 20.2 -0.25 16.1 -0.35 12.35 -0.55 9.55 -0.7 8.45 -0.8 7.25 -5.2 5.65 -11.4 3.8 -18.55 2.0 -25.8 0.45 -32.3 5.7 -33.45 10.5 -34.35 13.95 -34.9 15.25 -35.1 15.55 -33.8 16.3 -30.3 17.4 -25.35 18.65 -19.7 19.25 -20.8 20.75 -23.55 22.85 -27.05 23.65 -26.0 25.55 -23.4 27.65 -20.05 28.65 -24.5 29.7 -28.85 30.5 -32.15 30.85 -33.45 33.1 -33.55" fill="#000000" fill-rule="evenodd" stroke="none"/>
    </g>
    <g id="shape9" transform="matrix(1.0, 0.0, 0.0, 1.0, -0.8, 34.5)">
      <path d="M32.65 -34.5 L33.75 -29.3 34.65 -24.15 35.2 -20.25 35.45 -18.65 34.0 -18.7 30.5 -18.7 26.15 -18.6 27.1 -9.05 27.9 0.0 22.25 0.65 16.9 1.1 12.85 1.4 11.25 1.5 11.2 -5.25 11.2 -11.45 11.2 -17.75 6.25 -17.2 2.4 -16.6 0.8 -16.3 0.8 -21.75 0.95 -26.9 1.1 -30.7 1.2 -32.25 11.35 -33.0 21.6 -33.7 32.65 -34.5" fill="#000000" fill-rule="evenodd" stroke="none"/>
    </g>
    <g id="shape10" transform="matrix(1.0, 0.0, 0.0, 1.0, -0.95, 33.95)">
      <path d="M17.1 -33.1 L17.1 -16.8 16.75 0.15 11.65 0.9 6.55 1.4 2.6 1.75 1.05 1.85 0.95 -6.7 0.95 -14.65 1.0 -23.25 1.2 -33.95 6.6 -33.85 11.75 -33.55 15.6 -33.25 17.1 -33.1" fill="#000000" fill-rule="evenodd" stroke="none"/>
    </g>
    <g id="shape11" transform="matrix(1.0, 0.0, 0.0, 1.0, -1.05, 34.25)">
      <path d="M39.6 -32.9 L38.5 -31.25 35.7 -27.2 32.05 -22.15 28.45 -17.4 Q31.85 -14.95 34.4 -11.65 37.0 -8.4 38.9 -4.2 L33.85 -1.65 29.3 0.25 26.05 1.5 24.8 1.9 22.8 -1.85 20.2 -5.9 Q18.65 -7.95 16.7 -9.65 L16.65 -4.65 16.7 0.25 12.2 0.55 7.4 0.85 3.55 1.1 2.0 1.2 1.6 -10.65 1.25 -22.7 1.05 -34.25 6.5 -34.0 11.7 -33.8 15.5 -33.65 17.0 -33.55 17.0 -28.35 16.85 -22.95 20.8 -28.8 23.4 -32.7 24.35 -34.15 25.75 -34.1 29.35 -33.9 34.25 -33.55 39.6 -32.9" fill="#000000" fill-rule="evenodd" stroke="none"/>
    </g>
    <g id="shape12" transform="matrix(1.0, 0.0, 0.0, 1.0, -0.4, 35.2)">
      <path d="M32.65 -31.5 Q34.75 -29.75 35.95 -27.7 37.2 -25.65 37.8 -23.6 L32.7 -22.45 28.0 -21.6 24.55 -21.15 23.2 -21.0 Q22.6 -22.05 21.55 -22.55 L19.35 -23.1 17.35 -22.85 Q16.5 -22.5 16.3 -21.9 16.0 -20.9 17.55 -20.1 19.1 -19.35 22.85 -19.2 L27.35 -18.7 Q29.9 -18.3 32.3 -17.25 34.65 -16.2 36.2 -14.3 37.75 -12.4 37.7 -9.45 37.5 -6.5 35.95 -4.35 34.4 -2.25 31.8 -0.9 29.25 0.45 25.95 1.1 L19.05 1.65 Q14.7 1.65 11.15 0.7 7.6 -0.3 4.9 -2.5 2.2 -4.7 0.4 -8.35 L7.35 -10.4 12.5 -11.6 14.55 -12.0 Q15.35 -10.65 16.65 -10.05 17.95 -9.45 19.3 -9.4 L21.7 -9.65 22.95 -10.45 Q23.3 -11.45 21.45 -12.05 L16.2 -12.95 Q12.3 -13.3 9.15 -14.35 6.0 -15.4 4.05 -17.35 2.1 -19.35 1.75 -22.5 1.45 -25.75 3.2 -28.6 4.95 -31.45 8.85 -33.3 12.8 -35.1 19.0 -35.2 23.85 -35.25 27.2 -34.2 30.55 -33.2 32.65 -31.5" fill="#000000" fill-rule="evenodd" stroke="none"/>
    </g>
    <g id="shape13" transform="matrix(1.0, 0.0, 0.0, 1.0, -0.55, 37.0)">
      <path d="M16.3 -22.75 L16.5 -20.2 Q19.8 -20.6 21.35 -21.6 22.9 -22.6 22.75 -23.7 22.65 -24.8 21.0 -25.35 L16.15 -25.5 16.3 -22.75 M17.1 -13.55 L17.2 -12.8 17.45 -11.05 17.7 -9.2 Q20.4 -9.5 21.7 -10.3 22.95 -11.1 22.85 -11.95 22.75 -12.85 21.3 -13.35 L17.1 -13.55 M35.05 -32.65 Q37.25 -30.4 37.75 -26.7 38.0 -24.25 37.35 -22.3 36.7 -20.35 35.5 -19.0 34.3 -17.6 33.0 -16.85 34.2 -16.4 35.4 -15.25 36.6 -14.15 37.25 -12.3 37.85 -10.5 37.35 -7.8 36.9 -5.7 34.75 -3.6 32.55 -1.5 28.5 0.05 24.45 1.6 18.35 2.05 L3.9 1.35 2.85 -10.5 1.7 -22.35 0.55 -33.7 6.4 -35.3 Q9.9 -36.15 13.95 -36.6 L22.0 -37.0 Q26.0 -36.9 29.4 -35.85 32.8 -34.85 35.05 -32.65" fill="#000000" fill-rule="evenodd" stroke="none"/>
    </g>
    <g id="shape14" transform="matrix(1.0, 0.0, 0.0, 1.0, -1.1, 34.5)">
      <path d="M32.25 -34.05 L37.35 -33.5 40.9 -33.05 42.25 -32.85 41.75 -22.85 41.1 -11.85 40.25 -0.4 34.7 0.55 29.35 1.25 25.35 1.7 23.75 1.85 21.1 -3.2 18.6 -7.7 16.8 -10.95 16.1 -12.15 16.05 -6.8 15.95 -2.65 15.9 1.45 11.05 1.1 6.2 0.65 2.55 0.3 1.1 0.1 1.25 -16.7 1.65 -34.35 7.15 -34.2 12.05 -33.9 15.55 -33.65 16.9 -33.5 19.9 -27.4 22.8 -21.9 24.9 -18.0 25.75 -16.45 25.95 -22.8 26.15 -28.6 26.3 -32.85 26.35 -34.5 32.25 -34.05" fill="#000000" fill-rule="evenodd" stroke="none"/>
    </g>
    <g id="shape15" transform="matrix(1.0, 0.0, 0.0, 1.0, -1.05, 35.55)">
      <path d="M11.5 -6.2 Q13.15 -7.7 15.9 -7.95 L19.15 -7.55 Q20.65 -7.0 21.6 -6.0 22.5 -4.95 22.65 -3.55 22.75 -1.45 21.05 0.05 19.35 1.6 16.65 1.85 L13.35 1.45 Q11.9 0.9 10.95 -0.15 10.0 -1.15 9.9 -2.55 9.8 -4.65 11.5 -6.2 M28.8 -33.85 Q32.75 -32.15 34.5 -29.4 36.25 -26.65 36.05 -23.45 35.8 -20.6 34.4 -19.0 33.0 -17.45 31.05 -16.55 L27.2 -14.95 Q25.3 -14.2 24.1 -13.05 22.9 -11.95 22.95 -9.85 L18.6 -9.65 14.15 -9.6 10.7 -9.65 9.35 -9.65 Q9.35 -12.85 10.65 -14.75 11.95 -16.65 13.85 -17.7 15.7 -18.75 17.55 -19.4 19.4 -20.05 20.55 -20.7 21.7 -21.35 21.5 -22.45 21.35 -23.05 20.55 -23.35 L18.65 -23.6 Q17.55 -23.55 16.5 -22.95 15.45 -22.35 14.8 -21.15 L12.8 -21.4 7.7 -22.2 1.05 -23.5 Q1.6 -25.55 2.9 -27.65 4.2 -29.75 6.35 -31.55 8.45 -33.35 11.55 -34.45 14.6 -35.55 18.7 -35.55 24.9 -35.55 28.8 -33.85" fill="#000000" fill-rule="evenodd" stroke="none"/>
    </g>
  </defs>
</svg>
