<?xml version="1.0" encoding="UTF-8" standalone="no"?>
<svg xmlns:xlink="http://www.w3.org/1999/xlink" height="10.95px" width="120.35px" xmlns="http://www.w3.org/2000/svg">
  <g transform="matrix(1.0, 0.0, 0.0, 1.0, 59.55, 5.2)">
    <use height="2.5" transform="matrix(1.0, 0.0, 0.0, 1.0, 47.95, 3.25)" width="12.85" xlink:href="#shape0"/>
    <use height="9.85" transform="matrix(1.0, 0.0, 0.0, 1.0, -59.55, -5.2)" width="115.7" xlink:href="#text0"/>
  </g>
  <defs>
    <g id="shape0" transform="matrix(1.0, 0.0, 0.0, 1.0, -47.95, -3.25)">
      <path d="M47.95 4.85 L48.05 4.2 48.55 3.55 Q48.9 3.25 49.25 3.25 L49.7 3.4 Q50.15 3.65 50.15 4.25 L50.0 4.9 49.45 5.5 48.75 5.75 Q48.4 5.75 48.2 5.5 L47.95 4.85 M52.1 3.55 Q52.45 3.25 52.8 3.25 L53.25 3.4 Q53.7 3.65 53.7 4.25 L53.55 4.9 53.0 5.5 52.3 5.75 51.75 5.5 51.5 4.85 51.6 4.2 Q51.75 3.8 52.1 3.55 M60.1 5.5 L59.4 5.75 58.85 5.5 58.6 4.85 58.7 4.2 59.2 3.55 Q59.55 3.25 59.9 3.25 L60.35 3.4 Q60.8 3.65 60.8 4.25 L60.65 4.9 60.1 5.5 M56.55 5.5 L55.85 5.75 Q55.5 5.75 55.3 5.5 L55.05 4.85 55.15 4.2 Q55.3 3.8 55.65 3.55 56.0 3.25 56.35 3.25 L56.8 3.4 Q57.25 3.65 57.25 4.25 L57.1 4.9 56.55 5.5" fill="#ffffff" fill-rule="evenodd" stroke="none"/>
    </g>
    <g id="text0" transform="matrix(1.0, 0.0, 0.0, 1.0, -87.75, -2.3)">
      <g transform="matrix(1.0, 0.0, 0.0, 1.0, 87.35, 0.0)">
        <use fill="#ffffff" height="9.85" transform="matrix(0.2344, 0.0, 0.0, 0.2344, 0.05, 12.0)" width="115.7" xlink:href="#font_ComicBook_Normal_l0"/>
        <use fill="#ffffff" height="9.85" transform="matrix(0.2344, 0.0, 0.0, 0.2344, 6.65, 12.0)" width="115.7" xlink:href="#font_ComicBook_Normal_o0"/>
        <use fill="#ffffff" height="9.85" transform="matrix(0.2344, 0.0, 0.0, 0.2344, 16.85, 12.0)" width="115.7" xlink:href="#font_ComicBook_Normal_a0"/>
        <use fill="#ffffff" height="9.85" transform="matrix(0.2344, 0.0, 0.0, 0.2344, 26.6, 12.0)" width="115.7" xlink:href="#font_ComicBook_Normal_d0"/>
        <use fill="#ffffff" height="9.85" transform="matrix(0.2344, 0.0, 0.0, 0.2344, 36.2, 12.0)" width="115.7" xlink:href="#font_ComicBook_Normal_i0"/>
        <use fill="#ffffff" height="9.85" transform="matrix(0.2344, 0.0, 0.0, 0.2344, 39.8, 12.0)" width="115.7" xlink:href="#font_ComicBook_Normal_n0"/>
        <use fill="#ffffff" height="9.85" transform="matrix(0.2344, 0.0, 0.0, 0.2344, 47.35, 12.0)" width="115.7" xlink:href="#font_ComicBook_Normal_g0"/>
        <use fill="#ffffff" height="9.85" transform="matrix(0.2344, 0.0, 0.0, 0.2344, 62.7, 12.0)" width="115.7" xlink:href="#font_ComicBook_Normal_s0"/>
        <use fill="#ffffff" height="9.85" transform="matrix(0.2344, 0.0, 0.0, 0.2344, 72.55, 12.0)" width="115.7" xlink:href="#font_ComicBook_Normal_t0"/>
        <use fill="#ffffff" height="9.85" transform="matrix(0.2344, 0.0, 0.0, 0.2344, 81.4, 12.0)" width="115.7" xlink:href="#font_ComicBook_Normal_o0"/>
        <use fill="#ffffff" height="9.85" transform="matrix(0.2344, 0.0, 0.0, 0.2344, 91.6, 12.0)" width="115.7" xlink:href="#font_ComicBook_Normal_r0"/>
        <use fill="#ffffff" height="9.85" transform="matrix(0.2344, 0.0, 0.0, 0.2344, 99.95, 12.0)" width="115.7" xlink:href="#font_ComicBook_Normal_y0"/>
      </g>
    </g>
    <g id="font_ComicBook_Normal_l0">
      <path d="M6.7 -41.15 Q9.6 -40.75 9.9 -36.7 L10.05 -32.85 9.85 -27.45 9.45 -21.6 8.95 -16.2 8.7 -10.75 Q8.7 -9.5 9.75 -9.5 L11.9 -10.05 16.95 -12.2 Q19.7 -13.45 22.1 -13.45 L25.6 -13.3 Q27.35 -12.7 27.5 -10.05 27.5 -8.0 26.05 -6.9 25.1 -6.25 22.7 -5.5 L17.45 -4.25 12.25 -3.0 Q11.2 -2.7 8.4 -1.2 6.4 -0.05 4.45 0.15 L3.15 -0.1 2.25 -0.9 Q1.6 -1.9 1.6 -3.3 1.6 -6.7 2.15 -11.75 2.85 -18.15 2.85 -20.75 L2.65 -28.5 2.45 -36.5 Q2.55 -37.95 3.7 -39.6 4.85 -41.15 6.7 -41.15" fill-rule="evenodd" stroke="none"/>
    </g>
    <g id="font_ComicBook_Normal_o0">
      <path d="M23.35 -32.05 Q20.0 -32.05 17.1 -30.65 13.85 -29.15 12.2 -26.25 10.85 -23.95 10.2 -21.5 9.55 -19.05 9.55 -16.45 9.55 -12.6 11.35 -10.8 13.85 -8.1 18.35 -8.1 21.15 -8.1 23.5 -9.1 25.8 -10.1 27.7 -12.15 32.45 -17.3 32.45 -23.25 32.45 -27.5 29.4 -30.2 27.2 -32.05 23.35 -32.05 M35.55 -35.75 L37.5 -32.8 38.95 -29.6 39.8 -26.1 40.1 -22.4 Q40.1 -14.65 35.35 -8.05 33.85 -6.05 32.0 -4.55 30.15 -3.05 27.85 -2.0 23.5 0.0 18.7 0.0 14.05 0.0 10.2 -1.8 8.05 -2.8 6.55 -4.15 5.0 -5.5 3.95 -7.2 1.4 -11.3 1.4 -16.0 1.4 -21.75 5.05 -27.85 7.85 -32.5 11.35 -35.5 16.55 -39.95 23.95 -39.95 27.7 -39.95 30.95 -38.8 34.05 -37.65 35.55 -35.75" fill-rule="evenodd" stroke="none"/>
    </g>
    <g id="font_ComicBook_Normal_a0">
      <path d="M21.2 -28.8 Q20.35 -28.8 19.35 -27.95 17.45 -25.4 15.25 -21.5 L14.5 -19.8 13.8 -17.95 12.85 -15.5 15.1 -15.45 16.75 -15.5 18.15 -15.55 20.2 -15.7 Q23.2 -16.0 28.2 -17.6 L25.8 -22.55 23.75 -26.05 23.2 -27.0 22.75 -27.75 Q22.05 -28.75 21.2 -28.8 M29.55 -31.35 Q32.5 -26.0 34.2 -21.55 L38.05 -11.7 Q38.45 -10.8 39.8 -8.65 40.65 -7.15 40.65 -5.7 40.65 -4.5 39.7 -2.85 38.55 -0.85 37.2 -0.85 34.55 -0.85 32.2 -8.8 30.4 -10.6 27.45 -10.6 L23.9 -10.25 21.25 -9.75 20.15 -9.55 Q16.2 -9.05 12.85 -7.8 9.2 -6.55 8.35 -5.1 8.0 -4.4 8.0 -3.95 L8.0 -2.9 8.05 -1.5 Q7.2 0.75 5.15 0.75 2.9 0.75 1.6 -0.65 0.75 -1.5 0.75 -2.8 0.75 -4.45 2.2 -7.3 L3.55 -9.7 4.5 -11.65 7.8 -18.9 9.65 -23.0 11.4 -26.65 Q16.6 -37.3 19.35 -39.55 L19.15 -39.45 Q19.15 -39.8 20.4 -39.8 22.4 -39.8 24.7 -37.75 27.3 -35.5 29.55 -31.35" fill-rule="evenodd" stroke="none"/>
    </g>
    <g id="font_ComicBook_Normal_d0">
      <path d="M33.85 -40.15 Q39.9 -38.6 40.1 -35.35 40.1 -30.2 36.15 -23.3 L33.1 -18.5 29.4 -13.85 25.2 -9.6 Q22.5 -7.2 20.05 -5.45 L15.0 -2.35 Q12.4 -1.05 9.75 -0.2 7.6 0.5 5.4 0.5 3.35 0.5 2.2 -0.2 2.05 -0.25 2.05 -0.95 2.05 -1.75 2.8 -7.75 3.5 -13.35 3.6 -16.7 3.6 -20.4 3.25 -23.6 2.8 -27.95 2.8 -29.8 2.8 -31.25 2.95 -32.7 3.15 -34.95 4.15 -36.35 5.35 -38.05 7.05 -38.2 L7.1 -38.2 14.15 -38.95 21.8 -39.85 27.15 -40.2 29.35 -40.35 30.5 -40.45 33.85 -40.15 M26.3 -32.55 L22.4 -32.1 Q18.7 -32.0 11.8 -30.15 L11.0 -21.4 10.25 -15.3 Q9.7 -11.55 9.7 -10.55 L9.8 -9.65 Q10.25 -8.85 11.3 -8.85 12.3 -8.85 14.15 -9.7 18.8 -11.6 23.7 -16.45 27.65 -20.3 30.7 -24.95 33.35 -29.05 33.45 -30.25 33.45 -32.95 30.15 -32.95 L26.3 -32.55" fill-rule="evenodd" stroke="none"/>
    </g>
    <g id="font_ComicBook_Normal_i0">
      <path d="M8.9 -39.95 L8.9 -40.05 Q10.75 -40.05 12.0 -38.35 12.85 -37.1 12.85 -34.8 L12.2 -27.6 11.7 -19.45 10.45 -3.6 Q10.15 -0.4 7.4 -0.05 5.35 -0.05 4.3 -0.9 3.1 -2.0 3.1 -3.6 L3.55 -19.6 Q3.75 -26.55 4.55 -35.4 4.8 -37.35 6.0 -38.65 7.15 -39.95 8.9 -39.95" fill-rule="evenodd" stroke="none"/>
    </g>
    <g id="font_ComicBook_Normal_n0">
      <path d="M27.5 -41.4 Q28.85 -41.35 29.7 -40.3 30.65 -39.25 30.65 -38.0 30.65 -35.5 29.75 -31.4 28.8 -27.3 28.75 -24.95 L28.7 -22.2 Q28.7 -19.25 29.1 -15.05 L29.95 -7.15 Q29.95 -5.8 29.5 -4.85 29.0 -3.95 27.95 -3.25 26.0 -2.05 23.4 -2.05 20.95 -2.05 17.95 -4.8 14.8 -7.6 9.4 -14.3 L8.55 -13.95 Q8.2 -13.9 8.2 -13.45 L8.15 -10.55 8.3 -7.05 8.5 -4.25 Q8.5 -2.85 8.0 -2.0 7.5 -1.15 6.3 -0.65 5.25 -0.2 4.2 -0.2 2.15 -0.2 1.6 -2.75 1.3 -4.2 1.3 -5.65 1.3 -7.35 2.0 -11.05 2.65 -14.45 2.65 -16.85 L2.7 -17.65 2.7 -18.5 2.75 -19.45 2.8 -20.55 2.9 -23.9 Q2.9 -26.5 2.5 -28.65 2.1 -30.85 1.35 -32.7 L1.15 -33.85 Q1.15 -35.1 1.9 -36.1 2.7 -37.15 4.05 -37.2 L4.05 -37.25 Q7.15 -37.25 9.6 -33.7 10.45 -32.45 10.65 -30.6 10.95 -28.0 11.3 -27.25 L11.75 -25.85 12.15 -24.55 13.3 -22.05 Q14.75 -19.75 17.4 -16.7 20.2 -13.6 21.1 -13.45 22.25 -13.45 22.7 -16.05 L22.85 -19.75 22.8 -21.1 23.0 -24.25 23.2 -27.65 23.35 -32.85 23.45 -34.45 23.45 -35.8 Q23.45 -37.25 23.85 -38.5 24.9 -41.4 27.5 -41.4" fill-rule="evenodd" stroke="none"/>
    </g>
    <g id="font_ComicBook_Normal_g0">
      <path d="M38.6 -25.85 L41.3 -25.55 Q42.45 -25.3 43.45 -24.35 44.1 -23.6 44.1 -22.2 42.95 -10.0 33.65 -4.3 27.3 -0.3 19.15 -0.1 L17.9 -0.1 Q10.5 -0.1 6.55 -2.55 4.85 -3.7 3.7 -5.35 2.6 -7.05 2.0 -9.45 1.45 -11.85 1.45 -15.15 1.65 -19.9 3.6 -24.15 5.55 -28.45 9.4 -32.3 16.7 -39.7 25.1 -39.75 L25.15 -39.75 36.0 -38.85 Q41.5 -37.15 42.15 -32.15 42.15 -30.8 41.0 -29.65 40.0 -28.6 39.1 -28.6 L36.05 -29.95 33.95 -30.85 Q31.0 -32.15 28.05 -32.15 21.55 -32.15 16.0 -27.7 13.45 -25.7 11.7 -23.35 10.0 -21.0 9.05 -18.25 8.65 -16.95 8.65 -15.75 8.65 -12.55 11.25 -10.6 13.8 -8.6 18.6 -8.6 23.2 -8.75 29.55 -11.45 35.25 -14.0 35.25 -15.25 35.0 -16.4 33.85 -16.4 L31.1 -15.75 28.1 -15.15 24.25 -14.7 20.4 -14.35 Q18.7 -14.45 17.55 -15.15 16.35 -15.9 16.35 -17.3 16.5 -20.05 21.45 -22.4 25.55 -24.3 32.95 -25.2 L37.65 -25.75 38.6 -25.85" fill-rule="evenodd" stroke="none"/>
    </g>
    <g id="font_ComicBook_Normal_s0">
      <path d="M25.45 -31.1 L23.75 -30.85 Q16.4 -28.65 11.6 -25.15 9.95 -23.95 9.95 -22.65 9.95 -20.4 18.85 -20.15 L26.55 -20.0 37.3 -19.85 Q39.9 -19.05 40.85 -15.4 L41.0 -14.1 Q41.0 -9.25 33.3 -4.45 29.5 -2.1 26.05 -0.95 22.6 0.2 19.4 0.2 14.85 0.15 11.9 -1.0 8.9 -2.1 5.15 -5.1 3.35 -7.95 3.35 -9.25 3.35 -10.65 5.1 -10.65 6.0 -10.65 8.35 -9.55 13.4 -7.25 18.1 -7.25 21.4 -7.25 24.45 -8.35 25.5 -8.65 29.65 -10.45 31.55 -11.25 31.55 -11.85 31.55 -12.55 29.5 -13.3 L24.7 -13.65 18.7 -13.95 10.85 -15.25 Q6.45 -16.0 4.1 -17.45 1.2 -19.2 1.05 -22.35 1.05 -25.8 3.05 -28.25 L5.3 -30.3 8.3 -32.2 10.65 -33.3 14.75 -35.3 Q19.25 -37.5 24.05 -38.8 28.05 -39.9 30.9 -39.9 33.9 -39.6 35.45 -35.1 L36.15 -32.4 36.4 -29.25 Q36.25 -27.55 33.4 -27.1 32.1 -27.1 30.9 -28.45 29.35 -30.25 28.4 -30.55 L25.45 -31.1" fill-rule="evenodd" stroke="none"/>
    </g>
    <g id="font_ComicBook_Normal_t0">
      <path d="M23.65 -30.2 Q24.5 -27.5 24.5 -24.75 L24.15 -20.6 23.55 -15.9 23.1 -9.8 22.1 -3.2 Q21.85 -2.0 20.7 -1.2 19.55 -0.45 18.1 -0.45 16.5 -0.45 15.55 -0.9 14.35 -1.5 14.35 -2.65 L14.55 -5.15 14.75 -7.65 15.15 -13.25 Q15.55 -17.55 15.55 -23.05 L15.15 -29.45 15.15 -30.2 15.05 -31.05 Q14.85 -31.7 13.5 -31.7 L8.2 -31.15 Q6.55 -31.15 5.5 -31.95 4.25 -32.8 4.25 -34.35 4.35 -35.85 5.55 -36.95 6.8 -38.05 8.25 -38.05 L12.9 -38.3 19.7 -38.9 27.0 -39.5 33.75 -39.8 Q35.55 -39.8 36.75 -39.05 38.2 -38.2 38.2 -36.65 38.2 -35.0 36.95 -33.75 35.7 -32.5 34.05 -32.35 L25.25 -31.9 24.15 -31.25 Q23.65 -30.8 23.65 -30.2" fill-rule="evenodd" stroke="none"/>
    </g>
    <g id="font_ComicBook_Normal_r0">
      <path d="M22.25 -33.2 L16.55 -33.4 13.65 -33.45 12.95 -33.45 Q11.2 -33.4 9.75 -32.4 9.2 -32.0 9.0 -31.2 L8.8 -30.3 8.55 -29.55 8.55 -29.5 7.35 -26.1 7.25 -25.1 Q7.25 -24.25 7.75 -24.0 L9.4 -23.7 11.05 -23.55 Q12.1 -23.55 15.55 -24.55 18.9 -25.6 21.75 -27.6 24.65 -29.6 24.95 -31.35 24.95 -32.85 22.25 -33.2 M23.7 -39.85 Q27.4 -39.8 29.7 -38.8 32.5 -37.6 33.65 -34.65 L33.85 -33.4 Q33.85 -30.95 30.95 -27.3 L28.35 -24.4 25.1 -21.55 Q22.05 -19.1 21.0 -19.1 22.3 -17.15 24.75 -14.15 25.55 -13.25 27.8 -11.8 L30.75 -9.55 Q31.85 -8.35 31.85 -6.5 31.85 -4.35 30.2 -3.05 29.1 -2.15 27.75 -2.15 26.15 -2.15 24.45 -3.4 22.95 -4.5 21.15 -6.95 19.45 -9.5 17.95 -10.6 L13.55 -13.05 Q11.55 -13.85 10.05 -13.85 8.7 -13.85 8.7 -11.7 L8.8 -7.15 Q8.75 -5.95 8.35 -4.7 L7.55 -2.2 Q7.05 -0.95 6.0 -0.35 4.05 0.7 2.85 0.7 0.6 0.7 0.6 -5.35 L0.9 -12.05 1.2 -19.45 1.05 -24.2 1.05 -28.35 Q1.1 -31.05 1.4 -33.25 1.85 -37.0 5.8 -38.55 8.3 -39.55 11.25 -39.85 L16.9 -39.9 20.3 -39.9 23.7 -39.85" fill-rule="evenodd" stroke="none"/>
    </g>
    <g id="font_ComicBook_Normal_y0">
      <path d="M35.3 -34.8 L22.25 -17.15 Q21.1 -15.65 17.6 -9.75 15.3 -5.9 12.3 -2.3 L10.7 -0.6 Q9.95 0.0 8.75 0.0 7.6 -0.15 6.75 -0.9 5.95 -1.65 5.95 -2.55 5.95 -5.1 7.65 -7.35 L11.1 -11.2 Q13.4 -13.45 14.1 -15.2 L14.45 -16.6 Q14.45 -17.6 13.7 -18.4 11.35 -21.3 9.55 -23.75 L6.05 -28.6 Q2.2 -34.0 0.9 -36.85 L0.75 -37.55 Q0.75 -39.65 6.0 -40.15 8.1 -40.15 9.25 -38.35 L11.6 -34.4 13.2 -31.75 14.7 -29.1 15.95 -25.9 Q16.6 -24.5 18.1 -24.4 19.15 -24.4 20.4 -25.8 L22.85 -28.55 24.6 -30.95 26.2 -33.4 28.95 -37.1 Q30.2 -38.75 32.15 -38.75 33.65 -38.6 34.6 -37.65 35.6 -36.8 35.6 -35.8 L35.3 -34.8" fill-rule="evenodd" stroke="none"/>
    </g>
  </defs>
</svg>
