<?xml version="1.0" encoding="UTF-8" standalone="no"?>
<svg xmlns:xlink="http://www.w3.org/1999/xlink" height="17.7px" width="202.9px" xmlns="http://www.w3.org/2000/svg">
  <g transform="matrix(1.0, 0.0, 0.0, 1.0, -0.45, -7.2)">
    <use height="35.8" transform="matrix(0.4688, 0.0, 0.0, 0.4688, 0.4453, 8.0859)" width="16.15" xlink:href="#shape0"/>
    <use height="36.35" transform="matrix(0.4688, 0.0, 0.0, 0.4688, 9.0156, 7.8281)" width="41.15" xlink:href="#shape1"/>
    <use height="36.85" transform="matrix(0.4688, 0.0, 0.0, 0.4688, 28.9375, 7.5)" width="37.4" xlink:href="#shape2"/>
    <use height="36.0" transform="matrix(0.4688, 0.0, 0.0, 0.4688, 47.075, 7.8281)" width="34.65" xlink:href="#shape3"/>
    <use height="37.7" transform="matrix(0.4688, 0.0, 0.0, 0.4688, 64.1922, 7.2188)" width="36.05" xlink:href="#shape4"/>
    <use height="35.85" transform="matrix(0.4688, 0.0, 0.0, 0.4688, 81.6719, 7.4531)" width="36.4" xlink:href="#shape5"/>
    <use height="35.95" transform="matrix(0.4688, 0.0, 0.0, 0.4688, 99.5719, 7.5938)" width="41.25" xlink:href="#shape6"/>
    <use height="36.0" transform="matrix(0.4688, 0.0, 0.0, 0.4688, 119.625, 7.8281)" width="34.65" xlink:href="#shape3"/>
    <use height="35.8" transform="matrix(0.4688, 0.0, 0.0, 0.4688, 136.6953, 8.0859)" width="16.15" xlink:href="#shape0"/>
    <use height="35.7" transform="matrix(0.4688, 0.0, 0.0, 0.4688, 145.1953, 7.9453)" width="42.15" xlink:href="#shape7"/>
    <use height="36.35" transform="matrix(0.4688, 0.0, 0.0, 0.4688, 165.9156, 7.8281)" width="41.15" xlink:href="#shape1"/>
    <use height="36.85" transform="matrix(0.4688, 0.0, 0.0, 0.4688, 185.8375, 7.5)" width="37.4" xlink:href="#shape2"/>
  </g>
  <defs>
    <g id="shape0" transform="matrix(1.0, 0.0, 0.0, 1.0, -0.95, 33.95)">
      <path d="M17.1 -33.1 L17.1 -16.8 16.75 0.15 11.65 0.9 6.55 1.4 2.6 1.75 1.05 1.85 0.95 -6.7 0.95 -14.65 1.0 -23.25 1.2 -33.95 6.6 -33.85 11.75 -33.55 15.6 -33.25 17.1 -33.1" fill="#ffd026" fill-rule="evenodd" stroke="none"/>
    </g>
    <g id="shape1" transform="matrix(1.0, 0.0, 0.0, 1.0, -1.1, 34.5)">
      <path d="M32.25 -34.05 L37.35 -33.5 40.9 -33.05 42.25 -32.85 41.75 -22.85 41.1 -11.85 40.25 -0.4 34.7 0.55 29.35 1.25 25.35 1.7 23.75 1.85 21.1 -3.2 18.6 -7.7 16.8 -10.95 16.1 -12.15 16.05 -6.8 15.95 -2.65 15.9 1.45 11.05 1.1 6.2 0.65 2.55 0.3 1.1 0.1 1.25 -16.7 1.65 -34.35 7.15 -34.2 12.05 -33.9 15.55 -33.65 16.9 -33.5 19.9 -27.4 22.8 -21.9 24.9 -18.0 25.75 -16.45 25.95 -22.8 26.15 -28.6 26.3 -32.85 26.35 -34.5 32.25 -34.05" fill="#ffd026" fill-rule="evenodd" stroke="none"/>
    </g>
    <g id="shape2" transform="matrix(1.0, 0.0, 0.0, 1.0, -0.4, 35.2)">
      <path d="M32.65 -31.5 Q34.75 -29.75 35.95 -27.7 37.2 -25.65 37.8 -23.6 L32.7 -22.45 28.0 -21.6 24.55 -21.15 23.2 -21.0 Q22.6 -22.05 21.55 -22.55 L19.35 -23.1 17.35 -22.85 Q16.5 -22.5 16.3 -21.9 16.0 -20.9 17.55 -20.1 19.1 -19.35 22.85 -19.2 L27.35 -18.7 Q29.9 -18.3 32.3 -17.25 34.65 -16.2 36.2 -14.3 37.75 -12.4 37.7 -9.45 37.5 -6.5 35.95 -4.35 34.4 -2.25 31.8 -0.9 29.25 0.45 25.95 1.1 L19.05 1.65 Q14.7 1.65 11.15 0.7 7.6 -0.3 4.9 -2.5 2.2 -4.7 0.4 -8.35 L7.35 -10.4 12.5 -11.6 14.55 -12.0 Q15.35 -10.65 16.65 -10.05 17.95 -9.45 19.3 -9.4 L21.7 -9.65 22.95 -10.45 Q23.3 -11.45 21.45 -12.05 L16.2 -12.95 Q12.3 -13.3 9.15 -14.35 6.0 -15.4 4.05 -17.35 2.1 -19.35 1.75 -22.5 1.45 -25.75 3.2 -28.6 4.95 -31.45 8.85 -33.3 12.8 -35.1 19.0 -35.2 23.85 -35.25 27.2 -34.2 30.55 -33.2 32.65 -31.5" fill="#ffd026" fill-rule="evenodd" stroke="none"/>
    </g>
    <g id="shape3" transform="matrix(1.0, 0.0, 0.0, 1.0, -0.8, 34.5)">
      <path d="M32.65 -34.5 L33.75 -29.3 34.65 -24.15 35.2 -20.25 35.45 -18.65 34.0 -18.7 30.5 -18.7 26.15 -18.6 27.1 -9.05 27.9 0.0 22.25 0.65 16.9 1.1 12.85 1.4 11.25 1.5 11.2 -5.25 11.2 -11.45 11.2 -17.75 6.25 -17.2 2.4 -16.6 0.8 -16.3 0.8 -21.75 0.95 -26.9 1.1 -30.7 1.2 -32.25 11.35 -33.0 21.6 -33.7 32.65 -34.5" fill="#ffd026" fill-rule="evenodd" stroke="none"/>
    </g>
    <g id="shape4" transform="matrix(1.0, 0.0, 0.0, 1.0, -1.05, 35.8)">
      <path d="M14.8 -18.2 Q17.95 -18.35 19.5 -19.35 21.0 -20.3 21.0 -21.45 20.95 -22.6 19.35 -23.3 L14.55 -23.5 14.65 -20.75 14.8 -18.2 M27.4 -34.05 Q30.4 -32.8 32.35 -30.4 34.35 -28.0 34.75 -24.15 34.9 -22.6 34.4 -20.7 33.95 -18.8 32.65 -16.8 31.4 -14.8 29.1 -13.0 L33.0 -8.55 35.95 -4.95 37.1 -3.5 29.9 -0.9 24.8 1.1 22.85 1.9 19.85 -1.85 17.2 -5.45 15.35 -8.05 15.6 -3.6 15.85 0.1 15.95 1.65 10.6 1.5 5.9 1.3 2.6 1.15 1.35 1.1 Q1.15 -4.15 1.1 -10.0 L1.05 -21.8 1.05 -33.3 6.6 -34.7 13.5 -35.65 Q17.15 -35.95 20.75 -35.6 24.35 -35.25 27.4 -34.05" fill="#ffd026" fill-rule="evenodd" stroke="none"/>
    </g>
    <g id="shape5" transform="matrix(1.0, 0.0, 0.0, 1.0, -0.9, 35.3)">
      <path d="M35.45 -35.3 Q36.55 -30.15 37.05 -25.05 37.55 -20.0 37.0 -15.5 36.5 -11.0 34.55 -7.5 32.55 -3.95 28.75 -1.85 24.9 0.25 18.75 0.55 13.45 0.7 9.8 -1.05 6.2 -2.85 4.1 -6.15 2.0 -9.5 1.3 -13.9 0.6 -18.35 1.15 -23.45 1.7 -28.55 3.4 -33.95 L8.7 -33.2 13.35 -32.4 16.65 -31.8 17.95 -31.5 Q16.7 -25.45 16.4 -21.0 16.1 -16.6 16.6 -14.15 17.15 -11.7 18.45 -11.55 19.75 -11.45 20.45 -14.0 21.15 -16.5 21.25 -21.15 21.3 -25.85 20.65 -32.25 L21.95 -32.55 25.4 -33.35 30.15 -34.35 35.45 -35.3" fill="#ffd026" fill-rule="evenodd" stroke="none"/>
    </g>
    <g id="shape6" transform="matrix(1.0, 0.0, 0.0, 1.0, -0.9, 35.0)">
      <path d="M22.05 -35.0 Q29.45 -34.85 34.55 -31.8 39.65 -28.7 42.15 -22.9 L36.05 -21.45 30.7 -20.0 26.95 -18.9 25.5 -18.45 Q24.75 -20.3 23.4 -21.05 22.0 -21.8 20.55 -21.55 19.05 -21.35 18.05 -20.15 17.0 -19.0 16.95 -17.0 17.0 -15.1 18.0 -14.0 18.95 -12.95 20.45 -12.65 L23.4 -12.9 Q24.9 -13.5 25.9 -14.95 L31.55 -13.65 36.8 -12.05 40.65 -10.7 42.15 -10.15 Q41.0 -7.05 38.1 -4.5 35.25 -2.0 30.9 -0.5 26.55 0.95 20.95 0.95 15.2 0.85 10.65 -1.25 6.1 -3.3 3.5 -7.3 0.9 -11.3 0.9 -17.15 0.95 -21.5 2.75 -24.85 4.55 -28.2 7.55 -30.5 10.55 -32.75 14.3 -33.9 18.05 -35.05 22.05 -35.0" fill="#ffd026" fill-rule="evenodd" stroke="none"/>
    </g>
    <g id="shape7" transform="matrix(1.0, 0.0, 0.0, 1.0, -0.95, 34.25)">
      <path d="M18.95 -18.3 Q17.4 -17.1 17.35 -15.35 17.4 -13.55 18.95 -12.35 20.45 -11.2 22.75 -11.15 25.0 -11.2 26.55 -12.35 28.05 -13.55 28.1 -15.35 28.05 -17.1 26.55 -18.3 25.0 -19.5 22.75 -19.55 20.45 -19.5 18.95 -18.3 M32.95 -31.85 Q37.5 -29.5 40.15 -25.55 42.75 -21.6 43.05 -16.65 43.25 -13.15 41.95 -9.9 40.65 -6.65 37.9 -4.1 35.15 -1.55 31.1 -0.05 27.05 1.45 21.7 1.45 17.4 1.45 13.65 0.3 9.9 -0.9 7.05 -3.15 4.15 -5.45 2.55 -8.75 0.95 -12.1 0.95 -16.4 1.0 -20.8 2.85 -24.1 4.7 -27.45 7.75 -29.7 10.85 -31.95 14.6 -33.1 18.4 -34.25 22.4 -34.25 28.45 -34.2 32.95 -31.85" fill="#ffd026" fill-rule="evenodd" stroke="none"/>
    </g>
  </defs>
</svg>
