<?xml version="1.0" encoding="UTF-8" standalone="no"?>
<svg xmlns:xlink="http://www.w3.org/1999/xlink" height="40.3px" width="176.8px" xmlns="http://www.w3.org/2000/svg">
  <g transform="matrix(1.0, 0.0, 0.0, 1.0, -1.7, 2.25)">
    <use height="37.55" transform="matrix(1.0, 0.0, 0.0, 1.0, 1.7, 0.5)" width="176.8" xlink:href="#shape0"/>
    <use height="37.55" transform="matrix(1.0, 0.0, 0.0, 1.0, 1.7, -2.25)" width="176.8" xlink:href="#shape1"/>
    <use height="13.15" transform="matrix(1.0, 0.0, 0.0, 1.0, 20.05, 9.65)" width="121.1" xlink:href="#sprite0"/>
    <use height="13.3" transform="matrix(1.0, 0.0, 0.0, 1.0, 147.5, 10.15)" width="13.5" xlink:href="#sprite1"/>
  </g>
  <defs>
    <g id="shape0" transform="matrix(1.0, 0.0, 0.0, 1.0, -1.7, -0.5)">
      <path d="M174.35 4.65 L174.4 4.65 Q178.3 8.55 178.5 13.95 L178.5 24.05 178.5 24.2 Q178.45 29.85 174.4 33.9 L174.35 33.95 Q170.25 38.05 164.5 38.05 L51.65 38.05 51.65 0.5 164.5 0.5 Q170.25 0.5 174.35 4.65 M51.6 38.05 L15.7 38.05 Q9.95 38.05 5.85 33.95 L5.85 33.9 Q3.7 31.75 2.65 29.2 1.75 26.85 1.7 24.2 L1.7 24.05 1.7 13.95 Q1.9 8.55 5.85 4.65 9.95 0.5 15.7 0.5 L51.6 0.5 51.6 38.05" fill="#000000" fill-rule="evenodd" stroke="none"/>
    </g>
    <g id="shape1" transform="matrix(1.0, 0.0, 0.0, 1.0, -1.7, 2.25)">
      <path d="M51.6 -2.25 L51.6 35.3 15.7 35.3 Q9.95 35.3 5.85 31.2 L5.85 31.15 Q3.7 29.0 2.65 26.45 1.75 24.1 1.7 21.45 L1.7 21.3 1.7 11.2 Q1.9 5.8 5.85 1.9 9.95 -2.25 15.7 -2.25 L51.6 -2.25 M164.5 -2.25 Q170.25 -2.25 174.35 1.9 L174.4 1.9 Q178.3 5.8 178.5 11.2 L178.5 21.3 178.5 21.45 Q178.45 27.1 174.4 31.15 L174.35 31.2 Q170.25 35.3 164.5 35.3 L51.65 35.3 51.65 -2.25 164.5 -2.25" fill="#ffffff" fill-rule="evenodd" stroke="none"/>
      <path d="M168.25 27.45 Q164.35 30.4 158.9 30.4 L55.5 30.4 21.4 30.4 Q15.9 30.4 12.0 27.45 L12.0 27.4 Q9.95 25.85 9.0 24.0 8.1 22.3 8.1 20.4 L8.1 20.25 8.1 13.0 Q8.25 9.05 12.0 6.25 L12.0 6.2 Q15.9 3.25 21.4 3.25 L55.5 3.25 158.9 3.25 Q164.35 3.25 168.25 6.2 L168.25 6.25 Q171.95 9.05 172.2 13.0 L172.2 20.25 172.2 20.4 Q172.1 24.45 168.25 27.4 L168.25 27.45 M55.5 30.4 L55.5 3.25 55.5 30.4" fill="#5ffc00" fill-rule="evenodd" stroke="none"/>
    </g>
    <g id="sprite0" transform="matrix(1.0, 0.0, 0.0, 1.0, 46.05, -5.7)">
      <use height="36.35" transform="matrix(0.3516, 0.0, 0.0, 0.3516, -46.0633, 5.8711)" width="41.15" xlink:href="#shape2"/>
      <use height="36.0" transform="matrix(0.3516, 0.0, 0.0, 0.3516, -31.3484, 5.6953)" width="32.85" xlink:href="#shape3"/>
      <use height="36.65" transform="matrix(0.3516, 0.0, 0.0, 0.3516, -19.7742, 5.9766)" width="44.15" xlink:href="#shape4"/>
      <use height="36.0" transform="matrix(0.3516, 0.0, 0.0, 0.3516, -4.1687, 5.8711)" width="34.65" xlink:href="#shape5"/>
      <use height="36.45" transform="matrix(0.3516, 0.0, 0.0, 0.3516, 12.7137, 5.7305)" width="33.0" xlink:href="#shape6"/>
      <use height="36.0" transform="matrix(0.3516, 0.0, 0.0, 0.3516, 24.4016, 5.6953)" width="32.85" xlink:href="#shape3"/>
      <use height="34.8" transform="matrix(0.3516, 0.0, 0.0, 0.3516, 35.9055, 5.8887)" width="45.0" xlink:href="#shape7"/>
      <use height="36.0" transform="matrix(0.3516, 0.0, 0.0, 0.3516, 51.8016, 5.6953)" width="32.85" xlink:href="#shape3"/>
      <use height="36.45" transform="matrix(0.3516, 0.0, 0.0, 0.3516, 63.4637, 5.7305)" width="33.0" xlink:href="#shape6"/>
    </g>
    <g id="shape2" transform="matrix(1.0, 0.0, 0.0, 1.0, -1.1, 34.5)">
      <path d="M32.25 -34.05 L37.35 -33.5 40.9 -33.05 42.25 -32.85 41.75 -22.85 41.1 -11.85 40.25 -0.4 34.7 0.55 29.35 1.25 25.35 1.7 23.75 1.85 21.1 -3.2 18.6 -7.7 16.8 -10.95 16.1 -12.15 16.05 -6.8 15.95 -2.65 15.9 1.45 11.05 1.1 6.2 0.65 2.55 0.3 1.1 0.1 1.25 -16.7 1.65 -34.35 7.15 -34.2 12.05 -33.9 15.55 -33.65 16.9 -33.5 19.9 -27.4 22.8 -21.9 24.9 -18.0 25.75 -16.45 25.95 -22.8 26.15 -28.6 26.3 -32.85 26.35 -34.5 32.25 -34.05" fill="#000000" fill-rule="evenodd" stroke="none"/>
    </g>
    <g id="shape3" transform="matrix(1.0, 0.0, 0.0, 1.0, -1.0, 35.0)">
      <path d="M22.15 -34.85 L32.55 -35.0 32.5 -33.75 32.4 -30.55 32.2 -26.25 31.85 -21.8 30.2 -21.9 26.0 -22.2 20.65 -22.6 15.4 -23.1 15.4 -21.65 15.45 -20.25 16.75 -20.15 19.85 -19.95 23.45 -19.7 23.55 -18.85 23.7 -16.75 23.95 -14.05 19.3 -13.1 15.65 -12.45 15.7 -11.6 15.8 -10.15 17.2 -10.25 20.85 -10.55 26.15 -11.1 32.2 -11.75 32.5 -10.0 33.15 -5.5 33.85 0.4 22.35 0.75 11.35 0.9 1.65 1.0 1.4 -9.2 1.15 -21.25 1.0 -33.85 11.95 -34.55 22.15 -34.85" fill="#000000" fill-rule="evenodd" stroke="none"/>
    </g>
    <g id="shape4" transform="matrix(1.0, 0.0, 0.0, 1.0, -0.5, 34.2)">
      <path d="M33.9 -33.3 L39.15 -32.55 44.65 -31.7 41.05 -25.6 37.7 -19.95 35.0 -15.45 37.4 -11.7 40.25 -7.1 43.9 -0.95 38.9 0.25 33.95 1.35 30.15 2.15 28.65 2.45 25.45 -2.65 22.6 -7.3 19.8 -2.95 16.7 1.75 15.2 1.45 11.4 0.6 6.45 -0.6 1.5 -1.95 6.45 -9.8 10.05 -15.3 7.5 -19.25 4.45 -24.15 0.5 -30.8 5.5 -32.05 10.45 -33.1 14.2 -33.9 15.75 -34.2 19.3 -28.55 22.5 -23.4 24.1 -26.3 26.15 -30.0 28.4 -33.95 29.95 -33.75 33.9 -33.3" fill="#000000" fill-rule="evenodd" stroke="none"/>
    </g>
    <g id="shape5" transform="matrix(1.0, 0.0, 0.0, 1.0, -0.8, 34.5)">
      <path d="M32.65 -34.5 L33.75 -29.3 34.65 -24.15 35.2 -20.25 35.45 -18.65 34.0 -18.7 30.5 -18.7 26.15 -18.6 27.1 -9.05 27.9 0.0 22.25 0.65 16.9 1.1 12.85 1.4 11.25 1.5 11.2 -5.25 11.2 -11.45 11.2 -17.75 6.25 -17.2 2.4 -16.6 0.8 -16.3 0.8 -21.75 0.95 -26.9 1.1 -30.7 1.2 -32.25 11.35 -33.0 21.6 -33.7 32.65 -34.5" fill="#000000" fill-rule="evenodd" stroke="none"/>
    </g>
    <g id="shape6" transform="matrix(1.0, 0.0, 0.0, 1.0, -0.75, 34.9)">
      <path d="M0.75 -34.0 L6.1 -34.5 11.25 -34.8 15.1 -34.9 16.6 -34.9 17.8 -24.2 18.9 -13.1 22.9 -13.95 26.9 -14.9 30.0 -15.7 31.25 -16.0 32.3 -10.8 33.1 -6.0 33.6 -2.45 33.75 -1.1 21.75 0.25 4.4 1.55 3.4 -6.9 2.55 -14.8 1.7 -23.4 0.75 -34.0" fill="#000000" fill-rule="evenodd" stroke="none"/>
    </g>
    <g id="shape7" transform="matrix(1.0, 0.0, 0.0, 1.0, -0.3, 34.45)">
      <path d="M33.65 -33.7 L39.0 -33.95 45.3 -34.25 41.45 -24.4 38.2 -16.4 35.15 -9.25 31.75 -1.7 26.8 -0.85 22.1 -0.2 18.55 0.2 17.15 0.35 13.0 -7.15 9.25 -14.15 5.2 -21.75 0.3 -31.2 5.5 -32.45 10.45 -33.5 14.15 -34.15 15.65 -34.45 19.7 -26.45 23.2 -19.15 25.8 -26.25 28.6 -33.4 29.95 -33.5 33.65 -33.7" fill="#000000" fill-rule="evenodd" stroke="none"/>
    </g>
    <g id="sprite1" transform="matrix(1.0, 0.0, 0.0, 1.0, 0.0, -2.65)">
      <use height="35.8" transform="matrix(0.3711, 0.0, 0.0, 0.3711, 0.0, 2.6611)" width="36.35" xlink:href="#shape8"/>
    </g>
    <g id="shape8" transform="matrix(1.0, 0.0, 0.0, 1.0, 0.0, 33.25)">
      <path d="M14.1 -6.15 L0.0 -6.15 0.0 -24.55 14.1 -24.55 11.05 -33.25 18.45 -33.25 36.35 -15.35 18.45 2.55 11.05 2.55 14.1 -6.15" fill="#000000" fill-rule="evenodd" stroke="none"/>
    </g>
  </defs>
</svg>
