<?xml version="1.0" encoding="UTF-8" standalone="no"?>
<svg xmlns:xlink="http://www.w3.org/1999/xlink" height="179.35px" width="129.4px" xmlns="http://www.w3.org/2000/svg">
  <g transform="matrix(1.0, 0.0, 0.0, 1.0, 68.7, 89.65)">
    <use height="62.2" transform="matrix(1.0, 0.0, 0.0, 1.0, -5.2, -73.75)" width="65.9" xlink:href="#sprite0"/>
    <use height="101.9" transform="matrix(1.0, 0.0, 0.0, 1.0, -44.9, -16.2)" width="103.85" xlink:href="#sprite1"/>
    <use height="135.6" transform="matrix(1.0, 0.0, 0.0, 1.0, -40.9, -45.9)" width="72.45" xlink:href="#sprite2"/>
    <use height="77.15" transform="matrix(1.0, 0.0, 0.0, 1.0, -68.7, -89.65)" width="80.25" xlink:href="#sprite3"/>
    <use height="77.65" transform="matrix(1.0, 0.0, 0.0, 1.0, -20.45, -82.9)" width="57.75" xlink:href="#sprite4"/>
  </g>
  <defs>
    <g id="sprite0" transform="matrix(1.0, 0.0, 0.0, 1.0, 32.95, 31.1)">
      <use height="62.2" transform="matrix(1.0, 0.0, 0.0, 1.0, -32.95, -31.1)" width="65.9" xlink:href="#shape0"/>
    </g>
    <g id="shape0" transform="matrix(1.0, 0.0, 0.0, 1.0, 32.95, 31.1)">
      <path d="M21.45 -27.05 L22.7 -29.2 Q22.9 -29.3 23.1 -29.5 L23.8 -30.1 24.75 -30.1 24.85 -30.1 Q29.7 -27.15 31.2 -21.8 33.3 -14.3 29.35 -7.55 L28.15 -5.6 Q25.35 -0.85 20.25 0.55 L19.45 0.2 19.5 0.15 20.1 -0.1 Q20.55 -0.25 20.85 -0.5 23.2 -2.25 24.5 -5.25 L25.15 -6.7 Q26.25 -9.2 24.55 -10.75 L24.2 -11.3 Q24.05 -11.75 24.3 -12.0 L24.4 -12.1 24.65 -11.9 Q26.35 -10.85 27.8 -11.35 L27.8 -11.45 25.05 -13.05 25.65 -14.7 26.1 -15.7 Q27.8 -18.3 27.05 -21.25 25.75 -26.15 21.45 -27.05 M16.7 -3.9 L16.7 -3.95 16.75 -3.95 16.7 -3.9 M13.95 -17.85 Q12.45 -20.05 13.4 -22.65 13.8 -23.0 14.3 -23.15 L14.6 -23.1 Q17.65 -22.85 18.8 -20.7 17.2 -21.05 15.5 -19.85 14.35 -19.05 13.95 -17.85 M15.55 -6.45 L15.9 -5.35 15.8 -5.25 Q15.35 -3.3 16.25 -1.55 17.1 0.1 18.45 0.85 L20.15 1.4 20.75 1.45 21.45 1.45 21.6 1.25 21.65 1.15 22.8 0.6 22.9 2.0 Q22.9 2.9 22.35 3.6 L22.3 3.7 22.3 3.8 22.25 3.9 21.5 4.25 Q18.95 4.65 17.0 3.75 L16.7 3.6 Q14.8 2.6 13.5 0.3 13.0 -0.9 12.8 -2.15 12.5 -3.9 13.45 -5.45 L13.55 -5.5 Q14.4 -6.2 15.55 -6.45" fill="#ffffff" fill-rule="evenodd" stroke="none"/>
      <path d="M19.45 0.2 L20.25 0.55 Q25.35 -0.85 28.15 -5.6 L29.35 -7.55 Q33.3 -14.3 31.2 -21.8 29.7 -27.15 24.85 -30.1 L24.75 -30.1 23.8 -30.1 23.1 -29.5 Q22.9 -29.3 22.7 -29.2 L21.45 -27.05 Q19.85 -23.75 20.45 -20.3 20.8 -18.05 22.15 -15.7 23.4 -14.25 25.05 -13.05 L27.8 -11.45 27.8 -11.35 Q26.35 -10.85 24.65 -11.9 L24.4 -12.1 Q21.85 -13.85 20.35 -16.45 L20.15 -17.1 19.95 -16.55 Q18.65 -12.5 18.35 -8.25 L18.25 -8.05 Q17.1 -13.25 19.55 -18.25 L19.5 -18.3 19.45 -18.35 Q19.35 -19.75 18.8 -20.7 17.65 -22.85 14.6 -23.1 L14.3 -23.15 Q13.8 -23.0 13.4 -22.65 12.45 -20.05 13.95 -17.85 L14.95 -16.7 15.4 -16.0 15.55 -15.9 15.6 -15.8 16.05 -15.05 16.3 -14.8 Q17.4 -11.9 16.6 -8.7 16.3 -7.6 16.6 -6.5 L17.25 -4.2 Q17.05 -3.9 16.75 -3.95 L16.7 -3.95 16.7 -3.9 Q17.0 -1.05 19.45 0.2 M22.95 -30.75 L23.9 -31.1 Q26.5 -30.7 28.4 -28.55 33.55 -22.8 32.85 -14.95 32.6 -11.85 31.15 -9.15 30.55 -7.65 29.55 -6.3 28.9 -5.45 28.5 -4.35 26.4 -1.5 23.5 0.2 24.85 3.4 21.55 5.05 20.05 5.8 18.4 5.35 L16.65 4.65 14.65 6.95 12.6 8.75 Q6.7 13.4 0.15 17.05 L-3.85 19.15 -6.85 20.5 Q-5.4 24.95 -6.6 29.45 -6.85 30.35 -7.65 31.0 -11.2 31.35 -14.35 30.1 -23.7 28.3 -30.1 20.85 -32.1 18.5 -32.8 15.55 L-32.95 13.9 -31.7 12.55 -31.1 12.25 Q-29.95 12.2 -29.3 12.95 -22.45 16.15 -15.45 12.35 L-13.0 11.1 -12.95 11.0 -12.85 10.9 -12.35 10.8 -12.35 10.75 Q-10.55 11.05 -9.75 12.4 L-5.75 10.65 Q-1.0 8.4 3.55 5.65 7.6 3.2 11.1 0.05 L11.2 -0.1 12.05 -0.9 Q11.75 -2.1 11.85 -3.35 11.95 -4.6 12.5 -5.8 L14.35 -7.15 15.15 -7.35 15.4 -7.35 Q15.15 -9.15 15.65 -11.05 L16.0 -12.45 15.8 -13.15 15.75 -13.65 13.7 -16.8 12.95 -17.9 12.55 -18.35 Q11.9 -19.95 12.1 -21.7 L12.45 -23.05 Q13.3 -23.95 14.4 -24.3 L14.65 -24.25 14.65 -24.3 Q17.85 -23.95 19.4 -21.55 19.3 -24.5 20.5 -27.2 L22.2 -30.15 22.65 -30.5 22.95 -30.75 M15.55 -6.45 Q14.4 -6.2 13.55 -5.5 L13.45 -5.45 Q12.5 -3.9 12.8 -2.15 13.0 -0.9 13.5 0.3 14.8 2.6 16.7 3.6 L17.0 3.75 Q18.95 4.65 21.5 4.25 L22.25 3.9 22.3 3.8 22.3 3.7 22.35 3.6 Q22.9 2.9 22.9 2.0 L22.8 0.6 21.65 1.15 21.6 1.25 21.45 1.45 20.75 1.45 20.15 1.4 18.45 0.85 Q17.1 0.1 16.25 -1.55 15.35 -3.3 15.8 -5.25 L15.9 -5.35 15.55 -6.45 M-6.05 12.0 Q-9.05 13.55 -12.1 14.05 -13.0 17.75 -12.2 21.5 -8.25 20.1 -4.5 18.3 0.45 15.95 5.1 13.0 9.85 10.0 13.9 6.3 L14.75 5.5 15.95 4.25 Q13.7 2.85 12.5 0.3 L12.45 0.2 12.35 0.1 12.25 -0.1 12.2 -0.05 12.15 0.0 11.2 1.0 Q6.75 5.5 0.9 8.35 L-5.55 11.7 -6.05 12.0 M-18.05 28.0 Q-17.3 28.5 -16.2 28.65 L-15.85 28.75 -15.55 28.9 -14.1 29.25 -13.55 29.25 -10.9 30.15 Q-9.15 30.65 -7.9 29.75 L-7.25 29.0 Q-6.45 25.0 -7.8 21.05 L-7.85 20.9 -11.95 22.45 -11.6 23.6 Q-10.9 25.55 -9.75 27.35 L-9.05 28.0 Q-8.85 27.1 -8.8 26.2 L-8.75 26.1 -8.8 23.35 Q-8.8 23.25 -8.7 23.3 -8.0 25.1 -7.9 27.15 L-7.9 27.25 -8.2 28.65 -8.25 28.75 -9.0 29.15 -9.45 28.9 -9.4 29.1 -9.9 28.75 Q-11.05 27.2 -11.75 25.45 -14.4 19.55 -13.0 13.25 L-12.95 13.0 Q-12.65 12.6 -12.25 12.5 -11.9 12.55 -11.85 12.95 L-11.85 13.05 -11.9 13.3 -10.6 12.75 -11.5 12.15 -11.65 12.3 -11.85 12.3 -12.15 12.3 -12.4 12.1 -13.0 12.1 Q-19.45 16.75 -27.15 14.85 -28.95 14.4 -30.45 13.35 L-30.55 13.3 -30.65 13.25 -31.05 13.25 -31.65 13.8 -32.0 14.25 Q-31.6 18.25 -28.55 21.2 -25.8 23.85 -22.55 25.85 -20.65 27.0 -18.65 27.85 L-18.1 28.1 -17.75 28.2 -18.05 28.0 M-18.65 27.5 L-18.55 27.6 -18.7 27.5 -18.65 27.5" fill="#000000" fill-rule="evenodd" stroke="none"/>
      <path d="M21.45 -27.05 Q25.75 -26.15 27.05 -21.25 27.8 -18.3 26.1 -15.7 L25.65 -14.7 25.05 -13.05 Q23.4 -14.25 22.15 -15.7 20.8 -18.05 20.45 -20.3 19.85 -23.75 21.45 -27.05 M24.4 -12.1 L24.3 -12.0 Q24.05 -11.75 24.2 -11.3 L24.55 -10.75 Q26.25 -9.2 25.15 -6.7 L24.5 -5.25 Q23.2 -2.25 20.85 -0.5 20.55 -0.25 20.1 -0.1 L19.5 0.15 19.45 0.2 Q17.0 -1.05 16.7 -3.9 L16.75 -3.95 Q17.05 -3.9 17.25 -4.2 L16.6 -6.5 Q16.3 -7.6 16.6 -8.7 17.4 -11.9 16.3 -14.8 L16.05 -15.05 15.6 -15.8 15.55 -15.9 15.4 -16.0 14.95 -16.7 13.95 -17.85 Q14.35 -19.05 15.5 -19.85 17.2 -21.05 18.8 -20.7 19.35 -19.75 19.45 -18.35 L19.5 -18.3 19.55 -18.25 Q17.1 -13.25 18.25 -8.05 L18.35 -8.25 Q18.65 -12.5 19.95 -16.55 L20.35 -16.45 Q21.85 -13.85 24.4 -12.1" fill="#e2ebef" fill-rule="evenodd" stroke="none"/>
      <path d="M-4.5 18.3 Q-6.25 15.85 -6.15 12.75 L-6.05 12.0 -5.55 11.7 0.9 8.35 Q6.75 5.5 11.2 1.0 11.65 4.15 13.9 6.3 9.85 10.0 5.1 13.0 0.45 15.95 -4.5 18.3 M12.5 0.3 L12.15 0.0 12.2 -0.05 12.35 0.1 12.45 0.2 12.5 0.3" fill="#75640a" fill-rule="evenodd" stroke="none"/>
      <path d="M-6.05 12.0 L-6.15 12.75 Q-6.25 15.85 -4.5 18.3 -8.25 20.1 -12.2 21.5 -13.0 17.75 -12.1 14.05 -9.05 13.55 -6.05 12.0 M13.9 6.3 Q11.65 4.15 11.2 1.0 L12.15 0.0 12.5 0.3 Q13.7 2.85 15.95 4.25 L14.75 5.5 13.9 6.3" fill="#5f5300" fill-rule="evenodd" stroke="none"/>
      <path d="M-18.1 28.1 L-18.65 27.85 Q-20.65 27.0 -22.55 25.85 -25.8 23.85 -28.55 21.2 -31.6 18.25 -32.0 14.25 L-31.65 13.8 -31.05 13.25 -30.65 13.25 -30.55 13.3 -30.45 13.35 Q-28.95 14.4 -27.15 14.85 -19.45 16.75 -13.0 12.1 L-12.4 12.1 -12.15 12.3 -11.85 12.3 -11.65 12.3 -11.5 12.15 -10.6 12.75 -11.9 13.3 -11.85 13.05 -11.85 12.95 Q-11.9 12.55 -12.25 12.5 -12.65 12.6 -12.95 13.0 L-13.0 13.25 Q-14.4 19.55 -11.75 25.45 -11.05 27.2 -9.9 28.75 L-9.4 29.1 -9.45 28.9 -9.0 29.15 -8.25 28.75 -8.2 28.65 -7.9 27.25 -7.9 27.15 Q-8.0 25.1 -8.7 23.3 -8.8 23.25 -8.8 23.35 L-8.75 26.1 -8.8 26.2 Q-8.85 27.1 -9.05 28.0 L-9.75 27.35 Q-10.9 25.55 -11.6 23.6 L-11.95 22.45 -7.85 20.9 -7.8 21.05 Q-6.45 25.0 -7.25 29.0 L-7.9 29.75 Q-9.15 30.65 -10.9 30.15 L-13.55 29.25 -14.1 29.25 -15.55 28.9 -15.85 28.75 -16.2 28.65 Q-17.3 28.5 -18.05 28.0 L-18.1 28.1 M-18.65 27.5 L-18.7 27.5 -18.55 27.6 -18.65 27.5" fill="url(#gradient0)" fill-rule="evenodd" stroke="none"/>
    </g>
    <linearGradient gradientTransform="matrix(-0.0036, 0.0076, -0.0101, -0.0048, -25.25, 25.85)" gradientUnits="userSpaceOnUse" id="gradient0" spreadMethod="pad" x1="-819.2" x2="819.2">
      <stop offset="0.0" stop-color="#39fd7b"/>
      <stop offset="1.0" stop-color="#000000"/>
    </linearGradient>
    <g id="sprite1" transform="matrix(1.0, 0.0, 0.0, 1.0, 51.9, 50.95)">
      <use height="101.9" transform="matrix(1.0, 0.0, 0.0, 1.0, -51.9, -50.95)" width="103.85" xlink:href="#shape1"/>
    </g>
    <g id="shape1" transform="matrix(1.0, 0.0, 0.0, 1.0, 51.9, 50.95)">
      <path d="M-24.3 -45.35 L-23.55 -45.65 -17.15 -47.7 Q-10.95 -49.4 -4.5 -50.1 L3.85 -50.85 Q11.25 -51.15 18.6 -50.55 L33.35 -49.1 Q40.65 -48.2 47.7 -46.4 49.8 -45.9 51.7 -44.9 L51.8 -44.8 51.9 -44.55 51.95 -44.5 Q52.05 -37.3 50.65 -30.15 L48.15 -15.65 47.85 -14.8 Q47.15 -13.55 46.2 -13.35 L46.2 -13.3 46.1 -13.15 46.0 -13.05 42.05 -13.3 41.5 -13.4 39.55 0.3 37.95 8.6 38.45 8.65 40.7 8.75 41.05 8.85 41.2 9.05 41.4 9.3 41.5 9.5 41.0 14.55 41.0 14.65 40.9 15.3 40.75 15.55 40.05 15.45 40.05 15.35 39.65 15.6 39.7 16.05 39.7 16.15 39.5 30.7 39.35 35.2 39.15 35.3 Q36.5 36.85 33.75 37.9 L33.7 37.95 33.2 38.1 32.9 38.2 32.65 38.0 32.9 37.7 29.15 37.0 29.5 32.85 26.55 34.4 17.8 38.55 17.85 40.1 18.0 44.05 Q18.1 45.65 17.75 47.0 L17.8 47.3 17.75 47.55 17.5 47.8 17.45 47.85 17.4 47.9 Q14.85 49.95 11.9 50.95 L11.75 50.8 11.7 50.7 Q7.45 50.8 3.9 48.75 L3.8 48.5 4.0 48.25 4.2 48.15 Q4.1 41.0 4.4 33.85 L4.5 28.4 -0.6 27.6 -0.3 30.25 -0.3 30.3 -0.25 30.5 -0.3 30.55 -0.4 30.85 -0.9 31.0 Q-2.05 31.75 -3.5 32.25 -4.1 32.45 -4.7 32.25 L-4.85 32.2 -10.45 31.45 Q-10.85 28.85 -10.85 26.2 L-14.7 25.7 -14.75 25.8 Q-20.45 27.85 -26.2 30.05 -30.7 31.65 -34.85 34.2 L-35.05 34.25 -34.85 36.3 -34.45 41.2 -34.3 41.3 Q-34.05 42.95 -36.15 43.8 -37.05 44.2 -37.8 44.7 L-37.85 44.75 Q-38.35 45.4 -39.1 45.55 L-39.3 45.55 -40.85 45.3 -44.6 44.0 -45.3 43.35 -45.3 43.25 Q-46.2 36.1 -47.55 29.05 -48.35 25.05 -48.65 21.1 L-49.35 20.95 -49.5 21.15 -50.45 21.2 Q-51.5 18.15 -51.75 14.85 L-51.8 14.65 -51.8 14.55 -51.9 14.45 -51.9 14.35 -51.9 14.25 -51.8 14.05 -37.55 10.6 -26.2 7.65 -12.8 4.45 -11.3 3.95 -10.9 4.0 -10.9 3.95 -10.35 4.05 -13.4 -9.4 -13.9 -11.8 -14.65 -15.9 -14.6 -16.35 -21.2 -16.15 Q-21.55 -15.95 -21.9 -16.15 L-22.1 -16.4 -22.05 -16.55 -25.55 -30.3 -28.05 -40.65 -28.45 -43.65 -28.2 -44.1 -28.05 -44.15 -28.05 -44.2 -26.25 -44.9 -24.3 -45.35 M32.6 -16.05 L32.85 -15.95 33.0 -15.9 38.55 -15.2 38.6 -15.25 38.65 -15.25 38.85 -15.3 39.1 -15.25 39.2 -15.15 39.25 -15.1 40.6 -14.95 45.05 -14.15 Q44.7 -16.4 45.25 -18.75 L46.6 -26.0 Q47.75 -33.3 48.35 -40.65 L48.75 -42.95 47.1 -43.35 36.1 -45.4 18.35 -47.4 Q0.7 -48.9 -16.65 -45.6 L-27.1 -43.4 Q-25.8 -36.55 -24.1 -29.7 L-21.1 -17.05 -16.95 -17.65 -1.4 -18.3 11.5 -17.8 26.0 -16.65 32.45 -15.95 32.6 -16.0 32.6 -16.05 M-15.85 -47.15 L-16.85 -46.85 -15.8 -47.05 Q-8.1 -48.45 -0.25 -48.9 L3.1 -49.15 17.85 -48.7 32.75 -47.2 47.15 -44.85 Q48.15 -44.7 49.0 -44.1 L49.05 -44.2 49.4 -44.35 49.55 -44.4 49.35 -44.5 45.1 -45.95 Q38.95 -47.35 32.75 -48.2 16.45 -50.4 -0.1 -49.55 -8.1 -49.1 -15.85 -47.15 M-12.8 -16.45 L-13.55 -16.4 Q-12.45 -9.8 -10.65 -3.3 -9.6 0.5 -9.4 4.2 L-6.2 4.7 Q-6.8 -2.25 -8.4 -8.95 -9.25 -12.75 -9.35 -16.6 L-12.8 -16.45 M-49.45 19.95 L-34.75 21.95 -25.7 23.2 -25.25 23.25 -21.65 23.7 -21.3 23.6 -21.2 23.6 -20.95 23.65 -20.8 23.8 -19.9 23.9 -5.05 25.7 9.7 27.75 10.75 28.05 Q10.15 25.15 10.2 22.1 L10.2 22.05 2.8 21.3 -6.5 19.85 -21.45 17.85 -45.85 15.85 -50.6 15.25 -49.5 19.95 -49.5 20.0 -49.45 19.95 M-46.75 14.35 L-36.9 15.05 -22.05 16.6 -7.2 18.55 7.25 20.55 11.05 21.1 11.15 21.15 Q12.2 20.3 13.75 19.85 L20.0 17.7 33.55 12.0 38.1 10.15 36.7 9.9 34.8 9.55 30.2 9.2 29.95 9.2 12.5 7.8 -2.05 6.4 -3.05 6.3 -3.65 6.25 -7.7 5.7 -10.6 5.15 Q-17.65 7.15 -25.0 8.6 L-32.25 10.45 Q-39.45 12.65 -46.75 14.2 L-47.2 14.3 -46.75 14.35 M-41.05 22.45 L-41.15 22.6 Q-40.3 29.8 -39.7 37.05 -39.35 40.6 -39.15 44.1 L-39.0 44.1 -35.4 41.45 Q-36.85 34.7 -37.25 27.65 L-37.5 22.95 -38.5 22.8 -41.05 22.45 M-47.55 21.35 L-45.05 35.0 Q-44.35 38.95 -44.35 42.8 L-40.1 43.95 Q-41.45 37.3 -41.7 30.3 L-42.1 23.45 Q-42.35 22.85 -42.2 22.25 L-47.55 21.35 M-28.3 24.15 L-36.4 23.1 -35.9 27.2 Q-32.15 25.5 -28.3 24.15 M-35.55 30.1 L-35.15 33.35 Q-29.1 29.4 -22.15 27.1 L-17.0 25.4 -21.65 24.85 Q-23.3 26.0 -25.55 26.6 L-29.25 27.9 Q-32.35 29.35 -35.55 30.1 M-24.35 24.55 L-25.6 24.45 -25.75 24.5 -35.8 27.85 -35.65 29.3 Q-30.0 26.85 -24.3 24.7 L-24.05 24.6 -24.35 24.55 M-9.4 29.9 L-9.35 30.3 -5.1 31.15 -5.5 26.9 -9.85 26.3 -9.95 26.45 -9.4 29.9 M49.6 -43.55 Q49.8 -37.55 48.75 -31.55 L46.5 -16.9 46.15 -15.05 47.05 -16.1 49.35 -30.45 Q50.5 -37.0 51.1 -43.7 L49.6 -43.55 M31.8 -14.65 L14.65 -16.2 Q4.15 -17.0 -6.4 -16.7 -5.35 -9.8 -3.95 -2.95 L-2.95 1.7 Q-2.6 3.45 -2.8 5.15 L3.85 5.85 17.8 7.1 29.7 8.0 Q29.65 4.95 30.05 1.8 L30.8 -5.6 31.75 -14.55 31.8 -14.65 M32.45 -7.9 L31.05 6.55 30.85 8.05 31.9 8.1 34.95 8.3 Q35.5 1.2 36.75 -5.9 L38.2 -13.9 33.0 -14.55 Q32.5 -11.45 32.45 -8.3 L32.45 -7.9 M-3.85 5.0 Q-4.8 -1.55 -6.25 -8.05 -7.25 -12.35 -7.05 -16.7 L-8.45 -16.65 Q-7.4 -10.2 -5.95 -3.75 -5.0 0.5 -5.25 4.8 L-3.85 5.0 M-4.0 30.45 L-3.95 30.85 -3.85 30.85 -1.45 30.1 Q-1.85 28.8 -1.85 27.45 L-4.4 27.05 -4.0 30.45 M11.25 22.1 L11.65 27.6 Q17.35 24.7 23.2 21.9 30.3 18.55 37.55 15.35 L40.0 14.3 Q39.95 12.25 40.35 10.2 33.5 13.5 26.5 16.4 L17.7 20.0 Q14.65 21.3 11.5 21.95 L11.45 22.0 11.35 22.1 11.25 22.1 M5.25 48.4 L11.25 49.45 Q10.85 42.6 11.0 35.6 L11.05 29.05 8.15 29.15 5.5 28.55 5.8 30.95 Q5.8 38.35 5.45 45.75 L5.25 48.35 5.25 48.4 M33.35 24.4 L33.65 18.5 31.4 19.4 31.15 20.7 31.05 20.95 Q31.2 22.55 30.95 24.1 L32.45 23.95 32.7 24.0 32.95 24.05 33.25 24.4 33.35 24.65 33.35 24.4 M33.35 24.65 L33.35 24.7 33.35 24.65 M32.25 25.05 L30.9 25.15 Q24.85 29.15 18.4 32.55 L17.65 32.8 17.65 34.05 Q18.5 33.5 19.4 33.2 26.25 29.75 32.5 25.4 L32.75 25.2 32.25 25.05 M17.65 31.65 Q23.7 28.1 30.0 24.8 L30.1 24.8 30.0 24.7 Q29.75 22.25 30.3 19.9 23.9 22.85 17.65 26.1 L17.65 31.65 M16.7 26.6 L11.9 28.65 Q12.65 35.7 12.35 42.9 12.2 46.25 12.3 49.55 L12.35 49.55 12.45 49.7 12.5 49.75 12.9 49.3 Q14.85 48.3 16.6 47.1 L16.3 32.85 Q16.2 29.65 16.7 26.6 M33.25 24.9 L33.2 24.95 33.25 24.95 33.25 24.9 M32.45 30.1 L32.65 30.2 32.65 30.15 33.15 25.9 Q30.9 27.85 28.2 29.4 L17.7 35.3 17.7 35.35 17.75 37.9 Q22.95 34.55 28.7 31.85 L32.45 30.1 M32.5 31.35 L32.55 31.05 32.4 31.15 30.5 32.3 Q30.75 33.95 30.35 35.6 L30.3 35.85 32.9 36.35 Q32.85 34.45 32.95 32.5 L33.0 31.7 32.75 31.65 32.5 31.45 32.5 31.35 M36.0 8.4 L37.05 8.5 Q37.9 1.7 39.05 -5.2 L39.55 -9.05 Q39.7 -11.35 40.45 -13.55 L39.15 -13.75 39.1 -13.55 39.05 -13.3 Q38.45 -6.05 37.1 1.1 L36.0 8.3 35.95 8.4 36.0 8.4 M38.4 17.95 L38.6 16.3 34.8 18.05 34.5 18.15 Q34.8 25.45 34.55 32.7 34.5 34.7 34.1 36.55 35.2 35.6 36.7 35.0 37.5 34.65 38.4 34.35 37.75 27.5 38.25 20.55 L38.4 17.95" fill="#000000" fill-rule="evenodd" stroke="none"/>
      <path d="M32.45 -15.95 L26.0 -16.65 11.5 -17.8 -1.4 -18.3 -16.95 -17.65 -21.1 -17.05 -24.1 -29.7 Q-25.8 -36.55 -27.1 -43.4 L-16.65 -45.6 Q0.7 -48.9 18.35 -47.4 L36.1 -45.4 47.1 -43.35 48.75 -42.95 48.35 -40.65 Q47.75 -33.3 46.6 -26.0 L45.25 -18.75 Q44.7 -16.4 45.05 -14.15 L40.6 -14.95 39.25 -15.1 39.2 -15.15 39.1 -15.25 38.85 -15.3 38.65 -15.25 38.6 -15.25 38.55 -15.2 33.0 -15.9 32.85 -15.95 32.6 -16.05 32.45 -15.95 M-15.85 -47.15 Q-8.1 -49.1 -0.1 -49.55 16.45 -50.4 32.75 -48.2 38.95 -47.35 45.1 -45.95 L49.35 -44.5 49.4 -44.35 49.05 -44.2 49.0 -44.1 Q48.15 -44.7 47.15 -44.85 L32.75 -47.2 17.85 -48.7 3.1 -49.15 -0.25 -48.9 Q-8.1 -48.45 -15.8 -47.05 L-15.85 -47.15 M-46.75 14.2 Q-39.45 12.65 -32.25 10.45 L-25.0 8.6 Q-17.65 7.15 -10.6 5.15 L-7.7 5.7 -3.65 6.25 -3.05 6.3 -2.05 6.4 12.5 7.8 29.95 9.2 30.2 9.2 34.8 9.55 36.7 9.9 38.1 10.15 33.55 12.0 20.0 17.7 13.75 19.85 Q12.2 20.3 11.15 21.15 L11.05 21.1 7.25 20.55 -7.2 18.55 -22.05 16.6 -36.9 15.05 -46.75 14.35 -46.75 14.2 M-24.3 24.7 Q-30.0 26.85 -35.65 29.3 L-35.8 27.85 -25.75 24.5 -25.6 24.45 -24.35 24.55 -24.3 24.7 M33.25 24.4 L33.35 24.4 33.35 24.65 33.25 24.4 M32.5 25.4 Q26.25 29.75 19.4 33.2 18.5 33.5 17.65 34.05 L17.65 32.8 18.4 32.55 Q24.85 29.15 30.9 25.15 L32.25 25.05 32.5 25.4 M32.4 31.15 L32.55 31.05 32.5 31.35 32.4 31.15" fill="#ff0000" fill-rule="evenodd" stroke="none"/>
      <path d="M-49.5 19.95 L-50.6 15.25 -45.85 15.85 -21.45 17.85 -6.5 19.85 2.8 21.3 10.2 22.05 10.2 22.1 Q10.15 25.15 10.75 28.05 L9.7 27.75 -5.05 25.7 -19.9 23.9 -20.8 23.8 -20.95 23.65 -21.2 23.6 -21.3 23.6 -21.65 23.7 -25.25 23.25 -25.7 23.2 -34.75 21.95 -49.45 19.95 -49.5 19.95 M-12.8 -16.45 L-9.35 -16.6 Q-9.25 -12.75 -8.4 -8.95 -6.8 -2.25 -6.2 4.7 L-9.4 4.2 Q-9.6 0.5 -10.65 -3.3 -12.45 -9.8 -13.55 -16.4 L-12.8 -16.45 M-47.55 21.35 L-42.2 22.25 Q-42.35 22.85 -42.1 23.45 L-41.7 30.3 Q-41.45 37.3 -40.1 43.95 L-44.35 42.8 Q-44.35 38.95 -45.05 35.0 L-47.55 21.35 M32.45 -7.9 L32.45 -8.3 Q32.5 -11.45 33.0 -14.55 L38.2 -13.9 36.75 -5.9 Q35.5 1.2 34.95 8.3 L31.9 8.1 30.85 8.05 31.05 6.55 32.45 -7.9 M5.25 48.35 L5.45 45.75 Q5.8 38.35 5.8 30.95 L5.5 28.55 8.15 29.15 11.05 29.05 11.0 35.6 Q10.85 42.6 11.25 49.45 L5.25 48.4 5.25 48.35 M11.25 22.1 L11.35 22.1 11.45 22.0 11.5 21.95 Q14.65 21.3 17.7 20.0 L26.5 16.4 Q33.5 13.5 40.35 10.2 39.95 12.25 40.0 14.3 L37.55 15.35 Q30.3 18.55 23.2 21.9 17.35 24.7 11.65 27.6 L11.25 22.1" fill="#d20000" fill-rule="evenodd" stroke="none"/>
      <path d="M-41.05 22.45 L-38.5 22.8 -37.5 22.95 -37.25 27.65 Q-36.85 34.7 -35.4 41.45 L-39.0 44.1 -39.15 44.1 Q-39.35 40.6 -39.7 37.05 -40.3 29.8 -41.15 22.6 L-41.05 22.45 M-35.55 30.1 Q-32.35 29.35 -29.25 27.9 L-25.55 26.6 Q-23.3 26.0 -21.65 24.85 L-17.0 25.4 -22.15 27.1 Q-29.1 29.4 -35.15 33.35 L-35.55 30.1 M-9.4 29.9 L-9.95 26.45 -9.85 26.3 -5.5 26.9 -5.1 31.15 -9.35 30.3 -9.4 29.9 M49.6 -43.55 L51.1 -43.7 Q50.5 -37.0 49.35 -30.45 L47.05 -16.1 46.15 -15.05 46.5 -16.9 48.75 -31.55 Q49.8 -37.55 49.6 -43.55 M-3.85 5.0 L-5.25 4.8 Q-5.0 0.5 -5.95 -3.75 -7.4 -10.2 -8.45 -16.65 L-7.05 -16.7 Q-7.25 -12.35 -6.25 -8.05 -4.8 -1.55 -3.85 5.0 M-3.85 30.85 L-4.0 30.45 -4.4 27.05 -1.85 27.45 Q-1.85 28.8 -1.45 30.1 L-3.85 30.85 M33.25 24.4 L32.95 24.05 32.7 24.0 32.45 23.95 30.95 24.1 Q31.2 22.55 31.05 20.95 L31.15 20.7 31.4 19.4 33.65 18.5 33.35 24.4 33.25 24.4 M16.7 26.6 Q16.2 29.65 16.3 32.85 L16.6 47.1 Q14.85 48.3 12.9 49.3 L12.5 49.75 12.45 49.7 12.35 49.55 12.3 49.55 Q12.2 46.25 12.35 42.9 12.65 35.7 11.9 28.65 L16.7 26.6 M32.65 30.15 L32.45 30.1 28.7 31.85 Q22.95 34.55 17.75 37.9 L17.7 35.35 17.7 35.3 28.2 29.4 Q30.9 27.85 33.15 25.9 L32.65 30.15 M32.4 31.15 L32.5 31.35 32.5 31.45 32.75 31.65 33.0 31.7 32.95 32.5 Q32.85 34.45 32.9 36.35 L30.3 35.85 30.35 35.6 Q30.75 33.95 30.5 32.3 L32.4 31.15 M36.0 8.3 L37.1 1.1 Q38.45 -6.05 39.05 -13.3 L39.1 -13.55 39.15 -13.75 40.45 -13.55 Q39.7 -11.35 39.55 -9.05 L39.05 -5.2 Q37.9 1.7 37.05 8.5 L36.0 8.4 36.0 8.3 M38.4 17.95 L38.25 20.55 Q37.75 27.5 38.4 34.35 37.5 34.65 36.7 35.0 35.2 35.6 34.1 36.55 34.5 34.7 34.55 32.7 34.8 25.45 34.5 18.15 L34.8 18.05 38.6 16.3 38.4 17.95" fill="#7d0000" fill-rule="evenodd" stroke="none"/>
    </g>
    <g id="sprite2" transform="matrix(1.0, 0.0, 0.0, 1.0, 36.2, 67.8)">
      <use height="135.6" transform="matrix(1.0, 0.0, 0.0, 1.0, -36.2, -67.8)" width="72.45" xlink:href="#shape2"/>
    </g>
    <g id="shape2" transform="matrix(1.0, 0.0, 0.0, 1.0, 36.2, 67.8)">
      <path d="M-17.2 -67.8 Q-13.75 -67.0 -12.2 -63.65 L-10.7 -60.7 Q-7.6 -56.45 -3.8 -53.1 L-3.35 -53.2 -3.1 -53.25 Q4.45 -52.0 9.85 -46.55 L13.4 -43.2 Q19.0 -38.2 22.75 -31.85 26.45 -25.5 29.65 -18.8 L30.55 -16.75 Q32.25 -13.35 33.35 -9.55 34.9 -4.25 35.45 1.3 35.75 4.45 35.1 7.5 L35.1 7.55 Q36.65 13.8 36.15 20.45 35.55 28.25 29.7 33.3 L29.1 33.7 Q28.2 34.4 26.9 34.7 12.1 38.0 -0.85 30.45 L-2.55 29.4 Q-5.35 29.65 -7.8 28.65 L-7.55 29.1 -7.4 29.4 -6.2 31.0 -6.55 30.85 Q-3.8 35.4 -0.2 39.35 3.4 43.25 7.45 46.8 L16.35 54.15 Q18.55 55.9 20.05 58.3 20.9 59.75 20.9 61.25 L20.95 61.25 Q21.7 64.5 18.0 65.3 L11.05 66.85 Q1.9 68.8 -7.1 66.7 -9.1 66.2 -10.5 65.05 -12.6 66.55 -15.55 66.75 L-21.7 66.8 -24.0 66.5 Q-24.3 66.7 -24.75 66.5 L-24.9 66.25 Q-26.45 65.75 -27.8 64.75 -29.1 63.75 -29.7 62.3 -30.85 59.35 -30.7 56.1 -30.55 52.2 -27.55 49.75 -26.8 49.1 -25.8 48.8 L-23.1 48.25 Q-17.15 48.35 -11.75 50.15 -18.05 44.8 -22.6 37.85 L-30.35 25.35 Q-31.45 23.55 -32.05 21.6 -33.9 21.5 -35.05 19.65 -37.35 15.85 -35.05 12.3 -33.55 10.05 -31.25 8.6 -29.25 7.35 -27.1 6.35 L-27.05 6.2 -26.95 6.1 -26.65 5.95 -26.5 5.75 -26.0 5.4 -25.95 5.55 Q-22.9 3.85 -19.55 2.75 -12.75 0.45 -5.6 -0.4 -4.25 -2.7 -3.5 -5.2 L-3.2 -8.1 -3.25 -8.4 Q-3.4 -10.95 -3.8 -13.45 L-4.3 -15.75 -4.75 -17.75 -8.4 -24.75 -8.9 -26.0 Q-13.15 -31.8 -15.85 -38.5 -18.35 -44.7 -13.45 -49.1 L-11.65 -50.2 Q-13.65 -51.75 -15.2 -53.95 -17.35 -56.9 -19.05 -60.2 L-19.5 -61.3 Q-20.65 -63.55 -19.6 -66.05 L-18.75 -67.1 Q-18.0 -67.65 -17.2 -67.8 M-18.55 -61.7 Q-18.15 -61.1 -18.05 -60.45 -15.2 -54.95 -10.6 -50.7 L-9.15 -49.35 -9.1 -49.35 Q-8.6 -49.3 -8.5 -48.85 L-8.5 -48.65 Q-5.9 -47.75 -3.85 -49.6 -3.45 -50.6 -3.4 -51.65 -9.25 -56.15 -12.9 -62.55 L-13.05 -62.75 Q-14.15 -65.95 -17.3 -66.55 L-18.05 -66.35 Q-20.15 -64.4 -18.55 -61.7 M8.05 -0.85 L16.95 0.4 Q24.25 1.85 31.35 3.85 33.05 4.3 34.2 5.45 34.25 -0.45 32.75 -6.1 L32.25 -8.25 31.1 -11.75 30.9 -11.8 27.75 -19.4 22.35 -29.9 Q18.35 -37.2 12.05 -42.85 L3.75 -49.5 Q1.85 -50.85 -0.5 -51.35 L-2.5 -51.9 -2.55 -51.85 Q-2.1 -49.25 -4.95 -47.85 -6.6 -47.05 -8.45 -47.6 L-8.5 -47.6 Q-10.2 -48.2 -11.3 -49.35 L-14.0 -46.55 Q-15.25 -45.15 -15.35 -43.2 -15.55 -39.65 -13.8 -36.5 L-6.4 -23.75 Q-2.8 -17.95 -2.2 -11.25 -1.9 -8.85 -2.15 -6.4 -2.2 -5.5 -2.4 -4.55 -2.9 -2.45 -3.9 -0.6 L2.15 -1.1 8.05 -0.85 M-11.55 2.25 L-2.6 1.6 7.2 2.45 12.1 3.2 Q13.3 3.45 14.2 4.1 L14.15 4.1 13.8 4.05 13.7 4.15 13.55 4.2 6.85 3.35 0.65 2.8 -11.35 3.15 -15.3 3.8 -15.45 3.9 -15.65 4.05 -24.45 6.4 Q-27.5 7.55 -30.4 9.2 -34.05 11.25 -34.95 15.15 -35.15 16.1 -34.85 17.05 -34.15 19.3 -32.35 20.7 -32.85 18.85 -32.95 16.95 L-32.9 16.15 -33.95 17.2 Q-34.45 15.75 -32.7 14.6 -30.4 13.15 -27.7 13.45 -21.9 14.1 -16.65 16.65 L-17.05 16.5 Q-12.15 18.8 -8.35 22.95 -5.55 26.0 -2.2 28.3 L-1.7 28.3 -1.55 28.35 -1.4 28.5 -1.35 28.8 -1.35 28.9 Q1.0 30.35 3.6 31.5 8.7 33.7 14.3 34.3 L25.0 33.7 Q26.95 33.25 28.7 32.3 L29.85 31.3 31.5 29.55 Q35.8 23.0 34.9 15.0 L33.95 6.95 32.55 6.1 32.25 5.9 Q31.2 5.2 29.95 4.85 22.65 2.75 15.2 1.4 L7.8 0.45 Q-1.95 -0.25 -11.6 1.85 L-15.5 2.85 -11.55 2.25 M-10.75 22.45 Q-12.1 21.1 -13.65 20.0 L-15.5 18.65 -15.6 18.6 -15.25 19.0 Q-17.2 18.0 -19.15 17.1 -21.6 16.0 -24.1 15.2 L-25.6 14.85 Q-25.0 17.85 -23.4 20.7 L-15.55 33.3 Q-11.4 39.5 -6.8 45.35 L-3.5 49.3 Q2.95 50.3 9.35 52.0 L9.55 52.25 9.55 52.35 9.55 52.4 9.5 52.5 9.45 52.6 Q6.0 52.5 2.45 51.5 -1.7 50.4 -5.8 50.8 -6.6 50.9 -7.25 51.4 -10.1 53.8 -10.85 57.3 -11.7 60.95 -10.0 64.25 L-6.9 65.25 Q-8.95 61.3 -7.75 56.8 -7.25 55.1 -6.4 53.5 L-5.45 52.65 Q-5.05 53.2 -5.75 53.85 L-5.85 53.95 -6.45 56.1 -6.45 56.4 Q-7.05 58.15 -7.05 60.05 L-7.05 60.4 Q-6.9 63.2 -5.6 65.6 L-0.95 66.4 Q-3.05 60.95 -0.95 55.3 -0.55 54.25 0.3 53.65 0.6 54.55 -0.2 55.65 L-0.25 55.75 Q-0.85 57.5 -0.85 59.4 L-0.85 59.8 -0.9 60.0 -0.95 60.1 Q-1.0 63.35 0.15 66.35 L0.2 66.5 7.75 66.3 Q14.25 65.5 19.9 62.7 L19.95 62.4 19.95 62.25 19.3 60.05 19.25 59.75 Q15.75 53.95 9.8 50.2 7.05 48.5 4.75 46.15 -0.3 40.95 -4.85 35.25 -8.35 30.85 -10.65 25.65 L-11.5 23.1 Q-11.6 22.65 -11.2 22.55 L-10.95 22.7 -8.85 26.65 -8.6 26.75 -8.45 27.1 -4.4 28.15 Q-7.4 25.95 -9.95 23.25 L-10.75 22.45 M-5.7 48.8 Q-10.85 42.55 -15.45 35.8 L-23.25 23.65 Q-25.75 19.55 -26.6 14.95 L-26.6 14.7 Q-28.95 14.45 -31.15 15.25 -32.45 17.55 -31.3 20.2 L-31.25 20.5 Q-27.9 27.25 -23.9 33.65 -19.7 40.35 -14.2 45.95 -12.55 47.65 -11.2 49.5 L-11.15 49.5 -11.05 49.7 -10.45 50.55 -10.45 50.6 -9.45 51.0 -9.4 51.05 -9.4 51.15 -9.45 51.3 -9.5 51.4 -9.55 51.5 -9.7 51.5 -15.1 50.35 Q-20.65 48.8 -26.0 50.3 -27.0 50.6 -27.65 51.4 -29.45 53.75 -29.55 56.85 -29.65 60.25 -27.7 63.05 -26.95 64.1 -25.8 64.7 -28.85 58.8 -25.15 52.7 -24.65 51.9 -23.8 51.6 -25.3 53.8 -25.8 56.65 L-25.85 56.75 Q-26.55 61.3 -24.25 65.2 L-24.0 65.25 -20.0 65.55 -20.5 64.85 Q-21.4 63.2 -21.75 61.35 L-21.75 61.25 Q-22.15 57.1 -20.6 53.5 L-20.6 53.4 -19.65 52.3 -20.5 54.65 -20.55 54.75 -20.65 55.85 -20.7 56.05 -20.6 61.3 -20.6 61.65 Q-19.95 63.5 -18.9 65.25 L-19.05 65.55 -18.85 65.55 Q-15.0 65.45 -11.25 64.4 L-11.95 63.15 Q-13.9 56.9 -9.8 51.85 L-9.5 51.55 Q-7.9 49.7 -5.55 49.15 L-5.45 49.1 -5.7 48.8" fill="#000000" fill-rule="evenodd" stroke="none"/>
      <path d="M-18.55 -61.7 Q-20.15 -64.4 -18.05 -66.35 L-17.3 -66.55 Q-14.15 -65.95 -13.05 -62.75 L-12.9 -62.55 Q-9.25 -56.15 -3.4 -51.65 -3.45 -50.6 -3.85 -49.6 -5.9 -47.75 -8.5 -48.65 L-8.5 -48.85 Q-8.6 -49.3 -9.1 -49.35 L-9.15 -49.35 -10.6 -50.7 Q-15.2 -54.95 -18.05 -60.45 -18.15 -61.1 -18.55 -61.7 M-10.95 22.7 L-11.2 22.55 Q-11.6 22.65 -11.5 23.1 L-10.65 25.65 Q-8.35 30.85 -4.85 35.25 -0.3 40.95 4.75 46.15 7.05 48.5 9.8 50.2 15.75 53.95 19.25 59.75 L19.3 60.05 19.95 62.25 19.95 62.4 19.9 62.7 Q14.25 65.5 7.75 66.3 L0.2 66.5 0.15 66.35 Q-1.0 63.35 -0.95 60.1 L-0.9 60.0 -0.85 59.8 -0.85 59.4 Q-0.85 57.5 -0.25 55.75 L-0.2 55.65 Q0.6 54.55 0.3 53.65 -0.55 54.25 -0.95 55.3 -3.05 60.95 -0.95 66.4 L-5.6 65.6 Q-6.9 63.2 -7.05 60.4 L-7.05 60.05 Q-7.05 58.15 -6.45 56.4 L-6.45 56.1 -5.85 53.95 -5.75 53.85 Q-5.05 53.2 -5.45 52.65 L-6.4 53.5 Q-7.25 55.1 -7.75 56.8 -8.95 61.3 -6.9 65.25 L-10.0 64.25 Q-11.7 60.95 -10.85 57.3 -10.1 53.8 -7.25 51.4 -6.6 50.9 -5.8 50.8 -1.7 50.4 2.45 51.5 6.0 52.5 9.45 52.6 L9.5 52.5 9.55 52.4 9.55 52.35 9.55 52.25 9.35 52.0 Q2.95 50.3 -3.5 49.3 L-6.8 45.35 Q-11.4 39.5 -15.55 33.3 L-23.4 20.7 Q-25.0 17.85 -25.6 14.85 L-24.1 15.2 Q-21.6 16.0 -19.15 17.1 -17.2 18.0 -15.25 19.0 L-15.6 18.6 -15.5 18.65 -13.65 20.0 Q-12.1 21.1 -10.75 22.45 L-10.95 22.7 M-9.55 51.5 L-9.5 51.4 -9.45 51.3 -9.4 51.15 -9.4 51.05 -9.45 51.0 -10.45 50.6 -10.45 50.55 -11.05 49.7 -11.15 49.5 -11.2 49.5 Q-12.55 47.65 -14.2 45.95 -19.7 40.35 -23.9 33.65 -27.9 27.25 -31.25 20.5 L-31.3 20.2 Q-32.45 17.55 -31.15 15.25 -28.95 14.45 -26.6 14.7 L-26.6 14.95 Q-25.75 19.55 -23.25 23.65 L-15.45 35.8 Q-10.85 42.55 -5.7 48.8 L-5.55 49.15 Q-7.9 49.7 -9.5 51.55 L-9.55 51.5 M-9.7 51.5 L-9.8 51.85 Q-13.9 56.9 -11.95 63.15 L-11.25 64.4 Q-15.0 65.45 -18.85 65.55 L-18.9 65.25 Q-19.95 63.5 -20.6 61.65 L-20.6 61.3 -20.7 56.05 -20.65 55.85 -20.55 54.75 -20.5 54.65 -19.65 52.3 -20.6 53.4 -20.6 53.5 Q-22.15 57.1 -21.75 61.25 L-21.75 61.35 Q-21.4 63.2 -20.5 64.85 L-20.0 65.55 -24.0 65.25 -24.25 65.2 Q-26.55 61.3 -25.85 56.75 L-25.8 56.65 Q-25.3 53.8 -23.8 51.6 -24.65 51.9 -25.15 52.7 -28.85 58.8 -25.8 64.7 -26.95 64.1 -27.7 63.05 -29.65 60.25 -29.55 56.85 -29.45 53.75 -27.65 51.4 -27.0 50.6 -26.0 50.3 -20.65 48.8 -15.1 50.35 L-9.7 51.5" fill="#75640a" fill-rule="evenodd" stroke="none"/>
      <path d="M-8.45 -47.6 Q-6.6 -47.05 -4.95 -47.85 -2.1 -49.25 -2.55 -51.85 L-2.5 -51.9 -0.5 -51.35 Q1.85 -50.85 3.75 -49.5 L12.05 -42.85 Q18.35 -37.2 22.35 -29.9 L27.75 -19.4 30.9 -11.8 31.1 -11.75 32.25 -8.25 32.75 -6.1 Q34.25 -0.45 34.2 5.45 33.05 4.3 31.35 3.85 24.25 1.85 16.95 0.4 L8.05 -0.85 Q8.35 -2.9 8.15 -5.05 7.6 -11.25 5.4 -17.1 L4.55 -18.9 Q3.25 -21.15 2.4 -23.6 L1.6 -25.35 3.9 -25.25 Q4.9 -25.45 5.25 -26.3 6.9 -29.9 2.8 -31.55 L4.05 -32.95 Q4.7 -34.1 3.95 -35.2 1.6 -38.45 -1.75 -36.0 L-1.75 -36.05 Q-2.45 -38.65 -4.95 -39.05 -6.95 -43.25 -8.5 -47.55 L-8.45 -47.6 M0.45 -28.05 L0.4 -28.1 -0.5 -30.4 -1.45 -32.2 -1.85 -32.9 -1.8 -33.0 Q-1.15 -34.5 -0.05 -35.65 L2.3 -35.4 Q3.4 -34.75 2.8 -33.8 1.65 -31.9 -0.55 -31.35 L-0.65 -31.1 -0.6 -30.9 -0.55 -30.8 -0.3 -30.65 Q3.5 -31.05 4.75 -27.9 L4.65 -27.4 Q4.2 -26.2 2.8 -26.25 L2.2 -26.55 Q1.35 -26.85 0.8 -27.6 L0.45 -28.05 M-2.8 -34.7 L-4.3 -37.7 Q-3.6 -37.25 -3.3 -36.45 L-2.8 -34.7 M5.8 -26.9 L5.85 -26.75 7.2 -25.3 Q9.6 -22.3 9.7 -18.3 L10.25 -18.2 Q10.6 -18.6 10.6 -19.15 L10.6 -20.15 10.6 -20.25 Q10.6 -22.5 9.75 -24.15 L9.85 -24.25 Q12.4 -26.6 10.75 -29.8 10.7 -29.95 10.8 -30.1 11.05 -30.75 10.7 -31.4 L10.55 -31.45 10.3 -31.55 10.1 -31.5 10.0 -31.45 Q9.6 -31.15 9.6 -30.7 L9.3 -29.7 Q7.85 -28.0 8.1 -26.25 7.3 -26.95 6.3 -27.45 L6.05 -27.4 5.9 -27.2 5.8 -26.9" fill="url(#gradient1)" fill-rule="evenodd" stroke="none"/>
      <path d="M-8.5 -47.55 Q-6.95 -43.25 -4.95 -39.05 L-5.0 -39.05 Q-8.7 -37.9 -7.15 -34.35 L-6.55 -33.3 -7.0 -33.3 Q-7.75 -33.1 -8.3 -32.55 L-9.35 -31.45 -9.45 -31.2 -9.45 -29.95 -9.35 -29.6 Q-8.4 -28.05 -6.75 -27.6 L-4.65 -27.45 Q-5.2 -25.9 -3.65 -24.1 -2.95 -23.25 -1.85 -23.15 1.35 -22.8 0.6 -25.8 L1.6 -25.35 2.4 -23.6 Q3.25 -21.15 4.55 -18.9 L5.4 -17.1 Q7.6 -11.25 8.15 -5.05 8.35 -2.9 8.05 -0.85 L2.15 -1.1 -3.9 -0.6 Q-2.9 -2.45 -2.4 -4.55 -2.2 -5.5 -2.15 -6.4 -1.9 -8.85 -2.2 -11.25 -2.8 -17.95 -6.4 -23.75 L-13.8 -36.5 Q-15.55 -39.65 -15.35 -43.2 -15.25 -45.15 -14.0 -46.55 L-11.3 -49.35 Q-10.2 -48.2 -8.5 -47.6 L-8.5 -47.55 M0.45 -28.05 Q-0.45 -28.85 -1.4 -28.5 L-1.5 -28.2 -1.45 -27.9 -1.45 -27.85 -0.8 -26.45 -0.55 -24.45 Q-0.7 -24.2 -1.0 -24.2 L-1.5 -24.1 -2.65 -24.85 Q-3.4 -25.8 -3.55 -26.9 L-3.0 -28.1 Q-2.6 -28.5 -2.8 -28.9 L-2.85 -28.95 -2.95 -29.05 -3.85 -29.15 Q-6.65 -27.95 -8.15 -30.15 L-8.15 -30.25 -8.2 -30.55 -8.25 -30.65 -7.75 -31.25 Q-6.45 -32.35 -4.5 -32.1 L-4.4 -32.1 -4.3 -32.15 -4.25 -32.35 -4.25 -32.45 -4.25 -32.6 Q-4.5 -33.25 -5.1 -33.75 -7.05 -35.4 -5.9 -37.45 L-5.7 -37.55 -4.45 -37.8 -4.3 -37.7 -2.8 -34.7 -2.65 -32.75 Q-2.15 -32.45 -1.85 -32.9 L-1.45 -32.2 -0.5 -30.4 0.4 -28.1 0.45 -28.05 M-3.4 -31.95 L-4.0 -31.35 Q-4.1 -29.1 -1.75 -28.9 -1.35 -29.0 -1.2 -29.4 -0.25 -31.7 -2.95 -32.1 L-3.4 -31.95" fill="url(#gradient2)" fill-rule="evenodd" stroke="none"/>
      <path d="M-4.95 -39.05 Q-2.45 -38.65 -1.75 -36.05 L-1.75 -36.0 Q1.6 -38.45 3.95 -35.2 4.7 -34.1 4.05 -32.95 L2.8 -31.55 Q6.9 -29.9 5.25 -26.3 4.9 -25.45 3.9 -25.25 L1.6 -25.35 0.6 -25.8 Q1.35 -22.8 -1.85 -23.15 -2.95 -23.25 -3.65 -24.1 -5.2 -25.9 -4.65 -27.45 L-6.75 -27.6 Q-8.4 -28.05 -9.35 -29.6 L-9.45 -29.95 -9.45 -31.2 -9.35 -31.45 -8.3 -32.55 Q-7.75 -33.1 -7.0 -33.3 L-6.55 -33.3 -7.15 -34.35 Q-8.7 -37.9 -5.0 -39.05 L-4.95 -39.05 M-4.3 -37.7 L-4.45 -37.8 -5.7 -37.55 -5.9 -37.45 Q-7.05 -35.4 -5.1 -33.75 -4.5 -33.25 -4.25 -32.6 L-4.25 -32.45 -4.25 -32.35 -4.3 -32.15 -4.4 -32.1 -4.5 -32.1 Q-6.45 -32.35 -7.75 -31.25 L-8.25 -30.65 -8.2 -30.55 -8.15 -30.25 -8.15 -30.15 Q-6.65 -27.95 -3.85 -29.15 L-2.95 -29.05 -2.85 -28.95 -2.8 -28.9 Q-2.6 -28.5 -3.0 -28.1 L-3.55 -26.9 Q-3.4 -25.8 -2.65 -24.85 L-1.5 -24.1 -1.0 -24.2 Q-0.7 -24.2 -0.55 -24.45 L-0.8 -26.45 -1.45 -27.85 -1.45 -27.9 -1.5 -28.2 -1.4 -28.5 Q-0.45 -28.85 0.45 -28.05 L0.8 -27.6 Q1.35 -26.85 2.2 -26.55 L2.8 -26.25 Q4.2 -26.2 4.65 -27.4 L4.75 -27.9 Q3.5 -31.05 -0.3 -30.65 L-0.55 -30.8 -0.6 -30.9 -0.65 -31.1 -0.55 -31.35 Q1.65 -31.9 2.8 -33.8 3.4 -34.75 2.3 -35.4 L-0.05 -35.65 Q-1.15 -34.5 -1.8 -33.0 L-1.85 -32.9 Q-2.15 -32.45 -2.65 -32.75 L-2.8 -34.7 -3.3 -36.45 Q-3.6 -37.25 -4.3 -37.7 M-11.6 1.85 L-11.55 2.25 -15.5 2.85 -11.6 1.85" fill="#505ff6" fill-rule="evenodd" stroke="none"/>
      <path d="M-8.45 -47.6 L-8.5 -47.55 -8.5 -47.6 -8.45 -47.6" fill="#39fd7b" fill-rule="evenodd" stroke="none"/>
      <path d="M-3.4 -31.95 L-2.95 -32.1 Q-0.25 -31.7 -1.2 -29.4 -1.35 -29.0 -1.75 -28.9 -4.1 -29.1 -4.0 -31.35 L-3.4 -31.95 M5.8 -26.9 L5.9 -27.2 6.05 -27.4 6.3 -27.45 Q7.3 -26.95 8.1 -26.25 7.85 -28.0 9.3 -29.7 L9.6 -30.7 Q9.6 -31.15 10.0 -31.45 L10.1 -31.5 10.3 -31.55 10.55 -31.45 10.7 -31.4 Q11.05 -30.75 10.8 -30.1 10.7 -29.95 10.75 -29.8 12.4 -26.6 9.85 -24.25 L9.75 -24.15 Q10.6 -22.5 10.6 -20.25 L10.6 -20.15 10.6 -19.15 Q10.6 -18.6 10.25 -18.2 L9.7 -18.3 Q9.6 -22.3 7.2 -25.3 L5.85 -26.75 5.8 -26.9" fill="#0ed524" fill-rule="evenodd" stroke="none"/>
      <path d="M-11.6 1.85 Q-1.95 -0.25 7.8 0.45 L15.2 1.4 Q22.65 2.75 29.95 4.85 31.2 5.2 32.25 5.9 L32.55 6.1 33.95 6.95 34.9 15.0 Q35.8 23.0 31.5 29.55 L29.85 31.3 28.7 32.3 Q26.95 33.25 25.0 33.7 L14.3 34.3 Q8.7 33.7 3.6 31.5 1.0 30.35 -1.35 28.9 L-1.35 28.8 -1.4 28.5 -1.55 28.35 -1.7 28.3 -2.2 28.3 Q-5.55 26.0 -8.35 22.95 -12.15 18.8 -17.05 16.5 L-16.65 16.65 Q-21.9 14.1 -27.7 13.45 -30.4 13.15 -32.7 14.6 -34.45 15.75 -33.95 17.2 L-32.9 16.15 -32.95 16.95 Q-32.85 18.85 -32.35 20.7 -34.15 19.3 -34.85 17.05 -35.15 16.1 -34.95 15.15 -34.05 11.25 -30.4 9.2 -27.5 7.55 -24.45 6.4 L-15.65 4.05 -15.45 3.9 -15.3 3.8 -11.35 3.15 0.65 2.8 6.85 3.35 13.55 4.2 13.7 4.15 13.8 4.05 14.15 4.1 14.2 4.1 Q13.3 3.45 12.1 3.2 L7.2 2.45 -2.6 1.6 -11.55 2.25 -11.6 1.85" fill="url(#gradient3)" fill-rule="evenodd" stroke="none"/>
      <path d="M-10.95 22.7 L-10.75 22.45 -9.95 23.25 Q-7.4 25.95 -4.4 28.15 L-8.45 27.1 -8.6 26.75 -8.85 26.65 -10.95 22.7" fill="#5f5300" fill-rule="evenodd" stroke="none"/>
    </g>
    <linearGradient gradientTransform="matrix(0.026, 9.0E-4, -0.0013, 0.035, 34.35, -22.9)" gradientUnits="userSpaceOnUse" id="gradient1" spreadMethod="pad" x1="-819.2" x2="819.2">
      <stop offset="0.0" stop-color="#39fd7b"/>
      <stop offset="1.0" stop-color="#000000"/>
    </linearGradient>
    <linearGradient gradientTransform="matrix(-0.0135, 0.005, -0.0103, -0.0279, -7.85, -14.0)" gradientUnits="userSpaceOnUse" id="gradient2" spreadMethod="pad" x1="-819.2" x2="819.2">
      <stop offset="0.0" stop-color="#39fd7b"/>
      <stop offset="1.0" stop-color="#000000"/>
    </linearGradient>
    <linearGradient gradientTransform="matrix(0.0248, 0.0166, -0.0116, 0.0173, 29.2, 17.2)" gradientUnits="userSpaceOnUse" id="gradient3" spreadMethod="pad" x1="-819.2" x2="819.2">
      <stop offset="0.0" stop-color="#505ff6"/>
      <stop offset="1.0" stop-color="#000000"/>
    </linearGradient>
    <g id="sprite3" transform="matrix(1.0, 0.0, 0.0, 1.0, 36.85, 38.55)">
      <use height="77.1" transform="matrix(1.0, 0.0, 0.0, 1.0, -32.8, -38.55)" width="65.6" xlink:href="#shape3"/>
    </g>
    <g id="shape3" transform="matrix(1.0, 0.0, 0.0, 1.0, 32.8, 38.55)">
      <path d="M30.5 -29.05 Q25.4 -23.7 19.85 -18.85 L13.65 -13.3 Q14.4 -12.5 14.8 -11.5 17.55 -7.15 17.2 -1.55 17.15 -0.3 16.7 0.75 L16.8 0.7 16.95 0.8 17.1 0.85 Q18.45 2.8 18.8 4.8 19.3 7.6 17.85 10.45 16.85 12.35 15.2 13.7 L15.15 13.75 13.85 14.75 Q13.65 15.3 12.65 15.85 L11.8 16.3 11.65 16.25 Q9.3 21.5 7.4 27.0 5.25 33.1 -0.15 36.5 -4.55 39.3 -9.8 38.25 L-10.7 37.95 Q-13.05 37.15 -14.65 34.85 L-15.75 32.35 -16.05 31.35 Q-16.6 29.05 -16.35 26.65 -21.1 26.9 -25.95 25.05 L-26.5 24.8 -26.55 24.8 Q-31.75 23.05 -32.6 17.55 -33.0 15.2 -32.65 12.95 L-32.45 11.95 Q-32.15 10.35 -31.45 8.85 L-30.7 7.35 Q-31.1 5.35 -30.6 3.4 -30.2 1.5 -28.75 0.35 L-27.45 -0.6 -26.05 -0.95 Q-23.95 -1.05 -22.65 0.4 L-21.45 0.05 -15.55 -1.1 -13.35 -1.05 -13.15 -1.3 -12.2 -2.0 -13.05 -2.35 Q-14.75 -3.1 -14.2 -4.4 L-12.45 -3.0 Q-13.0 -3.9 -12.8 -5.2 L-12.7 -5.2 Q-12.2 -4.75 -12.15 -3.95 L-12.1 -3.85 -11.6 -3.4 Q-11.35 -6.15 -10.25 -8.7 L-9.9 -9.7 -9.65 -10.1 -9.7 -10.45 -8.9 -12.95 -7.95 -14.65 Q-6.25 -16.8 -3.7 -17.8 -2.9 -18.2 -1.95 -18.45 L-1.05 -18.6 Q-2.95 -24.9 -2.95 -31.75 -3.0 -34.0 -1.6 -35.75 L-1.0 -36.3 0.2 -37.05 0.7 -37.25 Q3.45 -37.1 4.25 -34.3 6.25 -27.1 4.9 -19.65 L4.7 -18.45 Q6.85 -18.0 8.8 -17.0 11.65 -22.35 15.0 -27.45 18.2 -32.25 22.7 -36.0 25.35 -38.25 28.7 -38.55 32.7 -38.55 32.8 -34.95 32.85 -31.5 30.5 -29.05 M1.75 -15.2 Q2.4 -15.8 3.55 -15.6 6.55 -15.0 8.05 -12.2 L8.1 -12.15 Q8.5 -11.1 8.5 -10.05 L8.35 -8.75 Q7.6 -11.5 5.35 -13.6 L4.45 -14.5 1.75 -15.2 M9.9 -12.3 Q8.75 -13.0 8.3 -14.55 L8.1 -14.7 8.0 -14.8 7.95 -15.05 8.0 -15.45 8.1 -15.75 8.35 -16.15 Q4.2 -18.2 -0.95 -17.55 L-3.0 -17.2 Q-4.4 -16.5 -5.6 -15.4 L-4.45 -15.55 Q-4.15 -14.6 -5.9 -14.1 L-7.2 -13.7 -7.95 -12.4 -8.05 -12.2 -7.95 -12.25 -7.8 -12.3 -7.45 -12.25 -7.25 -12.2 -6.95 -11.75 -7.0 -11.45 Q-6.05 -10.05 -6.45 -7.95 -7.0 -4.75 -8.25 -1.8 -6.8 -1.35 -5.5 -0.55 L-5.35 -0.7 -5.35 -0.8 Q-4.85 -4.5 -3.8 -8.05 L-3.6 -8.95 Q-1.7 -12.35 1.95 -13.15 5.7 -11.45 5.45 -7.0 L5.05 -3.7 4.7 -2.5 6.1 -3.15 Q5.35 -2.05 4.1 -1.35 L3.85 -0.85 3.8 -0.75 3.75 -0.6 3.85 -0.6 8.0 -1.15 Q6.9 -0.05 5.05 0.35 L5.85 0.6 7.9 1.05 8.0 1.05 7.9 1.2 7.75 1.25 2.8 1.05 1.3 2.05 2.05 0.8 0.9 0.35 Q-1.9 -0.9 -4.85 -0.1 L-3.35 1.25 -0.45 3.15 Q1.3 3.3 2.8 2.6 L3.3 2.6 5.8 3.05 Q9.75 3.45 13.6 2.2 L15.65 1.25 16.0 -0.9 16.2 -1.45 Q16.35 -6.2 14.55 -10.3 14.35 -10.4 14.3 -10.65 L13.3 -12.05 12.9 -12.6 12.5 -12.25 12.45 -11.95 12.35 -11.75 Q10.9 -11.7 9.9 -12.3 M1.85 -11.85 Q1.35 -12.1 0.8 -11.85 L-1.35 -10.45 Q-2.5 -9.2 -3.1 -7.6 L-3.35 -7.15 -4.45 -1.0 -3.3 -1.35 -1.75 -1.2 -1.65 -1.25 -1.55 -1.3 -1.2 -1.35 -0.15 -1.3 3.5 -2.1 3.75 -2.75 Q4.3 -4.9 4.4 -7.2 4.6 -10.55 1.85 -11.85 M1.9 -0.55 L2.75 -0.55 2.9 -0.8 2.35 -0.65 1.9 -0.55 M15.9 11.35 L16.9 10.1 Q18.55 7.95 17.95 5.25 L17.75 4.5 Q17.35 3.2 16.55 2.15 L16.4 1.75 Q14.2 3.85 10.7 4.15 L4.35 3.85 3.25 3.6 2.8 3.45 Q0.55 4.6 -1.25 3.85 L-0.95 4.2 -0.65 4.8 -0.15 5.6 0.1 5.9 0.55 7.25 1.1 9.3 1.0 9.55 1.05 9.65 0.85 9.85 0.05 8.5 -0.8 6.3 Q-3.5 1.4 -8.55 -0.85 L-8.75 -0.95 -9.05 -1.05 -10.05 -1.1 -11.7 -1.0 -13.4 0.65 Q-14.55 2.2 -14.75 4.45 L-14.6 6.8 Q-14.7 7.75 -14.45 8.6 L-14.35 9.05 -14.45 9.6 -15.1 8.6 -15.1 8.5 Q-16.2 6.3 -15.6 3.45 -15.25 1.85 -14.4 0.45 L-14.05 -0.1 -17.2 0.3 Q-21.85 0.8 -25.9 2.6 L-25.95 2.5 -25.95 2.3 -25.95 2.2 Q-24.85 1.3 -23.55 0.75 -26.1 -0.8 -28.6 1.35 -29.35 2.55 -29.6 3.95 L-30.0 5.95 -29.95 6.25 -29.85 6.1 -28.05 4.35 Q-27.65 4.65 -28.0 5.1 L-28.05 5.2 Q-30.25 7.75 -31.2 10.8 -31.9 12.85 -31.95 15.2 L-32.0 15.4 Q-31.7 19.85 -28.55 22.75 L-28.45 22.85 Q-22.75 25.65 -16.3 25.5 L-9.9 24.65 -7.8 23.9 Q-3.35 22.2 0.55 19.3 L0.55 19.25 Q6.65 14.6 11.35 8.4 L12.05 7.05 12.25 6.75 Q11.05 6.55 9.95 7.15 L8.5 7.5 8.35 7.4 8.3 7.2 8.25 7.05 Q8.6 6.6 9.1 6.3 L9.65 6.05 11.05 5.65 13.2 5.7 13.35 5.75 13.45 5.65 13.85 5.9 13.85 5.95 14.15 6.1 Q15.1 6.7 15.4 8.05 L15.35 8.1 Q14.65 7.65 13.9 7.3 L13.25 7.05 12.45 8.25 10.85 11.5 8.0 16.1 Q3.7 22.2 0.0 28.55 L-0.6 29.55 Q-2.1 31.5 -4.4 32.7 -6.5 33.8 -8.45 33.55 L-8.55 33.55 -10.7 33.05 Q-12.65 31.65 -13.2 29.35 L-13.2 29.3 -13.4 29.1 Q-13.85 27.75 -13.65 26.35 L-15.45 26.6 -15.5 26.6 Q-16.0 32.0 -12.25 35.6 L-11.9 35.9 -10.65 36.75 -9.1 37.45 Q-2.85 38.25 1.8 33.9 3.35 32.45 4.3 30.6 6.8 25.85 8.6 20.75 10.15 16.35 12.95 12.85 L13.1 12.8 13.0 13.35 12.95 13.45 12.35 14.8 12.15 15.25 12.55 14.9 15.9 11.35 M8.35 13.55 L4.6 17.35 2.75 18.85 2.1 19.5 -0.45 21.35 -1.15 22.3 Q-2.5 23.55 -2.55 25.4 -2.65 27.45 -1.1 28.6 0.5 26.75 1.65 24.5 3.3 21.2 5.4 18.1 L8.35 13.55 M-7.75 -11.3 Q-10.25 -7.4 -10.7 -2.75 L-9.95 -2.15 -9.0 -2.0 -8.95 -2.0 Q-7.85 -5.7 -7.45 -9.6 L-7.45 -9.9 -7.6 -10.95 -7.7 -11.3 -7.75 -11.35 -7.75 -11.3 M-8.2 3.8 Q-5.5 4.8 -4.7 7.85 -4.15 10.15 -5.2 12.2 -7.2 12.7 -8.4 10.75 -9.45 9.1 -9.9 7.25 -10.45 4.95 -8.5 3.85 L-8.35 3.85 -8.2 3.8 M-2.9 30.35 L-1.9 29.45 -1.85 29.4 -2.05 29.3 Q-4.45 25.75 -2.75 22.75 -5.3 24.15 -8.0 25.05 L-11.1 25.95 -12.75 26.2 Q-12.85 30.0 -10.1 32.05 -6.45 33.35 -3.2 30.6 L-2.9 30.35" fill="#000000" fill-rule="evenodd" stroke="none"/>
      <path d="M-7.95 -12.4 L-7.2 -13.7 -5.9 -14.1 Q-4.15 -14.6 -4.45 -15.55 L-5.6 -15.4 Q-4.4 -16.5 -3.0 -17.2 L-0.95 -17.55 Q4.2 -18.2 8.35 -16.15 L8.1 -15.75 8.0 -15.45 7.95 -15.05 8.0 -14.8 8.1 -14.7 8.3 -14.55 Q8.75 -13.0 9.9 -12.3 L10.35 -10.3 10.5 -9.35 Q11.15 -4.35 8.65 -0.1 L7.9 1.05 5.85 0.6 5.05 0.35 Q6.9 -0.05 8.0 -1.15 L3.85 -0.6 3.8 -0.75 3.85 -0.85 4.1 -1.35 Q5.35 -2.05 6.1 -3.15 L4.7 -2.5 5.05 -3.7 5.45 -7.0 Q5.7 -11.45 1.95 -13.15 -1.7 -12.35 -3.6 -8.95 L-3.8 -8.05 Q-4.85 -4.5 -5.35 -0.8 L-5.35 -0.7 -5.5 -0.55 Q-6.8 -1.35 -8.25 -1.8 -7.0 -4.75 -6.45 -7.95 -6.05 -10.05 -7.0 -11.45 L-6.95 -11.75 -7.25 -12.2 -7.45 -12.25 -7.8 -12.3 -7.95 -12.4 M1.75 -15.2 L4.45 -14.5 5.35 -13.6 Q7.6 -11.5 8.35 -8.75 L8.5 -10.05 Q8.5 -11.1 8.1 -12.15 L8.05 -12.2 Q6.55 -15.0 3.55 -15.6 2.4 -15.8 1.75 -15.2 M5.8 3.05 L3.3 2.6 2.8 2.6 Q1.3 3.3 -0.45 3.15 L-3.35 1.25 -4.85 -0.1 Q-1.9 -0.9 0.9 0.35 L2.05 0.8 1.3 2.05 2.8 1.05 7.75 1.25 5.8 3.05 M1.85 -11.85 Q4.6 -10.55 4.4 -7.2 4.3 -4.9 3.75 -2.75 L3.5 -2.1 -0.15 -1.3 -1.2 -1.35 -1.55 -1.3 -1.65 -1.25 -1.75 -1.2 -3.3 -1.35 -4.45 -1.0 -3.35 -7.15 -3.1 -7.6 Q-2.5 -9.2 -1.35 -10.45 L0.8 -11.85 Q1.35 -12.1 1.85 -11.85 M-7.7 -11.3 L-7.6 -10.95 -7.45 -9.9 -7.45 -9.6 Q-7.85 -5.7 -8.95 -2.0 L-9.0 -2.0 -9.95 -2.15 -10.7 -2.75 Q-10.25 -7.4 -7.75 -11.3 L-7.7 -11.3" fill="#75640a" fill-rule="evenodd" stroke="none"/>
      <path d="M-15.1 8.5 L-15.1 8.6 -14.45 9.6 -14.35 9.05 -14.45 8.6 Q-14.7 7.75 -14.6 6.8 L-14.75 4.45 Q-14.55 2.2 -13.4 0.65 L-11.7 -1.0 -10.05 -1.1 -9.05 -1.05 -8.75 -0.95 -8.55 -0.85 Q-3.5 1.4 -0.8 6.3 L0.05 8.5 0.85 9.85 1.05 9.65 1.0 9.55 1.1 9.3 0.55 7.25 0.1 5.9 -0.15 5.6 -0.65 4.8 -0.95 4.2 -1.25 3.85 Q0.55 4.6 2.8 3.45 L3.25 3.6 4.35 3.85 10.7 4.15 Q14.2 3.85 16.4 1.75 L16.55 2.15 Q17.35 3.2 17.75 4.5 L17.95 5.25 Q18.55 7.95 16.9 10.1 L15.9 11.35 16.05 10.65 16.1 9.15 16.0 8.4 Q15.75 7.3 15.0 6.35 L14.65 6.0 14.1 5.5 13.95 5.3 14.05 5.65 14.1 5.9 14.15 6.1 13.85 5.95 13.85 5.9 13.45 5.65 13.35 5.75 13.2 5.7 11.05 5.65 9.65 6.05 9.1 6.3 Q8.6 6.6 8.25 7.05 L8.3 7.2 7.95 7.65 Q6.05 10.15 3.7 12.15 L2.4 13.1 Q-0.45 15.05 -3.55 16.15 L-4.3 16.35 -9.05 16.75 -11.0 16.35 -11.35 16.2 -13.05 15.4 -16.75 12.85 -17.35 12.5 Q-19.75 11.15 -22.3 9.9 L-22.8 9.7 -26.3 9.4 Q-28.75 9.45 -30.85 10.55 L-31.2 10.8 Q-30.25 7.75 -28.05 5.2 L-28.0 5.1 Q-27.65 4.65 -28.05 4.35 L-29.85 6.1 -30.0 5.95 -29.6 3.95 Q-29.35 2.55 -28.6 1.35 -26.1 -0.8 -23.55 0.75 -24.85 1.3 -25.95 2.2 L-25.95 2.3 -25.95 2.5 -25.9 2.6 Q-21.85 0.8 -17.2 0.3 L-14.05 -0.1 -14.4 0.45 Q-16.9 0.7 -17.45 3.15 L-17.55 4.15 Q-17.65 6.0 -16.6 7.45 L-15.75 8.35 -15.3 8.55 -15.1 8.5 M-11.9 35.9 L-12.25 35.6 Q-16.0 32.0 -15.5 26.6 L-15.45 26.6 -13.65 26.35 Q-13.85 27.75 -13.4 29.1 L-13.2 29.3 -13.2 29.35 Q-12.65 31.65 -10.7 33.05 L-8.55 33.55 -8.45 33.55 Q-6.5 33.8 -4.4 32.7 -2.1 31.5 -0.6 29.55 L0.0 28.55 Q3.7 22.2 8.0 16.1 L10.85 11.5 9.75 14.15 9.45 14.9 Q8.65 17.7 7.35 20.1 L6.8 21.2 6.1 22.6 4.8 24.95 4.4 25.6 2.9 28.15 Q1.8 30.1 0.15 31.85 L-1.55 33.35 Q-3.05 34.55 -5.05 35.35 -7.2 36.2 -9.55 35.95 L-11.3 35.8 -11.85 35.75 -11.9 35.9 M-8.2 3.8 L-8.35 3.85 -8.5 3.85 Q-10.45 4.95 -9.9 7.25 -9.45 9.1 -8.4 10.75 -7.2 12.7 -5.2 12.2 -4.15 10.15 -4.7 7.85 -5.5 4.8 -8.2 3.8" fill="#cfb392" fill-rule="evenodd" stroke="none"/>
      <path d="M7.9 1.05 L8.65 -0.1 Q11.15 -4.35 10.5 -9.35 L10.35 -10.3 9.9 -12.3 Q10.9 -11.7 12.35 -11.75 L12.45 -11.95 12.5 -12.25 12.9 -12.6 13.3 -12.05 14.3 -10.65 Q14.35 -10.4 14.55 -10.3 16.35 -6.2 16.2 -1.45 L16.0 -0.9 15.65 1.25 13.6 2.2 Q9.75 3.45 5.8 3.05 L7.75 1.25 7.9 1.2 8.0 1.05 7.9 1.05" fill="#5f5300" fill-rule="evenodd" stroke="none"/>
      <path d="M-15.1 8.5 L-15.3 8.55 -15.75 8.35 -16.6 7.45 Q-17.65 6.0 -17.55 4.15 L-17.45 3.15 Q-16.9 0.7 -14.4 0.45 -15.25 1.85 -15.6 3.45 -16.2 6.3 -15.1 8.5 M-31.2 10.8 L-30.85 10.55 Q-28.75 9.45 -26.3 9.4 L-22.8 9.7 -22.3 9.9 Q-19.75 11.15 -17.35 12.5 L-16.75 12.85 -13.05 15.4 -11.35 16.2 -11.0 16.35 -9.05 16.75 -4.3 16.35 -3.55 16.15 Q-0.45 15.05 2.4 13.1 L3.7 12.15 Q6.05 10.15 7.95 7.65 L8.3 7.2 8.35 7.4 8.5 7.5 9.95 7.15 Q11.05 6.55 12.25 6.75 L12.05 7.05 11.35 8.4 Q6.65 14.6 0.55 19.25 L0.55 19.3 Q-3.35 22.2 -7.8 23.9 L-9.9 24.65 -16.3 25.5 Q-22.75 25.65 -28.45 22.85 L-28.55 22.75 Q-31.7 19.85 -32.0 15.4 L-31.95 15.2 Q-31.9 12.85 -31.2 10.8 M14.15 6.1 L14.1 5.9 14.05 5.65 13.95 5.3 14.1 5.5 14.65 6.0 15.0 6.35 Q15.75 7.3 16.0 8.4 L16.1 9.15 16.05 10.65 15.9 11.35 12.55 14.9 12.35 14.8 12.95 13.45 13.0 13.35 13.1 12.8 12.95 12.85 Q10.15 16.35 8.6 20.75 6.8 25.85 4.3 30.6 3.35 32.45 1.8 33.9 -2.85 38.25 -9.1 37.45 L-10.65 36.75 -11.9 35.9 -11.85 35.75 -11.3 35.8 -9.55 35.95 Q-7.2 36.2 -5.05 35.35 -3.05 34.55 -1.55 33.35 L0.15 31.85 Q1.8 30.1 2.9 28.15 L4.4 25.6 4.8 24.95 6.1 22.6 6.8 21.2 7.35 20.1 Q8.65 17.7 9.45 14.9 L9.75 14.15 10.85 11.5 12.45 8.25 13.25 7.05 13.9 7.3 Q14.65 7.65 15.35 8.1 L15.4 8.05 Q15.1 6.7 14.15 6.1" fill="#c19b6b" fill-rule="evenodd" stroke="none"/>
      <path d="M8.35 13.55 L5.4 18.1 Q3.3 21.2 1.65 24.5 0.5 26.75 -1.1 28.6 -2.65 27.45 -2.55 25.4 -2.5 23.55 -1.15 22.3 L-0.45 21.35 2.1 19.5 2.75 18.85 4.6 17.35 8.35 13.55" fill="#ff66cc" fill-rule="evenodd" stroke="none"/>
      <path d="M-8.0 25.05 L-8.15 26.65 -8.1 27.4 Q-7.55 29.6 -5.3 30.15 L-4.3 30.35 -2.9 30.35 -3.2 30.6 Q-6.45 33.35 -10.1 32.05 -12.85 30.0 -12.75 26.2 L-11.1 25.95 -8.0 25.05" fill="#660000" fill-rule="evenodd" stroke="none"/>
      <path d="M-1.9 29.45 L-2.9 30.35 -4.3 30.35 -5.3 30.15 Q-7.55 29.6 -8.1 27.4 L-8.15 26.65 -8.0 25.05 Q-5.3 24.15 -2.75 22.75 -4.45 25.75 -2.05 29.3 L-1.9 29.45" fill="#3c0000" fill-rule="evenodd" stroke="none"/>
    </g>
    <g id="sprite4" transform="matrix(1.0, 0.0, 0.0, 1.0, 28.85, 38.8)">
      <use height="77.65" transform="matrix(1.0, 0.0, 0.0, 1.0, -28.85, -38.8)" width="57.75" xlink:href="#shape4"/>
    </g>
    <g id="shape4" transform="matrix(1.0, 0.0, 0.0, 1.0, 28.85, 38.8)">
      <path d="M9.5 -36.95 Q11.65 -37.2 13.1 -35.7 16.4 -38.15 20.65 -38.75 24.05 -39.05 26.15 -37.6 27.9 -36.35 28.75 -33.85 L28.9 -32.6 Q28.55 -28.0 26.1 -24.05 23.75 -20.1 23.7 -15.5 24.05 -14.2 23.75 -12.9 L22.6 -8.4 22.35 -8.0 22.2 -7.75 Q24.5 -5.65 22.95 -2.4 22.0 -0.35 19.65 0.0 L18.0 0.1 17.05 3.6 Q15.35 8.6 12.05 12.9 L11.15 14.25 Q9.3 16.55 7.05 18.4 3.55 21.9 -0.65 24.5 L-3.05 25.9 -2.75 27.15 -2.7 27.5 Q-2.3 30.25 -2.45 33.15 -2.6 36.15 -4.65 38.05 L-4.75 38.3 -5.15 38.4 -5.25 38.4 Q-15.1 40.25 -22.95 34.2 -28.7 29.8 -28.85 22.65 -28.9 21.1 -28.6 19.55 L-28.3 19.1 -28.35 19.0 -28.35 18.8 -27.85 18.45 -27.65 18.15 -27.05 17.9 -26.85 17.8 -26.35 17.9 -25.6 17.85 -25.6 17.8 Q-18.55 20.45 -11.25 18.6 L-8.35 18.0 Q-6.5 17.65 -5.6 19.1 L-5.4 19.0 -4.15 18.35 Q3.2 14.05 8.25 7.05 L8.95 5.6 Q10.65 3.0 11.75 0.15 L12.15 -1.05 12.2 -1.15 12.35 -1.35 12.4 -1.45 12.45 -1.7 12.5 -1.9 12.55 -1.95 Q11.05 -3.2 10.3 -5.15 9.35 -7.6 11.1 -9.5 L9.8 -11.1 9.8 -11.2 9.75 -11.35 Q4.85 -17.25 6.75 -24.65 6.85 -26.45 7.4 -28.05 L7.5 -30.6 Q7.6 -32.2 6.95 -33.75 6.7 -34.4 6.95 -35.1 L7.8 -36.05 Q8.45 -36.85 9.5 -36.95 M8.6 -30.8 Q9.6 -32.55 11.2 -34.1 L12.3 -35.05 Q10.85 -36.45 8.7 -35.65 L8.45 -35.5 8.3 -35.25 7.9 -34.65 7.7 -34.2 Q8.5 -32.6 8.6 -30.8 M26.0 -36.55 Q20.6 -39.35 15.25 -35.85 11.55 -33.45 9.55 -30.15 L9.15 -29.05 Q6.05 -22.65 8.1 -16.1 9.85 -11.8 13.35 -8.75 L13.4 -8.8 13.8 -8.55 13.85 -8.45 13.85 -8.35 14.5 -7.85 14.55 -7.7 14.15 -7.35 13.8 -7.55 Q13.85 -5.45 16.6 -4.95 L17.25 -4.85 Q19.85 -4.65 20.6 -6.65 L20.35 -6.8 20.3 -6.9 20.25 -7.1 20.25 -7.15 20.35 -7.45 20.45 -7.55 20.6 -7.65 20.7 -7.7 20.8 -7.7 20.75 -7.9 20.8 -8.05 20.75 -8.15 20.95 -8.4 21.15 -8.5 21.25 -8.45 Q23.35 -12.6 23.15 -17.4 23.05 -20.15 24.25 -22.65 L26.75 -27.8 26.8 -27.9 27.3 -28.9 27.7 -29.85 28.05 -32.2 Q28.25 -34.6 26.5 -36.3 L26.0 -36.55 M20.15 -7.1 Q20.65 -6.15 18.95 -5.85 L18.25 -5.85 Q17.5 -5.95 17.05 -6.45 L19.65 -7.0 19.9 -7.05 20.15 -7.1 M12.8 -8.1 L11.7 -8.95 Q9.7 -5.7 12.8 -3.15 13.55 -2.55 14.3 -2.1 17.1 -0.55 20.4 -1.25 L21.45 -1.65 22.1 -2.4 22.4 -3.1 22.5 -3.25 Q23.0 -5.45 21.75 -7.05 21.7 -5.8 20.35 -4.85 18.95 -3.85 17.3 -3.9 L15.9 -4.15 Q13.05 -4.9 12.75 -7.55 L12.8 -8.1 M16.1 3.25 L17.35 0.05 15.2 -0.45 Q14.15 -0.85 13.3 -1.4 L12.5 0.9 Q10.3 6.45 6.25 11.05 1.85 16.1 -4.05 19.25 L-5.65 20.05 -8.15 20.9 Q-9.3 24.05 -9.35 27.1 -5.25 25.85 -1.55 23.75 1.65 21.85 4.55 19.25 L9.1 15.0 Q11.95 11.75 14.15 7.95 L14.15 7.85 14.15 7.65 14.75 6.65 14.85 6.55 16.1 3.25 M-7.0 19.0 Q-9.45 18.9 -11.95 19.7 -13.85 20.35 -15.85 20.4 -20.65 20.5 -25.1 18.9 L-25.95 18.8 -26.65 18.95 Q-28.4 20.5 -28.05 23.25 -27.1 31.35 -19.7 35.35 -13.35 38.75 -6.15 37.8 L-6.0 37.5 -5.75 37.35 -5.2 37.4 Q-3.7 36.0 -3.5 33.75 L-3.35 30.2 -3.4 30.15 -3.8 26.3 Q-6.5 27.65 -9.35 27.95 -9.25 31.4 -7.85 34.85 L-7.3 36.4 -7.5 36.65 -7.7 36.75 Q-10.15 33.75 -10.4 29.75 L-10.45 28.0 -10.55 28.0 -10.65 27.9 -10.6 27.55 -10.5 27.45 -10.4 27.45 Q-10.25 23.9 -8.85 20.75 L-8.9 20.65 Q-8.5 19.35 -6.7 19.35 L-6.75 19.25 -7.0 19.0" fill="#000000" fill-rule="evenodd" stroke="none"/>
      <path d="M20.25 -7.1 L20.3 -6.9 20.35 -6.8 20.6 -6.65 Q19.85 -4.65 17.25 -4.85 L16.6 -4.95 Q13.85 -5.45 13.8 -7.55 L14.15 -7.35 14.55 -7.7 14.5 -7.85 13.85 -8.35 13.85 -8.45 13.8 -8.55 13.4 -8.8 13.35 -8.75 Q9.85 -11.8 8.1 -16.1 6.05 -22.65 9.15 -29.05 L9.55 -30.15 Q11.55 -33.45 15.25 -35.85 20.6 -39.35 26.0 -36.55 L25.8 -35.3 Q25.25 -32.15 22.8 -29.9 L22.05 -29.15 Q20.55 -27.65 19.35 -25.85 17.15 -22.6 17.55 -17.3 17.7 -15.45 18.6 -13.9 19.7 -12.0 20.0 -9.8 20.2 -8.2 19.75 -7.2 L20.15 -7.1 20.25 -7.1 M8.6 -30.8 Q8.5 -32.6 7.7 -34.2 L7.9 -34.65 8.3 -35.25 8.45 -35.5 8.7 -35.65 Q10.85 -36.45 12.3 -35.05 L11.2 -34.1 Q9.6 -32.55 8.6 -30.8 M20.15 -7.1 L19.9 -7.05 19.65 -7.0 17.05 -6.45 Q17.5 -5.95 18.25 -5.85 L18.95 -5.85 Q20.65 -6.15 20.15 -7.1 M21.25 -8.45 L21.15 -8.5 21.25 -8.45 M12.8 -8.1 L12.75 -7.55 Q13.05 -4.9 15.9 -4.15 L17.3 -3.9 Q18.95 -3.85 20.35 -4.85 21.7 -5.8 21.75 -7.05 23.0 -5.45 22.5 -3.25 L22.4 -3.1 22.1 -2.4 21.45 -1.65 20.4 -1.25 Q17.1 -0.55 14.3 -2.1 13.55 -2.55 12.8 -3.15 9.7 -5.7 11.7 -8.95 L12.8 -8.1" fill="#ffffff" fill-rule="evenodd" stroke="none"/>
      <path d="M20.25 -7.1 L20.15 -7.1 19.75 -7.2 Q20.2 -8.2 20.0 -9.8 19.7 -12.0 18.6 -13.9 17.7 -15.45 17.55 -17.3 17.15 -22.6 19.35 -25.85 20.55 -27.65 22.05 -29.15 L22.8 -29.9 Q25.25 -32.15 25.8 -35.3 L26.0 -36.55 26.5 -36.3 Q28.25 -34.6 28.05 -32.2 L27.7 -29.85 27.3 -28.9 26.8 -27.9 26.75 -27.8 24.25 -22.65 Q23.05 -20.15 23.15 -17.4 23.35 -12.6 21.25 -8.45 L21.15 -8.5 20.95 -8.4 20.75 -8.15 20.8 -8.05 20.75 -7.9 20.8 -7.7 20.7 -7.7 20.6 -7.65 20.45 -7.55 20.35 -7.45 20.25 -7.15 20.25 -7.1" fill="#e2ebef" fill-rule="evenodd" stroke="none"/>
      <path d="M12.5 0.9 L13.3 -1.4 Q14.15 -0.85 15.2 -0.45 L17.35 0.05 16.1 3.25 13.6 1.8 12.5 0.9 M-1.55 23.75 Q-5.25 25.85 -9.35 27.1 -9.3 24.05 -8.15 20.9 L-5.65 20.05 -4.05 19.25 Q-3.7 21.55 -1.6 23.7 L-1.55 23.75" fill="#5f5300" fill-rule="evenodd" stroke="none"/>
      <path d="M12.5 0.9 L13.6 1.8 16.1 3.25 14.85 6.55 14.75 6.65 14.15 7.65 14.15 7.85 14.15 7.95 Q11.95 11.75 9.1 15.0 L4.55 19.25 Q1.65 21.85 -1.55 23.75 L-1.6 23.7 Q-3.7 21.55 -4.05 19.25 1.85 16.1 6.25 11.05 10.3 6.45 12.5 0.9" fill="#75640a" fill-rule="evenodd" stroke="none"/>
      <path d="M-7.0 19.0 L-6.75 19.25 -6.7 19.35 Q-8.5 19.35 -8.9 20.65 L-8.85 20.75 Q-10.25 23.9 -10.4 27.45 L-10.5 27.45 -10.6 27.55 -10.65 27.9 -10.55 28.0 -10.45 28.0 -10.4 29.75 Q-10.15 33.75 -7.7 36.75 L-7.5 36.65 -7.3 36.4 -7.85 34.85 Q-9.25 31.4 -9.35 27.95 -6.5 27.65 -3.8 26.3 L-3.4 30.15 -3.35 30.2 -3.5 33.75 Q-3.7 36.0 -5.2 37.4 L-5.75 37.35 -6.0 37.5 -6.15 37.8 Q-13.35 38.75 -19.7 35.35 -27.1 31.35 -28.05 23.25 -28.4 20.5 -26.65 18.95 L-25.95 18.8 -25.1 18.9 Q-20.65 20.5 -15.85 20.4 -13.85 20.35 -11.95 19.7 -9.45 18.9 -7.0 19.0" fill="url(#gradient4)" fill-rule="evenodd" stroke="none"/>
    </g>
    <linearGradient gradientTransform="matrix(-0.0054, 0.0141, -0.011, -0.0042, -20.5, 36.65)" gradientUnits="userSpaceOnUse" id="gradient4" spreadMethod="pad" x1="-819.2" x2="819.2">
      <stop offset="0.0" stop-color="#39fd7b"/>
      <stop offset="1.0" stop-color="#000000"/>
    </linearGradient>
  </defs>
</svg>
