<?xml version="1.0" encoding="UTF-8" standalone="no"?>
<svg xmlns:xlink="http://www.w3.org/1999/xlink" height="22.75px" width="18.3px" xmlns="http://www.w3.org/2000/svg">
  <g transform="matrix(1.0, 0.0, 0.0, 1.0, 8.45, 10.45)">
    <use height="12.75" transform="matrix(1.5171, 0.3928, -0.3928, 1.5171, -3.4352, -10.4679)" width="8.75" xlink:href="#shape0"/>
    <use height="12.75" transform="matrix(1.1729, 0.3037, -0.3037, 1.1729, -2.4084, -7.9275)" width="8.75" xlink:href="#shape0"/>
  </g>
  <defs>
    <g id="shape0" transform="matrix(1.0, 0.0, 0.0, 1.0, 4.35, 6.4)">
      <path d="M-1.25 -5.0 L-2.25 -3.9 Q-3.35 -2.35 -3.35 -0.05 -3.35 2.25 -2.25 3.85 -1.3 5.3 0.05 5.35 1.4 5.3 2.4 3.85 3.35 2.35 3.4 0.25 L3.4 -0.05 Q3.4 -2.35 2.4 -3.9 1.4 -5.4 0.1 -5.4 L0.05 -5.4 Q-0.7 -5.4 -1.25 -5.0 M3.25 -4.45 Q4.4 -2.65 4.4 -0.05 4.4 2.55 3.25 4.4 1.9 6.4 0.05 6.35 -1.8 6.4 -3.1 4.4 -4.35 2.55 -4.35 -0.05 -4.35 -2.65 -3.1 -4.45 L-2.0 -5.75 Q-1.1 -6.45 0.05 -6.4 L0.1 -6.4 Q1.9 -6.45 3.25 -4.45" fill="#ffff00" fill-rule="evenodd" stroke="none"/>
      <path d="M3.4 -0.05 L3.4 0.25 Q3.35 2.35 2.4 3.85 1.4 5.3 0.05 5.35 -1.3 5.3 -2.25 3.85 -3.35 2.25 -3.35 -0.05 -3.35 -2.35 -2.25 -3.9 L-1.25 -5.0 Q2.4 -4.45 3.4 -0.05" fill="#ffff00" fill-rule="evenodd" stroke="none"/>
      <path d="M-1.25 -5.0 Q-0.7 -5.4 0.05 -5.4 L0.1 -5.4 Q1.4 -5.4 2.4 -3.9 3.4 -2.35 3.4 -0.05 2.4 -4.45 -1.25 -5.0" fill="#ffff00" fill-rule="evenodd" stroke="none"/>
    </g>
  </defs>
</svg>
