<?xml version="1.0" encoding="UTF-8" standalone="no"?>
<svg xmlns:xlink="http://www.w3.org/1999/xlink" height="416.85px" width="508.65px" xmlns="http://www.w3.org/2000/svg">
  <g transform="matrix(1.0, 0.0, 0.0, 1.0, 3.8, 136.0)">
    <use height="163.8" id="chara0" transform="matrix(1.0, 0.0, 0.0, 1.0, 2.2, -108.5)" width="127.2" xlink:href="#sprite0"/>
    <use height="163.8" id="chara1" transform="matrix(1.0, 0.0, 0.0, 1.0, 123.35, -114.8)" width="127.2" xlink:href="#sprite0"/>
    <use height="163.8" id="chara2" transform="matrix(1.0, 0.0, 0.0, 1.0, 250.5, -114.8)" width="127.2" xlink:href="#sprite0"/>
    <use height="163.8" id="chara3" transform="matrix(1.0, 0.0, 0.0, 1.0, 377.65, -114.8)" width="127.2" xlink:href="#sprite0"/>
    <use height="259.0" id="db" transform="matrix(1.2346, 0.0, 0.0, 1.2348, -0.7, -136.0)" width="405.0" xlink:href="#sprite2"/>
  </g>
  <defs>
    <g id="sprite0" transform="matrix(1.0, 0.0, 0.0, 1.0, 27.6, 82.8)">
      <use height="273.0" id="chara" transform="matrix(0.6, 0.0, 0.0, 0.6, -27.599, -82.7975)" width="212.0" xlink:href="#sprite1"/>
    </g>
    <g id="sprite1" transform="matrix(1.0, 0.0, 0.0, 1.0, 106.0, 273.0)">
      <use height="259.0" transform="matrix(0.3207, 0.0, 0.0, 0.5017, -68.35, -131.7)" width="405.0" xlink:href="#shape0"/>
    </g>
    <g id="shape0" transform="matrix(1.0, 0.0, 0.0, 1.0, 0.0, 0.0)">
      <path d="M405.0 0.0 L405.0 259.0 0.0 259.0 0.0 0.0 405.0 0.0" fill="#ffffff" fill-opacity="0.0" fill-rule="evenodd" stroke="none"/>
    </g>
    <g id="sprite2" transform="matrix(1.0, 0.0, 0.0, 1.0, 0.0, 0.0)">
      <use height="259.0" transform="matrix(1.0, 0.0, 0.0, 1.0, 0.0, 0.0)" width="405.0" xlink:href="#shape0"/>
    </g>
  </defs>
</svg>
