<?xml version="1.0" encoding="UTF-8" standalone="no"?>
<svg xmlns:xlink="http://www.w3.org/1999/xlink" height="9.65px" width="31.0px" xmlns="http://www.w3.org/2000/svg">
  <g transform="matrix(1.0, 0.0, 0.0, 1.0, -1.25, -3.9)">
    <g transform="matrix(1.0, 0.0, 0.0, 1.0, 0.0, 0.0)">
      <use fill="#ff6600" height="9.65" transform="matrix(0.2148, 0.0, 0.0, 0.2148, 0.0, 13.0)" width="31.0" xlink:href="#font_A-OTF____Pro_B__0"/>
      <use fill="#ff6600" height="9.65" transform="matrix(0.2148, 0.0, 0.0, 0.2148, 11.0, 13.0)" width="31.0" xlink:href="#font_A-OTF____Pro_B__1"/>
      <use fill="#ff6600" height="9.65" transform="matrix(0.2148, 0.0, 0.0, 0.2148, 22.0, 13.0)" width="31.0" xlink:href="#font_A-OTF____Pro_B__2"/>
    </g>
  </g>
  <defs>
    <g id="font_A-OTF____Pro_B__0">
      <path d="M16.3 -41.8 L25.1 -41.8 25.0 -38.5 24.95 -35.1 25.0 -31.05 Q25.1 -29.55 25.35 -28.65 25.65 -27.8 26.2 -27.25 L29.15 -28.1 31.95 -28.8 35.9 -29.6 42.3 -30.8 43.95 -22.4 36.15 -21.4 Q32.1 -20.75 28.3 -19.7 24.45 -18.7 21.4 -17.3 18.35 -15.9 16.5 -14.15 14.7 -12.4 14.65 -10.25 14.7 -7.85 16.5 -6.8 18.3 -5.7 21.45 -5.45 L28.55 -5.25 36.0 -5.4 45.5 -6.15 45.5 2.25 39.6 2.65 30.9 2.85 23.15 2.6 17.85 1.95 14.25 1.0 11.65 -0.15 Q8.85 -1.65 7.35 -4.05 5.85 -6.45 5.85 -9.4 5.9 -12.75 7.3 -15.3 8.75 -17.8 10.85 -19.6 12.95 -21.4 15.05 -22.6 L18.75 -24.45 17.9 -25.55 17.05 -27.55 Q16.7 -28.8 16.55 -30.95 L16.35 -34.75 16.3 -38.2 16.3 -41.8" fill-rule="evenodd" stroke="none"/>
    </g>
    <g id="font_A-OTF____Pro_B__1">
      <path d="M9.0 -41.75 L17.85 -41.65 17.7 -37.95 17.5 -32.05 17.35 -25.35 17.2 -19.25 17.15 -15.15 Q17.15 -11.6 17.95 -9.45 18.75 -7.3 20.65 -6.35 22.55 -5.35 25.7 -5.35 L29.4 -5.75 Q31.5 -6.2 33.55 -7.75 35.65 -9.25 37.3 -12.45 39.0 -15.6 39.9 -21.0 L47.45 -17.6 Q46.15 -11.5 43.95 -7.65 41.8 -3.8 39.15 -1.6 36.55 0.55 33.95 1.5 31.3 2.4 29.1 2.6 L25.5 2.8 Q20.6 2.75 17.45 1.55 14.3 0.4 12.55 -1.7 10.75 -3.8 10.0 -6.5 9.2 -9.2 9.0 -12.3 8.85 -15.35 8.85 -18.5 L8.9 -22.05 8.95 -27.35 9.0 -33.2 9.0 -38.4 9.0 -41.75 M45.5 -33.05 L40.95 -30.6 40.1 -32.4 38.35 -35.5 36.2 -38.7 40.55 -40.85 42.95 -37.75 44.55 -35.0 45.5 -33.05 M38.3 -29.3 L33.6 -26.6 32.85 -28.5 31.5 -31.05 29.05 -35.2 33.5 -37.4 35.1 -35.15 36.95 -32.1 38.3 -29.3" fill-rule="evenodd" stroke="none"/>
    </g>
    <g id="font_A-OTF____Pro_B__2">
      <path d="M26.4 -3.55 L26.4 -3.55 26.5 -4.15 26.55 -4.75 26.4 -5.9 Q26.2 -6.85 25.4 -7.7 24.6 -8.6 22.85 -8.65 21.35 -8.6 20.45 -7.95 19.6 -7.3 19.55 -6.15 19.6 -4.85 20.55 -4.25 21.5 -3.65 22.65 -3.5 L24.45 -3.35 25.35 -3.4 26.4 -3.55 M7.45 -41.2 L37.85 -41.2 37.85 -34.8 33.3 -30.95 30.65 -28.7 29.15 -27.45 28.05 -26.5 29.6 -26.9 32.6 -27.1 Q36.5 -27.1 39.35 -25.8 42.25 -24.5 44.1 -22.4 45.95 -20.25 46.9 -17.7 47.8 -15.15 47.8 -12.55 47.8 -8.25 45.6 -4.75 43.35 -1.25 38.7 0.9 34.0 3.0 26.65 3.05 21.7 3.0 18.95 1.75 16.15 0.5 14.9 -1.2 13.65 -2.95 13.35 -4.35 13.05 -5.8 13.1 -6.3 13.15 -9.0 14.65 -10.85 16.15 -12.75 18.45 -13.7 20.75 -14.7 23.25 -14.7 26.35 -14.65 28.4 -13.45 30.45 -12.2 31.45 -10.3 32.5 -8.35 32.5 -6.25 L32.45 -5.4 32.35 -4.5 Q35.6 -5.5 37.35 -7.35 39.1 -9.25 39.15 -12.2 L38.7 -14.75 Q38.25 -16.15 37.1 -17.4 35.95 -18.65 33.85 -19.45 31.75 -20.25 28.55 -20.25 25.5 -20.25 23.0 -19.5 20.5 -18.75 18.1 -17.1 15.7 -15.5 13.0 -12.9 L6.75 -6.75 1.7 -13.5 4.1 -15.35 6.8 -17.55 10.7 -20.85 16.6 -26.0 25.4 -33.65 7.45 -33.3 7.45 -41.2" fill-rule="evenodd" stroke="none"/>
    </g>
  </defs>
</svg>
