<?xml version="1.0" encoding="UTF-8" standalone="no"?>
<svg xmlns:xlink="http://www.w3.org/1999/xlink" height="17.25px" width="54.5px" xmlns="http://www.w3.org/2000/svg">
  <g transform="matrix(1.0, 0.0, 0.0, 1.0, -1.25, -6.1)">
    <g transform="matrix(1.0, 0.0, 0.0, 1.0, 0.0, 0.0)">
      <use fill="#ffffff" height="17.25" transform="matrix(0.3711, 0.0, 0.0, 0.3711, 0.0, 22.0)" width="54.5" xlink:href="#font_A-OTF____Pro_B__0"/>
      <use fill="#ffffff" height="17.25" transform="matrix(0.3711, 0.0, 0.0, 0.3711, 19.0, 22.0)" width="54.5" xlink:href="#font_A-OTF____Pro_B__1"/>
      <use fill="#ffffff" height="17.25" transform="matrix(0.3711, 0.0, 0.0, 0.3711, 38.0, 22.0)" width="54.5" xlink:href="#font_A-OTF____Pro_B__2"/>
    </g>
  </g>
  <defs>
    <g id="font_A-OTF____Pro_B__0">
      <path d="M12.4 -36.15 L12.5 -42.1 21.25 -42.1 21.05 -36.15 35.5 -36.15 35.5 -28.65 20.75 -28.65 20.5 -21.8 27.15 -22.1 30.95 -22.7 33.25 -23.5 36.1 -16.65 33.9 -15.7 31.1 -14.95 26.85 -14.5 20.35 -14.25 Q20.2 -11.25 20.4 -9.4 20.6 -7.5 21.45 -6.55 22.3 -5.55 24.15 -5.2 L29.1 -4.9 34.55 -5.3 Q36.85 -5.75 38.1 -7.35 39.35 -8.9 39.4 -12.15 39.35 -14.5 38.95 -16.4 L37.95 -19.8 36.9 -22.3 44.35 -24.4 45.7 -21.65 Q46.55 -19.8 47.2 -17.15 47.85 -14.5 47.9 -11.2 47.85 -6.3 46.2 -3.4 44.55 -0.55 41.8 0.85 39.05 2.25 35.65 2.65 L28.7 3.05 21.5 2.45 Q18.4 1.85 16.3 0.25 14.15 -1.4 13.1 -4.4 12.0 -7.45 12.0 -12.25 L12.0 -14.25 3.45 -14.25 3.45 -21.8 12.15 -21.8 12.25 -28.65 4.25 -28.65 4.25 -36.15 12.4 -36.15" fill-rule="evenodd" stroke="none"/>
    </g>
    <g id="font_A-OTF____Pro_B__1">
      <path d="M48.9 -35.4 L44.15 -34.15 43.3 -37.3 42.35 -39.85 41.15 -42.6 45.8 -43.55 47.0 -40.95 48.15 -37.9 48.9 -35.4 M41.55 -34.45 L36.6 -33.1 36.2 -34.9 35.25 -38.3 33.85 -42.05 38.5 -42.95 39.75 -40.15 40.8 -37.1 41.55 -34.45 M16.35 -41.8 L25.15 -41.8 25.0 -39.65 24.9 -36.65 24.95 -33.5 25.35 -29.95 Q25.65 -28.25 26.3 -27.2 L30.95 -28.6 35.75 -29.7 39.9 -30.5 42.7 -30.95 44.0 -22.4 37.15 -21.55 29.4 -20.0 Q25.45 -19.05 22.15 -17.65 18.8 -16.3 16.75 -14.45 14.7 -12.6 14.65 -10.25 14.7 -8.4 15.9 -7.35 17.1 -6.3 19.1 -5.85 L23.45 -5.3 28.2 -5.2 36.9 -5.4 45.5 -6.15 45.5 2.15 42.2 2.4 37.85 2.6 31.7 2.7 23.55 2.5 18.0 1.9 Q15.8 1.5 14.35 0.95 12.85 0.45 11.7 -0.2 9.1 -1.55 7.5 -3.95 5.9 -6.4 5.85 -9.45 5.9 -12.85 7.3 -15.35 8.75 -17.9 10.85 -19.65 L15.05 -22.6 18.75 -24.45 17.75 -26.4 Q17.3 -27.45 16.95 -29.3 16.65 -31.1 16.45 -34.1 L16.35 -41.8" fill-rule="evenodd" stroke="none"/>
    </g>
    <g id="font_A-OTF____Pro_B__2">
      <path d="M26.4 -3.55 L26.4 -3.55 26.5 -4.15 26.55 -4.75 26.4 -5.9 Q26.2 -6.85 25.4 -7.7 24.6 -8.6 22.85 -8.65 21.35 -8.6 20.45 -7.95 19.6 -7.3 19.55 -6.15 19.6 -4.85 20.55 -4.25 21.5 -3.65 22.65 -3.5 L24.45 -3.35 25.35 -3.4 26.4 -3.55 M7.45 -41.2 L37.85 -41.2 37.85 -34.8 33.3 -30.95 30.65 -28.7 29.15 -27.45 28.05 -26.5 29.6 -26.9 32.6 -27.1 Q36.5 -27.1 39.35 -25.8 42.25 -24.5 44.1 -22.4 45.95 -20.25 46.9 -17.7 47.8 -15.15 47.8 -12.55 47.8 -8.25 45.6 -4.75 43.35 -1.25 38.7 0.9 34.0 3.0 26.65 3.05 21.7 3.0 18.95 1.75 16.15 0.5 14.9 -1.2 13.65 -2.95 13.35 -4.35 13.05 -5.8 13.1 -6.3 13.15 -9.0 14.65 -10.85 16.15 -12.75 18.45 -13.7 20.75 -14.7 23.25 -14.7 26.35 -14.65 28.4 -13.45 30.45 -12.2 31.45 -10.3 32.5 -8.35 32.5 -6.25 L32.45 -5.4 32.35 -4.5 Q35.6 -5.5 37.35 -7.35 39.1 -9.25 39.15 -12.2 L38.7 -14.75 Q38.25 -16.15 37.1 -17.4 35.95 -18.65 33.85 -19.45 31.75 -20.25 28.55 -20.25 25.5 -20.25 23.0 -19.5 20.5 -18.75 18.1 -17.1 15.7 -15.5 13.0 -12.9 L6.75 -6.75 1.7 -13.5 4.1 -15.35 6.8 -17.55 10.7 -20.85 16.6 -26.0 25.4 -33.65 7.45 -33.3 7.45 -41.2" fill-rule="evenodd" stroke="none"/>
    </g>
  </defs>
</svg>
