<?xml version="1.0" encoding="UTF-8" standalone="no"?>
<svg xmlns:xlink="http://www.w3.org/1999/xlink" height="21.85px" width="171.65px" xmlns="http://www.w3.org/2000/svg">
  <g transform="matrix(1.0, 0.0, 0.0, 1.0, -0.55, -0.85)">
    <g transform="matrix(1.0, 0.0, 0.0, 1.0, 0.0, 0.0)">
      <use fill="#339933" height="21.85" transform="matrix(0.4688, 0.0, 0.0, 0.4688, 0.0, 21.0)" width="171.65" xlink:href="#font_HGP___________0"/>
      <use fill="#339933" height="21.85" transform="matrix(0.4688, 0.0, 0.0, 0.4688, 18.75, 21.0)" width="171.65" xlink:href="#font_HGP___________1"/>
      <use fill="#339933" height="21.85" transform="matrix(0.4688, 0.0, 0.0, 0.4688, 40.8, 21.0)" width="171.65" xlink:href="#font_HGP___________2"/>
      <use fill="#339933" height="21.85" transform="matrix(0.4688, 0.0, 0.0, 0.4688, 61.7, 21.0)" width="171.65" xlink:href="#font_HGP___________3"/>
      <use fill="#339933" height="21.85" transform="matrix(0.4688, 0.0, 0.0, 0.4688, 83.9, 21.0)" width="171.65" xlink:href="#font_HGP___________4"/>
      <use fill="#339933" height="21.85" transform="matrix(0.4688, 0.0, 0.0, 0.4688, 106.2, 21.0)" width="171.65" xlink:href="#font_HGP___________5"/>
      <use fill="#339933" height="21.85" transform="matrix(0.4688, 0.0, 0.0, 0.4688, 128.25, 21.0)" width="171.65" xlink:href="#font_HGP___________6"/>
      <use fill="#339933" height="21.85" transform="matrix(0.4688, 0.0, 0.0, 0.4688, 143.9, 21.0)" width="171.65" xlink:href="#font_HGP___________7"/>
    </g>
  </g>
  <defs>
    <g id="font_HGP___________0">
      <path d="M29.2 -8.4 L1.4 -8.0 1.2 1.8 19.2 0.4 38.6 0.2 38.4 -23.8 Q38.4 -36.2 28.8 -37.0 24.2 -37.4 17.8 -37.0 L2.2 -36.0 1.6 -26.4 16.0 -28.0 28.6 -28.6 29.2 -8.4" fill-rule="evenodd" stroke="none"/>
    </g>
    <g id="font_HGP___________1">
      <path d="M43.4 -41.8 L39.4 -40.6 42.4 -32.8 46.6 -34.0 43.4 -41.8 M38.0 -40.4 L33.4 -39.2 36.6 -31.4 41.2 -32.4 38.0 -40.4 M6.2 -26.2 L6.2 -26.2 Q4.6 -23.2 0.8 -14.4 L9.0 -11.0 16.4 -26.6 30.8 -28.2 20.4 -8.6 14.8 0.8 23.4 4.4 31.8 -10.8 37.8 -21.8 Q40.0 -25.8 40.4 -27.6 40.8 -29.4 40.0 -31.4 L36.4 -30.6 33.8 -36.8 21.2 -35.8 22.8 -38.8 15.0 -41.6 Q9.6 -33.0 6.2 -26.2" fill-rule="evenodd" stroke="none"/>
    </g>
    <g id="font_HGP___________2">
      <path d="M40.2 -42.2 L35.8 -41.2 39.2 -33.2 44.2 -34.6 40.2 -42.2 M34.0 -41.2 L29.6 -39.8 32.4 -31.8 37.8 -33.2 34.0 -41.2 M12.2 -40.0 L3.0 -40.2 1.4 -9.4 Q1.2 -5.4 1.6 -3.4 2.2 -0.2 4.4 1.2 7.0 3.0 11.4 3.0 L43.2 1.0 43.0 -8.6 10.4 -5.4 10.8 -18.2 41.0 -24.8 38.6 -32.2 11.2 -27.2 12.2 -40.0" fill-rule="evenodd" stroke="none"/>
    </g>
    <g id="font_HGP___________3">
      <path d="M32.4 -40.0 L23.2 -40.2 Q21.0 -9.2 21.0 -4.6 21.0 1.4 24.8 3.2 29.6 5.4 38.2 0.0 L46.4 -5.2 42.6 -13.6 31.2 -6.4 Q30.6 -23.2 32.4 -40.0 M4.4 -18.0 L4.4 -18.0 Q3.2 -11.6 1.2 1.6 L11.0 3.6 Q12.4 -9.0 13.6 -15.6 15.0 -22.8 17.8 -34.2 L8.0 -35.8 4.4 -18.0" fill-rule="evenodd" stroke="none"/>
    </g>
    <g id="font_HGP___________4">
      <path d="M37.6 -31.8 L37.6 -31.8 Q36.6 -33.0 36.8 -35.0 37.0 -36.6 38.2 -37.4 39.4 -38.2 41.0 -38.0 42.4 -37.8 43.2 -37.0 44.4 -35.8 44.4 -34.4 44.4 -32.8 43.2 -31.6 42.0 -30.4 40.2 -30.6 38.4 -30.8 37.6 -31.8 M36.4 -29.2 L36.4 -29.2 Q38.8 -27.4 41.6 -27.8 44.2 -28.2 45.8 -30.4 47.4 -32.6 47.0 -35.4 46.6 -38.2 44.2 -39.8 41.8 -41.4 38.8 -40.8 36.4 -40.2 35.0 -38.2 33.6 -36.2 33.8 -33.8 34.0 -31.0 36.4 -29.2 M32.8 -29.6 L24.6 -25.4 31.4 -11.8 37.2 1.8 46.2 -1.8 39.8 -16.4 32.8 -29.6 M7.8 -21.2 L1.2 -1.4 10.4 2.2 23.0 -36.4 14.2 -39.8 7.8 -21.2" fill-rule="evenodd" stroke="none"/>
    </g>
    <g id="font_HGP___________5">
      <path d="M40.8 -35.6 L5.8 -35.2 6.0 -26.0 40.6 -28.0 40.8 -35.6 M1.2 -9.0 L1.2 0.8 24.0 -1.8 Q31.8 -2.2 45.6 -2.4 L45.4 -10.0 21.4 -9.8 1.2 -9.0" fill-rule="evenodd" stroke="none"/>
    </g>
    <g id="font_HGP___________6">
      <path d="M25.2 -22.2 L14.2 0.8 21.8 4.4 32.0 -19.4 25.2 -22.2 M16.8 -22.6 L10.2 -21.8 13.2 -10.6 19.6 -12.0 16.8 -22.6 M7.6 -21.4 L0.8 -19.4 5.0 -8.4 11.2 -10.6 7.6 -21.4" fill-rule="evenodd" stroke="none"/>
    </g>
    <g id="font_HGP___________7">
      <path d="M13.2 -41.2 L0.8 -13.8 9.0 -11.0 15.2 -26.4 29.6 -28.4 Q25.6 -18.6 23.0 -13.4 20.4 -8.2 15.0 1.0 L23.8 4.4 32.4 -11.4 Q36.2 -18.4 39.0 -25.6 39.8 -27.4 40.0 -29.0 40.8 -33.2 38.2 -35.6 37.0 -36.8 34.8 -37.0 L30.2 -36.8 20.0 -35.6 21.4 -38.8 13.2 -41.2" fill-rule="evenodd" stroke="none"/>
    </g>
  </defs>
</svg>
