<?xml version="1.0" encoding="UTF-8" standalone="no"?>
<svg xmlns:xlink="http://www.w3.org/1999/xlink" height="15.95px" width="59.55px" xmlns="http://www.w3.org/2000/svg">
  <g transform="matrix(1.0, 0.0, 0.0, 1.0, -1.05, -1.1)">
    <g transform="matrix(1.0, 0.0, 0.0, 1.0, 0.0, 0.0)">
      <use fill="#d15f01" height="15.95" transform="matrix(0.3516, 0.0, 0.0, 0.3516, 0.0, 15.0)" width="59.55" xlink:href="#font_HG___________0"/>
      <use fill="#d15f01" height="15.95" transform="matrix(0.3516, 0.0, 0.0, 0.3516, 18.0, 15.0)" width="59.55" xlink:href="#font_HG___________1"/>
      <use fill="#d15f01" height="15.95" transform="matrix(0.3516, 0.0, 0.0, 0.3516, 36.0, 15.0)" width="59.55" xlink:href="#font_HG___________2"/>
    </g>
  </g>
  <defs>
    <g id="font_HG___________0">
      <path d="M38.8 -3.0 L38.8 -3.0 Q37.6 -4.0 37.4 -5.6 37.2 -7.4 38.2 -8.8 39.2 -10.2 41.4 -10.2 42.8 -10.2 44.2 -9.2 45.4 -8.0 45.4 -6.2 45.0 -3.0 42.4 -2.2 40.2 -1.8 38.8 -3.0 M38.4 -12.2 L45.0 -24.2 Q47.8 -29.4 47.2 -33.2 46.4 -37.6 42.8 -38.8 39.6 -39.8 32.0 -38.6 L3.0 -34.2 4.6 -25.2 37.8 -31.2 30.0 -16.6 19.8 0.4 28.4 4.6 34.8 -6.0 Q35.6 -2.2 38.0 -0.6 40.4 0.8 43.8 -0.2 47.0 -1.4 47.6 -5.0 48.2 -9.2 45.2 -11.4 42.6 -13.4 38.4 -12.2" fill-rule="evenodd" stroke="none"/>
    </g>
    <g id="font_HG___________1">
      <path d="M19.2 -39.6 L10.2 -40.0 Q7.6 -19.8 7.4 -11.2 7.2 -4.4 7.8 -2.0 9.0 2.8 14.2 3.6 17.4 4.0 22.4 2.6 32.2 -0.4 47.8 -8.0 L44.2 -16.6 Q34.0 -11.8 29.4 -10.0 24.6 -8.2 16.8 -5.8 L17.6 -23.6 Q18.0 -29.8 19.2 -39.6" fill-rule="evenodd" stroke="none"/>
    </g>
    <g id="font_HG___________2">
      <path d="M22.6 -29.2 L22.6 -29.2 Q13.2 -22.6 4.4 -16.0 L9.4 -6.8 24.0 -19.0 22.4 3.8 31.8 4.0 33.2 -25.4 47.6 -34.6 40.8 -40.8 22.6 -29.2" fill-rule="evenodd" stroke="none"/>
    </g>
  </defs>
</svg>
