<?xml version="1.0" encoding="UTF-8" standalone="no"?>
<svg xmlns:xlink="http://www.w3.org/1999/xlink" height="10.75px" width="102.75px" xmlns="http://www.w3.org/2000/svg">
  <g transform="matrix(1.0, 0.0, 0.0, 1.0, -0.65, -0.6)">
    <g transform="matrix(1.0, 0.0, 0.0, 1.0, 0.0, 0.0)">
      <use fill="#d15f01" height="10.75" transform="matrix(0.2344, 0.0, 0.0, 0.2344, 0.0, 10.0)" width="102.75" xlink:href="#font_HG___________0"/>
      <use fill="#d15f01" height="10.75" transform="matrix(0.2344, 0.0, 0.0, 0.2344, 11.0, 10.0)" width="102.75" xlink:href="#font_HG___________1"/>
      <use fill="#d15f01" height="10.75" transform="matrix(0.2344, 0.0, 0.0, 0.2344, 22.0, 10.0)" width="102.75" xlink:href="#font_HG___________2"/>
      <use fill="#d15f01" height="10.75" transform="matrix(0.2344, 0.0, 0.0, 0.2344, 33.0, 10.0)" width="102.75" xlink:href="#font_HG___________3"/>
      <use fill="#d15f01" height="10.75" transform="matrix(0.2344, 0.0, 0.0, 0.2344, 44.0, 10.0)" width="102.75" xlink:href="#font_HG___________4"/>
      <use fill="#d15f01" height="10.75" transform="matrix(0.2344, 0.0, 0.0, 0.2344, 55.0, 10.0)" width="102.75" xlink:href="#font_HG___________5"/>
      <use fill="#d15f01" height="10.75" transform="matrix(0.2344, 0.0, 0.0, 0.2344, 66.0, 10.0)" width="102.75" xlink:href="#font_HG___________6"/>
      <use fill="#d15f01" height="10.75" transform="matrix(0.2344, 0.0, 0.0, 0.2344, 77.0, 10.0)" width="102.75" xlink:href="#font_HG___________7"/>
      <use fill="#d15f01" height="10.75" transform="matrix(0.2344, 0.0, 0.0, 0.2344, 88.0, 10.0)" width="102.75" xlink:href="#font_HG___________8"/>
    </g>
  </g>
  <defs>
    <g id="font_HG___________0">
      <path d="M35.4 -30.2 L26.8 -26.4 33.2 -13.4 Q36.4 -6.4 39.4 1.8 L48.8 -2.0 35.4 -30.2 M15.8 -40.4 L2.8 -1.2 12.8 2.2 Q16.8 -17.2 24.8 -37.2 L15.8 -40.4" fill-rule="evenodd" stroke="none"/>
    </g>
    <g id="font_HG___________1">
      <path d="M22.6 -29.2 L22.6 -29.2 Q13.2 -22.6 4.4 -16.0 L9.4 -6.8 24.0 -19.0 22.4 3.8 31.8 4.0 33.2 -25.4 47.6 -34.6 40.8 -40.8 22.6 -29.2" fill-rule="evenodd" stroke="none"/>
    </g>
    <g id="font_HG___________2">
      <path d="M21.6 -19.8 L21.6 -19.8 13.6 -11.2 5.0 -2.2 12.8 4.2 25.0 -8.4 39.8 4.0 47.6 -2.8 31.6 -15.8 37.6 -23.2 Q40.4 -26.6 41.4 -28.6 42.8 -31.2 42.8 -33.6 42.8 -37.6 38.2 -39.4 35.6 -40.4 31.4 -40.2 L24.4 -39.6 6.8 -38.0 7.6 -28.0 31.0 -31.4 Q27.2 -25.8 21.6 -19.8" fill-rule="evenodd" stroke="none"/>
    </g>
    <g id="font_HG___________3">
      <path d="M34.6 -8.4 L6.8 -8.0 6.6 1.8 24.6 0.4 44.0 0.2 43.8 -23.8 Q43.8 -36.2 34.2 -37.0 29.6 -37.4 23.2 -37.0 L7.6 -36.0 7.0 -26.4 21.4 -28.0 34.0 -28.6 34.6 -8.4" fill-rule="evenodd" stroke="none"/>
    </g>
    <g id="font_HG___________4">
      <path d="M29.2 -24.4 L20.0 -26.4 10.6 0.6 20.2 4.0 29.2 -24.4 M41.6 -13.8 L46.2 -24.4 Q49.2 -31.4 47.4 -35.2 45.2 -39.8 39.0 -40.4 33.2 -40.8 21.8 -39.0 L3.8 -36.0 4.8 -26.4 Q17.4 -29.2 23.8 -30.2 L39.0 -32.0 32.8 -17.8 41.6 -13.8" fill-rule="evenodd" stroke="none"/>
    </g>
    <g id="font_HG___________5">
      <path d="M29.6 -13.6 L29.6 -13.6 Q28.2 -6.0 26.0 2.4 L35.2 4.4 Q38.0 -6.4 39.0 -12.4 40.4 -21.4 42.2 -40.8 L32.6 -41.4 Q31.2 -22.4 29.6 -13.6 M18.8 -40.2 L10.4 -40.8 Q7.4 -26.0 9.0 -9.2 L17.4 -9.0 Q17.0 -19.2 17.2 -23.8 17.4 -29.6 18.8 -40.2" fill-rule="evenodd" stroke="none"/>
    </g>
    <g id="font_HG___________6">
      <path d="M11.6 -27.6 L3.2 -26.0 4.4 -16.0 10.8 -17.8 9.8 -6.4 Q9.4 -0.8 11.8 1.8 13.0 3.0 14.8 3.4 20.8 4.6 44.0 3.2 L44.2 -6.8 26.0 -4.8 19.6 -4.6 20.6 -19.8 37.6 -22.8 31.8 -11.4 40.4 -7.4 47.2 -21.6 Q49.4 -26.0 46.8 -28.8 45.4 -30.4 42.6 -30.8 L36.4 -30.6 21.4 -29.0 22.4 -40.2 12.8 -40.8 11.6 -27.6" fill-rule="evenodd" stroke="none"/>
    </g>
    <g id="font_HG___________7">
      <path d="M34.4 -22.2 L23.4 0.8 31.0 4.4 41.2 -19.4 34.4 -22.2 M26.0 -22.6 L19.4 -21.8 22.4 -10.6 28.8 -12.0 26.0 -22.6 M16.8 -21.4 L10.0 -19.4 14.2 -8.4 20.4 -10.6 16.8 -21.4" fill-rule="evenodd" stroke="none"/>
    </g>
    <g id="font_HG___________8">
      <path d="M11.0 -40.2 L9.8 3.8 19.2 3.8 19.6 -19.2 30.6 -14.8 42.0 -9.2 45.8 -17.2 22.4 -26.8 19.6 -21.4 20.4 -40.2 11.0 -40.2" fill-rule="evenodd" stroke="none"/>
    </g>
  </defs>
</svg>
