<?xml version="1.0" encoding="UTF-8" standalone="no"?>
<svg xmlns:xlink="http://www.w3.org/1999/xlink" height="9.65px" width="42.5px" xmlns="http://www.w3.org/2000/svg">
  <g transform="matrix(1.0, 0.0, 0.0, 1.0, -0.4, -0.05)">
    <g transform="matrix(1.0, 0.0, 0.0, 1.0, 0.0, 0.0)">
      <use fill="#ff0000" height="9.65" transform="matrix(0.1953, 0.0, 0.0, 0.1953, 0.0, 9.0)" width="42.5" xlink:href="#font_____________0"/>
      <use fill="#ff0000" height="9.65" transform="matrix(0.1953, 0.0, 0.0, 0.1953, 7.6, 9.0)" width="42.5" xlink:href="#font_____________1"/>
      <use fill="#ff0000" height="9.65" transform="matrix(0.1953, 0.0, 0.0, 0.1953, 15.5, 9.0)" width="42.5" xlink:href="#font_____________2"/>
      <use fill="#ff0000" height="9.65" transform="matrix(0.1953, 0.0, 0.0, 0.1953, 24.5, 9.0)" width="42.5" xlink:href="#font_____________3"/>
      <use fill="#ff0000" height="9.65" transform="matrix(0.1953, 0.0, 0.0, 0.1953, 34.05, 9.0)" width="42.5" xlink:href="#font_____________2"/>
    </g>
  </g>
  <defs>
    <g id="font_____________0">
      <path d="M38.1 -15.55 L38.1 -15.55 Q38.1 -17.1 37.05 -18.25 35.95 -19.35 34.4 -19.35 32.4 -19.35 31.2 -17.65 26.05 -9.4 24.1 -7.6 20.9 -4.75 15.0 -4.75 11.95 -4.75 10.7 -6.25 9.35 -7.8 9.35 -11.35 9.35 -16.9 10.15 -35.4 10.2 -37.25 9.1 -38.3 8.05 -39.2 6.55 -39.3 5.05 -39.35 3.95 -38.45 2.8 -37.45 2.75 -35.7 2.0 -16.95 2.0 -11.35 2.0 -5.4 4.8 -1.85 8.15 2.3 15.0 2.3 21.05 2.3 25.2 0.3 28.8 -1.45 31.9 -5.25 L37.55 -13.7 Q38.1 -14.65 38.1 -15.55 M30.45 -30.35 L30.45 -30.35 Q30.45 -31.4 30.05 -32.15 29.05 -34.3 27.45 -36.25 26.65 -37.3 25.6 -37.3 23.2 -37.3 23.2 -35.4 23.2 -34.55 24.15 -33.2 L26.45 -29.55 Q27.1 -28.5 28.4 -28.5 29.05 -28.5 29.8 -29.05 30.45 -29.55 30.45 -30.35 M36.5 -33.05 L36.5 -33.05 36.15 -34.9 Q35.15 -37.05 33.55 -39.0 32.7 -40.0 31.6 -40.0 29.3 -40.0 29.3 -38.1 29.3 -37.25 30.15 -35.9 L32.5 -32.3 Q33.15 -31.2 34.4 -31.2 36.5 -31.2 36.5 -33.05" fill-rule="evenodd" stroke="none"/>
    </g>
    <g id="font_____________1">
      <path d="M32.7 -13.8 L32.7 -13.8 Q32.7 -11.55 31.2 -9.6 29.5 -7.45 26.6 -6.85 26.95 -10.0 26.85 -13.45 L26.55 -19.8 Q29.45 -19.15 31.15 -17.45 32.7 -15.85 32.7 -13.8 M39.4 -13.75 L39.4 -13.75 Q39.4 -18.7 36.15 -22.0 32.65 -25.55 26.3 -25.6 L26.1 -28.4 Q25.9 -30.85 22.9 -30.85 21.4 -30.85 20.35 -29.9 19.35 -29.0 19.45 -27.65 L19.65 -24.75 Q13.55 -23.65 9.05 -17.95 L9.65 -21.25 10.25 -24.5 Q10.25 -25.7 9.45 -26.75 8.7 -27.8 7.3 -27.8 4.1 -27.8 3.55 -25.0 2.0 -17.0 2.0 -7.7 2.0 -0.4 5.5 -0.4 7.3 -0.4 8.25 -1.25 9.25 -2.15 9.0 -3.65 L8.9 -6.5 Q11.9 -15.65 20.0 -18.9 L20.2 -13.6 Q20.35 -11.1 20.0 -8.05 L17.95 -9.45 Q16.6 -10.3 15.95 -10.3 14.75 -10.3 13.9 -9.25 13.0 -8.15 13.0 -6.75 13.0 -4.15 17.85 -1.75 15.05 1.45 15.05 2.35 15.05 3.7 15.75 4.65 16.6 5.7 17.95 5.7 19.6 5.7 21.5 4.1 23.3 2.5 25.1 -0.4 32.1 -0.45 35.9 -4.3 39.4 -7.9 39.4 -13.75" fill-rule="evenodd" stroke="none"/>
    </g>
    <g id="font_____________2">
      <path d="M45.25 -10.55 L45.25 -10.55 Q45.25 -12.2 44.3 -13.35 43.3 -14.4 41.8 -14.4 39.6 -14.4 38.75 -12.7 L37.75 -10.45 Q35.05 -4.8 31.8 -4.8 29.75 -4.8 29.15 -7.4 28.85 -8.9 28.85 -12.65 28.85 -15.95 27.5 -18.5 25.8 -21.9 22.45 -21.9 20.4 -21.9 17.15 -20.4 L24.6 -35.35 Q25.1 -36.3 25.1 -37.2 25.0 -38.5 23.75 -39.55 22.6 -40.6 21.0 -40.6 18.9 -40.6 17.8 -38.5 10.95 -24.7 7.75 -17.7 0.75 -2.9 0.75 -1.45 0.75 2.65 5.15 2.65 7.05 2.65 8.25 -0.4 11.0 -6.85 12.7 -9.45 13.95 -11.3 16.15 -13.15 18.35 -14.95 19.5 -14.95 21.8 -14.95 21.8 -11.8 L21.7 -9.15 21.6 -6.9 Q21.6 -2.55 24.3 -0.05 26.95 2.35 31.6 2.35 36.45 2.35 40.85 -1.7 45.25 -5.75 45.25 -10.55" fill-rule="evenodd" stroke="none"/>
    </g>
    <g id="font_____________3">
      <path d="M11.45 -34.9 L11.45 -34.9 Q11.65 -36.85 10.5 -37.95 9.35 -39.1 7.7 -39.1 4.4 -39.1 4.05 -35.75 2.0 -17.6 2.0 -12.35 2.0 -7.45 2.3 -1.5 2.35 0.15 3.5 1.1 4.45 2.0 5.95 2.0 7.55 2.0 8.65 0.9 9.8 -0.1 9.75 -1.95 9.45 -7.6 9.45 -12.35 9.45 -17.05 10.25 -24.95 L11.45 -34.9 M28.95 -8.35 L28.95 -8.35 Q28.45 -6.8 27.35 -5.6 26.2 -4.3 24.7 -4.3 23.15 -4.3 22.05 -4.95 20.6 -5.75 20.6 -7.05 20.6 -10.2 24.8 -10.2 L26.95 -9.5 28.95 -8.35 M44.95 -6.0 L44.95 -6.0 Q44.95 -8.1 41.85 -10.05 40.25 -11.1 36.1 -12.75 L35.65 -24.15 40.35 -24.6 Q42.9 -24.8 43.7 -25.4 44.85 -26.25 44.85 -28.5 44.85 -32.05 40.75 -31.7 L35.85 -31.1 36.0 -35.2 Q36.0 -39.0 32.15 -39.0 28.2 -39.0 28.05 -34.35 L28.1 -32.8 28.1 -30.45 Q22.15 -30.3 18.35 -30.55 16.4 -30.8 15.4 -29.7 14.45 -28.7 14.5 -27.1 14.55 -25.65 15.45 -24.65 16.35 -23.55 18.1 -23.55 L28.1 -23.5 28.5 -15.1 26.6 -15.5 25.0 -15.65 Q20.5 -15.65 17.3 -13.5 13.7 -11.15 13.7 -6.85 13.7 -3.1 17.1 -0.75 20.35 1.45 25.25 1.45 29.15 1.45 31.6 -0.15 33.7 -1.55 35.45 -4.8 39.25 -1.95 41.45 -1.95 42.6 -1.95 43.8 -3.3 44.95 -4.65 44.95 -6.0 M42.6 -34.55 L42.6 -34.55 Q42.6 -35.6 42.25 -36.4 41.3 -38.5 39.7 -40.45 38.8 -41.5 37.75 -41.5 35.45 -41.5 35.45 -39.65 35.45 -38.75 36.3 -37.4 L38.6 -33.8 Q39.3 -32.7 40.55 -32.7 41.3 -32.7 41.95 -33.25 42.6 -33.8 42.6 -34.55 M48.25 -36.85 L48.25 -36.85 Q48.25 -37.9 47.9 -38.75 46.9 -40.75 45.25 -42.75 44.45 -43.8 43.4 -43.8 41.0 -43.8 41.0 -41.95 41.0 -41.05 41.95 -39.7 L44.25 -36.1 Q44.9 -35.05 46.2 -35.05 48.25 -35.05 48.25 -36.85" fill-rule="evenodd" stroke="none"/>
    </g>
  </defs>
</svg>
