<?xml version="1.0" encoding="UTF-8" standalone="no"?>
<svg xmlns:xlink="http://www.w3.org/1999/xlink" height="8.55px" width="35.05px" xmlns="http://www.w3.org/2000/svg">
  <g transform="matrix(1.0, 0.0, 0.0, 1.0, -0.2, -0.55)">
    <g transform="matrix(1.0, 0.0, 0.0, 1.0, 0.0, 0.0)">
      <use fill="#ff0000" height="8.55" transform="matrix(0.1953, 0.0, 0.0, 0.1953, 0.0, 9.0)" width="35.05" xlink:href="#font_____________0"/>
      <use fill="#ff0000" height="8.55" transform="matrix(0.1953, 0.0, 0.0, 0.1953, 8.45, 9.0)" width="35.05" xlink:href="#font_____________1"/>
      <use fill="#ff0000" height="8.55" transform="matrix(0.1953, 0.0, 0.0, 0.1953, 17.45, 9.0)" width="35.05" xlink:href="#font_____________2"/>
      <use fill="#ff0000" height="8.55" transform="matrix(0.1953, 0.0, 0.0, 0.1953, 26.85, 9.0)" width="35.05" xlink:href="#font_____________3"/>
    </g>
  </g>
  <defs>
    <g id="font_____________0">
      <path d="M42.3 -10.15 L42.3 -10.15 Q42.3 -14.4 39.85 -18.35 38.6 -20.35 35.9 -20.35 34.6 -20.35 33.75 -19.3 32.9 -18.3 32.9 -16.95 L33.15 -15.65 34.25 -12.95 Q34.8 -11.65 34.8 -10.1 34.8 -4.25 25.55 -4.25 21.45 -4.25 19.9 -5.75 18.3 -7.2 18.3 -11.05 L18.35 -12.8 26.5 -13.4 Q29.75 -13.95 29.75 -17.05 29.75 -18.5 28.85 -19.3 28.05 -20.25 26.7 -20.25 L23.55 -20.0 19.2 -19.7 19.8 -25.15 28.1 -25.8 Q30.65 -26.25 30.65 -29.55 30.65 -30.95 29.85 -31.8 29.0 -32.7 27.9 -32.65 L20.7 -32.0 21.3 -37.55 Q21.3 -38.95 20.25 -39.7 19.2 -40.55 17.6 -40.55 16.0 -40.55 14.9 -39.7 13.75 -38.95 13.45 -37.55 13.05 -33.75 13.0 -31.85 L8.85 -32.1 5.45 -32.2 Q4.1 -32.15 3.3 -31.2 2.5 -30.3 2.5 -28.9 2.5 -26.2 5.15 -25.55 L7.95 -25.2 12.3 -25.15 11.65 -19.75 4.1 -20.2 Q2.85 -20.3 1.95 -19.25 1.0 -18.3 1.0 -16.85 1.0 -13.6 3.6 -13.2 L10.75 -12.75 10.7 -10.7 Q10.7 -3.6 14.5 -0.45 17.95 2.45 25.2 2.55 33.7 2.65 38.05 -0.8 42.3 -4.1 42.3 -10.15" fill-rule="evenodd" stroke="none"/>
    </g>
    <g id="font_____________1">
      <path d="M45.25 -10.55 L45.25 -10.55 Q45.25 -12.2 44.3 -13.35 43.3 -14.4 41.8 -14.4 39.6 -14.4 38.75 -12.7 L37.75 -10.45 Q35.05 -4.8 31.8 -4.8 29.75 -4.8 29.15 -7.4 28.85 -8.9 28.85 -12.65 28.85 -15.95 27.5 -18.5 25.8 -21.9 22.45 -21.9 20.4 -21.9 17.15 -20.4 L24.6 -35.35 Q25.1 -36.3 25.1 -37.2 25.0 -38.5 23.75 -39.55 22.6 -40.6 21.0 -40.6 18.9 -40.6 17.8 -38.5 10.95 -24.7 7.75 -17.7 0.75 -2.9 0.75 -1.45 0.75 2.65 5.15 2.65 7.05 2.65 8.25 -0.4 11.0 -6.85 12.7 -9.45 13.95 -11.3 16.15 -13.15 18.35 -14.95 19.5 -14.95 21.8 -14.95 21.8 -11.8 L21.7 -9.15 21.6 -6.9 Q21.6 -2.55 24.3 -0.05 26.95 2.35 31.6 2.35 36.45 2.35 40.85 -1.7 45.25 -5.75 45.25 -10.55" fill-rule="evenodd" stroke="none"/>
    </g>
    <g id="font_____________2">
      <path d="M30.25 -30.8 L30.25 -30.8 Q30.2 -32.15 29.2 -33.3 28.2 -34.35 26.75 -34.35 L25.55 -34.25 Q23.6 -33.7 19.35 -33.25 L19.9 -36.65 Q19.9 -38.2 18.8 -39.2 17.7 -40.15 16.2 -40.2 13.0 -40.25 12.5 -37.05 L11.6 -32.65 4.75 -32.45 Q3.0 -32.45 2.1 -31.35 1.15 -30.3 1.15 -28.8 1.0 -27.3 2.0 -26.25 2.95 -25.15 4.75 -25.15 L9.85 -25.25 Q6.25 -11.45 3.1 -3.4 2.8 -2.65 2.8 -1.95 2.8 -0.4 4.0 0.65 5.15 1.65 6.65 1.7 9.15 1.7 10.05 -0.7 13.7 -10.1 17.65 -25.75 24.3 -26.35 27.55 -27.3 30.45 -28.15 30.25 -30.8 M45.25 -2.35 L45.25 -2.35 Q45.25 -6.0 41.15 -6.0 L35.85 -5.45 30.5 -4.9 28.1 -5.3 Q26.55 -5.8 26.55 -6.9 L27.0 -8.7 27.4 -10.65 Q27.4 -11.9 26.4 -12.7 25.4 -13.5 23.8 -13.5 21.8 -13.5 20.6 -11.55 19.4 -9.55 19.4 -6.5 19.4 -1.1 23.7 0.65 26.55 1.75 35.0 1.75 L42.3 0.95 Q45.25 0.2 45.25 -2.35 M43.45 -22.45 L43.45 -22.45 Q43.45 -23.9 42.6 -24.9 41.5 -26.0 39.9 -26.05 L32.55 -25.65 25.5 -24.6 Q22.7 -23.95 22.7 -21.4 22.7 -19.85 23.6 -18.7 24.65 -17.5 26.25 -17.5 L27.3 -17.6 33.4 -18.5 39.65 -18.8 Q41.4 -18.8 42.45 -19.9 43.45 -20.95 43.45 -22.45 M41.35 -32.15 L41.35 -32.15 41.0 -34.1 Q40.05 -36.2 38.45 -38.1 37.6 -39.2 36.5 -39.2 34.2 -39.2 34.2 -37.35 34.2 -36.4 35.05 -35.1 L37.4 -31.5 Q38.05 -30.45 39.3 -30.45 40.05 -30.45 40.7 -30.95 41.35 -31.5 41.35 -32.15 M47.45 -34.1 L47.45 -34.1 Q47.45 -35.2 47.1 -35.95 46.15 -38.1 44.55 -40.05 43.65 -41.1 42.6 -41.1 40.3 -41.1 40.3 -39.2 40.3 -38.3 41.15 -37.0 L43.45 -33.4 Q44.15 -32.35 45.4 -32.35 47.45 -32.35 47.45 -34.1" fill-rule="evenodd" stroke="none"/>
    </g>
    <g id="font_____________3">
      <path d="M24.8 -11.2 L24.8 -11.2 Q24.8 -14.25 20.9 -14.25 19.0 -14.25 17.75 -11.55 15.15 -6.3 13.25 -6.3 11.85 -6.3 11.0 -10.05 10.2 -13.4 10.2 -18.25 L10.35 -26.6 10.5 -31.85 Q10.5 -33.45 9.6 -34.45 8.65 -35.4 7.0 -35.4 5.2 -35.4 3.9 -34.5 2.7 -33.55 2.55 -31.85 2.0 -23.55 2.0 -22.05 2.0 -19.05 2.25 -16.0 2.9 -7.4 4.95 -3.15 7.55 2.05 12.65 2.05 16.55 2.05 20.8 -2.8 24.8 -7.5 24.8 -11.2 M43.0 -7.55 L43.0 -7.55 Q42.8 -11.7 40.75 -19.9 38.75 -27.85 37.0 -31.95 36.0 -34.2 33.65 -34.2 32.15 -34.2 30.9 -33.2 29.65 -32.15 29.65 -30.6 29.65 -29.85 30.1 -29.0 31.55 -25.65 33.4 -18.3 35.3 -10.7 35.45 -7.3 35.55 -5.55 36.65 -4.65 37.7 -3.65 39.25 -3.65 40.8 -3.65 41.9 -4.75 43.1 -5.75 43.0 -7.55" fill-rule="evenodd" stroke="none"/>
    </g>
  </defs>
</svg>
