<?xml version="1.0" encoding="UTF-8" standalone="no"?>
<svg xmlns:xlink="http://www.w3.org/1999/xlink" height="8.2px" width="16.55px" xmlns="http://www.w3.org/2000/svg">
  <g transform="matrix(1.0, 0.0, 0.0, 1.0, -0.3, -0.75)">
    <g transform="matrix(1.0, 0.0, 0.0, 1.0, 0.0, 0.0)">
      <use fill="#ff0000" height="8.2" transform="matrix(0.1953, 0.0, 0.0, 0.1953, 0.0, 9.0)" width="16.55" xlink:href="#font_____________0"/>
      <use fill="#ff0000" height="8.2" transform="matrix(0.1953, 0.0, 0.0, 0.1953, 8.0, 9.0)" width="16.55" xlink:href="#font_____________1"/>
    </g>
  </g>
  <defs>
    <g id="font_____________0">
      <path d="M37.15 0.35 L37.15 0.35 Q39.95 -0.4 39.95 -3.2 39.95 -4.7 39.0 -5.85 37.95 -7.0 36.35 -7.0 L35.3 -6.9 Q29.95 -5.55 20.25 -5.55 L11.65 -6.25 Q8.8 -7.05 8.8 -9.15 L9.2 -11.0 9.65 -12.95 Q9.65 -14.5 8.75 -15.5 7.75 -16.4 6.35 -16.45 4.5 -16.5 3.1 -14.5 1.5 -12.2 1.5 -7.9 1.5 -2.2 8.6 0.2 13.4 1.9 20.25 1.9 30.9 1.9 37.15 0.35 M36.75 -32.65 L36.75 -32.65 Q36.75 -34.2 35.65 -35.25 34.4 -36.4 32.05 -36.2 L21.1 -35.8 8.9 -36.35 Q6.95 -36.5 5.8 -35.45 4.7 -34.35 4.7 -32.9 4.7 -29.45 8.75 -29.05 L23.35 -28.45 33.0 -28.9 Q34.75 -29.0 35.75 -30.25 36.75 -31.2 36.75 -32.65" fill-rule="evenodd" stroke="none"/>
    </g>
    <g id="font_____________1">
      <path d="M30.25 -30.8 L30.25 -30.8 Q30.2 -32.15 29.2 -33.3 28.2 -34.35 26.75 -34.35 L25.55 -34.25 Q23.6 -33.7 19.35 -33.25 L19.9 -36.65 Q19.9 -38.2 18.8 -39.2 17.7 -40.15 16.2 -40.2 13.0 -40.25 12.5 -37.05 L11.6 -32.65 4.75 -32.45 Q3.0 -32.45 2.1 -31.35 1.15 -30.3 1.15 -28.8 1.0 -27.3 2.0 -26.25 2.95 -25.15 4.75 -25.15 L9.85 -25.25 Q6.25 -11.45 3.1 -3.4 2.8 -2.65 2.8 -1.95 2.8 -0.4 4.0 0.65 5.15 1.65 6.65 1.7 9.15 1.7 10.05 -0.7 13.7 -10.1 17.65 -25.75 24.3 -26.35 27.55 -27.3 30.45 -28.15 30.25 -30.8 M45.25 -2.35 L45.25 -2.35 Q45.25 -6.0 41.15 -6.0 L35.85 -5.45 30.5 -4.9 28.1 -5.3 Q26.55 -5.8 26.55 -6.9 L27.0 -8.7 27.4 -10.65 Q27.4 -11.9 26.4 -12.7 25.4 -13.5 23.8 -13.5 21.8 -13.5 20.6 -11.55 19.4 -9.55 19.4 -6.5 19.4 -1.1 23.7 0.65 26.55 1.75 35.0 1.75 L42.3 0.95 Q45.25 0.2 45.25 -2.35 M43.45 -22.45 L43.45 -22.45 Q43.45 -23.9 42.6 -24.9 41.5 -26.0 39.9 -26.05 L32.55 -25.65 25.5 -24.6 Q22.7 -23.95 22.7 -21.4 22.7 -19.85 23.6 -18.7 24.65 -17.5 26.25 -17.5 L27.3 -17.6 33.4 -18.5 39.65 -18.8 Q41.4 -18.8 42.45 -19.9 43.45 -20.95 43.45 -22.45" fill-rule="evenodd" stroke="none"/>
    </g>
  </defs>
</svg>
