<?xml version="1.0" encoding="UTF-8" standalone="no"?>
<svg xmlns:xlink="http://www.w3.org/1999/xlink" height="9.3px" width="26.95px" xmlns="http://www.w3.org/2000/svg">
  <g transform="matrix(1.0, 0.0, 0.0, 1.0, -0.25, -0.05)">
    <g transform="matrix(1.0, 0.0, 0.0, 1.0, 0.0, 0.0)">
      <use fill="#ff0000" height="9.3" transform="matrix(0.1953, 0.0, 0.0, 0.1953, 0.0, 9.0)" width="26.95" xlink:href="#font_____________0"/>
      <use fill="#ff0000" height="9.3" transform="matrix(0.1953, 0.0, 0.0, 0.1953, 9.1, 9.0)" width="26.95" xlink:href="#font_____________1"/>
      <use fill="#ff0000" height="9.3" transform="matrix(0.1953, 0.0, 0.0, 0.1953, 18.6, 9.0)" width="26.95" xlink:href="#font_____________2"/>
    </g>
  </g>
  <defs>
    <g id="font_____________0">
      <path d="M14.75 -13.85 L14.75 -13.85 Q14.75 -9.85 11.1 -9.85 9.2 -9.85 8.3 -11.15 7.5 -12.1 7.5 -13.4 7.5 -14.9 8.45 -16.05 9.4 -17.1 11.25 -17.1 13.05 -17.1 13.95 -16.0 14.75 -15.0 14.75 -13.85 M43.9 -5.55 L43.9 -5.55 Q43.9 -9.8 42.6 -13.95 41.75 -16.5 38.45 -16.5 37.25 -16.5 36.3 -15.45 35.5 -14.35 35.5 -12.85 35.5 -12.0 36.05 -10.3 36.65 -8.6 36.65 -7.85 36.65 -4.7 24.55 -4.7 18.0 -4.7 18.0 -6.3 22.35 -9.4 22.35 -13.85 22.35 -15.5 21.6 -17.45 20.7 -19.65 19.35 -20.75 L19.35 -26.5 26.45 -27.45 Q28.8 -28.3 28.8 -30.65 28.8 -32.35 27.9 -33.4 27.15 -34.5 25.6 -34.5 L24.9 -34.3 19.6 -33.5 19.6 -37.6 Q19.6 -40.15 16.1 -40.15 12.55 -40.15 12.5 -37.2 L12.4 -33.0 5.35 -33.2 Q3.45 -33.3 2.35 -32.35 1.3 -31.4 1.3 -30.0 1.3 -27.0 4.2 -26.5 L7.6 -26.25 12.25 -26.25 12.25 -22.45 Q7.2 -22.45 4.1 -19.55 1.5 -17.0 1.5 -13.8 1.5 -9.85 3.55 -7.3 5.95 -4.1 10.5 -4.1 10.9 -0.55 14.6 0.75 18.25 2.05 27.65 2.05 35.6 2.05 39.45 0.5 43.9 -1.3 43.9 -5.55 M45.45 -26.85 L45.45 -26.85 Q45.45 -27.85 44.7 -29.05 41.1 -34.15 37.95 -36.85 36.75 -37.8 35.35 -37.8 34.05 -37.8 33.0 -36.85 31.95 -35.9 31.95 -34.65 31.95 -32.55 33.15 -31.35 L37.2 -26.6 Q40.0 -23.4 41.65 -23.4 43.15 -23.4 44.35 -24.4 45.45 -25.4 45.45 -26.85" fill-rule="evenodd" stroke="none"/>
    </g>
    <g id="font_____________1">
      <path d="M23.25 -16.5 L23.25 -16.5 Q23.25 -13.15 20.15 -13.15 18.6 -13.15 17.6 -13.9 16.5 -14.65 16.5 -16.15 16.5 -17.8 17.7 -18.75 18.65 -19.6 19.65 -19.6 21.2 -19.6 22.25 -18.75 23.25 -17.95 23.25 -16.5 M44.2 -31.1 L44.2 -31.1 Q44.2 -34.65 40.85 -34.9 L41.3 -35.95 Q41.3 -37.05 40.95 -37.85 39.95 -39.95 38.3 -41.85 37.4 -42.9 36.35 -42.9 34.1 -42.9 34.1 -41.1 34.1 -40.15 35.0 -38.85 L37.4 -35.05 30.75 -35.05 Q30.7 -40.9 26.6 -40.9 25.0 -40.9 23.8 -39.8 22.6 -38.8 22.6 -37.55 L22.6 -34.8 10.7 -34.5 3.65 -33.8 Q0.9 -33.25 0.9 -30.5 0.9 -29.25 1.8 -28.4 2.75 -27.45 4.3 -27.65 L13.15 -28.25 23.05 -28.6 23.05 -24.65 19.95 -24.75 Q15.2 -24.75 12.8 -23.0 9.35 -20.4 9.35 -16.2 9.35 -12.35 12.05 -10.0 15.25 -7.2 21.3 -6.85 19.75 -5.45 18.05 -4.45 L14.65 -2.8 Q11.75 -1.45 11.75 0.4 11.75 1.9 12.7 2.85 13.7 3.8 15.05 3.8 20.7 3.8 26.35 -1.55 32.1 -7.2 32.1 -13.9 32.1 -17.05 30.5 -19.85 L30.75 -28.6 40.6 -28.35 Q44.2 -28.1 44.2 -31.1 M47.9 -36.75 L47.9 -36.75 47.55 -38.6 Q46.55 -40.7 44.9 -42.65 44.1 -43.7 43.05 -43.7 40.65 -43.7 40.65 -41.85 40.65 -40.95 41.6 -39.6 L43.9 -35.95 Q44.55 -34.9 45.85 -34.9 47.9 -34.9 47.9 -36.75" fill-rule="evenodd" stroke="none"/>
    </g>
    <g id="font_____________2">
      <path d="M30.55 -18.85 L30.55 -18.85 Q30.55 -25.25 27.7 -28.3 25.65 -30.5 22.5 -30.5 L21.35 -30.45 18.5 -30.25 Q19.1 -33.25 19.45 -34.15 L19.7 -36.3 Q19.75 -37.7 18.7 -38.55 17.7 -39.5 16.25 -39.5 12.75 -39.5 12.25 -35.75 L10.95 -29.5 4.2 -28.8 Q1.0 -28.35 1.0 -25.65 1.0 -23.0 2.6 -22.2 3.2 -21.85 4.25 -21.85 L9.4 -22.5 Q6.1 -12.0 1.95 -4.7 1.3 -3.35 1.3 -1.8 1.3 -0.55 2.4 0.35 3.45 1.25 5.1 1.25 6.75 1.25 8.35 -1.7 13.35 -10.65 16.8 -23.4 L19.05 -23.55 Q23.0 -23.55 23.0 -19.1 L22.75 -11.25 Q22.0 -5.7 19.5 -5.7 18.75 -5.7 17.15 -6.25 L14.75 -6.85 Q11.85 -6.85 11.85 -3.75 11.85 -1.1 15.05 0.4 17.85 1.7 20.9 1.7 30.55 1.7 30.55 -18.85 M44.15 -15.3 L44.15 -15.3 43.95 -16.25 Q40.8 -29.4 37.6 -34.05 36.6 -35.45 35.2 -35.45 33.35 -35.45 32.25 -34.65 31.05 -33.8 31.05 -32.75 31.05 -31.85 31.7 -30.25 L32.8 -27.7 34.7 -21.4 Q36.2 -16.25 37.2 -13.75 37.9 -11.7 40.1 -11.7 41.85 -11.7 43.0 -12.6 44.15 -13.55 44.15 -15.3" fill-rule="evenodd" stroke="none"/>
    </g>
  </defs>
</svg>
