<?xml version="1.0" encoding="UTF-8" standalone="no"?>
<svg xmlns:xlink="http://www.w3.org/1999/xlink" height="52.1px" width="40.55px" xmlns="http://www.w3.org/2000/svg">
  <g transform="matrix(1.0, 0.0, 0.0, 1.0, 20.25, 26.05)">
    <use height="52.1" transform="matrix(1.0, 0.0, 0.0, 1.0, -20.25, -26.05)" width="40.55" xlink:href="#shape0"/>
  </g>
  <defs>
    <g id="shape0" transform="matrix(1.0, 0.0, 0.0, 1.0, 20.25, 26.05)">
      <path d="M2.55 -20.1 Q1.65 -21.7 1.75 -25.4 1.75 -22.6 3.75 -19.7 5.05 -17.75 8.05 -14.95 L12.4 -10.65 Q14.35 -8.35 14.4 -6.45 L13.35 -8.0 13.3 -3.45 Q13.15 -0.85 12.45 1.0 L19.0 1.7 Q19.9 2.45 20.1 3.35 20.55 5.4 19.9 7.3 L18.1 8.35 Q18.25 10.25 17.0 11.05 15.9 11.75 14.0 11.5 13.7 12.35 13.45 14.15 L12.95 16.9 Q12.55 18.35 11.85 19.25 11.0 20.25 9.5 20.6 7.75 20.95 1.95 23.65 -3.4 26.1 -4.35 26.05 -6.6 23.65 -8.75 20.05 L-12.4 13.55 -14.35 13.4 -15.9 12.95 Q-17.3 12.25 -16.7 9.5 L-18.2 9.15 -18.25 9.2 Q-20.65 7.4 -20.2 5.8 L-19.7 4.75 Q-19.35 4.05 -16.95 2.3 -14.6 0.55 -12.0 0.85 -13.4 -0.75 -13.8 -3.35 L-14.0 -8.0 -14.45 -7.1 Q-14.5 -9.7 -11.55 -13.45 L-8.95 -16.35 -6.65 -18.85 Q-5.35 -20.4 -4.7 -22.25 L-4.2 -24.05 -3.75 -26.05 -3.65 -26.05 Q-3.45 -25.0 -3.7 -23.6 L-4.35 -21.2 Q0.45 -14.35 -0.55 -1.85 0.25 -2.5 1.25 -2.2 2.15 -1.95 2.6 -1.0 2.9 -1.5 2.65 -2.15 L2.1 -3.3 Q1.05 -6.15 1.35 -11.65 1.6 -16.45 2.55 -20.1 M-0.55 -5.65 Q-0.6 -8.1 -1.25 -11.3 -1.9 -14.2 -2.8 -16.85 -3.75 -19.55 -4.6 -20.85 -6.0 -18.7 -8.2 -16.25 L-11.3 -12.75 Q-12.7 -10.85 -13.1 -8.9 -13.65 -6.55 -13.0 -3.3 L-12.5 -1.15 Q-12.15 0.05 -11.5 0.85 L-9.95 0.85 -8.4 0.65 Q-7.95 -0.45 -7.1 -1.25 -6.25 -2.15 -5.25 -2.5 -3.0 -3.4 -1.2 -1.5 -0.5 -2.9 -0.55 -5.65 M13.05 -6.35 Q12.85 -8.85 11.3 -10.9 L7.6 -14.65 Q4.65 -17.35 2.95 -19.65 2.45 -18.15 2.2 -15.7 1.85 -13.25 1.85 -10.65 1.7 -4.45 3.1 -1.9 5.2 -3.45 7.15 -2.6 8.85 -1.8 9.85 0.6 L10.15 0.5 Q10.65 1.0 11.8 1.0 13.25 -3.45 13.05 -6.35 M8.25 -1.05 Q7.05 -2.35 5.7 -2.55 4.25 -2.8 3.45 -1.5 2.6 -0.2 2.95 1.85 3.2 3.7 4.3 4.95 L6.75 5.2 9.0 5.2 Q10.1 3.7 9.75 1.9 9.45 0.25 8.25 -1.05 M2.2 -0.65 Q1.75 -1.75 0.65 -1.9 -0.45 -2.1 -0.75 -0.85 -0.1 0.7 -0.1 2.3 -0.15 4.05 -1.0 5.3 L1.3 5.1 3.6 5.05 Q3.0 3.9 2.8 2.1 L2.2 -0.65 M-1.2 5.3 Q-0.6 3.7 -0.7 1.8 -0.8 -0.45 -1.8 -1.45 -3.15 -2.8 -4.85 -2.25 -6.35 -1.8 -7.45 -0.1 -8.6 1.55 -8.5 3.3 -8.5 5.2 -6.9 6.15 L-4.05 5.75 -1.2 5.3 M13.25 11.3 L10.6 10.75 10.15 13.75 9.7 16.75 10.8 17.1 Q2.75 18.8 -3.7 21.6 -5.7 20.6 -7.35 17.65 L-8.65 15.1 -9.7 12.65 -11.5 13.3 Q-8.1 20.2 -6.7 22.25 L-5.05 24.2 Q-4.3 24.75 -3.45 24.8 L-1.6 24.4 0.8 23.25 Q5.05 21.05 8.45 19.9 L10.05 19.3 11.35 18.35 12.25 14.8 13.25 11.3 M12.2 1.55 L10.05 1.25 Q10.8 2.85 9.5 5.4 L11.75 5.85 Q13.45 6.3 13.55 6.9 7.3 5.3 1.2 5.6 -5.4 5.9 -10.95 8.35 L-11.15 8.05 Q-10.7 7.9 -9.2 7.15 -8.0 6.5 -7.15 6.4 -8.5 5.75 -8.85 4.25 -9.1 3.0 -8.65 1.45 L-11.9 1.4 -14.95 1.8 Q-16.2 2.3 -17.35 3.25 -18.55 4.3 -19.1 5.35 -19.7 6.5 -19.15 7.35 -18.55 8.35 -16.5 8.75 L-15.15 7.45 -14.25 5.85 Q-14.5 5.2 -15.4 5.45 L-16.85 5.9 Q-16.55 5.05 -15.4 4.85 -14.3 4.6 -13.75 5.25 -13.25 5.8 -13.8 6.7 L-15.1 8.5 Q-16.05 9.6 -16.2 10.4 -16.45 11.45 -15.4 12.3 -14.25 13.3 -11.85 12.55 L-9.9 11.75 -8.15 11.1 Q-3.35 9.95 2.05 9.8 L12.3 10.4 14.45 10.75 16.5 10.5 Q17.7 9.7 17.45 8.75 17.3 8.15 16.25 7.2 L14.75 5.75 Q14.15 4.95 14.9 4.45 L16.35 4.55 Q17.3 4.8 17.0 5.55 15.45 4.55 15.1 5.1 15.3 5.8 16.35 6.5 17.45 7.25 17.75 7.8 18.65 7.7 19.25 7.1 L19.9 5.65 Q20.0 4.85 19.75 4.0 19.45 3.15 18.85 2.6 17.85 1.65 14.7 1.6 L12.2 1.55 M9.0 16.5 L9.5 13.6 9.85 10.6 6.45 10.25 3.75 10.4 Q2.5 10.75 1.55 11.75 0.55 12.75 -0.3 14.8 L-2.05 10.95 -5.55 11.5 -8.95 12.5 Q-8.1 16.85 -3.7 20.9 L2.65 18.7 9.1 16.85 9.0 16.5 M-0.5 13.95 Q-0.1 13.1 0.8 12.1 L2.35 10.35 0.35 10.6 -1.6 10.85 -0.5 13.95" fill="#000000" fill-rule="evenodd" stroke="none"/>
      <path d="M8.25 -1.05 Q9.45 0.25 9.75 1.9 10.1 3.7 9.0 5.2 L6.75 5.2 4.3 4.95 Q3.2 3.7 2.95 1.85 2.6 -0.2 3.45 -1.5 4.25 -2.8 5.7 -2.55 7.05 -2.35 8.25 -1.05 M-1.2 5.3 L-4.05 5.75 -6.9 6.15 Q-8.5 5.2 -8.5 3.3 -8.6 1.55 -7.45 -0.1 -6.35 -1.8 -4.85 -2.25 -3.15 -2.8 -1.8 -1.45 -0.8 -0.45 -0.7 1.8 -0.6 3.7 -1.2 5.3" fill="#ffffff" fill-rule="evenodd" stroke="none"/>
      <path d="M13.05 -6.35 Q13.25 -3.45 11.8 1.0 10.65 1.0 10.15 0.5 L9.85 0.6 Q8.85 -1.8 7.15 -2.6 5.2 -3.45 3.1 -1.9 1.7 -4.45 1.85 -10.65 1.85 -13.25 2.2 -15.7 2.45 -18.15 2.95 -19.65 4.65 -17.35 7.6 -14.65 L11.3 -10.9 Q12.85 -8.85 13.05 -6.35 M-0.55 -5.65 Q-0.5 -2.9 -1.2 -1.5 -3.0 -3.4 -5.25 -2.5 -6.25 -2.15 -7.1 -1.25 -7.95 -0.45 -8.4 0.65 L-9.95 0.85 -11.5 0.85 Q-12.15 0.05 -12.5 -1.15 L-13.0 -3.3 Q-13.65 -6.55 -13.1 -8.9 -12.7 -10.85 -11.3 -12.75 L-8.2 -16.25 Q-6.0 -18.7 -4.6 -20.85 -3.75 -19.55 -2.8 -16.85 -1.9 -14.2 -1.25 -11.3 -0.6 -8.1 -0.55 -5.65" fill="#ccffff" fill-rule="evenodd" stroke="none"/>
      <path d="M2.2 -0.65 L2.8 2.1 Q3.0 3.9 3.6 5.05 L1.3 5.1 -1.0 5.3 Q-0.15 4.05 -0.1 2.3 -0.1 0.7 -0.75 -0.85 -0.45 -2.1 0.65 -1.9 1.75 -1.75 2.2 -0.65 M12.2 1.55 L14.7 1.6 Q17.85 1.65 18.85 2.6 19.45 3.15 19.75 4.0 20.0 4.85 19.9 5.65 L19.25 7.1 Q18.65 7.7 17.75 7.8 17.45 7.25 16.35 6.5 15.3 5.8 15.1 5.1 15.45 4.55 17.0 5.55 17.3 4.8 16.35 4.55 L14.9 4.45 Q14.15 4.95 14.75 5.75 L16.25 7.2 Q17.3 8.15 17.45 8.75 17.7 9.7 16.5 10.5 L14.45 10.75 12.3 10.4 2.05 9.8 Q-3.35 9.95 -8.15 11.1 L-9.9 11.75 -11.85 12.55 Q-14.25 13.3 -15.4 12.3 -16.45 11.45 -16.2 10.4 -16.05 9.6 -15.1 8.5 L-13.8 6.7 Q-13.25 5.8 -13.75 5.25 -14.3 4.6 -15.4 4.85 -16.55 5.05 -16.85 5.9 L-15.4 5.45 Q-14.5 5.2 -14.25 5.85 L-15.15 7.45 -16.5 8.75 Q-18.55 8.35 -19.15 7.35 -19.7 6.5 -19.1 5.35 -18.55 4.3 -17.35 3.25 -16.2 2.3 -14.95 1.8 L-11.9 1.4 -8.65 1.45 Q-9.1 3.0 -8.85 4.25 -8.5 5.75 -7.15 6.4 -8.0 6.5 -9.2 7.15 -10.7 7.9 -11.15 8.05 L-10.95 8.35 Q-5.4 5.9 1.2 5.6 7.3 5.3 13.55 6.9 13.45 6.3 11.75 5.85 L9.5 5.4 Q10.8 2.85 10.05 1.25 L12.2 1.55 M13.25 11.3 L12.25 14.8 11.35 18.35 10.05 19.3 8.45 19.9 Q5.05 21.05 0.8 23.25 L-1.6 24.4 -3.45 24.8 Q-4.3 24.75 -5.05 24.2 L-6.7 22.25 Q-8.1 20.2 -11.5 13.3 L-9.7 12.65 -8.65 15.1 -7.35 17.65 Q-5.7 20.6 -3.7 21.6 2.75 18.8 10.8 17.1 L9.7 16.75 10.15 13.75 10.6 10.75 13.25 11.3" fill="#ffcc00" fill-rule="evenodd" stroke="none"/>
      <path d="M9.0 16.5 L9.1 16.85 2.65 18.7 -3.7 20.9 Q-8.1 16.85 -8.95 12.5 L-5.55 11.5 -2.05 10.95 -0.3 14.8 Q0.55 12.75 1.55 11.75 2.5 10.75 3.75 10.4 L6.45 10.25 9.85 10.6 9.5 13.6 9.0 16.5" fill="#ff6666" fill-rule="evenodd" stroke="none"/>
      <path d="M-0.5 13.95 L-1.6 10.85 0.35 10.6 2.35 10.35 0.8 12.1 Q-0.1 13.1 -0.5 13.95" fill="#ff3333" fill-rule="evenodd" stroke="none"/>
    </g>
  </defs>
</svg>
