<?xml version="1.0" encoding="UTF-8" standalone="no"?>
<svg xmlns:xlink="http://www.w3.org/1999/xlink" height="60.3px" width="116.3px" xmlns="http://www.w3.org/2000/svg">
  <g transform="matrix(1.0, 0.0, 0.0, 1.0, 7.8, 6.0)">
    <use height="57.8" transform="matrix(1.0, 0.0, 0.0, 1.0, -7.8, -3.5)" width="116.3" xlink:href="#shape0"/>
    <use height="57.8" transform="matrix(1.0, 0.0, 0.0, 1.0, -7.8, -6.0)" width="116.3" xlink:href="#shape1"/>
    <use height="32.0" transform="matrix(1.0, 0.0, 0.0, 1.0, 5.65, 6.55)" width="87.35" xlink:href="#sprite0"/>
  </g>
  <defs>
    <g id="shape0" transform="matrix(1.0, 0.0, 0.0, 1.0, 7.8, 6.0)">
      <path d="M104.35 -1.85 L104.4 -1.85 Q108.5 2.25 108.5 8.0 L108.5 37.8 Q108.5 43.55 104.4 47.65 L104.35 47.7 Q100.25 51.8 94.5 51.8 L6.2 51.8 Q0.45 51.8 -3.65 47.7 L-3.65 47.65 Q-7.8 43.55 -7.8 37.8 L-7.8 8.0 Q-7.8 2.25 -3.65 -1.85 0.45 -6.0 6.2 -6.0 L94.5 -6.0 Q100.25 -6.0 104.35 -1.85" fill="#000000" fill-rule="evenodd" stroke="none"/>
    </g>
    <g id="shape1" transform="matrix(1.0, 0.0, 0.0, 1.0, 7.8, 6.0)">
      <path d="M104.4 -1.85 Q108.5 2.25 108.5 8.0 L108.5 37.8 Q108.5 43.55 104.4 47.65 L104.35 47.7 Q100.25 51.8 94.5 51.8 L6.2 51.8 Q0.45 51.8 -3.65 47.7 L-3.65 47.65 Q-7.8 43.55 -7.8 37.8 L-7.8 8.0 Q-7.8 2.25 -3.65 -1.85 0.45 -6.0 6.2 -6.0 L94.5 -6.0 Q100.25 -6.0 104.35 -1.85 L104.4 -1.85" fill="#ffffff" fill-rule="evenodd" stroke="none"/>
      <path d="M94.5 0.0 Q97.8 0.0 100.15 2.35 102.5 4.7 102.5 8.0 L102.5 37.8 Q102.5 41.1 100.15 43.45 97.8 45.8 94.5 45.8 L6.2 45.8 Q2.9 45.8 0.55 43.45 -1.8 41.1 -1.8 37.8 L-1.8 8.0 Q-1.8 4.7 0.55 2.35 2.9 0.0 6.2 0.0 L94.5 0.0" fill="#5ffc00" fill-rule="evenodd" stroke="none"/>
    </g>
    <g id="sprite0" transform="matrix(1.0, 0.0, 0.0, 1.0, 14.25, -6.6)">
      <use height="36.85" transform="matrix(0.4297, 0.0, 0.0, 0.4297, -12.3781, 6.875)" width="37.4" xlink:href="#shape2"/>
      <use height="36.0" transform="matrix(0.4297, 0.0, 0.0, 0.4297, 4.2438, 7.1758)" width="34.65" xlink:href="#shape3"/>
      <use height="36.75" transform="matrix(0.4297, 0.0, 0.0, 0.4297, 19.7148, 7.498)" width="46.25" xlink:href="#shape4"/>
      <use height="37.7" transform="matrix(0.4297, 0.0, 0.0, 0.4297, 40.2512, 6.6172)" width="36.05" xlink:href="#shape5"/>
      <use height="36.0" transform="matrix(0.4297, 0.0, 0.0, 0.4297, 56.2438, 7.1758)" width="34.65" xlink:href="#shape3"/>
      <use height="35.1" transform="matrix(0.332, 0.0, 0.0, 0.332, -14.2512, 26.5117)" width="46.5" xlink:href="#shape6"/>
      <use height="35.8" transform="matrix(0.332, 0.0, 0.0, 0.332, 1.8154, 26.7275)" width="16.15" xlink:href="#shape7"/>
      <use height="36.85" transform="matrix(0.332, 0.0, 0.0, 0.332, 7.6328, 26.3125)" width="37.4" xlink:href="#shape2"/>
      <use height="36.85" transform="matrix(0.332, 0.0, 0.0, 0.332, 20.3328, 26.3125)" width="37.4" xlink:href="#shape2"/>
      <use height="35.8" transform="matrix(0.332, 0.0, 0.0, 0.332, 33.2154, 26.7275)" width="16.15" xlink:href="#shape7"/>
      <use height="35.7" transform="matrix(0.332, 0.0, 0.0, 0.332, 39.2154, 26.6279)" width="42.15" xlink:href="#shape8"/>
      <use height="36.35" transform="matrix(0.332, 0.0, 0.0, 0.332, 53.8652, 26.5449)" width="41.15" xlink:href="#shape9"/>
      <use height="36.65" transform="matrix(0.332, 0.0, 0.0, 0.332, 68.182, 26.4453)" width="14.85" xlink:href="#shape10"/>
    </g>
    <g id="shape2" transform="matrix(1.0, 0.0, 0.0, 1.0, -0.4, 35.2)">
      <path d="M32.65 -31.5 Q34.75 -29.75 35.95 -27.7 37.2 -25.65 37.8 -23.6 L32.7 -22.45 28.0 -21.6 24.55 -21.15 23.2 -21.0 Q22.6 -22.05 21.55 -22.55 L19.35 -23.1 17.35 -22.85 Q16.5 -22.5 16.3 -21.9 16.0 -20.9 17.55 -20.1 19.1 -19.35 22.85 -19.2 L27.35 -18.7 Q29.9 -18.3 32.3 -17.25 34.65 -16.2 36.2 -14.3 37.75 -12.4 37.7 -9.45 37.5 -6.5 35.95 -4.35 34.4 -2.25 31.8 -0.9 29.25 0.45 25.95 1.1 L19.05 1.65 Q14.7 1.65 11.15 0.7 7.6 -0.3 4.9 -2.5 2.2 -4.7 0.4 -8.35 L7.35 -10.4 12.5 -11.6 14.55 -12.0 Q15.35 -10.65 16.65 -10.05 17.95 -9.45 19.3 -9.4 L21.7 -9.65 22.95 -10.45 Q23.3 -11.45 21.45 -12.05 L16.2 -12.95 Q12.3 -13.3 9.15 -14.35 6.0 -15.4 4.05 -17.35 2.1 -19.35 1.75 -22.5 1.45 -25.75 3.2 -28.6 4.95 -31.45 8.85 -33.3 12.8 -35.1 19.0 -35.2 23.85 -35.25 27.2 -34.2 30.55 -33.2 32.65 -31.5" fill="#000000" fill-rule="evenodd" stroke="none"/>
    </g>
    <g id="shape3" transform="matrix(1.0, 0.0, 0.0, 1.0, -0.8, 34.5)">
      <path d="M32.65 -34.5 L33.75 -29.3 34.65 -24.15 35.2 -20.25 35.45 -18.65 34.0 -18.7 30.5 -18.7 26.15 -18.6 27.1 -9.05 27.9 0.0 22.25 0.65 16.9 1.1 12.85 1.4 11.25 1.5 11.2 -5.25 11.2 -11.45 11.2 -17.75 6.25 -17.2 2.4 -16.6 0.8 -16.3 0.8 -21.75 0.95 -26.9 1.1 -30.7 1.2 -32.25 11.35 -33.0 21.6 -33.7 32.65 -34.5" fill="#000000" fill-rule="evenodd" stroke="none"/>
    </g>
    <g id="shape4" transform="matrix(1.0, 0.0, 0.0, 1.0, -0.5, 33.75)">
      <path d="M25.4 -13.2 L24.45 -16.6 23.4 -20.1 22.45 -16.5 21.4 -12.7 23.55 -12.95 25.4 -13.2 M33.0 -33.75 L36.05 -27.15 39.8 -19.05 43.55 -10.4 46.75 -2.3 Q43.5 -1.1 39.4 -0.05 L29.8 2.15 28.6 -2.1 27.45 -6.05 22.85 -5.25 19.3 -4.65 18.3 -0.95 17.25 3.0 11.25 1.6 5.85 0.1 2.0 -1.1 0.5 -1.65 3.5 -8.15 7.35 -16.35 11.55 -25.1 15.65 -33.3 21.65 -33.6 27.25 -33.7 31.35 -33.75 33.0 -33.75" fill="#000000" fill-rule="evenodd" stroke="none"/>
    </g>
    <g id="shape5" transform="matrix(1.0, 0.0, 0.0, 1.0, -1.05, 35.8)">
      <path d="M14.8 -18.2 Q17.95 -18.35 19.5 -19.35 21.0 -20.3 21.0 -21.45 20.95 -22.6 19.35 -23.3 L14.55 -23.5 14.65 -20.75 14.8 -18.2 M27.4 -34.05 Q30.4 -32.8 32.35 -30.4 34.35 -28.0 34.75 -24.15 34.9 -22.6 34.4 -20.7 33.95 -18.8 32.65 -16.8 31.4 -14.8 29.1 -13.0 L33.0 -8.55 35.95 -4.95 37.1 -3.5 29.9 -0.9 24.8 1.1 22.85 1.9 19.85 -1.85 17.2 -5.45 15.35 -8.05 15.6 -3.6 15.85 0.1 15.95 1.65 10.6 1.5 5.9 1.3 2.6 1.15 1.35 1.1 Q1.15 -4.15 1.1 -10.0 L1.05 -21.8 1.05 -33.3 6.6 -34.7 13.5 -35.65 Q17.15 -35.95 20.75 -35.6 24.35 -35.25 27.4 -34.05" fill="#000000" fill-rule="evenodd" stroke="none"/>
    </g>
    <g id="shape6" transform="matrix(1.0, 0.0, 0.0, 1.0, -0.9, 34.6)">
      <path d="M35.15 -33.35 L40.2 -33.8 45.7 -34.15 46.35 -22.65 46.9 -11.2 47.4 -0.3 45.9 -0.2 42.1 0.0 36.85 0.25 30.95 0.5 30.8 -5.25 30.65 -11.15 29.5 -10.0 26.8 -7.35 23.5 -4.3 20.75 -7.95 18.65 -10.95 17.8 -12.15 17.15 -5.8 16.55 0.45 15.1 0.25 11.4 -0.2 6.35 -0.9 0.9 -1.65 Q1.55 -10.3 2.55 -18.55 L4.5 -34.6 6.05 -34.45 9.9 -34.1 14.8 -33.55 19.6 -32.85 20.3 -31.2 22.05 -27.1 24.2 -21.8 27.1 -27.0 29.2 -31.15 30.05 -32.85 31.45 -33.0 35.15 -33.35" fill="#000000" fill-rule="evenodd" stroke="none"/>
    </g>
    <g id="shape7" transform="matrix(1.0, 0.0, 0.0, 1.0, -0.95, 33.95)">
      <path d="M17.1 -33.1 L17.1 -16.8 16.75 0.15 11.65 0.9 6.55 1.4 2.6 1.75 1.05 1.85 0.95 -6.7 0.95 -14.65 1.0 -23.25 1.2 -33.95 6.6 -33.85 11.75 -33.55 15.6 -33.25 17.1 -33.1" fill="#000000" fill-rule="evenodd" stroke="none"/>
    </g>
    <g id="shape8" transform="matrix(1.0, 0.0, 0.0, 1.0, -0.95, 34.25)">
      <path d="M18.95 -18.3 Q17.4 -17.1 17.35 -15.35 17.4 -13.55 18.95 -12.35 20.45 -11.2 22.75 -11.15 25.0 -11.2 26.55 -12.35 28.05 -13.55 28.1 -15.35 28.05 -17.1 26.55 -18.3 25.0 -19.5 22.75 -19.55 20.45 -19.5 18.95 -18.3 M32.95 -31.85 Q37.5 -29.5 40.15 -25.55 42.75 -21.6 43.05 -16.65 43.25 -13.15 41.95 -9.9 40.65 -6.65 37.9 -4.1 35.15 -1.55 31.1 -0.05 27.05 1.45 21.7 1.45 17.4 1.45 13.65 0.3 9.9 -0.9 7.05 -3.15 4.15 -5.45 2.55 -8.75 0.95 -12.1 0.95 -16.4 1.0 -20.8 2.85 -24.1 4.7 -27.45 7.75 -29.7 10.85 -31.95 14.6 -33.1 18.4 -34.25 22.4 -34.25 28.45 -34.2 32.95 -31.85" fill="#000000" fill-rule="evenodd" stroke="none"/>
    </g>
    <g id="shape9" transform="matrix(1.0, 0.0, 0.0, 1.0, -1.1, 34.5)">
      <path d="M32.25 -34.05 L37.35 -33.5 40.9 -33.05 42.25 -32.85 41.75 -22.85 41.1 -11.85 40.25 -0.4 34.7 0.55 29.35 1.25 25.35 1.7 23.75 1.85 21.1 -3.2 18.6 -7.7 16.8 -10.95 16.1 -12.15 16.05 -6.8 15.95 -2.65 15.9 1.45 11.05 1.1 6.2 0.65 2.55 0.3 1.1 0.1 1.25 -16.7 1.65 -34.35 7.15 -34.2 12.05 -33.9 15.55 -33.65 16.9 -33.5 19.9 -27.4 22.8 -21.9 24.9 -18.0 25.75 -16.45 25.95 -22.8 26.15 -28.6 26.3 -32.85 26.35 -34.5 32.25 -34.05" fill="#000000" fill-rule="evenodd" stroke="none"/>
    </g>
    <g id="shape10" transform="matrix(1.0, 0.0, 0.0, 1.0, -1.0, 34.8)">
      <path d="M3.0 -0.15 Q2.1 -1.15 1.95 -2.55 1.85 -3.95 2.6 -5.1 3.4 -6.3 4.75 -7.05 6.15 -7.8 7.95 -7.95 L11.2 -7.55 Q12.7 -7.0 13.65 -6.0 14.6 -4.95 14.7 -3.55 14.8 -2.2 14.0 -1.0 13.25 0.15 11.85 0.95 10.5 1.7 8.7 1.85 L5.45 1.45 Q3.95 0.9 3.0 -0.15 M15.85 -34.05 L15.7 -26.0 15.45 -18.15 15.1 -9.9 11.0 -9.65 6.45 -9.4 2.8 -9.2 1.3 -9.1 1.1 -17.85 1.0 -26.55 1.05 -34.8 6.45 -34.65 11.2 -34.4 14.55 -34.2 15.85 -34.05" fill="#000000" fill-rule="evenodd" stroke="none"/>
    </g>
  </defs>
</svg>
