<?xml version="1.0" encoding="UTF-8" standalone="no"?>
<svg xmlns:xlink="http://www.w3.org/1999/xlink" height="60.2px" width="72.05px" xmlns="http://www.w3.org/2000/svg">
  <g transform="matrix(1.0, 0.0, 0.0, 1.0, 39.75, 31.0)">
    <use height="60.2" transform="matrix(1.0, 0.0, 0.0, 1.0, -39.75, -31.0)" width="72.05" xlink:href="#shape0"/>
  </g>
  <defs>
    <g id="shape0" transform="matrix(1.0, 0.0, 0.0, 1.0, 39.75, 31.0)">
      <path d="M4.6 -15.75 L2.85 -18.0 1.85 -17.8 Q-0.1 -14.9 0.95 -11.6 L1.15 -12.3 Q2.0 -14.9 4.5 -15.65 L4.7 -15.6 4.6 -15.75 M3.8 -18.1 L4.4 -17.35 4.0 -18.2 Q2.9 -20.4 1.25 -22.25 L-0.25 -23.85 -0.35 -23.95 -0.25 -23.8 -0.4 -23.45 -1.05 -23.25 Q-2.65 -20.8 -2.15 -17.75 L-2.3 -17.55 -2.2 -16.9 -2.7 -17.6 Q-4.25 -20.65 -2.1 -23.35 L-1.45 -24.1 -0.55 -24.05 Q-7.6 -29.5 -16.55 -30.2 -21.15 -30.3 -24.95 -28.45 L-25.0 -28.35 -25.55 -28.1 -26.15 -27.8 -26.15 -27.85 Q-31.05 -25.7 -34.2 -21.4 L-36.55 -17.45 -36.45 -17.45 -37.7 -14.55 -37.85 -14.15 Q-39.55 -8.85 -38.35 -2.9 -38.0 -1.25 -37.25 0.3 -34.65 5.85 -29.45 9.7 L-27.5 10.85 -27.45 10.7 -27.4 10.6 -27.25 10.45 -27.25 10.35 -27.25 10.15 Q-26.25 8.35 -24.8 7.15 L-24.55 6.95 -24.55 6.8 -23.55 5.85 Q-22.2 4.75 -20.55 4.25 -12.95 2.9 -5.65 5.4 -3.9 6.05 -1.9 5.9 0.65 5.7 3.1 4.45 3.5 0.95 2.4 -2.25 0.3 -8.2 -0.1 -14.6 -0.3 -17.95 2.5 -19.0 L3.8 -18.1 M4.6 -18.35 Q8.5 -12.05 8.8 -4.55 10.6 -5.8 12.85 -6.2 L15.95 -6.4 Q18.4 -12.15 24.6 -12.05 28.55 -11.65 30.7 -8.35 33.15 -4.65 31.9 -0.35 30.7 3.75 27.1 5.85 26.7 12.05 22.9 16.75 L20.65 19.2 Q17.55 22.45 13.65 24.65 L12.05 25.05 8.3 25.6 -9.2 25.1 -12.7 24.95 Q-16.6 24.4 -20.1 22.85 -21.5 22.5 -22.9 21.7 L-24.95 20.35 -26.25 19.15 -27.05 17.75 -27.2 17.55 -27.5 17.2 Q-28.1 14.75 -27.75 12.2 L-27.7 12.1 Q-29.45 11.65 -30.9 10.2 L-32.3 8.85 Q-35.6 5.8 -37.7 1.85 -38.25 0.85 -38.4 -0.2 -41.1 -7.5 -38.45 -15.2 L-38.0 -16.9 -37.15 -18.7 -36.65 -19.75 -36.3 -20.1 -35.85 -20.85 -35.7 -21.0 Q-32.8 -25.7 -27.85 -28.25 L-26.2 -28.9 Q-23.5 -30.35 -20.2 -30.75 L-17.0 -31.0 Q-5.7 -30.8 1.65 -22.3 L4.6 -18.35 M1.25 -9.75 Q3.45 -3.1 3.8 3.95 5.2 2.85 6.2 1.4 3.6 -3.3 3.75 -8.65 3.55 -10.35 4.55 -11.5 L4.95 -11.7 5.55 -11.65 Q6.75 -8.85 7.05 -6.0 L6.05 -5.05 7.05 -4.65 7.15 -4.1 7.35 -3.85 7.6 -2.05 8.0 -3.2 7.8 -3.5 8.05 -3.8 Q7.5 -9.35 5.2 -14.5 2.25 -13.95 1.6 -11.0 L1.25 -9.75 M17.65 -5.65 L18.45 -5.6 Q19.35 -7.55 21.25 -8.9 L22.3 -9.25 Q26.35 -10.0 28.8 -6.6 L29.5 -6.75 29.0 -8.9 Q26.9 -11.2 23.95 -11.35 20.3 -11.5 18.25 -8.65 17.1 -7.15 17.65 -5.65 M14.4 -5.45 Q11.0 -5.25 8.55 -3.0 8.35 -1.3 7.65 0.2 4.65 6.45 -2.35 6.9 L-5.25 6.35 Q-11.2 4.7 -17.55 5.1 L-20.9 5.65 -22.85 6.7 -22.9 6.75 -24.55 8.3 -24.55 8.35 -25.45 9.35 Q-27.35 12.5 -26.45 15.55 -26.1 16.7 -25.35 17.85 -24.4 19.3 -22.95 20.15 L-22.1 20.6 Q-20.65 21.15 -19.5 22.1 -16.95 23.1 -14.05 23.25 L8.05 24.7 Q13.85 25.1 17.75 20.75 11.0 24.6 3.45 22.55 -0.3 21.5 -3.95 19.95 -6.2 19.0 -8.5 18.35 -10.45 18.9 -12.1 20.15 -12.9 20.65 -13.95 20.75 L-14.1 20.2 Q-8.9 15.6 -2.15 17.15 L-2.25 17.4 -6.5 17.95 Q-0.9 20.25 4.7 21.95 L6.95 22.45 Q14.3 22.75 20.0 18.1 25.4 13.7 25.75 6.85 25.85 4.05 24.65 1.55 21.45 -4.9 14.4 -5.45 M22.1 3.55 L21.15 3.7 20.45 2.45 20.85 1.9 21.35 1.7 21.7 1.75 Q22.45 2.35 22.25 3.35 L22.1 3.55 M20.85 8.65 L20.2 8.9 19.55 8.65 Q19.3 8.4 19.3 8.0 L19.55 7.4 Q19.8 7.1 20.2 7.1 20.55 7.1 20.85 7.4 L21.1 8.0 20.85 8.65 M18.25 3.6 L17.8 3.45 17.6 2.95 17.8 2.5 Q17.95 2.3 18.25 2.3 L18.75 2.5 18.95 2.95 18.75 3.45 18.25 3.6 M16.3 6.6 L16.85 6.8 17.05 7.35 16.85 7.9 16.3 8.1 15.8 7.9 15.55 7.35 Q15.55 7.0 15.8 6.8 L16.3 6.6 M-34.25 19.9 L-34.25 20.05 -34.3 20.05 -34.3 19.9 -34.25 19.9" fill="#000000" fill-rule="evenodd" stroke="none"/>
      <path d="M1.25 -9.75 L1.6 -11.0 Q2.25 -13.95 5.2 -14.5 7.5 -9.35 8.05 -3.8 L7.8 -3.5 8.0 -3.2 7.6 -2.05 7.35 -3.85 7.15 -4.1 7.05 -4.65 6.05 -5.05 7.05 -6.0 Q6.75 -8.85 5.55 -11.65 L4.95 -11.7 4.55 -11.5 Q3.55 -10.35 3.75 -8.65 3.6 -3.3 6.2 1.4 5.2 2.85 3.8 3.95 3.45 -3.1 1.25 -9.75" fill="#ffffff" fill-rule="evenodd" stroke="none"/>
      <path d="M-26.45 15.55 Q-26.1 14.55 -25.4 13.65 L-23.9 12.25 -23.85 12.3 -23.25 11.9 Q-18.1 8.25 -11.5 9.0 L0.2 9.7 4.6 9.25 Q8.3 8.55 10.75 5.65 14.8 0.85 14.4 -5.45 21.45 -4.9 24.65 1.55 25.85 4.05 25.75 6.85 25.4 13.7 20.0 18.1 14.3 22.75 6.95 22.45 L4.7 21.95 Q-0.9 20.25 -6.5 17.95 L-2.25 17.4 -2.15 17.15 Q-8.9 15.6 -14.1 20.2 L-13.95 20.75 Q-12.9 20.65 -12.1 20.15 -10.45 18.9 -8.5 18.35 -6.2 19.0 -3.95 19.95 -0.3 21.5 3.45 22.55 11.0 24.6 17.75 20.75 13.85 25.1 8.05 24.7 L-14.05 23.25 Q-16.95 23.1 -19.5 22.1 -20.65 21.15 -22.1 20.6 L-22.95 20.15 Q-24.4 19.3 -25.35 17.85 -26.1 16.7 -26.45 15.55 M16.3 6.6 L15.8 6.8 Q15.55 7.0 15.55 7.35 L15.8 7.9 16.3 8.1 16.85 7.9 17.05 7.35 16.85 6.8 16.3 6.6 M18.25 3.6 L18.75 3.45 18.95 2.95 18.75 2.5 18.25 2.3 Q17.95 2.3 17.8 2.5 L17.6 2.95 17.8 3.45 18.25 3.6 M20.85 8.65 L21.1 8.0 20.85 7.4 Q20.55 7.1 20.2 7.1 19.8 7.1 19.55 7.4 L19.3 8.0 Q19.3 8.4 19.55 8.65 L20.2 8.9 20.85 8.65 M22.1 3.55 L22.25 3.35 Q22.45 2.35 21.7 1.75 L21.35 1.7 20.85 1.9 20.45 2.45 21.15 3.7 22.1 3.55" fill="#a88b69" fill-rule="evenodd" stroke="none"/>
      <path d="M4.6 -15.75 L4.5 -15.65 Q2.0 -14.9 1.15 -12.3 L0.95 -11.6 Q-0.1 -14.9 1.85 -17.8 L2.85 -18.0 4.6 -15.75 M-20.55 4.25 Q-22.2 4.75 -23.55 5.85 L-24.55 6.8 -24.55 6.65 -24.75 7.0 -24.8 7.1 -24.8 7.15 Q-26.25 8.35 -27.25 10.15 L-27.25 10.35 -27.25 10.45 -27.4 10.6 -27.45 10.7 -27.5 10.85 -29.45 9.7 Q-34.65 5.85 -37.25 0.3 -38.0 -1.25 -38.35 -2.9 -39.55 -8.85 -37.85 -14.15 L-37.7 -14.55 -36.45 -17.45 -36.55 -17.45 -34.2 -21.4 Q-31.05 -25.7 -26.15 -27.85 L-26.15 -27.8 -25.55 -28.1 -25.0 -28.35 -24.95 -28.45 Q-21.15 -30.3 -16.55 -30.2 -7.6 -29.5 -0.55 -24.05 L-1.45 -24.1 -2.1 -23.35 Q-4.25 -20.65 -2.7 -17.6 -2.35 -14.65 -3.0 -11.85 -3.3 -10.7 -4.5 -10.75 -5.9 -11.85 -6.65 -13.5 L-8.25 -16.8 -10.65 -21.6 Q-12.5 -25.25 -16.35 -26.0 -19.75 -26.55 -21.65 -24.7 L-22.5 -23.7 -22.6 -23.85 -22.65 -23.8 -22.8 -23.65 Q-23.6 -22.3 -24.2 -20.45 L-24.3 -20.25 -24.55 -19.35 -24.55 -19.15 -24.65 -18.8 -24.55 -18.75 -24.8 -16.85 Q-25.6 -7.65 -22.0 1.05 L-20.55 4.25 M-25.25 -19.15 L-25.3 -18.55 -25.15 -19.1 -25.25 -19.15 M-25.7 -8.05 L-25.6 -8.05 -25.65 -8.15 -25.7 -8.05 -25.8 -9.6 -25.8 -7.9 -25.7 -8.05" fill="#0db5c8" fill-rule="evenodd" stroke="none"/>
      <path d="M4.0 -18.2 L3.8 -18.1 2.5 -19.0 Q-0.3 -17.95 -0.1 -14.6 0.3 -8.2 2.4 -2.25 3.5 0.95 3.1 4.45 0.65 5.7 -1.9 5.9 -3.9 6.05 -5.65 5.4 -12.95 2.9 -20.55 4.25 L-22.0 1.05 Q-25.6 -7.65 -24.8 -16.85 L-24.55 -18.75 -24.65 -18.8 -24.55 -19.15 -24.55 -19.35 -24.3 -20.25 -24.2 -20.45 Q-23.6 -22.3 -22.8 -23.65 L-22.65 -23.8 -22.6 -23.85 -22.5 -23.7 -21.65 -24.7 Q-19.75 -26.55 -16.35 -26.0 -12.5 -25.25 -10.65 -21.6 L-8.25 -16.8 -6.65 -13.5 Q-5.9 -11.85 -4.5 -10.75 -3.3 -10.7 -3.0 -11.85 -2.35 -14.65 -2.7 -17.6 L-2.2 -16.9 -2.3 -17.55 -2.15 -17.75 Q-2.65 -20.8 -1.05 -23.25 L-0.4 -23.45 -0.25 -23.8 -0.25 -23.85 1.25 -22.25 Q2.9 -20.4 4.0 -18.2" fill="#0ecfe4" fill-rule="evenodd" stroke="none"/>
      <path d="M-24.55 6.8 L-24.55 6.95 -24.8 7.15 -24.8 7.1 -24.75 7.0 -24.55 6.65 -24.55 6.8 M17.65 -5.65 Q17.1 -7.15 18.25 -8.65 20.3 -11.5 23.95 -11.35 26.9 -11.2 29.0 -8.9 L29.5 -6.75 28.8 -6.6 Q26.35 -10.0 22.3 -9.25 L21.25 -8.9 Q19.35 -7.55 18.45 -5.6 L17.65 -5.65 M-25.25 -19.15 L-25.15 -19.1 -25.3 -18.55 -25.25 -19.15 M-25.7 -8.05 L-25.8 -7.9 -25.8 -9.6 -25.7 -8.05 M-37.65 29.0 L-37.65 29.05 -37.65 29.2 -37.65 29.0" fill="#999999" fill-rule="evenodd" stroke="none"/>
      <path d="M-24.55 8.3 L-22.9 6.75 -22.85 6.7 -20.9 5.65 -17.55 5.1 Q-11.2 4.7 -5.25 6.35 L-2.35 6.9 Q4.65 6.45 7.65 0.2 8.35 -1.3 8.55 -3.0 11.0 -5.25 14.4 -5.45 14.8 0.85 10.75 5.65 8.3 8.55 4.6 9.25 L0.2 9.7 -11.5 9.0 Q-18.1 8.25 -23.25 11.9 L-23.85 12.3 -23.85 12.2 -23.9 12.25 -25.4 13.65 Q-26.1 14.55 -26.45 15.55 -27.35 12.5 -25.45 9.35 L-24.55 8.35 -24.55 8.3" fill="#c19f79" fill-rule="evenodd" stroke="none"/>
    </g>
  </defs>
</svg>
