<?xml version="1.0" encoding="UTF-8" standalone="no"?>
<svg xmlns:xlink="http://www.w3.org/1999/xlink" height="177.2px" width="164.85px" xmlns="http://www.w3.org/2000/svg">
  <g transform="matrix(1.0, 0.0, 0.0, 1.0, 0.0, 0.0)">
    <use height="177.2" transform="matrix(1.0, 0.0, 0.0, 1.0, 0.0, 0.0)" width="164.85" xlink:href="#shape0"/>
    <clipPath id="clipPath0" transform="matrix(1.0, 0.0, 0.0, 1.0, 0.0, 0.0)">
      <use height="11.0" transform="matrix(1.0, 0.0, 0.0, 1.0, 3.9, 162.9)" width="157.0" xlink:href="#shape1"/>
    </clipPath>
    <g clip-path="url(#clipPath0)">
      <use height="11.0" id="bar" transform="matrix(1.0, 0.0, 0.0, 1.0, 3.9, 162.9)" width="1.0" xlink:href="#sprite0"/>
    </g>
    <use height="4.8" transform="matrix(1.0, 0.0, 0.0, 1.0, 76.05, 9.05)" width="11.95" xlink:href="#shape3"/>
  </g>
  <defs>
    <g id="shape0" transform="matrix(1.0, 0.0, 0.0, 1.0, 0.0, 0.0)">
      <path d="M3.9 167.9 Q4.35 163.35 8.9 162.9 L155.9 162.9 Q160.5 163.35 160.9 167.9 L160.9 168.9 Q160.5 173.45 155.9 173.9 L8.9 173.9 Q4.35 173.45 3.9 168.9 L3.9 167.9" fill="#000000" fill-rule="evenodd" stroke="none"/>
      <path d="M164.85 171.95 Q164.4 176.75 159.6 177.2 L5.25 177.2 Q0.45 176.75 0.0 171.95 L0.0 164.85 Q0.45 160.05 5.25 159.6 L159.6 159.6 Q164.4 160.05 164.85 164.85 L164.85 171.95 M3.9 167.9 L3.9 168.9 Q4.35 173.45 8.9 173.9 L155.9 173.9 Q160.5 173.45 160.9 168.9 L160.9 167.9 Q160.5 163.35 155.9 162.9 L8.9 162.9 Q4.35 163.35 3.9 167.9" fill="#ffffff" fill-rule="evenodd" stroke="none"/>
      <path d="M95.2 16.85 Q97.35 21.35 99.1 26.4 L99.2 26.35 102.05 30.5 101.05 31.1 127.55 47.6 126.95 48.6 130.25 70.4 127.5 104.5 126.05 104.3 125.4 108.0 124.4 107.85 127.3 112.5 117.35 121.3 109.45 114.9 110.9 112.8 110.3 108.65 114.05 106.1 113.95 102.8 112.55 102.55 113.3 98.65 127.5 100.3 129.45 70.55 126.3 50.2 113.9 72.75 113.05 74.6 116.05 89.05 116.05 89.2 113.45 98.05 115.25 88.7 112.85 75.3 110.35 103.9 103.75 103.9 99.8 146.9 103.95 148.8 103.55 152.2 82.4 151.95 61.25 152.2 60.85 148.8 65.0 146.85 60.85 104.0 54.7 104.2 52.5 75.5 50.55 89.55 51.6 103.15 50.25 103.4 50.15 106.7 53.9 109.25 53.25 113.4 54.7 115.5 46.85 121.9 36.9 113.1 39.8 108.45 38.75 108.6 38.15 104.9 36.7 105.1 34.55 70.35 37.85 48.6 37.25 47.55 64.7 31.05 63.75 30.5 65.8 26.7 Q66.55 22.2 67.8 17.85 L68.25 18.15 Q67.05 22.4 66.3 26.8 L66.35 26.85 72.9 28.5 82.85 31.05 90.15 28.95 98.6 26.55 98.65 26.5 96.8 21.7 94.75 17.1 95.2 16.85 M123.65 46.0 Q122.4 47.35 119.35 53.0 L114.7 61.8 Q115.15 61.5 115.9 61.4 117.65 61.6 117.75 63.0 117.65 64.4 115.9 64.6 114.15 64.4 114.05 63.05 L113.55 64.0 110.55 69.75 110.45 69.9 111.3 69.7 Q113.05 69.9 113.15 71.3 113.05 72.7 111.3 72.9 109.7 72.7 109.5 71.55 L102.7 83.05 112.65 72.95 Q113.55 71.15 116.6 65.7 L122.8 54.8 126.85 47.55 123.65 46.0 M100.4 30.25 L98.4 27.7 83.85 31.7 83.7 31.85 88.15 37.3 100.4 30.25 M81.65 36.9 Q81.75 37.65 82.7 37.75 83.7 37.65 83.8 36.9 83.7 36.1 82.7 36.05 81.75 36.1 81.65 36.9 M82.75 35.7 Q84.3 35.85 84.35 36.9 84.3 38.0 82.75 38.15 81.15 38.0 81.1 36.9 81.15 35.85 82.75 35.7 M87.75 38.75 L87.25 38.15 85.35 40.15 89.25 48.45 100.0 31.7 87.75 38.75 M84.7 47.75 Q84.6 49.0 82.8 49.2 81.0 49.0 80.9 47.75 81.0 46.55 82.8 46.35 84.6 46.55 84.7 47.75 M84.4 40.6 L82.55 40.55 80.9 40.6 Q78.1 48.7 77.9 48.7 L80.05 53.75 82.4 58.7 88.3 48.8 84.4 40.6 M81.55 47.8 Q81.65 48.7 82.8 48.8 83.95 48.7 84.05 47.8 83.95 46.9 82.8 46.8 81.65 46.9 81.55 47.8 M84.3 39.95 L86.45 37.65 82.9 32.85 79.2 37.8 80.9 40.0 84.3 39.95 M99.2 43.65 L99.15 43.95 106.95 43.95 107.5 35.75 107.0 35.45 107.15 35.95 Q107.1 36.8 106.0 36.95 104.85 36.8 104.8 35.95 104.85 35.1 106.0 34.95 L106.35 35.05 104.95 34.15 104.05 41.35 96.65 42.85 96.95 43.35 Q97.15 42.75 98.05 42.65 99.15 42.8 99.2 43.65 M98.05 44.35 Q98.75 44.25 98.8 43.65 98.75 43.0 98.05 42.95 97.3 43.0 97.25 43.65 97.3 44.25 98.05 44.35 M99.7 47.95 Q99.75 47.1 100.9 46.95 102.0 47.05 102.05 47.95 102.0 48.8 100.9 48.95 99.75 48.8 99.7 47.95 M98.05 44.65 L97.6 44.55 99.3 47.75 83.05 59.45 83.35 61.95 83.45 62.1 103.15 47.75 99.1 44.05 Q98.85 44.55 98.05 44.65 M100.1 47.95 Q100.15 48.55 100.9 48.65 101.6 48.55 101.65 47.95 101.6 47.3 100.9 47.25 100.15 47.3 100.1 47.95 M98.8 47.8 L96.1 42.75 103.7 41.05 104.35 33.85 100.6 31.9 84.25 57.9 98.8 47.8 M105.2 35.95 Q105.25 36.6 106.0 36.65 106.7 36.55 106.75 35.95 106.7 35.3 106.0 35.25 105.25 35.3 105.2 35.95 M104.9 41.35 Q106.0 41.5 106.05 42.35 106.0 43.2 104.9 43.35 103.75 43.2 103.7 42.35 103.75 41.5 104.9 41.35 M105.65 42.4 Q105.6 41.75 104.9 41.7 104.15 41.75 104.1 42.4 104.15 43.05 104.9 43.1 105.6 43.0 105.65 42.4 M108.1 36.6 L107.9 44.6 101.05 44.6 104.4 47.95 83.65 62.6 84.05 101.1 102.9 99.35 101.9 83.5 122.8 45.7 108.1 36.6 M120.05 57.6 Q118.3 57.4 118.2 56.0 118.3 54.6 120.05 54.4 121.8 54.6 121.9 56.0 121.8 57.4 120.05 57.6 M120.0 54.9 Q118.9 55.0 118.8 56.0 118.9 57.05 120.0 57.15 121.15 57.05 121.25 56.0 121.15 55.0 120.0 54.9 M105.35 60.0 L105.4 60.0 102.2 56.0 102.2 56.05 96.85 59.25 105.35 60.0 M108.75 60.3 L108.35 61.4 94.95 59.3 95.85 59.4 102.4 55.25 103.0 56.0 104.2 55.25 107.15 60.15 108.75 60.3 M104.2 55.85 L103.25 56.5 103.2 56.5 105.8 60.0 106.35 60.15 104.2 55.85 M110.05 71.25 Q110.15 72.3 111.25 72.4 112.4 72.3 112.5 71.25 112.35 70.25 111.25 70.15 110.15 70.25 110.05 71.25 M115.9 64.05 Q117.05 63.95 117.15 62.9 117.0 61.9 115.9 61.8 114.8 61.9 114.7 62.9 114.8 63.95 115.9 64.05 M93.0 53.2 Q93.05 53.8 93.8 53.9 94.5 53.8 94.55 53.2 94.5 52.55 93.8 52.5 93.05 52.55 93.0 53.2 M93.8 52.2 Q94.9 52.3 94.95 53.2 94.9 54.05 93.8 54.2 92.65 54.05 92.6 53.2 92.65 52.3 93.8 52.2 M86.35 59.3 Q86.3 60.15 85.2 60.3 84.05 60.15 84.0 59.3 84.05 58.45 85.2 58.3 86.3 58.45 86.35 59.3 M85.2 58.6 Q84.45 58.65 84.4 59.3 84.45 59.95 85.2 60.0 85.9 59.95 85.95 59.3 85.9 58.65 85.2 58.6 M83.05 68.05 Q83.0 68.9 81.85 69.0 80.7 68.9 80.65 68.05 80.7 67.25 81.85 67.15 83.0 67.25 83.05 68.05 M83.2 74.0 Q83.15 74.85 82.0 74.95 80.85 74.85 80.8 74.0 80.85 73.2 82.0 73.1 83.15 73.2 83.2 74.0 M81.05 68.1 Q81.1 68.7 81.85 68.75 82.55 68.7 82.6 68.1 82.55 67.5 81.85 67.45 81.1 67.5 81.05 68.1 M82.75 74.05 Q82.7 73.45 82.0 73.4 81.25 73.45 81.2 74.05 81.25 74.65 82.0 74.7 82.7 74.65 82.75 74.05 M83.05 63.5 L82.6 59.95 65.45 47.75 67.25 44.5 66.65 44.65 Q65.85 44.55 65.6 44.1 L61.4 47.9 83.05 63.5 M82.7 79.9 Q82.65 79.3 81.95 79.25 81.2 79.3 81.15 79.9 81.2 80.5 81.95 80.55 82.65 80.5 82.7 79.9 M83.15 79.85 Q83.1 80.7 81.95 80.8 80.8 80.7 80.75 79.85 80.8 79.05 81.95 78.95 83.1 79.05 83.15 79.85 M83.1 85.9 Q83.05 86.75 81.9 86.85 80.75 86.75 80.7 85.9 80.75 85.1 81.9 85.0 83.05 85.1 83.1 85.9 M81.95 85.3 Q81.2 85.35 81.15 85.95 81.2 86.55 81.95 86.6 82.65 86.55 82.7 85.95 82.65 85.35 81.95 85.3 M82.1 92.8 Q80.95 92.7 80.9 91.85 80.95 91.05 82.1 90.95 83.25 91.05 83.3 91.85 83.25 92.7 82.1 92.8 M82.1 91.25 Q81.35 91.3 81.3 91.9 81.35 92.5 82.1 92.55 82.8 92.5 82.9 91.9 82.8 91.3 82.1 91.25 M81.95 98.75 Q80.8 98.65 80.75 97.85 80.8 97.0 81.95 96.9 83.1 97.0 83.15 97.85 83.1 98.65 81.95 98.75 M82.7 97.8 Q82.65 97.2 81.95 97.15 81.2 97.2 81.15 97.8 81.2 98.4 81.95 98.45 82.65 98.4 82.7 97.8 M59.05 35.95 Q59.85 36.05 60.1 36.55 L59.8 34.15 57.25 35.75 57.85 43.95 65.5 43.95 65.45 43.65 Q65.5 42.8 66.65 42.65 67.65 42.8 67.8 43.5 L68.15 42.85 60.7 41.35 60.2 37.15 Q60.0 37.8 59.05 37.95 57.9 37.8 57.85 36.95 57.9 36.1 59.05 35.95 M42.05 49.05 Q41.95 48.05 40.8 47.95 39.7 48.05 39.6 49.05 39.7 50.1 40.8 50.2 41.9 50.1 42.05 49.05 M59.8 36.95 Q59.75 36.3 59.05 36.25 58.3 36.3 58.25 36.95 58.3 37.6 59.05 37.65 59.75 37.6 59.8 36.95 M42.65 49.1 Q42.55 50.5 40.8 50.7 39.8 50.6 39.35 50.1 L42.0 54.8 48.2 65.7 52.15 72.95 62.1 83.05 55.1 71.3 Q54.8 72.25 53.35 72.4 51.6 72.2 51.5 70.8 51.6 69.4 53.35 69.2 L54.0 69.35 51.25 64.0 50.55 62.65 Q50.45 64.05 48.7 64.25 46.95 64.05 46.85 62.65 46.95 61.25 48.7 61.05 49.5 61.15 49.95 61.5 L45.45 53.0 Q42.35 47.35 41.15 46.0 L37.95 47.55 39.05 49.55 38.95 49.1 Q39.05 47.7 40.8 47.5 42.55 47.7 42.65 49.1 M58.55 42.35 Q58.6 41.5 59.75 41.35 60.85 41.5 60.9 42.35 60.85 43.2 59.75 43.35 58.6 43.2 58.55 42.35 M59.0 42.4 Q59.05 43.0 59.8 43.1 60.5 43.05 60.55 42.4 60.5 41.75 59.8 41.7 59.05 41.75 59.0 42.4 M42.0 45.7 L62.9 83.5 61.9 99.35 79.7 100.6 80.3 62.35 60.2 47.85 64.0 44.55 56.9 44.6 56.7 36.6 42.0 45.7 M60.95 34.5 L61.1 41.05 68.65 42.7 66.0 47.75 81.15 57.85 67.65 32.75 65.6 31.6 60.95 34.5 M65.4 30.25 L77.65 37.3 82.2 31.75 66.65 28.05 65.4 30.25 M64.5 47.95 Q64.45 47.3 63.75 47.25 63.0 47.3 62.95 47.95 63.0 48.55 63.75 48.65 64.45 48.55 64.5 47.95 M64.9 47.95 Q64.85 48.8 63.75 48.95 62.6 48.8 62.55 47.95 62.6 47.05 63.75 46.95 64.85 47.1 64.9 47.95 M66.65 44.35 Q67.35 44.25 67.4 43.65 67.35 43.0 66.65 42.95 65.9 43.0 65.85 43.65 65.9 44.25 66.65 44.35 M78.05 38.75 L68.75 33.4 77.05 48.3 79.9 40.5 79.95 40.3 78.4 38.3 78.05 38.75 M50.1 99.7 L51.25 99.6 49.75 90.1 49.75 89.95 52.3 74.85 38.5 50.2 35.4 70.55 36.7 100.9 47.6 99.95 36.9 101.55 37.4 104.5 50.55 102.75 50.1 99.7 M72.7 53.35 Q73.8 53.45 73.85 54.35 73.8 55.2 72.7 55.35 71.55 55.2 71.5 54.35 71.55 53.45 72.7 53.35 M72.7 53.65 Q71.95 53.7 71.9 54.35 71.95 54.95 72.7 55.05 73.4 55.0 73.45 54.35 73.4 53.7 72.7 53.65 M80.15 58.65 Q81.25 58.8 81.3 59.65 81.25 60.5 80.15 60.65 79.0 60.5 78.95 59.65 79.0 58.75 80.15 58.65 M80.15 58.95 Q79.4 59.0 79.35 59.65 79.4 60.25 80.15 60.35 80.85 60.25 80.9 59.65 80.85 59.0 80.15 58.95 M42.9 56.0 Q43.0 54.6 44.75 54.4 46.5 54.6 46.6 56.0 46.5 57.4 44.75 57.6 43.0 57.4 42.9 56.0 M54.55 70.7 Q54.45 69.7 53.3 69.6 52.2 69.7 52.1 70.7 52.2 71.75 53.3 71.85 54.45 71.75 54.55 70.7 M47.5 62.55 Q47.6 63.6 48.7 63.7 49.8 63.6 49.95 62.55 49.85 61.55 48.7 61.45 47.6 61.55 47.5 62.55 M43.55 56.0 Q43.65 57.05 44.75 57.15 45.85 57.05 46.0 56.0 45.9 55.0 44.75 54.9 43.65 55.0 43.55 56.0 M75.15 102.55 Q74.4 102.6 74.35 103.2 74.4 103.8 75.15 103.85 75.85 103.8 75.95 103.2 75.85 102.6 75.15 102.55 M75.15 104.1 Q74.0 104.0 73.95 103.15 74.0 102.35 75.15 102.25 76.3 102.35 76.35 103.15 76.3 104.0 75.15 104.1 M68.6 102.0 Q67.85 102.05 67.8 102.65 67.85 103.25 68.6 103.3 69.3 103.25 69.35 102.65 69.3 102.05 68.6 102.0 M68.6 103.55 Q67.45 103.45 67.4 102.6 67.45 101.8 68.6 101.7 69.75 101.8 69.8 102.6 69.75 103.45 68.6 103.55 M64.75 102.05 Q64.7 102.85 63.55 102.95 62.4 102.85 62.35 102.05 62.4 101.2 63.55 101.1 64.7 101.2 64.75 102.05 M64.3 102.0 Q64.25 101.4 63.55 101.35 62.8 101.4 62.75 102.0 62.8 102.6 63.55 102.65 64.25 102.6 64.3 102.0 M61.25 103.35 L83.65 105.75 83.2 63.9 80.7 62.55 80.3 101.45 61.65 99.85 61.25 103.35 M49.7 101.55 Q49.65 100.7 48.7 100.6 47.8 100.65 47.7 101.55 47.8 102.4 48.7 102.45 49.65 102.35 49.7 101.55 M50.2 101.6 Q50.15 102.75 48.7 102.9 47.2 102.75 47.15 101.6 47.2 100.4 48.7 100.25 50.15 100.4 50.2 101.6 M43.95 100.9 Q45.4 101.05 45.45 102.25 45.4 103.4 43.95 103.55 42.45 103.4 42.4 102.25 42.45 101.05 43.95 100.9 M42.9 102.15 Q43.0 103.0 43.9 103.05 44.85 103.0 44.95 102.15 44.85 101.3 43.9 101.2 43.0 101.25 42.9 102.15 M49.3 103.65 L38.95 105.2 39.35 107.8 49.5 106.55 49.3 103.65 M40.8 108.5 L38.05 113.0 46.6 120.45 49.55 118.15 53.15 115.25 52.55 113.85 49.95 115.25 46.0 113.4 44.8 114.3 46.0 110.8 Q45.85 111.8 46.2 112.8 L50.15 113.85 52.35 113.1 53.15 110.15 48.8 107.25 40.8 108.5 M67.6 142.8 Q66.7 142.9 66.6 143.75 66.7 144.6 67.6 144.65 68.55 144.6 68.6 143.75 68.55 142.9 67.6 142.8 M67.6 142.45 Q69.05 142.6 69.1 143.8 69.05 144.95 67.6 145.1 66.1 144.95 66.05 143.8 66.1 142.6 67.6 142.45 M65.85 141.9 L65.85 146.65 72.25 144.0 Q71.6 143.65 71.55 142.9 71.6 141.7 73.1 141.55 74.55 141.7 74.65 142.9 74.55 144.0 73.25 144.2 L81.75 148.1 81.6 141.75 73.4 141.2 65.85 141.9 M78.25 144.15 Q78.35 145.0 79.25 145.05 80.2 145.0 80.25 144.15 80.2 143.3 79.25 143.2 78.35 143.25 78.25 144.15 M73.1 143.75 Q74.05 143.65 74.1 142.85 74.05 142.0 73.1 141.9 72.2 141.95 72.1 142.85 72.2 143.7 73.1 143.75 M80.8 144.2 Q80.7 145.35 79.25 145.5 77.75 145.35 77.7 144.2 77.75 143.0 79.25 142.85 80.7 143.0 80.8 144.2 M65.65 141.25 L73.75 140.75 82.0 141.1 81.8 106.7 61.5 104.3 65.65 141.25 M38.85 103.7 Q39.8 103.65 39.85 102.8 39.8 101.95 38.85 101.85 37.95 101.9 37.85 102.8 37.95 103.65 38.85 103.7 M38.85 104.15 Q37.35 104.0 37.3 102.85 37.35 101.65 38.85 101.5 40.3 101.65 40.35 102.85 40.3 104.0 38.85 104.15 M61.7 150.0 L81.7 149.45 81.7 148.85 72.4 144.8 61.5 148.7 61.7 150.0 M126.75 103.9 L127.25 100.95 125.85 100.75 Q126.6 101.05 126.65 101.9 126.55 103.05 125.1 103.2 123.6 103.05 123.55 101.9 123.6 100.8 124.85 100.6 L114.1 98.95 113.6 102.15 126.75 103.9 M125.1 100.9 Q124.2 101.0 124.1 101.85 124.2 102.7 125.1 102.75 126.05 102.7 126.1 101.85 126.05 100.95 125.1 100.9 M124.8 107.15 L125.2 104.5 114.85 103.0 114.65 105.9 124.8 107.15 M126.1 112.4 L123.35 107.9 115.4 106.65 111.0 109.55 111.8 112.5 114.0 113.25 117.95 112.2 Q118.3 111.2 118.15 110.2 118.6 112.0 119.35 113.7 119.1 113.25 118.15 112.8 L114.2 114.65 111.6 113.25 111.0 114.65 114.6 117.55 117.55 119.85 126.1 112.4 M120.35 100.4 Q119.45 100.5 119.35 101.35 119.45 102.15 120.35 102.25 121.3 102.2 121.4 101.35 121.3 100.45 120.35 100.4 M115.6 102.1 Q114.1 101.95 114.05 100.8 114.1 99.6 115.6 99.45 117.05 99.6 117.15 100.8 117.05 101.95 115.6 102.1 M120.4 102.75 Q118.9 102.6 118.85 101.45 118.9 100.25 120.4 100.1 121.85 100.25 121.95 101.45 121.85 102.6 120.4 102.75 M114.6 100.75 Q114.7 101.6 115.6 101.65 116.55 101.6 116.6 100.75 116.55 99.85 115.6 99.8 114.7 99.9 114.6 100.75 M100.75 102.6 Q99.6 102.5 99.55 101.65 99.6 100.85 100.75 100.75 101.9 100.85 101.95 101.65 101.9 102.5 100.75 102.6 M103.5 103.35 L103.1 99.85 84.05 101.55 84.05 102.75 Q84.45 102.95 84.5 103.45 84.45 104.0 84.05 104.25 L84.05 105.5 103.5 103.35 M99.95 101.65 Q100.0 102.25 100.75 102.3 101.45 102.25 101.5 101.65 101.45 101.05 100.75 101.0 100.0 101.05 99.95 101.65 M92.95 102.35 Q93.0 101.55 94.15 101.45 95.3 101.55 95.35 102.35 95.3 103.2 94.15 103.3 93.0 103.2 92.95 102.35 M94.15 101.75 Q93.4 101.8 93.35 102.4 93.4 103.0 94.15 103.05 94.85 103.0 94.9 102.4 94.85 101.8 94.15 101.75 M87.1 102.35 Q88.25 102.45 88.3 103.25 88.25 104.1 87.1 104.2 85.95 104.1 85.9 103.25 85.95 102.45 87.1 102.35 M87.1 102.6 Q86.35 102.65 86.3 103.25 86.35 103.85 87.1 103.9 87.8 103.85 87.85 103.25 87.8 102.65 87.1 102.6 M81.3 104.4 Q82.0 104.35 82.05 103.75 82.0 103.15 81.3 103.1 80.55 103.15 80.5 103.75 80.55 104.35 81.3 104.4 M82.5 103.75 Q82.45 104.6 81.3 104.7 80.15 104.6 80.1 103.75 80.15 103.0 81.3 102.85 82.45 102.95 82.5 103.75 M84.05 103.75 L84.1 103.5 84.05 103.25 84.05 103.75 M83.55 144.2 Q83.6 143.0 85.1 142.85 86.55 143.0 86.65 144.2 86.55 145.35 85.1 145.5 83.6 145.35 83.55 144.2 M85.05 143.2 Q84.15 143.3 84.05 144.15 84.15 145.0 85.05 145.05 86.0 145.0 86.05 144.15 86.0 143.25 85.05 143.2 M90.05 144.2 Q88.55 144.05 88.5 142.9 88.55 141.7 90.05 141.55 91.5 141.7 91.6 142.9 91.5 144.05 90.05 144.2 M90.0 143.75 Q90.95 143.7 91.05 142.85 90.95 141.95 90.0 141.9 89.1 142.0 89.0 142.85 89.1 143.65 90.0 143.75 M91.05 140.75 L99.15 141.25 103.3 104.3 83.0 106.7 82.8 141.1 91.05 140.75 M88.2 143.85 L98.95 146.65 98.95 141.95 91.25 141.25 82.85 141.85 82.65 148.05 88.2 143.85 M98.25 144.15 Q98.2 145.3 96.75 145.45 95.25 145.3 95.2 144.15 95.25 142.95 96.75 142.8 98.2 142.95 98.25 144.15 M88.3 144.8 L82.75 148.45 82.75 149.6 103.1 150.0 103.3 148.7 88.3 144.8 M97.7 144.05 Q97.65 143.2 96.7 143.1 95.8 143.2 95.7 144.05 95.8 144.9 96.7 144.95 97.65 144.9 97.7 144.05" fill="#131311" fill-rule="evenodd" stroke="none"/>
      <path d="M123.65 46.0 L126.85 47.55 122.8 54.8 116.6 65.7 Q113.55 71.15 112.65 72.95 L102.7 83.05 109.5 71.55 Q109.7 72.7 111.3 72.9 113.05 72.7 113.15 71.3 113.05 69.9 111.3 69.7 L110.45 69.9 110.55 69.75 113.55 64.0 114.05 63.05 Q114.15 64.4 115.9 64.6 117.65 64.4 117.75 63.0 117.65 61.6 115.9 61.4 115.15 61.5 114.7 61.8 L119.35 53.0 Q122.4 47.35 123.65 46.0 M99.2 43.65 Q99.15 42.8 98.05 42.65 97.15 42.75 96.95 43.35 L96.65 42.85 104.05 41.35 104.95 34.15 106.35 35.05 106.0 34.95 Q104.85 35.1 104.8 35.95 104.85 36.8 106.0 36.95 107.1 36.8 107.15 35.95 L107.0 35.45 107.5 35.75 106.95 43.95 99.15 43.95 99.2 43.65 M98.05 44.65 Q98.85 44.55 99.1 44.05 L103.15 47.75 83.45 62.1 83.35 61.95 83.05 59.45 99.3 47.75 97.6 44.55 98.05 44.65 M99.7 47.95 Q99.75 48.8 100.9 48.95 102.0 48.8 102.05 47.95 102.0 47.05 100.9 46.95 99.75 47.1 99.7 47.95 M104.9 41.35 Q103.75 41.5 103.7 42.35 103.75 43.2 104.9 43.35 106.0 43.2 106.05 42.35 106.0 41.5 104.9 41.35 M120.05 57.6 Q121.8 57.4 121.9 56.0 121.8 54.6 120.05 54.4 118.3 54.6 118.2 56.0 118.3 57.4 120.05 57.6 M93.8 52.2 Q92.65 52.3 92.6 53.2 92.65 54.05 93.8 54.2 94.9 54.05 94.95 53.2 94.9 52.3 93.8 52.2 M86.35 59.3 Q86.3 58.45 85.2 58.3 84.05 58.45 84.0 59.3 84.05 60.15 85.2 60.3 86.3 60.15 86.35 59.3 M83.2 74.0 Q83.15 73.2 82.0 73.1 80.85 73.2 80.8 74.0 80.85 74.85 82.0 74.95 83.15 74.85 83.2 74.0 M83.05 68.05 Q83.0 67.25 81.85 67.15 80.7 67.25 80.65 68.05 80.7 68.9 81.85 69.0 83.0 68.9 83.05 68.05 M83.05 63.5 L61.4 47.9 65.6 44.1 Q65.85 44.55 66.65 44.65 L67.25 44.5 65.45 47.75 82.6 59.95 83.05 63.5 M83.1 85.9 Q83.05 85.1 81.9 85.0 80.75 85.1 80.7 85.9 80.75 86.75 81.9 86.85 83.05 86.75 83.1 85.9 M83.15 79.85 Q83.1 79.05 81.95 78.95 80.8 79.05 80.75 79.85 80.8 80.7 81.95 80.8 83.1 80.7 83.15 79.85 M82.1 92.8 Q83.25 92.7 83.3 91.85 83.25 91.05 82.1 90.95 80.95 91.05 80.9 91.85 80.95 92.7 82.1 92.8 M81.95 98.75 Q83.1 98.65 83.15 97.85 83.1 97.0 81.95 96.9 80.8 97.0 80.75 97.85 80.8 98.65 81.95 98.75 M59.05 35.95 Q57.9 36.1 57.85 36.95 57.9 37.8 59.05 37.95 60.0 37.8 60.2 37.15 L60.7 41.35 68.15 42.85 67.8 43.5 Q67.65 42.8 66.65 42.65 65.5 42.8 65.45 43.65 L65.5 43.95 57.85 43.95 57.25 35.75 59.8 34.15 60.1 36.55 Q59.85 36.05 59.05 35.95 M58.55 42.35 Q58.6 43.2 59.75 43.35 60.85 43.2 60.9 42.35 60.85 41.5 59.75 41.35 58.6 41.5 58.55 42.35 M42.65 49.1 Q42.55 47.7 40.8 47.5 39.05 47.7 38.95 49.1 L39.05 49.55 37.95 47.55 41.15 46.0 Q42.35 47.35 45.45 53.0 L49.95 61.5 Q49.5 61.15 48.7 61.05 46.95 61.25 46.85 62.65 46.95 64.05 48.7 64.25 50.45 64.05 50.55 62.65 L51.25 64.0 54.0 69.35 53.35 69.2 Q51.6 69.4 51.5 70.8 51.6 72.2 53.35 72.4 54.8 72.25 55.1 71.3 L62.1 83.05 52.15 72.95 48.2 65.7 42.0 54.8 39.35 50.1 Q39.8 50.6 40.8 50.7 42.55 50.5 42.65 49.1 M64.9 47.95 Q64.85 47.1 63.75 46.95 62.6 47.05 62.55 47.95 62.6 48.8 63.75 48.95 64.85 48.8 64.9 47.95 M47.6 99.95 L50.05 99.55 50.1 99.7 50.55 102.75 37.4 104.5 36.9 101.55 47.6 99.95 M72.7 53.35 Q71.55 53.45 71.5 54.35 71.55 55.2 72.7 55.35 73.8 55.2 73.85 54.35 73.8 53.45 72.7 53.35 M80.15 58.65 Q79.0 58.75 78.95 59.65 79.0 60.5 80.15 60.65 81.25 60.5 81.3 59.65 81.25 58.8 80.15 58.65 M42.9 56.0 Q43.0 57.4 44.75 57.6 46.5 57.4 46.6 56.0 46.5 54.6 44.75 54.4 43.0 54.6 42.9 56.0 M75.15 104.1 Q76.3 104.0 76.35 103.15 76.3 102.35 75.15 102.25 74.0 102.35 73.95 103.15 74.0 104.0 75.15 104.1 M64.75 102.05 Q64.7 101.2 63.55 101.1 62.4 101.2 62.35 102.05 62.4 102.85 63.55 102.95 64.7 102.85 64.75 102.05 M68.6 103.55 Q69.75 103.45 69.8 102.6 69.75 101.8 68.6 101.7 67.45 101.8 67.4 102.6 67.45 103.45 68.6 103.55 M61.25 103.35 L61.65 99.85 80.3 101.45 80.7 62.55 83.2 63.9 83.65 105.75 61.25 103.35 M43.95 100.9 Q42.45 101.05 42.4 102.25 42.45 103.4 43.95 103.55 45.4 103.4 45.45 102.25 45.4 101.05 43.95 100.9 M50.2 101.6 Q50.15 100.4 48.7 100.25 47.2 100.4 47.15 101.6 47.2 102.75 48.7 102.9 50.15 102.75 50.2 101.6 M67.6 142.45 Q66.1 142.6 66.05 143.8 66.1 144.95 67.6 145.1 69.05 144.95 69.1 143.8 69.05 142.6 67.6 142.45 M65.85 141.9 L73.4 141.2 81.6 141.75 81.75 148.1 73.25 144.2 Q74.55 144.0 74.65 142.9 74.55 141.7 73.1 141.55 71.6 141.7 71.55 142.9 71.6 143.65 72.25 144.0 L65.85 146.65 65.85 141.9 M80.8 144.2 Q80.7 143.0 79.25 142.85 77.75 143.0 77.7 144.2 77.75 145.35 79.25 145.5 80.7 145.35 80.8 144.2 M61.7 150.0 L61.5 148.7 72.4 144.8 81.7 148.85 81.7 149.45 61.7 150.0 M38.85 104.15 Q40.3 104.0 40.35 102.85 40.3 101.65 38.85 101.5 37.35 101.65 37.3 102.85 37.35 104.0 38.85 104.15 M126.75 103.9 L113.6 102.15 114.1 98.95 124.85 100.6 Q123.6 100.8 123.55 101.9 123.6 103.05 125.1 103.2 126.55 103.05 126.65 101.9 126.6 101.05 125.85 100.75 L127.25 100.95 126.75 103.9 M120.4 102.75 Q121.85 102.6 121.95 101.45 121.85 100.25 120.4 100.1 118.9 100.25 118.85 101.45 118.9 102.6 120.4 102.75 M115.6 102.1 Q117.05 101.95 117.15 100.8 117.05 99.6 115.6 99.45 114.1 99.6 114.05 100.8 114.1 101.95 115.6 102.1 M103.5 103.35 L84.05 105.5 84.05 104.25 Q84.45 104.0 84.5 103.45 84.45 102.95 84.05 102.75 L84.05 101.55 103.1 99.85 103.5 103.35 M100.75 102.6 Q101.9 102.5 101.95 101.65 101.9 100.85 100.75 100.75 99.6 100.85 99.55 101.65 99.6 102.5 100.75 102.6 M92.95 102.35 Q93.0 103.2 94.15 103.3 95.3 103.2 95.35 102.35 95.3 101.55 94.15 101.45 93.0 101.55 92.95 102.35 M87.1 102.35 Q85.95 102.45 85.9 103.25 85.95 104.1 87.1 104.2 88.25 104.1 88.3 103.25 88.25 102.45 87.1 102.35 M82.5 103.75 Q82.45 102.95 81.3 102.85 80.15 103.0 80.1 103.75 80.15 104.6 81.3 104.7 82.45 104.6 82.5 103.75 M83.55 144.2 Q83.6 145.35 85.1 145.5 86.55 145.35 86.65 144.2 86.55 143.0 85.1 142.85 83.6 143.0 83.55 144.2 M90.05 144.2 Q91.5 144.05 91.6 142.9 91.5 141.7 90.05 141.55 88.55 141.7 88.5 142.9 88.55 144.05 90.05 144.2 M88.2 143.85 L82.65 148.05 82.85 141.85 91.25 141.25 98.95 141.95 98.95 146.65 88.2 143.85 M88.3 144.8 L103.3 148.7 103.1 150.0 82.75 149.6 82.75 148.45 88.3 144.8 M98.25 144.15 Q98.2 142.95 96.75 142.8 95.25 142.95 95.2 144.15 95.25 145.3 96.75 145.45 98.2 145.3 98.25 144.15" fill="#171e16" fill-rule="evenodd" stroke="none"/>
      <path d="M95.2 16.85 L94.75 17.1 Q92.95 17.9 90.6 18.1 L87.6 17.5 Q86.0 16.35 84.8 16.05 83.15 14.75 82.35 12.65 84.45 16.7 90.2 17.2 92.55 17.0 94.35 16.2 L94.8 15.95 Q98.6 13.9 99.15 8.6 L98.45 5.5 Q99.3 7.2 99.55 9.5 99.0 14.8 95.2 16.85" fill="#afaaaa" fill-rule="evenodd" stroke="none"/>
      <path d="M98.45 5.5 L99.15 8.6 Q98.6 13.9 94.8 15.95 L94.35 16.2 Q92.55 17.0 90.2 17.2 84.45 16.7 82.35 12.65 81.5 10.9 81.25 8.6 81.5 6.0 82.6 4.15 83.55 2.5 85.15 1.55 L85.65 1.25 Q87.5 0.25 90.2 0.0 96.55 0.55 98.45 5.5 M84.8 16.05 Q86.0 16.35 87.6 17.5 L89.35 18.95 Q92.45 21.7 93.25 23.5 L93.5 24.2 Q91.1 22.45 88.3 21.8 L85.5 21.4 Q82.95 21.35 81.2 21.45 79.45 21.55 77.0 22.45 74.9 23.25 73.05 24.35 L69.55 26.85 69.65 26.15 Q70.55 22.15 73.0 19.35 L74.05 18.25 72.2 18.55 Q66.8 18.05 65.1 13.95 64.5 12.6 64.35 10.9 65.05 3.9 72.2 3.25 L73.2 3.4 73.75 3.5 Q75.05 3.75 76.1 4.3 78.75 5.7 79.65 8.75 L80.05 10.9 Q79.75 14.1 78.05 16.0 L78.75 16.35 80.6 16.75 84.3 15.95 84.8 16.05 M85.95 1.65 L85.5 1.95 Q82.25 3.9 81.8 8.55 82.5 15.95 90.2 16.6 92.4 16.4 94.05 15.65 L94.5 15.4 Q98.1 13.45 98.6 8.55 97.85 1.2 90.2 0.5 87.7 0.75 85.95 1.65 M73.1 23.7 Q74.8 22.75 76.8 21.95 79.3 21.05 81.1 20.9 82.9 20.8 85.5 20.85 L88.1 21.15 Q90.35 21.65 92.3 22.85 90.95 21.0 88.35 18.8 L87.1 17.85 Q85.4 16.6 84.3 16.5 L80.6 17.3 78.4 16.8 77.65 16.45 75.4 17.85 73.85 19.25 73.5 19.6 Q71.35 22.05 70.35 25.5 71.6 24.55 73.1 23.7 M76.9 5.45 L76.0 4.85 Q74.9 4.25 73.5 4.0 L72.95 3.9 72.2 3.8 Q66.55 4.3 65.25 9.1 65.0 9.95 64.9 10.9 65.55 17.4 72.2 18.0 L75.1 17.35 Q76.2 16.5 77.5 15.8 79.2 14.05 79.5 10.9 79.15 7.25 76.9 5.45" fill="#000000" fill-rule="evenodd" stroke="none"/>
      <path d="M94.75 17.1 L96.8 21.7 98.6 26.55 90.15 28.95 88.3 21.8 Q91.1 22.45 93.5 24.2 L93.25 23.5 Q92.45 21.7 89.35 18.95 L87.6 17.5 90.6 18.1 Q92.95 17.9 94.75 17.1 M68.25 18.15 L67.8 17.85 Q65.85 16.45 65.1 13.95 66.8 18.05 72.2 18.55 L74.05 18.25 73.0 19.35 72.5 19.4 Q69.95 19.15 68.3 18.15 L68.25 18.15 M79.65 8.75 Q80.2 10.05 80.35 11.75 80.05 14.55 78.75 16.35 L78.05 16.0 Q79.75 14.1 80.05 10.9 L79.65 8.75 M88.1 21.15 L87.1 17.85 88.35 18.8 Q90.95 21.0 92.3 22.85 90.35 21.65 88.1 21.15 M78.4 16.8 Q76.75 18.65 73.85 19.25 L75.4 17.85 77.65 16.45 78.4 16.8" fill="#c6bebe" fill-rule="evenodd" stroke="none"/>
      <path d="M85.95 1.65 Q87.7 0.75 90.2 0.5 97.85 1.2 98.6 8.55 98.1 13.45 94.5 15.4 L94.05 15.65 Q92.4 16.4 90.2 16.6 82.5 15.95 81.8 8.55 82.25 3.9 85.5 1.95 L85.95 1.65 M76.9 5.45 Q79.15 7.25 79.5 10.9 79.2 14.05 77.5 15.8 76.2 16.5 75.1 17.35 L72.2 18.0 Q65.55 17.4 64.9 10.9 65.0 9.95 65.25 9.1 66.55 4.3 72.2 3.8 L72.95 3.9 73.5 4.0 Q74.9 4.25 76.0 4.85 L76.9 5.45" fill="#c3deda" fill-rule="evenodd" stroke="none"/>
      <path d="M96.8 21.7 L98.65 26.5 98.6 26.55 96.8 21.7 M90.15 28.95 L82.85 31.05 72.9 28.5 73.05 24.35 Q74.9 23.25 77.0 22.45 79.45 21.55 81.2 21.45 82.95 21.35 85.5 21.4 L88.3 21.8 90.15 28.95 M82.35 12.65 Q83.15 14.75 84.8 16.05 L84.3 15.95 80.6 16.75 78.75 16.35 Q80.05 14.55 80.35 11.75 80.2 10.05 79.65 8.75 78.75 5.7 76.1 4.3 L76.85 0.85 82.5 0.7 84.55 0.75 85.15 1.55 84.55 0.75 82.5 0.7 76.85 0.85 76.85 0.8 74.95 1.05 73.75 3.5 73.2 3.4 74.5 0.8 74.9 0.55 84.6 0.25 85.0 0.45 85.65 1.25 85.15 1.55 Q83.55 2.5 82.6 4.15 81.5 6.0 81.25 8.6 81.5 10.9 82.35 12.65 M82.6 4.15 L81.45 0.7 82.5 0.7 81.45 0.7 82.6 4.15 M88.1 21.15 L85.5 20.85 Q82.9 20.8 81.1 20.9 79.3 21.05 76.8 21.95 74.8 22.75 73.1 23.7 L73.5 19.6 73.85 19.25 Q76.75 18.65 78.4 16.8 L80.6 17.3 84.3 16.5 Q85.4 16.6 87.1 17.85 L88.1 21.15 M40.8 108.5 L48.8 107.25 53.15 110.15 52.35 113.1 50.15 113.85 46.2 112.8 Q45.85 111.8 46.0 110.8 L44.8 114.3 46.0 113.4 49.95 115.25 52.55 113.85 53.15 115.25 49.55 118.15 46.6 120.45 38.05 113.0 40.8 108.5 M126.1 112.4 L117.55 119.85 114.6 117.55 111.0 114.65 111.6 113.25 114.2 114.65 118.15 112.8 Q119.1 113.25 119.35 113.7 118.6 112.0 118.15 110.2 118.3 111.2 117.95 112.2 L114.0 113.25 111.8 112.5 111.0 109.55 115.4 106.65 123.35 107.9 126.1 112.4" fill="#eee5e3" fill-rule="evenodd" stroke="none"/>
      <path d="M100.4 30.25 L88.15 37.3 83.7 31.85 83.85 31.7 98.4 27.7 100.4 30.25 M81.65 36.9 Q81.75 36.1 82.7 36.05 83.7 36.1 83.8 36.9 83.7 37.65 82.7 37.75 81.75 37.65 81.65 36.9 M87.75 38.75 L100.0 31.7 89.25 48.45 85.35 40.15 87.25 38.15 87.75 38.75 M81.55 47.8 Q81.65 46.9 82.8 46.8 83.95 46.9 84.05 47.8 83.95 48.7 82.8 48.8 81.65 48.7 81.55 47.8 M98.05 44.35 Q97.3 44.25 97.25 43.65 97.3 43.0 98.05 42.95 98.75 43.0 98.8 43.65 98.75 44.25 98.05 44.35 M100.1 47.95 Q100.15 47.3 100.9 47.25 101.6 47.3 101.65 47.95 101.6 48.55 100.9 48.65 100.15 48.55 100.1 47.95 M105.2 35.95 Q105.25 35.3 106.0 35.25 106.7 35.3 106.75 35.95 106.7 36.55 106.0 36.65 105.25 36.6 105.2 35.95 M105.65 42.4 Q105.6 43.0 104.9 43.1 104.15 43.05 104.1 42.4 104.15 41.75 104.9 41.7 105.6 41.75 105.65 42.4 M120.0 54.9 Q121.15 55.0 121.25 56.0 121.15 57.05 120.0 57.15 118.9 57.05 118.8 56.0 118.9 55.0 120.0 54.9 M105.35 60.0 L96.85 59.25 102.2 56.05 105.35 60.0 M93.0 53.2 Q93.05 52.55 93.8 52.5 94.5 52.55 94.55 53.2 94.5 53.8 93.8 53.9 93.05 53.8 93.0 53.2 M115.9 64.05 Q114.8 63.95 114.7 62.9 114.8 61.9 115.9 61.8 117.0 61.9 117.15 62.9 117.05 63.95 115.9 64.05 M110.05 71.25 Q110.15 70.25 111.25 70.15 112.35 70.25 112.5 71.25 112.4 72.3 111.25 72.4 110.15 72.3 110.05 71.25 M85.2 58.6 Q85.9 58.65 85.95 59.3 85.9 59.95 85.2 60.0 84.45 59.95 84.4 59.3 84.45 58.65 85.2 58.6 M82.75 74.05 Q82.7 74.65 82.0 74.7 81.25 74.65 81.2 74.05 81.25 73.45 82.0 73.4 82.7 73.45 82.75 74.05 M81.05 68.1 Q81.1 67.5 81.85 67.45 82.55 67.5 82.6 68.1 82.55 68.7 81.85 68.75 81.1 68.7 81.05 68.1 M82.7 79.9 Q82.65 80.5 81.95 80.55 81.2 80.5 81.15 79.9 81.2 79.3 81.95 79.25 82.65 79.3 82.7 79.9 M81.95 85.3 Q82.65 85.35 82.7 85.95 82.65 86.55 81.95 86.6 81.2 86.55 81.15 85.95 81.2 85.35 81.95 85.3 M87.95 88.75 L100.05 89.5 88.15 89.35 87.95 88.75 M82.1 91.25 Q82.8 91.3 82.9 91.9 82.8 92.5 82.1 92.55 81.35 92.5 81.3 91.9 81.35 91.3 82.1 91.25 M82.7 97.8 Q82.65 98.4 81.95 98.45 81.2 98.4 81.15 97.8 81.2 97.2 81.95 97.15 82.65 97.2 82.7 97.8 M59.8 36.95 Q59.75 37.6 59.05 37.65 58.3 37.6 58.25 36.95 58.3 36.3 59.05 36.25 59.75 36.3 59.8 36.95 M42.05 49.05 Q41.9 50.1 40.8 50.2 39.7 50.1 39.6 49.05 39.7 48.05 40.8 47.95 41.95 48.05 42.05 49.05 M59.0 42.4 Q59.05 41.75 59.8 41.7 60.5 41.75 60.55 42.4 60.5 43.05 59.8 43.1 59.05 43.0 59.0 42.4 M65.4 30.25 L66.65 28.05 82.2 31.75 77.65 37.3 65.4 30.25 M64.5 47.95 Q64.45 48.55 63.75 48.65 63.0 48.55 62.95 47.95 63.0 47.3 63.75 47.25 64.45 47.3 64.5 47.95 M66.65 44.35 Q65.9 44.25 65.85 43.65 65.9 43.0 66.65 42.95 67.35 43.0 67.4 43.65 67.35 44.25 66.65 44.35 M78.05 38.75 L78.4 38.3 79.95 40.3 79.9 40.5 77.05 48.3 68.75 33.4 78.05 38.75 M72.7 53.65 Q73.4 53.7 73.45 54.35 73.4 55.0 72.7 55.05 71.95 54.95 71.9 54.35 71.95 53.7 72.7 53.65 M80.15 58.95 Q80.85 59.0 80.9 59.65 80.85 60.25 80.15 60.35 79.4 60.25 79.35 59.65 79.4 59.0 80.15 58.95 M43.55 56.0 Q43.65 55.0 44.75 54.9 45.9 55.0 46.0 56.0 45.85 57.05 44.75 57.15 43.65 57.05 43.55 56.0 M47.5 62.55 Q47.6 61.55 48.7 61.45 49.85 61.55 49.95 62.55 49.8 63.6 48.7 63.7 47.6 63.6 47.5 62.55 M54.55 70.7 Q54.45 71.75 53.3 71.85 52.2 71.75 52.1 70.7 52.2 69.7 53.3 69.6 54.45 69.7 54.55 70.7 M64.75 89.5 L76.85 88.75 76.65 89.35 64.75 89.5 M75.15 102.55 Q75.85 102.6 75.95 103.2 75.85 103.8 75.15 103.85 74.4 103.8 74.35 103.2 74.4 102.6 75.15 102.55 M68.6 102.0 Q69.3 102.05 69.35 102.65 69.3 103.25 68.6 103.3 67.85 103.25 67.8 102.65 67.85 102.05 68.6 102.0 M64.3 102.0 Q64.25 102.6 63.55 102.65 62.8 102.6 62.75 102.0 62.8 101.4 63.55 101.35 64.25 101.4 64.3 102.0 M49.7 101.55 Q49.65 102.35 48.7 102.45 47.8 102.4 47.7 101.55 47.8 100.65 48.7 100.6 49.65 100.7 49.7 101.55 M42.9 102.15 Q43.0 101.25 43.9 101.2 44.85 101.3 44.95 102.15 44.85 103.0 43.9 103.05 43.0 103.0 42.9 102.15 M49.3 103.65 L49.5 106.55 39.35 107.8 38.95 105.2 49.3 103.65 M67.6 142.8 Q68.55 142.9 68.6 143.75 68.55 144.6 67.6 144.65 66.7 144.6 66.6 143.75 66.7 142.9 67.6 142.8 M73.1 143.75 Q72.2 143.7 72.1 142.85 72.2 141.95 73.1 141.9 74.05 142.0 74.1 142.85 74.05 143.65 73.1 143.75 M78.25 144.15 Q78.35 143.25 79.25 143.2 80.2 143.3 80.25 144.15 80.2 145.0 79.25 145.05 78.35 145.0 78.25 144.15 M38.85 103.7 Q37.95 103.65 37.85 102.8 37.95 101.9 38.85 101.85 39.8 101.95 39.85 102.8 39.8 103.65 38.85 103.7 M125.1 100.9 Q126.05 100.95 126.1 101.85 126.05 102.7 125.1 102.75 124.2 102.7 124.1 101.85 124.2 101.0 125.1 100.9 M124.8 107.15 L114.65 105.9 114.85 103.0 125.2 104.5 124.8 107.15 M120.35 100.4 Q121.3 100.45 121.4 101.35 121.3 102.2 120.35 102.25 119.45 102.15 119.35 101.35 119.45 100.5 120.35 100.4 M114.6 100.75 Q114.7 99.9 115.6 99.8 116.55 99.85 116.6 100.75 116.55 101.6 115.6 101.65 114.7 101.6 114.6 100.75 M99.95 101.65 Q100.0 101.05 100.75 101.0 101.45 101.05 101.5 101.65 101.45 102.25 100.75 102.3 100.0 102.25 99.95 101.65 M94.15 101.75 Q94.85 101.8 94.9 102.4 94.85 103.0 94.15 103.05 93.4 103.0 93.35 102.4 93.4 101.8 94.15 101.75 M87.1 102.6 Q87.8 102.65 87.85 103.25 87.8 103.85 87.1 103.9 86.35 103.85 86.3 103.25 86.35 102.65 87.1 102.6 M81.3 104.4 Q80.55 104.35 80.5 103.75 80.55 103.15 81.3 103.1 82.0 103.15 82.05 103.75 82.0 104.35 81.3 104.4 M85.05 143.2 Q86.0 143.25 86.05 144.15 86.0 145.0 85.05 145.05 84.15 145.0 84.05 144.15 84.15 143.3 85.05 143.2 M90.0 143.75 Q89.1 143.65 89.0 142.85 89.1 142.0 90.0 141.9 90.95 141.95 91.05 142.85 90.95 143.7 90.0 143.75 M97.7 144.05 Q97.65 144.9 96.7 144.95 95.8 144.9 95.7 144.05 95.8 143.2 96.7 143.1 97.65 143.2 97.7 144.05" fill="#7e7e82" fill-rule="evenodd" stroke="none"/>
      <path d="M82.75 35.7 Q81.15 35.85 81.1 36.9 81.15 38.0 82.75 38.15 84.3 38.0 84.35 36.9 84.3 35.85 82.75 35.7 M84.4 40.6 L88.3 48.8 82.4 58.7 80.05 53.75 77.9 48.7 Q78.1 48.7 80.9 40.6 L82.55 40.55 84.4 40.6 M84.7 47.75 Q84.6 46.55 82.8 46.35 81.0 46.55 80.9 47.75 81.0 49.0 82.8 49.2 84.6 49.0 84.7 47.75 M84.3 39.95 L80.9 40.0 79.2 37.8 82.9 32.85 86.45 37.65 84.3 39.95" fill="#191516" fill-rule="evenodd" stroke="none"/>
      <path d="M113.45 98.05 L116.05 89.2 116.05 89.05 113.05 74.6 113.9 72.75 126.3 50.2 129.45 70.55 127.5 100.3 113.3 98.65 113.25 98.65 113.45 98.05 M98.8 47.8 L84.25 57.9 100.6 31.9 104.35 33.85 103.7 41.05 96.1 42.75 98.8 47.8 M108.1 36.6 L122.8 45.7 101.9 83.5 102.9 99.35 84.05 101.1 83.65 62.6 104.4 47.95 101.05 44.6 107.9 44.6 108.1 36.6 M102.2 56.05 L102.2 56.0 105.4 60.0 105.35 60.0 102.2 56.05 M104.2 55.85 L106.35 60.15 105.8 60.0 103.2 56.5 103.25 56.5 104.2 55.85 M108.75 60.3 L107.15 60.15 104.2 55.25 103.0 56.0 102.4 55.25 95.85 59.4 94.95 59.3 108.35 61.4 108.75 60.3 M87.95 88.75 L88.15 89.35 100.05 89.5 87.95 88.75 M60.95 34.5 L65.6 31.6 67.65 32.75 81.15 57.85 66.0 47.75 68.65 42.7 61.1 41.05 60.95 34.5 M42.0 45.7 L56.7 36.6 56.9 44.6 64.0 44.55 60.2 47.85 80.3 62.35 79.7 100.6 61.9 99.35 62.9 83.5 42.0 45.7 M47.6 99.95 L36.7 100.9 35.4 70.55 38.5 50.2 52.3 74.85 49.75 89.95 49.75 90.1 51.25 99.6 50.1 99.7 50.05 99.55 47.6 99.95 M64.75 89.5 L76.65 89.35 76.85 88.75 64.75 89.5 M65.65 141.25 L61.5 104.3 81.8 106.7 82.0 141.1 73.75 140.75 65.65 141.25 M91.05 140.75 L82.8 141.1 83.0 106.7 103.3 104.3 99.15 141.25 91.05 140.75" fill="#261817" fill-rule="evenodd" stroke="none"/>
      <path d="M72.9 28.5 L66.35 26.85 66.3 26.8 Q67.05 22.4 68.25 18.15 L68.3 18.15 Q69.95 19.15 72.5 19.4 L73.0 19.35 Q70.55 22.15 69.65 26.15 L69.55 26.85 73.05 24.35 72.9 28.5 M76.85 0.85 L76.1 4.3 Q75.05 3.75 73.75 3.5 L74.95 1.05 76.85 0.8 76.85 0.85 M73.5 19.6 L73.1 23.7 Q71.6 24.55 70.35 25.5 71.35 22.05 73.5 19.6" fill="#f4f2f2" fill-rule="evenodd" stroke="none"/>
      <path d="M84.05 103.75 L84.05 103.25 84.1 103.5 84.05 103.75" fill="#608051" fill-rule="evenodd" stroke="none"/>
    </g>
    <g id="shape1" transform="matrix(1.0, 0.0, 0.0, 1.0, -3.9, -162.9)">
      <path d="M3.9 168.9 L3.9 167.9 Q4.35 163.35 8.9 162.9 L155.9 162.9 Q160.5 163.35 160.9 167.9 L160.9 168.9 Q160.5 173.45 155.9 173.9 L8.9 173.9 Q4.35 173.45 3.9 168.9" fill="#000000" fill-rule="evenodd" stroke="none"/>
    </g>
    <g id="sprite0" transform="matrix(1.0, 0.0, 0.0, 1.0, 0.0, 0.0)">
      <use height="11.0" transform="matrix(1.0, 0.0, 0.0, 1.0, 0.0, 0.0)" width="1.0" xlink:href="#shape2"/>
    </g>
    <g id="shape2" transform="matrix(1.0, 0.0, 0.0, 1.0, 0.0, 0.0)">
      <path d="M1.0 11.0 L0.0 11.0 0.0 0.0 1.0 0.0 1.0 11.0" fill="#ffe600" fill-rule="evenodd" stroke="none"/>
    </g>
    <g id="shape3" transform="matrix(1.0, 0.0, 0.0, 1.0, -76.05, -9.05)">
      <path d="M87.35 13.85 Q88.3 13.35 87.85 11.75 87.2 10.3 86.15 10.5 85.15 11.0 85.65 12.6 86.3 14.05 87.35 13.85" fill="#383432" fill-rule="evenodd" stroke="none"/>
      <path d="M76.7 12.4 Q75.75 11.9 76.2 10.3 76.85 8.85 77.9 9.05 78.9 9.55 78.4 11.15 77.75 12.6 76.7 12.4" fill="#383432" fill-rule="evenodd" stroke="none"/>
    </g>
  </defs>
</svg>
