<?xml version="1.0" encoding="UTF-8" standalone="no"?>
<svg xmlns:xlink="http://www.w3.org/1999/xlink" height="179.35px" width="133.2px" xmlns="http://www.w3.org/2000/svg">
  <g transform="matrix(1.0, 0.0, 0.0, 1.0, 62.65, 142.3)">
    <use height="174.5" transform="matrix(1.0, 0.0, 0.0, 1.0, -55.8, -141.95)" width="124.35" xlink:href="#sprite0"/>
  </g>
  <defs>
    <g id="sprite0" transform="matrix(1.0, 0.0, 0.0, 1.0, 65.4, 88.8)">
      <use height="101.9" transform="matrix(1.0, 0.0, 0.0, 1.0, -44.9, -16.2)" width="103.85" xlink:href="#sprite1"/>
      <use height="77.65" transform="matrix(-0.8221, 0.5667, -0.5667, -0.8221, 26.0537, 31.1485)" width="57.75" xlink:href="#sprite2"/>
      <use height="135.6" transform="matrix(1.0, 0.0, 0.0, 1.0, -46.4, -49.9)" width="72.45" xlink:href="#sprite3"/>
      <use height="72.6" transform="matrix(1.0, 0.0, 0.0, 1.0, -61.25, -88.8)" width="65.6" xlink:href="#sprite4"/>
      <use height="70.4" transform="matrix(1.0, 0.0, 0.0, 1.0, -19.65, -76.0)" width="63.1" xlink:href="#sprite5"/>
    </g>
    <g id="sprite1" transform="matrix(1.0, 0.0, 0.0, 1.0, 51.9, 50.95)">
      <use height="101.9" transform="matrix(1.0, 0.0, 0.0, 1.0, -51.9, -50.95)" width="103.85" xlink:href="#shape0"/>
    </g>
    <g id="shape0" transform="matrix(1.0, 0.0, 0.0, 1.0, 51.9, 50.95)">
      <path d="M32.6 -16.05 L32.85 -15.95 33.0 -15.9 38.55 -15.2 38.6 -15.25 38.65 -15.25 38.85 -15.3 39.1 -15.25 39.2 -15.15 39.25 -15.1 40.6 -14.95 45.05 -14.15 Q44.7 -16.4 45.25 -18.75 L46.6 -26.0 Q47.75 -33.3 48.35 -40.65 L48.75 -42.95 47.1 -43.35 36.1 -45.4 18.35 -47.4 Q0.7 -48.9 -16.65 -45.6 L-27.1 -43.4 Q-25.8 -36.55 -24.1 -29.7 L-21.1 -17.05 -16.95 -17.65 -1.4 -18.3 11.5 -17.8 26.0 -16.65 32.45 -15.95 32.6 -16.0 32.6 -16.05 M-15.85 -47.15 L-16.85 -46.85 -15.8 -47.05 Q-8.1 -48.45 -0.25 -48.9 L3.1 -49.15 17.85 -48.7 32.75 -47.2 47.15 -44.85 Q48.15 -44.7 49.0 -44.1 L49.05 -44.2 49.4 -44.35 49.55 -44.4 49.35 -44.5 45.1 -45.95 Q38.95 -47.35 32.75 -48.2 16.45 -50.4 -0.1 -49.55 -8.1 -49.1 -15.85 -47.15 M-24.3 -45.35 L-23.55 -45.65 -17.15 -47.7 Q-10.95 -49.4 -4.5 -50.1 L3.85 -50.85 Q11.25 -51.15 18.6 -50.55 L33.35 -49.1 Q40.65 -48.2 47.7 -46.4 49.8 -45.9 51.7 -44.9 L51.8 -44.8 51.9 -44.55 51.95 -44.5 Q52.05 -37.3 50.65 -30.15 L48.15 -15.65 47.85 -14.8 Q47.15 -13.55 46.2 -13.35 L46.2 -13.3 46.1 -13.15 46.0 -13.05 42.05 -13.3 41.5 -13.4 39.55 0.3 37.95 8.6 38.45 8.65 40.7 8.75 41.05 8.85 41.2 9.05 41.4 9.3 41.5 9.5 41.0 14.55 41.0 14.65 40.9 15.3 40.75 15.55 40.05 15.45 40.05 15.35 39.65 15.6 39.7 16.05 39.7 16.15 39.5 30.7 39.35 35.2 39.15 35.3 Q36.5 36.85 33.75 37.9 L33.7 37.95 33.2 38.1 32.9 38.2 32.65 38.0 32.9 37.7 29.15 37.0 29.5 32.85 26.55 34.4 17.8 38.55 17.85 40.1 18.0 44.05 Q18.1 45.65 17.75 47.0 L17.8 47.3 17.75 47.55 17.5 47.8 17.45 47.85 17.4 47.9 Q14.85 49.95 11.9 50.95 L11.75 50.8 11.7 50.7 Q7.45 50.8 3.9 48.75 L3.8 48.5 4.0 48.25 4.2 48.15 Q4.1 41.0 4.4 33.85 L4.5 28.4 -0.6 27.6 -0.3 30.25 -0.3 30.3 -0.25 30.5 -0.3 30.55 -0.4 30.85 -0.9 31.0 Q-2.05 31.75 -3.5 32.25 -4.1 32.45 -4.7 32.25 L-4.85 32.2 -10.45 31.45 Q-10.85 28.85 -10.85 26.2 L-14.7 25.7 -14.75 25.8 Q-20.45 27.85 -26.2 30.05 -30.7 31.65 -34.85 34.2 L-35.05 34.25 -34.85 36.3 -34.45 41.2 -34.3 41.3 Q-34.05 42.95 -36.15 43.8 -37.05 44.2 -37.8 44.7 L-37.85 44.75 Q-38.35 45.4 -39.1 45.55 L-39.3 45.55 -40.85 45.3 -44.6 44.0 -45.3 43.35 -45.3 43.25 Q-46.2 36.1 -47.55 29.05 -48.35 25.05 -48.65 21.1 L-49.35 20.95 -49.5 21.15 -50.45 21.2 Q-51.5 18.15 -51.75 14.85 L-51.8 14.65 -51.8 14.55 -51.9 14.45 -51.9 14.35 -51.9 14.25 -51.8 14.05 -37.55 10.6 -26.2 7.65 -12.8 4.45 -11.3 3.95 -10.9 4.0 -10.9 3.95 -10.35 4.05 -13.4 -9.4 -13.9 -11.8 -14.65 -15.9 -14.6 -16.35 -21.2 -16.15 Q-21.55 -15.95 -21.9 -16.15 L-22.1 -16.4 -22.05 -16.55 -25.55 -30.3 -28.05 -40.65 -28.45 -43.65 -28.2 -44.1 -28.05 -44.15 -28.05 -44.2 -26.25 -44.9 -24.3 -45.35 M-12.8 -16.45 L-13.55 -16.4 Q-12.45 -9.8 -10.65 -3.3 -9.6 0.5 -9.4 4.2 L-6.2 4.7 Q-6.8 -2.25 -8.4 -8.95 -9.25 -12.75 -9.35 -16.6 L-12.8 -16.45 M-49.5 19.95 L-49.5 20.0 -49.45 19.95 -34.75 21.95 -25.7 23.2 -25.25 23.25 -21.65 23.7 -21.3 23.6 -21.2 23.6 -20.95 23.65 -20.8 23.8 -19.9 23.9 -5.05 25.7 9.7 27.75 10.75 28.05 Q10.15 25.15 10.2 22.1 L10.2 22.05 2.8 21.3 -6.5 19.85 -21.45 17.85 -45.85 15.85 -50.6 15.25 -49.5 19.95 M-46.75 14.35 L-36.9 15.05 -22.05 16.6 -7.2 18.55 7.25 20.55 11.05 21.1 11.15 21.15 Q12.2 20.3 13.75 19.85 L20.0 17.7 33.55 12.0 38.1 10.15 36.7 9.9 34.8 9.55 30.2 9.2 29.95 9.2 12.5 7.8 -2.05 6.4 -3.05 6.3 -3.65 6.25 -7.7 5.7 -10.6 5.15 Q-17.65 7.15 -25.0 8.6 L-32.25 10.45 Q-39.45 12.65 -46.75 14.2 L-47.2 14.3 -46.75 14.35 M-42.1 23.45 Q-42.35 22.85 -42.2 22.25 L-47.55 21.35 -45.05 35.0 Q-44.35 38.95 -44.35 42.8 L-40.1 43.95 Q-41.45 37.3 -41.7 30.3 L-42.1 23.45 M-41.05 22.45 L-41.15 22.6 Q-40.3 29.8 -39.7 37.05 -39.35 40.6 -39.15 44.1 L-39.0 44.1 -35.4 41.45 Q-36.85 34.7 -37.25 27.65 L-37.5 22.95 -38.5 22.8 -41.05 22.45 M-24.35 24.55 L-25.6 24.45 -25.75 24.5 -35.8 27.85 -35.65 29.3 Q-30.0 26.85 -24.3 24.7 L-24.05 24.6 -24.35 24.55 M-35.55 30.1 L-35.15 33.35 Q-29.1 29.4 -22.15 27.1 L-17.0 25.4 -21.65 24.85 Q-23.3 26.0 -25.55 26.6 L-29.25 27.9 Q-32.35 29.35 -35.55 30.1 M-28.3 24.15 L-36.4 23.1 -35.9 27.2 Q-32.15 25.5 -28.3 24.15 M-9.4 29.9 L-9.35 30.3 -5.1 31.15 -5.5 26.9 -9.85 26.3 -9.95 26.45 -9.4 29.9 M49.6 -43.55 Q49.8 -37.55 48.75 -31.55 L46.5 -16.9 46.15 -15.05 47.05 -16.1 49.35 -30.45 Q50.5 -37.0 51.1 -43.7 L49.6 -43.55 M31.8 -14.65 L14.65 -16.2 Q4.15 -17.0 -6.4 -16.7 -5.35 -9.8 -3.95 -2.95 L-2.95 1.7 Q-2.6 3.45 -2.8 5.15 L3.85 5.85 17.8 7.1 29.7 8.0 Q29.65 4.95 30.05 1.8 L30.8 -5.6 31.75 -14.55 31.8 -14.65 M32.45 -7.9 L31.05 6.55 30.85 8.05 31.9 8.1 34.95 8.3 Q35.5 1.2 36.75 -5.9 L38.2 -13.9 33.0 -14.55 Q32.5 -11.45 32.45 -8.3 L32.45 -7.9 M-5.25 4.8 L-3.85 5.0 Q-4.8 -1.55 -6.25 -8.05 -7.25 -12.35 -7.05 -16.7 L-8.45 -16.65 Q-7.4 -10.2 -5.95 -3.75 -5.0 0.5 -5.25 4.8 M-4.0 30.45 L-3.95 30.85 -3.85 30.85 -1.45 30.1 Q-1.85 28.8 -1.85 27.45 L-4.4 27.05 -4.0 30.45 M11.25 22.1 L11.65 27.6 Q17.35 24.7 23.2 21.9 30.3 18.55 37.55 15.35 L40.0 14.3 Q39.95 12.25 40.35 10.2 33.5 13.5 26.5 16.4 L17.7 20.0 Q14.65 21.3 11.5 21.95 L11.45 22.0 11.35 22.1 11.25 22.1 M5.25 48.4 L11.25 49.45 Q10.85 42.6 11.0 35.6 L11.05 29.05 8.15 29.15 5.5 28.55 5.8 30.95 Q5.8 38.35 5.45 45.75 L5.25 48.35 5.25 48.4 M33.35 24.4 L33.65 18.5 31.4 19.4 31.15 20.7 31.05 20.95 Q31.2 22.55 30.95 24.1 L32.45 23.95 32.7 24.0 32.95 24.05 33.25 24.4 33.35 24.65 33.35 24.4 M33.35 24.65 L33.35 24.7 33.35 24.65 M16.7 26.6 L11.9 28.65 Q12.65 35.7 12.35 42.9 12.2 46.25 12.3 49.55 L12.35 49.55 12.45 49.7 12.5 49.75 12.9 49.3 Q14.85 48.3 16.6 47.1 L16.3 32.85 Q16.2 29.65 16.7 26.6 M17.65 31.65 Q23.7 28.1 30.0 24.8 L30.1 24.8 30.0 24.7 Q29.75 22.25 30.3 19.9 23.9 22.85 17.65 26.1 L17.65 31.65 M32.25 25.05 L30.9 25.15 Q24.85 29.15 18.4 32.55 L17.65 32.8 17.65 34.05 Q18.5 33.5 19.4 33.2 26.25 29.75 32.5 25.4 L32.75 25.2 32.25 25.05 M33.25 24.9 L33.2 24.95 33.25 24.95 33.25 24.9 M32.45 30.1 L32.65 30.2 32.65 30.15 33.15 25.9 Q30.9 27.85 28.2 29.4 L17.7 35.3 17.7 35.35 17.75 37.9 Q22.95 34.55 28.7 31.85 L32.45 30.1 M32.4 31.15 L30.5 32.3 Q30.75 33.95 30.35 35.6 L30.3 35.85 32.9 36.35 Q32.85 34.45 32.95 32.5 L33.0 31.7 32.75 31.65 32.5 31.45 32.5 31.35 32.55 31.05 32.4 31.15 M36.0 8.4 L37.05 8.5 Q37.9 1.7 39.05 -5.2 L39.55 -9.05 Q39.7 -11.35 40.45 -13.55 L39.15 -13.75 39.1 -13.55 39.05 -13.3 Q38.45 -6.05 37.1 1.1 L36.0 8.3 35.95 8.4 36.0 8.4 M38.4 17.95 L38.6 16.3 34.8 18.05 34.5 18.15 Q34.8 25.45 34.55 32.7 34.5 34.7 34.1 36.55 35.2 35.6 36.7 35.0 37.5 34.65 38.4 34.35 37.75 27.5 38.25 20.55 L38.4 17.95" fill="#000000" fill-rule="evenodd" stroke="none"/>
      <path d="M32.45 -15.95 L26.0 -16.65 11.5 -17.8 -1.4 -18.3 -16.95 -17.65 -21.1 -17.05 -24.1 -29.7 Q-25.8 -36.55 -27.1 -43.4 L-16.65 -45.6 Q0.7 -48.9 18.35 -47.4 L36.1 -45.4 47.1 -43.35 48.75 -42.95 48.35 -40.65 Q47.75 -33.3 46.6 -26.0 L45.25 -18.75 Q44.7 -16.4 45.05 -14.15 L40.6 -14.95 39.25 -15.1 39.2 -15.15 39.1 -15.25 38.85 -15.3 38.65 -15.25 38.6 -15.25 38.55 -15.2 33.0 -15.9 32.85 -15.95 32.6 -16.05 32.45 -15.95 M-15.85 -47.15 Q-8.1 -49.1 -0.1 -49.55 16.45 -50.4 32.75 -48.2 38.95 -47.35 45.1 -45.95 L49.35 -44.5 49.4 -44.35 49.05 -44.2 49.0 -44.1 Q48.15 -44.7 47.15 -44.85 L32.75 -47.2 17.85 -48.7 3.1 -49.15 -0.25 -48.9 Q-8.1 -48.45 -15.8 -47.05 L-15.85 -47.15 M-46.75 14.2 Q-39.45 12.65 -32.25 10.45 L-25.0 8.6 Q-17.65 7.15 -10.6 5.15 L-7.7 5.7 -3.65 6.25 -3.05 6.3 -2.05 6.4 12.5 7.8 29.95 9.2 30.2 9.2 34.8 9.55 36.7 9.9 38.1 10.15 33.55 12.0 20.0 17.7 13.75 19.85 Q12.2 20.3 11.15 21.15 L11.05 21.1 7.25 20.55 -7.2 18.55 -22.05 16.6 -36.9 15.05 -46.75 14.35 -46.75 14.2 M-24.3 24.7 Q-30.0 26.85 -35.65 29.3 L-35.8 27.85 -25.75 24.5 -25.6 24.45 -24.35 24.55 -24.3 24.7 M33.25 24.4 L33.35 24.4 33.35 24.65 33.25 24.4 M32.5 25.4 Q26.25 29.75 19.4 33.2 18.5 33.5 17.65 34.05 L17.65 32.8 18.4 32.55 Q24.85 29.15 30.9 25.15 L32.25 25.05 32.5 25.4 M32.5 31.35 L32.4 31.15 32.55 31.05 32.5 31.35" fill="#ff0000" fill-rule="evenodd" stroke="none"/>
      <path d="M-12.8 -16.45 L-9.35 -16.6 Q-9.25 -12.75 -8.4 -8.95 -6.8 -2.25 -6.2 4.7 L-9.4 4.2 Q-9.6 0.5 -10.65 -3.3 -12.45 -9.8 -13.55 -16.4 L-12.8 -16.45 M-49.45 19.95 L-49.5 19.95 -50.6 15.25 -45.85 15.85 -21.45 17.85 -6.5 19.85 2.8 21.3 10.2 22.05 10.2 22.1 Q10.15 25.15 10.75 28.05 L9.7 27.75 -5.05 25.7 -19.9 23.9 -20.8 23.8 -20.95 23.65 -21.2 23.6 -21.3 23.6 -21.65 23.7 -25.25 23.25 -25.7 23.2 -34.75 21.95 -49.45 19.95 M-42.1 23.45 L-41.7 30.3 Q-41.45 37.3 -40.1 43.95 L-44.35 42.8 Q-44.35 38.95 -45.05 35.0 L-47.55 21.35 -42.2 22.25 Q-42.35 22.85 -42.1 23.45 M32.45 -7.9 L32.45 -8.3 Q32.5 -11.45 33.0 -14.55 L38.2 -13.9 36.75 -5.9 Q35.5 1.2 34.95 8.3 L31.9 8.1 30.85 8.05 31.05 6.55 32.45 -7.9 M5.25 48.35 L5.45 45.75 Q5.8 38.35 5.8 30.95 L5.5 28.55 8.15 29.15 11.05 29.05 11.0 35.6 Q10.85 42.6 11.25 49.45 L5.25 48.4 5.25 48.35 M11.25 22.1 L11.35 22.1 11.45 22.0 11.5 21.95 Q14.65 21.3 17.7 20.0 L26.5 16.4 Q33.5 13.5 40.35 10.2 39.95 12.25 40.0 14.3 L37.55 15.35 Q30.3 18.55 23.2 21.9 17.35 24.7 11.65 27.6 L11.25 22.1" fill="#d20000" fill-rule="evenodd" stroke="none"/>
      <path d="M-41.05 22.45 L-38.5 22.8 -37.5 22.95 -37.25 27.65 Q-36.85 34.7 -35.4 41.45 L-39.0 44.1 -39.15 44.1 Q-39.35 40.6 -39.7 37.05 -40.3 29.8 -41.15 22.6 L-41.05 22.45 M-35.55 30.1 Q-32.35 29.35 -29.25 27.9 L-25.55 26.6 Q-23.3 26.0 -21.65 24.85 L-17.0 25.4 -22.15 27.1 Q-29.1 29.4 -35.15 33.35 L-35.55 30.1 M-9.4 29.9 L-9.95 26.45 -9.85 26.3 -5.5 26.9 -5.1 31.15 -9.35 30.3 -9.4 29.9 M49.6 -43.55 L51.1 -43.7 Q50.5 -37.0 49.35 -30.45 L47.05 -16.1 46.15 -15.05 46.5 -16.9 48.75 -31.55 Q49.8 -37.55 49.6 -43.55 M-5.25 4.8 Q-5.0 0.5 -5.95 -3.75 -7.4 -10.2 -8.45 -16.65 L-7.05 -16.7 Q-7.25 -12.35 -6.25 -8.05 -4.8 -1.55 -3.85 5.0 L-5.25 4.8 M-3.85 30.85 L-4.0 30.45 -4.4 27.05 -1.85 27.45 Q-1.85 28.8 -1.45 30.1 L-3.85 30.85 M33.25 24.4 L32.95 24.05 32.7 24.0 32.45 23.95 30.95 24.1 Q31.2 22.55 31.05 20.95 L31.15 20.7 31.4 19.4 33.65 18.5 33.35 24.4 33.25 24.4 M16.7 26.6 Q16.2 29.65 16.3 32.85 L16.6 47.1 Q14.85 48.3 12.9 49.3 L12.5 49.75 12.45 49.7 12.35 49.55 12.3 49.55 Q12.2 46.25 12.35 42.9 12.65 35.7 11.9 28.65 L16.7 26.6 M32.65 30.15 L32.45 30.1 28.7 31.85 Q22.95 34.55 17.75 37.9 L17.7 35.35 17.7 35.3 28.2 29.4 Q30.9 27.85 33.15 25.9 L32.65 30.15 M32.5 31.35 L32.5 31.45 32.75 31.65 33.0 31.7 32.95 32.5 Q32.85 34.45 32.9 36.35 L30.3 35.85 30.35 35.6 Q30.75 33.95 30.5 32.3 L32.4 31.15 32.5 31.35 M36.0 8.3 L37.1 1.1 Q38.45 -6.05 39.05 -13.3 L39.1 -13.55 39.15 -13.75 40.45 -13.55 Q39.7 -11.35 39.55 -9.05 L39.05 -5.2 Q37.9 1.7 37.05 8.5 L36.0 8.4 36.0 8.3 M38.4 17.95 L38.25 20.55 Q37.75 27.5 38.4 34.35 37.5 34.65 36.7 35.0 35.2 35.6 34.1 36.55 34.5 34.7 34.55 32.7 34.8 25.45 34.5 18.15 L34.8 18.05 38.6 16.3 38.4 17.95" fill="#7d0000" fill-rule="evenodd" stroke="none"/>
    </g>
    <g id="sprite2" transform="matrix(1.0, 0.0, 0.0, 1.0, 28.85, 38.8)">
      <use height="77.65" transform="matrix(1.0, 0.0, 0.0, 1.0, -28.85, -38.8)" width="57.75" xlink:href="#shape1"/>
    </g>
    <g id="shape1" transform="matrix(1.0, 0.0, 0.0, 1.0, 28.85, 38.8)">
      <path d="M9.5 -36.95 Q11.65 -37.2 13.1 -35.7 16.4 -38.15 20.65 -38.75 24.05 -39.05 26.15 -37.6 27.9 -36.35 28.75 -33.85 L28.9 -32.6 Q28.55 -28.0 26.1 -24.05 23.75 -20.1 23.7 -15.5 24.05 -14.2 23.75 -12.9 L22.6 -8.4 22.35 -8.0 22.2 -7.75 Q24.5 -5.65 22.95 -2.4 22.0 -0.35 19.65 0.0 L18.0 0.1 17.05 3.6 Q15.35 8.6 12.05 12.9 L11.15 14.25 Q9.3 16.55 7.05 18.4 3.55 21.9 -0.65 24.5 L-3.05 25.9 -2.75 27.15 -2.7 27.5 Q-2.3 30.25 -2.45 33.15 -2.6 36.15 -4.65 38.05 L-4.75 38.3 -5.15 38.4 -5.25 38.4 Q-15.1 40.25 -22.95 34.2 -28.7 29.8 -28.85 22.65 -28.9 21.1 -28.6 19.55 L-28.3 19.1 -28.35 19.0 -28.35 18.8 -27.85 18.45 -27.65 18.15 -27.05 17.9 -26.85 17.8 -26.35 17.9 -25.6 17.85 -25.6 17.8 Q-18.55 20.45 -11.25 18.6 L-8.35 18.0 Q-6.5 17.65 -5.6 19.1 L-5.4 19.0 -4.15 18.35 Q3.2 14.05 8.25 7.05 L8.95 5.6 Q10.65 3.0 11.75 0.15 L12.15 -1.05 12.2 -1.15 12.35 -1.35 12.4 -1.45 12.45 -1.7 12.5 -1.9 12.55 -1.95 Q11.05 -3.2 10.3 -5.15 9.35 -7.6 11.1 -9.5 L9.8 -11.1 9.8 -11.2 9.75 -11.35 Q4.85 -17.25 6.75 -24.65 6.85 -26.45 7.4 -28.05 L7.5 -30.6 Q7.6 -32.2 6.95 -33.75 6.7 -34.4 6.95 -35.1 L7.8 -36.05 Q8.45 -36.85 9.5 -36.95 M7.7 -34.2 Q8.5 -32.6 8.6 -30.8 9.6 -32.55 11.2 -34.1 L12.3 -35.05 Q10.85 -36.45 8.7 -35.65 L8.45 -35.5 8.3 -35.25 7.9 -34.65 7.7 -34.2 M26.0 -36.55 Q20.6 -39.35 15.25 -35.85 11.55 -33.45 9.55 -30.15 L9.15 -29.05 Q6.05 -22.65 8.1 -16.1 9.85 -11.8 13.35 -8.75 L13.4 -8.8 13.8 -8.55 13.85 -8.45 13.85 -8.35 14.5 -7.85 14.55 -7.7 14.15 -7.35 13.8 -7.55 Q13.85 -5.45 16.6 -4.95 L17.25 -4.85 Q19.85 -4.65 20.6 -6.65 L20.35 -6.8 20.3 -6.9 20.25 -7.1 20.25 -7.15 20.35 -7.45 20.45 -7.55 20.6 -7.65 20.7 -7.7 20.8 -7.7 20.75 -7.9 20.8 -8.05 20.75 -8.15 20.95 -8.4 21.15 -8.5 21.25 -8.45 Q23.35 -12.6 23.15 -17.4 23.05 -20.15 24.25 -22.65 L26.75 -27.8 26.8 -27.9 27.3 -28.9 27.7 -29.85 28.05 -32.2 Q28.25 -34.6 26.5 -36.3 L26.0 -36.55 M20.15 -7.1 Q20.65 -6.15 18.95 -5.85 L18.25 -5.85 Q17.5 -5.95 17.05 -6.45 L19.65 -7.0 19.9 -7.05 20.15 -7.1 M12.8 -8.1 L11.7 -8.95 Q9.7 -5.7 12.8 -3.15 13.55 -2.55 14.3 -2.1 17.1 -0.55 20.4 -1.25 L21.45 -1.65 22.1 -2.4 22.4 -3.1 22.5 -3.25 Q23.0 -5.45 21.75 -7.05 21.7 -5.8 20.35 -4.85 18.95 -3.85 17.3 -3.9 L15.9 -4.15 Q13.05 -4.9 12.75 -7.55 L12.8 -8.1 M16.1 3.25 L17.35 0.05 15.2 -0.45 Q14.15 -0.85 13.3 -1.4 L12.5 0.9 Q10.3 6.45 6.25 11.05 1.85 16.1 -4.05 19.25 L-5.65 20.05 -8.15 20.9 Q-9.3 24.05 -9.35 27.1 -5.25 25.85 -1.55 23.75 1.65 21.85 4.55 19.25 L9.1 15.0 Q11.95 11.75 14.15 7.95 L14.15 7.85 14.15 7.65 14.75 6.65 14.85 6.55 16.1 3.25 M-7.0 19.0 Q-9.45 18.9 -11.95 19.7 -13.85 20.35 -15.85 20.4 -20.65 20.5 -25.1 18.9 L-25.95 18.8 -26.65 18.95 Q-28.4 20.5 -28.05 23.25 -27.1 31.35 -19.7 35.35 -13.35 38.75 -6.15 37.8 L-6.0 37.5 -5.75 37.35 -5.2 37.4 Q-3.7 36.0 -3.5 33.75 L-3.35 30.2 -3.4 30.15 -3.8 26.3 Q-6.5 27.65 -9.35 27.95 -9.25 31.4 -7.85 34.85 L-7.3 36.4 -7.5 36.65 -7.7 36.75 Q-10.15 33.75 -10.4 29.75 L-10.45 28.0 -10.55 28.0 -10.65 27.9 -10.6 27.55 -10.5 27.45 -10.4 27.45 Q-10.25 23.9 -8.85 20.75 L-8.9 20.65 Q-8.5 19.35 -6.7 19.35 L-6.75 19.25 -7.0 19.0" fill="#000000" fill-rule="evenodd" stroke="none"/>
      <path d="M20.25 -7.1 L20.3 -6.9 20.35 -6.8 20.6 -6.65 Q19.85 -4.65 17.25 -4.85 L16.6 -4.95 Q13.85 -5.45 13.8 -7.55 L14.15 -7.35 14.55 -7.7 14.5 -7.85 13.85 -8.35 13.85 -8.45 13.8 -8.55 13.4 -8.8 13.35 -8.75 Q9.85 -11.8 8.1 -16.1 6.05 -22.65 9.15 -29.05 L9.55 -30.15 Q11.55 -33.45 15.25 -35.85 20.6 -39.35 26.0 -36.55 L25.8 -35.3 Q25.25 -32.15 22.8 -29.9 L22.05 -29.15 Q20.55 -27.65 19.35 -25.85 17.15 -22.6 17.55 -17.3 17.7 -15.45 18.6 -13.9 19.7 -12.0 20.0 -9.8 20.2 -8.2 19.75 -7.2 L20.15 -7.1 20.25 -7.1 M7.7 -34.2 L7.9 -34.65 8.3 -35.25 8.45 -35.5 8.7 -35.65 Q10.85 -36.45 12.3 -35.05 L11.2 -34.1 Q9.6 -32.55 8.6 -30.8 8.5 -32.6 7.7 -34.2 M20.15 -7.1 L19.9 -7.05 19.65 -7.0 17.05 -6.45 Q17.5 -5.95 18.25 -5.85 L18.95 -5.85 Q20.65 -6.15 20.15 -7.1 M21.25 -8.45 L21.15 -8.5 21.25 -8.45 M12.8 -8.1 L12.75 -7.55 Q13.05 -4.9 15.9 -4.15 L17.3 -3.9 Q18.95 -3.85 20.35 -4.85 21.7 -5.8 21.75 -7.05 23.0 -5.45 22.5 -3.25 L22.4 -3.1 22.1 -2.4 21.45 -1.65 20.4 -1.25 Q17.1 -0.55 14.3 -2.1 13.55 -2.55 12.8 -3.15 9.7 -5.7 11.7 -8.95 L12.8 -8.1" fill="#ffffff" fill-rule="evenodd" stroke="none"/>
      <path d="M20.25 -7.1 L20.15 -7.1 19.75 -7.2 Q20.2 -8.2 20.0 -9.8 19.7 -12.0 18.6 -13.9 17.7 -15.45 17.55 -17.3 17.15 -22.6 19.35 -25.85 20.55 -27.65 22.05 -29.15 L22.8 -29.9 Q25.25 -32.15 25.8 -35.3 L26.0 -36.55 26.5 -36.3 Q28.25 -34.6 28.05 -32.2 L27.7 -29.85 27.3 -28.9 26.8 -27.9 26.75 -27.8 24.25 -22.65 Q23.05 -20.15 23.15 -17.4 23.35 -12.6 21.25 -8.45 L21.15 -8.5 20.95 -8.4 20.75 -8.15 20.8 -8.05 20.75 -7.9 20.8 -7.7 20.7 -7.7 20.6 -7.65 20.45 -7.55 20.35 -7.45 20.25 -7.15 20.25 -7.1" fill="#e2ebef" fill-rule="evenodd" stroke="none"/>
      <path d="M12.5 0.9 L13.3 -1.4 Q14.15 -0.85 15.2 -0.45 L17.35 0.05 16.1 3.25 13.6 1.8 12.5 0.9 M-1.55 23.75 Q-5.25 25.85 -9.35 27.1 -9.3 24.05 -8.15 20.9 L-5.65 20.05 -4.05 19.25 Q-3.7 21.55 -1.6 23.7 L-1.55 23.75" fill="#5f5300" fill-rule="evenodd" stroke="none"/>
      <path d="M12.5 0.9 L13.6 1.8 16.1 3.25 14.85 6.55 14.75 6.65 14.15 7.65 14.15 7.85 14.15 7.95 Q11.95 11.75 9.1 15.0 L4.55 19.25 Q1.65 21.85 -1.55 23.75 L-1.6 23.7 Q-3.7 21.55 -4.05 19.25 1.85 16.1 6.25 11.05 10.3 6.45 12.5 0.9" fill="#75640a" fill-rule="evenodd" stroke="none"/>
      <path d="M-7.0 19.0 L-6.75 19.25 -6.7 19.35 Q-8.5 19.35 -8.9 20.65 L-8.85 20.75 Q-10.25 23.9 -10.4 27.45 L-10.5 27.45 -10.6 27.55 -10.65 27.9 -10.55 28.0 -10.45 28.0 -10.4 29.75 Q-10.15 33.75 -7.7 36.75 L-7.5 36.65 -7.3 36.4 -7.85 34.85 Q-9.25 31.4 -9.35 27.95 -6.5 27.65 -3.8 26.3 L-3.4 30.15 -3.35 30.2 -3.5 33.75 Q-3.7 36.0 -5.2 37.4 L-5.75 37.35 -6.0 37.5 -6.15 37.8 Q-13.35 38.75 -19.7 35.35 -27.1 31.35 -28.05 23.25 -28.4 20.5 -26.65 18.95 L-25.95 18.8 -25.1 18.9 Q-20.65 20.5 -15.85 20.4 -13.85 20.35 -11.95 19.7 -9.45 18.9 -7.0 19.0" fill="url(#gradient0)" fill-rule="evenodd" stroke="none"/>
    </g>
    <linearGradient gradientTransform="matrix(-0.0054, 0.0141, -0.011, -0.0042, -20.5, 36.65)" gradientUnits="userSpaceOnUse" id="gradient0" spreadMethod="pad" x1="-819.2" x2="819.2">
      <stop offset="0.0" stop-color="#39fd7b"/>
      <stop offset="1.0" stop-color="#000000"/>
    </linearGradient>
    <g id="sprite3" transform="matrix(1.0, 0.0, 0.0, 1.0, 36.2, 67.8)">
      <use height="135.6" transform="matrix(1.0, 0.0, 0.0, 1.0, -36.2, -67.8)" width="72.45" xlink:href="#shape2"/>
    </g>
    <g id="shape2" transform="matrix(1.0, 0.0, 0.0, 1.0, 36.2, 67.8)">
      <path d="M-18.05 -60.45 Q-15.2 -54.95 -10.6 -50.7 L-9.15 -49.35 -9.1 -49.35 Q-8.6 -49.3 -8.5 -48.85 L-8.5 -48.65 Q-5.9 -47.75 -3.85 -49.6 -3.45 -50.6 -3.4 -51.65 -9.25 -56.15 -12.9 -62.55 L-13.05 -62.75 Q-14.15 -65.95 -17.3 -66.55 L-18.05 -66.35 Q-20.15 -64.4 -18.55 -61.7 -18.15 -61.1 -18.05 -60.45 M-17.2 -67.8 Q-13.75 -67.0 -12.2 -63.65 L-10.7 -60.7 Q-7.6 -56.45 -3.8 -53.1 L-3.35 -53.2 -3.1 -53.25 Q4.45 -52.0 9.85 -46.55 L13.4 -43.2 Q19.0 -38.2 22.75 -31.85 26.45 -25.5 29.65 -18.8 L30.55 -16.75 Q32.25 -13.35 33.35 -9.55 34.9 -4.25 35.45 1.3 35.75 4.45 35.1 7.5 L35.1 7.55 Q36.65 13.8 36.15 20.45 35.55 28.25 29.7 33.3 L29.1 33.7 Q28.2 34.4 26.9 34.7 12.1 38.0 -0.85 30.45 L-2.55 29.4 Q-5.35 29.65 -7.8 28.65 L-7.55 29.1 -7.4 29.4 -6.2 31.0 -6.55 30.85 Q-3.8 35.4 -0.2 39.35 3.4 43.25 7.45 46.8 L16.35 54.15 Q18.55 55.9 20.05 58.3 20.9 59.75 20.9 61.25 L20.95 61.25 Q21.7 64.5 18.0 65.3 L11.05 66.85 Q1.9 68.8 -7.1 66.7 -9.1 66.2 -10.5 65.05 -12.6 66.55 -15.55 66.75 L-21.7 66.8 -24.0 66.5 Q-24.3 66.7 -24.75 66.5 L-24.9 66.25 Q-26.45 65.75 -27.8 64.75 -29.1 63.75 -29.7 62.3 -30.85 59.35 -30.7 56.1 -30.55 52.2 -27.55 49.75 -26.8 49.1 -25.8 48.8 L-23.1 48.25 Q-17.15 48.35 -11.75 50.15 -18.05 44.8 -22.6 37.85 L-30.35 25.35 Q-31.45 23.55 -32.05 21.6 -33.9 21.5 -35.05 19.65 -37.35 15.85 -35.05 12.3 -33.55 10.05 -31.25 8.6 -29.25 7.35 -27.1 6.35 L-27.05 6.2 -26.95 6.1 -26.65 5.95 -26.5 5.75 -26.0 5.4 -25.95 5.55 Q-22.9 3.85 -19.55 2.75 -12.75 0.45 -5.6 -0.4 -4.25 -2.7 -3.5 -5.2 L-3.2 -8.1 -3.25 -8.4 Q-3.4 -10.95 -3.8 -13.45 L-4.3 -15.75 -4.75 -17.75 -8.4 -24.75 -8.9 -26.0 Q-13.15 -31.8 -15.85 -38.5 -18.35 -44.7 -13.45 -49.1 L-11.65 -50.2 Q-13.65 -51.75 -15.2 -53.95 -17.35 -56.9 -19.05 -60.2 L-19.5 -61.3 Q-20.65 -63.55 -19.6 -66.05 L-18.75 -67.1 Q-18.0 -67.65 -17.2 -67.8 M8.05 -0.85 L16.95 0.4 Q24.25 1.85 31.35 3.85 33.05 4.3 34.2 5.45 34.25 -0.45 32.75 -6.1 L32.25 -8.25 31.1 -11.75 30.9 -11.8 27.75 -19.4 22.35 -29.9 Q18.35 -37.2 12.05 -42.85 L3.75 -49.5 Q1.85 -50.85 -0.5 -51.35 L-2.5 -51.9 -2.55 -51.85 Q-2.1 -49.25 -4.95 -47.85 -6.6 -47.05 -8.45 -47.6 L-8.5 -47.6 Q-10.2 -48.2 -11.3 -49.35 L-14.0 -46.55 Q-15.25 -45.15 -15.35 -43.2 -15.55 -39.65 -13.8 -36.5 L-6.4 -23.75 Q-2.8 -17.95 -2.2 -11.25 -1.9 -8.85 -2.15 -6.4 -2.2 -5.5 -2.4 -4.55 -2.9 -2.45 -3.9 -0.6 L2.15 -1.1 8.05 -0.85 M-11.55 2.25 L-2.6 1.6 7.2 2.45 12.1 3.2 Q13.3 3.45 14.2 4.1 L14.15 4.1 13.8 4.05 13.7 4.15 13.55 4.2 6.85 3.35 0.65 2.8 -11.35 3.15 -15.3 3.8 -15.45 3.9 -15.65 4.05 -24.45 6.4 Q-27.5 7.55 -30.4 9.2 -34.05 11.25 -34.95 15.15 -35.15 16.1 -34.85 17.05 -34.15 19.3 -32.35 20.7 -32.85 18.85 -32.95 16.95 L-32.9 16.15 -33.95 17.2 Q-34.45 15.75 -32.7 14.6 -30.4 13.15 -27.7 13.45 -21.9 14.1 -16.65 16.65 L-17.05 16.5 Q-12.15 18.8 -8.35 22.95 -5.55 26.0 -2.2 28.3 L-1.7 28.3 -1.55 28.35 -1.4 28.5 -1.35 28.8 -1.35 28.9 Q1.0 30.35 3.6 31.5 8.7 33.7 14.3 34.3 L25.0 33.7 Q26.95 33.25 28.7 32.3 L29.85 31.3 31.5 29.55 Q35.8 23.0 34.9 15.0 L33.95 6.95 32.55 6.1 32.25 5.9 Q31.2 5.2 29.95 4.85 22.65 2.75 15.2 1.4 L7.8 0.45 Q-1.95 -0.25 -11.6 1.85 L-15.5 2.85 -11.55 2.25 M-10.75 22.45 Q-12.1 21.1 -13.65 20.0 L-15.5 18.65 -15.6 18.6 -15.25 19.0 Q-17.2 18.0 -19.15 17.1 -21.6 16.0 -24.1 15.2 L-25.6 14.85 Q-25.0 17.85 -23.4 20.7 L-15.55 33.3 Q-11.4 39.5 -6.8 45.35 L-3.5 49.3 Q2.95 50.3 9.35 52.0 L9.55 52.25 9.55 52.35 9.55 52.4 9.5 52.5 9.45 52.6 Q6.0 52.5 2.45 51.5 -1.7 50.4 -5.8 50.8 -6.6 50.9 -7.25 51.4 -10.1 53.8 -10.85 57.3 -11.7 60.95 -10.0 64.25 L-6.9 65.25 Q-8.95 61.3 -7.75 56.8 -7.25 55.1 -6.4 53.5 L-5.45 52.65 Q-5.05 53.2 -5.75 53.85 L-5.85 53.95 -6.45 56.1 -6.45 56.4 Q-7.05 58.15 -7.05 60.05 L-7.05 60.4 Q-6.9 63.2 -5.6 65.6 L-0.95 66.4 Q-3.05 60.95 -0.95 55.3 -0.55 54.25 0.3 53.65 0.6 54.55 -0.2 55.65 L-0.25 55.75 Q-0.85 57.5 -0.85 59.4 L-0.85 59.8 -0.9 60.0 -0.95 60.1 Q-1.0 63.35 0.15 66.35 L0.2 66.5 7.75 66.3 Q14.25 65.5 19.9 62.7 L19.95 62.4 19.95 62.25 19.3 60.05 19.25 59.75 Q15.75 53.95 9.8 50.2 7.05 48.5 4.75 46.15 -0.3 40.95 -4.85 35.25 -8.35 30.85 -10.65 25.65 L-11.5 23.1 Q-11.6 22.65 -11.2 22.55 L-10.95 22.7 -8.85 26.65 -8.6 26.75 -8.45 27.1 -4.4 28.15 Q-7.4 25.95 -9.95 23.25 L-10.75 22.45 M-5.7 48.8 Q-10.85 42.55 -15.45 35.8 L-23.25 23.65 Q-25.75 19.55 -26.6 14.95 L-26.6 14.7 Q-28.95 14.45 -31.15 15.25 -32.45 17.55 -31.3 20.2 L-31.25 20.5 Q-27.9 27.25 -23.9 33.65 -19.7 40.35 -14.2 45.95 -12.55 47.65 -11.2 49.5 L-11.15 49.5 -11.05 49.7 -10.45 50.55 -10.45 50.6 -9.45 51.0 -9.4 51.05 -9.4 51.15 -9.45 51.3 -9.5 51.4 -9.55 51.5 -9.7 51.5 -15.1 50.35 Q-20.65 48.8 -26.0 50.3 -27.0 50.6 -27.65 51.4 -29.45 53.75 -29.55 56.85 -29.65 60.25 -27.7 63.05 -26.95 64.1 -25.8 64.7 -28.85 58.8 -25.15 52.7 -24.65 51.9 -23.8 51.6 -25.3 53.8 -25.8 56.65 L-25.85 56.75 Q-26.55 61.3 -24.25 65.2 L-24.0 65.25 -20.0 65.55 -20.5 64.85 Q-21.4 63.2 -21.75 61.35 L-21.75 61.25 Q-22.15 57.1 -20.6 53.5 L-20.6 53.4 -19.65 52.3 -20.5 54.65 -20.55 54.75 -20.65 55.85 -20.7 56.05 -20.6 61.3 -20.6 61.65 Q-19.95 63.5 -18.9 65.25 L-19.05 65.55 -18.85 65.55 Q-15.0 65.45 -11.25 64.4 L-11.95 63.15 Q-13.9 56.9 -9.8 51.85 L-9.5 51.55 Q-7.9 49.7 -5.55 49.15 L-5.45 49.1 -5.7 48.8" fill="#000000" fill-rule="evenodd" stroke="none"/>
      <path d="M-18.05 -60.45 Q-18.15 -61.1 -18.55 -61.7 -20.15 -64.4 -18.05 -66.35 L-17.3 -66.55 Q-14.15 -65.95 -13.05 -62.75 L-12.9 -62.55 Q-9.25 -56.15 -3.4 -51.65 -3.45 -50.6 -3.85 -49.6 -5.9 -47.75 -8.5 -48.65 L-8.5 -48.85 Q-8.6 -49.3 -9.1 -49.35 L-9.15 -49.35 -10.6 -50.7 Q-15.2 -54.95 -18.05 -60.45 M-10.75 22.45 L-10.95 22.7 -11.2 22.55 Q-11.6 22.65 -11.5 23.1 L-10.65 25.65 Q-8.35 30.85 -4.85 35.25 -0.3 40.95 4.75 46.15 7.05 48.5 9.8 50.2 15.75 53.95 19.25 59.75 L19.3 60.05 19.95 62.25 19.95 62.4 19.9 62.7 Q14.25 65.5 7.75 66.3 L0.2 66.5 0.15 66.35 Q-1.0 63.35 -0.95 60.1 L-0.9 60.0 -0.85 59.8 -0.85 59.4 Q-0.85 57.5 -0.25 55.75 L-0.2 55.65 Q0.6 54.55 0.3 53.65 -0.55 54.25 -0.95 55.3 -3.05 60.95 -0.95 66.4 L-5.6 65.6 Q-6.9 63.2 -7.05 60.4 L-7.05 60.05 Q-7.05 58.15 -6.45 56.4 L-6.45 56.1 -5.85 53.95 -5.75 53.85 Q-5.05 53.2 -5.45 52.65 L-6.4 53.5 Q-7.25 55.1 -7.75 56.8 -8.95 61.3 -6.9 65.25 L-10.0 64.25 Q-11.7 60.95 -10.85 57.3 -10.1 53.8 -7.25 51.4 -6.6 50.9 -5.8 50.8 -1.7 50.4 2.45 51.5 6.0 52.5 9.45 52.6 L9.5 52.5 9.55 52.4 9.55 52.35 9.55 52.25 9.35 52.0 Q2.95 50.3 -3.5 49.3 L-6.8 45.35 Q-11.4 39.5 -15.55 33.3 L-23.4 20.7 Q-25.0 17.85 -25.6 14.85 L-24.1 15.2 Q-21.6 16.0 -19.15 17.1 -17.2 18.0 -15.25 19.0 L-15.6 18.6 -15.5 18.65 -13.65 20.0 Q-12.1 21.1 -10.75 22.45 M-9.55 51.5 L-9.5 51.4 -9.45 51.3 -9.4 51.15 -9.4 51.05 -9.45 51.0 -10.45 50.6 -10.45 50.55 -11.05 49.7 -11.15 49.5 -11.2 49.5 Q-12.55 47.65 -14.2 45.95 -19.7 40.35 -23.9 33.65 -27.9 27.25 -31.25 20.5 L-31.3 20.2 Q-32.45 17.55 -31.15 15.25 -28.95 14.45 -26.6 14.7 L-26.6 14.95 Q-25.75 19.55 -23.25 23.65 L-15.45 35.8 Q-10.85 42.55 -5.7 48.8 L-5.55 49.15 Q-7.9 49.7 -9.5 51.55 L-9.55 51.5 M-9.7 51.5 L-9.8 51.85 Q-13.9 56.9 -11.95 63.15 L-11.25 64.4 Q-15.0 65.45 -18.85 65.55 L-18.9 65.25 Q-19.95 63.5 -20.6 61.65 L-20.6 61.3 -20.7 56.05 -20.65 55.85 -20.55 54.75 -20.5 54.65 -19.65 52.3 -20.6 53.4 -20.6 53.5 Q-22.15 57.1 -21.75 61.25 L-21.75 61.35 Q-21.4 63.2 -20.5 64.85 L-20.0 65.55 -24.0 65.25 -24.25 65.2 Q-26.55 61.3 -25.85 56.75 L-25.8 56.65 Q-25.3 53.8 -23.8 51.6 -24.65 51.9 -25.15 52.7 -28.85 58.8 -25.8 64.7 -26.95 64.1 -27.7 63.05 -29.65 60.25 -29.55 56.85 -29.45 53.75 -27.65 51.4 -27.0 50.6 -26.0 50.3 -20.65 48.8 -15.1 50.35 L-9.7 51.5" fill="#75640a" fill-rule="evenodd" stroke="none"/>
      <path d="M-8.45 -47.6 Q-6.6 -47.05 -4.95 -47.85 -2.1 -49.25 -2.55 -51.85 L-2.5 -51.9 -0.5 -51.35 Q1.85 -50.85 3.75 -49.5 L12.05 -42.85 Q18.35 -37.2 22.35 -29.9 L27.75 -19.4 30.9 -11.8 31.1 -11.75 32.25 -8.25 32.75 -6.1 Q34.25 -0.45 34.2 5.45 33.05 4.3 31.35 3.85 24.25 1.85 16.95 0.4 L8.05 -0.85 Q8.35 -2.9 8.15 -5.05 7.6 -11.25 5.4 -17.1 L4.55 -18.9 Q3.25 -21.15 2.4 -23.6 L1.6 -25.35 3.9 -25.25 Q4.9 -25.45 5.25 -26.3 6.9 -29.9 2.8 -31.55 L4.05 -32.95 Q4.7 -34.1 3.95 -35.2 1.6 -38.45 -1.75 -36.0 L-1.75 -36.05 Q-2.45 -38.65 -4.95 -39.05 -6.95 -43.25 -8.5 -47.55 L-8.45 -47.6 M0.45 -28.05 L0.4 -28.1 -0.5 -30.4 -1.45 -32.2 -1.85 -32.9 -1.8 -33.0 Q-1.15 -34.5 -0.05 -35.65 L2.3 -35.4 Q3.4 -34.75 2.8 -33.8 1.65 -31.9 -0.55 -31.35 L-0.65 -31.1 -0.6 -30.9 -0.55 -30.8 -0.3 -30.65 Q3.5 -31.05 4.75 -27.9 L4.65 -27.4 Q4.2 -26.2 2.8 -26.25 L2.2 -26.55 Q1.35 -26.85 0.8 -27.6 L0.45 -28.05 M-2.8 -34.7 L-4.3 -37.7 Q-3.6 -37.25 -3.3 -36.45 L-2.8 -34.7 M5.8 -26.9 L5.85 -26.75 7.2 -25.3 Q9.6 -22.3 9.7 -18.3 L10.25 -18.2 Q10.6 -18.6 10.6 -19.15 L10.6 -20.15 10.6 -20.25 Q10.6 -22.5 9.75 -24.15 L9.85 -24.25 Q12.4 -26.6 10.75 -29.8 10.7 -29.95 10.8 -30.1 11.05 -30.75 10.7 -31.4 L10.55 -31.45 10.3 -31.55 10.1 -31.5 10.0 -31.45 Q9.6 -31.15 9.6 -30.7 L9.3 -29.7 Q7.85 -28.0 8.1 -26.25 7.3 -26.95 6.3 -27.45 L6.05 -27.4 5.9 -27.2 5.8 -26.9" fill="url(#gradient1)" fill-rule="evenodd" stroke="none"/>
      <path d="M-8.5 -47.55 Q-6.95 -43.25 -4.95 -39.05 L-5.0 -39.05 Q-8.7 -37.9 -7.15 -34.35 L-6.55 -33.3 -7.0 -33.3 Q-7.75 -33.1 -8.3 -32.55 L-9.35 -31.45 -9.45 -31.2 -9.45 -29.95 -9.35 -29.6 Q-8.4 -28.05 -6.75 -27.6 L-4.65 -27.45 Q-5.2 -25.9 -3.65 -24.1 -2.95 -23.25 -1.85 -23.15 1.35 -22.8 0.6 -25.8 L1.6 -25.35 2.4 -23.6 Q3.25 -21.15 4.55 -18.9 L5.4 -17.1 Q7.6 -11.25 8.15 -5.05 8.35 -2.9 8.05 -0.85 L2.15 -1.1 -3.9 -0.6 Q-2.9 -2.45 -2.4 -4.55 -2.2 -5.5 -2.15 -6.4 -1.9 -8.85 -2.2 -11.25 -2.8 -17.95 -6.4 -23.75 L-13.8 -36.5 Q-15.55 -39.65 -15.35 -43.2 -15.25 -45.15 -14.0 -46.55 L-11.3 -49.35 Q-10.2 -48.2 -8.5 -47.6 L-8.5 -47.55 M0.45 -28.05 Q-0.45 -28.85 -1.4 -28.5 L-1.5 -28.2 -1.45 -27.9 -1.45 -27.85 -0.8 -26.45 -0.55 -24.45 Q-0.7 -24.2 -1.0 -24.2 L-1.5 -24.1 -2.65 -24.85 Q-3.4 -25.8 -3.55 -26.9 L-3.0 -28.1 Q-2.6 -28.5 -2.8 -28.9 L-2.85 -28.95 -2.95 -29.05 -3.85 -29.15 Q-6.65 -27.95 -8.15 -30.15 L-8.15 -30.25 -8.2 -30.55 -8.25 -30.65 -7.75 -31.25 Q-6.45 -32.35 -4.5 -32.1 L-4.4 -32.1 -4.3 -32.15 -4.25 -32.35 -4.25 -32.45 -4.25 -32.6 Q-4.5 -33.25 -5.1 -33.75 -7.05 -35.4 -5.9 -37.45 L-5.7 -37.55 -4.45 -37.8 -4.3 -37.7 -2.8 -34.7 -2.65 -32.75 Q-2.15 -32.45 -1.85 -32.9 L-1.45 -32.2 -0.5 -30.4 0.4 -28.1 0.45 -28.05 M-3.4 -31.95 L-4.0 -31.35 Q-4.1 -29.1 -1.75 -28.9 -1.35 -29.0 -1.2 -29.4 -0.25 -31.7 -2.95 -32.1 L-3.4 -31.95" fill="url(#gradient2)" fill-rule="evenodd" stroke="none"/>
      <path d="M-4.95 -39.05 Q-2.45 -38.65 -1.75 -36.05 L-1.75 -36.0 Q1.6 -38.45 3.95 -35.2 4.7 -34.1 4.05 -32.95 L2.8 -31.55 Q6.9 -29.9 5.25 -26.3 4.9 -25.45 3.9 -25.25 L1.6 -25.35 0.6 -25.8 Q1.35 -22.8 -1.85 -23.15 -2.95 -23.25 -3.65 -24.1 -5.2 -25.9 -4.65 -27.45 L-6.75 -27.6 Q-8.4 -28.05 -9.35 -29.6 L-9.45 -29.95 -9.45 -31.2 -9.35 -31.45 -8.3 -32.55 Q-7.75 -33.1 -7.0 -33.3 L-6.55 -33.3 -7.15 -34.35 Q-8.7 -37.9 -5.0 -39.05 L-4.95 -39.05 M-4.3 -37.7 L-4.45 -37.8 -5.7 -37.55 -5.9 -37.45 Q-7.05 -35.4 -5.1 -33.75 -4.5 -33.25 -4.25 -32.6 L-4.25 -32.45 -4.25 -32.35 -4.3 -32.15 -4.4 -32.1 -4.5 -32.1 Q-6.45 -32.35 -7.75 -31.25 L-8.25 -30.65 -8.2 -30.55 -8.15 -30.25 -8.15 -30.15 Q-6.65 -27.95 -3.85 -29.15 L-2.95 -29.05 -2.85 -28.95 -2.8 -28.9 Q-2.6 -28.5 -3.0 -28.1 L-3.55 -26.9 Q-3.4 -25.8 -2.65 -24.85 L-1.5 -24.1 -1.0 -24.2 Q-0.7 -24.2 -0.55 -24.45 L-0.8 -26.45 -1.45 -27.85 -1.45 -27.9 -1.5 -28.2 -1.4 -28.5 Q-0.45 -28.85 0.45 -28.05 L0.8 -27.6 Q1.35 -26.85 2.2 -26.55 L2.8 -26.25 Q4.2 -26.2 4.65 -27.4 L4.75 -27.9 Q3.5 -31.05 -0.3 -30.65 L-0.55 -30.8 -0.6 -30.9 -0.65 -31.1 -0.55 -31.35 Q1.65 -31.9 2.8 -33.8 3.4 -34.75 2.3 -35.4 L-0.05 -35.65 Q-1.15 -34.5 -1.8 -33.0 L-1.85 -32.9 Q-2.15 -32.45 -2.65 -32.75 L-2.8 -34.7 -3.3 -36.45 Q-3.6 -37.25 -4.3 -37.7 M-11.6 1.85 L-11.55 2.25 -15.5 2.85 -11.6 1.85" fill="#505ff6" fill-rule="evenodd" stroke="none"/>
      <path d="M-8.45 -47.6 L-8.5 -47.55 -8.5 -47.6 -8.45 -47.6" fill="#39fd7b" fill-rule="evenodd" stroke="none"/>
      <path d="M-3.4 -31.95 L-2.95 -32.1 Q-0.25 -31.7 -1.2 -29.4 -1.35 -29.0 -1.75 -28.9 -4.1 -29.1 -4.0 -31.35 L-3.4 -31.95 M5.8 -26.9 L5.9 -27.2 6.05 -27.4 6.3 -27.45 Q7.3 -26.95 8.1 -26.25 7.85 -28.0 9.3 -29.7 L9.6 -30.7 Q9.6 -31.15 10.0 -31.45 L10.1 -31.5 10.3 -31.55 10.55 -31.45 10.7 -31.4 Q11.05 -30.75 10.8 -30.1 10.7 -29.95 10.75 -29.8 12.4 -26.6 9.85 -24.25 L9.75 -24.15 Q10.6 -22.5 10.6 -20.25 L10.6 -20.15 10.6 -19.15 Q10.6 -18.6 10.25 -18.2 L9.7 -18.3 Q9.6 -22.3 7.2 -25.3 L5.85 -26.75 5.8 -26.9" fill="#0ed524" fill-rule="evenodd" stroke="none"/>
      <path d="M-11.6 1.85 Q-1.95 -0.25 7.8 0.45 L15.2 1.4 Q22.65 2.75 29.95 4.85 31.2 5.2 32.25 5.9 L32.55 6.1 33.95 6.95 34.9 15.0 Q35.8 23.0 31.5 29.55 L29.85 31.3 28.7 32.3 Q26.95 33.25 25.0 33.7 L14.3 34.3 Q8.7 33.7 3.6 31.5 1.0 30.35 -1.35 28.9 L-1.35 28.8 -1.4 28.5 -1.55 28.35 -1.7 28.3 -2.2 28.3 Q-5.55 26.0 -8.35 22.95 -12.15 18.8 -17.05 16.5 L-16.65 16.65 Q-21.9 14.1 -27.7 13.45 -30.4 13.15 -32.7 14.6 -34.45 15.75 -33.95 17.2 L-32.9 16.15 -32.95 16.95 Q-32.85 18.85 -32.35 20.7 -34.15 19.3 -34.85 17.05 -35.15 16.1 -34.95 15.15 -34.05 11.25 -30.4 9.2 -27.5 7.55 -24.45 6.4 L-15.65 4.05 -15.45 3.9 -15.3 3.8 -11.35 3.15 0.65 2.8 6.85 3.35 13.55 4.2 13.7 4.15 13.8 4.05 14.15 4.1 14.2 4.1 Q13.3 3.45 12.1 3.2 L7.2 2.45 -2.6 1.6 -11.55 2.25 -11.6 1.85" fill="url(#gradient3)" fill-rule="evenodd" stroke="none"/>
      <path d="M-10.95 22.7 L-10.75 22.45 -9.95 23.25 Q-7.4 25.95 -4.4 28.15 L-8.45 27.1 -8.6 26.75 -8.85 26.65 -10.95 22.7" fill="#5f5300" fill-rule="evenodd" stroke="none"/>
    </g>
    <linearGradient gradientTransform="matrix(0.026, 9.0E-4, -0.0013, 0.035, 34.35, -22.9)" gradientUnits="userSpaceOnUse" id="gradient1" spreadMethod="pad" x1="-819.2" x2="819.2">
      <stop offset="0.0" stop-color="#39fd7b"/>
      <stop offset="1.0" stop-color="#000000"/>
    </linearGradient>
    <linearGradient gradientTransform="matrix(-0.0135, 0.005, -0.0103, -0.0279, -7.85, -14.0)" gradientUnits="userSpaceOnUse" id="gradient2" spreadMethod="pad" x1="-819.2" x2="819.2">
      <stop offset="0.0" stop-color="#39fd7b"/>
      <stop offset="1.0" stop-color="#000000"/>
    </linearGradient>
    <linearGradient gradientTransform="matrix(0.0248, 0.0166, -0.0116, 0.0173, 29.2, 17.2)" gradientUnits="userSpaceOnUse" id="gradient3" spreadMethod="pad" x1="-819.2" x2="819.2">
      <stop offset="0.0" stop-color="#505ff6"/>
      <stop offset="1.0" stop-color="#000000"/>
    </linearGradient>
    <g id="sprite4" transform="matrix(1.0, 0.0, 0.0, 1.0, 32.8, 36.3)">
      <use height="72.6" transform="matrix(1.0, 0.0, 0.0, 1.0, -32.8, -36.3)" width="65.6" xlink:href="#shape3"/>
    </g>
    <g id="shape3" transform="matrix(1.0, 0.0, 0.0, 1.0, 32.8, 36.3)">
      <path d="M30.5 -26.8 Q25.4 -21.45 19.85 -16.6 L13.65 -11.05 Q14.4 -10.25 14.8 -9.25 17.55 -4.9 17.2 0.7 L16.8 2.8 17.05 3.1 17.1 3.1 17.45 3.6 Q20.0 7.3 17.7 11.7 L16.95 13.0 15.95 14.2 14.25 15.9 13.65 16.7 Q8.35 21.9 3.8 27.75 1.4 30.8 -1.7 33.1 L-1.9 33.2 Q-5.8 36.2 -11.35 36.3 L-13.25 36.3 Q-15.25 36.45 -17.3 35.6 -22.3 33.45 -25.9 29.55 L-26.5 28.8 -26.8 28.35 -27.65 27.1 -27.95 26.5 Q-31.85 24.5 -32.6 19.8 -33.0 17.45 -32.65 15.2 L-32.45 14.2 Q-32.15 12.6 -31.45 11.1 L-30.7 9.6 Q-31.1 7.6 -30.6 5.65 -30.2 3.75 -28.75 2.6 -28.25 1.95 -27.45 1.65 L-26.4 1.35 -26.15 1.3 Q-23.95 1.05 -22.45 2.4 -17.95 0.8 -13.15 0.8 L-12.9 0.8 -11.85 0.8 -10.95 0.3 Q-11.2 -2.55 -10.45 -5.15 L-10.7 -5.2 -10.55 -5.65 Q-12.15 -5.9 -13.0 -7.85 L-12.85 -8.3 -12.75 -8.35 -12.65 -8.15 -12.65 -8.05 Q-11.65 -6.8 -10.25 -6.4 L-10.25 -6.45 -10.2 -6.55 Q-11.5 -7.2 -12.1 -8.6 -12.45 -9.3 -12.05 -9.6 -11.3 -8.0 -9.95 -7.3 L-9.9 -7.45 -9.8 -7.55 -10.0 -7.75 Q-11.2 -9.1 -10.85 -10.55 -10.6 -9.35 -9.75 -8.4 L-9.75 -8.3 -9.65 -8.25 -8.9 -10.7 -7.95 -12.4 Q-6.25 -14.55 -3.7 -15.55 -2.9 -15.95 -1.95 -16.2 L-1.05 -16.35 Q-2.95 -22.65 -2.95 -29.5 -3.0 -31.75 -1.6 -33.5 L-1.0 -34.05 0.2 -34.8 0.7 -35.0 Q3.45 -34.85 4.25 -32.05 6.25 -24.85 4.9 -17.4 L4.7 -16.2 Q6.85 -15.75 8.8 -14.75 11.65 -20.1 15.0 -25.2 18.2 -30.0 22.7 -33.75 25.35 -36.0 28.7 -36.3 32.7 -36.3 32.8 -32.7 32.85 -29.25 30.5 -26.8 M-7.95 -10.1 L-7.8 -10.2 -7.65 -10.25 -7.2 -10.2 -6.85 -10.1 -6.7 -10.0 Q-5.4 -7.3 -6.25 -4.25 L-7.75 0.35 -5.8 1.45 -5.65 1.55 -5.5 1.7 -5.4 1.6 Q-5.85 -1.4 -4.75 -4.5 -3.85 -7.1 -2.05 -8.85 -0.55 -11.05 2.2 -11.2 4.6 -10.0 5.35 -7.7 6.4 -8.0 7.45 -8.6 L7.5 -8.65 Q6.7 -10.1 5.35 -11.35 L4.45 -12.25 1.75 -12.95 Q2.4 -13.55 3.55 -13.35 6.55 -12.75 8.05 -9.95 L8.1 -9.9 8.3 -9.35 8.45 -9.45 8.5 -9.45 8.35 -9.05 8.5 -7.8 8.35 -6.5 8.15 -7.1 Q7.1 -5.65 5.65 -5.35 L5.65 -5.0 Q7.3 -5.1 8.8 -6.2 L8.9 -6.2 Q8.05 -4.5 6.15 -4.0 L6.05 -3.95 5.55 -3.85 5.25 -2.0 Q4.65 1.2 2.9 3.65 5.4 4.65 7.95 4.75 11.35 4.85 14.7 3.25 L15.8 2.7 16.0 1.35 16.2 0.8 Q16.35 -3.95 14.55 -8.05 14.35 -8.15 14.3 -8.4 L13.3 -9.8 12.9 -10.35 12.5 -10.0 12.45 -9.7 12.35 -9.5 Q10.9 -9.45 9.9 -10.05 8.75 -10.75 8.3 -12.3 L8.1 -12.45 8.0 -12.55 7.95 -12.8 8.0 -13.2 8.1 -13.5 8.35 -13.9 Q4.2 -15.95 -0.95 -15.3 L-3.0 -14.95 Q-4.4 -14.25 -5.6 -13.15 L-4.45 -13.3 Q-4.15 -12.35 -5.9 -11.85 L-7.2 -11.45 -7.95 -10.15 -8.0 -10.1 -7.95 -10.1 M5.6 -6.35 Q6.9 -6.65 8.1 -7.25 L7.75 -8.15 Q6.95 -7.25 5.55 -6.75 L5.6 -6.35 M1.1 -10.25 L-0.05 -9.6 -0.55 -9.05 -0.3 -9.0 Q1.15 -8.55 2.25 -7.5 L4.0 -7.5 4.25 -7.5 Q3.7 -9.0 2.45 -10.2 L1.1 -10.25 M0.6 -7.85 Q-0.1 -8.4 -0.9 -8.55 L-1.1 -8.6 Q-2.7 -7.05 -3.45 -4.85 -3.5 -4.65 -3.7 -4.6 L-4.2 -3.0 -3.65 -3.3 -3.4 -3.45 Q0.05 -3.2 0.3 0.35 L0.35 0.65 -2.85 0.55 -3.3 0.7 -3.4 0.8 -3.4 0.85 Q-2.45 1.7 -1.05 2.2 L0.0 2.55 -0.7 3.95 -1.4 4.8 Q-1.85 5.1 -2.25 5.2 L-1.7 6.05 -0.7 5.9 -0.15 5.45 1.9 3.3 Q3.25 1.55 4.0 -0.6 L4.15 -1.1 4.05 -1.2 4.0 -1.5 Q3.35 -4.2 1.75 -6.4 L0.6 -7.85 M4.35 -6.5 L3.2 -6.45 3.2 -6.4 3.95 -6.15 4.4 -6.15 4.6 -6.2 4.55 -6.5 4.35 -6.5 M3.95 -5.2 L4.4 -5.1 4.45 -5.25 3.85 -5.35 3.95 -5.2 M15.1 10.75 L15.05 10.75 15.05 10.5 15.1 10.6 15.1 10.65 15.1 10.75 M-31.3 13.65 Q-32.35 18.6 -29.65 23.15 L-28.85 24.0 -28.75 24.1 -28.55 24.7 -26.7 26.75 -26.5 27.1 -24.4 29.8 Q-21.25 33.2 -16.4 34.7 L-13.05 35.4 Q-6.05 35.6 -0.75 31.2 L-0.7 31.15 0.1 30.35 2.95 27.35 6.25 23.55 7.65 21.85 Q9.75 19.2 12.1 16.85 L16.55 11.65 16.9 11.2 Q17.9 9.95 17.9 8.4 L17.85 7.55 17.7 6.6 Q17.35 4.9 16.3 3.5 10.85 7.2 4.15 5.25 L3.0 4.8 2.3 4.4 1.45 5.3 0.55 6.1 0.0 6.4 -0.25 6.5 -0.8 6.75 -1.25 6.9 Q-0.2 8.95 0.3 11.3 L0.35 11.6 Q0.45 12.3 0.15 12.9 L-0.25 11.55 -0.55 10.75 Q-2.1 6.15 -5.45 3.2 -6.45 2.3 -7.55 1.6 -8.65 1.1 -9.55 1.05 -12.05 0.95 -13.25 3.9 L-13.75 5.35 Q-14.35 7.65 -14.0 10.05 L-13.8 11.1 -13.8 11.15 -13.9 11.65 -14.0 11.75 -14.1 11.7 -14.35 11.45 -14.7 10.95 -14.75 10.85 -14.85 9.6 -14.9 7.85 Q-14.9 6.45 -14.55 5.15 L-14.35 4.55 Q-13.8 3.1 -12.85 1.85 L-12.8 1.85 -12.7 1.7 -12.7 1.65 -12.35 1.25 -12.75 1.6 -12.9 1.8 -12.9 1.85 -15.3 1.9 Q-19.5 2.2 -23.45 3.85 L-24.4 4.1 -24.5 4.0 -24.55 3.8 -24.55 3.75 -24.25 3.45 -24.2 3.35 -24.15 3.3 -24.15 3.25 -23.95 3.2 -23.7 3.05 -23.55 3.0 -23.65 2.9 -23.6 2.55 -26.2 2.4 -27.5 2.9 -27.75 3.0 Q-29.4 4.75 -29.5 7.15 L-29.5 7.95 -29.5 8.1 -29.1 7.65 -28.75 7.55 Q-28.75 8.1 -29.05 8.7 L-29.6 9.6 -29.6 9.65 -29.65 9.85 -29.75 9.85 -29.8 9.85 -30.25 10.4 -30.95 12.3 -31.15 13.0 -31.3 13.65 M0.15 1.35 L0.3 1.3 0.3 1.4 0.15 1.35 M-10.4 -1.3 L-10.35 -1.25 -10.4 -0.9 -10.25 -0.15 -10.25 0.1 -9.85 0.1 -9.95 -1.0 -8.5 -0.7 -8.35 -0.75 -8.05 -1.05 -8.05 -1.1 Q-8.65 -1.85 -9.6 -2.15 L-9.75 -2.05 -9.8 -2.0 -9.35 -3.0 -8.65 -3.75 -8.55 -3.8 -8.4 -3.85 -7.95 -3.85 -7.9 -3.85 -7.65 -3.8 -7.4 -3.75 Q-7.15 -5.25 -7.05 -6.75 L-7.5 -6.65 -7.9 -6.5 -8.05 -6.35 -8.65 -6.15 -8.9 -6.0 -8.9 -5.85 -8.95 -5.75 -9.35 -5.65 -9.45 -5.55 -9.7 -4.75 Q-10.2 -3.15 -10.35 -1.4 L-10.4 -1.3 M-7.2 -9.45 L-7.5 -9.5 -7.75 -9.1 -7.75 -9.05 -8.5 -7.75 -7.9 -7.35 -7.45 -7.45 -7.4 -7.5 -7.0 -7.5 -6.95 -8.55 -6.9 -9.0 -7.15 -9.3 -7.2 -9.45 M-7.75 6.15 Q-5.45 7.4 -4.45 9.95 -3.55 12.2 -4.9 14.0 L-5.0 14.05 Q-6.25 14.4 -7.35 13.6 -9.7 11.3 -9.45 8.05 L-9.4 7.4 -9.3 7.2 -9.2 7.1 -9.2 6.9 -9.15 6.75 -8.75 6.35 -8.55 6.2 -7.95 6.15 -7.75 6.15 M-20.65 28.75 Q-16.7 29.5 -14.0 32.15 L-13.95 32.2 Q-14.3 34.6 -16.9 33.45 -19.85 32.2 -21.1 29.2 L-21.0 29.05 -20.85 28.85 -20.65 28.75 M-15.65 32.85 L-14.9 32.6 Q-16.75 30.6 -19.4 30.2 -18.2 32.25 -15.85 32.8 L-15.65 32.85" fill="#000000" fill-rule="evenodd" stroke="none"/>
      <path d="M7.95 4.75 Q5.4 4.65 2.9 3.65 4.65 1.2 5.25 -2.0 L5.55 -3.85 6.05 -3.95 6.15 -4.0 Q8.05 -4.5 8.9 -6.2 L8.8 -6.2 Q7.3 -5.1 5.65 -5.0 L5.65 -5.35 Q7.1 -5.65 8.15 -7.1 L8.35 -6.5 8.5 -7.8 8.35 -9.05 8.5 -9.45 8.45 -9.45 8.3 -9.35 8.1 -9.9 8.05 -9.95 Q6.55 -12.75 3.55 -13.35 2.4 -13.55 1.75 -12.95 L4.45 -12.25 5.35 -11.35 Q6.7 -10.1 7.5 -8.65 L7.45 -8.6 Q6.4 -8.0 5.35 -7.7 4.6 -10.0 2.2 -11.2 -0.55 -11.05 -2.05 -8.85 -3.85 -7.1 -4.75 -4.5 -5.85 -1.4 -5.4 1.6 L-5.5 1.7 -5.65 1.55 -5.8 1.45 -7.75 0.35 -6.25 -4.25 Q-5.4 -7.3 -6.7 -10.0 L-6.85 -10.1 -7.2 -10.2 -7.65 -10.25 -7.8 -10.2 -7.95 -10.1 -7.95 -10.15 -7.2 -11.45 -5.9 -11.85 Q-4.15 -12.35 -4.45 -13.3 L-5.6 -13.15 Q-4.4 -14.25 -3.0 -14.95 L-0.95 -15.3 Q4.2 -15.95 8.35 -13.9 L8.1 -13.5 8.0 -13.2 7.95 -12.8 8.0 -12.55 8.1 -12.45 8.3 -12.3 Q8.75 -10.75 9.9 -10.05 L10.35 -8.05 10.5 -7.1 Q11.15 -2.1 8.65 2.15 L8.65 2.2 8.8 2.3 Q8.9 3.7 7.95 4.75 M1.1 -10.25 L2.45 -10.2 Q3.7 -9.0 4.25 -7.5 L4.0 -7.5 2.25 -7.5 Q1.15 -8.55 -0.3 -9.0 L-0.55 -9.05 -0.05 -9.6 1.1 -10.25 M5.6 -6.35 L5.55 -6.75 Q6.95 -7.25 7.75 -8.15 L8.1 -7.25 Q6.9 -6.65 5.6 -6.35 M3.95 -5.2 L3.85 -5.35 4.45 -5.25 4.4 -5.1 3.95 -5.2 M4.35 -6.5 L4.55 -6.5 4.6 -6.2 4.4 -6.15 3.95 -6.15 3.2 -6.4 3.2 -6.45 4.35 -6.5 M-7.2 -9.45 L-7.15 -9.3 -6.9 -9.0 -6.95 -8.55 -7.0 -7.5 -7.4 -7.5 -7.45 -7.45 -7.9 -7.35 -8.5 -7.75 -7.75 -9.05 -7.75 -9.1 -7.5 -9.5 -7.2 -9.45" fill="#75640a" fill-rule="evenodd" stroke="none"/>
      <path d="M0.6 -7.85 L1.75 -6.4 Q3.35 -4.2 4.0 -1.5 L4.05 -1.2 4.15 -1.1 4.0 -0.6 Q3.25 1.55 1.9 3.3 L-0.15 5.45 -0.7 5.9 -1.7 6.05 -2.25 5.2 Q-1.85 5.1 -1.4 4.8 L-0.7 3.95 0.0 2.55 -1.05 2.2 Q-2.45 1.7 -3.4 0.85 L-3.4 0.8 -3.3 0.7 -2.85 0.55 0.35 0.65 0.3 0.35 Q0.05 -3.2 -3.4 -3.45 L-3.65 -3.3 -4.2 -3.0 -3.7 -4.6 Q-3.5 -4.65 -3.45 -4.85 -2.7 -7.05 -1.1 -8.6 L-0.9 -8.55 Q-0.1 -8.4 0.6 -7.85 M0.15 1.35 L0.3 1.4 0.3 1.3 0.15 1.35 M-10.4 -1.3 L-10.35 -1.4 Q-10.2 -3.15 -9.7 -4.75 L-9.45 -5.55 -9.35 -5.65 -8.95 -5.75 -8.9 -5.85 -8.9 -6.0 -8.65 -6.15 -8.05 -6.35 -7.9 -6.5 -7.5 -6.65 -7.05 -6.75 Q-7.15 -5.25 -7.4 -3.75 L-7.65 -3.8 -7.9 -3.85 -7.95 -3.85 -8.4 -3.85 -8.55 -3.8 -8.65 -3.75 -9.35 -3.0 -9.8 -2.0 -9.75 -2.05 -9.6 -2.15 Q-8.65 -1.85 -8.05 -1.1 L-8.05 -1.05 -8.35 -0.75 -8.5 -0.7 -9.95 -1.0 -9.85 0.1 -10.25 0.1 -10.25 -0.15 -10.4 -0.9 -10.35 -1.25 -10.4 -1.3" fill="#ffffff" fill-rule="evenodd" stroke="none"/>
      <path d="M7.95 4.75 Q8.9 3.7 8.8 2.3 L8.65 2.2 8.65 2.15 Q11.15 -2.1 10.5 -7.1 L10.35 -8.05 9.9 -10.05 Q10.9 -9.45 12.35 -9.5 L12.45 -9.7 12.5 -10.0 12.9 -10.35 13.3 -9.8 14.3 -8.4 Q14.35 -8.15 14.55 -8.05 16.35 -3.95 16.2 0.8 L16.0 1.35 15.8 2.7 14.7 3.25 Q11.35 4.85 7.95 4.75" fill="#5f5300" fill-rule="evenodd" stroke="none"/>
      <path d="M15.05 10.5 L15.05 10.75 15.1 10.75 15.45 10.3 16.0 10.8 16.1 10.95 16.55 11.65 12.1 16.85 Q9.75 19.2 7.65 21.85 L6.25 23.55 2.95 27.35 0.1 30.35 -0.7 31.15 -0.75 31.2 Q-6.05 35.6 -13.05 35.4 L-16.4 34.7 Q-21.25 33.2 -24.4 29.8 L-26.5 27.1 -26.4 27.0 -26.7 26.75 -28.55 24.7 -28.75 24.1 -28.85 24.0 -29.65 23.15 Q-32.35 18.6 -31.3 13.65 L-29.65 12.9 -28.0 12.35 -26.6 12.1 -21.5 12.55 Q-19.5 12.9 -17.6 13.65 -16.7 14.0 -16.4 14.45 L-15.65 15.15 Q-12.75 17.0 -9.6 18.15 L-8.6 18.4 -5.25 18.75 -3.6 18.85 -2.55 18.7 Q2.45 17.55 4.65 14.25 L5.4 13.55 Q7.3 12.45 8.65 10.25 L9.15 9.7 9.35 9.55 10.35 9.1 10.45 9.25 Q11.55 8.65 12.85 8.65 15.05 9.0 15.05 10.5 M4.05 21.25 L4.15 21.2 3.55 21.6 3.7 21.6 4.05 21.25 M-14.85 9.6 L-15.25 9.45 -15.6 9.35 Q-16.45 9.0 -17.05 8.3 L-17.5 7.6 -17.85 6.55 -17.95 6.05 Q-18.15 4.8 -17.45 3.85 L-17.1 3.5 Q-16.3 2.8 -15.25 2.4 -14.2 1.95 -12.9 1.85 L-12.85 1.85 Q-13.8 3.1 -14.35 4.55 L-14.55 5.15 Q-14.9 6.45 -14.9 7.85 L-14.85 9.6 M-20.65 28.75 L-20.85 28.85 -21.0 29.05 -21.1 29.2 Q-19.85 32.2 -16.9 33.45 -14.3 34.6 -13.95 32.2 L-14.0 32.15 Q-16.7 29.5 -20.65 28.75 M-6.3 29.15 L-6.35 29.1 -6.65 29.4 -6.25 29.2 -6.3 29.15 M-10.75 30.5 L-10.8 30.4 -10.85 30.45 -10.95 30.6 -10.7 30.55 -10.75 30.5" fill="#c19b6b" fill-rule="evenodd" stroke="none"/>
      <path d="M15.05 10.5 Q15.05 9.0 12.85 8.65 11.55 8.65 10.45 9.25 L10.35 9.1 9.35 9.55 9.15 9.7 8.65 10.25 Q7.3 12.45 5.4 13.55 L4.65 14.25 Q2.45 17.55 -2.55 18.7 L-3.6 18.85 -5.25 18.75 -8.6 18.4 -9.6 18.15 Q-12.75 17.0 -15.65 15.15 L-16.4 14.45 Q-16.7 14.0 -17.6 13.65 -19.5 12.9 -21.5 12.55 L-26.6 12.1 -28.0 12.35 -29.65 12.9 -31.3 13.65 -31.15 13.0 -30.95 12.3 -30.25 10.4 -29.8 9.85 -29.75 9.85 -29.65 9.85 -29.6 9.65 -29.6 9.6 -29.05 8.7 Q-28.75 8.1 -28.75 7.55 L-29.1 7.65 -29.5 8.1 -29.5 7.95 -29.5 7.15 Q-29.4 4.75 -27.75 3.0 L-27.5 2.9 -26.2 2.4 -23.6 2.55 -23.65 2.9 -23.55 3.0 -23.7 3.05 -23.95 3.2 -24.15 3.25 -24.15 3.3 -24.2 3.35 -24.25 3.45 -24.55 3.75 -24.55 3.8 -24.5 4.0 -24.4 4.1 -23.45 3.85 Q-19.5 2.2 -15.3 1.9 L-12.9 1.85 -12.9 1.8 -12.75 1.6 -12.7 1.65 -12.7 1.7 -12.8 1.85 -12.85 1.85 -12.9 1.85 Q-14.2 1.95 -15.25 2.4 -16.3 2.8 -17.1 3.5 L-17.45 3.85 Q-18.15 4.8 -17.95 6.05 L-17.85 6.55 -17.5 7.6 -17.05 8.3 Q-16.45 9.0 -15.6 9.35 L-15.25 9.45 -14.85 9.6 -14.75 10.85 -14.7 10.95 -14.35 11.45 -14.1 11.7 -14.0 11.75 -13.9 11.65 -13.8 11.15 -13.8 11.1 -14.0 10.05 Q-14.35 7.65 -13.75 5.35 L-13.25 3.9 Q-12.05 0.95 -9.55 1.05 -8.65 1.1 -7.55 1.6 -6.45 2.3 -5.45 3.2 -2.1 6.15 -0.55 10.75 L-0.25 11.55 0.15 12.9 Q0.45 12.3 0.35 11.6 L0.3 11.3 Q-0.2 8.95 -1.25 6.9 L-0.8 6.75 -0.25 6.5 0.0 6.4 0.55 6.1 1.45 5.3 2.3 4.4 3.0 4.8 4.15 5.25 Q10.85 7.2 16.3 3.5 17.35 4.9 17.7 6.6 L17.85 7.55 17.9 8.4 Q17.9 9.95 16.9 11.2 L16.55 11.65 16.1 10.95 16.0 10.8 15.45 10.3 15.1 10.75 15.1 10.65 15.1 10.6 15.05 10.5 M-26.7 26.75 L-26.4 27.0 -26.5 27.1 -26.7 26.75 M4.05 21.25 L3.7 21.6 3.55 21.6 4.15 21.2 4.05 21.25 M-7.75 6.15 L-7.95 6.15 -8.55 6.2 -8.75 6.35 -9.15 6.75 -9.2 6.9 -9.2 7.1 -9.3 7.2 -9.4 7.4 -9.45 8.05 Q-9.7 11.3 -7.35 13.6 -6.25 14.4 -5.0 14.05 L-4.9 14.0 Q-3.55 12.2 -4.45 9.95 -5.45 7.4 -7.75 6.15 M-10.75 30.5 L-10.7 30.55 -10.95 30.6 -10.85 30.45 -10.8 30.4 -10.75 30.5 M-6.3 29.15 L-6.25 29.2 -6.65 29.4 -6.35 29.1 -6.3 29.15" fill="#cfb392" fill-rule="evenodd" stroke="none"/>
      <path d="M-15.65 32.85 L-15.85 32.8 Q-18.2 32.25 -19.4 30.2 -16.75 30.6 -14.9 32.6 L-15.65 32.85" fill="#660000" fill-rule="evenodd" stroke="none"/>
    </g>
    <g id="sprite5" transform="matrix(1.0, 0.0, 0.0, 1.0, 26.25, 33.3)">
      <use height="24.2" transform="matrix(0.9704, -0.2385, 0.2385, 0.9704, -18.2449, 8.6176)" width="39.9" xlink:href="#sprite6"/>
      <use height="41.15" transform="matrix(1.0, 0.0, 0.0, 1.0, -26.25, -32.15)" width="48.2" xlink:href="#sprite7"/>
    </g>
    <g id="sprite6" transform="matrix(1.0, 0.0, 0.0, 1.0, 19.95, 12.1)">
      <use height="24.2" transform="matrix(1.0, 0.0, 0.0, 1.0, -19.95, -12.1)" width="39.9" xlink:href="#shape4"/>
    </g>
    <g id="shape4" transform="matrix(1.0, 0.0, 0.0, 1.0, 19.95, 12.1)">
      <path d="M18.65 -3.35 L18.9 -3.1 18.95 -3.0 Q15.35 -0.9 11.25 0.3 L11.25 0.35 9.25 0.9 5.05 1.8 1.95 2.3 Q2.0 6.95 -0.4 10.9 -0.9 11.7 -1.75 12.1 -5.05 11.45 -7.55 9.4 -15.4 5.2 -19.0 -3.65 -20.15 -6.45 -19.9 -9.45 L-19.55 -11.05 -18.05 -12.0 -17.45 -12.1 Q-16.4 -11.85 -16.05 -11.0 -10.8 -6.05 -3.4 -7.8 L-0.85 -8.35 -0.8 -8.4 -0.65 -8.5 -0.2 -8.45 -0.15 -8.5 Q1.3 -7.7 1.7 -6.2 L5.8 -6.8 10.3 -7.7 15.9 -9.7 16.45 -9.9 16.95 -9.6 17.0 -9.55 16.95 -9.5 Q16.1 -8.3 14.35 -7.85 L11.25 -6.95 9.25 -6.4 8.2 -6.35 5.65 -5.75 5.1 -5.6 -0.9 -5.3 Q-2.8 -2.0 -3.15 1.8 L4.7 0.85 9.2 -0.1 9.3 -0.2 11.25 -0.85 Q14.45 -1.9 17.55 -3.1 L18.45 -3.45 18.65 -3.35 M-10.25 6.4 L-8.75 7.55 -8.5 7.7 -8.25 7.95 -7.1 8.7 -6.55 8.8 -4.45 10.4 Q-3.05 11.35 -1.65 10.85 L-0.85 10.3 Q1.0 6.7 0.95 2.55 L0.95 2.4 -3.15 2.8 -3.2 3.95 Q-3.15 6.0 -2.6 8.0 L-2.6 8.05 -2.15 8.85 -1.4 7.2 -1.35 7.15 Q-1.2 5.7 -0.6 4.5 -0.6 4.4 -0.5 4.45 -0.4 6.35 -0.9 8.35 L-0.9 8.45 -1.6 9.7 -1.65 9.8 -2.45 9.95 -2.8 9.6 -2.8 9.8 -3.15 9.35 Q-3.75 7.55 -3.85 5.7 -4.55 -0.65 -1.5 -6.3 L-1.35 -6.5 -0.6 -6.8 Q-0.3 -6.65 -0.35 -6.25 L-0.4 -6.15 -0.5 -5.95 0.8 -6.1 0.15 -6.95 0.0 -6.8 -0.15 -6.85 -0.45 -7.0 -0.6 -7.2 -1.15 -7.35 Q-8.3 -4.7 -14.65 -8.55 -16.15 -9.5 -17.15 -10.9 L-17.25 -11.0 -17.3 -11.05 -17.65 -11.15 -18.35 -10.8 -18.8 -10.45 Q-19.6 -6.55 -17.7 -2.9 -16.0 0.35 -13.65 3.15 L-10.75 6.1 -10.35 6.5 -10.05 6.7 -10.25 6.4 M-10.65 5.75 L-10.65 5.8 -10.55 5.9 -10.65 5.75" fill="#000000" fill-rule="evenodd" stroke="none"/>
      <path d="M16.95 -9.5 L18.55 -9.2 19.4 -8.4 19.6 -8.0 19.9 -7.15 19.95 -6.5 Q19.95 -5.2 19.3 -4.25 L18.85 -3.6 18.65 -3.35 18.45 -3.45 17.55 -3.1 Q14.45 -1.9 11.25 -0.85 L9.3 -0.2 9.2 -0.1 4.7 0.85 Q3.8 -2.0 4.8 -4.9 L5.1 -5.6 5.65 -5.75 8.2 -6.35 9.25 -6.4 11.25 -6.95 14.35 -7.85 Q16.1 -8.3 16.95 -9.5" fill="#75640a" fill-rule="evenodd" stroke="none"/>
      <path d="M-10.35 6.5 L-10.75 6.1 -13.65 3.15 Q-16.0 0.35 -17.7 -2.9 -19.6 -6.55 -18.8 -10.45 L-18.35 -10.8 -17.65 -11.15 -17.3 -11.05 -17.25 -11.0 -17.15 -10.9 Q-16.15 -9.5 -14.65 -8.55 -8.3 -4.7 -1.15 -7.35 L-0.6 -7.2 -0.45 -7.0 -0.15 -6.85 0.0 -6.8 0.15 -6.95 0.8 -6.1 -0.5 -5.95 -0.4 -6.15 -0.35 -6.25 Q-0.3 -6.65 -0.6 -6.8 L-1.35 -6.5 -1.5 -6.3 Q-4.55 -0.65 -3.85 5.7 -3.75 7.55 -3.15 9.35 L-2.8 9.8 -2.8 9.6 -2.45 9.95 -1.65 9.8 -1.6 9.7 -0.9 8.45 -0.9 8.35 Q-0.4 6.35 -0.5 4.45 -0.6 4.4 -0.6 4.5 -1.2 5.7 -1.35 7.15 L-1.4 7.2 -2.15 8.85 -2.6 8.05 -2.6 8.0 Q-3.15 6.0 -3.2 3.95 L-3.15 2.8 0.95 2.4 0.95 2.55 Q1.0 6.7 -0.85 10.3 L-1.65 10.85 Q-3.05 11.35 -4.45 10.4 L-6.55 8.8 -7.1 8.7 -8.25 7.95 -8.5 7.7 -8.75 7.55 -10.25 6.4 -10.35 6.5 M-10.65 5.75 L-10.55 5.9 -10.65 5.8 -10.65 5.75" fill="url(#gradient4)" fill-rule="evenodd" stroke="none"/>
      <path d="M4.7 0.85 L-3.15 1.8 Q-2.8 -2.0 -0.9 -5.3 L5.1 -5.6 4.8 -4.9 Q3.8 -2.0 4.7 0.85" fill="#5f5300" fill-rule="evenodd" stroke="none"/>
    </g>
    <linearGradient gradientTransform="matrix(-0.0054, 0.0063, -0.0076, -0.0073, -16.1, 2.4)" gradientUnits="userSpaceOnUse" id="gradient4" spreadMethod="pad" x1="-819.2" x2="819.2">
      <stop offset="0.0" stop-color="#39fd7b"/>
      <stop offset="1.0" stop-color="#000000"/>
    </linearGradient>
    <g id="sprite7" transform="matrix(1.0, 0.0, 0.0, 1.0, 24.1, 20.6)">
      <use height="41.15" transform="matrix(1.0, 0.0, 0.0, 1.0, -24.1, -20.6)" width="48.2" xlink:href="#shape5"/>
    </g>
    <g id="shape5" transform="matrix(1.0, 0.0, 0.0, 1.0, 24.1, 20.6)">
      <path d="M3.5 -4.95 L2.75 -5.2 0.45 -5.35 0.65 -4.55 0.65 -4.2 1.25 -3.55 1.25 -3.4 1.25 -3.1 1.25 -3.0 1.15 -2.8 1.15 -2.45 Q1.0 3.15 -2.7 5.85 L-3.35 6.25 -4.05 6.65 -4.55 6.55 -4.6 6.45 -5.1 6.35 -5.9 6.5 -5.9 6.6 Q-5.85 7.65 -5.05 8.2 -1.4 11.0 1.8 7.2 4.5 4.5 5.15 0.2 5.6 -3.15 3.5 -4.95 M-0.65 -7.35 L-0.15 -6.55 -0.1 -6.35 0.0 -6.0 Q0.25 -5.6 0.6 -5.7 L0.6 -5.9 Q1.55 -6.45 2.7 -6.4 5.9 -5.2 5.8 -1.05 L5.65 0.85 5.95 1.25 6.0 1.35 Q11.9 5.65 17.45 10.4 20.55 12.85 23.25 15.75 L23.35 15.85 23.9 17.1 24.1 17.75 23.8 18.1 23.65 18.1 23.4 17.75 22.0 16.0 20.1 14.05 17.45 11.95 16.2 10.8 12.0 7.2 11.75 6.8 7.55 3.85 5.45 2.15 Q4.7 5.35 2.6 7.7 L4.8 9.25 11.95 15.0 12.1 15.1 12.65 15.5 Q13.6 15.95 14.3 16.9 L14.35 17.0 14.15 17.35 13.95 17.45 13.75 17.45 12.85 16.8 12.75 16.8 12.5 16.75 12.3 16.55 6.65 11.95 5.95 11.2 4.55 10.3 2.0 8.25 1.8 8.45 Q-0.9 11.35 -4.3 9.95 -6.75 8.95 -6.75 6.5 L-8.25 6.15 Q-11.35 5.05 -12.8 1.5 -14.35 -2.4 -17.65 -3.8 -21.1 -5.25 -23.05 -8.8 -24.1 -10.65 -24.0 -12.5 -24.2 -13.6 -23.9 -14.75 L-23.25 -16.2 Q-20.0 -21.2 -14.45 -20.55 -9.05 -19.4 -5.2 -14.9 L-5.2 -14.95 -5.05 -14.85 -5.0 -14.75 -4.9 -14.7 -4.65 -14.3 -4.65 -14.2 -2.9 -11.65 -1.05 -8.15 -1.05 -8.1 -1.0 -8.05 -0.85 -7.8 -0.65 -7.2 -0.65 -7.35 M-8.05 -16.55 L-8.65 -17.05 Q-13.5 -20.8 -19.1 -18.85 -23.75 -17.25 -23.2 -11.6 L-23.2 -11.55 Q-22.4 -7.4 -18.75 -5.9 -15.15 -4.45 -13.1 -0.7 -11.7 3.55 -8.3 4.85 L-6.7 5.4 -6.65 5.35 -6.05 5.35 -6.05 5.45 -4.3 5.1 -4.2 5.2 -4.1 5.4 -3.35 5.2 -3.05 5.05 -3.0 5.1 Q-0.4 2.85 0.35 -1.25 L0.6 -2.9 0.55 -3.25 0.35 -3.55 0.3 -3.65 -0.1 -4.35 -2.65 -9.55 Q-4.1 -12.55 -6.15 -14.8 L-6.55 -15.2 -6.2 -14.75 Q-3.35 -11.2 -2.3 -6.4 -2.55 -6.0 -2.95 -6.2 L-3.1 -6.4 -3.15 -6.65 -3.35 -6.95 -3.35 -7.3 -3.65 -7.5 -3.8 -7.85 Q-6.05 -12.1 -9.8 -14.15 L-9.8 -14.2 Q-9.5 -15.8 -8.1 -16.55 L-7.7 -16.25 -8.05 -16.55 M-4.55 -10.65 Q-5.85 -13.55 -8.1 -15.5 L-8.25 -15.5 -8.95 -14.7 Q-6.5 -13.1 -4.55 -10.6 L-4.5 -10.55 -4.55 -10.65 M-6.45 -5.15 Q-8.65 -8.85 -11.3 -11.8 L-11.45 -11.75 -12.3 -10.35 Q-9.2 -8.15 -6.45 -5.1 L-6.4 -5.05 -6.45 -5.15 M-12.8 -9.5 L-13.05 -9.4 -13.25 -9.45 -13.35 -9.6 -13.35 -9.7 Q-12.8 -11.7 -11.25 -12.85 L-10.0 -11.75 -10.0 -11.55 -9.85 -11.3 -8.1 -9.1 Q-5.25 -5.7 -4.3 -1.05 L-4.35 -1.0 Q-4.5 -0.75 -4.75 -0.85 L-4.95 -1.05 Q-7.8 -6.8 -12.8 -9.5" fill="#000000" fill-rule="evenodd" stroke="none"/>
      <path d="M3.5 -4.95 Q5.6 -3.15 5.15 0.2 4.5 4.5 1.8 7.2 -1.4 11.0 -5.05 8.2 -5.85 7.65 -5.9 6.6 L-5.9 6.5 -5.1 6.35 -4.6 6.45 -4.55 6.55 -4.05 6.65 -3.35 6.25 -2.7 5.85 Q1.0 3.15 1.15 -2.45 L1.15 -2.8 1.25 -3.0 1.25 -3.1 1.25 -3.4 1.25 -3.55 0.65 -4.2 0.65 -4.55 0.45 -5.35 2.75 -5.2 3.5 -4.95 M-0.65 -7.35 L-0.65 -7.2 -0.85 -7.8 -0.65 -7.35 M-1.05 -8.15 L-2.9 -11.65 -4.65 -14.2 -4.65 -14.3 -4.55 -14.25 -4.0 -13.55 -3.8 -13.35 -2.8 -11.85 -2.8 -11.8 -2.75 -11.6 -1.5 -9.35 -1.4 -9.15 -1.35 -8.95 -1.3 -8.8 -1.05 -8.15 M-6.15 -14.8 Q-4.1 -12.55 -2.65 -9.55 L-0.1 -4.35 0.3 -3.65 0.35 -3.55 0.55 -3.25 0.6 -2.9 0.35 -1.25 Q-0.4 2.85 -3.0 5.1 L-3.05 5.05 -3.35 5.2 -4.1 5.4 -4.2 5.2 -4.3 5.1 -6.05 5.45 -6.05 5.35 -6.65 5.35 -6.7 5.4 -8.3 4.85 Q-11.7 3.55 -13.1 -0.7 -15.15 -4.45 -18.75 -5.9 -22.4 -7.4 -23.2 -11.55 L-23.2 -11.6 Q-23.75 -17.25 -19.1 -18.85 -13.5 -20.8 -8.65 -17.05 L-8.05 -16.55 -8.1 -16.55 Q-9.5 -15.8 -9.8 -14.2 L-9.8 -14.15 Q-6.05 -12.1 -3.8 -7.85 L-3.65 -7.5 -3.35 -7.3 -3.35 -6.95 -3.15 -6.65 -3.1 -6.4 -2.95 -6.2 Q-2.55 -6.0 -2.3 -6.4 -3.35 -11.2 -6.2 -14.75 L-6.15 -14.8 M-4.55 -10.6 Q-6.5 -13.1 -8.95 -14.7 L-8.25 -15.5 -8.1 -15.5 Q-5.85 -13.55 -4.55 -10.65 L-4.55 -10.6 M-12.8 -9.5 Q-7.8 -6.8 -4.95 -1.05 L-4.75 -0.85 Q-4.5 -0.75 -4.35 -1.0 L-4.3 -1.05 Q-5.25 -5.7 -8.1 -9.1 L-9.85 -11.3 -10.0 -11.55 -10.0 -11.75 -11.25 -12.85 Q-12.8 -11.7 -13.35 -9.7 L-13.35 -9.6 -13.25 -9.45 -13.05 -9.4 -12.8 -9.5 M-6.45 -5.1 Q-9.2 -8.15 -12.3 -10.35 L-11.45 -11.75 -11.3 -11.8 Q-8.65 -8.85 -6.45 -5.15 L-6.45 -5.1" fill="#ffffff" fill-rule="evenodd" stroke="none"/>
      <path d="M13.95 17.45 L14.15 17.35 14.35 17.0 14.3 16.9 Q13.6 15.95 12.65 15.5 L12.1 15.1 11.95 15.0 4.8 9.25 5.1 8.4 5.75 6.4 Q6.2 5.15 7.05 4.3 L7.3 4.05 7.55 3.85 11.75 6.8 12.0 7.2 16.2 10.8 17.45 11.95 20.1 14.05 22.0 16.0 23.4 17.75 23.4 18.0 23.35 18.25 23.3 18.4 23.25 18.75 22.9 19.4 22.75 19.5 22.0 20.15 21.7 20.35 19.9 20.45 19.5 20.35 19.15 20.2 18.75 20.1 18.4 19.95 17.0 19.4 16.55 19.1 16.0 18.8 14.5 17.9 13.95 17.45" fill="#75640a" fill-rule="evenodd" stroke="none"/>
      <path d="M4.8 9.25 L2.6 7.7 Q4.7 5.35 5.45 2.15 L7.55 3.85 7.3 4.05 7.05 4.3 Q6.2 5.15 5.75 6.4 L5.1 8.4 4.8 9.25" fill="#5f5300" fill-rule="evenodd" stroke="none"/>
    </g>
  </defs>
</svg>
