<?xml version="1.0" encoding="UTF-8" standalone="no"?>
<svg xmlns:xlink="http://www.w3.org/1999/xlink" height="485.0px" width="640.0px" xmlns="http://www.w3.org/2000/svg">
  <g transform="matrix(1.0, 0.0, 0.0, 1.0, 0.0, 0.0)">
    <use height="370.95" transform="matrix(1.0, 0.0, 0.0, 1.0, 53.5, -5.0)" width="538.95" xlink:href="#shape0"/>
    <use height="317.8" transform="matrix(1.0, 0.0, 0.0, 1.0, 286.65, 44.55)" width="303.8" xlink:href="#shape1"/>
    <use height="3.5" transform="matrix(2.1608, 0.1234, -0.1234, 2.1608, 346.0895, 133.381)" width="2.85" xlink:href="#shape2"/>
    <use height="3.5" transform="matrix(1.9114, -1.0085, 1.0085, 1.9114, 410.1246, 108.2408)" width="2.85" xlink:href="#shape2"/>
    <use height="3.5" transform="matrix(1.5697, 0.0896, -0.0896, 1.5697, 346.3677, 103.8171)" width="2.85" xlink:href="#shape2"/>
    <use height="3.5" transform="matrix(1.3886, -0.7327, 0.7327, 1.3886, 393.5629, 84.7451)" width="2.85" xlink:href="#shape2"/>
    <use height="44.2" transform="matrix(1.0, 0.0, 0.0, 1.0, 346.25, 90.95)" width="56.25" xlink:href="#shape3"/>
    <use height="276.4" transform="matrix(0.8477, 0.5272, -0.5272, 0.8477, 143.708, 24.7782)" width="317.65" xlink:href="#shape4"/>
    <use height="36.75" transform="matrix(-1.0312, 0.0, 0.0, 0.797, 344.121, 104.0853)" width="52.7" xlink:href="#sprite0"/>
    <use height="36.75" transform="matrix(-1.0011, 0.0, 0.0, 0.7617, 343.3294, 104.7344)" width="52.7" xlink:href="#sprite0"/>
    <use height="20.65" transform="matrix(-0.7617, 0.0, 0.0, 0.7617, 317.7641, 129.4805)" width="28.25" xlink:href="#shape6"/>
    <use height="10.45" transform="matrix(0.5078, 0.0, 0.0, 0.5078, 303.9512, 115.4473)" width="59.9" xlink:href="#text0"/>
    <use height="1602.95" transform="matrix(1.0, 0.0, 0.0, 1.0, -603.7, -560.3)" width="1848.2" xlink:href="#sprite1"/>
    <use height="73.0" id="rec" transform="matrix(1.0, 0.0, 0.0, 1.0, 124.95, 366.1)" width="469.15" xlink:href="#sprite23"/>
  </g>
  <defs>
    <g id="shape0" transform="matrix(1.0, 0.0, 0.0, 1.0, 54.35, 198.15)">
      <path d="M184.85 -98.1 L184.8 -98.15 184.65 -98.35 96.55 -157.75 113.45 -165.95 203.15 -105.15 202.45 -98.95 184.85 -98.1" fill="#333399" fill-rule="evenodd" stroke="none"/>
      <path d="M-53.15 -83.3 L94.6 -156.9 183.8 -97.7 140.35 172.8 -52.45 172.8 -53.15 -83.3" fill="#6699cc" fill-rule="evenodd" stroke="none"/>
      <path d="M202.45 -98.95 L171.65 172.8 142.5 172.8 184.85 -97.85 184.85 -98.1 202.45 -98.95" fill="#ccccff" fill-rule="evenodd" stroke="none"/>
      <path d="M202.45 -98.95 L203.15 -105.15 113.45 -165.95 96.55 -157.75 184.65 -98.35 184.8 -98.15 184.85 -98.1 184.85 -97.85 142.5 172.8 140.35 172.8 183.8 -97.7 94.6 -156.9 -53.15 -83.3 -54.35 -125.55 -54.35 -198.15 484.6 -198.15 482.6 172.8 171.65 172.8 202.45 -98.95" fill="#000033" fill-rule="evenodd" stroke="none"/>
    </g>
    <g id="shape1" transform="matrix(1.0, 0.0, 0.0, 1.0, 155.65, 176.85)">
      <path d="M40.4 -107.1 L39.8 -107.3 Q32.1 -109.8 24.2 -106.35 L22.55 -105.55 -8.75 -133.15 24.2 -134.75 81.5 -89.7 51.95 -90.7 51.9 -89.55 51.85 -89.6 51.9 -90.7 Q52.0 -94.6 50.6 -97.85 47.65 -104.55 40.4 -107.1 M12.85 -95.6 L12.85 -95.5 Q12.05 -93.8 11.6 -92.1 10.15 -86.55 12.5 -81.2 14.25 -77.15 17.7 -74.55 L17.95 -74.45 21.5 -65.15 Q11.25 -58.35 1.25 -47.35 -12.85 -31.85 -6.95 -11.0 L-69.75 14.1 Q-83.8 5.4 -111.0 4.45 -116.65 24.4 -112.4 31.15 L-112.75 31.25 -112.9 33.05 Q-115.05 41.15 -117.5 47.8 -125.85 60.25 -129.25 61.6 -132.65 62.95 -138.25 68.75 L-138.15 71.7 -138.0 72.5 -137.4 73.15 -136.5 74.0 -135.9 74.15 -137.3 74.85 Q-127.0 73.6 -115.9 68.8 L-120.05 117.9 -121.4 140.95 -155.65 140.95 -130.15 -127.3 -91.4 -129.15 -116.65 -118.15 -118.35 -52.0 Q-114.3 -91.65 -113.45 -116.0 L-85.45 -129.45 -64.0 -130.85 -64.95 -130.45 -97.1 -117.45 -97.0 -78.1 -96.05 -78.45 -95.35 -77.8 -19.0 -108.3 -35.9 -127.65 -39.0 -131.7 -39.15 -131.85 -10.9 -133.05 Q2.45 -118.15 10.8 -103.0 L-121.15 -42.4 12.8 -95.55 12.85 -95.6 M-5.8 -7.35 L6.45 5.5 Q18.6 18.05 13.4 34.95 8.2 51.85 -18.8 49.45 -45.85 47.05 -58.4 25.85 -60.6 22.15 -63.4 19.25 L-5.8 -7.35 M-108.3 65.05 L-108.25 65.05 Q-96.65 58.85 -81.45 63.65 -59.8 70.45 -46.0 78.1 L-43.1 80.1 Q-24.1 94.05 -16.1 117.55 -12.65 127.6 -10.55 138.6 L-17.25 140.95 -118.6 140.95 -108.3 65.1 -108.3 65.05 M-123.05 49.9 L-122.6 49.8 -123.0 49.75 -123.05 49.9 M-117.7 48.4 L-117.6 48.3 -117.5 48.25 -117.7 48.4" fill="#ccccff" fill-rule="evenodd" stroke="none"/>
      <path d="M22.55 -105.55 L24.2 -106.35 Q32.1 -109.8 39.8 -107.3 L40.4 -107.1 40.75 -106.85 41.4 -105.55 Q44.4 -98.6 41.0 -91.2 L40.95 -91.1 Q37.5 -83.85 29.7 -80.4 21.8 -77.0 14.05 -79.45 L13.8 -79.5 13.95 -79.35 13.8 -79.35 13.75 -79.5 13.5 -79.6 13.35 -79.7 Q15.75 -75.75 18.5 -74.3 L18.25 -74.4 18.0 -74.45 18.15 -74.3 18.15 -74.25 18.5 -74.0 19.55 -73.35 20.1 -72.85 21.5 -72.4 23.25 -71.75 Q25.5 -71.05 27.8 -70.8 L32.45 -71.25 Q36.15 -72.05 39.8 -74.05 L39.85 -74.05 Q47.85 -78.5 50.9 -86.25 L51.85 -89.35 51.9 -89.55 51.95 -90.7 81.5 -89.7 148.15 -37.3 148.15 39.9 142.0 34.75 69.4 -37.85 148.15 54.25 148.15 82.5 -10.55 138.6 Q-12.65 127.6 -16.1 117.55 -24.1 94.05 -43.1 80.1 L-46.0 78.1 Q-59.8 70.45 -81.45 63.65 -96.65 58.85 -108.25 65.05 L-108.3 65.05 -104.7 38.3 -63.4 19.25 Q-60.6 22.15 -58.4 25.85 -45.85 47.05 -18.8 49.45 8.2 51.85 13.4 34.95 18.6 18.05 6.45 5.5 L-5.8 -7.35 60.6 -38.0 -6.95 -11.0 Q-12.85 -31.85 1.25 -47.35 11.25 -58.35 21.5 -65.15 L17.95 -74.45 17.7 -74.55 Q14.25 -77.15 12.5 -81.2 10.15 -86.55 11.6 -92.1 12.05 -93.8 12.85 -95.5 L12.85 -95.6 Q15.95 -102.15 22.55 -105.55 M24.2 -134.75 L-8.75 -133.15 -25.85 -148.2 -18.45 -141.05 -11.95 -134.25 -10.9 -133.05 -39.15 -131.85 -44.45 -138.75 -64.0 -130.85 -85.45 -129.45 -113.45 -116.0 Q-114.3 -91.65 -118.35 -52.0 L-116.65 -118.15 -91.4 -129.15 -130.15 -127.3 -129.65 -132.2 -119.7 -137.0 -29.45 -176.85 24.2 -134.75 M54.85 -87.65 L54.8 -87.65 54.75 -87.5 54.75 -87.35 54.9 -87.35 54.8 -87.5 54.85 -87.6 54.85 -87.65 M75.1 -67.2 L75.3 -67.2 75.3 -67.35 75.1 -67.2 75.1 -67.25 28.95 -45.55 34.55 -38.5 75.3 -58.05 75.2 -66.65 73.8 -66.25 75.1 -67.2 M55.75 -87.15 L55.7 -87.15 55.75 -87.15 M-35.9 -127.65 L-19.0 -108.3 -95.35 -77.8 -96.05 -78.45 -21.5 -108.9 -35.9 -127.65 M-121.4 140.95 L-120.05 117.9 -115.9 68.8 Q-127.0 73.6 -137.3 74.85 L-135.9 74.15 -136.5 74.0 -137.4 73.15 -138.0 72.5 -138.15 71.7 -138.25 68.75 Q-132.65 62.95 -129.25 61.6 -125.85 60.25 -117.5 47.8 -115.05 41.15 -112.9 33.05 L-115.9 68.8 Q-112.15 67.15 -108.3 65.1 L-118.6 140.95 -121.4 140.95 M-112.4 31.15 Q-116.65 24.4 -111.0 4.45 -83.8 5.4 -69.75 14.1 L-6.95 -11.0 -5.8 -7.35 -63.4 19.25 Q-66.25 16.25 -69.75 14.1 L-112.4 31.15 M108.25 -28.9 L108.0 -28.65 108.3 -28.85 108.25 -28.9 M148.15 96.25 L148.15 140.95 -0.4 140.95 148.15 96.25 M-85.45 -129.45 L-33.05 -154.65 -91.4 -129.15 -85.45 -129.45 M-117.7 48.4 L-117.5 48.25 -117.6 48.3 -117.7 48.4 M-123.05 49.9 L-123.0 49.75 -122.6 49.8 -123.05 49.9" fill="#333399" fill-rule="evenodd" stroke="none"/>
      <path d="M-8.75 -133.15 L22.55 -105.55 Q15.95 -102.15 12.85 -95.6 L12.8 -95.55 -121.15 -42.4 10.8 -103.0 Q2.45 -118.15 -10.9 -133.05 L-8.75 -133.15 M-10.1 140.95 L-17.25 140.95 -10.55 138.6 -10.1 140.95" fill="#ffffff" fill-rule="evenodd" stroke="none"/>
      <path d="M-6.95 -11.0 L60.6 -38.0 -5.8 -7.35 -6.95 -11.0 M-63.4 19.25 L-104.7 38.3 -108.3 65.05 -108.3 65.1 Q-112.15 67.15 -115.9 68.8 L-112.9 33.05 -112.75 31.25 -112.4 31.15 -69.75 14.1 Q-66.25 16.25 -63.4 19.25 M-10.55 138.6 L148.15 82.5 148.15 96.25 -0.4 140.95 -10.1 140.95 -10.55 138.6 M148.15 54.25 L69.4 -37.85 142.0 34.75 148.15 39.9 148.15 54.25 M-39.15 -131.85 L-39.0 -131.7 -64.95 -130.45 -64.0 -130.85 -44.45 -138.75 -39.15 -131.85 M-8.75 -133.15 L-10.9 -133.05 -11.95 -134.25 -18.45 -141.05 -25.85 -148.2 -8.75 -133.15 M-85.45 -129.45 L-91.4 -129.15 -33.05 -154.65 -85.45 -129.45" fill="#000066" fill-rule="evenodd" stroke="none"/>
      <path d="M40.4 -107.1 Q47.65 -104.55 50.6 -97.85 52.0 -94.6 51.9 -90.7 L51.85 -89.6 51.9 -89.55 51.85 -89.35 50.9 -86.25 Q47.85 -78.5 39.85 -74.05 L39.8 -74.05 Q36.15 -72.05 32.45 -71.25 L27.8 -70.8 Q25.5 -71.05 23.25 -71.75 L21.5 -72.4 20.1 -72.85 19.55 -73.35 18.5 -74.0 18.15 -74.25 18.15 -74.3 18.25 -74.4 18.5 -74.3 Q15.75 -75.75 13.35 -79.7 L13.5 -79.6 13.75 -79.5 13.8 -79.35 13.95 -79.35 13.8 -79.5 14.05 -79.45 Q21.8 -77.0 29.7 -80.4 37.5 -83.85 40.95 -91.1 L41.0 -91.2 Q44.4 -98.6 41.4 -105.55 L40.75 -106.85 40.4 -107.1 M75.1 -67.2 L73.8 -66.25 75.2 -66.65 75.3 -58.05 34.55 -38.5 28.95 -45.55 75.1 -67.25 75.1 -67.2" fill="#000033" fill-rule="evenodd" stroke="none"/>
      <path d="M-39.0 -131.7 L-35.9 -127.65 -21.5 -108.9 -96.05 -78.45 -97.0 -78.1 -97.1 -117.45 -64.95 -130.45 -39.0 -131.7" fill="#cccccc" fill-rule="evenodd" stroke="none"/>
      <path d="M44.15 -73.45 Q45.55 -73.35 46.05 -71.55 46.4 -69.8 47.2 -67.4 47.85 -64.85 48.6 -63.75 L49.45 -61.9 49.3 -61.15 49.2 -60.85 48.4 -61.0 Q46.75 -61.8 46.25 -63.2 45.7 -64.55 44.6 -65.8 L42.5 -68.0 41.0 -70.05 Q40.7 -71.25 41.3 -71.9 42.75 -73.55 44.15 -73.45" fill="#000033" fill-rule="evenodd" stroke="none"/>
    </g>
    <g id="shape2" transform="matrix(1.0, 0.0, 0.0, 1.0, 1.6, 2.0)">
      <path d="M0.6 -0.55 L0.35 -1.3 Q0.1 -1.65 -0.25 -1.65 -0.6 -1.65 -0.85 -1.3 L-1.1 -0.55 -0.85 0.2 Q-0.6 0.55 -0.25 0.55 0.1 0.55 0.35 0.2 L0.6 -0.55 M1.25 -0.25 Q1.25 0.5 0.85 1.0 0.4 1.5 -0.2 1.5 -0.8 1.5 -1.2 1.0 -1.6 0.5 -1.6 -0.25 -1.6 -1.0 -1.2 -1.5 -0.8 -2.0 -0.2 -2.0 0.4 -2.0 0.85 -1.5 1.25 -1.0 1.25 -0.25" fill="#002c85" fill-rule="evenodd" stroke="none"/>
      <path d="M0.6 -0.55 L0.35 0.2 Q0.1 0.55 -0.25 0.55 -0.6 0.55 -0.85 0.2 L-1.1 -0.55 -0.85 -1.3 Q-0.6 -1.65 -0.25 -1.65 0.1 -1.65 0.35 -1.3 L0.6 -0.55" fill="#2c58b1" fill-rule="evenodd" stroke="none"/>
    </g>
    <g id="shape3" transform="matrix(1.0, 0.0, 0.0, 1.0, 96.05, 130.45)">
      <path d="M-80.75 -87.25 Q-76.85 -88.85 -74.3 -91.75 -71.55 -94.9 -72.0 -97.6 -72.55 -100.45 -75.05 -101.25 -78.0 -102.2 -82.55 -100.05 L-82.6 -100.5 Q-86.15 -98.95 -88.25 -95.75 -90.3 -92.7 -90.0 -89.85 -89.7 -87.2 -86.95 -86.45 -84.25 -85.75 -80.75 -87.25 M-84.2 -91.4 Q-84.6 -93.75 -81.85 -95.3 L-81.85 -95.0 Q-80.1 -95.95 -79.0 -95.6 -78.1 -95.25 -77.95 -94.3 -77.45 -91.45 -80.8 -90.3 L-83.1 -90.15 Q-84.1 -90.45 -84.2 -91.4" fill="#000033" fill-rule="evenodd" stroke="none"/>
      <path d="M-62.2 -93.9 Q-53.8 -97.45 -58.3 -110.35 L-62.15 -108.7 Q-61.2 -106.55 -61.0 -104.3 -60.7 -100.9 -62.75 -100.05 -64.35 -99.4 -65.15 -102.0 -65.8 -104.35 -65.3 -106.45 L-71.1 -104.95 Q-71.95 -99.9 -70.1 -96.2 -67.75 -91.55 -62.2 -93.9" fill="#000033" fill-rule="evenodd" stroke="none"/>
      <path d="M-48.2 -99.8 L-42.65 -103.1 -46.4 -110.65 -41.1 -113.75 -42.05 -116.8 -56.35 -111.2 -54.95 -105.7 -50.45 -108.0 -48.2 -99.8" fill="#000033" fill-rule="evenodd" stroke="none"/>
      <path d="M-95.3 -97.5 L-91.85 -97.7 -90.8 -102.4 -86.6 -100.4 -79.3 -104.7 -86.55 -106.4 -81.1 -113.75 -86.4 -111.5 -90.55 -105.35 -89.65 -110.7 -96.05 -108.35 -95.3 -97.5" fill="#000033" fill-rule="evenodd" stroke="none"/>
      <path d="M-71.3 -120.25 L-80.2 -115.4 -77.3 -105.35 -67.1 -108.85 -68.45 -113.25 -72.75 -111.1 -73.15 -111.8 -70.85 -113.55 -71.55 -115.15 -74.7 -113.65 -75.4 -115.55 -70.7 -118.1 -71.3 -120.25" fill="#000033" fill-rule="evenodd" stroke="none"/>
      <path d="M-65.45 -110.55 L-54.9 -114.15 -56.55 -118.55 -60.9 -116.3 -61.3 -117.05 -59.05 -118.75 -59.85 -120.4 -63.05 -118.8 -63.8 -120.7 -59.0 -123.25 -59.8 -125.4 -68.85 -120.55 -65.45 -110.55" fill="#000033" fill-rule="evenodd" stroke="none"/>
      <path d="M-41.9 -123.75 Q-39.25 -126.1 -39.95 -128.3 -41.05 -131.45 -46.9 -129.95 -51.75 -128.75 -56.75 -125.5 L-52.25 -115.05 -45.85 -118.4 -47.65 -120.9 Q-44.35 -121.6 -41.9 -123.75 M-48.8 -123.2 L-49.65 -126.4 Q-48.55 -127.2 -47.5 -127.35 -46.4 -127.45 -46.25 -126.8 -45.85 -125.55 -48.8 -123.2" fill="#000033" fill-rule="evenodd" stroke="none"/>
    </g>
    <g id="shape4" transform="matrix(1.0, 0.0, 0.0, 1.0, 141.15, 150.35)">
      <path d="M31.4 -142.05 Q40.1 -138.15 44.5 -132.85 49.25 -127.15 46.1 -122.85 L40.3 -115.2 Q44.5 -112.4 45.75 -110.05 46.85 -108.0 45.85 -105.85 45.1 -104.35 42.65 -101.7 L38.15 -96.8 39.05 -91.85 Q39.25 -89.0 37.9 -87.1 43.2 -83.45 49.8 -84.0 L50.25 -83.65 Q48.65 -80.35 44.9 -78.5 41.7 -76.95 37.5 -76.65 39.15 -73.6 39.0 -63.4 35.55 -67.05 30.1 -69.15 31.25 -64.3 30.2 -60.1 43.1 -59.2 59.05 -59.85 L87.8 -61.9 Q93.25 -66.45 100.95 -64.45 108.0 -62.65 112.4 -56.9 113.85 -59.0 119.45 -75.0 124.5 -89.75 125.9 -90.1 134.15 -92.4 134.4 -81.85 134.5 -75.2 131.9 -66.4 L136.3 -73.95 Q140.25 -81.15 143.15 -85.2 152.85 -98.95 157.6 -89.75 160.35 -84.45 154.2 -72.65 149.3 -63.25 143.55 -57.2 145.85 -55.65 149.9 -56.75 152.85 -57.55 157.85 -60.2 L165.95 -64.55 Q170.35 -66.7 172.85 -66.7 178.45 -60.35 175.45 -55.25 173.0 -51.3 164.7 -47.6 L149.5 -42.0 Q140.85 -39.0 138.7 -36.9 134.45 -32.8 134.55 -28.9 134.65 -26.2 137.3 -22.4 L139.5 -19.25 141.45 -16.05 Q143.15 -12.25 141.5 -8.5 139.65 -4.3 135.15 -2.1 130.2 0.25 126.65 -2.75 126.05 -3.2 126.25 -5.45 L126.65 -10.35 Q126.85 -17.7 121.85 -21.3 L112.65 -21.8 Q107.4 -22.55 103.95 -24.75 101.1 -22.8 97.3 -21.95 L89.8 -21.65 Q85.85 -22.25 83.2 -24.35 80.3 -26.7 79.5 -30.55 58.55 -36.65 31.0 -37.5 34.7 -25.65 45.35 -16.1 52.4 -9.75 66.85 -1.35 67.2 1.95 68.65 8.15 70.1 14.5 70.45 17.35 71.0 22.35 70.0 26.25 68.8 30.85 65.1 34.85 69.15 37.25 74.5 41.95 L84.1 50.85 Q90.05 56.5 93.55 59.3 98.6 63.35 102.5 65.05 L109.35 68.1 Q113.25 70.05 115.6 72.05 121.7 77.35 118.5 85.25 L120.35 87.4 70.85 118.2 Q67.95 111.7 64.5 105.7 55.5 106.55 53.1 99.25 52.15 96.2 52.6 92.35 53.1 88.6 54.85 85.25 45.15 70.65 35.5 60.4 28.95 62.2 23.85 65.35 L20.6 67.4 Q19.05 68.3 18.1 68.6 15.85 69.2 12.55 66.8 9.65 64.65 1.25 56.55 -10.05 59.45 -18.75 56.7 L-32.4 67.1 Q-44.1 65.45 -54.6 56.95 -57.65 61.5 -60.2 68.15 L-64.3 80.05 Q-62.0 81.05 -61.0 84.5 -60.05 87.95 -60.8 91.7 -61.7 95.85 -64.35 98.25 -67.45 101.0 -72.25 100.7 -77.05 109.7 -79.6 124.65 L-79.85 126.05 -119.15 62.8 Q-117.35 61.5 -115.0 60.6 -111.65 59.2 -108.45 59.05 L-95.6 48.75 Q-87.25 42.25 -82.9 38.35 -92.2 29.85 -91.75 21.05 -91.4 13.8 -84.15 5.6 -79.8 0.6 -69.05 -8.3 -58.6 -17.05 -55.25 -21.0 -59.65 -21.45 -64.5 -18.05 L-68.8 -14.7 -73.3 -11.15 Q-79.0 -7.0 -84.25 -6.1 -91.4 -4.9 -100.0 -8.75 -101.45 -11.4 -103.9 -14.8 L-108.15 -20.55 Q-113.25 -27.7 -114.65 -33.2 L-115.85 -34.25 Q-119.55 -28.45 -122.1 -8.65 L-123.8 7.0 -125.1 19.25 Q-128.75 22.35 -133.7 21.0 -138.5 19.7 -140.65 15.45 -143.1 10.5 -133.5 -19.55 L-125.8 -42.0 -120.25 -56.6 Q-122.35 -57.85 -124.5 -62.4 -126.4 -66.5 -127.9 -72.2 -129.3 -77.65 -129.85 -82.4 -130.45 -87.3 -129.75 -89.35 -129.25 -90.95 -127.7 -92.8 L-124.95 -95.85 Q-121.6 -99.65 -121.2 -103.5 -117.75 -108.35 -112.6 -108.75 -108.05 -109.15 -101.65 -105.75 -91.7 -129.9 -81.55 -141.6 -72.9 -151.6 -66.7 -150.15 -64.0 -149.5 -62.4 -146.5 -60.9 -143.55 -60.85 -138.95 -60.75 -128.55 -67.65 -115.7 L-74.7 -116.7 -75.1 -121.8 Q-72.75 -126.2 -70.35 -135.1 L-71.55 -138.8 Q-77.65 -135.4 -84.0 -122.35 L-88.9 -111.65 Q-91.75 -105.25 -93.15 -102.6 -84.65 -99.55 -81.05 -97.55 -76.55 -95.05 -75.35 -92.1 -74.2 -89.0 -76.05 -84.15 -77.8 -79.7 -82.85 -71.75 -78.7 -67.55 -77.8 -62.2 -76.9 -56.7 -79.7 -51.6 -76.35 -48.6 -74.6 -44.15 -69.85 -42.2 -64.45 -43.7 -60.7 -44.8 -54.85 -48.45 -47.1 -53.3 -45.2 -54.2 -39.65 -56.95 -35.1 -56.8 -33.35 -63.85 -29.35 -68.55 L-30.4 -73.35 Q-33.85 -70.2 -36.7 -60.3 -41.2 -66.05 -42.3 -67.95 L-43.2 -69.65 Q-44.85 -73.25 -44.55 -76.6 L-44.5 -76.9 -49.5 -70.75 Q-52.3 -74.6 -49.55 -81.5 -48.8 -83.5 -47.65 -85.55 -46.1 -88.45 -43.8 -91.55 L-47.05 -94.75 Q-51.55 -100.05 -50.8 -104.8 -48.6 -101.95 -44.75 -100.3 L-42.65 -99.55 Q-44.35 -105.4 -43.2 -114.6 -42.0 -124.0 -38.3 -132.25 -34.3 -141.45 -28.6 -145.9 -22.05 -150.95 -14.45 -148.75 -12.75 -148.3 -10.75 -146.9 L-7.4 -144.3 Q-3.3 -141.1 0.05 -141.3 4.7 -146.5 14.05 -146.3 21.4 -146.2 29.3 -142.95 L31.4 -142.05 M28.55 -142.35 Q22.7 -144.75 17.2 -144.95 10.05 -146.1 4.8 -143.0 1.85 -141.25 -0.45 -138.2 -1.7 -136.35 -0.2 -135.7 15.85 -151.9 44.35 -130.55 L42.45 -134.0 Q35.25 -139.65 28.55 -142.35 M43.85 -107.25 Q46.5 -109.4 41.9 -112.25 35.3 -117.2 19.7 -116.7 39.2 -113.15 43.85 -107.25 M34.4 -70.1 L31.6 -69.35 Q34.95 -69.2 38.5 -64.95 38.05 -68.25 34.4 -70.1 M81.15 -31.7 Q84.9 -21.05 98.0 -24.7 86.35 -25.95 81.1 -34.95 54.45 -42.85 35.15 -39.3 58.6 -38.45 81.15 -31.7 M108.1 -24.65 Q113.45 -21.95 117.95 -22.35 123.2 -22.8 125.5 -18.85 127.75 -14.95 127.5 -11.35 127.2 -7.8 127.3 -4.1 130.2 0.0 133.85 -4.2 137.5 -8.5 134.3 -10.0 131.05 -11.55 128.9 -17.6 126.75 -23.7 125.5 -25.25 124.2 -26.8 121.35 -25.3 118.45 -23.75 114.6 -23.65 110.75 -23.6 108.1 -24.65 M167.1 -54.95 L167.45 -54.55 167.65 -54.75 167.1 -54.95 M159.6 -48.5 L159.4 -48.75 159.55 -48.5 159.6 -48.5 M98.45 68.15 L98.05 68.55 98.65 68.35 98.45 68.15 M16.2 61.2 Q11.0 62.8 4.45 57.0 9.8 63.85 17.05 67.1 L16.2 61.2 M55.55 87.6 Q51.25 103.45 63.25 103.85 55.25 97.05 61.8 85.75 62.0 81.55 55.55 87.6 M58.25 77.45 Q50.35 69.55 37.85 60.55 49.05 72.7 55.0 82.95 L58.25 77.45 M-42.0 -106.2 Q-42.1 -107.4 -41.35 -111.5 -40.55 -116.0 -37.1 -126.9 -33.7 -137.8 -26.15 -143.3 -19.25 -148.35 -10.5 -144.95 L-16.0 -147.35 Q-21.6 -149.85 -29.15 -143.55 -36.7 -137.3 -39.75 -125.35 -42.75 -113.6 -42.0 -106.2 M-97.7 -107.1 Q-88.05 -137.15 -69.8 -149.0 -83.5 -145.4 -99.3 -107.4 L-97.7 -107.1 M-113.0 -107.4 Q-118.55 -106.35 -120.4 -101.75 -122.3 -97.2 -126.15 -93.55 -130.05 -89.95 -128.9 -82.6 -127.75 -75.25 -124.95 -67.95 -125.4 -74.5 -124.9 -78.0 -124.4 -81.5 -121.0 -82.3 -125.6 -88.45 -119.4 -91.85 L-113.95 -94.7 Q-117.05 -101.95 -109.5 -107.2 L-113.0 -107.4 M-118.75 -53.3 L-120.3 -53.95 Q-129.3 -31.65 -135.0 -10.45 L-132.25 -11.75 Q-128.55 -30.25 -118.75 -53.3 M-87.0 -72.8 L-86.45 -72.3 -86.3 -72.45 -87.0 -72.8 M-132.25 -9.8 L-135.5 -8.4 Q-138.9 1.35 -140.15 9.75 -136.4 5.05 -133.6 6.4 -134.4 -0.85 -132.25 -9.8 M-107.4 -23.35 L-103.4 -15.95 Q-100.15 -9.55 -90.15 -7.85 -80.2 -6.15 -72.45 -14.25 -64.75 -22.35 -53.75 -24.75 -63.8 -24.75 -72.7 -17.65 -81.6 -10.55 -92.9 -13.75 -100.25 -22.3 -107.4 -23.35 M-39.6 -72.85 Q-41.75 -73.05 -43.9 -77.55 -44.05 -69.8 -37.1 -62.7 -39.65 -67.35 -39.6 -72.85 M-43.45 -96.6 Q-47.75 -97.6 -50.35 -103.4 -49.6 -96.8 -43.7 -92.4 L-43.45 -96.6 M-42.8 -88.35 L-43.25 -90.8 Q-52.4 -79.2 -49.25 -72.5 -48.15 -81.1 -42.8 -88.35 M-68.55 6.65 Q-69.25 -2.7 -57.65 -14.9 -83.25 3.85 -88.05 14.25 -76.6 1.55 -68.55 6.65" fill="#000000" fill-rule="evenodd" stroke="none"/>
      <path d="M81.1 -34.95 L81.15 -31.7 Q58.6 -38.45 35.15 -39.3 54.45 -42.85 81.1 -34.95 M16.2 61.2 L17.05 67.1 Q9.8 63.85 4.45 57.0 11.0 62.8 16.2 61.2 M16.4 64.9 L16.45 65.3 16.5 65.25 16.4 64.9 M-107.4 -23.35 Q-100.25 -22.3 -92.9 -13.75 -81.6 -10.55 -72.7 -17.65 -63.8 -24.75 -53.75 -24.75 -64.75 -22.35 -72.45 -14.25 -80.2 -6.15 -90.15 -7.85 -100.15 -9.55 -103.4 -15.95 L-107.4 -23.35 M-68.55 6.65 Q-76.6 1.55 -88.05 14.25 -83.25 3.85 -57.65 -14.9 -69.25 -2.7 -68.55 6.65" fill="#330066" fill-rule="evenodd" stroke="none"/>
      <path d="M81.15 -31.7 L81.1 -34.95 Q86.35 -25.95 98.0 -24.7 84.9 -21.05 81.15 -31.7 M55.55 87.6 Q62.0 81.55 61.8 85.75 55.25 97.05 63.25 103.85 51.25 103.45 55.55 87.6" fill="#660000" fill-rule="evenodd" stroke="none"/>
      <path d="M34.4 -70.1 Q38.05 -68.25 38.5 -64.95 34.95 -69.2 31.6 -69.35 L34.4 -70.1 M108.1 -24.65 Q110.75 -23.6 114.6 -23.65 118.45 -23.75 121.35 -25.3 124.2 -26.8 125.5 -25.25 126.75 -23.7 128.9 -17.6 131.05 -11.55 134.3 -10.0 137.5 -8.5 133.85 -4.2 130.2 0.0 127.3 -4.1 127.2 -7.8 127.5 -11.35 127.75 -14.95 125.5 -18.85 123.2 -22.8 117.95 -22.35 113.45 -21.95 108.1 -24.65 M58.25 77.45 L55.0 82.95 Q49.05 72.7 37.85 60.55 50.35 69.55 58.25 77.45 M-113.0 -107.4 L-109.5 -107.2 Q-117.05 -101.95 -113.95 -94.7 L-119.4 -91.85 Q-125.6 -88.45 -121.0 -82.3 -124.4 -81.5 -124.9 -78.0 -125.4 -74.5 -124.95 -67.95 -127.75 -75.25 -128.9 -82.6 -130.05 -89.95 -126.15 -93.55 -122.3 -97.2 -120.4 -101.75 -118.55 -106.35 -113.0 -107.4 M-43.45 -96.6 L-43.7 -92.4 Q-49.6 -96.8 -50.35 -103.4 -47.75 -97.6 -43.45 -96.6 M-39.6 -72.85 Q-39.65 -67.35 -37.1 -62.7 -44.05 -69.8 -43.9 -77.55 -41.75 -73.05 -39.6 -72.85 M-42.8 -88.35 Q-48.15 -81.1 -49.25 -72.5 -52.4 -79.2 -43.25 -90.8 L-42.8 -88.35" fill="#ffffff" fill-rule="evenodd" stroke="none"/>
      <path d="M-42.0 -106.2 Q-42.75 -113.6 -39.75 -125.35 -36.7 -137.3 -29.15 -143.55 -21.6 -149.85 -16.0 -147.35 L-10.5 -144.95 Q-19.25 -148.35 -26.15 -143.3 -33.7 -137.8 -37.1 -126.9 -40.55 -116.0 -41.35 -111.5 -42.1 -107.4 -42.0 -106.2" fill="#00ccff" fill-rule="evenodd" stroke="none"/>
      <path d="M4.8 -143.0 Q5.8 -141.9 8.2 -142.65 L11.75 -143.4 Q15.1 -143.8 18.6 -143.5 L25.35 -142.4 Q27.35 -141.85 28.55 -142.35 35.25 -139.65 42.45 -134.0 L44.35 -130.55 Q15.85 -151.9 -0.2 -135.7 -1.7 -136.35 -0.45 -138.2 1.85 -141.25 4.8 -143.0 M43.85 -107.25 Q39.2 -113.15 19.7 -116.7 35.3 -117.2 41.9 -112.25 46.5 -109.4 43.85 -107.25" fill="#ffcc00" fill-rule="evenodd" stroke="none"/>
      <path d="M28.55 -142.35 Q27.35 -141.85 25.35 -142.4 L18.6 -143.5 Q15.1 -143.8 11.75 -143.4 L8.2 -142.65 Q5.8 -141.9 4.8 -143.0 10.05 -146.1 17.2 -144.95 22.7 -144.75 28.55 -142.35" fill="#ffff33" fill-rule="evenodd" stroke="none"/>
      <path d="M-97.7 -107.1 L-99.3 -107.4 Q-83.5 -145.4 -69.8 -149.0 -88.05 -137.15 -97.7 -107.1 M-118.75 -53.3 Q-128.55 -30.25 -132.25 -11.75 L-135.0 -10.45 Q-129.3 -31.65 -120.3 -53.95 L-118.75 -53.3" fill="#996600" fill-rule="evenodd" stroke="none"/>
      <path d="M-132.25 -9.8 Q-134.4 -0.85 -133.6 6.4 -136.4 5.05 -140.15 9.75 -138.9 1.35 -135.5 -8.4 L-132.25 -9.8" fill="#ffff00" fill-rule="evenodd" stroke="none"/>
    </g>
    <g id="sprite0" transform="matrix(1.0, 0.0, 0.0, 1.0, 26.35, 18.4)">
      <use height="36.75" transform="matrix(1.0, 0.0, 0.0, 1.0, -26.35, -18.4)" width="52.7" xlink:href="#shape5"/>
    </g>
    <g id="shape5" transform="matrix(1.0, 0.0, 0.0, 1.0, 26.35, 18.4)">
      <path d="M-0.05 -18.4 Q10.9 -18.4 18.65 -13.0 26.35 -7.65 26.35 0.0 26.35 7.6 18.65 12.95 10.9 18.35 -0.05 18.35 -10.95 18.35 -18.7 12.95 -26.35 7.6 -26.35 0.0 -26.35 -7.65 -18.7 -13.0 -10.95 -18.4 -0.05 -18.4" fill="#000000" fill-rule="evenodd" stroke="none"/>
    </g>
    <g id="shape6" transform="matrix(1.0, 0.0, 0.0, 1.0, 14.0, 10.2)">
      <path d="M0.55 -7.8 L0.35 -7.65 Q0.25 -7.55 2.05 -3.5 3.85 0.55 12.25 9.0 -1.4 2.7 -9.0 -5.9 L-9.05 -5.9 -12.9 -8.2 -14.0 -8.85 -1.85 -10.2 0.55 -7.8" fill="#ffffff" fill-rule="evenodd" stroke="none"/>
      <path d="M0.55 -7.8 L0.65 -7.9 2.85 -3.7 Q5.0 0.45 9.65 5.3 L14.25 10.25 14.2 10.4 14.05 10.45 6.8 6.9 Q-0.4 3.3 -5.45 -1.25 -10.5 -5.85 -9.7 -5.9 L-9.05 -5.9 -9.0 -5.9 Q-1.4 2.7 12.25 9.0 3.85 0.55 2.05 -3.5 0.25 -7.55 0.35 -7.65 L0.55 -7.8" fill="#000000" fill-rule="evenodd" stroke="none"/>
    </g>
    <g id="text0" transform="matrix(1.0, 0.0, 0.0, 1.0, -48.15, -2.85)">
      <g transform="matrix(1.0, 0.0, 0.0, 1.0, 46.75, 0.0)">
        <use fill="#000000" height="10.45" transform="matrix(0.2539, 0.0, 0.0, 0.2539, 0.1, 13.05)" width="59.9" xlink:href="#font_ComicBook_Normal_G0"/>
        <use fill="#000000" height="10.45" transform="matrix(0.2539, 0.0, 0.0, 0.2539, 11.65, 13.05)" width="59.9" xlink:href="#font_ComicBook_Normal_Y0"/>
        <use fill="#000000" height="10.45" transform="matrix(0.2539, 0.0, 0.0, 0.2539, 21.1, 13.05)" width="59.9" xlink:href="#font_ComicBook_Normal_R0"/>
        <use fill="#000000" height="10.45" transform="matrix(0.2539, 0.0, 0.0, 0.2539, 30.1, 13.05)" width="59.9" xlink:href="#font_ComicBook_Normal_O0"/>
        <use fill="#000000" height="10.45" transform="matrix(0.2539, 0.0, 0.0, 0.2539, 41.15, 13.05)" width="59.9" xlink:href="#font_ComicBook_Normal__0"/>
      </g>
    </g>
    <g id="font_ComicBook_Normal_G0">
      <path d="M38.65 -39.75 L38.7 -39.75 Q46.4 -39.75 49.2 -38.85 54.15 -37.15 53.1 -32.15 52.65 -30.8 51.1 -29.65 49.75 -28.6 48.8 -28.6 L46.2 -29.95 44.45 -30.85 Q41.9 -32.15 39.0 -32.15 32.5 -32.15 25.4 -27.7 22.15 -25.7 19.65 -23.35 17.1 -21.0 15.25 -18.25 14.4 -16.95 14.0 -15.75 12.95 -12.55 14.85 -10.6 16.7 -8.6 21.5 -8.6 26.15 -8.75 33.45 -11.45 40.0 -14.0 40.4 -15.25 40.6 -16.4 39.45 -16.4 L36.45 -15.75 33.25 -15.15 29.25 -14.7 25.25 -14.35 Q23.65 -14.45 22.7 -15.15 21.75 -15.9 22.2 -17.3 23.3 -20.05 29.1 -22.4 33.8 -24.3 41.5 -25.2 L46.4 -25.75 47.4 -25.85 49.95 -25.55 Q51.05 -25.3 51.7 -24.35 52.1 -23.6 51.65 -22.2 46.35 -10.0 35.1 -4.3 27.4 -0.3 19.2 -0.1 L17.9 -0.1 Q10.55 -0.1 7.45 -2.55 6.1 -3.7 5.55 -5.35 5.0 -7.05 5.25 -9.45 5.45 -11.85 6.6 -15.15 8.4 -19.9 11.8 -24.15 15.25 -28.45 20.35 -32.3 30.15 -39.7 38.65 -39.75" fill-rule="evenodd" stroke="none"/>
    </g>
    <g id="font_ComicBook_Normal_Y0">
      <path d="M37.55 -33.4 L41.55 -37.1 Q43.35 -38.75 45.35 -38.75 46.8 -38.6 47.4 -37.65 48.1 -36.8 47.75 -35.8 L47.1 -34.8 28.05 -17.15 20.95 -9.75 Q17.3 -5.9 13.1 -2.3 L10.9 -0.6 Q9.95 0.0 8.75 0.0 7.65 -0.15 7.05 -0.9 6.5 -1.65 6.8 -2.55 7.65 -5.1 10.15 -7.35 L14.9 -11.2 Q18.0 -13.45 19.3 -15.2 19.9 -15.95 20.1 -16.6 20.45 -17.6 20.0 -18.4 L17.6 -23.75 Q16.6 -26.2 15.75 -28.6 13.8 -34.0 13.45 -36.85 L13.55 -37.55 Q14.25 -39.65 19.65 -40.15 21.75 -40.15 22.3 -38.35 L23.3 -34.4 24.0 -31.75 24.6 -29.1 24.8 -25.9 Q24.95 -24.5 26.4 -24.4 27.45 -24.4 29.15 -25.8 L32.55 -28.55 35.1 -30.95 37.55 -33.4" fill-rule="evenodd" stroke="none"/>
    </g>
    <g id="font_ComicBook_Normal_R0">
      <path d="M37.25 -39.85 Q40.9 -39.8 42.9 -38.8 45.25 -37.6 45.45 -34.65 L45.2 -33.4 Q44.4 -30.95 40.2 -27.3 L36.65 -24.4 Q34.65 -22.95 32.45 -21.55 28.55 -19.1 27.5 -19.1 28.1 -17.15 29.55 -14.15 30.05 -13.25 31.85 -11.8 L34.0 -9.55 Q34.7 -8.35 34.05 -6.5 33.35 -4.35 31.25 -3.05 29.85 -2.15 28.5 -2.15 26.85 -2.15 25.6 -3.4 24.45 -4.5 23.55 -6.95 22.65 -9.5 21.55 -10.6 19.7 -12.25 18.0 -13.05 16.3 -13.85 14.75 -13.85 13.45 -13.85 12.7 -11.7 L11.25 -7.15 9.95 -4.7 8.3 -2.2 Q7.35 -0.95 6.15 -0.35 3.8 0.7 2.6 0.7 0.35 0.7 2.4 -5.35 L5.0 -12.05 7.8 -19.45 9.25 -24.2 10.7 -28.35 12.7 -33.25 Q14.45 -37.0 18.9 -38.55 21.75 -39.55 24.8 -39.85 L30.5 -39.9 33.85 -39.9 37.25 -39.85 M25.05 -33.45 L24.35 -33.45 Q22.55 -33.4 20.75 -32.4 20.1 -32.0 19.6 -31.2 L19.1 -30.3 18.6 -29.55 18.6 -29.5 16.2 -26.1 15.75 -25.1 Q15.5 -24.25 15.9 -24.0 L17.45 -23.7 19.05 -23.55 23.9 -24.55 Q27.6 -25.6 31.15 -27.6 34.7 -29.6 35.6 -31.35 36.1 -32.85 33.55 -33.2 L27.9 -33.4 25.05 -33.45" fill-rule="evenodd" stroke="none"/>
    </g>
    <g id="font_ComicBook_Normal_O0">
      <path d="M21.1 -26.25 Q19.0 -23.95 17.5 -21.5 16.0 -19.05 15.15 -16.45 13.85 -12.6 15.0 -10.8 16.6 -8.1 21.1 -8.1 23.95 -8.1 26.6 -9.1 29.25 -10.1 31.85 -12.15 38.35 -17.3 40.35 -23.25 41.8 -27.5 39.65 -30.2 38.1 -32.05 34.25 -32.05 30.9 -32.05 27.55 -30.65 23.75 -29.15 21.1 -26.25 M37.55 -39.95 Q41.25 -39.95 44.1 -38.8 46.85 -37.65 47.7 -35.75 L48.65 -32.8 49.0 -29.6 Q49.05 -28.0 48.7 -26.1 L47.75 -22.4 Q45.1 -14.65 38.05 -8.05 35.9 -6.05 33.55 -4.55 31.2 -3.05 28.55 -2.0 23.5 0.0 18.7 0.0 14.05 0.0 10.8 -1.8 9.0 -2.8 7.95 -4.15 6.9 -5.5 6.4 -7.2 5.25 -11.3 6.85 -16.0 8.8 -21.75 14.5 -27.85 18.9 -32.5 23.4 -35.5 30.1 -39.95 37.55 -39.95" fill-rule="evenodd" stroke="none"/>
    </g>
    <g id="font_ComicBook_Normal__0">
      <path d="M28.45 -32.9 Q25.45 -32.55 19.8 -29.8 14.2 -27.1 14.0 -27.1 L13.1 -27.05 Q10.85 -27.05 11.05 -29.0 L11.5 -31.65 Q11.95 -33.0 13.15 -33.65 18.55 -36.45 21.3 -37.55 26.4 -39.55 30.8 -39.75 L34.7 -40.05 38.75 -40.2 Q46.75 -40.2 45.2 -35.3 44.45 -33.15 42.5 -31.35 L41.3 -30.3 40.0 -29.1 38.7 -28.0 32.65 -23.0 24.7 -15.85 Q23.55 -14.7 22.1 -14.1 L18.6 -13.2 Q17.95 -13.2 17.4 -14.1 16.7 -15.3 16.9 -16.55 L17.25 -18.0 Q18.0 -20.25 20.9 -21.85 29.05 -26.45 29.8 -27.0 33.55 -29.35 34.0 -30.65 34.25 -31.65 32.85 -32.35 L29.5 -32.95 28.45 -32.9 M9.95 -2.8 Q10.3 -3.75 11.4 -5.45 12.65 -7.15 14.55 -8.35 16.4 -9.55 17.95 -9.55 19.0 -9.55 19.65 -9.05 21.15 -7.95 20.3 -5.4 19.75 -3.9 18.65 -2.5 L17.25 -1.05 15.55 -0.05 Q13.65 1.0 12.15 1.0 10.65 1.0 10.1 -0.05 9.45 -1.25 9.95 -2.8" fill-rule="evenodd" stroke="none"/>
    </g>
    <g id="sprite1" transform="matrix(1.0, 0.0, 0.0, 1.0, 934.3, 831.5)">
      <use height="853.6" id="front" transform="matrix(1.0, 0.0, 0.0, 1.0, -609.1, -431.1)" width="1197.0" xlink:href="#sprite2"/>
      <use height="1602.95" transform="matrix(1.0, 0.0, 0.0, 1.0, -934.3, -831.5)" width="1848.2" xlink:href="#sprite20"/>
    </g>
    <g id="sprite2" transform="matrix(1.0, 0.0, 0.0, 1.0, 609.1, 431.1)">
      <use height="853.6" transform="matrix(1.0, 0.0, 0.0, 1.0, -609.1, -431.1)" width="1197.0" xlink:href="#sprite3"/>
      <use height="459.65" transform="matrix(1.0, 0.0, 0.0, 1.0, -373.5, -316.95)" width="747.65" xlink:href="#sprite4"/>
      <use height="67.95" transform="matrix(1.0, 0.0, 0.0, 1.0, -480.15, 150.4)" width="475.0" xlink:href="#shape10"/>
      <use height="67.95" transform="matrix(-1.0, 0.0, 0.0, 1.0, 468.35, 150.4)" width="475.0" xlink:href="#shape10"/>
      <use height="26.55" transform="matrix(1.0, 0.0, 0.0, 0.9584, -339.45, 126.5453)" width="673.55" xlink:href="#sprite7"/>
      <use height="26.55" transform="matrix(1.0, 0.0, 0.0, 0.8794, -339.45, 127.9803)" width="673.55" xlink:href="#sprite7"/>
      <use height="486.75" transform="matrix(1.0, 0.0, 0.0, 1.0, -339.3, -312.75)" width="649.7" xlink:href="#shape12"/>
      <use height="92.9" transform="matrix(0.8022, 0.0, 0.0, 0.8022, 251.5652, 58.8899)" width="69.4" xlink:href="#sprite8"/>
      <use height="20.85" transform="matrix(-0.1353, -0.5051, -0.505, 0.1353, 284.31, 51.0063)" width="27.65" xlink:href="#sprite13"/>
      <use height="604.15" transform="matrix(-0.5859, 0.0, 0.0, 0.586, 283.1691, -285.9867)" width="11.5" xlink:href="#sprite14"/>
      <use height="20.85" transform="matrix(0.5687, -0.1387, -0.1387, -0.5687, 274.8663, 59.9087)" width="27.65" xlink:href="#sprite13"/>
      <use height="20.85" transform="matrix(0.2271, 0.5399, 0.5399, -0.2271, 270.5894, 47.1621)" width="27.65" xlink:href="#sprite13"/>
      <use height="98.9" id="boxy" transform="matrix(1.0, 0.0, 0.0, 1.0, -357.5, 78.45)" width="131.8" xlink:href="#sprite15"/>
    </g>
    <g id="sprite3" transform="matrix(1.0, 0.0, 0.0, 1.0, 598.5, 343.4)">
      <use height="853.6" transform="matrix(1.0, 0.0, 0.0, 1.0, -598.5, -343.4)" width="1197.0" xlink:href="#shape7"/>
    </g>
    <g id="shape7" transform="matrix(1.0, 0.0, 0.0, 1.0, 598.5, 343.4)">
      <path d="M598.5 510.2 L-598.5 510.2 -598.5 -343.4 598.5 -343.4 598.5 510.2 M265.0 172.5 L265.0 -172.5 -265.0 -172.5 -265.0 172.5 265.0 172.5" fill="#330000" fill-rule="evenodd" stroke="none"/>
    </g>
    <g id="sprite4" transform="matrix(1.0, 0.0, 0.0, 1.0, 363.4, 172.0)">
      <use height="24.1" transform="matrix(-2.2633, 0.0, 0.0, -2.2633, -242.2524, -117.4192)" width="40.3" xlink:href="#sprite5"/>
      <use height="24.1" transform="matrix(2.2633, 0.0, 0.0, 2.2633, -238.9476, -171.9808)" width="40.3" xlink:href="#sprite5"/>
      <use height="24.1" transform="matrix(-2.2633, 0.0, 0.0, -2.2633, -54.3524, -117.4192)" width="40.3" xlink:href="#sprite5"/>
      <use height="24.1" transform="matrix(-2.2633, 0.0, 0.0, 2.2633, 39.8476, -171.9808)" width="40.3" xlink:href="#sprite5"/>
      <use height="24.1" transform="matrix(-2.2633, 0.0, 0.0, -2.2633, 133.2976, -117.4192)" width="40.3" xlink:href="#sprite5"/>
      <use height="24.1" transform="matrix(2.2633, 0.0, 0.0, 2.2633, 136.5024, -171.9808)" width="40.3" xlink:href="#sprite5"/>
      <use height="24.1" transform="matrix(-2.2633, 0.0, 0.0, -2.2633, 320.9476, -117.4192)" width="40.3" xlink:href="#sprite5"/>
      <use height="24.1" transform="matrix(-2.2633, 0.0, 0.0, -2.2633, 358.8976, -59.8192)" width="40.3" xlink:href="#sprite5"/>
      <use height="24.1" transform="matrix(2.2633, 0.0, 0.0, 2.2633, -360.0476, -114.5308)" width="40.3" xlink:href="#sprite5"/>
      <use height="24.1" transform="matrix(2.2633, 0.0, 0.0, 2.3982, -360.8976, -0.8368)" width="40.3" xlink:href="#sprite5"/>
      <use height="53.65" transform="matrix(1.05, 0.0, 0.0, -1.1517, 252.4879, 2.0669)" width="70.55" xlink:href="#sprite6"/>
      <use height="24.1" transform="matrix(-2.2633, 0.0, 0.0, -2.3649, 359.8476, 56.9665)" width="40.3" xlink:href="#sprite5"/>
      <use height="24.1" transform="matrix(-2.3764, 0.0, 0.0, -2.4464, 346.6596, 116.4965)" width="40.3" xlink:href="#sprite5"/>
      <use height="24.1" transform="matrix(-2.2633, 0.0, 0.0, -2.2633, 345.3976, 114.4808)" width="40.3" xlink:href="#sprite5"/>
      <use height="24.1" transform="matrix(2.2633, 0.0, 0.0, -2.3629, 267.9024, 172.9403)" width="40.3" xlink:href="#sprite5"/>
      <use height="24.1" transform="matrix(-2.2633, 0.0, 0.0, -2.2633, -269.5024, 172.9308)" width="40.3" xlink:href="#sprite5"/>
      <use height="24.1" transform="matrix(-2.4123, 0.0, 0.0, -2.4854, -248.34, 232.4409)" width="40.3" xlink:href="#sprite5"/>
      <use height="24.1" transform="matrix(-2.2633, 0.0, 0.0, -2.3297, -250.8024, 231.0205)" width="40.3" xlink:href="#sprite5"/>
      <use height="24.1" transform="matrix(-2.2633, 0.0, 0.0, -2.2633, 384.2476, 287.6308)" width="40.3" xlink:href="#sprite5"/>
      <use height="24.1" transform="matrix(-2.2633, 0.0, 0.0, 2.2633, 291.0976, 233.0692)" width="40.3" xlink:href="#sprite5"/>
      <use height="24.1" transform="matrix(-2.3427, 0.0, 0.0, -2.2633, 198.2003, 287.6308)" width="40.3" xlink:href="#sprite5"/>
      <use height="24.1" transform="matrix(2.2633, 0.0, 0.0, 2.2633, 11.8524, 233.0692)" width="40.3" xlink:href="#sprite5"/>
      <use height="24.1" transform="matrix(2.303, 0.0, 0.0, -2.2633, -82.4241, 287.6308)" width="40.3" xlink:href="#sprite5"/>
      <use height="24.1" transform="matrix(2.2633, 0.0, 0.0, 2.2633, -175.6976, 233.0692)" width="40.3" xlink:href="#sprite5"/>
      <use height="24.1" transform="matrix(-2.2633, 0.0, 0.0, -2.2633, -178.9524, 287.6308)" width="40.3" xlink:href="#sprite5"/>
      <use height="24.1" transform="matrix(2.3043, 0.0, 0.0, 2.2633, -363.3983, 233.0692)" width="40.3" xlink:href="#sprite5"/>
      <use height="53.65" transform="matrix(1.05, 0.0, 0.0, 1.1438, 252.6879, 171.045)" width="70.55" xlink:href="#sprite6"/>
      <use height="53.65" transform="matrix(1.0, 0.0, 0.0, 1.0894, 255.45, 173.3545)" width="70.55" xlink:href="#sprite6"/>
      <use height="53.65" transform="matrix(1.0, 0.0, 0.0, -1.0597, 255.45, -0.7998)" width="70.55" xlink:href="#sprite6"/>
      <use height="53.65" transform="matrix(-1.05, 0.0, 0.0, -1.1573, -253.8879, 117.5665)" width="70.55" xlink:href="#sprite6"/>
      <use height="53.65" transform="matrix(-1.0, 0.0, 0.0, -1.0597, -257.0, 115.2002)" width="70.55" xlink:href="#sprite6"/>
      <use height="24.1" transform="matrix(-2.4353, 0.0, 0.0, -2.4595, -250.7898, -0.5379)" width="40.3" xlink:href="#sprite5"/>
      <use height="24.1" transform="matrix(-2.2633, 0.0, 0.0, -2.2633, -253.8024, -2.5192)" width="40.3" xlink:href="#sprite5"/>
    </g>
    <g id="sprite5" transform="matrix(1.0, 0.0, 0.0, 1.0, 19.55, 12.65)">
      <use height="24.1" transform="matrix(1.0, 0.0, 0.0, 1.0, -19.55, -12.65)" width="40.3" xlink:href="#shape8"/>
    </g>
    <g id="shape8" transform="matrix(1.0, 0.0, 0.0, 1.0, 19.55, 12.65)">
      <path d="M19.85 7.75 L19.3 -11.35 7.35 -12.35 20.75 -12.65 19.85 7.75 M-19.55 -9.9 L-17.55 9.7 19.7 11.25 -19.2 11.45 -19.55 -9.9" fill="#6a0000" fill-rule="evenodd" stroke="none"/>
      <path d="M7.35 -12.35 L19.3 -11.35 19.85 7.75 19.7 11.25 -17.55 9.7 -19.55 -9.9 -19.55 -12.45 7.35 -12.35" fill="#470000" fill-rule="evenodd" stroke="none"/>
    </g>
    <g id="sprite6" transform="matrix(1.0, 0.0, 0.0, 1.0, 35.25, 26.8)">
      <use height="53.65" transform="matrix(1.0, 0.0, 0.0, 1.0, -35.25, -26.8)" width="70.55" xlink:href="#shape9"/>
    </g>
    <g id="shape9" transform="matrix(1.0, 0.0, 0.0, 1.0, 35.25, 26.8)">
      <path d="M-31.1 -17.2 L-31.35 -20.3 Q-31.7 -22.75 -32.5 -26.2 L-32.45 -26.4 -32.4 -26.45 -32.4 -26.5 -31.05 -26.45 30.35 -22.9 34.9 21.45 34.95 25.3 32.55 25.35 26.15 25.55 25.85 25.55 -33.65 24.95 -33.75 24.95 -33.8 24.95 -33.8 24.8 -33.95 23.3 Q-34.35 19.05 -33.55 15.65 L-31.55 13.1 -30.1 7.85 Q-29.05 7.0 -28.5 5.95 -26.4 1.9 -26.5 -1.55 L-26.8 -3.85 -27.6 -5.95 -27.7 -6.15 -27.1 -5.45 -27.85 -6.35 -29.35 -8.45 Q-30.9 -10.5 -31.6 -10.75 L-31.75 -10.8 Q-31.15 -13.55 -31.1 -16.3 L-31.1 -17.2" fill="#330000" fill-rule="evenodd" stroke="none"/>
      <path d="M-31.1 -17.2 L-31.1 -16.3 -31.1 -17.2 M-27.85 -6.35 L-27.1 -5.45 -27.7 -6.15 -27.9 -6.3 -27.85 -6.35 M-33.75 24.95 L-33.65 24.95 -33.65 25.05 -33.6 25.35 -33.75 24.95 M26.15 25.55 L32.55 25.35 32.55 25.55 26.15 25.55 M-32.4 -26.45 L-32.45 -26.4 -32.45 -26.45 -32.4 -26.45 M-23.8 -26.55 L-24.5 -26.55 -24.5 -26.6 -23.8 -26.55" fill="#330000" fill-rule="evenodd" stroke="none"/>
      <path d="M-31.1 -16.3 Q-31.15 -13.55 -31.75 -10.8 L-31.6 -10.75 Q-30.9 -10.5 -29.35 -8.45 L-27.85 -6.35 -27.9 -6.3 Q-31.5 -10.15 -33.1 -10.3 -31.25 -13.8 -31.1 -16.3 M-26.5 -1.55 Q-26.4 1.9 -28.5 5.95 -29.05 7.0 -30.1 7.85 L-31.55 13.1 -33.55 15.65 Q-34.35 19.05 -33.95 23.3 L-33.8 24.8 Q-36.5 17.85 -34.2 14.85 -31.85 13.1 -30.95 6.6 L-29.6 5.0 Q-28.25 3.55 -26.5 -1.55 M-33.8 24.95 L-33.75 24.95 -33.8 24.95 M-33.65 24.95 L25.85 25.55 -31.55 26.85 -33.65 25.05 -33.65 24.95 M34.9 21.45 L30.35 -22.9 -31.05 -26.45 -31.8 -26.5 -24.5 -26.55 -23.8 -26.55 34.05 -26.8 34.9 21.45 M35.15 25.3 L35.15 23.8 35.3 25.3 35.15 25.3" fill="#330000" fill-rule="evenodd" stroke="none"/>
    </g>
    <g id="shape10" transform="matrix(1.0, 0.0, 0.0, 1.0, 157.45, 33.95)">
      <path d="M286.05 -33.95 L288.0 -33.95 287.85 -33.65 286.05 -33.95" fill="#000033" fill-rule="evenodd" stroke="none"/>
      <path d="M72.85 -33.95 L220.25 -33.95 139.8 34.0 -139.15 34.0 72.85 -33.95 M223.35 -33.95 L286.05 -33.95 287.85 -33.65 288.0 -33.95 317.55 -33.95 317.55 34.0 145.75 34.0 223.35 -33.95 M-152.65 34.0 L-157.45 34.0 -157.45 -5.1 -24.35 -33.95 67.85 -33.95 -152.65 34.0" fill="#333333" fill-rule="evenodd" stroke="none"/>
      <path d="M67.85 -33.95 L72.85 -33.95 -139.15 34.0 -152.65 34.0 67.85 -33.95 M220.25 -33.95 L223.35 -33.95 145.75 34.0 139.8 34.0 220.25 -33.95" fill="#000000" fill-rule="evenodd" stroke="none"/>
    </g>
    <g id="sprite7" transform="matrix(1.0, 0.0, 0.0, 1.0, 336.75, 13.1)">
      <use height="26.55" transform="matrix(1.0, 0.0, 0.0, 1.0, -336.75, -13.1)" width="673.55" xlink:href="#shape11"/>
    </g>
    <g id="shape11" transform="matrix(1.0, 0.0, 0.0, 1.0, 336.75, 13.1)">
      <path d="M336.8 -9.75 L336.8 -8.35 -336.75 -8.35 -336.75 -9.75 336.8 -9.75 M336.8 6.35 L336.8 7.75 -336.75 7.75 -336.75 6.35 336.8 6.35 M336.8 12.05 L336.8 13.45 -336.75 13.45 -336.75 12.05 336.8 12.05" fill="#000000" fill-opacity="0.24705882" fill-rule="evenodd" stroke="none"/>
      <path d="M336.8 -11.75 L336.8 -9.75 -336.75 -9.75 -336.75 -11.75 336.8 -11.75 M336.8 -8.35 L336.8 6.35 -336.75 6.35 -336.75 -8.35 336.8 -8.35 M336.8 9.2 L336.8 12.05 -336.75 12.05 -336.75 9.2 336.8 9.2" fill="#000000" fill-opacity="0.24705882" fill-rule="evenodd" stroke="none"/>
      <path d="M-336.75 -11.75 L-336.75 -13.1 336.8 -13.1 336.8 -11.75 -336.75 -11.75 M336.8 7.75 L336.8 9.2 -336.75 9.2 -336.75 7.75 336.8 7.75" fill="#000000" fill-opacity="0.24705882" fill-rule="evenodd" stroke="none"/>
    </g>
    <g id="shape12" transform="matrix(1.0, 0.0, 0.0, 1.0, 339.3, 312.75)">
      <path d="M279.95 73.85 Q279.55 73.15 279.55 72.2 276.0 76.15 279.85 79.7 L284.5 80.05 Q288.75 77.5 286.3 73.05 284.0 81.0 279.95 73.85 M279.55 -312.75 L286.3 -312.75 286.15 54.65 287.35 54.7 Q294.85 55.95 289.35 62.65 L289.85 63.55 290.05 64.2 Q290.3 68.15 286.3 68.45 L286.5 69.2 287.05 69.9 Q293.5 77.05 285.8 82.65 L286.45 85.45 288.4 86.35 288.9 84.6 Q289.05 84.15 289.35 83.8 294.65 76.7 303.15 80.85 L304.6 80.1 306.9 81.2 307.0 83.7 308.0 85.05 Q313.8 93.9 305.65 99.05 L305.85 99.5 306.75 101.7 Q311.95 117.4 299.55 128.0 L307.2 135.65 307.4 136.45 307.25 137.1 Q305.6 143.65 301.0 142.1 296.2 140.45 294.15 131.4 L287.35 133.55 288.2 137.35 288.0 138.1 Q285.55 142.45 281.75 141.25 277.75 139.95 277.7 133.55 L270.85 131.4 267.4 140.9 266.8 141.5 Q259.4 144.65 257.65 136.45 L265.45 128.0 263.65 126.25 262.0 124.45 Q254.6 114.85 278.5 86.0 L278.9 85.5 279.3 83.35 279.2 82.65 279.2 82.6 Q270.7 75.45 279.55 68.9 L279.45 68.55 279.2 68.25 279.45 68.25 279.45 49.25 279.55 49.25 279.55 -312.75" fill="#000000" fill-opacity="0.3529412" fill-rule="evenodd" stroke="none"/>
      <path d="M-333.25 88.2 L-274.0 82.55 -230.7 85.05 -230.7 85.2 -230.65 85.2 -230.3 85.15 -230.35 85.7 Q-223.6 105.1 -215.5 121.4 L-231.15 118.2 Q-231.05 138.45 -229.5 159.8 L-304.5 174.0 -327.95 151.05 -330.15 124.7 -339.3 118.55 Q-332.95 105.45 -333.05 90.5 L-333.25 88.2" fill="#000000" fill-opacity="0.2509804" fill-rule="evenodd" stroke="none"/>
    </g>
    <g id="sprite8" transform="matrix(1.0, 0.0, 0.0, 1.0, 34.7, 46.45)">
      <use height="92.9" transform="matrix(1.0, 0.0, 0.0, 1.0, -34.7, -46.45)" width="34.8" xlink:href="#sprite9"/>
      <use height="92.9" transform="matrix(-1.0, 0.0, 0.0, 1.0, 34.7, -46.45)" width="34.8" xlink:href="#sprite9"/>
      <use height="41.25" transform="matrix(1.0, 0.0, 0.0, 1.0, -20.75, -20.35)" width="41.3" xlink:href="#sprite10"/>
      <use height="4.95" transform="matrix(1.0, 0.0, 0.0, 1.0, -2.35, -2.25)" width="4.9" xlink:href="#sprite12"/>
    </g>
    <g id="sprite9" transform="matrix(1.0, 0.0, 0.0, 1.0, 17.4, 46.45)">
      <use height="92.9" transform="matrix(1.0, 0.0, 0.0, 1.0, -17.4, -46.45)" width="34.8" xlink:href="#shape13"/>
    </g>
    <g id="shape13" transform="matrix(1.0, 0.0, 0.0, 1.0, 17.4, 46.45)">
      <path d="M17.4 -45.5 Q13.9 -45.5 11.4 -43.05 8.95 -40.55 8.95 -37.05 8.95 -33.55 11.4 -31.1 L13.35 -29.6 Q13.55 -30.4 14.15 -31.05 L12.6 -32.25 Q10.6 -34.25 10.6 -37.05 10.6 -39.9 12.6 -41.85 14.6 -43.85 17.4 -43.85 L17.4 -42.9 Q14.95 -42.9 13.25 -41.2 11.5 -39.5 11.55 -37.05 11.5 -34.65 13.25 -32.9 L14.9 -31.75 Q15.95 -32.6 17.35 -32.55 L17.4 -32.55 17.4 -31.3 17.35 -31.3 Q16.15 -31.35 15.3 -30.5 14.45 -29.65 14.45 -28.55 14.45 -28.15 14.6 -27.8 15.8 -28.5 17.3 -28.5 L17.4 -28.5 17.4 -27.15 17.3 -27.15 Q15.8 -27.15 14.7 -26.25 13.75 -25.5 13.6 -24.5 L12.35 -24.35 Q12.4 -25.9 13.55 -27.0 13.2 -27.7 13.2 -28.55 L13.2 -28.65 Q11.85 -29.3 10.75 -30.4 8.0 -33.2 8.0 -37.05 8.0 -40.95 10.75 -43.7 13.5 -46.45 17.4 -46.45 L17.4 -45.5 M8.55 -23.55 Q8.45 -25.65 7.2 -27.4 6.05 -29.05 4.1 -30.0 2.15 -31.0 -0.15 -31.15 L-4.95 -30.65 Q-7.45 -29.95 -9.65 -28.4 L-11.8 -26.6 -13.35 -24.75 Q-14.85 -22.7 -15.5 -20.4 -16.15 -18.15 -15.9 -16.0 -15.65 -13.85 -14.5 -12.2 -13.85 -11.25 -12.95 -10.6 L-12.85 -10.5 -11.6 -9.75 -10.8 -9.45 -11.5 -8.15 Q-13.6 -8.9 -15.05 -10.6 L-15.65 -11.35 Q-17.05 -13.35 -17.35 -15.85 -17.6 -18.25 -16.85 -20.8 -16.15 -23.35 -14.5 -25.6 L-13.2 -27.25 -13.2 -27.3 Q-13.65 -27.9 -13.65 -28.55 L-13.5 -29.4 Q-13.2 -30.5 -12.3 -31.15 -11.35 -31.8 -10.2 -31.7 -9.05 -31.65 -8.4 -30.8 L-5.35 -32.0 Q-2.7 -32.8 -0.05 -32.6 2.6 -32.4 4.75 -31.3 7.0 -30.2 8.4 -28.2 9.8 -26.2 10.0 -23.9 L8.55 -23.55 M-12.85 -10.55 L-12.85 -10.6 Q-13.35 -11.35 -12.95 -12.75 -12.65 -13.85 -11.8 -15.2 L-11.4 -15.8 Q-9.0 -19.45 -5.45 -21.95 -2.35 -24.1 1.15 -24.9 L7.0 -25.1 Q4.45 -25.3 1.35 -24.35 -2.0 -23.4 -4.7 -21.45 -8.65 -18.7 -10.9 -15.25 L-11.8 -13.65 Q-12.65 -11.8 -12.15 -10.6 L-11.6 -9.8 -12.85 -10.55 M-2.45 26.5 L-1.05 25.1 Q3.1 23.85 4.45 27.4 L3.5 30.2 2.8 32.2 -1.25 44.1 Q-3.0 46.3 -5.5 46.45 -7.75 46.5 -9.95 45.0 -12.05 43.6 -13.05 41.55 -14.15 39.3 -13.4 37.55 L-3.9 28.0 -2.45 26.5 M11.3 34.9 L12.95 35.1 11.75 40.05 Q11.85 41.65 13.4 42.65 14.75 43.5 16.75 43.55 L17.4 43.55 17.4 45.2 16.75 45.25 Q14.05 45.25 12.25 43.9 10.2 42.4 10.05 39.6 L11.3 34.9 M3.15 28.05 Q2.75 27.05 1.75 26.5 0.85 25.95 -0.1 26.1 L-11.8 38.25 Q-12.3 39.4 -11.6 40.85 L-11.5 40.05 Q-11.1 39.1 -9.75 38.85 -8.45 38.65 -6.95 39.3 -5.45 39.9 -4.7 41.0 -3.95 42.1 -4.35 43.05 L-4.45 43.3 Q-4.55 42.6 -5.1 41.85 -5.7 41.1 -6.6 40.65 -7.85 39.95 -9.0 40.0 -10.2 40.1 -10.65 40.9 -10.95 41.45 -10.75 42.15 L-9.0 43.6 Q-7.35 44.65 -5.75 44.7 -3.95 44.75 -2.95 43.5 L3.15 28.05 M0.05 28.3 L-0.95 30.15 Q-5.45 38.1 -5.45 39.15 -7.85 36.95 -10.95 38.1 L0.0 26.9 0.65 27.25 0.05 28.3 M-11.8 -28.55 L-10.5 -29.55 -9.45 -30.25 -10.3 -30.6 Q-11.0 -30.65 -11.6 -30.2 -12.25 -29.8 -12.45 -29.1 L-12.5 -28.55 -12.35 -28.05 -11.8 -28.55 M-7.65 -28.15 Q-7.95 -26.1 -7.3 -24.95 -6.75 -24.0 -5.55 -23.9 L-7.75 -22.6 -10.25 -20.7 -11.8 -19.0 Q-13.4 -16.85 -14.0 -13.95 -14.55 -13.5 -14.9 -14.85 -15.3 -21.25 -11.8 -25.1 -10.15 -26.9 -7.65 -28.15" fill="#ffcc00" fill-rule="evenodd" stroke="none"/>
      <path d="M-12.85 -10.5 L-12.85 -10.55 -11.6 -9.8 -11.6 -9.75 -12.85 -10.5" fill="#ffff99" fill-rule="evenodd" stroke="none"/>
      <path d="M12.35 -24.35 L13.6 -24.5 17.4 -24.75 17.4 -24.0 13.65 -23.8 12.4 -23.6 10.0 -23.15 8.55 -22.75 6.05 -21.95 Q0.65 -19.95 -3.6 -16.25 -7.25 -13.15 -9.6 -9.15 L-10.35 -7.8 -10.4 -7.7 Q-13.0 -2.7 -13.35 2.95 -13.7 8.95 -11.5 14.55 -9.35 19.95 -5.05 24.2 L-2.45 26.5 -3.9 28.0 -6.25 25.9 Q-10.75 21.45 -13.0 15.75 -15.3 9.9 -14.9 3.6 -14.55 -2.35 -11.8 -7.6 L-11.5 -8.15 -10.8 -9.45 -9.95 -10.7 Q-7.75 -13.95 -4.65 -16.6 -0.2 -20.45 5.45 -22.55 L7.1 -23.15 8.55 -23.55 10.0 -23.9 12.35 -24.35 M17.4 23.1 Q12.4 23.05 7.9 21.2 3.4 19.35 0.05 16.05 -3.3 12.75 -5.0 8.5 -6.75 4.05 -6.45 -0.65 -6.2 -4.4 -4.7 -7.85 L-4.1 -9.05 -3.85 -9.5 Q-1.95 -13.05 1.25 -15.75 4.2 -18.35 7.9 -19.85 L8.75 -20.2 9.65 -20.5 13.55 -21.5 16.1 -21.75 17.4 -21.8 17.4 -20.45 16.15 -20.45 15.95 -20.4 14.55 -20.25 13.85 -20.15 10.2 -19.3 9.75 -19.15 9.35 -19.0 9.1 -18.95 7.15 -18.1 Q4.5 -16.9 2.35 -15.1 -0.35 -12.95 -2.1 -10.15 L-2.6 -9.25 -3.15 -8.2 -4.05 -5.85 -4.9 -2.6 -5.15 0.75 Q-5.15 4.45 -3.75 7.95 -2.15 11.95 1.0 15.1 4.15 18.25 8.35 20.0 11.85 21.4 15.65 21.7 L17.4 21.8 17.4 23.1 M3.5 30.2 L4.95 30.8 Q10.8 33.2 17.4 33.25 L17.4 35.4 12.95 35.1 11.3 34.9 Q7.65 34.25 4.25 32.85 L2.8 32.2 3.5 30.2" fill="#990000" fill-rule="evenodd" stroke="none"/>
      <path d="M15.95 -20.4 L16.15 -20.45 15.7 -20.35 15.25 -20.3 15.95 -20.4" fill="#ffffff" fill-rule="evenodd" stroke="none"/>
      <path d="M17.4 21.8 L15.65 21.7 16.85 15.9 17.4 15.9 17.4 21.8 M-5.15 0.75 L-4.9 -2.6 -4.7 -2.55 0.5 -1.45 0.5 -0.15 -5.15 0.75 M16.15 -20.45 L17.4 -20.45 17.4 -14.65 16.85 -14.65 15.7 -20.35 16.15 -20.45" fill="#ff9900" fill-rule="evenodd" stroke="none"/>
      <path d="M17.4 -21.8 L16.1 -21.75 13.55 -21.5 9.65 -20.5 8.75 -20.2 7.9 -19.85 Q4.2 -18.35 1.25 -15.75 -1.95 -13.05 -3.85 -9.5 L-4.1 -9.05 -4.7 -7.85 Q-6.2 -4.4 -6.45 -0.65 -6.75 4.05 -5.0 8.5 -3.3 12.75 0.05 16.05 3.4 19.35 7.9 21.2 12.4 23.05 17.4 23.1 L17.4 33.25 Q10.8 33.2 4.95 30.8 L3.5 30.2 4.45 27.4 Q3.1 23.85 -1.05 25.1 L-2.45 26.5 -5.05 24.2 Q-9.35 19.95 -11.5 14.55 -13.7 8.95 -13.35 2.95 -13.0 -2.7 -10.4 -7.7 L-10.35 -7.8 -9.6 -9.15 Q-7.25 -13.15 -3.6 -16.25 0.65 -19.95 6.05 -21.95 L8.55 -22.75 10.0 -23.15 12.4 -23.6 13.65 -23.8 17.4 -24.0 17.4 -21.8" fill="#ff0000" fill-rule="evenodd" stroke="none"/>
      <path d="M17.4 -43.85 Q14.6 -43.85 12.6 -41.85 10.6 -39.9 10.6 -37.05 10.6 -34.25 12.6 -32.25 L14.15 -31.05 Q13.55 -30.4 13.35 -29.6 L11.4 -31.1 Q8.95 -33.55 8.95 -37.05 8.95 -40.55 11.4 -43.05 13.9 -45.5 17.4 -45.5 L17.4 -43.85 M13.6 -24.5 Q13.75 -25.5 14.7 -26.25 15.8 -27.15 17.3 -27.15 L17.4 -27.15 17.4 -24.75 13.6 -24.5 M17.4 -28.5 L17.3 -28.5 Q15.8 -28.5 14.6 -27.8 14.45 -28.15 14.45 -28.55 14.45 -29.65 15.3 -30.5 16.15 -31.35 17.35 -31.3 L17.4 -31.3 17.4 -28.5 M-12.85 -10.5 L-12.95 -10.6 Q-13.85 -11.25 -14.5 -12.2 -15.65 -13.85 -15.9 -16.0 -16.15 -18.15 -15.5 -20.4 -14.85 -22.7 -13.35 -24.75 L-11.8 -26.6 -9.65 -28.4 Q-7.45 -29.95 -4.95 -30.65 L-0.15 -31.15 Q2.15 -31.0 4.1 -30.0 6.05 -29.05 7.2 -27.4 8.45 -25.65 8.55 -23.55 L7.1 -23.15 Q5.95 -24.7 2.65 -23.95 -0.65 -23.2 -4.15 -20.6 -7.65 -17.95 -9.3 -15.05 -10.95 -12.2 -9.95 -10.7 L-10.8 -9.45 -11.6 -9.75 -11.6 -9.8 -12.15 -10.6 Q-12.65 -11.8 -11.8 -13.65 L-10.9 -15.25 Q-8.65 -18.7 -4.7 -21.45 -2.0 -23.4 1.35 -24.35 4.45 -25.3 7.0 -25.1 L1.15 -24.9 Q-2.35 -24.1 -5.45 -21.95 -9.0 -19.45 -11.4 -15.8 L-11.8 -15.2 Q-12.65 -13.85 -12.95 -12.75 -13.35 -11.35 -12.85 -10.6 L-12.85 -10.55 -12.85 -10.5 M12.95 35.1 L17.4 35.4 17.4 43.55 16.75 43.55 Q14.75 43.5 13.4 42.65 11.85 41.65 11.75 40.05 L12.95 35.1 M3.15 28.05 L-2.95 43.5 Q-3.95 44.75 -5.75 44.7 -7.35 44.65 -9.0 43.6 L-10.75 42.15 Q-10.95 41.45 -10.65 40.9 -10.2 40.1 -9.0 40.0 -7.85 39.95 -6.6 40.65 -5.7 41.1 -5.1 41.85 -4.55 42.6 -4.45 43.3 L-4.35 43.05 Q-3.95 42.1 -4.7 41.0 -5.45 39.9 -6.95 39.3 -8.45 38.65 -9.75 38.85 -11.1 39.1 -11.5 40.05 L-11.6 40.85 Q-12.3 39.4 -11.8 38.25 L-0.1 26.1 Q0.85 25.95 1.75 26.5 2.75 27.05 3.15 28.05 M0.05 28.3 L0.65 27.25 0.0 26.9 -10.95 38.1 Q-7.85 36.95 -5.45 39.15 -5.45 38.1 -0.95 30.15 L0.05 28.3 M-11.8 -28.55 L-12.35 -28.05 -12.5 -28.55 -12.45 -29.1 Q-12.25 -29.8 -11.6 -30.2 -11.0 -30.65 -10.3 -30.6 L-9.45 -30.25 -10.5 -29.55 -11.8 -28.55 M-7.65 -28.15 Q-10.15 -26.9 -11.8 -25.1 -15.3 -21.25 -14.9 -14.85 -14.55 -13.5 -14.0 -13.95 -13.4 -16.85 -11.8 -19.0 L-10.25 -20.7 -7.75 -22.6 -5.55 -23.9 Q-6.75 -24.0 -7.3 -24.95 -7.95 -26.1 -7.65 -28.15" fill="#cc9900" fill-rule="evenodd" stroke="none"/>
      <path d="M-9.95 -10.7 Q-10.95 -12.2 -9.3 -15.05 -7.65 -17.95 -4.15 -20.6 -0.65 -23.2 2.65 -23.95 5.95 -24.7 7.1 -23.15 L5.45 -22.55 Q-0.2 -20.45 -4.65 -16.6 -7.75 -13.95 -9.95 -10.7" fill="#996600" fill-rule="evenodd" stroke="none"/>
      <path d="M15.65 21.7 Q11.85 21.4 8.35 20.0 4.15 18.25 1.0 15.1 -2.15 11.95 -3.75 7.95 -5.15 4.45 -5.15 0.75 L0.5 -0.15 0.5 -1.45 -4.7 -2.55 -4.9 -2.6 -4.05 -5.85 -3.15 -8.2 -2.6 -9.25 -2.1 -10.15 Q-0.35 -12.95 2.35 -15.1 4.5 -16.9 7.15 -18.1 L9.1 -18.95 9.35 -19.0 9.75 -19.15 10.2 -19.3 13.85 -20.15 14.55 -20.25 15.25 -20.3 15.7 -20.35 16.85 -14.65 17.4 -14.65 17.4 15.9 16.85 15.9 15.65 21.7" fill="#cccccc" fill-rule="evenodd" stroke="none"/>
    </g>
    <g id="sprite10" transform="matrix(1.0, 0.0, 0.0, 1.0, 24.95, 17.25)">
      <use height="15.15" transform="matrix(0.7258, -0.6856, 0.6856, 0.7258, -15.7408, -6.5805)" width="3.1" xlink:href="#sprite11"/>
      <use height="15.15" transform="matrix(1.0, 0.0, 0.0, 1.3642, -5.8, -17.2501)" width="3.1" xlink:href="#sprite11"/>
    </g>
    <g id="sprite11" transform="matrix(1.0, 0.0, 0.0, 1.0, 1.5, 15.1)">
      <use height="15.15" transform="matrix(1.0, 0.0, 0.0, 1.0, -1.5, -15.1)" width="3.1" xlink:href="#shape14"/>
    </g>
    <g id="shape14" transform="matrix(1.0, 0.0, 0.0, 1.0, 1.5, 15.1)">
      <path d="M0.3 -14.4 Q1.55 -10.3 1.6 -5.55 1.6 -2.65 1.15 0.05 L-1.05 0.05 Q-1.5 -2.65 -1.5 -5.55 -1.45 -10.3 -0.2 -14.4 L0.05 -15.1 0.3 -14.4" fill="#2800a3" fill-rule="evenodd" stroke="none"/>
    </g>
    <g id="sprite12" transform="matrix(1.0, 0.0, 0.0, 1.0, 2.45, 2.45)">
      <use height="4.95" transform="matrix(1.0, 0.0, 0.0, 1.0, -2.45, -2.45)" width="4.9" xlink:href="#shape15"/>
    </g>
    <g id="shape15" transform="matrix(1.0, 0.0, 0.0, 1.0, 2.45, 2.45)">
      <path d="M1.75 -1.75 Q2.45 -1.0 2.45 0.05 2.45 1.0 1.75 1.75 1.0 2.5 0.0 2.5 -1.0 2.5 -1.75 1.75 -2.45 1.05 -2.45 0.0 -2.45 -1.0 -1.75 -1.75 -1.0 -2.45 0.0 -2.45 1.0 -2.45 1.75 -1.75 M1.5 -0.2 Q1.5 -0.95 1.0 -1.45 0.45 -2.0 -0.25 -1.95 -1.0 -2.0 -1.5 -1.45 -2.0 -0.9 -2.0 -0.2 -2.0 0.5 -1.5 1.05 -1.0 1.55 -0.25 1.6 0.45 1.55 1.0 1.05 1.5 0.5 1.5 -0.2" fill="#000099" fill-rule="evenodd" stroke="none"/>
      <path d="M1.5 -0.2 Q1.5 0.5 1.0 1.05 0.45 1.55 -0.25 1.6 -1.0 1.55 -1.5 1.05 -2.0 0.5 -2.0 -0.2 -2.0 -0.9 -1.5 -1.45 -1.0 -2.0 -0.25 -1.95 0.45 -2.0 1.0 -1.45 1.5 -0.95 1.5 -0.2" fill="#3300ff" fill-rule="evenodd" stroke="none"/>
    </g>
    <g id="sprite13" transform="matrix(1.0, 0.0, 0.0, 1.0, 13.55, 10.25)">
      <use height="20.85" transform="matrix(1.0, 0.0, 0.0, 1.0, -13.55, -10.25)" width="27.65" xlink:href="#shape16"/>
    </g>
    <g id="shape16" transform="matrix(1.0, 0.0, 0.0, 1.0, 13.55, 10.25)">
      <path d="M-10.2 -6.3 Q-9.45 -7.25 -8.1 -7.3 -3.65 -7.55 1.95 -4.25 6.6 -1.5 10.35 2.65 12.3 4.75 10.2 6.7 9.3 7.5 8.25 7.5 7.0 7.5 6.1 6.55 4.7 4.0 -0.85 0.85 -6.35 -2.3 -8.55 -1.65 -9.35 -1.8 -9.95 -2.35 -10.7 -3.15 -10.75 -4.3 -10.85 -5.45 -10.2 -6.3" fill="#cc9966" fill-rule="evenodd" stroke="none"/>
      <path d="M-10.2 -6.3 Q-10.85 -5.45 -10.75 -4.3 -10.7 -3.15 -9.95 -2.35 -9.35 -1.8 -8.55 -1.65 -6.35 -2.3 -0.85 0.85 4.7 4.0 6.1 6.55 7.0 7.5 8.25 7.5 9.3 7.5 10.2 6.7 12.3 4.75 10.35 2.65 6.6 -1.5 1.95 -4.25 -3.65 -7.55 -8.1 -7.3 -9.45 -7.25 -10.2 -6.3 M-13.55 -3.85 Q-13.65 -6.2 -12.3 -8.0 -10.7 -10.1 -7.9 -10.25 -2.55 -10.5 3.65 -6.8 8.55 -3.9 12.55 0.45 14.4 2.5 14.05 5.15 13.8 7.4 12.1 8.95 10.35 10.55 8.05 10.6 5.4 10.65 3.55 8.6 1.9 6.75 -0.6 4.85 -4.75 1.7 -7.15 1.85 -10.05 2.0 -11.85 0.1 -13.4 -1.55 -13.55 -3.85" fill="#996633" fill-rule="evenodd" stroke="none"/>
    </g>
    <g id="sprite14" transform="matrix(1.0, 0.0, 0.0, 1.0, 5.75, 529.6)">
      <use height="604.15" transform="matrix(1.0, 0.0, 0.0, 1.0, -5.75, -529.6)" width="11.5" xlink:href="#shape17"/>
    </g>
    <g id="shape17" transform="matrix(1.0, 0.0, 0.0, 1.0, 5.75, 529.6)">
      <path d="M2.5 -460.0 L5.75 -460.0 5.75 68.8 Q5.75 71.4 4.05 72.95 L3.85 73.1 Q2.2 74.55 0.0 74.55 -2.2 74.55 -3.85 73.1 L-4.0 72.95 Q-5.75 71.4 -5.75 68.8 L-5.75 -460.0 -2.5 -460.0 -2.5 68.8 Q-2.5 70.0 -1.7 70.7 -1.0 71.3 0.0 71.3 1.0 71.3 1.7 70.7 2.5 70.0 2.5 68.8 L2.5 -460.0" fill="#996633" fill-rule="evenodd" stroke="none"/>
      <path d="M-2.5 -460.0 L2.5 -460.0 2.5 68.8 Q2.5 70.0 1.7 70.7 1.0 71.3 0.0 71.3 -1.0 71.3 -1.7 70.7 -2.5 70.0 -2.5 68.8 L-2.5 -460.0" fill="#cc9966" fill-rule="evenodd" stroke="none"/>
      <path d="M2.5 -529.6 L5.75 -529.6 5.75 -454.4 2.5 -454.4 2.5 -529.6 M-2.5 -454.4 L-5.75 -454.4 -5.75 -529.6 -2.5 -529.6 -2.5 -454.4" fill="#996633" fill-rule="evenodd" stroke="none"/>
      <path d="M2.5 -454.4 L-2.5 -454.4 -2.5 -529.6 2.5 -529.6 2.5 -454.4" fill="#cc9966" fill-rule="evenodd" stroke="none"/>
    </g>
    <g id="sprite15" transform="matrix(1.0, 0.0, 0.0, 1.0, 65.9, 49.45)">
      <use height="38.0" transform="matrix(1.0646, 0.0, 0.0, 1.0646, 26.8148, -46.8272)" width="36.7" xlink:href="#sprite16"/>
      <use height="92.9" transform="matrix(1.0646, 0.0, 0.0, 1.0646, -60.5604, -49.4502)" width="105.6" xlink:href="#sprite17"/>
      <use height="46.35" transform="matrix(1.0646, 0.0, 0.0, 1.0646, -65.8834, -41.6953)" width="32.05" xlink:href="#sprite18"/>
      <use height="35.95" transform="matrix(1.0581, 0.0, 0.0, 1.0581, -19.6869, -13.3288)" width="56.85" xlink:href="#button0"/>
    </g>
    <g id="sprite16" transform="matrix(1.0, 0.0, 0.0, 1.0, 18.35, 19.0)">
      <use height="38.0" transform="matrix(1.0, 0.0, 0.0, 1.0, -18.35, -19.0)" width="36.7" xlink:href="#shape18"/>
    </g>
    <g id="shape18" transform="matrix(1.0, 0.0, 0.0, 1.0, 18.35, 19.0)">
      <path d="M-18.3 -17.5 L-16.9 10.1 15.65 16.75 Q14.8 12.0 13.4 7.55 9.6 -5.2 2.2 -15.6 L-18.3 -17.5" fill="#878743" fill-rule="evenodd" stroke="none"/>
      <path d="M-16.9 10.1 L-16.85 11.8 18.35 19.0 Q17.0 13.2 15.1 7.6 10.75 -5.15 3.35 -17.2 L-18.35 -19.0 -18.3 -17.5 2.2 -15.6 Q9.6 -5.2 13.4 7.55 14.8 12.0 15.65 16.75 L-16.9 10.1" fill="#333300" fill-rule="evenodd" stroke="none"/>
    </g>
    <g id="sprite17" transform="matrix(1.0, 0.0, 0.0, 1.0, 52.8, 46.45)">
      <use height="92.9" transform="matrix(1.0, 0.0, 0.0, 1.0, -52.8, -46.45)" width="105.6" xlink:href="#shape19"/>
    </g>
    <g id="shape19" transform="matrix(1.0, 0.0, 0.0, 1.0, 52.8, 46.45)">
      <path d="M5.4 -37.65 L4.75 -44.3 -48.0 -38.55 -26.8 -34.25 5.4 -37.65 M6.05 -44.25 L7.05 -37.9 44.85 -41.35 6.05 -44.25 M51.2 -42.25 L52.1 -27.4 52.25 -24.35 Q53.5 4.05 52.0 32.4 14.1 41.9 -19.65 46.45 -33.05 37.65 -45.75 25.25 -51.0 -7.8 -52.8 -39.3 L4.65 -46.45 50.8 -42.35 51.2 -42.25 M49.9 -27.4 L48.8 -39.85 -26.4 -32.1 Q-25.05 6.95 -18.6 44.4 14.8 39.8 49.8 30.9 51.9 3.25 50.1 -24.35 L49.9 -27.4 M-50.3 -37.6 Q-49.7 -6.05 -44.15 24.7 -33.0 35.5 -20.75 43.5 -26.75 3.25 -28.75 -32.45 L-50.3 -37.6" fill="#333300" fill-rule="evenodd" stroke="none"/>
      <path d="M6.05 -44.25 L44.85 -41.35 7.05 -37.9 6.05 -44.25" fill="#999933" fill-rule="evenodd" stroke="none"/>
      <path d="M5.4 -37.65 L-26.8 -34.25 -48.0 -38.55 4.75 -44.3 5.4 -37.65" fill="#666633" fill-rule="evenodd" stroke="none"/>
      <path d="M49.9 -27.4 L50.1 -24.35 Q51.9 3.25 49.8 30.9 14.8 39.8 -18.6 44.4 -25.05 6.95 -26.4 -32.1 L48.8 -39.85 49.9 -27.4" fill="#cccc99" fill-rule="evenodd" stroke="none"/>
      <path d="M-50.3 -37.6 L-28.75 -32.45 Q-26.75 3.25 -20.75 43.5 -33.0 35.5 -44.15 24.7 -49.7 -6.05 -50.3 -37.6" fill="#999966" fill-rule="evenodd" stroke="none"/>
    </g>
    <g id="sprite18" transform="matrix(1.0, 0.0, 0.0, 1.0, 16.0, 23.15)">
      <use height="46.35" transform="matrix(1.0, 0.0, 0.0, 1.0, -16.0, -23.15)" width="32.05" xlink:href="#shape20"/>
    </g>
    <g id="shape20" transform="matrix(1.0, 0.0, 0.0, 1.0, 16.0, 23.15)">
      <path d="M14.1 -16.25 L-9.5 -21.6 Q-14.4 -8.25 -14.75 6.5 L6.7 20.25 Q6.9 -0.65 14.1 -16.25 M16.05 -17.35 Q7.75 2.95 8.4 23.2 L-16.0 7.15 Q-15.7 -8.8 -10.85 -23.15 L16.05 -17.35" fill="#333300" fill-rule="evenodd" stroke="none"/>
      <path d="M14.1 -16.25 Q6.9 -0.65 6.7 20.25 L-14.75 6.5 Q-14.4 -8.25 -9.5 -21.6 L14.1 -16.25" fill="#999933" fill-rule="evenodd" stroke="none"/>
    </g>
    <g id="button0" transform="matrix(1.0, 0.0, 0.0, 1.0, 29.9, 16.85)">
      <use height="17.05" transform="matrix(1.0, 0.0, 0.0, 1.0, -16.55, -15.1)" width="39.1" xlink:href="#sprite19"/>
    </g>
    <g id="sprite19" transform="matrix(1.0, 0.0, 0.0, 1.0, 16.55, 15.3)">
      <use height="10.4" transform="matrix(0.8528, -0.1173, 0.0, 1.1239, -16.5586, -9.9246)" width="45.85" xlink:href="#text1"/>
    </g>
    <g id="text1" transform="matrix(1.0, 0.0, 0.0, 1.0, -8.55, -2.65)">
      <g transform="matrix(1.0, 0.0, 0.0, 1.0, 8.9, 0.0)">
        <use fill="#3333ff" height="10.4" transform="matrix(0.2344, 0.0, 0.0, 0.2344, 0.1, 12.5)" width="45.85" xlink:href="#font_ComicBook_Bold_Q0"/>
        <use fill="#3333ff" height="10.4" transform="matrix(0.2344, 0.0, 0.0, 0.2344, 12.85, 12.5)" width="45.85" xlink:href="#font_ComicBook_Bold_U0"/>
        <use fill="#3333ff" height="10.4" transform="matrix(0.2344, 0.0, 0.0, 0.2344, 23.7, 12.5)" width="45.85" xlink:href="#font_ComicBook_Bold_I0"/>
        <use fill="#3333ff" height="10.4" transform="matrix(0.2344, 0.0, 0.0, 0.2344, 28.25, 12.5)" width="45.85" xlink:href="#font_ComicBook_Bold_T0"/>
      </g>
    </g>
    <g id="font_ComicBook_Bold_Q0">
      <path d="M29.25 -30.8 Q24.75 -30.8 19.9 -28.2 L19.85 -28.15 19.8 -28.15 Q16.0 -26.4 13.0 -21.25 10.3 -16.55 10.3 -13.5 10.3 -12.2 10.9 -11.8 13.35 -8.85 17.25 -8.85 20.5 -8.85 27.2 -11.25 L28.4 -11.9 Q28.2 -12.2 28.1 -12.8 L25.05 -15.95 Q22.6 -18.25 21.55 -20.5 L21.5 -20.6 21.25 -22.0 Q21.25 -23.9 22.75 -25.25 24.2 -26.6 25.95 -26.6 27.45 -26.6 28.7 -25.95 L28.8 -25.85 Q30.55 -25.0 33.0 -22.55 L36.65 -18.55 36.7 -18.55 37.15 -18.4 37.9 -18.8 Q38.2 -18.8 38.5 -19.95 38.9 -21.45 38.9 -22.85 38.9 -25.7 37.5 -27.1 34.55 -30.8 29.25 -30.8 M5.95 -31.15 Q7.75 -33.0 9.7 -34.5 L13.9 -37.25 Q21.65 -41.65 29.55 -41.65 39.8 -41.65 46.6 -34.2 L46.65 -34.2 Q50.15 -29.9 50.15 -24.5 50.15 -20.25 47.9 -15.7 46.0 -11.9 43.5 -9.85 L43.5 -9.75 43.55 -9.65 Q43.55 -9.35 44.7 -8.7 46.25 -8.0 47.0 -7.25 48.25 -6.0 48.6 -3.8 48.6 -0.05 46.05 1.45 L46.0 1.5 Q44.75 2.25 43.25 2.25 41.65 2.25 39.85 1.4 L39.9 1.35 Q38.1 0.45 36.9 -0.85 35.75 -1.95 35.45 -1.95 L35.5 -1.95 33.5 -2.15 33.45 -2.15 27.85 0.25 Q24.3 1.9 21.0 2.1 L17.95 2.2 Q4.3 2.2 -0.2 -7.05 -1.85 -10.45 -1.85 -14.1 -1.85 -20.65 2.75 -27.3 4.2 -29.3 5.95 -31.15 M28.4 -11.9 L28.6 -11.7 Q28.9 -11.7 28.9 -11.85 L28.7 -12.0 28.4 -11.9 M37.15 -18.4 L36.4 -17.7 37.05 -17.6 Q37.65 -17.7 37.65 -17.95 L37.15 -18.4" fill-rule="evenodd" stroke="none"/>
    </g>
    <g id="font_ComicBook_Bold_U0">
      <path d="M36.55 -41.95 Q41.0 -40.5 41.0 -36.9 L40.95 -36.0 Q38.85 -27.7 38.4 -21.95 L38.15 -15.6 Q38.15 -9.9 40.55 -4.8 L41.0 -2.45 Q41.0 -1.05 40.25 -0.15 39.5 0.7 37.95 1.1 L34.1 1.4 Q31.9 1.4 27.85 -0.15 21.4 2.45 17.05 2.45 -0.35 1.85 -0.6 -9.2 -0.6 -14.15 0.65 -19.5 L2.65 -28.8 Q2.65 -31.95 2.9 -34.9 L2.95 -35.0 Q3.3 -37.35 5.25 -38.75 7.05 -40.05 9.35 -40.05 12.65 -39.85 14.1 -37.1 L15.3 -32.75 15.65 -30.45 Q15.65 -28.75 14.6 -26.35 13.6 -23.8 13.5 -23.0 L11.15 -10.25 Q12.45 -9.6 13.8 -9.6 L18.0 -10.4 Q21.6 -10.6 24.25 -11.75 26.6 -12.75 26.6 -14.15 L26.85 -16.5 27.3 -20.8 28.05 -27.8 28.75 -34.3 Q29.05 -37.1 30.25 -39.15 32.0 -42.05 35.35 -42.05 L36.55 -41.95" fill-rule="evenodd" stroke="none"/>
    </g>
    <g id="font_ComicBook_Bold_I0">
      <path d="M15.0 -34.5 L15.05 -34.6 Q14.4 -28.4 13.8 -19.25 L12.6 -3.45 Q12.55 -1.5 11.3 0.1 9.95 1.75 7.75 2.1 L7.7 2.1 Q4.65 2.1 3.0 0.7 1.0 -1.0 1.0 -3.6 L1.0 -3.75 1.2 -19.65 Q1.4 -25.15 2.5 -35.6 L2.5 -35.5 Q2.65 -38.05 4.35 -39.95 6.2 -42.05 8.9 -42.05 12.0 -42.05 13.75 -39.6 14.4 -38.75 14.7 -37.6 L15.0 -34.5" fill-rule="evenodd" stroke="none"/>
    </g>
    <g id="font_ComicBook_Bold_T0">
      <path d="M38.0 -40.85 Q40.3 -39.45 40.3 -36.65 40.3 -34.05 38.45 -32.15 36.6 -30.3 34.1 -30.3 L28.6 -29.75 26.4 -29.65 25.5 -29.6 Q25.9 -28.75 25.9 -23.8 L25.65 -15.75 Q25.5 -13.8 24.75 -9.6 24.15 -6.0 24.15 -2.85 L24.15 -2.75 Q23.65 -0.65 21.95 0.45 20.2 1.7 18.05 1.7 12.7 1.7 12.2 -2.65 L12.2 -2.8 12.35 -7.6 12.8 -13.4 Q13.4 -19.55 13.4 -23.05 13.4 -25.8 13.0 -29.1 L13.1 -29.05 12.95 -29.6 8.5 -29.05 6.05 -29.35 Q5.05 -29.6 4.15 -30.25 2.15 -31.7 2.15 -34.35 2.15 -36.9 4.05 -38.6 5.85 -40.15 8.25 -40.15 L12.75 -40.4 19.45 -41.0 27.15 -41.65 33.75 -41.9 Q36.25 -41.9 38.0 -40.85" fill-rule="evenodd" stroke="none"/>
    </g>
    <g id="sprite20" transform="matrix(1.0, 0.0, 0.0, 1.0, 934.3, 913.75)">
      <use height="30.0" transform="matrix(1.0, 0.0, 0.0, 1.0, -335.85, 96.4)" width="650.0" xlink:href="#shape21"/>
      <use height="36.05" transform="matrix(1.0, 0.0, 0.0, 1.0, -140.2, 99.1)" width="272.1" xlink:href="#sprite21"/>
      <use height="1602.95" transform="matrix(1.0, 0.0, 0.0, 1.0, -934.3, -913.75)" width="1848.2" xlink:href="#sprite22"/>
    </g>
    <g id="shape21" transform="matrix(1.0, 0.0, 0.0, 1.0, 335.85, -96.4)">
      <path d="M314.15 126.4 L-335.85 126.4 -335.85 96.4 314.15 96.4 314.15 126.4" fill="#330099" fill-rule="evenodd" stroke="none"/>
    </g>
    <g id="sprite21" transform="matrix(1.0, 0.0, 0.0, 1.0, 123.85, -23.2)">
      <use height="33.6" transform="matrix(1.0, 0.0, 0.0, 1.0, -123.85, 25.65)" width="271.3" xlink:href="#text2"/>
      <use height="383.0" transform="matrix(0.0751, 0.0, 0.0, 0.0312, -91.203, 23.2201)" width="658.85" xlink:href="#button1"/>
      <use height="383.0" transform="matrix(0.0934, 0.0, 0.0, 0.0312, -32.3804, 23.2201)" width="658.85" xlink:href="#button2"/>
      <use height="383.0" transform="matrix(0.0998, 0.0, 0.0, 0.0312, 37.2234, 23.2201)" width="658.85" xlink:href="#button3"/>
      <use height="383.0" transform="matrix(0.0998, 0.0, 0.0, 0.0312, 82.5234, 38.1201)" width="658.85" xlink:href="#button4"/>
    </g>
    <g id="text2" transform="matrix(1.0, 0.0, 0.0, 1.0, -129.05, -1.65)">
      <g transform="matrix(1.0, 0.0, 0.0, 1.0, -39.05, 0.0)">
        <use fill="#33ccff" height="33.6" transform="matrix(0.1953, 0.0, 0.0, 0.1953, 194.0, 8.95)" width="271.3" xlink:href="#font_Helvetica_C0"/>
        <use fill="#33ccff" height="33.6" transform="matrix(0.1953, 0.0, 0.0, 0.1953, 201.2, 8.95)" width="271.3" xlink:href="#font_Helvetica_o0"/>
        <use fill="#33ccff" height="33.6" transform="matrix(0.1953, 0.0, 0.0, 0.1953, 206.75, 8.95)" width="271.3" xlink:href="#font_Helvetica_n0"/>
        <use fill="#33ccff" height="33.6" transform="matrix(0.1953, 0.0, 0.0, 0.1953, 212.3, 8.95)" width="271.3" xlink:href="#font_Helvetica_t0"/>
        <use fill="#33ccff" height="33.6" transform="matrix(0.1953, 0.0, 0.0, 0.1953, 214.95, 8.95)" width="271.3" xlink:href="#font_Helvetica_a0"/>
        <use fill="#33ccff" height="33.6" transform="matrix(0.1953, 0.0, 0.0, 0.1953, 220.5, 8.95)" width="271.3" xlink:href="#font_Helvetica_c0"/>
        <use fill="#33ccff" height="33.6" transform="matrix(0.1953, 0.0, 0.0, 0.1953, 225.5, 8.95)" width="271.3" xlink:href="#font_Helvetica_t0"/>
        <use fill="#33ccff" height="33.6" transform="matrix(0.1953, 0.0, 0.0, 0.1953, 231.1, 8.95)" width="271.3" xlink:href="#font_Helvetica_U0"/>
        <use fill="#33ccff" height="33.6" transform="matrix(0.1953, 0.0, 0.0, 0.1953, 238.3, 8.95)" width="271.3" xlink:href="#font_Helvetica_s0"/>
        <use fill="#33ccff" height="33.6" transform="matrix(0.1953, 0.0, 0.0, 0.1953, 251.7, 8.95)" width="271.3" xlink:href="#font_Helvetica__1"/>
        <use fill="#33ccff" height="33.6" transform="matrix(0.1953, 0.0, 0.0, 0.1953, 259.85, 8.95)" width="271.3" xlink:href="#font_Helvetica_P0"/>
        <use fill="#33ccff" height="33.6" transform="matrix(0.1953, 0.0, 0.0, 0.1953, 266.5, 8.95)" width="271.3" xlink:href="#font_Helvetica_r0"/>
        <use fill="#33ccff" height="33.6" transform="matrix(0.1953, 0.0, 0.0, 0.1953, 269.85, 8.95)" width="271.3" xlink:href="#font_Helvetica_i0"/>
        <use fill="#33ccff" height="33.6" transform="matrix(0.1953, 0.0, 0.0, 0.1953, 272.05, 8.95)" width="271.3" xlink:href="#font_Helvetica_v0"/>
        <use fill="#33ccff" height="33.6" transform="matrix(0.1953, 0.0, 0.0, 0.1953, 277.05, 8.95)" width="271.3" xlink:href="#font_Helvetica_a0"/>
        <use fill="#33ccff" height="33.6" transform="matrix(0.1953, 0.0, 0.0, 0.1953, 282.6, 8.95)" width="271.3" xlink:href="#font_Helvetica_c0"/>
        <use fill="#33ccff" height="33.6" transform="matrix(0.1953, 0.0, 0.0, 0.1953, 287.6, 8.95)" width="271.3" xlink:href="#font_Helvetica_y0"/>
        <use fill="#33ccff" height="33.6" transform="matrix(0.1953, 0.0, 0.0, 0.1953, 295.4, 8.95)" width="271.3" xlink:href="#font_Helvetica_P0"/>
        <use fill="#33ccff" height="33.6" transform="matrix(0.1953, 0.0, 0.0, 0.1953, 302.05, 8.95)" width="271.3" xlink:href="#font_Helvetica_o0"/>
        <use fill="#33ccff" height="33.6" transform="matrix(0.1953, 0.0, 0.0, 0.1953, 307.6, 8.95)" width="271.3" xlink:href="#font_Helvetica_l0"/>
        <use fill="#33ccff" height="33.6" transform="matrix(0.1953, 0.0, 0.0, 0.1953, 309.8, 8.95)" width="271.3" xlink:href="#font_Helvetica_i0"/>
        <use fill="#33ccff" height="33.6" transform="matrix(0.1953, 0.0, 0.0, 0.1953, 312.0, 8.95)" width="271.3" xlink:href="#font_Helvetica_c0"/>
        <use fill="#33ccff" height="33.6" transform="matrix(0.1953, 0.0, 0.0, 0.1953, 317.0, 8.95)" width="271.3" xlink:href="#font_Helvetica_y0"/>
        <use fill="#33ccff" height="33.6" transform="matrix(0.1953, 0.0, 0.0, 0.1953, 327.6, 8.95)" width="271.3" xlink:href="#font_Helvetica__1"/>
        <use fill="#33ccff" height="33.6" transform="matrix(0.1953, 0.0, 0.0, 0.1953, 335.75, 8.95)" width="271.3" xlink:href="#font_Helvetica_I0"/>
        <use fill="#33ccff" height="33.6" transform="matrix(0.1953, 0.0, 0.0, 0.1953, 338.55, 8.95)" width="271.3" xlink:href="#font_Helvetica_n0"/>
        <use fill="#33ccff" height="33.6" transform="matrix(0.1953, 0.0, 0.0, 0.1953, 344.1, 8.95)" width="271.3" xlink:href="#font_Helvetica_t0"/>
        <use fill="#33ccff" height="33.6" transform="matrix(0.1953, 0.0, 0.0, 0.1953, 346.9, 8.95)" width="271.3" xlink:href="#font_Helvetica_e0"/>
        <use fill="#33ccff" height="33.6" transform="matrix(0.1953, 0.0, 0.0, 0.1953, 352.45, 8.95)" width="271.3" xlink:href="#font_Helvetica_r0"/>
        <use fill="#33ccff" height="33.6" transform="matrix(0.1953, 0.0, 0.0, 0.1953, 355.8, 8.95)" width="271.3" xlink:href="#font_Helvetica_n0"/>
        <use fill="#33ccff" height="33.6" transform="matrix(0.1953, 0.0, 0.0, 0.1953, 361.35, 8.95)" width="271.3" xlink:href="#font_Helvetica_e0"/>
        <use fill="#33ccff" height="33.6" transform="matrix(0.1953, 0.0, 0.0, 0.1953, 366.9, 8.95)" width="271.3" xlink:href="#font_Helvetica_t0"/>
        <use fill="#33ccff" height="33.6" transform="matrix(0.1953, 0.0, 0.0, 0.1953, 372.5, 8.95)" width="271.3" xlink:href="#font_Helvetica_S0"/>
        <use fill="#33ccff" height="33.6" transform="matrix(0.1953, 0.0, 0.0, 0.1953, 379.15, 8.95)" width="271.3" xlink:href="#font_Helvetica_a0"/>
        <use fill="#33ccff" height="33.6" transform="matrix(0.1953, 0.0, 0.0, 0.1953, 384.7, 8.95)" width="271.3" xlink:href="#font_Helvetica_f0"/>
        <use fill="#33ccff" height="33.6" transform="matrix(0.1953, 0.0, 0.0, 0.1953, 387.5, 8.95)" width="271.3" xlink:href="#font_Helvetica_e0"/>
        <use fill="#33ccff" height="33.6" transform="matrix(0.1953, 0.0, 0.0, 0.1953, 393.05, 8.95)" width="271.3" xlink:href="#font_Helvetica_t0"/>
        <use fill="#33ccff" height="33.6" transform="matrix(0.1953, 0.0, 0.0, 0.1953, 395.85, 8.95)" width="271.3" xlink:href="#font_Helvetica_y0"/>
      </g>
      <g transform="matrix(1.0, 0.0, 0.0, 1.0, -39.05, 0.0)">
        <use fill="#33ccff" height="33.6" transform="matrix(0.1953, 0.0, 0.0, 0.1953, 167.3, 22.1)" width="271.3" xlink:href="#font_Helvetica_U0"/>
        <use fill="#33ccff" height="33.6" transform="matrix(0.1953, 0.0, 0.0, 0.1953, 174.5, 22.1)" width="271.3" xlink:href="#font_Helvetica_s0"/>
        <use fill="#33ccff" height="33.6" transform="matrix(0.1953, 0.0, 0.0, 0.1953, 179.5, 22.1)" width="271.3" xlink:href="#font_Helvetica_e0"/>
        <use fill="#33ccff" height="33.6" transform="matrix(0.1953, 0.0, 0.0, 0.1953, 187.85, 22.1)" width="271.3" xlink:href="#font_Helvetica_o0"/>
        <use fill="#33ccff" height="33.6" transform="matrix(0.1953, 0.0, 0.0, 0.1953, 193.4, 22.1)" width="271.3" xlink:href="#font_Helvetica_f0"/>
        <use fill="#33ccff" height="33.6" transform="matrix(0.1953, 0.0, 0.0, 0.1953, 199.0, 22.1)" width="271.3" xlink:href="#font_Helvetica_t0"/>
        <use fill="#33ccff" height="33.6" transform="matrix(0.1953, 0.0, 0.0, 0.1953, 201.8, 22.1)" width="271.3" xlink:href="#font_Helvetica_h0"/>
        <use fill="#33ccff" height="33.6" transform="matrix(0.1953, 0.0, 0.0, 0.1953, 207.35, 22.1)" width="271.3" xlink:href="#font_Helvetica_i0"/>
        <use fill="#33ccff" height="33.6" transform="matrix(0.1953, 0.0, 0.0, 0.1953, 209.55, 22.1)" width="271.3" xlink:href="#font_Helvetica_s0"/>
        <use fill="#33ccff" height="33.6" transform="matrix(0.1953, 0.0, 0.0, 0.1953, 217.35, 22.1)" width="271.3" xlink:href="#font_Helvetica_s0"/>
        <use fill="#33ccff" height="33.6" transform="matrix(0.1953, 0.0, 0.0, 0.1953, 222.35, 22.1)" width="271.3" xlink:href="#font_Helvetica_i0"/>
        <use fill="#33ccff" height="33.6" transform="matrix(0.1953, 0.0, 0.0, 0.1953, 224.55, 22.1)" width="271.3" xlink:href="#font_Helvetica_t0"/>
        <use fill="#33ccff" height="33.6" transform="matrix(0.1953, 0.0, 0.0, 0.1953, 227.35, 22.1)" width="271.3" xlink:href="#font_Helvetica_e0"/>
        <use fill="#33ccff" height="33.6" transform="matrix(0.1953, 0.0, 0.0, 0.1953, 235.7, 22.1)" width="271.3" xlink:href="#font_Helvetica_s0"/>
        <use fill="#33ccff" height="33.6" transform="matrix(0.1953, 0.0, 0.0, 0.1953, 240.7, 22.1)" width="271.3" xlink:href="#font_Helvetica_i0"/>
        <use fill="#33ccff" height="33.6" transform="matrix(0.1953, 0.0, 0.0, 0.1953, 242.9, 22.1)" width="271.3" xlink:href="#font_Helvetica_g0"/>
        <use fill="#33ccff" height="33.6" transform="matrix(0.1953, 0.0, 0.0, 0.1953, 248.45, 22.1)" width="271.3" xlink:href="#font_Helvetica_n0"/>
        <use fill="#33ccff" height="33.6" transform="matrix(0.1953, 0.0, 0.0, 0.1953, 254.0, 22.1)" width="271.3" xlink:href="#font_Helvetica_i0"/>
        <use fill="#33ccff" height="33.6" transform="matrix(0.1953, 0.0, 0.0, 0.1953, 256.2, 22.1)" width="271.3" xlink:href="#font_Helvetica_f0"/>
        <use fill="#33ccff" height="33.6" transform="matrix(0.1953, 0.0, 0.0, 0.1953, 259.0, 22.1)" width="271.3" xlink:href="#font_Helvetica_i0"/>
        <use fill="#33ccff" height="33.6" transform="matrix(0.1953, 0.0, 0.0, 0.1953, 261.2, 22.1)" width="271.3" xlink:href="#font_Helvetica_e0"/>
        <use fill="#33ccff" height="33.6" transform="matrix(0.1953, 0.0, 0.0, 0.1953, 266.75, 22.1)" width="271.3" xlink:href="#font_Helvetica_s0"/>
        <use fill="#33ccff" height="33.6" transform="matrix(0.1953, 0.0, 0.0, 0.1953, 274.55, 22.1)" width="271.3" xlink:href="#font_Helvetica_y0"/>
        <use fill="#33ccff" height="33.6" transform="matrix(0.1953, 0.0, 0.0, 0.1953, 279.55, 22.1)" width="271.3" xlink:href="#font_Helvetica_o0"/>
        <use fill="#33ccff" height="33.6" transform="matrix(0.1953, 0.0, 0.0, 0.1953, 285.1, 22.1)" width="271.3" xlink:href="#font_Helvetica_u0"/>
        <use fill="#33ccff" height="33.6" transform="matrix(0.1953, 0.0, 0.0, 0.1953, 290.65, 22.1)" width="271.3" xlink:href="#font_Helvetica_r0"/>
        <use fill="#33ccff" height="33.6" transform="matrix(0.1953, 0.0, 0.0, 0.1953, 296.8, 22.1)" width="271.3" xlink:href="#font_Helvetica_a0"/>
        <use fill="#33ccff" height="33.6" transform="matrix(0.1953, 0.0, 0.0, 0.1953, 302.35, 22.1)" width="271.3" xlink:href="#font_Helvetica_g0"/>
        <use fill="#33ccff" height="33.6" transform="matrix(0.1953, 0.0, 0.0, 0.1953, 307.9, 22.1)" width="271.3" xlink:href="#font_Helvetica_r0"/>
        <use fill="#33ccff" height="33.6" transform="matrix(0.1953, 0.0, 0.0, 0.1953, 311.25, 22.1)" width="271.3" xlink:href="#font_Helvetica_e0"/>
        <use fill="#33ccff" height="33.6" transform="matrix(0.1953, 0.0, 0.0, 0.1953, 316.8, 22.1)" width="271.3" xlink:href="#font_Helvetica_e0"/>
        <use fill="#33ccff" height="33.6" transform="matrix(0.1953, 0.0, 0.0, 0.1953, 322.35, 22.1)" width="271.3" xlink:href="#font_Helvetica_m0"/>
        <use fill="#33ccff" height="33.6" transform="matrix(0.1953, 0.0, 0.0, 0.1953, 330.7, 22.1)" width="271.3" xlink:href="#font_Helvetica_e0"/>
        <use fill="#33ccff" height="33.6" transform="matrix(0.1953, 0.0, 0.0, 0.1953, 336.25, 22.1)" width="271.3" xlink:href="#font_Helvetica_n0"/>
        <use fill="#33ccff" height="33.6" transform="matrix(0.1953, 0.0, 0.0, 0.1953, 341.8, 22.1)" width="271.3" xlink:href="#font_Helvetica_t0"/>
        <use fill="#33ccff" height="33.6" transform="matrix(0.1953, 0.0, 0.0, 0.1953, 347.4, 22.1)" width="271.3" xlink:href="#font_Helvetica_t0"/>
        <use fill="#33ccff" height="33.6" transform="matrix(0.1953, 0.0, 0.0, 0.1953, 350.2, 22.1)" width="271.3" xlink:href="#font_Helvetica_o0"/>
        <use fill="#33ccff" height="33.6" transform="matrix(0.1953, 0.0, 0.0, 0.1953, 358.55, 22.1)" width="271.3" xlink:href="#font_Helvetica_t0"/>
        <use fill="#33ccff" height="33.6" transform="matrix(0.1953, 0.0, 0.0, 0.1953, 361.35, 22.1)" width="271.3" xlink:href="#font_Helvetica_h0"/>
        <use fill="#33ccff" height="33.6" transform="matrix(0.1953, 0.0, 0.0, 0.1953, 366.9, 22.1)" width="271.3" xlink:href="#font_Helvetica_e0"/>
        <use fill="#33ccff" height="33.6" transform="matrix(0.1953, 0.0, 0.0, 0.1953, 375.25, 22.1)" width="271.3" xlink:href="#font_Helvetica_t0"/>
        <use fill="#33ccff" height="33.6" transform="matrix(0.1953, 0.0, 0.0, 0.1953, 378.05, 22.1)" width="271.3" xlink:href="#font_Helvetica_e0"/>
        <use fill="#33ccff" height="33.6" transform="matrix(0.1953, 0.0, 0.0, 0.1953, 383.6, 22.1)" width="271.3" xlink:href="#font_Helvetica_r0"/>
        <use fill="#33ccff" height="33.6" transform="matrix(0.1953, 0.0, 0.0, 0.1953, 386.95, 22.1)" width="271.3" xlink:href="#font_Helvetica_m0"/>
        <use fill="#33ccff" height="33.6" transform="matrix(0.1953, 0.0, 0.0, 0.1953, 395.3, 22.1)" width="271.3" xlink:href="#font_Helvetica_s0"/>
        <use fill="#33ccff" height="33.6" transform="matrix(0.1953, 0.0, 0.0, 0.1953, 403.1, 22.1)" width="271.3" xlink:href="#font_Helvetica_o0"/>
        <use fill="#33ccff" height="33.6" transform="matrix(0.1953, 0.0, 0.0, 0.1953, 408.65, 22.1)" width="271.3" xlink:href="#font_Helvetica_f0"/>
        <use fill="#33ccff" height="33.6" transform="matrix(0.1953, 0.0, 0.0, 0.1953, 414.25, 22.1)" width="271.3" xlink:href="#font_Helvetica_u0"/>
        <use fill="#33ccff" height="33.6" transform="matrix(0.1953, 0.0, 0.0, 0.1953, 419.8, 22.1)" width="271.3" xlink:href="#font_Helvetica_s0"/>
        <use fill="#33ccff" height="33.6" transform="matrix(0.1953, 0.0, 0.0, 0.1953, 424.8, 22.1)" width="271.3" xlink:href="#font_Helvetica_e0"/>
      </g>
    </g>
    <g id="font_Helvetica_C0">
      <path d="M25.85 -31.3 Q23.45 -33.1 19.75 -33.1 15.55 -33.1 12.7 -31.1 9.85 -29.05 8.7 -25.65 7.55 -22.25 7.55 -18.6 7.55 -13.95 8.95 -10.45 10.3 -6.95 13.15 -5.25 16.05 -3.5 19.4 -3.5 23.45 -3.5 26.3 -5.85 29.1 -8.2 30.1 -12.85 L34.95 -11.6 Q33.45 -5.65 29.5 -2.5 25.5 0.65 19.8 0.65 13.85 0.65 10.15 -1.75 6.45 -4.2 4.5 -8.75 2.55 -13.35 2.55 -18.6 2.55 -24.3 4.75 -28.55 6.95 -32.85 11.0 -35.05 15.0 -37.25 19.85 -37.25 25.35 -37.25 29.1 -34.45 32.85 -31.65 34.35 -26.6 L29.55 -25.45 Q28.3 -29.45 25.85 -31.3" fill-rule="evenodd" stroke="none"/>
    </g>
    <g id="font_Helvetica_o0">
      <path d="M6.35 -13.25 Q6.35 -8.15 8.55 -5.6 10.8 -3.1 14.15 -3.1 17.5 -3.1 19.75 -5.65 21.95 -8.2 21.95 -13.4 21.95 -18.35 19.75 -20.85 17.5 -23.4 14.15 -23.4 10.8 -23.4 8.55 -20.9 6.35 -18.35 6.35 -13.25 M5.8 -24.2 Q9.25 -27.15 14.15 -27.15 19.65 -27.15 23.1 -23.55 26.6 -19.95 26.6 -13.65 26.6 -8.5 25.05 -5.55 23.5 -2.65 20.6 -1.0 17.65 0.6 14.15 0.6 8.6 0.6 5.15 -2.95 1.7 -6.55 1.7 -13.25 1.7 -20.65 5.8 -24.2" fill-rule="evenodd" stroke="none"/>
    </g>
    <g id="font_Helvetica_n0">
      <path d="M7.45 -26.55 L7.45 -22.75 Q10.35 -27.15 15.9 -27.15 18.3 -27.15 20.3 -26.25 22.3 -25.4 23.3 -24.0 24.3 -22.6 24.7 -20.7 L24.95 -16.3 24.95 0.0 20.45 0.0 20.45 -16.15 Q20.45 -18.9 19.95 -20.25 19.4 -21.6 18.1 -22.4 16.75 -23.25 14.95 -23.25 12.05 -23.25 10.0 -21.4 7.9 -19.6 7.9 -14.5 L7.9 0.0 3.4 0.0 3.4 -26.55 7.45 -26.55" fill-rule="evenodd" stroke="none"/>
    </g>
    <g id="font_Helvetica_t0">
      <path d="M13.2 -26.55 L13.2 -23.05 8.7 -23.05 8.7 -7.5 Q8.7 -5.6 8.95 -5.05 9.15 -4.5 9.7 -4.15 10.25 -3.85 11.25 -3.85 L13.2 -4.0 13.85 -0.05 10.45 0.35 Q8.0 0.35 6.65 -0.4 5.3 -1.2 4.75 -2.45 4.2 -3.7 4.2 -7.75 L4.2 -23.05 0.9 -23.05 0.9 -26.55 4.2 -26.55 4.2 -33.1 8.7 -35.8 8.7 -26.55 13.2 -26.55" fill-rule="evenodd" stroke="none"/>
    </g>
    <g id="font_Helvetica_a0">
      <path d="M20.15 -26.35 Q22.25 -25.55 23.25 -24.3 24.25 -23.1 24.65 -21.25 L24.9 -17.1 24.9 -11.1 Q24.9 -4.85 25.2 -3.15 25.45 -1.5 26.3 0.0 L21.6 0.0 Q20.9 -1.4 20.7 -3.25 18.2 -1.15 15.9 -0.25 13.6 0.6 10.95 0.6 6.55 0.6 4.2 -1.5 1.85 -3.65 1.85 -7.0 1.85 -8.95 2.75 -10.55 3.65 -12.15 5.1 -13.15 6.5 -14.1 8.3 -14.6 L12.3 -15.3 Q17.75 -15.95 20.35 -16.85 L20.35 -18.0 Q20.35 -20.75 19.1 -21.9 17.35 -23.4 13.95 -23.4 10.8 -23.4 9.3 -22.3 7.75 -21.2 7.05 -18.35 L2.65 -18.95 Q3.25 -21.8 4.6 -23.5 6.0 -25.25 8.6 -26.2 11.2 -27.15 14.6 -27.15 18.0 -27.15 20.15 -26.35 M8.05 -4.1 Q9.4 -2.9 12.0 -2.9 14.6 -2.9 16.65 -4.05 18.65 -5.2 19.6 -7.15 20.35 -8.7 20.35 -11.65 L20.35 -13.3 Q17.9 -12.3 13.0 -11.6 L9.05 -10.7 Q7.9 -10.2 7.3 -9.25 6.65 -8.3 6.65 -7.1 6.65 -5.3 8.05 -4.1" fill-rule="evenodd" stroke="none"/>
    </g>
    <g id="font_Helvetica_c0">
      <path d="M14.1 -27.15 Q18.45 -27.15 21.2 -24.95 23.95 -22.75 24.7 -18.75 L20.35 -18.05 Q19.7 -20.75 18.15 -22.1 16.55 -23.45 14.3 -23.45 10.9 -23.45 8.75 -21.0 6.65 -18.55 6.65 -13.3 6.65 -7.95 8.7 -5.5 10.75 -3.1 14.05 -3.1 16.7 -3.1 18.45 -4.7 20.25 -6.35 20.7 -9.7 L25.15 -9.15 Q24.4 -4.55 21.45 -1.95 18.45 0.6 14.1 0.6 8.65 0.6 5.35 -2.95 2.0 -6.5 2.0 -13.15 2.0 -17.45 3.45 -20.7 4.85 -23.9 7.8 -25.5 10.7 -27.15 14.1 -27.15" fill-rule="evenodd" stroke="none"/>
    </g>
    <g id="font_Helvetica_U0">
      <path d="M32.85 -36.65 L32.85 -15.45 Q32.85 -9.95 31.6 -6.7 30.35 -3.45 27.1 -1.4 23.85 0.65 18.55 0.65 13.4 0.65 10.1 -1.15 6.85 -2.9 5.45 -6.25 4.05 -9.65 4.05 -15.45 L4.05 -36.65 8.9 -36.65 8.9 -15.5 Q8.9 -10.7 9.8 -8.45 10.65 -6.2 12.85 -4.95 15.0 -3.75 18.1 -3.75 23.45 -3.75 25.75 -6.15 28.0 -8.6 28.0 -15.5 L28.0 -36.65 32.85 -36.65" fill-rule="evenodd" stroke="none"/>
    </g>
    <g id="font_Helvetica_s0">
      <path d="M17.6 -26.25 Q19.95 -25.35 21.1 -23.8 22.2 -22.25 22.65 -19.7 L18.25 -19.1 Q17.95 -21.15 16.5 -22.3 15.05 -23.45 12.45 -23.45 9.35 -23.45 8.0 -22.4 6.7 -21.4 6.7 -20.0 6.7 -19.15 7.25 -18.45 7.8 -17.7 8.95 -17.25 L12.95 -16.1 19.6 -14.0 Q21.5 -13.2 22.55 -11.65 23.65 -10.1 23.65 -7.8 23.65 -5.55 22.35 -3.55 21.0 -1.55 18.55 -0.45 16.05 0.6 12.95 0.6 7.75 0.6 5.05 -1.55 2.35 -3.7 1.6 -7.9 L6.05 -8.6 Q6.4 -5.95 8.15 -4.5 9.85 -3.1 12.9 -3.1 16.0 -3.1 17.5 -4.35 19.0 -5.6 19.0 -7.3 19.0 -8.85 17.7 -9.7 16.75 -10.3 13.1 -11.25 8.15 -12.5 6.25 -13.4 4.3 -14.3 3.35 -15.9 2.35 -17.55 2.35 -19.5 2.35 -21.25 3.15 -22.75 3.95 -24.3 5.35 -25.3 6.4 -26.05 8.25 -26.6 L12.1 -27.15 Q15.25 -27.15 17.6 -26.25" fill-rule="evenodd" stroke="none"/>
    </g>
    <g id="font_Helvetica__1">
      <path d="M8.65 -37.25 L8.65 10.8 4.7 10.8 4.7 -37.25 8.65 -37.25" fill-rule="evenodd" stroke="none"/>
    </g>
    <g id="font_Helvetica_P0">
      <path d="M22.7 -32.0 L18.2 -32.3 8.8 -32.3 8.8 -19.2 18.3 -19.2 Q23.0 -19.2 24.95 -20.95 26.95 -22.7 26.95 -25.9 26.95 -28.2 25.8 -29.8 24.6 -31.45 22.7 -32.0 M27.9 -34.55 Q29.7 -33.3 30.85 -31.05 31.95 -28.75 31.95 -26.05 31.95 -21.35 28.95 -18.1 26.0 -14.9 18.2 -14.9 L8.8 -14.9 8.8 0.0 3.95 0.0 3.95 -36.65 17.8 -36.65 23.35 -36.3 Q26.05 -35.85 27.9 -34.55" fill-rule="evenodd" stroke="none"/>
    </g>
    <g id="font_Helvetica_r0">
      <path d="M7.4 -26.55 L7.4 -22.5 Q8.95 -25.35 10.25 -26.25 11.55 -27.15 13.15 -27.15 15.4 -27.15 17.75 -25.7 L16.2 -21.5 Q14.55 -22.5 12.9 -22.5 11.45 -22.5 10.25 -21.6 9.1 -20.7 8.6 -19.15 7.85 -16.75 7.85 -13.9 L7.85 0.0 3.35 0.0 3.35 -26.55 7.4 -26.55" fill-rule="evenodd" stroke="none"/>
    </g>
    <g id="font_Helvetica_i0">
      <path d="M7.9 -26.55 L7.9 0.0 3.4 0.0 3.4 -26.55 7.9 -26.55 M3.4 -31.45 L3.4 -36.65 7.9 -36.65 7.9 -31.45 3.4 -31.45" fill-rule="evenodd" stroke="none"/>
    </g>
    <g id="font_Helvetica_v0">
      <path d="M25.0 -26.55 L14.95 0.0 10.75 0.0 0.65 -26.55 5.4 -26.55 11.1 -10.65 12.8 -5.3 14.5 -10.35 20.4 -26.55 25.0 -26.55" fill-rule="evenodd" stroke="none"/>
    </g>
    <g id="font_Helvetica_y0">
      <path d="M25.15 -26.55 L15.05 0.45 Q13.45 4.85 12.55 6.5 11.35 8.7 9.8 9.75 8.25 10.8 6.1 10.8 L3.2 10.25 2.7 6.0 5.25 6.4 7.65 5.9 9.15 4.5 10.5 1.15 10.9 0.05 0.85 -26.55 5.7 -26.55 11.2 -11.15 13.15 -5.0 Q13.9 -8.1 15.0 -11.05 L20.65 -26.55 25.15 -26.55" fill-rule="evenodd" stroke="none"/>
    </g>
    <g id="font_Helvetica_l0">
      <path d="M7.8 -36.65 L7.8 0.0 3.3 0.0 3.3 -36.65 7.8 -36.65" fill-rule="evenodd" stroke="none"/>
    </g>
    <g id="font_Helvetica_I0">
      <path d="M9.65 -36.65 L9.65 0.0 4.8 0.0 4.8 -36.65 9.65 -36.65" fill-rule="evenodd" stroke="none"/>
    </g>
    <g id="font_Helvetica_e0">
      <path d="M6.8 -15.8 L21.6 -15.8 Q21.3 -19.15 19.9 -20.85 17.75 -23.45 14.35 -23.45 11.25 -23.45 9.15 -21.35 7.0 -19.3 6.8 -15.8 M18.8 -4.4 Q20.55 -5.7 21.55 -8.55 L26.2 -7.95 Q25.1 -3.9 22.15 -1.65 19.15 0.6 14.55 0.6 8.7 0.6 5.3 -2.95 1.9 -6.55 1.9 -13.05 1.9 -19.75 5.35 -23.45 8.8 -27.15 14.3 -27.15 19.6 -27.15 23.0 -23.5 26.35 -19.9 26.35 -13.3 L26.35 -12.1 6.55 -12.1 Q6.8 -7.75 9.0 -5.4 11.25 -3.1 14.55 -3.1 17.05 -3.1 18.8 -4.4" fill-rule="evenodd" stroke="none"/>
    </g>
    <g id="font_Helvetica_S0">
      <path d="M23.2 -31.2 Q21.05 -33.0 16.8 -33.0 12.4 -33.0 10.4 -31.35 8.4 -29.75 8.4 -27.5 8.4 -25.5 9.8 -24.25 11.2 -22.95 17.15 -21.6 23.05 -20.3 25.25 -19.3 28.45 -17.8 29.95 -15.55 31.5 -13.3 31.5 -10.35 31.5 -7.4 29.8 -4.8 28.15 -2.25 25.0 -0.8 21.85 0.65 17.95 0.65 12.95 0.65 9.6 -0.8 6.25 -2.25 4.35 -5.15 2.4 -8.1 2.3 -11.75 L6.9 -12.15 Q7.2 -9.4 8.4 -7.65 9.6 -5.9 12.1 -4.8 14.6 -3.7 17.7 -3.7 20.5 -3.7 22.6 -4.55 24.75 -5.35 25.8 -6.8 26.8 -8.25 26.8 -9.95 26.8 -11.65 25.8 -12.95 24.8 -14.25 22.5 -15.1 L16.0 -16.9 Q10.95 -18.1 8.9 -19.2 6.3 -20.55 5.0 -22.6 3.7 -24.65 3.7 -27.15 3.7 -29.95 5.3 -32.35 6.85 -34.75 9.9 -36.0 12.9 -37.25 16.6 -37.25 20.7 -37.25 23.8 -35.95 26.9 -34.65 28.6 -32.1 30.25 -29.55 30.4 -26.3 L25.75 -25.95 Q25.35 -29.45 23.2 -31.2" fill-rule="evenodd" stroke="none"/>
    </g>
    <g id="font_Helvetica_f0">
      <path d="M8.95 -26.55 L14.1 -26.55 14.1 -23.05 8.95 -23.05 8.95 0.0 4.45 0.0 4.45 -23.05 0.5 -23.05 0.5 -26.55 4.45 -26.55 4.45 -29.35 Q4.45 -32.05 4.95 -33.35 5.6 -35.1 7.25 -36.15 8.85 -37.25 11.8 -37.25 L16.0 -36.8 15.35 -32.9 12.7 -33.15 Q10.65 -33.15 9.8 -32.25 8.95 -31.4 8.95 -29.0 L8.95 -26.55" fill-rule="evenodd" stroke="none"/>
    </g>
    <g id="font_Helvetica_h0">
      <path d="M7.9 -36.65 L7.9 -23.5 Q11.05 -27.15 15.85 -27.15 18.8 -27.15 20.95 -25.95 23.15 -24.8 24.1 -22.75 25.0 -20.7 25.0 -16.8 L25.0 0.0 20.5 0.0 20.5 -16.8 Q20.5 -20.2 19.05 -21.7 17.6 -23.25 14.9 -23.25 12.9 -23.25 11.15 -22.2 9.4 -21.2 8.65 -19.4 7.9 -17.65 7.9 -14.5 L7.9 0.0 3.4 0.0 3.4 -36.65 7.9 -36.65" fill-rule="evenodd" stroke="none"/>
    </g>
    <g id="font_Helvetica_g0">
      <path d="M25.05 -26.55 L25.05 -3.6 Q25.05 2.6 23.8 5.2 22.55 7.8 19.8 9.3 17.05 10.8 13.05 10.8 8.3 10.8 5.4 8.65 2.45 6.5 2.55 2.2 L6.95 2.85 Q7.2 4.9 8.45 5.8 10.15 7.05 13.05 7.05 16.15 7.05 17.85 5.8 19.55 4.55 20.15 2.3 20.5 0.95 20.5 -3.45 17.55 0.0 13.15 0.0 7.65 0.0 4.65 -3.95 1.65 -7.9 1.65 -13.4 1.65 -17.2 3.05 -20.4 4.4 -23.65 7.05 -25.4 9.65 -27.15 13.15 -27.15 17.85 -27.15 20.9 -23.35 L20.9 -26.55 25.05 -26.55 M6.3 -13.75 Q6.3 -8.5 8.35 -6.1 10.45 -3.7 13.55 -3.7 16.65 -3.7 18.75 -6.1 20.85 -8.5 20.85 -13.6 20.85 -18.45 18.7 -20.95 16.55 -23.4 13.5 -23.4 10.5 -23.4 8.4 -20.95 6.3 -18.55 6.3 -13.75" fill-rule="evenodd" stroke="none"/>
    </g>
    <g id="font_Helvetica_u0">
      <path d="M24.8 -26.55 L24.8 0.0 20.8 0.0 20.8 -3.9 Q17.7 0.6 12.35 0.6 10.0 0.6 8.0 -0.3 5.95 -1.2 4.95 -2.55 3.95 -3.9 3.55 -5.9 3.3 -7.2 3.3 -10.1 L3.3 -26.55 7.8 -26.55 7.8 -11.8 Q7.8 -8.3 8.05 -7.05 8.5 -5.3 9.85 -4.25 11.25 -3.25 13.25 -3.25 15.3 -3.25 17.05 -4.3 18.85 -5.35 19.6 -7.1 20.3 -8.9 20.3 -12.3 L20.3 -26.55 24.8 -26.55" fill-rule="evenodd" stroke="none"/>
    </g>
    <g id="font_Helvetica_m0">
      <path d="M37.25 -24.95 Q39.35 -22.75 39.35 -18.2 L39.35 0.0 34.9 0.0 34.9 -16.7 Q34.9 -19.4 34.45 -20.6 34.0 -21.8 32.85 -22.5 31.7 -23.25 30.15 -23.25 27.35 -23.25 25.5 -21.35 23.65 -19.5 23.65 -15.4 L23.65 0.0 19.15 0.0 19.15 -17.25 Q19.15 -20.25 18.05 -21.75 16.95 -23.25 14.45 -23.25 12.55 -23.25 10.95 -22.25 9.35 -21.25 8.6 -19.3 7.9 -17.4 7.9 -13.75 L7.9 0.0 3.4 0.0 3.4 -26.55 7.4 -26.55 7.4 -22.8 Q8.65 -24.75 10.75 -25.95 12.8 -27.15 15.45 -27.15 18.4 -27.15 20.3 -25.9 22.2 -24.7 22.95 -22.5 26.1 -27.15 31.15 -27.15 35.1 -27.15 37.25 -24.95" fill-rule="evenodd" stroke="none"/>
    </g>
    <g id="sprite22" transform="matrix(1.0, 0.0, 0.0, 1.0, 934.3, 913.75)">
      <use height="1602.95" transform="matrix(1.0, 0.0, 0.0, 1.0, -934.3, -913.75)" width="1848.2" xlink:href="#shape22"/>
    </g>
    <g id="shape22" transform="matrix(1.0, 0.0, 0.0, 1.0, 934.3, 913.75)">
      <path d="M309.4 126.55 L309.4 -353.45 -330.6 -353.45 -330.6 126.55 309.4 126.55 M913.9 -913.75 L913.9 689.2 -934.3 689.2 -934.3 -913.75 913.9 -913.75" fill="#000000" fill-rule="evenodd" stroke="none"/>
    </g>
    <g id="sprite23" transform="matrix(1.0, 0.0, 0.0, 1.0, 435.5, 25.75)">
      <use height="73.0" transform="matrix(1.0, 0.0, 0.0, 1.0, -39.0, -25.75)" width="47.0" xlink:href="#text3"/>
      <use height="33.4" transform="matrix(1.0, 0.0, 0.0, 1.0, 8.9, -19.4)" width="24.75" xlink:href="#text4"/>
      <use height="11.55" transform="matrix(1.0, 0.0, 0.0, 1.0, -240.2, -17.7)" width="215.7" xlink:href="#text5"/>
    </g>
    <g id="text4" transform="matrix(1.0, 0.0, 0.0, 1.0, -0.9, -3.0)">
      <g transform="matrix(1.0, 0.0, 0.0, 1.0, 0.0, 0.0)">
        <use fill="#ffffff" height="33.4" transform="matrix(0.332, 0.0, 0.0, 0.332, -0.1, 15.4)" width="24.75" xlink:href="#font_SignPainter-HouseShowcard__0"/>
      </g>
    </g>
    <g id="font_SignPainter-HouseShowcard__0">
      <path d="M34.55 -37.25 L14.55 1.35 10.85 1.35 30.9 -37.25 34.55 -37.25 M10.8 -34.15 Q9.15 -34.15 8.05 -32.7 6.9 -31.25 6.9 -27.4 6.9 -23.85 8.05 -22.4 9.15 -21.0 10.8 -21.0 12.5 -21.0 13.65 -22.45 14.75 -23.9 14.75 -27.75 14.75 -31.3 13.6 -32.7 12.5 -34.15 10.8 -34.15 M4.95 -34.5 Q6.95 -37.25 10.7 -37.25 14.15 -37.25 16.4 -34.8 18.65 -32.35 18.65 -27.55 18.65 -22.9 16.4 -20.4 14.1 -17.9 10.75 -17.9 7.4 -17.9 5.2 -20.35 3.0 -22.85 3.0 -27.85 3.0 -31.75 4.95 -34.5 M34.55 -14.9 Q32.85 -14.9 31.75 -13.45 30.6 -12.0 30.6 -8.15 30.6 -4.65 31.75 -3.2 32.85 -1.75 34.5 -1.75 36.25 -1.75 37.35 -3.2 38.45 -4.65 38.45 -8.5 38.45 -12.05 37.35 -13.45 36.2 -14.9 34.55 -14.9 M40.15 -15.55 Q42.4 -13.1 42.4 -8.3 42.4 -3.65 40.1 -1.15 37.8 1.35 34.45 1.35 31.1 1.35 28.9 -1.1 26.7 -3.6 26.7 -8.6 26.7 -12.55 28.65 -15.25 30.65 -18.0 34.4 -18.0 37.85 -18.0 40.15 -15.55" fill-rule="evenodd" stroke="none"/>
    </g>
    <g id="text5" transform="matrix(1.0, 0.0, 0.0, 1.0, 31.2, -2.7)">
      <g transform="matrix(1.0, 0.0, 0.0, 1.0, -31.85, 0.0)">
        <use fill="#ffffff" height="11.55" transform="matrix(0.2734, 0.0, 0.0, 0.2734, 0.1, 14.05)" width="215.7" xlink:href="#font_ComicBook_Normal_d0"/>
        <use fill="#ffffff" height="11.55" transform="matrix(0.2734, 0.0, 0.0, 0.2734, 11.3, 14.05)" width="215.7" xlink:href="#font_ComicBook_Normal_o0"/>
        <use fill="#ffffff" height="11.55" transform="matrix(0.2734, 0.0, 0.0, 0.2734, 23.2, 14.05)" width="215.7" xlink:href="#font_ComicBook_Normal_w0"/>
        <use fill="#ffffff" height="11.55" transform="matrix(0.2734, 0.0, 0.0, 0.2734, 37.45, 14.05)" width="215.7" xlink:href="#font_ComicBook_Normal_n0"/>
        <use fill="#ffffff" height="11.55" transform="matrix(0.2734, 0.0, 0.0, 0.2734, 46.25, 14.05)" width="215.7" xlink:href="#font_ComicBook_Normal_l0"/>
        <use fill="#ffffff" height="11.55" transform="matrix(0.2734, 0.0, 0.0, 0.2734, 53.95, 14.05)" width="215.7" xlink:href="#font_ComicBook_Normal_o0"/>
        <use fill="#ffffff" height="11.55" transform="matrix(0.2734, 0.0, 0.0, 0.2734, 65.85, 14.05)" width="215.7" xlink:href="#font_ComicBook_Normal_a0"/>
        <use fill="#ffffff" height="11.55" transform="matrix(0.2734, 0.0, 0.0, 0.2734, 77.25, 14.05)" width="215.7" xlink:href="#font_ComicBook_Normal_d0"/>
        <use fill="#ffffff" height="11.55" transform="matrix(0.2734, 0.0, 0.0, 0.2734, 88.45, 14.05)" width="215.7" xlink:href="#font_ComicBook_Normal_i0"/>
        <use fill="#ffffff" height="11.55" transform="matrix(0.2734, 0.0, 0.0, 0.2734, 92.65, 14.05)" width="215.7" xlink:href="#font_ComicBook_Normal_n0"/>
        <use fill="#ffffff" height="11.55" transform="matrix(0.2734, 0.0, 0.0, 0.2734, 101.45, 14.05)" width="215.7" xlink:href="#font_ComicBook_Normal_g0"/>
        <use fill="#ffffff" height="11.55" transform="matrix(0.2734, 0.0, 0.0, 0.2734, 119.35, 14.05)" width="215.7" xlink:href="#font_ComicBook_Normal_t0"/>
        <use fill="#ffffff" height="11.55" transform="matrix(0.2734, 0.0, 0.0, 0.2734, 129.7, 14.05)" width="215.7" xlink:href="#font_ComicBook_Normal_o0"/>
        <use fill="#ffffff" height="11.55" transform="matrix(0.2734, 0.0, 0.0, 0.2734, 141.6, 14.05)" width="215.7" xlink:href="#font_ComicBook_Normal_o0"/>
        <use fill="#ffffff" height="11.55" transform="matrix(0.2734, 0.0, 0.0, 0.2734, 153.5, 14.05)" width="215.7" xlink:href="#font_ComicBook_Normal_n0"/>
        <use fill="#ffffff" height="11.55" transform="matrix(0.2734, 0.0, 0.0, 0.2734, 162.3, 14.05)" width="215.7" xlink:href="#font_ComicBook_Normal_t0"/>
        <use fill="#ffffff" height="11.55" transform="matrix(0.2734, 0.0, 0.0, 0.2734, 172.65, 14.05)" width="215.7" xlink:href="#font_ComicBook_Normal_o0"/>
        <use fill="#ffffff" height="11.55" transform="matrix(0.2734, 0.0, 0.0, 0.2734, 184.55, 14.05)" width="215.7" xlink:href="#font_ComicBook_Normal_w0"/>
        <use fill="#ffffff" height="11.55" transform="matrix(0.2734, 0.0, 0.0, 0.2734, 198.8, 14.05)" width="215.7" xlink:href="#font_ComicBook_Normal_n0"/>
      </g>
    </g>
    <g id="font_ComicBook_Normal_d0">
      <path d="M33.85 -40.15 Q39.9 -38.6 40.1 -35.35 40.1 -30.2 36.15 -23.3 L33.1 -18.5 29.4 -13.85 25.2 -9.6 Q22.5 -7.2 20.05 -5.45 L15.0 -2.35 Q12.4 -1.05 9.75 -0.2 7.6 0.5 5.4 0.5 3.35 0.5 2.2 -0.2 2.05 -0.25 2.05 -0.95 2.05 -1.75 2.8 -7.75 3.5 -13.35 3.6 -16.7 3.6 -20.4 3.25 -23.6 2.8 -27.95 2.8 -29.8 2.8 -31.25 2.95 -32.7 3.15 -34.95 4.15 -36.35 5.35 -38.05 7.05 -38.2 L7.1 -38.2 14.15 -38.95 21.8 -39.85 27.15 -40.2 29.35 -40.35 30.5 -40.45 33.85 -40.15 M26.3 -32.55 L22.4 -32.1 Q18.7 -32.0 11.8 -30.15 L11.0 -21.4 10.25 -15.3 Q9.7 -11.55 9.7 -10.55 L9.8 -9.65 Q10.25 -8.85 11.3 -8.85 12.3 -8.85 14.15 -9.7 18.8 -11.6 23.7 -16.45 27.65 -20.3 30.7 -24.95 33.35 -29.05 33.45 -30.25 33.45 -32.95 30.15 -32.95 L26.3 -32.55" fill-rule="evenodd" stroke="none"/>
    </g>
    <g id="font_ComicBook_Normal_o0">
      <path d="M23.35 -32.05 Q20.0 -32.05 17.1 -30.65 13.85 -29.15 12.2 -26.25 10.85 -23.95 10.2 -21.5 9.55 -19.05 9.55 -16.45 9.55 -12.6 11.35 -10.8 13.85 -8.1 18.35 -8.1 21.15 -8.1 23.5 -9.1 25.8 -10.1 27.7 -12.15 32.45 -17.3 32.45 -23.25 32.45 -27.5 29.4 -30.2 27.2 -32.05 23.35 -32.05 M35.55 -35.75 L37.5 -32.8 38.95 -29.6 39.8 -26.1 40.1 -22.4 Q40.1 -14.65 35.35 -8.05 33.85 -6.05 32.0 -4.55 30.15 -3.05 27.85 -2.0 23.5 0.0 18.7 0.0 14.05 0.0 10.2 -1.8 8.05 -2.8 6.55 -4.15 5.0 -5.5 3.95 -7.2 1.4 -11.3 1.4 -16.0 1.4 -21.75 5.05 -27.85 7.85 -32.5 11.35 -35.5 16.55 -39.95 23.95 -39.95 27.7 -39.95 30.95 -38.8 34.05 -37.65 35.55 -35.75" fill-rule="evenodd" stroke="none"/>
    </g>
    <g id="font_ComicBook_Normal_w0">
      <path d="M30.25 -29.1 Q30.5 -26.7 30.9 -24.2 31.2 -21.95 31.4 -21.45 31.8 -19.95 32.75 -19.0 33.55 -18.35 34.35 -18.35 35.3 -18.35 35.8 -19.55 L36.6 -21.5 37.55 -23.8 38.9 -27.25 Q39.9 -29.5 40.9 -32.75 L42.55 -36.75 Q43.6 -38.7 44.5 -39.55 45.5 -40.6 47.4 -40.6 48.9 -40.35 49.95 -39.25 51.0 -38.15 51.0 -36.95 L50.8 -35.9 49.6 -33.1 48.4 -30.05 47.0 -26.15 Q45.15 -20.75 43.25 -16.75 L39.9 -10.15 Q38.25 -7.1 35.9 -3.8 33.45 -0.3 32.0 -0.3 31.0 -0.3 30.1 -2.45 27.0 -10.5 25.65 -15.8 24.85 -19.0 23.45 -19.0 22.55 -19.0 21.55 -16.8 L20.15 -13.2 18.95 -10.2 15.85 -3.5 Q14.1 0.05 12.0 0.05 10.2 0.05 9.05 -3.5 L7.1 -9.65 5.45 -15.1 4.25 -19.35 Q2.5 -25.95 0.6 -36.7 0.6 -37.55 0.85 -38.15 L1.75 -39.25 Q3.1 -40.5 4.9 -40.5 7.55 -40.5 8.35 -38.2 9.35 -34.75 10.3 -29.1 11.25 -23.5 12.1 -19.75 12.65 -17.3 13.3 -17.3 14.0 -17.3 15.0 -19.55 L17.9 -25.2 Q19.4 -28.15 20.15 -30.85 L21.2 -36.35 Q21.65 -38.05 22.9 -39.25 24.1 -40.5 25.65 -40.5 27.4 -40.5 28.55 -39.5 29.75 -38.55 29.8 -36.7 L29.7 -35.6 29.6 -34.5 Q29.6 -33.25 29.85 -31.9 L30.25 -29.1" fill-rule="evenodd" stroke="none"/>
    </g>
    <g id="font_ComicBook_Normal_n0">
      <path d="M27.5 -41.4 Q28.85 -41.35 29.7 -40.3 30.65 -39.25 30.65 -38.0 30.65 -35.5 29.75 -31.4 28.8 -27.3 28.75 -24.95 L28.7 -22.2 Q28.7 -19.25 29.1 -15.05 L29.95 -7.15 Q29.95 -5.8 29.5 -4.85 29.0 -3.95 27.95 -3.25 26.0 -2.05 23.4 -2.05 20.95 -2.05 17.95 -4.8 14.8 -7.6 9.4 -14.3 L8.55 -13.95 Q8.2 -13.9 8.2 -13.45 L8.15 -10.55 8.3 -7.05 8.5 -4.25 Q8.5 -2.85 8.0 -2.0 7.5 -1.15 6.3 -0.65 5.25 -0.2 4.2 -0.2 2.15 -0.2 1.6 -2.75 1.3 -4.2 1.3 -5.65 1.3 -7.35 2.0 -11.05 2.65 -14.45 2.65 -16.85 L2.7 -17.65 2.7 -18.5 2.75 -19.45 2.8 -20.55 2.9 -23.9 Q2.9 -26.5 2.5 -28.65 2.1 -30.85 1.35 -32.7 L1.15 -33.85 Q1.15 -35.1 1.9 -36.1 2.7 -37.15 4.05 -37.2 L4.05 -37.25 Q7.15 -37.25 9.6 -33.7 10.45 -32.45 10.65 -30.6 10.95 -28.0 11.3 -27.25 L11.75 -25.85 12.15 -24.55 13.3 -22.05 Q14.75 -19.75 17.4 -16.7 20.2 -13.6 21.1 -13.45 22.25 -13.45 22.7 -16.05 L22.85 -19.75 22.8 -21.1 23.0 -24.25 23.2 -27.65 23.35 -32.85 23.45 -34.45 23.45 -35.8 Q23.45 -37.25 23.85 -38.5 24.9 -41.4 27.5 -41.4" fill-rule="evenodd" stroke="none"/>
    </g>
    <g id="font_ComicBook_Normal_l0">
      <path d="M6.7 -41.15 Q9.6 -40.75 9.9 -36.7 L10.05 -32.85 9.85 -27.45 9.45 -21.6 8.95 -16.2 8.7 -10.75 Q8.7 -9.5 9.75 -9.5 L11.9 -10.05 16.95 -12.2 Q19.7 -13.45 22.1 -13.45 L25.6 -13.3 Q27.35 -12.7 27.5 -10.05 27.5 -8.0 26.05 -6.9 25.1 -6.25 22.7 -5.5 L17.45 -4.25 12.25 -3.0 Q11.2 -2.7 8.4 -1.2 6.4 -0.05 4.45 0.15 L3.15 -0.1 2.25 -0.9 Q1.6 -1.9 1.6 -3.3 1.6 -6.7 2.15 -11.75 2.85 -18.15 2.85 -20.75 L2.65 -28.5 2.45 -36.5 Q2.55 -37.95 3.7 -39.6 4.85 -41.15 6.7 -41.15" fill-rule="evenodd" stroke="none"/>
    </g>
    <g id="font_ComicBook_Normal_a0">
      <path d="M21.2 -28.8 Q20.35 -28.8 19.35 -27.95 17.45 -25.4 15.25 -21.5 L14.5 -19.8 13.8 -17.95 12.85 -15.5 15.1 -15.45 16.75 -15.5 18.15 -15.55 20.2 -15.7 Q23.2 -16.0 28.2 -17.6 L25.8 -22.55 23.75 -26.05 23.2 -27.0 22.75 -27.75 Q22.05 -28.75 21.2 -28.8 M29.55 -31.35 Q32.5 -26.0 34.2 -21.55 L38.05 -11.7 Q38.45 -10.8 39.8 -8.65 40.65 -7.15 40.65 -5.7 40.65 -4.5 39.7 -2.85 38.55 -0.85 37.2 -0.85 34.55 -0.85 32.2 -8.8 30.4 -10.6 27.45 -10.6 L23.9 -10.25 21.25 -9.75 20.15 -9.55 Q16.2 -9.05 12.85 -7.8 9.2 -6.55 8.35 -5.1 8.0 -4.4 8.0 -3.95 L8.0 -2.9 8.05 -1.5 Q7.2 0.75 5.15 0.75 2.9 0.75 1.6 -0.65 0.75 -1.5 0.75 -2.8 0.75 -4.45 2.2 -7.3 L3.55 -9.7 4.5 -11.65 7.8 -18.9 9.65 -23.0 11.4 -26.65 Q16.6 -37.3 19.35 -39.55 L19.15 -39.45 Q19.15 -39.8 20.4 -39.8 22.4 -39.8 24.7 -37.75 27.3 -35.5 29.55 -31.35" fill-rule="evenodd" stroke="none"/>
    </g>
    <g id="font_ComicBook_Normal_i0">
      <path d="M8.9 -39.95 L8.9 -40.05 Q10.75 -40.05 12.0 -38.35 12.85 -37.1 12.85 -34.8 L12.2 -27.6 11.7 -19.45 10.45 -3.6 Q10.15 -0.4 7.4 -0.05 5.35 -0.05 4.3 -0.9 3.1 -2.0 3.1 -3.6 L3.55 -19.6 Q3.75 -26.55 4.55 -35.4 4.8 -37.35 6.0 -38.65 7.15 -39.95 8.9 -39.95" fill-rule="evenodd" stroke="none"/>
    </g>
    <g id="font_ComicBook_Normal_g0">
      <path d="M38.6 -25.85 L41.3 -25.55 Q42.45 -25.3 43.45 -24.35 44.1 -23.6 44.1 -22.2 42.95 -10.0 33.65 -4.3 27.3 -0.3 19.15 -0.1 L17.9 -0.1 Q10.5 -0.1 6.55 -2.55 4.85 -3.7 3.7 -5.35 2.6 -7.05 2.0 -9.45 1.45 -11.85 1.45 -15.15 1.65 -19.9 3.6 -24.15 5.55 -28.45 9.4 -32.3 16.7 -39.7 25.1 -39.75 L25.15 -39.75 36.0 -38.85 Q41.5 -37.15 42.15 -32.15 42.15 -30.8 41.0 -29.65 40.0 -28.6 39.1 -28.6 L36.05 -29.95 33.95 -30.85 Q31.0 -32.15 28.05 -32.15 21.55 -32.15 16.0 -27.7 13.45 -25.7 11.7 -23.35 10.0 -21.0 9.05 -18.25 8.65 -16.95 8.65 -15.75 8.65 -12.55 11.25 -10.6 13.8 -8.6 18.6 -8.6 23.2 -8.75 29.55 -11.45 35.25 -14.0 35.25 -15.25 35.0 -16.4 33.85 -16.4 L31.1 -15.75 28.1 -15.15 24.25 -14.7 20.4 -14.35 Q18.7 -14.45 17.55 -15.15 16.35 -15.9 16.35 -17.3 16.5 -20.05 21.45 -22.4 25.55 -24.3 32.95 -25.2 L37.65 -25.75 38.6 -25.85" fill-rule="evenodd" stroke="none"/>
    </g>
    <g id="font_ComicBook_Normal_t0">
      <path d="M23.65 -30.2 Q24.5 -27.5 24.5 -24.75 L24.15 -20.6 23.55 -15.9 23.1 -9.8 22.1 -3.2 Q21.85 -2.0 20.7 -1.2 19.55 -0.45 18.1 -0.45 16.5 -0.45 15.55 -0.9 14.35 -1.5 14.35 -2.65 L14.55 -5.15 14.75 -7.65 15.15 -13.25 Q15.55 -17.55 15.55 -23.05 L15.15 -29.45 15.15 -30.2 15.05 -31.05 Q14.85 -31.7 13.5 -31.7 L8.2 -31.15 Q6.55 -31.15 5.5 -31.95 4.25 -32.8 4.25 -34.35 4.35 -35.85 5.55 -36.95 6.8 -38.05 8.25 -38.05 L12.9 -38.3 19.7 -38.9 27.0 -39.5 33.75 -39.8 Q35.55 -39.8 36.75 -39.05 38.2 -38.2 38.2 -36.65 38.2 -35.0 36.95 -33.75 35.7 -32.5 34.05 -32.35 L25.25 -31.9 24.15 -31.25 Q23.65 -30.8 23.65 -30.2" fill-rule="evenodd" stroke="none"/>
    </g>
  </defs>
</svg>
