<?xml version="1.0" encoding="UTF-8" standalone="no"?>
<svg xmlns:xlink="http://www.w3.org/1999/xlink" height="93.25px" width="61.2px" xmlns="http://www.w3.org/2000/svg">
  <g transform="matrix(1.0, 0.0, 0.0, 1.0, 30.6, 46.6)">
    <use height="93.25" transform="matrix(1.0, 0.0, 0.0, 1.0, -30.6, -46.6)" width="61.2" xlink:href="#shape0"/>
  </g>
  <defs>
    <g id="shape0" transform="matrix(1.0, 0.0, 0.0, 1.0, 30.6, 46.6)">
      <path d="M-0.25 -29.1 Q-2.7 -29.15 -4.55 -30.35 -3.85 -30.9 -3.55 -32.05 -2.0 -37.75 -2.45 -43.85 L-2.4 -43.95 -1.45 -44.95 -1.15 -45.2 -0.5 -45.3 Q-0.95 -42.0 -0.6 -38.6 -0.2 -34.9 -0.25 -31.15 L-0.25 -29.1" fill="#0db5c8" fill-rule="evenodd" stroke="none"/>
      <path d="M-0.25 -29.1 L1.55 -29.25 Q3.1 -29.5 4.3 -30.4 3.8 -30.85 3.85 -31.95 4.15 -36.7 3.65 -41.4 3.5 -42.7 2.7 -43.75 L2.05 -44.6 Q0.9 -45.45 -0.5 -45.3 L-1.15 -45.2 -1.45 -44.95 -2.4 -43.95 -2.45 -43.85 Q-2.0 -37.75 -3.55 -32.05 -3.85 -30.9 -4.55 -30.35 -2.7 -29.15 -0.25 -29.1 M-0.3 -46.55 Q4.5 -45.95 5.05 -41.0 5.4 -38.25 5.0 -35.5 4.7 -33.3 5.35 -31.3 L5.55 -31.35 5.55 -31.4 5.8 -31.3 5.95 -31.25 6.05 -31.05 6.5 -30.85 Q11.3 -28.3 13.8 -23.25 L16.25 -18.0 Q19.2 -11.25 20.45 -3.95 L20.85 -1.45 21.5 3.8 21.9 7.85 21.95 8.05 22.05 9.2 22.3 11.8 23.15 16.05 22.8 16.75 Q24.1 20.05 23.25 23.45 L24.35 26.2 Q25.35 29.6 27.15 32.65 L30.5 38.1 Q30.7 38.45 30.4 38.75 L29.35 39.6 Q28.95 40.2 28.0 40.65 L25.0 42.05 Q18.2 44.9 10.9 46.15 5.15 47.15 -0.5 46.15 L-1.2 46.1 -1.3 45.9 -1.45 45.75 -1.6 45.35 -3.05 41.6 -3.1 41.5 Q-3.4 43.45 -4.2 45.25 L-4.25 45.4 -4.25 45.45 Q-4.5 46.1 -5.2 46.15 -19.45 46.6 -30.55 38.1 L-30.55 37.9 -30.55 37.6 Q-26.9 33.15 -25.2 27.45 -24.55 25.15 -24.3 22.8 L-24.25 22.8 Q-25.55 19.55 -25.25 16.0 L-25.55 15.6 -25.55 11.25 -25.7 10.3 Q-25.95 8.05 -25.6 5.75 L-25.4 4.45 -24.7 1.2 -24.6 0.75 -23.2 -4.2 Q-21.95 -8.15 -20.05 -11.85 -16.3 -19.3 -11.45 -26.2 -9.85 -28.45 -7.75 -30.1 L-5.7 -31.55 -5.3 -31.35 Q-3.25 -36.25 -3.85 -41.9 -4.25 -45.7 -0.6 -46.6 L-0.3 -46.55 M7.55 -28.7 L6.25 -29.6 5.65 -30.0 Q3.3 -27.6 -0.25 -27.75 L-1.8 -27.9 Q-4.25 -28.35 -5.95 -29.9 L-6.1 -30.1 -8.7 -27.8 -9.15 -27.25 -10.0 -26.15 Q-13.5 -21.55 -16.25 -16.45 -18.85 -11.65 -20.95 -6.55 L-22.1 -3.4 -23.5 1.65 Q-24.1 4.15 -24.35 6.7 L-24.45 7.35 -24.45 7.6 -24.45 8.15 -24.45 8.25 -24.55 8.4 -24.55 8.45 -24.55 8.75 -24.3 11.4 -24.3 11.55 -24.3 14.6 -24.3 14.9 -20.8 18.55 Q-16.25 22.35 -9.9 23.45 1.45 25.4 12.5 22.15 14.95 21.4 17.1 20.15 L19.45 18.45 21.3 16.7 Q21.35 16.3 21.65 16.0 L21.65 15.95 21.75 15.8 Q21.25 14.25 21.05 12.75 L20.95 10.75 20.5 8.85 20.4 7.8 20.3 4.6 19.95 1.2 19.65 -0.8 Q18.7 -6.85 16.85 -12.65 15.25 -17.55 12.85 -22.15 10.9 -26.15 7.55 -28.7 M22.35 25.75 L22.25 25.9 Q21.8 26.05 21.6 25.7 22.25 22.25 22.1 18.75 L22.0 17.55 Q20.7 19.85 17.9 21.1 L17.1 21.45 Q5.0 26.75 -8.3 24.9 -14.05 24.1 -19.1 21.2 L-20.5 20.35 Q-22.45 19.0 -24.05 17.3 L-24.15 17.4 Q-23.7 21.4 -21.9 25.05 L-21.9 25.2 -22.05 25.5 -22.2 25.65 -22.9 25.55 -23.35 24.75 Q-23.55 27.1 -24.55 29.45 -25.9 32.65 -27.55 35.6 L-28.9 37.75 Q-18.45 45.35 -5.25 44.75 L-4.95 44.8 Q-5.05 43.15 -4.6 41.4 -4.3 40.35 -4.35 39.2 L-4.35 37.05 -3.75 36.5 -3.55 36.45 -3.3 36.55 -3.15 36.6 Q-2.1 40.85 -0.4 44.85 L1.35 44.9 Q8.35 45.85 15.15 44.2 21.05 42.75 26.4 39.95 L28.4 38.55 28.8 38.1 29.15 37.8 Q24.7 32.35 22.75 25.65 L22.65 25.2 22.35 25.75" fill="#000000" fill-rule="evenodd" stroke="none"/>
      <path d="M-0.5 -45.3 Q0.9 -45.45 2.05 -44.6 L2.7 -43.75 Q3.5 -42.7 3.65 -41.4 4.15 -36.7 3.85 -31.95 3.8 -30.85 4.3 -30.4 3.1 -29.5 1.55 -29.25 L-0.25 -29.1 -0.25 -31.15 Q-0.2 -34.9 -0.6 -38.6 -0.95 -42.0 -0.5 -45.3" fill="#0ecfe4" fill-rule="evenodd" stroke="none"/>
      <path d="M-10.0 -26.15 L-9.15 -27.25 -8.7 -27.8 -6.1 -30.1 -5.95 -29.9 Q-4.25 -28.35 -1.8 -27.9 L-0.25 -27.75 Q3.3 -27.6 5.65 -30.0 L6.25 -29.6 7.55 -28.7 12.55 -17.55 13.65 -14.1 Q14.8 -9.45 15.45 -4.55 L15.75 -2.05 16.05 0.7 12.5 1.7 10.6 2.1 5.55 2.65 4.05 2.7 Q1.8 2.9 -0.45 2.65 L-4.95 2.25 -10.4 1.25 -11.0 1.1 -15.85 -0.3 -17.5 -0.95 -19.45 -1.85 Q-17.95 -10.0 -14.5 -17.65 -12.6 -21.95 -9.85 -26.05 L-10.0 -26.15 M17.1 20.15 Q14.95 21.4 12.5 22.15 1.45 25.4 -9.9 23.45 -16.25 22.35 -20.8 18.55 -21.2 15.95 -21.2 13.25 L-19.4 14.3 Q-15.3 16.75 -10.5 17.55 L-9.4 17.8 -2.45 18.6 5.05 18.05 11.55 17.2 12.55 16.95 17.1 15.05 17.1 15.95 17.1 20.15 M-24.3 11.55 L-24.3 11.4 Q-24.2 11.45 -24.05 11.55 L-24.3 11.55 M-20.35 3.95 Q-17.2 5.9 -14.0 7.0 L-11.4 7.65 -8.95 8.05 -7.95 8.2 -2.95 8.6 -1.95 8.7 2.6 8.55 4.05 8.45 7.15 8.15 8.55 7.85 16.4 6.6 16.4 7.95 16.5 10.55 15.55 10.9 Q11.35 12.55 6.55 13.1 L-1.45 13.5 Q-11.15 13.45 -19.45 9.4 L-20.45 8.95 -20.9 8.75 -20.35 3.95" fill="#f02d0b" fill-rule="evenodd" stroke="none"/>
      <path d="M-10.0 -26.15 L-9.85 -26.05 Q-12.6 -21.95 -14.5 -17.65 -17.95 -10.0 -19.45 -1.85 L-22.1 -3.4 -20.95 -6.55 Q-18.85 -11.65 -16.25 -16.45 -13.5 -21.55 -10.0 -26.15 M16.05 0.7 L15.75 -2.05 15.45 -4.55 Q14.8 -9.45 13.65 -14.1 L12.55 -17.55 7.55 -28.7 Q10.9 -26.15 12.85 -22.15 15.25 -17.55 16.85 -12.65 18.7 -6.85 19.65 -0.8 L17.65 0.1 16.05 0.7 M20.3 4.6 L20.4 7.8 20.5 8.85 16.5 10.55 16.4 7.95 16.4 6.6 17.5 6.3 18.5 5.8 Q19.2 5.25 20.3 4.6 M21.05 12.75 Q21.25 14.25 21.75 15.8 L21.65 15.95 21.65 16.0 Q21.35 16.3 21.3 16.7 L19.45 18.45 17.1 20.15 17.1 15.95 17.1 15.05 19.7 13.6 21.05 12.75 M-20.8 18.55 L-24.3 14.9 -24.3 14.6 -24.3 11.55 -24.05 11.55 -21.2 13.25 Q-21.2 15.95 -20.8 18.55 M-24.35 6.7 Q-24.1 4.15 -23.5 1.65 L-22.8 2.2 -21.6 3.1 -20.35 3.95 -20.9 8.75 -24.35 6.7" fill="#d6280a" fill-rule="evenodd" stroke="none"/>
      <path d="M-19.45 -1.85 L-17.5 -0.95 -15.85 -0.3 -11.0 1.1 -10.4 1.25 -4.95 2.25 -0.45 2.65 Q1.8 2.9 4.05 2.7 L5.55 2.65 10.6 2.1 12.5 1.7 16.05 0.7 17.65 0.1 19.65 -0.8 19.95 1.2 20.3 4.6 Q19.2 5.25 18.5 5.8 L17.5 6.3 16.4 6.6 8.55 7.85 7.15 8.15 4.05 8.45 2.6 8.55 -1.95 8.7 -2.95 8.6 -7.95 8.2 -8.95 8.05 -11.4 7.65 -14.0 7.0 Q-17.2 5.9 -20.35 3.95 L-21.6 3.1 -22.8 2.2 -23.5 1.65 -22.1 -3.4 -19.45 -1.85 M20.5 8.85 L20.95 10.75 21.05 12.75 19.7 13.6 17.1 15.05 12.55 16.95 11.55 17.2 5.05 18.05 -2.45 18.6 -9.4 17.8 -10.5 17.55 Q-15.3 16.75 -19.4 14.3 L-21.2 13.25 -24.05 11.55 Q-24.2 11.45 -24.3 11.4 L-24.55 8.75 -24.45 8.25 -24.45 8.15 -24.45 7.6 -24.45 7.35 -24.35 6.7 -20.9 8.75 -20.45 8.95 -19.45 9.4 Q-11.15 13.45 -1.45 13.5 L6.55 13.1 Q11.35 12.55 15.55 10.9 L16.5 10.55 20.5 8.85" fill="#c62509" fill-rule="evenodd" stroke="none"/>
      <path d="M22.75 25.65 Q24.7 32.35 29.15 37.8 L28.8 38.1 28.4 38.55 26.4 39.95 Q21.05 42.75 15.15 44.2 8.35 45.85 1.35 44.9 L-0.4 44.85 Q-2.1 40.85 -3.15 36.6 L-3.3 36.55 -3.55 36.45 -3.75 36.5 -4.35 37.05 -4.35 39.2 Q-4.3 40.35 -4.6 41.4 -5.05 43.15 -4.95 44.8 L-5.25 44.75 Q-18.45 45.35 -28.9 37.75 L-27.55 35.6 Q-25.9 32.65 -24.55 29.45 -23.55 27.1 -23.35 24.75 L-22.9 25.55 -22.2 25.65 -22.05 25.5 -21.9 25.2 -21.9 25.05 Q-23.7 21.4 -24.15 17.4 L-24.05 17.3 Q-22.45 19.0 -20.5 20.35 L-19.1 21.2 Q-14.05 24.1 -8.3 24.9 5.0 26.75 17.1 21.45 L17.9 21.1 Q20.7 19.85 22.0 17.55 L22.1 18.75 Q22.25 22.25 21.6 25.7 21.8 26.05 22.25 25.9 L22.35 25.75 22.75 25.65" fill="#666666" fill-rule="evenodd" stroke="none"/>
    </g>
  </defs>
</svg>
