<?xml version="1.0" encoding="UTF-8" standalone="no"?>
<svg xmlns:xlink="http://www.w3.org/1999/xlink" height="80.45px" width="76.4px" xmlns="http://www.w3.org/2000/svg">
  <g transform="matrix(1.0, 0.0, 0.0, 1.0, 37.45, 39.0)">
    <use height="37.85" transform="matrix(1.0, 0.0, 0.0, 1.0, -37.45, -37.45)" width="76.4" xlink:href="#shape0"/>
    <use height="0.0" id="factory" transform="matrix(1.0, 0.0, 0.0, 1.0, 0.0, -39.0)" width="0.0" xlink:href="#sprite0"/>
    <use height="0.0" id="mySound" transform="matrix(1.0, 0.0, 0.0, 1.0, 0.5, 41.45)" width="0.0" xlink:href="#sprite1"/>
    <use height="50.0" id="ship" transform="matrix(0.7385, 0.0, 0.0, 0.7385, -18.3893, -35.7077)" width="50.1" xlink:href="#sprite2"/>
  </g>
  <defs>
    <g id="shape0" transform="matrix(1.0, 0.0, 0.0, 1.0, 37.45, 37.45)">
      <path d="M-26.8 0.15 L-27.8 0.15 -27.8 0.1 -27.8 -0.25 Q-27.8 -11.75 -19.65 -19.9 -11.5 -28.05 0.0 -28.05 11.5 -28.05 19.65 -19.9 27.85 -11.75 27.85 -0.25 L27.85 0.1 27.85 0.15 26.85 0.15 26.85 0.1 26.85 -0.25 Q26.85 -11.35 18.95 -19.2 11.1 -27.05 0.0 -27.05 -11.1 -27.05 -18.95 -19.2 -26.8 -11.35 -26.8 -0.25 L-26.8 0.1 -26.8 0.15 M16.4 0.15 L15.4 0.15 15.4 -0.1 15.4 -0.45 Q15.4 -6.85 10.9 -11.35 6.35 -15.85 -0.05 -15.85 -6.45 -15.85 -10.95 -11.35 -15.45 -6.85 -15.45 -0.45 L-15.45 -0.1 -15.45 0.15 -16.45 0.15 -16.45 -0.1 -16.45 -0.45 Q-16.45 -7.25 -11.65 -12.05 -6.85 -16.85 -0.05 -16.85 6.75 -16.85 11.6 -12.05 16.4 -7.25 16.4 -0.45 L16.4 -0.1 16.4 0.15" fill="#ffffff" fill-rule="evenodd" stroke="none"/>
      <path d="M26.85 0.15 L16.4 0.15 16.4 -0.1 16.4 -0.45 Q16.4 -7.25 11.6 -12.05 6.75 -16.85 -0.05 -16.85 -6.85 -16.85 -11.65 -12.05 -16.45 -7.25 -16.45 -0.45 L-16.45 -0.1 -16.45 0.15 -26.8 0.15 -26.8 0.1 -26.8 -0.25 Q-26.8 -11.35 -18.95 -19.2 -11.1 -27.05 0.0 -27.05 11.1 -27.05 18.95 -19.2 26.85 -11.35 26.85 -0.25 L26.85 0.1 26.85 0.15 M15.4 0.15 L-15.45 0.15 -15.45 -0.1 -15.45 -0.45 Q-15.45 -6.85 -10.95 -11.35 -6.45 -15.85 -0.05 -15.85 6.35 -15.85 10.9 -11.35 15.4 -6.85 15.4 -0.45 L15.4 -0.1 15.4 0.15" fill="#000000" fill-rule="evenodd" stroke="none"/>
      <path d="M0.0 -28.05 Q-11.5 -28.05 -19.65 -19.9 -27.8 -11.75 -27.8 -0.25 L-27.8 0.1 -27.8 0.15 -37.45 0.15 -37.45 0.0 Q-37.45 -15.5 -26.5 -26.5 -15.5 -37.45 0.0 -37.45 15.5 -37.45 26.45 -26.5 37.45 -15.5 37.45 0.0 L37.45 0.15 27.85 0.15 27.85 0.1 27.85 -0.25 Q27.85 -11.75 19.65 -19.9 11.5 -28.05 0.0 -28.05" fill="#000000" fill-rule="evenodd" stroke="none"/>
      <path d="M27.95 -26.25 Q38.95 -15.25 38.95 0.25 L38.95 0.4 29.35 0.4 29.35 0.35 29.35 0.0 Q29.35 -11.5 21.15 -19.65 13.0 -27.8 1.5 -27.8 -10.0 -27.8 -18.15 -19.65 -26.3 -11.5 -26.3 0.0 L-26.3 0.35 -26.3 0.4 -35.95 0.4 -35.95 0.25 Q-35.95 -15.25 -25.0 -26.25 -14.0 -37.2 1.5 -37.2 17.0 -37.2 27.95 -26.25" fill="#000000" fill-opacity="0.3019608" fill-rule="evenodd" stroke="none"/>
    </g>
    <g id="sprite2" transform="matrix(1.0, 0.0, 0.0, 1.0, 24.9, 48.35)">
      <use height="50.0" transform="matrix(1.0, 0.0, 0.0, 1.0, -24.9, -48.35)" width="50.1" xlink:href="#sprite3"/>
    </g>
    <g id="sprite3" transform="matrix(1.0, 0.0, 0.0, 1.0, 24.9, 48.35)">
      <use height="50.0" transform="matrix(1.0, 0.0, 0.0, 1.0, -24.9, -48.35)" width="50.1" xlink:href="#shape1"/>
    </g>
    <g id="shape1" transform="matrix(1.0, 0.0, 0.0, 1.0, 24.9, 48.35)">
      <path d="M1.6 -0.9 L1.35 -1.2 Q0.85 -1.7 0.15 -1.7 L-0.1 -1.65 -0.35 -1.7 -1.45 -1.25 -1.5 -1.25 -24.9 -41.75 Q-13.75 -48.35 0.15 -48.35 14.0 -48.35 25.15 -41.75 L25.2 -41.75 1.6 -0.9" fill="#ffffff" fill-opacity="0.5019608" fill-rule="evenodd" stroke="none"/>
      <path d="M-0.9 -1.5 L-0.35 -1.65 -0.1 -1.7 Q0.6 -1.7 1.1 -1.2 L1.35 -0.9 1.55 -0.35 1.6 0.0 Q1.6 0.65 1.1 1.15 L0.45 1.6 0.4 1.6 -0.1 1.65 Q-0.75 1.65 -1.3 1.15 -1.8 0.65 -1.8 -0.05 -1.8 -0.7 -1.3 -1.2 L-1.25 -1.25 -0.9 -1.5 -0.25 -0.35 -0.9 -1.5" fill="#ffff00" fill-rule="evenodd" stroke="none"/>
      <path d="M-0.9 -1.5 L-23.75 -40.85 M-0.25 -0.35 L-0.9 -1.5 Z" fill="none" stroke="#ffff00" stroke-linecap="round" stroke-linejoin="round" stroke-width="2.0"/>
    </g>
  </defs>
</svg>
