<?xml version="1.0" encoding="UTF-8" standalone="no"?>
<svg xmlns:xlink="http://www.w3.org/1999/xlink" height="40.3px" width="253.8px" xmlns="http://www.w3.org/2000/svg">
  <g transform="matrix(1.0, 0.0, 0.0, 1.0, -1.7, 2.25)">
    <use height="37.55" transform="matrix(1.0, 0.0, 0.0, 1.0, 1.7, 0.5)" width="253.8" xlink:href="#shape0"/>
    <use height="37.55" transform="matrix(1.0, 0.0, 0.0, 1.0, 1.7, -2.25)" width="253.8" xlink:href="#shape1"/>
    <use height="13.0" transform="matrix(1.0, 0.0, 0.0, 1.0, 11.5, 9.35)" width="229.05" xlink:href="#sprite0"/>
  </g>
  <defs>
    <g id="shape0" transform="matrix(1.0, 0.0, 0.0, 1.0, -1.7, -0.5)">
      <path d="M251.4 33.9 L251.35 33.95 Q247.25 38.05 241.5 38.05 L51.65 38.05 51.65 0.5 241.5 0.5 Q247.25 0.5 251.35 4.65 L251.4 4.65 Q255.3 8.55 255.5 13.95 L255.5 24.05 255.5 24.2 Q255.45 29.85 251.4 33.9 M51.6 38.05 L15.7 38.05 Q9.95 38.05 5.85 33.95 L5.85 33.9 Q3.7 31.75 2.65 29.2 1.75 26.85 1.7 24.2 L1.7 24.05 1.7 13.95 Q1.9 8.55 5.85 4.65 9.95 0.5 15.7 0.5 L51.6 0.5 51.6 38.05" fill="#000000" fill-rule="evenodd" stroke="none"/>
    </g>
    <g id="shape1" transform="matrix(1.0, 0.0, 0.0, 1.0, -1.7, 2.25)">
      <path d="M51.6 -2.25 L51.6 35.3 15.7 35.3 Q9.95 35.3 5.85 31.2 L5.85 31.15 Q3.7 29.0 2.65 26.45 1.75 24.1 1.7 21.45 L1.7 21.3 1.7 11.2 Q1.9 5.8 5.85 1.9 9.95 -2.25 15.7 -2.25 L51.6 -2.25 M241.5 -2.25 Q247.25 -2.25 251.35 1.9 L251.4 1.9 Q255.3 5.8 255.5 11.2 L255.5 21.3 255.5 21.45 Q255.45 27.1 251.4 31.15 L251.35 31.2 Q247.25 35.3 241.5 35.3 L51.65 35.3 51.65 -2.25 241.5 -2.25" fill="#ffffff" fill-rule="evenodd" stroke="none"/>
      <path d="M245.25 27.45 Q241.35 30.4 235.9 30.4 L55.5 30.4 21.4 30.4 Q15.9 30.4 12.0 27.45 L12.0 27.4 Q9.95 25.85 9.0 24.0 8.1 22.3 8.1 20.4 L8.1 20.25 8.1 13.0 Q8.25 9.05 12.0 6.25 L12.0 6.2 Q15.9 3.25 21.4 3.25 L55.5 3.25 235.9 3.25 Q241.35 3.25 245.25 6.2 L245.25 6.25 Q248.95 9.05 249.2 13.0 L249.2 20.25 249.2 20.4 Q249.1 24.45 245.25 27.4 L245.25 27.45 M55.5 30.4 L55.5 3.25 55.5 30.4" fill="#fff200" fill-rule="evenodd" stroke="none"/>
    </g>
    <g id="sprite0" transform="matrix(1.0, 0.0, 0.0, 1.0, 46.35, -5.65)">
      <use height="34.8" transform="matrix(0.3516, 0.0, 0.0, 0.3516, -46.3445, 5.8887)" width="45.0" xlink:href="#shape2"/>
      <use height="35.8" transform="matrix(0.3516, 0.0, 0.0, 0.3516, -30.466, 6.0645)" width="16.15" xlink:href="#shape3"/>
      <use height="36.85" transform="matrix(0.3516, 0.0, 0.0, 0.3516, -24.7094, 5.625)" width="37.4" xlink:href="#shape4"/>
      <use height="35.8" transform="matrix(0.3516, 0.0, 0.0, 0.3516, -11.466, 6.0645)" width="16.15" xlink:href="#shape3"/>
      <use height="36.0" transform="matrix(0.3516, 0.0, 0.0, 0.3516, -5.5687, 5.8711)" width="34.65" xlink:href="#shape5"/>
      <use height="36.0" transform="matrix(0.3516, 0.0, 0.0, 0.3516, 11.3313, 5.8711)" width="34.65" xlink:href="#shape5"/>
      <use height="35.7" transform="matrix(0.3516, 0.0, 0.0, 0.3516, 23.734, 5.959)" width="42.15" xlink:href="#shape6"/>
      <use height="35.7" transform="matrix(0.3516, 0.0, 0.0, 0.3516, 38.834, 5.959)" width="42.15" xlink:href="#shape6"/>
      <use height="36.35" transform="matrix(0.3516, 0.0, 0.0, 0.3516, 53.9867, 5.8711)" width="41.15" xlink:href="#shape7"/>
      <use height="36.0" transform="matrix(0.3516, 0.0, 0.0, 0.3516, 68.6313, 5.8711)" width="34.65" xlink:href="#shape5"/>
      <use height="35.7" transform="matrix(0.3516, 0.0, 0.0, 0.3516, 81.034, 5.959)" width="42.15" xlink:href="#shape6"/>
      <use height="35.2" transform="matrix(0.3516, 0.0, 0.0, 0.3516, 95.9582, 5.6602)" width="46.1" xlink:href="#shape8"/>
      <use height="36.35" transform="matrix(0.3516, 0.0, 0.0, 0.3516, 112.2867, 5.8711)" width="41.15" xlink:href="#shape7"/>
      <use height="36.35" transform="matrix(0.3516, 0.0, 0.0, 0.3516, 131.5867, 5.8711)" width="41.15" xlink:href="#shape7"/>
      <use height="35.7" transform="matrix(0.3516, 0.0, 0.0, 0.3516, 146.284, 5.959)" width="42.15" xlink:href="#shape6"/>
      <use height="35.2" transform="matrix(0.3516, 0.0, 0.0, 0.3516, 161.2082, 5.6602)" width="46.1" xlink:href="#shape8"/>
      <use height="36.65" transform="matrix(0.3516, 0.0, 0.0, 0.3516, 177.5016, 5.7656)" width="14.85" xlink:href="#shape9"/>
    </g>
    <g id="shape2" transform="matrix(1.0, 0.0, 0.0, 1.0, -0.3, 34.45)">
      <path d="M33.65 -33.7 L39.0 -33.95 45.3 -34.25 41.45 -24.4 38.2 -16.4 35.15 -9.25 31.75 -1.7 26.8 -0.85 22.1 -0.2 18.55 0.2 17.15 0.35 13.0 -7.15 9.25 -14.15 5.2 -21.75 0.3 -31.2 5.5 -32.45 10.45 -33.5 14.15 -34.15 15.65 -34.45 19.7 -26.45 23.2 -19.15 25.8 -26.25 28.6 -33.4 29.95 -33.5 33.65 -33.7" fill="#000000" fill-rule="evenodd" stroke="none"/>
    </g>
    <g id="shape3" transform="matrix(1.0, 0.0, 0.0, 1.0, -0.95, 33.95)">
      <path d="M17.1 -33.1 L17.1 -16.8 16.75 0.15 11.65 0.9 6.55 1.4 2.6 1.75 1.05 1.85 0.95 -6.7 0.95 -14.65 1.0 -23.25 1.2 -33.95 6.6 -33.85 11.75 -33.55 15.6 -33.25 17.1 -33.1" fill="#000000" fill-rule="evenodd" stroke="none"/>
    </g>
    <g id="shape4" transform="matrix(1.0, 0.0, 0.0, 1.0, -0.4, 35.2)">
      <path d="M32.65 -31.5 Q34.75 -29.75 35.95 -27.7 37.2 -25.65 37.8 -23.6 L32.7 -22.45 28.0 -21.6 24.55 -21.15 23.2 -21.0 Q22.6 -22.05 21.55 -22.55 L19.35 -23.1 17.35 -22.85 Q16.5 -22.5 16.3 -21.9 16.0 -20.9 17.55 -20.1 19.1 -19.35 22.85 -19.2 L27.35 -18.7 Q29.9 -18.3 32.3 -17.25 34.65 -16.2 36.2 -14.3 37.75 -12.4 37.7 -9.45 37.5 -6.5 35.95 -4.35 34.4 -2.25 31.8 -0.9 29.25 0.45 25.95 1.1 L19.05 1.65 Q14.7 1.65 11.15 0.7 7.6 -0.3 4.9 -2.5 2.2 -4.7 0.4 -8.35 L7.35 -10.4 12.5 -11.6 14.55 -12.0 Q15.35 -10.65 16.65 -10.05 17.95 -9.45 19.3 -9.4 L21.7 -9.65 22.95 -10.45 Q23.3 -11.45 21.45 -12.05 L16.2 -12.95 Q12.3 -13.3 9.15 -14.35 6.0 -15.4 4.05 -17.35 2.1 -19.35 1.75 -22.5 1.45 -25.75 3.2 -28.6 4.95 -31.45 8.85 -33.3 12.8 -35.1 19.0 -35.2 23.85 -35.25 27.2 -34.2 30.55 -33.2 32.65 -31.5" fill="#000000" fill-rule="evenodd" stroke="none"/>
    </g>
    <g id="shape5" transform="matrix(1.0, 0.0, 0.0, 1.0, -0.8, 34.5)">
      <path d="M32.65 -34.5 L33.75 -29.3 34.65 -24.15 35.2 -20.25 35.45 -18.65 34.0 -18.7 30.5 -18.7 26.15 -18.6 27.1 -9.05 27.9 0.0 22.25 0.65 16.9 1.1 12.85 1.4 11.25 1.5 11.2 -5.25 11.2 -11.45 11.2 -17.75 6.25 -17.2 2.4 -16.6 0.8 -16.3 0.8 -21.75 0.95 -26.9 1.1 -30.7 1.2 -32.25 11.35 -33.0 21.6 -33.7 32.65 -34.5" fill="#000000" fill-rule="evenodd" stroke="none"/>
    </g>
    <g id="shape6" transform="matrix(1.0, 0.0, 0.0, 1.0, -0.95, 34.25)">
      <path d="M18.95 -18.3 Q17.4 -17.1 17.35 -15.35 17.4 -13.55 18.95 -12.35 20.45 -11.2 22.75 -11.15 25.0 -11.2 26.55 -12.35 28.05 -13.55 28.1 -15.35 28.05 -17.1 26.55 -18.3 25.0 -19.5 22.75 -19.55 20.45 -19.5 18.95 -18.3 M32.95 -31.85 Q37.5 -29.5 40.15 -25.55 42.75 -21.6 43.05 -16.65 43.25 -13.15 41.95 -9.9 40.65 -6.65 37.9 -4.1 35.15 -1.55 31.1 -0.05 27.05 1.45 21.7 1.45 17.4 1.45 13.65 0.3 9.9 -0.9 7.05 -3.15 4.15 -5.45 2.55 -8.75 0.95 -12.1 0.95 -16.4 1.0 -20.8 2.85 -24.1 4.7 -27.45 7.75 -29.7 10.85 -31.95 14.6 -33.1 18.4 -34.25 22.4 -34.25 28.45 -34.2 32.95 -31.85" fill="#000000" fill-rule="evenodd" stroke="none"/>
    </g>
    <g id="shape7" transform="matrix(1.0, 0.0, 0.0, 1.0, -1.1, 34.5)">
      <path d="M32.25 -34.05 L37.35 -33.5 40.9 -33.05 42.25 -32.85 41.75 -22.85 41.1 -11.85 40.25 -0.4 34.7 0.55 29.35 1.25 25.35 1.7 23.75 1.85 21.1 -3.2 18.6 -7.7 16.8 -10.95 16.1 -12.15 16.05 -6.8 15.95 -2.65 15.9 1.45 11.05 1.1 6.2 0.65 2.55 0.3 1.1 0.1 1.25 -16.7 1.65 -34.35 7.15 -34.2 12.05 -33.9 15.55 -33.65 16.9 -33.5 19.9 -27.4 22.8 -21.9 24.9 -18.0 25.75 -16.45 25.95 -22.8 26.15 -28.6 26.3 -32.85 26.35 -34.5 32.25 -34.05" fill="#000000" fill-rule="evenodd" stroke="none"/>
    </g>
    <g id="shape8" transform="matrix(1.0, 0.0, 0.0, 1.0, -0.45, 35.1)">
      <path d="M33.1 -33.55 L38.8 -33.6 46.55 -33.45 44.75 -25.25 43.3 -18.75 42.0 -13.2 40.65 -7.6 39.05 -1.1 35.2 -0.6 31.4 -0.25 28.45 0.0 27.3 0.1 26.1 -3.35 24.85 -6.7 23.9 -9.15 23.5 -10.15 23.05 -8.75 21.8 -5.2 20.2 -0.25 16.1 -0.35 12.35 -0.55 9.55 -0.7 8.45 -0.8 7.25 -5.2 5.65 -11.4 3.8 -18.55 2.0 -25.8 0.45 -32.3 5.7 -33.45 10.5 -34.35 13.95 -34.9 15.25 -35.1 15.55 -33.8 16.3 -30.3 17.4 -25.35 18.65 -19.7 19.25 -20.8 20.75 -23.55 22.85 -27.05 23.65 -26.0 25.55 -23.4 27.65 -20.05 28.65 -24.5 29.7 -28.85 30.5 -32.15 30.85 -33.45 33.1 -33.55" fill="#000000" fill-rule="evenodd" stroke="none"/>
    </g>
    <g id="shape9" transform="matrix(1.0, 0.0, 0.0, 1.0, -1.0, 34.8)">
      <path d="M3.0 -0.15 Q2.1 -1.15 1.95 -2.55 1.85 -3.95 2.6 -5.1 3.4 -6.3 4.75 -7.05 6.15 -7.8 7.95 -7.95 L11.2 -7.55 Q12.7 -7.0 13.65 -6.0 14.6 -4.95 14.7 -3.55 14.8 -2.2 14.0 -1.0 13.25 0.15 11.85 0.95 10.5 1.7 8.7 1.85 L5.45 1.45 Q3.95 0.9 3.0 -0.15 M15.85 -34.05 L15.7 -26.0 15.45 -18.15 15.1 -9.9 11.0 -9.65 6.45 -9.4 2.8 -9.2 1.3 -9.1 1.1 -17.85 1.0 -26.55 1.05 -34.8 6.45 -34.65 11.2 -34.4 14.55 -34.2 15.85 -34.05" fill="#000000" fill-rule="evenodd" stroke="none"/>
    </g>
  </defs>
</svg>
