<?xml version="1.0" encoding="UTF-8" standalone="no"?>
<svg xmlns:xlink="http://www.w3.org/1999/xlink" height="23.3px" width="128.35px" xmlns="http://www.w3.org/2000/svg">
  <g transform="matrix(1.0, 0.0, 0.0, 1.0, 55.45, 6.9)">
    <use height="23.3" transform="matrix(1.0, 0.0, 0.0, 1.0, -55.45, -6.9)" width="128.35" xlink:href="#text0"/>
  </g>
  <defs>
    <g id="text0" transform="matrix(1.0, 0.0, 0.0, 1.0, -0.25, -6.3)">
      <g transform="matrix(1.0, 0.0, 0.0, 1.0, 0.0, 0.0)">
        <use fill="#333333" height="23.3" transform="matrix(0.5664, 0.0, 0.0, 0.5664, 0.0, 29.25)" width="128.35" xlink:href="#font_Impact_J0"/>
        <use fill="#333333" height="23.3" transform="matrix(0.5664, 0.0, 0.0, 0.5664, 9.6, 29.25)" width="128.35" xlink:href="#font_Impact_o0"/>
        <use fill="#333333" height="23.3" transform="matrix(0.5664, 0.0, 0.0, 0.5664, 24.45, 29.25)" width="128.35" xlink:href="#font_Impact_i0"/>
        <use fill="#333333" height="23.3" transform="matrix(0.5664, 0.0, 0.0, 0.5664, 32.4, 29.25)" width="128.35" xlink:href="#font_Impact_n0"/>
        <use fill="#333333" height="23.3" transform="matrix(0.5664, 0.0, 0.0, 0.5664, 52.65, 29.25)" width="128.35" xlink:href="#font_Impact_N0"/>
        <use fill="#333333" height="23.3" transform="matrix(0.5664, 0.0, 0.0, 0.5664, 68.35, 29.25)" width="128.35" xlink:href="#font_Impact_o0"/>
        <use fill="#333333" height="23.3" transform="matrix(0.5664, 0.0, 0.0, 0.5664, 83.2, 29.25)" width="128.35" xlink:href="#font_Impact_w0"/>
        <use fill="#333333" height="23.3" transform="matrix(0.5664, 0.0, 0.0, 0.5664, 102.6, 29.25)" width="128.35" xlink:href="#font_Impact__1"/>
      </g>
    </g>
    <g id="font_Impact_J0">
      <path d="M15.0 -40.45 L15.0 -13.4 14.85 -5.6 Q14.75 -3.85 13.7 -2.45 12.7 -1.05 10.95 -0.5 L5.75 0.0 0.45 0.0 0.45 -7.05 1.85 -7.0 Q2.95 -7.0 3.6 -7.55 4.25 -8.1 4.35 -8.9 L4.45 -12.0 4.45 -40.45 15.0 -40.45" fill-rule="evenodd" stroke="none"/>
    </g>
    <g id="font_Impact_o0">
      <path d="M24.2 -26.75 Q24.65 -25.05 24.65 -21.5 L24.65 -13.4 Q24.65 -8.9 24.2 -6.8 23.75 -4.75 22.3 -2.9 20.8 -1.1 18.5 -0.25 16.2 0.6 13.2 0.6 L7.5 -0.1 Q5.2 -0.85 3.9 -2.35 2.6 -3.85 2.05 -5.95 1.5 -8.05 1.5 -12.3 L1.5 -20.8 Q1.5 -25.4 2.5 -28.0 3.5 -30.6 6.1 -32.2 8.7 -33.75 12.75 -33.75 16.15 -33.75 18.6 -32.75 21.05 -31.75 22.35 -30.1 23.7 -28.5 24.2 -26.75 M11.9 -27.2 Q11.6 -26.55 11.6 -24.0 L11.6 -9.05 Q11.6 -6.7 11.9 -5.95 12.2 -5.25 13.1 -5.25 14.0 -5.25 14.3 -5.9 L14.55 -8.7 14.55 -24.0 14.3 -27.2 Q14.0 -27.9 13.1 -27.9 12.2 -27.9 11.9 -27.2" fill-rule="evenodd" stroke="none"/>
    </g>
    <g id="font_Impact_i0">
      <path d="M12.2 -33.15 L12.2 0.0 1.8 0.0 1.8 -33.15 12.2 -33.15 M12.2 -40.45 L12.2 -35.2 1.8 -35.2 1.8 -40.45 12.2 -40.45" fill-rule="evenodd" stroke="none"/>
    </g>
    <g id="font_Impact_n0">
      <path d="M24.65 -29.45 Q25.1 -27.6 25.1 -23.25 L25.1 0.0 15.0 0.0 15.0 -22.95 Q15.0 -26.4 14.8 -27.15 14.55 -27.9 13.55 -27.9 12.45 -27.9 12.2 -27.0 11.9 -26.15 11.9 -22.4 L11.9 0.0 1.8 0.0 1.8 -33.15 12.1 -33.15 11.9 -30.1 Q13.0 -31.95 14.6 -32.85 16.2 -33.75 18.25 -33.75 20.85 -33.75 22.5 -32.55 24.15 -31.3 24.65 -29.45" fill-rule="evenodd" stroke="none"/>
    </g>
    <g id="font_Impact_N0">
      <path d="M25.6 -40.45 L25.6 0.0 16.4 0.0 10.9 -18.4 10.9 0.0 2.1 0.0 2.1 -40.45 10.9 -40.45 16.8 -22.25 16.8 -40.45 25.6 -40.45" fill-rule="evenodd" stroke="none"/>
    </g>
    <g id="font_Impact_w0">
      <path d="M34.45 -33.15 L30.45 0.0 19.45 0.0 Q18.55 -6.05 17.4 -16.0 L16.25 -7.2 15.15 0.0 4.15 0.0 -0.15 -33.15 8.55 -33.15 10.8 -14.15 13.05 -33.15 21.4 -33.15 23.45 -14.15 Q23.95 -22.5 25.75 -33.15 L34.45 -33.15" fill-rule="evenodd" stroke="none"/>
    </g>
    <g id="font_Impact__1">
      <path d="M12.1 -8.1 L12.1 0.0 2.65 0.0 2.65 -8.1 12.1 -8.1 M12.9 -40.45 L11.25 -10.0 3.45 -10.0 1.8 -40.45 12.9 -40.45" fill-rule="evenodd" stroke="none"/>
    </g>
  </defs>
</svg>
