<?xml version="1.0" encoding="UTF-8" standalone="no"?>
<svg xmlns:xlink="http://www.w3.org/1999/xlink" height="1.0px" width="14.0px" xmlns="http://www.w3.org/2000/svg">
  <g transform="matrix(1.0, 0.0, 0.0, 1.0, -1.0, 0.0)">
    <use height="18.3" transform="matrix(0.765, 0.0, 0.0, 0.0546, 1.0, 0.0)" width="18.3" xlink:href="#shape0"/>
    <use height="1.0" transform="matrix(1.0, 0.0, 0.0, 1.0, 1.0, 0.0)" width="14.0" xlink:href="#sprite0"/>
    <use height="1.0" transform="matrix(1.0, 0.0, 0.0, 1.0, 1.0, 0.0)" width="14.0" xlink:href="#shape2"/>
    <use height="1.0" transform="matrix(0.9286, 0.0, 0.0, 1.0, 1.0, 0.0)" width="14.0" xlink:href="#sprite0"/>
    <use height="18.3" transform="matrix(0.7104, 0.0, 0.0, 0.0546, 1.0, 0.0)" width="18.3" xlink:href="#shape0"/>
    <use height="1.0" transform="matrix(0.8571, 0.0, 0.0, 1.0, 1.0, 0.0)" width="14.0" xlink:href="#sprite0"/>
    <use height="1.0" transform="matrix(1.0, 0.0, 0.0, 1.0, 1.0, 0.0)" width="12.0" xlink:href="#shape3"/>
  </g>
  <defs>
    <g id="shape0" transform="matrix(1.0, 0.0, 0.0, 1.0, 0.0, 0.0)">
      <path d="M18.3 0.0 L18.3 18.3 0.0 18.3 0.0 0.0 18.3 0.0" fill="#cccccc" fill-rule="evenodd" stroke="none"/>
    </g>
    <g id="sprite0" transform="matrix(1.0, 0.0, 0.0, 1.0, 0.0, 0.0)">
      <use height="12.0" transform="matrix(1.1667, 0.0, 0.0, 0.0833, 0.0, 0.0)" width="12.0" xlink:href="#shape1"/>
    </g>
    <g id="shape1" transform="matrix(1.0, 0.0, 0.0, 1.0, 0.0, 0.0)">
      <path d="M12.0 12.0 L0.0 12.0 0.0 0.0 12.0 0.0 12.0 12.0" fill="#00ff00" fill-opacity="0.7490196" fill-rule="evenodd" stroke="none"/>
    </g>
    <g id="shape2" transform="matrix(1.0, 0.0, 0.0, 1.0, 0.0, 0.0)">
      <path d="M0.0 1.0 L0.0 0.0 14.0 0.0 14.0 1.0 0.0 1.0" fill="url(#gradient0)" fill-rule="evenodd" stroke="none"/>
    </g>
    <linearGradient gradientTransform="matrix(0.0068, 0.0, 0.0, 0.0016, 7.05, -0.25)" gradientUnits="userSpaceOnUse" id="gradient0" spreadMethod="pad" x1="-819.2" x2="819.2">
      <stop offset="0.0" stop-color="#ffffff" stop-opacity="0.2509804"/>
      <stop offset="1.0" stop-color="#2d2d2d" stop-opacity="0.3137255"/>
    </linearGradient>
    <g id="shape3" transform="matrix(1.0, 0.0, 0.0, 1.0, 0.0, 0.0)">
      <path d="M12.0 0.6 L12.0 1.0 0.0 1.0 0.0 0.0 12.0 0.0 12.0 0.6" fill="url(#gradient1)" fill-rule="evenodd" stroke="none"/>
    </g>
    <linearGradient gradientTransform="matrix(-0.0068, 0.0, 0.0, -0.0012, 6.3, 0.0)" gradientUnits="userSpaceOnUse" id="gradient1" spreadMethod="pad" x1="-819.2" x2="819.2">
      <stop offset="0.16470588235294117" stop-color="#ffffff" stop-opacity="0.49803922"/>
      <stop offset="0.6705882352941176" stop-color="#ffffff" stop-opacity="0.0"/>
      <stop offset="1.0" stop-color="#2d2d2d" stop-opacity="0.09803922"/>
    </linearGradient>
  </defs>
</svg>
