<?xml version="1.0" encoding="UTF-8" standalone="no"?>
<svg xmlns:xlink="http://www.w3.org/1999/xlink" height="76.4px" width="142.15px" xmlns="http://www.w3.org/2000/svg">
  <g transform="matrix(1.0, 0.0, 0.0, 1.0, 76.05, 41.2)">
    <use height="8.55" transform="matrix(2.3845, -0.2717, 0.2717, 2.3845, -69.2503, -19.7503)" width="13.55" xlink:href="#shape0"/>
    <use height="1.85" transform="matrix(2.3846, -0.2717, 0.2717, 2.3846, 58.2094, -0.325)" width="3.1" xlink:href="#shape1"/>
    <use height="16.05" transform="matrix(2.3868, -0.2509, 0.2509, 2.3868, -34.9742, -33.8183)" width="29.35" xlink:href="#shape2"/>
    <use height="8.9" transform="matrix(2.3846, -0.2717, 0.2717, 2.3846, -22.9162, 8.2945)" width="32.8" xlink:href="#shape3"/>
    <use height="8.9" transform="matrix(2.3846, -0.2717, 0.2717, 2.3846, -76.0626, 13.9697)" width="19.05" xlink:href="#shape4"/>
  </g>
  <defs>
    <g id="shape0" transform="matrix(1.0, 0.0, 0.0, 1.0, 6.75, 4.25)">
      <path d="M1.05 -1.8 Q1.0 -3.1 0.15 -3.0 L-0.1 -3.0 -0.1 -0.6 0.25 -0.6 Q1.05 -0.75 1.05 -1.8 M2.6 -1.8 Q2.65 -0.55 1.65 0.25 L2.6 4.3 1.05 4.3 0.3 0.65 -0.1 0.65 -0.1 4.3 -1.65 4.3 -1.65 -4.25 0.1 -4.25 Q2.45 -4.4 2.6 -1.8 M6.75 -4.25 L6.75 -2.9 4.75 -2.9 4.75 -0.75 6.2 -0.75 6.2 0.65 4.75 0.65 4.75 3.0 6.8 3.0 6.8 4.3 3.2 4.3 3.2 -4.25 6.75 -4.25 M-3.3 -4.25 L-2.25 4.3 -3.75 4.3 -3.95 2.4 -5.2 2.4 -5.45 4.3 -6.75 4.3 -5.55 -4.25 -3.3 -4.25 M-4.1 1.15 L-4.55 -2.9 -5.05 1.15 -4.1 1.15" fill="#ffffff" fill-opacity="0.7490196" fill-rule="evenodd" stroke="none"/>
    </g>
    <g id="shape1" transform="matrix(1.0, 0.0, 0.0, 1.0, 1.55, 0.9)">
      <path d="M-0.3 -0.5 L-0.65 -0.35 -0.9 -0.55 -1.05 -0.4 -0.65 -0.15 Q-0.3 -0.05 -0.25 0.35 -0.3 0.95 -0.9 0.95 L-1.55 0.5 -1.15 0.35 -0.85 0.6 -0.65 0.45 -1.05 0.15 Q-1.4 0.1 -1.45 -0.4 -1.4 -0.85 -0.9 -0.9 -0.4 -0.85 -0.3 -0.5" fill="#ffffff" fill-opacity="0.7490196" fill-rule="evenodd" stroke="none"/>
      <path d="M1.05 -0.35 L0.75 0.95 0.5 0.95 0.2 -0.4 0.2 0.95 -0.15 0.95 -0.15 -0.85 0.5 -0.85 0.7 0.15 0.9 -0.85 1.55 -0.85 1.55 0.95 1.1 0.95 1.1 -0.35 1.05 -0.35" fill="#ffffff" fill-opacity="0.7490196" fill-rule="evenodd" stroke="none"/>
    </g>
    <g id="shape2" transform="matrix(1.0, 0.0, 0.0, 1.0, 14.65, 8.0)">
      <path d="M4.95 -0.4 Q5.35 2.15 4.5 4.25 3.65 6.4 0.85 6.85 -1.95 7.15 -3.3 5.3 -4.65 3.45 -4.95 0.9 -5.3 -1.6 -4.5 -3.75 -3.65 -5.85 -0.85 -6.35 1.95 -6.6 3.3 -4.75 4.65 -2.95 4.95 -0.4 M13.5 -8.0 L14.65 0.7 Q15.1 5.0 10.85 5.55 6.55 6.0 6.05 1.8 L4.9 -6.85 8.1 -7.3 9.3 1.55 Q9.4 3.15 10.9 3.15 12.35 2.7 12.0 1.0 L10.85 -7.65 13.5 -8.0 M1.5 0.05 Q1.3 -1.85 0.9 -2.95 0.5 -4.1 -0.55 -4.0 -1.6 -3.8 -1.7 -2.65 L-1.5 0.45 -0.9 3.5 Q-0.5 4.6 0.55 4.5 1.6 4.35 1.7 3.15 1.8 1.95 1.5 0.05 M-11.3 -4.7 L-8.95 0.1 -7.6 -5.15 -4.75 -5.55 -7.25 2.5 -6.6 7.65 -9.8 8.05 -10.45 3.1 -14.65 -4.25 -11.3 -4.7" fill="#ffffff" fill-opacity="0.7490196" fill-rule="evenodd" stroke="none"/>
    </g>
    <g id="shape3" transform="matrix(1.0, 0.0, 0.0, 1.0, 16.4, 4.45)">
      <path d="M1.95 -4.3 L1.95 2.1 Q1.9 4.55 -0.05 4.4 -1.95 4.55 -2.05 2.1 L-2.05 -4.3 -0.5 -4.3 -0.5 2.3 Q-0.55 3.0 0.05 3.1 0.65 3.0 0.65 2.3 L0.65 -4.3 1.95 -4.3 M4.55 -2.6 Q4.35 -2.0 4.35 0.0 4.35 2.05 4.55 2.6 4.75 3.2 5.1 3.1 L5.65 2.5 5.7 1.55 5.15 1.55 5.15 0.3 7.05 0.3 7.05 4.25 6.4 4.25 6.15 3.7 Q5.8 4.35 4.95 4.45 2.55 4.35 2.7 0.0 2.9 -4.65 4.95 -4.45 5.7 -4.5 6.35 -3.9 6.95 -3.35 7.0 -1.75 L7.0 -1.2 5.6 -1.2 5.55 -2.3 Q5.5 -3.05 5.0 -3.1 4.7 -3.2 4.55 -2.6 M9.35 -4.3 L9.35 -0.85 10.35 -0.85 10.35 -4.3 11.9 -4.3 11.9 4.25 10.35 4.25 10.35 0.65 9.35 0.65 9.35 4.25 7.8 4.25 7.8 -4.3 9.35 -4.3 M14.45 -3.3 Q13.8 -3.25 13.8 -1.9 L12.65 -2.0 Q12.55 -4.15 14.55 -4.4 16.25 -4.3 16.4 -2.6 16.35 -1.45 15.8 -0.75 15.3 -0.05 15.2 1.5 L15.2 1.7 13.95 1.7 13.95 1.25 Q14.05 -0.3 14.45 -0.95 14.95 -1.6 15.0 -2.4 15.05 -3.25 14.45 -3.3 M15.35 4.25 L13.8 4.25 13.8 2.7 15.35 2.7 15.35 4.25 M-12.85 -4.3 L-12.85 -2.95 -14.85 -2.95 -14.85 -0.8 -13.4 -0.8 -13.4 0.6 -14.85 0.6 -14.85 2.95 -12.8 2.95 -12.8 4.25 -16.4 4.25 -16.4 -4.3 -12.85 -4.3 M-10.7 -4.3 L-9.3 0.2 -9.25 0.2 -9.25 -4.3 -8.0 -4.3 -8.0 4.25 -9.25 4.25 -10.9 -0.9 -10.9 4.25 -12.25 4.25 -12.25 -4.3 -10.7 -4.3 M-4.6 -2.7 L-5.0 -3.1 Q-5.55 -3.4 -5.6 -0.9 L-5.6 0.9 Q-5.55 3.4 -5.0 3.1 -4.45 3.4 -4.45 0.9 L-4.45 -0.9 Q-4.45 -2.25 -4.6 -2.7 M-5.0 -4.45 Q-3.95 -4.5 -3.35 -3.5 -2.75 -2.5 -2.75 0.0 -2.75 2.5 -3.35 3.5 -3.95 4.5 -5.0 4.45 -6.05 4.5 -6.65 3.5 -7.25 2.5 -7.3 0.0 -7.25 -2.5 -6.65 -3.5 -6.05 -4.5 -5.0 -4.45" fill="#ffffff" fill-opacity="0.7490196" fill-rule="evenodd" stroke="none"/>
    </g>
    <g id="shape4" transform="matrix(1.0, 0.0, 0.0, 1.0, 9.5, 4.45)">
      <path d="M1.7 -0.9 L1.7 0.9 Q1.75 3.4 2.3 3.1 2.85 3.4 2.85 0.9 L2.7 -2.7 2.3 -3.1 Q1.75 -3.4 1.7 -0.9 M2.3 -4.45 Q3.35 -4.5 3.95 -3.5 4.55 -2.5 4.55 0.0 4.55 2.5 3.95 3.5 3.35 4.5 2.3 4.45 1.25 4.5 0.65 3.5 0.05 2.5 0.0 0.0 0.05 -2.5 0.65 -3.5 1.25 -4.5 2.3 -4.45 M6.85 -4.3 L8.25 0.2 8.3 0.2 8.3 -4.3 9.55 -4.3 9.55 4.25 8.3 4.25 6.65 -0.9 6.65 4.25 5.3 4.25 5.3 -4.3 6.85 -4.3 M-6.6 -2.95 L-6.6 4.25 -8.15 4.25 -8.15 -2.95 -9.5 -2.95 -9.5 -4.3 -5.25 -4.3 -5.25 -2.95 -6.6 -2.95 M-2.4 -2.7 L-2.8 -3.1 Q-3.35 -3.4 -3.4 -0.9 L-3.4 0.9 Q-3.35 3.4 -2.8 3.1 -2.25 3.4 -2.25 0.9 L-2.25 -0.9 Q-2.25 -2.25 -2.4 -2.7 M-2.8 -4.45 Q-1.75 -4.5 -1.15 -3.5 -0.55 -2.5 -0.55 0.0 -0.55 2.5 -1.15 3.5 -1.75 4.5 -2.8 4.45 -3.85 4.5 -4.45 3.5 -5.05 2.5 -5.1 0.0 -5.05 -2.5 -4.45 -3.5 -3.85 -4.5 -2.8 -4.45" fill="#ffffff" fill-opacity="0.7490196" fill-rule="evenodd" stroke="none"/>
    </g>
  </defs>
</svg>
