<?xml version="1.0" encoding="UTF-8" standalone="no"?>
<svg xmlns:xlink="http://www.w3.org/1999/xlink" height="22.4px" width="34.4px" xmlns="http://www.w3.org/2000/svg">
  <g transform="matrix(1.0, 0.0, 0.0, 1.0, 17.2, 11.2)">
    <use height="22.4" transform="matrix(1.0, 0.0, 0.0, 1.0, -17.2, -11.2)" width="34.4" xlink:href="#shape0"/>
  </g>
  <defs>
    <g id="shape0" transform="matrix(1.0, 0.0, 0.0, 1.0, 17.2, 11.2)">
      <path d="M-11.8 8.6 Q-6.85 11.2 0.95 11.2 8.6 11.2 12.45 8.9 16.85 6.25 17.2 0.05 17.45 -4.4 12.3 -7.8 7.15 -11.2 0.05 -11.2 -7.5 -11.2 -12.05 -8.5 -17.0 -5.5 -17.2 0.05 -17.35 5.6 -11.8 8.6" fill="url(#gradient0)" fill-rule="evenodd" stroke="none"/>
      <path d="M0.95 -2.7 Q0.95 -3.95 2.2 -4.8 3.45 -5.7 5.2 -5.7 6.95 -5.7 8.2 -4.8 9.45 -3.95 9.45 -2.7 9.45 -1.45 8.2 -0.55 6.95 0.3 5.2 0.3 3.45 0.3 2.2 -0.55 0.95 -1.45 0.95 -2.7 M4.4 -2.9 L4.55 -2.5 5.0 -2.35 Q6.05 -2.1 6.35 -3.1 L6.3 -3.15 5.95 -3.65 5.6 -3.8 Q4.85 -3.8 4.4 -3.2 L4.4 -2.9" fill="url(#gradient1)" fill-rule="evenodd" stroke="none"/>
      <path d="M4.4 -2.9 L4.4 -3.2 Q4.85 -3.8 5.6 -3.8 L5.95 -3.65 6.3 -3.15 6.35 -3.1 Q6.05 -2.1 5.0 -2.35 L4.55 -2.5 4.4 -2.9" fill="#ffffff" fill-rule="evenodd" stroke="none"/>
    </g>
    <radialGradient cx="0" cy="0" gradientTransform="matrix(0.022, 0.0, 0.0, 0.022, 0.65, -2.1)" gradientUnits="userSpaceOnUse" id="gradient0" r="819.2" spreadMethod="pad">
      <stop offset="0.0" stop-color="#202020"/>
      <stop offset="0.7843137254901961" stop-color="#0a0a0a"/>
      <stop offset="1.0" stop-color="#0a0a0a"/>
    </radialGradient>
    <radialGradient cx="0" cy="0" gradientTransform="matrix(0.0052, 0.0, 0.0, 0.0052, 5.2, -2.7)" gradientUnits="userSpaceOnUse" id="gradient1" r="819.2" spreadMethod="pad">
      <stop offset="0.0" stop-color="#5d5d5d"/>
      <stop offset="0.37254901960784315" stop-color="#5d5d5d"/>
      <stop offset="1.0" stop-color="#202020"/>
    </radialGradient>
  </defs>
</svg>
