<?xml version="1.0" encoding="UTF-8" standalone="no"?>
<svg xmlns:xlink="http://www.w3.org/1999/xlink" height="17.25px" width="14.9px" xmlns="http://www.w3.org/2000/svg">
  <g transform="matrix(1.0, 0.0, 0.0, 1.0, 7.45, 8.6)">
    <use height="17.25" transform="matrix(1.0, 0.0, 0.0, 1.0, -7.45, -8.6)" width="14.9" xlink:href="#shape0"/>
  </g>
  <defs>
    <g id="shape0" transform="matrix(1.0, 0.0, 0.0, 1.0, 7.45, 8.6)">
      <path d="M-7.45 7.55 Q-7.45 6.0 -6.5 4.65 -5.15 2.85 -2.95 2.35 L-2.7 2.25 Q-0.7 2.25 0.65 3.5 0.2 2.55 0.2 1.35 L0.25 -1.6 Q0.2 -4.7 1.5 -7.5 L1.55 -7.75 2.0 -8.45 2.1 -8.55 2.15 -8.6 2.2 -8.6 2.25 -8.55 2.3 -8.5 4.6 -6.45 4.65 -6.4 Q6.2 -5.4 7.35 -3.95 L7.4 -3.85 7.45 -3.75 7.4 -3.7 7.35 -3.65 5.55 -1.65 Q4.8 -0.4 4.55 1.2 4.1 3.9 4.45 6.65 L4.6 7.15 4.7 7.4 4.7 7.5 4.65 7.55 4.55 7.6 4.5 7.65 4.45 7.55 4.4 7.5 4.25 7.6 3.4 8.0 -3.15 8.55 -4.25 8.45 -5.1 8.3 -5.2 8.3 -5.35 8.3 -5.4 8.25 -5.4 8.2 -6.7 7.85 -6.8 7.85 -6.8 7.8 -7.3 7.65 -7.35 7.65 -7.45 7.65 -7.45 7.6 -7.45 7.55 M2.25 7.8 L4.25 7.2 Q3.8 6.3 3.85 5.2 3.9 2.25 4.65 -0.5 4.95 -1.5 5.55 -2.35 L6.2 -3.25 6.8 -3.75 7.0 -3.85 6.35 -4.5 5.35 -5.45 4.7 -5.95 4.65 -6.0 Q3.3 -7.0 2.2 -8.2 1.2 -6.15 0.85 -3.9 L0.75 -3.0 0.6 -0.85 0.6 -0.75 0.6 -0.7 0.65 0.4 Q0.7 2.0 1.05 3.55 L1.15 3.8 1.2 3.9 1.2 3.95 1.15 4.05 1.2 4.1 1.25 4.15 1.25 4.2 1.25 4.25 1.2 4.25 1.1 4.3 1.0 4.35 Q-0.5 2.65 -2.7 2.75 -3.55 2.8 -4.3 3.2 L-4.75 3.5 Q-6.05 4.3 -6.7 5.7 L-7.2 7.2 -7.25 7.35 -6.85 7.45 -6.8 7.5 -6.75 7.1 -6.35 6.05 -5.75 5.15 -5.35 4.8 -5.3 4.7 -5.65 5.3 -5.75 5.35 -5.75 5.4 -6.55 7.55 -5.4 7.85 -5.3 7.85 -5.05 7.0 -4.95 6.85 Q-4.6 6.1 -3.85 5.55 L-3.8 5.55 -3.65 5.4 Q-3.6 5.75 -4.0 6.15 L-4.75 7.2 -5.0 7.9 -0.95 8.2 2.0 7.85 2.25 7.8" fill="#000000" fill-rule="evenodd" stroke="none"/>
      <path d="M-4.0 6.15 Q-3.6 5.75 -3.65 5.4 L-3.8 5.55 -3.8 5.5 -3.85 5.55 Q-4.6 6.1 -4.95 6.85 L-5.05 7.0 -5.15 7.2 Q-6.1 7.8 -6.15 7.35 -6.25 6.9 -5.65 5.3 L-5.3 4.7 -5.35 4.8 -5.3 4.7 -5.6 4.95 -5.75 5.15 -6.35 6.05 -6.65 6.0 -7.0 6.7 Q-6.1 4.5 -4.75 3.5 L-4.3 3.2 Q-3.55 2.8 -2.7 2.75 -0.5 2.65 1.0 4.35 L1.1 4.3 1.2 4.25 1.25 4.3 1.25 4.25 1.25 4.2 1.25 4.15 1.2 4.1 1.2 3.95 1.2 3.9 1.15 3.8 Q0.75 2.05 0.65 0.4 L0.6 -0.7 0.6 -0.75 Q0.65 -0.55 1.4 -0.2 L3.2 0.4 Q2.9 1.75 3.05 6.2 1.25 7.4 -1.45 7.75 -4.35 8.15 -4.0 6.15 M0.85 -3.9 Q1.2 -6.15 2.2 -8.2 3.3 -7.0 4.65 -6.0 L4.7 -5.95 5.35 -5.45 6.35 -4.5 7.0 -3.85 6.8 -3.75 0.85 -3.9" fill="#d885fd" fill-rule="evenodd" stroke="none"/>
      <path d="M6.8 -3.75 L6.2 -3.25 5.55 -2.35 Q4.95 -1.5 4.65 -0.5 3.9 2.25 3.85 5.2 3.8 6.3 4.25 7.2 L2.25 7.8 -0.95 8.2 -5.0 7.9 -4.75 7.2 -4.0 6.15 Q-4.35 8.15 -1.45 7.75 1.25 7.4 3.05 6.2 2.9 1.75 3.2 0.4 L1.4 -0.2 Q0.65 -0.55 0.6 -0.75 L0.6 -0.85 0.75 -3.0 0.85 -3.9 6.8 -3.75 M-3.8 5.55 L-3.85 5.55 -3.8 5.5 -3.8 5.55 M-5.4 7.85 L-6.55 7.55 -5.75 5.4 -5.75 5.35 -5.65 5.3 Q-6.25 6.9 -6.15 7.35 -6.1 7.8 -5.15 7.2 L-5.4 7.85 M-6.35 6.05 L-6.75 7.1 -6.85 7.45 -7.25 7.35 -7.2 7.2 -7.0 6.7 -6.65 6.0 -6.35 6.05" fill="#ce66f9" fill-rule="evenodd" stroke="none"/>
      <path d="M5.55 -1.65 Q3.8 1.6 4.6 7.15 L4.45 6.65 Q4.1 3.9 4.55 1.2 4.8 -0.4 5.55 -1.65 M4.45 7.55 L4.25 7.6 4.4 7.5 4.45 7.55 M-4.25 8.45 L-5.2 8.3 -5.1 8.3 -4.25 8.45 M-5.35 8.3 L-7.35 7.65 -7.3 7.65 -6.8 7.8 -6.8 7.85 -6.7 7.85 -5.4 8.2 -5.4 8.25 -5.35 8.3 M-7.45 7.6 L-7.45 7.55 -7.45 7.6 M2.25 7.8 L2.0 7.85 -0.95 8.2 2.25 7.8 M-5.05 7.0 L-5.3 7.85 -5.4 7.85 -5.15 7.2 -5.05 7.0 M-5.35 4.8 L-5.75 5.15 -5.6 4.95 -5.3 4.7 -5.35 4.8 M-6.75 7.1 L-6.8 7.5 -6.85 7.45 -6.75 7.1 M-7.2 7.2 L-6.7 5.7 Q-6.05 4.3 -4.75 3.5 -6.1 4.5 -7.0 6.7 L-7.2 7.2 M1.2 4.25 L1.25 4.25 1.25 4.3 1.2 4.25 M1.2 4.1 L1.15 4.05 1.2 3.95 1.2 4.1 M1.15 3.8 L1.05 3.55 Q0.7 2.0 0.65 0.4 0.75 2.05 1.15 3.8" fill="#550022" fill-rule="evenodd" stroke="none"/>
    </g>
  </defs>
</svg>
