<?xml version="1.0" encoding="UTF-8" standalone="no"?>
<svg xmlns:xlink="http://www.w3.org/1999/xlink" height="90.15px" width="85.15px" xmlns="http://www.w3.org/2000/svg">
  <g transform="matrix(1.0, 0.0, 0.0, 1.0, 39.95, 40.25)">
    <use height="74.15" transform="matrix(0.697, 0.0, 0.0, 0.6935, -24.0518, -24.0151)" width="69.35" xlink:href="#shape0"/>
    <use height="57.85" transform="matrix(0.5863, 0.0, 0.0, 0.5863, -14.6861, -16.9433)" width="50.1" xlink:href="#shape1"/>
  </g>
  <defs>
    <g id="shape0" transform="matrix(1.0, 0.0, 0.0, 1.0, 34.65, 40.25)">
      <path d="M24.8 -28.25 Q25.7 -27.45 26.2 -26.35 26.65 -25.4 26.65 -24.3 26.65 -20.55 27.55 -16.85 28.35 -13.7 31.25 -12.35 L33.5 -11.1 Q34.5 -10.4 34.65 -9.35 34.9 -7.1 33.85 -5.25 L31.75 -1.2 Q31.05 0.2 30.85 1.7 30.45 5.2 30.55 8.8 30.7 12.55 29.8 16.2 28.75 20.2 25.25 22.35 L23.95 22.65 16.05 24.05 Q13.0 24.7 11.2 27.1 L6.8 33.05 6.1 33.75 3.75 33.9 -4.0 29.35 Q-5.15 28.75 -6.4 28.5 L-11.8 28.1 Q-13.05 28.1 -13.7 27.05 L-17.35 21.65 -18.55 20.35 Q-19.3 19.75 -20.2 19.4 -22.8 18.45 -25.75 18.9 L-30.45 18.35 Q-31.3 18.15 -31.95 17.6 -33.0 16.65 -33.35 15.2 -33.8 13.1 -33.3 11.2 L-31.85 6.25 Q-31.3 4.35 -31.05 2.4 -30.95 1.4 -31.3 0.45 -32.45 -2.65 -33.95 -5.75 -34.75 -7.35 -34.65 -9.0 -34.45 -11.35 -33.1 -13.2 L-30.05 -17.35 -29.05 -19.2 Q-28.85 -19.6 -28.95 -20.0 -29.5 -22.85 -28.95 -25.6 L-28.2 -27.7 -27.25 -28.75 -25.0 -29.8 Q-23.3 -30.6 -18.8 -23.8 -17.7 -26.5 -16.05 -28.75 -15.5 -29.5 -14.45 -29.8 -12.55 -29.95 -11.3 -31.15 -10.7 -31.7 -10.6 -32.55 -10.35 -34.75 -9.3 -36.75 -8.15 -38.95 -5.7 -39.8 -2.8 -40.65 0.0 -39.85 4.15 -38.55 5.95 -34.55 L7.75 -30.65 Q8.1 -29.85 8.6 -29.1 L9.8 -29.05 12.05 -29.5 17.9 -30.6 Q20.25 -31.05 22.5 -30.0 L24.8 -28.25" fill="#8a4c2c" fill-rule="evenodd" stroke="none"/>
    </g>
    <g id="shape1" transform="matrix(1.0, 0.0, 0.0, 1.0, 25.05, 28.9)">
      <path d="M0.0 -21.1 L19.4 -10.55 19.4 10.55 0.0 21.1 -19.35 10.55 -19.35 -10.55 0.0 -21.1" fill="#666360" fill-rule="evenodd" stroke="none"/>
      <path d="M0.0 -25.7 L22.25 -12.85 22.25 12.85 0.0 25.7 -22.25 12.85 -22.25 -12.85 0.0 -25.7 M0.0 -21.1 L-19.35 -10.55 -19.35 10.55 0.0 21.1 19.4 10.55 19.4 -10.55 0.0 -21.1" fill="#54504e" fill-rule="evenodd" stroke="none"/>
      <path d="M0.0 -25.7 L-22.25 -12.85 -22.25 12.85 0.0 25.7 22.25 12.85 22.25 -12.85 0.0 -25.7 M0.0 -28.9 L25.05 -14.45 25.05 14.5 0.0 28.95 -25.05 14.5 -25.05 -14.45 0.0 -28.9" fill="#454240" fill-rule="evenodd" stroke="none"/>
    </g>
  </defs>
</svg>
