<?xml version="1.0" encoding="UTF-8" standalone="no"?>
<svg xmlns:xlink="http://www.w3.org/1999/xlink" height="90.15px" width="85.15px" xmlns="http://www.w3.org/2000/svg">
  <g transform="matrix(1.0, 0.0, 0.0, 1.0, 39.95, 40.25)">
    <use height="74.15" transform="matrix(0.5314, 0.0, 0.0, 0.6205, -18.1131, -16.7245)" width="69.35" xlink:href="#shape0"/>
    <use height="9.2" transform="matrix(0.9957, 0.074, -0.074, 0.9957, 7.5426, 40.3567)" width="4.9" xlink:href="#shape1"/>
    <use height="9.2" transform="matrix(0.97, -0.2297, 0.2297, 0.97, 27.5324, 31.4902)" width="4.9" xlink:href="#shape1"/>
    <use height="9.2" transform="matrix(0.8822, -0.4571, 0.4036, 0.779, 37.143, 6.4501)" width="4.9" xlink:href="#shape1"/>
    <use height="9.2" transform="matrix(0.811, 0.5705, -0.5705, 0.811, -34.7168, -4.8544)" width="4.9" xlink:href="#shape1"/>
    <use height="9.2" transform="matrix(0.9791, 0.1472, -0.1472, 0.9791, -29.5416, 28.4202)" width="4.9" xlink:href="#shape1"/>
    <use height="9.2" transform="matrix(-0.0912, 0.9864, -0.9864, -0.0912, -15.0607, -25.2596)" width="4.9" xlink:href="#shape1"/>
    <use height="72.4" transform="matrix(0.436, 0.0, 0.0, 0.436, -16.8092, -8.2845)" width="77.2" xlink:href="#shape2"/>
  </g>
  <defs>
    <g id="shape0" transform="matrix(1.0, 0.0, 0.0, 1.0, 34.65, 40.25)">
      <path d="M24.8 -28.25 Q25.7 -27.45 26.2 -26.35 26.65 -25.4 26.65 -24.3 26.65 -20.55 27.55 -16.85 28.35 -13.7 31.25 -12.35 L33.5 -11.1 Q34.5 -10.4 34.65 -9.35 34.9 -7.1 33.85 -5.25 L31.75 -1.2 Q31.05 0.2 30.85 1.7 30.45 5.2 30.55 8.8 30.7 12.55 29.8 16.2 28.75 20.2 25.25 22.35 L23.95 22.65 16.05 24.05 Q13.0 24.7 11.2 27.1 L6.8 33.05 6.1 33.75 3.75 33.9 -4.0 29.35 Q-5.15 28.75 -6.4 28.5 L-11.8 28.1 Q-13.05 28.1 -13.7 27.05 L-17.35 21.65 -18.55 20.35 Q-19.3 19.75 -20.2 19.4 -22.8 18.45 -25.75 18.9 L-30.45 18.35 Q-31.3 18.15 -31.95 17.6 -33.0 16.65 -33.35 15.2 -33.8 13.1 -33.3 11.2 L-31.85 6.25 Q-31.3 4.35 -31.05 2.4 -30.95 1.4 -31.3 0.45 -32.45 -2.65 -33.95 -5.75 -34.75 -7.35 -34.65 -9.0 -34.45 -11.35 -33.1 -13.2 L-30.05 -17.35 -29.05 -19.2 Q-28.85 -19.6 -28.95 -20.0 -29.5 -22.85 -28.95 -25.6 L-28.2 -27.7 -27.25 -28.75 -25.0 -29.8 Q-23.3 -30.6 -18.8 -23.8 -17.7 -26.5 -16.05 -28.75 -15.5 -29.5 -14.45 -29.8 -12.55 -29.95 -11.3 -31.15 -10.7 -31.7 -10.6 -32.55 -10.35 -34.75 -9.3 -36.75 -8.15 -38.95 -5.7 -39.8 -2.8 -40.65 0.0 -39.85 4.15 -38.55 5.95 -34.55 L7.75 -30.65 Q8.1 -29.85 8.6 -29.1 L9.8 -29.05 12.05 -29.5 17.9 -30.6 Q20.25 -31.05 22.5 -30.0 L24.8 -28.25" fill="#8a4c2c" fill-rule="evenodd" stroke="none"/>
    </g>
    <g id="shape1" transform="matrix(1.0, 0.0, 0.0, 1.0, 2.2, 4.5)">
      <path d="M0.15 -4.3 Q0.95 -3.55 2.15 -0.6 3.3 2.35 2.15 3.7 0.65 5.3 -0.55 4.4 L-2.2 3.0 Q-2.3 -0.3 -1.45 -2.7 -0.65 -5.1 0.15 -4.3" fill="#8a4c2c" fill-rule="evenodd" stroke="none"/>
    </g>
    <g id="shape2" transform="matrix(1.0, 0.0, 0.0, 1.0, 38.55, 36.2)">
      <path d="M-17.6 32.1 L-20.95 29.5 -23.4 27.25 Q-31.35 20.4 -37.05 11.9 -38.35 9.95 -38.55 7.8 L-38.45 6.05 Q-37.8 2.7 -36.65 -0.55 -33.5 -9.35 -29.2 -17.85 -26.8 -22.6 -23.1 -26.5 L-21.05 -28.05 Q-17.85 -29.85 -14.3 -30.95 -4.0 -34.3 6.75 -35.8 11.75 -36.75 16.45 -35.3 17.3 -35.1 17.95 -34.3 18.25 -33.85 18.0 -33.65 L-19.9 -24.3 -36.0 11.95 -17.6 32.1" fill="#8a4c2c" fill-rule="evenodd" stroke="none"/>
      <path d="M31.8 -4.8 L32.85 -3.4 32.0 -1.55 20.15 22.3 -7.45 29.95 -24.25 11.5 -11.75 -16.1 17.75 -23.55 31.8 -4.8" fill="#666360" fill-rule="evenodd" stroke="none"/>
      <path d="M32.0 -1.55 L32.9 -3.4 31.8 -4.8 17.75 -23.55 -11.75 -16.1 -24.25 11.5 -7.45 29.95 20.15 22.3 32.0 -1.55 M18.25 -29.55 L36.25 -6.05 21.35 24.2 -11.3 33.35 -31.15 11.5 -16.55 -21.15 18.25 -29.55" fill="#54504e" fill-rule="evenodd" stroke="none"/>
      <path d="M18.0 -33.65 L18.7 -33.65 38.65 -7.75 22.1 26.1 -13.9 36.2 -17.6 32.1 -36.0 11.95 -19.9 -24.3 18.0 -33.65 M18.25 -29.55 L-16.55 -21.15 -31.15 11.5 -11.3 33.35 21.35 24.2 36.25 -6.05 18.25 -29.55" fill="#454240" fill-rule="evenodd" stroke="none"/>
    </g>
  </defs>
</svg>
