<?xml version="1.0" encoding="UTF-8" standalone="no"?>
<svg xmlns:xlink="http://www.w3.org/1999/xlink" height="177.0px" width="273.3px" xmlns="http://www.w3.org/2000/svg">
  <g transform="matrix(1.0, 0.0, 0.0, 1.0, 136.15, 88.5)">
    <use height="24.85" transform="matrix(0.375, 0.0, 0.0, 0.375, -136.1375, -30.2875)" width="36.8" xlink:href="#shape0"/>
    <use height="24.85" transform="matrix(0.75, 0.0, 0.0, 0.75, -110.475, -44.575)" width="36.8" xlink:href="#shape0"/>
    <use height="155.0" transform="matrix(1.1766, 0.0, 0.0, 1.142, -100.6166, -88.481)" width="202.1" xlink:href="#shape1"/>
    <use height="79.35" transform="matrix(-1.0, 0.0, 0.0, 1.0, 100.6, -49.1)" width="193.65" xlink:href="#text0"/>
  </g>
  <defs>
    <g id="shape0" transform="matrix(1.0, 0.0, 0.0, 1.0, 18.5, 12.1)">
      <path d="M12.55 -8.1 Q17.8 -4.6 17.8 0.3 17.8 5.25 12.55 8.75 7.3 12.25 -0.1 12.25 -7.5 12.25 -12.75 8.75 -18.0 5.25 -18.0 0.3 -18.0 -4.6 -12.75 -8.1 -9.15 -10.5 -4.55 -11.25 L-0.1 -11.6 4.4 -11.25 Q8.95 -10.5 12.55 -8.1" fill="#ffffff" fill-rule="evenodd" stroke="none"/>
      <path d="M12.55 -8.1 Q17.8 -4.6 17.8 0.3 17.8 5.25 12.55 8.75 7.3 12.25 -0.1 12.25 -7.5 12.25 -12.75 8.75 -18.0 5.25 -18.0 0.3 -18.0 -4.6 -12.75 -8.1 -9.15 -10.5 -4.55 -11.25 L-0.1 -11.6 4.4 -11.25 Q8.95 -10.5 12.55 -8.1 Z" fill="none" stroke="#000000" stroke-linecap="round" stroke-linejoin="round" stroke-width="1.0"/>
    </g>
    <g id="shape1" transform="matrix(1.0, 0.0, 0.0, 1.0, 102.6, 76.3)">
      <path d="M85.8 18.25 Q97.4 8.55 97.4 -5.1 97.4 -18.8 85.8 -28.55 78.1 -35.05 68.25 -37.2 L67.8 -37.45 67.55 -37.9 Q65.7 -44.05 59.8 -48.85 51.15 -55.8 38.9 -55.8 L34.1 -55.5 33.45 -55.65 33.0 -56.15 Q30.85 -62.4 25.0 -67.3 15.75 -75.0 2.7 -75.0 -10.4 -75.0 -19.65 -67.3 L-22.5 -64.6 -22.85 -64.35 -23.35 -64.35 -31.4 -64.95 Q-46.2 -64.95 -56.7 -57.05 -66.35 -49.8 -66.95 -39.75 L-67.25 -39.15 Q-67.5 -38.9 -67.85 -38.8 -80.0 -37.4 -89.15 -30.0 -100.35 -20.9 -100.35 -8.05 -100.35 4.8 -89.15 13.9 -86.15 16.35 -82.8 18.15 L-82.45 18.45 -82.3 19.0 Q-82.3 19.25 -82.45 19.5 -86.2 25.85 -86.2 33.65 -86.2 46.15 -76.45 55.0 -66.6 63.9 -52.65 63.95 -45.1 63.95 -38.75 61.3 -38.4 61.15 -38.05 61.3 L-37.5 61.7 Q-35.2 65.6 -30.95 68.95 -21.3 76.45 -7.7 76.45 5.9 76.45 15.5 68.95 L15.55 68.95 Q20.05 65.4 22.45 61.2 L22.95 60.75 23.65 60.8 Q29.65 63.1 36.85 63.1 50.25 63.1 59.7 54.9 69.15 46.8 69.15 35.3 69.15 31.5 68.15 28.05 L68.1 27.55 68.4 27.1 68.85 26.85 Q78.35 24.55 85.8 18.25 M87.4 19.7 Q79.65 26.25 69.85 28.55 70.9 32.15 70.9 36.15 70.9 48.2 61.0 56.7 51.15 65.2 37.2 65.2 29.8 65.2 23.5 62.8 21.0 67.2 16.25 70.9 6.3 78.7 -7.85 78.7 -22.0 78.7 -32.0 70.9 -36.45 67.45 -38.9 63.35 -45.5 66.05 -53.35 66.05 -67.85 66.05 -78.1 56.8 -88.3 47.55 -88.3 34.45 -88.3 26.3 -84.35 19.65 -87.8 17.8 -90.9 15.3 -102.6 5.8 -102.6 -7.65 -102.6 -21.1 -90.9 -30.6 -81.45 -38.25 -68.85 -39.75 -68.25 -50.35 -58.05 -58.0 -47.2 -66.15 -31.85 -66.15 L-23.55 -65.5 -20.6 -68.3 Q-10.95 -76.3 2.65 -76.3 16.25 -76.3 25.85 -68.3 32.05 -63.15 34.3 -56.6 L39.3 -56.9 Q52.05 -56.9 61.05 -49.65 67.3 -44.6 69.2 -38.1 79.4 -35.85 87.4 -29.15 99.5 -19.0 99.5 -4.7 99.5 9.6 87.4 19.7" fill="#000000" fill-rule="evenodd" stroke="none"/>
      <path d="M85.8 18.25 Q78.35 24.55 68.85 26.85 L68.4 27.1 68.1 27.55 68.15 28.05 Q69.15 31.5 69.15 35.3 69.15 46.8 59.7 54.9 50.25 63.1 36.85 63.1 29.65 63.1 23.65 60.8 L22.95 60.75 22.45 61.2 Q20.05 65.4 15.55 68.95 L15.5 68.95 Q5.9 76.45 -7.7 76.45 -21.3 76.45 -30.95 68.95 -35.2 65.6 -37.5 61.7 L-38.05 61.3 Q-38.4 61.15 -38.75 61.3 -45.1 63.95 -52.65 63.95 -66.6 63.9 -76.45 55.0 -86.2 46.15 -86.2 33.65 -86.2 25.85 -82.45 19.5 -82.3 19.25 -82.3 19.0 L-82.45 18.45 -82.8 18.15 Q-86.15 16.35 -89.15 13.9 -100.35 4.8 -100.35 -8.05 -100.35 -20.9 -89.15 -30.0 -80.0 -37.4 -67.85 -38.8 -67.5 -38.9 -67.25 -39.15 L-66.95 -39.75 Q-66.35 -49.8 -56.7 -57.05 -46.2 -64.95 -31.4 -64.95 L-23.35 -64.35 -22.85 -64.35 -22.5 -64.6 -19.65 -67.3 Q-10.4 -75.0 2.7 -75.0 15.75 -75.0 25.0 -67.3 30.85 -62.4 33.0 -56.15 L33.45 -55.65 34.1 -55.5 38.9 -55.8 Q51.15 -55.8 59.8 -48.85 65.7 -44.05 67.55 -37.9 L67.8 -37.45 68.25 -37.2 Q78.1 -35.05 85.8 -28.55 97.4 -18.8 97.4 -5.1 97.4 8.55 85.8 18.25" fill="#ffffff" fill-rule="evenodd" stroke="none"/>
    </g>
    <g id="text0" transform="matrix(1.0, 0.0, 0.0, 1.0, 11.35, -4.65)">
      <g transform="matrix(1.0, 0.0, 0.0, 1.0, -16.2, 0.0)">
        <use fill="#000000" height="79.35" transform="matrix(0.4688, 0.0, 0.0, 0.4688, 23.45, 24.05)" width="193.65" xlink:href="#font_ComicBook_Normal_I0"/>
        <use fill="#000000" height="79.35" transform="matrix(0.4688, 0.0, 0.0, 0.4688, 40.45, 24.05)" width="193.65" xlink:href="#font_ComicBook_Normal_w0"/>
        <use fill="#000000" height="79.35" transform="matrix(0.4688, 0.0, 0.0, 0.4688, 64.85, 24.05)" width="193.65" xlink:href="#font_ComicBook_Normal_o0"/>
        <use fill="#000000" height="79.35" transform="matrix(0.4688, 0.0, 0.0, 0.4688, 85.25, 24.05)" width="193.65" xlink:href="#font_ComicBook_Normal_n0"/>
        <use fill="#000000" height="79.35" transform="matrix(0.4688, 0.0, 0.0, 0.4688, 100.3, 24.05)" width="193.65" xlink:href="#font_ComicBook_Normal_d0"/>
        <use fill="#000000" height="79.35" transform="matrix(0.4688, 0.0, 0.0, 0.4688, 119.55, 24.05)" width="193.65" xlink:href="#font_ComicBook_Normal_e0"/>
        <use fill="#000000" height="79.35" transform="matrix(0.4688, 0.0, 0.0, 0.4688, 136.25, 24.05)" width="193.65" xlink:href="#font_ComicBook_Normal_r0"/>
      </g>
      <g transform="matrix(1.0, 0.0, 0.0, 1.0, -16.2, 0.0)">
        <use fill="#000000" height="79.35" transform="matrix(0.4688, 0.0, 0.0, 0.4688, 0.05, 53.8)" width="193.65" xlink:href="#font_ComicBook_Normal_w0"/>
        <use fill="#000000" height="79.35" transform="matrix(0.4688, 0.0, 0.0, 0.4688, 24.45, 53.8)" width="193.65" xlink:href="#font_ComicBook_Normal_h0"/>
        <use fill="#000000" height="79.35" transform="matrix(0.4688, 0.0, 0.0, 0.4688, 41.05, 53.8)" width="193.65" xlink:href="#font_ComicBook_Normal_e0"/>
        <use fill="#000000" height="79.35" transform="matrix(0.4688, 0.0, 0.0, 0.4688, 57.75, 53.8)" width="193.65" xlink:href="#font_ComicBook_Normal_r0"/>
        <use fill="#000000" height="79.35" transform="matrix(0.4688, 0.0, 0.0, 0.4688, 74.45, 53.8)" width="193.65" xlink:href="#font_ComicBook_Normal_e0"/>
        <use fill="#000000" height="79.35" transform="matrix(0.4688, 0.0, 0.0, 0.4688, 100.5, 53.8)" width="193.65" xlink:href="#font_ComicBook_Normal_g0"/>
        <use fill="#000000" height="79.35" transform="matrix(0.4688, 0.0, 0.0, 0.4688, 121.85, 53.8)" width="193.65" xlink:href="#font_ComicBook_Normal_y0"/>
        <use fill="#000000" height="79.35" transform="matrix(0.4688, 0.0, 0.0, 0.4688, 139.2, 53.8)" width="193.65" xlink:href="#font_ComicBook_Normal_r0"/>
        <use fill="#000000" height="79.35" transform="matrix(0.4688, 0.0, 0.0, 0.4688, 155.9, 53.8)" width="193.65" xlink:href="#font_ComicBook_Normal_o0"/>
      </g>
      <g transform="matrix(1.0, 0.0, 0.0, 1.0, -16.2, 0.0)">
        <use fill="#000000" height="79.35" transform="matrix(0.4688, 0.0, 0.0, 0.4688, 14.05, 83.55)" width="193.65" xlink:href="#font_ComicBook_Normal_c0"/>
        <use fill="#000000" height="79.35" transform="matrix(0.4688, 0.0, 0.0, 0.4688, 31.4, 83.55)" width="193.65" xlink:href="#font_ComicBook_Normal_o0"/>
        <use fill="#000000" height="79.35" transform="matrix(0.4688, 0.0, 0.0, 0.4688, 51.8, 83.55)" width="193.65" xlink:href="#font_ComicBook_Normal_u0"/>
        <use fill="#000000" height="79.35" transform="matrix(0.4688, 0.0, 0.0, 0.4688, 70.7, 83.55)" width="193.65" xlink:href="#font_ComicBook_Normal_l0"/>
        <use fill="#000000" height="79.35" transform="matrix(0.4688, 0.0, 0.0, 0.4688, 83.85, 83.55)" width="193.65" xlink:href="#font_ComicBook_Normal_d0"/>
        <use fill="#000000" height="79.35" transform="matrix(0.4688, 0.0, 0.0, 0.4688, 112.45, 83.55)" width="193.65" xlink:href="#font_ComicBook_Normal_b0"/>
        <use fill="#000000" height="79.35" transform="matrix(0.4688, 0.0, 0.0, 0.4688, 128.6, 83.55)" width="193.65" xlink:href="#font_ComicBook_Normal_e0"/>
        <use fill="#000000" height="79.35" transform="matrix(0.4688, 0.0, 0.0, 0.4688, 145.3, 83.55)" width="193.65" xlink:href="#font_ComicBook_Normal__1"/>
      </g>
    </g>
    <g id="font_ComicBook_Normal_I0">
      <path d="M22.5 -40.05 Q24.35 -40.05 25.0 -38.35 25.5 -37.1 24.7 -34.8 L21.6 -27.6 18.3 -19.45 11.7 -3.6 Q10.3 -0.4 7.4 -0.05 5.35 -0.05 4.65 -0.9 3.75 -2.0 4.3 -3.6 L10.2 -19.6 Q12.75 -26.55 16.6 -35.4 17.5 -37.35 19.15 -38.65 20.7 -39.95 22.5 -39.95 L22.5 -40.05" fill-rule="evenodd" stroke="none"/>
    </g>
    <g id="font_ComicBook_Normal_w0">
      <path d="M39.45 -40.5 Q41.2 -40.5 41.95 -39.5 42.85 -38.55 42.3 -36.7 L41.8 -35.6 41.35 -34.5 40.7 -31.9 40.15 -29.1 39.1 -24.2 Q38.65 -21.95 38.7 -21.45 38.6 -19.95 39.2 -19.0 39.8 -18.35 40.6 -18.35 41.55 -18.35 42.45 -19.55 L43.95 -21.5 45.65 -23.8 48.15 -27.25 52.05 -32.75 55.05 -36.75 57.95 -39.55 Q59.3 -40.6 61.2 -40.6 62.65 -40.35 63.3 -39.25 64.0 -38.15 63.6 -36.95 L63.0 -35.9 60.85 -33.1 58.6 -30.05 55.9 -26.15 Q52.2 -20.75 48.95 -16.75 L43.35 -10.15 37.2 -3.8 Q33.55 -0.3 32.1 -0.3 31.1 -0.3 30.95 -2.45 30.6 -10.5 31.05 -15.8 31.3 -19.0 29.9 -19.0 29.0 -19.0 27.25 -16.8 L24.65 -13.2 22.45 -10.2 17.05 -3.5 Q14.05 0.05 11.95 0.05 10.2 0.05 10.25 -3.5 L10.35 -9.65 10.55 -15.1 10.85 -19.35 Q11.35 -25.95 13.05 -36.7 L13.85 -38.15 15.1 -39.25 Q16.85 -40.5 18.65 -40.5 21.35 -40.5 21.35 -38.2 21.15 -34.75 20.2 -29.1 19.2 -23.5 18.8 -19.75 18.5 -17.3 19.2 -17.3 19.85 -17.3 21.65 -19.55 L26.45 -25.2 Q29.0 -28.15 30.65 -30.85 L33.55 -36.35 Q34.6 -38.05 36.25 -39.25 37.9 -40.5 39.45 -40.5" fill-rule="evenodd" stroke="none"/>
    </g>
    <g id="font_ComicBook_Normal_o0">
      <path d="M21.1 -26.25 Q19.0 -23.95 17.5 -21.5 16.0 -19.05 15.15 -16.45 13.85 -12.6 15.0 -10.8 16.6 -8.1 21.1 -8.1 23.95 -8.1 26.6 -9.1 29.25 -10.1 31.85 -12.15 38.35 -17.3 40.35 -23.25 41.8 -27.5 39.65 -30.2 38.1 -32.05 34.25 -32.05 30.9 -32.05 27.55 -30.65 23.75 -29.15 21.1 -26.25 M37.55 -39.95 Q41.25 -39.95 44.1 -38.8 46.85 -37.65 47.7 -35.75 L48.65 -32.8 49.0 -29.6 Q49.05 -28.0 48.7 -26.1 L47.75 -22.4 Q45.1 -14.65 38.05 -8.05 35.9 -6.05 33.55 -4.55 31.2 -3.05 28.55 -2.0 23.5 0.0 18.7 0.0 14.05 0.0 10.8 -1.8 9.0 -2.8 7.95 -4.15 6.9 -5.5 6.4 -7.2 5.25 -11.3 6.85 -16.0 8.8 -21.75 14.5 -27.85 18.9 -32.5 23.4 -35.5 30.1 -39.95 37.55 -39.95" fill-rule="evenodd" stroke="none"/>
    </g>
    <g id="font_ComicBook_Normal_n0">
      <path d="M37.25 -24.95 L36.25 -22.2 Q35.25 -19.25 34.2 -15.05 L32.4 -7.15 Q31.95 -5.8 31.15 -4.85 L29.1 -3.25 Q26.7 -2.05 24.1 -2.05 21.65 -2.05 19.6 -4.8 17.4 -7.6 14.25 -14.3 L13.3 -13.95 Q12.95 -13.9 12.8 -13.45 L11.75 -10.55 10.7 -7.05 9.95 -4.25 Q9.5 -2.85 8.7 -2.0 7.9 -1.15 6.55 -0.65 L4.3 -0.2 Q2.2 -0.2 2.55 -2.75 2.7 -4.2 3.2 -5.65 3.8 -7.35 5.75 -11.05 7.6 -14.45 8.4 -16.85 L8.7 -17.65 9.0 -18.5 9.35 -19.45 9.8 -20.55 11.0 -23.9 Q11.9 -26.5 12.25 -28.65 12.6 -30.85 12.45 -32.7 12.4 -33.2 12.65 -33.85 13.05 -35.1 14.2 -36.1 15.35 -37.15 16.7 -37.2 L16.75 -37.25 Q19.85 -37.25 21.05 -33.7 21.45 -32.45 21.05 -30.6 20.5 -28.0 20.55 -27.25 L20.55 -25.85 20.5 -24.55 Q20.5 -23.25 20.8 -22.05 21.45 -19.75 23.1 -16.7 24.8 -13.6 25.7 -13.45 26.85 -13.45 28.15 -16.05 L29.55 -19.75 29.95 -21.1 31.25 -24.25 32.6 -27.65 34.55 -32.85 35.15 -34.45 35.65 -35.8 Q36.1 -37.25 36.95 -38.5 38.95 -41.4 41.6 -41.4 42.9 -41.35 43.4 -40.3 44.0 -39.25 43.55 -38.0 42.7 -35.5 40.45 -31.4 38.1 -27.3 37.25 -24.95" fill-rule="evenodd" stroke="none"/>
    </g>
    <g id="font_ComicBook_Normal_d0">
      <path d="M22.05 -30.15 L18.3 -21.4 15.45 -15.3 13.25 -10.55 13.1 -9.65 Q13.25 -8.85 14.3 -8.85 15.3 -8.85 17.45 -9.7 22.75 -11.6 29.3 -16.45 34.55 -20.3 39.2 -24.95 43.25 -29.05 43.7 -30.25 44.65 -32.95 41.35 -32.95 L37.35 -32.55 33.3 -32.1 Q29.55 -32.0 22.05 -30.15 M35.35 -39.85 L40.8 -40.2 43.05 -40.35 44.25 -40.45 47.5 -40.15 Q53.05 -38.6 52.15 -35.35 50.4 -30.2 44.1 -23.3 L39.4 -18.5 34.1 -13.85 28.5 -9.6 Q24.95 -7.2 21.9 -5.45 18.8 -3.65 15.8 -2.35 12.8 -1.05 9.8 -0.2 L5.2 0.5 Q3.15 0.5 2.3 -0.2 2.15 -0.25 2.4 -0.95 L5.45 -7.75 Q8.05 -13.35 9.25 -16.7 L11.25 -23.6 Q12.3 -27.95 12.9 -29.8 L14.05 -32.7 Q15.05 -34.95 16.5 -36.35 18.25 -38.1 20.0 -38.2 L20.05 -38.2 27.4 -38.95 35.35 -39.85" fill-rule="evenodd" stroke="none"/>
    </g>
    <g id="font_ComicBook_Normal_e0">
      <path d="M22.3 -29.85 Q18.1 -28.1 16.85 -24.3 L16.6 -23.25 Q16.55 -22.2 17.8 -22.2 L18.95 -22.35 19.95 -22.35 Q22.6 -22.5 28.5 -24.15 34.05 -25.65 37.3 -25.65 38.95 -25.65 40.0 -24.6 40.95 -23.6 40.45 -22.0 39.95 -20.5 38.95 -19.5 37.65 -18.1 36.15 -18.1 L29.2 -17.05 22.15 -15.25 17.55 -14.75 13.55 -14.2 Q12.85 -14.0 12.4 -13.0 L11.9 -11.2 11.45 -10.0 11.15 -8.95 Q11.1 -8.55 11.4 -8.35 12.55 -7.6 14.45 -7.6 16.85 -7.6 22.65 -9.15 28.85 -10.85 31.7 -11.2 33.65 -11.2 34.5 -10.5 35.55 -9.55 35.2 -8.05 34.55 -6.15 33.2 -5.1 31.65 -3.95 29.45 -3.65 L18.85 -1.8 Q12.3 -0.3 8.15 0.05 5.05 0.05 3.85 -0.95 2.6 -2.0 3.05 -4.05 L3.7 -6.6 Q4.3 -8.45 6.1 -11.8 8.25 -15.9 8.8 -17.35 L9.65 -19.75 11.05 -24.2 12.4 -28.2 Q13.35 -30.45 14.15 -31.6 16.3 -34.75 20.25 -36.15 22.95 -37.05 25.4 -37.25 L30.65 -37.75 37.7 -39.1 41.25 -39.6 44.85 -39.95 Q45.95 -39.95 46.45 -39.05 46.9 -38.15 46.7 -36.8 45.95 -34.65 44.65 -33.5 42.9 -32.1 40.95 -31.95 L35.4 -31.4 29.85 -31.25 Q25.7 -31.25 22.3 -29.85" fill-rule="evenodd" stroke="none"/>
    </g>
    <g id="font_ComicBook_Normal_r0">
      <path d="M37.25 -39.85 Q40.9 -39.8 42.9 -38.8 45.25 -37.6 45.45 -34.65 L45.2 -33.4 Q44.4 -30.95 40.2 -27.3 L36.65 -24.4 Q34.65 -22.95 32.45 -21.55 28.55 -19.1 27.5 -19.1 28.1 -17.15 29.55 -14.15 30.05 -13.25 31.85 -11.8 L34.0 -9.55 Q34.7 -8.35 34.05 -6.5 33.35 -4.35 31.25 -3.05 29.85 -2.15 28.5 -2.15 26.85 -2.15 25.6 -3.4 24.45 -4.5 23.55 -6.95 22.65 -9.5 21.55 -10.6 19.7 -12.25 18.0 -13.05 16.3 -13.85 14.75 -13.85 13.45 -13.85 12.7 -11.7 L11.25 -7.15 9.95 -4.7 8.3 -2.2 Q7.35 -0.95 6.15 -0.35 3.8 0.7 2.6 0.7 0.35 0.7 2.4 -5.35 L5.0 -12.05 7.8 -19.45 9.25 -24.2 10.7 -28.35 12.7 -33.25 Q14.45 -37.0 18.9 -38.55 21.75 -39.55 24.8 -39.85 L30.5 -39.9 33.85 -39.9 37.25 -39.85 M25.05 -33.45 L24.35 -33.45 Q22.55 -33.4 20.75 -32.4 20.1 -32.0 19.6 -31.2 L19.1 -30.3 18.6 -29.55 18.6 -29.5 16.2 -26.1 15.75 -25.1 Q15.5 -24.25 15.9 -24.0 L17.45 -23.7 19.05 -23.55 23.9 -24.55 Q27.6 -25.6 31.15 -27.6 34.7 -29.6 35.6 -31.35 36.1 -32.85 33.55 -33.2 L27.9 -33.4 25.05 -33.45" fill-rule="evenodd" stroke="none"/>
    </g>
    <g id="font_ComicBook_Normal_h0">
      <path d="M39.1 -37.5 L40.75 -39.15 Q41.75 -40.0 42.8 -40.15 44.6 -40.15 45.2 -39.05 45.7 -38.15 45.4 -36.75 L42.35 -28.9 39.15 -21.1 36.15 -12.75 33.3 -3.95 Q32.95 -2.85 31.9 -2.2 30.7 -1.5 29.4 -1.4 26.25 -1.4 26.75 -3.95 L27.1 -5.3 28.05 -7.45 28.95 -9.7 29.6 -11.2 30.15 -12.75 30.4 -14.15 Q30.4 -15.15 29.6 -15.4 L27.95 -15.85 26.35 -16.05 24.05 -15.75 21.55 -15.35 18.65 -15.35 Q17.05 -15.35 15.7 -14.75 L14.7 -14.25 13.8 -13.85 Q12.85 -13.4 12.5 -12.65 L11.3 -9.75 10.4 -6.4 9.35 -2.85 Q8.95 -1.65 7.85 -0.85 6.8 0.0 5.55 0.0 3.0 0.0 2.6 -1.05 2.4 -1.55 2.85 -3.75 L4.15 -8.5 5.25 -12.05 6.75 -16.15 Q7.7 -18.55 9.85 -22.5 L13.1 -28.95 13.6 -31.1 14.1 -33.05 Q14.45 -34.1 15.05 -34.95 18.25 -39.25 21.15 -39.25 L21.05 -39.2 Q22.6 -39.15 23.6 -38.3 24.3 -37.6 23.85 -36.2 L19.75 -28.2 17.65 -24.75 16.15 -22.15 Q15.85 -21.25 17.05 -21.25 L24.15 -22.5 26.1 -22.85 28.05 -23.1 29.9 -23.4 Q32.9 -23.95 34.15 -25.7 34.85 -26.7 35.4 -28.35 L36.25 -31.2 36.95 -33.1 37.35 -34.6 Q37.9 -36.2 39.1 -37.5" fill-rule="evenodd" stroke="none"/>
    </g>
    <g id="font_ComicBook_Normal_g0">
      <path d="M38.65 -39.75 L38.7 -39.75 Q46.4 -39.75 49.2 -38.85 54.15 -37.15 53.1 -32.15 52.65 -30.8 51.1 -29.65 49.75 -28.6 48.8 -28.6 L46.2 -29.95 44.45 -30.85 Q41.9 -32.15 39.0 -32.15 32.5 -32.15 25.4 -27.7 22.15 -25.7 19.65 -23.35 17.1 -21.0 15.25 -18.25 14.4 -16.95 14.0 -15.75 12.95 -12.55 14.85 -10.6 16.7 -8.6 21.5 -8.6 26.15 -8.75 33.45 -11.45 40.0 -14.0 40.4 -15.25 40.6 -16.4 39.45 -16.4 L36.45 -15.75 33.25 -15.15 29.25 -14.7 25.25 -14.35 Q23.65 -14.45 22.7 -15.15 21.75 -15.9 22.2 -17.3 23.3 -20.05 29.1 -22.4 33.8 -24.3 41.5 -25.2 L46.4 -25.75 47.4 -25.85 49.95 -25.55 Q51.05 -25.3 51.7 -24.35 52.1 -23.6 51.65 -22.2 46.35 -10.0 35.1 -4.3 27.4 -0.3 19.2 -0.1 L17.9 -0.1 Q10.55 -0.1 7.45 -2.55 6.1 -3.7 5.55 -5.35 5.0 -7.05 5.25 -9.45 5.45 -11.85 6.6 -15.15 8.4 -19.9 11.8 -24.15 15.25 -28.45 20.35 -32.3 30.15 -39.7 38.65 -39.75" fill-rule="evenodd" stroke="none"/>
    </g>
    <g id="font_ComicBook_Normal_y0">
      <path d="M37.55 -33.4 L41.55 -37.1 Q43.35 -38.75 45.35 -38.75 46.8 -38.6 47.4 -37.65 48.1 -36.8 47.75 -35.8 L47.1 -34.8 28.05 -17.15 20.95 -9.75 Q17.3 -5.9 13.1 -2.3 L10.9 -0.6 Q9.95 0.0 8.75 0.0 7.65 -0.15 7.05 -0.9 6.5 -1.65 6.8 -2.55 7.65 -5.1 10.15 -7.35 L14.9 -11.2 Q18.0 -13.45 19.3 -15.2 19.9 -15.95 20.1 -16.6 20.45 -17.6 20.0 -18.4 L17.6 -23.75 Q16.6 -26.2 15.75 -28.6 13.8 -34.0 13.45 -36.85 L13.55 -37.55 Q14.25 -39.65 19.65 -40.15 21.75 -40.15 22.3 -38.35 L23.3 -34.4 24.0 -31.75 24.6 -29.1 24.8 -25.9 Q24.95 -24.5 26.4 -24.4 27.45 -24.4 29.15 -25.8 L32.55 -28.55 35.1 -30.95 37.55 -33.4" fill-rule="evenodd" stroke="none"/>
    </g>
    <g id="font_ComicBook_Normal_c0">
      <path d="M40.35 -40.55 Q43.15 -40.3 44.35 -37.95 45.5 -35.6 44.8 -32.45 L44.15 -30.3 Q41.55 -22.6 37.9 -22.3 35.25 -22.3 36.3 -27.55 36.5 -29.5 36.15 -30.15 35.7 -31.15 33.75 -31.15 31.3 -31.15 26.05 -27.0 21.35 -23.2 16.85 -18.3 12.25 -13.25 11.55 -11.15 L11.4 -10.55 Q11.45 -8.2 15.65 -8.2 19.75 -8.2 24.3 -9.65 L31.7 -12.4 Q35.7 -13.95 37.75 -14.05 39.35 -14.05 40.0 -13.55 40.65 -13.05 40.35 -11.95 39.55 -9.5 37.2 -7.5 34.9 -5.55 30.85 -3.75 23.25 -0.35 17.4 -0.35 11.1 -0.35 7.15 -2.75 2.5 -5.5 4.25 -10.6 6.75 -17.6 14.55 -25.2 17.75 -28.35 21.55 -31.25 25.3 -34.15 29.25 -36.45 32.85 -38.55 35.55 -39.55 38.25 -40.55 40.35 -40.55" fill-rule="evenodd" stroke="none"/>
    </g>
    <g id="font_ComicBook_Normal_u0">
      <path d="M24.45 -36.1 L24.25 -32.25 23.95 -30.65 Q23.45 -29.3 21.9 -27.05 L19.4 -23.4 15.65 -16.0 13.85 -12.9 Q12.85 -11.15 12.55 -10.15 11.95 -7.85 16.15 -7.85 L21.1 -8.3 Q31.55 -9.35 33.5 -13.95 L36.95 -21.1 40.3 -28.2 41.0 -30.95 Q41.65 -32.8 42.25 -33.75 46.35 -40.15 48.75 -40.15 50.05 -40.15 51.0 -39.15 52.0 -38.25 51.55 -36.95 L51.35 -36.55 Q45.95 -27.5 43.85 -22.1 L41.35 -15.55 Q39.2 -9.15 40.0 -3.85 40.2 -3.2 39.95 -2.6 39.3 -0.65 34.4 -0.65 32.75 -0.75 30.75 -1.45 L29.75 -1.9 28.55 -2.4 Q21.2 0.35 16.75 0.35 1.9 -0.4 4.65 -9.2 6.25 -14.0 9.15 -19.05 L14.5 -28.5 15.6 -31.6 16.8 -34.65 Q17.55 -36.2 19.15 -37.1 20.55 -37.95 22.3 -37.95 24.05 -37.85 24.45 -36.1" fill-rule="evenodd" stroke="none"/>
    </g>
    <g id="font_ComicBook_Normal_l0">
      <path d="M22.35 -36.7 L21.2 -32.85 19.15 -27.45 16.8 -21.6 14.5 -16.2 12.35 -10.75 Q11.95 -9.5 12.95 -9.5 L15.3 -10.05 Q16.6 -10.45 21.1 -12.2 24.25 -13.45 26.65 -13.45 L30.15 -13.3 Q31.7 -12.7 30.95 -10.05 30.25 -8.0 28.4 -6.9 27.25 -6.25 24.55 -5.5 L18.9 -4.25 13.25 -3.0 8.85 -1.2 Q6.4 -0.05 4.4 0.15 L3.2 -0.1 Q2.8 -0.35 2.6 -0.9 2.25 -1.9 2.7 -3.3 3.85 -6.7 6.15 -11.75 L9.9 -20.75 12.35 -28.5 14.85 -36.5 Q15.45 -37.95 17.15 -39.6 18.85 -41.15 20.7 -41.15 23.45 -40.75 22.35 -36.7" fill-rule="evenodd" stroke="none"/>
    </g>
    <g id="font_ComicBook_Normal_b0">
      <path d="M25.3 -33.1 Q23.2 -33.05 19.4 -32.05 18.05 -29.6 17.05 -27.0 L16.3 -24.85 Q15.9 -23.7 16.4 -23.2 L16.8 -23.1 Q18.15 -23.1 25.6 -26.5 L30.55 -28.95 Q32.9 -30.3 33.3 -31.55 33.8 -33.15 29.0 -33.15 L27.65 -33.15 25.3 -33.1 M35.9 -26.9 L33.75 -25.45 33.9 -25.4 36.4 -25.6 Q38.25 -25.6 39.05 -25.1 L40.75 -23.9 Q41.3 -23.1 40.45 -20.65 37.5 -11.9 27.85 -5.75 18.7 0.05 9.8 0.05 6.45 0.0 4.85 -1.7 3.35 -3.1 3.8 -5.15 4.85 -9.85 7.35 -17.25 9.25 -22.9 12.2 -30.3 L12.0 -30.75 11.75 -31.2 Q11.4 -32.25 11.5 -32.9 12.1 -34.7 13.2 -35.8 14.5 -37.1 15.85 -37.4 L19.95 -38.45 23.4 -39.3 31.05 -40.15 Q45.1 -40.15 42.8 -33.4 42.15 -31.8 39.9 -29.9 L35.9 -26.9 M10.5 -8.1 L10.45 -8.05 Q10.05 -6.85 12.0 -6.5 L14.4 -6.35 Q17.75 -6.65 22.35 -9.0 L26.2 -11.2 Q28.0 -12.35 29.8 -13.75 32.6 -16.1 33.2 -17.75 33.2 -19.0 27.65 -19.0 L23.15 -18.8 Q19.9 -18.45 14.15 -16.35 11.5 -11.1 10.5 -8.1" fill-rule="evenodd" stroke="none"/>
    </g>
    <g id="font_ComicBook_Normal__1">
      <path d="M28.45 -32.9 Q25.45 -32.55 19.8 -29.8 14.2 -27.1 14.0 -27.1 L13.1 -27.05 Q10.85 -27.05 11.05 -29.0 L11.5 -31.65 Q11.95 -33.0 13.15 -33.65 18.55 -36.45 21.3 -37.55 26.4 -39.55 30.8 -39.75 L34.7 -40.05 38.75 -40.2 Q46.75 -40.2 45.2 -35.3 44.45 -33.15 42.5 -31.35 L41.3 -30.3 40.0 -29.1 38.7 -28.0 32.65 -23.0 24.7 -15.85 Q23.55 -14.7 22.1 -14.1 L18.6 -13.2 Q17.95 -13.2 17.4 -14.1 16.7 -15.3 16.9 -16.55 L17.25 -18.0 Q18.0 -20.25 20.9 -21.85 29.05 -26.45 29.8 -27.0 33.55 -29.35 34.0 -30.65 34.25 -31.65 32.85 -32.35 L29.5 -32.95 28.45 -32.9 M9.95 -2.8 Q10.3 -3.75 11.4 -5.45 12.65 -7.15 14.55 -8.35 16.4 -9.55 17.95 -9.55 19.0 -9.55 19.65 -9.05 21.15 -7.95 20.3 -5.4 19.75 -3.9 18.65 -2.5 L17.25 -1.05 15.55 -0.05 Q13.65 1.0 12.15 1.0 10.65 1.0 10.1 -0.05 9.45 -1.25 9.95 -2.8" fill-rule="evenodd" stroke="none"/>
    </g>
  </defs>
</svg>
