<?xml version="1.0" encoding="UTF-8" standalone="no"?>
<svg xmlns:xlink="http://www.w3.org/1999/xlink" height="59.65px" width="31.7px" xmlns="http://www.w3.org/2000/svg">
  <g transform="matrix(1.0, 0.0, 0.0, 1.0, 15.85, 29.85)">
    <use height="59.65" transform="matrix(1.0, 0.0, 0.0, 1.0, -15.85, -29.85)" width="31.7" xlink:href="#shape0"/>
  </g>
  <defs>
    <g id="shape0" transform="matrix(1.0, 0.0, 0.0, 1.0, 15.85, 29.85)">
      <path d="M-4.9 -29.8 L-4.25 -29.85 -2.6 -28.15 -1.0 -23.4 Q1.2 -16.85 2.6 -10.1 L-0.05 -10.5 Q-1.4 -20.4 -4.9 -29.8" fill="#43a752" fill-rule="evenodd" stroke="none"/>
      <path d="M-2.6 -28.15 Q-0.35 -25.4 0.65 -21.3 0.9 -20.1 1.4 -19.25 L3.55 -9.75 5.95 -8.45 Q11.15 -4.85 7.65 0.0 14.85 7.65 15.8 18.05 16.55 26.65 9.05 29.5 L4.2 29.35 Q-0.7 27.55 -1.95 22.4 -3.4 16.4 -3.55 10.4 -6.6 14.15 -11.2 12.85 -14.65 11.8 -15.85 8.4 -10.45 4.6 -7.7 -1.5 -9.65 -4.35 -7.45 -7.0 L-5.85 -8.7 -5.55 -8.9 Q-7.45 -16.45 -10.3 -23.65 L-10.05 -25.65 -9.9 -26.0 Q-6.55 -17.95 -4.6 -9.4 -2.35 -10.5 -0.05 -10.5 L2.6 -10.1 Q1.2 -16.85 -1.0 -23.4 L-2.6 -28.15 M0.05 -9.45 Q-2.2 -9.6 -4.4 -8.45 L-5.3 -7.9 -5.5 -7.8 Q-8.7 -5.65 -7.3 -2.1 L-4.25 -3.0 -3.35 -3.15 Q0.3 -3.65 3.85 -2.3 L4.65 -2.0 6.8 -0.85 Q8.8 -5.2 4.25 -8.05 L3.85 -8.25 2.85 -8.75 Q1.45 -9.35 0.05 -9.45 M-4.0 -2.2 L-6.85 -1.45 Q-8.5 5.3 -14.6 8.55 -13.45 12.0 -9.85 12.25 -6.95 12.3 -4.95 10.2 -4.4 9.6 -4.2 8.75 L-6.3 6.05 Q-1.8 9.0 -2.2 14.6 -2.65 20.95 1.45 25.55 5.35 30.0 10.4 27.45 12.2 26.5 13.05 24.5 16.4 15.9 11.3 7.65 L9.1 4.15 Q7.5 0.7 4.7 -0.9 L3.95 -1.3 Q2.0 -2.25 -0.4 -2.35 L-3.1 -2.35 -4.0 -2.2 M12.5 12.45 L14.2 16.45 11.65 16.85 Q9.95 9.75 5.9 3.55 10.25 7.15 12.5 12.45 M6.85 19.25 L8.75 18.35 Q7.35 13.4 4.6 9.2 L6.65 17.1 6.85 19.25 M13.25 15.5 L10.35 9.35 12.5 16.3 13.25 15.5 M8.7 19.6 L6.5 19.95 Q5.6 12.1 1.45 5.45 6.0 8.1 8.0 14.0 L9.5 18.5 Q9.3 19.2 8.7 19.6" fill="#000000" fill-rule="evenodd" stroke="none"/>
      <path d="M-9.9 -26.0 Q-9.15 -28.0 -7.5 -29.45 L-5.2 -29.75 -4.9 -29.8 Q-1.4 -20.4 -0.05 -10.5 -2.35 -10.5 -4.6 -9.4 -6.55 -17.95 -9.9 -26.0" fill="#55bb65" fill-rule="evenodd" stroke="none"/>
      <path d="M8.7 19.6 Q9.3 19.2 9.5 18.5 L8.0 14.0 Q6.0 8.1 1.45 5.45 5.6 12.1 6.5 19.95 L8.7 19.6 M13.25 15.5 L12.5 16.3 10.35 9.35 13.25 15.5 M6.85 19.25 L6.65 17.1 4.6 9.2 Q7.35 13.4 8.75 18.35 L6.85 19.25 M12.5 12.45 Q10.25 7.15 5.9 3.55 9.95 9.75 11.65 16.85 L14.2 16.45 12.5 12.45 M-4.0 -2.2 L-3.1 -2.35 -0.4 -2.35 Q2.0 -2.25 3.95 -1.3 L4.7 -0.9 Q7.5 0.7 9.1 4.15 L11.3 7.65 Q16.4 15.9 13.05 24.5 12.2 26.5 10.4 27.45 5.35 30.0 1.45 25.55 -2.65 20.95 -2.2 14.6 -1.8 9.0 -6.3 6.05 L-4.2 8.75 Q-4.4 9.6 -4.95 10.2 -6.95 12.3 -9.85 12.25 -13.45 12.0 -14.6 8.55 -8.5 5.3 -6.85 -1.45 L-4.0 -2.2 M0.05 -9.45 Q1.45 -9.35 2.85 -8.75 L3.85 -8.25 4.25 -8.05 Q8.8 -5.2 6.8 -0.85 L4.65 -2.0 3.85 -2.3 Q0.3 -3.65 -3.35 -3.15 L-4.25 -3.0 -7.3 -2.1 Q-8.7 -5.65 -5.5 -7.8 L-5.3 -7.9 -4.4 -8.45 Q-2.2 -9.6 0.05 -9.45" fill="#ffffff" fill-rule="evenodd" stroke="none"/>
    </g>
  </defs>
</svg>
