<?xml version="1.0" encoding="UTF-8" standalone="no"?>
<svg xmlns:xlink="http://www.w3.org/1999/xlink" height="44.1px" width="13.3px" xmlns="http://www.w3.org/2000/svg">
  <g transform="matrix(1.0, 0.0, 0.0, 1.0, 6.65, 5.35)">
    <use height="44.1" transform="matrix(1.0, 0.0, 0.0, 1.0, -6.65, -5.35)" width="13.3" xlink:href="#shape0"/>
  </g>
  <defs>
    <g id="shape0" transform="matrix(1.0, 0.0, 0.0, 1.0, 6.65, 5.35)">
      <path d="M0.15 8.25 L0.15 -3.8 0.1 -3.8 -0.05 -3.5 -0.1 -3.25 -0.45 -1.5 -0.55 -0.9 -0.65 -0.5 -0.95 1.5 -1.0 2.0 -1.15 2.85 -1.15 3.75 -1.25 4.35 -1.3 4.75 -1.4 5.85 -1.4 6.25 Q-1.35 7.15 -1.6 8.25 L-2.15 8.25 -3.3 8.25 Q-2.85 2.3 -0.65 -3.0 L0.15 -4.8 0.55 -3.5 0.6 -3.25 0.7 -2.4 0.75 -2.0 0.8 -1.65 0.9 -0.65 0.95 -0.25 1.05 0.75 1.15 2.0 1.2 2.35 1.25 2.6 1.3 3.0 1.4 3.6 1.45 4.1 1.5 4.5 1.6 5.1 1.65 6.5 1.7 6.85 1.8 8.25 1.65 8.25 0.15 8.25" fill="#ff0000" fill-rule="evenodd" stroke="none"/>
      <path d="M1.8 8.25 L1.7 6.85 1.65 6.5 1.6 5.1 1.5 4.5 1.45 4.1 1.4 3.6 1.3 3.0 1.25 2.6 1.2 2.35 1.15 2.0 1.05 0.75 0.95 -0.25 0.9 -0.65 0.8 -1.65 0.75 -2.0 0.7 -2.4 0.6 -3.25 0.55 -3.5 0.15 -4.8 0.15 -4.85 0.25 -5.0 Q2.8 0.9 3.9 8.25 L2.75 8.25 1.8 8.25" fill="#930000" fill-rule="evenodd" stroke="none"/>
      <path d="M-1.6 8.25 Q-1.35 7.15 -1.4 6.25 L-1.4 5.85 -1.3 4.75 -1.25 4.35 -1.15 3.75 -1.15 2.85 -1.0 2.0 -0.95 1.5 -0.65 -0.5 -0.55 -0.9 -0.45 -1.5 -0.1 -3.25 -0.05 -3.5 0.1 -3.8 0.15 -3.8 0.15 8.25 -0.6 8.25 -1.6 8.25" fill="#ffffff" fill-rule="evenodd" stroke="none"/>
      <path d="M-2.15 8.25 L-1.6 8.25 -0.6 8.25 Q-1.45 22.4 -0.45 38.4 L-1.05 38.4 -1.1 37.85 -1.55 33.6 -1.85 30.6 -1.55 33.6 -3.55 37.85 -5.1 37.85 -1.85 30.6 Q-2.6 22.7 -2.6 17.45 L-2.6 17.15 -2.5 12.85 -2.25 9.35 -2.5 12.85 -4.85 17.2 -6.3 17.2 -2.25 9.35 -2.15 8.25 M2.9 10.25 L6.3 17.05 3.05 17.1 2.9 10.25 M2.25 30.6 L6.0 37.85 1.7 37.85 2.25 30.6" fill="#e1e1e1" fill-rule="evenodd" stroke="none"/>
      <path d="M-0.6 8.25 L0.15 8.25 0.15 38.4 -0.45 38.4 Q-1.45 22.4 -0.6 8.25 M-2.5 12.85 L-2.6 17.15 -4.85 17.2 -2.5 12.85 M-1.55 33.6 L-1.1 37.85 -3.55 37.85 -1.55 33.6" fill="#787d93" fill-rule="evenodd" stroke="none"/>
      <path d="M1.65 8.25 L1.8 8.25 2.75 8.25 2.85 9.75 2.9 10.25 3.05 17.1 3.05 17.4 Q2.95 23.0 2.25 30.6 L1.7 37.85 1.65 38.4 0.7 38.4 1.65 8.25" fill="#a4a8b7" fill-rule="evenodd" stroke="none"/>
      <path d="M0.15 8.25 L1.65 8.25 0.7 38.4 0.15 38.4 0.15 8.25" fill="#5b6073" fill-rule="evenodd" stroke="none"/>
      <path d="M0.15 8.25 L1.65 8.25 1.8 8.25 M0.15 -4.8 L-0.65 -3.0 Q-2.85 2.3 -3.3 8.25 L-2.15 8.25 -1.6 8.25 -0.6 8.25 0.15 8.25 M0.15 38.4 L0.7 38.4 M0.15 -4.8 L0.15 -4.85 0.25 -5.0 Q2.8 0.9 3.9 8.25 L2.75 8.25 2.85 9.75 2.9 10.25 6.3 17.05 3.05 17.1 3.05 17.4 Q2.95 23.0 2.25 30.6 L6.0 37.85 1.7 37.85 1.65 38.4 0.7 38.4 M2.75 8.25 L1.8 8.25 M2.9 10.25 L3.05 17.1 M2.25 30.6 L1.7 37.85 M-2.15 8.25 L-2.25 9.35 -2.5 12.85 -2.6 17.15 -2.6 17.45 Q-2.6 22.7 -1.85 30.6 L-1.55 33.6 -1.1 37.85 -1.05 38.4 -0.45 38.4 M-2.6 17.15 L-4.85 17.2 -6.3 17.2 -2.25 9.35 M-1.1 37.85 L-3.55 37.85 -5.1 37.85 -1.85 30.6 M0.15 38.4 L-0.45 38.4" fill="none" stroke="#000000" stroke-linecap="round" stroke-linejoin="round" stroke-width="0.75"/>
    </g>
  </defs>
</svg>
