<?xml version="1.0" encoding="UTF-8" standalone="no"?>
<svg xmlns:xlink="http://www.w3.org/1999/xlink" height="10.5px" width="163.9px" xmlns="http://www.w3.org/2000/svg">
  <g transform="matrix(1.0, 0.0, 0.0, 1.0, -0.1, -4.3)">
    <use height="35.2" transform="matrix(0.2734, 0.0, 0.0, 0.2734, 0.123, 4.4023)" width="46.1" xlink:href="#shape0"/>
    <use height="37.25" transform="matrix(0.2734, 0.0, 0.0, 0.2734, 12.6098, 4.3203)" width="38.4" xlink:href="#shape1"/>
    <use height="36.75" transform="matrix(0.2734, 0.0, 0.0, 0.2734, 22.9867, 4.7715)" width="46.25" xlink:href="#shape2"/>
    <use height="36.0" transform="matrix(0.2734, 0.0, 0.0, 0.2734, 35.4688, 4.5664)" width="34.65" xlink:href="#shape3"/>
    <use height="35.8" transform="matrix(0.2734, 0.0, 0.0, 0.2734, 48.2598, 4.7168)" width="16.15" xlink:href="#shape4"/>
    <use height="36.85" transform="matrix(0.2734, 0.0, 0.0, 0.2734, 52.5594, 4.375)" width="37.4" xlink:href="#shape5"/>
    <use height="36.0" transform="matrix(0.2734, 0.0, 0.0, 0.2734, 65.9688, 4.5664)" width="34.65" xlink:href="#shape3"/>
    <use height="35.7" transform="matrix(0.2734, 0.0, 0.0, 0.2734, 75.4098, 4.6348)" width="42.15" xlink:href="#shape6"/>
    <use height="35.7" transform="matrix(0.2734, 0.0, 0.0, 0.2734, 86.9598, 4.6348)" width="42.15" xlink:href="#shape6"/>
    <use height="36.35" transform="matrix(0.2734, 0.0, 0.0, 0.2734, 98.5508, 4.5664)" width="41.15" xlink:href="#shape7"/>
    <use height="36.0" transform="matrix(0.2734, 0.0, 0.0, 0.2734, 109.7688, 4.5664)" width="34.65" xlink:href="#shape3"/>
    <use height="35.7" transform="matrix(0.2734, 0.0, 0.0, 0.2734, 119.2098, 4.6348)" width="42.15" xlink:href="#shape6"/>
    <use height="35.2" transform="matrix(0.2734, 0.0, 0.0, 0.2734, 130.623, 4.4023)" width="46.1" xlink:href="#shape0"/>
    <use height="36.35" transform="matrix(0.2734, 0.0, 0.0, 0.2734, 143.1508, 4.5664)" width="41.15" xlink:href="#shape7"/>
    <use height="37.4" transform="matrix(0.2734, 0.0, 0.0, 0.2734, 154.4371, 4.2793)" width="35.0" xlink:href="#shape8"/>
  </g>
  <defs>
    <g id="shape0" transform="matrix(1.0, 0.0, 0.0, 1.0, -0.45, 35.1)">
      <path d="M33.1 -33.55 L38.8 -33.6 46.55 -33.45 44.75 -25.25 43.3 -18.75 42.0 -13.2 40.65 -7.6 39.05 -1.1 35.2 -0.6 31.4 -0.25 28.45 0.0 27.3 0.1 26.1 -3.35 24.85 -6.7 23.9 -9.15 23.5 -10.15 23.05 -8.75 21.8 -5.2 20.2 -0.25 16.1 -0.35 12.35 -0.55 9.55 -0.7 8.45 -0.8 7.25 -5.2 5.65 -11.4 3.8 -18.55 2.0 -25.8 0.45 -32.3 5.7 -33.45 10.5 -34.35 13.95 -34.9 15.25 -35.1 15.55 -33.8 16.3 -30.3 17.4 -25.35 18.65 -19.7 19.25 -20.8 20.75 -23.55 22.85 -27.05 23.65 -26.0 25.55 -23.4 27.65 -20.05 28.65 -24.5 29.7 -28.85 30.5 -32.15 30.85 -33.45 33.1 -33.55" fill="#ffff00" fill-rule="evenodd" stroke="none"/>
    </g>
    <g id="shape1" transform="matrix(1.0, 0.0, 0.0, 1.0, -0.95, 35.4)">
      <path d="M33.1 -34.75 L39.1 -35.4 39.3 -24.5 39.35 -15.35 39.35 -6.9 39.3 1.85 37.7 1.75 33.7 1.4 28.4 0.9 22.9 0.15 22.8 -5.35 22.7 -10.95 19.95 -10.75 17.7 -10.6 17.4 0.15 11.9 0.9 6.6 1.4 2.6 1.75 1.05 1.85 0.95 -6.7 0.95 -14.65 1.0 -23.25 1.2 -33.95 6.95 -33.85 12.3 -33.55 16.2 -33.25 17.75 -33.1 17.75 -26.35 17.75 -19.4 20.25 -19.5 22.5 -19.55 22.3 -26.5 22.1 -33.15 23.65 -33.4 27.6 -34.0 33.1 -34.75" fill="#ffff00" fill-rule="evenodd" stroke="none"/>
    </g>
    <g id="shape2" transform="matrix(1.0, 0.0, 0.0, 1.0, -0.5, 33.75)">
      <path d="M25.4 -13.2 L24.45 -16.6 23.4 -20.1 22.45 -16.5 21.4 -12.7 23.55 -12.95 25.4 -13.2 M33.0 -33.75 L36.05 -27.15 39.8 -19.05 43.55 -10.4 46.75 -2.3 Q43.5 -1.1 39.4 -0.05 L29.8 2.15 28.6 -2.1 27.45 -6.05 22.85 -5.25 19.3 -4.65 18.3 -0.95 17.25 3.0 11.25 1.6 5.85 0.1 2.0 -1.1 0.5 -1.65 3.5 -8.15 7.35 -16.35 11.55 -25.1 15.65 -33.3 21.65 -33.6 27.25 -33.7 31.35 -33.75 33.0 -33.75" fill="#ffff00" fill-rule="evenodd" stroke="none"/>
    </g>
    <g id="shape3" transform="matrix(1.0, 0.0, 0.0, 1.0, -0.8, 34.5)">
      <path d="M32.65 -34.5 L33.75 -29.3 34.65 -24.15 35.2 -20.25 35.45 -18.65 34.0 -18.7 30.5 -18.7 26.15 -18.6 27.1 -9.05 27.9 0.0 22.25 0.65 16.9 1.1 12.85 1.4 11.25 1.5 11.2 -5.25 11.2 -11.45 11.2 -17.75 6.25 -17.2 2.4 -16.6 0.8 -16.3 0.8 -21.75 0.95 -26.9 1.1 -30.7 1.2 -32.25 11.35 -33.0 21.6 -33.7 32.65 -34.5" fill="#ffff00" fill-rule="evenodd" stroke="none"/>
    </g>
    <g id="shape4" transform="matrix(1.0, 0.0, 0.0, 1.0, -0.95, 33.95)">
      <path d="M17.1 -33.1 L17.1 -16.8 16.75 0.15 11.65 0.9 6.55 1.4 2.6 1.75 1.05 1.85 0.95 -6.7 0.95 -14.65 1.0 -23.25 1.2 -33.95 6.6 -33.85 11.75 -33.55 15.6 -33.25 17.1 -33.1" fill="#ffff00" fill-rule="evenodd" stroke="none"/>
    </g>
    <g id="shape5" transform="matrix(1.0, 0.0, 0.0, 1.0, -0.4, 35.2)">
      <path d="M32.65 -31.5 Q34.75 -29.75 35.95 -27.7 37.2 -25.65 37.8 -23.6 L32.7 -22.45 28.0 -21.6 24.55 -21.15 23.2 -21.0 Q22.6 -22.05 21.55 -22.55 L19.35 -23.1 17.35 -22.85 Q16.5 -22.5 16.3 -21.9 16.0 -20.9 17.55 -20.1 19.1 -19.35 22.85 -19.2 L27.35 -18.7 Q29.9 -18.3 32.3 -17.25 34.65 -16.2 36.2 -14.3 37.75 -12.4 37.7 -9.45 37.5 -6.5 35.95 -4.35 34.4 -2.25 31.8 -0.9 29.25 0.45 25.95 1.1 L19.05 1.65 Q14.7 1.65 11.15 0.7 7.6 -0.3 4.9 -2.5 2.2 -4.7 0.4 -8.35 L7.35 -10.4 12.5 -11.6 14.55 -12.0 Q15.35 -10.65 16.65 -10.05 17.95 -9.45 19.3 -9.4 L21.7 -9.65 22.95 -10.45 Q23.3 -11.45 21.45 -12.05 L16.2 -12.95 Q12.3 -13.3 9.15 -14.35 6.0 -15.4 4.05 -17.35 2.1 -19.35 1.75 -22.5 1.45 -25.75 3.2 -28.6 4.95 -31.45 8.85 -33.3 12.8 -35.1 19.0 -35.2 23.85 -35.25 27.2 -34.2 30.55 -33.2 32.65 -31.5" fill="#ffff00" fill-rule="evenodd" stroke="none"/>
    </g>
    <g id="shape6" transform="matrix(1.0, 0.0, 0.0, 1.0, -0.95, 34.25)">
      <path d="M18.95 -18.3 Q17.4 -17.1 17.35 -15.35 17.4 -13.55 18.95 -12.35 20.45 -11.2 22.75 -11.15 25.0 -11.2 26.55 -12.35 28.05 -13.55 28.1 -15.35 28.05 -17.1 26.55 -18.3 25.0 -19.5 22.75 -19.55 20.45 -19.5 18.95 -18.3 M32.95 -31.85 Q37.5 -29.5 40.15 -25.55 42.75 -21.6 43.05 -16.65 43.25 -13.15 41.95 -9.9 40.65 -6.65 37.9 -4.1 35.15 -1.55 31.1 -0.05 27.05 1.45 21.7 1.45 17.4 1.45 13.65 0.3 9.9 -0.9 7.05 -3.15 4.15 -5.45 2.55 -8.75 0.95 -12.1 0.95 -16.4 1.0 -20.8 2.85 -24.1 4.7 -27.45 7.75 -29.7 10.85 -31.95 14.6 -33.1 18.4 -34.25 22.4 -34.25 28.45 -34.2 32.95 -31.85" fill="#ffff00" fill-rule="evenodd" stroke="none"/>
    </g>
    <g id="shape7" transform="matrix(1.0, 0.0, 0.0, 1.0, -1.1, 34.5)">
      <path d="M32.25 -34.05 L37.35 -33.5 40.9 -33.05 42.25 -32.85 41.75 -22.85 41.1 -11.85 40.25 -0.4 34.7 0.55 29.35 1.25 25.35 1.7 23.75 1.85 21.1 -3.2 18.6 -7.7 16.8 -10.95 16.1 -12.15 16.05 -6.8 15.95 -2.65 15.9 1.45 11.05 1.1 6.2 0.65 2.55 0.3 1.1 0.1 1.25 -16.7 1.65 -34.35 7.15 -34.2 12.05 -33.9 15.55 -33.65 16.9 -33.5 19.9 -27.4 22.8 -21.9 24.9 -18.0 25.75 -16.45 25.95 -22.8 26.15 -28.6 26.3 -32.85 26.35 -34.5 32.25 -34.05" fill="#ffff00" fill-rule="evenodd" stroke="none"/>
    </g>
    <g id="shape8" transform="matrix(1.0, 0.0, 0.0, 1.0, -1.05, 35.55)">
      <path d="M11.5 -6.2 Q13.15 -7.7 15.9 -7.95 L19.15 -7.55 Q20.65 -7.0 21.6 -6.0 22.5 -4.95 22.65 -3.55 22.75 -1.45 21.05 0.05 19.35 1.6 16.65 1.85 L13.35 1.45 Q11.9 0.9 10.95 -0.15 10.0 -1.15 9.9 -2.55 9.8 -4.65 11.5 -6.2 M28.8 -33.85 Q32.75 -32.15 34.5 -29.4 36.25 -26.65 36.05 -23.45 35.8 -20.6 34.4 -19.0 33.0 -17.45 31.05 -16.55 L27.2 -14.95 Q25.3 -14.2 24.1 -13.05 22.9 -11.95 22.95 -9.85 L18.6 -9.65 14.15 -9.6 10.7 -9.65 9.35 -9.65 Q9.35 -12.85 10.65 -14.75 11.95 -16.65 13.85 -17.7 15.7 -18.75 17.55 -19.4 19.4 -20.05 20.55 -20.7 21.7 -21.35 21.5 -22.45 21.35 -23.05 20.55 -23.35 L18.65 -23.6 Q17.55 -23.55 16.5 -22.95 15.45 -22.35 14.8 -21.15 L12.8 -21.4 7.7 -22.2 1.05 -23.5 Q1.6 -25.55 2.9 -27.65 4.2 -29.75 6.35 -31.55 8.45 -33.35 11.55 -34.45 14.6 -35.55 18.7 -35.55 24.9 -35.55 28.8 -33.85" fill="#ffff00" fill-rule="evenodd" stroke="none"/>
    </g>
  </defs>
</svg>
