<?xml version="1.0" encoding="UTF-8" standalone="no"?>
<svg xmlns:xlink="http://www.w3.org/1999/xlink" height="311.85px" width="612.2px" xmlns="http://www.w3.org/2000/svg">
  <g transform="matrix(1.0, 0.0, 0.0, 1.0, 305.8, 183.4)">
    <use height="107.35" transform="matrix(-0.3342, 0.0, -0.0889, 0.3342, 281.3028, -157.9471)" width="243.1" xlink:href="#shape0"/>
    <use height="41.3" transform="matrix(0.7339, -0.1738, 0.2252, 0.6227, 171.0276, -76.6005)" width="32.9" xlink:href="#sprite0"/>
    <use height="41.3" transform="matrix(0.8655, 0.1071, 0.0614, 0.7902, 202.5937, -74.7297)" width="32.9" xlink:href="#sprite0"/>
    <use height="41.3" transform="matrix(1.2637, -0.047, 0.3309, 0.9396, 175.4797, -83.3291)" width="32.9" xlink:href="#sprite0"/>
    <use height="41.3" transform="matrix(0.8895, -0.0115, 0.1074, 0.774, 207.449, -62.4944)" width="32.9" xlink:href="#sprite0"/>
    <use height="41.3" transform="matrix(1.0007, -0.4745, 0.4825, 1.1646, 148.5246, -89.4935)" width="32.9" xlink:href="#sprite1"/>
    <use height="41.3" transform="matrix(-0.707, -0.2397, -0.3416, 0.5863, 180.6835, -74.8629)" width="32.9" xlink:href="#sprite1"/>
    <use height="41.3" transform="matrix(-1.0541, -0.0676, -0.2512, 0.9266, 152.8286, -80.6217)" width="32.9" xlink:href="#sprite1"/>
    <use height="41.3" transform="matrix(0.9684, -0.8315, 0.7951, 0.8354, 114.4512, -74.1744)" width="32.9" xlink:href="#sprite1"/>
    <use height="41.3" transform="matrix(-0.7495, 0.0484, -0.1198, 0.6576, 137.2042, -68.3751)" width="32.9" xlink:href="#sprite0"/>
    <use height="70.45" transform="matrix(0.85, 0.0, 0.0, 0.85, 29.1165, -59.1147)" width="326.2" xlink:href="#shape2"/>
    <use height="98.55" transform="matrix(0.85, 0.0, 0.0, 0.85, -144.5452, -36.262)" width="504.7" xlink:href="#shape3"/>
    <use height="107.35" transform="matrix(-0.3621, 0.1597, 0.1597, 0.3621, -167.0124, -27.8795)" width="243.1" xlink:href="#shape0"/>
    <use height="107.35" transform="matrix(0.3962, 0.0, 0.0, 0.3962, -293.1111, -8.5187)" width="243.1" xlink:href="#shape0"/>
    <use height="164.4" transform="matrix(0.85, 0.0, 0.0, 0.85, -305.7918, -16.2041)" width="698.05" xlink:href="#shape4"/>
    <use height="166.2" transform="matrix(0.85, 0.0, 0.0, 0.85, -291.6618, -12.8268)" width="689.1" xlink:href="#shape5"/>
    <use height="50.0" transform="matrix(0.6259, 0.0, 0.0, 0.6259, -177.3816, -124.1979)" width="123.65" xlink:href="#shape6"/>
    <use height="107.35" transform="matrix(0.5112, 0.0, 0.0, 0.5112, 7.408, -183.4248)" width="243.1" xlink:href="#shape0"/>
    <use height="50.0" transform="matrix(-0.423, 0.0, -0.1762, 0.423, -211.6552, -74.4247)" width="123.65" xlink:href="#shape6"/>
  </g>
  <defs>
    <g id="shape0" transform="matrix(1.0, 0.0, 0.0, 1.0, 122.05, 53.55)">
      <path d="M75.25 15.9 Q79.25 13.7 84.3 13.7 90.3 13.7 94.55 16.65 98.85 19.6 98.85 23.7 98.85 26.3 97.05 28.45 123.75 38.4 120.75 41.35 118.4 43.7 56.25 44.9 L-11.75 45.85 Q-14.4 45.95 -11.9 47.4 L-6.15 50.4 Q-2.9 52.3 -4.4 53.05 L-16.3 53.65 -43.5 52.65 -82.85 50.5 Q-132.3 46.85 -119.4 40.05 -106.95 33.5 -83.75 29.25 -87.15 24.5 -87.15 19.45 -87.15 9.5 -75.35 2.1 -63.7 -5.25 -46.35 -6.45 L-46.65 -10.0 Q-46.65 -19.65 -39.55 -26.6 -32.4 -33.45 -22.4 -33.45 -15.5 -33.45 -9.65 -30.0 -7.55 -40.1 1.3 -46.8 10.25 -53.55 21.95 -53.55 35.3 -53.55 44.65 -45.05 54.1 -36.55 54.1 -24.55 54.1 -13.6 46.05 -5.4 49.15 -4.6 51.15 -2.0 53.2 0.6 53.2 3.9 L53.0 5.65 54.7 5.6 Q62.2 5.6 68.0 8.55 73.7 11.45 75.25 15.9" fill="#e6e8e3" fill-rule="evenodd" stroke="none"/>
      <path d="M36.2 26.2 L36.95 26.2 36.45 25.8 36.2 26.2 M94.3 28.05 Q120.1 37.7 117.15 40.6 114.9 42.9 54.7 44.0 L-11.1 44.9 Q-13.65 45.0 -11.2 46.45 L-5.7 49.35 Q-2.55 51.2 -4.0 51.9 L-15.5 52.45 -41.9 51.5 -79.95 49.45 Q-127.9 45.85 -115.35 39.3 -103.5 33.15 -80.85 28.8 -84.15 24.15 -84.15 19.3 -84.15 9.7 -72.75 2.5 -61.4 -4.65 -44.6 -5.8 L-44.85 -9.2 Q-44.85 -18.6 -38.0 -25.3 -31.15 -31.9 -21.35 -31.9 -14.7 -31.9 -9.1 -28.6 -7.05 -38.45 1.5 -44.9 10.15 -51.4 21.5 -51.4 34.4 -51.4 43.55 -43.25 52.65 -35.0 52.65 -23.35 52.65 -12.7 44.85 -4.75 47.85 -3.95 49.75 -1.5 51.75 1.05 51.75 4.2 L51.6 5.95 53.25 5.9 Q60.5 5.9 66.05 8.75 71.55 11.6 73.1 15.85 76.95 13.75 81.9 13.75 87.7 13.75 91.85 16.6 95.95 19.45 95.95 23.5 95.95 25.9 94.3 28.05" fill="#ffffff" fill-rule="evenodd" stroke="none"/>
      <path d="M-28.9 31.3 Q-36.65 38.85 -55.7 38.55 -84.6 38.1 -82.35 17.2 -74.7 29.75 -54.35 31.15 -34.05 32.5 -21.35 15.35 -23.2 21.7 -24.05 23.75 -25.9 28.4 -28.9 31.3" fill="#e3f0ff" fill-rule="evenodd" stroke="none"/>
      <path d="M73.0 21.4 Q73.0 30.7 58.05 30.7 43.2 30.7 40.0 23.7 65.35 33.0 73.0 21.4" fill="#e3f0ff" fill-rule="evenodd" stroke="none"/>
      <path d="M49.95 -29.65 Q55.4 -9.7 37.75 -3.2 26.9 -0.4 17.4 -6.9 48.6 -1.35 49.95 -29.65" fill="#e3f0ff" fill-rule="evenodd" stroke="none"/>
      <path d="M94.15 24.85 Q91.05 37.05 79.15 37.7 67.25 38.3 58.05 30.7 63.15 33.5 76.0 34.45 88.85 35.45 94.15 24.85" fill="#dcebf5" fill-rule="evenodd" stroke="none"/>
      <path d="M-81.75 32.85 Q-97.4 37.05 -100.85 40.25 -104.3 43.5 -90.25 46.7 -109.95 45.1 -113.4 41.9 -116.8 38.65 -81.75 32.25 L-81.75 32.85" fill="#dcebf5" fill-rule="evenodd" stroke="none"/>
    </g>
    <g id="sprite0" transform="matrix(1.0, 0.0, 0.0, 1.0, 16.45, 20.65)">
      <use height="41.3" transform="matrix(1.0, 0.0, 0.0, 1.0, -16.45, -20.65)" width="32.9" xlink:href="#shape1"/>
    </g>
    <g id="shape1" transform="matrix(1.0, 0.0, 0.0, 1.0, 16.45, 20.65)">
      <path d="M0.6 -15.95 L-1.95 -10.8 0.85 -9.6 3.2 -14.45 0.6 -15.95 M7.6 -6.3 L9.55 -5.35 12.45 -9.0 10.5 -10.55 7.6 -6.3 M5.05 -7.45 L8.35 -12.0 5.7 -13.2 2.85 -8.65 5.05 -7.45 M8.0 -2.05 L5.75 -3.55 2.1 2.0 4.65 3.15 8.0 -2.05 M3.95 -4.6 L1.6 -5.8 -1.8 -0.05 0.7 1.2 3.95 -4.6 M-2.95 -8.25 L-6.25 -1.95 -3.45 -0.6 -0.25 -6.75 -2.95 -8.25 M-1.7 20.65 L-16.45 14.65 -2.55 -20.65 16.45 -9.85 -1.7 20.65" fill="#259696" fill-rule="evenodd" stroke="none"/>
      <path d="M0.6 -15.95 L3.2 -14.45 0.85 -9.6 -1.95 -10.8 0.6 -15.95 M3.95 -4.6 L0.7 1.2 -1.8 -0.05 1.6 -5.8 3.95 -4.6 M8.0 -2.05 L4.65 3.15 2.1 2.0 5.75 -3.55 8.0 -2.05 M5.05 -7.45 L2.85 -8.65 5.7 -13.2 8.35 -12.0 5.05 -7.45 M7.6 -6.3 L10.5 -10.55 12.45 -9.0 9.55 -5.35 7.6 -6.3 M-2.95 -8.25 L-0.25 -6.75 -3.45 -0.6 -6.25 -1.95 -2.95 -8.25" fill="#70bcbc" fill-rule="evenodd" stroke="none"/>
      <path d="M0.6 9.85 L-1.4 8.75 1.2 4.65 3.6 5.7 0.6 9.85 M-3.35 2.65 L-0.85 4.0 -2.45 8.4 -5.15 7.3 -3.35 2.65 M-9.2 5.35 L-6.9 0.65 -4.55 2.05 -6.7 6.45 -9.2 5.35" fill="#70bcbc" fill-rule="evenodd" stroke="none"/>
    </g>
    <g id="sprite1" transform="matrix(1.0, 0.0, 0.0, 1.0, 16.45, 20.65)">
      <use height="41.3" transform="matrix(1.0, 0.0, 0.0, 1.0, -16.45, -20.65)" width="32.9" xlink:href="#shape1"/>
    </g>
    <g id="shape2" transform="matrix(1.0, 0.0, 0.0, 1.0, 163.1, 34.9)">
      <path d="M5.6 -29.3 Q15.9 -33.7 27.05 -32.25 38.45 -30.4 49.2 -26.9 L51.7 -26.1 Q83.0 -15.65 120.1 8.1 139.55 20.5 163.1 26.45 L40.95 30.85 -65.1 35.55 -163.1 27.55 Q-118.8 -2.75 -83.0 -17.9 -46.5 -33.35 -31.8 -34.2 L-16.8 -34.85 -10.45 -33.8 Q-4.45 -32.95 -0.15 -30.4 4.15 -27.85 3.7 -28.5 L5.6 -29.3" fill="#006600" fill-rule="evenodd" stroke="none"/>
      <path d="M4.55 -30.15 Q4.8 -30.25 5.75 -29.75 6.65 -29.3 7.15 -28.7 L7.9 -28.05 8.95 -26.85 9.3 -26.35 10.1 -25.15 Q11.25 -23.15 12.2 -20.6 13.2 -17.8 14.4 -13.05 15.6 -8.35 15.5 3.4 L6.65 3.75 7.0 -6.95 6.05 -17.0 5.4 -21.05 4.1 -24.75 2.35 -27.95 1.6 -29.15 2.3 -29.5 3.6 -29.9 4.55 -30.15 M3.9 -29.0 L3.45 -29.35 3.35 -29.3 3.9 -29.0 M5.25 -27.35 L5.25 -27.4 5.2 -27.35 5.25 -27.35 M5.8 -27.65 L5.75 -27.6 5.8 -27.6 5.8 -27.65 M7.2 -24.15 L7.55 -23.15 7.6 -23.15 7.2 -24.15 M7.8 -23.6 L7.95 -23.3 7.8 -23.65 7.8 -23.6 M10.1 -16.95 L10.15 -17.0 10.1 -17.05 10.0 -17.3 10.05 -17.05 10.1 -16.95" fill="#ade3d9" fill-rule="evenodd" stroke="none"/>
    </g>
    <g id="shape3" transform="matrix(1.0, 0.0, 0.0, 1.0, 252.35, 49.25)">
      <path d="M252.35 -7.65 L252.35 25.55 244.1 28.4 Q220.2 36.1 192.5 39.1 168.3 41.65 143.45 40.5 121.55 39.45 103.15 35.8 86.35 32.4 68.15 33.0 53.15 33.5 36.5 36.8 24.95 39.05 9.5 43.45 L-1.85 46.7 -11.6 49.3 -252.35 9.9 Q-193.5 -17.1 -137.6 -31.35 -76.65 -46.9 -13.45 -48.95 53.6 -51.15 127.4 -38.3 186.6 -28.0 252.35 -7.65" fill="#009900" fill-rule="evenodd" stroke="none"/>
      <path d="M31.1 -48.85 L37.7 -48.4 Q29.1 -31.1 39.8 -21.0 47.8 -13.5 66.0 -10.2 52.45 -5.45 44.2 -1.95 37.0 -7.25 32.8 -11.6 27.95 -16.7 25.95 -21.8 23.75 -27.4 24.65 -33.65 25.55 -40.2 31.1 -48.85 M32.0 -43.45 L31.9 -42.65 32.4 -44.1 32.15 -44.3 32.0 -43.45 M30.7 -36.9 L30.6 -36.85 30.65 -36.75 30.7 -36.9 M48.15 -8.6 L48.05 -8.65 48.15 -8.6" fill="#ade3d9" fill-rule="evenodd" stroke="none"/>
    </g>
    <g id="shape4" transform="matrix(1.0, 0.0, 0.0, 1.0, 348.7, 97.3)">
      <path d="M68.45 -56.95 Q113.6 -69.75 135.15 -75.2 L157.35 -80.65 Q165.5 -82.25 176.05 -84.9 186.6 -87.6 200.4 -90.2 214.15 -92.8 228.55 -94.25 L257.45 -96.55 279.65 -97.3 Q315.7 -96.5 338.85 -91.1 350.7 -90.35 349.15 -88.45 L341.7 67.1 -348.7 67.1 -345.65 -67.35 Q-307.55 -43.1 -267.7 -55.25 -261.2 -57.2 -251.8 -60.65 L-234.25 -67.15 Q-210.45 -76.05 -195.1 -80.35 -172.0 -86.95 -152.45 -88.35 -128.85 -90.15 -108.3 -84.7 -98.35 -82.1 -87.05 -78.1 -79.4 -75.45 -67.0 -70.6 L-47.5 -63.1 Q-36.55 -59.1 -27.7 -56.55 -5.35 -50.05 15.45 -49.6 40.5 -49.1 68.45 -56.95" fill="#00cc00" fill-rule="evenodd" stroke="none"/>
    </g>
    <g id="shape5" transform="matrix(1.0, 0.0, 0.0, 1.0, 351.9, 76.15)">
      <path d="M204.8 -75.95 L203.8 -76.15 206.6 -76.0 210.85 -75.5 Q220.05 -74.45 237.8 -69.1 255.55 -63.8 263.7 -60.2 271.8 -56.6 275.5 -54.55 L267.8 -57.5 Q252.2 -63.4 236.35 -68.4 221.3 -73.05 205.85 -75.8 L204.8 -75.95 M-351.9 40.15 L-351.9 34.05 -186.05 42.35 Q-43.65 48.9 39.2 43.25 L128.2 37.5 Q176.2 34.2 202.65 30.4 236.5 25.5 251.05 17.95 267.5 9.4 261.85 -3.75 259.6 -9.05 251.85 -16.5 L250.95 -17.3 Q246.0 -21.8 240.85 -25.95 228.3 -35.9 214.25 -44.0 195.5 -54.9 175.4 -63.1 170.8 -65.0 166.15 -66.55 L163.85 -67.4 166.8 -68.1 171.55 -66.55 Q188.0 -60.45 203.25 -51.9 222.35 -41.2 240.15 -28.3 247.75 -22.8 252.1 -17.85 L261.1 -8.75 Q265.15 -4.3 266.0 -2.65 L266.9 -0.45 Q270.55 13.85 253.8 23.0 238.85 31.15 205.65 36.2 179.6 40.15 132.5 43.45 L89.65 46.2 44.3 49.1 Q-39.35 54.85 -183.65 48.1 L-351.9 40.15" fill="#389e00" fill-rule="evenodd" stroke="none"/>
      <path d="M204.8 -75.95 L205.85 -75.8 Q221.3 -73.05 236.35 -68.4 252.2 -63.4 267.8 -57.5 L275.5 -54.55 286.25 -48.7 314.65 -33.1 Q315.95 -31.95 321.4 -28.2 L330.9 -20.75 337.2 -15.25 335.35 90.05 -351.9 90.05 -351.9 40.15 -183.65 48.1 Q-39.35 54.85 44.3 49.1 L89.65 46.2 132.5 43.45 Q179.6 40.15 205.65 36.2 238.85 31.15 253.8 23.0 270.55 13.85 266.9 -0.45 L266.0 -2.65 Q265.15 -4.3 261.1 -8.75 L252.1 -17.85 Q247.75 -22.8 240.15 -28.3 222.35 -41.2 203.25 -51.9 188.0 -60.45 171.55 -66.55 L166.8 -68.1 Q180.55 -71.6 187.95 -73.05 L198.5 -75.0 204.8 -75.95 M193.95 -71.35 L193.8 -71.3 193.95 -71.25 193.95 -71.35 M195.15 -71.55 L195.7 -71.9 194.9 -71.65 195.15 -71.55 M282.7 -31.7 L282.7 -31.8 282.5 -31.85 282.7 -31.7" fill="#ade3d9" fill-rule="evenodd" stroke="none"/>
    </g>
    <g id="shape6" transform="matrix(1.0, 0.0, 0.0, 1.0, 61.8, 25.0)">
      <path d="M-19.9 -5.55 L-19.95 -6.05 Q-19.95 -13.9 -8.95 -19.45 2.1 -25.0 17.65 -25.0 33.2 -25.0 44.2 -19.45 55.2 -13.9 55.2 -6.05 55.2 -0.7 49.75 3.8 57.45 6.95 57.45 11.65 57.45 13.65 56.0 15.3 L54.4 14.7 Q56.05 12.9 56.05 10.9 56.05 6.45 48.75 3.45 53.95 -0.8 53.95 -5.95 53.95 -13.4 43.5 -18.7 33.0 -24.0 18.2 -24.0 3.4 -24.0 -7.05 -18.7 -17.5 -13.4 -17.5 -5.95 L-17.45 -4.8 -19.9 -5.55 M59.35 17.2 L60.85 18.2 Q63.6 20.45 58.75 21.8 51.85 23.7 25.05 24.6 -3.35 25.55 -25.45 24.2 -48.35 22.8 -57.95 19.8 -63.05 18.25 -61.4 16.7 -59.85 15.2 -52.15 13.9 -55.9 14.8 -56.95 15.75 -58.5 17.25 -53.7 18.75 -44.55 21.6 -22.8 22.9 -1.75 24.2 25.25 23.25 50.7 22.4 57.3 20.6 61.9 19.3 59.35 17.2 M-49.6 13.35 Q-53.7 10.05 -53.7 5.9 -53.7 0.65 -47.25 -3.05 -40.75 -6.8 -31.65 -6.8 L-28.1 -6.65 -28.65 -6.65 Q-37.35 -6.65 -43.45 -3.1 -49.6 0.45 -49.6 5.45 -49.6 9.0 -46.35 11.95 L-45.65 12.7 -49.6 13.35" fill="#dee1e6" fill-rule="evenodd" stroke="none"/>
      <path d="M-19.9 -5.55 L-17.45 -4.8 -17.5 -5.95 Q-17.5 -13.4 -7.05 -18.7 3.4 -24.0 18.2 -24.0 33.0 -24.0 43.5 -18.7 53.95 -13.4 53.95 -5.95 53.95 -0.8 48.75 3.45 56.05 6.45 56.05 10.9 56.05 12.9 54.4 14.7 L56.0 15.3 Q58.15 16.2 59.3 17.15 L59.35 17.2 Q61.9 19.3 57.3 20.6 50.7 22.4 25.25 23.25 -1.75 24.2 -22.8 22.9 -44.55 21.6 -53.7 18.75 -58.5 17.25 -56.95 15.75 -55.9 14.8 -52.15 13.9 L-49.6 13.35 -45.65 12.7 Q-41.35 16.55 -29.5 17.6 -17.5 17.6 -12.8 12.15 -44.25 16.6 -47.35 3.75 -49.2 8.7 -46.35 11.95 -49.6 9.0 -49.6 5.45 -49.6 0.45 -43.45 -3.1 -37.35 -6.65 -28.65 -6.65 L-28.1 -6.65 Q-23.7 -6.6 -19.9 -5.55 M18.6 9.9 Q24.55 16.2 35.55 17.6 43.6 18.6 48.0 16.75 51.05 15.4 53.05 12.15 55.2 8.7 50.5 7.2 49.7 23.85 20.05 9.9 31.4 9.75 44.95 2.25 21.4 13.15 -7.25 -3.7 3.85 9.45 18.6 9.9" fill="#ffffff" fill-rule="evenodd" stroke="none"/>
      <path d="M-46.35 11.95 Q-49.2 8.7 -47.35 3.75 -44.25 16.6 -12.8 12.15 -17.5 17.6 -29.5 17.6 -41.35 16.55 -45.65 12.7 L-46.35 11.95 M20.05 9.9 Q49.7 23.85 50.5 7.2 55.2 8.7 53.05 12.15 51.05 15.4 48.0 16.75 43.6 18.6 35.55 17.6 24.55 16.2 18.6 9.9 L17.55 8.7 20.05 9.9" fill="#d2e3e6" fill-rule="evenodd" stroke="none"/>
      <path d="M18.6 9.9 Q3.85 9.45 -7.25 -3.7 21.4 13.15 44.95 2.25 31.4 9.75 20.05 9.9 L17.55 8.7 18.6 9.9" fill="#e3f0ff" fill-rule="evenodd" stroke="none"/>
    </g>
  </defs>
</svg>
