<?xml version="1.0" encoding="UTF-8" standalone="no"?>
<svg xmlns:xlink="http://www.w3.org/1999/xlink" height="166.95px" width="101.6px" xmlns="http://www.w3.org/2000/svg">
  <g transform="matrix(1.0, 0.0, 0.0, 1.0, 51.8, 123.5)">
    <use height="92.15" transform="matrix(0.9, 0.0, 0.0, 0.9, -49.6998, -45.5296)" width="73.55" xlink:href="#shape0"/>
    <use height="79.85" transform="matrix(0.8155, -0.377, 0.377, 0.8155, -34.2019, -21.6699)" width="66.1" xlink:href="#shape1"/>
    <use height="61.55" transform="matrix(0.8986, -0.0473, 0.0473, 0.8986, -26.178, -116.408)" width="53.85" xlink:href="#shape2"/>
    <use height="72.7" transform="matrix(0.8986, -0.0473, 0.0473, 0.8986, -29.4861, -88.1612)" width="61.35" xlink:href="#shape3"/>
    <use height="50.2" transform="matrix(0.81, 0.0, 0.0, 0.81, -18.0441, -89.0901)" width="46.95" xlink:href="#shape4"/>
    <use height="14.65" transform="matrix(0.8372, 0.0, 0.0, 0.6696, -10.2291, -76.7218)" width="6.45" xlink:href="#shape5"/>
    <use height="14.65" transform="matrix(0.8372, 0.0, 0.0, 0.6696, 3.3709, -77.1718)" width="6.45" xlink:href="#shape5"/>
  </g>
  <defs>
    <g id="shape0" transform="matrix(1.0, 0.0, 0.0, 1.0, 39.0, 65.7)">
      <path d="M9.75 -62.85 Q8.3 -61.5 7.45 -58.95 6.9 -57.25 6.4 -53.9 L5.4 -48.6 Q4.65 -45.7 3.45 -43.9 L0.65 -40.15 Q-1.1 -37.95 -1.85 -36.55 -4.25 -32.45 -3.15 -28.05 -1.15 -20.25 2.9 -15.25 6.25 -11.05 10.9 -9.05 14.6 -7.45 18.75 -7.4 22.0 -7.35 24.35 -8.15 29.25 -9.9 31.75 -17.4 33.95 -24.35 33.55 -33.8 33.15 -43.15 30.4 -50.8 27.35 -59.1 22.6 -62.1 19.55 -64.05 16.2 -64.5 12.1 -65.05 9.75 -62.85 M13.35 -65.65 Q22.45 -66.4 28.05 -58.5 32.8 -51.8 34.1 -40.3 35.3 -29.95 33.35 -20.45 32.45 -16.0 31.0 -12.9 29.45 -9.75 27.55 -8.55 27.4 -8.5 27.5 -8.0 L27.75 -7.05 Q27.9 -5.65 26.55 -5.2 L28.0 0.25 Q28.95 4.25 29.2 7.35 30.05 16.25 25.6 17.95 23.65 17.25 21.2 14.6 L17.7 10.15 Q15.0 12.85 10.9 14.6 7.05 16.25 2.75 16.75 -0.8 20.85 -4.6 23.3 -8.55 25.85 -12.45 26.35 -21.05 27.35 -27.5 18.05 -29.8 14.8 -31.15 9.75 L-32.2 5.45 -33.5 0.95 -35.15 -3.55 Q-36.85 -8.55 -37.8 -13.45 -40.85 -29.05 -36.2 -39.85 -35.15 -36.55 -34.25 -34.95 -34.05 -38.95 -32.25 -42.8 -30.5 -46.55 -27.5 -49.4 -29.3 -34.6 -23.25 -41.7 -23.05 -40.55 -23.1 -39.15 L-23.2 -37.15 Q-23.15 -36.15 -22.65 -35.25 -22.1 -34.25 -20.75 -33.05 -17.1 -35.4 -12.95 -36.35 -8.35 -37.45 -4.55 -36.25 0.25 -40.5 2.7 -46.1 4.05 -49.4 5.25 -55.35 L6.1 -59.2 Q6.6 -61.2 7.35 -62.4 9.15 -65.3 13.35 -65.65 M31.4 -40.0 L31.1 -41.75 30.45 -43.4 Q29.25 -45.9 28.05 -45.2 26.6 -44.35 26.45 -41.3 26.3 -38.55 27.15 -37.0 27.85 -35.65 28.7 -35.45 29.45 -35.3 30.15 -36.0 30.75 -36.65 31.1 -37.85 31.45 -39.1 31.4 -40.0 M25.6 -41.9 Q25.95 -44.05 27.05 -45.3 L29.65 -45.4 Q31.1 -44.3 31.65 -41.4 32.25 -38.55 31.35 -36.75 30.4 -35.0 29.45 -34.85 28.45 -34.7 27.65 -35.1 26.25 -35.85 25.75 -37.9 25.25 -39.8 25.6 -41.9 M16.35 -2.8 Q16.3 -1.85 15.45 -0.3 14.55 1.2 14.55 1.7 14.55 2.75 15.9 5.2 17.15 7.5 19.15 10.1 21.15 12.75 23.0 14.4 25.0 16.25 26.1 16.25 29.2 13.7 28.15 6.1 27.75 3.1 26.8 0.0 L24.9 -4.55 Q20.7 -2.4 14.7 -3.3 8.6 -4.2 3.5 -7.95 -2.15 -12.1 -4.65 -18.45 -7.45 -25.7 -5.5 -34.7 -14.45 -36.85 -21.65 -30.7 -24.9 -27.9 -27.3 -23.7 -29.7 -19.65 -31.05 -14.7 -32.4 -9.8 -32.55 -4.6 -32.75 0.75 -31.6 5.75 -29.1 16.75 -21.15 23.05 -19.45 24.35 -17.1 24.75 -13.7 25.3 -9.65 23.6 1.9 18.75 16.35 -2.8 M23.8 -5.1 Q25.3 -5.65 25.9 -7.0 16.2 -4.85 9.15 -8.15 3.25 -10.95 -0.25 -17.25 -3.15 -22.4 -3.9 -28.6 -4.2 -31.2 -3.95 -33.35 -3.85 -35.45 -3.25 -36.55 -6.3 -32.6 -5.3 -26.1 -4.3 -19.9 -0.15 -14.25 4.15 -8.25 10.15 -5.65 16.85 -2.75 23.8 -5.1 M-27.95 -39.0 Q-28.7 -40.05 -28.6 -43.2 L-28.25 -47.65 Q-30.8 -44.8 -32.3 -39.6 -33.85 -34.45 -33.1 -30.95 -34.2 -32.05 -35.05 -33.9 L-36.3 -37.2 Q-38.65 -30.65 -37.8 -20.65 -37.0 -11.4 -34.0 -4.3 -34.2 -12.6 -31.15 -19.7 -27.95 -27.25 -21.7 -31.95 -23.15 -33.45 -23.75 -35.6 -24.3 -37.55 -24.1 -39.75 -24.95 -38.45 -25.85 -38.05 -27.0 -37.6 -27.95 -39.0 M16.4 8.4 L13.6 3.4 Q12.0 6.2 9.2 9.65 L4.3 15.35 Q7.75 14.65 10.85 12.95 14.05 11.1 16.4 8.4" fill="#000000" fill-rule="evenodd" stroke="none"/>
      <path d="M9.75 -62.85 Q12.1 -65.05 16.2 -64.5 19.55 -64.05 22.6 -62.1 27.35 -59.1 30.4 -50.8 33.15 -43.15 33.55 -33.8 33.95 -24.35 31.75 -17.4 29.25 -9.9 24.35 -8.15 22.0 -7.35 18.75 -7.4 14.6 -7.45 10.9 -9.05 6.25 -11.05 2.9 -15.25 -1.15 -20.25 -3.15 -28.05 -4.25 -32.45 -1.85 -36.55 -1.1 -37.95 0.65 -40.15 L3.45 -43.9 Q4.65 -45.7 5.4 -48.6 L6.4 -53.9 Q6.9 -57.25 7.45 -58.95 8.3 -61.5 9.75 -62.85 M25.6 -41.9 Q25.25 -39.8 25.75 -37.9 26.25 -35.85 27.65 -35.1 28.45 -34.7 29.45 -34.85 30.4 -35.0 31.35 -36.75 32.25 -38.55 31.65 -41.4 31.1 -44.3 29.65 -45.4 L27.05 -45.3 Q25.95 -44.05 25.6 -41.9 M16.35 -2.8 Q1.9 18.75 -9.65 23.6 -13.7 25.3 -17.1 24.75 -19.45 24.35 -21.15 23.05 -29.1 16.75 -31.6 5.75 -32.75 0.75 -32.55 -4.6 -32.4 -9.8 -31.05 -14.7 -29.7 -19.65 -27.3 -23.7 -24.9 -27.9 -21.65 -30.7 -14.45 -36.85 -5.5 -34.7 -7.45 -25.7 -4.65 -18.45 -2.15 -12.1 3.5 -7.95 8.6 -4.2 14.7 -3.3 20.7 -2.4 24.9 -4.55 L26.8 0.0 Q27.75 3.1 28.15 6.1 29.2 13.7 26.1 16.25 25.0 16.25 23.0 14.4 21.15 12.75 19.15 10.1 17.15 7.5 15.9 5.2 14.55 2.75 14.55 1.7 14.55 1.2 15.45 -0.3 16.3 -1.85 16.35 -2.8" fill="#660099" fill-rule="evenodd" stroke="none"/>
      <path d="M31.4 -40.0 Q31.45 -39.1 31.1 -37.85 30.75 -36.65 30.15 -36.0 29.45 -35.3 28.7 -35.45 27.85 -35.65 27.15 -37.0 26.3 -38.55 26.45 -41.3 26.6 -44.35 28.05 -45.2 29.25 -45.9 30.45 -43.4 L31.1 -41.75 31.4 -40.0" fill="#ffff00" fill-rule="evenodd" stroke="none"/>
      <path d="M23.8 -5.1 Q16.85 -2.75 10.15 -5.65 4.15 -8.25 -0.15 -14.25 -4.3 -19.9 -5.3 -26.1 -6.3 -32.6 -3.25 -36.55 -3.85 -35.45 -3.95 -33.35 -4.2 -31.2 -3.9 -28.6 -3.15 -22.4 -0.25 -17.25 3.25 -10.95 9.15 -8.15 16.2 -4.85 25.9 -7.0 25.3 -5.65 23.8 -5.1" fill="#990000" fill-rule="evenodd" stroke="none"/>
      <path d="M16.4 8.4 Q14.05 11.1 10.85 12.95 7.75 14.65 4.3 15.35 L9.2 9.65 Q12.0 6.2 13.6 3.4 L16.4 8.4 M-27.95 -39.0 Q-27.0 -37.6 -25.85 -38.05 -24.95 -38.45 -24.1 -39.75 -24.3 -37.55 -23.75 -35.6 -23.15 -33.45 -21.7 -31.95 -27.95 -27.25 -31.15 -19.7 -34.2 -12.6 -34.0 -4.3 -37.0 -11.4 -37.8 -20.65 -38.65 -30.65 -36.3 -37.2 L-35.05 -33.9 Q-34.2 -32.05 -33.1 -30.95 -33.85 -34.45 -32.3 -39.6 -30.8 -44.8 -28.25 -47.65 L-28.6 -43.2 Q-28.7 -40.05 -27.95 -39.0" fill="#ffffff" fill-rule="evenodd" stroke="none"/>
    </g>
    <g id="shape1" transform="matrix(1.0, 0.0, 0.0, 1.0, 33.75, 7.9)">
      <path d="M4.8 7.15 L5.0 7.15 4.85 7.25 Q4.4 7.65 2.9 8.05 L-1.1 9.1 Q-7.2 10.8 -10.1 13.95 L-9.15 15.35 -8.55 16.45 -6.25 18.45 Q-4.8 19.3 -3.95 21.75 -3.15 23.95 -3.35 25.75 3.1 24.45 5.1 26.95 L10.0 22.2 Q14.3 17.9 17.1 15.55 26.65 7.45 30.5 10.6 32.55 12.25 32.3 15.25 32.1 17.8 30.15 21.0 28.5 23.8 26.1 26.2 23.75 28.5 21.95 29.25 L20.45 28.35 Q19.85 27.8 19.75 26.8 L21.85 23.9 24.7 20.7 26.85 17.85 Q27.6 16.55 26.9 16.05 25.2 14.75 17.2 22.05 L7.8 31.35 Q9.35 32.2 10.35 34.2 11.4 36.2 11.3 38.4 11.2 40.8 9.8 42.6 8.2 44.55 5.1 45.3 4.6 47.15 2.3 48.3 0.25 49.3 -1.7 49.0 -3.55 51.1 -6.45 51.25 -9.25 51.35 -10.9 49.6 L-21.75 62.5 -29.35 71.65 Q-30.6 72.35 -31.95 71.3 L-32.85 70.4 -33.25 69.6 Q-33.5 67.6 -25.75 58.5 L-19.5 51.35 -14.65 46.0 Q-16.3 43.55 -17.7 39.55 -26.2 41.05 -28.45 33.9 -29.1 31.85 -29.35 28.3 -29.6 25.0 -29.85 24.5 -36.85 9.9 -31.35 3.9 -29.5 1.85 -26.1 0.75 L-23.55 0.05 -21.6 -0.45 Q-19.2 -1.15 -8.7 -5.2 -0.55 -8.35 -0.4 -7.85 L-0.45 -7.75 Q-0.8 -7.5 -3.1 -6.4 -5.95 -5.05 -9.45 -3.6 -19.1 0.35 -24.25 1.1 -28.05 1.65 -30.05 4.4 -31.75 6.85 -31.95 10.7 -32.1 14.1 -31.1 18.0 -30.15 21.55 -28.55 24.15 -25.2 19.55 -20.5 17.45 -15.35 15.05 -10.1 16.35 -11.35 13.7 -20.3 9.2 -18.3 8.95 -16.0 10.05 -14.75 10.55 -12.1 12.3 L-12.05 12.2 -14.15 9.45 Q-15.4 7.85 -16.6 6.95 -15.65 6.95 -13.45 8.95 -11.5 10.7 -10.85 11.8 -6.3 9.05 4.8 7.15 M21.15 28.15 Q22.0 28.8 24.3 26.9 26.65 25.05 28.65 22.2 30.95 19.0 31.5 16.25 32.15 13.0 30.15 11.35 26.55 8.2 15.35 17.9 9.6 22.85 2.05 31.2 L5.1 33.6 9.05 29.1 15.65 22.55 Q24.75 14.05 26.9 15.1 28.5 15.85 27.5 17.7 26.9 18.9 24.55 21.5 22.0 24.3 21.3 25.35 20.1 27.3 21.15 28.15 M9.1 34.7 Q8.2 32.9 7.25 32.05 L5.85 34.05 6.65 34.6 Q7.05 34.95 7.0 35.4 4.2 37.2 0.0 28.95 L1.6 30.7 4.6 27.45 Q2.9 26.1 0.8 26.2 L-2.75 27.05 -6.25 27.4 Q-8.15 27.0 -9.8 24.85 -16.95 26.35 -20.3 33.1 -18.9 33.8 -17.3 37.3 L-15.95 40.6 -14.45 43.95 Q-12.55 47.8 -10.3 49.2 -7.45 50.95 -3.45 49.1 L-4.15 48.7 -1.8 48.4 0.65 48.0 Q3.5 47.25 4.05 44.95 3.0 45.1 2.45 44.35 6.75 44.15 8.7 42.5 10.35 41.05 10.25 38.75 10.2 36.85 9.1 34.7 M-8.85 24.85 Q-6.75 26.5 -5.1 26.0 -3.5 23.35 -5.05 21.0 -6.45 18.8 -9.8 17.8 L-16.95 17.45 Q-21.05 18.2 -23.9 21.0 -27.4 24.3 -28.15 28.0 -28.8 31.25 -27.3 34.05 -25.85 36.65 -23.25 37.95 -20.55 39.25 -18.0 38.5 L-18.9 35.8 Q-19.5 34.3 -20.65 33.7 -20.95 34.5 -22.15 35.8 -21.0 30.8 -16.65 27.35 -12.4 23.95 -7.05 23.6 -6.4 24.0 -8.85 24.85 M-30.45 65.7 Q-32.6 68.75 -32.3 69.35 -32.35 70.05 -31.2 70.75 -30.05 71.45 -29.75 71.0 L-24.45 64.4 Q-25.7 64.5 -26.5 63.65 -27.4 62.8 -27.25 61.6 -28.75 63.2 -30.45 65.7 M-11.7 49.1 L-14.35 46.75 -20.75 53.85 -26.4 60.35 Q-26.7 60.95 -26.55 61.65 L-26.0 62.9 -25.0 63.7 Q-24.35 63.9 -23.75 63.5 L-11.7 49.1" fill="#000000" fill-rule="evenodd" stroke="none"/>
      <path d="M-0.45 -7.75 Q9.85 -4.75 4.8 7.15 -6.3 9.05 -10.85 11.8 -11.5 10.7 -13.45 8.95 -15.65 6.95 -16.6 6.95 -15.4 7.85 -14.15 9.45 L-12.05 12.2 -12.1 12.3 Q-14.75 10.55 -16.0 10.05 -18.3 8.95 -20.3 9.2 -11.35 13.7 -10.1 16.35 -15.35 15.05 -20.5 17.45 -25.2 19.55 -28.55 24.15 -30.15 21.55 -31.1 18.0 -32.1 14.1 -31.95 10.7 -31.75 6.85 -30.05 4.4 -28.05 1.65 -24.25 1.1 -19.1 0.35 -9.45 -3.6 -5.95 -5.05 -3.1 -6.4 -0.8 -7.5 -0.45 -7.75" fill="#660099" fill-rule="evenodd" stroke="none"/>
      <path d="M21.15 28.15 Q20.1 27.3 21.3 25.35 22.0 24.3 24.55 21.5 26.9 18.9 27.5 17.7 28.5 15.85 26.9 15.1 24.75 14.05 15.65 22.55 L9.05 29.1 5.1 33.6 2.05 31.2 Q9.6 22.85 15.35 17.9 26.55 8.2 30.15 11.35 32.15 13.0 31.5 16.25 30.95 19.0 28.65 22.2 26.65 25.05 24.3 26.9 22.0 28.8 21.15 28.15 M-11.7 49.1 L-23.75 63.5 Q-24.35 63.9 -25.0 63.7 L-26.0 62.9 -26.55 61.65 Q-26.7 60.95 -26.4 60.35 L-20.75 53.85 -14.35 46.75 -11.7 49.1" fill="#996600" fill-rule="evenodd" stroke="none"/>
      <path d="M9.1 34.7 Q10.2 36.85 10.25 38.75 10.35 41.05 8.7 42.5 6.75 44.15 2.45 44.35 3.0 45.1 4.05 44.95 3.5 47.25 0.65 48.0 L-1.8 48.4 -4.15 48.7 -3.45 49.1 Q-7.45 50.95 -10.3 49.2 -12.55 47.8 -14.45 43.95 L-15.95 40.6 -17.3 37.3 Q-18.9 33.8 -20.3 33.1 -16.95 26.35 -9.8 24.85 -8.15 27.0 -6.25 27.4 L-2.75 27.05 0.8 26.2 Q2.9 26.1 4.6 27.45 L1.6 30.7 0.0 28.95 Q4.2 37.2 7.0 35.4 7.05 34.95 6.65 34.6 L5.85 34.05 7.25 32.05 Q8.2 32.9 9.1 34.7" fill="#ffffff" fill-rule="evenodd" stroke="none"/>
      <path d="M-8.85 24.85 Q-6.4 24.0 -7.05 23.6 -12.4 23.95 -16.65 27.35 -21.0 30.8 -22.15 35.8 -20.95 34.5 -20.65 33.7 -19.5 34.3 -18.9 35.8 L-18.0 38.5 Q-20.55 39.25 -23.25 37.95 -25.85 36.65 -27.3 34.05 -28.8 31.25 -28.15 28.0 -27.4 24.3 -23.9 21.0 -21.05 18.2 -16.95 17.45 L-9.8 17.8 Q-6.45 18.8 -5.05 21.0 -3.5 23.35 -5.1 26.0 -6.75 26.5 -8.85 24.85" fill="#990000" fill-rule="evenodd" stroke="none"/>
      <path d="M-30.45 65.7 Q-28.75 63.2 -27.25 61.6 -27.4 62.8 -26.5 63.65 -25.7 64.5 -24.45 64.4 L-29.75 71.0 Q-30.05 71.45 -31.2 70.75 -32.35 70.05 -32.3 69.35 -32.6 68.75 -30.45 65.7" fill="#ffff00" fill-rule="evenodd" stroke="none"/>
    </g>
    <g id="shape2" transform="matrix(1.0, 0.0, 0.0, 1.0, 26.9, 30.75)">
      <path d="M3.2 -30.55 L4.05 -30.45 Q9.9 -29.75 14.55 -27.05 L15.2 -26.65 Q19.15 -24.3 20.2 -21.5 L19.35 -17.2 18.1 -10.1 Q19.65 -9.2 21.7 -6.65 24.35 -3.35 25.75 0.6 27.45 5.6 26.7 10.8 26.35 13.2 25.45 15.6 24.05 19.15 21.55 22.6 1.1 39.0 -20.9 22.6 -25.65 18.35 -26.65 12.9 -27.5 8.35 -25.7 3.25 -24.3 -0.7 -21.65 -4.45 -19.6 -7.35 -18.3 -8.25 L-19.35 -14.6 -20.25 -20.95 Q-15.4 -26.9 -8.5 -29.3 -4.75 -30.6 -0.65 -30.7 L3.2 -30.55 M-8.4 -11.0 Q-12.65 -12.3 -17.1 -8.6 -21.25 -5.2 -23.75 0.75 -25.3 4.45 -25.7 8.0 L-24.75 5.95 Q-21.7 -0.75 -19.7 -3.35 -17.55 -6.25 -15.35 -7.85 -12.9 -9.7 -10.9 -9.5 -9.35 -9.4 -7.75 -8.6 L-4.9 -6.9 -2.15 -5.0 Q-0.55 -4.05 0.85 -3.65 4.2 -2.7 8.0 -4.45 L11.0 -6.15 11.25 -6.3 13.75 -7.65 Q15.2 -8.35 16.35 -8.3 17.7 -8.3 18.9 -7.35 21.65 -5.25 24.35 2.35 25.65 6.05 25.6 11.3 L25.8 10.15 Q26.45 5.2 24.8 0.35 23.45 -3.5 20.95 -6.6 18.8 -9.25 17.35 -9.8 14.95 -10.7 12.15 -9.0 L11.7 -8.7 9.9 -7.4 Q8.45 -6.4 7.6 -5.95 4.7 -4.5 2.5 -4.65 L2.15 -4.7 Q0.6 -4.95 -1.0 -6.05 L-1.15 -6.15 -1.75 -6.6 -2.75 -7.4 -4.4 -8.75 Q-6.45 -10.4 -8.4 -11.0 M0.25 -29.95 L-0.65 -29.9 Q0.9 -19.75 -0.9 -11.05 L2.45 -11.1 3.1 -11.05 Q9.1 -10.9 11.65 -9.7 L11.95 -9.85 Q12.35 -18.25 15.05 -25.85 13.35 -27.15 11.3 -28.0 7.55 -29.65 3.15 -29.9 L0.25 -29.95 M-1.65 -7.3 L-0.95 -7.0 Q0.55 -6.35 2.25 -6.15 L2.8 -6.1 Q7.35 -5.85 10.85 -9.1 6.9 -10.4 2.4 -10.45 L-0.95 -10.3 -1.2 -10.3 -5.05 -9.8 Q-3.45 -8.2 -1.65 -7.3 M12.15 21.0 Q16.25 17.9 16.25 13.75 L16.05 12.05 Q15.3 8.6 11.5 6.05 6.75 2.85 0.1 2.85 -6.6 2.85 -11.3 6.05 -14.5 8.15 -15.5 10.9 -16.05 12.2 -16.05 13.75 -16.05 18.25 -11.3 21.45 L-9.55 22.5 Q-5.4 24.6 0.1 24.65 6.75 24.6 11.5 21.45 L12.15 21.0" fill="#000000" fill-rule="evenodd" stroke="none"/>
      <path d="M0.25 -29.95 L3.15 -29.9 Q7.55 -29.65 11.3 -28.0 13.35 -27.15 15.05 -25.85 12.35 -18.25 11.95 -9.85 L11.65 -9.7 Q9.1 -10.9 3.1 -11.05 L2.45 -11.1 -0.9 -11.05 Q0.9 -19.75 -0.65 -29.9 L0.25 -29.95 M-8.4 -11.0 Q-6.45 -10.4 -4.4 -8.75 L-2.75 -7.4 -1.75 -6.6 -1.15 -6.15 -1.0 -6.05 Q0.6 -4.95 2.15 -4.7 L2.5 -4.65 Q4.7 -4.5 7.6 -5.95 8.45 -6.4 9.9 -7.4 L11.7 -8.7 12.15 -9.0 Q14.95 -10.7 17.35 -9.8 18.8 -9.25 20.95 -6.6 23.45 -3.5 24.8 0.35 26.45 5.2 25.8 10.15 L25.6 11.3 Q25.65 6.05 24.35 2.35 21.65 -5.25 18.9 -7.35 17.7 -8.3 16.35 -8.3 15.2 -8.35 13.75 -7.65 L11.25 -6.3 11.0 -6.15 8.0 -4.45 Q4.2 -2.7 0.85 -3.65 -0.55 -4.05 -2.15 -5.0 L-4.9 -6.9 -7.75 -8.6 Q-9.35 -9.4 -10.9 -9.5 -12.9 -9.7 -15.35 -7.85 -17.55 -6.25 -19.7 -3.35 -21.7 -0.75 -24.75 5.95 L-25.7 8.0 Q-25.3 4.45 -23.75 0.75 -21.25 -5.2 -17.1 -8.6 -12.65 -12.3 -8.4 -11.0" fill="#00ccff" fill-rule="evenodd" stroke="none"/>
      <path d="M-1.2 -10.3 L-0.95 -10.3 2.4 -10.45 Q6.9 -10.4 10.85 -9.1 7.35 -5.85 2.8 -6.1 L2.25 -6.15 Q0.55 -6.35 -0.95 -7.0 L-1.65 -7.3 -1.2 -10.3" fill="#cc0000" fill-rule="evenodd" stroke="none"/>
      <path d="M-1.65 -7.3 Q-3.45 -8.2 -5.05 -9.8 L-1.2 -10.3 -1.65 -7.3" fill="#990000" fill-rule="evenodd" stroke="none"/>
      <path d="M12.15 21.0 L11.5 21.45 Q6.75 24.6 0.1 24.65 -5.4 24.6 -9.55 22.5 L-9.0 18.05 Q-4.9 20.05 0.45 20.1 6.75 20.05 11.35 17.25 L12.15 21.0" fill="#660000" fill-rule="evenodd" stroke="none"/>
      <path d="M-15.5 10.9 Q-14.5 8.15 -11.3 6.05 -6.6 2.85 0.1 2.85 6.75 2.85 11.5 6.05 15.3 8.6 16.05 12.05 15.0 14.75 11.85 16.9 L11.35 17.25 Q6.75 20.05 0.45 20.1 -4.9 20.05 -9.0 18.05 L-10.95 16.9 Q-14.8 14.3 -15.5 10.9" fill="#333333" fill-rule="evenodd" stroke="none"/>
      <path d="M16.05 12.05 L16.25 13.75 Q16.25 17.9 12.15 21.0 L11.35 17.25 11.85 16.9 Q15.0 14.75 16.05 12.05 M-9.55 22.5 L-11.3 21.45 Q-16.05 18.25 -16.05 13.75 -16.05 12.2 -15.5 10.9 -14.8 14.3 -10.95 16.9 L-9.0 18.05 -9.55 22.5" fill="#330000" fill-rule="evenodd" stroke="none"/>
    </g>
    <g id="shape3" transform="matrix(1.0, 0.0, 0.0, 1.0, 32.9, 57.5)">
      <path d="M25.95 -46.6 L24.95 -43.15 Q23.45 -39.35 20.65 -35.6 21.6 -33.8 27.15 -36.95 27.15 -35.2 25.5 -32.85 27.25 -31.05 28.05 -28.95 28.9 -26.5 28.05 -24.4 L24.45 -27.6 Q30.4 -17.6 23.65 -13.8 23.9 -16.0 22.05 -18.15 21.75 -16.1 20.5 -13.9 L17.85 -10.15 Q18.0 -12.65 16.75 -14.8 15.55 -16.9 13.65 -17.75 11.65 -18.7 9.9 -17.75 7.85 -16.75 6.75 -13.55 9.15 -12.0 10.9 -8.1 12.55 -4.5 13.1 0.05 13.7 4.65 12.9 8.45 12.05 12.5 9.8 14.4 8.05 14.35 6.7 13.05 5.7 12.1 4.6 10.2 L2.8 7.25 Q1.8 5.85 0.8 5.7 L-0.65 8.0 -2.2 10.95 Q-4.3 14.7 -5.85 15.05 -9.35 15.8 -11.5 12.5 -13.5 9.5 -13.8 4.15 -14.15 -1.15 -12.65 -6.35 -11.15 -11.95 -8.15 -15.15 -8.05 -16.9 -9.65 -17.8 -11.2 -18.65 -13.4 -18.25 -15.8 -17.85 -17.6 -16.15 -19.75 -14.2 -20.45 -11.0 -22.25 -10.9 -23.95 -14.25 L-25.1 -17.0 -25.65 -19.2 Q-27.3 -18.1 -27.8 -14.1 -29.75 -17.25 -30.3 -20.85 -30.9 -24.9 -29.3 -27.8 L-31.15 -26.55 -32.9 -25.1 Q-33.0 -27.3 -32.1 -29.4 -31.3 -31.45 -29.8 -33.1 -30.45 -36.35 -29.7 -38.95 -23.75 -32.0 -21.25 -36.0 -26.15 -40.3 -27.15 -45.85 L-27.4 -49.4 -21.0 -49.4 -21.0 -57.5 20.8 -57.5 20.8 -46.6 25.95 -46.6 M25.05 -31.9 L24.05 -33.15 Q25.75 -33.85 26.3 -36.0 25.0 -34.75 22.8 -34.3 20.35 -33.85 19.3 -35.2 19.1 -55.65 1.15 -56.95 -7.5 -57.6 -12.4 -52.85 -17.25 -48.3 -19.3 -37.7 -19.7 -35.6 -20.95 -34.55 -22.1 -33.6 -23.65 -33.65 -25.2 -33.75 -26.65 -34.65 -28.2 -35.6 -29.15 -37.15 -29.5 -34.45 -27.9 -33.15 -29.85 -32.75 -30.95 -30.6 L-31.7 -28.6 -32.25 -26.6 -31.25 -27.5 -29.8 -28.65 Q-27.85 -29.95 -27.0 -29.25 -29.45 -26.95 -29.75 -22.8 -30.05 -18.7 -28.1 -15.95 -28.0 -17.3 -26.95 -19.05 -25.8 -20.95 -24.6 -21.3 -25.2 -15.25 -21.0 -11.95 -20.8 -13.2 -19.85 -14.65 -18.95 -16.15 -17.6 -17.35 L-14.85 -19.3 Q-13.3 -20.0 -12.0 -19.7 L-10.4 -19.05 -7.15 -17.8 Q-2.0 -16.15 2.9 -16.35 4.15 -16.4 5.85 -17.05 L8.7 -18.25 Q10.35 -18.95 11.55 -19.05 13.1 -19.25 14.5 -18.55 16.45 -17.65 17.45 -15.65 18.3 -13.9 18.25 -11.55 20.6 -14.8 21.45 -20.5 24.1 -17.35 24.45 -15.45 25.9 -17.4 26.05 -19.25 26.2 -20.75 25.5 -22.55 L24.1 -25.6 Q23.25 -27.5 23.15 -28.9 L25.8 -27.75 Q27.2 -26.95 27.7 -25.75 28.35 -28.35 26.55 -30.45 L25.05 -31.9 M5.3 -7.5 Q4.75 -4.8 4.7 -2.7 2.4 0.2 -1.9 -1.15 -3.15 -1.6 -4.75 -2.45 L-6.25 -3.2 -6.8 -8.55 Q-7.2 -11.5 -7.85 -13.8 -9.75 -11.8 -11.1 -7.45 -12.45 -3.2 -12.65 1.3 -12.9 6.15 -11.65 9.35 -10.25 13.0 -7.15 13.6 -6.2 13.8 -4.85 12.4 L-2.3 9.1 0.55 5.4 Q2.25 3.5 3.8 3.0 L2.75 4.05 Q1.85 4.65 1.6 5.0 2.75 5.55 3.75 6.7 L5.3 8.95 6.75 11.3 Q7.65 12.5 8.7 13.2 10.6 13.05 11.5 9.7 12.35 6.55 12.0 2.0 11.65 -2.65 10.25 -6.45 8.7 -10.65 6.35 -12.25 L5.3 -7.5 M3.75 -3.2 Q4.1 -9.9 6.6 -16.2 0.6 -14.25 -7.45 -16.75 -5.5 -11.45 -5.4 -3.9 -0.8 -0.2 3.75 -3.2" fill="#000000" fill-rule="evenodd" stroke="none"/>
      <path d="M25.05 -31.9 L26.55 -30.45 Q28.35 -28.35 27.7 -25.75 27.2 -26.95 25.8 -27.75 L23.15 -28.9 Q23.25 -27.5 24.1 -25.6 L25.5 -22.55 Q26.2 -20.75 26.05 -19.25 25.9 -17.4 24.45 -15.45 24.1 -17.35 21.45 -20.5 20.6 -14.8 18.25 -11.55 18.3 -13.9 17.45 -15.65 16.45 -17.65 14.5 -18.55 13.1 -19.25 11.55 -19.05 10.35 -18.95 8.7 -18.25 L5.85 -17.05 Q4.15 -16.4 2.9 -16.35 -2.0 -16.15 -7.15 -17.8 L-10.4 -19.05 -12.0 -19.7 Q-13.3 -20.0 -14.85 -19.3 L-17.6 -17.35 Q-18.95 -16.15 -19.85 -14.65 -20.8 -13.2 -21.0 -11.95 -25.2 -15.25 -24.6 -21.3 -25.8 -20.95 -26.95 -19.05 -28.0 -17.3 -28.1 -15.95 -30.05 -18.7 -29.75 -22.8 -29.45 -26.95 -27.0 -29.25 -27.85 -29.95 -29.8 -28.65 L-31.25 -27.5 -32.25 -26.6 -31.7 -28.6 -30.95 -30.6 Q-29.85 -32.75 -27.9 -33.15 -29.5 -34.45 -29.15 -37.15 -28.2 -35.6 -26.65 -34.65 -25.2 -33.75 -23.65 -33.65 -22.1 -33.6 -20.95 -34.55 -19.7 -35.6 -19.3 -37.7 -17.25 -48.3 -12.4 -52.85 -7.5 -57.6 1.15 -56.95 19.1 -55.65 19.3 -35.2 20.35 -33.85 22.8 -34.3 25.0 -34.75 26.3 -36.0 25.75 -33.85 24.05 -33.15 L25.05 -31.9 M3.75 -3.2 Q-0.8 -0.2 -5.4 -3.9 -5.5 -11.45 -7.45 -16.75 0.6 -14.25 6.6 -16.2 4.1 -9.9 3.75 -3.2" fill="#ffffff" fill-rule="evenodd" stroke="none"/>
      <path d="M5.3 -7.5 L6.35 -12.25 Q8.7 -10.65 10.25 -6.45 11.65 -2.65 12.0 2.0 12.35 6.55 11.5 9.7 10.6 13.05 8.7 13.2 7.65 12.5 6.75 11.3 L5.3 8.95 3.75 6.7 Q2.75 5.55 1.6 5.0 1.85 4.65 2.75 4.05 L3.8 3.0 Q2.25 3.5 0.55 5.4 L-2.3 9.1 -4.85 12.4 Q-6.2 13.8 -7.15 13.6 -10.25 13.0 -11.65 9.35 -12.9 6.15 -12.65 1.3 -12.45 -3.2 -11.1 -7.45 -9.75 -11.8 -7.85 -13.8 -7.2 -11.5 -6.8 -8.55 L-6.25 -3.2 -4.75 -2.45 Q-3.15 -1.6 -1.9 -1.15 2.4 0.2 4.7 -2.7 4.75 -4.8 5.3 -7.5" fill="#990000" fill-rule="evenodd" stroke="none"/>
    </g>
    <g id="shape4" transform="matrix(1.0, 0.0, 0.0, 1.0, 23.45, 25.05)">
      <path d="M4.65 -17.45 Q5.1 -20.5 6.75 -22.6 8.55 -24.95 10.75 -25.05 13.05 -25.15 14.6 -22.7 16.1 -20.25 16.4 -15.85 L16.45 -14.8 16.45 -14.5 15.8 -17.9 15.0 -20.9 Q14.4 -22.3 13.3 -23.0 12.0 -23.9 9.8 -24.0 7.75 -23.1 6.4 -20.85 5.8 -19.9 4.85 -17.4 L4.5 -16.5 4.65 -17.45 M19.1 4.3 Q20.05 4.75 21.05 6.0 22.15 7.4 22.85 9.1 23.5 10.95 23.5 12.55 23.4 14.25 22.4 15.3 21.8 15.85 20.7 16.15 L18.85 16.75 Q19.65 17.15 20.15 18.15 20.6 19.1 20.45 20.1 20.25 21.15 19.3 21.7 18.2 22.35 16.3 22.15 L15.5 23.8 14.05 24.95 10.95 25.0 7.7 24.4 2.3 23.75 -4.5 23.95 -10.95 24.35 Q-12.2 24.3 -13.25 23.6 -14.45 22.8 -14.85 21.75 L-17.55 21.45 Q-18.65 20.9 -19.15 19.8 -19.7 18.7 -19.45 17.55 -19.2 16.25 -18.2 15.4 L-20.7 14.65 Q-22.15 14.15 -22.8 13.2 -23.6 12.2 -23.45 10.55 -23.35 9.05 -22.6 7.35 -21.9 5.75 -20.8 4.45 -19.9 3.3 -19.0 2.75 L-18.65 2.55 -20.35 4.8 Q-21.35 6.2 -21.7 7.3 -18.75 5.85 -13.7 8.5 -14.5 5.7 -14.95 2.3 -15.55 -1.9 -15.35 -5.45 -14.95 -15.05 -9.45 -16.8 L-11.55 -18.1 Q-7.7 -17.05 -5.55 -14.6 -3.7 -12.35 -2.6 -9.4 -1.55 -6.45 -1.25 -3.35 -0.95 -0.3 -1.15 2.5 L-1.35 4.6 -1.6 6.6 2.7 6.75 3.05 5.85 3.1 3.45 Q3.0 -0.75 3.35 -3.4 4.45 -13.35 12.05 -18.7 L10.6 -17.1 Q13.55 -15.0 15.3 -11.5 16.9 -8.35 17.3 -4.4 17.65 -0.7 16.9 3.15 16.1 6.9 14.4 9.95 L17.85 9.05 21.4 8.9 Q21.45 7.75 20.45 6.35 L19.55 5.25 19.15 4.7 18.75 4.15 19.1 4.3 M-16.15 -12.95 L-16.2 -12.75 Q-16.35 -17.35 -14.95 -20.55 -13.7 -23.5 -11.6 -24.4 -9.6 -25.3 -7.7 -23.85 -5.8 -22.3 -4.85 -18.65 L-4.8 -18.45 -4.95 -18.65 -5.8 -20.15 -6.8 -21.8 Q-8.05 -23.6 -10.05 -23.65 -13.3 -23.75 -15.0 -18.35 L-15.85 -14.55 -15.95 -14.2 -16.15 -12.95 M16.75 -0.45 Q17.1 -6.65 15.45 -9.95 13.8 -13.3 12.8 -14.5 11.7 -15.75 10.1 -16.6 6.0 -13.0 4.6 -7.2 3.2 -1.5 3.7 4.7 L3.7 4.85 4.65 3.65 Q5.4 2.9 6.35 2.65 L6.65 2.6 7.35 2.5 7.4 2.5 7.7 2.5 8.85 2.7 9.65 2.95 9.8 3.05 Q11.2 3.75 12.0 5.3 L12.25 5.85 Q12.7 6.9 12.8 8.15 L12.75 9.55 12.8 10.2 13.6 10.05 Q16.35 5.7 16.75 -0.45 M20.4 15.35 Q21.6 14.65 22.25 13.55 23.0 12.35 22.8 11.15 22.65 10.0 21.35 9.75 L18.35 9.85 15.05 10.55 12.65 10.85 Q12.25 11.95 11.45 12.9 L9.55 14.4 Q11.9 15.15 12.85 16.0 L12.8 16.05 Q8.3 14.4 0.95 14.25 -6.45 14.0 -11.35 15.4 -10.75 14.9 -9.5 14.65 L-7.75 14.15 -7.6 14.1 -8.95 13.65 -10.15 12.8 Q-11.1 11.9 -11.65 10.25 L-14.0 9.3 -16.8 8.1 Q-20.35 6.75 -21.95 9.05 -23.6 11.35 -22.0 12.9 -20.45 14.4 -18.85 14.6 L-17.25 14.8 -16.0 13.9 Q-17.75 11.5 -20.25 11.4 L-20.2 12.05 Q-20.15 12.45 -20.25 12.65 -21.0 11.9 -20.6 10.85 -20.2 9.75 -18.95 9.45 -19.85 10.05 -20.0 10.85 -16.6 11.15 -15.45 13.2 -15.15 12.65 -15.35 11.3 -14.15 12.9 -14.75 13.7 L-16.6 15.5 -18.3 17.15 Q-19.0 18.15 -18.5 19.25 -17.95 20.5 -16.5 21.0 -6.55 18.8 0.5 18.65 9.7 18.45 17.1 21.5 18.75 21.25 19.1 20.55 19.7 19.25 18.85 18.25 L16.8 16.65 Q14.7 13.95 15.95 12.35 15.7 13.25 16.05 13.85 17.1 12.9 17.7 12.6 18.85 11.95 20.05 12.25 L19.5 10.9 Q20.65 11.9 20.55 12.9 20.4 13.9 19.75 14.2 L20.15 12.75 Q16.95 12.75 16.65 14.9 16.85 16.0 18.05 16.0 19.2 16.0 20.4 15.35 M11.6 6.2 L11.4 5.7 Q10.65 4.3 9.4 3.7 L9.25 3.6 Q8.25 3.05 7.25 3.2 L7.2 3.2 Q6.05 3.25 5.0 4.05 3.3 5.35 2.85 7.6 2.4 9.65 3.2 11.4 L3.3 11.65 Q4.2 13.15 5.65 13.75 L6.3 13.95 8.1 14.0 8.25 13.95 9.85 13.25 10.05 13.1 Q11.4 12.1 11.85 10.4 L12.0 9.8 12.05 8.3 Q12.0 7.15 11.6 6.2 M0.2 22.8 L7.35 23.6 13.65 24.05 14.7 23.15 15.1 21.8 Q8.8 19.5 0.7 19.6 -6.45 19.65 -13.9 21.5 L-12.45 22.9 Q-11.65 23.5 -10.65 23.5 L-5.2 23.1 0.2 22.8 M3.3 12.3 L3.15 12.15 3.05 11.9 2.9 11.6 2.8 11.45 2.6 10.85 Q2.0 9.05 2.5 7.5 L-1.3 7.6 -1.25 8.65 Q-1.3 10.2 -1.85 11.4 -2.35 12.55 -3.35 13.4 L0.6 13.15 4.25 13.45 3.3 12.3 M-13.75 -11.25 Q-14.95 -7.3 -14.9 -2.65 -14.85 2.0 -14.0 5.45 -13.3 8.25 -12.2 9.15 L-11.65 9.25 -11.7 8.45 -11.7 8.3 -11.7 7.7 -11.6 6.7 -11.2 5.45 -10.5 4.2 -10.3 3.95 -10.15 3.8 -8.8 2.7 -8.15 2.45 -8.1 2.45 -7.8 2.4 -6.6 2.3 -5.8 2.4 -5.65 2.45 Q-4.1 2.8 -2.95 4.15 L-2.6 4.6 -2.0 5.55 Q-0.15 -12.15 -9.1 -16.6 -12.6 -15.25 -13.75 -11.25 M-7.8 3.2 L-8.1 3.25 Q-9.2 3.6 -10.05 4.65 -11.35 6.25 -11.3 8.55 L-11.2 9.45 Q-11.0 11.0 -10.05 12.2 L-9.9 12.4 Q-8.45 13.95 -6.45 13.95 -5.5 13.95 -4.65 13.55 L-4.55 13.5 Q-3.7 13.15 -3.0 12.25 -1.95 10.95 -1.85 9.2 -1.7 8.2 -2.15 7.1 -2.55 5.75 -3.4 4.75 -4.45 3.55 -5.85 3.25 L-7.8 3.2" fill="#000000" fill-rule="evenodd" stroke="none"/>
      <path d="M20.4 15.35 Q19.2 16.0 18.05 16.0 16.85 16.0 16.65 14.9 16.95 12.75 20.15 12.75 L19.75 14.2 Q20.4 13.9 20.55 12.9 20.65 11.9 19.5 10.9 L20.05 12.25 Q18.85 11.95 17.7 12.6 17.1 12.9 16.05 13.85 15.7 13.25 15.95 12.35 14.7 13.95 16.8 16.65 L18.85 18.25 Q19.7 19.25 19.1 20.55 18.75 21.25 17.1 21.5 9.7 18.45 0.5 18.65 -6.55 18.8 -16.5 21.0 -17.95 20.5 -18.5 19.25 -19.0 18.15 -18.3 17.15 L-16.6 15.5 -14.75 13.7 Q-14.15 12.9 -15.35 11.3 -15.15 12.65 -15.45 13.2 -16.6 11.15 -20.0 10.85 -19.85 10.05 -18.95 9.45 -20.2 9.75 -20.6 10.85 -21.0 11.9 -20.25 12.65 -20.15 12.45 -20.2 12.05 L-20.25 11.4 Q-17.75 11.5 -16.0 13.9 L-17.25 14.8 -18.85 14.6 Q-20.45 14.4 -22.0 12.9 -23.6 11.35 -21.95 9.05 -20.35 6.75 -16.8 8.1 L-14.0 9.3 -11.65 10.25 Q-11.1 11.9 -10.15 12.8 L-8.95 13.65 -7.6 14.1 -7.75 14.15 -9.5 14.65 Q-10.75 14.9 -11.35 15.4 -6.45 14.0 0.95 14.25 8.3 14.4 12.8 16.05 L12.85 16.0 Q11.9 15.15 9.55 14.4 L11.45 12.9 Q12.25 11.95 12.65 10.85 L15.05 10.55 18.35 9.85 21.35 9.75 Q22.65 10.0 22.8 11.15 23.0 12.35 22.25 13.55 21.6 14.65 20.4 15.35 M3.3 12.3 L4.25 13.45 0.6 13.15 -3.35 13.4 Q-2.35 12.55 -1.85 11.4 -1.3 10.2 -1.25 8.65 L-1.3 7.6 2.5 7.5 Q2.0 9.05 2.6 10.85 L2.8 11.45 2.9 11.6 3.05 11.9 3.15 12.15 3.3 12.3 M0.2 22.8 L-5.2 23.1 -10.65 23.5 Q-11.65 23.5 -12.45 22.9 L-13.9 21.5 Q-6.45 19.65 0.7 19.6 8.8 19.5 15.1 21.8 L14.7 23.15 13.65 24.05 7.35 23.6 0.2 22.8" fill="#ffcc00" fill-rule="evenodd" stroke="none"/>
      <path d="M16.75 -0.45 Q16.35 5.7 13.6 10.05 L12.8 10.2 12.75 9.55 12.8 8.15 Q12.7 6.9 12.25 5.85 L12.0 5.3 Q11.2 3.75 9.8 3.05 L9.65 2.95 8.85 2.7 7.7 2.5 7.4 2.5 7.35 2.5 6.65 2.6 6.35 2.65 Q5.4 2.9 4.65 3.65 L3.7 4.85 3.7 4.7 Q3.2 -1.5 4.6 -7.2 6.0 -13.0 10.1 -16.6 11.7 -15.75 12.8 -14.5 13.8 -13.3 15.45 -9.95 17.1 -6.65 16.75 -0.45 M-13.75 -11.25 Q-12.6 -15.25 -9.1 -16.6 -0.15 -12.15 -2.0 5.55 L-2.6 4.6 -2.95 4.15 Q-4.1 2.8 -5.65 2.45 L-5.8 2.4 -6.6 2.3 -7.8 2.4 -8.1 2.45 -8.15 2.45 -8.8 2.7 -10.15 3.8 -10.3 3.95 -10.5 4.2 -11.2 5.45 -11.6 6.7 -11.7 7.7 -11.7 8.3 -11.7 8.45 -11.65 9.25 -12.2 9.15 Q-13.3 8.25 -14.0 5.45 -14.85 2.0 -14.9 -2.65 -14.95 -7.3 -13.75 -11.25" fill="#ccffff" fill-rule="evenodd" stroke="none"/>
      <path d="M4.65 -17.45 L4.5 -16.5 4.85 -17.4 Q5.8 -19.9 6.4 -20.85 7.75 -23.1 9.8 -24.0 12.0 -23.9 13.3 -23.0 14.4 -22.3 15.0 -20.9 L15.8 -17.9 16.45 -14.5 16.45 -14.8 19.1 4.3 18.75 4.15 19.15 4.7 19.55 5.25 20.45 6.35 Q21.45 7.75 21.4 8.9 L17.85 9.05 14.4 9.95 Q16.1 6.9 16.9 3.15 17.65 -0.7 17.3 -4.4 16.9 -8.35 15.3 -11.5 13.55 -15.0 10.6 -17.1 L12.05 -18.7 Q4.45 -13.35 3.35 -3.4 3.0 -0.75 3.1 3.45 L3.05 5.85 2.7 6.75 -1.6 6.6 -1.35 4.6 -1.15 2.5 Q-0.95 -0.3 -1.25 -3.35 -1.55 -6.45 -2.6 -9.4 -3.7 -12.35 -5.55 -14.6 -7.7 -17.05 -11.55 -18.1 L-9.45 -16.8 Q-14.95 -15.05 -15.35 -5.45 -15.55 -1.9 -14.95 2.3 -14.5 5.7 -13.7 8.5 -18.75 5.85 -21.7 7.3 -21.35 6.2 -20.35 4.8 L-18.65 2.55 -19.0 2.75 Q-15.55 -3.05 -16.15 -12.95 L-15.95 -14.2 -15.85 -14.55 -15.0 -18.35 Q-13.3 -23.75 -10.05 -23.65 -8.05 -23.6 -6.8 -21.8 L-5.8 -20.15 -4.95 -18.65 -4.8 -18.45 -4.85 -18.65 Q0.6 -9.65 4.65 -17.45 M11.6 6.2 Q12.0 7.15 12.05 8.3 L12.0 9.8 11.85 10.4 Q11.4 12.1 10.05 13.1 L9.85 13.25 8.25 13.95 8.1 14.0 6.3 13.95 5.65 13.75 Q4.2 13.15 3.3 11.65 L3.2 11.4 Q2.4 9.65 2.85 7.6 3.3 5.35 5.0 4.05 6.05 3.25 7.2 3.2 L7.25 3.2 Q8.25 3.05 9.25 3.6 L9.4 3.7 Q10.65 4.3 11.4 5.7 L11.6 6.2 M-7.8 3.2 L-5.85 3.25 Q-4.45 3.55 -3.4 4.75 -2.55 5.75 -2.15 7.1 -1.7 8.2 -1.85 9.2 -1.95 10.95 -3.0 12.25 -3.7 13.15 -4.55 13.5 L-4.65 13.55 Q-5.5 13.95 -6.45 13.95 -8.45 13.95 -9.9 12.4 L-10.05 12.2 Q-11.0 11.0 -11.2 9.45 L-11.3 8.55 Q-11.35 6.25 -10.05 4.65 -9.2 3.6 -8.1 3.25 L-7.8 3.2" fill="#ffffff" fill-rule="evenodd" stroke="none"/>
    </g>
    <g id="shape5" transform="matrix(1.0, 0.0, 0.0, 1.0, 3.2, 7.35)">
      <path d="M-2.25 -5.25 Q-1.3 -7.35 0.05 -7.35 1.35 -7.35 2.3 -5.25 3.25 -3.1 3.25 -0.05 3.25 3.0 2.3 5.15 1.35 7.3 0.05 7.3 -1.3 7.3 -2.25 5.15 -3.2 3.0 -3.2 -0.05 -3.2 -3.1 -2.25 -5.25" fill="#000000" fill-rule="evenodd" stroke="none"/>
    </g>
  </defs>
</svg>
