<?xml version="1.0" encoding="UTF-8" standalone="no"?>
<svg xmlns:xlink="http://www.w3.org/1999/xlink" height="166.95px" width="101.6px" xmlns="http://www.w3.org/2000/svg">
  <g transform="matrix(1.0, 0.0, 0.0, 1.0, 51.8, 123.5)">
    <use height="92.15" transform="matrix(0.9, 0.0, 0.0, 0.9, -49.6998, -45.5296)" width="73.55" xlink:href="#shape0"/>
    <use height="79.85" transform="matrix(0.8155, -0.377, 0.377, 0.8155, -34.2019, -21.6699)" width="66.1" xlink:href="#shape1"/>
    <use height="57.5" transform="matrix(0.9, 0.0, 0.0, 0.9, -31.7348, -112.3248)" width="55.3" xlink:href="#shape2"/>
    <use height="74.6" transform="matrix(0.9, 0.0, 0.0, 0.9, -29.6448, -86.7246)" width="58.95" xlink:href="#shape3"/>
    <use height="41.15" transform="matrix(1.0, 0.0, 0.0, 1.0, -15.85, -86.7)" width="41.55" xlink:href="#shape4"/>
    <use height="14.65" transform="matrix(0.8372, 0.0, 0.0, 0.6696, 1.8209, -75.7218)" width="6.45" xlink:href="#shape5"/>
    <use height="14.65" transform="matrix(0.6698, 0.0, 0.0, 0.5357, 11.3068, -75.2373)" width="6.45" xlink:href="#shape5"/>
  </g>
  <defs>
    <g id="shape0" transform="matrix(1.0, 0.0, 0.0, 1.0, 39.0, 65.7)">
      <path d="M9.75 -62.85 Q8.3 -61.5 7.45 -58.95 6.9 -57.25 6.4 -53.9 L5.4 -48.6 Q4.65 -45.7 3.45 -43.9 L0.65 -40.15 Q-1.1 -37.95 -1.85 -36.55 -4.25 -32.45 -3.15 -28.05 -1.15 -20.25 2.9 -15.25 6.25 -11.05 10.9 -9.05 14.6 -7.45 18.75 -7.4 22.0 -7.35 24.35 -8.15 29.25 -9.9 31.75 -17.4 33.95 -24.35 33.55 -33.8 33.15 -43.15 30.4 -50.8 27.35 -59.1 22.6 -62.1 19.55 -64.05 16.2 -64.5 12.1 -65.05 9.75 -62.85 M13.35 -65.65 Q22.45 -66.4 28.05 -58.5 32.8 -51.8 34.1 -40.3 35.3 -29.95 33.35 -20.45 32.45 -16.0 31.0 -12.9 29.45 -9.75 27.55 -8.55 27.4 -8.5 27.5 -8.0 L27.75 -7.05 Q27.9 -5.65 26.55 -5.2 L28.0 0.25 Q28.95 4.25 29.2 7.35 30.05 16.25 25.6 17.95 23.65 17.25 21.2 14.6 L17.7 10.15 Q15.0 12.85 10.9 14.6 7.05 16.25 2.75 16.75 -0.8 20.85 -4.6 23.3 -8.55 25.85 -12.45 26.35 -21.05 27.35 -27.5 18.05 -29.8 14.8 -31.15 9.75 L-32.2 5.45 -33.5 0.95 -35.15 -3.55 Q-36.85 -8.55 -37.8 -13.45 -40.85 -29.05 -36.2 -39.85 -35.15 -36.55 -34.25 -34.95 -34.05 -38.95 -32.25 -42.8 -30.5 -46.55 -27.5 -49.4 -29.3 -34.6 -23.25 -41.7 -23.05 -40.55 -23.1 -39.15 L-23.2 -37.15 Q-23.15 -36.15 -22.65 -35.25 -22.1 -34.25 -20.75 -33.05 -17.1 -35.4 -12.95 -36.35 -8.35 -37.45 -4.55 -36.25 0.25 -40.5 2.7 -46.1 4.05 -49.4 5.25 -55.35 L6.1 -59.2 Q6.6 -61.2 7.35 -62.4 9.15 -65.3 13.35 -65.65 M31.4 -40.0 L31.1 -41.75 30.45 -43.4 Q29.25 -45.9 28.05 -45.2 26.6 -44.35 26.45 -41.3 26.3 -38.55 27.15 -37.0 27.85 -35.65 28.7 -35.45 29.45 -35.3 30.15 -36.0 30.75 -36.65 31.1 -37.85 31.45 -39.1 31.4 -40.0 M25.6 -41.9 Q25.95 -44.05 27.05 -45.3 L29.65 -45.4 Q31.1 -44.3 31.65 -41.4 32.25 -38.55 31.35 -36.75 30.4 -35.0 29.45 -34.85 28.45 -34.7 27.65 -35.1 26.25 -35.85 25.75 -37.9 25.25 -39.8 25.6 -41.9 M16.35 -2.8 Q16.3 -1.85 15.45 -0.3 14.55 1.2 14.55 1.7 14.55 2.75 15.9 5.2 17.15 7.5 19.15 10.1 21.15 12.75 23.0 14.4 25.0 16.25 26.1 16.25 29.2 13.7 28.15 6.1 27.75 3.1 26.8 0.0 L24.9 -4.55 Q20.7 -2.4 14.7 -3.3 8.6 -4.2 3.5 -7.95 -2.15 -12.1 -4.65 -18.45 -7.45 -25.7 -5.5 -34.7 -14.45 -36.85 -21.65 -30.7 -24.9 -27.9 -27.3 -23.7 -29.7 -19.65 -31.05 -14.7 -32.4 -9.8 -32.55 -4.6 -32.75 0.75 -31.6 5.75 -29.1 16.75 -21.15 23.05 -19.45 24.35 -17.1 24.75 -13.7 25.3 -9.65 23.6 1.9 18.75 16.35 -2.8 M23.8 -5.1 Q25.3 -5.65 25.9 -7.0 16.2 -4.85 9.15 -8.15 3.25 -10.95 -0.25 -17.25 -3.15 -22.4 -3.9 -28.6 -4.2 -31.2 -3.95 -33.35 -3.85 -35.45 -3.25 -36.55 -6.3 -32.6 -5.3 -26.1 -4.3 -19.9 -0.15 -14.25 4.15 -8.25 10.15 -5.65 16.85 -2.75 23.8 -5.1 M-27.95 -39.0 Q-28.7 -40.05 -28.6 -43.2 L-28.25 -47.65 Q-30.8 -44.8 -32.3 -39.6 -33.85 -34.45 -33.1 -30.95 -34.2 -32.05 -35.05 -33.9 L-36.3 -37.2 Q-38.65 -30.65 -37.8 -20.65 -37.0 -11.4 -34.0 -4.3 -34.2 -12.6 -31.15 -19.7 -27.95 -27.25 -21.7 -31.95 -23.15 -33.45 -23.75 -35.6 -24.3 -37.55 -24.1 -39.75 -24.95 -38.45 -25.85 -38.05 -27.0 -37.6 -27.95 -39.0 M16.4 8.4 L13.6 3.4 Q12.0 6.2 9.2 9.65 L4.3 15.35 Q7.75 14.65 10.85 12.95 14.05 11.1 16.4 8.4" fill="#000000" fill-rule="evenodd" stroke="none"/>
      <path d="M9.75 -62.85 Q12.1 -65.05 16.2 -64.5 19.55 -64.05 22.6 -62.1 27.35 -59.1 30.4 -50.8 33.15 -43.15 33.55 -33.8 33.95 -24.35 31.75 -17.4 29.25 -9.9 24.35 -8.15 22.0 -7.35 18.75 -7.4 14.6 -7.45 10.9 -9.05 6.25 -11.05 2.9 -15.25 -1.15 -20.25 -3.15 -28.05 -4.25 -32.45 -1.85 -36.55 -1.1 -37.95 0.65 -40.15 L3.45 -43.9 Q4.65 -45.7 5.4 -48.6 L6.4 -53.9 Q6.9 -57.25 7.45 -58.95 8.3 -61.5 9.75 -62.85 M25.6 -41.9 Q25.25 -39.8 25.75 -37.9 26.25 -35.85 27.65 -35.1 28.45 -34.7 29.45 -34.85 30.4 -35.0 31.35 -36.75 32.25 -38.55 31.65 -41.4 31.1 -44.3 29.65 -45.4 L27.05 -45.3 Q25.95 -44.05 25.6 -41.9 M16.35 -2.8 Q1.9 18.75 -9.65 23.6 -13.7 25.3 -17.1 24.75 -19.45 24.35 -21.15 23.05 -29.1 16.75 -31.6 5.75 -32.75 0.75 -32.55 -4.6 -32.4 -9.8 -31.05 -14.7 -29.7 -19.65 -27.3 -23.7 -24.9 -27.9 -21.65 -30.7 -14.45 -36.85 -5.5 -34.7 -7.45 -25.7 -4.65 -18.45 -2.15 -12.1 3.5 -7.95 8.6 -4.2 14.7 -3.3 20.7 -2.4 24.9 -4.55 L26.8 0.0 Q27.75 3.1 28.15 6.1 29.2 13.7 26.1 16.25 25.0 16.25 23.0 14.4 21.15 12.75 19.15 10.1 17.15 7.5 15.9 5.2 14.55 2.75 14.55 1.7 14.55 1.2 15.45 -0.3 16.3 -1.85 16.35 -2.8" fill="#660099" fill-rule="evenodd" stroke="none"/>
      <path d="M31.4 -40.0 Q31.45 -39.1 31.1 -37.85 30.75 -36.65 30.15 -36.0 29.45 -35.3 28.7 -35.45 27.85 -35.65 27.15 -37.0 26.3 -38.55 26.45 -41.3 26.6 -44.35 28.05 -45.2 29.25 -45.9 30.45 -43.4 L31.1 -41.75 31.4 -40.0" fill="#ffff00" fill-rule="evenodd" stroke="none"/>
      <path d="M23.8 -5.1 Q16.85 -2.75 10.15 -5.65 4.15 -8.25 -0.15 -14.25 -4.3 -19.9 -5.3 -26.1 -6.3 -32.6 -3.25 -36.55 -3.85 -35.45 -3.95 -33.35 -4.2 -31.2 -3.9 -28.6 -3.15 -22.4 -0.25 -17.25 3.25 -10.95 9.15 -8.15 16.2 -4.85 25.9 -7.0 25.3 -5.65 23.8 -5.1" fill="#990000" fill-rule="evenodd" stroke="none"/>
      <path d="M16.4 8.4 Q14.05 11.1 10.85 12.95 7.75 14.65 4.3 15.35 L9.2 9.65 Q12.0 6.2 13.6 3.4 L16.4 8.4 M-27.95 -39.0 Q-27.0 -37.6 -25.85 -38.05 -24.95 -38.45 -24.1 -39.75 -24.3 -37.55 -23.75 -35.6 -23.15 -33.45 -21.7 -31.95 -27.95 -27.25 -31.15 -19.7 -34.2 -12.6 -34.0 -4.3 -37.0 -11.4 -37.8 -20.65 -38.65 -30.65 -36.3 -37.2 L-35.05 -33.9 Q-34.2 -32.05 -33.1 -30.95 -33.85 -34.45 -32.3 -39.6 -30.8 -44.8 -28.25 -47.65 L-28.6 -43.2 Q-28.7 -40.05 -27.95 -39.0" fill="#ffffff" fill-rule="evenodd" stroke="none"/>
    </g>
    <g id="shape1" transform="matrix(1.0, 0.0, 0.0, 1.0, 33.75, 7.9)">
      <path d="M4.8 7.15 L5.0 7.15 4.85 7.25 Q4.4 7.65 2.9 8.05 L-1.1 9.1 Q-7.2 10.8 -10.1 13.95 L-9.15 15.35 -8.55 16.45 -6.25 18.45 Q-4.8 19.3 -3.95 21.75 -3.15 23.95 -3.35 25.75 3.1 24.45 5.1 26.95 L10.0 22.2 Q14.3 17.9 17.1 15.55 26.65 7.45 30.5 10.6 32.55 12.25 32.3 15.25 32.1 17.8 30.15 21.0 28.5 23.8 26.1 26.2 23.75 28.5 21.95 29.25 L20.45 28.35 Q19.85 27.8 19.75 26.8 L21.85 23.9 24.7 20.7 26.85 17.85 Q27.6 16.55 26.9 16.05 25.2 14.75 17.2 22.05 L7.8 31.35 Q9.35 32.2 10.35 34.2 11.4 36.2 11.3 38.4 11.2 40.8 9.8 42.6 8.2 44.55 5.1 45.3 4.6 47.15 2.3 48.3 0.25 49.3 -1.7 49.0 -3.55 51.1 -6.45 51.25 -9.25 51.35 -10.9 49.6 L-21.75 62.5 -29.35 71.65 Q-30.6 72.35 -31.95 71.3 L-32.85 70.4 -33.25 69.6 Q-33.5 67.6 -25.75 58.5 L-19.5 51.35 -14.65 46.0 Q-16.3 43.55 -17.7 39.55 -26.2 41.05 -28.45 33.9 -29.1 31.85 -29.35 28.3 -29.6 25.0 -29.85 24.5 -36.85 9.9 -31.35 3.9 -29.5 1.85 -26.1 0.75 L-23.55 0.05 -21.6 -0.45 Q-19.2 -1.15 -8.7 -5.2 -0.55 -8.35 -0.4 -7.85 L-0.45 -7.75 Q-0.8 -7.5 -3.1 -6.4 -5.95 -5.05 -9.45 -3.6 -19.1 0.35 -24.25 1.1 -28.05 1.65 -30.05 4.4 -31.75 6.85 -31.95 10.7 -32.1 14.1 -31.1 18.0 -30.15 21.55 -28.55 24.15 -25.2 19.55 -20.5 17.45 -15.35 15.05 -10.1 16.35 -11.35 13.7 -20.3 9.2 -18.3 8.95 -16.0 10.05 -14.75 10.55 -12.1 12.3 L-12.05 12.2 -14.15 9.45 Q-15.4 7.85 -16.6 6.95 -15.65 6.95 -13.45 8.95 -11.5 10.7 -10.85 11.8 -6.3 9.05 4.8 7.15 M21.15 28.15 Q22.0 28.8 24.3 26.9 26.65 25.05 28.65 22.2 30.95 19.0 31.5 16.25 32.15 13.0 30.15 11.35 26.55 8.2 15.35 17.9 9.6 22.85 2.05 31.2 L5.1 33.6 9.05 29.1 15.65 22.55 Q24.75 14.05 26.9 15.1 28.5 15.85 27.5 17.7 26.9 18.9 24.55 21.5 22.0 24.3 21.3 25.35 20.1 27.3 21.15 28.15 M9.1 34.7 Q8.2 32.9 7.25 32.05 L5.85 34.05 6.65 34.6 Q7.05 34.95 7.0 35.4 4.2 37.2 0.0 28.95 L1.6 30.7 4.6 27.45 Q2.9 26.1 0.8 26.2 L-2.75 27.05 -6.25 27.4 Q-8.15 27.0 -9.8 24.85 -16.95 26.35 -20.3 33.1 -18.9 33.8 -17.3 37.3 L-15.95 40.6 -14.45 43.95 Q-12.55 47.8 -10.3 49.2 -7.45 50.95 -3.45 49.1 L-4.15 48.7 -1.8 48.4 0.65 48.0 Q3.5 47.25 4.05 44.95 3.0 45.1 2.45 44.35 6.75 44.15 8.7 42.5 10.35 41.05 10.25 38.75 10.2 36.85 9.1 34.7 M-8.85 24.85 Q-6.75 26.5 -5.1 26.0 -3.5 23.35 -5.05 21.0 -6.45 18.8 -9.8 17.8 L-16.95 17.45 Q-21.05 18.2 -23.9 21.0 -27.4 24.3 -28.15 28.0 -28.8 31.25 -27.3 34.05 -25.85 36.65 -23.25 37.95 -20.55 39.25 -18.0 38.5 L-18.9 35.8 Q-19.5 34.3 -20.65 33.7 -20.95 34.5 -22.15 35.8 -21.0 30.8 -16.65 27.35 -12.4 23.95 -7.05 23.6 -6.4 24.0 -8.85 24.85 M-30.45 65.7 Q-32.6 68.75 -32.3 69.35 -32.35 70.05 -31.2 70.75 -30.05 71.45 -29.75 71.0 L-24.45 64.4 Q-25.7 64.5 -26.5 63.65 -27.4 62.8 -27.25 61.6 -28.75 63.2 -30.45 65.7 M-11.7 49.1 L-14.35 46.75 -20.75 53.85 -26.4 60.35 Q-26.7 60.95 -26.55 61.65 L-26.0 62.9 -25.0 63.7 Q-24.35 63.9 -23.75 63.5 L-11.7 49.1" fill="#000000" fill-rule="evenodd" stroke="none"/>
      <path d="M-0.45 -7.75 Q9.85 -4.75 4.8 7.15 -6.3 9.05 -10.85 11.8 -11.5 10.7 -13.45 8.95 -15.65 6.95 -16.6 6.95 -15.4 7.85 -14.15 9.45 L-12.05 12.2 -12.1 12.3 Q-14.75 10.55 -16.0 10.05 -18.3 8.95 -20.3 9.2 -11.35 13.7 -10.1 16.35 -15.35 15.05 -20.5 17.45 -25.2 19.55 -28.55 24.15 -30.15 21.55 -31.1 18.0 -32.1 14.1 -31.95 10.7 -31.75 6.85 -30.05 4.4 -28.05 1.65 -24.25 1.1 -19.1 0.35 -9.45 -3.6 -5.95 -5.05 -3.1 -6.4 -0.8 -7.5 -0.45 -7.75" fill="#660099" fill-rule="evenodd" stroke="none"/>
      <path d="M21.15 28.15 Q20.1 27.3 21.3 25.35 22.0 24.3 24.55 21.5 26.9 18.9 27.5 17.7 28.5 15.85 26.9 15.1 24.75 14.05 15.65 22.55 L9.05 29.1 5.1 33.6 2.05 31.2 Q9.6 22.85 15.35 17.9 26.55 8.2 30.15 11.35 32.15 13.0 31.5 16.25 30.95 19.0 28.65 22.2 26.65 25.05 24.3 26.9 22.0 28.8 21.15 28.15 M-11.7 49.1 L-23.75 63.5 Q-24.35 63.9 -25.0 63.7 L-26.0 62.9 -26.55 61.65 Q-26.7 60.95 -26.4 60.35 L-20.75 53.85 -14.35 46.75 -11.7 49.1" fill="#996600" fill-rule="evenodd" stroke="none"/>
      <path d="M9.1 34.7 Q10.2 36.85 10.25 38.75 10.35 41.05 8.7 42.5 6.75 44.15 2.45 44.35 3.0 45.1 4.05 44.95 3.5 47.25 0.65 48.0 L-1.8 48.4 -4.15 48.7 -3.45 49.1 Q-7.45 50.95 -10.3 49.2 -12.55 47.8 -14.45 43.95 L-15.95 40.6 -17.3 37.3 Q-18.9 33.8 -20.3 33.1 -16.95 26.35 -9.8 24.85 -8.15 27.0 -6.25 27.4 L-2.75 27.05 0.8 26.2 Q2.9 26.1 4.6 27.45 L1.6 30.7 0.0 28.95 Q4.2 37.2 7.0 35.4 7.05 34.95 6.65 34.6 L5.85 34.05 7.25 32.05 Q8.2 32.9 9.1 34.7" fill="#ffffff" fill-rule="evenodd" stroke="none"/>
      <path d="M-8.85 24.85 Q-6.4 24.0 -7.05 23.6 -12.4 23.95 -16.65 27.35 -21.0 30.8 -22.15 35.8 -20.95 34.5 -20.65 33.7 -19.5 34.3 -18.9 35.8 L-18.0 38.5 Q-20.55 39.25 -23.25 37.95 -25.85 36.65 -27.3 34.05 -28.8 31.25 -28.15 28.0 -27.4 24.3 -23.9 21.0 -21.05 18.2 -16.95 17.45 L-9.8 17.8 Q-6.45 18.8 -5.05 21.0 -3.5 23.35 -5.1 26.0 -6.75 26.5 -8.85 24.85" fill="#990000" fill-rule="evenodd" stroke="none"/>
      <path d="M-30.45 65.7 Q-28.75 63.2 -27.25 61.6 -27.4 62.8 -26.5 63.65 -25.7 64.5 -24.45 64.4 L-29.75 71.0 Q-30.05 71.45 -31.2 70.75 -32.35 70.05 -32.3 69.35 -32.6 68.75 -30.45 65.7" fill="#ffff00" fill-rule="evenodd" stroke="none"/>
    </g>
    <g id="shape2" transform="matrix(1.0, 0.0, 0.0, 1.0, 27.65, 28.75)">
      <path d="M27.25 6.35 Q26.4 10.2 24.4 13.25 L18.05 18.8 Q-2.1 34.4 -22.4 25.55 -26.0 21.2 -25.2 14.85 -24.55 9.3 -20.8 3.1 -18.75 0.9 -22.5 -3.55 L-25.55 -6.65 -27.65 -8.55 Q-26.95 -14.05 -23.75 -18.5 -20.7 -22.8 -16.0 -25.45 -11.35 -28.1 -6.0 -28.65 -0.5 -29.2 4.65 -27.3 L7.7 -25.9 10.65 -24.3 Q9.9 -15.35 15.85 -4.4 20.7 -6.35 23.7 -5.05 26.35 -3.95 27.25 -0.6 28.05 2.4 27.25 6.35 M5.7 -26.25 L2.35 -27.15 -6.9 -27.55 Q-2.9 -20.95 -1.2 -12.7 L2.6 -13.5 6.95 -13.9 7.05 -13.9 Q5.55 -19.65 5.7 -26.25 M18.75 -2.9 L22.05 -4.1 23.95 -4.25 23.75 -4.4 Q22.45 -5.15 20.25 -4.8 L16.8 -3.75 Q13.95 -2.65 10.85 -3.3 L10.15 -3.45 7.1 -4.55 4.1 -5.85 Q1.7 -6.95 -0.25 -7.35 L-2.25 -7.65 Q-6.05 -7.85 -9.85 -5.4 -21.05 1.55 -23.2 9.7 -22.45 8.15 -20.05 5.45 -17.7 2.7 -14.75 0.1 -11.8 -2.55 -7.75 -4.55 -3.75 -6.55 -1.65 -6.0 L2.45 -4.6 5.8 -3.25 Q9.85 -1.6 13.0 -1.4 15.0 -1.25 18.75 -2.9 M10.6 -3.9 L11.75 -3.65 Q13.15 -3.5 14.3 -4.15 13.3 -5.75 12.45 -8.25 L11.0 -12.6 7.25 -13.1 2.65 -12.9 -1.3 -12.1 Q-3.75 -11.45 -6.1 -10.4 -10.55 -8.5 -13.8 -5.6 -17.35 -2.55 -18.85 1.05 -12.4 -5.85 -6.7 -7.7 -3.6 -8.7 -0.45 -8.25 L2.25 -7.65 5.8 -6.1 8.95 -4.55 Q9.85 -4.15 10.6 -3.9 M16.45 5.5 Q14.85 4.25 12.05 3.65 6.65 2.45 0.0 4.25 -6.7 6.05 -10.75 9.8 -14.8 13.5 -13.9 16.95 L-13.9 17.0 Q-12.95 20.45 -7.55 21.65 L-4.95 22.05 Q-0.65 22.4 4.5 21.05 11.15 19.25 15.25 15.55 L15.95 14.85 Q19.2 11.5 18.4 8.35 17.9 6.65 16.45 5.5" fill="#000000" fill-rule="evenodd" stroke="none"/>
      <path d="M18.75 -2.9 Q15.0 -1.25 13.0 -1.4 9.85 -1.6 5.8 -3.25 L2.45 -4.6 -1.65 -6.0 Q-3.75 -6.55 -7.75 -4.55 -11.8 -2.55 -14.75 0.1 -17.7 2.7 -20.05 5.45 -22.45 8.15 -23.2 9.7 -21.05 1.55 -9.85 -5.4 -6.05 -7.85 -2.25 -7.65 L-0.25 -7.35 Q1.7 -6.95 4.1 -5.85 L7.1 -4.55 10.15 -3.45 10.85 -3.3 Q13.95 -2.65 16.8 -3.75 L20.25 -4.8 Q22.45 -5.15 23.75 -4.4 L23.95 -4.25 22.05 -4.1 18.75 -2.9 M5.7 -26.25 Q5.55 -19.65 7.05 -13.9 L6.95 -13.9 2.6 -13.5 -1.2 -12.7 Q-2.9 -20.95 -6.9 -27.55 L2.35 -27.15 5.7 -26.25" fill="#00ccff" fill-rule="evenodd" stroke="none"/>
      <path d="M7.25 -13.1 L11.0 -12.6 12.45 -8.25 Q13.3 -5.75 14.3 -4.15 13.15 -3.5 11.75 -3.65 L10.6 -3.9 Q8.2 -7.45 7.25 -13.1 M-0.45 -8.25 Q-3.6 -8.7 -6.7 -7.7 -12.4 -5.85 -18.85 1.05 -17.35 -2.55 -13.8 -5.6 -10.55 -8.5 -6.1 -10.4 -3.75 -11.45 -1.3 -12.1 L-0.45 -8.25" fill="#990000" fill-rule="evenodd" stroke="none"/>
      <path d="M10.6 -3.9 Q9.85 -4.15 8.95 -4.55 L5.8 -6.1 2.25 -7.65 -0.45 -8.25 -1.3 -12.1 2.65 -12.9 7.25 -13.1 Q8.2 -7.45 10.6 -3.9" fill="#cc0000" fill-rule="evenodd" stroke="none"/>
      <path d="M15.95 14.85 L15.25 15.55 Q11.15 19.25 4.5 21.05 -0.65 22.4 -4.95 22.05 L-5.9 19.25 Q-2.0 19.4 2.55 18.2 9.2 16.4 13.3 12.7 L14.3 11.7 15.95 14.85" fill="#660000" fill-rule="evenodd" stroke="none"/>
      <path d="M-13.9 16.95 Q-14.8 13.5 -10.75 9.8 -6.7 6.05 0.0 4.25 6.65 2.45 12.05 3.65 14.85 4.25 16.45 5.5 17.2 8.5 14.3 11.7 L13.3 12.7 Q9.2 16.4 2.55 18.2 -2.0 19.4 -5.9 19.25 L-9.5 18.8 Q-12.3 18.2 -13.9 16.95" fill="#333333" fill-rule="evenodd" stroke="none"/>
      <path d="M16.45 5.5 Q17.9 6.65 18.4 8.35 19.2 11.5 15.95 14.85 L14.3 11.7 Q17.2 8.5 16.45 5.5 M-4.95 22.05 L-7.55 21.65 Q-12.95 20.45 -13.9 17.0 L-13.9 16.95 Q-12.3 18.2 -9.5 18.8 L-5.9 19.25 -4.95 22.05" fill="#330000" fill-rule="evenodd" stroke="none"/>
    </g>
    <g id="shape3" transform="matrix(1.0, 0.0, 0.0, 1.0, 38.55, 59.25)">
      <path d="M14.05 -53.0 Q13.2 -49.1 11.15 -46.05 L11.4 -44.35 11.7 -42.25 Q12.1 -39.55 13.05 -39.05 14.35 -38.4 15.3 -39.55 L16.1 -40.55 Q16.55 -41.15 17.0 -41.35 17.2 -40.8 17.05 -40.0 L16.6 -38.65 Q16.25 -37.85 16.25 -37.45 16.15 -36.9 16.6 -36.5 L19.4 -33.9 Q20.35 -32.55 20.4 -30.15 19.3 -31.3 18.3 -31.75 L17.6 -32.0 Q17.2 -32.2 16.95 -32.35 18.3 -27.25 15.35 -24.05 L15.05 -25.5 14.35 -24.1 Q13.95 -23.3 13.35 -23.05 13.05 -24.8 11.8 -25.9 9.3 -20.7 2.65 -17.3 2.3 -16.35 2.3 -14.95 L2.3 -12.6 5.55 -9.3 8.65 -6.0 Q11.9 -2.15 12.65 2.05 13.25 5.65 13.25 8.2 13.2 12.95 10.8 11.7 10.1 11.35 7.3 7.85 L3.6 3.3 Q2.8 4.3 2.0 6.05 L0.7 9.35 -0.65 12.4 Q-1.5 13.95 -2.35 14.65 -3.5 15.5 -5.05 15.35 -6.5 15.15 -8.05 14.0 -11.35 11.7 -13.65 7.0 -16.15 1.95 -15.9 -2.95 -15.6 -8.65 -11.5 -12.35 L-11.05 -12.85 -11.55 -14.6 -12.65 -16.3 Q-13.6 -17.45 -15.45 -18.65 L-18.7 -20.7 Q-20.5 -21.95 -21.4 -23.1 -24.05 -21.5 -25.15 -18.9 -26.4 -16.0 -24.85 -13.45 -26.25 -13.65 -27.9 -15.8 -29.4 -17.8 -30.75 -20.8 -32.05 -23.75 -32.65 -26.45 -33.3 -29.3 -32.85 -30.6 -33.85 -29.6 -34.6 -27.25 -35.4 -28.05 -35.3 -30.0 L-34.85 -32.95 Q-39.25 -37.55 -38.4 -44.5 L-37.7 -48.0 -27.35 -48.0 -20.1 -56.0 14.2 -59.25 Q14.75 -56.45 14.05 -53.0 M1.05 -14.6 L1.0 -16.8 Q-5.3 -15.5 -11.35 -16.8 L-10.25 -14.6 -8.55 -10.65 -6.05 -4.3 Q-4.25 -3.05 -1.6 -2.75 L3.2 -3.05 1.7 -9.8 Q1.2 -12.4 1.05 -14.6 M10.8 -43.85 L10.4 -46.85 Q9.15 -52.15 4.6 -54.35 0.6 -56.3 -5.4 -55.7 -10.8 -55.15 -16.55 -52.75 -22.0 -50.5 -25.7 -47.5 -25.6 -43.8 -28.55 -42.85 -30.95 -42.15 -34.45 -43.35 -34.05 -41.95 -33.1 -40.9 -32.05 -39.75 -30.75 -39.35 -32.6 -36.6 -33.4 -34.65 -34.6 -31.9 -34.45 -29.4 -32.85 -33.0 -31.15 -33.35 -33.45 -29.25 -30.75 -23.05 L-30.55 -25.05 Q-30.2 -26.35 -29.45 -26.55 L-29.9 -23.35 -29.8 -21.0 Q-29.6 -19.95 -28.9 -18.8 L-26.8 -15.95 Q-26.95 -16.95 -26.5 -18.4 L-25.25 -21.25 Q-23.35 -24.55 -21.1 -24.4 -18.2 -20.95 -13.65 -19.0 -9.2 -17.1 -4.35 -17.2 0.65 -17.35 4.7 -19.65 9.15 -22.25 11.6 -27.0 11.85 -27.45 13.85 -24.8 L14.2 -27.45 Q14.65 -27.7 15.2 -27.05 L15.85 -26.0 Q16.55 -28.05 16.0 -31.15 L15.5 -33.1 Q15.25 -33.95 15.35 -34.05 16.45 -34.05 17.6 -33.35 L19.45 -31.85 Q19.05 -34.9 14.7 -36.65 L16.15 -39.05 Q12.8 -36.35 11.5 -40.3 11.05 -41.6 10.8 -43.85 M4.45 -3.9 L5.15 -4.6 Q5.55 -5.0 6.0 -5.05 5.75 -3.4 3.8 -2.3 1.95 -1.3 -0.55 -1.3 -3.25 -1.3 -5.45 -2.65 -8.0 -4.15 -9.25 -7.1 L-8.45 -7.05 -7.75 -6.25 -10.15 -11.5 Q-12.5 -11.4 -13.7 -8.0 -14.85 -4.8 -14.45 -0.3 -14.05 4.45 -12.0 8.2 -9.7 12.45 -5.95 14.05 -4.2 14.8 -2.6 13.15 -1.55 12.0 0.0 8.85 1.95 4.85 2.65 3.75 4.25 1.1 6.0 0.55 L4.3 2.3 6.25 4.9 8.5 7.9 Q11.2 11.35 11.95 10.6 12.55 9.95 12.5 7.45 12.45 4.7 11.5 1.65 10.45 -2.05 8.45 -4.95 6.05 -8.4 2.7 -10.3 3.35 -6.15 4.45 -3.9" fill="#000000" fill-rule="evenodd" stroke="none"/>
      <path d="M10.8 -43.85 Q11.05 -41.6 11.5 -40.3 12.8 -36.35 16.15 -39.05 L14.7 -36.65 Q19.05 -34.9 19.45 -31.85 L17.6 -33.35 Q16.45 -34.05 15.35 -34.05 15.25 -33.95 15.5 -33.1 L16.0 -31.15 Q16.55 -28.05 15.85 -26.0 L15.2 -27.05 Q14.65 -27.7 14.2 -27.45 L13.85 -24.8 Q11.85 -27.45 11.6 -27.0 9.15 -22.25 4.7 -19.65 0.65 -17.35 -4.35 -17.2 -9.2 -17.1 -13.65 -19.0 -18.2 -20.95 -21.1 -24.4 -23.35 -24.55 -25.25 -21.25 L-26.5 -18.4 Q-26.95 -16.95 -26.8 -15.95 L-28.9 -18.8 Q-29.6 -19.95 -29.8 -21.0 L-29.9 -23.35 -29.45 -26.55 Q-30.2 -26.35 -30.55 -25.05 L-30.75 -23.05 Q-33.45 -29.25 -31.15 -33.35 -32.85 -33.0 -34.45 -29.4 -34.6 -31.9 -33.4 -34.65 -32.6 -36.6 -30.75 -39.35 -32.05 -39.75 -33.1 -40.9 -34.05 -41.95 -34.45 -43.35 -30.95 -42.15 -28.55 -42.85 -25.6 -43.8 -25.7 -47.5 -22.0 -50.5 -16.55 -52.75 -10.8 -55.15 -5.4 -55.7 0.6 -56.3 4.6 -54.35 9.15 -52.15 10.4 -46.85 L10.8 -43.85 M1.05 -14.6 Q1.2 -12.4 1.7 -9.8 L3.2 -3.05 -1.6 -2.75 Q-4.25 -3.05 -6.05 -4.3 L-8.55 -10.65 -10.25 -14.6 -11.35 -16.8 Q-5.3 -15.5 1.0 -16.8 L1.05 -14.6" fill="#ffffff" fill-rule="evenodd" stroke="none"/>
      <path d="M4.45 -3.9 Q3.35 -6.15 2.7 -10.3 6.05 -8.4 8.45 -4.95 10.45 -2.05 11.5 1.65 12.45 4.7 12.5 7.45 12.55 9.95 11.95 10.6 11.2 11.35 8.5 7.9 L6.25 4.9 4.3 2.3 6.0 0.55 Q4.25 1.1 2.65 3.75 1.95 4.85 0.0 8.85 -1.55 12.0 -2.6 13.15 -4.2 14.8 -5.95 14.05 -9.7 12.45 -12.0 8.2 -14.05 4.45 -14.45 -0.3 -14.85 -4.8 -13.7 -8.0 -12.5 -11.4 -10.15 -11.5 L-7.75 -6.25 -8.45 -7.05 -9.25 -7.1 Q-8.0 -4.15 -5.45 -2.65 -3.25 -1.3 -0.55 -1.3 1.95 -1.3 3.8 -2.3 5.75 -3.4 6.0 -5.05 5.55 -5.0 5.15 -4.6 L4.45 -3.9" fill="#990000" fill-rule="evenodd" stroke="none"/>
    </g>
    <g id="shape4" transform="matrix(1.0, 0.0, 0.0, 1.0, 20.75, 20.55)">
      <path d="M3.8 -14.2 Q4.4 -16.7 5.65 -17.6 6.75 -18.5 7.95 -17.6 9.15 -16.7 9.6 -14.6 10.05 -12.3 9.3 -9.55 11.05 -3.8 10.35 2.3 L12.65 2.35 Q13.55 2.8 13.9 3.35 L14.45 4.95 14.7 7.05 15.8 6.8 17.4 6.45 Q19.45 6.05 20.2 6.95 21.6 8.45 19.8 10.45 L18.2 11.75 Q17.3 12.25 16.7 12.3 17.4 15.65 13.0 18.05 8.8 20.3 2.3 20.55 -4.6 20.9 -10.4 18.8 -17.0 16.4 -19.95 11.7 -21.1 9.85 -20.55 6.85 -20.0 3.95 -18.4 2.25 L-18.55 2.75 -19.65 6.95 Q-19.05 6.1 -17.5 6.35 -16.35 6.5 -14.35 7.5 L-11.15 9.2 Q-9.4 10.1 -8.7 10.2 -8.75 9.8 -9.05 9.5 L-9.55 8.9 Q-11.6 6.15 -11.5 2.6 -11.45 -0.3 -9.9 -4.15 L-6.65 -10.75 -4.05 -15.8 Q-4.05 -15.25 -3.4 -14.6 L-2.3 -13.75 -1.35 -13.0 Q1.15 -10.4 2.4 -5.45 3.6 -0.75 2.95 3.0 4.7 3.75 5.65 5.05 L5.9 4.7 Q4.3 -0.25 4.45 -5.05 4.65 -10.55 7.15 -14.2 6.9 -13.7 7.5 -12.8 L8.15 -12.05 8.6 -11.4 Q9.0 -12.5 8.8 -14.1 8.55 -15.7 7.9 -16.6 7.15 -17.65 6.15 -17.05 5.05 -16.5 3.9 -14.2 L3.65 -13.7 3.8 -14.2 M-9.85 -12.25 L-9.3 -14.55 Q-8.6 -16.8 -7.4 -18.4 -6.1 -20.3 -4.9 -20.5 -3.5 -20.8 -2.4 -18.65 L-1.5 -16.65 -1.05 -15.45 -1.0 -14.65 -1.55 -15.95 -2.3 -17.55 Q-3.3 -19.55 -4.45 -19.65 -6.25 -19.95 -8.05 -16.25 L-9.3 -13.25 -9.9 -11.0 -9.85 -12.25 M9.9 -1.1 L9.7 -5.8 Q9.0 -11.6 6.9 -13.0 5.05 -9.05 5.05 -4.75 5.0 -1.65 6.15 3.55 6.3 4.15 6.55 4.35 L7.1 4.45 7.8 4.3 Q8.2 4.25 8.55 4.55 L9.1 3.45 9.55 2.4 9.9 -1.1 M19.5 10.0 Q20.45 8.95 19.85 8.05 19.2 7.1 17.85 7.35 13.4 8.05 10.85 9.45 7.95 10.95 5.35 14.15 4.7 14.95 3.4 15.15 L1.15 15.05 Q-1.5 14.55 -2.8 10.5 -6.4 11.2 -9.2 10.65 -11.35 10.25 -13.3 9.05 L-16.1 7.3 Q-17.45 6.55 -18.5 6.95 -19.8 7.4 -19.55 10.0 -19.3 12.95 -14.85 15.55 -8.8 19.1 -1.35 19.6 6.5 20.1 12.4 16.95 L15.0 15.4 Q16.35 14.15 16.2 12.8 L14.75 12.3 Q11.2 14.7 7.05 16.0 2.85 17.3 -1.45 17.3 -5.85 17.3 -9.7 15.85 -13.85 14.25 -16.95 11.2 L-17.65 11.9 Q-17.85 10.8 -17.15 10.15 -16.4 9.55 -15.35 9.95 L-16.5 10.85 Q-12.5 14.8 -6.75 16.15 -1.25 17.45 4.35 16.0 6.95 15.4 11.0 13.35 15.6 11.0 17.5 10.4 16.55 11.05 15.65 11.8 18.7 10.9 19.5 10.0 M9.2 9.5 L9.2 9.6 Q11.4 8.15 14.3 7.2 L14.1 5.75 13.8 4.15 Q13.3 2.25 11.4 2.5 9.7 3.85 9.4 6.0 8.9 4.6 10.15 2.9 9.05 3.35 8.8 5.9 8.5 8.3 9.2 9.5 M7.05 5.0 L6.6 5.1 7.25 6.8 7.35 6.85 8.2 7.2 8.35 5.3 7.05 5.0 M0.65 4.4 Q-1.6 6.6 -1.0 9.55 -0.55 11.9 1.7 14.3 0.7 14.05 -0.2 12.85 -1.05 11.8 -1.3 10.7 -1.55 9.3 -1.25 7.4 -0.9 5.25 0.0 4.4 L0.4 4.15 Q0.75 4.0 0.65 4.4 M3.5 4.05 Q2.6 3.6 2.4 3.35 0.7 3.1 -0.45 4.25 -1.5 5.25 -1.95 7.15 -2.4 8.9 -2.1 10.65 -1.8 12.45 -0.85 13.4 1.0 15.35 2.9 14.95 4.55 14.55 5.65 12.6 6.65 10.65 6.55 8.55 6.4 6.15 4.8 4.8 L3.5 4.05 M6.75 6.7 L6.2 5.3 6.0 5.6 6.55 6.75 6.75 6.7 M8.25 7.6 Q7.25 6.95 6.7 7.15 7.3 9.0 6.9 11.4 L8.8 9.8 8.5 8.85 8.25 7.6 M1.95 2.9 Q3.3 -1.65 1.6 -6.65 -0.15 -11.9 -4.2 -14.55 L-6.2 -10.65 -8.3 -6.5 Q-10.7 -1.5 -10.9 2.05 -11.0 4.25 -9.9 6.8 -8.65 9.65 -6.65 10.3 L-4.7 10.2 -2.8 9.75 Q-2.6 6.95 -1.7 5.25 -0.5 2.75 1.95 2.9" fill="#000000" fill-rule="evenodd" stroke="none"/>
      <path d="M9.9 -1.1 L9.55 2.4 9.1 3.45 8.55 4.55 Q8.2 4.25 7.8 4.3 L7.1 4.45 6.55 4.35 Q6.3 4.15 6.15 3.55 5.0 -1.65 5.05 -4.75 5.05 -9.05 6.9 -13.0 9.0 -11.6 9.7 -5.8 L9.9 -1.1 M7.05 5.0 L8.35 5.3 8.2 7.2 7.35 6.85 7.25 6.8 6.6 5.1 7.05 5.0 M1.95 2.9 Q-0.5 2.75 -1.7 5.25 -2.6 6.95 -2.8 9.75 L-4.7 10.2 -6.65 10.3 Q-8.65 9.65 -9.9 6.8 -11.0 4.25 -10.9 2.05 -10.7 -1.5 -8.3 -6.5 L-6.2 -10.65 -4.2 -14.55 Q-0.15 -11.9 1.6 -6.65 3.3 -1.65 1.95 2.9" fill="#ccffff" fill-rule="evenodd" stroke="none"/>
      <path d="M19.5 10.0 Q18.7 10.9 15.65 11.8 16.55 11.05 17.5 10.4 15.6 11.0 11.0 13.35 6.95 15.4 4.35 16.0 -1.25 17.45 -6.75 16.15 -12.5 14.8 -16.5 10.85 L-15.35 9.95 Q-16.4 9.55 -17.15 10.15 -17.85 10.8 -17.65 11.9 L-16.95 11.2 Q-13.85 14.25 -9.7 15.85 -5.85 17.3 -1.45 17.3 2.85 17.3 7.05 16.0 11.2 14.7 14.75 12.3 L16.2 12.8 Q16.35 14.15 15.0 15.4 L12.4 16.95 Q6.5 20.1 -1.35 19.6 -8.8 19.1 -14.85 15.55 -19.3 12.95 -19.55 10.0 -19.8 7.4 -18.5 6.95 -17.45 6.55 -16.1 7.3 L-13.3 9.05 Q-11.35 10.25 -9.2 10.65 -6.4 11.2 -2.8 10.5 -1.5 14.55 1.15 15.05 L3.4 15.15 Q4.7 14.95 5.35 14.15 7.95 10.95 10.85 9.45 13.4 8.05 17.85 7.35 19.2 7.1 19.85 8.05 20.45 8.95 19.5 10.0 M8.25 7.6 L8.5 8.85 8.8 9.8 6.9 11.4 Q7.3 9.0 6.7 7.15 7.25 6.95 8.25 7.6" fill="#ffcc00" fill-rule="evenodd" stroke="none"/>
      <path d="M-18.55 2.75 Q-12.0 -4.05 -9.85 -12.25 L-9.9 -11.0 -9.3 -13.25 -8.05 -16.25 Q-6.25 -19.95 -4.45 -19.65 -3.3 -19.55 -2.3 -17.55 L-1.55 -15.95 -1.0 -14.65 -1.05 -15.45 Q1.55 -11.05 3.8 -14.2 L3.65 -13.7 3.9 -14.2 Q5.05 -16.5 6.15 -17.05 7.15 -17.65 7.9 -16.6 8.55 -15.7 8.8 -14.1 9.0 -12.5 8.6 -11.4 L8.15 -12.05 7.5 -12.8 Q6.9 -13.7 7.15 -14.2 4.65 -10.55 4.45 -5.05 4.3 -0.25 5.9 4.7 L5.65 5.05 Q4.7 3.75 2.95 3.0 3.6 -0.75 2.4 -5.45 1.15 -10.4 -1.35 -13.0 L-2.3 -13.75 -3.4 -14.6 Q-4.05 -15.25 -4.05 -15.8 L-6.65 -10.75 -9.9 -4.15 Q-11.45 -0.3 -11.5 2.6 -11.6 6.15 -9.55 8.9 L-9.05 9.5 Q-8.75 9.8 -8.7 10.2 -9.4 10.1 -11.15 9.2 L-14.35 7.5 Q-16.35 6.5 -17.5 6.35 -19.05 6.1 -19.65 6.95 L-18.55 2.75 M9.2 9.5 Q8.5 8.3 8.8 5.9 9.05 3.35 10.15 2.9 8.9 4.6 9.4 6.0 9.7 3.85 11.4 2.5 13.3 2.25 13.8 4.15 L14.1 5.75 14.3 7.2 Q11.4 8.15 9.2 9.6 L9.2 9.5 M0.65 4.4 Q0.75 4.0 0.4 4.15 L0.0 4.4 Q-0.9 5.25 -1.25 7.4 -1.55 9.3 -1.3 10.7 -1.05 11.8 -0.2 12.85 0.7 14.05 1.7 14.3 -0.55 11.9 -1.0 9.55 -1.6 6.6 0.65 4.4 M3.5 4.05 L4.8 4.8 Q6.4 6.15 6.55 8.55 6.65 10.65 5.65 12.6 4.55 14.55 2.9 14.95 1.0 15.35 -0.85 13.4 -1.8 12.45 -2.1 10.65 -2.4 8.9 -1.95 7.15 -1.5 5.25 -0.45 4.25 0.7 3.1 2.4 3.35 2.6 3.6 3.5 4.05 M6.75 6.7 L6.55 6.75 6.0 5.6 6.2 5.3 6.75 6.7" fill="#ffffff" fill-rule="evenodd" stroke="none"/>
    </g>
    <g id="shape5" transform="matrix(1.0, 0.0, 0.0, 1.0, 3.2, 7.35)">
      <path d="M-2.25 -5.25 Q-1.3 -7.35 0.05 -7.35 1.35 -7.35 2.3 -5.25 3.25 -3.1 3.25 -0.05 3.25 3.0 2.3 5.15 1.35 7.3 0.05 7.3 -1.3 7.3 -2.25 5.15 -3.2 3.0 -3.2 -0.05 -3.2 -3.1 -2.25 -5.25" fill="#000000" fill-rule="evenodd" stroke="none"/>
    </g>
  </defs>
</svg>
