<?xml version="1.0" encoding="UTF-8" standalone="no"?>
<svg xmlns:xlink="http://www.w3.org/1999/xlink" height="197.45px" width="77.4px" xmlns="http://www.w3.org/2000/svg">
  <g transform="matrix(1.0, 0.0, 0.0, 1.0, 40.65, 114.75)">
    <use height="63.1" transform="matrix(1.0, 0.0, 0.0, 1.0, -16.15, 17.3)" width="29.45" xlink:href="#shape0"/>
    <use height="60.0" transform="matrix(1.0, 0.0, 0.0, 1.0, -12.25, -114.75)" width="21.2" xlink:href="#shape1"/>
    <use height="108.85" transform="matrix(1.0, 0.0, 0.0, 1.0, -40.65, -64.95)" width="77.4" xlink:href="#shape2"/>
  </g>
  <defs>
    <g id="shape0" transform="matrix(1.0, 0.0, 0.0, 1.0, 16.15, -17.3)">
      <path d="M12.45 17.3 L13.3 44.1 10.4 54.45 10.25 60.0 12.4 60.95 11.55 64.95 -1.35 64.95 -1.5 54.65 -0.15 42.5 -1.5 20.65 12.45 17.3 M-1.65 21.5 L-1.45 80.3 -16.05 80.4 -16.1 76.35 -13.1 74.45 -16.15 18.55 -1.65 21.5" fill="#291214" fill-rule="evenodd" stroke="none"/>
      <path d="M-1.45 21.5 L-1.2 80.3 -15.8 80.4 -15.85 76.35 -12.85 74.45 -15.95 18.55 -1.45 21.5" fill="#291214" fill-rule="evenodd" stroke="none"/>
      <path d="M12.6 21.9 L13.0 21.9 12.6 21.95 12.6 21.9" fill="#261817" fill-rule="evenodd" stroke="none"/>
      <path d="M11.8 20.65 L13.1 44.15 10.45 54.2 5.0 53.4 -0.5 54.2 0.6 42.55 -0.5 22.25 11.8 20.65 M10.15 55.05 L10.15 60.2 3.05 58.7 -0.85 62.3 -0.85 55.05 5.05 54.3 10.15 55.05 M3.55 57.0 L4.3 57.65 5.05 56.9 5.05 54.75 3.5 54.75 3.1 56.2 3.5 56.9 3.5 56.95 3.5 57.0 3.55 57.0 M1.55 56.2 L-0.05 56.2 -0.05 59.05 1.55 59.05 1.95 57.65 1.55 56.2 M9.75 57.65 L9.35 56.2 7.8 56.2 7.8 58.35 8.6 59.05 9.35 58.35 9.75 57.65 M3.25 59.2 L11.95 61.25 11.35 64.95 -0.85 64.95 -0.7 62.3 3.25 59.2" fill="#481520" fill-rule="evenodd" stroke="none"/>
      <path d="M3.55 57.0 L4.65 57.0 4.65 55.55 4.3 54.85 3.5 55.55 3.5 56.9 3.1 56.2 3.5 54.75 5.05 54.75 5.05 56.9 4.3 57.65 3.55 57.0 M1.15 58.4 L1.15 57.7 1.55 57.7 0.75 56.25 0.0 57.7 0.35 58.4 1.15 58.4 M1.55 56.2 L1.95 57.65 1.55 59.05 -0.05 59.05 -0.05 56.2 1.55 56.2 M8.2 58.4 L8.95 58.4 8.95 57.7 9.35 57.7 8.6 56.25 7.8 57.7 8.2 58.4 M9.75 57.65 L9.35 58.35 8.6 59.05 7.8 58.35 7.8 56.2 9.35 56.2 9.75 57.65" fill="#291214" fill-rule="evenodd" stroke="none"/>
      <path d="M3.5 56.9 L3.5 55.55 4.3 54.85 4.65 55.55 4.65 57.0 3.55 57.0 3.5 57.0 3.5 56.95 3.5 56.9 M1.15 58.4 L0.35 58.4 0.0 57.7 0.75 56.25 1.55 57.7 1.15 57.7 1.15 58.4 M8.2 58.4 L7.8 57.7 8.6 56.25 9.35 57.7 8.95 57.7 8.95 58.4 8.2 58.4" fill="#c25e86" fill-rule="evenodd" stroke="none"/>
      <path d="M-15.25 22.0 L-15.55 21.9 -15.25 21.9 -15.2 21.9 -15.2 22.0 -15.25 22.0" fill="#261817" fill-rule="evenodd" stroke="none"/>
      <path d="M-15.25 21.9 L-15.15 19.65 -1.9 22.45 -1.5 67.6 -7.0 66.9 -12.45 67.6 -15.25 22.0 -15.2 22.0 -15.2 21.9 -15.25 21.9 M-12.05 70.95 L-11.65 71.65 -10.85 72.35 -10.05 71.65 -10.05 69.5 -11.65 69.5 -12.05 70.95 M-12.45 68.35 L-7.35 67.6 -1.5 68.35 -1.5 76.2 -1.5 77.6 -15.2 78.3 -15.55 76.9 -5.4 71.9 -5.0 71.9 -1.5 76.2 -5.4 70.45 -12.45 74.0 -12.45 68.35 M-5.8 70.25 L-5.75 70.2 -5.4 69.5 -5.75 68.05 -7.35 68.05 -7.35 70.2 -6.55 70.95 -5.85 70.3 -5.8 70.3 -5.8 70.25 M-3.8 69.5 L-4.2 70.95 -3.8 72.35 -2.25 72.35 -2.25 69.5 -3.8 69.5 M-1.5 78.3 L-1.5 79.75 -15.2 79.75 -15.2 79.05 -1.5 78.3" fill="#481520" fill-rule="evenodd" stroke="none"/>
      <path d="M-10.9 69.6 L-11.65 71.0 -11.3 71.0 -11.3 71.75 -10.5 71.75 -10.1 71.0 -10.9 69.6 M-12.05 70.95 L-11.65 69.5 -10.05 69.5 -10.05 71.65 -10.85 72.35 -11.65 71.65 -12.05 70.95 M-5.85 70.3 L-6.55 70.95 -7.35 70.2 -7.35 68.05 -5.75 68.05 -5.4 69.5 -5.75 70.2 -5.8 70.25 -5.8 68.85 -6.6 68.15 -7.0 68.85 -7.0 70.3 -5.85 70.3 M-3.05 69.6 L-3.85 71.0 -3.45 71.0 -3.45 71.75 -2.7 71.75 -2.3 71.0 -3.05 69.6 M-3.8 69.5 L-2.25 69.5 -2.25 72.35 -3.8 72.35 -4.2 70.95 -3.8 69.5" fill="#291214" fill-rule="evenodd" stroke="none"/>
      <path d="M-10.9 69.6 L-10.1 71.0 -10.5 71.75 -11.3 71.75 -11.3 71.0 -11.65 71.0 -10.9 69.6 M-5.8 70.25 L-5.8 70.3 -5.85 70.3 -7.0 70.3 -7.0 68.85 -6.6 68.15 -5.8 68.85 -5.8 70.25 M-3.05 69.6 L-2.3 71.0 -2.7 71.75 -3.45 71.75 -3.45 71.0 -3.85 71.0 -3.05 69.6" fill="#c25e86" fill-rule="evenodd" stroke="none"/>
    </g>
    <g id="shape1" transform="matrix(1.0, 0.0, 0.0, 1.0, 12.25, 114.75)">
      <path d="M-8.6 -102.05 L-9.8 -103.85 -10.45 -106.25 -6.8 -103.85 -5.6 -107.5 -5.0 -112.9 -2.55 -111.7 -1.35 -112.9 -0.15 -114.75 0.45 -112.3 1.05 -111.1 1.65 -108.7 2.2 -104.55 1.65 -105.05 -2.55 -105.05 1.65 -105.65 1.05 -105.65 1.05 -109.9 -0.15 -114.15 -2.55 -110.5 -3.15 -111.7 -4.4 -112.3 -5.6 -105.05 -5.6 -104.45 -6.2 -103.85 -5.6 -103.85 -5.6 -103.25 -6.2 -103.25 -5.0 -102.65 -2.55 -102.65 1.05 -103.25 2.3 -103.85 3.5 -105.05 5.3 -107.5 4.7 -102.05 2.9 -102.05 8.95 -62.65 -1.35 -54.75 -11.65 -63.85 -12.25 -63.85 -9.2 -85.7 -6.2 -102.05 -3.75 -102.05 -8.6 -103.85 -9.8 -105.05 -9.8 -104.45 -8.6 -102.05 M2.2 -104.4 L2.3 -103.85 1.65 -103.85 1.05 -104.45 1.65 -105.05 1.65 -103.85 2.2 -104.4 M-0.15 -104.45 L0.45 -104.45 0.45 -103.85 -0.15 -104.45 -0.75 -103.85 -0.15 -103.85 -0.15 -103.25 -0.75 -103.85 -0.75 -104.05 -0.15 -104.45 M2.3 -103.25 L-1.95 -102.05 1.05 -102.65 4.1 -102.65 4.7 -106.25 3.5 -104.45 2.3 -103.25 M0.45 -85.7 L-0.75 -86.9 -1.35 -86.3 -1.35 -86.9 -0.75 -86.9 -0.15 -86.9 0.45 -86.3 0.45 -85.7 M2.25 -96.55 L2.3 -96.6 2.3 -97.2 2.9 -96.6 2.9 -96.0 2.4 -95.7 -1.35 -93.55 2.3 -92.95 -1.35 -92.95 -1.95 -93.55 -1.95 -92.95 -2.55 -94.15 -2.65 -93.4 -3.75 -91.75 -4.55 -91.55 -4.6 -91.55 -6.2 -91.15 -4.4 -91.75 -3.15 -92.95 -5.0 -92.95 -3.15 -93.55 -6.2 -95.4 -6.2 -96.0 -6.25 -96.0 -6.5 -96.0 -11.65 -66.35 -11.05 -66.35 -10.45 -65.85 -10.45 -65.75 -9.35 -64.8 -9.8 -65.75 -9.8 -68.15 -8.6 -74.2 -6.2 -81.95 -5.6 -83.9 -5.6 -84.5 -3.75 -83.3 -3.75 -83.9 -3.15 -83.3 -3.15 -82.7 -1.35 -83.9 0.45 -84.5 5.3 -71.2 5.9 -67.55 5.9 -66.95 5.9 -65.75 5.3 -64.55 5.9 -66.95 4.7 -71.8 -0.15 -83.9 -2.55 -82.7 -3.15 -82.7 -3.75 -82.7 -5.0 -83.9 -6.2 -80.0 -7.4 -76.05 -9.2 -67.55 -6.8 -74.2 -6.2 -75.2 -5.0 -77.25 -3.15 -79.05 -6.2 -74.5 -6.8 -73.6 -9.2 -66.95 -9.2 -64.7 -6.2 -62.1 -6.2 -62.4 -1.35 -58.5 6.5 -63.95 8.3 -65.15 2.3 -102.05 -2.55 -101.45 -5.6 -101.45 -6.2 -100.2 -5.8 -100.2 -5.9 -99.6 -6.2 -99.6 -6.2 -97.9 -6.4 -96.6 -6.2 -96.6 -6.1 -96.65 -5.6 -97.2 -5.6 -96.6 -2.55 -94.8 -1.95 -99.0 -1.95 -94.8 2.25 -96.55 M4.7 -70.6 L5.3 -68.75 0.45 -76.65 -3.15 -79.05 -2.55 -79.65 -1.35 -78.45 0.45 -77.25 4.7 -70.6 M-1.95 -104.45 L-2.55 -103.85 -1.95 -103.85 -1.95 -103.25 -2.55 -103.85 -2.55 -104.45 -1.95 -104.45 M-4.4 -103.85 L-3.75 -103.85 -3.75 -103.25 -4.4 -103.85 M-2.8 -92.5 L-3.75 -85.7 -3.75 -88.1 -3.5 -89.35 -3.5 -89.4 -2.8 -92.5 M-1.35 -92.95 L1.65 -91.15 -0.15 -91.75 -1.35 -92.95 M-5.6 -84.5 L-5.6 -85.1 -5.0 -85.7 -5.6 -84.5" fill="#000000" fill-rule="evenodd" stroke="none"/>
      <path d="M0.45 -85.7 L0.45 -86.3 -0.15 -86.9 -0.75 -86.9 -1.35 -86.9 -1.35 -86.3 -0.75 -86.9 0.45 -85.7 M2.4 -95.7 L4.1 -85.1 6.5 -63.95 -1.35 -58.5 -6.2 -62.4 -6.2 -74.5 -3.15 -79.05 -5.0 -77.25 -6.2 -75.2 -6.2 -80.0 -5.0 -83.9 -3.75 -82.7 -3.15 -82.7 -2.55 -82.7 -0.15 -83.9 4.7 -71.8 5.9 -66.95 5.9 -67.55 5.3 -71.2 0.45 -84.5 -1.35 -83.9 -3.15 -82.7 -3.15 -83.3 -3.75 -83.9 -3.75 -83.3 -5.6 -84.5 -5.6 -83.9 -6.2 -81.95 -6.2 -91.15 -6.2 -95.4 -3.15 -93.55 -5.0 -92.95 -3.15 -92.95 -4.4 -91.75 -6.2 -91.15 -4.6 -91.55 -4.55 -91.55 -3.75 -91.75 -2.65 -93.4 -2.55 -94.15 -1.95 -92.95 -1.95 -93.55 -1.35 -92.95 2.3 -92.95 -1.35 -93.55 2.4 -95.7 M-5.8 -100.2 L1.65 -100.2 2.25 -96.55 -1.95 -94.8 -1.95 -99.0 -2.55 -94.8 -5.6 -96.6 -5.6 -97.2 -6.1 -96.65 -5.6 -99.6 -5.9 -99.6 -5.8 -100.2 M-6.2 -96.6 L-6.4 -96.6 -6.2 -97.9 -6.2 -96.6 M4.7 -70.6 L0.45 -77.25 -1.35 -78.45 -2.55 -79.65 -3.15 -79.05 0.45 -76.65 5.3 -68.75 4.7 -70.6 M5.9 -66.95 L5.3 -64.55 5.9 -65.75 5.9 -66.95 M-10.45 -65.85 L-11.05 -66.35 -11.65 -66.35 -6.5 -96.0 -6.25 -96.0 -8.6 -82.7 -10.45 -65.85 M-2.55 -93.55 L-2.65 -93.4 -2.55 -93.55 M-1.35 -92.95 L-0.15 -91.75 1.65 -91.15 -1.35 -92.95 M-2.8 -92.5 L-3.5 -89.4 -3.5 -89.35 -3.75 -88.1 -3.75 -85.7 -2.8 -92.5 M-5.6 -84.5 L-5.0 -85.7 -5.6 -85.1 -5.6 -84.5" fill="#b2b1cb" fill-rule="evenodd" stroke="none"/>
      <path d="M-8.6 -102.05 L-9.8 -104.45 -9.8 -105.05 -8.6 -103.85 -3.75 -102.05 -6.2 -102.05 -8.6 -102.05 M-4.4 -112.3 L-3.15 -111.7 -2.55 -110.5 -0.15 -114.15 1.05 -109.9 1.05 -105.65 1.65 -105.65 -2.55 -105.05 -1.95 -106.85 -1.95 -109.9 -2.55 -109.9 -4.4 -111.7 -4.4 -112.3 M2.3 -103.25 L3.5 -104.45 4.7 -106.25 4.1 -102.65 1.05 -102.65 -1.95 -102.05 2.3 -103.25" fill="#333333" fill-rule="evenodd" stroke="none"/>
      <path d="M2.4 -95.7 L2.9 -96.0 2.9 -96.6 2.3 -97.2 2.3 -96.6 2.25 -96.55 1.65 -100.2 -5.8 -100.2 -6.2 -100.2 -5.6 -101.45 -2.55 -101.45 2.3 -102.05 8.3 -65.15 6.5 -63.95 4.1 -85.1 2.4 -95.7" fill="#7173b3" fill-rule="evenodd" stroke="none"/>
      <path d="M-6.1 -96.65 L-6.2 -96.6 -6.2 -97.9 -6.2 -99.6 -5.9 -99.6 -5.6 -99.6 -6.1 -96.65 M-6.2 -80.0 L-6.2 -75.2 -6.8 -74.2 -9.2 -67.55 -7.4 -76.05 -6.2 -80.0 M-6.2 -74.5 L-6.2 -62.4 -6.2 -62.1 -9.2 -64.7 -9.2 -66.95 -6.8 -73.6 -6.2 -74.5 M-6.2 -81.95 L-8.6 -74.2 -9.8 -68.15 -9.8 -65.75 -9.35 -64.8 -10.45 -65.75 -10.45 -65.85 -8.6 -82.7 -6.25 -96.0 -6.2 -96.0 -6.2 -95.4 -6.2 -91.15 -6.2 -81.95" fill="#d9dae6" fill-rule="evenodd" stroke="none"/>
      <path d="M2.3 -103.85 L1.05 -103.25 -2.55 -102.65 -5.0 -102.65 -6.2 -103.25 -5.6 -103.25 -5.0 -103.85 -5.6 -104.45 -5.6 -105.05 -2.55 -105.05 1.65 -105.05 1.05 -104.45 1.65 -103.85 2.3 -103.85 M0.45 -103.85 L0.45 -104.45 -0.15 -104.45 -0.75 -104.05 -0.75 -103.85 -0.15 -103.25 0.45 -103.85 M-1.95 -103.25 L-1.35 -103.85 -1.95 -104.45 -2.55 -104.45 -2.55 -103.85 -1.95 -103.25 M-3.75 -103.25 L-3.15 -103.85 -3.75 -104.45 -4.4 -103.85 -3.75 -103.25" fill="#989898" fill-rule="evenodd" stroke="none"/>
      <path d="M-5.6 -103.25 L-5.6 -103.85 -6.2 -103.85 -5.6 -104.45 -5.0 -103.85 -5.6 -103.25 M1.65 -105.05 L2.2 -104.55 2.3 -104.45 2.2 -104.4 1.65 -103.85 1.65 -105.05 M-0.15 -104.45 L0.45 -103.85 -0.15 -103.25 -0.15 -103.85 -0.75 -103.85 -0.15 -104.45 M-1.95 -104.45 L-1.35 -103.85 -1.95 -103.25 -1.95 -103.85 -2.55 -103.85 -1.95 -104.45 M-3.75 -103.25 L-3.75 -103.85 -4.4 -103.85 -3.75 -104.45 -3.15 -103.85 -3.75 -103.25" fill="#cbcbcb" fill-rule="evenodd" stroke="none"/>
      <path d="M-5.6 -105.05 L-4.4 -112.3 -4.4 -111.7 -2.55 -109.9 -1.95 -109.9 -1.95 -106.85 -2.55 -105.05 -5.6 -105.05" fill="#666666" fill-rule="evenodd" stroke="none"/>
    </g>
    <g id="shape2" transform="matrix(1.0, 0.0, 0.0, 1.0, 40.65, 64.95)">
      <path d="M2.1 -52.0 L2.3 -51.65 1.65 -51.65 0.45 -49.25 1.05 -49.25 3.15 -40.9 8.8 -57.9 2.1 -52.0 M2.3 -53.45 L2.9 -53.45 10.15 -60.1 8.95 -63.75 -0.75 -58.9 2.3 -53.45 M11.35 -60.1 L10.75 -59.6 34.35 -40.75 33.75 -39.55 36.75 -14.75 31.3 24.55 30.1 24.55 29.5 28.8 28.3 28.8 31.3 34.25 22.25 43.9 15.0 36.65 16.8 34.25 16.2 29.4 16.8 29.4 19.2 26.4 19.2 22.75 18.0 22.75 19.8 7.65 17.4 -5.05 12.55 1.0 13.75 23.95 13.15 23.95 -1.0 26.75 -3.2 26.4 -4.4 26.4 -4.4 26.2 -17.7 23.95 -18.3 23.95 -16.45 1.0 -21.9 -5.05 -24.35 7.65 -21.9 22.75 -23.15 22.75 -23.15 26.4 -20.7 29.4 -20.1 29.4 -20.7 34.25 -19.5 36.65 -26.15 43.9 -35.2 34.25 -32.8 28.8 -33.4 28.8 -34.0 24.55 -35.2 24.55 -40.65 -14.75 -37.65 -39.55 -38.25 -40.75 -14.2 -59.65 -14.65 -60.1 -13.45 -64.95 -12.85 -64.95 -1.95 -58.9 9.55 -64.95 10.15 -64.95 11.35 -60.1 M15.6 -52.25 L15.0 -52.25 14.35 -52.85 15.6 -54.05 16.8 -54.05 14.35 -55.9 13.75 -48.0 7.1 -46.2 9.55 -40.15 2.1 -31.5 8.95 -40.15 6.5 -46.2 13.15 -48.0 13.75 -56.5 10.75 -58.3 0.0 -29.05 -1.35 -27.45 -1.35 -24.45 1.3 -27.45 1.05 -27.45 1.05 -28.05 1.65 -28.05 1.65 -27.85 12.55 -40.15 8.95 -45.0 14.35 -45.0 16.2 -45.0 16.2 -52.25 15.6 -52.25 15.6 -52.85 16.2 -52.85 15.6 -53.45 15.0 -52.85 15.6 -52.25 M1.05 -29.25 L0.45 -28.05 1.05 -27.45 0.45 -27.45 -0.15 -28.05 0.45 -29.25 1.05 -29.25 1.65 -29.25 1.65 -28.05 1.05 -29.25 M24.65 -25.65 L25.25 -25.65 25.85 -25.05 26.4 -23.95 32.4 -37.65 31.3 -37.15 30.1 -37.75 29.5 -39.55 30.1 -40.75 31.3 -41.35 31.9 -41.35 32.5 -40.75 32.5 -37.95 33.75 -40.75 30.7 -42.55 12.55 -0.25 20.4 -11.75 21.05 -11.75 25.8 -22.55 24.65 -22.0 23.45 -22.6 23.45 -25.05 24.65 -25.65 24.05 -25.05 24.05 -23.2 24.65 -22.6 25.25 -23.2 25.25 -24.45 25.85 -24.45 24.65 -25.65 M31.3 -37.75 L31.9 -38.35 31.9 -40.15 31.3 -40.75 30.1 -39.55 30.7 -38.35 31.3 -37.75 M30.1 -42.55 L29.5 -42.55 17.4 -53.45 16.8 -43.8 10.75 -43.8 13.15 -40.15 -0.75 -23.35 -0.75 20.95 12.55 18.5 11.35 0.35 30.1 -42.55 M26.45 -31.1 L27.7 -29.85 28.3 -30.5 28.3 -31.1 28.9 -31.1 28.3 -32.3 27.7 -32.9 27.05 -32.3 26.45 -31.1 M13.75 -46.2 L13.75 -46.8 14.35 -47.4 15.0 -47.4 15.0 -46.8 15.6 -46.2 14.35 -45.0 13.75 -45.6 13.75 -46.2 14.35 -45.6 14.35 -46.2 15.0 -46.2 14.35 -46.8 13.75 -46.2 M27.7 -32.9 L28.3 -32.9 28.9 -32.3 28.9 -31.1 28.9 -29.85 27.7 -29.25 26.45 -29.85 25.85 -31.1 26.45 -32.3 27.7 -32.9 M10.75 -40.75 L10.15 -40.15 10.75 -39.55 10.75 -40.75 11.35 -40.75 11.35 -39.55 10.75 -38.95 9.55 -39.55 9.55 -40.15 9.55 -40.75 10.75 -40.75 M8.3 -46.2 L8.95 -46.2 9.55 -45.6 8.3 -44.4 8.3 -45.6 8.95 -45.6 8.3 -46.2 7.7 -45.6 8.3 -44.4 7.7 -45.0 7.7 -45.6 7.7 -46.2 8.3 -46.2 M5.9 -33.5 L5.9 -34.1 6.5 -34.1 5.9 -34.7 5.3 -34.1 5.3 -34.7 5.9 -35.3 6.5 -35.3 6.5 -34.7 7.1 -34.1 6.5 -33.5 5.9 -33.5 5.3 -33.5 5.3 -34.1 5.9 -33.5 M7.9 -27.0 L7.7 -26.85 5.3 -27.45 7.9 -27.0 13.75 -31.7 14.35 -31.7 14.35 -31.1 15.6 -31.7 15.85 -31.1 15.6 -31.1 14.35 -30.5 16.8 -26.25 17.4 -26.25 16.6 -29.45 18.0 -26.25 19.2 -26.25 19.2 -25.05 7.9 -27.0 M16.2 -26.25 L13.75 -31.1 8.95 -27.45 15.6 -26.25 16.2 -26.25 M21.65 -13.55 L21.65 -15.35 21.05 -15.95 19.8 -15.35 19.8 -13.55 19.2 -14.75 19.8 -15.95 21.05 -16.55 21.65 -16.55 21.65 -15.95 22.25 -14.75 21.65 -13.55 21.05 -12.95 19.8 -13.55 21.65 -13.55 M24.05 20.35 L24.65 19.75 25.0 19.75 19.2 18.5 19.2 20.35 19.2 22.15 30.7 23.95 31.3 20.95 30.7 20.95 30.1 20.8 30.1 20.95 30.7 22.15 30.1 23.35 29.5 23.35 30.1 22.75 30.1 21.55 29.5 20.95 28.3 22.15 28.3 20.95 29.0 20.6 25.35 19.8 25.85 20.35 25.85 21.55 25.25 20.35 24.05 20.35 24.05 22.15 25.25 22.15 25.25 21.55 25.85 21.55 25.85 22.15 24.65 22.75 23.45 21.55 24.05 20.35 M33.1 -37.75 L22.25 -11.75 18.0 -5.7 21.05 8.25 19.2 17.9 31.3 19.75 36.15 -14.15 33.1 -37.75 M28.3 22.15 L29.5 23.35 28.3 23.35 28.3 22.15 M19.8 21.55 L19.2 20.35 20.4 19.1 21.05 19.1 21.65 19.75 21.65 20.35 21.05 19.75 19.8 19.75 19.8 21.55 21.05 21.55 21.05 20.35 21.65 20.35 21.65 21.55 20.4 22.15 19.8 21.55 M2.9 7.0 L2.9 6.4 9.0 7.55 2.9 7.0 M4.1 22.75 L4.1 23.35 3.5 23.95 2.3 22.75 3.5 21.55 4.1 21.55 4.1 22.75 3.5 22.15 2.9 22.75 3.5 23.35 3.5 22.75 4.1 22.75 M7.7 20.95 L7.7 21.55 8.3 22.15 7.1 23.35 5.9 22.15 7.1 20.95 7.7 20.95 M7.1 22.15 L7.7 22.15 7.1 21.55 6.5 22.15 7.1 22.75 7.1 22.15 M12.55 19.1 L11.95 19.1 -0.75 21.55 -0.75 22.15 -0.15 22.75 -0.15 23.95 -0.75 24.25 -0.75 25.5 13.15 23.35 12.55 19.1 M11.95 21.55 L10.75 20.95 10.15 21.55 10.15 20.95 10.75 20.35 11.35 20.35 11.95 20.95 11.95 21.55 11.95 22.15 10.75 22.75 10.15 22.15 10.15 21.55 10.75 22.15 11.35 21.55 11.95 21.55 M17.4 34.25 L19.2 34.85 22.85 33.65 22.85 31.2 24.05 35.45 22.85 34.25 19.2 36.65 17.4 34.85 16.8 36.65 22.25 42.7 30.1 33.65 27.7 28.8 20.4 27.6 16.8 30.6 17.4 34.25 M28.9 28.2 L29.5 25.15 19.8 23.35 19.8 26.4 28.9 28.2 M-13.2 -58.75 L-17.7 -56.5 -17.1 -48.0 -10.45 -46.2 -12.85 -40.15 -3.15 -28.65 -10.8 -56.5 -13.2 -58.75 M-11.65 -45.0 L-11.65 -44.7 -11.05 -46.2 -17.7 -48.0 -18.3 -55.9 -20.7 -54.05 -19.5 -54.05 -18.9 -53.45 -18.9 -52.85 -19.5 -53.45 -20.1 -52.85 -19.5 -52.85 -19.5 -52.25 -20.1 -52.25 -20.1 -45.0 -18.3 -45.0 -13.45 -45.0 -12.85 -45.6 -12.85 -46.2 -12.25 -46.2 -11.65 -45.6 -11.65 -45.0 -12.25 -45.6 -12.85 -45.0 -12.25 -45.0 -12.25 -44.4 -11.65 -45.0 M-18.9 -52.85 L-18.9 -52.25 -19.5 -52.25 -18.9 -52.85 M-6.0 -52.0 L-9.75 -55.55 -6.05 -42.2 -4.4 -48.6 -4.25 -48.75 -6.2 -51.65 -6.0 -52.0 M-5.6 -52.85 L-3.15 -58.9 -12.85 -63.75 -14.05 -60.1 -6.2 -52.85 -5.6 -52.85 M-3.15 -52.25 L-3.15 -53.45 -1.95 -54.05 -1.35 -54.05 -0.75 -53.45 -0.75 -51.65 -1.95 -51.05 -3.15 -51.65 -3.15 -52.25 -2.55 -51.65 -1.35 -51.65 -1.35 -52.85 -1.95 -53.45 -3.15 -52.25 M-1.95 -42.55 L-1.35 -42.55 -0.75 -41.95 -0.15 -40.75 -0.75 -39.55 -1.95 -38.95 -2.55 -39.55 -3.15 -40.75 -2.55 -41.95 -1.95 -42.55 M-0.15 -48.6 L-3.15 -48.6 -5.6 -40.15 -1.95 -28.05 2.3 -38.95 -0.15 -48.6 M-1.95 -57.1 L-5.0 -51.65 -3.15 -49.25 -0.15 -49.25 1.05 -51.65 -1.95 -57.1 M-1.95 -41.95 L-2.55 -41.35 -2.55 -40.15 -1.95 -39.55 -0.75 -40.15 -0.75 -41.35 -1.95 -41.95 M-12.25 -43.8 L-13.1 -44.65 -17.1 -40.15 -1.4 -22.05 -1.35 -22.0 -1.4 -22.1 -1.95 -26.25 -3.75 -28.4 -3.75 -28.05 -3.75 -27.45 -4.4 -26.85 -5.6 -28.05 -5.0 -28.65 -5.0 -29.25 -4.45 -29.25 -13.45 -40.15 -14.65 -38.95 -15.25 -39.55 -15.25 -40.15 -15.25 -40.75 -14.65 -40.75 -14.05 -40.75 -13.45 -40.15 -11.85 -44.2 -12.25 -43.8 M-17.7 -46.2 L-17.7 -45.6 -18.3 -45.0 -19.5 -46.2 -18.9 -46.8 -18.9 -47.4 -18.3 -47.4 -17.7 -46.8 -17.7 -46.2 -18.3 -46.8 -18.9 -46.2 -18.3 -46.2 -18.3 -45.6 -17.7 -46.2 M-14.65 -40.75 L-15.25 -40.15 -14.65 -40.15 -14.65 -39.55 -14.05 -40.15 -14.65 -40.75 M-14.65 -43.8 L-20.7 -43.8 -21.3 -53.45 -33.4 -42.55 -34.0 -42.55 -15.85 0.35 -16.45 18.5 -4.4 20.35 -3.75 -23.8 -17.7 -40.15 -14.65 -43.8 M-10.45 -34.1 L-10.45 -34.7 -9.8 -34.7 -9.2 -34.7 -8.6 -34.1 -9.8 -32.9 -10.45 -33.5 -10.45 -34.1 -9.8 -34.1 -9.8 -33.5 -9.2 -34.1 -9.8 -34.7 -10.45 -34.1 M-4.4 -28.65 L-5.0 -28.05 -4.4 -28.05 -4.4 -27.45 -3.75 -28.05 -4.4 -28.65 M-36.45 -39.55 L-35.85 -39.55 -35.85 -38.35 -35.2 -37.75 -34.6 -38.35 -34.0 -39.55 -35.2 -40.75 -36.45 -39.55 -36.45 -40.75 -35.85 -41.35 -35.2 -41.35 -34.3 -40.9 -35.2 -42.55 -37.65 -40.75 -36.45 -38.0 -36.45 -39.55 M-28.55 -25.65 L-27.35 -25.05 -27.35 -22.6 -28.55 -22.0 -29.7 -22.55 -26.15 -14.55 -26.15 -15.95 -25.55 -16.55 -24.95 -16.55 -23.75 -15.95 -23.15 -14.75 -23.75 -13.55 -24.95 -12.95 -25.6 -13.25 -24.95 -11.75 -24.35 -11.75 -16.45 -0.25 -32.2 -37.15 -34.0 -40.4 -34.0 -39.55 -34.0 -37.75 -35.2 -37.15 -36.3 -37.65 -33.4 -31.1 -30.3 -24.0 -29.8 -25.05 -29.2 -25.65 -28.55 -25.65 -29.2 -25.05 -29.8 -23.8 -29.2 -23.8 -29.2 -23.2 -28.55 -22.6 -27.95 -23.2 -27.95 -25.05 -28.55 -25.65 M-31.6 -32.9 L-32.2 -32.3 -32.8 -31.1 -32.2 -31.1 -32.2 -30.5 -31.6 -29.85 -30.4 -31.1 -30.4 -29.85 -31.6 -29.25 -32.8 -29.85 -33.4 -31.1 -32.8 -32.3 -32.2 -32.9 -31.6 -32.9 -30.4 -32.3 -30.4 -31.1 -31.0 -32.3 -31.6 -32.9 M-25.55 -15.35 L-25.55 -13.55 -24.35 -13.55 -23.75 -14.75 -24.95 -15.95 -25.55 -15.35 M-26.15 -11.75 L-37.05 -37.75 -40.05 -14.15 -35.2 19.75 -23.15 17.9 -24.95 8.25 -21.9 -5.7 -26.15 -11.75 M-3.15 -23.2 L-3.75 20.95 -15.85 19.1 -16.45 19.1 -17.1 23.35 -1.35 25.75 -1.35 23.95 -2.55 24.55 -3.15 23.95 -3.15 23.35 -3.15 22.15 -2.55 22.15 -1.35 22.75 -1.35 17.3 -2.55 17.9 -3.15 17.3 -3.15 16.7 -3.15 15.5 -2.55 15.5 -1.35 16.1 -1.35 10.65 -2.55 10.65 -3.15 10.65 -3.15 10.05 -3.15 8.85 -2.55 8.85 -1.35 8.85 -1.35 4.0 -2.55 4.0 -3.15 4.0 -3.15 2.8 -3.15 2.2 -2.55 2.2 -1.35 2.2 -1.35 -3.25 -2.55 -2.65 -3.15 -3.25 -3.15 -3.85 -3.15 -5.05 -2.55 -5.05 -1.35 -4.45 -1.35 -9.9 -1.95 -9.3 -3.15 -9.9 -3.15 -10.5 -3.15 -11.1 -2.55 -11.75 -1.95 -11.75 -1.35 -11.1 -1.35 -16.55 -1.95 -16.55 -3.15 -16.55 -3.15 -18.4 -1.95 -18.4 -1.35 -18.4 -1.35 -21.4 -3.15 -23.2 M-1.95 -18.4 L-2.55 -17.15 -1.95 -17.15 -1.95 -16.55 -1.35 -17.15 -1.95 -18.4 M-1.35 -10.5 L-1.95 -11.1 -3.15 -10.5 -2.55 -10.5 -1.95 -9.9 -1.35 -10.5 M-3.15 -3.85 L-2.55 -3.85 -2.55 -3.25 -1.35 -3.85 -2.55 -4.45 -3.15 -3.85 M-3.15 2.8 L-2.55 2.8 -2.55 4.0 -1.95 2.8 -2.55 2.2 -3.15 2.8 M-6.8 6.4 L-7.4 7.0 -12.8 7.5 -6.8 6.4 M-2.55 10.05 L-2.55 10.65 -1.95 10.05 -2.55 8.85 -3.15 10.05 -2.55 10.05 M-15.85 21.55 L-15.85 20.35 -15.25 20.35 -15.85 21.55 -15.25 21.55 -15.25 22.15 -14.65 21.55 -15.25 20.35 -14.65 20.35 -14.05 21.55 -14.65 22.15 -15.25 22.15 -15.85 22.15 -15.85 21.55 M-11.05 20.95 L-9.8 22.15 -10.45 22.75 -11.05 22.75 -11.65 22.75 -11.65 22.15 -11.65 20.95 -11.05 20.95 M-11.65 22.15 L-11.05 22.15 -11.05 22.75 -10.45 22.15 -11.05 21.55 -11.65 22.15 M-2.55 16.7 L-2.55 17.3 -1.95 16.7 -2.55 16.1 -3.15 16.7 -2.55 16.7 M-6.8 21.55 L-6.2 22.15 -6.2 22.75 -6.2 23.35 -6.8 23.95 -8.0 22.75 -7.4 22.15 -7.4 21.55 -6.8 21.55 M-33.4 23.35 L-32.8 22.75 -32.8 21.55 -33.4 20.95 -34.0 21.55 -34.0 22.75 -33.4 23.35 -34.0 23.35 -34.6 22.15 -34.0 20.95 -34.0 20.8 -34.6 20.95 -35.2 20.95 -34.6 23.95 -23.15 22.15 -23.75 18.5 -32.95 20.55 -32.2 20.95 -32.2 23.35 -33.4 23.35 M-3.15 23.35 L-2.55 23.35 -2.55 23.95 -1.95 23.35 -2.55 22.75 -3.15 23.35 M-6.2 22.75 L-6.8 22.15 -7.4 22.75 -6.8 22.75 -6.8 23.35 -6.2 22.75 M-25.55 21.55 L-24.35 21.55 -23.75 20.35 -24.35 19.75 -25.55 19.75 -25.55 21.55 -26.15 20.35 -25.55 19.75 -25.55 19.1 -24.95 19.1 -23.75 19.75 -23.75 20.35 -23.75 21.55 -24.95 22.15 -25.55 21.55 M-29.8 21.55 L-29.2 21.55 -29.2 22.15 -27.95 22.15 -28.55 22.75 -29.8 22.15 -29.8 21.55 -29.8 20.35 -29.2 19.75 -28.55 19.75 -27.95 20.35 -27.35 21.55 -27.95 22.15 -27.95 20.35 -29.2 20.35 -29.8 21.55 M-24.35 27.6 L-31.6 28.8 -34.0 33.65 -26.75 42.7 -20.7 36.65 -21.3 34.85 -23.75 36.65 -26.75 34.25 -27.95 35.45 -26.75 31.2 -26.75 33.65 -23.15 34.85 -21.3 34.25 -20.7 30.6 -24.35 27.6 M-32.8 28.2 L-23.75 26.4 -24.35 23.35 -33.4 25.15 -32.8 28.2" fill="#291214" fill-rule="evenodd" stroke="none"/>
      <path d="M2.3 -53.45 L-0.75 -58.9 8.95 -63.75 10.15 -60.1 2.9 -53.45 2.3 -53.45 M2.1 -52.0 L8.8 -57.9 3.15 -40.9 1.05 -49.25 0.45 -49.25 1.65 -51.65 2.3 -51.65 2.1 -52.0 M15.6 -52.25 L15.0 -52.85 15.6 -53.45 16.2 -52.85 15.6 -52.85 15.6 -52.25 M1.65 -28.05 L1.05 -28.05 1.05 -27.45 0.45 -28.05 1.05 -29.25 1.65 -28.05 M24.65 -25.65 L25.85 -24.45 25.25 -24.45 25.25 -23.2 24.65 -22.6 24.05 -23.2 24.05 -25.05 24.65 -25.65 M31.3 -37.75 L30.7 -38.35 30.1 -39.55 31.3 -40.75 31.9 -40.15 31.9 -38.35 31.3 -37.75 M26.45 -31.1 L27.05 -32.3 27.7 -32.9 28.3 -32.3 28.9 -31.1 28.3 -31.1 28.3 -30.5 27.7 -29.85 26.45 -31.1 M13.75 -46.2 L14.35 -46.8 15.0 -46.2 14.35 -46.2 14.35 -45.6 13.75 -46.2 M10.75 -40.75 L10.75 -39.55 10.15 -40.15 10.75 -40.75 M8.3 -46.2 L8.95 -45.6 8.3 -45.6 8.3 -44.4 7.7 -45.6 8.3 -46.2 M5.3 -34.1 L5.9 -34.7 6.5 -34.1 5.9 -34.1 5.9 -33.5 5.3 -34.1 M15.85 -31.1 L16.2 -31.1 16.6 -29.45 17.4 -26.25 16.8 -26.25 14.35 -30.5 15.6 -31.1 15.85 -31.1 M16.2 -26.25 L15.6 -26.25 8.95 -27.45 13.75 -31.1 16.2 -26.25 M19.8 -13.55 L19.8 -15.35 21.05 -15.95 21.65 -15.35 21.65 -13.55 19.8 -13.55 M24.05 20.35 L25.25 20.35 25.85 21.55 25.25 21.55 25.25 22.15 24.05 22.15 24.05 20.35 M28.3 22.15 L29.5 20.95 30.1 21.55 30.1 22.75 29.5 23.35 28.3 22.15 M19.8 21.55 L19.8 19.75 21.05 19.75 21.65 20.35 21.05 20.35 21.05 21.55 19.8 21.55 M4.1 22.75 L3.5 22.75 3.5 23.35 2.9 22.75 3.5 22.15 4.1 22.75 M7.1 22.15 L7.1 22.75 6.5 22.15 7.1 21.55 7.7 22.15 7.1 22.15 M10.15 21.55 L10.75 20.95 11.95 21.55 11.35 21.55 10.75 22.15 10.15 21.55 M-11.65 -45.0 L-12.25 -44.4 -12.25 -45.0 -12.85 -45.0 -12.25 -45.6 -11.65 -45.0 M-19.5 -52.25 L-19.5 -52.85 -20.1 -52.85 -19.5 -53.45 -18.9 -52.85 -19.5 -52.25 M-5.6 -52.85 L-6.2 -52.85 -14.05 -60.1 -12.85 -63.75 -3.15 -58.9 -5.6 -52.85 M-6.0 -52.0 L-6.2 -51.65 -4.25 -48.75 -4.4 -48.6 -6.05 -42.2 -9.75 -55.55 -6.0 -52.0 M-3.15 -52.25 L-1.95 -53.45 -1.35 -52.85 -1.35 -51.65 -2.55 -51.65 -3.15 -52.25 M-1.95 -41.95 L-0.75 -41.35 -0.75 -40.15 -1.95 -39.55 -2.55 -40.15 -2.55 -41.35 -1.95 -41.95 M-17.7 -46.2 L-18.3 -45.6 -18.3 -46.2 -18.9 -46.2 -18.3 -46.8 -17.7 -46.2 M-14.65 -40.75 L-14.05 -40.15 -14.65 -39.55 -14.65 -40.15 -15.25 -40.15 -14.65 -40.75 M-10.45 -34.1 L-9.8 -34.7 -9.2 -34.1 -9.8 -33.5 -9.8 -34.1 -10.45 -34.1 M-4.4 -28.65 L-3.75 -28.05 -4.4 -27.45 -4.4 -28.05 -5.0 -28.05 -4.4 -28.65 M-34.0 -39.55 L-34.6 -38.35 -35.2 -37.75 -35.85 -38.35 -35.85 -39.55 -36.45 -39.55 -35.2 -40.75 -34.0 -39.55 M-28.55 -25.65 L-27.95 -25.05 -27.95 -23.2 -28.55 -22.6 -29.2 -23.2 -29.2 -23.8 -29.8 -23.8 -29.2 -25.05 -28.55 -25.65 M-30.4 -31.1 L-31.6 -29.85 -32.2 -30.5 -32.2 -31.1 -32.8 -31.1 -32.2 -32.3 -31.6 -32.9 -31.0 -32.3 -30.4 -31.1 M-25.55 -15.35 L-24.95 -15.95 -23.75 -14.75 -24.35 -13.55 -25.55 -13.55 -25.55 -15.35 M-3.15 2.8 L-2.55 2.2 -1.95 2.8 -2.55 4.0 -2.55 2.8 -3.15 2.8 M-3.15 -3.85 L-2.55 -4.45 -1.35 -3.85 -2.55 -3.25 -2.55 -3.85 -3.15 -3.85 M-1.35 -10.5 L-1.95 -9.9 -2.55 -10.5 -3.15 -10.5 -1.95 -11.1 -1.35 -10.5 M-1.95 -18.4 L-1.35 -17.15 -1.95 -16.55 -1.95 -17.15 -2.55 -17.15 -1.95 -18.4 M-2.55 10.05 L-3.15 10.05 -2.55 8.85 -1.95 10.05 -2.55 10.65 -2.55 10.05 M-15.85 21.55 L-15.25 20.35 -14.65 21.55 -15.25 22.15 -15.25 21.55 -15.85 21.55 M-11.65 22.15 L-11.05 21.55 -10.45 22.15 -11.05 22.75 -11.05 22.15 -11.65 22.15 M-2.55 16.7 L-3.15 16.7 -2.55 16.1 -1.95 16.7 -2.55 17.3 -2.55 16.7 M-6.2 22.75 L-6.8 23.35 -6.8 22.75 -7.4 22.75 -6.8 22.15 -6.2 22.75 M-3.15 23.35 L-2.55 22.75 -1.95 23.35 -2.55 23.95 -2.55 23.35 -3.15 23.35 M-33.4 23.35 L-34.0 22.75 -34.0 21.55 -33.4 20.95 -32.8 21.55 -32.8 22.75 -33.4 23.35 M-25.55 21.55 L-25.55 19.75 -24.35 19.75 -23.75 20.35 -24.35 21.55 -25.55 21.55 M-27.95 22.15 L-29.2 22.15 -29.2 21.55 -29.8 21.55 -29.2 20.35 -27.95 20.35 -27.95 22.15" fill="#c25e86" fill-rule="evenodd" stroke="none"/>
      <path d="M-3.15 -52.25 L-3.15 -51.65 -1.95 -51.05 -0.75 -51.65 -0.75 -53.45 -1.35 -54.05 -1.95 -54.05 -3.15 -53.45 -3.15 -52.25 M-1.95 -57.1 L1.05 -51.65 -0.15 -49.25 -3.15 -49.25 -5.0 -51.65 -1.95 -57.1 M-0.15 -48.6 L2.3 -38.95 -1.95 -28.05 -5.6 -40.15 -3.15 -48.6 -0.15 -48.6 M-1.95 -42.55 L-2.55 -41.95 -3.15 -40.75 -2.55 -39.55 -1.95 -38.95 -0.75 -39.55 -0.15 -40.75 -0.75 -41.95 -1.35 -42.55 -1.95 -42.55" fill="#6c1836" fill-rule="evenodd" stroke="none"/>
      <path d="M1.05 -27.45 L1.3 -27.45 -1.35 -24.45 -1.35 -27.45 0.0 -29.05 10.75 -58.3 13.75 -56.5 13.15 -48.0 6.5 -46.2 8.95 -40.15 2.1 -31.5 9.55 -40.15 7.1 -46.2 13.75 -48.0 14.35 -55.9 16.8 -54.05 15.6 -54.05 14.35 -52.85 15.0 -52.25 15.6 -52.25 16.2 -52.25 16.2 -45.0 14.35 -45.0 8.95 -45.0 12.55 -40.15 1.65 -27.85 1.65 -28.05 1.65 -29.25 1.05 -29.25 0.45 -29.25 -0.15 -28.05 0.45 -27.45 1.05 -27.45 M24.65 -25.65 L23.45 -25.05 23.45 -22.6 24.65 -22.0 25.8 -22.55 21.05 -11.75 20.4 -11.75 12.55 -0.25 30.7 -42.55 33.75 -40.75 32.5 -37.95 32.5 -40.75 31.9 -41.35 31.3 -41.35 30.1 -40.75 29.5 -39.55 30.1 -37.75 31.3 -37.15 32.4 -37.65 26.4 -23.95 25.85 -25.05 25.25 -25.65 24.65 -25.65 M30.1 -42.55 L11.35 0.35 12.55 18.5 -0.75 20.95 -0.75 -23.35 13.15 -40.15 10.75 -43.8 16.8 -43.8 17.4 -53.45 29.5 -42.55 30.1 -42.55 M27.7 -32.9 L26.45 -32.3 25.85 -31.1 26.45 -29.85 27.7 -29.25 28.9 -29.85 28.9 -31.1 28.9 -32.3 28.3 -32.9 27.7 -32.9 M13.75 -46.2 L13.75 -45.6 14.35 -45.0 15.6 -46.2 15.0 -46.8 15.0 -47.4 14.35 -47.4 13.75 -46.8 13.75 -46.2 M10.75 -40.75 L9.55 -40.75 9.55 -40.15 9.55 -39.55 10.75 -38.95 11.35 -39.55 11.35 -40.75 10.75 -40.75 M8.3 -44.4 L9.55 -45.6 8.95 -46.2 8.3 -46.2 7.7 -46.2 7.7 -45.6 7.7 -45.0 8.3 -44.4 M5.9 -33.5 L6.5 -33.5 7.1 -34.1 6.5 -34.7 6.5 -35.3 5.9 -35.3 5.3 -34.7 5.3 -34.1 5.3 -33.5 5.9 -33.5 M7.9 -27.0 L5.3 -27.45 7.7 -26.85 7.9 -27.0 19.2 -25.05 19.2 -26.25 18.0 -26.25 16.6 -29.45 16.2 -31.1 15.85 -31.1 15.6 -31.7 14.35 -31.1 14.35 -31.7 13.75 -31.7 7.9 -27.0 M21.65 -13.55 L22.25 -14.75 21.65 -15.95 21.65 -16.55 21.05 -16.55 19.8 -15.95 19.2 -14.75 19.8 -13.55 21.05 -12.95 21.65 -13.55 M33.1 -37.75 L36.15 -14.15 31.3 19.75 19.2 17.9 21.05 8.25 18.0 -5.7 22.25 -11.75 33.1 -37.75 M29.5 23.35 L30.1 23.35 30.7 22.15 30.1 20.95 30.1 20.8 30.7 20.95 31.3 20.95 30.7 23.95 19.2 22.15 19.2 20.35 19.2 18.5 25.0 19.75 24.65 19.75 24.05 20.35 23.45 21.55 24.65 22.75 25.85 22.15 25.85 21.55 25.85 20.35 25.35 19.8 29.0 20.6 28.3 20.95 28.3 22.15 28.3 23.35 29.5 23.35 M21.65 20.35 L21.65 19.75 21.05 19.1 20.4 19.1 19.2 20.35 19.8 21.55 20.4 22.15 21.65 21.55 21.65 20.35 M2.9 7.0 L9.0 7.55 2.9 6.4 2.9 7.0 M4.1 22.75 L4.1 21.55 3.5 21.55 2.3 22.75 3.5 23.95 4.1 23.35 4.1 22.75 M7.7 20.95 L7.1 20.95 5.9 22.15 7.1 23.35 8.3 22.15 7.7 21.55 7.7 20.95 M12.55 19.1 L13.15 23.35 -0.75 25.5 -0.75 24.25 -0.15 23.95 -0.15 22.75 -0.75 22.15 -0.75 21.55 11.95 19.1 12.55 19.1 M11.95 21.55 L11.95 20.95 11.35 20.35 10.75 20.35 10.15 20.95 10.15 21.55 10.15 22.15 10.75 22.75 11.95 22.15 11.95 21.55 M28.9 28.2 L19.8 26.4 19.8 23.35 29.5 25.15 28.9 28.2 M-13.2 -58.75 L-10.8 -56.5 -3.15 -28.65 -12.85 -40.15 -10.45 -46.2 -17.1 -48.0 -17.7 -56.5 -13.2 -58.75 M-18.9 -52.85 L-18.9 -53.45 -19.5 -54.05 -20.7 -54.05 -18.3 -55.9 -17.7 -48.0 -11.05 -46.2 -11.65 -44.7 -11.65 -45.0 -11.65 -45.6 -12.25 -46.2 -12.85 -46.2 -12.85 -45.6 -13.45 -45.0 -18.3 -45.0 -20.1 -45.0 -20.1 -52.25 -19.5 -52.25 -18.9 -52.25 -18.9 -52.85 M-12.25 -43.8 L-11.85 -44.2 -13.45 -40.15 -14.05 -40.75 -14.65 -40.75 -15.25 -40.75 -15.25 -40.15 -15.25 -39.55 -14.65 -38.95 -13.45 -40.15 -4.45 -29.25 -5.0 -29.25 -5.0 -28.65 -5.6 -28.05 -4.4 -26.85 -3.75 -27.45 -3.75 -28.05 -3.75 -28.4 -1.95 -26.25 -1.4 -22.1 -1.35 -22.0 -1.4 -22.05 -17.1 -40.15 -13.1 -44.65 -12.25 -43.8 M-17.7 -46.2 L-17.7 -46.8 -18.3 -47.4 -18.9 -47.4 -18.9 -46.8 -19.5 -46.2 -18.3 -45.0 -17.7 -45.6 -17.7 -46.2 M-10.45 -34.1 L-10.45 -33.5 -9.8 -32.9 -8.6 -34.1 -9.2 -34.7 -9.8 -34.7 -10.45 -34.7 -10.45 -34.1 M-14.65 -43.8 L-17.7 -40.15 -3.75 -23.8 -4.4 20.35 -16.45 18.5 -15.85 0.35 -34.0 -42.55 -33.4 -42.55 -21.3 -53.45 -20.7 -43.8 -14.65 -43.8 M-36.45 -39.55 L-36.45 -38.0 -37.65 -40.75 -35.2 -42.55 -34.3 -40.9 -35.2 -41.35 -35.85 -41.35 -36.45 -40.75 -36.45 -39.55 M-34.0 -39.55 L-34.0 -40.4 -32.2 -37.15 -16.45 -0.25 -24.35 -11.75 -24.95 -11.75 -25.6 -13.25 -24.95 -12.95 -23.75 -13.55 -23.15 -14.75 -23.75 -15.95 -24.95 -16.55 -25.55 -16.55 -26.15 -15.95 -26.15 -14.55 -29.7 -22.55 -28.55 -22.0 -27.35 -22.6 -27.35 -25.05 -28.55 -25.65 -29.2 -25.65 -29.8 -25.05 -30.3 -24.0 -33.4 -31.1 -36.3 -37.65 -35.2 -37.15 -34.0 -37.75 -34.0 -39.55 M-31.6 -32.9 L-32.2 -32.9 -32.8 -32.3 -33.4 -31.1 -32.8 -29.85 -31.6 -29.25 -30.4 -29.85 -30.4 -31.1 -30.4 -32.3 -31.6 -32.9 M-3.15 -23.2 L-1.35 -21.4 -1.35 -18.4 -1.95 -18.4 -3.15 -18.4 -3.15 -16.55 -1.95 -16.55 -1.35 -16.55 -1.35 -11.1 -1.95 -11.75 -2.55 -11.75 -3.15 -11.1 -3.15 -10.5 -3.15 -9.9 -1.95 -9.3 -1.35 -9.9 -1.35 -4.45 -2.55 -5.05 -3.15 -5.05 -3.15 -3.85 -3.15 -3.25 -2.55 -2.65 -1.35 -3.25 -1.35 2.2 -2.55 2.2 -3.15 2.2 -3.15 2.8 -3.15 4.0 -2.55 4.0 -1.35 4.0 -1.35 8.85 -2.55 8.85 -3.15 8.85 -3.15 10.05 -3.15 10.65 -2.55 10.65 -1.35 10.65 -1.35 16.1 -2.55 15.5 -3.15 15.5 -3.15 16.7 -3.15 17.3 -2.55 17.9 -1.35 17.3 -1.35 22.75 -2.55 22.15 -3.15 22.15 -3.15 23.35 -3.15 23.95 -2.55 24.55 -1.35 23.95 -1.35 25.75 -17.1 23.35 -16.45 19.1 -15.85 19.1 -3.75 20.95 -3.15 -23.2 M-26.15 -11.75 L-21.9 -5.7 -24.95 8.25 -23.15 17.9 -35.2 19.75 -40.05 -14.15 -37.05 -37.75 -26.15 -11.75 M-6.8 6.4 L-12.8 7.5 -7.4 7.0 -6.8 6.4 M-15.25 20.35 L-15.85 20.35 -15.85 21.55 -15.85 22.15 -15.25 22.15 -14.65 22.15 -14.05 21.55 -14.65 20.35 -15.25 20.35 M-11.05 20.95 L-11.65 20.95 -11.65 22.15 -11.65 22.75 -11.05 22.75 -10.45 22.75 -9.8 22.15 -11.05 20.95 M-6.8 21.55 L-7.4 21.55 -7.4 22.15 -8.0 22.75 -6.8 23.95 -6.2 23.35 -6.2 22.75 -6.2 22.15 -6.8 21.55 M-33.4 23.35 L-32.2 23.35 -32.2 20.95 -32.95 20.55 -23.75 18.5 -23.15 22.15 -34.6 23.95 -35.2 20.95 -34.6 20.95 -34.0 20.8 -34.0 20.95 -34.6 22.15 -34.0 23.35 -33.4 23.35 M-25.55 21.55 L-24.95 22.15 -23.75 21.55 -23.75 20.35 -23.75 19.75 -24.95 19.1 -25.55 19.1 -25.55 19.75 -26.15 20.35 -25.55 21.55 M-29.8 21.55 L-29.8 22.15 -28.55 22.75 -27.95 22.15 -27.35 21.55 -27.95 20.35 -28.55 19.75 -29.2 19.75 -29.8 20.35 -29.8 21.55 M-32.8 28.2 L-33.4 25.15 -24.35 23.35 -23.75 26.4 -32.8 28.2" fill="#481520" fill-rule="evenodd" stroke="none"/>
      <path d="M17.4 34.25 L16.8 30.6 20.4 27.6 27.7 28.8 30.1 33.65 22.25 42.7 16.8 36.65 17.4 34.85 19.2 36.65 22.85 34.25 24.05 35.45 22.85 31.2 22.85 33.65 19.2 34.85 17.4 34.25 M-24.35 27.6 L-20.7 30.6 -21.3 34.25 -23.15 34.85 -26.75 33.65 -26.75 31.2 -27.95 35.45 -26.75 34.25 -23.75 36.65 -21.3 34.85 -20.7 36.65 -26.75 42.7 -34.0 33.65 -31.6 28.8 -24.35 27.6" fill="#b2b1cb" fill-rule="evenodd" stroke="none"/>
    </g>
  </defs>
</svg>
