<?xml version="1.0" encoding="UTF-8" standalone="no"?>
<svg xmlns:xlink="http://www.w3.org/1999/xlink" height="30.75px" width="126.75px" xmlns="http://www.w3.org/2000/svg">
  <g transform="matrix(1.0, 0.0, 0.0, 1.0, 10.25, 10.25)">
    <use height="30.75" id="sign1" transform="matrix(1.0, 0.0, 0.0, 1.0, -10.25, -10.25)" width="30.75" xlink:href="#sprite0"/>
    <use height="30.75" id="sign2" transform="matrix(1.0, 0.0, 0.0, 1.0, 13.75, -10.25)" width="30.75" xlink:href="#sprite1"/>
    <use height="30.75" id="sign3" transform="matrix(1.0, 0.0, 0.0, 1.0, 37.75, -10.25)" width="30.75" xlink:href="#sprite2"/>
    <use height="30.75" id="sign4" transform="matrix(1.0, 0.0, 0.0, 1.0, 61.75, -10.25)" width="30.75" xlink:href="#sprite3"/>
    <use height="30.75" id="sign5" transform="matrix(1.0, 0.0, 0.0, 1.0, 85.75, -10.25)" width="30.75" xlink:href="#sprite4"/>
  </g>
  <defs>
    <g id="sprite0" transform="matrix(1.0, 0.0, 0.0, 1.0, 10.25, 10.25)">
      <use height="20.5" transform="matrix(1.0, 0.0, 0.0, 1.0, 0.0, 0.0)" width="20.5" xlink:href="#shape0"/>
      <use height="13.9" transform="matrix(1.0, 0.0, 0.0, 1.0, 6.8, 3.5)" width="5.75" xlink:href="#shape1"/>
    </g>
    <g id="shape0" transform="matrix(1.0, 0.0, 0.0, 1.0, 10.25, 10.25)">
      <path d="M10.25 -8.0 L10.25 7.95 Q10.25 8.85 9.6 9.55 8.85 10.2 8.0 10.25 L-7.95 10.25 Q-8.9 10.2 -9.55 9.55 -10.25 8.85 -10.25 7.95 L-10.25 -8.0 Q-10.25 -8.95 -9.55 -9.55 -8.9 -10.3 -7.95 -10.25 L7.95 -10.25 Q8.85 -10.3 9.6 -9.55 10.25 -8.95 10.25 -8.0 M9.75 7.95 L9.75 -8.0 Q9.75 -8.75 9.25 -9.2 8.65 -9.8 8.0 -9.75 L-7.95 -9.75 Q-8.7 -9.8 -9.2 -9.2 -9.75 -8.75 -9.75 -8.0 L-9.75 7.95 Q-9.75 8.65 -9.2 9.2 -8.7 9.7 -7.95 9.75 L7.95 9.75 9.25 9.2 Q9.75 8.65 9.75 7.95" fill="url(#gradient0)" fill-rule="evenodd" stroke="none"/>
      <path d="M9.75 7.95 Q9.75 8.65 9.25 9.2 L7.95 9.75 -7.95 9.75 Q-8.7 9.7 -9.2 9.2 -9.75 8.65 -9.75 7.95 L-9.75 -8.0 Q-9.75 -8.75 -9.2 -9.2 -8.7 -9.8 -7.95 -9.75 L8.0 -9.75 Q8.65 -9.8 9.25 -9.2 9.75 -8.75 9.75 -8.0 L9.75 7.95" fill="url(#gradient1)" fill-rule="evenodd" stroke="none"/>
    </g>
    <linearGradient gradientTransform="matrix(0.0018, 0.0018, -0.7071, 0.7071, 22.5, -22.65)" gradientUnits="userSpaceOnUse" id="gradient0" spreadMethod="pad" x1="-819.2" x2="819.2">
      <stop offset="0.0" stop-color="#e0f5b4"/>
      <stop offset="1.0" stop-color="#8dca26"/>
    </linearGradient>
    <radialGradient cx="0" cy="0" gradientTransform="matrix(0.0125, 0.0, 0.0, 0.0125, 0.15, 0.4)" gradientUnits="userSpaceOnUse" id="gradient1" r="819.2" spreadMethod="pad">
      <stop offset="0.0" stop-color="#c9f381"/>
      <stop offset="1.0" stop-color="#a4df51"/>
    </radialGradient>
    <g id="shape1" transform="matrix(1.0, 0.0, 0.0, 1.0, 3.45, 6.75)">
      <path d="M2.3 7.15 L-1.6 7.15 -1.6 -2.5 -3.45 -2.5 -3.45 -3.8 0.8 -6.75 2.3 -6.75 2.3 7.15" fill="#84a44d" fill-rule="evenodd" stroke="none"/>
    </g>
    <g id="sprite1" transform="matrix(1.0, 0.0, 0.0, 1.0, 10.25, 10.25)">
      <use height="20.5" transform="matrix(1.0, 0.0, 0.0, 1.0, 0.0, 0.0)" width="20.5" xlink:href="#shape0"/>
      <use height="13.9" transform="matrix(1.0, 0.0, 0.0, 1.0, 3.65, 3.5)" width="13.55" xlink:href="#shape2"/>
    </g>
    <g id="shape2" transform="matrix(1.0, 0.0, 0.0, 1.0, 6.6, 6.75)">
      <path d="M3.75 -3.9 L-5.5 -3.9 -5.5 -6.75 4.4 -6.75 Q5.9 -6.75 6.45 -6.35 6.95 -5.95 6.95 -4.75 L6.95 -2.2 Q6.95 -0.75 5.6 -0.35 L-3.2 2.4 -3.2 4.3 6.8 4.3 6.8 7.15 -6.6 7.15 -6.6 3.6 Q-6.6 2.15 -6.1 1.35 -5.5 0.5 -4.0 0.05 L3.75 -2.35 3.75 -3.9" fill="#84a44d" fill-rule="evenodd" stroke="none"/>
    </g>
    <g id="sprite2" transform="matrix(1.0, 0.0, 0.0, 1.0, 10.25, 10.25)">
      <use height="20.5" transform="matrix(1.0, 0.0, 0.0, 1.0, 0.0, 0.0)" width="20.5" xlink:href="#shape0"/>
      <use height="13.9" transform="matrix(1.0, 0.0, 0.0, 1.0, 4.05, 3.5)" width="12.75" xlink:href="#shape3"/>
    </g>
    <g id="shape3" transform="matrix(1.0, 0.0, 0.0, 1.0, 6.2, 6.75)">
      <path d="M6.55 -2.35 L6.3 -0.95 4.45 0.1 6.2 1.35 Q6.55 1.85 6.55 2.7 L6.55 5.25 Q6.55 7.15 3.55 7.15 L-6.2 7.15 -6.2 4.3 3.25 4.3 3.25 1.35 -4.35 1.35 -4.35 -1.0 3.25 -1.0 3.25 -3.9 -6.2 -3.9 -6.2 -6.75 3.55 -6.75 5.9 -6.3 Q6.55 -5.85 6.55 -4.85 L6.55 -2.35" fill="#84a44d" fill-rule="evenodd" stroke="none"/>
    </g>
    <g id="sprite3" transform="matrix(1.0, 0.0, 0.0, 1.0, 10.25, 10.25)">
      <use height="20.5" transform="matrix(1.0, 0.0, 0.0, 1.0, 0.0, 0.0)" width="20.5" xlink:href="#shape0"/>
      <use height="13.9" transform="matrix(1.0, 0.0, 0.0, 1.0, 3.25, 3.5)" width="14.65" xlink:href="#shape4"/>
    </g>
    <g id="shape4" transform="matrix(1.0, 0.0, 0.0, 1.0, 7.0, 6.75)">
      <path d="M-7.0 0.05 L2.3 -6.75 5.85 -6.75 5.85 1.3 7.65 1.3 7.65 3.75 5.85 3.75 5.85 7.15 2.6 7.15 2.6 3.75 -7.0 3.75 -7.0 0.05 M2.6 -3.9 L-4.55 1.3 2.6 1.3 2.6 -3.9" fill="#84a44d" fill-rule="evenodd" stroke="none"/>
    </g>
    <g id="sprite4" transform="matrix(1.0, 0.0, 0.0, 1.0, 10.25, 10.25)">
      <use height="20.5" transform="matrix(1.0, 0.0, 0.0, 1.0, 0.0, 0.0)" width="20.5" xlink:href="#shape0"/>
      <use height="13.9" transform="matrix(1.0, 0.0, 0.0, 1.0, 4.1, 3.5)" width="12.7" xlink:href="#shape5"/>
    </g>
    <g id="shape5" transform="matrix(1.0, 0.0, 0.0, 1.0, 6.15, 6.75)">
      <path d="M5.95 -3.8 L-2.9 -3.8 -2.9 -0.8 4.1 -0.8 Q5.55 -0.8 6.05 -0.35 6.55 0.1 6.55 1.35 L6.55 4.9 Q6.55 7.15 3.9 7.15 L-6.15 7.15 -6.15 4.2 3.3 4.2 3.3 1.1 -6.15 1.1 -6.15 -6.75 5.95 -6.75 5.95 -3.8" fill="#84a44d" fill-rule="evenodd" stroke="none"/>
    </g>
  </defs>
</svg>
