<?xml version="1.0" encoding="UTF-8" standalone="no"?>
<svg xmlns:xlink="http://www.w3.org/1999/xlink" height="1180.9px" width="479.35px" xmlns="http://www.w3.org/2000/svg">
  <g transform="matrix(1.0, 0.0, 0.0, 1.0, 174.55, 605.1)">
    <use height="476.3" transform="matrix(1.0, 0.0, 0.0, 1.0, -152.45, 27.1)" width="304.8" xlink:href="#shape0"/>
    <use height="129.6" transform="matrix(1.0, 0.0, 0.0, 1.0, -174.55, -107.55)" width="351.0" xlink:href="#shape1"/>
  </g>
  <defs>
    <g id="shape0" transform="matrix(1.0, 0.0, 0.0, 1.0, 0.0, 0.0)">
      <path d="M207.55 31.1 Q200.15 28.75 192.4 29.3 186.3 46.3 181.7 63.85 L196.65 61.8 Q199.0 56.65 203.55 45.3 208.15 33.95 208.35 31.35 L207.55 31.1 M209.25 32.1 Q205.65 47.2 197.7 62.3 L204.45 61.4 Q211.95 49.8 214.9 34.25 L209.25 32.1 M190.05 8.3 Q185.4 6.05 180.35 4.7 166.6 1.3 150.55 1.4 134.55 1.5 120.85 4.1 110.5 6.5 103.5 14.25 96.45 22.0 93.7 28.75 102.75 28.55 113.05 26.7 123.3 24.8 130.6 19.05 129.85 15.0 133.55 13.45 L135.35 14.35 Q135.0 14.25 133.35 15.05 131.75 15.9 132.9 18.75 134.8 20.3 137.25 20.2 L137.8 11.9 138.95 10.2 Q125.55 4.2 113.05 12.0 L112.85 11.75 Q125.65 0.15 140.5 8.6 150.9 2.4 162.0 7.35 171.1 4.65 180.6 6.35 185.5 7.95 189.9 10.3 L188.9 10.55 Q184.85 8.75 176.95 7.4 169.0 6.05 163.05 9.75 159.75 7.7 154.35 7.6 139.6 8.05 139.2 14.35 138.85 20.75 146.8 24.05 154.6 27.5 164.5 19.1 167.55 19.5 170.45 18.2 170.0 12.2 164.8 14.1 170.45 9.3 172.05 16.6 178.3 21.1 184.75 23.15 L198.1 27.5 Q204.0 29.55 209.35 30.55 L214.9 31.55 Q211.15 24.6 205.2 18.85 198.25 11.75 190.05 8.3 M179.7 30.0 Q186.2 27.85 192.85 27.4 182.15 24.25 171.8 19.95 169.1 21.3 166.15 21.35 L161.65 23.8 Q157.5 25.95 153.55 26.3 147.95 26.15 144.0 24.15 139.95 22.2 138.6 22.0 135.0 21.8 131.75 20.65 122.2 28.5 109.95 28.95 112.65 29.55 115.2 30.65 L118.15 31.9 Q133.9 38.9 141.4 39.9 148.95 40.9 156.4 37.95 163.95 34.95 179.7 30.0 M168.0 64.55 L180.1 63.85 189.15 29.45 181.45 31.2 Q175.95 32.25 170.8 34.5 L166.65 64.65 168.0 64.55 M198.8 74.2 Q199.5 72.65 199.7 70.85 L188.0 74.0 188.0 74.1 Q169.55 79.15 150.65 79.95 131.55 80.7 113.55 73.3 L107.7 70.6 Q108.1 72.4 108.9 74.1 L106.45 73.3 Q102.5 65.85 99.8 56.65 92.15 48.3 89.45 33.05 93.5 23.7 101.05 15.0 108.55 6.25 120.25 3.3 140.2 -0.75 158.5 0.15 176.75 1.05 188.0 5.8 209.8 14.8 217.0 32.7 213.3 52.4 205.45 64.05 203.75 68.1 201.85 71.4 L200.8 73.55 198.8 74.2 M195.9 64.2 L181.95 65.75 180.0 74.85 192.75 71.75 195.9 64.2 M194.4 70.6 L199.45 69.7 Q202.5 67.55 203.4 63.3 L197.45 63.75 194.4 70.6 M166.2 66.35 L164.85 77.25 178.45 75.2 181.0 65.4 166.2 66.35 M164.5 66.1 L153.7 66.65 153.1 78.0 163.45 77.35 164.5 66.1 M170.0 34.85 Q161.65 37.3 153.45 40.45 L153.7 65.3 164.6 64.75 170.0 34.85 M124.0 59.0 L124.65 61.85 137.35 64.3 135.1 40.9 131.75 39.65 Q125.7 37.05 119.6 34.6 L121.15 46.75 123.85 58.9 124.0 59.0 M149.3 41.8 L149.3 41.7 Q143.35 42.95 137.4 41.6 L137.4 41.7 138.95 61.15 139.2 64.55 Q145.25 65.2 151.35 64.85 L151.1 41.25 149.3 41.8 M99.25 29.85 Q94.3 30.75 90.8 34.4 L93.5 42.25 Q95.5 46.85 98.1 51.05 99.15 52.7 103.2 54.6 107.35 56.45 109.05 56.4 L100.35 29.65 99.25 29.85 M111.05 55.65 L111.6 57.45 Q117.55 59.15 123.0 61.4 L117.15 33.6 113.2 31.8 Q108.1 29.45 102.5 29.75 L110.95 55.65 111.05 55.65 M114.4 60.7 L112.3 60.05 115.2 69.9 115.3 69.95 115.9 72.15 125.9 75.1 123.45 63.5 114.4 60.7 M102.85 57.0 Q102.15 60.25 104.2 64.5 107.65 70.15 114.1 71.5 L109.8 58.55 109.0 58.35 109.0 58.25 102.85 56.3 102.85 57.0 M140.05 74.75 L140.2 77.55 151.55 78.0 151.65 65.9 149.1 66.2 Q144.15 66.35 139.3 66.1 L140.05 74.75 M126.15 70.05 L127.05 75.45 138.6 77.35 137.5 65.9 127.45 64.3 125.0 63.85 126.15 70.05" fill="#000000" fill-rule="evenodd" stroke="none"/>
      <path d="M209.25 32.1 L214.9 34.25 Q211.95 49.8 204.45 61.4 L197.7 62.3 Q205.65 47.2 209.25 32.1 M207.55 31.1 L208.35 31.35 Q208.15 33.95 203.55 45.3 199.0 56.65 196.65 61.8 L181.7 63.85 Q186.3 46.3 192.4 29.3 200.15 28.75 207.55 31.1 M168.0 64.55 L166.65 64.65 170.8 34.5 Q175.95 32.25 181.45 31.2 L189.15 29.45 180.1 63.85 168.0 64.55 Q170.0 56.65 175.05 46.95 180.0 37.2 186.3 32.55 L182.35 33.25 Q177.2 34.05 172.9 37.05 169.8 50.6 168.0 64.55 M189.7 66.0 L190.35 65.75 183.4 66.45 183.4 68.25 184.15 68.0 184.15 68.35 191.05 65.85 189.7 66.0 M193.6 32.35 L191.95 36.95 Q187.55 49.25 183.75 61.85 L187.8 61.35 Q191.85 46.65 198.9 33.15 L193.6 32.35 M166.2 66.35 L181.0 65.4 178.45 75.2 164.85 77.25 166.2 66.35 M194.4 70.6 L197.45 63.75 203.4 63.3 Q202.5 67.55 199.45 69.7 L194.4 70.6 M195.9 64.2 L192.75 71.75 180.0 74.85 181.95 65.75 195.9 64.2 M167.95 67.8 L167.75 70.5 177.75 67.25 167.95 67.8 M164.5 66.1 L163.45 77.35 153.1 78.0 153.7 66.65 164.5 66.1 M170.0 34.85 L164.6 64.75 153.7 65.3 153.45 40.45 Q161.65 37.3 170.0 34.85 M131.75 39.65 L135.1 40.9 137.35 64.3 124.65 61.85 124.0 59.0 Q129.7 60.8 135.6 61.4 L131.75 39.65 M149.3 41.8 L151.1 41.25 151.35 64.85 Q145.25 65.2 139.2 64.55 L138.95 61.15 Q144.15 62.15 149.5 61.15 L149.3 41.8 M100.0 29.9 Q95.05 30.8 91.5 34.5 L94.2 42.35 Q96.2 46.95 98.8 51.05 103.15 53.6 107.9 53.7 103.2 42.05 100.0 29.9 M99.25 29.85 L100.35 29.65 109.05 56.4 Q107.35 56.45 103.2 54.6 99.15 52.7 98.1 51.05 95.5 46.85 93.5 42.25 L90.8 34.4 Q94.3 30.75 99.25 29.85 M113.2 31.8 L117.15 33.6 123.0 61.4 Q117.55 59.15 111.6 57.45 L111.05 55.65 Q115.45 57.65 120.4 57.8 115.8 45.15 113.2 31.8 M114.4 60.7 L123.45 63.5 125.9 75.1 115.9 72.15 115.3 69.95 Q119.35 71.75 123.9 72.15 L120.6 62.75 114.4 60.7 M109.0 58.35 L109.8 58.55 114.1 71.5 Q107.65 70.15 104.2 64.5 102.15 60.25 102.85 57.0 102.7 62.4 105.65 66.2 L111.6 66.8 109.0 58.35 M155.25 68.6 L155.25 73.05 162.0 68.6 155.25 68.6 M149.1 66.2 L151.65 65.9 151.55 78.0 140.2 77.55 140.05 74.75 Q144.7 75.75 149.3 74.75 L149.1 66.2 M126.15 70.05 L126.55 72.15 Q131.1 73.85 135.8 73.5 L134.45 65.55 127.45 64.3 137.5 65.9 138.6 77.35 127.05 75.45 126.15 70.05 M154.45 63.6 L160.3 63.5 Q159.45 54.6 159.65 48.2 159.9 41.8 167.85 37.85 160.8 38.55 154.6 41.9 L154.45 63.6" fill="#cbcbcb" fill-rule="evenodd" stroke="none"/>
      <path d="M189.7 66.0 L191.05 65.85 184.15 68.35 184.15 68.0 189.7 66.0" fill="#fefefe" fill-rule="evenodd" stroke="none"/>
      <path d="M190.05 8.3 Q187.75 7.35 185.3 6.7 191.4 9.4 193.95 15.5 196.65 20.55 197.9 26.6 201.15 27.85 205.9 28.75 L213.2 30.3 Q213.4 29.75 211.85 27.05 208.7 22.45 205.2 18.85 211.15 24.6 214.9 31.55 L209.35 30.55 Q204.0 29.55 198.1 27.5 L184.75 23.15 Q178.3 21.1 172.05 16.6 170.45 9.3 164.8 14.1 170.0 12.2 170.45 18.2 167.55 19.5 164.5 19.1 154.6 27.5 146.8 24.05 138.85 20.75 139.2 14.35 139.6 8.05 154.35 7.6 159.75 7.7 163.05 9.75 169.0 6.05 176.95 7.4 184.85 8.75 188.9 10.55 L189.9 10.3 Q185.5 7.95 180.6 6.35 171.1 4.65 162.0 7.35 150.9 2.4 140.5 8.6 125.65 0.15 112.85 11.75 L113.05 12.0 Q125.55 4.2 138.95 10.2 L137.8 11.9 137.25 20.2 Q134.8 20.3 132.9 18.75 131.75 15.9 133.35 15.05 135.0 14.25 135.35 14.35 L133.55 13.45 Q129.85 15.0 130.6 19.05 123.3 24.8 113.05 26.7 102.75 28.55 93.7 28.75 96.45 22.0 103.5 14.25 110.5 6.5 120.85 4.1 134.55 1.5 150.55 1.4 166.6 1.3 180.35 4.7 185.4 6.05 190.05 8.3 M115.2 30.65 Q124.55 28.5 132.1 22.55 135.6 23.9 139.2 23.25 153.1 33.25 167.55 24.45 172.95 27.3 179.7 30.0 163.95 34.95 156.4 37.95 148.95 40.9 141.4 39.9 133.9 38.9 118.15 31.9 L115.2 30.65 M108.9 74.1 Q108.1 72.4 107.7 70.6 L113.55 73.3 Q131.55 80.7 150.65 79.95 169.55 79.15 188.0 74.1 L187.65 78.25 154.0 90.15 117.0 77.0 112.6 75.0 112.85 75.55 108.9 74.1 M114.85 7.6 L111.15 8.4 Q102.05 16.4 95.85 26.95 100.25 27.5 107.2 25.5 108.15 15.25 114.85 7.6 M58.4 331.7 L72.25 340.95 69.75 350.3 62.8 352.75 50.1 349.35 Q49.15 346.2 49.5 342.95 48.15 348.45 46.0 353.65 L47.05 352.75 49.5 351.2 62.2 357.15 70.35 352.75 72.25 357.15 60.85 366.35 51.4 373.8 37.5 361.95 24.2 349.95 33.0 335.65 58.4 331.7 M242.65 357.15 L255.25 351.2 257.65 352.75 258.9 353.65 Q256.6 348.45 255.25 342.95 255.7 346.2 254.6 349.35 L242.0 352.75 235.0 350.3 232.45 340.95 246.4 331.7 271.8 335.65 280.5 349.95 267.2 361.95 253.35 373.8 243.9 366.35 Q235.5 359.75 232.45 357.15 L234.35 352.75 242.65 357.15" fill="#d9dae6" fill-rule="evenodd" stroke="none"/>
      <path d="M205.2 18.85 Q208.7 22.45 211.85 27.05 213.4 29.75 213.2 30.3 L205.9 28.75 Q201.15 27.85 197.9 26.6 196.65 20.55 193.95 15.5 191.4 9.4 185.3 6.7 187.75 7.35 190.05 8.3 198.25 11.75 205.2 18.85 M115.2 30.65 Q112.65 29.55 109.95 28.95 122.2 28.5 131.75 20.65 135.0 21.8 138.6 22.0 139.95 22.2 144.0 24.15 147.95 26.15 153.55 26.3 157.5 25.95 161.65 23.8 L166.15 21.35 Q169.1 21.3 171.8 19.95 182.15 24.25 192.85 27.4 186.2 27.85 179.7 30.0 172.95 27.3 167.55 24.45 153.1 33.25 139.2 23.25 135.6 23.9 132.1 22.55 124.55 28.5 115.2 30.65 M188.0 74.1 L188.0 74.0 199.7 70.85 Q199.5 72.65 198.8 74.2 L187.65 78.25 188.0 74.1" fill="#b2b1cb" fill-rule="evenodd" stroke="none"/>
      <path d="M114.85 7.6 Q108.15 15.25 107.2 25.5 100.25 27.5 95.85 26.95 102.05 16.4 111.15 8.4 L114.85 7.6 M112.85 75.55 L112.6 75.0 117.0 77.0 112.85 75.55" fill="#e3f2ea" fill-rule="evenodd" stroke="none"/>
      <path d="M168.0 64.55 Q169.8 50.6 172.9 37.05 177.2 34.05 182.35 33.25 L186.3 32.55 Q180.0 37.2 175.05 46.95 170.0 56.65 168.0 64.55 M193.6 32.35 L198.9 33.15 Q191.85 46.65 187.8 61.35 L183.75 61.85 Q187.55 49.25 191.95 36.95 L193.6 32.35 M184.15 68.0 L183.4 68.25 183.4 66.45 190.35 65.75 189.7 66.0 184.15 68.0 M167.95 67.8 L177.75 67.25 167.75 70.5 167.95 67.8 M124.0 59.0 L123.85 58.9 121.15 46.75 119.6 34.6 Q125.7 37.05 131.75 39.65 L135.6 61.4 Q129.7 60.8 124.0 59.0 M138.95 61.15 L137.4 41.7 137.4 41.6 Q143.35 42.95 149.3 41.7 L149.3 41.8 149.5 61.15 Q144.15 62.15 138.95 61.15 M100.0 29.9 Q103.2 42.05 107.9 53.7 103.15 53.6 98.8 51.05 96.2 46.95 94.2 42.35 L91.5 34.5 Q95.05 30.8 100.0 29.9 M111.05 55.65 L110.95 55.65 102.5 29.75 Q108.1 29.45 113.2 31.8 115.8 45.15 120.4 57.8 115.45 57.65 111.05 55.65 M112.3 60.05 L114.4 60.7 120.6 62.75 123.9 72.15 Q119.35 71.75 115.3 69.95 L115.2 69.9 112.3 60.05 M102.85 57.0 L102.85 56.3 109.0 58.25 109.0 58.35 111.6 66.8 105.65 66.2 Q102.7 62.4 102.85 57.0 M155.25 68.6 L162.0 68.6 155.25 73.05 155.25 68.6 M149.1 66.2 L149.3 74.75 Q144.7 75.75 140.05 74.75 L139.3 66.1 Q144.15 66.35 149.1 66.2 M154.45 63.6 L154.6 41.9 Q160.8 38.55 167.85 37.85 159.9 41.8 159.65 48.2 159.45 54.6 160.3 63.5 L154.45 63.6 M127.45 64.3 L134.45 65.55 135.8 73.5 Q131.1 73.85 126.55 72.15 L126.15 70.05 125.0 63.85 127.45 64.3" fill="#ffffff" fill-rule="evenodd" stroke="none"/>
      <path d="M198.8 74.2 L200.8 73.55 205.9 71.7 214.9 88.8 211.75 90.6 296.2 143.05 294.3 146.4 304.8 215.7 285.0 324.75 280.45 324.3 278.45 336.0 275.1 335.45 284.4 350.25 252.7 378.3 227.6 357.9 232.3 351.3 230.3 338.0 242.1 329.9 241.8 319.45 237.5 318.65 244.8 277.4 236.25 241.7 218.4 258.5 222.4 321.95 220.4 322.5 207.8 459.3 221.05 465.45 219.7 476.3 152.45 475.4 85.15 476.3 83.8 465.45 96.9 459.3 83.8 322.8 81.45 321.95 86.4 258.5 68.55 241.7 60.0 277.4 67.3 318.65 63.0 319.45 62.65 329.9 74.5 338.0 72.55 351.3 77.2 357.9 52.1 378.3 20.4 350.25 29.7 335.45 26.35 336.0 24.4 324.3 19.8 324.75 0.0 215.7 10.5 146.4 8.55 143.05 95.95 90.4 93.05 88.8 102.15 71.7 106.45 73.3 108.9 74.1 112.85 75.55 117.0 77.0 154.0 90.15 187.65 78.25 198.8 74.2 M203.4 75.9 L157.05 92.4 156.5 93.0 170.7 110.4 209.7 87.9 203.4 75.9 M227.4 108.2 Q229.65 108.05 229.85 106.05 229.65 104.0 227.4 103.8 225.1 104.0 224.9 106.05 225.1 108.05 227.4 108.2 M220.2 122.45 L222.3 99.4 210.3 93.2 158.3 176.0 204.65 143.75 196.1 127.65 220.2 122.45 M227.4 109.1 Q223.8 108.75 223.65 105.95 223.8 103.2 227.4 102.8 L228.4 103.0 224.25 100.4 221.4 123.25 197.8 128.1 198.6 129.55 Q199.25 127.65 202.15 127.4 205.75 127.75 205.9 130.55 L205.75 131.55 230.55 131.55 232.45 105.5 230.75 104.45 231.2 105.95 Q231.0 108.75 227.4 109.1 M208.8 144.3 Q208.95 146.3 211.3 146.45 213.55 146.3 213.75 144.3 213.55 142.25 211.3 142.05 208.95 142.25 208.8 144.3 M227.8 126.5 Q227.6 129.3 224.0 129.65 220.4 129.3 220.2 126.5 220.4 123.7 224.0 123.35 227.6 123.7 227.8 126.5 M211.75 133.6 L222.45 144.2 156.3 190.95 157.5 311.6 157.65 313.5 217.7 307.95 214.35 257.45 280.95 137.2 234.15 108.15 233.45 133.6 211.75 133.6 M218.6 143.75 L205.65 131.8 Q204.85 133.4 202.15 133.7 L200.7 133.4 206.25 143.75 154.5 180.95 155.5 189.15 155.7 189.4 218.6 143.75 M207.55 144.2 Q207.7 141.45 211.3 141.05 214.9 141.45 215.1 144.2 214.9 147.0 211.3 147.35 207.7 147.0 207.55 144.2 M224.0 124.35 Q221.65 124.5 221.5 126.6 221.65 128.55 224.0 128.75 226.25 128.55 226.45 126.6 226.25 124.5 224.0 124.35 M169.45 114.95 L167.85 113.0 161.9 119.45 174.25 145.85 208.5 92.45 169.45 114.95 M202.15 132.8 Q204.4 132.6 204.55 130.65 204.4 128.55 202.15 128.4 199.8 128.55 199.6 130.65 199.8 132.6 202.15 132.8 M188.65 164.2 Q185.05 163.85 184.85 161.05 185.05 158.25 188.65 157.9 192.25 158.25 192.4 161.05 192.25 163.85 188.65 164.2 M188.65 163.2 Q190.9 163.05 191.05 161.05 190.9 159.0 188.65 158.8 186.3 159.0 186.1 161.05 186.3 163.05 188.65 163.2 M224.35 174.65 L221.75 169.5 221.65 169.6 218.6 171.4 226.8 182.75 228.7 183.2 224.35 174.65 M284.75 142.8 Q290.4 143.4 290.7 147.9 L290.35 149.6 293.95 143.15 283.75 138.1 Q279.9 142.35 270.1 160.4 L255.4 188.3 Q256.75 187.4 259.0 187.15 264.7 187.8 264.95 192.3 264.7 196.7 259.0 197.3 253.6 196.7 253.15 192.55 L251.65 195.5 242.2 213.7 241.9 214.15 244.35 213.6 Q250.0 214.25 250.3 218.75 250.0 223.15 244.35 223.8 239.4 223.25 238.65 219.75 L217.05 256.0 248.75 223.85 Q251.55 218.2 261.35 200.85 L281.05 166.1 289.8 150.7 Q288.35 152.6 284.75 152.95 279.15 152.3 278.9 147.9 279.15 143.4 284.75 142.8 M215.45 169.95 L215.45 170.05 198.35 180.2 225.55 182.75 225.45 182.65 215.45 169.95 M217.95 169.95 L221.75 167.55 231.3 183.2 236.35 183.65 235.05 187.05 195.3 180.75 216.1 167.55 217.95 169.95 M284.75 144.4 Q281.25 144.65 280.9 148.0 281.25 151.25 284.75 151.5 288.25 151.25 288.6 148.0 288.25 144.65 284.75 144.4 M272.15 164.9 Q277.8 165.55 278.1 170.05 277.8 174.45 272.15 175.1 266.55 174.45 266.3 170.05 266.55 165.55 272.15 164.9 M272.25 166.45 Q268.75 166.7 268.35 170.05 268.75 173.3 272.25 173.55 275.75 173.3 276.1 170.05 275.75 166.7 272.25 166.45 M259.0 195.6 Q262.5 195.35 262.9 192.1 262.5 188.75 259.0 188.5 255.5 188.75 255.15 192.1 255.5 195.35 259.0 195.6 M98.25 87.9 L137.35 110.4 151.75 92.65 151.65 92.65 104.65 75.9 98.25 87.9 M99.0 92.2 Q91.5 96.8 84.15 101.45 L84.6 122.35 108.7 127.65 100.15 143.75 148.5 175.9 105.45 96.0 99.0 92.2 M77.95 112.35 Q74.35 112.0 74.15 109.2 74.35 106.4 77.95 106.05 80.9 106.35 81.55 108.3 L80.55 100.4 72.35 105.5 74.25 131.55 98.55 131.55 98.35 130.55 Q98.55 127.75 102.15 127.4 105.45 127.75 105.9 130.2 L107.0 128.1 83.4 123.25 81.7 109.5 Q81.35 112.0 77.95 112.35 M77.75 126.6 Q77.95 128.55 80.25 128.75 82.5 128.55 82.7 126.6 82.5 124.5 80.25 124.35 77.95 124.5 77.75 126.6 M80.35 109.3 Q80.2 107.25 77.95 107.05 75.6 107.25 75.4 109.3 75.6 111.3 77.95 111.45 80.2 111.3 80.35 109.3 M76.5 126.5 Q76.65 123.7 80.25 123.35 83.85 123.7 84.05 126.5 83.85 129.3 80.25 129.65 76.65 129.3 76.5 126.5 M70.55 108.15 L23.75 137.2 90.35 257.45 87.1 307.95 143.8 312.0 145.8 190.2 81.8 143.95 93.95 133.4 71.25 133.6 70.55 108.15 M23.75 148.0 Q23.4 144.65 19.9 144.4 16.35 144.65 16.0 148.0 16.35 151.25 19.9 151.5 23.4 151.25 23.75 148.0 M25.8 147.9 Q25.55 152.3 19.9 152.95 16.75 152.6 15.3 151.05 L23.75 166.1 26.8 171.4 26.55 170.05 Q26.8 165.55 32.4 164.9 38.05 165.55 38.35 170.05 38.05 174.45 32.4 175.1 29.25 174.75 27.8 173.2 L43.45 200.85 Q53.25 218.2 56.05 223.85 L87.75 256.0 65.5 218.45 Q64.5 221.6 59.75 222.15 54.15 221.55 53.9 217.1 54.15 212.6 59.75 212.0 L62.0 212.45 53.2 195.5 51.0 191.3 Q50.65 195.6 45.1 196.25 39.5 195.6 39.25 191.2 39.5 186.7 45.1 186.05 47.5 186.35 48.95 187.35 L34.75 160.4 Q24.9 142.35 21.05 138.1 L10.9 143.15 14.2 149.15 14.05 147.9 Q14.3 143.4 19.9 142.8 25.55 143.4 25.8 147.9 M45.1 194.45 Q48.6 194.15 48.95 190.95 48.6 187.6 45.1 187.35 41.55 187.6 41.2 190.95 41.55 194.15 45.1 194.45 M36.35 170.05 Q36.0 166.7 32.5 166.45 28.95 166.7 28.6 170.05 28.95 173.3 32.5 173.55 36.0 173.3 36.35 170.05 M153.55 105.25 Q158.5 105.7 158.65 109.1 158.5 112.55 153.55 113.0 148.6 112.55 148.3 109.1 148.5 105.7 153.55 105.25 M153.45 106.4 Q150.3 106.7 150.0 109.1 150.3 111.65 153.45 111.8 156.6 111.65 156.85 109.1 156.6 106.7 153.45 106.4 M142.2 112.1 L147.6 119.1 158.5 118.85 165.3 111.55 154.0 96.25 147.85 103.7 142.2 112.1 M144.6 120.0 L139.65 113.7 138.6 114.95 108.9 97.85 135.35 145.5 144.45 120.55 Q144.45 120.3 144.6 120.0 M158.75 120.8 L153.0 120.75 Q148.05 120.65 147.75 120.8 138.75 146.65 138.15 146.65 138.05 147.45 141.55 155.1 L148.6 170.3 152.45 178.5 171.25 147.0 158.75 120.8 M157.65 143.75 Q157.3 140.9 153.6 140.6 150.0 140.9 149.65 143.75 150.0 146.65 153.6 146.9 157.3 146.65 157.65 143.75 M159.75 143.75 Q159.45 147.75 153.6 148.35 147.85 147.75 147.6 143.75 147.85 139.8 153.6 139.25 159.45 139.8 159.75 143.75 M96.75 144.2 Q96.55 147.0 92.95 147.35 89.35 147.0 89.2 144.2 89.35 141.45 92.95 141.05 96.55 141.45 96.75 144.2 M95.4 144.3 Q95.2 142.25 92.95 142.05 90.6 142.25 90.45 144.3 90.6 146.3 92.95 146.45 95.2 146.3 95.4 144.3 M98.8 132.15 L85.65 144.15 154.5 193.9 153.1 182.55 98.55 143.75 104.3 133.15 102.15 133.7 Q99.7 133.4 98.8 132.15 M102.15 132.8 Q104.4 132.6 104.55 130.65 104.4 128.55 102.15 128.4 99.8 128.55 99.6 130.65 99.8 132.6 102.15 132.8 M117.6 164.65 Q117.8 161.85 121.4 161.5 125.0 161.85 125.2 164.65 125.0 167.45 121.4 167.8 117.8 167.45 117.6 164.65 M158.85 180.5 Q159.0 182.45 161.35 182.65 163.6 182.45 163.8 180.5 163.6 178.4 161.35 178.25 159.0 178.4 158.85 180.5 M121.4 162.5 Q119.05 162.65 118.9 164.75 119.05 166.7 121.4 166.9 123.65 166.7 123.85 164.75 123.65 162.65 121.4 162.5 M157.5 180.5 Q157.65 177.7 161.25 177.35 164.85 177.7 165.05 180.5 164.85 183.3 161.25 183.65 157.65 183.3 157.5 180.5 M142.65 181.5 Q142.8 183.45 145.15 183.65 147.4 183.45 147.6 181.5 147.4 179.4 145.15 179.25 142.8 179.4 142.65 181.5 M148.85 181.5 Q148.65 184.25 145.05 184.65 141.45 184.25 141.3 181.5 141.45 178.7 145.05 178.35 148.65 178.7 148.85 181.5 M147.15 190.75 L146.95 207.65 Q147.6 205.8 150.55 205.5 154.25 205.85 154.45 208.5 154.25 211.0 150.55 211.35 147.6 211.1 146.95 209.3 L145.8 314.6 86.5 309.45 85.15 320.7 156.4 328.35 155.05 195.05 147.15 190.75 M148.6 227.4 Q148.75 229.25 151.1 229.45 153.35 229.25 153.6 227.4 153.35 225.5 151.1 225.3 148.75 225.5 148.6 227.4 M150.65 210.55 Q152.9 210.35 153.15 208.5 152.9 206.6 150.65 206.4 148.3 206.6 148.15 208.5 148.3 210.35 150.65 210.55 M151.0 224.5 Q154.7 224.85 154.9 227.45 154.7 230.0 151.0 230.35 147.4 230.0 147.25 227.45 147.4 224.85 151.0 224.5 M150.9 243.05 Q154.6 243.4 154.8 246.0 154.6 248.55 150.9 248.9 147.3 248.55 147.15 246.0 147.3 243.4 150.9 243.05 M150.9 243.95 Q148.6 244.1 148.4 246.0 148.6 247.9 150.9 248.1 153.15 247.9 153.45 246.0 153.15 244.1 150.9 243.95 M154.7 265.25 Q154.5 267.8 150.85 268.15 147.25 267.8 147.05 265.25 147.25 262.65 150.85 262.3 154.5 262.65 154.7 265.25 M150.85 267.35 Q153.1 267.15 153.35 265.25 153.1 263.4 150.85 263.2 148.5 263.4 148.3 265.25 148.5 267.15 150.85 267.35 M147.6 284.25 Q147.75 281.65 151.35 281.3 155.05 281.65 155.25 284.25 155.05 286.8 151.35 287.15 147.75 286.8 147.6 284.25 M59.75 213.25 Q56.25 213.5 55.9 216.85 56.25 220.1 59.75 220.35 63.25 220.1 63.6 216.85 63.25 213.5 59.75 213.25 M151.45 282.1 Q149.1 282.3 148.95 284.15 149.1 286.05 151.45 286.25 153.7 286.05 154.0 284.15 153.7 282.3 151.45 282.1 M52.1 223.35 L12.5 151.5 2.6 216.2 19.8 311.55 62.65 305.95 57.5 279.2 57.5 278.7 67.95 239.7 52.1 223.35 M62.25 307.2 L20.4 313.6 22.05 323.05 64.0 317.4 62.25 307.2 M42.85 318.35 Q45.7 318.1 46.05 315.4 45.7 312.7 42.85 312.45 39.85 312.7 39.6 315.4 39.85 318.1 42.85 318.35 M42.85 319.8 Q38.15 319.25 37.95 315.6 38.15 311.9 42.85 311.35 47.5 311.9 47.8 315.6 47.5 319.25 42.85 319.8 M54.9 313.4 Q55.15 316.1 58.15 316.4 61.0 316.1 61.35 313.4 61.0 310.7 58.15 310.45 55.15 310.7 54.9 313.4 M58.05 309.35 Q62.7 309.9 63.0 313.6 62.7 317.3 58.05 317.85 53.35 317.3 53.2 313.6 53.35 309.9 58.05 309.35 M58.4 331.7 L33.0 335.65 24.2 349.95 37.5 361.95 51.4 373.8 60.85 366.35 72.25 357.15 70.35 352.75 62.2 357.15 49.5 351.2 47.05 352.75 46.0 353.65 Q48.15 348.45 49.5 342.95 49.15 346.2 50.1 349.35 L62.8 352.75 69.75 350.3 72.25 340.95 58.4 331.7 M60.0 320.15 L27.1 325.05 28.35 333.4 60.75 329.35 60.0 320.15 M26.7 314.5 Q23.75 314.75 23.5 317.45 23.75 320.15 26.7 320.45 29.6 320.15 29.95 317.45 29.6 314.75 26.7 314.5 M26.65 313.4 Q31.3 313.95 31.6 317.65 31.3 321.35 26.65 321.9 21.95 321.35 21.75 317.65 21.95 313.95 26.65 313.4 M147.15 303.15 Q147.3 300.55 150.9 300.2 154.6 300.55 154.8 303.15 154.6 305.7 150.9 306.05 147.3 305.7 147.15 303.15 M148.4 303.15 Q148.6 305.05 150.9 305.25 153.15 305.05 153.45 303.15 153.15 301.25 150.9 301.1 148.6 301.25 148.4 303.15 M157.6 320.25 L157.65 322.05 157.85 321.15 157.6 320.25 M157.6 314.95 L157.6 318.8 Q158.95 319.55 159.0 321.15 158.95 322.7 157.65 323.5 L157.65 327.45 219.7 320.7 218.35 309.45 157.6 314.95 M131.75 320.15 Q131.5 318.3 129.25 318.1 126.9 318.3 126.7 320.15 126.9 322.05 129.25 322.25 131.5 322.05 131.75 320.15 M133.1 320.25 Q132.9 322.8 129.25 323.15 125.65 322.8 125.45 320.25 125.65 317.65 129.25 317.3 132.9 317.65 133.1 320.25 M145.05 322.05 Q145.25 319.45 148.85 319.1 152.55 319.45 152.7 322.05 152.55 324.6 148.85 324.95 145.25 324.6 145.05 322.05 M110.95 318.45 Q110.7 316.55 108.45 316.4 106.1 316.55 105.9 318.45 106.1 320.35 108.45 320.55 110.7 320.35 110.95 318.45 M146.4 322.05 Q146.6 323.95 148.95 324.15 151.2 323.95 151.45 322.05 151.2 320.15 148.95 320.0 146.6 320.15 146.4 322.05 M104.65 318.45 Q104.85 315.85 108.45 315.5 112.15 315.85 112.3 318.45 112.15 321.0 108.45 321.35 104.85 321.0 104.65 318.45 M92.35 318.55 Q94.6 318.35 94.85 316.5 94.6 314.6 92.35 314.4 90.0 314.6 89.8 316.5 90.0 318.35 92.35 318.55 M92.25 319.35 Q88.65 319.0 88.45 316.5 88.65 313.85 92.25 313.5 95.95 313.85 96.1 316.5 95.95 319.0 92.25 319.35 M150.4 331.4 L85.75 323.75 99.0 441.5 Q109.9 439.95 124.8 439.85 L151.1 440.95 150.4 331.4 M244.35 214.95 Q240.85 215.25 240.45 218.55 240.85 221.8 244.35 222.05 247.85 221.8 248.2 218.55 247.85 215.25 244.35 214.95 M247.2 278.7 L247.2 279.2 242.1 305.95 284.95 311.55 302.1 216.2 292.2 151.5 252.6 223.35 236.8 239.7 247.2 278.7 M242.35 307.2 L240.75 317.4 282.6 323.05 284.3 313.6 279.6 312.9 Q282.15 313.85 282.3 316.55 282.05 320.25 277.35 320.8 272.7 320.25 272.5 316.55 272.7 313.15 276.75 312.45 L242.35 307.2 M210.75 317.45 Q213.0 317.3 213.3 315.4 213.0 313.5 210.75 313.35 208.45 313.5 208.25 315.4 208.45 317.3 210.75 317.45 M206.9 315.4 Q207.1 312.8 210.7 312.45 214.35 312.8 214.55 315.4 214.35 317.9 210.7 318.3 207.1 317.9 206.9 315.4 M187.3 317.65 Q187.45 319.55 189.8 319.7 192.05 319.55 192.3 317.65 192.05 315.75 189.8 315.6 187.45 315.75 187.3 317.65 M163.5 320.55 Q163.7 317.9 167.3 317.55 171.0 317.9 171.15 320.55 171.0 323.05 167.3 323.4 163.7 323.05 163.5 320.55 M185.95 317.65 Q186.1 315.05 189.7 314.7 193.4 315.05 193.6 317.65 193.4 320.15 189.7 320.55 186.1 320.15 185.95 317.65 M167.4 318.45 Q165.05 318.65 164.85 320.55 165.05 322.4 167.4 322.6 169.65 322.4 169.9 320.55 169.65 318.65 167.4 318.45 M242.65 357.15 L234.35 352.75 232.45 357.15 Q235.5 359.75 243.9 366.35 L253.35 373.8 267.2 361.95 280.5 349.95 271.8 335.65 246.4 331.7 232.45 340.95 235.0 350.3 242.0 352.75 254.6 349.35 Q255.7 346.2 255.25 342.95 256.6 348.45 258.9 353.65 L257.65 352.75 255.25 351.2 242.65 357.15 M277.45 313.4 Q274.5 313.7 274.2 316.4 274.5 319.1 277.45 319.35 280.35 319.1 280.7 316.4 280.35 313.7 277.45 313.4 M250.35 312.9 Q250.0 310.2 247.15 309.9 244.15 310.2 243.9 312.9 244.15 315.6 247.15 315.85 250.0 315.6 250.35 312.9 M257.5 315.05 Q257.65 311.35 262.35 310.8 267.0 311.35 267.3 315.05 267.0 318.75 262.35 319.25 257.65 318.75 257.5 315.05 M252.1 313.05 Q251.8 316.75 247.15 317.3 242.45 316.75 242.25 313.05 242.45 309.35 247.15 308.85 251.8 309.35 252.1 313.05 M259.1 314.85 Q259.35 317.55 262.35 317.85 265.2 317.55 265.6 314.85 265.2 312.15 262.35 311.9 259.35 312.15 259.1 314.85 M276.4 333.4 L277.75 325.05 244.7 320.15 244.05 329.35 276.4 333.4 M154.35 331.4 L153.7 440.95 179.9 439.85 Q194.95 439.95 205.8 441.5 L219.05 323.75 154.35 331.4 M193.15 450.6 Q193.3 446.9 198.0 446.35 202.65 446.9 202.95 450.6 202.65 454.25 198.0 454.8 193.3 454.25 193.15 450.6 M201.25 450.4 Q200.85 447.7 198.0 447.45 195.0 447.7 194.75 450.4 195.0 453.1 198.0 453.35 200.85 453.1 201.25 450.4 M179.9 446.55 Q179.55 443.85 176.65 443.55 173.7 443.85 173.4 446.55 173.7 449.25 176.65 449.5 179.55 449.25 179.9 446.55 M218.35 469.2 L218.95 465.15 171.15 452.75 153.55 464.35 153.55 467.95 218.35 469.2 M176.55 450.95 Q171.9 450.4 171.7 446.7 171.9 443.0 176.55 442.5 181.25 443.0 181.5 446.7 181.25 450.4 176.55 450.95 M218.7 470.2 L153.45 469.3 153.45 472.25 218.15 473.35 218.7 470.2 M180.55 441.4 Q166.05 441.4 153.8 443.3 L153.15 463.1 170.8 449.7 205.1 458.6 205.1 443.55 Q195.0 441.4 180.55 441.4 M149.75 443.0 Q137.6 441.15 123.65 441.2 109.6 441.3 99.6 443.45 L99.6 458.5 119.8 450.05 Q118.0 448.95 117.9 446.7 118.05 443.0 122.75 442.5 127.45 443.0 127.7 446.7 127.45 450.15 123.45 450.85 L150.3 463.1 149.75 443.0 M105.3 446.35 Q102.3 446.6 102.05 449.3 102.3 452.0 105.3 452.3 108.15 452.0 108.55 449.3 108.15 446.6 105.3 446.35 M105.2 453.75 Q100.5 453.2 100.35 449.5 100.5 445.8 105.2 445.25 109.9 445.8 110.15 449.5 109.9 453.2 105.2 453.75 M86.4 469.2 L150.1 467.6 150.1 465.6 120.4 452.75 85.75 465.15 86.4 469.2 M86.75 470.55 L86.75 473.35 149.95 472.0 149.75 469.05 86.75 470.55 M157.65 450.6 Q157.95 453.3 160.9 453.55 163.8 453.3 164.15 450.6 163.8 447.9 160.9 447.6 157.95 447.9 157.65 450.6 M160.9 455.0 Q156.25 454.45 156.05 450.75 156.25 447.05 160.9 446.55 165.6 447.05 165.85 450.75 165.6 454.45 160.9 455.0 M147.25 450.75 Q146.95 454.45 142.3 455.0 137.6 454.45 137.4 450.75 137.6 447.05 142.3 446.55 146.95 447.05 147.25 450.75 M122.85 449.5 Q125.7 449.25 126.1 446.55 125.7 443.85 122.85 443.55 119.85 443.85 119.6 446.55 119.85 449.25 122.85 449.5 M145.5 450.6 Q145.15 447.9 142.3 447.6 139.3 447.9 139.05 450.6 139.3 453.3 142.3 453.55 145.15 453.3 145.5 450.6" fill="#0d0f0d" fill-rule="evenodd" stroke="none"/>
      <path d="M203.4 75.9 L209.7 87.9 170.7 110.4 156.5 93.0 157.05 92.4 203.4 75.9 M227.4 108.2 Q225.1 108.05 224.9 106.05 225.1 104.0 227.4 103.8 229.65 104.0 229.85 106.05 229.65 108.05 227.4 108.2 M208.8 144.3 Q208.95 142.25 211.3 142.05 213.55 142.25 213.75 144.3 213.55 146.3 211.3 146.45 208.95 146.3 208.8 144.3 M224.0 124.35 Q226.25 124.5 226.45 126.6 226.25 128.55 224.0 128.75 221.65 128.55 221.5 126.6 221.65 124.5 224.0 124.35 M169.45 114.95 L208.5 92.45 174.25 145.85 161.9 119.45 167.85 113.0 169.45 114.95 M202.15 132.8 Q199.8 132.6 199.6 130.65 199.8 128.55 202.15 128.4 204.4 128.55 204.55 130.65 204.4 132.6 202.15 132.8 M188.65 163.2 Q186.3 163.05 186.1 161.05 186.3 159.0 188.65 158.8 190.9 159.0 191.05 161.05 190.9 163.05 188.65 163.2 M224.35 174.65 L228.7 183.2 226.8 182.75 218.6 171.4 221.65 169.6 224.35 174.65 M284.75 144.4 Q288.25 144.65 288.6 148.0 288.25 151.25 284.75 151.5 281.25 151.25 280.9 148.0 281.25 144.65 284.75 144.4 M259.0 195.6 Q255.5 195.35 255.15 192.1 255.5 188.75 259.0 188.5 262.5 188.75 262.9 192.1 262.5 195.35 259.0 195.6 M272.25 166.45 Q275.75 166.7 276.1 170.05 275.75 173.3 272.25 173.55 268.75 173.3 268.35 170.05 268.75 166.7 272.25 166.45 M98.25 87.9 L104.65 75.9 151.65 92.65 151.75 92.65 137.35 110.4 98.25 87.9 M80.35 109.3 Q80.2 111.3 77.95 111.45 75.6 111.3 75.4 109.3 75.6 107.25 77.95 107.05 80.2 107.25 80.35 109.3 M77.75 126.6 Q77.95 124.5 80.25 124.35 82.5 124.5 82.7 126.6 82.5 128.55 80.25 128.75 77.95 128.55 77.75 126.6 M23.75 148.0 Q23.4 151.25 19.9 151.5 16.35 151.25 16.0 148.0 16.35 144.65 19.9 144.4 23.4 144.65 23.75 148.0 M36.35 170.05 Q36.0 173.3 32.5 173.55 28.95 173.3 28.6 170.05 28.95 166.7 32.5 166.45 36.0 166.7 36.35 170.05 M45.1 194.45 Q41.55 194.15 41.2 190.95 41.55 187.6 45.1 187.35 48.6 187.6 48.95 190.95 48.6 194.15 45.1 194.45 M153.45 106.4 Q156.6 106.7 156.85 109.1 156.6 111.65 153.45 111.8 150.3 111.65 150.0 109.1 150.3 106.7 153.45 106.4 M144.6 120.0 Q144.45 120.3 144.45 120.55 L135.35 145.5 108.9 97.85 138.6 114.95 139.65 113.7 144.6 120.0 M157.65 143.75 Q157.3 146.65 153.6 146.9 150.0 146.65 149.65 143.75 150.0 140.9 153.6 140.6 157.3 140.9 157.65 143.75 M95.4 144.3 Q95.2 146.3 92.95 146.45 90.6 146.3 90.45 144.3 90.6 142.25 92.95 142.05 95.2 142.25 95.4 144.3 M102.15 132.8 Q99.8 132.6 99.6 130.65 99.8 128.55 102.15 128.4 104.4 128.55 104.55 130.65 104.4 132.6 102.15 132.8 M121.4 162.5 Q123.65 162.65 123.85 164.75 123.65 166.7 121.4 166.9 119.05 166.7 118.9 164.75 119.05 162.65 121.4 162.5 M158.85 180.5 Q159.0 178.4 161.35 178.25 163.6 178.4 163.8 180.5 163.6 182.45 161.35 182.65 159.0 182.45 158.85 180.5 M142.65 181.5 Q142.8 179.4 145.15 179.25 147.4 179.4 147.6 181.5 147.4 183.45 145.15 183.65 142.8 183.45 142.65 181.5 M150.65 210.55 Q148.3 210.35 148.15 208.5 148.3 206.6 150.65 206.4 152.9 206.6 153.15 208.5 152.9 210.35 150.65 210.55 M148.6 227.4 Q148.75 225.5 151.1 225.3 153.35 225.5 153.6 227.4 153.35 229.25 151.1 229.45 148.75 229.25 148.6 227.4 M150.9 243.95 Q153.15 244.1 153.45 246.0 153.15 247.9 150.9 248.1 148.6 247.9 148.4 246.0 148.6 244.1 150.9 243.95 M150.85 267.35 Q148.5 267.15 148.3 265.25 148.5 263.4 150.85 263.2 153.1 263.4 153.35 265.25 153.1 267.15 150.85 267.35 M134.7 274.2 L134.1 276.15 96.2 276.6 134.7 274.2 M151.45 282.1 Q153.7 282.3 154.0 284.15 153.7 286.05 151.45 286.25 149.1 286.05 148.95 284.15 149.1 282.3 151.45 282.1 M59.75 213.25 Q63.25 213.5 63.6 216.85 63.25 220.1 59.75 220.35 56.25 220.1 55.9 216.85 56.25 213.5 59.75 213.25 M42.85 318.35 Q39.85 318.1 39.6 315.4 39.85 312.7 42.85 312.45 45.7 312.7 46.05 315.4 45.7 318.1 42.85 318.35 M54.9 313.4 Q55.15 310.7 58.15 310.45 61.0 310.7 61.35 313.4 61.0 316.1 58.15 316.4 55.15 316.1 54.9 313.4 M26.7 314.5 Q29.6 314.75 29.95 317.45 29.6 320.15 26.7 320.45 23.75 320.15 23.5 317.45 23.75 314.75 26.7 314.5 M148.4 303.15 Q148.6 301.25 150.9 301.1 153.15 301.25 153.45 303.15 153.15 305.05 150.9 305.25 148.6 305.05 148.4 303.15 M157.6 320.25 L157.85 321.15 157.65 322.05 157.6 320.25 M131.75 320.15 Q131.5 322.05 129.25 322.25 126.9 322.05 126.7 320.15 126.9 318.3 129.25 318.1 131.5 318.3 131.75 320.15 M146.4 322.05 Q146.6 320.15 148.95 320.0 151.2 320.15 151.45 322.05 151.2 323.95 148.95 324.15 146.6 323.95 146.4 322.05 M110.95 318.45 Q110.7 320.35 108.45 320.55 106.1 320.35 105.9 318.45 106.1 316.55 108.45 316.4 110.7 316.55 110.95 318.45 M92.35 318.55 Q90.0 318.35 89.8 316.5 90.0 314.6 92.35 314.4 94.6 314.6 94.85 316.5 94.6 318.35 92.35 318.55 M244.35 214.95 Q247.85 215.25 248.2 218.55 247.85 221.8 244.35 222.05 240.85 221.8 240.45 218.55 240.85 215.25 244.35 214.95 M170.1 274.2 L208.6 276.6 170.7 276.15 170.1 274.2 M210.75 317.45 Q208.45 317.3 208.25 315.4 208.45 313.5 210.75 313.35 213.0 313.5 213.3 315.4 213.0 317.3 210.75 317.45 M187.3 317.65 Q187.45 315.75 189.8 315.6 192.05 315.75 192.3 317.65 192.05 319.55 189.8 319.7 187.45 319.55 187.3 317.65 M167.4 318.45 Q169.65 318.65 169.9 320.55 169.65 322.4 167.4 322.6 165.05 322.4 164.85 320.55 165.05 318.65 167.4 318.45 M250.35 312.9 Q250.0 315.6 247.15 315.85 244.15 315.6 243.9 312.9 244.15 310.2 247.15 309.9 250.0 310.2 250.35 312.9 M277.45 313.4 Q280.35 313.7 280.7 316.4 280.35 319.1 277.45 319.35 274.5 319.1 274.2 316.4 274.5 313.7 277.45 313.4 M259.1 314.85 Q259.35 312.15 262.35 311.9 265.2 312.15 265.6 314.85 265.2 317.55 262.35 317.85 259.35 317.55 259.1 314.85 M179.9 446.55 Q179.55 449.25 176.65 449.5 173.7 449.25 173.4 446.55 173.7 443.85 176.65 443.55 179.55 443.85 179.9 446.55 M201.25 450.4 Q200.85 453.1 198.0 453.35 195.0 453.1 194.75 450.4 195.0 447.7 198.0 447.45 200.85 447.7 201.25 450.4 M105.3 446.35 Q108.15 446.6 108.55 449.3 108.15 452.0 105.3 452.3 102.3 452.0 102.05 449.3 102.3 446.6 105.3 446.35 M157.65 450.6 Q157.95 447.9 160.9 447.6 163.8 447.9 164.15 450.6 163.8 453.3 160.9 453.55 157.95 453.3 157.65 450.6 M145.5 450.6 Q145.15 453.3 142.3 453.55 139.3 453.3 139.05 450.6 139.3 447.9 142.3 447.6 145.15 447.9 145.5 450.6 M122.85 449.5 Q119.85 449.25 119.6 446.55 119.85 443.85 122.85 443.55 125.7 443.85 126.1 446.55 125.7 449.25 122.85 449.5" fill="#608051" fill-rule="evenodd" stroke="none"/>
      <path d="M227.4 109.1 Q231.0 108.75 231.2 105.95 L230.75 104.45 232.45 105.5 230.55 131.55 205.75 131.55 205.9 130.55 Q205.75 127.75 202.15 127.4 199.25 127.65 198.6 129.55 L197.8 128.1 221.4 123.25 224.25 100.4 228.4 103.0 227.4 102.8 Q223.8 103.2 223.65 105.95 223.8 108.75 227.4 109.1 M220.2 122.45 L196.1 127.65 204.65 143.75 158.3 176.0 210.3 93.2 222.3 99.4 220.2 122.45 M207.55 144.2 Q207.7 147.0 211.3 147.35 214.9 147.0 215.1 144.2 214.9 141.45 211.3 141.05 207.7 141.45 207.55 144.2 M218.6 143.75 L155.7 189.4 155.5 189.15 154.5 180.95 206.25 143.75 200.7 133.4 202.15 133.7 Q204.85 133.4 205.65 131.8 L218.6 143.75 M211.75 133.6 L233.45 133.6 234.15 108.15 280.95 137.2 214.35 257.45 217.7 307.95 157.65 313.5 157.5 311.6 156.3 190.95 222.45 144.2 211.75 133.6 M227.8 126.5 Q227.6 123.7 224.0 123.35 220.4 123.7 220.2 126.5 220.4 129.3 224.0 129.65 227.6 129.3 227.8 126.5 M188.65 164.2 Q192.25 163.85 192.4 161.05 192.25 158.25 188.65 157.9 185.05 158.25 184.85 161.05 185.05 163.85 188.65 164.2 M221.65 169.6 L221.75 169.5 224.35 174.65 221.65 169.6 M217.95 169.95 L216.1 167.55 195.3 180.75 235.05 187.05 236.35 183.65 231.3 183.2 221.75 167.55 217.95 169.95 M215.45 169.95 L225.45 182.65 225.55 182.75 198.35 180.2 215.45 170.05 215.45 169.95 M284.75 142.8 Q279.15 143.4 278.9 147.9 279.15 152.3 284.75 152.95 288.35 152.6 289.8 150.7 L281.05 166.1 261.35 200.85 Q251.55 218.2 248.75 223.85 L217.05 256.0 238.65 219.75 Q239.4 223.25 244.35 223.8 250.0 223.15 250.3 218.75 250.0 214.25 244.35 213.6 L241.9 214.15 242.2 213.7 251.65 195.5 253.15 192.55 Q253.6 196.7 259.0 197.3 264.7 196.7 264.95 192.3 264.7 187.8 259.0 187.15 256.75 187.4 255.4 188.3 L270.1 160.4 Q279.9 142.35 283.75 138.1 L293.95 143.15 290.35 149.6 290.7 147.9 Q290.4 143.4 284.75 142.8 M272.15 164.9 Q266.55 165.55 266.3 170.05 266.55 174.45 272.15 175.1 277.8 174.45 278.1 170.05 277.8 165.55 272.15 164.9 M99.0 92.2 L105.45 96.0 148.5 175.9 100.15 143.75 108.7 127.65 84.6 122.35 84.15 101.45 Q91.5 96.8 99.0 92.2 M77.95 112.35 Q81.35 112.0 81.7 109.5 L83.4 123.25 107.0 128.1 105.9 130.2 Q105.45 127.75 102.15 127.4 98.55 127.75 98.35 130.55 L98.55 131.55 74.25 131.55 72.35 105.5 80.55 100.4 81.55 108.3 Q80.9 106.35 77.95 106.05 74.35 106.4 74.15 109.2 74.35 112.0 77.95 112.35 M70.55 108.15 L71.25 133.6 93.95 133.4 81.8 143.95 145.8 190.2 143.8 312.0 87.1 307.95 90.35 257.45 23.75 137.2 70.55 108.15 M76.5 126.5 Q76.65 129.3 80.25 129.65 83.85 129.3 84.05 126.5 83.85 123.7 80.25 123.35 76.65 123.7 76.5 126.5 M25.8 147.9 Q25.55 143.4 19.9 142.8 14.3 143.4 14.05 147.9 L14.2 149.15 10.9 143.15 21.05 138.1 Q24.9 142.35 34.75 160.4 L48.95 187.35 Q47.5 186.35 45.1 186.05 39.5 186.7 39.25 191.2 39.5 195.6 45.1 196.25 50.65 195.6 51.0 191.3 L53.2 195.5 62.0 212.45 59.75 212.0 Q54.15 212.6 53.9 217.1 54.15 221.55 59.75 222.15 64.5 221.6 65.5 218.45 L87.75 256.0 56.05 223.85 Q53.25 218.2 43.45 200.85 L27.8 173.2 Q29.25 174.75 32.4 175.1 38.05 174.45 38.35 170.05 38.05 165.55 32.4 164.9 26.8 165.55 26.55 170.05 L26.8 171.4 23.75 166.1 15.3 151.05 Q16.75 152.6 19.9 152.95 25.55 152.3 25.8 147.9 M96.75 144.2 Q96.55 141.45 92.95 141.05 89.35 141.45 89.2 144.2 89.35 147.0 92.95 147.35 96.55 147.0 96.75 144.2 M98.8 132.15 Q99.7 133.4 102.15 133.7 L104.3 133.15 98.55 143.75 153.1 182.55 154.5 193.9 85.65 144.15 98.8 132.15 M117.6 164.65 Q117.8 167.45 121.4 167.8 125.0 167.45 125.2 164.65 125.0 161.85 121.4 161.5 117.8 161.85 117.6 164.65 M157.5 180.5 Q157.65 183.3 161.25 183.65 164.85 183.3 165.05 180.5 164.85 177.7 161.25 177.35 157.65 177.7 157.5 180.5 M147.15 190.75 L155.05 195.05 156.4 328.35 85.15 320.7 86.5 309.45 145.8 314.6 146.95 209.3 Q147.6 211.1 150.55 211.35 154.25 211.0 154.45 208.5 154.25 205.85 150.55 205.5 147.6 205.8 146.95 207.65 L147.15 190.75 M148.85 181.5 Q148.65 178.7 145.05 178.35 141.45 178.7 141.3 181.5 141.45 184.25 145.05 184.65 148.65 184.25 148.85 181.5 M150.9 243.05 Q147.3 243.4 147.15 246.0 147.3 248.55 150.9 248.9 154.6 248.55 154.8 246.0 154.6 243.4 150.9 243.05 M151.0 224.5 Q147.4 224.85 147.25 227.45 147.4 230.0 151.0 230.35 154.7 230.0 154.9 227.45 154.7 224.85 151.0 224.5 M154.7 265.25 Q154.5 262.65 150.85 262.3 147.25 262.65 147.05 265.25 147.25 267.8 150.85 268.15 154.5 267.8 154.7 265.25 M134.7 274.2 L96.2 276.6 134.1 276.15 134.7 274.2 M147.6 284.25 Q147.75 286.8 151.35 287.15 155.05 286.8 155.25 284.25 155.05 281.65 151.35 281.3 147.75 281.65 147.6 284.25 M62.25 307.2 L64.0 317.4 22.05 323.05 20.4 313.6 62.25 307.2 M52.1 223.35 L67.95 239.7 57.5 278.7 57.5 279.2 62.65 305.95 19.8 311.55 2.6 216.2 12.5 151.5 52.1 223.35 M42.85 319.8 Q47.5 319.25 47.8 315.6 47.5 311.9 42.85 311.35 38.15 311.9 37.95 315.6 38.15 319.25 42.85 319.8 M58.05 309.35 Q53.35 309.9 53.2 313.6 53.35 317.3 58.05 317.85 62.7 317.3 63.0 313.6 62.7 309.9 58.05 309.35 M60.0 320.15 L60.75 329.35 28.35 333.4 27.1 325.05 60.0 320.15 M147.15 303.15 Q147.3 305.7 150.9 306.05 154.6 305.7 154.8 303.15 154.6 300.55 150.9 300.2 147.3 300.55 147.15 303.15 M26.65 313.4 Q21.95 313.95 21.75 317.65 21.95 321.35 26.65 321.9 31.3 321.35 31.6 317.65 31.3 313.95 26.65 313.4 M157.6 314.95 L218.35 309.45 219.7 320.7 157.65 327.45 157.65 323.5 Q158.95 322.7 159.0 321.15 158.95 319.55 157.6 318.8 L157.6 314.95 M145.05 322.05 Q145.25 324.6 148.85 324.95 152.55 324.6 152.7 322.05 152.55 319.45 148.85 319.1 145.25 319.45 145.05 322.05 M133.1 320.25 Q132.9 317.65 129.25 317.3 125.65 317.65 125.45 320.25 125.65 322.8 129.25 323.15 132.9 322.8 133.1 320.25 M104.65 318.45 Q104.85 321.0 108.45 321.35 112.15 321.0 112.3 318.45 112.15 315.85 108.45 315.5 104.85 315.85 104.65 318.45 M92.25 319.35 Q95.95 319.0 96.1 316.5 95.95 313.85 92.25 313.5 88.65 313.85 88.45 316.5 88.65 319.0 92.25 319.35 M150.4 331.4 L151.1 440.95 124.8 439.85 Q109.9 439.95 99.0 441.5 L85.75 323.75 150.4 331.4 M247.2 278.7 L236.8 239.7 252.6 223.35 292.2 151.5 302.1 216.2 284.95 311.55 242.1 305.95 247.2 279.2 247.2 278.7 M170.1 274.2 L170.7 276.15 208.6 276.6 170.1 274.2 M242.35 307.2 L276.75 312.45 Q272.7 313.15 272.5 316.55 272.7 320.25 277.35 320.8 282.05 320.25 282.3 316.55 282.15 313.85 279.6 312.9 L284.3 313.6 282.6 323.05 240.75 317.4 242.35 307.2 M206.9 315.4 Q207.1 317.9 210.7 318.3 214.35 317.9 214.55 315.4 214.35 312.8 210.7 312.45 207.1 312.8 206.9 315.4 M185.95 317.65 Q186.1 320.15 189.7 320.55 193.4 320.15 193.6 317.65 193.4 315.05 189.7 314.7 186.1 315.05 185.95 317.65 M163.5 320.55 Q163.7 323.05 167.3 323.4 171.0 323.05 171.15 320.55 171.0 317.9 167.3 317.55 163.7 317.9 163.5 320.55 M252.1 313.05 Q251.8 309.35 247.15 308.85 242.45 309.35 242.25 313.05 242.45 316.75 247.15 317.3 251.8 316.75 252.1 313.05 M257.5 315.05 Q257.65 318.75 262.35 319.25 267.0 318.75 267.3 315.05 267.0 311.35 262.35 310.8 257.65 311.35 257.5 315.05 M276.4 333.4 L244.05 329.35 244.7 320.15 277.75 325.05 276.4 333.4 M154.35 331.4 L219.05 323.75 205.8 441.5 Q194.95 439.95 179.9 439.85 L153.7 440.95 154.35 331.4 M193.15 450.6 Q193.3 454.25 198.0 454.8 202.65 454.25 202.95 450.6 202.65 446.9 198.0 446.35 193.3 446.9 193.15 450.6 M176.55 450.95 Q181.25 450.4 181.5 446.7 181.25 443.0 176.55 442.5 171.9 443.0 171.7 446.7 171.9 450.4 176.55 450.95 M218.35 469.2 L153.55 467.95 153.55 464.35 171.15 452.75 218.95 465.15 218.35 469.2 M180.55 441.4 Q195.0 441.4 205.1 443.55 L205.1 458.6 170.8 449.7 153.15 463.1 153.8 443.3 Q166.05 441.4 180.55 441.4 M218.7 470.2 L218.15 473.35 153.45 472.25 153.45 469.3 218.7 470.2 M149.75 443.0 L150.3 463.1 123.45 450.85 Q127.45 450.15 127.7 446.7 127.45 443.0 122.75 442.5 118.05 443.0 117.9 446.7 118.0 448.95 119.8 450.05 L99.6 458.5 99.6 443.45 Q109.6 441.3 123.65 441.2 137.6 441.15 149.75 443.0 M86.4 469.2 L85.75 465.15 120.4 452.75 150.1 465.6 150.1 467.6 86.4 469.2 M105.2 453.75 Q109.9 453.2 110.15 449.5 109.9 445.8 105.2 445.25 100.5 445.8 100.35 449.5 100.5 453.2 105.2 453.75 M86.75 470.55 L149.75 469.05 149.95 472.0 86.75 473.35 86.75 470.55 M160.9 455.0 Q165.6 454.45 165.85 450.75 165.6 447.05 160.9 446.55 156.25 447.05 156.05 450.75 156.25 454.45 160.9 455.0 M147.25 450.75 Q146.95 447.05 142.3 446.55 137.6 447.05 137.4 450.75 137.6 454.45 142.3 455.0 146.95 454.45 147.25 450.75" fill="#181e16" fill-rule="evenodd" stroke="none"/>
      <path d="M153.55 105.25 Q148.5 105.7 148.3 109.1 148.6 112.55 153.55 113.0 158.5 112.55 158.65 109.1 158.5 105.7 153.55 105.25 M142.2 112.1 L147.85 103.7 154.0 96.25 165.3 111.55 158.5 118.85 147.6 119.1 142.2 112.1 M158.75 120.8 L171.25 147.0 152.45 178.5 148.6 170.3 141.55 155.1 Q138.05 147.45 138.15 146.65 138.75 146.65 147.75 120.8 148.05 120.65 153.0 120.75 L158.75 120.8 M159.75 143.75 Q159.45 139.8 153.6 139.25 147.85 139.8 147.6 143.75 147.85 147.75 153.6 148.35 159.45 147.75 159.75 143.75" fill="#21301e" fill-rule="evenodd" stroke="none"/>
    </g>
    <g id="shape1" transform="matrix(1.0, 0.0, 0.0, 1.0, 0.0, 0.0)">
      <path d="M169.2 127.25 Q167.75 125.45 167.4 122.3 L167.4 41.4 Q124.55 41.4 88.4 40.2 49.15 38.85 25.1 35.0 1.15 31.15 0.0 23.4 0.25 16.55 24.3 11.35 48.35 6.1 87.95 3.05 127.55 0.1 174.6 0.0 221.65 0.0 262.1 3.05 302.4 6.1 326.95 11.8 351.45 17.45 351.0 25.2 349.45 31.05 325.1 34.55 300.7 38.15 261.2 39.75 224.65 41.3 181.8 41.4 L181.8 122.3 Q180.9 129.5 174.6 129.5 L174.6 21.6 169.65 21.6 Q170.0 21.3 170.55 21.05 172.25 20.15 174.95 20.05 177.65 19.95 179.3 20.8 L180.25 21.5 Q181.45 22.5 181.7 24.3 L181.8 24.55 181.8 25.1 181.8 39.6 Q234.7 39.05 272.9 36.15 L273.7 36.25 305.55 33.2 303.95 33.1 Q344.45 28.05 345.6 23.4 344.95 19.9 325.9 15.85 L326.05 15.55 Q314.2 12.85 296.9 10.6 L250.0 5.95 248.4 5.85 180.0 3.6 Q103.25 3.85 54.25 9.45 5.2 15.1 3.6 23.4 4.6 31.4 35.45 35.0 L51.55 36.55 52.1 36.6 96.5 38.8 103.25 38.95 103.3 38.95 Q132.05 39.7 167.4 39.6 L167.4 25.1 Q167.5 24.45 167.75 24.0 168.2 22.75 169.2 21.95 L169.2 127.25" fill="#6f6a9e" fill-rule="evenodd" stroke="none"/>
      <path d="M167.75 24.0 Q167.5 24.45 167.4 25.1 L167.4 39.6 Q132.05 39.7 103.3 38.95 110.6 30.6 122.4 29.6 128.05 29.85 132.3 31.85 136.55 33.85 142.2 34.1 151.85 33.45 158.4 28.7 162.45 25.65 167.75 24.0 M35.45 35.0 Q4.6 31.4 3.6 23.4 5.2 15.1 54.25 9.45 103.25 3.85 180.0 3.6 L248.4 5.85 Q241.55 12.95 230.95 13.65 225.25 13.4 221.05 11.4 216.8 9.45 211.15 9.15 201.5 9.8 194.95 14.55 188.55 19.25 179.3 20.8 177.65 19.95 174.95 20.05 172.25 20.15 170.55 21.05 166.15 19.8 161.55 19.7 155.6 20.05 151.45 22.85 147.25 25.65 141.3 26.0 134.35 25.55 129.4 22.4 124.4 19.25 117.45 18.8 110.35 19.25 105.1 22.4 99.8 25.55 92.7 26.0 81.45 25.35 73.15 21.05 64.9 16.75 53.55 16.1 37.7 16.65 26.1 28.7 24.2 30.3 22.3 32.75 L35.45 35.0 M325.9 15.85 Q344.95 19.9 345.6 23.4 344.45 28.05 303.95 33.1 L181.7 24.3 Q181.45 22.5 180.25 21.5 185.85 23.4 191.8 23.55 197.75 23.2 201.85 20.4 206.1 17.65 212.05 17.25 218.95 17.7 223.9 20.85 228.95 24.0 235.9 24.45 243.0 24.0 248.2 20.85 253.55 17.7 260.65 17.25 271.9 17.9 280.15 22.2 288.45 26.55 299.8 27.15 314.9 26.65 325.9 15.85 M272.9 36.15 Q234.7 39.05 181.8 39.6 L181.8 25.1 181.8 24.55 272.9 36.15 M82.6 7.0 L52.45 9.9 174.6 18.8 82.6 7.0" fill="#e7e6e3" fill-rule="evenodd" stroke="none"/>
      <path d="M169.2 21.95 Q168.2 22.75 167.75 24.0 162.45 25.65 158.4 28.7 151.85 33.45 142.2 34.1 136.55 33.85 132.3 31.85 128.05 29.85 122.4 29.6 110.6 30.6 103.3 38.95 L103.25 38.95 96.5 38.8 52.1 36.6 51.55 36.55 35.45 35.0 22.3 32.75 Q24.2 30.3 26.1 28.7 37.7 16.65 53.55 16.1 64.9 16.75 73.15 21.05 81.45 25.35 92.7 26.0 99.8 25.55 105.1 22.4 110.35 19.25 117.45 18.8 124.4 19.25 129.4 22.4 134.35 25.55 141.3 26.0 147.25 25.65 151.45 22.85 155.6 20.05 161.55 19.7 166.15 19.8 170.55 21.05 170.0 21.3 169.65 21.6 L169.2 21.6 169.2 21.95 M248.4 5.85 L250.0 5.95 296.9 10.6 Q314.2 12.85 326.05 15.55 L325.9 15.85 Q314.9 26.65 299.8 27.15 288.45 26.55 280.15 22.2 271.9 17.9 260.65 17.25 253.55 17.7 248.2 20.85 243.0 24.0 235.9 24.45 228.95 24.0 223.9 20.85 218.95 17.7 212.05 17.25 206.1 17.65 201.85 20.4 197.75 23.2 191.8 23.55 185.85 23.4 180.25 21.5 L179.3 20.8 Q188.55 19.25 194.95 14.55 201.5 9.8 211.15 9.15 216.8 9.45 221.05 11.4 225.25 13.4 230.95 13.65 241.55 12.95 248.4 5.85 M303.95 33.1 L305.55 33.2 273.7 36.25 272.9 36.15 181.8 24.55 181.7 24.3 303.95 33.1 M82.6 7.0 L174.6 18.8 52.45 9.9 82.6 7.0" fill="#ffffff" fill-rule="evenodd" stroke="none"/>
      <path d="M169.2 127.25 L169.2 21.95 169.2 21.6 169.65 21.6 174.6 21.6 174.6 129.5 174.6 129.6 169.2 129.6 169.2 127.25" fill="#eff2e8" fill-rule="evenodd" stroke="none"/>
    </g>
  </defs>
</svg>
