<?xml version="1.0" encoding="UTF-8" standalone="no"?>
<svg xmlns:xlink="http://www.w3.org/1999/xlink" height="1180.9px" width="479.35px" xmlns="http://www.w3.org/2000/svg">
  <g transform="matrix(1.0, 0.0, 0.0, 1.0, 174.55, 605.1)">
    <use height="477.9" transform="matrix(1.0, 0.0, 0.0, 1.0, -152.8, -140.15)" width="303.75" xlink:href="#shape0"/>
    <use height="129.6" transform="matrix(1.0, 0.0, 0.0, 1.0, -174.55, -273.4)" width="351.0" xlink:href="#shape1"/>
  </g>
  <defs>
    <g id="shape0" transform="matrix(1.0, 0.0, 0.0, 1.0, 0.0, 0.0)">
      <path d="M196.0 85.85 Q197.55 52.45 192.05 21.6 175.4 14.2 155.35 27.6 140.4 14.5 119.0 20.35 111.05 50.65 111.95 86.1 L108.2 84.85 Q108.8 44.55 116.35 1.8 155.7 -1.9 191.95 2.05 199.45 46.05 198.55 84.95 L196.0 85.85 M126.55 31.85 L149.75 37.5 148.5 38.7 147.25 39.3 150.05 41.65 150.95 39.15 148.85 49.75 Q153.25 51.0 158.6 48.95 L158.95 46.35 156.5 46.6 159.55 43.1 159.85 50.2 Q152.35 52.0 146.8 50.65 L149.95 41.85 126.35 42.3 120.95 42.4 120.95 40.6 126.35 40.5 145.45 39.95 126.45 35.9 122.75 35.1 119.7 30.15 126.55 31.85 M126.65 64.5 Q153.9 53.65 183.15 64.05 187.0 65.4 191.0 67.2 L189.65 73.95 188.1 73.6 189.65 68.85 Q186.3 67.3 183.05 66.05 154.35 55.25 126.7 66.3 L121.7 68.5 124.3 72.35 122.05 72.7 120.4 67.2 Q123.5 65.7 126.65 64.5 M183.4 40.65 L157.7 41.2 160.75 38.8 159.5 38.15 158.3 36.9 183.05 29.6 187.1 28.35 184.05 33.3 183.25 33.55 162.55 39.4 183.35 38.85 187.1 38.8 187.1 40.6 183.4 40.65 M121.85 5.95 Q127.25 2.4 156.6 2.05 137.6 0.1 119.25 3.05 116.1 11.35 118.0 16.2 L121.85 14.55 121.85 5.95 M152.75 67.95 Q152.8 67.15 153.45 67.05 157.6 67.4 157.95 71.35 157.85 74.5 154.9 75.6 L155.05 75.3 Q155.95 74.15 155.95 72.7 155.9 69.85 153.0 68.65 L152.75 67.95" fill="#050505" fill-rule="evenodd" stroke="none"/>
      <path d="M193.05 86.85 Q195.55 47.8 189.8 22.2 L182.45 19.95 183.05 29.6 158.3 36.9 159.5 38.15 160.75 38.8 157.7 41.2 183.4 40.65 Q183.6 52.0 183.15 64.05 153.9 53.65 126.65 64.5 L126.35 54.1 126.35 42.3 149.95 41.85 146.8 50.65 Q152.35 52.0 159.85 50.2 L159.55 43.1 156.5 46.6 158.95 46.35 158.6 48.95 Q153.25 51.0 148.85 49.75 L150.95 39.15 150.05 41.65 147.25 39.3 148.5 38.7 149.75 37.5 126.55 31.85 127.25 19.0 120.5 20.85 Q113.65 48.4 114.75 87.1 L111.95 86.1 Q111.05 50.65 119.0 20.35 140.4 14.5 155.35 27.6 175.4 14.2 192.05 21.6 197.55 52.45 196.0 85.85 L193.05 86.85 M183.25 33.55 L183.35 38.85 162.55 39.4 183.25 33.55 M181.25 90.9 L153.45 100.5 128.45 91.9 Q127.15 79.0 126.7 66.3 154.35 55.25 183.05 66.05 182.45 78.1 181.25 90.9 M126.35 40.5 L126.45 35.9 145.45 39.95 126.35 40.5 M152.75 67.95 L153.0 68.65 Q155.9 69.85 155.95 72.7 155.95 74.15 155.05 75.3 L154.9 75.6 Q157.85 74.5 157.95 71.35 157.6 67.4 153.45 67.05 152.8 67.15 152.75 67.95 M58.15 334.0 L72.1 343.0 69.55 352.0 62.65 354.3 49.95 351.0 Q48.95 348.0 49.3 344.85 48.05 350.1 45.8 355.15 L46.9 354.3 49.3 352.9 61.9 358.55 70.2 354.3 72.1 358.55 60.65 367.45 51.2 374.65 37.45 363.15 24.1 351.6 32.85 337.85 58.15 334.0 M234.2 352.0 L231.65 343.0 245.5 334.0 270.9 337.85 279.65 351.6 266.3 363.15 252.45 374.65 243.0 367.45 231.65 358.55 233.55 354.3 241.75 358.55 254.45 352.9 256.75 354.3 257.95 355.2 Q255.7 350.2 254.45 344.85 254.8 348.0 253.7 351.0 L241.1 354.3 234.2 352.0" fill="#54acce" fill-rule="evenodd" stroke="none"/>
      <path d="M121.85 5.95 L121.85 14.55 118.0 16.2 Q116.1 11.35 119.25 3.05 137.6 0.1 156.6 2.05 127.25 2.4 121.85 5.95" fill="#e3f2ea" fill-rule="evenodd" stroke="none"/>
      <path d="M183.05 29.6 L182.45 19.95 189.8 22.2 Q195.55 47.8 193.05 86.85 187.2 88.8 181.25 90.9 182.45 78.1 183.05 66.05 186.3 67.3 189.65 68.85 L188.1 73.6 189.65 73.95 191.0 67.2 Q187.0 65.4 183.15 64.05 183.6 52.0 183.4 40.65 L187.1 40.6 187.1 38.8 183.35 38.85 183.25 33.55 184.05 33.3 187.1 28.35 183.05 29.6" fill="#4575b4" fill-rule="evenodd" stroke="none"/>
      <path d="M114.75 87.1 Q113.65 48.4 120.5 20.85 L127.25 19.0 126.55 31.85 119.7 30.15 122.75 35.1 126.45 35.9 126.35 40.5 120.95 40.6 120.95 42.4 126.35 42.3 126.35 54.1 126.65 64.5 Q123.5 65.7 120.4 67.2 L122.05 72.7 124.3 72.35 121.7 68.5 126.7 66.3 Q127.15 79.0 128.45 91.9 L114.75 87.1" fill="#96d4d9" fill-rule="evenodd" stroke="none"/>
      <path d="M193.05 86.85 L196.0 85.85 198.55 84.95 205.2 82.6 214.2 99.1 211.15 100.9 295.2 151.65 293.2 154.8 303.75 221.85 284.05 327.25 279.45 326.8 277.45 338.1 274.15 337.6 283.4 351.9 251.8 379.0 226.8 359.25 231.4 352.9 229.5 340.0 241.3 332.2 240.95 322.1 236.7 321.3 243.9 281.4 235.35 246.95 217.6 263.15 221.6 324.55 219.6 325.0 207.1 460.05 220.25 466.0 218.95 477.9 151.9 477.0 84.8 477.9 83.5 466.1 96.65 460.15 83.5 325.35 81.2 324.55 86.15 263.25 68.4 246.95 59.85 281.4 67.05 321.4 62.8 322.1 62.45 332.2 74.35 340.1 72.35 352.9 76.95 359.25 51.95 379.0 20.35 351.9 29.6 337.6 26.3 338.1 24.3 326.8 19.7 327.25 0.0 221.85 10.55 154.9 8.55 151.65 95.65 100.7 92.7 99.1 101.8 82.6 108.2 84.85 111.95 86.1 114.75 87.1 128.45 91.9 153.45 100.5 181.25 90.9 Q187.2 88.8 193.05 86.85 M202.7 86.65 L156.6 102.6 156.05 103.2 170.1 119.95 209.05 98.2 202.7 86.65 M229.85 114.2 Q230.3 114.85 230.4 115.8 230.2 118.5 226.6 118.9 223.0 118.5 222.85 115.8 223.0 113.1 226.6 112.75 L227.9 113.05 223.45 110.35 220.7 132.45 197.1 137.15 197.9 138.5 Q198.55 136.7 201.4 136.45 205.0 136.8 205.2 139.5 L205.0 140.5 229.75 140.5 231.65 115.3 229.85 114.2 M224.2 115.8 Q224.35 117.7 226.6 117.9 228.95 117.7 229.15 115.8 228.95 113.85 226.6 113.65 224.35 113.85 224.2 115.8 M221.6 109.45 L209.6 103.4 157.75 183.4 203.95 152.35 195.5 136.8 219.5 131.65 221.6 109.45 M225.7 135.6 Q225.55 133.65 223.2 133.45 220.95 133.65 220.75 135.6 220.95 137.5 223.2 137.7 225.55 137.5 225.7 135.6 M233.35 117.9 L232.75 142.55 210.95 142.55 220.25 153.35 156.7 200.25 157.05 316.45 216.9 311.05 213.65 262.25 280.1 145.95 233.35 117.9 M227.0 135.6 Q226.8 138.3 223.2 138.7 219.6 138.3 219.4 135.6 219.6 132.9 223.2 132.55 226.8 132.9 227.0 135.6 M201.35 141.65 Q203.65 141.45 203.85 139.6 203.65 137.6 201.35 137.4 199.1 137.6 198.9 139.6 199.1 141.45 201.35 141.65 M201.4 142.55 L200.0 142.3 205.55 152.25 155.15 187.35 155.8 197.2 156.35 197.9 217.8 152.25 204.95 140.75 Q204.1 142.3 201.4 142.55 M168.85 124.45 L167.2 122.55 161.3 128.8 172.55 152.0 203.95 104.85 168.85 124.45 M183.15 169.65 Q183.35 166.95 186.95 166.6 190.55 166.95 190.7 169.65 190.55 172.35 186.95 172.7 183.35 172.35 183.15 169.65 M186.85 167.55 Q184.6 167.75 184.4 169.75 184.6 171.6 186.85 171.8 189.2 171.6 189.35 169.75 189.2 167.75 186.85 167.55 M162.55 191.4 Q158.95 191.05 158.75 188.35 158.95 185.65 162.55 185.3 166.15 185.65 166.3 188.35 166.15 191.05 162.55 191.4 M162.45 190.5 Q164.8 190.35 164.95 188.45 164.8 186.45 162.45 186.3 160.2 186.45 160.0 188.45 160.2 190.35 162.45 190.5 M210.6 155.8 Q207.0 155.4 206.8 152.7 207.0 150.0 210.6 149.65 214.2 150.0 214.4 152.7 214.2 155.4 210.6 155.8 M202.15 187.45 L201.95 187.55 229.15 189.9 219.05 177.55 219.05 177.65 202.15 187.45 M208.1 152.8 Q208.25 154.7 210.5 154.9 212.85 154.7 213.05 152.8 212.85 150.85 210.5 150.65 208.25 150.85 208.1 152.8 M219.7 175.2 L221.6 177.55 225.35 175.2 234.8 190.35 239.85 190.8 238.6 194.1 198.8 188.0 219.7 175.2 M232.3 190.35 L225.35 177.1 222.2 179.0 230.4 189.9 232.3 190.35 M254.35 195.45 Q255.7 194.5 258.1 194.2 263.8 194.85 263.95 199.15 263.8 203.5 258.1 204.1 252.65 203.5 252.25 199.25 L250.65 202.3 241.3 219.85 240.95 220.5 Q242.0 220.05 243.55 219.85 249.2 220.5 249.4 224.8 249.2 229.15 243.55 229.75 238.5 229.2 237.8 225.6 L216.25 260.7 247.85 229.75 Q250.65 224.25 260.45 207.45 L276.1 180.45 Q274.7 182.25 271.25 182.6 265.7 181.95 265.4 177.65 265.7 173.35 271.25 172.7 276.95 173.35 277.1 177.65 L276.75 179.35 280.0 173.85 288.55 159.3 Q287.1 160.9 283.75 161.25 278.2 160.65 277.9 156.3 278.2 152.0 283.75 151.35 289.45 152.0 289.6 156.3 L289.35 157.85 292.85 151.65 282.8 146.8 Q278.9 150.9 269.1 168.4 261.35 182.25 254.35 195.45 M271.25 181.15 Q274.75 180.8 275.15 177.65 274.75 174.5 271.25 174.25 267.75 174.5 267.4 177.65 267.75 180.8 271.25 181.15 M283.75 152.9 Q280.25 153.15 279.9 156.3 280.25 159.45 283.75 159.85 287.3 159.45 287.65 156.3 287.3 153.15 283.75 152.9 M97.9 98.2 L136.8 119.95 151.3 102.85 104.2 86.65 97.9 98.2 M80.1 118.95 Q79.9 117.0 77.6 116.8 75.35 117.0 75.15 118.95 75.35 120.85 77.6 121.05 79.9 120.85 80.1 118.95 M73.8 118.95 Q74.0 116.25 77.6 115.9 80.9 116.25 81.35 118.5 L80.3 110.35 72.1 115.3 74.0 140.5 98.3 140.5 Q98.0 140.05 98.0 139.5 98.2 136.8 101.8 136.45 105.1 136.8 105.55 139.15 L106.65 137.15 83.05 132.45 81.35 118.95 Q81.2 121.65 77.6 122.05 74.0 121.65 73.8 118.95 M77.5 135.6 Q77.65 137.5 79.9 137.7 82.25 137.5 82.45 135.6 82.25 133.65 79.9 133.45 77.65 133.65 77.5 135.6 M76.25 135.6 Q76.4 132.9 80.0 132.55 83.6 132.9 83.8 135.6 83.6 138.3 80.0 138.7 76.4 138.3 76.25 135.6 M70.4 117.9 L23.65 145.95 90.1 262.25 86.75 311.05 143.35 315.0 145.35 197.2 83.5 153.35 92.7 142.55 71.0 142.55 70.4 117.9 M19.8 152.9 Q16.3 153.15 15.95 156.3 16.3 159.45 19.8 159.85 23.3 159.45 23.65 156.3 23.3 153.15 19.8 152.9 M13.95 156.3 Q14.2 152.0 19.8 151.35 25.45 152.0 25.65 156.3 25.45 160.65 19.8 161.25 16.85 160.9 15.4 159.55 L23.65 173.85 26.75 179.2 26.45 177.65 Q26.75 173.35 32.3 172.7 38.0 173.35 38.15 177.65 38.0 181.95 32.3 182.6 29.05 182.25 27.65 180.7 L43.3 207.45 Q53.0 224.25 55.8 229.75 L87.4 260.7 65.25 224.35 Q64.35 227.6 59.5 228.15 53.9 227.5 53.65 223.2 53.9 218.85 59.5 218.25 L61.85 218.8 53.0 202.3 50.75 198.1 50.75 198.15 Q50.6 202.5 44.9 203.1 39.35 202.5 39.05 198.15 39.35 193.85 44.9 193.2 47.45 193.5 48.85 194.5 L34.55 168.4 Q24.75 150.9 20.9 146.8 L10.8 151.65 14.15 157.4 13.95 156.3 M48.8 197.8 Q48.4 194.65 44.9 194.4 41.4 194.65 41.05 197.8 41.4 200.95 44.9 201.3 48.4 200.95 48.8 197.8 M32.3 181.15 Q35.8 180.8 36.2 177.65 35.8 174.5 32.3 174.25 28.8 174.5 28.45 177.65 28.8 180.8 32.3 181.15 M156.35 118.8 Q155.95 116.35 152.9 116.2 149.75 116.35 149.5 118.8 149.75 121.2 152.9 121.4 155.95 121.2 156.35 118.8 M153.45 106.3 L141.75 121.6 147.15 128.4 158.05 128.15 164.8 121.15 153.45 106.3 M158.15 118.9 Q157.85 122.1 153.0 122.55 148.05 122.1 147.8 118.9 147.95 115.55 153.0 115.1 157.95 115.55 158.15 118.9 M144.0 129.3 L139.15 123.2 138.05 124.45 Q124.0 116.65 109.9 108.7 L135.45 152.25 143.9 129.75 144.0 129.3 M152.45 130.05 Q147.4 129.95 147.15 130.15 138.05 154.95 137.15 154.95 L137.25 155.25 Q137.6 156.6 140.95 163.0 L146.95 174.4 148.6 177.4 152.8 185.1 170.55 154.7 158.15 130.15 152.45 130.05 M83.8 111.4 L84.25 131.55 108.25 136.7 99.8 152.25 147.85 183.3 105.05 106.0 98.65 102.4 Q91.15 106.9 83.8 111.4 M101.7 141.65 Q104.05 141.45 104.2 139.6 104.05 137.6 101.7 137.4 99.45 137.6 99.25 139.6 99.45 141.45 101.7 141.65 M101.8 142.55 Q99.35 142.3 98.55 141.0 L85.95 152.25 154.1 199.6 153.9 189.6 98.2 152.25 103.95 142.0 101.8 142.55 M120.85 170.35 Q118.6 170.55 118.45 172.5 118.6 174.4 120.85 174.6 123.2 174.4 123.4 172.5 123.2 170.55 120.85 170.35 M120.95 169.45 Q124.55 169.8 124.75 172.5 124.55 175.2 120.95 175.6 117.35 175.2 117.2 172.5 117.35 169.8 120.95 169.45 M92.6 149.65 Q96.2 150.0 96.4 152.7 96.2 155.4 92.6 155.8 89.0 155.4 88.85 152.7 89.0 150.0 92.6 149.65 M95.05 152.8 Q94.85 150.85 92.5 150.65 90.25 150.85 90.1 152.8 90.25 154.7 92.5 154.9 94.85 154.7 95.05 152.8 M157.05 152.25 Q156.8 149.5 153.1 149.2 149.5 149.5 149.15 152.25 149.5 155.05 153.1 155.35 156.8 155.05 157.05 152.25 M159.1 152.25 Q158.85 156.05 153.1 156.6 147.35 156.05 147.05 152.25 147.35 148.4 153.1 147.85 158.85 148.4 159.1 152.25 M144.65 191.8 Q141.05 191.4 140.85 188.7 141.05 186.0 144.65 185.65 148.25 186.0 148.4 188.7 148.25 191.4 144.65 191.8 M148.6 214.8 Q148.75 216.6 151.1 216.8 153.35 216.6 153.65 214.8 153.35 213.0 151.1 212.85 148.75 213.0 148.6 214.8 M144.55 190.8 Q146.9 190.6 147.05 188.7 146.9 186.75 144.55 186.55 142.3 186.75 142.1 188.7 142.3 190.6 144.55 190.8 M151.1 212.05 Q154.8 212.4 154.9 214.9 154.8 217.35 151.1 217.7 148.15 217.45 147.5 215.65 L147.15 232.2 Q147.95 230.85 150.5 230.55 154.15 230.95 154.25 233.45 154.15 235.9 150.5 236.25 147.85 235.95 147.05 234.6 L146.7 251.55 Q147.15 249.45 150.4 249.1 154.1 249.45 154.15 252.0 154.1 254.4 150.4 254.8 147.15 254.4 146.7 252.45 L145.25 317.4 86.15 312.45 84.8 323.35 154.45 330.75 155.05 202.3 147.85 197.7 147.5 214.1 Q148.15 212.3 151.1 212.05 M150.4 249.9 Q148.05 250.1 147.85 251.9 148.05 253.7 150.4 253.9 152.65 253.7 152.8 251.9 152.65 250.1 150.4 249.9 M148.05 233.35 Q148.25 235.15 150.55 235.35 152.8 235.15 153.1 233.35 152.8 231.55 150.55 231.4 148.25 231.55 148.05 233.35 M150.3 267.3 Q154.0 267.65 154.1 270.15 154.0 272.6 150.3 272.95 146.7 272.6 146.5 270.15 146.7 267.65 150.3 267.3 M150.4 268.2 Q148.05 268.35 147.85 270.15 148.05 271.95 150.4 272.15 152.65 271.95 152.9 270.15 152.65 268.35 150.4 268.2 M150.2 292.2 Q146.6 291.85 146.45 289.45 146.6 286.9 150.2 286.55 153.9 286.9 154.0 289.45 153.9 291.85 150.2 292.2 M55.7 222.9 Q56.05 226.05 59.6 226.45 63.1 226.05 63.45 222.9 63.1 219.75 59.6 219.5 56.05 219.75 55.7 222.9 M150.2 291.3 Q152.45 291.15 152.75 289.35 152.45 287.55 150.2 287.35 147.85 287.55 147.7 289.35 147.85 291.15 150.2 291.3 M51.95 229.2 L12.5 159.75 2.6 222.3 19.7 314.45 62.45 309.05 57.35 283.15 57.35 282.7 67.7 244.95 51.95 229.2 M62.1 310.2 L20.35 316.35 21.95 325.5 63.7 320.05 62.1 310.2 M47.5 318.4 Q47.35 321.9 42.65 322.45 38.0 321.9 37.8 318.4 38.0 314.8 42.65 314.25 47.35 314.8 47.5 318.4 M57.85 313.35 Q54.9 313.65 54.65 316.25 54.9 318.85 57.85 319.15 60.75 318.85 61.0 316.25 60.75 313.65 57.85 313.35 M42.65 321.1 Q45.55 320.85 45.8 318.25 45.55 315.6 42.65 315.35 39.7 315.6 39.4 318.25 39.7 320.85 42.65 321.1 M53.0 316.5 Q53.2 312.9 57.85 312.4 62.55 312.9 62.75 316.5 62.55 320.05 57.85 320.55 53.2 320.05 53.0 316.5 M59.75 322.8 L26.9 327.5 28.15 335.6 60.4 331.75 59.75 322.8 M58.15 334.0 L32.85 337.85 24.1 351.6 37.45 363.15 51.2 374.65 60.65 367.45 72.1 358.55 70.2 354.3 61.9 358.55 49.3 352.9 46.9 354.3 45.8 355.15 Q48.05 350.1 49.3 344.85 48.95 348.0 49.95 351.0 L62.65 354.3 69.55 352.0 72.1 343.0 58.15 334.0 M26.55 316.25 Q31.25 316.8 31.4 320.4 31.25 323.9 26.55 324.45 21.85 324.0 21.7 320.4 21.85 316.8 26.55 316.25 M29.8 320.2 Q29.5 317.6 26.65 317.35 23.65 317.6 23.4 320.2 23.65 322.8 26.65 323.1 29.5 322.8 29.8 320.2 M150.4 304.75 Q154.1 305.1 154.15 307.6 154.1 310.05 150.4 310.4 146.8 310.05 146.6 307.6 146.8 305.1 150.4 304.75 M150.5 305.55 Q148.15 305.7 147.95 307.5 148.15 309.3 150.5 309.5 152.75 309.3 153.0 307.5 152.75 305.7 150.5 305.55 M157.05 321.55 Q158.4 322.3 158.5 323.8 158.4 325.35 157.05 326.05 L157.05 329.85 218.9 323.25 217.6 312.45 157.05 317.8 157.05 321.55 M124.3 322.3 Q124.45 319.75 128.05 319.4 131.75 319.75 131.85 322.3 131.75 324.7 128.05 325.05 124.45 324.7 124.3 322.3 M125.65 322.2 Q125.8 324.0 128.15 324.15 130.4 324.0 130.7 322.2 130.4 320.4 128.15 320.2 125.8 320.4 125.65 322.2 M157.05 322.9 L157.05 324.6 157.3 323.7 157.05 322.9 M148.4 325.9 Q150.65 325.7 150.95 323.9 150.65 322.1 148.4 321.9 146.05 322.1 145.9 323.9 146.05 325.7 148.4 325.9 M144.55 324.0 Q144.7 321.45 148.3 321.1 152.0 321.45 152.1 324.0 152.0 326.4 148.3 326.8 144.7 326.4 144.55 324.0 M111.25 320.5 Q110.95 318.7 108.7 318.5 106.4 318.7 106.2 320.5 106.4 322.3 108.7 322.45 110.95 322.3 111.25 320.5 M108.7 317.7 Q112.4 318.05 112.5 320.55 112.4 323.0 108.7 323.35 105.1 323.0 104.95 320.55 105.1 318.05 108.7 317.7 M93.8 318.5 Q93.5 316.7 91.25 316.5 88.9 316.7 88.75 318.5 88.9 320.3 91.25 320.5 93.5 320.3 93.8 318.5 M91.25 321.4 Q87.65 321.0 87.5 318.6 87.65 316.05 91.25 315.7 94.95 316.05 95.05 318.6 94.95 321.0 91.25 321.4 M149.85 333.6 L85.4 326.25 98.55 442.9 Q109.45 441.35 124.4 441.25 L150.5 442.35 149.85 333.6 M258.2 202.4 Q261.7 202.05 262.1 198.9 261.7 195.75 258.2 195.45 254.7 195.75 254.35 198.9 254.7 202.05 258.2 202.4 M247.4 224.45 Q247.05 221.3 243.55 221.05 240.05 221.3 239.65 224.45 240.05 227.6 243.55 227.95 247.05 227.6 247.4 224.45 M246.35 282.7 L246.35 283.15 241.2 309.05 283.95 314.45 301.05 222.3 291.25 159.75 251.75 229.2 236.0 244.95 246.35 282.7 M206.2 318.25 Q206.35 315.7 209.95 315.35 213.65 315.7 213.75 318.25 213.65 320.65 209.95 321.0 206.35 320.65 206.2 318.25 M241.55 310.2 L239.95 320.05 281.7 325.5 283.3 316.35 278.1 315.6 Q281.15 316.5 281.35 319.4 281.15 322.9 276.5 323.45 271.8 322.9 271.6 319.4 271.8 315.9 276.2 315.35 L241.55 310.2 M210.05 316.15 Q207.7 316.35 207.55 318.15 207.7 319.95 210.05 320.1 212.3 319.95 212.6 318.15 212.3 316.35 210.05 316.15 M185.3 320.4 Q185.5 317.85 189.1 317.5 192.8 317.85 192.85 320.4 192.8 322.8 189.1 323.2 185.5 322.8 185.3 320.4 M189.1 318.4 Q186.75 318.6 186.55 320.4 186.75 322.2 189.1 322.35 191.35 322.2 191.6 320.4 191.35 318.6 189.1 318.4 M166.75 325.95 Q163.15 325.6 163.0 323.2 163.15 320.65 166.75 320.3 170.45 320.65 170.55 323.2 170.45 325.6 166.75 325.95 M166.75 325.05 Q169.0 324.9 169.3 323.1 169.0 321.3 166.75 321.1 164.45 321.3 164.25 323.1 164.45 324.9 166.75 325.05 M234.2 352.0 L241.1 354.3 253.7 351.0 Q254.8 348.0 254.45 344.85 255.7 350.2 257.95 355.2 L256.75 354.3 254.45 352.9 241.75 358.55 233.55 354.3 231.65 358.55 243.0 367.45 252.45 374.65 266.3 363.15 279.65 351.6 270.9 337.85 245.5 334.0 231.65 343.0 234.2 352.0 M276.5 316.25 Q273.5 316.5 273.25 319.15 273.5 321.75 276.5 322.0 279.35 321.75 279.65 319.15 279.35 316.5 276.5 316.25 M246.35 312.85 Q243.35 313.1 243.1 315.7 243.35 318.3 246.35 318.6 249.2 318.3 249.5 315.7 249.2 313.1 246.35 312.85 M256.6 317.95 Q256.75 314.35 261.45 313.8 266.15 314.35 266.3 317.95 266.15 321.55 261.45 322.0 256.75 321.45 256.6 317.95 M246.25 311.85 Q250.9 312.4 251.1 316.0 250.9 319.5 246.25 320.05 241.55 319.5 241.4 316.0 241.55 312.4 246.25 311.85 M258.3 317.7 Q258.55 320.3 261.55 320.55 264.4 320.3 264.7 317.7 264.4 315.1 261.55 314.8 258.55 315.1 258.3 317.7 M243.9 322.8 L243.25 331.75 275.5 335.6 276.75 327.5 243.9 322.8 M153.8 333.6 L153.2 442.35 179.3 441.25 Q194.3 441.35 205.1 442.9 L218.25 326.25 153.8 333.6 M202.15 451.7 Q201.95 455.2 197.3 455.75 192.6 455.2 192.4 451.7 192.6 448.1 197.3 447.55 201.95 448.1 202.15 451.7 M200.5 451.5 Q200.25 448.9 197.35 448.65 194.4 448.9 194.15 451.5 194.4 454.15 197.35 454.4 200.25 454.15 200.5 451.5 M180.9 448.0 Q180.7 451.5 176.05 452.05 171.35 451.5 171.2 448.0 171.35 444.4 176.05 443.85 180.7 444.4 180.9 448.0 M176.05 450.6 Q178.9 450.35 179.2 447.75 178.9 445.15 176.05 444.85 173.05 445.15 172.8 447.75 173.05 450.35 176.05 450.6 M217.6 471.05 L218.25 467.1 170.55 453.75 153.0 466.35 153.0 469.8 217.6 471.05 M217.9 471.95 L152.9 471.05 152.9 473.95 217.45 475.0 217.9 471.95 M179.9 442.8 Q165.4 442.8 153.25 444.6 L152.65 463.75 170.2 450.8 204.4 459.45 204.4 444.85 Q194.4 442.8 179.9 442.8 M149.2 444.3 Q137.15 442.5 123.2 442.6 109.25 442.7 99.25 444.85 L99.25 459.35 119.25 451.15 Q117.55 450.1 117.45 448.0 117.65 444.4 122.3 443.85 127.0 444.4 127.15 448.0 127.0 451.25 123.1 451.95 L149.75 463.75 149.2 444.3 M86.4 472.3 L86.4 475.1 149.4 473.65 149.2 470.85 86.4 472.3 M86.05 471.05 L149.5 469.45 149.5 466.2 119.95 453.75 85.4 467.1 86.05 471.05 M155.45 451.9 Q155.6 448.3 160.3 447.75 164.95 448.3 165.15 451.9 164.95 455.4 160.3 455.95 155.6 455.4 155.45 451.9 M157.15 451.7 Q157.4 454.3 160.4 454.6 163.25 454.3 163.55 451.7 163.25 449.1 160.4 448.8 157.4 449.1 157.15 451.7 M141.75 455.95 Q137.05 455.4 136.9 451.9 137.05 448.3 141.75 447.75 146.45 448.3 146.6 451.9 146.45 455.4 141.75 455.95 M122.4 450.6 Q125.3 450.35 125.55 447.75 125.3 445.15 122.4 444.85 119.45 445.15 119.15 447.75 119.45 450.35 122.4 450.6 M141.85 454.6 Q144.7 454.3 145.0 451.7 144.7 449.1 141.85 448.8 138.85 449.1 138.6 451.7 138.85 454.3 141.85 454.6" fill="#0f0b0b" fill-rule="evenodd" stroke="none"/>
      <path d="M202.7 86.65 L209.05 98.2 170.1 119.95 156.05 103.2 156.6 102.6 202.7 86.65 M224.2 115.8 Q224.35 113.85 226.6 113.65 228.95 113.85 229.15 115.8 228.95 117.7 226.6 117.9 224.35 117.7 224.2 115.8 M225.7 135.6 Q225.55 137.5 223.2 137.7 220.95 137.5 220.75 135.6 220.95 133.65 223.2 133.45 225.55 133.65 225.7 135.6 M201.35 141.65 Q199.1 141.45 198.9 139.6 199.1 137.6 201.35 137.4 203.65 137.6 203.85 139.6 203.65 141.45 201.35 141.65 M168.85 124.45 L203.95 104.85 172.55 152.0 161.3 128.8 167.2 122.55 168.85 124.45 M186.85 167.55 Q189.2 167.75 189.35 169.75 189.2 171.6 186.85 171.8 184.6 171.6 184.4 169.75 184.6 167.75 186.85 167.55 M162.45 190.5 Q160.2 190.35 160.0 188.45 160.2 186.45 162.45 186.3 164.8 186.45 164.95 188.45 164.8 190.35 162.45 190.5 M208.1 152.8 Q208.25 150.85 210.5 150.65 212.85 150.85 213.05 152.8 212.85 154.7 210.5 154.9 208.25 154.7 208.1 152.8 M232.3 190.35 L230.4 189.9 222.2 179.0 225.35 177.1 232.3 190.35 M283.75 152.9 Q287.3 153.15 287.65 156.3 287.3 159.45 283.75 159.85 280.25 159.45 279.9 156.3 280.25 153.15 283.75 152.9 M271.25 181.15 Q267.75 180.8 267.4 177.65 267.75 174.5 271.25 174.25 274.75 174.5 275.15 177.65 274.75 180.8 271.25 181.15 M97.9 98.2 L104.2 86.65 151.3 102.85 136.8 119.95 97.9 98.2 M80.1 118.95 Q79.9 120.85 77.6 121.05 75.35 120.85 75.15 118.95 75.35 117.0 77.6 116.8 79.9 117.0 80.1 118.95 M77.5 135.6 Q77.65 133.65 79.9 133.45 82.25 133.65 82.45 135.6 82.25 137.5 79.9 137.7 77.65 137.5 77.5 135.6 M19.8 152.9 Q23.3 153.15 23.65 156.3 23.3 159.45 19.8 159.85 16.3 159.45 15.95 156.3 16.3 153.15 19.8 152.9 M32.3 181.15 Q28.8 180.8 28.45 177.65 28.8 174.5 32.3 174.25 35.8 174.5 36.2 177.65 35.8 180.8 32.3 181.15 M48.8 197.8 Q48.4 200.95 44.9 201.3 41.4 200.95 41.05 197.8 41.4 194.65 44.9 194.4 48.4 194.65 48.8 197.8 M156.35 118.8 Q155.95 121.2 152.9 121.4 149.75 121.2 149.5 118.8 149.75 116.35 152.9 116.2 155.95 116.35 156.35 118.8 M144.0 129.3 L143.9 129.75 135.45 152.25 109.9 108.7 Q124.0 116.65 138.05 124.45 L139.15 123.2 144.0 129.3 M101.7 141.65 Q99.45 141.45 99.25 139.6 99.45 137.6 101.7 137.4 104.05 137.6 104.2 139.6 104.05 141.45 101.7 141.65 M120.85 170.35 Q123.2 170.55 123.4 172.5 123.2 174.4 120.85 174.6 118.6 174.4 118.45 172.5 118.6 170.55 120.85 170.35 M95.05 152.8 Q94.85 154.7 92.5 154.9 90.25 154.7 90.1 152.8 90.25 150.85 92.5 150.65 94.85 150.85 95.05 152.8 M157.05 152.25 Q156.8 155.05 153.1 155.35 149.5 155.05 149.15 152.25 149.5 149.5 153.1 149.2 156.8 149.5 157.05 152.25 M144.55 190.8 Q142.3 190.6 142.1 188.7 142.3 186.75 144.55 186.55 146.9 186.75 147.05 188.7 146.9 190.6 144.55 190.8 M148.6 214.8 Q148.75 213.0 151.1 212.85 153.35 213.0 153.65 214.8 153.35 216.6 151.1 216.8 148.75 216.6 148.6 214.8 M148.05 233.35 Q148.25 231.55 150.55 231.4 152.8 231.55 153.1 233.35 152.8 235.15 150.55 235.35 148.25 235.15 148.05 233.35 M150.4 249.9 Q152.65 250.1 152.8 251.9 152.65 253.7 150.4 253.9 148.05 253.7 147.85 251.9 148.05 250.1 150.4 249.9 M150.4 268.2 Q152.65 268.35 152.9 270.15 152.65 271.95 150.4 272.15 148.05 271.95 147.85 270.15 148.05 268.35 150.4 268.2 M134.3 278.35 L133.65 280.25 95.85 280.7 134.3 278.35 M150.2 291.3 Q147.85 291.15 147.7 289.35 147.85 287.55 150.2 287.35 152.45 287.55 152.75 289.35 152.45 291.15 150.2 291.3 M55.7 222.9 Q56.05 219.75 59.6 219.5 63.1 219.75 63.45 222.9 63.1 226.05 59.6 226.45 56.05 226.05 55.7 222.9 M42.65 321.1 Q39.7 320.85 39.4 318.25 39.7 315.6 42.65 315.35 45.55 315.6 45.8 318.25 45.55 320.85 42.65 321.1 M57.85 313.35 Q60.75 313.65 61.0 316.25 60.75 318.85 57.85 319.15 54.9 318.85 54.65 316.25 54.9 313.65 57.85 313.35 M29.8 320.2 Q29.5 322.8 26.65 323.1 23.65 322.8 23.4 320.2 23.65 317.6 26.65 317.35 29.5 317.6 29.8 320.2 M150.5 305.55 Q152.75 305.7 153.0 307.5 152.75 309.3 150.5 309.5 148.15 309.3 147.95 307.5 148.15 305.7 150.5 305.55 M125.65 322.2 Q125.8 320.4 128.15 320.2 130.4 320.4 130.7 322.2 130.4 324.0 128.15 324.15 125.8 324.0 125.65 322.2 M157.05 322.9 L157.3 323.7 157.05 324.6 157.05 322.9 M148.4 325.9 Q146.05 325.7 145.9 323.9 146.05 322.1 148.4 321.9 150.65 322.1 150.95 323.9 150.65 325.7 148.4 325.9 M111.25 320.5 Q110.95 322.3 108.7 322.45 106.4 322.3 106.2 320.5 106.4 318.7 108.7 318.5 110.95 318.7 111.25 320.5 M93.8 318.5 Q93.5 320.3 91.25 320.5 88.9 320.3 88.75 318.5 88.9 316.7 91.25 316.5 93.5 316.7 93.8 318.5 M247.4 224.45 Q247.05 227.6 243.55 227.95 240.05 227.6 239.65 224.45 240.05 221.3 243.55 221.05 247.05 221.3 247.4 224.45 M258.2 202.4 Q254.7 202.05 254.35 198.9 254.7 195.75 258.2 195.45 261.7 195.75 262.1 198.9 261.7 202.05 258.2 202.4 M169.45 278.35 L207.9 280.7 170.1 280.25 169.45 278.35 M210.05 316.15 Q212.3 316.35 212.6 318.15 212.3 319.95 210.05 320.1 207.7 319.95 207.55 318.15 207.7 316.35 210.05 316.15 M189.1 318.4 Q191.35 318.6 191.6 320.4 191.35 322.2 189.1 322.35 186.75 322.2 186.55 320.4 186.75 318.6 189.1 318.4 M166.75 325.05 Q164.45 324.9 164.25 323.1 164.45 321.3 166.75 321.1 169.0 321.3 169.3 323.1 169.0 324.9 166.75 325.05 M246.35 312.85 Q249.2 313.1 249.5 315.7 249.2 318.3 246.35 318.6 243.35 318.3 243.1 315.7 243.35 313.1 246.35 312.85 M276.5 316.25 Q279.35 316.5 279.65 319.15 279.35 321.75 276.5 322.0 273.5 321.75 273.25 319.15 273.5 316.5 276.5 316.25 M258.3 317.7 Q258.55 315.1 261.55 314.8 264.4 315.1 264.7 317.7 264.4 320.3 261.55 320.55 258.55 320.3 258.3 317.7 M200.5 451.5 Q200.25 454.15 197.35 454.4 194.4 454.15 194.15 451.5 194.4 448.9 197.35 448.65 200.25 448.9 200.5 451.5 M176.05 450.6 Q173.05 450.35 172.8 447.75 173.05 445.15 176.05 444.85 178.9 445.15 179.2 447.75 178.9 450.35 176.05 450.6 M108.0 450.45 Q107.75 453.05 104.85 453.3 101.9 453.05 101.6 450.45 101.9 447.85 104.85 447.55 107.75 447.85 108.0 450.45 M157.15 451.7 Q157.4 449.1 160.4 448.8 163.25 449.1 163.55 451.7 163.25 454.3 160.4 454.6 157.4 454.3 157.15 451.7 M141.85 454.6 Q138.85 454.3 138.6 451.7 138.85 449.1 141.85 448.8 144.7 449.1 145.0 451.7 144.7 454.3 141.85 454.6 M122.4 450.6 Q119.45 450.35 119.15 447.75 119.45 445.15 122.4 444.85 125.3 445.15 125.55 447.75 125.3 450.35 122.4 450.6" fill="#844747" fill-rule="evenodd" stroke="none"/>
      <path d="M229.85 114.2 L231.65 115.3 229.75 140.5 205.0 140.5 205.2 139.5 Q205.0 136.8 201.4 136.45 198.55 136.7 197.9 138.5 L197.1 137.15 220.7 132.45 223.45 110.35 227.9 113.05 226.6 112.75 Q223.0 113.1 222.85 115.8 223.0 118.5 226.6 118.9 230.2 118.5 230.4 115.8 230.3 114.85 229.85 114.2 M221.6 109.45 L219.5 131.65 195.5 136.8 203.95 152.35 157.75 183.4 209.6 103.4 221.6 109.45 M227.0 135.6 Q226.8 132.9 223.2 132.55 219.6 132.9 219.4 135.6 219.6 138.3 223.2 138.7 226.8 138.3 227.0 135.6 M233.35 117.9 L280.1 145.95 213.65 262.25 216.9 311.05 157.05 316.45 156.7 200.25 220.25 153.35 210.95 142.55 232.75 142.55 233.35 117.9 M201.4 142.55 Q204.1 142.3 204.95 140.75 L217.8 152.25 156.35 197.9 155.8 197.2 155.15 187.35 205.55 152.25 200.0 142.3 201.4 142.55 M183.15 169.65 Q183.35 172.35 186.95 172.7 190.55 172.35 190.7 169.65 190.55 166.95 186.95 166.6 183.35 166.95 183.15 169.65 M162.55 191.4 Q166.15 191.05 166.3 188.35 166.15 185.65 162.55 185.3 158.95 185.65 158.75 188.35 158.95 191.05 162.55 191.4 M202.15 187.45 L219.05 177.65 219.05 177.55 229.15 189.9 201.95 187.55 202.15 187.45 M210.6 155.8 Q214.2 155.4 214.4 152.7 214.2 150.0 210.6 149.65 207.0 150.0 206.8 152.7 207.0 155.4 210.6 155.8 M219.7 175.2 L198.8 188.0 238.6 194.1 239.85 190.8 234.8 190.35 225.35 175.2 221.6 177.55 219.7 175.2 M254.35 195.45 Q261.35 182.25 269.1 168.4 278.9 150.9 282.8 146.8 L292.85 151.65 289.35 157.85 289.6 156.3 Q289.45 152.0 283.75 151.35 278.2 152.0 277.9 156.3 278.2 160.65 283.75 161.25 287.1 160.9 288.55 159.3 L280.0 173.85 276.75 179.35 277.1 177.65 Q276.95 173.35 271.25 172.7 265.7 173.35 265.4 177.65 265.7 181.95 271.25 182.6 274.7 182.25 276.1 180.45 L260.45 207.45 Q250.65 224.25 247.85 229.75 L216.25 260.7 237.8 225.6 Q238.5 229.2 243.55 229.75 249.2 229.15 249.4 224.8 249.2 220.5 243.55 219.85 242.0 220.05 240.95 220.5 L241.3 219.85 250.65 202.3 252.25 199.25 Q252.65 203.5 258.1 204.1 263.8 203.5 263.95 199.15 263.8 194.85 258.1 194.2 255.7 194.5 254.35 195.45 M73.8 118.95 Q74.0 121.65 77.6 122.05 81.2 121.65 81.35 118.95 L83.05 132.45 106.65 137.15 105.55 139.15 Q105.1 136.8 101.8 136.45 98.2 136.8 98.0 139.5 98.0 140.05 98.3 140.5 L74.0 140.5 72.1 115.3 80.3 110.35 81.35 118.5 Q80.9 116.25 77.6 115.9 74.0 116.25 73.8 118.95 M70.4 117.9 L71.0 142.55 92.7 142.55 83.5 153.35 145.35 197.2 143.35 315.0 86.75 311.05 90.1 262.25 23.65 145.95 70.4 117.9 M76.25 135.6 Q76.4 138.3 80.0 138.7 83.6 138.3 83.8 135.6 83.6 132.9 80.0 132.55 76.4 132.9 76.25 135.6 M13.95 156.3 L14.15 157.4 10.8 151.65 20.9 146.8 Q24.75 150.9 34.55 168.4 L48.85 194.5 Q47.45 193.5 44.9 193.2 39.35 193.85 39.05 198.15 39.35 202.5 44.9 203.1 50.6 202.5 50.75 198.15 L50.75 198.1 53.0 202.3 61.85 218.8 59.5 218.25 Q53.9 218.85 53.65 223.2 53.9 227.5 59.5 228.15 64.35 227.6 65.25 224.35 L87.4 260.7 55.8 229.75 Q53.0 224.25 43.3 207.45 L27.65 180.7 Q29.05 182.25 32.3 182.6 38.0 181.95 38.15 177.65 38.0 173.35 32.3 172.7 26.75 173.35 26.45 177.65 L26.75 179.2 23.65 173.85 15.4 159.55 Q16.85 160.9 19.8 161.25 25.45 160.65 25.65 156.3 25.45 152.0 19.8 151.35 14.2 152.0 13.95 156.3 M83.8 111.4 Q91.15 106.9 98.65 102.4 L105.05 106.0 147.85 183.3 99.8 152.25 108.25 136.7 84.25 131.55 83.8 111.4 M101.8 142.55 L103.95 142.0 98.2 152.25 153.9 189.6 154.1 199.6 85.95 152.25 98.55 141.0 Q99.35 142.3 101.8 142.55 M92.6 149.65 Q89.0 150.0 88.85 152.7 89.0 155.4 92.6 155.8 96.2 155.4 96.4 152.7 96.2 150.0 92.6 149.65 M120.95 169.45 Q117.35 169.8 117.2 172.5 117.35 175.2 120.95 175.6 124.55 175.2 124.75 172.5 124.55 169.8 120.95 169.45 M144.65 191.8 Q148.25 191.4 148.4 188.7 148.25 186.0 144.65 185.65 141.05 186.0 140.85 188.7 141.05 191.4 144.65 191.8 M151.1 212.05 Q148.15 212.3 147.5 214.1 L147.85 197.7 155.05 202.3 154.45 330.75 84.8 323.35 86.15 312.45 145.25 317.4 146.7 252.45 Q147.15 254.4 150.4 254.8 154.1 254.4 154.15 252.0 154.1 249.45 150.4 249.1 147.15 249.45 146.7 251.55 L147.05 234.6 Q147.85 235.95 150.5 236.25 154.15 235.9 154.25 233.45 154.15 230.95 150.5 230.55 147.95 230.85 147.15 232.2 L147.5 215.65 Q148.15 217.45 151.1 217.7 154.8 217.35 154.9 214.9 154.8 212.4 151.1 212.05 M150.3 267.3 Q146.7 267.65 146.5 270.15 146.7 272.6 150.3 272.95 154.0 272.6 154.1 270.15 154.0 267.65 150.3 267.3 M134.3 278.35 L95.85 280.7 133.65 280.25 134.3 278.35 M150.2 292.2 Q153.9 291.85 154.0 289.45 153.9 286.9 150.2 286.55 146.6 286.9 146.45 289.45 146.6 291.85 150.2 292.2 M47.5 318.4 Q47.35 314.8 42.65 314.25 38.0 314.8 37.8 318.4 38.0 321.9 42.65 322.45 47.35 321.9 47.5 318.4 M62.1 310.2 L63.7 320.05 21.95 325.5 20.35 316.35 62.1 310.2 M51.95 229.2 L67.7 244.95 57.35 282.7 57.35 283.15 62.45 309.05 19.7 314.45 2.6 222.3 12.5 159.75 51.95 229.2 M59.75 322.8 L60.4 331.75 28.15 335.6 26.9 327.5 59.75 322.8 M53.0 316.5 Q53.2 320.05 57.85 320.55 62.55 320.05 62.75 316.5 62.55 312.9 57.85 312.4 53.2 312.9 53.0 316.5 M26.55 316.25 Q21.85 316.8 21.7 320.4 21.85 324.0 26.55 324.45 31.25 323.9 31.4 320.4 31.25 316.8 26.55 316.25 M150.4 304.75 Q146.8 305.1 146.6 307.6 146.8 310.05 150.4 310.4 154.1 310.05 154.15 307.6 154.1 305.1 150.4 304.75 M124.3 322.3 Q124.45 324.7 128.05 325.05 131.75 324.7 131.85 322.3 131.75 319.75 128.05 319.4 124.45 319.75 124.3 322.3 M157.05 321.55 L157.05 317.8 217.6 312.45 218.9 323.25 157.05 329.85 157.05 326.05 Q158.4 325.35 158.5 323.8 158.4 322.3 157.05 321.55 M144.55 324.0 Q144.7 326.4 148.3 326.8 152.0 326.4 152.1 324.0 152.0 321.45 148.3 321.1 144.7 321.45 144.55 324.0 M108.7 317.7 Q105.1 318.05 104.95 320.55 105.1 323.0 108.7 323.35 112.4 323.0 112.5 320.55 112.4 318.05 108.7 317.7 M91.25 321.4 Q94.95 321.0 95.05 318.6 94.95 316.05 91.25 315.7 87.65 316.05 87.5 318.6 87.65 321.0 91.25 321.4 M149.85 333.6 L150.5 442.35 124.4 441.25 Q109.45 441.35 98.55 442.9 L85.4 326.25 149.85 333.6 M246.35 282.7 L236.0 244.95 251.75 229.2 291.25 159.75 301.05 222.3 283.95 314.45 241.2 309.05 246.35 283.15 246.35 282.7 M169.45 278.35 L170.1 280.25 207.9 280.7 169.45 278.35 M241.55 310.2 L276.2 315.35 Q271.8 315.9 271.6 319.4 271.8 322.9 276.5 323.45 281.15 322.9 281.35 319.4 281.15 316.5 278.1 315.6 L283.3 316.35 281.7 325.5 239.95 320.05 241.55 310.2 M206.2 318.25 Q206.35 320.65 209.95 321.0 213.65 320.65 213.75 318.25 213.65 315.7 209.95 315.35 206.35 315.7 206.2 318.25 M185.3 320.4 Q185.5 322.8 189.1 323.2 192.8 322.8 192.85 320.4 192.8 317.85 189.1 317.5 185.5 317.85 185.3 320.4 M166.75 325.95 Q170.45 325.6 170.55 323.2 170.45 320.65 166.75 320.3 163.15 320.65 163.0 323.2 163.15 325.6 166.75 325.95 M246.25 311.85 Q241.55 312.4 241.4 316.0 241.55 319.5 246.25 320.05 250.9 319.5 251.1 316.0 250.9 312.4 246.25 311.85 M256.6 317.95 Q256.75 321.45 261.45 322.0 266.15 321.55 266.3 317.95 266.15 314.35 261.45 313.8 256.75 314.35 256.6 317.95 M243.9 322.8 L276.75 327.5 275.5 335.6 243.25 331.75 243.9 322.8 M153.8 333.6 L218.25 326.25 205.1 442.9 Q194.3 441.35 179.3 441.25 L153.2 442.35 153.8 333.6 M202.15 451.7 Q201.95 448.1 197.3 447.55 192.6 448.1 192.4 451.7 192.6 455.2 197.3 455.75 201.95 455.2 202.15 451.7 M180.9 448.0 Q180.7 444.4 176.05 443.85 171.35 444.4 171.2 448.0 171.35 451.5 176.05 452.05 180.7 451.5 180.9 448.0 M217.6 471.05 L153.0 469.8 153.0 466.35 170.55 453.75 218.25 467.1 217.6 471.05 M179.9 442.8 Q194.4 442.8 204.4 444.85 L204.4 459.45 170.2 450.8 152.65 463.75 153.25 444.6 Q165.4 442.8 179.9 442.8 M217.9 471.95 L217.45 475.0 152.9 473.95 152.9 471.05 217.9 471.95 M149.2 444.3 L149.75 463.75 123.1 451.95 Q127.0 451.25 127.15 448.0 127.0 444.4 122.3 443.85 117.65 444.4 117.45 448.0 117.55 450.1 119.25 451.15 L99.25 459.35 99.25 444.85 Q109.25 442.7 123.2 442.6 137.15 442.5 149.2 444.3 M108.0 450.45 Q107.75 447.85 104.85 447.55 101.9 447.85 101.6 450.45 101.9 453.05 104.85 453.3 107.75 453.05 108.0 450.45 M86.4 472.3 L149.2 470.85 149.4 473.65 86.4 475.1 86.4 472.3 M86.05 471.05 L85.4 467.1 119.95 453.75 149.5 466.2 149.5 469.45 86.05 471.05 M155.45 451.9 Q155.6 455.4 160.3 455.95 164.95 455.4 165.15 451.9 164.95 448.3 160.3 447.75 155.6 448.3 155.45 451.9 M141.75 455.95 Q146.45 455.4 146.6 451.9 146.45 448.3 141.75 447.75 137.05 448.3 136.9 451.9 137.05 455.4 141.75 455.95" fill="#1d1211" fill-rule="evenodd" stroke="none"/>
      <path d="M158.15 118.9 Q157.95 115.55 153.0 115.1 147.95 115.55 147.8 118.9 148.05 122.1 153.0 122.55 157.85 122.1 158.15 118.9 M153.45 106.3 L164.8 121.15 158.05 128.15 147.15 128.4 141.75 121.6 153.45 106.3 M152.45 130.05 L158.15 130.15 170.55 154.7 152.8 185.1 148.6 177.4 146.95 174.4 140.95 163.0 Q137.6 156.6 137.25 155.25 L137.15 154.95 Q138.05 154.95 147.15 130.15 147.4 129.95 152.45 130.05 M159.1 152.25 Q158.85 148.4 153.1 147.85 147.35 148.4 147.05 152.25 147.35 156.05 153.1 156.6 158.85 156.05 159.1 152.25" fill="#2f1916" fill-rule="evenodd" stroke="none"/>
    </g>
    <g id="shape1" transform="matrix(1.0, 0.0, 0.0, 1.0, 0.0, 0.0)">
      <path d="M169.2 127.25 Q167.75 125.45 167.4 122.3 L167.4 41.4 Q124.55 41.4 88.4 40.2 49.15 38.85 25.1 35.0 1.15 31.15 0.0 23.4 0.25 16.55 24.3 11.35 48.35 6.1 87.95 3.05 127.55 0.1 174.6 0.0 221.65 0.0 262.1 3.05 302.4 6.1 326.95 11.8 351.45 17.45 351.0 25.2 349.45 31.05 325.1 34.55 300.7 38.15 261.2 39.75 224.65 41.3 181.8 41.4 L181.8 122.3 Q180.9 129.5 174.6 129.5 L174.6 21.6 169.65 21.6 Q170.0 21.3 170.55 21.05 172.25 20.15 174.95 20.05 177.65 19.95 179.3 20.8 L180.25 21.5 Q181.45 22.5 181.7 24.3 L181.8 24.55 181.8 25.1 181.8 39.6 Q234.7 39.05 272.9 36.15 L273.7 36.25 305.55 33.2 303.95 33.1 Q344.45 28.05 345.6 23.4 344.95 19.9 325.9 15.85 L326.05 15.55 Q314.2 12.85 296.9 10.6 L250.0 5.95 248.4 5.85 180.0 3.6 Q103.25 3.85 54.25 9.45 5.2 15.1 3.6 23.4 4.6 31.4 35.45 35.0 L51.55 36.55 52.1 36.6 96.5 38.8 103.25 38.95 103.3 38.95 Q132.05 39.7 167.4 39.6 L167.4 25.1 Q167.5 24.45 167.75 24.0 168.2 22.75 169.2 21.95 L169.2 127.25" fill="#6f6a9e" fill-rule="evenodd" stroke="none"/>
      <path d="M167.75 24.0 Q167.5 24.45 167.4 25.1 L167.4 39.6 Q132.05 39.7 103.3 38.95 110.6 30.6 122.4 29.6 128.05 29.85 132.3 31.85 136.55 33.85 142.2 34.1 151.85 33.45 158.4 28.7 162.45 25.65 167.75 24.0 M35.45 35.0 Q4.6 31.4 3.6 23.4 5.2 15.1 54.25 9.45 103.25 3.85 180.0 3.6 L248.4 5.85 Q241.55 12.95 230.95 13.65 225.25 13.4 221.05 11.4 216.8 9.45 211.15 9.15 201.5 9.8 194.95 14.55 188.55 19.25 179.3 20.8 177.65 19.95 174.95 20.05 172.25 20.15 170.55 21.05 166.15 19.8 161.55 19.7 155.6 20.05 151.45 22.85 147.25 25.65 141.3 26.0 134.35 25.55 129.4 22.4 124.4 19.25 117.45 18.8 110.35 19.25 105.1 22.4 99.8 25.55 92.7 26.0 81.45 25.35 73.15 21.05 64.9 16.75 53.55 16.1 37.7 16.65 26.1 28.7 24.2 30.3 22.3 32.75 L35.45 35.0 M325.9 15.85 Q344.95 19.9 345.6 23.4 344.45 28.05 303.95 33.1 L181.7 24.3 Q181.45 22.5 180.25 21.5 185.85 23.4 191.8 23.55 197.75 23.2 201.85 20.4 206.1 17.65 212.05 17.25 218.95 17.7 223.9 20.85 228.95 24.0 235.9 24.45 243.0 24.0 248.2 20.85 253.55 17.7 260.65 17.25 271.9 17.9 280.15 22.2 288.45 26.55 299.8 27.15 314.9 26.65 325.9 15.85 M272.9 36.15 Q234.7 39.05 181.8 39.6 L181.8 25.1 181.8 24.55 272.9 36.15 M82.6 7.0 L52.45 9.9 174.6 18.8 82.6 7.0" fill="#e7e6e3" fill-rule="evenodd" stroke="none"/>
      <path d="M169.2 21.95 Q168.2 22.75 167.75 24.0 162.45 25.65 158.4 28.7 151.85 33.45 142.2 34.1 136.55 33.85 132.3 31.85 128.05 29.85 122.4 29.6 110.6 30.6 103.3 38.95 L103.25 38.95 96.5 38.8 52.1 36.6 51.55 36.55 35.45 35.0 22.3 32.75 Q24.2 30.3 26.1 28.7 37.7 16.65 53.55 16.1 64.9 16.75 73.15 21.05 81.45 25.35 92.7 26.0 99.8 25.55 105.1 22.4 110.35 19.25 117.45 18.8 124.4 19.25 129.4 22.4 134.35 25.55 141.3 26.0 147.25 25.65 151.45 22.85 155.6 20.05 161.55 19.7 166.15 19.8 170.55 21.05 170.0 21.3 169.65 21.6 L169.2 21.6 169.2 21.95 M248.4 5.85 L250.0 5.95 296.9 10.6 Q314.2 12.85 326.05 15.55 L325.9 15.85 Q314.9 26.65 299.8 27.15 288.45 26.55 280.15 22.2 271.9 17.9 260.65 17.25 253.55 17.7 248.2 20.85 243.0 24.0 235.9 24.45 228.95 24.0 223.9 20.85 218.95 17.7 212.05 17.25 206.1 17.65 201.85 20.4 197.75 23.2 191.8 23.55 185.85 23.4 180.25 21.5 L179.3 20.8 Q188.55 19.25 194.95 14.55 201.5 9.8 211.15 9.15 216.8 9.45 221.05 11.4 225.25 13.4 230.95 13.65 241.55 12.95 248.4 5.85 M303.95 33.1 L305.55 33.2 273.7 36.25 272.9 36.15 181.8 24.55 181.7 24.3 303.95 33.1 M82.6 7.0 L174.6 18.8 52.45 9.9 82.6 7.0" fill="#ffffff" fill-rule="evenodd" stroke="none"/>
      <path d="M169.2 127.25 L169.2 21.95 169.2 21.6 169.65 21.6 174.6 21.6 174.6 129.5 174.6 129.6 169.2 129.6 169.2 127.25" fill="#eff2e8" fill-rule="evenodd" stroke="none"/>
    </g>
  </defs>
</svg>
