<?xml version="1.0" encoding="UTF-8" standalone="no"?>
<svg xmlns:xlink="http://www.w3.org/1999/xlink" height="1180.9px" width="479.35px" xmlns="http://www.w3.org/2000/svg">
  <g transform="matrix(1.0, 0.0, 0.0, 1.0, 174.55, 605.1)">
    <use height="164.25" transform="matrix(3.0, 0.0, 0.0, 3.0, -149.5015, 48.5476)" width="101.0" xlink:href="#sprite0"/>
    <use height="119.5" transform="matrix(2.9653, 0.0, 0.0, 2.9653, -165.9792, 63.6278)" width="117.6" xlink:href="#shape3"/>
  </g>
  <defs>
    <g id="sprite0" transform="matrix(1.0, 0.0, 0.0, 1.0, 50.45, 80.15)">
      <use height="55.35" transform="matrix(1.0, 0.0, 0.0, 1.0, -25.0, 27.8)" width="45.95" xlink:href="#shape0"/>
      <use height="40.7" transform="matrix(1.0, 0.0, 0.0, 1.0, -15.4, -80.15)" width="30.25" xlink:href="#shape1"/>
      <use height="99.15" transform="matrix(1.0, 0.0, 0.0, 1.0, -50.45, -52.3)" width="101.0" xlink:href="#shape2"/>
    </g>
    <g id="shape0" transform="matrix(1.0, 0.0, 0.0, 1.0, 25.0, -27.8)">
      <path d="M16.9 61.6 L16.75 66.8 20.6 70.0 19.6 78.2 14.5 82.25 3.15 83.15 -1.25 72.55 -1.5 28.4 20.9 28.4 16.9 61.6" fill="#0d0f0d" fill-rule="evenodd" stroke="none"/>
      <path d="M-2.45 29.0 L-1.65 65.7 -1.85 78.25 -23.7 78.5 -25.0 75.15 -19.75 72.9 -24.5 27.8 -2.45 29.0" fill="#0d0f0d" fill-rule="evenodd" stroke="none"/>
      <path d="M20.95 28.65 L20.35 28.7 20.35 28.65 20.95 28.65 M7.15 64.3 L8.25 63.75 8.25 61.9 7.05 61.9 5.85 61.9 5.2 63.1 5.85 63.75 6.65 64.15 5.2 63.75 -0.85 68.55 -0.85 61.9 8.25 61.3 16.1 61.9 16.1 66.75 7.15 64.3 M0.4 64.35 L0.4 65.55 2.8 65.55 3.4 64.35 2.8 63.1 1.6 63.1 0.4 63.1 0.4 64.35 M0.1 69.1 L6.2 65.1 16.05 67.45 20.35 70.0 19.45 77.75 14.5 81.65 3.45 82.35 -0.2 72.8 0.1 69.1 M12.5 64.35 L12.5 64.95 13.7 65.55 14.9 64.95 15.5 64.35 14.9 63.1 13.7 63.1 12.5 63.1 12.5 64.35 M16.1 61.3 L7.65 60.7 -0.85 61.3 -0.2 31.05 20.35 28.7 16.1 61.3" fill="#1d1211" fill-rule="evenodd" stroke="none"/>
      <path d="M7.05 61.9 L8.25 61.9 8.25 63.75 7.15 64.3 7.05 64.35 6.65 64.15 5.85 63.75 5.2 63.1 5.85 61.9 7.05 61.9 5.85 62.5 5.85 63.75 7.65 63.75 7.65 62.5 7.05 61.9 M1.6 63.1 L2.8 63.1 3.4 64.35 2.8 65.55 0.4 65.55 0.4 64.35 1.0 64.95 2.2 64.95 2.2 64.35 2.8 64.35 1.6 63.1 0.4 64.35 0.4 63.1 1.6 63.1 M13.7 63.1 L14.9 63.1 15.5 64.35 14.9 64.95 13.7 65.55 12.5 64.95 12.5 64.35 13.1 64.95 14.3 64.95 14.3 64.35 14.9 64.35 13.7 63.1 12.5 64.35 12.5 63.1 13.7 63.1" fill="#0d0f0d" fill-rule="evenodd" stroke="none"/>
      <path d="M7.05 61.9 L7.65 62.5 7.65 63.75 5.85 63.75 5.85 62.5 7.05 61.9 M1.6 63.1 L2.8 64.35 2.2 64.35 2.2 64.95 1.0 64.95 0.4 64.35 1.6 63.1 M13.7 63.1 L14.9 64.35 14.3 64.35 14.3 64.95 13.1 64.95 12.5 64.35 13.7 63.1" fill="#844747" fill-rule="evenodd" stroke="none"/>
      <path d="M-23.45 28.75 L-23.5 28.75 -24.1 28.65 -23.5 28.65 -23.45 28.75 -2.9 31.1 -2.3 67.35 -10.8 66.75 -19.25 67.35 -23.45 28.75 M-9.8 70.2 L-8.95 69.8 -8.35 69.2 -8.95 68.0 -10.2 68.0 -11.4 68.0 -11.4 69.8 -10.3 70.35 -19.25 72.8 -19.25 68.0 -11.4 67.35 -2.3 68.0 -2.3 74.65 -8.35 69.8 -9.8 70.2 M-15.65 70.4 L-15.65 69.2 -16.85 69.2 -18.05 69.2 -18.65 70.4 -18.05 71.0 -16.85 71.6 -15.65 71.0 -15.65 70.4 M-5.95 69.2 L-6.55 70.4 -5.95 71.6 -3.55 71.6 -3.55 70.4 -3.55 69.2 -4.75 69.2 -5.95 69.2 M-8.35 71.0 L-7.75 71.0 -2.3 74.65 -2.3 75.85 -23.5 76.45 -24.1 75.25 -8.35 71.0 M-23.5 77.05 L-2.3 76.45 -2.3 77.65 -23.5 77.65 -23.5 77.05" fill="#1d1211" fill-rule="evenodd" stroke="none"/>
      <path d="M-10.3 70.35 L-11.4 69.8 -11.4 68.0 -10.2 68.0 -8.95 68.0 -8.35 69.2 -8.95 69.8 -9.8 70.2 -10.2 70.4 -10.3 70.35 M-15.65 70.4 L-15.65 71.0 -16.85 71.6 -18.05 71.0 -18.65 70.4 -18.05 69.2 -16.85 69.2 -15.65 69.2 -15.65 70.4 -16.85 69.2 -18.05 70.4 -17.45 70.4 -17.45 71.0 -16.25 71.0 -15.65 70.4 M-8.95 69.8 L-8.95 68.6 -10.2 68.0 -10.8 68.6 -10.8 69.8 -8.95 69.8 M-5.95 69.2 L-4.75 69.2 -3.55 69.2 -3.55 70.4 -3.55 71.6 -5.95 71.6 -6.55 70.4 -5.95 69.2 M-3.55 70.4 L-4.75 69.2 -5.95 70.4 -5.35 70.4 -5.35 71.0 -4.15 71.0 -3.55 70.4" fill="#0d0f0d" fill-rule="evenodd" stroke="none"/>
      <path d="M-15.65 70.4 L-16.25 71.0 -17.45 71.0 -17.45 70.4 -18.05 70.4 -16.85 69.2 -15.65 70.4 M-8.95 69.8 L-10.8 69.8 -10.8 68.6 -10.2 68.0 -8.95 68.6 -8.95 69.8 M-3.55 70.4 L-4.15 71.0 -5.35 71.0 -5.35 70.4 -5.95 70.4 -4.75 69.2 -3.55 70.4" fill="#844747" fill-rule="evenodd" stroke="none"/>
    </g>
    <g id="shape1" transform="matrix(1.0, 0.0, 0.0, 1.0, 15.4, 80.15)">
      <path d="M-3.35 -79.95 L0.35 -80.15 13.65 -79.55 14.85 -64.4 14.85 -44.9 -0.9 -39.45 -15.4 -44.3 -14.8 -64.4 -12.35 -79.55 -11.1 -79.6 -11.75 -79.55 -12.35 -76.5 -12.35 -74.7 -11.75 -74.7 -10.55 -75.3 -10.55 -78.35 0.95 -79.55 -3.35 -79.95 M9.75 -67.35 L11.2 -67.45 11.2 -66.85 9.75 -66.85 3.35 -66.85 1.55 -66.25 2.15 -67.45 1.55 -68.05 2.15 -68.05 9.55 -70.5 11.2 -71.05 10.0 -69.25 9.65 -69.15 2.75 -66.85 9.75 -67.35 M9.85 -58.55 L12.45 -57.75 11.85 -55.35 11.85 -57.15 9.8 -57.85 6.4 -58.95 0.35 -60.2 6.4 -59.6 9.85 -58.55 M-11.75 -73.5 L-13.6 -62.6 -14.2 -50.5 -0.9 -45.65 14.25 -50.5 14.25 -62.0 13.65 -72.9 13.05 -72.9 10.0 -74.1 3.95 -72.9 0.35 -71.05 -2.1 -72.9 -5.1 -74.1 -8.15 -74.1 -8.75 -74.0 -8.75 -74.1 -9.95 -73.8 -11.75 -73.5 M-8.95 -69.7 L-2.1 -67.45 -1.5 -67.45 -0.9 -67.45 -1.2 -66.4 -0.9 -66.25 -1.25 -66.25 -1.5 -65.3 -1.5 -63.8 -0.25 -63.2 1.55 -63.8 1.55 -65.0 2.15 -65.65 2.15 -63.2 -0.25 -63.2 -2.1 -63.2 -1.5 -65.3 -1.5 -66.25 -9.1 -66.25 -11.15 -66.25 -11.15 -66.85 -9.1 -66.85 -2.7 -66.85 -9.0 -68.3 -10.55 -68.65 -11.15 -70.45 -8.95 -69.7 M-9.15 -58.45 L-5.7 -59.6 0.35 -60.2 -9.15 -57.65 -10.55 -57.15 -9.95 -55.95 -10.55 -55.95 -11.15 -57.75 -9.15 -58.45 M0.95 -57.15 L1.55 -56.55 0.95 -55.35 0.35 -54.75 0.95 -55.95 -0.25 -57.15 -0.25 -57.75 0.95 -57.15 M-1.5 -67.45 L-2.1 -66.85 -1.5 -66.55 -1.5 -67.45" fill="#050505" fill-rule="evenodd" stroke="none"/>
      <path d="M9.75 -66.85 L9.85 -58.55 6.4 -59.6 0.35 -60.2 -5.7 -59.6 -9.15 -58.45 -9.1 -66.25 -1.5 -66.25 -1.5 -65.3 -2.1 -63.2 -0.25 -63.2 2.15 -63.2 2.15 -65.65 1.55 -65.0 1.55 -63.8 -0.25 -63.2 -1.5 -63.8 -1.5 -65.3 -1.25 -66.25 -0.9 -66.25 -1.2 -66.4 -0.9 -67.45 -1.5 -67.45 -2.1 -67.45 -8.95 -69.7 -8.75 -74.0 -8.15 -74.1 -5.1 -74.1 -2.1 -72.9 0.35 -71.05 3.95 -72.9 10.0 -74.1 13.05 -72.9 13.65 -72.9 14.25 -62.0 14.25 -50.5 -0.9 -45.65 -14.2 -50.5 -13.6 -62.6 -11.75 -73.5 -12.95 -63.2 -12.95 -51.1 -8.75 -49.3 -9.15 -57.65 0.35 -60.2 6.4 -58.95 9.8 -57.85 9.4 -49.3 13.05 -50.5 13.65 -62.6 12.45 -72.9 11.85 -72.9 9.4 -73.5 9.55 -70.5 2.15 -68.05 1.55 -68.05 2.15 -67.45 1.55 -66.25 3.35 -66.85 9.75 -66.85 M9.65 -69.15 L9.75 -67.35 2.75 -66.85 9.65 -69.15 M0.95 -57.15 L-0.25 -57.75 -0.25 -57.15 0.95 -55.95 0.35 -54.75 0.95 -55.35 1.55 -56.55 0.95 -57.15 M-9.95 -73.8 L-11.15 -73.5 -11.75 -73.5 -9.95 -73.8 M-1.5 -67.45 L-1.5 -66.55 -2.1 -66.85 -1.5 -67.45 M-9.1 -66.85 L-9.0 -68.3 -2.7 -66.85 -9.1 -66.85" fill="#54acce" fill-rule="evenodd" stroke="none"/>
      <path d="M-3.35 -79.95 L0.95 -79.55 -10.55 -78.35 -10.55 -75.3 -11.75 -74.7 -12.35 -74.7 -12.35 -76.5 -11.75 -79.55 -11.1 -79.6 -5.1 -80.15 -3.35 -79.95" fill="#e3f2ea" fill-rule="evenodd" stroke="none"/>
      <path d="M9.75 -66.85 L11.2 -66.85 11.2 -67.45 9.75 -67.35 9.65 -69.15 10.0 -69.25 11.2 -71.05 9.55 -70.5 9.4 -73.5 11.85 -72.9 12.45 -72.9 13.65 -62.6 13.05 -50.5 9.4 -49.3 9.8 -57.85 11.85 -57.15 11.85 -55.35 12.45 -57.75 9.85 -58.55 9.75 -66.85" fill="#4575b4" fill-rule="evenodd" stroke="none"/>
      <path d="M-8.75 -74.0 L-8.95 -69.7 -11.15 -70.45 -10.55 -68.65 -9.0 -68.3 -9.1 -66.85 -11.15 -66.85 -11.15 -66.25 -9.1 -66.25 -9.15 -58.45 -11.15 -57.75 -10.55 -55.95 -9.95 -55.95 -10.55 -57.15 -9.15 -57.65 -8.75 -49.3 -12.95 -51.1 -12.95 -63.2 -11.75 -73.5 -11.15 -73.5 -9.95 -73.8 -8.75 -74.1 -8.75 -74.0" fill="#96d4d9" fill-rule="evenodd" stroke="none"/>
    </g>
    <g id="shape2" transform="matrix(1.0, 0.0, 0.0, 1.0, 50.45, 52.3)">
      <path d="M-14.5 29.0 L-23.85 29.0 -23.85 28.75 -24.45 28.75 -22.65 8.15 -27.5 2.7 -30.5 14.2 -28.1 27.5 -29.3 28.1 -29.3 31.15 -27.5 34.15 -26.9 34.15 -27.5 38.4 -25.95 39.95 -25.95 40.45 -32.95 46.85 -43.8 37.8 -40.8 32.95 -41.4 33.55 -42.0 29.35 -43.8 29.95 -50.45 -5.75 -46.85 -28.15 -47.45 -29.35 -19.5 -46.45 -20.25 -46.9 -17.8 -52.3 -17.2 -52.3 -0.25 -46.65 17.25 -52.3 17.85 -52.3 20.3 -46.9 19.35 -46.35 47.5 -29.35 46.9 -28.15 50.55 -5.75 43.9 29.95 42.05 29.35 41.45 33.55 40.25 32.95 43.3 37.8 33.0 46.85 24.55 40.2 26.35 38.4 25.15 34.15 25.75 34.15 29.35 31.15 29.35 28.1 28.15 27.5 30.6 14.2 27.55 2.7 21.5 8.15 22.7 28.75 22.1 28.75 22.1 29.0 13.35 29.0 22.1 28.1 21.5 24.5 20.3 7.55 42.65 -31.15 42.05 -31.15 26.95 -40.85 26.35 -32.35 19.1 -32.35 22.1 -28.75 0.95 -13.0 0.95 27.5 1.55 28.1 1.55 29.35 0.95 29.35 0.95 30.3 0.95 31.15 -3.3 31.15 -3.25 30.15 0.35 30.55 0.35 23.3 0.35 16.65 0.35 10.6 0.35 4.55 0.35 -2.1 0.35 -8.15 0.35 -12.4 -2.1 -13.6 -2.35 4.2 -1.5 3.35 -0.9 3.35 0.35 4.55 -0.25 5.15 -0.9 5.15 -2.1 5.15 -2.35 4.85 -2.45 10.35 -1.5 9.35 -0.9 9.35 0.35 10.6 -0.25 11.2 -0.9 11.2 -2.1 11.2 -2.45 10.85 -2.55 16.5 -2.1 16.05 -1.5 16.05 -2.1 16.65 -1.5 16.65 -1.5 17.85 -2.1 17.85 -2.55 16.9 -2.65 23.25 -1.5 22.1 -0.9 22.1 0.35 23.3 -0.25 23.9 -0.9 23.9 -2.1 23.9 -2.65 23.35 -2.7 26.3 -20.75 24.6 -3.3 25.7 -2.7 -14.2 -23.85 -28.75 -20.25 -32.35 -27.5 -32.35 -27.5 -40.85 -42.0 -31.15 -42.6 -31.15 -21.45 7.55 -22.65 24.5 -23.25 28.1 -14.5 29.0 M-0.9 23.9 L-0.25 23.3 -0.9 22.7 -2.1 23.3 -1.5 23.3 -0.9 23.9 M-0.9 11.2 L-0.25 10.6 -0.9 10.0 -2.1 10.6 -1.5 10.6 -0.9 11.2 M-0.9 5.15 L-0.25 4.55 -0.9 3.95 -2.1 4.55 -1.5 4.55 -0.9 5.15 M19.1 -29.95 L20.3 -29.95 20.3 -28.4 21.5 -29.35 17.25 -32.95 25.75 -32.95 25.75 -41.45 26.35 -41.45 25.15 -42.15 25.15 -42.05 25.75 -41.45 24.55 -40.2 23.3 -40.85 23.3 -42.05 24.45 -42.6 23.3 -43.25 22.7 -36.0 14.85 -34.15 16.05 -34.15 16.65 -34.15 17.25 -33.55 16.05 -32.35 15.65 -32.55 17.25 -29.35 0.35 -17.25 0.95 -13.6 19.95 -28.15 19.1 -28.15 19.1 -28.75 19.7 -28.75 19.1 -29.95 18.5 -28.75 19.1 -28.15 17.85 -28.15 17.85 -29.95 19.1 -29.95 M16.05 -34.15 L15.45 -33.55 16.05 -32.95 16.05 -33.55 16.65 -33.55 16.05 -34.15 M25.15 -41.45 L24.55 -42.05 23.9 -41.45 24.55 -40.85 24.55 -41.45 25.15 -41.45 M24.55 -35.4 L24.55 -34.15 23.3 -33.55 22.1 -34.8 23.3 -36.0 23.9 -36.0 24.55 -35.4 M23.3 -34.8 L23.9 -34.8 23.3 -35.4 22.7 -34.8 23.3 -34.15 23.3 -34.8 M22.1 -36.0 L22.7 -43.25 18.5 -45.65 1.55 -18.45 16.65 -29.35 14.25 -34.15 22.1 -36.0 M-0.25 -41.45 L0.95 -41.45 1.55 -40.2 0.95 -39.6 -0.25 -39.0 -1.5 -39.6 -2.1 -40.2 -1.5 -41.45 -0.25 -41.45 -1.5 -40.2 -0.9 -39.6 0.35 -39.6 0.35 -40.2 0.95 -40.2 -0.25 -41.45 M1.55 -37.2 L3.95 -39.6 -0.2 -44.75 -3.9 -39.6 -2.1 -37.2 1.55 -37.2 M5.8 -40.2 L6.4 -40.2 18.5 -47.5 16.65 -51.1 0.95 -45.65 5.8 -40.2 M4.35 -39.4 L2.15 -37.2 2.75 -37.2 6.6 -29.2 16.5 -44.75 5.15 -38.4 4.35 -39.4 M1.55 -29.95 L1.55 -28.15 -0.25 -27.5 -1.5 -28.15 -2.1 -29.35 -1.5 -29.95 -0.25 -30.55 0.35 -30.55 1.55 -29.95 M5.8 -28.15 L1.55 -36.6 -2.1 -36.6 -5.7 -28.15 -0.25 -17.85 5.8 -28.15 M0.95 -29.95 L-0.9 -29.95 -1.5 -29.35 -0.9 -28.15 0.95 -28.15 0.95 -29.95 M11.2 -22.1 L10.0 -22.7 10.0 -23.3 10.0 -23.9 11.2 -24.5 11.85 -24.5 11.85 -23.9 12.45 -23.3 11.2 -22.1 M11.85 -23.3 L11.2 -23.9 10.0 -23.3 11.2 -22.7 11.2 -23.3 11.85 -23.3 M25.15 -19.25 L26.95 -16.05 28.75 -16.05 28.75 -14.8 14.95 -17.3 14.85 -17.25 11.85 -17.85 14.95 -17.3 22.1 -21.45 22.7 -21.45 22.7 -20.85 23.9 -21.45 24.25 -20.85 25.15 -19.25 M2.75 -16.05 L3.95 -17.25 2.75 -17.85 2.15 -17.25 2.75 -17.25 2.75 -16.05 2.15 -16.05 1.55 -17.25 2.15 -17.85 2.75 -17.85 3.95 -17.85 3.95 -17.25 3.95 -16.05 2.75 -16.05 M-11.15 -21.45 L-11.55 -21.45 0.35 -13.0 0.35 -16.65 -6.7 -21.45 -2.1 -18.45 -16.4 -44.7 -18.15 -45.7 -23.25 -42.65 -23.25 -36.0 -15.4 -34.15 -18.4 -29.35 -16.6 -33.0 -17.2 -32.35 -18.4 -32.95 -19.0 -33.55 -18.4 -34.15 -17.2 -34.15 -16.6 -34.15 -16.2 -33.75 -16.0 -34.15 -23.85 -36.0 -24.45 -43.25 -27.5 -41.45 -26.9 -41.45 -26.9 -40.2 -26.9 -32.95 -18.4 -32.95 -22.65 -29.35 -22.0 -28.85 -21.45 -29.95 -20.85 -29.95 -21.45 -28.75 -20.85 -28.75 -20.85 -28.15 -20.95 -28.15 -12.2 -21.9 -12.35 -22.1 -11.75 -23.3 -11.15 -23.3 -11.75 -22.1 -11.15 -22.1 -11.15 -21.45 -9.95 -22.1 -11.15 -23.3 -9.95 -23.3 -9.95 -22.1 -9.95 -21.45 -11.15 -21.45 M-17.2 -34.15 L-18.4 -33.55 -17.8 -33.55 -17.2 -32.95 -16.6 -33.55 -17.2 -34.15 M34.8 -14.8 L35.4 -14.8 36.6 -14.2 37.25 -13.6 36.6 -12.4 34.8 -11.8 33.6 -12.4 33.1 -13.4 29.1 -5.9 29.95 -6.35 30.6 -6.35 31.8 -5.75 32.4 -4.55 31.8 -3.95 29.95 -3.35 28.75 -3.95 28.2 -4.5 20.9 7.55 31.2 -3.35 31.8 -3.35 46.9 -29.35 43.3 -31.15 37.5 -21.15 37.85 -21.45 39.65 -22.1 40.25 -22.1 41.45 -20.85 40.85 -19.65 39.65 -19.05 37.85 -19.65 37.3 -20.75 33.4 -14.0 33.6 -14.2 34.8 -14.8 33.6 -13.6 34.2 -12.4 36.0 -12.4 36.0 -13.6 36.6 -13.6 36.0 -14.2 34.8 -14.8 M38.45 -19.65 L40.25 -19.65 40.25 -20.85 40.85 -20.85 40.25 -21.45 38.45 -21.45 38.45 -19.65 M28.75 -5.15 L29.35 -3.95 31.2 -3.95 31.2 -5.75 29.35 -5.75 28.75 -5.15 M43.9 -29.35 L44.5 -29.35 45.1 -28.75 45.7 -27.5 45.1 -26.9 43.9 -26.3 42.05 -26.9 41.45 -27.5 42.05 -28.75 43.9 -29.35 M45.1 -27.5 L44.5 -28.75 42.65 -28.75 42.65 -26.9 44.5 -26.9 44.5 -27.5 45.1 -27.5 M49.35 -5.75 L46.3 -26.9 33.0 -3.35 27.55 2.1 31.2 14.8 29.35 23.3 43.9 25.1 49.35 -5.75 M40.25 26.3 L40.25 27.5 41.45 28.1 42.05 27.5 42.05 26.3 41.45 25.7 40.9 26.0 36.75 25.25 37.25 25.7 37.85 26.3 37.25 27.5 36.0 28.1 34.8 27.5 34.8 25.7 36.0 25.1 29.35 23.9 28.75 27.5 43.3 29.35 43.3 26.3 42.65 26.3 42.65 28.1 41.45 28.1 40.25 28.1 39.65 26.9 40.25 26.3 M37.25 25.7 L35.4 25.7 35.4 26.9 36.0 27.5 37.25 26.9 37.25 25.7 M31.2 24.5 L31.8 24.5 33.0 25.7 32.4 26.9 31.2 27.5 29.95 26.9 29.35 25.7 29.95 25.1 31.2 24.5 M40.85 32.35 L41.45 29.95 30.6 28.1 29.95 31.15 40.85 32.35 M19.1 25.7 L19.7 25.7 20.3 26.9 19.7 27.5 19.1 27.5 19.1 26.9 19.7 26.9 19.1 25.7 17.85 26.9 19.1 27.5 17.85 27.5 17.85 26.9 17.85 25.7 19.1 25.7 M11.85 28.1 L11.2 28.1 10.6 27.5 11.85 26.3 12.45 26.3 13.05 26.9 13.05 28.1 11.85 28.1 11.85 27.5 12.45 27.5 11.85 26.9 11.2 27.5 11.85 28.1 M4.55 27.5 L5.15 27.5 5.8 28.1 4.55 29.35 3.35 28.75 3.35 28.1 4.55 28.75 4.55 28.1 5.15 28.1 4.55 27.5 3.35 28.1 3.35 27.5 4.55 27.5 M31.8 25.1 L30.6 25.1 29.95 25.7 31.2 26.9 31.8 26.3 31.8 25.7 32.4 25.7 31.8 25.1 M39.65 32.95 L30.6 31.75 26.35 34.8 26.95 37.8 29.35 39.0 33.6 37.8 33.6 35.4 34.8 39.0 33.6 38.4 29.35 40.2 26.95 39.0 26.35 40.2 33.0 45.65 42.05 37.8 39.65 32.95 M-43.8 -29.35 L-42.6 -28.75 -42.0 -27.5 -42.6 -26.9 -43.8 -26.3 -45.05 -26.9 -45.65 -27.5 -45.05 -28.75 -44.4 -29.35 -43.8 -29.35 M-42.6 -26.9 L-42.6 -28.75 -44.4 -28.75 -45.05 -27.5 -44.4 -27.5 -44.4 -26.9 -42.6 -26.9 M-36.55 -14.8 L-35.95 -15.4 -35.35 -15.4 -34.25 -14.85 -40.2 -26.3 -43.2 -31.15 -46.85 -29.35 -31.7 -3.35 -31.1 -3.35 -22.05 7.55 -28.8 -4.9 -29.3 -3.95 -30.5 -3.95 -31.7 -3.95 -32.35 -5.15 -31.7 -6.35 -31.1 -6.95 -30.5 -6.95 -29.7 -6.55 -33.7 -13.9 -33.55 -13.6 -34.15 -12.4 -35.35 -11.8 -36.55 -12.4 -37.15 -13.6 -36.55 -14.8 -36.55 -13.0 -35.35 -12.4 -34.15 -13.6 -34.75 -14.8 -36.55 -14.8 M-40.8 -19.65 L-39.0 -19.65 -38.4 -20.85 -39.0 -21.45 -40.8 -21.45 -40.8 -19.65 -41.4 -20.85 -40.2 -22.1 -39.6 -22.1 -38.4 -21.45 -37.75 -20.85 -38.4 -19.65 -39.6 -19.05 -40.8 -19.65 M-30.5 -3.95 L-29.3 -4.55 -29.3 -6.35 -31.1 -6.35 -31.7 -5.15 -31.1 -5.15 -31.1 -4.55 -30.5 -3.95 M-49.85 -5.75 L-43.8 25.1 -29.3 23.3 -31.1 14.8 -27.5 2.1 -32.95 -3.35 -46.25 -26.9 -49.85 -5.75 M-5.7 -40.2 L-0.9 -45.65 -16.6 -51.1 -19.0 -47.5 -6.3 -40.2 -5.7 -40.2 M-5.1 -38.4 L-14.8 -43.85 -6.25 -29.25 -3.3 -36.6 -3.3 -36.9 -4.7 -38.95 -5.1 -38.4 M-20.85 -29.95 L-19.65 -29.95 -19.0 -28.75 -19.65 -28.15 -20.85 -28.15 -19.65 -28.75 -20.85 -29.95 M-24.45 -40.2 L-24.45 -39.6 -25.65 -39.0 -26.9 -40.2 -26.3 -40.85 -26.3 -41.45 -25.65 -41.45 -24.45 -40.85 -24.45 -40.2 -25.65 -40.85 -26.3 -40.2 -25.65 -40.2 -25.65 -39.6 -24.45 -40.2 M-23.85 -35.4 L-23.25 -34.8 -23.85 -34.15 -25.05 -33.55 -26.3 -34.8 -25.65 -35.4 -25.65 -36.0 -25.05 -36.0 -23.85 -35.4 M-23.85 -34.8 L-25.05 -35.4 -25.65 -34.8 -25.05 -34.8 -25.05 -34.15 -23.85 -34.8 M-2.1 -16.65 L-2.1 -16.05 -3.3 -16.05 -3.9 -16.05 -4.5 -16.65 -3.9 -17.85 -3.3 -17.85 -2.1 -17.85 -2.1 -16.65 -3.3 -17.85 -3.9 -16.65 -3.3 -16.65 -3.3 -16.05 -2.1 -16.65 M-0.9 -8.75 L-1.5 -8.15 -0.9 -8.15 -0.9 -7.55 -0.25 -8.15 -0.9 -8.75 -0.25 -8.75 0.35 -8.15 -0.9 -6.95 -2.1 -7.55 -2.1 -8.75 -0.9 -8.75 M-0.9 -2.7 L-0.25 -2.7 0.35 -2.1 -0.9 -0.9 -2.1 -1.5 -2.1 -2.1 -1.5 -2.1 -0.9 -1.5 -0.25 -2.1 -0.9 -2.7 -2.1 -2.1 -2.1 -2.7 -0.9 -2.7 M-1.5 16.05 L-0.25 16.05 0.35 16.65 -0.25 17.85 -1.5 17.85 -0.25 16.65 -1.5 16.05 M-31.1 24.5 L-29.9 25.1 -29.3 26.3 -29.3 23.9 -36.2 25.1 -35.95 25.1 -34.75 25.7 -34.75 26.9 -34.75 27.5 -35.95 28.1 -37.15 27.5 -37.75 26.9 -37.15 25.7 -36.65 25.15 -41.0 25.9 -40.2 26.3 -39.6 27.5 -40.2 28.1 -41.4 28.75 Q-42.0 28.4 -42.6 28.1 L-43.2 27.5 -42.6 26.3 -42.5 26.2 -43.2 26.3 -43.8 26.3 -43.2 29.35 -29.3 27.5 -29.3 26.3 -29.9 26.9 -31.1 27.5 -32.35 26.9 -32.95 26.3 -32.35 25.1 -31.7 24.5 -31.1 24.5 M-20.85 27.5 L-20.25 26.9 -20.85 26.3 -22.05 26.9 -21.45 26.9 -20.85 27.5 -22.05 27.5 -22.05 26.9 -22.05 26.3 -21.45 25.7 -20.85 25.7 -19.65 26.9 -20.25 27.5 -20.85 27.5 M-34.75 26.9 L-35.35 25.7 -37.15 25.7 -37.15 27.5 -35.35 27.5 -34.75 26.9 M-30.5 25.1 L-31.7 25.1 -32.35 25.7 -31.7 25.7 -31.7 26.9 -30.5 26.9 -29.9 25.7 -30.5 25.1 M-39.6 32.95 L-42.6 37.8 -33.55 45.65 -27.5 40.2 -27.5 39.0 -29.9 40.2 -34.15 38.4 -35.35 39.0 -34.15 35.4 -33.55 37.8 -29.3 39.0 -27.5 37.8 -27.5 34.8 -31.1 31.75 -39.6 32.95 M-30.5 28.1 L-41.4 29.95 -40.8 32.35 -29.9 31.15 -30.5 28.1 M-2.7 28.1 L-2.7 27.5 -2.1 27.5 -0.9 28.1 -0.25 28.75 -0.9 29.35 -2.1 29.35 -2.7 29.35 -3.3 28.75 -2.7 28.1 M-2.1 29.35 L-0.9 28.75 -2.1 28.1 -2.7 28.75 -2.1 28.75 -2.1 29.35 M-9.35 26.9 L-8.75 26.9 -7.55 27.5 -7.55 28.1 -7.55 28.75 -8.75 28.75 -9.35 28.75 -9.95 28.1 -9.35 27.5 -9.35 26.9 M-8.75 28.75 L-7.55 28.1 -8.75 27.5 -9.35 28.1 -8.75 28.1 -8.75 28.75 M-13.6 27.5 L-14.2 28.1 -15.4 28.1 -16.0 28.1 -16.6 27.5 -16.0 26.9 -16.0 26.3 -15.4 26.3 -14.2 26.9 -13.6 27.5 M-15.4 27.5 L-15.4 28.1 -14.2 27.5 -15.4 26.9 -16.0 27.5 -15.4 27.5 M-40.8 26.3 L-42.0 26.3 -42.6 27.5 -42.0 27.5 -42.0 28.1 -40.8 28.1 -40.2 27.5 -40.8 26.3" fill="#0f0b0b" fill-rule="evenodd" stroke="none"/>
      <path d="M-0.9 23.9 L-1.5 23.3 -2.1 23.3 -0.9 22.7 -0.25 23.3 -0.9 23.9 M-1.5 17.85 L-1.5 16.65 -2.1 16.65 -1.5 16.05 -0.25 16.65 -1.5 17.85 M-0.9 11.2 L-1.5 10.6 -2.1 10.6 -0.9 10.0 -0.25 10.6 -0.9 11.2 M-0.9 5.15 L-1.5 4.55 -2.1 4.55 -0.9 3.95 -0.25 4.55 -0.9 5.15 M19.1 -29.95 L19.7 -28.75 19.1 -28.75 19.1 -28.15 18.5 -28.75 19.1 -29.95 M16.05 -34.15 L16.65 -33.55 16.05 -33.55 16.05 -32.95 15.45 -33.55 16.05 -34.15 M25.15 -41.45 L24.55 -41.45 24.55 -40.85 23.9 -41.45 24.55 -42.05 25.15 -41.45 M23.3 -34.8 L23.3 -34.15 22.7 -34.8 23.3 -35.4 23.9 -34.8 23.3 -34.8 M-0.25 -41.45 L0.95 -40.2 0.35 -40.2 0.35 -39.6 -0.9 -39.6 -1.5 -40.2 -0.25 -41.45 M4.35 -39.4 L5.15 -38.4 16.5 -44.75 6.6 -29.2 2.75 -37.2 2.15 -37.2 4.35 -39.4 M5.8 -40.2 L0.95 -45.65 16.65 -51.1 18.5 -47.5 6.4 -40.2 5.8 -40.2 M0.95 -29.95 L0.95 -28.15 -0.9 -28.15 -1.5 -29.35 -0.9 -29.95 0.95 -29.95 M11.85 -23.3 L11.2 -23.3 11.2 -22.7 10.0 -23.3 11.2 -23.9 11.85 -23.3 M24.25 -20.85 L24.55 -20.85 25.15 -19.25 24.25 -20.85 M2.75 -16.05 L2.75 -17.25 2.15 -17.25 2.75 -17.85 3.95 -17.25 2.75 -16.05 M-11.15 -21.45 L-11.15 -22.1 -11.75 -22.1 -11.15 -23.3 -9.95 -22.1 -11.15 -21.45 M-20.85 -28.15 L-20.85 -28.75 -21.45 -28.75 -20.85 -29.95 -19.65 -28.75 -20.85 -28.15 M-17.2 -34.15 L-16.6 -33.55 -17.2 -32.95 -17.8 -33.55 -18.4 -33.55 -17.2 -34.15 M34.8 -14.8 L36.0 -14.2 36.6 -13.6 36.0 -13.6 36.0 -12.4 34.2 -12.4 33.6 -13.6 34.8 -14.8 M28.75 -5.15 L29.35 -5.75 31.2 -5.75 31.2 -3.95 29.35 -3.95 28.75 -5.15 M38.45 -19.65 L38.45 -21.45 40.25 -21.45 40.85 -20.85 40.25 -20.85 40.25 -19.65 38.45 -19.65 M45.1 -27.5 L44.5 -27.5 44.5 -26.9 42.65 -26.9 42.65 -28.75 44.5 -28.75 45.1 -27.5 M40.9 26.0 L41.45 25.7 42.05 26.3 42.05 27.5 41.45 28.1 40.25 27.5 40.25 26.3 40.9 26.0 M37.25 25.7 L37.25 26.9 36.0 27.5 35.4 26.9 35.4 25.7 37.25 25.7 M5.8 13.6 L5.15 13.0 17.25 14.15 5.8 13.6 M19.1 25.7 L19.7 26.9 19.1 26.9 19.1 27.5 17.85 26.9 19.1 25.7 M11.85 28.1 L11.2 27.5 11.85 26.9 12.45 27.5 11.85 27.5 11.85 28.1 M4.55 27.5 L5.15 28.1 4.55 28.1 4.55 28.75 3.35 28.1 4.55 27.5 M31.8 25.1 L32.4 25.7 31.8 25.7 31.8 26.3 31.2 26.9 29.95 25.7 30.6 25.1 31.8 25.1 M-42.6 -26.9 L-44.4 -26.9 -44.4 -27.5 -45.05 -27.5 -44.4 -28.75 -42.6 -28.75 -42.6 -26.9 M-36.55 -14.8 L-34.75 -14.8 -34.15 -13.6 -35.35 -12.4 -36.55 -13.0 -36.55 -14.8 M-30.5 -3.95 L-31.1 -4.55 -31.1 -5.15 -31.7 -5.15 -31.1 -6.35 -29.3 -6.35 -29.3 -4.55 -30.5 -3.95 M-40.8 -19.65 L-40.8 -21.45 -39.0 -21.45 -38.4 -20.85 -39.0 -19.65 -40.8 -19.65 M-5.1 -38.4 L-4.7 -38.95 -3.3 -36.9 -3.3 -36.6 -6.25 -29.25 -14.8 -43.85 -5.1 -38.4 M-5.7 -40.2 L-6.3 -40.2 -19.0 -47.5 -16.6 -51.1 -0.9 -45.65 -5.7 -40.2 M-24.45 -40.2 L-25.65 -39.6 -25.65 -40.2 -26.3 -40.2 -25.65 -40.85 -24.45 -40.2 M-23.85 -34.8 L-25.05 -34.15 -25.05 -34.8 -25.65 -34.8 -25.05 -35.4 -23.85 -34.8 M-2.1 -16.65 L-3.3 -16.05 -3.3 -16.65 -3.9 -16.65 -3.3 -17.85 -2.1 -16.65 M-0.9 -8.75 L-0.25 -8.15 -0.9 -7.55 -0.9 -8.15 -1.5 -8.15 -0.9 -8.75 M-0.9 -2.7 L-0.25 -2.1 -0.9 -1.5 -1.5 -2.1 -2.1 -2.1 -0.9 -2.7 M-6.3 13.0 L-6.9 13.6 -18.4 14.15 -6.3 13.0 M-20.85 27.5 L-21.45 26.9 -22.05 26.9 -20.85 26.3 -20.25 26.9 -20.85 27.5 M-30.5 25.1 L-29.9 25.7 -30.5 26.9 -31.7 26.9 -31.7 25.7 -32.35 25.7 -31.7 25.1 -30.5 25.1 M-34.75 26.9 L-35.35 27.5 -37.15 27.5 -37.15 25.7 -35.35 25.7 -34.75 26.9 M-2.1 29.35 L-2.1 28.75 -2.7 28.75 -2.1 28.1 -0.9 28.75 -2.1 29.35 M-8.75 28.75 L-8.75 28.1 -9.35 28.1 -8.75 27.5 -7.55 28.1 -8.75 28.75 M-15.4 27.5 L-16.0 27.5 -15.4 26.9 -14.2 27.5 -15.4 28.1 -15.4 27.5 M-40.8 26.3 L-40.2 27.5 -40.8 28.1 -42.0 28.1 -42.0 27.5 -42.6 27.5 -42.0 26.3 -40.8 26.3" fill="#844747" fill-rule="evenodd" stroke="none"/>
      <path d="M-0.25 -41.45 L-1.5 -41.45 -2.1 -40.2 -1.5 -39.6 -0.25 -39.0 0.95 -39.6 1.55 -40.2 0.95 -41.45 -0.25 -41.45 M1.55 -37.2 L-2.1 -37.2 -3.9 -39.6 -0.2 -44.75 3.95 -39.6 1.55 -37.2 M5.8 -28.15 L-0.25 -17.85 -5.7 -28.15 -2.1 -36.6 1.55 -36.6 5.8 -28.15 M1.55 -29.95 L0.35 -30.55 -0.25 -30.55 -1.5 -29.95 -2.1 -29.35 -1.5 -28.15 -0.25 -27.5 1.55 -28.15 1.55 -29.95" fill="#2f1916" fill-rule="evenodd" stroke="none"/>
      <path d="M-14.5 29.0 L-23.25 28.1 -22.65 24.5 -21.45 7.55 -42.6 -31.15 -42.0 -31.15 -27.5 -40.85 -27.5 -32.35 -20.25 -32.35 -23.85 -28.75 -2.7 -14.2 -3.3 25.7 -20.75 24.6 -2.7 26.3 -2.65 23.35 -2.1 23.9 -0.9 23.9 -0.25 23.9 0.35 23.3 -0.9 22.1 -1.5 22.1 -2.65 23.25 -2.55 16.9 -2.1 17.85 -1.5 17.85 -0.25 17.85 0.35 16.65 -0.25 16.05 -1.5 16.05 -2.1 16.05 -2.55 16.5 -2.45 10.85 -2.1 11.2 -0.9 11.2 -0.25 11.2 0.35 10.6 -0.9 9.35 -1.5 9.35 -2.45 10.35 -2.35 4.85 -2.1 5.15 -0.9 5.15 -0.25 5.15 0.35 4.55 -0.9 3.35 -1.5 3.35 -2.35 4.2 -2.1 -13.6 0.35 -12.4 0.35 -8.15 0.35 -2.1 0.35 4.55 0.35 10.6 0.35 16.65 0.35 23.3 0.35 30.55 -3.25 30.15 -14.5 29.0 M0.95 30.3 L0.95 29.35 1.55 29.35 1.55 28.1 0.95 27.5 0.95 -13.0 22.1 -28.75 19.1 -32.35 26.35 -32.35 26.95 -40.85 42.05 -31.15 42.65 -31.15 20.3 7.55 21.5 24.5 22.1 28.1 13.35 29.0 0.95 30.3 M16.05 -34.15 L14.85 -34.15 22.7 -36.0 23.3 -43.25 24.45 -42.6 23.3 -42.05 23.3 -40.85 24.55 -40.2 25.75 -41.45 25.15 -42.05 25.15 -42.15 26.35 -41.45 25.75 -41.45 25.75 -32.95 17.25 -32.95 21.5 -29.35 20.3 -28.4 20.3 -29.95 19.1 -29.95 17.85 -29.95 17.85 -28.15 19.1 -28.15 19.95 -28.15 0.95 -13.6 0.35 -17.25 17.25 -29.35 15.65 -32.55 16.05 -32.35 17.25 -33.55 16.65 -34.15 16.05 -34.15 M24.55 -35.4 L23.9 -36.0 23.3 -36.0 22.1 -34.8 23.3 -33.55 24.55 -34.15 24.55 -35.4 M22.1 -36.0 L14.25 -34.15 16.65 -29.35 1.55 -18.45 18.5 -45.65 22.7 -43.25 22.1 -36.0 M11.2 -22.1 L12.45 -23.3 11.85 -23.9 11.85 -24.5 11.2 -24.5 10.0 -23.9 10.0 -23.3 10.0 -22.7 11.2 -22.1 M24.25 -20.85 L23.9 -21.45 22.7 -20.85 22.7 -21.45 22.1 -21.45 14.95 -17.3 11.85 -17.85 14.85 -17.25 14.95 -17.3 28.75 -14.8 28.75 -16.05 26.95 -16.05 25.15 -19.25 24.55 -20.85 24.25 -20.85 M2.75 -16.05 L3.95 -16.05 3.95 -17.25 3.95 -17.85 2.75 -17.85 2.15 -17.85 1.55 -17.25 2.15 -16.05 2.75 -16.05 M-17.2 -34.15 L-18.4 -34.15 -19.0 -33.55 -18.4 -32.95 -17.2 -32.35 -16.6 -33.0 -18.4 -29.35 -15.4 -34.15 -23.25 -36.0 -23.25 -42.65 -18.15 -45.7 -16.4 -44.7 -2.1 -18.45 -6.7 -21.45 0.35 -16.65 0.35 -13.0 -11.55 -21.45 -11.15 -21.45 -9.95 -21.45 -9.95 -22.1 -9.95 -23.3 -11.15 -23.3 -11.75 -23.3 -12.35 -22.1 -12.2 -21.9 -20.95 -28.15 -20.85 -28.15 -19.65 -28.15 -19.0 -28.75 -19.65 -29.95 -20.85 -29.95 -21.45 -29.95 -22.0 -28.85 -22.65 -29.35 -18.4 -32.95 -26.9 -32.95 -26.9 -40.2 -26.9 -41.45 -27.5 -41.45 -24.45 -43.25 -23.85 -36.0 -16.0 -34.15 -16.2 -33.75 -16.6 -34.15 -17.2 -34.15 M34.8 -14.8 L33.6 -14.2 33.4 -14.0 37.3 -20.75 37.85 -19.65 39.65 -19.05 40.85 -19.65 41.45 -20.85 40.25 -22.1 39.65 -22.1 37.85 -21.45 37.5 -21.15 43.3 -31.15 46.9 -29.35 31.8 -3.35 31.2 -3.35 20.9 7.55 28.2 -4.5 28.75 -3.95 29.95 -3.35 31.8 -3.95 32.4 -4.55 31.8 -5.75 30.6 -6.35 29.95 -6.35 29.1 -5.9 33.1 -13.4 33.6 -12.4 34.8 -11.8 36.6 -12.4 37.25 -13.6 36.6 -14.2 35.4 -14.8 34.8 -14.8 M43.9 -29.35 L42.05 -28.75 41.45 -27.5 42.05 -26.9 43.9 -26.3 45.1 -26.9 45.7 -27.5 45.1 -28.75 44.5 -29.35 43.9 -29.35 M49.35 -5.75 L43.9 25.1 29.35 23.3 31.2 14.8 27.55 2.1 33.0 -3.35 46.3 -26.9 49.35 -5.75 M40.9 26.0 L40.25 26.3 39.65 26.9 40.25 28.1 41.45 28.1 42.65 28.1 42.65 26.3 43.3 26.3 43.3 29.35 28.75 27.5 29.35 23.9 36.0 25.1 34.8 25.7 34.8 27.5 36.0 28.1 37.25 27.5 37.85 26.3 37.25 25.7 36.75 25.25 40.9 26.0 M40.85 32.35 L29.95 31.15 30.6 28.1 41.45 29.95 40.85 32.35 M31.2 24.5 L29.95 25.1 29.35 25.7 29.95 26.9 31.2 27.5 32.4 26.9 33.0 25.7 31.8 24.5 31.2 24.5 M5.8 13.6 L17.25 14.15 5.15 13.0 5.8 13.6 M19.1 27.5 L19.7 27.5 20.3 26.9 19.7 25.7 19.1 25.7 17.85 25.7 17.85 26.9 17.85 27.5 19.1 27.5 M11.85 28.1 L13.05 28.1 13.05 26.9 12.45 26.3 11.85 26.3 10.6 27.5 11.2 28.1 11.85 28.1 M3.35 28.1 L3.35 28.75 4.55 29.35 5.8 28.1 5.15 27.5 4.55 27.5 3.35 27.5 3.35 28.1 M-43.8 -29.35 L-44.4 -29.35 -45.05 -28.75 -45.65 -27.5 -45.05 -26.9 -43.8 -26.3 -42.6 -26.9 -42.0 -27.5 -42.6 -28.75 -43.8 -29.35 M-30.5 -3.95 L-29.3 -3.95 -28.8 -4.9 -22.05 7.55 -31.1 -3.35 -31.7 -3.35 -46.85 -29.35 -43.2 -31.15 -40.2 -26.3 -34.25 -14.85 -35.35 -15.4 -35.95 -15.4 -36.55 -14.8 -37.15 -13.6 -36.55 -12.4 -35.35 -11.8 -34.15 -12.4 -33.55 -13.6 -33.7 -13.9 -29.7 -6.55 -30.5 -6.95 -31.1 -6.95 -31.7 -6.35 -32.35 -5.15 -31.7 -3.95 -30.5 -3.95 M-40.8 -19.65 L-39.6 -19.05 -38.4 -19.65 -37.75 -20.85 -38.4 -21.45 -39.6 -22.1 -40.2 -22.1 -41.4 -20.85 -40.8 -19.65 M-49.85 -5.75 L-46.25 -26.9 -32.95 -3.35 -27.5 2.1 -31.1 14.8 -29.3 23.3 -43.8 25.1 -49.85 -5.75 M-24.45 -40.2 L-24.45 -40.85 -25.65 -41.45 -26.3 -41.45 -26.3 -40.85 -26.9 -40.2 -25.65 -39.0 -24.45 -39.6 -24.45 -40.2 M-23.85 -35.4 L-25.05 -36.0 -25.65 -36.0 -25.65 -35.4 -26.3 -34.8 -25.05 -33.55 -23.85 -34.15 -23.25 -34.8 -23.85 -35.4 M-2.1 -16.65 L-2.1 -17.85 -3.3 -17.85 -3.9 -17.85 -4.5 -16.65 -3.9 -16.05 -3.3 -16.05 -2.1 -16.05 -2.1 -16.65 M-0.9 -8.75 L-2.1 -8.75 -2.1 -7.55 -0.9 -6.95 0.35 -8.15 -0.25 -8.75 -0.9 -8.75 M-2.1 -2.1 L-2.1 -1.5 -0.9 -0.9 0.35 -2.1 -0.25 -2.7 -0.9 -2.7 -2.1 -2.7 -2.1 -2.1 M-6.3 13.0 L-18.4 14.15 -6.9 13.6 -6.3 13.0 M-31.1 24.5 L-31.7 24.5 -32.35 25.1 -32.95 26.3 -32.35 26.9 -31.1 27.5 -29.9 26.9 -29.3 26.3 -29.3 27.5 -43.2 29.35 -43.8 26.3 -43.2 26.3 -42.5 26.2 -42.6 26.3 -43.2 27.5 -42.6 28.1 Q-42.0 28.4 -41.4 28.75 L-40.2 28.1 -39.6 27.5 -40.2 26.3 -41.0 25.9 -36.65 25.15 -37.15 25.7 -37.75 26.9 -37.15 27.5 -35.95 28.1 -34.75 27.5 -34.75 26.9 -34.75 25.7 -35.95 25.1 -36.2 25.1 -29.3 23.9 -29.3 26.3 -29.9 25.1 -31.1 24.5 M-20.85 27.5 L-20.25 27.5 -19.65 26.9 -20.85 25.7 -21.45 25.7 -22.05 26.3 -22.05 26.9 -22.05 27.5 -20.85 27.5 M-2.7 28.1 L-3.3 28.75 -2.7 29.35 -2.1 29.35 -0.9 29.35 -0.25 28.75 -0.9 28.1 -2.1 27.5 -2.7 27.5 -2.7 28.1 M-30.5 28.1 L-29.9 31.15 -40.8 32.35 -41.4 29.95 -30.5 28.1 M-9.35 26.9 L-9.35 27.5 -9.95 28.1 -9.35 28.75 -8.75 28.75 -7.55 28.75 -7.55 28.1 -7.55 27.5 -8.75 26.9 -9.35 26.9 M-13.6 27.5 L-14.2 26.9 -15.4 26.3 -16.0 26.3 -16.0 26.9 -16.6 27.5 -16.0 28.1 -15.4 28.1 -14.2 28.1 -13.6 27.5" fill="#1d1211" fill-rule="evenodd" stroke="none"/>
      <path d="M39.65 32.95 L42.05 37.8 33.0 45.65 26.35 40.2 26.95 39.0 29.35 40.2 33.6 38.4 34.8 39.0 33.6 35.4 33.6 37.8 29.35 39.0 26.95 37.8 26.35 34.8 30.6 31.75 39.65 32.95 M-39.6 32.95 L-31.1 31.75 -27.5 34.8 -27.5 37.8 -29.3 39.0 -33.55 37.8 -34.15 35.4 -35.35 39.0 -34.15 38.4 -29.9 40.2 -27.5 39.0 -27.5 40.2 -33.55 45.65 -42.6 37.8 -39.6 32.95" fill="#54acce" fill-rule="evenodd" stroke="none"/>
    </g>
    <g id="shape3" transform="matrix(1.0, 0.0, 0.0, 1.0, 0.6, 0.8)">
      <path d="M84.75 36.95 Q83.45 38.05 80.0 39.65 76.55 41.35 75.25 42.4 73.1 44.25 73.1 46.8 73.1 51.5 78.85 54.95 83.5 57.8 89.65 58.7 91.9 59.05 94.5 58.8 L103.05 57.95 Q105.4 58.15 107.55 59.2 L113.65 61.95 Q116.25 63.6 116.25 67.0 116.25 70.9 113.75 72.0 L109.4 72.5 102.05 70.8 Q97.1 69.75 95.15 72.5 94.1 74.05 94.9 74.95 L97.3 76.4 Q99.05 77.4 99.5 78.6 100.2 80.3 98.8 83.05 96.3 88.1 92.7 85.0 L90.25 82.3 Q89.05 80.75 88.7 80.75 86.1 80.75 85.25 82.1 84.6 83.15 84.6 86.15 L84.6 94.65 Q84.6 97.3 82.9 99.35 81.15 101.45 78.6 101.45 75.1 101.45 72.5 98.55 70.95 96.85 68.5 92.25 66.1 87.65 64.55 85.95 61.95 83.05 58.4 83.05 51.95 83.05 47.45 87.5 44.4 90.5 40.65 97.8 L34.0 109.45 Q29.55 115.55 23.55 117.95 L21.7 117.5 21.25 115.75 Q21.25 110.6 24.15 105.9 25.85 103.1 30.45 98.15 35.0 93.25 36.75 90.4 39.6 85.7 39.6 80.55 39.6 75.4 37.0 71.6 34.05 67.45 29.5 67.45 27.5 67.45 25.45 68.25 L22.05 69.95 Q19.85 71.25 18.65 71.75 16.65 72.5 14.6 72.5 10.65 72.5 7.75 70.3 4.7 67.9 4.7 64.25 4.7 60.35 7.35 57.5 10.05 54.6 13.9 54.6 L22.15 55.95 Q24.9 55.95 26.9 54.5 29.05 52.95 29.05 50.45 29.05 45.75 24.55 43.05 21.85 41.45 14.6 39.45 7.35 37.45 4.65 35.85 0.15 33.15 0.15 28.45 0.15 26.25 2.2 24.95 4.0 23.85 6.55 23.85 9.2 23.85 11.75 24.95 L16.1 27.3 Q18.85 29.05 20.4 29.65 23.0 30.75 25.6 30.75 27.55 30.75 28.55 30.0 29.35 29.4 29.7 28.05 L30.25 25.15 Q30.65 23.1 31.35 21.55 32.8 18.3 34.4 17.85 L35.6 17.75 36.75 17.9 Q37.75 17.9 39.3 18.8 40.85 19.7 41.9 19.7 43.75 19.7 45.1 18.5 46.45 17.25 46.45 15.5 L46.45 7.0 Q46.45 5.55 48.0 4.75 49.3 4.1 51.05 4.1 55.9 4.1 59.25 7.85 62.55 11.5 62.55 16.5 62.55 18.7 61.8 20.85 L60.05 24.5 Q58.8 26.9 58.3 28.2 57.5 30.4 57.5 32.55 57.5 34.15 58.55 35.2 59.65 36.25 61.15 36.25 63.9 36.25 66.3 34.45 67.7 33.4 70.1 30.5 72.55 27.65 73.95 26.55 76.3 24.75 79.1 24.75 82.25 24.75 84.6 27.05 86.9 29.4 86.9 32.55 86.9 35.15 84.75 36.95" fill="#ffe689" fill-rule="evenodd" stroke="none"/>
      <path d="M84.75 36.95 Q83.45 38.05 80.0 39.65 76.55 41.35 75.25 42.4 73.1 44.25 73.1 46.8 73.1 51.5 78.85 54.95 83.5 57.8 89.65 58.7 91.9 59.05 94.5 58.8 L103.05 57.95 Q105.4 58.15 107.55 59.2 L113.65 61.95 Q116.25 63.6 116.25 67.0 116.25 70.9 113.75 72.0 L109.4 72.5 102.05 70.8 Q97.1 69.75 95.15 72.5 94.1 74.05 94.9 74.95 L97.3 76.4 Q99.05 77.4 99.5 78.6 100.2 80.3 98.8 83.05 96.3 88.1 92.7 85.0 L90.25 82.3 Q89.05 80.75 88.7 80.75 86.1 80.75 85.25 82.1 84.6 83.15 84.6 86.15 L84.6 94.65 Q84.6 97.3 82.9 99.35 81.15 101.45 78.6 101.45 75.1 101.45 72.5 98.55 70.95 96.85 68.5 92.25 66.1 87.65 64.55 85.95 61.95 83.05 58.4 83.05 51.95 83.05 47.45 87.5 44.4 90.5 40.65 97.8 L34.0 109.45 Q29.55 115.55 23.55 117.95 L21.7 117.5 21.25 115.75 Q21.25 110.6 24.15 105.9 25.85 103.1 30.45 98.15 35.0 93.25 36.75 90.4 39.6 85.7 39.6 80.55 39.6 75.4 37.0 71.6 34.05 67.45 29.5 67.45 27.5 67.45 25.45 68.25 L22.05 69.95 Q19.85 71.25 18.65 71.75 16.65 72.5 14.6 72.5 10.65 72.5 7.75 70.3 4.7 67.9 4.7 64.25 4.7 60.35 7.35 57.5 10.05 54.6 13.9 54.6 L22.15 55.95 Q24.9 55.95 26.9 54.5 29.05 52.95 29.05 50.45 29.05 45.75 24.55 43.05 21.85 41.45 14.6 39.45 7.35 37.45 4.65 35.85 0.15 33.15 0.15 28.45 0.15 26.25 2.2 24.95 4.0 23.85 6.55 23.85 9.2 23.85 11.75 24.95 L16.1 27.3 Q18.85 29.05 20.4 29.65 23.0 30.75 25.6 30.75 27.55 30.75 28.55 30.0 29.35 29.4 29.7 28.05 L30.25 25.15 Q30.65 23.1 31.35 21.55 32.8 18.3 34.4 17.85 L35.6 17.75 36.75 17.9 Q37.75 17.9 39.3 18.8 40.85 19.7 41.9 19.7 43.75 19.7 45.1 18.5 46.45 17.25 46.45 15.5 L46.45 7.0 Q46.45 5.55 48.0 4.75 49.3 4.1 51.05 4.1 55.9 4.1 59.25 7.85 62.55 11.5 62.55 16.5 62.55 18.7 61.8 20.85 L60.05 24.5 Q58.8 26.9 58.3 28.2 57.5 30.4 57.5 32.55 57.5 34.15 58.55 35.2 59.65 36.25 61.15 36.25 63.9 36.25 66.3 34.45 67.7 33.4 70.1 30.5 72.55 27.65 73.95 26.55 76.3 24.75 79.1 24.75 82.25 24.75 84.6 27.05 86.9 29.4 86.9 32.55 86.9 35.15 84.75 36.95 Z" fill="none" stroke="#ffce27" stroke-linecap="round" stroke-linejoin="round" stroke-width="1.5"/>
      <path d="M52.9 106.25 Q52.9 109.95 54.4 112.55 55.9 115.2 57.95 115.2 60.05 115.2 61.55 112.55 63.0 109.95 63.0 106.25 63.0 102.55 61.55 99.9 60.05 97.3 57.95 97.3 55.9 97.3 54.4 99.9 52.9 102.55 52.9 106.25" fill="#ffe689" fill-rule="evenodd" stroke="none"/>
      <path d="M52.9 106.25 Q52.9 102.55 54.4 99.9 55.9 97.3 57.95 97.3 60.05 97.3 61.55 99.9 63.0 102.55 63.0 106.25 63.0 109.95 61.55 112.55 60.05 115.2 57.95 115.2 55.9 115.2 54.4 112.55 52.9 109.95 52.9 106.25 Z" fill="none" stroke="#ffce27" stroke-linecap="round" stroke-linejoin="round" stroke-width="1.5"/>
      <path d="M81.45 8.45 Q83.05 5.75 83.3 3.3 83.5 0.9 82.25 0.2 81.0 -0.5 79.05 0.85 77.1 2.3 75.5 5.0 73.8 8.0 72.75 12.0 71.65 16.35 72.8 17.0 73.95 17.65 77.0 14.45 79.65 11.6 81.45 8.45" fill="#ffe689" fill-rule="evenodd" stroke="none"/>
      <path d="M81.45 8.45 Q79.65 11.6 77.0 14.45 73.95 17.65 72.8 17.0 71.65 16.35 72.75 12.0 73.8 8.0 75.5 5.0 77.1 2.3 79.05 0.85 81.0 -0.5 82.25 0.2 83.5 0.9 83.3 3.3 83.05 5.75 81.45 8.45 Z" fill="none" stroke="#ffce27" stroke-linecap="round" stroke-linejoin="round" stroke-width="1.5"/>
      <path d="M5.85 28.85 L7.0 26.15 5.15 26.6 3.95 28.35 Q3.35 29.25 3.35 30.25 3.35 30.8 3.95 31.25 L4.7 32.1 4.9 31.95 Q5.15 32.1 5.15 31.65 5.15 30.3 5.85 28.85" fill="#ffffff" fill-rule="evenodd" stroke="none"/>
      <path d="M33.6 24.75 L33.15 26.6 Q32.7 27.95 32.7 28.45 32.7 28.95 33.4 29.25 34.4 29.65 34.55 29.8 34.55 27.65 35.4 25.55 L37.3 21.55 35.45 21.1 Q34.35 23.05 33.6 24.75" fill="#ffffff" fill-rule="evenodd" stroke="none"/>
      <path d="M48.25 11.55 Q48.15 13.55 48.75 15.1 49.4 16.55 49.9 13.9 L50.6 9.15 50.15 7.3 48.3 7.8 48.25 11.55" fill="#ffffff" fill-rule="evenodd" stroke="none"/>
      <path d="M71.25 33.5 Q73.8 31.85 75.15 31.25 76.8 30.5 79.55 29.8 L77.7 28.45 Q75.6 28.9 74.0 30.25 72.95 31.2 71.25 33.5" fill="#ffffff" fill-rule="evenodd" stroke="none"/>
      <path d="M12.95 60.1 L12.5 59.2 Q12.05 58.65 12.05 58.25 10.25 59.1 9.35 59.9 8.2 60.85 7.45 62.4 L8.35 65.95 Q8.3 65.55 8.95 65.2 9.75 64.8 9.75 64.25 9.75 63.2 11.35 62.15 12.95 61.15 12.95 60.1" fill="#ffffff" fill-rule="evenodd" stroke="none"/>
      <path d="M40.05 62.4 L38.6 63.85 Q37.75 64.7 37.75 65.6 37.75 67.0 38.7 68.15 L40.75 70.05 42.8 71.9 Q43.7 73.1 43.7 74.45 L43.25 78.0 Q45.5 76.8 49.35 76.35 L55.65 75.25 Q53.95 74.4 51.0 73.6 L46.4 72.3 Q44.0 71.45 42.85 70.3 41.45 68.9 41.45 66.65 L41.65 64.3 41.9 61.95 40.05 62.4" fill="#ffffff" fill-rule="evenodd" stroke="none"/>
      <path d="M23.55 113.85 L26.2 109.4 Q27.8 106.85 28.1 104.65 L26.3 106.0 24.45 109.85 Q23.7 111.7 23.55 113.85" fill="#ffffff" fill-rule="evenodd" stroke="none"/>
      <path d="M54.75 106.0 L58.4 104.2 56.55 100.5 Q55.15 103.4 54.75 106.0" fill="#ffffff" fill-rule="evenodd" stroke="none"/>
      <path d="M75.65 84.9 L76.3 82.6 Q76.3 82.15 75.9 81.65 L75.4 80.75 74.1 82.9 72.75 84.75 Q71.25 86.9 71.25 89.05 71.25 89.7 71.6 90.45 L72.2 91.8 Q72.8 91.85 74.7 92.55 76.5 93.25 77.25 93.15 L77.7 91.35 Q77.4 90.65 75.95 89.3 74.95 88.3 74.95 87.2 74.95 86.3 75.65 84.9" fill="#ffffff" fill-rule="evenodd" stroke="none"/>
      <path d="M81.1 66.6 L85.5 63.75 83.65 64.25 77.95 63.4 Q75.15 62.65 73.1 60.55 73.2 61.55 72.9 64.0 72.6 66.45 72.65 67.45 L74.45 67.75 76.2 67.9 Q78.7 67.9 81.1 66.6" fill="#ffffff" fill-rule="evenodd" stroke="none"/>
      <path d="M56.55 17.9 Q55.1 22.35 51.7 27.9 47.95 34.1 46.45 37.6 47.3 38.05 49.4 38.35 51.05 38.65 52.0 39.45 52.8 40.15 53.2 41.5 L53.75 43.9 Q54.05 45.35 54.45 45.95 55.05 46.8 56.1 46.8 57.8 46.8 58.85 45.35 59.8 44.05 59.8 42.2 59.8 40.6 58.95 39.05 L57.05 36.45 55.15 33.95 Q54.3 32.4 54.3 30.75 54.3 27.8 55.45 24.3 56.55 20.8 56.55 17.9" fill="#ffb64b" fill-rule="evenodd" stroke="none"/>
      <path d="M68.95 47.7 Q69.2 44.95 70.65 42.9 71.8 41.25 74.1 39.6 L78.45 36.7 Q81.15 34.85 82.75 33.0 81.05 34.15 78.1 35.4 74.1 37.1 73.45 37.45 71.05 38.6 69.9 40.0 68.5 41.7 68.5 44.15 L68.95 47.7" fill="#ffb64b" fill-rule="evenodd" stroke="none"/>
      <path d="M66.2 83.5 L65.75 81.7 Q63.7 77.8 58.85 77.1 53.2 77.7 50.05 78.85 45.3 80.6 47.4 83.05 48.15 84.0 51.9 82.55 57.1 80.55 58.85 80.3 62.45 81.1 66.2 83.5" fill="#ffb64b" fill-rule="evenodd" stroke="none"/>
      <path d="M81.85 97.05 L82.5 88.65 Q82.35 90.1 81.1 92.1 L78.65 95.4 Q77.25 97.2 77.1 97.9 76.85 98.9 78.4 98.9 L79.4 98.9 80.3 98.85 Q81.25 98.55 81.85 97.05" fill="#ffb64b" fill-rule="evenodd" stroke="none"/>
      <path d="M107.75 67.85 L102.95 68.35 106.15 69.65 109.5 70.2 111.05 70.05 112.6 69.75 112.85 68.85 113.05 67.9 Q113.05 67.45 112.65 66.95 L112.15 66.05 Q109.8 67.35 107.75 67.85" fill="#ffb64b" fill-rule="evenodd" stroke="none"/>
      <path d="M56.55 112.45 L59.6 112.5 Q60.7 112.15 60.7 110.6 L60.25 105.1 59.8 106.95 56.55 112.45" fill="#ffb64b" fill-rule="evenodd" stroke="none"/>
      <path d="M29.7 64.0 Q28.05 63.75 25.75 62.55 23.75 61.5 21.7 61.5 20.35 61.5 19.6 62.45 19.05 63.15 18.6 64.75 L17.75 67.45 Q17.1 68.9 15.95 69.5 L20.35 67.9 24.2 66.3 Q28.65 64.55 32.7 64.25 L29.7 64.0" fill="#ffb64b" fill-rule="evenodd" stroke="none"/>
      <path d="M22.8 36.7 Q19.85 34.15 16.8 34.15 L11.35 34.3 15.85 36.0 19.95 37.4 Q24.55 39.05 27.45 41.95 24.9 38.45 22.8 36.7" fill="#ffb64b" fill-rule="evenodd" stroke="none"/>
    </g>
  </defs>
</svg>
