<?xml version="1.0" encoding="UTF-8" standalone="no"?>
<svg xmlns:xlink="http://www.w3.org/1999/xlink" height="1180.9px" width="479.35px" xmlns="http://www.w3.org/2000/svg">
  <g transform="matrix(1.0, 0.0, 0.0, 1.0, 174.55, 605.1)">
    <use height="575.8" transform="matrix(1.0, 0.0, 0.0, 1.0, -115.55, -208.05)" width="231.05" xlink:href="#shape0"/>
    <use height="129.6" transform="matrix(1.0, 0.0, 0.0, 1.0, -174.55, -330.05)" width="351.0" xlink:href="#shape1"/>
  </g>
  <defs>
    <g id="shape0" transform="matrix(1.0, 0.0, 0.0, 1.0, 0.0, 0.0)">
      <path d="M167.6 179.9 Q169.2 179.8 169.3 177.95 169.2 176.15 167.6 175.95 166.05 176.15 165.85 177.95 166.05 179.8 167.6 179.9 M167.6 180.8 Q165.05 180.45 164.95 177.95 165.05 175.4 167.6 175.05 170.1 175.4 170.2 177.95 170.1 180.45 167.6 180.8 M164.15 169.0 L161.8 193.5 142.2 198.7 149.3 215.45 118.25 254.35 117.8 262.8 118.1 263.25 159.5 215.45 148.85 202.75 Q148.15 203.4 146.95 203.6 144.45 203.2 144.35 200.7 144.45 198.2 146.95 197.8 149.5 198.2 149.6 200.7 149.6 201.8 149.15 202.4 L169.4 202.4 171.0 174.5 164.15 169.0 M146.8 143.0 L149.5 141.5 155.0 157.25 153.65 158.4 223.9 214.85 222.3 218.35 231.05 292.6 214.55 409.4 210.8 408.85 209.15 421.4 206.35 420.85 214.0 436.7 187.75 466.75 166.95 444.85 170.8 437.75 169.2 423.65 179.0 414.9 178.75 403.65 175.25 402.85 181.15 358.65 174.05 320.4 159.3 338.4 162.65 406.45 160.9 407.0 150.55 556.2 161.45 562.75 160.4 575.8 113.75 574.85 70.65 575.8 69.5 562.7 80.45 556.1 69.5 407.15 67.6 406.35 71.75 338.4 56.95 320.4 49.75 358.55 55.8 402.75 52.3 403.55 52.0 414.8 61.85 423.55 60.2 437.65 64.1 444.8 43.2 466.65 17.0 436.6 24.65 420.75 21.9 421.4 20.25 408.8 16.4 409.3 0.0 292.5 8.75 218.25 7.1 214.75 78.75 158.95 77.15 157.5 82.6 141.75 85.4 143.3 89.1 145.25 90.0 145.7 93.25 147.5 93.5 147.6 103.25 152.8 115.85 159.65 Q126.8 153.7 137.9 147.8 138.5 147.4 139.05 147.15 L140.6 146.35 144.8 144.0 146.8 143.0 M63.45 179.9 Q65.05 179.8 65.15 177.95 65.05 176.15 63.45 175.95 61.9 176.15 61.75 177.95 61.9 179.8 63.45 179.9 M63.45 180.8 Q60.95 180.45 60.85 177.95 60.95 175.4 63.45 175.05 65.95 175.4 66.05 177.95 65.95 180.45 63.45 180.8 M70.2 192.6 L90.2 198.25 83.05 215.55 112.25 250.0 89.1 168.05 81.55 161.35 68.4 168.05 70.2 192.6 M66.85 169.0 L60.05 174.5 61.55 202.4 81.9 202.4 81.8 201.7 Q81.9 199.15 84.4 198.8 86.95 199.15 87.05 201.7 86.95 204.2 84.4 204.55 82.6 204.3 82.1 202.95 L71.55 215.45 117.2 269.8 116.0 257.05 111.7 251.8 111.6 251.75 81.7 215.45 88.85 198.7 69.2 193.5 66.85 169.0 M112.95 179.45 Q113.15 182.15 115.55 182.35 117.9 182.15 118.1 179.45 117.9 176.85 115.55 176.6 113.15 176.85 112.95 179.45 M115.55 175.3 Q119.25 175.85 119.45 179.45 119.25 183.15 115.55 183.6 111.8 183.15 111.6 179.45 111.8 175.85 115.55 175.3 M103.95 181.6 L104.2 181.25 92.8 171.25 103.7 209.15 108.9 190.6 109.0 190.1 103.95 181.6 M111.6 189.0 L120.6 188.8 124.9 181.25 115.65 164.8 107.1 181.55 111.6 189.0 M116.0 190.9 L111.6 191.0 Q107.8 205.0 106.65 210.8 105.5 216.45 105.1 216.7 105.05 217.6 107.55 226.35 L112.7 243.55 115.55 252.7 128.7 219.4 120.8 191.0 116.0 190.9 M112.85 161.1 L84.15 145.6 80.3 156.7 104.05 177.5 112.85 161.1 M128.05 177.2 L151.85 156.4 147.95 145.35 119.25 160.85 128.05 177.2 M127.9 181.0 L128.05 181.35 123.3 189.45 130.3 216.1 148.6 162.9 127.9 181.0 M146.95 202.6 Q148.6 202.5 148.7 200.6 148.6 198.8 146.95 198.65 145.45 198.8 145.25 200.6 145.45 202.5 146.95 202.6 M152.65 213.65 Q155.15 214.0 155.25 216.55 155.15 219.05 152.65 219.4 150.1 219.05 150.05 216.55 150.1 214.0 152.65 213.65 M152.65 214.55 Q151.1 214.75 150.95 216.55 151.1 218.45 152.65 218.5 154.25 218.45 154.35 216.55 154.25 214.75 152.65 214.55 M153.8 204.65 L161.45 216.7 118.8 265.6 119.7 395.0 119.9 397.35 158.75 391.3 155.95 337.3 211.3 208.55 172.45 177.4 171.9 204.65 153.8 204.65 M141.1 233.45 Q141.05 231.65 139.4 231.5 137.9 231.65 137.7 233.45 137.9 235.35 139.4 235.45 141.05 235.35 141.1 233.45 M147.85 215.55 L140.85 198.35 160.85 192.7 162.65 168.05 152.65 161.35 120.4 250.0 147.85 215.55 M139.4 236.35 Q136.9 236.0 136.8 233.45 136.9 230.95 139.4 230.6 141.95 230.95 142.0 233.45 141.95 236.0 139.4 236.35 M116.55 219.15 Q112.15 218.5 111.95 214.3 112.15 210.05 116.55 209.45 120.85 210.05 121.15 214.3 120.85 218.5 116.55 219.15 M116.45 210.85 Q113.75 211.15 113.5 214.3 113.75 217.35 116.45 217.6 119.25 217.35 119.5 214.3 119.25 211.15 116.45 210.85 M84.4 199.6 Q82.9 199.8 82.7 201.6 82.9 203.5 84.4 203.6 86.05 203.5 86.15 201.6 86.05 199.8 84.4 199.6 M95.2 234.55 Q95.15 237.05 92.6 237.4 90.1 237.05 90.0 234.55 90.1 232.0 92.6 231.65 95.15 232.0 95.2 234.55 M106.0 252.0 Q106.2 253.9 107.75 254.0 109.35 253.9 109.45 252.0 109.35 250.2 107.75 250.0 106.2 250.2 106.0 252.0 M94.3 234.45 Q94.25 232.65 92.6 232.45 91.1 232.65 90.9 234.45 91.1 236.35 92.6 236.45 94.25 236.35 94.3 234.45 M107.75 249.2 Q110.25 249.55 110.35 252.1 110.25 254.6 107.75 254.95 105.2 254.6 105.1 252.1 105.2 249.55 107.75 249.2 M117.45 281.8 L117.45 272.6 112.25 265.85 110.05 398.5 71.75 393.05 70.65 405.1 117.7 413.2 117.55 325.0 Q117.1 327.15 114.75 327.4 111.95 327.05 111.85 324.25 111.95 321.5 114.75 321.1 117.1 321.4 117.55 323.55 L117.55 305.45 Q116.9 307.15 114.85 307.45 112.05 307.1 111.95 304.3 112.05 301.5 114.85 301.15 116.9 301.4 117.55 303.1 L117.45 285.55 Q116.75 286.65 115.1 286.85 112.3 286.45 112.25 283.7 112.3 280.9 115.1 280.55 116.75 280.7 117.45 281.8 M115.1 281.5 Q113.4 281.7 113.2 283.7 113.4 285.75 115.1 285.95 116.8 285.75 117.0 283.7 116.8 281.7 115.1 281.5 M124.3 248.5 Q126.8 248.85 126.9 251.35 126.8 253.9 124.3 254.25 121.75 253.9 121.7 251.35 121.75 248.85 124.3 248.5 M142.2 254.5 L145.15 255.05 162.45 240.95 164.05 243.55 167.2 240.95 175.05 257.65 179.3 258.2 178.2 261.9 142.2 254.5 M126.0 251.35 Q125.9 249.55 124.3 249.4 122.75 249.55 122.6 251.35 122.75 253.25 124.3 253.35 125.9 253.25 126.0 251.35 M162.0 243.65 L161.9 243.55 147.8 254.5 170.35 257.15 163.55 246.15 163.2 245.55 162.0 243.55 162.0 243.65 M64.0 198.0 Q64.1 195.5 66.6 195.1 69.1 195.5 69.2 198.0 69.1 200.5 66.6 200.9 64.1 200.5 64.0 198.0 M64.9 198.0 Q65.05 199.9 66.6 200.0 68.2 199.9 68.3 198.0 68.2 196.2 66.6 196.0 65.05 196.2 64.9 198.0 M78.4 213.65 Q80.9 214.0 81.0 216.55 80.9 219.05 78.4 219.4 75.85 219.05 75.8 216.55 75.85 214.0 78.4 213.65 M76.7 216.55 Q76.85 218.45 78.4 218.5 80.0 218.45 80.1 216.55 80.0 214.75 78.4 214.55 76.85 214.75 76.7 216.55 M77.2 204.65 L59.15 204.65 58.6 177.4 19.7 208.55 74.95 337.3 72.25 391.3 108.35 395.75 110.0 265.25 69.5 216.7 77.2 204.65 M17.45 209.45 L9.1 214.85 19.8 239.4 36.1 276.65 43.3 293.2 43.2 292.4 Q43.4 287.65 47.6 286.9 51.95 287.65 52.1 292.4 51.95 297.2 47.6 297.9 45.7 297.55 44.65 296.45 L46.6 301.3 72.9 335.7 52.0 290.45 44.2 270.9 Q37.0 252.65 28.9 233.35 20.7 214.0 17.45 209.45 M16.65 213.3 Q21.0 214.0 21.15 218.8 21.0 223.55 16.65 224.3 12.45 223.55 12.25 218.8 12.45 214.0 16.65 213.3 M30.25 242.35 Q30.0 238.95 27.35 238.6 24.65 238.95 24.4 242.35 24.65 245.9 27.35 246.25 30.0 245.9 30.25 242.35 M16.75 214.9 Q14.05 215.3 13.8 218.7 14.05 222.2 16.75 222.55 19.35 222.2 19.65 218.7 19.35 215.3 16.75 214.9 M27.3 236.95 Q31.6 237.7 31.8 242.45 31.6 247.25 27.3 247.95 23.05 247.25 22.85 242.45 23.05 237.7 27.3 236.95 M35.9 258.85 Q40.25 259.55 40.4 264.35 40.25 269.1 35.9 269.8 31.7 269.1 31.5 264.35 31.7 259.55 35.9 258.85 M44.75 292.05 Q45.0 295.55 47.7 295.9 50.3 295.55 50.6 292.05 50.3 288.65 47.7 288.25 45.0 288.65 44.75 292.05 M36.0 260.2 Q33.3 260.55 33.05 263.95 33.3 267.5 36.0 267.85 38.6 267.5 38.9 263.95 38.6 260.55 36.0 260.2 M2.25 293.15 L16.5 395.2 52.0 389.25 47.8 360.55 47.8 360.1 56.45 318.25 43.3 300.8 10.45 223.85 2.25 293.15 M116.45 344.5 Q116.3 342.55 114.55 342.35 112.85 342.55 112.7 344.5 112.85 346.6 114.55 346.75 116.3 346.6 116.45 344.5 M114.75 326.5 Q116.45 326.35 116.65 324.25 116.45 322.3 114.75 322.1 113.05 322.3 112.85 324.25 113.05 326.35 114.75 326.5 M116.75 304.2 Q116.55 302.2 114.85 302.05 113.15 302.2 112.95 304.2 113.15 306.25 114.85 306.45 116.55 306.25 116.75 304.2 M117.45 344.6 Q117.35 347.4 114.55 347.75 111.8 347.4 111.7 344.6 111.8 341.8 114.55 341.45 117.35 341.8 117.45 344.6 M112.7 364.85 Q112.85 366.95 114.55 367.1 116.3 366.95 116.45 364.85 116.3 362.9 114.55 362.7 112.85 362.9 112.7 364.85 M114.55 361.7 Q117.35 362.05 117.45 364.85 117.35 367.65 114.55 368.0 111.8 367.65 111.7 364.85 111.8 362.05 114.55 361.7 M100.9 355.15 L100.35 357.2 79.85 357.75 100.9 355.15 M111.7 385.2 Q111.8 382.4 114.55 382.05 117.35 382.4 117.45 385.2 117.35 388.0 114.55 388.35 111.8 388.0 111.7 385.2 M114.55 387.45 Q116.3 387.25 116.45 385.2 116.3 383.2 114.55 383.05 112.85 383.2 112.7 385.2 112.85 387.25 114.55 387.45 M130.75 357.2 L130.25 355.15 151.3 357.75 130.75 357.2 M214.3 213.3 Q218.6 214.0 218.8 218.8 218.6 223.55 214.3 224.3 210.05 223.55 209.9 218.8 210.05 214.0 214.3 213.3 M213.55 209.45 Q210.35 214.0 202.25 233.35 194.15 252.65 186.85 270.9 L179.0 290.45 158.2 335.7 184.5 301.3 186.55 296.3 Q185.4 297.55 183.35 297.9 179.1 297.2 178.9 292.4 179.1 287.65 183.35 286.9 187.65 287.65 187.85 292.4 L187.75 293.5 194.95 276.65 211.3 239.4 222.05 214.85 213.55 209.45 M214.4 222.55 Q217.0 222.2 217.25 218.7 217.0 215.3 214.4 214.9 211.7 215.3 211.4 218.7 211.7 222.2 214.4 222.55 M203.65 236.95 Q208.0 237.7 208.15 242.45 208.0 247.25 203.65 247.95 199.45 247.25 199.25 242.45 199.45 237.7 203.65 236.95 M203.75 238.6 Q201.05 238.95 200.8 242.35 201.05 245.9 203.75 246.25 206.35 245.9 206.65 242.35 206.35 238.95 203.75 238.6 M164.45 200.0 Q166.05 199.9 166.15 198.0 166.05 196.2 164.45 196.0 162.9 196.2 162.7 198.0 162.9 199.9 164.45 200.0 M167.05 198.0 Q166.95 200.5 164.45 200.9 161.9 200.5 161.8 198.0 161.9 195.5 164.45 195.1 166.95 195.5 167.05 198.0 M166.7 243.45 L164.5 245.15 171.35 257.2 172.9 257.75 172.9 257.65 173.0 257.65 167.2 243.0 166.7 243.45 M192.4 263.7 Q192.7 267.2 195.3 267.55 198.0 267.2 198.25 263.7 198.0 260.3 195.3 259.9 192.7 260.3 192.4 263.7 M195.3 269.45 Q191.05 268.75 190.9 263.95 191.05 259.2 195.3 258.5 199.6 259.2 199.8 263.95 199.6 268.75 195.3 269.45 M186.3 292.05 Q186.05 288.65 183.4 288.25 180.7 288.65 180.45 292.05 180.7 295.55 183.4 295.9 186.05 295.55 186.3 292.05 M208.7 405.9 Q205.2 405.35 205.0 401.4 205.2 397.35 208.7 396.8 212.2 397.35 212.4 401.4 212.2 405.35 208.7 405.9 M212.65 407.45 L214.0 397.35 179.3 390.5 177.95 401.4 212.65 407.45 M228.8 293.15 L220.6 223.85 187.75 300.8 174.6 318.25 183.25 360.1 183.25 360.55 179.0 389.25 214.55 395.2 228.8 293.15 M208.7 398.0 Q206.45 398.25 206.3 401.15 206.45 404.1 208.7 404.35 210.95 404.0 211.15 401.15 210.95 398.25 208.7 398.0 M207.45 418.7 L208.55 409.7 181.15 404.45 180.65 414.25 207.45 418.7 M210.85 436.3 L203.65 421.1 182.5 416.8 171.0 426.8 173.05 436.7 178.9 439.3 189.35 435.7 Q190.25 432.35 189.9 428.85 191.05 434.95 193.05 440.9 192.35 439.3 189.9 437.75 L179.35 444.05 172.6 439.3 171.0 444.05 180.45 453.95 188.35 461.9 199.8 449.1 Q206.3 441.9 210.85 436.3 M185.5 396.7 Q185.3 393.85 183.05 393.55 180.8 393.85 180.65 396.7 180.8 399.7 183.05 399.95 185.3 399.6 185.5 396.7 M186.75 397.1 Q186.55 401.05 183.05 401.6 179.55 401.05 179.35 397.1 179.55 393.05 183.05 392.5 186.55 393.05 186.75 397.1 M197.75 398.95 Q197.55 396.1 195.3 395.8 193.05 396.1 192.85 398.95 193.05 401.95 195.3 402.2 197.55 401.85 197.75 398.95 M199.0 399.25 Q198.8 403.2 195.3 403.75 191.8 403.2 191.6 399.25 191.8 395.2 195.3 394.65 198.8 395.2 199.0 399.25 M152.45 399.5 Q152.65 401.6 154.35 401.75 156.05 401.6 156.25 399.5 156.05 397.55 154.35 397.35 152.65 397.55 152.45 399.5 M142.65 398.15 Q145.35 398.5 145.55 401.3 145.45 404.1 142.65 404.45 139.85 404.1 139.75 401.3 139.85 398.5 142.65 398.15 M154.35 396.35 Q157.15 396.7 157.25 399.5 157.15 402.3 154.35 402.65 151.55 402.3 151.45 399.5 151.55 396.7 154.35 396.35 M144.55 401.3 Q144.35 399.35 142.65 399.15 140.95 399.35 140.75 401.3 140.95 403.4 142.65 403.55 144.35 403.4 144.55 401.3 M131.6 406.7 Q128.8 406.35 128.7 403.55 128.8 400.75 131.6 400.4 134.35 400.75 134.45 403.55 134.35 406.35 131.6 406.7 M131.6 401.3 Q129.85 401.5 129.7 403.45 129.85 405.55 131.6 405.7 133.3 405.55 133.45 403.45 133.3 401.5 131.6 401.3 M112.75 405.45 Q112.95 407.5 114.65 407.7 116.35 407.5 116.55 405.45 116.35 403.45 114.65 403.3 112.95 403.45 112.75 405.45 M114.65 402.3 Q117.35 402.65 117.55 405.45 117.35 408.25 114.65 408.6 111.85 408.25 111.8 405.45 111.85 402.65 114.65 402.3 M119.9 406.35 L119.95 405.45 119.8 404.65 119.9 406.35 M119.8 402.95 Q120.85 403.65 120.95 405.45 120.85 407.15 119.9 407.95 L119.9 412.1 160.4 405.0 159.3 393.05 119.8 398.9 119.8 402.95 M100.9 400.4 Q103.7 400.75 103.75 403.55 103.6 406.35 100.9 406.7 98.1 406.35 98.0 403.55 98.1 400.75 100.9 400.4 M99.0 403.45 Q99.2 405.55 100.9 405.7 102.6 405.55 102.8 403.45 102.6 401.5 100.9 401.3 99.2 401.5 99.0 403.45 M86.05 401.05 Q86.15 398.25 88.9 397.9 91.7 398.25 91.8 401.05 91.6 403.85 88.9 404.2 86.15 403.85 86.05 401.05 M88.9 403.3 Q90.65 403.1 90.8 401.05 90.65 399.05 88.9 398.9 87.2 399.05 87.05 401.05 87.2 403.1 88.9 403.3 M117.2 416.45 L116.65 536.5 Q133.0 533.8 148.95 537.05 L159.85 408.25 117.2 416.45 M78.55 398.9 Q78.4 396.9 76.7 396.7 74.95 396.9 74.8 398.9 74.95 400.95 76.7 401.15 78.4 400.95 78.55 398.9 M76.7 402.05 Q73.9 401.65 73.8 398.9 73.9 396.1 76.7 395.75 79.45 396.1 79.55 398.9 79.45 401.65 76.7 402.05 M49.85 404.45 L22.5 409.7 23.6 418.7 50.4 414.25 49.85 404.45 M45.55 396.7 Q45.7 399.6 47.95 399.95 50.2 399.7 50.4 396.7 50.2 393.85 47.95 393.55 45.7 393.85 45.55 396.7 M44.3 397.1 Q44.45 393.05 47.95 392.5 51.5 393.05 51.65 397.1 51.5 401.05 47.95 401.6 44.45 401.05 44.3 397.1 M52.1 439.3 L57.85 436.7 59.95 426.8 48.4 416.8 27.35 421.1 20.1 436.3 Q24.75 441.9 31.15 449.1 L42.65 461.9 50.5 453.95 59.95 444.05 58.4 439.3 51.55 444.05 41.05 437.75 Q38.6 439.3 37.9 440.9 39.9 434.95 41.05 428.85 40.8 432.35 41.6 435.7 L52.1 439.3 M33.3 398.95 Q33.5 401.85 35.75 402.2 38.0 401.95 38.15 398.95 38.0 396.1 35.75 395.8 33.5 396.1 33.3 398.95 M35.75 403.75 Q32.25 403.2 32.05 399.25 32.25 395.2 35.75 394.65 39.25 395.2 39.45 399.25 39.25 403.2 35.75 403.75 M24.75 401.15 Q24.6 398.25 22.35 398.0 20.1 398.25 19.9 401.15 20.1 404.0 22.35 404.35 24.6 404.1 24.75 401.15 M26.0 401.4 Q25.85 405.35 22.35 405.9 18.8 405.35 18.65 401.4 18.8 397.35 22.35 396.8 25.85 397.35 26.0 401.4 M18.35 407.45 L53.1 401.4 51.75 390.5 17.0 397.35 18.35 407.45 M71.75 568.15 L113.6 566.45 113.6 562.85 99.9 549.1 71.2 563.85 71.75 568.15 M72.0 569.7 L72.0 572.75 113.5 571.25 113.3 568.1 72.0 569.7 M131.05 538.45 Q128.8 538.75 128.6 541.6 128.8 544.6 131.05 544.85 133.3 544.5 133.45 541.6 133.3 538.75 131.05 538.45 M134.75 541.9 Q134.55 545.4 131.75 546.3 L148.3 555.4 148.3 539.3 Q140.65 536.95 133.45 536.95 126.2 536.95 116.75 539.0 L116.2 560.15 130.4 546.3 Q127.55 545.5 127.35 541.9 127.55 537.85 131.05 537.3 134.55 537.85 134.75 541.9 M98.9 538.45 Q96.65 538.75 96.5 541.6 96.65 544.5 98.9 544.85 101.15 544.6 101.35 541.6 101.15 538.75 98.9 538.45 M116.45 563.05 L116.45 566.8 159.3 568.15 159.85 563.85 131.15 549.1 116.45 563.05 M82.15 537.05 Q98.0 533.8 114.4 536.5 L113.85 416.45 71.2 408.25 82.15 537.05 M113.4 538.75 Q103.95 536.65 97.1 536.85 90.25 536.95 82.7 539.3 L82.7 555.4 Q91.1 550.8 99.55 546.3 L98.9 546.4 Q95.4 545.85 95.2 541.9 95.4 537.85 98.9 537.3 102.4 537.85 102.6 541.9 102.4 544.95 100.35 545.95 L113.75 560.35 113.4 538.75 M105.5 546.05 Q105.65 548.9 107.9 549.25 110.15 549.0 110.35 546.05 110.15 543.15 107.9 542.9 105.65 543.15 105.5 546.05 M104.2 546.3 Q104.4 542.25 107.9 541.7 111.4 542.25 111.6 546.3 111.4 550.25 107.9 550.8 104.4 550.25 104.2 546.3 M83.15 544.95 Q83.35 540.9 86.85 540.35 90.35 540.9 90.55 544.95 90.35 548.9 86.85 549.45 83.35 548.9 83.15 544.95 M84.4 544.7 Q84.6 547.55 86.85 547.9 89.1 547.65 89.3 544.7 89.1 541.8 86.85 541.55 84.6 541.8 84.4 544.7 M116.35 571.5 L159.1 572.75 159.55 569.35 116.35 568.35 116.35 571.5 M145.55 544.7 Q145.35 541.8 143.1 541.55 140.85 541.8 140.65 544.7 140.85 547.65 143.1 547.9 145.35 547.55 145.55 544.7 M146.8 544.95 Q146.6 548.9 143.1 549.45 139.6 548.9 139.4 544.95 139.6 540.9 143.1 540.35 146.6 540.9 146.8 544.95 M124.4 546.05 Q124.2 543.15 121.95 542.9 119.7 543.15 119.5 546.05 119.7 549.0 121.95 549.25 124.2 548.9 124.4 546.05 M125.65 546.3 Q125.45 550.25 121.95 550.8 118.45 550.25 118.25 546.3 118.45 542.25 121.95 541.7 125.45 542.25 125.65 546.3" fill="#291214" fill-rule="evenodd" stroke="none"/>
      <path d="M167.6 179.9 Q166.05 179.8 165.85 177.95 166.05 176.15 167.6 175.95 169.2 176.15 169.3 177.95 169.2 179.8 167.6 179.9 M63.45 179.9 Q61.9 179.8 61.75 177.95 61.9 176.15 63.45 175.95 65.05 176.15 65.15 177.95 65.05 179.8 63.45 179.9 M112.95 179.45 Q113.15 176.85 115.55 176.6 117.9 176.85 118.1 179.45 117.9 182.15 115.55 182.35 113.15 182.15 112.95 179.45 M103.95 181.6 L109.0 190.1 108.9 190.6 103.7 209.15 92.8 171.25 104.2 181.25 103.95 181.6 M112.85 161.1 L104.05 177.5 80.3 156.7 84.15 145.6 112.85 161.1 M127.9 181.0 L148.6 162.9 130.3 216.1 123.3 189.45 128.05 181.35 127.9 181.0 M128.05 177.2 L119.25 160.85 147.95 145.35 151.85 156.4 128.05 177.2 M146.95 202.6 Q145.45 202.5 145.25 200.6 145.45 198.8 146.95 198.65 148.6 198.8 148.7 200.6 148.6 202.5 146.95 202.6 M152.65 214.55 Q154.25 214.75 154.35 216.55 154.25 218.45 152.65 218.5 151.1 218.45 150.95 216.55 151.1 214.75 152.65 214.55 M141.1 233.45 Q141.05 235.35 139.4 235.45 137.9 235.35 137.7 233.45 137.9 231.65 139.4 231.5 141.05 231.65 141.1 233.45 M116.45 210.85 Q119.25 211.15 119.5 214.3 119.25 217.35 116.45 217.6 113.75 217.35 113.5 214.3 113.75 211.15 116.45 210.85 M84.4 199.6 Q86.05 199.8 86.15 201.6 86.05 203.5 84.4 203.6 82.9 203.5 82.7 201.6 82.9 199.8 84.4 199.6 M94.3 234.45 Q94.25 236.35 92.6 236.45 91.1 236.35 90.9 234.45 91.1 232.65 92.6 232.45 94.25 232.65 94.3 234.45 M106.0 252.0 Q106.2 250.2 107.75 250.0 109.35 250.2 109.45 252.0 109.35 253.9 107.75 254.0 106.2 253.9 106.0 252.0 M115.1 281.5 Q116.8 281.7 117.0 283.7 116.8 285.75 115.1 285.95 113.4 285.75 113.2 283.7 113.4 281.7 115.1 281.5 M126.0 251.35 Q125.9 253.25 124.3 253.35 122.75 253.25 122.6 251.35 122.75 249.55 124.3 249.4 125.9 249.55 126.0 251.35 M162.0 243.65 L162.0 243.55 163.2 245.55 162.0 243.65 M64.9 198.0 Q65.05 196.2 66.6 196.0 68.2 196.2 68.3 198.0 68.2 199.9 66.6 200.0 65.05 199.9 64.9 198.0 M76.7 216.55 Q76.85 214.75 78.4 214.55 80.0 214.75 80.1 216.55 80.0 218.45 78.4 218.5 76.85 218.45 76.7 216.55 M16.75 214.9 Q19.35 215.3 19.65 218.7 19.35 222.2 16.75 222.55 14.05 222.2 13.8 218.7 14.05 215.3 16.75 214.9 M30.25 242.35 Q30.0 245.9 27.35 246.25 24.65 245.9 24.4 242.35 24.65 238.95 27.35 238.6 30.0 238.95 30.25 242.35 M36.0 260.2 Q38.6 260.55 38.9 263.95 38.6 267.5 36.0 267.85 33.3 267.5 33.05 263.95 33.3 260.55 36.0 260.2 M44.75 292.05 Q45.0 288.65 47.7 288.25 50.3 288.65 50.6 292.05 50.3 295.55 47.7 295.9 45.0 295.55 44.75 292.05 M116.75 304.2 Q116.55 306.25 114.85 306.45 113.15 306.25 112.95 304.2 113.15 302.2 114.85 302.05 116.55 302.2 116.75 304.2 M114.75 326.5 Q113.05 326.35 112.85 324.25 113.05 322.3 114.75 322.1 116.45 322.3 116.65 324.25 116.45 326.35 114.75 326.5 M116.45 344.5 Q116.3 346.6 114.55 346.75 112.85 346.6 112.7 344.5 112.85 342.55 114.55 342.35 116.3 342.55 116.45 344.5 M112.7 364.85 Q112.85 362.9 114.55 362.7 116.3 362.9 116.45 364.85 116.3 366.95 114.55 367.1 112.85 366.95 112.7 364.85 M114.55 387.45 Q112.85 387.25 112.7 385.2 112.85 383.2 114.55 383.05 116.3 383.2 116.45 385.2 116.3 387.25 114.55 387.45 M214.4 222.55 Q211.7 222.2 211.4 218.7 211.7 215.3 214.4 214.9 217.0 215.3 217.25 218.7 217.0 222.2 214.4 222.55 M164.45 200.0 Q162.9 199.9 162.7 198.0 162.9 196.2 164.45 196.0 166.05 196.2 166.15 198.0 166.05 199.9 164.45 200.0 M203.75 238.6 Q206.35 238.95 206.65 242.35 206.35 245.9 203.75 246.25 201.05 245.9 200.8 242.35 201.05 238.95 203.75 238.6 M172.9 257.65 L172.9 257.75 171.35 257.2 164.5 245.15 166.7 243.45 167.15 243.1 172.9 257.65 M192.4 263.7 Q192.7 260.3 195.3 259.9 198.0 260.3 198.25 263.7 198.0 267.2 195.3 267.55 192.7 267.2 192.4 263.7 M186.3 292.05 Q186.05 295.55 183.4 295.9 180.7 295.55 180.45 292.05 180.7 288.65 183.4 288.25 186.05 288.65 186.3 292.05 M208.7 398.0 Q210.95 398.25 211.15 401.15 210.95 404.0 208.7 404.35 206.45 404.1 206.3 401.15 206.45 398.25 208.7 398.0 M185.5 396.7 Q185.3 399.6 183.05 399.95 180.8 399.7 180.65 396.7 180.8 393.85 183.05 393.55 185.3 393.85 185.5 396.7 M197.75 398.95 Q197.55 401.85 195.3 402.2 193.05 401.95 192.85 398.95 193.05 396.1 195.3 395.8 197.55 396.1 197.75 398.95 M152.45 399.5 Q152.65 397.55 154.35 397.35 156.05 397.55 156.25 399.5 156.05 401.6 154.35 401.75 152.65 401.6 152.45 399.5 M144.55 401.3 Q144.35 403.4 142.65 403.55 140.95 403.4 140.75 401.3 140.95 399.35 142.65 399.15 144.35 399.35 144.55 401.3 M131.6 401.3 Q133.3 401.5 133.45 403.45 133.3 405.55 131.6 405.7 129.85 405.55 129.7 403.45 129.85 401.5 131.6 401.3 M112.75 405.45 Q112.95 403.45 114.65 403.3 116.35 403.45 116.55 405.45 116.35 407.5 114.65 407.7 112.95 407.5 112.75 405.45 M119.9 406.35 L119.8 404.65 119.95 405.45 119.9 406.35 M99.0 403.45 Q99.2 401.5 100.9 401.3 102.6 401.5 102.8 403.45 102.6 405.55 100.9 405.7 99.2 405.55 99.0 403.45 M88.9 403.3 Q87.2 403.1 87.05 401.05 87.2 399.05 88.9 398.9 90.65 399.05 90.8 401.05 90.65 403.1 88.9 403.3 M78.55 398.9 Q78.4 400.95 76.7 401.15 74.95 400.95 74.8 398.9 74.95 396.9 76.7 396.7 78.4 396.9 78.55 398.9 M45.55 396.7 Q45.7 393.85 47.95 393.55 50.2 393.85 50.4 396.7 50.2 399.7 47.95 399.95 45.7 399.6 45.55 396.7 M33.3 398.95 Q33.5 396.1 35.75 395.8 38.0 396.1 38.15 398.95 38.0 401.95 35.75 402.2 33.5 401.85 33.3 398.95 M24.75 401.15 Q24.6 404.1 22.35 404.35 20.1 404.0 19.9 401.15 20.1 398.25 22.35 398.0 24.6 398.25 24.75 401.15 M131.05 538.45 Q133.3 538.75 133.45 541.6 133.3 544.5 131.05 544.85 128.8 544.6 128.6 541.6 128.8 538.75 131.05 538.45 M98.9 538.45 Q101.15 538.75 101.35 541.6 101.15 544.6 98.9 544.85 96.65 544.5 96.5 541.6 96.65 538.75 98.9 538.45 M105.5 546.05 Q105.65 543.15 107.9 542.9 110.15 543.15 110.35 546.05 110.15 549.0 107.9 549.25 105.65 548.9 105.5 546.05 M84.4 544.7 Q84.6 541.8 86.85 541.55 89.1 541.8 89.3 544.7 89.1 547.65 86.85 547.9 84.6 547.55 84.4 544.7 M145.55 544.7 Q145.35 547.55 143.1 547.9 140.85 547.65 140.65 544.7 140.85 541.8 143.1 541.55 145.35 541.8 145.55 544.7 M124.4 546.05 Q124.2 548.9 121.95 549.25 119.7 549.0 119.5 546.05 119.7 543.15 121.95 542.9 124.2 543.15 124.4 546.05" fill="#c25e86" fill-rule="evenodd" stroke="none"/>
      <path d="M167.6 180.8 Q170.1 180.45 170.2 177.95 170.1 175.4 167.6 175.05 165.05 175.4 164.95 177.95 165.05 180.45 167.6 180.8 M164.15 169.0 L171.0 174.5 169.4 202.4 149.15 202.4 Q149.6 201.8 149.6 200.7 149.5 198.2 146.95 197.8 144.45 198.2 144.35 200.7 144.45 203.2 146.95 203.6 148.15 203.4 148.85 202.75 L159.5 215.45 118.1 263.25 117.8 262.8 118.25 254.35 149.3 215.45 142.2 198.7 161.8 193.5 164.15 169.0 M70.2 192.6 L68.4 168.05 81.55 161.35 89.1 168.05 112.25 250.0 83.05 215.55 90.2 198.25 70.2 192.6 M63.45 180.8 Q65.95 180.45 66.05 177.95 65.95 175.4 63.45 175.05 60.95 175.4 60.85 177.95 60.95 180.45 63.45 180.8 M66.85 169.0 L69.2 193.5 88.85 198.7 81.7 215.45 111.6 251.75 111.7 251.8 116.0 257.05 117.2 269.8 71.55 215.45 82.1 202.95 Q82.6 204.3 84.4 204.55 86.95 204.2 87.05 201.7 86.95 199.15 84.4 198.8 81.9 199.15 81.8 201.7 L81.9 202.4 61.55 202.4 60.05 174.5 66.85 169.0 M152.65 213.65 Q150.1 214.0 150.05 216.55 150.1 219.05 152.65 219.4 155.15 219.05 155.25 216.55 155.15 214.0 152.65 213.65 M153.8 204.65 L171.9 204.65 172.45 177.4 211.3 208.55 155.95 337.3 158.75 391.3 119.9 397.35 119.7 395.0 118.8 265.6 161.45 216.7 153.8 204.65 M139.4 236.35 Q141.95 236.0 142.0 233.45 141.95 230.95 139.4 230.6 136.9 230.95 136.8 233.45 136.9 236.0 139.4 236.35 M147.85 215.55 L120.4 250.0 152.65 161.35 162.65 168.05 160.85 192.7 140.85 198.35 147.85 215.55 M95.2 234.55 Q95.15 232.0 92.6 231.65 90.1 232.0 90.0 234.55 90.1 237.05 92.6 237.4 95.15 237.05 95.2 234.55 M117.45 281.8 Q116.75 280.7 115.1 280.55 112.3 280.9 112.25 283.7 112.3 286.45 115.1 286.85 116.75 286.65 117.45 285.55 L117.55 303.1 Q116.9 301.4 114.85 301.15 112.05 301.5 111.95 304.3 112.05 307.1 114.85 307.45 116.9 307.15 117.55 305.45 L117.55 323.55 Q117.1 321.4 114.75 321.1 111.95 321.5 111.85 324.25 111.95 327.05 114.75 327.4 117.1 327.15 117.55 325.0 L117.7 413.2 70.65 405.1 71.75 393.05 110.05 398.5 112.25 265.85 117.45 272.6 117.45 281.8 M107.75 249.2 Q105.2 249.55 105.1 252.1 105.2 254.6 107.75 254.95 110.25 254.6 110.35 252.1 110.25 249.55 107.75 249.2 M142.2 254.5 L178.2 261.9 179.3 258.2 175.05 257.65 167.2 240.95 164.05 243.55 162.45 240.95 145.15 255.05 142.2 254.5 M124.3 248.5 Q121.75 248.85 121.7 251.35 121.75 253.9 124.3 254.25 126.8 253.9 126.9 251.35 126.8 248.85 124.3 248.5 M163.55 246.15 L170.35 257.15 147.8 254.5 161.9 243.55 162.0 243.65 163.2 245.55 163.55 246.15 M64.0 198.0 Q64.1 200.5 66.6 200.9 69.1 200.5 69.2 198.0 69.1 195.5 66.6 195.1 64.1 195.5 64.0 198.0 M78.4 213.65 Q75.85 214.0 75.8 216.55 75.85 219.05 78.4 219.4 80.9 219.05 81.0 216.55 80.9 214.0 78.4 213.65 M77.2 204.65 L69.5 216.7 110.0 265.25 108.35 395.75 72.25 391.3 74.95 337.3 19.7 208.55 58.6 177.4 59.15 204.65 77.2 204.65 M17.45 209.45 Q20.7 214.0 28.9 233.35 37.0 252.65 44.2 270.9 L52.0 290.45 72.9 335.7 46.6 301.3 44.65 296.45 Q45.7 297.55 47.6 297.9 51.95 297.2 52.1 292.4 51.95 287.65 47.6 286.9 43.4 287.65 43.2 292.4 L43.3 293.2 36.1 276.65 19.8 239.4 9.1 214.85 17.45 209.45 M16.65 213.3 Q12.45 214.0 12.25 218.8 12.45 223.55 16.65 224.3 21.0 223.55 21.15 218.8 21.0 214.0 16.65 213.3 M35.9 258.85 Q31.7 259.55 31.5 264.35 31.7 269.1 35.9 269.8 40.25 269.1 40.4 264.35 40.25 259.55 35.9 258.85 M27.3 236.95 Q23.05 237.7 22.85 242.45 23.05 247.25 27.3 247.95 31.6 247.25 31.8 242.45 31.6 237.7 27.3 236.95 M2.25 293.15 L10.45 223.85 43.3 300.8 56.45 318.25 47.8 360.1 47.8 360.55 52.0 389.25 16.5 395.2 2.25 293.15 M117.45 344.6 Q117.35 341.8 114.55 341.45 111.8 341.8 111.7 344.6 111.8 347.4 114.55 347.75 117.35 347.4 117.45 344.6 M114.55 361.7 Q111.8 362.05 111.7 364.85 111.8 367.65 114.55 368.0 117.35 367.65 117.45 364.85 117.35 362.05 114.55 361.7 M100.9 355.15 L79.85 357.75 100.35 357.2 100.9 355.15 M111.7 385.2 Q111.8 388.0 114.55 388.35 117.35 388.0 117.45 385.2 117.35 382.4 114.55 382.05 111.8 382.4 111.7 385.2 M130.75 357.2 L151.3 357.75 130.25 355.15 130.75 357.2 M214.3 213.3 Q210.05 214.0 209.9 218.8 210.05 223.55 214.3 224.3 218.6 223.55 218.8 218.8 218.6 214.0 214.3 213.3 M213.55 209.45 L222.05 214.85 211.3 239.4 194.95 276.65 187.75 293.5 187.85 292.4 Q187.65 287.65 183.35 286.9 179.1 287.65 178.9 292.4 179.1 297.2 183.35 297.9 185.4 297.55 186.55 296.3 L184.5 301.3 158.2 335.7 179.0 290.45 186.85 270.9 Q194.15 252.65 202.25 233.35 210.35 214.0 213.55 209.45 M203.65 236.95 Q199.45 237.7 199.25 242.45 199.45 247.25 203.65 247.95 208.0 247.25 208.15 242.45 208.0 237.7 203.65 236.95 M167.05 198.0 Q166.95 195.5 164.45 195.1 161.9 195.5 161.8 198.0 161.9 200.5 164.45 200.9 166.95 200.5 167.05 198.0 M166.7 243.45 L167.2 243.0 173.0 257.65 172.9 257.65 167.15 243.1 166.7 243.45 M195.3 269.45 Q199.6 268.75 199.8 263.95 199.6 259.2 195.3 258.5 191.05 259.2 190.9 263.95 191.05 268.75 195.3 269.45 M228.8 293.15 L214.55 395.2 179.0 389.25 183.25 360.55 183.25 360.1 174.6 318.25 187.75 300.8 220.6 223.85 228.8 293.15 M212.65 407.45 L177.95 401.4 179.3 390.5 214.0 397.35 212.65 407.45 M208.7 405.9 Q212.2 405.35 212.4 401.4 212.2 397.35 208.7 396.8 205.2 397.35 205.0 401.4 205.2 405.35 208.7 405.9 M207.45 418.7 L180.65 414.25 181.15 404.45 208.55 409.7 207.45 418.7 M186.75 397.1 Q186.55 393.05 183.05 392.5 179.55 393.05 179.35 397.1 179.55 401.05 183.05 401.6 186.55 401.05 186.75 397.1 M199.0 399.25 Q198.8 395.2 195.3 394.65 191.8 395.2 191.6 399.25 191.8 403.2 195.3 403.75 198.8 403.2 199.0 399.25 M154.35 396.35 Q151.55 396.7 151.45 399.5 151.55 402.3 154.35 402.65 157.15 402.3 157.25 399.5 157.15 396.7 154.35 396.35 M142.65 398.15 Q139.85 398.5 139.75 401.3 139.85 404.1 142.65 404.45 145.45 404.1 145.55 401.3 145.35 398.5 142.65 398.15 M131.6 406.7 Q134.35 406.35 134.45 403.55 134.35 400.75 131.6 400.4 128.8 400.75 128.7 403.55 128.8 406.35 131.6 406.7 M114.65 402.3 Q111.85 402.65 111.8 405.45 111.85 408.25 114.65 408.6 117.35 408.25 117.55 405.45 117.35 402.65 114.65 402.3 M119.8 402.95 L119.8 398.9 159.3 393.05 160.4 405.0 119.9 412.1 119.9 407.95 Q120.85 407.15 120.95 405.45 120.85 403.65 119.8 402.95 M100.9 400.4 Q98.1 400.75 98.0 403.55 98.1 406.35 100.9 406.7 103.6 406.35 103.75 403.55 103.7 400.75 100.9 400.4 M86.05 401.05 Q86.15 403.85 88.9 404.2 91.6 403.85 91.8 401.05 91.7 398.25 88.9 397.9 86.15 398.25 86.05 401.05 M117.2 416.45 L159.85 408.25 148.95 537.05 Q133.0 533.8 116.65 536.5 L117.2 416.45 M49.85 404.45 L50.4 414.25 23.6 418.7 22.5 409.7 49.85 404.45 M76.7 402.05 Q79.45 401.65 79.55 398.9 79.45 396.1 76.7 395.75 73.9 396.1 73.8 398.9 73.9 401.65 76.7 402.05 M44.3 397.1 Q44.45 401.05 47.95 401.6 51.5 401.05 51.65 397.1 51.5 393.05 47.95 392.5 44.45 393.05 44.3 397.1 M35.75 403.75 Q39.25 403.2 39.45 399.25 39.25 395.2 35.75 394.65 32.25 395.2 32.05 399.25 32.25 403.2 35.75 403.75 M71.75 568.15 L71.2 563.85 99.9 549.1 113.6 562.85 113.6 566.45 71.75 568.15 M18.35 407.45 L17.0 397.35 51.75 390.5 53.1 401.4 18.35 407.45 M26.0 401.4 Q25.85 397.35 22.35 396.8 18.8 397.35 18.65 401.4 18.8 405.35 22.35 405.9 25.85 405.35 26.0 401.4 M134.75 541.9 Q134.55 537.85 131.05 537.3 127.55 537.85 127.35 541.9 127.55 545.5 130.4 546.3 L116.2 560.15 116.75 539.0 Q126.2 536.95 133.45 536.95 140.65 536.95 148.3 539.3 L148.3 555.4 131.75 546.3 Q134.55 545.4 134.75 541.9 M113.4 538.75 L113.75 560.35 100.35 545.95 Q102.4 544.95 102.6 541.9 102.4 537.85 98.9 537.3 95.4 537.85 95.2 541.9 95.4 545.85 98.9 546.4 L99.55 546.3 Q91.1 550.8 82.7 555.4 L82.7 539.3 Q90.25 536.95 97.1 536.85 103.95 536.65 113.4 538.75 M82.15 537.05 L71.2 408.25 113.85 416.45 114.4 536.5 Q98.0 533.8 82.15 537.05 M116.45 563.05 L131.15 549.1 159.85 563.85 159.3 568.15 116.45 566.8 116.45 563.05 M83.15 544.95 Q83.35 548.9 86.85 549.45 90.35 548.9 90.55 544.95 90.35 540.9 86.85 540.35 83.35 540.9 83.15 544.95 M104.2 546.3 Q104.4 550.25 107.9 550.8 111.4 550.25 111.6 546.3 111.4 542.25 107.9 541.7 104.4 542.25 104.2 546.3 M146.8 544.95 Q146.6 540.9 143.1 540.35 139.6 540.9 139.4 544.95 139.6 548.9 143.1 549.45 146.6 548.9 146.8 544.95 M125.65 546.3 Q125.45 542.25 121.95 541.7 118.45 542.25 118.25 546.3 118.45 550.25 121.95 550.8 125.45 550.25 125.65 546.3" fill="#481520" fill-rule="evenodd" stroke="none"/>
      <path d="M113.65 28.35 L111.25 28.6 104.95 28.6 Q107.45 18.8 108.1 8.55 111.05 11.25 113.05 14.5 115.65 13.4 116.2 17.0 116.45 24.1 113.65 28.35 M113.2 12.15 L113.3 12.25 113.4 12.15 113.3 12.35 113.2 12.15" fill="#666666" fill-rule="evenodd" stroke="none"/>
      <path d="M136.45 25.4 L134.0 35.45 Q125.2 37.55 116.0 37.6 124.0 36.35 128.15 34.4 132.2 32.5 136.45 25.4 M113.4 12.15 Q114.3 10.15 117.0 6.75 119.8 3.05 121.25 2.05 121.85 8.55 125.2 14.2 126.55 20.15 126.7 27.0 L113.65 28.35 Q116.45 24.1 116.2 17.0 115.65 13.4 113.05 14.5 111.05 11.25 108.1 8.55 L108.0 8.45 108.1 7.1 Q111.7 8.65 113.2 12.15 L113.3 12.35 113.4 12.15 M92.95 31.4 L92.45 29.45 Q92.0 27.9 92.5 28.45 96.55 33.5 100.7 35.1 104.95 36.8 110.7 37.6 L95.95 37.15 92.95 31.4" fill="#333333" fill-rule="evenodd" stroke="none"/>
      <path d="M85.4 143.3 Q93.7 80.35 102.8 38.9 L95.6 38.7 Q91.1 31.4 91.25 26.1 98.1 32.3 101.9 33.4 106.45 23.3 106.65 5.75 111.15 6.85 113.4 10.1 116.2 4.75 121.85 0.0 122.65 7.55 125.0 11.7 127.45 15.95 129.15 31.75 132.2 29.8 137.0 22.5 137.7 27.35 135.45 37.1 L129.35 38.25 146.8 143.0 144.8 144.0 129.95 51.4 127.8 38.05 Q112.05 40.15 104.3 39.05 L103.4 43.2 Q99.2 63.1 95.3 87.5 L86.65 143.35 89.1 145.25 85.4 143.3 M136.45 25.4 Q132.2 32.5 128.15 34.4 124.0 36.35 116.0 37.6 125.2 37.55 134.0 35.45 L136.45 25.4 M127.35 29.05 L127.25 28.1 Q115.4 30.4 104.5 29.9 L104.4 30.6 105.4 30.8 Q106.85 31.85 106.2 33.3 104.95 35.35 103.4 33.75 L102.95 34.9 Q106.3 36.65 113.3 36.2 L124.2 35.1 Q126.55 34.65 127.6 33.4 L127.55 32.75 Q125.65 33.4 125.2 30.85 126.65 28.25 127.35 29.05 M127.1 32.5 Q128.25 32.3 128.35 30.95 128.25 29.6 127.1 29.5 126.0 29.6 125.9 30.95 126.0 32.3 127.1 32.5 M121.6 33.65 Q122.85 33.5 122.95 32.05 122.85 30.6 121.6 30.5 120.25 30.7 120.15 32.05 120.25 33.5 121.6 33.65 M121.6 29.95 Q123.4 30.25 123.5 32.05 121.75 35.75 120.05 33.1 118.45 30.6 121.6 29.95 M113.65 28.35 L126.7 27.0 Q126.55 20.15 125.2 14.2 121.85 8.55 121.25 2.05 119.8 3.05 117.0 6.75 114.3 10.15 113.4 12.15 L113.3 12.25 113.2 12.15 Q111.7 8.65 108.1 7.1 L108.0 8.45 108.1 8.55 Q107.45 18.8 104.95 28.6 L111.25 28.6 113.65 28.35 M92.95 31.4 L95.95 37.15 110.7 37.6 Q104.95 36.8 100.7 35.1 96.55 33.5 92.5 28.45 92.0 27.9 92.45 29.45 L92.95 31.4 M113.65 32.75 Q113.75 30.95 115.75 30.8 119.45 32.4 115.65 34.9 113.75 34.55 113.65 32.75 M103.6 32.65 Q103.7 34.0 104.65 34.2 105.65 34.0 105.85 32.65 105.75 31.25 104.65 31.15 103.7 31.25 103.6 32.65 M115.55 31.25 Q114.1 31.4 114.05 32.75 114.1 34.2 115.55 34.4 116.9 34.2 117.1 32.75 116.9 31.3 115.55 31.25 M108.1 32.85 Q107.9 31.5 109.6 30.95 111.25 30.4 111.95 32.95 108.8 36.7 108.1 32.85 M111.35 32.85 Q111.15 31.5 109.9 31.4 108.55 31.5 108.45 32.85 108.55 34.1 109.9 34.3 111.15 34.1 111.35 32.85 M104.65 59.05 L102.95 57.8 101.35 56.6 101.5 54.9 Q102.6 54.1 103.75 53.45 L103.85 53.45 104.2 53.2 104.6 54.45 104.85 54.65 113.65 60.1 115.2 46.25 115.65 60.4 Q118.9 58.6 123.1 56.5 126.25 55.1 127.25 54.65 L127.7 54.35 128.45 53.2 130.3 54.9 130.15 56.8 127.9 58.05 117.2 63.45 128.35 64.25 117.9 64.55 127.35 70.4 Q125.0 69.85 121.6 68.2 118.15 66.7 116.75 64.25 L116.1 64.0 115.0 64.25 114.55 61.4 Q114.5 66.15 112.6 73.25 110.6 80.3 110.45 87.3 L110.7 91.55 Q111.05 94.5 112.5 94.75 116.1 94.6 118.45 92.6 L122.15 89.35 Q123.85 87.4 121.6 84.85 119.25 82.35 116.9 84.95 116.8 82.1 120.4 83.05 123.95 84.05 123.55 89.2 L122.95 89.9 130.5 108.35 130.6 108.0 133.55 117.45 137.0 129.35 Q138.05 132.75 139.3 140.05 140.15 144.7 139.05 147.15 138.5 147.4 137.9 147.8 139.75 142.75 136.7 136.6 133.2 129.7 129.85 124.65 127.25 119.95 122.75 114.2 118.35 108.55 113.05 107.3 108.0 110.45 102.5 120.5 L101.25 122.95 Q95.05 135.2 93.5 141.85 92.95 144.8 93.5 147.6 L93.25 147.5 Q92.35 142.9 93.95 133.9 96.05 121.75 99.55 109.1 L103.05 96.95 104.85 91.35 Q103.95 88.3 105.95 85.75 107.9 85.3 108.45 87.1 106.9 85.15 105.95 87.1 104.95 89.0 105.5 90.7 107.65 92.5 110.45 93.6 109.35 78.4 113.2 63.9 111.25 66.25 109.45 68.65 106.85 69.75 104.15 69.75 L103.5 69.65 104.15 69.65 Q109.15 68.95 111.4 64.45 107.9 65.25 104.4 64.35 L102.7 63.7 104.4 64.1 Q108.35 64.55 112.15 63.35 108.2 61.45 104.65 59.05 M102.6 118.35 Q107.3 109.1 113.05 104.75 123.95 111.35 129.95 122.6 135.65 131.5 139.15 142.1 136.25 127.25 130.4 113.5 L121.3 91.45 Q114.4 98.35 106.55 92.9 L102.85 103.05 Q96.75 121.05 93.6 139.95 96.05 132.05 101.35 120.8 L102.6 118.35" fill="#000000" fill-rule="evenodd" stroke="none"/>
      <path d="M121.6 33.65 Q120.25 33.5 120.15 32.05 120.25 30.7 121.6 30.5 122.85 30.6 122.95 32.05 122.85 33.5 121.6 33.65 M127.1 32.5 Q126.0 32.3 125.9 30.95 126.0 29.6 127.1 29.5 128.25 29.6 128.35 30.95 128.25 32.3 127.1 32.5 M115.55 31.25 Q116.9 31.3 117.1 32.75 116.9 34.2 115.55 34.4 114.1 34.2 114.05 32.75 114.1 31.4 115.55 31.25 M103.6 32.65 Q103.7 31.25 104.65 31.15 105.75 31.25 105.85 32.65 105.65 34.0 104.65 34.2 103.7 34.0 103.6 32.65 M111.35 32.85 Q111.15 34.1 109.9 34.3 108.55 34.1 108.45 32.85 108.55 31.5 109.9 31.4 111.15 31.5 111.35 32.85" fill="#cbcbcb" fill-rule="evenodd" stroke="none"/>
      <path d="M127.35 29.05 Q126.65 28.25 125.2 30.85 125.65 33.4 127.55 32.75 L127.6 33.4 Q126.55 34.65 124.2 35.1 L113.3 36.2 Q106.3 36.65 102.95 34.9 L103.4 33.75 Q104.95 35.35 106.2 33.3 106.85 31.85 105.4 30.8 L104.4 30.6 104.5 29.9 Q115.4 30.4 127.25 28.1 L127.35 29.05 M121.6 29.95 Q118.45 30.6 120.05 33.1 121.75 35.75 123.5 32.05 123.4 30.25 121.6 29.95 M113.65 32.75 Q113.75 34.55 115.65 34.9 119.45 32.4 115.75 30.8 113.75 30.95 113.65 32.75 M108.1 32.85 Q108.8 36.7 111.95 32.95 111.25 30.4 109.6 30.95 107.9 31.5 108.1 32.85" fill="#989898" fill-rule="evenodd" stroke="none"/>
      <path d="M103.4 43.2 L104.3 39.05 Q112.05 40.15 127.8 38.05 L129.95 51.4 144.8 144.0 140.6 146.35 Q139.7 133.2 136.55 112.05 132.85 86.95 129.25 65.95 L127.9 58.05 130.15 56.8 130.3 54.9 128.45 53.2 127.7 54.35 127.25 54.65 125.35 43.55 Q115.0 45.0 103.4 43.2" fill="#7173b3" fill-rule="evenodd" stroke="none"/>
      <path d="M89.1 145.25 L86.65 143.35 95.3 87.5 Q99.2 63.1 103.4 43.2 115.0 45.0 125.35 43.55 L127.25 54.65 Q126.25 55.1 123.1 56.5 118.9 58.6 115.65 60.4 L115.2 46.25 113.65 60.1 104.85 54.65 105.3 45.9 Q104.5 49.7 103.85 53.45 L103.75 53.45 Q102.6 54.1 101.5 54.9 L101.35 56.6 102.95 57.8 Q99.25 76.85 96.3 94.85 92.45 118.45 90.0 145.7 L89.1 145.25 M103.05 96.95 Q103.4 84.4 104.15 69.75 106.85 69.75 109.45 68.65 111.25 66.25 113.2 63.9 109.35 78.4 110.45 93.6 107.65 92.5 105.5 90.7 104.95 89.0 105.95 87.1 106.9 85.15 108.45 87.1 107.9 85.3 105.95 85.75 103.95 88.3 104.85 91.35 L103.05 96.95 M104.15 69.65 Q104.2 66.95 104.4 64.35 107.9 65.25 111.4 64.45 109.15 68.95 104.15 69.65 M104.4 64.1 L104.65 59.05 Q108.2 61.45 112.15 63.35 108.35 64.55 104.4 64.1 M139.05 147.15 Q140.15 144.7 139.3 140.05 138.05 132.75 137.0 129.35 L133.55 117.45 130.6 108.0 130.5 108.35 122.95 89.9 123.55 89.2 Q123.95 84.05 120.4 83.05 116.8 82.1 116.9 84.95 119.25 82.35 121.6 84.85 123.85 87.4 122.15 89.35 L118.45 92.6 Q116.1 94.6 112.5 94.75 111.05 94.5 110.7 91.55 L110.45 87.3 Q110.6 80.3 112.6 73.25 114.5 66.15 114.55 61.4 L115.0 64.25 116.1 64.0 116.75 64.25 Q118.15 66.7 121.6 68.2 125.0 69.85 127.35 70.4 L117.9 64.55 128.35 64.25 117.2 63.45 127.9 58.05 129.25 65.95 Q132.85 86.95 136.55 112.05 139.7 133.2 140.6 146.35 L139.05 147.15 M102.85 103.05 L106.55 92.9 Q114.4 98.35 121.3 91.45 L130.4 113.5 Q136.25 127.25 139.15 142.1 135.65 131.5 129.95 122.6 123.95 111.35 113.05 104.75 107.3 109.1 102.6 118.35 L102.85 103.05 M102.5 120.5 Q108.0 110.45 113.05 107.3 118.35 108.55 122.75 114.2 127.25 119.95 129.85 124.65 133.2 129.7 136.7 136.6 139.75 142.75 137.9 147.8 126.8 153.7 115.85 159.65 L103.25 152.8 Q102.35 141.2 102.5 120.5 M210.85 436.3 Q206.3 441.9 199.8 449.1 L188.35 461.9 180.45 453.95 171.0 444.05 172.6 439.3 179.35 444.05 189.9 437.75 Q192.35 439.3 193.05 440.9 191.05 434.95 189.9 428.85 190.25 432.35 189.35 435.7 L178.9 439.3 173.05 436.7 171.0 426.8 182.5 416.8 203.65 421.1 210.85 436.3 M52.1 439.3 L41.6 435.7 Q40.8 432.35 41.05 428.85 39.9 434.95 37.9 440.9 38.6 439.3 41.05 437.75 L51.55 444.05 58.4 439.3 59.95 444.05 50.5 453.95 42.65 461.9 31.15 449.1 Q24.75 441.9 20.1 436.3 L27.35 421.1 48.4 416.8 59.95 426.8 57.85 436.7 52.1 439.3" fill="#b2b1cb" fill-rule="evenodd" stroke="none"/>
      <path d="M102.95 57.8 L104.65 59.05 104.4 64.1 102.7 63.7 104.4 64.35 Q104.2 66.95 104.15 69.65 L103.5 69.65 104.15 69.75 Q103.4 84.4 103.05 96.95 L99.55 109.1 Q96.05 121.75 93.95 133.9 92.35 142.9 93.25 147.5 L90.0 145.7 Q92.45 118.45 96.3 94.85 99.25 76.85 102.95 57.8 M104.85 54.65 L104.6 54.45 104.2 53.2 103.85 53.45 Q104.5 49.7 105.3 45.9 L104.85 54.65 M102.6 118.35 L101.35 120.8 Q96.05 132.05 93.6 139.95 96.75 121.05 102.85 103.05 L102.6 118.35 M93.5 147.6 Q92.95 144.8 93.5 141.85 95.05 135.2 101.25 122.95 L102.5 120.5 Q102.35 141.2 103.25 152.8 L93.5 147.6" fill="#d9dae6" fill-rule="evenodd" stroke="none"/>
      <path d="M115.55 175.3 Q111.8 175.85 111.6 179.45 111.8 183.15 115.55 183.6 119.25 183.15 119.45 179.45 119.25 175.85 115.55 175.3 M116.0 190.9 L120.8 191.0 128.7 219.4 115.55 252.7 112.7 243.55 107.55 226.35 Q105.05 217.6 105.1 216.7 105.5 216.45 106.65 210.8 107.8 205.0 111.6 191.0 L116.0 190.9 M111.6 189.0 L107.1 181.55 115.65 164.8 124.9 181.25 120.6 188.8 111.6 189.0 M116.55 219.15 Q120.85 218.5 121.15 214.3 120.85 210.05 116.55 209.45 112.15 210.05 111.95 214.3 112.15 218.5 116.55 219.15" fill="#6c1836" fill-rule="evenodd" stroke="none"/>
      <path d="M72.0 569.7 L113.3 568.1 113.5 571.25 72.0 572.75 72.0 569.7 M116.35 571.5 L116.35 568.35 159.55 569.35 159.1 572.75 116.35 571.5" fill="#43151e" fill-rule="evenodd" stroke="none"/>
    </g>
    <g id="shape1" transform="matrix(1.0, 0.0, 0.0, 1.0, 0.0, 0.0)">
      <path d="M169.2 127.25 Q167.75 125.45 167.4 122.3 L167.4 41.4 Q124.55 41.4 88.4 40.2 49.15 38.85 25.1 35.0 1.15 31.15 0.0 23.4 0.25 16.55 24.3 11.35 48.35 6.1 87.95 3.05 127.55 0.1 174.6 0.0 221.65 0.0 262.1 3.05 302.4 6.1 326.95 11.8 351.45 17.45 351.0 25.2 349.45 31.05 325.1 34.55 300.7 38.15 261.2 39.75 224.65 41.3 181.8 41.4 L181.8 122.3 Q180.9 129.5 174.6 129.5 L174.6 21.6 169.65 21.6 Q170.0 21.3 170.55 21.05 172.25 20.15 174.95 20.05 177.65 19.95 179.3 20.8 L180.25 21.5 Q181.45 22.5 181.7 24.3 L181.8 24.55 181.8 25.1 181.8 39.6 Q234.7 39.05 272.9 36.15 L273.7 36.25 305.55 33.2 303.95 33.1 Q344.45 28.05 345.6 23.4 344.95 19.9 325.9 15.85 L326.05 15.55 Q314.2 12.85 296.9 10.6 L250.0 5.95 248.4 5.85 180.0 3.6 Q103.25 3.85 54.25 9.45 5.2 15.1 3.6 23.4 4.6 31.4 35.45 35.0 L51.55 36.55 52.1 36.6 96.5 38.8 103.25 38.95 103.3 38.95 Q132.05 39.7 167.4 39.6 L167.4 25.1 Q167.5 24.45 167.75 24.0 168.2 22.75 169.2 21.95 L169.2 127.25" fill="#6f6a9e" fill-rule="evenodd" stroke="none"/>
      <path d="M167.75 24.0 Q167.5 24.45 167.4 25.1 L167.4 39.6 Q132.05 39.7 103.3 38.95 110.6 30.6 122.4 29.6 128.05 29.85 132.3 31.85 136.55 33.85 142.2 34.1 151.85 33.45 158.4 28.7 162.45 25.65 167.75 24.0 M35.45 35.0 Q4.6 31.4 3.6 23.4 5.2 15.1 54.25 9.45 103.25 3.85 180.0 3.6 L248.4 5.85 Q241.55 12.95 230.95 13.65 225.25 13.4 221.05 11.4 216.8 9.45 211.15 9.15 201.5 9.8 194.95 14.55 188.55 19.25 179.3 20.8 177.65 19.95 174.95 20.05 172.25 20.15 170.55 21.05 166.15 19.8 161.55 19.7 155.6 20.05 151.45 22.85 147.25 25.65 141.3 26.0 134.35 25.55 129.4 22.4 124.4 19.25 117.45 18.8 110.35 19.25 105.1 22.4 99.8 25.55 92.7 26.0 81.45 25.35 73.15 21.05 64.9 16.75 53.55 16.1 37.7 16.65 26.1 28.7 24.2 30.3 22.3 32.75 L35.45 35.0 M325.9 15.85 Q344.95 19.9 345.6 23.4 344.45 28.05 303.95 33.1 L181.7 24.3 Q181.45 22.5 180.25 21.5 185.85 23.4 191.8 23.55 197.75 23.2 201.85 20.4 206.1 17.65 212.05 17.25 218.95 17.7 223.9 20.85 228.95 24.0 235.9 24.45 243.0 24.0 248.2 20.85 253.55 17.7 260.65 17.25 271.9 17.9 280.15 22.2 288.45 26.55 299.8 27.15 314.9 26.65 325.9 15.85 M272.9 36.15 Q234.7 39.05 181.8 39.6 L181.8 25.1 181.8 24.55 272.9 36.15 M82.6 7.0 L52.45 9.9 174.6 18.8 82.6 7.0" fill="#e7e6e3" fill-rule="evenodd" stroke="none"/>
      <path d="M169.2 21.95 Q168.2 22.75 167.75 24.0 162.45 25.65 158.4 28.7 151.85 33.45 142.2 34.1 136.55 33.85 132.3 31.85 128.05 29.85 122.4 29.6 110.6 30.6 103.3 38.95 L103.25 38.95 96.5 38.8 52.1 36.6 51.55 36.55 35.45 35.0 22.3 32.75 Q24.2 30.3 26.1 28.7 37.7 16.65 53.55 16.1 64.9 16.75 73.15 21.05 81.45 25.35 92.7 26.0 99.8 25.55 105.1 22.4 110.35 19.25 117.45 18.8 124.4 19.25 129.4 22.4 134.35 25.55 141.3 26.0 147.25 25.65 151.45 22.85 155.6 20.05 161.55 19.7 166.15 19.8 170.55 21.05 170.0 21.3 169.65 21.6 L169.2 21.6 169.2 21.95 M248.4 5.85 L250.0 5.95 296.9 10.6 Q314.2 12.85 326.05 15.55 L325.9 15.85 Q314.9 26.65 299.8 27.15 288.45 26.55 280.15 22.2 271.9 17.9 260.65 17.25 253.55 17.7 248.2 20.85 243.0 24.0 235.9 24.45 228.95 24.0 223.9 20.85 218.95 17.7 212.05 17.25 206.1 17.65 201.85 20.4 197.75 23.2 191.8 23.55 185.85 23.4 180.25 21.5 L179.3 20.8 Q188.55 19.25 194.95 14.55 201.5 9.8 211.15 9.15 216.8 9.45 221.05 11.4 225.25 13.4 230.95 13.65 241.55 12.95 248.4 5.85 M303.95 33.1 L305.55 33.2 273.7 36.25 272.9 36.15 181.8 24.55 181.7 24.3 303.95 33.1 M82.6 7.0 L174.6 18.8 52.45 9.9 82.6 7.0" fill="#ffffff" fill-rule="evenodd" stroke="none"/>
      <path d="M169.2 127.25 L169.2 21.95 169.2 21.6 169.65 21.6 174.6 21.6 174.6 129.5 174.6 129.6 169.2 129.6 169.2 127.25" fill="#eff2e8" fill-rule="evenodd" stroke="none"/>
    </g>
  </defs>
</svg>
