<?xml version="1.0" encoding="UTF-8" standalone="no"?>
<svg xmlns:xlink="http://www.w3.org/1999/xlink" height="1180.9px" width="479.35px" xmlns="http://www.w3.org/2000/svg">
  <g transform="matrix(1.0, 0.0, 0.0, 1.0, 174.55, 605.1)">
    <use height="197.45" transform="matrix(3.0, 0.0, 0.0, 3.0, -116.45, -51.85)" width="77.4" xlink:href="#sprite0"/>
    <use height="119.5" transform="matrix(2.9653, 0.0, 0.0, 2.9653, -165.9792, 63.6278)" width="117.6" xlink:href="#shape3"/>
  </g>
  <defs>
    <g id="sprite0" transform="matrix(1.0, 0.0, 0.0, 1.0, 40.65, 114.75)">
      <use height="65.4" transform="matrix(1.0, 0.0, 0.0, 1.0, -17.45, 16.15)" width="29.5" xlink:href="#shape0"/>
      <use height="60.0" transform="matrix(1.0, 0.0, 0.0, 1.0, -12.25, -114.75)" width="21.2" xlink:href="#shape1"/>
      <use height="108.85" transform="matrix(1.0, 0.0, 0.0, 1.0, -40.65, -66.95)" width="77.4" xlink:href="#shape2"/>
    </g>
    <g id="shape0" transform="matrix(1.0, 0.0, 0.0, 1.0, 17.45, -16.15)">
      <path d="M9.3 62.25 L11.8 66.0 11.15 75.75 7.85 80.5 0.5 81.55 -2.3 69.05 -2.5 16.9 12.0 16.9 9.3 62.25" fill="#291214" fill-rule="evenodd" stroke="none"/>
      <path d="M-2.9 17.55 L-2.45 75.75 -16.6 76.05 -17.45 72.1 -14.05 69.45 -17.1 16.15 -2.9 17.55" fill="#291214" fill-rule="evenodd" stroke="none"/>
      <path d="M11.65 17.2 L11.65 17.15 12.05 17.15 11.65 17.2" fill="#1d1211" fill-rule="evenodd" stroke="none"/>
      <path d="M11.65 17.2 L8.9 55.75 3.4 55.05 -2.05 55.75 -1.65 20.0 11.65 17.2 M2.5 58.3 L3.05 58.8 3.8 58.05 3.8 55.9 2.5 55.9 3.8 55.75 8.9 56.45 8.9 62.2 1.85 58.6 -2.05 64.3 -2.05 56.45 2.25 55.95 1.85 57.35 2.25 58.05 2.3 58.1 2.3 58.3 2.5 58.3 M0.7 58.8 L0.3 57.35 -1.3 57.35 -1.3 60.2 0.3 60.2 0.7 58.8 M7.35 60.2 L8.1 59.5 8.5 58.8 8.1 57.35 6.55 57.35 6.55 59.5 7.35 60.2 M8.85 63.0 L11.65 66.0 11.05 75.15 7.85 79.75 0.7 80.6 -1.65 69.3 -1.45 64.95 2.5 60.25 8.85 63.0" fill="#481520" fill-rule="evenodd" stroke="none"/>
      <path d="M2.5 58.3 L3.45 58.3 3.45 56.85 3.05 56.1 2.3 56.85 2.3 58.1 2.25 58.05 1.85 57.35 2.25 55.95 2.25 55.9 2.5 55.9 3.8 55.9 3.8 58.05 3.05 58.8 2.5 58.3 M0.7 58.8 L0.3 60.2 -1.3 60.2 -1.3 57.35 0.3 57.35 0.7 58.8 M6.95 59.7 L7.75 59.7 7.75 59.0 8.15 59.0 7.35 57.55 6.6 59.0 6.95 59.7 M7.35 60.2 L6.55 59.5 6.55 57.35 8.1 57.35 8.5 58.8 8.1 59.5 7.35 60.2 M-0.85 59.7 L-0.1 59.7 -0.1 59.0 0.3 59.0 -0.45 57.55 -1.25 59.0 -0.85 59.7" fill="#291214" fill-rule="evenodd" stroke="none"/>
      <path d="M2.3 58.1 L2.3 56.85 3.05 56.1 3.45 56.85 3.45 58.3 2.5 58.3 2.3 58.3 2.3 58.1 M6.95 59.7 L6.6 59.0 7.35 57.55 8.15 59.0 7.75 59.0 7.75 59.7 6.95 59.7 M-0.85 59.7 L-1.25 59.0 -0.45 57.55 0.3 59.0 -0.1 59.0 -0.1 59.7 -0.85 59.7" fill="#c25e86" fill-rule="evenodd" stroke="none"/>
      <path d="M-16.45 17.25 L-16.5 17.25 -16.85 17.15 -16.5 17.15 -16.45 17.25" fill="#1d1211" fill-rule="evenodd" stroke="none"/>
      <path d="M-16.45 17.25 L-3.15 20.05 -2.8 62.9 -8.25 62.2 -13.75 62.9 -16.45 17.25 M-13.35 65.9 L-12.95 66.6 -12.15 67.3 -11.35 66.6 -11.35 64.45 -12.95 64.45 -13.35 65.9 M-7.05 63.1 L-2.8 63.65 -2.8 71.45 -2.8 72.9 -16.5 73.6 -16.85 72.2 -6.7 67.2 -6.3 67.2 -2.8 71.45 -6.7 65.75 -13.75 69.35 -13.75 63.65 -8.65 62.9 -7.65 63.0 -8.65 63.0 -8.65 65.15 -7.85 65.9 -7.35 65.45 -7.1 65.45 -7.1 65.2 -7.05 65.15 -6.7 64.45 -7.05 63.1 M-3.55 67.3 L-3.55 64.45 -5.1 64.45 -5.5 65.9 -5.1 67.3 -3.55 67.3 M-16.5 74.35 L-2.8 73.6 -2.8 75.05 -16.5 75.05 -16.5 74.35" fill="#481520" fill-rule="evenodd" stroke="none"/>
      <path d="M-13.35 65.9 L-12.95 64.45 -11.35 64.45 -11.35 66.6 -12.15 67.3 -12.95 66.6 -13.35 65.9 M-12.55 66.15 L-12.55 66.85 -11.8 66.85 -11.4 66.15 -12.2 64.7 -12.95 66.15 -12.55 66.15 M-7.65 63.0 L-7.05 63.0 -7.05 63.1 -6.7 64.45 -7.05 65.15 -7.1 65.2 -7.1 64.0 -7.9 63.3 -8.25 64.0 -8.25 65.45 -7.35 65.45 -7.85 65.9 -8.65 65.15 -8.65 63.0 -7.65 63.0 M-3.6 66.15 L-4.35 64.7 -5.15 66.15 -4.75 66.15 -4.75 66.85 -3.95 66.85 -3.6 66.15 M-3.55 67.3 L-5.1 67.3 -5.5 65.9 -5.1 64.45 -3.55 64.45 -3.55 67.3" fill="#291214" fill-rule="evenodd" stroke="none"/>
      <path d="M-12.55 66.15 L-12.95 66.15 -12.2 64.7 -11.4 66.15 -11.8 66.85 -12.55 66.85 -12.55 66.15 M-7.1 65.2 L-7.1 65.45 -7.35 65.45 -8.25 65.45 -8.25 64.0 -7.9 63.3 -7.1 64.0 -7.1 65.2 M-3.6 66.15 L-3.95 66.85 -4.75 66.85 -4.75 66.15 -5.15 66.15 -4.35 64.7 -3.6 66.15" fill="#c25e86" fill-rule="evenodd" stroke="none"/>
    </g>
    <g id="shape1" transform="matrix(1.0, 0.0, 0.0, 1.0, 12.25, 114.75)">
      <path d="M-8.6 -102.05 L-9.8 -103.85 -10.45 -106.25 -6.8 -103.85 -5.6 -107.5 -5.0 -112.9 -2.55 -111.7 -1.35 -112.9 -0.15 -114.75 0.45 -112.3 1.05 -111.1 1.65 -108.7 2.2 -104.55 1.65 -105.05 -2.55 -105.05 1.65 -105.65 1.05 -105.65 1.05 -109.9 -0.15 -114.15 -2.55 -110.5 -3.15 -111.7 -4.4 -112.3 -5.6 -105.05 -5.6 -104.45 -6.2 -103.85 -5.6 -103.85 -5.6 -103.25 -6.2 -103.25 -5.0 -102.65 -2.55 -102.65 1.05 -103.25 2.3 -103.85 3.5 -105.05 5.3 -107.5 4.7 -102.05 2.9 -102.05 8.95 -62.65 -1.35 -54.75 -11.65 -63.85 -12.25 -63.85 -9.2 -85.7 -6.2 -102.05 -3.75 -102.05 -8.6 -103.85 -9.8 -105.05 -9.8 -104.45 -8.6 -102.05 M2.2 -104.4 L2.3 -103.85 1.65 -103.85 1.05 -104.45 1.65 -105.05 1.65 -103.85 2.2 -104.4 M-0.15 -104.45 L0.45 -104.45 0.45 -103.85 -0.15 -104.45 -0.75 -103.85 -0.15 -103.85 -0.15 -103.25 -0.75 -103.85 -0.75 -104.05 -0.15 -104.45 M2.3 -103.25 L-1.95 -102.05 1.05 -102.65 4.1 -102.65 4.7 -106.25 3.5 -104.45 2.3 -103.25 M0.45 -85.7 L-0.75 -86.9 -1.35 -86.3 -1.35 -86.9 -0.75 -86.9 -0.15 -86.9 0.45 -86.3 0.45 -85.7 M2.25 -96.55 L2.3 -96.6 2.3 -97.2 2.9 -96.6 2.9 -96.0 2.4 -95.7 -1.35 -93.55 2.3 -92.95 -1.35 -92.95 -1.95 -93.55 -1.95 -92.95 -2.55 -94.15 -2.65 -93.4 -3.75 -91.75 -4.55 -91.55 -4.6 -91.55 -6.2 -91.15 -4.4 -91.75 -3.15 -92.95 -5.0 -92.95 -3.15 -93.55 -6.2 -95.4 -6.2 -96.0 -6.25 -96.0 -6.5 -96.0 -11.65 -66.35 -11.05 -66.35 -10.45 -65.85 -10.45 -65.75 -9.35 -64.8 -9.8 -65.75 -9.8 -68.15 -8.6 -74.2 -6.2 -81.95 -5.6 -83.9 -5.6 -84.5 -3.75 -83.3 -3.75 -83.9 -3.15 -83.3 -3.15 -82.7 -1.35 -83.9 0.45 -84.5 5.3 -71.2 5.9 -67.55 5.9 -66.95 5.9 -65.75 5.3 -64.55 5.9 -66.95 4.7 -71.8 -0.15 -83.9 -2.55 -82.7 -3.15 -82.7 -3.75 -82.7 -5.0 -83.9 -6.2 -80.0 -7.4 -76.05 -9.2 -67.55 -6.8 -74.2 -6.2 -75.2 -5.0 -77.25 -3.15 -79.05 -6.2 -74.5 -6.8 -73.6 -9.2 -66.95 -9.2 -64.7 -6.2 -62.1 -6.2 -62.4 -1.35 -58.5 6.5 -63.95 8.3 -65.15 2.3 -102.05 -2.55 -101.45 -5.6 -101.45 -6.2 -100.2 -5.8 -100.2 -5.9 -99.6 -6.2 -99.6 -6.2 -97.9 -6.4 -96.6 -6.2 -96.6 -6.1 -96.65 -5.6 -97.2 -5.6 -96.6 -2.55 -94.8 -1.95 -99.0 -1.95 -94.8 2.25 -96.55 M4.7 -70.6 L5.3 -68.75 0.45 -76.65 -3.15 -79.05 -2.55 -79.65 -1.35 -78.45 0.45 -77.25 4.7 -70.6 M-1.95 -104.45 L-2.55 -103.85 -1.95 -103.85 -1.95 -103.25 -2.55 -103.85 -2.55 -104.45 -1.95 -104.45 M-4.4 -103.85 L-3.75 -103.85 -3.75 -103.25 -4.4 -103.85 M-2.8 -92.5 L-3.75 -85.7 -3.75 -88.1 -3.5 -89.35 -3.5 -89.4 -2.8 -92.5 M-1.35 -92.95 L1.65 -91.15 -0.15 -91.75 -1.35 -92.95 M-5.6 -84.5 L-5.6 -85.1 -5.0 -85.7 -5.6 -84.5" fill="#000000" fill-rule="evenodd" stroke="none"/>
      <path d="M0.45 -85.7 L0.45 -86.3 -0.15 -86.9 -0.75 -86.9 -1.35 -86.9 -1.35 -86.3 -0.75 -86.9 0.45 -85.7 M2.4 -95.7 L4.1 -85.1 6.5 -63.95 -1.35 -58.5 -6.2 -62.4 -6.2 -74.5 -3.15 -79.05 -5.0 -77.25 -6.2 -75.2 -6.2 -80.0 -5.0 -83.9 -3.75 -82.7 -3.15 -82.7 -2.55 -82.7 -0.15 -83.9 4.7 -71.8 5.9 -66.95 5.9 -67.55 5.3 -71.2 0.45 -84.5 -1.35 -83.9 -3.15 -82.7 -3.15 -83.3 -3.75 -83.9 -3.75 -83.3 -5.6 -84.5 -5.6 -83.9 -6.2 -81.95 -6.2 -91.15 -6.2 -95.4 -3.15 -93.55 -5.0 -92.95 -3.15 -92.95 -4.4 -91.75 -6.2 -91.15 -4.6 -91.55 -4.55 -91.55 -3.75 -91.75 -2.65 -93.4 -2.55 -94.15 -1.95 -92.95 -1.95 -93.55 -1.35 -92.95 2.3 -92.95 -1.35 -93.55 2.4 -95.7 M-5.8 -100.2 L1.65 -100.2 2.25 -96.55 -1.95 -94.8 -1.95 -99.0 -2.55 -94.8 -5.6 -96.6 -5.6 -97.2 -6.1 -96.65 -5.6 -99.6 -5.9 -99.6 -5.8 -100.2 M-6.2 -96.6 L-6.4 -96.6 -6.2 -97.9 -6.2 -96.6 M4.7 -70.6 L0.45 -77.25 -1.35 -78.45 -2.55 -79.65 -3.15 -79.05 0.45 -76.65 5.3 -68.75 4.7 -70.6 M5.9 -66.95 L5.3 -64.55 5.9 -65.75 5.9 -66.95 M-10.45 -65.85 L-11.05 -66.35 -11.65 -66.35 -6.5 -96.0 -6.25 -96.0 -8.6 -82.7 -10.45 -65.85 M-2.55 -93.55 L-2.65 -93.4 -2.55 -93.55 M-1.35 -92.95 L-0.15 -91.75 1.65 -91.15 -1.35 -92.95 M-2.8 -92.5 L-3.5 -89.4 -3.5 -89.35 -3.75 -88.1 -3.75 -85.7 -2.8 -92.5 M-5.6 -84.5 L-5.0 -85.7 -5.6 -85.1 -5.6 -84.5" fill="#b2b1cb" fill-rule="evenodd" stroke="none"/>
      <path d="M-8.6 -102.05 L-9.8 -104.45 -9.8 -105.05 -8.6 -103.85 -3.75 -102.05 -6.2 -102.05 -8.6 -102.05 M-4.4 -112.3 L-3.15 -111.7 -2.55 -110.5 -0.15 -114.15 1.05 -109.9 1.05 -105.65 1.65 -105.65 -2.55 -105.05 -1.95 -106.85 -1.95 -109.9 -2.55 -109.9 -4.4 -111.7 -4.4 -112.3 M2.3 -103.25 L3.5 -104.45 4.7 -106.25 4.1 -102.65 1.05 -102.65 -1.95 -102.05 2.3 -103.25" fill="#333333" fill-rule="evenodd" stroke="none"/>
      <path d="M2.4 -95.7 L2.9 -96.0 2.9 -96.6 2.3 -97.2 2.3 -96.6 2.25 -96.55 1.65 -100.2 -5.8 -100.2 -6.2 -100.2 -5.6 -101.45 -2.55 -101.45 2.3 -102.05 8.3 -65.15 6.5 -63.95 4.1 -85.1 2.4 -95.7" fill="#7173b3" fill-rule="evenodd" stroke="none"/>
      <path d="M-6.1 -96.65 L-6.2 -96.6 -6.2 -97.9 -6.2 -99.6 -5.9 -99.6 -5.6 -99.6 -6.1 -96.65 M-6.2 -80.0 L-6.2 -75.2 -6.8 -74.2 -9.2 -67.55 -7.4 -76.05 -6.2 -80.0 M-6.2 -74.5 L-6.2 -62.4 -6.2 -62.1 -9.2 -64.7 -9.2 -66.95 -6.8 -73.6 -6.2 -74.5 M-6.2 -81.95 L-8.6 -74.2 -9.8 -68.15 -9.8 -65.75 -9.35 -64.8 -10.45 -65.75 -10.45 -65.85 -8.6 -82.7 -6.25 -96.0 -6.2 -96.0 -6.2 -95.4 -6.2 -91.15 -6.2 -81.95" fill="#d9dae6" fill-rule="evenodd" stroke="none"/>
      <path d="M2.3 -103.85 L1.05 -103.25 -2.55 -102.65 -5.0 -102.65 -6.2 -103.25 -5.6 -103.25 -5.0 -103.85 -5.6 -104.45 -5.6 -105.05 -2.55 -105.05 1.65 -105.05 1.05 -104.45 1.65 -103.85 2.3 -103.85 M0.45 -103.85 L0.45 -104.45 -0.15 -104.45 -0.75 -104.05 -0.75 -103.85 -0.15 -103.25 0.45 -103.85 M-1.95 -103.25 L-1.35 -103.85 -1.95 -104.45 -2.55 -104.45 -2.55 -103.85 -1.95 -103.25 M-3.75 -103.25 L-3.15 -103.85 -3.75 -104.45 -4.4 -103.85 -3.75 -103.25" fill="#989898" fill-rule="evenodd" stroke="none"/>
      <path d="M-5.6 -103.25 L-5.6 -103.85 -6.2 -103.85 -5.6 -104.45 -5.0 -103.85 -5.6 -103.25 M1.65 -105.05 L2.2 -104.55 2.3 -104.45 2.2 -104.4 1.65 -103.85 1.65 -105.05 M-0.15 -104.45 L0.45 -103.85 -0.15 -103.25 -0.15 -103.85 -0.75 -103.85 -0.15 -104.45 M-1.95 -104.45 L-1.35 -103.85 -1.95 -103.25 -1.95 -103.85 -2.55 -103.85 -1.95 -104.45 M-3.75 -103.25 L-3.75 -103.85 -4.4 -103.85 -3.75 -104.45 -3.15 -103.85 -3.75 -103.25" fill="#cbcbcb" fill-rule="evenodd" stroke="none"/>
      <path d="M-5.6 -105.05 L-4.4 -112.3 -4.4 -111.7 -2.55 -109.9 -1.95 -109.9 -1.95 -106.85 -2.55 -105.05 -5.6 -105.05" fill="#666666" fill-rule="evenodd" stroke="none"/>
    </g>
    <g id="shape2" transform="matrix(1.0, 0.0, 0.0, 1.0, 40.65, 66.95)">
      <path d="M10.15 -66.95 L11.35 -62.1 10.75 -61.6 34.35 -42.75 33.75 -41.55 36.75 -16.75 31.3 22.55 30.1 22.55 29.5 26.8 28.3 26.8 31.3 32.25 22.25 41.9 15.0 34.65 16.8 32.25 16.2 27.4 16.8 27.4 19.2 24.4 19.2 20.75 18.0 20.75 19.8 5.65 17.4 -7.05 12.55 -1.0 13.75 21.95 13.15 21.95 -1.0 24.75 -3.2 24.4 -4.4 24.4 -4.4 24.2 -17.7 21.95 -18.3 21.95 -16.45 -1.0 -21.9 -7.05 -24.35 5.65 -21.9 20.75 -23.15 20.75 -23.15 24.4 -20.7 27.4 -20.1 27.4 -20.7 32.25 -19.5 34.65 -26.15 41.9 -35.2 32.25 -32.8 26.8 -33.4 26.8 -34.0 22.55 -35.2 22.55 -40.65 -16.75 -37.65 -41.55 -38.25 -42.75 -14.15 -61.65 -14.65 -62.1 -13.45 -66.95 -12.85 -66.95 -1.95 -60.9 9.55 -66.95 10.15 -66.95 M2.3 -55.45 L2.9 -55.45 10.15 -62.1 8.95 -65.75 -0.75 -60.9 2.3 -55.45 M2.3 -53.65 L1.65 -53.65 0.45 -51.25 1.05 -51.25 3.15 -42.9 8.8 -59.9 2.1 -54.0 2.3 -53.65 M16.8 -56.05 L14.35 -57.9 13.75 -50.0 7.1 -48.2 9.55 -42.15 9.55 -42.75 10.75 -42.75 11.35 -42.75 11.35 -41.55 10.75 -40.95 9.55 -41.55 9.55 -42.15 2.1 -33.5 8.95 -42.15 6.5 -48.2 13.15 -50.0 13.75 -58.5 10.75 -60.3 0.0 -31.05 -1.35 -29.45 -1.35 -26.45 1.3 -29.45 1.05 -29.45 0.45 -29.45 -0.15 -30.05 0.45 -31.25 1.05 -31.25 1.65 -31.25 1.65 -30.05 1.65 -29.85 12.55 -42.15 8.95 -47.0 14.35 -47.0 13.75 -47.6 13.75 -48.2 13.75 -48.8 14.35 -49.4 15.0 -49.4 15.0 -48.8 15.6 -48.2 14.35 -47.0 16.2 -47.0 16.2 -54.25 15.6 -54.25 15.0 -54.25 14.35 -54.85 15.6 -56.05 16.8 -56.05 M15.6 -54.25 L15.6 -54.85 16.2 -54.85 15.6 -55.45 15.0 -54.85 15.6 -54.25 M24.65 -27.65 L25.25 -27.65 25.85 -27.05 26.4 -25.95 32.4 -39.65 31.3 -39.15 30.1 -39.75 29.5 -41.55 30.1 -42.75 31.3 -43.35 31.9 -43.35 32.5 -42.75 32.5 -39.95 33.75 -42.75 30.7 -44.55 12.55 -2.25 20.4 -13.75 21.05 -13.75 25.8 -24.55 24.65 -24.0 23.45 -24.6 23.45 -27.05 24.65 -27.65 24.05 -27.05 24.05 -25.2 24.65 -24.6 25.25 -25.2 25.25 -26.45 25.85 -26.45 24.65 -27.65 M31.9 -42.15 L31.3 -42.75 30.1 -41.55 30.7 -40.35 31.3 -39.75 31.9 -40.35 31.9 -42.15 M27.7 -34.9 L28.3 -34.9 28.9 -34.3 28.9 -33.1 28.3 -34.3 27.7 -34.9 27.05 -34.3 26.45 -33.1 27.7 -31.85 28.3 -32.5 28.3 -33.1 28.9 -33.1 28.9 -31.85 27.7 -31.25 26.45 -31.85 25.85 -33.1 26.45 -34.3 27.7 -34.9 M30.1 -44.55 L29.5 -44.55 17.4 -55.45 16.8 -45.8 10.75 -45.8 13.15 -42.15 -0.75 -25.35 -0.75 18.95 12.55 16.5 11.35 -1.65 30.1 -44.55 M15.0 -48.2 L14.35 -48.8 13.75 -48.2 14.35 -47.6 14.35 -48.2 15.0 -48.2 M10.75 -42.75 L10.15 -42.15 10.75 -41.55 10.75 -42.75 M9.55 -47.6 L8.3 -46.4 7.7 -47.0 7.7 -47.6 7.7 -48.2 8.3 -48.2 8.95 -48.2 9.55 -47.6 M7.7 -47.6 L8.3 -46.4 8.3 -47.6 8.95 -47.6 8.3 -48.2 7.7 -47.6 M5.3 -36.1 L5.3 -36.7 5.9 -37.3 6.5 -37.3 6.5 -36.7 7.1 -36.1 6.5 -35.5 5.9 -35.5 5.9 -36.1 6.5 -36.1 5.9 -36.7 5.3 -36.1 5.9 -35.5 5.3 -35.5 5.3 -36.1 M1.05 -29.45 L1.05 -30.05 1.65 -30.05 1.05 -31.25 0.45 -30.05 1.05 -29.45 M7.9 -29.0 L7.7 -28.85 5.3 -29.45 7.9 -29.0 13.75 -33.7 14.35 -33.7 14.35 -33.1 15.6 -33.7 15.85 -33.1 15.6 -33.1 14.35 -32.5 16.8 -28.25 17.4 -28.25 16.6 -31.45 18.0 -28.25 19.2 -28.25 19.2 -27.05 7.9 -29.0 M16.2 -28.25 L13.75 -33.1 8.95 -29.45 15.6 -28.25 16.2 -28.25 M19.8 -15.55 L19.2 -16.75 19.8 -17.95 21.05 -18.55 21.65 -18.55 21.65 -17.95 22.25 -16.75 21.65 -15.55 21.65 -17.35 21.05 -17.95 19.8 -17.35 19.8 -15.55 21.65 -15.55 21.05 -14.95 19.8 -15.55 M28.3 20.15 L28.3 18.95 29.0 18.6 25.35 17.8 25.85 18.35 25.85 19.55 25.25 18.35 24.05 18.35 24.65 17.75 25.0 17.75 19.2 16.5 19.2 18.35 19.2 20.15 30.7 21.95 31.3 18.95 30.7 18.95 30.1 18.8 30.1 18.95 30.7 20.15 30.1 21.35 29.5 21.35 30.1 20.75 30.1 19.55 29.5 18.95 28.3 20.15 29.5 21.35 28.3 21.35 28.3 20.15 M33.1 -39.75 L22.25 -13.75 18.0 -7.7 21.05 6.25 19.2 15.9 31.3 17.75 36.15 -16.15 33.1 -39.75 M25.85 19.55 L25.85 20.15 24.65 20.75 23.45 19.55 24.05 18.35 24.05 20.15 25.25 20.15 25.25 19.55 25.85 19.55 M19.2 18.35 L20.4 17.1 21.05 17.1 21.65 17.75 21.65 18.35 21.65 19.55 20.4 20.15 19.8 19.55 19.2 18.35 M21.65 18.35 L21.05 17.75 19.8 17.75 19.8 19.55 21.05 19.55 21.05 18.35 21.65 18.35 M2.9 5.0 L2.9 4.4 9.0 5.55 2.9 5.0 M4.1 20.75 L4.1 21.35 3.5 21.95 2.3 20.75 3.5 19.55 4.1 19.55 4.1 20.75 3.5 20.15 2.9 20.75 3.5 21.35 3.5 20.75 4.1 20.75 M7.7 18.95 L7.7 19.55 8.3 20.15 7.1 21.35 5.9 20.15 7.1 18.95 7.7 18.95 M6.5 20.15 L7.1 20.75 7.1 20.15 7.7 20.15 7.1 19.55 6.5 20.15 M10.15 19.55 L10.15 18.95 10.75 18.35 11.35 18.35 11.95 18.95 11.95 19.55 10.75 18.95 10.15 19.55 10.75 20.15 11.35 19.55 11.95 19.55 11.95 20.15 10.75 20.75 10.15 20.15 10.15 19.55 M12.55 17.1 L11.95 17.1 -0.75 19.55 -0.75 20.15 -0.15 20.75 -0.15 21.95 -0.75 22.25 -0.75 23.5 13.15 21.35 12.55 17.1 M19.8 21.35 L19.8 24.4 28.9 26.2 29.5 23.15 19.8 21.35 M17.4 32.25 L19.2 32.85 22.85 31.65 22.85 29.2 24.05 33.45 22.85 32.25 19.2 34.65 17.4 32.85 16.8 34.65 22.25 40.7 30.1 31.65 27.7 26.8 20.4 25.6 16.8 28.6 17.4 32.25 M-14.05 -62.1 L-6.2 -54.85 -5.6 -54.85 -3.15 -60.9 -12.85 -65.75 -14.05 -62.1 M-13.2 -60.75 L-17.7 -58.5 -17.1 -50.0 -10.45 -48.2 -12.85 -42.15 -3.15 -30.65 -10.8 -58.5 -13.2 -60.75 M-18.9 -54.25 L-19.5 -54.25 -20.1 -54.25 -20.1 -47.0 -18.3 -47.0 -19.5 -48.2 -18.9 -48.8 -18.9 -49.4 -18.3 -49.4 -17.7 -48.8 -17.7 -48.2 -17.7 -47.6 -18.3 -47.0 -13.45 -47.0 -12.85 -47.6 -12.85 -48.2 -12.25 -48.2 -11.65 -47.6 -11.65 -47.0 -11.65 -46.7 -11.05 -48.2 -17.7 -50.0 -18.3 -57.9 -20.7 -56.05 -19.5 -56.05 -18.9 -55.45 -18.9 -54.85 -18.9 -54.25 M-19.5 -54.25 L-18.9 -54.85 -19.5 -55.45 -20.1 -54.85 -19.5 -54.85 -19.5 -54.25 M-3.15 -54.25 L-3.15 -55.45 -1.95 -56.05 -1.35 -56.05 -0.75 -55.45 -0.75 -53.65 -1.95 -53.05 -3.15 -53.65 -3.15 -54.25 -2.55 -53.65 -1.35 -53.65 -1.35 -54.85 -1.95 -55.45 -3.15 -54.25 M-6.2 -53.65 L-6.0 -54.0 -9.75 -57.55 -6.05 -44.2 -4.4 -50.6 -4.25 -50.75 -6.2 -53.65 M-0.15 -50.6 L-3.15 -50.6 -5.6 -42.15 -1.95 -30.05 2.3 -40.95 -0.15 -50.6 M-3.15 -51.25 L-0.15 -51.25 1.05 -53.65 -1.95 -59.1 -5.0 -53.65 -3.15 -51.25 M-1.95 -43.95 L-2.55 -43.35 -2.55 -42.15 -1.95 -41.55 -0.75 -42.15 -0.75 -43.35 -1.95 -43.95 M-1.35 -44.55 L-0.75 -43.95 -0.15 -42.75 -0.75 -41.55 -1.95 -40.95 -2.55 -41.55 -3.15 -42.75 -2.55 -43.95 -1.95 -44.55 -1.35 -44.55 M-12.25 -47.6 L-12.85 -47.0 -12.25 -47.0 -12.25 -46.4 -11.65 -47.0 -12.25 -47.6 M-12.25 -45.8 L-13.1 -46.65 -17.1 -42.15 -1.4 -24.05 -1.35 -24.0 -1.4 -24.1 -1.95 -28.25 -3.75 -30.4 -3.75 -30.05 -3.75 -29.45 -4.4 -28.85 -5.6 -30.05 -5.0 -30.65 -5.0 -31.25 -4.45 -31.25 -13.45 -42.15 -14.65 -40.95 -15.25 -41.55 -15.25 -42.15 -15.25 -42.75 -14.65 -42.75 -14.05 -42.75 -13.45 -42.15 -11.85 -46.2 -12.25 -45.8 M-18.3 -47.6 L-17.7 -48.2 -18.3 -48.8 -18.9 -48.2 -18.3 -48.2 -18.3 -47.6 M-14.65 -42.75 L-15.25 -42.15 -14.65 -42.15 -14.65 -41.55 -14.05 -42.15 -14.65 -42.75 M-14.65 -45.8 L-20.7 -45.8 -21.3 -55.45 -33.4 -44.55 -34.0 -44.55 -15.85 -1.65 -16.45 16.5 -4.4 18.35 -3.75 -25.8 -17.7 -42.15 -14.65 -45.8 M-10.45 -36.1 L-10.45 -36.7 -9.8 -36.7 -9.2 -36.7 -8.6 -36.1 -9.8 -34.9 -10.45 -35.5 -10.45 -36.1 -9.8 -36.1 -9.8 -35.5 -9.2 -36.1 -9.8 -36.7 -10.45 -36.1 M-3.75 -30.05 L-4.4 -30.65 -5.0 -30.05 -4.4 -30.05 -4.4 -29.45 -3.75 -30.05 M-36.45 -41.55 L-36.45 -42.75 -35.85 -43.35 -35.2 -43.35 -34.3 -42.9 -35.2 -44.55 -37.65 -42.75 -36.45 -40.0 -36.45 -41.55 -35.85 -41.55 -35.85 -40.35 -35.2 -39.75 -34.6 -40.35 -34.0 -41.55 -35.2 -42.75 -36.45 -41.55 M-28.55 -27.65 L-27.35 -27.05 -27.35 -24.6 -28.55 -24.0 -29.7 -24.55 -26.15 -16.55 -26.15 -17.95 -25.55 -18.55 -24.95 -18.55 -23.75 -17.95 -23.15 -16.75 -23.75 -15.55 -24.95 -14.95 -25.6 -15.25 -24.95 -13.75 -24.35 -13.75 -16.45 -2.25 -32.2 -39.15 -34.0 -42.4 -34.0 -41.55 -34.0 -39.75 -35.2 -39.15 -36.3 -39.65 -33.4 -33.1 -30.3 -26.0 -29.8 -27.05 -29.2 -27.65 -28.55 -27.65 -29.2 -27.05 -29.8 -25.8 -29.2 -25.8 -29.2 -25.2 -28.55 -24.6 -27.95 -25.2 -27.95 -27.05 -28.55 -27.65 M-32.2 -34.3 L-32.8 -33.1 -32.2 -33.1 -32.2 -32.5 -31.6 -31.85 -30.4 -33.1 -31.0 -34.3 -31.6 -34.9 -32.2 -34.3 M-33.4 -33.1 L-32.8 -34.3 -32.2 -34.9 -31.6 -34.9 -30.4 -34.3 -30.4 -33.1 -30.4 -31.85 -31.6 -31.25 -32.8 -31.85 -33.4 -33.1 M-25.55 -17.35 L-25.55 -15.55 -24.35 -15.55 -23.75 -16.75 -24.95 -17.95 -25.55 -17.35 M-26.15 -13.75 L-37.05 -39.75 -40.05 -16.15 -35.2 17.75 -23.15 15.9 -24.95 6.25 -21.9 -7.7 -26.15 -13.75 M-1.95 -20.4 L-2.55 -19.15 -1.95 -19.15 -1.95 -18.55 -3.15 -18.55 -3.15 -20.4 -1.95 -20.4 -1.35 -20.4 -1.35 -23.4 -3.15 -25.2 -3.75 18.95 -15.85 17.1 -16.45 17.1 -17.1 21.35 -1.35 23.75 -1.35 21.95 -2.55 22.55 -3.15 21.95 -3.15 21.35 -3.15 20.15 -2.55 20.15 -1.35 20.75 -1.35 15.3 -2.55 15.9 -3.15 15.3 -3.15 14.7 -3.15 13.5 -2.55 13.5 -1.35 14.1 -1.35 8.65 -2.55 8.65 -3.15 8.65 -3.15 8.05 -3.15 6.85 -2.55 6.85 -1.35 6.85 -1.35 2.0 -2.55 2.0 -3.15 2.0 -3.15 0.8 -3.15 0.2 -2.55 0.2 -1.35 0.2 -1.35 -5.25 -2.55 -4.65 -3.15 -5.25 -3.15 -5.85 -3.15 -7.05 -2.55 -7.05 -1.35 -6.45 -1.35 -11.9 -1.95 -11.3 -3.15 -11.9 -3.15 -12.5 -3.15 -13.1 -2.55 -13.75 -1.95 -13.75 -1.35 -13.1 -1.35 -18.55 -1.95 -18.55 -1.35 -19.15 -1.95 -20.4 M-3.15 -12.5 L-2.55 -12.5 -1.95 -11.9 -1.35 -12.5 -1.95 -13.1 -3.15 -12.5 M-1.35 -5.85 L-2.55 -6.45 -3.15 -5.85 -2.55 -5.85 -2.55 -5.25 -1.35 -5.85 M-2.55 2.0 L-1.95 0.8 -2.55 0.2 -3.15 0.8 -2.55 0.8 -2.55 2.0 M-6.8 4.4 L-7.4 5.0 -12.8 5.5 -6.8 4.4 M-3.15 8.05 L-2.55 8.05 -2.55 8.65 -1.95 8.05 -2.55 6.85 -3.15 8.05 M-15.25 18.35 L-14.65 18.35 -14.05 19.55 -14.65 20.15 -15.25 20.15 -15.85 20.15 -15.85 19.55 -15.85 18.35 -15.25 18.35 -15.85 19.55 -15.25 19.55 -15.25 20.15 -14.65 19.55 -15.25 18.35 M-11.65 20.15 L-11.65 18.95 -11.05 18.95 -9.8 20.15 -10.45 20.75 -11.05 20.75 -11.65 20.75 -11.65 20.15 -11.05 20.15 -11.05 20.75 -10.45 20.15 -11.05 19.55 -11.65 20.15 M-2.55 14.7 L-2.55 15.3 -1.95 14.7 -2.55 14.1 -3.15 14.7 -2.55 14.7 M-6.8 19.55 L-6.2 20.15 -6.2 20.75 -6.2 21.35 -6.8 21.95 -8.0 20.75 -7.4 20.15 -7.4 19.55 -6.8 19.55 M-7.4 20.75 L-6.8 20.75 -6.8 21.35 -6.2 20.75 -6.8 20.15 -7.4 20.75 M-3.15 21.35 L-2.55 21.35 -2.55 21.95 -1.95 21.35 -2.55 20.75 -3.15 21.35 M-33.4 21.35 L-32.8 20.75 -32.8 19.55 -33.4 18.95 -34.0 19.55 -34.0 20.75 -33.4 21.35 -34.0 21.35 -34.6 20.15 -34.0 18.95 -34.0 18.8 -34.6 18.95 -35.2 18.95 -34.6 21.95 -23.15 20.15 -23.75 16.5 -32.95 18.55 -32.2 18.95 -32.2 21.35 -33.4 21.35 M-23.75 18.35 L-23.75 19.55 -24.95 20.15 -25.55 19.55 -26.15 18.35 -25.55 17.75 -25.55 17.1 -24.95 17.1 -23.75 17.75 -23.75 18.35 -24.35 17.75 -25.55 17.75 -25.55 19.55 -24.35 19.55 -23.75 18.35 M-29.8 19.55 L-29.8 18.35 -29.2 17.75 -28.55 17.75 -27.95 18.35 -29.2 18.35 -29.8 19.55 -29.2 19.55 -29.2 20.15 -27.95 20.15 -27.95 18.35 -27.35 19.55 -27.95 20.15 -28.55 20.75 -29.8 20.15 -29.8 19.55 M-24.35 21.35 L-33.4 23.15 -32.8 26.2 -23.75 24.4 -24.35 21.35 M-24.35 25.6 L-31.6 26.8 -34.0 31.65 -26.75 40.7 -20.7 34.65 -21.3 32.85 -23.75 34.65 -26.75 32.25 -27.95 33.45 -26.75 29.2 -26.75 31.65 -23.15 32.85 -21.3 32.25 -20.7 28.6 -24.35 25.6" fill="#291214" fill-rule="evenodd" stroke="none"/>
      <path d="M2.3 -53.65 L2.1 -54.0 8.8 -59.9 3.15 -42.9 1.05 -51.25 0.45 -51.25 1.65 -53.65 2.3 -53.65 M2.3 -55.45 L-0.75 -60.9 8.95 -65.75 10.15 -62.1 2.9 -55.45 2.3 -55.45 M15.6 -54.25 L15.0 -54.85 15.6 -55.45 16.2 -54.85 15.6 -54.85 15.6 -54.25 M24.65 -27.65 L25.85 -26.45 25.25 -26.45 25.25 -25.2 24.65 -24.6 24.05 -25.2 24.05 -27.05 24.65 -27.65 M31.9 -42.15 L31.9 -40.35 31.3 -39.75 30.7 -40.35 30.1 -41.55 31.3 -42.75 31.9 -42.15 M27.7 -34.9 L28.3 -34.3 28.9 -33.1 28.3 -33.1 28.3 -32.5 27.7 -31.85 26.45 -33.1 27.05 -34.3 27.7 -34.9 M10.75 -42.75 L10.75 -41.55 10.15 -42.15 10.75 -42.75 M15.0 -48.2 L14.35 -48.2 14.35 -47.6 13.75 -48.2 14.35 -48.8 15.0 -48.2 M7.7 -47.6 L8.3 -48.2 8.95 -47.6 8.3 -47.6 8.3 -46.4 7.7 -47.6 M5.3 -36.1 L5.9 -36.7 6.5 -36.1 5.9 -36.1 5.9 -35.5 5.3 -36.1 M1.05 -29.45 L0.45 -30.05 1.05 -31.25 1.65 -30.05 1.05 -30.05 1.05 -29.45 M15.85 -33.1 L16.2 -33.1 16.6 -31.45 17.4 -28.25 16.8 -28.25 14.35 -32.5 15.6 -33.1 15.85 -33.1 M16.2 -28.25 L15.6 -28.25 8.95 -29.45 13.75 -33.1 16.2 -28.25 M19.8 -15.55 L19.8 -17.35 21.05 -17.95 21.65 -17.35 21.65 -15.55 19.8 -15.55 M28.3 20.15 L29.5 18.95 30.1 19.55 30.1 20.75 29.5 21.35 28.3 20.15 M24.05 18.35 L25.25 18.35 25.85 19.55 25.25 19.55 25.25 20.15 24.05 20.15 24.05 18.35 M21.65 18.35 L21.05 18.35 21.05 19.55 19.8 19.55 19.8 17.75 21.05 17.75 21.65 18.35 M4.1 20.75 L3.5 20.75 3.5 21.35 2.9 20.75 3.5 20.15 4.1 20.75 M6.5 20.15 L7.1 19.55 7.7 20.15 7.1 20.15 7.1 20.75 6.5 20.15 M10.15 19.55 L10.75 18.95 11.95 19.55 11.35 19.55 10.75 20.15 10.15 19.55 M-14.05 -62.1 L-12.85 -65.75 -3.15 -60.9 -5.6 -54.85 -6.2 -54.85 -14.05 -62.1 M-19.5 -54.25 L-19.5 -54.85 -20.1 -54.85 -19.5 -55.45 -18.9 -54.85 -19.5 -54.25 M-3.15 -54.25 L-1.95 -55.45 -1.35 -54.85 -1.35 -53.65 -2.55 -53.65 -3.15 -54.25 M-6.2 -53.65 L-4.25 -50.75 -4.4 -50.6 -6.05 -44.2 -9.75 -57.55 -6.0 -54.0 -6.2 -53.65 M-1.95 -43.95 L-0.75 -43.35 -0.75 -42.15 -1.95 -41.55 -2.55 -42.15 -2.55 -43.35 -1.95 -43.95 M-12.25 -47.6 L-11.65 -47.0 -12.25 -46.4 -12.25 -47.0 -12.85 -47.0 -12.25 -47.6 M-14.65 -42.75 L-14.05 -42.15 -14.65 -41.55 -14.65 -42.15 -15.25 -42.15 -14.65 -42.75 M-18.3 -47.6 L-18.3 -48.2 -18.9 -48.2 -18.3 -48.8 -17.7 -48.2 -18.3 -47.6 M-10.45 -36.1 L-9.8 -36.7 -9.2 -36.1 -9.8 -35.5 -9.8 -36.1 -10.45 -36.1 M-3.75 -30.05 L-4.4 -29.45 -4.4 -30.05 -5.0 -30.05 -4.4 -30.65 -3.75 -30.05 M-36.45 -41.55 L-35.2 -42.75 -34.0 -41.55 -34.6 -40.35 -35.2 -39.75 -35.85 -40.35 -35.85 -41.55 -36.45 -41.55 M-28.55 -27.65 L-27.95 -27.05 -27.95 -25.2 -28.55 -24.6 -29.2 -25.2 -29.2 -25.8 -29.8 -25.8 -29.2 -27.05 -28.55 -27.65 M-32.2 -34.3 L-31.6 -34.9 -31.0 -34.3 -30.4 -33.1 -31.6 -31.85 -32.2 -32.5 -32.2 -33.1 -32.8 -33.1 -32.2 -34.3 M-25.55 -17.35 L-24.95 -17.95 -23.75 -16.75 -24.35 -15.55 -25.55 -15.55 -25.55 -17.35 M-1.95 -18.55 L-1.95 -19.15 -2.55 -19.15 -1.95 -20.4 -1.35 -19.15 -1.95 -18.55 M-3.15 -12.5 L-1.95 -13.1 -1.35 -12.5 -1.95 -11.9 -2.55 -12.5 -3.15 -12.5 M-1.35 -5.85 L-2.55 -5.25 -2.55 -5.85 -3.15 -5.85 -2.55 -6.45 -1.35 -5.85 M-2.55 2.0 L-2.55 0.8 -3.15 0.8 -2.55 0.2 -1.95 0.8 -2.55 2.0 M-3.15 8.05 L-2.55 6.85 -1.95 8.05 -2.55 8.65 -2.55 8.05 -3.15 8.05 M-15.25 18.35 L-14.65 19.55 -15.25 20.15 -15.25 19.55 -15.85 19.55 -15.25 18.35 M-11.65 20.15 L-11.05 19.55 -10.45 20.15 -11.05 20.75 -11.05 20.15 -11.65 20.15 M-2.55 14.7 L-3.15 14.7 -2.55 14.1 -1.95 14.7 -2.55 15.3 -2.55 14.7 M-3.15 21.35 L-2.55 20.75 -1.95 21.35 -2.55 21.95 -2.55 21.35 -3.15 21.35 M-7.4 20.75 L-6.8 20.15 -6.2 20.75 -6.8 21.35 -6.8 20.75 -7.4 20.75 M-33.4 21.35 L-34.0 20.75 -34.0 19.55 -33.4 18.95 -32.8 19.55 -32.8 20.75 -33.4 21.35 M-23.75 18.35 L-24.35 19.55 -25.55 19.55 -25.55 17.75 -24.35 17.75 -23.75 18.35 M-29.8 19.55 L-29.2 18.35 -27.95 18.35 -27.95 20.15 -29.2 20.15 -29.2 19.55 -29.8 19.55" fill="#c25e86" fill-rule="evenodd" stroke="none"/>
      <path d="M-3.15 -54.25 L-3.15 -53.65 -1.95 -53.05 -0.75 -53.65 -0.75 -55.45 -1.35 -56.05 -1.95 -56.05 -3.15 -55.45 -3.15 -54.25 M-3.15 -51.25 L-5.0 -53.65 -1.95 -59.1 1.05 -53.65 -0.15 -51.25 -3.15 -51.25 M-0.15 -50.6 L2.3 -40.95 -1.95 -30.05 -5.6 -42.15 -3.15 -50.6 -0.15 -50.6 M-1.35 -44.55 L-1.95 -44.55 -2.55 -43.95 -3.15 -42.75 -2.55 -41.55 -1.95 -40.95 -0.75 -41.55 -0.15 -42.75 -0.75 -43.95 -1.35 -44.55" fill="#6c1836" fill-rule="evenodd" stroke="none"/>
      <path d="M16.8 -56.05 L15.6 -56.05 14.35 -54.85 15.0 -54.25 15.6 -54.25 16.2 -54.25 16.2 -47.0 14.35 -47.0 15.6 -48.2 15.0 -48.8 15.0 -49.4 14.35 -49.4 13.75 -48.8 13.75 -48.2 13.75 -47.6 14.35 -47.0 8.95 -47.0 12.55 -42.15 1.65 -29.85 1.65 -30.05 1.65 -31.25 1.05 -31.25 0.45 -31.25 -0.15 -30.05 0.45 -29.45 1.05 -29.45 1.3 -29.45 -1.35 -26.45 -1.35 -29.45 0.0 -31.05 10.75 -60.3 13.75 -58.5 13.15 -50.0 6.5 -48.2 8.95 -42.15 2.1 -33.5 9.55 -42.15 9.55 -41.55 10.75 -40.95 11.35 -41.55 11.35 -42.75 10.75 -42.75 9.55 -42.75 9.55 -42.15 7.1 -48.2 13.75 -50.0 14.35 -57.9 16.8 -56.05 M24.65 -27.65 L23.45 -27.05 23.45 -24.6 24.65 -24.0 25.8 -24.55 21.05 -13.75 20.4 -13.75 12.55 -2.25 30.7 -44.55 33.75 -42.75 32.5 -39.95 32.5 -42.75 31.9 -43.35 31.3 -43.35 30.1 -42.75 29.5 -41.55 30.1 -39.75 31.3 -39.15 32.4 -39.65 26.4 -25.95 25.85 -27.05 25.25 -27.65 24.65 -27.65 M30.1 -44.55 L11.35 -1.65 12.55 16.5 -0.75 18.95 -0.75 -25.35 13.15 -42.15 10.75 -45.8 16.8 -45.8 17.4 -55.45 29.5 -44.55 30.1 -44.55 M28.9 -33.1 L28.9 -34.3 28.3 -34.9 27.7 -34.9 26.45 -34.3 25.85 -33.1 26.45 -31.85 27.7 -31.25 28.9 -31.85 28.9 -33.1 M9.55 -47.6 L8.95 -48.2 8.3 -48.2 7.7 -48.2 7.7 -47.6 7.7 -47.0 8.3 -46.4 9.55 -47.6 M5.9 -35.5 L6.5 -35.5 7.1 -36.1 6.5 -36.7 6.5 -37.3 5.9 -37.3 5.3 -36.7 5.3 -36.1 5.3 -35.5 5.9 -35.5 M7.9 -29.0 L5.3 -29.45 7.7 -28.85 7.9 -29.0 19.2 -27.05 19.2 -28.25 18.0 -28.25 16.6 -31.45 16.2 -33.1 15.85 -33.1 15.6 -33.7 14.35 -33.1 14.35 -33.7 13.75 -33.7 7.9 -29.0 M21.65 -15.55 L22.25 -16.75 21.65 -17.95 21.65 -18.55 21.05 -18.55 19.8 -17.95 19.2 -16.75 19.8 -15.55 21.05 -14.95 21.65 -15.55 M33.1 -39.75 L36.15 -16.15 31.3 17.75 19.2 15.9 21.05 6.25 18.0 -7.7 22.25 -13.75 33.1 -39.75 M25.85 19.55 L25.85 18.35 25.35 17.8 29.0 18.6 28.3 18.95 28.3 20.15 28.3 21.35 29.5 21.35 30.1 21.35 30.7 20.15 30.1 18.95 30.1 18.8 30.7 18.95 31.3 18.95 30.7 21.95 19.2 20.15 19.2 18.35 19.2 16.5 25.0 17.75 24.65 17.75 24.05 18.35 23.45 19.55 24.65 20.75 25.85 20.15 25.85 19.55 M19.2 18.35 L19.8 19.55 20.4 20.15 21.65 19.55 21.65 18.35 21.65 17.75 21.05 17.1 20.4 17.1 19.2 18.35 M2.9 5.0 L9.0 5.55 2.9 4.4 2.9 5.0 M4.1 20.75 L4.1 19.55 3.5 19.55 2.3 20.75 3.5 21.95 4.1 21.35 4.1 20.75 M7.7 18.95 L7.1 18.95 5.9 20.15 7.1 21.35 8.3 20.15 7.7 19.55 7.7 18.95 M12.55 17.1 L13.15 21.35 -0.75 23.5 -0.75 22.25 -0.15 21.95 -0.15 20.75 -0.75 20.15 -0.75 19.55 11.95 17.1 12.55 17.1 M11.95 19.55 L11.95 18.95 11.35 18.35 10.75 18.35 10.15 18.95 10.15 19.55 10.15 20.15 10.75 20.75 11.95 20.15 11.95 19.55 M19.8 21.35 L29.5 23.15 28.9 26.2 19.8 24.4 19.8 21.35 M-18.9 -54.25 L-18.9 -54.85 -18.9 -55.45 -19.5 -56.05 -20.7 -56.05 -18.3 -57.9 -17.7 -50.0 -11.05 -48.2 -11.65 -46.7 -11.65 -47.0 -11.65 -47.6 -12.25 -48.2 -12.85 -48.2 -12.85 -47.6 -13.45 -47.0 -18.3 -47.0 -17.7 -47.6 -17.7 -48.2 -17.7 -48.8 -18.3 -49.4 -18.9 -49.4 -18.9 -48.8 -19.5 -48.2 -18.3 -47.0 -20.1 -47.0 -20.1 -54.25 -19.5 -54.25 -18.9 -54.25 M-13.2 -60.75 L-10.8 -58.5 -3.15 -30.65 -12.85 -42.15 -10.45 -48.2 -17.1 -50.0 -17.7 -58.5 -13.2 -60.75 M-12.25 -45.8 L-11.85 -46.2 -13.45 -42.15 -14.05 -42.75 -14.65 -42.75 -15.25 -42.75 -15.25 -42.15 -15.25 -41.55 -14.65 -40.95 -13.45 -42.15 -4.45 -31.25 -5.0 -31.25 -5.0 -30.65 -5.6 -30.05 -4.4 -28.85 -3.75 -29.45 -3.75 -30.05 -3.75 -30.4 -1.95 -28.25 -1.4 -24.1 -1.35 -24.0 -1.4 -24.05 -17.1 -42.15 -13.1 -46.65 -12.25 -45.8 M-10.45 -36.1 L-10.45 -35.5 -9.8 -34.9 -8.6 -36.1 -9.2 -36.7 -9.8 -36.7 -10.45 -36.7 -10.45 -36.1 M-14.65 -45.8 L-17.7 -42.15 -3.75 -25.8 -4.4 18.35 -16.45 16.5 -15.85 -1.65 -34.0 -44.55 -33.4 -44.55 -21.3 -55.45 -20.7 -45.8 -14.65 -45.8 M-36.45 -41.55 L-36.45 -40.0 -37.65 -42.75 -35.2 -44.55 -34.3 -42.9 -35.2 -43.35 -35.85 -43.35 -36.45 -42.75 -36.45 -41.55 M-34.0 -41.55 L-34.0 -42.4 -32.2 -39.15 -16.45 -2.25 -24.35 -13.75 -24.95 -13.75 -25.6 -15.25 -24.95 -14.95 -23.75 -15.55 -23.15 -16.75 -23.75 -17.95 -24.95 -18.55 -25.55 -18.55 -26.15 -17.95 -26.15 -16.55 -29.7 -24.55 -28.55 -24.0 -27.35 -24.6 -27.35 -27.05 -28.55 -27.65 -29.2 -27.65 -29.8 -27.05 -30.3 -26.0 -33.4 -33.1 -36.3 -39.65 -35.2 -39.15 -34.0 -39.75 -34.0 -41.55 M-33.4 -33.1 L-32.8 -31.85 -31.6 -31.25 -30.4 -31.85 -30.4 -33.1 -30.4 -34.3 -31.6 -34.9 -32.2 -34.9 -32.8 -34.3 -33.4 -33.1 M-26.15 -13.75 L-21.9 -7.7 -24.95 6.25 -23.15 15.9 -35.2 17.75 -40.05 -16.15 -37.05 -39.75 -26.15 -13.75 M-1.95 -20.4 L-3.15 -20.4 -3.15 -18.55 -1.95 -18.55 -1.35 -18.55 -1.35 -13.1 -1.95 -13.75 -2.55 -13.75 -3.15 -13.1 -3.15 -12.5 -3.15 -11.9 -1.95 -11.3 -1.35 -11.9 -1.35 -6.45 -2.55 -7.05 -3.15 -7.05 -3.15 -5.85 -3.15 -5.25 -2.55 -4.65 -1.35 -5.25 -1.35 0.2 -2.55 0.2 -3.15 0.2 -3.15 0.8 -3.15 2.0 -2.55 2.0 -1.35 2.0 -1.35 6.85 -2.55 6.85 -3.15 6.85 -3.15 8.05 -3.15 8.65 -2.55 8.65 -1.35 8.65 -1.35 14.1 -2.55 13.5 -3.15 13.5 -3.15 14.7 -3.15 15.3 -2.55 15.9 -1.35 15.3 -1.35 20.75 -2.55 20.15 -3.15 20.15 -3.15 21.35 -3.15 21.95 -2.55 22.55 -1.35 21.95 -1.35 23.75 -17.1 21.35 -16.45 17.1 -15.85 17.1 -3.75 18.95 -3.15 -25.2 -1.35 -23.4 -1.35 -20.4 -1.95 -20.4 M-6.8 4.4 L-12.8 5.5 -7.4 5.0 -6.8 4.4 M-15.25 18.35 L-15.85 18.35 -15.85 19.55 -15.85 20.15 -15.25 20.15 -14.65 20.15 -14.05 19.55 -14.65 18.35 -15.25 18.35 M-11.65 20.15 L-11.65 20.75 -11.05 20.75 -10.45 20.75 -9.8 20.15 -11.05 18.95 -11.65 18.95 -11.65 20.15 M-6.8 19.55 L-7.4 19.55 -7.4 20.15 -8.0 20.75 -6.8 21.95 -6.2 21.35 -6.2 20.75 -6.2 20.15 -6.8 19.55 M-33.4 21.35 L-32.2 21.35 -32.2 18.95 -32.95 18.55 -23.75 16.5 -23.15 20.15 -34.6 21.95 -35.2 18.95 -34.6 18.95 -34.0 18.8 -34.0 18.95 -34.6 20.15 -34.0 21.35 -33.4 21.35 M-23.75 18.35 L-23.75 17.75 -24.95 17.1 -25.55 17.1 -25.55 17.75 -26.15 18.35 -25.55 19.55 -24.95 20.15 -23.75 19.55 -23.75 18.35 M-27.95 18.35 L-28.55 17.75 -29.2 17.75 -29.8 18.35 -29.8 19.55 -29.8 20.15 -28.55 20.75 -27.95 20.15 -27.35 19.55 -27.95 18.35 M-24.35 21.35 L-23.75 24.4 -32.8 26.2 -33.4 23.15 -24.35 21.35" fill="#481520" fill-rule="evenodd" stroke="none"/>
      <path d="M17.4 32.25 L16.8 28.6 20.4 25.6 27.7 26.8 30.1 31.65 22.25 40.7 16.8 34.65 17.4 32.85 19.2 34.65 22.85 32.25 24.05 33.45 22.85 29.2 22.85 31.65 19.2 32.85 17.4 32.25 M-24.35 25.6 L-20.7 28.6 -21.3 32.25 -23.15 32.85 -26.75 31.65 -26.75 29.2 -27.95 33.45 -26.75 32.25 -23.75 34.65 -21.3 32.85 -20.7 34.65 -26.75 40.7 -34.0 31.65 -31.6 26.8 -24.35 25.6" fill="#b2b1cb" fill-rule="evenodd" stroke="none"/>
    </g>
    <g id="shape3" transform="matrix(1.0, 0.0, 0.0, 1.0, 0.6, 0.8)">
      <path d="M84.75 36.95 Q83.45 38.05 80.0 39.65 76.55 41.35 75.25 42.4 73.1 44.25 73.1 46.8 73.1 51.5 78.85 54.95 83.5 57.8 89.65 58.7 91.9 59.05 94.5 58.8 L103.05 57.95 Q105.4 58.15 107.55 59.2 L113.65 61.95 Q116.25 63.6 116.25 67.0 116.25 70.9 113.75 72.0 L109.4 72.5 102.05 70.8 Q97.1 69.75 95.15 72.5 94.1 74.05 94.9 74.95 L97.3 76.4 Q99.05 77.4 99.5 78.6 100.2 80.3 98.8 83.05 96.3 88.1 92.7 85.0 L90.25 82.3 Q89.05 80.75 88.7 80.75 86.1 80.75 85.25 82.1 84.6 83.15 84.6 86.15 L84.6 94.65 Q84.6 97.3 82.9 99.35 81.15 101.45 78.6 101.45 75.1 101.45 72.5 98.55 70.95 96.85 68.5 92.25 66.1 87.65 64.55 85.95 61.95 83.05 58.4 83.05 51.95 83.05 47.45 87.5 44.4 90.5 40.65 97.8 L34.0 109.45 Q29.55 115.55 23.55 117.95 L21.7 117.5 21.25 115.75 Q21.25 110.6 24.15 105.9 25.85 103.1 30.45 98.15 35.0 93.25 36.75 90.4 39.6 85.7 39.6 80.55 39.6 75.4 37.0 71.6 34.05 67.45 29.5 67.45 27.5 67.45 25.45 68.25 L22.05 69.95 Q19.85 71.25 18.65 71.75 16.65 72.5 14.6 72.5 10.65 72.5 7.75 70.3 4.7 67.9 4.7 64.25 4.7 60.35 7.35 57.5 10.05 54.6 13.9 54.6 L22.15 55.95 Q24.9 55.95 26.9 54.5 29.05 52.95 29.05 50.45 29.05 45.75 24.55 43.05 21.85 41.45 14.6 39.45 7.35 37.45 4.65 35.85 0.15 33.15 0.15 28.45 0.15 26.25 2.2 24.95 4.0 23.85 6.55 23.85 9.2 23.85 11.75 24.95 L16.1 27.3 Q18.85 29.05 20.4 29.65 23.0 30.75 25.6 30.75 27.55 30.75 28.55 30.0 29.35 29.4 29.7 28.05 L30.25 25.15 Q30.65 23.1 31.35 21.55 32.8 18.3 34.4 17.85 L35.6 17.75 36.75 17.9 Q37.75 17.9 39.3 18.8 40.85 19.7 41.9 19.7 43.75 19.7 45.1 18.5 46.45 17.25 46.45 15.5 L46.45 7.0 Q46.45 5.55 48.0 4.75 49.3 4.1 51.05 4.1 55.9 4.1 59.25 7.85 62.55 11.5 62.55 16.5 62.55 18.7 61.8 20.85 L60.05 24.5 Q58.8 26.9 58.3 28.2 57.5 30.4 57.5 32.55 57.5 34.15 58.55 35.2 59.65 36.25 61.15 36.25 63.9 36.25 66.3 34.45 67.7 33.4 70.1 30.5 72.55 27.65 73.95 26.55 76.3 24.75 79.1 24.75 82.25 24.75 84.6 27.05 86.9 29.4 86.9 32.55 86.9 35.15 84.75 36.95" fill="#ffe689" fill-rule="evenodd" stroke="none"/>
      <path d="M84.75 36.95 Q83.45 38.05 80.0 39.65 76.55 41.35 75.25 42.4 73.1 44.25 73.1 46.8 73.1 51.5 78.85 54.95 83.5 57.8 89.65 58.7 91.9 59.05 94.5 58.8 L103.05 57.95 Q105.4 58.15 107.55 59.2 L113.65 61.95 Q116.25 63.6 116.25 67.0 116.25 70.9 113.75 72.0 L109.4 72.5 102.05 70.8 Q97.1 69.75 95.15 72.5 94.1 74.05 94.9 74.95 L97.3 76.4 Q99.05 77.4 99.5 78.6 100.2 80.3 98.8 83.05 96.3 88.1 92.7 85.0 L90.25 82.3 Q89.05 80.75 88.7 80.75 86.1 80.75 85.25 82.1 84.6 83.15 84.6 86.15 L84.6 94.65 Q84.6 97.3 82.9 99.35 81.15 101.45 78.6 101.45 75.1 101.45 72.5 98.55 70.95 96.85 68.5 92.25 66.1 87.65 64.55 85.95 61.95 83.05 58.4 83.05 51.95 83.05 47.45 87.5 44.4 90.5 40.65 97.8 L34.0 109.45 Q29.55 115.55 23.55 117.95 L21.7 117.5 21.25 115.75 Q21.25 110.6 24.15 105.9 25.85 103.1 30.45 98.15 35.0 93.25 36.75 90.4 39.6 85.7 39.6 80.55 39.6 75.4 37.0 71.6 34.05 67.45 29.5 67.45 27.5 67.45 25.45 68.25 L22.05 69.95 Q19.85 71.25 18.65 71.75 16.65 72.5 14.6 72.5 10.65 72.5 7.75 70.3 4.7 67.9 4.7 64.25 4.7 60.35 7.35 57.5 10.05 54.6 13.9 54.6 L22.15 55.95 Q24.9 55.95 26.9 54.5 29.05 52.95 29.05 50.45 29.05 45.75 24.55 43.05 21.85 41.45 14.6 39.45 7.35 37.45 4.65 35.85 0.15 33.15 0.15 28.45 0.15 26.25 2.2 24.95 4.0 23.85 6.55 23.85 9.2 23.85 11.75 24.95 L16.1 27.3 Q18.85 29.05 20.4 29.65 23.0 30.75 25.6 30.75 27.55 30.75 28.55 30.0 29.35 29.4 29.7 28.05 L30.25 25.15 Q30.65 23.1 31.35 21.55 32.8 18.3 34.4 17.85 L35.6 17.75 36.75 17.9 Q37.75 17.9 39.3 18.8 40.85 19.7 41.9 19.7 43.75 19.7 45.1 18.5 46.45 17.25 46.45 15.5 L46.45 7.0 Q46.45 5.55 48.0 4.75 49.3 4.1 51.05 4.1 55.9 4.1 59.25 7.85 62.55 11.5 62.55 16.5 62.55 18.7 61.8 20.85 L60.05 24.5 Q58.8 26.9 58.3 28.2 57.5 30.4 57.5 32.55 57.5 34.15 58.55 35.2 59.65 36.25 61.15 36.25 63.9 36.25 66.3 34.45 67.7 33.4 70.1 30.5 72.55 27.65 73.95 26.55 76.3 24.75 79.1 24.75 82.25 24.75 84.6 27.05 86.9 29.4 86.9 32.55 86.9 35.15 84.75 36.95 Z" fill="none" stroke="#ffce27" stroke-linecap="round" stroke-linejoin="round" stroke-width="1.5"/>
      <path d="M52.9 106.25 Q52.9 109.95 54.4 112.55 55.9 115.2 57.95 115.2 60.05 115.2 61.55 112.55 63.0 109.95 63.0 106.25 63.0 102.55 61.55 99.9 60.05 97.3 57.95 97.3 55.9 97.3 54.4 99.9 52.9 102.55 52.9 106.25" fill="#ffe689" fill-rule="evenodd" stroke="none"/>
      <path d="M52.9 106.25 Q52.9 102.55 54.4 99.9 55.9 97.3 57.95 97.3 60.05 97.3 61.55 99.9 63.0 102.55 63.0 106.25 63.0 109.95 61.55 112.55 60.05 115.2 57.95 115.2 55.9 115.2 54.4 112.55 52.9 109.95 52.9 106.25 Z" fill="none" stroke="#ffce27" stroke-linecap="round" stroke-linejoin="round" stroke-width="1.5"/>
      <path d="M81.45 8.45 Q83.05 5.75 83.3 3.3 83.5 0.9 82.25 0.2 81.0 -0.5 79.05 0.85 77.1 2.3 75.5 5.0 73.8 8.0 72.75 12.0 71.65 16.35 72.8 17.0 73.95 17.65 77.0 14.45 79.65 11.6 81.45 8.45" fill="#ffe689" fill-rule="evenodd" stroke="none"/>
      <path d="M81.45 8.45 Q79.65 11.6 77.0 14.45 73.95 17.65 72.8 17.0 71.65 16.35 72.75 12.0 73.8 8.0 75.5 5.0 77.1 2.3 79.05 0.85 81.0 -0.5 82.25 0.2 83.5 0.9 83.3 3.3 83.05 5.75 81.45 8.45 Z" fill="none" stroke="#ffce27" stroke-linecap="round" stroke-linejoin="round" stroke-width="1.5"/>
      <path d="M5.85 28.85 L7.0 26.15 5.15 26.6 3.95 28.35 Q3.35 29.25 3.35 30.25 3.35 30.8 3.95 31.25 L4.7 32.1 4.9 31.95 Q5.15 32.1 5.15 31.65 5.15 30.3 5.85 28.85" fill="#ffffff" fill-rule="evenodd" stroke="none"/>
      <path d="M33.6 24.75 L33.15 26.6 Q32.7 27.95 32.7 28.45 32.7 28.95 33.4 29.25 34.4 29.65 34.55 29.8 34.55 27.65 35.4 25.55 L37.3 21.55 35.45 21.1 Q34.35 23.05 33.6 24.75" fill="#ffffff" fill-rule="evenodd" stroke="none"/>
      <path d="M48.25 11.55 Q48.15 13.55 48.75 15.1 49.4 16.55 49.9 13.9 L50.6 9.15 50.15 7.3 48.3 7.8 48.25 11.55" fill="#ffffff" fill-rule="evenodd" stroke="none"/>
      <path d="M71.25 33.5 Q73.8 31.85 75.15 31.25 76.8 30.5 79.55 29.8 L77.7 28.45 Q75.6 28.9 74.0 30.25 72.95 31.2 71.25 33.5" fill="#ffffff" fill-rule="evenodd" stroke="none"/>
      <path d="M12.95 60.1 L12.5 59.2 Q12.05 58.65 12.05 58.25 10.25 59.1 9.35 59.9 8.2 60.85 7.45 62.4 L8.35 65.95 Q8.3 65.55 8.95 65.2 9.75 64.8 9.75 64.25 9.75 63.2 11.35 62.15 12.95 61.15 12.95 60.1" fill="#ffffff" fill-rule="evenodd" stroke="none"/>
      <path d="M40.05 62.4 L38.6 63.85 Q37.75 64.7 37.75 65.6 37.75 67.0 38.7 68.15 L40.75 70.05 42.8 71.9 Q43.7 73.1 43.7 74.45 L43.25 78.0 Q45.5 76.8 49.35 76.35 L55.65 75.25 Q53.95 74.4 51.0 73.6 L46.4 72.3 Q44.0 71.45 42.85 70.3 41.45 68.9 41.45 66.65 L41.65 64.3 41.9 61.95 40.05 62.4" fill="#ffffff" fill-rule="evenodd" stroke="none"/>
      <path d="M23.55 113.85 L26.2 109.4 Q27.8 106.85 28.1 104.65 L26.3 106.0 24.45 109.85 Q23.7 111.7 23.55 113.85" fill="#ffffff" fill-rule="evenodd" stroke="none"/>
      <path d="M54.75 106.0 L58.4 104.2 56.55 100.5 Q55.15 103.4 54.75 106.0" fill="#ffffff" fill-rule="evenodd" stroke="none"/>
      <path d="M75.65 84.9 L76.3 82.6 Q76.3 82.15 75.9 81.65 L75.4 80.75 74.1 82.9 72.75 84.75 Q71.25 86.9 71.25 89.05 71.25 89.7 71.6 90.45 L72.2 91.8 Q72.8 91.85 74.7 92.55 76.5 93.25 77.25 93.15 L77.7 91.35 Q77.4 90.65 75.95 89.3 74.95 88.3 74.95 87.2 74.95 86.3 75.65 84.9" fill="#ffffff" fill-rule="evenodd" stroke="none"/>
      <path d="M81.1 66.6 L85.5 63.75 83.65 64.25 77.95 63.4 Q75.15 62.65 73.1 60.55 73.2 61.55 72.9 64.0 72.6 66.45 72.65 67.45 L74.45 67.75 76.2 67.9 Q78.7 67.9 81.1 66.6" fill="#ffffff" fill-rule="evenodd" stroke="none"/>
      <path d="M56.55 17.9 Q55.1 22.35 51.7 27.9 47.95 34.1 46.45 37.6 47.3 38.05 49.4 38.35 51.05 38.65 52.0 39.45 52.8 40.15 53.2 41.5 L53.75 43.9 Q54.05 45.35 54.45 45.95 55.05 46.8 56.1 46.8 57.8 46.8 58.85 45.35 59.8 44.05 59.8 42.2 59.8 40.6 58.95 39.05 L57.05 36.45 55.15 33.95 Q54.3 32.4 54.3 30.75 54.3 27.8 55.45 24.3 56.55 20.8 56.55 17.9" fill="#ffb64b" fill-rule="evenodd" stroke="none"/>
      <path d="M68.95 47.7 Q69.2 44.95 70.65 42.9 71.8 41.25 74.1 39.6 L78.45 36.7 Q81.15 34.85 82.75 33.0 81.05 34.15 78.1 35.4 74.1 37.1 73.45 37.45 71.05 38.6 69.9 40.0 68.5 41.7 68.5 44.15 L68.95 47.7" fill="#ffb64b" fill-rule="evenodd" stroke="none"/>
      <path d="M66.2 83.5 L65.75 81.7 Q63.7 77.8 58.85 77.1 53.2 77.7 50.05 78.85 45.3 80.6 47.4 83.05 48.15 84.0 51.9 82.55 57.1 80.55 58.85 80.3 62.45 81.1 66.2 83.5" fill="#ffb64b" fill-rule="evenodd" stroke="none"/>
      <path d="M81.85 97.05 L82.5 88.65 Q82.35 90.1 81.1 92.1 L78.65 95.4 Q77.25 97.2 77.1 97.9 76.85 98.9 78.4 98.9 L79.4 98.9 80.3 98.85 Q81.25 98.55 81.85 97.05" fill="#ffb64b" fill-rule="evenodd" stroke="none"/>
      <path d="M107.75 67.85 L102.95 68.35 106.15 69.65 109.5 70.2 111.05 70.05 112.6 69.75 112.85 68.85 113.05 67.9 Q113.05 67.45 112.65 66.95 L112.15 66.05 Q109.8 67.35 107.75 67.85" fill="#ffb64b" fill-rule="evenodd" stroke="none"/>
      <path d="M56.55 112.45 L59.6 112.5 Q60.7 112.15 60.7 110.6 L60.25 105.1 59.8 106.95 56.55 112.45" fill="#ffb64b" fill-rule="evenodd" stroke="none"/>
      <path d="M29.7 64.0 Q28.05 63.75 25.75 62.55 23.75 61.5 21.7 61.5 20.35 61.5 19.6 62.45 19.05 63.15 18.6 64.75 L17.75 67.45 Q17.1 68.9 15.95 69.5 L20.35 67.9 24.2 66.3 Q28.65 64.55 32.7 64.25 L29.7 64.0" fill="#ffb64b" fill-rule="evenodd" stroke="none"/>
      <path d="M22.8 36.7 Q19.85 34.15 16.8 34.15 L11.35 34.3 15.85 36.0 19.95 37.4 Q24.55 39.05 27.45 41.95 24.9 38.45 22.8 36.7" fill="#ffb64b" fill-rule="evenodd" stroke="none"/>
    </g>
  </defs>
</svg>
