<?xml version="1.0" encoding="UTF-8" standalone="no"?>
<svg xmlns:xlink="http://www.w3.org/1999/xlink" height="77.65px" width="57.75px" xmlns="http://www.w3.org/2000/svg">
  <g transform="matrix(1.0, 0.0, 0.0, 1.0, 28.85, 38.8)">
    <use height="77.65" transform="matrix(1.0, 0.0, 0.0, 1.0, -28.85, -38.8)" width="57.75" xlink:href="#shape0"/>
  </g>
  <defs>
    <g id="shape0" transform="matrix(1.0, 0.0, 0.0, 1.0, 28.85, 38.8)">
      <path d="M9.5 -36.95 Q11.65 -37.2 13.1 -35.7 16.4 -38.15 20.65 -38.75 24.05 -39.05 26.15 -37.6 27.9 -36.35 28.75 -33.85 L28.9 -32.6 Q28.55 -28.0 26.1 -24.05 23.75 -20.1 23.7 -15.5 24.05 -14.2 23.75 -12.9 L22.6 -8.4 22.35 -8.0 22.2 -7.75 Q24.5 -5.65 22.95 -2.4 22.0 -0.35 19.65 0.0 L18.0 0.1 17.05 3.6 Q15.35 8.6 12.05 12.9 L11.15 14.25 Q9.3 16.55 7.05 18.4 3.55 21.9 -0.65 24.5 L-3.05 25.9 -2.75 27.15 -2.7 27.5 Q-2.3 30.25 -2.45 33.15 -2.6 36.15 -4.65 38.05 L-4.75 38.3 -5.15 38.4 -5.25 38.4 Q-15.1 40.25 -22.95 34.2 -28.7 29.8 -28.85 22.65 -28.9 21.1 -28.6 19.55 L-28.3 19.1 -28.35 19.0 -28.35 18.8 -27.85 18.45 -27.65 18.15 -27.05 17.9 -26.85 17.8 -26.35 17.9 -25.6 17.85 -25.6 17.8 Q-18.55 20.45 -11.25 18.6 L-8.35 18.0 Q-6.5 17.65 -5.6 19.1 L-5.4 19.0 -4.15 18.35 Q3.2 14.05 8.25 7.05 L8.95 5.6 Q10.65 3.0 11.75 0.15 L12.15 -1.05 12.2 -1.15 12.35 -1.35 12.4 -1.45 12.45 -1.7 12.5 -1.9 12.55 -1.95 Q11.05 -3.2 10.3 -5.15 9.35 -7.6 11.1 -9.5 L9.8 -11.1 9.8 -11.2 9.75 -11.35 Q4.85 -17.25 6.75 -24.65 6.85 -26.45 7.4 -28.05 L7.5 -30.6 Q7.6 -32.2 6.95 -33.75 6.7 -34.4 6.95 -35.1 L7.8 -36.05 Q8.45 -36.85 9.5 -36.95 M8.6 -30.8 Q9.6 -32.55 11.2 -34.1 L12.3 -35.05 Q10.85 -36.45 8.7 -35.65 L8.45 -35.5 8.3 -35.25 7.9 -34.65 7.7 -34.2 Q8.5 -32.6 8.6 -30.8 M26.0 -36.55 Q20.6 -39.35 15.25 -35.85 11.55 -33.45 9.55 -30.15 L9.15 -29.05 Q6.05 -22.65 8.1 -16.1 9.85 -11.8 13.35 -8.75 L13.4 -8.8 13.8 -8.55 13.85 -8.45 13.85 -8.35 14.5 -7.85 14.55 -7.7 14.15 -7.35 13.8 -7.55 Q13.85 -5.45 16.6 -4.95 L17.25 -4.85 Q19.85 -4.65 20.6 -6.65 L20.35 -6.8 20.3 -6.9 20.25 -7.1 20.25 -7.15 20.35 -7.45 20.45 -7.55 20.6 -7.65 20.7 -7.7 20.8 -7.7 20.75 -7.9 20.8 -8.05 20.75 -8.15 20.95 -8.4 21.15 -8.5 21.25 -8.45 Q23.35 -12.6 23.15 -17.4 23.05 -20.15 24.25 -22.65 L26.75 -27.8 26.8 -27.9 27.3 -28.9 27.7 -29.85 28.05 -32.2 Q28.25 -34.6 26.5 -36.3 L26.0 -36.55 M20.15 -7.1 Q20.65 -6.15 18.95 -5.85 L18.25 -5.85 Q17.5 -5.95 17.05 -6.45 L19.65 -7.0 19.9 -7.05 20.15 -7.1 M12.8 -8.1 L11.7 -8.95 Q9.7 -5.7 12.8 -3.15 13.55 -2.55 14.3 -2.1 17.1 -0.55 20.4 -1.25 L21.45 -1.65 22.1 -2.4 22.4 -3.1 22.5 -3.25 Q23.0 -5.45 21.75 -7.05 21.7 -5.8 20.35 -4.85 18.95 -3.85 17.3 -3.9 L15.9 -4.15 Q13.05 -4.9 12.75 -7.55 L12.8 -8.1 M16.1 3.25 L17.35 0.05 15.2 -0.45 Q14.15 -0.85 13.3 -1.4 L12.5 0.9 Q10.3 6.45 6.25 11.05 1.85 16.1 -4.05 19.25 L-5.65 20.05 -8.15 20.9 Q-9.3 24.05 -9.35 27.1 -5.25 25.85 -1.55 23.75 1.65 21.85 4.55 19.25 L9.1 15.0 Q11.95 11.75 14.15 7.95 L14.15 7.85 14.15 7.65 14.75 6.65 14.85 6.55 16.1 3.25 M-7.0 19.0 Q-9.45 18.9 -11.95 19.7 -13.85 20.35 -15.85 20.4 -20.65 20.5 -25.1 18.9 L-25.95 18.8 -26.65 18.95 Q-28.4 20.5 -28.05 23.25 -27.1 31.35 -19.7 35.35 -13.35 38.75 -6.15 37.8 L-6.0 37.5 -5.75 37.35 -5.2 37.4 Q-3.7 36.0 -3.5 33.75 L-3.35 30.2 -3.4 30.15 -3.8 26.3 Q-6.5 27.65 -9.35 27.95 -9.25 31.4 -7.85 34.85 L-7.3 36.4 -7.5 36.65 -7.7 36.75 Q-10.15 33.75 -10.4 29.75 L-10.45 28.0 -10.55 28.0 -10.65 27.9 -10.6 27.55 -10.5 27.45 -10.4 27.45 Q-10.25 23.9 -8.85 20.75 L-8.9 20.65 Q-8.5 19.35 -6.7 19.35 L-6.75 19.25 -7.0 19.0" fill="#000000" fill-rule="evenodd" stroke="none"/>
      <path d="M20.25 -7.1 L20.3 -6.9 20.35 -6.8 20.6 -6.65 Q19.85 -4.65 17.25 -4.85 L16.6 -4.95 Q13.85 -5.45 13.8 -7.55 L14.15 -7.35 14.55 -7.7 14.5 -7.85 13.85 -8.35 13.85 -8.45 13.8 -8.55 13.4 -8.8 13.35 -8.75 Q9.85 -11.8 8.1 -16.1 6.05 -22.65 9.15 -29.05 L9.55 -30.15 Q11.55 -33.45 15.25 -35.85 20.6 -39.35 26.0 -36.55 L25.8 -35.3 Q25.25 -32.15 22.8 -29.9 L22.05 -29.15 Q20.55 -27.65 19.35 -25.85 17.15 -22.6 17.55 -17.3 17.7 -15.45 18.6 -13.9 19.7 -12.0 20.0 -9.8 20.2 -8.2 19.75 -7.2 L20.15 -7.1 20.25 -7.1 M8.6 -30.8 Q8.5 -32.6 7.7 -34.2 L7.9 -34.65 8.3 -35.25 8.45 -35.5 8.7 -35.65 Q10.85 -36.45 12.3 -35.05 L11.2 -34.1 Q9.6 -32.55 8.6 -30.8 M20.15 -7.1 L19.9 -7.05 19.65 -7.0 17.05 -6.45 Q17.5 -5.95 18.25 -5.85 L18.95 -5.85 Q20.65 -6.15 20.15 -7.1 M21.25 -8.45 L21.15 -8.5 21.25 -8.45 M12.8 -8.1 L12.75 -7.55 Q13.05 -4.9 15.9 -4.15 L17.3 -3.9 Q18.95 -3.85 20.35 -4.85 21.7 -5.8 21.75 -7.05 23.0 -5.45 22.5 -3.25 L22.4 -3.1 22.1 -2.4 21.45 -1.65 20.4 -1.25 Q17.1 -0.55 14.3 -2.1 13.55 -2.55 12.8 -3.15 9.7 -5.7 11.7 -8.95 L12.8 -8.1" fill="#ffffff" fill-rule="evenodd" stroke="none"/>
      <path d="M20.25 -7.1 L20.15 -7.1 19.75 -7.2 Q20.2 -8.2 20.0 -9.8 19.7 -12.0 18.6 -13.9 17.7 -15.45 17.55 -17.3 17.15 -22.6 19.35 -25.85 20.55 -27.65 22.05 -29.15 L22.8 -29.9 Q25.25 -32.15 25.8 -35.3 L26.0 -36.55 26.5 -36.3 Q28.25 -34.6 28.05 -32.2 L27.7 -29.85 27.3 -28.9 26.8 -27.9 26.75 -27.8 24.25 -22.65 Q23.05 -20.15 23.15 -17.4 23.35 -12.6 21.25 -8.45 L21.15 -8.5 20.95 -8.4 20.75 -8.15 20.8 -8.05 20.75 -7.9 20.8 -7.7 20.7 -7.7 20.6 -7.65 20.45 -7.55 20.35 -7.45 20.25 -7.15 20.25 -7.1" fill="#e2ebef" fill-rule="evenodd" stroke="none"/>
      <path d="M12.5 0.9 L13.3 -1.4 Q14.15 -0.85 15.2 -0.45 L17.35 0.05 16.1 3.25 13.6 1.8 12.5 0.9 M-1.55 23.75 Q-5.25 25.85 -9.35 27.1 -9.3 24.05 -8.15 20.9 L-5.65 20.05 -4.05 19.25 Q-3.7 21.55 -1.6 23.7 L-1.55 23.75" fill="#5f5300" fill-rule="evenodd" stroke="none"/>
      <path d="M12.5 0.9 L13.6 1.8 16.1 3.25 14.85 6.55 14.75 6.65 14.15 7.65 14.15 7.85 14.15 7.95 Q11.95 11.75 9.1 15.0 L4.55 19.25 Q1.65 21.85 -1.55 23.75 L-1.6 23.7 Q-3.7 21.55 -4.05 19.25 1.85 16.1 6.25 11.05 10.3 6.45 12.5 0.9" fill="#75640a" fill-rule="evenodd" stroke="none"/>
      <path d="M-7.0 19.0 L-6.75 19.25 -6.7 19.35 Q-8.5 19.35 -8.9 20.65 L-8.85 20.75 Q-10.25 23.9 -10.4 27.45 L-10.5 27.45 -10.6 27.55 -10.65 27.9 -10.55 28.0 -10.45 28.0 -10.4 29.75 Q-10.15 33.75 -7.7 36.75 L-7.5 36.65 -7.3 36.4 -7.85 34.85 Q-9.25 31.4 -9.35 27.95 -6.5 27.65 -3.8 26.3 L-3.4 30.15 -3.35 30.2 -3.5 33.75 Q-3.7 36.0 -5.2 37.4 L-5.75 37.35 -6.0 37.5 -6.15 37.8 Q-13.35 38.75 -19.7 35.35 -27.1 31.35 -28.05 23.25 -28.4 20.5 -26.65 18.95 L-25.95 18.8 -25.1 18.9 Q-20.65 20.5 -15.85 20.4 -13.85 20.35 -11.95 19.7 -9.45 18.9 -7.0 19.0" fill="url(#gradient0)" fill-rule="evenodd" stroke="none"/>
    </g>
    <linearGradient gradientTransform="matrix(-0.0054, 0.0141, -0.011, -0.0042, -20.5, 36.65)" gradientUnits="userSpaceOnUse" id="gradient0" spreadMethod="pad" x1="-819.2" x2="819.2">
      <stop offset="0.0" stop-color="#39fd7b"/>
      <stop offset="1.0" stop-color="#000000"/>
    </linearGradient>
  </defs>
</svg>
