<?xml version="1.0" encoding="UTF-8" standalone="no"?>
<svg xmlns:xlink="http://www.w3.org/1999/xlink" height="97.85px" width="152.55px" xmlns="http://www.w3.org/2000/svg">
  <g transform="matrix(1.0, 0.0, 0.0, 1.0, 76.25, 48.9)">
    <use height="97.85" transform="matrix(1.0, 0.0, 0.0, 1.0, -76.25, -48.9)" width="152.55" xlink:href="#shape0"/>
  </g>
  <defs>
    <g id="shape0" transform="matrix(1.0, 0.0, 0.0, 1.0, 76.25, 48.9)">
      <path d="M20.85 -34.65 Q31.3 -29.1 38.8 -19.85 41.75 -16.2 46.15 -14.3 L51.7 -11.75 Q50.65 -8.0 46.85 -5.65 L44.35 -4.25 45.2 -2.5 45.25 -2.45 45.6 -1.4 45.65 -1.25 Q49.25 7.6 51.0 16.95 L51.05 16.9 51.05 16.85 Q54.2 17.6 53.9 20.55 L56.05 20.45 Q67.0 20.2 74.95 27.1 77.25 29.1 75.65 31.55 73.35 35.15 68.85 35.5 62.3 35.95 56.1 34.05 50.1 32.25 44.15 33.15 L43.15 34.05 Q42.8 34.35 42.3 34.4 36.35 37.1 33.2 31.75 32.35 30.35 33.35 29.0 34.65 27.3 36.65 26.4 38.75 25.4 40.4 23.65 L40.8 23.3 40.15 22.5 Q39.65 19.0 42.5 17.95 40.05 9.5 36.7 1.35 L35.5 -1.5 34.6 -1.4 34.6 0.4 34.5 2.1 Q34.05 11.25 31.15 19.85 L30.15 21.5 30.35 22.4 30.0 22.85 29.8 22.95 29.75 23.05 Q28.45 27.6 24.45 31.1 15.05 39.25 2.6 37.15 L2.8 42.1 2.75 42.25 Q1.95 43.35 0.9 43.65 -1.35 46.5 -5.7 47.25 L-10.55 48.05 -28.15 48.7 -34.55 47.9 Q-39.4 47.1 -43.05 43.95 L-43.05 43.15 -43.15 43.0 Q-43.45 40.0 -42.25 37.25 -41.4 35.3 -40.25 33.65 -43.9 35.5 -48.3 36.0 -56.3 36.9 -64.15 36.35 L-65.35 36.25 Q-71.1 35.55 -75.4 32.2 L-75.55 32.3 -75.9 32.2 -76.25 31.75 Q-74.75 27.85 -72.0 24.6 -67.25 19.05 -60.2 16.85 -56.35 15.65 -52.35 15.25 L-49.25 15.3 Q-48.45 4.55 -42.75 -4.65 -41.2 -7.2 -38.9 -8.9 L-38.9 -8.95 Q-37.85 -10.1 -36.5 -10.65 L-35.75 -10.95 Q-29.55 -8.15 -26.35 -2.3 L-26.05 -4.2 -25.85 -5.5 -25.4 -5.9 -25.15 -5.95 Q-21.85 -1.9 -17.45 0.55 L-17.05 -0.25 -17.1 -0.35 -17.2 -0.65 Q-16.6 -5.55 -14.35 -9.5 -17.4 -10.75 -20.0 -13.4 L-20.15 -14.0 -19.85 -14.75 Q-11.05 -17.8 -5.7 -25.7 -0.3 -33.6 8.7 -36.45 L8.2 -40.75 Q6.3 -44.3 8.6 -47.15 10.1 -49.0 12.45 -48.9 16.9 -46.9 18.55 -43.05 19.7 -40.4 19.45 -36.9 L19.4 -35.8 19.95 -35.3 20.05 -35.15 20.85 -34.6 20.85 -34.65 M28.2 -23.9 Q26.85 -26.5 25.15 -28.75 L25.1 -28.75 Q22.65 -31.95 19.3 -34.4 L19.25 -34.4 19.05 -32.55 19.25 -31.7 19.45 -31.8 19.95 -31.85 19.75 -30.6 Q19.05 -28.6 16.5 -28.05 L14.85 -27.85 Q12.5 -27.75 10.75 -28.45 8.4 -29.45 7.2 -31.95 L7.0 -32.45 7.0 -32.9 Q7.2 -33.3 7.65 -33.25 L7.65 -33.3 Q8.45 -33.1 8.35 -32.3 L8.35 -32.15 8.5 -32.0 9.1 -31.45 8.8 -34.95 4.7 -33.4 2.1 -31.25 2.0 -31.15 Q1.75 -30.5 0.9 -29.75 L0.75 -29.6 Q0.8 -29.15 0.4 -28.85 L0.25 -28.7 -0.4 -26.6 -2.1 -22.0 -3.55 -18.65 -5.55 -14.5 -7.45 -11.1 -9.2 -8.3 -9.4 -8.0 -9.7 -7.8 -9.75 -7.65 -12.05 -4.25 -14.8 -0.85 -15.45 0.05 -14.05 -0.4 -11.15 -0.95 -7.15 -0.9 -7.0 -0.9 Q-5.75 -3.45 -3.9 -5.75 L-3.8 -5.85 -1.95 -7.65 Q-0.85 -8.7 0.65 -9.25 L1.45 -9.5 2.25 -9.75 4.7 -9.1 5.45 -8.7 5.75 -8.55 7.0 -7.05 8.0 -5.7 8.85 -4.3 11.85 1.7 Q19.6 5.25 24.85 11.75 26.85 14.2 28.45 17.1 L29.55 19.45 31.4 13.15 32.5 7.25 33.0 3.0 33.0 2.55 33.05 1.85 33.15 -2.45 Q33.05 -6.45 32.4 -10.35 L31.0 -16.6 29.6 -20.7 28.2 -23.9 M40.1 -4.3 L42.65 -5.3 Q42.8 -5.7 43.25 -5.65 L43.25 -5.7 43.3 -5.6 44.45 -6.15 Q47.8 -7.65 49.75 -10.65 38.2 -16.05 30.25 -26.15 L30.1 -26.3 Q29.9 -26.45 29.85 -26.75 L29.75 -27.05 25.9 -30.1 28.7 -26.25 30.7 -22.2 31.15 -21.0 Q32.35 -17.7 33.15 -14.25 34.45 -8.45 34.6 -2.4 L40.1 -4.3 M17.3 -40.4 L17.25 -40.7 Q16.85 -45.5 12.2 -47.15 11.0 -47.55 9.95 -46.8 8.45 -45.7 8.4 -44.1 L8.4 -44.0 8.45 -44.05 8.45 -44.1 Q9.7 -40.35 10.1 -36.35 10.35 -33.55 10.25 -30.6 13.85 -28.3 17.9 -30.95 L17.3 -40.4 M12.85 7.9 L10.65 2.5 9.3 -1.0 7.75 -3.4 6.8 -4.8 6.55 -5.05 Q3.8 -9.7 -0.5 -6.75 L-1.55 -5.8 Q-5.5 -2.0 -6.75 3.5 L-7.2 4.4 Q-9.45 12.6 -9.65 21.2 -9.65 22.9 -10.0 24.5 L-10.25 24.7 -10.0 24.75 -9.9 24.85 -9.85 25.0 -9.8 25.3 -9.85 25.6 -9.9 25.75 -10.0 25.9 -24.3 25.5 Q-31.5 26.35 -36.6 31.55 -40.45 35.55 -41.75 40.7 L-41.7 42.8 -41.7 42.95 -38.5 45.2 Q-33.35 36.45 -23.35 33.4 L-20.95 32.75 -19.15 32.9 -19.0 32.95 Q-30.6 35.85 -37.0 45.65 L-37.05 45.75 -37.0 45.75 -36.9 45.8 Q-32.2 46.95 -27.55 47.4 -13.8 48.55 -0.85 43.1 -0.15 42.8 0.3 42.1 L1.2 41.1 1.25 41.1 Q0.95 38.85 1.05 36.7 0.75 29.1 1.05 21.45 L0.95 21.0 Q0.95 20.75 1.1 20.6 L1.35 15.5 Q1.8 9.3 4.65 4.4 5.6 5.9 4.65 8.1 4.15 9.15 3.95 10.35 6.1 16.2 6.7 22.4 L6.7 22.45 Q11.1 23.05 14.8 19.0 L14.9 18.95 Q14.6 14.45 13.5 10.2 L12.85 7.9 M43.55 -1.45 L42.9 -3.55 Q39.85 -2.25 36.6 -1.65 L37.95 1.0 Q42.1 9.6 44.35 19.15 L44.35 19.85 46.35 20.35 49.6 20.2 50.05 19.6 Q47.95 8.8 43.65 -1.25 L43.55 -1.45 M65.7 24.6 L65.65 24.75 65.6 24.9 65.55 25.2 65.5 25.35 65.45 25.5 65.3 25.65 65.15 25.8 65.1 25.95 65.05 26.1 64.95 26.2 Q60.55 24.8 55.8 23.95 55.2 23.85 55.15 23.35 55.4 23.0 55.85 23.0 L57.45 23.0 58.25 22.95 Q62.1 22.95 65.6 24.05 L65.7 24.15 65.7 24.3 65.7 24.45 65.7 24.6 M45.85 31.35 Q49.65 30.4 54.05 32.0 62.85 35.2 71.7 32.95 L73.25 32.55 73.4 32.4 74.0 31.8 74.5 30.95 74.9 30.15 Q73.1 25.0 67.15 23.6 L61.85 22.6 53.65 21.7 Q52.55 25.3 48.45 25.85 44.7 26.4 42.1 24.5 39.55 26.1 37.0 27.85 L34.5 29.55 Q34.05 34.15 39.7 33.6 41.45 33.45 42.85 32.35 43.3 31.2 44.55 30.6 L45.05 30.45 Q45.5 30.5 45.75 30.85 L45.85 31.3 45.8 31.35 45.85 31.35 M51.15 20.85 Q49.0 22.4 47.1 22.3 L46.95 22.25 Q45.25 22.05 43.75 20.6 43.45 20.65 43.15 20.35 L42.8 19.05 42.05 20.1 41.6 20.65 Q41.5 21.35 41.85 21.95 L42.3 22.7 Q42.9 22.7 43.25 23.15 L43.3 23.3 43.3 23.45 Q48.45 25.9 51.9 21.7 L52.5 20.55 52.3 19.8 51.95 18.75 51.25 18.45 51.5 20.05 Q51.55 20.5 51.2 20.8 L51.15 20.85 M60.35 27.95 Q58.45 27.05 56.35 27.0 L58.9 28.8 59.1 28.9 60.25 28.1 60.4 27.95 60.35 27.95 M59.05 30.1 L54.95 27.65 52.55 26.3 52.45 26.1 Q52.75 25.6 53.45 25.65 L54.65 25.7 Q58.8 25.6 62.1 27.45 L62.2 27.55 Q62.05 28.2 61.5 28.55 L59.55 29.95 59.05 30.1 M64.5 25.05 Q64.0 24.05 62.05 24.3 L64.35 25.1 64.5 25.05 M27.75 24.3 L28.7 22.45 28.7 22.05 Q27.0 17.15 23.9 13.15 22.2 10.95 20.1 9.0 L17.0 6.05 Q14.9 4.6 12.65 3.5 L14.1 7.35 14.4 7.25 14.65 7.2 Q20.15 10.55 17.9 16.7 16.55 20.4 13.05 22.5 7.75 25.65 2.65 22.65 L2.45 25.3 2.2 31.2 2.4 35.7 2.5 36.15 Q13.7 37.25 22.3 30.4 25.6 27.8 27.75 24.3 M3.5 13.8 L2.75 21.0 5.25 22.1 Q4.65 17.85 3.5 13.8 M16.4 17.15 L16.4 17.25 16.45 17.15 Q18.6 11.7 14.45 8.25 L15.85 13.2 Q16.35 15.15 16.4 17.15 M-27.2 4.3 L-26.75 0.35 -27.35 -0.75 Q-27.65 -1.5 -28.25 -2.05 -29.9 -5.45 -32.95 -7.8 L-34.35 -8.95 Q-34.85 -9.0 -35.3 -9.3 L-35.5 -9.4 -36.85 -8.8 -38.05 -7.75 -38.3 -7.5 -38.65 -7.2 Q-41.8 -4.2 -43.7 -0.2 L-43.8 -0.05 Q-47.0 7.55 -47.9 15.7 L-47.9 15.85 -47.8 16.1 -47.8 16.25 -47.85 16.4 -48.05 16.75 -48.4 18.4 Q-48.9 18.8 -49.25 18.25 L-49.4 17.05 Q-60.1 16.55 -68.5 23.25 -72.0 26.05 -73.75 30.1 L-74.5 31.35 -71.45 32.85 Q-67.6 23.8 -57.7 21.35 L-57.35 21.2 -56.65 21.4 -56.5 21.5 Q-65.0 24.35 -69.4 32.2 L-69.75 32.65 -69.8 32.8 -69.8 32.95 -69.85 33.25 -69.95 33.45 -69.9 33.45 -64.4 34.9 Q-59.7 35.65 -54.5 34.95 L-49.35 34.4 Q-43.75 33.9 -38.95 31.25 L-38.55 31.4 -37.7 30.5 Q-38.75 19.1 -35.15 8.45 -34.2 5.7 -31.95 4.15 -31.55 4.2 -31.35 4.55 L-31.3 4.7 -31.45 5.15 -31.7 5.45 -31.8 5.75 -31.85 6.05 -32.45 7.3 Q-29.55 9.8 -27.45 12.9 -27.55 8.55 -27.2 4.3 M-1.0 -28.35 L-0.9 -28.6 -1.1 -28.45 Q-6.35 -23.65 -11.05 -18.2 -13.75 -15.0 -17.7 -13.6 L-15.5 -11.9 -15.15 -11.65 Q-13.55 -10.65 -11.8 -10.0 L-10.35 -9.5 -10.05 -9.8 -10.0 -10.1 -9.95 -10.25 -9.65 -10.6 Q-8.7 -11.85 -7.9 -13.2 L-7.25 -14.45 -7.15 -14.55 -5.9 -17.15 -5.35 -18.3 Q-3.25 -22.8 -1.6 -27.45 L-1.55 -27.75 -1.0 -28.35 M-11.2 20.2 Q-11.15 12.15 -9.05 4.45 L-7.75 0.7 Q-12.1 0.5 -16.2 1.85 L-16.55 1.95 Q-17.1 2.9 -17.95 3.5 -18.45 3.35 -18.6 2.8 L-18.0 1.6 Q-21.45 0.95 -23.7 -2.4 L-24.35 -3.15 -25.05 0.65 -25.05 0.8 -25.1 1.0 -25.6 6.0 Q-25.85 9.3 -25.7 12.7 -25.5 18.2 -23.75 23.2 L-24.0 23.4 -24.05 23.45 -23.7 23.4 -22.55 23.25 -20.55 23.2 Q-21.9 21.25 -22.3 18.8 L-22.5 18.5 -22.65 18.35 Q-24.7 10.45 -20.15 4.3 -19.65 5.85 -20.5 8.0 -22.0 11.7 -21.35 15.8 L-20.55 19.2 -19.05 23.2 Q-15.0 23.3 -11.1 24.45 L-11.2 20.2 M-12.3 -8.85 L-13.4 -9.15 -15.05 -3.5 -13.3 -5.9 -11.1 -8.6 -12.3 -8.85 M-36.15 20.4 Q-36.6 24.3 -36.35 28.4 L-36.3 29.2 -35.0 28.1 Q-30.2 24.45 -24.4 23.5 L-24.6 23.3 Q-30.75 24.45 -35.7 21.2 -36.1 20.95 -36.15 20.4 M-29.1 18.1 Q-32.3 18.3 -34.5 20.55 -30.4 22.4 -25.45 22.05 -26.75 20.1 -27.15 17.7 L-29.1 18.1 M-27.4 15.6 Q-29.95 11.85 -32.95 8.5 -35.35 14.0 -36.1 20.0 -32.6 16.2 -27.35 16.25 L-27.4 15.65 -27.4 15.6" fill="#000000" fill-rule="evenodd" stroke="none"/>
      <path d="M27.75 2.1 L27.9 2.15 27.9 2.25 27.75 2.1 M-3.9 -5.75 L-3.9 -5.85 -3.8 -5.85 -3.9 -5.75" fill="#f02d0b" fill-rule="evenodd" stroke="none"/>
      <path d="M-47.9 15.7 L-47.8 16.1 -47.9 15.85 -47.9 15.7" fill="#0ecfe4" fill-rule="evenodd" stroke="none"/>
      <path d="M27.2 -24.3 L27.25 -24.25 27.3 -24.2 27.25 -24.1 27.2 -24.3 M28.7 -18.15 L28.6 -18.0 28.55 -18.2 28.7 -18.15" fill="#d6280a" fill-rule="evenodd" stroke="none"/>
      <path d="M45.85 31.3 L45.75 30.85 Q45.5 30.5 45.05 30.45 L44.55 30.6 Q43.3 31.2 42.85 32.35 41.45 33.45 39.7 33.6 34.05 34.15 34.5 29.55 L37.0 27.85 Q39.55 26.1 42.1 24.5 44.7 26.4 48.45 25.85 52.55 25.3 53.65 21.7 L61.85 22.6 67.15 23.6 Q73.1 25.0 74.9 30.15 L74.5 30.95 74.0 31.8 73.4 32.4 73.25 32.55 71.7 32.95 Q62.85 35.2 54.05 32.0 49.65 30.4 45.85 31.35 L45.85 31.3 M65.7 24.6 L65.7 24.45 65.7 24.3 65.7 24.15 65.6 24.05 Q62.1 22.95 58.25 22.95 L57.45 23.0 55.85 23.0 Q55.4 23.0 55.15 23.35 55.2 23.85 55.8 23.95 60.55 24.8 64.95 26.2 L65.05 26.1 65.1 25.95 65.15 25.8 65.3 25.65 65.45 25.5 65.5 25.35 65.55 25.2 65.6 24.9 65.65 24.75 65.7 24.6 M51.2 20.8 Q51.55 20.5 51.5 20.05 L51.25 18.45 51.95 18.75 52.3 19.8 52.5 20.55 51.9 21.7 Q48.45 25.9 43.3 23.45 L43.3 23.3 43.25 23.15 Q42.9 22.7 42.3 22.7 L41.85 21.95 Q41.5 21.35 41.6 20.65 L42.05 20.1 42.8 19.05 43.15 20.35 Q43.45 20.65 43.75 20.6 45.25 22.05 46.95 22.25 L47.1 22.3 Q49.0 22.4 51.15 20.85 L51.2 20.8 M60.25 28.1 L59.1 28.9 58.9 28.8 56.35 27.0 Q58.45 27.05 60.35 27.95 L60.25 28.1 M64.5 25.05 L64.35 25.1 62.05 24.3 Q64.0 24.05 64.5 25.05 M59.05 30.1 L59.55 29.95 61.5 28.55 Q62.05 28.2 62.2 27.55 L62.1 27.45 Q58.8 25.6 54.65 25.7 L53.45 25.65 Q52.75 25.6 52.45 26.1 L52.55 26.3 54.95 27.65 59.05 30.1 M-29.1 18.1 L-27.15 17.7 Q-26.75 20.1 -25.45 22.05 -30.4 22.4 -34.5 20.55 -32.3 18.3 -29.1 18.1" fill="#ffffff" fill-rule="evenodd" stroke="none"/>
      <path d="M-23.75 23.2 L-23.7 23.4 -24.05 23.45 -24.0 23.4 -23.75 23.2" fill="#666666" fill-rule="evenodd" stroke="none"/>
      <path d="M10.1 -36.35 L10.85 -36.35 12.25 -36.5 Q14.1 -37.0 15.5 -38.35 L16.75 -39.7 17.3 -40.4 17.9 -30.95 Q13.85 -28.3 10.25 -30.6 10.35 -33.55 10.1 -36.35 M12.85 7.9 L10.05 3.2 9.5 2.35 Q8.7 0.8 7.25 -0.2 L6.75 -0.65 Q6.2 -1.35 5.25 -1.4 L5.0 -1.3 Q4.9 -1.05 4.45 -1.15 L3.9 -1.1 2.75 -0.7 2.45 -0.6 0.95 2.15 0.15 2.95 -1.25 5.85 -2.0 7.8 Q-3.25 11.4 -4.0 15.2 L-5.05 22.2 -5.5 25.8 -5.75 28.2 -6.4 35.4 -6.4 36.2 -10.35 36.55 Q-14.2 37.45 -17.8 39.15 -20.75 40.55 -23.2 42.75 L-25.3 44.65 Q-26.6 45.9 -27.55 47.4 -32.2 46.95 -36.9 45.8 L-37.0 45.75 -37.0 45.65 Q-30.6 35.85 -19.0 32.95 L-19.15 32.9 -20.95 32.75 -23.35 33.4 Q-33.35 36.45 -38.5 45.2 L-41.7 42.95 -41.7 42.8 -41.75 40.7 Q-40.45 35.55 -36.6 31.55 -31.5 26.35 -24.3 25.5 L-10.0 25.9 -9.9 25.75 -9.85 25.6 -9.8 25.3 -9.85 25.0 -9.9 24.85 -10.0 24.75 -10.25 24.7 -10.0 24.5 Q-9.65 22.9 -9.65 21.2 -9.45 12.6 -7.2 4.4 L-6.75 3.5 Q-5.5 -2.0 -1.55 -5.8 L-0.5 -6.75 Q3.8 -9.7 6.55 -5.05 L6.8 -4.8 7.75 -3.4 9.3 -1.0 10.65 2.5 12.85 7.9 M43.55 -1.45 L43.65 -1.25 Q47.95 8.8 50.05 19.6 L49.6 20.2 46.35 20.35 44.85 14.4 Q44.05 10.6 42.65 7.0 L41.9 5.0 41.15 2.65 Q40.65 1.35 40.5 0.05 42.1 -0.65 43.55 -1.45 M-47.9 15.7 Q-47.0 7.55 -43.8 -0.05 L-43.7 -0.2 Q-41.8 -4.2 -38.65 -7.2 L-38.3 -7.5 -38.05 -7.75 -36.85 -8.8 -35.5 -9.4 -35.3 -9.3 Q-34.85 -9.0 -34.35 -8.95 L-32.95 -7.8 Q-29.9 -5.45 -28.25 -2.05 -27.65 -1.5 -27.35 -0.75 L-26.75 0.35 -27.2 4.3 -27.8 3.7 -28.7 2.95 Q-31.2 0.95 -34.2 0.55 L-34.5 0.5 Q-36.55 2.2 -37.5 4.75 L-38.15 6.0 Q-40.15 9.25 -41.15 13.0 L-42.3 17.2 -42.55 18.2 -43.65 24.8 -45.35 24.85 -46.35 24.95 -47.75 25.15 Q-51.5 25.85 -54.95 27.45 -55.95 27.9 -56.9 28.5 L-58.4 29.55 -60.45 31.1 -62.4 32.75 -64.4 34.9 -69.9 33.45 -69.85 33.25 -69.8 32.95 -69.8 32.8 -69.75 32.65 -69.4 32.2 Q-65.0 24.35 -56.5 21.5 L-56.65 21.4 -57.35 21.2 -57.7 21.35 Q-67.6 23.8 -71.45 32.85 L-74.5 31.35 -73.75 30.1 Q-72.0 26.05 -68.5 23.25 -60.1 16.55 -49.4 17.05 L-49.25 18.25 Q-48.9 18.8 -48.4 18.4 L-48.05 16.75 -47.85 16.4 -47.8 16.25 -47.8 16.1 -47.9 15.7" fill="#55bb65" fill-rule="evenodd" stroke="none"/>
      <path d="M17.3 -40.4 L16.75 -39.7 15.5 -38.35 Q14.1 -37.0 12.25 -36.5 L10.85 -36.35 10.1 -36.35 Q9.7 -40.35 8.45 -44.1 L8.4 -44.1 Q8.45 -45.7 9.95 -46.8 11.0 -47.55 12.2 -47.15 16.85 -45.5 17.25 -40.7 L17.3 -40.4 M-27.55 47.4 Q-26.6 45.9 -25.3 44.65 L-23.2 42.75 Q-20.75 40.55 -17.8 39.15 -14.2 37.45 -10.35 36.55 L-6.4 36.2 -6.4 35.4 -5.75 28.2 -5.5 25.8 -5.05 22.2 -4.0 15.2 Q-3.25 11.4 -2.0 7.8 L-1.25 5.85 0.15 2.95 0.95 2.15 2.45 -0.6 2.75 -0.7 3.9 -1.1 4.45 -1.15 Q4.9 -1.05 5.0 -1.3 L5.25 -1.4 Q6.2 -1.35 6.75 -0.65 L7.25 -0.2 Q8.7 0.8 9.5 2.35 L10.05 3.2 12.85 7.9 13.5 10.2 Q14.6 14.45 14.9 18.95 L14.8 19.0 Q11.1 23.05 6.7 22.45 L6.7 22.4 Q6.1 16.2 3.95 10.35 4.15 9.15 4.65 8.1 5.6 5.9 4.65 4.4 1.8 9.3 1.35 15.5 L1.1 20.6 Q0.95 20.75 0.95 21.0 L1.05 21.45 Q0.75 29.1 1.05 36.7 0.95 38.85 1.25 41.1 L1.2 41.1 0.3 42.1 Q-0.15 42.8 -0.85 43.1 -13.8 48.55 -27.55 47.4 M46.35 20.35 L44.35 19.85 44.35 19.15 Q42.1 9.6 37.95 1.0 L36.6 -1.65 Q39.85 -2.25 42.9 -3.55 L43.55 -1.45 Q42.1 -0.65 40.5 0.05 40.65 1.35 41.15 2.65 L41.9 5.0 42.65 7.0 Q44.05 10.6 44.85 14.4 L46.35 20.35 M-64.4 34.9 L-62.4 32.75 -60.45 31.1 -58.4 29.55 -56.9 28.5 Q-55.95 27.9 -54.95 27.45 -51.5 25.85 -47.75 25.15 L-46.35 24.95 -45.35 24.85 -43.65 24.8 -42.55 18.2 -42.3 17.2 -41.15 13.0 Q-40.15 9.25 -38.15 6.0 L-37.5 4.75 Q-36.55 2.2 -34.5 0.5 L-34.2 0.55 Q-31.2 0.95 -28.7 2.95 L-27.8 3.7 -27.2 4.3 Q-27.55 8.55 -27.45 12.9 -29.55 9.8 -32.45 7.3 L-31.85 6.05 -31.8 5.75 -31.7 5.45 -31.45 5.15 -31.3 4.7 -31.35 4.55 Q-31.55 4.2 -31.95 4.15 -34.2 5.7 -35.15 8.45 -38.75 19.1 -37.7 30.5 L-38.55 31.4 -38.95 31.25 Q-43.75 33.9 -49.35 34.4 L-54.5 34.95 Q-59.7 35.65 -64.4 34.9 M-12.3 -8.85 L-11.1 -8.6 -13.3 -5.9 -15.05 -3.5 -13.4 -9.15 -12.3 -8.85" fill="#43a752" fill-rule="evenodd" stroke="none"/>
      <path d="M2.45 25.3 L2.65 22.65 Q7.75 25.65 13.05 22.5 16.55 20.4 17.9 16.7 20.15 10.55 14.65 7.2 L14.4 7.25 14.1 7.35 12.65 3.5 Q14.9 4.6 17.0 6.05 L20.1 9.0 Q22.2 10.95 23.9 13.15 27.0 17.15 28.7 22.05 L28.7 22.45 27.75 24.3 26.25 24.95 23.45 25.85 22.0 26.25 19.65 26.7 18.05 26.95 13.25 27.4 9.25 27.25 Q5.7 26.9 2.45 25.3 M-23.75 23.2 Q-25.5 18.2 -25.7 12.7 -25.85 9.3 -25.6 6.0 L-25.1 1.0 -25.05 0.8 -25.05 0.65 -24.35 -3.15 -23.7 -2.4 Q-21.45 0.95 -18.0 1.6 L-18.6 2.8 Q-18.45 3.35 -17.95 3.5 -17.1 2.9 -16.55 1.95 L-16.2 1.85 Q-12.1 0.5 -7.75 0.7 L-9.05 4.45 Q-11.15 12.15 -11.2 20.2 -11.65 19.95 -12.15 19.85 L-13.1 19.5 Q-15.1 18.65 -17.35 18.8 L-20.55 19.2 -21.35 15.8 Q-22.0 11.7 -20.5 8.0 -19.65 5.85 -20.15 4.3 -24.7 10.45 -22.65 18.35 L-22.5 18.5 -22.3 18.8 Q-21.9 21.25 -20.55 23.2 L-22.55 23.25 -23.7 23.4 -23.75 23.2" fill="#6633cc" fill-rule="evenodd" stroke="none"/>
      <path d="M2.45 25.3 Q5.7 26.9 9.25 27.25 L13.25 27.4 18.05 26.95 19.65 26.7 22.0 26.25 23.45 25.85 26.25 24.95 27.75 24.3 Q25.6 27.8 22.3 30.4 13.7 37.25 2.5 36.15 L2.4 35.7 2.2 31.2 2.45 25.3 M3.5 13.8 Q4.65 17.85 5.25 22.1 L2.75 21.0 3.5 13.8 M16.45 17.15 L16.4 17.15 Q16.35 15.15 15.85 13.2 L14.45 8.25 Q18.6 11.7 16.45 17.15 M-20.55 19.2 L-17.35 18.8 Q-15.1 18.65 -13.1 19.5 L-12.15 19.85 Q-11.65 19.95 -11.2 20.2 L-11.1 24.45 Q-15.0 23.3 -19.05 23.2 L-20.55 19.2" fill="#4d269b" fill-rule="evenodd" stroke="none"/>
      <path d="M16.5 -28.05 Q18.4 -27.85 20.0 -27.05 20.4 -26.85 20.75 -26.75 L23.75 -25.75 27.2 -24.3 27.25 -24.1 27.8 -22.2 28.55 -18.2 28.5 -18.25 28.05 -18.55 27.7 -18.8 25.45 -19.65 25.05 -19.85 24.45 -20.15 22.8 -20.85 Q20.65 -21.85 18.25 -22.4 L17.55 -22.65 Q15.45 -23.45 13.0 -23.6 L12.5 -23.65 11.5 -23.85 11.25 -23.9 7.5 -23.9 5.75 -23.8 Q3.1 -23.65 0.75 -22.75 L0.25 -22.65 Q-1.1 -22.65 -2.1 -22.0 L-0.4 -26.6 Q3.2 -28.4 7.5 -28.5 L10.75 -28.45 Q12.5 -27.75 14.85 -27.85 L16.5 -28.05 M25.15 -28.75 L23.2 -29.65 22.8 -29.85 19.75 -30.6 19.95 -31.85 19.45 -31.8 19.25 -31.7 19.05 -32.55 19.25 -34.4 19.3 -34.4 Q22.65 -31.95 25.1 -28.75 L25.15 -28.75 M31.15 -21.0 L30.7 -22.2 28.7 -26.25 25.9 -30.1 29.75 -27.05 29.85 -26.75 Q29.9 -26.45 30.1 -26.3 L30.25 -26.15 Q38.2 -16.05 49.75 -10.65 47.8 -7.65 44.45 -6.15 L43.3 -5.6 43.25 -5.7 43.25 -5.65 Q42.8 -5.7 42.65 -5.3 L40.1 -4.3 39.9 -4.65 39.25 -5.8 37.8 -8.2 35.7 -11.65 Q34.0 -14.95 32.65 -18.4 L32.0 -19.8 31.35 -21.1 31.15 -21.0 M7.2 -31.95 L6.25 -31.95 3.5 -31.55 2.1 -31.25 4.7 -33.4 8.8 -34.95 9.1 -31.45 8.5 -32.0 8.35 -32.15 8.35 -32.3 Q8.45 -33.1 7.65 -33.3 L7.65 -33.25 Q7.2 -33.3 7.0 -32.9 L7.0 -32.45 7.2 -31.95 M-3.55 -18.65 L-2.0 -19.35 2.5 -20.55 5.25 -20.85 5.75 -20.9 11.0 -20.65 13.25 -20.25 18.0 -18.95 20.2 -18.15 22.5 -17.2 23.8 -16.55 27.7 -14.2 28.85 -13.55 28.9 -11.2 28.95 -9.2 28.95 -6.45 28.6 -6.75 28.1 -7.25 26.25 -8.6 24.3 -9.85 23.6 -10.3 19.85 -12.2 18.2 -12.95 Q17.85 -13.1 17.55 -13.35 16.7 -14.0 15.65 -14.2 L14.65 -14.45 10.45 -15.2 8.25 -15.55 0.65 -16.05 -2.75 -15.4 -3.15 -15.25 -3.75 -15.1 -4.55 -14.9 -5.55 -14.5 -3.55 -18.65 M-7.45 -11.1 L-4.35 -12.2 -1.95 -12.7 -1.35 -12.8 1.45 -12.9 2.25 -12.8 9.85 -11.7 13.45 -10.65 14.25 -10.35 17.85 -9.05 Q21.5 -7.85 24.65 -5.45 L25.85 -4.6 28.65 -2.45 28.5 -1.4 27.9 2.15 27.75 2.1 26.0 0.65 22.85 -1.8 Q19.65 -4.1 16.05 -5.8 12.7 -7.4 9.05 -8.35 L7.65 -8.7 6.45 -8.9 5.8 -9.0 4.7 -9.1 2.25 -9.75 1.45 -9.5 0.65 -9.25 -0.75 -9.2 -4.35 -8.95 -8.15 -8.25 -9.05 -7.95 -9.75 -7.65 -9.7 -7.8 -9.4 -8.0 -9.2 -8.3 -7.45 -11.1 M8.85 -4.3 L10.45 -3.8 14.05 -2.25 15.0 -1.75 15.9 -1.3 Q17.7 -0.4 19.3 0.7 L20.4 1.45 21.9 2.55 22.65 3.15 Q24.95 4.7 26.85 6.65 L25.5 10.4 24.85 11.75 Q19.6 5.25 11.85 1.7 L8.85 -4.3 M-1.1 -28.45 L-1.0 -28.35 -1.55 -27.75 -1.6 -27.45 Q-3.25 -22.8 -5.35 -18.3 L-6.3 -17.35 -7.45 -16.3 Q-9.85 -14.25 -12.55 -12.65 -13.8 -11.9 -15.15 -11.65 L-15.5 -11.9 -17.7 -13.6 Q-13.75 -15.0 -11.05 -18.2 -6.35 -23.65 -1.1 -28.45 M-12.05 -4.25 L-11.15 -4.5 -9.95 -4.8 Q-7.0 -5.8 -3.9 -5.85 L-3.9 -5.75 Q-5.75 -3.45 -7.0 -0.9 L-7.15 -0.9 -11.15 -0.95 -14.05 -0.4 -15.45 0.05 -14.8 -0.85 -12.05 -4.25" fill="#3399ff" fill-rule="evenodd" stroke="none"/>
      <path d="M27.2 -24.3 L23.75 -25.75 20.75 -26.75 Q20.4 -26.85 20.0 -27.05 18.4 -27.85 16.5 -28.05 19.05 -28.6 19.75 -30.6 L22.8 -29.85 23.2 -29.65 25.15 -28.75 Q26.85 -26.5 28.2 -23.9 L27.3 -24.2 27.25 -24.25 27.2 -24.3 M10.75 -28.45 L7.5 -28.5 Q3.2 -28.4 -0.4 -26.6 L0.25 -28.7 0.4 -28.85 Q0.8 -29.15 0.75 -29.6 L0.9 -29.75 Q1.75 -30.5 2.0 -31.15 L2.1 -31.25 3.5 -31.55 6.25 -31.95 7.2 -31.95 Q8.4 -29.45 10.75 -28.45 M-2.1 -22.0 Q-1.1 -22.65 0.25 -22.65 L0.75 -22.75 Q3.1 -23.65 5.75 -23.8 L7.5 -23.9 11.25 -23.9 11.5 -23.85 12.5 -23.65 13.0 -23.6 Q15.45 -23.45 17.55 -22.65 L18.25 -22.4 Q20.65 -21.85 22.8 -20.85 L24.45 -20.15 25.05 -19.85 25.45 -19.65 27.7 -18.8 28.05 -18.55 28.5 -18.25 28.55 -18.2 28.6 -18.0 28.7 -18.15 31.0 -16.6 32.4 -10.35 32.0 -10.75 31.35 -11.55 30.25 -12.7 29.75 -13.0 28.85 -13.55 27.7 -14.2 23.8 -16.55 22.5 -17.2 20.2 -18.15 18.0 -18.95 13.25 -20.25 11.0 -20.65 5.75 -20.9 5.25 -20.85 2.5 -20.55 -2.0 -19.35 -3.55 -18.65 -2.1 -22.0 M-5.55 -14.5 L-4.55 -14.9 -3.75 -15.1 -3.15 -15.25 -2.75 -15.4 0.65 -16.05 8.25 -15.55 10.45 -15.2 14.65 -14.45 15.65 -14.2 Q16.7 -14.0 17.55 -13.35 17.85 -13.1 18.2 -12.95 L19.85 -12.2 23.6 -10.3 24.3 -9.85 26.25 -8.6 28.1 -7.25 28.6 -6.75 28.95 -6.45 30.75 -4.9 31.2 -4.55 31.8 -3.95 32.1 -3.7 33.15 -2.45 33.05 1.85 32.5 1.0 32.2 0.65 31.75 0.15 30.05 -1.4 29.45 -1.8 28.65 -2.45 25.85 -4.6 24.65 -5.45 Q21.5 -7.85 17.85 -9.05 L14.25 -10.35 13.45 -10.65 9.85 -11.7 2.25 -12.8 1.45 -12.9 -1.35 -12.8 -1.95 -12.7 -4.35 -12.2 -7.45 -11.1 -5.55 -14.5 M-9.75 -7.65 L-9.05 -7.95 -8.15 -8.25 -4.35 -8.95 -0.75 -9.2 0.65 -9.25 Q-0.85 -8.7 -1.95 -7.65 L-3.8 -5.85 -3.9 -5.85 Q-7.0 -5.8 -9.95 -4.8 L-11.15 -4.5 -12.05 -4.25 -9.75 -7.65 M4.7 -9.1 L5.8 -9.0 6.45 -8.9 7.65 -8.7 9.05 -8.35 Q12.7 -7.4 16.05 -5.8 19.65 -4.1 22.85 -1.8 L26.0 0.65 27.75 2.1 27.9 2.25 28.2 2.45 29.1 3.35 29.45 3.8 Q31.2 5.35 32.5 7.25 L31.4 13.15 30.9 12.2 Q30.1 10.65 28.8 9.05 L28.3 8.35 26.85 6.65 Q24.95 4.7 22.65 3.15 L21.9 2.55 20.4 1.45 19.3 0.7 Q17.7 -0.4 15.9 -1.3 L15.0 -1.75 14.05 -2.25 10.45 -3.8 8.85 -4.3 8.0 -5.7 7.0 -7.05 5.75 -8.55 5.45 -8.7 4.7 -9.1" fill="#0060bf" fill-rule="evenodd" stroke="none"/>
      <path d="M27.3 -24.2 L28.2 -23.9 29.6 -20.7 31.0 -16.6 28.7 -18.15 28.55 -18.2 27.8 -22.2 27.25 -24.1 27.3 -24.2 M31.15 -21.0 L31.35 -21.1 32.0 -19.8 32.65 -18.4 Q34.0 -14.95 35.7 -11.65 L37.8 -8.2 39.25 -5.8 39.9 -4.65 40.1 -4.3 34.6 -2.4 Q34.45 -8.45 33.15 -14.25 32.35 -17.7 31.15 -21.0 M28.85 -13.55 L29.75 -13.0 30.25 -12.7 31.35 -11.55 32.0 -10.75 32.4 -10.35 Q33.05 -6.45 33.15 -2.45 L32.1 -3.7 31.8 -3.95 31.2 -4.55 30.75 -4.9 28.95 -6.45 28.95 -9.2 28.9 -11.2 28.85 -13.55 M27.9 2.15 L28.5 -1.4 28.65 -2.45 29.45 -1.8 30.05 -1.4 31.75 0.15 32.2 0.65 32.5 1.0 33.05 1.85 33.0 2.55 33.0 3.0 32.5 7.25 Q31.2 5.35 29.45 3.8 L29.1 3.35 28.2 2.45 27.9 2.25 27.9 2.15 M24.85 11.75 L25.5 10.4 26.85 6.65 28.3 8.35 28.8 9.05 Q30.1 10.65 30.9 12.2 L31.4 13.15 29.55 19.45 28.45 17.1 Q26.85 14.2 24.85 11.75 M-5.35 -18.3 L-5.9 -17.15 -7.15 -14.55 -7.25 -14.45 -7.9 -13.2 Q-8.7 -11.85 -9.65 -10.6 L-9.95 -10.25 -10.0 -10.1 -10.05 -9.8 -10.35 -9.5 -11.8 -10.0 Q-13.55 -10.65 -15.15 -11.65 -13.8 -11.9 -12.55 -12.65 -9.85 -14.25 -7.45 -16.3 L-6.3 -17.35 -5.35 -18.3" fill="#007dfb" fill-rule="evenodd" stroke="none"/>
    </g>
  </defs>
</svg>
