<?xml version="1.0" encoding="UTF-8" standalone="no"?>
<svg xmlns:xlink="http://www.w3.org/1999/xlink" height="38.9px" width="35.6px" xmlns="http://www.w3.org/2000/svg">
  <g transform="matrix(1.0, 0.0, 0.0, 1.0, 17.8, 19.45)">
    <use height="38.9" transform="matrix(1.0, 0.0, 0.0, 1.0, -17.8, -19.45)" width="35.6" xlink:href="#shape0"/>
  </g>
  <defs>
    <g id="shape0" transform="matrix(1.0, 0.0, 0.0, 1.0, 17.8, 19.45)">
      <path d="M-17.65 11.0 L-16.5 9.1 -15.0 7.65 -13.45 6.15 -11.7 4.3 -9.55 2.35 Q-10.9 0.4 -11.6 -1.9 L-11.55 -2.1 Q-8.65 -3.4 -6.1 -5.25 -3.3 -7.35 -0.95 -10.1 L-0.05 -11.1 1.45 -12.8 Q6.2 -18.05 13.0 -19.4 L13.25 -19.4 13.3 -19.4 13.6 -19.45 15.1 -18.95 15.2 -18.85 16.05 -17.65 Q19.45 -12.15 16.15 -5.85 12.7 0.8 8.15 6.8 6.65 8.85 4.8 10.25 L3.9 10.4 3.45 10.1 0.35 9.8 -0.25 10.35 -6.3 16.05 -8.35 18.0 -9.6 19.15 -10.6 19.2 -10.45 18.85 Q-9.85 17.2 -8.3 15.9 L-6.3 14.2 -1.85 10.1 -1.0 9.35 -3.5 8.05 -6.1 6.1 -6.2 5.95 -6.85 5.4 -8.9 3.3 -10.95 5.6 -12.45 7.2 Q-14.8 9.7 -17.4 11.6 L-17.75 11.55 -17.75 11.35 -17.65 11.0 M15.4 -16.55 Q14.65 -17.8 13.35 -18.45 6.25 -16.5 1.35 -10.8 L-0.05 -9.25 Q-2.85 -6.3 -6.1 -3.85 L-8.15 -2.45 Q-9.15 -1.75 -10.3 -1.35 L-8.5 1.6 -8.45 1.6 -8.2 1.7 -8.05 1.75 -7.95 1.95 -7.85 2.15 -7.95 2.3 -6.2 4.2 -4.9 5.35 -1.9 7.35 Q-1.1 7.8 -0.25 8.2 1.8 9.0 4.05 9.25 L4.75 9.05 Q9.5 2.8 13.8 -3.8 17.1 -9.0 16.0 -14.85 L15.4 -16.55" fill="#000000" fill-rule="evenodd" stroke="none"/>
      <path d="M-4.9 5.35 L-6.2 4.2 -7.95 2.3 -7.85 2.15 -7.95 1.95 -8.05 1.75 -8.2 1.7 -8.45 1.6 -8.5 1.6 -10.3 -1.35 Q-9.15 -1.75 -8.15 -2.45 L-6.1 -3.85 Q-2.85 -6.3 -0.05 -9.25 L1.35 -10.8 Q6.25 -16.5 13.35 -18.45 14.65 -17.8 15.4 -16.55 L12.35 -11.0 10.85 -8.25 Q7.25 -2.3 1.9 1.85 L0.6 2.65 -0.2 3.0 Q-2.65 4.1 -4.9 5.35" fill="#3399ff" fill-rule="evenodd" stroke="none"/>
      <path d="M-14.7 19.2 Q-16.6 18.9 -17.8 17.35 L-17.75 11.55 -17.4 11.6 Q-14.8 9.7 -12.45 7.2 L-10.95 5.6 Q-9.2 8.25 -6.25 9.6 L-6.15 9.7 Q-5.8 9.65 -6.25 10.2 L-6.5 10.5 -14.45 19.0 -14.55 19.1 -14.7 19.2" fill="#55bb65" fill-rule="evenodd" stroke="none"/>
      <path d="M-10.45 18.85 L-11.55 19.25 -14.15 19.3 -14.45 19.0 -6.5 10.5 -6.25 10.2 Q-5.8 9.65 -6.15 9.7 L-6.25 9.6 Q-9.2 8.25 -10.95 5.6 L-8.9 3.3 -6.85 5.4 -6.2 5.95 -6.1 6.1 -3.5 8.05 -1.0 9.35 -1.85 10.1 -6.3 14.2 -8.3 15.9 Q-9.85 17.2 -10.45 18.85" fill="#43a752" fill-rule="evenodd" stroke="none"/>
      <path d="M-4.9 5.35 Q-2.65 4.1 -0.2 3.0 L0.6 2.65 1.9 1.85 Q7.25 -2.3 10.85 -8.25 L12.35 -11.0 15.4 -16.55 16.0 -14.85 Q17.1 -9.0 13.8 -3.8 9.5 2.8 4.75 9.05 L4.05 9.25 Q1.8 9.0 -0.25 8.2 -1.1 7.8 -1.9 7.35 L-4.9 5.35" fill="#007dfb" fill-rule="evenodd" stroke="none"/>
      <path d="M-14.15 19.3 L-14.4 19.25 -14.55 19.1 -14.45 19.0 -14.15 19.3" fill="#0db5c8" fill-rule="evenodd" stroke="none"/>
      <path d="M-14.4 19.25 L-14.6 19.2 -14.7 19.2 -14.55 19.1 -14.4 19.25 M-17.75 11.35 L-17.75 11.2 -17.65 11.0 -17.75 11.35" fill="#0ecfe4" fill-rule="evenodd" stroke="none"/>
    </g>
  </defs>
</svg>
