<?xml version="1.0" encoding="UTF-8" standalone="no"?>
<svg xmlns:xlink="http://www.w3.org/1999/xlink" height="33.5px" width="91.8px" xmlns="http://www.w3.org/2000/svg">
  <g transform="matrix(1.0, 0.0, 0.0, 1.0, 45.95, 13.7)">
    <use height="30.0" transform="matrix(1.0, 0.0, 0.0, 1.0, -45.95, -10.2)" width="91.65" xlink:href="#shape0"/>
  </g>
  <defs>
    <g id="shape0" transform="matrix(1.0, 0.0, 0.0, 1.0, 45.95, 10.2)">
      <path d="M25.25 4.8 L25.25 4.85 25.0 4.8 25.25 4.8" fill="#5a63cf" fill-rule="evenodd" stroke="none"/>
      <path d="M22.2 -2.7 L9.7 -3.5 4.25 -3.5 Q-1.75 -3.65 -7.55 -2.5 L-7.85 -2.45 -7.45 -1.75 -6.7 -0.1 -6.65 0.25 Q-5.85 2.9 -6.55 5.6 L-6.8 6.3 -5.35 5.9 -2.65 5.5 -0.5 5.1 13.3 4.45 23.15 4.5 25.0 4.8 25.25 4.85 25.25 4.8 25.35 4.05 25.45 1.9 Q25.25 -0.35 24.45 -2.4 L23.55 -2.55 22.2 -2.7 M19.25 -9.0 Q19.55 -9.5 20.0 -9.6 L20.55 -10.0 21.15 -10.2 Q23.65 -10.15 25.85 -9.3 L26.1 -9.3 36.75 -9.0 Q39.4 -8.65 41.6 -6.95 L42.15 -6.55 42.25 -6.65 42.85 -5.7 Q43.3 -5.0 43.9 -4.6 L44.9 -2.55 45.55 -0.15 45.7 1.95 Q45.5 5.1 43.35 8.1 38.25 15.05 29.4 14.8 28.85 14.8 28.55 14.5 25.65 14.4 22.75 13.6 L22.4 13.4 Q20.85 13.05 20.05 11.35 18.75 8.7 18.0 5.9 6.35 5.65 -5.25 7.35 L-7.35 7.6 Q-8.85 10.3 -11.8 9.65 -14.75 11.85 -16.5 15.3 -19.1 20.15 -24.6 19.8 -26.55 19.65 -27.5 18.1 -28.8 15.9 -26.75 14.4 -25.3 13.35 -24.95 11.8 -24.7 10.8 -25.05 9.9 -25.5 8.75 -26.6 8.3 L-37.1 8.6 -40.25 8.25 Q-42.95 7.35 -44.7 5.35 L-44.9 5.05 Q-46.1 3.45 -45.95 1.45 -45.8 -0.6 -44.4 -2.15 -42.7 -4.1 -40.4 -5.0 -38.55 -5.9 -36.5 -6.4 L-33.5 -7.0 Q-25.9 -7.55 -19.0 -4.5 L-17.5 -3.75 -17.15 -4.45 Q-16.35 -5.5 -15.15 -5.95 -10.95 -6.3 -8.6 -3.5 L-7.2 -3.95 -6.6 -4.05 -6.6 -4.1 7.2 -4.85 17.15 -4.55 Q17.15 -5.3 17.5 -6.1 L18.15 -7.55 19.25 -9.0 M19.0 -6.35 L18.65 -5.35 18.4 -4.5 19.55 -4.45 19.6 -4.45 20.45 -4.4 22.05 -4.3 23.8 -3.95 23.1 -5.6 21.65 -7.5 20.75 -8.3 20.6 -8.3 20.35 -8.3 19.55 -7.25 19.0 -6.35 M44.35 2.75 L44.4 2.55 44.5 1.85 44.4 1.75 44.3 1.1 43.55 -2.2 Q42.7 -4.8 40.25 -6.3 38.75 -7.2 37.15 -7.65 36.45 -8.3 35.0 -8.2 L34.6 -8.15 34.25 -8.05 34.1 -8.1 33.95 -8.2 31.85 -8.15 29.0 -8.3 Q27.55 -8.1 26.2 -7.5 L24.65 -8.1 Q23.9 -8.55 23.0 -8.65 L22.3 -8.75 Q23.3 -8.1 24.0 -6.85 25.9 -3.6 26.45 0.2 26.75 2.25 26.65 4.25 L26.55 5.25 Q26.1 8.7 24.3 11.8 L24.0 12.5 26.2 12.9 26.45 13.0 29.25 13.25 32.5 13.45 Q34.95 13.05 37.05 12.0 L37.1 11.85 38.05 11.3 39.15 10.55 39.15 10.6 39.2 10.6 41.85 7.95 Q43.75 5.6 44.35 2.75 M22.65 6.1 L19.05 5.95 Q20.5 9.1 22.45 12.0 L22.55 12.2 23.4 10.9 24.05 9.2 25.05 6.05 22.65 6.1 M27.9 12.15 L28.05 12.2 27.8 12.2 27.9 12.15 M-35.7 -2.95 L-34.15 -4.5 -34.0 -4.65 -32.45 -4.75 -31.95 -4.8 Q-26.5 -5.05 -22.1 -2.25 L-22.1 -2.2 -22.1 -2.0 -22.15 -1.9 -22.2 -1.85 -22.25 -1.75 -24.8 -2.1 Q-29.75 -3.1 -34.65 -1.55 L-35.95 -1.7 Q-36.2 -2.4 -35.7 -2.95 M-34.2 -3.0 L-29.65 -3.65 -31.8 -3.75 -33.8 -3.45 -33.95 -3.4 -34.15 -3.2 -34.2 -3.1 -34.25 -3.0 -34.2 -3.0 M-7.9 5.8 L-7.9 5.7 -7.8 5.3 Q-7.05 1.8 -8.75 -1.4 -10.65 -5.05 -14.9 -4.65 L-15.65 -4.05 -16.5 -3.1 -16.35 -3.05 -16.3 -3.05 -16.05 -3.0 -15.95 -2.9 Q-14.85 -1.95 -14.0 -0.8 L-13.75 -0.5 -13.05 0.4 -13.1 0.4 Q-11.95 2.2 -11.25 4.3 L-11.2 4.55 -11.15 5.7 -11.15 6.15 -11.75 6.2 Q-13.05 2.5 -15.4 -0.6 L-15.5 -0.7 Q-17.25 -2.2 -19.25 -3.2 -25.45 -6.05 -32.3 -5.7 -36.45 -5.5 -40.15 -4.0 L-42.65 -1.95 Q-44.5 -0.5 -44.95 1.7 -44.75 3.25 -44.0 4.45 -42.8 6.3 -40.2 7.0 L-38.9 7.25 -28.65 6.95 -27.25 6.9 Q-25.45 6.95 -24.25 8.2 L-24.25 8.3 -24.2 8.5 -24.2 8.55 -24.3 8.6 Q-23.15 10.05 -23.9 12.55 -24.4 14.25 -25.8 15.45 -27.7 16.95 -25.6 18.05 -23.05 19.4 -20.55 17.75 -17.85 16.05 -16.45 13.15 -15.1 10.3 -12.55 8.65 L-12.35 8.45 -12.25 8.4 -12.1 8.45 -11.65 8.5 Q-8.75 8.7 -7.9 5.8 M-37.0 2.7 L-36.95 2.4 Q-36.75 1.6 -36.0 1.05 L-35.6 1.05 -33.75 0.6 Q-27.9 0.1 -22.7 2.55 L-22.45 2.6 -22.35 2.7 -22.25 2.75 -22.15 2.95 -22.1 3.05 -22.15 3.15 -22.2 3.25 -22.2 3.35 -22.3 3.4 -27.7 3.05 -30.25 3.05 -32.75 3.45 -36.85 4.35 -37.15 4.25 -37.2 3.6 -37.0 2.7 M-35.7 2.8 L-35.25 2.7 -29.5 1.8 -31.15 1.55 -32.3 1.55 Q-33.95 1.7 -35.5 2.2 L-35.7 2.25 -35.7 2.35 -35.7 2.55 -35.7 2.65 -35.75 2.7 -35.75 2.8 -35.7 2.8" fill="#000000" fill-rule="evenodd" stroke="none"/>
      <path d="M-34.2 -3.1 L-34.15 -3.2 -33.95 -3.4 -33.8 -3.45 -31.8 -3.75 -29.65 -3.65 -34.2 -3.0 -34.2 -3.1 M-35.7 -2.95 Q-36.2 -2.4 -35.95 -1.7 L-34.65 -1.55 Q-29.75 -3.1 -24.8 -2.1 L-22.25 -1.75 -22.2 -1.85 -22.15 -1.9 -22.1 -2.0 -22.1 -2.2 -22.1 -2.25 Q-26.5 -5.05 -31.95 -4.8 L-32.45 -4.75 -34.0 -4.65 -34.15 -4.5 -35.7 -2.95 M-44.0 4.45 Q-44.75 3.25 -44.95 1.7 -44.5 -0.5 -42.65 -1.95 L-40.15 -4.0 Q-36.45 -5.5 -32.3 -5.7 -25.45 -6.05 -19.25 -3.2 -17.25 -2.2 -15.5 -0.7 L-15.4 -0.6 Q-13.05 2.5 -11.75 6.2 L-11.15 6.15 -11.15 5.7 -11.2 4.55 -11.25 4.3 Q-11.95 2.2 -13.1 0.4 L-13.05 0.4 -13.75 -0.5 -14.0 -0.8 Q-14.85 -1.95 -15.95 -2.9 L-16.05 -3.0 -16.3 -3.05 -16.35 -3.05 -16.5 -3.1 -15.65 -4.05 -14.9 -4.65 Q-10.65 -5.05 -8.75 -1.4 -7.05 1.8 -7.8 5.3 L-7.9 5.7 -7.9 5.8 -8.05 5.75 -9.55 6.2 Q-11.7 6.9 -13.7 7.75 L-15.65 8.45 -16.4 8.6 -17.9 8.6 -19.15 8.05 -21.15 6.3 -22.15 5.4 -22.85 5.05 -23.7 4.8 -24.95 4.5 Q-27.55 3.55 -30.25 3.05 L-27.7 3.05 -22.3 3.4 -22.2 3.35 -22.2 3.25 -22.15 3.15 -22.1 3.05 -22.15 2.95 -22.25 2.75 -22.35 2.7 -22.45 2.6 -22.7 2.55 Q-27.9 0.1 -33.75 0.6 L-35.6 1.05 -36.0 1.05 Q-36.75 1.6 -36.95 2.4 L-37.0 2.7 -37.3 2.7 Q-40.95 2.6 -44.0 4.45 M-35.7 2.65 L-35.7 2.55 -35.7 2.35 -35.7 2.25 -35.5 2.2 Q-33.95 1.7 -32.3 1.55 L-31.15 1.55 -29.5 1.8 -35.25 2.7 -35.7 2.8 -35.7 2.65" fill="#ffffff" fill-rule="evenodd" stroke="none"/>
      <path d="M-44.0 4.45 Q-40.95 2.6 -37.3 2.7 L-37.0 2.7 -37.2 3.6 -37.15 4.25 -36.85 4.35 -32.75 3.45 -30.25 3.05 Q-27.55 3.55 -24.95 4.5 L-23.7 4.8 -22.85 5.05 -22.15 5.4 -21.15 6.3 -19.15 8.05 -17.9 8.6 -16.4 8.6 -15.65 8.45 -13.7 7.75 Q-11.7 6.9 -9.55 6.2 L-8.05 5.75 -7.9 5.8 Q-8.75 8.7 -11.65 8.5 L-12.1 8.45 -12.25 8.4 -12.35 8.45 -12.55 8.65 Q-15.1 10.3 -16.45 13.15 -17.85 16.05 -20.55 17.75 -23.05 19.4 -25.6 18.05 -27.7 16.95 -25.8 15.45 -24.4 14.25 -23.9 12.55 -23.15 10.05 -24.3 8.6 L-24.2 8.55 -24.2 8.5 -24.25 8.3 -24.25 8.2 Q-25.45 6.95 -27.25 6.9 L-28.65 6.95 -38.9 7.25 -40.2 7.0 Q-42.8 6.3 -44.0 4.45" fill="#cccccc" fill-rule="evenodd" stroke="none"/>
      <path d="M-7.55 -2.5 L-7.45 -1.75 -7.85 -2.45 -7.55 -2.5" fill="#0ecfe4" fill-rule="evenodd" stroke="none"/>
      <path d="M-7.55 -2.5 Q-1.75 -3.65 4.25 -3.5 L9.7 -3.5 22.2 -2.7 Q23.3 -1.35 23.85 0.3 24.05 0.75 23.65 1.0 L22.65 1.55 18.25 2.1 11.45 1.9 1.7 2.25 0.3 2.5 Q-2.05 3.15 -4.05 2.1 L-4.75 1.55 Q-5.55 0.65 -6.65 0.25 L-6.7 -0.1 -7.45 -1.75 -7.55 -2.5" fill="#55bb65" fill-rule="evenodd" stroke="none"/>
      <path d="M-6.65 0.25 Q-5.55 0.65 -4.75 1.55 L-4.05 2.1 Q-2.05 3.15 0.3 2.5 L1.7 2.25 11.45 1.9 18.25 2.1 22.65 1.55 23.65 1.0 Q24.05 0.75 23.85 0.3 23.3 -1.35 22.2 -2.7 L23.55 -2.55 24.45 -2.4 Q25.25 -0.35 25.45 1.9 L25.35 4.05 25.25 4.8 25.0 4.8 23.15 4.5 13.3 4.45 -0.5 5.1 -2.65 5.5 -5.35 5.9 -6.8 6.3 -6.55 5.6 Q-5.85 2.9 -6.65 0.25" fill="#43a752" fill-rule="evenodd" stroke="none"/>
      <path d="M26.65 4.25 Q26.75 2.25 26.45 0.2 25.9 -3.6 24.0 -6.85 23.3 -8.1 22.3 -8.75 L23.0 -8.65 Q23.9 -8.55 24.65 -8.1 L26.2 -7.5 Q27.55 -8.1 29.0 -8.3 L31.85 -8.15 33.95 -8.2 34.1 -8.1 34.25 -8.05 34.6 -8.15 35.0 -8.2 Q36.45 -8.3 37.15 -7.65 38.75 -7.2 40.25 -6.3 42.7 -4.8 43.55 -2.2 L44.3 1.1 44.4 1.75 44.5 1.85 44.4 2.55 44.35 2.75 44.05 2.65 Q35.65 5.45 26.65 4.25 M39.2 10.6 L39.15 10.6 39.15 10.55 39.2 10.6" fill="#3399ff" fill-rule="evenodd" stroke="none"/>
      <path d="M19.0 -6.35 L19.55 -7.25 20.35 -8.3 20.6 -8.3 20.75 -8.3 21.65 -7.5 23.1 -5.6 23.8 -3.95 22.05 -4.3 20.45 -4.4 19.6 -4.45 19.55 -4.45 18.4 -4.5 18.65 -5.35 19.0 -6.35 M22.65 6.1 L25.05 6.05 24.05 9.2 23.4 10.9 22.55 12.2 22.45 12.0 Q20.5 9.1 19.05 5.95 L22.65 6.1" fill="#0054a8" fill-rule="evenodd" stroke="none"/>
      <path d="M44.35 2.75 Q43.75 5.6 41.85 7.95 L39.2 10.6 39.15 10.55 38.05 11.3 37.1 11.85 37.05 12.0 Q34.95 13.05 32.5 13.45 L29.25 13.25 26.45 13.0 26.2 12.9 24.0 12.5 24.3 11.8 Q26.1 8.7 26.55 5.25 L26.65 4.25 Q35.65 5.45 44.05 2.65 L44.35 2.75 M27.9 12.15 L27.8 12.2 28.05 12.2 27.9 12.15" fill="#0055aa" fill-rule="evenodd" stroke="none"/>
    </g>
  </defs>
</svg>
