<?xml version="1.0" encoding="UTF-8" standalone="no"?>
<svg xmlns:xlink="http://www.w3.org/1999/xlink" height="264.65px" width="145.55px" xmlns="http://www.w3.org/2000/svg">
  <g transform="matrix(1.0, 0.0, 0.0, 1.0, 72.75, 132.3)">
    <use height="95.0" transform="matrix(0.6997, 0.0, 0.0, 0.6997, -21.8114, -132.282)" width="64.05" xlink:href="#shape0"/>
    <use height="15.3" transform="matrix(0.6997, 0.0, 0.0, 0.6997, -10.843, -98.4029)" width="14.65" xlink:href="#shape1"/>
    <use height="15.3" transform="matrix(-0.6997, 0.0, 0.0, 0.6997, 10.293, -98.4029)" width="14.65" xlink:href="#shape1"/>
    <use height="8.65" transform="matrix(0.6997, 0.0, 0.0, 0.6997, -10.7778, -101.0288)" width="15.75" xlink:href="#shape2"/>
    <use height="8.65" transform="matrix(-0.5928, -0.1283, 0.0, 0.6997, 9.5828, -100.0154)" width="15.75" xlink:href="#shape2"/>
    <use height="9.0" transform="matrix(0.6997, 0.0, 0.0, 0.6997, -7.8038, -109.6488)" width="8.3" xlink:href="#shape3"/>
    <use height="9.0" transform="matrix(-0.5598, 0.0, 0.0, 0.5598, 3.1731, -116.369)" width="8.3" xlink:href="#shape3"/>
    <use height="14.4" transform="matrix(0.6997, 0.0, 0.0, 0.6997, -16.7382, -88.388)" width="48.7" xlink:href="#shape4"/>
    <use height="108.4" transform="matrix(0.7315, 0.0, 0.0, 0.6997, -0.5633, 50.9452)" width="42.4" xlink:href="#shape5"/>
    <use height="20.15" transform="matrix(0.7315, 0.0, 0.0, 0.6997, -0.7227, 118.2325)" width="44.75" xlink:href="#shape6"/>
    <use height="108.4" transform="matrix(-0.7315, 0.0, 0.0, 0.6997, 0.6133, 50.9452)" width="42.4" xlink:href="#shape5"/>
    <use height="20.15" transform="matrix(-0.7315, 0.0, 0.0, 0.6997, 0.7727, 118.2325)" width="44.75" xlink:href="#shape6"/>
    <use height="66.55" transform="matrix(0.6997, 0.0, 0.0, 0.6997, -19.4622, -70.5008)" width="56.3" xlink:href="#sprite0"/>
    <use height="44.35" transform="matrix(-0.6997, 0.0, 0.0, 0.6997, 63.8092, 49.1761)" width="41.7" xlink:href="#shape8"/>
    <use height="142.85" transform="matrix(-0.6997, 0.0, 0.0, 0.6997, 72.798, -42.7452)" width="50.3" xlink:href="#shape9"/>
    <use height="44.35" transform="matrix(0.6997, 0.0, 0.0, 0.6997, -63.7592, 49.6261)" width="41.7" xlink:href="#shape8"/>
    <use height="142.85" transform="matrix(0.6997, 0.0, 0.0, 0.6997, -72.748, -42.2952)" width="50.3" xlink:href="#shape9"/>
    <use height="65.15" transform="matrix(0.8797, 0.0, 0.0, 0.6997, -12.1291, -67.7914)" width="28.3" xlink:href="#shape10"/>
    <use height="180.2" transform="matrix(0.6997, 0.0, 0.0, 0.6997, -67.0059, -71.345)" width="101.2" xlink:href="#shape11"/>
    <use height="180.2" transform="matrix(-0.6997, 0.0, 0.0, 0.6997, 67.1059, -71.345)" width="101.2" xlink:href="#shape11"/>
    <use height="26.75" transform="matrix(0.8478, 0.0, 0.0, 0.7416, -25.099, -76.4687)" width="30.35" xlink:href="#shape12"/>
    <use height="26.75" transform="matrix(-0.8478, 0.0, 0.0, 0.7416, 25.149, -76.4687)" width="30.35" xlink:href="#shape12"/>
    <use height="18.85" transform="matrix(0.5053, 0.0421, -0.0421, 0.5053, 14.7028, -31.4673)" width="52.8" xlink:href="#shape13"/>
  </g>
  <defs>
    <g id="shape0" transform="matrix(1.0, 0.0, 0.0, 1.0, 31.1, 46.85)">
      <path d="M-14.95 9.2 L-14.9 9.35 -14.95 9.35 -14.95 9.2" fill="#e8e59c" fill-rule="evenodd" stroke="none"/>
      <path d="M-28.1 34.0 Q-16.15 41.8 -0.3 44.0 19.05 40.8 29.2 36.0 26.0 23.05 21.65 11.2 L20.7 8.65 19.8 6.2 13.85 -8.8 Q6.1 -27.5 -2.4 -43.45 -20.9 -5.6 -28.1 34.0 M-31.1 36.55 Q-23.6 -4.85 -2.45 -46.85 7.1 -29.7 15.75 -9.75 L21.85 4.9 22.1 5.5 22.95 7.65 Q28.65 22.2 32.95 38.3 19.4 44.3 -0.3 48.15 -19.65 43.55 -31.1 36.55" fill="#333333" fill-rule="evenodd" stroke="none"/>
      <path d="M12.8 -7.95 Q6.0 -24.3 -1.9 -40.0 L-0.1 25.65 0.75 25.55 Q2.5 25.55 3.7 26.8 4.65 27.8 4.85 29.15 L4.9 29.8 Q4.9 31.55 3.7 32.75 2.5 34.0 0.75 34.0 L0.1 33.95 0.3 41.7 Q22.2 38.1 27.35 34.9 25.0 24.5 21.45 14.55 L19.5 9.2 18.4 6.3 Q15.05 6.3 12.6 3.9 10.15 1.5 10.15 -1.95 10.15 -5.35 12.6 -7.8 L12.8 -7.95 M-9.0 -3.75 L-9.1 -3.75 Q-11.9 -3.75 -13.9 -1.7 -15.9 0.4 -15.9 3.35 -15.9 6.3 -13.9 8.35 -12.05 10.3 -9.45 10.45 -10.65 9.9 -11.65 8.65 -13.25 6.5 -13.25 3.4 -13.25 0.35 -11.65 -1.8 -10.5 -3.3 -9.0 -3.75 M-14.95 9.2 L-14.95 9.35 -14.9 9.35 -14.95 9.2 M-21.2 24.15 L-21.25 24.2 Q-23.1 25.5 -23.7 27.6 -24.35 29.75 -23.35 31.5 -22.4 33.2 -20.4 33.45 -18.55 33.7 -16.85 32.55 -17.8 32.8 -18.85 32.55 -20.6 32.05 -21.6 30.25 -22.65 28.5 -22.3 26.5 -22.05 25.1 -21.2 24.15 M-28.1 34.0 Q-20.9 -5.6 -2.4 -43.45 6.1 -27.5 13.85 -8.8 L19.8 6.2 20.7 8.65 21.65 11.2 Q26.0 23.05 29.2 36.0 19.05 40.8 -0.3 44.0 -16.15 41.8 -28.1 34.0 M22.45 20.4 Q22.45 23.0 20.8 24.85 19.15 26.75 16.8 26.75 15.4 26.75 14.25 26.05 L12.8 24.85 Q11.15 23.0 11.15 20.4 11.15 17.8 12.8 15.9 14.45 14.05 16.8 14.05 19.15 14.05 20.8 15.9 L21.05 16.2 Q22.45 18.0 22.45 20.4" fill="#ccff66" fill-rule="evenodd" stroke="none"/>
      <path d="M-9.0 -3.75 Q-10.5 -3.3 -11.65 -1.8 -13.25 0.35 -13.25 3.4 -13.25 6.5 -11.65 8.65 -10.65 9.9 -9.45 10.45 -12.05 10.3 -13.9 8.35 -15.9 6.3 -15.9 3.35 -15.9 0.4 -13.9 -1.7 -11.9 -3.75 -9.1 -3.75 L-9.0 -3.75 M12.8 -7.95 L12.6 -7.8 Q10.15 -5.35 10.15 -1.95 10.15 1.5 12.6 3.9 15.05 6.3 18.4 6.3 L19.5 9.2 21.45 14.55 Q25.0 24.5 27.35 34.9 22.2 38.1 0.3 41.7 L0.1 33.95 0.75 34.0 Q2.5 34.0 3.7 32.75 4.9 31.55 4.9 29.8 L4.85 29.15 Q4.65 27.8 3.7 26.8 2.5 25.55 0.75 25.55 L-0.1 25.65 -1.9 -40.0 Q6.0 -24.3 12.8 -7.95 M-21.2 24.15 Q-22.05 25.1 -22.3 26.5 -22.65 28.5 -21.6 30.25 -20.6 32.05 -18.85 32.55 -17.8 32.8 -16.85 32.55 -18.55 33.7 -20.4 33.45 -22.4 33.2 -23.35 31.5 -24.35 29.75 -23.7 27.6 -23.1 25.5 -21.25 24.2 L-21.2 24.15 M22.45 20.4 Q22.45 18.0 21.05 16.2 L20.8 15.9 Q19.15 14.05 16.8 14.05 14.45 14.05 12.8 15.9 11.15 17.8 11.15 20.4 11.15 23.0 12.8 24.85 L14.25 26.05 Q15.4 26.75 16.8 26.75 19.15 26.75 20.8 24.85 22.45 23.0 22.45 20.4" fill="#ffff99" fill-rule="evenodd" stroke="none"/>
    </g>
    <g id="shape1" transform="matrix(1.0, 0.0, 0.0, 1.0, 7.35, 7.65)">
      <path d="M2.7 -6.45 L0.3 -6.85 Q-2.4 -6.85 -4.3 -4.95 -6.2 -3.05 -6.15 -0.25 L-6.15 -0.1 Q-0.4 -2.65 6.8 -0.05 L6.8 -0.25 6.75 -0.8 Q6.6 -3.2 4.9 -4.95 3.9 -5.95 2.7 -6.45 M2.55 -7.15 Q3.9 -6.6 5.1 -5.45 7.1 -3.45 7.3 -0.6 L7.3 0.0 Q7.3 2.5 5.9 4.45 L5.1 5.4 Q2.85 7.65 -0.3 7.65 L-1.95 7.45 -2.35 7.35 Q-3.95 6.8 -5.2 5.5 -7.35 3.25 -7.35 0.05 -7.35 -3.2 -5.2 -5.5 -3.3 -7.45 -0.65 -7.65 L-0.3 -7.65 Q1.2 -7.7 2.55 -7.15 M1.45 1.15 Q1.85 0.7 2.45 0.7 3.05 0.7 3.45 1.15 3.85 1.6 3.85 2.2 3.85 2.8 3.45 3.2 3.05 3.65 2.45 3.65 1.85 3.65 1.45 3.2 1.05 2.8 1.05 2.2 1.05 1.6 1.45 1.15 M4.9 4.4 L5.6 3.6 Q6.55 2.3 6.75 0.65 0.5 -2.2 -6.0 1.0 -5.8 2.9 -4.3 4.4 -3.25 5.55 -1.85 6.0 L0.3 6.35 Q2.95 6.35 4.9 4.4" fill="#003333" fill-rule="evenodd" stroke="none"/>
      <path d="M1.45 1.15 Q1.05 1.6 1.05 2.2 1.05 2.8 1.45 3.2 1.85 3.65 2.45 3.65 3.05 3.65 3.45 3.2 3.85 2.8 3.85 2.2 3.85 1.6 3.45 1.15 3.05 0.7 2.45 0.7 1.85 0.7 1.45 1.15 M4.9 4.4 Q2.95 6.35 0.3 6.35 L-1.85 6.0 Q-3.25 5.55 -4.3 4.4 -5.8 2.9 -6.0 1.0 0.5 -2.2 6.75 0.65 6.55 2.3 5.6 3.6 L4.9 4.4" fill="#ffffcc" fill-rule="evenodd" stroke="none"/>
      <path d="M2.7 -6.45 Q3.9 -5.95 4.9 -4.95 6.6 -3.2 6.75 -0.8 L6.8 -0.25 6.8 -0.05 Q-0.4 -2.65 -6.15 -0.1 L-6.15 -0.25 Q-6.2 -3.05 -4.3 -4.95 -2.4 -6.85 0.3 -6.85 L2.7 -6.45" fill="#669966" fill-rule="evenodd" stroke="none"/>
    </g>
    <g id="shape2" transform="matrix(1.0, 0.0, 0.0, 1.0, 7.9, 4.4)">
      <path d="M-5.65 -4.3 Q3.1 0.1 5.0 0.4 6.9 0.7 6.85 -0.7 8.45 2.4 7.5 3.65 6.55 4.85 3.35 3.7 0.1 2.55 -4.05 0.25 -8.2 -2.1 -7.85 -3.4 -7.35 -4.65 -5.65 -4.3" fill="#003333" fill-rule="evenodd" stroke="none"/>
    </g>
    <g id="shape3" transform="matrix(1.0, 0.0, 0.0, 1.0, 4.15, 4.5)">
      <path d="M3.0 -0.35 Q2.95 -1.75 2.0 -2.8 1.1 -3.8 -0.15 -3.75 -1.5 -3.8 -2.45 -2.8 -3.35 -1.75 -3.35 -0.35 -3.35 1.05 -2.45 2.05 -1.5 3.1 -0.15 3.1 1.1 3.1 2.0 2.05 2.95 1.05 3.0 -0.35 M4.15 0.0 Q4.15 1.8 2.9 3.15 1.7 4.5 0.0 4.5 -1.7 4.5 -2.95 3.15 -4.15 1.8 -4.15 0.0 -4.15 -1.85 -2.95 -3.2 -1.7 -4.5 0.0 -4.5 1.7 -4.5 2.9 -3.2 4.15 -1.85 4.15 0.0" fill="#666633" fill-rule="evenodd" stroke="none"/>
      <path d="M3.0 -0.35 Q2.95 1.05 2.0 2.05 1.1 3.1 -0.15 3.1 -1.5 3.1 -2.45 2.05 -3.35 1.05 -3.35 -0.35 -3.35 -1.75 -2.45 -2.8 -1.5 -3.8 -0.15 -3.75 1.1 -3.8 2.0 -2.8 2.95 -1.75 3.0 -0.35" fill="#669933" fill-rule="evenodd" stroke="none"/>
    </g>
    <g id="shape4" transform="matrix(1.0, 0.0, 0.0, 1.0, 24.35, 7.2)">
      <path d="M2.0 -6.45 Q5.7 -1.95 13.75 0.3 24.85 1.9 24.3 4.55 23.75 7.2 22.05 7.0 23.95 4.35 21.9 3.3 19.85 2.2 15.45 1.65 11.05 1.05 4.1 -2.9 4.15 -2.4 3.85 -2.0 -1.7 -0.65 -5.7 -1.9 L-5.7 -2.5 Q-9.7 -1.15 -14.4 -0.8 -20.25 -0.1 -21.85 2.2 -24.15 4.65 -21.95 7.1 -24.6 6.2 -24.35 3.95 -23.5 -1.35 -13.9 -1.45 -5.85 -2.5 -2.55 -7.2 L-4.3 -2.85 Q-2.25 -1.9 3.15 -2.9 3.85 -4.5 2.55 -4.7 1.95 -4.65 1.45 -4.2 L2.0 -6.45" fill="#003333" fill-rule="evenodd" stroke="none"/>
      <path d="M18.6 5.75 Q-1.55 0.45 -19.5 6.85 -12.4 1.15 8.6 2.7 19.95 4.05 21.05 7.2 L18.6 5.75" fill="#003333" fill-rule="evenodd" stroke="none"/>
      <path d="M6.35 4.55 Q2.2 7.45 -6.0 5.55 L2.4 5.05 6.35 4.55" fill="#003333" fill-rule="evenodd" stroke="none"/>
    </g>
    <g id="shape5" transform="matrix(1.0, 0.0, 0.0, 1.0, 20.25, 54.6)">
      <path d="M-5.7 34.7 Q-6.5 35.55 -6.5 36.75 -6.5 37.95 -5.7 38.85 -4.85 39.7 -3.7 39.7 L-3.15 39.65 Q-2.35 39.5 -1.7 38.85 -0.9 37.95 -0.9 36.75 -0.9 35.55 -1.7 34.7 L-2.45 34.15 Q-3.0 33.85 -3.7 33.85 -4.85 33.8 -5.7 34.7 M-11.95 35.0 Q1.25 31.15 11.85 36.75 L11.1 47.35 -5.25 40.0 -17.55 49.7 -17.55 36.95 Q-14.7 35.75 -11.95 35.0 M-10.55 39.75 Q-10.55 38.55 -11.35 37.7 L-12.1 37.15 -13.35 36.85 Q-14.5 36.8 -15.35 37.7 -16.15 38.55 -16.15 39.75 -16.15 40.95 -15.35 41.85 -14.5 42.7 -13.35 42.7 L-12.8 42.65 Q-12.0 42.5 -11.35 41.85 -10.55 40.95 -10.55 39.75 M-9.95 33.0 Q-13.65 33.85 -17.55 35.35 L-17.5 -48.7 18.15 -52.05 12.0 35.15 Q2.1 30.35 -9.95 33.0 M7.55 37.0 Q7.0 36.7 6.3 36.7 5.15 36.65 4.3 37.55 3.5 38.4 3.5 39.6 3.5 40.8 4.3 41.7 5.15 42.55 6.3 42.55 L6.85 42.5 8.3 41.7 Q9.1 40.8 9.1 39.6 9.1 38.4 8.3 37.55 L7.55 37.0" fill="#151533" fill-rule="evenodd" stroke="none"/>
      <path d="M-5.7 34.7 Q-4.85 33.8 -3.7 33.85 -3.0 33.85 -2.45 34.15 L-1.7 34.7 Q-0.9 35.55 -0.9 36.75 -0.9 37.95 -1.7 38.85 -2.35 39.5 -3.15 39.65 L-3.7 39.7 Q-4.85 39.7 -5.7 38.85 -6.5 37.95 -6.5 36.75 -6.5 35.55 -5.7 34.7 M-5.2 35.0 Q-5.8 35.6 -5.8 36.45 -5.8 37.25 -5.2 37.85 -4.65 38.45 -3.85 38.45 L-2.95 38.25 -2.45 37.85 Q-1.9 37.25 -1.9 36.45 -1.9 35.6 -2.45 35.0 L-2.5 34.95 Q-3.1 34.4 -3.85 34.4 -4.65 34.4 -5.2 35.0 M-11.95 35.0 Q-14.7 35.75 -17.55 36.95 L-17.55 49.7 -5.25 40.0 11.1 47.35 11.85 36.75 Q1.25 31.15 -11.95 35.0 M-10.55 39.75 Q-10.55 40.95 -11.35 41.85 -12.0 42.5 -12.8 42.65 L-13.35 42.7 Q-14.5 42.7 -15.35 41.85 -16.15 40.95 -16.15 39.75 -16.15 38.55 -15.35 37.7 -14.5 36.8 -13.35 36.85 L-12.1 37.15 -11.35 37.7 Q-10.55 38.55 -10.55 39.75 M-12.1 38.0 L-12.15 37.95 Q-12.75 37.4 -13.5 37.4 -14.3 37.4 -14.85 38.0 -15.45 38.6 -15.45 39.45 -15.45 40.25 -14.85 40.85 -14.3 41.45 -13.5 41.45 L-12.6 41.25 -12.1 40.85 Q-11.55 40.25 -11.55 39.45 -11.55 38.6 -12.1 38.0 M-9.95 33.0 Q2.1 30.35 12.0 35.15 L18.15 -52.05 -17.5 -48.7 -17.55 35.35 Q-13.65 33.85 -9.95 33.0 M-19.55 53.8 L-19.6 53.8 -20.25 -51.05 22.15 -54.6 14.2 51.1 -4.85 43.85 -19.55 53.8 M7.55 37.0 L8.3 37.55 Q9.1 38.4 9.1 39.6 9.1 40.8 8.3 41.7 L6.85 42.5 6.3 42.55 Q5.15 42.55 4.3 41.7 3.5 40.8 3.5 39.6 3.5 38.4 4.3 37.55 5.15 36.65 6.3 36.7 7.0 36.7 7.55 37.0 M7.55 37.85 L7.5 37.8 Q6.9 37.25 6.15 37.25 5.35 37.25 4.8 37.85 4.2 38.45 4.2 39.3 4.2 40.1 4.8 40.7 5.35 41.3 6.15 41.3 L7.05 41.1 7.55 40.7 Q8.1 40.1 8.1 39.3 8.1 38.45 7.55 37.85" fill="#00001e" fill-rule="evenodd" stroke="none"/>
      <path d="M-5.2 35.0 Q-4.65 34.4 -3.85 34.4 -3.1 34.4 -2.5 34.95 L-2.45 35.0 Q-1.9 35.6 -1.9 36.45 -1.9 37.25 -2.45 37.85 L-2.95 38.25 -3.85 38.45 Q-4.65 38.45 -5.2 37.85 -5.8 37.25 -5.8 36.45 -5.8 35.6 -5.2 35.0 M-12.1 38.0 Q-11.55 38.6 -11.55 39.45 -11.55 40.25 -12.1 40.85 L-12.6 41.25 -13.5 41.45 Q-14.3 41.45 -14.85 40.85 -15.45 40.25 -15.45 39.45 -15.45 38.6 -14.85 38.0 -14.3 37.4 -13.5 37.4 -12.75 37.4 -12.15 37.95 L-12.1 38.0 M7.55 37.85 Q8.1 38.45 8.1 39.3 8.1 40.1 7.55 40.7 L7.05 41.1 6.15 41.3 Q5.35 41.3 4.8 40.7 4.2 40.1 4.2 39.3 4.2 38.45 4.8 37.85 5.35 37.25 6.15 37.25 6.9 37.25 7.5 37.8 L7.55 37.85" fill="#6b6b89" fill-rule="evenodd" stroke="none"/>
    </g>
    <g id="shape6" transform="matrix(1.0, 0.0, 0.0, 1.0, 22.45, 9.1)">
      <path d="M-20.05 5.3 L19.65 5.3 19.7 7.4 -20.1 7.4 -20.05 5.3 M-20.05 2.45 L-6.25 -6.9 19.55 3.0 19.6 4.7 -20.05 4.7 -20.05 2.45" fill="#121230" fill-rule="evenodd" stroke="none"/>
      <path d="M-22.45 1.4 L-6.45 -9.1 22.3 1.8 21.45 11.0 -22.25 11.05 -22.45 1.4 M-20.05 2.45 L-20.05 4.7 19.6 4.7 19.55 3.0 -6.25 -6.9 -20.05 2.45 M-20.05 5.3 L-20.1 7.4 19.7 7.4 19.65 5.3 -20.05 5.3" fill="#00001e" fill-rule="evenodd" stroke="none"/>
    </g>
    <g id="sprite0" transform="matrix(1.0, 0.0, 0.0, 1.0, 28.1, 33.3)">
      <use height="66.55" transform="matrix(1.0, 0.0, 0.0, 1.0, -28.1, -33.3)" width="56.3" xlink:href="#shape7"/>
    </g>
    <g id="shape7" transform="matrix(1.0, 0.0, 0.0, 1.0, 28.1, 33.3)">
      <path d="M28.2 33.25 L-28.1 33.25 -28.1 -33.3 Q-1.05 -19.0 28.2 -33.3 L28.2 33.25" fill="#6b6b89" fill-rule="evenodd" stroke="none"/>
    </g>
    <g id="shape8" transform="matrix(1.0, 0.0, 0.0, 1.0, 20.95, 21.9)">
      <path d="M-3.45 -19.0 Q-11.9 -9.55 -17.2 0.65 -10.05 9.65 1.45 18.6 11.9 13.3 17.75 6.75 L16.0 3.45 10.15 6.05 0.45 2.0 Q-0.55 3.85 -2.35 4.0 0.65 0.65 0.4 -4.3 1.05 -2.0 0.85 0.45 L10.3 3.0 15.85 1.3 Q18.0 -1.55 17.55 -5.35 8.2 -12.85 -3.45 -19.0 M19.15 -6.95 Q20.0 -2.05 18.0 2.45 L20.75 7.75 Q13.2 16.05 1.35 22.45 -9.8 13.35 -20.95 0.65 -14.05 -10.85 -4.85 -21.9 7.75 -15.55 19.15 -6.95" fill="#00001e" fill-rule="evenodd" stroke="none"/>
      <path d="M-3.45 -19.0 Q8.2 -12.85 17.55 -5.35 18.0 -1.55 15.85 1.3 L10.3 3.0 0.85 0.45 Q1.05 -2.0 0.4 -4.3 0.65 0.65 -2.35 4.0 -0.55 3.85 0.45 2.0 L10.15 6.05 16.0 3.45 17.75 6.75 Q11.9 13.3 1.45 18.6 -10.05 9.65 -17.2 0.65 -11.9 -9.55 -3.45 -19.0" fill="#40405e" fill-rule="evenodd" stroke="none"/>
    </g>
    <g id="shape9" transform="matrix(1.0, 0.0, 0.0, 1.0, 25.15, 71.45)">
      <path d="M12.45 -11.1 L22.7 0.45 21.65 4.95 21.4 5.1 Q16.75 7.95 -17.3 -53.45 L-15.25 -66.5 12.3 -11.35 12.45 -11.1 M18.5 48.95 L-11.45 52.45 -22.7 -19.0 -17.65 -51.2 Q15.0 8.6 21.3 6.4 L16.65 26.35 16.6 26.65 18.5 48.95 M16.65 52.5 L15.9 51.95 Q15.35 51.65 14.65 51.65 13.5 51.6 12.65 52.5 11.85 53.35 11.85 54.55 11.85 55.75 12.65 56.65 13.5 57.5 14.65 57.5 L15.2 57.45 Q16.0 57.3 16.65 56.65 17.45 55.75 17.45 54.55 17.45 53.35 16.65 52.5 M19.25 58.05 L-10.05 61.65 -11.15 54.6 18.65 50.55 19.3 58.05 19.25 58.05 M6.9 53.7 L6.15 53.15 4.9 52.85 Q3.75 52.8 2.9 53.7 2.1 54.55 2.1 55.75 2.1 56.95 2.9 57.85 3.75 58.7 4.9 58.7 L5.45 58.65 Q6.25 58.5 6.9 57.85 7.7 56.95 7.7 55.75 7.7 54.55 6.9 53.7 M16.15 65.65 L-5.05 68.1 -5.9 63.2 15.8 60.5 16.15 65.65 M-4.1 55.25 Q-4.45 54.9 -4.85 54.7 L-6.1 54.4 Q-7.25 54.35 -8.1 55.25 -8.9 56.1 -8.9 57.3 -8.9 58.5 -8.1 59.4 -7.25 60.25 -6.1 60.25 L-5.55 60.2 Q-4.75 60.05 -4.1 59.4 -3.3 58.5 -3.3 57.3 -3.3 56.1 -4.1 55.25" fill="#151533" fill-rule="evenodd" stroke="none"/>
      <path d="M18.5 48.95 L16.6 26.65 16.65 26.35 21.3 6.4 Q15.0 8.6 -17.65 -51.2 L-22.7 -19.0 -11.45 52.45 18.5 48.95 M12.45 -11.1 L12.3 -11.35 -15.25 -66.5 -17.3 -53.45 Q16.75 7.95 21.4 5.1 L21.65 4.95 22.7 0.45 12.45 -11.1 M18.15 26.75 L21.65 59.75 19.15 60.1 18.65 68.2 -7.2 71.4 -9.4 63.65 -12.1 63.95 -25.15 -18.5 -16.35 -71.45 13.65 -12.35 25.15 0.55 18.15 26.75 M16.65 52.5 Q17.45 53.35 17.45 54.55 17.45 55.75 16.65 56.65 16.0 57.3 15.2 57.45 L14.65 57.5 Q13.5 57.5 12.65 56.65 11.85 55.75 11.85 54.55 11.85 53.35 12.65 52.5 13.5 51.6 14.65 51.65 15.35 51.65 15.9 51.95 L16.65 52.5 M15.9 52.8 L15.85 52.75 Q15.25 52.2 14.5 52.2 13.7 52.2 13.15 52.8 12.55 53.4 12.55 54.25 12.55 55.05 13.15 55.65 13.7 56.25 14.5 56.25 L15.4 56.05 15.9 55.65 Q16.45 55.05 16.45 54.25 16.45 53.4 15.9 52.8 M19.25 58.05 L19.3 58.05 18.65 50.55 -11.15 54.6 -10.05 61.65 19.25 58.05 M6.9 53.7 Q7.7 54.55 7.7 55.75 7.7 56.95 6.9 57.85 6.25 58.5 5.45 58.65 L4.9 58.7 Q3.75 58.7 2.9 57.85 2.1 56.95 2.1 55.75 2.1 54.55 2.9 53.7 3.75 52.8 4.9 52.85 L6.15 53.15 6.9 53.7 M6.15 54.0 L6.1 53.95 Q5.5 53.4 4.75 53.4 3.95 53.4 3.4 54.0 2.8 54.6 2.8 55.45 2.8 56.25 3.4 56.85 3.95 57.45 4.75 57.45 L5.65 57.25 6.15 56.85 Q6.7 56.25 6.7 55.45 6.7 54.6 6.15 54.0 M16.15 65.65 L15.8 60.5 -5.9 63.2 -5.05 68.1 16.15 65.65 M-4.85 55.55 L-4.9 55.5 Q-5.5 54.95 -6.25 54.95 -7.05 54.95 -7.6 55.55 -8.2 56.15 -8.2 57.0 -8.2 57.8 -7.6 58.4 -7.05 59.0 -6.25 59.0 L-5.35 58.8 -4.85 58.4 Q-4.3 57.8 -4.3 57.0 -4.3 56.15 -4.85 55.55 M-4.1 55.25 Q-3.3 56.1 -3.3 57.3 -3.3 58.5 -4.1 59.4 -4.75 60.05 -5.55 60.2 L-6.1 60.25 Q-7.25 60.25 -8.1 59.4 -8.9 58.5 -8.9 57.3 -8.9 56.1 -8.1 55.25 -7.25 54.35 -6.1 54.4 L-4.85 54.7 Q-4.45 54.9 -4.1 55.25" fill="#00001e" fill-rule="evenodd" stroke="none"/>
      <path d="M15.9 52.8 Q16.45 53.4 16.45 54.25 16.45 55.05 15.9 55.65 L15.4 56.05 14.5 56.25 Q13.7 56.25 13.15 55.65 12.55 55.05 12.55 54.25 12.55 53.4 13.15 52.8 13.7 52.2 14.5 52.2 15.25 52.2 15.85 52.75 L15.9 52.8 M6.15 54.0 Q6.7 54.6 6.7 55.45 6.7 56.25 6.15 56.85 L5.65 57.25 4.75 57.45 Q3.95 57.45 3.4 56.85 2.8 56.25 2.8 55.45 2.8 54.6 3.4 54.0 3.95 53.4 4.75 53.4 5.5 53.4 6.1 53.95 L6.15 54.0 M-4.85 55.55 Q-4.3 56.15 -4.3 57.0 -4.3 57.8 -4.85 58.4 L-5.35 58.8 -6.25 59.0 Q-7.05 59.0 -7.6 58.4 -8.2 57.8 -8.2 57.0 -8.2 56.15 -7.6 55.55 -7.05 54.95 -6.25 54.95 -5.5 54.95 -4.9 55.5 L-4.85 55.55" fill="#6b6b89" fill-rule="evenodd" stroke="none"/>
    </g>
    <g id="shape10" transform="matrix(1.0, 0.0, 0.0, 1.0, 14.3, 31.0)">
      <path d="M1.45 -16.35 Q1.45 -17.2 0.9 -17.8 L0.85 -17.85 Q0.25 -18.4 -0.5 -18.4 -1.3 -18.4 -1.85 -17.8 -2.45 -17.2 -2.45 -16.35 -2.45 -15.55 -1.85 -14.95 -1.3 -14.35 -0.5 -14.35 L0.4 -14.55 0.9 -14.95 Q1.45 -15.55 1.45 -16.35 M2.45 -16.05 Q2.45 -14.85 1.65 -13.95 1.0 -13.3 0.2 -13.15 L-0.35 -13.1 Q-1.5 -13.1 -2.35 -13.95 -3.15 -14.85 -3.15 -16.05 -3.15 -17.25 -2.35 -18.1 -1.5 -19.0 -0.35 -18.95 L0.9 -18.65 1.65 -18.1 Q2.45 -17.25 2.45 -16.05 M-12.4 24.4 L-14.3 24.4 -4.8 -9.25 -8.35 -16.4 -1.0 -31.0 7.05 -16.45 3.7 -9.1 14.0 24.4 12.1 24.4 2.35 -9.05 -3.35 -8.65 -12.4 24.4 M2.75 -10.2 L6.0 -15.7 -0.55 -27.6 -7.15 -15.65 -4.45 -11.35 Q-1.95 -9.8 2.75 -10.2 M0.6 10.5 L-0.1 10.6 Q-1.6 10.55 -2.6 9.5 -3.65 8.4 -3.65 6.85 -3.65 5.3 -2.6 4.25 -1.6 3.15 -0.1 3.15 L1.5 3.5 2.4 4.25 Q3.45 5.3 3.45 6.85 3.45 8.4 2.4 9.5 1.65 10.3 0.6 10.5 M0.85 8.7 L1.45 8.25 Q2.2 7.45 2.2 6.4 2.2 5.35 1.45 4.6 L1.4 4.55 Q0.7 3.85 -0.3 3.85 -1.3 3.85 -2.05 4.6 -2.75 5.35 -2.75 6.4 -2.75 7.45 -2.05 8.25 -1.3 9.0 -0.3 9.0 L0.85 8.7" fill="#00001e" fill-rule="evenodd" stroke="none"/>
      <path d="M2.45 -16.05 Q2.45 -17.25 1.65 -18.1 L0.9 -18.65 -0.35 -18.95 Q-1.5 -19.0 -2.35 -18.1 -3.15 -17.25 -3.15 -16.05 -3.15 -14.85 -2.35 -13.95 -1.5 -13.1 -0.35 -13.1 L0.2 -13.15 Q1.0 -13.3 1.65 -13.95 2.45 -14.85 2.45 -16.05 M12.1 24.4 Q-0.45 43.95 -12.4 24.4 L-3.35 -8.65 2.35 -9.05 12.1 24.4 M2.75 -10.2 Q-1.95 -9.8 -4.45 -11.35 L-7.15 -15.65 -0.55 -27.6 6.0 -15.7 2.75 -10.2 M0.6 10.5 Q1.65 10.3 2.4 9.5 3.45 8.4 3.45 6.85 3.45 5.3 2.4 4.25 L1.5 3.5 -0.1 3.15 Q-1.6 3.15 -2.6 4.25 -3.65 5.3 -3.65 6.85 -3.65 8.4 -2.6 9.5 -1.6 10.55 -0.1 10.6 L0.6 10.5" fill="#2b2b49" fill-rule="evenodd" stroke="none"/>
      <path d="M1.45 -16.35 Q1.45 -15.55 0.9 -14.95 L0.4 -14.55 -0.5 -14.35 Q-1.3 -14.35 -1.85 -14.95 -2.45 -15.55 -2.45 -16.35 -2.45 -17.2 -1.85 -17.8 -1.3 -18.4 -0.5 -18.4 0.25 -18.4 0.85 -17.85 L0.9 -17.8 Q1.45 -17.2 1.45 -16.35 M0.85 8.7 L-0.3 9.0 Q-1.3 9.0 -2.05 8.25 -2.75 7.45 -2.75 6.4 -2.75 5.35 -2.05 4.6 -1.3 3.85 -0.3 3.85 0.7 3.85 1.4 4.55 L1.45 4.6 Q2.2 5.35 2.2 6.4 2.2 7.45 1.45 8.25 L0.85 8.7" fill="#6b6b89" fill-rule="evenodd" stroke="none"/>
    </g>
    <g id="shape11" transform="matrix(1.0, 0.0, 0.0, 1.0, 50.6, 90.1)">
      <path d="M6.35 -79.0 Q11.6 -81.7 15.45 -83.95 L43.7 -24.5 20.75 -45.1 27.0 -57.55 8.35 -61.4 6.35 -79.0 M5.65 -78.65 L7.35 -60.6 25.8 -57.05 19.55 -44.85 44.85 -22.15 48.55 -14.35 48.5 -12.4 10.8 -45.8 19.75 -54.2 0.95 -55.75 -0.85 -75.65 5.6 -78.65 5.65 -78.65 M3.7 -73.6 L3.2 -73.95 2.3 -74.2 Q1.5 -74.2 0.9 -73.6 0.3 -73.0 0.35 -72.1 0.3 -71.25 0.9 -70.65 1.5 -70.05 2.3 -70.05 L2.7 -70.05 Q3.25 -70.2 3.7 -70.65 4.3 -71.25 4.3 -72.1 4.3 -73.0 3.7 -73.6 M23.5 -56.55 L23.0 -56.9 22.1 -57.15 Q21.3 -57.15 20.7 -56.55 20.1 -55.95 20.15 -55.05 20.1 -54.2 20.7 -53.6 21.3 -53.0 22.1 -53.0 L22.5 -53.0 Q23.05 -53.15 23.5 -53.6 24.1 -54.2 24.1 -55.05 24.1 -55.95 23.5 -56.55 M5.9 -59.7 L5.4 -60.05 4.5 -60.3 Q3.7 -60.3 3.1 -59.7 2.5 -59.1 2.55 -58.2 2.5 -57.35 3.1 -56.75 3.7 -56.15 4.5 -56.15 L4.9 -56.15 Q5.45 -56.3 5.9 -56.75 6.5 -57.35 6.5 -58.2 6.5 -59.1 5.9 -59.7 M16.85 -46.8 L15.95 -47.05 Q15.15 -47.05 14.55 -46.45 13.95 -45.85 14.0 -44.95 13.95 -44.1 14.55 -43.5 15.15 -42.9 15.95 -42.9 L16.35 -42.9 Q16.9 -43.05 17.35 -43.5 17.95 -44.1 17.95 -44.95 17.95 -45.85 17.35 -46.45 L16.85 -46.8 M29.0 -35.6 L28.1 -35.85 Q27.3 -35.85 26.7 -35.25 26.1 -34.65 26.15 -33.75 26.1 -32.9 26.7 -32.3 27.3 -31.7 28.1 -31.7 L28.5 -31.7 Q29.05 -31.85 29.5 -32.3 30.1 -32.9 30.1 -33.75 30.1 -34.65 29.5 -35.25 L29.0 -35.6 M43.8 -22.45 L43.3 -22.8 42.4 -23.05 Q41.6 -23.05 41.0 -22.45 40.4 -21.85 40.45 -20.95 40.4 -20.1 41.0 -19.5 41.6 -18.9 42.4 -18.9 L42.8 -18.9 43.8 -19.5 Q44.4 -20.1 44.4 -20.95 44.4 -21.85 43.8 -22.45 M46.6 -6.85 L45.7 -7.1 Q44.9 -7.1 44.3 -6.5 43.7 -5.9 43.75 -5.0 43.7 -4.15 44.3 -3.55 44.9 -2.95 45.7 -2.95 L46.1 -2.95 47.1 -3.55 Q47.7 -4.15 47.7 -5.0 47.7 -5.9 47.1 -6.5 L46.6 -6.85 M48.45 -10.3 L45.6 86.9 3.9 83.4 4.35 76.55 38.75 78.25 43.75 -14.2 48.45 -10.3 M42.7 -15.1 L37.5 77.1 4.45 75.55 7.05 36.85 2.6 32.1 Q-6.6 17.15 -11.65 6.0 -27.35 -39.85 -38.45 -52.7 -20.4 -63.15 -3.25 -73.1 L-1.25 -52.6 17.1 -53.0 6.85 -44.9 42.7 -15.1 M44.85 8.1 Q44.05 8.1 43.45 8.7 42.85 9.3 42.9 10.2 42.85 11.05 43.45 11.65 44.05 12.25 44.85 12.25 L45.25 12.25 46.25 11.65 Q46.85 11.05 46.85 10.2 46.85 9.3 46.25 8.7 L45.75 8.35 44.85 8.1 M45.6 30.2 Q46.2 29.6 46.2 28.75 46.2 27.85 45.6 27.25 45.35 27.0 45.1 26.9 L44.2 26.65 Q43.4 26.65 42.8 27.25 42.2 27.85 42.25 28.75 42.2 29.6 42.8 30.2 43.4 30.8 44.2 30.8 L44.6 30.8 45.6 30.2 M41.95 41.15 Q41.35 41.75 41.4 42.65 41.35 43.5 41.95 44.1 42.55 44.7 43.35 44.7 L43.75 44.7 44.75 44.1 Q45.35 43.5 45.35 42.65 45.35 41.75 44.75 41.15 L44.25 40.8 43.35 40.55 Q42.55 40.55 41.95 41.15 M19.5 78.55 Q18.6 78.55 17.95 79.25 17.3 79.9 17.35 80.85 17.3 81.8 17.95 82.45 18.6 83.1 19.5 83.1 L19.95 83.1 21.05 82.45 Q21.7 81.8 21.7 80.85 21.7 79.9 21.05 79.25 L20.5 78.8 19.5 78.55 M6.5 78.35 Q5.9 78.95 5.95 79.85 5.9 80.7 6.5 81.3 7.1 81.9 7.9 81.9 L8.3 81.9 9.3 81.3 Q9.9 80.7 9.9 79.85 9.9 78.95 9.3 78.35 9.05 78.1 8.8 78.0 L7.9 77.75 Q7.1 77.75 6.5 78.35 M37.95 82.15 Q37.95 83.4 38.8 84.25 39.6 85.1 40.8 85.15 L41.35 85.1 Q42.2 84.9 42.85 84.25 43.65 83.4 43.65 82.15 43.65 80.9 42.85 80.05 L42.1 79.45 Q41.5 79.15 40.8 79.15 39.6 79.15 38.8 80.05 37.95 80.9 37.95 82.15 M31.25 79.95 L30.7 79.5 29.7 79.25 Q28.8 79.25 28.15 79.95 27.5 80.6 27.55 81.55 27.5 82.5 28.15 83.15 28.8 83.8 29.7 83.8 L30.15 83.8 Q30.75 83.65 31.25 83.15 31.9 82.5 31.9 81.55 31.9 80.6 31.25 79.95 M11.85 49.75 L30.25 49.9 30.75 48.45 11.85 49.75 M43.6 55.2 L42.7 54.95 Q41.85 54.95 41.25 55.6 40.6 56.2 40.65 57.15 40.6 58.05 41.25 58.7 41.85 59.3 42.7 59.35 L43.1 59.3 44.15 58.7 Q44.75 58.05 44.8 57.15 44.75 56.2 44.15 55.6 L43.6 55.2 M43.8 70.55 L43.25 70.1 42.25 69.85 Q41.35 69.85 40.7 70.55 40.05 71.2 40.1 72.15 40.05 73.1 40.7 73.75 41.35 74.4 42.25 74.4 L42.7 74.4 43.8 73.75 Q44.45 73.1 44.45 72.15 44.45 71.2 43.8 70.55 M-35.05 -28.4 Q-35.05 -26.65 -33.85 -25.4 -32.7 -24.15 -31.0 -24.15 L-30.15 -24.2 Q-29.0 -24.45 -28.1 -25.4 -26.9 -26.65 -26.9 -28.4 -26.9 -30.2 -28.1 -31.45 L-29.15 -32.25 Q-30.0 -32.7 -31.0 -32.7 -32.7 -32.7 -33.85 -31.45 -35.05 -30.2 -35.05 -28.4 M-43.35 -48.45 Q-44.6 -47.15 -44.6 -45.25 -44.6 -43.4 -43.35 -42.1 -42.1 -40.8 -40.3 -40.75 L-39.45 -40.85 Q-38.2 -41.1 -37.25 -42.1 -36.0 -43.4 -35.95 -45.25 -36.0 -47.15 -37.25 -48.45 L-38.35 -49.3 Q-39.25 -49.8 -40.3 -49.8 -42.1 -49.8 -43.35 -48.45 M-26.85 -15.4 Q-27.95 -14.3 -27.9 -12.7 -27.95 -11.15 -26.85 -10.05 -25.8 -8.95 -24.3 -8.9 L-23.55 -9.0 Q-22.5 -9.2 -21.7 -10.05 -20.65 -11.15 -20.65 -12.7 -20.65 -14.3 -21.7 -15.4 L-22.65 -16.15 -24.3 -16.5 Q-25.8 -16.55 -26.85 -15.4 M-39.85 -51.85 Q-29.85 -42.3 -12.35 7.05 -8.9 15.2 0.65 29.95 L-19.25 8.6 Q-31.2 -19.9 -46.9 -47.8 L-39.85 -51.85 M-14.0 3.7 Q-14.0 2.3 -14.95 1.3 -15.35 0.85 -15.8 0.65 -16.45 0.3 -17.25 0.3 -18.6 0.25 -19.55 1.3 -20.55 2.3 -20.55 3.7 -20.55 5.1 -19.55 6.15 -18.6 7.15 -17.25 7.15 L-16.6 7.05 -14.95 6.15 Q-14.0 5.1 -14.0 3.7" fill="#151533" fill-rule="evenodd" stroke="none"/>
      <path d="M6.35 -79.0 L8.35 -61.4 27.0 -57.55 20.75 -45.1 43.7 -24.5 15.45 -83.95 Q11.6 -81.7 6.35 -79.0 M5.65 -78.65 L5.6 -78.65 -0.85 -75.65 0.95 -55.75 19.75 -54.2 10.8 -45.8 48.5 -12.4 48.55 -14.35 44.85 -22.15 19.55 -44.85 25.8 -57.05 7.35 -60.6 5.65 -78.65 M3.2 -73.35 L3.15 -73.4 Q2.75 -73.8 2.2 -73.8 1.6 -73.8 1.25 -73.35 0.85 -72.95 0.85 -72.35 0.85 -71.75 1.25 -71.35 1.6 -70.95 2.2 -70.9 L2.85 -71.05 3.2 -71.35 Q3.6 -71.75 3.6 -72.35 3.6 -72.95 3.2 -73.35 M3.7 -73.6 Q4.3 -73.0 4.3 -72.1 4.3 -71.25 3.7 -70.65 3.25 -70.2 2.7 -70.05 L2.3 -70.05 Q1.5 -70.05 0.9 -70.65 0.3 -71.25 0.35 -72.1 0.3 -73.0 0.9 -73.6 1.5 -74.2 2.3 -74.2 L3.2 -73.95 3.7 -73.6 M5.4 -59.45 L5.35 -59.5 Q4.95 -59.9 4.4 -59.9 3.8 -59.9 3.45 -59.45 3.05 -59.05 3.05 -58.45 3.05 -57.85 3.45 -57.45 3.8 -57.05 4.4 -57.0 L5.05 -57.15 5.4 -57.45 Q5.8 -57.85 5.8 -58.45 5.8 -59.05 5.4 -59.45 M5.9 -59.7 Q6.5 -59.1 6.5 -58.2 6.5 -57.35 5.9 -56.75 5.45 -56.3 4.9 -56.15 L4.5 -56.15 Q3.7 -56.15 3.1 -56.75 2.5 -57.35 2.55 -58.2 2.5 -59.1 3.1 -59.7 3.7 -60.3 4.5 -60.3 L5.4 -60.05 5.9 -59.7 M23.5 -56.55 Q24.1 -55.95 24.1 -55.05 24.1 -54.2 23.5 -53.6 23.05 -53.15 22.5 -53.0 L22.1 -53.0 Q21.3 -53.0 20.7 -53.6 20.1 -54.2 20.15 -55.05 20.1 -55.95 20.7 -56.55 21.3 -57.15 22.1 -57.15 L23.0 -56.9 23.5 -56.55 M28.95 -35.05 Q28.55 -35.45 28.0 -35.45 27.4 -35.45 27.05 -35.0 26.65 -34.6 26.65 -34.0 26.65 -33.4 27.05 -33.0 27.4 -32.6 28.0 -32.55 L28.65 -32.7 29.0 -33.0 Q29.4 -33.4 29.4 -34.0 29.4 -34.6 29.0 -35.0 L28.95 -35.05 M23.0 -56.3 L22.95 -56.35 Q22.55 -56.75 22.0 -56.75 21.4 -56.75 21.05 -56.3 20.65 -55.9 20.65 -55.3 20.65 -54.7 21.05 -54.3 21.4 -53.9 22.0 -53.85 L22.65 -54.0 23.0 -54.3 Q23.4 -54.7 23.4 -55.3 23.4 -55.9 23.0 -56.3 M29.0 -35.6 L29.5 -35.25 Q30.1 -34.65 30.1 -33.75 30.1 -32.9 29.5 -32.3 29.05 -31.85 28.5 -31.7 L28.1 -31.7 Q27.3 -31.7 26.7 -32.3 26.1 -32.9 26.15 -33.75 26.1 -34.65 26.7 -35.25 27.3 -35.85 28.1 -35.85 L29.0 -35.6 M16.85 -46.8 L17.35 -46.45 Q17.95 -45.85 17.95 -44.95 17.95 -44.1 17.35 -43.5 16.9 -43.05 16.35 -42.9 L15.95 -42.9 Q15.15 -42.9 14.55 -43.5 13.95 -44.1 14.0 -44.95 13.95 -45.85 14.55 -46.45 15.15 -47.05 15.95 -47.05 L16.85 -46.8 M16.85 -46.2 L16.8 -46.25 Q16.4 -46.65 15.85 -46.65 15.25 -46.65 14.9 -46.2 14.5 -45.8 14.5 -45.2 14.5 -44.6 14.9 -44.2 15.25 -43.8 15.85 -43.75 L16.5 -43.9 16.85 -44.2 Q17.25 -44.6 17.25 -45.2 17.25 -45.8 16.85 -46.2 M43.8 -22.45 Q44.4 -21.85 44.4 -20.95 44.4 -20.1 43.8 -19.5 L42.8 -18.9 42.4 -18.9 Q41.6 -18.9 41.0 -19.5 40.4 -20.1 40.45 -20.95 40.4 -21.85 41.0 -22.45 41.6 -23.05 42.4 -23.05 L43.3 -22.8 43.8 -22.45 M46.55 -6.3 Q46.15 -6.7 45.6 -6.7 45.0 -6.7 44.65 -6.25 44.25 -5.85 44.25 -5.25 44.25 -4.65 44.65 -4.25 45.0 -3.85 45.6 -3.8 L46.25 -3.95 46.6 -4.25 Q47.0 -4.65 47.0 -5.25 47.0 -5.85 46.6 -6.25 L46.55 -6.3 M43.3 -22.2 L43.25 -22.25 Q42.85 -22.65 42.3 -22.65 41.7 -22.65 41.35 -22.2 40.95 -21.8 40.95 -21.2 40.95 -20.6 41.35 -20.2 41.7 -19.8 42.3 -19.75 L42.95 -19.9 43.3 -20.2 Q43.7 -20.6 43.7 -21.2 43.7 -21.8 43.3 -22.2 M46.6 -6.85 L47.1 -6.5 Q47.7 -5.9 47.7 -5.0 47.7 -4.15 47.1 -3.55 L46.1 -2.95 45.7 -2.95 Q44.9 -2.95 44.3 -3.55 43.7 -4.15 43.75 -5.0 43.7 -5.9 44.3 -6.5 44.9 -7.1 45.7 -7.1 L46.6 -6.85 M48.45 -10.3 L43.75 -14.2 38.75 78.25 4.35 76.55 3.9 83.4 45.6 86.9 48.45 -10.3 M42.7 -15.1 L6.85 -44.9 17.1 -53.0 -1.25 -52.6 -3.25 -73.1 Q-20.4 -63.15 -38.45 -52.7 -27.35 -39.85 -11.65 6.0 -6.6 17.15 2.6 32.1 L7.05 36.85 4.45 75.55 37.5 77.1 42.7 -15.1 M17.1 -90.1 L50.6 -14.4 48.65 90.1 0.75 86.65 3.85 37.95 -20.85 10.1 -50.6 -48.65 Q-14.95 -68.1 17.1 -90.1 M44.85 8.1 L45.75 8.35 46.25 8.7 Q46.85 9.3 46.85 10.2 46.85 11.05 46.25 11.65 L45.25 12.25 44.85 12.25 Q44.05 12.25 43.45 11.65 42.85 11.05 42.9 10.2 42.85 9.3 43.45 8.7 44.05 8.1 44.85 8.1 M44.75 8.5 Q44.15 8.5 43.8 8.95 43.4 9.35 43.4 9.95 43.4 10.55 43.8 10.95 44.15 11.35 44.75 11.4 L45.4 11.25 45.75 10.95 Q46.15 10.55 46.15 9.95 46.15 9.35 45.75 8.95 L45.7 8.9 Q45.3 8.5 44.75 8.5 M45.6 30.2 L44.6 30.8 44.2 30.8 Q43.4 30.8 42.8 30.2 42.2 29.6 42.25 28.75 42.2 27.85 42.8 27.25 43.4 26.65 44.2 26.65 L45.1 26.9 Q45.35 27.0 45.6 27.25 46.2 27.85 46.2 28.75 46.2 29.6 45.6 30.2 M45.05 27.45 Q44.65 27.05 44.1 27.05 43.5 27.05 43.15 27.5 42.75 27.9 42.75 28.5 42.75 29.1 43.15 29.5 43.5 29.9 44.1 29.95 L44.75 29.8 45.1 29.5 Q45.5 29.1 45.5 28.5 45.5 27.9 45.1 27.5 L45.05 27.45 M41.95 41.15 Q42.55 40.55 43.35 40.55 L44.25 40.8 44.75 41.15 Q45.35 41.75 45.35 42.65 45.35 43.5 44.75 44.1 L43.75 44.7 43.35 44.7 Q42.55 44.7 41.95 44.1 41.35 43.5 41.4 42.65 41.35 41.75 41.95 41.15 M42.3 41.4 Q41.9 41.8 41.9 42.4 41.9 43.0 42.3 43.4 42.65 43.8 43.25 43.85 L43.9 43.7 44.25 43.4 Q44.65 43.0 44.65 42.4 44.65 41.8 44.25 41.4 L44.2 41.35 Q43.8 40.95 43.25 40.95 42.65 40.95 42.3 41.4 M19.5 78.55 L20.5 78.8 21.05 79.25 Q21.7 79.9 21.7 80.85 21.7 81.8 21.05 82.45 L19.95 83.1 19.5 83.1 Q18.6 83.1 17.95 82.45 17.3 81.8 17.35 80.85 17.3 79.9 17.95 79.25 18.6 78.55 19.5 78.55 M19.4 79.0 Q18.75 79.0 18.3 79.45 17.85 79.9 17.9 80.55 17.85 81.2 18.3 81.7 18.75 82.15 19.4 82.15 L20.1 82.0 20.45 81.7 Q20.9 81.2 20.9 80.55 L20.45 79.45 20.45 79.4 Q20.0 78.95 19.4 79.0 M6.5 78.35 Q7.1 77.75 7.9 77.75 L8.8 78.0 Q9.05 78.1 9.3 78.35 9.9 78.95 9.9 79.85 9.9 80.7 9.3 81.3 L8.3 81.9 7.9 81.9 Q7.1 81.9 6.5 81.3 5.9 80.7 5.95 79.85 5.9 78.95 6.5 78.35 M30.65 80.15 L30.65 80.1 Q30.2 79.65 29.6 79.7 28.95 79.7 28.5 80.15 28.05 80.6 28.1 81.25 28.05 81.9 28.5 82.4 28.95 82.85 29.6 82.85 L30.3 82.7 30.65 82.4 31.1 81.25 Q31.1 80.6 30.65 80.15 M6.85 78.6 Q6.45 79.0 6.45 79.6 6.45 80.2 6.85 80.6 7.2 81.0 7.8 81.05 L8.45 80.9 8.8 80.6 Q9.2 80.2 9.2 79.6 9.2 79.0 8.8 78.6 L8.75 78.55 Q8.35 78.15 7.8 78.15 7.2 78.15 6.85 78.6 M31.25 79.95 Q31.9 80.6 31.9 81.55 31.9 82.5 31.25 83.15 30.75 83.65 30.15 83.8 L29.7 83.8 Q28.8 83.8 28.15 83.15 27.5 82.5 27.55 81.55 27.5 80.6 28.15 79.95 28.8 79.25 29.7 79.25 L30.7 79.5 31.25 79.95 M37.95 82.15 Q37.95 80.9 38.8 80.05 39.6 79.15 40.8 79.15 41.5 79.15 42.1 79.45 L42.85 80.05 Q43.65 80.9 43.65 82.15 43.65 83.4 42.85 84.25 42.2 84.9 41.35 85.1 L40.8 85.15 Q39.6 85.1 38.8 84.25 37.95 83.4 37.95 82.15 M38.65 81.8 Q38.65 82.65 39.25 83.25 39.8 83.85 40.65 83.85 L41.55 83.65 42.05 83.25 Q42.65 82.65 42.65 81.8 42.65 80.95 42.05 80.35 L42.0 80.3 Q41.45 79.7 40.65 79.75 39.8 79.7 39.25 80.35 38.65 80.95 38.65 81.8 M11.85 49.75 L30.75 48.45 30.25 49.9 11.85 49.75 M43.6 55.2 L44.15 55.6 Q44.75 56.2 44.8 57.15 44.75 58.05 44.15 58.7 L43.1 59.3 42.7 59.35 Q41.85 59.3 41.25 58.7 40.6 58.05 40.65 57.15 40.6 56.2 41.25 55.6 41.85 54.95 42.7 54.95 L43.6 55.2 M43.6 57.95 L44.05 56.9 Q44.05 56.3 43.6 55.85 L43.55 55.8 Q43.15 55.4 42.55 55.4 42.0 55.4 41.6 55.85 41.15 56.3 41.15 56.9 41.15 57.5 41.6 57.95 42.0 58.4 42.55 58.4 L43.25 58.25 43.6 57.95 M43.8 70.55 Q44.45 71.2 44.45 72.15 44.45 73.1 43.8 73.75 L42.7 74.4 42.25 74.4 Q41.35 74.4 40.7 73.75 40.05 73.1 40.1 72.15 40.05 71.2 40.7 70.55 41.35 69.85 42.25 69.85 L43.25 70.1 43.8 70.55 M-42.65 -48.0 Q-43.55 -47.1 -43.5 -45.8 -43.55 -44.5 -42.65 -43.6 -41.8 -42.7 -40.55 -42.7 -39.8 -42.7 -39.15 -43.0 L-38.4 -43.6 Q-37.55 -44.5 -37.5 -45.8 -37.55 -47.1 -38.4 -48.0 L-38.45 -48.05 Q-39.35 -48.9 -40.55 -48.9 -41.8 -48.95 -42.65 -48.0 M43.2 70.75 L43.2 70.7 Q42.75 70.25 42.15 70.3 41.5 70.3 41.05 70.75 40.6 71.2 40.65 71.85 40.6 72.5 41.05 73.0 41.5 73.45 42.15 73.45 L42.85 73.3 43.2 73.0 Q43.65 72.5 43.65 71.85 43.65 71.2 43.2 70.75 M-43.35 -48.45 Q-42.1 -49.8 -40.3 -49.8 -39.25 -49.8 -38.35 -49.3 L-37.25 -48.45 Q-36.0 -47.15 -35.95 -45.25 -36.0 -43.4 -37.25 -42.1 -38.2 -41.1 -39.45 -40.85 L-40.3 -40.75 Q-42.1 -40.8 -43.35 -42.1 -44.6 -43.4 -44.6 -45.25 -44.6 -47.15 -43.35 -48.45 M-35.05 -28.4 Q-35.05 -30.2 -33.85 -31.45 -32.7 -32.7 -31.0 -32.7 -30.0 -32.7 -29.15 -32.25 L-28.1 -31.45 Q-26.9 -30.2 -26.9 -28.4 -26.9 -26.65 -28.1 -25.4 -29.0 -24.45 -30.15 -24.2 L-31.0 -24.15 Q-32.7 -24.15 -33.85 -25.4 -35.05 -26.65 -35.05 -28.4 M-26.25 -15.0 Q-27.0 -14.25 -27.0 -13.15 -27.0 -12.1 -26.25 -11.3 -25.55 -10.55 -24.5 -10.55 L-23.3 -10.8 -22.7 -11.3 Q-21.95 -12.1 -21.95 -13.15 -21.95 -14.25 -22.7 -15.0 L-22.75 -15.05 Q-23.5 -15.8 -24.5 -15.8 -25.55 -15.8 -26.25 -15.0 M-34.05 -28.9 Q-34.05 -27.7 -33.2 -26.8 -32.4 -25.95 -31.2 -25.95 L-29.9 -26.25 -29.2 -26.8 Q-28.35 -27.7 -28.35 -28.9 -28.35 -30.15 -29.2 -31.0 L-29.25 -31.05 Q-30.1 -31.9 -31.2 -31.85 -32.4 -31.85 -33.2 -31.0 -34.05 -30.15 -34.05 -28.9 M-26.85 -15.4 Q-25.8 -16.55 -24.3 -16.5 L-22.65 -16.15 -21.7 -15.4 Q-20.65 -14.3 -20.65 -12.7 -20.65 -11.15 -21.7 -10.05 -22.5 -9.2 -23.55 -9.0 L-24.3 -8.9 Q-25.8 -8.95 -26.85 -10.05 -27.95 -11.15 -27.9 -12.7 -27.95 -14.3 -26.85 -15.4 M-39.85 -51.85 L-46.9 -47.8 Q-31.2 -19.9 -19.25 8.6 L0.65 29.95 Q-8.9 15.2 -12.35 7.05 -29.85 -42.3 -39.85 -51.85 M-14.0 3.7 Q-14.0 5.1 -14.95 6.15 L-16.6 7.05 -17.25 7.15 Q-18.6 7.15 -19.55 6.15 -20.55 5.1 -20.55 3.7 -20.55 2.3 -19.55 1.3 -18.6 0.25 -17.25 0.3 -16.45 0.3 -15.8 0.65 -15.35 0.85 -14.95 1.3 -14.0 2.3 -14.0 3.7 M-15.85 1.6 Q-16.55 0.95 -17.45 0.95 -18.4 0.95 -19.05 1.65 -19.7 2.35 -19.7 3.3 -19.7 4.3 -19.05 5.0 -18.4 5.65 -17.45 5.7 -16.85 5.65 -16.4 5.4 L-15.8 5.0 Q-15.15 4.3 -15.15 3.3 -15.15 2.35 -15.8 1.65 L-15.85 1.6" fill="#00001e" fill-rule="evenodd" stroke="none"/>
      <path d="M3.2 -73.35 Q3.6 -72.95 3.6 -72.35 3.6 -71.75 3.2 -71.35 L2.85 -71.05 2.2 -70.9 Q1.6 -70.95 1.25 -71.35 0.85 -71.75 0.85 -72.35 0.85 -72.95 1.25 -73.35 1.6 -73.8 2.2 -73.8 2.75 -73.8 3.15 -73.4 L3.2 -73.35 M5.4 -59.45 Q5.8 -59.05 5.8 -58.45 5.8 -57.85 5.4 -57.45 L5.05 -57.15 4.4 -57.0 Q3.8 -57.05 3.45 -57.45 3.05 -57.85 3.05 -58.45 3.05 -59.05 3.45 -59.45 3.8 -59.9 4.4 -59.9 4.95 -59.9 5.35 -59.5 L5.4 -59.45 M23.0 -56.3 Q23.4 -55.9 23.4 -55.3 23.4 -54.7 23.0 -54.3 L22.65 -54.0 22.0 -53.85 Q21.4 -53.9 21.05 -54.3 20.65 -54.7 20.65 -55.3 20.65 -55.9 21.05 -56.3 21.4 -56.75 22.0 -56.75 22.55 -56.75 22.95 -56.35 L23.0 -56.3 M28.95 -35.05 L29.0 -35.0 Q29.4 -34.6 29.4 -34.0 29.4 -33.4 29.0 -33.0 L28.65 -32.7 28.0 -32.55 Q27.4 -32.6 27.05 -33.0 26.65 -33.4 26.65 -34.0 26.65 -34.6 27.05 -35.0 27.4 -35.45 28.0 -35.45 28.55 -35.45 28.95 -35.05 M16.85 -46.2 Q17.25 -45.8 17.25 -45.2 17.25 -44.6 16.85 -44.2 L16.5 -43.9 15.85 -43.75 Q15.25 -43.8 14.9 -44.2 14.5 -44.6 14.5 -45.2 14.5 -45.8 14.9 -46.2 15.25 -46.65 15.85 -46.65 16.4 -46.65 16.8 -46.25 L16.85 -46.2 M43.3 -22.2 Q43.7 -21.8 43.7 -21.2 43.7 -20.6 43.3 -20.2 L42.95 -19.9 42.3 -19.75 Q41.7 -19.8 41.35 -20.2 40.95 -20.6 40.95 -21.2 40.95 -21.8 41.35 -22.2 41.7 -22.65 42.3 -22.65 42.85 -22.65 43.25 -22.25 L43.3 -22.2 M46.55 -6.3 L46.6 -6.25 Q47.0 -5.85 47.0 -5.25 47.0 -4.65 46.6 -4.25 L46.25 -3.95 45.6 -3.8 Q45.0 -3.85 44.65 -4.25 44.25 -4.65 44.25 -5.25 44.25 -5.85 44.65 -6.25 45.0 -6.7 45.6 -6.7 46.15 -6.7 46.55 -6.3 M44.75 8.5 Q45.3 8.5 45.7 8.9 L45.75 8.95 Q46.15 9.35 46.15 9.95 46.15 10.55 45.75 10.95 L45.4 11.25 44.75 11.4 Q44.15 11.35 43.8 10.95 43.4 10.55 43.4 9.95 43.4 9.35 43.8 8.95 44.15 8.5 44.75 8.5 M45.05 27.45 L45.1 27.5 Q45.5 27.9 45.5 28.5 45.5 29.1 45.1 29.5 L44.75 29.8 44.1 29.95 Q43.5 29.9 43.15 29.5 42.75 29.1 42.75 28.5 42.75 27.9 43.15 27.5 43.5 27.05 44.1 27.05 44.65 27.05 45.05 27.45 M42.3 41.4 Q42.65 40.95 43.25 40.95 43.8 40.95 44.2 41.35 L44.25 41.4 Q44.65 41.8 44.65 42.4 44.65 43.0 44.25 43.4 L43.9 43.7 43.25 43.85 Q42.65 43.8 42.3 43.4 41.9 43.0 41.9 42.4 41.9 41.8 42.3 41.4 M19.4 79.0 Q20.0 78.95 20.45 79.4 L20.45 79.45 20.9 80.55 Q20.9 81.2 20.45 81.7 L20.1 82.0 19.4 82.15 Q18.75 82.15 18.3 81.7 17.85 81.2 17.9 80.55 17.85 79.9 18.3 79.45 18.75 79.0 19.4 79.0 M6.85 78.6 Q7.2 78.15 7.8 78.15 8.35 78.15 8.75 78.55 L8.8 78.6 Q9.2 79.0 9.2 79.6 9.2 80.2 8.8 80.6 L8.45 80.9 7.8 81.05 Q7.2 81.0 6.85 80.6 6.45 80.2 6.45 79.6 6.45 79.0 6.85 78.6 M30.65 80.15 Q31.1 80.6 31.1 81.25 L30.65 82.4 30.3 82.7 29.6 82.85 Q28.95 82.85 28.5 82.4 28.05 81.9 28.1 81.25 28.05 80.6 28.5 80.15 28.95 79.7 29.6 79.7 30.2 79.65 30.65 80.1 L30.65 80.15 M38.65 81.8 Q38.65 80.95 39.25 80.35 39.8 79.7 40.65 79.75 41.45 79.7 42.0 80.3 L42.05 80.35 Q42.65 80.95 42.65 81.8 42.65 82.65 42.05 83.25 L41.55 83.65 40.65 83.85 Q39.8 83.85 39.25 83.25 38.65 82.65 38.65 81.8 M43.6 57.95 L43.25 58.25 42.55 58.4 Q42.0 58.4 41.6 57.95 41.15 57.5 41.15 56.9 41.15 56.3 41.6 55.85 42.0 55.4 42.55 55.4 43.15 55.4 43.55 55.8 L43.6 55.85 Q44.05 56.3 44.05 56.9 L43.6 57.95 M43.2 70.75 Q43.65 71.2 43.65 71.85 43.65 72.5 43.2 73.0 L42.85 73.3 42.15 73.45 Q41.5 73.45 41.05 73.0 40.6 72.5 40.65 71.85 40.6 71.2 41.05 70.75 41.5 70.3 42.15 70.3 42.75 70.25 43.2 70.7 L43.2 70.75 M-42.65 -48.0 Q-41.8 -48.95 -40.55 -48.9 -39.35 -48.9 -38.45 -48.05 L-38.4 -48.0 Q-37.55 -47.1 -37.5 -45.8 -37.55 -44.5 -38.4 -43.6 L-39.15 -43.0 Q-39.8 -42.7 -40.55 -42.7 -41.8 -42.7 -42.65 -43.6 -43.55 -44.5 -43.5 -45.8 -43.55 -47.1 -42.65 -48.0 M-34.05 -28.9 Q-34.05 -30.15 -33.2 -31.0 -32.4 -31.85 -31.2 -31.85 -30.1 -31.9 -29.25 -31.05 L-29.2 -31.0 Q-28.35 -30.15 -28.35 -28.9 -28.35 -27.7 -29.2 -26.8 L-29.9 -26.25 -31.2 -25.95 Q-32.4 -25.95 -33.2 -26.8 -34.05 -27.7 -34.05 -28.9 M-26.25 -15.0 Q-25.55 -15.8 -24.5 -15.8 -23.5 -15.8 -22.75 -15.05 L-22.7 -15.0 Q-21.95 -14.25 -21.95 -13.15 -21.95 -12.1 -22.7 -11.3 L-23.3 -10.8 -24.5 -10.55 Q-25.55 -10.55 -26.25 -11.3 -27.0 -12.1 -27.0 -13.15 -27.0 -14.25 -26.25 -15.0 M-15.85 1.6 L-15.8 1.65 Q-15.15 2.35 -15.15 3.3 -15.15 4.3 -15.8 5.0 L-16.4 5.4 Q-16.85 5.65 -17.45 5.7 -18.4 5.65 -19.05 5.0 -19.7 4.3 -19.7 3.3 -19.7 2.35 -19.05 1.65 -18.4 0.95 -17.45 0.95 -16.55 0.95 -15.85 1.6" fill="#6b6b89" fill-rule="evenodd" stroke="none"/>
    </g>
    <g id="shape12" transform="matrix(1.0, 0.0, 0.0, 1.0, 16.1, 42.3)">
      <path d="M5.35 -18.45 L11.9 -29.65 -10.3 -39.8 -13.1 -32.3 5.35 -18.45 M14.25 -30.3 L14.25 -29.95 5.95 -15.55 -16.1 -32.15 -11.6 -42.3 14.25 -30.3" fill="#00001e" fill-rule="evenodd" stroke="none"/>
      <path d="M5.35 -18.45 L-13.1 -32.3 -10.3 -39.8 11.9 -29.65 5.35 -18.45" fill="#6b6b89" fill-rule="evenodd" stroke="none"/>
    </g>
    <g id="shape13" transform="matrix(1.0, 0.0, 0.0, 1.0, 26.4, 10.5)">
      <path d="M10.55 -8.7 L18.7 4.7 16.6 4.7 7.4 -6.7 10.55 -8.7 M4.15 -7.95 L14.8 4.8 -13.25 4.2 4.15 -7.95" fill="#6b6b89" fill-rule="evenodd" stroke="none"/>
      <path d="M4.45 -10.4 L6.35 -8.0 10.65 -10.5 20.75 4.7 26.4 4.75 25.45 8.35 -26.4 4.3 -16.3 4.4 4.45 -10.4 M10.55 -8.7 L7.4 -6.7 16.6 4.7 18.7 4.7 10.55 -8.7 M4.15 -7.95 L-13.25 4.2 14.8 4.8 4.15 -7.95" fill="#00001e" fill-rule="evenodd" stroke="none"/>
    </g>
  </defs>
</svg>
