<?xml version="1.0" encoding="UTF-8" standalone="no"?>
<svg xmlns:xlink="http://www.w3.org/1999/xlink" height="30.4px" width="20.15px" xmlns="http://www.w3.org/2000/svg">
  <g transform="matrix(1.0, 0.0, 0.0, 1.0, 10.05, 15.2)">
    <use height="30.4" transform="matrix(1.0, 0.0, 0.0, 1.0, -10.05, -15.2)" width="20.15" xlink:href="#shape0"/>
  </g>
  <defs>
    <g id="shape0" transform="matrix(1.0, 0.0, 0.0, 1.0, 10.05, 15.2)">
      <path d="M-10.05 -14.8 L-10.05 -15.2 10.1 -15.2 10.1 -9.15 4.15 -9.05 4.15 7.0 Q4.3 10.4 1.15 12.85 -2.0 15.2 -6.3 15.2 L-6.65 15.2 -10.05 15.15 -10.05 14.65 -6.65 14.7 -6.3 14.7 Q-2.45 14.65 0.3 12.45 3.05 10.2 2.95 7.0 L2.95 -9.05 -10.05 -9.05 -10.05 -9.9 8.95 -9.9 8.95 -14.8 -10.05 -14.8" fill="#003366" fill-rule="evenodd" stroke="none"/>
      <path d="M-10.05 14.65 L-10.05 -9.05 2.95 -9.05 2.95 7.0 Q3.05 10.2 0.3 12.45 -2.45 14.65 -6.3 14.7 L-6.65 14.7 -10.05 14.65 M-10.05 -9.9 L-10.05 -14.8 8.95 -14.8 8.95 -9.9 -10.05 -9.9" fill="#333399" fill-rule="evenodd" stroke="none"/>
    </g>
  </defs>
</svg>
