<?xml version="1.0" encoding="UTF-8" standalone="no"?>
<svg xmlns:xlink="http://www.w3.org/1999/xlink" height="83.55px" width="87.3px" xmlns="http://www.w3.org/2000/svg">
  <g transform="matrix(1.0, 0.0, 0.0, 1.0, 42.85, 39.8)">
    <use height="75.15" transform="matrix(1.0, 0.0, 0.0, 1.008, -42.85, -38.9092)" width="87.3" xlink:href="#sprite0"/>
    <use height="37.7" transform="matrix(1.0, 0.0, 0.0, 1.0, -25.2, -26.95)" width="49.5" xlink:href="#sprite3"/>
    <use height="36.0" transform="matrix(0.9964, -0.0786, 0.0786, 0.9964, -34.157, 5.8905)" width="69.7" xlink:href="#button0"/>
    <use height="5.7" transform="matrix(0.8632, -0.0681, 0.0512, 0.6488, -15.8115, 35.5375)" width="40.65" xlink:href="#sprite6"/>
    <use height="22.4" transform="matrix(0.9964, -0.0786, 0.0786, 0.9964, -17.0683, 3.5433)" width="34.4" xlink:href="#sprite7"/>
  </g>
  <defs>
    <g id="sprite0" transform="matrix(1.0, 0.0, 0.0, 1.0, 42.9, 38.6)">
      <use height="68.55" transform="matrix(0.9994, 0.0085, -0.0085, 0.9994, 23.2973, -32.1191)" width="21.1" xlink:href="#sprite1"/>
      <use height="57.0" transform="matrix(0.9966, -0.0792, 0.0792, 0.9966, -35.6431, -33.2916)" width="67.25" xlink:href="#sprite2"/>
      <use height="68.55" transform="matrix(-0.9994, 0.0085, 0.0085, 0.9994, -21.7973, -33.1191)" width="21.1" xlink:href="#sprite1"/>
    </g>
    <g id="sprite1" transform="matrix(1.0, 0.0, 0.0, 1.0, 10.55, 34.3)">
      <use height="68.55" transform="matrix(1.0, 0.0, 0.0, 1.0, -10.55, -34.3)" width="21.1" xlink:href="#shape0"/>
    </g>
    <g id="shape0" transform="matrix(1.0, 0.0, 0.0, 1.0, 10.55, 34.3)">
      <path d="M6.6 -9.2 Q5.55 -23.75 0.1 -29.7 L-8.65 -27.2 -10.55 -29.45 Q-7.8 -31.05 -2.0 -32.9 4.45 -34.95 5.35 -33.95 10.2 -28.6 10.5 -4.3 10.65 5.1 10.0 14.75 L8.75 32.2 Q7.85 35.65 6.4 33.35 7.25 -0.15 6.6 -9.2" fill="#000000" fill-rule="evenodd" stroke="none"/>
    </g>
    <g id="sprite2" transform="matrix(1.0, 0.0, 0.0, 1.0, 33.6, 28.5)">
      <use height="57.0" transform="matrix(1.0, 0.0, 0.0, 1.0, -33.6, -28.5)" width="67.25" xlink:href="#shape1"/>
    </g>
    <g id="shape1" transform="matrix(1.0, 0.0, 0.0, 1.0, 33.6, 28.5)">
      <path d="M-23.75 20.15 Q-13.9 28.5 0.0 28.5 13.9 28.5 23.8 20.15 33.65 11.8 33.65 0.0 33.65 -11.8 23.8 -20.15 13.9 -28.5 0.0 -28.5 -13.9 -28.5 -23.75 -20.15 -33.6 -11.8 -33.6 0.0 -33.6 11.8 -23.75 20.15" fill="url(#gradient0)" fill-rule="evenodd" stroke="none"/>
    </g>
    <radialGradient cx="0" cy="0" gradientTransform="matrix(0.0435, 0.0, 0.0, 0.0435, 1.35, -6.55)" gradientUnits="userSpaceOnUse" id="gradient0" r="819.2" spreadMethod="pad">
      <stop offset="0.0" stop-color="#54b4cc"/>
      <stop offset="0.7176470588235294" stop-color="#54b4cc"/>
      <stop offset="1.0" stop-color="#3e8699"/>
    </radialGradient>
    <g id="sprite3" transform="matrix(1.0, 0.0, 0.0, 1.0, 24.8, 18.8)">
      <use height="34.35" transform="matrix(0.9966, -0.0792, 0.0792, 0.9966, -24.8179, -15.3403)" width="21.5" xlink:href="#sprite4"/>
      <use height="34.35" transform="matrix(-0.9984, 0.0487, 0.0487, 0.9984, 23.0507, -18.7968)" width="21.5" xlink:href="#sprite4"/>
    </g>
    <g id="sprite4" transform="matrix(1.0, 0.0, 0.0, 1.0, 10.75, 17.1)">
      <use height="34.35" transform="matrix(1.0, 0.0, 0.0, 1.0, -10.75, -17.1)" width="21.5" xlink:href="#shape2"/>
      <use height="26.55" transform="matrix(1.0, 0.0, 0.0, 1.0, -9.7998, -10.4998)" width="19.65" xlink:href="#sprite5"/>
    </g>
    <g id="shape2" transform="matrix(1.0, 0.0, 0.0, 1.0, 10.75, 17.1)">
      <path d="M5.95 -10.15 Q7.85 -9.0 9.2 -6.25 11.0 -2.55 10.7 5.25 10.55 10.6 9.9 13.45 9.2 16.85 -0.3 17.2 L-5.65 17.05 -7.8 16.65 Q-9.35 15.2 -10.15 11.4 -10.9 7.7 -10.7 2.75 -10.45 -2.95 -7.75 -6.95 -4.95 -11.05 -0.7 -11.35 L1.55 -11.5 Q3.85 -11.4 5.35 -10.45 L5.95 -10.15 M9.15 -1.55 L9.35 -1.55 9.25 -1.8 9.05 -2.35 9.05 -2.4 9.05 -2.5 8.6 -4.55 7.9 -6.15 7.5 -6.75 7.75 -6.65 5.65 -9.15 Q4.05 -10.35 1.2 -10.5 -5.65 -10.9 -8.85 -1.8 L-8.7 -2.0 -9.2 0.35 -9.25 0.7 -9.35 3.0 -9.45 3.2 -9.55 3.55 -9.55 3.65 -9.2 5.1 -9.2 5.3 -9.3 5.45 -9.35 6.05 -9.4 6.2 -9.2 6.45 -9.15 6.75 -9.0 6.5 -8.9 6.5 -8.85 6.5 -8.6 6.5 -7.15 4.8 -4.1 2.55 Q-1.5 1.1 1.2 -0.1 1.8 -0.1 2.3 -0.45 L2.95 -0.65 4.75 -1.05 8.95 -1.4 9.15 -1.35 9.15 -1.55 M9.3 0.2 L4.25 0.7 Q5.2 2.75 5.2 6.2 5.2 10.1 4.15 11.95 2.85 14.35 -0.4 14.45 -5.35 14.6 -6.0 7.9 L-0.35 6.6 -4.35 4.55 -6.2 6.0 Q-7.8 7.35 -8.95 9.05 L-8.55 11.15 Q-7.8 14.5 -6.45 15.85 L-6.85 15.9 -5.5 16.1 -0.35 16.2 Q4.55 16.05 7.55 13.25 8.85 12.05 9.25 5.0 L9.3 0.2 M-0.3 -16.95 Q2.5 -17.7 3.7 -15.2 -1.55 -17.35 -5.3 -12.25 L-4.25 -14.05 Q-2.8 -16.3 -0.3 -16.95" fill="#000000" fill-rule="evenodd" stroke="none"/>
      <path d="M-9.2 5.1 L-9.2 5.25 -9.2 5.3 -9.2 5.1 M-9.2 6.45 L-9.0 6.5 -9.15 6.75 -9.2 6.45 M4.75 -1.05 L5.55 -1.25 6.65 -1.45 7.8 -1.5 8.0 -1.5 9.15 -1.55 9.15 -1.35 8.95 -1.4 4.75 -1.05 M9.3 0.2 L9.25 5.0 Q8.85 12.05 7.55 13.25 4.55 16.05 -0.35 16.2 L-5.5 16.1 -6.85 15.9 -6.45 15.85 Q-7.8 14.5 -8.55 11.15 L-8.95 9.05 Q-7.8 7.35 -6.2 6.0 L-4.35 4.55 -0.35 6.6 -6.0 7.9 Q-5.35 14.6 -0.4 14.45 2.85 14.35 4.15 11.95 5.2 10.1 5.2 6.2 5.2 2.75 4.25 0.7 L9.3 0.2" fill="#ffffff" fill-rule="evenodd" stroke="none"/>
      <path d="M-9.2 5.1 L-9.55 3.65 -9.55 3.55 -9.45 3.2 -9.35 3.0 -9.25 0.7 -9.2 0.35 -8.7 -2.0 -8.85 -1.8 Q-5.65 -10.9 1.2 -10.5 4.05 -10.35 5.65 -9.15 L7.75 -6.65 7.5 -6.75 7.9 -6.15 8.6 -4.55 9.05 -2.5 9.05 -2.4 9.05 -2.35 9.25 -1.8 9.35 -1.55 9.15 -1.55 8.0 -1.5 7.8 -1.5 6.65 -1.45 5.55 -1.25 4.75 -1.05 2.95 -0.65 2.3 -0.45 Q1.8 -0.1 1.2 -0.1 -1.5 1.1 -4.1 2.55 L-7.15 4.8 -8.6 6.5 -8.85 6.5 -8.9 6.5 -9.0 6.5 -9.2 6.45 -9.4 6.2 -9.35 6.05 -9.3 5.45 -9.2 5.3 -9.2 5.25 -9.2 5.1" fill="#53b3cb" fill-rule="evenodd" stroke="none"/>
    </g>
    <g id="button0" transform="matrix(1.0, 0.0, 0.0, 1.0, 34.7, 16.95)">
      <use height="36.0" transform="matrix(1.0, 0.0, 0.0, 1.0, -34.7, -16.95)" width="69.7" xlink:href="#shape3"/>
    </g>
    <g id="shape3" transform="matrix(1.0, 0.0, 0.0, 1.0, 34.7, 16.95)">
      <path d="M28.15 7.35 L25.65 6.35 Q23.4 5.5 21.8 3.4 L20.85 1.85 19.15 -0.9 Q16.7 -4.8 12.35 -6.4 9.2 -7.55 4.2 -7.65 L8.85 -7.55 13.9 -6.85 Q16.5 -6.25 18.15 -4.1 L21.25 -0.05 Q22.85 2.05 25.2 3.35 L29.3 5.85 28.15 7.35 M-5.8 -8.0 L-14.35 -8.4 Q-18.65 -7.1 -20.35 -6.15 -23.05 -4.65 -24.6 -1.9 L-26.35 1.7 -26.35 0.85 Q-26.35 -0.4 -27.2 -0.6 L-27.0 -0.9 Q-21.5 -9.15 -15.75 -9.15 L-10.05 -8.55 -5.8 -8.0 M-27.5 3.6 Q-28.8 5.1 -30.55 5.1 L-31.75 3.25 Q-30.2 3.1 -29.0 1.85 -28.9 3.6 -27.6 3.6 L-27.5 3.6 M26.4 9.3 L27.3 8.35 26.4 9.3 M-25.8 -12.0 L-33.25 -3.65 Q-35.4 -5.35 -34.4 -7.85 L-32.2 -12.3 Q-30.95 -14.45 -31.0 -16.9 L-25.8 -12.0" fill="#a88b69" fill-rule="evenodd" stroke="none"/>
      <path d="M4.2 -7.65 Q9.2 -7.55 12.35 -6.4 16.7 -4.8 19.15 -0.9 L20.85 1.85 21.8 3.4 Q23.4 5.5 25.65 6.35 L28.15 7.35 27.3 8.35 26.4 9.3 Q23.0 12.65 18.5 14.9 L16.45 15.85 11.7 17.75 7.05 18.8 2.2 19.0 -3.0 19.05 -7.95 18.75 -12.45 17.9 Q-14.6 17.35 -16.45 16.25 L-20.45 14.1 Q-22.5 13.1 -24.4 11.8 L-28.1 8.8 Q-30.05 6.85 -30.55 5.1 -28.8 5.1 -27.5 3.6 -26.6 3.5 -26.4 1.85 L-26.35 1.7 -24.6 -1.9 Q-23.05 -4.65 -20.35 -6.15 -18.65 -7.1 -14.35 -8.4 L-5.8 -8.0 4.2 -7.65 M22.15 5.75 Q22.15 4.75 20.9 4.75 20.0 4.75 19.35 5.45 18.75 6.15 18.75 7.1 18.75 8.0 19.75 8.0 20.75 8.0 21.45 7.35 22.15 6.7 22.15 5.75 M-23.65 -2.6 Q-24.55 -2.6 -24.55 -1.15 -24.55 0.1 -23.65 0.1 -22.85 0.1 -22.85 -1.65 -22.85 -2.6 -23.65 -2.6" fill="#8c7357" fill-rule="evenodd" stroke="none"/>
      <path d="M29.3 5.85 L25.2 3.35 Q22.85 2.05 21.25 -0.05 L18.15 -4.1 Q16.5 -6.25 13.9 -6.85 L8.85 -7.55 4.2 -7.65 -5.8 -8.0 -10.05 -8.55 -15.75 -9.15 Q-21.5 -9.15 -27.0 -0.9 L-27.2 -0.6 Q-27.95 -0.6 -28.45 0.1 -29.0 0.85 -29.0 1.85 -30.2 3.1 -31.75 3.25 L-33.25 -3.65 -25.8 -12.0 -25.5 -11.75 Q-21.6 -14.35 -15.0 -15.75 -8.4 -17.1 -0.9 -16.9 16.05 -16.4 26.3 -9.15 26.85 -7.7 28.1 -5.7 29.45 -3.5 29.85 -1.0 L30.6 3.95 29.3 5.85 M18.5 14.9 Q23.0 12.65 26.4 9.3 22.95 12.85 18.5 14.9 M24.15 -2.0 Q24.15 -2.95 23.5 -3.15 22.65 -3.3 22.65 -2.0 22.65 -0.5 23.15 -0.5 24.15 -0.35 24.15 -2.0 M26.45 3.2 Q27.1 3.25 27.1 1.9 L27.1 1.85 Q27.1 0.4 26.1 0.8 25.8 0.9 25.85 1.85 L25.85 2.0 Q25.85 3.15 26.45 3.2 M-31.8 -3.7 Q-31.8 -2.5 -31.3 -2.5 -30.8 -2.5 -30.8 -4.2 -30.8 -5.1 -31.3 -5.1 -31.8 -5.1 -31.8 -3.7 M-28.3 -5.95 Q-28.95 -5.95 -28.95 -4.5 -28.95 -3.2 -28.3 -3.2 -27.7 -3.2 -27.7 -4.95 -27.7 -5.95 -28.3 -5.95" fill="#c19f79" fill-rule="evenodd" stroke="none"/>
      <path d="M26.3 -9.15 L30.7 -14.45 31.0 -13.15 Q32.15 -8.55 34.5 -4.35 35.55 -2.45 34.4 -0.45 33.2 1.55 31.4 3.05 L30.6 3.95 29.85 -1.0 Q29.45 -3.5 28.1 -5.7 26.85 -7.7 26.3 -9.15" fill="#b2936f" fill-rule="evenodd" stroke="none"/>
      <path d="M-26.35 1.7 L-26.4 1.85 Q-26.6 3.5 -27.5 3.6 L-27.6 3.6 Q-28.9 3.6 -29.0 1.85 -29.0 0.85 -28.45 0.1 -27.95 -0.6 -27.2 -0.6 -26.35 -0.4 -26.35 0.85 L-26.35 1.7 M24.15 -2.0 Q24.15 -0.35 23.15 -0.5 22.65 -0.5 22.65 -2.0 22.65 -3.3 23.5 -3.15 24.15 -2.95 24.15 -2.0 M26.45 3.2 Q25.85 3.15 25.85 2.0 L25.85 1.85 Q25.8 0.9 26.1 0.8 27.1 0.4 27.1 1.85 L27.1 1.9 Q27.1 3.25 26.45 3.2 M22.15 5.75 Q22.15 6.7 21.45 7.35 20.75 8.0 19.75 8.0 18.75 8.0 18.75 7.1 18.75 6.15 19.35 5.45 20.0 4.75 20.9 4.75 22.15 4.75 22.15 5.75 M-31.8 -3.7 Q-31.8 -5.1 -31.3 -5.1 -30.8 -5.1 -30.8 -4.2 -30.8 -2.5 -31.3 -2.5 -31.8 -2.5 -31.8 -3.7 M-28.3 -5.95 Q-27.7 -5.95 -27.7 -4.95 -27.7 -3.2 -28.3 -3.2 -28.95 -3.2 -28.95 -4.5 -28.95 -5.95 -28.3 -5.95 M-23.65 -2.6 Q-22.85 -2.6 -22.85 -1.65 -22.85 0.1 -23.65 0.1 -24.55 0.1 -24.55 -1.15 -24.55 -2.6 -23.65 -2.6" fill="#352c21" fill-rule="evenodd" stroke="none"/>
    </g>
    <g id="sprite6" transform="matrix(1.0, 0.0, 0.0, 1.0, 20.35, 2.85)">
      <use height="5.7" transform="matrix(1.0, 0.0, 0.0, 1.0, -20.35, -2.85)" width="40.65" xlink:href="#shape4"/>
    </g>
    <g id="shape4" transform="matrix(1.0, 0.0, 0.0, 1.0, 20.35, 2.85)">
      <path d="M-17.95 -1.45 L0.05 -1.2 12.65 -0.65 17.4 -0.35 20.3 -1.6 -0.6 -1.95 -20.35 -2.85 -17.95 -1.45" fill="#65543f" fill-rule="evenodd" stroke="none"/>
      <path d="M-4.35 2.8 L7.25 2.7 Q11.05 2.4 13.85 1.25 0.7 -0.65 -15.75 0.1 -11.7 2.3 -4.35 2.8" fill="#8c7357" fill-rule="evenodd" stroke="none"/>
    </g>
    <g id="sprite7" transform="matrix(1.0, 0.0, 0.0, 1.0, 17.2, 11.2)">
      <use height="22.4" transform="matrix(1.0, 0.0, 0.0, 1.0, -17.2, -11.2)" width="34.4" xlink:href="#shape5"/>
    </g>
    <g id="shape5" transform="matrix(1.0, 0.0, 0.0, 1.0, 17.2, 11.2)">
      <path d="M-11.8 8.6 Q-6.85 11.2 0.95 11.2 8.6 11.2 12.45 8.9 16.85 6.25 17.2 0.05 17.45 -4.4 12.3 -7.8 7.15 -11.2 0.05 -11.2 -7.5 -11.2 -12.05 -8.5 -17.0 -5.5 -17.2 0.05 -17.35 5.6 -11.8 8.6" fill="url(#gradient1)" fill-rule="evenodd" stroke="none"/>
      <path d="M2.2 -0.55 Q3.45 0.3 5.2 0.3 6.95 0.3 8.2 -0.55 9.45 -1.45 9.45 -2.7 9.45 -3.95 8.2 -4.8 6.95 -5.7 5.2 -5.7 3.45 -5.7 2.2 -4.8 0.95 -3.95 0.95 -2.7 0.95 -1.45 2.2 -0.55" fill="url(#gradient2)" fill-rule="evenodd" stroke="none"/>
    </g>
    <radialGradient cx="0" cy="0" gradientTransform="matrix(0.022, 0.0, 0.0, 0.022, 0.65, -2.1)" gradientUnits="userSpaceOnUse" id="gradient1" r="819.2" spreadMethod="pad">
      <stop offset="0.0" stop-color="#202020"/>
      <stop offset="0.7843137254901961" stop-color="#0a0a0a"/>
      <stop offset="1.0" stop-color="#0a0a0a"/>
    </radialGradient>
    <radialGradient cx="0" cy="0" gradientTransform="matrix(0.0052, 0.0, 0.0, 0.0052, 5.2, -2.7)" gradientUnits="userSpaceOnUse" id="gradient2" r="819.2" spreadMethod="pad">
      <stop offset="0.0" stop-color="#5d5d5d"/>
      <stop offset="0.37254901960784315" stop-color="#5d5d5d"/>
      <stop offset="1.0" stop-color="#202020"/>
    </radialGradient>
  </defs>
</svg>
