<?xml version="1.0" encoding="UTF-8" standalone="no"?>
<svg xmlns:xlink="http://www.w3.org/1999/xlink" height="72.9px" width="62.4px" xmlns="http://www.w3.org/2000/svg">
  <g transform="matrix(1.0, 0.0, 0.0, 1.0, 28.9, 55.3)">
    <use height="22.7" transform="matrix(0.7505, 0.0, 0.0, 0.934, -0.5003, -32.0508)" width="1.2" xlink:href="#shape0"/>
    <use height="5.2" transform="matrix(-0.0168, 0.7502, 0.7502, 0.0168, -1.8555, -30.4586)" width="20.2" xlink:href="#shape1"/>
    <use height="5.2" transform="matrix(0.0297, 0.7498, -0.7498, 0.0297, 1.5586, -30.4345)" width="20.2" xlink:href="#shape1"/>
    <use height="5.85" transform="matrix(0.7505, 0.0, 0.0, 0.7505, -2.214, -34.1265)" width="5.85" xlink:href="#shape2"/>
    <use height="18.15" transform="matrix(0.8, 0.0, 0.0, 0.8, -2.44, -23.9399)" width="6.15" xlink:href="#shape3"/>
    <use height="18.15" transform="matrix(1.0, 0.0, 0.0, 1.0, -3.05, -11.35)" width="6.15" xlink:href="#shape3"/>
  </g>
  <defs>
    <g id="shape0" transform="matrix(1.0, 0.0, 0.0, 1.0, 0.6, 11.35)">
      <path d="M0.6 -11.35 L0.6 11.35 -0.6 11.35 -0.6 -11.35 0.6 -11.35" fill="#000000" fill-rule="evenodd" stroke="none"/>
    </g>
    <g id="shape1" transform="matrix(1.0, 0.0, 0.0, 1.0, -0.3, 2.0)">
      <path d="M17.1 -1.35 L1.05 -0.05 1.05 0.45 14.95 2.45 15.2 2.45 Q17.6 2.35 18.85 1.75 19.85 1.2 19.85 0.2 L19.85 0.15 Q19.75 -1.2 17.1 -1.35 M0.35 -0.6 L17.05 -2.0 Q20.55 -1.8 20.5 0.25 20.6 3.0 15.15 3.2 L14.85 3.2 0.3 1.1 0.35 -0.6" fill="#000000" fill-rule="evenodd" stroke="none"/>
      <path d="M17.1 -1.35 Q19.75 -1.2 19.85 0.15 L19.85 0.2 Q19.85 1.2 18.85 1.75 17.6 2.35 15.2 2.45 L14.95 2.45 1.05 0.45 1.05 -0.05 17.1 -1.35 M13.6 1.4 L6.75 0.95 13.6 1.9 15.2 1.95 Q19.9 1.95 19.0 -0.35 18.4 1.0 15.25 1.35 L13.6 1.4" fill="#339999" fill-rule="evenodd" stroke="none"/>
      <path d="M13.6 1.4 L15.25 1.35 Q18.4 1.0 19.0 -0.35 19.9 1.95 15.2 1.95 L13.6 1.9 6.75 0.95 13.6 1.4" fill="#33cccc" fill-rule="evenodd" stroke="none"/>
    </g>
    <g id="shape2" transform="matrix(1.0, 0.0, 0.0, 1.0, 2.95, 2.9)">
      <path d="M2.0 -2.1 Q2.9 -1.2 2.9 0.0 2.9 1.2 2.0 2.0 1.15 2.9 0.05 2.95 L0.0 2.95 Q-1.2 2.9 -2.1 2.0 -2.95 1.2 -2.95 0.0 -2.95 -1.2 -2.1 -2.1 -1.2 -2.9 0.0 -2.9 L0.05 -2.9 Q1.15 -2.9 2.0 -2.1 M1.4 -1.55 Q0.85 -2.15 0.05 -2.15 L-0.05 -2.15 Q-0.95 -2.2 -1.6 -1.55 -2.25 -0.9 -2.2 0.0 -2.25 0.85 -1.6 1.45 -0.95 2.1 -0.05 2.15 L0.05 2.15 Q0.8 2.1 1.35 1.5 L1.4 1.45 Q2.05 0.85 2.1 0.0 2.05 -0.9 1.4 -1.55" fill="#000000" fill-rule="evenodd" stroke="none"/>
      <path d="M1.4 -1.55 Q2.05 -0.9 2.1 0.0 2.05 0.85 1.4 1.45 L1.35 1.5 Q0.8 2.1 0.05 2.15 L-0.05 2.15 Q-0.95 2.1 -1.6 1.45 -2.25 0.85 -2.2 0.0 -2.25 -0.9 -1.6 -1.55 -0.95 -2.2 -0.05 -2.15 L0.05 -2.15 Q0.85 -2.15 1.4 -1.55 M1.0 0.9 Q2.5 -1.6 -0.3 -1.5 1.2 -0.8 1.0 0.9" fill="#339999" fill-rule="evenodd" stroke="none"/>
      <path d="M1.0 0.9 Q1.2 -0.8 -0.3 -1.5 2.5 -1.6 1.0 0.9" fill="#33cccc" fill-rule="evenodd" stroke="none"/>
    </g>
    <g id="shape3" transform="matrix(1.0, 0.0, 0.0, 1.0, 3.05, 9.05)">
      <path d="M1.75 -8.6 L0.75 -8.6 -1.45 -8.6 -2.6 -8.6 -2.6 8.5 -1.45 8.5 0.75 8.5 1.75 8.5 2.55 8.5 2.55 -8.6 1.75 -8.6 M3.1 9.1 L-3.05 9.1 -3.05 -9.05 3.1 -9.05 3.1 9.1" fill="#000000" fill-rule="evenodd" stroke="none"/>
      <path d="M-1.45 8.5 L-2.6 8.5 -2.6 -8.6 -1.45 -8.6 -1.45 8.5" fill="#333333" fill-rule="evenodd" stroke="none"/>
      <path d="M0.75 8.5 L-1.45 8.5 -1.45 -8.6 0.75 -8.6 0.75 8.5" fill="#666666" fill-rule="evenodd" stroke="none"/>
      <path d="M1.75 -8.6 L2.55 -8.6 2.55 8.5 1.75 8.5 1.75 -8.6" fill="#999999" fill-rule="evenodd" stroke="none"/>
      <path d="M0.75 -8.6 L1.75 -8.6 1.75 8.5 0.75 8.5 0.75 -8.6" fill="#ffffff" fill-rule="evenodd" stroke="none"/>
    </g>
  </defs>
</svg>
