<?xml version="1.0" encoding="UTF-8" standalone="no"?>
<svg xmlns:xlink="http://www.w3.org/1999/xlink" height="72.9px" width="62.4px" xmlns="http://www.w3.org/2000/svg">
  <g transform="matrix(1.0, 0.0, 0.0, 1.0, 28.9, 55.3)">
    <use height="18.15" transform="matrix(0.8, 0.0, 0.0, 0.8, -2.44, -3.8399)" width="6.15" xlink:href="#shape0"/>
    <use height="18.15" transform="matrix(1.0, 0.0, 0.0, 1.0, -3.05, -3.25)" width="6.15" xlink:href="#shape0"/>
  </g>
  <defs>
    <g id="shape0" transform="matrix(1.0, 0.0, 0.0, 1.0, 3.05, 9.05)">
      <path d="M1.75 -8.6 L0.75 -8.6 -1.45 -8.6 -2.6 -8.6 -2.6 8.5 -1.45 8.5 0.75 8.5 1.75 8.5 2.55 8.5 2.55 -8.6 1.75 -8.6 M3.1 9.1 L-3.05 9.1 -3.05 -9.05 3.1 -9.05 3.1 9.1" fill="#000000" fill-rule="evenodd" stroke="none"/>
      <path d="M-1.45 8.5 L-2.6 8.5 -2.6 -8.6 -1.45 -8.6 -1.45 8.5" fill="#333333" fill-rule="evenodd" stroke="none"/>
      <path d="M0.75 8.5 L-1.45 8.5 -1.45 -8.6 0.75 -8.6 0.75 8.5" fill="#666666" fill-rule="evenodd" stroke="none"/>
      <path d="M1.75 -8.6 L2.55 -8.6 2.55 8.5 1.75 8.5 1.75 -8.6" fill="#999999" fill-rule="evenodd" stroke="none"/>
      <path d="M0.75 -8.6 L1.75 -8.6 1.75 8.5 0.75 8.5 0.75 -8.6" fill="#ffffff" fill-rule="evenodd" stroke="none"/>
    </g>
  </defs>
</svg>
