<?xml version="1.0" encoding="UTF-8" standalone="no"?>
<svg xmlns:xlink="http://www.w3.org/1999/xlink" height="8.0px" width="5.0px" xmlns="http://www.w3.org/2000/svg">
  <g transform="matrix(1.0, 0.0, 0.0, 1.0, 0.0, 0.0)">
    <use height="1.0" transform="matrix(0.3571, 0.0, 0.0, 6.9999, 0.0, 0.8)" width="14.0" xlink:href="#sprite0"/>
    <use height="7.0" transform="matrix(1.0, 0.0, 0.0, 1.0, 0.0, 1.0)" width="5.0" xlink:href="#shape1"/>
    <use height="7.0" transform="matrix(1.0, 0.0, 0.0, 1.0, 0.0, 0.0)" width="5.0" xlink:href="#shape1"/>
  </g>
  <defs>
    <g id="sprite0" transform="matrix(1.0, 0.0, 0.0, 1.0, 0.0, 0.0)">
      <use height="12.0" transform="matrix(1.1667, 0.0, 0.0, 0.0833, 0.0, 0.0)" width="12.0" xlink:href="#shape0"/>
    </g>
    <g id="shape0" transform="matrix(1.0, 0.0, 0.0, 1.0, 0.0, 0.0)">
      <path d="M12.0 12.0 L0.0 12.0 0.0 0.0 12.0 0.0 12.0 12.0" fill="#00ff00" fill-rule="evenodd" stroke="none"/>
    </g>
    <g id="shape1" transform="matrix(1.0, 0.0, 0.0, 1.0, 0.0, 0.0)">
      <path d="M5.0 1.0 L0.0 1.0 0.0 0.0 5.0 0.0 5.0 1.0 M5.0 3.0 L0.0 3.0 0.0 2.0 5.0 2.0 5.0 3.0 M0.0 5.0 L0.0 4.0 5.0 4.0 5.0 5.0 0.0 5.0 M5.0 6.0 L5.0 7.0 0.0 7.0 0.0 6.0 5.0 6.0" fill="#aab3b3" fill-opacity="0.49803922" fill-rule="evenodd" stroke="none"/>
    </g>
  </defs>
</svg>
