<?xml version="1.0" encoding="UTF-8" standalone="no"?>
<svg xmlns:xlink="http://www.w3.org/1999/xlink" height="104.85px" width="16.0px" xmlns="http://www.w3.org/2000/svg">
  <g transform="matrix(1.0, 0.0, 0.0, 1.0, -82.8, 1.3)">
    <path d="M97.8 88.55 L83.8 88.55 83.8 102.55 97.8 102.55 97.8 88.55 M87.6 93.85 Q87.6 93.6 87.85 93.6 L93.75 93.6 94.0 93.85 93.95 94.0 93.95 94.05 90.95 97.45 90.8 97.5 90.6 97.45 87.65 94.05 87.6 93.85 M97.8 14.7 L83.85 14.7 83.85 87.55 97.75 87.55 97.75 81.4 97.8 81.4 97.8 14.7 M93.95 8.2 L94.0 8.4 93.75 8.65 87.85 8.65 87.6 8.4 87.65 8.25 87.65 8.2 90.65 4.8 90.8 4.75 91.0 4.8 93.95 8.2 M82.8 -1.3 L98.8 -1.3 98.8 103.55 82.8 103.55 82.8 81.4 82.85 81.4 82.85 14.7 82.8 14.7 82.8 -1.3 M97.8 -0.3 L83.8 -0.3 83.8 13.4 83.85 13.4 83.85 13.7 97.8 13.7 97.8 -0.3" fill="#d4d0d8" fill-rule="evenodd" stroke="none"/>
  </g>
</svg>
