<?xml version="1.0" encoding="UTF-8" standalone="no"?>
<svg xmlns:xlink="http://www.w3.org/1999/xlink" height="60.8px" width="78.75px" xmlns="http://www.w3.org/2000/svg">
  <g transform="matrix(1.0, 0.0, 0.0, 1.0, 39.1, 30.45)">
    <path d="M35.3 -21.15 Q33.4 -22.4 31.3 -23.15 10.05 -30.2 -12.4 -27.65 -25.65 -26.1 -38.15 -21.45 -34.35 -6.85 -22.55 2.25 L-21.2 -7.0 Q-19.5 6.1 -25.55 17.95 -15.8 27.15 -2.45 28.25 8.5 28.3 19.0 25.85 26.05 24.35 31.65 19.75 32.5 10.15 31.25 0.75 37.15 -6.3 38.1 -15.35 38.45 -19.05 35.3 -21.15 M39.65 -17.7 Q39.9 -8.55 34.9 -0.85 L33.35 1.65 Q34.95 11.45 32.1 20.9 31.6 22.55 30.4 23.65 27.5 26.4 23.85 27.35 11.9 30.4 -0.4 30.35 -16.5 30.25 -27.35 18.8 L-26.6 16.45 -28.8 15.65 Q-36.2 12.75 -38.6 5.45 -35.0 2.6 -34.65 -2.0 -34.25 -7.2 -36.75 -11.8 -39.5 -16.9 -39.0 -22.35 -29.65 -25.85 -20.0 -27.9 -8.7 -30.2 2.75 -30.45 22.65 -30.9 39.5 -20.3 L39.65 -17.7 M-36.6 6.0 Q-33.0 12.25 -26.05 14.7 L-22.9 4.05 Q-28.25 0.55 -32.15 -4.25 -32.45 0.35 -35.25 4.2 L-36.6 6.0" fill="#000000" fill-rule="evenodd" stroke="none"/>
    <path d="M35.3 -21.15 Q38.45 -19.05 38.1 -15.35 37.15 -6.3 31.25 0.75 32.5 10.15 31.65 19.75 26.05 24.35 19.0 25.85 8.5 28.3 -2.45 28.25 -15.8 27.15 -25.55 17.95 -19.5 6.1 -21.2 -7.0 L-22.55 2.25 Q-34.35 -6.85 -38.15 -21.45 -25.65 -26.1 -12.4 -27.65 10.05 -30.2 31.3 -23.15 33.4 -22.4 35.3 -21.15 M-36.6 6.0 L-35.25 4.2 Q-32.45 0.35 -32.15 -4.25 -28.25 0.55 -22.9 4.05 L-26.05 14.7 Q-33.0 12.25 -36.6 6.0" fill="#666666" fill-rule="evenodd" stroke="none"/>
  </g>
</svg>
