<?xml version="1.0" encoding="UTF-8" standalone="no"?>
<svg xmlns:xlink="http://www.w3.org/1999/xlink" height="41.7px" width="38.35px" xmlns="http://www.w3.org/2000/svg">
  <g transform="matrix(1.0, 0.0, 0.0, 1.0, 19.15, 20.6)">
    <path d="M-8.0 -17.55 L-1.75 -19.3 Q1.2 -19.9 3.55 -17.9 L7.6 -14.35 Q9.5 -12.55 10.45 -10.25 15.2 0.8 17.7 12.65 L15.95 13.75 Q9.95 17.5 2.8 18.4 5.35 8.6 4.8 -1.35 4.6 -4.35 3.8 -7.3 L2.9 -9.75 Q1.0 -13.3 -2.65 -14.7 L-7.25 -16.55 Q-8.05 -16.85 -8.0 -17.55" fill="#d6280a" fill-rule="evenodd" stroke="none"/>
    <path d="M3.6 -19.8 Q7.35 -18.15 9.75 -14.5 11.45 -11.95 12.55 -9.2 L15.35 -1.5 Q17.8 5.85 19.2 13.35 15.95 16.35 12.0 18.45 9.65 19.75 6.7 20.2 L-3.75 21.05 -9.05 20.5 Q-13.05 19.75 -16.3 17.95 L-19.15 16.1 Q-19.15 6.8 -17.35 -2.35 -16.2 -8.05 -13.5 -13.0 L-11.5 -15.9 Q-9.25 -18.55 -5.95 -19.7 -1.15 -21.45 3.6 -19.8 M2.8 18.4 Q9.95 17.5 15.95 13.75 L17.7 12.65 Q15.2 0.8 10.45 -10.25 9.5 -12.55 7.6 -14.35 L3.55 -17.9 Q1.2 -19.9 -1.75 -19.3 L-8.0 -17.55 Q-11.45 -14.65 -13.05 -10.65 L-14.55 -6.25 Q-17.2 3.1 -17.85 13.0 L-18.05 16.2 Q-7.85 19.95 2.8 18.4" fill="#000000" fill-rule="evenodd" stroke="none"/>
    <path d="M-8.0 -17.55 Q-8.05 -16.85 -7.25 -16.55 L-2.65 -14.7 Q1.0 -13.3 2.9 -9.75 L3.8 -7.3 Q4.6 -4.35 4.8 -1.35 5.35 8.6 2.8 18.4 -7.85 19.95 -18.05 16.2 L-17.85 13.0 Q-17.2 3.1 -14.55 -6.25 L-13.05 -10.65 Q-11.45 -14.65 -8.0 -17.55" fill="#f02d0b" fill-rule="evenodd" stroke="none"/>
  </g>
</svg>
