<?xml version="1.0" encoding="UTF-8" standalone="no"?>
<svg xmlns:xlink="http://www.w3.org/1999/xlink" height="115.65px" width="114.1px" xmlns="http://www.w3.org/2000/svg">
  <g transform="matrix(1.0, 0.0, 0.0, 1.0, 54.55, 50.55)">
    <path d="M33.9 31.85 Q25.9 36.65 16.7 38.0 L11.15 38.2 Q-2.7 37.95 -16.5 39.0 L-22.45 38.15 -24.95 37.45 Q-31.15 34.05 -36.1 28.9 L-39.6 25.0 Q-45.65 17.55 -46.25 7.7 -52.0 4.4 -53.9 -2.1 -55.85 -8.85 -51.95 -14.75 -48.55 -19.9 -42.3 -20.6 -32.5 -20.7 -28.65 -11.65 L-23.75 -11.3 Q-20.2 -10.7 -17.3 -8.7 -16.85 -20.6 -10.65 -30.55 -8.6 -33.9 -6.0 -36.85 5.65 -50.25 23.55 -50.55 L28.6 -50.15 Q38.95 -48.95 45.6 -41.05 L43.75 -41.15 43.7 -41.2 Q34.95 -49.55 22.8 -49.3 8.65 -48.15 -2.55 -39.6 L-1.1 -39.65 -0.05 -38.5 Q3.3 -34.2 0.9 -29.35 L0.1 -28.3 0.25 -29.3 0.0 -29.65 Q0.8 -34.4 -1.7 -38.3 L-2.75 -38.65 -2.95 -39.2 -2.8 -39.4 -3.0 -39.25 -5.35 -36.7 Q-8.0 -33.75 -9.7 -30.3 L-10.35 -29.0 -9.4 -30.15 -7.3 -31.6 Q-2.95 -29.9 -3.25 -24.6 -3.85 -14.5 -7.2 -5.05 -8.95 0.0 -8.25 5.5 -4.45 7.55 -0.35 7.85 2.8 8.05 5.55 7.05 17.1 3.1 29.15 5.25 31.75 6.0 33.9 7.7 L35.5 9.2 35.45 11.25 Q33.0 8.8 29.7 7.45 27.05 6.55 24.4 6.55 14.35 5.95 4.9 8.5 L0.35 9.4 Q-10.75 8.65 -15.5 -1.2 -16.65 -3.6 -16.95 -6.25 -20.85 -9.8 -26.15 -10.15 -37.35 -9.25 -42.4 0.95 -44.3 4.9 -44.1 9.35 -43.6 20.15 -35.05 27.1 -26.0 34.5 -14.35 34.0 L-10.85 33.2 Q-1.95 30.55 6.9 26.9 L0.15 26.0 0.0 25.6 Q10.7 23.2 18.95 30.45 L18.7 31.3 Q17.0 31.15 15.75 30.35 13.15 28.45 10.1 27.55 6.4 28.6 2.9 30.05 -2.9 32.5 -8.85 34.2 -20.8 37.4 -31.5 31.3 -25.35 38.25 -16.15 37.55 L18.85 35.3 Q27.3 34.85 34.15 29.7 L33.9 31.85 M51.75 -34.7 Q55.45 -31.3 57.2 -26.4 62.75 -11.05 55.15 3.1 L54.55 2.9 55.05 0.05 Q56.65 -2.9 57.3 -6.1 60.3 -20.75 52.05 -32.95 L50.95 -35.2 51.75 -34.7 M35.5 -33.4 Q33.7 -32.65 31.55 -32.7 L30.3 -32.75 Q32.85 -36.75 37.65 -38.6 44.1 -41.15 50.1 -38.05 53.5 -14.75 53.85 8.75 L54.4 39.95 Q54.55 47.35 54.3 54.7 54.15 59.35 50.3 61.9 45.05 65.45 40.35 61.05 35.35 56.45 34.95 49.65 34.4 39.5 35.9 29.5 37.05 21.7 37.1 13.9 37.25 -1.9 39.25 -17.75 40.4 -27.05 36.1 -35.35 L35.25 -35.7 35.85 -33.55 35.5 -33.4 M-49.25 -15.6 L-50.1 -12.2 -48.95 -11.95 Q-45.1 -17.3 -38.65 -16.2 -37.8 -16.1 -37.05 -15.6 -34.05 -13.45 -32.55 -10.35 L-31.35 -10.45 Q-30.5 -12.85 -32.25 -15.2 -35.55 -19.7 -41.3 -19.5 -46.0 -19.2 -49.25 -15.6 M-10.65 -26.4 L-10.8 -26.2 -10.5 -26.3 Q-6.6 -25.05 -5.2 -21.0 L-4.85 -19.9 Q-3.25 -25.1 -6.3 -29.7 L-7.9 -30.0 -10.65 -26.4 M-5.4 -16.95 L-5.95 -18.95 Q-7.0 -23.55 -11.6 -24.45 -15.25 -16.3 -16.1 -7.55 L-15.7 -7.1 -16.05 -6.55 -15.45 -4.8 -15.05 -7.65 -14.7 -8.05 -14.55 -8.9 -12.95 -9.5 -14.55 -11.0 Q-14.05 -15.55 -12.2 -20.0 L-11.2 -20.05 Q-10.85 -19.95 -10.6 -19.7 -9.0 -17.9 -9.35 -15.2 -9.1 -6.75 -13.2 0.7 -11.6 3.0 -9.4 4.75 -8.85 -6.4 -5.4 -16.95 M-36.75 11.15 Q-36.75 10.55 -36.35 10.15 -35.95 9.75 -35.35 9.75 -34.75 9.75 -34.35 10.15 -33.95 10.55 -33.95 11.15 -33.95 11.75 -34.35 12.15 -34.75 12.55 -35.35 12.55 -35.95 12.55 -36.35 12.15 -36.75 11.75 -36.75 11.15 M-36.35 1.45 L-35.75 2.35 -36.85 4.35 -38.35 4.1 -38.6 3.75 Q-38.95 2.2 -37.7 1.25 L-37.2 1.15 -36.35 1.45 M-32.3 4.2 Q-32.75 4.2 -33.05 3.9 L-33.35 3.15 -33.05 2.4 Q-32.75 2.1 -32.3 2.1 -31.85 2.1 -31.55 2.4 -31.25 2.7 -31.25 3.15 -31.25 3.6 -31.55 3.9 -31.85 4.2 -32.3 4.2 M-29.2 11.3 Q-29.7 11.3 -30.05 10.95 L-30.4 10.1 -30.05 9.25 Q-29.7 8.9 -29.2 8.9 -28.7 8.9 -28.35 9.25 -28.0 9.6 -28.0 10.1 -28.0 10.6 -28.35 10.95 -28.7 11.3 -29.2 11.3" fill="#000000" fill-rule="evenodd" stroke="none"/>
    <path d="M29.15 5.25 Q17.1 3.1 5.55 7.05 2.8 8.05 -0.35 7.85 -4.45 7.55 -8.25 5.5 -8.95 0.0 -7.2 -5.05 -3.85 -14.5 -3.25 -24.6 -2.95 -29.9 -7.3 -31.6 L-9.4 -30.15 -9.7 -30.3 Q-8.0 -33.75 -5.35 -36.7 L-3.0 -39.25 -2.95 -39.2 -2.75 -38.65 -1.7 -38.3 Q0.8 -34.4 0.0 -29.65 L0.25 -29.3 0.1 -28.3 0.9 -29.35 Q0.3 -24.7 1.4 -20.25 1.85 -18.45 3.7 -18.5 5.95 -20.25 7.15 -22.85 L9.65 -28.1 13.5 -35.7 Q16.4 -41.45 22.5 -42.65 30.0 -43.9 33.05 -37.6 29.9 -35.65 29.2 -32.1 L29.25 -31.8 35.45 -31.6 Q37.8 -15.2 31.4 0.1 L29.15 5.25" fill="#0ecfe4" fill-rule="evenodd" stroke="none"/>
    <path d="M33.9 31.85 L34.15 29.7 35.55 18.85 35.45 11.25 35.5 9.2 Q37.0 -6.45 37.65 -22.15 37.85 -27.1 36.4 -31.85 L35.45 -31.6 29.25 -31.8 29.2 -32.1 Q29.9 -35.65 33.05 -37.6 L33.45 -37.9 Q38.2 -40.7 43.65 -41.15 L43.75 -41.15 45.6 -41.05 50.05 -39.45 50.8 -39.7 51.75 -34.7 50.95 -35.2 52.05 -32.95 52.45 -29.9 Q54.25 -15.0 55.05 0.05 L54.55 2.9 55.15 3.1 Q55.55 25.55 56.35 47.9 56.6 54.2 54.5 59.85 L54.05 59.85 Q50.95 66.4 43.55 64.75 40.4 64.1 38.55 61.9 35.8 58.65 34.75 54.5 31.95 43.25 33.9 31.85 M35.5 -33.4 L35.85 -33.55 35.25 -35.7 36.1 -35.35 Q40.4 -27.05 39.25 -17.75 37.25 -1.9 37.1 13.9 37.05 21.7 35.9 29.5 34.4 39.5 34.95 49.65 35.35 56.45 40.35 61.05 45.05 65.45 50.3 61.9 54.15 59.35 54.3 54.7 54.55 47.35 54.4 39.95 L53.85 8.75 Q53.5 -14.75 50.1 -38.05 44.1 -41.15 37.65 -38.6 32.85 -36.75 30.3 -32.75 L31.55 -32.7 Q33.7 -32.65 35.5 -33.4 M-49.25 -15.6 Q-46.0 -19.2 -41.3 -19.5 -35.55 -19.7 -32.25 -15.2 -30.5 -12.85 -31.35 -10.45 L-32.55 -10.35 Q-34.05 -13.45 -37.05 -15.6 -37.8 -16.1 -38.65 -16.2 -45.1 -17.3 -48.95 -11.95 L-50.1 -12.2 -49.25 -15.6" fill="#999999" fill-rule="evenodd" stroke="none"/>
    <path d="M35.5 9.2 L33.9 7.7 Q31.75 6.0 29.15 5.25 L31.4 0.1 Q37.8 -15.2 35.45 -31.6 L36.4 -31.85 Q37.85 -27.1 37.65 -22.15 37.0 -6.45 35.5 9.2 M0.9 -29.35 Q3.3 -34.2 -0.05 -38.5 L-1.1 -39.65 -2.55 -39.6 Q8.65 -48.15 22.8 -49.3 34.95 -49.55 43.7 -41.2 L43.65 -41.15 Q38.2 -40.7 33.45 -37.9 L33.05 -37.6 Q30.0 -43.9 22.5 -42.65 16.4 -41.45 13.5 -35.7 L9.65 -28.1 7.15 -22.85 Q5.95 -20.25 3.7 -18.5 1.85 -18.45 1.4 -20.25 0.3 -24.7 0.9 -29.35 M55.05 0.05 Q54.25 -15.0 52.45 -29.9 L52.05 -32.95 Q60.3 -20.75 57.3 -6.1 56.65 -2.9 55.05 0.05 M-10.5 -26.3 L-10.65 -26.4 -7.9 -30.0 -6.3 -29.7 Q-3.25 -25.1 -4.85 -19.9 L-5.2 -21.0 Q-6.6 -25.05 -10.5 -26.3" fill="#0db5c8" fill-rule="evenodd" stroke="none"/>
    <path d="M34.15 29.7 Q27.3 34.85 18.85 35.3 L-16.15 37.55 Q-25.35 38.25 -31.5 31.3 -20.8 37.4 -8.85 34.2 -2.9 32.5 2.9 30.05 6.4 28.6 10.1 27.55 13.15 28.45 15.75 30.35 17.0 31.15 18.7 31.3 L18.95 30.45 Q10.7 23.2 0.0 25.6 L0.15 26.0 6.9 26.9 Q-1.95 30.55 -10.85 33.2 L-14.35 34.0 Q-26.0 34.5 -35.05 27.1 -43.6 20.15 -44.1 9.35 -44.3 4.9 -42.4 0.95 -37.35 -9.25 -26.15 -10.15 -26.8 -0.15 -20.4 7.45 -16.55 12.0 -10.65 13.1 L-3.7 13.85 14.8 12.75 Q26.6 11.45 35.55 18.85 L34.15 29.7 M-29.2 11.3 Q-28.7 11.3 -28.35 10.95 -28.0 10.6 -28.0 10.1 -28.0 9.6 -28.35 9.25 -28.7 8.9 -29.2 8.9 -29.7 8.9 -30.05 9.25 L-30.4 10.1 -30.05 10.95 Q-29.7 11.3 -29.2 11.3 M-32.3 4.2 Q-31.85 4.2 -31.55 3.9 -31.25 3.6 -31.25 3.15 -31.25 2.7 -31.55 2.4 -31.85 2.1 -32.3 2.1 -32.75 2.1 -33.05 2.4 L-33.35 3.15 -33.05 3.9 Q-32.75 4.2 -32.3 4.2 M-36.35 1.45 L-37.2 1.15 -37.7 1.25 Q-38.95 2.2 -38.6 3.75 L-38.35 4.1 -36.85 4.35 -35.75 2.35 -36.35 1.45 M-36.75 11.15 Q-36.75 11.75 -36.35 12.15 -35.95 12.55 -35.35 12.55 -34.75 12.55 -34.35 12.15 -33.95 11.75 -33.95 11.15 -33.95 10.55 -34.35 10.15 -34.75 9.75 -35.35 9.75 -35.95 9.75 -36.35 10.15 -36.75 10.55 -36.75 11.15" fill="#a88b69" fill-rule="evenodd" stroke="none"/>
    <path d="M-5.4 -16.95 Q-8.85 -6.4 -9.4 4.75 -11.6 3.0 -13.2 0.7 -9.1 -6.75 -9.35 -15.2 -9.0 -17.9 -10.6 -19.7 -10.85 -19.95 -11.2 -20.05 L-12.2 -20.0 Q-14.05 -15.55 -14.55 -11.0 L-12.95 -9.5 -14.55 -8.9 -14.7 -8.05 -15.05 -7.65 -15.45 -4.8 -16.05 -6.55 -15.7 -7.1 -16.1 -7.55 Q-15.25 -16.3 -11.6 -24.45 -7.0 -23.55 -5.95 -18.95 L-5.4 -16.95" fill="#ffffff" fill-rule="evenodd" stroke="none"/>
    <path d="M-26.15 -10.15 Q-20.85 -9.8 -16.95 -6.25 -16.65 -3.6 -15.5 -1.2 -10.75 8.65 0.35 9.4 L4.9 8.5 Q14.35 5.95 24.4 6.55 27.05 6.55 29.7 7.45 33.0 8.8 35.45 11.25 L35.55 18.85 Q26.6 11.45 14.8 12.75 L-3.7 13.85 -10.65 13.1 Q-16.55 12.0 -20.4 7.45 -26.8 -0.15 -26.15 -10.15" fill="#c19f79" fill-rule="evenodd" stroke="none"/>
  </g>
</svg>
