<?xml version="1.0" encoding="UTF-8" standalone="no"?>
<svg xmlns:xlink="http://www.w3.org/1999/xlink" height="82.15px" width="48.95px" xmlns="http://www.w3.org/2000/svg">
  <g transform="matrix(1.0, 0.0, 0.0, 1.0, 19.5, 40.5)">
    <path d="M5.9 -38.55 L1.6 -38.55 -1.7 -38.55 -6.6 -38.6 -12.1 -38.6 -15.3 -38.6 -16.45 -38.6 -15.65 -31.65 -17.15 -31.65 -15.65 -31.65 -15.7 -28.2 -15.8 -24.7 -15.8 -24.65 -16.25 -17.5 -16.65 -14.0 -17.2 -9.15 -17.4 -7.55 -15.45 -7.55 -15.45 -7.3 Q-16.45 -6.7 -17.5 -6.2 L-17.7 -2.15 -17.75 1.45 -17.7 4.5 -17.6 11.95 -17.5 15.0 -17.3 18.6 -17.1 23.8 -16.95 27.1 -16.5 27.8 -15.45 28.05 -6.6 29.1 -1.7 28.95 1.6 28.5 5.9 27.55 7.55 27.1 12.35 25.15 11.75 23.8 Q11.1 20.85 8.75 19.1 L8.7 18.6 7.0 15.0 Q6.55 13.55 6.6 11.95 L6.95 4.5 7.0 1.45 7.0 -2.15 7.15 -9.15 7.4 -14.1 7.7 -17.55 8.6 -24.95 9.15 -28.2 9.6 -31.6 9.55 -33.6 12.65 -35.65 13.25 -36.0 12.65 -38.5 5.9 -38.55 M-18.65 -9.2 L-17.2 -9.15 -18.65 -9.2 -17.85 -17.5 -17.15 -31.65 -17.6 -39.85 Q-1.4 -41.4 14.4 -39.25 L14.35 -35.25 11.3 -32.9 10.55 -26.55 Q9.05 -16.35 8.95 -6.1 L8.7 13.6 Q8.65 15.35 9.75 16.7 13.2 21.0 14.7 26.3 L14.45 26.1 Q14.0 26.1 13.7 26.4 13.4 26.65 13.4 27.05 L12.35 27.95 12.0 27.65 Q0.3 32.7 -12.3 30.55 -14.9 30.2 -17.3 29.05 L-17.4 29.0 -17.4 29.05 -17.95 39.95 27.3 40.2 27.3 35.85 Q22.75 31.4 17.5 28.1 23.65 29.5 27.85 34.2 30.55 37.25 28.75 41.05 L27.4 41.1 27.1 41.5 -18.0 41.25 -18.45 41.65 -18.95 41.5 Q-19.55 35.15 -18.2 28.95 L-18.1 28.75 -18.1 28.7 -18.45 28.7 -19.35 11.95 Q-19.8 1.3 -18.65 -9.2 M-17.85 -17.5 L-16.25 -17.5 -17.85 -17.5" fill="#000000" fill-rule="evenodd" stroke="none"/>
    <path d="M1.6 -38.55 L5.9 -38.55 5.9 -31.6 5.9 -38.55 12.65 -38.5 12.65 -35.65 9.55 -33.6 9.6 -31.6 9.15 -28.2 8.6 -24.95 7.7 -17.55 7.4 -14.1 7.15 -9.15 7.0 -2.15 7.0 1.45 6.95 4.5 6.6 11.95 Q6.55 13.55 7.0 15.0 L8.7 18.6 8.75 19.1 Q11.1 20.85 11.75 23.8 L12.35 25.15 7.55 27.1 5.9 27.55 1.6 28.5 -1.7 28.95 -6.6 29.1 -15.45 28.05 -16.5 27.8 -16.95 27.1 -17.1 23.8 -17.3 18.6 -17.5 15.0 -17.6 11.95 -17.7 4.5 -17.75 1.45 -17.7 -2.15 -17.5 -6.2 Q-16.45 -6.7 -15.45 -7.3 L-15.45 -7.55 -17.4 -7.55 -17.2 -9.15 -16.65 -14.0 -16.25 -17.5 -15.8 -24.65 -15.8 -24.7 -15.7 -28.2 -15.3 -28.2 -15.3 -31.65 -15.3 -28.2 -15.7 -28.2 -15.65 -31.65 -16.45 -38.6 -15.3 -38.6 -12.1 -38.6 -6.6 -38.6 -1.7 -38.55 1.6 -38.55 1.6 -31.6 1.6 -38.55 M5.9 -31.6 L1.6 -31.6 5.9 -31.6 9.6 -31.6 5.9 -31.6 5.9 -28.2 5.9 -31.6 M13.4 27.05 Q13.4 26.65 13.7 26.4 14.0 26.1 14.45 26.1 L14.15 26.8 13.4 27.05 M1.6 -24.95 L1.6 -28.2 5.9 -28.2 9.15 -28.2 5.9 -28.2 1.6 -28.2 1.6 -24.95 5.9 -24.95 1.6 -24.95 -1.7 -24.95 1.6 -24.95 1.6 -17.55 1.6 -24.95 M5.9 -28.2 L5.9 -24.95 5.9 -28.2 M8.6 -24.95 L5.9 -24.95 8.6 -24.95 M1.6 -31.6 L1.6 -28.2 -1.7 -28.2 1.6 -28.2 1.6 -31.6 -1.7 -31.6 1.6 -31.6 M-1.7 -24.95 L-1.7 -28.2 -1.7 -31.6 -1.7 -28.2 -1.7 -24.95 -6.6 -24.7 -1.7 -24.95 -1.7 -17.55 -1.7 -14.1 -1.7 -17.55 -6.6 -17.5 -6.6 -14.0 -12.1 -14.0 -6.6 -14.0 -6.6 -17.5 -12.1 -17.5 -15.3 -17.5 -12.1 -17.5 -12.1 -24.7 -15.3 -24.7 -12.1 -24.7 -12.1 -28.2 -12.1 -31.65 -12.1 -28.2 -12.1 -24.7 -12.1 -17.5 -6.6 -17.5 -1.7 -17.55 -1.7 -24.95 M5.9 -17.55 L1.6 -17.55 5.9 -17.55 5.9 -24.95 5.9 -17.55 7.7 -17.55 5.9 -17.55 5.9 -14.1 1.6 -14.1 1.6 -17.55 1.6 -14.1 5.9 -14.1 5.9 -17.55 M7.4 -14.1 L5.9 -14.1 7.4 -14.1 M5.9 -9.15 L5.9 -14.1 5.9 -9.15 7.15 -9.15 5.9 -9.15 5.9 -2.15 7.0 -2.15 5.9 -2.15 5.9 1.45 5.9 -2.15 1.6 -2.15 5.9 -2.15 5.9 -9.15 1.6 -9.15 1.6 -2.15 1.6 1.45 5.9 1.45 7.0 1.45 5.9 1.45 1.6 1.45 1.6 -2.15 1.6 -9.15 5.9 -9.15 M5.9 4.5 L5.9 1.45 5.9 4.5 6.95 4.5 5.9 4.5 1.6 4.5 5.9 4.5 5.9 11.95 5.9 4.5 M-1.7 -2.15 L1.6 -2.15 -1.7 -2.15 -1.7 1.45 -1.7 -2.15 -1.7 -9.15 -1.7 -2.15 -6.6 -2.15 -11.95 -2.15 -6.6 -2.15 -6.6 -9.15 -12.1 -9.15 -6.6 -9.15 -6.6 -14.0 -2.0 -14.0 -1.7 -14.1 -2.0 -14.0 -6.6 -14.0 -6.6 -9.15 -6.6 -2.15 -1.7 -2.15 M1.6 4.5 L1.6 1.45 -1.7 1.45 1.6 1.45 1.6 4.5 1.6 11.95 1.6 4.5 -1.7 4.5 1.6 4.5 M6.6 11.95 L5.9 11.95 6.6 11.95 M-1.7 -14.0 L-0.4 -14.1 1.6 -14.1 1.6 -9.15 1.6 -14.1 -0.4 -14.1 -1.7 -14.0 -1.7 -9.15 -1.7 -14.0 -1.7 -14.1 -1.7 -14.0 -2.0 -14.0 -1.7 -14.0 M1.6 -9.15 L-1.7 -9.15 1.6 -9.15 M-1.7 11.95 L-1.7 4.5 -1.7 11.95 1.6 11.95 5.9 11.95 1.6 11.95 -1.7 11.95 -6.6 11.95 -1.7 11.95 -1.7 15.0 1.6 15.0 1.6 18.6 1.6 15.0 -1.7 15.0 -1.7 18.6 1.6 18.6 -1.7 18.6 -1.7 23.8 -1.7 18.6 -1.7 15.0 -1.7 11.95 M5.9 15.0 L5.9 11.95 5.9 15.0 7.0 15.0 5.9 15.0 5.9 18.6 5.9 15.0 1.6 15.0 1.6 11.95 1.6 15.0 5.9 15.0 M1.6 18.6 L1.6 23.8 1.6 18.6 5.9 18.6 1.6 18.6 M5.9 23.8 L1.6 23.8 -1.7 23.8 1.6 23.8 5.9 23.8 5.9 18.6 5.9 23.8 11.75 23.8 5.9 23.8 5.9 27.1 5.9 23.8 M-6.6 18.6 L-1.7 18.6 -6.6 18.6 -6.6 23.8 -6.6 18.6 -6.6 15.0 -1.7 15.0 -6.6 15.0 -6.6 18.6 -11.95 18.6 -6.6 18.6 M-1.7 23.8 L-6.6 23.8 -1.7 23.8 -1.7 27.1 -1.7 23.8 M1.6 23.8 L1.6 27.1 -1.7 27.1 1.6 27.1 1.6 23.8 M5.9 18.6 L8.7 18.6 5.9 18.6 M7.55 27.1 L5.9 27.1 7.55 27.1 M1.6 28.5 L1.6 27.1 5.9 27.1 1.6 27.1 1.6 28.5 M5.9 27.55 L5.9 27.1 5.9 27.55 M-15.3 -24.7 L-15.3 -28.2 -12.1 -28.2 -15.3 -28.2 -15.3 -24.7 -15.8 -24.7 -15.3 -24.7 -15.3 -17.5 -15.3 -24.7 M-15.3 -31.65 L-12.1 -31.65 -15.3 -31.65 -15.65 -31.65 -15.3 -31.65 -15.3 -38.6 -15.3 -31.65 M-6.6 -24.7 L-12.1 -24.7 -6.6 -24.7 -6.6 -28.2 -12.1 -28.2 -6.6 -28.2 -6.6 -24.7 -6.6 -17.5 -6.6 -24.7 M-6.6 -31.65 L-2.0 -31.65 -1.7 -31.6 -2.0 -31.65 -6.6 -31.65 -6.6 -28.2 -1.7 -28.2 -6.6 -28.2 -6.6 -31.65 -12.1 -31.65 -6.6 -31.65 -6.6 -38.6 -6.6 -31.65 M-1.7 -31.65 L-1.7 -31.6 -1.7 -31.65 -2.0 -31.65 -1.7 -31.65 -1.7 -38.55 -1.7 -31.65 M-12.1 -38.6 L-12.1 -31.65 -12.1 -38.6 M-12.1 -9.15 L-12.1 -14.0 -12.1 -17.5 -12.1 -14.0 -12.1 -9.15 -15.3 -9.15 -12.1 -9.15 -11.95 -2.15 -12.1 -9.15 M1.6 -17.55 L-1.7 -17.55 1.6 -17.55 M-0.4 -14.1 L-1.7 -14.1 -0.4 -14.1 M-15.3 -17.5 L-16.25 -17.5 -15.3 -17.5 -15.3 -14.0 -12.1 -14.0 -15.3 -14.0 -15.3 -17.5 M-15.3 -9.15 L-15.3 -14.0 -16.65 -14.0 -15.3 -14.0 -15.3 -9.15 -17.2 -9.15 -15.3 -9.15 -15.45 -7.55 -15.3 -9.15 M-1.7 -9.15 L-6.6 -9.15 -1.7 -9.15 M-1.7 1.45 L-6.6 1.45 -6.6 -2.15 -6.6 1.45 -1.7 1.45 -1.7 4.5 -1.7 1.45 M-6.6 4.5 L-1.7 4.5 -6.6 4.5 -6.6 11.95 -6.6 4.5 -6.6 1.45 -11.95 1.45 -6.6 1.45 -6.6 4.5 -11.95 4.5 -6.6 4.5 M-11.95 23.8 L-11.95 18.6 -11.95 23.8 -6.6 23.8 -11.95 23.8 -15.45 23.8 -11.95 23.8 -11.95 27.1 -11.95 23.8 M-1.7 27.1 L-6.6 27.1 -6.6 23.8 -6.6 27.1 -1.7 27.1 -1.7 28.95 -1.7 27.1 M-15.45 -2.15 L-17.7 -2.15 -15.45 -2.15 -15.45 -7.3 -15.45 -2.15 -11.95 -2.15 -15.45 -2.15 -15.45 1.45 -11.95 1.45 -11.95 -2.15 -11.95 1.45 -11.95 4.5 -11.95 11.95 -11.95 4.5 -11.95 1.45 -15.45 1.45 -15.45 -2.15 M-6.6 11.95 L-11.95 11.95 -6.6 11.95 -6.6 15.0 -11.95 15.0 -6.6 15.0 -6.6 11.95 M-11.95 18.6 L-11.95 15.0 -11.95 18.6 -15.45 18.6 -11.95 18.6 M-15.45 23.8 L-15.45 18.6 -15.45 23.8 -17.1 23.8 -15.45 23.8 -15.45 27.1 -11.95 27.1 -6.6 27.1 -6.6 29.1 -6.6 27.1 -11.95 27.1 -15.45 27.1 -15.45 23.8 M-15.45 4.5 L-11.95 4.5 -15.45 4.5 -15.45 11.95 -15.45 4.5 -15.45 1.45 -17.75 1.45 -15.45 1.45 -15.45 4.5 -17.7 4.5 -15.45 4.5 M-11.95 11.95 L-15.45 11.95 -11.95 11.95 -11.95 15.0 -11.95 11.95 M-15.45 18.6 L-15.45 15.0 -11.95 15.0 -15.45 15.0 -15.45 18.6 -17.3 18.6 -15.45 18.6 M-17.6 11.95 L-15.45 11.95 -17.6 11.95 M-17.5 15.0 L-15.45 15.0 -17.5 15.0 M-15.45 28.05 L-15.45 27.1 -16.95 27.1 -15.45 27.1 -15.45 28.05 M-15.45 11.95 L-15.45 15.0 -15.45 11.95" fill="#5c2961" fill-rule="evenodd" stroke="none"/>
    <path d="M17.5 28.1 Q22.75 31.4 27.3 35.85 L27.3 40.2 -17.95 39.95 -17.4 29.05 -17.3 29.05 Q-14.9 30.2 -12.3 30.55 0.3 32.7 12.0 27.65 L12.35 27.95 13.4 27.05 14.15 26.8 14.45 26.1 14.7 26.3 17.5 28.1" fill="#666666" fill-rule="evenodd" stroke="none"/>
    <path d="M1.6 -31.6 L5.9 -31.6 M-17.2 -9.15 L-18.65 -9.2 M-17.15 -31.65 L-15.65 -31.65 M9.6 -31.6 L5.9 -31.6 M1.6 -24.95 L5.9 -24.95 8.6 -24.95 M1.6 -31.6 L-1.7 -31.6 -2.0 -31.65 -6.6 -31.65 -12.1 -31.65 -15.3 -31.65 -15.65 -31.65 M-1.7 -24.95 L1.6 -24.95 M1.6 -17.55 L5.9 -17.55 M7.7 -17.55 L5.9 -17.55 M5.9 -9.15 L7.15 -9.15 M7.0 -2.15 L5.9 -2.15 1.6 -2.15 -1.7 -2.15 -6.6 -2.15 M5.9 4.5 L6.95 4.5 M1.6 4.5 L5.9 4.5 M5.9 11.95 L6.6 11.95 M5.9 -9.15 L1.6 -9.15 M-1.7 -9.15 L1.6 -9.15 M1.6 4.5 L-1.7 4.5 -6.6 4.5 -11.95 4.5 -15.45 4.5 M-1.7 11.95 L1.6 11.95 5.9 11.95 M1.6 18.6 L-1.7 18.6 -6.6 18.6 -11.95 18.6 -15.45 18.6 -17.3 18.6 M-1.7 23.8 L1.6 23.8 5.9 23.8 M5.9 18.6 L1.6 18.6 M-6.6 23.8 L-1.7 23.8 M8.7 18.6 L5.9 18.6 M11.75 23.8 L5.9 23.8 M-15.3 -24.7 L-12.1 -24.7 -6.6 -24.7 -1.7 -24.95 M-15.8 -24.7 L-15.3 -24.7 M-15.3 -17.5 L-12.1 -17.5 M-1.7 -31.65 L-2.0 -31.65 M-6.6 -17.5 L-12.1 -17.5 M-12.1 -9.15 L-6.6 -9.15 -1.7 -9.15 M-1.7 -17.55 L-6.6 -17.5 M-1.7 -17.55 L1.6 -17.55 M-15.8 -24.7 L-15.8 -24.65 M-16.25 -17.5 L-15.3 -17.5 M-15.3 -9.15 L-12.1 -9.15 M-11.95 -2.15 L-6.6 -2.15 M-6.6 11.95 L-1.7 11.95 M-11.95 23.8 L-6.6 23.8 M-17.2 -9.15 L-15.3 -9.15 M-16.25 -17.5 L-17.85 -17.5 M-17.7 -2.15 L-15.45 -2.15 -11.95 -2.15 M-11.95 11.95 L-6.6 11.95 M-15.45 23.8 L-11.95 23.8 M-15.45 11.95 L-11.95 11.95 M-17.7 4.5 L-15.45 4.5 M-15.45 11.95 L-17.6 11.95 M-17.1 23.8 L-15.45 23.8" fill="none" stroke="#000000" stroke-linecap="round" stroke-linejoin="round" stroke-width="1.25"/>
    <path d="M5.9 -31.6 L5.9 -38.55 M5.9 -31.6 L5.9 -28.2 M5.9 -24.95 L5.9 -28.2 M-1.7 -31.6 L-1.7 -28.2 -1.7 -24.95 -1.7 -17.55 M5.9 -17.55 L5.9 -24.95 M12.65 -35.65 L12.65 -38.5 M5.9 -17.55 L5.9 -14.1 5.9 -9.15 5.9 -2.15 5.9 1.45 5.9 4.5 5.9 11.95 5.9 15.0 M-1.7 -2.15 L-1.7 1.45 -1.7 4.5 -1.7 11.95 -1.7 15.0 -1.7 18.6 -1.7 23.8 -1.7 27.1 -1.7 28.95 M-1.7 -14.0 L-1.7 -9.15 -1.7 -2.15 M5.9 23.8 L5.9 18.6 5.9 15.0 M5.9 23.8 L5.9 27.1 5.9 27.55 M-12.1 -24.7 L-12.1 -28.2 -12.1 -31.65 -12.1 -38.6 M-12.1 -17.5 L-12.1 -24.7 M-1.7 -31.6 L-1.7 -31.65 M-1.7 -38.55 L-1.7 -31.65 M-12.1 -17.5 L-12.1 -14.0 -12.1 -9.15 -11.95 -2.15 -11.95 1.45 -11.95 4.5 -11.95 11.95 -11.95 15.0 -11.95 18.6 -11.95 23.8 -11.95 27.1 M-1.7 -14.1 L-1.7 -17.55 M-1.7 -14.0 L-1.7 -14.1" fill="none" stroke="#7d138c" stroke-linecap="round" stroke-linejoin="round" stroke-width="1.5"/>
    <path d="M1.6 -38.55 L1.6 -31.6 M-15.45 -7.3 L-15.45 -7.55 M5.9 -28.2 L9.15 -28.2 M5.9 -28.2 L1.6 -28.2 1.6 -24.95 1.6 -17.55 1.6 -14.1 5.9 -14.1 7.4 -14.1 M-1.7 -28.2 L1.6 -28.2 1.6 -31.6 M5.9 1.45 L7.0 1.45 M1.6 -2.15 L1.6 1.45 5.9 1.45 M1.6 -9.15 L1.6 -2.15 M-1.7 1.45 L1.6 1.45 1.6 4.5 M1.6 -9.15 L1.6 -14.1 -0.4 -14.1 -1.7 -14.0 -2.0 -14.0 -1.7 -14.1 -0.4 -14.1 M1.6 11.95 L1.6 4.5 M5.9 15.0 L7.0 15.0 M1.6 23.8 L1.6 18.6 1.6 15.0 -1.7 15.0 -6.6 15.0 -6.6 18.6 -6.6 23.8 -6.6 27.1 -1.7 27.1 1.6 27.1 1.6 23.8 M5.9 15.0 L1.6 15.0 1.6 11.95 M5.9 27.1 L7.55 27.1 M5.9 27.1 L1.6 27.1 1.6 28.5 M-12.1 -28.2 L-15.3 -28.2 -15.3 -24.7 -15.3 -17.5 -15.3 -14.0 -12.1 -14.0 -6.6 -14.0 -6.6 -17.5 -6.6 -24.7 -6.6 -28.2 -12.1 -28.2 M-15.3 -31.65 L-15.3 -28.2 -15.7 -28.2 M-6.6 -31.65 L-6.6 -28.2 -1.7 -28.2 M-15.3 -31.65 L-15.3 -38.6 M-6.6 -38.6 L-6.6 -31.65 M-6.6 -9.15 L-6.6 -14.0 -2.0 -14.0 M-16.65 -14.0 L-15.3 -14.0 -15.3 -9.15 -15.45 -7.55 M-6.6 -2.15 L-6.6 -9.15 M-6.6 -2.15 L-6.6 1.45 -1.7 1.45 M-6.6 4.5 L-6.6 11.95 -6.6 15.0 -11.95 15.0 -15.45 15.0 -15.45 18.6 -15.45 23.8 -15.45 27.1 -11.95 27.1 -6.6 27.1 -6.6 29.1 M-15.45 -2.15 L-15.45 -7.3 M-11.95 1.45 L-6.6 1.45 -6.6 4.5 M-15.45 4.5 L-15.45 11.95 M-15.45 4.5 L-15.45 1.45 -17.75 1.45 M-15.45 -2.15 L-15.45 1.45 -11.95 1.45 M-15.45 15.0 L-17.5 15.0 M-15.45 15.0 L-15.45 11.95 M-16.95 27.1 L-15.45 27.1 -15.45 28.05" fill="none" stroke="#f583bf" stroke-linecap="round" stroke-linejoin="round" stroke-width="1.0"/>
  </g>
</svg>
