<?xml version="1.0" encoding="UTF-8" standalone="no"?>
<svg xmlns:xlink="http://www.w3.org/1999/xlink" height="75.8px" width="50.7px" xmlns="http://www.w3.org/2000/svg">
  <g transform="matrix(1.0, 0.0, 0.0, 1.0, 25.15, 37.55)">
    <path d="M8.8 -34.7 L8.55 -34.85 Q6.9 -35.65 5.15 -36.05 -0.45 -37.2 -5.8 -35.8 L-7.75 -35.3 -9.05 -34.85 -11.2 -32.05 -11.5 -31.3 -14.15 -23.9 -15.15 -20.75 -16.8 -20.75 -15.15 -20.75 -16.2 -17.25 -18.0 -10.65 -18.4 -9.1 -19.3 -5.2 -19.95 -2.45 -21.35 4.05 -21.6 5.4 -22.2 8.35 -22.8 12.05 -23.4 17.0 -23.65 20.35 -23.85 23.65 -24.05 27.7 -21.55 31.25 -21.35 31.45 -18.0 33.9 -16.9 34.45 -11.5 36.3 -7.75 36.65 Q-3.2 36.6 1.0 35.2 L3.15 34.45 5.15 33.85 8.8 32.35 9.35 32.2 9.7 31.25 12.6 23.65 12.75 23.65 12.75 23.2 13.85 20.35 15.1 17.0 17.15 12.05 19.05 8.35 20.15 5.4 Q21.2 2.7 22.55 0.05 L23.85 -2.45 24.05 -5.2 23.7 -9.1 Q23.35 -12.2 22.55 -15.2 L21.95 -17.25 20.6 -20.75 19.75 -22.5 19.15 -22.9 18.75 -23.9 Q17.85 -26.3 16.15 -28.45 L12.75 -31.95 12.65 -32.05 8.8 -34.7 M22.55 -20.75 L20.6 -20.75 22.55 -20.75 Q26.0 -13.65 25.45 -5.75 25.25 -3.0 24.2 -0.55 17.1 16.3 10.4 33.45 1.0 38.85 -9.65 38.2 -21.45 37.05 -24.6 26.05 -25.35 23.55 -25.1 21.0 -23.15 -0.1 -16.8 -20.75 -16.0 -29.3 -10.25 -34.65 -7.5 -37.2 -3.85 -37.35 15.5 -39.3 22.55 -20.75" fill="#000000" fill-rule="evenodd" stroke="none"/>
    <path d="M5.15 -34.85 L8.55 -34.85 5.15 -34.85 5.15 -32.05 5.15 -34.85 5.15 -36.05 5.15 -34.85 -7.75 -34.85 -7.75 -32.05 -7.75 -34.85 5.15 -34.85 M8.8 -32.05 L5.15 -32.05 8.8 -32.05 8.8 -34.7 8.8 -32.05 8.8 -23.9 8.8 -32.05 12.65 -32.05 8.8 -32.05 M8.55 -34.85 L8.8 -34.7 12.65 -32.05 12.75 -31.95 16.15 -28.45 Q17.85 -26.3 18.75 -23.9 L12.75 -23.9 18.75 -23.9 19.15 -22.9 19.75 -22.5 20.6 -20.75 12.75 -20.75 20.6 -20.75 21.95 -17.25 22.55 -15.2 Q23.35 -12.2 23.7 -9.1 L24.05 -5.2 23.85 -2.45 22.55 0.05 Q21.2 2.7 20.15 5.4 L19.05 8.35 17.15 12.05 15.1 17.0 13.85 20.35 12.75 23.2 12.75 23.65 12.6 23.65 9.7 31.25 9.35 32.2 8.8 32.35 5.15 33.85 3.15 34.45 1.0 35.2 Q-3.2 36.6 -7.75 36.65 L-11.5 36.3 -16.9 34.45 -18.0 33.9 -21.35 31.45 -21.55 31.25 -24.05 27.7 -23.85 23.65 -23.65 20.35 -23.4 17.0 -22.8 12.05 -22.2 8.35 -21.6 5.4 -21.35 4.05 -19.95 -2.45 -19.3 -5.2 -18.4 -9.1 -18.0 -10.65 -16.2 -17.25 -15.15 -20.75 -14.15 -23.9 -11.5 -31.3 -11.2 -32.05 -9.05 -34.85 -7.75 -35.3 -5.8 -35.8 Q-0.45 -37.2 5.15 -36.05 6.9 -35.65 8.55 -34.85 M5.15 -32.05 L-7.75 -32.05 5.15 -32.05 5.15 -23.9 5.15 -32.05 M8.8 -23.9 L5.15 -23.9 8.8 -23.9 8.8 -20.75 5.15 -20.75 8.8 -20.75 8.8 -23.9 12.75 -23.9 12.75 -31.95 12.75 -23.9 12.75 -20.75 12.75 -23.9 8.8 -23.9 M-11.5 -20.75 L-15.15 -20.75 -11.5 -20.75 -11.5 -23.9 -11.5 -20.75 -7.75 -20.75 -7.75 -23.9 -7.75 -32.05 -7.75 -23.9 5.15 -23.9 5.15 -20.75 5.15 -17.25 5.15 -20.75 5.15 -23.9 -7.75 -23.9 -7.75 -20.75 -11.5 -20.75 -11.5 -17.25 -11.5 -20.75 M-14.15 -23.9 L-11.5 -23.9 -14.15 -23.9 M12.75 -20.75 L12.75 -17.25 12.75 -20.75 8.8 -20.75 8.8 -17.25 8.8 -20.75 12.75 -20.75 M21.95 -17.25 L12.75 -17.25 8.8 -17.25 12.75 -17.25 21.95 -17.25 M-7.75 -17.25 L-7.75 -20.75 5.15 -20.75 -7.75 -20.75 -7.75 -17.25 5.15 -17.25 8.8 -17.25 5.15 -17.25 -7.75 -17.25 -11.5 -17.25 -7.75 -17.25 -7.75 -9.1 5.15 -9.1 -7.75 -9.1 -7.75 -5.2 5.15 -5.2 5.15 -2.45 5.15 -5.2 8.8 -5.2 8.8 -2.45 8.8 -5.2 5.15 -5.2 5.15 -9.1 5.15 -5.2 -7.75 -5.2 -7.75 -9.1 -7.75 -17.25 M8.8 -9.1 L8.8 -17.25 8.8 -9.1 12.75 -9.1 8.8 -9.1 8.8 -5.2 12.75 -5.2 8.8 -5.2 8.8 -9.1 5.15 -9.1 8.8 -9.1 M12.75 -17.25 L12.75 -9.1 12.75 -17.25 M12.75 -9.1 L12.75 -5.2 12.75 -9.1 22.55 -9.1 12.75 -9.1 M22.55 -15.2 L22.55 -9.1 22.55 -15.2 M8.8 -2.45 L5.15 -2.45 8.8 -2.45 12.75 -2.45 12.75 -5.2 12.75 -2.45 8.8 -2.45 8.8 5.4 8.8 -2.45 M5.15 -17.25 L5.15 -9.1 5.15 -17.25 M22.55 -5.2 L12.75 -5.2 22.55 -5.2 22.55 -9.1 22.55 -5.2 22.55 -2.45 22.55 -5.2 24.05 -5.2 22.55 -5.2 M23.7 -9.1 L22.55 -9.1 23.7 -9.1 M12.75 5.4 L8.8 5.4 12.75 5.4 12.75 -2.45 12.75 5.4 20.15 5.4 12.75 5.4 12.75 8.35 12.75 5.4 M22.55 -2.45 L12.75 -2.45 22.55 -2.45 23.85 -2.45 22.55 -2.45 22.55 0.05 22.55 -2.45 M19.05 8.35 L12.75 8.35 19.05 8.35 M12.75 12.05 L17.15 12.05 12.75 12.05 12.75 17.0 12.75 12.05 12.75 8.35 12.75 12.05 8.8 12.05 12.75 12.05 M15.1 17.0 L12.75 17.0 15.1 17.0 M8.8 12.05 L8.8 8.35 12.75 8.35 8.8 8.35 8.8 12.05 5.15 12.05 8.8 12.05 8.8 17.0 8.8 12.05 M5.15 12.05 L5.15 8.35 5.15 12.05 5.15 17.0 5.15 20.35 8.8 20.35 8.8 23.65 8.8 20.35 5.15 20.35 5.15 23.65 5.15 31.25 5.15 23.65 5.15 20.35 5.15 17.0 8.8 17.0 12.75 17.0 8.8 17.0 8.8 20.35 12.75 20.35 12.75 17.0 12.75 20.35 13.85 20.35 12.75 20.35 8.8 20.35 8.8 17.0 5.15 17.0 5.15 12.05 -7.75 12.05 -11.5 12.05 -7.75 12.05 5.15 12.05 M5.15 8.35 L8.8 8.35 8.8 5.4 8.8 8.35 5.15 8.35 5.15 5.4 5.15 8.35 -7.75 8.35 -7.75 5.4 -7.75 8.35 5.15 8.35 M-7.75 5.4 L5.15 5.4 -7.75 5.4 -11.5 5.4 -7.75 5.4 -7.75 -2.45 -7.75 -5.2 -11.5 -5.2 -7.75 -5.2 -7.75 -2.45 5.15 -2.45 5.15 5.4 8.8 5.4 5.15 5.4 5.15 -2.45 -7.75 -2.45 -11.5 -2.45 -18.0 -2.45 -11.5 -2.45 -11.5 -5.2 -11.5 -9.1 -11.5 -5.2 -11.5 -2.45 -7.75 -2.45 -7.75 5.4 M12.75 23.2 L12.75 20.35 12.75 23.2 M8.8 23.65 L5.15 23.65 8.8 23.65 8.8 31.25 8.8 23.65 12.6 23.65 8.8 23.65 M8.8 31.25 L5.15 31.25 8.8 31.25 8.8 32.35 8.8 31.25 9.7 31.25 8.8 31.25 M-7.75 23.65 L-7.75 20.35 5.15 20.35 -7.75 20.35 -7.75 23.65 5.15 23.65 -7.75 23.65 -11.5 23.65 -7.75 23.65 -7.75 31.25 -7.75 23.65 M-7.75 17.0 L5.15 17.0 -7.75 17.0 -7.75 20.35 -11.5 20.35 -7.75 20.35 -7.75 17.0 -11.5 17.0 -7.75 17.0 -7.75 12.05 -7.75 8.35 -11.5 8.35 -7.75 8.35 -7.75 12.05 -7.75 17.0 M-11.5 23.65 L-11.5 20.35 -11.5 23.65 -18.0 23.65 -11.5 23.65 -11.5 31.25 -11.5 23.65 M5.15 31.25 L-7.75 31.25 5.15 31.25 5.15 33.85 5.15 31.25 M-7.75 -35.3 L-7.75 -34.85 -9.05 -34.85 -7.75 -34.85 -7.75 -35.3 M-7.75 -32.05 L-11.2 -32.05 -7.75 -32.05 M-11.5 -23.9 L-7.75 -23.9 -11.5 -23.9 -11.5 -31.3 -11.5 -23.9 M-11.5 -17.25 L-16.2 -17.25 -11.5 -17.25 -11.5 -9.1 -11.5 -17.25 M-18.0 -9.1 L-18.0 -10.65 -18.0 -9.1 -11.5 -9.1 -7.75 -9.1 -11.5 -9.1 -18.0 -9.1 -18.4 -9.1 -18.0 -9.1 -18.0 -5.2 -18.0 -9.1 M-18.0 -5.2 L-19.3 -5.2 -18.0 -5.2 -18.0 -2.45 -19.95 -2.45 -18.0 -2.45 -18.0 -5.2 -11.5 -5.2 -18.0 -5.2 M-11.5 5.4 L-11.5 -2.45 -11.5 5.4 -11.5 8.35 -11.5 12.05 -18.0 12.05 -11.5 12.05 -11.5 8.35 -11.5 5.4 -18.0 5.4 -11.5 5.4 M-11.5 17.0 L-11.5 12.05 -11.5 17.0 -18.0 17.0 -11.5 17.0 -11.5 20.35 -11.5 17.0 M-18.0 8.35 L-11.5 8.35 -18.0 8.35 -18.0 12.05 -18.0 17.0 -18.0 12.05 -18.0 8.35 -18.0 5.4 -18.0 8.35 -21.35 8.35 -21.35 5.4 -21.35 8.35 -18.0 8.35 M-18.0 20.35 L-11.5 20.35 -18.0 20.35 -18.0 23.65 -18.0 20.35 -18.0 17.0 -18.0 20.35 -21.35 20.35 -21.35 23.65 -21.35 20.35 -18.0 20.35 M-7.75 31.25 L-11.5 31.25 -7.75 31.25 -7.75 34.45 3.15 34.45 -7.75 34.45 -7.75 31.25 M-21.35 5.4 L-18.0 5.4 -21.35 5.4 -21.6 5.4 -21.35 5.4 -21.35 4.05 -21.35 5.4 M-18.0 23.65 L-21.35 23.65 -18.0 23.65 -18.0 31.25 -18.0 23.65 M-11.5 31.25 L-18.0 31.25 -11.5 31.25 -11.5 34.45 -11.5 31.25 M-7.75 36.65 L-7.75 34.45 -11.5 34.45 -7.75 34.45 -7.75 36.65 M-22.8 12.05 L-21.35 12.05 -22.8 12.05 M-21.35 12.05 L-21.35 8.35 -22.2 8.35 -21.35 8.35 -21.35 12.05 -18.0 12.05 -21.35 12.05 -21.35 17.0 -21.35 12.05 M-23.85 23.65 L-21.35 23.65 -23.85 23.65 M-23.65 20.35 L-21.35 20.35 -21.35 17.0 -21.35 20.35 -23.65 20.35 M-21.35 17.0 L-23.4 17.0 -21.35 17.0 -18.0 17.0 -21.35 17.0 M-21.35 31.45 L-21.35 31.25 -21.35 31.45 M-21.35 31.25 L-21.55 31.25 -21.35 31.25 -21.35 23.65 -21.35 31.25 -18.0 31.25 -18.0 33.9 -18.0 31.25 -21.35 31.25 M-11.5 34.45 L-16.9 34.45 -11.5 34.45 -11.5 36.3 -11.5 34.45 M-18.0 5.4 L-18.0 -2.45 -18.0 5.4" fill="#5c2961" fill-rule="evenodd" stroke="none"/>
    <path d="M5.15 -32.05 L8.8 -32.05 12.65 -32.05 M-7.75 -32.05 L5.15 -32.05 M5.15 -23.9 L8.8 -23.9 12.75 -23.9 18.75 -23.9 M12.75 23.65 L12.6 23.65 M-11.5 -23.9 L-14.15 -23.9 M8.8 -17.25 L12.75 -17.25 21.95 -17.25 M-7.75 -17.25 L5.15 -17.25 8.8 -17.25 M8.8 -9.1 L12.75 -9.1 22.55 -9.1 23.7 -9.1 M5.15 -2.45 L8.8 -2.45 M5.15 -9.1 L-7.75 -9.1 -11.5 -9.1 M8.8 -9.1 L5.15 -9.1 M12.75 -2.45 L8.8 -2.45 M8.8 5.4 L12.75 5.4 M12.75 -2.45 L22.55 -2.45 M23.85 -2.45 L22.55 -2.45 M20.15 5.4 L12.75 5.4 M17.15 12.05 L12.75 12.05 M12.75 17.0 L15.1 17.0 M8.8 12.05 L12.75 12.05 M5.15 12.05 L8.8 12.05 M8.8 17.0 L12.75 17.0 M5.15 5.4 L-7.75 5.4 M5.15 5.4 L8.8 5.4 M5.15 23.65 L8.8 23.65 12.6 23.65 M5.15 31.25 L8.8 31.25 M-7.75 23.65 L5.15 23.65 M5.15 17.0 L8.8 17.0 M5.15 17.0 L-7.75 17.0 M-11.5 23.65 L-7.75 23.65 M-7.75 31.25 L5.15 31.25 M9.7 31.25 L8.8 31.25 M-11.2 -32.05 L-7.75 -32.05 M-7.75 -23.9 L5.15 -23.9 M-7.75 -23.9 L-11.5 -23.9 M-16.2 -17.25 L-11.5 -17.25 -7.75 -17.25 M-18.0 -9.1 L-11.5 -9.1 M-7.75 -2.45 L5.15 -2.45 M-18.0 -9.1 L-18.4 -9.1 M-18.0 -2.45 L-19.95 -2.45 M-18.0 -2.45 L-11.5 -2.45 M-7.75 -2.45 L-11.5 -2.45 M-11.5 5.4 L-7.75 5.4 M-11.5 12.05 L-7.75 12.05 5.15 12.05 M-18.0 12.05 L-11.5 12.05 M-11.5 17.0 L-7.75 17.0 M-18.0 17.0 L-11.5 17.0 M-18.0 23.65 L-11.5 23.65 M-11.5 31.25 L-7.75 31.25 M-18.0 5.4 L-21.35 5.4 -21.6 5.4 M-18.0 5.4 L-11.5 5.4 M-21.35 23.65 L-18.0 23.65 M-18.0 31.25 L-11.5 31.25 M-21.35 12.05 L-22.8 12.05 M-21.35 12.05 L-18.0 12.05 M-21.35 23.65 L-23.85 23.65 M-23.4 17.0 L-21.35 17.0 M-21.55 31.25 L-21.35 31.25 -18.0 31.25 M-18.0 17.0 L-21.35 17.0" fill="none" stroke="#000000" stroke-linecap="round" stroke-linejoin="round" stroke-width="1.25"/>
    <path d="M5.15 -34.85 L5.15 -32.05 5.15 -23.9 5.15 -20.75 M5.15 -36.05 L5.15 -34.85 M12.75 -31.95 L12.75 -23.9 12.75 -20.75 M12.75 23.2 L12.75 23.65 M-11.5 -20.75 L-11.5 -23.9 -11.5 -31.3 M12.75 -17.25 L12.75 -20.75 M5.15 -17.25 L5.15 -20.75 M12.75 -9.1 L12.75 -17.25 M12.75 -5.2 L12.75 -9.1 M22.55 -9.1 L22.55 -15.2 M5.15 -5.2 L5.15 -2.45 5.15 5.4 M5.15 -5.2 L5.15 -9.1 5.15 -17.25 M12.75 -2.45 L12.75 -5.2 M22.55 -5.2 L22.55 -9.1 M12.75 5.4 L12.75 -2.45 M22.55 -2.45 L22.55 -5.2 M22.55 -2.45 L22.55 0.05 M12.75 5.4 L12.75 8.35 M12.75 12.05 L12.75 17.0 12.75 20.35 12.75 23.2 M12.75 12.05 L12.75 8.35 M5.15 8.35 L5.15 12.05 5.15 17.0 5.15 20.35 5.15 23.65 5.15 31.25 5.15 33.85 M5.15 8.35 L5.15 5.4 M-11.5 20.35 L-11.5 23.65 -11.5 31.25 -11.5 34.45 -11.5 36.3 M-11.5 -17.25 L-11.5 -20.75 M-18.0 -10.65 L-18.0 -9.1 M-11.5 -9.1 L-11.5 -17.25 M-11.5 -9.1 L-11.5 -5.2 M-18.0 -5.2 L-18.0 -9.1 M-18.0 -5.2 L-18.0 -2.45 -18.0 5.4 M-11.5 -2.45 L-11.5 -5.2 M-11.5 -2.45 L-11.5 5.4 -11.5 8.35 -11.5 12.05 -11.5 17.0 -11.5 20.35 M-18.0 8.35 L-18.0 12.05 -18.0 17.0 -18.0 20.35 -18.0 23.65 -18.0 31.25 -18.0 33.9 M-18.0 8.35 L-18.0 5.4" fill="none" stroke="#7d138c" stroke-linecap="round" stroke-linejoin="round" stroke-width="1.5"/>
    <path d="M8.55 -34.85 L5.15 -34.85 -7.75 -34.85 -7.75 -32.05 -7.75 -23.9 M8.8 -32.05 L8.8 -34.7 8.55 -34.85 M8.8 -23.9 L8.8 -32.05 M20.6 -20.75 L22.55 -20.75 M-16.8 -20.75 L-15.15 -20.75 -11.5 -20.75 -7.75 -20.75 -7.75 -23.9 M12.75 -20.75 L20.6 -20.75 M12.75 -20.75 L8.8 -20.75 8.8 -17.25 8.8 -9.1 8.8 -5.2 12.75 -5.2 22.55 -5.2 24.05 -5.2 M5.15 -20.75 L8.8 -20.75 8.8 -23.9 M5.15 -20.75 L-7.75 -20.75 -7.75 -17.25 -7.75 -9.1 -7.75 -5.2 5.15 -5.2 M8.8 -2.45 L8.8 -5.2 5.15 -5.2 M8.8 -2.45 L8.8 5.4 8.8 8.35 5.15 8.35 M12.75 8.35 L19.05 8.35 M12.75 8.35 L8.8 8.35 8.8 12.05 8.8 17.0 8.8 20.35 12.75 20.35 13.85 20.35 M-7.75 5.4 L-7.75 8.35 5.15 8.35 M8.8 23.65 L8.8 20.35 5.15 20.35 -7.75 20.35 -7.75 23.65 -7.75 31.25 -7.75 34.45 3.15 34.45 M8.8 31.25 L8.8 23.65 M-7.75 17.0 L-7.75 20.35 -11.5 20.35 -18.0 20.35 -21.35 20.35 -21.35 23.65 M8.8 31.25 L8.8 32.35 M-9.05 -34.85 L-7.75 -34.85 -7.75 -35.3 M-11.5 -5.2 L-7.75 -5.2 -7.75 -2.45 M-19.3 -5.2 L-18.0 -5.2 M-11.5 -5.2 L-18.0 -5.2 M-7.75 5.4 L-7.75 -2.45 M-7.75 12.05 L-7.75 8.35 -11.5 8.35 -18.0 8.35 M-7.75 17.0 L-7.75 12.05 M-21.35 5.4 L-21.35 8.35 -18.0 8.35 M-11.5 34.45 L-7.75 34.45 -7.75 36.65 M-21.35 4.05 L-21.35 5.4 M-22.2 8.35 L-21.35 8.35 -21.35 12.05 M-21.35 17.0 L-21.35 20.35 -23.65 20.35 M-21.35 17.0 L-21.35 12.05 M-21.35 31.25 L-21.35 31.45 M-21.35 31.25 L-21.35 23.65 M-16.9 34.45 L-11.5 34.45" fill="none" stroke="#f583bf" stroke-linecap="round" stroke-linejoin="round" stroke-width="1.0"/>
  </g>
</svg>
