<?xml version="1.0" encoding="UTF-8" standalone="no"?>
<svg xmlns:xlink="http://www.w3.org/1999/xlink" height="54.25px" width="38.85px" xmlns="http://www.w3.org/2000/svg">
  <g transform="matrix(1.0, 0.0, 0.0, 1.0, 19.45, 27.5)">
    <path d="M-15.65 -25.55 Q-10.35 -27.0 -4.95 -27.25 L2.7 -26.75 2.65 -21.35 2.65 -21.3 2.65 -21.35 2.7 -26.75 7.6 -25.8 11.7 -22.95 11.7 -22.65 11.7 -21.35 11.7 -22.65 12.7 -21.35 14.65 -17.9 11.7 -17.9 14.65 -17.9 15.35 -13.3 15.6 -9.05 15.75 -5.8 15.85 -2.4 16.1 4.4 16.25 7.75 16.45 11.05 17.0 16.55 15.35 16.95 11.7 17.8 2.65 19.6 -1.2 19.85 -4.3 19.5 Q-4.5 18.8 -4.95 18.15 L-7.4 11.05 -8.55 7.75 -9.7 4.4 -11.45 -0.95 -11.9 -2.4 -12.9 -5.8 -13.85 -9.05 -14.8 -12.4 -16.5 -17.9 -17.65 -21.35 Q-17.65 -23.1 -17.05 -24.3 -16.5 -25.55 -15.65 -25.55 M-14.8 -25.4 L-14.8 -21.35 -17.65 -21.35 -14.8 -21.35 -14.8 -25.4 M-1.2 -26.8 L-1.2 -21.35 -4.95 -21.35 -1.2 -21.35 -1.2 -26.8 M-4.95 -21.35 L-4.95 -21.3 -4.95 -21.35 -11.45 -21.35 -4.95 -21.35 -4.95 -26.75 -4.95 -21.35 M-11.45 -21.3 L-11.45 -21.35 -11.45 -21.3 -11.45 -17.9 -11.45 -21.3 M-4.95 -17.9 L-11.45 -17.9 -4.95 -17.9 -4.95 -21.3 -4.95 -17.9 -1.2 -17.9 -4.95 -17.9 -4.95 -9.05 -4.95 -17.9 M-1.2 -17.9 L-1.2 -21.35 2.65 -21.35 -1.2 -21.35 -1.2 -17.9 2.65 -17.9 -1.2 -17.9 -1.2 -9.05 -1.2 -17.9 M2.65 -21.3 L2.65 -17.9 2.65 -21.3 M-1.2 -9.05 L-4.95 -9.05 -1.2 -9.05 -1.2 -5.8 -4.95 -5.8 -1.2 -5.8 -1.2 -9.05 2.65 -9.05 -1.2 -9.05 M-11.45 -21.35 L-14.8 -21.35 -11.45 -21.35 -11.45 -25.8 -11.45 -21.35 M-14.8 -17.9 L-14.8 -12.4 -14.8 -17.9 -11.45 -17.9 -14.8 -17.9 -16.5 -17.9 -14.8 -17.9 -14.8 -21.35 -14.8 -17.9 M-11.45 -9.05 L-13.85 -9.05 -11.45 -9.05 -11.45 -17.9 -11.45 -9.05 -11.45 -5.8 -11.45 -2.4 -11.45 -5.8 -11.45 -9.05 -4.95 -9.05 -11.45 -9.05 M-12.9 -5.8 L-11.45 -5.8 -12.9 -5.8 M-11.45 -2.4 L-11.9 -2.4 -11.45 -2.4 -11.45 -0.95 -11.45 -2.4 -4.95 -2.4 -4.95 -5.8 -4.95 -9.05 -4.95 -5.8 -4.95 -2.4 -1.2 -2.4 -4.95 -2.4 -4.95 4.4 -4.95 -2.4 -11.45 -2.4 M2.65 -17.9 L2.65 -9.05 2.65 -17.9 11.7 -17.9 2.65 -17.9 M11.7 -21.35 L11.7 -17.9 11.7 -21.35 2.65 -21.35 11.7 -21.35 12.7 -21.35 11.7 -21.35 M-11.45 -5.8 L-4.95 -5.8 -11.45 -5.8 M-1.2 4.4 L-4.95 4.4 -1.2 4.4 -1.2 -2.4 -1.2 -5.8 2.65 -5.8 -1.2 -5.8 -1.2 -2.4 -1.2 4.4 -1.2 7.75 -4.95 7.75 -1.2 7.75 -1.2 4.4 2.65 4.4 2.65 -2.4 2.65 4.4 11.7 4.4 2.65 4.4 2.65 7.75 2.65 11.05 2.65 7.75 2.65 4.4 -1.2 4.4 M2.65 -9.05 L2.65 -5.8 2.65 -9.05 11.7 -9.05 2.65 -9.05 M11.7 -17.9 L11.7 -9.05 11.7 -17.9 M-4.95 7.75 L-8.55 7.75 -4.95 7.75 -4.95 4.4 -4.95 7.75 -4.95 11.05 -1.2 11.05 -4.95 11.05 -4.95 18.15 -4.95 11.05 -4.95 7.75 M-9.7 4.4 L-4.95 4.4 -9.7 4.4 M2.65 -5.8 L2.65 -2.4 2.65 -5.8 11.7 -5.8 2.65 -5.8 M11.7 -9.05 L11.7 -5.8 11.7 -9.05 15.35 -9.05 11.7 -9.05 M15.35 -13.3 L15.35 -9.05 15.35 -13.3 M15.6 -9.05 L15.35 -9.05 15.6 -9.05 M11.7 -2.4 L11.7 -5.8 11.7 -2.4 15.35 -2.4 11.7 -2.4 2.65 -2.4 11.7 -2.4 11.7 4.4 11.7 -2.4 M15.75 -5.8 L15.35 -5.8 15.35 -9.05 15.35 -5.8 15.75 -5.8 M11.7 -5.8 L15.35 -5.8 15.35 -2.4 15.35 -5.8 11.7 -5.8 M15.85 -2.4 L15.35 -2.4 15.85 -2.4 M16.1 4.4 L15.35 4.4 16.1 4.4 M-1.2 -2.4 L2.65 -2.4 -1.2 -2.4 M11.7 11.05 L11.7 7.75 11.7 11.05 15.35 11.05 11.7 11.05 2.65 11.05 11.7 11.05 11.7 17.8 11.7 11.05 M11.7 7.75 L15.35 7.75 15.35 11.05 15.35 7.75 11.7 7.75 11.7 4.4 11.7 7.75 2.65 7.75 11.7 7.75 M15.35 4.4 L11.7 4.4 15.35 4.4 15.35 -2.4 15.35 4.4 15.35 7.75 16.25 7.75 15.35 7.75 15.35 4.4 M16.45 11.05 L15.35 11.05 16.45 11.05 M15.35 16.95 L15.35 11.05 15.35 16.95 M2.65 11.05 L2.65 19.6 2.65 11.05 -1.2 11.05 -1.2 7.75 2.65 7.75 -1.2 7.75 -1.2 11.05 2.65 11.05 M-1.2 19.85 L-1.2 11.05 -1.2 19.85 M-7.4 11.05 L-4.95 11.05 -7.4 11.05" fill="#5c2961" fill-rule="evenodd" stroke="none"/>
    <path d="M-15.65 -25.55 Q-16.5 -25.55 -17.05 -24.3 -17.65 -23.1 -17.65 -21.35 L-16.5 -17.9 -14.8 -12.4 -13.85 -9.05 -12.9 -5.8 -11.9 -2.4 -11.45 -0.95 -9.7 4.4 -8.55 7.75 -10.5 7.75 -8.55 7.75 -7.4 11.05 -4.95 18.15 Q-4.5 18.8 -4.3 19.5 L-1.2 19.85 2.65 19.6 11.7 17.8 15.35 16.95 17.0 16.55 16.45 11.05 16.25 7.75 16.1 4.4 15.85 -2.4 15.75 -5.8 15.6 -9.05 15.35 -13.3 14.65 -17.9 12.7 -21.35 11.7 -22.65 11.7 -22.95 7.6 -25.8 7.95 -26.65 Q10.8 -26.0 12.85 -23.8 15.75 -20.75 16.3 -16.4 18.4 0.75 18.7 18.05 L18.4 18.2 18.4 18.25 18.4 18.45 19.4 22.15 18.75 23.5 -1.4 26.75 -2.75 21.85 -3.2 21.55 Q-8.95 15.7 -10.5 7.75 L-19.45 -22.95 Q-18.65 -25.35 -16.5 -26.8 L-15.6 -26.5 -15.65 -25.55 M17.55 21.8 L16.65 18.55 Q7.85 21.05 -1.4 21.75 L-0.4 25.35 -0.15 25.05 0.35 25.25 7.0 24.45 17.55 21.8" fill="#000000" fill-rule="evenodd" stroke="none"/>
    <path d="M17.55 21.8 L7.0 24.45 0.35 25.25 -0.15 25.05 -0.4 25.35 -1.4 21.75 Q7.85 21.05 16.65 18.55 L17.55 21.8" fill="#ffe8e8" fill-rule="evenodd" stroke="none"/>
    <path d="M-11.45 -21.3 L-11.45 -17.9 M-4.95 -17.9 L-4.95 -21.3 M2.65 -17.9 L2.65 -21.3 M-4.95 -17.9 L-4.95 -9.05 -4.95 -5.8 M-11.45 -9.05 L-11.45 -17.9 M-11.45 -2.4 L-11.45 -5.8 -11.45 -9.05 M2.65 -9.05 L2.65 -17.9 M11.7 -17.9 L11.7 -21.35 11.7 -22.65 11.7 -22.95 M-11.45 -2.4 L-11.45 -0.95 M-4.95 -2.4 L-4.95 -5.8 M-4.95 -2.4 L-4.95 4.4 M2.65 -5.8 L2.65 -9.05 M11.7 -9.05 L11.7 -17.9 M-4.95 7.75 L-4.95 4.4 M2.65 -2.4 L2.65 -5.8 M11.7 -5.8 L11.7 -9.05 M11.7 -5.8 L11.7 -2.4 M2.65 -2.4 L2.65 4.4 2.65 7.75 2.65 11.05 M11.7 4.4 L11.7 -2.4 M11.7 7.75 L11.7 11.05 11.7 17.8 M11.7 7.75 L11.7 4.4 M2.65 19.6 L2.65 11.05 M-4.95 11.05 L-4.95 18.15 M-4.95 7.75 L-4.95 11.05" fill="none" stroke="#7d138c" stroke-linecap="round" stroke-linejoin="round" stroke-width="1.5"/>
    <path d="M12.7 -21.35 L11.7 -21.35" fill="none" stroke="#fcc2f3" stroke-linecap="round" stroke-linejoin="round" stroke-width="1.0"/>
    <path d="M-11.45 -17.9 L-4.95 -17.9 M-1.2 -17.9 L2.65 -17.9 11.7 -17.9 14.65 -17.9 M-1.2 -17.9 L-4.95 -17.9 M-4.95 -9.05 L-1.2 -9.05 2.65 -9.05 11.7 -9.05 15.35 -9.05 15.6 -9.05 M-14.8 -17.9 L-16.5 -17.9 M-11.45 -17.9 L-14.8 -17.9 M-13.85 -9.05 L-11.45 -9.05 -4.95 -9.05 M-11.9 -2.4 L-11.45 -2.4 -4.95 -2.4 M-1.2 -2.4 L-4.95 -2.4 M-4.95 4.4 L-1.2 4.4 2.65 4.4 11.7 4.4 15.35 4.4 16.1 4.4 M-4.95 4.4 L-9.7 4.4 M11.7 -2.4 L15.35 -2.4 15.85 -2.4 M11.7 -2.4 L2.65 -2.4 -1.2 -2.4 M11.7 11.05 L15.35 11.05 16.45 11.05 M2.65 11.05 L11.7 11.05 M2.65 11.05 L-1.2 11.05 -4.95 11.05 -7.4 11.05" fill="none" stroke="#000000" stroke-linecap="round" stroke-linejoin="round" stroke-width="1.25"/>
    <path d="M-4.95 -21.3 L-4.95 -21.35 -4.95 -26.75 M-11.45 -21.35 L-11.45 -21.3 M2.65 -21.3 L2.65 -21.35 2.7 -26.75 M-11.45 -21.35 L-11.45 -25.8" fill="none" stroke="#7d138c" stroke-linecap="round" stroke-linejoin="round" stroke-width="1.5"/>
    <path d="M-17.65 -21.35 L-14.8 -21.35 -14.8 -25.4 M-10.5 7.75 L-8.55 7.75 -4.95 7.75 -1.2 7.75 -1.2 4.4 -1.2 -2.4 -1.2 -5.8 2.65 -5.8 11.7 -5.8 M-4.95 -21.35 L-1.2 -21.35 -1.2 -26.8 M-4.95 -21.35 L-11.45 -21.35 M2.65 -21.35 L-1.2 -21.35 -1.2 -17.9 M-1.2 -9.05 L-1.2 -17.9 M-14.8 -21.35 L-11.45 -21.35 M-14.8 -12.4 L-14.8 -17.9 -14.8 -21.35 M-11.45 -5.8 L-12.9 -5.8 M-4.95 -5.8 L-1.2 -5.8 -1.2 -9.05 M11.7 -21.35 L2.65 -21.35 M-4.95 -5.8 L-11.45 -5.8 M15.35 -9.05 L15.35 -13.3 M15.35 -2.4 L15.35 -5.8 11.7 -5.8 M15.35 -9.05 L15.35 -5.8 15.75 -5.8 M15.35 11.05 L15.35 7.75 11.7 7.75 M15.35 4.4 L15.35 -2.4 M15.35 4.4 L15.35 7.75 16.25 7.75 M2.65 7.75 L11.7 7.75 M15.35 11.05 L15.35 16.95 M-1.2 11.05 L-1.2 19.85 M2.65 7.75 L-1.2 7.75 -1.2 11.05" fill="none" stroke="#f583bf" stroke-linecap="round" stroke-linejoin="round" stroke-width="1.0"/>
  </g>
</svg>
