<?xml version="1.0" encoding="UTF-8" standalone="no"?>
<svg xmlns:xlink="http://www.w3.org/1999/xlink" height="55.7px" width="68.05px" xmlns="http://www.w3.org/2000/svg">
  <g transform="matrix(1.0, 0.0, 0.0, 1.0, 34.15, 24.3)">
    <path d="M4.2 -14.1 L3.7 -14.75 Q5.0 -20.25 10.75 -18.85 14.6 -17.95 17.4 -15.1 L17.85 -16.6 18.15 -13.5 16.3 -13.25 Q12.65 -13.8 9.15 -12.55 8.45 -12.2 7.75 -12.0 L7.25 -12.25 Q9.25 -14.8 12.7 -14.6 8.35 -17.25 4.2 -14.1 M-16.55 -12.0 Q-17.5 -9.0 -16.8 -6.15 -21.1 -8.7 -22.7 -4.1 -24.85 2.3 -19.0 6.2 -22.6 11.45 -28.5 14.0 -29.15 8.6 -33.1 5.0 L-15.75 -22.95 -4.7 -23.4 Q-13.85 -20.45 -16.55 -12.0" fill="#000000" fill-rule="evenodd" stroke="none"/>
    <path d="M16.3 -13.25 L18.15 -13.5 17.85 -16.6 17.4 -15.1 Q14.6 -17.95 10.75 -18.85 5.0 -20.25 3.7 -14.75 L4.2 -14.1 4.55 -13.45 Q6.1 -10.8 9.3 -10.35 L16.05 -12.1 14.8 -12.35 16.3 -13.25 M29.7 -2.8 L32.6 1.45 Q22.4 1.2 12.65 3.95 L12.05 3.8 11.9 4.0 Q4.7 1.6 -0.35 -4.45 8.65 1.6 17.4 -3.65 L18.2 -4.55 Q13.9 -2.45 8.35 -2.9 3.35 -3.4 -1.15 -5.7 L-1.4 -5.5 Q-6.3 -3.65 -8.9 0.9 L-8.55 1.15 Q-6.25 -1.4 -3.5 -3.4 -0.55 7.0 4.15 16.6 4.5 17.3 5.3 17.6 10.35 19.25 15.65 20.2 19.05 20.85 22.15 22.35 14.7 31.5 2.1 30.4 L-9.1 28.9 Q-14.8 27.9 -19.4 25.0 -23.15 20.25 -24.1 14.25 L-24.25 12.8 -17.25 6.0 -19.25 4.4 Q-24.3 -0.45 -20.3 -6.2 L-14.6 -3.35 Q-16.05 -5.65 -16.1 -8.6 -16.2 -15.1 -10.95 -19.05 -8.1 -21.15 -4.45 -22.0 5.75 -24.05 16.0 -23.25 19.6 -16.75 24.2 -11.7 L25.25 -12.25 Q30.75 -13.85 32.6 -8.7 30.1 -9.95 27.1 -8.6 L19.75 -4.55 19.75 -7.3 21.35 -8.6 24.3 -9.15 Q20.35 -12.0 19.0 -7.35 L18.8 -4.25 20.8 -3.7 Q24.55 -2.0 28.85 -2.5 L29.7 -2.8" fill="#eff0f8" fill-rule="evenodd" stroke="none"/>
    <path d="M16.3 -13.25 L14.8 -12.35 Q11.55 -12.7 9.3 -10.35 6.1 -10.8 4.55 -13.45 L4.2 -14.1 Q8.35 -17.25 12.7 -14.6 9.25 -14.8 7.25 -12.25 L7.75 -12.0 Q8.45 -12.2 9.15 -12.55 12.65 -13.8 16.3 -13.25 M29.7 -2.8 L28.85 -2.5 Q24.55 -2.0 20.8 -3.7 L21.3 -3.7 Q22.75 -6.0 25.55 -5.8 L25.4 -5.05 24.55 -4.35 27.25 -5.5 Q23.5 -7.55 20.55 -4.4 L19.75 -4.55 27.1 -8.6 Q30.1 -9.95 32.6 -8.7 33.15 -4.65 29.4 -3.2 L29.7 -2.8 M19.0 -7.35 Q20.35 -12.0 24.3 -9.15 L21.35 -8.6 Q20.3 -8.6 19.6 -8.05 L19.0 -7.35 M-24.25 12.8 L-24.1 14.25 Q-23.15 20.25 -19.4 25.0 -22.65 22.85 -25.3 19.8 -27.25 17.5 -28.3 14.75 -26.15 13.95 -24.25 12.8" fill="#d7d9ee" fill-rule="evenodd" stroke="none"/>
    <path d="M14.8 -12.35 L16.05 -12.1 9.3 -10.35 Q11.55 -12.7 14.8 -12.35 M-19.4 25.0 Q-14.8 27.9 -9.1 28.9 L2.1 30.4 Q14.7 31.5 22.15 22.35 19.05 20.85 15.65 20.2 10.35 19.25 5.3 17.6 4.5 17.3 4.15 16.6 -0.55 7.0 -3.5 -3.4 -6.25 -1.4 -8.55 1.15 L-8.9 0.9 Q-6.3 -3.65 -1.4 -5.5 L-1.15 -5.7 Q3.35 -3.4 8.35 -2.9 13.9 -2.45 18.2 -4.55 L17.4 -3.65 Q8.65 1.6 -0.35 -4.45 4.7 1.6 11.9 4.0 L12.05 3.8 12.65 3.95 Q22.4 1.2 32.6 1.45 L29.7 -2.8 29.4 -3.2 Q33.15 -4.65 32.6 -8.7 30.75 -13.85 25.25 -12.25 L24.2 -11.7 Q19.6 -16.75 16.0 -23.25 5.75 -24.05 -4.45 -22.0 -8.1 -21.15 -10.95 -19.05 -16.2 -15.1 -16.1 -8.6 -16.05 -5.65 -14.6 -3.35 L-20.3 -6.2 Q-24.3 -0.45 -19.25 4.4 L-17.25 6.0 -24.25 12.8 Q-26.15 13.95 -28.3 14.75 -27.25 17.5 -25.3 19.8 -22.65 22.85 -19.4 25.0 M20.8 -3.7 L18.8 -4.25 19.0 -7.35 19.6 -8.05 Q20.3 -8.6 21.35 -8.6 L19.75 -7.3 19.75 -4.55 20.55 -4.4 Q23.5 -7.55 27.25 -5.5 L24.55 -4.35 25.4 -5.05 25.55 -5.8 Q22.75 -6.0 21.3 -3.7 L20.8 -3.7 M30.95 -2.9 L33.9 2.1 33.65 2.5 32.35 2.6 Q28.75 12.35 22.95 21.25 L23.9 21.85 Q17.55 31.35 5.6 31.3 -9.2 32.2 -21.55 24.5 -25.8 21.9 -27.9 17.55 L-29.25 13.5 Q-30.25 8.55 -34.15 5.2 -26.55 -10.25 -16.0 -23.95 L16.1 -24.3 23.85 -12.95 Q29.8 -15.55 32.95 -9.9 34.1 -7.85 33.3 -5.75 32.6 -3.8 30.95 -2.9 M23.15 14.65 L17.3 14.2 16.45 18.95 Q18.85 19.6 21.15 20.75 L23.15 14.65 M26.0 13.9 L31.65 2.5 27.1 2.4 24.55 13.6 26.0 13.9 M22.55 19.85 L25.6 14.6 24.25 14.6 22.55 19.85 M26.4 2.4 L20.0 3.5 17.5 13.1 23.55 13.6 26.4 2.4 M12.05 5.05 L10.75 11.9 16.6 12.95 19.15 3.8 12.05 5.05 M4.2 0.95 L2.2 10.2 9.85 11.8 11.4 4.95 8.85 4.05 4.2 0.95 M3.65 0.4 L-1.15 -4.35 -2.8 -3.75 1.4 8.45 3.65 0.4 M9.65 12.55 L2.25 10.85 Q3.2 14.15 5.75 16.35 7.15 17.6 9.2 17.5 L9.65 12.55 M10.15 17.7 L15.6 18.7 16.4 14.0 10.6 12.7 10.15 17.7 M-16.55 -12.0 Q-13.85 -20.45 -4.7 -23.4 L-15.75 -22.95 -33.1 5.0 Q-29.15 8.6 -28.5 14.0 -22.6 11.45 -19.0 6.2 -24.85 2.3 -22.7 -4.1 -21.1 -8.7 -16.8 -6.15 -17.5 -9.0 -16.55 -12.0" fill="#663399" fill-rule="evenodd" stroke="none"/>
    <path d="M10.15 17.7 L10.6 12.7 16.4 14.0 15.6 18.7 10.15 17.7 M9.65 12.55 L9.2 17.5 Q7.15 17.6 5.75 16.35 3.2 14.15 2.25 10.85 L9.65 12.55 M3.65 0.4 L1.4 8.45 -2.8 -3.75 -1.15 -4.35 3.65 0.4 M4.2 0.95 L8.85 4.05 11.4 4.95 9.85 11.8 2.2 10.2 4.2 0.95 M12.05 5.05 L19.15 3.8 16.6 12.95 10.75 11.9 12.05 5.05 M26.4 2.4 L23.55 13.6 17.5 13.1 20.0 3.5 26.4 2.4 M22.55 19.85 L24.25 14.6 25.6 14.6 22.55 19.85 M26.0 13.9 L24.55 13.6 27.1 2.4 31.65 2.5 26.0 13.9 M23.15 14.65 L21.15 20.75 Q18.85 19.6 16.45 18.95 L17.3 14.2 23.15 14.65" fill="#ffffff" fill-rule="evenodd" stroke="none"/>
  </g>
</svg>
