<?xml version="1.0" encoding="UTF-8" standalone="no"?>
<svg xmlns:xlink="http://www.w3.org/1999/xlink" height="21.75px" width="190.05px" xmlns="http://www.w3.org/2000/svg">
  <g transform="matrix(1.0, 0.0, 0.0, 1.0, -134.3, 259.2)">
    <path d="M176.4 -253.3 L176.4 -251.05 Q178.05 -252.45 179.25 -252.9 L181.45 -253.35 182.05 -253.35 182.6 -253.3 182.6 -248.6 182.15 -248.6 181.15 -248.8 180.0 -248.85 178.15 -248.7 176.4 -248.25 176.4 -237.95 171.45 -237.95 171.45 -253.3 176.4 -253.3 M160.05 -248.95 Q159.0 -247.7 159.0 -245.55 159.0 -243.35 160.1 -242.2 161.2 -241.05 163.15 -241.05 L164.85 -241.25 166.05 -241.75 166.9 -242.35 167.55 -242.95 168.25 -242.95 168.25 -238.75 165.85 -237.85 163.0 -237.55 159.35 -238.0 Q157.7 -238.5 156.45 -239.5 155.25 -240.5 154.55 -242.0 153.9 -243.55 153.9 -245.55 153.9 -247.7 154.65 -249.25 155.35 -250.85 156.6 -251.85 157.85 -252.8 159.5 -253.3 L162.85 -253.75 165.75 -253.4 168.25 -252.5 168.25 -248.3 167.55 -248.3 166.85 -248.85 165.85 -249.5 164.65 -250.0 163.1 -250.2 Q161.1 -250.2 160.05 -248.95 M190.25 -249.95 Q189.35 -249.25 189.2 -247.6 L195.6 -247.6 Q195.55 -249.15 194.85 -249.95 194.1 -250.7 192.6 -250.7 191.15 -250.7 190.25 -249.95 M184.25 -245.55 Q184.25 -249.35 186.6 -251.55 188.9 -253.8 193.0 -253.8 196.7 -253.8 198.6 -251.9 200.5 -250.0 200.5 -246.45 L200.5 -244.7 189.25 -244.7 Q189.35 -242.9 190.6 -241.95 191.85 -241.0 194.35 -241.0 195.9 -241.0 197.35 -241.55 198.8 -242.1 199.65 -242.75 L200.2 -242.75 200.2 -238.8 197.05 -237.85 193.8 -237.55 Q189.2 -237.55 186.7 -239.6 184.25 -241.7 184.25 -245.55 M217.2 -251.9 Q219.1 -250.0 219.1 -246.45 L219.1 -244.7 207.85 -244.7 Q207.95 -242.9 209.2 -241.95 210.45 -241.0 212.95 -241.0 214.5 -241.0 215.95 -241.55 217.4 -242.1 218.25 -242.75 L218.8 -242.75 218.8 -238.8 215.65 -237.85 212.4 -237.55 Q207.8 -237.55 205.3 -239.6 202.85 -241.7 202.85 -245.55 202.85 -249.35 205.2 -251.55 207.5 -253.8 211.6 -253.8 215.3 -253.8 217.2 -251.9 M211.2 -250.7 Q209.75 -250.7 208.85 -249.95 207.95 -249.25 207.8 -247.6 L214.2 -247.6 Q214.15 -249.15 213.45 -249.95 212.7 -250.7 211.2 -250.7 M236.6 -252.3 Q238.0 -250.85 238.0 -247.95 L238.0 -237.95 233.05 -237.95 233.05 -245.55 232.95 -247.4 232.65 -248.8 231.85 -249.5 230.35 -249.75 229.0 -249.55 227.5 -248.85 227.5 -237.95 222.55 -237.95 222.55 -253.3 227.5 -253.3 227.5 -251.6 Q228.8 -252.65 230.05 -253.2 231.25 -253.75 232.7 -253.75 235.2 -253.75 236.6 -252.3 M252.7 -253.35 L255.15 -252.65 255.15 -248.75 254.75 -248.75 252.25 -249.95 249.4 -250.45 247.4 -250.1 Q246.6 -249.8 246.6 -249.2 246.6 -248.65 246.95 -248.35 247.35 -248.05 248.7 -247.8 L250.35 -247.5 252.05 -247.1 Q254.0 -246.6 254.95 -245.5 255.85 -244.45 255.85 -242.8 255.85 -240.45 253.75 -239.0 251.6 -237.55 247.9 -237.55 L244.2 -237.9 Q242.5 -238.3 241.5 -238.75 L241.5 -242.8 241.95 -242.8 242.8 -242.25 244.2 -241.55 245.9 -241.05 248.0 -240.8 250.15 -241.1 Q250.85 -241.45 250.85 -242.1 250.85 -242.65 250.45 -242.9 L248.85 -243.4 247.4 -243.65 245.7 -244.0 Q243.6 -244.55 242.6 -245.7 241.55 -246.85 241.55 -248.55 241.55 -250.8 243.65 -252.25 245.75 -253.75 249.4 -253.75 L252.7 -253.35 M273.15 -252.3 Q274.55 -250.85 274.55 -247.95 L274.55 -237.95 269.6 -237.95 269.6 -245.55 269.5 -247.4 269.2 -248.8 268.4 -249.5 266.9 -249.75 265.55 -249.55 264.05 -248.85 264.05 -237.95 259.1 -237.95 259.1 -259.2 264.05 -259.2 264.05 -251.6 Q265.35 -252.65 266.6 -253.2 267.8 -253.75 269.25 -253.75 271.75 -253.75 273.15 -252.3 M296.55 -253.3 L298.55 -253.3 298.55 -257.7 303.5 -257.7 303.5 -253.3 308.1 -253.3 308.1 -249.95 303.5 -249.95 303.5 -244.5 303.5 -243.1 Q303.5 -242.5 303.75 -242.0 303.9 -241.55 304.4 -241.25 L305.8 -241.0 306.8 -241.15 307.7 -241.45 308.1 -241.45 308.1 -238.1 306.4 -237.75 304.25 -237.65 Q301.35 -237.65 299.95 -238.8 298.55 -239.95 298.55 -242.8 L298.55 -249.95 296.55 -249.95 296.55 -253.3 M286.35 -253.8 Q290.4 -253.8 292.6 -251.6 294.75 -249.4 294.75 -245.6 294.75 -241.85 292.55 -239.65 290.35 -237.45 286.35 -237.45 282.35 -237.45 280.15 -239.65 277.95 -241.85 277.95 -245.6 277.95 -249.45 280.2 -251.6 282.4 -253.8 286.35 -253.8 M286.35 -250.35 L285.1 -250.15 Q284.55 -249.95 284.05 -249.4 283.6 -248.85 283.35 -247.95 283.05 -247.0 283.05 -245.6 283.05 -244.35 283.3 -243.4 283.5 -242.5 283.95 -241.95 284.4 -241.4 285.0 -241.15 L286.4 -240.9 287.7 -241.1 Q288.3 -241.35 288.7 -241.9 L289.45 -243.3 289.65 -245.6 289.4 -247.85 288.75 -249.3 Q288.3 -249.9 287.7 -250.1 L286.35 -250.35 M315.1 -249.2 Q315.1 -248.65 315.45 -248.35 315.85 -248.05 317.2 -247.8 L318.85 -247.5 320.55 -247.1 Q322.5 -246.6 323.45 -245.5 324.35 -244.45 324.35 -242.8 324.35 -240.45 322.25 -239.0 320.1 -237.55 316.4 -237.55 L312.7 -237.9 310.0 -238.75 310.0 -242.8 310.45 -242.8 311.3 -242.25 312.7 -241.55 314.4 -241.05 316.5 -240.8 318.65 -241.1 Q319.35 -241.45 319.35 -242.1 319.35 -242.65 318.95 -242.9 L317.35 -243.4 315.9 -243.65 314.2 -244.0 Q312.1 -244.55 311.1 -245.7 310.05 -246.85 310.05 -248.55 310.05 -250.8 312.15 -252.25 314.25 -253.75 317.9 -253.75 L321.2 -253.35 323.65 -252.65 323.65 -248.75 323.25 -248.75 Q322.15 -249.5 320.75 -249.95 L317.9 -250.45 315.9 -250.1 Q315.1 -249.8 315.1 -249.2 M134.4 -252.25 Q134.4 -255.1 136.95 -256.85 139.5 -258.7 143.5 -258.7 L147.5 -258.3 150.9 -257.3 150.9 -252.6 150.35 -252.6 Q149.1 -253.6 147.3 -254.25 L143.65 -254.95 142.35 -254.85 141.1 -254.5 Q140.6 -254.3 140.2 -253.9 L139.8 -252.95 Q139.8 -252.15 140.45 -251.7 141.05 -251.25 142.75 -250.9 L144.9 -250.45 147.15 -249.85 Q149.45 -249.1 150.6 -247.75 151.7 -246.45 151.7 -244.35 151.7 -241.35 149.15 -239.45 146.6 -237.6 142.2 -237.6 L137.8 -238.0 Q135.95 -238.45 134.3 -239.15 L134.3 -244.05 134.85 -244.05 Q136.5 -242.75 138.5 -242.05 140.5 -241.35 142.4 -241.35 L143.65 -241.4 144.9 -241.7 145.9 -242.3 Q146.3 -242.7 146.3 -243.4 146.3 -244.05 145.75 -244.55 145.15 -245.05 144.05 -245.3 L141.65 -245.8 139.25 -246.45 Q136.65 -247.25 135.55 -248.7 134.4 -250.1 134.4 -252.25" fill="#000000" fill-rule="evenodd" stroke="none"/>
  </g>
</svg>
