<?xml version="1.0" encoding="UTF-8" standalone="no"?>
<svg xmlns:xlink="http://www.w3.org/1999/xlink" height="16.9px" width="221.8px" xmlns="http://www.w3.org/2000/svg">
  <g transform="matrix(1.0, 0.0, 0.0, 1.0, 110.95, 2.2)">
    <path d="M110.85 -0.85 L110.4 10.0 107.05 10.0 106.6 -0.85 110.85 -0.85 M106.65 14.4 L106.65 11.7 110.8 11.7 110.8 14.4 106.65 14.4" fill="#000000" fill-rule="evenodd" stroke="none"/>
    <path d="M97.0 -0.85 L97.0 11.45 104.05 11.45 104.05 14.4 93.05 14.4 93.05 -0.85 97.0 -0.85" fill="#000000" fill-rule="evenodd" stroke="none"/>
    <path d="M85.2 -0.85 L90.85 14.4 86.8 14.4 85.75 11.3 80.1 11.3 79.0 14.4 75.05 14.4 80.7 -0.85 85.2 -0.85 M84.8 8.5 L82.9 3.05 81.0 8.5 84.8 8.5" fill="#000000" fill-rule="evenodd" stroke="none"/>
    <path d="M64.55 1.85 L64.55 -0.85 73.5 -0.85 73.5 1.85 71.0 1.85 71.0 11.7 73.5 11.7 73.5 14.4 64.55 14.4 64.55 11.7 67.05 11.7 67.05 1.85 64.55 1.85" fill="#000000" fill-rule="evenodd" stroke="none"/>
    <path d="M56.35 2.2 L55.45 2.0 54.2 1.95 52.75 1.95 52.75 6.05 54.0 6.05 55.55 5.95 Q56.2 5.85 56.6 5.55 L57.25 4.85 57.4 3.8 57.15 2.8 56.35 2.2 M57.8 -0.7 Q58.75 -0.55 59.6 -0.05 60.45 0.45 61.0 1.3 61.5 2.1 61.5 3.35 61.5 5.0 60.7 6.1 59.9 7.15 58.45 7.85 L63.55 14.4 58.75 14.4 54.6 8.8 52.75 8.8 52.75 14.4 48.85 14.4 48.85 -0.85 55.45 -0.85 57.8 -0.7" fill="#000000" fill-rule="evenodd" stroke="none"/>
    <path d="M32.95 2.1 L32.95 -0.85 46.45 -0.85 46.45 2.1 41.7 2.1 41.7 14.4 37.75 14.4 37.75 2.1 32.95 2.1" fill="#000000" fill-rule="evenodd" stroke="none"/>
    <path d="M14.45 -0.85 L17.75 5.0 20.95 -0.85 25.3 -0.85 19.65 8.5 19.65 14.4 15.7 14.4 15.7 8.7 10.0 -0.85 14.45 -0.85" fill="#000000" fill-rule="evenodd" stroke="none"/>
    <path d="M4.55 11.3 L-1.1 11.3 -2.2 14.4 -6.15 14.4 -0.5 -0.85 4.0 -0.85 9.65 14.4 5.6 14.4 4.55 11.3 M1.7 3.05 L-0.2 8.5 3.6 8.5 1.7 3.05" fill="#000000" fill-rule="evenodd" stroke="none"/>
    <path d="M-16.35 -0.85 L-13.15 -0.55 Q-11.8 -0.25 -10.85 0.35 -9.3 1.3 -8.4 2.95 -7.45 4.55 -7.45 6.8 -7.45 8.9 -8.45 10.6 -9.4 12.3 -10.9 13.2 -12.05 13.85 -13.35 14.15 L-16.5 14.4 -21.9 14.4 -21.9 -0.85 -16.35 -0.85 M-15.05 2.1 L-16.95 2.0 -17.95 2.0 -17.95 11.55 -16.95 11.55 -14.9 11.4 -13.65 10.95 Q-12.55 10.35 -12.05 9.3 -11.55 8.25 -11.55 6.75 -11.55 5.25 -12.1 4.2 -12.65 3.1 -13.85 2.5 L-15.05 2.1" fill="#000000" fill-rule="evenodd" stroke="none"/>
    <path d="M-43.7 3.1 L-44.05 3.1 -44.05 -0.2 -41.8 -0.85 -38.85 -1.2 -36.3 -0.95 Q-35.25 -0.7 -34.55 -0.25 L-33.3 0.95 Q-32.85 1.65 -32.85 2.65 -32.85 3.9 -33.65 4.9 -34.45 5.9 -35.75 6.2 L-35.75 6.35 Q-35.2 6.4 -34.65 6.6 -34.05 6.85 -33.55 7.25 L-32.75 8.25 Q-32.45 8.8 -32.45 9.8 -32.45 10.85 -32.9 11.8 -33.3 12.7 -34.2 13.4 -35.05 14.05 -36.2 14.4 L-39.05 14.7 -42.3 14.4 -44.5 13.75 -44.5 10.4 -44.1 10.4 Q-43.25 10.95 -42.0 11.3 L-39.75 11.7 -38.45 11.6 -37.3 11.2 -36.7 10.6 Q-36.45 10.2 -36.45 9.5 -36.45 8.85 -36.75 8.5 L-37.6 7.95 -38.8 7.8 -40.1 7.8 -40.95 7.8 -40.95 5.05 -40.05 5.05 -38.65 5.0 -37.6 4.75 -36.95 4.25 -36.7 3.3 Q-36.7 2.85 -36.95 2.55 L-37.55 2.1 Q-37.95 1.9 -38.5 1.85 L-39.4 1.8 -41.5 2.15 Q-42.65 2.45 -43.7 3.1" fill="#000000" fill-rule="evenodd" stroke="none"/>
    <path d="M-54.45 -0.85 L-54.45 2.1 -61.6 2.1 -61.6 4.7 -54.95 4.7 -54.95 7.65 -61.6 7.65 -61.6 11.45 -54.45 11.45 -54.45 14.4 -65.5 14.4 -65.5 -0.85 -54.45 -0.85" fill="#000000" fill-rule="evenodd" stroke="none"/>
    <path d="M-68.8 -0.85 L-68.8 2.1 -75.95 2.1 -75.95 4.7 -69.3 4.7 -69.3 7.65 -75.95 7.65 -75.95 11.45 -68.8 11.45 -68.8 14.4 -79.85 14.4 -79.85 -0.85 -68.8 -0.85" fill="#000000" fill-rule="evenodd" stroke="none"/>
    <path d="M-88.8 2.2 L-89.7 2.0 -90.95 1.95 -92.4 1.95 -92.4 6.05 -91.15 6.05 -89.6 5.95 Q-88.95 5.85 -88.55 5.55 L-87.9 4.85 Q-87.75 4.45 -87.75 3.8 -87.75 3.25 -88.0 2.8 L-88.8 2.2 M-87.35 -0.7 Q-86.4 -0.55 -85.55 -0.05 -84.7 0.45 -84.15 1.3 -83.65 2.1 -83.65 3.35 -83.65 5.0 -84.45 6.1 -85.25 7.15 -86.7 7.85 L-81.6 14.4 -86.4 14.4 -90.55 8.8 -92.4 8.8 -92.4 14.4 -96.3 14.4 -96.3 -0.85 -89.7 -0.85 -87.35 -0.7" fill="#000000" fill-rule="evenodd" stroke="none"/>
    <path d="M-106.05 2.1 L-106.05 4.95 -99.5 4.95 -99.5 7.9 -106.05 7.9 -106.05 14.4 -109.95 14.4 -109.95 -0.85 -99.0 -0.85 -99.0 2.1 -106.05 2.1" fill="#000000" fill-rule="evenodd" stroke="none"/>
    <path d="M109.85 -1.85 L109.4 9.0 106.05 9.0 105.6 -1.85 109.85 -1.85 M105.65 13.4 L105.65 10.7 109.8 10.7 109.8 13.4 105.65 13.4" fill="#ff0000" fill-rule="evenodd" stroke="none"/>
    <path d="M96.0 -1.85 L96.0 10.45 103.05 10.45 103.05 13.4 92.05 13.4 92.05 -1.85 96.0 -1.85" fill="#ff0000" fill-rule="evenodd" stroke="none"/>
    <path d="M84.2 -1.85 L89.85 13.4 85.8 13.4 84.75 10.3 79.1 10.3 78.0 13.4 74.05 13.4 79.7 -1.85 84.2 -1.85 M83.8 7.5 L81.9 2.05 80.0 7.5 83.8 7.5" fill="#ff0000" fill-rule="evenodd" stroke="none"/>
    <path d="M63.55 0.85 L63.55 -1.85 72.5 -1.85 72.5 0.85 70.0 0.85 70.0 10.7 72.5 10.7 72.5 13.4 63.55 13.4 63.55 10.7 66.05 10.7 66.05 0.85 63.55 0.85" fill="#ff0000" fill-rule="evenodd" stroke="none"/>
    <path d="M53.2 0.95 L51.75 0.95 51.75 5.05 53.0 5.05 54.55 4.95 55.6 4.55 56.25 3.85 56.4 2.8 56.15 1.8 55.35 1.2 54.45 1.0 53.2 0.95 M60.0 0.3 Q60.5 1.1 60.5 2.35 60.5 4.0 59.7 5.1 58.9 6.15 57.45 6.85 L62.55 13.4 57.75 13.4 53.6 7.8 51.75 7.8 51.75 13.4 47.85 13.4 47.85 -1.85 54.45 -1.85 56.8 -1.7 58.6 -1.05 60.0 0.3" fill="#ff0000" fill-rule="evenodd" stroke="none"/>
    <path d="M31.95 1.1 L31.95 -1.85 45.45 -1.85 45.45 1.1 40.7 1.1 40.7 13.4 36.75 13.4 36.75 1.1 31.95 1.1" fill="#ff0000" fill-rule="evenodd" stroke="none"/>
    <path d="M13.45 -1.85 L16.75 4.0 19.95 -1.85 24.3 -1.85 18.65 7.5 18.65 13.4 14.7 13.4 14.7 7.7 9.0 -1.85 13.45 -1.85" fill="#ff0000" fill-rule="evenodd" stroke="none"/>
    <path d="M3.55 10.3 L-2.1 10.3 -3.2 13.4 -7.15 13.4 -1.5 -1.85 3.0 -1.85 8.65 13.4 4.6 13.4 3.55 10.3 M0.7 2.05 L-1.2 7.5 2.6 7.5 0.7 2.05" fill="#ff0000" fill-rule="evenodd" stroke="none"/>
    <path d="M-17.35 -1.85 L-14.15 -1.55 Q-12.8 -1.25 -11.85 -0.65 -10.3 0.3 -9.4 1.95 -8.45 3.55 -8.45 5.8 -8.45 7.9 -9.45 9.6 -10.4 11.3 -11.9 12.2 -13.05 12.85 -14.35 13.15 L-17.5 13.4 -22.9 13.4 -22.9 -1.85 -17.35 -1.85 M-14.85 1.5 L-16.05 1.1 -17.95 1.0 -18.95 1.0 -18.95 10.55 -17.95 10.55 -15.9 10.4 -14.65 9.95 Q-13.55 9.35 -13.05 8.3 -12.55 7.25 -12.55 5.75 -12.55 4.25 -13.1 3.2 -13.65 2.1 -14.85 1.5" fill="#ff0000" fill-rule="evenodd" stroke="none"/>
    <path d="M-44.7 2.1 L-45.05 2.1 -45.05 -1.2 -42.8 -1.85 -39.85 -2.2 -37.3 -1.95 Q-36.25 -1.7 -35.55 -1.25 -34.7 -0.75 -34.3 -0.05 -33.85 0.65 -33.85 1.65 -33.85 2.9 -34.65 3.9 -35.45 4.9 -36.75 5.2 L-36.75 5.35 -35.65 5.6 Q-35.05 5.85 -34.55 6.25 L-33.75 7.25 Q-33.45 7.8 -33.45 8.8 -33.45 9.85 -33.9 10.8 -34.3 11.7 -35.2 12.4 -36.05 13.05 -37.2 13.4 L-40.05 13.7 -43.3 13.4 -45.5 12.75 -45.5 9.4 -45.1 9.4 Q-44.25 9.95 -43.0 10.3 L-40.75 10.7 -39.45 10.6 -38.3 10.2 -37.7 9.6 Q-37.45 9.2 -37.45 8.5 -37.45 7.85 -37.75 7.5 -38.1 7.1 -38.6 6.95 L-39.8 6.8 -41.1 6.8 -41.95 6.8 -41.95 4.05 -41.05 4.05 -39.65 4.0 -38.6 3.75 Q-38.15 3.55 -37.95 3.25 -37.7 2.9 -37.7 2.3 -37.7 1.85 -37.95 1.55 L-38.55 1.1 -39.5 0.85 -40.4 0.8 -42.5 1.15 Q-43.65 1.45 -44.7 2.1" fill="#ff0000" fill-rule="evenodd" stroke="none"/>
    <path d="M-55.45 -1.85 L-55.45 1.1 -62.6 1.1 -62.6 3.7 -55.95 3.7 -55.95 6.65 -62.6 6.65 -62.6 10.45 -55.45 10.45 -55.45 13.4 -66.5 13.4 -66.5 -1.85 -55.45 -1.85" fill="#ff0000" fill-rule="evenodd" stroke="none"/>
    <path d="M-69.8 -1.85 L-69.8 1.1 -76.95 1.1 -76.95 3.7 -70.3 3.7 -70.3 6.65 -76.95 6.65 -76.95 10.45 -69.8 10.45 -69.8 13.4 -80.85 13.4 -80.85 -1.85 -69.8 -1.85" fill="#ff0000" fill-rule="evenodd" stroke="none"/>
    <path d="M-93.4 0.95 L-93.4 5.05 -92.15 5.05 -90.6 4.95 -89.55 4.55 -88.9 3.85 Q-88.75 3.45 -88.75 2.8 -88.75 2.25 -89.0 1.8 -89.2 1.4 -89.8 1.2 L-90.7 1.0 -91.95 0.95 -93.4 0.95 M-88.35 -1.7 Q-87.4 -1.55 -86.55 -1.05 -85.7 -0.55 -85.15 0.3 -84.65 1.1 -84.65 2.35 -84.65 4.0 -85.45 5.1 -86.25 6.15 -87.7 6.85 L-82.6 13.4 -87.4 13.4 -91.55 7.8 -93.4 7.8 -93.4 13.4 -97.3 13.4 -97.3 -1.85 -90.7 -1.85 -88.35 -1.7" fill="#ff0000" fill-rule="evenodd" stroke="none"/>
    <path d="M-107.05 1.1 L-107.05 3.95 -100.5 3.95 -100.5 6.9 -107.05 6.9 -107.05 13.4 -110.95 13.4 -110.95 -1.85 -100.0 -1.85 -100.0 1.1 -107.05 1.1" fill="#ff0000" fill-rule="evenodd" stroke="none"/>
  </g>
</svg>
