<?xml version="1.0" encoding="UTF-8" standalone="no"?>
<svg xmlns:xlink="http://www.w3.org/1999/xlink" height="47.0px" width="148.5px" xmlns="http://www.w3.org/2000/svg">
  <g transform="matrix(1.0, 0.0, 0.0, 1.0, 9.25, -0.15)">
    <path d="M126.95 47.15 L0.0 47.15 0.0 0.15 126.95 0.15 126.95 47.15" fill="#996600" fill-rule="evenodd" stroke="none"/>
    <path d="M133.5 9.5 L134.5 14.5" fill="none" stroke="#d4d0c8" stroke-linecap="round" stroke-linejoin="round" stroke-width="1.0"/>
    <path d="M139.25 31.0 L106.5 25.5 65.75 18.0 139.25 21.5 139.25 31.0 M131.0 38.75 L47.0 38.75 45.5 37.5 131.0 34.5 131.0 38.75 M129.25 17.75 L8.0 14.75 -3.25 12.75 133.25 12.75 129.25 17.75 M76.25 32.75 L-9.1 38.8 -9.25 34.55 74.7 31.55 76.25 32.75 M94.25 27.75 L-1.25 24.75 0.0 16.5 94.25 27.75" fill="#663300" fill-rule="evenodd" stroke="none"/>
  </g>
</svg>
