<?xml version="1.0" encoding="UTF-8" standalone="no"?>
<svg xmlns:xlink="http://www.w3.org/1999/xlink" height="57.65px" width="169.6px" xmlns="http://www.w3.org/2000/svg">
  <g transform="matrix(1.0, 0.0, 0.0, 1.0, 84.3, 28.85)">
    <path d="M79.25 -24.2 Q86.6 -19.1 85.05 -12.1 83.55 -5.1 79.4 0.3 L74.75 5.95 33.85 1.8 -35.8 11.85 -77.85 9.5 -79.3 3.35 -72.65 -3.8 -62.95 -8.65 -52.2 -12.2 -35.1 -16.2 Q-18.75 -19.9 4.3 -23.85 27.4 -27.8 48.35 -28.7 69.3 -29.6 79.25 -24.2" fill="#41444d" fill-rule="evenodd" stroke="none"/>
    <path d="M56.7 -12.95 Q37.9 -7.45 8.95 -3.25 -20.0 0.7 -39.6 0.55 -59.2 0.4 -60.55 -3.75 -60.4 -8.15 -41.6 -13.65 -22.8 -19.2 6.15 -23.4 35.1 -27.35 54.7 -27.2 74.3 -27.05 75.65 -22.9 75.5 -18.5 56.7 -12.95" fill="#6c707f" fill-rule="evenodd" stroke="none"/>
    <path d="M15.35 -11.25 L-1.15 -9.85 Q-7.8 -9.65 -8.15 -10.6 -8.0 -11.55 -1.55 -12.95 4.95 -14.4 14.8 -15.65 L31.3 -17.0 Q37.95 -17.2 38.3 -16.3 38.15 -15.3 31.7 -13.9 25.2 -12.45 15.35 -11.25" fill="#ffffff" fill-rule="evenodd" stroke="none"/>
    <path d="M83.6 -5.6 Q81.85 -0.2 80.9 1.5 79.65 3.95 77.0 5.85 73.55 8.4 70.75 9.6 L62.5 12.6 51.0 15.6 Q44.9 17.45 25.5 21.1 L-8.0 25.85 -41.0 28.6 Q-43.9 29.05 -50.9 28.4 L-61.0 27.55 Q-68.85 27.45 -76.5 24.1 -84.2 20.75 -84.3 11.3 -83.2 1.7 -74.95 -3.45 -66.75 -8.65 -58.7 -10.6 L-50.05 -12.45 -56.2 -10.1 Q-61.95 -7.8 -68.25 -4.55 -74.55 -1.25 -76.55 1.9 -78.6 5.05 -71.5 6.9 -58.15 9.7 -33.15 8.3 -8.15 6.9 18.6 3.6 L64.05 -2.55 83.6 -5.6" fill="#17181c" fill-rule="evenodd" stroke="none"/>
  </g>
</svg>
