<?xml version="1.0" encoding="UTF-8" standalone="no"?>
<svg xmlns:xlink="http://www.w3.org/1999/xlink" height="416.5px" width="157.05px" xmlns="http://www.w3.org/2000/svg">
  <g transform="matrix(1.0, 0.0, 0.0, 1.0, 78.0, 208.3)">
    <path d="M29.05 48.95 Q29.05 62.1 12.55 69.45 6.4 72.2 -0.7 73.5 L-10.7 74.2 Q-13.95 73.85 -19.1 79.45 -23.9 84.65 -28.8 93.25 -40.2 113.15 -40.2 126.2 -40.2 133.4 -37.75 142.2 -35.0 152.1 -30.05 160.25 -17.4 181.2 3.3 181.2 22.65 181.2 44.2 169.7 51.35 165.85 57.6 161.35 62.4 157.9 63.3 156.7 64.15 155.6 67.55 153.0 71.7 149.9 74.55 148.9 83.2 145.8 75.3 163.2 66.45 182.7 43.45 196.0 22.35 208.2 3.3 208.2 -6.95 208.2 -19.25 204.4 -34.1 199.8 -46.0 191.15 -77.7 168.15 -77.7 125.7 -77.7 85.4 -43.95 61.75 -33.4 54.4 -20.75 49.55 -14.4 47.15 -10.2 46.2 L29.05 48.95" fill="#335c72" fill-rule="evenodd" stroke="none"/>
    <path d="M28.5 49.85 Q28.6 57.05 24.15 61.8 20.95 65.2 12.8 69.5 8.75 71.7 -0.4 73.4 -9.45 75.1 -10.7 74.05 -6.4 71.1 -6.55 67.75 L-7.55 65.05 Q1.4 58.65 10.4 53.5 28.4 43.3 28.5 49.85" fill="#001b2e" fill-rule="evenodd" stroke="none"/>
    <path d="M28.65 49.7 Q19.75 55.05 10.45 59.4 -8.1 68.1 -10.0 63.0 -11.95 57.9 -11.5 51.6 L-10.7 46.35 28.65 49.7" fill="#000000" fill-rule="evenodd" stroke="none"/>
    <path d="M29.45 22.2 Q34.95 30.05 33.3 39.5 31.65 48.95 23.8 54.45 15.9 60.0 6.45 58.3 -3.0 56.65 -8.55 48.8 -14.05 40.9 -12.4 31.45 -10.7 22.0 -2.85 16.5 5.05 10.95 14.5 12.65 23.95 14.3 29.45 22.2" fill="#335c72" fill-rule="evenodd" stroke="none"/>
    <path d="M32.35 32.8 Q35.4 39.95 30.6 47.35 26.1 54.3 17.65 57.35 8.7 60.55 0.95 57.0 -8.05 52.85 -12.15 40.55 L-10.9 37.5 Q-10.1 35.8 -8.7 36.0 -2.2 48.55 5.6 52.1 12.1 55.05 18.8 51.6 24.3 48.75 28.4 42.6 32.1 37.1 32.0 33.4 32.15 34.1 32.35 32.8" fill="#001b2e" fill-rule="evenodd" stroke="none"/>
    <path d="M14.45 16.4 Q15.35 14.8 21.8 18.0 28.2 21.35 27.4 23.0 26.55 24.65 20.05 21.4 13.65 18.15 14.45 16.4" fill="#ffffff" fill-rule="evenodd" stroke="none"/>
    <path d="M42.65 196.75 Q22.25 208.2 3.0 208.2 -7.25 208.2 -19.55 204.4 -34.4 199.8 -46.3 191.15 -78.0 168.15 -78.0 125.7 L-75.15 133.8 Q-71.1 143.7 -65.25 152.85 -46.6 182.15 -17.0 193.0 12.55 203.85 46.25 185.35 56.75 179.6 66.45 171.55 L74.0 164.7 Q65.2 184.1 42.65 196.75" fill="#001b2e" fill-rule="evenodd" stroke="none"/>
    <path d="M4.05 180.95 Q20.9 180.95 39.4 172.25 30.6 176.8 22.2 179.65 -23.5 195.25 -42.7 156.95 -57.85 126.75 -46.4 109.95 -42.85 104.7 -37.05 101.4 L-31.95 99.2 Q-32.85 101.4 -36.5 108.4 -39.6 116.25 -39.45 125.95 -39.3 133.2 -36.9 141.9 -34.1 151.9 -29.2 160.0 -16.6 180.95 4.05 180.95 M51.7 165.15 L64.05 156.45 Q63.15 157.65 58.35 161.1 52.1 165.6 44.95 169.45 L40.8 171.55 Q46.15 168.65 51.7 165.15" fill="#7597a5" fill-rule="evenodd" stroke="none"/>
    <path d="M-35.65 155.6 Q-34.3 154.95 -31.8 160.15 -29.35 165.3 -30.7 165.95 -32.05 166.6 -34.5 161.45 -37.0 156.25 -35.65 155.6" fill="#ffffff" fill-rule="evenodd" stroke="none"/>
    <path d="M13.3 -208.3 L13.3 13.7 5.3 13.7 5.3 -208.3 13.3 -208.3" fill="#335c72" fill-rule="evenodd" stroke="none"/>
    <path d="M11.8 -208.3 L11.8 13.7 10.3 13.7 10.3 -208.3 11.8 -208.3" fill="#7597a5" fill-rule="evenodd" stroke="none"/>
    <path d="M6.3 -208.3 L6.3 13.7 4.8 13.7 4.8 -208.3 6.3 -208.3" fill="#001b2e" fill-rule="evenodd" stroke="none"/>
  </g>
</svg>
