<?xml version="1.0" encoding="UTF-8" standalone="no"?>
<svg xmlns:xlink="http://www.w3.org/1999/xlink" height="98.5px" width="105.5px" xmlns="http://www.w3.org/2000/svg">
  <g transform="matrix(1.0, 0.0, 0.0, 1.0, -558.05, -156.95)">
    <path d="M661.3 159.2 Q663.05 160.95 663.05 163.45 L663.05 248.95 Q663.05 251.45 661.3 253.2 659.55 254.95 657.05 254.95 L564.55 254.95 Q562.05 254.95 560.3 253.2 558.55 251.45 558.55 248.95 L558.55 163.45 Q558.55 160.95 560.3 159.2 562.05 157.45 564.55 157.45 L657.05 157.45 Q659.55 157.45 661.3 159.2" fill="#47f4fb" fill-rule="evenodd" stroke="none"/>
    <path d="M661.3 159.2 Q659.55 157.45 657.05 157.45 L564.55 157.45 Q562.05 157.45 560.3 159.2 558.55 160.95 558.55 163.45 L558.55 248.95 Q558.55 251.45 560.3 253.2 562.05 254.95 564.55 254.95 L657.05 254.95 Q659.55 254.95 661.3 253.2 663.05 251.45 663.05 248.95 L663.05 163.45 Q663.05 160.95 661.3 159.2 Z" fill="none" stroke="#aacc5b" stroke-linecap="round" stroke-linejoin="round" stroke-width="1.0"/>
  </g>
</svg>
