<?xml version="1.0" encoding="UTF-8" standalone="no"?>
<svg xmlns:xlink="http://www.w3.org/1999/xlink" height="52.2px" width="49.8px" xmlns="http://www.w3.org/2000/svg">
  <g transform="matrix(1.0, 0.0, 0.0, 1.0, 24.9, 26.1)">
    <path d="M15.3 -26.05 L15.35 -26.0 15.45 -25.8 16.2 -25.05 Q18.15 -22.6 19.0 -19.6 19.7 -16.85 19.55 -14.0 L19.1 -11.2 18.25 -8.35 Q17.6 -6.5 17.4 -4.6 17.65 -3.35 18.25 -2.15 L18.3 -2.05 18.3 -1.95 Q19.7 0.5 21.55 2.65 22.75 4.1 24.55 4.2 L24.65 4.3 24.7 4.35 24.7 4.3 24.75 4.35 24.8 4.4 24.9 4.45 24.9 4.55 24.9 4.7 24.9 4.75 24.55 5.05 Q23.15 6.0 21.4 6.1 22.15 7.65 22.35 9.3 22.45 10.25 22.0 11.0 L21.95 11.0 21.7 11.8 19.55 14.65 Q17.85 16.45 15.65 17.65 L10.5 20.35 10.0 20.55 Q7.8 21.4 7.4 23.65 L7.4 23.95 Q7.6 24.65 8.25 25.05 L8.45 24.9 8.55 24.95 8.6 25.0 8.7 25.2 8.7 25.3 8.75 25.3 8.75 25.45 8.75 25.55 8.65 25.65 8.6 25.7 8.4 25.7 8.15 25.95 6.5 26.1 Q4.7 26.25 3.1 25.35 L0.6 23.4 0.1 22.85 0.0 22.7 -0.05 22.85 Q-1.35 24.4 -3.1 25.35 -4.65 26.25 -6.5 26.1 L-8.1 25.95 -8.35 25.7 -8.55 25.7 -8.65 25.65 -8.7 25.55 -8.75 25.45 -8.7 25.3 -8.7 25.2 -8.6 25.0 -8.5 24.95 -8.4 24.9 -8.2 25.05 Q-7.6 24.65 -7.35 23.95 L-7.35 23.65 Q-7.8 21.4 -10.0 20.55 L-10.45 20.35 -14.6 18.15 -15.1 17.9 -15.6 17.65 Q-17.85 16.45 -19.5 14.65 L-21.7 11.8 -21.95 11.0 Q-22.45 10.25 -22.3 9.3 -22.15 7.65 -21.4 6.1 -23.1 6.0 -24.5 5.05 L-24.85 4.75 -24.9 4.7 -24.9 4.55 -24.85 4.45 -24.8 4.4 -24.75 4.35 -24.7 4.3 -24.65 4.35 -24.65 4.3 -24.55 4.2 Q-22.75 4.1 -21.5 2.65 -19.65 0.5 -18.25 -1.95 L-18.25 -2.05 -18.25 -2.15 Q-17.65 -3.35 -17.35 -4.6 -17.6 -6.5 -18.25 -8.35 L-19.1 -11.2 -19.25 -11.85 -19.5 -14.0 Q-19.7 -16.85 -18.95 -19.6 -18.15 -22.6 -16.2 -25.05 L-15.3 -25.9 -15.2 -25.95 -15.15 -25.95 -15.1 -26.0 -14.9 -26.0 -14.8 -25.9 -14.75 -25.85 -14.7 -25.75 -14.7 -25.55 Q-13.25 -23.35 -10.75 -22.2 -7.75 -20.85 -4.55 -20.35 L-1.1 -20.1 0.45 -20.2 2.75 -20.55 6.3 -21.4 Q8.8 -22.0 11.1 -23.2 13.25 -24.3 14.8 -26.05 L14.9 -26.05 14.9 -26.1 15.3 -26.05 M13.8 -24.0 Q11.35 -22.4 8.6 -21.35 6.4 -20.5 4.05 -20.05 L2.85 -19.85 0.45 -19.55 -1.1 -19.45 -3.4 -19.55 -4.75 -19.7 Q-7.9 -20.15 -10.75 -21.4 -13.2 -22.45 -14.8 -24.5 L-15.2 -25.25 -16.45 -23.35 -18.0 -20.2 Q-18.85 -17.5 -18.75 -14.6 -18.7 -11.7 -17.65 -9.05 -16.95 -7.3 -16.65 -5.45 -16.5 -4.6 -16.75 -3.8 L-16.8 -3.7 -16.9 -3.6 Q-17.05 -2.85 -17.35 -2.15 L-17.55 -1.95 -19.0 0.65 -21.2 3.45 Q-22.25 4.55 -23.7 4.8 L-22.95 5.05 -19.8 5.1 -19.75 5.15 -19.65 5.3 -19.65 5.4 -19.65 5.55 -19.65 5.6 -19.7 5.65 -19.8 5.75 Q-20.9 6.1 -21.2 7.35 L-21.5 9.55 -21.5 10.2 -21.45 10.8 -21.45 10.9 Q-19.8 13.3 -17.65 15.25 L-16.75 15.95 -16.2 16.35 -15.75 16.6 -15.1 17.0 -13.0 18.15 -11.75 18.8 -8.9 20.3 Q-6.8 21.4 -6.55 23.8 -6.5 24.2 -6.7 24.6 L-7.3 25.35 Q-4.65 25.5 -2.55 24.0 L-1.25 22.8 -1.05 22.5 -0.6 21.95 -0.55 21.85 -0.6 21.7 0.2 21.7 0.45 21.9 0.6 21.95 0.65 22.0 1.05 22.5 2.55 24.0 Q4.7 25.5 7.3 25.35 L6.75 24.6 6.55 23.8 Q6.85 21.4 8.95 20.3 L11.75 18.8 13.05 18.15 13.35 18.0 16.8 15.95 17.65 15.25 Q19.8 13.3 21.45 10.9 L21.5 10.8 21.5 10.2 21.5 9.55 21.2 7.35 Q20.9 6.1 19.8 5.75 L19.75 5.65 19.65 5.6 19.65 5.55 19.65 5.4 19.65 5.3 19.75 5.15 19.8 5.1 22.95 5.05 23.7 4.8 Q22.3 4.55 21.25 3.45 L19.0 0.65 17.55 -1.95 17.4 -2.15 16.9 -3.6 16.85 -3.7 16.8 -3.8 Q16.55 -4.6 16.65 -5.45 16.95 -7.3 17.65 -9.05 18.75 -11.7 18.8 -14.6 18.85 -17.5 18.0 -20.2 L16.45 -23.35 15.2 -25.3 13.8 -24.0 M12.3 -12.5 L12.75 -11.4 13.0 -9.8 Q13.95 -12.45 12.65 -14.95 L11.4 -16.4 9.9 -16.95 8.9 -16.9 Q8.95 -14.9 7.7 -13.3 L6.15 -11.2 5.2 -9.85 4.45 -8.45 4.3 -8.1 4.05 -6.95 Q4.0 -6.2 4.45 -5.6 L4.55 -5.7 Q4.9 -6.65 5.7 -7.25 L5.75 -7.25 6.25 -7.7 7.8 -9.2 8.5 -9.95 Q9.75 -11.3 10.05 -13.1 L9.95 -14.05 10.05 -14.2 10.4 -14.3 Q11.65 -13.7 12.3 -12.5 M10.1 -17.75 Q12.1 -17.35 13.1 -15.55 14.0 -13.95 14.05 -12.15 14.1 -10.15 13.0 -8.5 L12.7 -8.05 11.7 -6.75 9.85 -5.4 8.55 -4.9 7.5 -4.65 Q5.8 -4.6 4.25 -4.7 2.95 -5.75 3.2 -7.4 L3.6 -8.75 4.25 -9.95 5.6 -11.7 6.05 -12.25 Q7.4 -13.9 8.0 -15.85 L8.15 -16.8 7.9 -17.15 8.4 -17.6 10.1 -17.75 M11.65 -8.5 L11.8 -8.25 11.9 -7.9 12.0 -7.95 Q12.5 -8.75 12.4 -9.75 L11.7 -12.3 Q11.4 -13.0 10.65 -13.3 10.2 -10.7 8.4 -8.8 L8.2 -8.6 6.6 -7.1 6.1 -6.75 Q5.35 -6.2 5.2 -5.4 7.2 -4.9 9.05 -5.8 L9.35 -6.5 9.6 -7.75 Q9.65 -8.6 9.3 -9.35 L9.45 -9.55 Q10.6 -9.65 11.3 -8.95 L11.15 -7.95 11.65 -8.5 M11.35 0.4 Q13.65 2.25 13.95 5.4 14.5 10.45 12.0 14.65 L11.6 15.15 11.2 15.15 Q10.85 13.7 10.15 12.45 L9.8 11.9 9.15 10.95 Q8.65 14.2 6.95 17.0 L6.45 17.0 Q5.6 15.35 4.35 14.05 L3.6 13.35 2.75 12.65 Q2.05 14.75 0.65 16.5 L0.6 16.55 0.3 16.85 -0.35 17.15 -0.4 17.2 -0.7 17.2 -0.8 17.15 -1.2 16.9 -1.25 16.85 Q-2.35 16.05 -3.0 14.8 L-3.9 12.65 -5.5 14.05 Q-6.75 15.35 -7.6 17.0 L-8.05 17.0 Q-9.7 14.2 -10.3 10.95 L-11.05 12.05 Q-11.75 13.25 -12.05 14.65 L-12.35 15.15 -12.7 15.15 Q-15.65 11.05 -15.1 5.65 -14.8 2.3 -12.3 0.25 L-12.1 0.35 -12.2 0.5 -12.1 0.65 Q-10.35 3.4 -7.65 4.9 L-5.95 5.65 -4.25 6.15 -2.0 6.35 -2.2 6.2 -1.25 6.4 0.6 6.3 1.05 6.25 0.9 6.35 4.75 5.8 6.55 5.05 8.45 3.8 Q9.9 2.6 10.8 1.05 L11.1 0.5 11.0 0.35 11.15 0.25 11.35 0.4 M11.4 0.95 L11.35 0.9 Q9.7 3.9 6.6 5.5 L5.8 5.85 4.7 6.25 Q2.7 6.95 0.6 7.1 L-1.25 7.15 -3.05 7.0 -5.8 6.4 -7.7 5.55 Q-10.35 4.1 -12.2 1.4 L-12.3 1.2 -12.5 0.9 -13.3 2.35 Q-15.0 6.95 -13.8 11.75 -13.5 13.1 -12.75 14.25 -12.2 12.65 -11.3 11.3 L-10.0 9.75 -9.85 9.75 -9.7 9.9 Q-9.55 13.1 -8.0 15.85 L-7.85 16.1 Q-7.1 14.6 -5.95 13.4 L-4.6 12.15 -4.05 11.65 -3.55 11.7 Q-2.75 13.95 -1.25 15.8 L-0.7 16.4 -0.55 16.45 0.6 15.25 2.05 12.65 2.5 11.65 2.9 11.65 4.85 13.35 Q5.95 14.6 6.7 16.1 8.05 13.8 8.45 11.2 L8.6 9.85 8.7 9.75 9.0 9.75 10.45 11.65 11.05 12.8 11.6 14.25 Q13.95 9.55 12.85 4.4 12.45 2.55 11.4 0.95 M-4.45 -8.65 L-4.55 -8.85 -5.8 -10.9 -6.4 -11.65 -7.35 -12.8 Q-8.9 -14.6 -8.85 -16.9 L-9.85 -16.95 Q-10.7 -16.9 -11.4 -16.4 L-12.65 -14.95 Q-13.9 -12.45 -12.95 -9.8 L-12.65 -11.4 -12.55 -11.6 Q-12.05 -13.45 -10.35 -14.3 L-10.05 -14.2 -9.95 -14.05 Q-10.2 -12.9 -9.7 -11.85 L-8.85 -10.45 -8.2 -9.65 -7.25 -8.7 -6.3 -7.85 -6.15 -7.7 -5.7 -7.25 Q-4.85 -6.65 -4.55 -5.7 L-4.4 -5.6 Q-3.9 -6.35 -4.05 -7.3 L-4.45 -8.65 M-13.05 -15.55 Q-12.05 -17.3 -10.1 -17.75 L-8.9 -17.75 Q-8.3 -17.65 -7.85 -17.25 L-8.15 -16.8 -8.05 -15.85 Q-7.8 -14.75 -7.1 -13.8 L-5.85 -12.15 -5.55 -11.8 -4.2 -9.95 Q-3.25 -8.55 -3.2 -6.85 -3.15 -5.5 -4.2 -4.7 -5.8 -4.6 -7.5 -4.65 L-8.2 -4.8 Q-9.4 -5.1 -10.45 -5.8 L-11.35 -6.55 -12.15 -7.25 -12.6 -7.9 -12.95 -8.55 Q-14.05 -10.15 -14.0 -12.15 -13.95 -13.95 -13.05 -15.55 M-11.15 -9.1 Q-10.4 -9.7 -9.45 -9.55 L-9.25 -9.35 -9.6 -7.5 -9.55 -7.0 -9.0 -5.8 Q-7.15 -4.9 -5.2 -5.4 L-5.55 -6.25 -6.2 -6.9 -8.35 -8.75 -8.6 -9.1 Q-10.2 -10.9 -10.65 -13.3 L-10.95 -13.15 -11.3 -12.75 Q-12.2 -11.4 -12.35 -9.75 -12.45 -8.75 -11.95 -7.95 L-11.9 -7.9 -11.45 -8.8 -11.1 -8.2 -11.0 -8.25 -10.95 -8.3 -11.0 -8.45 -11.15 -9.1 M4.05 0.5 L4.35 0.75 4.7 1.4 4.8 1.45 5.2 1.4 5.6 1.05 5.7 0.95 6.15 -0.05 6.0 -1.6 5.25 -1.95 3.2 -2.8 3.0 -2.85 2.55 -3.0 1.15 -3.45 1.1 -3.4 0.7 -3.4 0.6 -3.45 -0.6 -3.45 -0.7 -3.4 -1.1 -3.4 -1.25 -3.35 -3.15 -2.8 -4.55 -2.25 -4.6 -2.25 -5.4 -1.95 -5.7 -1.75 -5.95 -1.6 Q-6.25 -0.85 -6.15 -0.15 L-5.95 0.45 -5.8 0.75 -5.15 1.4 -4.75 1.5 Q-4.5 0.85 -4.0 0.55 L-4.0 0.5 -3.5 0.3 Q-2.45 0.05 -1.6 0.75 L-1.25 1.05 Q-0.5 1.75 0.0 2.65 L0.6 1.75 Q1.25 0.95 2.2 0.45 2.8 0.1 3.55 0.25 L4.05 0.5 M-6.55 -1.9 L-6.15 -2.35 -5.0 -3.05 -3.65 -3.5 -1.25 -4.05 -0.55 -4.2 0.6 -4.2 0.75 -4.2 1.65 -4.0 2.05 -3.9 3.7 -3.55 5.7 -2.8 Q6.65 -2.3 6.9 -1.2 7.2 0.0 6.55 1.1 L5.9 1.85 4.9 2.2 4.5 2.25 4.2 2.0 Q3.9 1.75 3.9 1.4 L3.45 1.1 2.45 1.2 Q1.2 1.8 0.75 3.1 L0.65 3.3 0.6 3.3 0.4 3.35 0.35 3.4 0.3 3.5 0.2 3.55 0.15 3.55 -0.65 3.15 -0.85 2.8 -1.25 2.2 -1.3 2.1 Q-1.75 1.5 -2.45 1.25 L-3.0 1.1 Q-3.5 1.0 -3.9 1.4 L-3.95 1.55 Q-4.05 2.0 -4.45 2.25 L-5.5 2.0 -5.95 1.7 -6.65 0.85 -6.95 -0.05 Q-7.1 -1.05 -6.55 -1.9" fill="#000000" fill-rule="evenodd" stroke="none"/>
    <path d="M17.2 -10.65 L17.3 -10.75 17.35 -10.9 17.35 -11.05 17.5 -11.2 17.6 -11.35 17.65 -11.45 Q19.35 -16.9 16.0 -21.3 L15.8 -21.25 15.65 -21.15 15.6 -20.75 15.9 -20.15 14.45 -22.3 Q9.55 -18.55 3.25 -18.7 L1.9 -18.7 0.45 -18.55 -1.1 -18.55 -2.55 -18.7 -3.85 -18.7 Q-10.15 -18.65 -15.1 -22.3 L-16.65 -19.8 Q-17.4 -18.0 -17.55 -16.0 -18.0 -10.5 -15.1 -5.75 -15.4 -3.75 -16.05 -1.8 -17.15 1.6 -20.05 3.45 L-16.85 2.45 Q-19.85 4.9 -19.3 8.85 -19.15 10.15 -18.6 11.35 L-17.9 12.3 Q-12.35 17.15 -6.1 21.45 L-6.1 23.9 -5.4 23.7 Q-3.4 23.3 -2.3 21.75 L-1.85 20.95 -1.25 19.6 -1.25 19.5 0.6 19.5 0.6 19.6 1.2 20.95 1.65 21.7 Q2.75 23.3 4.75 23.7 L5.45 23.9 5.45 21.45 Q12.4 17.4 17.6 11.7 L18.3 10.35 Q19.4 6.8 17.4 3.85 L16.2 2.45 19.4 3.45 Q15.05 0.0 14.45 -5.75 17.0 -9.75 16.95 -14.4 L16.65 -17.8 16.25 -19.35 Q17.9 -15.15 17.1 -10.65 L17.05 -10.55 17.2 -10.65 M13.8 -24.0 L15.2 -25.3 16.45 -23.35 18.0 -20.2 Q18.85 -17.5 18.8 -14.6 18.75 -11.7 17.65 -9.05 16.95 -7.3 16.65 -5.45 16.55 -4.6 16.8 -3.8 L16.85 -3.7 16.9 -3.6 17.4 -2.15 17.55 -1.95 19.0 0.65 21.25 3.45 Q22.3 4.55 23.7 4.8 L22.95 5.05 19.8 5.1 19.75 5.15 19.65 5.3 19.65 5.4 19.65 5.55 19.65 5.6 19.75 5.65 19.8 5.75 Q20.9 6.1 21.2 7.35 L21.5 9.55 21.5 10.2 21.5 10.8 21.45 10.9 Q19.8 13.3 17.65 15.25 L16.8 15.95 13.35 18.0 13.05 18.15 11.75 18.8 8.95 20.3 Q6.85 21.4 6.55 23.8 L6.75 24.6 7.3 25.35 Q4.7 25.5 2.55 24.0 L1.05 22.5 0.65 22.0 0.6 21.95 0.45 21.9 0.2 21.7 -0.6 21.7 -0.55 21.85 -0.6 21.95 -1.05 22.5 -1.25 22.8 -2.55 24.0 Q-4.65 25.5 -7.3 25.35 L-6.7 24.6 Q-6.5 24.2 -6.55 23.8 -6.8 21.4 -8.9 20.3 L-11.75 18.8 -13.0 18.15 -15.1 17.0 -15.75 16.6 -16.2 16.35 -16.75 15.95 -17.65 15.25 Q-19.8 13.3 -21.45 10.9 L-21.45 10.8 -21.5 10.2 -21.5 9.55 -21.2 7.35 Q-20.9 6.1 -19.8 5.75 L-19.7 5.65 -19.65 5.6 -19.65 5.55 -19.65 5.4 -19.65 5.3 -19.75 5.15 -19.8 5.1 -22.95 5.05 -23.7 4.8 Q-22.25 4.55 -21.2 3.45 L-19.0 0.65 -17.55 -1.95 -17.35 -2.15 Q-17.05 -2.85 -16.9 -3.6 L-16.8 -3.7 -16.75 -3.8 Q-16.5 -4.6 -16.65 -5.45 -16.95 -7.3 -17.65 -9.05 -18.7 -11.7 -18.75 -14.6 -18.85 -17.5 -18.0 -20.2 L-16.45 -23.35 -15.2 -25.25 -14.8 -24.5 Q-13.2 -22.45 -10.75 -21.4 -7.9 -20.15 -4.75 -19.7 L-3.4 -19.55 -1.1 -19.45 0.45 -19.55 2.85 -19.85 4.05 -20.05 Q6.4 -20.5 8.6 -21.35 11.35 -22.4 13.8 -24.0 M16.25 -5.05 L16.2 -5.05 Q16.55 -0.45 20.15 3.0 L20.25 2.8 20.15 2.65 Q17.3 -0.8 16.25 -5.05 M-16.7 -20.9 L-16.75 -20.9 -18.2 -18.45 -18.25 -18.3 Q-19.25 -13.25 -16.95 -8.55 L-16.3 -7.85 -17.05 -9.85 Q-19.15 -15.5 -16.7 -20.9 M-19.85 6.5 L-19.8 6.35 -19.8 6.2 Q-20.8 6.95 -21.05 8.35 -21.55 10.8 -19.8 12.3 L-19.55 12.3 -19.35 12.0 -19.7 11.35 Q-20.75 9.2 -19.7 6.8 L-19.85 6.5" fill="#a7438b" fill-rule="evenodd" stroke="none"/>
    <path d="M15.9 -20.15 L15.6 -20.75 15.65 -21.15 15.8 -21.25 16.0 -21.3 Q19.35 -16.9 17.65 -11.45 L17.6 -11.35 17.5 -11.2 17.35 -11.05 17.35 -10.9 17.3 -10.75 17.2 -10.65 17.1 -10.65 Q17.9 -15.15 16.25 -19.35 L16.15 -19.6 15.9 -20.15 M16.25 -5.05 Q17.3 -0.8 20.15 2.65 L20.25 2.8 20.15 3.0 Q16.55 -0.45 16.2 -5.05 L16.25 -5.05 M-16.7 -20.9 Q-19.15 -15.5 -17.05 -9.85 L-16.3 -7.85 -16.95 -8.55 Q-19.25 -13.25 -18.25 -18.3 L-18.2 -18.45 -16.75 -20.9 -16.7 -20.9 M-4.25 -1.45 L-4.7 -1.25 -4.8 -1.4 -4.85 -1.55 Q-3.05 -3.05 -0.45 -2.95 L2.95 -2.45 3.5 -2.3 3.65 -2.15 3.75 -2.05 3.85 -1.9 3.4 -1.8 1.35 -1.95 Q-0.6 -2.5 -2.6 -2.0 L-4.25 -1.45 M-19.85 6.5 L-19.7 6.8 Q-20.75 9.2 -19.7 11.35 L-19.35 12.0 -19.55 12.3 -19.8 12.3 Q-21.55 10.8 -21.05 8.35 -20.8 6.95 -19.8 6.2 L-19.8 6.35 -19.85 6.5" fill="#dca7cd" fill-rule="evenodd" stroke="none"/>
    <path d="M17.2 -10.65 L17.05 -10.55 17.1 -10.65 17.2 -10.65" fill="#be5ca4" fill-rule="evenodd" stroke="none"/>
    <path d="M16.25 -19.35 L16.65 -17.8 16.95 -14.4 Q17.0 -9.75 14.45 -5.75 15.05 0.0 19.4 3.45 L16.2 2.45 17.4 3.85 Q19.4 6.8 18.3 10.35 L17.6 11.7 Q12.4 17.4 5.45 21.45 L5.45 23.9 4.75 23.7 Q2.75 23.3 1.65 21.7 L1.2 20.95 0.6 19.6 0.6 19.5 -1.25 19.5 -1.25 19.6 -1.85 20.95 -2.3 21.75 Q-3.4 23.3 -5.4 23.7 L-6.1 23.9 -6.1 21.45 Q-12.35 17.15 -17.9 12.3 L-18.6 11.35 Q-19.15 10.15 -19.3 8.85 -19.85 4.9 -16.85 2.45 L-20.05 3.45 Q-17.15 1.6 -16.05 -1.8 -15.4 -3.75 -15.1 -5.75 -18.0 -10.5 -17.55 -16.0 -17.4 -18.0 -16.65 -19.8 L-15.1 -22.3 Q-10.15 -18.65 -3.85 -18.7 L-2.55 -18.7 -1.1 -18.55 0.45 -18.55 1.9 -18.7 3.25 -18.7 Q9.55 -18.55 14.45 -22.3 L15.9 -20.15 16.15 -19.6 16.25 -19.35 M10.1 -17.75 L8.4 -17.6 7.9 -17.15 8.15 -16.8 8.0 -15.85 Q7.4 -13.9 6.05 -12.25 L5.6 -11.7 4.25 -9.95 3.6 -8.75 3.2 -7.4 Q2.95 -5.75 4.25 -4.7 5.8 -4.6 7.5 -4.65 L8.55 -4.9 9.85 -5.4 11.7 -6.75 12.7 -8.05 13.0 -8.5 Q14.1 -10.15 14.05 -12.15 14.0 -13.95 13.1 -15.55 12.1 -17.35 10.1 -17.75 M11.35 0.4 L11.15 0.25 11.0 0.35 11.1 0.5 10.8 1.05 Q9.9 2.6 8.45 3.8 L6.55 5.05 4.75 5.8 0.9 6.35 1.05 6.25 0.6 6.3 -1.25 6.4 -2.2 6.2 -2.0 6.35 -4.25 6.15 -5.95 5.65 -7.65 4.9 Q-10.35 3.4 -12.1 0.65 L-12.2 0.5 -12.1 0.35 -12.3 0.25 Q-14.8 2.3 -15.1 5.65 -15.65 11.05 -12.7 15.15 L-12.35 15.15 -12.05 14.65 Q-11.75 13.25 -11.05 12.05 L-10.3 10.95 Q-9.7 14.2 -8.05 17.0 L-7.6 17.0 Q-6.75 15.35 -5.5 14.05 L-3.9 12.65 -3.0 14.8 Q-2.35 16.05 -1.25 16.85 L-1.2 16.9 -0.8 17.15 -0.7 17.2 -0.4 17.2 -0.35 17.15 0.3 16.85 0.6 16.55 0.65 16.5 Q2.05 14.75 2.75 12.65 L3.6 13.35 4.35 14.05 Q5.6 15.35 6.45 17.0 L6.95 17.0 Q8.65 14.2 9.15 10.95 L9.8 11.9 10.15 12.45 Q10.85 13.7 11.2 15.15 L11.6 15.15 12.0 14.65 Q14.5 10.45 13.95 5.4 13.65 2.25 11.35 0.4 M-13.05 -15.55 Q-13.95 -13.95 -14.0 -12.15 -14.05 -10.15 -12.95 -8.55 L-12.6 -7.9 -12.15 -7.25 -11.35 -6.55 -10.45 -5.8 Q-9.4 -5.1 -8.2 -4.8 L-7.5 -4.65 Q-5.8 -4.6 -4.2 -4.7 -3.15 -5.5 -3.2 -6.85 -3.25 -8.55 -4.2 -9.95 L-5.55 -11.8 -5.85 -12.15 -7.1 -13.8 Q-7.8 -14.75 -8.05 -15.85 L-8.15 -16.8 -7.85 -17.25 Q-8.3 -17.65 -8.9 -17.75 L-10.1 -17.75 Q-12.05 -17.3 -13.05 -15.55 M-6.55 -1.9 Q-7.1 -1.05 -6.95 -0.05 L-6.65 0.85 -5.95 1.7 -5.5 2.0 -4.45 2.25 Q-4.05 2.0 -3.95 1.55 L-3.9 1.4 Q-3.5 1.0 -3.0 1.1 L-2.45 1.25 Q-1.75 1.5 -1.3 2.1 L-1.25 2.2 -0.85 2.8 -0.65 3.15 0.15 3.55 0.2 3.55 0.3 3.5 0.35 3.4 0.4 3.35 0.6 3.3 0.65 3.3 0.75 3.1 Q1.2 1.8 2.45 1.2 L3.45 1.1 3.9 1.4 Q3.9 1.75 4.2 2.0 L4.5 2.25 4.9 2.2 5.9 1.85 6.55 1.1 Q7.2 0.0 6.9 -1.2 6.65 -2.3 5.7 -2.8 L3.7 -3.55 2.05 -3.9 1.65 -4.0 0.75 -4.2 0.6 -4.2 -0.55 -4.2 -1.25 -4.05 -3.65 -3.5 -5.0 -3.05 -6.15 -2.35 -6.55 -1.9" fill="#863570" fill-rule="evenodd" stroke="none"/>
    <path d="M4.45 -8.45 Q5.75 -8.3 6.85 -9.6 L9.55 -15.35 9.55 -15.9 Q12.2 -15.35 12.3 -12.5 11.65 -13.7 10.4 -14.3 L10.05 -14.2 9.95 -14.05 10.05 -13.1 Q9.75 -11.3 8.5 -9.95 L7.8 -9.2 6.25 -7.7 5.75 -7.25 5.7 -7.25 Q4.9 -6.65 4.55 -5.7 L4.45 -5.6 Q4.0 -6.2 4.05 -6.95 L4.3 -8.1 4.45 -8.45 M-4.45 -8.65 L-4.05 -7.3 Q-3.9 -6.35 -4.4 -5.6 L-4.55 -5.7 Q-4.85 -6.65 -5.7 -7.25 L-6.15 -7.7 -6.3 -7.85 -7.25 -8.7 -8.2 -9.65 -8.85 -10.45 -9.7 -11.85 Q-10.2 -12.9 -9.95 -14.05 L-10.05 -14.2 -10.35 -14.3 Q-12.05 -13.45 -12.55 -11.6 -12.9 -15.3 -9.9 -15.9 L-9.9 -15.35 -7.15 -9.6 -6.85 -9.4 Q-5.85 -8.65 -4.45 -8.65" fill="#cccc00" fill-rule="evenodd" stroke="none"/>
    <path d="M12.3 -12.5 Q12.2 -15.35 9.55 -15.9 L9.55 -15.35 6.85 -9.6 Q5.75 -8.3 4.45 -8.45 L5.2 -9.85 6.15 -11.2 7.7 -13.3 Q8.95 -14.9 8.9 -16.9 L9.9 -16.95 11.4 -16.4 12.65 -14.95 Q13.95 -12.45 13.0 -9.8 L12.75 -11.4 12.3 -12.5 M-12.55 -11.6 L-12.65 -11.4 -12.95 -9.8 Q-13.9 -12.45 -12.65 -14.95 L-11.4 -16.4 Q-10.7 -16.9 -9.85 -16.95 L-8.85 -16.9 Q-8.9 -14.6 -7.35 -12.8 L-6.4 -11.65 -5.8 -10.9 -4.55 -8.85 -4.45 -8.65 Q-5.85 -8.65 -6.85 -9.4 L-7.15 -9.6 -9.9 -15.35 -9.9 -15.9 Q-12.9 -15.3 -12.55 -11.6" fill="#ffff00" fill-rule="evenodd" stroke="none"/>
    <path d="M11.65 -8.5 L11.85 -8.75 11.85 -10.85 Q11.7 -12.05 10.85 -12.85 L10.7 -12.8 10.65 -12.65 10.65 -12.6 10.75 -12.45 11.1 -11.8 Q11.55 -10.6 11.35 -9.35 L11.3 -8.95 Q10.6 -9.65 9.45 -9.55 L9.3 -9.35 Q9.65 -8.6 9.6 -7.75 L9.35 -6.5 9.05 -5.8 Q7.2 -4.9 5.2 -5.4 5.35 -6.2 6.1 -6.75 L6.6 -7.1 8.2 -8.6 8.4 -8.8 Q10.2 -10.7 10.65 -13.3 11.4 -13.0 11.7 -12.3 L12.4 -9.75 Q12.5 -8.75 12.0 -7.95 L11.9 -7.9 11.8 -8.25 11.65 -8.5 M-11.95 -7.95 Q-12.45 -8.75 -12.35 -9.75 -12.2 -11.4 -11.3 -12.75 L-10.95 -13.15 -10.65 -13.3 Q-10.2 -10.9 -8.6 -9.1 L-8.35 -8.75 -6.2 -6.9 -5.55 -6.25 -5.2 -5.4 Q-7.15 -4.9 -9.0 -5.8 L-9.55 -7.0 -9.6 -7.5 -9.25 -9.35 -9.45 -9.55 Q-10.4 -9.7 -11.15 -9.1 -11.4 -10.7 -10.7 -12.2 L-10.75 -12.3 -10.9 -12.3 -11.1 -12.2 -11.7 -11.5 Q-12.1 -10.0 -11.45 -8.8 L-11.9 -7.9 -11.95 -7.95" fill="#ff0000" fill-rule="evenodd" stroke="none"/>
    <path d="M11.3 -8.95 L11.35 -9.35 Q11.55 -10.6 11.1 -11.8 L10.75 -12.45 10.65 -12.6 10.65 -12.65 10.7 -12.8 10.85 -12.85 Q11.7 -12.05 11.85 -10.85 L11.85 -8.75 11.65 -8.5 11.15 -7.95 11.3 -8.95 M-11.15 -9.1 L-11.0 -8.45 -10.95 -8.3 -11.0 -8.25 -11.1 -8.2 -11.45 -8.8 Q-12.1 -10.0 -11.7 -11.5 L-11.1 -12.2 -10.9 -12.3 -10.75 -12.3 -10.7 -12.2 Q-11.4 -10.7 -11.15 -9.1" fill="#ffcc00" fill-rule="evenodd" stroke="none"/>
    <path d="M11.35 0.9 L11.4 0.95 11.35 0.9 M11.4 0.95 Q12.45 2.55 12.85 4.4 13.95 9.55 11.6 14.25 L11.05 12.8 10.45 11.65 Q11.55 8.15 11.55 3.95 L11.4 0.95 M-11.3 11.3 Q-12.2 12.65 -12.75 14.25 -13.5 13.1 -13.8 11.75 -15.0 6.95 -13.3 2.35 L-12.5 0.9 -12.3 1.2 -12.2 1.4 -12.3 3.95 Q-12.3 7.95 -11.3 11.3" fill="#cc0000" fill-rule="evenodd" stroke="none"/>
    <path d="M11.35 0.9 L11.4 0.95 11.55 3.95 Q11.55 8.15 10.45 11.65 L9.0 9.75 8.7 9.75 8.6 9.85 8.45 11.2 Q8.05 13.8 6.7 16.1 5.95 14.6 4.85 13.35 6.6 10.45 6.6 6.45 L6.6 5.5 Q9.7 3.9 11.35 0.9 M-5.95 13.4 Q-7.1 14.6 -7.85 16.1 L-8.0 15.85 Q-9.55 13.1 -9.7 9.9 L-9.85 9.75 -10.0 9.75 -11.3 11.3 Q-12.3 7.95 -12.3 3.95 L-12.2 1.4 Q-10.35 4.1 -7.7 5.55 L-7.75 6.45 Q-7.75 10.45 -5.95 13.4" fill="#b90000" fill-rule="evenodd" stroke="none"/>
    <path d="M-4.0 0.55 Q-4.5 0.85 -4.75 1.5 L-5.15 1.4 -5.8 0.75 -5.95 0.45 -6.15 -0.15 Q-6.25 -0.85 -5.95 -1.6 L-5.7 -1.75 -5.4 -1.95 -4.6 -2.25 -4.55 -2.25 -3.15 -2.8 -1.25 -3.35 -1.1 -3.4 -0.7 -3.4 -0.6 -3.45 0.6 -3.45 0.7 -3.4 1.1 -3.4 1.15 -3.45 2.55 -3.0 3.0 -2.85 3.2 -2.8 5.25 -1.95 6.0 -1.6 6.15 -0.05 5.7 0.95 5.6 1.05 5.2 1.4 4.8 1.45 4.7 1.4 4.35 0.75 4.05 0.5 Q5.5 -0.75 3.75 -1.65 L3.4 -1.8 3.85 -1.9 3.75 -2.05 3.65 -2.15 3.5 -2.3 2.95 -2.45 -0.45 -2.95 Q-3.05 -3.05 -4.85 -1.55 L-4.8 -1.4 -4.7 -1.25 -4.25 -1.45 Q-5.35 -0.65 -4.0 0.55" fill="#b6346b" fill-rule="evenodd" stroke="none"/>
    <path d="M-4.0 0.55 Q-5.35 -0.65 -4.25 -1.45 L-2.6 -2.0 Q-0.6 -2.5 1.35 -1.95 L3.4 -1.8 3.75 -1.65 Q5.5 -0.75 4.05 0.5 L3.55 0.25 Q2.8 0.1 2.2 0.45 1.25 0.95 0.6 1.75 L0.0 2.65 Q-0.5 1.75 -1.25 1.05 L-1.6 0.75 Q-2.45 0.05 -3.5 0.3 L-4.0 0.5 -4.0 0.55" fill="#892751" fill-rule="evenodd" stroke="none"/>
    <path d="M4.85 13.35 L2.9 11.65 2.5 11.65 2.05 12.65 0.6 15.25 -0.55 16.45 -0.7 16.4 -1.25 15.8 Q-2.75 13.95 -3.55 11.7 L-4.05 11.65 -4.6 12.15 -5.95 13.4 Q-7.75 10.45 -7.75 6.45 L-7.7 5.55 -5.8 6.4 Q-5.4 8.1 -4.5 9.5 -2.85 11.95 -0.55 11.95 1.7 11.95 3.35 9.5 4.3 8.05 4.7 6.25 L5.8 5.85 6.6 5.5 6.6 6.45 Q6.6 10.45 4.85 13.35" fill="#990000" fill-rule="evenodd" stroke="none"/>
    <path d="M-5.8 6.4 L-3.05 7.0 -1.25 7.15 0.6 7.1 Q2.7 6.95 4.7 6.25 4.3 8.05 3.35 9.5 1.7 11.95 -0.55 11.95 -2.85 11.95 -4.5 9.5 -5.4 8.1 -5.8 6.4" fill="#6f0000" fill-rule="evenodd" stroke="none"/>
  </g>
</svg>
