<?xml version="1.0" encoding="UTF-8" standalone="no"?>
<svg xmlns:xlink="http://www.w3.org/1999/xlink" height="38.4px" width="346.9px" xmlns="http://www.w3.org/2000/svg">
  <g transform="matrix(1.0, 0.0, 0.0, 1.0, 173.45, 19.2)">
    <path d="M169.6 -19.2 L170.1 -17.95 Q177.15 0.15 169.45 18.7 L169.2 19.2 -169.2 19.2 -170.0 17.2 Q-177.1 -1.25 -169.6 -19.2 L169.6 -19.2 M-162.5 -17.95 L-169.1 -17.95 Q-175.8 -0.75 -169.15 16.9 L-168.5 18.5 168.5 18.5 Q176.1 0.05 169.1 -17.95 L-162.5 -17.95" fill="#333333" fill-rule="evenodd" stroke="none"/>
    <path d="M-169.15 16.9 L-166.0 16.1 -161.55 15.45 Q-162.45 9.9 -162.55 7.25 -162.85 1.85 -162.3 -0.85 -164.75 -5.05 -164.15 -9.75 -163.6 -14.5 -162.5 -17.95 L169.1 -17.95 Q176.1 0.05 168.5 18.5 L-168.5 18.5 -169.15 16.9" fill="#999999" fill-rule="evenodd" stroke="none"/>
    <path d="M-169.15 16.9 Q-175.8 -0.75 -169.1 -17.95 L-162.5 -17.95 Q-163.6 -14.5 -164.15 -9.75 -164.75 -5.05 -162.3 -0.85 -162.85 1.85 -162.55 7.25 -162.45 9.9 -161.55 15.45 L-166.0 16.1 -169.15 16.9" fill="url(#gradient0)" fill-rule="evenodd" stroke="none"/>
  </g>
  <defs>
    <linearGradient gradientTransform="matrix(0.0049, 0.0, 0.0, 0.0213, -169.2, 0.3)" gradientUnits="userSpaceOnUse" id="gradient0" spreadMethod="pad" x1="-819.2" x2="819.2">
      <stop offset="0.0" stop-color="#000000"/>
      <stop offset="1.0" stop-color="#999999"/>
    </linearGradient>
  </defs>
</svg>
