<?xml version="1.0" encoding="UTF-8" standalone="no"?>
<svg xmlns:xlink="http://www.w3.org/1999/xlink" height="60.0px" width="95.1px" xmlns="http://www.w3.org/2000/svg">
  <g transform="matrix(1.0, 0.0, 0.0, 1.0, -51.5, -119.75)">
    <path d="M146.5 174.75 L146.5 174.65 146.6 174.65 146.5 174.75" fill="#34df14" fill-rule="evenodd" stroke="none"/>
    <path d="M110.55 119.75 L111.5 119.75 111.5 179.3 106.6 174.65 106.5 174.65 106.5 124.75 105.55 124.75 110.55 119.75" fill="#b8e7ba" fill-rule="evenodd" stroke="none"/>
    <path d="M110.55 119.75 L105.55 124.75 56.5 124.75 56.6 124.65 51.7 119.75 110.55 119.75" fill="#2d8235" fill-rule="evenodd" stroke="none"/>
    <path d="M51.5 178.8 L51.5 119.75 51.7 119.75 56.6 124.65 56.5 124.75 56.5 173.8 51.5 178.8" fill="#369c41" fill-rule="evenodd" stroke="none"/>
    <path d="M106.6 174.65 L111.5 179.3 111.5 179.75 51.5 179.75 51.5 178.8 56.5 173.8 56.5 174.75 106.5 174.75 106.6 174.65" fill="#6ccc71" fill-rule="evenodd" stroke="none"/>
  </g>
</svg>
