<?xml version="1.0" encoding="UTF-8" standalone="no"?>
<svg xmlns:xlink="http://www.w3.org/1999/xlink" height="19.65px" width="99.25px" xmlns="http://www.w3.org/2000/svg">
  <g transform="matrix(1.0, 0.0, 0.0, 1.0, -596.75, -160.0)">
    <path d="M693.9 162.85 Q696.0 165.75 696.0 169.8 L695.95 170.7 Q695.75 174.2 693.9 176.75 691.75 179.65 688.8 179.65 L604.0 179.65 Q601.0 179.65 598.9 176.75 597.0 174.2 596.8 170.7 L596.8 169.8 Q596.75 165.75 598.9 162.85 601.0 159.95 604.0 160.0 L688.8 160.0 Q691.75 159.95 693.9 162.85 M694.2 169.8 Q694.15 166.75 692.55 164.65 691.0 162.45 688.8 162.45 L604.0 162.45 Q601.75 162.45 600.2 164.65 598.6 166.75 598.6 169.8 L598.65 170.7 Q598.85 173.2 600.2 175.0 601.75 177.15 604.0 177.2 L688.8 177.2 Q691.0 177.15 692.55 175.0 693.9 173.2 694.1 170.7 L694.2 169.8" fill="#000099" fill-rule="evenodd" stroke="none"/>
    <path d="M694.2 169.8 L694.1 170.7 Q693.9 173.2 692.55 175.0 691.0 177.15 688.8 177.2 L604.0 177.2 Q601.75 177.15 600.2 175.0 598.85 173.2 598.65 170.7 L598.6 169.8 Q598.6 166.75 600.2 164.65 601.75 162.45 604.0 162.45 L688.8 162.45 Q691.0 162.45 692.55 164.65 694.15 166.75 694.2 169.8" fill="#ffff00" fill-rule="evenodd" stroke="none"/>
    <path d="M682.95 170.45 L677.5 170.45 Q677.55 171.3 678.15 171.75 678.75 172.25 679.95 172.25 L681.45 172.0 682.55 171.4 682.8 171.4 682.8 173.3 681.3 173.75 679.7 173.9 Q677.5 173.9 676.3 172.9 675.1 171.9 675.1 170.05 675.1 168.25 676.25 167.15 677.35 166.05 679.35 166.05 681.15 166.05 682.05 167.0 682.95 167.9 682.95 169.6 L682.95 170.45 M679.15 167.55 Q678.45 167.55 678.0 167.9 677.55 168.25 677.5 169.05 L680.55 169.05 Q680.55 168.3 680.25 167.95 679.85 167.55 679.15 167.55 M673.45 168.9 L673.45 173.7 671.1 173.7 671.1 170.0 671.05 169.1 670.9 168.45 670.55 168.1 669.9 168.0 669.3 168.1 668.6 168.45 668.6 173.7 666.2 173.7 666.2 170.0 666.2 169.1 666.05 168.45 665.7 168.1 665.0 168.0 664.35 168.15 663.75 168.45 663.75 173.7 661.35 173.7 661.35 166.3 663.75 166.3 663.75 167.1 664.9 166.35 666.15 166.1 Q666.9 166.1 667.45 166.45 L668.3 167.35 Q669.0 166.75 669.7 166.45 670.35 166.1 671.0 166.1 672.2 166.1 672.85 166.8 673.45 167.5 673.45 168.9 M636.05 163.45 L636.05 173.7 633.65 173.7 633.65 172.9 632.55 173.65 631.3 173.9 Q629.95 173.9 629.1 172.9 628.35 171.85 628.35 170.05 628.35 169.15 628.6 168.4 628.85 167.65 629.35 167.15 L630.45 166.4 Q631.05 166.1 631.7 166.1 L632.8 166.25 633.65 166.6 633.65 163.45 636.05 163.45 M631.25 168.4 Q630.75 169.0 630.75 170.05 630.75 171.1 631.15 171.6 631.5 172.1 632.35 172.1 L633.0 172.0 633.65 171.7 633.65 168.05 633.15 167.9 632.65 167.8 Q631.7 167.8 631.25 168.4 M626.7 168.9 L626.7 173.7 624.3 173.7 624.3 170.05 624.25 169.15 624.1 168.5 623.7 168.1 623.0 168.0 622.35 168.1 621.6 168.45 621.6 173.7 619.25 173.7 619.25 166.3 621.6 166.3 621.6 167.1 Q622.25 166.6 622.85 166.35 L624.15 166.1 Q625.35 166.1 626.0 166.8 626.7 167.5 626.7 168.9 M614.85 167.95 Q614.5 167.55 613.8 167.55 613.05 167.55 612.6 167.9 612.2 168.25 612.15 169.05 L615.2 169.05 Q615.2 168.3 614.85 167.95 M617.55 169.6 L617.55 170.45 612.15 170.45 Q612.2 171.3 612.8 171.75 613.4 172.25 614.6 172.25 L616.05 172.0 Q616.8 171.7 617.2 171.4 L617.45 171.4 617.45 173.3 615.9 173.75 614.35 173.9 Q612.15 173.9 610.95 172.9 609.75 171.9 609.75 170.05 609.75 168.25 610.9 167.15 612.0 166.05 613.95 166.05 615.75 166.05 616.65 167.0 617.55 167.9 617.55 169.6 M659.2 168.7 L659.2 173.7 656.85 173.7 656.85 172.9 656.4 173.25 655.85 173.6 655.1 173.8 654.3 173.9 Q653.25 173.9 652.5 173.25 651.8 172.6 651.8 171.55 651.8 170.8 652.2 170.25 L653.2 169.45 Q653.85 169.15 654.85 169.0 L656.85 168.85 656.85 168.8 Q656.85 168.2 656.35 167.95 L654.9 167.7 653.65 167.95 652.65 168.25 652.45 168.25 652.45 166.45 653.7 166.25 655.35 166.1 Q657.4 166.1 658.3 166.75 659.2 167.35 659.2 168.7 M654.3 171.75 L654.45 172.05 654.8 172.25 655.5 172.3 656.2 172.15 656.85 171.75 656.85 170.2 655.8 170.35 654.95 170.5 654.45 170.8 Q654.2 171.05 654.2 171.4 L654.3 171.75 M647.8 166.3 L650.1 166.3 650.1 172.85 649.8 174.6 649.0 175.75 Q648.45 176.15 647.7 176.35 L646.0 176.5 644.5 176.4 643.2 176.2 643.2 174.35 643.5 174.35 644.55 174.65 645.65 174.8 646.7 174.65 647.35 174.3 647.65 173.8 647.7 173.0 647.7 172.85 646.8 173.4 645.6 173.6 Q644.1 173.6 643.2 172.65 642.4 171.7 642.4 169.8 642.4 168.9 642.65 168.25 L643.35 167.05 Q643.8 166.6 644.4 166.35 L645.75 166.1 646.8 166.25 647.7 166.6 647.8 166.3 M647.25 167.9 L646.7 167.8 Q645.75 167.8 645.3 168.4 644.85 168.9 644.85 169.9 644.85 170.95 645.25 171.35 645.6 171.8 646.4 171.8 L647.1 171.7 647.7 171.4 647.7 168.0 647.25 167.9" fill="#000099" fill-rule="evenodd" stroke="none"/>
  </g>
</svg>
