<?xml version="1.0" encoding="UTF-8" standalone="no"?>
<svg xmlns:xlink="http://www.w3.org/1999/xlink" height="23.3px" width="23.6px" xmlns="http://www.w3.org/2000/svg">
  <g transform="matrix(1.0, 0.0, 0.0, 1.0, 23.4, 11.65)">
    <path d="M-22.3 -11.15 Q-18.65 -9.0 -14.75 -7.45 L-20.05 1.5 Q-24.2 -4.15 -22.3 -11.15" fill="#ff0000" fill-rule="evenodd" stroke="none"/>
    <path d="M-22.3 -11.15 Q-24.2 -4.15 -20.05 1.5 L-14.75 -7.45 Q-18.65 -9.0 -22.3 -11.15 Z" fill="none" stroke="#000000" stroke-linecap="round" stroke-linejoin="round" stroke-width="1.0"/>
    <path d="M-10.0 -5.7 L-7.25 -5.0 -11.55 8.55 -13.3 7.6 Q-15.55 6.3 -17.5 4.5 L-18.7 3.25 -20.05 1.6 -14.75 -7.3 Q-12.45 -6.4 -10.0 -5.7" fill="#ff0000" fill-rule="evenodd" stroke="none"/>
    <path d="M-10.0 -5.7 Q-12.45 -6.4 -14.75 -7.3 L-20.05 1.6 -18.7 3.25 -17.5 4.5 Q-15.55 6.3 -13.3 7.6 L-11.55 8.55 -7.25 -5.0 -10.0 -5.7 Z" fill="none" stroke="#000000" stroke-linecap="round" stroke-linejoin="round" stroke-width="1.0"/>
    <path d="M-0.3 -4.4 L-0.3 11.15 Q-5.65 11.05 -10.65 8.8 L-11.45 8.45 -7.15 -5.15 -0.3 -4.4" fill="#ffff00" fill-rule="evenodd" stroke="none"/>
    <path d="M-0.3 -4.4 L-0.3 11.15 Q-5.65 11.05 -10.65 8.8 L-11.45 8.45 -7.15 -5.15 -0.3 -4.4 Z" fill="none" stroke="#000000" stroke-linecap="round" stroke-linejoin="round" stroke-width="1.0"/>
  </g>
</svg>
