<?xml version="1.0" encoding="UTF-8" standalone="no"?>
<svg xmlns:xlink="http://www.w3.org/1999/xlink" height="23.35px" width="46.8px" xmlns="http://www.w3.org/2000/svg">
  <g transform="matrix(1.0, 0.0, 0.0, 1.0, 23.4, 11.65)">
    <path d="M-22.3 -11.15 Q-18.65 -9.0 -14.75 -7.45 L-20.05 1.5 Q-24.2 -4.15 -22.3 -11.15" fill="#ff0000" fill-rule="evenodd" stroke="none"/>
    <path d="M-22.3 -11.15 Q-24.2 -4.15 -20.05 1.5 L-14.75 -7.45 Q-18.65 -9.0 -22.3 -11.15 Z" fill="none" stroke="#000000" stroke-linecap="round" stroke-linejoin="round" stroke-width="1.0"/>
    <path d="M-10.0 -5.7 L-7.25 -5.0 -11.55 8.55 -13.3 7.6 Q-15.55 6.3 -17.5 4.5 L-18.7 3.25 -20.05 1.6 -14.75 -7.3 Q-12.45 -6.4 -10.0 -5.7" fill="#ff0000" fill-rule="evenodd" stroke="none"/>
    <path d="M-10.0 -5.7 Q-12.45 -6.4 -14.75 -7.3 L-20.05 1.6 -18.7 3.25 -17.5 4.5 Q-15.55 6.3 -13.3 7.6 L-11.55 8.55 -7.25 -5.0 -10.0 -5.7 Z" fill="none" stroke="#000000" stroke-linecap="round" stroke-linejoin="round" stroke-width="1.0"/>
    <path d="M-0.3 -4.4 L-0.3 11.15 Q-5.65 11.05 -10.65 8.8 L-11.45 8.45 -7.15 -5.15 -0.3 -4.4" fill="#ffff00" fill-rule="evenodd" stroke="none"/>
    <path d="M-0.3 -4.4 L-0.3 11.15 Q-5.65 11.05 -10.65 8.8 L-11.45 8.45 -7.15 -5.15 -0.3 -4.4 Z" fill="none" stroke="#000000" stroke-linecap="round" stroke-linejoin="round" stroke-width="1.0"/>
    <path d="M1.5 -4.4 L4.85 -4.65 6.2 -4.85 10.8 9.0 9.75 9.45 Q6.4 10.85 2.65 11.1 L2.05 11.15 1.5 11.15 -0.3 11.2 -0.3 -4.35 1.5 -4.4" fill="#ffff00" fill-rule="evenodd" stroke="none"/>
    <path d="M1.5 -4.4 L-0.3 -4.35 -0.3 11.2 1.5 11.15 2.05 11.15 2.65 11.1 Q6.4 10.85 9.75 9.45 L10.8 9.0 6.2 -4.85 4.85 -4.65 1.5 -4.4 Z" fill="none" stroke="#000000" stroke-linecap="round" stroke-linejoin="round" stroke-width="1.0"/>
    <path d="M6.3 -4.8 Q10.3 -5.4 14.0 -6.7 L19.05 2.65 Q16.7 5.6 13.45 7.65 L10.9 9.05 6.3 -4.8" fill="#66cc00" fill-rule="evenodd" stroke="none"/>
    <path d="M6.3 -4.8 L10.9 9.05 13.45 7.65 Q16.7 5.6 19.05 2.65 L14.0 -6.7 Q10.3 -5.4 6.3 -4.8 Z" fill="none" stroke="#000000" stroke-linecap="round" stroke-linejoin="round" stroke-width="1.0"/>
    <path d="M22.05 -10.55 L22.3 -9.95 Q23.05 -7.95 22.85 -5.75 22.65 -3.65 21.75 -1.75 L20.35 0.8 19.05 2.65 14.0 -6.75 Q16.25 -7.5 18.4 -8.55 L22.05 -10.55" fill="#66cc00" fill-rule="evenodd" stroke="none"/>
    <path d="M22.05 -10.55 L18.4 -8.55 Q16.25 -7.5 14.0 -6.75 L19.05 2.65 20.35 0.8 21.75 -1.75 Q22.65 -3.65 22.85 -5.75 23.05 -7.95 22.3 -9.95 L22.05 -10.55 Z" fill="none" stroke="#000000" stroke-linecap="round" stroke-linejoin="round" stroke-width="1.0"/>
  </g>
</svg>
