<?xml version="1.0" encoding="UTF-8" standalone="no"?>
<svg xmlns:xlink="http://www.w3.org/1999/xlink" height="53.2px" width="51.7px" xmlns="http://www.w3.org/2000/svg">
  <g transform="matrix(1.0, 0.0, 0.0, 1.0, 25.95, 26.65)">
    <path d="M16.45 -26.1 Q25.55 -25.0 24.75 -16.0 24.6 -14.4 23.5 -13.35 18.4 -9.0 13.85 -15.4 L12.85 -14.1 Q25.6 -8.05 25.25 5.75 25.0 14.55 18.2 19.6 0.95 32.3 -16.75 20.05 -22.05 16.45 -23.4 10.25 -26.8 -5.4 -13.1 -13.55 L-14.2 -15.55 Q-17.05 -10.35 -22.45 -12.2 -23.65 -12.65 -24.2 -13.8 -28.05 -21.4 -20.15 -25.55 -24.9 -20.45 -19.9 -17.0 L-19.3 -16.7 Q-12.6 -20.9 -10.45 -14.35 -25.25 -4.8 -19.0 11.75 -15.4 21.25 -5.35 23.5 9.2 27.0 17.5 14.3 19.85 10.75 20.4 6.65 22.3 -7.1 10.6 -15.05 12.35 -18.65 17.25 -17.1 19.0 -16.45 21.05 -16.5 22.25 -22.95 16.45 -26.1" fill="#6fa038" fill-rule="evenodd" stroke="none"/>
    <path d="M16.35 -26.15 L16.45 -26.1 Q22.25 -22.95 21.05 -16.5 19.0 -16.45 17.25 -17.1 12.35 -18.65 10.6 -15.05 22.3 -7.1 20.4 6.65 19.85 10.75 17.5 14.3 9.2 27.0 -5.35 23.5 -15.4 21.25 -19.0 11.75 -25.25 -4.8 -10.45 -14.35 -12.6 -20.9 -19.3 -16.7 L-19.9 -17.0 Q-24.9 -20.45 -20.15 -25.55 -9.35 -27.6 -7.4 -16.8 L-7.2 -15.85 Q-0.2 -17.4 6.9 -16.1 7.95 -24.65 16.35 -26.15 M6.8 -4.9 L2.2 -10.6 Q2.45 -6.6 6.3 -3.5 3.55 0.15 3.0 4.35 L3.9 4.1 7.15 -2.4 Q9.5 1.6 12.75 4.1 L13.0 3.0 7.85 -3.6 11.4 -10.1 10.8 -10.7 7.0 -4.8 6.8 -4.9 M-1.05 19.8 Q2.35 17.7 1.0 12.85 7.35 13.35 12.45 16.75 L11.2 19.1 Q14.6 16.75 12.6 13.05 L12.65 15.9 Q0.1 8.05 -12.45 15.95 L-12.5 13.25 Q-14.05 16.8 -11.1 19.15 L-12.25 16.75 -6.85 14.15 -7.05 15.15 Q-8.45 21.3 -2.8 20.45 L-1.05 19.8 M-2.35 -11.1 Q-6.0 -9.5 -7.4 -5.7 L-7.8 -4.65 Q-8.15 -8.5 -11.25 -10.0 L-8.8 -3.3 -13.55 3.45 -13.1 4.1 -8.15 -1.9 Q-7.1 2.9 -3.55 6.15 -3.6 0.95 -7.1 -3.2 -3.4 -6.4 -2.35 -11.1" fill="#8ec455" fill-rule="evenodd" stroke="none"/>
    <path d="M6.8 -4.9 L6.95 -4.7 7.0 -4.8 10.8 -10.7 11.4 -10.1 7.85 -3.6 13.0 3.0 12.75 4.1 Q9.5 1.6 7.15 -2.4 L3.9 4.1 3.0 4.35 Q3.55 0.15 6.3 -3.5 2.45 -6.6 2.2 -10.6 L6.8 -4.9 M-2.8 20.45 Q-8.45 21.3 -7.05 15.15 L-6.85 14.15 -12.25 16.75 -11.1 19.15 Q-14.05 16.8 -12.5 13.25 L-12.45 15.95 Q0.1 8.05 12.65 15.9 L12.6 13.05 Q14.6 16.75 11.2 19.1 L12.45 16.75 Q7.35 13.35 1.0 12.85 2.35 17.7 -1.05 19.8 L-0.65 19.35 Q1.6 16.4 0.5 12.8 L-2.95 13.1 -3.35 16.9 Q-4.1 15.85 -3.7 14.6 L-3.2 13.15 -6.35 13.95 Q-9.0 20.45 -2.95 20.45 L-2.8 20.45 M-2.35 -11.1 Q-3.4 -6.4 -7.1 -3.2 -3.6 0.95 -3.55 6.15 -7.1 2.9 -8.15 -1.9 L-13.1 4.1 -13.55 3.45 -8.8 -3.3 -11.25 -10.0 Q-8.15 -8.5 -7.8 -4.65 L-7.4 -5.7 Q-6.0 -9.5 -2.35 -11.1" fill="#000000" fill-rule="evenodd" stroke="none"/>
    <path d="M7.0 -4.8 L6.95 -4.7 6.8 -4.9 7.0 -4.8" fill="#66d5c5" fill-rule="evenodd" stroke="none"/>
    <path d="M-2.8 20.45 L-2.95 20.45 Q-9.0 20.45 -6.35 13.95 L-3.2 13.15 -3.7 14.6 Q-4.1 15.85 -3.35 16.9 L-2.95 13.1 0.5 12.8 Q1.6 16.4 -0.65 19.35 L-1.05 19.8 -2.8 20.45" fill="#f00000" fill-rule="evenodd" stroke="none"/>
    <path d="M16.45 -26.1 Q25.55 -25.0 24.75 -16.0 24.6 -14.4 23.5 -13.35 18.4 -9.0 13.85 -15.4 L12.85 -14.1 Q25.6 -8.05 25.25 5.75 25.0 14.55 18.2 19.6 0.95 32.3 -16.75 20.05 -22.05 16.45 -23.4 10.25 -26.8 -5.4 -13.1 -13.55 L-14.2 -15.55 Q-17.05 -10.35 -22.45 -12.2 -23.65 -12.65 -24.2 -13.8 -28.05 -21.4 -20.15 -25.55 -9.35 -27.6 -7.4 -16.8 L-7.2 -15.85 Q-0.2 -17.4 6.9 -16.1 7.95 -24.65 16.35 -26.15" fill="none" stroke="#000000" stroke-linecap="round" stroke-linejoin="round" stroke-width="1.0"/>
  </g>
</svg>
