<?xml version="1.0" encoding="UTF-8" standalone="no"?>
<svg xmlns:xlink="http://www.w3.org/1999/xlink" height="26.25px" width="165.6px" xmlns="http://www.w3.org/2000/svg">
  <g transform="matrix(1.0, 0.0, 0.0, 1.0, 82.8, 13.15)">
    <path d="M82.8 -0.05 L82.8 1.2 Q82.5 5.85 80.0 9.25 77.15 13.1 73.2 13.1 L-73.15 13.1 Q-77.15 13.1 -79.95 9.25 -82.45 5.85 -82.75 1.2 L-82.8 -0.05 Q-82.8 -5.45 -79.95 -9.3 -77.15 -13.15 -73.15 -13.15 L73.2 -13.15 Q77.15 -13.15 80.0 -9.3 82.8 -5.45 82.8 -0.05 M80.4 -0.05 Q80.35 -4.15 78.25 -6.95 76.15 -9.9 73.2 -9.85 L-73.15 -9.85 Q-76.15 -9.9 -78.25 -6.95 -80.35 -4.15 -80.35 -0.05 L-80.3 1.2 Q-80.05 4.5 -78.25 6.9 -76.15 9.75 -73.15 9.85 L73.2 9.85 Q76.15 9.75 78.25 6.9 80.05 4.5 80.35 1.2 L80.4 -0.05" fill="#000099" fill-rule="evenodd" stroke="none"/>
    <path d="M80.4 -0.05 L80.35 1.2 Q80.05 4.5 78.25 6.9 76.15 9.75 73.2 9.85 L-73.15 9.85 Q-76.15 9.75 -78.25 6.9 -80.05 4.5 -80.3 1.2 L-80.35 -0.05 Q-80.35 -4.15 -78.25 -6.95 -76.15 -9.9 -73.15 -9.85 L73.2 -9.85 Q76.15 -9.9 78.25 -6.95 80.35 -4.15 80.4 -0.05" fill="#ffff00" fill-rule="evenodd" stroke="none"/>
    <path d="M4.7 -7.1 L7.8 -7.65 Q10.95 -7.65 12.85 -5.7 14.75 -3.75 14.75 -0.25 14.75 3.25 12.85 5.2 11.0 7.15 7.85 7.15 4.65 7.15 2.75 5.2 0.85 3.25 0.85 -0.15 0.85 -2.35 1.5 -3.85 2.0 -4.95 2.85 -5.8 3.7 -6.65 4.7 -7.1 M-1.4 -3.45 L-4.25 -2.9 Q-4.55 -3.95 -5.4 -4.55 -6.25 -5.2 -7.5 -5.2 -9.4 -5.2 -10.5 -4.0 -11.6 -2.8 -11.6 -0.4 -11.6 2.1 -10.5 3.4 -9.35 4.65 -7.5 4.65 L-5.7 4.3 -4.1 3.45 -4.1 1.65 -7.45 1.65 -7.45 -0.8 -1.2 -0.8 -1.2 4.95 Q-2.1 5.8 -3.85 6.5 L-7.35 7.15 Q-9.55 7.15 -11.25 6.2 -12.9 5.25 -13.75 3.5 -14.6 1.75 -14.6 -0.3 -14.6 -2.55 -13.65 -4.3 -12.7 -6.0 -10.9 -6.95 -9.55 -7.65 -7.5 -7.65 -4.8 -7.65 -3.3 -6.55 -1.8 -5.4 -1.4 -3.45 M4.95 3.4 Q6.1 4.65 7.8 4.65 9.55 4.65 10.65 3.45 11.75 2.2 11.75 -0.3 11.75 -2.75 10.7 -4.0 9.6 -5.2 7.8 -5.2 6.05 -5.2 4.95 -3.95 3.85 -2.75 3.85 -0.25 3.85 2.15 4.95 3.4" fill="#000099" fill-rule="evenodd" stroke="none"/>
  </g>
</svg>
