<?xml version="1.0" encoding="UTF-8" standalone="no"?>
<svg xmlns:xlink="http://www.w3.org/1999/xlink" height="70.9px" width="48.1px" xmlns="http://www.w3.org/2000/svg">
  <g transform="matrix(1.0, 0.0, 0.0, 1.0, 24.0, 35.1)">
    <path d="M-3.35 32.65 L0.25 34.05 Q12.45 22.75 20.75 8.35 24.0 2.8 22.4 -3.5 20.9 -9.25 16.45 -13.4 4.5 -24.75 -10.6 -31.7 L-16.8 -34.8 -21.5 -32.55 Q-23.55 -29.85 -21.6 -27.05 -19.8 -24.4 -17.25 -22.65 L-1.15 -12.0 Q4.8 -8.1 7.7 -1.75 9.4 1.95 8.15 5.85 6.8 10.2 3.6 13.6 -2.9 20.6 -5.6 29.7 L-3.35 32.65 M22.95 -6.65 Q24.5 -2.7 23.95 1.3 23.15 6.6 20.55 11.2 12.6 25.4 0.05 35.8 -4.8 35.25 -6.3 30.6 -6.65 29.5 -6.45 28.45 -5.4 22.95 -2.0 18.45 L3.7 10.6 5.7 7.35 Q6.5 5.65 6.75 3.8 7.75 -3.2 2.2 -7.5 -4.8 -12.9 -12.05 -17.55 -15.05 -19.45 -17.75 -21.75 -20.5 -24.0 -22.8 -26.65 -24.75 -28.95 -23.5 -31.7 -21.5 -36.15 -16.8 -34.8 L-13.9 -33.75 Q-7.05 -31.1 -0.85 -27.6 8.45 -22.4 16.55 -15.55 20.85 -11.9 22.95 -6.65" fill="#000000" fill-rule="evenodd" stroke="none"/>
    <path d="M-21.5 -32.55 L-16.8 -34.8 -10.6 -31.7 Q4.5 -24.75 16.45 -13.4 20.9 -9.25 22.4 -3.5 24.0 2.8 20.75 8.35 12.45 22.75 0.25 34.05 L-3.35 32.65 Q0.05 28.85 2.85 24.65 8.75 15.95 14.15 6.95 18.1 0.45 15.0 -6.1 10.05 -16.7 -1.35 -21.25 -12.1 -25.55 -21.5 -32.55" fill="#0db9cc" fill-rule="evenodd" stroke="none"/>
    <path d="M-21.5 -32.55 Q-12.1 -25.55 -1.35 -21.25 10.05 -16.7 15.0 -6.1 18.1 0.45 14.15 6.95 8.75 15.95 2.85 24.65 0.05 28.85 -3.35 32.65 L-5.6 29.7 Q-2.9 20.6 3.6 13.6 6.8 10.2 8.15 5.85 9.4 1.95 7.7 -1.75 4.8 -8.1 -1.15 -12.0 L-17.25 -22.65 Q-19.8 -24.4 -21.6 -27.05 -23.55 -29.85 -21.5 -32.55" fill="#0ecfe4" fill-rule="evenodd" stroke="none"/>
  </g>
</svg>
