<?xml version="1.0" encoding="UTF-8" standalone="no"?>
<svg xmlns:xlink="http://www.w3.org/1999/xlink" height="36.15px" width="23.85px" xmlns="http://www.w3.org/2000/svg">
  <g transform="matrix(1.0, 0.0, 0.0, 1.0, 11.95, 18.0)">
    <path d="M-2.45 -18.0 Q4.8 -17.0 2.7 -9.95 L5.6 -13.35 Q6.85 -14.6 8.1 -13.55 16.05 -7.05 7.4 -0.45 11.25 -0.05 11.7 3.65 13.0 14.9 3.05 9.75 4.95 13.65 3.35 17.45 L0.1 18.15 -1.6 8.1 -0.1 9.5 Q9.3 1.9 1.4 -7.95 0.8 -8.7 -0.35 -9.0 L0.1 -11.25 Q1.75 -15.75 -2.45 -18.0 M-4.35 9.7 L-8.6 9.95 -3.75 7.8 -4.35 9.7 M-11.7 -8.25 L-9.8 -10.8 -5.85 -9.3 -4.3 -6.2 -11.7 -8.25 M0.25 -1.3 L0.4 -0.1 0.25 1.15 -0.2 1.65 -0.6 1.15 -0.8 -0.1 -0.6 -1.3 -0.2 -1.85 0.25 -1.3" fill="#cea500" fill-rule="evenodd" stroke="none"/>
    <path d="M0.1 18.15 Q-1.7 18.15 -2.65 16.75 -5.35 12.9 -4.35 9.7 L-3.75 7.8 -8.6 9.95 Q-14.6 3.5 -5.5 0.2 L-6.45 -0.05 Q-13.2 -1.95 -11.7 -8.25 L-4.3 -6.2 -5.85 -9.3 -2.45 -18.0 Q1.75 -15.75 0.1 -11.25 L-0.35 -9.0 Q-5.0 -4.4 -4.05 2.2 -3.6 5.55 -1.6 8.1 L0.1 18.15" fill="#ffcc00" fill-rule="evenodd" stroke="none"/>
    <path d="M-0.35 -9.0 Q0.8 -8.7 1.4 -7.95 9.3 1.9 -0.1 9.5 3.95 0.8 0.25 -7.9 L-0.35 -9.0" fill="#eaea00" fill-rule="evenodd" stroke="none"/>
    <path d="M-0.1 9.5 L-1.6 8.1 Q-3.6 5.55 -4.05 2.2 -5.0 -4.4 -0.35 -9.0 L0.25 -7.9 Q3.95 0.8 -0.1 9.5 M0.25 -1.3 L-0.2 -1.85 -0.6 -1.3 -0.8 -0.1 -0.6 1.15 -0.2 1.65 0.25 1.15 0.4 -0.1 0.25 -1.3" fill="#ffff00" fill-rule="evenodd" stroke="none"/>
  </g>
</svg>
