<?xml version="1.0" encoding="UTF-8" standalone="no"?>
<svg xmlns:xlink="http://www.w3.org/1999/xlink" height="53.3px" width="56.55px" xmlns="http://www.w3.org/2000/svg">
  <g transform="matrix(1.0, 0.0, 0.0, 1.0, 28.4, 26.7)">
    <path d="M13.3 -9.1 Q10.1 -11.5 7.35 -14.35 L2.45 -24.2 Q-3.75 -27.5 -6.15 -20.25 -8.25 -13.85 -3.9 -8.65 0.5 -3.45 7.4 -1.95 -1.85 -2.2 -6.5 -10.3 L-7.25 -11.65 Q-15.9 -11.7 -21.8 -5.7 -26.3 -1.15 -26.5 5.45 -26.7 12.5 -23.35 18.65 -20.1 24.7 -13.3 25.35 -8.6 21.95 -5.85 16.75 -4.95 15.1 -3.55 13.75 3.15 7.4 11.85 9.15 19.7 3.75 16.25 -5.2 15.35 -7.6 13.3 -9.1 M4.9 -0.75 Q0.35 0.6 -3.8 -1.75 -6.3 -3.1 -8.2 -5.25 -3.75 -2.2 2.1 -1.15 L4.9 -0.75 M13.8 -11.0 L15.55 -11.85 Q21.05 -11.0 24.5 -6.7 30.9 1.35 26.15 10.3 24.85 12.8 22.35 13.9 15.15 17.25 10.7 10.65 5.1 10.0 0.5 13.2 -6.15 17.75 -10.3 24.85 -10.7 25.55 -11.4 25.8 -18.2 28.45 -23.2 22.1 -31.6 11.5 -26.45 -1.4 -21.45 -14.05 -7.75 -12.7 -9.9 -20.25 -4.05 -25.3 -0.85 -28.0 2.35 -25.55 3.5 -24.75 3.85 -23.5 6.15 -15.1 13.8 -11.0 M19.55 -9.1 L15.15 -9.7 Q22.65 -1.35 16.2 7.95 14.95 9.7 13.2 10.7 L12.15 10.55 Q17.95 16.1 24.1 10.65 26.1 8.95 26.45 6.0 27.5 -3.6 19.55 -9.1" fill="#999999" fill-rule="evenodd" stroke="none"/>
    <path d="M13.3 -9.1 Q15.35 -7.6 16.25 -5.2 19.7 3.75 11.85 9.15 3.15 7.4 -3.55 13.75 -4.95 15.1 -5.85 16.75 -8.6 21.95 -13.3 25.35 -20.1 24.7 -23.35 18.65 -26.7 12.5 -26.5 5.45 -26.3 -1.15 -21.8 -5.7 -15.9 -11.7 -7.25 -11.65 L-6.5 -10.3 Q-1.85 -2.2 7.4 -1.95 0.5 -3.45 -3.9 -8.65 -8.25 -13.85 -6.15 -20.25 -3.75 -27.5 2.45 -24.2 L7.35 -14.35 Q10.1 -11.5 13.3 -9.1 M4.9 -0.75 L2.1 -1.15 Q-3.75 -2.2 -8.2 -5.25 -6.3 -3.1 -3.8 -1.75 0.35 0.6 4.9 -0.75 M19.55 -9.1 Q27.5 -3.6 26.45 6.0 26.1 8.95 24.1 10.65 17.95 16.1 12.15 10.55 L13.2 10.7 Q14.95 9.7 16.2 7.95 22.65 -1.35 15.15 -9.7 L19.55 -9.1" fill="#ffffff" fill-rule="evenodd" stroke="none"/>
  </g>
</svg>
