<?xml version="1.0" encoding="UTF-8" standalone="no"?>
<svg xmlns:xlink="http://www.w3.org/1999/xlink" height="50.2px" width="60.35px" xmlns="http://www.w3.org/2000/svg">
  <g transform="matrix(1.0, 0.0, 0.0, 1.0, 30.15, 25.1)">
    <path d="M6.75 -2.8 Q9.2 -1.75 11.3 -0.15 14.35 2.25 16.1 5.6 17.3 7.9 17.6 10.35 L17.75 13.65 Q17.7 18.05 15.75 21.85 L16.65 22.6 Q17.3 23.3 18.3 23.1 L20.6 22.8 Q24.75 21.8 26.5 17.75 27.55 15.3 27.75 12.55 28.1 8.35 26.6 4.4 24.9 -0.25 20.6 -3.15 16.1 -6.1 10.75 -5.7 7.7 -5.35 5.35 -3.4 6.0 -3.05 6.75 -2.8 M2.2 -1.35 L2.3 -1.3 2.25 -1.5 1.8 -3.4 -2.15 -4.5 -7.0 -4.35 2.2 -1.35 M4.8 -5.35 Q8.1 -8.3 13.25 -7.95 19.1 -7.6 24.0 -4.4 27.75 -0.75 29.25 4.1 L29.3 4.45 Q32.1 13.7 26.3 21.25 L24.1 23.5 Q21.9 25.35 18.8 25.05 L18.15 25.0 Q15.35 25.2 15.0 23.5 L14.4 23.55 13.85 23.75 13.0 23.9 12.8 24.25 12.4 24.1 12.5 24.0 Q1.05 25.8 -7.35 16.9 -10.85 13.15 -13.25 8.65 -17.85 0.15 -26.1 -4.6 L-26.95 -5.45 -26.95 -5.8 -26.8 -6.15 -26.65 -6.4 -26.55 -6.7 Q-26.8 -9.0 -26.35 -11.05 -27.75 -11.7 -28.8 -13.6 -30.15 -15.9 -30.15 -18.55 -28.65 -22.3 -25.1 -24.2 -23.95 -24.9 -22.5 -25.05 -20.05 -25.35 -18.25 -23.7 -16.45 -22.55 -15.85 -20.85 -9.0 -21.6 -3.6 -17.2 2.8 -12.15 4.8 -5.35 M-24.2 -22.45 L-26.5 -20.55 Q-28.35 -18.6 -27.65 -16.2 -27.1 -14.4 -25.7 -13.15 -23.35 -17.55 -19.1 -19.95 L-18.75 -21.15 -22.2 -22.85 Q-23.35 -23.05 -24.2 -22.45 M-7.55 -16.1 Q-11.45 -17.95 -16.25 -17.3 -20.9 -16.7 -23.2 -12.45 -23.75 -11.75 -23.8 -10.95 L-23.9 -10.9 Q-24.5 -9.15 -24.3 -7.2 -14.2 -0.7 -8.55 10.15 -4.3 18.5 4.95 21.4 L7.0 21.75 12.45 21.6 12.8 21.65 13.5 21.85 Q18.1 13.3 12.2 4.35 9.55 0.3 5.7 -0.5 L5.6 3.8 5.55 4.45 5.35 4.7 5.05 4.9 4.75 5.05 Q2.95 3.85 2.65 1.1 L2.5 0.25 Q-3.45 -2.5 -10.15 -3.5 L-10.65 -4.0 -10.7 -4.45 -10.7 -4.8 Q-10.25 -5.5 -9.35 -5.65 L-8.35 -5.75 Q-3.55 -7.65 0.95 -5.95 L-0.3 -8.75 Q-2.2 -9.1 -4.3 -10.75 -6.1 -12.15 -8.3 -12.45 -10.8 -12.85 -13.15 -12.4 L-13.9 -12.85 -14.0 -13.3 Q-11.4 -15.75 -7.6 -15.95 L-7.35 -15.95 -7.55 -16.1 M-4.9 -14.4 L-8.35 -14.2 -2.6 -12.15 -4.9 -14.4" fill="#999999" fill-rule="evenodd" stroke="none"/>
    <path d="M6.75 -2.8 Q6.0 -3.05 5.35 -3.4 7.7 -5.35 10.75 -5.7 16.1 -6.1 20.6 -3.15 24.9 -0.25 26.6 4.4 28.1 8.35 27.75 12.55 27.55 15.3 26.5 17.75 24.75 21.8 20.6 22.8 L18.3 23.1 Q17.3 23.3 16.65 22.6 L15.75 21.85 Q17.7 18.05 17.75 13.65 L17.6 10.35 Q17.3 7.9 16.1 5.6 14.35 2.25 11.3 -0.15 9.2 -1.75 6.75 -2.8 M2.2 -1.35 L-7.0 -4.35 -2.15 -4.5 1.8 -3.4 2.25 -1.5 2.2 -1.35 M-24.2 -22.45 Q-23.35 -23.05 -22.2 -22.85 L-18.75 -21.15 -19.1 -19.95 Q-23.35 -17.55 -25.7 -13.15 -27.1 -14.4 -27.65 -16.2 -28.35 -18.6 -26.5 -20.55 L-24.2 -22.45 M-7.6 -15.95 Q-11.4 -15.75 -14.0 -13.3 L-13.9 -12.85 -13.15 -12.4 Q-10.8 -12.85 -8.3 -12.45 -6.1 -12.15 -4.3 -10.75 -2.2 -9.1 -0.3 -8.75 L0.95 -5.95 Q-3.55 -7.65 -8.35 -5.75 L-9.35 -5.65 Q-10.25 -5.5 -10.7 -4.8 L-10.7 -4.45 -10.65 -4.0 -10.15 -3.5 Q-3.45 -2.5 2.5 0.25 L2.65 1.1 Q2.95 3.85 4.75 5.05 L5.05 4.9 5.35 4.7 5.55 4.45 5.6 3.8 5.7 -0.5 Q9.55 0.3 12.2 4.35 18.1 13.3 13.5 21.85 L12.8 21.65 12.45 21.6 7.0 21.75 4.95 21.4 Q-4.3 18.5 -8.55 10.15 -14.2 -0.7 -24.3 -7.2 -24.5 -9.15 -23.9 -10.9 L-23.8 -10.95 Q-23.75 -11.75 -23.2 -12.45 -20.9 -16.7 -16.25 -17.3 -11.45 -17.95 -7.55 -16.1 L-7.6 -15.95 M-4.9 -14.4 L-2.6 -12.15 -8.35 -14.2 -4.9 -14.4" fill="#ffffff" fill-rule="evenodd" stroke="none"/>
  </g>
</svg>
