<?xml version="1.0" encoding="UTF-8" standalone="no"?>
<svg xmlns:xlink="http://www.w3.org/1999/xlink" height="70.0px" width="49.2px" xmlns="http://www.w3.org/2000/svg">
  <g transform="matrix(1.0, 0.0, 0.0, 1.0, 24.7, 34.95)">
    <path d="M18.95 2.05 L19.0 2.2 18.9 2.2 18.95 2.05" fill="#000000" fill-rule="evenodd" stroke="none"/>
    <path d="M19.55 -23.3 L20.0 -22.35 16.8 -3.25 17.0 -3.0 16.8 -2.35 16.05 -2.3 15.75 -2.5 Q10.1 -7.3 3.4 -5.4 0.6 -4.6 -0.35 -1.85 -2.65 4.65 -3.15 11.45 -4.0 15.2 -7.8 15.35 L-9.65 15.55 -10.25 14.4 Q-9.9 6.6 -8.55 -1.2 -8.0 -2.65 -8.05 -4.25 -8.35 -11.1 -6.3 -17.6 -5.2 -21.4 -5.4 -25.35 -5.55 -28.15 -3.1 -29.3 L-2.85 -29.15 -3.05 -28.2 Q2.1 -23.55 9.1 -23.45 L19.55 -23.3 M17.55 -14.05 L18.8 -21.45 18.5 -22.3 Q10.95 -20.75 3.65 -22.9 -0.7 -24.2 -3.6 -27.65 -5.25 -24.7 -4.5 -21.55 -3.85 -18.4 -5.05 -15.25 -7.75 -8.7 -7.05 -1.7 L-6.6 -1.05 Q-8.7 6.55 -9.6 14.35 L-9.4 14.6 Q-7.35 14.9 -5.5 13.8 L-4.6 13.15 -4.1 9.4 -4.05 9.1 Q-3.05 2.95 -0.8 -2.8 0.2 -5.65 3.05 -6.5 9.9 -8.65 15.75 -3.75 L17.55 -14.05" fill="#6699cc" fill-rule="evenodd" stroke="none"/>
    <path d="M-4.1 9.4 L-4.6 13.15 -5.5 13.8 Q-7.35 14.9 -9.4 14.6 L-9.6 14.35 Q-8.7 6.55 -6.6 -1.05 L-7.05 -1.7 Q-7.75 -8.7 -5.05 -15.25 -3.85 -18.4 -4.5 -21.55 -5.25 -24.7 -3.6 -27.65 -0.7 -24.2 3.65 -22.9 10.95 -20.75 18.5 -22.3 L18.8 -21.45 17.55 -14.05 14.2 -17.05 14.25 -17.2 14.75 -17.95 13.75 -18.05 13.8 -17.35 13.8 -17.3 11.2 -18.0 Q10.05 -17.85 9.35 -17.0 7.7 -14.75 6.45 -12.2 L6.45 -12.3 6.3 -12.65 5.95 -12.8 5.6 -12.65 5.45 -12.3 5.6 -11.95 Q5.75 -11.8 5.95 -11.8 L6.3 -11.95 6.35 -12.0 6.15 -11.6 5.75 -11.4 Q2.75 -12.3 1.15 -14.85 L1.0 -14.9 Q1.3 -15.5 0.5 -15.7 L0.15 -15.55 0.1 -14.6 Q-2.3 -12.05 -3.5 -8.65 -5.05 -4.35 -4.95 0.45 L-5.1 4.3 Q-5.25 5.8 -5.85 7.15 L-7.0 10.5 -4.1 9.4 M5.65 -15.6 L5.8 -15.25 Q5.95 -15.1 6.15 -15.1 L6.5 -15.25 6.65 -15.6 6.5 -15.95 6.15 -16.1 5.8 -15.95 5.65 -15.6" fill="#aee4ff" fill-rule="evenodd" stroke="none"/>
    <path d="M0.1 -14.6 L0.15 -15.55 0.5 -15.7 Q1.3 -15.5 1.0 -14.9 L1.0 -14.85 0.1 -14.6 M6.35 -12.0 L6.3 -11.95 5.95 -11.8 Q5.75 -11.8 5.6 -11.95 L5.45 -12.3 5.6 -12.65 5.95 -12.8 6.3 -12.65 6.45 -12.3 6.45 -12.2 6.35 -12.0 M13.8 -17.35 L13.75 -18.05 14.75 -17.95 14.25 -17.2 13.95 -17.2 13.9 -17.2 13.9 -17.25 13.8 -17.35 M5.65 -15.6 L5.8 -15.95 6.15 -16.1 6.5 -15.95 6.65 -15.6 6.5 -15.25 6.15 -15.1 Q5.95 -15.1 5.8 -15.25 L5.65 -15.6 M2.35 -10.55 L2.3 -9.95 Q2.1 -9.55 1.65 -9.65 1.15 -9.7 1.0 -10.1 L1.0 -10.55 Q1.7 -11.8 2.35 -10.55 M8.35 -12.2 L8.3 -12.2 Q9.0 -13.45 9.65 -12.2 L9.6 -11.6 8.95 -11.25 Q8.45 -11.35 8.3 -11.75 L8.35 -12.2 M6.65 -3.4 L6.0 3.3 10.4 3.6 Q9.05 5.9 6.25 5.55 3.95 5.2 2.3 3.6 L1.85 2.4 3.5 3.15 4.85 2.95 6.0 -3.6 6.65 -3.4" fill="#ffffff" fill-rule="evenodd" stroke="none"/>
    <path d="M1.0 -14.9 L1.15 -14.85 1.0 -14.85 1.0 -14.9 M13.8 -17.3 L13.8 -17.35 13.9 -17.25 13.8 -17.3 M14.25 -17.2 L14.2 -17.05 13.95 -17.2 14.25 -17.2" fill="#66ccff" fill-rule="evenodd" stroke="none"/>
    <path d="M17.55 -14.05 L15.75 -3.75 Q9.9 -8.65 3.05 -6.5 0.2 -5.65 -0.8 -2.8 -3.05 2.95 -4.05 9.1 L-4.1 9.4 -7.0 10.5 -5.85 7.15 Q-5.25 5.8 -5.1 4.3 L-4.95 0.45 Q-5.05 -4.35 -3.5 -8.65 -2.3 -12.05 0.1 -14.6 L1.0 -14.85 1.15 -14.85 Q2.75 -12.3 5.75 -11.4 L6.15 -11.6 6.35 -12.0 6.45 -12.2 Q7.7 -14.75 9.35 -17.0 10.05 -17.85 11.2 -18.0 L13.8 -17.3 13.9 -17.25 13.9 -17.2 13.95 -17.2 14.2 -17.05 17.55 -14.05 M8.35 -12.2 L8.3 -11.75 Q8.45 -11.35 8.95 -11.25 L9.6 -11.6 9.65 -12.2 Q9.0 -13.45 8.3 -12.2 L8.35 -12.2 M2.35 -10.55 Q1.7 -11.8 1.0 -10.55 L1.0 -10.1 Q1.15 -9.7 1.65 -9.65 2.1 -9.55 2.3 -9.95 L2.35 -10.55" fill="#40c1ff" fill-rule="evenodd" stroke="none"/>
    <path d="M18.95 2.05 L7.55 -3.15 6.7 2.7 11.2 3.1 10.6 4.3 Q9.85 5.6 8.2 6.1 L4.7 5.9 Q2.05 4.9 1.1 2.35 L1.5 1.55 2.25 1.85 4.35 2.5 5.6 -3.65 Q4.05 -3.65 3.05 -2.5 L2.05 -0.95 Q1.35 0.7 0.95 2.4 L-2.0 16.0 -3.2 17.0 -4.15 17.65 Q-5.65 18.75 -7.3 19.2 L-8.95 29.75 -15.1 31.75 -16.1 35.05 -23.45 33.85 -23.8 33.55 -23.0 29.0 -24.25 28.2 Q-24.85 27.35 -24.65 26.2 L-23.45 19.2 Q-21.3 8.35 -19.45 -2.6 L-15.95 -24.4 -18.45 -25.0 -16.55 -33.45 -16.45 -32.85 -14.65 -32.55 -14.0 -34.95 -1.5 -33.35 -1.1 -32.95 -1.1 -32.8 -1.05 -32.55 -0.6 -30.9 Q0.0 -29.2 1.05 -27.9 6.2 -26.8 11.35 -26.75 L24.5 -27.15 Q23.5 -18.1 22.0 -9.05 L20.7 -2.1 19.6 2.3 19.0 2.2 18.95 2.05 M6.65 -3.4 L6.0 -3.6 4.85 2.95 3.5 3.15 1.85 2.4 2.3 3.6 Q3.95 5.2 6.25 5.55 9.05 5.9 10.4 3.6 L6.0 3.3 6.65 -3.4 M2.9 -3.4 Q5.65 -5.4 8.8 -3.95 L19.15 0.8 23.7 -25.9 Q12.3 -24.7 1.25 -27.05 -1.15 -29.15 -2.25 -32.35 -7.85 -32.85 -13.35 -34.4 L-13.6 -33.0 -6.7 -31.55 Q-9.7 -7.2 -14.7 16.9 L-13.05 20.35 -2.6 15.55 -1.2 7.9 0.4 0.4 Q0.95 -2.0 2.9 -3.4 M-16.85 -29.7 L-17.55 -25.5 -15.85 -25.05 -15.15 -29.4 -14.8 -31.75 -16.5 -32.15 -16.85 -29.7 M-17.05 13.15 L-15.2 16.1 -7.4 -30.95 -13.8 -32.0 -14.25 -29.25 -20.65 8.15 -17.05 13.15 M-8.4 22.0 L-7.9 19.45 -13.25 20.95 -14.55 19.35 -16.6 31.2 -15.75 31.0 -15.35 30.55 -14.9 30.8 -9.7 29.0 -8.4 22.0 M-20.9 29.4 L-17.2 31.15 -15.0 18.6 -18.25 13.45 -20.85 9.25 -23.8 27.8 -20.9 29.4 M-22.0 29.7 L-22.7 32.9 -16.55 34.1 -16.0 31.9 -17.45 31.75 Q-18.75 31.5 -19.9 30.9 L-22.0 29.7" fill="#359310" fill-rule="evenodd" stroke="none"/>
    <path d="M19.55 -23.3 L9.1 -23.45 Q2.1 -23.55 -3.05 -28.2 L-2.85 -29.15 -3.1 -29.3 Q-5.55 -28.15 -5.4 -25.35 -5.2 -21.4 -6.3 -17.6 -8.35 -11.1 -8.05 -4.25 -8.0 -2.65 -8.55 -1.2 -9.9 6.6 -10.25 14.4 L-9.65 15.55 -7.8 15.35 Q-4.0 15.2 -3.15 11.45 -2.65 4.65 -0.35 -1.85 0.6 -4.6 3.4 -5.4 10.1 -7.3 15.75 -2.5 L16.05 -2.3 16.8 -2.35 17.0 -3.0 16.8 -3.25 20.0 -22.35 19.55 -23.3 M2.9 -3.4 Q0.95 -2.0 0.4 0.4 L-1.2 7.9 -2.6 15.55 -13.05 20.35 -14.7 16.9 Q-9.7 -7.2 -6.7 -31.55 L-13.6 -33.0 -13.35 -34.4 Q-7.85 -32.85 -2.25 -32.35 -1.15 -29.15 1.25 -27.05 12.3 -24.7 23.7 -25.9 L19.15 0.8 8.8 -3.95 Q5.65 -5.4 2.9 -3.4 M-16.85 -29.7 L-16.5 -32.15 -14.8 -31.75 -15.15 -29.4 -16.85 -29.7 M-14.25 -29.25 L-13.8 -32.0 -7.4 -30.95 -15.2 16.1 -17.05 13.15 -10.05 -28.55 -14.25 -29.25 M-14.9 30.8 L-15.35 30.55 -15.75 31.0 -16.6 31.2 -14.55 19.35 -13.25 20.95 -7.9 19.45 -8.4 22.0 -13.7 23.65 -14.9 30.8 M-18.25 13.45 L-15.0 18.6 -17.2 31.15 -20.9 29.4 -18.25 13.45 M-22.0 29.7 L-19.9 30.9 Q-18.75 31.5 -17.45 31.75 L-16.0 31.9 -16.55 34.1 -22.7 32.9 -22.0 29.7" fill="#60ed2b" fill-rule="evenodd" stroke="none"/>
    <path d="M-15.15 -29.4 L-15.85 -25.05 -17.55 -25.5 -16.85 -29.7 -15.15 -29.4 M-17.05 13.15 L-20.65 8.15 -14.25 -29.25 -10.05 -28.55 -17.05 13.15 M-8.4 22.0 L-9.7 29.0 -14.9 30.8 -13.7 23.65 -8.4 22.0 M-20.9 29.4 L-23.8 27.8 -20.85 9.25 -18.25 13.45 -20.9 29.4" fill="#9cf679" fill-rule="evenodd" stroke="none"/>
  </g>
</svg>
