<?xml version="1.0" encoding="UTF-8" standalone="no"?>
<svg xmlns:xlink="http://www.w3.org/1999/xlink" height="8.3px" width="25.35px" xmlns="http://www.w3.org/2000/svg">
  <g transform="matrix(1.0, 0.0, 0.0, 1.0, -77.65, 134.4)">
    <path d="M87.3 -127.6 L87.3 -127.5 90.5 -127.8 92.3 -127.95 95.35 -128.05 Q98.3 -128.1 101.25 -127.2 102.7 -126.7 103.0 -128.25 103.15 -129.15 102.4 -129.5 100.75 -130.4 98.9 -130.0 L97.75 -129.7 95.35 -129.4 Q96.65 -129.85 97.25 -131.25 97.95 -132.75 97.05 -133.95 L96.8 -134.2 Q95.85 -134.8 95.45 -133.75 L95.25 -133.2 Q94.0 -130.65 91.55 -129.3 89.5 -128.2 87.3 -127.6 M77.65 -126.15 L77.65 -126.1 80.1 -126.65 80.85 -126.75 82.8 -127.1 82.95 -127.1 82.95 -127.15 81.4 -127.15 78.95 -127.2 78.9 -127.2 77.95 -126.35 77.65 -126.15" fill="#66ccff" fill-rule="evenodd" stroke="none"/>
  </g>
</svg>
