<?xml version="1.0" encoding="UTF-8" standalone="no"?>
<svg xmlns:xlink="http://www.w3.org/1999/xlink" height="43.45px" width="31.25px" xmlns="http://www.w3.org/2000/svg">
  <g transform="matrix(1.0, 0.0, 0.0, 1.0, 39.9, 69.2)">
    <path d="M-13.0 -27.6 Q-12.8 -27.45 -13.3 -27.25 L-13.5 -26.9 -13.6 -26.7 -13.75 -26.5 -13.8 -26.4 -14.05 -26.05 -14.15 -25.75 -16.9 -26.45 Q-26.25 -29.05 -33.35 -35.6 -37.3 -39.3 -38.9 -44.35 -40.95 -50.85 -38.85 -57.3 L-38.7 -57.55 Q-35.25 -65.45 -27.4 -69.2 L-27.1 -69.1 -26.75 -68.3 -27.95 -67.7 -28.2 -67.55 Q-30.6 -66.25 -32.6 -64.25 -38.1 -58.95 -38.35 -51.4 -38.6 -44.15 -33.75 -38.75 -29.1 -33.65 -24.05 -31.15 -19.0 -28.65 -15.5 -28.2 L-13.0 -27.6 M-23.45 -61.1 L-23.0 -60.5 -23.0 -60.45 Q-23.35 -60.1 -23.95 -59.9 L-24.0 -59.75 -24.15 -59.5 -25.3 -58.8 Q-27.15 -56.8 -28.45 -54.3 -28.95 -51.75 -27.9 -49.25 -26.65 -46.35 -23.95 -44.1 -17.2 -38.7 -8.65 -38.65 L-8.95 -37.4 -10.1 -37.4 Q-18.8 -37.6 -25.4 -43.45 -28.3 -46.0 -29.55 -49.3 -30.35 -51.45 -29.7 -53.65 -28.4 -58.35 -24.45 -60.95 L-23.55 -61.05 -23.45 -61.1" fill="#000000" fill-rule="evenodd" stroke="none"/>
    <path d="M-26.75 -68.3 L-26.2 -66.8 -24.85 -63.55 -23.45 -61.1 -23.55 -61.05 -24.45 -60.95 Q-28.4 -58.35 -29.7 -53.65 -30.35 -51.45 -29.55 -49.3 -28.3 -46.0 -25.4 -43.45 -18.8 -37.6 -10.1 -37.4 L-8.95 -37.4 -9.4 -35.7 Q-9.8 -34.05 -10.45 -32.45 L-11.7 -29.6 -11.9 -29.25 -13.0 -27.6 -15.5 -28.2 Q-19.0 -28.65 -24.05 -31.15 -29.1 -33.65 -33.75 -38.75 -38.6 -44.15 -38.35 -51.4 -38.1 -58.95 -32.6 -64.25 -30.6 -66.25 -28.2 -67.55 L-27.95 -67.7 -26.75 -68.3" fill="#dadada" fill-rule="evenodd" stroke="none"/>
  </g>
</svg>
