<?xml version="1.0" encoding="UTF-8" standalone="no"?>
<svg xmlns:xlink="http://www.w3.org/1999/xlink" height="44.9px" width="35.7px" xmlns="http://www.w3.org/2000/svg">
  <g transform="matrix(1.0, 0.0, 0.0, 1.0, 45.1, 65.1)">
    <path d="M-16.95 -21.25 L-17.2 -21.0 -17.7 -20.2 -24.95 -24.2 -30.05 -27.25 -36.35 -31.6 -37.2 -32.25 Q-44.5 -38.1 -45.05 -47.5 -45.25 -50.65 -44.25 -53.4 -43.8 -54.85 -42.95 -56.15 L-41.35 -58.15 Q-35.25 -64.0 -26.65 -65.1 L-25.95 -64.9 -25.45 -64.7 -25.1 -64.35 -25.1 -64.05 -25.1 -63.9 -25.75 -63.45 -28.25 -63.35 -32.65 -62.05 Q-37.9 -60.9 -40.85 -56.6 -42.2 -54.65 -42.9 -52.55 -44.3 -48.3 -42.8 -43.5 -41.4 -38.9 -37.9 -35.45 L-34.85 -32.75 Q-32.05 -30.4 -28.85 -28.5 L-19.25 -22.65 -16.95 -21.25 M-21.05 -55.55 L-20.95 -55.5 -20.7 -55.25 -20.7 -55.05 -20.7 -54.85 -20.9 -54.6 -21.35 -54.55 -22.1 -54.75 -26.65 -54.75 Q-32.8 -54.65 -34.5 -48.95 L-34.5 -48.9 Q-34.3 -46.2 -32.45 -44.2 -30.25 -41.7 -27.55 -39.6 -24.95 -37.6 -22.15 -35.95 -17.0 -32.95 -11.25 -31.2 L-11.6 -29.85 -11.7 -29.9 Q-18.3 -31.8 -24.05 -35.4 L-27.45 -37.75 -30.3 -39.95 Q-33.45 -42.45 -34.9 -46.1 -35.6 -47.75 -35.4 -49.25 -35.2 -51.5 -33.05 -53.3 -28.65 -57.15 -22.4 -56.25 L-22.4 -56.2 -22.1 -56.2 -21.35 -55.7 -21.05 -55.55" fill="#000000" fill-rule="evenodd" stroke="none"/>
    <path d="M-16.95 -21.25 L-19.25 -22.65 -28.85 -28.5 Q-32.05 -30.4 -34.85 -32.75 L-37.9 -35.45 Q-41.4 -38.9 -42.8 -43.5 -44.3 -48.3 -42.9 -52.55 -42.2 -54.65 -40.85 -56.6 -37.9 -60.9 -32.65 -62.05 L-28.25 -63.35 -25.75 -63.45 -25.1 -63.9 -25.1 -64.05 -25.1 -64.35 Q-21.85 -63.8 -18.5 -64.4 -15.75 -64.9 -13.4 -63.4 -12.15 -62.65 -11.2 -61.5 L-9.7 -59.0 Q-8.9 -57.4 -10.35 -56.35 -11.55 -55.55 -12.85 -55.0 L-15.75 -54.4 -18.05 -54.75 -21.05 -55.55 -21.35 -55.7 -22.1 -56.2 -22.4 -56.2 -22.4 -56.25 Q-28.65 -57.15 -33.05 -53.3 -35.2 -51.5 -35.4 -49.25 -35.6 -47.75 -34.9 -46.1 -33.45 -42.45 -30.3 -39.95 L-27.45 -37.75 -24.05 -35.4 Q-18.3 -31.8 -11.7 -29.9 L-11.6 -29.85 Q-11.85 -28.95 -12.25 -28.1 L-13.0 -26.65 Q-13.8 -25.05 -15.0 -23.7 L-15.8 -22.7 -16.05 -22.35 -16.95 -21.25" fill="#dadada" fill-rule="evenodd" stroke="none"/>
  </g>
</svg>
