<?xml version="1.0" encoding="UTF-8" standalone="no"?>
<svg xmlns:xlink="http://www.w3.org/1999/xlink" height="77.95px" width="87.5px" xmlns="http://www.w3.org/2000/svg">
  <g transform="matrix(1.0, 0.0, 0.0, 1.0, 45.6, 94.4)">
    <path d="M39.75 -86.15 L40.35 -86.3 40.45 -86.1 39.2 -85.5 38.4 -85.15 Q35.05 -83.8 31.55 -82.8 15.0 -78.3 -0.95 -72.1 -12.25 -67.75 -22.15 -60.85 -27.05 -57.5 -29.2 -52.0 -30.5 -48.75 -30.1 -45.25 -29.4 -38.65 -24.1 -34.55 -20.1 -31.35 -15.55 -28.9 -14.3 -28.2 -13.2 -27.4 L-13.75 -26.0 -14.8 -26.55 Q-18.05 -28.25 -21.1 -30.25 L-24.8 -33.15 Q-27.7 -35.85 -29.65 -39.25 -31.6 -42.6 -31.6 -46.35 -31.65 -50.95 -29.2 -54.85 -24.85 -61.8 -17.65 -65.95 L-10.5 -69.75 Q-2.55 -73.65 5.85 -76.6 14.25 -79.55 22.8 -81.85 31.25 -84.2 39.75 -86.15 M-19.05 -17.85 L-19.8 -16.45 -19.85 -16.45 Q-25.6 -19.8 -31.2 -23.65 -38.8 -29.0 -43.15 -36.95 -47.7 -45.3 -43.75 -54.05 -40.85 -60.55 -35.1 -64.9 -27.85 -70.35 -19.55 -74.15 L-12.15 -77.45 Q-4.0 -81.1 4.5 -84.05 10.8 -86.3 17.25 -88.25 L31.95 -92.5 32.45 -92.65 34.45 -93.2 34.5 -93.15 35.35 -93.05 35.55 -92.8 35.6 -92.6 33.15 -91.55 Q28.45 -89.65 23.3 -88.15 12.75 -85.15 2.5 -81.45 L-6.0 -78.25 -9.0 -77.1 Q-23.9 -71.8 -35.95 -61.65 -42.2 -56.45 -43.45 -48.45 -44.15 -44.05 -42.4 -39.9 -40.9 -36.25 -38.4 -33.1 -35.0 -28.8 -30.45 -25.55 -24.85 -21.55 -19.05 -17.85" fill="#000000" fill-rule="evenodd" stroke="none"/>
    <path d="M32.45 -92.65 Q36.05 -95.6 40.25 -93.55 L40.45 -93.45 Q42.2 -92.6 41.85 -90.45 L41.55 -89.3 41.1 -88.1 39.75 -86.15 Q31.25 -84.2 22.8 -81.85 14.25 -79.55 5.85 -76.6 -2.55 -73.65 -10.5 -69.75 L-17.65 -65.95 Q-24.85 -61.8 -29.2 -54.85 -31.65 -50.95 -31.6 -46.35 -31.6 -42.6 -29.65 -39.25 -27.7 -35.85 -24.8 -33.15 L-21.1 -30.25 Q-18.05 -28.25 -14.8 -26.55 L-13.75 -26.0 -19.05 -17.85 Q-24.85 -21.55 -30.45 -25.55 -35.0 -28.8 -38.4 -33.1 -40.9 -36.25 -42.4 -39.9 -44.15 -44.05 -43.45 -48.45 -42.2 -56.45 -35.95 -61.65 -23.9 -71.8 -9.0 -77.1 L-6.0 -78.25 2.5 -81.45 Q12.75 -85.15 23.3 -88.15 28.45 -89.65 33.15 -91.55 L35.6 -92.6 35.55 -92.8 35.35 -93.05 34.5 -93.15 34.45 -93.2 32.45 -92.65" fill="#dadada" fill-rule="evenodd" stroke="none"/>
  </g>
</svg>
