<?xml version="1.0" encoding="UTF-8" standalone="no"?>
<svg xmlns:xlink="http://www.w3.org/1999/xlink" height="11.75px" width="24.45px" xmlns="http://www.w3.org/2000/svg">
  <g transform="matrix(1.0, 0.0, 0.0, 1.0, -83.0, 119.7)">
    <path d="M92.25 -111.3 L92.25 -111.2 Q93.8 -111.5 95.3 -112.1 L97.05 -112.55 100.0 -113.25 105.95 -113.6 Q107.45 -113.4 107.45 -115.0 107.45 -115.85 106.7 -116.1 L103.15 -115.9 102.1 -115.35 Q101.0 -114.65 99.75 -114.6 100.95 -115.25 101.3 -116.8 101.7 -118.35 100.55 -119.35 L100.3 -119.55 Q99.25 -120.0 99.05 -118.85 L98.9 -118.3 Q98.2 -115.55 96.05 -113.75 94.3 -112.25 92.25 -111.3 M83.0 -107.95 L85.4 -108.95 86.1 -109.15 87.95 -109.9 88.05 -109.95 88.05 -110.0 86.6 -109.7 84.15 -109.2 84.05 -109.25 83.35 -108.25 83.0 -107.95" fill="#66ccff" fill-rule="evenodd" stroke="none"/>
  </g>
</svg>
