<?xml version="1.0" encoding="UTF-8" standalone="no"?>
<svg xmlns:xlink="http://www.w3.org/1999/xlink" height="51.6px" width="39.3px" xmlns="http://www.w3.org/2000/svg">
  <g transform="matrix(1.0, 0.0, 0.0, 1.0, 19.65, 25.8)">
    <path d="M16.9 -16.6 Q15.7 -19.8 12.85 -21.6 L9.15 -23.7 6.65 -22.3 5.5 -16.8 3.95 -11.5 Q2.95 -8.75 0.25 -7.25 L3.9 -4.65 3.75 -3.6 Q-2.9 -5.5 -9.95 -4.85 -15.4 -4.0 -18.5 0.55 -19.05 7.9 -14.35 13.75 -11.3 17.5 -7.35 20.05 L-2.9 22.5 Q1.05 24.35 5.45 24.15 10.6 23.95 14.4 20.5 17.5 17.6 17.1 13.35 16.5 7.25 13.35 1.95 12.55 0.6 12.1 -0.9 11.35 -3.35 11.0 -5.95 13.8 -8.4 16.2 -11.15 16.95 -12.05 17.2 -13.3 17.5 -14.9 16.9 -16.6 M4.35 -18.3 Q4.65 -20.55 5.45 -22.6 6.35 -25.15 9.05 -25.8 16.7 -24.8 19.1 -17.8 20.1 -14.95 19.3 -12.05 18.3 -8.15 14.7 -5.8 13.3 -5.0 12.25 -3.8 12.15 -2.95 12.55 -2.35 L14.8 0.7 Q16.35 2.95 17.3 5.5 19.55 11.5 18.0 17.45 L17.1 19.55 Q15.1 22.8 11.4 24.3 4.7 27.1 -2.4 24.65 -5.4 23.65 -8.45 21.9 -12.95 19.25 -15.9 15.15 -20.15 9.2 -19.6 1.95 L-19.55 -0.8 -18.75 -1.8 Q-13.15 -7.9 -4.55 -7.6 -0.8 -7.35 1.35 -10.5 3.85 -14.05 4.35 -18.3" fill="#999999" fill-rule="evenodd" stroke="none"/>
    <path d="M16.9 -16.6 Q17.5 -14.9 17.2 -13.3 16.95 -12.05 16.2 -11.15 13.8 -8.4 11.0 -5.95 11.35 -3.35 12.1 -0.9 12.55 0.6 13.35 1.95 16.5 7.25 17.1 13.35 17.5 17.6 14.4 20.5 10.6 23.95 5.45 24.15 1.05 24.35 -2.9 22.5 L-7.35 20.05 Q-11.3 17.5 -14.35 13.75 -19.05 7.9 -18.5 0.55 -15.4 -4.0 -9.95 -4.85 -2.9 -5.5 3.75 -3.6 L3.9 -4.65 0.25 -7.25 Q2.95 -8.75 3.95 -11.5 L5.5 -16.8 6.65 -22.3 9.15 -23.7 12.85 -21.6 Q15.7 -19.8 16.9 -16.6" fill="#ffffff" fill-rule="evenodd" stroke="none"/>
  </g>
</svg>
