<?xml version="1.0" encoding="UTF-8" standalone="no"?>
<svg xmlns:xlink="http://www.w3.org/1999/xlink" height="29.55px" width="38.65px" xmlns="http://www.w3.org/2000/svg">
  <g transform="matrix(1.0, 0.0, 0.0, 1.0, 19.3, 14.6)">
    <path d="M-19.25 6.85 L-19.25 5.7 Q-18.3 0.85 -14.75 -2.45 -11.15 -5.75 -6.6 -7.7 -3.2 -9.2 -0.55 -11.95 L-0.15 -11.65 Q5.8 -15.3 12.65 -14.45 14.15 -14.15 15.35 -13.1 17.9 -10.95 18.8 -7.6 20.35 -1.75 17.6 3.9 16.1 6.85 13.35 9.05 9.4 12.1 4.7 13.45 -1.05 15.15 -6.95 14.9 -12.85 14.35 -18.6 12.7 L-19.15 10.25 -8.4 13.0 -4.3 9.75 Q-2.15 8.05 -1.05 5.35 -0.7 9.65 -3.45 13.15 L4.55 11.85 7.9 4.8 8.15 5.55 Q8.75 8.05 8.0 10.4 13.75 7.45 16.6 1.55 19.4 -4.3 15.95 -9.75 14.55 -11.9 12.05 -12.25 6.1 -13.15 1.2 -10.15 -3.15 -7.45 -7.55 -4.9 -14.75 -0.75 -18.1 6.65 L-18.4 6.8 -19.25 6.85 M5.4 11.55 L7.25 10.8 7.0 10.1 7.65 5.75 5.4 11.55 M-1.7 7.5 Q-3.65 11.05 -7.05 13.1 L-4.3 13.0 Q-2.15 9.95 -1.15 6.35 L-1.7 7.5" fill="#999999" fill-rule="evenodd" stroke="none"/>
    <path d="M-19.15 10.25 Q-19.4 8.5 -19.25 6.85 L-18.4 6.8 -18.1 6.65 Q-14.75 -0.75 -7.55 -4.9 -3.15 -7.45 1.2 -10.15 6.1 -13.15 12.05 -12.25 14.55 -11.9 15.95 -9.75 19.4 -4.3 16.6 1.55 13.75 7.45 8.0 10.4 8.75 8.05 8.15 5.55 L7.9 4.8 4.55 11.85 -3.45 13.15 Q-0.7 9.65 -1.05 5.35 -2.15 8.05 -4.3 9.75 L-8.4 13.0 -19.15 10.25 M5.4 11.55 L7.65 5.75 7.0 10.1 7.25 10.8 5.4 11.55 M-1.7 7.5 L-1.15 6.35 Q-2.15 9.95 -4.3 13.0 L-7.05 13.1 Q-3.65 11.05 -1.7 7.5" fill="#ffffff" fill-rule="evenodd" stroke="none"/>
  </g>
</svg>
