<?xml version="1.0" encoding="UTF-8" standalone="no"?>
<svg xmlns:xlink="http://www.w3.org/1999/xlink" height="59.75px" width="51.2px" xmlns="http://www.w3.org/2000/svg">
  <g transform="matrix(1.0, 0.0, 0.0, 1.0, 25.75, 29.85)">
    <path d="M11.55 -10.5 L11.1 -10.1 10.25 -10.05 5.15 -12.5 Q-10.15 -14.65 -18.3 -1.65 L-18.9 -1.5 Q-22.9 12.55 -13.85 23.7 -12.95 24.9 -11.65 25.55 -1.2 30.75 9.75 25.5 19.9 20.7 23.15 10.1 25.9 1.3 17.4 -3.3 18.05 -9.8 11.55 -10.5 M19.15 -4.85 L19.1 -4.0 Q28.6 2.6 23.9 13.3 18.25 26.05 4.55 29.2 -4.9 31.45 -13.15 26.3 -18.05 23.35 -19.75 17.95 -22.75 8.3 -20.35 -1.55 -28.35 -5.65 -24.55 -14.35 -18.6 -28.15 -3.65 -29.8 0.85 -30.05 4.95 -28.2 15.8 -23.25 12.35 -12.25 19.2 -11.65 19.15 -4.85 M-14.35 9.4 L-13.8 11.95 Q-12.85 15.85 -10.7 19.05 L-6.8 17.65 Q-11.65 14.5 -14.35 9.4 M-5.55 18.25 L-11.05 20.2 Q-17.15 10.65 -14.95 -0.1 L-14.8 4.0 Q-14.6 7.0 -13.05 9.35 L-5.55 18.25 M6.95 13.0 L1.95 15.2 Q-4.9 5.85 -4.15 -5.5 -3.0 6.05 6.95 13.0 M2.15 14.2 L5.55 13.05 -2.4 3.9 Q-1.15 9.4 2.15 14.2 M4.45 -13.7 Q7.55 -13.15 10.55 -11.95 14.55 -21.1 5.3 -25.65 -5.15 -30.65 -15.0 -24.3 -24.1 -18.4 -24.1 -8.05 L-23.8 -6.4 -19.4 -2.95 Q-10.85 -16.1 4.45 -13.7 M18.65 -1.15 Q15.6 -0.45 13.15 -2.3 9.6 -5.1 10.75 -8.55 13.4 -3.95 18.65 -1.15" fill="#999999" fill-rule="evenodd" stroke="none"/>
    <path d="M11.55 -10.5 Q18.05 -9.8 17.4 -3.3 25.9 1.3 23.15 10.1 19.9 20.7 9.75 25.5 -1.2 30.75 -11.65 25.55 -12.95 24.9 -13.85 23.7 -22.9 12.55 -18.9 -1.5 L-18.3 -1.65 Q-10.15 -14.65 5.15 -12.5 L10.25 -10.05 11.1 -10.1 11.55 -10.5 M18.65 -1.15 Q13.4 -3.95 10.75 -8.55 9.6 -5.1 13.15 -2.3 15.6 -0.45 18.65 -1.15 M4.45 -13.7 Q-10.85 -16.1 -19.4 -2.95 L-23.8 -6.4 -24.1 -8.05 Q-24.1 -18.4 -15.0 -24.3 -5.15 -30.65 5.3 -25.65 14.55 -21.1 10.55 -11.95 7.55 -13.15 4.45 -13.7 M2.15 14.2 Q-1.15 9.4 -2.4 3.9 L5.55 13.05 2.15 14.2 M6.95 13.0 Q-3.0 6.05 -4.15 -5.5 -4.9 5.85 1.95 15.2 L6.95 13.0 M-5.55 18.25 L-13.05 9.35 Q-14.6 7.0 -14.8 4.0 L-14.95 -0.1 Q-17.15 10.65 -11.05 20.2 L-5.55 18.25 M-14.35 9.4 Q-11.65 14.5 -6.8 17.65 L-10.7 19.05 Q-12.85 15.85 -13.8 11.95 L-14.35 9.4" fill="#ffffff" fill-rule="evenodd" stroke="none"/>
  </g>
</svg>
