<?xml version="1.0" encoding="UTF-8" standalone="no"?>
<svg xmlns:xlink="http://www.w3.org/1999/xlink" height="59.45px" width="17.45px" xmlns="http://www.w3.org/2000/svg">
  <g transform="matrix(1.0, 0.0, 0.0, 1.0, 8.7, 29.65)">
    <path d="M8.5 -24.8 L8.65 -19.05 8.15 -19.05 Q5.8 -2.3 8.0 14.4 L8.5 17.8 Q9.55 23.3 6.4 28.1 4.7 30.7 1.85 29.35 -1.75 27.45 -3.6 23.8 L-3.35 24.8 Q-6.8 17.55 -7.6 9.55 -8.75 -1.7 -8.7 -13.05 L-8.35 -23.85 Q-8.2 -25.95 -6.4 -27.35 -3.2 -29.75 0.7 -29.65 5.15 -29.25 8.2 -26.0 L8.5 -24.8 M0.25 25.65 L3.35 28.3 4.9 28.25 5.6 26.65 Q8.1 20.65 5.95 14.45 5.45 9.3 5.3 4.1 5.1 -3.35 5.65 -10.7 L5.8 -13.05 Q5.9 -14.45 6.35 -15.7 10.8 -28.0 -1.9 -28.3 L-5.4 -27.0 -7.25 -24.1 -6.9 -6.15 -6.4 5.05 Q-5.95 11.1 -4.65 17.0 -3.65 21.5 -0.7 25.05 L-0.55 24.55 0.25 25.65" fill="#000000" fill-rule="evenodd" stroke="none"/>
    <path d="M0.25 25.65 L-0.55 24.55 -0.7 25.05 Q-3.65 21.5 -4.65 17.0 -5.95 11.1 -6.4 5.05 L-6.9 -6.15 -7.25 -24.1 -5.4 -27.0 -1.9 -28.3 Q-3.25 -17.95 -3.1 -7.35 -3.0 2.5 0.95 11.2 L0.25 25.65" fill="#0ecfe4" fill-rule="evenodd" stroke="none"/>
    <path d="M-1.9 -28.3 Q10.8 -28.0 6.35 -15.7 5.9 -14.45 5.8 -13.05 L5.65 -10.7 Q5.1 -3.35 5.3 4.1 5.45 9.3 5.95 14.45 8.1 20.65 5.6 26.65 L4.9 28.25 3.35 28.3 0.25 25.65 0.95 11.2 Q-3.0 2.5 -3.1 -7.35 -3.25 -17.95 -1.9 -28.3" fill="#0db9cc" fill-rule="evenodd" stroke="none"/>
  </g>
</svg>
