<?xml version="1.0" encoding="UTF-8" standalone="no"?>
<svg xmlns:xlink="http://www.w3.org/1999/xlink" height="50.95px" width="18.7px" xmlns="http://www.w3.org/2000/svg">
  <g transform="matrix(1.0, 0.0, 0.0, 1.0, 9.3, 25.3)">
    <path d="M-8.8 14.4 Q-9.45 12.35 -9.25 10.05 -7.8 -6.1 -8.45 -22.25 L-7.0 -23.25 Q-0.3 -27.45 6.5 -23.1 8.75 -14.05 9.25 -4.65 9.85 6.45 7.85 17.4 7.05 21.9 3.25 24.1 -1.95 27.2 -7.3 24.05 L-9.05 19.85 Q-6.2 23.2 -2.25 23.45 2.2 24.05 4.55 20.4 6.55 17.3 6.95 13.85 8.15 3.45 7.2 -7.05 6.45 -14.95 4.75 -22.5 L-0.65 -23.35 -2.4 -23.55 -6.5 -21.45 Q-7.05 -10.75 -6.25 -0.15 -5.7 7.3 -7.95 14.55 L-8.8 14.4" fill="#000000" fill-rule="evenodd" stroke="none"/>
    <path d="M-8.8 14.4 L-7.95 14.55 Q-5.7 7.3 -6.25 -0.15 -7.05 -10.75 -6.5 -21.45 L-2.4 -23.55 -0.65 -23.35 Q1.9 -14.25 2.1 -4.6 2.25 5.1 0.95 14.7 0.25 19.85 -2.25 23.45 -6.2 23.2 -9.05 19.85 -9.65 17.15 -8.8 14.4" fill="#0ecfe4" fill-rule="evenodd" stroke="none"/>
    <path d="M-0.65 -23.35 L4.75 -22.5 Q6.45 -14.95 7.2 -7.05 8.15 3.45 6.95 13.85 6.55 17.3 4.55 20.4 2.2 24.05 -2.25 23.45 0.25 19.85 0.95 14.7 2.25 5.1 2.1 -4.6 1.9 -14.25 -0.65 -23.35" fill="#0db9cc" fill-rule="evenodd" stroke="none"/>
  </g>
</svg>
