<?xml version="1.0" encoding="UTF-8" standalone="no"?>
<svg xmlns:xlink="http://www.w3.org/1999/xlink" height="116.0px" width="114.05px" xmlns="http://www.w3.org/2000/svg">
  <g transform="matrix(1.0, 0.0, 0.0, 1.0, 54.9, 50.8)">
    <path d="M33.9 31.85 Q24.5 37.25 13.55 37.85 9.55 37.7 5.55 37.8 L-4.05 38.25 -17.4 38.9 -23.25 38.1 Q-26.8 37.1 -29.5 34.6 L-32.85 31.45 Q-37.65 27.05 -41.65 22.1 L-43.25 19.85 Q-44.5 17.75 -45.0 15.35 L-46.25 7.7 Q-51.85 4.65 -54.05 -1.5 -55.3 -5.05 -54.7 -8.7 -53.65 -15.05 -48.15 -18.6 -46.6 -19.6 -44.65 -20.15 -40.55 -21.3 -36.6 -19.55 -32.9 -17.95 -30.4 -14.85 -29.25 -13.35 -28.65 -11.65 L-24.8 -11.55 Q-22.05 -11.15 -19.7 -10.0 L-17.3 -8.7 Q-16.75 -18.55 -12.65 -27.65 -10.6 -32.1 -7.55 -36.1 -4.6 -39.85 -0.6 -42.9 8.3 -49.6 19.5 -50.55 25.75 -51.25 32.05 -49.85 36.15 -48.8 39.5 -46.55 42.9 -44.2 45.6 -41.05 L43.75 -41.15 43.7 -41.2 Q40.3 -44.45 36.2 -46.65 32.35 -48.6 27.95 -49.0 20.75 -49.8 14.05 -47.95 5.05 -45.5 -2.45 -39.7 L-1.1 -39.65 Q0.9 -38.4 1.5 -36.1 2.4 -32.55 0.9 -29.35 L0.1 -28.3 0.25 -29.3 0.0 -29.65 Q0.8 -34.4 -1.7 -38.3 L-2.75 -38.65 -2.95 -39.2 -2.8 -39.4 -3.0 -39.25 -5.35 -36.7 Q-8.0 -33.75 -9.7 -30.3 L-10.35 -29.0 -9.4 -30.15 -7.3 -31.6 -6.35 -31.2 Q-5.2 -31.0 -4.55 -29.9 -3.6 -28.1 -3.4 -25.95 -3.0 -21.4 -4.05 -17.05 L-5.55 -11.0 -8.0 1.05 Q-8.35 3.25 -8.25 5.5 -3.85 7.8 1.15 7.8 L5.55 7.0 Q12.3 5.35 19.15 4.45 24.25 4.0 29.15 5.25 31.75 6.0 33.9 7.7 L35.5 9.2 35.45 11.25 34.7 10.7 32.5 9.1 29.7 7.45 Q24.65 5.3 19.15 6.3 L7.45 8.4 0.65 9.4 Q-3.1 9.45 -6.45 8.0 -8.75 7.1 -10.65 5.65 -12.85 4.0 -14.3 1.6 -16.55 -2.0 -16.95 -6.25 L-17.95 -7.1 Q-21.6 -10.0 -26.15 -10.15 L-30.85 -9.55 Q-34.3 -8.75 -37.05 -6.45 -41.3 -2.75 -43.05 2.9 L-44.1 7.2 Q-44.15 7.6 -44.6 7.65 -44.7 10.7 -43.95 13.65 -42.85 18.05 -40.3 21.6 -36.45 27.0 -30.5 29.95 -27.45 31.5 -24.2 32.35 L-16.55 33.8 -10.9 33.1 -6.15 32.15 Q-3.75 31.35 -1.55 30.05 2.5 27.8 6.9 26.9 L4.6 26.7 0.6 26.2 Q0.0 26.1 0.0 25.6 1.55 24.6 3.85 24.85 L8.5 25.4 Q14.45 26.5 18.95 30.45 L18.7 31.3 Q17.3 31.3 16.15 30.55 13.5 28.55 10.1 27.55 3.45 28.85 -2.45 32.3 -5.25 33.85 -8.25 34.55 L-18.35 35.25 Q-25.55 35.1 -31.5 31.3 -29.35 33.45 -26.9 35.1 -23.3 37.6 -18.9 37.55 L-3.1 36.9 Q0.95 36.55 5.0 37.0 15.55 37.45 25.45 34.15 30.3 32.65 34.15 29.7 L33.9 31.85 M51.75 -34.7 Q54.45 -32.5 55.9 -29.4 58.45 -23.85 59.0 -17.75 L59.1 -12.8 Q58.9 -6.65 57.25 -0.7 56.65 1.4 55.15 3.1 L54.55 2.9 55.05 0.05 Q57.1 -4.35 57.75 -9.0 59.2 -19.45 54.45 -28.7 L52.05 -32.95 50.95 -35.2 51.75 -34.7 M35.25 -35.7 L35.65 -33.55 Q33.9 -32.6 32.0 -32.65 L30.3 -32.75 Q33.2 -37.0 38.15 -38.4 L42.3 -39.55 Q44.9 -39.85 47.55 -39.0 L50.1 -38.05 Q53.85 -10.6 54.2 16.9 L54.35 35.35 54.15 50.45 Q54.05 53.85 53.3 57.35 52.85 59.55 51.1 61.05 49.6 62.4 47.45 63.2 L43.25 63.05 Q41.05 62.0 39.25 60.2 36.7 57.6 36.15 54.0 34.5 43.7 35.65 33.15 36.7 23.95 37.05 14.75 L37.4 5.05 Q37.65 -2.5 38.4 -10.05 L39.4 -21.55 Q39.65 -25.1 38.75 -28.6 37.9 -32.05 36.1 -35.35 L35.25 -35.7 M-50.2 -12.5 L-48.95 -11.95 -45.4 -15.1 -43.65 -16.05 Q-42.0 -16.8 -40.15 -16.8 -38.9 -16.75 -37.75 -16.05 -34.45 -13.95 -32.55 -10.35 L-31.55 -10.35 -31.05 -10.6 Q-30.75 -14.8 -34.05 -17.25 -38.15 -20.25 -43.0 -19.15 -46.55 -18.25 -49.3 -15.65 L-50.2 -12.5 M-10.65 -26.4 L-10.8 -26.2 -10.5 -26.3 Q-6.6 -25.05 -5.2 -21.0 L-4.85 -19.9 Q-3.9 -23.1 -4.7 -26.4 -5.15 -28.15 -6.3 -29.7 L-7.9 -30.0 -10.65 -26.4 M-30.55 -12.35 L-30.55 -12.5 Q-30.7 -13.2 -30.55 -12.35 M-8.45 -23.3 L-9.4 -24.1 -11.35 -24.7 -14.45 -16.4 Q-16.05 -12.05 -16.1 -7.55 L-15.7 -7.1 -16.05 -6.55 -15.45 -4.8 -15.05 -7.65 -14.7 -8.05 -14.55 -8.9 -12.95 -9.5 -14.55 -11.0 -12.2 -20.0 -11.45 -20.1 Q-9.5 -20.0 -9.1 -17.95 -9.2 -11.8 -10.75 -5.95 -11.7 -2.5 -13.2 0.7 L-9.4 4.75 -9.35 2.25 -8.7 -2.8 Q-7.3 -10.05 -5.4 -16.95 L-7.85 -22.3 -8.45 -23.3 M-36.75 11.15 Q-36.75 10.55 -36.35 10.15 -35.95 9.75 -35.35 9.75 -34.75 9.75 -34.35 10.15 -33.95 10.55 -33.95 11.15 -33.95 11.75 -34.35 12.15 -34.75 12.55 -35.35 12.55 -35.95 12.55 -36.35 12.15 -36.75 11.75 -36.75 11.15 M-36.35 1.45 L-35.75 2.35 -36.85 4.35 -38.35 4.1 -38.6 3.75 -37.7 1.25 -37.2 1.15 -36.35 1.45 M-32.3 2.1 Q-31.85 2.1 -31.55 2.4 -31.25 2.7 -31.25 3.15 -31.25 3.6 -31.55 3.9 -31.85 4.2 -32.3 4.2 -32.75 4.2 -33.05 3.9 L-33.35 3.15 -33.05 2.4 Q-32.75 2.1 -32.3 2.1 M-28.0 10.1 Q-28.0 10.6 -28.35 10.95 -28.7 11.3 -29.2 11.3 -29.7 11.3 -30.05 10.95 L-30.4 10.1 -30.05 9.25 Q-29.7 8.9 -29.2 8.9 -28.7 8.9 -28.35 9.25 -28.0 9.6 -28.0 10.1" fill="#000000" fill-rule="evenodd" stroke="none"/>
    <path d="M33.9 31.85 L34.15 29.7 35.55 18.85 35.45 11.25 35.5 9.2 Q36.0 0.0 37.15 -9.05 38.0 -15.8 37.8 -22.55 37.7 -27.25 36.4 -31.85 L35.45 -31.6 29.25 -31.8 29.2 -32.1 Q29.9 -35.65 33.05 -37.6 37.15 -40.05 41.7 -40.9 L43.65 -41.15 43.75 -41.15 45.6 -41.05 50.05 -39.45 50.45 -39.8 51.75 -34.7 50.95 -35.2 52.05 -32.95 Q53.35 -22.7 54.15 -12.3 L55.05 0.05 54.55 2.9 55.15 3.1 Q55.15 12.25 55.65 21.3 56.15 30.7 56.1 39.95 L56.05 50.85 Q56.05 55.3 54.55 59.6 L54.45 59.75 54.05 59.85 Q52.4 64.0 48.0 64.95 45.8 65.5 43.55 64.95 39.85 63.9 37.4 60.65 35.75 58.45 34.9 55.95 32.9 50.0 33.15 43.65 33.35 37.9 33.9 31.85 M35.25 -35.7 L36.1 -35.35 Q37.9 -32.05 38.75 -28.6 39.65 -25.1 39.4 -21.55 L38.4 -10.05 Q37.65 -2.5 37.4 5.05 L37.05 14.75 Q36.7 23.95 35.65 33.15 34.5 43.7 36.15 54.0 36.7 57.6 39.25 60.2 41.05 62.0 43.25 63.05 L47.45 63.2 Q49.6 62.4 51.1 61.05 52.85 59.55 53.3 57.35 54.05 53.85 54.15 50.45 L54.35 35.35 54.2 16.9 Q53.85 -10.6 50.1 -38.05 L47.55 -39.0 Q44.9 -39.85 42.3 -39.55 L38.15 -38.4 Q33.2 -37.0 30.3 -32.75 L32.0 -32.65 Q33.9 -32.6 35.65 -33.55 L35.25 -35.7 M-50.2 -12.5 L-49.3 -15.65 Q-46.55 -18.25 -43.0 -19.15 -38.15 -20.25 -34.05 -17.25 -30.75 -14.8 -31.05 -10.6 L-31.55 -10.35 -32.55 -10.35 Q-34.45 -13.95 -37.75 -16.05 -38.9 -16.75 -40.15 -16.8 -42.0 -16.8 -43.65 -16.05 L-45.4 -15.1 -48.95 -11.95 -50.2 -12.5" fill="#999999" fill-rule="evenodd" stroke="none"/>
    <path d="M35.5 9.2 L33.9 7.7 Q31.75 6.0 29.15 5.25 34.05 -4.15 35.55 -14.6 36.75 -23.1 35.45 -31.6 L36.4 -31.85 Q37.7 -27.25 37.8 -22.55 38.0 -15.8 37.15 -9.05 36.0 0.0 35.5 9.2 M0.9 -29.35 Q2.4 -32.55 1.5 -36.1 0.9 -38.4 -1.1 -39.65 L-2.45 -39.7 Q5.05 -45.5 14.05 -47.95 20.75 -49.8 27.95 -49.0 32.35 -48.6 36.2 -46.65 40.3 -44.45 43.7 -41.2 L43.65 -41.15 41.7 -40.9 Q37.15 -40.05 33.05 -37.6 31.75 -41.65 27.35 -42.55 21.8 -43.65 16.85 -40.6 L15.75 -39.5 Q13.6 -36.4 11.85 -33.05 10.25 -30.1 8.9 -26.95 L6.7 -22.3 4.6 -19.05 4.15 -18.5 2.5 -18.55 Q0.7 -19.4 0.7 -21.35 L0.75 -25.75 0.9 -29.35 M52.05 -32.95 L54.45 -28.7 Q59.2 -19.45 57.75 -9.0 57.1 -4.35 55.05 0.05 L54.15 -12.3 Q53.35 -22.7 52.05 -32.95 M-10.5 -26.3 L-10.65 -26.4 -7.9 -30.0 -6.3 -29.7 Q-5.15 -28.15 -4.7 -26.4 -3.9 -23.1 -4.85 -19.9 L-5.2 -21.0 Q-6.6 -25.05 -10.5 -26.3" fill="#0db5c8" fill-rule="evenodd" stroke="none"/>
    <path d="M29.15 5.25 Q24.25 4.0 19.15 4.45 12.3 5.35 5.55 7.0 L1.15 7.8 Q-3.85 7.8 -8.25 5.5 -8.35 3.25 -8.0 1.05 L-5.55 -11.0 -4.05 -17.05 Q-3.0 -21.4 -3.4 -25.95 -3.6 -28.1 -4.55 -29.9 -5.2 -31.0 -6.35 -31.2 L-7.3 -31.6 -9.4 -30.15 -9.7 -30.3 Q-8.0 -33.75 -5.35 -36.7 L-3.0 -39.25 -2.95 -39.2 -2.75 -38.65 -1.7 -38.3 Q0.8 -34.4 0.0 -29.65 L0.25 -29.3 0.1 -28.3 0.9 -29.35 0.75 -25.75 0.7 -21.35 Q0.7 -19.4 2.5 -18.55 L4.15 -18.5 4.6 -19.05 6.7 -22.3 8.9 -26.95 Q10.25 -30.1 11.85 -33.05 13.6 -36.4 15.75 -39.5 L16.85 -40.6 Q21.8 -43.65 27.35 -42.55 31.75 -41.65 33.05 -37.6 29.9 -35.65 29.2 -32.1 L29.25 -31.8 35.45 -31.6 Q36.75 -23.1 35.55 -14.6 34.05 -4.15 29.15 5.25" fill="#0ecfe4" fill-rule="evenodd" stroke="none"/>
    <path d="M-26.15 -10.15 Q-21.6 -10.0 -17.95 -7.1 L-16.95 -6.25 Q-16.55 -2.0 -14.3 1.6 -12.85 4.0 -10.65 5.65 -8.75 7.1 -6.45 8.0 -3.1 9.45 0.65 9.4 L7.45 8.4 19.15 6.3 Q24.65 5.3 29.7 7.45 L32.5 9.1 34.7 10.7 35.45 11.25 35.55 18.85 Q31.75 15.15 26.45 13.8 20.25 12.25 14.05 12.65 L3.15 13.65 -7.05 13.95 -12.55 12.95 Q-15.95 12.05 -18.35 9.55 -23.1 4.5 -25.25 -1.95 -26.6 -5.9 -26.15 -10.15" fill="#c19f79" fill-rule="evenodd" stroke="none"/>
    <path d="M34.15 29.7 Q30.3 32.65 25.45 34.15 15.55 37.45 5.0 37.0 0.95 36.55 -3.1 36.9 L-18.9 37.55 Q-23.3 37.6 -26.9 35.1 -29.35 33.45 -31.5 31.3 -25.55 35.1 -18.35 35.25 L-8.25 34.55 Q-5.25 33.85 -2.45 32.3 3.45 28.85 10.1 27.55 13.5 28.55 16.15 30.55 17.3 31.3 18.7 31.3 L18.95 30.45 Q14.45 26.5 8.5 25.4 L3.85 24.85 Q1.55 24.6 0.0 25.6 0.0 26.1 0.6 26.2 L4.6 26.7 6.9 26.9 Q2.5 27.8 -1.55 30.05 -3.75 31.35 -6.15 32.15 L-10.9 33.1 -16.55 33.8 -24.2 32.35 Q-27.45 31.5 -30.5 29.95 -36.45 27.0 -40.3 21.6 -42.85 18.05 -43.95 13.65 -44.7 10.7 -44.6 7.65 -44.15 7.6 -44.1 7.2 L-43.05 2.9 Q-41.3 -2.75 -37.05 -6.45 -34.3 -8.75 -30.85 -9.55 L-26.15 -10.15 Q-26.6 -5.9 -25.25 -1.95 -23.1 4.5 -18.35 9.55 -15.95 12.05 -12.55 12.95 L-7.05 13.95 3.15 13.65 14.05 12.65 Q20.25 12.25 26.45 13.8 31.75 15.15 35.55 18.85 L34.15 29.7 M-28.0 10.1 Q-28.0 9.6 -28.35 9.25 -28.7 8.9 -29.2 8.9 -29.7 8.9 -30.05 9.25 L-30.4 10.1 -30.05 10.95 Q-29.7 11.3 -29.2 11.3 -28.7 11.3 -28.35 10.95 -28.0 10.6 -28.0 10.1 M-32.3 2.1 Q-32.75 2.1 -33.05 2.4 L-33.35 3.15 -33.05 3.9 Q-32.75 4.2 -32.3 4.2 -31.85 4.2 -31.55 3.9 -31.25 3.6 -31.25 3.15 -31.25 2.7 -31.55 2.4 -31.85 2.1 -32.3 2.1 M-36.35 1.45 L-37.2 1.15 -37.7 1.25 -38.6 3.75 -38.35 4.1 -36.85 4.35 -35.75 2.35 -36.35 1.45 M-36.75 11.15 Q-36.75 11.75 -36.35 12.15 -35.95 12.55 -35.35 12.55 -34.75 12.55 -34.35 12.15 -33.95 11.75 -33.95 11.15 -33.95 10.55 -34.35 10.15 -34.75 9.75 -35.35 9.75 -35.95 9.75 -36.35 10.15 -36.75 10.55 -36.75 11.15" fill="#a88b69" fill-rule="evenodd" stroke="none"/>
    <path d="M-8.45 -23.3 L-7.85 -22.3 -5.4 -16.95 Q-7.3 -10.05 -8.7 -2.8 L-9.35 2.25 -9.4 4.75 -13.2 0.7 Q-11.7 -2.5 -10.75 -5.95 -9.2 -11.8 -9.1 -17.95 -9.5 -20.0 -11.45 -20.1 L-12.2 -20.0 -14.55 -11.0 -12.95 -9.5 -14.55 -8.9 -14.7 -8.05 -15.05 -7.65 -15.45 -4.8 -16.05 -6.55 -15.7 -7.1 -16.1 -7.55 Q-16.05 -12.05 -14.45 -16.4 L-11.35 -24.7 -9.4 -24.1 -8.45 -23.3" fill="#ffffff" fill-rule="evenodd" stroke="none"/>
  </g>
</svg>
