<?xml version="1.0" encoding="UTF-8" standalone="no"?>
<svg xmlns:xlink="http://www.w3.org/1999/xlink" height="59.15px" width="47.65px" xmlns="http://www.w3.org/2000/svg">
  <g transform="matrix(1.0, 0.0, 0.0, 1.0, 18.0, 62.65)">
    <path d="M8.55 -51.1 Q7.95 -56.7 4.7 -61.45 L1.9 -61.65 Q0.5 -60.95 -0.1 -59.65 -3.0 -52.95 -1.7 -45.25 -2.0 -42.45 -2.95 -39.8 -4.6 -35.0 -6.9 -30.6 -9.7 -25.35 -13.05 -20.45 -16.2 -15.85 -16.6 -10.5 L-16.35 -10.35 Q-12.15 -7.35 -7.25 -6.25 L-7.2 -6.45 Q-8.1 -9.25 -8.55 -12.15 -9.3 -16.7 -7.7 -21.1 L-6.25 -24.15 Q-5.15 -26.1 -4.2 -28.15 L-3.25 -29.95 Q-1.95 -32.05 -1.1 -34.4 L0.5 -39.2 1.0 -41.05 1.4 -43.05 Q1.75 -44.95 1.6 -46.9 L1.6 -48.6 Q1.6 -49.8 1.2 -50.8 L1.45 -50.4 1.7 -50.3 Q2.7 -49.85 3.85 -49.65 L4.6 -49.65 5.75 -49.75 Q7.45 -49.9 8.55 -51.1" fill="#0db5c8" fill-rule="evenodd" stroke="none"/>
    <path d="M-7.25 -6.25 Q-12.15 -7.35 -16.35 -10.35 L-16.6 -10.5 Q-16.2 -15.85 -13.05 -20.45 -9.7 -25.35 -6.9 -30.6 -4.6 -35.0 -2.95 -39.8 -2.0 -42.45 -1.7 -45.25 -3.0 -52.95 -0.1 -59.65 0.5 -60.95 1.9 -61.65 L4.7 -61.45 Q7.95 -56.7 8.55 -51.1 8.8 -48.3 8.45 -45.25 8.4 -41.5 7.9 -37.85 7.15 -32.45 5.25 -27.35 L3.8 -24.05 Q1.55 -23.45 -0.6 -22.4 -3.85 -20.8 -5.95 -18.05 L-0.9 -21.15 Q1.0 -22.2 2.95 -22.8 3.65 -23.3 4.6 -23.45 L4.8 -23.4 5.05 -23.3 Q7.9 -23.8 10.95 -23.35 15.5 -22.65 19.75 -20.8 23.1 -19.35 25.55 -16.8 L28.4 -13.1 Q25.9 -10.4 22.7 -8.65 22.3 -10.95 20.5 -12.75 L19.15 -14.1 Q15.25 -17.75 10.0 -18.55 9.1 -18.25 8.3 -17.75 L8.3 -17.65 9.6 -17.6 9.9 -17.65 Q14.9 -16.3 18.55 -12.7 20.55 -10.75 21.85 -8.35 L22.1 -8.35 21.9 -8.25 20.2 -7.5 Q15.4 -5.55 10.2 -5.0 4.75 -4.4 -0.65 -5.15 L-2.3 -5.45 -2.45 -5.6 -2.6 -5.7 -7.1 -6.25 -7.25 -6.25 M-16.15 -8.8 L-14.1 -7.4 Q-10.4 -5.8 -6.55 -4.75 L-2.2 -3.85 0.9 -3.55 10.7 -3.6 12.65 -3.85 14.05 -4.1 Q19.55 -4.95 24.25 -7.9 27.05 -9.7 28.85 -12.35 L28.9 -12.3 29.4 -13.45 29.65 -14.0 Q29.15 -15.35 28.1 -16.55 L25.1 -19.35 Q22.5 -21.35 19.4 -22.55 16.15 -23.75 12.7 -24.35 L10.75 -24.6 9.8 -24.8 5.45 -24.45 Q7.15 -27.15 7.9 -30.35 9.2 -35.7 9.6 -41.15 L9.7 -45.25 Q10.55 -53.9 6.6 -60.9 5.65 -62.6 3.7 -62.65 -2.0 -62.95 -2.5 -56.7 L-3.25 -45.25 -3.85 -41.9 -4.6 -39.3 Q-6.4 -34.15 -9.15 -29.5 L-14.85 -20.15 Q-17.8 -15.5 -18.0 -10.05 L-17.2 -9.55 -16.2 -8.8 -16.15 -8.8" fill="#000000" fill-rule="evenodd" stroke="none"/>
    <path d="M8.55 -51.1 Q7.45 -49.9 5.75 -49.75 L4.6 -49.65 3.85 -49.65 Q2.7 -49.85 1.7 -50.3 L1.45 -50.4 1.2 -50.8 Q1.6 -49.8 1.6 -48.6 L1.6 -46.9 Q1.75 -44.95 1.4 -43.05 L1.0 -41.05 0.5 -39.2 -1.1 -34.4 Q-1.95 -32.05 -3.25 -29.95 L-4.2 -28.15 Q-5.15 -26.1 -6.25 -24.15 L-7.7 -21.1 Q-9.3 -16.7 -8.55 -12.15 -8.1 -9.25 -7.2 -6.45 L-7.25 -6.25 -7.1 -6.25 -2.6 -5.7 -2.45 -5.6 -2.3 -5.45 -0.65 -5.15 Q4.75 -4.4 10.2 -5.0 15.4 -5.55 20.2 -7.5 L21.9 -8.25 21.85 -8.35 Q20.55 -10.75 18.55 -12.7 14.9 -16.3 9.9 -17.65 L9.6 -17.6 8.3 -17.65 8.3 -17.75 Q9.1 -18.25 10.0 -18.55 15.25 -17.75 19.15 -14.1 L20.5 -12.75 Q22.3 -10.95 22.7 -8.65 25.9 -10.4 28.4 -13.1 L25.55 -16.8 Q23.1 -19.35 19.75 -20.8 15.5 -22.65 10.95 -23.35 7.9 -23.8 5.05 -23.3 L4.8 -23.4 4.6 -23.45 Q3.65 -23.3 2.95 -22.8 1.0 -22.2 -0.9 -21.15 L-5.95 -18.05 Q-3.85 -20.8 -0.6 -22.4 1.55 -23.45 3.8 -24.05 L5.25 -27.35 Q7.15 -32.45 7.9 -37.85 8.4 -41.5 8.45 -45.25 8.8 -48.3 8.55 -51.1" fill="#0ecfe4" fill-rule="evenodd" stroke="none"/>
  </g>
</svg>
