<?xml version="1.0" encoding="UTF-8" standalone="no"?>
<svg xmlns:xlink="http://www.w3.org/1999/xlink" height="41.75px" width="46.4px" xmlns="http://www.w3.org/2000/svg">
  <g transform="matrix(1.0, 0.0, 0.0, 1.0, 23.0, 20.7)">
    <path d="M8.2 -20.5 Q19.35 -19.85 22.8 -9.6 25.4 -0.1 16.75 5.3 L16.55 6.95 Q15.4 15.95 7.05 19.5 -4.8 24.4 -11.95 14.0 L-14.2 13.3 Q-25.15 9.05 -22.45 -2.7 L-17.0 -3.45 Q-18.9 -4.45 -18.85 -6.45 -18.85 -7.7 -19.95 -8.45 -16.55 -13.0 -12.05 -15.9 -7.75 -18.7 -2.1 -16.45 L-2.0 -17.25 Q0.85 -19.45 4.5 -20.45 6.35 -20.9 8.2 -20.5 M-0.85 5.4 L-0.6 4.3 -0.1 3.85 2.35 -6.4 2.9 -6.5 6.9 -2.35 Q5.1 5.1 -1.15 9.45 L-2.55 8.75 -2.05 7.25 -0.85 5.4 M0.8 5.2 Q1.75 5.35 3.4 2.6 5.35 -0.65 3.4 -4.0 L3.3 -1.25 1.8 2.6 0.8 5.2 M4.15 -18.5 L-0.7 -16.25 0.95 -15.8 Q14.25 -11.4 16.9 2.9 22.45 -1.55 20.5 -8.3 16.8 -20.9 4.15 -18.5 M-10.1 14.25 Q-0.45 22.7 9.3 14.9 16.2 9.3 13.3 0.8 L13.75 0.5 Q8.55 -14.45 -7.4 -15.6 -15.1 -15.55 -18.05 -8.25 L-15.05 -3.65 -12.95 -10.8 Q-10.35 -5.8 -14.6 -2.1 -16.2 -0.7 -18.3 -1.3 L-20.75 -1.8 Q-21.75 9.7 -10.0 11.6 -7.6 11.8 -5.3 11.0 L-4.7 11.7 -5.55 12.8 Q-6.4 13.85 -7.7 14.2 L-9.95 14.1 -10.2 14.15 -10.1 14.25 M4.5 15.6 L3.85 15.0 Q5.55 8.05 9.75 2.15 10.35 2.6 10.6 3.2 14.35 11.85 4.5 15.6 M10.0 4.25 L7.05 11.8 11.1 5.9 10.0 4.25" fill="#999999" fill-rule="evenodd" stroke="none"/>
    <path d="M-2.05 7.25 L-2.55 8.75 -1.15 9.45 Q5.1 5.1 6.9 -2.35 L2.9 -6.5 2.35 -6.4 -0.1 3.85 -0.6 4.3 -0.85 5.4 Q-1.35 5.4 -1.7 5.95 -2.05 6.5 -2.05 7.25 M1.8 2.6 L3.3 -1.25 3.4 -4.0 Q5.35 -0.65 3.4 2.6 1.75 5.35 0.8 5.2 L3.45 0.55 1.8 2.6 M-9.95 14.1 L-7.7 14.2 Q-6.4 13.85 -5.55 12.8 L-4.7 11.7 -5.3 11.0 Q-7.6 11.8 -10.0 11.6 -21.75 9.7 -20.75 -1.8 L-18.3 -1.3 Q-16.2 -0.7 -14.6 -2.1 -10.35 -5.8 -12.95 -10.8 L-15.05 -3.65 -18.05 -8.25 Q-15.1 -15.55 -7.4 -15.6 8.55 -14.45 13.75 0.5 L13.3 0.8 Q16.2 9.3 9.3 14.9 -0.45 22.7 -10.1 14.25 L-9.95 14.1 M4.15 -18.5 Q16.8 -20.9 20.5 -8.3 22.45 -1.55 16.9 2.9 14.25 -11.4 0.95 -15.8 L-0.7 -16.25 4.15 -18.5 M9.05 7.6 L9.7 6.25 9.5 5.8 9.05 7.6 M10.0 4.25 L11.1 5.9 7.05 11.8 10.0 4.25 M4.5 15.6 Q14.35 11.85 10.6 3.2 10.35 2.6 9.75 2.15 5.55 8.05 3.85 15.0 L4.5 15.6" fill="#ffffff" fill-rule="evenodd" stroke="none"/>
  </g>
</svg>
