<?xml version="1.0" encoding="UTF-8" standalone="no"?>
<svg xmlns:xlink="http://www.w3.org/1999/xlink" height="21.95px" width="36.55px" xmlns="http://www.w3.org/2000/svg">
  <g transform="matrix(1.0, 0.0, 0.0, 1.0, 54.75, 85.35)">
    <path d="M-47.1 -80.9 L-47.8 -81.35 -51.2 -80.3 Q-53.55 -79.35 -54.75 -77.2 -54.25 -75.95 -54.35 -74.7 L-54.15 -74.7 -53.55 -76.0 -51.7 -78.25 Q-49.55 -80.1 -47.1 -80.9 M-53.7 -73.6 Q-54.0 -72.75 -53.55 -72.2 -53.55 -70.6 -52.5 -69.3 -50.65 -66.95 -47.5 -67.65 L-46.45 -68.0 -41.35 -70.0 -40.5 -70.15 -40.6 -70.2 -38.9 -70.55 -38.7 -70.45 -35.7 -70.55 Q-33.5 -71.1 -31.6 -72.3 L-31.35 -72.55 -30.25 -73.35 -30.2 -73.35 -30.15 -73.3 -30.15 -73.25 -30.55 -72.75 -31.1 -72.25 -32.0 -71.5 -33.25 -70.75 -34.7 -70.15 Q-35.85 -69.75 -36.95 -69.7 L-36.9 -69.6 Q-35.95 -68.85 -34.9 -68.25 -31.65 -67.05 -28.7 -68.75 L-28.4 -68.6 -28.15 -68.85 -28.1 -68.8 -28.1 -68.65 -28.1 -68.55 -28.15 -68.4 -28.25 -68.3 -28.25 -68.2 -28.25 -68.05 -28.5 -67.85 Q-26.9 -66.0 -24.65 -64.9 -21.7 -63.4 -19.85 -66.0 -18.7 -67.55 -19.45 -69.0 L-19.7 -69.15 -19.9 -69.15 -21.15 -69.3 -21.55 -69.3 -23.45 -69.5 -25.15 -70.0 -25.95 -70.8 -26.35 -71.15 Q-27.35 -72.3 -27.95 -73.7 L-29.25 -75.55 Q-30.85 -77.2 -32.95 -78.15 -35.0 -79.1 -37.25 -79.35 L-39.35 -79.05 -40.05 -79.1 -40.35 -79.2 Q-45.65 -81.35 -50.3 -78.0 -51.95 -76.8 -52.8 -75.15 -53.35 -74.7 -53.7 -73.6 M-24.0 -81.0 L-25.3 -82.25 Q-28.5 -84.55 -32.35 -84.0 -36.3 -83.4 -38.6 -80.15 L-37.35 -80.2 -33.65 -79.35 Q-30.8 -78.25 -28.7 -76.05 -27.8 -75.1 -27.2 -73.9 L-26.3 -72.45 -26.3 -72.4 -25.75 -72.4 -25.2 -72.45 Q-22.0 -73.05 -21.6 -76.15 L-21.55 -76.2 -21.55 -76.4 Q-22.25 -78.9 -24.0 -81.0" fill="#ffffff" fill-rule="evenodd" stroke="none"/>
    <path d="M-47.1 -80.9 Q-49.55 -80.1 -51.7 -78.25 L-53.55 -76.0 -54.15 -74.7 -54.35 -74.7 -54.55 -73.5 -54.45 -73.5 Q-55.05 -70.45 -52.65 -67.85 -51.55 -66.65 -49.95 -66.5 -47.05 -66.2 -44.7 -67.65 -42.05 -69.35 -38.9 -69.15 L-38.75 -69.15 -38.05 -68.7 Q-36.95 -67.15 -34.95 -66.7 L-34.8 -66.65 Q-31.55 -65.7 -29.1 -67.4 -28.25 -65.65 -26.35 -64.5 -25.1 -63.8 -23.7 -63.5 -20.3 -62.9 -18.7 -65.8 -17.55 -67.95 -18.95 -69.65 L-19.8 -70.25 -21.15 -70.1 -21.9 -70.15 -23.65 -70.45 -25.3 -71.05 -25.45 -71.15 -25.4 -71.4 -25.3 -71.55 -25.05 -71.7 -24.5 -71.85 Q-23.6 -71.9 -22.9 -72.45 L-22.3 -72.95 Q-21.65 -73.6 -21.3 -74.45 L-20.85 -76.15 -20.85 -76.9 -20.75 -77.3 Q-21.9 -81.4 -25.6 -83.8 -26.95 -84.65 -28.5 -85.0 L-30.3 -85.35 Q-35.6 -85.4 -39.0 -81.5 L-39.3 -81.1 -39.4 -80.85 -39.6 -80.95 Q-40.05 -80.5 -41.0 -80.75 L-46.65 -80.9 -47.1 -80.9 M-53.7 -73.6 Q-53.35 -74.7 -52.8 -75.15 -51.95 -76.8 -50.3 -78.0 -45.65 -81.35 -40.35 -79.2 L-40.05 -79.1 -39.35 -79.05 -37.25 -79.35 Q-35.0 -79.1 -32.95 -78.15 -30.85 -77.2 -29.25 -75.55 L-27.95 -73.7 Q-27.35 -72.3 -26.35 -71.15 L-25.95 -70.8 -25.15 -70.0 -23.45 -69.5 -21.55 -69.3 -21.15 -69.3 -19.9 -69.15 -19.7 -69.15 -19.45 -69.0 Q-18.7 -67.55 -19.85 -66.0 -21.7 -63.4 -24.65 -64.9 -26.9 -66.0 -28.5 -67.85 L-28.25 -68.05 -28.25 -68.2 -28.25 -68.3 -28.15 -68.4 -28.1 -68.55 -28.1 -68.65 -28.1 -68.8 -28.15 -68.85 -28.4 -68.6 -28.7 -68.75 Q-31.65 -67.05 -34.9 -68.25 -35.95 -68.85 -36.9 -69.6 L-36.95 -69.7 Q-35.85 -69.75 -34.7 -70.15 L-33.25 -70.75 -32.0 -71.5 -31.1 -72.25 -30.55 -72.75 -30.15 -73.25 -30.15 -73.3 -30.2 -73.35 -30.25 -73.35 -31.35 -72.55 -31.6 -72.3 Q-33.5 -71.1 -35.7 -70.55 L-38.7 -70.45 -38.9 -70.55 -40.6 -70.2 -40.5 -70.15 -41.35 -70.0 -46.45 -68.0 -47.5 -67.65 Q-50.65 -66.95 -52.5 -69.3 -53.55 -70.6 -53.55 -72.2 -54.0 -72.75 -53.7 -73.6 M-24.0 -81.0 Q-22.25 -78.9 -21.55 -76.4 L-21.55 -76.2 -21.6 -76.15 Q-22.0 -73.05 -25.2 -72.45 L-25.75 -72.4 -26.3 -72.4 -26.3 -72.45 -27.2 -73.9 Q-27.8 -75.1 -28.7 -76.05 -30.8 -78.25 -33.65 -79.35 L-37.35 -80.2 -38.6 -80.15 Q-36.3 -83.4 -32.35 -84.0 -28.5 -84.55 -25.3 -82.25 L-24.0 -81.0" fill="#999999" fill-rule="evenodd" stroke="none"/>
  </g>
</svg>
