<?xml version="1.0" encoding="UTF-8" standalone="no"?>
<svg xmlns:xlink="http://www.w3.org/1999/xlink" height="119.15px" width="116.1px" xmlns="http://www.w3.org/2000/svg">
  <g transform="matrix(1.0, 0.0, 0.0, 1.0, 58.05, 59.5)">
    <path d="M-22.0 -39.35 L-21.2 -40.5 Q-19.6 -42.65 -17.35 -44.1 -15.1 -45.45 -12.55 -46.2 -11.0 -45.7 -9.85 -44.55 -7.85 -42.45 -6.75 -39.95 -5.85 -37.75 -5.8 -35.5 L-5.3 -34.85 -5.2 -33.75 Q-3.65 -38.1 -5.45 -42.55 -6.5 -45.1 -8.75 -46.75 -10.45 -48.0 -12.35 -48.0 -5.65 -55.45 4.15 -57.0 L10.45 -57.5 17.55 -57.05 Q23.25 -55.9 27.7 -52.35 29.35 -51.0 30.85 -49.45 34.3 -45.9 37.0 -41.7 L33.95 -41.35 Q30.15 -40.95 26.7 -39.35 24.85 -44.0 21.05 -47.45 16.75 -51.3 10.95 -51.55 L5.25 -51.25 Q2.5 -50.55 0.65 -48.5 -0.5 -47.25 -1.1 -45.65 -2.0 -43.05 -1.85 -40.45 -1.7 -37.45 -2.0 -34.45 -2.3 -30.95 -3.75 -27.75 -4.4 -27.15 -5.25 -27.3 -6.7 -27.65 -7.2 -29.05 L-8.6 -34.05 Q-9.3 -37.0 -11.3 -39.15 -12.6 -40.5 -14.35 -41.05 L-17.6 -41.4 Q-19.9 -40.85 -22.0 -39.35 M23.05 -28.0 L28.15 -29.55 Q30.0 -21.25 31.05 -13.0 32.2 -4.4 32.45 4.4 L31.85 3.65 Q28.85 0.0 24.5 -1.85 20.3 -3.65 15.85 -3.3 10.6 -2.75 5.6 -1.05 L-4.4 2.2 -0.7 -0.25 Q2.8 -2.65 6.55 -4.65 12.55 -7.75 19.25 -8.25 22.25 -8.2 24.8 -7.1 26.0 -13.8 25.3 -20.5 24.85 -24.45 23.05 -28.0 M-19.15 -31.85 Q-16.15 -34.35 -12.2 -34.3 L-11.85 -25.3 Q-16.4 -28.25 -21.9 -29.15 L-19.15 -31.85" fill="#0db5c8" fill-rule="evenodd" stroke="none"/>
    <path d="M26.7 -39.35 Q30.15 -40.95 33.95 -41.35 L37.0 -41.7 Q34.3 -45.9 30.85 -49.45 29.35 -51.0 27.7 -52.35 23.25 -55.9 17.55 -57.05 L10.45 -57.5 4.15 -57.0 Q-5.65 -55.45 -12.35 -48.0 -10.45 -48.0 -8.75 -46.75 -6.5 -45.1 -5.45 -42.55 -3.65 -38.1 -5.2 -33.75 L-5.3 -34.85 -5.8 -35.5 Q-5.85 -37.75 -6.75 -39.95 -7.85 -42.45 -9.85 -44.55 -11.0 -45.7 -12.55 -46.2 -15.1 -45.45 -17.35 -44.1 -19.6 -42.65 -21.2 -40.5 L-22.0 -39.35 Q-26.75 -29.1 -27.85 -17.8 -27.3 -20.75 -26.15 -23.3 L-23.8 -28.15 -25.3 -28.65 -24.9 -29.05 -23.2 -29.25 Q-20.6 -34.65 -14.75 -35.8 -11.45 -36.6 -10.1 -33.55 -9.8 -32.85 -9.8 -32.05 -9.75 -29.4 -9.95 -26.75 -10.35 -20.65 -10.2 -14.55 -9.95 -5.4 -9.0 3.6 L-4.4 2.2 5.6 -1.05 Q10.6 -2.75 15.85 -3.3 20.3 -3.65 24.5 -1.85 28.85 0.0 31.85 3.65 L32.45 4.4 Q32.2 -4.4 31.05 -13.0 30.0 -21.25 28.15 -29.55 L23.05 -28.0 20.05 -26.2 19.3 -27.05 Q19.9 -31.95 22.8 -36.1 24.3 -38.25 26.7 -39.35 M4.6 -59.4 Q10.25 -59.75 15.85 -59.1 L20.5 -58.1 Q22.85 -57.55 25.05 -56.6 27.35 -55.5 29.4 -53.9 31.4 -52.35 33.1 -50.45 36.7 -46.35 38.9 -41.55 L40.6 -41.35 45.4 -39.95 46.65 -39.2 46.5 -38.7 Q49.5 -29.55 50.9 -19.9 L54.65 8.0 56.8 24.65 Q58.35 36.3 58.0 47.95 57.9 51.3 56.3 54.3 55.2 56.45 53.1 57.85 50.7 59.5 47.75 59.65 44.85 59.65 42.3 58.25 40.0 57.0 38.45 55.4 33.0 49.8 33.0 41.95 L32.8 24.65 Q32.25 25.85 31.2 26.85 L29.3 28.5 Q27.25 30.4 24.85 31.65 18.6 35.0 11.75 34.15 L9.25 36.2 Q7.15 38.2 5.35 40.5 2.9 43.7 -0.1 46.25 -2.25 47.95 -5.0 48.85 -7.85 49.7 -10.7 48.9 -12.05 48.55 -13.1 47.55 -14.05 46.7 -14.1 45.55 -14.2 43.35 -13.9 41.2 L-13.0 37.15 -12.15 33.55 Q-11.9 31.75 -12.7 30.05 L-18.4 30.3 -24.75 30.0 Q-32.6 28.9 -38.45 23.35 -44.2 17.8 -45.6 9.9 -49.25 9.5 -52.05 7.1 L-53.75 5.25 Q-55.25 3.25 -56.25 1.05 -57.3 -1.15 -57.8 -3.55 -58.15 -5.05 -58.0 -6.5 -57.7 -10.3 -55.65 -13.5 -53.0 -17.5 -48.25 -18.2 -45.1 -18.55 -42.05 -17.6 -36.5 -15.7 -33.2 -10.65 -31.65 -8.25 -31.75 -5.5 L-28.25 -4.55 -28.65 -8.35 Q-29.75 -18.25 -27.5 -27.85 -26.6 -31.8 -25.1 -35.6 -23.55 -39.6 -21.0 -42.9 -19.55 -44.65 -17.9 -45.7 L-15.65 -47.25 Q-13.75 -48.75 -12.05 -50.5 -8.35 -54.15 -3.7 -56.7 0.2 -58.75 4.6 -59.4 M-49.45 -14.2 Q-44.65 -15.7 -40.6 -12.8 -37.4 -10.5 -36.9 -6.65 L-36.25 -6.05 -35.15 -6.1 Q-34.35 -6.75 -34.5 -7.75 -34.9 -10.55 -36.8 -12.7 -39.1 -15.35 -42.45 -16.45 -47.8 -18.0 -52.45 -14.85 -53.75 -13.95 -54.55 -12.5 L-55.45 -10.45 -55.15 -8.55 -52.45 -11.45 -49.7 -14.0 -49.45 -14.2 M-19.15 -31.85 L-21.9 -29.15 Q-16.4 -28.25 -11.85 -25.3 L-12.2 -34.3 Q-16.15 -34.35 -19.15 -31.85 M-24.25 -21.85 Q-22.9 -23.95 -20.5 -23.7 -18.6 -22.35 -18.3 -20.05 -16.85 -8.15 -16.15 3.8 -13.4 4.7 -10.6 3.8 -11.9 -9.8 -11.9 -23.55 L-22.75 -27.8 Q-27.9 -17.3 -27.55 -5.45 -27.5 -4.45 -26.9 -3.65 L-26.95 -8.5 -24.2 -11.6 -26.9 -13.1 Q-26.65 -16.35 -25.5 -19.25 L-24.25 -21.85 M32.75 12.65 L32.6 7.45 Q31.7 6.95 31.1 6.05 L30.15 4.8 Q28.45 3.1 26.45 1.9 20.85 -1.5 14.4 -1.1 8.1 -0.5 2.35 2.05 L-2.6 3.95 Q-7.3 5.8 -12.35 5.9 -16.0 5.95 -18.75 4.0 L-27.2 -2.2 Q-28.75 -3.45 -30.55 -3.95 L-32.05 -4.0 Q-35.0 -4.6 -38.0 -3.05 -42.45 0.0 -43.4 5.45 -43.95 8.7 -43.1 11.85 -42.05 16.0 -39.45 19.45 -36.8 23.05 -33.0 25.05 -27.95 27.85 -22.15 28.45 -16.15 28.9 -10.25 27.65 -3.75 26.15 1.35 21.95 4.7 19.25 6.5 15.45 L0.55 13.75 Q-0.7 13.35 -1.1 12.4 3.45 12.0 7.75 13.85 11.7 15.4 14.2 18.65 14.95 19.65 14.3 20.55 L8.3 16.7 Q5.2 25.8 0.4 34.2 -2.2 38.75 -6.6 41.6 -7.65 42.3 -8.85 42.8 -11.0 43.65 -13.45 43.95 L-12.55 46.5 -9.35 47.35 -6.0 47.25 Q-4.35 46.8 -3.15 45.95 L-1.6 44.7 5.0 37.85 Q6.5 36.0 8.35 34.65 9.6 33.6 11.25 33.1 12.3 32.75 13.4 32.55 17.6 32.15 21.5 30.9 22.9 30.45 24.2 29.7 L26.55 28.0 29.45 25.3 Q31.55 23.15 32.2 20.45 32.75 18.25 32.75 16.0 L32.75 12.65 M-34.2 11.35 Q-33.55 11.35 -33.3 12.0 L-33.25 12.15 Q-33.9 13.75 -34.9 12.3 -35.1 12.05 -34.9 11.8 -34.6 11.4 -34.2 11.35 M-38.75 11.7 L-38.4 11.2 -37.95 11.1 -37.95 11.05 Q-36.1 11.65 -37.55 12.8 L-38.15 12.85 Q-39.1 12.55 -38.75 11.7 M-37.9 6.95 L-37.45 6.55 -37.2 6.4 Q-35.45 7.35 -36.9 8.6 L-37.45 8.75 -37.95 8.3 Q-38.15 7.85 -38.0 7.4 L-37.9 6.95 M-0.4 25.7 L-2.0 26.5 Q-4.85 31.4 -3.1 36.6 2.1 29.55 4.95 21.3 2.55 23.85 -0.4 25.7 M-3.4 27.15 Q-7.0 28.8 -10.9 29.7 L-10.05 31.15 Q-10.05 34.05 -11.1 36.65 L-13.2 42.25 Q-8.6 41.55 -5.15 38.6 L-4.2 37.75 Q-5.85 34.6 -5.05 30.95 -4.6 28.8 -3.4 27.15" fill="#000000" fill-rule="evenodd" stroke="none"/>
    <path d="M26.7 -39.35 Q24.3 -38.25 22.8 -36.1 19.9 -31.95 19.3 -27.05 L20.05 -26.2 23.05 -28.0 Q24.85 -24.45 25.3 -20.5 26.0 -13.8 24.8 -7.1 22.25 -8.2 19.25 -8.25 12.55 -7.75 6.55 -4.65 2.8 -2.65 -0.7 -0.25 L-4.4 2.2 -9.0 3.6 Q-9.95 -5.4 -10.2 -14.55 -10.35 -20.65 -9.95 -26.75 -9.75 -29.4 -9.8 -32.05 -9.8 -32.85 -10.1 -33.55 -11.45 -36.6 -14.75 -35.8 -20.6 -34.65 -23.2 -29.25 L-24.9 -29.05 -25.3 -28.65 -23.8 -28.15 -26.15 -23.3 Q-27.3 -20.75 -27.85 -17.8 -26.75 -29.1 -22.0 -39.35 -19.9 -40.85 -17.6 -41.4 L-14.35 -41.05 Q-12.6 -40.5 -11.3 -39.15 -9.3 -37.0 -8.6 -34.05 L-7.2 -29.05 Q-6.7 -27.65 -5.25 -27.3 -4.4 -27.15 -3.75 -27.75 -2.3 -30.95 -2.0 -34.45 -1.7 -37.45 -1.85 -40.45 -2.0 -43.05 -1.1 -45.65 -0.5 -47.25 0.65 -48.5 2.5 -50.55 5.25 -51.25 L10.95 -51.55 Q16.75 -51.3 21.05 -47.45 24.85 -44.0 26.7 -39.35" fill="#0ecfe4" fill-rule="evenodd" stroke="none"/>
    <path d="M-38.0 -3.05 Q-35.0 -4.6 -32.05 -4.0 L-30.55 -3.95 Q-28.75 -3.45 -27.2 -2.2 L-18.75 4.0 Q-16.0 5.95 -12.35 5.9 -7.3 5.8 -2.6 3.95 L2.35 2.05 Q8.1 -0.5 14.4 -1.1 20.85 -1.5 26.45 1.9 28.45 3.1 30.15 4.8 L31.1 6.05 Q31.7 6.95 32.6 7.45 L32.75 12.65 Q29.2 7.75 23.4 5.8 20.0 4.8 16.45 4.85 7.75 5.05 -0.7 7.55 -6.95 9.4 -13.35 10.8 L-19.05 11.75 -22.0 11.45 Q-28.65 10.65 -33.45 6.0 -37.3 2.25 -38.0 -3.05" fill="#c19f79" fill-rule="evenodd" stroke="none"/>
    <path d="M32.75 12.65 L32.75 16.0 Q32.75 18.25 32.2 20.45 31.55 23.15 29.45 25.3 L26.55 28.0 24.2 29.7 Q22.9 30.45 21.5 30.9 17.6 32.15 13.4 32.55 12.3 32.75 11.25 33.1 9.6 33.6 8.35 34.65 6.5 36.0 5.0 37.85 L-1.6 44.7 -3.15 45.95 Q-4.35 46.8 -6.0 47.25 L-9.35 47.35 -12.55 46.5 -13.45 43.95 Q-11.0 43.65 -8.85 42.8 -7.65 42.3 -6.6 41.6 -2.2 38.75 0.4 34.2 5.2 25.8 8.3 16.7 L14.3 20.55 Q14.95 19.65 14.2 18.65 11.7 15.4 7.75 13.85 3.45 12.0 -1.1 12.4 -0.7 13.35 0.55 13.75 L6.5 15.45 Q4.7 19.25 1.35 21.95 -3.75 26.15 -10.25 27.65 -16.15 28.9 -22.15 28.45 -27.95 27.85 -33.0 25.05 -36.8 23.05 -39.45 19.45 -42.05 16.0 -43.1 11.85 -43.95 8.7 -43.4 5.45 -42.45 0.0 -38.0 -3.05 -37.3 2.25 -33.45 6.0 -28.65 10.65 -22.0 11.45 L-19.05 11.75 -13.35 10.8 Q-6.95 9.4 -0.7 7.55 7.75 5.05 16.45 4.85 20.0 4.8 23.4 5.8 29.2 7.75 32.75 12.65 M-37.9 6.95 L-38.0 7.4 Q-38.15 7.85 -37.95 8.3 L-37.45 8.75 -36.9 8.6 Q-35.45 7.35 -37.2 6.4 L-37.45 6.55 -37.9 6.95 M-38.75 11.7 Q-39.1 12.55 -38.15 12.85 L-37.55 12.8 Q-36.1 11.65 -37.95 11.05 L-37.95 11.1 -38.4 11.2 -38.75 11.7 M-34.2 11.35 Q-34.6 11.4 -34.9 11.8 -35.1 12.05 -34.9 12.3 -33.9 13.75 -33.25 12.15 L-33.3 12.0 Q-33.55 11.35 -34.2 11.35" fill="#a88b69" fill-rule="evenodd" stroke="none"/>
    <path d="M-0.4 25.7 Q2.55 23.85 4.95 21.3 2.1 29.55 -3.1 36.6 -4.85 31.4 -2.0 26.5 L-0.4 25.7" fill="#ff99cc" fill-rule="evenodd" stroke="none"/>
    <path d="M-49.45 -14.2 L-49.7 -14.0 -52.45 -11.45 -55.15 -8.55 -55.45 -10.45 -54.55 -12.5 Q-53.75 -13.95 -52.45 -14.85 -47.8 -18.0 -42.45 -16.45 -39.1 -15.35 -36.8 -12.7 -34.9 -10.55 -34.5 -7.75 -34.35 -6.75 -35.15 -6.1 L-36.25 -6.05 -36.9 -6.65 Q-37.4 -10.5 -40.6 -12.8 -44.65 -15.7 -49.45 -14.2" fill="#999999" fill-rule="evenodd" stroke="none"/>
    <path d="M-24.25 -21.85 L-25.5 -19.25 Q-26.65 -16.35 -26.9 -13.1 L-24.2 -11.6 -26.95 -8.5 -26.9 -3.65 Q-27.5 -4.45 -27.55 -5.45 -27.9 -17.3 -22.75 -27.8 L-11.9 -23.55 Q-11.9 -9.8 -10.6 3.8 -13.4 4.7 -16.15 3.8 -16.85 -8.15 -18.3 -20.05 -18.6 -22.35 -20.5 -23.7 -22.9 -23.95 -24.25 -21.85" fill="#ffffff" fill-rule="evenodd" stroke="none"/>
    <path d="M-3.4 27.15 Q-4.6 28.8 -5.05 30.95 -5.85 34.6 -4.2 37.75 L-5.15 38.6 Q-8.6 41.55 -13.2 42.25 L-11.1 36.65 Q-10.05 34.05 -10.05 31.15 L-10.9 29.7 Q-7.0 28.8 -3.4 27.15" fill="#cc0000" fill-rule="evenodd" stroke="none"/>
  </g>
</svg>
