<?xml version="1.0" encoding="UTF-8" standalone="no"?>
<svg xmlns:xlink="http://www.w3.org/1999/xlink" height="27.55px" width="65.55px" xmlns="http://www.w3.org/2000/svg">
  <g transform="matrix(1.0, 0.0, 0.0, 1.0, -7.1, 77.6)">
    <path d="M62.05 -52.05 L62.4 -52.7 62.45 -52.95 62.25 -53.55 Q60.65 -60.2 55.1 -64.3 L55.25 -64.5 56.15 -65.05 56.2 -65.0 56.7 -64.9 58.05 -63.5 Q63.15 -58.8 63.35 -52.05 L63.35 -52.0 Q67.1 -52.6 70.7 -54.25 L70.9 -54.45 71.2 -54.75 71.45 -55.05 71.6 -55.35 71.55 -55.6 71.45 -56.8 71.45 -57.7 71.45 -58.0 71.3 -58.3 71.1 -58.6 Q70.3 -63.75 66.65 -67.7 63.65 -71.05 59.25 -72.25 50.5 -74.65 42.95 -69.35 L43.1 -69.6 Q44.45 -71.05 45.95 -72.1 42.95 -74.3 39.3 -75.25 30.25 -77.5 21.2 -75.2 14.5 -73.5 8.75 -69.85 L8.6 -69.55 8.4 -68.95 8.25 -68.65 8.15 -68.35 8.15 -68.05 8.55 -67.15 Q8.7 -66.65 9.15 -66.25 L9.2 -66.2 9.45 -65.95 9.25 -66.25 12.45 -68.25 Q18.8 -71.7 25.95 -73.1 L29.15 -73.3 30.75 -73.15 34.25 -72.5 Q37.95 -71.45 41.0 -69.0 L42.0 -67.75 Q44.15 -63.1 49.05 -63.4 49.8 -63.5 50.3 -63.1 51.4 -62.3 52.05 -61.0 L53.4 -58.3 Q54.65 -55.25 54.95 -52.15 L62.05 -51.85 62.05 -52.05" fill="#0ecfe4" fill-rule="evenodd" stroke="none"/>
    <path d="M63.35 -52.05 Q63.15 -58.8 58.05 -63.5 L56.7 -64.9 56.2 -65.0 56.15 -65.05 55.25 -64.5 55.1 -64.3 Q60.65 -60.2 62.25 -53.55 L62.45 -52.95 62.4 -52.7 62.05 -52.05 62.1 -51.85 62.05 -51.85 54.95 -52.15 51.15 -53.05 Q48.05 -53.95 45.35 -55.75 42.75 -57.45 42.25 -60.2 41.3 -61.45 40.55 -62.85 38.65 -66.5 35.1 -68.45 31.2 -69.85 27.0 -69.35 24.15 -70.3 20.55 -68.9 L11.25 -65.3 10.05 -65.35 9.75 -65.65 9.45 -65.95 9.2 -66.2 9.15 -66.25 Q8.7 -66.65 8.55 -67.15 L8.15 -68.05 8.15 -68.35 8.25 -68.65 8.4 -68.95 8.6 -69.55 8.75 -69.85 Q14.5 -73.5 21.2 -75.2 30.25 -77.5 39.3 -75.25 42.95 -74.3 45.95 -72.1 44.45 -71.05 43.1 -69.6 L42.95 -69.35 Q50.5 -74.65 59.25 -72.25 63.65 -71.05 66.65 -67.7 70.3 -63.75 71.1 -58.6 L71.3 -58.3 71.45 -58.0 71.45 -57.7 71.45 -56.8 71.55 -55.6 71.6 -55.35 71.45 -55.05 71.2 -54.75 70.9 -54.45 70.7 -54.25 Q67.1 -52.6 63.35 -52.0 L63.3 -52.0 63.35 -52.05 M45.85 -73.7 Q41.6 -76.3 36.8 -77.45 L36.3 -77.6 Q24.3 -77.9 13.25 -73.55 L10.55 -72.8 8.5 -71.65 Q8.85 -71.15 8.55 -71.05 L8.25 -70.75 7.95 -70.45 7.65 -70.15 7.55 -69.85 7.5 -69.55 7.4 -69.25 7.1 -68.35 Q7.05 -67.7 7.35 -67.1 L7.55 -66.55 7.8 -66.3 8.05 -65.95 8.35 -65.65 8.4 -65.6 9.25 -64.75 9.75 -64.3 Q13.5 -64.15 17.15 -66.05 18.8 -66.9 20.7 -67.35 L25.2 -68.5 25.25 -68.35 25.45 -68.05 Q30.15 -68.0 34.6 -66.95 L34.9 -66.7 35.3 -66.45 36.2 -66.2 37.35 -64.9 Q38.85 -63.05 39.95 -60.8 L40.65 -59.6 Q41.5 -56.55 44.3 -54.8 49.35 -51.65 55.05 -50.6 L60.95 -50.05 Q67.8 -50.0 72.65 -54.55 72.85 -59.75 70.5 -64.3 66.25 -72.55 57.15 -74.9 51.4 -75.4 46.95 -72.75 L45.85 -73.7" fill="#000000" fill-rule="evenodd" stroke="none"/>
    <path d="M54.95 -52.15 Q54.65 -55.25 53.4 -58.3 L52.05 -61.0 Q51.4 -62.3 50.3 -63.1 49.8 -63.5 49.05 -63.4 44.15 -63.1 42.0 -67.75 L41.0 -69.0 Q37.95 -71.45 34.25 -72.5 L30.75 -73.15 29.15 -73.3 25.95 -73.1 Q18.8 -71.7 12.45 -68.25 L9.25 -66.25 9.45 -65.95 9.75 -65.65 10.05 -65.35 11.25 -65.3 20.55 -68.9 Q24.15 -70.3 27.0 -69.35 31.2 -69.85 35.1 -68.45 38.65 -66.5 40.55 -62.85 41.3 -61.45 42.25 -60.2 42.75 -57.45 45.35 -55.75 48.05 -53.95 51.15 -53.05 L54.95 -52.15" fill="#0db5c8" fill-rule="evenodd" stroke="none"/>
  </g>
</svg>
