<?xml version="1.0" encoding="UTF-8" standalone="no"?>
<svg xmlns:xlink="http://www.w3.org/1999/xlink" height="58.65px" width="47.3px" xmlns="http://www.w3.org/2000/svg">
  <g transform="matrix(1.0, 0.0, 0.0, 1.0, 13.25, 61.4)">
    <path d="M13.1 -49.9 Q12.5 -55.45 9.3 -60.2 L6.5 -60.4 Q5.1 -59.7 4.55 -58.4 1.7 -51.8 2.95 -44.15 2.65 -41.35 1.75 -38.7 0.1 -33.95 -2.25 -29.6 -5.0 -24.35 -8.3 -19.5 -11.45 -15.0 -11.8 -9.7 L-11.55 -9.55 Q-7.4 -6.55 -2.55 -5.5 L-2.5 -5.65 -3.85 -11.3 Q-4.55 -15.85 -2.95 -20.2 L-1.55 -23.2 0.45 -27.15 1.45 -28.95 Q2.7 -31.05 3.55 -33.4 L5.15 -38.1 5.65 -39.95 6.0 -41.95 Q6.35 -43.85 6.25 -45.8 L6.2 -47.45 Q6.25 -48.65 5.8 -49.65 L6.1 -49.25 6.3 -49.15 Q7.3 -48.7 8.45 -48.5 L9.2 -48.5 10.3 -48.6 Q12.0 -48.75 13.1 -49.9" fill="#0db5c8" fill-rule="evenodd" stroke="none"/>
    <path d="M-2.55 -5.5 Q-7.4 -6.55 -11.55 -9.55 L-11.8 -9.7 Q-11.45 -15.0 -8.3 -19.5 -5.0 -24.35 -2.25 -29.6 0.1 -33.95 1.75 -38.7 2.65 -41.35 2.95 -44.15 1.7 -51.8 4.55 -58.4 5.1 -59.7 6.5 -60.4 L9.3 -60.2 Q12.5 -55.45 13.1 -49.9 13.4 -47.15 13.0 -44.15 12.95 -40.4 12.45 -36.75 11.7 -31.45 9.85 -26.4 L8.4 -23.1 Q6.15 -22.55 4.05 -21.5 0.85 -19.9 -1.25 -17.2 L3.75 -20.25 Q5.65 -21.3 7.6 -21.9 8.25 -22.35 9.2 -22.5 L9.4 -22.45 9.6 -22.35 Q12.45 -22.85 15.5 -22.4 20.05 -21.7 24.25 -19.9 27.55 -18.45 29.95 -15.95 L32.8 -12.25 Q30.35 -9.6 27.15 -7.85 26.75 -10.1 24.95 -11.9 L23.65 -13.2 Q19.8 -16.85 14.55 -17.65 13.65 -17.35 12.9 -16.85 L12.9 -16.8 14.15 -16.7 14.45 -16.8 Q19.4 -15.45 23.05 -11.85 25.0 -9.9 26.3 -7.55 L26.55 -7.55 26.35 -7.45 24.65 -6.7 Q19.9 -4.8 14.75 -4.2 9.35 -3.6 4.0 -4.4 L2.35 -4.65 2.2 -4.8 2.1 -4.9 -2.4 -5.45 -2.55 -5.5 M-11.4 -7.95 L-9.35 -6.55 Q-5.7 -5.0 -1.85 -4.0 L2.45 -3.05 5.55 -2.8 Q10.4 -2.7 15.25 -2.85 L17.2 -3.05 18.55 -3.3 Q24.05 -4.15 28.65 -7.1 31.45 -8.85 33.25 -11.5 L33.3 -11.45 33.8 -12.6 34.05 -13.15 Q33.55 -14.5 32.5 -15.65 L29.5 -18.4 Q26.95 -20.45 23.9 -21.6 20.65 -22.8 17.25 -23.4 L15.3 -23.65 14.35 -23.85 10.05 -23.5 Q11.7 -26.2 12.5 -29.35 13.8 -34.65 14.15 -40.05 L14.3 -44.15 Q15.1 -52.7 11.2 -59.65 10.25 -61.35 8.3 -61.4 2.65 -61.7 2.15 -55.5 L1.45 -44.15 0.85 -40.85 0.1 -38.2 Q-1.75 -33.15 -4.45 -28.5 L-10.1 -19.25 Q-13.05 -14.65 -13.25 -9.2 L-12.4 -8.75 -11.45 -8.0 -11.4 -7.95" fill="#000000" fill-rule="evenodd" stroke="none"/>
    <path d="M13.1 -49.9 Q12.0 -48.75 10.3 -48.6 L9.2 -48.5 8.45 -48.5 Q7.3 -48.7 6.3 -49.15 L6.1 -49.25 5.8 -49.65 Q6.25 -48.65 6.2 -47.45 L6.25 -45.8 Q6.35 -43.85 6.0 -41.95 L5.65 -39.95 5.15 -38.1 3.55 -33.4 Q2.7 -31.05 1.45 -28.95 L0.45 -27.15 -1.55 -23.2 -2.95 -20.2 Q-4.55 -15.85 -3.85 -11.3 L-2.5 -5.65 -2.55 -5.5 -2.4 -5.45 2.1 -4.9 2.2 -4.8 2.35 -4.65 4.0 -4.4 Q9.35 -3.6 14.75 -4.2 19.9 -4.8 24.65 -6.7 L26.35 -7.45 26.3 -7.55 Q25.0 -9.9 23.05 -11.85 19.4 -15.45 14.45 -16.8 L14.15 -16.7 12.9 -16.8 12.9 -16.85 Q13.65 -17.35 14.55 -17.65 19.8 -16.85 23.65 -13.2 L24.95 -11.9 Q26.75 -10.1 27.15 -7.85 30.35 -9.6 32.8 -12.25 L29.95 -15.95 Q27.55 -18.45 24.25 -19.9 20.05 -21.7 15.5 -22.4 12.45 -22.85 9.6 -22.35 L9.4 -22.45 9.2 -22.5 Q8.25 -22.35 7.6 -21.9 5.65 -21.3 3.75 -20.25 L-1.25 -17.2 Q0.85 -19.9 4.05 -21.5 6.15 -22.55 8.4 -23.1 L9.85 -26.4 Q11.7 -31.45 12.45 -36.75 12.95 -40.4 13.0 -44.15 13.4 -47.15 13.1 -49.9" fill="#0ecfe4" fill-rule="evenodd" stroke="none"/>
  </g>
</svg>
