<?xml version="1.0" encoding="UTF-8" standalone="no"?>
<svg xmlns:xlink="http://www.w3.org/1999/xlink" height="57.2px" width="87.55px" xmlns="http://www.w3.org/2000/svg">
  <g transform="matrix(1.0, 0.0, 0.0, 1.0, 43.85, 28.4)">
    <path d="M-33.9 -19.8 L-35.45 -19.0 -35.4 -19.5 -42.25 -17.2 Q-41.05 -8.3 -37.45 -0.15 L-37.4 -1.4 -33.1 7.05 -32.2 7.35 -30.4 9.95 -27.35 13.4 -28.5 11.3 Q-26.25 14.0 -23.6 16.0 L-16.2 21.75 Q-14.3 23.15 -12.05 24.1 -5.35 27.05 1.9 27.05 7.75 27.05 13.55 25.9 L20.55 24.25 27.4 22.25 Q28.25 17.45 28.7 12.7 29.0 9.95 28.9 7.15 L28.55 2.8 27.95 -1.75 28.6 -0.8 29.0 0.0 29.65 1.85 30.65 6.8 Q34.5 2.7 37.85 -1.8 39.65 -4.2 40.75 -6.65 42.6 -10.6 42.2 -15.0 L41.9 -17.25 Q41.7 -18.3 40.8 -18.9 L37.8 -20.55 Q26.0 -25.55 13.4 -26.5 -8.65 -28.2 -29.65 -21.25 L-33.75 -19.9 -33.95 -19.85 -33.9 -19.8 M21.55 -27.1 Q31.5 -25.7 40.2 -20.75 L43.7 -18.7 43.55 -14.1 Q43.15 -8.9 41.2 -4.05 37.9 4.05 30.8 9.3 L29.7 23.1 Q25.75 25.25 21.4 26.4 L18.35 27.05 Q8.05 29.5 -2.5 28.55 L-9.2 27.3 Q-11.9 26.85 -14.25 25.55 L-23.05 20.5 -23.15 20.35 Q-28.7 16.7 -32.75 11.3 -35.95 7.1 -38.25 2.25 -42.95 -7.45 -43.85 -18.0 -33.95 -21.6 -24.0 -24.45 L-17.25 -25.95 Q-7.35 -28.2 2.75 -28.4 12.15 -28.55 21.55 -27.1 M-23.45 -12.1 L-22.85 -12.3 -23.55 -10.65 -23.45 -12.1 M-18.6 4.6 L-18.65 4.8 Q-18.95 3.9 -18.6 4.6" fill="#000000" fill-rule="evenodd" stroke="none"/>
    <path d="M-33.75 -19.9 L-29.65 -21.25 Q-8.65 -28.2 13.4 -26.5 26.0 -25.55 37.8 -20.55 L40.8 -18.9 Q41.7 -18.3 41.9 -17.25 L42.2 -15.0 Q42.6 -10.6 40.75 -6.65 39.65 -4.2 37.85 -1.8 34.5 2.7 30.65 6.8 L29.65 1.85 29.0 0.0 28.6 -0.8 27.95 -1.75 28.55 2.8 28.9 7.15 Q29.0 9.95 28.7 12.7 28.25 17.45 27.4 22.25 L20.55 24.25 13.55 25.9 Q7.75 27.05 1.9 27.05 -5.35 27.05 -12.05 24.1 -14.3 23.15 -16.2 21.75 L-23.6 16.0 Q-26.25 14.0 -28.5 11.3 L-27.35 13.4 -30.4 9.95 -32.2 7.35 -33.1 7.05 -37.4 -1.4 -37.45 -0.15 Q-41.05 -8.3 -42.25 -17.2 L-35.4 -19.5 -35.45 -19.0 -33.9 -19.8 -33.75 -19.9 M-18.6 4.6 Q-18.95 3.9 -18.65 4.8 L-18.6 4.6 M-23.45 -12.1 L-23.55 -10.65 -22.85 -12.3 -23.45 -12.1" fill="#666666" fill-rule="evenodd" stroke="none"/>
  </g>
</svg>
