<?xml version="1.0" encoding="UTF-8" standalone="no"?>
<svg xmlns:xlink="http://www.w3.org/1999/xlink" height="88.25px" width="101.7px" xmlns="http://www.w3.org/2000/svg">
  <g transform="matrix(1.0, 0.0, 0.0, 1.0, 50.9, 43.4)">
    <path d="M33.4 -28.5 Q38.85 -29.45 43.9 -26.9 47.7 -25.05 50.2 -21.6 51.45 -16.0 50.2 -10.45 49.9 -9.25 49.25 -8.15 L48.45 -7.1 Q37.2 -5.25 28.7 2.2 24.75 5.6 21.55 10.05 L15.55 17.7 Q7.8 26.9 -0.95 35.3 L-5.2 39.2 Q-8.3 42.0 -12.05 43.7 L-14.4 44.6 Q-18.9 45.35 -23.4 44.05 -27.5 42.65 -30.95 40.15 -38.0 35.05 -42.3 27.35 -47.55 17.85 -49.55 7.35 -51.4 -2.5 -50.7 -12.5 -50.2 -19.65 -48.3 -26.45 -47.45 -29.4 -46.05 -32.1 -44.05 -36.0 -41.35 -38.9 L-39.85 -40.4 -38.65 -41.8 Q-36.7 -43.9 -33.9 -43.2 -28.95 -41.65 -24.25 -39.35 L-22.55 -38.2 -20.85 -36.7 Q-14.65 -30.3 -10.45 -22.5 -6.3 -14.85 -4.2 -6.2 4.2 -15.6 15.2 -21.85 20.5 -24.85 26.35 -26.85 L33.4 -28.5 M30.3 -24.55 Q25.8 -23.7 21.45 -20.9 L18.2 -19.5 15.1 -17.9 12.6 -16.5 Q4.0 -10.85 -3.65 -3.95 -2.95 0.5 -2.5 5.0 -1.9 11.0 -1.85 17.1 L-1.85 18.35 -2.2 18.6 -5.15 -3.35 -5.65 -3.85 -5.25 -4.5 -7.25 -11.25 Q-11.8 -26.2 -23.95 -36.3 L-26.2 -34.45 Q-27.7 -33.15 -28.45 -31.1 -29.85 -27.3 -30.55 -23.4 L-28.5 -23.05 Q-19.15 -16.2 -15.95 -4.6 -11.55 11.6 -14.7 28.15 L-14.7 28.35 Q-15.4 32.3 -17.55 35.6 L-18.25 35.75 -16.85 28.75 Q-15.75 16.45 -16.65 4.0 -17.3 -4.2 -20.9 -11.7 -23.75 -17.55 -29.35 -20.75 L-30.9 -21.15 Q-31.45 -17.45 -31.35 -13.7 -31.2 -5.15 -29.9 2.85 -33.1 1.85 -34.0 -2.0 -35.9 -10.55 -34.4 -19.25 L-34.0 -21.55 Q-39.15 -21.9 -43.75 -19.6 L-44.4 -19.95 Q-43.45 -22.5 -40.75 -23.4 -38.4 -24.2 -36.1 -23.9 L-33.6 -23.95 -33.35 -25.6 Q-32.1 -33.4 -26.35 -38.05 L-34.75 -42.15 Q-38.75 -38.6 -41.55 -34.35 -44.35 -30.1 -45.65 -25.0 -50.65 -4.9 -44.95 14.2 -43.3 19.8 -40.7 25.35 -37.2 32.65 -30.2 37.1 L-22.85 41.45 Q-18.1 44.15 -13.45 42.05 -6.55 39.0 -1.8 33.15 10.0 18.7 22.1 4.55 26.8 -0.95 32.8 -4.8 L36.0 -6.65 Q40.7 -9.1 46.05 -9.75 L47.2 -11.65 47.55 -16.1 47.55 -17.1 Q47.6 -19.5 46.7 -21.6 L43.65 -23.0 Q36.8 -25.85 30.3 -24.55" fill="#000000" fill-rule="evenodd" stroke="none"/>
    <path d="M-1.85 17.1 Q-1.9 11.0 -2.5 5.0 -2.95 0.5 -3.65 -3.95 4.0 -10.85 12.6 -16.5 L15.1 -17.9 18.2 -19.5 21.45 -20.9 Q25.8 -23.7 30.3 -24.55 32.1 -23.0 33.35 -20.95 34.95 -18.35 35.5 -15.25 28.5 -13.85 22.5 -10.3 16.1 -6.5 11.15 -1.15 3.45 7.15 -1.85 17.1 M-44.95 14.2 Q-50.65 -4.9 -45.65 -25.0 -44.35 -30.1 -41.55 -34.35 -38.75 -38.6 -34.75 -42.15 L-26.35 -38.05 Q-32.1 -33.4 -33.35 -25.6 L-33.6 -23.95 -36.1 -23.9 Q-38.4 -24.2 -40.75 -23.4 -43.45 -22.5 -44.4 -19.95 L-43.75 -19.6 Q-39.15 -21.9 -34.0 -21.55 L-34.4 -19.25 Q-35.9 -10.55 -34.0 -2.0 -33.1 1.85 -29.9 2.85 -31.2 -5.15 -31.35 -13.7 -31.45 -17.45 -30.9 -21.15 L-29.35 -20.75 Q-23.75 -17.55 -20.9 -11.7 -17.3 -4.2 -16.65 4.0 -15.75 16.45 -16.85 28.75 -22.75 29.05 -28.05 26.75 -38.05 22.55 -44.95 14.2 M-14.7 28.35 L-14.7 28.15 Q-11.55 11.6 -15.95 -4.6 -19.15 -16.2 -28.5 -23.05 L-30.55 -23.4 Q-29.85 -27.3 -28.45 -31.1 -27.7 -33.15 -26.2 -34.45 L-23.95 -36.3 Q-11.8 -26.2 -7.25 -11.25 L-5.25 -4.5 -5.65 -3.85 -5.15 -3.35 -2.2 18.6 -2.6 18.3 Q-5.65 22.7 -9.7 25.95 -11.8 27.55 -14.7 28.35" fill="#0ecfe4" fill-rule="evenodd" stroke="none"/>
    <path d="M-1.85 17.1 Q3.45 7.15 11.15 -1.15 16.1 -6.5 22.5 -10.3 28.5 -13.85 35.5 -15.25 34.95 -18.35 33.35 -20.95 32.1 -23.0 30.3 -24.55 36.8 -25.85 43.65 -23.0 L46.7 -21.6 Q47.6 -19.5 47.55 -17.1 L47.55 -16.1 47.2 -11.65 46.05 -9.75 Q40.7 -9.1 36.0 -6.65 L32.8 -4.8 Q26.8 -0.95 22.1 4.55 10.0 18.7 -1.8 33.15 -6.55 39.0 -13.45 42.05 -18.1 44.15 -22.85 41.45 L-30.2 37.1 Q-37.2 32.65 -40.7 25.35 -43.3 19.8 -44.95 14.2 -38.05 22.55 -28.05 26.75 -22.75 29.05 -16.85 28.75 L-18.25 35.75 -17.55 35.6 Q-15.4 32.3 -14.7 28.35 -11.8 27.55 -9.7 25.95 -5.65 22.7 -2.6 18.3 L-2.2 18.6 -1.85 18.35 -1.85 17.1" fill="#0db5c8" fill-rule="evenodd" stroke="none"/>
  </g>
</svg>
