<?xml version="1.0" encoding="UTF-8" standalone="no"?>
<svg xmlns:xlink="http://www.w3.org/1999/xlink" height="96.2px" width="81.05px" xmlns="http://www.w3.org/2000/svg">
  <g transform="matrix(1.0, 0.0, 0.0, 1.0, 40.5, 48.1)">
    <path d="M25.45 -27.6 L27.35 -21.65 27.85 -19.9 28.25 -18.6 33.25 0.7 33.55 0.5 36.2 12.85 40.55 36.05 38.5 39.7 33.2 41.85 Q25.7 44.9 17.95 46.65 8.25 48.65 -1.75 47.9 L-15.65 46.35 Q-20.85 45.55 -25.7 43.5 L-32.35 40.6 Q-37.0 38.5 -40.45 34.8 L-40.45 33.4 Q-40.4 24.4 -38.25 15.8 L-38.0 14.85 -37.75 13.8 -36.75 9.8 -36.05 7.25 -34.95 3.65 -33.5 -0.5 -32.45 -3.3 -32.2 -3.9 Q-28.8 -12.65 -24.8 -21.05 L-24.55 -21.65 -20.3 -28.3 -14.85 -36.6 Q-12.65 -39.95 -9.9 -42.85 L-9.25 -43.45 Q-7.6 -45.1 -5.45 -46.15 -0.9 -48.6 4.2 -47.95 8.65 -47.55 12.5 -45.3 16.5 -43.0 19.7 -39.7 21.6 -37.7 22.6 -35.1 L25.45 -27.6 M33.05 8.25 L32.45 5.95 32.65 5.7 26.35 -18.6 25.45 -21.65 22.5 -31.7 Q21.8 -34.15 20.35 -36.0 L17.85 -38.8 Q14.2 -42.35 9.7 -44.45 6.25 -46.05 2.55 -45.85 0.05 -45.8 -2.25 -45.0 L-5.85 -43.65 Q-6.95 -43.05 -7.8 -42.25 L-11.7 -38.0 -17.05 -30.55 Q-19.9 -26.2 -22.2 -21.65 L-25.75 -14.45 -30.3 -3.55 -31.55 -0.15 -32.4 2.25 -33.0 4.1 -34.1 7.65 -34.8 10.2 -36.0 15.35 -36.1 15.8 -37.55 24.05 -38.2 33.55 -38.0 35.5 Q-31.55 39.65 -24.25 41.8 -14.6 44.75 -4.6 45.75 4.4 46.75 13.3 45.35 L17.7 44.4 17.95 44.35 20.6 43.7 Q29.75 41.65 38.05 37.4 L37.35 34.55 35.95 24.65 34.75 16.9 33.05 8.25" fill="#000000" fill-rule="evenodd" stroke="none"/>
    <path d="M-2.25 -45.0 Q1.8 -42.25 4.95 -38.45 8.0 -34.85 9.9 -30.45 11.65 -26.2 12.55 -21.65 15.7 -7.55 17.45 7.0 L17.4 7.0 17.45 8.35 17.55 10.4 Q3.5 11.75 -10.65 10.8 -22.35 10.0 -34.1 7.65 L-33.0 4.1 -32.4 2.25 -31.55 -0.15 -30.3 -3.55 -25.75 -14.45 -22.2 -21.65 Q-19.9 -26.2 -17.05 -30.55 L-11.7 -38.0 -7.8 -42.25 Q-6.95 -43.05 -5.85 -43.65 L-2.25 -45.0 M13.3 45.35 Q4.4 46.75 -4.6 45.75 -14.6 44.75 -24.25 41.8 -31.55 39.65 -38.0 35.5 L-38.2 33.55 -24.6 36.4 Q-14.65 38.05 -4.45 38.55 5.45 39.0 15.25 38.1 L13.3 45.35 M-37.55 24.05 L-36.1 15.8 -36.0 15.35 -34.05 15.8 -21.0 18.2 -1.6 19.9 17.55 19.3 16.9 28.3 -3.25 29.2 Q-13.65 28.9 -23.75 27.1 -30.7 25.95 -37.55 24.05 M-0.25 3.95 L-0.2 3.85 -0.25 3.85 -0.25 3.95" fill="#f02d0b" fill-rule="evenodd" stroke="none"/>
    <path d="M-38.2 33.55 L-37.55 24.05 Q-30.7 25.95 -23.75 27.1 -13.65 28.9 -3.25 29.2 L16.9 28.3 15.25 38.1 Q5.45 39.0 -4.45 38.55 -14.65 38.05 -24.6 36.4 L-38.2 33.55 M-36.0 15.35 L-34.8 10.2 -34.1 7.65 Q-22.35 10.0 -10.65 10.8 3.5 11.75 17.55 10.4 L17.55 11.1 17.6 11.55 17.65 15.2 17.65 15.8 17.55 19.3 -1.6 19.9 -21.0 18.2 -34.05 15.8 -36.0 15.35" fill="#c62509" fill-rule="evenodd" stroke="none"/>
    <path d="M-2.25 -45.0 Q0.05 -45.8 2.55 -45.85 6.25 -46.05 9.7 -44.45 14.2 -42.35 17.85 -38.8 L20.35 -36.0 Q21.8 -34.15 22.5 -31.7 L25.45 -21.65 26.35 -18.6 32.65 5.7 32.45 5.95 33.05 8.25 17.95 10.4 17.65 10.4 17.55 10.4 17.45 8.35 17.4 7.0 17.45 7.0 Q15.7 -7.55 12.55 -21.65 11.65 -26.2 9.9 -30.45 8.0 -34.85 4.95 -38.45 1.8 -42.25 -2.25 -45.0 M34.75 16.9 L35.95 24.65 16.9 28.3 17.55 19.3 34.75 16.9 M37.35 34.55 L38.05 37.4 Q29.75 41.65 20.6 43.7 L17.95 44.35 17.7 44.4 13.3 45.35 15.25 38.1 37.35 34.55" fill="#d6280a" fill-rule="evenodd" stroke="none"/>
    <path d="M17.55 10.4 L17.65 10.4 17.95 10.4 33.05 8.25 34.75 16.9 17.55 19.3 17.65 15.8 17.65 15.2 17.6 11.55 17.55 11.1 17.55 10.4 M35.95 24.65 L37.35 34.55 15.25 38.1 16.9 28.3 35.95 24.65" fill="#a72007" fill-rule="evenodd" stroke="none"/>
  </g>
</svg>
