<?xml version="1.0" encoding="UTF-8" standalone="no"?>
<svg xmlns:xlink="http://www.w3.org/1999/xlink" height="76.45px" width="17.95px" xmlns="http://www.w3.org/2000/svg">
  <g transform="matrix(1.0, 0.0, 0.0, 1.0, 8.95, 38.2)">
    <path d="M-0.15 -37.85 Q2.55 -37.1 4.1 -34.65 5.95 -31.6 7.0 -28.25 8.55 -23.5 8.0 -18.5 L8.0 -17.2 8.8 -8.55 8.95 -4.6 9.0 2.4 Q9.0 10.55 8.5 18.7 L7.7 26.75 7.35 29.25 7.0 30.4 6.7 31.45 6.5 32.1 5.8 34.25 Q5.45 35.6 4.4 36.4 3.3 37.7 1.45 38.05 L1.15 38.1 0.75 38.2 Q-1.1 38.5 -2.7 37.5 L-4.15 36.35 Q-7.15 32.95 -7.1 28.35 L-7.0 24.0 -6.35 7.6 Q-6.3 1.55 -6.65 -4.5 L-6.9 -8.55 Q-7.25 -14.0 -8.25 -19.3 -9.1 -23.65 -8.9 -27.95 -8.65 -31.95 -7.2 -35.65 -4.35 -39.15 -0.15 -37.85 M5.95 26.75 L6.05 25.75 Q7.2 17.75 7.45 9.65 L7.45 5.5 6.85 -8.55 6.75 -10.6 6.25 -21.0 Q6.05 -25.6 4.5 -30.45 3.85 -32.4 2.35 -34.0 L0.95 -35.4 Q-1.45 -37.65 -4.05 -35.9 -7.75 -33.45 -7.65 -29.0 L-7.45 -24.5 -6.85 -19.05 -6.8 -18.6 Q-5.6 -13.6 -5.25 -8.55 L-5.0 -4.55 Q-4.75 1.5 -4.75 7.6 L-5.0 14.9 Q-5.25 19.05 -5.8 23.25 L-5.85 24.0 Q-6.1 26.7 -5.85 29.35 -5.5 33.8 -1.8 36.35 L-1.2 36.65 -1.0 36.75 -0.9 36.75 Q2.0 37.35 3.6 35.0 4.45 33.75 4.95 32.35 L5.25 31.35 5.85 27.6 6.0 26.75 5.95 26.75" fill="#000000" fill-rule="evenodd" stroke="none"/>
    <path d="M-7.45 -24.5 L-7.65 -29.0 Q-7.75 -33.45 -4.05 -35.9 -1.45 -37.65 0.95 -35.4 L2.35 -34.0 Q3.85 -32.4 4.5 -30.45 6.05 -25.6 6.25 -21.0 L6.75 -10.6 6.85 -8.55 7.45 5.5 7.45 9.65 Q7.2 17.75 6.05 25.75 L5.95 26.75 6.0 26.75 5.85 27.6 5.25 31.35 4.95 32.35 Q4.45 33.75 3.6 35.0 2.0 37.35 -0.9 36.75 L-1.0 36.75 -1.2 36.65 -1.8 36.35 Q-5.5 33.8 -5.85 29.35 -6.1 26.7 -5.85 24.0 L-5.8 23.25 -5.3 24.0 Q-3.9 26.2 -1.4 26.7 L-0.55 26.8 0.65 26.6 0.75 26.35 Q1.95 22.9 2.45 19.2 L3.4 12.0 Q4.0 6.85 4.2 1.6 L4.25 -6.0 4.05 -15.95 Q3.95 -18.95 2.8 -21.8 2.05 -23.6 0.7 -25.0 L-1.2 -26.5 -5.35 -26.6 Q-6.7 -25.85 -7.45 -24.5" fill="#0db5c8" fill-rule="evenodd" stroke="none"/>
    <path d="M-5.8 23.25 Q-5.25 19.05 -5.0 14.9 L-4.75 7.6 Q-4.75 1.5 -5.0 -4.55 L-5.25 -8.55 Q-5.6 -13.6 -6.8 -18.6 L-6.85 -19.05 -7.45 -24.5 Q-6.7 -25.85 -5.35 -26.6 L-1.2 -26.5 0.7 -25.0 Q2.05 -23.6 2.8 -21.8 3.95 -18.95 4.05 -15.95 L4.25 -6.0 4.2 1.6 Q4.0 6.85 3.4 12.0 L2.45 19.2 Q1.95 22.9 0.75 26.35 L0.65 26.6 -0.55 26.8 -1.4 26.7 Q-3.9 26.2 -5.3 24.0 L-5.8 23.25" fill="#0ecfe4" fill-rule="evenodd" stroke="none"/>
  </g>
</svg>
