<?xml version="1.0" encoding="UTF-8" standalone="no"?>
<svg xmlns:xlink="http://www.w3.org/1999/xlink" height="42.15px" width="38.4px" xmlns="http://www.w3.org/2000/svg">
  <g transform="matrix(1.0, 0.0, 0.0, 1.0, 19.2, 21.05)">
    <path d="M-8.0 -17.55 L-6.85 -18.1 -5.25 -18.65 Q-3.6 -19.3 -1.85 -19.6 L0.2 -19.6 Q1.75 -19.45 3.0 -18.6 L3.7 -18.15 7.2 -15.1 8.25 -14.0 Q9.65 -12.3 10.5 -10.25 L12.45 -5.35 14.25 -0.4 15.8 4.65 17.05 9.75 17.7 12.65 12.7 15.5 Q9.3 17.05 5.55 17.9 L3.7 18.3 2.75 18.45 Q3.75 15.05 4.25 11.5 4.95 6.85 5.15 2.1 5.35 -1.4 4.7 -4.9 4.25 -7.45 2.95 -9.8 1.9 -11.6 0.35 -13.05 -1.0 -14.2 -2.6 -14.8 L-6.9 -16.3 Q-7.95 -16.65 -8.0 -17.55" fill="#d6280a" fill-rule="evenodd" stroke="none"/>
    <path d="M2.75 18.45 L-1.05 18.8 -5.1 18.8 Q-11.55 18.45 -18.1 16.2 -17.8 3.0 -13.7 -9.45 L-13.55 -9.85 -13.4 -10.25 -11.55 -13.7 -10.6 -15.15 Q-9.55 -16.7 -8.0 -17.55 -7.95 -16.65 -6.9 -16.3 L-2.6 -14.8 Q-1.0 -14.2 0.35 -13.05 1.9 -11.6 2.95 -9.8 4.25 -7.45 4.7 -4.9 5.35 -1.4 5.15 2.1 4.95 6.85 4.25 11.5 3.75 15.05 2.75 18.45" fill="#f02d0b" fill-rule="evenodd" stroke="none"/>
    <path d="M-8.1 -18.95 Q-6.1 -20.1 -3.85 -20.75 L0.5 -21.0 Q2.15 -20.7 3.7 -20.0 L5.95 -18.5 7.9 -16.95 8.6 -16.15 11.05 -12.45 12.65 -9.2 Q14.0 -6.55 14.8 -3.6 L16.25 1.35 17.5 5.6 17.7 6.35 Q18.7 9.9 19.2 13.35 L18.1 14.45 16.75 15.55 13.85 17.5 Q11.45 18.9 8.6 19.6 L1.95 20.9 -3.8 21.05 Q-11.1 20.7 -17.7 17.55 L-18.45 17.05 -19.15 16.1 Q-19.45 7.15 -17.6 -1.45 -16.7 -5.8 -15.25 -9.85 L-15.1 -10.25 Q-14.1 -13.1 -12.35 -15.25 -10.55 -17.5 -8.1 -18.95 M-8.0 -17.55 Q-9.55 -16.7 -10.6 -15.15 L-11.55 -13.7 -13.4 -10.25 -13.55 -9.85 -13.7 -9.45 Q-17.8 3.0 -18.1 16.2 -11.55 18.45 -5.1 18.8 L-1.05 18.8 2.75 18.45 3.7 18.3 5.55 17.9 Q9.3 17.05 12.7 15.5 L17.7 12.65 17.05 9.75 15.8 4.65 14.25 -0.4 12.45 -5.35 10.5 -10.25 Q9.65 -12.3 8.25 -14.0 L7.2 -15.1 3.7 -18.15 3.0 -18.6 Q1.75 -19.45 0.2 -19.6 L-1.85 -19.6 Q-3.6 -19.3 -5.25 -18.65 L-6.85 -18.1 -8.0 -17.55" fill="#000000" fill-rule="evenodd" stroke="none"/>
  </g>
</svg>
