<?xml version="1.0" encoding="UTF-8" standalone="no"?>
<svg xmlns:xlink="http://www.w3.org/1999/xlink" height="28.05px" width="21.3px" xmlns="http://www.w3.org/2000/svg">
  <g transform="matrix(1.0, 0.0, 0.0, 1.0, 10.65, 14.0)">
    <path d="M5.4 -14.0 L6.35 -12.3 6.55 -12.0 6.6 -11.75 6.65 -11.55 Q6.4 -3.65 9.0 3.8 L9.75 5.8 10.45 7.35 10.45 7.4 Q10.85 8.65 10.4 9.95 L9.9 9.55 Q9.3 11.1 7.6 12.05 L7.0 12.45 6.85 12.55 6.1 12.95 Q1.8 15.15 -2.3 13.0 L-2.7 12.7 -2.8 12.55 -2.85 12.5 Q-4.35 10.1 -4.9 7.3 L-4.9 7.25 -4.9 6.95 Q-4.95 6.25 -5.15 5.75 L-5.5 3.8 Q-6.85 -2.75 -10.65 -8.25 L-10.65 -11.45 -10.4 -11.25 -2.7 -11.05 Q0.8 -11.6 4.15 -13.25 L5.4 -14.0 M5.15 -11.55 L4.1 -11.0 Q0.8 -9.5 -2.7 -9.15 L-9.4 -9.5 Q-7.65 -7.65 -6.4 -5.4 -5.35 -3.45 -4.7 -1.25 -4.0 1.25 -3.6 3.8 L-3.45 4.85 -3.4 4.85 -3.25 5.05 -3.2 5.4 -3.35 5.6 -3.35 5.9 Q-3.2 7.4 -2.7 8.7 -2.1 10.3 -1.0 11.65 L-0.45 12.05 0.1 12.4 Q3.05 12.2 5.25 10.95 L7.4 9.2 8.25 8.2 8.4 8.0 8.45 7.95 Q7.7 7.05 7.35 5.75 L6.8 3.8 Q4.8 -3.7 5.2 -11.45 L5.2 -11.55 5.15 -11.55" fill="#000000" fill-rule="evenodd" stroke="none"/>
    <path d="M5.15 -11.55 L5.2 -11.45 Q4.8 -3.7 6.8 3.8 L7.35 5.75 Q7.7 7.05 8.45 7.95 L8.4 8.0 8.25 8.2 7.4 9.2 5.25 10.95 4.8 10.0 Q3.75 7.7 3.1 5.4 L2.7 3.8 Q1.65 -1.0 1.8 -6.0 -0.4 -5.1 -2.7 -5.0 L-6.4 -5.4 Q-7.65 -7.65 -9.4 -9.5 L-2.7 -9.15 Q0.8 -9.5 4.1 -11.0 L5.15 -11.55" fill="#0db5c8" fill-rule="evenodd" stroke="none"/>
    <path d="M-6.4 -5.4 L-2.7 -5.0 Q-0.4 -5.1 1.8 -6.0 1.65 -1.0 2.7 3.8 L3.1 5.4 Q3.75 7.7 4.8 10.0 L5.25 10.95 Q3.05 12.2 0.1 12.4 L-0.45 12.05 -1.0 11.65 Q-2.1 10.3 -2.7 8.7 -3.2 7.4 -3.35 5.9 L-3.2 5.4 -3.25 5.05 -3.4 4.85 -3.45 4.85 -3.6 3.8 Q-4.0 1.25 -4.7 -1.25 -5.35 -3.45 -6.4 -5.4" fill="#0ecfe4" fill-rule="evenodd" stroke="none"/>
  </g>
</svg>
