<?xml version="1.0" encoding="UTF-8" standalone="no"?>
<svg xmlns:xlink="http://www.w3.org/1999/xlink" height="121.8px" width="113.75px" xmlns="http://www.w3.org/2000/svg">
  <g transform="matrix(1.0, 0.0, 0.0, 1.0, 56.85, 60.9)">
    <path d="M30.35 -39.45 L30.7 -39.6 Q34.4 -40.95 38.35 -41.0 L40.8 -41.05 40.8 -41.15 39.9 -42.55 39.05 -44.05 Q34.75 -52.2 26.55 -56.2 23.55 -57.7 20.2 -58.15 L18.4 -58.4 Q11.85 -59.55 5.7 -58.25 -2.4 -56.55 -8.2 -50.5 -4.55 -50.1 -2.65 -46.9 -0.05 -42.5 -1.4 -37.4 L-1.65 -37.15 -1.95 -35.8 -1.95 -36.95 -2.4 -37.65 Q-2.2 -42.5 -5.0 -46.4 -5.65 -47.2 -6.45 -47.6 L-8.5 -48.75 -9.75 -48.5 Q-14.1 -47.55 -17.1 -44.25 L-18.4 -42.45 -19.1 -41.35 -19.25 -41.15 Q-24.15 -31.8 -25.6 -21.25 -24.75 -25.15 -22.7 -28.55 L-19.65 -33.35 Q-18.5 -35.05 -17.1 -36.2 -13.7 -39.0 -9.35 -38.55 -8.6 -38.35 -7.9 -37.75 -6.15 -36.05 -6.75 -33.65 -7.75 -24.8 -8.1 -15.8 L-8.3 -2.55 -8.1 1.3 -7.9 1.25 -3.4 0.2 6.8 -2.45 7.5 -2.65 Q11.35 -3.7 15.25 -4.05 L17.3 -4.1 Q21.3 -4.05 24.75 -2.6 28.4 -1.1 31.4 2.0 32.6 3.2 33.2 4.7 L33.15 4.8 33.35 5.1 33.35 4.7 33.4 1.6 Q33.45 -7.5 32.75 -16.45 32.25 -22.85 31.25 -29.0 L31.2 -29.55 31.15 -29.55 Q28.5 -29.15 25.95 -28.35 L24.1 -27.7 23.9 -27.45 Q23.45 -26.9 22.85 -26.7 22.6 -26.8 22.45 -26.95 L22.15 -27.3 22.25 -27.5 22.15 -27.6 21.95 -27.75 Q22.9 -31.7 25.1 -35.1 27.05 -38.15 30.35 -39.45 M9.45 -60.9 Q18.55 -61.1 27.15 -58.15 L29.85 -57.0 Q34.5 -54.6 37.5 -50.25 40.05 -46.55 41.95 -42.55 L42.55 -41.25 42.65 -40.9 Q46.0 -40.55 49.2 -39.15 L49.75 -38.95 50.0 -38.75 50.15 -38.5 50.25 -38.25 50.3 -38.05 50.25 -37.85 50.15 -37.6 50.1 -37.6 Q52.4 -29.6 53.05 -21.25 L53.35 -18.5 54.05 -9.4 55.15 8.65 56.35 26.45 56.4 27.1 Q57.15 35.65 56.8 44.2 L56.55 49.85 56.2 50.1 Q55.95 52.7 54.75 55.05 53.6 57.25 51.65 58.9 L50.6 59.7 Q45.1 62.35 39.85 59.1 35.6 56.45 33.5 52.4 31.7 48.9 31.55 44.45 31.1 40.1 31.8 35.6 L32.35 28.75 32.35 28.35 32.45 25.0 Q31.05 26.95 29.1 28.35 L27.4 29.4 27.5 29.4 26.5 30.2 26.5 30.3 26.15 30.3 Q25.6 30.55 25.2 31.05 L25.2 31.0 25.15 31.0 24.1 31.55 Q20.8 33.05 17.3 33.4 L13.7 33.45 13.4 33.6 8.5 32.85 8.45 32.85 8.4 32.95 8.15 32.75 3.2 32.9 -8.4 34.1 -10.25 34.3 Q-18.7 34.2 -24.4 28.3 L-25.55 26.65 -28.5 25.85 Q-34.35 24.0 -38.4 19.7 -40.9 17.0 -42.6 13.8 -44.2 10.65 -44.8 7.35 L-45.1 5.35 Q-51.9 3.75 -54.95 -2.6 -59.2 -11.25 -53.9 -18.9 -52.15 -21.5 -49.05 -22.4 L-46.55 -23.1 -41.4 -22.65 Q-38.1 -21.8 -35.5 -19.7 L-33.95 -18.05 -31.5 -14.4 Q-30.1 -12.0 -30.25 -9.2 L-26.8 -8.05 -26.95 -8.45 Q-27.45 -14.5 -26.85 -20.45 -26.3 -26.3 -24.6 -31.85 L-22.25 -38.0 -20.65 -41.15 -19.05 -43.85 -17.1 -46.25 -14.0 -48.7 Q-12.2 -49.9 -10.05 -50.35 L-8.95 -51.55 -6.1 -54.2 Q-1.85 -58.1 3.55 -59.8 6.35 -60.7 9.45 -60.9 M33.15 12.95 L33.3 7.75 Q32.1 6.95 31.5 5.6 L31.25 4.75 Q28.05 1.0 23.3 -0.65 L23.0 -0.75 Q20.2 -1.7 17.3 -1.9 L10.5 -1.4 7.05 -0.6 Q3.35 0.35 -0.3 1.65 -5.75 3.55 -11.55 3.35 -14.5 3.2 -16.75 1.9 -17.8 0.95 -19.0 0.15 L-19.0 0.1 -22.25 -2.45 -25.85 -5.75 Q-27.85 -7.55 -30.45 -7.85 L-30.65 -7.75 -31.45 -7.95 -31.45 -7.9 -31.6 -7.9 -31.6 -8.0 -33.05 -8.0 Q-35.05 -7.9 -36.7 -7.15 -39.55 -5.95 -41.4 -3.05 -43.85 0.65 -43.3 5.15 -42.25 14.15 -35.45 20.35 L-34.6 21.0 Q-23.4 27.85 -10.25 25.3 -2.45 23.75 3.35 18.55 5.2 16.85 6.3 14.7 L6.7 14.1 Q4.8 13.1 2.65 12.65 0.6 12.25 -0.85 11.05 L-0.8 10.8 -0.7 10.6 -0.5 10.5 -0.45 10.4 Q8.3 10.75 13.8 17.2 L14.1 17.4 14.4 18.35 Q14.6 18.95 14.45 19.5 L14.35 19.65 14.3 19.7 14.0 19.8 Q11.45 17.2 8.45 15.15 5.15 20.85 -0.75 23.85 -12.05 29.4 -24.05 27.0 -18.5 32.45 -10.1 32.25 L-0.75 31.15 3.2 30.6 Q4.9 30.45 6.65 30.6 L6.8 30.45 7.3 30.25 7.95 30.7 8.4 30.75 9.6 31.3 17.3 31.5 Q20.8 30.95 24.15 29.3 L25.65 28.35 26.05 28.05 26.15 28.2 29.1 25.5 Q31.2 23.4 32.65 20.9 L32.75 19.65 33.15 12.95 M-47.4 -19.0 Q-43.15 -20.1 -39.65 -17.8 -35.7 -15.2 -35.35 -10.7 L-34.7 -10.05 -33.65 -10.05 Q-32.65 -10.9 -32.95 -12.35 -33.95 -17.45 -38.4 -20.0 -42.15 -22.15 -46.35 -21.45 -51.0 -20.85 -53.3 -16.8 L-53.25 -16.4 -53.7 -15.65 -53.6 -13.85 -53.5 -13.7 -53.15 -13.7 Q-51.4 -17.4 -47.65 -18.75 L-47.4 -19.0 M-17.1 -34.3 Q-18.75 -32.9 -19.9 -31.0 -22.3 -27.0 -24.15 -22.5 L-24.5 -21.7 Q-26.85 -15.45 -26.0 -8.9 L-25.85 -7.9 -25.85 -7.3 -25.5 -7.1 -25.2 -7.25 -25.3 -9.65 -25.45 -10.8 -25.4 -10.9 -25.3 -11.0 -25.35 -11.45 -25.3 -11.9 -22.3 -14.85 Q-23.4 -15.85 -24.85 -16.55 L-24.9 -16.55 -24.3 -19.7 -24.2 -20.6 -24.05 -20.8 -23.9 -21.05 -23.9 -21.25 -23.9 -21.5 -23.65 -22.1 -23.65 -22.15 -23.6 -22.25 -23.55 -22.3 -23.05 -23.3 -23.0 -23.55 -21.65 -25.45 -21.5 -25.65 -21.45 -25.8 -21.1 -26.0 -20.75 -26.25 -19.8 -26.8 -18.7 -26.9 Q-17.75 -27.0 -17.4 -26.2 -15.05 -24.25 -15.45 -20.6 L-15.65 -16.1 -15.5 -4.7 -15.25 -1.5 -15.25 -1.4 -15.1 -1.15 Q-15.0 0.0 -15.2 1.05 -12.65 1.95 -9.65 1.6 L-9.65 1.4 -9.8 1.15 -9.95 0.95 -9.85 -14.85 Q-9.65 -23.9 -8.55 -32.8 L-8.45 -33.65 -9.05 -36.75 -10.35 -36.85 Q-14.25 -36.95 -17.1 -34.3" fill="#000000" fill-rule="evenodd" stroke="none"/>
    <path d="M-47.4 -19.0 L-47.65 -18.75 Q-51.4 -17.4 -53.15 -13.7 L-53.5 -13.7 -53.6 -13.85 -53.7 -15.65 -53.25 -16.4 -53.3 -16.8 Q-51.0 -20.85 -46.35 -21.45 -42.15 -22.15 -38.4 -20.0 -33.95 -17.45 -32.95 -12.35 -32.65 -10.9 -33.65 -10.05 L-34.7 -10.05 -35.35 -10.7 Q-35.7 -15.2 -39.65 -17.8 -43.15 -20.1 -47.4 -19.0" fill="#999999" fill-rule="evenodd" stroke="none"/>
    <path d="M-17.1 -34.3 Q-14.25 -36.95 -10.35 -36.85 L-9.05 -36.75 -8.45 -33.65 -8.55 -32.8 Q-9.65 -23.9 -9.85 -14.85 L-9.95 0.95 -9.8 1.15 -9.65 1.4 -9.65 1.6 Q-12.65 1.95 -15.2 1.05 -15.0 0.0 -15.1 -1.15 L-15.25 -1.4 -15.25 -1.5 -15.5 -4.7 -15.65 -16.1 -15.45 -20.6 Q-15.05 -24.25 -17.4 -26.2 -17.75 -27.0 -18.7 -26.9 L-19.8 -26.8 -20.75 -26.25 -21.1 -26.0 -21.45 -25.8 -21.5 -25.65 -21.65 -25.45 -23.0 -23.55 -23.05 -23.3 -23.55 -22.3 -23.6 -22.25 -23.65 -22.15 -23.65 -22.1 -23.9 -21.5 -23.9 -21.25 -23.9 -21.05 -24.05 -20.8 -24.2 -20.6 -24.3 -19.7 -24.9 -16.55 -24.85 -16.55 Q-23.4 -15.85 -22.3 -14.85 L-25.3 -11.9 -25.35 -11.45 -25.3 -11.0 -25.4 -10.9 -25.45 -10.8 -25.3 -9.65 -25.2 -7.25 -25.5 -7.1 -25.85 -7.3 -25.85 -7.9 -26.0 -8.9 Q-26.85 -15.45 -24.5 -21.7 L-24.15 -22.5 Q-22.3 -27.0 -19.9 -31.0 -18.75 -32.9 -17.1 -34.3" fill="#ffffff" fill-rule="evenodd" stroke="none"/>
    <path d="M-18.4 -42.45 L-18.3 -42.35 Q-16.3 -44.4 -13.15 -44.35 -10.45 -44.3 -8.3 -42.75 -7.35 -42.05 -6.7 -40.65 -5.5 -37.9 -5.05 -34.85 L-4.85 -33.65 -4.2 -30.95 Q-3.8 -29.65 -2.5 -29.4 -1.15 -29.1 -0.6 -30.25 L-0.15 -31.25 Q0.75 -32.95 1.15 -34.85 1.6 -37.25 1.6 -39.75 L1.65 -41.25 1.9 -44.9 Q1.9 -45.5 2.05 -46.1 2.9 -49.25 5.7 -51.05 L7.0 -51.8 Q9.5 -53.1 12.4 -52.95 L18.15 -52.1 19.7 -51.6 Q25.4 -49.25 28.2 -44.0 L28.95 -42.55 29.95 -40.6 30.35 -39.45 Q27.05 -38.15 25.1 -35.1 22.9 -31.7 21.95 -27.75 L22.15 -27.6 22.25 -27.5 22.15 -27.3 22.45 -26.95 Q22.6 -26.8 22.85 -26.7 23.45 -26.9 23.9 -27.45 L24.1 -27.7 25.95 -28.35 Q28.05 -23.5 27.75 -18.1 L27.55 -14.15 Q27.3 -10.65 26.4 -7.3 24.6 -8.3 22.45 -8.7 L20.95 -8.8 17.3 -8.6 16.05 -8.4 Q13.25 -8.0 10.6 -7.1 5.1 -5.25 0.55 -1.95 -1.25 -0.65 -3.4 0.2 L-7.9 1.25 -8.1 1.3 -8.3 -2.55 -8.1 -15.8 Q-7.75 -24.8 -6.75 -33.65 -6.15 -36.05 -7.9 -37.75 -8.6 -38.35 -9.35 -38.55 -13.7 -39.0 -17.1 -36.2 -18.5 -35.05 -19.65 -33.35 L-22.7 -28.55 Q-24.75 -25.15 -25.6 -21.25 -24.15 -31.8 -19.25 -41.15 L-19.1 -41.35 -18.4 -42.45" fill="#0ecfe4" fill-rule="evenodd" stroke="none"/>
    <path d="M-18.4 -42.45 L-17.1 -44.25 Q-14.1 -47.55 -9.75 -48.5 L-8.5 -48.75 -6.45 -47.6 Q-5.65 -47.2 -5.0 -46.4 -2.2 -42.5 -2.4 -37.65 L-1.95 -36.95 -1.95 -35.8 -1.65 -37.15 -1.4 -37.4 Q-0.05 -42.5 -2.65 -46.9 -4.55 -50.1 -8.2 -50.5 -2.4 -56.55 5.7 -58.25 11.85 -59.55 18.4 -58.4 L20.2 -58.15 Q23.55 -57.7 26.55 -56.2 34.75 -52.2 39.05 -44.05 L39.9 -42.55 40.8 -41.15 40.8 -41.05 38.35 -41.0 Q34.4 -40.95 30.7 -39.6 L30.35 -39.45 29.95 -40.6 28.95 -42.55 28.2 -44.0 Q25.4 -49.25 19.7 -51.6 L18.15 -52.1 12.4 -52.95 Q9.5 -53.1 7.0 -51.8 L5.7 -51.05 Q2.9 -49.25 2.05 -46.1 1.9 -45.5 1.9 -44.9 L1.65 -41.25 1.6 -39.75 Q1.6 -37.25 1.15 -34.85 0.75 -32.95 -0.15 -31.25 L-0.6 -30.25 Q-1.15 -29.1 -2.5 -29.4 -3.8 -29.65 -4.2 -30.95 L-4.85 -33.65 -5.05 -34.85 Q-5.5 -37.9 -6.7 -40.65 -7.35 -42.05 -8.3 -42.75 -10.45 -44.3 -13.15 -44.35 -16.3 -44.4 -18.3 -42.35 L-18.4 -42.45 M25.95 -28.35 Q28.5 -29.15 31.15 -29.55 L31.25 -29.0 Q32.25 -22.85 32.75 -16.45 33.45 -7.5 33.4 1.6 L33.35 4.7 33.2 4.7 Q32.6 3.2 31.4 2.0 28.4 -1.1 24.75 -2.6 21.3 -4.05 17.3 -4.1 L15.25 -4.05 Q11.35 -3.7 7.5 -2.65 L6.8 -2.45 -3.4 0.2 Q-1.25 -0.65 0.55 -1.95 5.1 -5.25 10.6 -7.1 13.25 -8.0 16.05 -8.4 L17.3 -8.6 20.95 -8.8 22.45 -8.7 Q24.6 -8.3 26.4 -7.3 27.3 -10.65 27.55 -14.15 L27.75 -18.1 Q28.05 -23.5 25.95 -28.35" fill="#0db5c8" fill-rule="evenodd" stroke="none"/>
    <path d="M-36.7 -7.15 Q-35.05 -7.9 -33.05 -8.0 L-31.6 -8.0 -31.6 -7.9 -31.45 -7.9 -31.45 -7.95 -30.65 -7.75 -30.45 -7.85 Q-27.85 -7.55 -25.85 -5.75 L-22.25 -2.45 -19.0 0.1 -19.0 0.15 Q-17.8 0.95 -16.75 1.9 -14.5 3.2 -11.55 3.35 -5.75 3.55 -0.3 1.65 3.35 0.35 7.05 -0.6 L10.5 -1.4 17.3 -1.9 Q20.2 -1.7 23.0 -0.75 L23.3 -0.65 Q28.05 1.0 31.25 4.75 L31.5 5.6 Q32.1 6.95 33.3 7.75 L33.15 12.95 30.4 9.55 Q26.7 5.85 21.8 4.8 L17.3 4.1 Q13.95 3.8 10.6 4.15 L8.3 4.4 0.0 5.8 -9.9 8.1 Q-15.75 9.55 -21.6 8.35 -27.4 7.15 -31.7 3.2 -36.2 -0.95 -36.7 -7.15" fill="#c19f79" fill-rule="evenodd" stroke="none"/>
    <path d="M-36.7 -7.15 Q-36.2 -0.95 -31.7 3.2 -27.4 7.15 -21.6 8.35 -15.75 9.55 -9.9 8.1 L0.0 5.8 8.3 4.4 10.6 4.15 Q13.95 3.8 17.3 4.1 L21.8 4.8 Q26.7 5.85 30.4 9.55 L33.15 12.95 32.75 19.65 32.65 20.9 Q31.2 23.4 29.1 25.5 L26.15 28.2 26.05 28.05 25.65 28.35 24.15 29.3 Q20.8 30.95 17.3 31.5 L9.6 31.3 8.4 30.75 7.95 30.7 7.3 30.25 6.8 30.45 6.65 30.6 Q4.9 30.45 3.2 30.6 L-0.75 31.15 -10.1 32.25 Q-18.5 32.45 -24.05 27.0 -12.05 29.4 -0.75 23.85 5.15 20.85 8.45 15.15 11.45 17.2 14.0 19.8 L14.3 19.7 14.35 19.65 14.45 19.5 Q14.6 18.95 14.4 18.35 L14.1 17.4 13.8 17.2 Q8.3 10.75 -0.45 10.4 L-0.5 10.5 -0.7 10.6 -0.8 10.8 -0.85 11.05 Q0.6 12.25 2.65 12.65 4.8 13.1 6.7 14.1 L6.3 14.7 Q5.2 16.85 3.35 18.55 -2.45 23.75 -10.25 25.3 -23.4 27.85 -34.6 21.0 L-35.45 20.35 Q-42.25 14.15 -43.3 5.15 -43.85 0.65 -41.4 -3.05 -39.55 -5.95 -36.7 -7.15" fill="#a88b69" fill-rule="evenodd" stroke="none"/>
    <path d="M-18.95 -32.25 L-16.95 -34.4 Q-14.1 -37.05 -10.2 -36.95 L-8.9 -36.85 -8.3 -33.75 -8.4 -32.9 -8.95 -27.65 -10.1 -28.6 Q-14.1 -31.4 -18.95 -32.25" fill="#0db5c8" fill-rule="evenodd" stroke="none"/>
    <path d="M-8.95 -27.65 L-8.2 -26.6 -8.25 -26.45 -8.4 -26.15 -8.5 -26.05 -9.3 -26.05 -10.8 -27.4 -12.85 -28.9 Q-15.8 -30.1 -18.9 -30.95 L-20.5 -31.25 -20.65 -31.35 -20.65 -31.4 Q-21.5 -31.4 -22.2 -31.8 L-22.4 -32.0 -22.0 -32.4 -21.6 -32.5 -21.0 -32.55 -18.95 -32.25 Q-14.1 -31.4 -10.1 -28.6 L-8.95 -27.65 M-37.35 4.2 L-37.35 3.3 -37.2 2.85 Q-37.05 2.55 -36.75 2.45 L-36.45 2.35 Q-34.75 3.4 -36.3 4.55 L-36.85 4.65 Q-37.2 4.55 -37.35 4.2 M-37.5 6.95 Q-35.7 7.65 -37.2 8.7 L-37.85 8.75 Q-38.75 8.4 -38.35 7.55 L-37.95 7.05 -37.5 7.0 -37.5 6.95 M-33.8 7.45 Q-33.1 7.55 -32.9 8.2 L-32.9 8.35 -34.55 8.4 Q-34.7 8.15 -34.5 7.9 L-33.8 7.45" fill="#000000" fill-rule="evenodd" stroke="none"/>
  </g>
</svg>
