<?xml version="1.0" encoding="UTF-8" standalone="no"?>
<svg xmlns:xlink="http://www.w3.org/1999/xlink" height="71.55px" width="49.0px" xmlns="http://www.w3.org/2000/svg">
  <g transform="matrix(1.0, 0.0, 0.0, 1.0, 24.5, 35.75)">
    <path d="M-3.35 32.65 Q-1.9 33.75 0.25 34.05 L2.65 31.5 Q7.85 26.7 12.2 21.0 16.8 14.9 20.65 8.3 24.8 1.05 21.55 -6.4 20.55 -8.75 18.9 -10.7 14.2 -16.45 8.05 -20.7 2.0 -24.9 -4.5 -28.35 L-16.8 -34.8 -16.95 -34.65 -17.75 -34.6 Q-20.2 -34.05 -21.5 -32.55 -22.85 -31.1 -23.0 -28.65 L-22.9 -27.85 -22.35 -26.5 Q-19.4 -23.85 -16.05 -21.55 L-8.45 -16.6 -4.55 -14.2 Q1.25 -10.95 5.45 -5.9 7.75 -3.2 8.85 0.15 9.3 1.65 9.0 3.1 7.35 9.8 2.55 15.05 -2.2 20.15 -5.15 26.35 -5.55 27.95 -5.6 29.7 -4.8 31.55 -3.35 32.65 M1.5 -26.25 L4.9 -24.2 Q10.05 -21.0 14.9 -17.25 20.9 -12.65 23.5 -5.55 25.7 0.25 23.1 5.95 18.15 17.1 9.95 26.35 5.7 31.15 0.75 35.0 L0.75 35.05 0.65 35.35 0.05 35.8 -0.3 35.7 -0.95 35.6 Q-2.75 35.15 -4.25 34.05 L-5.5 32.95 Q-7.3 31.2 -7.05 28.95 -6.35 22.95 -2.2 18.3 2.8 12.85 6.45 6.55 7.45 4.8 7.4 2.9 7.2 -3.4 2.15 -7.45 -3.6 -12.1 -9.9 -15.8 -16.3 -19.6 -21.85 -24.35 L-22.9 -25.4 -23.25 -25.2 -24.1 -26.85 Q-25.35 -30.75 -22.7 -33.55 -22.0 -34.35 -20.95 -35.0 -19.85 -35.75 -18.35 -35.75 L-17.3 -35.6 -17.25 -35.6 -12.65 -33.75 Q-8.2 -31.75 -3.85 -29.3 L1.5 -26.25" fill="#000000" fill-rule="evenodd" stroke="none"/>
    <path d="M-3.35 32.65 Q-4.8 31.55 -5.6 29.7 -5.55 27.95 -5.15 26.35 -2.2 20.15 2.55 15.05 7.35 9.8 9.0 3.1 9.3 1.65 8.85 0.15 7.75 -3.2 5.45 -5.9 1.25 -10.95 -4.55 -14.2 L-8.45 -16.6 -16.05 -21.55 Q-19.4 -23.85 -22.35 -26.5 L-22.9 -27.85 -23.0 -28.65 Q-22.85 -31.1 -21.5 -32.55 -12.1 -25.55 -1.35 -21.25 10.05 -16.7 15.0 -6.1 18.1 0.45 14.15 6.95 8.75 15.95 2.85 24.65 0.05 28.85 -3.35 32.65" fill="#0ecfe4" fill-rule="evenodd" stroke="none"/>
    <path d="M-21.5 -32.55 Q-20.2 -34.05 -17.75 -34.6 L-16.95 -34.65 -16.8 -34.8 -4.5 -28.35 Q2.0 -24.9 8.05 -20.7 14.2 -16.45 18.9 -10.7 20.55 -8.75 21.55 -6.4 24.8 1.05 20.65 8.3 16.8 14.9 12.2 21.0 7.85 26.7 2.65 31.5 L0.25 34.05 Q-1.9 33.75 -3.35 32.65 0.05 28.85 2.85 24.65 8.75 15.95 14.15 6.95 18.1 0.45 15.0 -6.1 10.05 -16.7 -1.35 -21.25 -12.1 -25.55 -21.5 -32.55" fill="#0db9cc" fill-rule="evenodd" stroke="none"/>
  </g>
</svg>
