<?xml version="1.0" encoding="UTF-8" standalone="no"?>
<svg xmlns:xlink="http://www.w3.org/1999/xlink" height="15.45px" width="28.4px" xmlns="http://www.w3.org/2000/svg">
  <g transform="matrix(1.0, 0.0, 0.0, 1.0, 14.2, 7.75)">
    <path d="M13.3 -5.05 L13.75 -4.5 14.15 -2.4 14.05 -0.4 13.25 3.75 Q12.75 5.85 11.05 6.8 L9.85 7.7 1.75 6.05 Q-2.65 4.95 -7.1 4.9 L-11.9 4.35 Q-12.95 4.0 -13.8 3.0 L-14.15 2.05 Q-14.35 0.4 -14.0 -1.05 L-13.15 -3.4 -12.2 -4.95 Q-11.35 -6.2 -9.95 -6.95 L-9.4 -7.25 -3.65 -7.7 3.15 -7.4 Q8.4 -6.9 13.3 -5.05 M9.65 5.45 Q11.8 4.1 12.15 1.65 L12.25 0.25 12.45 -1.4 Q12.65 -2.4 12.05 -3.5 L9.75 -4.1 6.65 -4.7 -6.75 -5.65 -8.25 -5.3 -10.15 -4.3 -11.6 -2.65 -12.2 -1.65 Q-13.45 0.65 -12.0 2.8 -1.2 2.45 9.05 5.85 L9.65 5.45" fill="#000000" fill-rule="evenodd" stroke="none"/>
    <path d="M9.65 5.45 L9.05 5.85 Q-1.2 2.45 -12.0 2.8 -13.45 0.65 -12.2 -1.65 L-11.6 -2.65 -10.15 -4.3 -8.25 -5.3 -6.75 -5.65 6.65 -4.7 9.75 -4.1 12.05 -3.5 Q12.65 -2.4 12.45 -1.4 L12.25 0.25 12.15 1.65 Q11.8 4.1 9.65 5.45" fill="#0ecfe4" fill-rule="evenodd" stroke="none"/>
  </g>
</svg>
