<?xml version="1.0" encoding="UTF-8" standalone="no"?>
<svg xmlns:xlink="http://www.w3.org/1999/xlink" height="35.65px" width="54.65px" xmlns="http://www.w3.org/2000/svg">
  <g transform="matrix(1.0, 0.0, 0.0, 1.0, 27.35, 17.85)">
    <path d="M6.75 -16.7 L6.9 -16.6 6.9 -16.55 6.75 -16.7" fill="#000000" fill-rule="evenodd" stroke="none"/>
    <path d="M-4.1 -12.35 L-5.1 -12.2 Q-12.3 -11.55 -18.05 -7.3 L-18.4 -7.15 -18.85 -6.8 -18.95 -6.6 -18.95 -6.4 -18.95 -6.05 -18.9 -5.85 -18.7 -5.65 -18.55 -5.45 -16.9 -5.7 Q-15.3 -6.05 -13.8 -6.7 -11.3 -7.8 -8.6 -7.9 L2.1 -8.15 2.4 -8.75 2.6 -8.9 3.1 -9.65 3.9 -10.05 4.05 -10.1 4.2 -10.4 4.2 -10.6 4.15 -10.7 Q0.3 -12.5 -4.1 -12.35 M4.8 -15.7 Q8.65 -14.1 12.3 -11.95 16.95 -9.3 20.05 -4.95 L20.05 -4.8 20.35 -3.85 20.65 -3.3 Q17.7 -3.65 15.2 -2.1 11.6 0.15 10.15 4.3 9.25 6.95 9.95 9.7 L10.0 10.2 0.3 15.15 Q-3.3 16.9 -6.2 14.4 L-6.4 14.05 Q-7.8 10.9 -5.05 8.75 L-4.2 8.2 Q-1.45 6.85 -1.8 4.1 -2.0 3.75 -2.35 3.55 -4.5 2.3 -7.15 3.05 -13.35 4.7 -19.65 4.25 -24.85 3.95 -25.7 -1.1 -25.25 -3.9 -23.6 -6.25 -19.95 -11.55 -13.7 -13.65 -7.95 -15.65 -1.85 -16.1 L-1.35 -16.05 4.8 -15.7 M2.05 -10.35 L2.0 -10.15 Q1.75 -9.6 1.3 -9.2 -6.2 -10.3 -13.4 -8.8 L-13.45 -8.9 Q-9.05 -10.5 -4.35 -11.15 -1.05 -11.25 2.05 -10.35 M22.8 -1.0 L23.55 -0.6 24.8 0.7 Q20.1 2.75 19.95 7.85 19.85 11.25 22.3 13.1 L20.75 14.25 19.45 14.8 Q17.6 15.05 16.0 14.4 13.6 13.4 12.4 11.55 L12.6 11.1 12.45 10.55 Q10.7 7.45 12.3 4.1 13.55 1.45 16.15 0.0 19.05 -1.6 22.6 -0.85 L22.8 -1.0" fill="#ffffff" fill-rule="evenodd" stroke="none"/>
    <path d="M6.9 -16.55 Q12.0 -15.45 16.3 -12.05 20.9 -8.4 23.05 -3.05 26.5 -2.15 27.3 1.4 26.5 1.85 26.0 2.45 L25.85 2.35 Q23.95 3.2 22.65 5.25 L22.35 5.65 Q21.55 8.65 23.45 11.15 23.7 11.45 24.1 11.65 24.4 12.55 24.25 13.5 L24.2 13.95 24.1 13.95 Q23.85 14.6 23.0 15.25 L22.6 15.5 22.05 15.8 Q18.7 18.5 14.55 16.55 11.75 15.25 10.55 12.4 L10.5 12.25 10.35 12.3 9.7 12.55 Q4.45 15.45 -1.35 17.45 -4.1 18.4 -6.45 16.65 -9.25 14.55 -8.55 10.95 -8.3 9.6 -7.45 8.55 -6.25 7.0 -4.55 5.9 L-3.6 4.95 -3.65 4.9 -4.15 4.65 -15.4 6.35 Q-19.95 6.95 -23.6 4.85 -26.3 3.25 -27.05 0.3 -27.9 -3.0 -26.15 -6.15 -24.1 -9.9 -20.55 -12.4 -16.95 -14.9 -12.75 -15.9 L-7.9 -16.9 -1.6 -17.85 6.75 -16.7 6.9 -16.55 M4.8 -15.7 L-1.35 -16.05 -1.85 -16.1 Q-7.95 -15.65 -13.7 -13.65 -19.95 -11.55 -23.6 -6.25 -25.25 -3.9 -25.7 -1.1 -24.85 3.95 -19.65 4.25 -13.35 4.7 -7.15 3.05 -4.5 2.3 -2.35 3.55 -2.0 3.75 -1.8 4.1 -1.45 6.85 -4.2 8.2 L-5.05 8.75 Q-7.8 10.9 -6.4 14.05 L-6.2 14.4 Q-3.3 16.9 0.3 15.15 L10.0 10.2 9.95 9.7 Q9.25 6.95 10.15 4.3 11.6 0.15 15.2 -2.1 17.7 -3.65 20.65 -3.3 L20.35 -3.85 20.05 -4.8 20.05 -4.95 Q16.95 -9.3 12.3 -11.95 8.65 -14.1 4.8 -15.7 M-4.1 -12.35 Q0.3 -12.5 4.15 -10.7 L4.2 -10.6 4.2 -10.4 4.05 -10.1 3.9 -10.05 3.1 -9.65 2.6 -8.9 2.4 -8.75 2.1 -8.15 -8.6 -7.9 Q-11.3 -7.8 -13.8 -6.7 -15.3 -6.05 -16.9 -5.7 L-18.55 -5.45 -18.7 -5.65 -18.9 -5.85 -18.95 -6.05 -18.95 -6.4 -18.95 -6.6 -18.85 -6.8 -18.4 -7.15 -18.05 -7.3 Q-12.3 -11.55 -5.1 -12.2 L-4.1 -12.35 M2.0 -10.15 L2.15 -10.35 2.05 -10.35 Q-1.05 -11.25 -4.35 -11.15 -9.05 -10.5 -13.45 -8.9 L-13.85 -8.7 -13.4 -8.8 Q-6.2 -10.3 1.3 -9.2 1.75 -9.6 2.0 -10.15 M22.8 -1.0 L22.6 -0.85 Q19.05 -1.6 16.15 0.0 13.55 1.45 12.3 4.1 10.7 7.45 12.45 10.55 L12.6 11.1 12.4 11.55 Q13.6 13.4 16.0 14.4 17.6 15.05 19.45 14.8 L20.75 14.25 22.3 13.1 Q19.85 11.25 19.95 7.85 20.1 2.75 24.8 0.7 L23.55 -0.6 22.8 -1.0" fill="#999999" fill-rule="evenodd" stroke="none"/>
  </g>
</svg>
