<?xml version="1.0" encoding="UTF-8" standalone="no"?>
<svg xmlns:xlink="http://www.w3.org/1999/xlink" height="40.9px" width="71.8px" xmlns="http://www.w3.org/2000/svg">
  <g transform="matrix(1.0, 0.0, 0.0, 1.0, 40.05, 21.25)">
    <path d="M1.0 -14.45 L0.9 -14.1 Q1.75 -13.6 3.55 -13.2 8.95 -12.0 13.45 -9.1 13.45 -9.65 12.3 -10.55 10.65 -11.85 8.7 -12.55 8.0 -12.8 7.65 -13.35 L7.85 -13.7 5.6 -14.5 1.8 -15.55 1.15 -15.05 1.0 -14.45 M14.25 -10.75 L16.55 -8.25 Q17.2 -7.5 17.1 -6.65 16.9 -6.3 16.4 -6.3 11.6 -9.1 6.45 -11.3 3.35 -12.7 -0.1 -12.95 L-0.3 -13.15 -0.05 -14.1 0.2 -14.45 Q0.25 -15.3 0.85 -15.75 -4.8 -17.05 -10.6 -17.45 L-11.45 -17.5 Q-16.9 -17.5 -22.3 -15.95 L-23.9 -14.65 -24.1 -13.75 -24.85 -13.35 -25.65 -11.6 Q-26.8 -9.05 -26.85 -6.05 -26.85 -4.05 -26.3 -1.95 -25.85 -0.3 -24.75 1.05 -23.15 3.05 -22.6 5.45 -22.45 6.05 -22.85 6.55 -25.55 10.4 -29.8 12.55 -28.5 17.1 -23.65 17.8 L-20.05 17.55 Q-12.35 15.35 -10.0 7.55 L-8.95 4.95 -8.95 4.9 -8.95 4.75 -8.85 4.55 -8.8 4.4 -8.7 4.45 -8.6 4.25 -7.7 4.15 -7.5 4.8 -5.3 5.45 Q3.2 8.05 11.2 12.25 L12.85 12.95 Q21.35 15.7 28.05 10.2 L29.25 8.65 Q30.75 5.65 29.3 2.4 27.75 -1.1 25.1 -3.8 22.3 -6.6 18.7 -8.4 L16.75 -9.5 14.35 -10.85 13.95 -11.05 14.25 -10.75 M7.2 -5.0 Q1.65 -8.55 -4.85 -9.45 L-5.15 -9.35 -5.65 -9.2 Q-5.35 -8.25 -4.6 -7.5 L-4.3 -7.2 9.35 -3.3 7.2 -5.0 M0.55 -4.35 L-4.15 -5.55 Q-7.05 -6.25 -6.6 -9.15 L-6.6 -9.7 -5.75 -10.45 -4.85 -10.85 Q2.65 -10.3 8.85 -5.9 L13.85 -1.9 13.9 -1.7 Q13.95 -1.25 13.6 -0.95 L13.4 -0.9 12.55 -0.9 8.3 -2.35 0.55 -4.35 M20.7 -9.65 Q22.95 -8.35 24.9 -6.75 30.8 -1.85 31.7 5.75 32.0 8.8 29.95 11.15 26.65 14.85 21.55 15.6 14.05 16.65 7.3 13.0 0.8 9.45 -6.1 7.1 L-7.45 6.6 -7.75 7.8 Q-9.05 11.6 -11.7 14.7 -16.85 20.7 -24.8 19.4 -29.65 18.6 -31.2 14.15 L-31.7 13.25 Q-31.55 10.15 -28.2 9.1 L-27.15 8.65 Q-24.85 7.15 -24.45 4.8 L-25.35 3.75 Q-30.15 6.2 -34.9 3.2 L-36.35 2.1 Q-38.95 -0.4 -39.7 -3.9 -40.6 -8.25 -39.25 -12.5 L-38.1 -14.8 Q-34.95 -19.55 -29.6 -21.1 -24.35 -21.9 -21.1 -18.15 -17.2 -20.15 -11.45 -19.6 L-1.55 -18.3 Q5.75 -16.9 12.55 -13.85 16.75 -11.95 20.7 -9.65 M-37.1 -12.85 Q-39.25 -8.9 -38.2 -4.4 -37.7 -2.1 -36.45 -0.25 -33.25 4.45 -27.9 2.9 L-26.3 2.4 Q-28.7 -1.35 -28.75 -6.05 L-28.45 -7.6 Q-26.85 -14.6 -22.15 -17.55 -26.55 -21.15 -32.0 -18.1 -35.3 -16.2 -37.1 -12.85" fill="#999999" fill-rule="evenodd" stroke="none"/>
    <path d="M1.0 -14.45 L1.15 -15.05 1.8 -15.55 5.6 -14.5 7.85 -13.7 7.65 -13.35 Q8.0 -12.8 8.7 -12.55 10.65 -11.85 12.3 -10.55 13.45 -9.65 13.45 -9.1 8.95 -12.0 3.55 -13.2 1.75 -13.6 0.9 -14.1 L1.0 -14.45 M14.35 -10.85 L16.75 -9.5 18.7 -8.4 Q22.3 -6.6 25.1 -3.8 27.75 -1.1 29.3 2.4 30.75 5.65 29.25 8.65 L28.05 10.2 Q21.35 15.7 12.85 12.95 L11.2 12.25 Q3.2 8.05 -5.3 5.45 L-7.5 4.8 -7.7 4.15 -8.6 4.25 -8.7 4.45 -8.8 4.4 -8.85 4.55 -8.95 4.75 -8.95 4.9 -8.95 4.95 -10.0 7.55 Q-12.35 15.35 -20.05 17.55 L-23.65 17.8 Q-28.5 17.1 -29.8 12.55 -25.55 10.4 -22.85 6.55 -22.45 6.05 -22.6 5.45 -23.15 3.05 -24.75 1.05 -25.85 -0.3 -26.3 -1.95 -26.85 -4.05 -26.85 -6.05 -26.8 -9.05 -25.65 -11.6 L-24.85 -13.35 -24.1 -13.75 -23.9 -14.65 -22.3 -15.95 Q-16.9 -17.5 -11.45 -17.5 L-10.6 -17.45 Q-4.8 -17.05 0.85 -15.75 0.25 -15.3 0.2 -14.45 L-0.05 -14.1 -0.3 -13.15 -0.1 -12.95 Q3.35 -12.7 6.45 -11.3 11.6 -9.1 16.4 -6.3 16.9 -6.3 17.1 -6.65 17.2 -7.5 16.55 -8.25 L14.25 -10.75 14.35 -10.85 M0.55 -4.35 L8.3 -2.35 12.55 -0.9 13.4 -0.9 13.6 -0.95 Q13.95 -1.25 13.9 -1.7 L13.85 -1.9 8.85 -5.9 Q2.65 -10.3 -4.85 -10.85 L-5.75 -10.45 -6.6 -9.7 -6.6 -9.15 Q-7.05 -6.25 -4.15 -5.55 L0.55 -4.35 M7.2 -5.0 L9.35 -3.3 -4.3 -7.2 -4.6 -7.5 Q-5.35 -8.25 -5.65 -9.2 L-5.15 -9.35 -4.85 -9.45 Q1.65 -8.55 7.2 -5.0 M-37.1 -12.85 Q-35.3 -16.2 -32.0 -18.1 -26.55 -21.15 -22.15 -17.55 -26.85 -14.6 -28.45 -7.6 L-28.75 -6.05 Q-28.7 -1.35 -26.3 2.4 L-27.9 2.9 Q-33.25 4.45 -36.45 -0.25 -37.7 -2.1 -38.2 -4.4 -39.25 -8.9 -37.1 -12.85" fill="#ffffff" fill-rule="evenodd" stroke="none"/>
  </g>
</svg>
