<?xml version="1.0" encoding="UTF-8" standalone="no"?>
<svg xmlns:xlink="http://www.w3.org/1999/xlink" height="119.2px" width="116.6px" xmlns="http://www.w3.org/2000/svg">
  <g transform="matrix(1.0, 0.0, 0.0, 1.0, 58.3, 59.6)">
    <path d="M58.25 42.25 L58.3 47.95 58.0 48.2 Q57.9 50.8 56.9 53.2 55.85 55.45 54.05 57.2 L53.0 58.1 Q47.7 61.05 42.3 58.2 37.85 55.8 35.55 51.9 33.55 48.55 33.1 44.1 32.4 39.8 32.85 35.25 33.1 31.9 32.95 28.45 L32.9 28.05 32.8 24.65 Q31.5 26.7 29.65 28.25 L28.05 29.4 28.15 29.4 27.2 30.25 27.2 30.3 26.85 30.35 25.95 31.15 25.95 31.1 25.9 31.1 24.9 31.7 Q21.7 33.4 18.25 33.95 L14.7 34.25 14.4 34.45 11.75 34.15 Q8.6 35.35 6.6 38.35 4.1 42.05 1.1 45.15 -4.25 50.65 -11.65 48.6 L-11.7 48.6 -12.65 47.85 -13.75 46.75 -14.55 45.6 Q-14.85 43.35 -14.35 41.1 L-14.3 41.05 Q-14.2 39.05 -13.05 37.1 -10.95 33.6 -12.7 30.1 L-12.7 30.05 Q-17.7 30.85 -22.9 30.25 L-24.85 29.95 -27.8 29.3 Q-33.75 27.8 -38.05 23.8 -40.75 21.25 -42.6 18.15 -44.35 15.15 -45.2 11.9 L-45.6 9.9 Q-52.45 8.75 -55.95 2.6 -60.65 -5.7 -55.9 -13.65 -54.25 -16.35 -51.25 -17.45 L-48.85 -18.3 Q-46.15 -18.65 -43.65 -18.2 -40.35 -17.55 -37.6 -15.6 L-35.95 -14.05 -33.3 -10.6 Q-31.8 -8.3 -31.75 -5.5 L-28.25 -4.55 -28.4 -4.95 Q-29.25 -10.95 -29.05 -16.9 -28.9 -22.75 -27.5 -28.35 L-25.55 -34.65 -24.15 -37.85 -22.75 -40.65 -20.95 -43.15 Q-19.65 -44.65 -18.0 -45.8 -16.3 -47.15 -14.2 -47.7 L-13.15 -48.95 -10.45 -51.8 Q-6.5 -55.9 -1.25 -57.95 1.5 -59.0 4.6 -59.4 13.65 -60.15 22.4 -57.8 L25.15 -56.8 Q29.9 -54.7 33.2 -50.55 35.95 -47.0 38.1 -43.15 L38.75 -41.9 38.9 -41.55 Q42.25 -41.4 45.5 -40.25 L46.05 -40.05 46.3 -39.85 46.45 -39.65 46.6 -39.4 46.65 -39.2 46.65 -39.0 46.55 -38.75 46.5 -38.7 Q49.3 -30.9 50.45 -22.65 L50.9 -19.9 52.2 -10.9 54.4 7.0 56.65 24.65 56.75 25.25 Q58.05 33.75 58.25 42.25 M26.7 -39.35 L27.05 -39.55 Q30.65 -41.1 34.6 -41.4 L37.0 -41.6 37.0 -41.7 36.0 -43.05 35.1 -44.5 Q30.35 -52.3 21.9 -55.8 18.85 -57.15 15.45 -57.35 L13.65 -57.5 Q7.05 -58.2 1.0 -56.55 -6.95 -54.35 -12.35 -48.0 -8.65 -47.8 -6.6 -44.7 -3.75 -40.5 -4.75 -35.35 L-5.0 -35.1 -5.2 -33.75 -5.3 -34.85 -5.8 -35.5 Q-5.85 -40.4 -8.9 -44.05 -9.6 -44.85 -10.4 -45.2 L-12.55 -46.2 -13.75 -45.85 Q-18.0 -44.7 -20.85 -41.2 L-22.0 -39.35 -22.6 -38.2 -22.75 -37.95 Q-27.05 -28.35 -27.85 -17.8 -27.25 -21.75 -25.4 -25.2 L-22.65 -30.15 Q-21.65 -31.95 -20.35 -33.2 -17.15 -36.2 -12.75 -36.0 -12.0 -35.85 -11.25 -35.3 -9.4 -33.7 -9.85 -31.25 -10.3 -22.4 -10.1 -13.45 L-9.5 -0.25 -9.0 3.6 -8.8 3.55 -4.45 2.2 -4.4 2.2 5.6 -1.05 6.25 -1.3 Q10.05 -2.6 13.85 -3.15 L15.95 -3.35 Q19.9 -3.55 23.4 -2.35 27.15 -1.05 30.35 1.85 31.6 2.95 32.3 4.4 L32.25 4.55 32.5 4.8 32.45 4.4 32.3 1.3 Q31.75 -7.75 30.55 -16.6 29.65 -22.9 28.25 -29.0 L28.15 -29.55 23.05 -28.0 21.25 -27.3 21.05 -27.0 20.05 -26.2 19.6 -26.4 19.3 -26.75 19.4 -26.95 19.3 -27.05 19.05 -27.2 Q19.8 -31.15 21.75 -34.7 23.5 -37.85 26.7 -39.35 M-13.65 -34.25 Q-17.5 -34.1 -20.2 -31.25 -21.75 -29.75 -22.75 -27.8 -24.9 -23.7 -26.5 -19.1 L-26.75 -18.25 Q-28.75 -11.95 -27.45 -5.45 L-27.25 -4.45 -27.2 -3.85 -26.9 -3.65 -26.6 -3.85 -26.8 -6.25 -27.05 -7.35 -27.0 -7.45 -26.9 -7.6 -27.0 -8.05 -26.95 -8.5 -24.2 -11.6 -26.8 -13.1 -26.9 -13.1 -26.45 -16.3 -26.45 -17.2 -26.3 -17.45 -26.15 -17.65 -26.15 -17.9 -26.15 -18.15 -25.95 -18.7 -25.95 -18.8 -25.9 -18.9 -25.85 -18.95 -25.45 -19.95 -25.4 -20.2 -24.2 -22.2 -24.05 -22.4 -24.0 -22.55 -23.65 -22.8 -23.35 -23.05 -22.45 -23.65 -21.3 -23.8 Q-20.4 -23.95 -20.0 -23.2 -17.55 -21.4 -17.7 -17.75 L-17.65 -13.25 -16.75 -1.9 -16.35 1.25 -16.35 1.35 -16.15 1.6 Q-16.0 2.75 -16.15 3.8 L-10.55 4.0 -10.6 3.8 -10.75 3.55 -10.9 3.35 -11.8 -12.35 Q-12.15 -21.4 -11.6 -30.35 L-11.55 -31.15 -12.35 -34.2 -13.65 -34.25 M-49.45 -14.2 Q-45.25 -15.5 -41.6 -13.45 -37.55 -11.1 -36.9 -6.65 L-36.25 -6.05 -35.15 -6.1 Q-34.25 -7.05 -34.6 -8.45 -35.95 -13.45 -40.55 -15.7 -44.4 -17.65 -48.55 -16.7 -53.15 -15.8 -55.15 -11.6 L-55.1 -11.2 -55.45 -10.45 -55.25 -8.65 -55.15 -8.55 -54.8 -8.55 Q-53.3 -12.35 -49.65 -13.9 L-49.45 -14.2 M32.75 12.65 L32.6 7.45 Q31.35 6.75 30.65 5.45 L30.35 4.6 Q26.9 1.05 22.1 -0.3 L21.8 -0.35 Q18.95 -1.15 16.05 -1.2 12.7 -1.25 9.3 -0.25 L5.95 0.75 Q2.3 1.9 -1.25 3.45 -6.55 5.7 -12.35 5.85 -15.3 5.85 -17.6 4.75 L-19.95 3.1 -23.35 0.75 -27.15 -2.3 Q-29.25 -4.0 -31.85 -4.15 L-32.05 -4.0 -32.85 -4.15 -32.85 -4.1 -33.0 -4.1 -33.0 -4.2 -34.45 -4.15 Q-36.45 -3.9 -38.0 -3.05 -40.75 -1.7 -42.45 1.35 -44.65 5.2 -43.85 9.65 -42.2 18.5 -35.05 24.25 L-34.2 24.85 Q-22.6 31.0 -9.65 27.65 -2.0 25.6 3.4 20.05 5.15 18.25 6.15 16.05 6.25 15.7 6.5 15.45 4.55 14.55 2.4 14.25 0.35 13.95 -1.2 12.85 L-1.2 12.6 -1.1 12.4 -0.9 12.25 -0.85 12.2 Q7.85 12.0 13.75 18.05 L14.05 18.25 14.4 19.15 Q14.7 19.75 14.55 20.3 L14.45 20.45 14.4 20.55 14.1 20.65 Q11.4 18.25 8.3 16.35 L8.2 16.6 8.3 16.7 8.4 16.85 4.4 26.7 2.2 31.45 2.05 31.6 0.4 34.2 -0.3 35.6 -2.4 38.3 Q-6.25 42.7 -11.9 43.7 L-13.4 43.75 -13.45 43.95 Q-13.2 44.4 -13.25 44.9 L-13.3 45.1 Q-12.8 45.75 -12.55 46.5 -6.0 49.1 -0.9 44.15 2.9 40.55 6.0 36.3 L7.05 35.1 7.25 34.9 7.5 34.65 7.85 34.35 Q10.4 32.8 13.35 32.55 L13.4 32.55 18.15 32.05 Q21.6 31.3 24.8 29.45 L26.25 28.45 26.65 28.1 26.7 28.25 26.75 28.25 29.5 25.35 Q31.45 23.15 32.75 20.55 L32.75 19.3 32.75 12.65 M-10.05 31.15 L-10.1 31.2 Q-10.1 33.35 -10.75 35.3 L-11.15 36.55 -11.25 36.55 -13.2 42.25 Q-7.85 41.35 -4.2 37.75 L-4.85 36.4 Q-5.5 34.05 -5.25 31.55 L-5.05 30.95 Q-4.7 28.8 -3.4 27.15 -7.1 28.85 -10.9 29.7 -10.3 30.35 -10.05 31.15 M4.95 21.3 Q2.7 23.8 -0.35 25.6 L-2.0 26.5 -1.95 26.65 Q-5.2 31.4 -3.1 36.6 L-2.4 35.75 Q-1.45 34.5 -0.8 33.1 L-0.7 33.05 2.35 27.45 4.6 22.25 4.95 21.3" fill="#000000" fill-rule="evenodd" stroke="none"/>
    <path d="M-49.45 -14.2 L-49.65 -13.9 Q-53.3 -12.35 -54.8 -8.55 L-55.15 -8.55 -55.25 -8.65 -55.45 -10.45 -55.1 -11.2 -55.15 -11.6 Q-53.15 -15.8 -48.55 -16.7 -44.4 -17.65 -40.55 -15.7 -35.95 -13.45 -34.6 -8.45 -34.25 -7.05 -35.15 -6.1 L-36.25 -6.05 -36.9 -6.65 Q-37.55 -11.1 -41.6 -13.45 -45.25 -15.5 -49.45 -14.2" fill="#999999" fill-rule="evenodd" stroke="none"/>
    <path d="M-13.65 -34.25 L-12.35 -34.2 -11.55 -31.15 -11.6 -30.35 Q-12.15 -21.4 -11.8 -12.35 L-10.9 3.35 -10.75 3.55 -10.6 3.8 -10.55 4.0 -16.15 3.8 Q-16.0 2.75 -16.15 1.6 L-16.35 1.35 -16.35 1.25 -16.75 -1.9 -17.65 -13.25 -17.7 -17.75 Q-17.55 -21.4 -20.0 -23.2 -20.4 -23.95 -21.3 -23.8 L-22.45 -23.65 -23.35 -23.05 -23.65 -22.8 -24.0 -22.55 -24.05 -22.4 -24.2 -22.2 -25.4 -20.2 -25.45 -19.95 -25.85 -18.95 -25.9 -18.9 -25.95 -18.8 -25.95 -18.7 -26.15 -18.15 -26.15 -17.9 -26.15 -17.65 -26.3 -17.45 -26.45 -17.2 -26.45 -16.3 -26.9 -13.1 -26.8 -13.1 -24.2 -11.6 -26.95 -8.5 -27.0 -8.05 -26.9 -7.6 -27.0 -7.45 -27.05 -7.35 -26.8 -6.25 -26.6 -3.85 -26.9 -3.65 -27.2 -3.85 -27.25 -4.45 -27.45 -5.45 Q-28.75 -11.95 -26.75 -18.25 L-26.5 -19.1 Q-24.9 -23.7 -22.75 -27.8 -21.75 -29.75 -20.2 -31.25 -17.5 -34.1 -13.65 -34.25" fill="#ffffff" fill-rule="evenodd" stroke="none"/>
    <path d="M-22.0 -39.35 L-21.9 -39.25 Q-20.05 -41.4 -16.9 -41.5 -14.2 -41.65 -12.0 -40.25 -11.0 -39.6 -10.25 -38.25 -8.9 -35.6 -8.25 -32.6 L-7.95 -31.4 -7.15 -28.75 Q-6.65 -27.5 -5.35 -27.3 -4.0 -27.1 -3.5 -28.3 L-3.1 -29.3 Q-2.35 -31.05 -2.1 -33.0 -1.8 -35.4 -1.9 -37.85 L-1.95 -39.4 -1.95 -43.05 -1.85 -44.25 Q-1.2 -47.45 1.45 -49.4 L2.7 -50.2 Q5.1 -51.65 8.0 -51.7 L13.8 -51.2 15.35 -50.8 Q21.15 -48.8 24.3 -43.75 L25.1 -42.35 26.25 -40.45 26.7 -39.35 Q23.5 -37.85 21.75 -34.7 19.8 -31.15 19.05 -27.2 L19.3 -27.05 19.4 -26.95 19.3 -26.75 19.6 -26.4 20.05 -26.2 21.05 -27.0 21.25 -27.3 23.05 -28.0 Q25.4 -23.3 25.45 -17.95 L25.5 -14.0 Q25.45 -10.5 24.8 -7.1 22.9 -8.0 20.75 -8.25 L19.25 -8.25 15.65 -7.8 14.4 -7.55 9.05 -5.9 Q3.7 -3.75 -0.65 -0.15 L-4.4 2.2 -4.45 2.2 -8.8 3.55 -9.0 3.6 -9.5 -0.25 -10.1 -13.45 Q-10.3 -22.4 -9.85 -31.25 -9.4 -33.7 -11.25 -35.3 -12.0 -35.85 -12.75 -36.0 -17.15 -36.2 -20.35 -33.2 -21.65 -31.95 -22.65 -30.15 L-25.4 -25.2 Q-27.25 -21.75 -27.85 -17.8 -27.05 -28.35 -22.75 -37.95 L-22.6 -38.2 -22.0 -39.35" fill="#0ecfe4" fill-rule="evenodd" stroke="none"/>
    <path d="M-22.0 -39.35 L-20.85 -41.2 Q-18.0 -44.7 -13.75 -45.85 L-12.55 -46.2 -10.4 -45.2 Q-9.6 -44.85 -8.9 -44.05 -5.85 -40.4 -5.8 -35.5 L-5.3 -34.85 -5.2 -33.75 -5.0 -35.1 -4.75 -35.35 Q-3.75 -40.5 -6.6 -44.7 -8.65 -47.8 -12.35 -48.0 -6.95 -54.35 1.0 -56.55 7.05 -58.2 13.65 -57.5 L15.45 -57.35 Q18.85 -57.15 21.9 -55.8 30.35 -52.3 35.1 -44.5 L36.0 -43.05 37.0 -41.7 37.0 -41.6 34.6 -41.4 Q30.65 -41.1 27.05 -39.55 L26.7 -39.35 26.25 -40.45 25.1 -42.35 24.3 -43.75 Q21.15 -48.8 15.35 -50.8 L13.8 -51.2 8.0 -51.7 Q5.1 -51.65 2.7 -50.2 L1.45 -49.4 Q-1.2 -47.45 -1.85 -44.25 L-1.95 -43.05 -1.95 -39.4 -1.9 -37.85 Q-1.8 -35.4 -2.1 -33.0 -2.35 -31.05 -3.1 -29.3 L-3.5 -28.3 Q-4.0 -27.1 -5.35 -27.3 -6.65 -27.5 -7.15 -28.75 L-7.95 -31.4 -8.25 -32.6 Q-8.9 -35.6 -10.25 -38.25 -11.0 -39.6 -12.0 -40.25 -14.2 -41.65 -16.9 -41.5 -20.05 -41.4 -21.9 -39.25 L-22.0 -39.35 M23.05 -28.0 L28.15 -29.55 28.25 -29.0 Q29.65 -22.9 30.55 -16.6 31.75 -7.75 32.3 1.3 L32.45 4.4 32.3 4.4 Q31.6 2.95 30.35 1.85 27.15 -1.05 23.4 -2.35 19.9 -3.55 15.95 -3.35 L13.85 -3.15 Q10.05 -2.6 6.25 -1.3 L5.6 -1.05 -4.4 2.2 -0.65 -0.15 Q3.7 -3.75 9.05 -5.9 L14.4 -7.55 15.65 -7.8 19.25 -8.25 20.75 -8.25 Q22.9 -8.0 24.8 -7.1 25.45 -10.5 25.5 -14.0 L25.45 -17.95 Q25.4 -23.3 23.05 -28.0" fill="#0db5c8" fill-rule="evenodd" stroke="none"/>
    <path d="M-38.0 -3.05 Q-36.45 -3.9 -34.45 -4.15 L-33.0 -4.2 -33.0 -4.1 -32.85 -4.1 -32.85 -4.15 -32.05 -4.0 -31.85 -4.15 Q-29.25 -4.0 -27.15 -2.3 L-23.35 0.75 -19.95 3.1 -17.6 4.75 Q-15.3 5.85 -12.35 5.85 -6.55 5.7 -1.25 3.45 2.3 1.9 5.95 0.75 L9.3 -0.25 Q12.7 -1.25 16.05 -1.2 18.95 -1.15 21.8 -0.35 L22.1 -0.3 Q26.9 1.05 30.35 4.6 L30.65 5.45 Q31.35 6.75 32.6 7.45 L32.75 12.65 Q31.5 10.9 29.8 9.45 25.9 5.95 20.95 5.2 L16.45 4.8 9.75 5.3 7.45 5.7 Q3.35 6.45 -0.7 7.55 L-10.4 10.45 Q-16.15 12.3 -22.0 11.45 -27.9 10.6 -32.4 6.95 -37.15 3.1 -38.0 -3.05" fill="#c19f79" fill-rule="evenodd" stroke="none"/>
    <path d="M-38.0 -3.05 Q-37.15 3.1 -32.4 6.95 -27.9 10.6 -22.0 11.45 -16.15 12.3 -10.4 10.45 L-0.7 7.55 Q3.35 6.45 7.45 5.7 L9.75 5.3 16.45 4.8 20.95 5.2 Q25.9 5.95 29.8 9.45 31.5 10.9 32.75 12.65 L32.75 19.3 32.75 20.55 Q31.45 23.15 29.5 25.35 L26.75 28.25 26.65 28.1 26.25 28.45 24.8 29.45 Q21.6 31.3 18.15 32.05 L13.4 32.55 13.35 32.55 Q10.4 32.8 7.85 34.35 L7.5 34.65 7.25 34.9 7.05 35.1 6.0 36.3 Q2.9 40.55 -0.9 44.15 -6.0 49.1 -12.55 46.5 -12.8 45.75 -13.3 45.1 L-13.25 44.9 Q-13.2 44.4 -13.45 43.95 L-13.4 43.75 -11.9 43.7 Q-6.25 42.7 -2.4 38.3 L-0.3 35.6 0.4 34.2 2.05 31.6 2.2 31.45 4.4 26.7 8.4 16.85 8.3 16.7 8.2 16.6 8.3 16.35 Q11.4 18.25 14.1 20.65 L14.4 20.55 14.45 20.45 14.55 20.3 Q14.7 19.75 14.4 19.15 L14.05 18.25 13.75 18.05 Q7.85 12.0 -0.85 12.2 L-0.9 12.25 -1.1 12.4 -1.2 12.6 -1.2 12.85 Q0.35 13.95 2.4 14.25 4.55 14.55 6.5 15.45 6.25 15.7 6.15 16.05 5.15 18.25 3.4 20.05 -2.0 25.6 -9.65 27.65 -22.6 31.0 -34.2 24.85 L-35.05 24.25 Q-42.2 18.5 -43.85 9.65 -44.65 5.2 -42.45 1.35 -40.75 -1.7 -38.0 -3.05" fill="#a88b69" fill-rule="evenodd" stroke="none"/>
    <path d="M-10.05 31.15 Q-10.3 30.35 -10.9 29.7 -7.1 28.85 -3.4 27.15 -4.7 28.8 -5.05 30.95 L-5.25 31.55 Q-5.5 34.05 -4.85 36.4 L-4.2 37.75 Q-7.85 41.35 -13.2 42.25 L-11.25 36.55 -11.15 36.55 -10.75 35.3 Q-10.1 33.35 -10.1 31.2 L-10.05 31.15" fill="#cc0000" fill-rule="evenodd" stroke="none"/>
    <path d="M4.95 21.3 L4.6 22.25 2.35 27.45 -0.7 33.05 -0.8 33.1 Q-1.45 34.5 -2.4 35.75 L-3.1 36.6 Q-5.2 31.4 -1.95 26.65 L-2.0 26.5 -0.35 25.6 Q2.7 23.8 4.95 21.3" fill="#ff99cc" fill-rule="evenodd" stroke="none"/>
    <path d="M-21.9 -29.1 L-20.05 -31.4 Q-17.4 -34.25 -13.5 -34.35 L-12.2 -34.35 -11.4 -31.3 -11.45 -30.45 -11.65 -25.2 -12.85 -26.0 Q-17.05 -28.6 -21.9 -29.1" fill="#0db5c8" fill-rule="evenodd" stroke="none"/>
    <path d="M-11.65 -25.2 L-10.85 -24.2 -10.9 -24.05 -11.0 -23.75 -11.1 -23.6 -11.9 -23.55 -13.5 -24.85 -15.65 -26.15 -21.75 -27.85 -23.4 -28.05 -23.55 -28.1 -23.55 -28.15 -25.1 -28.45 -25.35 -28.65 -24.95 -29.1 -24.55 -29.2 -23.95 -29.3 -21.9 -29.1 Q-17.05 -28.6 -12.85 -26.0 L-11.65 -25.2 M-37.9 6.95 L-37.5 6.55 -37.2 6.4 Q-35.45 7.35 -36.9 8.6 L-37.45 8.75 -38.0 8.3 -38.05 7.4 -37.9 6.95 M-37.95 11.05 Q-36.15 11.6 -37.55 12.75 L-38.2 12.85 Q-39.15 12.55 -38.8 11.7 L-38.4 11.15 -37.95 11.1 -37.95 11.05 M-34.25 11.3 Q-33.55 11.35 -33.3 12.0 L-33.3 12.15 Q-33.9 13.75 -34.95 12.3 L-34.9 11.8 Q-34.65 11.35 -34.25 11.3" fill="#000000" fill-rule="evenodd" stroke="none"/>
  </g>
</svg>
