<?xml version="1.0" encoding="UTF-8" standalone="no"?>
<svg xmlns:xlink="http://www.w3.org/1999/xlink" height="15.05px" width="35.05px" xmlns="http://www.w3.org/2000/svg">
  <g transform="matrix(1.0, 0.0, 0.0, 1.0, 20.6, 103.05)">
    <path d="M14.3 -103.0 L14.15 -103.05 14.05 -103.05 13.75 -102.75 13.65 -102.75 13.55 -102.55 Q10.75 -100.0 6.95 -98.95 L4.8 -98.6 Q0.65 -98.35 -3.45 -98.8 -7.6 -99.3 -11.5 -100.6 -13.65 -101.3 -15.6 -102.45 L-15.6 -102.5 -15.65 -102.75 -15.75 -102.8 -15.8 -102.8 -15.85 -102.85 Q-19.4 -102.95 -20.3 -99.65 L-20.6 -98.0 Q-20.6 -96.4 -19.75 -95.1 L-19.6 -95.1 -19.25 -94.75 Q-17.85 -93.5 -16.3 -92.45 -12.9 -90.1 -8.9 -89.05 -3.9 -87.7 1.3 -88.1 4.15 -88.3 6.9 -89.05 L8.75 -89.85 Q10.0 -90.2 11.1 -91.0 12.15 -91.75 12.7 -92.9 14.35 -96.3 14.2 -100.1 L14.15 -102.05 14.35 -102.3 14.3 -103.0 M13.05 -99.8 Q13.15 -97.8 12.65 -95.95 12.0 -93.65 10.45 -92.15 L9.15 -91.35 7.05 -90.2 7.0 -90.05 5.3 -89.65 Q-2.5 -88.15 -10.0 -90.6 -12.95 -91.55 -15.55 -93.3 L-18.3 -95.5 -19.0 -96.1 -19.2 -97.55 -19.25 -98.75 -19.2 -99.95 Q-18.5 -101.25 -17.1 -101.7 L-16.2 -101.9 -16.05 -101.95 Q-13.25 -99.3 -9.3 -98.65 L-7.6 -98.3 -6.15 -98.0 Q0.7 -96.6 7.45 -98.1 9.9 -98.65 12.0 -99.95 L13.1 -100.8 13.05 -99.8" fill="#000000" fill-rule="evenodd" stroke="none"/>
    <path d="M13.05 -99.8 L13.1 -100.8 12.0 -99.95 Q9.9 -98.65 7.45 -98.1 0.7 -96.6 -6.15 -98.0 L-7.6 -98.3 -9.3 -98.65 Q-13.25 -99.3 -16.05 -101.95 L-16.2 -101.9 -17.1 -101.7 Q-18.5 -101.25 -19.2 -99.95 L-19.25 -98.75 -19.2 -97.55 -19.0 -96.1 -18.3 -95.5 -15.55 -93.3 Q-12.95 -91.55 -10.0 -90.6 -2.5 -88.15 5.3 -89.65 L7.0 -90.05 7.05 -90.2 9.15 -91.35 10.45 -92.15 Q12.0 -93.65 12.65 -95.95 13.15 -97.8 13.05 -99.8" fill="#0ecfe4" fill-rule="evenodd" stroke="none"/>
  </g>
</svg>
