<?xml version="1.0" encoding="UTF-8" standalone="no"?>
<svg xmlns:xlink="http://www.w3.org/1999/xlink" height="16.2px" width="37.65px" xmlns="http://www.w3.org/2000/svg">
  <g transform="matrix(1.0, 0.0, 0.0, 1.0, 34.25, 98.95)">
    <path d="M3.3 -98.9 L3.1 -98.95 3.0 -98.95 2.7 -98.65 2.55 -98.6 2.45 -98.4 Q-0.55 -95.65 -4.65 -94.5 L-6.95 -94.15 Q-11.4 -93.9 -15.85 -94.35 -20.25 -94.9 -24.45 -96.3 -26.8 -97.05 -28.9 -98.25 L-28.9 -98.35 -28.95 -98.6 -29.05 -98.65 -29.1 -98.7 -29.15 -98.7 -29.2 -98.75 Q-33.0 -98.85 -34.0 -95.3 L-34.25 -93.55 Q-34.3 -91.8 -33.4 -90.4 L-33.2 -90.4 -32.85 -90.0 Q-31.35 -88.65 -29.65 -87.55 -25.95 -85.0 -21.7 -83.85 -16.3 -82.4 -10.7 -82.85 -7.65 -83.1 -4.65 -83.9 -3.6 -84.2 -2.7 -84.75 -1.35 -85.1 -0.15 -85.95 0.95 -86.8 1.55 -88.05 3.35 -91.7 3.2 -95.8 L3.15 -97.85 3.3 -98.1 Q3.55 -98.5 3.3 -98.9 M1.95 -95.45 Q2.05 -93.3 1.5 -91.3 0.8 -88.85 -0.9 -87.2 L-2.25 -86.35 -4.5 -85.15 -4.6 -85.0 -6.4 -84.5 Q-14.8 -82.9 -22.9 -85.5 -26.05 -86.55 -28.85 -88.45 L-31.8 -90.8 -32.55 -91.45 -32.8 -93.0 -32.85 -94.35 Q-32.75 -94.95 -32.8 -95.6 -32.0 -97.0 -30.55 -97.5 L-29.55 -97.75 -29.35 -97.75 Q-26.4 -94.9 -22.1 -94.2 L-20.25 -93.85 -18.7 -93.5 Q-11.35 -92.0 -4.05 -93.6 -1.45 -94.2 0.8 -95.65 L2.0 -96.55 1.95 -95.45" fill="#000000" fill-rule="evenodd" stroke="none"/>
    <path d="M1.95 -95.45 L2.0 -96.55 0.8 -95.65 Q-1.45 -94.2 -4.05 -93.6 -11.35 -92.0 -18.7 -93.5 L-20.25 -93.85 -22.1 -94.2 Q-26.4 -94.9 -29.35 -97.75 L-29.55 -97.75 -30.55 -97.5 Q-32.0 -97.0 -32.8 -95.6 -32.75 -94.95 -32.85 -94.35 L-32.8 -93.0 -32.55 -91.45 -31.8 -90.8 -28.85 -88.45 Q-26.05 -86.55 -22.9 -85.5 -14.8 -82.9 -6.4 -84.5 L-4.6 -85.0 -4.5 -85.15 -2.25 -86.35 -0.9 -87.2 Q0.8 -88.85 1.5 -91.3 2.05 -93.3 1.95 -95.45" fill="#0ecfe4" fill-rule="evenodd" stroke="none"/>
  </g>
</svg>
