<?xml version="1.0" encoding="UTF-8" standalone="no"?>
<svg xmlns:xlink="http://www.w3.org/1999/xlink" height="12.8px" width="17.95px" xmlns="http://www.w3.org/2000/svg">
  <g transform="matrix(1.0, 0.0, 0.0, 1.0, -28.0, 105.95)">
    <path d="M31.3 -104.65 L31.2 -104.65 30.4 -104.4 30.15 -104.05 29.35 -103.4 Q28.9 -102.25 29.35 -101.2 29.9 -99.95 30.9 -99.0 32.7 -97.25 34.95 -96.1 38.8 -94.1 43.1 -94.6 L43.35 -94.8 44.3 -95.5 44.55 -96.25 Q44.8 -97.15 44.65 -98.05 44.4 -99.55 43.4 -100.75 L43.25 -100.9 43.05 -101.0 38.95 -100.85 Q34.8 -102.1 31.3 -104.65" fill="#0ecfe4" fill-rule="evenodd" stroke="none"/>
    <path d="M31.3 -104.65 Q34.8 -102.1 38.95 -100.85 L43.05 -101.0 43.25 -100.9 43.4 -100.75 Q44.4 -99.55 44.65 -98.05 44.8 -97.15 44.55 -96.25 L44.3 -95.5 43.35 -94.8 43.1 -94.6 Q38.8 -94.1 34.95 -96.1 32.7 -97.25 30.9 -99.0 29.9 -99.95 29.35 -101.2 28.9 -102.25 29.35 -103.4 L30.15 -104.05 30.4 -104.4 31.2 -104.65 31.3 -104.65 M31.3 -105.95 Q28.05 -105.25 28.0 -101.95 27.95 -99.95 29.45 -98.5 L30.05 -97.9 Q33.35 -94.8 37.8 -93.55 L43.85 -93.75 44.3 -93.95 Q46.1 -95.35 45.95 -97.8 45.8 -99.4 45.0 -100.65 44.0 -102.3 42.2 -102.1 39.55 -101.7 37.0 -102.85 35.3 -103.6 33.8 -104.7 L32.45 -105.55 31.3 -105.95" fill="#333333" fill-rule="evenodd" stroke="none"/>
  </g>
</svg>
