<?xml version="1.0" encoding="UTF-8" standalone="no"?>
<svg xmlns:xlink="http://www.w3.org/1999/xlink" height="33.85px" width="20.75px" xmlns="http://www.w3.org/2000/svg">
  <g transform="matrix(1.0, 0.0, 0.0, 1.0, -40.0, 128.15)">
    <path d="M46.85 -95.15 Q49.8 -95.35 51.2 -98.05 L51.5 -99.1 Q51.9 -101.4 50.75 -103.35 49.2 -106.05 46.2 -106.8 L43.55 -106.65 Q43.2 -106.05 42.8 -106.2 L42.3 -105.75 Q41.4 -104.85 41.2 -103.65 L41.15 -103.25 44.15 -102.65 45.9 -101.55 Q47.95 -99.7 47.5 -96.8 L47.4 -96.55 Q47.35 -95.95 46.85 -95.55 L46.85 -95.45 46.85 -95.35 46.85 -95.15 M43.85 -124.45 Q42.8 -122.95 42.15 -121.3 40.6 -117.05 42.15 -112.7 43.1 -110.2 43.65 -107.6 L46.15 -107.75 46.35 -107.7 Q49.75 -106.95 51.5 -103.9 L52.4 -101.7 52.55 -100.9 53.7 -103.3 Q55.65 -106.6 59.6 -106.15 60.3 -107.95 58.8 -109.5 L58.4 -109.7 Q54.25 -110.2 53.15 -114.15 52.55 -116.2 53.1 -118.2 53.75 -120.4 55.95 -121.0 L54.75 -123.6 Q54.0 -124.8 52.85 -125.65 50.3 -127.35 47.1 -126.6 45.05 -126.1 43.85 -124.45" fill="#ffffff" fill-rule="evenodd" stroke="none"/>
    <path d="M41.15 -123.0 Q40.5 -121.35 40.25 -119.65 39.55 -115.2 41.15 -110.95 L42.2 -107.4 42.3 -106.95 40.8 -105.35 Q40.05 -104.15 40.05 -102.75 L40.0 -102.7 40.05 -102.5 40.2 -101.4 40.3 -101.35 40.75 -101.1 41.0 -101.2 41.0 -102.0 Q42.85 -102.1 44.65 -101.35 45.05 -100.9 45.55 -100.65 L46.1 -99.85 46.25 -99.75 Q46.7 -98.8 46.7 -97.75 46.7 -96.65 46.1 -95.8 L46.1 -95.7 46.1 -95.6 45.9 -95.35 45.85 -95.2 45.55 -95.3 45.4 -95.2 45.3 -95.1 45.3 -95.0 45.3 -94.9 45.35 -94.75 Q48.35 -93.5 50.75 -95.8 52.5 -97.45 52.65 -99.55 53.4 -100.25 53.7 -101.4 L54.0 -102.25 Q55.0 -104.2 57.1 -104.8 L59.95 -105.45 60.25 -105.7 Q61.15 -107.2 60.35 -108.95 59.55 -110.8 57.45 -111.15 55.1 -111.5 54.3 -113.8 53.35 -116.4 54.6 -118.75 55.15 -119.85 56.55 -120.1 56.9 -120.15 56.9 -120.55 56.9 -122.15 56.15 -123.55 55.2 -125.2 53.75 -126.45 51.25 -128.55 47.95 -128.05 43.1 -127.45 41.15 -123.0 M43.85 -124.45 Q45.05 -126.1 47.1 -126.6 50.3 -127.35 52.85 -125.65 54.0 -124.8 54.75 -123.6 L55.95 -121.0 Q53.75 -120.4 53.1 -118.2 52.55 -116.2 53.15 -114.15 54.25 -110.2 58.4 -109.7 L58.8 -109.5 Q60.3 -107.95 59.6 -106.15 55.65 -106.6 53.7 -103.3 L52.55 -100.9 52.4 -101.7 51.5 -103.9 Q49.75 -106.95 46.35 -107.7 L46.15 -107.75 43.65 -107.6 Q43.1 -110.2 42.15 -112.7 40.6 -117.05 42.15 -121.3 42.8 -122.95 43.85 -124.45 M46.85 -95.35 L46.85 -95.45 46.85 -95.55 Q47.35 -95.95 47.4 -96.55 L47.5 -96.8 Q47.95 -99.7 45.9 -101.55 L44.15 -102.65 41.15 -103.25 41.2 -103.65 Q41.4 -104.85 42.3 -105.75 L42.8 -106.2 Q43.2 -106.05 43.55 -106.65 L46.2 -106.8 Q49.2 -106.05 50.75 -103.35 51.9 -101.4 51.5 -99.1 L51.2 -98.05 Q49.8 -95.35 46.85 -95.15 L46.7 -95.15 46.85 -95.35" fill="#999999" fill-rule="evenodd" stroke="none"/>
  </g>
</svg>
