<?xml version="1.0" encoding="UTF-8" standalone="no"?>
<svg xmlns:xlink="http://www.w3.org/1999/xlink" height="16.2px" width="37.65px" xmlns="http://www.w3.org/2000/svg">
  <g transform="matrix(1.0, 0.0, 0.0, 1.0, 34.25, 106.75)">
    <path d="M3.3 -105.9 Q3.55 -106.3 3.3 -106.7 L3.1 -106.75 3.0 -106.75 2.7 -106.45 2.55 -106.4 2.45 -106.2 Q-0.55 -103.45 -4.65 -102.3 L-6.95 -101.95 Q-11.4 -101.7 -15.85 -102.15 -20.25 -102.7 -24.45 -104.1 -26.8 -104.85 -28.9 -106.05 L-28.9 -106.15 -28.95 -106.4 -29.05 -106.45 -29.1 -106.5 -29.15 -106.5 -29.2 -106.55 Q-33.0 -106.65 -34.0 -103.1 L-34.25 -101.35 Q-34.3 -99.6 -33.4 -98.2 L-33.2 -98.2 -32.85 -97.8 Q-31.35 -96.45 -29.65 -95.35 -25.95 -92.8 -21.7 -91.65 -16.3 -90.2 -10.7 -90.65 -7.65 -90.9 -4.65 -91.7 -3.6 -92.0 -2.7 -92.55 -1.35 -92.9 -0.15 -93.75 0.95 -94.6 1.55 -95.85 3.35 -99.5 3.2 -103.6 L3.15 -105.65 3.3 -105.9 M1.95 -103.25 Q2.05 -101.1 1.5 -99.1 0.8 -96.65 -0.9 -95.0 L-2.25 -94.15 -4.5 -92.95 -4.6 -92.8 -6.4 -92.3 Q-14.8 -90.7 -22.9 -93.3 -26.05 -94.35 -28.85 -96.25 L-31.8 -98.6 -32.55 -99.25 -32.8 -100.8 -32.85 -102.15 Q-32.75 -102.75 -32.8 -103.4 -32.0 -104.8 -30.55 -105.3 L-29.55 -105.55 -29.35 -105.55 Q-26.4 -102.7 -22.1 -102.0 L-20.25 -101.65 -18.7 -101.3 Q-11.35 -99.8 -4.05 -101.4 -1.45 -102.0 0.8 -103.45 L2.0 -104.35 1.95 -103.25" fill="#000000" fill-rule="evenodd" stroke="none"/>
    <path d="M1.95 -103.25 L2.0 -104.35 0.8 -103.45 Q-1.45 -102.0 -4.05 -101.4 -11.35 -99.8 -18.7 -101.3 L-20.25 -101.65 -22.1 -102.0 Q-26.4 -102.7 -29.35 -105.55 L-29.55 -105.55 -30.55 -105.3 Q-32.0 -104.8 -32.8 -103.4 -32.75 -102.75 -32.85 -102.15 L-32.8 -100.8 -32.55 -99.25 -31.8 -98.6 -28.85 -96.25 Q-26.05 -94.35 -22.9 -93.3 -14.8 -90.7 -6.4 -92.3 L-4.6 -92.8 -4.5 -92.95 -2.25 -94.15 -0.9 -95.0 Q0.8 -96.65 1.5 -99.1 2.05 -101.1 1.95 -103.25" fill="#0ecfe4" fill-rule="evenodd" stroke="none"/>
  </g>
</svg>
