<?xml version="1.0" encoding="UTF-8" standalone="no"?>
<svg xmlns:xlink="http://www.w3.org/1999/xlink" height="33.85px" width="20.75px" xmlns="http://www.w3.org/2000/svg">
  <g transform="matrix(1.0, 0.0, 0.0, 1.0, -40.0, 128.75)">
    <path d="M43.85 -125.05 Q42.8 -123.55 42.15 -121.9 40.6 -117.65 42.15 -113.3 43.1 -110.8 43.65 -108.2 L46.15 -108.35 46.35 -108.3 Q49.75 -107.55 51.5 -104.5 L52.4 -102.3 52.55 -101.5 53.7 -103.9 Q55.65 -107.2 59.6 -106.75 60.3 -108.55 58.8 -110.1 L58.4 -110.3 Q54.25 -110.8 53.15 -114.75 52.55 -116.8 53.1 -118.8 53.75 -121.0 55.95 -121.6 L54.75 -124.2 Q54.0 -125.4 52.85 -126.25 50.3 -127.95 47.1 -127.2 45.05 -126.7 43.85 -125.05 M46.85 -95.75 Q49.8 -95.95 51.2 -98.65 L51.5 -99.7 Q51.9 -102.0 50.75 -103.95 49.2 -106.65 46.2 -107.4 L43.55 -107.25 Q43.2 -106.65 42.8 -106.8 L42.3 -106.35 Q41.4 -105.45 41.2 -104.25 L41.15 -103.85 44.15 -103.25 45.9 -102.15 Q47.95 -100.3 47.5 -97.4 L47.4 -97.15 Q47.35 -96.55 46.85 -96.15 L46.85 -96.05 46.85 -95.95 46.85 -95.75" fill="#ffffff" fill-rule="evenodd" stroke="none"/>
    <path d="M43.85 -125.05 Q45.05 -126.7 47.1 -127.2 50.3 -127.95 52.85 -126.25 54.0 -125.4 54.75 -124.2 L55.95 -121.6 Q53.75 -121.0 53.1 -118.8 52.55 -116.8 53.15 -114.75 54.25 -110.8 58.4 -110.3 L58.8 -110.1 Q60.3 -108.55 59.6 -106.75 55.65 -107.2 53.7 -103.9 L52.55 -101.5 52.4 -102.3 51.5 -104.5 Q49.75 -107.55 46.35 -108.3 L46.15 -108.35 43.65 -108.2 Q43.1 -110.8 42.15 -113.3 40.6 -117.65 42.15 -121.9 42.8 -123.55 43.85 -125.05 M41.15 -123.6 Q40.5 -121.95 40.25 -120.25 39.55 -115.8 41.15 -111.55 L42.2 -108.0 42.3 -107.55 40.8 -105.95 Q40.05 -104.75 40.05 -103.35 L40.0 -103.3 40.05 -103.1 40.2 -102.0 40.3 -101.95 40.75 -101.7 41.0 -101.8 41.0 -102.6 Q42.85 -102.7 44.65 -101.95 45.05 -101.5 45.55 -101.25 L46.1 -100.45 46.25 -100.35 Q46.7 -99.4 46.7 -98.35 46.7 -97.25 46.1 -96.4 L46.1 -96.3 46.1 -96.2 45.9 -95.95 45.85 -95.8 45.55 -95.9 45.4 -95.8 45.3 -95.7 45.3 -95.6 45.3 -95.5 45.35 -95.35 Q48.35 -94.1 50.75 -96.4 52.5 -98.05 52.65 -100.15 53.4 -100.85 53.7 -102.0 L54.0 -102.85 Q55.0 -104.8 57.1 -105.4 L59.95 -106.05 60.25 -106.3 Q61.15 -107.8 60.35 -109.55 59.55 -111.4 57.45 -111.75 55.1 -112.1 54.3 -114.4 53.35 -117.0 54.6 -119.35 55.15 -120.45 56.55 -120.7 56.9 -120.75 56.9 -121.15 56.9 -122.75 56.15 -124.15 55.2 -125.8 53.75 -127.05 51.25 -129.15 47.95 -128.65 43.1 -128.05 41.15 -123.6 M46.85 -95.95 L46.85 -96.05 46.85 -96.15 Q47.35 -96.55 47.4 -97.15 L47.5 -97.4 Q47.95 -100.3 45.9 -102.15 L44.15 -103.25 41.15 -103.85 41.2 -104.25 Q41.4 -105.45 42.3 -106.35 L42.8 -106.8 Q43.2 -106.65 43.55 -107.25 L46.2 -107.4 Q49.2 -106.65 50.75 -103.95 51.9 -102.0 51.5 -99.7 L51.2 -98.65 Q49.8 -95.95 46.85 -95.75 L46.7 -95.75 46.85 -95.95" fill="#999999" fill-rule="evenodd" stroke="none"/>
  </g>
</svg>
