<?xml version="1.0" encoding="UTF-8" standalone="no"?>
<svg xmlns:xlink="http://www.w3.org/1999/xlink" height="34.25px" width="34.05px" xmlns="http://www.w3.org/2000/svg">
  <g transform="matrix(1.0, 0.0, 0.0, 1.0, 59.75, 122.95)">
    <path d="M-51.75 -121.55 Q-48.4 -121.75 -45.25 -120.8 -43.3 -120.2 -41.4 -119.1 -38.7 -117.45 -36.55 -115.3 -34.8 -113.45 -33.45 -111.2 -32.2 -109.0 -31.8 -106.5 L-31.6 -104.25 -31.8 -103.9 -31.8 -103.8 -31.75 -103.7 -31.75 -103.65 Q-32.4 -103.05 -32.65 -102.0 L-32.75 -101.5 -32.8 -101.45 Q-33.05 -99.6 -33.85 -97.95 -34.6 -96.45 -36.0 -95.4 L-38.95 -93.55 -39.3 -93.55 Q-40.55 -93.25 -41.45 -94.1 L-41.5 -94.15 Q-43.15 -95.8 -44.15 -97.9 L-44.5 -98.5 -44.8 -99.0 Q-45.85 -100.7 -47.35 -102.0 -48.4 -104.4 -50.8 -105.85 L-55.35 -108.6 Q-57.15 -109.75 -58.35 -111.45 L-58.35 -111.55 -58.35 -111.7 -58.7 -112.25 -58.8 -112.45 Q-59.25 -115.05 -58.15 -117.4 -56.4 -119.55 -53.95 -120.9 -52.95 -121.5 -51.75 -121.55 M-53.7 -122.5 Q-56.0 -121.8 -57.75 -119.9 L-58.65 -118.9 -59.4 -116.7 -59.65 -114.9 -59.75 -112.45 -59.75 -112.35 Q-59.4 -111.1 -58.5 -110.1 L-55.95 -107.45 Q-53.75 -106.45 -51.85 -105.15 L-51.55 -104.95 -51.1 -104.65 -50.8 -104.5 Q-49.15 -103.1 -47.9 -101.3 L-47.55 -100.85 -46.8 -99.7 -46.45 -99.3 -46.45 -99.1 -45.6 -97.85 -44.95 -96.45 Q-43.75 -93.35 -40.75 -92.1 L-39.45 -91.95 Q-39.15 -91.0 -38.55 -90.3 -37.65 -89.4 -36.2 -88.95 L-35.95 -88.9 Q-33.75 -88.35 -31.65 -89.25 L-31.35 -89.35 -31.2 -89.4 Q-27.3 -91.35 -26.1 -95.7 L-25.95 -96.55 -25.75 -97.6 Q-25.65 -98.4 -25.7 -99.25 -25.75 -100.75 -26.35 -102.1 -27.1 -104.0 -29.0 -104.6 L-30.9 -104.2 -30.9 -104.3 -30.85 -104.4 -30.75 -104.5 Q-30.8 -107.05 -31.55 -109.55 -32.2 -111.75 -33.6 -113.6 -37.1 -118.25 -42.25 -120.7 L-44.4 -121.65 Q-47.8 -122.9 -51.4 -122.95 L-53.7 -122.5 M-46.45 -114.45 Q-47.75 -113.45 -47.5 -111.65 L-46.95 -109.6 -46.4 -108.45 Q-44.8 -105.75 -41.15 -104.9 L-38.0 -103.8 -37.7 -103.65 -36.7 -103.0 -36.4 -102.75 -36.0 -102.3 -35.8 -102.3 -35.4 -102.4 Q-35.35 -103.05 -35.55 -103.5 -35.85 -104.4 -36.85 -104.95 L-37.45 -105.25 -37.95 -105.4 -41.05 -106.3 Q-43.8 -106.85 -45.2 -109.05 L-45.35 -109.3 -45.85 -110.4 Q-46.3 -111.75 -46.05 -113.15 L-45.9 -113.35 -45.4 -113.65 Q-42.0 -111.9 -38.2 -111.9 L-36.9 -111.5 -36.1 -110.95 Q-35.15 -110.15 -34.55 -109.15 -33.8 -107.95 -33.6 -106.4 L-33.65 -106.15 -33.8 -105.85 -33.75 -105.75 -33.6 -105.7 -33.4 -106.0 -33.15 -106.35 Q-32.85 -109.45 -35.1 -111.5 L-36.1 -112.3 -36.7 -112.65 -37.4 -112.9 -41.55 -113.55 Q-42.5 -113.65 -43.35 -114.05 L-45.55 -114.95 -46.05 -114.85 -46.3 -114.75 -46.35 -114.65 -46.4 -114.55 -46.45 -114.45 M-27.75 -102.75 Q-26.65 -100.5 -26.8 -98.1 L-26.95 -97.0 -27.6 -94.8 -28.4 -93.3 -29.8 -91.65 Q-30.95 -90.65 -32.55 -90.2 L-33.25 -90.0 Q-36.45 -89.35 -38.25 -91.85 L-38.55 -92.25 Q-38.25 -92.5 -38.25 -92.85 -35.4 -94.25 -33.4 -96.7 -32.8 -97.5 -32.55 -98.45 L-32.05 -100.3 -31.65 -101.55 -31.4 -102.35 -31.0 -102.9 -30.35 -103.2 -29.75 -103.35 -29.55 -103.35 -29.2 -103.35 Q-28.6 -102.9 -27.95 -102.8 L-27.75 -102.75" fill="#999999" fill-rule="evenodd" stroke="none"/>
    <path d="M-51.75 -121.55 Q-52.95 -121.5 -53.95 -120.9 -56.4 -119.55 -58.15 -117.4 -59.25 -115.05 -58.8 -112.45 L-58.7 -112.25 -58.35 -111.7 -58.35 -111.55 -58.35 -111.45 Q-57.15 -109.75 -55.35 -108.6 L-50.8 -105.85 Q-48.4 -104.4 -47.35 -102.0 -45.85 -100.7 -44.8 -99.0 L-44.5 -98.5 -44.15 -97.9 Q-43.15 -95.8 -41.5 -94.15 L-41.45 -94.1 Q-40.55 -93.25 -39.3 -93.55 L-38.95 -93.55 -36.0 -95.4 Q-34.6 -96.45 -33.85 -97.95 -33.05 -99.6 -32.8 -101.45 L-32.75 -101.5 -32.65 -102.0 Q-32.4 -103.05 -31.75 -103.65 L-31.75 -103.7 -31.8 -103.8 -31.8 -103.9 -31.6 -104.25 -31.8 -106.5 Q-32.2 -109.0 -33.45 -111.2 -34.8 -113.45 -36.55 -115.3 -38.7 -117.45 -41.4 -119.1 -43.3 -120.2 -45.25 -120.8 -48.4 -121.75 -51.75 -121.55 M-46.35 -114.65 L-46.3 -114.75 -46.05 -114.85 -45.55 -114.95 -43.35 -114.05 Q-42.5 -113.65 -41.55 -113.55 L-37.4 -112.9 -36.7 -112.65 -36.1 -112.3 -35.1 -111.5 Q-32.85 -109.45 -33.15 -106.35 L-33.4 -106.0 -33.6 -105.7 -33.75 -105.75 -33.8 -105.85 -33.65 -106.15 -33.6 -106.4 Q-33.8 -107.95 -34.55 -109.15 -35.15 -110.15 -36.1 -110.95 L-36.9 -111.5 -38.2 -111.9 Q-42.0 -111.9 -45.4 -113.65 L-45.9 -113.35 -46.05 -113.15 Q-46.3 -111.75 -45.85 -110.4 L-45.35 -109.3 -45.2 -109.05 Q-43.8 -106.85 -41.05 -106.3 L-37.95 -105.4 -37.45 -105.25 -36.85 -104.95 Q-35.85 -104.4 -35.55 -103.5 -35.35 -103.05 -35.4 -102.4 L-35.8 -102.3 -36.0 -102.3 -36.4 -102.75 -36.7 -103.0 -37.7 -103.65 -38.0 -103.8 -41.15 -104.9 Q-44.8 -105.75 -46.4 -108.45 L-46.95 -109.6 -47.5 -111.65 Q-47.75 -113.45 -46.45 -114.45 L-46.35 -114.65 M-27.75 -102.75 L-27.95 -102.8 Q-28.6 -102.9 -29.2 -103.35 L-29.55 -103.35 -29.75 -103.35 -30.35 -103.2 -31.0 -102.9 -31.4 -102.35 -31.65 -101.55 -32.05 -100.3 -32.55 -98.45 Q-32.8 -97.5 -33.4 -96.7 -35.4 -94.25 -38.25 -92.85 -38.25 -92.5 -38.55 -92.25 L-38.25 -91.85 Q-36.45 -89.35 -33.25 -90.0 L-32.55 -90.2 Q-30.95 -90.65 -29.8 -91.65 L-28.4 -93.3 -27.6 -94.8 -26.95 -97.0 -26.8 -98.1 Q-26.65 -100.5 -27.75 -102.75" fill="#ffffff" fill-rule="evenodd" stroke="none"/>
  </g>
</svg>
