<?xml version="1.0" encoding="UTF-8" standalone="no"?>
<svg xmlns:xlink="http://www.w3.org/1999/xlink" height="13.75px" width="23.15px" xmlns="http://www.w3.org/2000/svg">
  <g transform="matrix(1.0, 0.0, 0.0, 1.0, -24.5, 103.65)">
    <path d="M27.65 -102.4 L27.6 -102.4 27.25 -102.15 Q26.4 -101.2 25.85 -100.05 L25.65 -98.7 Q25.5 -98.0 25.8 -97.45 27.75 -93.8 31.55 -92.2 32.95 -91.6 34.4 -91.45 40.05 -90.65 44.35 -94.35 45.95 -95.7 46.4 -97.8 46.7 -99.15 45.75 -100.2 43.95 -102.1 41.55 -102.05 39.35 -98.35 34.8 -98.8 30.45 -99.2 27.65 -102.4" fill="#0ecfe4" fill-rule="evenodd" stroke="none"/>
    <path d="M27.65 -102.4 Q30.45 -99.2 34.8 -98.8 39.35 -98.35 41.55 -102.05 43.95 -102.1 45.75 -100.2 46.7 -99.15 46.4 -97.8 45.95 -95.7 44.35 -94.35 40.05 -90.65 34.4 -91.45 32.95 -91.6 31.55 -92.2 27.75 -93.8 25.8 -97.45 25.5 -98.0 25.65 -98.7 L25.85 -100.05 Q26.4 -101.2 27.25 -102.15 L27.6 -102.4 27.65 -102.4 M25.55 -101.95 Q23.7 -99.15 25.05 -96.1 25.5 -95.1 26.3 -94.3 28.05 -92.65 30.05 -91.35 34.5 -89.1 39.35 -90.3 42.65 -91.15 45.25 -93.35 48.1 -95.8 47.55 -99.35 47.35 -100.3 46.7 -101.0 45.75 -102.1 44.35 -102.75 43.2 -103.35 41.85 -103.2 L41.75 -103.3 41.65 -103.45 41.55 -103.55 41.45 -103.6 41.0 -103.6 40.55 -103.15 39.95 -102.7 39.95 -102.55 39.95 -102.45 39.95 -102.35 40.05 -102.25 40.2 -102.1 Q37.45 -99.1 33.25 -100.25 31.4 -100.75 30.0 -102.0 L28.2 -103.6 28.05 -103.65 Q26.5 -103.4 25.55 -101.95" fill="#333333" fill-rule="evenodd" stroke="none"/>
  </g>
</svg>
