<?xml version="1.0" encoding="UTF-8" standalone="no"?>
<svg xmlns:xlink="http://www.w3.org/1999/xlink" height="33.85px" width="20.75px" xmlns="http://www.w3.org/2000/svg">
  <g transform="matrix(1.0, 0.0, 0.0, 1.0, -40.0, 129.35)">
    <path d="M43.85 -125.65 Q42.8 -124.15 42.15 -122.5 40.6 -118.25 42.15 -113.9 43.1 -111.4 43.65 -108.8 L46.15 -108.95 46.35 -108.9 Q49.75 -108.15 51.5 -105.1 L52.4 -102.9 52.55 -102.1 53.7 -104.5 Q55.65 -107.8 59.6 -107.35 60.3 -109.15 58.8 -110.7 L58.4 -110.9 Q54.25 -111.4 53.15 -115.35 52.55 -117.4 53.1 -119.4 53.75 -121.6 55.95 -122.2 L54.75 -124.8 Q54.0 -126.0 52.85 -126.85 50.3 -128.55 47.1 -127.8 45.05 -127.3 43.85 -125.65 M46.85 -96.35 Q49.8 -96.55 51.2 -99.25 L51.5 -100.3 Q51.9 -102.6 50.75 -104.55 49.2 -107.25 46.2 -108.0 L43.55 -107.85 Q43.2 -107.25 42.8 -107.4 L42.3 -106.95 Q41.4 -106.05 41.2 -104.85 L41.15 -104.45 44.15 -103.85 45.9 -102.75 Q47.95 -100.9 47.5 -98.0 L47.4 -97.75 Q47.35 -97.15 46.85 -96.75 L46.85 -96.65 46.85 -96.55 46.85 -96.35" fill="#ffffff" fill-rule="evenodd" stroke="none"/>
    <path d="M43.85 -125.65 Q45.05 -127.3 47.1 -127.8 50.3 -128.55 52.85 -126.85 54.0 -126.0 54.75 -124.8 L55.95 -122.2 Q53.75 -121.6 53.1 -119.4 52.55 -117.4 53.15 -115.35 54.25 -111.4 58.4 -110.9 L58.8 -110.7 Q60.3 -109.15 59.6 -107.35 55.65 -107.8 53.7 -104.5 L52.55 -102.1 52.4 -102.9 51.5 -105.1 Q49.75 -108.15 46.35 -108.9 L46.15 -108.95 43.65 -108.8 Q43.1 -111.4 42.15 -113.9 40.6 -118.25 42.15 -122.5 42.8 -124.15 43.85 -125.65 M41.15 -124.2 Q40.5 -122.55 40.25 -120.85 39.55 -116.4 41.15 -112.15 L42.2 -108.6 42.3 -108.15 40.8 -106.55 Q40.05 -105.35 40.05 -103.95 L40.0 -103.9 40.05 -103.7 40.2 -102.6 40.3 -102.55 40.75 -102.3 41.0 -102.4 41.0 -103.2 Q42.85 -103.3 44.65 -102.55 45.05 -102.1 45.55 -101.85 L46.1 -101.05 46.25 -100.95 Q46.7 -100.0 46.7 -98.95 46.7 -97.85 46.1 -97.0 L46.1 -96.9 46.1 -96.8 45.9 -96.55 45.85 -96.4 45.55 -96.5 45.4 -96.4 45.3 -96.3 45.3 -96.2 45.3 -96.1 45.35 -95.95 Q48.35 -94.7 50.75 -97.0 52.5 -98.65 52.65 -100.75 53.4 -101.45 53.7 -102.6 L54.0 -103.45 Q55.0 -105.4 57.1 -106.0 L59.95 -106.65 60.25 -106.9 Q61.15 -108.4 60.35 -110.15 59.55 -112.0 57.45 -112.35 55.1 -112.7 54.3 -115.0 53.35 -117.6 54.6 -119.95 55.15 -121.05 56.55 -121.3 56.9 -121.35 56.9 -121.75 56.9 -123.35 56.15 -124.75 55.2 -126.4 53.75 -127.65 51.25 -129.75 47.95 -129.25 43.1 -128.65 41.15 -124.2 M46.85 -96.55 L46.85 -96.65 46.85 -96.75 Q47.35 -97.15 47.4 -97.75 L47.5 -98.0 Q47.95 -100.9 45.9 -102.75 L44.15 -103.85 41.15 -104.45 41.2 -104.85 Q41.4 -106.05 42.3 -106.95 L42.8 -107.4 Q43.2 -107.25 43.55 -107.85 L46.2 -108.0 Q49.2 -107.25 50.75 -104.55 51.9 -102.6 51.5 -100.3 L51.2 -99.25 Q49.8 -96.55 46.85 -96.35 L46.7 -96.35 46.85 -96.55" fill="#999999" fill-rule="evenodd" stroke="none"/>
  </g>
</svg>
