<?xml version="1.0" encoding="UTF-8" standalone="no"?>
<svg xmlns:xlink="http://www.w3.org/1999/xlink" height="13.75px" width="23.15px" xmlns="http://www.w3.org/2000/svg">
  <g transform="matrix(1.0, 0.0, 0.0, 1.0, -24.5, 104.25)">
    <path d="M27.65 -103.0 L27.6 -103.0 27.25 -102.75 Q26.4 -101.8 25.85 -100.65 L25.65 -99.3 Q25.5 -98.6 25.8 -98.05 27.75 -94.4 31.55 -92.8 32.95 -92.2 34.4 -92.05 40.05 -91.25 44.35 -94.95 45.95 -96.3 46.4 -98.4 46.7 -99.75 45.75 -100.8 43.95 -102.7 41.55 -102.65 39.35 -98.95 34.8 -99.4 30.45 -99.8 27.65 -103.0" fill="#0ecfe4" fill-rule="evenodd" stroke="none"/>
    <path d="M28.05 -104.25 Q26.5 -104.0 25.55 -102.55 23.7 -99.75 25.05 -96.7 25.5 -95.7 26.3 -94.9 28.05 -93.25 30.05 -91.95 34.5 -89.7 39.35 -90.9 42.65 -91.75 45.25 -93.95 48.1 -96.4 47.55 -99.95 47.35 -100.9 46.7 -101.6 45.75 -102.7 44.35 -103.35 43.2 -103.95 41.85 -103.8 L41.75 -103.9 41.65 -104.05 41.55 -104.15 41.45 -104.2 41.0 -104.2 40.55 -103.75 39.95 -103.3 39.95 -103.15 39.95 -103.05 39.95 -102.95 40.05 -102.85 40.2 -102.7 Q37.45 -99.7 33.25 -100.85 31.4 -101.35 30.0 -102.6 L28.2 -104.2 28.05 -104.25 M27.65 -103.0 Q30.45 -99.8 34.8 -99.4 39.35 -98.95 41.55 -102.65 43.95 -102.7 45.75 -100.8 46.7 -99.75 46.4 -98.4 45.95 -96.3 44.35 -94.95 40.05 -91.25 34.4 -92.05 32.95 -92.2 31.55 -92.8 27.75 -94.4 25.8 -98.05 25.5 -98.6 25.65 -99.3 L25.85 -100.65 Q26.4 -101.8 27.25 -102.75 L27.6 -103.0 27.65 -103.0" fill="#333333" fill-rule="evenodd" stroke="none"/>
  </g>
</svg>
