<?xml version="1.0" encoding="UTF-8" standalone="no"?>
<svg xmlns:xlink="http://www.w3.org/1999/xlink" height="12.65px" width="25.15px" xmlns="http://www.w3.org/2000/svg">
  <g transform="matrix(1.0, 0.0, 0.0, 1.0, -27.05, 115.7)">
    <path d="M28.6 -108.55 L30.15 -110.55 Q32.7 -112.3 35.55 -113.35 L36.65 -113.8 Q39.15 -114.6 41.85 -114.4 46.45 -114.5 50.2 -112.0 L51.05 -111.25 51.35 -111.2 51.45 -110.3 Q51.35 -109.0 50.85 -107.85 L50.15 -106.6 50.0 -106.45 49.9 -106.35 49.8 -106.25 49.7 -106.15 49.35 -105.9 49.1 -105.9 Q44.15 -108.85 38.45 -107.6 L36.35 -107.2 Q35.1 -106.55 33.95 -105.65 32.75 -104.7 31.35 -104.15 28.7 -104.4 28.25 -106.9 28.1 -107.75 28.6 -108.55 M27.1 -106.5 Q27.35 -105.0 28.65 -103.95 L33.2 -103.85 36.8 -106.05 Q41.85 -107.7 46.7 -105.9 L48.8 -104.95 48.9 -104.95 49.55 -104.95 49.7 -105.05 49.9 -105.15 50.1 -105.25 Q50.4 -105.35 50.55 -105.6 L50.6 -105.7 50.75 -105.85 50.9 -105.95 51.0 -106.05 51.1 -106.3 51.15 -106.4 51.35 -106.5 Q51.95 -107.7 52.1 -109.0 52.3 -110.5 52.0 -112.0 L51.35 -112.9 Q46.95 -115.75 41.7 -115.7 37.2 -115.65 33.2 -113.7 L31.85 -113.05 Q28.55 -111.35 27.2 -107.95 27.0 -107.25 27.1 -106.5" fill="#333333" fill-rule="evenodd" stroke="none"/>
    <path d="M28.6 -108.55 Q28.1 -107.75 28.25 -106.9 28.7 -104.4 31.35 -104.15 32.75 -104.7 33.95 -105.65 35.1 -106.55 36.35 -107.2 L38.45 -107.6 Q44.15 -108.85 49.1 -105.9 L49.35 -105.9 49.7 -106.15 49.8 -106.25 49.9 -106.35 50.0 -106.45 50.15 -106.6 50.85 -107.85 Q51.35 -109.0 51.45 -110.3 L51.35 -111.2 51.05 -111.25 50.2 -112.0 Q46.45 -114.5 41.85 -114.4 39.15 -114.6 36.65 -113.8 L35.55 -113.35 Q32.7 -112.3 30.15 -110.55 L28.6 -108.55" fill="#0ecfe4" fill-rule="evenodd" stroke="none"/>
  </g>
</svg>
