<?xml version="1.0" encoding="UTF-8" standalone="no"?>
<svg xmlns:xlink="http://www.w3.org/1999/xlink" height="31.5px" width="38.7px" xmlns="http://www.w3.org/2000/svg">
  <g transform="matrix(1.0, 0.0, 0.0, 1.0, -25.95, 124.55)">
    <path d="M26.65 -103.9 Q25.05 -100.8 27.0 -98.05 L27.35 -97.65 27.8 -97.2 Q28.35 -95.85 29.75 -95.0 35.3 -91.65 41.3 -94.05 45.45 -95.65 47.85 -99.35 L48.7 -101.05 48.9 -102.35 Q48.8 -104.95 46.45 -106.4 L44.55 -107.3 44.15 -107.3 44.1 -107.35 44.05 -107.3 43.1 -106.95 43.05 -106.85 43.0 -106.75 43.0 -106.6 43.05 -106.5 43.15 -106.45 43.35 -106.3 43.4 -106.3 Q40.85 -102.55 36.15 -103.35 34.8 -103.6 33.75 -104.6 31.25 -107.0 28.2 -105.45 27.15 -104.95 26.65 -103.9 M27.3 -99.8 Q26.75 -102.15 28.3 -103.95 L29.1 -104.5 Q31.4 -105.3 33.2 -103.55 L34.15 -102.85 Q37.4 -100.95 40.95 -102.55 43.55 -103.7 44.3 -106.2 45.75 -105.95 46.85 -104.7 48.3 -103.05 47.35 -101.1 L46.55 -99.75 Q43.25 -95.0 37.4 -94.35 33.45 -93.95 30.15 -96.2 L28.8 -97.3 Q29.0 -98.2 27.95 -99.0 L27.6 -99.35 27.3 -99.8" fill="#333333" fill-rule="evenodd" stroke="none"/>
    <path d="M27.3 -99.8 L27.6 -99.35 27.95 -99.0 Q29.0 -98.2 28.8 -97.3 L30.15 -96.2 Q33.45 -93.95 37.4 -94.35 43.25 -95.0 46.55 -99.75 L47.35 -101.1 Q48.3 -103.05 46.85 -104.7 45.75 -105.95 44.3 -106.2 43.55 -103.7 40.95 -102.55 37.4 -100.95 34.15 -102.85 L33.2 -103.55 Q31.4 -105.3 29.1 -104.5 L28.3 -103.95 Q26.75 -102.15 27.3 -99.8" fill="#0ecfe4" fill-rule="evenodd" stroke="none"/>
    <path d="M52.5 -119.95 Q51.3 -119.25 50.5 -118.15 49.65 -117.0 49.25 -115.65 L49.2 -115.55 49.15 -115.45 49.35 -115.05 49.55 -114.85 50.3 -114.3 Q50.2 -116.45 51.3 -118.2 L51.65 -118.8 Q52.0 -119.45 52.5 -119.95 M53.25 -120.15 Q52.05 -119.05 51.2 -117.6 L50.85 -116.7 Q50.55 -115.4 50.55 -114.05 L50.65 -113.85 50.55 -113.8 50.55 -113.65 50.45 -113.65 50.4 -113.65 50.35 -113.8 50.2 -113.9 49.15 -114.75 49.1 -114.9 49.0 -115.2 48.9 -115.25 48.9 -115.3 48.9 -115.45 Q49.5 -117.6 51.1 -119.2 52.65 -120.8 54.85 -121.4 L54.95 -121.35 55.0 -121.2 54.9 -121.15 54.85 -121.1 Q53.9 -120.8 53.25 -120.15 M48.15 -119.5 Q47.2 -118.4 46.65 -117.1 45.8 -114.95 45.3 -112.65 L44.65 -110.05 46.65 -110.35 Q48.95 -110.2 50.7 -108.7 L52.05 -107.05 52.75 -104.8 54.0 -105.2 Q56.65 -105.7 59.1 -104.65 59.5 -105.05 59.7 -105.6 60.0 -106.45 59.75 -107.3 L59.6 -108.0 59.3 -108.35 59.25 -108.45 59.15 -108.55 59.1 -108.7 58.65 -108.85 58.25 -108.9 Q56.6 -108.65 55.65 -109.6 55.6 -110.85 56.4 -111.9 58.2 -114.15 61.25 -114.05 L61.8 -114.15 Q63.75 -115.15 63.7 -117.55 63.65 -118.6 63.2 -119.5 62.1 -121.7 59.8 -122.8 L58.45 -123.25 Q52.25 -124.15 48.15 -119.5 M48.5 -100.35 L48.45 -100.25 48.45 -100.2 48.5 -100.15 48.45 -100.2 48.35 -100.2 47.95 -100.05 Q47.8 -99.9 48.15 -99.6 L48.25 -99.5 48.7 -99.5 48.75 -99.55 48.8 -99.55 49.25 -99.6 49.3 -99.65 49.35 -99.7 Q50.65 -100.15 51.4 -101.35 52.0 -102.4 51.9 -103.55 L51.8 -103.8 51.75 -104.05 51.8 -104.1 51.3 -106.05 Q50.2 -108.75 47.25 -109.3 45.7 -109.35 44.25 -108.7 L43.7 -108.25 42.8 -107.4 Q42.35 -106.6 42.35 -105.75 45.0 -106.45 47.15 -104.55 48.3 -103.5 48.75 -101.95 L48.95 -101.35 48.5 -100.35" fill="#ffffff" fill-rule="evenodd" stroke="none"/>
    <path d="M48.15 -119.5 Q52.25 -124.15 58.45 -123.25 L59.8 -122.8 Q62.1 -121.7 63.2 -119.5 63.65 -118.6 63.7 -117.55 63.75 -115.15 61.8 -114.15 L61.25 -114.05 Q58.2 -114.15 56.4 -111.9 55.6 -110.85 55.65 -109.6 56.6 -108.65 58.25 -108.9 L58.65 -108.85 59.1 -108.7 59.15 -108.55 59.25 -108.45 59.3 -108.35 59.6 -108.0 59.75 -107.3 Q60.0 -106.45 59.7 -105.6 59.5 -105.05 59.1 -104.65 56.65 -105.7 54.0 -105.2 L52.75 -104.8 52.05 -107.05 50.7 -108.7 Q48.95 -110.2 46.65 -110.35 L44.65 -110.05 45.3 -112.65 Q45.8 -114.95 46.65 -117.1 47.2 -118.4 48.15 -119.5 M53.25 -120.15 Q53.9 -120.8 54.85 -121.1 L54.9 -121.15 55.0 -121.2 54.95 -121.35 54.85 -121.4 Q52.65 -120.8 51.1 -119.2 49.5 -117.6 48.9 -115.45 L48.9 -115.3 48.9 -115.25 49.0 -115.2 49.1 -114.9 49.15 -114.75 50.2 -113.9 50.35 -113.8 50.4 -113.65 50.45 -113.65 50.55 -113.65 50.55 -113.8 50.65 -113.85 50.55 -114.05 Q50.55 -115.4 50.85 -116.7 L51.2 -117.6 Q52.05 -119.05 53.25 -120.15 M52.5 -119.95 Q52.0 -119.45 51.65 -118.8 L51.3 -118.2 Q50.2 -116.45 50.3 -114.3 L49.55 -114.85 49.35 -115.05 49.15 -115.45 49.2 -115.55 49.25 -115.65 Q49.65 -117.0 50.5 -118.15 51.3 -119.25 52.5 -119.95 M47.95 -100.05 L47.7 -100.1 47.4 -100.05 47.25 -99.9 47.15 -99.85 Q47.45 -98.5 49.2 -98.95 L50.15 -99.3 Q51.4 -100.25 52.15 -101.7 L52.35 -102.55 Q52.3 -103.7 53.3 -103.8 55.4 -104.85 57.85 -103.75 59.35 -103.1 60.15 -104.55 61.45 -106.8 60.15 -108.9 59.6 -109.8 58.5 -109.95 L56.75 -110.05 Q57.45 -112.55 60.2 -112.8 L62.15 -113.25 Q64.5 -114.3 64.65 -116.9 64.75 -118.7 63.95 -120.3 63.45 -121.35 62.55 -122.1 60.6 -123.85 58.2 -124.45 53.6 -124.95 49.8 -122.4 45.85 -119.8 44.9 -115.2 44.4 -112.7 44.3 -110.2 L44.3 -109.9 Q42.75 -109.25 41.85 -107.65 41.45 -107.0 41.4 -106.2 41.35 -105.5 41.45 -104.8 L41.55 -104.65 41.6 -104.55 41.75 -104.45 42.1 -104.35 42.2 -104.35 42.4 -104.35 42.5 -104.5 42.5 -104.6 42.5 -104.7 42.5 -104.8 42.45 -104.95 Q44.1 -105.7 45.65 -104.5 46.95 -103.55 47.4 -102.1 47.75 -101.05 48.5 -100.35 L48.95 -101.35 48.75 -101.95 Q48.3 -103.5 47.15 -104.55 45.0 -106.45 42.35 -105.75 42.35 -106.6 42.8 -107.4 L43.7 -108.25 44.25 -108.7 Q45.7 -109.35 47.25 -109.3 50.2 -108.75 51.3 -106.05 L51.8 -104.1 51.75 -104.05 51.8 -103.8 51.9 -103.55 Q52.0 -102.4 51.4 -101.35 50.65 -100.15 49.35 -99.7 L49.3 -99.65 49.25 -99.6 48.8 -99.55 48.75 -99.55 48.7 -99.5 48.25 -99.5 48.15 -99.6 Q47.8 -99.9 47.95 -100.05" fill="#999999" fill-rule="evenodd" stroke="none"/>
  </g>
</svg>
