<?xml version="1.0" encoding="UTF-8" standalone="no"?>
<svg xmlns:xlink="http://www.w3.org/1999/xlink" height="54.1px" width="56.7px" xmlns="http://www.w3.org/2000/svg">
  <g transform="matrix(1.0, 0.0, 0.0, 1.0, 28.35, 27.05)">
    <path d="M25.65 -5.75 Q28.3 -1.8 28.35 2.9 28.45 8.0 25.3 12.2 L24.35 13.25 Q22.25 14.9 19.55 15.35 15.3 15.95 11.85 12.4 11.1 11.65 10.7 10.65 L10.7 10.45 Q8.25 10.25 5.8 10.55 L3.95 11.0 Q-1.35 13.0 -4.95 17.5 -6.95 20.05 -8.5 22.9 L-9.3 24.1 Q-10.7 25.95 -12.8 27.05 -19.1 27.2 -23.25 22.55 -26.6 18.8 -27.6 14.05 -29.1 6.95 -27.5 -0.15 -26.4 -4.9 -22.8 -8.15 -18.75 -11.75 -13.7 -12.65 L-7.75 -12.7 -8.2 -15.9 Q-8.45 -18.05 -7.8 -20.3 -7.0 -23.0 -4.9 -25.1 -3.4 -26.6 -1.3 -26.95 0.1 -27.25 1.5 -26.5 3.65 -25.35 4.75 -23.0 L5.4 -21.05 Q6.5 -16.75 9.65 -13.85 L10.0 -13.65 13.8 -11.0 15.55 -11.85 15.7 -11.9 19.55 -10.9 Q23.35 -9.25 25.65 -5.75 M2.45 -24.2 Q1.05 -25.55 -1.0 -25.55 -3.85 -25.0 -5.4 -22.5 -8.0 -18.25 -6.5 -13.3 L-5.25 -10.3 Q-4.25 -8.5 -2.55 -6.9 L-0.65 -5.45 Q3.3 -3.0 7.4 -1.95 3.85 -1.75 0.4 -3.6 -4.1 -5.95 -6.55 -10.3 L-7.25 -11.65 -13.7 -10.7 Q-17.0 -9.95 -19.8 -7.95 -24.95 -4.35 -25.9 1.75 -27.1 9.2 -24.8 16.3 L-23.65 18.8 Q-20.7 23.6 -15.25 25.1 L-13.3 25.35 Q-9.25 22.6 -7.3 18.1 L-6.3 16.5 Q-1.3 10.3 6.5 8.65 9.45 8.05 11.85 9.15 16.1 6.5 17.2 1.55 18.55 -4.5 13.9 -8.8 L13.5 -9.15 13.4 -9.25 12.2 -10.3 8.45 -13.15 7.35 -14.35 Q4.2 -19.0 2.45 -24.2 M25.55 -1.9 Q23.85 -6.6 19.55 -9.1 18.3 -9.8 16.8 -10.1 L16.05 -9.95 15.15 -9.7 Q16.95 -7.85 18.2 -5.45 L18.9 -3.65 Q19.7 -0.3 18.7 3.05 L17.9 5.25 Q16.35 8.55 13.3 10.5 L13.2 10.7 12.75 10.65 12.15 10.55 Q14.8 13.8 19.25 13.55 L19.55 13.55 Q21.6 13.35 23.25 12.1 L24.65 10.45 25.75 8.7 25.75 8.15 25.9 7.75 Q27.25 2.85 25.55 -1.9 M-8.2 -5.25 Q-3.75 -2.2 2.1 -1.15 L4.9 -0.75 Q0.35 0.6 -3.8 -1.75 -6.3 -3.1 -8.2 -5.25" fill="#999999" fill-rule="evenodd" stroke="none"/>
    <path d="M25.55 -1.9 Q27.25 2.85 25.9 7.75 L25.75 8.15 25.75 8.7 24.65 10.45 23.25 12.1 Q21.6 13.35 19.55 13.55 L19.25 13.55 Q14.8 13.8 12.15 10.55 L12.75 10.65 13.2 10.7 13.3 10.5 Q16.35 8.55 17.9 5.25 L18.7 3.05 Q19.7 -0.3 18.9 -3.65 L18.2 -5.45 Q16.95 -7.85 15.15 -9.7 L16.05 -9.95 16.8 -10.1 Q18.3 -9.8 19.55 -9.1 23.85 -6.6 25.55 -1.9 M2.45 -24.2 Q4.2 -19.0 7.35 -14.35 L8.45 -13.15 12.2 -10.3 13.4 -9.25 13.5 -9.15 13.9 -8.8 Q18.55 -4.5 17.2 1.55 16.1 6.5 11.85 9.15 9.45 8.05 6.5 8.65 -1.3 10.3 -6.3 16.5 L-7.3 18.1 Q-9.25 22.6 -13.3 25.35 L-15.25 25.1 Q-20.7 23.6 -23.65 18.8 L-24.8 16.3 Q-27.1 9.2 -25.9 1.75 -24.95 -4.35 -19.8 -7.95 -17.0 -9.95 -13.7 -10.7 L-7.25 -11.65 -6.55 -10.3 Q-4.1 -5.95 0.4 -3.6 3.85 -1.75 7.4 -1.95 3.3 -3.0 -0.65 -5.45 L-2.55 -6.9 Q-4.25 -8.5 -5.25 -10.3 L-6.5 -13.3 Q-8.0 -18.25 -5.4 -22.5 -3.85 -25.0 -1.0 -25.55 1.05 -25.55 2.45 -24.2 M-8.2 -5.25 Q-6.3 -3.1 -3.8 -1.75 0.35 0.6 4.9 -0.75 L2.1 -1.15 Q-3.75 -2.2 -8.2 -5.25" fill="#ffffff" fill-rule="evenodd" stroke="none"/>
  </g>
</svg>
