<?xml version="1.0" encoding="UTF-8" standalone="no"?>
<svg xmlns:xlink="http://www.w3.org/1999/xlink" height="62.75px" width="43.5px" xmlns="http://www.w3.org/2000/svg">
  <g transform="matrix(1.0, 0.0, 0.0, 1.0, 21.75, 31.35)">
    <path d="M19.25 -9.55 Q19.8 -5.5 18.8 -1.45 17.2 5.05 14.3 11.25 12.85 14.5 12.85 18.0 L10.5 19.35 Q9.25 20.05 7.85 20.45 -1.5 23.1 -9.0 18.25 L-9.4 17.4 -9.4 17.35 -9.45 17.35 Q-11.85 12.5 -17.85 12.15 L-18.45 12.25 -19.25 10.85 -19.85 10.05 -20.0 9.8 -20.2 8.45 Q-20.5 5.6 -18.25 3.5 L-16.7 2.0 -14.95 1.65 -13.7 1.5 Q-12.4 2.0 -11.5 3.0 L-10.05 4.4 -9.4 4.95 -8.45 4.95 Q-7.75 4.45 -7.6 3.55 -5.95 -6.65 -11.55 -15.2 -13.3 -17.85 -11.9 -20.5 -9.1 -25.7 -3.75 -27.75 5.5 -31.3 11.95 -24.55 17.95 -18.25 19.25 -9.55 M1.1 5.4 Q0.5 5.1 0.4 5.75 L0.55 5.95 1.1 6.85 0.95 7.15 0.85 7.4 0.9 7.9 1.2 8.7 1.55 8.9 1.95 8.7 2.1 8.15 2.2 8.0 Q3.3 8.8 4.65 8.9 7.45 7.15 7.2 3.6 6.7 -4.3 2.85 -10.95 L2.2 -11.05 Q1.8 -10.5 1.95 -9.65 2.75 -2.1 1.45 5.45 L1.1 5.4 M2.65 -10.15 Q3.4 -9.55 3.85 -8.05 L5.35 -1.95 Q6.1 1.6 5.65 5.1 5.3 8.55 2.7 6.55 L2.8 6.3 Q3.7 -1.95 2.65 -10.15 M12.25 -10.8 L11.8 -10.9 11.65 -10.7 Q11.2 -10.2 11.1 -9.65 L11.3 -8.8 Q11.8 -1.65 10.65 5.45 L9.9 6.3 9.95 6.55 10.1 7.1 10.05 7.35 9.9 8.15 10.2 8.45 10.7 8.45 11.0 8.3 Q11.95 7.4 13.8 7.75 L14.05 7.3 Q14.9 6.05 15.05 4.55 L15.25 4.3 15.4 4.05 15.4 3.8 Q15.85 -4.15 12.25 -10.8 M13.1 -6.4 Q14.3 -1.6 14.25 3.4 L14.0 3.65 Q14.05 5.2 13.1 6.35 L12.2 6.3 12.2 6.0 Q13.05 -0.05 13.1 -6.4 M-9.4 19.3 Q-2.55 24.55 6.6 22.75 L10.0 22.0 Q11.6 21.55 12.7 20.8 12.3 22.9 11.2 24.7 7.45 31.1 -0.15 29.05 -7.8 27.0 -9.5 19.5 L-9.4 19.3" fill="#ffffff" fill-rule="evenodd" stroke="none"/>
    <path d="M19.25 -9.55 Q17.95 -18.25 11.95 -24.55 5.5 -31.3 -3.75 -27.75 -9.1 -25.7 -11.9 -20.5 -13.3 -17.85 -11.55 -15.2 -5.95 -6.65 -7.6 3.55 -7.75 4.45 -8.45 4.95 L-9.4 4.95 -10.05 4.4 -11.5 3.0 Q-12.4 2.0 -13.7 1.5 L-14.95 1.65 -16.7 2.0 -18.25 3.5 Q-20.5 5.6 -20.2 8.45 L-20.0 9.8 -19.85 10.05 -19.25 10.85 -18.45 12.25 -17.85 12.15 Q-11.85 12.5 -9.45 17.35 L-9.4 17.35 -9.4 17.4 -9.0 18.25 Q-1.5 23.1 7.85 20.45 9.25 20.05 10.5 19.35 L12.85 18.0 Q12.85 14.5 14.3 11.25 17.2 5.05 18.8 -1.45 19.8 -5.5 19.25 -9.55 M21.65 -2.0 Q21.45 0.6 20.35 3.05 17.45 9.45 15.65 16.15 15.4 17.15 15.4 18.25 L15.3 20.4 15.15 20.7 15.0 20.95 Q14.8 21.6 14.75 22.35 14.65 23.45 13.7 24.15 10.0 32.65 0.55 31.2 -2.3 30.8 -4.85 29.3 -10.75 25.85 -11.1 19.05 L-10.85 18.8 -10.65 18.55 -10.6 18.3 -11.1 17.65 -11.0 17.4 -11.45 16.85 Q-14.25 13.3 -19.05 13.2 L-19.3 12.95 -19.2 12.65 Q-23.4 8.8 -20.65 3.6 -17.65 -2.1 -11.5 0.3 L-9.6 1.15 Q-8.75 -3.55 -10.5 -8.1 L-14.2 -17.75 Q-14.6 -18.6 -14.25 -19.45 -10.85 -29.1 -0.95 -31.3 11.0 -32.2 16.95 -22.2 22.45 -12.85 21.65 -2.0 M2.65 -10.15 Q3.7 -1.95 2.8 6.3 L2.7 6.55 Q5.3 8.55 5.65 5.1 6.1 1.6 5.35 -1.95 L3.85 -8.05 Q3.4 -9.55 2.65 -10.15 M1.45 5.45 Q2.75 -2.1 1.95 -9.65 1.8 -10.5 2.2 -11.05 L2.85 -10.95 Q6.7 -4.3 7.2 3.6 7.45 7.15 4.65 8.9 3.3 8.8 2.2 8.0 L2.1 8.15 1.95 8.7 1.55 8.9 1.2 8.7 0.9 7.9 0.85 7.4 0.95 7.15 1.1 6.85 0.55 5.95 0.4 5.75 Q0.5 5.1 1.1 5.4 L1.4 5.6 1.45 5.45 M12.25 -10.8 Q15.85 -4.15 15.4 3.8 L15.4 4.05 15.25 4.3 15.05 4.55 Q14.9 6.05 14.05 7.3 L13.8 7.75 Q11.95 7.4 11.0 8.3 L10.7 8.45 10.2 8.45 9.9 8.15 10.05 7.35 10.1 7.1 9.95 6.55 9.9 6.3 10.65 5.45 Q11.8 -1.65 11.3 -8.8 L11.1 -9.65 Q11.2 -10.2 11.65 -10.7 L11.8 -10.9 12.25 -10.8 M13.1 -6.4 L13.1 -6.45 13.1 -6.4 Q13.05 -0.05 12.2 6.0 L12.2 6.3 13.1 6.35 Q14.05 5.2 14.0 3.65 L14.25 3.4 Q14.3 -1.6 13.1 -6.4 M12.8 -7.35 L12.65 -8.6 12.6 -8.55 Q12.5 -7.95 12.8 -7.45 L12.8 -7.35 M-9.5 19.5 Q-7.8 27.0 -0.15 29.05 7.45 31.1 11.2 24.7 12.3 22.9 12.7 20.8 11.6 21.55 10.0 22.0 L6.6 22.75 Q-2.55 24.55 -9.4 19.3 L-9.45 19.3 -9.5 19.5" fill="#999999" fill-rule="evenodd" stroke="none"/>
  </g>
</svg>
