<?xml version="1.0" encoding="UTF-8" standalone="no"?>
<svg xmlns:xlink="http://www.w3.org/1999/xlink" height="27.55px" width="65.55px" xmlns="http://www.w3.org/2000/svg">
  <g transform="matrix(1.0, 0.0, 0.0, 1.0, -26.05, 71.25)">
    <path d="M82.3 -45.65 Q86.05 -46.25 89.65 -47.9 L89.85 -48.1 90.15 -48.4 90.4 -48.7 90.55 -49.0 90.5 -49.25 90.4 -50.45 90.4 -51.35 90.4 -51.65 90.25 -51.95 90.05 -52.25 Q89.25 -57.4 85.6 -61.35 82.6 -64.7 78.2 -65.9 69.45 -68.3 61.9 -63.0 L62.05 -63.25 Q63.4 -64.7 64.9 -65.75 61.9 -67.95 58.25 -68.9 49.2 -71.15 40.15 -68.85 33.45 -67.15 27.7 -63.5 L27.55 -63.2 27.35 -62.6 27.2 -62.3 27.1 -62.0 27.1 -61.7 27.5 -60.8 Q27.65 -60.3 28.1 -59.9 L28.15 -59.85 28.4 -59.6 28.2 -59.9 Q29.75 -61.0 31.4 -61.9 37.75 -65.35 44.9 -66.75 L48.1 -66.95 49.7 -66.8 53.2 -66.15 Q56.9 -65.1 59.95 -62.65 L60.95 -61.4 Q63.1 -56.75 68.0 -57.05 68.75 -57.15 69.25 -56.75 70.35 -55.95 71.0 -54.65 L72.35 -51.95 Q73.6 -48.9 73.9 -45.8 L81.0 -45.5 81.0 -45.7 81.35 -46.35 81.4 -46.6 81.2 -47.2 Q79.6 -53.85 74.05 -57.95 L74.2 -58.15 75.1 -58.7 75.15 -58.65 75.65 -58.55 77.0 -57.15 Q82.1 -52.45 82.3 -45.7 L82.3 -45.65" fill="#0ecfe4" fill-rule="evenodd" stroke="none"/>
    <path d="M28.4 -59.6 L28.15 -59.85 28.1 -59.9 Q27.65 -60.3 27.5 -60.8 L27.1 -61.7 27.1 -62.0 27.2 -62.3 27.35 -62.6 27.55 -63.2 27.7 -63.5 Q33.45 -67.15 40.15 -68.85 49.2 -71.15 58.25 -68.9 61.9 -67.95 64.9 -65.75 63.4 -64.7 62.05 -63.25 L61.9 -63.0 Q69.45 -68.3 78.2 -65.9 82.6 -64.7 85.6 -61.35 89.25 -57.4 90.05 -52.25 L90.25 -51.95 90.4 -51.65 90.4 -51.35 90.4 -50.45 90.5 -49.25 90.55 -49.0 90.4 -48.7 90.15 -48.4 89.85 -48.1 89.65 -47.9 Q86.05 -46.25 82.3 -45.65 L82.25 -45.65 82.3 -45.7 Q82.1 -52.45 77.0 -57.15 L75.65 -58.55 75.15 -58.65 75.1 -58.7 74.2 -58.15 74.05 -57.95 Q79.6 -53.85 81.2 -47.2 L81.4 -46.6 81.35 -46.35 81.0 -45.7 81.05 -45.5 81.0 -45.5 73.9 -45.8 70.1 -46.7 Q67.0 -47.6 64.3 -49.4 61.7 -51.1 61.2 -53.85 60.25 -55.1 59.5 -56.5 57.6 -60.15 54.05 -62.1 50.15 -63.5 45.95 -63.0 43.1 -63.95 39.5 -62.55 L30.2 -58.95 29.0 -59.0 28.7 -59.3 28.4 -59.6 M64.8 -67.35 Q60.55 -69.95 55.75 -71.1 L55.25 -71.25 Q43.25 -71.55 32.2 -67.2 L29.5 -66.45 Q28.6 -65.75 27.45 -65.3 27.8 -64.8 27.5 -64.7 L27.2 -64.4 26.9 -64.1 26.6 -63.8 26.5 -63.5 26.45 -63.2 26.35 -62.9 26.05 -62.0 Q26.0 -61.35 26.3 -60.75 L26.5 -60.2 26.75 -59.95 27.0 -59.6 27.3 -59.3 27.35 -59.25 28.2 -58.4 28.7 -57.95 Q32.45 -57.8 36.1 -59.7 37.75 -60.55 39.65 -61.0 L44.15 -62.15 44.2 -62.0 44.4 -61.7 Q49.1 -61.65 53.55 -60.6 L53.85 -60.35 54.25 -60.1 55.15 -59.85 56.3 -58.55 Q57.8 -56.7 58.9 -54.45 L59.6 -53.25 Q60.45 -50.2 63.25 -48.45 68.3 -45.3 74.0 -44.25 L79.9 -43.7 Q86.75 -43.65 91.6 -48.2 91.8 -53.4 89.45 -57.95 85.2 -66.2 76.1 -68.55 70.35 -69.05 65.9 -66.4 65.45 -66.95 64.8 -67.35" fill="#000000" fill-rule="evenodd" stroke="none"/>
    <path d="M73.9 -45.8 Q73.6 -48.9 72.35 -51.95 L71.0 -54.65 Q70.35 -55.95 69.25 -56.75 68.75 -57.15 68.0 -57.05 63.1 -56.75 60.95 -61.4 L59.95 -62.65 Q56.9 -65.1 53.2 -66.15 L49.7 -66.8 48.1 -66.95 44.9 -66.75 Q37.75 -65.35 31.4 -61.9 29.75 -61.0 28.2 -59.9 L28.4 -59.6 28.7 -59.3 29.0 -59.0 30.2 -58.95 39.5 -62.55 Q43.1 -63.95 45.95 -63.0 50.15 -63.5 54.05 -62.1 57.6 -60.15 59.5 -56.5 60.25 -55.1 61.2 -53.85 61.7 -51.1 64.3 -49.4 67.0 -47.6 70.1 -46.7 L73.9 -45.8" fill="#0db5c8" fill-rule="evenodd" stroke="none"/>
  </g>
</svg>
