<?xml version="1.0" encoding="UTF-8" standalone="no"?>
<svg xmlns:xlink="http://www.w3.org/1999/xlink" height="136.45px" width="46.4px" xmlns="http://www.w3.org/2000/svg">
  <g transform="matrix(1.0, 0.0, 0.0, 1.0, 23.2, 68.2)">
    <path d="M-20.7 -49.1 Q-19.75 -58.35 -14.4 -66.2 L-9.7 -66.6 Q-7.4 -65.45 -6.45 -63.2 -1.7 -52.2 -3.8 -39.45 -3.3 -34.85 -1.8 -30.4 0.95 -22.5 4.8 -15.2 9.45 -6.5 15.0 1.6 19.55 8.25 20.6 15.95 L20.55 16.15 20.7 17.75 20.6 20.35 20.8 20.2 20.85 21.55 20.9 22.35 21.1 27.6 21.05 31.35 Q20.7 38.7 18.6 45.75 16.5 52.8 12.25 58.8 L11.8 59.5 Q9.15 54.8 7.85 49.55 6.15 42.4 5.7 35.1 L5.55 34.95 5.25 34.35 5.2 34.35 Q4.55 34.55 4.15 35.15 4.0 37.1 4.2 39.1 L4.9 45.5 Q5.9 53.3 10.15 59.95 L10.8 60.7 Q8.15 63.65 4.55 65.2 3.65 62.9 3.05 60.45 0.7 50.8 1.8 40.95 2.55 34.05 4.15 27.45 L4.2 27.45 4.0 27.4 4.85 25.1 5.15 25.05 5.3 25.0 5.25 24.7 6.15 21.75 7.55 15.3 Q8.7 7.75 6.05 0.45 5.1 -2.15 3.75 -4.6 L0.35 -11.15 -1.25 -14.1 Q-3.45 -17.65 -4.8 -21.5 L-7.45 -29.4 -8.3 -32.5 -8.9 -35.8 Q-9.5 -39.0 -9.3 -42.2 -9.2 -43.6 -9.25 -44.95 -9.3 -47.0 -8.6 -48.6 L-9.05 -48.0 -9.4 -47.75 Q-11.1 -47.1 -13.0 -46.75 L-14.2 -46.7 -16.1 -46.85 Q-18.9 -47.2 -20.7 -49.1" fill="#0db5c8" fill-rule="evenodd" stroke="none"/>
    <path d="M-12.7 -68.2 Q-3.3 -68.7 -2.45 -58.35 L-1.25 -39.45 -0.3 -33.95 0.95 -29.6 Q4.0 -21.15 8.55 -13.4 13.1 -5.6 17.95 2.05 22.8 9.7 23.15 18.8 L23.0 18.85 Q22.95 20.55 23.05 22.25 23.45 29.35 22.75 36.45 L22.3 40.25 Q21.0 47.9 17.35 54.8 15.85 57.6 13.9 60.15 10.55 64.5 5.85 67.15 L5.45 67.4 Q1.4 69.35 -2.55 66.85 L-6.9 63.6 Q-11.9 59.15 -15.2 53.35 -17.5 49.35 -19.25 45.1 -21.85 38.95 -22.5 32.35 L-22.65 30.95 Q-22.15 29.55 -22.75 27.85 L-23.0 27.15 -22.95 27.15 -23.15 23.35 Q-23.55 15.75 -21.6 8.5 L-20.9 6.25 -21.1 6.25 -20.8 5.75 -20.75 5.8 -19.25 1.55 Q-18.1 -1.15 -16.3 -3.35 L-16.75 -3.4 -16.3 -3.95 Q-16.0 -4.6 -16.0 -5.1 L-15.65 -5.05 Q-18.45 -9.55 -19.7 -14.8 -21.9 -23.65 -22.45 -32.65 L-22.7 -39.45 Q-24.05 -53.7 -17.55 -65.3 -15.95 -68.15 -12.7 -68.2 M4.55 65.2 Q8.15 63.65 10.8 60.7 L10.15 59.95 Q5.9 53.3 4.9 45.5 L4.2 39.1 Q4.0 37.1 4.15 35.15 4.55 34.55 5.2 34.35 L5.25 34.35 5.55 34.95 5.7 35.1 Q6.15 42.4 7.85 49.55 9.15 54.8 11.8 59.5 L12.25 58.8 Q16.5 52.8 18.6 45.75 20.7 38.7 21.05 31.35 L21.1 27.6 20.9 22.35 20.85 21.55 20.8 20.2 20.6 20.35 20.7 17.75 20.55 16.15 20.6 15.95 Q19.55 8.25 15.0 1.6 9.45 -6.5 4.8 -15.2 0.95 -22.5 -1.8 -30.4 -3.3 -34.85 -3.8 -39.45 -1.7 -52.2 -6.45 -63.2 -7.4 -65.45 -9.7 -66.6 L-14.4 -66.2 Q-19.75 -58.35 -20.7 -49.1 -21.25 -44.45 -20.6 -39.45 -20.5 -33.3 -19.65 -27.15 -18.4 -18.3 -15.3 -9.9 L-13.9 -6.5 -13.8 -6.1 Q-13.05 -4.95 -11.9 -3.95 -7.85 -0.55 -2.9 -2.55 L-1.65 -2.65 -0.9 -2.65 -0.75 -2.45 -0.65 -2.3 Q-1.0 -1.9 -1.5 -1.7 -4.85 0.85 -9.25 -0.25 -12.0 -1.7 -13.95 -3.95 L-14.15 -4.25 -14.85 -3.1 Q-18.15 1.9 -19.7 7.75 -21.6 14.9 -21.35 22.4 L-21.05 27.3 -20.8 27.35 -20.65 29.5 -20.85 29.5 -19.6 37.05 Q-18.05 44.35 -14.25 50.8 L-12.9 53.0 Q-14.1 47.05 -13.3 40.95 -12.75 37.15 -11.75 33.45 -11.2 31.45 -10.2 29.85 L-9.05 29.1 Q-8.35 29.25 -7.85 29.7 -10.75 35.15 -11.3 41.45 -11.7 46.4 -11.55 51.4 -11.45 53.95 -10.35 56.1 L-10.45 56.3 -10.5 56.4 -7.4 60.15 Q-5.2 62.65 -2.35 64.4 0.15 65.95 2.65 65.8 L3.25 65.7 4.55 65.2 M4.0 27.4 L4.2 27.45 4.15 27.45 3.95 27.5 4.0 27.4" fill="#000000" fill-rule="evenodd" stroke="none"/>
    <path d="M-20.7 -49.1 Q-18.9 -47.2 -16.1 -46.85 L-14.2 -46.7 -13.0 -46.75 Q-11.1 -47.1 -9.4 -47.75 L-9.05 -48.0 -8.6 -48.6 Q-9.3 -47.0 -9.25 -44.95 -9.2 -43.6 -9.3 -42.2 -9.5 -39.0 -8.9 -35.8 L-8.3 -32.5 -7.45 -29.4 -4.8 -21.5 Q-3.45 -17.65 -1.25 -14.1 L0.35 -11.15 3.75 -4.6 Q5.1 -2.15 6.05 0.45 8.7 7.75 7.55 15.3 L6.15 21.75 5.25 24.7 5.3 25.0 5.15 25.05 4.85 25.1 4.0 27.4 3.95 27.5 4.15 27.45 Q2.55 34.05 1.8 40.95 0.7 50.8 3.05 60.45 3.65 62.9 4.55 65.2 L3.25 65.7 2.65 65.8 Q0.15 65.95 -2.35 64.4 -5.2 62.65 -7.4 60.15 L-10.5 56.4 -10.45 56.3 -10.35 56.1 Q-11.45 53.95 -11.55 51.4 -11.7 46.4 -11.3 41.45 -10.75 35.15 -7.85 29.7 -8.35 29.25 -9.05 29.1 L-10.2 29.85 Q-11.2 31.45 -11.75 33.45 -12.75 37.15 -13.3 40.95 -14.1 47.05 -12.9 53.0 L-14.25 50.8 Q-18.05 44.35 -19.6 37.05 L-20.85 29.5 -20.65 29.5 -20.8 27.35 -21.05 27.3 -21.35 22.4 Q-21.6 14.9 -19.7 7.75 -18.15 1.9 -14.85 -3.1 L-14.15 -4.25 -13.95 -3.95 Q-12.0 -1.7 -9.25 -0.25 -4.85 0.85 -1.5 -1.7 -1.0 -1.9 -0.65 -2.3 L-0.75 -2.45 -0.9 -2.65 -1.65 -2.65 -2.9 -2.55 Q-7.85 -0.55 -11.9 -3.95 -13.05 -4.95 -13.8 -6.1 L-13.9 -6.5 -15.3 -9.9 Q-18.4 -18.3 -19.65 -27.15 -20.5 -33.3 -20.6 -39.45 -21.25 -44.45 -20.7 -49.1" fill="#0ecfe4" fill-rule="evenodd" stroke="none"/>
  </g>
</svg>
