<?xml version="1.0" encoding="UTF-8" standalone="no"?>
<svg xmlns:xlink="http://www.w3.org/1999/xlink" height="44.3px" width="41.9px" xmlns="http://www.w3.org/2000/svg">
  <g transform="matrix(1.0, 0.0, 0.0, 1.0, 20.85, 22.1)">
    <path d="M1.6 -20.25 L1.3 -19.8 Q-4.6 -9.7 3.25 -3.0 L-0.55 13.7 -10.3 13.7 Q-15.65 7.55 -15.4 -0.65 L-14.95 -2.65 Q-11.85 -9.95 -13.7 -16.9 -8.0 -21.35 -0.85 -20.8 L1.6 -20.25" fill="#eff0f8" fill-rule="evenodd" stroke="none"/>
    <path d="M1.6 -20.25 Q5.6 -18.35 8.7 -15.25 14.15 -10.0 19.95 -5.05 L19.65 -4.15 19.25 -3.35 Q17.6 -0.6 15.35 1.8 L14.85 0.95 14.2 0.2 13.45 -0.45 12.6 -1.0 Q10.9 -2.2 8.95 -1.95 L8.25 20.45 -8.75 20.6 Q-14.75 14.95 -19.4 8.0 -18.35 -2.45 -16.1 -12.65 -15.6 -15.05 -13.7 -16.9 -11.85 -9.95 -14.95 -2.65 L-15.4 -0.65 Q-15.65 7.55 -10.3 13.7 L-0.55 13.7 3.25 -3.0 Q-4.6 -9.7 1.3 -19.8 L1.6 -20.25" fill="#d7d9ee" fill-rule="evenodd" stroke="none"/>
    <path d="M-13.7 -16.9 Q-15.6 -15.05 -16.1 -12.65 -18.35 -2.45 -19.4 8.0 -14.75 14.95 -8.75 20.6 L8.25 20.45 8.95 -1.95 Q10.9 -2.2 12.6 -1.0 L13.45 -0.45 14.2 0.2 14.85 0.95 15.35 1.8 Q17.6 -0.6 19.25 -3.35 L19.65 -4.15 19.95 -5.05 Q14.15 -10.0 8.7 -15.25 5.6 -18.35 1.6 -20.25 L-0.85 -20.8 Q-8.0 -21.35 -13.7 -16.9 M19.9 -2.85 Q18.25 0.45 15.8 3.25 L10.15 -0.8 Q10.35 10.55 9.45 21.85 L-8.9 22.2 Q-12.2 20.6 -14.35 17.95 -17.6 13.95 -20.2 9.6 L-20.85 9.25 Q-20.8 0.95 -19.1 -6.95 L-17.45 -13.0 Q-17.0 -14.4 -16.05 -15.5 L-12.95 -18.5 Q-7.85 -22.35 -1.5 -22.1 3.6 -21.4 7.5 -18.05 L21.05 -5.65 19.9 -2.85" fill="#000000" fill-rule="evenodd" stroke="none"/>
  </g>
</svg>
