<?xml version="1.0" encoding="UTF-8" standalone="no"?>
<svg xmlns:xlink="http://www.w3.org/1999/xlink" height="32.05px" width="38.65px" xmlns="http://www.w3.org/2000/svg">
  <g transform="matrix(1.0, 0.0, 0.0, 1.0, -21.85, 104.5)">
    <path d="M56.35 -104.3 L56.05 -104.4 44.5 -95.05 40.95 -92.05 33.15 -85.9 Q27.35 -81.5 21.95 -76.8 21.55 -75.65 22.5 -75.05 L22.7 -74.9 23.3 -74.65 23.35 -74.65 24.15 -73.5 24.15 -73.45 24.3 -73.25 24.8 -72.75 27.3 -72.65 39.3 -81.65 44.35 -85.35 48.15 -88.5 51.25 -91.0 Q56.15 -94.7 60.2 -99.15 L60.35 -99.25 60.45 -99.8 60.5 -100.4 60.0 -101.65 59.95 -102.05 60.0 -102.45 58.75 -103.8 57.8 -104.3 57.3 -104.5 56.4 -104.3 56.35 -104.3 M59.3 -101.5 L59.45 -100.95 59.7 -99.65 59.4 -99.25 50.45 -91.95 43.95 -86.55 39.05 -82.75 27.35 -73.9 27.1 -73.7 25.6 -73.65 25.05 -74.25 24.25 -75.4 23.8 -75.75 23.8 -75.8 23.75 -75.75 23.5 -76.05 23.25 -76.25 Q28.4 -81.6 34.65 -85.8 L41.65 -91.0 42.85 -92.0 53.95 -100.9 56.5 -103.3 57.45 -103.4 57.95 -103.15 Q58.9 -102.55 59.3 -101.5" fill="#000000" fill-rule="evenodd" stroke="none"/>
    <path d="M57.95 -103.15 L57.45 -103.4 56.5 -103.3 53.95 -100.9 42.85 -92.0 41.65 -91.0 34.65 -85.8 Q28.4 -81.6 23.25 -76.25 L23.5 -76.05 23.75 -75.75 23.8 -75.8 23.8 -75.75 57.95 -103.15" fill="#ff0000" fill-rule="evenodd" stroke="none"/>
    <path d="M25.05 -74.25 L59.3 -101.5 Q58.9 -102.55 57.95 -103.15 L23.8 -75.75 24.25 -75.4 25.05 -74.25" fill="#cc0000" fill-rule="evenodd" stroke="none"/>
    <path d="M25.05 -74.25 L25.6 -73.65 27.1 -73.7 27.35 -73.9 39.05 -82.75 43.95 -86.55 50.45 -91.95 59.4 -99.25 59.7 -99.65 59.45 -100.95 59.3 -101.5 25.05 -74.25" fill="#990000" fill-rule="evenodd" stroke="none"/>
  </g>
</svg>
