<?xml version="1.0" encoding="UTF-8" standalone="no"?>
<svg xmlns:xlink="http://www.w3.org/1999/xlink" height="35.8px" width="27.45px" xmlns="http://www.w3.org/2000/svg">
  <g transform="matrix(1.0, 0.0, 0.0, 1.0, 60.4, 111.0)">
    <path d="M-42.55 -107.35 L-47.6 -110.35 -48.35 -110.9 -49.1 -110.95 -51.55 -110.0 Q-53.1 -109.25 -54.45 -108.3 L-54.75 -108.2 -49.55 -101.7 -49.4 -101.5 -49.5 -100.9 -49.55 -100.85 Q-51.05 -98.75 -53.55 -98.05 L-53.9 -97.9 -56.1 -98.25 -56.95 -99.25 -60.2 -96.75 -60.4 -93.45 -60.3 -91.4 -59.9 -87.25 -59.4 -84.55 -58.35 -83.0 Q-52.75 -79.8 -47.85 -75.75 L-47.2 -75.25 -46.9 -75.25 -45.9 -75.75 -43.05 -77.3 -40.0 -79.05 -38.35 -80.15 Q-36.35 -81.3 -34.6 -82.7 L-33.2 -87.7 -33.2 -87.95 -32.95 -89.2 -33.55 -94.3 -34.55 -97.1 Q-35.65 -99.85 -37.35 -102.3 L-38.5 -103.8 -41.15 -106.7 Q-41.9 -107.35 -42.55 -107.35 M-34.05 -89.5 L-34.45 -88.2 -34.9 -86.4 -35.2 -84.85 -35.4 -84.4 Q-38.2 -82.35 -41.25 -80.6 L-43.65 -79.2 -44.3 -78.9 -45.1 -78.45 -46.9 -77.55 -48.0 -78.4 -56.5 -84.7 -57.65 -85.7 -57.95 -86.2 -58.3 -88.6 -58.45 -91.1 Q-58.5 -93.5 -58.15 -95.85 L-58.15 -96.15 -56.25 -97.4 -52.4 -97.55 Q-50.25 -98.5 -49.05 -100.4 -48.7 -101.0 -48.6 -101.75 L-48.35 -101.9 Q-48.2 -103.55 -48.75 -105.2 L-49.05 -105.4 -49.2 -105.35 Q-49.65 -104.45 -49.55 -103.35 L-49.5 -103.2 -49.8 -103.05 -50.75 -104.35 -53.15 -107.4 -52.85 -107.6 -50.55 -108.7 -48.45 -109.6 -45.05 -107.3 -43.55 -106.65 -43.55 -106.6 Q-43.3 -106.0 -42.75 -105.95 L-42.6 -105.85 -42.55 -105.8 -41.25 -104.75 -40.15 -103.55 Q-36.8 -99.4 -35.05 -94.25 L-34.75 -93.25 -34.05 -89.85 -34.05 -89.5 -34.0 -89.4 -34.05 -89.45 -34.05 -89.5" fill="#000000" fill-rule="evenodd" stroke="none"/>
    <path d="M-40.15 -103.55 L-41.25 -104.75 -42.55 -105.8 -42.6 -105.85 -42.75 -105.95 Q-43.3 -106.0 -43.55 -106.6 L-43.55 -106.65 -45.05 -107.3 -48.45 -109.6 -50.55 -108.7 -52.85 -107.6 -53.15 -107.4 -50.75 -104.35 -49.8 -103.05 -49.5 -103.2 -49.55 -103.35 Q-49.65 -104.45 -49.2 -105.35 L-49.05 -105.4 -48.75 -105.2 Q-48.2 -103.55 -48.35 -101.9 L-48.6 -101.75 Q-48.7 -101.0 -49.05 -100.4 -50.25 -98.5 -52.4 -97.55 L-56.25 -97.4 -58.15 -96.15 -58.15 -95.85 Q-58.5 -93.5 -58.45 -91.1 L-58.3 -88.6 -57.95 -86.2 -57.65 -85.7 -56.5 -84.7 -48.0 -78.4 -46.9 -77.55 -45.1 -78.45 -44.3 -78.9 -43.65 -79.2 -41.25 -80.6 Q-38.2 -82.35 -35.4 -84.4 L-35.2 -84.85 -34.9 -86.4 -34.45 -88.2 -34.05 -89.5 -34.05 -89.85 Q-35.6 -86.65 -38.4 -88.05 L-39.65 -89.2 Q-40.25 -90.25 -41.3 -90.55 -42.65 -87.25 -45.0 -84.5 -47.45 -81.55 -50.2 -84.05 -52.25 -85.9 -52.3 -88.6 -52.3 -91.9 -50.25 -94.35 -48.05 -96.95 -44.65 -96.3 -41.8 -95.65 -41.7 -98.75 -41.65 -101.45 -40.15 -103.55" fill="#d7d9ee" fill-rule="evenodd" stroke="none"/>
    <path d="M-34.05 -89.85 L-34.75 -93.25 -35.05 -94.25 Q-36.8 -99.4 -40.15 -103.55 -41.65 -101.45 -41.7 -98.75 -41.8 -95.65 -44.65 -96.3 -48.05 -96.95 -50.25 -94.35 -52.3 -91.9 -52.3 -88.6 -52.25 -85.9 -50.2 -84.05 -47.45 -81.55 -45.0 -84.5 -42.65 -87.25 -41.3 -90.55 -40.25 -90.25 -39.65 -89.2 L-38.4 -88.05 Q-35.6 -86.65 -34.05 -89.85" fill="#eff0f8" fill-rule="evenodd" stroke="none"/>
  </g>
</svg>
