<?xml version="1.0" encoding="UTF-8" standalone="no"?>
<svg xmlns:xlink="http://www.w3.org/1999/xlink" height="33.6px" width="28.5px" xmlns="http://www.w3.org/2000/svg">
  <g transform="matrix(1.0, 0.0, 0.0, 1.0, 97.7, 153.2)">
    <path d="M-70.75 -137.05 L-70.7 -135.7 -70.65 -133.85 -70.45 -132.3 -70.45 -131.85 Q-72.55 -129.05 -74.9 -126.45 L-76.8 -124.45 -77.3 -123.95 -78.0 -123.25 -79.4 -121.9 -80.65 -122.35 Q-85.65 -124.0 -90.6 -125.9 L-92.05 -126.45 -92.45 -126.8 -93.45 -129.0 -94.35 -131.35 Q-95.1 -133.6 -95.5 -135.9 L-95.55 -136.25 -94.15 -138.0 Q-92.05 -137.85 -90.55 -139.3 -88.75 -140.75 -88.25 -142.95 L-88.15 -144.4 -88.0 -144.65 Q-88.3 -146.25 -89.35 -147.65 L-89.65 -147.7 -89.85 -147.6 Q-89.95 -146.6 -89.55 -145.65 L-89.45 -145.45 -89.65 -145.2 -91.05 -146.25 Q-92.55 -147.5 -94.2 -148.35 L-93.95 -148.7 -92.1 -150.4 -90.4 -151.85 -86.45 -150.75 -84.85 -150.55 -84.85 -150.45 Q-84.4 -150.0 -83.9 -150.1 L-83.65 -150.0 -82.1 -149.45 -80.75 -148.55 Q-76.25 -145.65 -73.1 -141.25 L-72.5 -140.45 -70.8 -137.35 -70.7 -137.05 -70.7 -136.95 -70.75 -137.0 -70.75 -137.05 M-84.1 -151.5 L-89.8 -152.85 -90.7 -153.15 -91.4 -153.0 -93.45 -151.3 -95.7 -148.9 -95.95 -148.7 -89.1 -144.05 -88.9 -143.9 -88.85 -143.35 -88.8 -143.25 Q-89.65 -140.8 -91.8 -139.4 L-92.05 -139.15 -94.25 -138.85 -95.4 -139.55 -97.7 -136.2 -96.9 -133.05 -96.25 -131.1 -94.6 -127.3 -93.3 -124.85 -91.9 -123.7 -91.85 -123.65 Q-85.6 -122.3 -79.75 -119.9 L-79.0 -119.6 Q-78.8 -119.6 -78.7 -119.7 L-77.95 -120.5 -75.65 -122.8 -73.3 -125.35 -72.0 -126.9 -69.2 -130.4 -69.45 -135.55 -69.5 -135.85 -69.6 -137.1 -71.65 -141.8 -73.45 -144.15 Q-75.35 -146.4 -77.7 -148.25 L-79.25 -149.35 Q-80.8 -150.4 -82.6 -151.25 L-84.1 -151.5" fill="#000000" fill-rule="evenodd" stroke="none"/>
    <path d="M-80.75 -148.55 L-82.1 -149.45 -83.65 -150.0 -83.9 -150.1 Q-84.4 -150.0 -84.85 -150.45 L-84.85 -150.55 -86.45 -150.75 -90.4 -151.85 -92.1 -150.4 -93.95 -148.7 -94.2 -148.35 Q-92.55 -147.5 -91.05 -146.25 L-89.65 -145.2 -89.45 -145.45 -89.55 -145.65 Q-89.95 -146.6 -89.85 -147.6 L-89.65 -147.7 -89.35 -147.65 Q-88.3 -146.25 -88.0 -144.65 L-88.15 -144.4 -88.25 -142.95 Q-88.75 -140.75 -90.55 -139.3 -92.05 -137.85 -94.15 -138.0 L-95.55 -136.25 -95.5 -135.9 Q-95.1 -133.6 -94.35 -131.35 L-93.45 -129.0 -92.45 -126.8 -92.05 -126.45 -90.6 -125.9 Q-85.65 -124.0 -80.65 -122.35 L-79.4 -121.9 -78.0 -123.25 -77.3 -123.95 -76.8 -124.45 -74.9 -126.45 Q-72.55 -129.05 -70.45 -131.85 L-70.45 -132.3 -70.65 -133.85 -70.7 -135.7 -70.75 -137.05 -70.7 -137.05 -70.8 -137.35 Q-71.3 -133.85 -74.4 -134.4 -75.2 -134.55 -75.95 -135.15 -76.85 -135.95 -77.95 -135.95 -78.2 -132.35 -79.6 -129.1 -81.05 -125.5 -84.45 -127.1 -86.95 -128.25 -87.8 -130.85 -88.8 -133.9 -87.55 -136.9 -86.25 -140.0 -82.8 -140.35 -79.9 -140.6 -80.75 -143.6 -81.45 -146.15 -80.75 -148.55" fill="#d7d9ee" fill-rule="evenodd" stroke="none"/>
    <path d="M-70.8 -137.35 L-72.5 -140.45 -73.1 -141.25 Q-76.25 -145.65 -80.75 -148.55 -81.45 -146.15 -80.75 -143.6 -79.9 -140.6 -82.8 -140.35 -86.25 -140.0 -87.55 -136.9 -88.8 -133.9 -87.8 -130.85 -86.95 -128.25 -84.45 -127.1 -81.05 -125.5 -79.6 -129.1 -78.2 -132.35 -77.95 -135.95 -76.85 -135.95 -75.95 -135.15 -75.2 -134.55 -74.4 -134.4 -71.3 -133.85 -70.8 -137.35" fill="#eff0f8" fill-rule="evenodd" stroke="none"/>
  </g>
</svg>
