<?xml version="1.0" encoding="UTF-8" standalone="no"?>
<svg xmlns:xlink="http://www.w3.org/1999/xlink" height="106.65px" width="48.25px" xmlns="http://www.w3.org/2000/svg">
  <g transform="matrix(1.0, 0.0, 0.0, 1.0, 110.1, 281.6)">
    <path d="M-92.8 -255.55 L-93.3 -255.55 Q-94.7 -255.55 -95.55 -254.2 -96.65 -252.45 -96.9 -250.45 -97.15 -248.7 -96.45 -247.0 -96.2 -246.3 -95.65 -245.95 -95.05 -245.55 -94.35 -245.7 -93.8 -245.8 -93.3 -246.15 L-92.0 -246.75 -91.55 -246.7 -91.05 -246.6 Q-89.7 -246.75 -89.15 -248.25 -88.2 -250.7 -88.7 -253.2 -88.9 -254.25 -89.65 -254.7 L-90.1 -254.9 Q-90.55 -255.35 -91.3 -255.4 L-92.3 -255.55 -92.8 -255.55 M-90.3 -249.95 Q-91.4 -250.95 -92.05 -249.45 -92.55 -248.2 -93.45 -249.1 L-93.65 -249.4 Q-94.3 -251.0 -93.35 -252.25 L-92.35 -252.9 -91.55 -252.9 Q-90.35 -253.1 -90.1 -251.45 -90.0 -250.6 -90.3 -249.95 M-105.3 -238.2 Q-106.1 -235.55 -105.4 -232.95 -105.0 -231.3 -104.25 -230.1 -103.5 -228.75 -103.1 -227.45 -102.95 -226.85 -103.2 -226.25 -103.35 -225.9 -103.75 -225.65 -105.4 -224.85 -106.55 -223.6 -109.9 -220.05 -110.1 -215.15 -110.2 -212.0 -108.9 -209.3 L-106.75 -205.55 Q-105.4 -203.6 -103.45 -202.2 -102.45 -201.55 -101.3 -201.3 -100.3 -201.05 -99.4 -201.75 L-98.2 -202.8 -94.95 -206.25 Q-94.3 -206.95 -93.2 -206.95 L-92.7 -206.7 Q-87.15 -199.95 -84.95 -191.75 L-83.05 -183.7 Q-82.55 -181.15 -81.1 -179.2 -79.6 -177.3 -77.7 -176.1 L-76.05 -175.2 -73.15 -175.1 Q-67.7 -176.5 -65.25 -181.8 -64.15 -184.2 -63.75 -186.85 -62.55 -194.65 -65.55 -202.05 -67.3 -206.25 -69.95 -209.85 L-71.65 -212.45 Q-72.85 -214.7 -73.05 -217.2 -70.1 -215.5 -67.05 -214.25 L-65.95 -214.2 Q-63.3 -216.35 -65.45 -219.3 -67.55 -222.15 -70.2 -224.5 -72.25 -226.35 -72.6 -228.7 -72.85 -230.55 -71.55 -231.7 L-70.45 -232.5 Q-68.1 -233.65 -66.15 -235.3 -64.8 -236.45 -63.95 -237.95 -63.05 -239.45 -62.65 -241.25 -62.05 -244.1 -64.55 -244.15 L-66.45 -243.9 Q-70.05 -242.55 -74.05 -240.2 -67.2 -246.65 -64.15 -255.75 L-63.15 -258.95 -62.45 -261.7 Q-60.0 -272.5 -67.55 -280.75 -69.65 -281.7 -73.05 -281.6 -78.8 -281.5 -80.4 -275.65 -82.8 -266.45 -82.8 -256.7 -82.8 -253.7 -83.6 -250.7 -85.05 -245.35 -88.6 -241.25 -89.15 -239.8 -90.4 -239.35 L-92.45 -239.45 -96.0 -240.8 Q-97.85 -241.65 -99.85 -242.1 L-101.6 -242.1 Q-103.6 -241.75 -104.55 -239.95 L-105.3 -238.2 M-87.85 -234.45 L-88.45 -236.0 Q-88.9 -237.2 -88.05 -237.95 -86.65 -239.2 -84.8 -239.75 -83.7 -240.05 -82.7 -240.7 -81.3 -241.55 -80.1 -242.75 -78.2 -244.65 -77.3 -247.2 L-76.0 -251.25 Q-75.45 -253.55 -75.05 -255.95 -74.25 -260.8 -74.4 -265.7 -74.45 -269.25 -73.6 -272.7 L-73.15 -273.85 -72.5 -274.35 Q-71.9 -274.55 -71.45 -274.05 L-70.8 -273.65 Q-69.65 -273.15 -69.35 -271.75 L-69.0 -270.6 Q-67.35 -267.25 -67.95 -263.45 L-68.3 -260.2 Q-68.7 -255.8 -70.75 -251.9 L-75.05 -242.95 -76.9 -239.0 Q-77.75 -237.1 -76.75 -235.35 L-76.35 -235.3 -75.1 -236.0 -73.75 -236.9 Q-72.45 -237.75 -72.5 -236.45 -72.55 -235.8 -72.9 -235.25 L-74.9 -232.55 Q-76.55 -230.7 -75.65 -228.5 L-75.05 -227.45 -72.3 -223.7 Q-71.65 -222.65 -72.9 -222.15 L-73.8 -222.0 -75.3 -222.0 Q-76.05 -221.95 -76.65 -221.5 L-77.65 -220.35 -78.2 -218.7 Q-78.65 -215.85 -77.25 -213.35 L-75.15 -209.55 -72.8 -205.7 Q-70.3 -201.95 -70.0 -197.45 -69.8 -193.8 -70.85 -190.3 -71.2 -189.3 -72.0 -188.7 -72.7 -188.2 -73.55 -188.05 -75.35 -187.75 -76.75 -189.0 -78.55 -190.75 -79.85 -192.95 -82.05 -196.75 -83.35 -200.95 -84.6 -204.95 -86.55 -208.7 -88.1 -211.6 -90.7 -213.55 -91.45 -214.05 -92.35 -214.35 -94.15 -214.85 -95.3 -216.15 -95.8 -216.7 -95.95 -217.45 -96.55 -220.45 -95.95 -223.45 -95.4 -225.95 -92.8 -225.7 -90.05 -225.4 -88.2 -227.65 -86.55 -229.65 -87.2 -232.4 L-87.85 -234.45" fill="#66ccff" fill-rule="evenodd" stroke="none"/>
    <path d="M-90.3 -249.95 Q-90.0 -250.6 -90.1 -251.45 -90.35 -253.1 -91.55 -252.9 L-92.35 -252.9 -93.35 -252.25 Q-94.3 -251.0 -93.65 -249.4 L-93.45 -249.1 Q-92.55 -248.2 -92.05 -249.45 -91.4 -250.95 -90.3 -249.95 M-87.85 -234.45 L-87.2 -232.4 Q-86.55 -229.65 -88.2 -227.65 -90.05 -225.4 -92.8 -225.7 -95.4 -225.95 -95.95 -223.45 -96.55 -220.45 -95.95 -217.45 -95.8 -216.7 -95.3 -216.15 -94.15 -214.85 -92.35 -214.35 -91.45 -214.05 -90.7 -213.55 -88.1 -211.6 -86.55 -208.7 -84.6 -204.95 -83.35 -200.95 -82.05 -196.75 -79.85 -192.95 -78.55 -190.75 -76.75 -189.0 -75.35 -187.75 -73.55 -188.05 -72.7 -188.2 -72.0 -188.7 -71.2 -189.3 -70.85 -190.3 -69.8 -193.8 -70.0 -197.45 -70.3 -201.95 -72.8 -205.7 L-75.15 -209.55 -77.25 -213.35 Q-78.65 -215.85 -78.2 -218.7 L-77.65 -220.35 -76.65 -221.5 Q-76.05 -221.95 -75.3 -222.0 L-73.8 -222.0 -72.9 -222.15 Q-71.65 -222.65 -72.3 -223.7 L-75.05 -227.45 -75.65 -228.5 Q-76.55 -230.7 -74.9 -232.55 L-72.9 -235.25 Q-72.55 -235.8 -72.5 -236.45 -72.45 -237.75 -73.75 -236.9 L-75.1 -236.0 -76.35 -235.3 -76.75 -235.35 Q-77.75 -237.1 -76.9 -239.0 L-75.05 -242.95 -70.75 -251.9 Q-68.7 -255.8 -68.3 -260.2 L-67.95 -263.45 Q-67.35 -267.25 -69.0 -270.6 L-69.35 -271.75 Q-69.65 -273.15 -70.8 -273.65 L-71.45 -274.05 Q-71.9 -274.55 -72.5 -274.35 L-73.15 -273.85 -73.6 -272.7 Q-74.45 -269.25 -74.4 -265.7 -74.25 -260.8 -75.05 -255.95 -75.45 -253.55 -76.0 -251.25 L-77.3 -247.2 Q-78.2 -244.65 -80.1 -242.75 -81.3 -241.55 -82.7 -240.7 -83.7 -240.05 -84.8 -239.75 -86.65 -239.2 -88.05 -237.95 -88.9 -237.2 -88.45 -236.0 L-87.85 -234.45" fill="#aae3ff" fill-rule="evenodd" stroke="none"/>
  </g>
</svg>
