<?xml version="1.0" encoding="UTF-8" standalone="no"?>
<svg xmlns:xlink="http://www.w3.org/1999/xlink" height="105.05px" width="44.1px" xmlns="http://www.w3.org/2000/svg">
  <g transform="matrix(1.0, 0.0, 0.0, 1.0, 74.1, 278.3)">
    <path d="M-40.2 -275.0 Q-42.7 -277.0 -45.8 -277.95 L-46.5 -278.1 -46.55 -277.95 -46.55 -278.1 Q-48.65 -278.6 -50.8 -277.7 -52.25 -277.05 -53.5 -276.1 -54.75 -275.15 -55.2 -273.65 -56.75 -268.85 -54.6 -264.45 L-53.8 -262.7 Q-52.2 -259.1 -50.9 -255.4 L-50.5 -253.95 Q-49.75 -251.15 -50.25 -248.4 L-51.4 -245.5 -52.85 -242.8 -54.15 -240.9 Q-54.65 -239.35 -55.8 -238.85 L-57.7 -238.95 -61.0 -240.4 Q-62.7 -241.35 -64.6 -241.8 -65.35 -242.0 -66.2 -241.8 -68.05 -241.45 -68.95 -239.5 L-69.65 -237.6 Q-70.35 -234.75 -69.7 -231.95 -69.35 -230.2 -68.65 -228.9 -67.95 -227.45 -67.6 -226.0 -67.45 -225.4 -67.7 -224.75 -67.8 -224.35 -68.2 -224.1 -69.7 -223.25 -70.8 -221.9 -73.9 -218.05 -74.1 -212.75 -74.15 -209.4 -72.95 -206.45 L-71.0 -202.45 Q-69.7 -200.35 -67.9 -198.8 -66.95 -198.15 -65.9 -197.85 -65.0 -197.6 -64.15 -198.35 L-63.05 -199.45 -60.05 -203.2 Q-59.4 -203.95 -58.4 -203.95 -58.1 -203.85 -57.95 -203.65 L-55.75 -200.25 -54.6 -198.1 -54.5 -197.9 Q-54.4 -195.45 -55.4 -192.95 L-56.75 -189.65 -58.25 -185.45 Q-59.15 -182.3 -58.7 -179.05 -58.55 -177.75 -57.6 -176.6 -55.9 -174.4 -53.2 -173.85 L-50.75 -173.25 Q-48.9 -173.4 -47.4 -174.35 -45.65 -175.5 -44.0 -176.75 -42.3 -178.0 -40.9 -179.5 -39.4 -181.1 -38.25 -182.85 -37.05 -184.75 -36.15 -186.7 -34.5 -190.45 -34.25 -194.75 -34.1 -197.05 -34.65 -199.3 -35.15 -201.55 -36.1 -203.7 L-37.8 -207.45 Q-38.9 -210.0 -39.55 -212.8 L-39.6 -213.8 -39.7 -215.0 Q-36.95 -213.15 -34.15 -211.8 L-33.15 -211.75 Q-30.65 -214.05 -32.65 -217.25 -34.6 -220.3 -37.1 -222.85 -39.0 -224.85 -39.3 -227.35 -39.55 -229.4 -38.35 -230.6 L-37.3 -231.45 Q-35.1 -232.7 -33.3 -234.5 -32.05 -235.75 -31.3 -237.35 -30.45 -238.95 -30.1 -240.9 -29.5 -243.95 -31.85 -244.0 L-33.6 -243.75 Q-36.9 -242.3 -40.65 -239.75 L-40.1 -240.35 Q-36.25 -242.75 -33.55 -246.45 -31.95 -248.65 -31.15 -251.25 -30.25 -254.0 -30.5 -256.95 L-30.75 -259.05 Q-31.35 -262.65 -33.05 -265.95 -33.9 -267.7 -35.0 -269.25 -36.45 -271.4 -38.25 -273.25 L-40.1 -274.9 -40.25 -274.75 -40.2 -275.0 M-39.45 -263.25 Q-38.7 -261.85 -38.65 -260.2 -38.35 -255.5 -39.3 -250.95 -40.2 -246.45 -41.8 -242.2 L-42.65 -240.1 -43.3 -238.45 Q-43.75 -237.2 -43.6 -235.95 L-43.45 -235.35 -43.15 -234.55 -42.8 -234.5 -42.65 -234.55 -41.6 -235.25 -40.35 -236.2 Q-39.15 -237.15 -39.2 -235.7 -39.25 -235.05 -39.6 -234.45 -40.35 -232.9 -41.45 -231.5 -42.95 -229.55 -42.15 -227.15 L-41.6 -226.0 -39.05 -222.0 Q-38.4 -220.85 -39.6 -220.3 L-40.4 -220.15 -41.8 -220.15 -43.05 -219.6 -44.0 -218.35 -44.5 -216.6 -44.55 -215.7 -44.6 -214.9 Q-45.2 -212.7 -44.4 -210.4 L-43.7 -208.25 -41.15 -198.9 Q-40.65 -196.85 -40.75 -194.7 L-40.9 -191.95 Q-41.2 -187.9 -42.8 -184.25 L-43.3 -183.2 Q-44.55 -180.75 -46.75 -179.2 -47.45 -178.7 -48.3 -178.55 -51.4 -177.95 -52.65 -180.65 -53.65 -182.8 -53.3 -185.2 L-52.95 -187.45 -50.7 -196.25 -50.25 -197.95 -49.8 -199.4 Q-50.8 -202.7 -52.25 -205.8 -53.4 -208.4 -55.25 -210.25 L-55.9 -210.9 -56.1 -211.05 -56.1 -210.95 -58.6 -210.85 Q-59.55 -210.6 -59.9 -209.65 -60.95 -206.7 -63.35 -204.6 L-65.05 -204.65 -65.7 -205.6 Q-66.3 -206.9 -66.55 -208.3 -66.95 -210.25 -66.85 -212.25 -66.8 -214.25 -66.4 -216.25 -66.25 -217.05 -65.4 -217.0 L-64.85 -216.85 Q-63.2 -215.9 -61.3 -216.45 L-61.15 -216.45 -61.15 -216.5 Q-61.4 -219.1 -60.95 -221.7 -60.45 -224.4 -58.05 -224.15 -55.45 -223.85 -53.75 -226.25 -52.2 -228.4 -52.85 -231.35 L-53.45 -233.55 -54.0 -235.25 Q-54.4 -236.55 -53.65 -237.35 -52.3 -238.7 -50.6 -239.25 -49.6 -239.6 -48.65 -240.3 L-47.2 -241.5 Q-46.15 -244.05 -46.0 -246.95 -45.8 -251.7 -47.05 -256.2 L-47.65 -257.9 -50.0 -264.2 -50.15 -265.45 Q-50.15 -268.45 -47.3 -269.5 L-44.6 -269.35 Q-42.3 -268.2 -40.95 -266.05 L-40.4 -265.15 -39.45 -263.25 M-58.05 -256.3 L-58.5 -256.3 Q-59.8 -256.3 -60.6 -254.85 -61.6 -252.95 -61.85 -250.8 -62.05 -248.95 -61.4 -247.1 -61.2 -246.35 -60.7 -245.95 -60.1 -245.55 -59.5 -245.7 -58.95 -245.8 -58.5 -246.15 L-57.3 -246.8 -56.9 -246.75 -56.4 -246.65 Q-55.15 -246.85 -54.65 -248.45 -53.75 -251.1 -54.25 -253.75 -54.4 -254.95 -55.1 -255.4 L-55.55 -255.6 Q-55.9 -256.05 -56.65 -256.15 L-57.55 -256.3 -58.05 -256.3 M-55.7 -250.25 Q-56.7 -251.35 -57.35 -249.7 -57.8 -248.4 -58.65 -249.35 L-58.85 -249.65 Q-59.4 -251.4 -58.55 -252.75 L-57.6 -253.45 -56.9 -253.45 Q-55.8 -253.65 -55.55 -251.9 -55.45 -251.0 -55.7 -250.25 M-61.25 -194.1 Q-61.75 -194.55 -62.55 -194.65 L-63.25 -194.8 -65.0 -194.65 -66.05 -194.0 -67.1 -193.05 Q-69.05 -190.6 -68.75 -187.45 -68.65 -186.2 -67.5 -185.55 L-67.1 -185.35 Q-66.15 -185.1 -65.4 -186.0 L-64.2 -187.4 Q-63.35 -188.4 -62.25 -187.8 L-61.05 -187.35 Q-60.7 -187.3 -60.6 -187.55 -59.5 -190.35 -60.6 -192.9 L-61.2 -194.05 -61.25 -194.1 M-62.15 -190.45 Q-62.2 -189.75 -63.05 -189.85 L-63.7 -189.8 -64.35 -189.5 -65.65 -188.65 Q-65.8 -188.55 -66.0 -188.75 -66.5 -189.2 -66.35 -189.95 -66.0 -191.45 -64.55 -192.15 L-64.15 -192.35 -63.4 -192.25 Q-62.75 -192.15 -62.45 -191.75 -62.1 -191.3 -62.15 -190.45" fill="#66ccff" fill-rule="evenodd" stroke="none"/>
    <path d="M-40.2 -275.0 L-40.25 -274.75 -40.1 -274.9 -40.2 -275.0 M-39.45 -263.25 L-40.4 -265.15 -40.95 -266.05 Q-42.3 -268.2 -44.6 -269.35 L-47.3 -269.5 Q-50.15 -268.45 -50.15 -265.45 L-50.0 -264.2 -47.65 -257.9 -47.05 -256.2 Q-45.8 -251.7 -46.0 -246.95 -46.15 -244.05 -47.2 -241.5 L-48.65 -240.3 Q-49.6 -239.6 -50.6 -239.25 -52.3 -238.7 -53.65 -237.35 -54.4 -236.55 -54.0 -235.25 L-53.45 -233.55 -52.85 -231.35 Q-52.2 -228.4 -53.75 -226.25 -55.45 -223.85 -58.05 -224.15 -60.45 -224.4 -60.95 -221.7 -61.4 -219.1 -61.15 -216.5 L-61.15 -216.45 -61.3 -216.45 Q-63.2 -215.9 -64.85 -216.85 L-65.4 -217.0 Q-66.25 -217.05 -66.4 -216.25 -66.8 -214.25 -66.85 -212.25 -66.95 -210.25 -66.55 -208.3 -66.3 -206.9 -65.7 -205.6 L-65.05 -204.65 -63.35 -204.6 Q-60.95 -206.7 -59.9 -209.65 -59.55 -210.6 -58.6 -210.85 L-56.1 -210.95 -56.1 -211.05 -55.9 -210.9 -55.25 -210.25 Q-53.4 -208.4 -52.25 -205.8 -50.8 -202.7 -49.8 -199.4 L-50.25 -197.95 -50.7 -196.25 -52.95 -187.45 -53.3 -185.2 Q-53.65 -182.8 -52.65 -180.65 -51.4 -177.95 -48.3 -178.55 -47.45 -178.7 -46.75 -179.2 -44.55 -180.75 -43.3 -183.2 L-42.8 -184.25 Q-41.2 -187.9 -40.9 -191.95 L-40.75 -194.7 Q-40.65 -196.85 -41.15 -198.9 L-43.7 -208.25 -44.4 -210.4 Q-45.2 -212.7 -44.6 -214.9 L-44.55 -215.7 -44.5 -216.6 -44.0 -218.35 -43.05 -219.6 -41.8 -220.15 -40.4 -220.15 -39.6 -220.3 Q-38.4 -220.85 -39.05 -222.0 L-41.6 -226.0 -42.15 -227.15 Q-42.95 -229.55 -41.45 -231.5 -40.35 -232.9 -39.6 -234.45 -39.25 -235.05 -39.2 -235.7 -39.15 -237.15 -40.35 -236.2 L-41.6 -235.25 -42.65 -234.55 -42.8 -234.5 -43.15 -234.55 -43.45 -235.35 -43.6 -235.95 Q-43.75 -237.2 -43.3 -238.45 L-42.65 -240.1 -41.8 -242.2 Q-40.2 -246.45 -39.3 -250.95 -38.35 -255.5 -38.65 -260.2 -38.7 -261.85 -39.45 -263.25 M-55.7 -250.25 Q-55.45 -251.0 -55.55 -251.9 -55.8 -253.65 -56.9 -253.45 L-57.6 -253.45 -58.55 -252.75 Q-59.4 -251.4 -58.85 -249.65 L-58.65 -249.35 Q-57.8 -248.4 -57.35 -249.7 -56.7 -251.35 -55.7 -250.25 M-62.15 -190.45 Q-62.1 -191.3 -62.45 -191.75 -62.75 -192.15 -63.4 -192.25 L-64.15 -192.35 -64.55 -192.15 Q-66.0 -191.45 -66.35 -189.95 -66.5 -189.2 -66.0 -188.75 -65.8 -188.55 -65.65 -188.65 L-64.35 -189.5 -63.7 -189.8 -63.05 -189.85 Q-62.2 -189.75 -62.15 -190.45" fill="#aae3ff" fill-rule="evenodd" stroke="none"/>
  </g>
</svg>
