<?xml version="1.0" encoding="UTF-8" standalone="no"?>
<svg xmlns:xlink="http://www.w3.org/1999/xlink" height="76.75px" width="103.45px" xmlns="http://www.w3.org/2000/svg">
  <g transform="matrix(1.0, 0.0, 0.0, 1.0, 46.85, 266.15)">
    <path d="M-42.25 -243.6 L-44.6 -242.25 -44.7 -242.15 -46.45 -239.9 Q-47.15 -238.75 -46.65 -237.4 L-46.05 -235.7 Q-44.9 -231.95 -42.4 -229.1 L-41.35 -228.15 Q-39.3 -226.8 -38.45 -224.5 L-37.8 -222.95 Q-37.3 -222.0 -37.3 -220.95 L-37.2 -219.95 -37.25 -219.45 Q-38.05 -217.15 -38.15 -214.7 L-38.1 -213.45 Q-37.8 -211.0 -35.9 -209.6 L-35.5 -209.25 -35.1 -208.9 -34.6 -208.4 Q-33.4 -207.05 -32.95 -205.4 L-33.0 -205.25 Q-33.8 -202.5 -35.3 -200.45 L-33.15 -199.55 -31.6 -198.65 Q-29.3 -196.4 -28.9 -193.2 -28.6 -191.3 -27.1 -190.55 L-25.7 -189.95 -24.2 -190.05 Q-23.3 -190.45 -22.5 -191.1 L-22.0 -191.45 Q-20.6 -192.45 -19.0 -193.1 L-18.3 -193.2 Q-16.3 -193.05 -15.65 -191.05 L-15.05 -191.0 -11.85 -191.1 Q-7.05 -191.9 -2.6 -193.8 L0.45 -195.0 Q1.85 -195.5 1.15 -196.65 L0.45 -197.7 Q-0.3 -198.65 0.45 -199.7 1.8 -201.45 4.2 -201.55 6.05 -201.6 6.6 -203.25 L6.6 -203.9 Q5.45 -206.9 3.9 -209.7 L3.35 -211.0 Q3.2 -211.55 3.4 -212.15 L3.9 -213.25 4.55 -214.1 6.15 -215.55 Q7.95 -217.05 9.95 -218.2 L11.25 -218.85 Q12.6 -219.4 13.7 -220.2 L13.9 -220.5 Q14.1 -221.05 13.7 -221.4 L12.45 -222.5 9.4 -224.6 Q7.75 -225.5 6.7 -226.95 6.0 -227.95 7.0 -228.6 7.55 -228.95 8.2 -229.0 L11.45 -229.2 12.65 -229.35 Q13.8 -229.6 13.6 -230.7 L12.95 -232.25 Q10.05 -236.15 6.7 -239.7 L5.05 -241.55 3.85 -243.15 2.95 -244.55 Q2.75 -245.8 2.15 -246.8 L2.1 -246.9 0.9 -248.4 0.5 -248.9 0.15 -249.35 Q-1.05 -250.85 -2.55 -252.05 L-3.2 -252.6 -3.6 -253.1 -4.1 -254.05 Q-4.45 -254.7 -4.45 -255.45 L-4.6 -257.15 Q-4.7 -257.7 -5.2 -257.95 L-7.3 -258.5 -9.55 -258.45 -11.0 -258.0 Q-12.05 -257.55 -12.75 -256.5 L-12.85 -256.3 -13.4 -254.95 Q-13.55 -254.3 -14.0 -254.0 -14.55 -253.55 -15.3 -253.55 L-16.45 -253.6 -17.25 -253.65 -17.3 -253.7 -17.5 -253.7 -20.5 -253.95 -22.8 -254.1 Q-24.55 -254.2 -26.1 -253.55 L-27.65 -252.75 -29.6 -251.25 -29.8 -251.0 -30.2 -250.6 -32.3 -248.2 -33.5 -246.9 -34.35 -246.2 Q-35.95 -245.1 -38.05 -244.8 L-39.55 -244.5 -42.25 -243.6 M-39.85 -240.55 L-39.95 -240.95 -39.65 -241.1 -39.25 -241.05 -39.1 -241.0 Q-37.6 -241.9 -35.9 -241.6 L-33.85 -241.0 Q-32.85 -240.55 -32.0 -239.85 L-30.2 -238.05 -29.75 -237.45 Q-28.9 -236.3 -28.6 -234.85 L-28.3 -232.85 -28.5 -231.9 -29.05 -231.25 -30.0 -230.5 -30.45 -230.15 -30.9 -229.8 -31.5 -229.3 -31.8 -229.0 Q-31.7 -229.55 -32.05 -230.0 L-33.3 -231.4 -35.3 -232.75 -37.4 -232.6 -38.0 -232.05 -38.15 -231.85 Q-38.05 -232.25 -38.25 -232.6 -38.75 -233.55 -38.9 -234.6 L-38.9 -235.6 -38.55 -236.25 -37.95 -236.7 Q-37.65 -236.9 -37.5 -237.3 -37.35 -237.75 -37.45 -238.2 L-38.0 -239.15 -39.15 -240.0 -39.85 -240.55 M35.4 -233.9 Q35.05 -233.55 35.05 -233.05 35.05 -232.55 35.4 -232.2 35.75 -231.85 36.25 -231.85 36.75 -231.85 37.1 -232.2 37.45 -232.55 37.45 -233.05 L37.1 -233.9 36.25 -234.25 Q35.75 -234.25 35.4 -233.9 M22.7 -250.7 Q22.7 -250.0 23.25 -249.5 23.75 -248.95 24.45 -248.95 25.15 -248.95 25.7 -249.5 26.2 -250.0 26.2 -250.7 26.2 -251.4 25.7 -251.95 25.15 -252.45 24.45 -252.45 23.75 -252.45 23.25 -251.95 22.7 -251.4 22.7 -250.7 M-2.15 -265.25 L-3.1 -264.2 Q-3.35 -263.3 -3.0 -262.2 L-2.75 -261.85 -1.05 -261.95 -0.3 -262.1 1.75 -261.8 2.55 -261.3 4.2 -261.2 4.5 -261.75 Q4.6 -262.6 4.3 -263.5 3.45 -266.05 0.7 -266.15 -0.95 -266.25 -2.15 -265.25 M-9.55 -253.75 L-9.25 -254.2 -9.05 -254.35 -8.55 -254.6 -8.55 -254.55 -8.4 -254.05 Q-7.95 -252.8 -7.1 -251.75 L-6.9 -251.5 -5.85 -250.3 -5.8 -250.25 -4.8 -248.85 Q-4.15 -247.9 -3.8 -246.75 -3.45 -245.75 -3.95 -244.85 L-4.4 -244.6 -5.3 -244.6 -6.6 -244.85 -7.3 -245.05 -8.8 -245.35 -10.55 -245.55 -12.3 -245.3 Q-14.2 -244.8 -15.4 -243.25 -16.35 -242.1 -17.45 -241.05 -18.6 -239.9 -20.0 -239.2 L-20.4 -239.0 -20.6 -238.9 -22.35 -238.8 Q-22.9 -238.9 -23.35 -239.3 L-24.35 -240.4 -25.15 -241.6 Q-25.9 -242.65 -26.2 -243.85 L-26.35 -244.85 Q-26.35 -245.6 -25.9 -246.05 L-25.5 -246.35 -24.4 -246.7 -22.9 -246.9 Q-21.35 -247.05 -19.85 -247.65 L-19.8 -247.7 Q-18.15 -248.45 -16.4 -248.85 L-14.85 -249.4 -13.35 -250.3 -13.05 -250.5 -12.05 -251.35 -11.55 -251.75 -11.5 -251.85 -10.8 -252.35 -9.55 -253.75 M2.5 -239.9 Q5.7 -237.65 8.15 -234.4 8.9 -233.3 7.9 -233.15 L6.95 -233.25 Q4.8 -233.9 2.95 -232.7 L2.55 -232.65 1.75 -233.25 Q0.45 -234.8 0.55 -236.7 L0.75 -237.15 Q1.75 -238.25 1.7 -239.7 1.65 -240.1 2.2 -240.1 L2.45 -239.95 2.5 -239.9 M-30.25 -220.95 L-30.2 -221.05 -29.75 -222.0 Q-28.35 -224.35 -26.35 -226.25 L-24.4 -227.75 Q-23.55 -228.3 -22.6 -228.2 -20.8 -227.95 -19.25 -226.9 -16.7 -225.05 -14.9 -222.55 -12.8 -219.55 -11.8 -216.05 -11.2 -214.0 -11.15 -211.9 L-11.25 -211.7 -11.25 -211.65 -11.55 -211.0 -12.2 -209.8 -13.75 -206.2 -14.7 -204.0 Q-15.45 -202.55 -16.65 -201.7 -18.05 -200.7 -19.85 -200.45 L-24.0 -199.9 -27.0 -199.15 -27.3 -198.95 Q-26.5 -202.95 -29.15 -206.1 L-29.35 -206.35 -29.9 -206.95 -31.5 -208.95 -31.95 -209.5 Q-32.55 -210.2 -32.45 -210.85 L-30.55 -219.95 -30.25 -220.95 M49.5 -209.65 L49.15 -209.8 46.45 -210.5 43.45 -210.85 40.45 -211.05 38.7 -210.65 37.95 -210.25 Q36.7 -209.55 36.8 -208.2 36.8 -207.8 37.1 -207.65 37.9 -207.1 38.9 -206.9 L37.7 -204.7 Q36.95 -203.5 35.8 -203.0 L37.7 -203.45 Q42.35 -204.65 47.2 -204.35 L47.95 -204.35 48.65 -203.85 49.5 -203.2 54.2 -200.45 55.2 -200.15 Q56.7 -199.95 56.6 -201.45 56.2 -205.2 53.15 -207.65 L52.4 -208.2 50.0 -209.5 49.8 -209.55 49.5 -209.65 M-10.1 -240.05 L-8.9 -240.95 Q-8.2 -241.45 -7.55 -241.15 -4.35 -239.6 -3.75 -235.95 -3.45 -233.7 -3.5 -231.45 -3.55 -229.9 -3.95 -228.25 L-4.0 -228.0 -5.55 -227.55 Q-7.3 -227.2 -8.8 -226.45 L-10.3 -226.2 -10.3 -226.45 Q-10.3 -226.95 -10.45 -227.4 L-10.8 -228.3 -11.8 -230.3 -13.95 -232.5 -15.05 -232.7 -14.6 -234.7 -14.45 -235.1 -11.0 -239.15 -10.1 -240.05 M-5.85 -222.75 L-4.7 -222.75 -4.75 -222.85 -2.8 -222.85 -1.85 -222.9 0.15 -222.85 4.25 -222.7 5.35 -223.05 Q7.95 -223.1 9.9 -221.4 L4.25 -219.7 3.25 -219.15 Q1.3 -217.35 -1.3 -217.2 L-1.85 -217.0 -2.65 -216.45 -2.85 -215.9 -3.2 -215.1 -3.45 -214.6 -3.95 -213.05 -4.05 -212.5 -4.0 -211.2 -3.8 -209.1 -3.8 -208.7 Q-3.75 -208.05 -3.85 -207.4 -3.4 -206.6 -2.3 -206.55 L0.75 -206.1 1.95 -205.95 Q3.1 -205.95 2.95 -204.7 L2.45 -204.15 Q1.15 -203.45 -0.55 -203.45 L-1.55 -203.2 -3.9 -201.85 Q-4.3 -201.55 -4.8 -201.4 L-7.65 -200.65 -8.15 -200.35 -8.25 -200.3 -8.9 -200.05 Q-9.9 -199.7 -11.0 -199.65 L-11.8 -199.85 -12.05 -200.2 -12.0 -201.1 -11.3 -202.5 -10.45 -203.6 -9.45 -205.1 Q-8.4 -206.65 -7.65 -208.35 L-7.05 -210.0 -6.75 -211.7 -6.75 -211.9 Q-6.7 -212.6 -6.8 -213.3 L-6.85 -213.6 -7.0 -214.25 -7.2 -215.15 -7.9 -216.85 -8.5 -218.1 Q-8.9 -219.1 -8.75 -220.1 L-8.6 -221.1 -8.35 -221.85 -8.15 -222.2 -8.0 -222.3 -7.5 -222.3 -7.15 -222.45 -6.35 -222.7 -6.25 -222.7 -5.9 -222.75 -5.85 -222.75 M33.45 -208.55 Q34.05 -208.55 34.6 -208.9 36.0 -209.7 35.15 -211.2 L34.75 -211.75 34.0 -211.85 32.95 -212.25 32.7 -212.3 29.45 -212.6 Q28.55 -212.5 28.3 -211.65 L28.2 -210.95 Q28.1 -210.0 29.0 -209.55 31.1 -208.4 33.45 -208.55" fill="#66ccff" fill-rule="evenodd" stroke="none"/>
    <path d="M-39.85 -240.55 L-39.15 -240.0 -38.0 -239.15 -37.45 -238.2 Q-37.35 -237.75 -37.5 -237.3 -37.65 -236.9 -37.95 -236.7 L-38.55 -236.25 -38.9 -235.6 -38.9 -234.6 Q-38.75 -233.55 -38.25 -232.6 -38.05 -232.25 -38.15 -231.85 L-38.0 -232.05 -37.4 -232.6 -35.3 -232.75 -33.3 -231.4 -32.05 -230.0 Q-31.7 -229.55 -31.8 -229.0 L-31.5 -229.3 -30.9 -229.8 -30.45 -230.15 -30.0 -230.5 -29.05 -231.25 -28.5 -231.9 -28.3 -232.85 -28.6 -234.85 Q-28.9 -236.3 -29.75 -237.45 L-30.2 -238.05 -32.0 -239.85 Q-32.85 -240.55 -33.85 -241.0 L-35.9 -241.6 Q-37.6 -241.9 -39.1 -241.0 L-39.25 -241.05 -39.65 -241.1 -39.95 -240.95 -39.85 -240.55 M2.5 -239.9 L2.45 -239.95 2.2 -240.1 Q1.65 -240.1 1.7 -239.7 1.75 -238.25 0.75 -237.15 L0.55 -236.7 Q0.45 -234.8 1.75 -233.25 L2.55 -232.65 2.95 -232.7 Q4.8 -233.9 6.95 -233.25 L7.9 -233.15 Q8.9 -233.3 8.15 -234.4 5.7 -237.65 2.5 -239.9 M-9.55 -253.75 L-10.8 -252.35 -11.5 -251.85 -11.55 -251.75 -12.05 -251.35 -13.05 -250.5 -13.35 -250.3 -14.85 -249.4 -16.4 -248.85 Q-18.15 -248.45 -19.8 -247.7 L-19.85 -247.65 Q-21.35 -247.05 -22.9 -246.9 L-24.4 -246.7 -25.5 -246.35 -25.9 -246.05 Q-26.35 -245.6 -26.35 -244.85 L-26.2 -243.85 Q-25.9 -242.65 -25.15 -241.6 L-24.35 -240.4 -23.35 -239.3 Q-22.9 -238.9 -22.35 -238.8 L-20.6 -238.9 -20.4 -239.0 -20.0 -239.2 Q-18.6 -239.9 -17.45 -241.05 -16.35 -242.1 -15.4 -243.25 -14.2 -244.8 -12.3 -245.3 L-10.55 -245.55 -8.8 -245.35 -7.3 -245.05 -6.6 -244.85 -5.3 -244.6 -4.4 -244.6 -3.95 -244.85 Q-3.45 -245.75 -3.8 -246.75 -4.15 -247.9 -4.8 -248.85 L-5.8 -250.25 -5.85 -250.3 -6.9 -251.5 -7.1 -251.75 Q-7.95 -252.8 -8.4 -254.05 L-8.55 -254.55 -8.55 -254.6 -9.05 -254.35 -9.25 -254.2 -9.55 -253.75 M-5.85 -222.75 L-5.9 -222.75 -6.25 -222.7 -6.35 -222.7 -7.15 -222.45 -7.5 -222.3 -8.0 -222.3 -8.15 -222.2 -8.35 -221.85 -8.6 -221.1 -8.75 -220.1 Q-8.9 -219.1 -8.5 -218.1 L-7.9 -216.85 -7.2 -215.15 -7.0 -214.25 -6.85 -213.6 -6.8 -213.3 Q-6.7 -212.6 -6.75 -211.9 L-6.75 -211.7 -7.05 -210.0 -7.65 -208.35 Q-8.4 -206.65 -9.45 -205.1 L-10.45 -203.6 -11.3 -202.5 -12.0 -201.1 -12.05 -200.2 -11.8 -199.85 -11.0 -199.65 Q-9.9 -199.7 -8.9 -200.05 L-8.25 -200.3 -8.15 -200.35 -7.65 -200.65 -4.8 -201.4 Q-4.3 -201.55 -3.9 -201.85 L-1.55 -203.2 -0.55 -203.45 Q1.15 -203.45 2.45 -204.15 L2.95 -204.7 Q3.1 -205.95 1.95 -205.95 L0.75 -206.1 -2.3 -206.55 Q-3.4 -206.6 -3.85 -207.4 -3.75 -208.05 -3.8 -208.7 L-3.8 -209.1 -4.0 -211.2 -4.05 -212.5 -3.95 -213.05 -3.45 -214.6 -3.2 -215.1 -2.85 -215.9 -2.65 -216.45 -1.85 -217.0 -1.3 -217.2 Q1.3 -217.35 3.25 -219.15 L4.25 -219.7 9.9 -221.4 Q7.95 -223.1 5.35 -223.05 L4.25 -222.7 0.15 -222.85 -1.85 -222.9 -2.8 -222.85 -4.75 -222.85 -4.7 -222.75 -5.85 -222.75" fill="#aae3ff" fill-rule="evenodd" stroke="none"/>
    <path d="M34.0 -252.6 L31.6 -252.45 30.0 -251.35 Q28.2 -250.05 27.55 -248.0 L27.55 -247.85 27.6 -247.65 Q28.0 -246.4 29.4 -246.7 L30.0 -246.75 30.6 -246.6 33.55 -243.85 34.7 -242.8 Q35.05 -242.45 35.5 -242.35 L36.05 -242.35 Q37.35 -242.85 37.85 -243.95 L38.15 -245.25 37.95 -247.65 37.2 -249.55 37.0 -249.95 35.5 -251.65 34.0 -252.6 M36.5 -246.65 Q36.6 -245.8 36.15 -245.05 L35.75 -244.7 35.25 -244.8 34.85 -245.2 34.4 -245.8 33.95 -246.65 33.0 -247.7 32.4 -247.95 31.85 -248.05 31.5 -248.15 Q31.3 -248.3 31.25 -248.6 L31.15 -249.2 31.35 -249.95 Q31.5 -250.6 32.1 -250.9 32.45 -251.15 32.9 -251.2 L33.25 -251.2 33.9 -250.9 33.95 -250.9 34.6 -250.55 Q35.5 -249.85 35.9 -248.9 L36.5 -246.65" fill="#66ccff" fill-rule="evenodd" stroke="none"/>
    <path d="M36.5 -246.65 L35.9 -248.9 Q35.5 -249.85 34.6 -250.55 L33.95 -250.9 33.9 -250.9 33.25 -251.2 32.9 -251.2 Q32.45 -251.15 32.1 -250.9 31.5 -250.6 31.35 -249.95 L31.15 -249.2 31.25 -248.6 Q31.3 -248.3 31.5 -248.15 L31.85 -248.05 32.4 -247.95 33.0 -247.7 33.95 -246.65 34.4 -245.8 34.85 -245.2 35.25 -244.8 35.75 -244.7 36.15 -245.05 Q36.6 -245.8 36.5 -246.65" fill="#aae3ff" fill-rule="evenodd" stroke="none"/>
    <path d="M29.85 -195.25 L29.25 -195.0 28.65 -194.7 Q27.0 -193.7 25.1 -193.85 L24.8 -193.95 24.35 -193.95 Q25.75 -190.75 28.5 -189.8 29.15 -189.55 29.85 -189.45 L30.15 -189.4 30.95 -189.55 Q32.25 -189.9 33.0 -191.4 33.5 -192.4 33.15 -193.45 32.55 -195.25 30.95 -195.35 L30.15 -195.25 29.85 -195.25" fill="#66ccff" fill-rule="evenodd" stroke="none"/>
    <path d="M38.05 -231.2 L37.95 -231.15 37.85 -231.05 37.7 -230.85 38.25 -230.85 38.45 -230.85 39.25 -230.6 40.45 -229.4 40.75 -229.1 Q41.6 -228.55 42.25 -229.3 L42.4 -229.45 42.55 -229.7 Q42.9 -230.7 42.3 -231.6 L41.65 -232.3 40.1 -232.65 39.55 -232.5 38.1 -231.35 38.05 -231.2" fill="#66ccff" fill-rule="evenodd" stroke="none"/>
  </g>
</svg>
