<?xml version="1.0" encoding="UTF-8" standalone="no"?>
<svg xmlns:xlink="http://www.w3.org/1999/xlink" height="66.2px" width="89.85px" xmlns="http://www.w3.org/2000/svg">
  <g transform="matrix(1.0, 0.0, 0.0, 1.0, 33.25, 252.95)">
    <path d="M31.2 -251.3 Q30.95 -251.55 30.95 -251.85 L31.2 -252.45 31.75 -252.7 32.35 -252.45 32.6 -251.85 32.35 -251.3 Q32.1 -251.05 31.75 -251.05 31.45 -251.05 31.2 -251.3 M44.4 -211.7 L44.1 -211.0 Q43.8 -210.7 43.4 -210.7 43.0 -210.7 42.7 -211.0 42.4 -211.3 42.4 -211.7 42.4 -212.1 42.7 -212.4 43.0 -212.7 43.4 -212.7 L44.1 -212.4 44.4 -211.7" fill="#66ccff" fill-rule="evenodd" stroke="none"/>
    <path d="M3.85 -242.2 L3.65 -240.7 Q3.55 -239.5 4.3 -238.4 6.4 -235.15 7.4 -231.4 L8.8 -225.45 Q9.7 -220.75 9.9 -215.95 9.95 -213.05 9.6 -210.25 9.35 -208.3 8.4 -206.75 7.95 -206.05 7.3 -206.3 6.35 -206.55 5.75 -207.55 L3.5 -210.95 Q2.6 -212.2 1.2 -212.65 0.6 -212.8 0.3 -212.2 -0.4 -210.8 -0.35 -209.2 L-0.05 -202.7 0.3 -194.4 0.0 -191.5 Q-0.25 -190.55 -0.65 -189.65 -2.55 -187.75 -4.9 -186.85 L-5.6 -186.75 -6.1 -187.25 Q-7.05 -189.4 -6.95 -191.9 -6.8 -196.15 -6.8 -200.45 -6.8 -203.05 -8.05 -205.15 -8.8 -206.3 -10.45 -206.4 -11.3 -206.45 -11.7 -205.7 -12.8 -203.7 -13.3 -201.4 L-14.7 -196.05 Q-15.4 -193.55 -17.1 -191.8 -18.55 -190.25 -20.65 -190.25 -22.4 -190.25 -23.45 -191.7 -24.9 -193.65 -25.3 -196.25 -25.65 -198.7 -25.15 -201.1 -24.25 -205.1 -22.15 -208.7 L-20.75 -210.8 -19.5 -212.3 Q-18.65 -213.2 -18.35 -214.3 -17.5 -217.5 -19.0 -220.65 L-20.35 -223.45 Q-20.65 -224.05 -20.55 -224.65 -20.4 -225.25 -20.5 -225.95 -20.65 -226.95 -21.2 -227.75 -21.8 -228.7 -22.8 -229.15 -24.3 -229.8 -25.9 -230.25 L-28.85 -231.35 -30.7 -232.65 Q-31.65 -233.7 -32.1 -235.05 L-33.2 -239.2 Q-33.55 -241.35 -32.15 -242.95 -30.5 -244.75 -28.4 -246.0 L-26.65 -246.2 -27.2 -244.95 -28.15 -242.6 Q-28.55 -241.3 -28.3 -240.0 -28.05 -238.55 -27.15 -237.4 -26.05 -235.95 -24.45 -235.05 -21.85 -233.6 -18.9 -233.75 L-15.2 -234.2 Q-13.3 -234.55 -11.5 -235.45 -9.65 -236.3 -8.05 -237.65 -6.65 -238.8 -5.7 -240.4 -4.9 -241.7 -4.8 -243.2 -4.65 -246.0 -6.85 -247.75 -8.4 -248.95 -10.1 -249.75 -12.95 -251.15 -16.15 -251.2 -15.4 -251.75 -13.9 -252.0 L-11.65 -252.25 -8.9 -252.2 -8.35 -252.15 -7.75 -252.0 Q-5.15 -252.05 -2.95 -250.65 L1.35 -247.75 Q4.3 -245.7 3.85 -242.2" fill="#aae3ff" fill-rule="evenodd" stroke="none"/>
    <path d="M36.2 -252.8 L35.1 -252.7 34.35 -252.2 Q33.5 -251.55 33.2 -250.6 L33.2 -250.55 33.2 -250.45 Q33.4 -249.9 34.05 -250.05 L34.35 -250.05 34.6 -250.0 36.0 -248.7 36.5 -248.2 Q36.65 -248.05 36.9 -248.0 L37.15 -248.0 38.0 -248.75 38.1 -249.35 38.05 -250.45 37.7 -251.35 37.6 -251.55 36.9 -252.35 36.2 -252.8 M37.35 -250.0 L37.2 -249.25 37.0 -249.1 36.8 -249.15 36.6 -249.35 36.4 -249.6 36.15 -250.0 35.7 -250.5 35.45 -250.6 35.2 -250.65 35.05 -250.7 34.9 -250.9 34.85 -251.2 34.95 -251.55 35.3 -252.0 35.7 -252.1 35.85 -252.1 36.15 -252.0 36.5 -251.8 37.05 -251.05 37.35 -250.0" fill="#66ccff" fill-rule="evenodd" stroke="none"/>
    <path d="M37.35 -250.0 L37.05 -251.05 36.5 -251.8 36.15 -252.0 35.85 -252.1 35.7 -252.1 35.3 -252.0 34.95 -251.55 34.85 -251.2 34.9 -250.9 35.05 -250.7 35.2 -250.65 35.45 -250.6 35.7 -250.5 36.15 -250.0 36.4 -249.6 36.6 -249.35 36.8 -249.15 37.0 -249.1 37.2 -249.25 37.35 -250.0" fill="#aae3ff" fill-rule="evenodd" stroke="none"/>
    <path d="M32.45 -202.2 L32.15 -202.05 31.9 -201.9 Q31.05 -201.4 30.15 -201.5 L30.0 -201.55 29.75 -201.55 Q30.45 -199.95 31.8 -199.45 L32.45 -199.3 32.65 -199.3 33.0 -199.35 Q33.65 -199.55 34.05 -200.3 34.3 -200.8 34.1 -201.3 33.8 -202.2 33.0 -202.25 L32.65 -202.2 32.45 -202.2" fill="#66ccff" fill-rule="evenodd" stroke="none"/>
    <path d="M45.65 -210.55 Q44.9 -210.15 45.0 -209.35 45.0 -209.15 45.15 -209.05 45.65 -208.7 46.2 -208.6 L45.5 -207.3 Q45.05 -206.6 44.4 -206.3 L45.5 -206.6 51.1 -207.1 51.55 -207.1 51.95 -206.8 52.45 -206.45 55.2 -204.8 55.8 -204.65 Q56.65 -204.5 56.6 -205.4 56.35 -207.6 54.6 -209.05 L54.15 -209.35 52.75 -210.15 52.6 -210.15 52.45 -210.2 52.25 -210.3 50.65 -210.7 48.9 -210.9 47.1 -211.05 46.1 -210.8 45.65 -210.55" fill="#66ccff" fill-rule="evenodd" stroke="none"/>
  </g>
</svg>
