<?xml version="1.0" encoding="UTF-8" standalone="no"?>
<svg xmlns:xlink="http://www.w3.org/1999/xlink" height="44.3px" width="28.7px" xmlns="http://www.w3.org/2000/svg">
  <g transform="matrix(1.0, 0.0, 0.0, 1.0, -13.25, 243.8)">
    <path d="M33.25 -213.3 L33.1 -213.2 32.15 -212.65 30.8 -211.85 26.8 -209.4 Q26.35 -209.1 25.85 -208.9 25.1 -208.55 25.25 -207.9 L25.45 -207.2 25.55 -206.95 25.7 -206.9 25.85 -206.9 27.55 -206.95 28.45 -206.9 29.6 -207.05 30.6 -207.25 30.95 -207.25 32.95 -207.2 32.8 -207.0 32.2 -206.8 30.05 -206.1 29.85 -206.05 28.25 -205.4 27.0 -204.7 26.15 -204.3 26.05 -203.2 26.2 -203.1 26.3 -203.05 27.35 -202.35 27.85 -202.05 29.75 -201.05 32.65 -201.1 33.4 -201.45 33.95 -201.75 Q35.85 -203.05 38.25 -203.65 L38.5 -203.8 Q39.25 -205.45 39.5 -207.2 38.05 -206.6 36.3 -206.45 L36.2 -206.55 36.15 -206.65 36.25 -206.7 39.55 -207.65 39.7 -208.5 Q37.55 -207.65 35.2 -207.2 L35.25 -207.25 39.7 -208.9 39.55 -210.3 39.45 -210.45 37.55 -211.4 37.6 -211.35 37.45 -211.2 Q36.3 -210.3 34.85 -210.25 L34.8 -210.3 34.75 -210.35 34.75 -210.45 34.8 -210.5 Q36.0 -211.15 37.35 -211.5 L36.85 -211.8 36.05 -212.2 Q34.8 -213.0 33.25 -213.3" fill="url(#gradient0)" fill-rule="evenodd" stroke="none"/>
    <path d="M33.25 -213.3 Q34.8 -213.0 36.05 -212.2 L36.85 -211.8 37.35 -211.5 Q36.0 -211.15 34.8 -210.5 L34.75 -210.45 34.75 -210.35 34.8 -210.3 34.85 -210.25 Q36.3 -210.3 37.45 -211.2 L37.6 -211.35 37.55 -211.4 39.45 -210.45 39.55 -210.3 39.7 -208.9 35.25 -207.25 35.2 -207.2 Q37.55 -207.65 39.7 -208.5 L39.55 -207.65 36.25 -206.7 36.15 -206.65 36.2 -206.55 36.3 -206.45 Q38.05 -206.6 39.5 -207.2 39.25 -205.45 38.5 -203.8 L38.25 -203.65 Q35.85 -203.05 33.95 -201.75 L33.4 -201.45 32.65 -201.1 29.75 -201.05 31.85 -199.95 32.7 -199.55 33.4 -199.65 Q33.85 -200.1 34.6 -200.35 L39.75 -202.15 Q40.5 -202.4 40.55 -202.85 L40.65 -203.2 41.55 -207.0 41.95 -208.8 41.95 -209.15 40.5 -210.45 39.1 -211.5 Q37.95 -212.45 36.6 -213.05 L35.5 -213.4 34.5 -213.55 33.25 -213.3 M29.85 -206.05 L30.05 -206.1 32.2 -206.8 32.8 -207.0 32.95 -207.2 30.95 -207.25 30.6 -207.25 29.6 -207.05 28.45 -206.9 27.55 -206.95 25.85 -206.9 25.75 -206.85 26.4 -206.1 26.55 -206.0 26.8 -205.95 28.6 -206.05 29.05 -206.05 29.85 -206.05" fill="#dfa23c" fill-rule="evenodd" stroke="none"/>
    <path d="M21.3 -243.45 L21.15 -243.35 20.2 -242.6 18.85 -241.55 14.85 -238.3 13.9 -237.65 Q13.15 -237.2 13.3 -236.35 L13.5 -235.4 13.6 -235.1 13.75 -235.1 13.9 -235.1 15.6 -235.1 16.5 -235.1 17.65 -235.25 18.65 -235.55 19.0 -235.5 21.0 -235.45 20.85 -235.2 Q20.55 -235.0 20.25 -234.9 L18.1 -234.0 17.9 -233.95 16.3 -233.1 15.05 -232.15 14.2 -231.6 14.1 -230.15 14.25 -230.05 14.35 -230.0 15.4 -229.1 15.9 -228.7 17.8 -227.4 20.7 -227.45 21.45 -227.85 22.0 -228.3 Q23.9 -230.0 26.3 -230.8 L26.55 -231.0 Q27.3 -233.15 27.55 -235.45 26.1 -234.65 24.35 -234.45 L24.25 -234.6 24.2 -234.7 24.3 -234.8 27.6 -236.05 27.75 -237.1 Q25.6 -236.0 23.25 -235.4 L23.3 -235.5 Q25.45 -236.75 27.75 -237.7 L27.6 -239.55 27.5 -239.7 25.6 -240.95 25.65 -240.9 25.5 -240.7 Q24.35 -239.55 22.9 -239.4 L22.85 -239.5 22.8 -239.6 22.8 -239.7 22.85 -239.8 Q24.05 -240.6 25.4 -241.1 L24.9 -241.45 24.1 -242.0 Q22.85 -243.05 21.3 -243.45" fill="url(#gradient1)" fill-rule="evenodd" stroke="none"/>
    <path d="M21.3 -243.45 Q22.85 -243.05 24.1 -242.0 L24.9 -241.45 25.4 -241.1 Q24.05 -240.6 22.85 -239.8 L22.8 -239.7 22.8 -239.6 22.85 -239.5 22.9 -239.4 Q24.35 -239.55 25.5 -240.7 L25.65 -240.9 25.6 -240.95 27.5 -239.7 27.6 -239.55 27.75 -237.7 Q25.45 -236.75 23.3 -235.5 L23.25 -235.4 Q25.6 -236.0 27.75 -237.1 L27.6 -236.05 24.3 -234.8 24.2 -234.7 24.25 -234.6 24.35 -234.45 Q26.1 -234.65 27.55 -235.45 27.3 -233.15 26.55 -231.0 L26.3 -230.8 Q23.9 -230.0 22.0 -228.3 L21.45 -227.85 20.7 -227.45 17.8 -227.4 19.9 -225.9 20.75 -225.4 Q21.15 -225.25 21.45 -225.55 21.9 -226.15 22.65 -226.45 25.2 -227.7 27.8 -228.8 28.55 -229.15 28.6 -229.7 L28.7 -230.15 29.6 -235.15 30.0 -237.55 30.0 -238.0 28.55 -239.7 27.15 -241.1 24.65 -243.15 23.55 -243.6 22.55 -243.8 Q21.85 -243.85 21.3 -243.45 M17.9 -233.95 L18.1 -234.0 20.25 -234.9 Q20.55 -235.0 20.85 -235.2 L21.0 -235.45 19.0 -235.5 18.65 -235.55 17.65 -235.25 16.5 -235.1 15.6 -235.1 13.9 -235.1 13.8 -235.0 14.45 -234.0 14.6 -233.85 14.85 -233.8 16.65 -233.9 17.1 -233.95 17.9 -233.95" fill="#dfa23c" fill-rule="evenodd" stroke="none"/>
  </g>
  <defs>
    <linearGradient gradientTransform="matrix(-0.0139, -0.0036, -0.0085, 0.0209, -44.6, -335.2)" gradientUnits="userSpaceOnUse" id="gradient0" spreadMethod="pad" x1="-819.2" x2="819.2">
      <stop offset="0.0" stop-color="#eacb6f"/>
      <stop offset="1.0" stop-color="#70411f"/>
    </linearGradient>
    <linearGradient gradientTransform="matrix(-0.0139, -0.0048, -0.0085, 0.0275, -56.55, -403.55)" gradientUnits="userSpaceOnUse" id="gradient1" spreadMethod="pad" x1="-819.2" x2="819.2">
      <stop offset="0.0" stop-color="#eacb6f"/>
      <stop offset="1.0" stop-color="#70411f"/>
    </linearGradient>
  </defs>
</svg>
