<?xml version="1.0" encoding="UTF-8" standalone="no"?>
<svg xmlns:xlink="http://www.w3.org/1999/xlink" height="42.0px" width="29.25px" xmlns="http://www.w3.org/2000/svg">
  <g transform="matrix(1.0, 0.0, 0.0, 1.0, 105.4, 222.05)">
    <path d="M-104.4 -221.7 L-104.6 -221.5 Q-106.9 -215.8 -102.75 -211.05 -99.8 -207.7 -97.3 -204.05 -94.5 -200.0 -93.7 -195.15 -96.5 -198.6 -100.9 -199.55 L-101.9 -199.6 Q-102.45 -198.3 -101.6 -196.9 L-101.15 -196.0 -99.6 -191.3 -97.3 -185.45 Q-96.25 -182.8 -94.3 -180.8 -93.9 -180.3 -93.2 -180.3 L-85.95 -180.45 -82.3 -180.15 Q-79.95 -179.7 -78.0 -180.9 -77.7 -181.05 -77.7 -181.35 L-77.7 -181.4 Q-76.2 -184.25 -76.35 -187.3 L-76.35 -187.4 Q-76.0 -192.45 -76.2 -197.5 -76.4 -202.5 -78.0 -207.2 -79.6 -211.75 -84.0 -213.8 L-95.0 -219.1 -96.0 -219.6 -97.05 -220.1 -97.25 -220.1 -97.45 -220.1 -97.45 -220.15 -99.05 -218.9 -99.35 -218.95 -100.6 -219.7 -101.85 -220.65 -102.0 -220.75 -103.35 -221.9 -103.9 -222.05 -104.4 -221.7 M-90.45 -207.5 Q-90.3 -207.5 -90.05 -207.7 L-90.15 -208.0 -90.2 -208.3 Q-94.7 -211.75 -98.1 -216.2 L-98.6 -217.35 -97.85 -218.4 -97.35 -218.8 -94.4 -217.55 Q-88.95 -215.05 -83.55 -212.3 -81.6 -211.25 -80.45 -209.45 -77.85 -205.2 -77.4 -200.2 -77.0 -195.9 -77.1 -191.65 -77.15 -187.3 -78.35 -183.3 L-78.55 -182.9 -79.15 -182.8 -79.4 -182.45 -79.5 -182.1 -87.0 -182.4 -88.1 -182.45 -93.55 -182.05 Q-96.25 -186.35 -98.1 -191.25 L-98.3 -191.85 -100.55 -198.35 Q-95.4 -196.7 -93.25 -191.8 L-93.15 -191.65 -92.9 -191.55 -92.35 -191.7 -92.25 -191.9 -92.05 -192.25 Q-92.5 -197.7 -95.05 -202.4 -96.4 -204.95 -98.15 -207.1 L-102.1 -212.1 Q-105.4 -216.1 -103.6 -220.85 L-101.9 -219.35 -100.95 -218.75 -99.45 -218.2 Q-99.75 -217.55 -99.6 -216.7 L-99.55 -216.4 Q-99.35 -215.6 -98.8 -214.95 L-98.05 -213.95 Q-95.65 -211.15 -92.9 -208.7 L-92.25 -208.2 Q-91.4 -207.7 -90.45 -207.55 L-90.45 -207.5 M-87.3 -184.55 L-88.05 -185.95 Q-89.7 -189.65 -89.5 -193.65 L-89.5 -194.1 -89.3 -195.3 -89.25 -195.5 Q-88.8 -197.4 -87.6 -199.0 L-86.4 -200.7 Q-86.7 -201.2 -87.3 -200.9 L-87.3 -200.95 -87.6 -200.6 -88.05 -200.05 -89.55 -197.6 -89.55 -197.55 Q-91.15 -194.15 -90.35 -190.1 L-90.3 -189.5 -90.0 -188.5 -89.45 -187.1 Q-88.8 -185.55 -87.75 -184.3 L-87.4 -184.35 -87.35 -184.5 -87.3 -184.55" fill="#000000" fill-rule="evenodd" stroke="none"/>
    <path d="M-94.4 -217.55 L-97.35 -218.8 -97.85 -218.4 -98.6 -217.35 -98.1 -216.2 Q-94.7 -211.75 -90.2 -208.3 L-90.15 -208.0 -90.05 -207.7 Q-90.3 -207.5 -90.45 -207.5 -89.5 -206.75 -89.0 -205.6 L-88.2 -203.55 -87.9 -202.6 -87.65 -202.05 -87.55 -201.2 -87.6 -200.6 -87.3 -200.95 -87.3 -200.9 Q-86.7 -201.2 -86.4 -200.7 L-87.6 -199.0 Q-88.8 -197.4 -89.25 -195.5 L-89.3 -195.3 -89.5 -194.1 -89.5 -193.65 Q-89.7 -189.65 -88.05 -185.95 L-87.3 -184.55 -87.3 -184.45 Q-86.85 -184.1 -86.15 -184.25 L-85.75 -184.35 Q-83.95 -184.9 -82.65 -186.45 L-82.0 -187.55 Q-81.1 -189.4 -81.05 -191.5 -80.95 -195.4 -81.35 -199.25 L-81.85 -202.0 Q-82.8 -205.65 -84.8 -208.85 L-85.7 -209.95 Q-87.8 -211.95 -90.15 -213.55 L-91.25 -214.35 -93.05 -215.85 Q-93.9 -216.6 -94.4 -217.55 M-98.05 -213.95 L-98.8 -214.95 Q-99.35 -215.6 -99.55 -216.4 L-100.95 -218.75 -101.9 -219.35 -103.6 -220.85 Q-105.4 -216.1 -102.1 -212.1 L-98.15 -207.1 Q-96.4 -204.95 -95.05 -202.4 -92.5 -197.7 -92.05 -192.25 L-92.25 -191.9 -92.35 -191.7 -92.9 -191.55 -93.15 -191.65 -93.25 -191.8 Q-95.4 -196.7 -100.55 -198.35 L-98.3 -191.85 -98.1 -191.25 Q-96.75 -190.8 -95.7 -189.6 L-95.3 -189.2 -94.6 -188.4 Q-93.55 -187.2 -92.15 -186.7 -91.65 -186.55 -91.15 -186.95 -90.25 -187.5 -90.0 -188.5 L-90.3 -189.5 -90.35 -190.1 Q-91.15 -194.15 -89.55 -197.55 L-89.55 -197.6 Q-88.95 -200.8 -92.6 -205.8 L-98.05 -213.95" fill="#ffffff" fill-rule="evenodd" stroke="none"/>
    <path d="M-94.4 -217.55 Q-93.9 -216.6 -93.05 -215.85 L-91.25 -214.35 -90.15 -213.55 Q-87.8 -211.95 -85.7 -209.95 L-84.8 -208.85 Q-82.8 -205.65 -81.85 -202.0 L-81.35 -199.25 Q-80.95 -195.4 -81.05 -191.5 -81.1 -189.4 -82.0 -187.55 L-82.65 -186.45 Q-83.95 -184.9 -85.75 -184.35 L-86.15 -184.25 Q-86.85 -184.1 -87.3 -184.45 L-87.3 -184.55 -87.35 -184.5 -87.4 -184.35 -87.75 -184.3 Q-88.8 -185.55 -89.45 -187.1 L-90.0 -188.5 Q-90.25 -187.5 -91.15 -186.95 -91.65 -186.55 -92.15 -186.7 -93.55 -187.2 -94.6 -188.4 L-95.3 -189.2 -95.7 -189.6 Q-96.75 -190.8 -98.1 -191.25 -96.25 -186.35 -93.55 -182.05 L-88.1 -182.45 -87.0 -182.4 -79.5 -182.1 -79.4 -182.45 -79.15 -182.8 -78.55 -182.9 -78.35 -183.3 Q-77.15 -187.3 -77.1 -191.65 -77.0 -195.9 -77.4 -200.2 -77.85 -205.2 -80.45 -209.45 -81.6 -211.25 -83.55 -212.3 -88.95 -215.05 -94.4 -217.55 M-87.6 -200.6 L-87.55 -201.2 -87.65 -202.05 -87.9 -202.6 -88.2 -203.55 -89.0 -205.6 Q-89.5 -206.75 -90.45 -207.5 L-90.45 -207.55 Q-91.4 -207.7 -92.25 -208.2 L-92.9 -208.7 Q-95.65 -211.15 -98.05 -213.95 L-92.6 -205.8 Q-88.95 -200.8 -89.55 -197.6 L-88.05 -200.05 -87.6 -200.6 M-99.55 -216.4 L-99.6 -216.7 Q-99.75 -217.55 -99.45 -218.2 L-100.95 -218.75 -99.55 -216.4" fill="#cccccc" fill-rule="evenodd" stroke="none"/>
  </g>
</svg>
