<?xml version="1.0" encoding="UTF-8" standalone="no"?>
<svg xmlns:xlink="http://www.w3.org/1999/xlink" height="69.4px" width="71.45px" xmlns="http://www.w3.org/2000/svg">
  <g transform="matrix(1.0, 0.0, 0.0, 1.0, 51.2, 257.95)">
    <path d="M20.25 -237.5 L12.7 -237.5 12.7 -241.7 20.25 -241.7 20.25 -237.5 M-44.5 -245.25 Q-37.05 -250.75 -25.95 -252.3 -11.7 -254.2 1.6 -247.3 L3.8 -244.9 1.2 -242.5 1.2 -242.45 1.25 -242.45 7.55 -237.05 7.55 -237.0 -21.3 -238.0 -18.85 -241.5 -18.65 -245.1 -18.65 -245.3 -21.3 -247.65 -42.3 -245.5 -44.5 -245.25 M-0.4 -221.2 L6.6 -215.3 -3.2 -217.75 -2.25 -221.75 -0.4 -221.2 M-10.8 -208.3 L1.15 -199.9 1.0 -199.7 1.25 -199.8 1.0 -199.7 -26.55 -207.1 -10.8 -208.3 M15.2 -217.9 L8.7 -217.9 8.7 -221.45 15.2 -221.45 15.2 -217.9 M6.55 -204.45 L12.5 -204.45 12.5 -200.75 6.55 -200.75 6.55 -204.45 M-17.0 -224.1 L-20.35 -222.1 -27.85 -224.0 -21.9 -224.65 -17.0 -224.1 M-21.2 -218.35 L-19.9 -217.35 -26.6 -216.0 -26.4 -216.75 Q-22.85 -218.15 -21.2 -218.35 M-30.0 -197.95 L-30.3 -198.1 -30.2 -198.2 Q-27.45 -201.75 -23.25 -200.2 -18.0 -198.1 -12.45 -196.65 -21.5 -194.2 -30.0 -197.95" fill="#cf40ff" fill-rule="evenodd" stroke="none"/>
    <path d="M1.2 -242.5 L1.25 -242.45 1.2 -242.45 1.2 -242.5 M7.55 -237.05 L7.6 -237.0 7.55 -237.0 -4.15 -232.9 -12.45 -236.7 Q-16.55 -236.7 -19.4 -233.45 -22.3 -230.2 -22.3 -225.6 L-21.9 -224.65 -27.85 -224.0 -20.35 -222.1 -21.2 -218.35 Q-22.85 -218.15 -26.4 -216.75 L-26.0 -219.3 -34.55 -223.55 -37.35 -221.15 -40.2 -215.9 -30.95 -206.85 -30.8 -206.75 Q-25.45 -207.6 -26.6 -216.0 L-19.9 -217.35 -17.1 -215.4 -12.7 -212.7 -3.2 -217.75 6.6 -215.3 -10.8 -208.3 -26.55 -207.1 1.0 -199.7 1.25 -199.8 1.25 -199.7 1.0 -199.7 1.25 -199.65 1.2 -199.3 Q-9.5 -188.5 -26.15 -193.45 L-30.0 -197.95 Q-21.5 -194.2 -12.45 -196.65 -18.0 -198.1 -23.25 -200.2 -27.45 -201.75 -30.2 -198.2 L-35.9 -204.9 -36.05 -202.55 -37.15 -199.55 -38.45 -201.4 -38.75 -202.85 -38.65 -207.15 -41.55 -211.45 -42.3 -212.4 -51.2 -218.35 -47.05 -221.35 -46.1 -222.2 -42.45 -228.2 -45.15 -230.2 -46.45 -231.0 Q-48.5 -232.2 -49.9 -234.0 L-50.2 -239.1 -43.9 -245.05 -42.3 -245.5 -21.3 -247.65 -29.9 -243.2 -29.9 -240.55 -29.8 -240.25 -29.4 -238.55 -24.8 -236.35 -21.3 -238.0 7.55 -237.0 7.55 -237.05 M-2.15 -222.2 L-0.4 -221.2 -2.25 -221.75 -2.15 -222.2 M-39.15 -231.25 L-36.0 -236.6 Q-40.2 -234.4 -44.45 -232.25 L-39.15 -231.25" fill="#8f00bf" fill-rule="evenodd" stroke="none"/>
    <path d="M1.25 -199.7 L1.25 -199.65 1.0 -199.7 1.25 -199.7" fill="#d7df3f" fill-rule="evenodd" stroke="none"/>
    <path d="M1.15 -199.9 L1.25 -199.8 1.0 -199.7 1.15 -199.9" fill="#e7e66d" fill-rule="evenodd" stroke="none"/>
    <path d="M-32.35 -188.55 L-39.35 -195.05 -37.15 -199.55 -36.05 -202.55 -31.05 -190.0 -33.85 -191.25 -32.35 -188.55 M-38.45 -201.4 L-42.1 -201.15 -44.6 -208.8 -42.3 -212.4 -41.55 -211.45 -43.05 -208.7 -38.75 -202.85 -38.45 -201.4 M-47.05 -221.35 L-49.55 -222.65 -46.45 -231.0 -45.15 -230.2 -46.1 -222.2 -47.05 -221.35 M-21.3 -247.65 L-18.65 -245.3 -18.65 -245.1 Q-18.85 -242.5 -21.8 -240.55 -24.95 -238.55 -29.4 -238.55 L-29.8 -240.25 -25.75 -241.9 -29.9 -240.55 -29.9 -243.2 -21.3 -247.65 M-38.05 -249.8 Q-38.05 -253.2 -35.25 -255.55 -32.45 -257.95 -28.5 -257.95 L-38.05 -249.8 M-37.35 -221.15 L-28.65 -218.75 -29.0 -214.55 -32.85 -216.3 -29.5 -211.9 -30.95 -206.85 -40.2 -215.9 -37.35 -221.15" fill="url(#gradient0)" fill-rule="evenodd" stroke="none"/>
    <path d="M-4.15 -232.9 L-0.95 -229.25 -2.15 -222.2 -2.25 -221.75 -3.2 -217.75 -12.7 -212.7 -17.1 -215.4 -5.2 -220.75 -5.25 -225.35 -6.05 -225.35 -7.25 -225.1 Q-6.3 -225.85 -4.15 -226.9 L-8.9 -226.35 -4.2 -231.05 -6.95 -233.05 -10.45 -231.45 -7.05 -233.6 -12.45 -236.7 -4.15 -232.9 M-26.15 -193.45 Q-26.15 -191.4 -27.95 -189.95 -29.8 -188.55 -32.35 -188.55 L-33.85 -191.25 -31.05 -190.0 -36.05 -202.55 -35.9 -204.9 -30.2 -198.2 -30.3 -198.1 -30.0 -197.95 -26.15 -193.45 M-18.65 -245.1 L-18.85 -241.5 -21.3 -238.0 -24.8 -236.35 -29.4 -238.55 Q-24.95 -238.55 -21.8 -240.55 -18.85 -242.5 -18.65 -245.1 M-28.5 -257.95 L-27.75 -255.95 -38.05 -249.8 -28.5 -257.95 M-45.15 -230.2 L-42.45 -228.2 -46.1 -222.2 -45.15 -230.2 M-38.75 -202.85 L-43.05 -208.7 -41.55 -211.45 -38.65 -207.15 -38.75 -202.85 M-22.3 -225.6 L-12.9 -226.1 -17.0 -224.1 -21.9 -224.65 -22.3 -225.6 M-29.8 -240.25 L-29.9 -240.55 -25.75 -241.9 -29.8 -240.25 M-26.4 -216.75 L-26.6 -216.0 Q-25.45 -207.6 -30.8 -206.75 L-30.95 -206.85 -29.5 -211.9 -32.85 -216.3 -29.0 -214.55 -28.65 -218.75 -37.35 -221.15 -34.55 -223.55 -26.0 -219.3 -26.4 -216.75" fill="#dfa23c" fill-rule="evenodd" stroke="none"/>
    <path d="M-50.2 -239.1 L-44.5 -245.25 -42.3 -245.5 -43.9 -245.05 -50.2 -239.1" fill="#f8f8d6" fill-rule="evenodd" stroke="none"/>
    <path d="M-39.15 -231.25 L-44.45 -232.25 Q-40.2 -234.4 -36.0 -236.6 L-39.15 -231.25" fill="#700095" fill-rule="evenodd" stroke="none"/>
    <path d="M-17.0 -224.1 L-12.9 -226.1 -22.3 -225.6 Q-22.3 -230.2 -19.4 -233.45 -16.55 -236.7 -12.45 -236.7 L-7.05 -233.6 -10.45 -231.45 -6.95 -233.05 -4.2 -231.05 -8.9 -226.35 -4.15 -226.9 Q-6.3 -225.85 -7.25 -225.1 L-6.05 -225.35 -5.25 -225.35 -5.2 -220.75 -17.1 -215.4 -19.9 -217.35 -21.2 -218.35 -20.35 -222.1 -17.0 -224.1" fill="url(#gradient1)" fill-rule="evenodd" stroke="none"/>
  </g>
  <defs>
    <linearGradient gradientTransform="matrix(-0.0184, -0.0063, -0.0112, 0.0364, -129.2, -410.9)" gradientUnits="userSpaceOnUse" id="gradient0" spreadMethod="pad" x1="-819.2" x2="819.2">
      <stop offset="0.0" stop-color="#eacb6f"/>
      <stop offset="1.0" stop-color="#70411f"/>
    </linearGradient>
    <linearGradient gradientTransform="matrix(-0.0184, -0.0063, -0.0112, 0.0364, -115.7, -448.85)" gradientUnits="userSpaceOnUse" id="gradient1" spreadMethod="pad" x1="-819.2" x2="819.2">
      <stop offset="0.0" stop-color="#eacb6f"/>
      <stop offset="1.0" stop-color="#70411f"/>
    </linearGradient>
  </defs>
</svg>
