<?xml version="1.0" encoding="UTF-8" standalone="no"?>
<svg xmlns:xlink="http://www.w3.org/1999/xlink" height="42.0px" width="29.25px" xmlns="http://www.w3.org/2000/svg">
  <g transform="matrix(1.0, 0.0, 0.0, 1.0, 104.6, 222.05)">
    <path d="M-103.6 -221.7 L-103.8 -221.5 Q-106.1 -215.8 -101.95 -211.05 -99.0 -207.7 -96.5 -204.05 -93.7 -200.0 -92.9 -195.15 -95.7 -198.6 -100.1 -199.55 L-101.1 -199.6 Q-101.65 -198.3 -100.8 -196.9 L-100.35 -196.0 -98.8 -191.3 -96.5 -185.45 Q-95.45 -182.8 -93.5 -180.8 -93.1 -180.3 -92.4 -180.3 L-85.15 -180.45 -81.5 -180.15 Q-79.15 -179.7 -77.2 -180.9 -76.9 -181.05 -76.9 -181.35 L-76.9 -181.4 Q-75.4 -184.25 -75.55 -187.3 L-75.55 -187.4 Q-75.2 -192.45 -75.4 -197.5 -75.6 -202.5 -77.2 -207.2 -78.8 -211.75 -83.2 -213.8 L-94.2 -219.1 -95.2 -219.6 -96.25 -220.1 -96.45 -220.1 -96.65 -220.1 -96.65 -220.15 Q-97.75 -219.65 -98.25 -218.9 L-98.55 -218.95 -99.8 -219.7 -101.05 -220.65 -101.2 -220.75 -102.55 -221.9 -103.1 -222.05 -103.6 -221.7 M-89.65 -207.5 Q-89.5 -207.5 -89.25 -207.7 L-89.35 -208.0 -89.4 -208.3 Q-93.9 -211.75 -97.3 -216.2 L-97.8 -217.35 -97.05 -218.4 -96.55 -218.8 -93.6 -217.55 Q-88.15 -215.05 -82.75 -212.3 -80.8 -211.25 -79.65 -209.45 -77.05 -205.2 -76.6 -200.2 -76.2 -195.9 -76.3 -191.65 -76.35 -187.3 -77.55 -183.3 L-77.75 -182.9 -78.35 -182.8 -78.6 -182.45 -78.7 -182.1 -86.2 -182.4 -87.3 -182.45 -92.75 -182.05 Q-95.45 -186.35 -97.3 -191.25 L-97.5 -191.85 -99.75 -198.35 Q-94.6 -196.7 -92.45 -191.8 L-92.35 -191.65 -92.1 -191.55 -91.55 -191.7 -91.45 -191.9 -91.25 -192.25 Q-91.7 -197.7 -94.25 -202.4 -95.6 -204.95 -97.35 -207.1 L-101.3 -212.1 Q-104.6 -216.1 -102.8 -220.85 L-101.1 -219.35 -100.15 -218.75 -98.65 -218.2 Q-98.95 -217.55 -98.8 -216.7 L-98.75 -216.4 Q-98.55 -215.6 -98.0 -214.95 L-97.25 -213.95 Q-94.85 -211.15 -92.1 -208.7 L-91.45 -208.2 Q-90.6 -207.7 -89.65 -207.55 L-89.65 -207.5 M-86.5 -184.55 L-87.25 -185.95 Q-88.9 -189.65 -88.7 -193.65 L-88.7 -194.1 -88.5 -195.3 -88.45 -195.5 Q-88.0 -197.4 -86.8 -199.0 L-85.6 -200.7 Q-85.9 -201.2 -86.5 -200.9 L-86.5 -200.95 -86.8 -200.6 -87.25 -200.05 -88.75 -197.6 -88.75 -197.55 Q-90.35 -194.15 -89.55 -190.1 L-89.5 -189.5 -89.2 -188.5 -88.65 -187.1 Q-88.0 -185.55 -86.95 -184.3 L-86.6 -184.35 -86.55 -184.5 -86.5 -184.55" fill="#000000" fill-rule="evenodd" stroke="none"/>
    <path d="M-93.6 -217.55 L-96.55 -218.8 -97.05 -218.4 -97.8 -217.35 -97.3 -216.2 Q-93.9 -211.75 -89.4 -208.3 L-89.35 -208.0 -89.25 -207.7 Q-89.5 -207.5 -89.65 -207.5 -88.7 -206.75 -88.2 -205.6 L-87.4 -203.55 -87.1 -202.6 -86.85 -202.05 -86.75 -201.2 -86.8 -200.6 -86.5 -200.95 -86.5 -200.9 Q-85.9 -201.2 -85.6 -200.7 L-86.8 -199.0 Q-88.0 -197.4 -88.45 -195.5 L-88.5 -195.3 -88.7 -194.1 -88.7 -193.65 Q-88.9 -189.65 -87.25 -185.95 L-86.5 -184.55 -86.5 -184.45 Q-86.05 -184.1 -85.35 -184.25 L-84.95 -184.35 Q-83.15 -184.9 -81.85 -186.45 L-81.2 -187.55 Q-80.3 -189.4 -80.25 -191.5 -80.15 -195.4 -80.55 -199.25 L-81.05 -202.0 Q-82.0 -205.65 -84.0 -208.85 L-84.9 -209.95 Q-87.0 -211.95 -89.35 -213.55 L-90.45 -214.35 -92.25 -215.85 Q-93.1 -216.6 -93.6 -217.55 M-97.25 -213.95 L-98.0 -214.95 Q-98.55 -215.6 -98.75 -216.4 L-100.15 -218.75 -101.1 -219.35 -102.8 -220.85 Q-104.6 -216.1 -101.3 -212.1 L-97.35 -207.1 Q-95.6 -204.95 -94.25 -202.4 -91.7 -197.7 -91.25 -192.25 L-91.45 -191.9 -91.55 -191.7 -92.1 -191.55 -92.35 -191.65 -92.45 -191.8 Q-94.6 -196.7 -99.75 -198.35 L-97.5 -191.85 -97.3 -191.25 Q-95.95 -190.8 -94.9 -189.6 L-94.5 -189.2 -93.8 -188.4 Q-92.75 -187.2 -91.35 -186.7 -90.85 -186.55 -90.35 -186.95 -89.45 -187.5 -89.2 -188.5 L-89.5 -189.5 -89.55 -190.1 Q-90.35 -194.15 -88.75 -197.55 L-88.75 -197.6 Q-88.15 -200.8 -91.8 -205.8 L-97.25 -213.95" fill="#ffffff" fill-rule="evenodd" stroke="none"/>
    <path d="M-93.6 -217.55 Q-93.1 -216.6 -92.25 -215.85 L-90.45 -214.35 -89.35 -213.55 Q-87.0 -211.95 -84.9 -209.95 L-84.0 -208.85 Q-82.0 -205.65 -81.05 -202.0 L-80.55 -199.25 Q-80.15 -195.4 -80.25 -191.5 -80.3 -189.4 -81.2 -187.55 L-81.85 -186.45 Q-83.15 -184.9 -84.95 -184.35 L-85.35 -184.25 Q-86.05 -184.1 -86.5 -184.45 L-86.5 -184.55 -86.55 -184.5 -86.6 -184.35 -86.95 -184.3 Q-88.0 -185.55 -88.65 -187.1 L-89.2 -188.5 Q-89.45 -187.5 -90.35 -186.95 -90.85 -186.55 -91.35 -186.7 -92.75 -187.2 -93.8 -188.4 L-94.5 -189.2 -94.9 -189.6 Q-95.95 -190.8 -97.3 -191.25 -95.45 -186.35 -92.75 -182.05 L-87.3 -182.45 -86.2 -182.4 -78.7 -182.1 -78.6 -182.45 -78.35 -182.8 -77.75 -182.9 -77.55 -183.3 Q-76.35 -187.3 -76.3 -191.65 -76.2 -195.9 -76.6 -200.2 -77.05 -205.2 -79.65 -209.45 -80.8 -211.25 -82.75 -212.3 -88.15 -215.05 -93.6 -217.55 M-86.8 -200.6 L-86.75 -201.2 -86.85 -202.05 -87.1 -202.6 -87.4 -203.55 -88.2 -205.6 Q-88.7 -206.75 -89.65 -207.5 L-89.65 -207.55 Q-90.6 -207.7 -91.45 -208.2 L-92.1 -208.7 Q-94.85 -211.15 -97.25 -213.95 L-91.8 -205.8 Q-88.15 -200.8 -88.75 -197.6 L-87.25 -200.05 -86.8 -200.6 M-98.75 -216.4 L-98.8 -216.7 Q-98.95 -217.55 -98.65 -218.2 L-100.15 -218.75 -98.75 -216.4" fill="#cccccc" fill-rule="evenodd" stroke="none"/>
  </g>
</svg>
