<?xml version="1.0" encoding="UTF-8" standalone="no"?>
<svg xmlns:xlink="http://www.w3.org/1999/xlink" height="56.1px" width="58.7px" xmlns="http://www.w3.org/2000/svg">
  <g transform="matrix(1.0, 0.0, 0.0, 1.0, 41.7, 248.9)">
    <path d="M13.5 -215.55 L13.5 -215.5 13.5 -215.3 13.45 -215.5 13.5 -215.55 M-4.85 -213.05 L-4.75 -212.85 -5.0 -213.0 -4.85 -213.05" fill="#cf40ff" fill-rule="evenodd" stroke="none"/>
    <path d="M13.6 -211.25 L13.6 -211.2 13.3 -211.25 13.6 -211.25" fill="#8f00bf" fill-rule="evenodd" stroke="none"/>
    <path d="M15.7 -235.75 L9.1 -236.4 5.9 -233.0 17.0 -231.05 17.0 -227.55 13.75 -225.1 13.5 -215.55 13.45 -215.5 Q2.0 -218.15 -4.85 -213.05 L-5.0 -213.0 -4.75 -212.85 Q4.4 -213.6 13.3 -211.25 L13.6 -211.2 Q13.6 -207.15 11.3 -204.3 8.95 -201.45 5.7 -201.45 L-7.25 -200.7 5.95 -199.3 Q2.55 -194.7 -4.35 -193.5 -26.5 -189.9 -36.75 -204.65 L-33.3 -206.0 -31.5 -215.85 -35.9 -226.0 -40.8 -229.2 Q-45.25 -245.85 -28.25 -247.65 L-29.7 -246.95 -30.4 -240.25 -27.0 -234.55 -23.0 -232.85 Q-5.45 -234.45 -13.15 -247.25 -11.5 -248.9 -9.1 -248.9 6.65 -248.9 15.7 -235.75 M-36.85 -229.8 Q-31.15 -225.45 -30.1 -230.3 L-33.2 -234.55 -33.45 -230.75 -36.8 -229.95 -36.9 -229.85 -36.85 -229.8 M-27.5 -203.7 L-27.05 -213.2 -28.15 -215.25 -28.95 -206.95 -32.25 -205.25 -27.5 -203.7" fill="#d7df3f" fill-rule="evenodd" stroke="none"/>
    <path d="M15.7 -235.75 L17.0 -231.05 5.9 -233.0 9.1 -236.4 15.7 -235.75 M13.5 -215.3 Q13.8 -213.25 13.6 -211.25 L13.3 -211.25 Q4.4 -213.6 -4.75 -212.85 L-4.85 -213.05 Q2.0 -218.15 13.45 -215.5 L13.5 -215.3 M5.7 -201.45 L5.95 -199.3 -7.25 -200.7 5.7 -201.45" fill="#e7e66d" fill-rule="evenodd" stroke="none"/>
    <path d="M-36.85 -229.8 L-36.8 -229.95 -33.45 -230.75 -33.2 -234.55 -30.1 -230.3 Q-31.15 -225.45 -36.85 -229.8 M-27.5 -203.7 L-32.25 -205.25 -28.95 -206.95 -28.15 -215.25 -27.05 -213.2 -27.5 -203.7" fill="#767614" fill-rule="evenodd" stroke="none"/>
  </g>
</svg>
