<?xml version="1.0" encoding="UTF-8" standalone="no"?>
<svg xmlns:xlink="http://www.w3.org/1999/xlink" height="9.0px" width="10.1px" xmlns="http://www.w3.org/2000/svg">
  <g transform="matrix(1.0, 0.0, 0.0, 1.0, 5.05, 4.45)">
    <path d="M0.95 -4.45 L3.15 -3.75 4.35 -2.55 5.05 0.8 3.7 3.9 2.05 4.05 3.8 0.8 3.3 -2.25 0.95 -4.45 M0.85 1.4 L0.65 1.9 -1.2 2.15 -2.4 0.95 -2.6 -0.15 -1.75 -1.6 0.05 -1.9 0.55 -1.4 -1.4 -1.15 -2.05 0.0 -1.9 0.75 -1.0 1.65 0.85 1.4" fill="#999999" fill-rule="evenodd" stroke="none"/>
    <path d="M2.05 4.05 L-1.9 4.55 -4.6 1.9 -5.05 -0.6 Q-3.95 -2.35 -2.35 -3.35 -0.95 -4.25 0.95 -4.45 L3.3 -2.25 3.8 0.8 2.05 4.05 M0.55 -1.4 L0.05 -1.9 -1.75 -1.6 -2.6 -0.15 -2.4 0.95 -1.2 2.15 0.65 1.9 0.85 1.4 1.3 0.45 1.1 -0.9 0.55 -1.4" fill="#cccccc" fill-rule="evenodd" stroke="none"/>
    <path d="M2.05 4.05 L-1.9 4.55 -4.6 1.9 -5.05 -0.6 Q-3.95 -2.35 -2.35 -3.35 -0.95 -4.25 0.95 -4.45 L3.15 -3.75 4.35 -2.55 5.05 0.8 3.7 3.9 2.05 4.05 3.8 0.8 3.3 -2.25 0.95 -4.45 M0.85 1.4 L0.65 1.9 -1.2 2.15 -2.4 0.95 -2.6 -0.15 -1.75 -1.6 0.05 -1.9 0.55 -1.4 1.1 -0.9 1.3 0.45 0.85 1.4 -1.0 1.65 -1.9 0.75 -2.05 0.0 -1.4 -1.15 0.55 -1.4" fill="none" stroke="#000000" stroke-linecap="round" stroke-linejoin="round" stroke-width="0.05"/>
  </g>
</svg>
