<?xml version="1.0" encoding="UTF-8" standalone="no"?>
<svg xmlns:xlink="http://www.w3.org/1999/xlink" height="11.4px" width="9.85px" xmlns="http://www.w3.org/2000/svg">
  <g transform="matrix(1.0, 0.0, 0.0, 1.0, 63.45, 178.85)">
    <path d="M-59.9 -174.05 L-59.95 -174.15 -61.55 -173.1 -63.45 -174.5 -56.55 -178.85 -55.9 -176.7 -57.85 -175.5 -57.8 -175.4 -59.9 -174.05 M-57.55 -175.05 L-56.95 -174.1 -59.05 -172.75 -59.65 -173.7 -57.55 -175.05 M-56.55 -173.4 L-55.75 -172.15 -57.85 -170.8 -58.65 -172.05 -56.55 -173.4 M-55.2 -171.3 L-54.35 -169.95 -56.45 -168.6 -57.3 -169.95 -55.2 -171.3 M-53.9 -169.3 L-53.6 -168.8 -55.7 -167.45 -56.0 -167.95 -53.9 -169.3" fill="#cccccc" fill-rule="evenodd" stroke="none"/>
    <path d="M-59.9 -174.05 L-57.8 -175.4 -57.55 -175.05 -59.65 -173.7 -59.9 -174.05 M-56.95 -174.1 L-56.55 -173.4 -58.65 -172.05 -59.05 -172.75 -56.95 -174.1 M-55.75 -172.15 L-55.2 -171.3 -57.3 -169.95 -57.85 -170.8 -55.75 -172.15 M-54.35 -169.95 L-53.9 -169.3 -56.0 -167.95 -56.45 -168.6 -54.35 -169.95" fill="#999999" fill-rule="evenodd" stroke="none"/>
    <path d="M-57.8 -175.4 L-57.85 -175.5 -55.9 -176.7 -56.55 -178.85 -63.45 -174.5 -61.55 -173.1 -59.95 -174.15 -59.9 -174.05 M-57.8 -175.4 L-57.55 -175.05 -56.95 -174.1 -56.55 -173.4 -55.75 -172.15 -55.2 -171.3 -54.35 -169.95 -53.9 -169.3 -53.6 -168.8 -55.7 -167.45 -56.0 -167.95 -56.45 -168.6 -57.3 -169.95 -57.85 -170.8 -58.65 -172.05 -59.05 -172.75 -59.65 -173.7 -59.9 -174.05" fill="none" stroke="#000000" stroke-linecap="round" stroke-linejoin="round" stroke-width="0.05"/>
  </g>
</svg>
