<?xml version="1.0" encoding="UTF-8" standalone="no"?>
<svg xmlns:xlink="http://www.w3.org/1999/xlink" height="12.75px" width="16.35px" xmlns="http://www.w3.org/2000/svg">
  <g transform="matrix(1.0, 0.0, 0.0, 1.0, -69.0, 64.75)">
    <path d="M80.8 -60.35 L80.95 -60.3 82.0 -62.85 85.35 -62.8 80.8 -52.0 78.25 -53.95 79.55 -57.0 79.4 -57.05 80.8 -60.35 M78.8 -57.3 L77.25 -57.95 78.65 -61.25 80.2 -60.6 78.8 -57.3 M76.2 -58.4 L74.25 -59.2 75.65 -62.5 77.6 -61.7 76.2 -58.4 M72.9 -59.8 L70.8 -60.7 72.2 -64.0 74.3 -63.1 72.9 -59.8 M69.75 -61.1 L69.0 -61.45 70.4 -64.75 71.15 -64.4 69.75 -61.1" fill="#cccccc" fill-rule="evenodd" stroke="none"/>
    <path d="M80.8 -60.35 L79.4 -57.05 78.8 -57.3 80.2 -60.6 80.8 -60.35 M77.25 -57.95 L76.2 -58.4 77.6 -61.7 78.65 -61.25 77.25 -57.95 M74.25 -59.2 L72.9 -59.8 74.3 -63.1 75.65 -62.5 74.25 -59.2 M70.8 -60.7 L69.75 -61.1 71.15 -64.4 72.2 -64.0 70.8 -60.7" fill="#999999" fill-rule="evenodd" stroke="none"/>
    <path d="M79.4 -57.05 L79.55 -57.0 78.25 -53.95 80.8 -52.0 85.35 -62.8 82.0 -62.85 80.95 -60.3 80.8 -60.35 M79.4 -57.05 L78.8 -57.3 77.25 -57.95 76.2 -58.4 74.25 -59.2 72.9 -59.8 70.8 -60.7 69.75 -61.1 69.0 -61.45 70.4 -64.75 71.15 -64.4 72.2 -64.0 74.3 -63.1 75.65 -62.5 77.6 -61.7 78.65 -61.25 80.2 -60.6 80.8 -60.35" fill="none" stroke="#000000" stroke-linecap="round" stroke-linejoin="round" stroke-width="0.05"/>
  </g>
</svg>
