<?xml version="1.0" encoding="UTF-8" standalone="no"?>
<svg xmlns:xlink="http://www.w3.org/1999/xlink" height="30.25px" width="45.15px" xmlns="http://www.w3.org/2000/svg">
  <g transform="matrix(1.0, 0.0, 0.0, 1.0, 172.75, 178.65)">
    <path d="M-135.75 -178.6 Q-141.25 -178.8 -146.75 -178.4 -152.1 -178.05 -157.2 -176.2 -162.05 -174.45 -164.3 -170.0 L-169.75 -158.8 -170.25 -157.7 -170.75 -156.65 -170.75 -156.5 -170.75 -156.25 -170.8 -156.25 Q-170.25 -155.2 -169.45 -154.65 L-169.5 -154.4 -170.3 -153.2 -171.3 -151.85 -171.4 -151.7 -172.55 -150.25 -172.75 -149.75 -172.35 -149.25 -172.1 -149.05 Q-165.85 -147.0 -160.85 -151.3 -157.3 -154.35 -153.4 -157.0 -149.0 -159.95 -143.8 -160.9 -147.4 -158.05 -148.4 -153.5 L-148.4 -152.6 Q-146.95 -152.05 -145.45 -153.0 L-144.45 -153.45 -139.45 -155.15 Q-136.3 -156.35 -133.2 -157.65 -130.3 -158.85 -128.15 -160.85 -127.65 -161.3 -127.65 -161.95 L-128.0 -169.3 -127.7 -172.9 Q-127.25 -175.3 -128.6 -177.2 L-129.15 -177.5 -129.2 -177.5 Q-132.3 -178.85 -135.65 -178.6 L-135.75 -178.6 M-139.4 -156.7 L-140.05 -156.45 -147.05 -153.9 Q-145.4 -159.15 -140.15 -161.5 L-140.0 -161.65 -139.9 -161.85 -140.05 -162.4 -140.25 -162.55 -140.65 -162.7 Q-146.55 -162.05 -151.6 -159.3 -154.3 -157.9 -156.7 -156.05 L-161.95 -151.85 Q-166.25 -148.4 -171.45 -150.05 -170.5 -150.9 -169.85 -151.85 L-169.45 -152.55 -169.25 -152.75 -169.1 -152.95 -168.2 -154.05 -167.8 -154.35 -166.5 -155.3 -164.4 -157.7 -162.3 -159.9 -159.95 -161.8 -157.35 -163.7 -157.35 -163.75 -157.3 -163.75 -157.5 -164.1 -157.8 -164.05 -160.7 -162.25 Q-163.45 -160.55 -165.5 -158.1 L-167.75 -155.2 Q-168.45 -155.4 -168.95 -155.95 L-169.4 -156.4 -168.0 -159.4 Q-165.5 -165.0 -162.6 -170.5 -161.55 -172.5 -159.6 -173.7 -155.0 -176.45 -149.6 -177.1 L-140.3 -177.7 Q-135.6 -177.8 -131.25 -176.75 L-130.8 -176.6 -130.65 -175.95 -130.3 -175.75 -129.95 -175.65 Q-129.65 -171.9 -130.05 -168.1 L-130.1 -167.05 -129.5 -161.55 Q-134.15 -158.7 -139.4 -156.7" fill="#000000" fill-rule="evenodd" stroke="none"/>
    <path d="M-139.4 -156.7 Q-139.0 -158.05 -137.75 -159.1 L-137.2 -159.55 -136.4 -160.3 Q-135.1 -161.4 -134.65 -162.8 -134.45 -163.3 -134.9 -163.75 -135.5 -164.65 -136.6 -164.9 -135.85 -165.15 -135.1 -165.5 -133.4 -166.25 -132.1 -167.3 L-132.15 -167.65 -132.3 -167.7 -132.35 -167.75 -132.3 -167.75 Q-131.9 -168.25 -132.1 -168.9 L-132.2 -169.3 Q-132.85 -171.15 -134.55 -172.35 L-135.8 -172.95 Q-137.8 -173.8 -140.1 -173.75 L-148.5 -173.15 -151.45 -172.55 Q-155.4 -171.5 -158.85 -169.4 L-160.05 -168.4 -163.8 -163.85 -164.65 -162.7 -166.3 -160.85 Q-167.05 -159.95 -168.0 -159.4 L-169.4 -156.4 -168.95 -155.95 Q-168.45 -155.4 -167.75 -155.2 L-165.5 -158.1 Q-163.45 -160.55 -160.7 -162.25 L-157.8 -164.05 -157.5 -164.1 -157.3 -163.75 Q-156.45 -164.7 -155.2 -165.25 L-153.0 -166.15 -151.95 -166.5 -151.35 -166.75 -150.5 -166.9 -149.85 -166.85 -149.2 -166.4 -146.55 -165.05 Q-150.05 -165.5 -155.6 -162.7 L-159.1 -160.6 Q-162.1 -158.5 -164.1 -155.9 L-165.2 -155.1 Q-165.85 -154.6 -166.75 -154.35 L-169.1 -152.95 -169.25 -152.75 -169.45 -152.55 -169.85 -151.85 Q-170.5 -150.9 -171.45 -150.05 -166.25 -148.4 -161.95 -151.85 L-156.7 -156.05 Q-154.3 -157.9 -151.6 -159.3 -146.55 -162.05 -140.65 -162.7 L-140.25 -162.55 -140.05 -162.4 -139.9 -161.85 -140.0 -161.65 -140.15 -161.5 Q-145.4 -159.15 -147.05 -153.9 L-140.05 -156.45 -139.4 -156.7" fill="#ffffff" fill-rule="evenodd" stroke="none"/>
    <path d="M-168.0 -159.4 Q-167.05 -159.95 -166.3 -160.85 L-164.65 -162.7 -163.8 -163.85 -160.05 -168.4 -158.85 -169.4 Q-155.4 -171.5 -151.45 -172.55 L-148.5 -173.15 -140.1 -173.75 Q-137.8 -173.8 -135.8 -172.95 L-134.55 -172.35 Q-132.85 -171.15 -132.2 -169.3 L-132.1 -168.9 Q-131.9 -168.25 -132.3 -167.75 L-132.35 -167.75 -132.3 -167.7 -132.15 -167.65 -132.1 -167.3 Q-133.4 -166.25 -135.1 -165.5 -135.85 -165.15 -136.6 -164.9 -135.5 -164.65 -134.9 -163.75 -134.45 -163.3 -134.65 -162.8 -135.1 -161.4 -136.4 -160.3 L-137.2 -159.55 -137.75 -159.1 Q-139.0 -158.05 -139.4 -156.7 -134.15 -158.7 -129.5 -161.55 L-130.1 -167.05 -130.05 -168.1 Q-129.65 -171.9 -129.95 -175.65 L-130.3 -175.75 -130.65 -175.95 -130.8 -176.6 -131.25 -176.75 Q-135.6 -177.8 -140.3 -177.7 L-149.6 -177.1 Q-155.0 -176.45 -159.6 -173.7 -161.55 -172.5 -162.6 -170.5 -165.5 -165.0 -168.0 -159.4 M-169.1 -152.95 L-166.75 -154.35 Q-165.85 -154.6 -165.2 -155.1 L-164.1 -155.9 Q-162.1 -158.5 -159.1 -160.6 L-155.6 -162.7 Q-150.05 -165.5 -146.55 -165.05 L-149.2 -166.4 -149.85 -166.85 -150.5 -166.9 -151.35 -166.75 -151.95 -166.5 -153.0 -166.15 -155.2 -165.25 Q-156.45 -164.7 -157.3 -163.75 L-157.35 -163.75 -157.35 -163.7 -159.95 -161.8 -162.3 -159.9 -164.4 -157.7 -166.5 -155.3 -167.8 -154.35 -168.2 -154.05 -169.1 -152.95" fill="#cccccc" fill-rule="evenodd" stroke="none"/>
  </g>
</svg>
