<?xml version="1.0" encoding="UTF-8" standalone="no"?>
<svg xmlns:xlink="http://www.w3.org/1999/xlink" height="120.4px" width="114.05px" xmlns="http://www.w3.org/2000/svg">
  <g transform="matrix(1.0, 0.0, 0.0, 1.0, 56.85, 62.4)">
    <path d="M42.35 -50.6 L43.75 -50.6 42.35 -50.6 37.35 -53.95 37.0 -54.15 36.0 -54.8 32.7 -56.7 29.4 -58.5 29.4 -60.3 32.7 -58.4 37.0 -55.9 38.85 -54.8 39.45 -54.4 40.2 -53.95 47.55 -48.95 47.85 -48.75 56.6 -40.95 56.6 -36.7 54.7 -24.6 54.3 -23.3 54.15 -22.8 53.6 -21.2 53.55 -21.15 52.15 -17.8 44.1 -5.1 44.1 -7.9 44.1 -5.1 43.0 -3.75 49.4 50.0 Q35.0 54.45 20.1 56.15 L-10.55 58.0 -27.1 56.1 -29.05 55.85 Q-38.5 54.6 -47.4 51.3 L-44.85 -1.25 -44.7 5.5 -44.65 17.95 -46.6 50.15 Q-38.5 53.7 -27.1 54.6 -21.65 56.0 -7.6 56.35 6.4 56.7 18.55 54.65 30.65 52.55 33.5 51.65 L35.35 51.25 37.35 51.35 47.1 48.95 42.75 6.5 41.35 -3.75 Q40.7 -3.9 40.85 -4.0 L44.1 -7.9 50.45 -17.55 50.6 -17.8 52.05 -21.15 53.25 -24.6 54.3 -28.85 54.95 -33.3 55.0 -34.05 55.05 -36.7 55.05 -39.95 55.0 -40.95 56.6 -40.95 55.0 -40.95 54.3 -41.6 50.45 -44.65 46.6 -47.55 46.3 -47.75 44.7 -48.95 43.75 -49.6 42.35 -50.6 M43.75 -50.6 L43.75 -49.6 43.75 -50.6 M-47.85 -8.4 Q-52.5 -15.25 -54.7 -23.25 -57.35 -32.85 -56.5 -43.05 L-43.4 -52.15 -46.7 -48.4 -47.9 -47.45 -53.45 -43.25 -56.25 -39.85 -56.25 -36.65 -56.1 -33.2 -54.35 -24.4 -53.45 -21.7 -53.2 -21.1 -53.45 -21.1 -53.2 -21.1 -51.7 -17.7 -47.85 -8.4 M32.7 -58.4 L32.7 -56.7 32.7 -58.4 M36.0 -54.8 L37.0 -54.8 36.0 -54.8 M37.0 -55.9 L37.0 -54.8 37.0 -54.15 37.0 -54.8 37.0 -55.9 M40.2 -53.95 L37.35 -53.95 40.2 -53.95 M37.0 -54.8 L38.85 -54.8 37.0 -54.8 M47.55 -48.95 L44.7 -48.95 47.55 -48.95 M21.8 -24.3 L23.25 -24.3 23.45 -24.3 23.25 -23.9 22.95 -23.35 21.5 -20.95 21.5 -20.9 20.6 -19.55 Q19.15 -17.6 18.25 -20.2 L18.0 -20.9 16.85 -24.35 16.6 -24.95 16.6 -29.15 18.5 -24.35 16.85 -24.35 18.5 -24.35 19.6 -20.95 19.3 -20.9 18.0 -20.9 19.3 -20.9 19.6 -20.95 19.6 -20.9 19.3 -20.9 19.6 -20.9 19.65 -20.65 19.85 -20.9 19.85 -20.95 20.6 -20.95 21.5 -20.95 20.6 -20.95 20.6 -22.15 21.8 -24.3 M19.85 -20.9 L20.6 -20.9 20.6 -19.55 20.6 -20.9 19.85 -20.9 M20.6 -20.95 L20.6 -20.9 21.5 -20.9 20.6 -20.9 20.6 -20.95 M-1.35 -19.45 L-1.35 -18.8 Q-2.6 -18.25 -3.9 -17.85 L-6.3 -17.2 -6.2 -15.7 -6.85 -15.7 -6.2 -15.7 -6.05 -12.2 -7.1 -12.2 -6.85 -15.7 -7.45 -17.85 -2.1 -19.6 -1.35 -19.9 -1.35 -19.45 M-1.95 -21.25 L-2.15 -19.75 -4.55 -21.25 -1.95 -21.25 M-5.8 -4.05 L-5.8 0.25 -7.3 0.25 -5.8 0.25 -5.8 5.95 -5.8 13.7 -5.8 18.45 -5.8 24.95 -7.3 24.95 -5.8 24.95 -5.8 30.95 -5.8 36.2 -7.3 36.2 -5.8 36.2 -5.8 40.95 -5.8 45.55 -5.8 49.4 -7.3 49.4 -7.3 45.55 -7.3 40.95 -7.3 36.2 -7.3 30.95 -7.3 24.95 -7.3 18.45 -7.3 13.7 -5.8 13.7 -7.3 13.7 -7.3 5.95 -7.3 0.25 -7.3 -2.3 -7.3 -4.05 -7.1 -12.2 -6.05 -12.2 -5.8 -4.05 M23.25 -23.9 L23.25 -24.3 23.25 -23.9 M56.6 -36.7 L55.05 -36.7 56.6 -36.7 M54.3 -24.6 L54.3 -28.85 54.3 -24.6 54.7 -24.6 54.3 -24.6 53.25 -24.6 54.3 -24.6 54.3 -23.3 54.3 -24.6 M53.55 -21.15 L52.05 -21.15 53.55 -21.15 M52.15 -17.8 L50.6 -17.8 52.15 -17.8 M-39.55 -54.25 L-38.05 -54.25 -39.55 -53.3 -39.55 -54.25 M-29.85 -50.85 L-28.5 -50.85 -28.45 -48.95 -29.85 -48.95 -28.45 -48.95 -28.25 -45.35 -28.25 -40.95 -28.25 -45.35 -27.75 -40.95 -28.25 -40.95 -27.75 -40.95 -27.05 -36.75 -26.45 -34.05 -28.15 -34.05 -26.45 -34.05 -26.25 -33.35 -24.55 -27.9 -23.1 -24.6 -24.5 -24.6 -23.1 -24.6 -21.6 -21.85 -21.2 -21.25 -21.6 -21.25 -21.2 -21.25 -20.85 -20.65 -20.7 -21.25 -19.6 -24.6 -17.95 -24.6 -19.05 -21.25 -20.7 -21.25 -19.05 -21.25 -21.45 -19.05 -21.6 -19.25 -22.9 -21.2 -22.9 -21.25 -22.3 -21.25 -21.6 -21.25 -22.3 -21.25 -22.9 -21.2 -22.3 -21.25 -22.9 -21.25 -24.5 -24.0 -24.5 -24.6 -24.55 -24.6 -24.55 -27.9 -24.55 -24.6 -24.8 -24.6 -24.55 -24.6 -24.55 -24.1 -24.8 -24.6 -28.0 -33.35 -28.15 -34.05 -28.5 -35.9 -28.65 -36.75 -29.15 -40.0 -29.25 -40.95 -29.8 -47.6 -29.85 -48.95 -29.85 -50.85 M-43.7 -50.85 L-43.15 -50.85 -43.7 -50.45 -43.7 -50.85 M-28.25 -40.95 L-29.25 -40.95 -28.25 -40.95 -28.25 -36.75 -28.25 -40.95 M-28.25 -36.75 L-28.5 -36.75 -28.65 -36.75 -28.5 -36.75 -28.25 -36.75 -27.05 -36.75 -28.25 -36.75 M-53.45 -21.1 L-53.45 -21.7 -53.45 -21.1 M-8.1 -24.55 L-8.1 -24.4 -8.25 -24.55 -8.1 -24.55 M-28.5 -36.75 L-28.5 -35.9 -28.5 -36.75 M-21.6 -21.25 L-21.6 -21.85 -21.6 -21.25 -21.6 -19.25 -21.6 -21.25 M-26.25 -33.35 L-28.0 -33.35 -26.25 -33.35 M-7.45 -17.85 L-3.9 -17.85 -7.45 -17.85 M-5.8 45.55 L-7.3 45.55 -5.8 45.55" fill="#000000" fill-rule="evenodd" stroke="none"/>
    <path d="M42.35 -50.6 L43.75 -49.6 43.75 -48.95 43.75 -49.6 44.7 -48.95 46.3 -47.75 46.3 -47.55 46.3 -47.75 46.6 -47.55 46.3 -47.55 46.6 -47.55 50.45 -44.65 50.45 -40.95 50.45 -44.65 54.3 -41.6 55.0 -40.95 55.05 -39.95 55.05 -36.7 54.3 -36.7 55.05 -36.7 55.0 -34.05 54.95 -33.3 54.3 -28.85 54.3 -33.3 54.3 -28.85 53.25 -24.6 52.05 -21.15 50.45 -21.15 50.45 -24.65 50.45 -21.15 52.05 -21.15 50.6 -17.8 50.45 -17.8 50.6 -17.8 50.45 -17.55 50.45 -17.8 50.45 -17.55 44.1 -7.9 40.85 -4.0 Q40.7 -3.9 41.35 -3.75 L37.35 -3.75 41.35 -3.75 42.75 6.5 37.35 6.25 42.75 6.5 47.1 48.95 37.35 51.35 35.35 51.25 33.5 51.65 Q30.65 52.55 18.55 54.65 6.4 56.7 -7.6 56.35 -21.65 56.0 -27.1 54.6 -38.5 53.7 -46.6 50.15 L-44.65 17.95 -44.7 5.5 -44.85 -1.25 -44.7 -4.4 -47.85 -8.4 -51.7 -17.7 -46.7 -17.7 -43.7 -17.85 -46.7 -17.7 -51.7 -17.7 -53.2 -21.1 -53.45 -21.7 -54.35 -24.4 -56.1 -33.2 -56.25 -36.65 -53.45 -36.65 -56.25 -36.65 -56.25 -39.85 -53.45 -43.25 -53.45 -39.85 -53.45 -43.25 -47.9 -47.45 -46.7 -48.35 -46.7 -48.4 -43.4 -52.15 -39.55 -55.1 -39.35 -55.2 -24.5 -61.65 -21.6 -61.6 -15.8 -61.6 -12.05 -61.6 -8.1 -61.6 -1.2 -61.6 2.25 -61.65 6.0 -61.6 9.7 -61.6 20.6 -61.6 23.25 -61.65 23.3 -61.65 29.4 -60.3 29.4 -58.5 29.4 -54.8 29.4 -58.5 32.7 -56.7 32.7 -54.8 32.7 -56.7 36.0 -54.8 32.7 -54.8 36.0 -54.8 37.0 -54.15 37.0 -53.95 37.0 -54.15 37.35 -53.95 37.0 -53.95 37.0 -50.6 37.0 -53.95 32.7 -53.95 32.7 -50.6 37.0 -50.6 32.7 -50.6 32.7 -53.95 37.0 -53.95 37.35 -53.95 42.35 -50.6 37.0 -50.6 42.35 -50.6 M2.25 -54.8 L2.25 -50.95 2.25 -54.8 -1.2 -54.8 2.25 -54.8 6.0 -54.8 2.25 -54.8 2.25 -61.65 2.25 -54.8 M-1.2 -50.95 L-1.2 -54.8 -1.2 -50.95 2.25 -50.95 6.0 -50.95 6.0 -54.8 6.0 -50.95 2.25 -50.95 -1.2 -50.95 -8.1 -50.9 -1.2 -50.95 -1.2 -48.95 -1.2 -50.95 M9.7 -50.95 L6.0 -50.95 9.7 -50.95 9.7 -54.8 9.7 -50.95 16.6 -51.0 16.6 -54.8 16.6 -51.0 20.6 -51.0 20.6 -54.8 16.6 -54.8 9.7 -54.8 16.6 -54.8 20.6 -54.8 20.6 -61.6 20.6 -54.8 20.6 -51.0 16.6 -51.0 9.7 -50.95 9.7 -48.95 16.6 -48.95 9.7 -48.95 9.7 -40.95 9.7 -48.95 6.0 -48.95 6.0 -40.95 6.0 -48.95 2.25 -48.95 2.25 -40.95 2.25 -48.95 6.0 -48.95 9.7 -48.95 9.7 -50.95 M6.0 -54.8 L9.7 -54.8 6.0 -54.8 6.0 -61.6 6.0 -54.8 M9.7 -54.8 L9.7 -61.6 9.7 -54.8 M23.25 -54.8 L20.6 -54.8 23.25 -54.8 23.25 -61.65 23.25 -54.8 23.25 -51.0 23.25 -54.8 29.4 -54.8 23.25 -54.8 M16.6 -48.95 L16.6 -51.0 16.6 -48.95 20.6 -48.95 16.6 -48.95 16.6 -40.95 16.6 -48.95 M23.25 -51.0 L20.6 -51.0 20.6 -48.95 20.6 -51.0 23.25 -51.0 29.4 -51.05 29.4 -50.6 29.4 -51.05 31.75 -50.6 29.4 -50.6 31.75 -50.6 29.4 -51.05 29.4 -53.95 29.4 -54.8 29.4 -53.95 29.4 -51.05 23.25 -51.0 23.25 -48.95 23.25 -40.95 23.25 -48.95 23.25 -51.0 M26.2 -56.75 Q26.3 -57.6 26.05 -56.45 L26.2 -56.75 M32.7 -54.8 L29.4 -54.8 32.7 -54.8 32.7 -53.95 32.7 -54.8 M31.75 -50.6 L32.7 -50.6 32.7 -48.95 32.7 -50.6 31.75 -50.6 M32.7 -53.95 L29.4 -53.95 32.7 -53.95 M37.0 -47.3 L37.0 -48.95 37.0 -47.3 43.75 -47.3 37.0 -47.3 32.7 -47.3 29.4 -47.3 32.7 -47.3 37.0 -47.3 37.0 -40.95 37.0 -47.3 M43.75 -48.95 L43.75 -47.3 43.75 -48.95 37.0 -48.95 43.75 -48.95 44.7 -48.95 43.75 -48.95 M37.0 -50.6 L37.0 -48.95 37.0 -50.6 M32.7 -48.95 L32.7 -47.3 32.7 -48.95 29.4 -48.95 32.7 -48.95 37.0 -48.95 32.7 -48.95 M29.4 -47.3 L29.4 -48.95 29.4 -47.3 29.4 -40.95 29.4 -39.7 29.4 -40.95 29.4 -47.3 M43.75 -40.95 L37.0 -40.95 43.75 -40.95 43.75 -47.3 43.75 -40.95 43.75 -39.7 43.75 -40.95 46.3 -40.95 43.75 -40.95 M46.3 -47.55 L43.75 -47.3 46.3 -47.55 46.3 -40.95 46.3 -47.55 M32.7 -39.7 L32.7 -40.95 32.7 -39.7 37.0 -39.7 32.7 -39.7 29.4 -39.7 32.7 -39.7 32.7 -36.5 37.0 -36.5 32.7 -36.5 32.7 -39.7 M37.0 -40.95 L37.0 -39.7 37.0 -40.95 32.7 -40.95 37.0 -40.95 M32.7 -47.3 L32.7 -40.95 32.7 -47.3 M20.6 -48.95 L23.25 -48.95 20.6 -48.95 20.6 -40.95 20.6 -48.95 M23.25 -40.95 L20.6 -40.95 23.25 -40.95 29.4 -40.95 23.25 -40.95 23.25 -36.75 23.25 -40.95 M37.0 -39.7 L37.0 -36.5 37.0 -39.7 43.75 -39.7 37.0 -39.7 M23.25 -34.05 L20.6 -34.05 23.25 -34.05 23.25 -36.75 23.25 -34.05 23.25 -24.3 23.25 -34.05 29.4 -34.05 23.25 -34.05 M23.25 -48.95 L29.4 -48.95 23.25 -48.95 M32.7 -40.95 L29.4 -40.95 32.7 -40.95 M20.6 -24.3 L20.6 -34.05 20.6 -36.75 23.25 -36.75 20.6 -36.75 20.6 -34.05 20.6 -24.3 21.8 -24.3 20.6 -24.3 18.5 -24.35 20.6 -24.3 20.6 -22.15 20.6 -24.3 M23.25 -24.3 L21.8 -24.3 20.6 -22.15 20.6 -20.95 19.85 -20.95 19.6 -20.95 18.5 -24.35 16.6 -29.15 16.6 -34.05 16.6 -36.75 16.6 -34.05 20.6 -34.05 16.6 -34.05 16.6 -29.15 16.6 -24.95 16.85 -24.35 16.6 -24.35 16.85 -24.35 18.0 -20.9 18.25 -20.2 Q19.15 -17.6 20.6 -19.55 L20.6 -17.55 20.6 -19.55 21.5 -20.9 22.8 -20.95 23.65 -20.95 22.8 -20.95 21.5 -20.9 21.5 -20.95 22.95 -23.35 23.25 -23.9 23.45 -24.3 23.65 -24.3 23.45 -24.3 23.25 -24.3 M29.4 -36.5 L29.4 -34.05 29.4 -36.5 23.25 -36.75 29.4 -36.5 32.7 -36.5 32.7 -34.05 32.7 -36.5 29.4 -36.5 29.4 -39.7 29.4 -36.5 M29.4 -34.05 L29.4 -33.05 29.4 -24.25 29.4 -33.05 29.4 -34.05 32.7 -34.05 37.0 -34.05 32.7 -34.05 29.4 -34.05 M32.7 -33.05 L32.7 -34.05 32.7 -33.05 37.0 -33.05 32.7 -33.05 29.4 -33.05 32.7 -33.05 32.7 -24.25 32.7 -33.05 M37.0 -36.5 L37.0 -34.05 37.0 -33.05 37.0 -34.05 37.0 -36.5 43.75 -36.5 37.0 -36.5 M43.75 -39.7 L43.75 -36.5 43.75 -39.7 46.3 -39.95 43.75 -39.7 M46.3 -40.95 L46.3 -39.95 46.3 -40.95 50.45 -40.95 46.3 -40.95 M16.6 -36.75 L20.6 -36.75 20.6 -40.95 20.6 -36.75 16.6 -36.75 9.7 -36.75 16.6 -36.75 16.6 -40.95 9.7 -40.95 16.6 -40.95 20.6 -40.95 16.6 -40.95 16.6 -36.75 M6.0 -40.95 L9.7 -40.95 6.0 -40.95 6.0 -36.75 9.7 -36.75 6.0 -36.75 6.0 -40.95 2.25 -40.95 6.0 -40.95 M9.7 -40.95 L9.7 -36.75 9.7 -40.95 M2.25 -50.95 L2.25 -48.95 2.25 -50.95 M6.0 -50.95 L6.0 -48.95 6.0 -50.95 M6.0 -34.05 L9.7 -34.05 6.0 -34.05 6.0 -25.05 6.0 -34.05 6.0 -36.75 2.25 -36.75 6.0 -36.75 6.0 -34.05 2.25 -34.05 6.0 -34.05 M9.4 -25.05 L6.0 -25.05 9.4 -25.05 9.7 -34.05 9.7 -36.75 9.7 -34.05 9.4 -25.05 9.4 -24.35 9.4 -20.9 9.4 -24.35 9.4 -25.05 M2.25 -34.05 L2.25 -36.75 2.25 -34.05 2.25 -25.05 2.25 -34.05 -1.2 -34.05 2.25 -34.05 M6.0 -25.05 L2.25 -25.05 6.0 -25.05 5.55 -20.9 9.4 -20.9 5.55 -20.9 6.0 -25.05 M9.7 -34.05 L16.6 -34.05 9.7 -34.05 M2.25 -36.75 L2.25 -40.95 2.25 -36.75 -1.2 -36.75 2.25 -36.75 M-1.2 -34.05 L-1.2 -36.75 -1.2 -34.05 -8.1 -34.05 -1.2 -34.05 -1.2 -25.05 2.25 -25.05 -1.2 -25.05 -1.2 -21.2 -1.95 -21.25 -4.55 -21.25 -8.1 -21.25 -4.55 -21.25 -2.15 -19.75 -2.1 -19.6 -7.45 -17.85 -6.85 -15.7 -7.75 -15.7 -6.85 -15.7 -7.1 -12.2 -7.75 -12.2 -7.1 -12.2 -7.3 -4.05 -7.3 -2.3 -7.75 -2.3 -7.75 -4.05 -7.75 -2.3 -7.75 0.25 -11.6 0.25 -11.6 -4.05 -11.6 0.25 -7.75 0.25 -7.75 5.95 -11.6 5.95 -15.35 5.95 -11.6 5.95 -7.75 5.95 -7.75 13.7 -7.75 18.45 -11.6 18.45 -15.35 18.45 -11.6 18.45 -7.75 18.45 -7.75 24.95 -11.6 24.95 -11.6 30.95 -11.6 24.95 -7.75 24.95 -7.75 30.95 -11.6 30.95 -7.75 30.95 -7.75 36.2 -11.6 36.2 -11.6 40.95 -11.6 36.2 -7.75 36.2 -7.75 40.95 -11.6 40.95 -7.75 40.95 -7.75 45.55 -11.6 45.55 -11.6 50.95 -7.75 50.95 -11.6 50.95 -15.35 50.95 -21.1 50.95 -24.15 50.95 -28.15 50.95 -35.35 50.95 -39.2 50.95 -35.35 50.95 -28.15 50.95 -24.15 50.95 -21.1 50.95 -15.35 50.95 -11.6 50.95 -11.6 45.55 -7.75 45.55 -7.75 50.95 -7.75 53.35 -7.3 50.95 -7.3 49.4 -5.8 49.4 -5.8 45.55 -1.0 45.55 -5.8 45.55 -5.8 40.95 -5.8 36.2 -5.8 30.95 -5.8 24.95 -5.8 18.45 -5.8 13.7 -1.0 13.7 -5.8 13.7 -5.8 5.95 -5.8 0.25 -5.8 -4.05 -1.0 -4.05 -5.8 -4.05 -6.05 -12.2 -6.2 -15.7 -6.3 -17.2 -3.9 -17.85 -1.35 -17.85 -3.9 -17.85 Q-2.6 -18.25 -1.35 -18.8 L-1.35 -19.45 -1.2 -19.95 -1.35 -19.45 -1.35 -19.9 -1.2 -19.95 Q-0.4 -19.95 0.2 -20.3 0.75 -20.7 0.75 -21.2 L-1.2 -21.2 -1.2 -25.05 -1.2 -34.05 M16.6 -20.9 L18.0 -20.9 16.6 -20.9 16.6 -17.55 16.6 -20.9 16.6 -24.35 16.6 -20.9 9.4 -20.9 16.6 -20.9 M20.6 -17.55 L16.6 -17.55 20.6 -17.55 20.95 -15.35 16.95 -15.35 20.95 -15.35 20.6 -17.55 23.65 -17.55 20.6 -17.55 M9.4 -17.55 L9.4 -20.9 9.4 -17.55 16.6 -17.55 9.4 -17.55 5.55 -17.55 9.4 -17.55 9.75 -15.35 9.4 -17.55 M16.95 -15.35 L16.6 -17.55 16.95 -15.35 9.75 -15.35 16.95 -15.35 16.95 -12.0 16.95 -15.35 M23.65 -20.95 L23.65 -17.55 23.65 -20.95 29.4 -20.95 23.65 -20.95 23.65 -24.3 23.65 -20.95 M-1.35 -17.85 L-1.35 -18.8 -1.35 -17.85 1.4 -17.55 5.55 -17.55 1.4 -17.55 -1.35 -17.85 -1.0 -15.7 -1.35 -17.85 M2.25 -20.9 L5.55 -20.9 5.55 -17.55 5.55 -20.9 2.25 -20.9 2.25 -25.05 2.25 -20.9 M1.75 -15.35 L1.4 -17.55 1.75 -15.35 5.9 -15.35 5.55 -17.55 5.9 -15.35 1.75 -15.35 1.75 -12.05 5.9 -12.05 1.75 -12.05 1.75 -3.75 5.9 -3.75 9.75 -3.75 5.9 -3.75 1.75 -3.75 1.75 0.25 1.75 -3.75 1.75 -12.05 1.75 -15.35 -1.0 -15.7 1.75 -15.35 M20.95 -11.95 L16.95 -12.0 20.95 -11.95 20.95 -15.35 24.0 -15.35 20.95 -15.35 20.95 -11.95 20.95 -3.75 20.95 -11.95 24.0 -11.95 20.95 -11.95 M23.65 -17.55 L24.0 -15.35 23.65 -17.55 29.4 -17.55 23.65 -17.55 M29.4 -20.95 L29.4 -17.55 29.4 -20.95 32.7 -20.95 32.7 -17.55 32.7 -20.95 29.4 -20.95 29.4 -24.25 29.4 -20.95 M5.9 -12.05 L5.9 -15.35 9.75 -15.35 5.9 -15.35 5.9 -12.05 9.75 -12.0 5.9 -12.05 5.9 -3.75 5.9 0.25 1.75 0.25 5.9 0.25 5.9 -3.75 5.9 -12.05 M22.8 -20.95 L21.5 -20.95 22.8 -20.95 M9.75 -15.35 L9.75 -12.0 9.75 -15.35 M9.75 -12.0 L9.75 -3.75 9.75 -12.0 16.95 -12.0 9.75 -12.0 M16.95 -3.75 L16.95 -12.0 16.95 -3.75 20.95 -3.75 16.95 -3.75 9.75 -3.75 16.95 -3.75 16.95 0.25 16.95 -3.75 M24.0 -15.35 L24.0 -11.95 24.0 -15.35 29.75 -15.35 24.0 -15.35 M29.4 -17.55 L29.75 -15.35 29.4 -17.55 32.7 -17.55 29.4 -17.55 M23.65 -24.3 L29.4 -24.25 23.65 -24.3 M-1.0 -4.05 L1.75 -3.75 -1.0 -4.05 -1.0 0.25 -1.0 -4.05 -1.0 -12.2 -1.0 -4.05 M1.75 0.25 L-1.0 0.25 1.75 0.25 1.75 6.25 1.75 0.25 M5.9 6.25 L1.75 6.25 5.9 6.25 5.9 0.25 9.75 0.25 5.9 0.25 5.9 6.25 5.9 13.7 1.75 13.7 5.9 13.7 5.9 6.25 9.75 6.25 5.9 6.25 M9.75 -3.75 L9.75 0.25 9.75 -3.75 M20.95 -3.75 L20.95 0.25 16.95 0.25 20.95 0.25 20.95 -3.75 24.0 -3.75 20.95 -3.75 M24.0 -11.95 L24.0 -3.75 24.0 -11.95 29.75 -11.95 24.0 -11.95 M29.75 -15.35 L29.75 -11.95 29.75 -15.35 M-1.0 -12.2 L1.75 -12.05 -1.0 -12.2 -6.05 -12.2 -1.0 -12.2 -1.0 -15.7 -6.2 -15.7 -1.0 -15.7 -1.0 -12.2 M-1.0 0.25 L-5.8 0.25 -1.0 0.25 -1.0 5.95 -1.0 0.25 M1.75 6.25 L-1.0 5.95 1.75 6.25 1.75 13.7 1.75 6.25 M9.75 0.25 L9.75 6.25 9.75 0.25 16.95 0.25 9.75 0.25 M16.95 6.25 L16.95 0.25 16.95 6.25 20.95 6.25 16.95 6.25 9.75 6.25 16.95 6.25 16.95 13.7 16.95 6.25 M24.0 0.25 L20.95 0.25 20.95 6.25 20.95 0.25 24.0 0.25 24.0 -3.75 24.0 0.25 29.75 0.25 29.75 -3.75 29.75 0.25 33.5 0.25 33.5 -3.75 33.05 -11.9 33.5 -3.75 37.35 -3.75 37.35 -11.9 37.35 -3.75 33.5 -3.75 29.75 -3.75 24.0 -3.75 29.75 -3.75 29.75 -11.95 29.75 -3.75 33.5 -3.75 33.5 0.25 29.75 0.25 29.75 6.25 29.75 0.25 24.0 0.25 24.0 6.25 24.0 13.7 24.0 6.25 24.0 0.25 M33.05 -11.9 L29.75 -11.95 33.05 -11.9 33.05 -15.4 32.7 -17.55 33.05 -15.4 33.05 -11.9 37.35 -11.9 44.1 -11.9 37.35 -11.9 33.05 -11.9 M37.0 -17.55 L32.7 -17.55 37.0 -17.55 37.0 -20.95 37.0 -17.55 37.35 -15.4 37.0 -17.55 43.75 -17.55 37.0 -17.55 M32.7 -24.25 L32.7 -20.95 37.0 -20.95 32.7 -20.95 32.7 -24.25 29.4 -24.25 32.7 -24.25 37.0 -24.25 43.75 -24.2 37.0 -24.25 32.7 -24.25 M16.6 -24.35 L9.4 -24.35 16.6 -24.35 16.6 -24.95 16.6 -24.35 M37.0 -20.95 L37.0 -24.25 37.0 -20.95 43.75 -20.95 37.0 -20.95 M43.75 -24.2 L43.75 -20.95 43.75 -24.2 46.3 -24.65 43.75 -24.2 43.75 -33.05 43.75 -24.2 M43.75 -20.95 L43.75 -17.55 43.75 -20.95 M44.1 -15.4 L37.35 -15.4 33.05 -15.4 37.35 -15.4 44.1 -15.4 43.75 -17.55 44.1 -15.4 44.1 -11.9 44.1 -15.4 M46.3 -17.8 L43.75 -17.55 46.3 -17.8 46.3 -21.15 46.3 -24.65 46.3 -21.15 46.3 -17.8 50.45 -17.8 50.45 -21.15 46.3 -21.15 50.45 -21.15 50.45 -17.8 46.3 -17.8 M37.0 -33.05 L43.75 -33.05 37.0 -33.05 37.0 -24.25 37.0 -33.05 M44.1 -11.9 L44.1 -7.9 44.1 -11.9 M37.35 6.25 L37.35 0.25 37.35 -3.75 37.35 0.25 37.35 6.25 33.5 6.25 37.35 6.25 37.35 13.7 37.35 18.75 37.35 24.95 37.35 31.25 37.35 36.2 37.35 41.25 37.35 45.55 37.35 51.35 37.35 45.55 37.35 41.25 37.35 36.2 37.35 31.25 37.35 24.95 37.35 18.75 37.35 13.7 37.35 6.25 M37.35 -11.9 L37.35 -15.4 37.35 -11.9 M54.3 -39.95 L55.05 -39.95 54.3 -39.95 54.3 -36.7 54.3 -39.95 54.3 -40.95 54.3 -39.95 50.45 -39.95 54.3 -39.95 M54.3 -40.95 L54.3 -41.6 54.3 -40.95 55.0 -40.95 54.3 -40.95 50.45 -40.95 54.3 -40.95 M54.3 -36.7 L50.45 -36.7 50.45 -39.95 50.45 -36.7 54.3 -36.7 54.3 -34.05 54.3 -36.7 M50.45 -39.95 L46.3 -39.95 50.45 -39.95 50.45 -40.95 50.45 -39.95 M55.0 -34.05 L54.3 -34.05 55.0 -34.05 M46.3 -36.7 L50.45 -36.7 50.45 -34.05 50.45 -36.7 46.3 -36.7 46.3 -34.05 46.3 -36.7 43.75 -36.5 43.75 -34.05 43.75 -33.05 43.75 -34.05 37.0 -34.05 43.75 -34.05 43.75 -36.5 46.3 -36.7 46.3 -39.95 46.3 -36.7 M54.3 -34.05 L50.45 -34.05 46.3 -34.05 50.45 -34.05 54.3 -34.05 54.3 -33.3 54.3 -34.05 M54.95 -33.3 L54.3 -33.3 54.95 -33.3 M50.45 -33.3 L50.45 -34.05 50.45 -33.3 54.3 -33.3 50.45 -33.3 46.3 -33.3 50.45 -33.3 50.45 -24.65 50.45 -33.3 M46.3 -24.65 L46.3 -33.3 46.3 -24.65 50.45 -24.65 46.3 -24.65 M46.3 -33.3 L46.3 -34.05 46.3 -33.3 43.75 -33.05 46.3 -33.3 M46.3 -34.05 L43.75 -34.05 46.3 -34.05 M50.45 -24.65 L53.25 -24.6 50.45 -24.65 M29.4 -48.95 L29.4 -50.6 29.4 -48.95 M33.5 6.25 L33.5 0.25 37.35 0.25 33.5 0.25 33.5 6.25 29.75 6.25 33.5 6.25 33.5 13.7 37.35 13.7 33.5 13.7 33.5 6.25 M29.75 6.25 L24.0 6.25 29.75 6.25 29.75 13.7 29.75 6.25 M33.5 18.75 L33.5 13.7 29.75 13.7 33.5 13.7 33.5 18.75 37.35 18.75 33.5 18.75 29.75 18.75 33.5 18.75 33.5 24.95 37.35 24.95 33.5 24.95 33.5 18.75 M29.75 13.7 L24.0 13.7 29.75 13.7 29.75 18.75 29.75 13.7 M20.95 6.25 L24.0 6.25 20.95 6.25 20.95 13.7 24.0 13.7 20.95 13.7 20.95 6.25 M24.0 18.75 L24.0 13.7 24.0 18.75 29.75 18.75 24.0 18.75 20.95 18.75 24.0 18.75 24.0 24.95 24.0 18.75 M29.75 24.95 L29.75 18.75 29.75 24.95 33.5 24.95 33.5 31.25 33.5 24.95 29.75 24.95 24.0 24.95 29.75 24.95 29.75 31.25 29.75 24.95 M37.35 31.25 L33.5 31.25 37.35 31.25 M24.0 24.95 L20.95 24.95 20.95 18.75 20.95 24.95 24.0 24.95 24.0 31.25 24.0 24.95 M20.95 18.75 L20.95 13.7 20.95 18.75 16.95 18.75 20.95 18.75 M16.95 24.95 L16.95 18.75 16.95 24.95 20.95 24.95 20.95 31.25 20.95 24.95 16.95 24.95 9.75 24.95 16.95 24.95 16.95 31.25 16.95 24.95 M24.0 31.25 L20.95 31.25 24.0 31.25 24.0 36.2 24.0 31.25 29.75 31.25 33.5 31.25 29.75 31.25 24.0 31.25 M9.75 13.7 L5.9 13.7 5.9 18.75 5.9 13.7 9.75 13.7 9.75 6.25 9.75 13.7 9.75 18.75 9.75 13.7 16.95 13.7 9.75 13.7 M37.35 36.2 L33.5 36.2 33.5 31.25 33.5 36.2 37.35 36.2 M20.95 13.7 L16.95 13.7 20.95 13.7 M16.95 18.75 L9.75 18.75 16.95 18.75 16.95 13.7 16.95 18.75 M1.75 18.75 L5.9 18.75 1.75 18.75 1.75 24.95 1.75 18.75 1.75 13.7 1.75 18.75 -1.0 18.45 1.75 18.75 M5.9 18.75 L5.9 24.95 1.75 24.95 5.9 24.95 5.9 18.75 9.75 18.75 5.9 18.75 M9.75 24.95 L9.75 18.75 9.75 24.95 5.9 24.95 5.9 31.25 5.9 24.95 9.75 24.95 9.75 31.25 9.75 24.95 M20.95 31.25 L16.95 31.25 20.95 31.25 20.95 36.2 24.0 36.2 20.95 36.2 20.95 31.25 M29.75 36.2 L29.75 31.25 29.75 36.2 33.5 36.2 33.5 41.25 33.5 36.2 29.75 36.2 24.0 36.2 29.75 36.2 29.75 41.25 29.75 36.2 M37.35 41.25 L33.5 41.25 37.35 41.25 M-1.0 24.95 L-1.0 18.45 -1.0 24.95 1.75 24.95 -1.0 24.95 -5.8 24.95 -1.0 24.95 -1.0 30.95 -1.0 24.95 M1.75 31.25 L1.75 24.95 1.75 31.25 5.9 31.25 1.75 31.25 1.75 36.2 1.75 31.25 -1.0 30.95 1.75 31.25 M16.95 31.25 L9.75 31.25 16.95 31.25 16.95 36.2 16.95 31.25 M20.95 41.25 L20.95 36.2 16.95 36.2 20.95 36.2 20.95 41.25 24.0 41.25 20.95 41.25 16.95 41.25 20.95 41.25 20.95 45.55 24.0 45.55 20.95 45.55 20.95 41.25 M24.0 36.2 L24.0 41.25 24.0 36.2 M33.5 41.25 L29.75 41.25 33.5 41.25 33.5 45.55 37.35 45.55 33.5 45.55 33.5 41.25 M5.9 31.25 L5.9 36.2 1.75 36.2 5.9 36.2 5.9 31.25 9.75 31.25 5.9 31.25 M9.75 36.2 L9.75 31.25 9.75 36.2 16.95 36.2 9.75 36.2 5.9 36.2 5.9 41.25 5.9 36.2 9.75 36.2 9.75 41.25 9.75 36.2 M16.95 41.25 L16.95 36.2 16.95 41.25 16.95 45.55 16.95 41.25 9.75 41.25 5.9 41.25 9.75 41.25 9.75 45.55 9.75 41.25 16.95 41.25 M24.0 41.25 L24.0 45.55 24.0 41.25 29.75 41.25 24.0 41.25 M29.75 45.55 L29.75 41.25 29.75 45.55 33.5 45.55 33.5 51.25 33.5 45.55 29.75 45.55 24.0 45.55 29.75 45.55 29.75 51.25 29.75 45.55 M35.35 51.25 L33.5 51.25 35.35 51.25 M16.95 45.55 L9.75 45.55 16.95 45.55 16.95 51.25 16.95 45.55 20.95 45.55 20.95 51.25 20.95 45.55 16.95 45.55 M9.75 45.55 L5.9 45.55 5.9 41.25 5.9 45.55 9.75 45.55 9.75 51.25 9.75 45.55 M16.95 51.25 L9.75 51.25 16.95 51.25 20.95 51.25 24.0 51.25 20.95 51.25 16.95 51.25 M24.0 45.55 L24.0 51.25 24.0 45.55 M33.5 51.25 L29.75 51.25 33.5 51.25 33.5 51.65 33.5 51.25 M5.9 41.25 L1.75 41.25 5.9 41.25 M1.75 41.25 L1.75 45.55 1.75 41.25 -1.0 40.95 1.75 41.25 1.75 36.2 1.75 41.25 M-1.0 45.55 L-1.0 40.95 -1.0 45.55 1.75 45.55 5.9 45.55 5.9 51.25 5.9 45.55 1.75 45.55 -1.0 45.55 -1.0 50.95 -1.0 45.55 M9.75 51.25 L5.9 51.25 9.75 51.25 M-1.0 50.95 L1.75 51.25 5.9 51.25 1.75 51.25 -1.0 50.95 M24.0 51.25 L29.75 51.25 24.0 51.25 M-39.2 18.45 L-39.2 24.95 -39.2 30.95 -39.2 36.2 -39.2 40.95 -39.2 45.55 -39.2 50.95 -39.2 45.55 -39.2 40.95 -39.2 36.2 -39.2 30.95 -39.2 24.95 -39.2 18.45 -44.65 17.95 -39.2 18.45 -39.2 13.7 -35.35 13.7 -39.2 13.7 -39.2 18.45 -35.35 18.45 -39.2 18.45 M1.75 45.55 L1.75 51.25 1.75 45.55 M-38.05 -54.25 L-39.55 -54.25 -39.55 -53.3 -38.05 -54.25 -35.7 -54.25 -38.05 -54.25 M-35.7 -50.85 L-35.7 -54.25 -35.7 -50.85 -29.85 -50.85 -35.7 -50.85 -39.55 -50.85 -39.55 -53.3 -39.55 -50.85 -35.7 -50.85 -35.7 -48.95 -35.7 -50.85 M-28.5 -50.85 L-29.85 -50.85 -29.85 -48.95 -35.7 -48.95 -29.85 -48.95 -29.8 -47.6 -35.7 -47.6 -29.8 -47.6 -29.25 -40.95 -35.7 -40.95 -29.25 -40.95 -29.15 -40.0 -35.7 -40.0 -29.15 -40.0 -28.65 -36.75 -35.7 -36.75 -28.65 -36.75 -28.5 -35.9 -28.5 -34.05 -28.5 -35.9 -28.15 -34.05 -28.5 -34.05 -35.7 -34.05 -28.5 -34.05 -28.15 -34.05 -28.0 -33.35 -28.5 -33.35 -28.0 -33.35 -24.8 -24.6 -28.5 -24.65 -24.8 -24.6 -24.55 -24.1 -24.55 -24.6 -24.5 -24.6 -24.5 -24.0 -24.5 -22.4 -24.55 -24.1 -24.5 -22.4 -24.5 -24.0 -22.9 -21.25 -22.9 -21.2 -21.6 -19.25 -21.6 -17.85 -21.6 -19.25 -21.45 -19.05 -21.45 -17.85 -21.45 -19.05 -19.05 -21.25 -17.95 -24.6 -19.6 -24.6 -21.6 -24.6 -19.6 -24.6 -20.7 -21.25 -21.2 -21.25 -21.6 -21.85 -21.6 -24.6 -21.6 -21.85 -23.1 -24.6 -24.55 -27.9 -24.55 -34.05 -24.55 -27.9 -26.25 -33.35 -26.45 -34.05 -27.05 -36.75 -27.75 -40.95 -28.25 -45.35 -28.45 -48.95 -28.5 -50.85 -28.25 -50.85 -28.5 -50.85 M-28.25 -54.8 L-28.25 -50.85 -28.25 -54.8 -24.55 -54.8 -28.25 -54.8 M-24.5 -61.65 L-24.55 -54.8 -24.5 -61.65 M-21.6 -50.85 L-24.55 -50.85 -24.55 -54.8 -24.55 -50.85 -21.6 -50.85 -21.6 -54.8 -21.6 -50.85 -21.6 -48.95 -21.6 -50.85 -15.8 -50.9 -21.6 -50.85 M-24.55 -54.8 L-21.6 -54.8 -24.55 -54.8 M-24.55 -48.95 L-24.55 -50.85 -28.25 -50.85 -24.55 -50.85 -24.55 -48.95 -21.6 -48.95 -24.55 -48.95 -28.25 -48.95 -24.55 -48.95 -24.55 -40.95 -24.55 -48.95 M-15.8 -54.8 L-15.8 -50.9 -15.8 -54.8 -21.6 -54.8 -15.8 -54.8 -15.8 -61.6 -15.8 -54.8 -12.05 -54.8 -15.8 -54.8 M-21.6 -61.6 L-21.6 -54.8 -21.6 -61.6 M-15.8 -50.9 L-12.05 -50.9 -12.05 -48.95 -12.05 -50.9 -15.8 -50.9 -15.8 -48.95 -15.8 -50.9 M-12.05 -61.6 L-12.05 -54.8 -12.05 -61.6 M-8.1 -48.95 L-12.05 -48.95 -15.8 -48.95 -12.05 -48.95 -8.1 -48.95 -8.1 -50.9 -8.1 -48.95 -1.2 -48.95 -8.1 -48.95 -8.1 -40.95 -1.2 -40.95 -8.1 -40.95 -8.1 -36.75 -8.1 -40.95 -8.1 -48.95 M-12.05 -54.8 L-12.05 -50.9 -8.1 -50.9 -12.05 -50.9 -12.05 -54.8 -8.1 -54.8 -12.05 -54.8 M-1.2 -54.8 L-1.2 -61.6 -1.2 -54.8 -8.1 -54.8 -8.1 -61.6 -8.1 -54.8 -1.2 -54.8 M-8.1 -50.9 L-8.1 -54.8 -8.1 -50.9 M2.25 -48.95 L-1.2 -48.95 2.25 -48.95 M-43.15 -50.85 L-43.7 -50.85 -43.7 -50.45 -43.15 -50.85 -39.55 -50.85 -39.55 -48.95 -39.55 -50.85 -43.15 -50.85 M-35.7 -48.95 L-39.55 -48.95 -35.7 -48.95 -35.7 -47.6 -35.7 -48.95 M-43.7 -47.6 L-43.7 -50.45 -43.7 -47.6 -39.55 -47.6 -43.7 -47.6 -46.7 -47.45 -43.7 -47.6 -43.7 -40.95 -43.7 -47.6 M-39.55 -48.95 L-39.55 -47.6 -39.55 -48.95 M-46.7 -47.45 L-46.7 -48.35 -46.7 -47.45 -47.9 -47.45 -46.7 -47.45 -46.7 -40.95 -46.7 -47.45 M-39.55 -40.95 L-43.7 -40.95 -39.55 -40.95 -39.55 -47.6 -39.55 -40.95 -39.55 -40.0 -39.55 -40.95 -35.7 -40.95 -35.7 -47.6 -35.7 -40.95 -39.55 -40.95 M-35.7 -47.6 L-39.55 -47.6 -35.7 -47.6 M-43.7 -40.95 L-46.7 -40.95 -43.7 -40.95 -43.7 -40.0 -43.7 -40.95 M-39.55 -40.0 L-43.7 -40.0 -39.55 -40.0 -39.55 -36.75 -35.7 -36.75 -39.55 -36.75 -39.55 -40.0 -35.7 -40.0 -35.7 -40.95 -35.7 -40.0 -39.55 -40.0 M-28.25 -48.95 L-28.45 -48.95 -28.25 -48.95 -28.25 -50.85 -28.25 -48.95 -28.25 -45.35 -28.25 -48.95 M-46.7 -40.95 L-46.7 -39.85 -46.7 -40.95 M-46.7 -39.85 L-43.7 -40.0 -46.7 -39.85 -46.7 -36.65 -46.7 -39.85 -53.45 -39.85 -46.7 -39.85 M-43.7 -36.75 L-46.7 -36.65 -43.7 -36.75 -43.7 -40.0 -43.7 -36.75 -43.7 -34.05 -43.7 -33.35 -43.7 -34.05 -46.7 -34.05 -46.7 -33.2 -46.7 -34.05 -43.7 -34.05 -43.7 -36.75 -39.55 -36.75 -39.55 -34.05 -39.55 -36.75 -43.7 -36.75 M-53.45 -39.85 L-56.25 -39.85 -53.45 -39.85 -53.45 -36.65 -53.45 -39.85 M-53.45 -33.2 L-56.1 -33.2 -53.45 -33.2 -53.45 -34.05 -53.45 -36.65 -53.45 -34.05 -53.45 -33.2 -46.7 -33.2 -43.7 -33.35 -46.7 -33.2 -53.45 -33.2 -53.45 -24.4 -53.45 -33.2 M-46.7 -36.65 L-46.7 -34.05 -46.7 -36.65 -53.45 -36.65 -46.7 -36.65 M-39.55 -34.05 L-43.7 -34.05 -39.55 -34.05 -39.55 -33.35 -39.55 -34.05 -35.7 -34.05 -39.55 -34.05 M-53.45 -34.05 L-46.7 -34.05 -53.45 -34.05 M-46.7 -24.35 L-46.7 -33.2 -46.7 -24.35 -43.7 -24.7 -46.7 -24.35 -46.7 -21.1 -46.7 -17.7 -46.7 -21.1 -46.7 -24.35 -53.45 -24.4 -53.45 -21.7 -53.45 -24.4 -46.7 -24.35 M-43.7 -33.35 L-43.7 -24.7 -43.7 -33.35 -39.55 -33.35 -43.7 -33.35 M-35.7 -36.75 L-35.7 -34.05 -35.7 -36.75 -35.7 -40.0 -35.7 -36.75 M-43.7 -17.85 L-43.35 -15.65 -43.35 -12.35 -43.35 -15.65 -43.7 -17.85 -43.7 -21.2 -43.7 -24.7 -43.7 -21.2 -43.7 -17.85 -39.55 -17.85 -39.2 -15.65 -35.35 -15.65 -39.2 -15.65 -39.55 -17.85 -35.7 -17.85 -39.55 -17.85 -39.55 -21.2 -43.7 -21.2 -39.55 -21.2 -39.55 -17.85 -43.7 -17.85 M-39.55 -24.7 L-43.7 -24.7 -39.55 -24.7 -39.55 -33.35 -39.55 -24.7 -35.7 -24.65 -39.55 -24.7 -39.55 -21.2 -35.7 -21.2 -35.7 -24.65 -35.7 -21.2 -28.5 -21.2 -25.8 -21.2 -24.5 -21.2 -24.5 -21.25 -22.9 -21.25 -24.5 -21.25 -24.5 -21.2 -25.8 -21.2 -28.5 -21.2 -28.5 -17.85 -28.5 -21.2 -28.5 -24.65 -28.5 -33.35 -28.5 -24.65 -28.5 -21.2 -35.7 -21.2 -39.55 -21.2 -39.55 -24.7 M-35.7 -33.35 L-39.55 -33.35 -35.7 -33.35 -35.7 -34.05 -35.7 -33.35 -28.5 -33.35 -28.5 -34.05 -28.5 -33.35 -35.7 -33.35 -35.7 -24.65 -28.5 -24.65 -35.7 -24.65 -35.7 -33.35 M-21.6 -40.95 L-24.55 -40.95 -21.6 -40.95 -21.6 -48.95 -21.6 -40.95 -21.6 -36.75 -21.6 -40.95 -15.8 -40.95 -15.8 -48.95 -15.8 -40.95 -12.05 -40.95 -15.8 -40.95 -15.8 -36.75 -12.05 -36.75 -12.05 -34.05 -12.05 -36.75 -15.8 -36.75 -15.75 -34.05 -15.7 -24.55 -15.75 -34.05 -15.8 -36.75 -15.8 -40.95 -21.6 -40.95 M-15.8 -48.95 L-21.6 -48.95 -15.8 -48.95 M-12.05 -48.95 L-12.05 -40.95 -12.05 -48.95 M-46.7 -21.1 L-53.2 -21.1 -46.7 -21.1 M-54.35 -24.4 L-53.45 -24.4 -54.35 -24.4 M-1.2 -36.75 L-8.1 -36.75 -1.2 -36.75 -1.2 -40.95 -1.2 -48.95 -1.2 -40.95 -1.2 -36.75 M-12.05 -40.95 L-8.1 -40.95 -12.05 -40.95 -12.05 -36.75 -8.1 -36.75 -12.05 -36.75 -12.05 -40.95 M-8.1 -34.05 L-8.1 -36.75 -8.1 -34.05 -12.05 -34.05 -8.1 -34.05 -8.1 -24.55 -8.1 -34.05 M-12.05 -34.05 L-15.75 -34.05 -12.05 -34.05 -12.4 -24.55 -12.05 -34.05 M-12.4 -24.55 L-15.7 -24.55 -12.4 -24.55 -12.4 -21.25 -15.7 -21.25 -12.4 -21.25 -12.4 -24.55 -8.25 -24.55 -12.4 -24.55 M-8.1 -24.4 L-8.1 -24.55 -8.25 -24.55 -8.1 -24.4 -8.1 -21.25 -8.1 -24.4 M-21.6 -36.75 L-15.8 -36.75 -21.6 -36.75 -21.6 -34.05 -21.6 -36.75 -24.55 -36.75 -24.55 -40.95 -24.55 -36.75 -21.6 -36.75 M-15.75 -34.05 L-21.6 -34.05 -15.75 -34.05 M-26.4 -40.95 Q-26.3 -42.0 -26.65 -41.2 L-26.65 -40.95 -26.6 -40.65 -26.4 -40.95 -24.55 -40.95 -26.4 -40.95 M-27.75 -40.95 L-26.65 -40.95 -27.75 -40.95 M-24.55 -34.05 L-24.55 -36.75 -27.05 -36.75 -24.55 -36.75 -24.55 -34.05 -21.6 -34.05 -24.55 -34.05 -26.45 -34.05 -24.55 -34.05 M-21.6 -24.6 L-21.6 -34.05 -21.6 -24.6 -23.1 -24.6 -21.6 -24.6 M-15.7 -24.55 L-17.95 -24.6 -15.7 -24.55 -15.7 -21.25 -15.7 -24.55 M-24.5 -17.85 L-24.5 -21.2 -22.9 -21.2 -24.5 -21.2 -24.5 -17.85 -21.6 -17.85 -24.5 -17.85 -28.5 -17.85 -24.5 -17.85 -24.15 -15.65 -21.1 -15.65 -24.15 -15.65 -24.5 -17.85 M-21.6 -17.85 L-21.45 -17.6 -21.1 -15.65 -21.45 -17.6 -21.6 -17.85 -21.45 -17.85 -21.6 -17.85 M-25.8 -21.2 L-24.5 -21.25 -24.5 -22.4 -24.5 -21.25 -25.8 -21.2 M-28.15 -15.65 L-28.5 -17.85 -28.15 -15.65 -24.15 -15.65 -24.15 -12.25 -24.15 -15.65 -28.15 -15.65 -35.35 -15.65 -28.15 -15.65 -28.15 -12.3 -28.15 -4.05 -28.15 -12.3 -35.35 -12.3 -35.35 -4.05 -35.35 -12.3 -39.2 -12.35 -35.35 -12.3 -28.15 -12.3 -28.15 -15.65 M-21.1 -12.25 L-24.15 -12.25 -21.1 -12.25 -21.1 -15.65 -21.1 -12.25 -21.1 -4.05 -21.1 -12.25 -15.35 -12.25 -21.1 -12.25 M-15.35 -15.65 L-21.1 -15.65 -15.35 -15.65 -15.7 -17.85 -15.35 -15.65 -15.35 -12.25 -15.35 -15.65 M-21.45 -17.85 L-15.7 -17.85 -21.45 -17.85 -21.45 -17.6 -21.45 -17.85 M-35.7 -17.85 L-35.7 -21.2 -35.7 -17.85 -28.5 -17.85 -35.7 -17.85 -35.35 -15.65 -35.7 -17.85 M-39.2 -4.05 L-39.2 -12.35 -39.2 -4.05 -35.35 -4.05 -28.15 -4.05 -35.35 -4.05 -39.2 -4.05 -39.2 0.25 -39.2 -4.05 M-35.35 -15.65 L-35.35 -12.3 -35.35 -15.65 M-24.15 -12.25 L-28.15 -12.3 -24.15 -12.25 -24.15 -4.05 -24.15 -12.25 M-21.1 -4.05 L-24.15 -4.05 -21.1 -4.05 -15.35 -4.05 -15.35 -12.25 -15.35 -4.05 -11.6 -4.05 -15.35 -4.05 -21.1 -4.05 -21.1 0.25 -21.1 -4.05 M-28.15 -4.05 L-24.15 -4.05 -28.15 -4.05 -28.15 0.25 -28.15 -4.05 M-43.35 -15.65 L-39.2 -15.65 -39.2 -12.35 -39.2 -15.65 -43.35 -15.65 M-24.15 -4.05 L-24.15 0.25 -28.15 0.25 -24.15 0.25 -24.15 -4.05 M-8.1 -17.85 L-7.45 -17.85 -8.1 -17.85 -7.75 -15.7 -8.1 -17.85 -8.1 -21.25 -8.1 -17.85 -12.4 -17.85 -8.1 -17.85 M-12.4 -17.85 L-12.4 -21.25 -8.1 -21.25 -12.4 -21.25 -12.4 -17.85 -12.05 -15.7 -7.75 -15.7 -12.05 -15.7 -12.4 -17.85 -15.7 -17.85 -15.7 -21.25 -19.05 -21.25 -15.7 -21.25 -15.7 -17.85 -12.4 -17.85 M-7.75 -12.2 L-7.75 -15.7 -7.75 -12.2 -7.75 -4.05 -7.3 -4.05 -7.75 -4.05 -7.75 -12.2 -12.05 -12.2 -7.75 -12.2 M-15.35 -12.25 L-12.05 -12.2 -15.35 -12.25 M-12.05 -15.7 L-12.05 -12.2 -11.6 -4.05 -12.05 -12.2 -12.05 -15.7 M-1.0 5.95 L-5.8 5.95 -1.0 5.95 -1.0 13.7 -1.0 5.95 M1.75 13.7 L-1.0 13.7 1.75 13.7 M-11.6 -4.05 L-7.75 -4.05 -11.6 -4.05 M-15.35 0.25 L-21.1 0.25 -15.35 0.25 -15.35 -4.05 -15.35 0.25 -11.6 0.25 -11.6 5.95 -11.6 0.25 -15.35 0.25 -15.35 5.95 -15.35 0.25 M-39.2 -12.35 L-43.35 -12.35 -39.2 -12.35 M-15.35 13.7 L-11.6 13.7 -11.6 18.45 -11.6 13.7 -15.35 13.7 -15.35 18.45 -15.35 13.7 -15.35 5.95 -15.35 13.7 -21.1 13.7 -15.35 13.7 M-11.6 5.95 L-11.6 13.7 -7.75 13.7 -11.6 13.7 -11.6 5.95 M-1.0 13.7 L-1.0 18.45 -1.0 13.7 M-1.0 18.45 L-5.8 18.45 -1.0 18.45 M-21.1 18.45 L-21.1 13.7 -21.1 18.45 -15.35 18.45 -21.1 18.45 -24.15 18.45 -21.1 18.45 -21.1 24.95 -21.1 18.45 M-15.35 24.95 L-15.35 18.45 -15.35 24.95 -11.6 24.95 -11.6 18.45 -11.6 24.95 -15.35 24.95 -21.1 24.95 -15.35 24.95 -15.35 30.95 -15.35 24.95 M-24.15 5.95 L-21.1 5.95 -24.15 5.95 -24.15 13.7 -21.1 13.7 -24.15 13.7 -24.15 5.95 -24.15 0.25 -21.1 0.25 -24.15 0.25 -24.15 5.95 -28.15 5.95 -24.15 5.95 M-21.1 0.25 L-21.1 5.95 -21.1 13.7 -21.1 5.95 -21.1 0.25 M-28.15 13.7 L-28.15 5.95 -28.15 13.7 -24.15 13.7 -24.15 18.45 -24.15 13.7 -28.15 13.7 -35.35 13.7 -28.15 13.7 -28.15 18.45 -28.15 13.7 M-11.6 30.95 L-15.35 30.95 -11.6 30.95 -11.6 36.2 -15.35 36.2 -11.6 36.2 -11.6 30.95 M-28.15 0.25 L-28.15 5.95 -28.15 0.25 -35.35 0.25 -28.15 0.25 M-35.35 5.95 L-35.35 0.25 -35.35 5.95 -39.2 5.95 -35.35 5.95 -28.15 5.95 -35.35 5.95 -35.35 13.7 -35.35 5.95 M-24.15 18.45 L-28.15 18.45 -24.15 18.45 -24.15 24.95 -21.1 24.95 -24.15 24.95 -24.15 18.45 M-21.1 30.95 L-21.1 24.95 -21.1 30.95 -15.35 30.95 -21.1 30.95 -24.15 30.95 -21.1 30.95 -21.1 36.2 -21.1 30.95 M-15.35 36.2 L-15.35 30.95 -15.35 36.2 -21.1 36.2 -15.35 36.2 -15.35 40.95 -15.35 36.2 M-1.0 36.2 L-5.8 36.2 -1.0 36.2 -1.0 30.95 -1.0 36.2 -1.0 40.95 -1.0 36.2 1.75 36.2 -1.0 36.2 M-5.8 30.95 L-1.0 30.95 -5.8 30.95 M-39.2 5.95 L-39.2 0.25 -35.35 0.25 -39.2 0.25 -39.2 5.95 -44.7 5.5 -39.2 5.95 -39.2 13.7 -39.2 5.95 M-35.35 13.7 L-35.35 18.45 -35.35 13.7 M-28.15 18.45 L-35.35 18.45 -28.15 18.45 -28.15 24.95 -28.15 18.45 M-24.15 30.95 L-24.15 24.95 -28.15 24.95 -24.15 24.95 -24.15 30.95 -24.15 36.2 -28.15 36.2 -24.15 36.2 -24.15 30.95 -28.15 30.95 -28.15 36.2 -28.15 30.95 -24.15 30.95 M-11.6 40.95 L-15.35 40.95 -11.6 40.95 -11.6 45.55 -15.35 45.55 -11.6 45.55 -11.6 40.95 M-28.15 24.95 L-28.15 30.95 -28.15 24.95 -35.35 24.95 -28.15 24.95 M-35.35 30.95 L-35.35 24.95 -35.35 30.95 -28.15 30.95 -35.35 30.95 -39.2 30.95 -35.35 30.95 -35.35 36.2 -39.2 36.2 -35.35 36.2 -35.35 30.95 M-24.15 40.95 L-24.15 36.2 -21.1 36.2 -24.15 36.2 -24.15 40.95 -21.1 40.95 -24.15 40.95 -28.15 40.95 -24.15 40.95 -24.15 45.55 -21.1 45.55 -24.15 45.55 -24.15 40.95 M-21.1 36.2 L-21.1 40.95 -21.1 36.2 M-35.35 24.95 L-39.2 24.95 -35.35 24.95 -35.35 18.45 -35.35 24.95 M-28.15 36.2 L-35.35 36.2 -28.15 36.2 -28.15 40.95 -28.15 36.2 M-21.1 40.95 L-21.1 45.55 -21.1 40.95 -15.35 40.95 -21.1 40.95 M-15.35 45.55 L-15.35 40.95 -15.35 45.55 -21.1 45.55 -15.35 45.55 -15.35 50.95 -15.35 45.55 M-35.35 40.95 L-39.2 40.95 -35.35 40.95 -35.35 36.2 -35.35 40.95 -35.35 45.55 -35.35 40.95 -28.15 40.95 -35.35 40.95 M-28.15 45.55 L-35.35 45.55 -28.15 45.55 -28.15 40.95 -28.15 45.55 -24.15 45.55 -24.15 50.95 -24.15 45.55 -28.15 45.55 -28.15 50.95 -28.15 45.55 M-39.2 45.55 L-35.35 45.55 -39.2 45.55 M-1.0 40.95 L-5.8 40.95 -1.0 40.95 M-15.35 5.95 L-21.1 5.95 -15.35 5.95 M-21.1 50.95 L-21.1 45.55 -21.1 50.95 M-35.35 45.55 L-35.35 50.95 -35.35 45.55 M-35.35 0.25 L-35.35 -4.05 -35.35 0.25 M-1.2 -40.95 L2.25 -40.95 -1.2 -40.95" fill="#5c2961" fill-rule="evenodd" stroke="none"/>
    <path d="M26.2 -56.75 L26.05 -56.45 Q26.3 -57.6 26.2 -56.75 M-26.65 -40.95 L-26.65 -41.2 Q-26.3 -42.0 -26.4 -40.95 L-26.6 -40.65 -26.65 -40.95 -26.4 -40.95 -26.65 -40.95" fill="#8f2493" fill-rule="evenodd" stroke="none"/>
    <path d="M19.6 -20.9 L19.85 -20.9 19.6 -20.9 19.6 -20.95 19.85 -20.95 19.85 -20.9 19.65 -20.65 19.6 -20.9 M0.75 -21.2 Q0.75 -20.7 0.2 -20.3 -0.4 -19.95 -1.2 -19.95 L-1.2 -21.2 -1.2 -19.95 -1.35 -19.9 -2.1 -19.6 -2.15 -19.75 -1.95 -21.25 -1.2 -21.2 0.75 -21.2 M-21.2 -21.25 L-20.7 -21.25 -20.85 -20.65 -21.2 -21.25" fill="#ffe8e8" fill-rule="evenodd" stroke="none"/>
    <path d="M43.75 -49.6 L43.75 -50.6 M23.25 -61.65 L23.3 -61.65 M54.3 -23.3 L54.15 -22.8 M44.1 -5.1 L44.1 -3.75 M2.25 -50.95 L2.25 -54.8 2.25 -61.65 M-1.2 -54.8 L-1.2 -50.95 -1.2 -48.95 M9.7 -50.95 L9.7 -54.8 M9.7 -61.6 L9.7 -54.8 M16.6 -54.8 L16.6 -51.0 16.6 -48.95 M23.25 -54.8 L23.25 -61.65 M23.25 -51.0 L23.25 -54.8 M29.4 -54.8 L29.4 -58.5 29.4 -60.3 M29.4 -51.05 L29.4 -50.6 29.4 -48.95 29.4 -47.3 29.4 -40.95 29.4 -39.7 M29.4 -51.05 L29.4 -53.95 29.4 -54.8 M37.0 -50.6 L37.0 -53.95 37.0 -54.15 37.0 -54.8 37.0 -55.9 M37.0 -48.95 L37.0 -47.3 37.0 -40.95 M43.75 -47.3 L43.75 -48.95 43.75 -49.6 M37.0 -48.95 L37.0 -50.6 M43.75 -40.95 L43.75 -47.3 M46.3 -47.55 L46.3 -47.75 M37.0 -39.7 L37.0 -40.95 M23.25 -40.95 L23.25 -48.95 23.25 -51.0 M37.0 -36.5 L37.0 -39.7 M43.75 -39.7 L43.75 -40.95 M46.3 -40.95 L46.3 -47.55 M23.25 -34.05 L23.25 -36.75 23.25 -40.95 M23.25 -24.3 L23.25 -34.05 M29.4 -34.05 L29.4 -36.5 29.4 -39.7 M29.4 -24.25 L29.4 -33.05 29.4 -34.05 M37.0 -33.05 L37.0 -34.05 37.0 -36.5 M43.75 -36.5 L43.75 -39.7 M46.3 -39.95 L46.3 -40.95 M16.6 -36.75 L16.6 -34.05 M16.6 -40.95 L16.6 -48.95 M9.7 -48.95 L9.7 -40.95 M9.7 -36.75 L9.7 -40.95 M2.25 -48.95 L2.25 -40.95 2.25 -36.75 2.25 -34.05 2.25 -25.05 M2.25 -48.95 L2.25 -50.95 M9.4 -25.05 L9.7 -34.05 9.7 -36.75 M16.6 -36.75 L16.6 -40.95 M9.4 -20.9 L9.4 -24.35 9.4 -25.05 M16.6 -29.15 L16.6 -34.05 M16.6 -29.15 L16.6 -24.95 M-1.2 -36.75 L-1.2 -34.05 -1.2 -25.05 -1.2 -21.2 -1.2 -19.95 -1.35 -19.45 -1.35 -18.8 -1.35 -17.85 M16.6 -20.9 L16.6 -17.55 16.95 -15.35 16.95 -12.0 16.95 -3.75 16.95 0.25 16.95 6.25 16.95 13.7 M16.6 -24.35 L16.6 -20.9 M9.4 -20.9 L9.4 -17.55 9.75 -15.35 M23.65 -17.55 L23.65 -20.95 23.65 -24.3 M2.25 -20.9 L2.25 -25.05 M1.4 -17.55 L1.75 -15.35 1.75 -12.05 1.75 -3.75 1.75 0.25 1.75 6.25 1.75 13.7 1.75 18.75 1.75 24.95 1.75 31.25 1.75 36.2 1.75 41.25 M24.0 -15.35 L23.65 -17.55 M29.4 -17.55 L29.4 -20.95 29.4 -24.25 M23.25 -23.9 L22.95 -23.35 M9.75 -12.0 L9.75 -15.35 M9.75 -3.75 L9.75 -12.0 M24.0 -11.95 L24.0 -15.35 M29.75 -15.35 L29.4 -17.55 M-1.0 -4.05 L-1.0 0.25 -1.0 5.95 -1.0 13.7 M9.75 0.25 L9.75 -3.75 M24.0 -3.75 L24.0 -11.95 M29.75 -11.95 L29.75 -15.35 M-1.0 -12.2 L-1.0 -4.05 M9.75 6.25 L9.75 0.25 M24.0 0.25 L24.0 -3.75 M29.75 -3.75 L29.75 -11.95 M37.0 -17.55 L37.0 -20.95 M16.6 -24.35 L16.6 -24.95 M37.0 -24.25 L37.0 -20.95 M43.75 -20.95 L43.75 -24.2 43.75 -33.05 43.75 -34.05 M37.35 -15.4 L37.0 -17.55 M43.75 -17.55 L43.75 -20.95 M44.1 -15.4 L43.75 -17.55 M46.3 -17.8 L46.3 -21.15 46.3 -24.65 M37.0 -33.05 L37.0 -24.25 M23.25 -24.3 L23.25 -23.9 M37.35 -11.9 L37.35 -3.75 37.35 0.25 37.35 6.25 37.35 13.7 37.35 18.75 37.35 24.95 37.35 31.25 37.35 36.2 37.35 41.25 37.35 45.55 37.35 51.35 M44.1 -7.9 L44.1 -11.9 44.1 -15.4 M29.75 -3.75 L29.75 0.25 29.75 6.25 29.75 13.7 29.75 18.75 29.75 24.95 29.75 31.25 29.75 36.2 29.75 41.25 29.75 45.55 29.75 51.25 M37.35 -15.4 L37.35 -11.9 M54.3 -39.95 L54.3 -36.7 54.3 -34.05 54.3 -33.3 54.3 -28.85 54.3 -24.6 54.3 -23.3 M54.3 -41.6 L54.3 -40.95 54.3 -39.95 M46.3 -36.7 L46.3 -34.05 46.3 -33.3 46.3 -24.65 M43.75 -36.5 L43.75 -34.05 M46.3 -39.95 L46.3 -36.7 M44.1 -7.9 L44.1 -5.1 M9.7 -50.95 L9.7 -48.95 M24.0 0.25 L24.0 6.25 24.0 13.7 24.0 18.75 M24.0 24.95 L24.0 18.75 M16.95 18.75 L16.95 24.95 16.95 31.25 16.95 36.2 16.95 41.25 M24.0 31.25 L24.0 24.95 M9.75 13.7 L9.75 6.25 M9.75 13.7 L9.75 18.75 9.75 24.95 9.75 31.25 9.75 36.2 M16.95 18.75 L16.95 13.7 M24.0 36.2 L24.0 31.25 M-1.0 18.45 L-1.0 24.95 -1.0 30.95 M24.0 41.25 L24.0 36.2 M24.0 45.55 L24.0 41.25 M9.75 41.25 L9.75 36.2 M9.75 41.25 L9.75 45.55 9.75 51.25 M16.95 45.55 L16.95 41.25 M16.95 51.25 L16.95 45.55 M24.0 51.25 L24.0 45.55 M1.75 45.55 L1.75 41.25 M-1.0 40.95 L-1.0 45.55 M-1.0 50.95 L-1.0 45.55 M-7.75 53.35 L-7.75 50.95 -7.75 45.55 M1.75 51.25 L1.75 45.55 M-35.7 -54.25 L-35.7 -50.85 -35.7 -48.95 -35.7 -47.6 -35.7 -40.95 -35.7 -40.0 -35.7 -36.75 M-28.25 -50.85 L-28.25 -54.8 M-21.6 -50.85 L-21.6 -54.8 -21.6 -61.6 M-21.6 -48.95 L-21.6 -50.85 M-15.8 -50.9 L-15.8 -54.8 -15.8 -61.6 M-15.8 -50.9 L-15.8 -48.95 -15.8 -40.95 -15.8 -36.75 -15.75 -34.05 -15.7 -24.55 -15.7 -21.25 M-8.1 -48.95 L-8.1 -50.9 M-8.1 -54.8 L-8.1 -61.6 M-1.2 -61.6 L-1.2 -54.8 M-8.1 -54.8 L-8.1 -50.9 M-43.7 -50.45 L-43.7 -50.85 M-43.7 -50.45 L-43.7 -47.6 -43.7 -40.95 -43.7 -40.0 M-46.7 -48.35 L-46.7 -48.4 M-46.7 -48.35 L-46.7 -47.45 -46.7 -40.95 M-28.25 -40.95 L-28.25 -45.35 -28.25 -48.95 -28.25 -50.85 M-46.7 -39.85 L-46.7 -40.95 M-46.7 -39.85 L-46.7 -36.65 M-43.7 -36.75 L-43.7 -40.0 M-53.45 -39.85 L-53.45 -43.25 M-53.45 -33.2 L-53.45 -34.05 -53.45 -36.65 -53.45 -39.85 M-46.7 -34.05 L-46.7 -33.2 -46.7 -24.35 -46.7 -21.1 -46.7 -17.7 M-43.7 -33.35 L-43.7 -34.05 M-46.7 -34.05 L-46.7 -36.65 M-43.7 -36.75 L-43.7 -34.05 M-43.7 -24.7 L-43.7 -33.35 M-35.7 -34.05 L-35.7 -36.75 M-43.35 -12.35 L-43.35 -15.65 -43.7 -17.85 -43.7 -21.2 -43.7 -24.7 M-35.7 -33.35 L-35.7 -34.05 M-28.5 -34.05 L-28.5 -35.9 -28.5 -36.75 M-28.25 -36.75 L-28.25 -40.95 M-21.6 -40.95 L-21.6 -48.95 M-53.45 -21.7 L-53.45 -21.1 M-53.45 -24.4 L-53.45 -21.7 M-53.45 -24.4 L-53.45 -33.2 M-8.1 -40.95 L-8.1 -36.75 -8.1 -34.05 -8.1 -24.55 -8.1 -24.4 -8.1 -21.25 M-1.2 -36.75 L-1.2 -40.95 -1.2 -48.95 M-8.1 -48.95 L-8.1 -40.95 M-21.6 -36.75 L-21.6 -34.05 -21.6 -24.6 -21.6 -21.85 -21.6 -21.25 M-21.6 -36.75 L-21.6 -40.95 M-28.5 -34.05 L-28.5 -33.35 -28.5 -24.65 M-21.6 -17.85 L-21.6 -19.25 -21.6 -21.25 M-28.5 -21.2 L-28.5 -17.85 -28.15 -15.65 -28.15 -12.3 M-21.1 -15.65 L-21.45 -17.6 -21.6 -17.85 M-21.45 -17.85 L-21.45 -19.05 M-28.5 -21.2 L-28.5 -24.65 M-35.7 -24.65 L-35.7 -21.2 -35.7 -17.85 M-21.1 -12.25 L-21.1 -15.65 M-15.35 -15.65 L-15.7 -17.85 -15.7 -21.25 M-21.45 -17.85 L-21.45 -17.6 M-35.35 -15.65 L-35.7 -17.85 M-35.35 -4.05 L-35.35 -12.3 -35.35 -15.65 M-28.15 -4.05 L-28.15 -12.3 M-21.1 -4.05 L-21.1 -12.25 M-15.35 -12.25 L-15.35 -15.65 M-28.15 -4.05 L-28.15 0.25 M-1.35 -19.9 L-1.35 -19.45 M-8.1 -17.85 L-7.75 -15.7 -7.75 -12.2 -7.75 -4.05 -7.75 -2.3 M-1.0 -15.7 L-1.35 -17.85 M-1.0 -12.2 L-1.0 -15.7 M-8.1 -17.85 L-8.1 -21.25 M-15.35 -12.25 L-15.35 -4.05 M-7.75 0.25 L-7.75 -2.3 M-21.1 -4.05 L-21.1 0.25 M-15.35 0.25 L-15.35 -4.05 M-35.7 -33.35 L-35.7 -24.65 M-7.75 0.25 L-7.75 5.95 -7.75 13.7 M-15.35 0.25 L-15.35 5.95 -15.35 13.7 -15.35 18.45 -15.35 24.95 -15.35 30.95 -15.35 36.2 -15.35 40.95 -15.35 45.55 M-7.75 18.45 L-7.75 13.7 M-1.0 18.45 L-1.0 13.7 M-7.75 18.45 L-7.75 24.95 -7.75 30.95 -7.75 36.2 -7.75 40.95 -7.75 45.55 M-21.1 13.7 L-21.1 18.45 -21.1 24.95 -21.1 30.95 -21.1 36.2 M-21.1 13.7 L-21.1 5.95 -21.1 0.25 M-28.15 5.95 L-28.15 13.7 -28.15 18.45 -28.15 24.95 M-28.15 5.95 L-28.15 0.25 M-35.35 0.25 L-35.35 5.95 -35.35 13.7 M-1.0 36.2 L-1.0 30.95 M-35.35 18.45 L-35.35 13.7 M-28.15 30.95 L-28.15 36.2 -28.15 40.95 M-28.15 30.95 L-28.15 24.95 M-35.35 24.95 L-35.35 30.95 -35.35 36.2 M-21.1 40.95 L-21.1 36.2 M-35.35 24.95 L-35.35 18.45 M-21.1 45.55 L-21.1 40.95 M-35.35 40.95 L-35.35 36.2 M-35.35 40.95 L-35.35 45.55 M-28.15 45.55 L-28.15 40.95 M-1.0 40.95 L-1.0 36.2 M-21.1 45.55 L-21.1 50.95 M-35.35 50.95 L-35.35 45.55 M-28.15 45.55 L-28.15 50.95 M-15.35 50.95 L-15.35 45.55 M-35.35 -4.05 L-35.35 0.25" fill="none" stroke="#7d138c" stroke-linecap="round" stroke-linejoin="round" stroke-width="1.5"/>
    <path d="M43.75 -50.6 L42.35 -50.6 M53.6 -21.2 L53.55 -21.15 M-39.55 -55.1 L-39.35 -55.2 M-1.2 -50.95 L2.25 -50.95 6.0 -50.95 6.0 -54.8 6.0 -61.6 M6.0 -50.95 L9.7 -50.95 16.6 -51.0 20.6 -51.0 20.6 -54.8 20.6 -61.6 M20.6 -48.95 L20.6 -51.0 23.25 -51.0 29.4 -51.05 M29.4 -50.6 L31.75 -50.6 29.4 -51.05 M32.7 -54.8 L32.7 -56.7 32.7 -58.4 M32.7 -53.95 L32.7 -50.6 37.0 -50.6 42.35 -50.6 M32.7 -53.95 L32.7 -54.8 M32.7 -48.95 L32.7 -50.6 31.75 -50.6 M32.7 -47.3 L32.7 -48.95 M32.7 -40.95 L32.7 -39.7 32.7 -36.5 37.0 -36.5 43.75 -36.5 M32.7 -40.95 L32.7 -47.3 M20.6 -48.95 L20.6 -40.95 20.6 -36.75 16.6 -36.75 M23.25 -36.75 L20.6 -36.75 20.6 -34.05 20.6 -24.3 20.6 -22.15 M29.4 -36.5 L23.25 -36.75 M32.7 -34.05 L32.7 -36.5 29.4 -36.5 M32.7 -34.05 L32.7 -33.05 M50.45 -40.95 L50.45 -44.65 M6.0 -40.95 L6.0 -36.75 9.7 -36.75 16.6 -36.75 M6.0 -40.95 L6.0 -48.95 6.0 -50.95 M6.0 -34.05 L6.0 -25.05 5.55 -20.9 9.4 -20.9 M6.0 -34.05 L6.0 -36.75 2.25 -36.75 -1.2 -36.75 M18.0 -20.9 L19.3 -20.9 19.6 -20.95 M19.6 -20.9 L19.3 -20.9 M19.85 -20.9 L19.6 -20.9 M19.85 -20.95 L19.6 -20.95 M20.6 -19.55 L20.6 -20.9 19.85 -20.9 M18.0 -20.9 L16.6 -20.9 9.4 -20.9 M20.6 -17.55 L20.6 -19.55 M21.5 -20.9 L20.6 -20.9 20.6 -20.95 19.85 -20.95 M16.95 -15.35 L20.95 -15.35 20.6 -17.55 M23.65 -20.95 L22.8 -20.95 21.5 -20.9 M21.5 -20.95 L20.6 -20.95 20.6 -22.15 M0.75 -21.2 L-1.2 -21.2 -1.95 -21.25 M5.55 -17.55 L5.55 -20.9 2.25 -20.9 M1.75 -15.35 L5.9 -15.35 5.55 -17.55 M9.75 -15.35 L16.95 -15.35 M20.95 -11.95 L20.95 -15.35 24.0 -15.35 29.75 -15.35 M29.4 -20.95 L23.65 -20.95 M21.5 -20.95 L22.8 -20.95 M9.75 -15.35 L5.9 -15.35 5.9 -12.05 M20.95 -3.75 L20.95 -11.95 M32.7 -17.55 L32.7 -20.95 29.4 -20.95 M1.75 0.25 L5.9 0.25 5.9 -3.75 5.9 -12.05 M-1.0 0.25 L1.75 0.25 M5.9 6.25 L5.9 0.25 9.75 0.25 16.95 0.25 20.95 0.25 20.95 -3.75 M-5.8 0.25 L-1.0 0.25 M1.75 13.7 L5.9 13.7 5.9 6.25 M20.95 6.25 L20.95 0.25 24.0 0.25 29.75 0.25 33.5 0.25 33.5 -3.75 M33.05 -11.9 L33.05 -15.4 32.7 -17.55 M37.0 -20.95 L32.7 -20.95 32.7 -24.25 32.7 -33.05 M37.0 -20.95 L43.75 -20.95 M33.05 -15.4 L37.35 -15.4 44.1 -15.4 M33.05 -11.9 L33.5 -3.75 M55.05 -36.7 L56.6 -36.7 M54.3 -36.7 L55.05 -36.7 M50.45 -39.95 L50.45 -36.7 54.3 -36.7 M50.45 -39.95 L50.45 -40.95 M50.45 -34.05 L50.45 -36.7 46.3 -36.7 43.75 -36.5 M50.45 -34.05 L50.45 -33.3 M50.45 -24.65 L50.45 -33.3 M50.45 -24.65 L50.45 -21.15 52.05 -21.15 53.55 -21.15 M46.3 -21.15 L50.45 -21.15 50.45 -17.8 50.45 -17.55 M37.35 0.25 L33.5 0.25 33.5 6.25 33.5 13.7 37.35 13.7 M29.75 13.7 L33.5 13.7 33.5 18.75 33.5 24.95 37.35 24.95 M24.0 13.7 L29.75 13.7 M20.95 6.25 L20.95 13.7 24.0 13.7 M29.75 24.95 L33.5 24.95 33.5 31.25 33.5 36.2 37.35 36.2 M20.95 18.75 L20.95 24.95 24.0 24.95 29.75 24.95 M20.95 13.7 L20.95 18.75 M16.95 24.95 L20.95 24.95 20.95 31.25 20.95 36.2 24.0 36.2 29.75 36.2 33.5 36.2 33.5 41.25 33.5 45.55 37.35 45.55 M5.9 18.75 L5.9 13.7 9.75 13.7 M16.95 13.7 L20.95 13.7 M16.95 13.7 L9.75 13.7 M1.75 24.95 L5.9 24.95 5.9 18.75 M9.75 24.95 L16.95 24.95 M-1.0 24.95 L1.75 24.95 M5.9 31.25 L5.9 24.95 9.75 24.95 M16.95 36.2 L20.95 36.2 20.95 41.25 20.95 45.55 24.0 45.55 29.75 45.55 33.5 45.55 33.5 51.25 33.5 51.65 M1.75 36.2 L5.9 36.2 5.9 31.25 M9.75 36.2 L16.95 36.2 M9.75 36.2 L5.9 36.2 5.9 41.25 5.9 45.55 9.75 45.55 16.95 45.55 20.95 45.55 20.95 51.25 M-1.0 45.55 L1.75 45.55 5.9 45.55 5.9 51.25 M-1.0 45.55 L-5.8 45.55 M-39.2 50.95 L-39.2 45.55 -39.2 40.95 -39.2 36.2 -39.2 30.95 -39.2 24.95 -39.2 18.45 M-35.7 -50.85 L-29.85 -50.85 -28.5 -50.85 -28.25 -50.85 -24.55 -50.85 -24.55 -48.95 -24.55 -40.95 -24.55 -36.75 -21.6 -36.75 M-24.55 -54.8 L-24.5 -61.65 M-39.55 -53.3 L-39.55 -50.85 -35.7 -50.85 M-39.55 -53.3 L-39.55 -54.25 M-24.55 -54.8 L-24.55 -50.85 -21.6 -50.85 -15.8 -50.9 M-12.05 -54.8 L-12.05 -61.6 M-12.05 -48.95 L-12.05 -50.9 -15.8 -50.9 M-8.1 -50.9 L-12.05 -50.9 -12.05 -54.8 M-8.1 -50.9 L-1.2 -50.95 M-43.7 -50.85 L-43.15 -50.85 -39.55 -50.85 -39.55 -48.95 M-39.55 -47.6 L-39.55 -48.95 M-39.55 -40.95 L-39.55 -47.6 M-39.55 -40.0 L-39.55 -40.95 M-46.7 -36.65 L-43.7 -36.75 M-53.45 -36.65 L-56.25 -36.65 M-46.7 -36.65 L-53.45 -36.65 M-39.55 -34.05 L-39.55 -36.75 -43.7 -36.75 M-39.55 -33.35 L-39.55 -34.05 M-35.7 -36.75 L-39.55 -36.75 -39.55 -40.0 M-35.7 -36.75 L-28.65 -36.75 -28.5 -36.75 -28.25 -36.75 -27.05 -36.75 -24.55 -36.75 -24.55 -34.05 -24.55 -27.9 -24.55 -24.6 -24.55 -24.1 -24.5 -22.4 -24.5 -24.0 -24.5 -24.6 M-39.55 -24.7 L-39.55 -33.35 M-12.05 -40.95 L-12.05 -48.95 M-53.45 -21.1 L-53.2 -21.1 -46.7 -21.1 M-8.1 -36.75 L-1.2 -36.75 M-12.05 -40.95 L-12.05 -36.75 -8.1 -36.75 M-12.05 -34.05 L-12.05 -36.75 -15.8 -36.75 -21.6 -36.75 M-12.4 -24.55 L-12.05 -34.05 M-8.1 -21.25 L-4.55 -21.25 -1.95 -21.25 M-15.7 -21.25 L-12.4 -21.25 -12.4 -24.55 M-21.2 -21.25 L-20.7 -21.25 -19.05 -21.25 M-21.6 -21.25 L-21.2 -21.25 M-22.9 -21.2 L-24.5 -21.2 -24.5 -17.85 -24.15 -15.65 -21.1 -15.65 -15.35 -15.65 M-22.9 -21.25 L-24.5 -21.25 -24.5 -21.2 -25.8 -21.2 -28.5 -21.2 M-21.6 -21.25 L-22.3 -21.25 -22.9 -21.2 M-22.3 -21.25 L-22.9 -21.25 M-24.5 -22.4 L-24.5 -21.25 -25.8 -21.2 M-35.7 -21.2 L-28.5 -21.2 M-28.15 -15.65 L-24.15 -15.65 -24.15 -12.25 -24.15 -4.05 M-39.55 -24.7 L-39.55 -21.2 -35.7 -21.2 M-39.55 -17.85 L-39.2 -15.65 -35.35 -15.65 -28.15 -15.65 M-39.55 -17.85 L-39.55 -21.2 -43.7 -21.2 M-39.2 -12.35 L-39.2 -4.05 M-28.15 0.25 L-24.15 0.25 -24.15 -4.05 M-39.2 -12.35 L-39.2 -15.65 -43.35 -15.65 M-7.75 -15.7 L-6.85 -15.7 -6.2 -15.7 -1.0 -15.7 1.75 -15.35 M-8.1 -21.25 L-12.4 -21.25 -12.4 -17.85 -12.05 -15.7 -7.75 -15.7 M-15.7 -21.25 L-19.05 -21.25 M-11.6 -4.05 L-12.05 -12.2 -12.05 -15.7 M-7.3 0.25 L-5.8 0.25 M-1.0 13.7 L1.75 13.7 M-11.6 -4.05 L-11.6 0.25 -7.75 0.25 M-21.1 0.25 L-15.35 0.25 M-7.3 0.25 L-7.75 0.25 M-11.6 5.95 L-11.6 0.25 -15.35 0.25 M-7.75 13.7 L-7.3 13.7 M-11.6 18.45 L-11.6 13.7 -15.35 13.7 -21.1 13.7 M-7.75 13.7 L-11.6 13.7 -11.6 5.95 M-1.0 13.7 L-5.8 13.7 -7.3 13.7 M-7.3 24.95 L-5.8 24.95 -1.0 24.95 M-7.75 24.95 L-7.3 24.95 M-7.3 36.2 L-5.8 36.2 -1.0 36.2 1.75 36.2 M-15.35 24.95 L-11.6 24.95 -11.6 18.45 M-24.15 5.95 L-24.15 13.7 -21.1 13.7 M-21.1 0.25 L-24.15 0.25 -24.15 5.95 M-28.15 13.7 L-24.15 13.7 -24.15 18.45 -24.15 24.95 -21.1 24.95 -15.35 24.95 M-11.6 30.95 L-11.6 24.95 -7.75 24.95 M-28.15 0.25 L-35.35 0.25 -39.2 0.25 -39.2 5.95 -39.2 13.7 -39.2 18.45 M-35.35 13.7 L-28.15 13.7 M-15.35 36.2 L-11.6 36.2 -11.6 30.95 M-7.75 36.2 L-7.3 36.2 M-7.3 45.55 L-5.8 45.55 M-35.35 13.7 L-39.2 13.7 M-28.15 24.95 L-24.15 24.95 -24.15 30.95 M-21.1 36.2 L-15.35 36.2 M-11.6 40.95 L-11.6 36.2 -7.75 36.2 M-28.15 36.2 L-24.15 36.2 -24.15 30.95 M-28.15 24.95 L-35.35 24.95 M-21.1 36.2 L-24.15 36.2 -24.15 40.95 -24.15 45.55 -21.1 45.55 M-35.35 36.2 L-39.2 36.2 M-39.2 24.95 L-35.35 24.95 M-35.35 36.2 L-28.15 36.2 M-15.35 45.55 L-11.6 45.55 -11.6 40.95 M-7.75 45.55 L-7.3 45.55 M-35.35 45.55 L-28.15 45.55 -24.15 45.55 -24.15 50.95 M-35.35 45.55 L-39.2 45.55 M-7.75 45.55 L-11.6 45.55 -11.6 50.95 M-15.35 45.55 L-21.1 45.55 M-39.2 0.25 L-39.2 -4.05" fill="none" stroke="#f583bf" stroke-linecap="round" stroke-linejoin="round" stroke-width="1.0"/>
    <path d="M38.85 -54.8 L39.45 -54.4 M47.55 -48.95 L47.85 -48.75 M44.1 -3.75 L43.0 -3.75 M2.25 -54.8 L-1.2 -54.8 -8.1 -54.8 M6.0 -54.8 L2.25 -54.8 M9.7 -54.8 L6.0 -54.8 M9.7 -54.8 L16.6 -54.8 20.6 -54.8 23.25 -54.8 29.4 -54.8 32.7 -54.8 36.0 -54.8 M16.6 -48.95 L20.6 -48.95 M37.0 -53.95 L32.7 -53.95 M37.0 -54.8 L36.0 -54.8 M37.35 -53.95 L40.2 -53.95 M37.35 -53.95 L37.0 -53.95 M38.85 -54.8 L37.0 -54.8 M29.4 -53.95 L32.7 -53.95 M37.0 -47.3 L43.75 -47.3 46.3 -47.55 46.6 -47.55 M43.75 -48.95 L37.0 -48.95 M32.7 -48.95 L29.4 -48.95 23.25 -48.95 20.6 -48.95 M29.4 -47.3 L32.7 -47.3 37.0 -47.3 M37.0 -40.95 L43.75 -40.95 46.3 -40.95 50.45 -40.95 54.3 -40.95 55.0 -40.95 M44.7 -48.95 L43.75 -48.95 M44.7 -48.95 L47.55 -48.95 M32.7 -39.7 L37.0 -39.7 43.75 -39.7 46.3 -39.95 50.45 -39.95 M37.0 -40.95 L32.7 -40.95 M32.7 -48.95 L37.0 -48.95 M20.6 -40.95 L23.25 -40.95 29.4 -40.95 32.7 -40.95 M29.4 -39.7 L32.7 -39.7 M20.6 -34.05 L23.25 -34.05 29.4 -34.05 32.7 -34.05 M20.6 -24.3 L21.8 -24.3 23.25 -24.3 M37.0 -34.05 L32.7 -34.05 M32.7 -33.05 L37.0 -33.05 M32.7 -33.05 L29.4 -33.05 M16.6 -34.05 L20.6 -34.05 M16.6 -48.95 L9.7 -48.95 6.0 -48.95 2.25 -48.95 M9.7 -40.95 L16.6 -40.95 20.6 -40.95 M9.7 -40.95 L6.0 -40.95 M2.25 -40.95 L6.0 -40.95 M9.7 -34.05 L6.0 -34.05 M6.0 -25.05 L9.4 -25.05 M2.25 -34.05 L6.0 -34.05 M2.25 -25.05 L6.0 -25.05 M16.6 -34.05 L9.7 -34.05 M16.85 -24.35 L18.5 -24.35 20.6 -24.3 M-1.2 -34.05 L2.25 -34.05 M16.6 -24.35 L16.85 -24.35 M16.6 -17.55 L20.6 -17.55 23.65 -17.55 29.4 -17.55 32.7 -17.55 37.0 -17.55 43.75 -17.55 46.3 -17.8 50.45 -17.8 50.6 -17.8 52.15 -17.8 M9.4 -17.55 L16.6 -17.55 M-1.35 -17.85 L1.4 -17.55 5.55 -17.55 9.4 -17.55 M2.25 -25.05 L-1.2 -25.05 M16.95 -12.0 L20.95 -11.95 24.0 -11.95 29.75 -11.95 33.05 -11.9 M23.65 -24.3 L23.45 -24.3 23.25 -24.3 M5.9 -12.05 L9.75 -12.0 16.95 -12.0 M5.9 -3.75 L9.75 -3.75 16.95 -3.75 20.95 -3.75 24.0 -3.75 29.75 -3.75 M29.4 -24.25 L23.65 -24.3 M5.9 -3.75 L1.75 -3.75 -1.0 -4.05 -5.8 -4.05 M5.9 -12.05 L1.75 -12.05 -1.0 -12.2 M1.75 6.25 L5.9 6.25 9.75 6.25 16.95 6.25 20.95 6.25 M-1.0 5.95 L1.75 6.25 M32.7 -24.25 L29.4 -24.25 M9.4 -24.35 L16.6 -24.35 M43.75 -24.2 L37.0 -24.25 32.7 -24.25 M46.3 -24.65 L43.75 -24.2 M43.75 -33.05 L37.0 -33.05 M37.35 -3.75 L41.35 -3.75 Q40.7 -3.9 40.85 -4.0 M44.1 -11.9 L37.35 -11.9 33.05 -11.9 M33.5 -3.75 L37.35 -3.75 M37.35 6.25 L42.75 6.5 M33.5 -3.75 L29.75 -3.75 M56.6 -40.95 L55.0 -40.95 M55.05 -39.95 L54.3 -39.95 50.45 -39.95 M54.3 -24.6 L54.7 -24.6 M54.3 -34.05 L55.0 -34.05 M46.3 -34.05 L50.45 -34.05 54.3 -34.05 M54.3 -33.3 L54.95 -33.3 M50.45 -33.3 L54.3 -33.3 M53.25 -24.6 L54.3 -24.6 M50.45 -33.3 L46.3 -33.3 43.75 -33.05 M46.3 -24.65 L50.45 -24.65 M43.75 -34.05 L37.0 -34.05 M43.75 -34.05 L46.3 -34.05 M53.25 -24.6 L50.45 -24.65 M33.5 6.25 L37.35 6.25 M29.75 6.25 L33.5 6.25 M24.0 6.25 L29.75 6.25 M33.5 18.75 L37.35 18.75 M29.75 18.75 L33.5 18.75 M24.0 6.25 L20.95 6.25 M24.0 18.75 L29.75 18.75 M33.5 31.25 L37.35 31.25 M24.0 18.75 L20.95 18.75 16.95 18.75 M20.95 31.25 L24.0 31.25 29.75 31.25 33.5 31.25 M9.75 18.75 L16.95 18.75 M5.9 18.75 L1.75 18.75 -1.0 18.45 M5.9 18.75 L9.75 18.75 M16.95 31.25 L20.95 31.25 M33.5 41.25 L37.35 41.25 M1.75 31.25 L5.9 31.25 9.75 31.25 16.95 31.25 M20.95 41.25 L24.0 41.25 29.75 41.25 33.5 41.25 M16.95 41.25 L20.95 41.25 M33.5 51.25 L35.35 51.25 M5.9 41.25 L9.75 41.25 M16.95 41.25 L9.75 41.25 M9.75 51.25 L16.95 51.25 20.95 51.25 24.0 51.25 M29.75 51.25 L33.5 51.25 M1.75 41.25 L5.9 41.25 M1.75 41.25 L-1.0 40.95 M5.9 51.25 L9.75 51.25 M29.75 51.25 L24.0 51.25 M5.9 51.25 L1.75 51.25 -1.0 50.95 M-7.75 50.95 L-11.6 50.95 -15.35 50.95 -21.1 50.95 -24.15 50.95 -28.15 50.95 -35.35 50.95 -39.2 50.95 M-39.2 18.45 L-44.65 17.95 M-39.55 -54.25 L-38.05 -54.25 -35.7 -54.25 M-28.25 -54.8 L-24.55 -54.8 M-35.7 -48.95 L-29.85 -48.95 -28.45 -48.95 -28.25 -48.95 -24.55 -48.95 -21.6 -48.95 -15.8 -48.95 -12.05 -48.95 -8.1 -48.95 M-21.6 -54.8 L-24.55 -54.8 M-15.8 -54.8 L-21.6 -54.8 M-15.8 -54.8 L-12.05 -54.8 -8.1 -54.8 M-1.2 -48.95 L2.25 -48.95 M-39.55 -48.95 L-35.7 -48.95 M-35.7 -47.6 L-29.8 -47.6 M-43.7 -47.6 L-39.55 -47.6 -35.7 -47.6 M-46.7 -47.45 L-43.7 -47.6 M-43.7 -40.95 L-39.55 -40.95 -35.7 -40.95 -29.25 -40.95 -28.25 -40.95 -27.75 -40.95 M-47.9 -47.45 L-46.7 -47.45 M-46.7 -40.95 L-43.7 -40.95 M-43.7 -40.0 L-39.55 -40.0 -35.7 -40.0 -29.15 -40.0 M-43.7 -40.0 L-46.7 -39.85 M-56.25 -39.85 L-53.45 -39.85 -46.7 -39.85 M-56.1 -33.2 L-53.45 -33.2 -46.7 -33.2 -43.7 -33.35 -39.55 -33.35 -35.7 -33.35 -28.5 -33.35 -28.0 -33.35 -26.25 -33.35 M-43.7 -34.05 L-46.7 -34.05 -53.45 -34.05 M-43.7 -34.05 L-39.55 -34.05 -35.7 -34.05 -28.5 -34.05 M-46.7 -24.35 L-43.7 -24.7 -39.55 -24.7 M-43.7 -17.85 L-46.7 -17.7 -51.7 -17.7 M-24.55 -40.95 L-21.6 -40.95 -15.8 -40.95 -12.05 -40.95 M-53.45 -24.4 L-54.35 -24.4 M-46.7 -24.35 L-53.45 -24.4 M-1.2 -40.95 L-8.1 -40.95 -12.05 -40.95 M-1.2 -48.95 L-8.1 -48.95 M-8.1 -34.05 L-1.2 -34.05 M-15.75 -34.05 L-12.05 -34.05 -8.1 -34.05 M-15.7 -24.55 L-12.4 -24.55 -8.25 -24.55 -8.1 -24.55 M-21.6 -34.05 L-15.75 -34.05 M-26.4 -40.95 L-24.55 -40.95 M-26.65 -40.95 L-27.75 -40.95 M-24.55 -34.05 L-21.6 -34.05 M-21.6 -24.6 L-19.6 -24.6 -17.95 -24.6 -15.7 -24.55 M-26.65 -40.95 L-26.4 -40.95 M-26.45 -34.05 L-24.55 -34.05 M-23.1 -24.6 L-21.6 -24.6 M-28.15 -34.05 L-28.5 -34.05 M-28.15 -34.05 L-26.45 -34.05 M-24.55 -24.6 L-24.5 -24.6 -23.1 -24.6 M-28.5 -24.65 L-24.8 -24.6 -24.55 -24.6 M-24.5 -17.85 L-21.6 -17.85 -21.45 -17.85 M-28.5 -17.85 L-24.5 -17.85 M-28.5 -24.65 L-35.7 -24.65 -39.55 -24.7 M-24.15 -12.25 L-21.1 -12.25 -15.35 -12.25 M-15.7 -17.85 L-21.45 -17.85 M-35.7 -17.85 L-28.5 -17.85 M-35.7 -17.85 L-39.55 -17.85 M-35.35 -12.3 L-39.2 -12.35 M-39.2 -4.05 L-35.35 -4.05 -28.15 -4.05 M-28.15 -12.3 L-35.35 -12.3 M-28.15 -12.3 L-24.15 -12.25 M-24.15 -4.05 L-21.1 -4.05 M-24.15 -4.05 L-28.15 -4.05 M-7.45 -17.85 L-8.1 -17.85 M-1.35 -17.85 L-3.9 -17.85 -7.45 -17.85 M-6.05 -12.2 L-1.0 -12.2 M-12.4 -17.85 L-8.1 -17.85 M-7.75 -12.2 L-7.1 -12.2 M-12.4 -17.85 L-15.7 -17.85 M-12.05 -12.2 L-15.35 -12.25 M-15.35 -4.05 L-11.6 -4.05 M-6.05 -12.2 L-7.1 -12.2 M-5.8 5.95 L-1.0 5.95 M-7.3 -4.05 L-7.75 -4.05 -11.6 -4.05 M-12.05 -12.2 L-7.75 -12.2 M-15.35 -4.05 L-21.1 -4.05 M-43.7 -17.85 L-39.55 -17.85 M-43.35 -12.35 L-39.2 -12.35 M-7.75 5.95 L-7.3 5.95 M-15.35 5.95 L-11.6 5.95 -7.75 5.95 M-15.35 18.45 L-11.6 18.45 -7.75 18.45 M-5.8 18.45 L-1.0 18.45 M-7.3 18.45 L-7.75 18.45 M-1.0 30.95 L1.75 31.25 M-21.1 18.45 L-15.35 18.45 M-21.1 5.95 L-24.15 5.95 -28.15 5.95 M-24.15 18.45 L-21.1 18.45 M-15.35 30.95 L-11.6 30.95 -7.75 30.95 -7.3 30.95 M-35.35 5.95 L-28.15 5.95 M-39.2 5.95 L-35.35 5.95 M-28.15 18.45 L-24.15 18.45 M-21.1 30.95 L-15.35 30.95 M-1.0 30.95 L-5.8 30.95 M-39.2 5.95 L-44.7 5.5 M-39.2 18.45 L-35.35 18.45 -28.15 18.45 M-24.15 30.95 L-21.1 30.95 M-15.35 40.95 L-11.6 40.95 -7.75 40.95 -7.3 40.95 M-24.15 30.95 L-28.15 30.95 M-35.35 30.95 L-28.15 30.95 M-24.15 40.95 L-21.1 40.95 -15.35 40.95 M-35.35 30.95 L-39.2 30.95 M-28.15 40.95 L-24.15 40.95 M-39.2 40.95 L-35.35 40.95 M-28.15 40.95 L-35.35 40.95 M-5.8 40.95 L-1.0 40.95 M-21.1 5.95 L-15.35 5.95 M-7.3 50.95 L-7.75 50.95 M2.25 -40.95 L-1.2 -40.95" fill="none" stroke="#000000" stroke-linecap="round" stroke-linejoin="round" stroke-width="1.25"/>
  </g>
</svg>
