<?xml version="1.0" encoding="UTF-8" standalone="no"?>
<svg xmlns:xlink="http://www.w3.org/1999/xlink" height="158.3px" width="106.8px" xmlns="http://www.w3.org/2000/svg">
  <g transform="matrix(1.0, 0.0, 0.0, 1.0, 37.25, 0.5)">
    <path d="M37.45 11.45 Q39.4 11.0 40.9 9.95 L40.85 9.05 Q35.6 -2.2 24.05 3.5 L24.7 5.85 Q22.95 6.25 21.45 5.1 16.1 1.25 11.95 6.45 L14.05 10.45 16.15 15.05 28.35 18.1 37.45 11.45 M34.6 64.85 L33.4 74.25 34.8 74.2 Q54.4 70.0 67.7 51.35 63.3 62.25 47.95 73.55 39.95 79.4 30.8 75.5 -10.2 104.7 -27.5 58.45 -45.4 36.8 -30.45 16.0 -31.6 17.65 -32.45 19.6 -35.6 26.1 -33.85 33.0 -22.05 79.5 6.3 43.15 L2.75 33.05 2.8 33.05 2.75 32.95 Q7.5 31.2 12.15 31.4 L14.5 32.5 7.6 34.5 Q7.75 65.25 -22.95 60.45 L-25.05 60.0 Q4.05 107.05 27.95 60.25 30.0 56.25 30.45 51.65 L34.1 56.45 Q47.35 26.05 14.45 17.65 L12.25 18.2 7.7 19.45 14.55 15.25 14.7 15.2 Q-25.65 -4.9 -8.15 33.05 L-6.6 28.95 -6.25 32.7 Q-11.15 36.5 -17.0 30.7 L-17.9 29.7 Q-28.1 38.75 -22.3 48.75 -31.15 36.35 -18.65 29.15 L-18.1 24.1 -15.25 7.25 Q-3.7 -2.85 8.85 5.1 L10.4 6.15 Q14.2 -0.25 21.45 1.15 L23.4 1.7 Q36.85 -5.0 42.8 8.65 L43.35 10.1 Q74.45 28.85 68.6 48.85 70.6 39.8 57.55 26.95 55.75 25.15 53.35 23.55 54.0 15.75 42.45 15.8 34.85 15.1 28.65 19.85 L34.35 25.25 Q50.3 44.9 34.4 57.95 L34.6 64.85 M9.8 95.45 L19.75 96.85 Q15.85 98.8 11.45 104.25 L9.2 106.35 9.8 95.45 M30.85 99.65 Q37.0 102.8 35.9 109.15 L30.85 99.65 M29.6 121.1 L27.95 123.15 Q26.75 124.55 24.7 125.05 9.0 149.9 -8.3 126.5 L-11.1 125.6 -13.9 117.45 Q1.95 144.5 19.25 127.25 L20.95 124.85 Q-4.8 136.15 -8.75 107.1 L-6.55 101.45 -5.9 101.0 Q-2.85 99.1 -6.3 103.75 -5.55 133.45 18.95 123.1 L18.65 122.7 Q4.15 121.75 4.55 106.9 L5.05 106.65 Q5.05 112.65 12.25 116.9 19.45 121.1 29.6 121.1 M-15.95 105.7 Q-15.9 94.7 -5.1 93.65 -9.15 95.1 -13.0 98.8 L-15.95 105.7 M16.1 146.8 L16.45 141.35 20.55 138.55 24.55 141.4 20.45 141.8 16.1 146.8 M30.3 146.9 Q34.2 151.95 29.55 154.3 31.65 150.2 30.3 146.9 M21.75 156.1 L15.4 157.8 13.75 155.35 17.85 155.25 16.8 151.05 21.75 156.1 M13.6 155.15 L10.3 150.25 15.85 146.95 12.35 149.25 13.6 155.15" fill="#000000" fill-rule="evenodd" stroke="none"/>
    <path d="M14.05 10.45 L11.95 6.45 Q16.1 1.25 21.45 5.1 22.95 6.25 24.7 5.85 L24.05 3.5 Q35.6 -2.2 40.85 9.05 L40.9 9.95 Q39.4 11.0 37.45 11.45 L28.6 6.0 27.15 9.6 19.55 11.8 24.1 7.3 14.05 10.45 M34.35 25.25 L45.8 22.25 41.75 28.9 Q76.0 38.15 45.35 62.75 40.55 66.55 34.6 64.85 L34.4 57.95 Q50.3 44.9 34.35 25.25 M-6.25 32.7 L-6.6 28.95 -8.15 33.05 Q-25.65 -4.9 14.7 15.2 L14.55 15.25 7.7 19.45 12.25 18.2 Q32.85 24.35 32.6 45.8 L22.9 40.75 26.85 58.8 22.3 55.6 18.55 58.95 Q17.5 58.25 16.75 57.35 8.75 47.6 7.6 34.5 L14.5 32.5 19.05 27.95 12.35 27.65 10.8 24.75 Q5.55 27.65 0.25 30.5 L2.75 32.95 2.75 33.05 6.3 43.15 -8.7 47.55 -6.25 32.7 M-32.45 19.6 Q-31.6 17.65 -30.45 16.0 L-15.25 7.25 -18.1 24.1 -31.95 33.95 -32.45 19.6 M19.75 96.85 Q26.8 97.55 30.85 99.65 L35.9 109.15 36.2 110.85 Q22.55 117.45 19.65 103.15 L19.3 101.1 15.25 106.15 11.45 104.25 Q15.85 98.8 19.75 96.85 M-5.1 93.65 Q2.05 91.0 9.8 95.45 L9.2 106.35 Q7.1 104.55 5.35 105.85 5.05 106.05 5.05 106.65 L4.55 106.9 5.05 97.55 -3.95 108.05 -6.3 103.75 Q-2.85 99.1 -5.9 101.0 L-6.55 101.45 -12.5 102.2 -13.0 98.8 Q-9.15 95.1 -5.1 93.65 M9.15 113.25 L9.15 113.3 9.1 113.25 9.15 113.25 M24.55 141.4 L25.2 141.65 Q25.25 145.3 24.6 148.1 23.9 150.85 22.95 150.95 21.95 151.05 21.25 148.5 20.5 145.9 20.45 141.8 L24.55 141.4" fill="#cccccc" fill-rule="evenodd" stroke="none"/>
    <path d="M14.05 10.45 L24.1 7.3 19.55 11.8 27.15 9.6 28.6 6.0 37.45 11.45 28.35 18.1 16.15 15.05 14.05 10.45 M34.6 64.85 Q40.55 66.55 45.35 62.75 76.0 38.15 41.75 28.9 L45.8 22.25 34.35 25.25 28.65 19.85 Q34.85 15.1 42.45 15.8 54.0 15.75 53.35 23.55 55.75 25.15 57.55 26.95 70.6 39.8 68.6 48.85 L67.7 51.35 Q54.4 70.0 34.8 74.2 L33.4 74.25 34.6 64.85 M12.25 18.2 L14.45 17.65 Q47.35 26.05 34.1 56.45 L30.45 51.65 Q30.0 56.25 27.95 60.25 4.05 107.05 -25.05 60.0 L-22.95 60.45 Q7.75 65.25 7.6 34.5 8.75 47.6 16.75 57.35 17.5 58.25 18.55 58.95 L22.3 55.6 26.85 58.8 22.9 40.75 32.6 45.8 Q32.85 24.35 12.25 18.2 M14.5 32.5 L12.15 31.4 Q7.5 31.2 2.75 32.95 L2.8 33.05 2.75 33.05 2.75 32.95 0.25 30.5 Q5.55 27.65 10.8 24.75 L12.35 27.65 19.05 27.95 14.5 32.5 M6.3 43.15 Q-22.05 79.5 -33.85 33.0 -35.6 26.1 -32.45 19.6 L-31.95 33.95 -18.1 24.1 -18.65 29.15 Q-31.15 36.35 -22.3 48.75 -28.1 38.75 -17.9 29.7 L-17.0 30.7 Q-11.15 36.5 -6.25 32.7 L-8.7 47.55 6.3 43.15 M36.2 110.85 L29.6 121.1 Q19.45 121.1 12.25 116.9 5.05 112.65 5.05 106.65 5.05 106.05 5.35 105.85 7.1 104.55 9.2 106.35 L11.45 104.25 15.25 106.15 19.3 101.1 19.65 103.15 Q22.55 117.45 36.2 110.85 M-13.9 117.45 Q-16.0 110.6 -15.95 105.7 L-13.0 98.8 -12.5 102.2 -6.55 101.45 -8.75 107.1 Q-4.8 136.15 20.95 124.85 L19.25 127.25 Q1.95 144.5 -13.9 117.45 M9.15 113.25 L9.1 113.25 9.15 113.3 9.15 113.25 M4.55 106.9 Q4.15 121.75 18.65 122.7 L18.95 123.1 Q-5.55 133.45 -6.3 103.75 L-3.95 108.05 5.05 97.55 4.55 106.9 M25.2 141.65 Q29.1 143.95 30.3 146.9 31.65 150.2 29.55 154.3 L21.75 156.1 16.8 151.05 17.85 155.25 13.75 155.35 13.65 155.35 13.6 155.15 12.35 149.25 15.85 146.95 16.1 146.8 20.45 141.8 Q20.5 145.9 21.25 148.5 21.95 151.05 22.95 150.95 23.9 150.85 24.6 148.1 25.25 145.3 25.2 141.65" fill="#666666" fill-rule="evenodd" stroke="none"/>
  </g>
</svg>
