<?xml version="1.0" encoding="UTF-8" standalone="no"?>
<svg xmlns:xlink="http://www.w3.org/1999/xlink" height="50.85px" width="54.4px" xmlns="http://www.w3.org/2000/svg">
  <g transform="matrix(1.0, 0.0, 0.0, 1.0, 24.65, 25.6)">
    <path d="M-2.75 -24.8 Q1.1 -23.4 5.6 -20.3 L1.4 -16.8 15.65 -15.7 Q25.3 18.55 -0.6 1.4 L-1.25 0.55 Q-18.85 15.05 -17.95 -7.05 L-17.95 -7.35 Q-17.9 -8.9 -17.0 -10.4 L-15.5 -10.85 -8.15 -12.25 -14.8 -11.85 -2.75 -24.8" fill="#cccccc" fill-rule="evenodd" stroke="none"/>
    <path d="M15.65 -15.7 L1.4 -16.8 5.6 -20.3 Q1.1 -23.4 -2.75 -24.8 4.1 -27.45 14.35 -21.15 39.1 -6.0 24.1 13.55 34.35 -1.7 17.85 -14.5 16.85 -15.25 15.65 -15.7 M-14.8 -11.85 L-8.15 -12.25 -15.5 -10.85 -14.8 -11.85 M0.4 24.9 L7.2 23.65 8.85 20.5 -0.1 9.35 0.5 10.0 Q6.85 18.6 17.85 17.85 L11.85 21.0 10.95 24.4 0.4 24.9 M-20.95 -1.7 Q-21.9 1.45 -22.15 4.8 -23.15 17.85 -15.9 22.6 -30.35 17.0 -20.95 -1.7" fill="#000000" fill-rule="evenodd" stroke="none"/>
    <path d="M15.65 -15.7 Q16.85 -15.25 17.85 -14.5 34.35 -1.7 24.1 13.55 L20.95 17.55 17.85 17.85 Q6.85 18.6 0.5 10.0 L-0.1 9.35 8.85 20.5 7.2 23.65 0.4 24.9 Q-10.25 26.25 -15.9 22.6 -23.15 17.85 -22.15 4.8 -21.9 1.45 -20.95 -1.7 -19.65 -6.25 -17.0 -10.4 -17.9 -8.9 -17.95 -7.35 L-17.95 -7.05 Q-18.85 15.05 -1.25 0.55 L-0.6 1.4 Q25.3 18.55 15.65 -15.7" fill="#666666" fill-rule="evenodd" stroke="none"/>
  </g>
</svg>
