<?xml version="1.0" encoding="UTF-8" standalone="no"?>
<svg xmlns:xlink="http://www.w3.org/1999/xlink" height="134.3px" width="129.05px" xmlns="http://www.w3.org/2000/svg">
  <g transform="matrix(1.0, 0.0, 0.0, 1.0, 67.1, 69.7)">
    <path d="M-25.8 -35.1 L-16.65 -30.0 Q-8.0 -53.2 15.4 -49.95 24.75 -39.35 21.15 -27.85 L12.7 -21.4 13.15 -21.5 Q22.8 -26.6 33.3 -23.4 L46.7 -15.35 Q40.0 -6.5 30.4 -12.65 L28.85 -13.55 Q43.6 -3.4 44.7 22.25 33.35 26.45 24.15 18.5 14.3 19.05 13.2 31.35 -17.2 25.25 -11.3 -8.45 L-25.35 7.95 Q-47.65 -12.25 -25.8 -35.1 M-17.65 -64.4 Q-8.75 -62.8 -6.2 -53.4 L-6.3 -52.85 -2.45 -54.45 -9.45 -62.4 -5.9 -65.85 18.5 -64.7 Q27.85 -56.05 26.35 -43.5 L25.5 -44.9 Q17.6 -57.15 3.75 -53.9 -11.2 -50.7 -17.2 -36.6 L-18.0 -34.55 Q-40.2 -42.25 -48.1 -19.0 -48.1 -37.85 -41.3 -51.2 -37.35 -59.05 -32.4 -62.25 L-23.1 -64.7 -17.65 -64.4" fill="#cccccc" fill-rule="evenodd" stroke="none"/>
    <path d="M46.7 -15.35 L33.3 -23.4 Q22.8 -26.6 13.15 -21.5 L12.7 -21.4 21.15 -27.85 Q24.75 -39.35 15.4 -49.95 -8.0 -53.2 -16.65 -30.0 L-25.8 -35.1 Q-53.75 -27.95 -43.85 -2.3 L-43.7 -1.95 -46.35 -2.35 -48.1 -19.0 Q-40.2 -42.25 -18.0 -34.55 L-17.2 -36.6 Q-11.2 -50.7 3.75 -53.9 26.65 -53.15 25.2 -30.5 L24.9 -27.7 35.75 -27.35 Q41.2 -52.55 18.5 -64.7 L-5.9 -65.85 -9.45 -62.4 -2.45 -54.45 -6.3 -52.85 -6.2 -53.4 Q-8.75 -62.8 -17.65 -64.4 L-11.5 -63.65 -6.4 -69.2 Q38.25 -73.95 38.85 -32.65 38.9 -28.5 37.2 -24.8 62.95 -12.05 61.9 14.55 60.35 0.65 46.7 -15.35 M59.3 30.7 Q48.55 72.4 7.9 62.8 18.15 63.2 30.0 57.05 52.6 45.25 59.3 30.7 M-8.7 57.25 Q-20.7 52.0 -26.95 39.95 -59.35 33.95 -65.3 1.95 -76.05 -56.2 -23.1 -64.7 L-32.4 -62.25 Q-45.9 -57.75 -52.3 -45.6 -82.7 12.3 -29.25 36.8 L-25.2 17.25 -24.85 38.4 -18.4 37.55 -24.0 40.3 Q-17.05 51.6 -8.7 57.25" fill="#000000" fill-rule="evenodd" stroke="none"/>
    <path d="M46.7 -15.35 Q60.35 0.65 61.9 14.55 L59.3 30.7 Q52.6 45.25 30.0 57.05 18.15 63.2 7.9 62.8 L-8.7 57.25 Q-17.05 51.6 -24.0 40.3 L-18.4 37.55 -24.85 38.4 -25.2 17.25 -29.25 36.8 Q-82.7 12.3 -52.3 -45.6 -45.9 -57.75 -32.4 -62.25 -37.35 -59.05 -41.3 -51.2 -48.1 -37.85 -48.1 -19.0 L-46.35 -2.35 -43.7 -1.95 -43.85 -2.3 Q-53.75 -27.95 -25.8 -35.1 -47.65 -12.25 -25.35 7.95 L-11.3 -8.45 Q-17.2 25.25 13.2 31.35 14.3 19.05 24.15 18.5 33.35 26.45 44.7 22.25 43.6 -3.4 28.85 -13.55 L30.4 -12.65 Q40.0 -6.5 46.7 -15.35 M18.5 -64.7 Q41.2 -52.55 35.75 -27.35 L24.9 -27.7 25.2 -30.5 Q26.65 -53.15 3.75 -53.9 17.6 -57.15 25.5 -44.9 L26.35 -43.5 Q27.85 -56.05 18.5 -64.7" fill="#666666" fill-rule="evenodd" stroke="none"/>
  </g>
</svg>
