<?xml version="1.0" encoding="UTF-8" standalone="no"?>
<svg xmlns:xlink="http://www.w3.org/1999/xlink" height="68.2px" width="73.1px" xmlns="http://www.w3.org/2000/svg">
  <g transform="matrix(1.0, 0.0, 0.0, 1.0, 36.8, 33.6)">
    <path d="M-5.65 -30.1 L-5.45 -29.95 -5.7 -30.0 -5.65 -30.1 M-18.4 -11.9 L-18.75 -11.95 -18.55 -12.15 -18.4 -11.9 M10.15 -1.0 L9.9 -1.3 10.5 -1.35 10.15 -1.0 M-27.95 5.25 L-28.0 5.2 -27.95 5.2 -27.95 5.25 M-8.45 -31.85 L-8.3 -31.75 -8.45 -31.85 M-16.15 1.7 L-15.75 1.55 -15.8 1.75 -16.15 1.7" fill="#000000" fill-rule="evenodd" stroke="none"/>
    <path d="M-4.9 -32.7 L-4.45 -32.85 -3.35 -33.1 12.15 -32.65 Q13.6 -32.15 14.9 -31.35 21.25 -27.55 24.15 -18.3 L19.5 -18.85 6.4 -17.3 -3.2 -28.45 -2.75 -22.2 Q-5.25 -21.3 -7.45 -19.95 -18.85 -13.1 -27.8 -17.45 L-27.65 -18.6 Q-22.15 -35.9 -5.7 -30.0 L-5.45 -29.95 -5.65 -30.1 Q-6.95 -31.1 -8.3 -31.75 L-4.9 -32.7 M-18.4 -11.9 Q-7.45 -19.65 2.2 -11.95 L8.35 -10.8 10.9 -6.1 10.3 -6.35 11.8 -0.9 10.5 -1.35 9.9 -1.3 10.15 -1.0 13.4 1.75 11.3 7.85 6.5 1.4 6.0 6.4 0.4 10.2 -5.55 5.75 -1.65 -1.95 -10.15 2.4 -9.35 -6.25 -23.0 0.3 -21.75 -8.05 -18.75 -11.95 -18.4 -11.9 M12.75 -4.35 L8.85 -11.9 21.3 -18.1 21.4 -18.1 25.75 -17.55 33.7 -12.55 Q36.1 -9.5 36.1 -5.6 34.3 -2.75 29.5 -3.45 L28.0 -3.8 21.9 -8.2 32.35 7.0 30.05 11.25 25.7 8.35 23.45 -0.7 20.6 6.55 17.25 4.25 16.0 2.55 12.75 -4.35 M25.05 -21.2 L23.15 -26.65 31.2 -21.8 31.2 -17.75 Q27.8 -16.85 25.6 -20.35 L25.05 -21.2 M-32.3 16.85 L-27.95 5.25 Q-22.05 6.65 -27.05 15.85 L-27.55 16.6 -32.3 16.85 M-31.4 8.75 L-33.8 14.55 -35.55 11.3 -34.15 0.1 -23.7 -4.6 -24.45 -1.4 -31.4 8.75 M-35.55 -3.95 Q-35.55 -8.65 -33.75 -11.95 -32.0 -15.3 -29.5 -15.3 L-29.4 -15.15 -26.8 -11.8 Q-26.8 -8.55 -29.35 -6.25 -31.95 -3.95 -35.55 -3.95" fill="#cccccc" fill-rule="evenodd" stroke="none"/>
    <path d="M-27.8 -17.45 Q-18.85 -13.1 -7.45 -19.95 -5.25 -21.3 -2.75 -22.2 L-3.2 -28.45 6.4 -17.3 19.5 -18.85 21.3 -18.1 8.85 -11.9 7.8 -12.5 Q-5.85 -20.25 -18.55 -12.15 L-18.75 -11.95 -21.75 -8.05 -23.7 -4.6 -34.15 0.1 Q-35.5 -1.8 -35.55 -3.95 -31.95 -3.95 -29.35 -6.25 -26.8 -8.55 -26.8 -11.8 L-27.8 -17.45 M34.0 11.7 L31.35 22.65 Q20.0 35.85 3.85 29.45 -2.65 35.0 -10.75 32.4 -12.75 31.9 -14.65 30.75 L-9.45 28.1 Q-23.5 31.15 -32.15 19.7 L-32.3 16.85 -27.55 16.6 -27.05 15.85 Q-22.05 6.65 -27.95 5.25 L-27.95 5.2 -28.0 5.2 -31.4 8.75 -24.45 -1.4 Q-20.1 14.95 -8.3 18.45 -14.05 14.45 -15.8 1.75 L-15.75 1.55 -16.15 1.7 -18.25 8.75 -23.0 0.3 -9.35 -6.25 -10.15 2.4 -1.65 -1.95 -5.55 5.75 0.4 10.2 6.0 6.4 6.5 1.4 11.3 7.85 13.4 1.75 Q21.35 9.1 11.95 15.05 8.1 17.5 4.85 18.8 19.45 16.2 17.25 4.25 L20.6 6.55 23.45 -0.7 25.7 8.35 30.05 11.25 32.35 7.0 Q33.5 9.15 34.0 11.7 M11.8 -0.9 L10.3 -6.35 10.95 -5.9 Q10.95 -5.25 11.5 -4.8 12.0 -4.35 12.75 -4.35 L16.0 2.55 11.8 -0.9 M31.2 -17.75 L33.7 -12.55 25.75 -17.55 25.05 -21.2 25.6 -20.35 Q27.8 -16.85 31.2 -17.75 M36.1 -5.6 L34.1 7.2 28.0 -3.8 29.5 -3.45 Q34.3 -2.75 36.1 -5.6 M-26.1 -11.45 L-26.35 -11.55 -26.25 -11.3 -26.1 -11.45" fill="#666666" fill-rule="evenodd" stroke="none"/>
    <path d="M-4.9 -32.7 L-8.3 -31.75 Q-6.95 -31.1 -5.65 -30.1 L-5.7 -30.0 Q-22.15 -35.9 -27.65 -18.6 L-27.8 -17.45 -26.8 -11.8 -29.4 -15.15 -29.35 -15.35 -29.5 -15.3 Q-32.0 -15.3 -33.75 -11.95 -35.55 -8.65 -35.55 -3.95 -35.5 -1.8 -34.15 0.1 L-35.55 11.3 -33.8 14.55 -31.4 8.75 -28.0 5.2 -27.95 5.25 -32.3 16.85 -32.15 19.7 Q-23.5 31.15 -9.45 28.1 L-14.65 30.75 Q-12.75 31.9 -10.75 32.4 -2.65 35.0 3.85 29.45 20.0 35.85 31.35 22.65 23.8 37.1 5.1 31.5 -6.55 38.15 -16.9 30.5 -40.05 24.0 -35.05 1.45 L-36.15 -1.7 Q-38.95 -12.5 -29.3 -15.9 L-29.0 -17.7 Q-25.3 -33.8 -8.45 -31.85 L-4.9 -32.7 M19.5 -18.85 L24.15 -18.3 Q21.25 -27.55 14.9 -31.35 L32.0 -23.1 Q37.9 -9.6 35.7 5.1 35.2 8.5 34.0 11.7 33.5 9.15 32.35 7.0 L21.9 -8.2 28.0 -3.8 34.1 7.2 36.1 -5.6 Q36.1 -9.5 33.7 -12.55 L31.2 -17.75 31.2 -21.8 23.15 -26.65 25.05 -21.2 25.75 -17.55 21.4 -18.1 21.3 -18.1 19.5 -18.85 M10.9 -6.1 L8.35 -10.8 2.2 -11.95 Q-7.45 -19.65 -18.4 -11.9 L-18.55 -12.15 Q-5.85 -20.25 7.8 -12.5 L8.85 -11.9 12.75 -4.35 Q12.0 -4.35 11.5 -4.8 10.95 -5.25 10.95 -5.9 L10.9 -6.1 M-21.75 -8.05 L-23.0 0.3 -18.25 8.75 -16.15 1.7 -15.8 1.75 Q-14.05 14.45 -8.3 18.45 -20.1 14.95 -24.45 -1.4 L-23.7 -4.6 -21.75 -8.05 M13.4 1.75 L10.15 -1.0 10.5 -1.35 11.8 -0.9 16.0 2.55 17.25 4.25 Q19.45 16.2 4.85 18.8 8.1 17.5 11.95 15.05 21.35 9.1 13.4 1.75 M-8.45 -31.85 L-8.3 -31.75 -8.45 -31.85" fill="#333333" fill-rule="evenodd" stroke="none"/>
  </g>
</svg>
