<?xml version="1.0" encoding="UTF-8" standalone="no"?>
<svg xmlns:xlink="http://www.w3.org/1999/xlink" height="124.1px" width="132.35px" xmlns="http://www.w3.org/2000/svg">
  <g transform="matrix(1.0, 0.0, 0.0, 1.0, 64.95, 62.15)">
    <path d="M43.45 22.6 L43.5 22.65 43.35 22.75 43.45 22.6 M53.55 -4.25 L53.2 -4.4 53.5 -4.4 53.55 -4.25 M36.1 -29.75 L35.95 -29.75 36.0 -30.0 36.1 -29.75 M-14.6 -31.55 L-14.75 -31.75 -13.95 -32.0 -14.6 -31.55 M-43.2 10.85 L-43.1 10.8 -43.1 10.85 -43.2 10.85" fill="#000000" fill-rule="evenodd" stroke="none"/>
    <path d="M18.6 -50.75 L19.5 -56.1 Q27.5 -57.85 31.9 -50.8 51.05 -48.85 45.85 -36.7 L50.65 -27.25 48.75 -27.55 49.05 -27.1 59.8 -16.95 59.2 -8.35 58.8 -8.6 59.1 -8.0 58.8 -7.15 Q57.7 -4.8 55.15 -4.2 L53.5 -4.4 53.2 -4.4 53.55 -4.25 62.55 3.95 62.5 4.2 55.25 20.45 55.3 20.7 56.0 25.8 55.6 26.3 Q42.25 37.6 30.35 25.45 L30.9 25.35 43.35 22.75 43.5 22.65 43.45 22.6 39.25 20.95 Q38.75 21.0 40.05 19.6 42.55 16.75 45.75 16.1 L44.55 16.0 43.1 11.25 44.3 8.75 45.65 8.85 44.5 8.35 44.65 7.95 38.75 -3.55 39.2 -8.45 39.2 -8.55 42.25 -16.75 48.2 -19.8 48.75 -19.8 48.6 -20.0 38.8 -25.15 42.7 -38.3 Q35.35 -37.8 28.35 -39.05 19.95 -40.35 18.7 -50.8 L18.6 -50.75 M-19.1 -56.85 L-17.5 -56.95 Q-14.4 -56.9 -11.05 -55.05 L-9.9 -52.3 -13.3 -44.7 -13.6 -45.0 -14.25 -44.45 -15.2 -43.35 -31.05 -36.85 -31.9 -31.6 Q-33.45 -33.2 -32.45 -30.9 L-32.3 -30.65 -32.3 -30.6 -45.6 -20.7 -46.05 -21.15 -45.75 -20.6 -46.05 -20.45 -45.65 -20.35 -44.4 -18.75 Q-49.3 -9.45 -61.15 -6.65 -62.3 -6.5 -63.25 -5.6 L-58.4 -22.85 Q-56.7 -21.95 -56.05 -27.65 -55.15 -36.0 -46.75 -39.05 -44.0 -47.15 -35.95 -50.05 -29.45 -52.5 -31.85 -53.25 L-24.0 -55.8 -25.6 -53.75 -19.1 -56.85 M-11.5 -57.5 Q-7.05 -59.6 -2.65 -60.2 6.7 -61.55 15.6 -56.0 L18.0 -49.75 Q17.35 -48.95 16.5 -48.45 1.85 -38.65 -8.2 -52.85 L-11.5 -57.5 M13.8 30.4 L20.1 29.6 Q27.6 29.85 33.55 36.25 L35.45 38.5 14.85 43.1 Q14.85 38.55 13.1 35.35 11.35 32.1 8.9 32.1 L9.05 31.95 13.8 30.4 M-20.6 35.8 Q-11.05 27.3 0.0 33.6 0.4 33.25 0.85 33.25 12.0 31.7 14.05 43.7 -10.3 60.1 -20.6 38.1 -20.95 37.35 -20.8 36.4 L-20.6 35.8 M-57.3 -5.05 L-56.8 -5.4 -56.65 -5.3 Q-56.35 -5.15 -56.45 -5.7 L-48.7 -9.2 -43.4 -8.4 -37.95 -5.2 Q-35.05 -2.5 -35.05 1.15 L-35.55 1.6 Q-47.4 14.6 -63.0 6.8 L-57.3 -5.05 M-23.9 22.5 Q-22.65 23.4 -21.55 24.65 -20.4 25.95 -19.45 27.6 L-25.6 30.4 -16.45 28.7 -14.15 30.85 -23.05 36.5 -26.45 36.9 Q-47.5 39.25 -42.35 21.3 L-42.05 20.95 -23.9 22.5 M-54.95 16.65 L-43.2 10.85 -43.1 10.85 -42.4 10.8 -40.4 10.75 Q-32.95 11.1 -29.85 17.9 L-40.75 19.85 Q-42.4 20.3 -44.0 21.05 L-54.75 20.95 -55.75 17.75 -55.55 17.6 -53.3 18.15 Q-53.45 17.1 -54.95 16.65" fill="#cccccc" fill-rule="evenodd" stroke="none"/>
    <path d="M18.7 -50.8 Q19.95 -40.35 28.35 -39.05 35.35 -37.8 42.7 -38.3 L38.8 -25.15 48.6 -20.0 48.2 -19.8 42.25 -16.75 39.9 -17.6 36.85 -22.45 Q36.7 -23.45 36.95 -24.6 L36.9 -24.7 36.3 -29.1 36.1 -29.4 36.1 -29.75 36.0 -30.0 35.85 -30.0 35.95 -29.75 34.35 -26.5 22.0 -32.95 28.95 -36.55 13.15 -37.5 14.05 -41.75 5.85 -37.95 Q0.1 -36.5 -5.0 -38.6 -9.35 -40.4 -13.3 -44.7 L-9.9 -52.3 -11.05 -55.05 -8.2 -52.85 Q1.85 -38.65 16.5 -48.45 17.35 -48.95 18.0 -49.75 17.55 -47.25 18.15 -47.75 18.95 -48.55 18.6 -50.65 L18.7 -50.8 M38.75 -3.55 L44.65 7.95 44.45 8.3 38.75 -3.55 M43.1 11.25 L44.55 16.0 38.25 20.4 38.0 18.75 37.95 17.85 39.95 11.2 Q41.5 9.5 44.2 8.75 43.3 9.95 43.1 11.25 M30.35 25.45 Q42.25 37.6 55.6 26.3 L56.0 25.8 Q58.55 39.25 46.05 45.0 L44.8 45.5 43.85 42.7 Q43.0 51.1 34.85 53.2 33.35 53.55 33.0 52.0 26.25 59.1 15.6 57.85 L11.55 57.5 14.15 55.8 14.1 53.8 Q-5.65 68.5 -21.65 50.3 L-19.05 56.45 Q-28.9 57.05 -30.05 51.95 -45.45 48.8 -52.15 36.25 -61.9 29.2 -59.1 16.75 L-55.75 17.55 -56.1 17.95 -55.75 17.75 -54.75 20.95 -44.0 21.05 -43.0 21.15 -42.35 21.3 Q-47.5 39.25 -26.45 36.9 L-23.05 36.5 -24.0 37.6 Q-22.3 37.95 -21.0 36.3 L-20.8 36.4 Q-20.95 37.35 -20.6 38.1 -10.3 60.1 14.05 43.7 L14.3 44.2 14.85 43.1 35.45 38.5 33.55 36.25 27.7 29.3 29.85 26.25 30.35 25.45 M55.25 20.45 L62.5 4.2 62.65 4.2 Q66.95 15.8 58.1 24.25 L55.35 20.65 55.25 20.45 M55.15 -4.2 Q57.7 -4.8 58.8 -7.15 L59.1 -8.0 61.4 -0.25 55.15 -4.2 M59.2 -8.35 L59.8 -16.95 60.3 -15.65 Q63.05 -8.85 59.2 -8.35 M-63.25 -5.6 Q-62.3 -6.5 -61.15 -6.65 -49.3 -9.45 -44.4 -18.75 L-34.45 -15.95 -38.5 -7.7 -43.4 -8.4 -48.7 -9.2 -56.45 -5.7 -56.8 -5.4 -57.3 -5.05 -61.95 -1.45 -63.25 -5.6 M-45.65 -20.35 L-46.05 -20.45 -45.75 -20.6 -45.65 -20.35 M-31.9 -31.6 L-31.05 -36.85 -15.2 -43.35 -14.1 -44.05 Q-9.5 -26.85 -30.95 -31.1 L-31.9 -31.6 M-35.05 1.15 L-34.9 5.3 -34.7 10.6 -34.8 10.75 -40.4 10.75 -42.4 10.8 -43.1 10.8 -43.2 10.85 -54.95 16.65 Q-58.3 16.65 -60.65 13.8 -63.0 10.9 -63.0 6.8 -47.4 14.6 -35.55 1.6 L-35.05 1.15" fill="#666666" fill-rule="evenodd" stroke="none"/>
    <path d="M59.8 -16.95 L49.05 -27.1 48.75 -27.55 50.65 -27.25 45.85 -36.7 Q51.05 -48.85 31.9 -50.8 27.5 -57.85 19.5 -56.1 L18.6 -50.75 18.6 -50.65 Q18.95 -48.55 18.15 -47.75 17.55 -47.25 18.0 -49.75 L15.6 -56.0 Q6.7 -61.55 -2.65 -60.2 L3.6 -62.15 17.2 -56.7 Q20.5 -58.1 24.1 -57.45 29.2 -57.0 32.3 -52.9 39.25 -52.8 44.15 -48.05 49.45 -42.9 47.7 -35.7 L51.4 -27.1 Q64.05 -20.25 66.5 -7.8 70.2 11.15 58.5 24.55 59.0 30.95 56.05 36.85 52.3 44.2 44.55 46.5 44.2 48.05 43.15 49.45 41.9 51.2 40.05 52.3 36.8 54.3 33.1 53.65 30.75 55.95 27.75 57.45 19.25 61.6 10.75 57.95 6.65 60.6 1.8 61.45 -8.6 63.55 -17.2 56.95 -21.85 58.8 -26.45 56.95 -30.25 55.3 -32.55 51.75 -37.5 52.2 -41.85 49.85 -49.45 45.9 -51.5 37.75 -57.15 35.35 -59.25 29.5 -61.6 23.1 -59.95 16.2 -62.1 14.4 -63.2 11.7 -65.65 5.55 -62.55 -0.45 -65.15 -5.05 -64.95 -10.25 -64.6 -18.25 -58.75 -23.25 -60.15 -26.8 -59.0 -30.45 -56.4 -38.65 -47.9 -39.95 L-46.35 -42.75 Q-37.05 -58.45 -19.1 -56.85 L-25.6 -53.75 -24.0 -55.8 -31.85 -53.25 Q-29.45 -52.5 -35.95 -50.05 -44.0 -47.15 -46.75 -39.05 -55.15 -36.0 -56.05 -27.65 -56.7 -21.95 -58.4 -22.85 L-63.25 -5.6 -61.95 -1.45 -57.3 -5.05 -63.0 6.8 Q-63.0 10.9 -60.65 13.8 -58.3 16.65 -54.95 16.65 -53.45 17.1 -53.3 18.15 L-55.55 17.6 -55.75 17.55 -59.1 16.75 Q-61.9 29.2 -52.15 36.25 -45.45 48.8 -30.05 51.95 -28.9 57.05 -19.05 56.45 L-21.65 50.3 Q-5.65 68.5 14.1 53.8 L14.15 55.8 11.55 57.5 15.6 57.85 Q26.25 59.1 33.0 52.0 33.35 53.55 34.85 53.2 43.0 51.1 43.85 42.7 L44.8 45.5 46.05 45.0 Q58.55 39.25 56.0 25.8 L55.3 20.7 55.35 20.65 58.1 24.25 Q66.95 15.8 62.65 4.2 L62.55 3.95 53.55 -4.25 53.5 -4.4 55.15 -4.2 61.4 -0.25 59.1 -8.0 58.8 -8.6 59.2 -8.35 Q63.05 -8.85 60.3 -15.65 L59.8 -16.95 M48.6 -20.0 L48.75 -19.8 48.2 -19.8 48.6 -20.0 M42.25 -16.75 L39.2 -8.55 39.2 -8.45 38.75 -3.55 44.45 8.3 44.5 8.35 45.65 8.85 44.3 8.75 44.2 8.75 Q41.5 9.5 39.95 11.2 L40.6 9.0 Q36.4 -3.6 39.9 -17.6 L42.25 -16.75 M44.55 16.0 L45.75 16.1 Q42.55 16.75 40.05 19.6 38.75 21.0 39.25 20.95 L43.45 22.6 43.35 22.75 30.9 25.35 37.25 20.15 37.95 17.85 38.0 18.75 38.25 20.4 44.55 16.0 M-17.5 -56.95 L-11.5 -57.5 -8.2 -52.85 -11.05 -55.05 Q-14.4 -56.9 -17.5 -56.95 M5.85 -37.95 L14.05 -41.75 13.15 -37.5 28.95 -36.55 22.0 -32.95 34.35 -26.5 35.95 -29.75 36.1 -29.75 36.1 -29.4 36.15 -29.0 36.3 -29.1 36.9 -24.7 36.7 -24.75 36.95 -24.6 Q36.7 -23.45 36.85 -22.45 L35.3 -24.85 5.85 -37.95 M-13.3 -44.7 Q-9.35 -40.4 -5.0 -38.6 L-10.2 -38.9 -14.75 -31.75 -14.6 -31.55 -25.15 -28.35 -26.9 -26.4 -26.8 -23.6 -34.05 -16.95 -34.95 -9.5 -38.5 -7.15 -37.95 -5.2 -43.4 -8.4 -38.5 -7.7 -34.45 -15.95 -44.4 -18.75 -45.65 -20.35 -45.75 -20.6 -46.05 -21.15 -45.6 -20.7 -32.3 -30.6 -32.25 -30.65 -32.3 -30.65 -32.45 -30.9 Q-33.45 -33.2 -31.9 -31.6 L-30.95 -31.1 Q-9.5 -26.85 -14.1 -44.05 L-14.25 -44.45 -13.6 -45.0 -13.3 -44.7 M13.8 30.4 L9.05 31.95 8.8 32.05 8.9 32.1 Q11.35 32.1 13.1 35.35 14.85 38.55 14.85 43.1 L14.3 44.2 14.05 43.7 Q12.0 31.7 0.85 33.25 0.4 33.25 0.0 33.6 -11.05 27.3 -20.6 35.8 L-21.0 36.3 Q-22.3 37.95 -24.0 37.6 L-23.05 36.5 -14.15 30.85 -16.45 28.7 -25.6 30.4 -19.45 27.6 Q-20.4 25.95 -21.55 24.65 -4.0 31.85 13.8 30.4 M33.55 36.25 Q27.6 29.85 20.1 29.6 L29.85 26.25 27.7 29.3 33.55 36.25 M-56.8 -5.4 L-56.45 -5.7 Q-56.35 -5.15 -56.65 -5.3 L-56.8 -5.4 M-44.95 -20.15 L-45.15 -20.3 -44.95 -20.15 M-34.9 5.3 L-23.9 22.5 -42.05 20.95 -43.0 21.15 -44.0 21.05 Q-42.4 20.3 -40.75 19.85 L-29.85 17.9 Q-32.95 11.1 -40.4 10.75 L-34.8 10.75 -34.2 11.0 -34.7 10.6 -34.9 5.3 M-43.1 10.8 L-42.4 10.8 -43.1 10.85 -43.1 10.8" fill="#333333" fill-rule="evenodd" stroke="none"/>
    <path d="M39.2 -8.55 L39.2 -8.45 M-45.15 -20.3 L-44.95 -20.15" fill="none" stroke="#000000" stroke-linecap="round" stroke-linejoin="round" stroke-width="0.05"/>
  </g>
</svg>
