<?xml version="1.0" encoding="UTF-8" standalone="no"?>
<svg xmlns:xlink="http://www.w3.org/1999/xlink" height="169.9px" width="179.85px" xmlns="http://www.w3.org/2000/svg">
  <g transform="matrix(1.0, 0.0, 0.0, 1.0, 90.15, 86.15)">
    <path d="M61.85 -36.6 L61.7 -36.65 61.9 -36.75 61.85 -36.6" fill="#000000" fill-rule="evenodd" stroke="none"/>
    <path d="M-51.2 47.6 L-47.95 54.1 -43.35 53.55 -36.3 61.3 -32.8 62.1 -24.45 58.85 -21.25 60.05 -23.5 63.9 -21.1 61.8 Q-8.35 53.0 1.85 66.4 L7.0 64.3 9.9 60.45 23.25 65.95 31.9 63.9 31.15 58.0 33.85 54.25 53.3 52.4 51.05 51.65 54.45 48.35 Q56.8 38.1 67.9 35.05 L71.25 21.9 69.1 19.55 74.25 6.45 72.9 3.15 73.7 -0.7 71.65 1.35 71.3 -10.5 68.55 -8.15 67.2 -20.9 67.5 -21.15 67.25 -21.45 Q67.25 -22.4 67.5 -22.35 71.7 -23.3 64.4 -25.6 L64.4 -25.65 Q62.5 -30.55 61.5 -35.4 L61.85 -36.6 61.9 -36.75 61.7 -36.65 Q62.4 -41.7 60.05 -45.0 58.25 -54.35 53.5 -59.3 46.8 -66.35 34.15 -64.7 L24.15 -71.35 22.85 -71.5 2.6 -69.15 2.5 -69.2 -8.45 -75.55 Q-29.8 -69.65 -49.1 -58.95 -68.75 -48.1 -72.05 -26.75 L-72.05 -26.7 Q-77.65 -26.7 -73.4 -24.25 L-72.7 -23.9 -71.75 -21.8 -74.45 -17.65 -78.4 -8.1 -70.5 -7.35 Q-66.35 -5.85 -67.15 -1.0 -67.75 2.75 -70.4 5.5 L-69.5 8.85 -69.95 10.8 -71.6 14.5 -77.55 22.45 -71.1 21.3 -70.55 26.3 -64.85 28.85 -62.6 35.85 -58.35 38.85 -57.3 40.0 -61.1 42.15 -53.2 44.55 Q-51.9 45.75 -51.2 47.6 M68.15 -51.75 L71.65 -40.4 72.3 -35.6 Q82.0 -27.4 85.55 -15.6 L84.2 -7.4 87.55 -0.9 87.75 10.5 87.6 10.65 61.55 60.1 61.4 60.2 60.95 60.6 60.65 60.85 Q42.15 69.9 22.9 75.35 1.65 81.35 -16.85 74.8 -23.6 72.45 -30.65 74.15 L-71.15 49.8 -72.55 47.75 -81.0 35.7 -80.95 34.35 -87.65 12.45 -84.55 -29.3 -82.55 -33.9 Q-83.0 -36.35 -82.95 -38.6 L-82.7 -39.9 -82.65 -40.2 -82.2 -42.4 -82.05 -42.55 -72.15 -53.65 -68.0 -53.6 -60.15 -64.7 Q-60.15 -66.15 -58.95 -67.15 -57.8 -68.2 -56.1 -68.2 L-13.0 -79.05 -15.1 -79.6 Q5.55 -88.75 23.35 -74.9 L24.5 -77.7 44.25 -71.7 35.75 -68.75 38.0 -69.1 Q58.5 -69.75 68.15 -51.75" fill="#cccccc" fill-rule="evenodd" stroke="none"/>
    <path d="M60.05 -45.0 L50.25 -56.1 53.5 -59.3 Q44.85 -55.2 36.85 -60.35 L34.6 -61.95 23.15 -63.2 18.3 -67.75 2.6 -68.85 2.6 -69.15 22.85 -71.5 24.05 -71.1 24.15 -71.35 34.15 -64.7 Q46.8 -66.35 53.5 -59.3 58.25 -54.35 60.05 -45.0 M2.35 -68.75 Q2.05 -67.95 1.5 -67.65 -10.0 -62.5 -16.45 -68.95 L-16.5 -68.95 -29.65 -63.1 -39.4 -63.9 -36.6 -61.15 -55.25 -51.85 -55.35 -47.95 -57.9 -48.05 -64.4 -44.0 -64.15 -36.2 -64.05 -32.5 -69.3 -28.5 -71.6 -26.75 -72.05 -26.75 Q-68.75 -48.1 -49.1 -58.95 -29.8 -69.65 -8.45 -75.55 L2.5 -69.2 2.35 -68.75 M64.35 -25.6 L60.7 -32.5 61.5 -35.4 Q62.5 -30.55 64.4 -25.65 L64.35 -25.6 M59.3 65.05 L58.5 65.65 Q54.65 68.7 50.5 71.2 41.95 75.9 31.85 76.45 10.05 77.05 -10.95 83.35 L-14.35 82.85 -16.0 82.65 -18.1 82.35 Q-33.55 79.85 -44.75 69.65 L-47.15 69.55 Q-53.3 68.85 -58.0 66.4 -62.4 63.2 -66.25 59.45 -69.35 55.4 -71.15 49.8 L-30.65 74.15 Q-23.6 72.45 -16.85 74.8 1.65 81.35 22.9 75.35 42.15 69.9 60.65 60.85 L60.85 60.95 59.3 65.05 M-79.1 43.3 Q-81.0 40.05 -81.0 35.7 L-72.55 47.75 -79.1 43.3 M-70.5 -7.35 L-78.4 -8.1 -74.45 -17.65 -70.5 -7.35 M-71.6 14.5 L-73.2 18.2 -71.1 21.3 -77.55 22.45 -71.6 14.5 M61.55 60.1 L87.6 10.65 87.7 10.7 Q79.65 30.65 72.4 51.05 69.7 58.6 61.6 60.15 L61.55 60.1" fill="#666666" fill-rule="evenodd" stroke="none"/>
    <path d="M2.6 -68.85 L18.3 -67.75 23.15 -63.2 34.6 -61.95 36.85 -60.35 Q44.85 -55.2 53.5 -59.3 L50.25 -56.1 60.05 -45.0 Q62.4 -41.7 61.7 -36.65 L61.85 -36.6 61.5 -35.4 60.7 -32.5 64.35 -25.6 64.4 -25.6 Q71.7 -23.3 67.5 -22.35 67.25 -22.4 67.25 -21.45 L67.2 -20.9 68.55 -8.15 71.3 -10.5 71.65 1.35 73.7 -0.7 72.9 3.15 74.25 6.45 69.1 19.55 71.25 21.9 67.9 35.05 Q56.8 38.1 54.45 48.35 L51.05 51.65 53.3 52.4 33.85 54.25 31.15 58.0 31.9 63.9 23.25 65.95 9.9 60.45 7.0 64.3 1.85 66.4 Q-8.35 53.0 -21.1 61.8 L-23.5 63.9 -21.25 60.05 -24.45 58.85 -32.8 62.1 -36.3 61.3 -43.35 53.55 -47.95 54.1 -51.2 47.6 -48.9 51.2 -44.3 51.7 -34.8 60.6 Q-28.7 57.95 -22.45 58.7 -21.25 58.35 -20.1 59.0 -9.15 51.05 -2.15 61.2 -1.1 62.75 0.4 64.0 L5.8 63.3 Q10.7 56.6 18.9 61.8 20.8 63.05 22.4 64.8 L29.25 62.7 32.4 53.25 48.8 50.95 52.6 48.3 Q53.3 37.05 65.4 34.35 L64.85 31.55 68.8 26.3 69.7 23.2 67.75 20.9 68.95 9.75 72.55 6.25 69.5 2.9 68.6 -6.25 65.5 -8.4 Q61.95 -14.45 65.35 -20.75 65.9 -21.75 66.1 -22.9 L62.1 -24.6 58.25 -32.25 60.35 -35.3 Q61.25 -44.8 52.2 -50.3 L51.1 -53.8 47.5 -55.4 Q39.25 -53.95 33.35 -59.5 L30.7 -61.45 Q22.65 -59.7 17.5 -66.3 L3.75 -66.85 Q-6.35 -57.95 -16.15 -68.45 L-19.9 -67.4 Q-25.05 -59.7 -34.35 -61.2 -41.65 -52.05 -53.85 -51.35 L-55.15 -46.3 -60.5 -45.75 Q-61.85 -40.55 -64.15 -36.2 L-64.4 -44.0 -57.9 -48.05 -55.35 -47.95 -55.25 -51.85 -36.6 -61.15 -39.4 -63.9 -29.65 -63.1 -16.5 -68.95 -16.3 -68.75 -16.45 -68.95 Q-10.0 -62.5 1.5 -67.65 2.05 -67.95 2.35 -68.75 L2.6 -68.85 M-56.1 -68.2 Q-36.6 -83.95 -8.3 -85.95 8.6 -87.3 23.35 -78.7 35.95 -80.85 45.75 -72.45 66.55 -71.6 68.15 -51.75 58.5 -69.75 38.0 -69.1 L35.75 -68.75 44.25 -71.7 24.5 -77.7 23.35 -74.9 Q5.55 -88.75 -15.1 -79.6 L-13.0 -79.05 -56.1 -68.2 M71.65 -40.4 L73.2 -37.3 Q86.0 -29.25 85.55 -15.6 82.0 -27.4 72.3 -35.6 L71.65 -40.4 M87.55 -0.9 Q94.5 19.1 79.1 34.4 L79.25 36.8 Q79.4 57.3 59.3 65.05 L60.85 60.95 60.95 60.6 61.4 60.2 61.6 60.15 Q69.7 58.6 72.4 51.05 79.65 30.65 87.7 10.7 L87.75 10.5 87.55 -0.9 M50.5 71.2 Q42.1 76.2 32.35 78.7 13.0 83.9 -6.4 83.75 L-10.95 83.35 Q10.05 77.05 31.85 76.45 41.95 75.9 50.5 71.2 M-18.1 82.35 Q-34.1 80.05 -48.55 72.3 -53.55 69.65 -58.0 66.4 -53.3 68.85 -47.15 69.55 L-44.75 69.65 Q-33.55 79.85 -18.1 82.35 M-66.25 59.45 Q-73.55 52.35 -79.1 43.3 L-72.55 47.75 -71.15 49.8 Q-69.35 55.4 -66.25 59.45 M-80.95 34.35 L-89.6 14.85 Q-91.95 -7.9 -84.55 -29.3 L-87.65 12.45 -80.95 34.35 M-82.05 -42.55 L-81.85 -43.25 Q-78.9 -53.45 -68.95 -55.15 L-60.15 -64.7 -68.0 -53.6 -72.15 -53.65 -82.05 -42.55 M-72.05 -26.7 L-71.6 -26.75 -69.3 -28.5 -72.65 -18.45 -71.35 -10.9 Q-68.25 -9.2 -67.3 -5.8 -65.25 1.6 -69.5 8.85 L-70.4 5.5 Q-67.75 2.75 -67.15 -1.0 -66.35 -5.85 -70.5 -7.35 L-74.45 -17.65 -71.75 -21.8 -72.7 -23.9 -73.4 -24.25 Q-77.65 -26.7 -72.05 -26.7 M-69.95 10.8 Q-70.75 14.05 -71.1 17.35 L-69.35 20.2 -69.35 24.6 -63.1 28.7 -63.1 33.6 -58.35 38.85 -62.6 35.85 -64.85 28.85 -70.55 26.3 -71.1 21.3 -73.2 18.2 -71.6 14.5 -69.95 10.8 M-57.3 40.0 L-53.2 44.55 -61.1 42.15 -57.3 40.0" fill="#333333" fill-rule="evenodd" stroke="none"/>
  </g>
</svg>
