<?xml version="1.0" encoding="UTF-8" standalone="no"?>
<svg xmlns:xlink="http://www.w3.org/1999/xlink" height="261.2px" width="351.0px" xmlns="http://www.w3.org/2000/svg">
  <g transform="matrix(1.0, 0.0, 0.0, 1.0, 175.5, 130.6)">
    <path d="M-162.6 -115.8 L-162.2 -116.2 Q-158.15 -120.05 -153.0 -121.6 -149.65 -122.6 -145.8 -122.6 L146.35 -122.6 151.55 -122.1 Q155.35 -121.3 158.65 -119.35 L162.7 -116.2 Q169.5 -109.8 169.5 -100.75 L169.5 99.75 Q169.5 108.8 162.7 115.2 159.55 118.2 155.75 119.8 151.45 121.6 146.35 121.6 L-145.8 121.6 -149.9 121.3 Q-156.9 120.2 -162.2 115.2 L-162.25 115.15 -165.1 111.95 Q-168.95 106.6 -168.95 99.75 L-168.95 -100.75 Q-168.95 -109.55 -162.6 -115.8 M165.6 -95.45 L164.5 -95.9 164.5 96.8 Q165.55 96.75 166.6 95.85 167.75 70.55 167.6 45.0 L167.6 43.3 167.5 43.3 167.5 36.4 167.45 3.9 167.4 -47.3 167.35 -51.6 167.4 -55.85 167.35 -55.85 167.35 -90.95 167.1 -91.7 Q166.6 -93.7 165.6 -95.45 M79.9 -118.55 Q74.8 -120.4 69.3 -120.35 18.8 -120.1 -31.7 -120.25 L-76.5 -120.4 -95.4 -120.4 -122.0 -120.45 Q-134.05 -121.05 -146.25 -119.8 L-147.75 -119.65 -148.95 -119.35 -149.75 -118.95 -150.0 -118.55 79.9 -118.55 M-165.9 -55.85 L-166.05 -55.85 -166.1 -47.3 -166.2 3.9 -166.25 36.4 -166.25 43.3 -166.35 43.3 -166.4 45.0 Q-166.7 72.3 -166.25 99.55 L-164.0 100.7 -164.0 -62.7 -165.0 -62.45 -165.75 -61.7 -165.9 -55.85" fill="#45bf52" fill-rule="evenodd" stroke="none"/>
    <path d="M-168.7 -123.35 L-168.5 -123.6 Q-163.45 -128.65 -156.85 -130.05 L-151.5 -130.6 151.5 -130.6 153.1 -130.55 Q160.6 -130.1 166.4 -125.45 L168.45 -123.6 Q175.5 -116.55 175.5 -106.6 L175.5 106.6 Q175.5 116.55 168.45 123.55 166.45 125.6 164.2 127.05 L155.75 119.8 Q159.55 118.2 162.7 115.2 169.5 108.8 169.5 99.75 L169.5 -100.75 Q169.5 -109.8 162.7 -116.2 L158.65 -119.35 Q155.35 -121.3 151.55 -122.1 L146.35 -122.6 -145.8 -122.6 Q-149.65 -122.6 -153.0 -121.6 -158.15 -120.05 -162.2 -116.2 L-162.6 -115.8 -168.7 -123.35" fill="#369c41" fill-rule="evenodd" stroke="none"/>
    <path d="M-168.7 -123.35 L-162.6 -115.8 Q-168.95 -109.55 -168.95 -100.75 L-168.95 99.75 Q-168.95 106.6 -165.1 111.95 L-162.25 115.15 -162.2 115.2 Q-156.9 120.2 -149.9 121.3 L-145.8 121.6 146.35 121.6 Q151.45 121.6 155.75 119.8 L164.2 127.05 Q158.6 130.6 151.5 130.6 L-151.5 130.6 Q-161.45 130.6 -168.5 123.55 L-169.55 122.45 Q-175.5 115.75 -175.5 106.6 L-175.5 -106.6 Q-175.5 -116.4 -168.7 -123.35" fill="#2d8235" fill-rule="evenodd" stroke="none"/>
    <path d="M79.9 -118.55 L-150.0 -118.55 -149.75 -118.95 -148.95 -119.35 -147.75 -119.65 -146.25 -119.8 Q-134.05 -121.05 -122.0 -120.45 L-95.4 -120.4 -76.5 -120.4 -31.7 -120.25 Q18.8 -120.1 69.3 -120.35 74.8 -120.4 79.9 -118.55 M165.6 -95.45 Q166.6 -93.7 167.1 -91.7 L167.35 -90.95 167.35 -55.85 167.4 -55.85 167.35 -51.6 167.4 -47.3 167.45 3.9 167.5 36.4 167.5 43.3 167.6 43.3 167.6 45.0 Q167.75 70.55 166.6 95.85 165.55 96.75 164.5 96.8 L164.5 -95.9 165.6 -95.45 M-165.9 -55.85 L-165.75 -61.7 -165.0 -62.45 -164.0 -62.7 -164.0 100.7 -166.25 99.55 Q-166.7 72.3 -166.4 45.0 L-166.35 43.3 -166.25 43.3 -166.25 36.4 -166.2 3.9 -166.1 -47.3 -166.05 -55.85 -165.9 -55.85" fill="#2fea00" fill-rule="evenodd" stroke="none"/>
  </g>
</svg>
