<?xml version="1.0" encoding="UTF-8" standalone="no"?>
<svg xmlns:xlink="http://www.w3.org/1999/xlink" height="15.15px" width="167.3px" xmlns="http://www.w3.org/2000/svg">
  <g transform="matrix(1.0, 0.0, 0.0, 1.0, -0.35, -8.7)">
    <path d="M167.65 18.8 Q167.65 21.0 165.9 22.4 164.05 23.8 161.1 23.8 155.75 23.8 154.5 19.3 L158.7 18.55 Q159.2 20.35 161.4 20.35 163.1 20.35 163.1 19.45 163.1 18.95 162.7 18.7 162.3 18.45 161.3 18.25 157.45 17.5 156.35 16.3 155.25 15.05 155.25 13.45 155.25 11.4 156.85 10.0 158.4 8.7 161.4 8.7 165.85 8.65 167.25 12.3 L163.6 13.4 Q162.95 11.95 161.25 11.95 159.7 11.95 159.7 12.85 159.7 13.2 160.1 13.45 L161.35 13.9 165.05 14.85 Q166.15 15.25 166.9 16.35 167.65 17.35 167.65 18.8 M144.55 16.45 L144.6 23.6 141.0 23.55 141.0 8.9 145.2 8.9 148.65 14.3 150.15 17.1 Q149.85 15.25 149.85 13.3 L149.85 8.95 153.5 8.9 153.5 23.6 149.85 23.6 145.8 17.1 144.2 14.05 144.55 16.45 M137.15 10.65 Q139.1 12.65 139.1 16.1 139.05 19.5 137.15 21.65 135.15 23.8 132.1 23.8 129.0 23.75 127.05 21.75 125.1 19.65 125.1 16.2 125.1 12.9 127.0 10.85 128.85 8.7 132.2 8.7 135.2 8.65 137.15 10.65 M133.7 19.45 Q134.2 18.45 134.25 15.85 134.2 11.95 132.2 12.0 129.95 11.95 129.95 16.3 129.95 20.4 132.1 20.45 133.2 20.4 133.7 19.45 M123.2 23.55 L118.75 23.55 118.75 8.85 123.2 8.9 123.2 23.55 M102.5 14.85 Q102.5 13.3 102.0 12.65 101.35 12.0 100.6 12.0 98.5 12.0 98.5 16.35 98.5 18.7 99.05 19.6 99.6 20.4 100.6 20.45 102.35 20.4 102.6 18.0 L106.7 18.25 Q106.4 20.9 104.75 22.4 103.0 23.8 100.5 23.85 97.5 23.85 95.7 21.85 93.8 19.85 93.85 16.35 93.85 12.9 95.6 10.8 97.35 8.7 100.45 8.7 103.35 8.7 104.95 10.35 106.5 11.9 106.7 14.6 L102.5 14.85 M107.05 12.4 L107.05 8.9 117.4 8.9 117.4 12.4 114.35 12.4 114.4 23.6 110.15 23.55 110.1 12.4 107.05 12.4 M88.55 17.5 L88.55 8.85 92.1 8.9 92.1 18.6 Q92.1 21.35 90.45 22.55 88.75 23.8 86.15 23.8 83.4 23.75 81.75 22.6 80.05 21.45 80.05 18.85 L80.1 8.9 84.65 8.9 84.65 18.3 Q84.65 19.3 85.05 19.8 85.5 20.35 86.5 20.35 L87.85 20.0 88.45 19.2 88.55 17.5 M76.6 10.1 Q78.0 11.25 78.0 13.25 78.0 14.5 77.5 15.45 76.95 16.45 75.4 17.2 L78.1 23.55 73.1 23.6 70.95 17.95 69.5 17.95 69.5 23.55 65.05 23.55 65.05 8.9 72.65 8.9 Q75.2 8.9 76.6 10.1 M63.75 12.35 L60.75 12.35 60.75 23.55 56.5 23.55 56.5 12.35 53.4 12.35 53.45 8.85 63.75 8.85 63.75 12.35 M73.35 13.45 Q73.3 12.05 71.6 12.05 L69.5 12.05 69.5 14.8 71.45 14.85 72.85 14.45 Q73.3 14.1 73.35 13.45 M46.7 8.7 Q51.15 8.65 52.55 12.3 L48.9 13.4 Q48.3 11.95 46.55 11.95 45.05 11.95 45.05 12.85 45.0 13.25 45.4 13.5 45.7 13.7 46.65 13.9 L50.35 14.9 Q51.45 15.3 52.2 16.35 52.95 17.4 53.0 18.8 53.0 21.0 51.2 22.4 49.35 23.8 46.4 23.8 41.05 23.8 39.8 19.3 L44.05 18.55 Q44.5 20.35 46.7 20.35 48.4 20.35 48.45 19.45 48.4 18.95 48.0 18.7 L46.6 18.25 Q42.75 17.5 41.65 16.3 40.55 15.1 40.6 13.5 40.55 11.4 42.15 10.0 43.7 8.7 46.7 8.7 M38.8 8.85 L38.8 23.55 35.15 23.55 31.1 17.05 29.55 14.0 29.9 16.45 29.9 23.55 26.3 23.5 26.3 8.85 30.5 8.85 33.95 14.3 35.45 17.05 Q35.15 15.2 35.15 13.25 L35.15 8.9 38.8 8.85 M23.7 23.55 L19.25 23.55 19.25 8.85 23.7 8.9 23.7 23.55 M8.9 14.65 Q10.25 16.15 10.15 18.2 10.0 20.25 8.5 21.6 7.0 22.95 4.95 22.8 2.9 22.7 1.55 21.15 0.2 19.65 0.35 17.6 0.45 15.55 1.95 14.2 3.5 12.9 5.55 13.05 7.6 13.15 8.9 14.65" fill="#ffffff" fill-rule="evenodd" stroke="none"/>
  </g>
</svg>
