<?xml version="1.0" encoding="UTF-8" standalone="no"?>
<svg xmlns:xlink="http://www.w3.org/1999/xlink" height="43.55px" width="131.5px" xmlns="http://www.w3.org/2000/svg">
  <g transform="matrix(1.0, 0.0, 0.0, 1.0, -2.55, -6.4)">
    <path d="M128.65 39.45 Q127.9 38.3 126.65 38.3 L125.45 38.3 125.45 46.3 126.65 46.25 Q127.75 46.25 128.55 45.15 129.3 44.05 129.3 42.2 129.3 40.6 128.65 39.45 M132.05 47.6 Q130.05 49.6 126.9 49.65 L121.0 49.6 121.0 34.95 126.65 34.95 Q130.3 34.95 132.2 37.2 134.0 39.35 134.05 42.2 134.0 45.5 132.05 47.6 M114.45 12.35 Q114.45 13.6 113.95 14.55 113.35 15.55 111.85 16.3 L114.5 22.65 109.55 22.7 107.4 17.05 105.95 17.1 105.95 22.7 101.5 22.65 101.5 8.0 109.1 8.0 Q111.6 8.0 113.0 9.2 114.45 10.4 114.45 12.35 M105.95 11.2 L105.9 13.95 107.85 13.95 109.25 13.6 Q109.7 13.2 109.75 12.55 109.75 11.15 108.05 11.15 L105.95 11.2 M120.4 18.85 L120.4 22.75 116.35 22.75 116.35 18.85 120.4 18.85 M98.9 8.05 L98.9 22.7 94.7 22.7 94.7 12.25 92.0 22.7 89.15 22.7 86.35 12.2 86.35 22.7 83.0 22.7 83.0 8.0 88.85 8.0 91.0 15.85 93.0 8.05 98.9 8.05 M96.95 34.8 Q100.0 34.8 101.95 36.75 103.9 38.8 103.9 42.2 103.85 45.65 101.95 47.8 99.95 49.9 96.9 49.95 93.8 49.9 91.85 47.85 89.85 45.8 89.9 42.35 89.9 39.0 91.8 36.95 93.65 34.8 96.95 34.8 M89.15 35.0 L85.3 49.65 81.5 49.65 79.45 41.6 77.55 49.65 73.55 49.65 69.75 35.35 65.4 43.45 65.4 49.65 61.05 49.65 61.05 43.4 56.1 35.0 61.0 35.0 63.6 39.8 66.05 34.95 69.65 35.0 73.85 35.0 75.9 43.45 77.95 35.0 81.5 34.95 83.6 43.45 85.7 34.95 89.15 35.0 M96.95 38.1 Q94.75 38.05 94.75 42.45 94.75 46.55 96.9 46.6 98.0 46.55 98.5 45.6 99.0 44.55 99.05 41.95 99.0 38.1 96.95 38.1 M117.2 36.75 Q119.1 38.75 119.1 42.2 119.1 45.65 117.15 47.8 115.15 49.9 112.1 49.9 109.0 49.85 107.1 47.85 105.1 45.8 105.1 42.35 105.1 39.0 107.0 36.95 108.9 34.8 112.2 34.8 115.25 34.8 117.2 36.75 M112.2 38.1 Q110.0 38.05 110.0 42.45 109.95 46.5 112.15 46.55 113.2 46.5 113.75 45.55 114.25 44.55 114.25 41.95 114.25 38.05 112.2 38.1 M75.7 11.4 L69.05 11.4 69.1 13.5 74.4 13.5 74.4 16.75 69.1 16.75 69.1 19.15 75.7 19.2 75.7 22.7 64.65 22.65 64.65 8.0 75.7 8.0 75.7 11.4 M63.1 22.7 L52.85 22.7 52.85 8.0 57.3 8.05 57.3 19.1 63.15 19.1 63.1 22.7 M51.5 11.55 L48.45 11.55 48.5 22.7 44.25 22.7 44.2 11.55 41.15 11.55 41.15 11.5 38.15 11.5 38.15 22.7 33.9 22.65 33.9 11.5 30.85 11.5 30.85 8.0 41.2 8.0 41.2 8.05 51.5 8.0 51.5 11.55 M50.45 34.95 L50.45 46.0 56.25 46.05 56.25 49.65 46.0 49.6 46.0 34.95 50.45 34.95 M26.15 8.05 L30.7 22.7 26.15 22.75 25.25 19.85 21.35 19.8 20.5 22.7 16.9 22.7 21.4 8.0 26.15 8.05 M22.15 16.6 L24.55 16.65 23.35 12.4 22.15 16.6 M15.85 11.9 Q15.8 13.0 15.2 13.9 L13.4 15.1 Q16.25 15.75 16.25 18.45 16.25 20.1 15.2 21.4 14.15 22.7 10.9 22.7 L3.95 22.65 3.95 8.0 11.4 8.0 Q13.7 8.0 14.75 9.2 15.8 10.35 15.85 11.9 M8.1 11.15 L8.1 13.6 10.2 13.65 Q11.0 13.65 11.25 13.25 L11.55 12.4 Q11.6 11.15 10.1 11.2 L8.1 11.15 M8.05 19.4 L10.25 19.45 Q11.05 19.45 11.5 19.05 11.85 18.65 11.85 18.15 11.9 17.65 11.45 17.2 11.1 16.8 10.15 16.8 L8.1 16.75 8.05 19.4 M16.4 34.95 L16.4 49.65 11.85 49.65 11.85 43.95 8.4 43.95 8.4 49.65 3.95 49.6 3.95 34.95 8.4 34.95 8.45 40.4 11.9 40.4 11.85 35.0 16.4 34.95 M18.25 42.35 Q18.2 39.0 20.1 36.95 22.0 34.8 25.3 34.8 28.35 34.8 30.3 36.75 32.2 38.75 32.2 42.2 32.2 45.65 30.25 47.8 28.25 49.9 25.2 49.95 22.1 49.9 20.2 47.85 18.2 45.8 18.25 42.35 M38.6 35.0 L38.65 46.05 44.45 46.05 44.4 49.65 34.15 49.65 34.15 34.95 38.6 35.0 M27.35 41.95 Q27.35 38.05 25.3 38.1 23.1 38.05 23.1 42.45 23.05 46.5 25.25 46.55 26.3 46.5 26.85 45.55 27.35 44.55 27.35 41.95" fill="#d25b2f" fill-rule="evenodd" stroke="none"/>
    <path d="M130.8 35.6 Q132.6 37.75 132.65 40.6 132.6 43.9 130.65 46.0 128.65 48.0 125.5 48.05 L119.6 48.0 119.6 33.35 125.25 33.35 Q128.9 33.35 130.8 35.6 M124.05 36.7 L124.05 44.7 125.25 44.65 Q126.35 44.65 127.15 43.55 127.9 42.45 127.9 40.6 127.9 39.0 127.25 37.85 126.5 36.7 125.25 36.7 L124.05 36.7 M113.05 10.75 Q113.05 12.0 112.55 12.95 111.95 13.95 110.45 14.7 L113.1 21.05 108.15 21.1 106.0 15.45 104.55 15.5 104.55 21.1 100.1 21.05 100.1 6.4 107.7 6.4 Q110.2 6.4 111.6 7.6 113.05 8.8 113.05 10.75 M104.5 12.35 L106.45 12.35 107.85 12.0 Q108.3 11.6 108.35 10.95 108.35 9.55 106.65 9.55 L104.55 9.6 104.5 12.35 M119.0 17.25 L119.0 21.15 114.95 21.15 114.95 17.25 119.0 17.25 M97.5 6.45 L97.5 21.1 93.3 21.1 93.3 10.65 90.6 21.1 87.75 21.1 84.95 10.6 84.95 21.1 81.6 21.1 81.6 6.4 87.45 6.4 89.6 14.25 91.6 6.45 97.5 6.45 M100.55 35.15 Q102.5 37.2 102.5 40.6 102.45 44.05 100.55 46.2 98.55 48.3 95.5 48.35 92.4 48.3 90.45 46.25 88.45 44.2 88.5 40.75 88.5 37.4 90.4 35.35 92.25 33.2 95.55 33.2 98.6 33.2 100.55 35.15 M87.75 33.4 L83.9 48.05 80.1 48.05 78.05 40.0 76.15 48.05 72.15 48.05 68.35 33.75 64.0 41.85 64.0 48.05 59.65 48.05 59.65 41.8 54.7 33.4 59.6 33.4 62.2 38.2 64.65 33.35 68.25 33.4 72.45 33.4 74.5 41.85 76.55 33.4 80.1 33.35 82.2 41.85 84.3 33.35 87.75 33.4 M97.1 44.0 Q97.6 42.95 97.65 40.35 97.6 36.5 95.55 36.5 93.35 36.45 93.35 40.85 93.35 44.95 95.5 45.0 96.6 44.95 97.1 44.0 M110.8 33.2 Q113.85 33.2 115.8 35.15 117.7 37.15 117.7 40.6 117.7 44.05 115.75 46.2 113.75 48.3 110.7 48.3 107.6 48.25 105.7 46.25 103.7 44.2 103.7 40.75 103.7 37.4 105.6 35.35 107.5 33.2 110.8 33.2 M110.75 44.95 Q111.8 44.9 112.35 43.95 112.85 42.95 112.85 40.35 112.85 36.45 110.8 36.5 108.6 36.45 108.6 40.85 108.55 44.9 110.75 44.95 M74.3 9.8 L67.65 9.8 67.7 11.9 73.0 11.9 73.0 15.15 67.7 15.15 67.7 17.55 74.3 17.6 74.3 21.1 63.25 21.05 63.25 6.4 74.3 6.4 74.3 9.8 M61.7 21.1 L51.45 21.1 51.45 6.4 55.9 6.45 55.9 17.5 61.75 17.5 61.7 21.1 M50.1 9.95 L47.05 9.95 47.1 21.1 42.85 21.1 42.8 9.95 39.75 9.95 39.75 9.9 36.75 9.9 36.75 21.1 32.5 21.05 32.5 9.9 29.45 9.9 29.45 6.4 39.8 6.4 39.8 6.45 50.1 6.4 50.1 9.95 M49.05 33.35 L49.05 44.4 54.85 44.45 54.85 48.05 44.6 48.0 44.6 33.35 49.05 33.35 M43.0 48.05 L32.75 48.05 32.75 33.35 37.2 33.4 37.25 44.45 43.05 44.45 43.0 48.05 M23.85 18.25 L19.95 18.2 19.1 21.1 15.5 21.1 20.0 6.4 24.75 6.45 29.3 21.1 24.75 21.15 23.85 18.25 M23.15 15.05 L21.95 10.8 20.75 15.0 23.15 15.05 M13.8 12.3 Q13.15 13.1 12.0 13.5 14.85 14.15 14.85 16.85 14.85 18.5 13.8 19.8 12.75 21.1 9.5 21.1 L2.55 21.05 2.55 6.4 10.0 6.4 Q12.3 6.4 13.35 7.6 14.4 8.75 14.45 10.3 14.4 11.4 13.8 12.3 M6.7 12.0 L8.8 12.05 Q9.6 12.05 9.85 11.65 L10.15 10.8 Q10.2 9.55 8.7 9.6 L6.7 9.55 6.7 12.0 M8.85 17.85 Q9.65 17.85 10.1 17.45 10.45 17.05 10.45 16.55 10.5 16.05 10.05 15.6 9.7 15.2 8.75 15.2 L6.7 15.15 6.65 17.8 8.85 17.85 M15.0 33.35 L15.0 48.05 10.45 48.05 10.45 42.35 7.0 42.35 7.0 48.05 2.55 48.0 2.55 33.35 7.0 33.35 7.05 38.8 10.5 38.8 10.45 33.4 15.0 33.35 M16.85 40.75 Q16.8 37.4 18.7 35.35 20.6 33.2 23.9 33.2 26.95 33.2 28.9 35.15 30.8 37.15 30.8 40.6 30.8 44.05 28.85 46.2 26.85 48.3 23.8 48.35 20.7 48.3 18.8 46.25 16.8 44.2 16.85 40.75 M25.95 40.35 Q25.95 36.45 23.9 36.5 21.7 36.45 21.7 40.85 21.65 44.9 23.85 44.95 24.9 44.9 25.45 43.95 25.95 42.95 25.95 40.35" fill="#f9f309" fill-rule="evenodd" stroke="none"/>
  </g>
</svg>
