<?xml version="1.0" encoding="UTF-8" standalone="no"?>
<svg xmlns:xlink="http://www.w3.org/1999/xlink" height="41.95px" width="130.1px" xmlns="http://www.w3.org/2000/svg">
  <g transform="matrix(1.0, 0.0, 0.0, 1.0, -2.55, -6.4)">
    <path d="M124.05 36.7 L124.05 44.7 125.25 44.65 Q126.35 44.65 127.15 43.55 127.9 42.45 127.9 40.6 127.9 39.0 127.25 37.85 126.5 36.7 125.25 36.7 L124.05 36.7 M130.8 35.6 Q132.6 37.75 132.65 40.6 132.6 43.9 130.65 46.0 128.65 48.0 125.5 48.05 L119.6 48.0 119.6 33.35 125.25 33.35 Q128.9 33.35 130.8 35.6 M113.05 10.75 Q113.05 12.0 112.55 12.95 111.95 13.95 110.45 14.7 L113.1 21.05 108.15 21.1 106.0 15.45 104.55 15.5 104.55 21.1 100.1 21.05 100.1 6.4 107.7 6.4 Q110.2 6.4 111.6 7.6 113.05 8.8 113.05 10.75 M104.5 12.35 L106.45 12.35 107.85 12.0 Q108.3 11.6 108.35 10.95 108.35 9.55 106.65 9.55 L104.55 9.6 104.5 12.35 M119.0 17.25 L119.0 21.15 114.95 21.15 114.95 17.25 119.0 17.25 M97.5 6.45 L97.5 21.1 93.3 21.1 93.3 10.65 90.6 21.1 87.75 21.1 84.95 10.6 84.95 21.1 81.6 21.1 81.6 6.4 87.45 6.4 89.6 14.25 91.6 6.45 97.5 6.45 M100.55 35.15 Q102.5 37.2 102.5 40.6 102.45 44.05 100.55 46.2 98.55 48.3 95.5 48.35 92.4 48.3 90.45 46.25 88.45 44.2 88.5 40.75 88.5 37.4 90.4 35.35 92.25 33.2 95.55 33.2 98.6 33.2 100.55 35.15 M87.75 33.4 L83.9 48.05 80.1 48.05 78.05 40.0 76.15 48.05 72.15 48.05 68.35 33.75 64.0 41.85 64.0 48.05 59.65 48.05 59.65 41.8 54.7 33.4 59.6 33.4 62.2 38.2 64.65 33.35 68.25 33.4 72.45 33.4 74.5 41.85 76.55 33.4 80.1 33.35 82.2 41.85 84.3 33.35 87.75 33.4 M97.1 44.0 Q97.6 42.95 97.65 40.35 97.6 36.5 95.55 36.5 93.35 36.45 93.35 40.85 93.35 44.95 95.5 45.0 96.6 44.95 97.1 44.0 M110.8 33.2 Q113.85 33.2 115.8 35.15 117.7 37.15 117.7 40.6 117.7 44.05 115.75 46.2 113.75 48.3 110.7 48.3 107.6 48.25 105.7 46.25 103.7 44.2 103.7 40.75 103.7 37.4 105.6 35.35 107.5 33.2 110.8 33.2 M110.75 44.95 Q111.8 44.9 112.35 43.95 112.85 42.95 112.85 40.35 112.85 36.45 110.8 36.5 108.6 36.45 108.6 40.85 108.55 44.9 110.75 44.95 M74.3 9.8 L67.65 9.8 67.7 11.9 73.0 11.9 73.0 15.15 67.7 15.15 67.7 17.55 74.3 17.6 74.3 21.1 63.25 21.05 63.25 6.4 74.3 6.4 74.3 9.8 M61.7 21.1 L51.45 21.1 51.45 6.4 55.9 6.45 55.9 17.5 61.75 17.5 61.7 21.1 M47.05 9.95 L47.1 21.1 42.85 21.1 42.8 9.95 39.75 9.95 39.75 9.9 36.75 9.9 36.75 21.1 32.5 21.05 32.5 9.9 29.45 9.9 29.45 6.4 39.8 6.4 39.8 6.45 50.1 6.4 50.1 9.95 47.05 9.95 M49.05 33.35 L49.05 44.4 54.85 44.45 54.85 48.05 44.6 48.0 44.6 33.35 49.05 33.35 M43.0 48.05 L32.75 48.05 32.75 33.35 37.2 33.4 37.25 44.45 43.05 44.45 43.0 48.05 M23.85 18.25 L19.95 18.2 19.1 21.1 15.5 21.1 20.0 6.4 24.75 6.45 29.3 21.1 24.75 21.15 23.85 18.25 M23.15 15.05 L21.95 10.8 20.75 15.0 23.15 15.05 M13.8 12.3 Q13.15 13.1 12.0 13.5 14.85 14.15 14.85 16.85 14.85 18.5 13.8 19.8 12.75 21.1 9.5 21.1 L2.55 21.05 2.55 6.4 10.0 6.4 Q12.3 6.4 13.35 7.6 14.4 8.75 14.45 10.3 14.4 11.4 13.8 12.3 M9.85 11.65 L10.15 10.8 Q10.2 9.55 8.7 9.6 L6.7 9.55 6.7 12.0 8.8 12.05 Q9.6 12.05 9.85 11.65 M8.85 17.85 Q9.65 17.85 10.1 17.45 10.45 17.05 10.45 16.55 10.5 16.05 10.05 15.6 9.7 15.2 8.75 15.2 L6.7 15.15 6.65 17.8 8.85 17.85 M15.0 33.35 L15.0 48.05 10.45 48.05 10.45 42.35 7.0 42.35 7.0 48.05 2.55 48.0 2.55 33.35 7.0 33.35 7.05 38.8 10.5 38.8 10.45 33.4 15.0 33.35 M16.85 40.75 Q16.8 37.4 18.7 35.35 20.6 33.2 23.9 33.2 26.95 33.2 28.9 35.15 30.8 37.15 30.8 40.6 30.8 44.05 28.85 46.2 26.85 48.3 23.8 48.35 20.7 48.3 18.8 46.25 16.8 44.2 16.85 40.75 M25.95 40.35 Q25.95 36.45 23.9 36.5 21.7 36.45 21.7 40.85 21.65 44.9 23.85 44.95 24.9 44.9 25.45 43.95 25.95 42.95 25.95 40.35" fill="#ffffff" fill-rule="evenodd" stroke="none"/>
  </g>
</svg>
