<?xml version="1.0" encoding="UTF-8" standalone="no"?>
<svg xmlns:xlink="http://www.w3.org/1999/xlink" height="15.15px" width="205.35px" xmlns="http://www.w3.org/2000/svg">
  <g transform="matrix(1.0, 0.0, 0.0, 1.0, -0.4, -11.35)">
    <path d="M205.75 26.25 L202.05 26.3 198.0 19.75 196.45 16.7 196.8 19.15 196.8 26.25 193.2 26.25 193.2 11.55 197.4 11.55 200.9 17.0 202.35 19.8 Q202.05 17.9 202.05 15.95 L202.05 11.6 205.75 11.6 205.75 26.25 M191.7 11.55 L187.85 26.25 184.05 26.25 182.0 18.2 180.1 26.25 176.15 26.25 172.25 11.55 176.45 11.6 178.45 20.0 180.5 11.6 184.05 11.55 186.2 20.05 188.25 11.55 191.7 11.55 M171.5 18.8 Q171.45 22.25 169.55 24.4 167.55 26.5 164.5 26.5 161.4 26.45 159.45 24.45 157.45 22.4 157.5 18.95 157.5 15.6 159.4 13.55 161.25 11.4 164.55 11.4 167.6 11.4 169.55 13.35 171.5 15.35 171.5 18.8 M164.55 14.7 Q162.35 14.65 162.35 19.05 162.35 23.1 164.5 23.15 165.6 23.1 166.1 22.15 166.6 21.15 166.65 18.55 166.6 14.65 164.55 14.7 M146.55 15.05 L146.6 11.55 156.9 11.55 156.9 15.05 153.9 15.05 153.9 26.2 149.65 26.2 149.65 15.05 146.55 15.05 M136.95 11.55 L140.45 17.0 Q141.45 18.55 141.9 19.75 141.6 17.9 141.6 15.95 L141.6 11.6 145.3 11.55 145.3 26.25 141.6 26.25 137.55 19.75 136.0 16.7 136.35 19.15 136.35 26.25 132.75 26.2 132.75 11.55 136.95 11.55 M123.95 14.65 Q121.75 14.6 121.75 19.0 121.7 23.05 123.9 23.1 124.95 23.05 125.5 22.1 126.0 21.1 126.0 18.5 126.0 14.6 123.95 14.65 M130.85 18.75 Q130.85 22.2 128.9 24.35 126.9 26.45 123.9 26.5 120.75 26.45 118.85 24.4 116.85 22.35 116.9 18.9 116.85 15.55 118.75 13.5 120.65 11.35 123.95 11.35 127.0 11.35 128.95 13.3 130.85 15.3 130.85 18.75 M108.65 23.15 Q109.75 23.1 110.25 22.15 110.75 21.1 110.8 18.5 110.75 14.65 108.75 14.65 106.5 14.6 106.5 19.0 106.5 23.1 108.65 23.15 M101.65 18.9 Q101.65 15.6 103.55 13.5 105.4 11.35 108.75 11.35 111.75 11.35 113.7 13.35 115.65 15.35 115.65 18.75 115.6 22.2 113.7 24.35 111.7 26.45 108.65 26.5 105.55 26.45 103.6 24.45 101.65 22.35 101.65 18.9 M82.2 15.05 L82.2 26.2 77.95 26.2 77.95 15.05 74.9 15.05 74.9 11.55 85.25 11.5 85.2 15.05 82.2 15.05 M98.05 15.05 L98.05 26.25 93.8 26.2 93.8 15.05 90.7 15.05 90.75 11.55 101.05 11.55 101.05 15.05 98.05 15.05 M66.3 11.55 L66.3 21.0 Q66.3 22.0 66.75 22.5 67.2 23.0 68.15 23.05 68.95 23.05 69.5 22.7 L70.1 21.85 70.25 20.15 70.2 11.55 73.75 11.55 73.75 21.3 Q73.75 24.05 72.1 25.25 70.4 26.5 67.85 26.5 65.05 26.45 63.4 25.3 61.7 24.15 61.75 21.55 L61.75 11.6 66.3 11.55 M43.8 17.45 L41.95 18.6 Q44.8 19.3 44.8 22.0 44.8 23.65 43.8 24.95 42.75 26.2 39.5 26.25 L32.55 26.2 32.55 11.55 39.95 11.55 Q42.25 11.5 43.35 12.75 44.4 13.9 44.45 15.4 44.4 16.5 43.8 17.45 M46.0 18.85 Q46.0 15.55 47.9 13.5 49.8 11.35 53.1 11.35 56.15 11.3 58.1 13.3 60.0 15.3 60.0 18.75 59.95 22.15 58.05 24.3 56.05 26.45 53.0 26.45 49.9 26.4 48.0 24.4 46.0 22.3 46.0 18.85 M54.65 22.1 Q55.15 21.1 55.15 18.5 55.15 14.6 53.1 14.65 50.85 14.6 50.85 18.95 50.85 23.05 53.0 23.1 54.1 23.05 54.65 22.1 M26.6 11.55 L31.15 26.2 26.6 26.25 25.7 23.35 21.8 23.3 20.9 26.2 17.3 26.2 21.85 11.5 26.6 11.55 M25.0 20.15 L23.75 15.9 22.6 20.1 25.0 20.15 M39.85 16.8 L40.15 15.95 Q40.15 14.7 38.65 14.7 L36.65 14.7 36.65 17.15 38.75 17.15 39.85 16.8 M36.65 22.95 L38.85 23.0 Q39.65 22.95 40.1 22.55 L40.45 21.7 40.05 20.7 Q39.7 20.35 38.7 20.35 L36.65 20.3 36.65 22.95 M8.5 23.6 Q7.0 24.95 5.0 24.8 2.95 24.65 1.6 23.15 0.25 21.65 0.4 19.6 0.5 17.55 2.0 16.2 3.55 14.9 5.6 15.05 7.6 15.15 8.95 16.65 10.3 18.15 10.15 20.2 10.05 22.25 8.5 23.6" fill="#ffffff" fill-rule="evenodd" stroke="none"/>
  </g>
</svg>
