<?xml version="1.0" encoding="UTF-8" standalone="no"?>
<svg xmlns:xlink="http://www.w3.org/1999/xlink" height="55.35px" width="189.75px" xmlns="http://www.w3.org/2000/svg">
  <g transform="matrix(1.0, 0.0, 0.0, 1.0, -0.35, -10.0)">
    <path d="M190.1 10.2 L190.1 24.9 186.45 24.9 182.4 18.4 180.85 15.35 181.2 17.8 181.2 24.9 177.6 24.9 177.6 10.2 181.8 10.2 185.3 15.65 Q186.3 17.2 186.75 18.45 186.45 16.55 186.45 14.6 L186.45 10.25 190.1 10.2 M176.15 10.2 L172.3 24.9 168.5 24.85 166.45 16.85 164.55 24.9 160.55 24.9 156.65 10.2 160.85 10.25 162.9 18.65 164.95 10.25 168.5 10.2 170.6 18.7 172.7 10.2 176.15 10.2 M172.55 35.85 L172.55 34.5 173.6 34.45 173.85 32.4 175.3 32.25 175.25 34.45 176.8 34.45 176.85 35.8 175.3 35.8 175.3 39.65 Q175.3 40.4 175.55 40.7 175.75 41.0 176.5 41.0 L176.95 40.9 177.0 42.3 175.75 42.5 174.55 42.2 173.8 41.4 Q173.5 40.9 173.55 39.9 L173.55 35.8 172.55 35.85 M178.6 35.05 Q179.3 34.3 180.85 34.3 183.3 34.3 183.85 36.15 L182.3 36.45 Q182.05 35.55 180.9 35.6 179.45 35.55 179.45 36.4 179.45 37.05 180.6 37.3 L182.3 37.65 Q184.3 38.05 184.3 39.95 184.3 41.25 183.2 41.85 182.2 42.5 180.85 42.5 179.6 42.45 178.7 42.0 177.75 41.55 177.5 40.55 L179.15 40.2 Q179.55 41.15 180.85 41.2 182.5 41.2 182.45 40.2 L182.25 39.7 Q181.95 39.45 181.6 39.4 L180.2 39.15 Q177.8 38.65 177.85 36.75 177.85 35.7 178.6 35.05 M166.3 34.5 L166.35 36.3 Q167.15 34.3 168.7 34.3 169.7 34.25 170.45 34.95 171.2 35.6 171.25 37.25 L171.2 42.35 169.4 42.35 169.4 37.45 169.1 36.25 Q168.7 35.85 168.2 35.8 167.5 35.8 167.0 36.45 166.5 37.1 166.45 38.3 L166.45 42.35 164.65 42.35 164.65 34.5 166.3 34.5 M162.55 33.55 L160.75 33.55 160.75 31.7 162.55 31.7 162.55 33.55 M162.55 42.4 L160.75 42.4 160.75 34.5 162.55 34.5 162.55 42.4 M149.0 10.0 Q152.05 10.0 154.0 11.95 155.9 13.95 155.9 17.4 155.9 20.85 154.0 23.0 152.0 25.1 148.95 25.1 145.85 25.05 143.9 23.05 141.9 21.0 141.95 17.55 141.95 14.2 143.85 12.15 145.7 10.0 149.0 10.0 M149.0 13.3 Q146.8 13.25 146.8 17.65 146.75 21.75 148.95 21.75 150.05 21.7 150.55 20.75 151.05 19.75 151.1 17.15 151.05 13.25 149.0 13.3 M129.7 10.2 L129.7 24.9 126.05 24.9 122.0 18.4 120.45 15.35 120.8 17.8 120.8 24.9 117.2 24.9 117.2 10.2 121.4 10.2 124.9 15.65 Q125.9 17.2 126.35 18.45 126.05 16.55 126.05 14.6 L126.05 10.25 129.7 10.2 M138.25 13.7 L138.3 24.85 134.05 24.85 134.0 13.7 130.95 13.7 130.95 10.2 141.3 10.2 141.3 13.7 138.25 13.7 M141.1 35.45 Q142.1 36.5 142.1 38.4 142.1 40.2 141.1 41.4 139.95 42.5 138.35 42.5 136.6 42.5 135.75 41.25 134.75 39.95 134.75 38.4 134.75 36.6 135.85 35.45 136.8 34.3 138.45 34.3 140.05 34.3 141.1 35.45 M137.15 36.45 Q136.7 37.15 136.65 38.4 136.65 39.7 137.15 40.35 137.6 41.05 138.4 41.05 140.2 41.05 140.2 38.35 140.25 37.15 139.8 36.45 139.35 35.75 138.45 35.75 137.55 35.75 137.15 36.45 M121.8 35.85 Q121.05 35.85 120.55 36.45 120.05 37.1 120.05 38.35 L120.05 42.4 118.25 42.35 118.2 34.5 119.85 34.5 119.9 36.3 Q120.7 34.3 122.3 34.3 123.25 34.25 124.05 34.95 124.8 35.6 124.8 37.25 L124.8 42.4 123.0 42.35 123.0 37.45 122.65 36.25 Q122.25 35.85 121.8 35.85 M128.85 36.0 Q128.35 36.55 128.25 37.5 L131.8 37.5 Q131.8 36.65 131.3 36.05 130.8 35.5 130.05 35.55 129.35 35.55 128.85 36.0 M130.15 34.3 Q131.85 34.3 132.8 35.45 133.65 36.55 133.65 38.4 L133.65 38.6 128.25 38.65 Q128.25 39.4 128.4 39.9 128.55 40.4 129.0 40.75 L130.15 41.1 Q131.45 41.05 131.9 39.85 L133.55 40.05 Q133.15 41.15 132.3 41.8 131.4 42.45 130.05 42.5 128.4 42.5 127.4 41.4 126.35 40.25 126.4 38.4 126.4 36.6 127.4 35.45 128.35 34.25 130.15 34.3 M155.5 34.3 Q157.05 34.3 158.1 35.45 159.15 36.5 159.15 38.35 159.1 40.2 158.1 41.4 157.0 42.5 155.4 42.5 153.6 42.45 152.75 41.25 151.8 39.95 151.8 38.35 151.8 36.6 152.85 35.45 153.8 34.3 155.5 34.3 M154.15 36.45 Q153.7 37.15 153.7 38.4 153.7 39.65 154.15 40.3 154.6 41.05 155.45 41.05 157.2 41.05 157.25 38.35 157.25 37.15 156.8 36.4 156.4 35.75 155.5 35.75 154.6 35.7 154.15 36.45 M145.4 34.5 L145.45 35.9 Q146.25 34.3 147.9 34.3 149.15 34.3 149.95 35.45 150.75 36.6 150.75 38.35 150.7 40.05 150.0 41.25 149.2 42.5 147.75 42.55 146.2 42.5 145.6 41.25 L145.55 45.0 143.7 45.05 143.7 34.5 145.4 34.5 M147.3 35.75 Q146.5 35.75 146.1 36.4 145.55 36.95 145.6 38.0 L145.6 39.1 Q145.55 39.95 146.1 40.55 146.55 41.1 147.15 41.1 148.0 41.1 148.45 40.35 148.85 39.6 148.8 38.5 148.85 37.25 148.45 36.55 148.05 35.7 147.3 35.75 M108.4 10.0 Q111.45 10.0 113.4 12.0 115.3 14.0 115.3 17.4 115.3 20.85 113.35 23.0 111.35 25.1 108.3 25.15 105.2 25.1 103.3 23.1 101.3 21.0 101.3 17.55 101.3 14.25 103.2 12.15 105.1 10.0 108.4 10.0 M108.4 13.3 Q106.2 13.25 106.2 17.65 106.15 21.75 108.35 21.8 109.4 21.75 109.95 20.8 110.45 19.75 110.45 17.15 110.45 13.3 108.4 13.3 M98.15 12.0 Q100.1 14.0 100.1 17.4 100.05 20.85 98.15 23.0 96.15 25.15 93.1 25.15 90.0 25.1 88.05 23.1 86.05 21.0 86.1 17.55 86.1 14.25 88.0 12.15 89.85 10.0 93.15 10.05 96.2 10.0 98.15 12.0 M82.5 13.75 L82.5 24.9 78.25 24.9 78.2 13.75 75.15 13.75 75.2 10.25 85.5 10.2 85.5 13.7 82.5 13.75 M94.7 20.8 Q95.2 19.75 95.25 17.15 95.2 13.3 93.15 13.35 90.95 13.3 90.95 17.65 90.9 21.75 93.1 21.8 94.2 21.75 94.7 20.8 M96.95 37.0 Q96.95 38.8 97.4 39.9 97.85 41.0 99.05 41.0 99.8 41.0 100.35 40.55 L101.05 39.1 101.2 36.65 Q101.2 35.35 100.8 34.15 100.3 32.95 99.1 32.95 96.9 32.95 96.95 37.0 M99.1 31.55 Q100.45 31.55 101.4 32.25 102.3 33.0 102.75 34.25 L103.2 36.65 Q103.2 38.55 102.75 39.75 102.35 40.95 101.4 41.75 100.45 42.5 99.05 42.5 97.1 42.5 96.05 41.0 94.95 39.5 95.0 37.15 94.95 34.6 96.1 33.1 97.2 31.55 99.1 31.55 M89.95 31.5 L91.25 31.45 91.25 40.75 94.25 40.8 94.25 42.35 86.1 42.35 86.1 40.8 89.3 40.8 89.3 34.05 Q87.7 35.45 86.35 35.95 L86.4 34.0 88.05 33.3 89.05 32.5 89.95 31.5 M112.6 36.6 Q112.55 38.5 112.15 39.75 111.7 40.9 110.75 41.7 109.8 42.5 108.4 42.45 106.45 42.5 105.4 41.0 104.3 39.45 104.4 37.1 104.35 34.55 105.5 33.1 106.55 31.55 108.5 31.5 109.8 31.55 110.75 32.2 111.65 32.95 112.1 34.25 112.6 35.5 112.6 36.6 M108.45 32.9 Q106.25 32.9 106.3 37.0 106.3 38.8 106.75 39.85 107.2 41.0 108.4 40.95 L109.75 40.5 110.4 39.1 110.55 36.65 Q110.55 35.3 110.15 34.1 109.65 32.9 108.45 32.9 M117.1 51.85 L120.15 51.85 120.15 62.5 117.25 62.55 117.25 61.5 Q116.6 62.7 115.1 62.7 113.7 62.65 112.9 61.65 112.05 60.5 112.05 58.5 112.05 56.55 112.85 55.45 113.7 54.3 115.15 54.35 116.35 54.35 117.1 55.25 L117.1 51.85 M115.4 57.0 L115.2 58.7 Q115.2 60.65 116.2 60.65 L116.85 60.35 117.1 59.4 117.1 57.45 Q117.05 56.35 116.15 56.35 115.55 56.35 115.4 57.0 M107.4 54.5 L107.45 57.25 106.85 57.15 Q105.3 57.15 105.35 58.85 L105.35 62.5 102.3 62.55 102.3 54.55 104.9 54.6 104.9 56.25 Q105.35 54.4 107.0 54.4 L107.4 54.5 M99.9 55.55 Q101.05 56.7 101.05 58.75 L101.05 59.2 95.75 59.25 96.0 60.3 Q96.25 60.7 97.0 60.7 98.0 60.7 98.2 59.75 L101.1 59.9 Q100.8 61.05 99.75 61.95 98.7 62.7 96.9 62.7 94.9 62.75 93.7 61.55 92.45 60.45 92.5 58.75 92.5 56.9 93.7 55.7 94.85 54.45 96.8 54.45 98.7 54.45 99.9 55.55 M96.85 56.3 Q95.75 56.3 95.75 57.65 L97.95 57.65 97.7 56.55 96.85 56.3 M86.4 55.7 Q87.0 54.4 88.6 54.45 90.05 54.4 90.85 55.5 91.65 56.6 91.65 58.5 91.65 60.4 90.8 61.6 90.0 62.65 88.65 62.7 87.25 62.65 86.65 61.65 L86.65 65.05 83.5 65.05 83.5 54.55 86.4 54.55 86.4 55.7 M88.2 56.85 Q87.9 56.4 87.5 56.35 87.15 56.35 86.9 56.65 86.65 56.8 86.65 57.3 L86.65 59.6 Q86.65 60.15 86.8 60.5 L87.45 60.7 Q88.05 60.7 88.25 60.2 L88.45 58.65 88.2 56.85 M138.55 54.6 L135.5 63.2 134.5 64.75 Q133.75 65.3 132.35 65.35 L130.8 65.2 130.85 63.0 132.0 63.1 Q133.3 63.05 133.3 62.5 L133.15 61.95 130.3 54.6 133.6 54.6 134.95 58.8 136.3 54.6 138.55 54.6 M128.8 55.2 Q129.3 55.6 129.4 56.1 L129.55 57.8 129.55 60.95 Q129.55 61.85 129.8 62.5 L126.85 62.55 126.8 61.45 Q125.9 62.65 124.2 62.65 122.8 62.65 122.1 62.0 121.35 61.3 121.4 60.35 121.4 59.1 122.55 58.25 123.65 57.5 126.65 57.35 L126.6 57.15 126.4 56.45 125.65 56.3 Q124.5 56.35 124.45 57.2 L121.6 56.9 Q122.2 54.45 125.75 54.4 L127.5 54.6 Q128.3 54.8 128.8 55.2 M125.4 60.85 L126.3 60.55 Q126.6 60.2 126.6 59.15 L126.6 58.8 Q124.6 59.05 124.6 60.1 124.6 60.85 125.4 60.85 M66.6 13.7 L66.6 24.9 62.35 24.9 62.35 13.7 59.3 13.7 59.3 10.2 69.6 10.2 69.6 13.7 66.6 13.7 M58.05 10.25 L58.05 24.9 53.6 24.9 53.6 10.2 58.05 10.25 M45.55 10.0 Q50.0 10.0 51.45 13.65 L47.75 14.7 Q47.15 13.25 45.4 13.25 43.9 13.25 43.9 14.2 43.85 14.6 44.25 14.8 L45.5 15.25 49.2 16.2 Q50.35 16.6 51.1 17.65 51.8 18.7 51.85 20.1 51.85 22.3 50.05 23.7 48.2 25.15 45.25 25.15 39.9 25.15 38.7 20.6 L42.9 19.9 Q43.35 21.7 45.6 21.7 47.25 21.7 47.3 20.8 L46.9 20.0 45.45 19.6 Q41.65 18.85 40.5 17.65 39.4 16.4 39.45 14.8 39.4 12.75 41.0 11.35 42.6 10.0 45.55 10.0 M54.3 34.3 Q56.0 34.3 56.95 35.45 57.8 36.55 57.8 38.4 L57.8 38.6 52.4 38.65 Q52.4 39.45 52.55 39.9 52.7 40.4 53.15 40.75 53.6 41.1 54.3 41.1 55.6 41.1 56.1 39.85 L57.7 40.05 Q57.35 41.15 56.45 41.8 55.55 42.5 54.2 42.5 52.55 42.5 51.6 41.4 50.55 40.25 50.55 38.45 50.55 36.6 51.6 35.5 52.55 34.3 54.3 34.3 M53.0 36.0 Q52.5 36.55 52.4 37.5 L56.0 37.5 Q55.95 36.65 55.45 36.05 55.0 35.5 54.25 35.55 53.55 35.55 53.0 36.0 M60.25 34.95 Q61.05 34.3 62.8 34.3 L64.3 34.45 65.25 35.0 65.8 35.75 65.95 37.2 65.95 40.75 Q65.9 41.55 66.2 42.35 L64.5 42.35 Q64.25 41.65 64.25 40.75 63.5 42.5 61.55 42.5 60.35 42.5 59.65 41.85 58.95 41.15 58.9 40.1 58.9 37.4 63.75 37.4 L64.25 37.4 64.25 36.8 Q64.25 35.55 62.55 35.55 60.95 35.55 60.75 36.8 L59.2 36.55 Q59.35 35.6 60.25 34.95 M41.5 35.7 Q40.75 35.7 40.3 36.35 39.8 37.05 39.85 38.4 39.8 41.05 41.5 41.1 42.1 41.05 42.65 40.55 43.15 39.9 43.15 39.1 L43.15 37.7 Q43.15 36.75 42.7 36.2 42.25 35.7 41.5 35.7 M43.15 35.55 L43.15 31.7 44.95 31.7 44.95 42.4 43.3 42.4 43.3 40.8 Q42.6 42.55 40.95 42.55 39.5 42.5 38.75 41.3 37.9 40.1 37.95 38.3 37.95 36.65 38.75 35.4 39.55 34.15 41.05 34.2 42.55 34.15 43.15 35.55 M72.15 36.15 Q70.8 36.1 70.35 37.05 69.9 37.9 69.95 38.7 L69.9 42.35 68.1 42.35 68.1 34.5 69.7 34.5 69.7 36.35 Q70.0 35.2 70.65 34.75 71.25 34.25 71.9 34.25 L72.15 34.25 72.15 36.15 M75.05 34.5 L75.1 36.3 Q75.9 34.3 77.45 34.3 78.45 34.25 79.2 34.95 79.95 35.6 80.0 37.25 L79.95 42.4 78.15 42.35 78.15 37.45 77.85 36.25 Q77.45 35.85 76.95 35.85 76.25 35.85 75.7 36.45 75.2 37.1 75.2 38.35 L75.2 42.4 73.4 42.4 73.4 34.5 75.05 34.5 M64.25 38.35 Q60.75 38.35 60.8 40.0 60.8 40.5 61.15 40.9 L62.2 41.15 Q63.2 41.15 63.7 40.55 64.25 39.9 64.25 39.05 L64.25 38.35 M37.6 10.25 L37.6 24.9 33.15 24.9 33.15 10.2 37.6 10.25 M25.4 19.65 L28.1 10.2 31.8 10.25 27.25 24.9 22.65 24.9 17.95 10.25 22.65 10.2 24.95 18.25 25.4 19.65 M8.9 15.1 Q10.25 16.6 10.15 18.65 10.0 20.7 8.5 22.05 7.0 23.4 4.95 23.25 2.9 23.15 1.55 21.6 0.25 20.1 0.35 18.05 0.5 16.0 2.0 14.65 3.5 13.35 5.55 13.5 7.6 13.6 8.9 15.1 M33.4 35.8 Q32.7 35.8 32.15 36.45 31.65 37.1 31.65 38.3 L31.65 42.4 29.85 42.35 29.8 34.5 31.45 34.5 31.5 36.3 Q32.3 34.3 33.9 34.3 34.85 34.25 35.65 34.95 36.4 35.6 36.4 37.25 L36.4 42.35 34.6 42.35 34.6 37.45 34.25 36.25 Q33.85 35.85 33.4 35.8 M20.95 36.55 Q21.1 35.6 22.0 34.95 22.8 34.3 24.5 34.35 L26.0 34.45 27.0 35.05 27.55 35.75 27.7 37.25 27.7 40.8 Q27.65 41.55 27.95 42.35 L26.25 42.35 Q26.0 41.65 26.0 40.8 25.25 42.55 23.25 42.5 22.1 42.5 21.4 41.85 20.7 41.15 20.65 40.1 20.65 37.4 25.5 37.4 L26.0 37.4 25.95 36.8 Q26.0 35.55 24.3 35.55 22.65 35.55 22.45 36.8 L20.95 36.55 M26.0 39.05 L25.95 38.35 Q22.5 38.35 22.5 40.0 22.5 40.5 22.85 40.9 L23.95 41.15 Q24.95 41.15 25.45 40.55 25.95 39.9 26.0 39.05 M40.3 54.65 Q41.15 54.8 41.6 55.2 42.1 55.6 42.2 56.1 L42.35 57.8 42.35 60.95 Q42.35 61.85 42.6 62.55 L39.65 62.55 39.6 61.45 Q38.7 62.7 37.0 62.7 35.6 62.7 34.9 62.0 34.15 61.3 34.2 60.35 34.2 59.1 35.35 58.3 36.45 57.55 39.45 57.4 L39.4 57.2 Q39.4 56.65 39.2 56.45 L38.45 56.3 Q37.3 56.35 37.25 57.2 L34.4 56.9 Q35.0 54.45 38.55 54.4 L40.3 54.65 M31.9 54.8 L32.7 55.6 Q33.0 56.05 33.0 57.15 L33.0 62.55 29.95 62.55 29.95 57.6 29.8 56.9 Q29.7 56.65 29.3 56.7 28.45 56.7 28.45 57.95 L28.45 62.55 25.45 62.55 25.45 57.55 Q25.45 56.6 24.7 56.65 23.95 56.65 23.95 57.6 L23.95 62.55 20.95 62.55 20.9 54.6 23.75 54.6 23.75 55.7 Q24.5 54.45 25.95 54.45 27.45 54.4 28.15 55.7 28.95 54.4 30.55 54.45 31.3 54.4 31.9 54.8 M39.1 60.55 L39.4 59.2 39.4 58.85 Q37.4 59.05 37.4 60.1 37.4 60.85 38.2 60.85 L39.1 60.55 M74.95 56.0 L75.7 54.6 78.3 54.6 76.0 58.2 78.85 62.55 75.35 62.55 73.9 60.0 72.25 62.55 69.75 62.55 72.55 58.35 70.1 54.6 73.55 54.55 74.35 56.05 74.5 56.3 74.65 56.55 74.8 56.2 74.95 56.0 M66.05 55.05 L65.75 54.35 Q65.45 54.05 65.0 54.05 63.85 54.05 63.6 55.25 L61.05 54.85 Q61.4 53.35 62.5 52.55 63.65 51.75 65.2 51.75 66.95 51.75 68.05 52.55 69.05 53.35 69.05 54.75 69.05 55.55 68.6 56.15 L67.45 57.0 Q69.4 57.6 69.4 59.5 69.4 61.0 68.25 61.85 67.05 62.7 65.2 62.7 61.5 62.75 60.65 59.35 L63.45 58.95 Q63.7 60.4 65.0 60.4 L65.95 60.1 Q66.3 59.8 66.3 59.35 L66.1 58.7 65.65 58.35 64.9 58.25 63.6 58.2 63.6 56.0 64.7 56.0 65.85 55.7 66.05 55.05 M55.75 59.7 L55.75 62.55 52.8 62.55 52.8 59.7 55.75 59.7 M48.3 56.0 L49.05 54.6 51.65 54.6 49.35 58.25 52.2 62.55 48.7 62.55 47.25 60.0 45.65 62.55 43.1 62.55 45.9 58.35 43.45 54.6 46.9 54.6 47.75 56.1 47.85 56.35 48.0 56.55 48.15 56.2 48.3 56.0" fill="#ffffff" fill-rule="evenodd" stroke="none"/>
  </g>
</svg>
