<?xml version="1.0" encoding="UTF-8" standalone="no"?>
<svg xmlns:xlink="http://www.w3.org/1999/xlink" height="37.2px" width="154.8px" xmlns="http://www.w3.org/2000/svg">
  <g transform="matrix(1.0, 0.0, 0.0, 1.0, 78.0, 14.9)">
    <path d="M16.1 -14.65 L18.35 -5.95 20.55 -14.65 26.35 -14.65 26.35 -0.35 22.75 -0.35 22.75 -11.25 19.95 -0.35 16.65 -0.35 13.9 -11.25 13.9 -0.35 10.25 -0.35 10.25 -14.65 16.1 -14.65 M7.1 -13.0 Q7.75 -12.05 7.75 -10.7 7.75 -9.5 7.25 -8.65 6.75 -7.75 5.85 -7.25 5.25 -6.9 4.3 -6.65 L5.45 -6.15 6.15 -5.4 6.75 -4.5 8.9 -0.35 3.9 -0.35 1.55 -4.7 0.75 -5.85 -0.35 -6.15 -0.75 -6.15 -0.75 -0.35 -5.2 -0.35 -5.2 -14.65 2.2 -14.65 5.35 -14.3 Q6.4 -13.95 7.1 -13.0 M1.2 -11.8 L-0.75 -11.8 -0.75 -8.85 1.15 -8.85 2.3 -9.05 Q2.75 -9.15 3.05 -9.5 L3.3 -10.35 Q3.3 -11.05 2.85 -11.4 L1.2 -11.8 M38.0 -14.65 L43.35 -0.35 38.75 -0.35 38.0 -2.7 33.0 -2.7 32.3 -0.35 27.8 -0.35 33.15 -14.65 38.0 -14.65 M37.1 -5.8 L35.5 -10.95 33.95 -5.8 37.1 -5.8 M49.2 -14.65 L49.2 -3.9 56.1 -3.9 56.1 -0.35 44.75 -0.35 44.75 -14.65 49.2 -14.65 M76.8 11.2 L76.65 17.5 75.65 17.5 75.5 11.2 76.8 11.2 M65.0 11.45 L65.0 13.35 67.3 13.35 67.3 14.3 65.0 14.3 65.0 17.25 65.05 18.05 65.2 18.6 65.55 18.95 66.25 19.05 66.8 19.0 67.2 18.85 67.3 18.85 67.3 19.85 66.6 20.0 65.95 20.05 Q64.95 20.05 64.45 19.5 63.9 18.95 63.9 17.75 L63.9 14.3 63.15 14.3 63.15 13.35 63.9 13.35 63.9 11.45 65.0 11.45 M69.35 15.05 Q69.35 15.45 69.6 15.65 L70.4 16.0 71.1 16.15 71.7 16.25 Q72.5 16.45 72.9 16.85 73.3 17.3 73.3 18.0 73.3 18.9 72.55 19.5 71.85 20.05 70.55 20.05 L69.2 19.9 68.2 19.5 68.2 18.25 68.25 18.25 69.4 18.9 70.65 19.15 71.75 18.9 72.2 18.15 71.95 17.55 Q71.75 17.35 71.1 17.25 L70.5 17.1 69.8 16.95 68.6 16.3 Q68.2 15.85 68.2 15.2 L68.4 14.45 68.9 13.8 Q69.25 13.5 69.75 13.35 L70.85 13.2 72.05 13.35 73.05 13.7 73.05 14.85 73.0 14.85 Q72.55 14.55 71.95 14.35 L70.8 14.15 69.75 14.35 Q69.35 14.6 69.35 15.05 M61.75 15.65 L61.75 19.9 60.65 19.9 60.65 16.15 60.6 15.35 60.4 14.7 60.0 14.35 59.25 14.2 58.35 14.45 Q57.85 14.65 57.4 15.0 L57.4 19.9 56.3 19.9 56.3 13.35 57.4 13.35 57.4 14.1 58.45 13.4 59.6 13.15 Q60.65 13.15 61.2 13.8 61.75 14.45 61.75 15.65 M75.55 18.65 L76.75 18.65 76.75 19.9 75.55 19.9 75.55 18.65 M54.15 12.25 L52.95 12.25 52.95 11.1 54.15 11.1 54.15 12.25 M50.15 16.65 Q50.15 15.35 49.65 14.75 49.15 14.1 48.25 14.1 47.35 14.1 46.85 14.75 46.35 15.35 46.35 16.65 46.35 17.85 46.85 18.5 47.35 19.15 48.25 19.15 49.1 19.15 49.65 18.5 50.15 17.85 50.15 16.65 M48.25 13.15 Q49.6 13.15 50.45 14.1 51.25 15.05 51.25 16.65 51.25 18.25 50.45 19.15 49.6 20.1 48.25 20.1 46.85 20.1 46.05 19.15 45.2 18.25 45.2 16.65 45.2 15.05 46.05 14.1 46.85 13.15 48.25 13.15 M41.15 14.2 L40.2 14.45 Q39.75 14.65 39.3 14.95 L39.3 18.7 40.1 18.95 40.85 19.05 Q41.8 19.05 42.3 18.4 42.8 17.8 42.8 16.6 42.8 15.4 42.4 14.8 42.0 14.2 41.15 14.2 M43.95 16.55 L43.7 18.0 43.05 19.1 Q42.7 19.55 42.15 19.8 L41.05 20.05 40.15 19.9 39.3 19.55 39.3 22.3 38.2 22.3 38.2 13.35 39.3 13.35 39.3 14.05 Q39.75 13.65 40.3 13.45 40.8 13.15 41.45 13.15 42.65 13.15 43.3 14.05 43.95 14.95 43.95 16.55 M54.1 13.35 L54.1 19.9 53.0 19.9 53.0 13.35 54.1 13.35 M21.5 11.2 L21.5 19.9 20.05 19.9 15.9 12.1 15.9 19.9 14.8 19.9 14.8 11.2 16.6 11.2 20.4 18.3 20.4 11.2 21.5 11.2 M26.4 14.1 Q25.5 14.1 25.0 14.6 24.45 15.1 24.4 15.9 L28.15 15.9 Q28.15 15.05 27.7 14.55 27.25 14.1 26.4 14.1 M29.2 16.75 L24.4 16.75 Q24.4 17.35 24.55 17.8 L25.05 18.55 25.8 18.95 26.7 19.1 28.05 18.85 29.05 18.3 29.1 18.3 29.1 19.5 27.95 19.9 26.75 20.05 Q25.1 20.05 24.2 19.15 23.25 18.3 23.25 16.65 23.25 15.05 24.15 14.1 25.0 13.15 26.45 13.15 27.8 13.15 28.5 13.95 29.2 14.7 29.2 16.15 L29.2 16.75 M36.45 16.65 Q36.45 18.25 35.65 19.15 34.8 20.1 33.45 20.1 32.05 20.1 31.25 19.15 30.4 18.25 30.4 16.65 30.4 15.05 31.25 14.1 32.05 13.15 33.45 13.15 34.8 13.15 35.65 14.1 36.45 15.05 36.45 16.65 M33.45 14.1 Q32.55 14.1 32.05 14.75 31.55 15.35 31.55 16.65 31.55 17.85 32.05 18.5 32.55 19.15 33.45 19.15 34.3 19.15 34.85 18.5 35.35 17.85 35.35 16.65 35.35 15.35 34.85 14.75 34.35 14.1 33.45 14.1 M5.6 11.0 Q7.2 11.0 7.9 12.15 8.65 13.25 8.65 15.55 8.65 17.9 7.9 19.0 7.15 20.1 5.6 20.1 4.05 20.1 3.35 18.95 2.6 17.85 2.6 15.55 2.6 13.2 3.35 12.1 4.05 11.0 5.6 11.0 M5.6 11.95 L4.7 12.2 Q4.35 12.4 4.15 12.9 L3.85 14.0 3.8 15.55 3.85 17.1 4.15 18.2 4.7 18.85 5.6 19.1 6.55 18.9 7.1 18.2 7.4 17.1 7.45 15.55 7.4 14.0 7.1 12.85 6.55 12.2 5.6 11.95 M0.25 19.0 Q-0.5 20.1 -2.05 20.1 -3.6 20.1 -4.3 18.95 -5.05 17.85 -5.05 15.55 -5.05 13.2 -4.3 12.1 -3.6 11.0 -2.05 11.0 -0.45 11.0 0.25 12.15 1.0 13.25 1.0 15.55 1.0 17.9 0.25 19.0 M-49.35 -5.1 Q-50.3 -4.15 -51.65 -4.15 -53.0 -4.15 -53.95 -5.1 -54.9 -6.05 -54.9 -7.4 -54.9 -8.75 -53.95 -9.7 -53.0 -10.65 -51.65 -10.65 -50.3 -10.65 -49.35 -9.7 -48.4 -8.75 -48.4 -7.4 -48.4 -6.05 -49.35 -5.1 M-24.8 -14.65 L-24.8 -0.35 -29.0 -0.35 -34.35 -8.2 -34.35 -0.35 -38.5 -0.35 -38.5 -14.65 -34.35 -14.65 -29.0 -6.75 -29.0 -14.65 -24.8 -14.65 M-22.45 -7.5 Q-22.45 -11.0 -20.5 -12.95 -18.55 -14.9 -15.05 -14.9 -11.45 -14.9 -9.55 -13.0 -7.6 -11.05 -7.6 -7.6 -7.6 -5.1 -8.45 -3.5 -9.3 -1.9 -10.9 -1.0 -12.5 -0.1 -14.85 -0.1 -17.3 -0.1 -18.9 -0.9 -20.45 -1.65 -21.45 -3.3 -22.45 -5.0 -22.45 -7.5 M-15.05 -11.55 Q-16.4 -11.55 -17.2 -10.6 -18.0 -9.65 -18.0 -7.5 -18.0 -5.3 -17.2 -4.35 -16.4 -3.4 -15.0 -3.4 -13.6 -3.4 -12.8 -4.35 -12.05 -5.25 -12.05 -7.65 -12.05 -9.7 -12.85 -10.6 -13.65 -11.55 -15.05 -11.55 M-2.05 11.95 L-2.95 12.2 -3.5 12.9 -3.8 14.0 -3.85 15.55 -3.8 17.1 -3.5 18.2 -2.95 18.85 -2.05 19.1 -1.1 18.9 Q-0.75 18.65 -0.55 18.2 L-0.25 17.1 -0.2 15.55 -0.25 14.0 -0.55 12.85 Q-0.75 12.4 -1.1 12.2 -1.45 11.95 -2.05 11.95 M-7.8 11.65 Q-7.0 12.3 -7.0 13.4 L-7.15 14.35 -7.5 15.15 -8.05 15.85 -8.8 16.65 -10.1 17.85 -11.35 18.9 -6.65 18.9 -6.65 19.9 -12.55 19.9 -12.55 18.7 -11.3 17.6 -10.15 16.55 -8.65 14.85 Q-8.2 14.2 -8.2 13.45 -8.2 12.8 -8.65 12.4 -9.1 12.0 -9.9 12.0 L-11.05 12.2 -12.3 12.75 -12.35 12.75 -12.35 11.55 -11.25 11.15 -9.9 11.0 Q-8.55 11.0 -7.8 11.65 M-19.45 16.65 Q-19.45 15.35 -19.95 14.75 -20.45 14.1 -21.35 14.1 -22.25 14.1 -22.75 14.75 -23.25 15.35 -23.25 16.65 -23.25 17.85 -22.75 18.5 -22.25 19.15 -21.35 19.15 -20.5 19.15 -19.95 18.5 -19.45 17.85 -19.45 16.65 M-19.15 19.15 Q-20.0 20.1 -21.35 20.1 -22.75 20.1 -23.55 19.15 -24.4 18.25 -24.4 16.65 -24.4 15.05 -23.55 14.1 -22.75 13.15 -21.35 13.15 -20.0 13.15 -19.15 14.1 -18.35 15.05 -18.35 16.65 -18.35 18.25 -19.15 19.15 M-23.7 12.2 L-26.8 12.2 -26.8 19.9 -28.0 19.9 -28.0 12.2 -31.1 12.2 -31.1 11.2 -23.7 11.2 -23.7 12.2 M-36.6 14.05 Q-35.95 14.95 -35.95 16.55 L-36.2 18.0 Q-36.4 18.65 -36.85 19.1 L-37.75 19.8 -38.85 20.05 -39.75 19.9 -40.6 19.55 -40.6 22.3 -41.7 22.3 -41.7 13.35 -40.6 13.35 -40.6 14.05 -39.6 13.45 -38.45 13.15 Q-37.25 13.15 -36.6 14.05 M-38.75 14.2 L-39.7 14.45 -40.6 14.95 -40.6 18.7 -39.8 18.95 -39.05 19.05 Q-38.1 19.05 -37.6 18.4 -37.1 17.8 -37.1 16.6 -37.1 15.4 -37.5 14.8 -37.9 14.2 -38.75 14.2 M-49.4 11.2 L-49.4 16.45 -49.3 17.55 -48.95 18.3 -48.25 18.9 -47.2 19.1 -46.15 18.9 -45.45 18.3 Q-45.2 18.0 -45.1 17.55 L-45.0 16.5 -45.0 11.2 -43.85 11.2 -43.85 16.4 -44.05 18.05 -44.75 19.25 -45.8 19.9 -47.2 20.1 -48.65 19.85 Q-49.25 19.65 -49.65 19.25 L-50.35 18.05 -50.55 16.4 -50.55 11.2 -49.4 11.2 M-56.85 15.65 L-56.85 19.9 -57.95 19.9 -57.95 16.15 -58.0 15.35 -58.2 14.7 -58.6 14.35 -59.35 14.2 -60.25 14.45 -61.2 15.0 -61.2 19.9 -62.3 19.9 -62.3 13.35 -61.2 13.35 -61.2 14.1 -60.15 13.4 -59.0 13.15 Q-57.95 13.15 -57.4 13.8 -56.85 14.45 -56.85 15.65 M-67.2 11.2 L-69.5 19.9 -70.8 19.9 -72.65 12.65 -74.4 19.9 -75.7 19.9 -78.0 11.2 -76.8 11.2 -75.0 18.45 -73.2 11.2 -72.0 11.2 -70.2 18.5 -68.35 11.2 -67.2 11.2 M-65.65 12.25 L-65.65 11.1 -64.45 11.1 -64.45 12.25 -65.65 12.25 M-64.5 13.35 L-64.5 19.9 -65.6 19.9 -65.6 13.35 -64.5 13.35" fill="#ffffff" fill-rule="evenodd" stroke="none"/>
  </g>
</svg>
