<?xml version="1.0" encoding="UTF-8" standalone="no"?>
<svg xmlns:xlink="http://www.w3.org/1999/xlink" height="37.95px" width="156.05px" xmlns="http://www.w3.org/2000/svg">
  <g transform="matrix(1.0, 0.0, 0.0, 1.0, 78.0, 14.65)">
    <path d="M19.0 -13.65 L22.15 -13.3 Q23.2 -12.95 23.9 -12.0 24.55 -11.05 24.55 -9.7 24.55 -8.5 24.05 -7.65 23.55 -6.75 22.65 -6.25 22.05 -5.9 21.1 -5.65 L22.25 -5.15 22.95 -4.4 23.55 -3.5 25.7 0.65 20.7 0.65 18.35 -3.7 17.55 -4.85 16.45 -5.15 16.05 -5.15 16.05 0.65 11.6 0.65 11.6 -13.65 19.0 -13.65 M5.55 0.65 L4.8 -1.7 -0.2 -1.7 -0.9 0.65 -5.4 0.65 -0.05 -13.65 4.8 -13.65 10.15 0.65 5.55 0.65 M2.3 -9.95 L0.75 -4.8 3.9 -4.8 2.3 -9.95 M19.85 -8.5 L20.1 -9.35 Q20.1 -10.05 19.65 -10.4 19.2 -10.8 18.0 -10.8 L16.05 -10.8 16.05 -7.85 17.95 -7.85 19.1 -8.05 Q19.55 -8.15 19.85 -8.5 M38.85 -11.65 Q39.65 -10.65 40.0 -9.35 L40.35 -6.55 Q40.35 -4.25 39.85 -3.0 39.3 -1.75 38.35 -0.85 37.45 0.0 36.4 0.25 L33.75 0.65 27.15 0.65 27.15 -13.65 33.75 -13.65 36.9 -13.15 Q38.1 -12.6 38.85 -11.65 M31.6 -2.6 L32.7 -2.6 34.65 -2.9 Q35.25 -3.2 35.55 -4.0 35.9 -4.75 35.9 -6.45 35.9 -8.75 35.15 -9.6 34.4 -10.4 32.7 -10.4 L31.6 -10.4 31.6 -2.6 M78.05 12.2 L77.9 18.5 76.9 18.5 76.75 12.2 78.05 12.2 M66.25 12.45 L66.25 14.35 68.55 14.35 68.55 15.3 66.25 15.3 66.25 18.25 66.3 19.05 66.45 19.6 66.8 19.95 67.5 20.05 68.05 20.0 68.45 19.85 68.55 19.85 68.55 20.85 67.85 21.0 67.2 21.05 Q66.2 21.05 65.7 20.5 65.15 19.95 65.15 18.75 L65.15 15.3 64.4 15.3 64.4 14.35 65.15 14.35 65.15 12.45 66.25 12.45 M70.6 16.05 Q70.6 16.45 70.85 16.65 L71.65 17.0 72.35 17.15 72.95 17.25 Q73.75 17.45 74.15 17.85 74.55 18.3 74.55 19.0 74.55 19.9 73.8 20.5 73.1 21.05 71.8 21.05 L70.45 20.9 69.45 20.5 69.45 19.25 69.5 19.25 Q70.0 19.65 70.65 19.9 L71.9 20.15 73.0 19.9 73.45 19.15 73.2 18.55 72.35 18.25 71.75 18.1 71.05 17.95 Q70.2 17.7 69.85 17.3 69.45 16.85 69.45 16.2 L69.65 15.45 70.15 14.8 Q70.5 14.5 71.0 14.35 L72.1 14.2 73.3 14.35 74.3 14.7 74.3 15.85 74.25 15.85 73.2 15.35 72.05 15.15 71.0 15.35 Q70.6 15.6 70.6 16.05 M63.0 16.65 L63.0 20.9 61.9 20.9 61.9 17.15 61.85 16.35 61.65 15.7 61.25 15.35 60.5 15.2 59.6 15.45 58.65 16.0 58.65 20.9 57.55 20.9 57.55 14.35 58.65 14.35 58.65 15.1 59.7 14.4 60.85 14.15 Q61.9 14.15 62.45 14.8 63.0 15.45 63.0 16.65 M76.8 19.65 L78.0 19.65 78.0 20.9 76.8 20.9 76.8 19.65 M55.4 13.25 L54.2 13.25 54.2 12.1 55.4 12.1 55.4 13.25 M50.9 15.75 Q50.4 15.1 49.5 15.1 48.6 15.1 48.1 15.75 47.6 16.35 47.6 17.65 47.6 18.85 48.1 19.5 48.6 20.15 49.5 20.15 50.35 20.15 50.9 19.5 51.4 18.85 51.4 17.65 51.4 16.35 50.9 15.75 M51.7 15.1 Q52.5 16.05 52.5 17.65 52.5 19.25 51.7 20.15 50.85 21.1 49.5 21.1 48.1 21.1 47.3 20.15 46.45 19.25 46.45 17.65 46.45 16.05 47.3 15.1 48.1 14.15 49.5 14.15 50.85 14.15 51.7 15.1 M42.4 15.2 L41.45 15.45 Q41.0 15.65 40.55 15.95 L40.55 19.7 41.35 19.95 42.1 20.05 Q43.05 20.05 43.55 19.4 44.05 18.8 44.05 17.6 44.05 16.4 43.65 15.8 43.25 15.2 42.4 15.2 M45.2 17.55 L44.95 19.0 44.3 20.1 43.4 20.8 42.3 21.05 41.4 20.9 40.55 20.55 40.55 23.3 39.45 23.3 39.45 14.35 40.55 14.35 40.55 15.05 41.55 14.45 Q42.05 14.15 42.7 14.15 43.9 14.15 44.55 15.05 45.2 15.95 45.2 17.55 M55.35 14.35 L55.35 20.9 54.25 20.9 54.25 14.35 55.35 14.35 M22.75 12.2 L22.75 20.9 21.3 20.9 17.15 13.1 17.15 20.9 16.05 20.9 16.05 12.2 17.85 12.2 21.65 19.3 21.65 12.2 22.75 12.2 M28.95 15.55 Q28.5 15.1 27.65 15.1 26.75 15.1 26.25 15.6 25.7 16.1 25.65 16.9 L29.4 16.9 Q29.4 16.05 28.95 15.55 M30.45 17.75 L25.65 17.75 Q25.65 18.35 25.8 18.8 L26.3 19.55 27.05 19.95 27.95 20.1 29.3 19.85 30.3 19.3 30.35 19.3 30.35 20.5 29.2 20.9 28.0 21.05 Q26.35 21.05 25.45 20.15 24.5 19.3 24.5 17.65 24.5 16.05 25.4 15.1 26.25 14.15 27.7 14.15 29.05 14.15 29.75 14.95 30.45 15.7 30.45 17.15 L30.45 17.75 M37.7 17.65 Q37.7 19.25 36.9 20.15 36.05 21.1 34.7 21.1 33.3 21.1 32.5 20.15 31.65 19.25 31.65 17.65 31.65 16.05 32.5 15.1 33.3 14.15 34.7 14.15 36.05 14.15 36.9 15.1 37.7 16.05 37.7 17.65 M34.7 15.1 Q33.8 15.1 33.3 15.75 32.8 16.35 32.8 17.65 32.8 18.85 33.3 19.5 33.8 20.15 34.7 20.15 35.55 20.15 36.1 19.5 36.6 18.85 36.6 17.65 36.6 16.35 36.1 15.75 35.6 15.1 34.7 15.1 M6.85 12.0 Q8.45 12.0 9.15 13.15 9.9 14.25 9.9 16.55 9.9 18.9 9.15 20.0 8.4 21.1 6.85 21.1 5.3 21.1 4.6 19.95 3.85 18.85 3.85 16.55 3.85 14.2 4.6 13.1 5.3 12.0 6.85 12.0 M6.85 12.95 L5.95 13.2 Q5.6 13.4 5.4 13.9 L5.1 15.0 5.05 16.55 5.1 18.1 5.4 19.2 5.95 19.85 6.85 20.1 7.8 19.9 8.35 19.2 8.65 18.1 8.7 16.55 8.65 15.0 8.35 13.85 7.8 13.2 6.85 12.95 M1.5 20.0 Q0.75 21.1 -0.8 21.1 -2.35 21.1 -3.05 19.95 -3.8 18.85 -3.8 16.55 -3.8 14.2 -3.05 13.1 -2.35 12.0 -0.8 12.0 0.8 12.0 1.5 13.15 2.25 14.25 2.25 16.55 2.25 18.9 1.5 20.0 M-37.0 -6.4 Q-37.0 -7.75 -36.05 -8.7 -35.1 -9.65 -33.75 -9.65 -32.4 -9.65 -31.45 -8.7 -30.5 -7.75 -30.5 -6.4 -30.5 -5.05 -31.45 -4.1 -32.4 -3.15 -33.75 -3.15 -35.1 -3.15 -36.05 -4.1 -37.0 -5.05 -37.0 -6.4 M-20.6 -13.65 L-16.2 -13.65 -16.2 -8.65 -11.35 -8.65 -11.35 -13.65 -6.9 -13.65 -6.9 0.65 -11.35 0.65 -11.35 -5.15 -16.2 -5.15 -16.2 0.65 -20.6 0.65 -20.6 -13.65 M-5.9 13.15 L-5.7 14.1 Q-5.7 14.8 -6.2 15.35 -6.75 15.9 -7.45 16.05 L-7.45 16.15 -6.8 16.35 Q-6.4 16.5 -6.15 16.7 L-5.7 17.35 -5.5 18.3 -5.75 19.4 -6.35 20.3 Q-6.8 20.7 -7.4 20.9 L-8.7 21.1 -10.1 20.9 -11.25 20.55 -11.25 19.3 -11.2 19.3 -10.0 19.85 -8.7 20.05 -7.95 19.95 -7.25 19.6 -6.85 19.0 Q-6.7 18.7 -6.7 18.25 -6.7 17.75 -6.85 17.45 L-7.3 16.95 -7.9 16.7 -8.75 16.65 -9.25 16.65 -9.25 15.7 -8.85 15.7 Q-7.95 15.7 -7.4 15.3 -6.9 14.95 -6.9 14.2 -6.9 13.9 -7.05 13.65 L-7.4 13.3 Q-7.65 13.1 -7.95 13.05 L-8.6 13.0 -9.8 13.2 -10.95 13.75 -11.0 13.75 -11.0 12.55 -9.9 12.15 -8.55 12.0 -7.45 12.1 Q-6.95 12.25 -6.55 12.5 -6.15 12.75 -5.9 13.15 M-0.8 12.95 L-1.7 13.2 Q-2.05 13.4 -2.25 13.9 L-2.55 15.0 -2.6 16.55 -2.55 18.1 -2.25 19.2 -1.7 19.85 -0.8 20.1 0.15 19.9 0.7 19.2 1.0 18.1 1.05 16.55 1.0 15.0 0.7 13.85 0.15 13.2 -0.8 12.95 M-18.2 17.65 Q-18.2 16.35 -18.7 15.75 -19.2 15.1 -20.1 15.1 -21.0 15.1 -21.5 15.75 -22.0 16.35 -22.0 17.65 -22.0 18.85 -21.5 19.5 -21.0 20.15 -20.1 20.15 -19.25 20.15 -18.7 19.5 -18.2 18.85 -18.2 17.65 M-17.1 17.65 Q-17.1 19.25 -17.9 20.15 -18.75 21.1 -20.1 21.1 -21.5 21.1 -22.3 20.15 -23.15 19.25 -23.15 17.65 -23.15 16.05 -22.3 15.1 -21.5 14.15 -20.1 14.15 -18.75 14.15 -17.9 15.1 -17.1 16.05 -17.1 17.65 M-22.45 13.2 L-25.55 13.2 -25.55 20.9 -26.75 20.9 -26.75 13.2 -29.85 13.2 -29.85 12.2 -22.45 12.2 -22.45 13.2 M-34.7 17.55 Q-34.7 18.35 -34.95 19.0 -35.15 19.65 -35.6 20.1 L-36.5 20.8 -37.6 21.05 -38.5 20.9 -39.35 20.55 -39.35 23.3 -40.45 23.3 -40.45 14.35 -39.35 14.35 -39.35 15.05 Q-38.9 14.65 -38.35 14.45 -37.85 14.15 -37.2 14.15 -36.0 14.15 -35.35 15.05 -34.7 15.95 -34.7 17.55 M-38.45 15.45 L-39.35 15.95 -39.35 19.7 -38.55 19.95 -37.8 20.05 Q-36.85 20.05 -36.35 19.4 -35.85 18.8 -35.85 17.6 -35.85 16.4 -36.25 15.8 -36.65 15.2 -37.5 15.2 L-38.45 15.45 M-48.15 12.2 L-48.15 17.45 -48.05 18.55 -47.7 19.3 -47.0 19.9 -45.95 20.1 -44.9 19.9 Q-44.45 19.7 -44.2 19.3 L-43.85 18.55 -43.75 17.5 -43.75 12.2 -42.6 12.2 -42.6 17.4 -42.8 19.05 -43.5 20.25 Q-43.95 20.65 -44.55 20.9 L-45.95 21.1 -47.4 20.85 -48.4 20.25 Q-48.9 19.75 -49.1 19.05 L-49.3 17.4 -49.3 12.2 -48.15 12.2 M-55.6 16.65 L-55.6 20.9 -56.7 20.9 -56.7 17.15 -56.75 16.35 Q-56.8 15.95 -56.95 15.7 L-57.35 15.35 -58.1 15.2 -59.0 15.45 -59.95 16.0 -59.95 20.9 -61.05 20.9 -61.05 14.35 -59.95 14.35 -59.95 15.1 -58.9 14.4 -57.75 14.15 Q-56.7 14.15 -56.15 14.8 -55.6 15.45 -55.6 16.65 M-65.95 12.2 L-68.25 20.9 -69.55 20.9 -71.4 13.65 -73.15 20.9 -74.45 20.9 -76.75 12.2 -75.55 12.2 -73.75 19.45 -71.95 12.2 -70.75 12.2 -68.95 19.5 -67.1 12.2 -65.95 12.2 M-64.4 12.1 L-63.2 12.1 -63.2 13.25 -64.4 13.25 -64.4 12.1 M-63.25 14.35 L-63.25 20.9 -64.35 20.9 -64.35 14.35 -63.25 14.35" fill="#d25b2f" fill-rule="evenodd" stroke="none"/>
    <path d="M17.75 -14.65 L20.9 -14.3 Q21.95 -13.95 22.65 -13.0 23.3 -12.05 23.3 -10.7 23.3 -9.5 22.8 -8.65 22.3 -7.75 21.4 -7.25 20.8 -6.9 19.85 -6.65 L21.0 -6.15 21.7 -5.4 22.3 -4.5 24.45 -0.35 19.45 -0.35 17.1 -4.7 16.3 -5.85 15.2 -6.15 14.8 -6.15 14.8 -0.35 10.35 -0.35 10.35 -14.65 17.75 -14.65 M1.05 -10.95 L-0.5 -5.8 2.65 -5.8 1.05 -10.95 M4.3 -0.35 L3.55 -2.7 -1.45 -2.7 -2.15 -0.35 -6.65 -0.35 -1.3 -14.65 3.55 -14.65 8.9 -0.35 4.3 -0.35 M18.6 -9.5 L18.85 -10.35 Q18.85 -11.05 18.4 -11.4 17.95 -11.8 16.75 -11.8 L14.8 -11.8 14.8 -8.85 16.7 -8.85 17.85 -9.05 18.6 -9.5 M37.6 -12.65 L38.75 -10.35 39.1 -7.55 Q39.1 -5.25 38.6 -4.0 38.05 -2.75 37.1 -1.85 36.2 -1.0 35.15 -0.75 L32.5 -0.35 25.9 -0.35 25.9 -14.65 32.5 -14.65 35.65 -14.15 Q36.85 -13.6 37.6 -12.65 M30.35 -3.6 L31.45 -3.6 33.4 -3.9 Q34.0 -4.2 34.3 -5.0 34.65 -5.75 34.65 -7.45 34.65 -9.75 33.9 -10.6 33.15 -11.4 31.45 -11.4 L30.35 -11.4 30.35 -3.6 M76.8 11.2 L76.65 17.5 75.65 17.5 75.5 11.2 76.8 11.2 M65.0 11.45 L65.0 13.35 67.3 13.35 67.3 14.3 65.0 14.3 65.0 17.25 65.05 18.05 65.2 18.6 65.55 18.95 66.25 19.05 66.8 19.0 67.2 18.85 67.3 18.85 67.3 19.85 66.6 20.0 65.95 20.05 Q64.95 20.05 64.45 19.5 63.9 18.95 63.9 17.75 L63.9 14.3 63.15 14.3 63.15 13.35 63.9 13.35 63.9 11.45 65.0 11.45 M69.35 15.05 Q69.35 15.45 69.6 15.65 L70.4 16.0 71.1 16.15 71.7 16.25 Q72.5 16.45 72.9 16.85 73.3 17.3 73.3 18.0 73.3 18.9 72.55 19.5 71.85 20.05 70.55 20.05 L69.2 19.9 68.2 19.5 68.2 18.25 68.25 18.25 69.4 18.9 70.65 19.15 71.75 18.9 72.2 18.15 71.95 17.55 Q71.75 17.35 71.1 17.25 L70.5 17.1 69.8 16.95 68.6 16.3 Q68.2 15.85 68.2 15.2 L68.4 14.45 68.9 13.8 Q69.25 13.5 69.75 13.35 L70.85 13.2 72.05 13.35 73.05 13.7 73.05 14.85 73.0 14.85 Q72.55 14.55 71.95 14.35 L70.8 14.15 69.75 14.35 Q69.35 14.6 69.35 15.05 M61.75 15.65 L61.75 19.9 60.65 19.9 60.65 16.15 60.6 15.35 60.4 14.7 60.0 14.35 59.25 14.2 58.35 14.45 Q57.85 14.65 57.4 15.0 L57.4 19.9 56.3 19.9 56.3 13.35 57.4 13.35 57.4 14.1 58.45 13.4 59.6 13.15 Q60.65 13.15 61.2 13.8 61.75 14.45 61.75 15.65 M75.55 18.65 L76.75 18.65 76.75 19.9 75.55 19.9 75.55 18.65 M54.15 12.25 L52.95 12.25 52.95 11.1 54.15 11.1 54.15 12.25 M48.25 13.15 Q49.6 13.15 50.45 14.1 51.25 15.05 51.25 16.65 51.25 18.25 50.45 19.15 49.6 20.1 48.25 20.1 46.85 20.1 46.05 19.15 45.2 18.25 45.2 16.65 45.2 15.05 46.05 14.1 46.85 13.15 48.25 13.15 M49.65 14.75 Q49.15 14.1 48.25 14.1 47.35 14.1 46.85 14.75 46.35 15.35 46.35 16.65 46.35 17.85 46.85 18.5 47.35 19.15 48.25 19.15 49.1 19.15 49.65 18.5 50.15 17.85 50.15 16.65 50.15 15.35 49.65 14.75 M43.95 16.55 L43.7 18.0 43.05 19.1 Q42.7 19.55 42.15 19.8 L41.05 20.05 40.15 19.9 39.3 19.55 39.3 22.3 38.2 22.3 38.2 13.35 39.3 13.35 39.3 14.05 Q39.75 13.65 40.3 13.45 40.8 13.15 41.45 13.15 42.65 13.15 43.3 14.05 43.95 14.95 43.95 16.55 M41.15 14.2 L40.2 14.45 Q39.75 14.65 39.3 14.95 L39.3 18.7 40.1 18.95 40.85 19.05 Q41.8 19.05 42.3 18.4 42.8 17.8 42.8 16.6 42.8 15.4 42.4 14.8 42.0 14.2 41.15 14.2 M54.1 13.35 L54.1 19.9 53.0 19.9 53.0 13.35 54.1 13.35 M21.5 11.2 L21.5 19.9 20.05 19.9 15.9 12.1 15.9 19.9 14.8 19.9 14.8 11.2 16.6 11.2 20.4 18.3 20.4 11.2 21.5 11.2 M29.2 16.75 L24.4 16.75 Q24.4 17.35 24.55 17.8 L25.05 18.55 25.8 18.95 26.7 19.1 28.05 18.85 29.05 18.3 29.1 18.3 29.1 19.5 27.95 19.9 26.75 20.05 Q25.1 20.05 24.2 19.15 23.25 18.3 23.25 16.65 23.25 15.05 24.15 14.1 25.0 13.15 26.45 13.15 27.8 13.15 28.5 13.95 29.2 14.7 29.2 16.15 L29.2 16.75 M27.7 14.55 Q27.25 14.1 26.4 14.1 25.5 14.1 25.0 14.6 24.45 15.1 24.4 15.9 L28.15 15.9 Q28.15 15.05 27.7 14.55 M36.45 16.65 Q36.45 18.25 35.65 19.15 34.8 20.1 33.45 20.1 32.05 20.1 31.25 19.15 30.4 18.25 30.4 16.65 30.4 15.05 31.25 14.1 32.05 13.15 33.45 13.15 34.8 13.15 35.65 14.1 36.45 15.05 36.45 16.65 M33.45 14.1 Q32.55 14.1 32.05 14.75 31.55 15.35 31.55 16.65 31.55 17.85 32.05 18.5 32.55 19.15 33.45 19.15 34.3 19.15 34.85 18.5 35.35 17.85 35.35 16.65 35.35 15.35 34.85 14.75 34.35 14.1 33.45 14.1 M5.6 11.95 L4.7 12.2 Q4.35 12.4 4.15 12.9 L3.85 14.0 3.8 15.55 3.85 17.1 4.15 18.2 4.7 18.85 5.6 19.1 6.55 18.9 7.1 18.2 7.4 17.1 7.45 15.55 7.4 14.0 7.1 12.85 6.55 12.2 5.6 11.95 M5.6 11.0 Q7.2 11.0 7.9 12.15 8.65 13.25 8.65 15.55 8.65 17.9 7.9 19.0 7.15 20.1 5.6 20.1 4.05 20.1 3.35 18.95 2.6 17.85 2.6 15.55 2.6 13.2 3.35 12.1 4.05 11.0 5.6 11.0 M0.25 19.0 Q-0.5 20.1 -2.05 20.1 -3.6 20.1 -4.3 18.95 -5.05 17.85 -5.05 15.55 -5.05 13.2 -4.3 12.1 -3.6 11.0 -2.05 11.0 -0.45 11.0 0.25 12.15 1.0 13.25 1.0 15.55 1.0 17.9 0.25 19.0 M-35.0 -10.65 Q-33.65 -10.65 -32.7 -9.7 -31.75 -8.75 -31.75 -7.4 -31.75 -6.05 -32.7 -5.1 -33.65 -4.15 -35.0 -4.15 -36.35 -4.15 -37.3 -5.1 -38.25 -6.05 -38.25 -7.4 -38.25 -8.75 -37.3 -9.7 -36.35 -10.65 -35.0 -10.65 M-21.85 -14.65 L-17.45 -14.65 -17.45 -9.65 -12.6 -9.65 -12.6 -14.65 -8.15 -14.65 -8.15 -0.35 -12.6 -0.35 -12.6 -6.15 -17.45 -6.15 -17.45 -0.35 -21.85 -0.35 -21.85 -14.65 M-2.05 11.95 L-2.95 12.2 -3.5 12.9 -3.8 14.0 -3.85 15.55 -3.8 17.1 -3.5 18.2 -2.95 18.85 -2.05 19.1 -1.1 18.9 Q-0.75 18.65 -0.55 18.2 L-0.25 17.1 -0.2 15.55 -0.25 14.0 -0.55 12.85 Q-0.75 12.4 -1.1 12.2 -1.45 11.95 -2.05 11.95 M-7.15 12.15 L-6.95 13.1 Q-6.95 13.8 -7.45 14.35 -8.0 14.9 -8.7 15.05 L-8.7 15.15 Q-8.4 15.2 -8.05 15.35 -7.65 15.5 -7.4 15.7 L-6.95 16.35 -6.75 17.3 -7.0 18.4 -7.6 19.3 -8.65 19.9 -9.95 20.1 -11.35 19.9 -12.5 19.55 -12.5 18.3 -12.45 18.3 Q-11.95 18.65 -11.25 18.85 L-9.95 19.05 -9.2 18.95 -8.5 18.6 -8.1 18.0 Q-7.95 17.7 -7.95 17.25 -7.95 16.75 -8.1 16.45 L-8.55 15.95 -9.15 15.7 -10.0 15.65 -10.5 15.65 -10.5 14.7 -10.1 14.7 Q-9.2 14.7 -8.65 14.3 -8.15 13.95 -8.15 13.2 L-8.3 12.65 -8.65 12.3 Q-8.9 12.1 -9.2 12.05 L-9.85 12.0 -11.05 12.2 -12.2 12.75 -12.25 12.75 -12.25 11.55 -11.15 11.15 -9.8 11.0 -8.7 11.1 -7.8 11.5 Q-7.4 11.75 -7.15 12.15 M-18.35 16.65 Q-18.35 18.25 -19.15 19.15 -20.0 20.1 -21.35 20.1 -22.75 20.1 -23.55 19.15 -24.4 18.25 -24.4 16.65 -24.4 15.05 -23.55 14.1 -22.75 13.15 -21.35 13.15 -20.0 13.15 -19.15 14.1 -18.35 15.05 -18.35 16.65 M-19.45 16.65 Q-19.45 15.35 -19.95 14.75 -20.45 14.1 -21.35 14.1 -22.25 14.1 -22.75 14.75 -23.25 15.35 -23.25 16.65 -23.25 17.85 -22.75 18.5 -22.25 19.15 -21.35 19.15 -20.5 19.15 -19.95 18.5 -19.45 17.85 -19.45 16.65 M-23.7 12.2 L-26.8 12.2 -26.8 19.9 -28.0 19.9 -28.0 12.2 -31.1 12.2 -31.1 11.2 -23.7 11.2 -23.7 12.2 M-38.75 14.2 L-39.7 14.45 -40.6 14.95 -40.6 18.7 -39.8 18.95 -39.05 19.05 Q-38.1 19.05 -37.6 18.4 -37.1 17.8 -37.1 16.6 -37.1 15.4 -37.5 14.8 -37.9 14.2 -38.75 14.2 M-35.95 16.55 L-36.2 18.0 Q-36.4 18.65 -36.85 19.1 L-37.75 19.8 -38.85 20.05 -39.75 19.9 -40.6 19.55 -40.6 22.3 -41.7 22.3 -41.7 13.35 -40.6 13.35 -40.6 14.05 -39.6 13.45 -38.45 13.15 Q-37.25 13.15 -36.6 14.05 -35.95 14.95 -35.95 16.55 M-49.4 11.2 L-49.4 16.45 -49.3 17.55 -48.95 18.3 -48.25 18.9 -47.2 19.1 -46.15 18.9 -45.45 18.3 Q-45.2 18.0 -45.1 17.55 L-45.0 16.5 -45.0 11.2 -43.85 11.2 -43.85 16.4 -44.05 18.05 -44.75 19.25 -45.8 19.9 -47.2 20.1 -48.65 19.85 Q-49.25 19.65 -49.65 19.25 L-50.35 18.05 -50.55 16.4 -50.55 11.2 -49.4 11.2 M-56.85 15.65 L-56.85 19.9 -57.95 19.9 -57.95 16.15 -58.0 15.35 -58.2 14.7 -58.6 14.35 -59.35 14.2 -60.25 14.45 -61.2 15.0 -61.2 19.9 -62.3 19.9 -62.3 13.35 -61.2 13.35 -61.2 14.1 -60.15 13.4 -59.0 13.15 Q-57.95 13.15 -57.4 13.8 -56.85 14.45 -56.85 15.65 M-65.65 12.25 L-65.65 11.1 -64.45 11.1 -64.45 12.25 -65.65 12.25 M-67.2 11.2 L-69.5 19.9 -70.8 19.9 -72.65 12.65 -74.4 19.9 -75.7 19.9 -78.0 11.2 -76.8 11.2 -75.0 18.45 -73.2 11.2 -72.0 11.2 -70.2 18.5 -68.35 11.2 -67.2 11.2 M-64.5 13.35 L-64.5 19.9 -65.6 19.9 -65.6 13.35 -64.5 13.35" fill="#f9f309" fill-rule="evenodd" stroke="none"/>
  </g>
</svg>
