<?xml version="1.0" encoding="UTF-8" standalone="no"?>
<svg xmlns:xlink="http://www.w3.org/1999/xlink" height="27.7px" width="258.45px" xmlns="http://www.w3.org/2000/svg">
  <g transform="matrix(1.0, 0.0, 0.0, 1.0, 129.25, -192.45)">
    <path d="M48.55 196.6 L43.35 196.6 43.35 198.6 47.8 198.6 47.8 200.9 43.35 200.9 43.35 205.6 39.8 205.6 39.8 194.15 48.55 194.15 48.55 196.6 M50.45 205.6 L50.45 194.15 59.2 194.15 59.2 196.6 54.0 196.6 54.0 198.6 58.45 198.6 58.45 200.9 54.0 200.9 54.0 205.6 50.45 205.6 M37.2 205.6 L33.65 205.6 33.65 194.15 37.2 194.15 37.2 205.6 M24.65 196.75 L24.65 203.0 25.55 203.0 27.1 202.75 27.85 201.9 28.1 199.9 Q28.1 198.1 27.5 197.4 26.9 196.75 25.55 196.75 L24.65 196.75 M28.9 194.55 Q29.85 195.0 30.45 195.8 31.1 196.55 31.4 197.6 L31.65 199.85 Q31.65 201.65 31.25 202.7 L30.1 204.4 Q29.35 205.05 28.5 205.3 L26.4 205.6 21.1 205.6 21.1 194.15 26.4 194.15 28.9 194.55 M14.15 197.0 L10.5 197.0 10.5 205.6 7.0 205.6 7.0 197.0 3.35 197.0 3.35 194.15 14.15 194.15 14.15 197.0 M90.75 194.15 L90.75 200.95 90.45 202.9 89.45 204.45 Q88.75 205.15 88.05 205.4 L85.55 205.8 83.75 205.7 Q82.75 205.55 82.1 205.2 L80.85 204.25 Q80.3 203.6 80.1 202.9 79.8 201.8 79.8 200.95 L79.8 194.15 83.3 194.15 83.3 201.15 Q83.3 202.05 83.85 202.6 84.35 203.1 85.25 203.1 86.2 203.1 86.7 202.6 87.25 202.1 87.25 201.15 L87.25 194.15 90.75 194.15 M78.05 201.85 Q77.75 203.15 77.05 204.05 76.4 204.9 75.4 205.35 L72.85 205.8 Q71.0 205.8 69.8 205.25 68.65 204.7 67.75 203.35 66.9 202.0 66.9 199.85 66.9 197.0 68.4 195.5 69.95 193.95 72.7 193.95 74.85 193.95 76.1 194.85 77.35 195.7 77.95 197.5 L74.8 198.2 74.45 197.45 73.75 196.8 72.8 196.6 Q71.6 196.6 70.95 197.55 70.45 198.3 70.45 199.85 70.45 201.75 71.05 202.45 71.6 203.15 72.65 203.15 73.65 203.15 74.2 202.55 L74.95 200.9 78.05 201.85 M93.1 194.15 L96.65 194.15 96.65 202.8 102.2 202.8 102.2 205.6 93.1 205.6 93.1 194.15 M61.2 194.15 L64.75 194.15 64.75 205.6 61.2 205.6 61.2 194.15 M121.35 205.6 L117.85 205.6 117.85 200.8 113.35 194.15 117.3 194.15 119.6 198.0 121.9 194.15 125.85 194.15 121.35 200.8 121.35 205.6 M125.8 197.3 L129.2 197.3 129.2 200.5 125.8 200.5 125.8 197.3 M125.8 202.4 L129.2 202.4 129.2 205.6 125.8 205.6 125.8 202.4 M109.3 197.0 L109.3 205.6 105.8 205.6 105.8 197.0 102.15 197.0 102.15 194.15 112.95 194.15 112.95 197.0 109.3 197.0 M-113.15 194.15 L-113.15 202.8 -107.6 202.8 -107.6 205.6 -116.7 205.6 -116.7 194.15 -113.15 194.15 M-123.7 196.5 L-124.7 196.5 -124.7 199.05 -123.8 199.05 Q-122.8 199.05 -122.4 198.7 -121.95 198.3 -121.95 197.75 -121.95 197.25 -122.35 196.85 -122.7 196.5 -123.7 196.5 M-119.5 195.05 Q-118.5 196.0 -118.5 197.65 -118.5 199.4 -119.55 200.35 -120.6 201.35 -122.75 201.35 L-124.7 201.35 -124.7 205.6 -128.25 205.6 -128.25 194.15 -122.35 194.15 Q-120.45 194.15 -119.5 195.05 M-80.15 194.4 L-77.35 193.95 Q-75.15 193.95 -74.0 194.75 -72.85 195.6 -72.65 197.35 L-75.95 197.55 Q-76.1 196.8 -76.5 196.45 -76.95 196.1 -77.7 196.1 L-78.65 196.35 -78.95 197.0 -78.7 197.5 -77.5 197.9 Q-75.2 198.4 -74.15 198.9 -73.15 199.4 -72.7 200.2 -72.25 200.95 -72.25 201.85 -72.25 203.0 -72.85 203.9 -73.45 204.85 -74.55 205.3 -75.65 205.8 -77.3 205.8 -80.25 205.8 -81.35 204.65 -82.5 203.55 -82.65 201.8 L-79.3 201.6 -78.85 202.85 Q-78.3 203.55 -77.25 203.55 L-76.1 203.2 Q-75.7 202.85 -75.7 202.35 -75.7 201.9 -76.1 201.55 -76.45 201.2 -77.9 200.9 -80.2 200.4 -81.2 199.5 -82.2 198.65 -82.2 197.3 -82.2 196.4 -81.7 195.65 -81.2 194.85 -80.15 194.4 M-87.45 203.7 L-91.45 203.7 -92.0 205.6 -95.65 205.6 -91.3 194.15 -87.45 194.15 -83.15 205.6 -86.85 205.6 -87.45 203.7 M-70.5 194.15 L-61.0 194.15 -61.0 196.6 -66.95 196.6 -66.95 198.4 -61.45 198.4 -61.45 200.75 -66.95 200.75 -66.95 203.0 -60.85 203.0 -60.85 205.6 -70.5 205.6 -70.5 194.15 M-96.55 196.6 L-102.5 196.6 -102.5 198.4 -97.0 198.4 -97.0 200.75 -102.5 200.75 -102.5 203.0 -96.4 203.0 -96.4 205.6 -106.05 205.6 -106.05 194.15 -96.55 194.15 -96.55 196.6 M-89.45 197.1 L-90.7 201.25 -88.15 201.25 -89.45 197.1 M-32.55 196.6 L-38.5 196.6 -38.5 198.4 -33.0 198.4 -33.0 200.75 -38.5 200.75 -38.5 203.0 -32.4 203.0 -32.4 205.6 -42.05 205.6 -42.05 194.15 -32.55 194.15 -32.55 196.6 M-26.95 194.15 L-26.95 202.8 -21.4 202.8 -21.4 205.6 -30.5 205.6 -30.5 194.15 -26.95 194.15 M-46.1 205.3 Q-47.2 205.8 -48.85 205.8 -51.8 205.8 -52.9 204.65 -54.05 203.55 -54.2 201.8 L-50.85 201.6 -50.4 202.85 Q-49.85 203.55 -48.8 203.55 -48.05 203.55 -47.65 203.2 -47.25 202.85 -47.25 202.35 -47.25 201.9 -47.65 201.55 -48.0 201.2 -49.45 200.9 -51.75 200.4 -52.75 199.5 -53.75 198.65 -53.75 197.3 -53.75 196.4 -53.25 195.65 -52.75 194.85 -51.7 194.4 -50.7 193.95 -48.9 193.95 -46.7 193.95 -45.55 194.75 -44.4 195.6 -44.2 197.35 L-47.5 197.55 Q-47.65 196.8 -48.05 196.45 -48.5 196.1 -49.25 196.1 L-50.2 196.35 Q-50.5 196.6 -50.5 197.0 L-50.25 197.5 -49.05 197.9 -45.7 198.9 Q-44.7 199.4 -44.25 200.2 -43.8 200.95 -43.8 201.85 -43.8 203.0 -44.4 203.9 -45.0 204.85 -46.1 205.3 M-2.8 196.6 Q-4.0 196.6 -4.65 197.55 -5.15 198.3 -5.15 199.85 -5.15 201.75 -4.55 202.45 -4.0 203.15 -2.95 203.15 -1.95 203.15 -1.4 202.55 -0.9 202.0 -0.65 200.9 L2.45 201.85 Q2.15 203.15 1.45 204.05 0.8 204.9 -0.2 205.35 L-2.75 205.8 Q-4.6 205.8 -5.8 205.25 -6.95 204.7 -7.85 203.35 -8.7 202.0 -8.7 199.85 -8.7 197.0 -7.2 195.5 -5.65 193.95 -2.9 193.95 -0.75 193.95 0.5 194.85 1.75 195.7 2.35 197.5 L-0.8 198.2 -1.15 197.45 -1.85 196.8 -2.8 196.6 M-10.35 196.6 L-16.3 196.6 -16.3 198.4 -10.8 198.4 -10.8 200.75 -16.3 200.75 -16.3 203.0 -10.2 203.0 -10.2 205.6 -19.85 205.6 -19.85 194.15 -10.35 194.15 -10.35 196.6" fill="#d25b2f" fill-rule="evenodd" stroke="none"/>
    <path d="M47.55 195.1 L42.35 195.1 42.35 197.1 46.8 197.1 46.8 199.4 42.35 199.4 42.35 204.1 38.8 204.1 38.8 192.65 47.55 192.65 47.55 195.1 M49.45 204.1 L49.45 192.65 58.2 192.65 58.2 195.1 53.0 195.1 53.0 197.1 57.45 197.1 57.45 199.4 53.0 199.4 53.0 204.1 49.45 204.1 M36.2 204.1 L32.65 204.1 32.65 192.65 36.2 192.65 36.2 204.1 M27.9 193.05 Q28.85 193.5 29.45 194.3 30.1 195.05 30.4 196.1 L30.65 198.35 Q30.65 200.15 30.25 201.2 L29.1 202.9 Q28.35 203.55 27.5 203.8 L25.4 204.1 20.1 204.1 20.1 192.65 25.4 192.65 27.9 193.05 M23.65 195.25 L23.65 201.5 24.55 201.5 26.1 201.25 26.85 200.4 27.1 198.4 Q27.1 196.6 26.5 195.9 25.9 195.25 24.55 195.25 L23.65 195.25 M13.15 195.5 L9.5 195.5 9.5 204.1 6.0 204.1 6.0 195.5 2.35 195.5 2.35 192.65 13.15 192.65 13.15 195.5 M89.75 192.65 L89.75 199.45 89.45 201.4 88.45 202.95 87.05 203.9 84.55 204.3 82.75 204.2 Q81.75 204.05 81.1 203.7 L79.85 202.75 Q79.3 202.1 79.1 201.4 78.8 200.3 78.8 199.45 L78.8 192.65 82.3 192.65 82.3 199.65 Q82.3 200.55 82.85 201.1 83.35 201.6 84.25 201.6 85.2 201.6 85.7 201.1 86.25 200.6 86.25 199.65 L86.25 192.65 89.75 192.65 M73.8 196.7 L73.45 195.95 72.75 195.3 71.8 195.1 Q70.6 195.1 69.95 196.05 69.45 196.8 69.45 198.35 69.45 200.25 70.05 200.95 70.6 201.65 71.65 201.65 72.65 201.65 73.2 201.05 L73.95 199.4 77.05 200.35 Q76.75 201.65 76.05 202.55 75.4 203.4 74.4 203.85 L71.85 204.3 68.8 203.75 Q67.65 203.2 66.75 201.85 65.9 200.5 65.9 198.35 65.9 195.5 67.4 194.0 68.95 192.45 71.7 192.45 73.85 192.45 75.1 193.35 76.35 194.2 76.95 196.0 L73.8 196.7 M92.1 192.65 L95.65 192.65 95.65 201.3 101.2 201.3 101.2 204.1 92.1 204.1 92.1 192.65 M60.2 192.65 L63.75 192.65 63.75 204.1 60.2 204.1 60.2 192.65 M116.85 199.3 L112.35 192.65 116.3 192.65 118.6 196.5 120.9 192.65 124.85 192.65 120.35 199.3 120.35 204.1 116.85 204.1 116.85 199.3 M124.8 200.9 L128.2 200.9 128.2 204.1 124.8 204.1 124.8 200.9 M124.8 195.8 L128.2 195.8 128.2 199.0 124.8 199.0 124.8 195.8 M108.3 195.5 L108.3 204.1 104.8 204.1 104.8 195.5 101.15 195.5 101.15 192.65 111.95 192.65 111.95 195.5 108.3 195.5 M-114.15 192.65 L-114.15 201.3 -108.6 201.3 -108.6 204.1 -117.7 204.1 -117.7 192.65 -114.15 192.65 M-120.5 193.55 Q-119.5 194.5 -119.5 196.15 -119.5 197.9 -120.55 198.85 -121.6 199.85 -123.75 199.85 L-125.7 199.85 -125.7 204.1 -129.25 204.1 -129.25 192.65 -123.35 192.65 Q-121.45 192.65 -120.5 193.55 M-124.7 195.0 L-125.7 195.0 -125.7 197.55 -124.8 197.55 Q-123.8 197.55 -123.4 197.2 -122.95 196.8 -122.95 196.25 -122.95 195.75 -123.35 195.35 -123.7 195.0 -124.7 195.0 M-81.15 192.9 Q-80.15 192.45 -78.35 192.45 -76.15 192.45 -75.0 193.25 -73.85 194.1 -73.65 195.85 L-76.95 196.05 Q-77.1 195.3 -77.5 194.95 -77.95 194.6 -78.7 194.6 -79.3 194.6 -79.65 194.85 L-79.95 195.5 -79.7 196.0 -78.5 196.4 Q-76.2 196.9 -75.15 197.4 -74.15 197.9 -73.7 198.7 -73.25 199.45 -73.25 200.35 -73.25 201.5 -73.85 202.4 -74.45 203.35 -75.55 203.8 -76.65 204.3 -78.3 204.3 -81.25 204.3 -82.35 203.15 -83.5 202.05 -83.65 200.3 L-80.3 200.1 -79.85 201.35 Q-79.3 202.05 -78.25 202.05 -77.5 202.05 -77.1 201.7 -76.7 201.35 -76.7 200.85 -76.7 200.4 -77.1 200.05 -77.45 199.7 -78.9 199.4 -81.2 198.9 -82.2 198.0 -83.2 197.15 -83.2 195.8 -83.2 194.9 -82.7 194.15 -82.2 193.35 -81.15 192.9 M-87.85 204.1 L-88.45 202.2 -92.45 202.2 -93.0 204.1 -96.65 204.1 -92.3 192.65 -88.45 192.65 -84.15 204.1 -87.85 204.1 M-71.5 192.65 L-62.0 192.65 -62.0 195.1 -67.95 195.1 -67.95 196.9 -62.45 196.9 -62.45 199.25 -67.95 199.25 -67.95 201.5 -61.85 201.5 -61.85 204.1 -71.5 204.1 -71.5 192.65 M-97.55 195.1 L-103.5 195.1 -103.5 196.9 -98.0 196.9 -98.0 199.25 -103.5 199.25 -103.5 201.5 -97.4 201.5 -97.4 204.1 -107.05 204.1 -107.05 192.65 -97.55 192.65 -97.55 195.1 M-90.45 195.6 L-91.7 199.75 -89.15 199.75 -90.45 195.6 M-27.95 192.65 L-27.95 201.3 -22.4 201.3 -22.4 204.1 -31.5 204.1 -31.5 192.65 -27.95 192.65 M-33.55 195.1 L-39.5 195.1 -39.5 196.9 -34.0 196.9 -34.0 199.25 -39.5 199.25 -39.5 201.5 -33.4 201.5 -33.4 204.1 -43.05 204.1 -43.05 192.65 -33.55 192.65 -33.55 195.1 M-47.1 203.8 L-49.85 204.3 Q-52.8 204.3 -53.9 203.15 -55.05 202.05 -55.2 200.3 L-51.85 200.1 -51.4 201.35 Q-50.85 202.05 -49.8 202.05 -49.05 202.05 -48.65 201.7 -48.25 201.35 -48.25 200.85 -48.25 200.4 -48.65 200.05 -49.0 199.7 -50.45 199.4 -52.75 198.9 -53.75 198.0 -54.75 197.15 -54.75 195.8 -54.75 194.9 -54.25 194.15 -53.75 193.35 -52.7 192.9 -51.7 192.45 -49.9 192.45 -47.7 192.45 -46.55 193.25 -45.4 194.1 -45.2 195.85 L-48.5 196.05 Q-48.65 195.3 -49.05 194.95 -49.5 194.6 -50.25 194.6 -50.85 194.6 -51.2 194.85 L-51.5 195.5 -51.25 196.0 -50.05 196.4 -46.7 197.4 Q-45.7 197.9 -45.25 198.7 -44.8 199.45 -44.8 200.35 -44.8 201.5 -45.4 202.4 -46.0 203.35 -47.1 203.8 M-3.8 195.1 Q-5.0 195.1 -5.65 196.05 -6.15 196.8 -6.15 198.35 -6.15 200.25 -5.55 200.95 -5.0 201.65 -3.95 201.65 -2.95 201.65 -2.4 201.05 -1.9 200.5 -1.65 199.4 L1.45 200.35 Q1.15 201.65 0.45 202.55 -0.2 203.4 -1.2 203.85 L-3.75 204.3 -6.8 203.75 Q-7.95 203.2 -8.85 201.85 -9.7 200.5 -9.7 198.35 -9.7 195.5 -8.2 194.0 -6.65 192.45 -3.9 192.45 -1.75 192.45 -0.5 193.35 0.75 194.2 1.35 196.0 L-1.8 196.7 -2.15 195.95 -2.85 195.3 -3.8 195.1 M-11.35 195.1 L-17.3 195.1 -17.3 196.9 -11.8 196.9 -11.8 199.25 -17.3 199.25 -17.3 201.5 -11.2 201.5 -11.2 204.1 -20.85 204.1 -20.85 192.65 -11.35 192.65 -11.35 195.1" fill="#f9f309" fill-rule="evenodd" stroke="none"/>
    <path d="M87.75 220.05 L87.7 215.4 96.0 215.4 96.0 220.05 87.75 220.05 M75.5 220.05 L75.5 215.4 83.75 215.45 83.75 220.05 75.5 220.05 M71.55 220.1 L63.25 220.1 63.25 215.5 71.5 215.5 71.55 220.1 M47.15 220.1 L38.85 220.05 38.85 215.45 47.1 215.5 47.15 220.1 M59.35 215.5 L59.35 220.1 51.1 220.1 51.05 215.5 59.35 215.5 M26.7 220.05 L26.65 215.45 34.95 215.45 34.95 220.05 26.7 220.05 M10.55 220.1 L2.25 220.1 2.25 215.5 10.5 215.5 10.55 220.1 M14.45 220.05 L14.45 215.45 22.7 215.45 22.7 220.05 14.45 220.05 M-10.0 215.5 L-1.7 215.5 -1.7 220.15 -9.95 220.1 -10.0 215.5 M-13.9 220.15 L-22.2 220.1 -22.2 215.45 -13.95 215.5 -13.9 220.15 M-26.1 220.1 L-34.35 220.1 -34.4 215.45 -26.1 215.5 -26.1 220.1 M-50.5 220.1 L-58.85 220.1 -58.8 215.5 -50.55 215.5 -50.5 220.1 M-46.6 220.1 L-46.6 215.5 -38.35 215.5 -38.35 220.1 -46.6 220.1 M-62.75 215.55 L-62.8 220.15 -71.05 220.15 -71.05 215.55 -62.75 215.55 M-74.95 220.15 L-83.25 220.1 -83.2 215.5 -74.95 215.55 -74.95 220.15 M-87.2 220.1 L-95.45 220.1 -95.45 215.5 -87.15 215.5 -87.2 220.1" fill="#d25b2f" fill-rule="evenodd" stroke="none"/>
    <path d="M95.55 219.75 L87.3 219.75 87.25 215.15 95.55 215.15 95.55 219.75 M75.05 219.75 L75.05 215.15 83.3 215.15 83.35 219.75 75.05 219.75 M71.1 219.85 L62.8 219.8 62.8 215.2 71.1 215.2 71.1 219.85 M46.7 219.8 L38.4 219.8 38.4 215.15 46.65 215.2 46.7 219.8 M50.65 215.15 L58.9 215.2 58.9 219.85 50.65 219.8 50.65 215.15 M34.5 219.8 L26.25 219.8 26.2 215.2 34.5 215.2 34.5 219.8 M10.1 219.85 L1.85 219.85 1.8 215.25 10.1 215.25 10.1 219.85 M14.0 219.8 L14.0 215.2 22.25 215.2 22.3 219.8 14.0 219.8 M-2.15 219.85 L-10.4 219.85 -10.4 215.2 -2.15 215.25 -2.15 219.85 M-14.35 219.8 L-22.65 219.8 -22.65 215.2 -14.4 215.2 -14.35 219.8 M-26.55 215.2 L-26.55 219.85 -34.8 219.8 -34.85 215.2 -26.55 215.2 M-38.8 215.2 L-38.75 219.85 -47.05 219.85 -47.05 215.2 -38.8 215.2 M-50.95 219.85 L-59.2 219.85 -59.25 215.2 -50.95 215.25 -50.95 219.85 M-63.2 215.3 L-63.2 219.9 -71.45 219.9 -71.45 215.3 -63.2 215.3 M-75.4 219.85 L-83.7 219.85 -83.65 215.25 -75.4 215.25 -75.4 219.85 M-87.6 215.25 L-87.65 219.85 -95.9 219.85 -95.9 215.25 -87.6 215.25" fill="#f9f309" fill-rule="evenodd" stroke="none"/>
  </g>
</svg>
