<?xml version="1.0" encoding="UTF-8" standalone="no"?>
<svg xmlns:xlink="http://www.w3.org/1999/xlink" height="11.4px" width="346.45px" xmlns="http://www.w3.org/2000/svg">
  <g transform="matrix(1.0, 0.0, 0.0, 1.0, 137.6, -1.7)">
    <g transform="matrix(1.0, 0.0, 0.0, 1.0, -138.35, 0.0)">
      <use fill="#000000" height="11.4" transform="matrix(0.2539, 0.0, 0.0, 0.2539, 0.0, 11.0)" width="346.45" xlink:href="#font_Franklin_Gothic_Condensed_I0"/>
      <use fill="#000000" height="11.4" transform="matrix(0.2539, 0.0, 0.0, 0.2539, 3.3, 11.0)" width="346.45" xlink:href="#font_Franklin_Gothic_Condensed_n0"/>
      <use fill="#000000" height="11.4" transform="matrix(0.2539, 0.0, 0.0, 0.2539, 12.7, 11.0)" width="346.45" xlink:href="#font_Franklin_Gothic_Condensed_j0"/>
      <use fill="#000000" height="11.4" transform="matrix(0.2539, 0.0, 0.0, 0.2539, 15.5, 11.0)" width="346.45" xlink:href="#font_Franklin_Gothic_Condensed_u0"/>
      <use fill="#000000" height="11.4" transform="matrix(0.2539, 0.0, 0.0, 0.2539, 21.7, 11.0)" width="346.45" xlink:href="#font_Franklin_Gothic_Condensed_s0"/>
      <use fill="#000000" height="11.4" transform="matrix(0.2539, 0.0, 0.0, 0.2539, 26.95, 11.0)" width="346.45" xlink:href="#font_Franklin_Gothic_Condensed_t0"/>
      <use fill="#000000" height="11.4" transform="matrix(0.2539, 0.0, 0.0, 0.2539, 33.95, 11.0)" width="346.45" xlink:href="#font_Franklin_Gothic_Condensed_a0"/>
      <use fill="#000000" height="11.4" transform="matrix(0.2539, 0.0, 0.0, 0.2539, 43.1, 11.0)" width="346.45" xlink:href="#font_Franklin_Gothic_Condensed_f0"/>
      <use fill="#000000" height="11.4" transform="matrix(0.2539, 0.0, 0.0, 0.2539, 46.65, 11.0)" width="346.45" xlink:href="#font_Franklin_Gothic_Condensed_e0"/>
      <use fill="#000000" height="11.4" transform="matrix(0.2539, 0.0, 0.0, 0.2539, 52.35, 11.0)" width="346.45" xlink:href="#font_Franklin_Gothic_Condensed_w0"/>
      <use fill="#000000" height="11.4" transform="matrix(0.2539, 0.0, 0.0, 0.2539, 63.2, 11.0)" width="346.45" xlink:href="#font_Franklin_Gothic_Condensed_m0"/>
      <use fill="#000000" height="11.4" transform="matrix(0.2539, 0.0, 0.0, 0.2539, 72.5, 11.0)" width="346.45" xlink:href="#font_Franklin_Gothic_Condensed_i0"/>
      <use fill="#000000" height="11.4" transform="matrix(0.2539, 0.0, 0.0, 0.2539, 75.35, 11.0)" width="346.45" xlink:href="#font_Franklin_Gothic_Condensed_n0"/>
      <use fill="#000000" height="11.4" transform="matrix(0.2539, 0.0, 0.0, 0.2539, 81.55, 11.0)" width="346.45" xlink:href="#font_Franklin_Gothic_Condensed_u0"/>
      <use fill="#000000" height="11.4" transform="matrix(0.2539, 0.0, 0.0, 0.2539, 87.75, 11.0)" width="346.45" xlink:href="#font_Franklin_Gothic_Condensed_t0"/>
      <use fill="#000000" height="11.4" transform="matrix(0.2539, 0.0, 0.0, 0.2539, 91.55, 11.0)" width="346.45" xlink:href="#font_Franklin_Gothic_Condensed_e0"/>
      <use fill="#000000" height="11.4" transform="matrix(0.2539, 0.0, 0.0, 0.2539, 97.25, 11.0)" width="346.45" xlink:href="#font_Franklin_Gothic_Condensed_s0"/>
      <use fill="#000000" height="11.4" transform="matrix(0.2539, 0.0, 0.0, 0.2539, 105.65, 11.0)" width="346.45" xlink:href="#font_Franklin_Gothic_Condensed_y0"/>
      <use fill="#000000" height="11.4" transform="matrix(0.2539, 0.0, 0.0, 0.2539, 110.65, 11.0)" width="346.45" xlink:href="#font_Franklin_Gothic_Condensed_o0"/>
      <use fill="#000000" height="11.4" transform="matrix(0.2539, 0.0, 0.0, 0.2539, 116.6, 11.0)" width="346.45" xlink:href="#font_Franklin_Gothic_Condensed_u0"/>
      <use fill="#000000" height="11.4" transform="matrix(0.2539, 0.0, 0.0, 0.2539, 122.8, 11.0)" width="346.45" xlink:href="#font_Franklin_Gothic_Condensed__1"/>
      <use fill="#000000" height="11.4" transform="matrix(0.2539, 0.0, 0.0, 0.2539, 126.0, 11.0)" width="346.45" xlink:href="#font_Franklin_Gothic_Condensed_l0"/>
      <use fill="#000000" height="11.4" transform="matrix(0.2539, 0.0, 0.0, 0.2539, 128.8, 11.0)" width="346.45" xlink:href="#font_Franklin_Gothic_Condensed_l0"/>
      <use fill="#000000" height="11.4" transform="matrix(0.2539, 0.0, 0.0, 0.2539, 134.85, 11.0)" width="346.45" xlink:href="#font_Franklin_Gothic_Condensed_b0"/>
      <use fill="#000000" height="11.4" transform="matrix(0.2539, 0.0, 0.0, 0.2539, 141.05, 11.0)" width="346.45" xlink:href="#font_Franklin_Gothic_Condensed_e0"/>
      <use fill="#000000" height="11.4" transform="matrix(0.2539, 0.0, 0.0, 0.2539, 149.95, 11.0)" width="346.45" xlink:href="#font_Franklin_Gothic_Condensed_p0"/>
      <use fill="#000000" height="11.4" transform="matrix(0.2539, 0.0, 0.0, 0.2539, 156.15, 11.0)" width="346.45" xlink:href="#font_Franklin_Gothic_Condensed_l0"/>
      <use fill="#000000" height="11.4" transform="matrix(0.2539, 0.0, 0.0, 0.2539, 158.95, 11.0)" width="346.45" xlink:href="#font_Franklin_Gothic_Condensed_a0"/>
      <use fill="#000000" height="11.4" transform="matrix(0.2539, 0.0, 0.0, 0.2539, 164.9, 11.0)" width="346.45" xlink:href="#font_Franklin_Gothic_Condensed_y0"/>
      <use fill="#000000" height="11.4" transform="matrix(0.2539, 0.0, 0.0, 0.2539, 169.9, 11.0)" width="346.45" xlink:href="#font_Franklin_Gothic_Condensed_i0"/>
      <use fill="#000000" height="11.4" transform="matrix(0.2539, 0.0, 0.0, 0.2539, 172.7, 11.0)" width="346.45" xlink:href="#font_Franklin_Gothic_Condensed_n0"/>
      <use fill="#000000" height="11.4" transform="matrix(0.2539, 0.0, 0.0, 0.2539, 178.9, 11.0)" width="346.45" xlink:href="#font_Franklin_Gothic_Condensed_g0"/>
      <use fill="#000000" height="11.4" transform="matrix(0.2539, 0.0, 0.0, 0.2539, 188.05, 11.0)" width="346.45" xlink:href="#font_Franklin_Gothic_Condensed_t0"/>
      <use fill="#000000" height="11.4" transform="matrix(0.2539, 0.0, 0.0, 0.2539, 191.85, 11.0)" width="346.45" xlink:href="#font_Franklin_Gothic_Condensed_h0"/>
      <use fill="#000000" height="11.4" transform="matrix(0.2539, 0.0, 0.0, 0.2539, 198.05, 11.0)" width="346.45" xlink:href="#font_Franklin_Gothic_Condensed_e0"/>
      <use fill="#000000" height="11.4" transform="matrix(0.2539, 0.0, 0.0, 0.2539, 206.95, 11.0)" width="346.45" xlink:href="#font_Franklin_Gothic_Condensed_b0"/>
      <use fill="#000000" height="11.4" transform="matrix(0.2539, 0.0, 0.0, 0.2539, 213.15, 11.0)" width="346.45" xlink:href="#font_Franklin_Gothic_Condensed_e0"/>
      <use fill="#000000" height="11.4" transform="matrix(0.2539, 0.0, 0.0, 0.2539, 218.85, 11.0)" width="346.45" xlink:href="#font_Franklin_Gothic_Condensed_s0"/>
      <use fill="#000000" height="11.4" transform="matrix(0.2539, 0.0, 0.0, 0.2539, 224.1, 11.0)" width="346.45" xlink:href="#font_Franklin_Gothic_Condensed_t0"/>
      <use fill="#000000" height="11.4" transform="matrix(0.2539, 0.0, 0.0, 0.2539, 231.1, 11.0)" width="346.45" xlink:href="#font_Franklin_Gothic_Condensed_g0"/>
      <use fill="#000000" height="11.4" transform="matrix(0.2539, 0.0, 0.0, 0.2539, 237.05, 11.0)" width="346.45" xlink:href="#font_Franklin_Gothic_Condensed_a0"/>
      <use fill="#000000" height="11.4" transform="matrix(0.2539, 0.0, 0.0, 0.2539, 243.0, 11.0)" width="346.45" xlink:href="#font_Franklin_Gothic_Condensed_m0"/>
      <use fill="#000000" height="11.4" transform="matrix(0.2539, 0.0, 0.0, 0.2539, 252.3, 11.0)" width="346.45" xlink:href="#font_Franklin_Gothic_Condensed_e0"/>
      <use fill="#000000" height="11.4" transform="matrix(0.2539, 0.0, 0.0, 0.2539, 261.25, 11.0)" width="346.45" xlink:href="#font_Franklin_Gothic_Condensed_i0"/>
      <use fill="#000000" height="11.4" transform="matrix(0.2539, 0.0, 0.0, 0.2539, 264.05, 11.0)" width="346.45" xlink:href="#font_Franklin_Gothic_Condensed_n0"/>
      <use fill="#000000" height="11.4" transform="matrix(0.2539, 0.0, 0.0, 0.2539, 273.45, 11.0)" width="346.45" xlink:href="#font_Franklin_Gothic_Condensed_t0"/>
      <use fill="#000000" height="11.4" transform="matrix(0.2539, 0.0, 0.0, 0.2539, 277.25, 11.0)" width="346.45" xlink:href="#font_Franklin_Gothic_Condensed_h0"/>
      <use fill="#000000" height="11.4" transform="matrix(0.2539, 0.0, 0.0, 0.2539, 283.45, 11.0)" width="346.45" xlink:href="#font_Franklin_Gothic_Condensed_e0"/>
      <use fill="#000000" height="11.4" transform="matrix(0.2539, 0.0, 0.0, 0.2539, 292.35, 11.0)" width="346.45" xlink:href="#font_Franklin_Gothic_Condensed_T0"/>
      <use fill="#000000" height="11.4" transform="matrix(0.2539, 0.0, 0.0, 0.2539, 297.35, 11.0)" width="346.45" xlink:href="#font_Franklin_Gothic_Condensed_o0"/>
      <use fill="#000000" height="11.4" transform="matrix(0.2539, 0.0, 0.0, 0.2539, 303.3, 11.0)" width="346.45" xlink:href="#font_Franklin_Gothic_Condensed_o0"/>
      <use fill="#000000" height="11.4" transform="matrix(0.2539, 0.0, 0.0, 0.2539, 309.3, 11.0)" width="346.45" xlink:href="#font_Franklin_Gothic_Condensed_n0"/>
      <use fill="#000000" height="11.4" transform="matrix(0.2539, 0.0, 0.0, 0.2539, 315.5, 11.0)" width="346.45" xlink:href="#font_Franklin_Gothic_Condensed_i0"/>
      <use fill="#000000" height="11.4" transform="matrix(0.2539, 0.0, 0.0, 0.2539, 318.3, 11.0)" width="346.45" xlink:href="#font_Franklin_Gothic_Condensed_v0"/>
      <use fill="#000000" height="11.4" transform="matrix(0.2539, 0.0, 0.0, 0.2539, 323.3, 11.0)" width="346.45" xlink:href="#font_Franklin_Gothic_Condensed_e0"/>
      <use fill="#000000" height="11.4" transform="matrix(0.2539, 0.0, 0.0, 0.2539, 329.0, 11.0)" width="346.45" xlink:href="#font_Franklin_Gothic_Condensed_r0"/>
      <use fill="#000000" height="11.4" transform="matrix(0.2539, 0.0, 0.0, 0.2539, 333.3, 11.0)" width="346.45" xlink:href="#font_Franklin_Gothic_Condensed_s0"/>
      <use fill="#000000" height="11.4" transform="matrix(0.2539, 0.0, 0.0, 0.2539, 338.5, 11.0)" width="346.45" xlink:href="#font_Franklin_Gothic_Condensed_e0"/>
      <use fill="#000000" height="11.4" transform="matrix(0.2539, 0.0, 0.0, 0.2539, 344.2, 11.0)" width="346.45" xlink:href="#font_Franklin_Gothic_Condensed_.0"/>
    </g>
  </g>
  <defs>
    <g id="font_Franklin_Gothic_Condensed_I0">
      <path d="M2.6 0.0 L2.6 0.0 11.8 0.0 11.8 -36.4 2.6 -36.4 2.6 0.0 2.6 0.0" fill-rule="evenodd" stroke="none"/>
    </g>
    <g id="font_Franklin_Gothic_Condensed_n0">
      <path d="M2.2 0.0 L2.2 0.0 10.6 0.0 10.6 -18.7 11.05 -19.35 Q11.85 -20.4 13.1 -20.4 15.15 -20.3 15.0 -18.1 L15.0 0.0 23.4 0.0 23.4 -20.45 Q23.15 -26.1 17.85 -26.4 13.3 -26.3 10.7 -22.2 L10.6 -22.2 10.6 -25.75 2.2 -25.75 2.2 0.0 2.2 0.0" fill-rule="evenodd" stroke="none"/>
    </g>
    <g id="font_Franklin_Gothic_Condensed_j0">
      <path d="M2.0 -29.0 L2.0 -29.0 10.4 -29.0 10.4 -36.35 2.0 -36.35 2.0 -29.0 2.0 -29.0 M2.0 -1.75 L2.0 -1.75 Q2.2 1.05 0.05 1.05 L-0.95 0.9 -0.95 7.6 3.4 7.25 Q6.05 6.85 8.15 5.0 10.3 3.15 10.4 -1.15 L10.4 -25.8 2.0 -25.8 2.0 -1.75 2.0 -1.75" fill-rule="evenodd" stroke="none"/>
    </g>
    <g id="font_Franklin_Gothic_Condensed_u0">
      <path d="M23.4 -25.8 L23.4 -25.8 15.0 -25.8 15.0 -7.05 14.6 -6.45 Q13.75 -5.35 12.5 -5.35 10.45 -5.5 10.6 -7.65 L10.6 -25.8 2.2 -25.8 2.2 -5.3 Q2.45 0.4 7.75 0.6 12.35 0.55 14.95 -3.4 L15.0 -3.4 15.0 0.0 23.4 0.0 23.4 -25.8 23.4 -25.8" fill-rule="evenodd" stroke="none"/>
    </g>
    <g id="font_Franklin_Gothic_Condensed_s0">
      <path d="M21.15 -19.25 L21.15 -19.25 Q19.9 -23.05 17.2 -24.75 14.45 -26.4 11.25 -26.4 5.8 -26.15 3.5 -23.35 1.15 -20.5 1.25 -18.25 1.45 -14.0 4.5 -12.35 7.55 -10.65 10.55 -9.75 13.6 -8.85 13.85 -6.85 13.7 -5.1 11.25 -5.0 9.5 -5.05 8.5 -6.1 7.5 -7.2 6.8 -8.7 L0.4 -6.7 Q1.45 -3.5 4.2 -1.45 6.95 0.55 11.25 0.6 15.9 0.6 18.7 -1.7 21.5 -4.0 21.6 -8.2 21.35 -12.25 18.35 -13.9 15.3 -15.55 12.25 -16.5 9.25 -17.45 9.0 -19.35 8.95 -20.8 11.4 -21.0 12.9 -20.95 13.8 -19.95 L15.3 -17.75 21.15 -19.25 21.15 -19.25" fill-rule="evenodd" stroke="none"/>
    </g>
    <g id="font_Franklin_Gothic_Condensed_t0">
      <path d="M2.8 -6.0 L2.8 -6.0 Q3.05 0.8 9.9 0.6 L15.75 -0.1 15.75 -6.2 13.85 -5.95 Q11.95 -6.0 11.55 -6.85 11.1 -7.7 11.2 -9.05 L11.2 -19.8 15.75 -19.8 15.75 -25.75 11.2 -25.75 11.2 -35.0 2.8 -35.0 2.8 -25.75 -0.55 -25.75 -0.55 -19.8 2.8 -19.8 2.8 -6.0 2.8 -6.0" fill-rule="evenodd" stroke="none"/>
    </g>
    <g id="font_Franklin_Gothic_Condensed_a0">
      <path d="M14.0 -6.6 L14.0 -6.6 Q12.55 -4.9 11.5 -5.0 9.3 -5.0 9.2 -7.75 9.2 -10.5 10.5 -11.35 11.75 -12.25 14.0 -12.4 L14.0 -6.6 14.0 -6.6 M14.0 -16.4 L14.0 -16.4 Q9.7 -16.35 5.4 -14.4 1.15 -12.4 0.8 -7.3 1.15 0.4 8.25 0.6 12.05 0.45 14.3 -2.4 14.35 -1.15 14.55 0.0 L23.15 0.0 Q22.55 -0.15 22.4 -4.15 L22.4 -18.4 Q22.25 -22.7 19.2 -24.55 16.1 -26.45 12.25 -26.4 8.7 -26.4 5.85 -24.7 2.95 -22.95 2.1 -19.1 L9.4 -17.65 Q9.5 -18.8 10.05 -19.85 10.65 -20.9 12.0 -21.0 14.05 -20.65 14.0 -18.0 L14.0 -16.4 14.0 -16.4" fill-rule="evenodd" stroke="none"/>
    </g>
    <g id="font_Franklin_Gothic_Condensed_f0">
      <path d="M2.8 0.0 L2.8 0.0 11.2 0.0 11.2 -19.8 15.7 -19.8 15.7 -25.75 11.2 -25.75 11.2 -28.5 Q11.1 -30.65 14.15 -30.6 L15.7 -30.4 15.7 -36.85 11.5 -37.15 Q7.35 -37.2 5.1 -35.2 2.85 -33.2 2.8 -28.55 L2.8 -25.75 -0.55 -25.75 -0.55 -19.8 2.8 -19.8 2.8 0.0 2.8 0.0" fill-rule="evenodd" stroke="none"/>
    </g>
    <g id="font_Franklin_Gothic_Condensed_e0">
      <path d="M9.2 -16.0 L9.2 -16.0 Q9.15 -17.85 9.85 -19.35 10.5 -20.9 12.2 -21.0 14.2 -20.9 14.75 -19.35 15.25 -17.85 15.25 -16.0 L9.2 -16.0 9.2 -16.0 M23.0 -11.0 L23.0 -11.0 23.0 -12.75 Q23.05 -18.0 20.6 -22.1 18.15 -26.15 12.25 -26.4 6.55 -26.25 3.7 -22.4 0.85 -18.55 0.8 -12.9 0.8 -7.4 3.6 -3.5 6.45 0.45 12.35 0.6 17.75 0.3 20.1 -2.5 22.45 -5.25 22.65 -6.45 L17.0 -8.45 Q16.0 -5.2 12.85 -5.0 10.55 -5.15 9.85 -7.15 9.15 -9.15 9.2 -11.0 L23.0 -11.0 23.0 -11.0" fill-rule="evenodd" stroke="none"/>
    </g>
    <g id="font_Franklin_Gothic_Condensed_w0">
      <path d="M5.45 0.0 L5.45 0.0 11.95 0.0 15.4 -14.4 15.55 -14.4 18.4 0.0 24.95 0.0 31.6 -25.75 25.65 -25.75 22.65 -12.55 22.55 -12.55 20.2 -25.8 13.2 -25.8 10.35 -12.55 10.25 -12.55 7.85 -25.8 -0.3 -25.8 5.45 0.0 5.45 0.0" fill-rule="evenodd" stroke="none"/>
    </g>
    <g id="font_Franklin_Gothic_Condensed_m0">
      <path d="M1.8 0.0 L1.8 0.0 10.2 0.0 10.2 -18.7 10.65 -19.35 Q11.5 -20.4 12.8 -20.4 15.0 -20.3 14.8 -18.1 L14.8 0.0 23.2 0.0 23.2 -18.7 23.65 -19.35 Q24.5 -20.4 25.8 -20.4 28.0 -20.3 27.8 -18.1 L27.8 0.0 36.2 0.0 36.2 -20.75 Q36.15 -23.6 34.55 -25.0 32.95 -26.35 30.35 -26.35 25.75 -26.3 23.0 -22.25 L22.9 -22.25 Q22.7 -24.15 21.15 -25.25 19.65 -26.35 17.65 -26.35 13.05 -26.15 10.3 -22.2 L10.2 -22.2 10.2 -25.75 1.8 -25.75 1.8 0.0 1.8 0.0" fill-rule="evenodd" stroke="none"/>
    </g>
    <g id="font_Franklin_Gothic_Condensed_i0">
      <path d="M2.0 -29.0 L2.0 -29.0 10.4 -29.0 10.4 -36.35 2.0 -36.35 2.0 -29.0 2.0 -29.0 M2.0 0.0 L2.0 0.0 10.4 0.0 10.4 -25.8 2.0 -25.8 2.0 0.0 2.0 0.0" fill-rule="evenodd" stroke="none"/>
    </g>
    <g id="font_Franklin_Gothic_Condensed_y0">
      <path d="M-0.4 -25.8 L-0.4 -25.8 6.3 -3.7 6.65 -1.45 Q6.6 0.3 5.25 1.0 3.95 1.65 2.0 1.65 L-0.25 1.4 -0.25 7.4 2.25 7.6 Q5.95 7.65 8.7 6.15 11.4 4.6 12.7 0.6 L21.4 -25.8 14.9 -25.8 11.35 -10.95 11.25 -10.95 8.2 -25.8 -0.4 -25.8 -0.4 -25.8" fill-rule="evenodd" stroke="none"/>
    </g>
    <g id="font_Franklin_Gothic_Condensed_o0">
      <path d="M9.4 -13.0 L9.4 -13.0 Q9.15 -21.35 12.4 -21.0 15.7 -21.35 15.4 -13.0 15.4 -8.25 14.7 -6.5 13.95 -4.7 12.4 -4.75 10.85 -4.7 10.15 -6.5 9.4 -8.25 9.4 -13.0 L9.4 -13.0 M0.8 -13.0 L0.8 -13.0 Q0.8 -6.95 3.65 -3.25 6.5 0.5 12.4 0.6 18.35 0.5 21.2 -3.25 24.05 -6.95 24.0 -13.0 24.0 -18.8 21.1 -22.5 18.25 -26.25 12.4 -26.4 6.6 -26.25 3.7 -22.5 0.8 -18.8 0.8 -13.0 L0.8 -13.0" fill-rule="evenodd" stroke="none"/>
    </g>
    <g id="font_Franklin_Gothic_Condensed__1">
      <path d="M3.4 -19.2 L3.4 -19.2 10.2 -19.2 10.2 -36.4 3.4 -36.4 3.4 -19.2 3.4 -19.2" fill-rule="evenodd" stroke="none"/>
    </g>
    <g id="font_Franklin_Gothic_Condensed_l0">
      <path d="M2.0 0.0 L2.0 0.0 10.4 0.0 10.4 -36.4 2.0 -36.4 2.0 0.0 2.0 0.0" fill-rule="evenodd" stroke="none"/>
    </g>
    <g id="font_Franklin_Gothic_Condensed_b0">
      <path d="M2.6 0.0 L2.6 0.0 6.95 0.0 8.5 -3.7 Q10.85 0.25 15.4 0.4 20.55 0.1 22.7 -4.2 24.9 -8.5 24.8 -13.2 24.8 -18.95 22.55 -22.6 20.3 -26.25 16.0 -26.4 13.25 -26.1 11.1 -24.2 L11.0 -24.2 11.0 -36.4 2.6 -36.4 2.6 0.0 2.6 0.0 M11.0 -20.3 L11.0 -20.3 11.45 -20.75 Q12.2 -21.6 13.7 -21.8 15.5 -21.8 15.9 -19.8 16.3 -17.85 16.2 -14.0 L16.2 -12.05 Q16.25 -8.45 15.8 -6.7 15.3 -4.95 13.65 -4.95 11.05 -5.0 11.0 -8.3 L11.0 -20.3 11.0 -20.3" fill-rule="evenodd" stroke="none"/>
    </g>
    <g id="font_Franklin_Gothic_Condensed_p0">
      <path d="M2.6 7.6 L2.6 7.6 11.0 7.6 11.0 -2.2 Q13.0 0.0 16.0 0.0 21.15 -0.25 23.0 -4.45 24.9 -8.7 24.8 -13.9 24.45 -25.95 16.5 -26.2 13.4 -25.9 10.8 -23.0 L10.7 -23.0 10.7 -25.8 2.6 -25.8 2.6 7.6 2.6 7.6 M11.0 -19.35 L11.0 -19.35 Q11.7 -21.1 13.9 -21.4 15.55 -21.4 15.9 -19.15 16.3 -16.9 16.2 -12.4 16.3 -8.85 15.85 -6.75 15.4 -4.65 13.5 -4.6 12.4 -4.45 11.0 -5.55 L11.0 -19.35 11.0 -19.35" fill-rule="evenodd" stroke="none"/>
    </g>
    <g id="font_Franklin_Gothic_Condensed_g0">
      <path d="M11.75 -22.6 L11.75 -22.6 Q13.35 -22.55 14.0 -21.25 14.65 -20.0 14.65 -18.4 14.65 -16.75 14.05 -15.4 13.45 -14.05 11.75 -13.95 10.2 -14.05 9.6 -15.35 8.95 -16.6 9.0 -18.05 8.95 -19.6 9.55 -21.05 10.1 -22.5 11.75 -22.6 L11.75 -22.6 M11.65 -1.2 L11.65 -1.2 15.0 -0.9 Q17.0 -0.55 17.25 1.05 17.05 2.6 15.15 2.95 L11.6 3.2 8.3 2.9 Q6.4 2.5 6.2 1.05 6.45 -0.55 8.5 -0.9 L11.65 -1.2 11.65 -1.2 M25.4 -27.95 L25.4 -27.95 Q23.4 -27.9 21.4 -26.8 19.35 -25.7 18.75 -24.5 15.8 -26.4 11.8 -26.35 8.4 -26.4 4.95 -24.5 1.5 -22.55 1.25 -18.2 1.2 -13.7 6.05 -11.5 L6.05 -11.4 Q4.35 -10.95 2.75 -9.65 1.15 -8.35 1.0 -6.45 1.15 -3.05 4.6 -2.2 L4.6 -2.1 Q2.7 -1.8 1.2 -0.8 -0.3 0.25 -0.35 2.25 -0.25 4.7 2.1 5.85 4.4 7.0 7.2 7.3 L11.6 7.6 Q17.35 7.6 20.85 5.6 24.3 3.55 24.4 -0.3 24.15 -5.0 20.45 -6.25 16.75 -7.55 12.85 -7.4 L9.3 -7.6 Q7.85 -7.9 7.8 -9.15 8.1 -10.05 8.7 -10.6 L12.2 -10.2 Q15.8 -10.2 19.0 -12.1 22.2 -14.05 22.4 -17.85 22.35 -20.2 21.0 -22.05 21.4 -22.55 22.45 -22.6 24.25 -22.5 25.4 -21.3 L25.4 -27.95 25.4 -27.95" fill-rule="evenodd" stroke="none"/>
    </g>
    <g id="font_Franklin_Gothic_Condensed_h0">
      <path d="M2.2 0.0 L2.2 0.0 10.6 0.0 10.6 -18.7 11.05 -19.35 Q11.85 -20.4 13.1 -20.4 15.15 -20.3 15.0 -18.1 L15.0 0.0 23.4 0.0 23.4 -20.45 Q23.15 -26.1 17.85 -26.35 13.3 -26.35 10.7 -22.2 L10.6 -22.2 10.6 -36.4 2.2 -36.4 2.2 0.0 2.2 0.0" fill-rule="evenodd" stroke="none"/>
    </g>
    <g id="font_Franklin_Gothic_Condensed_T0">
      <path d="M-0.45 -29.2 L-0.45 -29.2 7.8 -29.2 7.8 0.0 17.0 0.0 17.0 -29.2 25.25 -29.2 25.25 -36.35 -0.45 -36.35 -0.45 -29.2 -0.45 -29.2" fill-rule="evenodd" stroke="none"/>
    </g>
    <g id="font_Franklin_Gothic_Condensed_v0">
      <path d="M6.85 0.0 L6.85 0.0 13.15 0.0 21.4 -25.8 14.85 -25.8 11.25 -11.8 11.1 -11.8 8.2 -25.8 -0.4 -25.8 6.85 0.0 6.85 0.0" fill-rule="evenodd" stroke="none"/>
    </g>
    <g id="font_Franklin_Gothic_Condensed_r0">
      <path d="M2.2 0.0 L2.2 0.0 10.6 0.0 10.6 -16.6 Q11.15 -17.55 12.05 -18.1 L15.05 -18.6 Q16.75 -18.55 18.4 -17.9 L18.4 -26.35 Q15.85 -26.4 13.55 -25.3 11.3 -24.25 10.4 -21.8 L10.3 -21.8 10.45 -25.75 2.2 -25.75 2.2 0.0 2.2 0.0" fill-rule="evenodd" stroke="none"/>
    </g>
    <g id="font_Franklin_Gothic_Condensed_.0">
      <path d="M2.4 0.0 L2.4 0.0 11.4 0.0 11.4 -9.0 2.4 -9.0 2.4 0.0 2.4 0.0" fill-rule="evenodd" stroke="none"/>
    </g>
  </defs>
</svg>
