<?xml version="1.0" encoding="UTF-8" standalone="no"?>
<svg xmlns:xlink="http://www.w3.org/1999/xlink" height="37.9px" width="223.0px" xmlns="http://www.w3.org/2000/svg">
  <g transform="matrix(1.0, 0.0, 0.0, 1.0, 39.2, -6.05)">
    <g transform="matrix(1.0, 0.0, 0.0, 1.0, -39.45, 0.0)">
      <use fill="#000000" height="37.9" transform="matrix(0.8203, 0.0, 0.0, 0.8203, 0.0, 37.0)" width="223.0" xlink:href="#font_TradeGothic_CondEighteen_w0"/>
      <use fill="#000000" height="37.9" transform="matrix(0.8203, 0.0, 0.0, 0.8203, 22.7, 37.0)" width="223.0" xlink:href="#font_TradeGothic_CondEighteen_i0"/>
      <use fill="#000000" height="37.9" transform="matrix(0.8203, 0.0, 0.0, 0.8203, 31.35, 37.0)" width="223.0" xlink:href="#font_TradeGothic_CondEighteen_t0"/>
      <use fill="#000000" height="37.9" transform="matrix(0.8203, 0.0, 0.0, 0.8203, 42.35, 37.0)" width="223.0" xlink:href="#font_TradeGothic_CondEighteen_h0"/>
      <use fill="#000000" height="37.9" transform="matrix(0.8203, 0.0, 0.0, 0.8203, 68.85, 37.0)" width="223.0" xlink:href="#font_TradeGothic_CondEighteen_T0"/>
      <use fill="#000000" height="37.9" transform="matrix(0.8203, 0.0, 0.0, 0.8203, 84.5, 37.0)" width="223.0" xlink:href="#font_TradeGothic_CondEighteen_O0"/>
      <use fill="#000000" height="37.9" transform="matrix(0.8203, 0.0, 0.0, 0.8203, 104.8, 37.0)" width="223.0" xlink:href="#font_TradeGothic_CondEighteen_O0"/>
      <use fill="#000000" height="37.9" transform="matrix(0.8203, 0.0, 0.0, 0.8203, 125.1, 37.0)" width="223.0" xlink:href="#font_TradeGothic_CondEighteen_N0"/>
      <use fill="#000000" height="37.9" transform="matrix(0.8203, 0.0, 0.0, 0.8203, 154.0, 37.0)" width="223.0" xlink:href="#font_TradeGothic_CondEighteen_s0"/>
      <use fill="#000000" height="37.9" transform="matrix(0.8203, 0.0, 0.0, 0.8203, 169.65, 37.0)" width="223.0" xlink:href="#font_TradeGothic_CondEighteen_t0"/>
      <use fill="#000000" height="37.9" transform="matrix(0.8203, 0.0, 0.0, 0.8203, 180.6, 37.0)" width="223.0" xlink:href="#font_TradeGothic_CondEighteen_y0"/>
      <use fill="#000000" height="37.9" transform="matrix(0.8203, 0.0, 0.0, 0.8203, 196.2, 37.0)" width="223.0" xlink:href="#font_TradeGothic_CondEighteen_l0"/>
      <use fill="#000000" height="37.9" transform="matrix(0.8203, 0.0, 0.0, 0.8203, 204.8, 37.0)" width="223.0" xlink:href="#font_TradeGothic_CondEighteen_e0"/>
    </g>
  </g>
  <defs>
    <g id="font_TradeGothic_CondEighteen_w0">
      <path d="M9.25 -10.35 L9.25 -10.35 9.15 -10.35 6.35 -27.6 0.25 -27.6 6.15 0.0 11.2 0.0 15.35 -17.45 15.45 -17.45 18.9 0.0 24.0 0.0 31.0 -27.6 24.9 -27.6 21.45 -10.35 21.35 -10.35 17.95 -27.55 13.25 -27.55 9.25 -10.35 9.25 -10.35" fill-rule="evenodd" stroke="none"/>
    </g>
    <g id="font_TradeGothic_CondEighteen_i0">
      <path d="M9.45 -31.75 L9.45 -31.75 9.45 -36.95 3.1 -36.95 3.1 -31.75 9.45 -31.75 9.45 -31.75 M9.45 0.0 L9.45 0.0 9.45 -27.6 3.1 -27.6 3.1 0.0 9.45 0.0 9.45 0.0" fill-rule="evenodd" stroke="none"/>
    </g>
    <g id="font_TradeGothic_CondEighteen_t0">
      <path d="M3.95 -22.8 L3.95 -22.8 3.95 -5.95 Q4.1 0.45 11.4 0.4 L14.6 0.1 14.6 -4.95 12.5 -4.95 Q10.3 -5.0 10.35 -7.2 L10.35 -22.8 14.6 -22.8 14.6 -27.6 10.35 -27.6 10.35 -35.0 3.95 -35.0 3.95 -27.6 0.5 -27.6 0.5 -22.8 3.95 -22.8 3.95 -22.8" fill-rule="evenodd" stroke="none"/>
    </g>
    <g id="font_TradeGothic_CondEighteen_h0">
      <path d="M9.45 0.0 L9.45 0.0 9.45 -21.45 Q11.55 -23.05 13.45 -23.2 15.5 -23.25 15.65 -21.2 L15.65 0.0 22.0 0.0 22.0 -22.1 Q21.85 -27.75 16.65 -28.0 14.05 -27.95 12.55 -27.1 L9.45 -24.85 9.45 -37.0 3.1 -37.0 3.1 0.0 9.45 0.0 9.45 0.0" fill-rule="evenodd" stroke="none"/>
    </g>
    <g id="font_TradeGothic_CondEighteen_T0">
      <path d="M7.5 0.0 L7.5 0.0 14.55 0.0 14.55 -31.4 21.3 -31.4 21.3 -37.0 0.75 -37.0 0.75 -31.4 7.5 -31.4 7.5 0.0 7.5 0.0" fill-rule="evenodd" stroke="none"/>
    </g>
    <g id="font_TradeGothic_CondEighteen_O0">
      <path d="M10.35 -27.75 L10.35 -27.75 Q10.1 -31.8 14.1 -31.8 18.1 -31.8 17.85 -27.75 L17.85 -9.25 Q18.1 -5.15 14.1 -5.2 10.1 -5.15 10.35 -9.25 L10.35 -27.75 10.35 -27.75 M3.3 -9.1 L3.3 -9.1 Q3.3 -5.1 5.95 -2.4 8.6 0.3 14.1 0.4 19.6 0.3 22.25 -2.4 24.9 -5.1 24.85 -9.1 L24.85 -27.9 Q24.9 -31.9 22.25 -34.6 19.6 -37.3 14.1 -37.4 8.6 -37.3 5.95 -34.6 3.3 -31.9 3.3 -27.9 L3.3 -9.1 3.3 -9.1" fill-rule="evenodd" stroke="none"/>
    </g>
    <g id="font_TradeGothic_CondEighteen_N0">
      <path d="M9.7 0.0 L9.7 0.0 9.7 -23.1 9.8 -23.1 18.7 0.0 24.85 0.0 24.85 -37.0 18.5 -37.0 18.5 -15.8 18.4 -15.8 9.85 -37.0 3.3 -37.0 3.3 0.0 9.7 0.0 9.7 0.0" fill-rule="evenodd" stroke="none"/>
    </g>
    <g id="font_TradeGothic_CondEighteen_s0">
      <path d="M19.9 -20.65 L19.9 -20.65 Q19.15 -23.9 16.75 -25.9 14.35 -27.95 10.7 -28.0 7.1 -27.95 4.7 -25.9 2.35 -23.9 2.25 -20.6 2.45 -16.95 5.25 -14.75 8.05 -12.55 10.85 -10.75 13.7 -9.0 13.9 -6.75 13.7 -4.45 11.25 -4.4 9.25 -4.45 8.35 -5.65 7.45 -6.9 7.2 -8.65 L1.55 -7.3 Q3.0 0.15 11.2 0.4 15.05 0.4 17.5 -1.5 19.95 -3.35 20.0 -7.05 19.8 -11.0 17.0 -13.3 14.2 -15.65 11.35 -17.3 8.55 -19.0 8.35 -21.05 8.5 -23.15 10.95 -23.2 13.8 -23.15 14.4 -19.8 L19.9 -20.65 19.9 -20.65" fill-rule="evenodd" stroke="none"/>
    </g>
    <g id="font_TradeGothic_CondEighteen_y0">
      <path d="M11.1 -9.9 L11.1 -9.9 11.0 -9.9 6.9 -27.6 0.45 -27.6 7.1 -4.1 Q7.7 -2.15 7.75 -0.45 8.05 4.0 3.6 4.0 L2.05 4.0 2.05 8.8 4.7 8.8 Q8.25 8.85 10.3 7.35 12.4 5.85 13.35 2.1 L21.35 -27.6 14.95 -27.6 11.1 -9.9 11.1 -9.9" fill-rule="evenodd" stroke="none"/>
    </g>
    <g id="font_TradeGothic_CondEighteen_l0">
      <path d="M9.45 0.0 L9.45 0.0 9.45 -37.0 3.1 -37.0 3.1 0.0 9.45 0.0 9.45 0.0" fill-rule="evenodd" stroke="none"/>
    </g>
    <g id="font_TradeGothic_CondEighteen_e0">
      <path d="M22.45 -17.8 L22.45 -17.8 Q22.5 -22.3 20.25 -25.1 17.95 -27.9 12.55 -28.0 7.15 -27.9 4.85 -25.1 2.6 -22.3 2.65 -17.8 L2.65 -9.7 Q2.6 -5.25 4.85 -2.45 7.15 0.35 12.55 0.4 17.85 0.35 20.15 -2.35 22.45 -5.0 22.45 -9.35 L16.05 -9.35 16.05 -8.75 Q16.0 -4.25 12.55 -4.4 9.1 -4.25 9.05 -8.75 L9.05 -12.6 22.45 -12.6 22.45 -17.8 22.45 -17.8 M9.05 -17.4 L9.05 -17.4 9.05 -18.8 Q9.1 -23.3 12.55 -23.2 16.0 -23.3 16.05 -18.8 L16.05 -17.4 9.05 -17.4 9.05 -17.4" fill-rule="evenodd" stroke="none"/>
    </g>
  </defs>
</svg>
