<?xml version="1.0" encoding="UTF-8" standalone="no"?>
<svg xmlns:xlink="http://www.w3.org/1999/xlink" height="54.2px" width="124.8px" xmlns="http://www.w3.org/2000/svg">
  <g transform="matrix(1.0, 0.0, 0.0, 1.0, -13.65, -11.45)">
    <g transform="matrix(1.0, 0.0, 0.0, 1.0, 8.75, 0.0)">
      <use fill="#000000" height="54.2" transform="matrix(1.4648, 0.0, 0.0, 1.4648, 0.0, 66.0)" width="124.8" xlink:href="#font_TradeGothic_CondEighteen_P0"/>
      <use fill="#000000" height="54.2" transform="matrix(1.4648, 0.0, 0.0, 1.4648, 36.8, 66.0)" width="124.8" xlink:href="#font_TradeGothic_CondEighteen_L0"/>
      <use fill="#000000" height="54.2" transform="matrix(1.4648, 0.0, 0.0, 1.4648, 65.25, 66.0)" width="124.8" xlink:href="#font_TradeGothic_CondEighteen_A0"/>
      <use fill="#000000" height="54.2" transform="matrix(1.4648, 0.0, 0.0, 1.4648, 93.75, 66.0)" width="124.8" xlink:href="#font_TradeGothic_CondEighteen_Y0"/>
    </g>
  </g>
  <defs>
    <g id="font_TradeGothic_CondEighteen_P0">
      <path d="M10.35 0.0 L10.35 0.0 10.35 -15.0 13.35 -15.0 Q19.8 -14.95 22.9 -17.55 26.0 -20.15 25.95 -26.0 26.0 -31.85 22.9 -34.45 19.8 -37.0 13.35 -36.95 L3.3 -36.95 3.3 0.0 10.35 0.0 10.35 0.0 M10.35 -31.6 L10.35 -31.6 13.05 -31.6 Q16.35 -31.65 17.65 -30.45 19.0 -29.2 18.95 -26.0 19.0 -22.8 17.65 -21.55 16.35 -20.3 13.05 -20.35 L10.35 -20.35 10.35 -31.6 10.35 -31.6" fill-rule="evenodd" stroke="none"/>
    </g>
    <g id="font_TradeGothic_CondEighteen_L0">
      <path d="M21.1 0.0 L21.1 0.0 21.1 -5.6 10.15 -5.6 10.15 -37.0 3.1 -37.0 3.1 0.0 21.1 0.0 21.1 0.0" fill-rule="evenodd" stroke="none"/>
    </g>
    <g id="font_TradeGothic_CondEighteen_A0">
      <path d="M8.7 -8.2 L8.7 -8.2 16.4 -8.2 17.65 0.0 24.4 0.0 16.9 -36.95 8.2 -36.95 0.7 0.0 7.45 0.0 8.7 -8.2 8.7 -8.2 M12.5 -29.6 L12.5 -29.6 12.6 -29.6 15.4 -13.8 9.75 -13.8 12.5 -29.6 12.5 -29.6" fill-rule="evenodd" stroke="none"/>
    </g>
    <g id="font_TradeGothic_CondEighteen_Y0">
      <path d="M16.05 -15.35 L16.05 -15.35 24.5 -37.0 17.4 -37.0 12.7 -22.9 12.6 -22.9 7.7 -37.0 0.6 -37.0 9.05 -15.35 9.05 0.0 16.05 0.0 16.05 -15.35 16.05 -15.35" fill-rule="evenodd" stroke="none"/>
    </g>
  </defs>
</svg>
