<?xml version="1.0" encoding="UTF-8" standalone="no"?>
<svg xmlns:xlink="http://www.w3.org/1999/xlink" height="35.8px" width="170.7px" xmlns="http://www.w3.org/2000/svg">
  <g transform="matrix(1.0, 0.0, 0.0, 1.0, 12.3, -7.5)">
    <g transform="matrix(1.0, 0.0, 0.0, 1.0, -14.25, 0.0)">
      <use fill="#ffffff" height="35.8" transform="matrix(0.957, 0.0, 0.0, 0.957, 0.0, 43.0)" width="170.7" xlink:href="#font_TradeGothic_CondEighteen_a0"/>
      <use fill="#ffffff" height="35.8" transform="matrix(0.957, 0.0, 0.0, 0.957, 31.65, 43.0)" width="170.7" xlink:href="#font_TradeGothic_CondEighteen_m0"/>
      <use fill="#ffffff" height="35.8" transform="matrix(0.957, 0.0, 0.0, 0.957, 63.8, 43.0)" width="170.7" xlink:href="#font_TradeGothic_CondEighteen_a0"/>
      <use fill="#ffffff" height="35.8" transform="matrix(0.957, 0.0, 0.0, 0.957, 85.05, 43.0)" width="170.7" xlink:href="#font_TradeGothic_CondEighteen_s0"/>
      <use fill="#ffffff" height="35.8" transform="matrix(0.957, 0.0, 0.0, 0.957, 103.6, 43.0)" width="170.7" xlink:href="#font_TradeGothic_CondEighteen_s0"/>
      <use fill="#ffffff" height="35.8" transform="matrix(0.957, 0.0, 0.0, 0.957, 122.15, 43.0)" width="170.7" xlink:href="#font_TradeGothic_CondEighteen_i0"/>
      <use fill="#ffffff" height="35.8" transform="matrix(0.957, 0.0, 0.0, 0.957, 132.55, 43.0)" width="170.7" xlink:href="#font_TradeGothic_CondEighteen_v0"/>
      <use fill="#ffffff" height="35.8" transform="matrix(0.957, 0.0, 0.0, 0.957, 151.1, 43.0)" width="170.7" xlink:href="#font_TradeGothic_CondEighteen_e0"/>
    </g>
  </g>
  <defs>
    <g id="font_TradeGothic_CondEighteen_a0">
      <path d="M15.4 -6.95 L15.4 -6.95 Q13.85 -4.65 11.25 -4.4 8.4 -4.3 8.35 -6.9 8.3 -8.65 9.75 -10.3 11.25 -12.0 15.4 -14.15 L15.4 -6.95 15.4 -6.95 M8.8 -19.35 L8.8 -19.35 Q8.55 -23.0 12.35 -23.2 15.45 -23.15 15.4 -19.7 L15.4 -18.1 Q8.7 -16.05 5.35 -13.2 2.0 -10.35 2.0 -5.85 2.0 -3.15 3.6 -1.4 5.25 0.35 8.5 0.4 12.6 0.55 15.75 -2.2 L16.1 0.0 22.2 0.0 Q21.85 -1.55 21.8 -2.95 L21.8 -20.45 Q21.55 -28.0 12.6 -28.0 3.35 -27.85 2.45 -19.35 L8.8 -19.35 8.8 -19.35" fill-rule="evenodd" stroke="none"/>
    </g>
    <g id="font_TradeGothic_CondEighteen_m0">
      <path d="M22.0 0.0 L22.0 0.0 22.0 -21.45 Q24.0 -23.05 25.95 -23.2 28.0 -23.25 28.15 -21.2 L28.15 0.0 34.55 0.0 34.55 -22.1 Q34.55 -27.75 28.55 -28.0 26.9 -28.1 25.35 -27.45 23.8 -26.75 21.6 -24.8 20.65 -26.4 19.5 -27.2 18.35 -28.0 16.05 -28.0 13.9 -28.05 12.45 -27.2 L9.15 -24.8 9.15 -27.55 3.1 -27.55 3.1 0.0 9.45 0.0 9.45 -21.45 Q11.55 -23.05 13.45 -23.2 15.45 -23.25 15.65 -21.2 L15.65 0.0 22.0 0.0 22.0 0.0" fill-rule="evenodd" stroke="none"/>
    </g>
    <g id="font_TradeGothic_CondEighteen_s0">
      <path d="M19.9 -20.65 L19.9 -20.65 Q19.15 -23.9 16.75 -25.9 14.35 -27.95 10.7 -28.0 7.1 -27.95 4.7 -25.9 2.35 -23.9 2.25 -20.6 2.45 -16.95 5.25 -14.75 8.05 -12.55 10.85 -10.75 13.7 -9.0 13.9 -6.75 13.7 -4.45 11.25 -4.4 9.25 -4.45 8.35 -5.65 7.45 -6.9 7.2 -8.65 L1.55 -7.3 Q3.0 0.15 11.2 0.4 15.05 0.4 17.5 -1.5 19.95 -3.35 20.0 -7.05 19.8 -11.0 17.0 -13.3 14.2 -15.65 11.35 -17.3 8.55 -19.0 8.35 -21.05 8.5 -23.15 10.95 -23.2 13.8 -23.15 14.4 -19.8 L19.9 -20.65 19.9 -20.65" fill-rule="evenodd" stroke="none"/>
    </g>
    <g id="font_TradeGothic_CondEighteen_i0">
      <path d="M9.45 -31.75 L9.45 -31.75 9.45 -36.95 3.1 -36.95 3.1 -31.75 9.45 -31.75 9.45 -31.75 M9.45 0.0 L9.45 0.0 9.45 -27.6 3.1 -27.6 3.1 0.0 9.45 0.0 9.45 0.0" fill-rule="evenodd" stroke="none"/>
    </g>
    <g id="font_TradeGothic_CondEighteen_v0">
      <path d="M10.95 -9.1 L10.95 -9.1 10.8 -9.1 6.9 -27.6 0.45 -27.6 7.8 0.0 14.0 0.0 21.35 -27.6 14.9 -27.6 10.95 -9.1 10.95 -9.1" fill-rule="evenodd" stroke="none"/>
    </g>
    <g id="font_TradeGothic_CondEighteen_e0">
      <path d="M22.45 -17.8 L22.45 -17.8 Q22.5 -22.3 20.25 -25.1 17.95 -27.9 12.55 -28.0 7.15 -27.9 4.85 -25.1 2.6 -22.3 2.65 -17.8 L2.65 -9.7 Q2.6 -5.25 4.85 -2.45 7.15 0.35 12.55 0.4 17.85 0.35 20.15 -2.35 22.45 -5.0 22.45 -9.35 L16.05 -9.35 16.05 -8.75 Q16.0 -4.25 12.55 -4.4 9.1 -4.25 9.05 -8.75 L9.05 -12.6 22.45 -12.6 22.45 -17.8 22.45 -17.8 M9.05 -17.4 L9.05 -17.4 9.05 -18.8 Q9.1 -23.3 12.55 -23.2 16.0 -23.3 16.05 -18.8 L16.05 -17.4 9.05 -17.4 9.05 -17.4" fill-rule="evenodd" stroke="none"/>
    </g>
  </defs>
</svg>
