<?xml version="1.0" encoding="UTF-8" standalone="no"?>
<svg xmlns:xlink="http://www.w3.org/1999/xlink" height="17.5px" width="245.35px" xmlns="http://www.w3.org/2000/svg">
  <g transform="matrix(1.0, 0.0, 0.0, 1.0, 50.45, -3.45)">
    <g transform="matrix(1.0, 0.0, 0.0, 1.0, -51.6, 0.0)">
      <use fill="#ffffff" height="17.5" transform="matrix(0.3906, 0.0, 0.0, 0.3906, 0.0, 18.0)" width="245.35" xlink:href="#font_Franklin_Gothic_Condensed_D0"/>
      <use fill="#ffffff" height="17.5" transform="matrix(0.3906, 0.0, 0.0, 0.3906, 11.0, 18.0)" width="245.35" xlink:href="#font_Franklin_Gothic_Condensed_e0"/>
      <use fill="#ffffff" height="17.5" transform="matrix(0.3906, 0.0, 0.0, 0.3906, 19.75, 18.0)" width="245.35" xlink:href="#font_Franklin_Gothic_Condensed_f0"/>
      <use fill="#ffffff" height="17.5" transform="matrix(0.3906, 0.0, 0.0, 0.3906, 25.2, 18.0)" width="245.35" xlink:href="#font_Franklin_Gothic_Condensed_e0"/>
      <use fill="#ffffff" height="17.5" transform="matrix(0.3906, 0.0, 0.0, 0.3906, 34.0, 18.0)" width="245.35" xlink:href="#font_Franklin_Gothic_Condensed_n0"/>
      <use fill="#ffffff" height="17.5" transform="matrix(0.3906, 0.0, 0.0, 0.3906, 43.5, 18.0)" width="245.35" xlink:href="#font_Franklin_Gothic_Condensed_d0"/>
      <use fill="#ffffff" height="17.5" transform="matrix(0.3906, 0.0, 0.0, 0.3906, 57.85, 18.0)" width="245.35" xlink:href="#font_Franklin_Gothic_Condensed_T0"/>
      <use fill="#ffffff" height="17.5" transform="matrix(0.3906, 0.0, 0.0, 0.3906, 65.5, 18.0)" width="245.35" xlink:href="#font_Franklin_Gothic_Condensed_o0"/>
      <use fill="#ffffff" height="17.5" transform="matrix(0.3906, 0.0, 0.0, 0.3906, 74.65, 18.0)" width="245.35" xlink:href="#font_Franklin_Gothic_Condensed_o0"/>
      <use fill="#ffffff" height="17.5" transform="matrix(0.3906, 0.0, 0.0, 0.3906, 83.8, 18.0)" width="245.35" xlink:href="#font_Franklin_Gothic_Condensed_n0"/>
      <use fill="#ffffff" height="17.5" transform="matrix(0.3906, 0.0, 0.0, 0.3906, 93.3, 18.0)" width="245.35" xlink:href="#font_Franklin_Gothic_Condensed_t0"/>
      <use fill="#ffffff" height="17.5" transform="matrix(0.3906, 0.0, 0.0, 0.3906, 99.1, 18.0)" width="245.35" xlink:href="#font_Franklin_Gothic_Condensed_o0"/>
      <use fill="#ffffff" height="17.5" transform="matrix(0.3906, 0.0, 0.0, 0.3906, 108.25, 18.0)" width="245.35" xlink:href="#font_Franklin_Gothic_Condensed_w0"/>
      <use fill="#ffffff" height="17.5" transform="matrix(0.3906, 0.0, 0.0, 0.3906, 119.95, 18.0)" width="245.35" xlink:href="#font_Franklin_Gothic_Condensed_n0"/>
      <use fill="#ffffff" height="17.5" transform="matrix(0.3906, 0.0, 0.0, 0.3906, 134.3, 18.0)" width="245.35" xlink:href="#font_Franklin_Gothic_Condensed_f0"/>
      <use fill="#ffffff" height="17.5" transform="matrix(0.3906, 0.0, 0.0, 0.3906, 139.75, 18.0)" width="245.35" xlink:href="#font_Franklin_Gothic_Condensed_r0"/>
      <use fill="#ffffff" height="17.5" transform="matrix(0.3906, 0.0, 0.0, 0.3906, 146.3, 18.0)" width="245.35" xlink:href="#font_Franklin_Gothic_Condensed_o0"/>
      <use fill="#ffffff" height="17.5" transform="matrix(0.3906, 0.0, 0.0, 0.3906, 155.45, 18.0)" width="245.35" xlink:href="#font_Franklin_Gothic_Condensed_m0"/>
      <use fill="#ffffff" height="17.5" transform="matrix(0.3906, 0.0, 0.0, 0.3906, 174.6, 18.0)" width="245.35" xlink:href="#font_Franklin_Gothic_Condensed_t0"/>
      <use fill="#ffffff" height="17.5" transform="matrix(0.3906, 0.0, 0.0, 0.3906, 180.4, 18.0)" width="245.35" xlink:href="#font_Franklin_Gothic_Condensed_h0"/>
      <use fill="#ffffff" height="17.5" transform="matrix(0.3906, 0.0, 0.0, 0.3906, 189.9, 18.0)" width="245.35" xlink:href="#font_Franklin_Gothic_Condensed_e0"/>
      <use fill="#ffffff" height="17.5" transform="matrix(0.3906, 0.0, 0.0, 0.3906, 203.5, 18.0)" width="245.35" xlink:href="#font_Franklin_Gothic_Condensed_C0"/>
      <use fill="#ffffff" height="17.5" transform="matrix(0.3906, 0.0, 0.0, 0.3906, 214.15, 18.0)" width="245.35" xlink:href="#font_Franklin_Gothic_Condensed_o0"/>
      <use fill="#ffffff" height="17.5" transform="matrix(0.3906, 0.0, 0.0, 0.3906, 223.3, 18.0)" width="245.35" xlink:href="#font_Franklin_Gothic_Condensed_g0"/>
      <use fill="#ffffff" height="17.5" transform="matrix(0.3906, 0.0, 0.0, 0.3906, 232.4, 18.0)" width="245.35" xlink:href="#font_Franklin_Gothic_Condensed_s0"/>
      <use fill="#ffffff" height="17.5" transform="matrix(0.3906, 0.0, 0.0, 0.3906, 240.45, 18.0)" width="245.35" xlink:href="#font_Franklin_Gothic_Condensed__1"/>
    </g>
  </g>
  <defs>
    <g id="font_Franklin_Gothic_Condensed_D0">
      <path d="M12.75 -29.8 L12.75 -29.8 13.6 -29.8 Q18.4 -29.55 19.75 -26.0 21.1 -22.5 20.9 -19.1 21.15 -15.2 20.05 -11.05 18.95 -6.9 13.9 -6.55 L12.75 -6.55 12.75 -29.8 12.75 -29.8 M2.65 0.0 L2.65 0.0 14.85 0.0 Q23.95 -0.2 27.95 -5.55 32.0 -10.85 31.9 -18.75 31.95 -26.75 27.4 -31.5 22.9 -36.25 13.6 -36.35 L2.65 -36.35 2.65 0.0 2.65 0.0" fill-rule="evenodd" stroke="none"/>
    </g>
    <g id="font_Franklin_Gothic_Condensed_e0">
      <path d="M10.1 -16.0 L10.1 -16.0 Q10.1 -17.85 10.8 -19.35 11.55 -20.9 13.4 -21.0 15.65 -20.9 16.2 -19.35 16.8 -17.85 16.75 -16.0 L10.1 -16.0 10.1 -16.0 M25.3 -11.0 L25.3 -11.0 25.3 -12.75 Q25.35 -18.0 22.65 -22.1 19.95 -26.15 13.45 -26.4 7.2 -26.25 4.05 -22.4 0.9 -18.55 0.9 -12.9 0.9 -7.4 4.0 -3.5 7.1 0.45 13.55 0.6 19.55 0.3 22.1 -2.5 24.7 -5.25 24.9 -6.45 L18.7 -8.45 Q17.6 -5.2 14.1 -5.0 11.6 -5.15 10.8 -7.15 10.05 -9.15 10.1 -11.0 L25.3 -11.0 25.3 -11.0" fill-rule="evenodd" stroke="none"/>
    </g>
    <g id="font_Franklin_Gothic_Condensed_f0">
      <path d="M3.1 0.0 L3.1 0.0 12.3 0.0 12.3 -19.8 17.3 -19.8 17.3 -25.75 12.3 -25.75 12.3 -28.5 Q12.2 -30.65 15.6 -30.6 L17.3 -30.4 17.3 -36.85 12.65 -37.15 Q8.05 -37.2 5.6 -35.2 3.15 -33.2 3.1 -28.55 L3.1 -25.75 -0.6 -25.75 -0.6 -19.8 3.1 -19.8 3.1 0.0 3.1 0.0" fill-rule="evenodd" stroke="none"/>
    </g>
    <g id="font_Franklin_Gothic_Condensed_n0">
      <path d="M2.45 0.0 L2.45 0.0 11.65 0.0 11.65 -18.7 12.15 -19.35 Q13.05 -20.4 14.4 -20.4 16.7 -20.3 16.5 -18.1 L16.5 0.0 25.75 0.0 25.75 -20.45 Q25.45 -26.1 19.65 -26.4 14.6 -26.3 11.75 -22.2 L11.65 -22.2 11.65 -25.75 2.45 -25.75 2.45 0.0 2.45 0.0" fill-rule="evenodd" stroke="none"/>
    </g>
    <g id="font_Franklin_Gothic_Condensed_d0">
      <path d="M16.1 -6.5 L16.1 -6.5 Q14.95 -4.7 12.85 -4.6 11.1 -4.65 10.7 -6.9 10.3 -9.2 10.35 -13.2 10.25 -15.65 10.7 -18.2 11.1 -20.8 13.25 -21.0 15.3 -20.9 16.1 -19.8 L16.1 -6.5 16.1 -6.5 M25.3 -36.4 L25.3 -36.4 16.1 -36.4 16.1 -23.4 Q13.85 -25.75 10.25 -25.75 4.95 -25.6 2.9 -21.55 0.8 -17.5 0.9 -11.85 0.9 -6.8 3.05 -3.3 5.2 0.25 9.7 0.4 L13.1 -0.1 Q14.55 -0.7 16.5 -2.45 L16.6 -2.45 16.6 0.0 25.3 0.0 25.3 -36.4 25.3 -36.4" fill-rule="evenodd" stroke="none"/>
    </g>
    <g id="font_Franklin_Gothic_Condensed_T0">
      <path d="M-0.45 -29.2 L-0.45 -29.2 8.6 -29.2 8.6 0.0 18.7 0.0 18.7 -29.2 27.8 -29.2 27.8 -36.35 -0.45 -36.35 -0.45 -29.2 -0.45 -29.2" fill-rule="evenodd" stroke="none"/>
    </g>
    <g id="font_Franklin_Gothic_Condensed_o0">
      <path d="M10.35 -13.0 L10.35 -13.0 Q10.05 -21.35 13.65 -21.0 17.25 -21.35 16.95 -13.0 16.95 -8.25 16.15 -6.5 15.35 -4.7 13.65 -4.75 11.95 -4.7 11.15 -6.5 10.35 -8.25 10.35 -13.0 L10.35 -13.0 M0.9 -13.0 L0.9 -13.0 Q0.85 -6.95 4.0 -3.25 7.15 0.5 13.65 0.6 20.15 0.5 23.3 -3.25 26.45 -6.95 26.4 -13.0 26.4 -18.8 23.25 -22.5 20.05 -26.25 13.65 -26.4 7.25 -26.25 4.05 -22.5 0.9 -18.8 0.9 -13.0 L0.9 -13.0" fill-rule="evenodd" stroke="none"/>
    </g>
    <g id="font_Franklin_Gothic_Condensed_t0">
      <path d="M3.1 -6.0 L3.1 -6.0 Q3.35 0.8 10.9 0.6 L17.35 -0.1 17.35 -6.2 15.25 -5.95 Q13.15 -6.0 12.7 -6.85 12.25 -7.7 12.3 -9.05 L12.3 -19.8 17.35 -19.8 17.35 -25.75 12.3 -25.75 12.3 -35.0 3.1 -35.0 3.1 -25.75 -0.6 -25.75 -0.6 -19.8 3.1 -19.8 3.1 -6.0 3.1 -6.0" fill-rule="evenodd" stroke="none"/>
    </g>
    <g id="font_Franklin_Gothic_Condensed_w0">
      <path d="M6.0 0.0 L6.0 0.0 13.15 0.0 16.95 -14.4 17.1 -14.4 20.25 0.0 27.45 0.0 34.75 -25.75 28.25 -25.75 24.9 -12.55 24.8 -12.55 22.2 -25.8 14.55 -25.8 11.4 -12.55 11.3 -12.55 8.65 -25.8 -0.35 -25.8 6.0 0.0 6.0 0.0" fill-rule="evenodd" stroke="none"/>
    </g>
    <g id="font_Franklin_Gothic_Condensed_r0">
      <path d="M2.45 0.0 L2.45 0.0 11.65 0.0 11.65 -16.6 Q12.25 -17.55 13.3 -18.1 L16.55 -18.6 Q18.45 -18.55 20.25 -17.9 L20.25 -26.35 Q17.45 -26.4 14.9 -25.3 12.4 -24.25 11.45 -21.8 L11.35 -21.8 11.5 -25.75 2.45 -25.75 2.45 0.0 2.45 0.0" fill-rule="evenodd" stroke="none"/>
    </g>
    <g id="font_Franklin_Gothic_Condensed_m0">
      <path d="M2.0 0.0 L2.0 0.0 11.2 0.0 11.2 -18.7 11.75 -19.35 Q12.65 -20.4 14.1 -20.4 16.45 -20.3 16.3 -18.1 L16.3 0.0 25.5 0.0 25.5 -18.7 26.05 -19.35 Q26.95 -20.4 28.4 -20.4 30.75 -20.3 30.6 -18.1 L30.6 0.0 39.8 0.0 39.8 -20.75 Q39.75 -23.6 38.0 -25.0 36.2 -26.35 33.4 -26.35 28.3 -26.3 25.3 -22.25 L25.2 -22.25 Q24.95 -24.15 23.3 -25.25 21.6 -26.35 19.45 -26.35 14.35 -26.15 11.35 -22.2 L11.2 -22.2 11.2 -25.75 2.0 -25.75 2.0 0.0 2.0 0.0" fill-rule="evenodd" stroke="none"/>
    </g>
    <g id="font_Franklin_Gothic_Condensed_h0">
      <path d="M2.45 0.0 L2.45 0.0 11.65 0.0 11.65 -18.7 12.15 -19.35 Q13.05 -20.4 14.4 -20.4 16.7 -20.3 16.5 -18.1 L16.5 0.0 25.75 0.0 25.75 -20.45 Q25.45 -26.1 19.65 -26.35 14.6 -26.35 11.75 -22.2 L11.65 -22.2 11.65 -36.4 2.45 -36.4 2.45 0.0 2.45 0.0" fill-rule="evenodd" stroke="none"/>
    </g>
    <g id="font_Franklin_Gothic_Condensed_C0">
      <path d="M30.15 -23.65 L30.15 -23.65 Q30.2 -29.45 26.75 -33.25 23.35 -37.05 16.1 -37.2 7.0 -36.8 3.65 -30.95 0.25 -25.15 0.45 -18.2 0.3 -10.8 3.65 -5.15 7.05 0.5 16.1 0.8 22.75 0.7 26.45 -2.9 30.1 -6.5 30.15 -12.6 L21.35 -13.3 Q21.25 -9.85 20.3 -7.95 19.3 -6.0 16.55 -6.0 13.15 -6.05 12.25 -9.25 11.35 -12.45 11.45 -18.15 11.35 -23.35 12.3 -26.8 13.25 -30.25 16.35 -30.4 19.0 -30.2 19.9 -27.95 20.75 -25.7 20.7 -23.65 L30.15 -23.65 30.15 -23.65" fill-rule="evenodd" stroke="none"/>
    </g>
    <g id="font_Franklin_Gothic_Condensed_g0">
      <path d="M12.95 -22.6 L12.95 -22.6 Q14.65 -22.55 15.4 -21.25 16.1 -20.0 16.1 -18.4 16.15 -16.75 15.45 -15.4 14.75 -14.05 12.95 -13.95 11.2 -14.05 10.55 -15.35 9.85 -16.6 9.9 -18.05 9.85 -19.6 10.5 -21.05 11.1 -22.5 12.95 -22.6 L12.95 -22.6 M12.85 -1.2 L12.85 -1.2 16.5 -0.9 Q18.7 -0.55 18.95 1.05 18.75 2.6 16.65 2.95 L12.75 3.2 9.1 2.9 Q7.0 2.5 6.8 1.05 7.05 -0.55 9.35 -0.9 L12.85 -1.2 12.85 -1.2 M27.95 -27.95 L27.95 -27.95 Q25.75 -27.9 23.5 -26.8 21.3 -25.7 20.65 -24.5 17.35 -26.4 13.0 -26.35 9.2 -26.4 5.45 -24.5 1.65 -22.55 1.35 -18.2 1.3 -13.7 6.65 -11.5 L6.65 -11.4 Q4.75 -10.95 3.0 -9.65 1.25 -8.35 1.1 -6.45 1.25 -3.05 5.05 -2.2 L5.05 -2.1 Q2.95 -1.8 1.35 -0.8 -0.3 0.25 -0.4 2.25 -0.25 4.7 2.3 5.85 4.85 7.0 7.95 7.3 L12.75 7.6 Q19.1 7.6 22.9 5.6 26.75 3.55 26.85 -0.3 26.55 -5.0 22.5 -6.25 18.4 -7.55 14.1 -7.4 L10.2 -7.6 Q8.65 -7.9 8.6 -9.15 8.9 -10.05 9.55 -10.6 L13.4 -10.2 Q17.4 -10.2 20.9 -12.1 24.4 -14.05 24.65 -17.85 24.6 -20.2 23.1 -22.05 23.55 -22.55 24.65 -22.6 26.65 -22.5 27.95 -21.3 L27.95 -27.95 27.95 -27.95" fill-rule="evenodd" stroke="none"/>
    </g>
    <g id="font_Franklin_Gothic_Condensed_s0">
      <path d="M23.25 -19.25 L23.25 -19.25 Q21.9 -23.05 18.9 -24.75 15.9 -26.4 12.4 -26.4 6.4 -26.15 3.85 -23.35 1.3 -20.5 1.35 -18.25 1.6 -14.0 4.95 -12.35 8.3 -10.65 11.6 -9.75 14.95 -8.85 15.2 -6.85 15.05 -5.1 12.4 -5.0 10.45 -5.05 9.35 -6.1 8.25 -7.2 7.5 -8.7 L0.45 -6.7 Q1.55 -3.5 4.6 -1.45 7.65 0.55 12.4 0.6 17.5 0.6 20.6 -1.7 23.65 -4.0 23.75 -8.2 23.5 -12.25 20.15 -13.9 16.8 -15.55 13.5 -16.5 10.15 -17.45 9.9 -19.35 9.85 -20.8 12.55 -21.0 14.2 -20.95 15.2 -19.95 16.2 -18.95 16.8 -17.75 L23.25 -19.25 23.25 -19.25" fill-rule="evenodd" stroke="none"/>
    </g>
    <g id="font_Franklin_Gothic_Condensed__1">
      <path d="M5.3 0.0 L5.3 0.0 15.2 0.0 15.2 -9.0 5.3 -9.0 5.3 0.0 5.3 0.0 M7.3 -12.6 L7.3 -12.6 13.45 -12.6 15.2 -36.4 4.65 -36.4 7.3 -12.6 7.3 -12.6" fill-rule="evenodd" stroke="none"/>
    </g>
  </defs>
</svg>
