<?xml version="1.0" encoding="UTF-8" standalone="no"?>
<svg xmlns:xlink="http://www.w3.org/1999/xlink" height="40.6px" width="492.05px" xmlns="http://www.w3.org/2000/svg">
  <g transform="matrix(1.0, 0.0, 0.0, 1.0, 173.05, -6.55)">
    <g transform="matrix(1.0, 0.0, 0.0, 1.0, -176.0, 0.0)">
      <use fill="#ffffff" height="40.6" transform="matrix(0.8789, 0.0, 0.0, 0.8789, 0.0, 39.0)" width="492.05" xlink:href="#font_TradeGothic_CondEighteen_D0"/>
      <use fill="#ffffff" height="40.6" transform="matrix(0.8789, 0.0, 0.0, 0.8789, 21.9, 39.0)" width="492.05" xlink:href="#font_TradeGothic_CondEighteen_e0"/>
      <use fill="#ffffff" height="40.6" transform="matrix(0.8789, 0.0, 0.0, 0.8789, 41.3, 39.0)" width="492.05" xlink:href="#font_TradeGothic_CondEighteen_f0"/>
      <use fill="#ffffff" height="40.6" transform="matrix(0.8789, 0.0, 0.0, 0.8789, 53.2, 39.0)" width="492.05" xlink:href="#font_TradeGothic_CondEighteen_e0"/>
      <use fill="#ffffff" height="40.6" transform="matrix(0.8789, 0.0, 0.0, 0.8789, 72.6, 39.0)" width="492.05" xlink:href="#font_TradeGothic_CondEighteen_a0"/>
      <use fill="#ffffff" height="40.6" transform="matrix(0.8789, 0.0, 0.0, 0.8789, 91.95, 39.0)" width="492.05" xlink:href="#font_TradeGothic_CondEighteen_t0"/>
      <use fill="#ffffff" height="40.6" transform="matrix(0.8789, 0.0, 0.0, 0.8789, 113.25, 39.0)" width="492.05" xlink:href="#font_TradeGothic_CondEighteen_C0"/>
      <use fill="#ffffff" height="40.6" transform="matrix(0.8789, 0.0, 0.0, 0.8789, 135.15, 39.0)" width="492.05" xlink:href="#font_TradeGothic_CondEighteen_o0"/>
      <use fill="#ffffff" height="40.6" transform="matrix(0.8789, 0.0, 0.0, 0.8789, 154.55, 39.0)" width="492.05" xlink:href="#font_TradeGothic_CondEighteen_g0"/>
      <use fill="#ffffff" height="40.6" transform="matrix(0.8789, 0.0, 0.0, 0.8789, 173.9, 39.0)" width="492.05" xlink:href="#font_TradeGothic_CondEighteen_s0"/>
      <use fill="#ffffff" height="40.6" transform="matrix(0.8789, 0.0, 0.0, 0.8789, 200.2, 39.0)" width="492.05" xlink:href="#font_TradeGothic_CondEighteen_u0"/>
      <use fill="#ffffff" height="40.6" transform="matrix(0.8789, 0.0, 0.0, 0.8789, 219.55, 39.0)" width="492.05" xlink:href="#font_TradeGothic_CondEighteen_s0"/>
      <use fill="#ffffff" height="40.6" transform="matrix(0.8789, 0.0, 0.0, 0.8789, 236.45, 39.0)" width="492.05" xlink:href="#font_TradeGothic_CondEighteen_i0"/>
      <use fill="#ffffff" height="40.6" transform="matrix(0.8789, 0.0, 0.0, 0.8789, 245.85, 39.0)" width="492.05" xlink:href="#font_TradeGothic_CondEighteen_n0"/>
      <use fill="#ffffff" height="40.6" transform="matrix(0.8789, 0.0, 0.0, 0.8789, 265.2, 39.0)" width="492.05" xlink:href="#font_TradeGothic_CondEighteen_g0"/>
      <use fill="#ffffff" height="40.6" transform="matrix(0.8789, 0.0, 0.0, 0.8789, 293.9, 39.0)" width="492.05" xlink:href="#font_TradeGothic_CondEighteen_t0"/>
      <use fill="#ffffff" height="40.6" transform="matrix(0.8789, 0.0, 0.0, 0.8789, 305.8, 39.0)" width="492.05" xlink:href="#font_TradeGothic_CondEighteen_o0"/>
      <use fill="#ffffff" height="40.6" transform="matrix(0.8789, 0.0, 0.0, 0.8789, 325.2, 39.0)" width="492.05" xlink:href="#font_TradeGothic_CondEighteen_n0"/>
      <use fill="#ffffff" height="40.6" transform="matrix(0.8789, 0.0, 0.0, 0.8789, 344.55, 39.0)" width="492.05" xlink:href="#font_TradeGothic_CondEighteen_s0"/>
      <use fill="#ffffff" height="40.6" transform="matrix(0.8789, 0.0, 0.0, 0.8789, 370.85, 39.0)" width="492.05" xlink:href="#font_TradeGothic_CondEighteen_o0"/>
      <use fill="#ffffff" height="40.6" transform="matrix(0.8789, 0.0, 0.0, 0.8789, 390.2, 39.0)" width="492.05" xlink:href="#font_TradeGothic_CondEighteen_f0"/>
      <use fill="#ffffff" height="40.6" transform="matrix(0.8789, 0.0, 0.0, 0.8789, 411.5, 39.0)" width="492.05" xlink:href="#font_TradeGothic_CondEighteen_g0"/>
      <use fill="#ffffff" height="40.6" transform="matrix(0.8789, 0.0, 0.0, 0.8789, 430.85, 39.0)" width="492.05" xlink:href="#font_TradeGothic_CondEighteen_a0"/>
      <use fill="#ffffff" height="40.6" transform="matrix(0.8789, 0.0, 0.0, 0.8789, 450.2, 39.0)" width="492.05" xlink:href="#font_TradeGothic_CondEighteen_g0"/>
      <use fill="#ffffff" height="40.6" transform="matrix(0.8789, 0.0, 0.0, 0.8789, 469.55, 39.0)" width="492.05" xlink:href="#font_TradeGothic_CondEighteen_s0"/>
      <use fill="#ffffff" height="40.6" transform="matrix(0.8789, 0.0, 0.0, 0.8789, 486.45, 39.0)" width="492.05" xlink:href="#font_TradeGothic_CondEighteen_.0"/>
    </g>
  </g>
  <defs>
    <g id="font_TradeGothic_CondEighteen_D0">
      <path d="M3.3 0.0 L3.3 0.0 13.75 0.0 Q24.75 0.05 24.85 -11.25 L24.85 -25.75 Q24.75 -37.0 13.75 -36.95 L3.3 -36.95 3.3 0.0 3.3 0.0 M10.35 -31.6 L10.35 -31.6 12.8 -31.6 Q18.1 -31.95 17.85 -26.5 L17.85 -10.5 Q18.1 -5.05 12.8 -5.35 L10.35 -5.35 10.35 -31.6 10.35 -31.6" fill-rule="evenodd" stroke="none"/>
    </g>
    <g id="font_TradeGothic_CondEighteen_e0">
      <path d="M22.45 -17.8 L22.45 -17.8 Q22.5 -22.3 20.25 -25.1 17.95 -27.9 12.55 -28.0 7.15 -27.9 4.85 -25.1 2.6 -22.3 2.65 -17.8 L2.65 -9.7 Q2.6 -5.25 4.85 -2.45 7.15 0.35 12.55 0.4 17.85 0.35 20.15 -2.35 22.45 -5.0 22.45 -9.35 L16.05 -9.35 16.05 -8.75 Q16.0 -4.25 12.55 -4.4 9.1 -4.25 9.05 -8.75 L9.05 -12.6 22.45 -12.6 22.45 -17.8 22.45 -17.8 M9.05 -17.4 L9.05 -17.4 9.05 -18.8 Q9.1 -23.3 12.55 -23.2 16.0 -23.3 16.05 -18.8 L16.05 -17.4 9.05 -17.4 9.05 -17.4" fill-rule="evenodd" stroke="none"/>
    </g>
    <g id="font_TradeGothic_CondEighteen_f0">
      <path d="M4.2 0.0 L4.2 0.0 10.55 0.0 10.55 -22.8 14.2 -22.8 14.2 -27.6 10.55 -27.6 10.55 -30.8 Q10.45 -32.65 12.65 -32.6 L14.45 -32.6 14.45 -37.4 11.3 -37.4 Q4.4 -37.45 4.2 -30.85 L4.2 -27.6 0.5 -27.6 0.5 -22.8 4.2 -22.8 4.2 0.0 4.2 0.0" fill-rule="evenodd" stroke="none"/>
    </g>
    <g id="font_TradeGothic_CondEighteen_a0">
      <path d="M15.4 -6.95 L15.4 -6.95 Q13.85 -4.65 11.25 -4.4 8.4 -4.3 8.35 -6.9 8.3 -8.65 9.75 -10.3 11.25 -12.0 15.4 -14.15 L15.4 -6.95 15.4 -6.95 M8.8 -19.35 L8.8 -19.35 Q8.55 -23.0 12.35 -23.2 15.45 -23.15 15.4 -19.7 L15.4 -18.1 Q8.7 -16.05 5.35 -13.2 2.0 -10.35 2.0 -5.85 2.0 -3.15 3.6 -1.4 5.25 0.35 8.5 0.4 12.6 0.55 15.75 -2.2 L16.1 0.0 22.2 0.0 Q21.85 -1.55 21.8 -2.95 L21.8 -20.45 Q21.55 -28.0 12.6 -28.0 3.35 -27.85 2.45 -19.35 L8.8 -19.35 8.8 -19.35" fill-rule="evenodd" stroke="none"/>
    </g>
    <g id="font_TradeGothic_CondEighteen_t0">
      <path d="M3.95 -22.8 L3.95 -22.8 3.95 -5.95 Q4.1 0.45 11.4 0.4 L14.6 0.1 14.6 -4.95 12.5 -4.95 Q10.3 -5.0 10.35 -7.2 L10.35 -22.8 14.6 -22.8 14.6 -27.6 10.35 -27.6 10.35 -35.0 3.95 -35.0 3.95 -27.6 0.5 -27.6 0.5 -22.8 3.95 -22.8 3.95 -22.8" fill-rule="evenodd" stroke="none"/>
    </g>
    <g id="font_TradeGothic_CondEighteen_C0">
      <path d="M24.45 -24.55 L24.45 -24.55 24.45 -27.25 Q24.45 -31.45 21.85 -34.35 19.25 -37.25 14.05 -37.4 8.55 -37.3 5.95 -34.6 3.3 -31.9 3.3 -27.9 L3.3 -9.1 Q3.3 -5.1 5.95 -2.4 8.55 0.3 14.05 0.4 19.25 0.3 21.85 -2.4 24.45 -5.1 24.45 -9.1 L24.45 -13.3 17.4 -13.3 17.4 -8.9 Q17.6 -5.25 14.05 -5.2 10.1 -5.15 10.35 -9.25 L10.35 -27.75 Q10.1 -31.8 14.05 -31.8 17.05 -31.9 17.4 -27.4 L17.4 -24.55 24.45 -24.55 24.45 -24.55" fill-rule="evenodd" stroke="none"/>
    </g>
    <g id="font_TradeGothic_CondEighteen_o0">
      <path d="M2.65 -9.8 L2.65 -9.8 Q2.6 -5.25 4.85 -2.45 7.15 0.35 12.55 0.4 17.95 0.35 20.25 -2.45 22.5 -5.25 22.45 -9.8 L22.45 -17.75 Q22.5 -22.3 20.25 -25.1 17.95 -27.9 12.55 -28.0 7.15 -27.9 4.85 -25.1 2.6 -22.3 2.65 -17.75 L2.65 -9.8 2.65 -9.8 M16.05 -8.8 L16.05 -8.8 Q16.0 -4.25 12.55 -4.4 9.1 -4.25 9.05 -8.8 L9.05 -18.75 Q9.1 -23.3 12.55 -23.2 16.0 -23.3 16.05 -18.75 L16.05 -8.8 16.05 -8.8" fill-rule="evenodd" stroke="none"/>
    </g>
    <g id="font_TradeGothic_CondEighteen_g0">
      <path d="M11.2 -11.8 L11.2 -11.8 Q9.75 -11.7 8.95 -12.9 8.15 -14.1 8.15 -17.5 8.15 -20.85 8.95 -22.05 9.75 -23.25 11.2 -23.2 13.0 -23.25 13.7 -22.05 14.35 -20.85 14.3 -17.5 14.35 -14.1 13.7 -12.9 13.0 -11.7 11.2 -11.8 L11.2 -11.8 M13.0 4.6 L13.0 4.6 Q9.9 4.65 8.75 4.1 7.65 3.6 7.7 2.5 7.65 1.4 8.75 0.9 L13.0 0.4 Q16.05 0.4 17.2 0.9 18.35 1.4 18.25 2.5 18.35 3.6 17.2 4.1 16.05 4.65 13.0 4.6 L13.0 4.6 M24.05 -28.0 L24.05 -28.0 Q22.15 -28.0 21.1 -27.35 20.05 -26.65 18.85 -24.95 15.85 -28.1 11.9 -28.0 6.6 -28.05 4.3 -25.75 1.95 -23.4 2.0 -17.85 1.95 -13.25 2.9 -11.3 3.8 -9.35 6.15 -8.0 L3.55 -6.15 Q2.3 -4.95 2.25 -3.55 2.35 -0.95 5.1 -0.1 L5.1 0.0 Q1.35 0.9 0.9 4.3 1.25 8.75 11.05 8.8 17.1 8.85 20.55 7.25 23.95 5.7 24.0 2.15 23.7 -2.45 19.8 -3.4 L12.1 -4.25 Q8.2 -4.2 7.9 -5.8 8.0 -6.75 9.1 -7.0 L11.1 -7.0 Q15.9 -6.9 18.3 -9.4 20.7 -11.9 20.7 -18.05 20.7 -19.95 20.0 -22.35 21.35 -23.25 23.05 -23.2 L24.05 -23.15 24.05 -28.0 24.05 -28.0" fill-rule="evenodd" stroke="none"/>
    </g>
    <g id="font_TradeGothic_CondEighteen_s0">
      <path d="M19.9 -20.65 L19.9 -20.65 Q19.15 -23.9 16.75 -25.9 14.35 -27.95 10.7 -28.0 7.1 -27.95 4.7 -25.9 2.35 -23.9 2.25 -20.6 2.45 -16.95 5.25 -14.75 8.05 -12.55 10.85 -10.75 13.7 -9.0 13.9 -6.75 13.7 -4.45 11.25 -4.4 9.25 -4.45 8.35 -5.65 7.45 -6.9 7.2 -8.65 L1.55 -7.3 Q3.0 0.15 11.2 0.4 15.05 0.4 17.5 -1.5 19.95 -3.35 20.0 -7.05 19.8 -11.0 17.0 -13.3 14.2 -15.65 11.35 -17.3 8.55 -19.0 8.35 -21.05 8.5 -23.15 10.95 -23.2 13.8 -23.15 14.4 -19.8 L19.9 -20.65 19.9 -20.65" fill-rule="evenodd" stroke="none"/>
    </g>
    <g id="font_TradeGothic_CondEighteen_u0">
      <path d="M15.65 -27.6 L15.65 -27.6 15.65 -6.1 Q13.55 -4.5 11.65 -4.4 9.6 -4.35 9.45 -6.35 L9.45 -27.6 3.1 -27.6 3.1 -5.45 Q3.25 0.2 8.45 0.4 11.0 0.45 12.55 -0.4 14.1 -1.2 15.95 -2.75 L15.95 0.0 22.0 0.0 22.0 -27.6 15.65 -27.6 15.65 -27.6" fill-rule="evenodd" stroke="none"/>
    </g>
    <g id="font_TradeGothic_CondEighteen_i0">
      <path d="M9.45 -31.75 L9.45 -31.75 9.45 -36.95 3.1 -36.95 3.1 -31.75 9.45 -31.75 9.45 -31.75 M9.45 0.0 L9.45 0.0 9.45 -27.6 3.1 -27.6 3.1 0.0 9.45 0.0 9.45 0.0" fill-rule="evenodd" stroke="none"/>
    </g>
    <g id="font_TradeGothic_CondEighteen_n0">
      <path d="M9.45 0.0 L9.45 0.0 9.45 -21.45 Q11.55 -23.05 13.45 -23.2 15.5 -23.25 15.65 -21.2 L15.65 0.0 22.0 0.0 22.0 -22.1 Q21.85 -27.75 16.65 -28.0 14.1 -28.05 12.55 -27.2 L9.15 -24.8 9.15 -27.55 3.1 -27.55 3.1 0.0 9.45 0.0 9.45 0.0" fill-rule="evenodd" stroke="none"/>
    </g>
    <g id="font_TradeGothic_CondEighteen_.0">
      <path d="M9.65 0.0 L9.65 0.0 9.65 -6.15 2.9 -6.15 2.9 0.0 9.65 0.0 9.65 0.0" fill-rule="evenodd" stroke="none"/>
    </g>
  </defs>
</svg>
