<?xml version="1.0" encoding="UTF-8" standalone="no"?>
<svg xmlns:xlink="http://www.w3.org/1999/xlink" height="40.25px" width="346.0px" xmlns="http://www.w3.org/2000/svg">
  <g transform="matrix(1.0, 0.0, 0.0, 1.0, 99.75, -6.9)">
    <g transform="matrix(1.0, 0.0, 0.0, 1.0, -100.5, 0.0)">
      <use fill="#000000" height="40.25" transform="matrix(0.8789, 0.0, 0.0, 0.8789, 0.0, 39.0)" width="346.0" xlink:href="#font_TradeGothic_CondEighteen_T0"/>
      <use fill="#000000" height="40.25" transform="matrix(0.8789, 0.0, 0.0, 0.8789, 15.25, 39.0)" width="346.0" xlink:href="#font_TradeGothic_CondEighteen_a0"/>
      <use fill="#000000" height="40.25" transform="matrix(0.8789, 0.0, 0.0, 0.8789, 34.6, 39.0)" width="346.0" xlink:href="#font_TradeGothic_CondEighteen_k0"/>
      <use fill="#000000" height="40.25" transform="matrix(0.8789, 0.0, 0.0, 0.8789, 53.95, 39.0)" width="346.0" xlink:href="#font_TradeGothic_CondEighteen_e0"/>
      <use fill="#000000" height="40.25" transform="matrix(0.8789, 0.0, 0.0, 0.8789, 82.65, 39.0)" width="346.0" xlink:href="#font_TradeGothic_CondEighteen_a0"/>
      <use fill="#000000" height="40.25" transform="matrix(0.8789, 0.0, 0.0, 0.8789, 111.35, 39.0)" width="346.0" xlink:href="#font_TradeGothic_CondEighteen_b0"/>
      <use fill="#000000" height="40.25" transform="matrix(0.8789, 0.0, 0.0, 0.8789, 130.7, 39.0)" width="346.0" xlink:href="#font_TradeGothic_CondEighteen_r0"/>
      <use fill="#000000" height="40.25" transform="matrix(0.8789, 0.0, 0.0, 0.8789, 145.05, 39.0)" width="346.0" xlink:href="#font_TradeGothic_CondEighteen_e0"/>
      <use fill="#000000" height="40.25" transform="matrix(0.8789, 0.0, 0.0, 0.8789, 164.4, 39.0)" width="346.0" xlink:href="#font_TradeGothic_CondEighteen_a0"/>
      <use fill="#000000" height="40.25" transform="matrix(0.8789, 0.0, 0.0, 0.8789, 183.75, 39.0)" width="346.0" xlink:href="#font_TradeGothic_CondEighteen_k0"/>
      <use fill="#000000" height="40.25" transform="matrix(0.8789, 0.0, 0.0, 0.8789, 212.45, 39.0)" width="346.0" xlink:href="#font_TradeGothic_CondEighteen_a0"/>
      <use fill="#000000" height="40.25" transform="matrix(0.8789, 0.0, 0.0, 0.8789, 231.8, 39.0)" width="346.0" xlink:href="#font_TradeGothic_CondEighteen_n0"/>
      <use fill="#000000" height="40.25" transform="matrix(0.8789, 0.0, 0.0, 0.8789, 251.15, 39.0)" width="346.0" xlink:href="#font_TradeGothic_CondEighteen_d0"/>
      <use fill="#000000" height="40.25" transform="matrix(0.8789, 0.0, 0.0, 0.8789, 279.85, 39.0)" width="346.0" xlink:href="#font_TradeGothic_CondEighteen_p0"/>
      <use fill="#000000" height="40.25" transform="matrix(0.8789, 0.0, 0.0, 0.8789, 299.2, 39.0)" width="346.0" xlink:href="#font_TradeGothic_CondEighteen_l0"/>
      <use fill="#000000" height="40.25" transform="matrix(0.8789, 0.0, 0.0, 0.8789, 308.55, 39.0)" width="346.0" xlink:href="#font_TradeGothic_CondEighteen_a0"/>
      <use fill="#000000" height="40.25" transform="matrix(0.8789, 0.0, 0.0, 0.8789, 327.9, 39.0)" width="346.0" xlink:href="#font_TradeGothic_CondEighteen_y0"/>
    </g>
  </g>
  <defs>
    <g id="font_TradeGothic_CondEighteen_T0">
      <path d="M7.5 0.0 L7.5 0.0 14.55 0.0 14.55 -31.4 21.3 -31.4 21.3 -37.0 0.75 -37.0 0.75 -31.4 7.5 -31.4 7.5 0.0 7.5 0.0" fill-rule="evenodd" stroke="none"/>
    </g>
    <g id="font_TradeGothic_CondEighteen_a0">
      <path d="M15.4 -6.95 L15.4 -6.95 Q13.85 -4.65 11.25 -4.4 8.4 -4.3 8.35 -6.9 8.3 -8.65 9.75 -10.3 11.25 -12.0 15.4 -14.15 L15.4 -6.95 15.4 -6.95 M8.8 -19.35 L8.8 -19.35 Q8.55 -23.0 12.35 -23.2 15.45 -23.15 15.4 -19.7 L15.4 -18.1 Q8.7 -16.05 5.35 -13.2 2.0 -10.35 2.0 -5.85 2.0 -3.15 3.6 -1.4 5.25 0.35 8.5 0.4 12.6 0.55 15.75 -2.2 L16.1 0.0 22.2 0.0 Q21.85 -1.55 21.8 -2.95 L21.8 -20.45 Q21.55 -28.0 12.6 -28.0 3.35 -27.85 2.45 -19.35 L8.8 -19.35 8.8 -19.35" fill-rule="evenodd" stroke="none"/>
    </g>
    <g id="font_TradeGothic_CondEighteen_k0">
      <path d="M23.25 -27.6 L23.25 -27.6 16.5 -27.6 9.6 -17.85 9.45 -17.85 9.45 -37.0 3.1 -37.0 3.1 0.0 9.45 0.0 9.45 -9.65 12.45 -13.7 12.55 -13.7 17.65 0.0 24.0 0.0 16.7 -18.85 23.25 -27.6 23.25 -27.6" fill-rule="evenodd" stroke="none"/>
    </g>
    <g id="font_TradeGothic_CondEighteen_e0">
      <path d="M22.45 -17.8 L22.45 -17.8 Q22.5 -22.3 20.25 -25.1 17.95 -27.9 12.55 -28.0 7.15 -27.9 4.85 -25.1 2.6 -22.3 2.65 -17.8 L2.65 -9.7 Q2.6 -5.25 4.85 -2.45 7.15 0.35 12.55 0.4 17.85 0.35 20.15 -2.35 22.45 -5.0 22.45 -9.35 L16.05 -9.35 16.05 -8.75 Q16.0 -4.25 12.55 -4.4 9.1 -4.25 9.05 -8.75 L9.05 -12.6 22.45 -12.6 22.45 -17.8 22.45 -17.8 M9.05 -17.4 L9.05 -17.4 9.05 -18.8 Q9.1 -23.3 12.55 -23.2 16.0 -23.3 16.05 -18.8 L16.05 -17.4 9.05 -17.4 9.05 -17.4" fill-rule="evenodd" stroke="none"/>
    </g>
    <g id="font_TradeGothic_CondEighteen_b0">
      <path d="M9.45 -21.75 L9.45 -21.75 Q11.25 -23.1 13.05 -23.2 14.35 -23.25 15.2 -22.35 16.05 -21.4 16.05 -18.75 L16.05 -8.85 Q16.05 -6.15 15.2 -5.25 14.35 -4.3 13.05 -4.4 11.25 -4.5 9.45 -5.8 L9.45 -21.75 9.45 -21.75 M9.15 0.0 L9.15 0.0 9.15 -3.05 9.25 -3.05 Q10.75 -1.2 12.2 -0.4 13.7 0.4 15.95 0.4 22.2 0.3 22.45 -7.3 L22.45 -20.25 Q22.2 -27.9 15.95 -28.0 14.0 -28.0 12.6 -27.25 L9.45 -25.05 9.45 -37.0 3.1 -37.0 3.1 0.0 9.15 0.0 9.15 0.0" fill-rule="evenodd" stroke="none"/>
    </g>
    <g id="font_TradeGothic_CondEighteen_r0">
      <path d="M9.45 0.0 L9.45 0.0 9.45 -18.75 Q9.55 -20.6 10.8 -21.5 12.05 -22.4 13.7 -22.4 L17.75 -21.85 17.75 -27.95 16.45 -27.95 Q11.8 -27.85 9.3 -24.15 L9.2 -24.15 9.2 -27.6 3.1 -27.6 3.1 0.0 9.45 0.0 9.45 0.0" fill-rule="evenodd" stroke="none"/>
    </g>
    <g id="font_TradeGothic_CondEighteen_n0">
      <path d="M9.45 0.0 L9.45 0.0 9.45 -21.45 Q11.55 -23.05 13.45 -23.2 15.5 -23.25 15.65 -21.2 L15.65 0.0 22.0 0.0 22.0 -22.1 Q21.85 -27.75 16.65 -28.0 14.1 -28.05 12.55 -27.2 L9.15 -24.8 9.15 -27.55 3.1 -27.55 3.1 0.0 9.45 0.0 9.45 0.0" fill-rule="evenodd" stroke="none"/>
    </g>
    <g id="font_TradeGothic_CondEighteen_d0">
      <path d="M15.65 -5.8 L15.65 -5.8 Q13.85 -4.5 12.05 -4.4 10.75 -4.3 9.9 -5.25 9.05 -6.15 9.05 -8.75 L9.05 -18.8 Q9.05 -21.45 9.9 -22.35 10.75 -23.25 12.05 -23.2 13.85 -23.1 15.65 -21.8 L15.65 -5.8 15.65 -5.8 M22.0 0.0 L22.0 0.0 22.0 -37.0 15.65 -37.0 15.65 -25.05 12.5 -27.25 Q11.1 -28.0 9.15 -28.0 2.9 -27.9 2.65 -20.25 L2.65 -7.15 Q2.9 0.25 9.15 0.4 11.45 0.4 12.9 -0.4 14.35 -1.2 15.85 -3.05 L15.95 -3.05 15.95 0.0 22.0 0.0 22.0 0.0" fill-rule="evenodd" stroke="none"/>
    </g>
    <g id="font_TradeGothic_CondEighteen_p0">
      <path d="M9.45 -21.8 L9.45 -21.8 Q11.25 -23.1 13.05 -23.2 14.35 -23.25 15.2 -22.35 16.05 -21.45 16.05 -18.8 L16.05 -8.75 Q16.05 -6.15 15.2 -5.25 14.35 -4.3 13.05 -4.4 11.25 -4.5 9.45 -5.8 L9.45 -21.8 9.45 -21.8 M3.1 -27.6 L3.1 -27.6 3.1 8.8 9.45 8.8 9.45 -2.5 Q11.25 -1.1 12.6 -0.35 14.0 0.4 15.95 0.4 22.2 0.3 22.45 -7.35 L22.45 -20.45 Q22.2 -27.85 15.95 -28.0 13.7 -28.0 12.2 -27.2 10.75 -26.35 9.25 -24.55 L9.15 -24.55 9.15 -27.6 3.1 -27.6 3.1 -27.6" fill-rule="evenodd" stroke="none"/>
    </g>
    <g id="font_TradeGothic_CondEighteen_l0">
      <path d="M9.45 0.0 L9.45 0.0 9.45 -37.0 3.1 -37.0 3.1 0.0 9.45 0.0 9.45 0.0" fill-rule="evenodd" stroke="none"/>
    </g>
    <g id="font_TradeGothic_CondEighteen_y0">
      <path d="M11.1 -9.9 L11.1 -9.9 11.0 -9.9 6.9 -27.6 0.45 -27.6 7.1 -4.1 Q7.7 -2.15 7.75 -0.45 8.05 4.0 3.6 4.0 L2.05 4.0 2.05 8.8 4.7 8.8 Q8.25 8.85 10.3 7.35 12.4 5.85 13.35 2.1 L21.35 -27.6 14.95 -27.6 11.1 -9.9 11.1 -9.9" fill-rule="evenodd" stroke="none"/>
    </g>
  </defs>
</svg>
