<?xml version="1.0" encoding="UTF-8" standalone="no"?>
<svg xmlns:xlink="http://www.w3.org/1999/xlink" height="12.65px" width="299.85px" xmlns="http://www.w3.org/2000/svg">
  <g transform="matrix(1.0, 0.0, 0.0, 1.0, 114.65, -1.75)">
    <g transform="matrix(1.0, 0.0, 0.0, 1.0, -114.7, 0.0)">
      <use fill="#ffffff" height="12.65" transform="matrix(0.2734, 0.0, 0.0, 0.2734, 0.0, 12.0)" width="299.85" xlink:href="#font_TradeGothic_CondEighteen_W0"/>
      <use fill="#ffffff" height="12.65" transform="matrix(0.2734, 0.0, 0.0, 0.2734, 8.85, 12.0)" width="299.85" xlink:href="#font_TradeGothic_CondEighteen_h0"/>
      <use fill="#ffffff" height="12.65" transform="matrix(0.2734, 0.0, 0.0, 0.2734, 14.55, 12.0)" width="299.85" xlink:href="#font_TradeGothic_CondEighteen_i0"/>
      <use fill="#ffffff" height="12.65" transform="matrix(0.2734, 0.0, 0.0, 0.2734, 17.15, 12.0)" width="299.85" xlink:href="#font_TradeGothic_CondEighteen_l0"/>
      <use fill="#ffffff" height="12.65" transform="matrix(0.2734, 0.0, 0.0, 0.2734, 19.75, 12.0)" width="299.85" xlink:href="#font_TradeGothic_CondEighteen_e0"/>
      <use fill="#ffffff" height="12.65" transform="matrix(0.2734, 0.0, 0.0, 0.2734, 28.05, 12.0)" width="299.85" xlink:href="#font_TradeGothic_CondEighteen_y0"/>
      <use fill="#ffffff" height="12.65" transform="matrix(0.2734, 0.0, 0.0, 0.2734, 33.0, 12.0)" width="299.85" xlink:href="#font_TradeGothic_CondEighteen_o0"/>
      <use fill="#ffffff" height="12.65" transform="matrix(0.2734, 0.0, 0.0, 0.2734, 38.7, 12.0)" width="299.85" xlink:href="#font_TradeGothic_CondEighteen_u0"/>
      <use fill="#ffffff" height="12.65" transform="matrix(0.2734, 0.0, 0.0, 0.2734, 47.05, 12.0)" width="299.85" xlink:href="#font_TradeGothic_CondEighteen_w0"/>
      <use fill="#ffffff" height="12.65" transform="matrix(0.2734, 0.0, 0.0, 0.2734, 54.35, 12.0)" width="299.85" xlink:href="#font_TradeGothic_CondEighteen_a0"/>
      <use fill="#ffffff" height="12.65" transform="matrix(0.2734, 0.0, 0.0, 0.2734, 60.05, 12.0)" width="299.85" xlink:href="#font_TradeGothic_CondEighteen_i0"/>
      <use fill="#ffffff" height="12.65" transform="matrix(0.2734, 0.0, 0.0, 0.2734, 62.65, 12.0)" width="299.85" xlink:href="#font_TradeGothic_CondEighteen_t0"/>
      <use fill="#ffffff" height="12.65" transform="matrix(0.2734, 0.0, 0.0, 0.2734, 66.05, 12.0)" width="299.85" xlink:href="#font_TradeGothic_CondEighteen__1"/>
      <use fill="#ffffff" height="12.65" transform="matrix(0.2734, 0.0, 0.0, 0.2734, 71.25, 12.0)" width="299.85" xlink:href="#font_TradeGothic_CondEighteen_t0"/>
      <use fill="#ffffff" height="12.65" transform="matrix(0.2734, 0.0, 0.0, 0.2734, 74.65, 12.0)" width="299.85" xlink:href="#font_TradeGothic_CondEighteen_a0"/>
      <use fill="#ffffff" height="12.65" transform="matrix(0.2734, 0.0, 0.0, 0.2734, 80.35, 12.0)" width="299.85" xlink:href="#font_TradeGothic_CondEighteen_k0"/>
      <use fill="#ffffff" height="12.65" transform="matrix(0.2734, 0.0, 0.0, 0.2734, 86.1, 12.0)" width="299.85" xlink:href="#font_TradeGothic_CondEighteen_e0"/>
      <use fill="#ffffff" height="12.65" transform="matrix(0.2734, 0.0, 0.0, 0.2734, 94.45, 12.0)" width="299.85" xlink:href="#font_TradeGothic_CondEighteen_a0"/>
      <use fill="#ffffff" height="12.65" transform="matrix(0.2734, 0.0, 0.0, 0.2734, 102.75, 12.0)" width="299.85" xlink:href="#font_TradeGothic_CondEighteen_l0"/>
      <use fill="#ffffff" height="12.65" transform="matrix(0.2734, 0.0, 0.0, 0.2734, 105.35, 12.0)" width="299.85" xlink:href="#font_TradeGothic_CondEighteen_o0"/>
      <use fill="#ffffff" height="12.65" transform="matrix(0.2734, 0.0, 0.0, 0.2734, 111.05, 12.0)" width="299.85" xlink:href="#font_TradeGothic_CondEighteen_o0"/>
      <use fill="#ffffff" height="12.65" transform="matrix(0.2734, 0.0, 0.0, 0.2734, 116.8, 12.0)" width="299.85" xlink:href="#font_TradeGothic_CondEighteen_k0"/>
      <use fill="#ffffff" height="12.65" transform="matrix(0.2734, 0.0, 0.0, 0.2734, 125.15, 12.0)" width="299.85" xlink:href="#font_TradeGothic_CondEighteen_a0"/>
      <use fill="#ffffff" height="12.65" transform="matrix(0.2734, 0.0, 0.0, 0.2734, 130.85, 12.0)" width="299.85" xlink:href="#font_TradeGothic_CondEighteen_t0"/>
      <use fill="#ffffff" height="12.65" transform="matrix(0.2734, 0.0, 0.0, 0.2734, 136.85, 12.0)" width="299.85" xlink:href="#font_TradeGothic_CondEighteen_w0"/>
      <use fill="#ffffff" height="12.65" transform="matrix(0.2734, 0.0, 0.0, 0.2734, 144.15, 12.0)" width="299.85" xlink:href="#font_TradeGothic_CondEighteen_h0"/>
      <use fill="#ffffff" height="12.65" transform="matrix(0.2734, 0.0, 0.0, 0.2734, 149.85, 12.0)" width="299.85" xlink:href="#font_TradeGothic_CondEighteen_a0"/>
      <use fill="#ffffff" height="12.65" transform="matrix(0.2734, 0.0, 0.0, 0.2734, 155.6, 12.0)" width="299.85" xlink:href="#font_TradeGothic_CondEighteen_t0"/>
      <use fill="#ffffff" height="12.65" transform="matrix(0.2734, 0.0, 0.0, 0.2734, 161.6, 12.0)" width="299.85" xlink:href="#font_TradeGothic_CondEighteen_T0"/>
      <use fill="#ffffff" height="12.65" transform="matrix(0.2734, 0.0, 0.0, 0.2734, 166.05, 12.0)" width="299.85" xlink:href="#font_TradeGothic_CondEighteen_o0"/>
      <use fill="#ffffff" height="12.65" transform="matrix(0.2734, 0.0, 0.0, 0.2734, 171.75, 12.0)" width="299.85" xlink:href="#font_TradeGothic_CondEighteen_o0"/>
      <use fill="#ffffff" height="12.65" transform="matrix(0.2734, 0.0, 0.0, 0.2734, 177.5, 12.0)" width="299.85" xlink:href="#font_TradeGothic_CondEighteen_n0"/>
      <use fill="#ffffff" height="12.65" transform="matrix(0.2734, 0.0, 0.0, 0.2734, 183.25, 12.0)" width="299.85" xlink:href="#font_TradeGothic_CondEighteen_t0"/>
      <use fill="#ffffff" height="12.65" transform="matrix(0.2734, 0.0, 0.0, 0.2734, 186.65, 12.0)" width="299.85" xlink:href="#font_TradeGothic_CondEighteen_o0"/>
      <use fill="#ffffff" height="12.65" transform="matrix(0.2734, 0.0, 0.0, 0.2734, 192.35, 12.0)" width="299.85" xlink:href="#font_TradeGothic_CondEighteen_w0"/>
      <use fill="#ffffff" height="12.65" transform="matrix(0.2734, 0.0, 0.0, 0.2734, 199.65, 12.0)" width="299.85" xlink:href="#font_TradeGothic_CondEighteen_n0"/>
      <use fill="#ffffff" height="12.65" transform="matrix(0.2734, 0.0, 0.0, 0.2734, 207.95, 12.0)" width="299.85" xlink:href="#font_TradeGothic_CondEighteen_h0"/>
      <use fill="#ffffff" height="12.65" transform="matrix(0.2734, 0.0, 0.0, 0.2734, 213.65, 12.0)" width="299.85" xlink:href="#font_TradeGothic_CondEighteen_a0"/>
      <use fill="#ffffff" height="12.65" transform="matrix(0.2734, 0.0, 0.0, 0.2734, 219.4, 12.0)" width="299.85" xlink:href="#font_TradeGothic_CondEighteen_s0"/>
      <use fill="#ffffff" height="12.65" transform="matrix(0.2734, 0.0, 0.0, 0.2734, 226.95, 12.0)" width="299.85" xlink:href="#font_TradeGothic_CondEighteen_i0"/>
      <use fill="#ffffff" height="12.65" transform="matrix(0.2734, 0.0, 0.0, 0.2734, 229.55, 12.0)" width="299.85" xlink:href="#font_TradeGothic_CondEighteen_n0"/>
      <use fill="#ffffff" height="12.65" transform="matrix(0.2734, 0.0, 0.0, 0.2734, 237.85, 12.0)" width="299.85" xlink:href="#font_TradeGothic_CondEighteen_s0"/>
      <use fill="#ffffff" height="12.65" transform="matrix(0.2734, 0.0, 0.0, 0.2734, 242.8, 12.0)" width="299.85" xlink:href="#font_TradeGothic_CondEighteen_t0"/>
      <use fill="#ffffff" height="12.65" transform="matrix(0.2734, 0.0, 0.0, 0.2734, 246.2, 12.0)" width="299.85" xlink:href="#font_TradeGothic_CondEighteen_o0"/>
      <use fill="#ffffff" height="12.65" transform="matrix(0.2734, 0.0, 0.0, 0.2734, 251.9, 12.0)" width="299.85" xlink:href="#font_TradeGothic_CondEighteen_r0"/>
      <use fill="#ffffff" height="12.65" transform="matrix(0.2734, 0.0, 0.0, 0.2734, 256.1, 12.0)" width="299.85" xlink:href="#font_TradeGothic_CondEighteen_e0"/>
      <use fill="#ffffff" height="12.65" transform="matrix(0.2734, 0.0, 0.0, 0.2734, 264.45, 12.0)" width="299.85" xlink:href="#font_TradeGothic_CondEighteen_f0"/>
      <use fill="#ffffff" height="12.65" transform="matrix(0.2734, 0.0, 0.0, 0.2734, 267.85, 12.0)" width="299.85" xlink:href="#font_TradeGothic_CondEighteen_o0"/>
      <use fill="#ffffff" height="12.65" transform="matrix(0.2734, 0.0, 0.0, 0.2734, 273.55, 12.0)" width="299.85" xlink:href="#font_TradeGothic_CondEighteen_r0"/>
      <use fill="#ffffff" height="12.65" transform="matrix(0.2734, 0.0, 0.0, 0.2734, 280.35, 12.0)" width="299.85" xlink:href="#font_TradeGothic_CondEighteen_y0"/>
      <use fill="#ffffff" height="12.65" transform="matrix(0.2734, 0.0, 0.0, 0.2734, 285.3, 12.0)" width="299.85" xlink:href="#font_TradeGothic_CondEighteen_o0"/>
      <use fill="#ffffff" height="12.65" transform="matrix(0.2734, 0.0, 0.0, 0.2734, 291.0, 12.0)" width="299.85" xlink:href="#font_TradeGothic_CondEighteen_u0"/>
      <use fill="#ffffff" height="12.65" transform="matrix(0.2734, 0.0, 0.0, 0.2734, 296.75, 12.0)" width="299.85" xlink:href="#font_TradeGothic_CondEighteen__2"/>
    </g>
  </g>
  <defs>
    <g id="font_TradeGothic_CondEighteen_W0">
      <path d="M10.95 -13.4 L10.95 -13.4 10.85 -13.4 6.55 -37.0 0.05 -37.0 7.75 0.0 13.6 0.0 18.35 -24.45 18.45 -24.45 23.5 0.0 29.35 0.0 36.5 -37.0 30.0 -37.0 26.1 -13.4 26.0 -13.4 21.25 -37.0 15.5 -37.0 10.95 -13.4 10.95 -13.4" fill-rule="evenodd" stroke="none"/>
    </g>
    <g id="font_TradeGothic_CondEighteen_h0">
      <path d="M9.45 0.0 L9.45 0.0 9.45 -21.45 Q11.55 -23.05 13.45 -23.2 15.5 -23.25 15.65 -21.2 L15.65 0.0 22.0 0.0 22.0 -22.1 Q21.85 -27.75 16.65 -28.0 14.05 -27.95 12.55 -27.1 L9.45 -24.85 9.45 -37.0 3.1 -37.0 3.1 0.0 9.45 0.0 9.45 0.0" fill-rule="evenodd" stroke="none"/>
    </g>
    <g id="font_TradeGothic_CondEighteen_i0">
      <path d="M9.45 -31.75 L9.45 -31.75 9.45 -36.95 3.1 -36.95 3.1 -31.75 9.45 -31.75 9.45 -31.75 M9.45 0.0 L9.45 0.0 9.45 -27.6 3.1 -27.6 3.1 0.0 9.45 0.0 9.45 0.0" fill-rule="evenodd" stroke="none"/>
    </g>
    <g id="font_TradeGothic_CondEighteen_l0">
      <path d="M9.45 0.0 L9.45 0.0 9.45 -37.0 3.1 -37.0 3.1 0.0 9.45 0.0 9.45 0.0" fill-rule="evenodd" stroke="none"/>
    </g>
    <g id="font_TradeGothic_CondEighteen_e0">
      <path d="M22.45 -17.8 L22.45 -17.8 Q22.5 -22.3 20.25 -25.1 17.95 -27.9 12.55 -28.0 7.15 -27.9 4.85 -25.1 2.6 -22.3 2.65 -17.8 L2.65 -9.7 Q2.6 -5.25 4.85 -2.45 7.15 0.35 12.55 0.4 17.85 0.35 20.15 -2.35 22.45 -5.0 22.45 -9.35 L16.05 -9.35 16.05 -8.75 Q16.0 -4.25 12.55 -4.4 9.1 -4.25 9.05 -8.75 L9.05 -12.6 22.45 -12.6 22.45 -17.8 22.45 -17.8 M9.05 -17.4 L9.05 -17.4 9.05 -18.8 Q9.1 -23.3 12.55 -23.2 16.0 -23.3 16.05 -18.8 L16.05 -17.4 9.05 -17.4 9.05 -17.4" fill-rule="evenodd" stroke="none"/>
    </g>
    <g id="font_TradeGothic_CondEighteen_y0">
      <path d="M11.1 -9.9 L11.1 -9.9 11.0 -9.9 6.9 -27.6 0.45 -27.6 7.1 -4.1 Q7.7 -2.15 7.75 -0.45 8.05 4.0 3.6 4.0 L2.05 4.0 2.05 8.8 4.7 8.8 Q8.25 8.85 10.3 7.35 12.4 5.85 13.35 2.1 L21.35 -27.6 14.95 -27.6 11.1 -9.9 11.1 -9.9" fill-rule="evenodd" stroke="none"/>
    </g>
    <g id="font_TradeGothic_CondEighteen_o0">
      <path d="M2.65 -9.8 L2.65 -9.8 Q2.6 -5.25 4.85 -2.45 7.15 0.35 12.55 0.4 17.95 0.35 20.25 -2.45 22.5 -5.25 22.45 -9.8 L22.45 -17.75 Q22.5 -22.3 20.25 -25.1 17.95 -27.9 12.55 -28.0 7.15 -27.9 4.85 -25.1 2.6 -22.3 2.65 -17.75 L2.65 -9.8 2.65 -9.8 M16.05 -8.8 L16.05 -8.8 Q16.0 -4.25 12.55 -4.4 9.1 -4.25 9.05 -8.8 L9.05 -18.75 Q9.1 -23.3 12.55 -23.2 16.0 -23.3 16.05 -18.75 L16.05 -8.8 16.05 -8.8" fill-rule="evenodd" stroke="none"/>
    </g>
    <g id="font_TradeGothic_CondEighteen_u0">
      <path d="M15.65 -27.6 L15.65 -27.6 15.65 -6.1 Q13.55 -4.5 11.65 -4.4 9.6 -4.35 9.45 -6.35 L9.45 -27.6 3.1 -27.6 3.1 -5.45 Q3.25 0.2 8.45 0.4 11.0 0.45 12.55 -0.4 14.1 -1.2 15.95 -2.75 L15.95 0.0 22.0 0.0 22.0 -27.6 15.65 -27.6 15.65 -27.6" fill-rule="evenodd" stroke="none"/>
    </g>
    <g id="font_TradeGothic_CondEighteen_w0">
      <path d="M9.25 -10.35 L9.25 -10.35 9.15 -10.35 6.35 -27.6 0.25 -27.6 6.15 0.0 11.2 0.0 15.35 -17.45 15.45 -17.45 18.9 0.0 24.0 0.0 31.0 -27.6 24.9 -27.6 21.45 -10.35 21.35 -10.35 17.95 -27.55 13.25 -27.55 9.25 -10.35 9.25 -10.35" fill-rule="evenodd" stroke="none"/>
    </g>
    <g id="font_TradeGothic_CondEighteen_a0">
      <path d="M15.4 -6.95 L15.4 -6.95 Q13.85 -4.65 11.25 -4.4 8.4 -4.3 8.35 -6.9 8.3 -8.65 9.75 -10.3 11.25 -12.0 15.4 -14.15 L15.4 -6.95 15.4 -6.95 M8.8 -19.35 L8.8 -19.35 Q8.55 -23.0 12.35 -23.2 15.45 -23.15 15.4 -19.7 L15.4 -18.1 Q8.7 -16.05 5.35 -13.2 2.0 -10.35 2.0 -5.85 2.0 -3.15 3.6 -1.4 5.25 0.35 8.5 0.4 12.6 0.55 15.75 -2.2 L16.1 0.0 22.2 0.0 Q21.85 -1.55 21.8 -2.95 L21.8 -20.45 Q21.55 -28.0 12.6 -28.0 3.35 -27.85 2.45 -19.35 L8.8 -19.35 8.8 -19.35" fill-rule="evenodd" stroke="none"/>
    </g>
    <g id="font_TradeGothic_CondEighteen_t0">
      <path d="M3.95 -22.8 L3.95 -22.8 3.95 -5.95 Q4.1 0.45 11.4 0.4 L14.6 0.1 14.6 -4.95 12.5 -4.95 Q10.3 -5.0 10.35 -7.2 L10.35 -22.8 14.6 -22.8 14.6 -27.6 10.35 -27.6 10.35 -35.0 3.95 -35.0 3.95 -27.6 0.5 -27.6 0.5 -22.8 3.95 -22.8 3.95 -22.8" fill-rule="evenodd" stroke="none"/>
    </g>
    <g id="font_TradeGothic_CondEighteen__1">
      <path d="M9.65 -6.15 L9.65 -6.15 2.9 -6.15 2.9 0.0 5.5 0.0 2.65 6.35 5.7 6.35 9.65 0.0 9.65 -6.15 9.65 -6.15" fill-rule="evenodd" stroke="none"/>
    </g>
    <g id="font_TradeGothic_CondEighteen_k0">
      <path d="M23.25 -27.6 L23.25 -27.6 16.5 -27.6 9.6 -17.85 9.45 -17.85 9.45 -37.0 3.1 -37.0 3.1 0.0 9.45 0.0 9.45 -9.65 12.45 -13.7 12.55 -13.7 17.65 0.0 24.0 0.0 16.7 -18.85 23.25 -27.6 23.25 -27.6" fill-rule="evenodd" stroke="none"/>
    </g>
    <g id="font_TradeGothic_CondEighteen_T0">
      <path d="M7.5 0.0 L7.5 0.0 14.55 0.0 14.55 -31.4 21.3 -31.4 21.3 -37.0 0.75 -37.0 0.75 -31.4 7.5 -31.4 7.5 0.0 7.5 0.0" fill-rule="evenodd" stroke="none"/>
    </g>
    <g id="font_TradeGothic_CondEighteen_n0">
      <path d="M9.45 0.0 L9.45 0.0 9.45 -21.45 Q11.55 -23.05 13.45 -23.2 15.5 -23.25 15.65 -21.2 L15.65 0.0 22.0 0.0 22.0 -22.1 Q21.85 -27.75 16.65 -28.0 14.1 -28.05 12.55 -27.2 L9.15 -24.8 9.15 -27.55 3.1 -27.55 3.1 0.0 9.45 0.0 9.45 0.0" fill-rule="evenodd" stroke="none"/>
    </g>
    <g id="font_TradeGothic_CondEighteen_s0">
      <path d="M19.9 -20.65 L19.9 -20.65 Q19.15 -23.9 16.75 -25.9 14.35 -27.95 10.7 -28.0 7.1 -27.95 4.7 -25.9 2.35 -23.9 2.25 -20.6 2.45 -16.95 5.25 -14.75 8.05 -12.55 10.85 -10.75 13.7 -9.0 13.9 -6.75 13.7 -4.45 11.25 -4.4 9.25 -4.45 8.35 -5.65 7.45 -6.9 7.2 -8.65 L1.55 -7.3 Q3.0 0.15 11.2 0.4 15.05 0.4 17.5 -1.5 19.95 -3.35 20.0 -7.05 19.8 -11.0 17.0 -13.3 14.2 -15.65 11.35 -17.3 8.55 -19.0 8.35 -21.05 8.5 -23.15 10.95 -23.2 13.8 -23.15 14.4 -19.8 L19.9 -20.65 19.9 -20.65" fill-rule="evenodd" stroke="none"/>
    </g>
    <g id="font_TradeGothic_CondEighteen_r0">
      <path d="M9.45 0.0 L9.45 0.0 9.45 -18.75 Q9.55 -20.6 10.8 -21.5 12.05 -22.4 13.7 -22.4 L17.75 -21.85 17.75 -27.95 16.45 -27.95 Q11.8 -27.85 9.3 -24.15 L9.2 -24.15 9.2 -27.6 3.1 -27.6 3.1 0.0 9.45 0.0 9.45 0.0" fill-rule="evenodd" stroke="none"/>
    </g>
    <g id="font_TradeGothic_CondEighteen_f0">
      <path d="M4.2 0.0 L4.2 0.0 10.55 0.0 10.55 -22.8 14.2 -22.8 14.2 -27.6 10.55 -27.6 10.55 -30.8 Q10.45 -32.65 12.65 -32.6 L14.45 -32.6 14.45 -37.4 11.3 -37.4 Q4.4 -37.45 4.2 -30.85 L4.2 -27.6 0.5 -27.6 0.5 -22.8 4.2 -22.8 4.2 0.0 4.2 0.0" fill-rule="evenodd" stroke="none"/>
    </g>
    <g id="font_TradeGothic_CondEighteen__2">
      <path d="M11.2 0.0 L11.2 0.0 11.2 -6.05 4.45 -6.05 4.45 0.0 11.2 0.0 11.2 0.0 M5.45 -10.85 L5.45 -10.85 10.15 -10.85 11.45 -36.95 4.2 -36.95 5.45 -10.85 5.45 -10.85" fill-rule="evenodd" stroke="none"/>
    </g>
  </defs>
</svg>
