<?xml version="1.0" encoding="UTF-8" standalone="no"?>
<svg xmlns:xlink="http://www.w3.org/1999/xlink" height="53.65px" width="447.1px" xmlns="http://www.w3.org/2000/svg">
  <g transform="matrix(1.0, 0.0, 0.0, 1.0, 151.35, -9.15)">
    <g transform="matrix(1.0, 0.0, 0.0, 1.0, -151.6, 0.0)">
      <use fill="#ffffff" height="53.65" transform="matrix(1.1719, 0.0, 0.0, 1.1719, 0.0, 53.0)" width="447.1" xlink:href="#font_TradeGothic_CondEighteen_J0"/>
      <use fill="#ffffff" height="53.65" transform="matrix(1.1719, 0.0, 0.0, 1.1719, 16.1, 53.0)" width="447.1" xlink:href="#font_TradeGothic_CondEighteen_o0"/>
      <use fill="#ffffff" height="53.65" transform="matrix(1.1719, 0.0, 0.0, 1.1719, 42.1, 53.0)" width="447.1" xlink:href="#font_TradeGothic_CondEighteen_i0"/>
      <use fill="#ffffff" height="53.65" transform="matrix(1.1719, 0.0, 0.0, 1.1719, 54.8, 53.0)" width="447.1" xlink:href="#font_TradeGothic_CondEighteen_n0"/>
      <use fill="#ffffff" height="53.65" transform="matrix(1.1719, 0.0, 0.0, 1.1719, 93.55, 53.0)" width="447.1" xlink:href="#font_TradeGothic_CondEighteen_u0"/>
      <use fill="#ffffff" height="53.65" transform="matrix(1.1719, 0.0, 0.0, 1.1719, 119.6, 53.0)" width="447.1" xlink:href="#font_TradeGothic_CondEighteen_s0"/>
      <use fill="#ffffff" height="53.65" transform="matrix(1.1719, 0.0, 0.0, 1.1719, 155.05, 53.0)" width="447.1" xlink:href="#font_TradeGothic_CondEighteen_a0"/>
      <use fill="#ffffff" height="53.65" transform="matrix(1.1719, 0.0, 0.0, 1.1719, 181.1, 53.0)" width="447.1" xlink:href="#font_TradeGothic_CondEighteen_n0"/>
      <use fill="#ffffff" height="53.65" transform="matrix(1.1719, 0.0, 0.0, 1.1719, 207.15, 53.0)" width="447.1" xlink:href="#font_TradeGothic_CondEighteen_d0"/>
      <use fill="#ffffff" height="53.65" transform="matrix(1.1719, 0.0, 0.0, 1.1719, 245.9, 53.0)" width="447.1" xlink:href="#font_TradeGothic_CondEighteen_h0"/>
      <use fill="#ffffff" height="53.65" transform="matrix(1.1719, 0.0, 0.0, 1.1719, 271.95, 53.0)" width="447.1" xlink:href="#font_TradeGothic_CondEighteen_e0"/>
      <use fill="#ffffff" height="53.65" transform="matrix(1.1719, 0.0, 0.0, 1.1719, 298.0, 53.0)" width="447.1" xlink:href="#font_TradeGothic_CondEighteen_l0"/>
      <use fill="#ffffff" height="53.65" transform="matrix(1.1719, 0.0, 0.0, 1.1719, 310.7, 53.0)" width="447.1" xlink:href="#font_TradeGothic_CondEighteen_p0"/>
      <use fill="#ffffff" height="53.65" transform="matrix(1.1719, 0.0, 0.0, 1.1719, 349.45, 53.0)" width="447.1" xlink:href="#font_TradeGothic_CondEighteen_s0"/>
      <use fill="#ffffff" height="53.65" transform="matrix(1.1719, 0.0, 0.0, 1.1719, 372.2, 53.0)" width="447.1" xlink:href="#font_TradeGothic_CondEighteen_a0"/>
      <use fill="#ffffff" height="53.65" transform="matrix(1.1719, 0.0, 0.0, 1.1719, 398.25, 53.0)" width="447.1" xlink:href="#font_TradeGothic_CondEighteen_v0"/>
      <use fill="#ffffff" height="53.65" transform="matrix(1.1719, 0.0, 0.0, 1.1719, 421.0, 53.0)" width="447.1" xlink:href="#font_TradeGothic_CondEighteen_e0"/>
    </g>
  </g>
  <defs>
    <g id="font_TradeGothic_CondEighteen_J0">
      <path d="M0.15 0.4 L0.15 0.4 2.5 0.4 Q8.2 0.35 10.3 -1.8 12.45 -3.95 12.35 -7.55 L12.35 -37.0 5.3 -37.0 5.3 -8.25 Q5.5 -5.2 1.65 -5.2 L0.15 -5.2 0.15 0.4 0.15 0.4" fill-rule="evenodd" stroke="none"/>
    </g>
    <g id="font_TradeGothic_CondEighteen_o0">
      <path d="M2.65 -9.8 L2.65 -9.8 Q2.6 -5.25 4.85 -2.45 7.15 0.35 12.55 0.4 17.95 0.35 20.25 -2.45 22.5 -5.25 22.45 -9.8 L22.45 -17.75 Q22.5 -22.3 20.25 -25.1 17.95 -27.9 12.55 -28.0 7.15 -27.9 4.85 -25.1 2.6 -22.3 2.65 -17.75 L2.65 -9.8 2.65 -9.8 M16.05 -8.8 L16.05 -8.8 Q16.0 -4.25 12.55 -4.4 9.1 -4.25 9.05 -8.8 L9.05 -18.75 Q9.1 -23.3 12.55 -23.2 16.0 -23.3 16.05 -18.75 L16.05 -8.8 16.05 -8.8" fill-rule="evenodd" stroke="none"/>
    </g>
    <g id="font_TradeGothic_CondEighteen_i0">
      <path d="M9.45 -31.75 L9.45 -31.75 9.45 -36.95 3.1 -36.95 3.1 -31.75 9.45 -31.75 9.45 -31.75 M9.45 0.0 L9.45 0.0 9.45 -27.6 3.1 -27.6 3.1 0.0 9.45 0.0 9.45 0.0" fill-rule="evenodd" stroke="none"/>
    </g>
    <g id="font_TradeGothic_CondEighteen_n0">
      <path d="M9.45 0.0 L9.45 0.0 9.45 -21.45 Q11.55 -23.05 13.45 -23.2 15.5 -23.25 15.65 -21.2 L15.65 0.0 22.0 0.0 22.0 -22.1 Q21.85 -27.75 16.65 -28.0 14.1 -28.05 12.55 -27.2 L9.15 -24.8 9.15 -27.55 3.1 -27.55 3.1 0.0 9.45 0.0 9.45 0.0" fill-rule="evenodd" stroke="none"/>
    </g>
    <g id="font_TradeGothic_CondEighteen_u0">
      <path d="M15.65 -27.6 L15.65 -27.6 15.65 -6.1 Q13.55 -4.5 11.65 -4.4 9.6 -4.35 9.45 -6.35 L9.45 -27.6 3.1 -27.6 3.1 -5.45 Q3.25 0.2 8.45 0.4 11.0 0.45 12.55 -0.4 14.1 -1.2 15.95 -2.75 L15.95 0.0 22.0 0.0 22.0 -27.6 15.65 -27.6 15.65 -27.6" fill-rule="evenodd" stroke="none"/>
    </g>
    <g id="font_TradeGothic_CondEighteen_s0">
      <path d="M19.9 -20.65 L19.9 -20.65 Q19.15 -23.9 16.75 -25.9 14.35 -27.95 10.7 -28.0 7.1 -27.95 4.7 -25.9 2.35 -23.9 2.25 -20.6 2.45 -16.95 5.25 -14.75 8.05 -12.55 10.85 -10.75 13.7 -9.0 13.9 -6.75 13.7 -4.45 11.25 -4.4 9.25 -4.45 8.35 -5.65 7.45 -6.9 7.2 -8.65 L1.55 -7.3 Q3.0 0.15 11.2 0.4 15.05 0.4 17.5 -1.5 19.95 -3.35 20.0 -7.05 19.8 -11.0 17.0 -13.3 14.2 -15.65 11.35 -17.3 8.55 -19.0 8.35 -21.05 8.5 -23.15 10.95 -23.2 13.8 -23.15 14.4 -19.8 L19.9 -20.65 19.9 -20.65" fill-rule="evenodd" stroke="none"/>
    </g>
    <g id="font_TradeGothic_CondEighteen_a0">
      <path d="M15.4 -6.95 L15.4 -6.95 Q13.85 -4.65 11.25 -4.4 8.4 -4.3 8.35 -6.9 8.3 -8.65 9.75 -10.3 11.25 -12.0 15.4 -14.15 L15.4 -6.95 15.4 -6.95 M8.8 -19.35 L8.8 -19.35 Q8.55 -23.0 12.35 -23.2 15.45 -23.15 15.4 -19.7 L15.4 -18.1 Q8.7 -16.05 5.35 -13.2 2.0 -10.35 2.0 -5.85 2.0 -3.15 3.6 -1.4 5.25 0.35 8.5 0.4 12.6 0.55 15.75 -2.2 L16.1 0.0 22.2 0.0 Q21.85 -1.55 21.8 -2.95 L21.8 -20.45 Q21.55 -28.0 12.6 -28.0 3.35 -27.85 2.45 -19.35 L8.8 -19.35 8.8 -19.35" fill-rule="evenodd" stroke="none"/>
    </g>
    <g id="font_TradeGothic_CondEighteen_d0">
      <path d="M15.65 -5.8 L15.65 -5.8 Q13.85 -4.5 12.05 -4.4 10.75 -4.3 9.9 -5.25 9.05 -6.15 9.05 -8.75 L9.05 -18.8 Q9.05 -21.45 9.9 -22.35 10.75 -23.25 12.05 -23.2 13.85 -23.1 15.65 -21.8 L15.65 -5.8 15.65 -5.8 M22.0 0.0 L22.0 0.0 22.0 -37.0 15.65 -37.0 15.65 -25.05 12.5 -27.25 Q11.1 -28.0 9.15 -28.0 2.9 -27.9 2.65 -20.25 L2.65 -7.15 Q2.9 0.25 9.15 0.4 11.45 0.4 12.9 -0.4 14.35 -1.2 15.85 -3.05 L15.95 -3.05 15.95 0.0 22.0 0.0 22.0 0.0" fill-rule="evenodd" stroke="none"/>
    </g>
    <g id="font_TradeGothic_CondEighteen_h0">
      <path d="M9.45 0.0 L9.45 0.0 9.45 -21.45 Q11.55 -23.05 13.45 -23.2 15.5 -23.25 15.65 -21.2 L15.65 0.0 22.0 0.0 22.0 -22.1 Q21.85 -27.75 16.65 -28.0 14.05 -27.95 12.55 -27.1 L9.45 -24.85 9.45 -37.0 3.1 -37.0 3.1 0.0 9.45 0.0 9.45 0.0" fill-rule="evenodd" stroke="none"/>
    </g>
    <g id="font_TradeGothic_CondEighteen_e0">
      <path d="M22.45 -17.8 L22.45 -17.8 Q22.5 -22.3 20.25 -25.1 17.95 -27.9 12.55 -28.0 7.15 -27.9 4.85 -25.1 2.6 -22.3 2.65 -17.8 L2.65 -9.7 Q2.6 -5.25 4.85 -2.45 7.15 0.35 12.55 0.4 17.85 0.35 20.15 -2.35 22.45 -5.0 22.45 -9.35 L16.05 -9.35 16.05 -8.75 Q16.0 -4.25 12.55 -4.4 9.1 -4.25 9.05 -8.75 L9.05 -12.6 22.45 -12.6 22.45 -17.8 22.45 -17.8 M9.05 -17.4 L9.05 -17.4 9.05 -18.8 Q9.1 -23.3 12.55 -23.2 16.0 -23.3 16.05 -18.8 L16.05 -17.4 9.05 -17.4 9.05 -17.4" fill-rule="evenodd" stroke="none"/>
    </g>
    <g id="font_TradeGothic_CondEighteen_l0">
      <path d="M9.45 0.0 L9.45 0.0 9.45 -37.0 3.1 -37.0 3.1 0.0 9.45 0.0 9.45 0.0" fill-rule="evenodd" stroke="none"/>
    </g>
    <g id="font_TradeGothic_CondEighteen_p0">
      <path d="M9.45 -21.8 L9.45 -21.8 Q11.25 -23.1 13.05 -23.2 14.35 -23.25 15.2 -22.35 16.05 -21.45 16.05 -18.8 L16.05 -8.75 Q16.05 -6.15 15.2 -5.25 14.35 -4.3 13.05 -4.4 11.25 -4.5 9.45 -5.8 L9.45 -21.8 9.45 -21.8 M3.1 -27.6 L3.1 -27.6 3.1 8.8 9.45 8.8 9.45 -2.5 Q11.25 -1.1 12.6 -0.35 14.0 0.4 15.95 0.4 22.2 0.3 22.45 -7.35 L22.45 -20.45 Q22.2 -27.85 15.95 -28.0 13.7 -28.0 12.2 -27.2 10.75 -26.35 9.25 -24.55 L9.15 -24.55 9.15 -27.6 3.1 -27.6 3.1 -27.6" fill-rule="evenodd" stroke="none"/>
    </g>
    <g id="font_TradeGothic_CondEighteen_v0">
      <path d="M10.95 -9.1 L10.95 -9.1 10.8 -9.1 6.9 -27.6 0.45 -27.6 7.8 0.0 14.0 0.0 21.35 -27.6 14.9 -27.6 10.95 -9.1 10.95 -9.1" fill-rule="evenodd" stroke="none"/>
    </g>
  </defs>
</svg>
