<?xml version="1.0" encoding="UTF-8" standalone="no"?>
<svg xmlns:xlink="http://www.w3.org/1999/xlink" height="73.85px" width="410.6px" xmlns="http://www.w3.org/2000/svg">
  <g transform="matrix(1.0, 0.0, 0.0, 1.0, 135.05, -14.5)">
    <g transform="matrix(1.0, 0.0, 0.0, 1.0, -136.55, 0.0)">
      <use fill="#ffffff" height="73.85" transform="matrix(1.9531, 0.0, 0.0, 1.9531, 0.0, 88.0)" width="410.6" xlink:href="#font_TradeGothic_CondEighteen_T0"/>
      <use fill="#ffffff" height="73.85" transform="matrix(1.9531, 0.0, 0.0, 1.9531, 38.3, 88.0)" width="410.6" xlink:href="#font_TradeGothic_CondEighteen_O0"/>
      <use fill="#ffffff" height="73.85" transform="matrix(1.9531, 0.0, 0.0, 1.9531, 87.7, 88.0)" width="410.6" xlink:href="#font_TradeGothic_CondEighteen_O0"/>
      <use fill="#ffffff" height="73.85" transform="matrix(1.9531, 0.0, 0.0, 1.9531, 137.1, 88.0)" width="410.6" xlink:href="#font_TradeGothic_CondEighteen_N0"/>
      <use fill="#ffffff" height="73.85" transform="matrix(1.9531, 0.0, 0.0, 1.9531, 186.5, 88.0)" width="410.6" xlink:href="#font_TradeGothic_CondEighteen_T0"/>
      <use fill="#ffffff" height="73.85" transform="matrix(1.9531, 0.0, 0.0, 1.9531, 224.8, 88.0)" width="410.6" xlink:href="#font_TradeGothic_CondEighteen_O0"/>
      <use fill="#ffffff" height="73.85" transform="matrix(1.9531, 0.0, 0.0, 1.9531, 274.2, 88.0)" width="410.6" xlink:href="#font_TradeGothic_CondEighteen_W0"/>
      <use fill="#ffffff" height="73.85" transform="matrix(1.9531, 0.0, 0.0, 1.9531, 340.3, 88.0)" width="410.6" xlink:href="#font_TradeGothic_CondEighteen_N0"/>
      <use fill="#ffffff" height="73.85" transform="matrix(1.9531, 0.0, 0.0, 1.9531, 389.7, 88.0)" width="410.6" xlink:href="#font_TradeGothic_CondEighteen__0"/>
    </g>
  </g>
  <defs>
    <g id="font_TradeGothic_CondEighteen_T0">
      <path d="M7.5 0.0 L7.5 0.0 14.55 0.0 14.55 -31.4 21.3 -31.4 21.3 -37.0 0.75 -37.0 0.75 -31.4 7.5 -31.4 7.5 0.0 7.5 0.0" fill-rule="evenodd" stroke="none"/>
    </g>
    <g id="font_TradeGothic_CondEighteen_O0">
      <path d="M10.35 -27.75 L10.35 -27.75 Q10.1 -31.8 14.1 -31.8 18.1 -31.8 17.85 -27.75 L17.85 -9.25 Q18.1 -5.15 14.1 -5.2 10.1 -5.15 10.35 -9.25 L10.35 -27.75 10.35 -27.75 M3.3 -9.1 L3.3 -9.1 Q3.3 -5.1 5.95 -2.4 8.6 0.3 14.1 0.4 19.6 0.3 22.25 -2.4 24.9 -5.1 24.85 -9.1 L24.85 -27.9 Q24.9 -31.9 22.25 -34.6 19.6 -37.3 14.1 -37.4 8.6 -37.3 5.95 -34.6 3.3 -31.9 3.3 -27.9 L3.3 -9.1 3.3 -9.1" fill-rule="evenodd" stroke="none"/>
    </g>
    <g id="font_TradeGothic_CondEighteen_N0">
      <path d="M9.7 0.0 L9.7 0.0 9.7 -23.1 9.8 -23.1 18.7 0.0 24.85 0.0 24.85 -37.0 18.5 -37.0 18.5 -15.8 18.4 -15.8 9.85 -37.0 3.3 -37.0 3.3 0.0 9.7 0.0 9.7 0.0" fill-rule="evenodd" stroke="none"/>
    </g>
    <g id="font_TradeGothic_CondEighteen_W0">
      <path d="M10.95 -13.4 L10.95 -13.4 10.85 -13.4 6.55 -37.0 0.05 -37.0 7.75 0.0 13.6 0.0 18.35 -24.45 18.45 -24.45 23.5 0.0 29.35 0.0 36.5 -37.0 30.0 -37.0 26.1 -13.4 26.0 -13.4 21.25 -37.0 15.5 -37.0 10.95 -13.4 10.95 -13.4" fill-rule="evenodd" stroke="none"/>
    </g>
    <g id="font_TradeGothic_CondEighteen__0">
      <path d="M11.2 0.0 L11.2 0.0 11.2 -6.05 4.45 -6.05 4.45 0.0 11.2 0.0 11.2 0.0 M5.45 -10.85 L5.45 -10.85 10.15 -10.85 11.45 -36.95 4.2 -36.95 5.45 -10.85 5.45 -10.85" fill-rule="evenodd" stroke="none"/>
    </g>
  </defs>
</svg>
