<?xml version="1.0" encoding="UTF-8" standalone="no"?>
<svg xmlns:xlink="http://www.w3.org/1999/xlink" height="23.6px" width="72.4px" xmlns="http://www.w3.org/2000/svg">
  <g transform="matrix(1.0, 0.0, 0.0, 1.0, -36.35, -4.6)">
    <g transform="matrix(1.0, 0.0, 0.0, 1.0, 35.85, 0.0)">
      <use fill="#ffffff" height="23.6" transform="matrix(0.625, 0.0, 0.0, 0.625, 0.0, 28.0)" width="72.4" xlink:href="#font_TradeGothic_CondEighteen_T0"/>
      <use fill="#ffffff" height="23.6" transform="matrix(0.625, 0.0, 0.0, 0.625, 11.95, 28.0)" width="72.4" xlink:href="#font_TradeGothic_CondEighteen_O0"/>
      <use fill="#ffffff" height="23.6" transform="matrix(0.625, 0.0, 0.0, 0.625, 27.45, 28.0)" width="72.4" xlink:href="#font_TradeGothic_CondEighteen_O0"/>
      <use fill="#ffffff" height="23.6" transform="matrix(0.625, 0.0, 0.0, 0.625, 42.95, 28.0)" width="72.4" xlink:href="#font_TradeGothic_CondEighteen_N0"/>
      <use fill="#ffffff" height="23.6" transform="matrix(0.625, 0.0, 0.0, 0.625, 58.45, 28.0)" width="72.4" xlink:href="#font_TradeGothic_CondEighteen_S0"/>
    </g>
  </g>
  <defs>
    <g id="font_TradeGothic_CondEighteen_T0">
      <path d="M7.5 0.0 L7.5 0.0 14.55 0.0 14.55 -31.4 21.3 -31.4 21.3 -37.0 0.75 -37.0 0.75 -31.4 7.5 -31.4 7.5 0.0 7.5 0.0" fill-rule="evenodd" stroke="none"/>
    </g>
    <g id="font_TradeGothic_CondEighteen_O0">
      <path d="M10.35 -27.75 L10.35 -27.75 Q10.1 -31.8 14.1 -31.8 18.1 -31.8 17.85 -27.75 L17.85 -9.25 Q18.1 -5.15 14.1 -5.2 10.1 -5.15 10.35 -9.25 L10.35 -27.75 10.35 -27.75 M3.3 -9.1 L3.3 -9.1 Q3.3 -5.1 5.95 -2.4 8.6 0.3 14.1 0.4 19.6 0.3 22.25 -2.4 24.9 -5.1 24.85 -9.1 L24.85 -27.9 Q24.9 -31.9 22.25 -34.6 19.6 -37.3 14.1 -37.4 8.6 -37.3 5.95 -34.6 3.3 -31.9 3.3 -27.9 L3.3 -9.1 3.3 -9.1" fill-rule="evenodd" stroke="none"/>
    </g>
    <g id="font_TradeGothic_CondEighteen_N0">
      <path d="M9.7 0.0 L9.7 0.0 9.7 -23.1 9.8 -23.1 18.7 0.0 24.85 0.0 24.85 -37.0 18.5 -37.0 18.5 -15.8 18.4 -15.8 9.85 -37.0 3.3 -37.0 3.3 0.0 9.7 0.0 9.7 0.0" fill-rule="evenodd" stroke="none"/>
    </g>
    <g id="font_TradeGothic_CondEighteen_S0">
      <path d="M22.85 -28.35 L22.85 -28.35 Q22.4 -32.35 19.9 -34.85 17.4 -37.3 13.1 -37.4 2.55 -37.2 2.25 -28.1 2.5 -23.1 5.9 -20.1 9.25 -17.1 12.65 -14.6 16.05 -12.1 16.3 -8.55 16.1 -5.25 12.4 -5.2 8.95 -5.15 8.35 -10.75 L1.55 -9.9 Q1.8 -5.6 4.5 -2.65 7.25 0.3 12.05 0.4 16.95 0.4 20.0 -2.05 23.0 -4.5 23.1 -9.15 22.85 -13.9 19.45 -17.0 L12.65 -22.6 Q9.25 -25.1 9.0 -28.15 9.05 -31.7 12.4 -31.8 13.6 -31.85 14.7 -30.95 15.8 -30.05 16.1 -27.7 L22.85 -28.35 22.85 -28.35" fill-rule="evenodd" stroke="none"/>
    </g>
  </defs>
</svg>
