<?xml version="1.0" encoding="UTF-8" standalone="no"?>
<svg xmlns:xlink="http://www.w3.org/1999/xlink" height="17.0px" width="76.35px" xmlns="http://www.w3.org/2000/svg">
  <g transform="matrix(1.0, 0.0, 0.0, 1.0, -34.15, -1.0)">
    <g transform="matrix(1.0, 0.0, 0.0, 1.0, 33.85, 0.0)">
      <use fill="#ffffff" height="17.0" transform="matrix(0.3711, 0.0, 0.0, 0.3711, 0.0, 15.0)" width="76.35" xlink:href="#font_TradeGothic_CondEighteen_t0"/>
      <use fill="#ffffff" height="17.0" transform="matrix(0.3711, 0.0, 0.0, 0.3711, 4.8, 15.0)" width="76.35" xlink:href="#font_TradeGothic_CondEighteen_o0"/>
      <use fill="#ffffff" height="17.0" transform="matrix(0.3711, 0.0, 0.0, 0.3711, 16.4, 15.0)" width="76.35" xlink:href="#font_TradeGothic_CondEighteen_t0"/>
      <use fill="#ffffff" height="17.0" transform="matrix(0.3711, 0.0, 0.0, 0.3711, 21.2, 15.0)" width="76.35" xlink:href="#font_TradeGothic_CondEighteen_h0"/>
      <use fill="#ffffff" height="17.0" transform="matrix(0.3711, 0.0, 0.0, 0.3711, 29.1, 15.0)" width="76.35" xlink:href="#font_TradeGothic_CondEighteen_e0"/>
      <use fill="#ffffff" height="17.0" transform="matrix(0.3711, 0.0, 0.0, 0.3711, 40.7, 15.0)" width="76.35" xlink:href="#font_TradeGothic_CondEighteen_p0"/>
      <use fill="#ffffff" height="17.0" transform="matrix(0.3711, 0.0, 0.0, 0.3711, 48.65, 15.0)" width="76.35" xlink:href="#font_TradeGothic_CondEighteen_l0"/>
      <use fill="#ffffff" height="17.0" transform="matrix(0.3711, 0.0, 0.0, 0.3711, 52.35, 15.0)" width="76.35" xlink:href="#font_TradeGothic_CondEighteen_a0"/>
      <use fill="#ffffff" height="17.0" transform="matrix(0.3711, 0.0, 0.0, 0.3711, 60.3, 15.0)" width="76.35" xlink:href="#font_TradeGothic_CondEighteen_c0"/>
      <use fill="#ffffff" height="17.0" transform="matrix(0.3711, 0.0, 0.0, 0.3711, 68.2, 15.0)" width="76.35" xlink:href="#font_TradeGothic_CondEighteen_e0"/>
    </g>
  </g>
  <defs>
    <g id="font_TradeGothic_CondEighteen_t0">
      <path d="M3.95 -22.8 L3.95 -22.8 3.95 -5.95 Q4.1 0.45 11.4 0.4 L14.6 0.1 14.6 -4.95 12.5 -4.95 Q10.3 -5.0 10.35 -7.2 L10.35 -22.8 14.6 -22.8 14.6 -27.6 10.35 -27.6 10.35 -35.0 3.95 -35.0 3.95 -27.6 0.5 -27.6 0.5 -22.8 3.95 -22.8 3.95 -22.8" fill-rule="evenodd" stroke="none"/>
    </g>
    <g id="font_TradeGothic_CondEighteen_o0">
      <path d="M2.65 -9.8 L2.65 -9.8 Q2.6 -5.25 4.85 -2.45 7.15 0.35 12.55 0.4 17.95 0.35 20.25 -2.45 22.5 -5.25 22.45 -9.8 L22.45 -17.75 Q22.5 -22.3 20.25 -25.1 17.95 -27.9 12.55 -28.0 7.15 -27.9 4.85 -25.1 2.6 -22.3 2.65 -17.75 L2.65 -9.8 2.65 -9.8 M16.05 -8.8 L16.05 -8.8 Q16.0 -4.25 12.55 -4.4 9.1 -4.25 9.05 -8.8 L9.05 -18.75 Q9.1 -23.3 12.55 -23.2 16.0 -23.3 16.05 -18.75 L16.05 -8.8 16.05 -8.8" fill-rule="evenodd" stroke="none"/>
    </g>
    <g id="font_TradeGothic_CondEighteen_h0">
      <path d="M9.45 0.0 L9.45 0.0 9.45 -21.45 Q11.55 -23.05 13.45 -23.2 15.5 -23.25 15.65 -21.2 L15.65 0.0 22.0 0.0 22.0 -22.1 Q21.85 -27.75 16.65 -28.0 14.05 -27.95 12.55 -27.1 L9.45 -24.85 9.45 -37.0 3.1 -37.0 3.1 0.0 9.45 0.0 9.45 0.0" fill-rule="evenodd" stroke="none"/>
    </g>
    <g id="font_TradeGothic_CondEighteen_e0">
      <path d="M22.45 -17.8 L22.45 -17.8 Q22.5 -22.3 20.25 -25.1 17.95 -27.9 12.55 -28.0 7.15 -27.9 4.85 -25.1 2.6 -22.3 2.65 -17.8 L2.65 -9.7 Q2.6 -5.25 4.85 -2.45 7.15 0.35 12.55 0.4 17.85 0.35 20.15 -2.35 22.45 -5.0 22.45 -9.35 L16.05 -9.35 16.05 -8.75 Q16.0 -4.25 12.55 -4.4 9.1 -4.25 9.05 -8.75 L9.05 -12.6 22.45 -12.6 22.45 -17.8 22.45 -17.8 M9.05 -17.4 L9.05 -17.4 9.05 -18.8 Q9.1 -23.3 12.55 -23.2 16.0 -23.3 16.05 -18.8 L16.05 -17.4 9.05 -17.4 9.05 -17.4" fill-rule="evenodd" stroke="none"/>
    </g>
    <g id="font_TradeGothic_CondEighteen_p0">
      <path d="M9.45 -21.8 L9.45 -21.8 Q11.25 -23.1 13.05 -23.2 14.35 -23.25 15.2 -22.35 16.05 -21.45 16.05 -18.8 L16.05 -8.75 Q16.05 -6.15 15.2 -5.25 14.35 -4.3 13.05 -4.4 11.25 -4.5 9.45 -5.8 L9.45 -21.8 9.45 -21.8 M3.1 -27.6 L3.1 -27.6 3.1 8.8 9.45 8.8 9.45 -2.5 Q11.25 -1.1 12.6 -0.35 14.0 0.4 15.95 0.4 22.2 0.3 22.45 -7.35 L22.45 -20.45 Q22.2 -27.85 15.95 -28.0 13.7 -28.0 12.2 -27.2 10.75 -26.35 9.25 -24.55 L9.15 -24.55 9.15 -27.6 3.1 -27.6 3.1 -27.6" fill-rule="evenodd" stroke="none"/>
    </g>
    <g id="font_TradeGothic_CondEighteen_l0">
      <path d="M9.45 0.0 L9.45 0.0 9.45 -37.0 3.1 -37.0 3.1 0.0 9.45 0.0 9.45 0.0" fill-rule="evenodd" stroke="none"/>
    </g>
    <g id="font_TradeGothic_CondEighteen_a0">
      <path d="M15.4 -6.95 L15.4 -6.95 Q13.85 -4.65 11.25 -4.4 8.4 -4.3 8.35 -6.9 8.3 -8.65 9.75 -10.3 11.25 -12.0 15.4 -14.15 L15.4 -6.95 15.4 -6.95 M8.8 -19.35 L8.8 -19.35 Q8.55 -23.0 12.35 -23.2 15.45 -23.15 15.4 -19.7 L15.4 -18.1 Q8.7 -16.05 5.35 -13.2 2.0 -10.35 2.0 -5.85 2.0 -3.15 3.6 -1.4 5.25 0.35 8.5 0.4 12.6 0.55 15.75 -2.2 L16.1 0.0 22.2 0.0 Q21.85 -1.55 21.8 -2.95 L21.8 -20.45 Q21.55 -28.0 12.6 -28.0 3.35 -27.85 2.45 -19.35 L8.8 -19.35 8.8 -19.35" fill-rule="evenodd" stroke="none"/>
    </g>
    <g id="font_TradeGothic_CondEighteen_c0">
      <path d="M22.45 -18.05 L22.45 -18.05 Q22.45 -22.5 20.15 -25.2 17.85 -27.9 12.55 -28.0 7.15 -27.9 4.85 -25.1 2.6 -22.3 2.65 -17.75 L2.65 -9.8 Q2.6 -5.25 4.85 -2.45 7.15 0.35 12.55 0.4 17.95 0.35 20.25 -2.45 22.5 -5.25 22.45 -9.8 L22.45 -10.5 16.05 -10.5 16.05 -8.8 Q16.0 -4.25 12.55 -4.4 9.1 -4.25 9.05 -8.8 L9.05 -18.75 Q9.1 -23.3 12.55 -23.2 16.0 -23.3 16.05 -18.75 L16.05 -18.05 22.45 -18.05 22.45 -18.05" fill-rule="evenodd" stroke="none"/>
    </g>
  </defs>
</svg>
