<?xml version="1.0" encoding="UTF-8" standalone="no"?>
<svg xmlns:xlink="http://www.w3.org/1999/xlink" height="17.45px" width="243.35px" xmlns="http://www.w3.org/2000/svg">
  <g transform="matrix(1.0, 0.0, 0.0, 1.0, 49.5, -3.5)">
    <g transform="matrix(1.0, 0.0, 0.0, 1.0, -49.9, 0.0)">
      <use fill="#000000" height="17.45" transform="matrix(0.3906, 0.0, 0.0, 0.3906, 0.0, 18.0)" width="243.35" xlink:href="#font_Franklin_Gothic_Condensed_a0"/>
      <use fill="#000000" height="17.45" transform="matrix(0.3906, 0.0, 0.0, 0.3906, 9.15, 18.0)" width="243.35" xlink:href="#font_Franklin_Gothic_Condensed_n0"/>
      <use fill="#000000" height="17.45" transform="matrix(0.3906, 0.0, 0.0, 0.3906, 18.65, 18.0)" width="243.35" xlink:href="#font_Franklin_Gothic_Condensed_d0"/>
      <use fill="#000000" height="17.45" transform="matrix(0.3906, 0.0, 0.0, 0.3906, 33.0, 18.0)" width="243.35" xlink:href="#font_Franklin_Gothic_Condensed_p0"/>
      <use fill="#000000" height="17.45" transform="matrix(0.3906, 0.0, 0.0, 0.3906, 42.5, 18.0)" width="243.35" xlink:href="#font_Franklin_Gothic_Condensed_u0"/>
      <use fill="#000000" height="17.45" transform="matrix(0.3906, 0.0, 0.0, 0.3906, 52.0, 18.0)" width="243.35" xlink:href="#font_Franklin_Gothic_Condensed_t0"/>
      <use fill="#000000" height="17.45" transform="matrix(0.3906, 0.0, 0.0, 0.3906, 62.65, 18.0)" width="243.35" xlink:href="#font_Franklin_Gothic_Condensed_a0"/>
      <use fill="#000000" height="17.45" transform="matrix(0.3906, 0.0, 0.0, 0.3906, 71.8, 18.0)" width="243.35" xlink:href="#font_Franklin_Gothic_Condensed_n0"/>
      <use fill="#000000" height="17.45" transform="matrix(0.3906, 0.0, 0.0, 0.3906, 86.15, 18.0)" width="243.35" xlink:href="#font_Franklin_Gothic_Condensed_e0"/>
      <use fill="#000000" height="17.45" transform="matrix(0.3906, 0.0, 0.0, 0.3906, 94.9, 18.0)" width="243.35" xlink:href="#font_Franklin_Gothic_Condensed_n0"/>
      <use fill="#000000" height="17.45" transform="matrix(0.3906, 0.0, 0.0, 0.3906, 104.4, 18.0)" width="243.35" xlink:href="#font_Franklin_Gothic_Condensed_d0"/>
      <use fill="#000000" height="17.45" transform="matrix(0.3906, 0.0, 0.0, 0.3906, 118.75, 18.0)" width="243.35" xlink:href="#font_Franklin_Gothic_Condensed_t0"/>
      <use fill="#000000" height="17.45" transform="matrix(0.3906, 0.0, 0.0, 0.3906, 124.55, 18.0)" width="243.35" xlink:href="#font_Franklin_Gothic_Condensed_o0"/>
      <use fill="#000000" height="17.45" transform="matrix(0.3906, 0.0, 0.0, 0.3906, 138.55, 18.0)" width="243.35" xlink:href="#font_Franklin_Gothic_Condensed_a0"/>
      <use fill="#000000" height="17.45" transform="matrix(0.3906, 0.0, 0.0, 0.3906, 147.7, 18.0)" width="243.35" xlink:href="#font_Franklin_Gothic_Condensed_l0"/>
      <use fill="#000000" height="17.45" transform="matrix(0.3906, 0.0, 0.0, 0.3906, 152.0, 18.0)" width="243.35" xlink:href="#font_Franklin_Gothic_Condensed_l0"/>
      <use fill="#000000" height="17.45" transform="matrix(0.3906, 0.0, 0.0, 0.3906, 161.15, 18.0)" width="243.35" xlink:href="#font_Franklin_Gothic_Condensed_T0"/>
      <use fill="#000000" height="17.45" transform="matrix(0.3906, 0.0, 0.0, 0.3906, 168.8, 18.0)" width="243.35" xlink:href="#font_Franklin_Gothic_Condensed_o0"/>
      <use fill="#000000" height="17.45" transform="matrix(0.3906, 0.0, 0.0, 0.3906, 177.95, 18.0)" width="243.35" xlink:href="#font_Franklin_Gothic_Condensed_o0"/>
      <use fill="#000000" height="17.45" transform="matrix(0.3906, 0.0, 0.0, 0.3906, 187.1, 18.0)" width="243.35" xlink:href="#font_Franklin_Gothic_Condensed_n0"/>
      <use fill="#000000" height="17.45" transform="matrix(0.3906, 0.0, 0.0, 0.3906, 196.6, 18.0)" width="243.35" xlink:href="#font_Franklin_Gothic_Condensed_s0"/>
      <use fill="#000000" height="17.45" transform="matrix(0.3906, 0.0, 0.0, 0.3906, 204.6, 18.0)" width="243.35" xlink:href="#font_Franklin_Gothic_Condensed__1"/>
      <use fill="#000000" height="17.45" transform="matrix(0.3906, 0.0, 0.0, 0.3906, 214.35, 18.0)" width="243.35" xlink:href="#font_Franklin_Gothic_Condensed_f0"/>
      <use fill="#000000" height="17.45" transform="matrix(0.3906, 0.0, 0.0, 0.3906, 219.8, 18.0)" width="243.35" xlink:href="#font_Franklin_Gothic_Condensed_u0"/>
      <use fill="#000000" height="17.45" transform="matrix(0.3906, 0.0, 0.0, 0.3906, 229.3, 18.0)" width="243.35" xlink:href="#font_Franklin_Gothic_Condensed_n0"/>
      <use fill="#000000" height="17.45" transform="matrix(0.3906, 0.0, 0.0, 0.3906, 238.8, 18.0)" width="243.35" xlink:href="#font_Franklin_Gothic_Condensed_.0"/>
    </g>
  </g>
  <defs>
    <g id="font_Franklin_Gothic_Condensed_a0">
      <path d="M15.4 -6.6 L15.4 -6.6 Q13.8 -4.9 12.65 -5.0 10.2 -5.0 10.1 -7.75 10.15 -10.5 11.55 -11.35 12.9 -12.25 15.4 -12.4 L15.4 -6.6 15.4 -6.6 M15.4 -16.4 L15.4 -16.4 Q10.65 -16.35 5.95 -14.4 1.25 -12.4 0.9 -7.3 1.3 0.4 9.1 0.6 13.3 0.45 15.7 -2.4 L16.0 0.0 25.5 0.0 Q24.8 -0.15 24.65 -4.15 L24.65 -18.4 Q24.45 -22.7 21.1 -24.55 17.75 -26.45 13.5 -26.4 9.6 -26.4 6.4 -24.7 3.25 -22.95 2.35 -19.1 L10.35 -17.65 Q10.45 -18.8 11.05 -19.85 11.7 -20.9 13.15 -21.0 15.45 -20.65 15.4 -18.0 L15.4 -16.4 15.4 -16.4" fill-rule="evenodd" stroke="none"/>
    </g>
    <g id="font_Franklin_Gothic_Condensed_n0">
      <path d="M2.45 0.0 L2.45 0.0 11.65 0.0 11.65 -18.7 12.15 -19.35 Q13.05 -20.4 14.4 -20.4 16.7 -20.3 16.5 -18.1 L16.5 0.0 25.75 0.0 25.75 -20.45 Q25.45 -26.1 19.65 -26.4 14.6 -26.3 11.75 -22.2 L11.65 -22.2 11.65 -25.75 2.45 -25.75 2.45 0.0 2.45 0.0" fill-rule="evenodd" stroke="none"/>
    </g>
    <g id="font_Franklin_Gothic_Condensed_d0">
      <path d="M16.1 -6.5 L16.1 -6.5 Q14.95 -4.7 12.85 -4.6 11.1 -4.65 10.7 -6.9 10.3 -9.2 10.35 -13.2 10.25 -15.65 10.7 -18.2 11.1 -20.8 13.25 -21.0 15.3 -20.9 16.1 -19.8 L16.1 -6.5 16.1 -6.5 M25.3 -36.4 L25.3 -36.4 16.1 -36.4 16.1 -23.4 Q13.85 -25.75 10.25 -25.75 4.95 -25.6 2.9 -21.55 0.8 -17.5 0.9 -11.85 0.9 -6.8 3.05 -3.3 5.2 0.25 9.7 0.4 L13.1 -0.1 Q14.55 -0.7 16.5 -2.45 L16.6 -2.45 16.6 0.0 25.3 0.0 25.3 -36.4 25.3 -36.4" fill-rule="evenodd" stroke="none"/>
    </g>
    <g id="font_Franklin_Gothic_Condensed_p0">
      <path d="M2.9 7.6 L2.9 7.6 12.1 7.6 12.1 -2.2 Q14.3 0.0 17.6 0.0 23.25 -0.25 25.3 -4.45 27.4 -8.7 27.3 -13.9 26.9 -25.95 18.15 -26.2 14.75 -25.9 11.85 -23.0 L11.75 -23.0 11.75 -25.8 2.9 -25.8 2.9 7.6 2.9 7.6 M12.1 -19.35 L12.1 -19.35 Q12.85 -21.1 15.3 -21.4 17.1 -21.4 17.5 -19.15 17.9 -16.9 17.85 -12.4 17.9 -8.85 17.45 -6.75 16.95 -4.65 14.85 -4.6 13.65 -4.45 12.1 -5.55 L12.1 -19.35 12.1 -19.35" fill-rule="evenodd" stroke="none"/>
    </g>
    <g id="font_Franklin_Gothic_Condensed_u0">
      <path d="M25.75 -25.8 L25.75 -25.8 16.5 -25.8 16.5 -7.05 16.05 -6.45 Q15.15 -5.35 13.75 -5.35 11.5 -5.5 11.65 -7.65 L11.65 -25.8 2.45 -25.8 2.45 -5.3 Q2.7 0.4 8.55 0.6 13.55 0.55 16.4 -3.4 L16.5 -3.4 16.5 0.0 25.75 0.0 25.75 -25.8 25.75 -25.8" fill-rule="evenodd" stroke="none"/>
    </g>
    <g id="font_Franklin_Gothic_Condensed_t0">
      <path d="M3.1 -6.0 L3.1 -6.0 Q3.35 0.8 10.9 0.6 L17.35 -0.1 17.35 -6.2 15.25 -5.95 Q13.15 -6.0 12.7 -6.85 12.25 -7.7 12.3 -9.05 L12.3 -19.8 17.35 -19.8 17.35 -25.75 12.3 -25.75 12.3 -35.0 3.1 -35.0 3.1 -25.75 -0.6 -25.75 -0.6 -19.8 3.1 -19.8 3.1 -6.0 3.1 -6.0" fill-rule="evenodd" stroke="none"/>
    </g>
    <g id="font_Franklin_Gothic_Condensed_e0">
      <path d="M10.1 -16.0 L10.1 -16.0 Q10.1 -17.85 10.8 -19.35 11.55 -20.9 13.4 -21.0 15.65 -20.9 16.2 -19.35 16.8 -17.85 16.75 -16.0 L10.1 -16.0 10.1 -16.0 M25.3 -11.0 L25.3 -11.0 25.3 -12.75 Q25.35 -18.0 22.65 -22.1 19.95 -26.15 13.45 -26.4 7.2 -26.25 4.05 -22.4 0.9 -18.55 0.9 -12.9 0.9 -7.4 4.0 -3.5 7.1 0.45 13.55 0.6 19.55 0.3 22.1 -2.5 24.7 -5.25 24.9 -6.45 L18.7 -8.45 Q17.6 -5.2 14.1 -5.0 11.6 -5.15 10.8 -7.15 10.05 -9.15 10.1 -11.0 L25.3 -11.0 25.3 -11.0" fill-rule="evenodd" stroke="none"/>
    </g>
    <g id="font_Franklin_Gothic_Condensed_o0">
      <path d="M10.35 -13.0 L10.35 -13.0 Q10.05 -21.35 13.65 -21.0 17.25 -21.35 16.95 -13.0 16.95 -8.25 16.15 -6.5 15.35 -4.7 13.65 -4.75 11.95 -4.7 11.15 -6.5 10.35 -8.25 10.35 -13.0 L10.35 -13.0 M0.9 -13.0 L0.9 -13.0 Q0.85 -6.95 4.0 -3.25 7.15 0.5 13.65 0.6 20.15 0.5 23.3 -3.25 26.45 -6.95 26.4 -13.0 26.4 -18.8 23.25 -22.5 20.05 -26.25 13.65 -26.4 7.25 -26.25 4.05 -22.5 0.9 -18.8 0.9 -13.0 L0.9 -13.0" fill-rule="evenodd" stroke="none"/>
    </g>
    <g id="font_Franklin_Gothic_Condensed_l0">
      <path d="M2.25 0.0 L2.25 0.0 11.45 0.0 11.45 -36.4 2.25 -36.4 2.25 0.0 2.25 0.0" fill-rule="evenodd" stroke="none"/>
    </g>
    <g id="font_Franklin_Gothic_Condensed_T0">
      <path d="M-0.45 -29.2 L-0.45 -29.2 8.6 -29.2 8.6 0.0 18.7 0.0 18.7 -29.2 27.8 -29.2 27.8 -36.35 -0.45 -36.35 -0.45 -29.2 -0.45 -29.2" fill-rule="evenodd" stroke="none"/>
    </g>
    <g id="font_Franklin_Gothic_Condensed_s0">
      <path d="M23.25 -19.25 L23.25 -19.25 Q21.9 -23.05 18.9 -24.75 15.9 -26.4 12.4 -26.4 6.4 -26.15 3.85 -23.35 1.3 -20.5 1.35 -18.25 1.6 -14.0 4.95 -12.35 8.3 -10.65 11.6 -9.75 14.95 -8.85 15.2 -6.85 15.05 -5.1 12.4 -5.0 10.45 -5.05 9.35 -6.1 8.25 -7.2 7.5 -8.7 L0.45 -6.7 Q1.55 -3.5 4.6 -1.45 7.65 0.55 12.4 0.6 17.5 0.6 20.6 -1.7 23.65 -4.0 23.75 -8.2 23.5 -12.25 20.15 -13.9 16.8 -15.55 13.5 -16.5 10.15 -17.45 9.9 -19.35 9.85 -20.8 12.55 -21.0 14.2 -20.95 15.2 -19.95 16.2 -18.95 16.8 -17.75 L23.25 -19.25 23.25 -19.25" fill-rule="evenodd" stroke="none"/>
    </g>
    <g id="font_Franklin_Gothic_Condensed__1">
      <path d="M3.75 -19.2 L3.75 -19.2 11.25 -19.2 11.25 -36.4 3.75 -36.4 3.75 -19.2 3.75 -19.2" fill-rule="evenodd" stroke="none"/>
    </g>
    <g id="font_Franklin_Gothic_Condensed_f0">
      <path d="M3.1 0.0 L3.1 0.0 12.3 0.0 12.3 -19.8 17.3 -19.8 17.3 -25.75 12.3 -25.75 12.3 -28.5 Q12.2 -30.65 15.6 -30.6 L17.3 -30.4 17.3 -36.85 12.65 -37.15 Q8.05 -37.2 5.6 -35.2 3.15 -33.2 3.1 -28.55 L3.1 -25.75 -0.6 -25.75 -0.6 -19.8 3.1 -19.8 3.1 0.0 3.1 0.0" fill-rule="evenodd" stroke="none"/>
    </g>
    <g id="font_Franklin_Gothic_Condensed_.0">
      <path d="M2.65 0.0 L2.65 0.0 12.55 0.0 12.55 -9.0 2.65 -9.0 2.65 0.0 2.65 0.0" fill-rule="evenodd" stroke="none"/>
    </g>
  </defs>
</svg>
