<?xml version="1.0" encoding="UTF-8" standalone="no"?>
<svg xmlns:xlink="http://www.w3.org/1999/xlink" height="17.5px" width="257.35px" xmlns="http://www.w3.org/2000/svg">
  <g transform="matrix(1.0, 0.0, 0.0, 1.0, 55.9, -3.45)">
    <g transform="matrix(1.0, 0.0, 0.0, 1.0, -56.9, 0.0)">
      <use fill="#ffffff" height="17.5" transform="matrix(0.3906, 0.0, 0.0, 0.3906, 0.0, 18.0)" width="257.35" xlink:href="#font_Franklin_Gothic_Condensed_R0"/>
      <use fill="#ffffff" height="17.5" transform="matrix(0.3906, 0.0, 0.0, 0.3906, 10.65, 18.0)" width="257.35" xlink:href="#font_Franklin_Gothic_Condensed_o0"/>
      <use fill="#ffffff" height="17.5" transform="matrix(0.3906, 0.0, 0.0, 0.3906, 19.8, 18.0)" width="257.35" xlink:href="#font_Franklin_Gothic_Condensed_b0"/>
      <use fill="#ffffff" height="17.5" transform="matrix(0.3906, 0.0, 0.0, 0.3906, 29.3, 18.0)" width="257.35" xlink:href="#font_Franklin_Gothic_Condensed_o0"/>
      <use fill="#ffffff" height="17.5" transform="matrix(0.3906, 0.0, 0.0, 0.3906, 38.45, 18.0)" width="257.35" xlink:href="#font_Franklin_Gothic_Condensed_t0"/>
      <use fill="#ffffff" height="17.5" transform="matrix(0.3906, 0.0, 0.0, 0.3906, 49.1, 18.0)" width="257.35" xlink:href="#font_Franklin_Gothic_Condensed_C0"/>
      <use fill="#ffffff" height="17.5" transform="matrix(0.3906, 0.0, 0.0, 0.3906, 59.75, 18.0)" width="257.35" xlink:href="#font_Franklin_Gothic_Condensed_o0"/>
      <use fill="#ffffff" height="17.5" transform="matrix(0.3906, 0.0, 0.0, 0.3906, 68.9, 18.0)" width="257.35" xlink:href="#font_Franklin_Gothic_Condensed_g0"/>
      <use fill="#ffffff" height="17.5" transform="matrix(0.3906, 0.0, 0.0, 0.3906, 78.0, 18.0)" width="257.35" xlink:href="#font_Franklin_Gothic_Condensed_s0"/>
      <use fill="#ffffff" height="17.5" transform="matrix(0.3906, 0.0, 0.0, 0.3906, 90.95, 18.0)" width="257.35" xlink:href="#font_Franklin_Gothic_Condensed_a0"/>
      <use fill="#ffffff" height="17.5" transform="matrix(0.3906, 0.0, 0.0, 0.3906, 100.1, 18.0)" width="257.35" xlink:href="#font_Franklin_Gothic_Condensed_r0"/>
      <use fill="#ffffff" height="17.5" transform="matrix(0.3906, 0.0, 0.0, 0.3906, 106.65, 18.0)" width="257.35" xlink:href="#font_Franklin_Gothic_Condensed_e0"/>
      <use fill="#ffffff" height="17.5" transform="matrix(0.3906, 0.0, 0.0, 0.3906, 120.25, 18.0)" width="257.35" xlink:href="#font_Franklin_Gothic_Condensed_t0"/>
      <use fill="#ffffff" height="17.5" transform="matrix(0.3906, 0.0, 0.0, 0.3906, 126.05, 18.0)" width="257.35" xlink:href="#font_Franklin_Gothic_Condensed_r0"/>
      <use fill="#ffffff" height="17.5" transform="matrix(0.3906, 0.0, 0.0, 0.3906, 132.6, 18.0)" width="257.35" xlink:href="#font_Franklin_Gothic_Condensed_y0"/>
      <use fill="#ffffff" height="17.5" transform="matrix(0.3906, 0.0, 0.0, 0.3906, 140.25, 18.0)" width="257.35" xlink:href="#font_Franklin_Gothic_Condensed_i0"/>
      <use fill="#ffffff" height="17.5" transform="matrix(0.3906, 0.0, 0.0, 0.3906, 144.55, 18.0)" width="257.35" xlink:href="#font_Franklin_Gothic_Condensed_n0"/>
      <use fill="#ffffff" height="17.5" transform="matrix(0.3906, 0.0, 0.0, 0.3906, 154.05, 18.0)" width="257.35" xlink:href="#font_Franklin_Gothic_Condensed_g0"/>
      <use fill="#ffffff" height="17.5" transform="matrix(0.3906, 0.0, 0.0, 0.3906, 168.05, 18.0)" width="257.35" xlink:href="#font_Franklin_Gothic_Condensed_t0"/>
      <use fill="#ffffff" height="17.5" transform="matrix(0.3906, 0.0, 0.0, 0.3906, 173.85, 18.0)" width="257.35" xlink:href="#font_Franklin_Gothic_Condensed_o0"/>
      <use fill="#ffffff" height="17.5" transform="matrix(0.3906, 0.0, 0.0, 0.3906, 187.85, 18.0)" width="257.35" xlink:href="#font_Franklin_Gothic_Condensed_t0"/>
      <use fill="#ffffff" height="17.5" transform="matrix(0.3906, 0.0, 0.0, 0.3906, 193.65, 18.0)" width="257.35" xlink:href="#font_Franklin_Gothic_Condensed_a0"/>
      <use fill="#ffffff" height="17.5" transform="matrix(0.3906, 0.0, 0.0, 0.3906, 202.75, 18.0)" width="257.35" xlink:href="#font_Franklin_Gothic_Condensed_k0"/>
      <use fill="#ffffff" height="17.5" transform="matrix(0.3906, 0.0, 0.0, 0.3906, 211.9, 18.0)" width="257.35" xlink:href="#font_Franklin_Gothic_Condensed_e0"/>
      <use fill="#ffffff" height="17.5" transform="matrix(0.3906, 0.0, 0.0, 0.3906, 225.55, 18.0)" width="257.35" xlink:href="#font_Franklin_Gothic_Condensed_o0"/>
      <use fill="#ffffff" height="17.5" transform="matrix(0.3906, 0.0, 0.0, 0.3906, 234.7, 18.0)" width="257.35" xlink:href="#font_Franklin_Gothic_Condensed_v0"/>
      <use fill="#ffffff" height="17.5" transform="matrix(0.3906, 0.0, 0.0, 0.3906, 242.35, 18.0)" width="257.35" xlink:href="#font_Franklin_Gothic_Condensed_e0"/>
      <use fill="#ffffff" height="17.5" transform="matrix(0.3906, 0.0, 0.0, 0.3906, 251.1, 18.0)" width="257.35" xlink:href="#font_Franklin_Gothic_Condensed_r0"/>
    </g>
  </g>
  <defs>
    <g id="font_Franklin_Gothic_Condensed_R0">
      <path d="M11.6 -29.6 L11.6 -29.6 13.15 -29.6 Q15.6 -29.7 17.35 -28.95 19.15 -28.25 19.2 -25.55 18.95 -21.4 13.4 -21.55 L11.6 -21.55 11.6 -29.6 11.6 -29.6 M2.4 0.0 L2.4 0.0 11.6 0.0 11.6 -15.6 14.7 -15.6 19.3 0.0 28.4 0.0 22.35 -17.6 Q28.05 -20.0 28.4 -26.05 28.3 -31.4 24.9 -33.9 21.5 -36.4 16.15 -36.4 L2.4 -36.4 2.4 0.0 2.4 0.0" fill-rule="evenodd" stroke="none"/>
    </g>
    <g id="font_Franklin_Gothic_Condensed_o0">
      <path d="M9.4 -13.0 L9.4 -13.0 Q9.15 -21.35 12.4 -21.0 15.7 -21.35 15.4 -13.0 15.4 -8.25 14.7 -6.5 13.95 -4.7 12.4 -4.75 10.85 -4.7 10.15 -6.5 9.4 -8.25 9.4 -13.0 L9.4 -13.0 M0.8 -13.0 L0.8 -13.0 Q0.8 -6.95 3.65 -3.25 6.5 0.5 12.4 0.6 18.35 0.5 21.2 -3.25 24.05 -6.95 24.0 -13.0 24.0 -18.8 21.1 -22.5 18.25 -26.25 12.4 -26.4 6.6 -26.25 3.7 -22.5 0.8 -18.8 0.8 -13.0 L0.8 -13.0" fill-rule="evenodd" stroke="none"/>
    </g>
    <g id="font_Franklin_Gothic_Condensed_b0">
      <path d="M2.6 0.0 L2.6 0.0 6.95 0.0 8.5 -3.7 Q10.85 0.25 15.4 0.4 20.55 0.1 22.7 -4.2 24.9 -8.5 24.8 -13.2 24.8 -18.95 22.55 -22.6 20.3 -26.25 16.0 -26.4 13.25 -26.1 11.1 -24.2 L11.0 -24.2 11.0 -36.4 2.6 -36.4 2.6 0.0 2.6 0.0 M11.0 -20.3 L11.0 -20.3 11.45 -20.75 Q12.2 -21.6 13.7 -21.8 15.5 -21.8 15.9 -19.8 16.3 -17.85 16.2 -14.0 L16.2 -12.05 Q16.25 -8.45 15.8 -6.7 15.3 -4.95 13.65 -4.95 11.05 -5.0 11.0 -8.3 L11.0 -20.3 11.0 -20.3" fill-rule="evenodd" stroke="none"/>
    </g>
    <g id="font_Franklin_Gothic_Condensed_t0">
      <path d="M2.8 -6.0 L2.8 -6.0 Q3.05 0.8 9.9 0.6 L15.75 -0.1 15.75 -6.2 13.85 -5.95 Q11.95 -6.0 11.55 -6.85 11.1 -7.7 11.2 -9.05 L11.2 -19.8 15.75 -19.8 15.75 -25.75 11.2 -25.75 11.2 -35.0 2.8 -35.0 2.8 -25.75 -0.55 -25.75 -0.55 -19.8 2.8 -19.8 2.8 -6.0 2.8 -6.0" fill-rule="evenodd" stroke="none"/>
    </g>
    <g id="font_Franklin_Gothic_Condensed_C0">
      <path d="M27.4 -23.65 L27.4 -23.65 Q27.45 -29.45 24.35 -33.25 21.25 -37.05 14.65 -37.2 6.4 -36.8 3.3 -30.95 0.25 -25.15 0.4 -18.2 0.25 -10.8 3.35 -5.15 6.4 0.5 14.65 0.8 20.7 0.7 24.05 -2.9 27.35 -6.5 27.4 -12.6 L19.4 -13.3 Q19.35 -9.85 18.45 -7.95 17.55 -6.0 15.05 -6.0 11.95 -6.05 11.15 -9.25 10.3 -12.45 10.4 -18.15 10.35 -23.35 11.2 -26.8 12.05 -30.25 14.85 -30.4 17.3 -30.2 18.1 -27.95 18.85 -25.7 18.8 -23.65 L27.4 -23.65 27.4 -23.65" fill-rule="evenodd" stroke="none"/>
    </g>
    <g id="font_Franklin_Gothic_Condensed_g0">
      <path d="M11.75 -22.6 L11.75 -22.6 Q13.35 -22.55 14.0 -21.25 14.65 -20.0 14.65 -18.4 14.65 -16.75 14.05 -15.4 13.45 -14.05 11.75 -13.95 10.2 -14.05 9.6 -15.35 8.95 -16.6 9.0 -18.05 8.95 -19.6 9.55 -21.05 10.1 -22.5 11.75 -22.6 L11.75 -22.6 M11.65 -1.2 L11.65 -1.2 15.0 -0.9 Q17.0 -0.55 17.25 1.05 17.05 2.6 15.15 2.95 L11.6 3.2 8.3 2.9 Q6.4 2.5 6.2 1.05 6.45 -0.55 8.5 -0.9 L11.65 -1.2 11.65 -1.2 M25.4 -27.95 L25.4 -27.95 Q23.4 -27.9 21.4 -26.8 19.35 -25.7 18.75 -24.5 15.8 -26.4 11.8 -26.35 8.4 -26.4 4.95 -24.5 1.5 -22.55 1.25 -18.2 1.2 -13.7 6.05 -11.5 L6.05 -11.4 Q4.35 -10.95 2.75 -9.65 1.15 -8.35 1.0 -6.45 1.15 -3.05 4.6 -2.2 L4.6 -2.1 Q2.7 -1.8 1.2 -0.8 -0.3 0.25 -0.35 2.25 -0.25 4.7 2.1 5.85 4.4 7.0 7.2 7.3 L11.6 7.6 Q17.35 7.6 20.85 5.6 24.3 3.55 24.4 -0.3 24.15 -5.0 20.45 -6.25 16.75 -7.55 12.85 -7.4 L9.3 -7.6 Q7.85 -7.9 7.8 -9.15 8.1 -10.05 8.7 -10.6 L12.2 -10.2 Q15.8 -10.2 19.0 -12.1 22.2 -14.05 22.4 -17.85 22.35 -20.2 21.0 -22.05 21.4 -22.55 22.45 -22.6 24.25 -22.5 25.4 -21.3 L25.4 -27.95 25.4 -27.95" fill-rule="evenodd" stroke="none"/>
    </g>
    <g id="font_Franklin_Gothic_Condensed_s0">
      <path d="M21.15 -19.25 L21.15 -19.25 Q19.9 -23.05 17.2 -24.75 14.45 -26.4 11.25 -26.4 5.8 -26.15 3.5 -23.35 1.15 -20.5 1.25 -18.25 1.45 -14.0 4.5 -12.35 7.55 -10.65 10.55 -9.75 13.6 -8.85 13.85 -6.85 13.7 -5.1 11.25 -5.0 9.5 -5.05 8.5 -6.1 7.5 -7.2 6.8 -8.7 L0.4 -6.7 Q1.45 -3.5 4.2 -1.45 6.95 0.55 11.25 0.6 15.9 0.6 18.7 -1.7 21.5 -4.0 21.6 -8.2 21.35 -12.25 18.35 -13.9 15.3 -15.55 12.25 -16.5 9.25 -17.45 9.0 -19.35 8.95 -20.8 11.4 -21.0 12.9 -20.95 13.8 -19.95 L15.3 -17.75 21.15 -19.25 21.15 -19.25" fill-rule="evenodd" stroke="none"/>
    </g>
    <g id="font_Franklin_Gothic_Condensed_a0">
      <path d="M14.0 -6.6 L14.0 -6.6 Q12.55 -4.9 11.5 -5.0 9.3 -5.0 9.2 -7.75 9.2 -10.5 10.5 -11.35 11.75 -12.25 14.0 -12.4 L14.0 -6.6 14.0 -6.6 M14.0 -16.4 L14.0 -16.4 Q9.7 -16.35 5.4 -14.4 1.15 -12.4 0.8 -7.3 1.15 0.4 8.25 0.6 12.05 0.45 14.3 -2.4 14.35 -1.15 14.55 0.0 L23.15 0.0 Q22.55 -0.15 22.4 -4.15 L22.4 -18.4 Q22.25 -22.7 19.2 -24.55 16.1 -26.45 12.25 -26.4 8.7 -26.4 5.85 -24.7 2.95 -22.95 2.1 -19.1 L9.4 -17.65 Q9.5 -18.8 10.05 -19.85 10.65 -20.9 12.0 -21.0 14.05 -20.65 14.0 -18.0 L14.0 -16.4 14.0 -16.4" fill-rule="evenodd" stroke="none"/>
    </g>
    <g id="font_Franklin_Gothic_Condensed_r0">
      <path d="M2.2 0.0 L2.2 0.0 10.6 0.0 10.6 -16.6 Q11.15 -17.55 12.05 -18.1 L15.05 -18.6 Q16.75 -18.55 18.4 -17.9 L18.4 -26.35 Q15.85 -26.4 13.55 -25.3 11.3 -24.25 10.4 -21.8 L10.3 -21.8 10.45 -25.75 2.2 -25.75 2.2 0.0 2.2 0.0" fill-rule="evenodd" stroke="none"/>
    </g>
    <g id="font_Franklin_Gothic_Condensed_e0">
      <path d="M9.2 -16.0 L9.2 -16.0 Q9.15 -17.85 9.85 -19.35 10.5 -20.9 12.2 -21.0 14.2 -20.9 14.75 -19.35 15.25 -17.85 15.25 -16.0 L9.2 -16.0 9.2 -16.0 M23.0 -11.0 L23.0 -11.0 23.0 -12.75 Q23.05 -18.0 20.6 -22.1 18.15 -26.15 12.25 -26.4 6.55 -26.25 3.7 -22.4 0.85 -18.55 0.8 -12.9 0.8 -7.4 3.6 -3.5 6.45 0.45 12.35 0.6 17.75 0.3 20.1 -2.5 22.45 -5.25 22.65 -6.45 L17.0 -8.45 Q16.0 -5.2 12.85 -5.0 10.55 -5.15 9.85 -7.15 9.15 -9.15 9.2 -11.0 L23.0 -11.0 23.0 -11.0" fill-rule="evenodd" stroke="none"/>
    </g>
    <g id="font_Franklin_Gothic_Condensed_y0">
      <path d="M-0.4 -25.8 L-0.4 -25.8 6.3 -3.7 6.65 -1.45 Q6.6 0.3 5.25 1.0 3.95 1.65 2.0 1.65 L-0.25 1.4 -0.25 7.4 2.25 7.6 Q5.95 7.65 8.7 6.15 11.4 4.6 12.7 0.6 L21.4 -25.8 14.9 -25.8 11.35 -10.95 11.25 -10.95 8.2 -25.8 -0.4 -25.8 -0.4 -25.8" fill-rule="evenodd" stroke="none"/>
    </g>
    <g id="font_Franklin_Gothic_Condensed_i0">
      <path d="M2.0 -29.0 L2.0 -29.0 10.4 -29.0 10.4 -36.35 2.0 -36.35 2.0 -29.0 2.0 -29.0 M2.0 0.0 L2.0 0.0 10.4 0.0 10.4 -25.8 2.0 -25.8 2.0 0.0 2.0 0.0" fill-rule="evenodd" stroke="none"/>
    </g>
    <g id="font_Franklin_Gothic_Condensed_n0">
      <path d="M2.2 0.0 L2.2 0.0 10.6 0.0 10.6 -18.7 11.05 -19.35 Q11.85 -20.4 13.1 -20.4 15.15 -20.3 15.0 -18.1 L15.0 0.0 23.4 0.0 23.4 -20.45 Q23.15 -26.1 17.85 -26.4 13.3 -26.3 10.7 -22.2 L10.6 -22.2 10.6 -25.75 2.2 -25.75 2.2 0.0 2.2 0.0" fill-rule="evenodd" stroke="none"/>
    </g>
    <g id="font_Franklin_Gothic_Condensed_k0">
      <path d="M2.2 0.0 L2.2 0.0 10.6 0.0 10.6 -9.6 12.55 -11.8 12.65 -11.8 16.5 0.0 25.1 0.0 18.35 -18.4 24.8 -25.75 17.2 -25.75 10.7 -17.75 10.6 -17.75 10.6 -36.4 2.2 -36.4 2.2 0.0 2.2 0.0" fill-rule="evenodd" stroke="none"/>
    </g>
    <g id="font_Franklin_Gothic_Condensed_v0">
      <path d="M6.85 0.0 L6.85 0.0 13.15 0.0 21.4 -25.8 14.85 -25.8 11.25 -11.8 11.1 -11.8 8.2 -25.8 -0.4 -25.8 6.85 0.0 6.85 0.0" fill-rule="evenodd" stroke="none"/>
    </g>
  </defs>
</svg>
