<?xml version="1.0" encoding="UTF-8" standalone="no"?>
<svg xmlns:xlink="http://www.w3.org/1999/xlink" height="17.45px" width="242.95px" xmlns="http://www.w3.org/2000/svg">
  <g transform="matrix(1.0, 0.0, 0.0, 1.0, 49.55, -3.5)">
    <g transform="matrix(1.0, 0.0, 0.0, 1.0, -49.9, 0.0)">
      <use fill="#ffffff" height="17.45" transform="matrix(0.3906, 0.0, 0.0, 0.3906, 0.0, 18.0)" width="242.95" xlink:href="#font_Franklin_Gothic_Condensed_a0"/>
      <use fill="#ffffff" height="17.45" transform="matrix(0.3906, 0.0, 0.0, 0.3906, 9.15, 18.0)" width="242.95" xlink:href="#font_Franklin_Gothic_Condensed_n0"/>
      <use fill="#ffffff" height="17.45" transform="matrix(0.3906, 0.0, 0.0, 0.3906, 18.65, 18.0)" width="242.95" xlink:href="#font_Franklin_Gothic_Condensed_d0"/>
      <use fill="#ffffff" height="17.45" transform="matrix(0.3906, 0.0, 0.0, 0.3906, 33.0, 18.0)" width="242.95" xlink:href="#font_Franklin_Gothic_Condensed_p0"/>
      <use fill="#ffffff" height="17.45" transform="matrix(0.3906, 0.0, 0.0, 0.3906, 42.5, 18.0)" width="242.95" xlink:href="#font_Franklin_Gothic_Condensed_u0"/>
      <use fill="#ffffff" height="17.45" transform="matrix(0.3906, 0.0, 0.0, 0.3906, 52.0, 18.0)" width="242.95" xlink:href="#font_Franklin_Gothic_Condensed_t0"/>
      <use fill="#ffffff" height="17.45" transform="matrix(0.3906, 0.0, 0.0, 0.3906, 62.65, 18.0)" width="242.95" xlink:href="#font_Franklin_Gothic_Condensed_a0"/>
      <use fill="#ffffff" height="17.45" transform="matrix(0.3906, 0.0, 0.0, 0.3906, 71.8, 18.0)" width="242.95" xlink:href="#font_Franklin_Gothic_Condensed_n0"/>
      <use fill="#ffffff" height="17.45" transform="matrix(0.3906, 0.0, 0.0, 0.3906, 86.15, 18.0)" width="242.95" xlink:href="#font_Franklin_Gothic_Condensed_e0"/>
      <use fill="#ffffff" height="17.45" transform="matrix(0.3906, 0.0, 0.0, 0.3906, 94.9, 18.0)" width="242.95" xlink:href="#font_Franklin_Gothic_Condensed_n0"/>
      <use fill="#ffffff" height="17.45" transform="matrix(0.3906, 0.0, 0.0, 0.3906, 104.4, 18.0)" width="242.95" xlink:href="#font_Franklin_Gothic_Condensed_d0"/>
      <use fill="#ffffff" height="17.45" transform="matrix(0.3906, 0.0, 0.0, 0.3906, 118.75, 18.0)" width="242.95" xlink:href="#font_Franklin_Gothic_Condensed_t0"/>
      <use fill="#ffffff" height="17.45" transform="matrix(0.3906, 0.0, 0.0, 0.3906, 124.55, 18.0)" width="242.95" xlink:href="#font_Franklin_Gothic_Condensed_o0"/>
      <use fill="#ffffff" height="17.45" transform="matrix(0.3906, 0.0, 0.0, 0.3906, 138.55, 18.0)" width="242.95" xlink:href="#font_Franklin_Gothic_Condensed_a0"/>
      <use fill="#ffffff" height="17.45" transform="matrix(0.3906, 0.0, 0.0, 0.3906, 147.7, 18.0)" width="242.95" xlink:href="#font_Franklin_Gothic_Condensed_l0"/>
      <use fill="#ffffff" height="17.45" transform="matrix(0.3906, 0.0, 0.0, 0.3906, 152.0, 18.0)" width="242.95" xlink:href="#font_Franklin_Gothic_Condensed_l0"/>
      <use fill="#ffffff" height="17.45" transform="matrix(0.3906, 0.0, 0.0, 0.3906, 161.15, 18.0)" width="242.95" xlink:href="#font_Franklin_Gothic_Condensed_T0"/>
      <use fill="#ffffff" height="17.45" transform="matrix(0.3906, 0.0, 0.0, 0.3906, 168.8, 18.0)" width="242.95" xlink:href="#font_Franklin_Gothic_Condensed_o0"/>
      <use fill="#ffffff" height="17.45" transform="matrix(0.3906, 0.0, 0.0, 0.3906, 177.95, 18.0)" width="242.95" xlink:href="#font_Franklin_Gothic_Condensed_o0"/>
      <use fill="#ffffff" height="17.45" transform="matrix(0.3906, 0.0, 0.0, 0.3906, 187.1, 18.0)" width="242.95" xlink:href="#font_Franklin_Gothic_Condensed_n0"/>
      <use fill="#ffffff" height="17.45" transform="matrix(0.3906, 0.0, 0.0, 0.3906, 196.6, 18.0)" width="242.95" xlink:href="#font_Franklin_Gothic_Condensed_s0"/>
      <use fill="#ffffff" height="17.45" transform="matrix(0.3906, 0.0, 0.0, 0.3906, 204.6, 18.0)" width="242.95" xlink:href="#font_Franklin_Gothic_Condensed__1"/>
      <use fill="#ffffff" height="17.45" transform="matrix(0.3906, 0.0, 0.0, 0.3906, 214.35, 18.0)" width="242.95" xlink:href="#font_Franklin_Gothic_Condensed_f0"/>
      <use fill="#ffffff" height="17.45" transform="matrix(0.3906, 0.0, 0.0, 0.3906, 219.8, 18.0)" width="242.95" xlink:href="#font_Franklin_Gothic_Condensed_u0"/>
      <use fill="#ffffff" height="17.45" transform="matrix(0.3906, 0.0, 0.0, 0.3906, 229.3, 18.0)" width="242.95" xlink:href="#font_Franklin_Gothic_Condensed_n0"/>
      <use fill="#ffffff" height="17.45" transform="matrix(0.3906, 0.0, 0.0, 0.3906, 238.8, 18.0)" width="242.95" xlink:href="#font_Franklin_Gothic_Condensed_.0"/>
    </g>
  </g>
  <defs>
    <g id="font_Franklin_Gothic_Condensed_a0">
      <path d="M14.0 -6.6 L14.0 -6.6 Q12.55 -4.9 11.5 -5.0 9.3 -5.0 9.2 -7.75 9.2 -10.5 10.5 -11.35 11.75 -12.25 14.0 -12.4 L14.0 -6.6 14.0 -6.6 M14.0 -16.4 L14.0 -16.4 Q9.7 -16.35 5.4 -14.4 1.15 -12.4 0.8 -7.3 1.15 0.4 8.25 0.6 12.05 0.45 14.3 -2.4 14.35 -1.15 14.55 0.0 L23.15 0.0 Q22.55 -0.15 22.4 -4.15 L22.4 -18.4 Q22.25 -22.7 19.2 -24.55 16.1 -26.45 12.25 -26.4 8.7 -26.4 5.85 -24.7 2.95 -22.95 2.1 -19.1 L9.4 -17.65 Q9.5 -18.8 10.05 -19.85 10.65 -20.9 12.0 -21.0 14.05 -20.65 14.0 -18.0 L14.0 -16.4 14.0 -16.4" fill-rule="evenodd" stroke="none"/>
    </g>
    <g id="font_Franklin_Gothic_Condensed_n0">
      <path d="M2.2 0.0 L2.2 0.0 10.6 0.0 10.6 -18.7 11.05 -19.35 Q11.85 -20.4 13.1 -20.4 15.15 -20.3 15.0 -18.1 L15.0 0.0 23.4 0.0 23.4 -20.45 Q23.15 -26.1 17.85 -26.4 13.3 -26.3 10.7 -22.2 L10.6 -22.2 10.6 -25.75 2.2 -25.75 2.2 0.0 2.2 0.0" fill-rule="evenodd" stroke="none"/>
    </g>
    <g id="font_Franklin_Gothic_Condensed_d0">
      <path d="M14.6 -6.5 L14.6 -6.5 Q13.6 -4.7 11.65 -4.6 10.1 -4.65 9.75 -6.9 9.35 -9.2 9.4 -13.2 9.3 -15.65 9.7 -18.2 10.1 -20.8 12.05 -21.0 13.9 -20.9 14.6 -19.8 L14.6 -6.5 14.6 -6.5 M23.0 -36.4 L23.0 -36.4 14.6 -36.4 14.6 -23.4 Q12.6 -25.75 9.3 -25.75 4.5 -25.6 2.6 -21.55 0.75 -17.5 0.8 -11.85 0.8 -6.8 2.75 -3.3 4.75 0.25 8.8 0.4 10.55 0.45 11.9 -0.1 13.25 -0.7 15.0 -2.45 L15.1 -2.45 15.1 0.0 23.0 0.0 23.0 -36.4 23.0 -36.4" fill-rule="evenodd" stroke="none"/>
    </g>
    <g id="font_Franklin_Gothic_Condensed_p0">
      <path d="M2.6 7.6 L2.6 7.6 11.0 7.6 11.0 -2.2 Q13.0 0.0 16.0 0.0 21.15 -0.25 23.0 -4.45 24.9 -8.7 24.8 -13.9 24.45 -25.95 16.5 -26.2 13.4 -25.9 10.8 -23.0 L10.7 -23.0 10.7 -25.8 2.6 -25.8 2.6 7.6 2.6 7.6 M11.0 -19.35 L11.0 -19.35 Q11.7 -21.1 13.9 -21.4 15.55 -21.4 15.9 -19.15 16.3 -16.9 16.2 -12.4 16.3 -8.85 15.85 -6.75 15.4 -4.65 13.5 -4.6 12.4 -4.45 11.0 -5.55 L11.0 -19.35 11.0 -19.35" fill-rule="evenodd" stroke="none"/>
    </g>
    <g id="font_Franklin_Gothic_Condensed_u0">
      <path d="M23.4 -25.8 L23.4 -25.8 15.0 -25.8 15.0 -7.05 14.6 -6.45 Q13.75 -5.35 12.5 -5.35 10.45 -5.5 10.6 -7.65 L10.6 -25.8 2.2 -25.8 2.2 -5.3 Q2.45 0.4 7.75 0.6 12.35 0.55 14.95 -3.4 L15.0 -3.4 15.0 0.0 23.4 0.0 23.4 -25.8 23.4 -25.8" fill-rule="evenodd" stroke="none"/>
    </g>
    <g id="font_Franklin_Gothic_Condensed_t0">
      <path d="M2.8 -6.0 L2.8 -6.0 Q3.05 0.8 9.9 0.6 L15.75 -0.1 15.75 -6.2 13.85 -5.95 Q11.95 -6.0 11.55 -6.85 11.1 -7.7 11.2 -9.05 L11.2 -19.8 15.75 -19.8 15.75 -25.75 11.2 -25.75 11.2 -35.0 2.8 -35.0 2.8 -25.75 -0.55 -25.75 -0.55 -19.8 2.8 -19.8 2.8 -6.0 2.8 -6.0" fill-rule="evenodd" stroke="none"/>
    </g>
    <g id="font_Franklin_Gothic_Condensed_e0">
      <path d="M9.2 -16.0 L9.2 -16.0 Q9.15 -17.85 9.85 -19.35 10.5 -20.9 12.2 -21.0 14.2 -20.9 14.75 -19.35 15.25 -17.85 15.25 -16.0 L9.2 -16.0 9.2 -16.0 M23.0 -11.0 L23.0 -11.0 23.0 -12.75 Q23.05 -18.0 20.6 -22.1 18.15 -26.15 12.25 -26.4 6.55 -26.25 3.7 -22.4 0.85 -18.55 0.8 -12.9 0.8 -7.4 3.6 -3.5 6.45 0.45 12.35 0.6 17.75 0.3 20.1 -2.5 22.45 -5.25 22.65 -6.45 L17.0 -8.45 Q16.0 -5.2 12.85 -5.0 10.55 -5.15 9.85 -7.15 9.15 -9.15 9.2 -11.0 L23.0 -11.0 23.0 -11.0" fill-rule="evenodd" stroke="none"/>
    </g>
    <g id="font_Franklin_Gothic_Condensed_o0">
      <path d="M9.4 -13.0 L9.4 -13.0 Q9.15 -21.35 12.4 -21.0 15.7 -21.35 15.4 -13.0 15.4 -8.25 14.7 -6.5 13.95 -4.7 12.4 -4.75 10.85 -4.7 10.15 -6.5 9.4 -8.25 9.4 -13.0 L9.4 -13.0 M0.8 -13.0 L0.8 -13.0 Q0.8 -6.95 3.65 -3.25 6.5 0.5 12.4 0.6 18.35 0.5 21.2 -3.25 24.05 -6.95 24.0 -13.0 24.0 -18.8 21.1 -22.5 18.25 -26.25 12.4 -26.4 6.6 -26.25 3.7 -22.5 0.8 -18.8 0.8 -13.0 L0.8 -13.0" fill-rule="evenodd" stroke="none"/>
    </g>
    <g id="font_Franklin_Gothic_Condensed_l0">
      <path d="M2.0 0.0 L2.0 0.0 10.4 0.0 10.4 -36.4 2.0 -36.4 2.0 0.0 2.0 0.0" fill-rule="evenodd" stroke="none"/>
    </g>
    <g id="font_Franklin_Gothic_Condensed_T0">
      <path d="M-0.45 -29.2 L-0.45 -29.2 7.8 -29.2 7.8 0.0 17.0 0.0 17.0 -29.2 25.25 -29.2 25.25 -36.35 -0.45 -36.35 -0.45 -29.2 -0.45 -29.2" fill-rule="evenodd" stroke="none"/>
    </g>
    <g id="font_Franklin_Gothic_Condensed_s0">
      <path d="M21.15 -19.25 L21.15 -19.25 Q19.9 -23.05 17.2 -24.75 14.45 -26.4 11.25 -26.4 5.8 -26.15 3.5 -23.35 1.15 -20.5 1.25 -18.25 1.45 -14.0 4.5 -12.35 7.55 -10.65 10.55 -9.75 13.6 -8.85 13.85 -6.85 13.7 -5.1 11.25 -5.0 9.5 -5.05 8.5 -6.1 7.5 -7.2 6.8 -8.7 L0.4 -6.7 Q1.45 -3.5 4.2 -1.45 6.95 0.55 11.25 0.6 15.9 0.6 18.7 -1.7 21.5 -4.0 21.6 -8.2 21.35 -12.25 18.35 -13.9 15.3 -15.55 12.25 -16.5 9.25 -17.45 9.0 -19.35 8.95 -20.8 11.4 -21.0 12.9 -20.95 13.8 -19.95 L15.3 -17.75 21.15 -19.25 21.15 -19.25" fill-rule="evenodd" stroke="none"/>
    </g>
    <g id="font_Franklin_Gothic_Condensed__1">
      <path d="M3.4 -19.2 L3.4 -19.2 10.2 -19.2 10.2 -36.4 3.4 -36.4 3.4 -19.2 3.4 -19.2" fill-rule="evenodd" stroke="none"/>
    </g>
    <g id="font_Franklin_Gothic_Condensed_f0">
      <path d="M2.8 0.0 L2.8 0.0 11.2 0.0 11.2 -19.8 15.7 -19.8 15.7 -25.75 11.2 -25.75 11.2 -28.5 Q11.1 -30.65 14.15 -30.6 L15.7 -30.4 15.7 -36.85 11.5 -37.15 Q7.35 -37.2 5.1 -35.2 2.85 -33.2 2.8 -28.55 L2.8 -25.75 -0.55 -25.75 -0.55 -19.8 2.8 -19.8 2.8 0.0 2.8 0.0" fill-rule="evenodd" stroke="none"/>
    </g>
    <g id="font_Franklin_Gothic_Condensed_.0">
      <path d="M2.4 0.0 L2.4 0.0 11.4 0.0 11.4 -9.0 2.4 -9.0 2.4 0.0 2.4 0.0" fill-rule="evenodd" stroke="none"/>
    </g>
  </defs>
</svg>
