<?xml version="1.0" encoding="UTF-8" standalone="no"?>
<svg xmlns:xlink="http://www.w3.org/1999/xlink" height="23.6px" width="60.65px" xmlns="http://www.w3.org/2000/svg">
  <g transform="matrix(1.0, 0.0, 0.0, 1.0, -42.25, -4.6)">
    <g transform="matrix(1.0, 0.0, 0.0, 1.0, 41.8, 0.0)">
      <use fill="#000000" height="23.6" transform="matrix(0.625, 0.0, 0.0, 0.625, 0.0, 28.0)" width="60.65" xlink:href="#font_TradeGothic_CondEighteen_Y0"/>
      <use fill="#000000" height="23.6" transform="matrix(0.625, 0.0, 0.0, 0.625, 13.7, 28.0)" width="60.65" xlink:href="#font_TradeGothic_CondEighteen_O0"/>
      <use fill="#000000" height="23.6" transform="matrix(0.625, 0.0, 0.0, 0.625, 29.2, 28.0)" width="60.65" xlink:href="#font_TradeGothic_CondEighteen_U0"/>
      <use fill="#000000" height="23.6" transform="matrix(0.625, 0.0, 0.0, 0.625, 44.7, 28.0)" width="60.65" xlink:href="#font_TradeGothic_CondEighteen_R0"/>
    </g>
  </g>
  <defs>
    <g id="font_TradeGothic_CondEighteen_Y0">
      <path d="M16.05 -15.35 L16.05 -15.35 24.5 -37.0 17.4 -37.0 12.7 -22.9 12.6 -22.9 7.7 -37.0 0.6 -37.0 9.05 -15.35 9.05 0.0 16.05 0.0 16.05 -15.35 16.05 -15.35" fill-rule="evenodd" stroke="none"/>
    </g>
    <g id="font_TradeGothic_CondEighteen_O0">
      <path d="M10.35 -27.75 L10.35 -27.75 Q10.1 -31.8 14.1 -31.8 18.1 -31.8 17.85 -27.75 L17.85 -9.25 Q18.1 -5.15 14.1 -5.2 10.1 -5.15 10.35 -9.25 L10.35 -27.75 10.35 -27.75 M3.3 -9.1 L3.3 -9.1 Q3.3 -5.1 5.95 -2.4 8.6 0.3 14.1 0.4 19.6 0.3 22.25 -2.4 24.9 -5.1 24.85 -9.1 L24.85 -27.9 Q24.9 -31.9 22.25 -34.6 19.6 -37.3 14.1 -37.4 8.6 -37.3 5.95 -34.6 3.3 -31.9 3.3 -27.9 L3.3 -9.1 3.3 -9.1" fill-rule="evenodd" stroke="none"/>
    </g>
    <g id="font_TradeGothic_CondEighteen_U0">
      <path d="M3.3 -9.45 L3.3 -9.45 Q3.7 0.25 14.1 0.4 24.5 0.25 24.85 -9.45 L24.85 -37.0 17.85 -37.0 17.85 -9.2 Q17.85 -5.15 14.1 -5.2 10.3 -5.15 10.35 -9.2 L10.35 -37.0 3.3 -37.0 3.3 -9.45 3.3 -9.45" fill-rule="evenodd" stroke="none"/>
    </g>
    <g id="font_TradeGothic_CondEighteen_R0">
      <path d="M10.35 -15.0 L10.35 -15.0 14.0 -15.15 18.95 0.0 26.1 0.0 20.15 -16.65 Q22.05 -17.3 23.5 -19.5 25.0 -21.65 25.1 -26.0 25.1 -31.85 22.1 -34.45 19.1 -37.0 13.2 -36.95 L3.3 -36.95 3.3 0.0 10.35 0.0 10.35 -15.0 10.35 -15.0 M10.35 -31.6 L10.35 -31.6 12.85 -31.6 Q15.65 -31.65 16.85 -30.45 18.1 -29.2 18.05 -26.0 18.1 -22.8 16.85 -21.55 15.65 -20.3 12.85 -20.35 L10.35 -20.35 10.35 -31.6 10.35 -31.6" fill-rule="evenodd" stroke="none"/>
    </g>
  </defs>
</svg>
