<?xml version="1.0" encoding="UTF-8" standalone="no"?>
<svg xmlns:xlink="http://www.w3.org/1999/xlink" height="13.9px" width="37.9px" xmlns="http://www.w3.org/2000/svg">
  <g transform="matrix(1.0, 0.0, 0.0, 1.0, -53.85, -1.0)">
    <g transform="matrix(1.0, 0.0, 0.0, 1.0, 52.65, 0.0)">
      <use fill="#000000" height="13.9" transform="matrix(0.3711, 0.0, 0.0, 0.3711, 0.0, 15.0)" width="37.9" xlink:href="#font_TradeGothic_CondEighteen_n0"/>
      <use fill="#000000" height="13.9" transform="matrix(0.3711, 0.0, 0.0, 0.3711, 7.95, 15.0)" width="37.9" xlink:href="#font_TradeGothic_CondEighteen_e0"/>
      <use fill="#000000" height="13.9" transform="matrix(0.3711, 0.0, 0.0, 0.3711, 15.85, 15.0)" width="37.9" xlink:href="#font_TradeGothic_CondEighteen_e0"/>
      <use fill="#000000" height="13.9" transform="matrix(0.3711, 0.0, 0.0, 0.3711, 23.75, 15.0)" width="37.9" xlink:href="#font_TradeGothic_CondEighteen_d0"/>
      <use fill="#000000" height="13.9" transform="matrix(0.3711, 0.0, 0.0, 0.3711, 31.65, 15.0)" width="37.9" xlink:href="#font_TradeGothic_CondEighteen_s0"/>
    </g>
  </g>
  <defs>
    <g id="font_TradeGothic_CondEighteen_n0">
      <path d="M9.45 0.0 L9.45 0.0 9.45 -21.45 Q11.55 -23.05 13.45 -23.2 15.5 -23.25 15.65 -21.2 L15.65 0.0 22.0 0.0 22.0 -22.1 Q21.85 -27.75 16.65 -28.0 14.1 -28.05 12.55 -27.2 L9.15 -24.8 9.15 -27.55 3.1 -27.55 3.1 0.0 9.45 0.0 9.45 0.0" fill-rule="evenodd" stroke="none"/>
    </g>
    <g id="font_TradeGothic_CondEighteen_e0">
      <path d="M22.45 -17.8 L22.45 -17.8 Q22.5 -22.3 20.25 -25.1 17.95 -27.9 12.55 -28.0 7.15 -27.9 4.85 -25.1 2.6 -22.3 2.65 -17.8 L2.65 -9.7 Q2.6 -5.25 4.85 -2.45 7.15 0.35 12.55 0.4 17.85 0.35 20.15 -2.35 22.45 -5.0 22.45 -9.35 L16.05 -9.35 16.05 -8.75 Q16.0 -4.25 12.55 -4.4 9.1 -4.25 9.05 -8.75 L9.05 -12.6 22.45 -12.6 22.45 -17.8 22.45 -17.8 M9.05 -17.4 L9.05 -17.4 9.05 -18.8 Q9.1 -23.3 12.55 -23.2 16.0 -23.3 16.05 -18.8 L16.05 -17.4 9.05 -17.4 9.05 -17.4" fill-rule="evenodd" stroke="none"/>
    </g>
    <g id="font_TradeGothic_CondEighteen_d0">
      <path d="M15.65 -5.8 L15.65 -5.8 Q13.85 -4.5 12.05 -4.4 10.75 -4.3 9.9 -5.25 9.05 -6.15 9.05 -8.75 L9.05 -18.8 Q9.05 -21.45 9.9 -22.35 10.75 -23.25 12.05 -23.2 13.85 -23.1 15.65 -21.8 L15.65 -5.8 15.65 -5.8 M22.0 0.0 L22.0 0.0 22.0 -37.0 15.65 -37.0 15.65 -25.05 12.5 -27.25 Q11.1 -28.0 9.15 -28.0 2.9 -27.9 2.65 -20.25 L2.65 -7.15 Q2.9 0.25 9.15 0.4 11.45 0.4 12.9 -0.4 14.35 -1.2 15.85 -3.05 L15.95 -3.05 15.95 0.0 22.0 0.0 22.0 0.0" fill-rule="evenodd" stroke="none"/>
    </g>
    <g id="font_TradeGothic_CondEighteen_s0">
      <path d="M19.9 -20.65 L19.9 -20.65 Q19.15 -23.9 16.75 -25.9 14.35 -27.95 10.7 -28.0 7.1 -27.95 4.7 -25.9 2.35 -23.9 2.25 -20.6 2.45 -16.95 5.25 -14.75 8.05 -12.55 10.85 -10.75 13.7 -9.0 13.9 -6.75 13.7 -4.45 11.25 -4.4 9.25 -4.45 8.35 -5.65 7.45 -6.9 7.2 -8.65 L1.55 -7.3 Q3.0 0.15 11.2 0.4 15.05 0.4 17.5 -1.5 19.95 -3.35 20.0 -7.05 19.8 -11.0 17.0 -13.3 14.2 -15.65 11.35 -17.3 8.55 -19.0 8.35 -21.05 8.5 -23.15 10.95 -23.2 13.8 -23.15 14.4 -19.8 L19.9 -20.65 19.9 -20.65" fill-rule="evenodd" stroke="none"/>
    </g>
  </defs>
</svg>
