<?xml version="1.0" encoding="UTF-8" standalone="no"?>
<svg xmlns:xlink="http://www.w3.org/1999/xlink" height="18.45px" width="94.35px" xmlns="http://www.w3.org/2000/svg">
  <g transform="matrix(1.0, 0.0, 0.0, 1.0, -25.05, -3.65)">
    <g transform="matrix(1.0, 0.0, 0.0, 1.0, 24.65, 0.0)">
      <use fill="#ffffff" height="18.45" transform="matrix(0.4883, 0.0, 0.0, 0.4883, 0.0, 22.0)" width="94.35" xlink:href="#font_TradeGothic_CondEighteen_T0"/>
      <use fill="#ffffff" height="18.45" transform="matrix(0.4883, 0.0, 0.0, 0.4883, 9.2, 22.0)" width="94.35" xlink:href="#font_TradeGothic_CondEighteen_O0"/>
      <use fill="#ffffff" height="18.45" transform="matrix(0.4883, 0.0, 0.0, 0.4883, 21.2, 22.0)" width="94.35" xlink:href="#font_TradeGothic_CondEighteen_O0"/>
      <use fill="#ffffff" height="18.45" transform="matrix(0.4883, 0.0, 0.0, 0.4883, 33.2, 22.0)" width="94.35" xlink:href="#font_TradeGothic_CondEighteen_N0"/>
      <use fill="#ffffff" height="18.45" transform="matrix(0.4883, 0.0, 0.0, 0.4883, 45.2, 22.0)" width="94.35" xlink:href="#font_TradeGothic_CondEighteen_T0"/>
      <use fill="#ffffff" height="18.45" transform="matrix(0.4883, 0.0, 0.0, 0.4883, 54.4, 22.0)" width="94.35" xlink:href="#font_TradeGothic_CondEighteen_O0"/>
      <use fill="#ffffff" height="18.45" transform="matrix(0.4883, 0.0, 0.0, 0.4883, 66.4, 22.0)" width="94.35" xlink:href="#font_TradeGothic_CondEighteen_W0"/>
      <use fill="#ffffff" height="18.45" transform="matrix(0.4883, 0.0, 0.0, 0.4883, 82.55, 22.0)" width="94.35" xlink:href="#font_TradeGothic_CondEighteen_N0"/>
    </g>
  </g>
  <defs>
    <g id="font_TradeGothic_CondEighteen_T0">
      <path d="M7.5 0.0 L7.5 0.0 14.55 0.0 14.55 -31.4 21.3 -31.4 21.3 -37.0 0.75 -37.0 0.75 -31.4 7.5 -31.4 7.5 0.0 7.5 0.0" fill-rule="evenodd" stroke="none"/>
    </g>
    <g id="font_TradeGothic_CondEighteen_O0">
      <path d="M10.35 -27.75 L10.35 -27.75 Q10.1 -31.8 14.1 -31.8 18.1 -31.8 17.85 -27.75 L17.85 -9.25 Q18.1 -5.15 14.1 -5.2 10.1 -5.15 10.35 -9.25 L10.35 -27.75 10.35 -27.75 M3.3 -9.1 L3.3 -9.1 Q3.3 -5.1 5.95 -2.4 8.6 0.3 14.1 0.4 19.6 0.3 22.25 -2.4 24.9 -5.1 24.85 -9.1 L24.85 -27.9 Q24.9 -31.9 22.25 -34.6 19.6 -37.3 14.1 -37.4 8.6 -37.3 5.95 -34.6 3.3 -31.9 3.3 -27.9 L3.3 -9.1 3.3 -9.1" fill-rule="evenodd" stroke="none"/>
    </g>
    <g id="font_TradeGothic_CondEighteen_N0">
      <path d="M9.7 0.0 L9.7 0.0 9.7 -23.1 9.8 -23.1 18.7 0.0 24.85 0.0 24.85 -37.0 18.5 -37.0 18.5 -15.8 18.4 -15.8 9.85 -37.0 3.3 -37.0 3.3 0.0 9.7 0.0 9.7 0.0" fill-rule="evenodd" stroke="none"/>
    </g>
    <g id="font_TradeGothic_CondEighteen_W0">
      <path d="M10.95 -13.4 L10.95 -13.4 10.85 -13.4 6.55 -37.0 0.05 -37.0 7.75 0.0 13.6 0.0 18.35 -24.45 18.45 -24.45 23.5 0.0 29.35 0.0 36.5 -37.0 30.0 -37.0 26.1 -13.4 26.0 -13.4 21.25 -37.0 15.5 -37.0 10.95 -13.4 10.95 -13.4" fill-rule="evenodd" stroke="none"/>
    </g>
  </defs>
</svg>
