<?xml version="1.0" encoding="UTF-8" standalone="no"?>
<svg xmlns:xlink="http://www.w3.org/1999/xlink" height="32.85px" width="126.25px" xmlns="http://www.w3.org/2000/svg">
  <g transform="matrix(1.0, 0.0, 0.0, 1.0, -10.5, -6.9)">
    <g transform="matrix(1.0, 0.0, 0.0, 1.0, 7.5, 0.0)">
      <use fill="#000000" height="32.85" transform="matrix(0.8789, 0.0, 0.0, 0.8789, 0.0, 39.0)" width="126.25" xlink:href="#font_TradeGothic_CondEighteen_B0"/>
      <use fill="#000000" height="32.85" transform="matrix(0.8789, 0.0, 0.0, 0.8789, 21.9, 39.0)" width="126.25" xlink:href="#font_TradeGothic_CondEighteen_e0"/>
      <use fill="#000000" height="32.85" transform="matrix(0.8789, 0.0, 0.0, 0.8789, 41.3, 39.0)" width="126.25" xlink:href="#font_TradeGothic_CondEighteen_c0"/>
      <use fill="#000000" height="32.85" transform="matrix(0.8789, 0.0, 0.0, 0.8789, 60.65, 39.0)" width="126.25" xlink:href="#font_TradeGothic_CondEighteen_o0"/>
      <use fill="#000000" height="32.85" transform="matrix(0.8789, 0.0, 0.0, 0.8789, 80.0, 39.0)" width="126.25" xlink:href="#font_TradeGothic_CondEighteen_m0"/>
      <use fill="#000000" height="32.85" transform="matrix(0.8789, 0.0, 0.0, 0.8789, 109.4, 39.0)" width="126.25" xlink:href="#font_TradeGothic_CondEighteen_e0"/>
    </g>
  </g>
  <defs>
    <g id="font_TradeGothic_CondEighteen_B0">
      <path d="M3.3 0.0 L3.3 0.0 14.45 0.0 Q20.3 -0.1 22.8 -3.15 25.35 -6.15 25.3 -10.85 25.15 -17.7 19.65 -19.6 22.25 -20.4 23.45 -22.5 24.65 -24.6 24.65 -27.05 24.85 -36.75 13.75 -36.95 L3.3 -36.95 3.3 0.0 3.3 0.0 M10.35 -31.6 L10.35 -31.6 13.0 -31.6 Q17.65 -31.55 17.6 -26.45 17.25 -21.8 12.9 -21.75 L10.35 -21.75 10.35 -31.6 10.35 -31.6 M10.35 -16.4 L10.35 -16.4 12.6 -16.4 Q18.5 -16.4 18.25 -10.9 18.5 -5.4 13.25 -5.35 L10.35 -5.35 10.35 -16.4 10.35 -16.4" fill-rule="evenodd" stroke="none"/>
    </g>
    <g id="font_TradeGothic_CondEighteen_e0">
      <path d="M22.45 -17.8 L22.45 -17.8 Q22.5 -22.3 20.25 -25.1 17.95 -27.9 12.55 -28.0 7.15 -27.9 4.85 -25.1 2.6 -22.3 2.65 -17.8 L2.65 -9.7 Q2.6 -5.25 4.85 -2.45 7.15 0.35 12.55 0.4 17.85 0.35 20.15 -2.35 22.45 -5.0 22.45 -9.35 L16.05 -9.35 16.05 -8.75 Q16.0 -4.25 12.55 -4.4 9.1 -4.25 9.05 -8.75 L9.05 -12.6 22.45 -12.6 22.45 -17.8 22.45 -17.8 M9.05 -17.4 L9.05 -17.4 9.05 -18.8 Q9.1 -23.3 12.55 -23.2 16.0 -23.3 16.05 -18.8 L16.05 -17.4 9.05 -17.4 9.05 -17.4" fill-rule="evenodd" stroke="none"/>
    </g>
    <g id="font_TradeGothic_CondEighteen_c0">
      <path d="M22.45 -18.05 L22.45 -18.05 Q22.45 -22.5 20.15 -25.2 17.85 -27.9 12.55 -28.0 7.15 -27.9 4.85 -25.1 2.6 -22.3 2.65 -17.75 L2.65 -9.8 Q2.6 -5.25 4.85 -2.45 7.15 0.35 12.55 0.4 17.95 0.35 20.25 -2.45 22.5 -5.25 22.45 -9.8 L22.45 -10.5 16.05 -10.5 16.05 -8.8 Q16.0 -4.25 12.55 -4.4 9.1 -4.25 9.05 -8.8 L9.05 -18.75 Q9.1 -23.3 12.55 -23.2 16.0 -23.3 16.05 -18.75 L16.05 -18.05 22.45 -18.05 22.45 -18.05" fill-rule="evenodd" stroke="none"/>
    </g>
    <g id="font_TradeGothic_CondEighteen_o0">
      <path d="M2.65 -9.8 L2.65 -9.8 Q2.6 -5.25 4.85 -2.45 7.15 0.35 12.55 0.4 17.95 0.35 20.25 -2.45 22.5 -5.25 22.45 -9.8 L22.45 -17.75 Q22.5 -22.3 20.25 -25.1 17.95 -27.9 12.55 -28.0 7.15 -27.9 4.85 -25.1 2.6 -22.3 2.65 -17.75 L2.65 -9.8 2.65 -9.8 M16.05 -8.8 L16.05 -8.8 Q16.0 -4.25 12.55 -4.4 9.1 -4.25 9.05 -8.8 L9.05 -18.75 Q9.1 -23.3 12.55 -23.2 16.0 -23.3 16.05 -18.75 L16.05 -8.8 16.05 -8.8" fill-rule="evenodd" stroke="none"/>
    </g>
    <g id="font_TradeGothic_CondEighteen_m0">
      <path d="M22.0 0.0 L22.0 0.0 22.0 -21.45 Q24.0 -23.05 25.95 -23.2 28.0 -23.25 28.15 -21.2 L28.15 0.0 34.55 0.0 34.55 -22.1 Q34.55 -27.75 28.55 -28.0 26.9 -28.1 25.35 -27.45 23.8 -26.75 21.6 -24.8 20.65 -26.4 19.5 -27.2 18.35 -28.0 16.05 -28.0 13.9 -28.05 12.45 -27.2 L9.15 -24.8 9.15 -27.55 3.1 -27.55 3.1 0.0 9.45 0.0 9.45 -21.45 Q11.55 -23.05 13.45 -23.2 15.45 -23.25 15.65 -21.2 L15.65 0.0 22.0 0.0 22.0 0.0" fill-rule="evenodd" stroke="none"/>
    </g>
  </defs>
</svg>
