<?xml version="1.0" encoding="UTF-8" standalone="no"?>
<svg xmlns:xlink="http://www.w3.org/1999/xlink" height="55.4px" width="154.55px" xmlns="http://www.w3.org/2000/svg">
  <g transform="matrix(1.0, 0.0, 0.0, 1.0, 6.45, -10.85)">
    <g transform="matrix(1.0, 0.0, 0.0, 1.0, -7.6, 0.0)">
      <use fill="#000000" height="55.4" transform="matrix(1.4648, 0.0, 0.0, 1.4648, 0.0, 66.0)" width="154.55" xlink:href="#font_TradeGothic_CondEighteen_T0"/>
      <use fill="#000000" height="55.4" transform="matrix(1.4648, 0.0, 0.0, 1.4648, 28.45, 66.0)" width="154.55" xlink:href="#font_TradeGothic_CondEighteen_O0"/>
      <use fill="#000000" height="55.4" transform="matrix(1.4648, 0.0, 0.0, 1.4648, 65.25, 66.0)" width="154.55" xlink:href="#font_TradeGothic_CondEighteen_O0"/>
      <use fill="#000000" height="55.4" transform="matrix(1.4648, 0.0, 0.0, 1.4648, 102.05, 66.0)" width="154.55" xlink:href="#font_TradeGothic_CondEighteen_N0"/>
      <use fill="#000000" height="55.4" transform="matrix(1.4648, 0.0, 0.0, 1.4648, 138.85, 66.0)" width="154.55" xlink:href="#font_TradeGothic_CondEighteen__0"/>
    </g>
  </g>
  <defs>
    <g id="font_TradeGothic_CondEighteen_T0">
      <path d="M7.5 0.0 L7.5 0.0 14.55 0.0 14.55 -31.4 21.3 -31.4 21.3 -37.0 0.75 -37.0 0.75 -31.4 7.5 -31.4 7.5 0.0 7.5 0.0" fill-rule="evenodd" stroke="none"/>
    </g>
    <g id="font_TradeGothic_CondEighteen_O0">
      <path d="M10.35 -27.75 L10.35 -27.75 Q10.1 -31.8 14.1 -31.8 18.1 -31.8 17.85 -27.75 L17.85 -9.25 Q18.1 -5.15 14.1 -5.2 10.1 -5.15 10.35 -9.25 L10.35 -27.75 10.35 -27.75 M3.3 -9.1 L3.3 -9.1 Q3.3 -5.1 5.95 -2.4 8.6 0.3 14.1 0.4 19.6 0.3 22.25 -2.4 24.9 -5.1 24.85 -9.1 L24.85 -27.9 Q24.9 -31.9 22.25 -34.6 19.6 -37.3 14.1 -37.4 8.6 -37.3 5.95 -34.6 3.3 -31.9 3.3 -27.9 L3.3 -9.1 3.3 -9.1" fill-rule="evenodd" stroke="none"/>
    </g>
    <g id="font_TradeGothic_CondEighteen_N0">
      <path d="M9.7 0.0 L9.7 0.0 9.7 -23.1 9.8 -23.1 18.7 0.0 24.85 0.0 24.85 -37.0 18.5 -37.0 18.5 -15.8 18.4 -15.8 9.85 -37.0 3.3 -37.0 3.3 0.0 9.7 0.0 9.7 0.0" fill-rule="evenodd" stroke="none"/>
    </g>
    <g id="font_TradeGothic_CondEighteen__0">
      <path d="M11.2 0.0 L11.2 0.0 11.2 -6.05 4.45 -6.05 4.45 0.0 11.2 0.0 11.2 0.0 M5.45 -10.85 L5.45 -10.85 10.15 -10.85 11.45 -36.95 4.2 -36.95 5.45 -10.85 5.45 -10.85" fill-rule="evenodd" stroke="none"/>
    </g>
  </defs>
</svg>
