<?xml version="1.0" encoding="UTF-8" standalone="no"?>
<svg xmlns:xlink="http://www.w3.org/1999/xlink" height="27.75px" width="19.7px" xmlns="http://www.w3.org/2000/svg">
  <g transform="matrix(1.0, 0.0, 0.0, 1.0, -63.1, -16.35)">
    <g transform="matrix(1.0, 0.0, 0.0, 1.0, 61.05, 0.0)">
      <use fill="#000000" height="27.75" transform="matrix(0.9766, 0.0, 0.0, 0.9766, 0.0, 44.0)" width="19.7" xlink:href="#font_TradeGothic_CondEighteen_a0"/>
    </g>
  </g>
  <defs>
    <g id="font_TradeGothic_CondEighteen_a0">
      <path d="M15.4 -6.95 L15.4 -6.95 Q13.85 -4.65 11.25 -4.4 8.4 -4.3 8.35 -6.9 8.3 -8.65 9.75 -10.3 11.25 -12.0 15.4 -14.15 L15.4 -6.95 15.4 -6.95 M8.8 -19.35 L8.8 -19.35 Q8.55 -23.0 12.35 -23.2 15.45 -23.15 15.4 -19.7 L15.4 -18.1 Q8.7 -16.05 5.35 -13.2 2.0 -10.35 2.0 -5.85 2.0 -3.15 3.6 -1.4 5.25 0.35 8.5 0.4 12.6 0.55 15.75 -2.2 L16.1 0.0 22.2 0.0 Q21.85 -1.55 21.8 -2.95 L21.8 -20.45 Q21.55 -28.0 12.6 -28.0 3.35 -27.85 2.45 -19.35 L8.8 -19.35 8.8 -19.35" fill-rule="evenodd" stroke="none"/>
    </g>
  </defs>
</svg>
