<?xml version="1.0" encoding="UTF-8" standalone="no"?>
<svg xmlns:xlink="http://www.w3.org/1999/xlink" height="40.65px" width="127.05px" xmlns="http://www.w3.org/2000/svg">
  <g transform="matrix(1.0, 0.0, 0.0, 1.0, -10.45, -7.95)">
    <g transform="matrix(1.0, 0.0, 0.0, 1.0, 6.8, 0.0)">
      <use fill="#000000" height="40.65" transform="matrix(1.0742, 0.0, 0.0, 1.0742, 0.0, 48.0)" width="127.05" xlink:href="#font_TradeGothic_CondEighteen_C0"/>
      <use fill="#000000" height="40.65" transform="matrix(1.0742, 0.0, 0.0, 1.0742, 26.8, 48.0)" width="127.05" xlink:href="#font_TradeGothic_CondEighteen_r0"/>
      <use fill="#000000" height="40.65" transform="matrix(1.0742, 0.0, 0.0, 1.0742, 44.4, 48.0)" width="127.05" xlink:href="#font_TradeGothic_CondEighteen_e0"/>
      <use fill="#000000" height="40.65" transform="matrix(1.0742, 0.0, 0.0, 1.0742, 68.15, 48.0)" width="127.05" xlink:href="#font_TradeGothic_CondEighteen_a0"/>
      <use fill="#000000" height="40.65" transform="matrix(1.0742, 0.0, 0.0, 1.0742, 91.9, 48.0)" width="127.05" xlink:href="#font_TradeGothic_CondEighteen_t0"/>
      <use fill="#000000" height="40.65" transform="matrix(1.0742, 0.0, 0.0, 1.0742, 106.5, 48.0)" width="127.05" xlink:href="#font_TradeGothic_CondEighteen_e0"/>
    </g>
  </g>
  <defs>
    <g id="font_TradeGothic_CondEighteen_C0">
      <path d="M24.45 -24.55 L24.45 -24.55 24.45 -27.25 Q24.45 -31.45 21.85 -34.35 19.25 -37.25 14.05 -37.4 8.55 -37.3 5.95 -34.6 3.3 -31.9 3.3 -27.9 L3.3 -9.1 Q3.3 -5.1 5.95 -2.4 8.55 0.3 14.05 0.4 19.25 0.3 21.85 -2.4 24.45 -5.1 24.45 -9.1 L24.45 -13.3 17.4 -13.3 17.4 -8.9 Q17.6 -5.25 14.05 -5.2 10.1 -5.15 10.35 -9.25 L10.35 -27.75 Q10.1 -31.8 14.05 -31.8 17.05 -31.9 17.4 -27.4 L17.4 -24.55 24.45 -24.55 24.45 -24.55" fill-rule="evenodd" stroke="none"/>
    </g>
    <g id="font_TradeGothic_CondEighteen_r0">
      <path d="M9.45 0.0 L9.45 0.0 9.45 -18.75 Q9.55 -20.6 10.8 -21.5 12.05 -22.4 13.7 -22.4 L17.75 -21.85 17.75 -27.95 16.45 -27.95 Q11.8 -27.85 9.3 -24.15 L9.2 -24.15 9.2 -27.6 3.1 -27.6 3.1 0.0 9.45 0.0 9.45 0.0" fill-rule="evenodd" stroke="none"/>
    </g>
    <g id="font_TradeGothic_CondEighteen_e0">
      <path d="M22.45 -17.8 L22.45 -17.8 Q22.5 -22.3 20.25 -25.1 17.95 -27.9 12.55 -28.0 7.15 -27.9 4.85 -25.1 2.6 -22.3 2.65 -17.8 L2.65 -9.7 Q2.6 -5.25 4.85 -2.45 7.15 0.35 12.55 0.4 17.85 0.35 20.15 -2.35 22.45 -5.0 22.45 -9.35 L16.05 -9.35 16.05 -8.75 Q16.0 -4.25 12.55 -4.4 9.1 -4.25 9.05 -8.75 L9.05 -12.6 22.45 -12.6 22.45 -17.8 22.45 -17.8 M9.05 -17.4 L9.05 -17.4 9.05 -18.8 Q9.1 -23.3 12.55 -23.2 16.0 -23.3 16.05 -18.8 L16.05 -17.4 9.05 -17.4 9.05 -17.4" fill-rule="evenodd" stroke="none"/>
    </g>
    <g id="font_TradeGothic_CondEighteen_a0">
      <path d="M15.4 -6.95 L15.4 -6.95 Q13.85 -4.65 11.25 -4.4 8.4 -4.3 8.35 -6.9 8.3 -8.65 9.75 -10.3 11.25 -12.0 15.4 -14.15 L15.4 -6.95 15.4 -6.95 M8.8 -19.35 L8.8 -19.35 Q8.55 -23.0 12.35 -23.2 15.45 -23.15 15.4 -19.7 L15.4 -18.1 Q8.7 -16.05 5.35 -13.2 2.0 -10.35 2.0 -5.85 2.0 -3.15 3.6 -1.4 5.25 0.35 8.5 0.4 12.6 0.55 15.75 -2.2 L16.1 0.0 22.2 0.0 Q21.85 -1.55 21.8 -2.95 L21.8 -20.45 Q21.55 -28.0 12.6 -28.0 3.35 -27.85 2.45 -19.35 L8.8 -19.35 8.8 -19.35" fill-rule="evenodd" stroke="none"/>
    </g>
    <g id="font_TradeGothic_CondEighteen_t0">
      <path d="M3.95 -22.8 L3.95 -22.8 3.95 -5.95 Q4.1 0.45 11.4 0.4 L14.6 0.1 14.6 -4.95 12.5 -4.95 Q10.3 -5.0 10.35 -7.2 L10.35 -22.8 14.6 -22.8 14.6 -27.6 10.35 -27.6 10.35 -35.0 3.95 -35.0 3.95 -27.6 0.5 -27.6 0.5 -22.8 3.95 -22.8 3.95 -22.8" fill-rule="evenodd" stroke="none"/>
    </g>
  </defs>
</svg>
