<?xml version="1.0" encoding="UTF-8" standalone="no"?>
<svg xmlns:xlink="http://www.w3.org/1999/xlink" height="47.45px" width="360.05px" xmlns="http://www.w3.org/2000/svg">
  <g transform="matrix(1.0, 0.0, 0.0, 1.0, 106.2, -9.9)">
    <g transform="matrix(1.0, 0.0, 0.0, 1.0, -109.6, 0.0)">
      <use fill="#000000" height="47.45" transform="matrix(1.2695, 0.0, 0.0, 1.2695, 0.0, 57.0)" width="360.05" xlink:href="#font_TradeGothic_CondEighteen_o0"/>
      <use fill="#000000" height="47.45" transform="matrix(1.2695, 0.0, 0.0, 1.2695, 28.15, 57.0)" width="360.05" xlink:href="#font_TradeGothic_CondEighteen_w0"/>
      <use fill="#000000" height="47.45" transform="matrix(1.2695, 0.0, 0.0, 1.2695, 63.6, 57.0)" width="360.05" xlink:href="#font_TradeGothic_CondEighteen_n0"/>
      <use fill="#000000" height="47.45" transform="matrix(1.2695, 0.0, 0.0, 1.2695, 105.5, 57.0)" width="360.05" xlink:href="#font_TradeGothic_CondEighteen_T0"/>
      <use fill="#000000" height="47.45" transform="matrix(1.2695, 0.0, 0.0, 1.2695, 127.65, 57.0)" width="360.05" xlink:href="#font_TradeGothic_CondEighteen_o0"/>
      <use fill="#000000" height="47.45" transform="matrix(1.2695, 0.0, 0.0, 1.2695, 155.8, 57.0)" width="360.05" xlink:href="#font_TradeGothic_CondEighteen_o0"/>
      <use fill="#000000" height="47.45" transform="matrix(1.2695, 0.0, 0.0, 1.2695, 183.95, 57.0)" width="360.05" xlink:href="#font_TradeGothic_CondEighteen_n0"/>
      <use fill="#000000" height="47.45" transform="matrix(1.2695, 0.0, 0.0, 1.2695, 225.85, 57.0)" width="360.05" xlink:href="#font_TradeGothic_CondEighteen_h0"/>
      <use fill="#000000" height="47.45" transform="matrix(1.2695, 0.0, 0.0, 1.2695, 254.0, 57.0)" width="360.05" xlink:href="#font_TradeGothic_CondEighteen_o0"/>
      <use fill="#000000" height="47.45" transform="matrix(1.2695, 0.0, 0.0, 1.2695, 282.15, 57.0)" width="360.05" xlink:href="#font_TradeGothic_CondEighteen_u0"/>
      <use fill="#000000" height="47.45" transform="matrix(1.2695, 0.0, 0.0, 1.2695, 310.3, 57.0)" width="360.05" xlink:href="#font_TradeGothic_CondEighteen_s0"/>
      <use fill="#000000" height="47.45" transform="matrix(1.2695, 0.0, 0.0, 1.2695, 334.9, 57.0)" width="360.05" xlink:href="#font_TradeGothic_CondEighteen_e0"/>
    </g>
  </g>
  <defs>
    <g id="font_TradeGothic_CondEighteen_o0">
      <path d="M2.65 -9.8 L2.65 -9.8 Q2.6 -5.25 4.85 -2.45 7.15 0.35 12.55 0.4 17.95 0.35 20.25 -2.45 22.5 -5.25 22.45 -9.8 L22.45 -17.75 Q22.5 -22.3 20.25 -25.1 17.95 -27.9 12.55 -28.0 7.15 -27.9 4.85 -25.1 2.6 -22.3 2.65 -17.75 L2.65 -9.8 2.65 -9.8 M16.05 -8.8 L16.05 -8.8 Q16.0 -4.25 12.55 -4.4 9.1 -4.25 9.05 -8.8 L9.05 -18.75 Q9.1 -23.3 12.55 -23.2 16.0 -23.3 16.05 -18.75 L16.05 -8.8 16.05 -8.8" fill-rule="evenodd" stroke="none"/>
    </g>
    <g id="font_TradeGothic_CondEighteen_w0">
      <path d="M9.25 -10.35 L9.25 -10.35 9.15 -10.35 6.35 -27.6 0.25 -27.6 6.15 0.0 11.2 0.0 15.35 -17.45 15.45 -17.45 18.9 0.0 24.0 0.0 31.0 -27.6 24.9 -27.6 21.45 -10.35 21.35 -10.35 17.95 -27.55 13.25 -27.55 9.25 -10.35 9.25 -10.35" fill-rule="evenodd" stroke="none"/>
    </g>
    <g id="font_TradeGothic_CondEighteen_n0">
      <path d="M9.45 0.0 L9.45 0.0 9.45 -21.45 Q11.55 -23.05 13.45 -23.2 15.5 -23.25 15.65 -21.2 L15.65 0.0 22.0 0.0 22.0 -22.1 Q21.85 -27.75 16.65 -28.0 14.1 -28.05 12.55 -27.2 L9.15 -24.8 9.15 -27.55 3.1 -27.55 3.1 0.0 9.45 0.0 9.45 0.0" fill-rule="evenodd" stroke="none"/>
    </g>
    <g id="font_TradeGothic_CondEighteen_T0">
      <path d="M7.5 0.0 L7.5 0.0 14.55 0.0 14.55 -31.4 21.3 -31.4 21.3 -37.0 0.75 -37.0 0.75 -31.4 7.5 -31.4 7.5 0.0 7.5 0.0" fill-rule="evenodd" stroke="none"/>
    </g>
    <g id="font_TradeGothic_CondEighteen_h0">
      <path d="M9.45 0.0 L9.45 0.0 9.45 -21.45 Q11.55 -23.05 13.45 -23.2 15.5 -23.25 15.65 -21.2 L15.65 0.0 22.0 0.0 22.0 -22.1 Q21.85 -27.75 16.65 -28.0 14.05 -27.95 12.55 -27.1 L9.45 -24.85 9.45 -37.0 3.1 -37.0 3.1 0.0 9.45 0.0 9.45 0.0" fill-rule="evenodd" stroke="none"/>
    </g>
    <g id="font_TradeGothic_CondEighteen_u0">
      <path d="M15.65 -27.6 L15.65 -27.6 15.65 -6.1 Q13.55 -4.5 11.65 -4.4 9.6 -4.35 9.45 -6.35 L9.45 -27.6 3.1 -27.6 3.1 -5.45 Q3.25 0.2 8.45 0.4 11.0 0.45 12.55 -0.4 14.1 -1.2 15.95 -2.75 L15.95 0.0 22.0 0.0 22.0 -27.6 15.65 -27.6 15.65 -27.6" fill-rule="evenodd" stroke="none"/>
    </g>
    <g id="font_TradeGothic_CondEighteen_s0">
      <path d="M19.9 -20.65 L19.9 -20.65 Q19.15 -23.9 16.75 -25.9 14.35 -27.95 10.7 -28.0 7.1 -27.95 4.7 -25.9 2.35 -23.9 2.25 -20.6 2.45 -16.95 5.25 -14.75 8.05 -12.55 10.85 -10.75 13.7 -9.0 13.9 -6.75 13.7 -4.45 11.25 -4.4 9.25 -4.45 8.35 -5.65 7.45 -6.9 7.2 -8.65 L1.55 -7.3 Q3.0 0.15 11.2 0.4 15.05 0.4 17.5 -1.5 19.95 -3.35 20.0 -7.05 19.8 -11.0 17.0 -13.3 14.2 -15.65 11.35 -17.3 8.55 -19.0 8.35 -21.05 8.5 -23.15 10.95 -23.2 13.8 -23.15 14.4 -19.8 L19.9 -20.65 19.9 -20.65" fill-rule="evenodd" stroke="none"/>
    </g>
    <g id="font_TradeGothic_CondEighteen_e0">
      <path d="M22.45 -17.8 L22.45 -17.8 Q22.5 -22.3 20.25 -25.1 17.95 -27.9 12.55 -28.0 7.15 -27.9 4.85 -25.1 2.6 -22.3 2.65 -17.8 L2.65 -9.7 Q2.6 -5.25 4.85 -2.45 7.15 0.35 12.55 0.4 17.85 0.35 20.15 -2.35 22.45 -5.0 22.45 -9.35 L16.05 -9.35 16.05 -8.75 Q16.0 -4.25 12.55 -4.4 9.1 -4.25 9.05 -8.75 L9.05 -12.6 22.45 -12.6 22.45 -17.8 22.45 -17.8 M9.05 -17.4 L9.05 -17.4 9.05 -18.8 Q9.1 -23.3 12.55 -23.2 16.0 -23.3 16.05 -18.8 L16.05 -17.4 9.05 -17.4 9.05 -17.4" fill-rule="evenodd" stroke="none"/>
    </g>
  </defs>
</svg>
