<?xml version="1.0" encoding="UTF-8" standalone="no"?>
<svg xmlns:xlink="http://www.w3.org/1999/xlink" height="69.3px" width="23.5px" xmlns="http://www.w3.org/2000/svg">
  <g transform="matrix(1.0, 0.0, 0.0, 1.0, 10.7, 32.5)">
    <use height="68.55" transform="matrix(0.9995, -0.0267, 0.0267, 0.9995, -10.7117, -31.749)" width="21.1" xlink:href="#sprite0"/>
  </g>
  <defs>
    <g id="sprite0" transform="matrix(1.0, 0.0, 0.0, 1.0, 10.55, 34.3)">
      <use height="68.55" transform="matrix(1.0, 0.0, 0.0, 1.0, -10.55, -34.3)" width="21.1" xlink:href="#shape0"/>
    </g>
    <g id="shape0" transform="matrix(1.0, 0.0, 0.0, 1.0, 10.55, 34.3)">
      <path d="M6.6 -9.2 Q5.55 -23.75 0.1 -29.7 L-8.65 -27.2 -10.55 -29.45 Q-7.8 -31.05 -2.0 -32.9 4.45 -34.95 5.35 -33.95 10.2 -28.6 10.5 -4.3 10.65 5.1 10.0 14.75 L8.75 32.2 Q7.85 35.65 6.4 33.35 7.25 -0.15 6.6 -9.2" fill="#000000" fill-rule="evenodd" stroke="none"/>
    </g>
  </defs>
</svg>
