<?xml version="1.0" encoding="UTF-8" standalone="no"?>
<svg xmlns:xlink="http://www.w3.org/1999/xlink" height="64.2px" width="29.15px" xmlns="http://www.w3.org/2000/svg">
  <g transform="matrix(1.0, 0.0, 0.0, 1.0, 14.55, 32.05)">
    <use height="64.2" transform="matrix(1.0, 0.0, 0.0, 1.0, -14.55, -32.05)" width="29.15" xlink:href="#shape0"/>
  </g>
  <defs>
    <g id="shape0" transform="matrix(1.0, 0.0, 0.0, 1.0, 14.55, 32.05)">
      <path d="M1.0 -31.55 L1.0 -31.45 1.0 -31.55 M-1.45 -27.65 L-1.55 -27.65 -1.55 -27.7 -1.5 -28.15 -1.45 -27.65 M-1.9 -31.1 L-1.95 -31.25 -1.9 -31.1 M14.5 31.1 L14.25 31.25 13.75 31.3 14.3 31.15 14.4 31.15 14.45 31.1 14.5 31.1 M2.1 31.2 L1.95 31.05 2.0 31.05 2.1 31.2 M2.05 29.3 L2.3 24.9 2.3 25.1 2.05 29.3 M-0.1 30.85 L-0.1 30.95 -0.2 31.0 -0.1 30.85 M-10.9 32.0 Q-13.1 31.8 -14.4 31.2 L-14.35 31.2 -11.85 31.85 -10.9 32.0 M-10.75 25.9 Q-10.35 25.7 -9.9 25.65 L-7.65 25.75 -9.8 25.65 -10.75 25.9 M-7.55 18.65 L-7.75 18.0 -7.65 18.0 -7.6 18.15 -7.55 18.65 M2.95 18.05 L2.9 17.9 2.95 17.9 2.95 18.05 M7.85 17.7 L7.95 17.7 7.65 19.85 7.5 20.9 7.75 18.55 7.85 17.7 M7.1 25.2 L7.1 25.4 7.05 25.4 7.1 25.2 M6.05 26.3 L6.0 26.35 Q7.1 25.65 8.45 25.45 L9.95 25.4 7.4 25.8 6.0 26.35 5.9 26.4 6.05 26.3 M12.35 30.85 L12.35 31.1 12.3 31.1 12.35 30.85 M11.2 31.25 L10.0 31.4 10.0 31.35 11.2 31.25 M10.0 28.55 L9.65 27.75 10.0 28.3 10.0 28.55 M9.6 31.35 L9.6 31.45 7.05 31.45 3.35 31.3 2.5 31.05 9.6 31.35 M-1.85 17.8 L-1.8 17.75 -1.8 19.2 -1.85 17.8 M-11.35 28.8 Q-11.85 30.05 -11.85 31.4 L-12.2 31.35 -12.1 30.8 -11.7 29.6 -11.35 28.8 M-13.1 29.2 Q-13.55 30.1 -13.65 31.1 L-13.85 31.05 -13.2 29.4 -13.1 29.2 M-14.0 30.3 Q-13.7 29.05 -12.9 28.0 L-12.35 27.35 Q-13.25 28.4 -13.95 30.2 L-14.0 30.3 M-7.0 26.25 Q-6.1 26.4 -5.5 27.0 L-5.45 27.05 -5.35 27.15 -5.2 27.15 -5.15 27.15 -5.1 27.1 -5.1 27.05 -4.95 27.55 Q-6.0 26.65 -7.0 26.25 M-5.25 26.5 L-6.1 23.6 -6.8 20.8 -5.25 26.5 M-10.55 27.95 L-10.5 27.9 -10.55 27.95" fill="#2649ff" fill-rule="evenodd" stroke="none"/>
      <path d="M1.0 -31.45 L1.0 -31.55 -1.95 -31.25 -1.9 -31.1 -1.5 -28.15 -1.55 -27.7 -1.55 -27.65 -1.45 -27.65 -1.3 -27.6 -1.25 -27.55 Q-0.65 -26.5 -0.8 -25.2 L-0.9 -24.8 -1.0 -24.65 -1.15 -24.65 -1.25 -24.65 -3.1 -26.35 -3.25 -26.45 -3.6 -26.2 -4.55 -25.85 -4.75 -25.75 -5.85 -25.1 -5.9 -25.05 -6.1 -24.85 -8.1 -22.15 -8.9 -20.9 -8.85 -20.85 Q-7.65 -19.5 -5.75 -19.4 L-5.35 -19.4 -4.9 -20.6 -4.55 -21.35 -4.2 -21.9 -4.2 -21.95 -4.15 -21.9 -4.15 -21.8 -4.45 -21.2 -5.05 -19.3 -5.05 -19.2 -5.05 -19.15 -5.25 -18.0 -5.25 -17.95 -5.85 -13.15 -5.85 -13.05 -6.15 -7.75 -6.2 -3.2 -4.45 -2.55 -4.4 -2.6 -4.35 -2.5 -2.3 -1.95 -2.05 -2.1 -1.45 -2.25 -0.65 -2.25 -0.4 -2.25 1.3 -2.0 1.5 -1.95 Q4.1 -2.15 6.3 -3.5 L6.15 -3.9 6.1 -4.0 5.95 -5.1 5.85 -7.05 5.35 -12.75 5.35 -12.9 5.35 -13.45 5.35 -14.0 5.3 -14.15 5.2 -14.65 5.15 -15.45 4.95 -17.55 4.85 -18.5 4.4 -20.1 4.4 -20.15 4.35 -20.3 4.25 -20.55 4.2 -20.7 4.15 -20.8 4.1 -20.9 4.1 -21.0 3.85 -21.65 3.8 -21.75 3.85 -21.75 3.9 -21.65 3.9 -21.6 4.8 -19.9 4.8 -19.85 4.9 -19.7 4.95 -19.55 Q5.4 -19.5 6.25 -20.0 7.0 -20.35 7.65 -20.95 L8.25 -21.75 8.55 -22.0 8.55 -22.05 5.45 -24.75 5.15 -25.0 5.05 -25.1 5.0 -25.15 4.95 -25.2 3.75 -25.85 2.05 -26.35 Q1.95 -26.4 1.95 -26.4 L1.95 -26.35 0.1 -24.7 0.0 -24.6 -0.15 -24.45 -0.2 -24.45 -0.45 -24.75 -0.5 -24.85 -0.55 -24.95 -0.6 -25.1 -0.65 -25.75 -0.4 -26.65 0.5 -27.4 0.5 -27.5 Q0.55 -29.45 0.95 -31.45 L1.0 -31.45 M-9.15 -20.75 L-9.2 -20.8 -9.2 -20.85 -9.2 -20.95 Q-8.1 -22.95 -6.6 -24.75 -5.35 -26.25 -3.4 -26.7 L-3.4 -26.75 -3.3 -26.8 -3.3 -26.85 -3.25 -26.9 Q-2.65 -27.5 -1.85 -27.65 -1.9 -29.45 -2.3 -31.15 L-2.3 -31.25 -2.25 -31.4 -2.2 -31.45 -2.15 -31.45 -2.1 -31.5 1.3 -32.05 1.45 -31.9 1.45 -31.85 Q1.0 -29.7 0.85 -27.55 1.7 -27.4 2.0 -26.6 L2.05 -26.65 Q4.55 -26.45 6.15 -24.6 L6.2 -24.55 8.1 -22.95 9.05 -22.15 Q7.95 -20.3 5.95 -19.45 L5.0 -19.3 5.7 -14.2 5.75 -13.7 5.75 -13.5 5.85 -11.7 5.85 -11.6 6.3 -5.8 6.55 -3.75 6.6 -3.55 6.65 -3.3 6.65 -3.25 Q6.9 -1.5 7.65 0.2 L7.7 0.25 8.55 3.9 9.4 7.55 Q10.1 11.2 10.2 15.9 L10.25 16.2 10.2 16.55 10.3 16.65 10.35 16.7 10.1 16.95 10.05 17.05 10.0 17.05 8.9 17.5 8.35 17.6 Q7.95 20.4 7.7 23.25 L7.45 25.35 9.25 25.1 11.5 25.4 11.6 25.45 13.0 26.3 Q13.85 27.05 14.3 28.25 L14.55 29.25 14.55 31.05 14.5 31.1 14.45 31.1 14.4 31.15 14.3 31.15 13.75 31.3 10.95 31.7 Q6.95 32.0 2.9 31.6 2.35 31.55 2.1 31.2 L2.0 31.05 1.95 31.05 1.9 31.0 1.85 30.95 2.05 29.3 2.3 25.1 2.3 24.9 2.5 20.65 2.55 20.5 2.55 20.25 2.6 19.5 2.5 17.9 2.55 17.8 2.25 17.75 1.45 17.4 1.3 17.3 1.2 17.25 1.15 17.25 Q0.65 14.5 0.3 11.65 L0.2 11.4 0.1 11.4 0.05 11.45 -0.85 16.85 -0.9 17.0 Q-0.75 17.0 -0.7 17.1 L-0.65 17.15 -0.65 17.2 -0.7 17.3 -1.45 17.65 -1.45 17.7 -1.5 17.85 -1.05 23.65 -0.25 29.5 -0.05 30.5 0.0 30.55 -0.1 30.85 -0.2 31.0 Q-0.5 31.3 -1.05 31.45 L-7.45 32.1 -10.9 32.0 -11.85 31.85 -14.35 31.2 -14.4 31.2 -14.5 31.15 -14.55 31.1 -14.55 31.0 -14.5 30.95 -14.5 30.8 -13.75 28.55 Q-13.25 27.5 -12.35 26.8 -11.6 26.2 -10.75 25.9 L-9.8 25.65 -7.65 25.75 Q-6.6 25.95 -5.65 26.5 L-7.05 21.3 -7.55 18.65 -7.6 18.15 -7.65 18.0 -7.75 18.0 Q-8.3 17.9 -8.75 17.6 L-8.9 17.55 -8.95 17.25 -9.0 17.2 -9.2 15.0 Q-9.5 11.7 -9.15 8.6 L-8.3 3.95 -7.3 -0.2 -7.0 -0.95 -7.05 -1.0 -6.65 -2.25 -6.5 -2.85 -6.45 -2.95 -6.5 -3.0 Q-6.75 -5.95 -6.5 -8.9 L-6.25 -12.85 -6.05 -14.05 -5.5 -18.65 -5.4 -19.1 Q-7.25 -18.95 -8.4 -20.0 L-9.0 -20.7 -9.15 -20.75 M1.5 -26.8 L1.4 -26.95 1.2 -27.15 0.95 -27.2 0.9 -27.2 0.15 -26.85 0.1 -26.8 Q-0.35 -26.2 -0.25 -25.4 L-0.25 -25.35 -0.2 -25.0 1.65 -26.55 1.5 -26.8 M-2.95 -26.65 L-1.4 -25.35 -1.2 -25.2 -1.2 -26.7 -1.2 -26.85 Q-1.35 -27.35 -1.85 -27.35 L-2.3 -27.15 -2.7 -26.95 -3.0 -26.7 -3.05 -26.7 -2.95 -26.65 M-3.7 -1.95 L-4.25 -2.1 -4.35 -1.45 -4.65 -0.45 -3.8 -0.25 -3.75 -1.9 -3.7 -1.95 M-2.8 -0.75 L-2.85 -0.75 -2.8 -0.7 -2.45 -0.5 -1.15 -0.35 -1.2 -0.4 -1.35 -0.55 -1.45 -0.65 -1.6 -0.7 -1.9 -0.75 -2.05 -0.8 -2.3 -0.85 -2.4 -0.85 -2.5 -0.85 -2.55 -0.85 -2.65 -0.8 -2.8 -0.75 M-3.0 -1.05 L-2.85 -1.15 -2.6 -1.15 -2.55 -1.6 -2.5 -1.7 -3.4 -1.85 Q-3.3 -1.55 -3.35 -1.05 L-3.5 -0.15 -2.5 0.05 -2.5 -0.15 -3.15 -0.55 -3.15 -0.7 -3.15 -0.85 -3.1 -0.9 -3.1 -0.95 -3.05 -1.0 -3.0 -1.05 M-4.6 -2.2 L-6.15 -2.95 -6.25 -2.25 -6.65 -1.15 -4.9 -0.55 -4.6 -2.2 M9.7 15.4 L9.4 11.35 9.1 8.45 7.9 2.65 7.55 1.35 6.75 -0.9 4.95 -0.25 4.7 -0.15 2.05 0.35 1.7 1.0 1.4 1.15 -2.1 0.95 -2.3 0.8 -2.4 0.6 -2.4 0.55 -2.45 0.5 -2.45 0.4 -2.45 0.35 Q-4.75 0.05 -6.8 -0.85 -6.65 -0.35 -6.9 0.3 L-7.35 1.7 Q-8.2 4.5 -8.5 7.45 L-8.85 13.4 -8.75 16.05 -8.75 16.35 -8.65 17.25 -8.6 17.3 -7.95 17.5 Q-5.35 18.05 -2.7 17.5 L-2.75 17.5 -2.45 17.4 -1.15 17.05 -1.2 17.0 -1.05 16.25 -1.0 15.95 -0.85 15.0 -0.25 11.0 0.5 11.0 0.55 11.15 0.6 11.15 0.9 13.25 1.35 16.15 1.5 17.0 Q2.8 17.5 4.25 17.6 L5.45 17.6 6.4 17.55 9.85 16.7 9.75 15.75 9.7 15.4 M6.45 -1.25 L6.65 -1.35 6.55 -1.95 6.4 -2.8 6.35 -3.15 6.25 -3.05 Q5.6 -2.5 4.75 -2.2 L4.45 -2.1 4.9 -0.7 6.45 -1.25 M1.95 -1.7 Q2.35 -0.75 2.15 0.1 L3.4 -0.25 Q3.1 -1.05 3.25 -1.8 L1.95 -1.7 M1.7 -1.25 L1.55 -1.65 1.45 -1.7 -2.15 -1.55 -2.25 -1.5 -2.25 -1.4 -2.25 -1.35 -2.25 -1.3 -2.25 -1.2 -1.85 -1.15 -1.75 -1.3 -1.65 -1.4 -1.4 -1.5 1.3 -1.2 1.4 -1.2 1.45 -1.2 Q1.9 -0.3 1.3 0.25 L0.9 0.5 0.75 0.6 0.05 0.7 -1.55 0.55 -1.8 0.45 -1.8 0.4 -1.85 0.25 -1.85 0.2 -1.9 0.1 -1.85 0.0 -2.2 -0.05 -2.15 0.2 -1.85 0.8 0.45 0.9 1.55 0.65 1.6 0.65 1.7 0.5 1.8 0.25 1.8 0.15 1.85 -0.55 1.7 -1.25 M1.15 -0.95 L-1.4 -1.15 -1.5 -1.1 -1.55 -1.05 -1.05 -0.8 -0.95 -0.75 -0.9 -0.55 -0.8 -0.2 -0.9 -0.05 -1.5 0.05 -1.5 0.1 -1.5 0.2 -1.45 0.25 -1.4 0.25 0.85 0.15 1.2 -0.15 1.2 -0.4 1.2 -0.6 1.15 -0.95 M4.4 -0.9 L4.15 -1.8 4.15 -2.0 3.5 -1.85 3.6 -1.2 3.7 -0.35 4.45 -0.55 4.5 -0.6 4.4 -0.9 M2.95 17.9 L2.9 17.9 2.95 18.05 3.0 18.9 2.7 24.8 2.4 30.0 2.35 30.85 2.5 31.05 3.35 31.3 7.05 31.45 9.6 31.45 9.6 31.35 9.7 31.1 9.75 29.65 9.7 29.15 9.75 28.7 9.4 27.9 9.3 27.8 9.05 27.55 Q8.9 27.55 8.85 27.4 L8.9 27.3 9.05 27.3 9.55 27.55 9.65 27.65 9.65 27.75 10.0 28.55 Q10.4 29.85 10.0 31.3 L10.0 31.35 10.0 31.4 11.2 31.25 12.3 31.1 12.35 31.1 12.35 30.85 12.3 28.3 12.3 28.25 12.3 28.2 12.2 28.0 12.15 27.95 12.15 27.9 12.05 27.75 12.0 27.7 11.5 27.15 11.55 27.05 11.6 27.05 11.65 27.0 12.1 27.3 Q13.1 28.2 12.9 29.7 L12.7 31.0 12.7 31.05 14.15 30.9 Q14.3 29.6 13.9 28.4 L13.8 28.15 Q13.3 26.85 12.1 26.15 11.1 25.55 9.95 25.4 L8.45 25.45 Q7.1 25.65 6.0 26.35 L6.05 26.3 Q6.15 25.75 6.9 25.45 L7.05 25.4 7.1 25.4 7.1 25.2 7.5 20.9 7.65 19.85 7.95 17.7 7.85 17.7 2.95 17.9 M-1.8 19.2 L-1.8 17.75 -1.85 17.8 -7.35 18.1 -7.2 18.8 -6.8 20.8 -6.1 23.6 -5.25 26.5 -5.15 26.75 -5.15 26.8 -5.1 27.05 -5.1 27.1 -5.15 27.15 -5.2 27.15 -5.35 27.15 -5.45 27.05 -5.5 27.0 Q-6.1 26.4 -7.0 26.25 L-7.2 26.2 -8.15 26.05 Q-10.7 25.7 -12.35 27.35 L-12.9 28.0 Q-13.7 29.05 -14.0 30.3 L-14.05 30.4 -14.15 30.85 -14.2 31.05 -13.85 31.05 -13.65 31.1 Q-13.55 30.1 -13.1 29.2 L-12.25 27.85 -12.2 27.85 Q-12.0 28.1 -12.3 28.55 L-12.65 29.15 -12.85 29.55 -13.35 31.15 -12.2 31.35 -11.85 31.4 Q-11.85 30.05 -11.35 28.8 L-11.3 28.6 -11.15 28.5 -11.15 28.45 -10.55 27.85 -10.55 27.95 -10.85 28.6 -10.85 28.65 -11.3 30.0 -11.45 31.55 -11.0 31.55 -1.75 31.2 -1.6 31.2 Q-1.0 31.05 -0.5 30.7 L-0.45 30.65 -1.3 24.85 -1.65 21.9 -1.8 19.2" fill="#000000" fill-rule="evenodd" stroke="none"/>
      <path d="M1.0 -31.55 L1.0 -31.45 0.95 -31.45 Q0.55 -29.45 0.5 -27.5 L0.4 -27.5 -0.3 -26.95 -0.4 -26.65 -0.65 -25.75 -0.6 -25.1 -0.75 -25.1 -0.75 -24.95 -0.8 -25.2 Q-0.65 -26.5 -1.25 -27.55 L-1.3 -27.6 -1.45 -27.65 -1.5 -28.15 -1.9 -31.1 -1.95 -31.25 1.0 -31.55 M-0.55 -24.95 L-0.5 -24.85 -0.55 -24.75 -0.55 -24.95 M2.95 17.9 L7.85 17.7 7.75 18.55 5.55 18.85 3.3 18.7 2.9 27.95 Q2.35 30.4 5.85 30.55 L7.65 30.4 8.95 29.95 9.4 29.0 9.4 27.9 9.75 28.7 9.7 29.15 9.75 29.65 9.7 31.1 9.6 31.35 2.5 31.05 2.35 30.85 2.4 30.0 2.7 24.8 3.0 18.9 2.95 18.05 2.95 17.9 M13.9 28.4 Q14.3 29.6 14.15 30.9 L12.7 31.05 12.7 31.0 12.9 29.7 Q13.1 28.2 12.1 27.3 13.25 28.1 13.75 30.05 L13.9 29.25 13.9 28.4 M11.6 27.05 L11.55 27.05 11.55 27.0 11.6 27.05 M12.0 27.7 L12.05 27.75 12.15 27.9 12.15 27.95 12.2 28.0 12.3 28.2 12.3 28.25 12.3 28.3 12.35 30.85 12.3 31.1 11.2 31.25 10.0 31.35 10.0 31.3 Q10.4 29.85 10.0 28.55 L10.0 28.3 10.65 30.65 Q12.0 30.95 12.3 29.05 12.4 28.4 12.0 27.7 M-1.85 17.8 L-1.8 19.2 -1.65 21.9 -1.3 24.85 -0.45 30.65 -0.5 30.7 Q-1.0 31.05 -1.6 31.2 L-1.75 31.2 -11.0 31.55 -11.45 31.55 -11.3 30.0 Q-10.9 31.45 -7.2 31.1 L-3.3 30.35 -0.8 29.4 -2.25 18.6 -4.75 19.0 -7.2 18.8 -7.35 18.1 -1.85 17.8 M-12.2 31.35 L-13.35 31.15 -12.85 29.55 -12.65 29.15 Q-13.15 30.5 -13.05 30.85 L-12.1 30.8 -12.2 31.35 M-13.85 31.05 L-14.2 31.05 -14.15 30.85 -14.05 30.4 -14.0 30.3 -13.95 30.2 -13.55 29.4 Q-13.6 29.85 -13.2 29.4 L-13.85 31.05 M-7.65 18.0 L-7.6 18.15 -7.65 18.0" fill="#65bcff" fill-rule="evenodd" stroke="none"/>
      <path d="M0.5 -27.5 L0.5 -27.4 -0.4 -26.65 -0.3 -26.95 0.4 -27.5 0.5 -27.5 M-0.6 -25.1 L-0.55 -24.95 -0.55 -24.75 -0.5 -24.85 -0.45 -24.75 -0.55 -24.4 Q-0.55 -23.95 -0.25 -23.95 0.05 -23.95 0.05 -24.4 L0.0 -24.6 0.1 -24.7 Q0.3 -24.35 0.1 -24.0 -0.2 -23.55 -0.5 -23.9 L-0.55 -24.0 -0.55 -23.55 -0.55 -23.25 -0.55 -20.7 -0.1 -20.65 Q0.25 -20.25 0.0 -19.8 -0.25 -19.35 -0.55 -19.7 L-0.55 -15.5 Q-0.35 -15.75 -0.05 -15.4 0.25 -15.05 0.0 -14.55 -0.25 -14.15 -0.55 -14.45 L-0.55 -9.45 -0.05 -9.35 Q0.25 -9.0 0.0 -8.5 -0.25 -8.1 -0.5 -8.35 L-0.45 -3.6 -0.45 -3.5 -0.4 -2.25 -0.65 -2.25 -0.7 -3.5 -0.7 -3.6 Q-1.0 -9.9 -0.75 -23.4 L-0.75 -23.7 -0.75 -24.95 -0.75 -25.1 -0.6 -25.1 M1.95 -26.35 L1.95 -26.4 Q1.95 -26.4 2.05 -26.35 L1.95 -26.35 M7.65 -20.95 Q7.0 -20.35 6.25 -20.0 L6.45 -20.1 7.65 -20.95 M3.85 -21.65 L4.1 -21.0 4.1 -20.9 3.75 -21.55 3.35 -22.4 3.35 -22.45 3.2 -22.75 3.2 -22.7 3.1 -22.9 3.2 -22.75 3.85 -21.65 M4.25 -20.55 L4.35 -20.3 4.4 -20.15 4.25 -20.45 4.25 -20.55 M4.4 -20.1 L4.85 -18.5 4.95 -17.55 5.15 -15.45 4.85 -17.75 4.65 -19.35 4.5 -19.8 4.5 -19.85 4.4 -20.1 M5.3 -14.15 L5.35 -14.0 5.35 -13.45 5.3 -14.15 M6.15 -3.9 L6.3 -3.5 Q4.1 -2.15 1.5 -1.95 L1.3 -2.0 Q3.8 -2.25 6.2 -3.5 L6.15 -3.7 6.15 -3.75 6.15 -3.9 M-2.05 -2.1 L-2.3 -1.95 -4.35 -2.5 -4.4 -2.6 -4.45 -2.55 -6.2 -3.2 -6.15 -7.75 -5.85 -13.05 -5.85 -13.15 -5.25 -17.95 -5.25 -18.0 -5.05 -19.15 -5.05 -19.2 -5.05 -19.3 -4.45 -21.2 -4.75 -20.25 -4.95 -19.15 Q-5.5 -16.9 -5.85 -11.15 L-6.15 -3.5 -6.15 -3.35 -5.25 -2.95 Q-3.65 -2.35 -2.05 -2.1 M-4.2 -21.9 L-4.55 -21.35 -4.05 -22.35 -3.75 -22.95 -4.1 -22.1 -4.05 -22.35 -4.2 -21.9 M-5.35 -19.4 L-5.75 -19.4 -5.35 -19.4 M-8.85 -20.85 L-8.9 -20.9 -8.1 -22.15 -8.85 -20.85 M-3.6 -26.2 L-3.25 -26.45 -3.1 -26.35 -3.6 -26.2 M-8.4 -20.0 L-9.2 -20.65 -9.15 -20.75 -9.0 -20.7 -8.4 -20.0 M0.95 -27.2 L1.2 -27.15 1.4 -26.95 1.5 -26.8 0.95 -27.2 M1.65 -26.55 L-0.2 -25.0 -0.25 -25.35 -0.25 -25.4 -0.05 -25.1 Q0.65 -26.0 1.65 -26.55 M-1.2 -26.85 L-1.55 -27.1 -1.7 -27.25 -1.75 -27.3 -2.3 -27.15 -1.85 -27.35 Q-1.35 -27.35 -1.2 -26.85 M-2.7 -26.95 L-2.95 -26.65 -3.05 -26.7 -3.0 -26.7 -2.7 -26.95 M-0.35 -14.5 Q-0.05 -14.5 -0.05 -15.0 -0.05 -15.45 -0.35 -15.45 -0.65 -15.45 -0.6 -15.0 -0.65 -14.5 -0.35 -14.5 M-0.35 -19.75 Q-0.05 -19.75 -0.05 -20.2 -0.05 -20.7 -0.35 -20.7 -0.65 -20.7 -0.6 -20.2 -0.65 -19.75 -0.35 -19.75 M-0.35 -8.45 Q-0.05 -8.45 -0.05 -8.9 -0.05 -9.4 -0.35 -9.4 -0.65 -9.4 -0.6 -8.9 -0.65 -8.45 -0.35 -8.45" fill="#f36a12" fill-rule="evenodd" stroke="none"/>
      <path d="M-0.45 -24.75 L-0.2 -24.45 -0.15 -24.45 0.0 -24.6 0.05 -24.4 Q0.05 -23.95 -0.25 -23.95 -0.55 -23.95 -0.55 -24.4 L-0.45 -24.75 M1.5 -26.8 L1.65 -26.55 Q0.65 -26.0 -0.05 -25.1 L-0.25 -25.4 Q-0.35 -26.2 0.1 -26.8 L0.15 -26.85 0.9 -27.2 0.95 -27.2 1.5 -26.8 M-1.2 -26.85 L-1.2 -26.7 -1.2 -25.2 -1.4 -25.35 -2.95 -26.65 -2.7 -26.95 -2.3 -27.15 -1.75 -27.3 -1.7 -27.25 -1.55 -27.1 -1.2 -26.85 M-0.35 -19.75 Q-0.65 -19.75 -0.6 -20.2 -0.65 -20.7 -0.35 -20.7 -0.05 -20.7 -0.05 -20.2 -0.05 -19.75 -0.35 -19.75 M-0.35 -14.5 Q-0.65 -14.5 -0.6 -15.0 -0.65 -15.45 -0.35 -15.45 -0.05 -15.45 -0.05 -15.0 -0.05 -14.5 -0.35 -14.5 M-0.35 -8.45 Q-0.65 -8.45 -0.6 -8.9 -0.65 -9.4 -0.35 -9.4 -0.05 -9.4 -0.05 -8.9 -0.05 -8.45 -0.35 -8.45" fill="#ff672d" fill-rule="evenodd" stroke="none"/>
      <path d="M0.1 -24.7 L1.95 -26.35 2.05 -26.35 3.75 -25.85 4.95 -25.2 5.0 -25.15 5.05 -25.1 5.15 -25.0 5.45 -24.75 8.55 -22.05 8.55 -22.0 8.25 -21.75 7.65 -20.95 6.45 -20.1 6.25 -20.0 Q5.4 -19.5 4.95 -19.55 L4.9 -19.7 4.8 -19.85 4.8 -19.9 3.9 -21.6 3.9 -21.65 3.85 -21.75 3.8 -21.75 3.85 -21.65 3.2 -22.75 3.1 -22.9 3.2 -22.7 Q4.4 -18.3 5.05 -12.8 5.6 -7.55 5.4 -3.7 L5.35 -3.1 Q5.6 -3.15 6.15 -3.5 L6.15 -3.7 6.15 -3.75 6.1 -4.0 6.15 -3.9 6.15 -3.75 6.15 -3.7 6.2 -3.5 Q3.8 -2.25 1.3 -2.0 L-0.4 -2.25 -0.45 -3.5 -0.45 -3.6 -0.5 -8.35 Q-0.25 -8.1 0.0 -8.5 0.25 -9.0 -0.05 -9.35 L-0.55 -9.45 -0.55 -14.45 Q-0.25 -14.15 0.0 -14.55 0.25 -15.05 -0.05 -15.4 -0.35 -15.75 -0.55 -15.5 L-0.55 -19.7 Q-0.25 -19.35 0.0 -19.8 0.25 -20.25 -0.1 -20.65 L-0.55 -20.7 -0.55 -23.25 -0.55 -23.55 -0.55 -24.0 -0.5 -23.9 Q-0.2 -23.55 0.1 -24.0 0.3 -24.35 0.1 -24.7 M4.4 -20.15 L4.4 -20.1 4.5 -19.85 4.5 -19.8 4.25 -20.45 4.4 -20.15 M5.15 -15.45 L5.2 -14.65 5.3 -14.15 5.35 -13.45 5.35 -12.9 5.35 -12.75 4.85 -17.75 5.15 -15.45 M-0.65 -2.25 L-1.45 -2.25 -2.05 -2.1 Q-3.65 -2.35 -5.25 -2.95 L-5.3 -3.4 -5.3 -3.55 Q-5.8 -11.2 -4.15 -21.8 L-4.15 -21.9 -4.1 -22.1 -3.75 -22.95 -4.05 -22.35 -4.55 -21.35 -4.9 -20.6 -5.35 -19.4 -5.75 -19.4 Q-7.65 -19.5 -8.85 -20.85 L-8.1 -22.15 -6.1 -24.85 -5.9 -25.05 -5.85 -25.1 -4.75 -25.75 -4.55 -25.85 -3.6 -26.2 -3.1 -26.35 -1.25 -24.65 -1.15 -24.65 -1.0 -24.65 -0.9 -24.8 -0.8 -25.2 -0.75 -24.95 -0.75 -23.7 -0.75 -23.4 Q-1.0 -9.9 -0.7 -3.6 L-0.7 -3.5 -0.65 -2.25 M-4.75 -20.25 L-4.45 -21.2 -4.45 -21.1 -4.75 -20.25" fill="#ffa12c" fill-rule="evenodd" stroke="none"/>
      <path d="M4.1 -20.9 L4.15 -20.8 4.2 -20.7 4.25 -20.55 4.25 -20.45 4.5 -19.8 4.65 -19.35 4.85 -17.75 5.35 -12.75 5.85 -7.05 5.95 -5.1 6.1 -4.0 6.15 -3.75 6.15 -3.7 6.15 -3.5 Q5.6 -3.15 5.35 -3.1 L5.4 -3.7 Q5.6 -7.55 5.05 -12.8 4.4 -18.3 3.2 -22.7 L3.2 -22.75 3.35 -22.45 3.35 -22.4 3.75 -21.55 4.1 -20.9 M-4.45 -21.2 L-4.15 -21.8 Q-5.8 -11.2 -5.3 -3.55 L-5.3 -3.4 -5.25 -2.95 -6.15 -3.35 -6.15 -3.5 -5.85 -11.15 Q-5.5 -16.9 -4.95 -19.15 L-4.75 -20.25 -4.45 -21.1 -4.45 -21.2 M-4.15 -21.9 L-4.2 -21.95 -4.2 -21.9 -4.05 -22.35 -4.1 -22.1 -4.15 -21.9" fill="#fd8426" fill-rule="evenodd" stroke="none"/>
      <path d="M-3.7 -1.95 L-3.75 -1.9 -3.8 -0.25 -4.65 -0.45 -4.35 -1.45 -4.25 -2.1 -3.7 -1.95 M-8.75 16.05 L-8.85 13.4 -8.5 7.45 Q-8.2 4.5 -7.35 1.7 L-6.9 0.3 Q-6.65 -0.35 -6.8 -0.85 -4.75 0.05 -2.45 0.35 L-2.45 0.4 -2.45 0.5 -2.4 0.55 -2.4 0.6 -2.3 0.8 -2.1 0.95 1.4 1.15 1.7 1.0 2.05 0.35 4.7 -0.15 4.95 -0.25 6.75 -0.9 7.55 1.35 7.9 2.65 9.1 8.45 9.4 11.35 9.7 15.4 Q8.4 16.15 5.85 16.45 L3.35 16.5 2.75 15.7 Q1.9 14.45 1.9 13.3 1.9 12.25 2.3 11.6 2.6 11.05 3.55 10.35 L3.05 10.4 1.35 10.55 -3.1 10.3 -1.65 11.6 Q-1.35 12.15 -1.35 13.55 -1.35 14.4 -2.2 16.35 L-4.55 16.6 Q-7.5 16.7 -8.75 16.05 M9.75 15.75 L9.85 16.7 6.4 17.55 5.45 17.6 4.25 17.6 3.55 16.75 5.55 16.75 Q8.2 16.5 9.75 15.75 M-2.7 17.5 Q-5.35 18.05 -7.95 17.5 L-8.6 17.3 -8.65 17.25 -8.75 16.35 Q-7.6 17.0 -5.3 16.95 L-2.3 16.6 -2.7 17.5 M6.25 -3.05 L6.35 -3.15 6.4 -2.8 6.55 -1.95 6.65 -1.35 6.45 -1.25 6.25 -3.05 M4.45 -0.55 L3.7 -0.35 3.6 -1.2 3.5 -1.85 4.15 -2.0 4.15 -1.8 4.4 -0.9 4.45 -0.55" fill="#993f00" fill-rule="evenodd" stroke="none"/>
      <path d="M-2.8 -0.75 L-2.8 -0.7 -2.85 -0.75 -2.8 -0.75 M-1.6 -0.7 L-2.65 -0.8 -2.55 -0.85 -2.4 -0.8 -2.4 -0.85 -2.3 -0.85 -2.3 -0.8 -2.05 -0.8 -1.9 -0.75 -1.6 -0.7 M1.6 0.65 Q2.0 -0.3 1.7 -1.25 L1.85 -0.55 1.8 0.15 1.8 0.25 1.7 0.5 1.6 0.65 M-2.15 -1.55 L-2.25 -1.3 -2.25 -1.35 -2.25 -1.4 -2.25 -1.5 -2.15 -1.55" fill="#4d0000" fill-rule="evenodd" stroke="none"/>
      <path d="M-3.0 -1.05 L-3.05 -1.0 -3.1 -0.95 -3.1 -0.9 -3.15 -0.85 -3.15 -0.7 -3.15 -0.55 -2.5 -0.15 -2.5 0.05 -3.5 -0.15 -3.35 -1.05 Q-3.3 -1.55 -3.4 -1.85 L-2.5 -1.7 -2.55 -1.6 -2.6 -1.15 -2.85 -1.15 -3.0 -1.05 M-2.55 -0.85 L-2.5 -0.85 -2.4 -0.85 -2.4 -0.8 -2.55 -0.85 M-4.6 -2.2 L-4.9 -0.55 -6.65 -1.15 -6.25 -2.25 -6.15 -2.95 -4.6 -2.2 M-8.75 16.05 Q-7.5 16.7 -4.55 16.6 L-2.2 16.35 -1.0 15.95 -1.05 16.25 -2.3 16.6 -5.3 16.95 Q-7.6 17.0 -8.75 16.35 L-8.75 16.05 M3.35 16.5 L5.85 16.45 Q8.4 16.15 9.7 15.4 L9.75 15.75 Q8.2 16.5 5.55 16.75 L3.55 16.75 Q2.1 16.65 1.35 16.15 L1.35 15.9 Q2.1 16.4 3.35 16.5 M6.25 -3.05 L6.45 -1.25 4.9 -0.7 4.45 -2.1 4.75 -2.2 Q5.6 -2.5 6.25 -3.05 M1.95 -1.7 L3.25 -1.8 Q3.1 -1.05 3.4 -0.25 L2.15 0.1 Q2.35 -0.75 1.95 -1.7 M1.3 -1.25 L1.3 -1.2 -1.4 -1.5 -1.65 -1.4 -1.75 -1.3 -1.85 -1.15 -1.75 -1.45 Q-0.3 -1.7 1.25 -1.45 L1.3 -1.25 M1.3 0.25 L1.25 0.45 0.85 0.55 0.75 0.6 0.9 0.5 1.3 0.25 M1.15 -0.95 L1.2 -0.6 1.2 -0.4 1.2 -0.15 0.85 0.15 -1.4 0.25 -1.45 0.25 -1.5 0.2 -1.5 0.1 -1.5 0.05 -0.9 -0.05 -0.8 -0.2 -0.9 -0.55 -0.95 -0.75 -1.05 -0.8 -1.55 -1.05 -1.5 -1.1 -1.4 -1.15 1.15 -0.95 M4.45 -0.55 L4.4 -0.9 4.5 -0.6 4.45 -0.55" fill="#550400" fill-rule="evenodd" stroke="none"/>
      <path d="M-2.8 -0.7 L-2.8 -0.75 -2.65 -0.8 -1.6 -0.7 -1.45 -0.65 -1.35 -0.55 -1.2 -0.4 -2.4 -0.5 -2.45 -0.5 -2.8 -0.7 M-2.3 -0.85 L-2.05 -0.8 -2.3 -0.8 -2.3 -0.85 M1.45 -1.7 L1.3 -1.25 1.25 -1.45 Q-0.3 -1.7 -1.75 -1.45 L-1.85 -1.15 -2.25 -1.2 -2.25 -1.3 -2.15 -1.55 1.45 -1.7 M0.85 0.55 L0.45 0.9 -1.85 0.8 -2.15 0.2 -2.2 -0.05 -1.85 0.0 -1.9 0.1 -1.85 0.2 -1.85 0.25 -1.8 0.4 -1.8 0.45 -1.55 0.55 0.05 0.7 0.75 0.6 0.85 0.55" fill="#e6b300" fill-rule="evenodd" stroke="none"/>
      <path d="M-2.45 -0.5 L-2.4 -0.5 -1.2 -0.4 -1.15 -0.35 -2.45 -0.5 M1.45 -1.7 L1.55 -1.65 1.7 -1.25 Q2.0 -0.3 1.6 0.65 L1.55 0.65 0.45 0.9 0.85 0.55 1.25 0.45 1.3 0.25 Q1.9 -0.3 1.45 -1.2 L1.4 -1.2 1.3 -1.2 1.3 -1.25 1.45 -1.7" fill="#fc7931" fill-rule="evenodd" stroke="none"/>
      <path d="M-2.2 16.35 Q-1.35 14.4 -1.35 13.55 -1.35 12.15 -1.65 11.6 L-3.1 10.3 1.35 10.55 3.05 10.4 3.55 10.35 Q2.6 11.05 2.3 11.6 1.9 12.25 1.9 13.3 1.9 14.45 2.75 15.7 L3.35 16.5 Q2.1 16.4 1.35 15.9 L1.35 16.15 Q2.1 16.65 3.55 16.75 L4.25 17.6 Q2.8 17.5 1.5 17.0 L1.35 16.15 0.9 13.25 0.6 11.15 0.55 11.15 0.5 11.0 -0.25 11.0 -0.85 15.0 -1.0 15.95 -2.2 16.35 M-1.05 16.25 L-1.2 17.0 -1.15 17.05 -2.45 17.4 -2.75 17.5 -2.7 17.5 -2.3 16.6 -1.05 16.25" fill="#822800" fill-rule="evenodd" stroke="none"/>
      <path d="M7.5 20.9 L7.1 25.2 7.05 25.4 6.9 25.45 Q6.15 25.75 6.05 26.3 L5.9 26.4 6.0 26.35 7.4 25.8 9.95 25.4 Q11.1 25.55 12.1 26.15 13.3 26.85 13.8 28.15 L13.9 28.4 13.9 29.25 13.75 30.05 Q13.25 28.1 12.1 27.3 L11.65 27.0 11.6 27.05 11.55 27.0 11.55 27.05 11.5 27.15 12.0 27.7 Q12.4 28.4 12.3 29.05 12.0 30.95 10.65 30.65 L10.0 28.3 9.65 27.75 9.65 27.65 9.55 27.55 9.05 27.3 8.9 27.3 8.85 27.4 Q8.9 27.55 9.05 27.55 L9.3 27.8 9.4 27.9 9.4 29.0 8.95 29.95 7.65 30.4 5.85 30.55 Q2.35 30.4 2.9 27.95 L3.3 18.7 5.55 18.85 7.75 18.55 7.5 20.9 M-11.3 30.0 L-10.85 28.65 -10.85 28.6 -10.55 27.95 -10.55 27.85 -11.15 28.45 -11.15 28.5 -11.3 28.6 -11.35 28.8 -11.7 29.6 -12.1 30.8 -13.05 30.85 Q-13.15 30.5 -12.65 29.15 L-12.3 28.55 Q-12.0 28.1 -12.2 27.85 L-12.25 27.85 -13.1 29.2 -13.2 29.4 Q-13.6 29.85 -13.55 29.4 L-13.95 30.2 Q-13.25 28.4 -12.35 27.35 -10.7 25.7 -8.15 26.05 L-7.2 26.2 -7.0 26.25 Q-6.0 26.65 -4.95 27.55 L-5.1 27.05 -5.15 26.8 -5.15 26.75 -5.25 26.5 -6.8 20.8 -7.2 18.8 -4.75 19.0 -2.25 18.6 -0.8 29.4 -3.3 30.35 -7.2 31.1 Q-10.9 31.45 -11.3 30.0 M-10.55 27.95 L-10.5 27.9 -10.55 27.95" fill="#7ed8ff" fill-rule="evenodd" stroke="none"/>
    </g>
  </defs>
</svg>
