<?xml version="1.0" encoding="UTF-8" standalone="no"?>
<svg xmlns:xlink="http://www.w3.org/1999/xlink" height="30.7px" width="30.7px" xmlns="http://www.w3.org/2000/svg">
  <g transform="matrix(1.0, 0.0, 0.0, 1.0, 0.5, 0.5)">
    <use height="30.7" transform="matrix(1.0, 0.0, 0.0, 1.0, -0.5, -0.5)" width="30.7" xlink:href="#shape0"/>
  </g>
  <defs>
    <g id="shape0" transform="matrix(1.0, 0.0, 0.0, 1.0, 0.5, 0.5)">
      <path d="M29.7 14.85 Q29.7 21.0 25.35 25.35 21.0 29.7 14.85 29.7 8.7 29.7 4.35 25.35 0.0 21.0 0.0 14.85 0.0 8.7 4.35 4.35 8.7 0.0 14.85 0.0 21.0 0.0 25.35 4.35 29.7 8.7 29.7 14.85" fill="url(#gradient0)" fill-rule="evenodd" stroke="none"/>
      <path d="M29.7 14.85 Q29.7 21.0 25.35 25.35 21.0 29.7 14.85 29.7 8.7 29.7 4.35 25.35 0.0 21.0 0.0 14.85 0.0 8.7 4.35 4.35 8.7 0.0 14.85 0.0 21.0 0.0 25.35 4.35 29.7 8.7 29.7 14.85 Z" fill="none" stroke="#475581" stroke-linecap="round" stroke-linejoin="round" stroke-width="1.0"/>
      <path d="M17.6 7.2 L19.75 9.1 Q22.6 11.85 22.6 13.8 22.6 16.2 19.2 19.0 L18.05 17.8 Q20.6 15.55 20.6 14.05 20.6 13.35 19.65 12.25 L18.15 10.9 16.65 10.05 16.65 20.4 Q16.65 22.85 15.4 24.2 14.1 25.65 11.7 25.65 10.5 25.65 9.75 24.8 9.0 23.9 9.0 22.7 9.0 21.2 10.25 20.05 11.45 18.95 12.95 18.95 L14.6 19.2 14.6 4.75 16.2 4.75 Q16.5 6.0 17.6 7.2" fill="#ffffff" fill-rule="evenodd" stroke="none"/>
    </g>
    <radialGradient cx="0" cy="0" gradientTransform="matrix(0.0348, 0.0, 0.0, 0.0348, 7.35, 8.45)" gradientUnits="userSpaceOnUse" id="gradient0" r="819.2" spreadMethod="pad">
      <stop offset="0.0" stop-color="#ffffff"/>
      <stop offset="0.08235294117647059" stop-color="#cedaff"/>
      <stop offset="0.2901960784313726" stop-color="#6d99fe"/>
      <stop offset="0.6078431372549019" stop-color="#035cef"/>
      <stop offset="0.8156862745098039" stop-color="#68e0fd"/>
    </radialGradient>
  </defs>
</svg>
