<?xml version="1.0" encoding="UTF-8" standalone="no"?>
<svg xmlns:xlink="http://www.w3.org/1999/xlink" height="27.65px" width="9.25px" xmlns="http://www.w3.org/2000/svg">
  <g transform="matrix(1.0, 0.0, 0.0, 1.0, 4.6, 13.8)">
    <use height="27.65" transform="matrix(1.0, 0.0, 0.0, 1.0, -4.6, -13.8)" width="9.25" xlink:href="#shape0"/>
  </g>
  <defs>
    <g id="shape0" transform="matrix(1.0, 0.0, 0.0, 1.0, 4.6, 13.8)">
      <path d="M-2.2 -11.8 L-1.4 -12.8 -1.2 -12.95 -0.2 -13.65 0.3 -13.8 0.8 -13.75 0.95 -13.65 1.15 -13.55 1.25 -13.5 1.5 -13.1 1.55 -13.0 1.55 -12.1 1.55 -11.95 1.45 -11.75 1.4 -11.6 1.15 -11.1 1.1 -10.95 0.95 -11.0 0.2 -9.85 Q-0.3 -8.05 -0.25 -6.15 -0.25 -3.15 0.6 -0.3 L1.3 1.1 1.35 1.05 1.5 0.95 1.65 0.95 2.35 2.75 3.0 4.85 Q3.85 7.15 4.25 9.5 4.4 10.55 3.95 11.4 L3.3 12.3 2.85 11.85 Q1.15 10.15 1.1 7.7 L1.1 7.65 1.0 7.4 0.95 7.45 Q0.65 8.5 1.05 9.65 L1.05 9.7 1.1 9.7 1.1 9.75 1.55 11.0 1.55 11.05 1.7 11.3 3.05 12.6 Q1.85 13.55 0.0 13.4 L-0.2 13.4 Q-2.15 11.3 -2.1 8.45 L-2.05 8.4 -2.05 8.3 -2.15 7.85 -2.4 8.4 Q-2.55 11.1 -0.95 13.1 L-2.0 12.75 Q-3.05 12.1 -3.55 10.85 -4.65 8.05 -3.9 5.1 L-3.65 4.35 -2.5 1.15 -2.4 1.05 -2.4 0.9 -2.4 0.85 -2.4 0.75 -2.45 0.7 -2.5 0.6 -2.6 0.35 Q-3.9 -2.35 -4.0 -5.35 -4.05 -7.25 -3.4 -8.95 L-2.1 -11.7 -2.15 -11.75 -2.2 -11.8" fill="#40e49f" fill-rule="evenodd" stroke="none"/>
      <path d="M1.1 -10.95 L1.1 -10.9 1.15 -10.85 1.0 -10.4 Q-0.1 -7.95 0.1 -5.2 0.3 -2.45 1.2 0.1 2.55 0.9 2.75 2.65 L3.0 3.7 Q4.0 6.5 4.55 9.4 4.95 11.35 3.55 12.6 L3.55 12.65 3.45 12.7 Q1.8 14.1 -0.45 13.8 -1.25 13.65 -1.75 13.3 -3.25 12.7 -3.9 11.05 -5.05 8.25 -4.35 5.25 L-2.95 1.0 -2.85 0.8 Q-4.05 -1.65 -4.3 -4.45 -4.6 -7.5 -3.3 -10.25 L-2.5 -11.5 -2.25 -11.8 -2.2 -11.8 -2.15 -11.75 -2.1 -11.7 -3.4 -8.95 Q-4.05 -7.25 -4.0 -5.35 -3.9 -2.35 -2.6 0.35 L-2.5 0.6 -2.45 0.7 -2.4 0.75 -2.4 0.85 -2.4 0.9 -2.4 1.05 -2.5 1.15 -3.65 4.35 -3.9 5.1 Q-4.65 8.05 -3.55 10.85 -3.05 12.1 -2.0 12.75 L-0.95 13.1 Q-2.55 11.1 -2.4 8.4 L-2.15 7.85 -2.05 8.3 -2.05 8.4 -2.1 8.45 Q-2.15 11.3 -0.2 13.4 L0.0 13.4 Q1.85 13.55 3.05 12.6 L1.7 11.3 1.55 11.05 1.55 11.0 1.1 9.75 1.1 9.7 1.05 9.7 1.05 9.65 Q0.65 8.5 0.95 7.45 L1.0 7.4 1.1 7.65 1.1 7.7 Q1.15 10.15 2.85 11.85 L3.3 12.3 3.95 11.4 Q4.4 10.55 4.25 9.5 3.85 7.15 3.0 4.85 L2.35 2.75 1.65 0.95 1.35 0.5 1.35 0.6 1.4 0.7 1.45 0.85 1.5 0.95 1.35 1.05 1.3 1.1 0.6 -0.3 Q-0.25 -3.15 -0.25 -6.15 -0.3 -8.05 0.2 -9.85 L0.95 -11.0 1.1 -10.95" fill="#000000" fill-rule="evenodd" stroke="none"/>
    </g>
  </defs>
</svg>
