<?xml version="1.0" encoding="UTF-8" standalone="no"?>
<svg xmlns:xlink="http://www.w3.org/1999/xlink" height="62.85px" width="72.4px" xmlns="http://www.w3.org/2000/svg">
  <g transform="matrix(1.0, 0.0, 0.0, 1.0, 36.0, 39.3)">
    <use height="57.65" transform="matrix(0.9966, -0.0792, 0.0792, 0.9966, -35.9936, -33.9156)" width="68.05" xlink:href="#sprite0"/>
  </g>
  <defs>
    <g id="sprite0" transform="matrix(1.0, 0.0, 0.0, 1.0, 33.9, 29.15)">
      <use height="57.65" transform="matrix(1.0, 0.0, 0.0, 1.0, -33.9, -29.15)" width="68.05" xlink:href="#shape0"/>
    </g>
    <g id="shape0" transform="matrix(1.0, 0.0, 0.0, 1.0, 33.9, 29.15)">
      <path d="M-22.05 21.5 L-21.1 22.05 Q-20.7 22.05 -20.7 21.7 L-20.75 21.55 Q-25.3 18.15 -28.85 13.7 L-28.85 13.6 -28.9 13.3 Q-32.55 7.8 -32.75 1.15 L-32.85 0.9 -32.8 0.7 -32.9 -1.05 -32.85 -1.15 -32.8 -1.3 -32.8 -1.8 -32.75 -2.2 -32.55 -5.05 -32.45 -5.2 -32.35 -5.5 -32.35 -5.6 -32.4 -5.8 -32.05 -6.8 -30.9 -10.7 -30.55 -11.1 -29.7 -12.95 -29.5 -13.2 -28.9 -14.2 -28.75 -14.25 -28.5 -14.5 -28.3 -14.7 -27.45 -16.05 -27.05 -16.25 -27.0 -16.35 -26.5 -17.1 -26.35 -17.15 -22.85 -20.4 Q-21.6 -21.05 -20.4 -22.05 -19.1 -23.15 -17.6 -23.85 L-17.5 -23.95 -17.4 -24.1 -17.3 -24.2 -15.1 -25.1 -13.15 -25.7 -7.3 -27.35 Q4.05 -29.7 14.8 -25.0 L19.15 -22.9 Q24.45 -20.1 27.7 -15.3 L27.9 -15.2 28.15 -15.2 Q28.55 -14.35 29.1 -13.55 33.35 -7.2 32.9 0.15 L33.1 0.35 Q32.75 4.2 31.4 7.9 L31.3 8.05 Q29.55 13.2 25.8 17.05 L25.75 17.1 Q24.75 18.65 23.15 19.65 L23.05 19.8 Q22.7 20.05 22.8 20.35 L23.7 20.25 Q13.85 28.5 0.0 28.5 -12.75 28.5 -22.05 21.5 M30.8 11.75 L32.0 8.75 32.2 8.65 30.8 11.75" fill="url(#gradient0)" fill-rule="evenodd" stroke="none"/>
      <path d="M23.7 20.25 L22.8 20.35 Q22.7 20.05 23.05 19.8 L23.15 19.65 Q24.75 18.65 25.75 17.1 L25.8 17.05 Q29.55 13.2 31.3 8.05 L31.4 7.9 Q32.75 4.2 33.1 0.35 L32.9 0.15 Q33.35 -7.2 29.1 -13.55 28.55 -14.35 28.15 -15.2 L27.9 -15.2 27.7 -15.3 Q24.45 -20.1 19.15 -22.9 L14.8 -25.0 Q4.05 -29.7 -7.3 -27.35 L-13.15 -25.7 -15.1 -25.1 -17.3 -24.2 -17.4 -24.1 -17.5 -23.95 -17.6 -23.85 Q-19.1 -23.15 -20.4 -22.05 -21.6 -21.05 -22.85 -20.4 L-26.35 -17.15 -26.5 -17.1 -27.0 -16.35 -27.05 -16.25 -27.45 -16.05 -28.3 -14.7 -28.5 -14.5 -28.75 -14.25 -28.9 -14.2 -29.5 -13.2 -29.7 -12.95 -30.55 -11.1 -30.9 -10.7 -32.05 -6.8 -32.4 -5.8 -32.35 -5.6 -32.35 -5.5 -32.45 -5.2 -32.55 -5.05 -32.75 -2.2 -32.8 -1.8 -32.8 -1.3 -32.85 -1.15 -32.9 -1.05 -32.8 0.7 -32.85 0.9 -32.75 1.15 Q-32.55 7.8 -28.9 13.3 L-28.85 13.6 -28.85 13.7 Q-25.3 18.15 -20.75 21.55 L-20.7 21.7 Q-20.7 22.05 -21.1 22.05 L-22.05 21.5 Q-23.65 20.5 -25.05 19.15 -26.75 18.1 -27.85 16.25 -33.85 9.25 -33.9 0.0 L-33.75 -1.65 -33.65 -2.6 -33.65 -2.9 -33.6 -3.1 -33.55 -3.2 -33.3 -5.35 -33.3 -5.8 -31.45 -11.4 -30.8 -12.5 -30.8 -12.7 -30.75 -12.8 -30.65 -12.95 -30.55 -13.05 Q-27.45 -18.6 -22.05 -21.85 L-17.75 -24.65 Q-14.15 -26.55 -10.1 -27.7 0.0 -30.5 10.15 -27.95 17.9 -25.4 24.3 -20.4 L26.8 -18.35 26.9 -18.3 27.1 -18.2 27.25 -17.9 Q27.25 -18.1 27.5 -18.0 L27.8 -17.45 27.85 -17.35 Q31.6 -12.55 33.3 -6.75 L33.3 -6.55 Q33.9 -4.5 33.95 -2.4 L34.0 -2.3 Q33.95 -1.95 34.05 -1.65 L34.15 -1.45 34.05 -0.45 34.0 -0.2 34.1 0.05 34.1 0.15 33.8 2.9 33.7 3.25 32.45 8.2 32.2 8.65 32.0 8.75 30.8 11.75 Q28.35 16.75 23.75 20.2 L23.7 20.25" fill="#000000" fill-rule="evenodd" stroke="none"/>
    </g>
    <radialGradient cx="0" cy="0" gradientTransform="matrix(0.0435, 0.0, 0.0, 0.0435, 1.35, -6.55)" gradientUnits="userSpaceOnUse" id="gradient0" r="819.2" spreadMethod="pad">
      <stop offset="0.0" stop-color="#54b4cc"/>
      <stop offset="0.7176470588235294" stop-color="#54b4cc"/>
      <stop offset="1.0" stop-color="#3e8699"/>
    </radialGradient>
  </defs>
</svg>
