<?xml version="1.0" encoding="UTF-8" standalone="no"?>
<svg xmlns:xlink="http://www.w3.org/1999/xlink" height="66.1px" width="185.4px" xmlns="http://www.w3.org/2000/svg">
  <g transform="matrix(1.0, 0.0, 0.0, 1.0, -1.5, 6.45)">
    <use height="46.7" transform="matrix(1.0, 0.0, 0.0, 1.0, 1.5, 12.95)" width="185.4" xlink:href="#shape0"/>
    <use height="59.75" transform="matrix(1.0, 0.0, 0.0, 1.0, 3.45, -6.45)" width="56.7" xlink:href="#shape1"/>
    <use height="22.1" transform="matrix(1.0, 0.0, 0.0, 1.0, 57.45, 26.35)" width="112.55" xlink:href="#sprite0"/>
  </g>
  <defs>
    <g id="shape0" transform="matrix(1.0, 0.0, 0.0, 1.0, -1.5, -12.95)">
      <path d="M184.55 19.85 Q182.65 17.95 180.15 17.6 L178.9 17.5 128.55 17.5 15.3 17.5 Q12.0 17.5 9.65 19.85 7.3 22.2 7.3 25.5 L7.3 35.1 8.25 35.15 7.3 35.15 7.3 58.7 7.3 59.65 128.55 59.65 186.9 59.65 186.9 58.7 186.9 35.15 185.95 35.15 186.9 35.1 186.9 25.5 Q186.9 22.2 184.55 19.85" fill="#000000" fill-opacity="0.3019608" fill-rule="evenodd" stroke="none"/>
      <path d="M182.9 22.5 L182.9 32.1 181.95 32.15 182.9 32.15 182.9 55.7 182.9 56.65 128.55 56.65 3.3 56.65 3.3 55.7 3.3 32.15 4.25 32.15 3.3 32.1 3.3 22.5 Q3.3 19.2 5.65 16.85 8.0 14.5 11.3 14.5 L128.55 14.5 174.9 14.5 176.15 14.6 Q178.65 14.95 180.55 16.85 182.9 19.2 182.9 22.5 M128.55 56.65 L128.55 14.5 128.55 56.65" fill="#ffffff" fill-rule="evenodd" stroke="none"/>
      <path d="M179.5 17.9 Q177.95 16.35 175.95 16.1 L175.85 16.1 174.6 15.95 128.55 15.95 11.0 15.95 Q8.3 15.95 6.4 17.85 4.5 19.75 4.5 22.45 L4.5 32.1 1.5 32.1 1.5 22.45 Q1.5 18.55 4.3 15.75 7.1 12.95 11.0 12.95 L128.55 12.95 174.6 12.95 176.45 13.15 176.35 13.15 Q179.35 13.55 181.6 15.8 184.4 18.6 184.4 22.5 L184.4 32.1 181.4 32.1 181.4 22.5 Q181.4 19.8 179.5 17.9 M184.4 32.15 L184.4 55.7 184.4 56.65 181.4 56.65 181.4 55.7 181.4 32.15 184.4 32.15 M128.55 15.95 L128.55 12.95 128.55 15.95 M4.5 32.15 L4.5 55.55 4.55 56.65 1.5 56.65 1.5 55.55 1.5 32.15 4.5 32.15" fill="#fd360b" fill-rule="evenodd" stroke="none"/>
    </g>
    <g id="shape1" transform="matrix(1.0, 0.0, 0.0, 1.0, -3.45, 6.45)">
      <path d="M29.75 -4.15 Q33.15 -5.9 35.6 -3.15 35.9 -4.0 37.65 -3.85 39.0 -3.7 39.35 -2.8 41.4 -4.85 46.55 -3.15 51.7 -1.4 53.75 2.7 58.55 4.05 58.55 7.15 58.55 10.25 54.1 11.3 L46.9 29.45 Q35.9 32.55 28.35 33.9 L8.8 37.35 Q11.2 31.2 10.2 27.4 9.15 23.65 5.05 20.85 13.95 12.65 16.7 10.95 19.45 9.2 29.05 0.65 26.3 -2.45 29.75 -4.15" fill="#c4b47c" fill-rule="evenodd" stroke="none"/>
      <path d="M29.75 -4.15 Q26.3 -2.45 29.05 0.65 19.45 9.2 16.7 10.95 13.95 12.65 5.05 20.85 9.15 23.65 10.2 27.4 11.2 31.2 8.8 37.35 L28.35 33.9 Q35.9 32.55 46.9 29.45 L54.1 11.3 Q58.55 10.25 58.55 7.15 58.55 4.05 53.75 2.7 51.7 -1.4 46.55 -3.15 41.4 -4.85 39.35 -2.8 39.0 -3.7 37.65 -3.85 35.9 -4.0 35.6 -3.15 33.15 -5.9 29.75 -4.15 Z" fill="none" stroke="#514b2d" stroke-linecap="round" stroke-linejoin="round" stroke-width="3.2"/>
      <path d="M46.95 28.8 L53.45 11.3 Q57.1 10.45 57.8 8.0 L57.7 7.2 57.8 6.25 Q57.8 5.1 56.55 4.8 52.75 3.75 51.4 7.2 L5.75 20.9 Q9.6 25.1 10.25 27.45 11.25 31.2 8.85 36.7 L28.45 33.25 Q35.95 31.9 46.95 28.8" fill="#f0e4b5" fill-rule="evenodd" stroke="none"/>
      <path d="M45.7 28.25 L48.5 19.7 Q50.9 14.55 51.25 11.8 51.6 9.05 50.55 9.05 L6.6 22.6 Q7.55 23.5 8.4 24.95 9.3 26.45 9.7 27.95 10.2 29.8 9.95 32.2 9.75 34.15 9.15 35.8 L25.95 32.55 45.7 28.25" fill="#5c5d8e" fill-rule="evenodd" stroke="none"/>
      <path d="M45.7 28.25 L25.95 32.55 9.15 35.8 Q9.75 34.15 9.95 32.2 10.2 29.8 9.7 27.95 9.3 26.45 8.4 24.95 7.55 23.5 6.6 22.6 L50.55 9.05 Q51.6 9.05 51.25 11.8 50.9 14.55 48.5 19.7 L45.7 28.25 Z" fill="none" stroke="#313253" stroke-linecap="round" stroke-linejoin="round" stroke-width="1.6"/>
      <path d="M32.85 7.85 Q30.1 7.5 27.7 10.25" fill="none" stroke="#9d9269" stroke-linecap="round" stroke-linejoin="round" stroke-width="1.6"/>
      <path d="M31.8 -0.4 Q43.8 0.3 48.95 6.1" fill="none" stroke="#58502e" stroke-linecap="round" stroke-linejoin="round" stroke-width="3.2"/>
      <path d="M34.1 28.85 Q35.2 27.55 35.2 25.7 35.2 23.85 34.1 22.55 32.9 21.25 31.3 21.25 29.65 21.25 28.5 22.55 27.35 23.85 27.35 25.7 27.35 27.55 28.5 28.85 29.65 30.15 31.3 30.15 32.9 30.15 34.1 28.85" fill="url(#gradient0)" fill-rule="evenodd" stroke="none"/>
      <path d="M34.1 28.85 Q32.9 30.15 31.3 30.15 29.65 30.15 28.5 28.85 27.35 27.55 27.35 25.7 27.35 23.85 28.5 22.55 29.65 21.25 31.3 21.25 32.9 21.25 34.1 22.55 35.2 23.85 35.2 25.7 35.2 27.55 34.1 28.85 Z" fill="none" stroke="#1d1e5f" stroke-linecap="round" stroke-linejoin="round" stroke-width="1.6"/>
      <path d="M18.9 27.25 Q18.75 28.45 19.2 29.3 19.7 30.15 20.55 30.15 21.4 30.15 22.1 29.3 22.85 28.45 23.05 27.25 23.2 26.0 22.75 25.15 22.3 24.3 21.4 24.3 20.55 24.3 19.85 25.15 19.1 26.0 18.9 27.25" fill="url(#gradient1)" fill-rule="evenodd" stroke="none"/>
      <path d="M18.9 27.25 Q19.1 26.0 19.85 25.15 20.55 24.3 21.4 24.3 22.3 24.3 22.75 25.15 23.2 26.0 23.05 27.25 22.85 28.45 22.1 29.3 21.4 30.15 20.55 30.15 19.7 30.15 19.2 29.3 18.75 28.45 18.9 27.25 Z" fill="none" stroke="#1d1e5f" stroke-linecap="round" stroke-linejoin="round" stroke-width="1.6"/>
      <path d="M13.25 25.15 Q13.25 26.05 13.8 26.4 L15.5 26.7 Q16.7 26.7 17.55 26.05 18.4 25.4 18.4 24.5 18.4 22.25 16.2 22.25 15.05 22.25 14.15 23.25 13.25 24.2 13.25 25.15" fill="url(#gradient2)" fill-rule="evenodd" stroke="none"/>
      <path d="M13.25 25.15 Q13.25 24.2 14.15 23.25 15.05 22.25 16.2 22.25 18.4 22.25 18.4 24.5 18.4 25.4 17.55 26.05 16.7 26.7 15.5 26.7 L13.8 26.4 Q13.25 26.05 13.25 25.15 Z" fill="none" stroke="#1d1e5f" stroke-linecap="round" stroke-linejoin="round" stroke-width="1.6"/>
      <path d="M23.45 21.95 L25.25 21.7 Q27.7 21.55 27.7 19.5 27.7 18.65 27.1 18.4 L25.25 18.3 Q24.1 18.35 23.45 19.35 22.9 20.2 22.9 21.25 22.9 21.95 23.45 21.95" fill="url(#gradient3)" fill-rule="evenodd" stroke="none"/>
      <path d="M23.45 21.95 Q22.9 21.95 22.9 21.25 22.9 20.2 23.45 19.35 24.1 18.35 25.25 18.3 L27.1 18.4 Q27.7 18.65 27.7 19.5 27.7 21.55 25.25 21.7 L23.45 21.95 Z" fill="none" stroke="#1d1e5f" stroke-linecap="round" stroke-linejoin="round" stroke-width="1.6"/>
      <path d="M41.75 18.15 Q42.75 18.15 43.45 17.45 44.15 16.75 44.15 15.75 44.15 14.75 43.45 14.05 42.75 13.35 41.75 13.35 40.75 13.35 40.05 14.05 39.35 14.75 39.35 15.75 39.35 16.75 40.05 17.45 40.75 18.15 41.75 18.15" fill="url(#gradient4)" fill-rule="evenodd" stroke="none"/>
      <path d="M41.75 18.15 Q40.75 18.15 40.05 17.45 39.35 16.75 39.35 15.75 39.35 14.75 40.05 14.05 40.75 13.35 41.75 13.35 42.75 13.35 43.45 14.05 44.15 14.75 44.15 15.75 44.15 16.75 43.45 17.45 42.75 18.15 41.75 18.15 Z" fill="none" stroke="#1d1e5f" stroke-linecap="round" stroke-linejoin="round" stroke-width="1.6"/>
      <path d="M45.55 13.4 Q45.55 13.95 46.1 14.25 L47.4 14.4 Q48.2 14.25 48.75 13.7 49.3 13.2 49.3 12.65 49.3 12.1 48.75 11.8 L47.4 11.65 Q46.65 11.8 46.1 12.3 45.55 12.85 45.55 13.4" fill="url(#gradient5)" fill-rule="evenodd" stroke="none"/>
      <path d="M45.55 13.4 Q45.55 12.85 46.1 12.3 46.65 11.8 47.4 11.65 L48.75 11.8 Q49.3 12.1 49.3 12.65 49.3 13.2 48.75 13.7 48.2 14.25 47.4 14.4 L46.1 14.25 Q45.55 13.95 45.55 13.4 Z" fill="none" stroke="#1d1e5f" stroke-linecap="round" stroke-linejoin="round" stroke-width="1.6"/>
      <path d="M41.25 27.5 Q42.3 27.5 43.35 26.55 44.4 25.55 44.8 24.2 45.25 22.85 44.8 21.9 44.3 20.95 43.25 20.95 42.2 21.0 41.15 21.95 40.1 22.9 39.65 24.25 39.25 25.6 39.7 26.55 40.15 27.5 41.25 27.5" fill="url(#gradient6)" fill-rule="evenodd" stroke="none"/>
      <path d="M41.25 27.5 Q40.15 27.5 39.7 26.55 39.25 25.6 39.65 24.25 40.1 22.9 41.15 21.95 42.2 21.0 43.25 20.95 44.3 20.95 44.8 21.9 45.25 22.85 44.8 24.2 44.4 25.55 43.35 26.55 42.3 27.5 41.25 27.5 Z" fill="none" stroke="#1d1e5f" stroke-linecap="round" stroke-linejoin="round" stroke-width="1.6"/>
      <path d="M53.35 21.55 L52.35 20.4 51.7 19.15 Q45.1 26.85 41.45 26.8 39.05 26.8 37.6 25.25 36.6 24.15 36.15 22.55 L35.05 20.3 Q33.95 18.4 32.7 17.2 28.95 13.6 25.7 16.95 20.65 22.25 32.7 30.55 27.5 30.05 23.55 34.15 20.85 36.95 21.8 40.85 22.65 44.15 25.5 46.55 29.95 50.35 34.7 50.5 37.55 50.6 41.05 49.15 L43.65 48.2 45.3 47.4 Q46.5 46.65 49.0 43.25 52.75 38.2 51.3 31.55 54.4 26.9 54.55 24.4 54.6 23.1 53.35 21.55" fill="#ffffff" fill-rule="evenodd" stroke="none"/>
      <path d="M53.35 21.55 Q54.6 23.1 54.55 24.4 54.4 26.9 51.3 31.55 52.75 38.2 49.0 43.25 46.5 46.65 45.3 47.4 L43.65 48.2 41.05 49.15 Q37.55 50.6 34.7 50.5 29.95 50.35 25.5 46.55 22.65 44.15 21.8 40.85 20.85 36.95 23.55 34.15 27.5 30.05 32.7 30.55 20.65 22.25 25.7 16.95 28.95 13.6 32.7 17.2 33.95 18.4 35.05 20.3 L36.15 22.55 Q36.6 24.15 37.6 25.25 39.05 26.8 41.45 26.8 45.1 26.85 51.7 19.15 L52.35 20.4 53.35 21.55 Z" fill="none" stroke="#000000" stroke-linecap="round" stroke-linejoin="round" stroke-width="0.9500000000000001"/>
      <path d="M42.45 41.05 L44.8 40.95 46.65 39.5 46.9 38.7 46.8 37.75 44.65 39.45 42.45 41.05" fill="#000000" fill-rule="evenodd" stroke="none"/>
      <path d="M45.1 42.1 Q43.8 42.55 43.05 43.15 42.55 43.6 43.0 43.8 L44.4 43.8 Q46.9 43.55 47.85 42.5 L48.05 41.55 48.2 40.6 47.25 41.2 45.1 42.1" fill="#000000" fill-rule="evenodd" stroke="none"/>
      <path d="M30.9 16.6 Q28.05 14.9 25.65 17.35 20.9 22.25 33.05 30.6 28.0 29.95 24.3 33.75 21.75 36.4 22.85 40.2 23.8 43.45 26.6 45.9 33.25 51.6 40.4 49.45 L40.6 49.05 37.8 48.4 35.25 47.9 Q32.45 47.15 30.6 45.35 28.1 43.0 28.05 39.55 28.0 36.25 30.3 33.9 L32.85 31.25 Q34.0 30.05 33.2 28.15 32.7 27.0 30.85 24.55 29.0 22.1 28.5 20.95 27.7 19.05 28.85 17.85 29.7 16.95 30.9 16.6" fill="#c9dfff" fill-rule="evenodd" stroke="none"/>
      <path d="M43.1 45.45 L41.1 45.45 Q39.95 45.45 40.45 45.9 41.25 46.7 42.25 46.9 43.4 47.15 44.05 46.45 L44.25 45.85 44.45 45.25 43.1 45.45" fill="#000000" fill-rule="evenodd" stroke="none"/>
      <path d="M38.35 45.15 Q38.25 41.95 35.9 39.65 33.55 37.4 30.35 37.4 27.15 37.4 24.95 39.65 22.8 41.9 22.9 45.15 23.0 48.35 25.35 50.6 27.7 52.85 30.9 52.85 34.1 52.85 36.3 50.6 38.45 48.35 38.35 45.15" fill="#ffffff" fill-rule="evenodd" stroke="none"/>
      <path d="M38.35 45.15 Q38.45 48.35 36.3 50.6 34.1 52.85 30.9 52.85 27.7 52.85 25.35 50.6 23.0 48.35 22.9 45.15 22.8 41.9 24.95 39.65 27.15 37.4 30.35 37.4 33.55 37.4 35.9 39.65 38.25 41.95 38.35 45.15 Z" fill="none" stroke="#000000" stroke-linecap="round" stroke-linejoin="round" stroke-width="0.9500000000000001"/>
      <path d="M35.65 46.4 Q35.6 44.55 34.2 43.2 32.85 41.9 31.0 41.85 29.1 41.85 27.9 43.15 26.65 44.45 26.75 46.3 26.8 48.15 28.15 49.45 29.55 50.75 31.4 50.8 33.25 50.85 34.5 49.55 35.75 48.25 35.65 46.4" fill="#c9dfff" fill-rule="evenodd" stroke="none"/>
      <path d="M35.65 46.4 Q35.75 48.25 34.5 49.55 33.25 50.85 31.4 50.8 29.55 50.75 28.15 49.45 26.8 48.15 26.75 46.3 26.65 44.45 27.9 43.15 29.1 41.85 31.0 41.85 32.85 41.9 34.2 43.2 35.6 44.55 35.65 46.4 Z" fill="none" stroke="#000000" stroke-linecap="round" stroke-linejoin="round" stroke-width="1.25"/>
    </g>
    <radialGradient cx="0" cy="0" gradientTransform="matrix(0.0054, 0.0, 0.0, 0.0054, 31.3, 25.7)" gradientUnits="userSpaceOnUse" id="gradient0" r="819.2" spreadMethod="pad">
      <stop offset="0.0" stop-color="#4446b1"/>
      <stop offset="1.0" stop-color="#2d2f89"/>
    </radialGradient>
    <radialGradient cx="0" cy="0" gradientTransform="matrix(0.0036, 0.0, 0.0, 0.0036, 20.95, 27.25)" gradientUnits="userSpaceOnUse" id="gradient1" r="819.2" spreadMethod="pad">
      <stop offset="0.0" stop-color="#4446b1"/>
      <stop offset="1.0" stop-color="#2d2f89"/>
    </radialGradient>
    <radialGradient cx="0" cy="0" gradientTransform="matrix(0.0033, 0.0, 0.0, 0.0033, 15.85, 24.5)" gradientUnits="userSpaceOnUse" id="gradient2" r="819.2" spreadMethod="pad">
      <stop offset="0.0" stop-color="#4446b1"/>
      <stop offset="1.0" stop-color="#2d2f89"/>
    </radialGradient>
    <radialGradient cx="0" cy="0" gradientTransform="matrix(0.0033, 0.0, 0.0, 0.0033, 25.25, 20.1)" gradientUnits="userSpaceOnUse" id="gradient3" r="819.2" spreadMethod="pad">
      <stop offset="0.0" stop-color="#4446b1"/>
      <stop offset="1.0" stop-color="#2d2f89"/>
    </radialGradient>
    <radialGradient cx="0" cy="0" gradientTransform="matrix(0.0029, 0.0, 0.0, 0.0029, 41.75, 15.75)" gradientUnits="userSpaceOnUse" id="gradient4" r="819.2" spreadMethod="pad">
      <stop offset="0.0" stop-color="#4446b1"/>
      <stop offset="1.0" stop-color="#2d2f89"/>
    </radialGradient>
    <radialGradient cx="0" cy="0" gradientTransform="matrix(0.0023, 0.0, 0.0, 0.0023, 47.4, 13.0)" gradientUnits="userSpaceOnUse" id="gradient5" r="819.2" spreadMethod="pad">
      <stop offset="0.0" stop-color="#4446b1"/>
      <stop offset="1.0" stop-color="#2d2f89"/>
    </radialGradient>
    <radialGradient cx="0" cy="0" gradientTransform="matrix(0.0042, 0.0, 0.0, 0.0042, 42.25, 24.25)" gradientUnits="userSpaceOnUse" id="gradient6" r="819.2" spreadMethod="pad">
      <stop offset="0.0" stop-color="#4446b1"/>
      <stop offset="1.0" stop-color="#2d2f89"/>
    </radialGradient>
    <g id="sprite0" transform="matrix(1.0, 0.0, 0.0, 1.0, -1.05, -3.6)">
      <use height="35.85" transform="matrix(0.2344, 0.0, 0.0, 0.2344, 1.0469, 3.6211)" width="21.55" xlink:href="#shape2"/>
      <use height="36.85" transform="matrix(0.2344, 0.0, 0.0, 0.2344, 6.7141, 3.6328)" width="35.95" xlink:href="#shape3"/>
      <use height="37.5" transform="matrix(0.2344, 0.0, 0.0, 0.2344, 19.2109, 3.5859)" width="35.5" xlink:href="#shape4"/>
      <use height="35.7" transform="matrix(0.2344, 0.0, 0.0, 0.2344, 28.1727, 3.9727)" width="42.15" xlink:href="#shape5"/>
      <use height="35.8" transform="matrix(0.2344, 0.0, 0.0, 0.2344, 38.6727, 4.043)" width="16.15" xlink:href="#shape6"/>
      <use height="36.35" transform="matrix(0.2344, 0.0, 0.0, 0.2344, 43.1578, 3.9141)" width="41.15" xlink:href="#shape7"/>
      <use height="36.0" transform="matrix(0.2344, 0.0, 0.0, 0.2344, 53.3875, 3.9141)" width="34.65" xlink:href="#shape8"/>
      <use height="36.85" transform="matrix(0.2344, 0.0, 0.0, 0.2344, 61.9938, 3.75)" width="37.4" xlink:href="#shape9"/>
      <use height="36.65" transform="matrix(0.2344, 0.0, 0.0, 0.2344, 71.3344, 3.8438)" width="14.85" xlink:href="#shape10"/>
      <use height="37.25" transform="matrix(0.2344, 0.0, 0.0, 0.2344, 78.9727, 3.7031)" width="38.4" xlink:href="#shape11"/>
      <use height="36.0" transform="matrix(0.2344, 0.0, 0.0, 0.2344, 88.6344, 3.7969)" width="32.85" xlink:href="#shape12"/>
      <use height="37.7" transform="matrix(0.2344, 0.0, 0.0, 0.2344, 96.9461, 3.6094)" width="36.05" xlink:href="#shape13"/>
      <use height="36.0" transform="matrix(0.2344, 0.0, 0.0, 0.2344, 105.8844, 3.7969)" width="32.85" xlink:href="#shape12"/>
      <use height="35.8" transform="matrix(0.2344, 0.0, 0.0, 0.2344, 7.2227, 17.043)" width="16.15" xlink:href="#shape6"/>
      <use height="36.85" transform="matrix(0.2344, 0.0, 0.0, 0.2344, 11.5438, 16.75)" width="37.4" xlink:href="#shape9"/>
      <use height="36.75" transform="matrix(0.2344, 0.0, 0.0, 0.2344, 24.2672, 17.0898)" width="46.25" xlink:href="#shape14"/>
      <use height="36.35" transform="matrix(0.2344, 0.0, 0.0, 0.2344, 39.2078, 16.9141)" width="41.15" xlink:href="#shape7"/>
      <use height="36.0" transform="matrix(0.2344, 0.0, 0.0, 0.2344, 49.4844, 16.7969)" width="32.85" xlink:href="#shape12"/>
      <use height="35.2" transform="matrix(0.2344, 0.0, 0.0, 0.2344, 57.6555, 16.7734)" width="46.1" xlink:href="#shape15"/>
      <use height="36.4" transform="matrix(0.2344, 0.0, 0.0, 0.2344, 72.3906, 16.8555)" width="41.05" xlink:href="#shape16"/>
      <use height="36.75" transform="matrix(0.2344, 0.0, 0.0, 0.2344, 82.4672, 17.0898)" width="46.25" xlink:href="#shape14"/>
      <use height="36.4" transform="matrix(0.2344, 0.0, 0.0, 0.2344, 93.7906, 16.8555)" width="41.05" xlink:href="#shape16"/>
      <use height="36.65" transform="matrix(0.2344, 0.0, 0.0, 0.2344, 103.9844, 16.8438)" width="14.85" xlink:href="#shape10"/>
    </g>
    <g id="shape2" transform="matrix(1.0, 0.0, 0.0, 1.0, -0.2, 35.75)">
      <path d="M14.25 -34.85 L17.85 -35.25 21.75 -35.75 21.7 -23.2 21.55 -11.7 21.4 0.1 19.85 0.05 15.9 -0.05 10.65 -0.2 5.25 -0.3 5.7 -11.6 6.15 -22.75 5.3 -22.65 3.15 -22.4 0.2 -22.1 5.1 -28.25 9.0 -32.7 10.6 -34.4 11.65 -34.5 14.25 -34.85" fill="#000000" fill-rule="evenodd" stroke="none"/>
    </g>
    <g id="shape3" transform="matrix(1.0, 0.0, 0.0, 1.0, -0.7, 35.7)">
      <path d="M23.2 -35.45 L34.95 -35.7 34.85 -34.55 34.65 -31.65 34.35 -27.75 33.95 -23.65 26.5 -23.4 19.95 -23.1 13.25 -22.75 13.4 -19.6 Q14.95 -20.45 17.65 -21.15 20.3 -21.9 23.9 -21.85 L27.85 -21.45 Q30.05 -21.05 32.05 -19.95 34.1 -18.85 35.35 -16.75 36.65 -14.7 36.65 -11.35 36.5 -8.15 35.05 -5.85 33.6 -3.55 31.25 -2.05 28.9 -0.55 26.2 0.2 L20.8 1.15 12.85 0.8 Q9.15 0.15 6.1 -1.4 3.1 -2.95 1.15 -5.4 L7.65 -8.45 12.35 -10.45 14.2 -11.15 Q15.05 -10.15 16.4 -9.8 L19.05 -9.55 Q20.4 -9.65 21.3 -10.2 22.2 -10.7 22.15 -11.5 21.95 -12.6 20.65 -13.2 L17.4 -13.55 Q15.45 -13.35 13.4 -12.15 L8.05 -11.65 4.2 -11.25 2.7 -11.1 2.05 -17.35 1.5 -23.6 1.05 -29.1 0.8 -33.0 0.7 -34.5 11.95 -35.0 23.2 -35.45" fill="#000000" fill-rule="evenodd" stroke="none"/>
    </g>
    <g id="shape4" transform="matrix(1.0, 0.0, 0.0, 1.0, -0.9, 35.9)">
      <path d="M16.25 -23.5 L16.4 -20.75 16.6 -18.2 Q19.7 -18.35 21.25 -19.35 22.75 -20.3 22.7 -21.45 22.65 -22.6 21.0 -23.3 L16.25 -23.5 M28.5 -34.1 Q31.7 -32.85 33.8 -30.4 35.9 -28.0 36.35 -24.15 36.6 -22.25 35.9 -19.75 35.2 -17.25 33.15 -14.75 31.1 -12.3 27.3 -10.5 23.5 -8.65 17.6 -8.1 L17.85 -4.55 18.1 -1.5 18.25 -0.25 12.95 0.5 8.2 1.05 4.75 1.45 3.45 1.6 2.2 -16.15 0.9 -33.3 6.65 -34.8 13.85 -35.75 Q17.7 -36.05 21.5 -35.7 25.25 -35.35 28.5 -34.1" fill="#000000" fill-rule="evenodd" stroke="none"/>
    </g>
    <g id="shape5" transform="matrix(1.0, 0.0, 0.0, 1.0, -0.95, 34.25)">
      <path d="M18.95 -18.3 Q17.4 -17.1 17.35 -15.35 17.4 -13.55 18.95 -12.35 20.45 -11.2 22.75 -11.15 25.0 -11.2 26.55 -12.35 28.05 -13.55 28.1 -15.35 28.05 -17.1 26.55 -18.3 25.0 -19.5 22.75 -19.55 20.45 -19.5 18.95 -18.3 M32.95 -31.85 Q37.5 -29.5 40.15 -25.55 42.75 -21.6 43.05 -16.65 43.25 -13.15 41.95 -9.9 40.65 -6.65 37.9 -4.1 35.15 -1.55 31.1 -0.05 27.05 1.45 21.7 1.45 17.4 1.45 13.65 0.3 9.9 -0.9 7.05 -3.15 4.15 -5.45 2.55 -8.75 0.95 -12.1 0.95 -16.4 1.0 -20.8 2.85 -24.1 4.7 -27.45 7.75 -29.7 10.85 -31.95 14.6 -33.1 18.4 -34.25 22.4 -34.25 28.45 -34.2 32.95 -31.85" fill="#000000" fill-rule="evenodd" stroke="none"/>
    </g>
    <g id="shape6" transform="matrix(1.0, 0.0, 0.0, 1.0, -0.95, 33.95)">
      <path d="M17.1 -33.1 L17.1 -16.8 16.75 0.15 11.65 0.9 6.55 1.4 2.6 1.75 1.05 1.85 0.95 -6.7 0.95 -14.65 1.0 -23.25 1.2 -33.95 6.6 -33.85 11.75 -33.55 15.6 -33.25 17.1 -33.1" fill="#000000" fill-rule="evenodd" stroke="none"/>
    </g>
    <g id="shape7" transform="matrix(1.0, 0.0, 0.0, 1.0, -1.1, 34.5)">
      <path d="M32.25 -34.05 L37.35 -33.5 40.9 -33.05 42.25 -32.85 41.75 -22.85 41.1 -11.85 40.25 -0.4 34.7 0.55 29.35 1.25 25.35 1.7 23.75 1.85 21.1 -3.2 18.6 -7.7 16.8 -10.95 16.1 -12.15 16.05 -6.8 15.95 -2.65 15.9 1.45 11.05 1.1 6.2 0.65 2.55 0.3 1.1 0.1 1.25 -16.7 1.65 -34.35 7.15 -34.2 12.05 -33.9 15.55 -33.65 16.9 -33.5 19.9 -27.4 22.8 -21.9 24.9 -18.0 25.75 -16.45 25.95 -22.8 26.15 -28.6 26.3 -32.85 26.35 -34.5 32.25 -34.05" fill="#000000" fill-rule="evenodd" stroke="none"/>
    </g>
    <g id="shape8" transform="matrix(1.0, 0.0, 0.0, 1.0, -0.8, 34.5)">
      <path d="M32.65 -34.5 L33.75 -29.3 34.65 -24.15 35.2 -20.25 35.45 -18.65 34.0 -18.7 30.5 -18.7 26.15 -18.6 27.1 -9.05 27.9 0.0 22.25 0.65 16.9 1.1 12.85 1.4 11.25 1.5 11.2 -5.25 11.2 -11.45 11.2 -17.75 6.25 -17.2 2.4 -16.6 0.8 -16.3 0.8 -21.75 0.95 -26.9 1.1 -30.7 1.2 -32.25 11.35 -33.0 21.6 -33.7 32.65 -34.5" fill="#000000" fill-rule="evenodd" stroke="none"/>
    </g>
    <g id="shape9" transform="matrix(1.0, 0.0, 0.0, 1.0, -0.4, 35.2)">
      <path d="M32.65 -31.5 Q34.75 -29.75 35.95 -27.7 37.2 -25.65 37.8 -23.6 L32.7 -22.45 28.0 -21.6 24.55 -21.15 23.2 -21.0 Q22.6 -22.05 21.55 -22.55 L19.35 -23.1 17.35 -22.85 Q16.5 -22.5 16.3 -21.9 16.0 -20.9 17.55 -20.1 19.1 -19.35 22.85 -19.2 L27.35 -18.7 Q29.9 -18.3 32.3 -17.25 34.65 -16.2 36.2 -14.3 37.75 -12.4 37.7 -9.45 37.5 -6.5 35.95 -4.35 34.4 -2.25 31.8 -0.9 29.25 0.45 25.95 1.1 L19.05 1.65 Q14.7 1.65 11.15 0.7 7.6 -0.3 4.9 -2.5 2.2 -4.7 0.4 -8.35 L7.35 -10.4 12.5 -11.6 14.55 -12.0 Q15.35 -10.65 16.65 -10.05 17.95 -9.45 19.3 -9.4 L21.7 -9.65 22.95 -10.45 Q23.3 -11.45 21.45 -12.05 L16.2 -12.95 Q12.3 -13.3 9.15 -14.35 6.0 -15.4 4.05 -17.35 2.1 -19.35 1.75 -22.5 1.45 -25.75 3.2 -28.6 4.95 -31.45 8.85 -33.3 12.8 -35.1 19.0 -35.2 23.85 -35.25 27.2 -34.2 30.55 -33.2 32.65 -31.5" fill="#000000" fill-rule="evenodd" stroke="none"/>
    </g>
    <g id="shape10" transform="matrix(1.0, 0.0, 0.0, 1.0, -1.0, 34.8)">
      <path d="M3.0 -0.15 Q2.1 -1.15 1.95 -2.55 1.85 -3.95 2.6 -5.1 3.4 -6.3 4.75 -7.05 6.15 -7.8 7.95 -7.95 L11.2 -7.55 Q12.7 -7.0 13.65 -6.0 14.6 -4.95 14.7 -3.55 14.8 -2.2 14.0 -1.0 13.25 0.15 11.85 0.95 10.5 1.7 8.7 1.85 L5.45 1.45 Q3.95 0.9 3.0 -0.15 M15.85 -34.05 L15.7 -26.0 15.45 -18.15 15.1 -9.9 11.0 -9.65 6.45 -9.4 2.8 -9.2 1.3 -9.1 1.1 -17.85 1.0 -26.55 1.05 -34.8 6.45 -34.65 11.2 -34.4 14.55 -34.2 15.85 -34.05" fill="#000000" fill-rule="evenodd" stroke="none"/>
    </g>
    <g id="shape11" transform="matrix(1.0, 0.0, 0.0, 1.0, -0.95, 35.4)">
      <path d="M33.1 -34.75 L39.1 -35.4 39.3 -24.5 39.35 -15.35 39.35 -6.9 39.3 1.85 37.7 1.75 33.7 1.4 28.4 0.9 22.9 0.15 22.8 -5.35 22.7 -10.95 19.95 -10.75 17.7 -10.6 17.4 0.15 11.9 0.9 6.6 1.4 2.6 1.75 1.05 1.85 0.95 -6.7 0.95 -14.65 1.0 -23.25 1.2 -33.95 6.95 -33.85 12.3 -33.55 16.2 -33.25 17.75 -33.1 17.75 -26.35 17.75 -19.4 20.25 -19.5 22.5 -19.55 22.3 -26.5 22.1 -33.15 23.65 -33.4 27.6 -34.0 33.1 -34.75" fill="#000000" fill-rule="evenodd" stroke="none"/>
    </g>
    <g id="shape12" transform="matrix(1.0, 0.0, 0.0, 1.0, -1.0, 35.0)">
      <path d="M22.15 -34.85 L32.55 -35.0 32.5 -33.75 32.4 -30.55 32.2 -26.25 31.85 -21.8 30.2 -21.9 26.0 -22.2 20.65 -22.6 15.4 -23.1 15.4 -21.65 15.45 -20.25 16.75 -20.15 19.85 -19.95 23.45 -19.7 23.55 -18.85 23.7 -16.75 23.95 -14.05 19.3 -13.1 15.65 -12.45 15.7 -11.6 15.8 -10.15 17.2 -10.25 20.85 -10.55 26.15 -11.1 32.2 -11.75 32.5 -10.0 33.15 -5.5 33.85 0.4 22.35 0.75 11.35 0.9 1.65 1.0 1.4 -9.2 1.15 -21.25 1.0 -33.85 11.95 -34.55 22.15 -34.85" fill="#000000" fill-rule="evenodd" stroke="none"/>
    </g>
    <g id="shape13" transform="matrix(1.0, 0.0, 0.0, 1.0, -1.05, 35.8)">
      <path d="M14.8 -18.2 Q17.95 -18.35 19.5 -19.35 21.0 -20.3 21.0 -21.45 20.95 -22.6 19.35 -23.3 L14.55 -23.5 14.65 -20.75 14.8 -18.2 M27.4 -34.05 Q30.4 -32.8 32.35 -30.4 34.35 -28.0 34.75 -24.15 34.9 -22.6 34.4 -20.7 33.95 -18.8 32.65 -16.8 31.4 -14.8 29.1 -13.0 L33.0 -8.55 35.95 -4.95 37.1 -3.5 29.9 -0.9 24.8 1.1 22.85 1.9 19.85 -1.85 17.2 -5.45 15.35 -8.05 15.6 -3.6 15.85 0.1 15.95 1.65 10.6 1.5 5.9 1.3 2.6 1.15 1.35 1.1 Q1.15 -4.15 1.1 -10.0 L1.05 -21.8 1.05 -33.3 6.6 -34.7 13.5 -35.65 Q17.15 -35.95 20.75 -35.6 24.35 -35.25 27.4 -34.05" fill="#000000" fill-rule="evenodd" stroke="none"/>
    </g>
    <g id="shape14" transform="matrix(1.0, 0.0, 0.0, 1.0, -0.5, 33.75)">
      <path d="M25.4 -13.2 L24.45 -16.6 23.4 -20.1 22.45 -16.5 21.4 -12.7 23.55 -12.95 25.4 -13.2 M33.0 -33.75 L36.05 -27.15 39.8 -19.05 43.55 -10.4 46.75 -2.3 Q43.5 -1.1 39.4 -0.05 L29.8 2.15 28.6 -2.1 27.45 -6.05 22.85 -5.25 19.3 -4.65 18.3 -0.95 17.25 3.0 11.25 1.6 5.85 0.1 2.0 -1.1 0.5 -1.65 3.5 -8.15 7.35 -16.35 11.55 -25.1 15.65 -33.3 21.65 -33.6 27.25 -33.7 31.35 -33.75 33.0 -33.75" fill="#000000" fill-rule="evenodd" stroke="none"/>
    </g>
    <g id="shape15" transform="matrix(1.0, 0.0, 0.0, 1.0, -0.45, 35.1)">
      <path d="M33.1 -33.55 L38.8 -33.6 46.55 -33.45 44.75 -25.25 43.3 -18.75 42.0 -13.2 40.65 -7.6 39.05 -1.1 35.2 -0.6 31.4 -0.25 28.45 0.0 27.3 0.1 26.1 -3.35 24.85 -6.7 23.9 -9.15 23.5 -10.15 23.05 -8.75 21.8 -5.2 20.2 -0.25 16.1 -0.35 12.35 -0.55 9.55 -0.7 8.45 -0.8 7.25 -5.2 5.65 -11.4 3.8 -18.55 2.0 -25.8 0.45 -32.3 5.7 -33.45 10.5 -34.35 13.95 -34.9 15.25 -35.1 15.55 -33.8 16.3 -30.3 17.4 -25.35 18.65 -19.7 19.25 -20.8 20.75 -23.55 22.85 -27.05 23.65 -26.0 25.55 -23.4 27.65 -20.05 28.65 -24.5 29.7 -28.85 30.5 -32.15 30.85 -33.45 33.1 -33.55" fill="#000000" fill-rule="evenodd" stroke="none"/>
    </g>
    <g id="shape16" transform="matrix(1.0, 0.0, 0.0, 1.0, -0.6, 34.75)">
      <path d="M21.1 -34.75 Q25.85 -34.75 29.85 -33.3 33.85 -31.9 36.7 -29.35 39.6 -26.8 41.0 -23.5 L33.3 -20.95 27.8 -19.0 25.65 -18.2 Q24.7 -19.75 23.0 -20.4 L19.5 -20.6 Q17.7 -20.2 16.45 -18.65 15.2 -17.1 15.2 -14.35 15.25 -12.05 16.4 -10.55 17.55 -9.05 19.45 -8.9 L21.45 -9.2 Q22.4 -9.6 23.0 -10.45 L21.15 -10.7 19.55 -10.85 18.85 -10.9 18.75 -13.4 18.8 -15.45 18.85 -16.3 24.5 -16.5 31.8 -16.65 41.65 -16.8 Q41.5 -12.25 39.8 -8.8 38.1 -5.35 35.2 -3.05 32.3 -0.7 28.5 0.5 24.75 1.65 20.45 1.65 14.65 1.65 10.2 -0.45 5.75 -2.5 3.2 -6.5 0.65 -10.45 0.6 -16.15 0.65 -20.55 2.35 -24.0 4.05 -27.4 6.9 -29.8 9.8 -32.2 13.45 -33.45 17.1 -34.7 21.1 -34.75" fill="#000000" fill-rule="evenodd" stroke="none"/>
    </g>
  </defs>
</svg>
