<?xml version="1.0" encoding="UTF-8" standalone="no"?>
<svg xmlns:xlink="http://www.w3.org/1999/xlink" height="34.35px" width="22.95px" xmlns="http://www.w3.org/2000/svg">
  <g transform="matrix(1.0, 0.0, 0.0, 1.0, 12.2, 17.1)">
    <use height="34.35" transform="matrix(1.0, 0.0, 0.0, 1.0, -12.2, -17.1)" width="22.95" xlink:href="#shape0"/>
    <use height="26.55" transform="matrix(1.0, 0.0, 0.0, 1.0, -9.7998, -10.4998)" width="19.65" xlink:href="#sprite0"/>
  </g>
  <defs>
    <g id="shape0" transform="matrix(1.0, 0.0, 0.0, 1.0, 12.2, 17.1)">
      <path d="M7.5 -6.75 L7.75 -6.65 5.65 -9.15 Q4.05 -10.35 1.2 -10.5 -5.65 -10.9 -8.85 -1.8 L-8.45 -2.4 Q-9.05 -1.1 -9.2 0.55 L-9.1 1.85 -9.2 3.0 Q-9.35 6.7 -8.85 9.7 L-7.9 8.9 -6.8 8.2 -6.35 7.9 Q-0.85 5.3 5.3 5.6 L7.95 6.0 9.1 6.2 9.2 6.25 9.25 5.0 Q9.65 -2.4 8.05 -5.65 L8.05 -5.7 8.0 -6.05 7.9 -6.2 7.5 -6.75 M5.35 -10.45 L5.95 -10.15 Q7.85 -9.0 9.2 -6.25 11.0 -2.55 10.7 5.25 10.55 10.6 9.9 13.45 9.2 16.85 -0.3 17.2 L-5.65 17.05 -7.8 16.65 Q-9.05 15.45 -9.8 12.75 L-11.65 14.15 -12.05 13.9 -12.15 13.55 -11.35 12.3 -11.3 12.25 -11.2 11.95 -10.95 11.65 -10.25 10.85 Q-10.9 7.35 -10.7 2.75 -10.45 -2.95 -7.75 -6.95 -4.95 -11.05 -0.7 -11.35 L1.55 -11.5 Q3.85 -11.4 5.35 -10.45 M0.4 -6.8 L0.5 -6.7 0.25 -6.7 0.4 -6.8 M-6.45 15.95 L-5.5 16.1 -0.35 16.2 Q4.55 16.05 7.55 13.25 8.55 12.3 9.05 7.75 5.45 7.45 1.85 7.85 -3.95 8.2 -8.45 11.6 -7.7 14.6 -6.45 15.85 L-6.85 15.9 -6.45 15.95 M-0.3 -16.95 Q2.5 -17.7 3.7 -15.2 -1.55 -17.35 -5.3 -12.25 L-4.25 -14.05 Q-2.8 -16.3 -0.3 -16.95" fill="#000000" fill-rule="evenodd" stroke="none"/>
      <path d="M-6.45 15.85 L-6.45 15.95 -6.85 15.9 -6.45 15.85" fill="#ffffff" fill-rule="evenodd" stroke="none"/>
      <path d="M7.5 -6.75 L7.9 -6.2 8.0 -6.05 8.05 -5.7 8.05 -5.65 Q9.65 -2.4 9.25 5.0 L9.2 6.25 9.1 6.2 7.95 6.0 5.3 5.6 Q-0.85 5.3 -6.35 7.9 L-6.8 8.2 -7.9 8.9 -8.85 9.7 Q-9.35 6.7 -9.2 3.0 L-9.1 1.85 -9.2 0.55 Q-9.05 -1.1 -8.45 -2.4 L-8.85 -1.8 Q-5.65 -10.9 1.2 -10.5 4.05 -10.35 5.65 -9.15 L7.75 -6.65 7.5 -6.75 M0.4 -6.8 L0.25 -6.7 0.5 -6.7 0.4 -6.8 M-6.45 15.85 Q-7.7 14.6 -8.45 11.6 -3.95 8.2 1.85 7.85 5.45 7.45 9.05 7.75 8.55 12.3 7.55 13.25 4.55 16.05 -0.35 16.2 L-5.5 16.1 -6.45 15.95 -6.45 15.85" fill="#53b3cb" fill-rule="evenodd" stroke="none"/>
    </g>
  </defs>
</svg>
