<?xml version="1.0" encoding="UTF-8" standalone="no"?>
<svg xmlns:xlink="http://www.w3.org/1999/xlink" height="78.15px" width="223.25px" xmlns="http://www.w3.org/2000/svg">
  <g transform="matrix(1.0, 0.0, 0.0, 1.0, 114.85, 38.5)">
    <use height="34.35" transform="matrix(1.0, 0.0, 0.0, 1.0, -107.95, 3.7)" width="74.6" xlink:href="#sprite0"/>
    <use height="37.75" transform="matrix(1.0, 0.0, 0.0, 1.0, -114.85, -14.15)" width="78.7" xlink:href="#sprite1"/>
    <use height="54.85" transform="matrix(1.0, 0.0, 0.0, 1.0, -48.55, -15.2)" width="105.85" xlink:href="#sprite2"/>
    <use height="15.8" transform="matrix(0.7468, 0.0, 0.0, -0.7468, 1.5283, -13.2)" width="57.45" xlink:href="#sprite3"/>
    <use height="60.2" transform="matrix(1.0, 0.0, 0.0, 1.0, 36.35, -38.5)" width="72.05" xlink:href="#sprite4"/>
    <use height="15.8" transform="matrix(1.0, 0.0, 0.0, 1.0, -10.0, -36.5)" width="57.45" xlink:href="#sprite3"/>
    <use height="33.5" transform="matrix(1.0, 0.0, 0.0, 1.0, -53.4, 1.45)" width="91.8" xlink:href="#sprite5"/>
  </g>
  <defs>
    <g id="sprite0" transform="matrix(1.0, 0.0, 0.0, 1.0, 37.3, 14.75)">
      <use height="29.55" transform="matrix(1.0, 0.0, 0.0, 1.0, -37.3, -14.75)" width="74.6" xlink:href="#shape0"/>
    </g>
    <g id="shape0" transform="matrix(1.0, 0.0, 0.0, 1.0, 37.3, 14.75)">
      <path d="M-9.2 -14.75 Q-5.75 -13.65 -2.5 -11.95 -0.1 -10.7 2.5 -10.05 L8.15 -9.1 8.25 -9.1 18.15 -9.55 24.9 -10.35 Q30.65 -11.2 34.85 -7.65 L35.05 -7.45 Q37.9 -4.9 37.1 -1.4 L36.75 -0.3 Q35.95 1.75 34.45 3.2 33.3 4.2 31.8 4.9 25.0 7.95 17.4 7.0 L13.15 6.25 Q7.7 5.8 2.4 3.8 0.2 3.0 -1.8 1.8 L-1.8 1.85 Q-6.5 8.2 -13.75 11.75 -21.55 15.5 -30.05 14.65 -33.35 14.3 -35.95 12.5 L-36.9 11.55 -36.9 11.25 -36.9 11.1 -36.8 11.1 Q-37.65 9.9 -37.0 8.0 -35.5 3.7 -32.65 0.15 -26.45 -7.65 -17.2 -11.6 L-10.7 -14.55 -10.35 -14.45 -9.85 -14.65 -9.2 -14.75 M13.6 -7.75 L9.35 -7.85 Q1.4 -8.2 -5.75 -12.05 -7.2 -12.85 -8.75 -13.3 -9.8 -13.55 -10.75 -13.0 L-10.9 -13.0 Q-11.7 -12.2 -12.95 -11.8 L-15.7 -10.75 Q-22.35 -7.85 -27.9 -3.1 -33.6 1.8 -35.75 8.85 -36.0 9.7 -35.85 10.6 L-35.6 11.0 -35.55 11.1 -35.45 11.15 Q-27.3 12.35 -20.25 7.8 L-14.9 4.55 -14.9 4.9 -14.95 5.0 -17.35 7.2 Q-22.25 11.15 -28.65 12.6 L-31.4 12.95 Q-22.5 14.55 -14.25 10.6 -9.4 8.3 -5.7 4.4 L-2.45 1.2 -2.45 1.0 -2.4 0.9 -2.35 0.85 -2.15 0.65 -2.05 0.6 -1.85 0.55 Q4.7 3.5 11.75 4.85 L16.55 5.35 21.8 6.0 Q29.45 6.0 34.7 0.75 L34.75 0.7 35.45 -0.2 35.85 -1.5 Q36.3 -4.2 34.9 -6.0 34.0 -7.1 32.45 -7.85 28.25 -9.85 23.4 -9.1 L13.85 -7.9 13.7 -7.85 13.6 -7.75" fill="#000000" fill-rule="evenodd" stroke="none"/>
      <path d="M-35.6 11.0 L-35.85 10.6 Q-36.0 9.7 -35.75 8.85 -33.6 1.8 -27.9 -3.1 -22.35 -7.85 -15.7 -10.75 L-12.95 -11.8 Q-11.7 -12.2 -10.9 -13.0 L-10.75 -13.0 Q-9.8 -13.55 -8.75 -13.3 -7.2 -12.85 -5.75 -12.05 1.4 -8.2 9.35 -7.85 L13.6 -7.75 13.85 -7.9 23.4 -9.1 Q28.25 -9.85 32.45 -7.85 34.0 -7.1 34.9 -6.0 36.3 -4.2 35.85 -1.5 L35.45 -0.2 34.75 0.2 31.9 1.35 27.65 1.95 18.65 1.6 11.65 0.95 Q7.05 0.45 2.85 -1.4 L1.4 -1.8 -5.1 -1.35 -6.35 -1.0 Q-7.9 -0.55 -9.05 0.6 -12.4 3.85 -16.35 6.55 L-17.35 7.2 -14.95 5.0 -14.9 4.9 -14.9 4.55 -20.25 7.8 Q-27.3 12.35 -35.45 11.15 L-35.6 11.0" fill="#0ecfe4" fill-rule="evenodd" stroke="none"/>
      <path d="M35.45 -0.2 L34.75 0.7 34.7 0.75 Q29.45 6.0 21.8 6.0 L16.55 5.35 11.75 4.85 Q4.7 3.5 -1.85 0.55 L-2.05 0.6 -2.15 0.65 -2.35 0.85 -2.4 0.9 -2.45 1.0 -2.45 1.2 -5.7 4.4 Q-9.4 8.3 -14.25 10.6 -22.5 14.55 -31.4 12.95 L-28.65 12.6 Q-22.25 11.15 -17.35 7.2 L-16.35 6.55 Q-12.4 3.85 -9.05 0.6 -7.9 -0.55 -6.35 -1.0 L-5.1 -1.35 1.4 -1.8 2.85 -1.4 Q7.05 0.45 11.65 0.95 L18.65 1.6 27.65 1.95 31.9 1.35 34.75 0.2 35.45 -0.2" fill="#0db5c8" fill-rule="evenodd" stroke="none"/>
    </g>
    <g id="sprite1" transform="matrix(1.0, 0.0, 0.0, 1.0, 39.8, 21.1)">
      <use height="33.3" transform="matrix(1.0, 0.0, 0.0, 1.0, -38.8, -16.65)" width="77.65" xlink:href="#shape1"/>
    </g>
    <g id="shape1" transform="matrix(1.0, 0.0, 0.0, 1.0, 38.8, 16.65)">
      <path d="M13.45 -9.8 L18.65 -8.55 Q25.75 -7.0 33.0 -6.5 37.2 -6.2 38.75 -2.75 39.0 -2.2 38.75 -1.65 L37.5 0.45 Q35.5 3.15 32.25 4.7 26.5 7.4 20.2 6.7 10.3 6.75 0.8 4.15 L-1.35 3.3 -2.45 4.35 -6.1 7.65 Q-12.0 12.9 -19.45 15.2 -26.45 17.35 -33.8 16.35 -36.4 16.0 -38.3 14.55 L-38.2 14.25 -38.35 14.05 Q-39.05 12.9 -38.7 11.05 L-38.4 9.15 Q-38.1 6.9 -37.15 4.9 -36.4 2.35 -34.75 0.15 -31.75 -3.85 -27.75 -6.9 -25.6 -8.55 -23.25 -9.9 -17.5 -13.1 -11.25 -15.1 L-7.0 -16.25 -6.7 -16.45 -6.1 -16.65 Q-0.05 -14.65 5.85 -12.25 9.55 -10.75 13.45 -9.8 M35.45 0.8 L37.3 -1.8 37.65 -2.55 Q36.25 -4.8 33.35 -5.1 L22.45 -6.35 20.6 -6.7 15.7 -7.8 7.7 -10.25 Q1.15 -12.35 -5.2 -14.9 L-6.5 -15.45 Q-8.4 -14.5 -10.65 -14.05 L-12.7 -13.4 Q-19.4 -10.6 -25.65 -6.8 -29.4 -4.55 -32.1 -1.15 -34.7 2.15 -36.3 5.95 -37.35 9.6 -37.25 13.35 L-37.2 13.5 Q-25.95 15.2 -18.05 7.25 L-16.6 5.85 -16.35 5.95 -16.2 6.0 Q-17.5 8.5 -19.5 10.35 -21.15 11.8 -23.3 12.9 -27.35 14.9 -31.65 15.25 -21.15 16.15 -11.75 10.3 -6.95 7.3 -3.2 3.0 -1.7 1.25 0.0 0.05 0.3 0.05 0.4 0.3 L0.45 0.35 -0.6 2.35 Q5.9 4.45 12.8 5.05 L20.7 5.5 28.45 4.65 30.55 4.1 Q33.45 2.95 35.45 0.8 M-37.2 13.5 L-37.2 13.55 -37.2 13.5" fill="#000000" fill-rule="evenodd" stroke="none"/>
      <path d="M-19.5 10.35 Q-17.5 8.5 -16.2 6.0 L-16.35 5.95 -16.6 5.85 -18.05 7.25 Q-25.95 15.2 -37.2 13.5 L-37.25 13.35 Q-37.35 9.6 -36.3 5.95 -34.7 2.15 -32.1 -1.15 -29.4 -4.55 -25.65 -6.8 -19.4 -10.6 -12.7 -13.4 L-10.65 -14.05 Q-8.4 -14.5 -6.5 -15.45 L-5.2 -14.9 Q1.15 -12.35 7.7 -10.25 L15.7 -7.8 20.6 -6.7 22.45 -6.35 33.35 -5.1 Q36.25 -4.8 37.65 -2.55 L37.3 -1.8 35.45 0.8 34.05 1.2 32.3 1.55 24.05 1.75 21.3 1.6 15.8 0.85 13.05 0.4 7.8 -0.7 Q3.35 -1.8 -0.7 -3.75 L-2.75 -4.65 Q-5.05 -5.6 -7.45 -5.1 L-8.3 -4.75 -9.7 -3.0 -10.7 -0.5 -11.1 0.1 Q-12.25 1.3 -12.95 2.75 L-13.25 3.2 -13.85 4.05 -15.7 7.25 -16.9 8.55 Q-18.15 9.55 -19.5 10.35" fill="#0ecfe4" fill-rule="evenodd" stroke="none"/>
      <path d="M-19.5 10.35 Q-18.15 9.55 -16.9 8.55 L-15.7 7.25 -13.85 4.05 -13.25 3.2 -12.95 2.75 Q-12.25 1.3 -11.1 0.1 L-10.7 -0.5 -9.7 -3.0 -8.3 -4.75 -7.45 -5.1 Q-5.05 -5.6 -2.75 -4.65 L-0.7 -3.75 Q3.35 -1.8 7.8 -0.7 L13.05 0.4 15.8 0.85 21.3 1.6 24.05 1.75 32.3 1.55 34.05 1.2 35.45 0.8 Q33.45 2.95 30.55 4.1 L28.45 4.65 20.7 5.5 12.8 5.05 Q5.9 4.45 -0.6 2.35 L0.45 0.35 0.4 0.3 Q0.3 0.05 0.0 0.05 -1.7 1.25 -3.2 3.0 -6.95 7.3 -11.75 10.3 -21.15 16.15 -31.65 15.25 -27.35 14.9 -23.3 12.9 -21.15 11.8 -19.5 10.35" fill="#0db5c8" fill-rule="evenodd" stroke="none"/>
    </g>
    <g id="sprite2" transform="matrix(1.0, 0.0, 0.0, 1.0, 52.9, 27.4)">
      <use height="54.85" transform="matrix(1.0, 0.0, 0.0, 1.0, -52.9, -27.4)" width="105.85" xlink:href="#shape2"/>
    </g>
    <g id="shape2" transform="matrix(1.0, 0.0, 0.0, 1.0, 52.9, 27.4)">
      <path d="M5.55 -11.7 L5.55 -11.8 5.6 -11.8 5.55 -11.7" fill="#ffffff" fill-rule="evenodd" stroke="none"/>
      <path d="M3.45 -13.65 Q8.75 -12.0 14.25 -11.0 21.6 -9.7 28.35 -6.5 29.8 -5.8 31.05 -4.9 L33.6 -5.15 34.3 -5.35 34.15 -5.55 35.4 -5.95 36.75 -6.45 Q38.35 -7.3 39.85 -8.35 L41.55 -9.65 41.75 -9.55 Q44.0 -11.35 46.55 -12.5 L47.25 -12.75 Q49.0 -12.9 50.5 -12.3 L50.7 -12.2 50.75 -12.1 50.8 -12.0 50.9 -11.9 Q53.65 -10.2 52.7 -6.95 L52.6 -6.6 Q52.2 -4.8 51.0 -3.5 L51.2 -3.0 50.85 -3.35 Q49.65 -2.2 47.8 -1.45 L46.55 -0.55 Q43.05 1.85 38.85 3.25 L37.0 3.55 Q37.45 6.7 35.35 9.85 31.1 16.2 24.55 20.05 18.1 23.85 10.85 25.6 5.5 26.9 0.0 27.3 L-1.55 27.4 -6.1 27.4 -10.35 27.1 -13.8 26.55 -16.05 26.0 Q-18.45 25.2 -20.5 23.7 L-23.2 23.5 Q-24.3 23.05 -25.45 22.75 -32.9 20.9 -38.6 15.9 -40.65 16.7 -42.35 18.0 -43.5 20.0 -45.55 20.0 L-46.0 19.7 Q-49.05 13.85 -49.1 7.3 L-50.9 7.0 -51.1 6.9 Q-51.05 2.9 -52.25 -0.9 L-52.5 -0.6 Q-53.2 -4.2 -52.7 -8.0 L-52.5 -9.55 Q-51.45 -15.3 -48.15 -19.95 L-47.95 -19.95 -47.9 -20.0 -47.65 -20.05 -47.65 -20.1 Q-45.2 -18.0 -42.15 -17.55 L-42.1 -17.65 -41.9 -17.95 -41.9 -18.05 -41.9 -18.15 -41.85 -18.25 Q-39.65 -21.45 -36.5 -23.8 -32.3 -26.95 -27.0 -27.35 -21.55 -27.65 -16.55 -25.7 L-15.75 -25.4 -15.6 -25.3 -15.5 -25.2 -14.8 -24.6 -14.75 -24.65 -14.55 -24.8 -14.55 -25.15 Q-14.1 -25.85 -13.25 -25.8 -10.0 -24.45 -9.1 -20.85 L-8.85 -19.9 Q-5.4 -17.3 -1.45 -15.5 L2.95 -13.8 3.45 -13.65 M2.95 -12.45 L0.4 -13.35 0.35 -13.35 0.35 -13.3 -0.85 -13.7 -0.85 -13.85 -1.05 -13.95 Q-2.85 -14.75 -4.55 -15.65 L-6.9 -17.1 -6.65 -16.3 -7.3 -16.9 -8.0 -17.05 -8.2 -17.05 -8.25 -17.5 -8.3 -17.75 -8.45 -17.5 -8.5 -17.5 Q-10.05 -18.0 -10.4 -19.9 -10.95 -22.95 -13.35 -24.5 L-13.5 -24.6 -13.55 -24.3 -13.65 -24.0 -13.65 -23.95 Q-11.9 -17.45 -12.3 -10.4 -12.75 -2.95 -13.8 4.35 L-14.0 5.75 -14.1 6.45 Q-15.2 12.6 -17.25 18.55 -18.05 20.8 -19.45 22.75 L-19.55 22.85 -19.45 23.0 -15.4 24.55 -15.15 24.15 -15.05 24.25 -13.85 24.85 -14.0 25.0 -13.9 25.0 -9.65 25.9 -6.55 26.25 -6.45 26.15 -6.4 26.2 -5.6 26.4 -4.1 26.35 -1.0 26.25 -0.2 26.2 0.3 26.15 0.35 26.15 2.25 25.8 2.05 26.0 8.05 24.95 8.05 24.9 Q13.55 24.0 19.05 21.45 L22.05 19.9 23.55 19.1 Q25.3 18.15 26.9 17.0 L27.05 16.5 28.9 15.4 28.85 15.45 32.5 11.8 Q35.1 8.75 35.7 4.9 L35.8 3.7 35.75 3.65 35.65 3.4 Q34.0 -1.4 29.6 -4.05 L27.65 -5.5 27.2 -5.9 26.6 -6.1 26.45 -6.2 25.8 -6.5 Q23.3 -7.7 20.9 -8.0 L20.75 -8.05 Q15.0 -10.45 8.45 -11.05 L5.6 -11.8 5.55 -11.8 5.55 -11.7 5.6 -11.55 4.5 -11.9 4.45 -12.05 4.15 -12.15 2.95 -12.45 M40.45 -7.1 Q38.6 -5.65 36.5 -4.6 L35.3 -4.15 35.25 -4.25 33.95 -3.85 32.7 -3.55 33.0 -3.25 34.15 -2.05 34.5 -1.6 35.55 -0.05 35.6 -0.05 35.75 0.05 Q36.5 1.35 36.85 2.6 L37.0 2.55 37.0 2.45 37.75 2.2 38.7 1.85 41.6 0.6 44.55 -0.9 44.55 -0.95 45.65 -1.6 45.7 -1.7 46.3 -2.0 49.05 -3.95 Q50.5 -5.35 51.45 -7.15 L51.75 -8.0 51.65 -8.45 Q51.65 -9.4 51.1 -10.2 L50.75 -10.6 49.0 -11.2 47.25 -11.4 42.05 -8.5 40.45 -7.1 M-16.35 -23.8 L-16.9 -24.15 Q-18.2 -25.1 -19.85 -25.5 -29.9 -27.95 -37.25 -21.35 -39.6 -19.25 -41.4 -16.8 L-41.4 -16.75 -41.6 -16.4 Q-45.15 -16.2 -47.7 -18.7 -50.9 -13.25 -51.55 -7.0 L-51.65 -5.8 -51.55 -2.2 Q-50.15 1.65 -49.75 5.9 L-49.75 6.0 Q-45.95 6.2 -42.3 4.55 -41.95 4.4 -41.8 4.7 L-41.9 5.1 -42.0 5.25 Q-43.35 6.2 -44.75 6.75 -40.8 12.75 -34.75 17.05 -28.35 21.55 -20.4 22.3 L-20.35 22.3 -17.75 16.3 -15.8 8.25 -15.75 8.05 -15.35 5.45 -15.25 4.5 -14.0 -6.3 Q-13.3 -13.7 -14.3 -21.0 L-14.6 -23.1 Q-15.5 -23.3 -16.35 -23.8 M-44.95 18.8 Q-42.7 16.2 -39.5 15.1 L-40.55 14.1 -42.55 12.05 Q-44.75 9.8 -45.9 7.1 L-47.9 7.35 Q-47.8 13.2 -45.2 18.5 L-45.05 18.9 -44.95 18.8" fill="#000000" fill-rule="evenodd" stroke="none"/>
      <path d="M-19.45 23.0 L-19.55 22.85 -19.45 22.75 -19.45 23.0" fill="#c90303" fill-rule="evenodd" stroke="none"/>
      <path d="M-51.55 -7.0 Q-50.9 -13.25 -47.7 -18.7 -45.15 -16.2 -41.6 -16.4 L-41.4 -16.75 -41.4 -16.8 Q-39.6 -19.25 -37.25 -21.35 -29.9 -27.95 -19.85 -25.5 -18.2 -25.1 -16.9 -24.15 L-16.35 -23.8 -15.5 -19.65 -15.1 -17.45 Q-14.7 -13.35 -14.75 -9.2 -14.8 -6.5 -15.5 -3.95 L-15.8 -2.45 Q-16.2 0.95 -17.75 4.1 L-18.15 4.95 -19.9 4.35 -21.3 3.75 Q-24.75 2.2 -27.85 0.1 L-29.05 -0.8 -31.6 -3.45 Q-32.75 -4.85 -34.35 -5.25 L-34.85 -5.3 -35.35 -5.3 -36.35 -5.1 -36.85 -5.0 -38.6 -4.75 -39.85 -4.65 -41.35 -4.55 -47.85 -5.1 Q-50.05 -5.55 -51.55 -7.0" fill="#7f7f7f" fill-rule="evenodd" stroke="none"/>
      <path d="M-51.55 -7.0 Q-50.05 -5.55 -47.85 -5.1 L-41.35 -4.55 -39.85 -4.65 -38.6 -4.75 -36.85 -5.0 -36.35 -5.1 -35.35 -5.3 -34.85 -5.3 -34.35 -5.25 Q-32.75 -4.85 -31.6 -3.45 L-29.05 -0.8 -27.85 0.1 Q-24.75 2.2 -21.3 3.75 L-19.9 4.35 -18.15 4.95 -17.75 4.1 Q-16.2 0.95 -15.8 -2.45 L-15.5 -3.95 Q-14.8 -6.5 -14.75 -9.2 -14.7 -13.35 -15.1 -17.45 L-15.5 -19.65 -16.35 -23.8 Q-15.5 -23.3 -14.6 -23.1 L-14.3 -21.0 Q-13.3 -13.7 -14.0 -6.3 L-15.25 4.5 -15.35 5.45 -15.75 8.05 -15.8 8.25 -17.75 16.3 -20.35 22.3 -20.4 22.3 Q-28.35 21.55 -34.75 17.05 -40.8 12.75 -44.75 6.75 -43.35 6.2 -42.0 5.25 L-41.9 5.1 -41.8 4.7 Q-41.95 4.4 -42.3 4.55 -45.95 6.2 -49.75 6.0 L-49.75 5.9 Q-50.15 1.65 -51.55 -2.2 L-51.65 -5.8 -51.55 -7.0 M-45.2 18.5 Q-47.8 13.2 -47.9 7.35 L-45.9 7.1 Q-44.75 9.8 -42.55 12.05 L-40.55 14.1 -39.5 15.1 Q-42.7 16.2 -44.95 18.8 L-45.2 18.5" fill="#696969" fill-rule="evenodd" stroke="none"/>
      <path d="M2.95 -12.45 L4.15 -12.15 4.45 -12.05 4.5 -11.9 5.6 -11.55 5.55 -11.7 5.6 -11.8 8.45 -11.05 Q15.0 -10.45 20.75 -8.05 L20.9 -8.0 Q23.3 -7.7 25.8 -6.5 L26.45 -6.2 26.6 -6.1 27.2 -5.9 27.65 -5.5 29.6 -4.05 Q34.0 -1.4 35.65 3.4 L35.75 3.65 35.8 3.7 35.7 4.9 Q35.1 8.75 32.5 11.8 L28.85 15.45 28.9 15.4 27.05 16.5 26.9 17.0 Q25.3 18.15 23.55 19.1 L22.05 19.9 19.05 21.45 Q13.55 24.0 8.05 24.9 L8.05 24.95 2.05 26.0 2.25 25.8 0.35 26.15 0.3 26.15 -0.2 26.2 -1.0 26.25 -0.35 24.8 -0.1 23.8 Q0.1 22.55 0.85 21.45 1.55 20.45 1.85 19.2 2.3 17.3 2.9 15.45 L3.65 12.0 3.7 11.4 4.0 9.2 4.15 8.4 4.3 7.4 4.55 5.2 4.85 1.6 4.9 0.8 4.75 -2.8 4.65 -3.6 4.55 -4.6 4.05 -8.4 3.9 -9.2 3.15 -11.8 2.95 -12.45 M-5.6 26.4 L-6.4 26.2 -6.45 26.15 -6.55 26.25 -9.65 25.9 -9.5 25.35 -7.6 20.2 -6.7 17.2 -4.8 9.6 -4.65 8.6 -3.9 2.4 -3.65 -1.0 -3.55 -8.8 Q-3.5 -12.35 -4.55 -15.65 -2.85 -14.75 -1.05 -13.95 L-0.7 -12.75 -0.55 -12.2 -0.45 -11.2 0.0 -7.4 0.05 -6.8 0.3 -5.0 0.45 -3.6 0.65 0.4 0.55 1.45 Q0.4 1.8 0.4 2.2 L0.05 6.2 Q-0.4 10.1 -1.15 13.8 L-2.3 17.85 -3.0 20.0 Q-4.1 23.4 -5.6 26.4 M-13.9 25.0 L-14.0 25.0 -13.85 24.85 -13.9 25.0 M-15.05 24.25 L-15.15 24.15 -15.4 24.55 -19.45 23.0 -19.45 22.75 Q-18.05 20.8 -17.25 18.55 -15.2 12.6 -14.1 6.45 L-14.0 5.75 -13.8 4.35 Q-12.75 -2.95 -12.3 -10.4 -11.9 -17.45 -13.65 -23.95 L-13.65 -24.0 -13.55 -24.3 -13.35 -24.5 Q-10.95 -22.95 -10.4 -19.9 -10.05 -18.0 -8.5 -17.5 L-8.45 -17.5 -8.25 -17.5 -8.2 -17.05 -8.35 -17.05 Q-7.75 -14.3 -7.8 -11.4 L-7.9 -7.2 -8.0 -3.4 Q-8.0 -1.7 -8.25 0.0 L-8.4 1.2 -8.9 4.0 -9.6 7.8 Q-10.25 11.35 -11.45 14.8 L-11.9 16.6 -12.2 17.8 Q-13.45 21.15 -15.05 24.25 M0.35 -13.3 L0.35 -13.35 0.4 -13.35 0.35 -13.3" fill="#f02d0b" fill-rule="evenodd" stroke="none"/>
      <path d="M0.4 -13.35 L2.95 -12.45 3.15 -11.8 3.9 -9.2 4.05 -8.4 4.55 -4.6 4.65 -3.6 4.75 -2.8 4.9 0.8 4.85 1.6 4.55 5.2 4.3 7.4 4.15 8.4 4.0 9.2 3.7 11.4 3.65 12.0 2.9 15.45 Q2.3 17.3 1.85 19.2 1.55 20.45 0.85 21.45 0.1 22.55 -0.1 23.8 L-0.35 24.8 -1.0 26.25 -4.1 26.35 -5.6 26.4 Q-4.1 23.4 -3.0 20.0 L-2.3 17.85 -1.15 13.8 Q-0.4 10.1 0.05 6.2 L0.4 2.2 Q0.4 1.8 0.55 1.45 L0.65 0.4 0.45 -3.6 0.3 -5.0 0.05 -6.8 0.0 -7.4 -0.45 -11.2 -0.55 -12.2 -0.7 -12.75 -1.05 -13.95 -0.85 -13.85 -0.85 -13.7 0.35 -13.3 0.4 -13.35 M-9.65 25.9 L-13.9 25.0 -13.85 24.85 -15.05 24.25 Q-13.45 21.15 -12.2 17.8 L-11.9 16.6 -11.45 14.8 Q-10.25 11.35 -9.6 7.8 L-8.9 4.0 -8.4 1.2 -8.25 0.0 Q-8.0 -1.7 -8.0 -3.4 L-7.9 -7.2 -7.8 -11.4 Q-7.75 -14.3 -8.35 -17.05 L-8.2 -17.05 -8.0 -17.05 -7.3 -16.9 -6.65 -16.3 -6.9 -17.1 -4.55 -15.65 Q-3.5 -12.35 -3.55 -8.8 L-3.65 -1.0 -3.9 2.4 -4.65 8.6 -4.8 9.6 -6.7 17.2 -7.6 20.2 -9.5 25.35 -9.65 25.9" fill="#c62509" fill-rule="evenodd" stroke="none"/>
      <path d="M34.15 -2.05 L33.0 -3.25 32.7 -3.55 33.95 -3.85 35.25 -4.25 35.3 -4.15 36.5 -4.6 Q38.6 -5.65 40.45 -7.1 L41.25 -4.6 41.6 -2.95 41.4 -2.9 Q39.55 -2.3 37.65 -2.05 L36.15 -1.85 34.15 -2.05" fill="#0ecfe4" fill-rule="evenodd" stroke="none"/>
      <path d="M34.15 -2.05 L36.15 -1.85 37.65 -2.05 Q39.55 -2.3 41.4 -2.9 L41.6 -2.95 41.25 -4.6 40.45 -7.1 42.05 -8.5 47.25 -11.4 49.0 -11.2 50.75 -10.6 51.1 -10.2 Q51.65 -9.4 51.65 -8.45 L51.75 -8.0 51.45 -7.15 Q50.5 -5.35 49.05 -3.95 L46.3 -2.0 45.7 -1.7 45.65 -1.6 44.55 -0.95 44.55 -0.9 41.6 0.6 38.7 1.85 37.75 2.2 37.0 2.45 37.0 2.55 36.85 2.6 Q36.5 1.35 35.75 0.05 L35.6 -0.05 35.55 -0.05 34.5 -1.6 34.15 -2.05" fill="#0db5c8" fill-rule="evenodd" stroke="none"/>
    </g>
    <g id="sprite3" transform="matrix(1.0, 0.0, 0.0, 1.0, 28.75, 7.9)">
      <use height="15.8" transform="matrix(1.0, 0.0, 0.0, 1.0, -28.75, -7.9)" width="57.45" xlink:href="#shape3"/>
    </g>
    <g id="shape3" transform="matrix(1.0, 0.0, 0.0, 1.0, 28.75, 7.9)">
      <path d="M28.05 -2.25 L27.95 -2.1 Q25.55 -1.3 23.0 -1.05 L22.0 -0.95 Q18.85 -0.75 15.75 -1.05 L6.75 -2.15 -2.5 -3.35 -11.75 -3.7 -16.0 -3.4 -21.2 -2.25 Q-25.1 -1.05 -28.3 1.15 L-28.55 0.6 -28.6 0.5 -28.7 0.35 -28.65 0.3 -28.7 0.15 -28.7 -0.15 -27.5 -1.5 Q-26.15 -3.35 -24.05 -4.6 -18.6 -7.9 -12.15 -7.9 -4.7 -7.65 2.45 -5.45 9.1 -3.45 16.0 -2.75 L24.8 -2.5 25.7 -2.9 Q27.3 -2.9 28.05 -2.25" fill="#333333" fill-rule="evenodd" stroke="none"/>
      <path d="M-28.3 1.15 Q-25.1 -1.05 -21.2 -2.25 L-16.0 -3.4 -11.75 -3.7 -2.5 -3.35 6.75 -2.15 15.75 -1.05 Q18.85 -0.75 22.0 -0.95 L23.0 -1.05 Q25.55 -1.3 27.95 -2.1 L28.05 -2.25 28.15 -2.15 Q29.0 -1.3 28.55 0.6 28.25 1.95 27.05 2.65 24.05 4.45 20.45 4.65 14.9 5.0 9.4 4.55 1.8 4.0 -5.3 6.35 -12.5 8.75 -19.95 7.4 -26.1 6.3 -28.3 1.15" fill="#000000" fill-rule="evenodd" stroke="none"/>
    </g>
    <g id="sprite4" transform="matrix(1.0, 0.0, 0.0, 1.0, 39.75, 31.0)">
      <use height="60.2" transform="matrix(1.0, 0.0, 0.0, 1.0, -39.75, -31.0)" width="72.05" xlink:href="#shape4"/>
    </g>
    <g id="shape4" transform="matrix(1.0, 0.0, 0.0, 1.0, 39.75, 31.0)">
      <path d="M4.6 -15.75 L2.85 -18.0 1.85 -17.8 Q-0.1 -14.9 0.95 -11.6 L1.15 -12.3 Q2.0 -14.9 4.5 -15.65 L4.7 -15.6 4.6 -15.75 M3.8 -18.1 L4.4 -17.35 4.0 -18.2 Q2.9 -20.4 1.25 -22.25 L-0.25 -23.85 -0.35 -23.95 -0.25 -23.8 -0.4 -23.45 -1.05 -23.25 Q-2.65 -20.8 -2.15 -17.75 L-2.3 -17.55 -2.2 -16.9 -2.7 -17.6 Q-4.25 -20.65 -2.1 -23.35 L-1.45 -24.1 -0.55 -24.05 Q-7.6 -29.5 -16.55 -30.2 -21.15 -30.3 -24.95 -28.45 L-25.0 -28.35 -25.55 -28.1 -26.15 -27.8 -26.15 -27.85 Q-31.05 -25.7 -34.2 -21.4 L-36.55 -17.45 -36.45 -17.45 -37.7 -14.55 -37.85 -14.15 Q-39.55 -8.85 -38.35 -2.9 -38.0 -1.25 -37.25 0.3 -34.65 5.85 -29.45 9.7 L-27.5 10.85 -27.45 10.7 -27.4 10.6 -27.25 10.45 -27.25 10.35 -27.25 10.15 Q-26.25 8.35 -24.8 7.15 L-24.55 6.95 -24.55 6.8 -23.55 5.85 Q-22.2 4.75 -20.55 4.25 -12.95 2.9 -5.65 5.4 -3.9 6.05 -1.9 5.9 0.65 5.7 3.1 4.45 3.5 0.95 2.4 -2.25 0.3 -8.2 -0.1 -14.6 -0.3 -17.95 2.5 -19.0 L3.8 -18.1 M4.6 -18.35 Q8.5 -12.05 8.8 -4.55 10.6 -5.8 12.85 -6.2 L15.95 -6.4 Q18.4 -12.15 24.6 -12.05 28.55 -11.65 30.7 -8.35 33.15 -4.65 31.9 -0.35 30.7 3.75 27.1 5.85 26.7 12.05 22.9 16.75 L20.65 19.2 Q17.55 22.45 13.65 24.65 L12.05 25.05 8.3 25.6 -9.2 25.1 -12.7 24.95 Q-16.6 24.4 -20.1 22.85 -21.5 22.5 -22.9 21.7 L-24.95 20.35 -26.25 19.15 -27.05 17.75 -27.2 17.55 -27.5 17.2 Q-28.1 14.75 -27.75 12.2 L-27.7 12.1 Q-29.45 11.65 -30.9 10.2 L-32.3 8.85 Q-35.6 5.8 -37.7 1.85 -38.25 0.85 -38.4 -0.2 -41.1 -7.5 -38.45 -15.2 L-38.0 -16.9 -37.15 -18.7 -36.65 -19.75 -36.3 -20.1 -35.85 -20.85 -35.7 -21.0 Q-32.8 -25.7 -27.85 -28.25 L-26.2 -28.9 Q-23.5 -30.35 -20.2 -30.75 L-17.0 -31.0 Q-5.7 -30.8 1.65 -22.3 L4.6 -18.35 M1.25 -9.75 Q3.45 -3.1 3.8 3.95 5.2 2.85 6.2 1.4 3.6 -3.3 3.75 -8.65 3.55 -10.35 4.55 -11.5 L4.95 -11.7 5.55 -11.65 Q6.75 -8.85 7.05 -6.0 L6.05 -5.05 7.05 -4.65 7.15 -4.1 7.35 -3.85 7.6 -2.05 8.0 -3.2 7.8 -3.5 8.05 -3.8 Q7.5 -9.35 5.2 -14.5 2.25 -13.95 1.6 -11.0 L1.25 -9.75 M17.65 -5.65 L18.45 -5.6 Q19.35 -7.55 21.25 -8.9 L22.3 -9.25 Q26.35 -10.0 28.8 -6.6 L29.5 -6.75 29.0 -8.9 Q26.9 -11.2 23.95 -11.35 20.3 -11.5 18.25 -8.65 17.1 -7.15 17.65 -5.65 M14.4 -5.45 Q11.0 -5.25 8.55 -3.0 8.35 -1.3 7.65 0.2 4.65 6.45 -2.35 6.9 L-5.25 6.35 Q-11.2 4.7 -17.55 5.1 L-20.9 5.65 -22.85 6.7 -22.9 6.75 -24.55 8.3 -24.55 8.35 -25.45 9.35 Q-27.35 12.5 -26.45 15.55 -26.1 16.7 -25.35 17.85 -24.4 19.3 -22.95 20.15 L-22.1 20.6 Q-20.65 21.15 -19.5 22.1 -16.95 23.1 -14.05 23.25 L8.05 24.7 Q13.85 25.1 17.75 20.75 11.0 24.6 3.45 22.55 -0.3 21.5 -3.95 19.95 -6.2 19.0 -8.5 18.35 -10.45 18.9 -12.1 20.15 -12.9 20.65 -13.95 20.75 L-14.1 20.2 Q-8.9 15.6 -2.15 17.15 L-2.25 17.4 -6.5 17.95 Q-0.9 20.25 4.7 21.95 L6.95 22.45 Q14.3 22.75 20.0 18.1 25.4 13.7 25.75 6.85 25.85 4.05 24.65 1.55 21.45 -4.9 14.4 -5.45 M22.1 3.55 L21.15 3.7 20.45 2.45 20.85 1.9 21.35 1.7 21.7 1.75 Q22.45 2.35 22.25 3.35 L22.1 3.55 M20.85 8.65 L20.2 8.9 19.55 8.65 Q19.3 8.4 19.3 8.0 L19.55 7.4 Q19.8 7.1 20.2 7.1 20.55 7.1 20.85 7.4 L21.1 8.0 20.85 8.65 M18.25 3.6 L17.8 3.45 17.6 2.95 17.8 2.5 Q17.95 2.3 18.25 2.3 L18.75 2.5 18.95 2.95 18.75 3.45 18.25 3.6 M16.3 6.6 L16.85 6.8 17.05 7.35 16.85 7.9 16.3 8.1 15.8 7.9 15.55 7.35 Q15.55 7.0 15.8 6.8 L16.3 6.6 M-34.25 19.9 L-34.25 20.05 -34.3 20.05 -34.3 19.9 -34.25 19.9" fill="#000000" fill-rule="evenodd" stroke="none"/>
      <path d="M1.25 -9.75 L1.6 -11.0 Q2.25 -13.95 5.2 -14.5 7.5 -9.35 8.05 -3.8 L7.8 -3.5 8.0 -3.2 7.6 -2.05 7.35 -3.85 7.15 -4.1 7.05 -4.65 6.05 -5.05 7.05 -6.0 Q6.75 -8.85 5.55 -11.65 L4.95 -11.7 4.55 -11.5 Q3.55 -10.35 3.75 -8.65 3.6 -3.3 6.2 1.4 5.2 2.85 3.8 3.95 3.45 -3.1 1.25 -9.75" fill="#ffffff" fill-rule="evenodd" stroke="none"/>
      <path d="M-26.45 15.55 Q-26.1 14.55 -25.4 13.65 L-23.9 12.25 -23.85 12.3 -23.25 11.9 Q-18.1 8.25 -11.5 9.0 L0.2 9.7 4.6 9.25 Q8.3 8.55 10.75 5.65 14.8 0.85 14.4 -5.45 21.45 -4.9 24.65 1.55 25.85 4.05 25.75 6.85 25.4 13.7 20.0 18.1 14.3 22.75 6.95 22.45 L4.7 21.95 Q-0.9 20.25 -6.5 17.95 L-2.25 17.4 -2.15 17.15 Q-8.9 15.6 -14.1 20.2 L-13.95 20.75 Q-12.9 20.65 -12.1 20.15 -10.45 18.9 -8.5 18.35 -6.2 19.0 -3.95 19.95 -0.3 21.5 3.45 22.55 11.0 24.6 17.75 20.75 13.85 25.1 8.05 24.7 L-14.05 23.25 Q-16.95 23.1 -19.5 22.1 -20.65 21.15 -22.1 20.6 L-22.95 20.15 Q-24.4 19.3 -25.35 17.85 -26.1 16.7 -26.45 15.55 M16.3 6.6 L15.8 6.8 Q15.55 7.0 15.55 7.35 L15.8 7.9 16.3 8.1 16.85 7.9 17.05 7.35 16.85 6.8 16.3 6.6 M18.25 3.6 L18.75 3.45 18.95 2.95 18.75 2.5 18.25 2.3 Q17.95 2.3 17.8 2.5 L17.6 2.95 17.8 3.45 18.25 3.6 M20.85 8.65 L21.1 8.0 20.85 7.4 Q20.55 7.1 20.2 7.1 19.8 7.1 19.55 7.4 L19.3 8.0 Q19.3 8.4 19.55 8.65 L20.2 8.9 20.85 8.65 M22.1 3.55 L22.25 3.35 Q22.45 2.35 21.7 1.75 L21.35 1.7 20.85 1.9 20.45 2.45 21.15 3.7 22.1 3.55" fill="#a88b69" fill-rule="evenodd" stroke="none"/>
      <path d="M4.6 -15.75 L4.5 -15.65 Q2.0 -14.9 1.15 -12.3 L0.95 -11.6 Q-0.1 -14.9 1.85 -17.8 L2.85 -18.0 4.6 -15.75 M-20.55 4.25 Q-22.2 4.75 -23.55 5.85 L-24.55 6.8 -24.55 6.65 -24.75 7.0 -24.8 7.1 -24.8 7.15 Q-26.25 8.35 -27.25 10.15 L-27.25 10.35 -27.25 10.45 -27.4 10.6 -27.45 10.7 -27.5 10.85 -29.45 9.7 Q-34.65 5.85 -37.25 0.3 -38.0 -1.25 -38.35 -2.9 -39.55 -8.85 -37.85 -14.15 L-37.7 -14.55 -36.45 -17.45 -36.55 -17.45 -34.2 -21.4 Q-31.05 -25.7 -26.15 -27.85 L-26.15 -27.8 -25.55 -28.1 -25.0 -28.35 -24.95 -28.45 Q-21.15 -30.3 -16.55 -30.2 -7.6 -29.5 -0.55 -24.05 L-1.45 -24.1 -2.1 -23.35 Q-4.25 -20.65 -2.7 -17.6 -2.35 -14.65 -3.0 -11.85 -3.3 -10.7 -4.5 -10.75 -5.9 -11.85 -6.65 -13.5 L-8.25 -16.8 -10.65 -21.6 Q-12.5 -25.25 -16.35 -26.0 -19.75 -26.55 -21.65 -24.7 L-22.5 -23.7 -22.6 -23.85 -22.65 -23.8 -22.8 -23.65 Q-23.6 -22.3 -24.2 -20.45 L-24.3 -20.25 -24.55 -19.35 -24.55 -19.15 -24.65 -18.8 -24.55 -18.75 -24.8 -16.85 Q-25.6 -7.65 -22.0 1.05 L-20.55 4.25 M-25.25 -19.15 L-25.3 -18.55 -25.15 -19.1 -25.25 -19.15 M-25.7 -8.05 L-25.6 -8.05 -25.65 -8.15 -25.7 -8.05 -25.8 -9.6 -25.8 -7.9 -25.7 -8.05" fill="#0db5c8" fill-rule="evenodd" stroke="none"/>
      <path d="M4.0 -18.2 L3.8 -18.1 2.5 -19.0 Q-0.3 -17.95 -0.1 -14.6 0.3 -8.2 2.4 -2.25 3.5 0.95 3.1 4.45 0.65 5.7 -1.9 5.9 -3.9 6.05 -5.65 5.4 -12.95 2.9 -20.55 4.25 L-22.0 1.05 Q-25.6 -7.65 -24.8 -16.85 L-24.55 -18.75 -24.65 -18.8 -24.55 -19.15 -24.55 -19.35 -24.3 -20.25 -24.2 -20.45 Q-23.6 -22.3 -22.8 -23.65 L-22.65 -23.8 -22.6 -23.85 -22.5 -23.7 -21.65 -24.7 Q-19.75 -26.55 -16.35 -26.0 -12.5 -25.25 -10.65 -21.6 L-8.25 -16.8 -6.65 -13.5 Q-5.9 -11.85 -4.5 -10.75 -3.3 -10.7 -3.0 -11.85 -2.35 -14.65 -2.7 -17.6 L-2.2 -16.9 -2.3 -17.55 -2.15 -17.75 Q-2.65 -20.8 -1.05 -23.25 L-0.4 -23.45 -0.25 -23.8 -0.25 -23.85 1.25 -22.25 Q2.9 -20.4 4.0 -18.2" fill="#0ecfe4" fill-rule="evenodd" stroke="none"/>
      <path d="M-24.55 6.8 L-24.55 6.95 -24.8 7.15 -24.8 7.1 -24.75 7.0 -24.55 6.65 -24.55 6.8 M17.65 -5.65 Q17.1 -7.15 18.25 -8.65 20.3 -11.5 23.95 -11.35 26.9 -11.2 29.0 -8.9 L29.5 -6.75 28.8 -6.6 Q26.35 -10.0 22.3 -9.25 L21.25 -8.9 Q19.35 -7.55 18.45 -5.6 L17.65 -5.65 M-25.25 -19.15 L-25.15 -19.1 -25.3 -18.55 -25.25 -19.15 M-25.7 -8.05 L-25.8 -7.9 -25.8 -9.6 -25.7 -8.05 M-37.65 29.0 L-37.65 29.05 -37.65 29.2 -37.65 29.0" fill="#999999" fill-rule="evenodd" stroke="none"/>
      <path d="M-24.55 8.3 L-22.9 6.75 -22.85 6.7 -20.9 5.65 -17.55 5.1 Q-11.2 4.7 -5.25 6.35 L-2.35 6.9 Q4.65 6.45 7.65 0.2 8.35 -1.3 8.55 -3.0 11.0 -5.25 14.4 -5.45 14.8 0.85 10.75 5.65 8.3 8.55 4.6 9.25 L0.2 9.7 -11.5 9.0 Q-18.1 8.25 -23.25 11.9 L-23.85 12.3 -23.85 12.2 -23.9 12.25 -25.4 13.65 Q-26.1 14.55 -26.45 15.55 -27.35 12.5 -25.45 9.35 L-24.55 8.35 -24.55 8.3" fill="#c19f79" fill-rule="evenodd" stroke="none"/>
    </g>
    <g id="sprite5" transform="matrix(1.0, 0.0, 0.0, 1.0, 45.95, 13.7)">
      <use height="27.45" transform="matrix(1.0, 0.0, 0.0, 1.0, -45.75, -13.7)" width="91.6" xlink:href="#shape5"/>
    </g>
    <g id="shape5" transform="matrix(1.0, 0.0, 0.0, 1.0, 45.75, 13.7)">
      <path d="M22.65 -5.75 Q16.5 -7.0 10.2 -7.35 L4.75 -7.7 Q-1.35 -8.25 -7.4 -7.45 L-7.05 -6.75 -6.4 -5.0 -6.35 -4.7 Q-5.7 -1.95 -6.65 0.7 L-6.9 1.35 -5.45 1.05 -2.7 0.8 -0.55 0.55 Q6.4 0.35 13.25 0.8 L23.1 1.5 24.95 1.9 25.2 2.0 25.55 -0.95 Q25.5 -3.2 24.9 -5.3 L23.95 -5.5 22.65 -5.75 M20.1 -12.25 L20.9 -12.8 21.45 -13.15 22.05 -13.3 Q24.55 -13.05 26.7 -12.1 L26.95 -12.1 37.55 -11.1 Q40.2 -10.55 42.3 -8.75 L42.8 -8.3 42.9 -8.35 43.45 -7.4 Q43.85 -6.65 44.45 -6.2 L45.3 -4.1 45.8 -1.65 Q46.2 2.6 43.05 6.4 37.5 13.05 28.65 12.2 L27.85 11.85 Q24.95 11.6 22.1 10.55 L21.8 10.35 Q20.25 9.9 19.55 8.15 18.45 5.4 17.9 2.6 6.25 1.6 -5.45 2.5 L-7.55 2.65 Q-9.2 5.25 -12.1 4.35 -15.2 6.4 -17.2 9.7 -20.1 14.4 -25.55 13.65 -27.5 13.4 -28.35 11.75 -29.5 9.5 -27.35 8.15 -25.85 7.2 -25.4 5.65 -25.1 4.65 -25.4 3.75 -25.75 2.55 -26.8 2.05 L-37.3 1.65 -40.45 1.1 Q-43.05 0.05 -44.7 -2.1 L-44.9 -2.4 Q-45.95 -4.05 -45.7 -6.05 -45.4 -8.1 -43.9 -9.55 -42.05 -11.35 -39.75 -12.15 L-35.75 -13.3 -32.7 -13.7 Q-25.05 -13.7 -18.4 -10.25 L-16.95 -9.4 -16.55 -10.05 Q-15.7 -11.05 -14.45 -11.45 -10.25 -11.5 -8.05 -8.55 L-6.65 -8.9 -6.05 -9.0 -6.05 -9.05 Q0.95 -9.5 7.8 -8.9 L17.7 -7.95 Q17.75 -8.7 18.15 -9.45 L18.9 -10.85 20.1 -12.25 M20.15 -7.65 L21.0 -7.55 22.6 -7.35 24.35 -6.85 23.7 -8.6 22.4 -10.6 21.55 -11.45 21.4 -11.45 21.15 -11.45 20.25 -10.45 19.65 -9.6 19.25 -8.65 18.95 -7.8 20.1 -7.65 20.15 -7.65 M29.6 -10.5 L29.05 -10.4 27.3 -10.15 Q26.4 -10.45 25.45 -11.0 L23.8 -11.65 23.1 -11.8 24.7 -9.8 Q26.4 -6.4 26.7 -2.6 26.9 0.05 26.45 2.45 25.8 5.85 23.8 8.85 L23.45 9.55 26.1 10.2 26.3 10.1 27.55 10.5 29.85 10.85 31.9 11.05 Q34.35 10.85 36.5 9.9 L36.55 9.75 Q37.55 9.5 38.4 8.8 L38.8 8.5 38.7 8.65 41.55 6.15 Q43.95 3.6 44.6 0.25 L44.5 0.15 44.45 -0.5 43.9 -3.85 Q43.25 -6.5 40.9 -8.15 39.2 -9.3 37.3 -9.9 36.15 -10.5 34.8 -10.55 L34.6 -10.5 31.9 -10.5 29.6 -10.5 M-8.0 0.8 L-7.95 0.7 -7.85 0.3 Q-6.85 -3.15 -8.35 -6.45 -10.0 -10.2 -14.3 -10.1 L-15.1 -9.55 -15.95 -8.7 -15.85 -8.6 -15.8 -8.6 -15.55 -8.55 -15.45 -8.45 -13.6 -6.2 -13.4 -5.9 -12.8 -4.95 Q-11.75 -3.1 -11.25 -0.95 L-11.2 -0.7 -11.2 0.45 -11.25 0.9 Q-11.55 1.2 -11.85 0.9 -12.9 -2.85 -15.05 -6.1 L-15.15 -6.2 -18.75 -8.95 Q-24.7 -12.2 -31.6 -12.3 -35.75 -12.35 -39.5 -11.1 L-42.2 -9.25 Q-44.1 -7.9 -44.7 -5.75 -44.6 -4.15 -43.9 -2.95 -42.85 -1.0 -40.3 -0.15 L-39.05 0.2 -28.8 0.55 -27.4 0.6 Q-25.6 0.8 -24.45 2.1 L-24.45 2.2 -24.45 2.4 -24.45 2.45 -24.55 2.5 Q-23.5 4.05 -24.4 6.45 -25.0 8.15 -26.5 9.25 -28.45 10.6 -26.45 11.85 -24.0 13.35 -21.4 11.9 -18.6 10.4 -17.0 7.55 -15.45 4.85 -12.8 3.35 L-12.6 3.15 -12.5 3.1 -12.35 3.15 -11.9 3.2 Q-9.05 3.6 -8.0 0.8 M-36.85 -4.2 L-36.75 -4.5 Q-36.5 -5.3 -35.75 -5.8 L-35.35 -5.8 -33.45 -6.1 Q-27.6 -6.2 -22.55 -3.45 L-22.3 -3.35 -22.2 -3.25 -22.1 -3.2 -22.05 -3.0 -22.0 -2.9 -22.05 -2.8 -22.1 -2.7 -22.1 -2.6 -22.2 -2.55 -27.6 -3.25 -30.1 -3.4 -32.65 -3.2 -36.8 -2.55 Q-37.0 -2.5 -37.1 -2.7 L-37.1 -3.35 -36.85 -4.2 M-31.3 -11.4 Q-25.85 -11.25 -21.65 -8.2 L-21.65 -8.15 -21.65 -7.95 -21.7 -7.85 -21.75 -7.8 -21.8 -7.7 -24.35 -8.2 Q-29.2 -9.5 -34.2 -8.3 -34.95 -8.1 -35.5 -8.55 -35.7 -9.25 -35.15 -9.8 L-33.5 -11.25 -33.35 -11.35 -31.8 -11.35 -31.3 -11.4 M-33.65 -9.85 L-33.7 -9.75 -33.65 -9.75 -29.1 -10.1 -31.25 -10.35 -33.25 -10.15 -33.4 -10.1 -33.6 -9.95 -33.65 -9.85 M-35.55 -4.05 L-35.1 -4.1 -29.3 -4.65 -30.9 -5.0 -32.05 -5.05 -35.3 -4.65 -35.5 -4.6 -35.5 -4.5 -35.55 -4.3 -35.55 -4.2 -35.55 -4.15 -35.6 -4.05 -35.55 -4.05 M22.05 9.05 L22.95 7.95 23.7 6.25 24.9 3.2 22.5 3.05 18.95 2.7 Q20.15 5.95 21.9 8.95 L22.0 9.15 22.05 9.05" fill="#000000" fill-rule="evenodd" stroke="none"/>
      <path d="M21.9 8.95 L22.05 9.05 22.0 9.15 21.9 8.95" fill="#9f0000" fill-rule="evenodd" stroke="none"/>
      <path d="M-43.9 -2.95 Q-44.6 -4.15 -44.7 -5.75 -44.1 -7.9 -42.2 -9.25 L-39.5 -11.1 Q-35.75 -12.35 -31.6 -12.3 -24.7 -12.2 -18.75 -8.95 L-15.15 -6.2 -15.05 -6.1 Q-12.9 -2.85 -11.85 0.9 -11.55 1.2 -11.25 0.9 L-11.2 0.45 -11.2 -0.7 -11.25 -0.95 Q-11.75 -3.1 -12.8 -4.95 L-13.4 -5.9 -13.6 -6.2 -15.45 -8.45 -15.55 -8.55 -15.8 -8.6 -15.85 -8.6 -15.95 -8.7 -15.1 -9.55 -14.3 -10.1 Q-10.0 -10.2 -8.35 -6.45 -6.85 -3.15 -7.85 0.3 L-7.95 0.7 -8.0 0.8 -8.15 0.7 -9.65 1.05 -13.9 2.35 -15.9 2.9 -16.65 3.0 -18.15 2.9 Q-18.8 2.7 -19.35 2.3 L-21.25 0.4 -22.2 -0.55 -22.85 -0.95 -23.7 -1.25 -24.9 -1.65 Q-27.4 -2.75 -30.1 -3.4 L-27.6 -3.25 -22.2 -2.55 -22.1 -2.6 -22.1 -2.7 -22.05 -2.8 -22.0 -2.9 -22.05 -3.0 -22.1 -3.2 -22.2 -3.25 -22.3 -3.35 -22.55 -3.45 Q-27.6 -6.2 -33.45 -6.1 L-35.35 -5.8 -35.75 -5.8 Q-36.5 -5.3 -36.75 -4.5 L-36.85 -4.2 -37.15 -4.25 Q-40.8 -4.55 -43.9 -2.95 M-31.3 -11.4 L-31.8 -11.35 -33.35 -11.35 -33.5 -11.25 -35.15 -9.8 Q-35.7 -9.25 -35.5 -8.55 -34.95 -8.1 -34.2 -8.3 -29.2 -9.5 -24.35 -8.2 L-21.8 -7.7 -21.75 -7.8 -21.7 -7.85 -21.65 -7.95 -21.65 -8.15 -21.65 -8.2 Q-25.85 -11.25 -31.3 -11.4 M-33.65 -9.85 L-33.6 -9.95 -33.4 -10.1 -33.25 -10.15 -31.25 -10.35 -29.1 -10.1 -33.65 -9.75 -33.65 -9.85 M-35.55 -4.2 L-35.55 -4.3 -35.5 -4.5 -35.5 -4.6 -35.3 -4.65 -32.05 -5.05 -30.9 -5.0 -29.3 -4.65 -35.1 -4.1 -35.55 -4.05 -35.55 -4.2" fill="#ffffff" fill-rule="evenodd" stroke="none"/>
      <path d="M-43.9 -2.95 Q-40.8 -4.55 -37.15 -4.25 L-36.85 -4.2 -37.1 -3.35 -37.1 -2.7 Q-37.0 -2.5 -36.8 -2.55 L-32.65 -3.2 -30.1 -3.4 Q-27.4 -2.75 -24.9 -1.65 L-23.7 -1.25 -22.85 -0.95 -22.2 -0.55 -21.25 0.4 -19.35 2.3 Q-18.8 2.7 -18.15 2.9 L-16.65 3.0 -15.9 2.9 -13.9 2.35 -9.65 1.05 -8.15 0.7 -8.0 0.8 Q-9.05 3.6 -11.9 3.2 L-12.35 3.15 -12.5 3.1 -12.6 3.15 -12.8 3.35 Q-15.45 4.85 -17.0 7.55 -18.6 10.4 -21.4 11.9 -24.0 13.35 -26.45 11.85 -28.45 10.6 -26.5 9.25 -25.0 8.15 -24.4 6.45 -23.5 4.05 -24.55 2.5 L-24.45 2.45 -24.45 2.4 -24.45 2.2 -24.45 2.1 Q-25.6 0.8 -27.4 0.6 L-28.8 0.55 -39.05 0.2 -40.3 -0.15 Q-42.85 -1.0 -43.9 -2.95" fill="#cccccc" fill-rule="evenodd" stroke="none"/>
      <path d="M29.6 -10.5 L31.9 -10.5 34.6 -10.5 34.8 -10.55 Q36.15 -10.5 37.3 -9.9 39.2 -9.3 40.9 -8.15 43.25 -6.5 43.9 -3.85 L44.45 -0.5 44.5 0.15 44.6 0.25 Q43.95 3.6 41.55 6.15 L38.7 8.65 38.8 8.5 38.4 8.8 Q37.55 9.5 36.55 9.75 L36.5 9.9 Q34.35 10.85 31.9 11.05 L29.85 10.85 27.55 10.5 26.3 10.1 26.1 10.2 23.45 9.55 23.8 8.85 Q25.8 5.85 26.45 2.45 26.9 0.05 26.7 -2.6 26.4 -6.4 24.7 -9.8 L23.1 -11.8 23.8 -11.65 25.45 -11.0 Q26.4 -10.45 27.3 -10.15 L29.05 -10.4 29.6 -10.5" fill="#f02d0b" fill-rule="evenodd" stroke="none"/>
      <path d="M20.15 -7.65 L20.1 -7.65 18.95 -7.8 19.25 -8.65 19.65 -9.6 20.25 -10.45 21.15 -11.45 21.4 -11.45 21.55 -11.45 22.4 -10.6 23.7 -8.6 24.35 -6.85 22.6 -7.35 21.0 -7.55 20.15 -7.65 M21.9 8.95 Q20.15 5.95 18.95 2.7 L22.5 3.05 24.9 3.2 23.7 6.25 22.95 7.95 22.05 9.05 21.9 8.95" fill="#a01f07" fill-rule="evenodd" stroke="none"/>
      <path d="M22.65 -5.75 Q23.65 -4.35 24.1 -2.65 24.25 -2.15 23.85 -1.95 23.35 -1.65 22.8 -1.5 L18.35 -1.2 11.6 -1.85 1.85 -2.15 0.4 -2.0 Q-1.95 -1.45 -3.9 -2.65 L-4.55 -3.25 -6.35 -4.7 -6.4 -5.0 -7.05 -6.75 -7.4 -7.45 Q-1.35 -8.25 4.75 -7.7 L10.2 -7.35 Q16.5 -7.0 22.65 -5.75" fill="#0ecfe4" fill-rule="evenodd" stroke="none"/>
      <path d="M-6.35 -4.7 L-4.55 -3.25 -3.9 -2.65 Q-1.95 -1.45 0.4 -2.0 L1.85 -2.15 11.6 -1.85 18.35 -1.2 22.8 -1.5 Q23.35 -1.65 23.85 -1.95 24.25 -2.15 24.1 -2.65 23.65 -4.35 22.65 -5.75 L23.95 -5.5 24.9 -5.3 Q25.5 -3.2 25.55 -0.95 L25.2 2.0 24.95 1.9 23.1 1.5 13.25 0.8 Q6.4 0.35 -0.55 0.55 L-2.7 0.8 -5.45 1.05 -6.9 1.35 -6.65 0.7 Q-5.7 -1.95 -6.35 -4.7" fill="#0db5c8" fill-rule="evenodd" stroke="none"/>
    </g>
  </defs>
</svg>
