<?xml version="1.0" encoding="UTF-8" standalone="no"?>
<svg xmlns:xlink="http://www.w3.org/1999/xlink" height="266.8px" width="199.8px" xmlns="http://www.w3.org/2000/svg">
  <g transform="matrix(1.0, 0.0, 0.0, 1.0, 103.15, 132.15)">
    <path d="M-20.45 -123.8 Q-18.95 -126.65 -16.9 -128.7 -13.85 -131.7 -9.65 -132.1 -7.6 -132.3 -5.15 -131.45 -2.7 -130.55 -0.5 -128.2 1.7 -125.8 3.0 -121.45 4.25 -116.85 5.25 -111.0 L6.95 -98.75 8.2 -86.35 9.05 -75.45 9.5 -67.7 9.65 -64.75 14.05 -61.1 14.15 -61.0 15.35 -59.75 15.75 -61.35 16.5 -63.25 17.35 -64.95 Q18.5 -67.0 20.65 -68.75 L23.15 -70.55 Q24.95 -71.75 27.9 -72.9 30.9 -74.0 35.15 -74.4 L45.0 -73.7 Q55.4 -71.65 60.3 -66.2 65.2 -60.75 64.35 -51.45 63.9 -47.25 62.4 -44.05 60.9 -40.8 59.1 -38.6 57.35 -36.4 56.0 -35.25 L55.9 -35.1 54.65 -34.1 53.75 -0.2 55.95 -0.95 61.6 -2.95 Q63.95 -3.75 66.55 -3.4 69.15 -3.05 71.25 -1.7 73.35 -0.35 74.15 1.9 L75.9 7.05 79.65 17.85 84.6 32.05 90.0 47.6 95.15 62.2 96.5 66.05 96.4 66.1 Q97.2 69.8 95.65 72.45 94.25 74.85 91.4 76.4 L88.9 77.5 83.15 79.6 70.25 84.2 52.25 90.65 31.1 98.15 8.9 106.1 -12.45 113.7 -30.95 120.25 -35.5 121.9 -44.55 125.1 -51.25 127.45 Q-56.3 129.1 -59.75 127.85 -62.7 126.75 -64.15 123.9 L-64.4 124.0 -68.55 112.9 -73.6 99.1 -78.65 85.4 -83.05 73.3 -86.3 64.45 -87.75 60.4 Q-88.5 58.05 -88.1 55.75 L-87.95 55.2 Q-87.5 53.15 -86.15 51.5 -84.65 49.6 -82.0 48.55 L-81.2 48.25 -78.8 47.4 -76.3 46.55 -75.35 46.25 -75.8 43.65 -76.6 36.75 Q-77.0 32.3 -76.85 26.55 -76.75 20.8 -75.65 14.25 -74.5 7.75 -72.6 2.75 -70.75 -2.2 -68.85 -5.6 L-65.6 -10.7 -64.25 -12.45 -65.15 -13.8 -67.2 -17.15 -69.5 -21.2 -71.25 -24.7 -72.7 -28.55 -75.15 -35.25 -78.0 -43.3 -80.8 -51.0 -82.85 -56.8 -83.65 -59.1 -85.15 -59.9 Q-86.55 -60.65 -88.35 -61.9 L-91.5 -64.7 -94.3 -68.55 Q-95.8 -70.95 -96.85 -74.05 -97.95 -77.2 -98.0 -80.95 -97.95 -84.8 -96.5 -88.15 L-95.25 -90.55 Q-94.15 -92.5 -92.65 -94.2 -90.3 -96.95 -87.5 -98.95 -84.1 -101.3 -79.95 -102.3 L-71.95 -103.45 -70.55 -103.5 -65.6 -103.45 -63.0 -103.2 -63.7 -104.75 Q-64.4 -106.25 -65.1 -108.7 -65.85 -111.15 -66.0 -113.95 -66.15 -116.6 -65.35 -119.2 -64.6 -121.75 -62.75 -123.7 -60.85 -125.6 -57.75 -126.25 -54.65 -126.9 -50.5 -125.45 -47.45 -124.3 -44.0 -121.7 -40.6 -119.1 -37.2 -115.9 L-31.1 -109.7 -28.75 -107.1 -26.7 -104.75 -25.0 -102.75 -24.8 -104.8 -24.2 -109.7 -23.15 -115.7 Q-22.55 -118.8 -21.65 -121.1 L-20.45 -123.8 M41.9 -64.85 L37.3 -64.75 Q34.55 -64.55 31.6 -63.75 28.6 -62.9 26.35 -61.05 24.1 -59.15 23.45 -55.85 22.65 -51.45 22.85 -49.15 23.05 -46.85 23.6 -45.95 L24.6 -44.6 Q25.15 -43.95 26.05 -43.7 L27.55 -43.8 28.0 -42.85 Q28.45 -41.95 29.6 -41.1 30.75 -40.3 32.9 -40.45 L35.8 -40.7 36.7 -40.55 36.75 -40.4 36.65 -40.0 Q36.6 -39.65 36.85 -39.3 37.1 -38.95 38.0 -38.9 L35.9 -8.75 18.85 2.3 17.7 -0.6 10.05 3.1 8.85 3.3 7.75 2.2 3.65 2.0 1.05 2.55 0.2 2.95 -3.4 1.4 -7.2 1.35 -6.3 -2.1 -5.8 0.45 -0.1 0.35 -0.15 -5.95 1.3 0.15 6.85 -1.1 6.5 -6.9 8.1 -7.65 Q9.7 -8.35 11.9 -9.65 14.15 -11.0 16.25 -12.8 18.35 -14.6 19.45 -16.75 L21.55 -21.15 Q22.5 -23.35 22.7 -25.65 22.85 -27.9 21.65 -30.3 20.45 -32.65 17.25 -35.1 L17.3 -36.8 Q17.25 -38.45 16.45 -40.65 15.65 -42.85 13.4 -44.65 L12.65 -46.75 13.4 -47.55 10.85 -49.1 9.95 -50.95 Q9.05 -52.7 6.9 -55.2 4.8 -57.7 1.2 -60.0 L1.1 -61.35 0.85 -64.35 0.75 -67.4 Q0.7 -73.1 0.25 -79.1 -0.2 -85.15 -0.9 -90.9 L-2.35 -101.55 -3.65 -109.9 -4.45 -114.75 Q-4.95 -118.25 -5.95 -120.65 -6.9 -123.1 -8.4 -123.4 -9.4 -123.45 -10.65 -122.1 -11.9 -120.75 -12.95 -118.85 L-14.4 -115.3 Q-15.55 -110.1 -15.95 -104.85 -16.3 -99.6 -16.15 -94.95 L-15.7 -86.95 -15.05 -82.2 -14.0 -78.8 -12.1 -73.9 -10.0 -68.8 -8.25 -64.75 -7.55 -63.1 -8.45 -63.2 -10.9 -62.95 Q-12.45 -62.6 -14.4 -61.45 L-15.05 -63.25 -16.6 -67.55 -18.6 -72.9 -20.55 -77.85 -21.85 -80.9 -24.15 -84.85 -29.0 -92.3 Q-32.05 -96.65 -35.95 -101.4 -39.9 -106.15 -44.4 -110.3 -48.95 -114.45 -53.9 -117.15 L-56.45 -117.05 Q-57.15 -116.05 -56.95 -114.05 -56.8 -112.1 -56.0 -110.15 L-54.6 -106.65 -52.7 -101.7 -50.75 -96.65 -49.2 -92.7 -48.6 -91.1 -47.5 -89.3 -44.85 -84.95 -41.6 -79.6 -38.7 -74.85 -37.1 -72.3 -35.2 -70.1 -31.6 -66.1 -27.55 -61.6 -24.2 -57.95 -22.85 -56.45 -24.35 -54.55 Q-25.8 -52.65 -28.25 -48.05 -29.95 -44.65 -30.7 -40.55 -31.45 -36.4 -32.35 -32.55 L-33.7 -29.0 -35.2 -25.05 Q-35.85 -23.05 -35.65 -21.35 -35.45 -19.6 -34.45 -17.15 -33.45 -14.75 -30.7 -12.25 -27.9 -9.75 -22.35 -7.8 -18.45 -6.5 -15.65 -5.85 L-15.8 1.1 -21.95 0.95 -24.35 2.0 -29.9 -2.25 -34.05 -9.35 -36.7 -7.3 -52.5 -28.9 -67.7 -67.25 -66.55 -67.85 Q-66.35 -68.3 -66.5 -68.65 L-66.65 -69.05 -66.65 -69.2 -65.7 -69.5 -62.6 -69.8 Q-60.35 -70.0 -59.25 -71.05 -58.2 -72.1 -57.85 -73.15 -57.55 -74.15 -57.6 -74.25 L-56.0 -74.35 Q-55.05 -74.8 -54.6 -75.6 L-53.8 -77.15 Q-53.4 -78.2 -53.55 -80.65 -53.75 -83.05 -55.35 -87.6 -56.65 -90.95 -59.4 -92.55 -62.2 -94.15 -65.55 -94.5 -68.85 -94.85 -71.9 -94.6 L-76.8 -93.9 Q-80.3 -93.2 -82.2 -91.45 -84.1 -89.7 -85.4 -87.95 L-87.45 -85.45 Q-88.55 -84.05 -89.0 -82.3 -89.4 -80.6 -88.45 -78.5 -87.4 -76.4 -85.8 -74.9 -84.2 -73.4 -82.9 -72.6 L-81.6 -71.8 -81.95 -71.15 -82.5 -69.55 Q-82.7 -68.6 -82.35 -67.5 -81.9 -66.45 -80.5 -66.2 L-77.85 -66.1 -76.5 -66.3 -75.65 -63.95 -73.45 -57.95 -70.6 -50.05 -67.65 -41.75 -65.25 -34.8 -64.05 -30.85 Q-63.45 -27.95 -62.3 -25.65 L-59.5 -20.85 -57.55 -18.25 -53.85 -13.4 -49.7 -7.9 -46.25 -3.45 -44.85 -1.6 -50.9 2.5 -41.75 15.2 -40.6 24.8 -41.0 25.65 -40.1 41.7 -37.35 39.9 -36.15 39.1 -36.15 39.85 -35.05 39.7 -32.55 39.4 -29.9 38.95 -28.2 38.4 Q-27.4 37.8 -25.5 36.95 -23.6 36.1 -20.6 35.5 -17.6 34.95 -15.1 34.0 -12.6 33.1 -11.2 32.25 L-8.65 30.9 -4.75 28.95 -1.2 27.25 0.35 26.5 1.3 26.4 3.5 26.2 6.1 25.85 8.05 25.35 10.25 24.35 13.5 22.85 13.6 21.0 23.75 17.6 Q24.6 16.55 25.5 16.4 L22.8 10.75 24.55 9.6 28.8 6.85 34.0 3.45 38.6 0.45 41.15 -1.1 Q42.45 -1.9 43.55 -3.7 44.6 -5.45 44.8 -7.2 L45.0 -10.9 45.2 -17.35 45.35 -24.95 45.5 -32.3 45.6 -37.8 45.65 -39.95 46.4 -40.05 Q47.1 -40.1 47.95 -40.45 48.8 -40.8 49.25 -41.55 49.75 -42.65 49.55 -43.45 L49.25 -44.3 50.5 -45.45 53.0 -48.4 Q54.35 -50.2 55.05 -52.35 55.6 -54.4 54.9 -55.95 54.25 -57.5 53.0 -58.6 L50.75 -60.6 47.25 -63.35 Q45.2 -64.7 41.9 -64.85 M22.0 -15.55 L20.4 -13.1 21.9 -11.95 27.2 -6.45 30.85 -8.85 33.2 -10.35 33.25 -11.25 30.6 -14.05 27.1 -16.25 24.65 -19.65 24.05 -19.95 22.45 -16.45 22.0 -15.55 M50.7 75.35 L51.25 76.0 Q52.0 76.7 53.0 77.15 L55.1 77.6 57.15 77.2 64.6 74.15 64.65 74.1 65.5 73.7 67.5 72.85 69.55 72.0 70.65 71.55 71.75 71.25 73.9 70.65 76.0 70.1 76.95 69.85 80.7 68.6 81.25 68.4 Q81.65 68.25 81.75 68.25 83.35 67.65 84.3 66.3 85.2 64.95 85.25 63.25 L84.95 61.55 84.4 60.05 83.25 56.65 82.1 53.3 81.55 51.8 Q80.7 49.45 78.35 48.55 L78.0 48.5 77.15 46.2 76.25 43.75 75.6 41.9 76.0 40.0 75.85 38.6 73.0 28.55 Q72.35 26.35 70.4 25.3 68.35 24.3 66.2 25.0 L65.1 25.4 63.05 26.1 62.1 26.5 62.1 26.45 55.55 29.0 54.05 29.5 49.05 31.3 47.85 31.8 45.25 32.85 42.75 33.9 Q41.65 34.3 41.6 34.35 L40.2 35.2 39.9 35.3 33.2 37.35 33.0 37.4 32.8 37.5 27.9 39.45 Q26.45 40.05 26.1 40.2 L25.95 40.3 27.25 40.1 Q26.5 40.15 24.75 40.7 L19.45 42.5 19.3 42.6 16.45 43.4 13.25 44.35 12.65 44.55 12.05 44.75 Q11.25 45.0 10.55 45.55 L9.8 45.75 -1.45 49.65 Q-2.15 49.85 -2.7 50.25 L-4.9 50.7 -15.4 55.15 Q-17.25 56.0 -18.05 57.8 -19.05 57.05 -20.25 56.75 L-22.7 56.85 -28.2 58.55 -28.55 58.65 -28.9 58.8 -29.9 59.25 -32.0 60.25 -34.15 61.2 -35.1 61.65 -36.05 62.25 -37.35 62.5 -48.9 66.65 Q-50.85 67.4 -51.8 69.35 L-51.8 69.3 Q-52.8 68.8 -53.95 68.75 L-56.1 69.1 -67.3 73.5 Q-68.85 74.1 -69.75 75.45 -70.65 76.75 -70.65 78.4 L-70.5 79.75 -70.2 80.85 -69.55 83.25 -68.9 85.65 -68.6 86.75 -68.35 87.55 -67.95 88.45 -67.0 90.5 -66.1 92.55 -65.6 93.65 -65.2 94.7 -64.4 96.85 -63.6 99.0 -63.2 99.95 -63.05 100.25 -62.9 100.6 -59.2 107.65 Q-58.3 109.4 -56.5 110.1 L-48.55 113.25 -45.75 113.55 -44.45 113.35 -41.6 112.85 -38.75 112.35 -37.5 112.15 -36.95 111.9 -35.9 111.5 -35.35 111.3 -34.3 110.55 -32.05 109.0 -29.75 107.4 -28.75 106.7 -28.35 106.25 -27.65 105.5 -27.25 105.1 -25.15 101.7 Q-24.15 103.25 -22.45 103.85 -20.8 104.45 -19.0 103.85 L-17.35 103.3 -13.75 102.0 -10.1 100.75 -8.5 100.15 -6.55 98.9 Q-5.7 98.1 -5.3 97.0 -4.2 97.9 -2.9 98.15 L-0.2 97.95 1.55 97.3 5.45 95.9 9.3 94.5 11.05 93.9 Q12.1 93.5 12.9 92.75 L13.8 92.5 25.2 88.2 Q27.2 87.4 28.1 85.4 L28.25 84.85 28.45 83.8 28.55 83.25 28.5 81.3 Q29.35 83.25 31.3 84.1 L35.05 84.45 35.3 84.35 46.6 80.7 Q48.25 80.15 49.25 78.8 50.2 77.45 50.25 75.7 L50.7 75.35 M82.45 62.45 L82.6 63.3 Q82.6 64.1 82.1 64.8 L80.85 65.8 80.35 65.95 79.85 66.15 78.95 66.45 77.2 67.0 76.25 67.35 75.3 67.6 73.15 68.2 70.9 68.8 69.75 69.1 Q69.6 69.15 68.6 69.55 67.65 69.95 66.45 70.5 L64.35 71.35 63.4 71.75 63.55 71.75 56.15 74.8 54.05 74.75 Q53.05 74.3 52.65 73.25 L49.95 65.55 49.9 65.4 49.65 64.5 49.15 62.4 48.65 60.3 48.35 59.15 47.65 57.25 46.55 54.45 Q46.0 53.1 45.65 52.85 L44.15 52.95 41.85 53.45 Q40.75 53.75 40.6 54.05 40.55 54.65 40.95 55.5 L41.45 56.45 41.75 57.35 42.5 59.35 43.2 61.35 43.55 62.25 45.75 68.15 45.8 68.3 47.5 75.1 47.6 75.7 Q47.6 76.6 47.1 77.25 46.6 77.95 45.75 78.25 L34.45 81.85 32.55 81.75 Q31.6 81.3 31.2 80.3 L30.8 79.3 29.95 77.05 29.05 74.8 28.65 73.8 28.35 72.95 27.75 71.05 27.1 69.15 26.75 68.1 26.0 66.6 24.75 64.1 24.1 62.8 23.9 62.35 23.75 61.85 23.45 60.95 23.1 60.4 22.0 60.45 20.25 60.85 19.15 61.5 19.25 62.3 19.4 62.95 19.75 63.95 20.55 66.25 21.35 68.55 21.7 69.65 21.9 70.6 22.45 72.7 22.95 74.85 23.25 75.95 23.65 77.05 24.55 79.25 25.35 81.4 25.75 82.35 25.95 83.3 25.7 84.35 Q25.25 85.35 24.25 85.75 L12.85 90.1 11.6 90.25 Q11.15 91.1 10.15 91.45 L-1.1 95.5 -2.55 95.6 Q-3.25 95.45 -3.8 94.95 L-6.9 92.1 -8.7 90.4 -8.05 93.2 -7.7 94.65 -7.6 95.25 Q-7.65 96.1 -8.1 96.75 -8.55 97.45 -9.35 97.75 L-19.9 101.4 Q-20.85 101.75 -21.75 101.4 -22.65 101.0 -23.1 100.1 L-25.05 96.15 -25.4 97.05 -29.5 103.75 -30.25 104.55 -36.9 109.15 -37.95 109.6 -46.2 111.0 -47.6 110.85 -55.55 107.7 -56.9 106.5 -60.65 99.4 -60.8 99.05 -62.5 94.6 -63.2 92.7 -63.65 91.65 -64.6 89.55 -65.55 87.45 -65.95 86.5 -66.1 86.1 -67.95 79.1 -68.05 78.45 Q-68.05 77.6 -67.6 76.95 L-66.4 75.95 -55.15 71.6 -53.0 71.7 Q-52.0 72.2 -51.65 73.35 L-51.4 74.35 -50.75 76.65 -50.15 79.0 -49.8 80.25 -49.0 81.85 -47.8 84.3 -47.15 85.6 -46.95 86.2 -46.7 87.35 -46.25 89.55 -45.9 91.1 -45.25 92.25 -44.3 93.85 -43.75 91.35 -43.35 89.3 -43.95 87.75 -44.85 85.45 -45.35 84.25 -45.4 84.05 -45.6 83.2 -46.1 81.35 -46.65 79.45 -46.9 78.4 -47.4 77.35 -48.3 75.4 -49.15 73.55 -49.5 72.7 -49.75 71.65 -49.55 70.6 Q-49.1 69.55 -48.0 69.15 L-36.5 65.0 -35.05 64.9 Q-34.65 64.35 -34.0 64.05 L-27.85 61.2 -27.45 61.05 -21.95 59.4 Q-20.5 59.0 -19.35 60.05 L-16.5 62.85 -14.95 64.35 -15.6 61.85 -15.9 60.65 -16.0 60.0 -15.55 58.6 Q-15.15 57.95 -14.4 57.6 L-3.9 53.1 Q-2.9 52.7 -1.9 53.1 -1.45 52.45 -0.6 52.15 L10.6 48.25 11.65 48.1 Q12.15 47.5 12.9 47.25 L13.4 47.1 13.95 46.9 17.15 45.95 19.5 45.2 22.75 44.1 25.65 43.15 26.9 42.7 28.0 42.3 30.35 41.3 32.7 40.35 33.8 39.9 33.95 39.85 40.6 37.8 41.4 37.7 Q41.85 37.1 42.55 36.8 L43.7 36.35 46.25 35.3 48.75 34.25 Q49.85 33.8 49.9 33.8 L50.95 33.45 53.15 32.65 55.4 31.8 56.45 31.45 63.0 28.95 64.05 28.55 66.0 27.85 67.05 27.5 69.15 27.65 Q70.15 28.2 70.45 29.25 L73.3 39.3 73.4 40.0 Q73.35 41.05 72.6 41.8 L72.95 42.35 76.05 50.85 76.05 51.05 Q76.75 50.85 77.45 51.05 78.65 51.5 79.05 52.65 L82.45 62.45 M65.2 20.9 L65.55 21.9 68.55 20.8 63.6 6.8 60.4 7.95 62.2 12.95 59.8 12.8 Q57.95 13.55 57.8 15.35 57.6 17.15 58.4 19.3 59.1 21.2 60.35 22.3 61.55 23.35 63.15 22.85 L64.3 22.25 65.2 20.95 65.2 20.9 M60.95 15.6 Q60.75 14.55 61.5 14.2 L62.65 14.3 64.5 19.45 Q64.35 20.3 63.6 20.6 63.0 20.8 62.5 19.95 62.05 19.15 61.5 17.6 L60.95 15.6 M42.45 1.35 L39.9 2.95 35.0 6.1 35.9 7.2 37.05 10.95 39.2 14.8 42.4 13.75 46.7 11.5 43.7 3.4 42.45 1.35 M58.4 24.45 L53.45 10.45 50.25 11.6 55.25 25.6 58.4 24.45 M48.35 17.1 Q47.6 17.85 47.6 18.85 L47.55 18.9 47.05 17.4 43.9 18.5 47.4 28.35 50.6 27.25 48.3 20.85 48.75 20.05 49.8 19.45 51.2 19.25 50.05 16.05 Q49.05 16.4 48.35 17.1 M43.9 24.05 Q43.1 21.8 41.5 20.75 39.9 19.75 37.65 20.5 35.45 21.35 34.85 23.15 34.25 24.95 35.05 27.2 35.85 29.55 37.45 30.6 39.05 31.6 41.35 30.85 43.6 30.0 44.15 28.2 44.75 26.4 43.9 24.05 M50.8 36.25 Q50.75 36.3 49.65 36.7 L47.15 37.75 44.7 38.75 43.55 39.2 46.25 45.85 46.6 46.8 47.35 48.95 48.1 51.1 48.45 52.1 48.8 53.05 49.6 55.1 50.45 57.25 50.9 58.35 51.15 59.4 51.65 61.6 52.2 63.75 52.45 64.75 52.8 65.8 53.6 68.1 54.4 70.3 54.75 71.3 55.15 72.35 62.6 69.25 63.55 68.85 65.6 67.95 67.75 67.05 68.9 66.6 70.0 66.3 72.3 65.7 74.55 65.05 75.55 64.8 76.5 64.5 78.15 63.9 79.0 63.6 79.95 63.3 76.6 53.5 75.95 53.9 74.7 54.7 73.95 55.15 72.95 55.4 70.95 55.9 68.95 56.4 68.05 56.65 67.2 56.9 65.3 57.5 63.45 58.05 62.9 56.85 62.3 55.5 64.6 54.85 67.15 54.15 68.3 53.8 69.45 53.35 71.55 52.55 72.65 52.1 73.6 51.75 70.45 43.2 66.1 44.95 64.8 45.3 62.0 46.1 59.4 46.85 58.9 45.65 58.35 44.4 60.85 43.45 63.85 42.35 65.3 41.8 70.75 40.0 67.95 29.95 63.95 31.35 62.9 31.75 60.65 32.6 58.4 33.5 57.4 33.9 56.35 34.25 54.1 35.05 51.85 35.9 50.8 36.25 M30.4 28.5 L25.7 20.35 22.55 21.5 23.9 30.8 23.85 30.8 19.4 22.6 16.0 23.8 23.9 36.75 26.95 35.7 25.5 25.7 25.55 25.7 30.5 34.4 33.55 33.35 31.6 18.25 28.9 19.2 30.4 28.45 30.4 28.5 M41.25 27.85 Q41.2 28.65 40.6 28.85 40.05 29.05 39.5 28.45 39.0 27.85 38.35 26.05 37.7 24.35 37.7 23.55 37.7 22.7 38.35 22.5 39.0 22.25 39.5 22.9 L40.6 25.2 Q41.25 27.05 41.25 27.85 M0.4 45.3 L1.2 44.85 0.55 43.05 0.0 43.35 -0.75 43.3 -1.1 42.7 -2.2 39.5 -0.9 39.05 -1.5 37.3 -2.85 37.8 -3.8 35.1 -6.2 35.95 -5.25 38.65 -6.25 39.0 -5.65 40.75 -4.65 40.4 -3.2 44.45 Q-2.45 46.4 -0.45 45.65 L0.4 45.3 M4.25 35.1 Q2.9 35.6 2.55 37.05 L2.5 37.05 1.05 32.9 -1.4 33.75 2.4 44.45 4.85 43.55 2.85 38.05 2.95 37.85 3.45 37.3 Q4.1 37.1 4.3 37.75 L6.15 43.1 8.6 42.2 6.45 36.2 Q6.15 35.45 5.6 35.15 L4.25 35.1 M15.25 36.2 L15.1 35.7 Q14.55 34.15 13.45 33.25 12.3 32.3 10.55 32.85 8.85 33.5 8.45 34.95 8.0 36.35 8.6 38.0 9.15 39.6 10.4 40.45 11.6 41.3 13.35 40.75 14.95 40.05 15.3 39.05 L15.65 37.6 13.8 37.6 Q13.85 38.7 12.95 39.05 12.25 39.25 11.8 38.75 L11.2 37.65 15.25 36.2 M11.05 34.4 Q11.7 34.2 12.0 34.6 L12.5 35.6 10.7 36.25 10.55 35.15 Q10.55 34.6 11.05 34.4 M15.7 49.1 L14.7 49.4 13.7 49.7 17.15 59.0 18.2 58.75 20.6 58.15 23.25 57.45 25.15 56.95 25.65 58.75 26.2 60.7 26.45 61.6 26.85 62.45 27.8 64.3 28.7 66.15 29.15 67.1 29.5 68.05 30.15 70.05 30.85 72.05 31.15 72.9 31.55 73.95 32.4 76.15 33.25 78.35 33.65 79.35 44.95 75.7 43.25 68.95 42.9 68.0 42.15 66.0 41.4 64.05 39.0 57.35 38.55 56.4 37.55 54.4 36.55 52.4 38.75 51.85 41.8 51.05 44.55 50.4 45.7 50.1 41.4 40.3 34.7 42.35 33.6 42.8 Q32.6 43.2 31.3 43.75 L28.95 44.7 27.9 45.1 26.85 45.45 24.55 46.3 22.2 47.1 21.15 47.5 20.15 47.8 17.95 48.45 15.7 49.1 M11.5 50.7 L0.25 54.6 1.95 61.65 4.65 67.85 5.05 68.75 5.95 70.8 6.85 72.9 7.3 74.0 7.6 75.05 8.2 77.2 8.8 79.35 9.05 80.35 9.45 81.4 10.3 83.55 11.15 85.7 11.55 86.65 11.95 87.6 23.3 83.3 22.9 82.3 22.05 80.05 21.15 77.8 20.75 76.7 20.5 75.65 19.95 73.45 19.4 71.25 19.15 70.25 18.8 69.2 18.05 66.95 17.3 64.75 16.95 63.75 16.6 62.8 15.85 60.65 15.1 58.5 14.75 57.5 14.3 56.55 13.3 54.5 12.35 52.45 11.5 50.7 M1.9 70.25 L1.6 69.25 1.3 68.3 0.6 66.15 -0.1 63.95 -0.4 63.0 -0.8 61.8 -1.65 59.25 -2.45 56.65 -2.85 55.5 -13.35 60.0 -11.9 65.75 -11.6 66.7 -10.95 68.7 -10.3 70.7 -10.0 71.65 -9.95 71.7 -9.85 71.95 -9.65 72.3 -10.1 71.85 -10.4 71.55 -11.3 70.85 -13.2 69.3 -15.05 67.75 -15.9 67.05 -17.15 65.85 -19.5 63.55 -20.75 62.3 -21.2 61.9 -26.7 63.55 -26.75 63.6 -32.9 66.4 -32.45 67.45 -31.45 69.7 -30.45 72.0 -30.0 73.1 -29.7 74.15 -29.1 76.35 -28.55 78.5 -28.25 79.5 -27.9 80.5 -27.15 82.75 -26.45 84.95 -26.1 85.95 -24.0 92.3 -20.75 98.9 -10.25 95.2 -11.75 89.0 -12.2 88.15 -13.2 86.3 -14.25 84.45 -14.75 83.5 -15.0 82.75 -15.5 81.2 -13.8 82.55 -13.0 83.2 -7.8 87.7 -6.95 88.45 -5.15 90.1 -3.3 91.8 -2.45 92.6 -2.0 93.0 9.3 88.95 6.95 81.55 6.45 80.65 5.35 78.65 4.25 76.6 3.7 75.6 3.35 74.55 2.6 72.35 1.9 70.25 M-40.6 -17.35 L-38.35 -14.3 -36.95 -15.9 Q-37.65 -17.45 -37.95 -18.75 L-38.4 -20.85 -38.5 -22.2 -38.5 -22.55 -42.2 -21.2 -43.05 -20.75 -40.6 -17.35 M-59.05 -3.6 L-62.0 -0.35 -63.75 7.85 -66.15 15.65 -66.4 19.45 -67.75 23.15 -68.45 26.85 -67.45 31.7 -67.5 39.4 -65.75 43.85 -65.1 48.15 -62.6 51.5 -58.3 50.5 -54.65 48.65 -57.0 44.3 -59.25 35.6 -60.0 26.85 -58.7 22.5 -58.7 18.2 -57.85 14.2 -56.05 10.2 -55.7 5.95 -54.25 2.65 -54.85 1.8 -53.8 1.05 -51.4 -0.55 -50.9 -1.1 -49.7 -3.3 -52.2 -6.6 -55.05 -10.3 -59.05 -3.6 M-59.85 63.9 Q-59.9 64.7 -60.5 64.9 -61.05 65.1 -61.6 64.55 L-62.75 62.1 -63.4 59.6 Q-63.4 58.75 -62.75 58.55 -62.1 58.3 -61.6 58.95 -61.1 59.55 -60.5 61.25 -59.85 63.1 -59.85 63.9 M-57.2 60.1 Q-58.0 57.85 -59.6 56.8 -61.2 55.8 -63.45 56.55 -65.65 57.4 -66.25 59.2 -66.85 61.0 -66.05 63.25 -65.25 65.6 -63.65 66.65 -62.05 67.65 -59.75 66.9 -57.5 66.05 -56.95 64.25 -56.35 62.45 -57.2 60.1 M-50.45 57.65 Q-49.8 59.5 -49.8 60.3 -49.85 61.1 -50.45 61.3 -51.0 61.5 -51.55 60.95 L-52.7 58.5 -53.35 56.0 Q-53.35 55.15 -52.7 54.95 -52.05 54.7 -51.55 55.35 -51.05 55.95 -50.45 57.65 M-46.9 60.65 Q-46.3 58.85 -47.15 56.5 -47.95 54.25 -49.55 53.2 -51.15 52.2 -53.4 52.95 -55.6 53.8 -56.2 55.6 -56.8 57.4 -56.0 59.65 -55.2 62.0 -53.6 63.05 -52.0 64.05 -49.7 63.3 -47.45 62.45 -46.9 60.65 M-43.45 51.15 L-43.5 51.15 -43.95 49.85 -47.15 51.0 -43.65 60.85 -40.45 59.7 -43.0 52.5 -42.95 52.2 Q-42.75 51.7 -42.25 51.5 -41.4 51.25 -41.15 52.1 L-38.7 59.1 -35.5 57.95 -38.3 50.05 Q-38.7 49.05 -39.45 48.65 L-41.2 48.6 Q-42.95 49.25 -43.45 51.15 M-17.25 47.15 Q-16.75 48.55 -16.8 49.2 -16.8 49.8 -17.25 49.9 -17.7 50.1 -18.1 49.65 L-19.0 47.8 -19.5 45.9 Q-19.5 45.25 -19.0 45.1 -18.5 44.9 -18.1 45.4 -17.7 45.85 -17.25 47.15 M-11.85 39.35 L-11.35 39.25 -12.05 37.4 -13.3 37.75 Q-14.5 38.15 -14.95 38.95 -15.4 39.8 -14.9 41.15 L-14.6 42.0 -15.6 42.35 -15.0 44.05 -14.0 43.7 -11.95 49.5 -9.5 48.65 -11.6 42.85 -10.25 42.35 -10.85 40.65 -12.2 41.15 -12.5 40.3 Q-12.75 39.65 -11.85 39.35 M-21.65 45.6 Q-22.1 46.95 -21.5 48.7 -20.9 50.45 -19.65 51.25 L-16.7 51.45 Q-15.0 50.8 -14.55 49.45 -14.1 48.05 -14.75 46.3 -15.35 44.55 -16.6 43.8 -17.8 43.0 -19.55 43.55 -21.2 44.2 -21.65 45.6 M-31.65 49.4 Q-32.95 49.45 -33.3 48.75 -33.5 48.2 -32.6 47.8 L-31.5 47.85 Q-31.0 48.1 -30.65 48.5 L-28.65 47.15 Q-29.6 45.85 -30.85 45.6 L-33.35 45.8 Q-35.4 46.65 -35.9 48.0 -36.45 49.35 -36.1 50.25 -35.4 51.85 -34.05 52.1 L-31.35 52.25 Q-30.05 52.2 -29.7 52.95 -29.5 53.65 -30.45 54.0 L-31.65 53.95 -32.65 53.2 -34.8 54.8 Q-34.0 55.9 -32.65 56.3 L-29.65 56.15 Q-27.9 55.5 -27.15 54.25 -26.35 52.95 -26.9 51.35 -27.55 49.8 -28.95 49.6 L-31.65 49.4 M-46.7 72.5 L-45.8 74.45 -44.85 76.5 -44.4 77.45 -44.15 78.45 -43.6 80.45 -43.05 82.45 -42.85 83.35 -42.35 84.6 -41.35 87.05 -40.6 89.05 -41.0 91.0 -41.7 94.35 -42.25 97.0 -44.3 96.55 -45.9 96.2 -46.65 94.9 -47.7 93.1 -48.35 92.05 -48.65 90.55 -49.2 88.05 -49.5 86.75 -49.9 85.9 -50.85 84.0 -51.75 82.1 -52.2 81.15 -52.55 79.95 -53.2 77.5 -53.85 75.1 -54.15 74.0 -65.4 78.4 -63.55 85.4 -60.8 91.55 -60.4 92.55 -59.55 94.8 -58.7 97.05 -58.3 98.1 -58.3 98.15 -54.55 105.25 -46.6 108.4 -38.35 106.95 -31.7 102.35 -27.6 95.65 -27.95 87.25 -28.45 86.4 -29.55 84.45 -30.65 82.5 -31.25 81.45 -31.5 80.35 -32.05 78.15 -32.55 76.0 -32.8 75.05 -35.6 67.45 -47.1 71.6 -46.7 72.5 M-67.95 56.8 L-68.95 54.1 -78.8 57.6 -77.85 60.35 -74.65 59.2 -70.65 70.5 -67.1 69.2 -71.15 57.95 -67.95 56.8" fill="#ffffff" fill-rule="evenodd" stroke="none"/>
    <path d="M41.9 -64.85 Q45.2 -64.7 47.25 -63.35 L50.75 -60.6 53.0 -58.6 Q54.25 -57.5 54.9 -55.95 55.6 -54.4 55.05 -52.35 54.35 -50.2 53.0 -48.4 L50.5 -45.45 49.25 -44.3 49.55 -43.45 Q49.75 -42.65 49.25 -41.55 48.8 -40.8 47.95 -40.45 47.1 -40.1 46.4 -40.05 L45.65 -39.95 45.6 -37.8 45.5 -32.3 45.35 -24.95 45.2 -17.35 45.0 -10.9 44.8 -7.2 Q44.6 -5.45 43.55 -3.7 42.45 -1.9 41.15 -1.1 L38.6 0.45 34.0 3.45 28.8 6.85 24.55 9.6 22.8 10.75 25.5 16.4 Q24.6 16.55 23.75 17.6 L13.6 21.0 13.5 22.85 10.25 24.35 8.05 25.35 6.1 25.85 3.5 26.2 1.3 26.4 0.35 26.5 -1.2 27.25 -4.75 28.95 -8.65 30.9 -11.2 32.25 Q-12.6 33.1 -15.1 34.0 -17.6 34.95 -20.6 35.5 -23.6 36.1 -25.5 36.95 -27.4 37.8 -28.2 38.4 L-29.9 38.95 -32.55 39.4 -35.05 39.7 -36.15 39.85 -36.15 39.1 -37.35 39.9 -40.1 41.7 -41.0 25.65 -40.6 24.8 -41.75 15.2 -50.9 2.5 -44.85 -1.6 -46.25 -3.45 -49.7 -7.9 -53.85 -13.4 -57.55 -18.25 -59.5 -20.85 -62.3 -25.65 Q-63.45 -27.95 -64.05 -30.85 L-65.25 -34.8 -67.65 -41.75 -70.6 -50.05 -73.45 -57.95 -75.65 -63.95 -76.5 -66.3 -77.85 -66.1 -80.5 -66.2 Q-81.9 -66.45 -82.35 -67.5 -82.7 -68.6 -82.5 -69.55 L-81.95 -71.15 -81.6 -71.8 -82.9 -72.6 Q-84.2 -73.4 -85.8 -74.9 -87.4 -76.4 -88.45 -78.5 -89.4 -80.6 -89.0 -82.3 -88.55 -84.05 -87.45 -85.45 L-85.4 -87.95 Q-84.1 -89.7 -82.2 -91.45 -80.3 -93.2 -76.8 -93.9 L-71.9 -94.6 Q-68.85 -94.85 -65.55 -94.5 -62.2 -94.15 -59.4 -92.55 -56.65 -90.95 -55.35 -87.6 -53.75 -83.05 -53.55 -80.65 -53.4 -78.2 -53.8 -77.15 L-54.6 -75.6 Q-55.05 -74.8 -56.0 -74.35 L-57.6 -74.25 Q-57.55 -74.15 -57.85 -73.15 -58.2 -72.1 -59.25 -71.05 -60.35 -70.0 -62.6 -69.8 L-65.7 -69.5 -66.65 -69.2 -66.65 -69.05 -66.5 -68.65 Q-66.35 -68.3 -66.55 -67.85 L-67.7 -67.25 -52.5 -28.9 -36.7 -7.3 -34.05 -9.35 -29.9 -2.25 -24.35 2.0 -21.95 0.95 -15.8 1.1 -15.65 -5.85 Q-18.45 -6.5 -22.35 -7.8 -27.9 -9.75 -30.7 -12.25 -33.45 -14.75 -34.45 -17.15 -35.45 -19.6 -35.65 -21.35 -35.85 -23.05 -35.2 -25.05 L-33.7 -29.0 -32.35 -32.55 Q-31.45 -36.4 -30.7 -40.55 -29.95 -44.65 -28.25 -48.05 -25.8 -52.65 -24.35 -54.55 L-22.85 -56.45 -24.2 -57.95 -27.55 -61.6 -31.6 -66.1 -35.2 -70.1 -37.1 -72.3 -38.7 -74.85 -41.6 -79.6 -44.85 -84.95 -47.5 -89.3 -48.6 -91.1 -49.2 -92.7 -50.75 -96.65 -52.7 -101.7 -54.6 -106.65 -56.0 -110.15 Q-56.8 -112.1 -56.95 -114.05 -57.15 -116.05 -56.45 -117.05 L-53.9 -117.15 Q-48.95 -114.45 -44.4 -110.3 -39.9 -106.15 -35.95 -101.4 -32.05 -96.65 -29.0 -92.3 L-24.15 -84.85 -21.85 -80.9 -20.55 -77.85 -18.6 -72.9 -16.6 -67.55 -15.05 -63.25 -14.4 -61.45 Q-12.45 -62.6 -10.9 -62.95 L-8.45 -63.2 -7.55 -63.1 -8.25 -64.75 -10.0 -68.8 -12.1 -73.9 -14.0 -78.8 -15.05 -82.2 -15.7 -86.95 -16.15 -94.95 Q-16.3 -99.6 -15.95 -104.85 -15.55 -110.1 -14.4 -115.3 L-12.95 -118.85 Q-11.9 -120.75 -10.65 -122.1 -9.4 -123.45 -8.4 -123.4 -6.9 -123.1 -5.95 -120.65 -4.95 -118.25 -4.45 -114.75 L-3.65 -109.9 -2.35 -101.55 -0.9 -90.9 Q-0.2 -85.15 0.25 -79.1 0.7 -73.1 0.75 -67.4 L0.85 -64.35 1.1 -61.35 1.2 -60.0 Q4.8 -57.7 6.9 -55.2 9.05 -52.7 9.95 -50.95 L10.85 -49.1 13.4 -47.55 12.65 -46.75 13.4 -44.65 Q15.65 -42.85 16.45 -40.65 17.25 -38.45 17.3 -36.8 L17.25 -35.1 Q20.45 -32.65 21.65 -30.3 22.85 -27.9 22.7 -25.65 22.5 -23.35 21.55 -21.15 L19.45 -16.75 Q18.35 -14.6 16.25 -12.8 14.15 -11.0 11.9 -9.65 9.7 -8.35 8.1 -7.65 L6.5 -6.9 6.85 -1.1 1.3 0.15 -0.15 -5.95 -0.1 0.35 -5.8 0.45 -6.3 -2.1 -7.2 1.35 -3.4 1.4 0.2 2.95 1.05 2.55 3.65 2.0 7.75 2.2 8.85 3.3 10.05 3.1 17.7 -0.6 18.85 2.3 35.9 -8.75 38.0 -38.9 Q37.1 -38.95 36.85 -39.3 36.6 -39.65 36.65 -40.0 L36.75 -40.4 36.7 -40.55 35.8 -40.7 32.9 -40.45 Q30.75 -40.3 29.6 -41.1 28.45 -41.95 28.0 -42.85 L27.55 -43.8 26.05 -43.7 Q25.15 -43.95 24.6 -44.6 L23.6 -45.95 Q23.05 -46.85 22.85 -49.15 22.65 -51.45 23.45 -55.85 24.1 -59.15 26.35 -61.05 28.6 -62.9 31.6 -63.75 34.55 -64.55 37.3 -64.75 L41.9 -64.85 M60.95 15.6 L61.5 17.6 Q62.05 19.15 62.5 19.95 63.0 20.8 63.6 20.6 64.35 20.3 64.5 19.45 L62.65 14.3 61.5 14.2 Q60.75 14.55 60.95 15.6 M65.2 20.9 L65.2 20.95 64.3 22.25 63.15 22.85 Q61.55 23.35 60.35 22.3 59.1 21.2 58.4 19.3 57.6 17.15 57.8 15.35 57.95 13.55 59.8 12.8 L62.2 12.95 60.4 7.95 63.6 6.8 68.55 20.8 65.55 21.9 65.2 20.9 M43.9 24.05 Q44.75 26.4 44.15 28.2 43.6 30.0 41.35 30.85 39.05 31.6 37.45 30.6 35.85 29.55 35.05 27.2 34.25 24.95 34.85 23.15 35.45 21.35 37.65 20.5 39.9 19.75 41.5 20.75 43.1 21.8 43.9 24.05 M48.35 17.1 Q49.05 16.4 50.05 16.05 L51.2 19.25 49.8 19.45 48.75 20.05 48.3 20.85 50.6 27.25 47.4 28.35 43.9 18.5 47.05 17.4 47.55 18.9 47.6 18.85 Q47.6 17.85 48.35 17.1 M58.4 24.45 L55.25 25.6 50.25 11.6 53.45 10.45 58.4 24.45 M50.8 36.25 L51.85 35.9 54.1 35.05 56.35 34.25 57.4 33.9 58.4 33.5 60.65 32.6 62.9 31.75 63.95 31.35 67.95 29.95 70.75 40.0 65.3 41.8 63.85 42.35 60.85 43.45 58.35 44.4 58.9 45.65 59.4 46.85 62.0 46.1 64.8 45.3 66.1 44.95 70.45 43.2 73.6 51.75 72.65 52.1 71.55 52.55 69.45 53.35 68.3 53.8 67.15 54.15 64.6 54.85 62.3 55.5 62.9 56.85 63.45 58.05 65.3 57.5 67.2 56.9 68.05 56.65 68.95 56.4 70.95 55.9 72.95 55.4 73.95 55.15 74.7 54.7 75.95 53.9 76.6 53.5 79.95 63.3 79.0 63.6 78.15 63.9 76.5 64.5 75.55 64.8 74.55 65.05 72.3 65.7 70.0 66.3 68.9 66.6 67.75 67.05 65.6 67.95 63.55 68.85 62.6 69.25 55.15 72.35 54.75 71.3 54.4 70.3 53.6 68.1 52.8 65.8 52.45 64.75 52.2 63.75 51.65 61.6 51.15 59.4 50.9 58.35 50.45 57.25 49.6 55.1 48.8 53.05 48.45 52.1 48.1 51.1 47.35 48.95 46.6 46.8 46.25 45.85 43.55 39.2 44.7 38.75 47.15 37.75 49.65 36.7 Q50.75 36.3 50.8 36.25 M41.25 27.85 Q41.25 27.05 40.6 25.2 L39.5 22.9 Q39.0 22.25 38.35 22.5 37.7 22.7 37.7 23.55 37.7 24.35 38.35 26.05 39.0 27.85 39.5 28.45 40.05 29.05 40.6 28.85 41.2 28.65 41.25 27.85 M30.4 28.45 L28.9 19.2 31.6 18.25 33.55 33.35 30.5 34.4 25.55 25.7 25.5 25.7 26.95 35.7 23.9 36.75 16.0 23.8 19.4 22.6 23.85 30.8 23.9 30.8 22.55 21.5 25.7 20.35 30.4 28.5 30.4 28.45 M11.05 34.4 Q10.55 34.6 10.55 35.15 L10.7 36.25 12.5 35.6 12.0 34.6 Q11.7 34.2 11.05 34.4 M15.25 36.2 L11.2 37.65 11.8 38.75 Q12.25 39.25 12.95 39.05 13.85 38.7 13.8 37.6 L15.65 37.6 15.3 39.05 Q14.95 40.05 13.35 40.75 11.6 41.3 10.4 40.45 9.15 39.6 8.6 38.0 8.0 36.35 8.45 34.95 8.85 33.5 10.55 32.85 12.3 32.3 13.45 33.25 14.55 34.15 15.1 35.7 L15.25 36.2 M4.25 35.1 L5.6 35.15 Q6.15 35.45 6.45 36.2 L8.6 42.2 6.15 43.1 4.3 37.75 Q4.1 37.1 3.45 37.3 L2.95 37.85 2.85 38.05 4.85 43.55 2.4 44.45 -1.4 33.75 1.05 32.9 2.5 37.05 2.55 37.05 Q2.9 35.6 4.25 35.1 M0.4 45.3 L-0.45 45.65 Q-2.45 46.4 -3.2 44.45 L-4.65 40.4 -5.65 40.75 -6.25 39.0 -5.25 38.65 -6.2 35.95 -3.8 35.1 -2.85 37.8 -1.5 37.3 -0.9 39.05 -2.2 39.5 -1.1 42.7 -0.75 43.3 0.0 43.35 0.55 43.05 1.2 44.85 0.4 45.3 M1.9 70.25 L2.6 72.35 3.35 74.55 3.7 75.6 4.25 76.6 5.35 78.65 6.45 80.65 6.95 81.55 9.3 88.95 -2.0 93.0 -2.45 92.6 -3.3 91.8 -5.15 90.1 -6.95 88.45 -7.8 87.7 -13.0 83.2 -13.8 82.55 -15.5 81.2 -15.0 82.75 -14.75 83.5 -14.25 84.45 -13.2 86.3 -12.2 88.15 -11.75 89.0 -10.25 95.2 -20.75 98.9 -24.0 92.3 -26.1 85.95 -26.45 84.95 -27.15 82.75 -27.9 80.5 -28.25 79.5 -28.55 78.5 -29.1 76.35 -29.7 74.15 -30.0 73.1 -30.45 72.0 -31.45 69.7 -32.45 67.45 -32.9 66.4 -26.75 63.6 -26.7 63.55 -21.2 61.9 -20.75 62.3 -19.5 63.55 -17.15 65.85 -15.9 67.05 -15.05 67.75 -13.2 69.3 -11.3 70.85 -10.4 71.55 -10.1 71.85 -9.65 72.3 -9.85 71.95 -9.95 71.7 -10.0 71.65 -10.3 70.7 -10.95 68.7 -11.6 66.7 -11.9 65.75 -13.35 60.0 -2.85 55.5 -2.45 56.65 -1.65 59.25 -0.8 61.8 -0.4 63.0 -0.1 63.95 0.6 66.15 1.3 68.3 1.6 69.25 1.9 70.25 M11.5 50.7 L12.35 52.45 13.3 54.5 14.3 56.55 14.75 57.5 15.1 58.5 15.85 60.65 16.6 62.8 16.95 63.75 17.3 64.75 18.05 66.95 18.8 69.2 19.15 70.25 19.4 71.25 19.95 73.45 20.5 75.65 20.75 76.7 21.15 77.8 22.05 80.05 22.9 82.3 23.3 83.3 11.95 87.6 11.55 86.65 11.15 85.7 10.3 83.55 9.45 81.4 9.05 80.35 8.8 79.35 8.2 77.2 7.6 75.05 7.3 74.0 6.85 72.9 5.95 70.8 5.05 68.75 4.65 67.85 1.95 61.65 0.25 54.6 11.5 50.7 M15.7 49.1 L17.95 48.45 20.15 47.8 21.15 47.5 22.2 47.1 24.55 46.3 26.85 45.45 27.9 45.1 28.95 44.7 31.3 43.75 Q32.6 43.2 33.6 42.8 L34.7 42.35 41.4 40.3 45.7 50.1 44.55 50.4 41.8 51.05 38.75 51.85 36.55 52.4 37.55 54.4 38.55 56.4 39.0 57.35 41.4 64.05 42.15 66.0 42.9 68.0 43.25 68.95 44.95 75.7 33.65 79.35 33.25 78.35 32.4 76.15 31.55 73.95 31.15 72.9 30.85 72.05 30.15 70.05 29.5 68.05 29.15 67.1 28.7 66.15 27.8 64.3 26.85 62.45 26.45 61.6 26.2 60.7 25.65 58.75 25.15 56.95 23.25 57.45 20.6 58.15 18.2 58.75 17.15 59.0 13.7 49.7 14.7 49.4 15.7 49.1 M-31.65 49.4 L-28.95 49.6 Q-27.55 49.8 -26.9 51.35 -26.35 52.95 -27.15 54.25 -27.9 55.5 -29.65 56.15 L-32.65 56.3 Q-34.0 55.9 -34.8 54.8 L-32.65 53.2 -31.65 53.95 -30.45 54.0 Q-29.5 53.65 -29.7 52.95 -30.05 52.2 -31.35 52.25 L-34.05 52.1 Q-35.4 51.85 -36.1 50.25 -36.45 49.35 -35.9 48.0 -35.4 46.65 -33.35 45.8 L-30.85 45.6 Q-29.6 45.85 -28.65 47.15 L-30.65 48.5 Q-31.0 48.1 -31.5 47.85 L-32.6 47.8 Q-33.5 48.2 -33.3 48.75 -32.95 49.45 -31.65 49.4 M-21.65 45.6 Q-21.2 44.2 -19.55 43.55 -17.8 43.0 -16.6 43.8 -15.35 44.55 -14.75 46.3 -14.1 48.05 -14.55 49.45 -15.0 50.8 -16.7 51.45 L-19.65 51.25 Q-20.9 50.45 -21.5 48.7 -22.1 46.95 -21.65 45.6 M-11.85 39.35 Q-12.75 39.65 -12.5 40.3 L-12.2 41.15 -10.85 40.65 -10.25 42.35 -11.6 42.85 -9.5 48.65 -11.95 49.5 -14.0 43.7 -15.0 44.05 -15.6 42.35 -14.6 42.0 -14.9 41.15 Q-15.4 39.8 -14.95 38.95 -14.5 38.15 -13.3 37.75 L-12.05 37.4 -11.35 39.25 -11.85 39.35 M-17.25 47.15 Q-17.7 45.85 -18.1 45.4 -18.5 44.9 -19.0 45.1 -19.5 45.25 -19.5 45.9 L-19.0 47.8 -18.1 49.65 Q-17.7 50.1 -17.25 49.9 -16.8 49.8 -16.8 49.2 -16.75 48.55 -17.25 47.15 M-43.45 51.15 Q-42.95 49.25 -41.2 48.6 L-39.45 48.65 Q-38.7 49.05 -38.3 50.05 L-35.5 57.95 -38.7 59.1 -41.15 52.1 Q-41.4 51.25 -42.25 51.5 -42.75 51.7 -42.95 52.2 L-43.0 52.5 -40.45 59.7 -43.65 60.85 -47.15 51.0 -43.95 49.85 -43.5 51.15 -43.45 51.15 M-46.9 60.65 Q-47.45 62.45 -49.7 63.3 -52.0 64.05 -53.6 63.05 -55.2 62.0 -56.0 59.65 -56.8 57.4 -56.2 55.6 -55.6 53.8 -53.4 52.95 -51.15 52.2 -49.55 53.2 -47.95 54.25 -47.15 56.5 -46.3 58.85 -46.9 60.65 M-50.45 57.65 Q-51.05 55.95 -51.55 55.35 -52.05 54.7 -52.7 54.95 -53.35 55.15 -53.35 56.0 L-52.7 58.5 -51.55 60.95 Q-51.0 61.5 -50.45 61.3 -49.85 61.1 -49.8 60.3 -49.8 59.5 -50.45 57.65 M-57.2 60.1 Q-56.35 62.45 -56.95 64.25 -57.5 66.05 -59.75 66.9 -62.05 67.65 -63.65 66.65 -65.25 65.6 -66.05 63.25 -66.85 61.0 -66.25 59.2 -65.65 57.4 -63.45 56.55 -61.2 55.8 -59.6 56.8 -58.0 57.85 -57.2 60.1 M-59.85 63.9 Q-59.85 63.1 -60.5 61.25 -61.1 59.55 -61.6 58.95 -62.1 58.3 -62.75 58.55 -63.4 58.75 -63.4 59.6 L-62.75 62.1 -61.6 64.55 Q-61.05 65.1 -60.5 64.9 -59.9 64.7 -59.85 63.9 M-46.7 72.5 L-47.1 71.6 -35.6 67.45 -32.8 75.05 -32.55 76.0 -32.05 78.15 -31.5 80.35 -31.25 81.45 -30.65 82.5 -29.55 84.45 -28.45 86.4 -27.95 87.25 -27.6 95.65 -31.7 102.35 -38.35 106.95 -46.6 108.4 -54.55 105.25 -58.3 98.15 -58.3 98.1 -58.7 97.05 -59.55 94.8 -60.4 92.55 -60.8 91.55 -63.55 85.4 -65.4 78.4 -54.15 74.0 -53.85 75.1 -53.2 77.5 -52.55 79.95 -52.2 81.15 -51.75 82.1 -50.85 84.0 -49.9 85.9 -49.5 86.75 -49.2 88.05 -48.65 90.55 -48.35 92.05 -47.7 93.1 -46.65 94.9 -45.9 96.2 -44.3 96.55 -42.25 97.0 -41.7 94.35 -41.0 91.0 -40.6 89.05 -41.35 87.05 -42.35 84.6 -42.85 83.35 -43.05 82.45 -43.6 80.45 -44.15 78.45 -44.4 77.45 -44.85 76.5 -45.8 74.45 -46.7 72.5 M-67.95 56.8 L-71.15 57.95 -67.1 69.2 -70.65 70.5 -74.65 59.2 -77.85 60.35 -78.8 57.6 -68.95 54.1 -67.95 56.8" fill="#000000" fill-rule="evenodd" stroke="none"/>
    <path d="M55.55 29.0 L62.1 26.45 62.1 26.5 63.05 26.1 65.1 25.4 66.2 25.0 Q68.35 24.3 70.4 25.3 72.35 26.35 73.0 28.55 L75.85 38.6 76.0 40.0 75.6 41.9 76.25 43.75 77.15 46.2 78.0 48.5 78.35 48.55 Q80.7 49.45 81.55 51.8 L82.1 53.3 83.25 56.65 84.4 60.05 84.95 61.55 85.25 63.25 Q85.2 64.95 84.3 66.3 83.35 67.65 81.75 68.25 81.65 68.25 81.25 68.4 L80.7 68.6 76.95 69.85 76.0 70.1 73.9 70.65 71.75 71.25 70.65 71.55 69.55 72.0 67.5 72.85 65.5 73.7 64.65 74.1 64.6 74.15 57.15 77.2 55.1 77.6 53.0 77.15 Q52.0 76.7 51.25 76.0 L50.7 75.35 50.15 74.25 50.25 75.7 Q50.2 77.45 49.25 78.8 48.25 80.15 46.6 80.7 L35.3 84.35 35.05 84.45 31.3 84.1 Q29.35 83.25 28.5 81.3 L28.55 83.25 28.45 83.8 28.25 84.85 28.1 85.4 Q27.2 87.4 25.2 88.2 L13.8 92.5 12.9 92.75 Q12.1 93.5 11.05 93.9 L9.3 94.5 5.45 95.9 1.55 97.3 -0.2 97.95 -2.9 98.15 Q-4.2 97.9 -5.3 97.0 -5.7 98.1 -6.55 98.9 L-8.5 100.15 -10.1 100.75 -13.75 102.0 -17.35 103.3 -19.0 103.85 Q-20.8 104.45 -22.45 103.85 -24.15 103.25 -25.15 101.7 L-27.25 105.1 -27.65 105.5 -28.35 106.25 -28.75 106.7 -29.75 107.4 -32.05 109.0 -34.3 110.55 -35.35 111.3 -35.9 111.5 -36.95 111.9 -37.5 112.15 -38.75 112.35 -41.6 112.85 -44.45 113.35 -45.75 113.55 -48.55 113.25 -56.5 110.1 Q-58.3 109.4 -59.2 107.65 L-62.9 100.6 -63.05 100.25 -63.2 99.95 -63.6 99.0 -64.4 96.85 -65.2 94.7 -65.6 93.65 -66.1 92.55 -67.0 90.5 -67.95 88.45 -68.35 87.55 -68.6 86.75 -68.9 85.65 -69.55 83.25 -70.2 80.85 -70.5 79.75 -70.65 78.4 Q-70.65 76.75 -69.75 75.45 -68.85 74.1 -67.3 73.5 L-56.1 69.1 -53.95 68.75 Q-52.8 68.8 -51.8 69.3 L-51.8 69.35 Q-50.85 67.4 -48.9 66.65 L-37.35 62.5 -36.05 62.25 -35.1 61.65 -34.15 61.2 -32.0 60.25 -29.9 59.25 -28.9 58.8 -28.55 58.65 -28.2 58.55 -22.7 56.85 -20.25 56.75 Q-19.05 57.05 -18.05 57.8 -17.25 56.0 -15.4 55.15 L-4.9 50.7 -2.7 50.25 Q-2.15 49.85 -1.45 49.65 L9.8 45.75 10.55 45.55 Q11.25 45.0 12.05 44.75 L12.65 44.55 13.25 44.35 16.45 43.4 19.3 42.6 19.45 42.5 24.75 40.7 Q26.5 40.15 27.25 40.1 L25.95 40.3 26.1 40.2 Q26.45 40.05 27.9 39.45 L32.8 37.5 33.0 37.4 33.2 37.35 39.9 35.3 40.2 35.2 41.6 34.35 Q41.65 34.3 42.75 33.9 L45.25 32.85 47.85 31.8 49.05 31.3 54.05 29.5 55.55 29.0 55.5 29.0 55.55 29.0 M22.0 -15.55 L22.45 -16.45 24.05 -19.95 24.65 -19.65 27.1 -16.25 30.6 -14.05 33.25 -11.25 33.2 -10.35 30.85 -8.85 27.2 -6.45 21.9 -11.95 20.4 -13.1 22.0 -15.55 M82.45 62.45 L79.05 52.65 Q78.65 51.5 77.45 51.05 76.75 50.85 76.05 51.05 L76.05 50.85 72.95 42.35 72.6 41.8 Q73.35 41.05 73.4 40.0 L73.3 39.3 70.45 29.25 Q70.15 28.2 69.15 27.65 L67.05 27.5 66.0 27.85 64.05 28.55 63.0 28.95 56.45 31.45 55.4 31.8 53.15 32.65 50.95 33.45 49.9 33.8 Q49.85 33.8 48.75 34.25 L46.25 35.3 43.7 36.35 42.55 36.8 Q41.85 37.1 41.4 37.7 L40.6 37.8 33.95 39.85 33.8 39.9 32.7 40.35 30.35 41.3 28.0 42.3 26.9 42.7 25.65 43.15 22.75 44.1 19.5 45.2 17.15 45.95 13.95 46.9 13.4 47.1 12.9 47.25 Q12.15 47.5 11.65 48.1 L10.6 48.25 -0.6 52.15 Q-1.45 52.45 -1.9 53.1 -2.9 52.7 -3.9 53.1 L-14.4 57.6 Q-15.15 57.95 -15.55 58.6 L-16.0 60.0 -15.9 60.65 -15.6 61.85 -14.95 64.35 -16.5 62.85 -19.35 60.05 Q-20.5 59.0 -21.95 59.4 L-27.45 61.05 -27.85 61.2 -34.0 64.05 Q-34.65 64.35 -35.05 64.9 L-36.5 65.0 -48.0 69.15 Q-49.1 69.55 -49.55 70.6 L-49.75 71.65 -49.5 72.7 -49.15 73.55 -48.3 75.4 -47.4 77.35 -46.9 78.4 -46.65 79.45 -46.1 81.35 -45.6 83.2 -45.4 84.05 -45.35 84.25 -44.85 85.45 -43.95 87.75 -43.35 89.3 -43.75 91.35 -44.3 93.85 -45.25 92.25 -45.9 91.1 -46.25 89.55 -46.7 87.35 -46.95 86.2 -47.15 85.6 -47.8 84.3 -49.0 81.85 -49.8 80.25 -50.15 79.0 -50.75 76.65 -51.4 74.35 -51.65 73.35 Q-52.0 72.2 -53.0 71.7 L-55.15 71.6 -66.4 75.95 -67.6 76.95 Q-68.05 77.6 -68.05 78.45 L-67.95 79.1 -66.1 86.1 -65.95 86.5 -65.55 87.45 -64.6 89.55 -63.65 91.65 -63.2 92.7 -62.5 94.6 -60.8 99.05 -60.65 99.4 -56.9 106.5 -55.55 107.7 -47.6 110.85 -46.2 111.0 -37.95 109.6 -36.9 109.15 -30.25 104.55 -29.5 103.75 -25.4 97.05 -25.05 96.15 -23.1 100.1 Q-22.65 101.0 -21.75 101.4 -20.85 101.75 -19.9 101.4 L-9.35 97.75 Q-8.55 97.45 -8.1 96.75 -7.65 96.1 -7.6 95.25 L-7.7 94.65 -8.05 93.2 -8.7 90.4 -6.9 92.1 -3.8 94.95 Q-3.25 95.45 -2.55 95.6 L-1.1 95.5 10.15 91.45 Q11.15 91.1 11.6 90.25 L12.85 90.1 24.25 85.75 Q25.25 85.35 25.7 84.35 L25.95 83.3 25.75 82.35 25.35 81.4 24.55 79.25 23.65 77.05 23.25 75.95 22.95 74.85 22.45 72.7 21.9 70.6 21.7 69.65 21.35 68.55 20.55 66.25 19.75 63.95 19.4 62.95 19.25 62.3 19.15 61.5 20.25 60.85 22.0 60.45 23.1 60.4 23.45 60.95 23.75 61.85 23.9 62.35 24.1 62.8 24.75 64.1 26.0 66.6 26.75 68.1 27.1 69.15 27.75 71.05 28.35 72.95 28.65 73.8 29.05 74.8 29.95 77.05 30.8 79.3 31.2 80.3 Q31.6 81.3 32.55 81.75 L34.45 81.85 45.75 78.25 Q46.6 77.95 47.1 77.25 47.6 76.6 47.6 75.7 L47.5 75.1 45.8 68.3 45.75 68.15 43.55 62.25 43.2 61.35 42.5 59.35 41.75 57.35 41.45 56.45 40.95 55.5 Q40.55 54.65 40.6 54.05 40.75 53.75 41.85 53.45 L44.15 52.95 45.65 52.85 Q46.0 53.1 46.55 54.45 L47.65 57.25 48.35 59.15 48.65 60.3 49.15 62.4 49.65 64.5 49.9 65.4 49.95 65.55 52.65 73.25 Q53.05 74.3 54.05 74.75 L56.15 74.8 63.55 71.75 63.4 71.75 64.35 71.35 66.45 70.5 Q67.65 69.95 68.6 69.55 69.6 69.15 69.75 69.1 L70.9 68.8 73.15 68.2 75.3 67.6 76.25 67.35 77.2 67.0 78.95 66.45 79.85 66.15 80.35 65.95 80.85 65.8 82.1 64.8 Q82.6 64.1 82.6 63.3 L82.45 62.45 M42.45 1.35 L43.7 3.4 46.7 11.5 42.4 13.75 39.2 14.8 37.05 10.95 35.9 7.2 35.0 6.1 39.9 2.95 42.45 1.35 M-59.05 -3.6 L-55.05 -10.3 -52.2 -6.6 -49.7 -3.3 -50.9 -1.1 -51.4 -0.55 -53.8 1.05 -54.85 1.8 -54.25 2.65 -55.7 5.95 -56.05 10.2 -57.85 14.2 -58.7 18.2 -58.7 22.5 -60.0 26.85 -59.25 35.6 -57.0 44.3 -54.65 48.65 -58.3 50.5 -62.6 51.5 -65.1 48.15 -65.75 43.85 -67.5 39.4 -67.45 31.7 -68.45 26.85 -67.75 23.15 -66.4 19.45 -66.15 15.65 -63.75 7.85 -62.0 -0.35 -59.05 -3.6 M-40.6 -17.35 L-43.05 -20.75 -42.2 -21.2 -38.5 -22.55 -38.5 -22.2 -38.4 -20.85 -37.95 -18.75 Q-37.65 -17.45 -36.95 -15.9 L-38.35 -14.3 -40.6 -17.35" fill="#e33000" fill-rule="evenodd" stroke="none"/>
    <path d="M-20.45 -123.8 L-21.65 -121.1 Q-22.55 -118.8 -23.15 -115.7 L-24.2 -109.7 -24.8 -104.8 -25.0 -102.75 -26.7 -104.75 -28.75 -107.1 -28.3 -109.45 Q-27.7 -112.55 -26.8 -114.85 -25.05 -119.45 -22.05 -122.45 L-20.45 -123.8" fill="#000000" fill-opacity="0.7019608" fill-rule="evenodd" stroke="none"/>
    <path d="M-65.35 -119.2 Q-66.15 -116.6 -66.0 -113.95 -65.85 -111.15 -65.1 -108.7 -64.4 -106.25 -63.7 -104.75 L-63.0 -103.2 -65.6 -103.45 -70.55 -103.5 Q-71.05 -105.5 -71.15 -107.7 -71.3 -110.35 -70.5 -112.95 -69.75 -115.5 -67.9 -117.45 -66.8 -118.55 -65.35 -119.2 M-95.25 -90.55 L-96.5 -88.15 Q-97.95 -84.8 -98.0 -80.95 -97.95 -77.2 -96.85 -74.05 -95.8 -70.95 -94.3 -68.55 L-91.5 -64.7 -88.35 -61.9 Q-86.55 -60.65 -85.15 -59.9 L-83.65 -59.1 -82.85 -56.8 -80.8 -51.0 -78.0 -43.3 -75.15 -35.25 -72.7 -28.55 -71.25 -24.7 -69.5 -21.2 -67.2 -17.15 -65.15 -13.8 -64.25 -12.45 -65.6 -10.7 -68.85 -5.6 Q-70.75 -2.2 -72.6 2.75 -74.5 7.75 -75.65 14.25 -76.75 20.8 -76.85 26.55 -77.0 32.3 -76.6 36.75 L-75.8 43.65 -75.35 46.25 -76.3 46.55 -78.8 47.4 -81.2 48.25 -81.75 43.0 Q-82.15 38.55 -82.0 32.8 -81.9 27.05 -80.8 20.5 -79.65 14.0 -77.75 9.0 -75.9 4.05 -74.0 0.65 L-70.75 -4.45 -69.4 -6.2 -70.3 -7.55 -72.35 -10.9 -74.65 -14.95 -76.4 -18.45 -77.85 -22.3 -80.3 -29.0 -83.15 -37.05 -85.95 -44.75 -88.0 -50.55 -88.8 -52.85 -90.3 -53.65 -93.5 -55.65 Q-95.3 -56.9 -96.65 -58.45 -97.95 -59.95 -99.45 -62.3 -100.95 -64.7 -102.0 -67.8 -103.1 -70.95 -103.15 -74.7 -103.1 -78.55 -101.65 -81.9 -100.2 -85.25 -97.8 -87.95 L-95.25 -90.55 M-88.1 55.75 Q-88.5 58.05 -87.75 60.4 L-86.3 64.45 -83.05 73.3 -78.65 85.4 -73.6 99.1 -68.55 112.9 -64.4 124.0 -64.15 123.9 Q-62.7 126.75 -59.75 127.85 -56.3 129.1 -51.25 127.45 L-44.55 125.1 -35.5 121.9 -30.95 120.25 -12.45 113.7 8.9 106.1 31.1 98.15 52.25 90.65 70.25 84.2 83.15 79.6 88.9 77.5 91.4 76.4 Q91.15 77.65 90.5 78.7 88.55 82.0 83.75 83.75 L78.0 85.85 65.1 90.45 47.1 96.9 25.95 104.4 3.75 112.35 -17.6 119.95 -36.1 126.5 -40.65 128.15 -49.7 131.35 -56.4 133.7 Q-61.45 135.35 -64.9 134.1 -67.85 133.0 -69.3 130.15 L-69.55 130.25 -73.7 119.15 -78.75 105.35 -83.8 91.65 -88.2 79.55 -91.45 70.7 -92.9 66.65 Q-93.65 64.3 -93.25 62.0 -92.85 59.65 -91.3 57.75 -90.15 56.3 -88.35 55.4 L-88.1 55.75" fill="#000000" fill-opacity="0.4" fill-rule="evenodd" stroke="none"/>
  </g>
</svg>
