<?xml version="1.0" encoding="UTF-8" standalone="no"?>
<svg xmlns:xlink="http://www.w3.org/1999/xlink" height="12.95px" width="85.15px" xmlns="http://www.w3.org/2000/svg">
  <g transform="matrix(1.0, 0.0, 0.0, 1.0, -33.9, -2.65)">
    <g transform="matrix(1.0, 0.0, 0.0, 1.0, 33.6, 0.0)">
      <use fill="#990066" height="12.95" transform="matrix(0.2734, 0.0, 0.0, 0.2734, 0.05, 12.65)" width="85.15" xlink:href="#font_SignPainter-HouseShowcard_t0"/>
      <use fill="#990066" height="12.95" transform="matrix(0.2734, 0.0, 0.0, 0.2734, 4.9, 12.65)" width="85.15" xlink:href="#font_SignPainter-HouseShowcard_h0"/>
      <use fill="#990066" height="12.95" transform="matrix(0.2734, 0.0, 0.0, 0.2734, 13.65, 12.65)" width="85.15" xlink:href="#font_SignPainter-HouseShowcard_i0"/>
      <use fill="#990066" height="12.95" transform="matrix(0.2734, 0.0, 0.0, 0.2734, 17.7, 12.65)" width="85.15" xlink:href="#font_SignPainter-HouseShowcard_s0"/>
      <use fill="#990066" height="12.95" transform="matrix(0.2734, 0.0, 0.0, 0.2734, 30.5, 12.65)" width="85.15" xlink:href="#font_SignPainter-HouseShowcard_w0"/>
      <use fill="#990066" height="12.95" transform="matrix(0.2734, 0.0, 0.0, 0.2734, 41.55, 12.65)" width="85.15" xlink:href="#font_SignPainter-HouseShowcard_a0"/>
      <use fill="#990066" height="12.95" transform="matrix(0.2734, 0.0, 0.0, 0.2734, 50.3, 12.65)" width="85.15" xlink:href="#font_SignPainter-HouseShowcard_y0"/>
      <use fill="#990066" height="12.95" transform="matrix(0.2734, 0.0, 0.0, 0.2734, 63.1, 12.65)" width="85.15" xlink:href="#font_SignPainter-HouseShowcard_t0"/>
      <use fill="#990066" height="12.95" transform="matrix(0.2734, 0.0, 0.0, 0.2734, 67.95, 12.65)" width="85.15" xlink:href="#font_SignPainter-HouseShowcard_o0"/>
    </g>
  </g>
  <defs>
    <g id="font_SignPainter-HouseShowcard_t0">
      <path d="M13.2 -26.55 L13.2 -23.05 8.7 -23.05 8.7 -7.5 Q8.7 -5.6 8.95 -5.05 9.15 -4.5 9.7 -4.15 10.25 -3.85 11.25 -3.85 L13.2 -4.0 13.85 -0.05 10.45 0.35 Q8.0 0.35 6.65 -0.4 5.3 -1.2 4.75 -2.45 4.2 -3.7 4.2 -7.75 L4.2 -23.05 0.9 -23.05 0.9 -26.55 4.2 -26.55 4.2 -33.1 8.7 -35.8 8.7 -26.55 13.2 -26.55" fill-rule="evenodd" stroke="none"/>
    </g>
    <g id="font_SignPainter-HouseShowcard_h0">
      <path d="M7.9 -36.65 L7.9 -23.5 Q11.05 -27.15 15.85 -27.15 18.8 -27.15 20.95 -25.95 23.15 -24.8 24.1 -22.75 25.0 -20.7 25.0 -16.8 L25.0 0.0 20.5 0.0 20.5 -16.8 Q20.5 -20.2 19.05 -21.7 17.6 -23.25 14.9 -23.25 12.9 -23.25 11.15 -22.2 9.4 -21.2 8.65 -19.4 7.9 -17.65 7.9 -14.5 L7.9 0.0 3.4 0.0 3.4 -36.65 7.9 -36.65" fill-rule="evenodd" stroke="none"/>
    </g>
    <g id="font_SignPainter-HouseShowcard_i0">
      <path d="M7.9 -26.55 L7.9 0.0 3.4 0.0 3.4 -26.55 7.9 -26.55 M3.4 -31.45 L3.4 -36.65 7.9 -36.65 7.9 -31.45 3.4 -31.45" fill-rule="evenodd" stroke="none"/>
    </g>
    <g id="font_SignPainter-HouseShowcard_s0">
      <path d="M17.6 -26.25 Q19.95 -25.35 21.1 -23.8 22.2 -22.25 22.65 -19.7 L18.25 -19.1 Q17.95 -21.15 16.5 -22.3 15.05 -23.45 12.45 -23.45 9.35 -23.45 8.0 -22.4 6.7 -21.4 6.7 -20.0 6.7 -19.15 7.25 -18.45 7.8 -17.7 8.95 -17.25 L12.95 -16.1 19.6 -14.0 Q21.5 -13.2 22.55 -11.65 23.65 -10.1 23.65 -7.8 23.65 -5.55 22.35 -3.55 21.0 -1.55 18.55 -0.45 16.05 0.6 12.95 0.6 7.75 0.6 5.05 -1.55 2.35 -3.7 1.6 -7.9 L6.05 -8.6 Q6.4 -5.95 8.15 -4.5 9.85 -3.1 12.9 -3.1 16.0 -3.1 17.5 -4.35 19.0 -5.6 19.0 -7.3 19.0 -8.85 17.7 -9.7 16.75 -10.3 13.1 -11.25 8.15 -12.5 6.25 -13.4 4.3 -14.3 3.35 -15.9 2.35 -17.55 2.35 -19.5 2.35 -21.25 3.15 -22.75 3.95 -24.3 5.35 -25.3 6.4 -26.05 8.25 -26.6 L12.1 -27.15 Q15.25 -27.15 17.6 -26.25" fill-rule="evenodd" stroke="none"/>
    </g>
    <g id="font_SignPainter-HouseShowcard_w0">
      <path d="M36.6 -26.55 L28.3 0.0 23.6 0.0 18.35 -20.4 13.0 0.0 8.3 0.0 0.15 -26.55 4.8 -26.55 10.6 -5.5 12.0 -11.0 16.2 -26.55 20.85 -26.55 26.15 -6.05 32.2 -26.55 36.6 -26.55" fill-rule="evenodd" stroke="none"/>
    </g>
    <g id="font_SignPainter-HouseShowcard_a0">
      <path d="M20.15 -26.35 Q22.25 -25.55 23.25 -24.3 24.25 -23.1 24.65 -21.25 L24.9 -17.1 24.9 -11.1 Q24.9 -4.85 25.2 -3.15 25.45 -1.5 26.3 0.0 L21.6 0.0 Q20.9 -1.4 20.7 -3.25 18.2 -1.15 15.9 -0.25 13.6 0.6 10.95 0.6 6.55 0.6 4.2 -1.5 1.85 -3.65 1.85 -7.0 1.85 -8.95 2.75 -10.55 3.65 -12.15 5.1 -13.15 6.5 -14.1 8.3 -14.6 L12.3 -15.3 Q17.75 -15.95 20.35 -16.85 L20.35 -18.0 Q20.35 -20.75 19.1 -21.9 17.35 -23.4 13.95 -23.4 10.8 -23.4 9.3 -22.3 7.75 -21.2 7.05 -18.35 L2.65 -18.95 Q3.25 -21.8 4.6 -23.5 6.0 -25.25 8.6 -26.2 11.2 -27.15 14.6 -27.15 18.0 -27.15 20.15 -26.35 M8.05 -4.1 Q9.4 -2.9 12.0 -2.9 14.6 -2.9 16.65 -4.05 18.65 -5.2 19.6 -7.15 20.35 -8.7 20.35 -11.65 L20.35 -13.3 Q17.9 -12.3 13.0 -11.6 L9.05 -10.7 Q7.9 -10.2 7.3 -9.25 6.65 -8.3 6.65 -7.1 6.65 -5.3 8.05 -4.1" fill-rule="evenodd" stroke="none"/>
    </g>
    <g id="font_SignPainter-HouseShowcard_y0">
      <path d="M25.15 -26.55 L15.05 0.45 Q13.45 4.85 12.55 6.5 11.35 8.7 9.8 9.75 8.25 10.8 6.1 10.8 L3.2 10.25 2.7 6.0 5.25 6.4 7.65 5.9 9.15 4.5 10.5 1.15 10.9 0.05 0.85 -26.55 5.7 -26.55 11.2 -11.15 13.15 -5.0 Q13.9 -8.1 15.0 -11.05 L20.65 -26.55 25.15 -26.55" fill-rule="evenodd" stroke="none"/>
    </g>
    <g id="font_SignPainter-HouseShowcard_o0">
      <path d="M6.35 -13.25 Q6.35 -8.15 8.55 -5.6 10.8 -3.1 14.15 -3.1 17.5 -3.1 19.75 -5.65 21.95 -8.2 21.95 -13.4 21.95 -18.35 19.75 -20.85 17.5 -23.4 14.15 -23.4 10.8 -23.4 8.55 -20.9 6.35 -18.35 6.35 -13.25 M5.8 -24.2 Q9.25 -27.15 14.15 -27.15 19.65 -27.15 23.1 -23.55 26.6 -19.95 26.6 -13.65 26.6 -8.5 25.05 -5.55 23.5 -2.65 20.6 -1.0 17.65 0.6 14.15 0.6 8.6 0.6 5.15 -2.95 1.7 -6.55 1.7 -13.25 1.7 -20.65 5.8 -24.2" fill-rule="evenodd" stroke="none"/>
    </g>
  </defs>
</svg>
