<?xml version="1.0" encoding="UTF-8" standalone="no"?>
<svg xmlns:xlink="http://www.w3.org/1999/xlink" height="10.45px" width="59.9px" xmlns="http://www.w3.org/2000/svg">
  <g transform="matrix(1.0, 0.0, 0.0, 1.0, -48.15, -2.85)">
    <g transform="matrix(1.0, 0.0, 0.0, 1.0, 46.75, 0.0)">
      <use fill="#000000" height="10.45" transform="matrix(0.2539, 0.0, 0.0, 0.2539, 0.1, 13.05)" width="59.9" xlink:href="#font_ComicBook_Normal_G0"/>
      <use fill="#000000" height="10.45" transform="matrix(0.2539, 0.0, 0.0, 0.2539, 11.65, 13.05)" width="59.9" xlink:href="#font_ComicBook_Normal_Y0"/>
      <use fill="#000000" height="10.45" transform="matrix(0.2539, 0.0, 0.0, 0.2539, 21.1, 13.05)" width="59.9" xlink:href="#font_ComicBook_Normal_R0"/>
      <use fill="#000000" height="10.45" transform="matrix(0.2539, 0.0, 0.0, 0.2539, 30.1, 13.05)" width="59.9" xlink:href="#font_ComicBook_Normal_O0"/>
      <use fill="#000000" height="10.45" transform="matrix(0.2539, 0.0, 0.0, 0.2539, 41.15, 13.05)" width="59.9" xlink:href="#font_ComicBook_Normal__0"/>
    </g>
  </g>
  <defs>
    <g id="font_ComicBook_Normal_G0">
      <path d="M38.65 -39.75 L38.7 -39.75 Q46.4 -39.75 49.2 -38.85 54.15 -37.15 53.1 -32.15 52.65 -30.8 51.1 -29.65 49.75 -28.6 48.8 -28.6 L46.2 -29.95 44.45 -30.85 Q41.9 -32.15 39.0 -32.15 32.5 -32.15 25.4 -27.7 22.15 -25.7 19.65 -23.35 17.1 -21.0 15.25 -18.25 14.4 -16.95 14.0 -15.75 12.95 -12.55 14.85 -10.6 16.7 -8.6 21.5 -8.6 26.15 -8.75 33.45 -11.45 40.0 -14.0 40.4 -15.25 40.6 -16.4 39.45 -16.4 L36.45 -15.75 33.25 -15.15 29.25 -14.7 25.25 -14.35 Q23.65 -14.45 22.7 -15.15 21.75 -15.9 22.2 -17.3 23.3 -20.05 29.1 -22.4 33.8 -24.3 41.5 -25.2 L46.4 -25.75 47.4 -25.85 49.95 -25.55 Q51.05 -25.3 51.7 -24.35 52.1 -23.6 51.65 -22.2 46.35 -10.0 35.1 -4.3 27.4 -0.3 19.2 -0.1 L17.9 -0.1 Q10.55 -0.1 7.45 -2.55 6.1 -3.7 5.55 -5.35 5.0 -7.05 5.25 -9.45 5.45 -11.85 6.6 -15.15 8.4 -19.9 11.8 -24.15 15.25 -28.45 20.35 -32.3 30.15 -39.7 38.65 -39.75" fill-rule="evenodd" stroke="none"/>
    </g>
    <g id="font_ComicBook_Normal_Y0">
      <path d="M37.55 -33.4 L41.55 -37.1 Q43.35 -38.75 45.35 -38.75 46.8 -38.6 47.4 -37.65 48.1 -36.8 47.75 -35.8 L47.1 -34.8 28.05 -17.15 20.95 -9.75 Q17.3 -5.9 13.1 -2.3 L10.9 -0.6 Q9.95 0.0 8.75 0.0 7.65 -0.15 7.05 -0.9 6.5 -1.65 6.8 -2.55 7.65 -5.1 10.15 -7.35 L14.9 -11.2 Q18.0 -13.45 19.3 -15.2 19.9 -15.95 20.1 -16.6 20.45 -17.6 20.0 -18.4 L17.6 -23.75 Q16.6 -26.2 15.75 -28.6 13.8 -34.0 13.45 -36.85 L13.55 -37.55 Q14.25 -39.65 19.65 -40.15 21.75 -40.15 22.3 -38.35 L23.3 -34.4 24.0 -31.75 24.6 -29.1 24.8 -25.9 Q24.95 -24.5 26.4 -24.4 27.45 -24.4 29.15 -25.8 L32.55 -28.55 35.1 -30.95 37.55 -33.4" fill-rule="evenodd" stroke="none"/>
    </g>
    <g id="font_ComicBook_Normal_R0">
      <path d="M37.25 -39.85 Q40.9 -39.8 42.9 -38.8 45.25 -37.6 45.45 -34.65 L45.2 -33.4 Q44.4 -30.95 40.2 -27.3 L36.65 -24.4 Q34.65 -22.95 32.45 -21.55 28.55 -19.1 27.5 -19.1 28.1 -17.15 29.55 -14.15 30.05 -13.25 31.85 -11.8 L34.0 -9.55 Q34.7 -8.35 34.05 -6.5 33.35 -4.35 31.25 -3.05 29.85 -2.15 28.5 -2.15 26.85 -2.15 25.6 -3.4 24.45 -4.5 23.55 -6.95 22.65 -9.5 21.55 -10.6 19.7 -12.25 18.0 -13.05 16.3 -13.85 14.75 -13.85 13.45 -13.85 12.7 -11.7 L11.25 -7.15 9.95 -4.7 8.3 -2.2 Q7.35 -0.95 6.15 -0.35 3.8 0.7 2.6 0.7 0.35 0.7 2.4 -5.35 L5.0 -12.05 7.8 -19.45 9.25 -24.2 10.7 -28.35 12.7 -33.25 Q14.45 -37.0 18.9 -38.55 21.75 -39.55 24.8 -39.85 L30.5 -39.9 33.85 -39.9 37.25 -39.85 M25.05 -33.45 L24.35 -33.45 Q22.55 -33.4 20.75 -32.4 20.1 -32.0 19.6 -31.2 L19.1 -30.3 18.6 -29.55 18.6 -29.5 16.2 -26.1 15.75 -25.1 Q15.5 -24.25 15.9 -24.0 L17.45 -23.7 19.05 -23.55 23.9 -24.55 Q27.6 -25.6 31.15 -27.6 34.7 -29.6 35.6 -31.35 36.1 -32.85 33.55 -33.2 L27.9 -33.4 25.05 -33.45" fill-rule="evenodd" stroke="none"/>
    </g>
    <g id="font_ComicBook_Normal_O0">
      <path d="M21.1 -26.25 Q19.0 -23.95 17.5 -21.5 16.0 -19.05 15.15 -16.45 13.85 -12.6 15.0 -10.8 16.6 -8.1 21.1 -8.1 23.95 -8.1 26.6 -9.1 29.25 -10.1 31.85 -12.15 38.35 -17.3 40.35 -23.25 41.8 -27.5 39.65 -30.2 38.1 -32.05 34.25 -32.05 30.9 -32.05 27.55 -30.65 23.75 -29.15 21.1 -26.25 M37.55 -39.95 Q41.25 -39.95 44.1 -38.8 46.85 -37.65 47.7 -35.75 L48.65 -32.8 49.0 -29.6 Q49.05 -28.0 48.7 -26.1 L47.75 -22.4 Q45.1 -14.65 38.05 -8.05 35.9 -6.05 33.55 -4.55 31.2 -3.05 28.55 -2.0 23.5 0.0 18.7 0.0 14.05 0.0 10.8 -1.8 9.0 -2.8 7.95 -4.15 6.9 -5.5 6.4 -7.2 5.25 -11.3 6.85 -16.0 8.8 -21.75 14.5 -27.85 18.9 -32.5 23.4 -35.5 30.1 -39.95 37.55 -39.95" fill-rule="evenodd" stroke="none"/>
    </g>
    <g id="font_ComicBook_Normal__0">
      <path d="M28.45 -32.9 Q25.45 -32.55 19.8 -29.8 14.2 -27.1 14.0 -27.1 L13.1 -27.05 Q10.85 -27.05 11.05 -29.0 L11.5 -31.65 Q11.95 -33.0 13.15 -33.65 18.55 -36.45 21.3 -37.55 26.4 -39.55 30.8 -39.75 L34.7 -40.05 38.75 -40.2 Q46.75 -40.2 45.2 -35.3 44.45 -33.15 42.5 -31.35 L41.3 -30.3 40.0 -29.1 38.7 -28.0 32.65 -23.0 24.7 -15.85 Q23.55 -14.7 22.1 -14.1 L18.6 -13.2 Q17.95 -13.2 17.4 -14.1 16.7 -15.3 16.9 -16.55 L17.25 -18.0 Q18.0 -20.25 20.9 -21.85 29.05 -26.45 29.8 -27.0 33.55 -29.35 34.0 -30.65 34.25 -31.65 32.85 -32.35 L29.5 -32.95 28.45 -32.9 M9.95 -2.8 Q10.3 -3.75 11.4 -5.45 12.65 -7.15 14.55 -8.35 16.4 -9.55 17.95 -9.55 19.0 -9.55 19.65 -9.05 21.15 -7.95 20.3 -5.4 19.75 -3.9 18.65 -2.5 L17.25 -1.05 15.55 -0.05 Q13.65 1.0 12.15 1.0 10.65 1.0 10.1 -0.05 9.45 -1.25 9.95 -2.8" fill-rule="evenodd" stroke="none"/>
    </g>
  </defs>
</svg>
