<?xml version="1.0" encoding="UTF-8" standalone="no"?>
<svg xmlns:xlink="http://www.w3.org/1999/xlink" height="20.45px" width="145.1px" xmlns="http://www.w3.org/2000/svg">
  <g transform="matrix(1.0, 0.0, 0.0, 1.0, -10.1, -4.0)">
    <g transform="matrix(1.0, 0.0, 0.0, 1.0, 8.8, 0.0)">
      <use fill="#000000" height="20.45" transform="matrix(0.4688, 0.0, 0.0, 0.4688, 0.1, 24.05)" width="145.1" xlink:href="#font_ComicBook_Normal_P0"/>
      <use fill="#000000" height="20.45" transform="matrix(0.4688, 0.0, 0.0, 0.4688, 17.05, 24.05)" width="145.1" xlink:href="#font_ComicBook_Normal_E0"/>
      <use fill="#000000" height="20.45" transform="matrix(0.4688, 0.0, 0.0, 0.4688, 33.7, 24.05)" width="145.1" xlink:href="#font_ComicBook_Normal_R0"/>
      <use fill="#000000" height="20.45" transform="matrix(0.4688, 0.0, 0.0, 0.4688, 50.35, 24.05)" width="145.1" xlink:href="#font_ComicBook_Normal_F0"/>
      <use fill="#000000" height="20.45" transform="matrix(0.4688, 0.0, 0.0, 0.4688, 65.75, 24.05)" width="145.1" xlink:href="#font_ComicBook_Normal_E0"/>
      <use fill="#000000" height="20.45" transform="matrix(0.4688, 0.0, 0.0, 0.4688, 82.4, 24.05)" width="145.1" xlink:href="#font_ComicBook_Normal_C0"/>
      <use fill="#000000" height="20.45" transform="matrix(0.4688, 0.0, 0.0, 0.4688, 99.8, 24.05)" width="145.1" xlink:href="#font_ComicBook_Normal_T0"/>
      <use fill="#000000" height="20.45" transform="matrix(0.4688, 0.0, 0.0, 0.4688, 117.5, 24.05)" width="145.1" xlink:href="#font_ComicBook_Normal__0"/>
    </g>
  </g>
  <defs>
    <g id="font_ComicBook_Normal_P0">
      <path d="M27.85 -32.4 Q25.15 -32.4 19.8 -30.65 L16.15 -19.9 Q21.35 -20.8 25.55 -22.0 35.25 -24.85 36.7 -28.75 37.65 -31.45 34.45 -32.1 L27.85 -32.4 M34.8 -40.2 Q41.0 -40.2 44.0 -38.2 45.2 -37.4 45.8 -36.3 46.4 -35.2 46.35 -33.6 46.35 -32.05 45.7 -30.25 44.2 -26.25 39.15 -22.3 35.6 -19.55 29.1 -16.1 26.2 -14.5 22.2 -13.9 L16.3 -13.7 Q13.6 -13.7 13.45 -13.3 L12.9 -11.85 12.0 -9.0 11.0 -5.7 Q10.1 -3.1 8.9 -1.75 7.45 -0.2 5.6 -0.15 3.8 -0.15 3.0 -1.3 2.3 -2.6 2.8 -4.65 L3.25 -6.1 5.0 -10.05 6.9 -14.2 9.0 -20.55 Q10.5 -25.0 11.35 -26.9 L14.35 -33.4 Q16.05 -36.85 16.9 -37.25 20.4 -39.05 31.35 -40.05 L34.8 -40.2" fill-rule="evenodd" stroke="none"/>
    </g>
    <g id="font_ComicBook_Normal_E0">
      <path d="M22.3 -29.85 Q18.1 -28.1 16.85 -24.3 L16.6 -23.25 Q16.55 -22.2 17.8 -22.2 L18.95 -22.35 19.95 -22.35 Q22.6 -22.5 28.5 -24.15 34.05 -25.65 37.3 -25.65 38.95 -25.65 40.0 -24.6 40.95 -23.6 40.45 -22.0 39.95 -20.5 38.95 -19.5 37.65 -18.1 36.15 -18.1 L29.2 -17.05 22.15 -15.25 17.55 -14.75 13.55 -14.2 Q12.85 -14.0 12.4 -13.0 L11.9 -11.2 11.45 -10.0 11.15 -8.95 Q11.1 -8.55 11.4 -8.35 12.55 -7.6 14.45 -7.6 16.85 -7.6 22.65 -9.15 28.85 -10.85 31.7 -11.2 33.65 -11.2 34.5 -10.5 35.55 -9.55 35.2 -8.05 34.55 -6.15 33.2 -5.1 31.65 -3.95 29.45 -3.65 L18.85 -1.8 Q12.3 -0.3 8.15 0.05 5.05 0.05 3.85 -0.95 2.6 -2.0 3.05 -4.05 L3.7 -6.6 Q4.3 -8.45 6.1 -11.8 8.25 -15.9 8.8 -17.35 L9.65 -19.75 11.05 -24.2 12.4 -28.2 Q13.35 -30.45 14.15 -31.6 16.3 -34.75 20.25 -36.15 22.95 -37.05 25.4 -37.25 L30.65 -37.75 37.7 -39.1 41.25 -39.6 44.85 -39.95 Q45.95 -39.95 46.45 -39.05 46.9 -38.15 46.7 -36.8 45.95 -34.65 44.65 -33.5 42.9 -32.1 40.95 -31.95 L35.4 -31.4 29.85 -31.25 Q25.7 -31.25 22.3 -29.85" fill-rule="evenodd" stroke="none"/>
    </g>
    <g id="font_ComicBook_Normal_R0">
      <path d="M37.25 -39.85 Q40.9 -39.8 42.9 -38.8 45.25 -37.6 45.45 -34.65 L45.2 -33.4 Q44.4 -30.95 40.2 -27.3 L36.65 -24.4 Q34.65 -22.95 32.45 -21.55 28.55 -19.1 27.5 -19.1 28.1 -17.15 29.55 -14.15 30.05 -13.25 31.85 -11.8 L34.0 -9.55 Q34.7 -8.35 34.05 -6.5 33.35 -4.35 31.25 -3.05 29.85 -2.15 28.5 -2.15 26.85 -2.15 25.6 -3.4 24.45 -4.5 23.55 -6.95 22.65 -9.5 21.55 -10.6 19.7 -12.25 18.0 -13.05 16.3 -13.85 14.75 -13.85 13.45 -13.85 12.7 -11.7 L11.25 -7.15 9.95 -4.7 8.3 -2.2 Q7.35 -0.95 6.15 -0.35 3.8 0.7 2.6 0.7 0.35 0.7 2.4 -5.35 L5.0 -12.05 7.8 -19.45 9.25 -24.2 10.7 -28.35 12.7 -33.25 Q14.45 -37.0 18.9 -38.55 21.75 -39.55 24.8 -39.85 L30.5 -39.9 33.85 -39.9 37.25 -39.85 M25.05 -33.45 L24.35 -33.45 Q22.55 -33.4 20.75 -32.4 20.1 -32.0 19.6 -31.2 L19.1 -30.3 18.6 -29.55 18.6 -29.5 16.2 -26.1 15.75 -25.1 Q15.5 -24.25 15.9 -24.0 L17.45 -23.7 19.05 -23.55 23.9 -24.55 Q27.6 -25.6 31.15 -27.6 34.7 -29.6 35.6 -31.35 36.1 -32.85 33.55 -33.2 L27.9 -33.4 25.05 -33.45" fill-rule="evenodd" stroke="none"/>
    </g>
    <g id="font_ComicBook_Normal_F0">
      <path d="M39.3 -39.9 L40.8 -40.1 Q42.45 -40.1 43.7 -39.15 44.95 -38.05 44.45 -36.4 43.9 -34.8 42.55 -33.8 41.2 -32.7 39.45 -32.35 L35.0 -31.95 28.25 -31.85 23.5 -31.65 Q20.95 -31.5 19.8 -31.0 19.4 -30.85 19.15 -30.1 L18.75 -28.55 18.35 -26.75 17.4 -24.25 16.9 -22.45 Q17.0 -21.6 18.2 -21.6 L20.9 -21.9 24.95 -22.8 28.9 -23.7 31.4 -24.2 33.65 -24.6 34.95 -24.4 Q37.85 -23.25 37.15 -21.2 36.75 -19.95 34.9 -19.1 L31.55 -17.75 Q29.4 -16.9 26.2 -16.7 L20.9 -15.95 19.3 -15.7 18.0 -15.45 16.7 -15.2 Q14.6 -14.8 13.5 -13.95 12.45 -13.1 12.05 -12.0 L11.7 -10.15 11.4 -8.05 11.0 -5.9 10.6 -3.9 Q10.25 -2.75 9.35 -1.55 8.85 -0.8 7.95 -0.55 L5.95 0.0 Q3.6 0.9 2.65 0.9 1.55 0.9 1.8 -0.1 L4.0 -7.1 6.3 -13.0 8.5 -18.75 9.75 -22.7 11.05 -26.65 12.85 -31.4 Q13.85 -33.95 14.75 -34.6 17.65 -37.0 20.95 -37.4 L22.9 -37.65 26.25 -38.0 29.95 -38.4 37.7 -39.7 38.1 -39.75 38.65 -39.85 39.3 -39.9" fill-rule="evenodd" stroke="none"/>
    </g>
    <g id="font_ComicBook_Normal_C0">
      <path d="M40.35 -40.55 Q43.15 -40.3 44.35 -37.95 45.5 -35.6 44.8 -32.45 L44.15 -30.3 Q41.55 -22.6 37.9 -22.3 35.25 -22.3 36.3 -27.55 36.5 -29.5 36.15 -30.15 35.7 -31.15 33.75 -31.15 31.3 -31.15 26.05 -27.0 21.35 -23.2 16.85 -18.3 12.25 -13.25 11.55 -11.15 L11.4 -10.55 Q11.45 -8.2 15.65 -8.2 19.75 -8.2 24.3 -9.65 L31.7 -12.4 Q35.7 -13.95 37.75 -14.05 39.35 -14.05 40.0 -13.55 40.65 -13.05 40.35 -11.95 39.55 -9.5 37.2 -7.5 34.9 -5.55 30.85 -3.75 23.25 -0.35 17.4 -0.35 11.1 -0.35 7.15 -2.75 2.5 -5.5 4.25 -10.6 6.75 -17.6 14.55 -25.2 17.75 -28.35 21.55 -31.25 25.3 -34.15 29.25 -36.45 32.85 -38.55 35.55 -39.55 38.25 -40.55 40.35 -40.55" fill-rule="evenodd" stroke="none"/>
    </g>
    <g id="font_ComicBook_Normal_T0">
      <path d="M24.25 -31.7 L18.8 -31.15 Q17.15 -31.15 16.35 -31.95 15.4 -32.8 15.95 -34.35 16.5 -35.85 18.1 -36.95 19.75 -38.05 21.2 -38.05 L25.9 -38.3 32.95 -38.9 40.4 -39.5 47.3 -39.8 Q49.1 -39.8 50.05 -39.05 51.2 -38.2 50.65 -36.65 50.1 -35.0 48.4 -33.75 46.75 -32.5 45.05 -32.35 L36.1 -31.9 Q35.55 -31.8 34.75 -31.25 L33.95 -30.2 Q33.85 -27.5 32.9 -24.75 L31.15 -20.6 28.95 -15.9 26.45 -9.8 23.2 -3.2 Q22.55 -2.0 21.1 -1.2 19.7 -0.45 18.25 -0.45 L15.85 -0.9 Q14.85 -1.5 15.25 -2.65 L16.3 -5.15 17.35 -7.65 19.65 -13.25 Q21.5 -17.55 23.35 -23.05 L25.15 -29.45 25.4 -30.2 25.6 -31.05 Q25.65 -31.7 24.25 -31.7" fill-rule="evenodd" stroke="none"/>
    </g>
    <g id="font_ComicBook_Normal__0">
      <path d="M27.3 -42.55 L28.9 -42.75 Q31.2 -42.75 31.9 -40.85 32.5 -39.05 31.55 -36.25 30.7 -33.8 28.95 -31.4 L27.35 -28.35 Q25.9 -25.6 25.4 -24.05 25.05 -23.05 25.2 -22.95 L24.1 -20.75 22.75 -18.25 Q20.4 -13.95 17.65 -13.95 L16.05 -14.35 Q13.95 -15.45 15.6 -20.3 L15.95 -21.1 16.95 -23.5 19.25 -29.15 20.3 -31.9 Q21.5 -35.45 21.55 -38.0 22.7 -41.45 27.3 -42.55 M8.85 -5.15 Q9.1 -5.95 9.65 -6.8 10.65 -8.3 12.5 -9.3 14.4 -10.25 16.05 -10.25 17.6 -10.25 18.5 -9.35 19.95 -7.9 19.1 -5.4 L18.25 -3.65 Q17.25 -2.0 15.5 -0.95 13.8 0.1 12.0 0.15 10.0 0.15 9.05 -1.45 8.15 -3.1 8.85 -5.15" fill-rule="evenodd" stroke="none"/>
    </g>
  </defs>
</svg>
