<?xml version="1.0" encoding="UTF-8" standalone="no"?>
<svg xmlns:xlink="http://www.w3.org/1999/xlink" height="44.75px" width="115.75px" xmlns="http://www.w3.org/2000/svg">
  <g transform="matrix(1.0, 0.0, 0.0, 1.0, -32.0, -2.6)">
    <g transform="matrix(1.0, 0.0, 0.0, 1.0, 14.35, 0.0)">
      <use fill="#000000" height="44.75" transform="matrix(0.2539, 0.0, 0.0, 0.2539, 22.35, 13.05)" width="115.75" xlink:href="#font_ComicBook_Normal_l0"/>
      <use fill="#000000" height="44.75" transform="matrix(0.2539, 0.0, 0.0, 0.2539, 29.5, 13.05)" width="115.75" xlink:href="#font_ComicBook_Normal_e0"/>
      <use fill="#000000" height="44.75" transform="matrix(0.2539, 0.0, 0.0, 0.2539, 38.55, 13.05)" width="115.75" xlink:href="#font_ComicBook_Normal_t0"/>
      <use fill="#000000" height="44.75" transform="matrix(0.2539, 0.0, 0.0, 0.2539, 48.15, 13.05)" width="115.75" xlink:href="#font_ComicBook_Normal__0"/>
      <use fill="#000000" height="44.75" transform="matrix(0.2539, 0.0, 0.0, 0.2539, 52.5, 13.05)" width="115.75" xlink:href="#font_ComicBook_Normal_s0"/>
      <use fill="#000000" height="44.75" transform="matrix(0.2539, 0.0, 0.0, 0.2539, 68.25, 13.05)" width="115.75" xlink:href="#font_ComicBook_Normal_g0"/>
      <use fill="#000000" height="44.75" transform="matrix(0.2539, 0.0, 0.0, 0.2539, 79.8, 13.05)" width="115.75" xlink:href="#font_ComicBook_Normal_e0"/>
      <use fill="#000000" height="44.75" transform="matrix(0.2539, 0.0, 0.0, 0.2539, 88.85, 13.05)" width="115.75" xlink:href="#font_ComicBook_Normal_t0"/>
      <use fill="#000000" height="44.75" transform="matrix(0.2539, 0.0, 0.0, 0.2539, 103.5, 13.05)" width="115.75" xlink:href="#font_ComicBook_Normal_m0"/>
      <use fill="#000000" height="44.75" transform="matrix(0.2539, 0.0, 0.0, 0.2539, 115.15, 13.05)" width="115.75" xlink:href="#font_ComicBook_Normal_y0"/>
    </g>
    <g transform="matrix(1.0, 0.0, 0.0, 1.0, 14.35, 0.0)">
      <use fill="#000000" height="44.75" transform="matrix(0.2539, 0.0, 0.0, 0.2539, 16.6, 30.1)" width="115.75" xlink:href="#font_ComicBook_Normal_i0"/>
      <use fill="#000000" height="44.75" transform="matrix(0.2539, 0.0, 0.0, 0.2539, 20.5, 30.1)" width="115.75" xlink:href="#font_ComicBook_Normal_n0"/>
      <use fill="#000000" height="44.75" transform="matrix(0.2539, 0.0, 0.0, 0.2539, 28.65, 30.1)" width="115.75" xlink:href="#font_ComicBook_Normal_v0"/>
      <use fill="#000000" height="44.75" transform="matrix(0.2539, 0.0, 0.0, 0.2539, 37.95, 30.1)" width="115.75" xlink:href="#font_ComicBook_Normal_e0"/>
      <use fill="#000000" height="44.75" transform="matrix(0.2539, 0.0, 0.0, 0.2539, 47.0, 30.1)" width="115.75" xlink:href="#font_ComicBook_Normal_s0"/>
      <use fill="#000000" height="44.75" transform="matrix(0.2539, 0.0, 0.0, 0.2539, 57.7, 30.1)" width="115.75" xlink:href="#font_ComicBook_Normal_t0"/>
      <use fill="#000000" height="44.75" transform="matrix(0.2539, 0.0, 0.0, 0.2539, 67.3, 30.1)" width="115.75" xlink:href="#font_ComicBook_Normal_m0"/>
      <use fill="#000000" height="44.75" transform="matrix(0.2539, 0.0, 0.0, 0.2539, 78.95, 30.1)" width="115.75" xlink:href="#font_ComicBook_Normal_e0"/>
      <use fill="#000000" height="44.75" transform="matrix(0.2539, 0.0, 0.0, 0.2539, 88.0, 30.1)" width="115.75" xlink:href="#font_ComicBook_Normal_n0"/>
      <use fill="#000000" height="44.75" transform="matrix(0.2539, 0.0, 0.0, 0.2539, 96.15, 30.1)" width="115.75" xlink:href="#font_ComicBook_Normal_t0"/>
      <use fill="#000000" height="44.75" transform="matrix(0.2539, 0.0, 0.0, 0.2539, 110.8, 30.1)" width="115.75" xlink:href="#font_ComicBook_Normal_u0"/>
      <use fill="#000000" height="44.75" transform="matrix(0.2539, 0.0, 0.0, 0.2539, 121.05, 30.1)" width="115.75" xlink:href="#font_ComicBook_Normal_p0"/>
    </g>
    <g transform="matrix(1.0, 0.0, 0.0, 1.0, 14.35, 0.0)">
      <use fill="#000000" height="44.75" transform="matrix(0.2539, 0.0, 0.0, 0.2539, 24.4, 47.15)" width="115.75" xlink:href="#font_ComicBook_Normal_a0"/>
      <use fill="#000000" height="44.75" transform="matrix(0.2539, 0.0, 0.0, 0.2539, 34.95, 47.15)" width="115.75" xlink:href="#font_ComicBook_Normal_n0"/>
      <use fill="#000000" height="44.75" transform="matrix(0.2539, 0.0, 0.0, 0.2539, 43.1, 47.15)" width="115.75" xlink:href="#font_ComicBook_Normal_d0"/>
      <use fill="#000000" height="44.75" transform="matrix(0.2539, 0.0, 0.0, 0.2539, 58.55, 47.15)" width="115.75" xlink:href="#font_ComicBook_Normal_r0"/>
      <use fill="#000000" height="44.75" transform="matrix(0.2539, 0.0, 0.0, 0.2539, 67.6, 47.15)" width="115.75" xlink:href="#font_ComicBook_Normal_u0"/>
      <use fill="#000000" height="44.75" transform="matrix(0.2539, 0.0, 0.0, 0.2539, 77.85, 47.15)" width="115.75" xlink:href="#font_ComicBook_Normal_n0"/>
      <use fill="#000000" height="44.75" transform="matrix(0.2539, 0.0, 0.0, 0.2539, 86.0, 47.15)" width="115.75" xlink:href="#font_ComicBook_Normal_n0"/>
      <use fill="#000000" height="44.75" transform="matrix(0.2539, 0.0, 0.0, 0.2539, 94.15, 47.15)" width="115.75" xlink:href="#font_ComicBook_Normal_i0"/>
      <use fill="#000000" height="44.75" transform="matrix(0.2539, 0.0, 0.0, 0.2539, 98.05, 47.15)" width="115.75" xlink:href="#font_ComicBook_Normal_n0"/>
      <use fill="#000000" height="44.75" transform="matrix(0.2539, 0.0, 0.0, 0.2539, 106.2, 47.15)" width="115.75" xlink:href="#font_ComicBook_Normal_g0"/>
      <use fill="#000000" height="44.75" transform="matrix(0.2539, 0.0, 0.0, 0.2539, 117.75, 47.15)" width="115.75" xlink:href="#font_ComicBook_Normal__2"/>
    </g>
  </g>
  <defs>
    <g id="font_ComicBook_Normal_l0">
      <path d="M22.35 -36.7 L21.2 -32.85 19.15 -27.45 16.8 -21.6 14.5 -16.2 12.35 -10.75 Q11.95 -9.5 12.95 -9.5 L15.3 -10.05 Q16.6 -10.45 21.1 -12.2 24.25 -13.45 26.65 -13.45 L30.15 -13.3 Q31.7 -12.7 30.95 -10.05 30.25 -8.0 28.4 -6.9 27.25 -6.25 24.55 -5.5 L18.9 -4.25 13.25 -3.0 8.85 -1.2 Q6.4 -0.05 4.4 0.15 L3.2 -0.1 Q2.8 -0.35 2.6 -0.9 2.25 -1.9 2.7 -3.3 3.85 -6.7 6.15 -11.75 L9.9 -20.75 12.35 -28.5 14.85 -36.5 Q15.45 -37.95 17.15 -39.6 18.85 -41.15 20.7 -41.15 23.45 -40.75 22.35 -36.7" fill-rule="evenodd" stroke="none"/>
    </g>
    <g id="font_ComicBook_Normal_e0">
      <path d="M22.3 -29.85 Q18.1 -28.1 16.85 -24.3 L16.6 -23.25 Q16.55 -22.2 17.8 -22.2 L18.95 -22.35 19.95 -22.35 Q22.6 -22.5 28.5 -24.15 34.05 -25.65 37.3 -25.65 38.95 -25.65 40.0 -24.6 40.95 -23.6 40.45 -22.0 39.95 -20.5 38.95 -19.5 37.65 -18.1 36.15 -18.1 L29.2 -17.05 22.15 -15.25 17.55 -14.75 13.55 -14.2 Q12.85 -14.0 12.4 -13.0 L11.9 -11.2 11.45 -10.0 11.15 -8.95 Q11.1 -8.55 11.4 -8.35 12.55 -7.6 14.45 -7.6 16.85 -7.6 22.65 -9.15 28.85 -10.85 31.7 -11.2 33.65 -11.2 34.5 -10.5 35.55 -9.55 35.2 -8.05 34.55 -6.15 33.2 -5.1 31.65 -3.95 29.45 -3.65 L18.85 -1.8 Q12.3 -0.3 8.15 0.05 5.05 0.05 3.85 -0.95 2.6 -2.0 3.05 -4.05 L3.7 -6.6 Q4.3 -8.45 6.1 -11.8 8.25 -15.9 8.8 -17.35 L9.65 -19.75 11.05 -24.2 12.4 -28.2 Q13.35 -30.45 14.15 -31.6 16.3 -34.75 20.25 -36.15 22.95 -37.05 25.4 -37.25 L30.65 -37.75 37.7 -39.1 41.25 -39.6 44.85 -39.95 Q45.95 -39.95 46.45 -39.05 46.9 -38.15 46.7 -36.8 45.95 -34.65 44.65 -33.5 42.9 -32.1 40.95 -31.95 L35.4 -31.4 29.85 -31.25 Q25.7 -31.25 22.3 -29.85" fill-rule="evenodd" stroke="none"/>
    </g>
    <g id="font_ComicBook_Normal_t0">
      <path d="M24.25 -31.7 L18.8 -31.15 Q17.15 -31.15 16.35 -31.95 15.4 -32.8 15.95 -34.35 16.5 -35.85 18.1 -36.95 19.75 -38.05 21.2 -38.05 L25.9 -38.3 32.95 -38.9 40.4 -39.5 47.3 -39.8 Q49.1 -39.8 50.05 -39.05 51.2 -38.2 50.65 -36.65 50.1 -35.0 48.4 -33.75 46.75 -32.5 45.05 -32.35 L36.1 -31.9 Q35.55 -31.8 34.75 -31.25 L33.95 -30.2 Q33.85 -27.5 32.9 -24.75 L31.15 -20.6 28.95 -15.9 26.45 -9.8 23.2 -3.2 Q22.55 -2.0 21.1 -1.2 19.7 -0.45 18.25 -0.45 L15.85 -0.9 Q14.85 -1.5 15.25 -2.65 L16.3 -5.15 17.35 -7.65 19.65 -13.25 Q21.5 -17.55 23.35 -23.05 L25.15 -29.45 25.4 -30.2 25.6 -31.05 Q25.65 -31.7 24.25 -31.7" fill-rule="evenodd" stroke="none"/>
    </g>
    <g id="font_ComicBook_Normal__0">
      <path d="M26.0 -40.45 Q27.2 -40.45 27.75 -39.45 28.55 -38.25 28.0 -36.65 27.3 -34.6 23.25 -30.2 21.15 -27.9 18.15 -25.95 15.05 -23.95 13.5 -23.95 11.35 -23.95 12.45 -27.3 13.35 -29.9 16.0 -33.1 18.25 -35.9 20.9 -38.0 24.05 -40.45 26.0 -40.45" fill-rule="evenodd" stroke="none"/>
    </g>
    <g id="font_ComicBook_Normal_s0">
      <path d="M34.25 -30.85 Q26.15 -28.65 20.15 -25.15 18.1 -23.95 17.65 -22.65 16.85 -20.4 25.7 -20.15 L33.35 -20.0 44.05 -19.85 Q46.35 -19.05 46.1 -15.4 L45.8 -14.1 Q44.15 -9.25 34.8 -4.45 30.25 -2.1 26.4 -0.95 22.55 0.2 19.35 0.2 14.8 0.15 12.25 -1.0 9.65 -2.1 6.9 -5.1 6.05 -7.95 6.5 -9.25 6.95 -10.65 8.7 -10.65 9.6 -10.65 11.6 -9.55 15.85 -7.25 20.55 -7.25 23.85 -7.25 27.3 -8.35 28.45 -8.65 33.2 -10.45 35.4 -11.25 35.6 -11.85 35.85 -12.55 34.05 -13.3 L29.35 -13.65 23.45 -13.95 16.05 -15.25 Q11.9 -16.0 10.05 -17.45 7.7 -19.2 8.65 -22.35 9.8 -25.8 12.65 -28.25 L15.6 -30.3 Q17.3 -31.35 19.25 -32.2 L21.95 -33.3 26.75 -35.3 Q32.0 -37.5 37.2 -38.8 41.6 -39.9 44.45 -39.9 47.35 -39.6 47.35 -35.1 L47.15 -32.4 Q46.95 -30.95 46.35 -29.25 45.65 -27.55 42.6 -27.1 41.3 -27.1 40.55 -28.45 39.6 -30.25 38.8 -30.55 L36.05 -31.1 34.25 -30.85" fill-rule="evenodd" stroke="none"/>
    </g>
    <g id="font_ComicBook_Normal_g0">
      <path d="M38.65 -39.75 L38.7 -39.75 Q46.4 -39.75 49.2 -38.85 54.15 -37.15 53.1 -32.15 52.65 -30.8 51.1 -29.65 49.75 -28.6 48.8 -28.6 L46.2 -29.95 44.45 -30.85 Q41.9 -32.15 39.0 -32.15 32.5 -32.15 25.4 -27.7 22.15 -25.7 19.65 -23.35 17.1 -21.0 15.25 -18.25 14.4 -16.95 14.0 -15.75 12.95 -12.55 14.85 -10.6 16.7 -8.6 21.5 -8.6 26.15 -8.75 33.45 -11.45 40.0 -14.0 40.4 -15.25 40.6 -16.4 39.45 -16.4 L36.45 -15.75 33.25 -15.15 29.25 -14.7 25.25 -14.35 Q23.65 -14.45 22.7 -15.15 21.75 -15.9 22.2 -17.3 23.3 -20.05 29.1 -22.4 33.8 -24.3 41.5 -25.2 L46.4 -25.75 47.4 -25.85 49.95 -25.55 Q51.05 -25.3 51.7 -24.35 52.1 -23.6 51.65 -22.2 46.35 -10.0 35.1 -4.3 27.4 -0.3 19.2 -0.1 L17.9 -0.1 Q10.55 -0.1 7.45 -2.55 6.1 -3.7 5.55 -5.35 5.0 -7.05 5.25 -9.45 5.45 -11.85 6.6 -15.15 8.4 -19.9 11.8 -24.15 15.25 -28.45 20.35 -32.3 30.15 -39.7 38.65 -39.75" fill-rule="evenodd" stroke="none"/>
    </g>
    <g id="font_ComicBook_Normal_m0">
      <path d="M27.2 -39.75 Q29.35 -39.75 29.4 -36.4 29.45 -34.45 28.85 -31.65 28.2 -28.65 28.2 -27.0 28.15 -25.6 28.7 -23.95 29.2 -22.35 29.8 -22.35 L35.8 -28.85 38.75 -32.1 42.75 -36.2 44.8 -37.8 Q45.85 -38.3 47.15 -38.3 49.05 -38.15 49.25 -35.85 L49.45 -32.15 49.1 -28.35 47.7 -20.65 47.15 -17.3 46.35 -12.65 Q46.1 -11.05 46.35 -8.15 46.6 -5.5 45.8 -3.15 45.55 -2.45 44.55 -2.1 L43.75 -1.85 42.85 -1.55 40.15 -1.05 Q39.05 -1.05 39.05 -1.95 39.05 -3.8 39.6 -11.65 L39.85 -13.85 40.1 -16.3 40.35 -19.6 40.55 -23.1 Q40.55 -24.35 39.0 -24.35 L35.25 -20.1 33.0 -17.15 31.3 -14.2 28.0 -7.6 Q27.25 -6.0 25.75 -5.25 24.5 -4.6 22.7 -4.6 21.3 -4.65 20.6 -5.5 19.8 -6.25 20.15 -7.6 L21.1 -11.15 Q21.35 -12.25 21.2 -14.2 21.1 -15.05 21.35 -17.25 21.55 -19.15 21.3 -20.25 L21.3 -22.1 Q21.3 -23.35 20.75 -23.35 19.85 -23.35 19.0 -21.85 L17.35 -19.3 Q15.35 -16.9 14.25 -14.65 L12.3 -10.6 11.75 -9.2 11.0 -6.35 9.85 -3.2 Q9.05 -1.8 7.2 -0.95 5.9 -0.35 4.3 -0.1 2.5 -0.1 1.8 -1.55 1.3 -2.8 2.1 -5.1 4.4 -9.7 7.7 -14.8 L13.8 -24.3 16.45 -28.8 19.3 -33.9 Q20.4 -35.8 22.9 -37.7 25.6 -39.75 27.2 -39.75" fill-rule="evenodd" stroke="none"/>
    </g>
    <g id="font_ComicBook_Normal_y0">
      <path d="M37.55 -33.4 L41.55 -37.1 Q43.35 -38.75 45.35 -38.75 46.8 -38.6 47.4 -37.65 48.1 -36.8 47.75 -35.8 L47.1 -34.8 28.05 -17.15 20.95 -9.75 Q17.3 -5.9 13.1 -2.3 L10.9 -0.6 Q9.95 0.0 8.75 0.0 7.65 -0.15 7.05 -0.9 6.5 -1.65 6.8 -2.55 7.65 -5.1 10.15 -7.35 L14.9 -11.2 Q18.0 -13.45 19.3 -15.2 19.9 -15.95 20.1 -16.6 20.45 -17.6 20.0 -18.4 L17.6 -23.75 Q16.6 -26.2 15.75 -28.6 13.8 -34.0 13.45 -36.85 L13.55 -37.55 Q14.25 -39.65 19.65 -40.15 21.75 -40.15 22.3 -38.35 L23.3 -34.4 24.0 -31.75 24.6 -29.1 24.8 -25.9 Q24.95 -24.5 26.4 -24.4 27.45 -24.4 29.15 -25.8 L32.55 -28.55 35.1 -30.95 37.55 -33.4" fill-rule="evenodd" stroke="none"/>
    </g>
    <g id="font_ComicBook_Normal_i0">
      <path d="M22.5 -40.05 Q24.35 -40.05 25.0 -38.35 25.5 -37.1 24.7 -34.8 L21.6 -27.6 18.3 -19.45 11.7 -3.6 Q10.3 -0.4 7.4 -0.05 5.35 -0.05 4.65 -0.9 3.75 -2.0 4.3 -3.6 L10.2 -19.6 Q12.75 -26.55 16.6 -35.4 17.5 -37.35 19.15 -38.65 20.7 -39.95 22.5 -39.95 L22.5 -40.05" fill-rule="evenodd" stroke="none"/>
    </g>
    <g id="font_ComicBook_Normal_n0">
      <path d="M37.25 -24.95 L36.25 -22.2 Q35.25 -19.25 34.2 -15.05 L32.4 -7.15 Q31.95 -5.8 31.15 -4.85 L29.1 -3.25 Q26.7 -2.05 24.1 -2.05 21.65 -2.05 19.6 -4.8 17.4 -7.6 14.25 -14.3 L13.3 -13.95 Q12.95 -13.9 12.8 -13.45 L11.75 -10.55 10.7 -7.05 9.95 -4.25 Q9.5 -2.85 8.7 -2.0 7.9 -1.15 6.55 -0.65 L4.3 -0.2 Q2.2 -0.2 2.55 -2.75 2.7 -4.2 3.2 -5.65 3.8 -7.35 5.75 -11.05 7.6 -14.45 8.4 -16.85 L8.7 -17.65 9.0 -18.5 9.35 -19.45 9.8 -20.55 11.0 -23.9 Q11.9 -26.5 12.25 -28.65 12.6 -30.85 12.45 -32.7 12.4 -33.2 12.65 -33.85 13.05 -35.1 14.2 -36.1 15.35 -37.15 16.7 -37.2 L16.75 -37.25 Q19.85 -37.25 21.05 -33.7 21.45 -32.45 21.05 -30.6 20.5 -28.0 20.55 -27.25 L20.55 -25.85 20.5 -24.55 Q20.5 -23.25 20.8 -22.05 21.45 -19.75 23.1 -16.7 24.8 -13.6 25.7 -13.45 26.85 -13.45 28.15 -16.05 L29.55 -19.75 29.95 -21.1 31.25 -24.25 32.6 -27.65 34.55 -32.85 35.15 -34.45 35.65 -35.8 Q36.1 -37.25 36.95 -38.5 38.95 -41.4 41.6 -41.4 42.9 -41.35 43.4 -40.3 44.0 -39.25 43.55 -38.0 42.7 -35.5 40.45 -31.4 38.1 -27.3 37.25 -24.95" fill-rule="evenodd" stroke="none"/>
    </g>
    <g id="font_ComicBook_Normal_v0">
      <path d="M38.6 -35.85 Q40.8 -39.1 43.9 -39.1 45.25 -39.1 46.3 -38.1 47.25 -37.1 46.8 -35.8 L46.45 -35.1 41.35 -27.9 34.7 -19.55 26.8 -10.1 23.55 -6.2 20.95 -3.05 Q18.35 0.25 15.9 0.25 13.6 0.25 13.15 -3.05 12.2 -10.1 11.8 -14.1 11.1 -20.0 11.9 -25.5 L13.7 -34.85 13.75 -35.2 13.85 -35.6 Q14.4 -37.2 15.65 -38.4 16.85 -39.6 18.45 -39.8 20.25 -39.8 20.8 -38.55 21.5 -37.25 21.2 -35.45 L20.95 -33.3 20.55 -30.7 20.2 -28.2 19.85 -25.75 Q19.25 -21.6 19.7 -17.0 19.95 -14.25 20.9 -14.25 21.9 -14.25 24.15 -16.9 L29.45 -22.85 34.55 -29.1 36.6 -32.45 38.6 -35.85" fill-rule="evenodd" stroke="none"/>
    </g>
    <g id="font_ComicBook_Normal_u0">
      <path d="M24.45 -36.1 L24.25 -32.25 23.95 -30.65 Q23.45 -29.3 21.9 -27.05 L19.4 -23.4 15.65 -16.0 13.85 -12.9 Q12.85 -11.15 12.55 -10.15 11.95 -7.85 16.15 -7.85 L21.1 -8.3 Q31.55 -9.35 33.5 -13.95 L36.95 -21.1 40.3 -28.2 41.0 -30.95 Q41.65 -32.8 42.25 -33.75 46.35 -40.15 48.75 -40.15 50.05 -40.15 51.0 -39.15 52.0 -38.25 51.55 -36.95 L51.35 -36.55 Q45.95 -27.5 43.85 -22.1 L41.35 -15.55 Q39.2 -9.15 40.0 -3.85 40.2 -3.2 39.95 -2.6 39.3 -0.65 34.4 -0.65 32.75 -0.75 30.75 -1.45 L29.75 -1.9 28.55 -2.4 Q21.2 0.35 16.75 0.35 1.9 -0.4 4.65 -9.2 6.25 -14.0 9.15 -19.05 L14.5 -28.5 15.6 -31.6 16.8 -34.65 Q17.55 -36.2 19.15 -37.1 20.55 -37.95 22.3 -37.95 24.05 -37.85 24.45 -36.1" fill-rule="evenodd" stroke="none"/>
    </g>
    <g id="font_ComicBook_Normal_p0">
      <path d="M27.85 -32.4 Q25.15 -32.4 19.8 -30.65 L16.15 -19.9 Q21.35 -20.8 25.55 -22.0 35.25 -24.85 36.7 -28.75 37.65 -31.45 34.45 -32.1 L27.85 -32.4 M34.8 -40.2 Q41.0 -40.2 44.0 -38.2 45.2 -37.4 45.8 -36.3 46.4 -35.2 46.35 -33.6 46.35 -32.05 45.7 -30.25 44.2 -26.25 39.15 -22.3 35.6 -19.55 29.1 -16.1 26.2 -14.5 22.2 -13.9 L16.3 -13.7 Q13.6 -13.7 13.45 -13.3 L12.9 -11.85 12.0 -9.0 11.0 -5.7 Q10.1 -3.1 8.9 -1.75 7.45 -0.2 5.6 -0.15 3.8 -0.15 3.0 -1.3 2.3 -2.6 2.8 -4.65 L3.25 -6.1 5.0 -10.05 6.9 -14.2 9.0 -20.55 Q10.5 -25.0 11.35 -26.9 L14.35 -33.4 Q16.05 -36.85 16.9 -37.25 20.4 -39.05 31.35 -40.05 L34.8 -40.2" fill-rule="evenodd" stroke="none"/>
    </g>
    <g id="font_ComicBook_Normal_a0">
      <path d="M32.65 -39.5 Q32.8 -39.8 33.9 -39.8 35.9 -39.8 37.55 -37.75 39.35 -35.5 40.25 -31.35 41.35 -26.0 41.55 -21.55 L42.05 -11.7 Q42.15 -10.8 42.75 -8.65 43.1 -7.15 42.6 -5.7 42.2 -4.5 40.65 -2.85 38.85 -0.85 37.5 -0.85 34.85 -0.85 35.2 -8.8 34.0 -10.6 31.05 -10.6 L27.4 -10.25 24.55 -9.75 23.4 -9.55 Q19.3 -9.05 15.5 -7.8 11.45 -6.55 10.1 -5.1 L9.35 -3.95 9.0 -2.9 8.6 -1.5 Q6.95 0.75 4.9 0.75 2.65 0.75 1.8 -0.65 1.25 -1.5 1.7 -2.8 2.25 -4.45 4.7 -7.3 L6.85 -9.7 8.5 -11.65 14.2 -18.9 17.5 -23.0 20.45 -26.65 Q29.3 -37.3 32.8 -39.55 L32.65 -39.5 M32.35 -27.0 L32.15 -27.75 Q31.85 -28.75 31.0 -28.8 30.15 -28.8 28.85 -27.95 L22.55 -21.5 21.2 -19.8 19.9 -17.95 18.15 -15.5 20.35 -15.45 22.0 -15.5 23.45 -15.55 25.55 -15.7 Q28.65 -16.0 34.2 -17.6 L33.5 -22.55 32.6 -26.05 32.35 -27.0" fill-rule="evenodd" stroke="none"/>
    </g>
    <g id="font_ComicBook_Normal_d0">
      <path d="M22.05 -30.15 L18.3 -21.4 15.45 -15.3 13.25 -10.55 13.1 -9.65 Q13.25 -8.85 14.3 -8.85 15.3 -8.85 17.45 -9.7 22.75 -11.6 29.3 -16.45 34.55 -20.3 39.2 -24.95 43.25 -29.05 43.7 -30.25 44.65 -32.95 41.35 -32.95 L37.35 -32.55 33.3 -32.1 Q29.55 -32.0 22.05 -30.15 M35.35 -39.85 L40.8 -40.2 43.05 -40.35 44.25 -40.45 47.5 -40.15 Q53.05 -38.6 52.15 -35.35 50.4 -30.2 44.1 -23.3 L39.4 -18.5 34.1 -13.85 28.5 -9.6 Q24.95 -7.2 21.9 -5.45 18.8 -3.65 15.8 -2.35 12.8 -1.05 9.8 -0.2 L5.2 0.5 Q3.15 0.5 2.3 -0.2 2.15 -0.25 2.4 -0.95 L5.45 -7.75 Q8.05 -13.35 9.25 -16.7 L11.25 -23.6 Q12.3 -27.95 12.9 -29.8 L14.05 -32.7 Q15.05 -34.95 16.5 -36.35 18.25 -38.1 20.0 -38.2 L20.05 -38.2 27.4 -38.95 35.35 -39.85" fill-rule="evenodd" stroke="none"/>
    </g>
    <g id="font_ComicBook_Normal_r0">
      <path d="M37.25 -39.85 Q40.9 -39.8 42.9 -38.8 45.25 -37.6 45.45 -34.65 L45.2 -33.4 Q44.4 -30.95 40.2 -27.3 L36.65 -24.4 Q34.65 -22.95 32.45 -21.55 28.55 -19.1 27.5 -19.1 28.1 -17.15 29.55 -14.15 30.05 -13.25 31.85 -11.8 L34.0 -9.55 Q34.7 -8.35 34.05 -6.5 33.35 -4.35 31.25 -3.05 29.85 -2.15 28.5 -2.15 26.85 -2.15 25.6 -3.4 24.45 -4.5 23.55 -6.95 22.65 -9.5 21.55 -10.6 19.7 -12.25 18.0 -13.05 16.3 -13.85 14.75 -13.85 13.45 -13.85 12.7 -11.7 L11.25 -7.15 9.95 -4.7 8.3 -2.2 Q7.35 -0.95 6.15 -0.35 3.8 0.7 2.6 0.7 0.35 0.7 2.4 -5.35 L5.0 -12.05 7.8 -19.45 9.25 -24.2 10.7 -28.35 12.7 -33.25 Q14.45 -37.0 18.9 -38.55 21.75 -39.55 24.8 -39.85 L30.5 -39.9 33.85 -39.9 37.25 -39.85 M25.05 -33.45 L24.35 -33.45 Q22.55 -33.4 20.75 -32.4 20.1 -32.0 19.6 -31.2 L19.1 -30.3 18.6 -29.55 18.6 -29.5 16.2 -26.1 15.75 -25.1 Q15.5 -24.25 15.9 -24.0 L17.45 -23.7 19.05 -23.55 23.9 -24.55 Q27.6 -25.6 31.15 -27.6 34.7 -29.6 35.6 -31.35 36.1 -32.85 33.55 -33.2 L27.9 -33.4 25.05 -33.45" fill-rule="evenodd" stroke="none"/>
    </g>
    <g id="font_ComicBook_Normal__2">
      <path d="M27.3 -42.55 L28.9 -42.75 Q31.2 -42.75 31.9 -40.85 32.5 -39.05 31.55 -36.25 30.7 -33.8 28.95 -31.4 L27.35 -28.35 Q25.9 -25.6 25.4 -24.05 25.05 -23.05 25.2 -22.95 L24.1 -20.75 22.75 -18.25 Q20.4 -13.95 17.65 -13.95 L16.05 -14.35 Q13.95 -15.45 15.6 -20.3 L15.95 -21.1 16.95 -23.5 19.25 -29.15 20.3 -31.9 Q21.5 -35.45 21.55 -38.0 22.7 -41.45 27.3 -42.55 M8.85 -5.15 Q9.1 -5.95 9.65 -6.8 10.65 -8.3 12.5 -9.3 14.4 -10.25 16.05 -10.25 17.6 -10.25 18.5 -9.35 19.95 -7.9 19.1 -5.4 L18.25 -3.65 Q17.25 -2.0 15.5 -0.95 13.8 0.1 12.0 0.15 10.0 0.15 9.05 -1.45 8.15 -3.1 8.85 -5.15" fill-rule="evenodd" stroke="none"/>
    </g>
  </defs>
</svg>
