<?xml version="1.0" encoding="UTF-8" standalone="no"?>
<svg xmlns:xlink="http://www.w3.org/1999/xlink" height="22.5px" width="63.55px" xmlns="http://www.w3.org/2000/svg">
  <g transform="matrix(1.0, 0.0, 0.0, 1.0, 0.25, -2.35)">
    <g transform="matrix(1.0, 0.0, 0.0, 1.0, 0.0, 0.0)">
      <use fill="#3333ff" height="22.5" transform="matrix(0.2344, 0.0, 0.0, 0.2344, 0.1, 12.5)" width="63.55" xlink:href="#font_ComicBook_Bold_r0"/>
      <use fill="#3333ff" height="22.5" transform="matrix(0.2344, 0.0, 0.0, 0.2344, 9.25, 12.5)" width="63.55" xlink:href="#font_ComicBook_Bold_e0"/>
      <use fill="#3333ff" height="22.5" transform="matrix(0.2344, 0.0, 0.0, 0.2344, 18.4, 12.5)" width="63.55" xlink:href="#font_ComicBook_Bold_p0"/>
      <use fill="#3333ff" height="22.5" transform="matrix(0.2344, 0.0, 0.0, 0.2344, 27.7, 12.5)" width="63.55" xlink:href="#font_ComicBook_Bold_l0"/>
      <use fill="#3333ff" height="22.5" transform="matrix(0.2344, 0.0, 0.0, 0.2344, 35.5, 12.5)" width="63.55" xlink:href="#font_ComicBook_Bold_a0"/>
      <use fill="#3333ff" height="22.5" transform="matrix(0.2344, 0.0, 0.0, 0.2344, 46.2, 12.5)" width="63.55" xlink:href="#font_ComicBook_Bold_y0"/>
    </g>
    <g transform="matrix(1.0, 0.0, 0.0, 1.0, 0.0, 0.0)">
      <use fill="#3333ff" height="22.5" transform="matrix(0.2344, 0.0, 0.0, 0.2344, 5.1, 24.35)" width="63.55" xlink:href="#font_ComicBook_Bold_m0"/>
      <use fill="#3333ff" height="22.5" transform="matrix(0.2344, 0.0, 0.0, 0.2344, 16.95, 24.35)" width="63.55" xlink:href="#font_ComicBook_Bold_o0"/>
      <use fill="#3333ff" height="22.5" transform="matrix(0.2344, 0.0, 0.0, 0.2344, 28.3, 24.35)" width="63.55" xlink:href="#font_ComicBook_Bold_v0"/>
      <use fill="#3333ff" height="22.5" transform="matrix(0.2344, 0.0, 0.0, 0.2344, 37.7, 24.35)" width="63.55" xlink:href="#font_ComicBook_Bold_i0"/>
      <use fill="#3333ff" height="22.5" transform="matrix(0.2344, 0.0, 0.0, 0.2344, 41.65, 24.35)" width="63.55" xlink:href="#font_ComicBook_Bold_e0"/>
    </g>
  </g>
  <defs>
    <g id="font_ComicBook_Bold_r0">
      <path d="M30.1 -41.0 Q33.8 -39.4 35.55 -35.4 L35.7 -33.85 Q35.7 -29.4 31.65 -24.75 28.5 -21.1 24.15 -18.4 L26.3 -15.55 Q26.8 -14.95 29.0 -13.55 L32.25 -10.95 Q33.95 -9.1 33.95 -6.5 33.95 -3.35 31.45 -1.4 L31.45 -1.35 Q30.0 -0.1 27.8 -0.1 25.3 -0.1 23.2 -1.65 L21.2 -3.5 19.35 -5.9 Q17.75 -8.15 16.8 -8.8 12.55 -11.45 10.75 -11.65 L10.85 -10.05 10.95 -8.2 Q10.95 -6.05 10.35 -4.15 L9.5 -1.35 Q8.7 0.55 7.0 1.5 3.7 2.85 2.85 2.85 0.65 2.85 -0.85 0.35 -1.6 -2.0 -1.6 -5.65 L-1.25 -12.4 Q-0.95 -16.95 -0.95 -19.45 L-1.1 -24.1 -1.1 -28.35 -0.7 -33.55 Q-0.4 -36.15 1.05 -37.85 2.45 -39.55 5.0 -40.45 7.9 -41.55 11.05 -41.85 L16.9 -42.0 17.0 -41.95 19.85 -42.05 22.85 -42.2 Q27.25 -42.2 30.1 -41.0 M10.25 -28.0 L9.2 -25.25 Q13.0 -25.45 16.75 -26.9 20.25 -28.4 23.2 -31.05 L17.35 -31.7 10.6 -31.05 10.25 -28.0" fill-rule="evenodd" stroke="none"/>
    </g>
    <g id="font_ComicBook_Bold_e0">
      <path d="M32.95 -26.3 Q35.0 -24.7 35.15 -22.0 35.15 -19.85 34.05 -18.3 32.7 -16.2 30.0 -15.95 26.8 -15.8 24.05 -15.05 L17.4 -13.2 17.35 -13.2 12.6 -12.65 10.15 -12.4 10.15 -9.75 10.15 -9.45 11.7 -9.25 Q13.35 -9.25 19.2 -11.1 25.15 -12.95 28.75 -12.95 31.0 -12.95 32.7 -11.7 34.4 -10.45 34.6 -8.3 34.6 -6.65 34.25 -5.6 33.85 -4.55 33.0 -3.65 31.15 -1.85 28.55 -1.55 L23.95 -0.85 18.8 0.25 13.05 1.45 8.35 2.1 7.35 2.15 Q4.85 2.15 2.95 1.2 -0.05 -0.3 -0.45 -3.75 L-0.45 -3.65 -0.7 -6.7 Q-0.7 -8.9 -0.05 -12.2 0.7 -16.1 0.7 -17.5 L0.75 -21.85 0.65 -24.85 0.6 -26.0 Q0.6 -29.6 1.4 -32.35 2.8 -36.6 7.3 -38.2 L7.25 -38.1 Q9.9 -39.2 12.55 -39.45 L15.4 -39.7 17.4 -39.9 23.9 -41.25 31.3 -42.0 Q35.25 -41.95 36.2 -37.15 L36.2 -37.05 36.25 -36.2 Q36.25 -33.75 34.55 -32.15 32.95 -30.6 30.35 -30.55 L19.15 -29.85 Q15.6 -29.85 13.0 -28.65 11.95 -28.25 11.25 -26.7 10.65 -25.5 10.65 -24.4 L10.65 -24.3 12.4 -24.5 Q14.5 -24.65 19.85 -26.25 24.6 -27.75 28.6 -27.75 31.2 -27.75 32.95 -26.3" fill-rule="evenodd" stroke="none"/>
    </g>
    <g id="font_ComicBook_Bold_p0">
      <path d="M24.8 -28.75 L24.95 -29.05 Q24.95 -29.7 22.35 -30.15 L18.9 -30.4 16.8 -30.35 Q14.55 -30.2 11.5 -29.15 L11.5 -22.45 Q16.25 -23.55 19.9 -24.95 24.85 -26.95 24.85 -28.45 L24.8 -28.75 M32.25 -39.95 Q34.85 -38.55 36.2 -36.1 37.5 -33.7 37.5 -30.2 37.4 -25.15 33.2 -20.9 30.8 -18.4 24.75 -14.3 L24.8 -14.3 Q20.2 -11.5 13.3 -11.5 L10.85 -11.75 11.0 -9.0 11.15 -5.7 Q11.15 -2.6 10.0 -0.7 8.55 1.95 5.6 1.95 2.9 1.95 1.0 0.05 -0.85 -1.85 -0.85 -4.4 L-0.85 -4.45 Q-0.85 -6.6 -0.45 -9.7 L-0.05 -14.2 -0.15 -18.55 -0.25 -22.55 -0.1 -24.85 0.1 -27.1 0.45 -30.45 0.85 -33.65 Q1.25 -37.05 3.1 -39.0 4.2 -39.7 6.2 -40.3 L11.2 -41.4 17.5 -42.15 21.2 -42.3 Q28.15 -42.3 32.25 -39.95" fill-rule="evenodd" stroke="none"/>
    </g>
    <g id="font_ComicBook_Bold_l0">
      <path d="M12.0 -36.85 L12.0 -36.8 Q12.35 -34.7 12.35 -31.9 12.35 -27.45 11.5 -21.6 L11.3 -12.05 Q11.3 -11.0 11.95 -11.0 12.45 -11.0 16.1 -13.25 19.75 -15.55 22.05 -15.55 L26.4 -15.1 Q29.6 -13.95 29.6 -10.25 L29.6 -10.2 Q29.6 -8.5 28.95 -7.2 28.25 -5.9 26.85 -5.0 25.45 -4.1 23.25 -3.45 L23.35 -3.5 17.8 -2.15 12.85 -1.0 12.9 -1.0 9.4 0.75 Q7.0 2.05 4.7 2.25 L2.1 1.8 Q1.15 1.35 0.5 0.3 -0.5 -1.35 -0.5 -3.4 -0.5 -6.55 0.1 -12.15 0.7 -18.0 0.7 -21.05 L0.5 -28.55 0.4 -36.5 Q0.45 -38.9 2.35 -41.1 4.15 -43.3 7.0 -43.3 11.0 -42.8 12.0 -36.85" fill-rule="evenodd" stroke="none"/>
    </g>
    <g id="font_ComicBook_Bold_a0">
      <path d="M29.25 -31.3 Q33.05 -26.95 35.25 -23.05 L37.0 -19.45 40.05 -12.6 40.9 -11.1 41.75 -9.65 Q42.8 -7.9 42.8 -5.65 L43.05 -4.8 Q43.05 -2.55 40.35 -0.45 38.4 1.05 36.6 1.05 L34.85 0.65 Q31.55 -0.9 30.15 -7.75 29.4 -8.45 27.7 -8.45 L25.7 -8.2 20.4 -7.4 Q17.45 -7.05 13.6 -5.7 10.2 -4.5 10.2 -4.05 L10.2 -4.15 10.15 -1.5 10.05 -1.15 10.0 -0.85 Q8.35 2.9 5.05 2.9 2.1 2.9 0.1 0.9 -1.35 -1.0 -1.35 -3.25 -1.35 -5.55 0.35 -8.45 L2.6 -12.5 5.9 -19.7 8.0 -24.25 9.4 -27.25 10.5 -29.55 Q16.4 -41.4 18.25 -41.4 20.9 -41.05 22.85 -39.4 24.3 -38.25 26.05 -35.75 L27.9 -33.15 29.25 -31.3 M21.05 -26.5 L21.3 -26.65 21.25 -26.75 20.75 -26.9 21.05 -26.5 20.85 -26.45 Q18.25 -23.0 17.1 -20.6 L15.8 -17.5 15.85 -17.5 17.7 -17.7 19.95 -17.85 25.4 -18.95 24.05 -21.55 22.05 -24.95 21.25 -26.15 21.05 -26.5" fill-rule="evenodd" stroke="none"/>
    </g>
    <g id="font_ComicBook_Bold_y0">
      <path d="M32.4 -40.85 Q34.5 -40.6 36.1 -39.2 37.7 -37.85 37.7 -36.0 37.7 -34.7 36.95 -33.45 L37.0 -33.45 34.45 -30.1 31.55 -26.2 27.4 -20.7 23.9 -15.95 23.15 -14.75 21.8 -12.4 19.55 -8.5 16.95 -4.5 13.9 -0.95 13.85 -0.9 13.05 -0.05 12.05 1.05 Q10.7 2.15 8.4 2.15 6.5 1.75 5.3 0.6 3.9 -0.8 3.9 -2.8 L3.95 -3.55 Q4.7 -6.4 6.6 -8.9 L9.85 -12.7 Q11.65 -14.55 12.2 -16.0 L12.2 -17.0 Q1.55 -30.25 -1.0 -36.05 L-1.15 -37.5 Q-1.15 -40.2 1.4 -41.3 L5.8 -42.3 Q9.25 -42.3 11.05 -39.6 L13.4 -35.6 13.4 -35.5 16.6 -30.0 17.7 -27.15 17.95 -26.65 18.1 -26.45 18.1 -26.5 18.15 -26.55 21.2 -29.9 24.65 -34.8 25.85 -36.55 27.2 -38.45 Q29.1 -40.85 32.35 -40.85 L32.4 -40.85" fill-rule="evenodd" stroke="none"/>
    </g>
    <g id="font_ComicBook_Bold_m0">
      <path d="M21.85 -25.95 L24.1 -29.85 Q25.4 -32.3 28.65 -37.3 L28.6 -37.25 Q30.35 -40.45 34.1 -40.45 37.45 -40.45 39.05 -36.75 40.65 -33.05 41.6 -28.75 L42.75 -20.95 44.1 -12.95 45.65 -8.95 Q46.8 -6.4 46.85 -3.15 46.5 -0.95 44.85 -0.15 L43.8 0.2 42.85 0.45 41.6 0.8 39.85 1.1 Q37.7 1.1 36.35 -1.3 L36.35 -1.2 36.25 -0.35 35.15 -4.6 33.65 -11.2 32.0 -18.35 Q31.15 -22.0 30.75 -22.2 30.15 -22.2 29.75 -20.55 L28.55 -13.8 Q28.05 -12.05 27.5 -7.3 27.2 -4.8 25.05 -3.5 23.4 -2.5 21.15 -2.5 19.0 -2.5 17.3 -3.8 15.45 -5.2 15.45 -7.6 15.45 -9.65 14.45 -14.2 13.45 -18.7 12.9 -18.7 L12.65 -18.35 Q11.75 -16.65 11.4 -14.25 L11.15 -12.45 10.8 -10.35 10.8 -8.1 11.0 -5.45 10.75 -2.7 10.75 -2.75 Q10.1 -0.3 8.0 0.95 6.35 1.95 4.35 2.0 1.7 2.0 -0.1 0.05 -1.8 -1.85 -1.8 -4.5 L-1.75 -5.4 Q-1.15 -9.85 0.65 -15.4 L3.5 -24.75 3.5 -24.7 Q4.2 -27.05 5.7 -34.25 L5.75 -34.25 Q6.6 -37.1 8.5 -39.1 10.75 -41.5 13.7 -41.85 16.1 -41.85 17.65 -40.25 19.05 -38.8 19.05 -37.15 L19.05 -37.05 Q19.05 -34.25 20.3 -30.15 21.3 -26.75 21.85 -25.95" fill-rule="evenodd" stroke="none"/>
    </g>
    <g id="font_ComicBook_Bold_o0">
      <path d="M23.65 -29.95 Q20.9 -29.95 18.25 -28.8 15.3 -27.45 14.0 -25.2 11.7 -21.1 11.7 -16.15 11.7 -13.15 12.85 -12.35 L12.85 -12.3 Q14.5 -10.25 18.35 -10.25 23.3 -10.25 26.1 -13.55 L26.2 -13.55 Q28.35 -15.9 29.4 -18.3 30.45 -20.65 30.45 -23.25 30.45 -26.7 28.1 -28.65 26.85 -29.95 23.65 -29.95 M31.75 -40.75 Q35.35 -39.35 37.25 -37.05 42.3 -30.8 42.3 -22.6 42.3 -18.3 41.0 -14.35 39.65 -10.35 37.0 -6.7 L37.0 -6.75 Q33.8 -2.35 28.75 0.0 24.0 2.2 18.65 2.2 L13.75 1.7 Q11.35 1.2 9.25 0.15 6.95 -0.95 5.2 -2.5 3.45 -4.05 2.15 -6.05 -0.8 -10.75 -0.8 -16.15 -0.8 -19.3 0.15 -22.5 1.1 -25.7 3.15 -29.0 4.6 -31.5 6.3 -33.5 8.0 -35.55 9.95 -37.15 12.95 -39.65 16.45 -40.9 20.0 -42.2 24.05 -42.2 28.2 -42.2 31.75 -40.75" fill-rule="evenodd" stroke="none"/>
    </g>
    <g id="font_ComicBook_Bold_v0">
      <path d="M31.65 -41.1 Q33.6 -40.7 35.1 -39.45 36.7 -38.0 36.7 -35.95 L36.45 -34.4 Q34.45 -27.5 30.0 -18.6 L21.85 -2.2 Q21.35 -0.15 19.6 1.05 17.9 2.2 15.9 2.2 11.6 2.2 10.2 -2.2 L10.2 -2.15 7.4 -8.15 5.0 -13.2 Q2.55 -18.6 1.15 -25.0 L1.15 -25.1 Q0.65 -27.9 -0.3 -34.55 L-0.35 -35.6 Q-0.35 -37.9 0.85 -39.65 2.2 -41.55 4.55 -41.9 L4.65 -41.9 Q7.3 -41.9 8.95 -40.35 10.65 -38.85 11.2 -35.85 L12.25 -30.95 13.15 -26.2 Q13.95 -22.3 15.8 -17.85 L16.25 -17.55 16.55 -17.8 18.5 -21.3 19.85 -23.8 22.65 -29.9 22.65 -30.0 Q23.15 -31.05 23.5 -32.9 L24.45 -36.45 24.45 -36.5 Q25.1 -38.55 26.75 -39.85 28.45 -41.2 30.55 -41.2 L31.65 -41.1" fill-rule="evenodd" stroke="none"/>
    </g>
    <g id="font_ComicBook_Bold_i0">
      <path d="M15.0 -34.5 L15.05 -34.6 Q14.4 -28.4 13.8 -19.25 L12.6 -3.45 Q12.55 -1.5 11.3 0.1 9.95 1.75 7.75 2.1 L7.7 2.1 Q4.65 2.1 3.0 0.7 1.0 -1.0 1.0 -3.6 L1.0 -3.75 1.2 -19.65 Q1.4 -25.15 2.5 -35.6 L2.5 -35.5 Q2.65 -38.05 4.35 -39.95 6.2 -42.05 8.9 -42.05 12.0 -42.05 13.75 -39.6 14.4 -38.75 14.7 -37.6 L15.0 -34.5" fill-rule="evenodd" stroke="none"/>
    </g>
  </defs>
</svg>
