<?xml version="1.0" encoding="UTF-8" standalone="no"?>
<svg xmlns:xlink="http://www.w3.org/1999/xlink" height="27.8px" width="112.35px" xmlns="http://www.w3.org/2000/svg">
  <g transform="matrix(1.0, 0.0, 0.0, 1.0, -24.2, -2.55)">
    <g transform="matrix(1.0, 0.0, 0.0, 1.0, 20.35, 0.0)">
      <use fill="#000000" height="27.8" transform="matrix(0.2539, 0.0, 0.0, 0.2539, 0.05, 13.05)" width="112.35" xlink:href="#font_ComicBook_Normal_t0"/>
      <use fill="#000000" height="27.8" transform="matrix(0.2539, 0.0, 0.0, 0.2539, 9.65, 13.05)" width="112.35" xlink:href="#font_ComicBook_Normal_h0"/>
      <use fill="#000000" height="27.8" transform="matrix(0.2539, 0.0, 0.0, 0.2539, 18.65, 13.05)" width="112.35" xlink:href="#font_ComicBook_Normal_i0"/>
      <use fill="#000000" height="27.8" transform="matrix(0.2539, 0.0, 0.0, 0.2539, 22.55, 13.05)" width="112.35" xlink:href="#font_ComicBook_Normal_s0"/>
      <use fill="#000000" height="27.8" transform="matrix(0.2539, 0.0, 0.0, 0.2539, 38.3, 13.05)" width="112.35" xlink:href="#font_ComicBook_Normal_c0"/>
      <use fill="#000000" height="27.8" transform="matrix(0.2539, 0.0, 0.0, 0.2539, 47.7, 13.05)" width="112.35" xlink:href="#font_ComicBook_Normal_a0"/>
      <use fill="#000000" height="27.8" transform="matrix(0.2539, 0.0, 0.0, 0.2539, 58.25, 13.05)" width="112.35" xlink:href="#font_ComicBook_Normal_n0"/>
      <use fill="#000000" height="27.8" transform="matrix(0.2539, 0.0, 0.0, 0.2539, 66.4, 13.05)" width="112.35" xlink:href="#font_ComicBook_Normal__1"/>
      <use fill="#000000" height="27.8" transform="matrix(0.2539, 0.0, 0.0, 0.2539, 70.75, 13.05)" width="112.35" xlink:href="#font_ComicBook_Normal_t0"/>
      <use fill="#000000" height="27.8" transform="matrix(0.2539, 0.0, 0.0, 0.2539, 85.4, 13.05)" width="112.35" xlink:href="#font_ComicBook_Normal_b0"/>
      <use fill="#000000" height="27.8" transform="matrix(0.2539, 0.0, 0.0, 0.2539, 94.15, 13.05)" width="112.35" xlink:href="#font_ComicBook_Normal_e0"/>
    </g>
    <g transform="matrix(1.0, 0.0, 0.0, 1.0, 20.35, 0.0)">
      <use fill="#000000" height="27.8" transform="matrix(0.2539, 0.0, 0.0, 0.2539, 23.9, 30.1)" width="112.35" xlink:href="#font_ComicBook_Normal_g0"/>
      <use fill="#000000" height="27.8" transform="matrix(0.2539, 0.0, 0.0, 0.2539, 35.45, 30.1)" width="112.35" xlink:href="#font_ComicBook_Normal_o0"/>
      <use fill="#000000" height="27.8" transform="matrix(0.2539, 0.0, 0.0, 0.2539, 46.5, 30.1)" width="112.35" xlink:href="#font_ComicBook_Normal_o0"/>
      <use fill="#000000" height="27.8" transform="matrix(0.2539, 0.0, 0.0, 0.2539, 57.55, 30.1)" width="112.35" xlink:href="#font_ComicBook_Normal_d0"/>
      <use fill="#000000" height="27.8" transform="matrix(0.2539, 0.0, 0.0, 0.2539, 67.95, 30.1)" width="112.35" xlink:href="#font_ComicBook_Normal_.0"/>
      <use fill="#000000" height="27.8" transform="matrix(0.2539, 0.0, 0.0, 0.2539, 71.75, 30.1)" width="112.35" xlink:href="#font_ComicBook_Normal_.0"/>
      <use fill="#000000" height="27.8" transform="matrix(0.2539, 0.0, 0.0, 0.2539, 75.55, 30.1)" width="112.35" xlink:href="#font_ComicBook_Normal_.0"/>
    </g>
  </g>
  <defs>
    <g id="font_ComicBook_Normal_t0">
      <path d="M24.25 -31.7 L18.8 -31.15 Q17.15 -31.15 16.35 -31.95 15.4 -32.8 15.95 -34.35 16.5 -35.85 18.1 -36.95 19.75 -38.05 21.2 -38.05 L25.9 -38.3 32.95 -38.9 40.4 -39.5 47.3 -39.8 Q49.1 -39.8 50.05 -39.05 51.2 -38.2 50.65 -36.65 50.1 -35.0 48.4 -33.75 46.75 -32.5 45.05 -32.35 L36.1 -31.9 Q35.55 -31.8 34.75 -31.25 L33.95 -30.2 Q33.85 -27.5 32.9 -24.75 L31.15 -20.6 28.95 -15.9 26.45 -9.8 23.2 -3.2 Q22.55 -2.0 21.1 -1.2 19.7 -0.45 18.25 -0.45 L15.85 -0.9 Q14.85 -1.5 15.25 -2.65 L16.3 -5.15 17.35 -7.65 19.65 -13.25 Q21.5 -17.55 23.35 -23.05 L25.15 -29.45 25.4 -30.2 25.6 -31.05 Q25.65 -31.7 24.25 -31.7" fill-rule="evenodd" stroke="none"/>
    </g>
    <g id="font_ComicBook_Normal_h0">
      <path d="M39.1 -37.5 L40.75 -39.15 Q41.75 -40.0 42.8 -40.15 44.6 -40.15 45.2 -39.05 45.7 -38.15 45.4 -36.75 L42.35 -28.9 39.15 -21.1 36.15 -12.75 33.3 -3.95 Q32.95 -2.85 31.9 -2.2 30.7 -1.5 29.4 -1.4 26.25 -1.4 26.75 -3.95 L27.1 -5.3 28.05 -7.45 28.95 -9.7 29.6 -11.2 30.15 -12.75 30.4 -14.15 Q30.4 -15.15 29.6 -15.4 L27.95 -15.85 26.35 -16.05 24.05 -15.75 21.55 -15.35 18.65 -15.35 Q17.05 -15.35 15.7 -14.75 L14.7 -14.25 13.8 -13.85 Q12.85 -13.4 12.5 -12.65 L11.3 -9.75 10.4 -6.4 9.35 -2.85 Q8.95 -1.65 7.85 -0.85 6.8 0.0 5.55 0.0 3.0 0.0 2.6 -1.05 2.4 -1.55 2.85 -3.75 L4.15 -8.5 5.25 -12.05 6.75 -16.15 Q7.7 -18.55 9.85 -22.5 L13.1 -28.95 13.6 -31.1 14.1 -33.05 Q14.45 -34.1 15.05 -34.95 18.25 -39.25 21.15 -39.25 L21.05 -39.2 Q22.6 -39.15 23.6 -38.3 24.3 -37.6 23.85 -36.2 L19.75 -28.2 17.65 -24.75 16.15 -22.15 Q15.85 -21.25 17.05 -21.25 L24.15 -22.5 26.1 -22.85 28.05 -23.1 29.9 -23.4 Q32.9 -23.95 34.15 -25.7 34.85 -26.7 35.4 -28.35 L36.25 -31.2 36.95 -33.1 37.35 -34.6 Q37.9 -36.2 39.1 -37.5" fill-rule="evenodd" stroke="none"/>
    </g>
    <g id="font_ComicBook_Normal_i0">
      <path d="M22.5 -40.05 Q24.35 -40.05 25.0 -38.35 25.5 -37.1 24.7 -34.8 L21.6 -27.6 18.3 -19.45 11.7 -3.6 Q10.3 -0.4 7.4 -0.05 5.35 -0.05 4.65 -0.9 3.75 -2.0 4.3 -3.6 L10.2 -19.6 Q12.75 -26.55 16.6 -35.4 17.5 -37.35 19.15 -38.65 20.7 -39.95 22.5 -39.95 L22.5 -40.05" fill-rule="evenodd" stroke="none"/>
    </g>
    <g id="font_ComicBook_Normal_s0">
      <path d="M34.25 -30.85 Q26.15 -28.65 20.15 -25.15 18.1 -23.95 17.65 -22.65 16.85 -20.4 25.7 -20.15 L33.35 -20.0 44.05 -19.85 Q46.35 -19.05 46.1 -15.4 L45.8 -14.1 Q44.15 -9.25 34.8 -4.45 30.25 -2.1 26.4 -0.95 22.55 0.2 19.35 0.2 14.8 0.15 12.25 -1.0 9.65 -2.1 6.9 -5.1 6.05 -7.95 6.5 -9.25 6.95 -10.65 8.7 -10.65 9.6 -10.65 11.6 -9.55 15.85 -7.25 20.55 -7.25 23.85 -7.25 27.3 -8.35 28.45 -8.65 33.2 -10.45 35.4 -11.25 35.6 -11.85 35.85 -12.55 34.05 -13.3 L29.35 -13.65 23.45 -13.95 16.05 -15.25 Q11.9 -16.0 10.05 -17.45 7.7 -19.2 8.65 -22.35 9.8 -25.8 12.65 -28.25 L15.6 -30.3 Q17.3 -31.35 19.25 -32.2 L21.95 -33.3 26.75 -35.3 Q32.0 -37.5 37.2 -38.8 41.6 -39.9 44.45 -39.9 47.35 -39.6 47.35 -35.1 L47.15 -32.4 Q46.95 -30.95 46.35 -29.25 45.65 -27.55 42.6 -27.1 41.3 -27.1 40.55 -28.45 39.6 -30.25 38.8 -30.55 L36.05 -31.1 34.25 -30.85" fill-rule="evenodd" stroke="none"/>
    </g>
    <g id="font_ComicBook_Normal_c0">
      <path d="M40.35 -40.55 Q43.15 -40.3 44.35 -37.95 45.5 -35.6 44.8 -32.45 L44.15 -30.3 Q41.55 -22.6 37.9 -22.3 35.25 -22.3 36.3 -27.55 36.5 -29.5 36.15 -30.15 35.7 -31.15 33.75 -31.15 31.3 -31.15 26.05 -27.0 21.35 -23.2 16.85 -18.3 12.25 -13.25 11.55 -11.15 L11.4 -10.55 Q11.45 -8.2 15.65 -8.2 19.75 -8.2 24.3 -9.65 L31.7 -12.4 Q35.7 -13.95 37.75 -14.05 39.35 -14.05 40.0 -13.55 40.65 -13.05 40.35 -11.95 39.55 -9.5 37.2 -7.5 34.9 -5.55 30.85 -3.75 23.25 -0.35 17.4 -0.35 11.1 -0.35 7.15 -2.75 2.5 -5.5 4.25 -10.6 6.75 -17.6 14.55 -25.2 17.75 -28.35 21.55 -31.25 25.3 -34.15 29.25 -36.45 32.85 -38.55 35.55 -39.55 38.25 -40.55 40.35 -40.55" fill-rule="evenodd" stroke="none"/>
    </g>
    <g id="font_ComicBook_Normal_a0">
      <path d="M32.65 -39.5 Q32.8 -39.8 33.9 -39.8 35.9 -39.8 37.55 -37.75 39.35 -35.5 40.25 -31.35 41.35 -26.0 41.55 -21.55 L42.05 -11.7 Q42.15 -10.8 42.75 -8.65 43.1 -7.15 42.6 -5.7 42.2 -4.5 40.65 -2.85 38.85 -0.85 37.5 -0.85 34.85 -0.85 35.2 -8.8 34.0 -10.6 31.05 -10.6 L27.4 -10.25 24.55 -9.75 23.4 -9.55 Q19.3 -9.05 15.5 -7.8 11.45 -6.55 10.1 -5.1 L9.35 -3.95 9.0 -2.9 8.6 -1.5 Q6.95 0.75 4.9 0.75 2.65 0.75 1.8 -0.65 1.25 -1.5 1.7 -2.8 2.25 -4.45 4.7 -7.3 L6.85 -9.7 8.5 -11.65 14.2 -18.9 17.5 -23.0 20.45 -26.65 Q29.3 -37.3 32.8 -39.55 L32.65 -39.5 M32.35 -27.0 L32.15 -27.75 Q31.85 -28.75 31.0 -28.8 30.15 -28.8 28.85 -27.95 L22.55 -21.5 21.2 -19.8 19.9 -17.95 18.15 -15.5 20.35 -15.45 22.0 -15.5 23.45 -15.55 25.55 -15.7 Q28.65 -16.0 34.2 -17.6 L33.5 -22.55 32.6 -26.05 32.35 -27.0" fill-rule="evenodd" stroke="none"/>
    </g>
    <g id="font_ComicBook_Normal_n0">
      <path d="M37.25 -24.95 L36.25 -22.2 Q35.25 -19.25 34.2 -15.05 L32.4 -7.15 Q31.95 -5.8 31.15 -4.85 L29.1 -3.25 Q26.7 -2.05 24.1 -2.05 21.65 -2.05 19.6 -4.8 17.4 -7.6 14.25 -14.3 L13.3 -13.95 Q12.95 -13.9 12.8 -13.45 L11.75 -10.55 10.7 -7.05 9.95 -4.25 Q9.5 -2.85 8.7 -2.0 7.9 -1.15 6.55 -0.65 L4.3 -0.2 Q2.2 -0.2 2.55 -2.75 2.7 -4.2 3.2 -5.65 3.8 -7.35 5.75 -11.05 7.6 -14.45 8.4 -16.85 L8.7 -17.65 9.0 -18.5 9.35 -19.45 9.8 -20.55 11.0 -23.9 Q11.9 -26.5 12.25 -28.65 12.6 -30.85 12.45 -32.7 12.4 -33.2 12.65 -33.85 13.05 -35.1 14.2 -36.1 15.35 -37.15 16.7 -37.2 L16.75 -37.25 Q19.85 -37.25 21.05 -33.7 21.45 -32.45 21.05 -30.6 20.5 -28.0 20.55 -27.25 L20.55 -25.85 20.5 -24.55 Q20.5 -23.25 20.8 -22.05 21.45 -19.75 23.1 -16.7 24.8 -13.6 25.7 -13.45 26.85 -13.45 28.15 -16.05 L29.55 -19.75 29.95 -21.1 31.25 -24.25 32.6 -27.65 34.55 -32.85 35.15 -34.45 35.65 -35.8 Q36.1 -37.25 36.95 -38.5 38.95 -41.4 41.6 -41.4 42.9 -41.35 43.4 -40.3 44.0 -39.25 43.55 -38.0 42.7 -35.5 40.45 -31.4 38.1 -27.3 37.25 -24.95" fill-rule="evenodd" stroke="none"/>
    </g>
    <g id="font_ComicBook_Normal__1">
      <path d="M26.0 -40.45 Q27.2 -40.45 27.75 -39.45 28.55 -38.25 28.0 -36.65 27.3 -34.6 23.25 -30.2 21.15 -27.9 18.15 -25.95 15.05 -23.95 13.5 -23.95 11.35 -23.95 12.45 -27.3 13.35 -29.9 16.0 -33.1 18.25 -35.9 20.9 -38.0 24.05 -40.45 26.0 -40.45" fill-rule="evenodd" stroke="none"/>
    </g>
    <g id="font_ComicBook_Normal_b0">
      <path d="M25.3 -33.1 Q23.2 -33.05 19.4 -32.05 18.05 -29.6 17.05 -27.0 L16.3 -24.85 Q15.9 -23.7 16.4 -23.2 L16.8 -23.1 Q18.15 -23.1 25.6 -26.5 L30.55 -28.95 Q32.9 -30.3 33.3 -31.55 33.8 -33.15 29.0 -33.15 L27.65 -33.15 25.3 -33.1 M35.9 -26.9 L33.75 -25.45 33.9 -25.4 36.4 -25.6 Q38.25 -25.6 39.05 -25.1 L40.75 -23.9 Q41.3 -23.1 40.45 -20.65 37.5 -11.9 27.85 -5.75 18.7 0.05 9.8 0.05 6.45 0.0 4.85 -1.7 3.35 -3.1 3.8 -5.15 4.85 -9.85 7.35 -17.25 9.25 -22.9 12.2 -30.3 L12.0 -30.75 11.75 -31.2 Q11.4 -32.25 11.5 -32.9 12.1 -34.7 13.2 -35.8 14.5 -37.1 15.85 -37.4 L19.95 -38.45 23.4 -39.3 31.05 -40.15 Q45.1 -40.15 42.8 -33.4 42.15 -31.8 39.9 -29.9 L35.9 -26.9 M10.5 -8.1 L10.45 -8.05 Q10.05 -6.85 12.0 -6.5 L14.4 -6.35 Q17.75 -6.65 22.35 -9.0 L26.2 -11.2 Q28.0 -12.35 29.8 -13.75 32.6 -16.1 33.2 -17.75 33.2 -19.0 27.65 -19.0 L23.15 -18.8 Q19.9 -18.45 14.15 -16.35 11.5 -11.1 10.5 -8.1" fill-rule="evenodd" stroke="none"/>
    </g>
    <g id="font_ComicBook_Normal_e0">
      <path d="M22.3 -29.85 Q18.1 -28.1 16.85 -24.3 L16.6 -23.25 Q16.55 -22.2 17.8 -22.2 L18.95 -22.35 19.95 -22.35 Q22.6 -22.5 28.5 -24.15 34.05 -25.65 37.3 -25.65 38.95 -25.65 40.0 -24.6 40.95 -23.6 40.45 -22.0 39.95 -20.5 38.95 -19.5 37.65 -18.1 36.15 -18.1 L29.2 -17.05 22.15 -15.25 17.55 -14.75 13.55 -14.2 Q12.85 -14.0 12.4 -13.0 L11.9 -11.2 11.45 -10.0 11.15 -8.95 Q11.1 -8.55 11.4 -8.35 12.55 -7.6 14.45 -7.6 16.85 -7.6 22.65 -9.15 28.85 -10.85 31.7 -11.2 33.65 -11.2 34.5 -10.5 35.55 -9.55 35.2 -8.05 34.55 -6.15 33.2 -5.1 31.65 -3.95 29.45 -3.65 L18.85 -1.8 Q12.3 -0.3 8.15 0.05 5.05 0.05 3.85 -0.95 2.6 -2.0 3.05 -4.05 L3.7 -6.6 Q4.3 -8.45 6.1 -11.8 8.25 -15.9 8.8 -17.35 L9.65 -19.75 11.05 -24.2 12.4 -28.2 Q13.35 -30.45 14.15 -31.6 16.3 -34.75 20.25 -36.15 22.95 -37.05 25.4 -37.25 L30.65 -37.75 37.7 -39.1 41.25 -39.6 44.85 -39.95 Q45.95 -39.95 46.45 -39.05 46.9 -38.15 46.7 -36.8 45.95 -34.65 44.65 -33.5 42.9 -32.1 40.95 -31.95 L35.4 -31.4 29.85 -31.25 Q25.7 -31.25 22.3 -29.85" fill-rule="evenodd" stroke="none"/>
    </g>
    <g id="font_ComicBook_Normal_g0">
      <path d="M38.65 -39.75 L38.7 -39.75 Q46.4 -39.75 49.2 -38.85 54.15 -37.15 53.1 -32.15 52.65 -30.8 51.1 -29.65 49.75 -28.6 48.8 -28.6 L46.2 -29.95 44.45 -30.85 Q41.9 -32.15 39.0 -32.15 32.5 -32.15 25.4 -27.7 22.15 -25.7 19.65 -23.35 17.1 -21.0 15.25 -18.25 14.4 -16.95 14.0 -15.75 12.95 -12.55 14.85 -10.6 16.7 -8.6 21.5 -8.6 26.15 -8.75 33.45 -11.45 40.0 -14.0 40.4 -15.25 40.6 -16.4 39.45 -16.4 L36.45 -15.75 33.25 -15.15 29.25 -14.7 25.25 -14.35 Q23.65 -14.45 22.7 -15.15 21.75 -15.9 22.2 -17.3 23.3 -20.05 29.1 -22.4 33.8 -24.3 41.5 -25.2 L46.4 -25.75 47.4 -25.85 49.95 -25.55 Q51.05 -25.3 51.7 -24.35 52.1 -23.6 51.65 -22.2 46.35 -10.0 35.1 -4.3 27.4 -0.3 19.2 -0.1 L17.9 -0.1 Q10.55 -0.1 7.45 -2.55 6.1 -3.7 5.55 -5.35 5.0 -7.05 5.25 -9.45 5.45 -11.85 6.6 -15.15 8.4 -19.9 11.8 -24.15 15.25 -28.45 20.35 -32.3 30.15 -39.7 38.65 -39.75" fill-rule="evenodd" stroke="none"/>
    </g>
    <g id="font_ComicBook_Normal_o0">
      <path d="M21.1 -26.25 Q19.0 -23.95 17.5 -21.5 16.0 -19.05 15.15 -16.45 13.85 -12.6 15.0 -10.8 16.6 -8.1 21.1 -8.1 23.95 -8.1 26.6 -9.1 29.25 -10.1 31.85 -12.15 38.35 -17.3 40.35 -23.25 41.8 -27.5 39.65 -30.2 38.1 -32.05 34.25 -32.05 30.9 -32.05 27.55 -30.65 23.75 -29.15 21.1 -26.25 M37.55 -39.95 Q41.25 -39.95 44.1 -38.8 46.85 -37.65 47.7 -35.75 L48.65 -32.8 49.0 -29.6 Q49.05 -28.0 48.7 -26.1 L47.75 -22.4 Q45.1 -14.65 38.05 -8.05 35.9 -6.05 33.55 -4.55 31.2 -3.05 28.55 -2.0 23.5 0.0 18.7 0.0 14.05 0.0 10.8 -1.8 9.0 -2.8 7.95 -4.15 6.9 -5.5 6.4 -7.2 5.25 -11.3 6.85 -16.0 8.8 -21.75 14.5 -27.85 18.9 -32.5 23.4 -35.5 30.1 -39.95 37.55 -39.95" fill-rule="evenodd" stroke="none"/>
    </g>
    <g id="font_ComicBook_Normal_d0">
      <path d="M22.05 -30.15 L18.3 -21.4 15.45 -15.3 13.25 -10.55 13.1 -9.65 Q13.25 -8.85 14.3 -8.85 15.3 -8.85 17.45 -9.7 22.75 -11.6 29.3 -16.45 34.55 -20.3 39.2 -24.95 43.25 -29.05 43.7 -30.25 44.65 -32.95 41.35 -32.95 L37.35 -32.55 33.3 -32.1 Q29.55 -32.0 22.05 -30.15 M35.35 -39.85 L40.8 -40.2 43.05 -40.35 44.25 -40.45 47.5 -40.15 Q53.05 -38.6 52.15 -35.35 50.4 -30.2 44.1 -23.3 L39.4 -18.5 34.1 -13.85 28.5 -9.6 Q24.95 -7.2 21.9 -5.45 18.8 -3.65 15.8 -2.35 12.8 -1.05 9.8 -0.2 L5.2 0.5 Q3.15 0.5 2.3 -0.2 2.15 -0.25 2.4 -0.95 L5.45 -7.75 Q8.05 -13.35 9.25 -16.7 L11.25 -23.6 Q12.3 -27.95 12.9 -29.8 L14.05 -32.7 Q15.05 -34.95 16.5 -36.35 18.25 -38.1 20.0 -38.2 L20.05 -38.2 27.4 -38.95 35.35 -39.85" fill-rule="evenodd" stroke="none"/>
    </g>
    <g id="font_ComicBook_Normal_.0">
      <path d="M8.85 -8.35 Q10.7 -9.55 12.25 -9.55 13.35 -9.55 13.95 -9.05 15.45 -7.9 14.6 -5.4 14.1 -3.85 12.95 -2.5 L11.6 -1.05 9.85 -0.05 Q7.95 1.0 6.45 1.0 4.95 1.0 4.45 -0.05 3.75 -1.2 4.3 -2.8 4.65 -3.9 5.7 -5.45 7.0 -7.15 8.85 -8.35" fill-rule="evenodd" stroke="none"/>
    </g>
  </defs>
</svg>
