<?xml version="1.0" encoding="UTF-8" standalone="no"?>
<svg xmlns:xlink="http://www.w3.org/1999/xlink" height="34.75px" width="295.4px" xmlns="http://www.w3.org/2000/svg">
  <g transform="matrix(1.0, 0.0, 0.0, 1.0, -29.9, -9.45)">
    <g transform="matrix(1.0, 0.0, 0.0, 1.0, 29.5, 0.0)">
      <use fill="#ffffff" height="34.75" transform="matrix(0.2539, 0.0, 0.0, 0.2539, 0.05, 43.95)" width="295.4" xlink:href="#font_ComicBook_Normal_a0"/>
      <use fill="#ffffff" height="34.75" transform="matrix(0.2539, 0.0, 0.0, 0.2539, 10.6, 43.95)" width="295.4" xlink:href="#font_ComicBook_Normal_n0"/>
      <use fill="#ffffff" height="34.75" transform="matrix(0.2539, 0.0, 0.0, 0.2539, 18.75, 43.95)" width="295.4" xlink:href="#font_ComicBook_Normal_y0"/>
      <use fill="#ffffff" height="34.75" transform="matrix(0.2539, 0.0, 0.0, 0.2539, 28.15, 43.95)" width="295.4" xlink:href="#font_ComicBook_Normal_o0"/>
      <use fill="#ffffff" height="34.75" transform="matrix(0.2539, 0.0, 0.0, 0.2539, 39.2, 43.95)" width="295.4" xlink:href="#font_ComicBook_Normal_n0"/>
      <use fill="#ffffff" height="34.75" transform="matrix(0.2539, 0.0, 0.0, 0.2539, 47.35, 43.95)" width="295.4" xlink:href="#font_ComicBook_Normal_e0"/>
      <use fill="#ffffff" height="34.75" transform="matrix(0.2539, 0.0, 0.0, 0.2539, 61.45, 43.95)" width="295.4" xlink:href="#font_ComicBook_Normal_s0"/>
      <use fill="#ffffff" height="34.75" transform="matrix(0.2539, 0.0, 0.0, 0.2539, 72.15, 43.95)" width="295.4" xlink:href="#font_ComicBook_Normal_t0"/>
      <use fill="#ffffff" height="34.75" transform="matrix(0.2539, 0.0, 0.0, 0.2539, 81.75, 43.95)" width="295.4" xlink:href="#font_ComicBook_Normal_o0"/>
      <use fill="#ffffff" height="34.75" transform="matrix(0.2539, 0.0, 0.0, 0.2539, 92.8, 43.95)" width="295.4" xlink:href="#font_ComicBook_Normal_p0"/>
      <use fill="#ffffff" height="34.75" transform="matrix(0.2539, 0.0, 0.0, 0.2539, 107.05, 43.95)" width="295.4" xlink:href="#font_ComicBook_Normal_t0"/>
      <use fill="#ffffff" height="34.75" transform="matrix(0.2539, 0.0, 0.0, 0.2539, 116.65, 43.95)" width="295.4" xlink:href="#font_ComicBook_Normal_h0"/>
      <use fill="#ffffff" height="34.75" transform="matrix(0.2539, 0.0, 0.0, 0.2539, 125.65, 43.95)" width="295.4" xlink:href="#font_ComicBook_Normal_i0"/>
      <use fill="#ffffff" height="34.75" transform="matrix(0.2539, 0.0, 0.0, 0.2539, 129.55, 43.95)" width="295.4" xlink:href="#font_ComicBook_Normal_s0"/>
      <use fill="#ffffff" height="34.75" transform="matrix(0.2539, 0.0, 0.0, 0.2539, 145.3, 43.95)" width="295.4" xlink:href="#font_ComicBook_Normal_a0"/>
      <use fill="#ffffff" height="34.75" transform="matrix(0.2539, 0.0, 0.0, 0.2539, 155.85, 43.95)" width="295.4" xlink:href="#font_ComicBook_Normal_r0"/>
      <use fill="#ffffff" height="34.75" transform="matrix(0.2539, 0.0, 0.0, 0.2539, 164.9, 43.95)" width="295.4" xlink:href="#font_ComicBook_Normal_m0"/>
      <use fill="#ffffff" height="34.75" transform="matrix(0.2539, 0.0, 0.0, 0.2539, 176.55, 43.95)" width="295.4" xlink:href="#font_ComicBook_Normal_y0"/>
      <use fill="#ffffff" height="34.75" transform="matrix(0.2539, 0.0, 0.0, 0.2539, 191.0, 43.95)" width="295.4" xlink:href="#font_ComicBook_Normal_o0"/>
      <use fill="#ffffff" height="34.75" transform="matrix(0.2539, 0.0, 0.0, 0.2539, 202.05, 43.95)" width="295.4" xlink:href="#font_ComicBook_Normal_f0"/>
      <use fill="#ffffff" height="34.75" transform="matrix(0.2539, 0.0, 0.0, 0.2539, 215.45, 43.95)" width="295.4" xlink:href="#font_ComicBook_Normal_r0"/>
      <use fill="#ffffff" height="34.75" transform="matrix(0.2539, 0.0, 0.0, 0.2539, 224.5, 43.95)" width="295.4" xlink:href="#font_ComicBook_Normal_o0"/>
      <use fill="#ffffff" height="34.75" transform="matrix(0.2539, 0.0, 0.0, 0.2539, 235.55, 43.95)" width="295.4" xlink:href="#font_ComicBook_Normal_b0"/>
      <use fill="#ffffff" height="34.75" transform="matrix(0.2539, 0.0, 0.0, 0.2539, 244.3, 43.95)" width="295.4" xlink:href="#font_ComicBook_Normal_o0"/>
      <use fill="#ffffff" height="34.75" transform="matrix(0.2539, 0.0, 0.0, 0.2539, 255.35, 43.95)" width="295.4" xlink:href="#font_ComicBook_Normal_t0"/>
      <use fill="#ffffff" height="34.75" transform="matrix(0.2539, 0.0, 0.0, 0.2539, 264.95, 43.95)" width="295.4" xlink:href="#font_ComicBook_Normal_s0"/>
      <use fill="#ffffff" height="34.75" transform="matrix(0.2539, 0.0, 0.0, 0.2539, 275.65, 43.95)" width="295.4" xlink:href="#font_ComicBook_Normal__1"/>
    </g>
  </g>
  <defs>
    <g id="font_ComicBook_Normal_a0">
      <path d="M32.65 -39.5 Q32.8 -39.8 33.9 -39.8 35.9 -39.8 37.55 -37.75 39.35 -35.5 40.25 -31.35 41.35 -26.0 41.55 -21.55 L42.05 -11.7 Q42.15 -10.8 42.75 -8.65 43.1 -7.15 42.6 -5.7 42.2 -4.5 40.65 -2.85 38.85 -0.85 37.5 -0.85 34.85 -0.85 35.2 -8.8 34.0 -10.6 31.05 -10.6 L27.4 -10.25 24.55 -9.75 23.4 -9.55 Q19.3 -9.05 15.5 -7.8 11.45 -6.55 10.1 -5.1 L9.35 -3.95 9.0 -2.9 8.6 -1.5 Q6.95 0.75 4.9 0.75 2.65 0.75 1.8 -0.65 1.25 -1.5 1.7 -2.8 2.25 -4.45 4.7 -7.3 L6.85 -9.7 8.5 -11.65 14.2 -18.9 17.5 -23.0 20.45 -26.65 Q29.3 -37.3 32.8 -39.55 L32.65 -39.5 M32.35 -27.0 L32.15 -27.75 Q31.85 -28.75 31.0 -28.8 30.15 -28.8 28.85 -27.95 L22.55 -21.5 21.2 -19.8 19.9 -17.95 18.15 -15.5 20.35 -15.45 22.0 -15.5 23.45 -15.55 25.55 -15.7 Q28.65 -16.0 34.2 -17.6 L33.5 -22.55 32.6 -26.05 32.35 -27.0" fill-rule="evenodd" stroke="none"/>
    </g>
    <g id="font_ComicBook_Normal_n0">
      <path d="M37.25 -24.95 L36.25 -22.2 Q35.25 -19.25 34.2 -15.05 L32.4 -7.15 Q31.95 -5.8 31.15 -4.85 L29.1 -3.25 Q26.7 -2.05 24.1 -2.05 21.65 -2.05 19.6 -4.8 17.4 -7.6 14.25 -14.3 L13.3 -13.95 Q12.95 -13.9 12.8 -13.45 L11.75 -10.55 10.7 -7.05 9.95 -4.25 Q9.5 -2.85 8.7 -2.0 7.9 -1.15 6.55 -0.65 L4.3 -0.2 Q2.2 -0.2 2.55 -2.75 2.7 -4.2 3.2 -5.65 3.8 -7.35 5.75 -11.05 7.6 -14.45 8.4 -16.85 L8.7 -17.65 9.0 -18.5 9.35 -19.45 9.8 -20.55 11.0 -23.9 Q11.9 -26.5 12.25 -28.65 12.6 -30.85 12.45 -32.7 12.4 -33.2 12.65 -33.85 13.05 -35.1 14.2 -36.1 15.35 -37.15 16.7 -37.2 L16.75 -37.25 Q19.85 -37.25 21.05 -33.7 21.45 -32.45 21.05 -30.6 20.5 -28.0 20.55 -27.25 L20.55 -25.85 20.5 -24.55 Q20.5 -23.25 20.8 -22.05 21.45 -19.75 23.1 -16.7 24.8 -13.6 25.7 -13.45 26.85 -13.45 28.15 -16.05 L29.55 -19.75 29.95 -21.1 31.25 -24.25 32.6 -27.65 34.55 -32.85 35.15 -34.45 35.65 -35.8 Q36.1 -37.25 36.95 -38.5 38.95 -41.4 41.6 -41.4 42.9 -41.35 43.4 -40.3 44.0 -39.25 43.55 -38.0 42.7 -35.5 40.45 -31.4 38.1 -27.3 37.25 -24.95" fill-rule="evenodd" stroke="none"/>
    </g>
    <g id="font_ComicBook_Normal_y0">
      <path d="M37.55 -33.4 L41.55 -37.1 Q43.35 -38.75 45.35 -38.75 46.8 -38.6 47.4 -37.65 48.1 -36.8 47.75 -35.8 L47.1 -34.8 28.05 -17.15 20.95 -9.75 Q17.3 -5.9 13.1 -2.3 L10.9 -0.6 Q9.95 0.0 8.75 0.0 7.65 -0.15 7.05 -0.9 6.5 -1.65 6.8 -2.55 7.65 -5.1 10.15 -7.35 L14.9 -11.2 Q18.0 -13.45 19.3 -15.2 19.9 -15.95 20.1 -16.6 20.45 -17.6 20.0 -18.4 L17.6 -23.75 Q16.6 -26.2 15.75 -28.6 13.8 -34.0 13.45 -36.85 L13.55 -37.55 Q14.25 -39.65 19.65 -40.15 21.75 -40.15 22.3 -38.35 L23.3 -34.4 24.0 -31.75 24.6 -29.1 24.8 -25.9 Q24.95 -24.5 26.4 -24.4 27.45 -24.4 29.15 -25.8 L32.55 -28.55 35.1 -30.95 37.55 -33.4" fill-rule="evenodd" stroke="none"/>
    </g>
    <g id="font_ComicBook_Normal_o0">
      <path d="M21.1 -26.25 Q19.0 -23.95 17.5 -21.5 16.0 -19.05 15.15 -16.45 13.85 -12.6 15.0 -10.8 16.6 -8.1 21.1 -8.1 23.95 -8.1 26.6 -9.1 29.25 -10.1 31.85 -12.15 38.35 -17.3 40.35 -23.25 41.8 -27.5 39.65 -30.2 38.1 -32.05 34.25 -32.05 30.9 -32.05 27.55 -30.65 23.75 -29.15 21.1 -26.25 M37.55 -39.95 Q41.25 -39.95 44.1 -38.8 46.85 -37.65 47.7 -35.75 L48.65 -32.8 49.0 -29.6 Q49.05 -28.0 48.7 -26.1 L47.75 -22.4 Q45.1 -14.65 38.05 -8.05 35.9 -6.05 33.55 -4.55 31.2 -3.05 28.55 -2.0 23.5 0.0 18.7 0.0 14.05 0.0 10.8 -1.8 9.0 -2.8 7.95 -4.15 6.9 -5.5 6.4 -7.2 5.25 -11.3 6.85 -16.0 8.8 -21.75 14.5 -27.85 18.9 -32.5 23.4 -35.5 30.1 -39.95 37.55 -39.95" fill-rule="evenodd" stroke="none"/>
    </g>
    <g id="font_ComicBook_Normal_e0">
      <path d="M22.3 -29.85 Q18.1 -28.1 16.85 -24.3 L16.6 -23.25 Q16.55 -22.2 17.8 -22.2 L18.95 -22.35 19.95 -22.35 Q22.6 -22.5 28.5 -24.15 34.05 -25.65 37.3 -25.65 38.95 -25.65 40.0 -24.6 40.95 -23.6 40.45 -22.0 39.95 -20.5 38.95 -19.5 37.65 -18.1 36.15 -18.1 L29.2 -17.05 22.15 -15.25 17.55 -14.75 13.55 -14.2 Q12.85 -14.0 12.4 -13.0 L11.9 -11.2 11.45 -10.0 11.15 -8.95 Q11.1 -8.55 11.4 -8.35 12.55 -7.6 14.45 -7.6 16.85 -7.6 22.65 -9.15 28.85 -10.85 31.7 -11.2 33.65 -11.2 34.5 -10.5 35.55 -9.55 35.2 -8.05 34.55 -6.15 33.2 -5.1 31.65 -3.95 29.45 -3.65 L18.85 -1.8 Q12.3 -0.3 8.15 0.05 5.05 0.05 3.85 -0.95 2.6 -2.0 3.05 -4.05 L3.7 -6.6 Q4.3 -8.45 6.1 -11.8 8.25 -15.9 8.8 -17.35 L9.65 -19.75 11.05 -24.2 12.4 -28.2 Q13.35 -30.45 14.15 -31.6 16.3 -34.75 20.25 -36.15 22.95 -37.05 25.4 -37.25 L30.65 -37.75 37.7 -39.1 41.25 -39.6 44.85 -39.95 Q45.95 -39.95 46.45 -39.05 46.9 -38.15 46.7 -36.8 45.95 -34.65 44.65 -33.5 42.9 -32.1 40.95 -31.95 L35.4 -31.4 29.85 -31.25 Q25.7 -31.25 22.3 -29.85" fill-rule="evenodd" stroke="none"/>
    </g>
    <g id="font_ComicBook_Normal_s0">
      <path d="M34.25 -30.85 Q26.15 -28.65 20.15 -25.15 18.1 -23.95 17.65 -22.65 16.85 -20.4 25.7 -20.15 L33.35 -20.0 44.05 -19.85 Q46.35 -19.05 46.1 -15.4 L45.8 -14.1 Q44.15 -9.25 34.8 -4.45 30.25 -2.1 26.4 -0.95 22.55 0.2 19.35 0.2 14.8 0.15 12.25 -1.0 9.65 -2.1 6.9 -5.1 6.05 -7.95 6.5 -9.25 6.95 -10.65 8.7 -10.65 9.6 -10.65 11.6 -9.55 15.85 -7.25 20.55 -7.25 23.85 -7.25 27.3 -8.35 28.45 -8.65 33.2 -10.45 35.4 -11.25 35.6 -11.85 35.85 -12.55 34.05 -13.3 L29.35 -13.65 23.45 -13.95 16.05 -15.25 Q11.9 -16.0 10.05 -17.45 7.7 -19.2 8.65 -22.35 9.8 -25.8 12.65 -28.25 L15.6 -30.3 Q17.3 -31.35 19.25 -32.2 L21.95 -33.3 26.75 -35.3 Q32.0 -37.5 37.2 -38.8 41.6 -39.9 44.45 -39.9 47.35 -39.6 47.35 -35.1 L47.15 -32.4 Q46.95 -30.95 46.35 -29.25 45.65 -27.55 42.6 -27.1 41.3 -27.1 40.55 -28.45 39.6 -30.25 38.8 -30.55 L36.05 -31.1 34.25 -30.85" fill-rule="evenodd" stroke="none"/>
    </g>
    <g id="font_ComicBook_Normal_t0">
      <path d="M24.25 -31.7 L18.8 -31.15 Q17.15 -31.15 16.35 -31.95 15.4 -32.8 15.95 -34.35 16.5 -35.85 18.1 -36.95 19.75 -38.05 21.2 -38.05 L25.9 -38.3 32.95 -38.9 40.4 -39.5 47.3 -39.8 Q49.1 -39.8 50.05 -39.05 51.2 -38.2 50.65 -36.65 50.1 -35.0 48.4 -33.75 46.75 -32.5 45.05 -32.35 L36.1 -31.9 Q35.55 -31.8 34.75 -31.25 L33.95 -30.2 Q33.85 -27.5 32.9 -24.75 L31.15 -20.6 28.95 -15.9 26.45 -9.8 23.2 -3.2 Q22.55 -2.0 21.1 -1.2 19.7 -0.45 18.25 -0.45 L15.85 -0.9 Q14.85 -1.5 15.25 -2.65 L16.3 -5.15 17.35 -7.65 19.65 -13.25 Q21.5 -17.55 23.35 -23.05 L25.15 -29.45 25.4 -30.2 25.6 -31.05 Q25.65 -31.7 24.25 -31.7" fill-rule="evenodd" stroke="none"/>
    </g>
    <g id="font_ComicBook_Normal_p0">
      <path d="M27.85 -32.4 Q25.15 -32.4 19.8 -30.65 L16.15 -19.9 Q21.35 -20.8 25.55 -22.0 35.25 -24.85 36.7 -28.75 37.65 -31.45 34.45 -32.1 L27.85 -32.4 M34.8 -40.2 Q41.0 -40.2 44.0 -38.2 45.2 -37.4 45.8 -36.3 46.4 -35.2 46.35 -33.6 46.35 -32.05 45.7 -30.25 44.2 -26.25 39.15 -22.3 35.6 -19.55 29.1 -16.1 26.2 -14.5 22.2 -13.9 L16.3 -13.7 Q13.6 -13.7 13.45 -13.3 L12.9 -11.85 12.0 -9.0 11.0 -5.7 Q10.1 -3.1 8.9 -1.75 7.45 -0.2 5.6 -0.15 3.8 -0.15 3.0 -1.3 2.3 -2.6 2.8 -4.65 L3.25 -6.1 5.0 -10.05 6.9 -14.2 9.0 -20.55 Q10.5 -25.0 11.35 -26.9 L14.35 -33.4 Q16.05 -36.85 16.9 -37.25 20.4 -39.05 31.35 -40.05 L34.8 -40.2" fill-rule="evenodd" stroke="none"/>
    </g>
    <g id="font_ComicBook_Normal_h0">
      <path d="M39.1 -37.5 L40.75 -39.15 Q41.75 -40.0 42.8 -40.15 44.6 -40.15 45.2 -39.05 45.7 -38.15 45.4 -36.75 L42.35 -28.9 39.15 -21.1 36.15 -12.75 33.3 -3.95 Q32.95 -2.85 31.9 -2.2 30.7 -1.5 29.4 -1.4 26.25 -1.4 26.75 -3.95 L27.1 -5.3 28.05 -7.45 28.95 -9.7 29.6 -11.2 30.15 -12.75 30.4 -14.15 Q30.4 -15.15 29.6 -15.4 L27.95 -15.85 26.35 -16.05 24.05 -15.75 21.55 -15.35 18.65 -15.35 Q17.05 -15.35 15.7 -14.75 L14.7 -14.25 13.8 -13.85 Q12.85 -13.4 12.5 -12.65 L11.3 -9.75 10.4 -6.4 9.35 -2.85 Q8.95 -1.65 7.85 -0.85 6.8 0.0 5.55 0.0 3.0 0.0 2.6 -1.05 2.4 -1.55 2.85 -3.75 L4.15 -8.5 5.25 -12.05 6.75 -16.15 Q7.7 -18.55 9.85 -22.5 L13.1 -28.95 13.6 -31.1 14.1 -33.05 Q14.45 -34.1 15.05 -34.95 18.25 -39.25 21.15 -39.25 L21.05 -39.2 Q22.6 -39.15 23.6 -38.3 24.3 -37.6 23.85 -36.2 L19.75 -28.2 17.65 -24.75 16.15 -22.15 Q15.85 -21.25 17.05 -21.25 L24.15 -22.5 26.1 -22.85 28.05 -23.1 29.9 -23.4 Q32.9 -23.95 34.15 -25.7 34.85 -26.7 35.4 -28.35 L36.25 -31.2 36.95 -33.1 37.35 -34.6 Q37.9 -36.2 39.1 -37.5" fill-rule="evenodd" stroke="none"/>
    </g>
    <g id="font_ComicBook_Normal_i0">
      <path d="M22.5 -40.05 Q24.35 -40.05 25.0 -38.35 25.5 -37.1 24.7 -34.8 L21.6 -27.6 18.3 -19.45 11.7 -3.6 Q10.3 -0.4 7.4 -0.05 5.35 -0.05 4.65 -0.9 3.75 -2.0 4.3 -3.6 L10.2 -19.6 Q12.75 -26.55 16.6 -35.4 17.5 -37.35 19.15 -38.65 20.7 -39.95 22.5 -39.95 L22.5 -40.05" fill-rule="evenodd" stroke="none"/>
    </g>
    <g id="font_ComicBook_Normal_r0">
      <path d="M37.25 -39.85 Q40.9 -39.8 42.9 -38.8 45.25 -37.6 45.45 -34.65 L45.2 -33.4 Q44.4 -30.95 40.2 -27.3 L36.65 -24.4 Q34.65 -22.95 32.45 -21.55 28.55 -19.1 27.5 -19.1 28.1 -17.15 29.55 -14.15 30.05 -13.25 31.85 -11.8 L34.0 -9.55 Q34.7 -8.35 34.05 -6.5 33.35 -4.35 31.25 -3.05 29.85 -2.15 28.5 -2.15 26.85 -2.15 25.6 -3.4 24.45 -4.5 23.55 -6.95 22.65 -9.5 21.55 -10.6 19.7 -12.25 18.0 -13.05 16.3 -13.85 14.75 -13.85 13.45 -13.85 12.7 -11.7 L11.25 -7.15 9.95 -4.7 8.3 -2.2 Q7.35 -0.95 6.15 -0.35 3.8 0.7 2.6 0.7 0.35 0.7 2.4 -5.35 L5.0 -12.05 7.8 -19.45 9.25 -24.2 10.7 -28.35 12.7 -33.25 Q14.45 -37.0 18.9 -38.55 21.75 -39.55 24.8 -39.85 L30.5 -39.9 33.85 -39.9 37.25 -39.85 M25.05 -33.45 L24.35 -33.45 Q22.55 -33.4 20.75 -32.4 20.1 -32.0 19.6 -31.2 L19.1 -30.3 18.6 -29.55 18.6 -29.5 16.2 -26.1 15.75 -25.1 Q15.5 -24.25 15.9 -24.0 L17.45 -23.7 19.05 -23.55 23.9 -24.55 Q27.6 -25.6 31.15 -27.6 34.7 -29.6 35.6 -31.35 36.1 -32.85 33.55 -33.2 L27.9 -33.4 25.05 -33.45" fill-rule="evenodd" stroke="none"/>
    </g>
    <g id="font_ComicBook_Normal_m0">
      <path d="M27.2 -39.75 Q29.35 -39.75 29.4 -36.4 29.45 -34.45 28.85 -31.65 28.2 -28.65 28.2 -27.0 28.15 -25.6 28.7 -23.95 29.2 -22.35 29.8 -22.35 L35.8 -28.85 38.75 -32.1 42.75 -36.2 44.8 -37.8 Q45.85 -38.3 47.15 -38.3 49.05 -38.15 49.25 -35.85 L49.45 -32.15 49.1 -28.35 47.7 -20.65 47.15 -17.3 46.35 -12.65 Q46.1 -11.05 46.35 -8.15 46.6 -5.5 45.8 -3.15 45.55 -2.45 44.55 -2.1 L43.75 -1.85 42.85 -1.55 40.15 -1.05 Q39.05 -1.05 39.05 -1.95 39.05 -3.8 39.6 -11.65 L39.85 -13.85 40.1 -16.3 40.35 -19.6 40.55 -23.1 Q40.55 -24.35 39.0 -24.35 L35.25 -20.1 33.0 -17.15 31.3 -14.2 28.0 -7.6 Q27.25 -6.0 25.75 -5.25 24.5 -4.6 22.7 -4.6 21.3 -4.65 20.6 -5.5 19.8 -6.25 20.15 -7.6 L21.1 -11.15 Q21.35 -12.25 21.2 -14.2 21.1 -15.05 21.35 -17.25 21.55 -19.15 21.3 -20.25 L21.3 -22.1 Q21.3 -23.35 20.75 -23.35 19.85 -23.35 19.0 -21.85 L17.35 -19.3 Q15.35 -16.9 14.25 -14.65 L12.3 -10.6 11.75 -9.2 11.0 -6.35 9.85 -3.2 Q9.05 -1.8 7.2 -0.95 5.9 -0.35 4.3 -0.1 2.5 -0.1 1.8 -1.55 1.3 -2.8 2.1 -5.1 4.4 -9.7 7.7 -14.8 L13.8 -24.3 16.45 -28.8 19.3 -33.9 Q20.4 -35.8 22.9 -37.7 25.6 -39.75 27.2 -39.75" fill-rule="evenodd" stroke="none"/>
    </g>
    <g id="font_ComicBook_Normal_f0">
      <path d="M39.3 -39.9 L40.8 -40.1 Q42.45 -40.1 43.7 -39.15 44.95 -38.05 44.45 -36.4 43.9 -34.8 42.55 -33.8 41.2 -32.7 39.45 -32.35 L35.0 -31.95 28.25 -31.85 23.5 -31.65 Q20.95 -31.5 19.8 -31.0 19.4 -30.85 19.15 -30.1 L18.75 -28.55 18.35 -26.75 17.4 -24.25 16.9 -22.45 Q17.0 -21.6 18.2 -21.6 L20.9 -21.9 24.95 -22.8 28.9 -23.7 31.4 -24.2 33.65 -24.6 34.95 -24.4 Q37.85 -23.25 37.15 -21.2 36.75 -19.95 34.9 -19.1 L31.55 -17.75 Q29.4 -16.9 26.2 -16.7 L20.9 -15.95 19.3 -15.7 18.0 -15.45 16.7 -15.2 Q14.6 -14.8 13.5 -13.95 12.45 -13.1 12.05 -12.0 L11.7 -10.15 11.4 -8.05 11.0 -5.9 10.6 -3.9 Q10.25 -2.75 9.35 -1.55 8.85 -0.8 7.95 -0.55 L5.95 0.0 Q3.6 0.9 2.65 0.9 1.55 0.9 1.8 -0.1 L4.0 -7.1 6.3 -13.0 8.5 -18.75 9.75 -22.7 11.05 -26.65 12.85 -31.4 Q13.85 -33.95 14.75 -34.6 17.65 -37.0 20.95 -37.4 L22.9 -37.65 26.25 -38.0 29.95 -38.4 37.7 -39.7 38.1 -39.75 38.65 -39.85 39.3 -39.9" fill-rule="evenodd" stroke="none"/>
    </g>
    <g id="font_ComicBook_Normal_b0">
      <path d="M25.3 -33.1 Q23.2 -33.05 19.4 -32.05 18.05 -29.6 17.05 -27.0 L16.3 -24.85 Q15.9 -23.7 16.4 -23.2 L16.8 -23.1 Q18.15 -23.1 25.6 -26.5 L30.55 -28.95 Q32.9 -30.3 33.3 -31.55 33.8 -33.15 29.0 -33.15 L27.65 -33.15 25.3 -33.1 M35.9 -26.9 L33.75 -25.45 33.9 -25.4 36.4 -25.6 Q38.25 -25.6 39.05 -25.1 L40.75 -23.9 Q41.3 -23.1 40.45 -20.65 37.5 -11.9 27.85 -5.75 18.7 0.05 9.8 0.05 6.45 0.0 4.85 -1.7 3.35 -3.1 3.8 -5.15 4.85 -9.85 7.35 -17.25 9.25 -22.9 12.2 -30.3 L12.0 -30.75 11.75 -31.2 Q11.4 -32.25 11.5 -32.9 12.1 -34.7 13.2 -35.8 14.5 -37.1 15.85 -37.4 L19.95 -38.45 23.4 -39.3 31.05 -40.15 Q45.1 -40.15 42.8 -33.4 42.15 -31.8 39.9 -29.9 L35.9 -26.9 M10.5 -8.1 L10.45 -8.05 Q10.05 -6.85 12.0 -6.5 L14.4 -6.35 Q17.75 -6.65 22.35 -9.0 L26.2 -11.2 Q28.0 -12.35 29.8 -13.75 32.6 -16.1 33.2 -17.75 33.2 -19.0 27.65 -19.0 L23.15 -18.8 Q19.9 -18.45 14.15 -16.35 11.5 -11.1 10.5 -8.1" fill-rule="evenodd" stroke="none"/>
    </g>
    <g id="font_ComicBook_Normal__1">
      <path d="M28.45 -32.9 Q25.45 -32.55 19.8 -29.8 14.2 -27.1 14.0 -27.1 L13.1 -27.05 Q10.85 -27.05 11.05 -29.0 L11.5 -31.65 Q11.95 -33.0 13.15 -33.65 18.55 -36.45 21.3 -37.55 26.4 -39.55 30.8 -39.75 L34.7 -40.05 38.75 -40.2 Q46.75 -40.2 45.2 -35.3 44.45 -33.15 42.5 -31.35 L41.3 -30.3 40.0 -29.1 38.7 -28.0 32.65 -23.0 24.7 -15.85 Q23.55 -14.7 22.1 -14.1 L18.6 -13.2 Q17.95 -13.2 17.4 -14.1 16.7 -15.3 16.9 -16.55 L17.25 -18.0 Q18.0 -20.25 20.9 -21.85 29.05 -26.45 29.8 -27.0 33.55 -29.35 34.0 -30.65 34.25 -31.65 32.85 -32.35 L29.5 -32.95 28.45 -32.9 M9.95 -2.8 Q10.3 -3.75 11.4 -5.45 12.65 -7.15 14.55 -8.35 16.4 -9.55 17.95 -9.55 19.0 -9.55 19.65 -9.05 21.15 -7.95 20.3 -5.4 19.75 -3.9 18.65 -2.5 L17.25 -1.05 15.55 -0.05 Q13.65 1.0 12.15 1.0 10.65 1.0 10.1 -0.05 9.45 -1.25 9.95 -2.8" fill-rule="evenodd" stroke="none"/>
    </g>
  </defs>
</svg>
