<?xml version="1.0" encoding="UTF-8" standalone="no"?>
<svg xmlns:xlink="http://www.w3.org/1999/xlink" height="33.4px" width="24.75px" xmlns="http://www.w3.org/2000/svg">
  <g transform="matrix(1.0, 0.0, 0.0, 1.0, -0.9, -3.0)">
    <g transform="matrix(1.0, 0.0, 0.0, 1.0, 0.0, 0.0)">
      <use fill="#ffffff" height="33.4" transform="matrix(0.332, 0.0, 0.0, 0.332, -0.1, 15.4)" width="24.75" xlink:href="#font_SignPainter-HouseShowcard__0"/>
    </g>
  </g>
  <defs>
    <g id="font_SignPainter-HouseShowcard__0">
      <path d="M34.55 -37.25 L14.55 1.35 10.85 1.35 30.9 -37.25 34.55 -37.25 M10.8 -34.15 Q9.15 -34.15 8.05 -32.7 6.9 -31.25 6.9 -27.4 6.9 -23.85 8.05 -22.4 9.15 -21.0 10.8 -21.0 12.5 -21.0 13.65 -22.45 14.75 -23.9 14.75 -27.75 14.75 -31.3 13.6 -32.7 12.5 -34.15 10.8 -34.15 M4.95 -34.5 Q6.95 -37.25 10.7 -37.25 14.15 -37.25 16.4 -34.8 18.65 -32.35 18.65 -27.55 18.65 -22.9 16.4 -20.4 14.1 -17.9 10.75 -17.9 7.4 -17.9 5.2 -20.35 3.0 -22.85 3.0 -27.85 3.0 -31.75 4.95 -34.5 M34.55 -14.9 Q32.85 -14.9 31.75 -13.45 30.6 -12.0 30.6 -8.15 30.6 -4.65 31.75 -3.2 32.85 -1.75 34.5 -1.75 36.25 -1.75 37.35 -3.2 38.45 -4.65 38.45 -8.5 38.45 -12.05 37.35 -13.45 36.2 -14.9 34.55 -14.9 M40.15 -15.55 Q42.4 -13.1 42.4 -8.3 42.4 -3.65 40.1 -1.15 37.8 1.35 34.45 1.35 31.1 1.35 28.9 -1.1 26.7 -3.6 26.7 -8.6 26.7 -12.55 28.65 -15.25 30.65 -18.0 34.4 -18.0 37.85 -18.0 40.15 -15.55" fill-rule="evenodd" stroke="none"/>
    </g>
  </defs>
</svg>
