<?xml version="1.0" encoding="UTF-8" standalone="no"?>
<svg xmlns:xlink="http://www.w3.org/1999/xlink" height="249.45px" width="178.9px" xmlns="http://www.w3.org/2000/svg">
  <g transform="matrix(1.0, 0.0, 0.0, 1.0, 66.35, 212.0)">
    <use height="44.15" transform="matrix(0.9202, -0.3864, 0.3864, 0.9202, 14.407, -102.2444)" width="74.05" xlink:href="#shape0"/>
    <use height="53.3" transform="matrix(-0.9927, 0.0086, 0.0086, 0.9927, 17.7779, -43.5976)" width="66.85" xlink:href="#shape1"/>
    <use height="53.3" transform="matrix(0.8905, -0.4444, 0.4444, 0.8905, 29.3079, -43.0411)" width="66.85" xlink:href="#shape1"/>
    <use height="92.15" transform="matrix(0.7437, -0.5038, 0.5038, 0.7437, -29.753, -62.966)" width="73.55" xlink:href="#shape2"/>
    <use height="79.85" transform="matrix(0.6523, 0.612, -0.612, 0.6523, -4.7804, -109.0598)" width="66.1" xlink:href="#shape3"/>
    <use height="57.5" transform="matrix(0.8618, -0.2565, 0.2565, 0.8618, -41.3032, -182.8863)" width="55.3" xlink:href="#shape4"/>
    <use height="29.95" transform="matrix(0.9839, -0.1753, 0.1753, 0.9839, 5.5129, -100.6586)" width="29.15" xlink:href="#shape5"/>
    <use height="74.0" transform="matrix(0.9, 0.0, 0.0, 0.9, -19.4448, -148.4998)" width="71.15" xlink:href="#shape6"/>
    <use height="28.55" transform="matrix(0.9459, 0.0, 0.0, 0.9459, 24.1391, -146.6878)" width="40.55" xlink:href="#sprite0"/>
    <use height="28.55" transform="matrix(1.0, 0.0, 0.0, 1.0, 15.45, -148.55)" width="40.55" xlink:href="#sprite0"/>
  </g>
  <defs>
    <g id="shape0" transform="matrix(1.0, 0.0, 0.0, 1.0, 5.8, 20.85)">
      <path d="M67.5 -4.35 Q67.4 -5.55 66.4 -5.55 L63.8 -5.0 Q58.95 -3.45 56.6 -4.0 L56.25 -2.6 Q55.35 -5.45 59.25 -9.45 L63.0 -13.2 Q65.4 -15.85 65.2 -16.75 64.8 -18.35 62.0 -17.6 59.15 -16.85 56.75 -14.65 54.85 -12.95 52.4 -10.05 L48.9 -6.5 49.55 -5.95 Q48.8 -5.75 48.4 -6.25 46.55 -8.0 49.5 -13.65 L51.35 -17.55 Q52.0 -19.4 51.05 -20.0 48.85 -21.4 45.05 -16.25 41.25 -11.15 40.6 -6.45 L40.05 1.6 39.1 9.05 38.85 10.05 38.9 10.0 39.6 9.1 Q39.3 10.45 38.4 11.8 L36.4 14.2 34.95 15.5 Q33.35 16.75 33.0 17.35 32.45 18.35 33.45 19.35 L33.5 19.4 34.0 19.8 Q34.9 20.35 36.3 20.2 38.0 19.9 39.8 18.7 44.0 15.7 44.0 11.55 44.5 12.5 44.15 13.6 46.85 12.9 49.05 9.75 51.5 6.2 50.05 3.35 51.2 4.3 51.15 6.55 51.0 8.8 49.7 10.3 55.55 7.4 57.1 0.95 L57.25 1.95 Q60.7 2.0 64.2 -0.2 67.6 -2.35 67.5 -4.35 M1.6 -5.5 L1.4 -5.65 1.65 -5.55 2.75 -4.5 5.15 -2.15 Q9.1 1.3 13.55 2.15 L17.5 1.9 19.15 1.55 Q20.0 1.4 20.5 1.55 L21.7 1.55 22.5 1.2 23.25 1.0 24.1 1.55 Q24.8 0.2 26.1 -0.95 27.45 -2.1 29.0 -2.7 L32.1 -3.15 Q33.6 -2.95 36.35 -1.05 L39.55 -1.55 Q39.55 -5.0 39.85 -6.6 40.3 -10.6 43.9 -15.95 48.0 -22.15 51.3 -20.5 52.6 -19.95 52.2 -18.05 51.95 -16.8 50.7 -14.15 49.05 -10.95 48.75 -9.95 47.95 -7.85 48.6 -6.9 L51.15 -9.5 54.8 -13.85 Q58.75 -18.3 62.75 -18.6 64.35 -18.75 65.2 -18.1 66.1 -17.4 65.85 -16.25 65.4 -14.3 61.65 -10.75 57.65 -6.95 56.85 -4.65 L60.6 -4.8 64.1 -5.85 66.9 -6.3 Q68.05 -6.05 68.25 -4.35 68.45 -2.05 65.1 0.25 61.5 2.6 57.15 2.6 56.55 5.55 54.25 8.05 51.9 10.45 48.75 11.4 46.95 13.4 44.1 14.15 43.1 17.95 38.95 19.95 35.45 21.7 33.55 20.35 L31.75 22.05 Q26.95 25.55 21.8 19.25 14.2 21.25 6.45 16.75 3.0 14.8 0.05 11.8 -2.65 9.1 -4.65 5.95 L-4.85 5.6 -4.55 5.75 -3.9 6.35 -2.4 8.1 Q0.2 11.1 2.5 13.0 10.65 19.7 20.95 18.1 20.0 13.15 20.75 9.8 21.1 8.3 21.9 6.35 L23.75 2.15 Q20.65 2.1 14.55 9.45 15.2 7.65 16.85 5.85 L19.9 2.85 Q20.15 1.2 15.95 3.6 14.6 4.35 12.65 5.65 L10.3 7.2 Q10.85 6.15 12.3 5.25 L13.55 4.45 14.75 3.65 Q11.1 2.85 8.8 1.7 6.95 0.75 5.65 -0.65 L1.6 -5.5 M28.3 13.3 Q29.05 15.1 30.25 15.75 L32.2 16.7 Q29.3 16.95 28.05 14.9 26.9 13.0 27.4 9.8 27.85 6.7 29.6 3.8 31.35 0.7 33.8 -0.75 34.15 -1.8 32.1 -2.15 29.35 -2.6 26.8 -0.2 24.5 1.9 22.95 5.65 21.45 9.25 21.25 12.8 21.0 16.45 22.35 18.45 24.7 21.9 27.4 22.3 29.7 22.65 32.0 20.8 L33.05 19.9 32.95 19.8 Q31.4 17.9 33.7 15.75 L35.85 13.95 36.7 13.1 37.25 11.1 36.35 11.1 Q31.95 11.45 28.1 12.45 L28.15 12.9 28.3 13.35 28.3 13.3 M39.5 -0.65 L34.75 -0.05 Q30.9 3.1 29.5 6.95 28.75 8.95 28.7 11.2 L37.4 10.5 38.05 10.45 38.35 9.05 Q39.05 5.5 39.5 -0.65" fill="#000000" fill-rule="evenodd" stroke="none"/>
      <path d="M67.5 -4.35 Q67.6 -2.35 64.2 -0.2 60.7 2.0 57.25 1.95 L57.1 0.95 Q55.55 7.4 49.7 10.3 51.0 8.8 51.15 6.55 51.2 4.3 50.05 3.35 51.5 6.2 49.05 9.75 46.85 12.9 44.15 13.6 44.5 12.5 44.0 11.55 44.0 15.7 39.8 18.7 38.0 19.9 36.3 20.2 34.9 20.35 34.0 19.8 L33.5 19.4 33.45 19.35 Q32.45 18.35 33.0 17.35 33.35 16.75 34.95 15.5 L36.4 14.2 38.4 11.8 Q39.3 10.45 39.6 9.1 L38.9 10.0 38.85 10.05 39.1 9.05 40.05 1.6 40.6 -6.45 Q41.25 -11.15 45.05 -16.25 48.85 -21.4 51.05 -20.0 52.0 -19.4 51.35 -17.55 L49.5 -13.65 Q46.55 -8.0 48.4 -6.25 48.8 -5.75 49.55 -5.95 L48.9 -6.5 52.4 -10.05 Q54.85 -12.95 56.75 -14.65 59.15 -16.85 62.0 -17.6 64.8 -18.35 65.2 -16.75 65.4 -15.85 63.0 -13.2 L59.25 -9.45 Q55.35 -5.45 56.25 -2.6 L56.6 -4.0 Q58.95 -3.45 63.8 -5.0 L66.4 -5.55 Q67.4 -5.55 67.5 -4.35 M28.3 13.3 L28.3 13.35 28.15 12.9 28.3 13.3 M39.5 -0.65 Q39.05 5.5 38.35 9.05 L38.05 10.45 37.4 10.5 28.7 11.2 Q28.75 8.95 29.5 6.95 30.9 3.1 34.75 -0.05 L39.5 -0.65" fill="#ffffff" fill-rule="evenodd" stroke="none"/>
      <path d="M28.1 12.45 Q31.95 11.45 36.35 11.1 L37.25 11.1 36.7 13.1 35.85 13.95 33.7 15.75 Q31.4 17.9 32.95 19.8 L33.05 19.9 32.0 20.8 Q29.7 22.65 27.4 22.3 24.7 21.9 22.35 18.45 21.0 16.45 21.25 12.8 21.45 9.25 22.95 5.65 24.5 1.9 26.8 -0.2 29.35 -2.6 32.1 -2.15 34.15 -1.8 33.8 -0.75 31.35 0.7 29.6 3.8 27.85 6.7 27.4 9.8 26.9 13.0 28.05 14.9 29.3 16.95 32.2 16.7 L30.25 15.75 Q29.05 15.1 28.3 13.3 L28.15 12.9 28.1 12.45" fill="#990000" fill-rule="evenodd" stroke="none"/>
      <path d="M-4.55 5.75 Q-8.9 -7.55 1.6 -5.5 L5.65 -0.65 Q6.95 0.75 8.8 1.7 11.1 2.85 14.75 3.65 L13.55 4.45 12.3 5.25 Q10.85 6.15 10.3 7.2 L12.65 5.65 Q14.6 4.35 15.95 3.6 20.15 1.2 19.9 2.85 L16.85 5.85 Q15.2 7.65 14.55 9.45 20.65 2.1 23.75 2.15 L21.9 6.35 Q21.1 8.3 20.75 9.8 20.0 13.15 20.95 18.1 10.65 19.7 2.5 13.0 0.2 11.1 -2.4 8.1 L-3.9 6.35 -4.55 5.75" fill="#660099" fill-rule="evenodd" stroke="none"/>
    </g>
    <g id="shape1" transform="matrix(1.0, 0.0, 0.0, 1.0, 9.2, 18.0)">
      <path d="M-2.8 -3.5 L-1.85 -4.55 Q11.3 0.35 20.3 5.5 L20.85 5.85 Q22.4 5.45 22.6 6.85 L23.05 7.15 23.5 7.4 23.95 4.0 24.3 0.2 Q24.8 -4.6 25.75 -7.35 27.0 -11.2 29.5 -12.9 32.0 -14.6 38.2 -14.8 L39.65 -15.1 Q40.05 -15.15 41.8 -16.1 43.5 -17.15 45.35 -17.8 47.2 -18.45 49.0 -17.15 50.8 -15.95 51.55 -14.5 52.1 -13.5 52.7 -11.05 L53.2 -9.2 Q54.2 -6.75 55.85 -5.25 57.45 -3.75 57.65 -0.1 57.8 3.55 52.85 11.25 L49.1 16.65 Q48.95 17.5 47.8 19.65 46.65 21.85 45.15 23.2 L43.4 24.6 Q43.15 24.6 42.6 25.0 L39.45 28.5 36.65 30.6 33.35 32.5 Q29.35 34.55 26.5 35.1 24.05 35.5 21.6 35.05 18.8 34.5 17.25 32.95 16.15 31.8 15.85 30.65 15.6 29.75 15.7 28.4 15.8 27.0 16.9 24.2 L15.15 21.8 14.8 21.35 Q13.5 21.4 13.15 19.6 L12.8 18.95 Q10.35 16.1 7.5 13.55 L6.5 12.65 Q0.55 7.5 -9.2 2.75 L-8.75 2.0 Q0.65 6.75 6.75 11.7 L8.35 13.05 13.25 17.85 Q13.1 14.35 14.3 11.75 15.8 8.35 19.7 6.55 12.95 2.4 8.75 0.5 4.0 -1.7 -2.8 -3.5 M25.55 -1.8 Q25.15 0.1 24.45 6.0 L24.15 8.05 26.0 8.05 26.95 0.4 Q27.5 -6.85 27.95 -9.45 26.35 -6.2 25.55 -1.8 M36.95 -13.85 L33.35 -13.45 Q29.0 -12.7 28.45 -9.9 L28.15 -6.3 Q27.4 2.75 26.45 8.2 41.75 10.0 48.6 16.5 51.4 12.7 53.55 8.9 56.15 4.3 56.65 1.3 57.1 -1.75 56.25 -3.05 L54.45 -5.3 Q53.5 -6.25 53.0 -7.4 L51.95 -10.05 51.2 -12.5 Q50.15 -15.55 48.7 -16.45 46.85 -17.55 44.25 -16.4 L42.15 -15.3 Q40.8 -14.6 40.05 -14.35 L36.95 -13.85 M47.8 17.6 Q40.8 11.3 26.3 9.05 25.5 12.9 24.65 14.75 L23.65 16.8 Q36.2 18.4 42.6 23.75 45.6 21.95 46.65 19.95 L47.8 17.6 M22.8 8.3 Q19.8 10.2 17.9 13.05 16.0 15.8 15.7 20.8 L17.7 23.5 20.85 18.45 21.9 15.95 Q21.65 12.2 23.25 9.05 L23.35 8.9 22.8 8.3 M20.3 6.95 Q16.85 9.05 15.25 11.85 13.6 14.9 13.85 18.55 13.8 20.85 15.05 20.35 14.85 15.85 16.9 12.9 18.9 9.95 22.15 7.65 22.25 6.15 20.3 6.95 M22.85 11.85 Q22.45 13.4 22.5 16.25 L23.05 16.55 25.25 11.05 25.85 8.85 24.15 8.85 Q23.25 10.25 22.85 11.85 M22.55 17.55 L22.15 17.1 19.8 21.95 18.55 23.6 Q17.35 25.1 16.6 27.1 15.9 29.05 17.7 31.85 19.45 34.6 24.1 34.25 28.7 33.85 32.6 31.9 L36.95 29.15 40.15 26.35 41.75 24.7 Q35.05 19.65 23.2 17.8 L18.45 27.7 20.9 21.25 22.55 17.55" fill="#000000" fill-rule="evenodd" stroke="none"/>
      <path d="M-2.8 -3.5 Q4.0 -1.7 8.75 0.5 12.95 2.4 19.7 6.55 15.8 8.35 14.3 11.75 13.1 14.35 13.25 17.85 L8.35 13.05 6.75 11.7 Q0.65 6.75 -8.75 2.0 -9.5 -4.2 -2.8 -3.5 M36.95 -13.85 L40.05 -14.35 Q40.8 -14.6 42.15 -15.3 L44.25 -16.4 Q46.85 -17.55 48.7 -16.45 50.15 -15.55 51.2 -12.5 L51.95 -10.05 53.0 -7.4 Q53.5 -6.25 54.45 -5.3 L56.25 -3.05 Q57.1 -1.75 56.65 1.3 56.15 4.3 53.55 8.9 51.4 12.7 48.6 16.5 41.75 10.0 26.45 8.2 27.4 2.75 28.15 -6.3 L28.45 -9.9 Q29.0 -12.7 33.35 -13.45 L36.95 -13.85 M25.55 -1.8 Q26.35 -6.2 27.95 -9.45 27.5 -6.85 26.95 0.4 L26.0 8.05 24.15 8.05 24.45 6.0 Q25.15 0.1 25.55 -1.8 M22.55 17.55 L20.9 21.25 18.45 27.7 23.2 17.8 Q35.05 19.65 41.75 24.7 L40.15 26.35 36.95 29.15 32.6 31.9 Q28.7 33.85 24.1 34.25 19.45 34.6 17.7 31.85 15.9 29.05 16.6 27.1 17.35 25.1 18.55 23.6 L19.8 21.95 22.15 17.1 22.55 17.55" fill="#ffcc00" fill-rule="evenodd" stroke="none"/>
      <path d="M22.85 11.85 Q23.25 10.25 24.15 8.85 L25.85 8.85 25.25 11.05 23.05 16.55 22.5 16.25 Q22.45 13.4 22.85 11.85 M20.3 6.95 Q22.25 6.15 22.15 7.65 18.9 9.95 16.9 12.9 14.85 15.85 15.05 20.35 13.8 20.85 13.85 18.55 13.6 14.9 15.25 11.85 16.85 9.05 20.3 6.95 M22.8 8.3 L23.35 8.9 23.25 9.05 Q21.65 12.2 21.9 15.95 L20.85 18.45 17.7 23.5 15.7 20.8 Q16.0 15.8 17.9 13.05 19.8 10.2 22.8 8.3 M47.8 17.6 L46.65 19.95 Q45.6 21.95 42.6 23.75 36.2 18.4 23.65 16.8 L24.65 14.75 Q25.5 12.9 26.3 9.05 40.8 11.3 47.8 17.6" fill="#990000" fill-rule="evenodd" stroke="none"/>
    </g>
    <g id="shape2" transform="matrix(1.0, 0.0, 0.0, 1.0, 39.0, 65.7)">
      <path d="M9.75 -62.85 Q8.3 -61.5 7.45 -58.95 6.9 -57.25 6.4 -53.9 L5.4 -48.6 Q4.65 -45.7 3.45 -43.9 L0.65 -40.15 Q-1.1 -37.95 -1.85 -36.55 -4.25 -32.45 -3.15 -28.05 -1.15 -20.25 2.9 -15.25 6.25 -11.05 10.9 -9.05 14.6 -7.45 18.75 -7.4 22.0 -7.35 24.35 -8.15 29.25 -9.9 31.75 -17.4 33.95 -24.35 33.55 -33.8 33.15 -43.15 30.4 -50.8 27.35 -59.1 22.6 -62.1 19.55 -64.05 16.2 -64.5 12.1 -65.05 9.75 -62.85 M13.35 -65.65 Q22.45 -66.4 28.05 -58.5 32.8 -51.8 34.1 -40.3 35.3 -29.95 33.35 -20.45 32.45 -16.0 31.0 -12.9 29.45 -9.75 27.55 -8.55 27.4 -8.5 27.5 -8.0 L27.75 -7.05 Q27.9 -5.65 26.55 -5.2 L28.0 0.25 Q28.95 4.25 29.2 7.35 30.05 16.25 25.6 17.95 23.65 17.25 21.2 14.6 L17.7 10.15 Q15.0 12.85 10.9 14.6 7.05 16.25 2.75 16.75 -0.8 20.85 -4.6 23.3 -8.55 25.85 -12.45 26.35 -21.05 27.35 -27.5 18.05 -29.8 14.8 -31.15 9.75 L-32.2 5.45 -33.5 0.95 -35.15 -3.55 Q-36.85 -8.55 -37.8 -13.45 -40.85 -29.05 -36.2 -39.85 -35.15 -36.55 -34.25 -34.95 -34.05 -38.95 -32.25 -42.8 -30.5 -46.55 -27.5 -49.4 -29.3 -34.6 -23.25 -41.7 -23.05 -40.55 -23.1 -39.15 L-23.2 -37.15 Q-23.15 -36.15 -22.65 -35.25 -22.1 -34.25 -20.75 -33.05 -17.1 -35.4 -12.95 -36.35 -8.35 -37.45 -4.55 -36.25 0.25 -40.5 2.7 -46.1 4.05 -49.4 5.25 -55.35 L6.1 -59.2 Q6.6 -61.2 7.35 -62.4 9.15 -65.3 13.35 -65.65 M31.4 -40.0 L31.1 -41.75 30.45 -43.4 Q29.25 -45.9 28.05 -45.2 26.6 -44.35 26.45 -41.3 26.3 -38.55 27.15 -37.0 27.85 -35.65 28.7 -35.45 29.45 -35.3 30.15 -36.0 30.75 -36.65 31.1 -37.85 31.45 -39.1 31.4 -40.0 M25.6 -41.9 Q25.95 -44.05 27.05 -45.3 L29.65 -45.4 Q31.1 -44.3 31.65 -41.4 32.25 -38.55 31.35 -36.75 30.4 -35.0 29.45 -34.85 28.45 -34.7 27.65 -35.1 26.25 -35.85 25.75 -37.9 25.25 -39.8 25.6 -41.9 M16.35 -2.8 Q16.3 -1.85 15.45 -0.3 14.55 1.2 14.55 1.7 14.55 2.75 15.9 5.2 17.15 7.5 19.15 10.1 21.15 12.75 23.0 14.4 25.0 16.25 26.1 16.25 29.2 13.7 28.15 6.1 27.75 3.1 26.8 0.0 L24.9 -4.55 Q20.7 -2.4 14.7 -3.3 8.6 -4.2 3.5 -7.95 -2.15 -12.1 -4.65 -18.45 -7.45 -25.7 -5.5 -34.7 -14.45 -36.85 -21.65 -30.7 -24.9 -27.9 -27.3 -23.7 -29.7 -19.65 -31.05 -14.7 -32.4 -9.8 -32.55 -4.6 -32.75 0.75 -31.6 5.75 -29.1 16.75 -21.15 23.05 -19.45 24.35 -17.1 24.75 -13.7 25.3 -9.65 23.6 1.9 18.75 16.35 -2.8 M23.8 -5.1 Q25.3 -5.65 25.9 -7.0 16.2 -4.85 9.15 -8.15 3.25 -10.95 -0.25 -17.25 -3.15 -22.4 -3.9 -28.6 -4.2 -31.2 -3.95 -33.35 -3.85 -35.45 -3.25 -36.55 -6.3 -32.6 -5.3 -26.1 -4.3 -19.9 -0.15 -14.25 4.15 -8.25 10.15 -5.65 16.85 -2.75 23.8 -5.1 M-27.95 -39.0 Q-28.7 -40.05 -28.6 -43.2 L-28.25 -47.65 Q-30.8 -44.8 -32.3 -39.6 -33.85 -34.45 -33.1 -30.95 -34.2 -32.05 -35.05 -33.9 L-36.3 -37.2 Q-38.65 -30.65 -37.8 -20.65 -37.0 -11.4 -34.0 -4.3 -34.2 -12.6 -31.15 -19.7 -27.95 -27.25 -21.7 -31.95 -23.15 -33.45 -23.75 -35.6 -24.3 -37.55 -24.1 -39.75 -24.95 -38.45 -25.85 -38.05 -27.0 -37.6 -27.95 -39.0 M16.4 8.4 L13.6 3.4 Q12.0 6.2 9.2 9.65 L4.3 15.35 Q7.75 14.65 10.85 12.95 14.05 11.1 16.4 8.4" fill="#000000" fill-rule="evenodd" stroke="none"/>
      <path d="M9.75 -62.85 Q12.1 -65.05 16.2 -64.5 19.55 -64.05 22.6 -62.1 27.35 -59.1 30.4 -50.8 33.15 -43.15 33.55 -33.8 33.95 -24.35 31.75 -17.4 29.25 -9.9 24.35 -8.15 22.0 -7.35 18.75 -7.4 14.6 -7.45 10.9 -9.05 6.25 -11.05 2.9 -15.25 -1.15 -20.25 -3.15 -28.05 -4.25 -32.45 -1.85 -36.55 -1.1 -37.95 0.65 -40.15 L3.45 -43.9 Q4.65 -45.7 5.4 -48.6 L6.4 -53.9 Q6.9 -57.25 7.45 -58.95 8.3 -61.5 9.75 -62.85 M25.6 -41.9 Q25.25 -39.8 25.75 -37.9 26.25 -35.85 27.65 -35.1 28.45 -34.7 29.45 -34.85 30.4 -35.0 31.35 -36.75 32.25 -38.55 31.65 -41.4 31.1 -44.3 29.65 -45.4 L27.05 -45.3 Q25.95 -44.05 25.6 -41.9 M16.35 -2.8 Q1.9 18.75 -9.65 23.6 -13.7 25.3 -17.1 24.75 -19.45 24.35 -21.15 23.05 -29.1 16.75 -31.6 5.75 -32.75 0.75 -32.55 -4.6 -32.4 -9.8 -31.05 -14.7 -29.7 -19.65 -27.3 -23.7 -24.9 -27.9 -21.65 -30.7 -14.45 -36.85 -5.5 -34.7 -7.45 -25.7 -4.65 -18.45 -2.15 -12.1 3.5 -7.95 8.6 -4.2 14.7 -3.3 20.7 -2.4 24.9 -4.55 L26.8 0.0 Q27.75 3.1 28.15 6.1 29.2 13.7 26.1 16.25 25.0 16.25 23.0 14.4 21.15 12.75 19.15 10.1 17.15 7.5 15.9 5.2 14.55 2.75 14.55 1.7 14.55 1.2 15.45 -0.3 16.3 -1.85 16.35 -2.8" fill="#660099" fill-rule="evenodd" stroke="none"/>
      <path d="M31.4 -40.0 Q31.45 -39.1 31.1 -37.85 30.75 -36.65 30.15 -36.0 29.45 -35.3 28.7 -35.45 27.85 -35.65 27.15 -37.0 26.3 -38.55 26.45 -41.3 26.6 -44.35 28.05 -45.2 29.25 -45.9 30.45 -43.4 L31.1 -41.75 31.4 -40.0" fill="#ffff00" fill-rule="evenodd" stroke="none"/>
      <path d="M23.8 -5.1 Q16.85 -2.75 10.15 -5.65 4.15 -8.25 -0.15 -14.25 -4.3 -19.9 -5.3 -26.1 -6.3 -32.6 -3.25 -36.55 -3.85 -35.45 -3.95 -33.35 -4.2 -31.2 -3.9 -28.6 -3.15 -22.4 -0.25 -17.25 3.25 -10.95 9.15 -8.15 16.2 -4.85 25.9 -7.0 25.3 -5.65 23.8 -5.1" fill="#990000" fill-rule="evenodd" stroke="none"/>
      <path d="M16.4 8.4 Q14.05 11.1 10.85 12.95 7.75 14.65 4.3 15.35 L9.2 9.65 Q12.0 6.2 13.6 3.4 L16.4 8.4 M-27.95 -39.0 Q-27.0 -37.6 -25.85 -38.05 -24.95 -38.45 -24.1 -39.75 -24.3 -37.55 -23.75 -35.6 -23.15 -33.45 -21.7 -31.95 -27.95 -27.25 -31.15 -19.7 -34.2 -12.6 -34.0 -4.3 -37.0 -11.4 -37.8 -20.65 -38.65 -30.65 -36.3 -37.2 L-35.05 -33.9 Q-34.2 -32.05 -33.1 -30.95 -33.85 -34.45 -32.3 -39.6 -30.8 -44.8 -28.25 -47.65 L-28.6 -43.2 Q-28.7 -40.05 -27.95 -39.0" fill="#ffffff" fill-rule="evenodd" stroke="none"/>
    </g>
    <g id="shape3" transform="matrix(1.0, 0.0, 0.0, 1.0, 33.75, 7.9)">
      <path d="M4.8 7.15 L5.0 7.15 4.85 7.25 Q4.4 7.65 2.9 8.05 L-1.1 9.1 Q-7.2 10.8 -10.1 13.95 L-9.15 15.35 -8.55 16.45 -6.25 18.45 Q-4.8 19.3 -3.95 21.75 -3.15 23.95 -3.35 25.75 3.1 24.45 5.1 26.95 L10.0 22.2 Q14.3 17.9 17.1 15.55 26.65 7.45 30.5 10.6 32.55 12.25 32.3 15.25 32.1 17.8 30.15 21.0 28.5 23.8 26.1 26.2 23.75 28.5 21.95 29.25 L20.45 28.35 Q19.85 27.8 19.75 26.8 L21.85 23.9 24.7 20.7 26.85 17.85 Q27.6 16.55 26.9 16.05 25.2 14.75 17.2 22.05 L7.8 31.35 Q9.35 32.2 10.35 34.2 11.4 36.2 11.3 38.4 11.2 40.8 9.8 42.6 8.2 44.55 5.1 45.3 4.6 47.15 2.3 48.3 0.25 49.3 -1.7 49.0 -3.55 51.1 -6.45 51.25 -9.25 51.35 -10.9 49.6 L-21.75 62.5 -29.35 71.65 Q-30.6 72.35 -31.95 71.3 L-32.85 70.4 -33.25 69.6 Q-33.5 67.6 -25.75 58.5 L-19.5 51.35 -14.65 46.0 Q-16.3 43.55 -17.7 39.55 -26.2 41.05 -28.45 33.9 -29.1 31.85 -29.35 28.3 -29.6 25.0 -29.85 24.5 -36.85 9.9 -31.35 3.9 -29.5 1.85 -26.1 0.75 L-23.55 0.05 -21.6 -0.45 Q-19.2 -1.15 -8.7 -5.2 -0.55 -8.35 -0.4 -7.85 L-0.45 -7.75 Q-0.8 -7.5 -3.1 -6.4 -5.95 -5.05 -9.45 -3.6 -19.1 0.35 -24.25 1.1 -28.05 1.65 -30.05 4.4 -31.75 6.85 -31.95 10.7 -32.1 14.1 -31.1 18.0 -30.15 21.55 -28.55 24.15 -25.2 19.55 -20.5 17.45 -15.35 15.05 -10.1 16.35 -11.35 13.7 -20.3 9.2 -18.3 8.95 -16.0 10.05 -14.75 10.55 -12.1 12.3 L-12.05 12.2 -14.15 9.45 Q-15.4 7.85 -16.6 6.95 -15.65 6.95 -13.45 8.95 -11.5 10.7 -10.85 11.8 -6.3 9.05 4.8 7.15 M21.15 28.15 Q22.0 28.8 24.3 26.9 26.65 25.05 28.65 22.2 30.95 19.0 31.5 16.25 32.15 13.0 30.15 11.35 26.55 8.2 15.35 17.9 9.6 22.85 2.05 31.2 L5.1 33.6 9.05 29.1 15.65 22.55 Q24.75 14.05 26.9 15.1 28.5 15.85 27.5 17.7 26.9 18.9 24.55 21.5 22.0 24.3 21.3 25.35 20.1 27.3 21.15 28.15 M9.1 34.7 Q8.2 32.9 7.25 32.05 L5.85 34.05 6.65 34.6 Q7.05 34.95 7.0 35.4 4.2 37.2 0.0 28.95 L1.6 30.7 4.6 27.45 Q2.9 26.1 0.8 26.2 L-2.75 27.05 -6.25 27.4 Q-8.15 27.0 -9.8 24.85 -16.95 26.35 -20.3 33.1 -18.9 33.8 -17.3 37.3 L-15.95 40.6 -14.45 43.95 Q-12.55 47.8 -10.3 49.2 -7.45 50.95 -3.45 49.1 L-4.15 48.7 -1.8 48.4 0.65 48.0 Q3.5 47.25 4.05 44.95 3.0 45.1 2.45 44.35 6.75 44.15 8.7 42.5 10.35 41.05 10.25 38.75 10.2 36.85 9.1 34.7 M-8.85 24.85 Q-6.75 26.5 -5.1 26.0 -3.5 23.35 -5.05 21.0 -6.45 18.8 -9.8 17.8 L-16.95 17.45 Q-21.05 18.2 -23.9 21.0 -27.4 24.3 -28.15 28.0 -28.8 31.25 -27.3 34.05 -25.85 36.65 -23.25 37.95 -20.55 39.25 -18.0 38.5 L-18.9 35.8 Q-19.5 34.3 -20.65 33.7 -20.95 34.5 -22.15 35.8 -21.0 30.8 -16.65 27.35 -12.4 23.95 -7.05 23.6 -6.4 24.0 -8.85 24.85 M-30.45 65.7 Q-32.6 68.75 -32.3 69.35 -32.35 70.05 -31.2 70.75 -30.05 71.45 -29.75 71.0 L-24.45 64.4 Q-25.7 64.5 -26.5 63.65 -27.4 62.8 -27.25 61.6 -28.75 63.2 -30.45 65.7 M-11.7 49.1 L-14.35 46.75 -20.75 53.85 -26.4 60.35 Q-26.7 60.95 -26.55 61.65 L-26.0 62.9 -25.0 63.7 Q-24.35 63.9 -23.75 63.5 L-11.7 49.1" fill="#000000" fill-rule="evenodd" stroke="none"/>
      <path d="M-0.45 -7.75 Q9.85 -4.75 4.8 7.15 -6.3 9.05 -10.85 11.8 -11.5 10.7 -13.45 8.95 -15.65 6.95 -16.6 6.95 -15.4 7.85 -14.15 9.45 L-12.05 12.2 -12.1 12.3 Q-14.75 10.55 -16.0 10.05 -18.3 8.95 -20.3 9.2 -11.35 13.7 -10.1 16.35 -15.35 15.05 -20.5 17.45 -25.2 19.55 -28.55 24.15 -30.15 21.55 -31.1 18.0 -32.1 14.1 -31.95 10.7 -31.75 6.85 -30.05 4.4 -28.05 1.65 -24.25 1.1 -19.1 0.35 -9.45 -3.6 -5.95 -5.05 -3.1 -6.4 -0.8 -7.5 -0.45 -7.75" fill="#660099" fill-rule="evenodd" stroke="none"/>
      <path d="M21.15 28.15 Q20.1 27.3 21.3 25.35 22.0 24.3 24.55 21.5 26.9 18.9 27.5 17.7 28.5 15.85 26.9 15.1 24.75 14.05 15.65 22.55 L9.05 29.1 5.1 33.6 2.05 31.2 Q9.6 22.85 15.35 17.9 26.55 8.2 30.15 11.35 32.15 13.0 31.5 16.25 30.95 19.0 28.65 22.2 26.65 25.05 24.3 26.9 22.0 28.8 21.15 28.15 M-11.7 49.1 L-23.75 63.5 Q-24.35 63.9 -25.0 63.7 L-26.0 62.9 -26.55 61.65 Q-26.7 60.95 -26.4 60.35 L-20.75 53.85 -14.35 46.75 -11.7 49.1" fill="#996600" fill-rule="evenodd" stroke="none"/>
      <path d="M9.1 34.7 Q10.2 36.85 10.25 38.75 10.35 41.05 8.7 42.5 6.75 44.15 2.45 44.35 3.0 45.1 4.05 44.95 3.5 47.25 0.65 48.0 L-1.8 48.4 -4.15 48.7 -3.45 49.1 Q-7.45 50.95 -10.3 49.2 -12.55 47.8 -14.45 43.95 L-15.95 40.6 -17.3 37.3 Q-18.9 33.8 -20.3 33.1 -16.95 26.35 -9.8 24.85 -8.15 27.0 -6.25 27.4 L-2.75 27.05 0.8 26.2 Q2.9 26.1 4.6 27.45 L1.6 30.7 0.0 28.95 Q4.2 37.2 7.0 35.4 7.05 34.95 6.65 34.6 L5.85 34.05 7.25 32.05 Q8.2 32.9 9.1 34.7" fill="#ffffff" fill-rule="evenodd" stroke="none"/>
      <path d="M-8.85 24.85 Q-6.4 24.0 -7.05 23.6 -12.4 23.95 -16.65 27.35 -21.0 30.8 -22.15 35.8 -20.95 34.5 -20.65 33.7 -19.5 34.3 -18.9 35.8 L-18.0 38.5 Q-20.55 39.25 -23.25 37.95 -25.85 36.65 -27.3 34.05 -28.8 31.25 -28.15 28.0 -27.4 24.3 -23.9 21.0 -21.05 18.2 -16.95 17.45 L-9.8 17.8 Q-6.45 18.8 -5.05 21.0 -3.5 23.35 -5.1 26.0 -6.75 26.5 -8.85 24.85" fill="#990000" fill-rule="evenodd" stroke="none"/>
      <path d="M-30.45 65.7 Q-28.75 63.2 -27.25 61.6 -27.4 62.8 -26.5 63.65 -25.7 64.5 -24.45 64.4 L-29.75 71.0 Q-30.05 71.45 -31.2 70.75 -32.35 70.05 -32.3 69.35 -32.6 68.75 -30.45 65.7" fill="#ffff00" fill-rule="evenodd" stroke="none"/>
    </g>
    <g id="shape4" transform="matrix(1.0, 0.0, 0.0, 1.0, 27.65, 28.75)">
      <path d="M27.25 6.35 Q26.4 10.2 24.4 13.25 L18.05 18.8 Q-2.1 34.4 -22.4 25.55 -26.0 21.2 -25.2 14.85 -24.55 9.3 -20.8 3.1 -18.75 0.9 -22.5 -3.55 L-25.55 -6.65 -27.65 -8.55 Q-26.95 -14.05 -23.75 -18.5 -20.7 -22.8 -16.0 -25.45 -11.35 -28.1 -6.0 -28.65 -0.5 -29.2 4.65 -27.3 L7.7 -25.9 10.65 -24.3 Q9.9 -15.35 15.85 -4.4 20.7 -6.35 23.7 -5.05 26.35 -3.95 27.25 -0.6 28.05 2.4 27.25 6.35 M5.7 -26.25 L2.35 -27.15 -6.9 -27.55 Q-2.9 -20.95 -1.2 -12.7 L2.6 -13.5 6.95 -13.9 7.05 -13.9 Q5.55 -19.65 5.7 -26.25 M18.75 -2.9 L22.05 -4.1 23.95 -4.25 23.75 -4.4 Q22.45 -5.15 20.25 -4.8 L16.8 -3.75 Q13.95 -2.65 10.85 -3.3 L10.15 -3.45 7.1 -4.55 4.1 -5.85 Q1.7 -6.95 -0.25 -7.35 L-2.25 -7.65 Q-6.05 -7.85 -9.85 -5.4 -21.05 1.55 -23.2 9.7 -22.45 8.15 -20.05 5.45 -17.7 2.7 -14.75 0.1 -11.8 -2.55 -7.75 -4.55 -3.75 -6.55 -1.65 -6.0 L2.45 -4.6 5.8 -3.25 Q9.85 -1.6 13.0 -1.4 15.0 -1.25 18.75 -2.9 M10.6 -3.9 L11.75 -3.65 Q13.15 -3.5 14.3 -4.15 13.3 -5.75 12.45 -8.25 L11.0 -12.6 7.25 -13.1 2.65 -12.9 -1.3 -12.1 Q-3.75 -11.45 -6.1 -10.4 -10.55 -8.5 -13.8 -5.6 -17.35 -2.55 -18.85 1.05 -12.4 -5.85 -6.7 -7.7 -3.6 -8.7 -0.45 -8.25 L2.25 -7.65 5.8 -6.1 8.95 -4.55 Q9.85 -4.15 10.6 -3.9 M16.45 5.5 Q14.85 4.25 12.05 3.65 6.65 2.45 0.0 4.25 -6.7 6.05 -10.75 9.8 -14.8 13.5 -13.9 16.95 L-13.9 17.0 Q-12.95 20.45 -7.55 21.65 L-4.95 22.05 Q-0.65 22.4 4.5 21.05 11.15 19.25 15.25 15.55 L15.95 14.85 Q19.2 11.5 18.4 8.35 17.9 6.65 16.45 5.5" fill="#000000" fill-rule="evenodd" stroke="none"/>
      <path d="M18.75 -2.9 Q15.0 -1.25 13.0 -1.4 9.85 -1.6 5.8 -3.25 L2.45 -4.6 -1.65 -6.0 Q-3.75 -6.55 -7.75 -4.55 -11.8 -2.55 -14.75 0.1 -17.7 2.7 -20.05 5.45 -22.45 8.15 -23.2 9.7 -21.05 1.55 -9.85 -5.4 -6.05 -7.85 -2.25 -7.65 L-0.25 -7.35 Q1.7 -6.95 4.1 -5.85 L7.1 -4.55 10.15 -3.45 10.85 -3.3 Q13.95 -2.65 16.8 -3.75 L20.25 -4.8 Q22.45 -5.15 23.75 -4.4 L23.95 -4.25 22.05 -4.1 18.75 -2.9 M5.7 -26.25 Q5.55 -19.65 7.05 -13.9 L6.95 -13.9 2.6 -13.5 -1.2 -12.7 Q-2.9 -20.95 -6.9 -27.55 L2.35 -27.15 5.7 -26.25" fill="#00ccff" fill-rule="evenodd" stroke="none"/>
      <path d="M7.25 -13.1 L11.0 -12.6 12.45 -8.25 Q13.3 -5.75 14.3 -4.15 13.15 -3.5 11.75 -3.65 L10.6 -3.9 Q8.2 -7.45 7.25 -13.1 M-0.45 -8.25 Q-3.6 -8.7 -6.7 -7.7 -12.4 -5.85 -18.85 1.05 -17.35 -2.55 -13.8 -5.6 -10.55 -8.5 -6.1 -10.4 -3.75 -11.45 -1.3 -12.1 L-0.45 -8.25" fill="#990000" fill-rule="evenodd" stroke="none"/>
      <path d="M10.6 -3.9 Q9.85 -4.15 8.95 -4.55 L5.8 -6.1 2.25 -7.65 -0.45 -8.25 -1.3 -12.1 2.65 -12.9 7.25 -13.1 Q8.2 -7.45 10.6 -3.9" fill="#cc0000" fill-rule="evenodd" stroke="none"/>
      <path d="M15.95 14.85 L15.25 15.55 Q11.15 19.25 4.5 21.05 -0.65 22.4 -4.95 22.05 L-5.9 19.25 Q-2.0 19.4 2.55 18.2 9.2 16.4 13.3 12.7 L14.3 11.7 15.95 14.85" fill="#660000" fill-rule="evenodd" stroke="none"/>
      <path d="M-13.9 16.95 Q-14.8 13.5 -10.75 9.8 -6.7 6.05 0.0 4.25 6.65 2.45 12.05 3.65 14.85 4.25 16.45 5.5 17.2 8.5 14.3 11.7 L13.3 12.7 Q9.2 16.4 2.55 18.2 -2.0 19.4 -5.9 19.25 L-9.5 18.8 Q-12.3 18.2 -13.9 16.95" fill="#333333" fill-rule="evenodd" stroke="none"/>
      <path d="M16.45 5.5 Q17.9 6.65 18.4 8.35 19.2 11.5 15.95 14.85 L14.3 11.7 Q17.2 8.5 16.45 5.5 M-4.95 22.05 L-7.55 21.65 Q-12.95 20.45 -13.9 17.0 L-13.9 16.95 Q-12.3 18.2 -9.5 18.8 L-5.9 19.25 -4.95 22.05" fill="#330000" fill-rule="evenodd" stroke="none"/>
    </g>
    <g id="shape5" transform="matrix(1.0, 0.0, 0.0, 1.0, 14.55, 14.95)">
      <path d="M13.85 7.1 Q13.8 4.35 12.85 1.3 11.8 -2.4 9.8 -5.3 7.4 -8.75 4.05 -10.65 4.7 -6.5 5.8 -4.25 L6.5 -4.95 Q6.9 -5.35 7.35 -5.4 7.1 -3.75 5.15 -2.65 3.3 -1.65 0.8 -1.65 -1.9 -1.65 -4.1 -3.0 -6.65 -4.5 -7.9 -7.45 L-7.1 -7.4 -6.4 -6.6 -8.8 -11.85 Q-11.15 -11.75 -12.35 -8.35 -13.5 -5.15 -13.1 -0.65 -12.7 4.1 -10.65 7.85 -8.35 12.1 -4.6 13.7 -2.85 14.45 -1.25 12.8 -0.2 11.65 1.35 8.5 3.3 4.5 4.0 3.4 5.6 0.75 7.35 0.2 L5.65 1.95 7.6 4.55 9.85 7.55 Q12.55 11.0 13.3 10.25 13.9 9.6 13.85 7.1 M2.4 -14.95 L3.65 -14.95 3.65 -12.95 6.9 -9.65 10.0 -6.35 Q13.25 -2.5 14.0 1.7 14.6 5.3 14.6 7.85 14.55 12.6 12.15 11.35 11.45 11.0 8.65 7.5 L4.95 2.95 Q4.15 3.95 3.35 5.7 L2.05 9.0 0.7 12.05 -1.0 14.3 Q-2.15 15.15 -3.7 15.0 -5.15 14.8 -6.7 13.65 -10.0 11.35 -12.3 6.65 -14.8 1.6 -14.55 -3.3 -14.25 -9.0 -10.15 -12.7 L-9.7 -13.2 -10.2 -14.95 -8.9 -14.95 -7.2 -11.0 -4.7 -4.65 Q-2.9 -3.4 -0.25 -3.1 L4.55 -3.4 3.05 -10.15 Q2.55 -12.75 2.4 -14.95" fill="#000000" fill-rule="evenodd" stroke="none"/>
      <path d="M13.85 7.1 Q13.9 9.6 13.3 10.25 12.55 11.0 9.85 7.55 L7.6 4.55 5.65 1.95 7.35 0.2 Q5.6 0.75 4.0 3.4 3.3 4.5 1.35 8.5 -0.2 11.65 -1.25 12.8 -2.85 14.45 -4.6 13.7 -8.35 12.1 -10.65 7.85 -12.7 4.1 -13.1 -0.65 -13.5 -5.15 -12.35 -8.35 -11.15 -11.75 -8.8 -11.85 L-6.4 -6.6 -7.1 -7.4 -7.9 -7.45 Q-6.65 -4.5 -4.1 -3.0 -1.9 -1.65 0.8 -1.65 3.3 -1.65 5.15 -2.65 7.1 -3.75 7.35 -5.4 6.9 -5.35 6.5 -4.95 L5.8 -4.25 Q4.7 -6.5 4.05 -10.65 7.4 -8.75 9.8 -5.3 11.8 -2.4 12.85 1.3 13.8 4.35 13.85 7.1" fill="#990000" fill-rule="evenodd" stroke="none"/>
      <path d="M-8.9 -14.95 L2.4 -14.95 Q2.55 -12.75 3.05 -10.15 L4.55 -3.4 -0.25 -3.1 Q-2.9 -3.4 -4.7 -4.65 L-7.2 -11.0 -8.9 -14.95" fill="#ffffff" fill-rule="evenodd" stroke="none"/>
    </g>
    <g id="shape6" transform="matrix(1.0, 0.0, 0.0, 1.0, 35.55, 37.0)">
      <path d="M-16.15 -23.15 L-17.0 -21.65 Q-20.75 -16.4 -20.75 -11.0 L-20.65 -9.5 -20.65 -8.0 Q-21.0 -5.8 -26.5 -6.25 -29.85 -6.55 -33.65 -7.55 -32.6 -6.1 -30.1 -5.05 L-27.95 -4.2 Q-26.75 -3.75 -25.95 -3.25 -27.35 -1.6 -29.95 0.15 L-34.35 3.0 -29.85 2.7 -25.4 2.25 -30.2 9.2 -26.7 7.4 Q-24.6 6.4 -23.0 6.15 -22.9 7.05 -23.7 10.0 L-24.95 13.85 Q-23.65 12.4 -21.35 10.5 -18.85 8.4 -18.9 9.05 -18.4 13.9 -15.6 16.75 -16.7 13.05 -15.65 8.7 L-16.4 6.65 -17.05 4.55 -15.35 7.65 Q-16.65 1.75 -15.8 -0.35 L-15.05 5.25 Q-14.45 8.25 -13.3 10.55 -13.0 7.75 -11.6 6.25 -10.45 5.0 -8.25 4.45 L-4.05 3.85 0.25 3.0 Q-2.9 0.95 -4.4 -3.0 -5.6 -6.35 -5.6 -10.65 L-7.1 -6.95 Q-7.1 -9.55 -5.65 -12.1 L-2.35 -16.35 1.15 -20.35 Q2.9 -22.65 3.25 -24.65 L3.3 -26.0 Q3.3 -26.8 3.6 -27.25 4.05 -26.5 3.9 -25.35 L3.4 -23.45 Q7.35 -20.2 9.45 -15.1 11.4 -10.3 11.25 -4.9 12.55 -6.15 13.5 -5.75 11.6 -10.35 11.6 -15.9 L11.75 -20.85 11.85 -26.15 11.8 -26.75 11.85 -27.3 12.35 -25.4 12.2 -23.4 14.35 -21.35 16.15 -19.0 15.65 -21.9 14.55 -26.5 Q12.7 -32.4 10.8 -30.55 10.3 -30.05 9.65 -28.1 L8.85 -25.3 Q8.1 -25.6 8.5 -27.1 L6.35 -28.15 7.1 -24.15 7.05 -23.7 Q5.1 -29.6 3.3 -30.6 1.8 -31.4 0.15 -28.9 L-2.8 -22.95 Q-4.7 -18.7 -5.9 -17.15 L-6.25 -17.3 Q-3.1 -21.5 -0.7 -28.85 L-2.3 -28.55 -3.95 -28.05 Q-5.9 -27.5 -7.1 -28.3 -7.5 -29.45 -7.0 -30.95 L-6.5 -32.2 -6.0 -33.4 Q-7.85 -32.35 -11.15 -29.0 -12.65 -32.65 -12.4 -35.25 -13.25 -33.4 -13.65 -30.9 -13.95 -29.25 -14.05 -26.4 L-17.25 -27.25 -20.5 -27.45 -18.1 -26.4 Q-16.5 -25.5 -16.15 -24.8 -15.85 -24.05 -16.15 -23.15 M-17.65 -24.75 Q-18.4 -26.4 -21.6 -27.25 -22.05 -28.5 -18.85 -28.1 L-14.95 -27.3 Q-15.15 -29.9 -14.4 -32.4 -13.65 -34.95 -12.1 -37.0 -11.6 -32.4 -10.65 -30.45 -9.15 -32.5 -4.45 -34.8 L-6.0 -31.3 Q-6.7 -29.75 -6.65 -29.25 -6.55 -28.65 -5.2 -28.7 -3.85 -28.85 -0.45 -29.75 1.55 -32.2 3.05 -32.35 4.85 -32.55 5.8 -29.35 L8.8 -27.8 9.15 -28.95 9.55 -30.1 Q10.1 -31.3 11.15 -31.75 14.2 -33.0 15.55 -26.45 L16.3 -21.3 16.75 -17.8 Q17.05 -16.75 18.1 -14.5 L19.3 -11.1 Q21.35 -10.15 24.15 -10.6 L28.95 -11.95 25.65 -7.75 30.9 -5.15 Q27.95 -3.85 27.05 -2.9 L27.25 -0.65 27.05 1.6 30.6 0.8 Q33.1 0.35 34.05 0.75 L35.1 1.85 35.6 3.35 Q35.65 4.2 35.35 4.9 35.05 5.7 34.45 6.1 31.3 8.15 26.6 9.0 L22.95 9.6 19.7 10.4 Q16.45 11.55 15.1 14.7 13.45 18.5 13.9 26.4 14.85 25.75 16.4 25.4 L19.2 25.25 Q20.55 25.5 20.8 26.35 21.1 27.3 19.8 29.0 L17.3 30.55 12.05 33.5 Q4.4 37.5 3.0 36.95 -0.8 35.35 -5.45 28.8 L-8.95 23.2 -11.35 18.4 -12.9 14.2 Q-13.85 11.7 -14.9 10.2 -15.95 12.0 -15.35 17.65 -19.25 13.6 -19.7 10.15 L-22.95 13.05 Q-24.9 15.1 -26.15 15.7 L-26.3 15.55 Q-25.55 14.05 -25.0 11.65 L-24.0 7.65 Q-26.6 8.05 -31.9 10.55 L-31.9 10.3 -29.15 6.9 -26.75 3.2 -31.2 3.6 -35.55 3.3 -31.5 0.35 Q-29.0 -1.4 -27.7 -2.9 -31.8 -4.0 -35.15 -8.4 L-32.3 -7.7 -28.95 -6.95 Q-24.8 -6.35 -22.85 -7.7 -21.55 -8.6 -21.6 -10.3 L-21.7 -11.85 -21.7 -13.4 Q-21.5 -14.9 -20.1 -17.35 L-18.95 -19.35 -17.95 -21.3 Q-17.05 -23.4 -17.65 -24.75 M16.0 6.4 L15.8 6.75 Q15.05 7.75 13.9 8.2 L11.65 8.5 Q10.4 8.4 9.35 7.7 8.2 7.0 7.55 5.9 5.9 3.2 7.25 -0.65 5.25 1.35 1.45 3.45 0.1 4.2 -2.75 4.55 L-5.1 4.8 -7.45 5.15 Q-10.0 5.65 -11.2 6.9 -12.7 8.45 -12.45 11.5 -12.3 14.0 -10.3 18.5 -8.3 22.85 -5.5 27.1 -2.55 31.6 0.1 34.05 3.1 36.8 4.95 36.1 L7.6 34.8 12.8 32.05 Q20.1 27.95 19.85 26.75 19.6 25.6 17.0 26.2 L15.05 26.85 Q14.15 27.25 13.85 27.65 L3.4 32.95 Q2.5 33.5 -0.25 30.7 -3.0 27.85 -5.25 23.95 -7.85 19.5 -8.2 16.1 -8.6 12.05 -5.6 10.45 L-1.65 10.25 Q-0.15 10.65 2.7 12.15 L7.05 14.2 10.95 14.35 Q13.05 13.55 15.6 12.05 L20.05 9.4 Q22.65 7.8 24.55 6.9 27.1 5.7 29.5 5.2 L29.5 5.35 26.0 6.8 Q23.95 7.7 22.6 8.55 L25.55 7.95 29.75 7.05 Q35.0 5.6 34.95 3.15 34.9 1.55 32.35 1.5 30.25 1.45 26.6 2.5 L20.4 4.65 Q17.6 5.8 16.55 6.45 L16.0 6.4 16.1 6.2 15.85 6.35 16.0 6.4 M16.1 6.2 Q18.9 4.25 20.9 3.65 18.95 1.95 18.45 -1.3 L17.05 -1.0 Q16.4 -0.65 16.15 0.05 17.3 3.85 16.1 6.2 M19.05 -4.15 Q19.65 -5.45 19.5 -6.55 18.8 -11.75 17.3 -15.3 15.45 -19.6 12.15 -22.7 11.0 -12.9 14.2 -5.5 L15.25 -4.7 16.45 -3.5 Q17.95 -1.95 18.6 -2.15 L18.65 -3.2 19.05 -4.15 M16.25 -2.9 L15.0 -4.15 Q13.3 -5.5 12.2 -4.8 14.45 -4.05 15.85 -0.65 16.15 -1.35 17.25 -1.9 L16.25 -2.9 M19.7 -9.8 L20.35 -5.95 Q22.15 -7.4 24.0 -6.65 25.65 -5.95 26.65 -3.8 27.65 -4.6 29.65 -5.35 L26.75 -6.45 24.05 -7.55 25.75 -9.25 27.5 -10.9 Q23.9 -9.55 19.7 -9.8 M19.95 -2.6 Q19.85 -1.2 20.4 0.05 20.1 -0.4 19.9 -1.15 L19.7 -2.8 Q19.65 -4.85 20.85 -5.1 20.0 -4.1 19.95 -2.6 M25.15 -5.15 Q24.05 -6.6 22.45 -6.3 20.95 -6.1 19.95 -4.6 18.9 -3.0 19.15 -1.05 19.4 1.3 21.45 3.4 L26.15 1.8 Q26.7 0.3 26.45 -1.8 26.1 -3.9 25.15 -5.15 M8.95 -3.7 L10.8 -4.8 Q10.95 -9.85 9.05 -14.8 6.95 -20.45 3.25 -23.0 2.5 -21.5 -1.25 -16.95 -4.7 -12.75 -4.95 -11.85 -5.5 -10.2 -5.25 -7.95 -5.0 -5.85 -4.1 -3.65 -3.2 -1.45 -1.9 0.25 -0.55 2.05 1.0 2.9 2.6 2.15 4.55 0.65 L7.8 -1.9 Q8.05 -2.9 8.95 -3.7 M11.95 -4.55 Q10.7 -4.85 9.55 -3.55 8.5 -2.35 7.95 -0.25 7.4 1.9 7.65 3.85 8.0 6.5 9.9 7.55 L13.4 7.65 Q15.3 6.75 15.8 4.45 16.35 1.75 14.6 -1.75 13.35 -4.2 11.95 -4.55 M8.55 -1.4 Q8.9 -2.6 9.7 -3.1 8.5 -1.15 8.55 1.3 8.55 3.8 9.9 5.6 9.2 5.0 8.75 3.75 8.3 2.55 8.25 1.15 8.2 -0.25 8.55 -1.4 M10.5 22.4 Q9.9 17.9 10.0 15.75 L7.75 15.4 Q6.9 16.75 4.8 17.3 L3.2 20.65 1.35 23.75 0.95 23.45 Q1.65 21.0 0.95 17.7 -2.5 18.2 -4.3 16.85 -6.25 15.35 -5.8 11.9 -7.65 13.5 -7.2 16.6 -6.85 19.2 -4.9 22.65 -3.3 25.55 -0.95 28.45 1.15 31.05 2.75 32.35 6.3 30.05 11.05 27.65 L10.5 22.4 M2.45 15.3 L1.4 15.2 0.45 15.05 Q1.3 16.4 1.7 18.25 2.05 19.95 1.85 21.55 L3.35 18.95 Q4.15 17.45 4.1 16.1 3.65 15.4 2.45 15.3 M11.75 27.25 L13.4 26.6 Q12.85 23.5 13.2 19.9 13.55 16.6 14.6 13.45 L10.95 15.55 Q10.4 21.2 11.75 27.25" fill="#000000" fill-rule="evenodd" stroke="none"/>
      <path d="M-16.15 -23.15 Q-15.85 -24.05 -16.15 -24.8 -16.5 -25.5 -18.1 -26.4 L-20.5 -27.45 -17.25 -27.25 -14.05 -26.4 Q-13.95 -29.25 -13.65 -30.9 -13.25 -33.4 -12.4 -35.25 -12.65 -32.65 -11.15 -29.0 -7.85 -32.35 -6.0 -33.4 L-6.5 -32.2 -7.0 -30.95 Q-7.5 -29.45 -7.1 -28.3 -5.9 -27.5 -3.95 -28.05 L-2.3 -28.55 -0.7 -28.85 Q-3.1 -21.5 -6.25 -17.3 L-5.9 -17.15 Q-4.7 -18.7 -2.8 -22.95 L0.15 -28.9 Q1.8 -31.4 3.3 -30.6 5.1 -29.6 7.05 -23.7 L7.1 -24.15 6.35 -28.15 8.5 -27.1 Q8.1 -25.6 8.85 -25.3 L9.65 -28.1 Q10.3 -30.05 10.8 -30.55 12.7 -32.4 14.55 -26.5 L15.65 -21.9 16.15 -19.0 14.35 -21.35 12.2 -23.4 12.35 -25.4 11.85 -27.3 11.8 -26.75 11.85 -26.15 11.75 -20.85 11.6 -15.9 Q11.6 -10.35 13.5 -5.75 12.55 -6.15 11.25 -4.9 11.4 -10.3 9.45 -15.1 7.35 -20.2 3.4 -23.45 L3.9 -25.35 Q4.05 -26.5 3.6 -27.25 3.3 -26.8 3.3 -26.0 L3.25 -24.65 Q2.9 -22.65 1.15 -20.35 L-2.35 -16.35 -5.65 -12.1 Q-7.1 -9.55 -7.1 -6.95 L-5.6 -10.65 Q-5.6 -6.35 -4.4 -3.0 -2.9 0.95 0.25 3.0 L-4.05 3.85 -8.25 4.45 Q-10.45 5.0 -11.6 6.25 -13.0 7.75 -13.3 10.55 -14.45 8.25 -15.05 5.25 L-15.8 -0.35 Q-16.65 1.75 -15.35 7.65 L-17.05 4.55 -16.4 6.65 -15.65 8.7 Q-16.7 13.05 -15.6 16.75 -18.4 13.9 -18.9 9.05 -18.85 8.4 -21.35 10.5 -23.65 12.4 -24.95 13.85 L-23.7 10.0 Q-22.9 7.05 -23.0 6.15 -24.6 6.4 -26.7 7.4 L-30.2 9.2 -25.4 2.25 -29.85 2.7 -34.35 3.0 -29.95 0.15 Q-27.35 -1.6 -25.95 -3.25 -26.75 -3.75 -27.95 -4.2 L-30.1 -5.05 Q-32.6 -6.1 -33.65 -7.55 -29.85 -6.55 -26.5 -6.25 -21.0 -5.8 -20.65 -8.0 L-20.65 -9.5 -20.75 -11.0 Q-20.75 -16.4 -17.0 -21.65 L-16.15 -23.15 M16.0 6.4 L15.85 6.35 16.1 6.2 16.0 6.4 M19.7 -9.8 Q23.9 -9.55 27.5 -10.9 L25.75 -9.25 24.05 -7.55 26.75 -6.45 29.65 -5.35 Q27.65 -4.6 26.65 -3.8 25.65 -5.95 24.0 -6.65 22.15 -7.4 20.35 -5.95 L19.7 -9.8 M19.95 -2.6 Q20.0 -4.1 20.85 -5.1 19.65 -4.85 19.7 -2.8 L19.9 -1.15 Q20.1 -0.4 20.4 0.05 19.85 -1.2 19.95 -2.6 M25.15 -5.15 Q26.1 -3.9 26.45 -1.8 26.7 0.3 26.15 1.8 L21.45 3.4 Q19.4 1.3 19.15 -1.05 18.9 -3.0 19.95 -4.6 20.95 -6.1 22.45 -6.3 24.05 -6.6 25.15 -5.15 M11.95 -4.55 Q13.35 -4.2 14.6 -1.75 16.35 1.75 15.8 4.45 15.3 6.75 13.4 7.65 L9.9 7.55 Q8.0 6.5 7.65 3.85 7.4 1.9 7.95 -0.25 8.5 -2.35 9.55 -3.55 10.7 -4.85 11.95 -4.55 M8.55 -1.4 Q8.2 -0.25 8.25 1.15 8.3 2.55 8.75 3.75 9.2 5.0 9.9 5.6 8.55 3.8 8.55 1.3 8.5 -1.15 9.7 -3.1 8.9 -2.6 8.55 -1.4" fill="#ffffff" fill-rule="evenodd" stroke="none"/>
      <path d="M16.0 6.4 L16.55 6.45 Q17.6 5.8 20.4 4.65 L26.6 2.5 Q30.25 1.45 32.35 1.5 34.9 1.55 34.95 3.15 35.0 5.6 29.75 7.05 L25.55 7.95 22.6 8.55 Q23.95 7.7 26.0 6.8 L29.5 5.35 29.5 5.2 Q27.1 5.7 24.55 6.9 22.65 7.8 20.05 9.4 L15.6 12.05 Q13.05 13.55 10.95 14.35 L7.05 14.2 2.7 12.15 Q-0.15 10.65 -1.65 10.25 L-5.6 10.45 Q-8.6 12.05 -8.2 16.1 -7.85 19.5 -5.25 23.95 -3.0 27.85 -0.25 30.7 2.5 33.5 3.4 32.95 L13.85 27.65 Q14.15 27.25 15.05 26.85 L17.0 26.2 Q19.6 25.6 19.85 26.75 20.1 27.95 12.8 32.05 L7.6 34.8 4.95 36.1 Q3.1 36.8 0.1 34.05 -2.55 31.6 -5.5 27.1 -8.3 22.85 -10.3 18.5 -12.3 14.0 -12.45 11.5 -12.7 8.45 -11.2 6.9 -10.0 5.65 -7.45 5.15 L-5.1 4.8 -2.75 4.55 Q0.1 4.2 1.45 3.45 5.25 1.35 7.25 -0.65 5.9 3.2 7.55 5.9 8.2 7.0 9.35 7.7 10.4 8.4 11.65 8.5 L13.9 8.2 Q15.05 7.75 15.8 6.75 L16.0 6.4 M16.1 6.2 Q17.3 3.85 16.15 0.05 16.4 -0.65 17.05 -1.0 L18.45 -1.3 Q18.95 1.95 20.9 3.65 18.9 4.25 16.1 6.2 M16.25 -2.9 L17.25 -1.9 Q16.15 -1.35 15.85 -0.65 14.45 -4.05 12.2 -4.8 13.3 -5.5 15.0 -4.15 L16.25 -2.9 M11.75 27.25 Q10.4 21.2 10.95 15.55 L14.6 13.45 Q13.55 16.6 13.2 19.9 12.85 23.5 13.4 26.6 L11.75 27.25" fill="#ffcc00" fill-rule="evenodd" stroke="none"/>
      <path d="M19.05 -4.15 L18.65 -3.2 18.6 -2.15 Q17.95 -1.95 16.45 -3.5 L15.25 -4.7 14.2 -5.5 Q11.0 -12.9 12.15 -22.7 15.45 -19.6 17.3 -15.3 18.8 -11.75 19.5 -6.55 19.65 -5.45 19.05 -4.15 M8.95 -3.7 Q8.05 -2.9 7.8 -1.9 L4.55 0.65 Q2.6 2.15 1.0 2.9 -0.55 2.05 -1.9 0.25 -3.2 -1.45 -4.1 -3.65 -5.0 -5.85 -5.25 -7.95 -5.5 -10.2 -4.95 -11.85 -4.7 -12.75 -1.25 -16.95 2.5 -21.5 3.25 -23.0 6.95 -20.45 9.05 -14.8 10.95 -9.85 10.8 -4.8 L8.95 -3.7" fill="#ccffff" fill-rule="evenodd" stroke="none"/>
      <path d="M10.5 22.4 L11.05 27.65 Q6.3 30.05 2.75 32.35 1.15 31.05 -0.95 28.45 -3.3 25.55 -4.9 22.65 -6.85 19.2 -7.2 16.6 -7.65 13.5 -5.8 11.9 -6.25 15.35 -4.3 16.85 -2.5 18.2 0.95 17.7 1.65 21.0 0.95 23.45 L1.35 23.75 3.2 20.65 4.8 17.3 Q6.9 16.75 7.75 15.4 L10.0 15.75 Q9.9 17.9 10.5 22.4" fill="#ff6666" fill-rule="evenodd" stroke="none"/>
      <path d="M2.45 15.3 Q3.65 15.4 4.1 16.1 4.15 17.45 3.35 18.95 L1.85 21.55 Q2.05 19.95 1.7 18.25 1.3 16.4 0.45 15.05 L1.4 15.2 2.45 15.3" fill="#ff3333" fill-rule="evenodd" stroke="none"/>
    </g>
    <g id="sprite0" transform="matrix(1.0, 0.0, 0.0, 1.0, 15.5, 16.85)">
      <use height="13.8" transform="matrix(1.0, 0.0, 0.0, 1.0, -13.6, -2.15)" width="8.55" xlink:href="#shape7"/>
      <use height="14.65" transform="matrix(0.4011, -0.062, 0.062, 0.4011, -8.339, -1.4995)" width="6.45" xlink:href="#shape8"/>
    </g>
    <g id="shape7" transform="matrix(1.0, 0.0, 0.0, 1.0, 13.6, 2.15)">
      <path d="M-8.8 10.9 L-6.15 4.7 Q-4.25 0.15 -7.15 -1.05 -10.1 -2.35 -12.85 -1.5 L-12.75 -1.95 -7.35 -1.65 Q-3.85 -0.9 -5.7 4.0 L-8.55 10.9 -8.8 10.9" fill="#000000" fill-rule="evenodd" stroke="none"/>
      <path d="M-12.85 -1.5 Q-10.1 -2.35 -7.15 -1.05 -4.25 0.15 -6.15 4.7 L-8.8 10.9 Q-11.8 12.4 -13.6 10.9 -13.75 4.65 -12.85 -1.5" fill="#ccffff" fill-rule="evenodd" stroke="none"/>
    </g>
    <g id="shape8" transform="matrix(1.0, 0.0, 0.0, 1.0, 3.2, 7.35)">
      <path d="M-2.25 -5.25 Q-1.3 -7.35 0.05 -7.35 1.35 -7.35 2.3 -5.25 3.25 -3.1 3.25 -0.05 3.25 3.0 2.3 5.15 1.35 7.3 0.05 7.3 -1.3 7.3 -2.25 5.15 -3.2 3.0 -3.2 -0.05 -3.2 -3.1 -2.25 -5.25" fill="#000000" fill-rule="evenodd" stroke="none"/>
    </g>
  </defs>
</svg>
