<?xml version="1.0" encoding="UTF-8" standalone="no"?>
<svg xmlns:xlink="http://www.w3.org/1999/xlink" height="113.9px" width="113.9px" xmlns="http://www.w3.org/2000/svg">
  <g transform="matrix(1.0, 0.0, 0.0, 1.0, 0.75, 0.75)">
    <use height="113.9" transform="matrix(1.0, 0.0, 0.0, 1.0, -0.75, -0.75)" width="113.9" xlink:href="#shape0"/>
    <use height="4.1" transform="matrix(1.5556, 0.0, 0.0, 1.5556, 42.411, 1.561)" width="4.1" xlink:href="#shape1"/>
    <use height="4.1" transform="matrix(1.5556, 0.0, 0.0, 1.5556, 64.211, 1.561)" width="4.1" xlink:href="#shape1"/>
    <use height="4.1" transform="matrix(1.5556, 0.0, 0.0, 1.5556, 42.411, 104.811)" width="4.1" xlink:href="#shape1"/>
    <use height="4.1" transform="matrix(1.5556, 0.0, 0.0, 1.5556, 64.211, 104.811)" width="4.1" xlink:href="#shape1"/>
    <use height="4.1" transform="matrix(1.0E-4, 1.5556, -1.5556, 1.0E-4, 111.1388, 42.0107)" width="4.1" xlink:href="#shape1"/>
    <use height="4.1" transform="matrix(1.0E-4, 1.5556, -1.5556, 1.0E-4, 111.1388, 64.2607)" width="4.1" xlink:href="#shape1"/>
    <use height="4.1" transform="matrix(1.0E-4, 1.5556, -1.5556, 1.0E-4, 7.9888, 42.0107)" width="4.1" xlink:href="#shape1"/>
    <use height="4.1" transform="matrix(1.0E-4, 1.5556, -1.5556, 1.0E-4, 7.9888, 64.2607)" width="4.1" xlink:href="#shape1"/>
    <use height="4.1" transform="matrix(1.1, 1.1, -1.1, 1.1, 85.0, 7.5399)" width="4.1" xlink:href="#shape1"/>
    <use height="4.1" transform="matrix(1.1, 1.1, -1.1, 1.1, 100.75, 23.3399)" width="4.1" xlink:href="#shape1"/>
    <use height="4.1" transform="matrix(1.1, 1.1, -1.1, 1.1, 12.0, 80.6899)" width="4.1" xlink:href="#shape1"/>
    <use height="4.1" transform="matrix(1.1, 1.1, -1.1, 1.1, 27.65, 96.1899)" width="4.1" xlink:href="#shape1"/>
    <use height="4.1" transform="matrix(-1.0999, 1.1001, -1.1001, -1.0999, 105.2599, 85.1995)" width="4.1" xlink:href="#shape1"/>
    <use height="4.1" transform="matrix(-1.0999, 1.1001, -1.1001, -1.0999, 89.6099, 100.6995)" width="4.1" xlink:href="#shape1"/>
    <use height="4.1" transform="matrix(-1.0999, 1.1001, -1.1001, -1.0999, 32.1599, 12.0495)" width="4.1" xlink:href="#shape1"/>
    <use height="4.1" transform="matrix(-1.0999, 1.1001, -1.1001, -1.0999, 16.5099, 27.5995)" width="4.1" xlink:href="#shape1"/>
    <use height="4.1" transform="matrix(1.5556, 0.0, 0.0, 1.5556, 53.261, 23.511)" width="4.1" xlink:href="#shape1"/>
    <use height="4.1" transform="matrix(1.5556, 0.0, 0.0, 1.5556, 53.261, 83.111)" width="4.1" xlink:href="#shape1"/>
    <use height="4.1" transform="matrix(1.0E-4, 1.5556, -1.5556, 1.0E-4, 89.3388, 53.2107)" width="4.1" xlink:href="#shape1"/>
    <use height="4.1" transform="matrix(1.0E-4, 1.5556, -1.5556, 1.0E-4, 29.6888, 53.2107)" width="4.1" xlink:href="#shape1"/>
    <use height="4.1" transform="matrix(1.1, 1.1, -1.1, 1.1, 77.55, 30.7399)" width="4.1" xlink:href="#shape1"/>
    <use height="4.1" transform="matrix(1.1, 1.1, -1.1, 1.1, 35.3, 73.2399)" width="4.1" xlink:href="#shape1"/>
    <use height="4.1" transform="matrix(-1.0999, 1.1001, -1.1001, -1.0999, 82.0599, 77.7495)" width="4.1" xlink:href="#shape1"/>
    <use height="4.1" transform="matrix(-1.0999, 1.1001, -1.1001, -1.0999, 39.8099, 35.4995)" width="4.1" xlink:href="#shape1"/>
    <use height="17.25" transform="matrix(0.6717, 0.0, 0.0, 1.0, 36.5896, 46.45)" width="54.5" xlink:href="#text0"/>
  </g>
  <defs>
    <g id="shape0" transform="matrix(1.0, 0.0, 0.0, 1.0, 0.75, 0.75)">
      <path d="M89.7 56.3 Q89.7 70.2 79.85 79.95 70.05 89.8 56.1 89.85 42.15 89.8 32.35 79.95 22.6 70.2 22.65 56.3 22.6 45.35 28.6 37.0 30.2 34.65 32.35 32.55 42.15 22.7 56.1 22.7 70.05 22.7 79.85 32.55 82.0 34.65 83.65 37.0 89.7 45.35 89.7 56.3 M74.0 37.0 Q66.55 30.05 56.1 30.15 45.7 30.05 38.3 37.0 L37.6 37.65 Q29.9 45.35 29.95 56.3 29.9 67.1 37.6 74.8 45.2 82.45 56.1 82.45 67.05 82.45 74.7 74.8 82.35 67.1 82.4 56.3 82.35 45.35 74.7 37.65 L74.0 37.0" fill="#484e73" fill-rule="evenodd" stroke="none"/>
      <path d="M56.1 32.4 Q64.2 32.4 70.35 37.0 L73.1 39.4 Q80.0 46.35 80.0 56.3 80.0 66.1 73.1 73.1 66.1 80.15 56.1 80.15 46.15 80.15 39.2 73.1 32.25 66.1 32.35 56.3 32.25 46.35 39.2 39.4 L41.95 37.0 Q48.05 32.4 56.1 32.4" fill="#222535" fill-rule="evenodd" stroke="none"/>
      <path d="M42.75 22.95 L39.65 0.0 72.55 0.0 69.6 22.95 Q63.35 20.45 56.1 20.4 48.9 20.4 42.75 22.95 M70.15 23.15 L84.2 4.9 107.4 28.1 89.1 42.15 Q88.0 39.45 86.4 37.0 84.35 33.7 81.45 30.8 76.35 25.7 70.15 23.15 M89.45 42.8 L112.4 39.85 112.4 72.65 89.45 69.65 Q91.95 63.45 91.95 56.2 91.95 49.0 89.45 42.8 M89.1 70.35 L107.4 84.4 84.2 107.7 70.15 89.3 Q76.35 86.65 81.45 81.55 86.5 76.45 89.1 70.35 M69.6 89.55 L72.55 112.4 39.65 112.4 42.75 89.55 Q48.9 91.95 56.1 91.95 63.35 91.95 69.6 89.55 M42.05 89.3 L27.9 107.6 4.7 84.3 23.1 70.25 Q25.65 76.4 30.75 81.55 35.85 86.65 42.05 89.3 M22.85 69.65 L0.0 72.65 0.0 39.85 22.85 42.8 Q20.35 49.0 20.35 56.2 20.35 63.45 22.85 69.65 M23.1 42.25 L4.8 28.2 28.0 4.9 42.05 23.15 Q35.85 25.75 30.75 30.8 27.85 33.7 25.8 37.0 24.2 39.5 23.1 42.25" fill="url(#gradient0)" fill-rule="evenodd" stroke="none"/>
      <path d="M69.6 22.95 L70.15 23.15 Q76.35 25.7 81.45 30.8 84.35 33.7 86.4 37.0 88.0 39.45 89.1 42.15 L89.45 42.8 Q91.95 49.0 91.95 56.2 91.95 63.45 89.45 69.65 L89.1 70.35 Q86.5 76.45 81.45 81.55 76.35 86.65 70.15 89.3 L69.6 89.55 Q63.35 91.95 56.1 91.95 48.9 91.95 42.75 89.55 L42.05 89.3 Q35.85 86.65 30.75 81.55 25.65 76.4 23.1 70.25 L22.85 69.65 Q20.35 63.45 20.35 56.2 20.35 49.0 22.85 42.8 L23.1 42.25 Q24.2 39.5 25.8 37.0 27.85 33.7 30.75 30.8 35.85 25.75 42.05 23.15 L42.75 22.95 Q48.9 20.4 56.1 20.4 63.35 20.45 69.6 22.95 M89.7 56.3 Q89.7 45.35 83.65 37.0 82.0 34.65 79.85 32.55 70.05 22.7 56.1 22.7 42.15 22.7 32.35 32.55 30.2 34.65 28.6 37.0 22.6 45.35 22.65 56.3 22.6 70.2 32.35 79.95 42.15 89.8 56.1 89.85 70.05 89.8 79.85 79.95 89.7 70.2 89.7 56.3" fill="url(#gradient1)" fill-rule="evenodd" stroke="none"/>
      <path d="M56.1 32.4 Q48.05 32.4 41.95 37.0 L39.2 39.4 Q32.25 46.35 32.35 56.3 32.25 66.1 39.2 73.1 46.15 80.15 56.1 80.15 66.1 80.15 73.1 73.1 80.0 66.1 80.0 56.3 80.0 46.35 73.1 39.4 L70.35 37.0 Q64.2 32.4 56.1 32.4 M74.0 37.0 L74.7 37.65 Q82.35 45.35 82.4 56.3 82.35 67.1 74.7 74.8 67.05 82.45 56.1 82.45 45.2 82.45 37.6 74.8 29.9 67.1 29.95 56.3 29.9 45.35 37.6 37.65 L38.3 37.0 Q45.7 30.05 56.1 30.15 66.55 30.05 74.0 37.0" fill="url(#gradient2)" fill-rule="evenodd" stroke="none"/>
      <path d="M69.6 22.95 L70.15 23.15 M89.1 42.15 L89.45 42.8 M89.45 69.65 L89.1 70.35 M70.15 89.3 L69.6 89.55 M42.75 89.55 L42.05 89.3 M23.1 70.25 L22.85 69.65 M22.85 42.8 L23.1 42.25 M42.05 23.15 L42.75 22.95" fill="none" stroke="#16171f" stroke-linecap="round" stroke-linejoin="round" stroke-width="0.5"/>
      <path d="M42.75 22.95 Q48.9 20.4 56.1 20.4 63.35 20.45 69.6 22.95 M70.15 23.15 Q76.35 25.7 81.45 30.8 84.35 33.7 86.4 37.0 88.0 39.45 89.1 42.15 M89.45 42.8 Q91.95 49.0 91.95 56.2 91.95 63.45 89.45 69.65 M89.1 70.35 Q86.5 76.45 81.45 81.55 76.35 86.65 70.15 89.3 M23.1 42.25 Q24.2 39.5 25.8 37.0 27.85 33.7 30.75 30.8 35.85 25.75 42.05 23.15 M42.05 89.3 Q35.85 86.65 30.75 81.55 25.65 76.4 23.1 70.25 M22.85 69.65 Q20.35 63.45 20.35 56.2 20.35 49.0 22.85 42.8 M69.6 89.55 Q63.35 91.95 56.1 91.95 48.9 91.95 42.75 89.55" fill="none" stroke="#151d2b" stroke-linecap="round" stroke-linejoin="round" stroke-width="0.25"/>
      <path d="M72.55 0.0 L69.6 22.95 M107.4 28.1 L89.1 42.15 M112.4 39.85 L112.4 72.65 89.45 69.65 M89.1 70.35 L107.4 84.4 84.2 107.7 70.15 89.3 M69.6 89.55 L72.55 112.4 39.65 112.4 M42.05 89.3 L27.9 107.6 M22.85 69.65 L0.0 72.65" fill="none" stroke="#151d2b" stroke-linecap="round" stroke-linejoin="round" stroke-width="1.5"/>
      <path d="M42.75 22.95 L39.65 0.0 72.55 0.0 M70.15 23.15 L84.2 4.9 M89.45 42.8 L112.4 39.85 M39.65 112.4 L42.75 89.55 M4.7 84.3 L23.1 70.25 M0.0 72.65 L0.0 39.85 22.85 42.8 M4.8 28.2 L28.0 4.9" fill="none" stroke="#9baad5" stroke-linecap="round" stroke-linejoin="round" stroke-width="1.5"/>
      <path d="M23.1 42.25 L4.8 28.2 M28.0 4.9 L42.05 23.15" fill="none" stroke="#7385a8" stroke-linecap="round" stroke-linejoin="round" stroke-width="1.5"/>
      <path d="M84.2 4.9 L107.4 28.1 M27.9 107.6 L4.7 84.3" fill="none" stroke="#607699" stroke-linecap="round" stroke-linejoin="round" stroke-width="1.5"/>
    </g>
    <radialGradient cx="0" cy="0" gradientTransform="matrix(0.0659, 0.0, 0.0, 0.0659, 56.2, 56.6)" gradientUnits="userSpaceOnUse" id="gradient0" r="819.2" spreadMethod="pad">
      <stop offset="0.43529411764705883" stop-color="#303550"/>
      <stop offset="1.0" stop-color="#4f567d"/>
    </radialGradient>
    <linearGradient gradientTransform="matrix(0.0073, 0.0076, -3.29, 3.1597, 694.95, -556.8)" gradientUnits="userSpaceOnUse" id="gradient1" spreadMethod="pad" x1="-819.2" x2="819.2">
      <stop offset="0.0" stop-color="#6f77a4"/>
      <stop offset="1.0" stop-color="#1f253d"/>
    </linearGradient>
    <linearGradient gradientTransform="matrix(-0.007, -0.0063, 3.0609, -3.3822, -545.3, 719.8)" gradientUnits="userSpaceOnUse" id="gradient2" spreadMethod="pad" x1="-819.2" x2="819.2">
      <stop offset="0.0" stop-color="#747ca7"/>
      <stop offset="1.0" stop-color="#1f253d"/>
    </linearGradient>
    <g id="shape1" transform="matrix(1.0, 0.0, 0.0, 1.0, 2.05, 2.05)">
      <path d="M1.25 -1.3 Q1.8 -0.75 1.8 0.0 1.8 0.75 1.25 1.25 0.75 1.8 0.0 1.8 -0.75 1.8 -1.3 1.25 -1.8 0.75 -1.8 0.0 -1.8 -0.75 -1.3 -1.3 -0.75 -1.8 0.0 -1.8 0.75 -1.8 1.25 -1.3" fill="url(#gradient3)" fill-rule="evenodd" stroke="none"/>
      <path d="M1.25 -1.3 Q1.8 -0.75 1.8 0.0 1.8 0.75 1.25 1.25 0.75 1.8 0.0 1.8 -0.75 1.8 -1.3 1.25 -1.8 0.75 -1.8 0.0 -1.8 -0.75 -1.3 -1.3 -0.75 -1.8 0.0 -1.8 0.75 -1.8 1.25 -1.3 Z" fill="none" stroke="#253453" stroke-linecap="round" stroke-linejoin="round" stroke-width="0.5"/>
    </g>
    <radialGradient cx="0" cy="0" gradientTransform="matrix(0.0022, 0.0, 0.0, 0.0022, 0.0, 0.0)" gradientUnits="userSpaceOnUse" id="gradient3" r="819.2" spreadMethod="pad">
      <stop offset="0.0" stop-color="#66688e"/>
      <stop offset="1.0" stop-color="#303b5c"/>
    </radialGradient>
    <g id="text0" transform="matrix(1.0, 0.0, 0.0, 1.0, -1.25, -6.1)">
      <g transform="matrix(1.0, 0.0, 0.0, 1.0, 0.0, 0.0)">
        <use fill="#ffffff" height="17.25" transform="matrix(0.3711, 0.0, 0.0, 0.3711, 0.0, 22.0)" width="54.5" xlink:href="#font_A-OTF____Pro_B__0"/>
        <use fill="#ffffff" height="17.25" transform="matrix(0.3711, 0.0, 0.0, 0.3711, 19.0, 22.0)" width="54.5" xlink:href="#font_A-OTF____Pro_B__1"/>
        <use fill="#ffffff" height="17.25" transform="matrix(0.3711, 0.0, 0.0, 0.3711, 38.0, 22.0)" width="54.5" xlink:href="#font_A-OTF____Pro_B__2"/>
      </g>
    </g>
    <g id="font_A-OTF____Pro_B__0">
      <path d="M12.4 -36.15 L12.5 -42.1 21.25 -42.1 21.05 -36.15 35.5 -36.15 35.5 -28.65 20.75 -28.65 20.5 -21.8 27.15 -22.1 30.95 -22.7 33.25 -23.5 36.1 -16.65 33.9 -15.7 31.1 -14.95 26.85 -14.5 20.35 -14.25 Q20.2 -11.25 20.4 -9.4 20.6 -7.5 21.45 -6.55 22.3 -5.55 24.15 -5.2 L29.1 -4.9 34.55 -5.3 Q36.85 -5.75 38.1 -7.35 39.35 -8.9 39.4 -12.15 39.35 -14.5 38.95 -16.4 L37.95 -19.8 36.9 -22.3 44.35 -24.4 45.7 -21.65 Q46.55 -19.8 47.2 -17.15 47.85 -14.5 47.9 -11.2 47.85 -6.3 46.2 -3.4 44.55 -0.55 41.8 0.85 39.05 2.25 35.65 2.65 L28.7 3.05 21.5 2.45 Q18.4 1.85 16.3 0.25 14.15 -1.4 13.1 -4.4 12.0 -7.45 12.0 -12.25 L12.0 -14.25 3.45 -14.25 3.45 -21.8 12.15 -21.8 12.25 -28.65 4.25 -28.65 4.25 -36.15 12.4 -36.15" fill-rule="evenodd" stroke="none"/>
    </g>
    <g id="font_A-OTF____Pro_B__1">
      <path d="M48.9 -35.4 L44.15 -34.15 43.3 -37.3 42.35 -39.85 41.15 -42.6 45.8 -43.55 47.0 -40.95 48.15 -37.9 48.9 -35.4 M41.55 -34.45 L36.6 -33.1 36.2 -34.9 35.25 -38.3 33.85 -42.05 38.5 -42.95 39.75 -40.15 40.8 -37.1 41.55 -34.45 M16.35 -41.8 L25.15 -41.8 25.0 -39.65 24.9 -36.65 24.95 -33.5 25.35 -29.95 Q25.65 -28.25 26.3 -27.2 L30.95 -28.6 35.75 -29.7 39.9 -30.5 42.7 -30.95 44.0 -22.4 37.15 -21.55 29.4 -20.0 Q25.45 -19.05 22.15 -17.65 18.8 -16.3 16.75 -14.45 14.7 -12.6 14.65 -10.25 14.7 -8.4 15.9 -7.35 17.1 -6.3 19.1 -5.85 L23.45 -5.3 28.2 -5.2 36.9 -5.4 45.5 -6.15 45.5 2.15 42.2 2.4 37.85 2.6 31.7 2.7 23.55 2.5 18.0 1.9 Q15.8 1.5 14.35 0.95 12.85 0.45 11.7 -0.2 9.1 -1.55 7.5 -3.95 5.9 -6.4 5.85 -9.45 5.9 -12.85 7.3 -15.35 8.75 -17.9 10.85 -19.65 L15.05 -22.6 18.75 -24.45 17.75 -26.4 Q17.3 -27.45 16.95 -29.3 16.65 -31.1 16.45 -34.1 L16.35 -41.8" fill-rule="evenodd" stroke="none"/>
    </g>
    <g id="font_A-OTF____Pro_B__2">
      <path d="M26.4 -3.55 L26.4 -3.55 26.5 -4.15 26.55 -4.75 26.4 -5.9 Q26.2 -6.85 25.4 -7.7 24.6 -8.6 22.85 -8.65 21.35 -8.6 20.45 -7.95 19.6 -7.3 19.55 -6.15 19.6 -4.85 20.55 -4.25 21.5 -3.65 22.65 -3.5 L24.45 -3.35 25.35 -3.4 26.4 -3.55 M7.45 -41.2 L37.85 -41.2 37.85 -34.8 33.3 -30.95 30.65 -28.7 29.15 -27.45 28.05 -26.5 29.6 -26.9 32.6 -27.1 Q36.5 -27.1 39.35 -25.8 42.25 -24.5 44.1 -22.4 45.95 -20.25 46.9 -17.7 47.8 -15.15 47.8 -12.55 47.8 -8.25 45.6 -4.75 43.35 -1.25 38.7 0.9 34.0 3.0 26.65 3.05 21.7 3.0 18.95 1.75 16.15 0.5 14.9 -1.2 13.65 -2.95 13.35 -4.35 13.05 -5.8 13.1 -6.3 13.15 -9.0 14.65 -10.85 16.15 -12.75 18.45 -13.7 20.75 -14.7 23.25 -14.7 26.35 -14.65 28.4 -13.45 30.45 -12.2 31.45 -10.3 32.5 -8.35 32.5 -6.25 L32.45 -5.4 32.35 -4.5 Q35.6 -5.5 37.35 -7.35 39.1 -9.25 39.15 -12.2 L38.7 -14.75 Q38.25 -16.15 37.1 -17.4 35.95 -18.65 33.85 -19.45 31.75 -20.25 28.55 -20.25 25.5 -20.25 23.0 -19.5 20.5 -18.75 18.1 -17.1 15.7 -15.5 13.0 -12.9 L6.75 -6.75 1.7 -13.5 4.1 -15.35 6.8 -17.55 10.7 -20.85 16.6 -26.0 25.4 -33.65 7.45 -33.3 7.45 -41.2" fill-rule="evenodd" stroke="none"/>
    </g>
  </defs>
</svg>
