<?xml version="1.0" encoding="UTF-8" standalone="no"?>
<svg xmlns:xlink="http://www.w3.org/1999/xlink" height="65.25px" width="74.3px" xmlns="http://www.w3.org/2000/svg">
  <g transform="matrix(1.0, 0.0, 0.0, 1.0, 46.85, 33.4)">
    <use height="4.5" transform="matrix(0.9153, 0.0, 0.0, 1.1882, -27.5713, 26.5264)" width="42.0" xlink:href="#sprite0"/>
    <use height="18.9" transform="matrix(-1.0, 0.0, 0.0, 1.0, -23.9, -0.15)" width="21.15" xlink:href="#sprite1"/>
    <use height="17.25" transform="matrix(-0.9971, -0.0486, -0.0486, 0.9971, 5.3967, 13.2868)" width="14.9" xlink:href="#sprite2"/>
    <use height="17.25" transform="matrix(-1.0, 0.0, 0.0, 1.0, -9.85, 13.25)" width="14.95" xlink:href="#sprite3"/>
    <use height="29.15" transform="matrix(-0.8781, 0.4724, 0.4724, 0.8781, -15.2607, -8.6221)" width="20.3" xlink:href="#sprite4"/>
    <use height="23.9" transform="matrix(-0.9476, 0.3121, 0.3121, 0.9476, -22.3088, -26.4654)" width="25.9" xlink:href="#sprite5"/>
    <use height="18.9" transform="matrix(0.4387, -0.8954, 0.8954, 0.4387, -25.8899, 0.451)" width="21.15" xlink:href="#sprite1"/>
  </g>
  <defs>
    <g id="sprite0" transform="matrix(1.0, 0.0, 0.0, 1.0, 21.0, 2.25)">
      <use height="7.5" transform="matrix(0.875, 0.0, 0.0, 0.6, -21.0, -2.25)" width="48.0" xlink:href="#shape0"/>
    </g>
    <g id="shape0" transform="matrix(1.0, 0.0, 0.0, 1.0, 24.0, 3.75)">
      <path d="M24.0 0.0 Q24.0 1.55 16.95 2.65 L0.0 3.75 -17.0 2.65 Q-24.0 1.55 -24.0 0.0 -24.0 -1.55 -17.0 -2.65 L0.0 -3.75 16.95 -2.65 Q24.0 -1.55 24.0 0.0" fill="#000000" fill-opacity="0.29803923" fill-rule="evenodd" stroke="none"/>
    </g>
    <g id="sprite1" transform="matrix(1.0, 0.0, 0.0, 1.0, 10.55, 9.45)">
      <use height="18.9" transform="matrix(1.0, 0.0, 0.0, 1.0, -10.55, -9.45)" width="21.15" xlink:href="#shape1"/>
    </g>
    <g id="shape1" transform="matrix(1.0, 0.0, 0.0, 1.0, 10.55, 9.45)">
      <path d="M-6.7 -9.4 L-6.65 -9.4 -6.6 -9.45 -6.55 -9.4 -6.5 -9.4 -6.45 -9.35 -6.45 -9.3 Q-4.35 -7.35 -1.7 -6.3 L-0.35 -5.7 -0.3 -5.7 -0.25 -5.65 -0.15 -5.55 -0.2 -5.45 -0.2 -4.75 -0.15 -4.7 Q1.85 -2.6 3.1 0.0 L3.5 -0.05 Q4.9 0.0 5.3 1.2 6.6 1.55 7.75 2.5 L8.45 3.3 8.55 3.4 Q10.25 4.9 10.45 7.2 10.85 8.25 10.15 9.25 L9.55 9.4 Q8.85 9.15 8.45 8.55 L7.85 7.7 7.8 7.55 7.2 6.7 7.15 6.5 6.45 5.8 7.3 7.9 7.3 8.5 Q6.1 9.55 5.2 8.3 L4.8 7.85 4.2 6.85 4.0 6.65 Q3.25 4.9 1.75 3.7 L1.7 3.6 Q0.1 4.0 -1.1 2.85 -1.55 2.4 -1.5 1.8 -1.5 1.05 -0.75 0.85 L0.35 1.0 -2.35 -1.3 -2.35 -1.35 Q-3.15 -0.6 -4.05 0.0 L-4.05 0.05 -4.1 0.15 -4.25 0.25 -4.4 0.15 Q-6.45 -1.25 -8.2 -3.1 -9.65 -4.6 -10.45 -6.5 -10.85 -7.55 -9.95 -8.35 -8.65 -9.45 -6.95 -9.45 L-6.7 -9.4 M-6.85 -9.0 L-8.0 -8.8 -9.3 -8.3 -10.0 -7.55 -10.2 -7.25 Q-9.75 -5.35 -8.4 -3.9 L-7.5 -2.9 -4.4 -0.3 -4.2 -0.15 Q-1.75 -1.95 -0.9 -4.1 -0.65 -4.75 -0.55 -5.35 L-0.55 -5.45 Q-3.5 -6.35 -5.95 -8.25 L-6.5 -8.8 -6.7 -9.05 -6.85 -9.0 M-0.2 -5.55 L-0.2 -5.45 -0.2 -5.55 M0.15 -3.85 L-0.3 -4.4 -0.4 -4.3 -0.95 -3.1 -2.1 -1.6 0.05 0.3 1.0 1.15 1.0 1.05 Q1.75 0.35 2.7 0.1 L2.6 -0.1 2.55 -0.3 2.1 -1.1 0.15 -3.85 M9.75 5.7 L9.7 5.65 9.5 5.25 8.7 4.1 8.65 4.1 7.35 2.8 7.4 2.95 6.85 2.4 Q5.95 1.75 4.95 1.5 4.1 1.25 3.2 1.5 L1.8 1.55 1.7 1.55 1.25 1.55 1.05 1.55 1.0 1.6 0.95 1.55 -0.2 1.35 Q-1.15 1.1 -1.1 1.95 L-0.85 2.65 -0.8 2.7 -0.5 3.0 2.15 3.2 2.2 3.2 2.25 3.25 2.25 3.3 2.25 3.4 2.2 3.45 2.15 3.5 Q3.2 4.45 3.85 5.7 4.7 7.35 6.05 8.45 L6.1 8.5 6.9 8.35 7.0 8.1 7.0 8.05 6.9 7.8 6.85 7.7 6.8 7.7 6.8 7.65 6.3 6.45 6.1 6.0 5.85 5.15 5.95 4.9 6.0 4.65 6.05 4.85 6.1 4.9 6.1 4.95 6.25 5.35 6.35 5.3 6.45 5.35 Q7.8 6.6 8.65 8.2 L8.75 8.35 8.8 8.45 9.7 9.05 9.95 8.85 10.05 8.65 10.1 7.7 Q9.9 6.65 8.9 5.4 L8.5 4.9 8.5 4.85 8.55 4.85 8.6 4.8 9.3 5.4 9.85 6.15 9.75 5.7 M2.95 0.4 L2.85 0.4 Q2.0 0.6 1.4 1.25 L1.45 1.25 1.45 1.2 2.5 1.15 2.9 1.05 2.85 1.1 3.55 1.0 3.8 0.95 4.8 1.1 4.75 1.0 4.75 0.95 Q4.25 0.5 3.55 0.45 L3.15 0.4 2.95 0.4 M4.0 0.4 L4.3 0.55 3.8 0.35 4.0 0.4" fill="#000000" fill-rule="evenodd" stroke="none"/>
      <path d="M-6.5 -8.8 L-6.8 -9.0 -6.85 -9.0 -6.7 -9.05 -6.5 -8.8" fill="#4d0000" fill-rule="evenodd" stroke="none"/>
      <path d="M-6.5 -8.8 L-5.95 -8.25 Q-3.5 -6.35 -0.55 -5.45 L-0.55 -5.35 Q-0.65 -4.75 -0.9 -4.1 -1.75 -1.95 -4.2 -0.15 L-4.4 -0.3 -7.5 -2.9 -8.4 -3.9 Q-9.75 -5.35 -10.2 -7.25 L-10.0 -7.55 -9.3 -8.3 -8.0 -8.8 -6.85 -9.0 -6.8 -9.0 -6.5 -8.8" fill="#a10095" fill-rule="evenodd" stroke="none"/>
      <path d="M0.15 -3.85 L0.65 -3.25 Q-0.55 -1.55 0.05 0.3 L-2.1 -1.6 -0.95 -3.1 -0.4 -4.3 -0.3 -4.4 0.15 -3.85" fill="#ce66f9" fill-rule="evenodd" stroke="none"/>
      <path d="M0.65 -3.25 L0.15 -3.85 2.1 -1.1 0.65 -3.25" fill="#550022" fill-rule="evenodd" stroke="none"/>
      <path d="M6.1 4.95 L6.1 4.9 6.05 4.85 6.0 4.65 5.95 4.9 5.85 5.15 6.1 6.0 6.3 6.45 6.8 7.65 6.8 7.7 6.85 7.7 6.9 7.8 7.0 8.05 7.0 8.1 6.9 8.35 6.1 8.5 6.05 8.45 Q4.7 7.35 3.85 5.7 3.2 4.45 2.15 3.5 L2.2 3.45 2.25 3.4 2.25 3.3 2.25 3.25 2.2 3.2 2.15 3.2 -0.5 3.0 -0.8 2.7 -0.85 2.65 -1.1 1.95 Q-1.15 1.1 -0.2 1.35 L0.95 1.55 1.0 1.6 1.05 1.55 1.25 1.55 1.7 1.55 1.8 1.55 3.2 1.5 Q4.1 1.25 4.95 1.5 5.95 1.75 6.85 2.4 L7.4 2.95 7.35 2.8 8.65 4.1 8.7 4.1 9.5 5.25 9.7 5.65 9.75 5.7 9.3 5.4 8.6 4.8 8.55 4.85 8.5 4.85 8.5 4.9 8.9 5.4 Q9.9 6.65 10.1 7.7 L10.05 8.65 10.1 8.15 9.7 8.45 Q8.9 8.55 7.55 6.3 7.1 5.5 6.1 4.95 M2.9 1.05 L2.5 1.15 1.45 1.2 1.45 1.25 1.4 1.25 Q2.0 0.6 2.85 0.4 L2.95 0.4 3.4 0.75 2.9 1.05" fill="#ffffff" fill-rule="evenodd" stroke="none"/>
      <path d="M0.05 0.3 Q-0.55 -1.55 0.65 -3.25 L2.1 -1.1 2.55 -0.3 2.6 -0.1 2.7 0.1 Q1.75 0.35 1.0 1.05 L1.0 1.15 0.05 0.3" fill="#d885fd" fill-rule="evenodd" stroke="none"/>
      <path d="M6.1 4.95 Q7.1 5.5 7.55 6.3 8.9 8.55 9.7 8.45 L10.1 8.15 10.05 8.65 9.95 8.85 9.7 9.05 8.8 8.45 8.75 8.35 8.65 8.2 Q7.8 6.6 6.45 5.35 L6.35 5.3 6.25 5.35 6.1 4.95 M9.3 5.4 L9.75 5.7 9.85 6.15 9.3 5.4 M2.9 1.05 L3.4 0.75 2.95 0.4 3.15 0.4 3.55 0.45 Q4.25 0.5 4.75 0.95 L4.75 1.0 4.8 1.1 3.8 0.95 3.55 1.0 2.85 1.1 2.9 1.05" fill="#dedede" fill-rule="evenodd" stroke="none"/>
    </g>
    <g id="sprite2" transform="matrix(1.0, 0.0, 0.0, 1.0, 7.45, 8.6)">
      <use height="17.25" transform="matrix(1.0, 0.0, 0.0, 1.0, -7.45, -8.6)" width="14.9" xlink:href="#shape2"/>
    </g>
    <g id="shape2" transform="matrix(1.0, 0.0, 0.0, 1.0, 7.45, 8.6)">
      <path d="M-7.45 7.55 Q-7.45 6.0 -6.5 4.65 -5.15 2.85 -2.95 2.35 L-2.7 2.25 Q-0.7 2.25 0.65 3.5 0.2 2.55 0.2 1.35 L0.25 -1.6 Q0.2 -4.7 1.5 -7.5 L1.55 -7.75 2.0 -8.45 2.1 -8.55 2.15 -8.6 2.2 -8.6 2.25 -8.55 2.3 -8.5 4.6 -6.45 4.65 -6.4 Q6.2 -5.4 7.35 -3.95 L7.4 -3.85 7.45 -3.75 7.4 -3.7 7.35 -3.65 5.55 -1.65 Q4.8 -0.4 4.55 1.2 4.1 3.9 4.45 6.65 L4.6 7.15 4.7 7.4 4.7 7.5 4.65 7.55 4.55 7.6 4.5 7.65 4.45 7.55 4.4 7.5 4.25 7.6 3.4 8.0 -3.15 8.55 -4.25 8.45 -5.1 8.3 -5.2 8.3 -5.35 8.3 -5.4 8.25 -5.4 8.2 -6.7 7.85 -6.8 7.85 -6.8 7.8 -7.3 7.65 -7.35 7.65 -7.45 7.65 -7.45 7.6 -7.45 7.55 M2.25 7.8 L4.25 7.2 Q3.8 6.3 3.85 5.2 3.9 2.25 4.65 -0.5 4.95 -1.5 5.55 -2.35 L6.2 -3.25 6.8 -3.75 7.0 -3.85 6.35 -4.5 5.35 -5.45 4.7 -5.95 4.65 -6.0 Q3.3 -7.0 2.2 -8.2 1.2 -6.15 0.85 -3.9 L0.75 -3.0 0.6 -0.85 0.6 -0.75 0.6 -0.7 0.65 0.4 Q0.7 2.0 1.05 3.55 L1.15 3.8 1.2 3.9 1.2 3.95 1.15 4.05 1.2 4.1 1.25 4.15 1.25 4.2 1.25 4.25 1.2 4.25 1.1 4.3 1.0 4.35 Q-0.5 2.65 -2.7 2.75 -3.55 2.8 -4.3 3.2 L-4.75 3.5 Q-6.05 4.3 -6.7 5.7 L-7.2 7.2 -7.25 7.35 -6.85 7.45 -6.8 7.5 -6.75 7.1 -6.35 6.05 -5.75 5.15 -5.35 4.8 -5.3 4.7 -5.65 5.3 -5.75 5.35 -5.75 5.4 -6.55 7.55 -5.4 7.85 -5.3 7.85 -5.05 7.0 -4.95 6.85 Q-4.6 6.1 -3.85 5.55 L-3.8 5.55 -3.65 5.4 Q-3.6 5.75 -4.0 6.15 L-4.75 7.2 -5.0 7.9 -0.95 8.2 2.0 7.85 2.25 7.8" fill="#000000" fill-rule="evenodd" stroke="none"/>
      <path d="M-4.0 6.15 Q-3.6 5.75 -3.65 5.4 L-3.8 5.55 -3.8 5.5 -3.85 5.55 Q-4.6 6.1 -4.95 6.85 L-5.05 7.0 -5.15 7.2 Q-6.1 7.8 -6.15 7.35 -6.25 6.9 -5.65 5.3 L-5.3 4.7 -5.35 4.8 -5.3 4.7 -5.6 4.95 -5.75 5.15 -6.35 6.05 -6.65 6.0 -7.0 6.7 Q-6.1 4.5 -4.75 3.5 L-4.3 3.2 Q-3.55 2.8 -2.7 2.75 -0.5 2.65 1.0 4.35 L1.1 4.3 1.2 4.25 1.25 4.3 1.25 4.25 1.25 4.2 1.25 4.15 1.2 4.1 1.2 3.95 1.2 3.9 1.15 3.8 Q0.75 2.05 0.65 0.4 L0.6 -0.7 0.6 -0.75 Q0.65 -0.55 1.4 -0.2 L3.2 0.4 Q2.9 1.75 3.05 6.2 1.25 7.4 -1.45 7.75 -4.35 8.15 -4.0 6.15 M0.85 -3.9 Q1.2 -6.15 2.2 -8.2 3.3 -7.0 4.65 -6.0 L4.7 -5.95 5.35 -5.45 6.35 -4.5 7.0 -3.85 6.8 -3.75 0.85 -3.9" fill="#d885fd" fill-rule="evenodd" stroke="none"/>
      <path d="M6.8 -3.75 L6.2 -3.25 5.55 -2.35 Q4.95 -1.5 4.65 -0.5 3.9 2.25 3.85 5.2 3.8 6.3 4.25 7.2 L2.25 7.8 -0.95 8.2 -5.0 7.9 -4.75 7.2 -4.0 6.15 Q-4.35 8.15 -1.45 7.75 1.25 7.4 3.05 6.2 2.9 1.75 3.2 0.4 L1.4 -0.2 Q0.65 -0.55 0.6 -0.75 L0.6 -0.85 0.75 -3.0 0.85 -3.9 6.8 -3.75 M-3.8 5.55 L-3.85 5.55 -3.8 5.5 -3.8 5.55 M-5.4 7.85 L-6.55 7.55 -5.75 5.4 -5.75 5.35 -5.65 5.3 Q-6.25 6.9 -6.15 7.35 -6.1 7.8 -5.15 7.2 L-5.4 7.85 M-6.35 6.05 L-6.75 7.1 -6.85 7.45 -7.25 7.35 -7.2 7.2 -7.0 6.7 -6.65 6.0 -6.35 6.05" fill="#ce66f9" fill-rule="evenodd" stroke="none"/>
      <path d="M5.55 -1.65 Q3.8 1.6 4.6 7.15 L4.45 6.65 Q4.1 3.9 4.55 1.2 4.8 -0.4 5.55 -1.65 M4.45 7.55 L4.25 7.6 4.4 7.5 4.45 7.55 M-4.25 8.45 L-5.2 8.3 -5.1 8.3 -4.25 8.45 M-5.35 8.3 L-7.35 7.65 -7.3 7.65 -6.8 7.8 -6.8 7.85 -6.7 7.85 -5.4 8.2 -5.4 8.25 -5.35 8.3 M-7.45 7.6 L-7.45 7.55 -7.45 7.6 M2.25 7.8 L2.0 7.85 -0.95 8.2 2.25 7.8 M-5.05 7.0 L-5.3 7.85 -5.4 7.85 -5.15 7.2 -5.05 7.0 M-5.35 4.8 L-5.75 5.15 -5.6 4.95 -5.3 4.7 -5.35 4.8 M-6.75 7.1 L-6.8 7.5 -6.85 7.45 -6.75 7.1 M-7.2 7.2 L-6.7 5.7 Q-6.05 4.3 -4.75 3.5 -6.1 4.5 -7.0 6.7 L-7.2 7.2 M1.2 4.25 L1.25 4.25 1.25 4.3 1.2 4.25 M1.2 4.1 L1.15 4.05 1.2 3.95 1.2 4.1 M1.15 3.8 L1.05 3.55 Q0.7 2.0 0.65 0.4 0.75 2.05 1.15 3.8" fill="#550022" fill-rule="evenodd" stroke="none"/>
    </g>
    <g id="sprite3" transform="matrix(1.0, 0.0, 0.0, 1.0, 7.45, 8.6)">
      <use height="17.25" transform="matrix(1.0, 0.0, 0.0, 1.0, -7.45, -8.6)" width="14.95" xlink:href="#shape3"/>
    </g>
    <g id="shape3" transform="matrix(1.0, 0.0, 0.0, 1.0, 7.45, 8.6)">
      <path d="M-5.55 -1.65 Q-6.25 -2.8 -7.3 -3.65 L-7.35 -3.65 -7.4 -3.7 -7.45 -3.75 -7.4 -3.85 -7.3 -3.95 -4.65 -6.4 -4.6 -6.45 -2.3 -8.5 -2.25 -8.55 -2.2 -8.6 -2.15 -8.6 -2.1 -8.55 -2.0 -8.45 -1.55 -7.75 -1.5 -7.5 Q-0.2 -4.7 -0.25 -1.6 L-0.2 1.35 Q-0.2 2.55 -0.65 3.5 0.7 2.25 2.7 2.25 L2.95 2.35 Q5.15 2.85 6.5 4.65 7.45 6.0 7.45 7.55 L7.45 7.6 7.45 7.65 7.4 7.65 7.3 7.65 6.85 7.8 6.8 7.85 6.7 7.85 5.4 8.2 5.4 8.25 5.4 8.3 5.2 8.3 5.15 8.3 4.25 8.45 3.15 8.55 -3.4 8.0 -4.2 7.6 -4.35 7.5 -4.4 7.55 -4.5 7.65 -4.55 7.6 -4.65 7.55 -4.7 7.5 -4.7 7.4 -4.55 7.15 -4.45 6.65 Q-4.1 3.9 -4.55 1.2 -4.8 -0.4 -5.55 -1.65 M-0.85 -3.9 Q-1.2 -6.15 -2.15 -8.2 L-4.65 -6.0 -4.7 -5.95 -5.3 -5.45 -6.35 -4.5 -7.0 -3.85 -6.75 -3.75 -6.2 -3.25 -5.55 -2.35 Q-4.95 -1.5 -4.65 -0.5 -3.9 2.25 -3.85 5.2 -3.8 6.3 -4.2 7.2 L-2.2 7.8 -2.0 7.85 1.0 8.2 5.05 7.9 4.75 7.2 4.0 6.15 Q3.6 5.75 3.65 5.4 L3.85 5.55 3.9 5.55 5.0 6.85 5.05 7.0 5.35 7.85 5.45 7.85 6.6 7.55 5.75 5.4 5.75 5.35 5.7 5.3 5.3 4.7 5.4 4.8 5.75 5.15 6.4 6.05 6.75 7.1 6.85 7.5 6.9 7.45 7.25 7.35 7.2 7.2 6.7 5.7 Q6.05 4.3 4.75 3.5 L4.3 3.2 Q3.55 2.8 2.7 2.75 0.5 2.65 -1.0 4.35 L-1.1 4.3 -1.2 4.25 -1.25 4.2 -1.25 4.15 -1.2 4.1 -1.1 4.05 -1.15 3.95 -1.2 3.9 -1.15 3.8 -1.05 3.55 -0.6 0.4 -0.6 -0.7 -0.6 -0.75 -0.6 -0.85 -0.75 -3.0 -0.85 -3.9" fill="#000000" fill-rule="evenodd" stroke="none"/>
      <path d="M-6.75 -3.75 L-7.0 -3.85 -6.35 -4.5 -5.3 -5.45 -4.7 -5.95 -4.65 -6.0 -2.15 -8.2 Q-1.2 -6.15 -0.85 -3.9 L-6.75 -3.75 M-0.6 -0.75 L-0.6 -0.7 -0.6 0.4 -1.15 3.8 -1.2 3.9 -1.15 3.95 -1.2 4.1 -1.25 4.15 -1.25 4.2 -1.2 4.25 -1.1 4.3 -1.0 4.35 Q0.5 2.65 2.7 2.75 3.55 2.8 4.3 3.2 L4.75 3.5 Q6.1 4.5 7.0 6.7 L6.65 6.0 6.4 6.05 5.75 5.15 5.6 4.95 5.35 4.7 5.4 4.8 5.3 4.7 5.7 5.3 Q6.25 6.9 6.2 7.35 6.1 7.8 5.15 7.2 L5.05 7.0 5.0 6.85 3.9 5.55 3.85 5.5 3.85 5.55 3.65 5.4 Q3.6 5.75 4.0 6.15 4.35 8.15 1.5 7.75 -1.25 7.4 -3.05 6.2 -2.9 1.75 -3.15 0.4 L-1.4 -0.2 Q-0.65 -0.55 -0.6 -0.75 M-1.2 4.25 L-1.25 4.3 -1.2 4.25" fill="#d885fd" fill-rule="evenodd" stroke="none"/>
      <path d="M-0.85 -3.9 L-0.75 -3.0 -0.6 -0.85 -0.6 -0.75 Q-0.65 -0.55 -1.4 -0.2 L-3.15 0.4 Q-2.9 1.75 -3.05 6.2 -1.25 7.4 1.5 7.75 4.35 8.15 4.0 6.15 L4.75 7.2 5.05 7.9 1.0 8.2 -2.2 7.8 -4.2 7.2 Q-3.8 6.3 -3.85 5.2 -3.9 2.25 -4.65 -0.5 -4.95 -1.5 -5.55 -2.35 L-6.2 -3.25 -6.75 -3.75 -0.85 -3.9 M7.2 7.2 L7.25 7.35 6.9 7.45 6.75 7.1 6.4 6.05 6.65 6.0 7.0 6.7 7.2 7.2 M5.7 5.3 L5.75 5.35 5.75 5.4 6.6 7.55 5.45 7.85 5.15 7.2 Q6.1 7.8 6.2 7.35 6.25 6.9 5.7 5.3 M3.9 5.55 L3.85 5.55 3.85 5.5 3.9 5.55" fill="#ce66f9" fill-rule="evenodd" stroke="none"/>
      <path d="M-5.55 -1.65 Q-4.8 -0.4 -4.55 1.2 -4.1 3.9 -4.45 6.65 L-4.55 7.15 Q-3.8 1.6 -5.55 -1.65 M-4.4 7.55 L-4.35 7.5 -4.2 7.6 -4.4 7.55 M4.25 8.45 L5.15 8.3 5.2 8.3 4.25 8.45 M5.4 8.3 L5.4 8.25 5.4 8.2 6.7 7.85 6.8 7.85 6.85 7.8 7.3 7.65 7.4 7.65 5.4 8.3 M7.45 7.6 L7.45 7.55 7.5 7.6 7.45 7.6 M-0.6 0.4 L-1.05 3.55 -1.15 3.8 -0.6 0.4 M-1.15 3.95 L-1.1 4.05 -1.2 4.1 -1.15 3.95 M4.75 3.5 Q6.05 4.3 6.7 5.7 L7.2 7.2 7.0 6.7 Q6.1 4.5 4.75 3.5 M6.9 7.45 L6.85 7.5 6.75 7.1 6.9 7.45 M5.75 5.15 L5.4 4.8 5.35 4.7 5.6 4.95 5.75 5.15 M5.45 7.85 L5.35 7.85 5.05 7.0 5.15 7.2 5.45 7.85 M1.0 8.2 L-2.0 7.85 -2.2 7.8 1.0 8.2 M-1.2 4.25 L-1.25 4.3 -1.2 4.25" fill="#550022" fill-rule="evenodd" stroke="none"/>
    </g>
    <g id="sprite4" transform="matrix(1.0, 0.0, 0.0, 1.0, 10.15, 14.55)">
      <use height="29.15" transform="matrix(1.0, 0.0, 0.0, 1.0, -10.15, -14.55)" width="20.3" xlink:href="#shape4"/>
    </g>
    <g id="shape4" transform="matrix(1.0, 0.0, 0.0, 1.0, 10.15, 14.55)">
      <path d="M5.85 -12.05 L6.4 -11.2 6.45 -11.2 6.9 -10.55 6.9 -10.5 6.95 -10.4 7.15 -10.1 7.35 -9.75 7.6 -9.1 9.7 -0.95 9.65 -0.7 9.65 -0.55 9.1 -0.2 9.1 -0.3 8.9 -0.4 7.25 0.5 7.2 0.6 6.45 0.85 5.95 0.95 5.7 0.85 Q6.05 -1.7 5.6 -4.05 4.7 -8.65 0.15 -12.4 0.0 -13.25 0.75 -13.85 L2.85 -14.0 3.15 -13.9 3.8 -13.6 4.0 -13.5 4.55 -13.15 5.0 -12.8 5.85 -12.05" fill="#a10095" fill-rule="evenodd" stroke="none"/>
      <path d="M7.6 -9.1 L7.35 -9.75 7.15 -10.1 6.95 -10.4 6.9 -10.5 6.9 -10.55 6.45 -11.2 6.4 -11.2 5.85 -12.05 Q4.8 -13.4 3.15 -13.9 L2.85 -14.0 0.75 -13.85 -0.2 -13.1 -1.45 -10.75 -1.6 -10.4 -1.8 -10.0 -1.8 -9.95 -1.85 -9.85 -1.95 -9.8 -2.25 -9.2 -2.3 -9.0 -2.4 -8.8 -2.45 -8.75 -2.5 -8.7 -2.95 -7.8 -5.35 -3.55 -6.4 -1.75 -6.45 -1.7 -6.2 -1.55 -5.85 -1.25 -5.8 -1.35 -5.65 -1.35 -5.55 -1.3 -4.55 -0.45 -4.5 -0.4 -4.45 -0.35 Q-3.55 0.0 -2.65 0.45 L-2.6 0.3 -2.55 0.2 -2.5 0.15 -1.5 0.55 -1.45 0.6 -1.05 0.65 -1.0 0.7 -0.95 0.75 0.5 0.95 1.45 1.0 Q2.0 0.6 2.7 0.6 L5.7 0.85 5.95 0.95 6.05 0.95 6.45 0.85 7.2 0.6 7.25 0.5 8.9 -0.4 9.1 -0.3 9.1 -0.2 9.65 -0.55 9.65 -0.7 9.7 -0.95 9.6 -1.45 8.25 -7.2 8.2 -7.3 8.15 -7.35 8.15 -7.4 7.6 -9.1 M8.55 -7.6 L8.6 -7.3 8.6 -7.25 9.7 -3.0 9.9 -2.05 10.1 -0.6 10.15 -0.55 10.15 -0.5 10.1 -0.4 10.1 0.15 9.95 2.0 9.75 3.35 9.7 3.6 9.7 3.65 9.2 6.4 8.35 9.3 7.8 11.2 7.85 11.2 7.85 11.25 7.85 11.3 7.75 11.45 7.55 12.2 7.55 12.3 7.5 12.4 7.5 12.45 7.45 12.55 7.15 12.55 Q3.95 14.65 0.15 14.5 L0.05 14.55 0.0 14.6 -0.2 14.45 -0.35 13.85 -0.4 13.7 -1.0 12.5 -1.15 12.25 -2.15 13.65 -2.25 13.8 Q-2.4 14.25 -2.85 14.3 L-4.05 14.35 -5.5 14.05 Q-7.8 13.65 -9.7 12.4 L-9.8 12.3 -9.9 12.2 Q-10.4 9.35 -9.8 6.5 L-9.45 4.35 -8.95 2.9 Q-8.65 1.4 -7.85 0.05 L-7.7 -0.25 -7.55 -0.45 -7.55 -0.5 -7.45 -0.55 -7.25 -1.1 -7.2 -1.15 -6.8 -1.8 -6.65 -2.05 -6.45 -2.35 -5.5 -4.0 -4.2 -6.35 -3.55 -7.5 -1.25 -11.95 -1.2 -12.05 -0.85 -12.8 -0.65 -13.1 -0.6 -13.15 -0.5 -13.3 -0.4 -13.45 0.0 -13.85 Q0.7 -14.4 1.65 -14.55 4.8 -14.45 6.45 -11.95 7.9 -10.0 8.55 -7.6 M5.6 1.2 L5.4 1.05 4.85 0.95 2.7 1.05 2.15 1.15 1.75 1.3 1.15 2.05 2.0 2.25 2.0 2.2 2.05 2.15 2.05 2.1 2.05 2.05 2.1 1.8 2.15 1.7 2.2 1.7 2.4 1.5 2.6 1.35 5.3 1.45 5.4 1.5 5.55 1.7 5.75 2.2 Q6.0 2.95 5.6 3.8 L5.45 3.9 4.9 4.05 2.4 3.85 2.05 3.5 1.3 3.4 1.35 3.6 1.7 4.25 Q3.65 4.95 5.55 4.25 L5.65 4.2 5.75 4.15 5.8 4.15 6.0 4.05 6.05 4.0 6.15 3.65 Q6.3 2.55 5.85 1.5 L5.75 1.35 5.6 1.2 M7.3 2.85 L7.25 1.05 7.2 1.05 7.15 1.1 6.3 1.3 6.45 1.75 6.6 3.0 6.6 3.05 7.3 2.9 7.3 2.85 M8.6 0.3 L8.55 0.25 8.4 0.4 7.7 0.7 7.65 0.75 7.7 2.3 7.65 2.8 7.75 2.85 8.55 2.6 8.55 2.55 Q8.5 1.65 8.7 0.7 L8.6 0.3 M9.05 0.25 L8.9 2.35 9.5 2.1 9.65 -0.05 9.55 0.0 9.5 0.05 9.4 0.05 9.05 0.15 9.05 0.25 M7.4 11.2 L7.8 9.65 Q8.75 6.9 9.15 4.05 L9.35 3.35 9.45 2.55 8.85 2.7 8.85 2.85 8.8 2.95 7.5 3.25 6.55 3.4 6.35 4.15 6.0 4.45 6.0 4.5 5.95 4.55 5.9 4.55 5.75 4.7 5.4 4.85 4.1 5.05 Q2.65 5.1 1.45 4.45 L1.4 4.4 1.35 4.4 1.1 4.05 0.95 3.65 Q-0.45 3.7 -1.55 3.15 L-1.85 3.35 -3.25 3.05 -3.2 2.9 Q-4.75 2.7 -5.7 1.65 L-5.8 1.85 -5.85 1.9 -5.95 1.95 -6.8 1.5 -7.0 1.35 -7.15 1.2 -7.05 0.9 -7.55 0.4 -7.6 0.35 -8.05 1.2 -8.5 2.7 -8.75 3.7 -8.9 3.95 -9.7 8.1 -9.75 10.15 -9.75 10.55 -9.65 10.55 -9.6 10.6 -7.0 12.3 -4.25 13.05 -3.05 13.25 -2.4 13.4 -2.35 13.35 -2.15 13.05 -0.25 10.0 0.3 9.0 0.85 8.1 1.15 7.65 1.0 8.6 0.1 10.2 0.05 10.3 -0.05 10.55 0.75 9.85 1.9 8.75 2.15 8.7 Q1.6 9.85 0.35 10.65 L-0.45 11.15 -0.9 11.9 -0.1 13.4 Q3.55 13.45 6.7 11.6 L7.0 11.45 7.35 11.25 7.4 11.2 M5.4 2.2 L5.35 2.15 5.2 1.9 5.05 1.85 2.65 1.75 2.55 1.85 2.55 1.9 2.45 2.0 2.4 2.15 2.4 2.2 2.45 2.25 2.45 2.3 2.5 2.35 2.5 2.4 2.45 2.45 2.45 2.5 2.75 2.7 2.8 2.85 2.6 3.45 2.5 3.45 2.55 3.55 2.7 3.7 4.9 3.6 4.95 3.6 5.4 3.45 5.4 3.35 5.4 2.2 M0.25 14.2 L1.5 14.15 1.65 14.15 Q4.15 13.85 6.35 12.6 L7.2 12.1 7.3 11.75 7.25 11.75 Q5.4 12.9 3.25 13.45 L1.25 13.75 0.0 13.65 0.05 13.85 0.1 13.95 0.2 14.2 0.25 14.2 M-2.8 0.9 L-2.75 0.75 -4.6 -0.05 -4.7 0.15 -5.55 1.45 Q-4.45 2.2 -3.2 2.65 L-2.85 0.95 -2.8 0.9 M-1.45 1.25 L-1.4 1.05 -1.7 0.85 -2.35 0.7 -2.85 2.65 -2.85 2.7 -1.9 2.9 -1.6 1.8 -1.45 1.25 M-1.05 1.35 L-1.35 2.55 -1.45 2.95 0.75 3.25 0.1 2.9 0.05 2.8 0.1 2.65 0.2 2.4 0.3 2.15 0.35 2.1 0.45 2.1 0.5 2.05 0.85 2.05 0.85 2.0 0.85 1.8 0.9 1.7 1.05 1.4 -0.95 1.1 -1.05 1.35 M1.9 2.65 L1.5 2.55 1.1 2.45 1.05 2.45 0.85 2.45 0.65 2.45 0.5 2.6 0.5 2.65 0.75 2.8 2.4 3.05 2.4 3.0 2.4 2.85 2.4 2.8 1.9 2.65 M-6.2 -0.75 L-6.1 -0.95 -6.6 -1.4 -7.4 0.0 -7.35 0.05 -7.3 0.1 -6.9 0.55 -6.4 -0.45 -6.2 -0.75 M-5.55 -0.7 L-5.6 -0.7 -5.7 -0.75 -6.65 0.85 -6.75 1.0 -6.05 1.45 -4.95 -0.15 -5.25 -0.55 -5.5 -0.75 -5.55 -0.7 M-9.65 11.25 L-9.55 11.95 -9.5 11.95 -9.45 12.0 -9.45 12.1 Q-6.55 13.85 -3.1 13.95 L-2.8 14.0 -2.55 13.65 Q-5.3 13.5 -7.7 12.35 L-9.15 11.5 -9.7 11.05 -9.65 11.25" fill="#000000" fill-rule="evenodd" stroke="none"/>
      <path d="M5.85 -12.05 L5.0 -12.8 4.55 -13.15 4.0 -13.5 3.8 -13.6 3.15 -13.9 Q4.8 -13.4 5.85 -12.05 M9.7 -0.95 L7.6 -9.1 8.15 -7.4 8.15 -7.35 8.2 -7.3 8.25 -7.2 9.6 -1.45 9.7 -0.95 M9.7 -3.0 L8.6 -7.25 8.6 -7.3 8.55 -7.6 9.7 -3.0 M-0.5 -13.3 L-0.6 -13.15 -0.65 -13.1 -0.85 -12.8 -0.7 -13.15 -0.5 -13.3 M-5.5 -4.0 L-6.45 -2.35 -6.65 -2.05 -6.8 -1.8 -6.85 -1.95 -5.5 -4.0 M5.4 1.05 L5.6 1.2 5.4 1.2 5.2 1.25 5.1 1.25 5.5 1.3 5.55 1.35 5.65 1.55 5.65 1.6 5.6 1.55 5.5 1.35 Q3.6 1.0 1.75 1.3 L2.15 1.15 2.7 1.15 4.2 1.15 5.4 1.05 M5.65 4.2 L5.55 4.25 5.6 4.2 5.65 4.2 M8.4 0.4 L8.55 0.25 8.6 0.3 8.5 0.35 8.4 0.4 M-2.3 -9.0 L-2.25 -9.2 -1.95 -9.8 -1.85 -9.85 -2.3 -9.0 M-2.95 -7.8 L-2.5 -8.7 -2.45 -8.75 -2.4 -8.8 -2.95 -7.8 M-4.5 -0.4 L-4.0 -0.2 -2.6 0.3 -2.65 0.45 Q-3.55 0.0 -4.45 -0.35 L-4.5 -0.4 M-1.0 0.7 L0.5 0.95 -0.95 0.75 -1.0 0.7 M1.5 2.55 L1.9 2.65 0.6 2.5 0.5 2.65 0.5 2.6 0.65 2.45 0.85 2.45 1.05 2.5 1.05 2.45 1.1 2.45 1.1 2.5 1.5 2.55 M1.35 4.4 L1.4 4.4 1.45 4.45 1.4 4.4 1.35 4.4 M-5.25 -0.55 L-5.55 -0.7 -5.5 -0.75 -5.25 -0.55 M-6.2 -1.55 L-6.45 -1.7 -6.4 -1.75 -6.2 -1.55" fill="#4d0000" fill-rule="evenodd" stroke="none"/>
      <path d="M0.75 -13.85 Q0.0 -13.25 0.15 -12.4 4.7 -8.65 5.6 -4.05 6.05 -1.7 5.7 0.85 L2.7 0.6 Q2.0 0.6 1.45 1.0 L0.5 0.95 -1.0 0.7 -1.05 0.65 -1.45 0.6 -1.5 0.55 -2.5 0.15 -2.55 0.2 -2.6 0.3 -4.0 -0.2 -4.5 -0.4 -4.55 -0.45 -5.55 -1.3 -5.65 -1.35 -5.8 -1.35 -5.85 -1.25 -6.2 -1.55 -6.4 -1.75 -5.35 -3.55 -2.95 -7.8 -2.4 -8.8 -2.3 -9.0 -1.85 -9.85 -1.8 -9.95 -1.8 -10.0 -1.6 -10.4 -1.45 -10.75 -0.2 -13.1 0.75 -13.85 M5.95 0.95 L6.45 0.85 6.05 0.95 5.95 0.95 M-6.45 -2.35 L-6.65 -2.05 -6.45 -2.35 M5.4 1.05 L4.2 1.15 2.7 1.15 2.15 1.15 2.7 1.05 4.85 0.95 5.4 1.05" fill="#c009c3" fill-rule="evenodd" stroke="none"/>
      <path d="M5.65 1.55 L5.55 1.35 5.5 1.3 5.1 1.25 5.2 1.25 5.4 1.2 5.6 1.2 5.75 1.35 5.65 1.55 M5.75 2.2 L5.55 1.7 5.6 1.55 5.75 2.1 5.75 2.2 M6.6 3.0 L6.45 1.75 6.3 1.3 7.15 1.1 7.2 1.05 7.25 1.05 7.3 2.85 6.6 3.0 M9.65 -0.05 L9.5 2.1 8.9 2.35 9.05 0.25 9.3 0.15 9.5 0.05 9.55 0.0 9.65 -0.05 M4.95 3.6 L5.4 2.2 5.4 3.35 5.4 3.45 4.95 3.6" fill="#723a00" fill-rule="evenodd" stroke="none"/>
      <path d="M6.15 3.65 L6.05 4.0 6.0 4.05 6.15 3.65 M5.8 4.15 L5.75 4.15 5.65 4.2 5.8 4.15 M8.4 0.4 L8.5 0.35 8.6 0.3 8.7 0.7 Q8.5 1.65 8.55 2.55 L8.55 2.6 7.75 2.85 7.65 2.8 7.7 2.3 7.65 0.75 7.7 0.7 8.4 0.4 M9.05 0.25 L9.05 0.15 9.4 0.05 9.3 0.15 9.05 0.25 M4.1 5.05 L5.4 4.85 5.75 4.7 5.9 4.55 5.95 4.55 6.0 4.5 6.0 4.45 6.35 4.15 6.55 3.4 7.5 3.25 8.8 2.95 8.85 2.85 8.85 2.7 9.45 2.55 9.35 3.35 9.15 4.05 Q8.75 6.9 7.8 9.65 L7.4 11.2 7.0 11.45 6.7 11.6 Q3.55 13.45 -0.1 13.4 L-0.9 11.9 -0.45 11.15 0.35 10.65 Q1.6 9.85 2.15 8.7 L1.9 8.75 0.75 9.85 0.05 10.3 0.1 10.2 2.85 7.1 4.1 5.05 M3.25 13.45 Q5.4 12.9 7.25 11.75 L7.3 11.75 7.2 12.1 6.35 12.6 Q4.15 13.85 1.65 14.15 L1.5 14.15 0.25 14.2 0.1 13.95 0.05 13.85 3.25 13.45" fill="#dca285" fill-rule="evenodd" stroke="none"/>
      <path d="M5.6 1.55 L5.65 1.6 5.75 2.1 5.6 1.55 5.55 1.7 5.4 1.5 5.6 1.55 M2.4 1.5 L2.2 1.7 2.15 1.7 2.1 1.8 2.05 2.05 2.05 2.1 2.2 1.55 2.4 1.5 M6.6 3.0 L7.3 2.85 7.3 2.9 6.6 3.05 6.6 3.0 M9.4 0.05 L9.5 0.05 9.3 0.15 9.4 0.05 M4.95 3.6 L4.9 3.6 2.7 3.7 2.55 3.55 2.5 3.45 2.6 3.45 2.8 2.85 2.75 2.7 2.45 2.5 2.45 2.45 2.5 2.4 2.5 2.35 2.45 2.3 2.45 2.25 2.4 2.2 2.4 2.15 2.45 2.0 2.55 1.9 2.55 1.85 2.65 1.75 5.05 1.85 5.2 1.9 5.35 2.15 5.4 2.2 4.95 3.6 M-4.7 0.15 L-2.8 0.9 -2.85 0.95 -3.2 2.65 Q-4.45 2.2 -5.55 1.45 L-4.7 0.15 M-1.6 1.8 L-1.45 1.25 -1.6 1.8 M0.9 1.7 L0.85 1.8 0.85 2.0 0.85 2.05 0.5 2.05 0.45 2.1 0.35 2.1 0.3 2.15 0.2 2.4 0.1 2.65 0.05 2.8 0.1 2.9 0.75 3.25 -1.45 2.95 -1.35 2.55 -1.05 1.35 0.9 1.7 M1.05 2.45 L1.05 2.5 0.85 2.45 1.05 2.45 M-7.3 0.1 L-6.55 -1.05 -6.2 -0.75 -6.4 -0.45 -6.9 0.55 -7.3 0.1" fill="#7f4c00" fill-rule="evenodd" stroke="none"/>
      <path d="M5.65 1.6 L5.65 1.55 5.75 1.35 5.85 1.5 Q6.3 2.55 6.15 3.65 L6.0 4.05 5.8 4.15 5.65 4.2 5.6 4.2 4.65 4.4 4.9 4.05 5.45 3.9 5.6 3.8 Q6.0 2.95 5.75 2.2 L5.75 2.1 5.65 1.6 M2.4 3.0 L2.4 3.05 0.75 2.8 2.4 3.0" fill="#fc7931" fill-rule="evenodd" stroke="none"/>
      <path d="M1.75 1.3 Q3.6 1.0 5.5 1.35 L5.6 1.55 5.4 1.5 5.3 1.45 2.6 1.35 2.4 1.5 2.2 1.55 2.05 2.1 2.05 2.15 2.0 2.2 2.0 2.25 1.15 2.05 1.75 1.3 M5.55 4.25 Q3.65 4.95 1.7 4.25 L1.35 3.6 1.3 3.4 2.05 3.5 2.4 3.85 4.9 4.05 4.65 4.4 5.6 4.2 5.55 4.25 M1.5 2.55 L1.1 2.5 1.1 2.45 1.5 2.55 M0.5 2.65 L0.6 2.5 1.9 2.65 2.4 2.8 2.4 2.85 2.4 3.0 0.75 2.8 0.5 2.65" fill="#e6b300" fill-rule="evenodd" stroke="none"/>
      <path d="M-1.15 12.25 L-1.0 12.5 -1.15 12.25 M7.85 11.2 L7.8 11.2 8.35 9.3 9.2 6.4 7.85 11.2 M0.05 10.3 L0.75 9.85 -0.05 10.55 0.05 10.3 M7.0 11.45 L7.4 11.2 7.35 11.25 7.0 11.45 M3.25 13.45 L0.05 13.85 0.0 13.65 1.25 13.75 3.25 13.45 M0.1 13.95 L0.25 14.2 0.2 14.2 0.1 13.95 M-7.55 0.4 L-8.5 2.7 -8.05 1.2 -7.6 0.35 -7.55 0.4 M-3.05 13.25 L-2.35 13.35 -2.4 13.4 -3.05 13.25 M-6.6 -1.4 L-7.35 0.05 -7.4 0.0 -6.6 -1.4 M-9.65 11.25 L-9.7 11.05 -9.15 11.5 -7.7 12.35 -9.65 11.25" fill="#be7004" fill-rule="evenodd" stroke="none"/>
      <path d="M4.1 5.05 L2.85 7.1 0.1 10.2 1.0 8.6 1.15 7.65 0.85 8.1 0.3 9.0 -0.25 10.0 -2.15 13.05 -2.35 13.35 -3.05 13.25 -4.25 13.05 -7.0 12.3 -9.6 10.6 -9.65 10.55 -9.75 10.55 -9.75 10.15 -9.7 8.1 -8.9 3.95 -8.75 3.7 -8.5 2.7 -7.55 0.4 -7.05 0.9 -7.15 1.2 -7.0 1.35 -6.8 1.5 -5.95 1.95 -5.85 1.9 -5.8 1.85 -5.7 1.65 Q-4.75 2.7 -3.2 2.9 L-3.25 3.05 -1.85 3.35 -1.55 3.15 Q-0.45 3.7 0.95 3.65 L1.1 4.05 1.35 4.4 1.4 4.4 1.45 4.45 Q2.65 5.1 4.1 5.05 M-4.7 0.15 L-4.6 -0.05 -2.75 0.75 -2.8 0.9 -4.7 0.15 M-1.6 1.8 L-1.9 2.9 -2.85 2.7 -2.85 2.65 -2.35 0.7 -1.7 0.85 -1.4 1.05 -1.45 1.25 -1.6 1.8 M0.9 1.7 L-1.05 1.35 -0.95 1.1 1.05 1.4 0.9 1.7 M-6.6 -1.4 L-6.1 -0.95 -6.2 -0.75 -6.55 -1.05 -7.3 0.1 -7.35 0.05 -6.6 -1.4 M-5.25 -0.55 L-4.95 -0.15 -6.05 1.45 -6.75 1.0 -6.65 0.85 -5.7 -0.75 -5.6 -0.7 -5.55 -0.7 -5.25 -0.55 M-7.7 12.35 Q-5.3 13.5 -2.55 13.65 L-2.8 14.0 -3.1 13.95 Q-6.55 13.85 -9.45 12.1 L-9.45 12.0 -9.5 11.95 -9.55 11.95 -9.65 11.25 -7.7 12.35" fill="#ebb277" fill-rule="evenodd" stroke="none"/>
    </g>
    <g id="sprite5" transform="matrix(1.0, 0.0, 0.0, 1.0, 12.95, 11.95)">
      <use height="23.9" transform="matrix(1.0, 0.0, 0.0, 1.0, -12.95, -11.95)" width="25.9" xlink:href="#shape5"/>
    </g>
    <g id="shape5" transform="matrix(1.0, 0.0, 0.0, 1.0, 12.95, 11.95)">
      <path d="M1.85 8.9 L1.55 11.4 1.4 11.85 1.35 11.9 1.3 11.95 Q-0.15 11.95 -1.4 11.1 L-1.45 11.1 -1.5 11.15 -1.7 11.0 -2.0 8.95 -2.0 8.85 -2.05 8.75 -2.05 8.7 -2.1 8.7 -3.25 8.45 Q-6.55 7.55 -9.05 5.2 L-9.85 4.45 -10.25 3.75 -10.6 3.2 -10.75 3.05 -11.05 2.45 -11.15 2.3 Q-11.85 0.45 -12.05 -1.55 -12.25 -4.15 -11.45 -6.6 L-11.35 -6.8 -12.95 -8.45 -10.85 -11.5 -10.8 -11.45 -10.7 -11.5 -10.6 -11.5 -10.55 -11.45 -10.55 -11.35 -10.5 -11.3 -10.5 -11.2 -10.5 -11.1 -10.45 -11.05 -10.4 -11.0 -10.35 -10.85 -10.1 -10.45 -10.05 -10.6 -10.0 -10.7 -9.85 -11.8 -9.8 -11.9 -9.75 -11.9 -9.7 -11.95 -8.8 -11.85 -7.25 -11.8 -7.15 -11.8 -7.1 -11.75 -7.05 -11.55 -7.1 -10.25 -7.05 -10.1 -6.0 -10.35 Q-3.0 -10.45 -0.2 -9.3 2.0 -8.4 3.75 -6.85 L5.0 -5.4 Q7.15 -3.35 7.6 -0.4 L7.55 0.2 7.55 0.8 7.55 0.9 10.45 -0.75 Q11.05 -1.4 11.8 -1.65 L12.45 -1.5 12.55 -1.5 12.6 -1.4 12.75 -1.2 12.85 -1.1 12.8 0.15 12.7 0.4 12.65 0.75 12.65 0.7 12.75 0.75 12.8 0.8 Q13.4 2.6 11.55 3.35 10.35 3.8 9.5 4.7 L8.95 5.25 8.4 5.85 7.55 6.4 4.1 8.15 Q3.25 8.7 2.4 8.75 L1.85 8.75 1.85 8.9 M11.9 -1.2 L11.7 -1.15 11.3 -1.0 10.6 -0.5 9.4 0.25 9.3 0.3 9.15 0.4 8.15 1.0 7.9 1.1 7.4 1.3 7.3 1.3 7.25 1.2 7.2 1.35 7.0 1.4 Q7.2 0.7 7.05 -0.4 L6.25 -2.75 5.85 -3.35 Q5.35 -3.85 4.8 -3.6 4.1 -3.3 3.9 -2.2 L4.0 -1.6 Q4.2 -0.35 4.8 0.75 L5.4 1.6 5.3 1.6 4.75 0.85 Q4.15 -0.3 3.9 -1.7 3.65 -3.1 4.0 -3.95 4.35 -4.8 5.05 -4.5 L5.4 -4.3 5.2 -4.55 5.1 -4.6 4.9 -4.95 3.95 -5.2 3.05 -5.05 3.7 -5.4 4.6 -5.3 3.7 -6.3 Q1.25 -8.75 -2.1 -9.6 L-6.75 -9.85 -7.1 -9.75 Q-9.1 -9.2 -10.25 -7.7 L-11.25 -5.95 -11.65 -4.0 -11.7 -3.75 -11.65 -2.1 -11.65 -1.95 -11.6 -1.75 -11.15 1.0 -11.1 1.15 -10.9 1.9 -10.7 2.3 -10.15 3.25 -9.95 3.6 -9.5 4.25 -9.5 4.3 -7.9 5.75 -5.65 7.1 -3.8 7.8 -0.8 8.35 0.4 8.35 0.35 8.3 0.25 8.25 -0.1 7.65 Q-0.2 6.8 0.05 6.2 0.4 5.3 1.45 4.85 L1.8 4.75 Q0.4 4.4 -0.7 3.15 -1.8 1.9 -2.05 0.45 -2.35 -1.1 -1.45 -1.95 -0.55 -2.8 0.9 -2.4 2.25 -2.05 3.35 -0.8 4.5 0.4 4.75 1.9 L4.6 2.05 4.6 2.0 Q4.35 0.6 3.25 -0.65 2.15 -1.9 0.8 -2.2 L0.3 -2.3 Q-0.75 -1.65 -1.05 -0.15 -1.35 1.35 -0.75 2.75 L-0.5 3.0 Q0.55 4.25 1.9 4.6 L2.3 4.65 2.15 4.8 2.25 4.85 2.2 4.9 2.2 4.95 2.15 4.95 1.35 5.2 1.05 5.45 Q0.35 6.0 0.25 6.85 L0.3 7.75 0.45 8.0 0.7 8.1 3.0 8.3 4.3 7.75 6.05 6.85 6.85 6.35 8.3 5.35 8.6 5.05 9.3 4.5 9.65 4.2 10.0 3.85 10.5 3.5 Q11.25 3.05 11.7 2.85 L11.9 2.75 12.3 2.45 12.4 2.3 12.6 1.3 12.6 1.1 12.55 1.05 12.5 1.05 12.35 1.05 12.2 1.05 12.2 1.0 12.15 0.95 12.15 0.9 12.2 0.8 12.2 0.75 12.2 0.7 12.25 0.6 12.4 0.25 12.45 -0.3 12.45 -0.9 12.45 -1.0 12.35 -1.1 12.25 -1.2 11.9 -1.2 M6.65 1.45 L5.9 1.55 5.65 1.6 5.25 1.05 5.8 0.35 5.0 0.35 Q4.75 -0.7 5.25 -1.05 5.9 -1.6 6.5 -0.2 6.95 0.9 6.65 1.45 M-9.65 -10.1 L-9.65 -10.05 -9.65 -9.95 -9.7 -9.8 -9.85 -9.6 -9.95 -9.55 -10.05 -9.6 -10.1 -9.6 -10.15 -9.7 -10.15 -9.75 -10.2 -9.75 -10.2 -9.8 -10.3 -10.0 -10.45 -10.25 -10.8 -11.0 -10.85 -10.85 -12.45 -8.55 -12.1 -8.2 -11.15 -7.2 -11.05 -7.35 -11.05 -7.4 Q-9.8 -9.2 -7.8 -9.85 L-7.6 -10.0 -7.5 -10.0 -7.5 -10.15 -7.45 -11.35 -8.8 -11.45 -9.4 -11.45 -9.5 -11.45 -9.55 -11.2 -9.65 -10.1 M-3.35 -1.55 L-3.3 0.1 -3.8 -1.25 Q-3.75 -2.45 -3.15 -3.0 -2.7 -3.45 -1.5 -3.85 -3.05 -2.85 -3.35 -1.55 M4.85 -3.8 Q5.5 -4.05 5.9 -3.4 5.15 -4.7 4.45 -4.35 3.85 -3.95 3.9 -2.4 4.15 -3.5 4.85 -3.8 M-1.8 -1.05 Q-2.25 1.0 -0.7 2.85 -1.6 1.45 -1.3 -0.15 -1.0 -1.75 0.25 -2.35 -1.25 -2.55 -1.8 -1.05 M0.6 2.75 Q0.0 1.75 0.55 1.2 0.85 0.9 1.4 1.0 1.95 1.1 2.45 1.6 L3.1 2.7 Q3.2 3.3 2.9 3.6 2.25 4.3 1.15 3.35 L1.7 2.45 0.6 2.75 M1.5 8.85 L1.55 8.75 0.85 8.55 0.7 8.5 0.65 8.55 -1.7 8.75 Q-1.45 9.3 -1.45 10.05 L-1.35 10.7 Q-0.25 11.55 1.1 11.5 L1.2 11.05 1.45 9.25 1.45 8.95 1.5 8.85" fill="#000000" fill-rule="evenodd" stroke="none"/>
      <path d="M12.8 0.15 L12.75 0.75 12.65 0.7 12.65 0.75 12.7 0.4 12.8 0.15 M9.5 4.7 L9.05 5.25 8.5 5.8 8.4 5.85 8.95 5.25 9.5 4.7 M2.4 8.75 L1.9 8.9 1.85 8.9 1.85 8.75 2.4 8.75 M11.7 -1.15 L11.4 -0.95 10.85 -0.6 10.6 -0.5 11.3 -1.0 11.7 -1.15 M8.15 1.0 L7.55 1.4 7.35 1.6 6.05 3.0 7.3 1.35 6.95 1.4 7.0 1.4 7.2 1.35 7.3 1.3 7.4 1.3 7.9 1.1 8.15 1.0 M5.9 1.55 L5.0 1.8 Q4.8 1.85 3.85 3.2 L2.8 4.45 2.2 4.95 2.2 4.9 2.25 4.85 2.15 4.8 2.3 4.65 4.6 2.05 4.75 1.9 4.9 1.65 5.3 1.6 5.4 1.6 5.65 1.6 5.9 1.55 M2.25 4.95 L2.1 5.05 1.05 5.45 1.35 5.2 2.15 4.95 2.2 4.95 2.25 4.95 M0.25 6.85 Q0.25 7.55 0.7 8.1 L0.45 8.0 0.3 7.75 0.25 6.85 M9.65 4.2 L10.3 3.55 10.5 3.5 10.0 3.85 9.65 4.2 M11.7 2.85 L11.85 2.75 12.4 2.3 12.3 2.45 11.9 2.75 11.7 2.85 M12.6 1.1 L12.15 1.25 10.4 1.85 10.15 1.95 Q9.5 2.3 7.95 3.8 L7.55 4.15 Q6.65 5.0 5.2 5.85 L4.95 6.0 Q3.2 6.9 2.3 6.95 1.75 7.05 1.7 6.45 L1.85 6.7 2.25 6.85 Q4.1 6.8 7.4 3.95 L9.55 1.9 Q10.05 1.5 12.2 0.8 L12.15 0.9 12.15 0.95 12.2 1.0 12.2 1.05 12.35 1.05 12.5 1.05 12.55 1.05 12.6 1.1 M12.45 -0.9 Q12.3 -1.25 11.9 -1.2 L12.25 -1.2 12.35 -1.1 12.45 -1.0 12.45 -0.9 M0.85 8.55 L1.55 8.75 1.5 8.85 0.85 8.55" fill="#c02204" fill-rule="evenodd" stroke="none"/>
      <path d="M11.7 -1.15 L11.9 -1.2 Q12.3 -1.25 12.45 -0.9 L12.45 -0.3 12.4 0.25 12.25 0.6 11.2 0.8 Q9.9 1.2 8.4 2.35 5.75 5.25 3.15 6.55 5.35 5.8 8.1 3.2 9.0 2.1 9.95 1.6 10.75 1.1 12.2 0.75 L12.2 0.8 Q10.05 1.5 9.55 1.9 L7.4 3.95 Q4.1 6.8 2.25 6.85 L1.85 6.7 1.7 6.45 Q1.75 7.05 2.3 6.95 3.2 6.9 4.95 6.0 L5.2 5.85 3.9 6.6 Q6.5 5.5 7.9 4.2 9.9 2.35 10.65 1.95 L12.55 1.15 12.15 1.25 12.6 1.1 12.6 1.3 12.4 2.3 11.85 2.75 11.7 2.85 Q11.25 3.05 10.5 3.5 L10.3 3.55 9.65 4.2 9.3 4.5 10.35 3.45 11.6 2.85 Q12.3 2.5 12.55 1.95 L11.0 2.65 Q9.65 3.45 8.3 5.35 L6.85 6.35 Q1.1 8.75 0.6 7.95 L0.7 8.1 Q0.25 7.55 0.25 6.85 0.35 6.0 1.05 5.45 L2.1 5.05 2.25 4.95 Q2.9 5.05 6.0 3.0 L3.95 3.45 2.8 4.45 3.85 3.2 Q4.8 1.85 5.0 1.8 L5.9 1.55 6.65 1.45 6.95 1.4 7.3 1.35 6.05 3.0 7.35 1.6 7.55 1.4 8.15 1.0 9.15 0.4 8.8 0.65 6.3 3.05 3.25 5.3 2.2 5.9 2.3 5.9 Q2.75 5.9 3.85 5.15 L6.35 3.55 7.3 2.3 Q7.95 1.35 9.95 0.3 L11.3 -0.15 Q11.9 -0.35 12.05 -1.05 12.1 -1.35 11.85 -1.05 L11.15 -0.55 9.4 0.25 10.6 -0.5 10.85 -0.6 11.4 -0.95 11.7 -1.15 M10.4 1.85 Q9.95 2.05 9.6 2.4 L7.95 3.8 Q9.5 2.3 10.15 1.95 L10.4 1.85 M3.0 8.3 L4.8 7.45 6.05 6.85 4.3 7.75 3.0 8.3" fill="#ff672d" fill-rule="evenodd" stroke="none"/>
      <path d="M9.4 0.25 L11.15 -0.55 11.85 -1.05 Q12.1 -1.35 12.05 -1.05 11.9 -0.35 11.3 -0.15 L9.95 0.3 Q7.95 1.35 7.3 2.3 L6.35 3.55 3.85 5.15 Q2.75 5.9 2.3 5.9 L2.2 5.9 3.25 5.3 6.3 3.05 8.8 0.65 9.15 0.4 9.3 0.3 9.4 0.25 M12.15 1.25 L12.55 1.15 10.65 1.95 Q9.9 2.35 7.9 4.2 6.5 5.5 3.9 6.6 L5.2 5.85 Q6.65 5.0 7.55 4.15 L7.95 3.8 9.6 2.4 Q9.95 2.05 10.4 1.85 L12.15 1.25" fill="#ffa12c" fill-rule="evenodd" stroke="none"/>
      <path d="M2.8 4.45 L3.95 3.45 6.0 3.0 Q2.9 5.05 2.25 4.95 L2.2 4.95 2.8 4.45 M0.7 8.1 L0.6 7.95 Q1.1 8.75 6.85 6.35 L6.05 6.85 4.8 7.45 3.0 8.3 0.7 8.1 M8.3 5.35 Q9.65 3.45 11.0 2.65 L12.55 1.95 Q12.3 2.5 11.6 2.85 L10.35 3.45 9.3 4.5 8.6 5.05 8.3 5.35 M12.2 0.75 Q10.75 1.1 9.95 1.6 9.0 2.1 8.1 3.2 5.35 5.8 3.15 6.55 5.75 5.25 8.4 2.35 9.9 1.2 11.2 0.8 L12.25 0.6 12.2 0.7 12.2 0.75" fill="#fe571f" fill-rule="evenodd" stroke="none"/>
      <path d="M-10.45 -10.25 L-10.3 -10.0 -10.2 -9.8 -10.2 -9.75 -10.15 -9.75 -10.15 -9.7 -10.1 -9.6 -10.05 -9.6 -9.95 -9.55 -9.85 -9.6 -9.7 -9.8 -9.65 -9.95 -9.65 -10.05 -9.65 -10.1 -9.4 -11.45 -8.8 -11.45 -7.45 -11.35 -7.5 -10.15 -7.5 -10.0 -7.6 -10.0 -7.8 -9.85 Q-9.8 -9.2 -11.05 -7.4 L-11.05 -7.35 -12.1 -8.2 -12.45 -8.55 -10.85 -10.85 -10.45 -10.25" fill="#ce66f9" fill-rule="evenodd" stroke="none"/>
      <path d="M-10.45 -10.25 L-10.85 -10.85 -10.8 -11.0 -10.45 -10.25 M-12.1 -8.2 L-11.05 -7.35 -11.15 -7.2 -12.1 -8.2 M-9.4 -11.45 L-9.65 -10.1 -9.55 -11.2 -9.5 -11.45 -9.4 -11.45 M-11.1 1.15 L-10.7 2.3 -10.9 1.9 -11.1 1.15 M-9.5 4.25 L-9.35 4.4 -7.9 5.75 -9.5 4.3 -9.5 4.25 M-0.8 8.35 L0.25 8.25 0.35 8.3 0.4 8.35 -0.8 8.35" fill="#550022" fill-rule="evenodd" stroke="none"/>
      <path d="M-10.25 -7.7 Q-9.1 -9.2 -7.1 -9.75 L-6.75 -9.85 -2.1 -9.6 Q1.25 -8.75 3.7 -6.3 L4.6 -5.3 3.7 -5.4 3.05 -5.05 3.95 -5.2 4.9 -4.95 5.1 -4.6 5.2 -4.55 5.4 -4.3 5.05 -4.5 Q4.35 -4.8 4.0 -3.95 3.65 -3.1 3.9 -1.7 4.15 -0.3 4.75 0.85 L5.3 1.6 4.9 1.65 4.75 1.9 Q4.5 0.4 3.35 -0.8 2.25 -2.05 0.9 -2.4 -0.55 -2.8 -1.45 -1.95 -2.35 -1.1 -2.05 0.45 -1.8 1.9 -0.7 3.15 0.4 4.4 1.8 4.75 L1.45 4.85 Q0.4 5.3 0.05 6.2 -3.0 5.8 -5.55 4.4 -8.65 2.65 -9.95 -0.15 -11.4 -3.4 -10.25 -7.7 M7.2 1.35 L7.25 1.2 7.3 1.3 7.2 1.35 M-3.35 -1.55 Q-3.05 -2.85 -1.5 -3.85 -2.7 -3.45 -3.15 -3.0 -3.75 -2.45 -3.8 -1.25 L-3.3 0.1 -3.35 -1.55 M4.6 -3.95 Q4.05 -3.65 3.95 -2.65 4.1 -3.35 4.55 -3.65 5.0 -4.05 5.4 -3.85 L4.6 -3.95 M4.85 -3.8 Q4.15 -3.5 3.9 -2.4 3.85 -3.95 4.45 -4.35 5.15 -4.7 5.9 -3.4 5.5 -4.05 4.85 -3.8 M-1.15 -0.85 Q-0.75 -1.9 0.0 -2.35 -1.05 -1.95 -1.45 -0.75 -1.85 0.35 -1.4 1.1 -1.6 0.15 -1.15 -0.85 M-1.8 -1.05 Q-1.25 -2.55 0.25 -2.35 -1.0 -1.75 -1.3 -0.15 -1.6 1.45 -0.7 2.85 -2.25 1.0 -1.8 -1.05" fill="#d885fd" fill-rule="evenodd" stroke="none"/>
      <path d="M-10.25 -7.7 Q-11.4 -3.4 -9.95 -0.15 -8.65 2.65 -5.55 4.4 -3.0 5.8 0.05 6.2 -0.2 6.8 -0.1 7.65 L0.25 8.25 -0.8 8.35 -3.8 7.8 -5.65 7.1 -7.9 5.75 -9.35 4.4 -9.5 4.25 -9.95 3.6 -10.15 3.25 -10.7 2.3 -11.1 1.15 -11.15 1.0 -11.6 -1.75 -11.65 -1.95 -11.65 -2.1 -11.7 -3.75 -11.65 -4.0 -11.25 -5.95 -10.25 -7.7 M0.85 8.55 L1.5 8.85 1.45 8.95 1.45 9.25 1.2 11.05 1.1 11.5 Q-0.25 11.55 -1.35 10.7 L-1.45 10.05 Q-1.45 9.3 -1.7 8.75 L0.65 8.55 0.7 8.5 0.85 8.55" fill="#c76cfd" fill-rule="evenodd" stroke="none"/>
      <path d="M4.6 -3.95 L5.4 -3.85 Q5.0 -4.05 4.55 -3.65 4.1 -3.35 3.95 -2.65 4.05 -3.65 4.6 -3.95 M-1.15 -0.85 Q-1.6 0.15 -1.4 1.1 -1.85 0.35 -1.45 -0.75 -1.05 -1.95 0.0 -2.35 -0.75 -1.9 -1.15 -0.85" fill="#eeb7ff" fill-rule="evenodd" stroke="none"/>
      <path d="M6.95 1.4 L6.65 1.45 Q6.95 0.9 6.5 -0.2 5.9 -1.6 5.25 -1.05 4.75 -0.7 5.0 0.35 L5.8 0.35 5.25 1.05 5.65 1.6 5.4 1.6 4.8 0.75 Q4.2 -0.35 4.0 -1.6 L3.9 -2.2 Q4.1 -3.3 4.8 -3.6 5.35 -3.85 5.85 -3.35 L6.25 -2.75 7.05 -0.4 Q7.2 0.7 7.0 1.4 L6.95 1.4 M2.3 4.65 L1.9 4.6 Q0.55 4.25 -0.5 3.0 L-0.75 2.75 Q-1.35 1.35 -1.05 -0.15 -0.75 -1.65 0.3 -2.3 L0.8 -2.2 Q2.15 -1.9 3.25 -0.65 4.35 0.6 4.6 2.0 L4.6 2.05 2.3 4.65 M0.6 2.75 L1.7 2.45 1.15 3.35 Q2.25 4.3 2.9 3.6 3.2 3.3 3.1 2.7 L2.45 1.6 Q1.95 1.1 1.4 1.0 0.85 0.9 0.55 1.2 0.0 1.75 0.6 2.75" fill="#ffffff" fill-rule="evenodd" stroke="none"/>
    </g>
  </defs>
</svg>
