<?xml version="1.0" encoding="UTF-8" standalone="no"?>
<svg xmlns:xlink="http://www.w3.org/1999/xlink" height="15.8px" width="15.6px" xmlns="http://www.w3.org/2000/svg">
  <g transform="matrix(1.0, 0.0, 0.0, 1.0, 7.8, 7.9)">
    <use height="15.8" transform="matrix(1.0, 0.0, 0.0, 1.0, -7.8, -7.9)" width="15.6" xlink:href="#shape0"/>
  </g>
  <defs>
    <g id="shape0" transform="matrix(1.0, 0.0, 0.0, 1.0, 7.8, 7.9)">
      <path d="M-7.4 5.0 Q-7.65 3.0 -6.05 1.85 -5.1 1.15 -3.95 1.0 -0.75 0.6 2.4 1.0 L2.45 0.95 2.5 0.9 2.5 0.8 1.7 0.6 Q1.25 -0.4 1.35 -1.45 1.5 -4.0 2.55 -6.25 L3.15 -6.95 3.5 -7.3 5.45 -7.5 Q6.6 -7.4 7.15 -6.4 L7.35 -5.9 Q7.5 -4.4 7.05 -2.95 6.2 -0.1 6.25 2.85 L6.5 4.3 Q6.75 5.2 6.25 5.8 L4.8 6.35 1.55 7.2 Q-1.45 7.95 -4.25 7.3 L-4.25 7.1 Q-3.1 5.0 -0.6 4.8 L-1.4 4.75 -2.65 5.05 Q-4.25 5.65 -4.7 7.2 L-5.95 6.8 Q-6.85 6.45 -7.2 5.75 L-7.1 5.45 Q-6.15 3.25 -3.75 2.85 L-4.15 2.75 Q-5.25 2.75 -6.1 3.4 -7.05 4.05 -7.35 5.05 L-7.4 5.0" fill="#6f3827" fill-rule="evenodd" stroke="none"/>
      <path d="M7.7 -6.05 Q7.9 -4.95 7.6 -3.9 6.75 -1.05 6.7 1.95 L6.85 5.4 6.75 5.95 6.25 6.2 4.6 6.85 2.55 7.35 Q-1.75 8.55 -5.9 7.2 -7.45 6.7 -7.75 5.2 -7.95 4.05 -7.5 3.0 -6.95 1.8 -5.75 1.2 -4.1 0.4 -2.25 0.35 L1.3 0.55 Q0.7 -0.6 0.85 -1.9 1.05 -4.1 2.05 -5.95 L2.0 -6.05 2.1 -6.35 2.15 -6.4 2.2 -6.45 2.3 -6.5 2.5 -6.75 2.6 -7.0 Q3.15 -7.7 4.05 -7.85 6.1 -8.2 7.4 -6.75 L7.7 -6.05 M-4.25 7.3 Q-1.45 7.95 1.55 7.2 L4.8 6.35 6.25 5.8 Q6.75 5.2 6.5 4.3 L6.25 2.85 Q6.2 -0.1 7.05 -2.95 7.5 -4.4 7.35 -5.9 L7.15 -6.4 Q6.6 -7.4 5.45 -7.5 L3.5 -7.3 3.15 -6.95 2.55 -6.25 Q1.5 -4.0 1.35 -1.45 1.25 -0.4 1.7 0.6 L2.5 0.8 2.5 0.9 2.45 0.95 2.4 1.0 Q-0.75 0.6 -3.95 1.0 -5.1 1.15 -6.05 1.85 -7.65 3.0 -7.4 5.0 L-7.35 5.1 -7.35 5.05 Q-7.05 4.05 -6.1 3.4 -5.25 2.75 -4.15 2.75 L-3.75 2.85 Q-6.15 3.25 -7.1 5.45 L-7.2 5.75 Q-6.85 6.45 -5.95 6.8 L-4.7 7.2 Q-4.25 5.65 -2.65 5.05 L-1.4 4.75 -0.6 4.8 Q-3.1 5.0 -4.25 7.1 L-4.4 7.3 -4.25 7.3" fill="#000000" fill-rule="evenodd" stroke="none"/>
    </g>
  </defs>
</svg>
