<?xml version="1.0" encoding="UTF-8" standalone="no"?>
<svg xmlns:xlink="http://www.w3.org/1999/xlink" height="15.6px" width="15.5px" xmlns="http://www.w3.org/2000/svg">
  <g transform="matrix(1.0, 0.0, 0.0, 1.0, 7.75, 7.8)">
    <use height="15.55" transform="matrix(1.0, 0.0, 0.0, 1.0, -7.75, -7.75)" width="15.5" xlink:href="#sprite0"/>
    <use height="15.6" id="myButton" transform="matrix(1.0, 0.0, 0.0, 1.0, -7.75, -7.8)" width="15.5" xlink:href="#button0"/>
    <use height="8.5" transform="matrix(1.0, 0.0, 0.0, 1.0, -3.05, -4.25)" width="6.1" xlink:href="#shape1"/>
  </g>
  <defs>
    <g id="sprite0" transform="matrix(1.0, 0.0, 0.0, 1.0, 0.0, 0.0)">
      <use height="15.55" transform="matrix(1.0, 0.0, 0.0, 1.0, 0.0, 0.0)" width="15.5" xlink:href="#shape0"/>
    </g>
    <g id="shape0" transform="matrix(1.0, 0.0, 0.0, 1.0, 0.0, 0.0)">
      <path d="M15.5 0.0 L15.5 15.55 0.0 15.55 0.0 0.0 15.5 0.0" fill="url(#gradient0)" fill-rule="evenodd" stroke="none"/>
      <path d="M15.5 0.0 L15.5 15.55 M0.0 15.55 L0.0 0.0" fill="none" stroke="#999999" stroke-linecap="round" stroke-linejoin="round" stroke-width="0.05"/>
    </g>
    <linearGradient gradientTransform="matrix(0.0, -0.0095, 0.0095, 0.0, 159.2, 7.8)" gradientUnits="userSpaceOnUse" id="gradient0" spreadMethod="pad" x1="-819.2" x2="819.2">
      <stop offset="0.0" stop-color="#666666"/>
      <stop offset="0.3176470588235294" stop-color="#999999"/>
      <stop offset="0.5254901960784314" stop-color="#999999"/>
      <stop offset="1.0" stop-color="#cccccc"/>
    </linearGradient>
    <g id="shape1" transform="matrix(1.0, 0.0, 0.0, 1.0, 3.05, 4.25)">
      <path d="M2.55 -3.75 L2.55 3.75 0.45 3.75 0.45 -3.75 2.55 -3.75 M-0.45 -3.75 L-0.45 3.75 -2.55 3.75 -2.55 -3.75 -0.45 -3.75" fill="#e7e3e7" fill-rule="evenodd" stroke="none"/>
      <path d="M3.05 -3.75 L3.05 3.75 2.9 4.1 2.55 4.25 0.45 4.25 0.1 4.1 0.0 4.0 -0.1 4.1 -0.45 4.25 -2.55 4.25 -2.9 4.1 -3.05 3.75 -3.05 -3.75 -2.9 -4.1 -2.55 -4.25 -0.45 -4.25 -0.1 -4.1 0.0 -3.95 0.1 -4.1 0.45 -4.25 2.55 -4.25 2.9 -4.1 3.05 -3.75 M-0.2 -3.75 L-0.3 -3.9 -0.45 -4.0 -2.55 -4.0 -2.75 -3.9 -2.8 -3.75 -2.8 3.75 -2.75 3.95 -2.55 4.0 -0.45 4.0 -0.3 3.95 -0.2 3.75 -0.2 -3.75 M2.8 -3.75 L2.7 -3.9 2.55 -4.0 0.45 -4.0 0.25 -3.9 0.2 -3.75 0.2 3.75 0.25 3.95 0.45 4.0 2.55 4.0 2.7 3.95 2.8 3.75 2.8 -3.75" fill="#333333" fill-opacity="0.49803922" fill-rule="evenodd" stroke="none"/>
      <path d="M2.8 -3.75 L2.8 3.75 2.7 3.95 2.55 4.0 0.45 4.0 0.25 3.95 0.2 3.75 0.2 -3.75 0.25 -3.9 0.45 -4.0 2.55 -4.0 2.7 -3.9 2.8 -3.75 M-0.2 -3.75 L-0.2 3.75 -0.3 3.95 -0.45 4.0 -2.55 4.0 -2.75 3.95 -2.8 3.75 -2.8 -3.75 -2.75 -3.9 -2.55 -4.0 -0.45 -4.0 -0.3 -3.9 -0.2 -3.75" fill="#e7e3e7" fill-rule="evenodd" stroke="none"/>
    </g>
  </defs>
</svg>
