<?xml version="1.0" encoding="UTF-8" standalone="no"?>
<svg xmlns:xlink="http://www.w3.org/1999/xlink" height="15.6px" width="15.5px" xmlns="http://www.w3.org/2000/svg">
  <g transform="matrix(1.0, 0.0, 0.0, 1.0, 7.75, 7.8)">
    <use height="15.55" transform="matrix(1.0, 0.0, 0.0, 1.0, -7.75, -7.75)" width="15.5" xlink:href="#sprite0"/>
    <use height="15.6" id="myButton" transform="matrix(1.0, 0.0, 0.0, 1.0, -7.75, -7.8)" width="15.5" xlink:href="#button0"/>
    <use height="8.25" transform="matrix(1.0, 0.0, 0.0, 1.0, -3.65, -4.1)" width="7.25" xlink:href="#shape1"/>
  </g>
  <defs>
    <g id="sprite0" transform="matrix(1.0, 0.0, 0.0, 1.0, 0.0, 0.0)">
      <use height="15.55" transform="matrix(1.0, 0.0, 0.0, 1.0, 0.0, 0.0)" width="15.5" xlink:href="#shape0"/>
    </g>
    <g id="shape0" transform="matrix(1.0, 0.0, 0.0, 1.0, 0.0, 0.0)">
      <path d="M15.5 0.0 L15.5 15.55 0.0 15.55 0.0 0.0 15.5 0.0" fill="url(#gradient0)" fill-rule="evenodd" stroke="none"/>
      <path d="M15.5 0.0 L15.5 15.55 M0.0 15.55 L0.0 0.0" fill="none" stroke="#999999" stroke-linecap="round" stroke-linejoin="round" stroke-width="0.05"/>
    </g>
    <linearGradient gradientTransform="matrix(0.0, -0.0095, 0.0095, 0.0, 159.2, 7.8)" gradientUnits="userSpaceOnUse" id="gradient0" spreadMethod="pad" x1="-819.2" x2="819.2">
      <stop offset="0.0" stop-color="#666666"/>
      <stop offset="0.3176470588235294" stop-color="#999999"/>
      <stop offset="0.5254901960784314" stop-color="#999999"/>
      <stop offset="1.0" stop-color="#cccccc"/>
    </linearGradient>
    <g id="shape1" transform="matrix(1.0, 0.0, 0.0, 1.0, 3.65, 4.1)">
      <path d="M3.35 -0.2 L3.25 -0.3 -3.0 -3.8 -3.2 -3.85 -3.35 -3.75 -3.4 -3.6 -3.4 3.65 -3.35 3.8 -3.2 3.9 -3.0 3.9 3.25 0.15 3.35 0.0 3.35 -0.2 M3.6 -0.25 L3.6 0.1 3.4 0.35 -2.9 4.1 -3.2 4.15 -3.5 4.0 -3.65 3.65 -3.65 -3.6 -3.5 -3.9 -3.25 -4.1 -2.9 -4.0 3.4 -0.5 3.6 -0.25" fill="#333333" fill-opacity="0.29803923" fill-rule="evenodd" stroke="none"/>
      <path d="M3.35 -0.2 L3.35 0.0 3.25 0.15 -3.0 3.9 -3.2 3.9 -3.35 3.8 -3.4 3.65 -3.4 -3.6 -3.35 -3.75 -3.2 -3.85 -3.0 -3.8 3.25 -0.3 3.35 -0.2 M-3.15 3.65 L3.15 -0.1 -3.15 -3.6 -3.15 3.65" fill="#333333" fill-opacity="0.6" fill-rule="evenodd" stroke="none"/>
      <path d="M-3.15 3.65 L-3.15 -3.6 3.15 -0.1 -3.15 3.65" fill="#ffffff" fill-rule="evenodd" stroke="none"/>
    </g>
  </defs>
</svg>
