<?xml version="1.0" encoding="UTF-8" standalone="no"?>
<svg xmlns:xlink="http://www.w3.org/1999/xlink" height="227.65px" width="257.85px" xmlns="http://www.w3.org/2000/svg">
  <g transform="matrix(1.0, 0.0, 0.0, 1.0, -0.3, -2.6)">
    <use height="35.8" transform="matrix(0.2734, 0.0, 0.0, 0.2734, 0.5605, 3.4707)" width="26.15" xlink:href="#shape0"/>
    <use height="24.95" transform="matrix(0.2734, 0.0, 0.0, 0.2734, 9.0195, 6.4238)" width="27.9" xlink:href="#shape1"/>
    <use height="35.6" transform="matrix(0.2734, 0.0, 0.0, 0.2734, 17.9195, 6.4785)" width="26.9" xlink:href="#shape2"/>
    <use height="24.9" transform="matrix(0.2734, 0.0, 0.0, 0.2734, 26.6828, 6.4375)" width="20.3" xlink:href="#shape3"/>
    <use height="24.7" transform="matrix(0.2734, 0.0, 0.0, 0.2734, 37.1195, 6.4648)" width="18.45" xlink:href="#shape4"/>
    <use height="24.75" transform="matrix(0.2734, 0.0, 0.0, 0.2734, 43.4195, 6.4512)" width="27.1" xlink:href="#shape5"/>
    <use height="23.7" transform="matrix(0.2734, 0.0, 0.0, 0.2734, 52.6156, 6.5195)" width="24.5" xlink:href="#shape6"/>
    <use height="24.75" transform="matrix(0.2734, 0.0, 0.0, 0.2734, 64.5695, 6.4512)" width="27.1" xlink:href="#shape5"/>
    <use height="35.6" transform="matrix(0.2734, 0.0, 0.0, 0.2734, 73.7656, 6.4512)" width="27.1" xlink:href="#shape7"/>
    <use height="35.6" transform="matrix(0.2734, 0.0, 0.0, 0.2734, 82.7156, 6.4512)" width="27.1" xlink:href="#shape7"/>
    <use height="23.5" transform="matrix(0.2734, 0.0, 0.0, 0.2734, 91.6656, 6.5742)" width="17.4" xlink:href="#shape8"/>
    <use height="24.95" transform="matrix(0.2734, 0.0, 0.0, 0.2734, 97.4195, 6.4238)" width="27.9" xlink:href="#shape1"/>
    <use height="24.75" transform="matrix(0.2734, 0.0, 0.0, 0.2734, 106.3195, 6.4512)" width="27.1" xlink:href="#shape5"/>
    <use height="24.7" transform="matrix(0.2734, 0.0, 0.0, 0.2734, 115.2695, 6.4648)" width="18.45" xlink:href="#shape4"/>
    <use height="37.55" transform="matrix(0.2734, 0.0, 0.0, 0.2734, 121.8156, 2.7324)" width="24.5" xlink:href="#shape9"/>
    <use height="38.05" transform="matrix(0.2734, 0.0, 0.0, 0.2734, 133.4004, 2.5957)" width="16.9" xlink:href="#shape10"/>
    <use height="23.5" transform="matrix(0.2734, 0.0, 0.0, 0.2734, 139.1156, 6.5742)" width="17.4" xlink:href="#shape8"/>
    <use height="24.95" transform="matrix(0.2734, 0.0, 0.0, 0.2734, 144.8695, 6.4238)" width="27.9" xlink:href="#shape1"/>
    <use height="23.6" transform="matrix(0.2734, 0.0, 0.0, 0.2734, 154.0156, 6.5469)" width="39.25" xlink:href="#shape11"/>
    <use height="24.75" transform="matrix(0.2734, 0.0, 0.0, 0.2734, 170.0695, 6.4512)" width="27.1" xlink:href="#shape5"/>
    <use height="23.7" transform="matrix(0.2734, 0.0, 0.0, 0.2734, 179.2656, 6.5195)" width="24.5" xlink:href="#shape6"/>
    <use height="34.85" transform="matrix(0.2734, 0.0, 0.0, 0.2734, 186.95, 6.6563)" width="31.15" xlink:href="#shape12"/>
    <use height="38.35" transform="matrix(0.2734, 0.0, 0.0, 0.2734, 199.9695, 2.7324)" width="27.1" xlink:href="#shape13"/>
    <use height="36.7" transform="matrix(0.2734, 0.0, 0.0, 0.2734, 209.0289, 2.9648)" width="9.2" xlink:href="#shape14"/>
    <use height="23.5" transform="matrix(0.2734, 0.0, 0.0, 0.2734, 213.1656, 6.5742)" width="17.4" xlink:href="#shape8"/>
    <use height="24.8" transform="matrix(0.2734, 0.0, 0.0, 0.2734, 218.9059, 6.4785)" width="25.55" xlink:href="#shape15"/>
    <use height="24.7" transform="matrix(0.2734, 0.0, 0.0, 0.2734, 227.1695, 6.4648)" width="18.45" xlink:href="#shape4"/>
    <use height="30.15" transform="matrix(0.2734, 0.0, 0.0, 0.2734, 233.2508, 4.7559)" width="15.55" xlink:href="#shape16"/>
    <use height="36.7" transform="matrix(0.2734, 0.0, 0.0, 0.2734, 238.4289, 2.9648)" width="9.2" xlink:href="#shape14"/>
    <use height="24.95" transform="matrix(0.2734, 0.0, 0.0, 0.2734, 242.3195, 6.4238)" width="27.9" xlink:href="#shape1"/>
    <use height="23.7" transform="matrix(0.2734, 0.0, 0.0, 0.2734, 251.4656, 6.5195)" width="24.5" xlink:href="#shape6"/>
    <use height="24.75" transform="matrix(0.2734, 0.0, 0.0, 0.2734, 0.5195, 20.4512)" width="27.1" xlink:href="#shape5"/>
    <use height="23.7" transform="matrix(0.2734, 0.0, 0.0, 0.2734, 9.7156, 20.5195)" width="24.5" xlink:href="#shape6"/>
    <use height="38.35" transform="matrix(0.2734, 0.0, 0.0, 0.2734, 17.9195, 16.7324)" width="27.1" xlink:href="#shape13"/>
    <use height="24.9" transform="matrix(0.2734, 0.0, 0.0, 0.2734, 30.4828, 20.4375)" width="20.3" xlink:href="#shape3"/>
    <use height="35.6" transform="matrix(0.2734, 0.0, 0.0, 0.2734, 37.4156, 20.4512)" width="27.1" xlink:href="#shape7"/>
    <use height="24.8" transform="matrix(0.2734, 0.0, 0.0, 0.2734, 46.1059, 20.4785)" width="25.55" xlink:href="#shape15"/>
    <use height="24.8" transform="matrix(0.2734, 0.0, 0.0, 0.2734, 54.3559, 20.4785)" width="25.55" xlink:href="#shape15"/>
    <use height="38.35" transform="matrix(0.2734, 0.0, 0.0, 0.2734, 62.6195, 16.7324)" width="27.1" xlink:href="#shape13"/>
    <use height="15.3" transform="matrix(0.1894, 0.0, 0.0, 0.1894, 71.7161, 24.3661)" width="15.3" xlink:href="#shape17"/>
    <use height="35.05" transform="matrix(0.2734, 0.0, 0.0, 0.2734, 84.0344, 17.6621)" width="29.75" xlink:href="#shape18"/>
    <use height="24.9" transform="matrix(0.2734, 0.0, 0.0, 0.2734, 93.7828, 20.4375)" width="20.3" xlink:href="#shape3"/>
    <use height="24.8" transform="matrix(0.2734, 0.0, 0.0, 0.2734, 100.4559, 20.4785)" width="25.55" xlink:href="#shape15"/>
    <use height="34.85" transform="matrix(0.2734, 0.0, 0.0, 0.2734, 111.95, 20.6563)" width="31.15" xlink:href="#shape12"/>
    <use height="24.95" transform="matrix(0.2734, 0.0, 0.0, 0.2734, 121.2195, 20.4238)" width="27.9" xlink:href="#shape1"/>
    <use height="24.2" transform="matrix(0.2734, 0.0, 0.0, 0.2734, 130.3656, 20.6563)" width="24.75" xlink:href="#shape19"/>
    <use height="23.5" transform="matrix(0.2734, 0.0, 0.0, 0.2734, 138.9156, 20.5742)" width="17.4" xlink:href="#shape8"/>
    <use height="35.8" transform="matrix(0.2734, 0.0, 0.0, 0.2734, 148.4605, 17.4707)" width="26.15" xlink:href="#shape0"/>
    <use height="24.95" transform="matrix(0.2734, 0.0, 0.0, 0.2734, 156.9195, 20.4238)" width="27.9" xlink:href="#shape1"/>
    <use height="35.6" transform="matrix(0.2734, 0.0, 0.0, 0.2734, 165.8195, 20.4785)" width="26.9" xlink:href="#shape2"/>
    <use height="34.15" transform="matrix(0.2734, 0.0, 0.0, 0.2734, 178.9344, 17.6621)" width="29.9" xlink:href="#shape20"/>
    <use height="24.8" transform="matrix(0.2734, 0.0, 0.0, 0.2734, 188.4559, 20.4785)" width="25.55" xlink:href="#shape15"/>
    <use height="30.15" transform="matrix(0.2734, 0.0, 0.0, 0.2734, 196.5008, 18.7559)" width="15.55" xlink:href="#shape16"/>
    <use height="24.8" transform="matrix(0.2734, 0.0, 0.0, 0.2734, 201.5559, 20.4785)" width="25.55" xlink:href="#shape15"/>
    <use height="24.7" transform="matrix(0.2734, 0.0, 0.0, 0.2734, 209.8195, 20.4648)" width="18.45" xlink:href="#shape4"/>
    <use height="30.15" transform="matrix(0.2734, 0.0, 0.0, 0.2734, 215.9008, 18.7559)" width="15.55" xlink:href="#shape16"/>
    <use height="24.95" transform="matrix(0.2734, 0.0, 0.0, 0.2734, 220.9695, 20.4238)" width="27.9" xlink:href="#shape1"/>
    <use height="23.5" transform="matrix(0.2734, 0.0, 0.0, 0.2734, 230.1156, 20.5742)" width="17.4" xlink:href="#shape8"/>
    <use height="30.15" transform="matrix(0.2734, 0.0, 0.0, 0.2734, 239.4008, 18.7559)" width="15.55" xlink:href="#shape16"/>
    <use height="24.95" transform="matrix(0.2734, 0.0, 0.0, 0.2734, 244.4695, 20.4238)" width="27.9" xlink:href="#shape1"/>
    <use height="30.15" transform="matrix(0.2734, 0.0, 0.0, 0.2734, 0.3008, 33.7559)" width="15.55" xlink:href="#shape16"/>
    <use height="23.5" transform="matrix(0.2734, 0.0, 0.0, 0.2734, 5.6156, 35.5742)" width="17.4" xlink:href="#shape8"/>
    <use height="24.75" transform="matrix(0.2734, 0.0, 0.0, 0.2734, 11.3695, 35.4512)" width="27.1" xlink:href="#shape5"/>
    <use height="24.7" transform="matrix(0.2734, 0.0, 0.0, 0.2734, 20.3195, 35.4648)" width="18.45" xlink:href="#shape4"/>
    <use height="37.5" transform="matrix(0.2734, 0.0, 0.0, 0.2734, 26.8656, 31.7461)" width="28.75" xlink:href="#shape21"/>
    <use height="30.15" transform="matrix(0.2734, 0.0, 0.0, 0.2734, 39.0508, 33.7559)" width="15.55" xlink:href="#shape16"/>
    <use height="37.55" transform="matrix(0.2734, 0.0, 0.0, 0.2734, 44.3656, 31.7324)" width="24.5" xlink:href="#shape9"/>
    <use height="24.8" transform="matrix(0.2734, 0.0, 0.0, 0.2734, 52.5559, 35.4785)" width="25.55" xlink:href="#shape15"/>
    <use height="36.7" transform="matrix(0.2734, 0.0, 0.0, 0.2734, 60.9289, 31.9648)" width="9.2" xlink:href="#shape14"/>
    <use height="23.5" transform="matrix(0.2734, 0.0, 0.0, 0.2734, 65.0656, 35.5742)" width="17.4" xlink:href="#shape8"/>
    <use height="6.8" transform="matrix(0.1731, 0.0, 0.0, 1.5079, 74.8, 31.777)" width="12.95" xlink:href="#shape22"/>
    <use height="24.95" transform="matrix(0.2734, 0.0, 0.0, 0.2734, 78.5695, 35.4238)" width="27.9" xlink:href="#shape1"/>
    <use height="24.7" transform="matrix(0.2734, 0.0, 0.0, 0.2734, 87.4695, 35.4648)" width="18.45" xlink:href="#shape4"/>
    <use height="24.75" transform="matrix(0.2734, 0.0, 0.0, 0.2734, 93.7695, 35.4512)" width="27.1" xlink:href="#shape5"/>
    <use height="30.15" transform="matrix(0.2734, 0.0, 0.0, 0.2734, 102.5008, 33.7559)" width="15.55" xlink:href="#shape16"/>
    <use height="36.7" transform="matrix(0.2734, 0.0, 0.0, 0.2734, 107.6789, 31.9648)" width="9.2" xlink:href="#shape14"/>
    <use height="24.95" transform="matrix(0.2734, 0.0, 0.0, 0.2734, 111.5695, 35.4238)" width="27.9" xlink:href="#shape1"/>
    <use height="23.7" transform="matrix(0.2734, 0.0, 0.0, 0.2734, 120.7156, 35.5195)" width="24.5" xlink:href="#shape6"/>
    <use height="15.3" transform="matrix(0.1894, 0.0, 0.0, 0.1894, 129.0661, 39.3661)" width="15.3" xlink:href="#shape17"/>
    <use height="34.15" transform="matrix(0.2734, 0.0, 0.0, 0.2734, 137.6344, 32.6621)" width="26.0" xlink:href="#shape23"/>
    <use height="24.8" transform="matrix(0.2734, 0.0, 0.0, 0.2734, 146.0559, 35.4785)" width="25.55" xlink:href="#shape15"/>
    <use height="23.2" transform="matrix(0.2734, 0.0, 0.0, 0.2734, 157.55, 35.6563)" width="29.55" xlink:href="#shape24"/>
    <use height="36.7" transform="matrix(0.2734, 0.0, 0.0, 0.2734, 166.5289, 31.9648)" width="9.2" xlink:href="#shape14"/>
    <use height="35.6" transform="matrix(0.2734, 0.0, 0.0, 0.2734, 170.4195, 35.4785)" width="26.9" xlink:href="#shape2"/>
    <use height="36.7" transform="matrix(0.2734, 0.0, 0.0, 0.2734, 179.4289, 31.9648)" width="9.2" xlink:href="#shape14"/>
    <use height="6.8" transform="matrix(0.1731, 0.0, 0.0, 1.5079, 183.55, 31.777)" width="12.95" xlink:href="#shape22"/>
    <use height="24.75" transform="matrix(0.2734, 0.0, 0.0, 0.2734, 187.3195, 35.4512)" width="27.1" xlink:href="#shape5"/>
    <use height="23.7" transform="matrix(0.2734, 0.0, 0.0, 0.2734, 196.5156, 35.5195)" width="24.5" xlink:href="#shape6"/>
    <use height="30.15" transform="matrix(0.2734, 0.0, 0.0, 0.2734, 204.5008, 33.7559)" width="15.55" xlink:href="#shape16"/>
    <use height="24.75" transform="matrix(0.2734, 0.0, 0.0, 0.2734, 213.3195, 35.4512)" width="27.1" xlink:href="#shape5"/>
    <use height="23.7" transform="matrix(0.2734, 0.0, 0.0, 0.2734, 222.5156, 35.5195)" width="24.5" xlink:href="#shape6"/>
    <use height="38.35" transform="matrix(0.2734, 0.0, 0.0, 0.2734, 230.7195, 31.7324)" width="27.1" xlink:href="#shape13"/>
    <use height="38.35" transform="matrix(0.2734, 0.0, 0.0, 0.2734, 0.5195, 45.7324)" width="27.1" xlink:href="#shape13"/>
    <use height="24.95" transform="matrix(0.2734, 0.0, 0.0, 0.2734, 9.4695, 49.4238)" width="27.9" xlink:href="#shape1"/>
    <use height="23.7" transform="matrix(0.2734, 0.0, 0.0, 0.2734, 18.6156, 49.5195)" width="24.5" xlink:href="#shape6"/>
    <use height="15.0" transform="matrix(0.2734, 0.0, 0.0, 0.2744, 26.777, 46.6768)" width="13.55" xlink:href="#shape25"/>
    <use height="30.15" transform="matrix(0.2734, 0.0, 0.0, 0.2734, 31.7008, 47.7559)" width="15.55" xlink:href="#shape16"/>
    <use height="6.8" transform="matrix(0.1731, 0.0, 0.0, 1.5079, 40.75, 45.777)" width="12.95" xlink:href="#shape22"/>
    <use height="24.8" transform="matrix(0.2734, 0.0, 0.0, 0.2734, 44.5059, 49.4785)" width="25.55" xlink:href="#shape15"/>
    <use height="30.15" transform="matrix(0.2734, 0.0, 0.0, 0.2734, 52.5508, 47.7559)" width="15.55" xlink:href="#shape16"/>
    <use height="24.95" transform="matrix(0.2734, 0.0, 0.0, 0.2734, 61.3695, 49.4238)" width="27.9" xlink:href="#shape1"/>
    <use height="23.7" transform="matrix(0.2734, 0.0, 0.0, 0.2734, 70.5156, 49.5195)" width="24.5" xlink:href="#shape6"/>
    <use height="24.8" transform="matrix(0.2734, 0.0, 0.0, 0.2734, 78.7059, 49.4785)" width="25.55" xlink:href="#shape15"/>
    <use height="35.6" transform="matrix(0.2734, 0.0, 0.0, 0.2734, 90.7195, 49.4785)" width="26.9" xlink:href="#shape2"/>
    <use height="24.8" transform="matrix(0.2734, 0.0, 0.0, 0.2734, 99.6059, 49.4785)" width="25.55" xlink:href="#shape15"/>
    <use height="30.15" transform="matrix(0.2734, 0.0, 0.0, 0.2734, 107.6508, 47.7559)" width="15.55" xlink:href="#shape16"/>
    <use height="30.15" transform="matrix(0.2734, 0.0, 0.0, 0.2734, 116.2508, 47.7559)" width="15.55" xlink:href="#shape16"/>
    <use height="24.95" transform="matrix(0.2734, 0.0, 0.0, 0.2734, 121.3195, 49.4238)" width="27.9" xlink:href="#shape1"/>
    <use height="34.85" transform="matrix(0.2734, 0.0, 0.0, 0.2734, 133.45, 49.6563)" width="31.15" xlink:href="#shape12"/>
    <use height="24.95" transform="matrix(0.2734, 0.0, 0.0, 0.2734, 142.7195, 49.4238)" width="27.9" xlink:href="#shape1"/>
    <use height="24.2" transform="matrix(0.2734, 0.0, 0.0, 0.2734, 151.8656, 49.6563)" width="24.75" xlink:href="#shape19"/>
    <use height="35.15" transform="matrix(0.2734, 0.0, 0.0, 0.2734, 160.5934, 46.6621)" width="10.6" xlink:href="#shape26"/>
    <use height="34.15" transform="matrix(0.2734, 0.0, 0.0, 0.2734, 0.5605, 75.6621)" width="42.75" xlink:href="#shape27"/>
    <use height="24.95" transform="matrix(0.2734, 0.0, 0.0, 0.2734, 13.5695, 78.4238)" width="27.9" xlink:href="#shape1"/>
    <use height="23.2" transform="matrix(0.2734, 0.0, 0.0, 0.2734, 21.95, 78.6563)" width="29.55" xlink:href="#shape24"/>
    <use height="24.8" transform="matrix(0.2734, 0.0, 0.0, 0.2734, 30.8059, 78.4785)" width="25.55" xlink:href="#shape15"/>
    <use height="34.85" transform="matrix(0.2734, 0.0, 0.0, 0.2734, 42.3, 78.6563)" width="31.15" xlink:href="#shape12"/>
    <use height="24.95" transform="matrix(0.2734, 0.0, 0.0, 0.2734, 51.5695, 78.4238)" width="27.9" xlink:href="#shape1"/>
    <use height="24.2" transform="matrix(0.2734, 0.0, 0.0, 0.2734, 60.7156, 78.6563)" width="24.75" xlink:href="#shape19"/>
    <use height="23.5" transform="matrix(0.2734, 0.0, 0.0, 0.2734, 69.2656, 78.5742)" width="17.4" xlink:href="#shape8"/>
    <use height="36.45" transform="matrix(0.2734, 0.0, 0.0, 0.2734, 78.8105, 75.375)" width="35.75" xlink:href="#shape28"/>
    <use height="24.75" transform="matrix(0.2734, 0.0, 0.0, 0.2734, 89.9195, 78.4512)" width="27.1" xlink:href="#shape5"/>
    <use height="35.6" transform="matrix(0.2734, 0.0, 0.0, 0.2734, 98.8695, 78.4785)" width="26.9" xlink:href="#shape2"/>
    <use height="34.15" transform="matrix(0.2734, 0.0, 0.0, 0.2734, 107.3457, 75.6621)" width="23.45" xlink:href="#shape29"/>
    <use height="24.75" transform="matrix(0.2734, 0.0, 0.0, 0.2734, 114.6195, 78.4512)" width="27.1" xlink:href="#shape5"/>
    <use height="23.5" transform="matrix(0.2734, 0.0, 0.0, 0.2734, 123.8156, 78.5742)" width="17.4" xlink:href="#shape8"/>
    <use height="35.6" transform="matrix(0.2734, 0.0, 0.0, 0.2734, 129.5695, 78.4785)" width="26.9" xlink:href="#shape2"/>
    <use height="24.8" transform="matrix(0.2734, 0.0, 0.0, 0.2734, 138.4559, 78.4785)" width="25.55" xlink:href="#shape15"/>
    <use height="30.15" transform="matrix(0.2734, 0.0, 0.0, 0.2734, 146.5008, 76.7559)" width="15.55" xlink:href="#shape16"/>
    <use height="24.95" transform="matrix(0.2734, 0.0, 0.0, 0.2734, 155.3195, 78.4238)" width="27.9" xlink:href="#shape1"/>
    <use height="23.2" transform="matrix(0.2734, 0.0, 0.0, 0.2734, 163.7, 78.6563)" width="29.55" xlink:href="#shape24"/>
    <use height="24.8" transform="matrix(0.2734, 0.0, 0.0, 0.2734, 172.5559, 78.4785)" width="25.55" xlink:href="#shape15"/>
    <use height="23.5" transform="matrix(0.2734, 0.0, 0.0, 0.2734, 181.0656, 78.5742)" width="17.4" xlink:href="#shape8"/>
    <use height="24.75" transform="matrix(0.2734, 0.0, 0.0, 0.2734, 190.5695, 78.4512)" width="27.1" xlink:href="#shape5"/>
    <use height="23.7" transform="matrix(0.2734, 0.0, 0.0, 0.2734, 199.7656, 78.5195)" width="24.5" xlink:href="#shape6"/>
    <use height="24.8" transform="matrix(0.2734, 0.0, 0.0, 0.2734, 211.7059, 78.4785)" width="25.55" xlink:href="#shape15"/>
    <use height="23.7" transform="matrix(0.2734, 0.0, 0.0, 0.2734, 220.2156, 78.5195)" width="24.5" xlink:href="#shape6"/>
    <use height="24.8" transform="matrix(0.2734, 0.0, 0.0, 0.2734, 228.4059, 78.4785)" width="25.55" xlink:href="#shape15"/>
    <use height="23.6" transform="matrix(0.2734, 0.0, 0.0, 0.2734, 236.9156, 78.5469)" width="39.25" xlink:href="#shape11"/>
    <use height="34.85" transform="matrix(0.2734, 0.0, 0.0, 0.2734, 248.7, 78.6563)" width="31.15" xlink:href="#shape12"/>
    <use height="35.8" transform="matrix(0.2734, 0.0, 0.0, 0.2734, 0.5605, 90.4707)" width="26.15" xlink:href="#shape0"/>
    <use height="24.95" transform="matrix(0.2734, 0.0, 0.0, 0.2734, 9.0195, 93.4238)" width="27.9" xlink:href="#shape1"/>
    <use height="35.6" transform="matrix(0.2734, 0.0, 0.0, 0.2734, 17.9195, 93.4785)" width="26.9" xlink:href="#shape2"/>
    <use height="24.75" transform="matrix(0.2734, 0.0, 0.0, 0.2734, 30.5695, 93.4512)" width="27.1" xlink:href="#shape5"/>
    <use height="23.7" transform="matrix(0.2734, 0.0, 0.0, 0.2734, 39.7656, 93.5195)" width="24.5" xlink:href="#shape6"/>
    <use height="38.35" transform="matrix(0.2734, 0.0, 0.0, 0.2734, 47.9695, 89.7324)" width="27.1" xlink:href="#shape13"/>
    <use height="24.7" transform="matrix(0.2734, 0.0, 0.0, 0.2734, 60.6695, 93.4648)" width="18.45" xlink:href="#shape4"/>
    <use height="6.8" transform="matrix(0.1731, 0.0, 0.0, 1.5079, 67.2, 89.777)" width="12.95" xlink:href="#shape22"/>
    <use height="36.7" transform="matrix(0.2734, 0.0, 0.0, 0.2734, 71.0789, 89.9648)" width="9.2" xlink:href="#shape14"/>
    <use height="24.7" transform="matrix(0.2734, 0.0, 0.0, 0.2734, 74.9695, 93.4648)" width="18.45" xlink:href="#shape4"/>
    <use height="37.5" transform="matrix(0.2734, 0.0, 0.0, 0.2734, 81.5156, 89.7461)" width="28.75" xlink:href="#shape21"/>
    <use height="30.15" transform="matrix(0.2734, 0.0, 0.0, 0.2734, 93.7008, 91.7559)" width="15.55" xlink:href="#shape16"/>
    <use height="37.55" transform="matrix(0.2734, 0.0, 0.0, 0.2734, 99.0156, 89.7324)" width="24.5" xlink:href="#shape9"/>
    <use height="24.8" transform="matrix(0.2734, 0.0, 0.0, 0.2734, 107.2059, 93.4785)" width="25.55" xlink:href="#shape15"/>
    <use height="23.6" transform="matrix(0.2734, 0.0, 0.0, 0.2734, 119.4656, 93.5469)" width="39.25" xlink:href="#shape11"/>
    <use height="24.95" transform="matrix(0.2734, 0.0, 0.0, 0.2734, 131.7695, 93.4238)" width="27.9" xlink:href="#shape1"/>
    <use height="24.2" transform="matrix(0.2734, 0.0, 0.0, 0.2734, 140.9156, 93.6563)" width="24.75" xlink:href="#shape19"/>
    <use height="24.9" transform="matrix(0.2734, 0.0, 0.0, 0.2734, 149.0828, 93.4375)" width="20.3" xlink:href="#shape3"/>
    <use height="24.8" transform="matrix(0.2734, 0.0, 0.0, 0.2734, 155.7559, 93.4785)" width="25.55" xlink:href="#shape15"/>
    <use height="30.15" transform="matrix(0.2734, 0.0, 0.0, 0.2734, 167.5508, 91.7559)" width="15.55" xlink:href="#shape16"/>
    <use height="24.95" transform="matrix(0.2734, 0.0, 0.0, 0.2734, 172.6195, 93.4238)" width="27.9" xlink:href="#shape1"/>
    <use height="15.05" transform="matrix(0.2734, 0.0, 0.0, 0.2734, 185.4063, 90.6621)" width="25.2" xlink:href="#shape30"/>
    <use height="36.45" transform="matrix(0.2734, 0.0, 0.0, 0.2734, 193.5605, 90.375)" width="35.75" xlink:href="#shape28"/>
    <use height="24.75" transform="matrix(0.2734, 0.0, 0.0, 0.2734, 204.6695, 93.4512)" width="27.1" xlink:href="#shape5"/>
    <use height="35.6" transform="matrix(0.2734, 0.0, 0.0, 0.2734, 213.6195, 93.4785)" width="26.9" xlink:href="#shape2"/>
    <use height="15.05" transform="matrix(0.2734, 0.0, 0.0, 0.2734, 222.4648, 90.6621)" width="25.2" xlink:href="#shape31"/>
    <use height="30.15" transform="matrix(0.2734, 0.0, 0.0, 0.2734, 234.3008, 91.7559)" width="15.55" xlink:href="#shape16"/>
    <use height="37.55" transform="matrix(0.2734, 0.0, 0.0, 0.2734, 239.6156, 89.7324)" width="24.5" xlink:href="#shape9"/>
    <use height="24.8" transform="matrix(0.2734, 0.0, 0.0, 0.2734, 247.8059, 93.4785)" width="25.55" xlink:href="#shape15"/>
    <use height="24.75" transform="matrix(0.2734, 0.0, 0.0, 0.2734, 0.5195, 107.4512)" width="27.1" xlink:href="#shape5"/>
    <use height="35.6" transform="matrix(0.2734, 0.0, 0.0, 0.2734, 9.7156, 107.4512)" width="27.1" xlink:href="#shape7"/>
    <use height="35.6" transform="matrix(0.2734, 0.0, 0.0, 0.2734, 18.6656, 107.4512)" width="27.1" xlink:href="#shape7"/>
    <use height="23.5" transform="matrix(0.2734, 0.0, 0.0, 0.2734, 27.6156, 107.5742)" width="17.4" xlink:href="#shape8"/>
    <use height="24.95" transform="matrix(0.2734, 0.0, 0.0, 0.2734, 33.3695, 107.4238)" width="27.9" xlink:href="#shape1"/>
    <use height="24.75" transform="matrix(0.2734, 0.0, 0.0, 0.2734, 42.2695, 107.4512)" width="27.1" xlink:href="#shape5"/>
    <use height="24.7" transform="matrix(0.2734, 0.0, 0.0, 0.2734, 51.2195, 107.4648)" width="18.45" xlink:href="#shape4"/>
    <use height="37.55" transform="matrix(0.2734, 0.0, 0.0, 0.2734, 57.7656, 103.7324)" width="24.5" xlink:href="#shape9"/>
    <use height="36.7" transform="matrix(0.2734, 0.0, 0.0, 0.2734, 66.0789, 103.9648)" width="9.2" xlink:href="#shape14"/>
    <use height="23.7" transform="matrix(0.2734, 0.0, 0.0, 0.2734, 70.2156, 107.5195)" width="24.5" xlink:href="#shape6"/>
    <use height="35.6" transform="matrix(0.2734, 0.0, 0.0, 0.2734, 78.4195, 107.4785)" width="26.9" xlink:href="#shape2"/>
    <use height="35.8" transform="matrix(0.2734, 0.0, 0.0, 0.2734, 91.1105, 104.4707)" width="26.15" xlink:href="#shape0"/>
    <use height="24.95" transform="matrix(0.2734, 0.0, 0.0, 0.2734, 99.5695, 107.4238)" width="27.9" xlink:href="#shape1"/>
    <use height="35.6" transform="matrix(0.2734, 0.0, 0.0, 0.2734, 108.4695, 107.4785)" width="26.9" xlink:href="#shape2"/>
    <use height="15.3" transform="matrix(0.1894, 0.0, 0.0, 0.1894, 117.5161, 111.3661)" width="15.3" xlink:href="#shape17"/>
    <use height="35.05" transform="matrix(0.2734, 0.0, 0.0, 0.2734, 0.9844, 133.6621)" width="29.75" xlink:href="#shape18"/>
    <use height="24.9" transform="matrix(0.2734, 0.0, 0.0, 0.2734, 10.7328, 136.4375)" width="20.3" xlink:href="#shape3"/>
    <use height="24.8" transform="matrix(0.2734, 0.0, 0.0, 0.2734, 17.4059, 136.4785)" width="25.55" xlink:href="#shape15"/>
    <use height="34.85" transform="matrix(0.2734, 0.0, 0.0, 0.2734, 28.9, 136.6563)" width="31.15" xlink:href="#shape12"/>
    <use height="24.95" transform="matrix(0.2734, 0.0, 0.0, 0.2734, 38.1695, 136.4238)" width="27.9" xlink:href="#shape1"/>
    <use height="24.2" transform="matrix(0.2734, 0.0, 0.0, 0.2734, 47.3156, 136.6563)" width="24.75" xlink:href="#shape19"/>
    <use height="23.5" transform="matrix(0.2734, 0.0, 0.0, 0.2734, 55.8656, 136.5742)" width="17.4" xlink:href="#shape8"/>
    <use height="23.5" transform="matrix(0.2734, 0.0, 0.0, 0.2734, 65.6156, 136.5742)" width="17.4" xlink:href="#shape8"/>
    <use height="36.7" transform="matrix(0.2734, 0.0, 0.0, 0.2734, 71.4789, 132.9648)" width="9.2" xlink:href="#shape14"/>
    <use height="35.6" transform="matrix(0.2734, 0.0, 0.0, 0.2734, 75.3695, 136.4785)" width="26.9" xlink:href="#shape2"/>
    <use height="37.55" transform="matrix(0.2734, 0.0, 0.0, 0.2734, 84.5156, 132.7324)" width="24.5" xlink:href="#shape9"/>
    <use height="30.15" transform="matrix(0.2734, 0.0, 0.0, 0.2734, 92.5008, 134.7559)" width="15.55" xlink:href="#shape16"/>
    <use height="24.75" transform="matrix(0.2734, 0.0, 0.0, 0.2734, 101.3195, 136.4512)" width="27.1" xlink:href="#shape5"/>
    <use height="23.7" transform="matrix(0.2734, 0.0, 0.0, 0.2734, 110.5156, 136.5195)" width="24.5" xlink:href="#shape6"/>
    <use height="38.35" transform="matrix(0.2734, 0.0, 0.0, 0.2734, 118.7195, 132.7324)" width="27.1" xlink:href="#shape13"/>
    <use height="6.8" transform="matrix(0.1731, 0.0, 0.0, 1.5079, 131.65, 132.777)" width="12.95" xlink:href="#shape22"/>
    <use height="24.8" transform="matrix(0.2734, 0.0, 0.0, 0.2734, 135.4059, 136.4785)" width="25.55" xlink:href="#shape15"/>
    <use height="38.05" transform="matrix(0.2734, 0.0, 0.0, 0.2734, 143.3004, 132.5957)" width="16.9" xlink:href="#shape10"/>
    <use height="30.15" transform="matrix(0.2734, 0.0, 0.0, 0.2734, 148.5508, 134.7559)" width="15.55" xlink:href="#shape16"/>
    <use height="24.75" transform="matrix(0.2734, 0.0, 0.0, 0.2734, 157.3695, 136.4512)" width="27.1" xlink:href="#shape5"/>
    <use height="23.5" transform="matrix(0.2734, 0.0, 0.0, 0.2734, 166.5656, 136.5742)" width="17.4" xlink:href="#shape8"/>
    <use height="23.5" transform="matrix(0.2734, 0.0, 0.0, 0.2734, 172.5656, 136.5742)" width="17.4" xlink:href="#shape8"/>
    <use height="24.95" transform="matrix(0.2734, 0.0, 0.0, 0.2734, 178.3195, 136.4238)" width="27.9" xlink:href="#shape1"/>
    <use height="23.2" transform="matrix(0.2734, 0.0, 0.0, 0.2734, 186.7, 136.6563)" width="46.45" xlink:href="#shape32"/>
    <use height="37.5" transform="matrix(0.2734, 0.0, 0.0, 0.2734, 204.1656, 132.7461)" width="28.75" xlink:href="#shape21"/>
    <use height="24.8" transform="matrix(0.2734, 0.0, 0.0, 0.2734, 212.8059, 136.4785)" width="25.55" xlink:href="#shape15"/>
    <use height="34.85" transform="matrix(0.2734, 0.0, 0.0, 0.2734, 220.55, 136.6563)" width="31.15" xlink:href="#shape12"/>
    <use height="24.9" transform="matrix(0.2734, 0.0, 0.0, 0.2734, 229.6828, 136.4375)" width="20.3" xlink:href="#shape3"/>
    <use height="48.25" transform="matrix(0.2734, 0.0, 0.0, 0.2734, 0.9434, 146.3496)" width="11.5" xlink:href="#shape33"/>
    <use height="24.95" transform="matrix(0.2734, 0.0, 0.0, 0.2734, 5.5195, 150.4238)" width="27.9" xlink:href="#shape1"/>
    <use height="23.5" transform="matrix(0.2734, 0.0, 0.0, 0.2734, 14.6656, 150.5742)" width="17.4" xlink:href="#shape8"/>
    <use height="34.15" transform="matrix(0.2734, 0.0, 0.0, 0.2734, 23.8414, 147.6621)" width="30.95" xlink:href="#shape34"/>
    <use height="24.75" transform="matrix(0.2734, 0.0, 0.0, 0.2734, 37.0195, 150.4512)" width="27.1" xlink:href="#shape5"/>
    <use height="23.7" transform="matrix(0.2734, 0.0, 0.0, 0.2734, 46.2156, 150.5195)" width="24.5" xlink:href="#shape6"/>
    <use height="38.35" transform="matrix(0.2734, 0.0, 0.0, 0.2734, 54.4195, 146.7324)" width="27.1" xlink:href="#shape13"/>
    <use height="34.15" transform="matrix(0.2734, 0.0, 0.0, 0.2734, 66.6, 147.6621)" width="36.4" xlink:href="#shape35"/>
    <use height="37.5" transform="matrix(0.2734, 0.0, 0.0, 0.2734, 81.3156, 146.7461)" width="28.75" xlink:href="#shape21"/>
    <use height="24.8" transform="matrix(0.2734, 0.0, 0.0, 0.2734, 89.9559, 150.4785)" width="25.55" xlink:href="#shape15"/>
    <use height="34.85" transform="matrix(0.2734, 0.0, 0.0, 0.2734, 97.7, 150.6563)" width="31.15" xlink:href="#shape12"/>
    <use height="24.9" transform="matrix(0.2734, 0.0, 0.0, 0.2734, 106.8328, 150.4375)" width="20.3" xlink:href="#shape3"/>
    <use height="48.25" transform="matrix(0.2734, 0.0, 0.0, 0.2734, 113.6563, 146.3496)" width="11.55" xlink:href="#shape36"/>
    <use height="30.15" transform="matrix(0.2734, 0.0, 0.0, 0.2734, 122.0508, 148.7559)" width="15.55" xlink:href="#shape16"/>
    <use height="24.95" transform="matrix(0.2734, 0.0, 0.0, 0.2734, 127.1195, 150.4238)" width="27.9" xlink:href="#shape1"/>
    <use height="30.15" transform="matrix(0.2734, 0.0, 0.0, 0.2734, 139.5508, 148.7559)" width="15.55" xlink:href="#shape16"/>
    <use height="24.2" transform="matrix(0.2734, 0.0, 0.0, 0.2734, 144.8656, 150.6563)" width="24.75" xlink:href="#shape19"/>
    <use height="23.5" transform="matrix(0.2734, 0.0, 0.0, 0.2734, 153.4156, 150.5742)" width="17.4" xlink:href="#shape8"/>
    <use height="23.7" transform="matrix(0.2734, 0.0, 0.0, 0.2734, 159.4156, 150.5195)" width="24.5" xlink:href="#shape6"/>
    <use height="38.05" transform="matrix(0.2734, 0.0, 0.0, 0.2734, 171.0004, 146.5957)" width="16.9" xlink:href="#shape10"/>
    <use height="23.5" transform="matrix(0.2734, 0.0, 0.0, 0.2734, 176.7156, 150.5742)" width="17.4" xlink:href="#shape8"/>
    <use height="24.95" transform="matrix(0.2734, 0.0, 0.0, 0.2734, 182.4695, 150.4238)" width="27.9" xlink:href="#shape1"/>
    <use height="23.6" transform="matrix(0.2734, 0.0, 0.0, 0.2734, 191.6156, 150.5469)" width="39.25" xlink:href="#shape11"/>
    <use height="24.9" transform="matrix(0.2734, 0.0, 0.0, 0.2734, 207.5328, 150.4375)" width="20.3" xlink:href="#shape3"/>
    <use height="36.7" transform="matrix(0.2734, 0.0, 0.0, 0.2734, 214.3289, 146.9648)" width="9.2" xlink:href="#shape14"/>
    <use height="38.35" transform="matrix(0.2734, 0.0, 0.0, 0.2734, 218.2195, 146.7324)" width="27.1" xlink:href="#shape13"/>
    <use height="24.8" transform="matrix(0.2734, 0.0, 0.0, 0.2734, 227.1559, 150.4785)" width="25.55" xlink:href="#shape15"/>
    <use height="30.15" transform="matrix(0.2734, 0.0, 0.0, 0.2734, 0.3008, 163.7559)" width="15.55" xlink:href="#shape16"/>
    <use height="24.95" transform="matrix(0.2734, 0.0, 0.0, 0.2734, 5.3695, 165.4238)" width="27.9" xlink:href="#shape1"/>
    <use height="24.9" transform="matrix(0.2734, 0.0, 0.0, 0.2734, 17.8828, 165.4375)" width="20.3" xlink:href="#shape3"/>
    <use height="36.7" transform="matrix(0.2734, 0.0, 0.0, 0.2734, 24.6789, 161.9648)" width="9.2" xlink:href="#shape14"/>
    <use height="38.35" transform="matrix(0.2734, 0.0, 0.0, 0.2734, 28.5695, 161.7324)" width="27.1" xlink:href="#shape13"/>
    <use height="24.8" transform="matrix(0.2734, 0.0, 0.0, 0.2734, 37.5059, 165.4785)" width="25.55" xlink:href="#shape15"/>
    <use height="15.0" transform="matrix(0.2734, 0.0, 0.0, 0.2734, 45.127, 169.6348)" width="13.55" xlink:href="#shape25"/>
    <use height="35.6" transform="matrix(0.2734, 0.0, 0.0, 0.2734, 54.2656, 165.4512)" width="27.1" xlink:href="#shape7"/>
    <use height="23.5" transform="matrix(0.2734, 0.0, 0.0, 0.2734, 63.2156, 165.5742)" width="17.4" xlink:href="#shape8"/>
    <use height="24.95" transform="matrix(0.2734, 0.0, 0.0, 0.2734, 68.9695, 165.4238)" width="27.9" xlink:href="#shape1"/>
    <use height="23.2" transform="matrix(0.2734, 0.0, 0.0, 0.2734, 77.35, 165.6563)" width="29.55" xlink:href="#shape24"/>
    <use height="36.7" transform="matrix(0.2734, 0.0, 0.0, 0.2734, 86.3289, 161.9648)" width="9.2" xlink:href="#shape14"/>
    <use height="38.35" transform="matrix(0.2734, 0.0, 0.0, 0.2734, 90.2195, 161.7324)" width="27.1" xlink:href="#shape13"/>
    <use height="36.7" transform="matrix(0.2734, 0.0, 0.0, 0.2734, 99.2789, 161.9648)" width="9.2" xlink:href="#shape14"/>
    <use height="23.7" transform="matrix(0.2734, 0.0, 0.0, 0.2734, 103.4156, 165.5195)" width="24.5" xlink:href="#shape6"/>
    <use height="35.6" transform="matrix(0.2734, 0.0, 0.0, 0.2734, 111.6195, 165.4785)" width="26.9" xlink:href="#shape2"/>
    <use height="34.85" transform="matrix(0.2734, 0.0, 0.0, 0.2734, 123.75, 165.6563)" width="31.15" xlink:href="#shape12"/>
    <use height="24.95" transform="matrix(0.2734, 0.0, 0.0, 0.2734, 133.0195, 165.4238)" width="27.9" xlink:href="#shape1"/>
    <use height="24.2" transform="matrix(0.2734, 0.0, 0.0, 0.2734, 142.1656, 165.6563)" width="24.75" xlink:href="#shape19"/>
    <use height="23.5" transform="matrix(0.2734, 0.0, 0.0, 0.2734, 150.7156, 165.5742)" width="17.4" xlink:href="#shape8"/>
    <use height="34.15" transform="matrix(0.2734, 0.0, 0.0, 0.2734, 159.7957, 162.6621)" width="23.45" xlink:href="#shape29"/>
    <use height="24.95" transform="matrix(0.2734, 0.0, 0.0, 0.2734, 167.0695, 165.4238)" width="27.9" xlink:href="#shape1"/>
    <use height="24.95" transform="matrix(0.2734, 0.0, 0.0, 0.2734, 175.9695, 165.4238)" width="27.9" xlink:href="#shape1"/>
    <use height="23.7" transform="matrix(0.2734, 0.0, 0.0, 0.2734, 185.1156, 165.5195)" width="24.5" xlink:href="#shape6"/>
    <use height="24.75" transform="matrix(0.2734, 0.0, 0.0, 0.2734, 197.0695, 165.4512)" width="27.1" xlink:href="#shape5"/>
    <use height="34.15" transform="matrix(0.2734, 0.0, 0.0, 0.2734, 211.2051, 162.6621)" width="13.7" xlink:href="#shape37"/>
    <use height="35.95" transform="matrix(0.2734, 0.0, 0.0, 0.2734, 218.5289, 162.416)" width="26.05" xlink:href="#shape38"/>
    <use height="36.7" transform="matrix(0.2734, 0.0, 0.0, 0.2734, 226.7961, 162.3203)" width="28.9" xlink:href="#shape39"/>
    <use height="6.8" transform="matrix(0.2734, 0.0, 0.0, 0.2734, 235.2, 167.7617)" width="12.95" xlink:href="#shape22"/>
    <use height="38.35" transform="matrix(0.2734, 0.0, 0.0, 0.2734, 0.5195, 175.7324)" width="27.1" xlink:href="#shape13"/>
    <use height="24.8" transform="matrix(0.2734, 0.0, 0.0, 0.2734, 9.4559, 179.4785)" width="25.55" xlink:href="#shape15"/>
    <use height="35.6" transform="matrix(0.2734, 0.0, 0.0, 0.2734, 17.7195, 179.4785)" width="26.9" xlink:href="#shape2"/>
    <use height="23.5" transform="matrix(0.2734, 0.0, 0.0, 0.2734, 26.8656, 179.5742)" width="17.4" xlink:href="#shape8"/>
    <use height="24.8" transform="matrix(0.2734, 0.0, 0.0, 0.2734, 32.6059, 179.4785)" width="25.55" xlink:href="#shape15"/>
    <use height="24.8" transform="matrix(0.2734, 0.0, 0.0, 0.2734, 40.8559, 179.4785)" width="25.55" xlink:href="#shape15"/>
    <use height="23.2" transform="matrix(0.2734, 0.0, 0.0, 0.2734, 52.35, 179.6563)" width="29.55" xlink:href="#shape24"/>
    <use height="36.7" transform="matrix(0.2734, 0.0, 0.0, 0.2734, 61.3289, 175.9648)" width="9.2" xlink:href="#shape14"/>
    <use height="24.8" transform="matrix(0.2734, 0.0, 0.0, 0.2734, 65.2059, 179.4785)" width="25.55" xlink:href="#shape15"/>
    <use height="23.2" transform="matrix(0.2734, 0.0, 0.0, 0.2734, 72.95, 179.6563)" width="46.45" xlink:href="#shape32"/>
    <use height="24.95" transform="matrix(0.2734, 0.0, 0.0, 0.2734, 90.1695, 179.4238)" width="27.9" xlink:href="#shape1"/>
    <use height="38.05" transform="matrix(0.2734, 0.0, 0.0, 0.2734, 98.7004, 175.5957)" width="16.9" xlink:href="#shape10"/>
    <use height="35.85" transform="matrix(0.2734, 0.0, 0.0, 0.2734, 107.9605, 176.4434)" width="25.2" xlink:href="#shape40"/>
    <use height="36.7" transform="matrix(0.2734, 0.0, 0.0, 0.2734, 116.2789, 175.9648)" width="9.2" xlink:href="#shape14"/>
    <use height="6.8" transform="matrix(0.1731, 0.0, 0.0, 1.5079, 120.4, 175.777)" width="12.95" xlink:href="#shape22"/>
    <use height="6.8" transform="matrix(0.1731, 0.0, 0.0, 1.5079, 124.4, 175.777)" width="12.95" xlink:href="#shape22"/>
    <use height="34.85" transform="matrix(0.2734, 0.0, 0.0, 0.2734, 127.65, 179.6563)" width="31.15" xlink:href="#shape12"/>
    <use height="35.85" transform="matrix(0.2734, 0.0, 0.0, 0.2734, 140.7105, 176.4434)" width="25.2" xlink:href="#shape40"/>
    <use height="30.15" transform="matrix(0.2734, 0.0, 0.0, 0.2734, 148.7008, 177.7559)" width="15.55" xlink:href="#shape16"/>
    <use height="23.5" transform="matrix(0.2734, 0.0, 0.0, 0.2734, 154.0156, 179.5742)" width="17.4" xlink:href="#shape8"/>
    <use height="24.8" transform="matrix(0.2734, 0.0, 0.0, 0.2734, 159.7559, 179.4785)" width="25.55" xlink:href="#shape15"/>
    <use height="24.8" transform="matrix(0.2734, 0.0, 0.0, 0.2734, 168.0059, 179.4785)" width="25.55" xlink:href="#shape15"/>
    <use height="30.15" transform="matrix(0.2734, 0.0, 0.0, 0.2734, 176.0508, 177.7559)" width="15.55" xlink:href="#shape16"/>
    <use height="15.3" transform="matrix(0.1894, 0.0, 0.0, 0.1894, 181.2661, 183.3661)" width="15.3" xlink:href="#shape17"/>
    <use height="34.15" transform="matrix(0.2734, 0.0, 0.0, 0.2734, 0.9844, 205.6621)" width="25.95" xlink:href="#shape41"/>
    <use height="23.5" transform="matrix(0.2734, 0.0, 0.0, 0.2734, 9.4156, 208.5742)" width="17.4" xlink:href="#shape8"/>
    <use height="24.8" transform="matrix(0.2734, 0.0, 0.0, 0.2734, 15.1559, 208.4785)" width="25.55" xlink:href="#shape15"/>
    <use height="24.9" transform="matrix(0.2734, 0.0, 0.0, 0.2734, 23.2828, 208.4375)" width="20.3" xlink:href="#shape3"/>
    <use height="24.9" transform="matrix(0.2734, 0.0, 0.0, 0.2734, 29.8328, 208.4375)" width="20.3" xlink:href="#shape3"/>
    <use height="30.15" transform="matrix(0.2734, 0.0, 0.0, 0.2734, 40.0508, 206.7559)" width="15.55" xlink:href="#shape16"/>
    <use height="37.55" transform="matrix(0.2734, 0.0, 0.0, 0.2734, 45.3656, 204.7324)" width="24.5" xlink:href="#shape9"/>
    <use height="24.8" transform="matrix(0.2734, 0.0, 0.0, 0.2734, 53.5559, 208.4785)" width="25.55" xlink:href="#shape15"/>
    <use height="35.85" transform="matrix(0.2734, 0.0, 0.0, 0.2734, 65.6105, 205.4434)" width="25.2" xlink:href="#shape40"/>
    <use height="37.5" transform="matrix(0.2734, 0.0, 0.0, 0.2734, 77.8156, 204.7461)" width="28.75" xlink:href="#shape21"/>
    <use height="24.8" transform="matrix(0.2734, 0.0, 0.0, 0.2734, 86.4559, 208.4785)" width="25.55" xlink:href="#shape15"/>
    <use height="34.85" transform="matrix(0.2734, 0.0, 0.0, 0.2734, 94.2, 208.6563)" width="31.15" xlink:href="#shape12"/>
    <use height="30.15" transform="matrix(0.2734, 0.0, 0.0, 0.2734, 107.0008, 206.7559)" width="15.55" xlink:href="#shape16"/>
    <use height="24.95" transform="matrix(0.2734, 0.0, 0.0, 0.2734, 112.0695, 208.4238)" width="27.9" xlink:href="#shape1"/>
    <use height="30.15" transform="matrix(0.2734, 0.0, 0.0, 0.2734, 124.5008, 206.7559)" width="15.55" xlink:href="#shape16"/>
    <use height="24.2" transform="matrix(0.2734, 0.0, 0.0, 0.2734, 129.8156, 208.6563)" width="24.75" xlink:href="#shape19"/>
    <use height="23.5" transform="matrix(0.2734, 0.0, 0.0, 0.2734, 138.3656, 208.5742)" width="17.4" xlink:href="#shape8"/>
    <use height="23.7" transform="matrix(0.2734, 0.0, 0.0, 0.2734, 144.3656, 208.5195)" width="24.5" xlink:href="#shape6"/>
    <use height="24.9" transform="matrix(0.2734, 0.0, 0.0, 0.2734, 156.1828, 208.4375)" width="20.3" xlink:href="#shape3"/>
    <use height="24.95" transform="matrix(0.2734, 0.0, 0.0, 0.2734, 162.8695, 208.4238)" width="27.9" xlink:href="#shape1"/>
    <use height="24.2" transform="matrix(0.2734, 0.0, 0.0, 0.2734, 172.0156, 208.6563)" width="24.75" xlink:href="#shape19"/>
    <use height="23.7" transform="matrix(0.2734, 0.0, 0.0, 0.2734, 180.5656, 208.5195)" width="24.5" xlink:href="#shape6"/>
    <use height="38.35" transform="matrix(0.2734, 0.0, 0.0, 0.2734, 188.7695, 204.7324)" width="27.1" xlink:href="#shape13"/>
    <use height="24.9" transform="matrix(0.2734, 0.0, 0.0, 0.2734, 197.5828, 208.4375)" width="20.3" xlink:href="#shape3"/>
    <use height="24.95" transform="matrix(0.2734, 0.0, 0.0, 0.2734, 0.5195, 223.4238)" width="27.9" xlink:href="#shape1"/>
    <use height="23.7" transform="matrix(0.2734, 0.0, 0.0, 0.2734, 9.6656, 223.5195)" width="24.5" xlink:href="#shape6"/>
    <use height="24.75" transform="matrix(0.2734, 0.0, 0.0, 0.2734, 21.6195, 223.4512)" width="27.1" xlink:href="#shape5"/>
    <use height="23.7" transform="matrix(0.2734, 0.0, 0.0, 0.2734, 30.8156, 223.5195)" width="24.5" xlink:href="#shape6"/>
    <use height="38.35" transform="matrix(0.2734, 0.0, 0.0, 0.2734, 39.0195, 219.7324)" width="27.1" xlink:href="#shape13"/>
    <use height="24.95" transform="matrix(0.2734, 0.0, 0.0, 0.2734, 51.7195, 223.4238)" width="27.9" xlink:href="#shape1"/>
    <use height="38.05" transform="matrix(0.2734, 0.0, 0.0, 0.2734, 60.2504, 219.5957)" width="16.9" xlink:href="#shape10"/>
    <use height="38.05" transform="matrix(0.2734, 0.0, 0.0, 0.2734, 65.3504, 219.5957)" width="16.9" xlink:href="#shape10"/>
    <use height="15.3" transform="matrix(0.1894, 0.0, 0.0, 0.1894, 70.9661, 227.3661)" width="15.3" xlink:href="#shape17"/>
  </g>
  <defs>
    <g id="shape0" transform="matrix(1.0, 0.0, 0.0, 1.0, -2.05, 34.85)">
      <path d="M24.7 -25.35 Q22.8 -26.25 20.5 -26.25 17.8 -26.25 15.75 -25.05 13.7 -23.85 12.55 -21.7 11.35 -19.6 11.35 -16.85 11.35 -14.15 12.55 -12.1 13.7 -10.05 15.8 -8.85 17.85 -7.7 20.5 -7.65 22.7 -7.65 24.55 -8.55 26.45 -9.4 28.2 -11.25 L28.2 -0.75 24.8 0.3 22.5 0.8 20.35 0.95 Q15.15 0.9 11.05 -1.45 6.9 -3.8 4.5 -7.8 2.1 -11.8 2.05 -16.9 2.1 -21.95 4.5 -26.0 6.9 -30.05 11.0 -32.4 15.05 -34.8 20.15 -34.85 L23.95 -34.45 28.2 -33.1 28.2 -22.5 Q26.6 -24.4 24.7 -25.35" fill="#000000" fill-rule="evenodd" stroke="none"/>
    </g>
    <g id="shape1" transform="matrix(1.0, 0.0, 0.0, 1.0, -1.9, 24.05)">
      <path d="M3.7 -18.05 Q5.5 -20.85 8.6 -22.45 11.75 -24.05 15.9 -24.05 20.0 -24.05 23.1 -22.45 26.25 -20.85 28.0 -18.05 29.8 -15.3 29.8 -11.6 29.8 -7.9 28.0 -5.1 26.25 -2.3 23.1 -0.75 20.0 0.85 15.9 0.9 11.75 0.85 8.6 -0.75 5.5 -2.3 3.7 -5.1 1.95 -7.9 1.9 -11.6 1.95 -15.3 3.7 -18.05 M15.9 -17.0 Q13.6 -16.95 12.1 -15.45 10.6 -13.95 10.55 -11.65 10.6 -9.4 12.1 -7.9 13.6 -6.4 15.9 -6.35 18.15 -6.4 19.6 -7.9 21.1 -9.4 21.15 -11.65 21.1 -13.95 19.6 -15.45 18.15 -16.95 15.9 -17.0" fill="#000000" fill-rule="evenodd" stroke="none"/>
    </g>
    <g id="shape2" transform="matrix(1.0, 0.0, 0.0, 1.0, -1.9, 23.85)">
      <path d="M13.7 -23.85 Q15.9 -23.9 17.5 -23.15 19.15 -22.45 20.6 -20.8 L20.6 -23.2 28.8 -23.2 28.8 -1.55 28.5 2.55 Q28.2 4.25 27.55 5.55 L25.65 8.0 Q23.8 9.9 21.25 10.8 18.65 11.75 15.35 11.75 11.85 11.7 9.05 10.6 6.25 9.5 4.45 7.55 2.65 5.55 2.15 2.85 L11.4 2.85 Q11.8 4.0 12.75 4.6 13.75 5.2 15.25 5.2 17.8 5.15 19.2 3.7 20.55 2.25 20.6 -0.4 L20.6 -2.55 Q18.8 -0.85 17.15 -0.2 15.45 0.5 13.2 0.5 9.9 0.45 7.35 -1.05 4.8 -2.5 3.4 -5.15 1.95 -7.8 1.9 -11.25 1.95 -14.9 3.5 -17.7 5.0 -20.55 7.65 -22.2 10.3 -23.85 13.7 -23.85 M15.75 -16.95 Q13.5 -16.9 12.0 -15.4 10.5 -13.9 10.45 -11.65 10.5 -9.4 12.0 -7.9 13.5 -6.4 15.75 -6.35 17.95 -6.4 19.45 -7.9 20.95 -9.4 21.0 -11.65 20.95 -13.9 19.45 -15.4 17.95 -16.9 15.75 -16.95" fill="#000000" fill-rule="evenodd" stroke="none"/>
    </g>
    <g id="shape3" transform="matrix(1.0, 0.0, 0.0, 1.0, -1.4, 24.0)">
      <path d="M18.25 -17.2 Q17.1 -17.8 15.95 -18.05 L13.75 -18.35 Q12.7 -18.3 12.0 -17.85 11.3 -17.4 11.3 -16.7 11.25 -16.15 11.5 -15.85 11.75 -15.55 12.55 -15.3 L14.95 -14.7 Q18.45 -14.0 20.1 -12.3 21.7 -10.6 21.7 -7.75 21.7 -5.15 20.35 -3.2 19.0 -1.25 16.5 -0.2 14.05 0.85 10.65 0.9 8.25 0.9 5.95 0.2 3.65 -0.45 1.4 -1.8 L4.35 -7.55 Q6.0 -6.5 7.75 -5.85 9.45 -5.2 10.95 -5.2 12.05 -5.2 12.75 -5.7 13.45 -6.2 13.45 -7.0 13.5 -7.85 12.8 -8.3 L10.0 -9.15 Q6.3 -9.9 4.7 -11.4 3.15 -12.9 3.2 -15.7 3.25 -19.55 6.0 -21.75 8.75 -23.95 13.5 -24.0 L17.35 -23.65 21.0 -22.55 18.25 -17.2" fill="#000000" fill-rule="evenodd" stroke="none"/>
    </g>
    <g id="shape4" transform="matrix(1.0, 0.0, 0.0, 1.0, -1.9, 23.9)">
      <path d="M18.2 -16.8 L16.1 -17.15 Q13.6 -17.1 12.05 -15.6 10.5 -14.05 10.45 -11.6 10.5 -9.05 12.05 -7.5 13.6 -5.95 16.2 -5.9 L18.35 -6.3 Q19.35 -6.7 20.35 -7.45 L20.35 -0.5 Q18.8 0.2 17.45 0.5 L14.55 0.8 Q11.0 0.75 8.15 -0.85 5.3 -2.45 3.6 -5.2 1.95 -7.95 1.9 -11.4 1.95 -15.05 3.6 -17.85 5.3 -20.7 8.2 -22.3 11.1 -23.9 14.9 -23.9 L17.7 -23.6 20.35 -22.65 20.35 -15.65 Q19.15 -16.5 18.2 -16.8" fill="#000000" fill-rule="evenodd" stroke="none"/>
    </g>
    <g id="shape5" transform="matrix(1.0, 0.0, 0.0, 1.0, -1.9, 23.95)">
      <path d="M13.6 -23.95 Q15.8 -23.95 17.55 -23.25 19.3 -22.5 20.8 -20.95 L20.8 -23.2 29.0 -23.2 29.0 0.0 20.8 0.0 20.8 -2.55 Q19.45 -0.8 17.7 0.0 15.95 0.8 13.65 0.8 10.3 0.75 7.65 -0.9 5.0 -2.5 3.5 -5.3 1.95 -8.1 1.9 -11.6 1.95 -15.15 3.45 -17.95 5.0 -20.7 7.6 -22.3 10.25 -23.95 13.6 -23.95 M15.8 -16.9 Q13.5 -16.85 12.0 -15.35 10.5 -13.85 10.45 -11.6 10.5 -9.35 12.05 -7.85 13.55 -6.35 15.8 -6.3 18.0 -6.35 19.5 -7.85 21.0 -9.3 21.05 -11.55 21.0 -13.85 19.5 -15.35 18.0 -16.85 15.8 -16.9" fill="#000000" fill-rule="evenodd" stroke="none"/>
    </g>
    <g id="shape6" transform="matrix(1.0, 0.0, 0.0, 1.0, -2.8, 23.7)">
      <path d="M11.0 -20.3 Q12.6 -22.2 14.3 -22.95 16.05 -23.75 18.55 -23.7 20.65 -23.7 22.3 -23.05 23.95 -22.4 25.15 -21.15 26.35 -20.0 26.85 -18.55 27.35 -17.1 27.3 -14.75 L27.3 0.0 19.1 0.0 19.1 -11.75 19.1 -13.55 18.95 -14.6 18.6 -15.4 Q18.2 -16.25 17.3 -16.7 L15.3 -17.2 Q13.25 -17.2 12.15 -15.95 11.0 -14.75 11.0 -12.45 L11.0 0.0 2.8 0.0 2.8 -23.2 11.0 -23.2 11.0 -20.3" fill="#000000" fill-rule="evenodd" stroke="none"/>
    </g>
    <g id="shape7" transform="matrix(1.0, 0.0, 0.0, 1.0, -2.8, 23.95)">
      <path d="M11.0 -23.2 L11.0 -20.65 Q12.35 -22.35 14.1 -23.15 15.85 -23.95 18.2 -23.95 21.5 -23.9 24.15 -22.3 26.8 -20.65 28.35 -17.85 29.9 -15.1 29.9 -11.55 29.9 -8.05 28.35 -5.25 26.85 -2.5 24.2 -0.85 21.55 0.75 18.25 0.8 16.05 0.8 14.3 0.05 12.55 -0.65 11.0 -2.25 L11.0 11.65 2.8 11.65 2.8 -23.2 11.0 -23.2 M16.1 -16.9 Q13.8 -16.85 12.3 -15.35 10.8 -13.85 10.75 -11.6 10.8 -9.35 12.3 -7.85 13.85 -6.35 16.1 -6.3 18.35 -6.35 19.8 -7.85 21.3 -9.35 21.35 -11.6 21.3 -13.85 19.8 -15.35 18.35 -16.85 16.1 -16.9" fill="#000000" fill-rule="evenodd" stroke="none"/>
    </g>
    <g id="shape8" transform="matrix(1.0, 0.0, 0.0, 1.0, -2.8, 23.5)">
      <path d="M19.35 -23.5 L20.2 -23.45 20.2 -15.6 18.5 -16.25 16.75 -16.4 Q13.85 -16.4 12.45 -14.8 11.0 -13.15 11.0 -9.9 L11.0 0.0 2.8 0.0 2.8 -23.2 11.0 -23.2 11.0 -19.4 Q12.4 -21.55 14.2 -22.55 16.0 -23.5 18.65 -23.5 L19.35 -23.5" fill="#000000" fill-rule="evenodd" stroke="none"/>
    </g>
    <g id="shape9" transform="matrix(1.0, 0.0, 0.0, 1.0, -2.8, 37.55)">
      <path d="M2.8 -37.55 L11.0 -37.55 11.0 -20.3 Q12.6 -22.2 14.3 -22.95 16.05 -23.75 18.55 -23.7 20.65 -23.7 22.3 -23.05 23.95 -22.4 25.15 -21.15 26.35 -20.0 26.85 -18.55 27.35 -17.1 27.3 -14.75 L27.3 0.0 19.1 0.0 19.1 -11.75 19.1 -13.55 18.95 -14.6 18.6 -15.4 Q18.2 -16.25 17.3 -16.7 L15.3 -17.2 Q13.25 -17.2 12.15 -15.95 11.0 -14.75 11.0 -12.45 L11.0 0.0 2.8 0.0 2.8 -37.55" fill="#000000" fill-rule="evenodd" stroke="none"/>
    </g>
    <g id="shape10" transform="matrix(1.0, 0.0, 0.0, 1.0, -0.55, 38.05)">
      <path d="M15.65 -37.85 L17.45 -37.15 17.45 -30.05 15.85 -30.7 14.6 -30.85 Q13.75 -30.85 13.05 -30.4 12.3 -30.0 12.0 -29.35 11.8 -28.95 11.75 -28.2 L11.7 -26.1 11.7 -23.2 17.45 -23.2 17.45 -16.4 11.7 -16.4 11.7 0.0 3.5 0.0 3.5 -16.4 0.55 -16.4 0.55 -23.2 3.5 -23.2 3.5 -26.7 Q3.45 -29.6 4.1 -31.4 4.75 -33.25 6.25 -34.75 7.8 -36.35 9.75 -37.2 11.7 -38.05 13.85 -38.05 L15.65 -37.85" fill="#000000" fill-rule="evenodd" stroke="none"/>
    </g>
    <g id="shape11" transform="matrix(1.0, 0.0, 0.0, 1.0, -2.8, 23.6)">
      <path d="M11.0 -23.2 L11.0 -20.35 Q12.75 -22.1 14.5 -22.85 16.25 -23.6 18.5 -23.55 21.2 -23.55 23.1 -22.55 25.0 -21.5 26.4 -19.25 27.75 -21.4 29.75 -22.5 31.7 -23.6 34.2 -23.6 38.05 -23.6 40.05 -21.4 42.05 -19.2 42.05 -15.05 L42.05 0.0 33.85 0.0 33.85 -11.45 33.85 -13.25 33.7 -14.3 33.45 -15.15 Q33.0 -16.15 32.25 -16.65 31.45 -17.2 30.45 -17.2 28.5 -17.2 27.5 -15.75 26.55 -14.3 26.55 -11.45 L26.55 0.0 18.35 0.0 18.35 -11.5 18.3 -13.35 18.2 -14.4 18.0 -15.15 Q17.6 -16.15 16.7 -16.75 15.8 -17.35 14.75 -17.35 13.8 -17.35 12.9 -16.8 12.0 -16.25 11.55 -15.4 L11.15 -13.9 Q11.0 -13.0 11.0 -11.45 L11.0 0.0 2.8 0.0 2.8 -23.2 11.0 -23.2" fill="#000000" fill-rule="evenodd" stroke="none"/>
    </g>
    <g id="shape12" transform="matrix(1.0, 0.0, 0.0, 1.0, 0.0, 23.2)">
      <path d="M11.2 -3.1 L0.0 -23.2 9.55 -23.2 15.75 -11.3 21.75 -23.2 31.15 -23.2 12.5 11.65 3.35 11.65 11.2 -3.1" fill="#000000" fill-rule="evenodd" stroke="none"/>
    </g>
    <g id="shape13" transform="matrix(1.0, 0.0, 0.0, 1.0, -1.9, 37.55)">
      <path d="M15.8 -16.9 Q13.5 -16.85 12.0 -15.35 10.5 -13.85 10.45 -11.6 10.5 -9.35 12.05 -7.85 13.55 -6.35 15.8 -6.3 18.0 -6.35 19.5 -7.85 21.0 -9.3 21.05 -11.55 21.0 -13.85 19.5 -15.35 18.0 -16.85 15.8 -16.9 M20.8 -37.55 L29.0 -37.55 29.0 0.0 20.8 0.0 20.8 -2.55 Q19.45 -0.8 17.7 0.0 15.95 0.8 13.65 0.8 10.3 0.75 7.65 -0.9 5.0 -2.5 3.5 -5.3 1.95 -8.1 1.9 -11.6 1.95 -15.15 3.45 -17.95 5.0 -20.7 7.6 -22.3 10.25 -23.95 13.6 -23.95 15.8 -23.95 17.55 -23.25 19.3 -22.5 20.8 -20.95 L20.8 -37.55" fill="#000000" fill-rule="evenodd" stroke="none"/>
    </g>
    <g id="shape14" transform="matrix(1.0, 0.0, 0.0, 1.0, -2.3, 36.7)">
      <path d="M2.8 -23.2 L11.0 -23.2 11.0 0.0 2.8 0.0 2.8 -23.2 M10.2 -28.85 Q8.9 -27.55 6.9 -27.5 4.95 -27.55 3.65 -28.85 2.35 -30.15 2.3 -32.1 2.35 -34.05 3.65 -35.35 4.95 -36.65 6.9 -36.7 8.9 -36.65 10.2 -35.35 11.45 -34.05 11.5 -32.1 11.45 -30.15 10.2 -28.85" fill="#000000" fill-rule="evenodd" stroke="none"/>
    </g>
    <g id="shape15" transform="matrix(1.0, 0.0, 0.0, 1.0, -1.85, 23.85)">
      <path d="M3.45 -17.95 Q5.0 -20.75 7.8 -22.3 10.65 -23.85 14.5 -23.85 20.6 -23.8 23.95 -20.5 27.35 -17.15 27.4 -11.15 L27.4 -10.1 10.15 -10.1 Q10.2 -7.45 11.45 -6.15 12.7 -4.85 15.25 -4.85 16.6 -4.8 17.5 -5.35 18.45 -5.85 19.15 -7.05 L27.05 -7.05 Q25.9 -3.1 22.9 -1.1 19.95 0.95 15.35 0.95 11.2 0.9 8.2 -0.6 5.2 -2.1 3.55 -4.85 1.9 -7.6 1.85 -11.35 1.9 -15.2 3.45 -17.95 M10.35 -14.85 L19.8 -14.85 Q19.35 -16.6 18.1 -17.6 16.85 -18.55 15.1 -18.6 13.1 -18.6 11.9 -17.6 10.7 -16.65 10.35 -14.85" fill="#000000" fill-rule="evenodd" stroke="none"/>
    </g>
    <g id="shape16" transform="matrix(1.0, 0.0, 0.0, 1.0, -1.1, 30.15)">
      <path d="M3.8 -30.15 L12.0 -30.15 12.0 -23.2 16.65 -23.2 16.65 -16.4 12.0 -16.4 12.0 0.0 3.8 0.0 3.8 -16.4 1.1 -16.4 1.1 -23.2 3.8 -23.2 3.8 -30.15" fill="#000000" fill-rule="evenodd" stroke="none"/>
    </g>
    <g id="shape17" transform="matrix(1.0, 0.0, 0.0, 1.0, -5.1, -5.1)">
      <path d="M20.4 12.75 Q20.4 15.95 18.15 18.15 15.95 20.4 12.75 20.4 9.55 20.4 7.3 18.15 5.1 15.95 5.1 12.75 5.1 9.6 7.3 7.35 9.55 5.1 12.75 5.1 15.95 5.1 18.15 7.35 20.4 9.6 20.4 12.75" fill="#000000" fill-rule="evenodd" stroke="none"/>
    </g>
    <g id="shape18" transform="matrix(1.0, 0.0, 0.0, 1.0, -3.6, 34.15)">
      <path d="M24.5 -34.15 L33.35 -34.15 33.35 -14.4 Q33.35 -11.95 33.0 -10.1 32.7 -8.25 31.95 -6.75 31.25 -5.3 30.0 -3.9 27.85 -1.5 24.9 -0.3 21.95 0.9 18.1 0.9 14.25 0.85 11.05 -0.5 7.9 -1.85 6.05 -4.25 4.75 -5.95 4.15 -8.3 3.6 -10.7 3.6 -14.4 L3.6 -34.15 12.45 -34.15 12.45 -15.65 12.5 -12.65 12.8 -10.9 Q13.0 -10.25 13.45 -9.55 14.2 -8.3 15.45 -7.65 16.75 -6.95 18.35 -6.95 20.1 -6.95 21.5 -7.7 22.85 -8.4 23.55 -9.7 L24.15 -11.05 24.4 -12.8 24.5 -15.65 24.5 -34.15" fill="#000000" fill-rule="evenodd" stroke="none"/>
    </g>
    <g id="shape19" transform="matrix(1.0, 0.0, 0.0, 1.0, -2.8, 23.2)">
      <path d="M6.0 -1.4 Q2.85 -3.8 2.8 -8.45 L2.8 -23.2 11.0 -23.2 11.0 -10.0 Q11.0 -7.9 12.05 -6.85 13.1 -5.75 15.2 -5.75 17.3 -5.75 18.35 -6.85 19.35 -7.9 19.35 -10.0 L19.35 -23.2 27.55 -23.2 27.55 -8.45 Q27.55 -3.8 24.4 -1.4 21.25 0.95 15.2 1.0 9.15 0.95 6.0 -1.4" fill="#000000" fill-rule="evenodd" stroke="none"/>
    </g>
    <g id="shape20" transform="matrix(1.0, 0.0, 0.0, 1.0, -3.6, 34.15)">
      <path d="M14.5 -26.6 L12.45 -26.6 12.45 -7.5 14.5 -7.5 Q19.0 -7.55 21.6 -10.15 24.2 -12.7 24.25 -17.1 24.2 -21.45 21.6 -24.0 19.0 -26.55 14.5 -26.6 M25.05 -31.75 Q28.85 -29.45 31.15 -25.6 33.45 -21.75 33.5 -17.1 33.45 -12.4 31.15 -8.55 28.85 -4.7 25.05 -2.35 21.3 -0.05 16.7 0.0 L3.6 0.0 3.6 -34.15 16.7 -34.15 Q21.3 -34.05 25.05 -31.75" fill="#000000" fill-rule="evenodd" stroke="none"/>
    </g>
    <g id="shape21" transform="matrix(1.0, 0.0, 0.0, 1.0, -2.8, 37.5)">
      <path d="M11.0 -37.5 L11.0 -14.85 19.6 -23.2 30.8 -23.2 19.2 -12.5 31.55 0.0 20.0 0.0 11.0 -9.4 11.0 0.0 2.8 0.0 2.8 -37.5 11.0 -37.5" fill="#000000" fill-rule="evenodd" stroke="none"/>
    </g>
    <g id="shape22" transform="matrix(1.0, 0.0, 0.0, 1.0, 0.0, 15.5)">
      <path d="M0.0 -15.5 L12.95 -15.5 12.95 -8.7 0.0 -8.7 0.0 -15.5" fill="#000000" fill-rule="evenodd" stroke="none"/>
    </g>
    <g id="shape23" transform="matrix(1.0, 0.0, 0.0, 1.0, -3.6, 34.15)">
      <path d="M14.25 -14.05 L12.45 -14.05 12.45 -6.9 14.4 -6.9 Q17.65 -6.9 19.15 -7.75 20.7 -8.6 20.65 -10.4 20.65 -11.45 20.2 -12.2 L18.95 -13.45 17.95 -13.85 16.55 -14.0 14.25 -14.05 M17.2 -26.55 Q16.15 -27.4 14.1 -27.4 L12.45 -27.4 12.45 -20.65 14.1 -20.65 Q16.15 -20.65 17.2 -21.55 18.25 -22.4 18.25 -24.05 18.25 -25.65 17.2 -26.55 M23.9 -31.85 Q26.35 -29.6 26.4 -25.25 26.4 -22.7 25.5 -21.0 24.65 -19.3 22.65 -18.15 26.25 -17.5 27.95 -15.45 29.65 -13.4 29.6 -9.8 29.55 -5.15 26.5 -2.6 23.4 -0.05 17.85 0.0 L3.6 0.0 3.6 -34.15 16.75 -34.15 Q21.45 -34.1 23.9 -31.85" fill="#000000" fill-rule="evenodd" stroke="none"/>
    </g>
    <g id="shape24" transform="matrix(1.0, 0.0, 0.0, 1.0, 0.0, 23.2)">
      <path d="M9.25 -23.2 L14.75 -11.3 20.4 -23.2 29.55 -23.2 17.5 0.0 12.0 0.0 0.0 -23.2 9.25 -23.2" fill="#000000" fill-rule="evenodd" stroke="none"/>
    </g>
    <g id="shape25" transform="matrix(1.0, 0.0, 0.0, 1.0, 0.45, 8.65)">
      <path d="M5.45 -8.65 L13.1 -8.65 4.8 6.35 -0.45 6.35 5.45 -8.65" fill="#000000" fill-rule="evenodd" stroke="none"/>
    </g>
    <g id="shape26" transform="matrix(1.0, 0.0, 0.0, 1.0, -3.45, 34.15)">
      <path d="M5.0 -8.05 Q6.5 -9.55 8.75 -9.6 11.0 -9.55 12.5 -8.05 14.0 -6.6 14.05 -4.35 14.0 -2.05 12.5 -0.55 11.0 0.95 8.75 1.0 6.5 0.95 5.0 -0.55 3.5 -2.05 3.45 -4.35 3.5 -6.6 5.0 -8.05 M4.45 -34.15 L13.0 -34.15 13.0 -11.6 4.45 -11.6 4.45 -34.15" fill="#000000" fill-rule="evenodd" stroke="none"/>
    </g>
    <g id="shape27" transform="matrix(1.0, 0.0, 0.0, 1.0, -2.05, 34.15)">
      <path d="M7.85 -34.15 L16.6 -34.15 23.5 -15.9 30.85 -34.15 39.7 -34.15 44.8 0.0 35.95 0.0 33.45 -19.65 25.2 0.0 21.65 0.0 13.8 -19.65 10.85 0.0 2.05 0.0 7.85 -34.15" fill="#000000" fill-rule="evenodd" stroke="none"/>
    </g>
    <g id="shape28" transform="matrix(1.0, 0.0, 0.0, 1.0, -2.05, 35.2)">
      <path d="M20.6 -35.2 Q26.05 -35.2 29.8 -32.85 33.55 -30.5 35.95 -25.6 L27.5 -22.1 Q26.35 -24.85 24.55 -26.2 22.75 -27.55 20.2 -27.55 17.65 -27.5 15.65 -26.15 13.65 -24.75 12.5 -22.35 11.35 -19.95 11.35 -16.85 11.35 -13.65 12.5 -11.25 13.65 -8.85 15.7 -7.5 17.75 -6.1 20.45 -6.1 23.5 -6.1 25.25 -7.6 27.05 -9.05 27.45 -12.05 L20.2 -12.05 20.2 -18.95 37.8 -18.95 37.55 -14.4 36.9 -10.95 Q36.5 -9.4 35.8 -8.0 33.6 -3.45 29.65 -1.15 25.7 1.2 20.3 1.25 14.85 1.2 10.75 -1.05 6.7 -3.35 4.4 -7.4 2.1 -11.5 2.05 -16.9 2.1 -22.4 4.45 -26.5 6.75 -30.6 10.9 -32.9 15.05 -35.15 20.6 -35.2" fill="#000000" fill-rule="evenodd" stroke="none"/>
    </g>
    <g id="shape29" transform="matrix(1.0, 0.0, 0.0, 1.0, -0.35, 34.15)">
      <path d="M7.6 -26.6 L0.35 -26.6 0.35 -34.15 23.8 -34.15 23.8 -26.6 16.45 -26.6 16.45 0.0 7.6 0.0 7.6 -26.6" fill="#000000" fill-rule="evenodd" stroke="none"/>
    </g>
    <g id="shape30" transform="matrix(1.0, 0.0, 0.0, 1.0, -2.4, 34.15)">
      <path d="M21.7 -19.1 L14.05 -19.1 22.35 -34.15 27.6 -34.15 21.7 -19.1 M10.15 -19.1 L2.4 -19.1 10.75 -34.15 16.0 -34.15 10.15 -19.1" fill="#000000" fill-rule="evenodd" stroke="none"/>
    </g>
    <g id="shape31" transform="matrix(1.0, 0.0, 0.0, 1.0, -1.7, 34.15)">
      <path d="M7.6 -34.15 L15.25 -34.15 6.95 -19.1 1.7 -19.1 7.6 -34.15 M19.15 -34.15 L26.9 -34.15 18.55 -19.1 13.3 -19.1 19.15 -34.15" fill="#000000" fill-rule="evenodd" stroke="none"/>
    </g>
    <g id="shape32" transform="matrix(1.0, 0.0, 0.0, 1.0, 0.0, 23.2)">
      <path d="M9.2 -23.2 L14.7 -10.95 20.55 -23.2 25.65 -23.2 31.5 -10.6 37.35 -23.2 46.45 -23.2 34.3 0.0 28.8 0.0 23.0 -12.7 17.5 0.0 11.95 0.0 0.0 -23.2 9.2 -23.2" fill="#000000" fill-rule="evenodd" stroke="none"/>
    </g>
    <g id="shape33" transform="matrix(1.0, 0.0, 0.0, 1.0, -3.45, 38.95)">
      <path d="M10.0 -38.95 L14.95 -36.15 Q12.35 -31.65 11.05 -26.35 9.75 -21.0 9.75 -14.85 9.75 -10.8 10.4 -6.85 11.05 -2.9 12.2 0.55 13.4 4.0 14.95 6.45 L10.0 9.3 7.5 5.1 Q6.55 3.15 5.8 0.75 4.65 -3.05 4.05 -7.2 3.45 -11.35 3.45 -15.25 3.45 -19.7 4.25 -24.0 5.0 -28.3 6.45 -32.1 7.95 -35.95 10.0 -38.95" fill="#000000" fill-rule="evenodd" stroke="none"/>
    </g>
    <g id="shape34" transform="matrix(1.0, 0.0, 0.0, 1.0, -0.7, 34.15)">
      <path d="M15.6 -7.5 L29.9 -7.5 29.9 0.0 0.7 0.0 16.8 -26.6 3.4 -26.6 3.4 -34.15 31.65 -34.15 15.6 -7.5" fill="#000000" fill-rule="evenodd" stroke="none"/>
    </g>
    <g id="shape35" transform="matrix(1.0, 0.0, 0.0, 1.0, 0.0, 34.15)">
      <path d="M13.4 -18.2 L2.4 -34.15 13.4 -34.15 18.45 -25.3 23.7 -34.15 34.6 -34.15 23.5 -18.2 36.4 0.0 25.65 0.0 18.4 -11.1 10.7 0.0 0.0 0.0 13.4 -18.2" fill="#000000" fill-rule="evenodd" stroke="none"/>
    </g>
    <g id="shape36" transform="matrix(1.0, 0.0, 0.0, 1.0, -2.4, 38.95)">
      <path d="M9.9 -34.75 L11.6 -30.4 Q12.7 -26.6 13.3 -22.45 13.95 -18.3 13.95 -14.45 13.95 -9.95 13.15 -5.65 12.35 -1.35 10.9 2.45 9.45 6.25 7.4 9.3 L2.4 6.45 Q5.05 2.0 6.35 -3.35 7.65 -8.7 7.65 -14.85 7.65 -18.85 7.0 -22.85 6.35 -26.8 5.15 -30.25 4.0 -33.65 2.4 -36.15 L7.4 -38.95 9.9 -34.75" fill="#000000" fill-rule="evenodd" stroke="none"/>
    </g>
    <g id="shape37" transform="matrix(1.0, 0.0, 0.0, 1.0, -7.15, 34.15)">
      <path d="M12.0 -26.6 L7.15 -26.6 7.15 -34.15 20.85 -34.15 20.85 0.0 12.0 0.0 12.0 -26.6" fill="#000000" fill-rule="evenodd" stroke="none"/>
    </g>
    <g id="shape38" transform="matrix(1.0, 0.0, 0.0, 1.0, -2.3, 35.05)">
      <path d="M15.4 -14.35 L15.35 -14.35 Q13.65 -14.35 12.45 -13.15 11.3 -12.0 11.25 -10.3 11.3 -8.55 12.45 -7.4 13.65 -6.25 15.35 -6.2 17.05 -6.25 18.2 -7.4 19.35 -8.55 19.4 -10.3 19.35 -12.0 18.25 -13.15 17.1 -14.35 15.4 -14.35 M15.4 -29.1 Q13.75 -29.05 12.7 -28.0 11.65 -26.95 11.6 -25.4 11.65 -23.75 12.7 -22.7 13.75 -21.65 15.4 -21.6 16.95 -21.65 18.0 -22.7 19.05 -23.75 19.1 -25.4 19.05 -26.95 18.0 -28.0 16.95 -29.05 15.4 -29.1 M21.55 -33.85 Q24.15 -32.65 25.55 -30.45 26.95 -28.3 27.0 -25.35 27.0 -22.8 25.75 -21.1 24.45 -19.4 21.4 -17.95 24.95 -16.6 26.65 -14.45 28.35 -12.25 28.35 -9.2 28.35 -6.3 26.65 -4.05 24.95 -1.75 22.05 -0.45 19.15 0.85 15.4 0.9 11.6 0.85 8.65 -0.45 5.7 -1.75 4.05 -4.0 2.35 -6.25 2.3 -9.2 2.3 -12.35 3.95 -14.5 5.6 -16.65 9.05 -17.95 L9.1 -17.95 Q6.45 -19.1 5.1 -21.0 3.7 -22.85 3.7 -25.4 3.75 -28.25 5.2 -30.45 6.65 -32.6 9.25 -33.8 11.9 -35.05 15.45 -35.05 18.95 -35.05 21.55 -33.85" fill="#000000" fill-rule="evenodd" stroke="none"/>
    </g>
    <g id="shape39" transform="matrix(1.0, 0.0, 0.0, 1.0, -0.9, 35.4)">
      <path d="M15.4 -27.5 Q13.65 -27.45 12.4 -26.15 11.1 -24.8 10.4 -22.45 9.7 -20.1 9.7 -17.0 9.7 -13.85 10.4 -11.5 11.1 -9.15 12.4 -7.85 13.65 -6.5 15.4 -6.5 17.05 -6.5 18.3 -7.85 19.6 -9.15 20.3 -11.5 21.0 -13.85 21.0 -17.0 21.0 -20.1 20.3 -22.45 19.6 -24.8 18.3 -26.15 17.05 -27.45 15.4 -27.5 M22.95 -33.1 Q26.2 -30.8 28.0 -26.7 29.8 -22.6 29.8 -17.1 29.8 -11.55 28.0 -7.45 26.2 -3.3 22.95 -1.05 19.75 1.25 15.4 1.3 11.0 1.25 7.75 -1.05 4.5 -3.3 2.7 -7.45 0.9 -11.55 0.9 -17.1 0.9 -22.6 2.7 -26.7 4.55 -30.8 7.75 -33.1 11.0 -35.4 15.4 -35.4 19.75 -35.4 22.95 -33.1" fill="#000000" fill-rule="evenodd" stroke="none"/>
    </g>
    <g id="shape40" transform="matrix(1.0, 0.0, 0.0, 1.0, -2.05, 34.95)">
      <path d="M25.9 -32.2 L22.35 -25.3 Q20.85 -26.45 19.45 -27.05 L16.5 -27.6 Q14.9 -27.55 13.8 -26.75 12.75 -25.95 12.7 -24.65 12.7 -23.85 13.3 -23.2 13.85 -22.55 15.0 -22.0 L15.55 -21.8 16.6 -21.45 18.85 -20.8 Q23.3 -19.5 25.3 -17.25 27.3 -14.95 27.25 -11.3 27.2 -5.5 23.75 -2.35 20.3 0.85 13.95 0.9 10.8 0.9 7.8 -0.1 4.75 -1.05 2.05 -2.95 L5.85 -10.1 Q7.85 -8.35 9.8 -7.5 11.75 -6.65 13.7 -6.65 15.65 -6.65 16.8 -7.55 17.95 -8.45 18.0 -9.95 18.05 -11.3 16.9 -12.15 15.7 -13.05 12.65 -13.9 L9.5 -14.9 7.45 -15.8 6.0 -16.8 Q4.75 -17.9 4.1 -19.55 3.45 -21.2 3.45 -23.45 3.45 -26.9 4.9 -29.5 6.35 -32.05 9.0 -33.5 11.6 -34.95 15.05 -34.95 L20.55 -34.25 Q23.3 -33.55 25.9 -32.2" fill="#000000" fill-rule="evenodd" stroke="none"/>
    </g>
    <g id="shape41" transform="matrix(1.0, 0.0, 0.0, 1.0, -3.6, 34.15)">
      <path d="M19.05 -25.95 Q17.85 -27.0 15.45 -27.0 L12.45 -27.0 12.45 -18.45 15.4 -18.45 Q17.95 -18.45 19.1 -19.5 20.3 -20.55 20.3 -22.8 20.3 -24.9 19.05 -25.95 M26.25 -31.25 Q27.9 -29.75 28.7 -27.65 29.55 -25.55 29.55 -22.9 29.55 -17.2 26.6 -14.3 23.7 -11.35 18.0 -11.35 L12.45 -11.35 12.45 0.0 3.6 0.0 3.6 -34.15 17.7 -34.15 22.65 -33.5 Q24.65 -32.8 26.25 -31.25" fill="#000000" fill-rule="evenodd" stroke="none"/>
    </g>
  </defs>
</svg>
