<?xml version="1.0" encoding="UTF-8" standalone="no"?>
<svg xmlns:xlink="http://www.w3.org/1999/xlink" height="54.35px" width="176.45px" xmlns="http://www.w3.org/2000/svg">
  <g transform="matrix(1.0, 0.0, 0.0, 1.0, 88.2, 27.15)">
    <use height="38.45" transform="matrix(1.0, 0.0, 0.0, 1.0, -74.25, -19.2)" width="148.5" xlink:href="#shape0"/>
  </g>
  <defs>
    <g id="shape0" transform="matrix(1.0, 0.0, 0.0, 1.0, 74.25, 19.2)">
      <path d="M69.4 11.3 L68.25 11.1 67.2 11.3 Q66.8 11.55 66.8 12.0 L67.05 12.6 67.85 12.95 68.55 13.1 69.15 13.2 Q69.95 13.4 70.35 13.8 70.75 14.25 70.75 14.95 70.75 15.85 70.0 16.45 69.3 17.0 68.0 17.0 L66.65 16.85 65.65 16.45 65.65 15.2 65.7 15.2 Q66.2 15.6 66.85 15.85 L68.1 16.1 69.2 15.85 69.65 15.1 69.4 14.5 68.55 14.2 67.95 14.05 67.25 13.9 Q66.4 13.65 66.05 13.25 65.65 12.8 65.65 12.15 L65.85 11.4 66.35 10.75 Q66.7 10.45 67.2 10.3 L68.3 10.15 69.5 10.3 70.5 10.65 70.5 11.8 70.45 11.8 69.4 11.3 M74.25 8.15 L74.1 14.45 73.1 14.45 72.95 8.15 74.25 8.15 M74.2 16.85 L73.0 16.85 73.0 15.6 74.2 15.6 74.2 16.85 M45.7 10.1 Q47.05 10.1 47.9 11.05 48.7 12.0 48.7 13.6 48.7 15.2 47.9 16.1 47.05 17.05 45.7 17.05 44.3 17.05 43.5 16.1 42.65 15.2 42.65 13.6 42.65 12.0 43.5 11.05 44.3 10.1 45.7 10.1 M45.7 11.05 Q44.8 11.05 44.3 11.7 43.8 12.3 43.8 13.6 43.8 14.8 44.3 15.45 44.8 16.1 45.7 16.1 46.55 16.1 47.1 15.45 47.6 14.8 47.6 13.6 47.6 12.3 47.1 11.7 46.6 11.05 45.7 11.05 M40.75 11.0 Q41.4 11.9 41.4 13.5 L41.15 14.95 40.5 16.05 39.6 16.75 38.5 17.0 37.6 16.85 36.75 16.5 36.75 19.25 35.65 19.25 35.65 10.3 36.75 10.3 36.75 11.0 Q37.2 10.6 37.75 10.4 L38.9 10.1 Q40.1 10.1 40.75 11.0 M38.6 11.15 L37.65 11.4 36.75 11.9 36.75 15.65 37.55 15.9 38.3 16.0 Q39.25 16.0 39.75 15.35 40.25 14.75 40.25 13.55 40.25 12.35 39.85 11.75 39.45 11.15 38.6 11.15 M33.25 10.9 Q33.95 11.65 33.95 13.1 L33.95 13.7 29.15 13.7 Q29.15 14.3 29.3 14.75 L29.8 15.5 30.55 15.9 31.45 16.05 32.8 15.8 33.8 15.25 33.85 15.25 33.85 16.45 32.7 16.85 31.5 17.0 Q29.85 17.0 28.95 16.1 28.0 15.25 28.0 13.6 28.0 12.0 28.9 11.05 29.75 10.1 31.2 10.1 32.55 10.1 33.25 10.9 M29.75 11.55 Q29.2 12.05 29.15 12.85 L32.9 12.85 Q32.9 12.0 32.45 11.5 32.0 11.05 31.15 11.05 30.25 11.05 29.75 11.55 M59.2 12.6 L59.2 16.85 58.1 16.85 58.1 13.1 58.05 12.3 57.85 11.65 57.45 11.3 56.7 11.15 55.8 11.4 Q55.3 11.6 54.85 11.95 L54.85 16.85 53.75 16.85 53.75 10.3 54.85 10.3 54.85 11.05 55.9 10.35 57.05 10.1 Q58.1 10.1 58.65 10.75 59.2 11.4 59.2 12.6 M62.45 10.3 L64.75 10.3 64.75 11.25 62.45 11.25 62.45 14.2 62.5 15.0 62.65 15.55 63.0 15.9 63.7 16.0 64.25 15.95 64.65 15.8 64.75 15.8 64.75 16.8 64.05 16.95 63.4 17.0 Q62.4 17.0 61.9 16.45 61.35 15.9 61.35 14.7 L61.35 11.25 60.6 11.25 60.6 10.3 61.35 10.3 61.35 8.4 62.45 8.4 62.45 10.3 M51.55 10.3 L51.55 16.85 50.45 16.85 50.45 10.3 51.55 10.3 M50.4 9.2 L50.4 8.05 51.6 8.05 51.6 9.2 50.4 9.2 M26.25 -17.7 L31.15 -17.7 25.6 -9.4 25.6 -3.4 21.15 -3.4 21.15 -9.4 15.55 -17.7 20.5 -17.7 23.35 -12.9 26.25 -17.7 M12.6 -16.95 Q14.05 -15.9 14.3 -13.7 L10.15 -13.45 Q10.0 -14.4 9.45 -14.85 L8.0 -15.3 Q7.2 -15.3 6.8 -14.95 6.4 -14.65 6.4 -14.15 6.4 -13.85 6.75 -13.55 7.05 -13.25 8.25 -13.05 11.15 -12.4 12.4 -11.75 L14.2 -10.2 Q14.8 -9.25 14.8 -8.05 14.8 -6.7 14.0 -5.5 13.25 -4.35 11.9 -3.75 10.5 -3.15 8.45 -3.15 4.8 -3.15 3.4 -4.55 2.0 -5.95 1.8 -8.15 L6.0 -8.4 Q6.15 -7.35 6.55 -6.85 7.25 -5.95 8.5 -5.95 9.45 -5.95 10.0 -6.4 10.5 -6.85 10.5 -7.45 L10.0 -8.45 Q9.5 -8.9 7.75 -9.25 4.8 -9.9 3.6 -11.0 2.35 -12.1 2.35 -13.75 2.35 -14.85 3.0 -15.85 3.6 -16.85 4.9 -17.4 6.2 -17.95 8.4 -17.95 11.15 -17.95 12.6 -16.95 M-4.2 -17.7 L1.15 -3.4 -3.45 -3.4 -4.2 -5.75 -9.2 -5.75 -9.9 -3.4 -14.4 -3.4 -9.05 -17.7 -4.2 -17.7 M-5.1 -8.85 L-6.7 -14.0 -8.25 -8.85 -5.1 -8.85 M1.25 9.85 Q1.05 10.25 0.95 10.95 L0.9 12.5 0.95 14.05 1.25 15.15 Q1.45 15.6 1.8 15.8 L2.7 16.05 3.65 15.85 4.2 15.15 4.5 14.05 4.55 12.5 4.5 10.95 4.2 9.8 3.65 9.15 Q3.3 8.9 2.7 8.9 L1.8 9.15 Q1.45 9.35 1.25 9.85 M0.45 9.05 Q1.15 7.95 2.7 7.95 4.3 7.95 5.0 9.1 5.75 10.2 5.75 12.5 5.75 14.85 5.0 15.95 4.25 17.05 2.7 17.05 1.15 17.05 0.45 15.9 -0.3 14.8 -0.3 12.5 -0.3 10.15 0.45 9.05 M-7.1 10.1 L-7.1 9.3 -6.35 9.25 -5.7 9.05 -5.25 8.7 Q-5.1 8.5 -5.1 8.1 L-4.2 8.1 -4.2 15.95 -2.4 15.95 -2.4 16.85 -7.1 16.85 -7.1 15.95 -5.3 15.95 -5.3 10.1 -7.1 10.1 M26.25 8.15 L26.25 16.85 24.8 16.85 20.65 9.05 20.65 16.85 19.55 16.85 19.55 8.15 21.35 8.15 25.15 15.25 25.15 8.15 26.25 8.15 M12.65 9.1 Q13.4 10.2 13.4 12.5 13.4 14.85 12.65 15.95 11.9 17.05 10.35 17.05 8.8 17.05 8.1 15.9 7.35 14.8 7.35 12.5 7.35 10.15 8.1 9.05 8.8 7.95 10.35 7.95 11.95 7.95 12.65 9.1 M10.35 8.9 L9.45 9.15 Q9.1 9.35 8.9 9.85 L8.6 10.95 8.55 12.5 8.6 14.05 8.9 15.15 9.45 15.8 10.35 16.05 11.3 15.85 11.85 15.15 12.15 14.05 12.2 12.5 12.15 10.95 11.85 9.8 11.3 9.15 10.35 8.9 M-15.6 -14.65 L-23.0 -14.65 -23.0 -12.4 -16.15 -12.4 -16.15 -9.45 -23.0 -9.45 -23.0 -6.65 -15.35 -6.65 -15.35 -3.4 -27.45 -3.4 -27.45 -17.7 -15.6 -17.7 -15.6 -14.65 M-33.3 -13.2 Q-32.35 -12.35 -32.35 -10.95 -32.35 -9.6 -33.3 -8.5 -34.3 -7.45 -35.65 -7.3 -37.0 -7.2 -38.0 -8.1 -38.95 -9.05 -38.95 -10.4 -38.95 -11.8 -38.0 -12.8 -37.0 -13.9 -35.65 -14.0 -34.3 -14.15 -33.3 -13.2 M-39.1 8.15 L-39.1 13.35 -39.3 15.0 -40.0 16.2 -41.05 16.85 -42.45 17.05 -43.9 16.8 -44.9 16.2 Q-45.4 15.7 -45.6 15.0 L-45.8 13.35 -45.8 8.15 -44.65 8.15 -44.65 13.4 -44.55 14.5 -44.2 15.25 -43.5 15.85 -42.45 16.05 -41.4 15.85 -40.7 15.25 -40.35 14.5 -40.25 13.45 -40.25 8.15 -39.1 8.15 M-35.85 11.0 L-34.85 10.4 -33.7 10.1 Q-32.5 10.1 -31.85 11.0 -31.2 11.9 -31.2 13.5 -31.2 14.3 -31.45 14.95 -31.65 15.6 -32.1 16.05 L-33.0 16.75 -34.1 17.0 -35.0 16.85 -35.85 16.5 -35.85 19.25 -36.95 19.25 -36.95 10.3 -35.85 10.3 -35.85 11.0 M-34.95 11.4 L-35.85 11.9 -35.85 15.65 -35.05 15.9 -34.3 16.0 Q-33.35 16.0 -32.85 15.35 -32.35 14.75 -32.35 13.55 -32.35 12.35 -32.75 11.75 -33.15 11.15 -34.0 11.15 L-34.95 11.4 M-52.1 12.6 L-52.1 16.85 -53.2 16.85 -53.2 13.1 -53.25 12.3 -53.45 11.65 -53.85 11.3 -54.6 11.15 -55.5 11.4 -56.45 11.95 -56.45 16.85 -57.55 16.85 -57.55 10.3 -56.45 10.3 -56.45 11.05 -55.4 10.35 -54.25 10.1 Q-53.2 10.1 -52.65 10.75 -52.1 11.4 -52.1 12.6 M-18.95 9.15 L-22.05 9.15 -22.05 16.85 -23.25 16.85 -23.25 9.15 -26.35 9.15 -26.35 8.15 -18.95 8.15 -18.95 9.15 M-14.4 11.05 Q-13.6 12.0 -13.6 13.6 -13.6 15.2 -14.4 16.1 -15.25 17.05 -16.6 17.05 -18.0 17.05 -18.8 16.1 -19.65 15.2 -19.65 13.6 -19.65 12.0 -18.8 11.05 -18.0 10.1 -16.6 10.1 -15.25 10.1 -14.4 11.05 M-16.6 11.05 Q-17.5 11.05 -18.0 11.7 -18.5 12.3 -18.5 13.6 -18.5 14.8 -18.0 15.45 -17.5 16.1 -16.6 16.1 -15.75 16.1 -15.2 15.45 -14.7 14.8 -14.7 13.6 -14.7 12.3 -15.2 11.7 -15.7 11.05 -16.6 11.05 M-60.9 8.05 L-59.7 8.05 -59.7 9.2 -60.9 9.2 -60.9 8.05 M-59.75 10.3 L-59.75 16.85 -60.85 16.85 -60.85 10.3 -59.75 10.3 M-72.05 8.15 L-70.25 15.4 -68.45 8.15 -67.25 8.15 -65.45 15.45 -63.6 8.15 -62.45 8.15 -64.75 16.85 -66.05 16.85 -67.9 9.6 -69.65 16.85 -70.95 16.85 -73.25 8.15 -72.05 8.15" fill="#d25b2f" fill-rule="evenodd" stroke="none"/>
      <path d="M69.45 10.55 Q69.0 10.25 68.4 10.05 L67.25 9.85 66.2 10.05 Q65.8 10.3 65.8 10.75 65.8 11.15 66.05 11.35 L66.85 11.7 67.55 11.85 68.15 11.95 Q68.95 12.15 69.35 12.55 69.75 13.0 69.75 13.7 69.75 14.6 69.0 15.2 68.3 15.75 67.0 15.75 L65.65 15.6 64.65 15.2 64.65 13.95 64.7 13.95 65.85 14.6 67.1 14.85 68.2 14.6 68.65 13.85 68.4 13.25 67.55 12.95 66.95 12.8 66.25 12.65 Q65.4 12.4 65.05 12.0 64.65 11.55 64.65 10.9 L64.85 10.15 65.35 9.5 Q65.7 9.2 66.2 9.05 L67.3 8.9 68.5 9.05 69.5 9.4 69.5 10.55 69.45 10.55 M73.25 6.9 L73.1 13.2 72.1 13.2 71.95 6.9 73.25 6.9 M73.2 15.6 L72.0 15.6 72.0 14.35 73.2 14.35 73.2 15.6 M38.85 10.5 Q38.45 9.9 37.6 9.9 37.15 9.9 36.65 10.15 L35.75 10.65 35.75 14.4 36.55 14.65 37.3 14.75 Q38.25 14.75 38.75 14.1 39.25 13.5 39.25 12.3 39.25 11.1 38.85 10.5 M42.5 9.8 Q43.3 8.85 44.7 8.85 46.05 8.85 46.9 9.8 47.7 10.75 47.7 12.35 47.7 13.95 46.9 14.85 46.05 15.8 44.7 15.8 43.3 15.8 42.5 14.85 41.65 13.95 41.65 12.35 41.65 10.75 42.5 9.8 M40.4 12.25 L40.15 13.7 39.5 14.8 38.6 15.5 37.5 15.75 36.6 15.6 35.75 15.25 35.75 18.0 34.65 18.0 34.65 9.05 35.75 9.05 35.75 9.75 36.75 9.15 Q37.25 8.85 37.9 8.85 39.1 8.85 39.75 9.75 40.4 10.65 40.4 12.25 M43.3 10.45 Q42.8 11.05 42.8 12.35 42.8 13.55 43.3 14.2 43.8 14.85 44.7 14.85 45.55 14.85 46.1 14.2 46.6 13.55 46.6 12.35 46.6 11.05 46.1 10.45 45.6 9.8 44.7 9.8 43.8 9.8 43.3 10.45 M28.15 11.6 L31.9 11.6 Q31.9 10.75 31.45 10.25 31.0 9.8 30.15 9.8 29.25 9.8 28.75 10.3 28.2 10.8 28.15 11.6 M32.95 11.85 L32.95 12.45 28.15 12.45 28.3 13.5 28.8 14.25 29.55 14.65 30.45 14.8 31.8 14.55 32.8 14.0 32.85 14.0 32.85 15.2 31.7 15.6 30.5 15.75 Q28.85 15.75 27.95 14.85 27.0 14.0 27.0 12.35 27.0 10.75 27.9 9.8 28.75 8.85 30.2 8.85 31.55 8.85 32.25 9.65 32.95 10.4 32.95 11.85 M61.45 9.05 L63.75 9.05 63.75 10.0 61.45 10.0 61.45 12.95 61.5 13.75 61.65 14.3 62.0 14.65 62.7 14.75 63.25 14.7 63.65 14.55 63.75 14.55 63.75 15.55 63.05 15.7 62.4 15.75 Q61.4 15.75 60.9 15.2 60.35 14.65 60.35 13.45 L60.35 10.0 59.6 10.0 59.6 9.05 60.35 9.05 60.35 7.15 61.45 7.15 61.45 9.05 M50.55 9.05 L50.55 15.6 49.45 15.6 49.45 9.05 50.55 9.05 M50.6 7.95 L49.4 7.95 49.4 6.8 50.6 6.8 50.6 7.95 M57.65 9.5 Q58.2 10.15 58.2 11.35 L58.2 15.6 57.1 15.6 57.1 11.85 57.05 11.05 56.85 10.4 56.45 10.05 55.7 9.9 54.8 10.15 Q54.3 10.35 53.85 10.7 L53.85 15.6 52.75 15.6 52.75 9.05 53.85 9.05 53.85 9.8 54.9 9.1 56.05 8.85 Q57.1 8.85 57.65 9.5 M25.25 -18.95 L30.15 -18.95 24.6 -10.65 24.6 -4.65 20.15 -4.65 20.15 -10.65 14.55 -18.95 19.5 -18.95 22.35 -14.15 25.25 -18.95 M13.3 -14.95 L9.15 -14.7 Q9.0 -15.65 8.45 -16.1 7.9 -16.55 7.0 -16.55 6.2 -16.55 5.8 -16.2 5.4 -15.9 5.4 -15.4 5.4 -15.1 5.75 -14.8 6.05 -14.5 7.25 -14.3 10.15 -13.65 11.4 -13.0 12.65 -12.35 13.2 -11.45 13.8 -10.5 13.8 -9.3 13.8 -7.95 13.0 -6.75 12.25 -5.6 10.9 -5.0 9.5 -4.4 7.45 -4.4 3.8 -4.4 2.4 -5.8 1.0 -7.2 0.8 -9.4 L5.0 -9.65 Q5.15 -8.6 5.55 -8.1 6.25 -7.2 7.5 -7.2 8.45 -7.2 9.0 -7.65 9.5 -8.1 9.5 -8.7 L9.0 -9.7 Q8.5 -10.15 6.75 -10.5 3.8 -11.15 2.6 -12.25 1.35 -13.35 1.35 -15.0 1.35 -16.1 2.0 -17.1 2.6 -18.1 3.9 -18.65 L7.4 -19.2 Q10.15 -19.2 11.6 -18.2 13.05 -17.15 13.3 -14.95 M-5.2 -18.95 L0.15 -4.65 -4.45 -4.65 -5.2 -7.0 -10.2 -7.0 -10.9 -4.65 -15.4 -4.65 -10.05 -18.95 -5.2 -18.95 M-6.1 -10.1 L-7.7 -15.25 -9.25 -10.1 -6.1 -10.1 M1.7 6.7 Q3.3 6.7 4.0 7.85 4.75 8.95 4.75 11.25 4.75 13.6 4.0 14.7 3.25 15.8 1.7 15.8 0.15 15.8 -0.55 14.65 -1.3 13.55 -1.3 11.25 -1.3 8.9 -0.55 7.8 0.15 6.7 1.7 6.7 M0.25 8.6 L-0.05 9.7 -0.1 11.25 -0.05 12.8 0.25 13.9 0.8 14.55 1.7 14.8 2.65 14.6 3.2 13.9 3.5 12.8 3.55 11.25 3.5 9.7 3.2 8.55 2.65 7.9 1.7 7.65 0.8 7.9 Q0.45 8.1 0.25 8.6 M7.55 11.25 L7.6 12.8 7.9 13.9 8.45 14.55 9.35 14.8 10.3 14.6 10.85 13.9 11.15 12.8 11.2 11.25 11.15 9.7 10.85 8.55 10.3 7.9 9.35 7.65 8.45 7.9 Q8.1 8.1 7.9 8.6 L7.6 9.7 7.55 11.25 M7.1 7.8 Q7.8 6.7 9.35 6.7 10.95 6.7 11.65 7.85 12.4 8.95 12.4 11.25 12.4 13.6 11.65 14.7 10.9 15.8 9.35 15.8 7.8 15.8 7.1 14.65 6.35 13.55 6.35 11.25 6.35 8.9 7.1 7.8 M-8.1 8.85 L-8.1 8.05 -7.35 8.0 -6.7 7.8 -6.25 7.45 Q-6.1 7.25 -6.1 6.85 L-5.2 6.85 -5.2 14.7 -3.4 14.7 -3.4 15.6 -8.1 15.6 -8.1 14.7 -6.3 14.7 -6.3 8.85 -8.1 8.85 M25.25 6.9 L25.25 15.6 23.8 15.6 19.65 7.8 19.65 15.6 18.55 15.6 18.55 6.9 20.35 6.9 24.15 14.0 24.15 6.9 25.25 6.9 M-16.6 -15.9 L-24.0 -15.9 -24.0 -13.65 -17.15 -13.65 -17.15 -10.7 -24.0 -10.7 -24.0 -7.9 -16.35 -7.9 -16.35 -4.65 -28.45 -4.65 -28.45 -18.95 -16.6 -18.95 -16.6 -15.9 M-36.65 -15.25 Q-35.3 -15.4 -34.3 -14.45 -33.35 -13.6 -33.35 -12.2 -33.35 -10.85 -34.3 -9.75 -35.3 -8.7 -36.65 -8.55 -38.0 -8.45 -39.0 -9.35 -39.95 -10.3 -39.95 -11.65 -39.95 -13.05 -39.0 -14.05 -38.0 -15.15 -36.65 -15.25 M-40.1 12.1 L-40.3 13.75 -41.0 14.95 Q-41.45 15.35 -42.05 15.6 L-43.45 15.8 -44.9 15.55 Q-45.5 15.35 -45.9 14.95 L-46.6 13.75 -46.8 12.1 -46.8 6.9 -45.65 6.9 -45.65 12.15 -45.55 13.25 -45.2 14.0 -44.5 14.6 -43.45 14.8 -42.4 14.6 -41.7 14.0 -41.35 13.25 -41.25 12.2 -41.25 6.9 -40.1 6.9 -40.1 12.1 M-36.85 9.75 L-35.85 9.15 Q-35.35 8.85 -34.7 8.85 -33.5 8.85 -32.85 9.75 -32.2 10.65 -32.2 12.25 L-32.45 13.7 -33.1 14.8 Q-33.45 15.25 -34.0 15.5 L-35.1 15.75 -36.0 15.6 -36.85 15.25 -36.85 18.0 -37.95 18.0 -37.95 9.05 -36.85 9.05 -36.85 9.75 M-36.85 10.65 L-36.85 14.4 -36.05 14.65 -35.3 14.75 Q-34.35 14.75 -33.85 14.1 -33.35 13.5 -33.35 12.3 -33.35 11.1 -33.75 10.5 -34.15 9.9 -35.0 9.9 L-35.95 10.15 -36.85 10.65 M-19.95 7.9 L-23.05 7.9 -23.05 15.6 -24.25 15.6 -24.25 7.9 -27.35 7.9 -27.35 6.9 -19.95 6.9 -19.95 7.9 M-19.5 12.35 Q-19.5 13.55 -19.0 14.2 -18.5 14.85 -17.6 14.85 -16.75 14.85 -16.2 14.2 -15.7 13.55 -15.7 12.35 -15.7 11.05 -16.2 10.45 -16.7 9.8 -17.6 9.8 -18.5 9.8 -19.0 10.45 -19.5 11.05 -19.5 12.35 M-17.6 8.85 Q-16.25 8.85 -15.4 9.8 -14.6 10.75 -14.6 12.35 -14.6 13.95 -15.4 14.85 -16.25 15.8 -17.6 15.8 -19.0 15.8 -19.8 14.85 -20.65 13.95 -20.65 12.35 -20.65 10.75 -19.8 9.8 -19.0 8.85 -17.6 8.85 M-61.9 7.95 L-61.9 6.8 -60.7 6.8 -60.7 7.95 -61.9 7.95 M-60.75 9.05 L-60.75 15.6 -61.85 15.6 -61.85 9.05 -60.75 9.05 M-53.65 9.5 Q-53.1 10.15 -53.1 11.35 L-53.1 15.6 -54.2 15.6 -54.2 11.85 -54.25 11.05 -54.45 10.4 -54.85 10.05 -55.6 9.9 -56.5 10.15 -57.45 10.7 -57.45 15.6 -58.55 15.6 -58.55 9.05 -57.45 9.05 -57.45 9.8 -56.4 9.1 -55.25 8.85 Q-54.2 8.85 -53.65 9.5 M-68.25 6.9 L-66.45 14.2 -64.6 6.9 -63.45 6.9 -65.75 15.6 -67.05 15.6 -68.9 8.35 -70.65 15.6 -71.95 15.6 -74.25 6.9 -73.05 6.9 -71.25 14.15 -69.45 6.9 -68.25 6.9" fill="#f9f309" fill-rule="evenodd" stroke="none"/>
    </g>
  </defs>
</svg>
