<?xml version="1.0" encoding="UTF-8" standalone="no"?>
<svg xmlns:xlink="http://www.w3.org/1999/xlink" height="37.15px" width="156.05px" xmlns="http://www.w3.org/2000/svg">
  <g transform="matrix(1.0, 0.0, 0.0, 1.0, -0.75, 0.5)">
    <use height="49.7" transform="matrix(0.4395, 0.0, 0.0, 0.4395, 136.7784, 4.1273)" width="45.6" xlink:href="#sprite0"/>
    <use height="49.7" transform="matrix(0.4395, 0.0, 0.0, 0.4395, 113.9284, 4.1273)" width="45.6" xlink:href="#sprite0"/>
    <use height="49.7" transform="matrix(0.4395, 0.0, 0.0, 0.4395, 91.0784, 4.1273)" width="45.6" xlink:href="#sprite0"/>
    <use height="49.7" transform="matrix(0.4395, 0.0, 0.0, 0.4395, 91.0784, 4.1273)" width="45.6" xlink:href="#sprite0"/>
    <use height="37.15" transform="matrix(1.0, 0.0, 0.0, 1.0, 0.75, -0.5)" width="103.8" xlink:href="#text0"/>
  </g>
  <defs>
    <g id="sprite0" transform="matrix(1.0, 0.0, 0.0, 1.0, 22.8, 24.85)">
      <use height="49.7" transform="matrix(1.0, 0.0, 0.0, 1.0, -22.8, -24.85)" width="45.6" xlink:href="#shape0"/>
    </g>
    <g id="shape0" transform="matrix(1.0, 0.0, 0.0, 1.0, 22.8, 24.85)">
      <path d="M14.3 -24.85 L21.45 -24.85 4.0 -1.45 22.8 24.85 14.65 24.85 2.15 7.1 0.0 3.8 -2.4 7.5 -14.85 24.85 -22.8 24.85 -3.55 -1.05 -20.5 -24.85 -12.65 -24.85 -3.65 -12.1 0.35 -6.0 Q2.0 -8.75 4.3 -11.7 L14.3 -24.85" fill="#7f0000" fill-rule="evenodd" stroke="none"/>
    </g>
  </defs>
</svg>
