<?xml version="1.0" encoding="UTF-8" standalone="no"?>
<svg xmlns:xlink="http://www.w3.org/1999/xlink" height="106.0px" width="135.35px" xmlns="http://www.w3.org/2000/svg">
  <g transform="matrix(1.0, 0.0, 0.0, 1.0, 65.8, 53.45)">
    <use height="100.8" transform="matrix(1.0, 0.0, 0.0, 1.0, -60.75, -49.3)" width="128.4" xlink:href="#shape0"/>
    <use height="52.8" transform="matrix(0.9931, 0.1362, -0.1155, 0.9902, -44.4594, -31.8971)" width="114.5" xlink:href="#sprite0"/>
    <use height="7.0" transform="matrix(0.8313, 0.2079, -0.2079, 0.8313, 61.7624, -32.7263)" width="9.35" xlink:href="#sprite1"/>
    <use height="7.0" transform="matrix(0.5263, 0.6742, -0.6742, 0.5263, -50.0875, -49.2268)" width="9.35" xlink:href="#sprite1"/>
    <use height="7.0" transform="matrix(-0.7089, -0.4797, -0.4797, 0.7089, -49.7246, -48.9507)" width="9.35" xlink:href="#sprite1"/>
    <use height="4.95" transform="matrix(0.6494, -0.557, 0.557, 0.6494, -59.5975, 24.3277)" width="3.3" xlink:href="#sprite2"/>
    <use height="7.0" transform="matrix(-0.7458, 0.4182, 0.4182, 0.7458, -58.8455, 19.7953)" width="9.35" xlink:href="#sprite1"/>
    <use height="7.0" transform="matrix(0.8313, 0.2079, -0.2079, 0.8313, 55.5124, 44.7737)" width="9.35" xlink:href="#sprite1"/>
    <use height="4.95" transform="matrix(0.6494, -0.557, 0.557, 0.6494, 53.5025, 49.2277)" width="3.3" xlink:href="#sprite2"/>
  </g>
  <defs>
    <g id="shape0" transform="matrix(1.0, 0.0, 0.0, 1.0, 60.75, 49.3)">
      <path d="M64.45 -13.1 L66.25 -30.25 Q5.85 -36.75 -53.4 -48.9 L-56.05 -24.4 -59.9 25.7 59.15 50.8 64.45 -13.1 65.55 -13.0 59.8 50.9 59.65 51.25 59.4 51.45 59.05 51.5 -60.75 26.75 -59.7 4.85 -59.6 3.5 -59.6 3.1 -59.55 2.2 -59.2 -2.55 -58.7 -8.45 -54.05 -49.05 -53.95 -49.3 -44.2 -47.8 -16.05 -42.75 Q21.35 -35.95 39.85 -33.95 L67.65 -30.6 65.6 -13.05 64.45 -13.1" fill="#333333" fill-rule="evenodd" stroke="none"/>
      <path d="M64.45 -13.1 L59.15 50.8 -59.9 25.7 -56.05 -24.4 -53.4 -48.9 Q5.85 -36.75 66.25 -30.25 L64.45 -13.1 63.05 -13.2 64.45 -13.1" fill="#ffffff" fill-rule="evenodd" stroke="none"/>
    </g>
    <g id="sprite0" transform="matrix(1.0, 0.0, 0.0, 1.0, 51.55, 7.65)">
      <use height="52.8" transform="matrix(1.0, 0.0, 0.0, 1.0, -51.55, -7.65)" width="114.5" xlink:href="#text0"/>
    </g>
    <g id="text0" transform="matrix(1.0, 0.0, 0.0, 1.0, -9.3, -4.85)">
      <g transform="matrix(1.0, 0.0, 0.0, 1.0, 8.4, 0.0)">
        <use fill="#333333" height="52.8" transform="matrix(0.4688, 0.0, 0.0, 0.4688, 0.05, 24.2)" width="114.5" xlink:href="#font_Impact_C0"/>
        <use fill="#333333" height="52.8" transform="matrix(0.4688, 0.0, 0.0, 0.4688, 13.35, 24.2)" width="114.5" xlink:href="#font_Impact_l0"/>
        <use fill="#333333" height="52.8" transform="matrix(0.4688, 0.0, 0.0, 0.4688, 19.9, 24.2)" width="114.5" xlink:href="#font_Impact_i0"/>
        <use fill="#333333" height="52.8" transform="matrix(0.4688, 0.0, 0.0, 0.4688, 26.45, 24.2)" width="114.5" xlink:href="#font_Impact_c0"/>
        <use fill="#333333" height="52.8" transform="matrix(0.4688, 0.0, 0.0, 0.4688, 38.3, 24.2)" width="114.5" xlink:href="#font_Impact_k0"/>
        <use fill="#333333" height="52.8" transform="matrix(0.4688, 0.0, 0.0, 0.4688, 54.0, 24.2)" width="114.5" xlink:href="#font_Impact_H0"/>
        <use fill="#333333" height="52.8" transform="matrix(0.4688, 0.0, 0.0, 0.4688, 67.3, 24.2)" width="114.5" xlink:href="#font_Impact_e0"/>
        <use fill="#333333" height="52.8" transform="matrix(0.4688, 0.0, 0.0, 0.4688, 79.55, 24.2)" width="114.5" xlink:href="#font_Impact_r0"/>
        <use fill="#333333" height="52.8" transform="matrix(0.4688, 0.0, 0.0, 0.4688, 88.15, 24.2)" width="114.5" xlink:href="#font_Impact_e0"/>
      </g>
      <g transform="matrix(1.0, 0.0, 0.0, 1.0, 8.4, 0.0)">
        <use fill="#333333" height="52.8" transform="matrix(0.4688, 0.0, 0.0, 0.4688, 15.75, 55.45)" width="114.5" xlink:href="#font_Impact_T0"/>
        <use fill="#333333" height="52.8" transform="matrix(0.4688, 0.0, 0.0, 0.4688, 26.8, 55.45)" width="114.5" xlink:href="#font_Impact_o0"/>
        <use fill="#333333" height="52.8" transform="matrix(0.4688, 0.0, 0.0, 0.4688, 43.3, 55.45)" width="114.5" xlink:href="#font_Impact_P0"/>
        <use fill="#333333" height="52.8" transform="matrix(0.4688, 0.0, 0.0, 0.4688, 55.35, 55.45)" width="114.5" xlink:href="#font_Impact_l0"/>
        <use fill="#333333" height="52.8" transform="matrix(0.4688, 0.0, 0.0, 0.4688, 61.9, 55.45)" width="114.5" xlink:href="#font_Impact_a0"/>
        <use fill="#333333" height="52.8" transform="matrix(0.4688, 0.0, 0.0, 0.4688, 74.0, 55.45)" width="114.5" xlink:href="#font_Impact_y0"/>
      </g>
    </g>
    <g id="font_Impact_C0">
      <path d="M26.7 -26.7 L26.7 -22.85 16.15 -22.85 16.15 -29.85 Q16.15 -32.95 15.85 -33.7 15.5 -34.45 14.35 -34.45 13.05 -34.45 12.7 -33.55 12.35 -32.6 12.35 -29.55 L12.35 -10.75 Q12.35 -7.8 12.7 -6.9 13.05 -6.0 14.25 -6.0 15.45 -6.0 15.8 -6.9 16.15 -7.8 16.15 -11.1 L16.15 -16.2 26.7 -16.2 26.7 -14.65 Q26.7 -8.35 25.8 -5.7 24.9 -3.1 21.9 -1.1 18.85 0.85 14.4 0.85 9.75 0.85 6.75 -0.8 3.75 -2.5 2.8 -5.45 1.8 -8.4 1.8 -14.35 L1.8 -26.2 Q1.8 -30.55 2.1 -32.75 2.4 -34.95 3.9 -36.95 5.4 -39.0 8.05 -40.15 10.65 -41.3 14.1 -41.3 18.75 -41.3 21.75 -39.5 24.8 -37.7 25.75 -35.05 26.7 -32.35 26.7 -26.7" fill-rule="evenodd" stroke="none"/>
    </g>
    <g id="font_Impact_l0">
      <path d="M12.2 -40.45 L12.2 0.0 1.8 0.0 1.8 -40.45 12.2 -40.45" fill-rule="evenodd" stroke="none"/>
    </g>
    <g id="font_Impact_i0">
      <path d="M12.2 -33.15 L12.2 0.0 1.8 0.0 1.8 -33.15 12.2 -33.15 M12.2 -40.45 L12.2 -35.2 1.8 -35.2 1.8 -40.45 12.2 -40.45" fill-rule="evenodd" stroke="none"/>
    </g>
    <g id="font_Impact_c0">
      <path d="M19.5 -32.1 Q22.3 -30.4 23.2 -27.85 24.15 -25.3 24.15 -20.65 L14.6 -20.65 14.6 -24.45 Q14.6 -26.45 14.3 -27.15 13.95 -27.9 13.1 -27.9 12.2 -27.9 11.9 -27.25 11.6 -26.65 11.6 -24.45 L11.6 -8.8 Q11.6 -7.05 12.05 -6.15 12.5 -5.25 13.4 -5.25 14.4 -5.25 14.8 -6.2 15.15 -7.1 15.15 -9.7 L15.15 -13.65 24.15 -13.65 23.85 -7.65 Q23.6 -5.7 22.2 -3.6 20.75 -1.5 18.5 -0.45 16.2 0.6 12.85 0.6 8.6 0.6 6.1 -0.85 3.6 -2.3 2.55 -4.95 1.5 -7.6 1.5 -12.45 L1.5 -21.85 Q1.5 -26.1 2.35 -28.25 3.2 -30.4 6.0 -32.05 8.75 -33.75 12.75 -33.75 16.7 -33.75 19.5 -32.1" fill-rule="evenodd" stroke="none"/>
    </g>
    <g id="font_Impact_k0">
      <path d="M23.55 -33.15 L19.45 -19.95 24.8 0.0 15.1 0.0 11.95 -14.45 11.9 0.0 1.8 0.0 1.8 -40.45 11.9 -40.45 11.95 -23.45 15.1 -33.15 23.55 -33.15" fill-rule="evenodd" stroke="none"/>
    </g>
    <g id="font_Impact_H0">
      <path d="M26.3 -40.45 L26.3 0.0 15.8 0.0 15.8 -17.0 12.65 -17.0 12.65 0.0 2.1 0.0 2.1 -40.45 12.65 -40.45 12.65 -26.0 15.8 -26.0 15.8 -40.45 26.3 -40.45" fill-rule="evenodd" stroke="none"/>
    </g>
    <g id="font_Impact_e0">
      <path d="M11.85 -27.25 Q11.6 -26.6 11.6 -23.8 L11.6 -21.4 14.55 -21.4 14.55 -23.8 14.3 -27.15 Q14.0 -27.9 13.15 -27.9 12.1 -27.9 11.85 -27.25 M19.7 -32.15 Q22.45 -30.55 23.6 -27.85 24.7 -25.2 24.7 -20.4 L24.7 -16.0 11.6 -16.0 11.6 -8.8 Q11.6 -6.55 11.95 -5.9 12.25 -5.25 13.2 -5.25 14.35 -5.25 14.75 -6.1 15.1 -7.0 15.1 -9.45 L15.1 -13.85 24.7 -13.85 24.7 -11.4 Q24.7 -8.3 24.3 -6.65 23.9 -5.0 22.5 -3.15 21.05 -1.25 18.9 -0.3 16.7 0.6 13.4 0.6 10.2 0.6 7.75 -0.3 5.3 -1.25 3.95 -2.85 2.55 -4.45 2.05 -6.4 1.5 -8.35 1.5 -12.05 L1.5 -21.7 Q1.5 -26.05 2.7 -28.55 3.85 -31.1 6.55 -32.4 9.2 -33.75 12.7 -33.75 16.95 -33.75 19.7 -32.15" fill-rule="evenodd" stroke="none"/>
    </g>
    <g id="font_Impact_r0">
      <path d="M11.9 -33.15 L11.5 -28.8 Q13.7 -33.5 17.9 -33.75 L17.9 -22.1 Q15.1 -22.1 13.8 -21.35 12.5 -20.6 12.2 -19.25 11.9 -17.9 11.9 -13.1 L11.9 0.0 1.8 0.0 1.8 -33.15 11.9 -33.15" fill-rule="evenodd" stroke="none"/>
    </g>
    <g id="font_Impact_T0">
      <path d="M23.3 -40.45 L23.3 -32.35 17.05 -32.35 17.05 0.0 6.55 0.0 6.55 -32.35 0.3 -32.35 0.3 -40.45 23.3 -40.45" fill-rule="evenodd" stroke="none"/>
    </g>
    <g id="font_Impact_o0">
      <path d="M24.2 -26.75 Q24.65 -25.05 24.65 -21.5 L24.65 -13.4 Q24.65 -8.9 24.2 -6.8 23.75 -4.75 22.3 -2.9 20.8 -1.1 18.5 -0.25 16.2 0.6 13.2 0.6 L7.5 -0.1 Q5.2 -0.85 3.9 -2.35 2.6 -3.85 2.05 -5.95 1.5 -8.05 1.5 -12.3 L1.5 -20.8 Q1.5 -25.4 2.5 -28.0 3.5 -30.6 6.1 -32.2 8.7 -33.75 12.75 -33.75 16.15 -33.75 18.6 -32.75 21.05 -31.75 22.35 -30.1 23.7 -28.5 24.2 -26.75 M11.9 -27.2 Q11.6 -26.55 11.6 -24.0 L11.6 -9.05 Q11.6 -6.7 11.9 -5.95 12.2 -5.25 13.1 -5.25 14.0 -5.25 14.3 -5.9 L14.55 -8.7 14.55 -24.0 14.3 -27.2 Q14.0 -27.9 13.1 -27.9 12.2 -27.9 11.9 -27.2" fill-rule="evenodd" stroke="none"/>
    </g>
    <g id="font_Impact_P0">
      <path d="M24.4 -34.75 Q24.8 -32.95 24.8 -29.15 L24.8 -25.6 Q24.8 -21.75 24.0 -19.95 23.2 -18.2 21.05 -17.25 18.9 -16.3 15.45 -16.3 L12.65 -16.3 12.65 0.0 2.1 0.0 2.1 -40.45 12.7 -40.45 19.35 -39.8 Q21.65 -39.1 22.8 -37.85 23.95 -36.55 24.4 -34.75 M12.65 -33.55 L12.65 -23.25 13.4 -23.2 Q14.85 -23.2 15.45 -23.9 16.0 -24.65 16.0 -26.9 L16.0 -30.2 Q16.0 -32.3 15.35 -32.9 14.7 -33.55 12.65 -33.55" fill-rule="evenodd" stroke="none"/>
    </g>
    <g id="font_Impact_a0">
      <path d="M23.6 -27.5 Q24.15 -24.85 24.15 -16.65 L24.15 0.0 14.3 0.0 14.3 -2.95 Q13.4 -1.15 11.95 -0.3 10.45 0.6 8.45 0.6 5.8 0.6 3.6 -0.85 1.35 -2.35 1.35 -7.4 L1.35 -10.1 Q1.35 -13.85 2.55 -15.2 3.7 -16.55 8.35 -18.35 13.35 -20.3 13.7 -20.95 14.05 -21.65 14.05 -23.7 14.05 -26.3 13.65 -27.1 13.25 -27.9 12.35 -27.9 11.35 -27.9 11.1 -27.2 10.85 -26.55 10.85 -23.8 L10.85 -20.3 1.35 -20.3 1.35 -22.55 Q1.35 -26.4 2.25 -28.45 3.15 -30.55 5.8 -32.15 8.5 -33.75 12.75 -33.75 17.9 -33.75 20.5 -31.95 23.1 -30.15 23.6 -27.5 M11.25 -12.8 Q10.85 -11.6 10.85 -9.35 10.85 -6.75 11.2 -6.0 11.5 -5.25 12.5 -5.25 13.45 -5.25 13.75 -5.85 14.05 -6.45 14.05 -8.95 L14.05 -15.75 Q11.6 -14.0 11.25 -12.8" fill-rule="evenodd" stroke="none"/>
    </g>
    <g id="font_Impact_y0">
      <path d="M22.95 -33.15 L20.05 -9.15 18.9 -1.4 Q18.45 0.7 17.4 2.05 16.3 3.4 14.4 4.05 L8.3 4.65 2.15 4.65 2.15 -0.65 5.2 -0.85 Q5.85 -1.1 5.85 -1.95 L5.25 -5.4 -0.3 -33.15 8.9 -33.15 12.2 -10.75 13.8 -33.15 22.95 -33.15" fill-rule="evenodd" stroke="none"/>
    </g>
    <g id="sprite1" transform="matrix(1.0, 0.0, 0.0, 1.0, 4.65, 3.5)">
      <use height="7.0" transform="matrix(1.0, 0.0, 0.0, 1.0, -4.65, -3.5)" width="9.35" xlink:href="#shape1"/>
    </g>
    <g id="shape1" transform="matrix(1.0, 0.0, 0.0, 1.0, 4.65, 3.5)">
      <path d="M1.5 -3.3 L0.9 -3.3 0.6 -3.3 Q-0.6 -3.3 -1.4 -2.35 -1.95 -1.7 -2.1 -0.9 L-2.2 0.0 -2.05 1.2 -1.4 2.35 Q-0.6 3.3 0.6 3.3 L0.9 3.3 1.5 3.3 1.65 3.3 1.7 3.3 Q2.85 3.3 3.65 2.35 4.45 1.35 4.5 0.0 4.45 -1.4 3.65 -2.35 2.85 -3.3 1.7 -3.3 L1.65 -3.3 1.5 -3.3 M1.7 -3.5 Q2.95 -3.5 3.8 -2.45 4.65 -1.45 4.7 0.0 4.65 1.45 3.8 2.45 2.95 3.45 1.7 3.5 L0.9 3.5 0.6 3.5 Q-0.65 3.45 -1.55 2.45 L-2.25 1.15 -4.3 0.9 Q-5.0 0.0 -4.3 -0.7 L-2.3 -0.85 Q-2.15 -1.8 -1.55 -2.45 -0.65 -3.5 0.6 -3.5 L1.7 -3.5" fill="#333333" fill-rule="evenodd" stroke="none"/>
      <path d="M1.5 3.3 L0.9 3.3 0.6 3.3 Q-0.6 3.3 -1.4 2.35 L-2.05 1.2 -2.2 0.0 -2.1 -0.9 Q-1.95 -1.7 -1.4 -2.35 -0.6 -3.3 0.6 -3.3 L0.9 -3.3 1.5 -3.3 0.7 -3.1 Q-0.1 -2.85 -0.5 -2.35 -1.05 -1.75 -1.2 -0.95 L-1.3 0.0 -1.1 1.3 -0.5 2.35 Q-0.1 2.85 0.7 3.1 L1.5 3.3" fill="#666666" fill-rule="evenodd" stroke="none"/>
      <path d="M1.5 3.3 L0.7 3.1 Q-0.1 2.85 -0.5 2.35 L-1.1 1.3 -1.3 0.0 -1.2 -0.95 Q-1.05 -1.75 -0.5 -2.35 -0.1 -2.85 0.7 -3.1 L1.5 -3.3 1.65 -3.3 0.9 -3.1 -0.3 -2.35 Q-1.15 -1.4 -1.1 0.0 -1.15 1.35 -0.3 2.35 L0.9 3.1 1.65 3.3 1.5 3.3" fill="#cccccc" fill-rule="evenodd" stroke="none"/>
      <path d="M1.65 -3.3 L1.7 -3.3 Q2.85 -3.3 3.65 -2.35 4.45 -1.4 4.5 0.0 4.45 1.35 3.65 2.35 2.85 3.3 1.7 3.3 L1.65 3.3 0.9 3.1 -0.3 2.35 Q-1.15 1.35 -1.1 0.0 -1.15 -1.4 -0.3 -2.35 L0.9 -3.1 1.65 -3.3" fill="#999999" fill-rule="evenodd" stroke="none"/>
    </g>
    <g id="sprite2" transform="matrix(1.0, 0.0, 0.0, 1.0, 1.45, 4.05)">
      <use height="4.95" transform="matrix(1.0, 0.0, 0.0, 1.0, -1.45, -4.05)" width="3.3" xlink:href="#shape2"/>
    </g>
    <g id="shape2" transform="matrix(1.0, 0.0, 0.0, 1.0, 1.45, 4.05)">
      <path d="M1.85 -3.85 L0.9 0.9 -1.45 -0.3 0.8 -4.05 1.85 -3.85" fill="#333333" fill-opacity="0.29803923" fill-rule="evenodd" stroke="none"/>
    </g>
  </defs>
</svg>
