<?xml version="1.0" encoding="UTF-8" standalone="no"?>
<svg xmlns:xlink="http://www.w3.org/1999/xlink" height="22.1px" width="117.1px" xmlns="http://www.w3.org/2000/svg">
  <g transform="matrix(1.0, 0.0, 0.0, 1.0, -2.15, -3.6)">
    <use height="37.8" transform="matrix(0.2344, 0.0, 0.0, 0.2344, 2.1523, 3.7031)" width="35.55" xlink:href="#shape0"/>
    <use height="35.65" transform="matrix(0.2344, 0.0, 0.0, 0.2344, 11.0023, 3.75)" width="41.9" xlink:href="#shape1"/>
    <use height="37.5" transform="matrix(0.2344, 0.0, 0.0, 0.2344, 24.8609, 3.5859)" width="35.5" xlink:href="#shape2"/>
    <use height="35.7" transform="matrix(0.2344, 0.0, 0.0, 0.2344, 33.8227, 3.9727)" width="42.15" xlink:href="#shape3"/>
    <use height="35.8" transform="matrix(0.2344, 0.0, 0.0, 0.2344, 44.3227, 4.043)" width="16.15" xlink:href="#shape4"/>
    <use height="36.35" transform="matrix(0.2344, 0.0, 0.0, 0.2344, 48.8078, 3.9141)" width="41.15" xlink:href="#shape5"/>
    <use height="36.0" transform="matrix(0.2344, 0.0, 0.0, 0.2344, 59.0375, 3.9141)" width="34.65" xlink:href="#shape6"/>
    <use height="36.85" transform="matrix(0.2344, 0.0, 0.0, 0.2344, 67.6438, 3.75)" width="37.4" xlink:href="#shape7"/>
    <use height="36.65" transform="matrix(0.2344, 0.0, 0.0, 0.2344, 76.9844, 3.8438)" width="14.85" xlink:href="#shape8"/>
    <use height="37.25" transform="matrix(0.2344, 0.0, 0.0, 0.2344, 84.6227, 3.7031)" width="38.4" xlink:href="#shape9"/>
    <use height="36.0" transform="matrix(0.2344, 0.0, 0.0, 0.2344, 94.2844, 3.7969)" width="32.85" xlink:href="#shape10"/>
    <use height="37.7" transform="matrix(0.2344, 0.0, 0.0, 0.2344, 102.5961, 3.6094)" width="36.05" xlink:href="#shape11"/>
    <use height="36.0" transform="matrix(0.2344, 0.0, 0.0, 0.2344, 111.5344, 3.7969)" width="32.85" xlink:href="#shape10"/>
    <use height="35.8" transform="matrix(0.2344, 0.0, 0.0, 0.2344, 10.2227, 17.043)" width="16.15" xlink:href="#shape4"/>
    <use height="36.85" transform="matrix(0.2344, 0.0, 0.0, 0.2344, 14.5438, 16.75)" width="37.4" xlink:href="#shape7"/>
    <use height="36.75" transform="matrix(0.2344, 0.0, 0.0, 0.2344, 27.2672, 17.0898)" width="46.25" xlink:href="#shape12"/>
    <use height="36.35" transform="matrix(0.2344, 0.0, 0.0, 0.2344, 42.2078, 16.9141)" width="41.15" xlink:href="#shape5"/>
    <use height="36.0" transform="matrix(0.2344, 0.0, 0.0, 0.2344, 52.4844, 16.7969)" width="32.85" xlink:href="#shape10"/>
    <use height="35.2" transform="matrix(0.2344, 0.0, 0.0, 0.2344, 60.6555, 16.7734)" width="46.1" xlink:href="#shape13"/>
    <use height="36.4" transform="matrix(0.2344, 0.0, 0.0, 0.2344, 75.3906, 16.8555)" width="41.05" xlink:href="#shape14"/>
    <use height="36.75" transform="matrix(0.2344, 0.0, 0.0, 0.2344, 85.4672, 17.0898)" width="46.25" xlink:href="#shape12"/>
    <use height="36.4" transform="matrix(0.2344, 0.0, 0.0, 0.2344, 96.7906, 16.8555)" width="41.05" xlink:href="#shape14"/>
    <use height="36.65" transform="matrix(0.2344, 0.0, 0.0, 0.2344, 106.9844, 16.8438)" width="14.85" xlink:href="#shape8"/>
  </g>
  <defs>
    <g id="shape0" transform="matrix(1.0, 0.0, 0.0, 1.0, -0.65, 35.4)">
      <path d="M18.05 -23.4 Q16.5 -23.25 15.55 -22.4 14.55 -21.55 14.6 -20.4 14.75 -19.3 15.8 -18.6 16.85 -17.9 18.4 -18.0 19.95 -18.15 20.9 -18.95 21.9 -19.8 21.85 -20.95 21.7 -22.05 20.65 -22.75 19.6 -23.45 18.05 -23.4 M32.15 -31.05 Q34.2 -29.05 35.2 -26.65 36.15 -24.2 36.2 -21.85 36.35 -17.75 34.45 -13.4 32.55 -9.0 28.8 -4.9 25.05 -0.8 19.55 2.4 L15.1 0.55 11.1 -1.4 8.25 -3.0 7.15 -3.65 Q9.55 -4.5 11.4 -5.85 L14.45 -8.4 Q10.3 -8.3 7.25 -9.85 4.2 -11.4 2.45 -14.15 0.75 -16.9 0.65 -20.3 0.55 -24.2 2.6 -27.55 4.65 -30.95 8.65 -33.05 12.65 -35.2 18.45 -35.4 23.3 -35.5 26.7 -34.3 30.05 -33.1 32.15 -31.05" fill="#000000" fill-rule="evenodd" stroke="none"/>
    </g>
    <g id="shape1" transform="matrix(1.0, 0.0, 0.0, 1.0, -0.65, 35.2)">
      <path d="M17.85 -20.1 Q16.35 -18.95 16.3 -17.15 16.35 -15.35 17.85 -14.15 19.4 -13.0 21.65 -12.95 23.95 -13.0 25.5 -14.15 27.0 -15.35 27.05 -17.15 27.0 -18.95 25.5 -20.1 23.95 -21.3 21.65 -21.35 19.4 -21.3 17.85 -20.1 M32.4 -32.85 Q36.95 -30.5 39.6 -26.55 42.2 -22.6 42.5 -17.65 42.7 -14.15 41.35 -10.9 40.05 -7.7 37.3 -5.15 34.6 -2.6 30.55 -1.1 26.45 0.4 21.15 0.45 16.85 0.45 13.1 -0.7 9.4 -1.85 6.6 -4.1 3.8 -6.35 2.2 -9.7 0.65 -13.0 0.65 -17.4 0.75 -21.75 2.55 -25.1 4.3 -28.45 7.3 -30.7 10.35 -32.95 14.1 -34.05 17.85 -35.2 21.85 -35.2 27.85 -35.15 32.4 -32.85" fill="#000000" fill-rule="evenodd" stroke="none"/>
    </g>
    <g id="shape2" transform="matrix(1.0, 0.0, 0.0, 1.0, -0.9, 35.9)">
      <path d="M16.25 -23.5 L16.4 -20.75 16.6 -18.2 Q19.7 -18.35 21.25 -19.35 22.75 -20.3 22.7 -21.45 22.65 -22.6 21.0 -23.3 L16.25 -23.5 M28.5 -34.1 Q31.7 -32.85 33.8 -30.4 35.9 -28.0 36.35 -24.15 36.6 -22.25 35.9 -19.75 35.2 -17.25 33.15 -14.75 31.1 -12.3 27.3 -10.5 23.5 -8.65 17.6 -8.1 L17.85 -4.55 18.1 -1.5 18.25 -0.25 12.95 0.5 8.2 1.05 4.75 1.45 3.45 1.6 2.2 -16.15 0.9 -33.3 6.65 -34.8 13.85 -35.75 Q17.7 -36.05 21.5 -35.7 25.25 -35.35 28.5 -34.1" fill="#000000" fill-rule="evenodd" stroke="none"/>
    </g>
    <g id="shape3" transform="matrix(1.0, 0.0, 0.0, 1.0, -0.95, 34.25)">
      <path d="M18.95 -18.3 Q17.4 -17.1 17.35 -15.35 17.4 -13.55 18.95 -12.35 20.45 -11.2 22.75 -11.15 25.0 -11.2 26.55 -12.35 28.05 -13.55 28.1 -15.35 28.05 -17.1 26.55 -18.3 25.0 -19.5 22.75 -19.55 20.45 -19.5 18.95 -18.3 M32.95 -31.85 Q37.5 -29.5 40.15 -25.55 42.75 -21.6 43.05 -16.65 43.25 -13.15 41.95 -9.9 40.65 -6.65 37.9 -4.1 35.15 -1.55 31.1 -0.05 27.05 1.45 21.7 1.45 17.4 1.45 13.65 0.3 9.9 -0.9 7.05 -3.15 4.15 -5.45 2.55 -8.75 0.95 -12.1 0.95 -16.4 1.0 -20.8 2.85 -24.1 4.7 -27.45 7.75 -29.7 10.85 -31.95 14.6 -33.1 18.4 -34.25 22.4 -34.25 28.45 -34.2 32.95 -31.85" fill="#000000" fill-rule="evenodd" stroke="none"/>
    </g>
    <g id="shape4" transform="matrix(1.0, 0.0, 0.0, 1.0, -0.95, 33.95)">
      <path d="M17.1 -33.1 L17.1 -16.8 16.75 0.15 11.65 0.9 6.55 1.4 2.6 1.75 1.05 1.85 0.95 -6.7 0.95 -14.65 1.0 -23.25 1.2 -33.95 6.6 -33.85 11.75 -33.55 15.6 -33.25 17.1 -33.1" fill="#000000" fill-rule="evenodd" stroke="none"/>
    </g>
    <g id="shape5" transform="matrix(1.0, 0.0, 0.0, 1.0, -1.1, 34.5)">
      <path d="M32.25 -34.05 L37.35 -33.5 40.9 -33.05 42.25 -32.85 41.75 -22.85 41.1 -11.85 40.25 -0.4 34.7 0.55 29.35 1.25 25.35 1.7 23.75 1.85 21.1 -3.2 18.6 -7.7 16.8 -10.95 16.1 -12.15 16.05 -6.8 15.95 -2.65 15.9 1.45 11.05 1.1 6.2 0.65 2.55 0.3 1.1 0.1 1.25 -16.7 1.65 -34.35 7.15 -34.2 12.05 -33.9 15.55 -33.65 16.9 -33.5 19.9 -27.4 22.8 -21.9 24.9 -18.0 25.75 -16.45 25.95 -22.8 26.15 -28.6 26.3 -32.85 26.35 -34.5 32.25 -34.05" fill="#000000" fill-rule="evenodd" stroke="none"/>
    </g>
    <g id="shape6" transform="matrix(1.0, 0.0, 0.0, 1.0, -0.8, 34.5)">
      <path d="M32.65 -34.5 L33.75 -29.3 34.65 -24.15 35.2 -20.25 35.45 -18.65 34.0 -18.7 30.5 -18.7 26.15 -18.6 27.1 -9.05 27.9 0.0 22.25 0.65 16.9 1.1 12.85 1.4 11.25 1.5 11.2 -5.25 11.2 -11.45 11.2 -17.75 6.25 -17.2 2.4 -16.6 0.8 -16.3 0.8 -21.75 0.95 -26.9 1.1 -30.7 1.2 -32.25 11.35 -33.0 21.6 -33.7 32.65 -34.5" fill="#000000" fill-rule="evenodd" stroke="none"/>
    </g>
    <g id="shape7" transform="matrix(1.0, 0.0, 0.0, 1.0, -0.4, 35.2)">
      <path d="M32.65 -31.5 Q34.75 -29.75 35.95 -27.7 37.2 -25.65 37.8 -23.6 L32.7 -22.45 28.0 -21.6 24.55 -21.15 23.2 -21.0 Q22.6 -22.05 21.55 -22.55 L19.35 -23.1 17.35 -22.85 Q16.5 -22.5 16.3 -21.9 16.0 -20.9 17.55 -20.1 19.1 -19.35 22.85 -19.2 L27.35 -18.7 Q29.9 -18.3 32.3 -17.25 34.65 -16.2 36.2 -14.3 37.75 -12.4 37.7 -9.45 37.5 -6.5 35.95 -4.35 34.4 -2.25 31.8 -0.9 29.25 0.45 25.95 1.1 L19.05 1.65 Q14.7 1.65 11.15 0.7 7.6 -0.3 4.9 -2.5 2.2 -4.7 0.4 -8.35 L7.35 -10.4 12.5 -11.6 14.55 -12.0 Q15.35 -10.65 16.65 -10.05 17.95 -9.45 19.3 -9.4 L21.7 -9.65 22.95 -10.45 Q23.3 -11.45 21.45 -12.05 L16.2 -12.95 Q12.3 -13.3 9.15 -14.35 6.0 -15.4 4.05 -17.35 2.1 -19.35 1.75 -22.5 1.45 -25.75 3.2 -28.6 4.95 -31.45 8.85 -33.3 12.8 -35.1 19.0 -35.2 23.85 -35.25 27.2 -34.2 30.55 -33.2 32.65 -31.5" fill="#000000" fill-rule="evenodd" stroke="none"/>
    </g>
    <g id="shape8" transform="matrix(1.0, 0.0, 0.0, 1.0, -1.0, 34.8)">
      <path d="M3.0 -0.15 Q2.1 -1.15 1.95 -2.55 1.85 -3.95 2.6 -5.1 3.4 -6.3 4.75 -7.05 6.15 -7.8 7.95 -7.95 L11.2 -7.55 Q12.7 -7.0 13.65 -6.0 14.6 -4.95 14.7 -3.55 14.8 -2.2 14.0 -1.0 13.25 0.15 11.85 0.95 10.5 1.7 8.7 1.85 L5.45 1.45 Q3.95 0.9 3.0 -0.15 M15.85 -34.05 L15.7 -26.0 15.45 -18.15 15.1 -9.9 11.0 -9.65 6.45 -9.4 2.8 -9.2 1.3 -9.1 1.1 -17.85 1.0 -26.55 1.05 -34.8 6.45 -34.65 11.2 -34.4 14.55 -34.2 15.85 -34.05" fill="#000000" fill-rule="evenodd" stroke="none"/>
    </g>
    <g id="shape9" transform="matrix(1.0, 0.0, 0.0, 1.0, -0.95, 35.4)">
      <path d="M33.1 -34.75 L39.1 -35.4 39.3 -24.5 39.35 -15.35 39.35 -6.9 39.3 1.85 37.7 1.75 33.7 1.4 28.4 0.9 22.9 0.15 22.8 -5.35 22.7 -10.95 19.95 -10.75 17.7 -10.6 17.4 0.15 11.9 0.9 6.6 1.4 2.6 1.75 1.05 1.85 0.95 -6.7 0.95 -14.65 1.0 -23.25 1.2 -33.95 6.95 -33.85 12.3 -33.55 16.2 -33.25 17.75 -33.1 17.75 -26.35 17.75 -19.4 20.25 -19.5 22.5 -19.55 22.3 -26.5 22.1 -33.15 23.65 -33.4 27.6 -34.0 33.1 -34.75" fill="#000000" fill-rule="evenodd" stroke="none"/>
    </g>
    <g id="shape10" transform="matrix(1.0, 0.0, 0.0, 1.0, -1.0, 35.0)">
      <path d="M22.15 -34.85 L32.55 -35.0 32.5 -33.75 32.4 -30.55 32.2 -26.25 31.85 -21.8 30.2 -21.9 26.0 -22.2 20.65 -22.6 15.4 -23.1 15.4 -21.65 15.45 -20.25 16.75 -20.15 19.85 -19.95 23.45 -19.7 23.55 -18.85 23.7 -16.75 23.95 -14.05 19.3 -13.1 15.65 -12.45 15.7 -11.6 15.8 -10.15 17.2 -10.25 20.85 -10.55 26.15 -11.1 32.2 -11.75 32.5 -10.0 33.15 -5.5 33.85 0.4 22.35 0.75 11.35 0.9 1.65 1.0 1.4 -9.2 1.15 -21.25 1.0 -33.85 11.95 -34.55 22.15 -34.85" fill="#000000" fill-rule="evenodd" stroke="none"/>
    </g>
    <g id="shape11" transform="matrix(1.0, 0.0, 0.0, 1.0, -1.05, 35.8)">
      <path d="M14.8 -18.2 Q17.95 -18.35 19.5 -19.35 21.0 -20.3 21.0 -21.45 20.95 -22.6 19.35 -23.3 L14.55 -23.5 14.65 -20.75 14.8 -18.2 M27.4 -34.05 Q30.4 -32.8 32.35 -30.4 34.35 -28.0 34.75 -24.15 34.9 -22.6 34.4 -20.7 33.95 -18.8 32.65 -16.8 31.4 -14.8 29.1 -13.0 L33.0 -8.55 35.95 -4.95 37.1 -3.5 29.9 -0.9 24.8 1.1 22.85 1.9 19.85 -1.85 17.2 -5.45 15.35 -8.05 15.6 -3.6 15.85 0.1 15.95 1.65 10.6 1.5 5.9 1.3 2.6 1.15 1.35 1.1 Q1.15 -4.15 1.1 -10.0 L1.05 -21.8 1.05 -33.3 6.6 -34.7 13.5 -35.65 Q17.15 -35.95 20.75 -35.6 24.35 -35.25 27.4 -34.05" fill="#000000" fill-rule="evenodd" stroke="none"/>
    </g>
    <g id="shape12" transform="matrix(1.0, 0.0, 0.0, 1.0, -0.5, 33.75)">
      <path d="M25.4 -13.2 L24.45 -16.6 23.4 -20.1 22.45 -16.5 21.4 -12.7 23.55 -12.95 25.4 -13.2 M33.0 -33.75 L36.05 -27.15 39.8 -19.05 43.55 -10.4 46.75 -2.3 Q43.5 -1.1 39.4 -0.05 L29.8 2.15 28.6 -2.1 27.45 -6.05 22.85 -5.25 19.3 -4.65 18.3 -0.95 17.25 3.0 11.25 1.6 5.85 0.1 2.0 -1.1 0.5 -1.65 3.5 -8.15 7.35 -16.35 11.55 -25.1 15.65 -33.3 21.65 -33.6 27.25 -33.7 31.35 -33.75 33.0 -33.75" fill="#000000" fill-rule="evenodd" stroke="none"/>
    </g>
    <g id="shape13" transform="matrix(1.0, 0.0, 0.0, 1.0, -0.45, 35.1)">
      <path d="M33.1 -33.55 L38.8 -33.6 46.55 -33.45 44.75 -25.25 43.3 -18.75 42.0 -13.2 40.65 -7.6 39.05 -1.1 35.2 -0.6 31.4 -0.25 28.45 0.0 27.3 0.1 26.1 -3.35 24.85 -6.7 23.9 -9.15 23.5 -10.15 23.05 -8.75 21.8 -5.2 20.2 -0.25 16.1 -0.35 12.35 -0.55 9.55 -0.7 8.45 -0.8 7.25 -5.2 5.65 -11.4 3.8 -18.55 2.0 -25.8 0.45 -32.3 5.7 -33.45 10.5 -34.35 13.95 -34.9 15.25 -35.1 15.55 -33.8 16.3 -30.3 17.4 -25.35 18.65 -19.7 19.25 -20.8 20.75 -23.55 22.85 -27.05 23.65 -26.0 25.55 -23.4 27.65 -20.05 28.65 -24.5 29.7 -28.85 30.5 -32.15 30.85 -33.45 33.1 -33.55" fill="#000000" fill-rule="evenodd" stroke="none"/>
    </g>
    <g id="shape14" transform="matrix(1.0, 0.0, 0.0, 1.0, -0.6, 34.75)">
      <path d="M21.1 -34.75 Q25.85 -34.75 29.85 -33.3 33.85 -31.9 36.7 -29.35 39.6 -26.8 41.0 -23.5 L33.3 -20.95 27.8 -19.0 25.65 -18.2 Q24.7 -19.75 23.0 -20.4 L19.5 -20.6 Q17.7 -20.2 16.45 -18.65 15.2 -17.1 15.2 -14.35 15.25 -12.05 16.4 -10.55 17.55 -9.05 19.45 -8.9 L21.45 -9.2 Q22.4 -9.6 23.0 -10.45 L21.15 -10.7 19.55 -10.85 18.85 -10.9 18.75 -13.4 18.8 -15.45 18.85 -16.3 24.5 -16.5 31.8 -16.65 41.65 -16.8 Q41.5 -12.25 39.8 -8.8 38.1 -5.35 35.2 -3.05 32.3 -0.7 28.5 0.5 24.75 1.65 20.45 1.65 14.65 1.65 10.2 -0.45 5.75 -2.5 3.2 -6.5 0.65 -10.45 0.6 -16.15 0.65 -20.55 2.35 -24.0 4.05 -27.4 6.9 -29.8 9.8 -32.2 13.45 -33.45 17.1 -34.7 21.1 -34.75" fill="#000000" fill-rule="evenodd" stroke="none"/>
    </g>
  </defs>
</svg>
