<?xml version="1.0" encoding="UTF-8" standalone="no"?>
<svg xmlns:xlink="http://www.w3.org/1999/xlink" height="685.45px" width="872.75px" xmlns="http://www.w3.org/2000/svg">
  <g transform="matrix(1.0, 0.0, 0.0, 1.0, 272.0, 192.0)">
    <use height="308.65" transform="matrix(1.0591, 0.0, 0.0, 0.1589, -259.5459, -188.5315)" width="500.0" xlink:href="#shape0"/>
    <use height="308.65" transform="matrix(1.0991, 0.0, 0.0, 0.1651, -269.5651, 139.5049)" width="500.0" xlink:href="#shape0"/>
    <use height="87.25" transform="matrix(0.7, 0.0, 0.0, 0.7, -119.3, -30.55)" width="340.95" xlink:href="#shape1"/>
    <use height="384.0" transform="matrix(1.1243, 0.0, 0.0, 0.7604, -271.9956, -130.501)" width="506.95" xlink:href="#shape2"/>
  </g>
  <defs>
    <g id="shape0" transform="matrix(1.0, 0.0, 0.0, 1.0, -100.75, -184.8)">
      <path d="M100.75 493.45 L100.75 184.8 600.75 184.8 600.75 493.45 100.75 493.45" fill="#000000" fill-opacity="0.9882353" fill-rule="evenodd" stroke="none"/>
    </g>
    <g id="shape1" transform="matrix(1.0, 0.0, 0.0, 1.0, 0.0, 0.0)">
      <path d="M303.7 28.85 L307.1 28.5 Q308.8 28.5 308.95 30.4 308.95 31.8 307.75 32.15 L300.85 32.7 Q295.6 32.75 293.55 31.65 288.85 29.9 288.85 25.2 288.85 24.5 289.15 23.2 289.5 22.05 290.0 21.55 290.55 20.9 291.55 20.85 293.25 20.85 293.3 22.7 L292.8 23.9 292.25 25.45 Q292.25 27.7 294.45 28.5 L300.1 29.15 303.7 28.85 M307.65 9.25 Q307.7 10.75 305.8 10.8 L297.6 10.35 296.1 9.85 295.85 10.05 294.85 10.45 293.3 10.75 291.8 10.9 Q291.05 10.9 290.55 10.4 290.1 9.95 290.05 9.2 290.05 7.35 292.25 7.35 L294.85 7.5 295.5 8.05 Q295.8 8.35 296.05 8.35 L296.6 8.0 297.6 7.4 302.9 6.95 Q307.6 6.9 307.65 9.25 M253.9 11.1 L253.75 12.1 253.35 12.8 Q253.2 12.95 253.15 13.25 L253.35 14.6 253.65 16.45 Q253.65 18.8 252.9 22.65 252.15 26.4 251.0 28.75 248.7 33.65 246.9 33.65 244.9 33.65 244.85 32.0 244.8 31.05 245.55 30.3 L247.15 28.4 Q249.95 24.35 250.6 17.0 250.7 15.35 251.1 14.75 L251.6 13.8 Q251.7 13.25 251.25 12.65 250.7 11.8 250.55 10.9 L250.2 7.6 Q250.2 5.85 252.05 5.75 252.85 5.75 253.45 6.35 254.0 6.9 254.0 7.7 L253.9 11.1 M280.45 11.95 L280.1 10.55 Q280.1 8.1 280.65 6.8 281.1 5.0 282.5 4.95 284.1 4.95 284.2 6.8 L283.6 9.7 282.95 11.75 282.15 13.25 282.35 13.75 282.7 15.2 282.55 21.6 Q282.55 25.6 283.05 29.65 283.25 32.1 283.4 32.05 283.4 34.05 281.8 34.25 279.85 34.25 279.45 30.9 L279.3 26.6 279.2 22.45 Q279.15 17.1 279.9 14.75 L280.65 13.15 280.45 11.95 M273.65 18.0 Q274.1 16.75 275.25 16.75 276.9 16.75 277.05 18.55 L276.9 19.15 Q275.25 23.65 271.0 28.1 270.0 29.2 268.55 29.75 L267.5 30.1 266.8 31.0 265.8 32.3 Q263.9 34.05 262.5 34.05 259.3 34.1 259.3 30.1 L259.5 20.65 259.7 14.7 Q259.7 13.15 260.55 12.05 L260.05 10.55 Q259.5 8.9 259.5 7.7 259.45 4.9 261.45 4.9 263.3 4.9 263.3 7.7 263.3 9.5 262.5 10.65 L262.0 11.65 262.35 12.85 262.8 14.6 262.7 20.85 262.6 27.7 Q262.55 29.7 263.3 29.7 L263.95 29.5 264.9 29.25 266.2 29.3 266.7 28.1 Q266.85 27.65 268.7 26.5 271.45 23.4 273.65 18.0 M234.65 4.1 Q234.65 2.75 236.15 2.7 236.55 2.7 237.05 3.15 239.75 6.05 239.8 7.6 239.85 9.05 238.5 9.05 237.5 9.05 237.0 7.8 L235.8 6.2 Q234.7 4.7 234.65 4.1 M239.5 3.85 Q238.75 3.05 238.65 2.25 238.65 0.95 240.2 0.9 L241.15 1.35 Q243.85 4.2 243.85 5.8 243.9 7.2 242.6 7.2 241.5 7.2 241.05 6.1 240.45 4.95 239.5 3.85 M213.25 5.9 Q213.2 3.95 215.05 3.95 217.0 3.95 217.0 6.2 217.0 7.75 216.35 9.4 L215.9 10.9 216.3 11.9 216.55 13.55 Q216.55 14.75 217.9 14.95 218.65 15.0 219.6 15.55 L220.45 15.85 220.9 15.5 221.55 14.9 Q222.35 14.35 223.65 13.95 228.55 12.45 232.15 10.4 L233.9 9.2 Q234.7 8.7 235.25 8.7 237.25 8.7 237.3 11.0 237.3 11.65 235.95 12.5 234.4 13.65 227.6 16.25 223.65 17.8 222.2 17.8 L221.0 17.65 220.05 17.3 219.55 17.7 218.25 18.25 Q217.15 18.45 216.35 21.2 216.75 20.65 217.15 23.55 L217.15 26.35 Q217.15 28.5 218.75 29.3 L222.25 29.7 229.85 29.55 236.7 28.7 Q239.05 28.7 239.1 30.65 239.15 32.25 237.05 32.45 L231.6 32.95 224.6 33.2 Q218.1 33.2 216.6 32.25 213.65 30.75 214.05 25.45 L213.6 23.95 213.55 19.85 213.45 13.7 Q213.4 12.55 213.75 11.6 L214.2 10.85 214.4 10.45 214.2 10.0 213.8 9.15 Q213.25 7.6 213.25 5.9" fill="#ffffff" fill-opacity="0.6039216" fill-rule="evenodd" stroke="none"/>
      <path d="M206.0 0.45 Q208.7 3.3 208.75 4.85 208.8 6.25 207.45 6.25 206.4 6.25 205.95 5.3 L204.7 3.4 Q203.65 1.95 203.6 1.35 203.6 0.05 205.05 0.0 L206.0 0.45 M204.7 6.7 Q204.75 8.1 203.4 8.1 202.35 8.1 201.85 7.05 201.25 5.75 200.35 4.75 199.65 3.95 199.55 3.2 199.55 1.85 201.0 1.8 201.45 1.8 202.0 2.25 204.7 5.1 204.7 6.7 M106.8 19.85 Q108.5 19.85 108.6 21.7 L108.05 22.9 107.55 24.45 Q107.55 26.7 109.75 27.5 L115.4 28.15 118.95 27.85 122.35 27.5 Q124.1 27.5 124.25 29.4 124.25 30.8 123.05 31.15 L116.15 31.7 Q110.85 31.75 108.8 30.65 104.1 28.9 104.1 24.2 104.1 23.5 104.45 22.2 104.8 21.05 105.3 20.55 105.8 19.9 106.8 19.85 M121.1 9.8 L112.9 9.35 111.35 8.85 111.1 9.05 Q110.75 9.4 110.1 9.45 L108.6 9.75 107.05 9.9 Q106.35 9.9 105.8 9.4 105.35 8.95 105.3 8.2 105.3 6.35 107.55 6.35 L110.1 6.5 Q110.45 6.6 110.8 7.05 L111.3 7.35 111.9 7.0 112.85 6.4 118.2 5.95 Q122.9 5.9 122.95 8.25 122.95 9.75 121.1 9.8 M178.3 19.9 Q176.5 19.9 176.45 18.15 176.45 17.45 177.4 16.45 180.6 13.85 182.6 10.7 184.0 8.45 185.8 4.4 186.7 2.35 187.95 2.35 189.5 2.35 189.55 4.25 L189.25 5.4 188.9 6.75 189.05 6.85 190.5 7.9 191.05 7.55 Q191.9 7.05 192.5 7.0 L195.4 6.85 198.75 6.7 Q202.2 6.65 202.25 10.2 202.25 11.2 201.3 12.7 L200.55 13.75 200.85 15.6 199.75 18.6 Q195.7 28.4 184.5 33.8 181.7 35.2 181.05 35.2 179.25 35.2 179.2 33.3 179.15 32.15 180.45 31.55 L182.85 30.55 Q188.1 27.95 191.15 25.6 194.8 21.55 197.15 16.45 197.35 15.9 198.25 15.0 L199.05 14.0 198.7 13.5 Q198.2 12.7 198.2 11.9 198.2 10.2 196.5 10.2 L191.95 10.1 Q191.3 10.1 190.4 9.65 L189.65 9.2 Q189.55 9.2 189.0 9.55 L187.3 10.1 185.65 11.5 Q180.35 19.9 178.3 19.9 M167.3 6.05 Q171.6 6.05 171.65 9.5 L171.2 11.65 170.85 12.8 171.15 13.75 171.5 15.65 Q171.5 22.75 171.8 25.7 171.8 28.4 170.9 29.55 169.95 30.7 167.6 30.7 L162.5 30.25 161.3 29.75 160.1 30.15 157.2 30.25 153.55 31.0 149.05 31.05 Q145.25 30.9 145.2 29.2 145.15 27.4 147.75 27.35 L158.3 27.75 160.65 28.45 161.2 28.25 161.95 27.95 163.0 27.7 166.2 27.35 Q168.4 27.05 168.4 23.2 L168.45 19.95 168.5 16.75 168.6 15.1 Q168.7 14.05 169.15 13.3 L169.4 12.55 168.95 12.0 168.05 10.6 Q167.7 9.2 164.3 9.2 L156.15 9.15 153.7 8.75 153.15 8.4 152.8 8.3 151.3 8.95 Q149.85 9.55 148.3 9.55 145.2 9.55 145.15 7.75 145.1 5.8 147.8 5.8 149.25 5.8 150.75 6.3 151.25 6.6 152.3 7.0 L152.55 6.8 153.4 6.4 155.9 6.05 167.3 6.05 M62.3 14.1 L61.95 15.05 61.75 16.1 62.05 16.7 62.5 18.15 Q62.55 19.3 61.85 21.2 61.05 23.3 59.7 24.75 55.75 28.9 49.0 30.25 L44.75 30.75 Q42.75 30.8 42.7 28.95 42.65 27.15 44.5 27.05 52.85 26.4 57.05 22.4 58.9 20.7 59.25 18.65 59.35 18.0 59.8 17.15 L60.2 16.05 59.85 15.5 59.15 14.25 Q57.35 9.2 51.5 9.15 L43.65 10.15 41.05 10.55 40.05 10.3 39.35 10.15 38.85 10.7 37.8 11.4 34.5 12.45 33.9 12.55 Q32.0 12.55 31.95 10.7 31.9 9.2 33.95 8.8 35.7 8.25 37.0 8.25 L38.0 8.4 38.8 8.5 40.1 7.9 41.55 7.15 Q45.95 5.85 52.15 5.8 55.75 5.75 58.7 7.7 62.2 9.9 62.3 14.1 M67.2 5.45 Q67.75 5.95 67.7 6.8 67.45 11.45 67.35 17.4 L67.45 19.2 67.6 20.7 67.3 22.15 67.15 23.15 67.5 23.9 68.1 25.2 Q68.1 26.0 68.4 27.05 68.85 28.6 69.15 28.75 L69.2 28.85 Q70.9 28.85 73.25 23.95 73.7 23.1 74.75 23.1 76.55 23.1 76.6 25.05 L76.45 25.55 Q73.15 32.5 69.3 32.5 66.8 32.5 65.8 29.7 65.25 28.3 65.0 25.25 64.85 23.65 65.75 22.8 L64.95 22.05 Q64.65 21.6 64.4 19.75 63.95 16.2 63.9 10.4 L63.9 7.3 Q64.2 4.9 66.05 4.85 66.65 4.85 67.2 5.45 M83.65 9.3 L83.35 8.15 Q83.35 6.55 84.85 6.5 85.95 6.45 86.35 7.1 88.85 10.85 88.6 12.8 L88.55 13.3 89.05 13.75 Q89.95 14.35 90.7 16.5 L91.5 19.25 Q92.35 22.5 92.35 24.0 92.35 26.4 90.9 26.45 88.85 26.5 88.75 24.5 88.45 19.85 87.35 16.0 87.15 15.25 87.25 14.2 87.35 13.8 87.0 13.55 L85.55 12.2 83.65 9.3 M99.45 5.8 Q99.5 6.6 98.85 8.7 L98.25 10.75 Q97.85 11.25 97.4 12.25 L97.65 12.75 98.0 14.2 97.85 20.6 Q97.8 24.6 98.3 28.65 98.55 31.1 98.7 31.05 98.7 33.05 97.05 33.25 95.15 33.25 94.7 29.9 L94.55 25.6 94.5 21.45 Q94.45 16.1 95.15 13.75 L95.95 12.15 95.75 10.95 95.4 9.55 Q95.4 7.1 95.9 5.8 96.4 4.0 97.8 3.95 99.4 3.95 99.45 5.8" fill="#ffffff" fill-opacity="0.6039216" fill-rule="evenodd" stroke="none"/>
      <path d="M18.1 77.3 L17.35 80.15 Q17.3 82.15 22.8 82.2 L25.6 82.0 28.6 81.7 Q30.55 81.7 30.65 83.55 30.65 85.3 27.5 85.6 L23.65 85.6 Q20.0 85.6 17.35 84.5 13.95 83.3 13.9 80.05 13.85 75.65 16.45 75.65 18.1 75.65 18.1 77.3 M29.65 67.35 Q29.7 68.75 27.8 68.75 L26.25 68.7 24.85 68.55 23.05 68.45 Q22.0 68.3 21.35 67.85 L21.0 67.7 20.15 68.3 Q19.2 69.1 17.85 69.1 15.85 69.15 15.85 67.4 15.85 66.15 17.05 65.8 L19.1 65.6 Q19.7 65.6 20.4 66.05 L20.95 66.3 21.8 65.85 Q22.5 65.35 23.15 65.3 L27.75 65.1 Q28.35 65.1 29.0 65.75 29.65 66.35 29.65 67.35 M178.4 82.2 L181.25 82.0 184.2 81.7 Q186.2 81.7 186.25 83.55 186.3 85.3 183.15 85.6 L179.25 85.6 Q175.65 85.6 172.95 84.5 169.55 83.3 169.5 80.05 169.5 75.65 172.1 75.65 173.75 75.65 173.75 77.3 L172.95 80.15 Q172.9 82.15 178.4 82.2 M184.6 65.75 Q185.3 66.35 185.3 67.35 185.35 68.75 183.4 68.75 L181.9 68.7 180.5 68.55 178.7 68.45 Q177.6 68.3 176.95 67.85 L176.6 67.7 175.75 68.3 Q174.8 69.1 173.5 69.1 171.45 69.15 171.45 67.4 171.45 66.15 172.7 65.8 L174.75 65.6 Q175.3 65.6 176.0 66.05 L176.55 66.3 177.45 65.85 Q178.1 65.35 178.8 65.3 L183.4 65.1 Q183.95 65.1 184.6 65.75 M155.65 62.2 Q155.65 60.5 157.7 60.45 159.5 60.4 160.85 61.15 L161.45 61.45 161.85 61.2 162.65 60.65 Q163.8 60.25 164.0 59.2 L164.4 55.85 Q164.6 54.1 166.3 54.05 168.05 54.0 168.05 55.95 L167.5 59.35 Q167.5 59.7 168.05 59.7 L170.1 59.45 172.35 59.0 Q174.25 59.0 174.3 60.75 174.35 62.35 172.6 62.75 L167.75 63.5 Q166.8 63.6 166.55 64.1 L165.9 65.8 165.1 66.7 Q164.75 66.85 164.75 66.95 L164.85 67.55 165.1 68.75 164.85 70.45 Q162.7 79.15 160.95 83.65 160.45 84.9 159.1 84.95 158.25 84.95 157.65 84.35 157.3 83.85 157.25 83.15 157.25 82.65 157.95 80.9 160.1 75.6 161.65 70.25 161.9 68.65 162.5 67.75 L163.4 66.6 163.25 65.9 163.15 64.85 163.15 63.65 162.8 63.35 161.75 62.95 161.55 63.1 160.8 63.65 158.15 64.15 Q155.65 64.2 155.65 62.2 M146.85 58.35 Q147.9 58.3 148.35 58.95 150.85 62.7 150.6 64.65 L150.5 65.15 151.05 65.6 Q151.95 66.2 152.65 68.35 L153.45 71.1 Q154.35 74.35 154.35 75.85 154.35 78.25 152.9 78.3 150.85 78.35 150.7 76.35 150.4 71.7 149.35 67.85 149.15 67.1 149.25 66.05 149.35 65.65 148.95 65.4 L147.55 64.05 145.65 61.15 145.3 60.0 Q145.3 58.4 146.85 58.35 M125.9 62.25 L125.9 59.15 Q126.15 56.75 128.0 56.7 128.6 56.7 129.15 57.3 129.7 57.8 129.7 58.65 129.45 63.3 129.35 69.25 L129.45 71.05 129.55 72.55 129.3 74.0 129.1 75.0 129.45 75.75 130.05 77.05 Q130.05 77.85 130.4 78.9 130.8 80.45 131.15 80.6 L131.15 80.7 Q132.85 80.7 135.25 75.8 135.65 74.95 136.75 74.95 138.5 74.95 138.55 76.9 L138.4 77.4 Q135.15 84.35 131.25 84.35 128.8 84.35 127.75 81.55 127.25 80.15 126.95 77.1 126.85 75.5 127.7 74.65 L126.95 73.9 Q126.65 73.45 126.4 71.6 125.95 68.05 125.9 62.25 M91.45 60.5 Q89.45 60.5 89.45 59.1 89.45 57.15 92.15 57.15 93.4 57.15 95.4 58.05 L96.0 57.7 Q96.8 57.25 97.85 57.25 L98.6 57.2 Q98.6 56.45 97.9 55.75 97.0 54.7 97.0 53.8 97.0 52.5 98.7 52.5 100.8 52.5 101.1 54.85 101.35 56.35 103.1 56.8 L106.25 57.05 Q108.4 57.05 109.15 55.95 L109.95 53.75 Q110.45 52.25 112.0 52.25 112.8 52.25 113.5 52.85 114.15 53.45 114.15 54.25 114.15 55.35 112.75 55.85 112.2 56.05 112.2 56.3 112.2 56.9 115.1 56.9 L116.9 56.8 117.85 56.75 117.9 56.75 119.85 57.0 Q121.25 57.4 121.25 58.4 121.25 59.55 119.3 59.8 L117.0 59.8 113.05 59.65 109.2 59.5 106.85 59.9 Q106.25 60.25 106.25 60.5 106.25 61.7 109.9 61.7 L112.05 61.6 114.4 61.4 Q119.0 61.4 119.0 62.65 119.0 64.25 114.3 64.25 L112.35 64.2 111.2 64.2 110.3 64.25 109.3 64.3 108.3 64.25 107.45 64.2 106.55 64.35 Q106.1 64.6 106.1 64.85 106.1 65.65 108.2 65.9 L111.3 65.95 114.65 65.9 118.1 65.8 Q122.65 65.8 122.65 67.4 122.65 68.9 120.0 68.9 L116.7 68.75 113.5 68.65 111.25 68.7 108.85 68.75 106.8 68.75 104.85 68.65 Q100.6 68.65 100.6 69.9 100.6 70.85 103.15 70.85 L104.25 70.85 105.05 70.8 Q105.8 70.8 107.15 71.3 L108.45 71.65 109.65 71.2 Q110.55 70.75 111.35 70.75 L116.2 71.0 Q119.1 71.7 119.1 74.45 L118.75 76.85 118.55 78.15 118.85 79.4 119.2 80.85 Q119.2 84.55 118.3 85.65 117.2 86.95 113.7 86.95 L108.35 86.75 105.2 86.75 Q102.5 86.6 102.5 85.35 102.5 83.9 105.6 83.9 L113.65 83.9 115.15 83.4 116.25 82.15 116.5 80.2 Q116.65 78.8 117.0 78.2 L116.35 76.75 115.8 74.8 Q115.2 73.9 113.3 73.55 L110.05 73.5 109.1 73.2 Q108.7 72.95 108.45 72.95 108.25 72.95 107.8 73.25 L106.65 73.65 Q97.9 73.65 97.9 75.0 97.9 75.35 98.25 75.6 L98.95 75.8 99.9 75.75 100.9 75.65 102.4 76.0 103.45 76.25 104.2 76.05 105.9 75.65 109.05 75.5 112.3 75.45 114.05 75.7 Q115.4 76.2 115.4 77.15 115.4 78.45 111.6 78.45 L106.1 78.3 104.65 78.05 103.5 77.8 Q102.7 78.45 100.95 78.55 L98.3 78.55 97.45 78.85 97.2 78.95 97.55 79.45 98.5 79.7 100.75 79.65 103.1 79.55 104.3 79.8 105.2 80.05 106.6 79.75 108.55 79.4 112.8 79.35 Q115.9 79.35 115.9 80.8 115.9 81.5 114.65 82.05 113.85 82.4 113.2 82.35 L107.3 82.15 105.75 81.8 105.35 81.5 Q105.0 82.15 102.15 82.3 L99.5 82.25 98.1 82.3 Q97.6 82.45 97.6 82.95 97.6 83.75 98.35 83.85 L100.9 84.2 Q102.5 84.5 102.5 85.8 102.5 86.45 101.8 86.75 L100.7 87.1 98.85 87.05 97.05 87.0 Q94.3 87.0 94.1 82.1 L94.05 80.2 Q94.0 79.1 94.1 78.7 L91.8 80.7 Q89.95 82.4 88.3 82.4 86.6 82.4 86.6 80.5 86.6 79.75 89.7 78.0 L94.5 74.55 Q97.1 72.1 97.1 69.5 L97.05 69.25 96.3 69.2 94.85 69.0 93.9 68.45 Q93.7 69.2 92.1 69.5 L89.2 69.8 87.7 69.45 Q86.7 69.1 86.7 68.35 86.7 67.55 87.6 67.1 88.75 66.6 89.4 66.6 L90.85 66.75 91.25 66.7 91.75 66.6 Q93.35 66.6 93.8 67.45 94.25 66.4 97.05 66.15 L101.1 66.05 Q101.6 66.05 102.2 65.7 L102.6 65.15 Q102.6 64.35 102.05 64.35 L101.25 64.45 100.25 64.55 98.65 64.35 Q97.6 64.15 97.35 63.7 96.85 65.0 92.5 65.0 L91.5 64.75 Q90.7 64.5 90.7 63.85 90.7 62.75 92.25 62.3 L94.65 62.0 96.25 62.25 Q97.15 62.5 97.4 63.0 97.8 62.1 100.1 61.7 103.0 61.2 103.0 60.7 L102.6 60.3 Q102.05 59.95 101.65 59.95 L99.4 60.05 97.05 60.15 95.65 59.7 Q95.3 59.45 95.4 59.05 L94.35 59.95 91.45 60.5 M80.75 62.65 Q80.75 61.75 81.2 61.1 L81.45 60.45 81.25 60.05 80.7 59.25 Q80.2 58.0 80.15 56.25 80.1 53.9 81.85 53.85 83.7 53.8 83.75 56.45 L83.85 58.1 83.65 59.1 83.2 59.7 Q82.95 60.0 82.95 60.25 L83.25 60.9 83.75 62.1 83.85 68.55 Q83.9 76.6 79.1 80.8 76.65 83.75 72.5 85.5 L71.65 85.7 Q70.9 85.7 70.4 85.3 69.75 84.8 69.75 84.1 69.75 82.5 71.2 82.05 74.85 80.8 77.1 78.3 80.8 74.2 80.8 67.1 L80.75 64.7 80.75 62.65 M63.35 56.45 Q63.75 54.1 65.2 54.05 66.7 54.0 66.75 56.05 L66.65 56.4 65.65 63.25 65.35 66.15 64.95 67.65 65.1 68.1 65.5 69.2 Q65.6 70.0 66.15 70.0 66.7 70.0 67.45 68.55 L68.75 65.7 Q69.2 64.65 70.3 64.6 71.8 64.55 71.8 66.15 71.8 67.6 69.3 71.5 67.25 74.65 65.65 74.7 64.45 74.75 63.8 73.55 63.2 72.45 63.15 71.3 L63.15 69.55 63.55 67.95 63.35 67.65 62.9 66.75 Q62.65 66.15 62.65 64.3 62.65 60.05 63.35 56.45 M53.2 54.0 Q53.65 54.0 54.15 54.4 56.85 57.3 56.9 58.85 56.95 60.25 55.6 60.25 54.55 60.25 54.05 59.2 53.5 58.0 52.5 56.95 51.8 56.1 51.7 55.35 51.7 54.05 53.2 54.0 M58.2 52.6 Q60.9 55.5 60.95 57.0 61.0 58.45 59.6 58.45 58.6 58.45 58.1 57.45 57.5 56.15 56.55 55.1 55.75 54.2 55.75 53.45 55.75 52.2 57.2 52.15 57.65 52.15 58.2 52.6 M37.65 53.9 Q39.15 53.9 39.5 55.15 L40.4 59.3 40.2 61.0 40.5 61.25 41.5 62.1 42.4 64.0 Q42.85 64.9 43.55 64.9 44.35 64.9 46.0 64.1 51.65 61.3 52.65 61.25 54.4 61.2 54.6 63.1 54.6 64.4 53.5 64.8 47.65 66.95 44.6 68.45 L42.1 69.7 40.55 70.0 40.0 70.05 39.85 70.6 Q39.65 71.5 39.05 71.85 35.5 75.0 35.5 77.35 35.5 80.25 38.6 81.15 L44.25 81.6 49.3 81.3 52.95 80.8 Q53.95 80.7 54.7 81.1 55.55 81.6 55.55 82.6 55.55 84.0 53.9 84.4 L43.8 85.15 Q38.75 85.15 36.05 83.95 32.0 82.1 32.0 77.55 32.0 73.6 36.85 69.95 37.25 69.7 37.9 69.5 L38.85 69.15 39.0 68.7 Q39.1 68.1 39.3 67.85 L39.85 66.7 39.05 64.1 Q38.7 63.0 38.7 62.2 L38.8 61.4 38.15 60.8 37.25 59.7 Q35.85 56.95 35.8 55.9 35.75 55.1 36.3 54.55 36.85 54.0 37.65 53.9 M8.75 55.85 Q9.0 54.1 10.65 54.05 12.45 54.0 12.45 55.95 L11.9 59.35 Q11.9 59.7 12.45 59.7 L14.45 59.45 16.7 59.0 Q18.6 59.0 18.7 60.75 18.7 62.35 17.0 62.75 L12.1 63.5 Q11.2 63.6 10.9 64.1 L10.25 65.8 9.45 66.7 9.15 66.95 9.2 67.55 9.5 68.75 9.2 70.45 Q7.05 79.15 5.35 83.65 4.85 84.9 3.45 84.95 2.6 84.95 2.05 84.35 L1.6 83.15 Q1.6 82.65 2.3 80.9 4.5 75.6 6.0 70.25 6.3 68.65 6.85 67.75 L7.75 66.6 7.6 65.9 7.5 64.85 7.5 63.65 7.2 63.35 6.1 62.95 5.95 63.1 5.2 63.65 Q4.25 64.1 2.5 64.15 0.0 64.2 0.0 62.2 0.0 60.5 2.1 60.45 3.85 60.4 5.2 61.15 L5.85 61.45 6.25 61.2 Q6.65 60.8 7.05 60.65 8.15 60.25 8.4 59.2 L8.75 55.85" fill="#ffffff" fill-opacity="0.6039216" fill-rule="evenodd" stroke="none"/>
      <path d="M197.95 55.25 L197.65 57.9 Q197.45 58.75 197.05 59.2 L196.9 59.55 197.2 60.25 198.0 61.85 198.55 63.7 199.65 64.5 Q200.8 64.9 201.15 65.45 L201.4 66.1 Q201.6 65.9 202.2 65.75 L203.65 66.1 Q207.95 67.9 211.55 70.5 212.4 71.1 212.4 72.1 212.5 73.75 210.7 73.8 210.15 73.8 208.3 72.65 L202.5 69.15 201.55 68.1 200.95 67.25 200.1 67.6 198.95 67.8 Q198.45 68.05 198.2 68.55 198.05 69.05 198.05 70.7 L198.1 77.3 198.2 83.85 Q198.2 85.6 196.2 85.65 194.5 85.7 194.45 83.95 L194.65 79.85 194.8 75.25 194.75 68.45 194.7 62.2 Q194.7 61.25 195.4 59.8 L194.85 58.4 Q194.25 56.95 194.25 55.8 194.25 53.3 196.2 53.25 197.95 53.2 197.95 55.25 M217.15 68.4 Q216.65 68.5 216.5 69.05 L216.45 70.1 216.5 71.8 216.6 73.55 Q216.6 75.1 215.1 75.25 213.65 75.25 213.55 73.25 L213.6 70.75 213.7 68.3 Q213.7 67.1 214.05 66.5 214.5 65.75 215.9 65.7 L218.0 66.4 218.3 66.15 219.2 65.75 221.8 65.55 Q223.5 65.55 223.5 64.6 L223.5 63.9 223.45 62.9 Q223.45 61.25 224.9 61.25 226.45 61.25 226.45 63.0 L226.5 63.9 226.5 64.35 Q226.5 65.2 229.1 65.15 L232.55 65.1 Q233.95 65.05 235.1 66.05 236.2 67.05 236.2 68.65 L236.05 70.3 235.2 71.7 234.65 72.4 234.75 73.15 234.85 74.1 234.35 75.75 Q231.9 80.7 228.2 83.85 L225.75 85.6 Q223.95 86.65 222.85 86.65 221.4 86.65 221.35 85.2 221.3 84.0 222.85 83.4 L226.05 81.95 Q228.0 80.25 230.0 77.75 231.75 75.55 232.5 73.35 232.75 72.55 233.15 72.2 L233.45 71.8 233.35 71.6 Q233.0 70.65 232.95 69.1 232.95 68.4 232.4 68.15 L230.5 68.05 225.2 67.9 222.6 68.05 Q221.65 67.5 221.4 67.85 L219.55 68.0 218.85 67.7 218.4 67.65 218.05 67.85 217.15 68.4 M275.0 56.15 Q276.25 56.15 277.7 58.1 277.95 58.1 278.2 59.0 L278.45 59.4 278.85 59.45 279.5 59.3 Q280.75 59.3 282.6 60.7 285.1 62.55 285.1 63.7 285.1 64.4 284.7 64.9 284.2 65.6 283.5 65.6 282.75 65.6 280.6 63.75 L278.75 62.0 278.2 61.2 277.85 60.65 276.85 60.65 Q275.8 60.8 274.25 59.6 273.2 58.75 273.1 58.05 273.1 57.25 273.65 56.7 274.2 56.15 275.0 56.15 M265.15 67.6 L267.5 67.5 Q270.9 67.5 270.9 69.45 270.9 71.35 268.5 71.35 L263.35 71.2 249.4 71.4 248.15 71.25 247.05 70.75 Q246.7 70.45 246.4 70.45 L245.75 70.75 245.0 71.15 241.6 71.6 240.45 71.65 239.25 71.6 Q238.2 71.15 238.2 69.75 238.2 67.8 240.9 67.8 L243.45 68.05 245.05 68.6 246.05 68.9 246.9 68.65 247.95 68.1 249.75 67.75 252.65 67.75 259.9 67.75 265.15 67.6 M308.75 55.15 Q309.55 55.2 311.0 58.05 L312.8 59.75 Q315.3 61.15 315.3 62.15 315.3 63.9 313.55 63.9 312.25 63.9 311.25 62.3 L310.1 60.0 308.45 59.3 Q306.45 58.35 306.45 56.55 306.45 55.0 308.3 55.1 L308.75 55.15 M297.7 67.5 L297.9 66.35 Q298.05 65.05 299.4 64.1 300.15 62.75 300.95 62.75 301.65 62.7 302.25 63.2 302.75 63.65 302.75 64.45 L302.55 65.4 Q301.65 67.6 300.2 68.3 L298.95 68.6 Q298.4 68.65 298.35 69.0 L298.2 69.95 Q297.95 70.8 297.35 71.25 290.25 78.35 281.1 82.2 277.4 84.3 275.9 84.3 273.9 84.3 273.85 82.4 273.85 81.45 274.8 80.9 L275.95 80.55 Q286.85 77.0 294.6 69.25 295.25 68.55 296.6 68.0 296.95 67.95 297.7 67.5 M331.1 63.35 Q331.1 62.9 329.05 62.9 L327.8 62.9 326.2 63.1 Q325.65 63.35 325.65 64.25 325.65 65.05 326.05 65.55 326.45 66.05 327.05 66.05 L329.0 66.05 Q330.25 66.05 330.6 65.65 L331.1 63.35 M330.15 53.55 L330.0 54.15 329.9 54.95 Q329.9 56.0 331.35 55.95 L336.1 55.9 337.0 56.2 Q337.8 56.55 337.8 57.3 337.8 58.75 334.5 58.75 L330.45 58.55 Q330.3 58.55 329.9 59.3 329.9 60.55 331.85 60.5 L337.0 60.4 338.7 60.7 Q340.15 61.15 340.15 62.0 340.15 62.75 339.2 63.05 L337.5 63.2 336.05 63.05 Q335.2 63.05 334.45 63.8 333.75 64.45 333.75 65.35 333.75 65.85 334.8 66.0 L336.15 66.0 Q338.95 66.05 338.95 67.5 338.95 68.85 337.3 68.85 L334.5 68.75 331.85 68.6 Q329.65 68.6 329.65 69.6 329.65 70.6 333.05 70.6 L334.1 70.6 Q338.55 70.6 338.55 72.25 338.55 73.65 335.85 73.65 L333.65 73.5 331.55 73.35 Q329.5 73.35 329.5 74.5 329.5 74.9 329.9 75.1 L330.55 75.05 331.5 75.1 338.25 75.7 339.5 75.75 Q340.3 76.3 340.3 76.95 340.3 78.35 337.1 78.35 L333.5 78.15 330.0 77.95 Q329.2 77.95 329.2 80.15 L329.2 81.2 329.25 82.05 328.6 83.05 328.5 83.1 335.9 83.4 336.95 83.3 338.1 83.2 339.75 83.5 Q340.95 83.95 340.95 84.85 340.95 87.25 337.8 87.25 L327.5 86.5 Q320.2 85.55 318.0 83.8 L317.4 82.8 315.1 82.05 313.1 81.3 Q312.5 81.3 310.75 84.05 308.75 87.15 307.25 87.15 306.45 87.15 305.8 86.35 305.35 85.7 305.35 84.95 305.35 84.2 306.15 83.7 L307.1 83.35 308.05 82.45 309.3 81.15 Q310.35 80.45 311.3 78.4 311.9 76.9 311.9 75.6 311.9 69.95 310.65 69.95 L308.85 70.35 306.8 70.75 Q306.2 70.75 305.55 70.35 304.9 69.95 304.9 69.25 304.9 67.5 306.6 67.1 L309.5 66.95 310.55 67.2 311.4 67.3 312.0 67.25 312.9 67.15 Q314.0 67.15 314.85 68.1 315.7 69.0 315.7 70.1 L315.2 71.0 314.75 71.55 Q314.5 72.15 314.5 76.65 L314.7 77.35 315.35 78.35 316.2 79.45 317.5 80.45 317.85 81.2 318.05 81.25 Q319.25 81.25 321.2 82.15 L325.5 82.85 326.65 82.95 Q326.15 82.25 326.15 80.55 L326.2 79.2 326.25 78.35 Q326.25 77.7 324.75 77.7 L323.8 77.75 323.15 77.8 322.3 77.55 321.6 76.95 320.55 77.75 318.4 78.25 Q315.75 78.25 315.75 76.9 315.75 76.05 316.95 75.6 317.8 75.25 318.55 75.25 319.2 75.25 319.8 75.6 L321.55 76.0 321.6 75.85 Q321.9 75.45 322.6 75.35 L324.95 75.25 Q326.15 75.1 326.15 74.45 326.15 73.55 325.6 73.3 L323.65 73.1 322.8 72.85 322.1 72.65 321.15 73.1 319.6 73.55 Q316.95 73.55 316.95 72.25 316.95 71.35 318.15 70.9 L319.8 70.6 Q320.5 70.6 321.35 71.05 L322.1 71.35 322.2 71.2 Q322.6 70.8 323.15 70.7 L325.3 70.55 Q326.4 70.35 326.4 69.7 326.4 68.6 324.9 68.6 L324.1 68.65 323.25 68.65 321.5 68.2 321.0 68.45 318.6 68.85 317.4 68.65 Q316.3 68.25 316.3 67.55 316.3 66.6 318.2 66.15 L320.1 65.9 321.35 66.7 Q321.6 66.45 322.6 66.05 323.1 65.9 323.1 65.35 323.1 64.25 322.5 63.8 L321.1 63.2 320.75 62.95 320.65 62.9 320.05 63.2 318.4 63.55 317.0 63.35 Q316.4 63.05 316.4 62.0 316.4 61.6 317.25 61.15 L318.3 60.75 319.8 60.85 320.75 61.45 Q321.35 60.9 322.3 60.7 L324.1 60.65 325.75 60.45 Q326.8 60.1 326.8 59.55 L326.35 59.05 325.3 58.85 Q324.8 58.8 324.1 58.2 L322.95 58.75 321.55 59.05 320.05 58.85 Q318.65 58.5 318.65 57.75 318.65 56.95 319.5 56.5 320.35 56.0 321.1 56.0 L323.5 56.1 324.15 56.85 Q324.65 56.0 325.8 56.0 L326.0 56.05 326.05 56.05 Q326.35 56.05 326.45 55.85 326.65 55.45 326.65 54.0 326.65 52.0 328.35 52.0 330.15 52.0 330.15 53.55" fill="#ffffff" fill-opacity="0.6039216" fill-rule="evenodd" stroke="none"/>
    </g>
    <g id="shape2" transform="matrix(1.0, 0.0, 0.0, 1.0, 253.45, 192.0)">
      <path d="M-253.45 -192.0 L253.5 -192.0 253.5 192.0 -253.45 192.0 -253.45 -192.0" fill="#ffffff" fill-opacity="0.007843138" fill-rule="evenodd" stroke="none"/>
    </g>
  </defs>
</svg>
