<?xml version="1.0" encoding="UTF-8" standalone="no"?>
<svg xmlns:xlink="http://www.w3.org/1999/xlink" height="685.45px" width="872.75px" xmlns="http://www.w3.org/2000/svg">
  <g transform="matrix(1.0, 0.0, 0.0, 1.0, 272.0, 192.0)">
    <use height="308.65" transform="matrix(1.0591, 0.0, 0.0, 0.1589, -259.5459, -188.5315)" width="500.0" xlink:href="#shape0"/>
    <use height="308.65" transform="matrix(1.0991, 0.0, 0.0, 0.1651, -269.5651, 139.5049)" width="500.0" xlink:href="#shape0"/>
    <use height="384.0" transform="matrix(1.1243, 0.0, 0.0, 0.7604, -271.9956, -130.501)" width="506.95" xlink:href="#shape1"/>
    <use height="384.0" transform="matrix(1.0, 0.0, 0.0, 0.75, -250.0, -144.5)" width="506.95" xlink:href="#shape1"/>
    <use height="308.65" transform="matrix(1.0591, 0.0, 0.0, 0.1589, -259.5459, -188.5315)" width="500.0" xlink:href="#shape0"/>
    <use height="308.65" transform="matrix(1.0991, 0.0, 0.0, 0.1651, -269.5651, 139.5049)" width="500.0" xlink:href="#shape0"/>
  </g>
  <defs>
    <g id="shape0" transform="matrix(1.0, 0.0, 0.0, 1.0, -100.75, -184.8)">
      <path d="M100.75 493.45 L100.75 184.8 600.75 184.8 600.75 493.45 100.75 493.45" fill="#000000" fill-opacity="0.9882353" fill-rule="evenodd" stroke="none"/>
    </g>
    <g id="shape1" transform="matrix(1.0, 0.0, 0.0, 1.0, 253.45, 192.0)">
      <path d="M-253.45 -192.0 L253.5 -192.0 253.5 192.0 -253.45 192.0 -253.45 -192.0" fill="#ffffff" fill-opacity="0.007843138" fill-rule="evenodd" stroke="none"/>
    </g>
  </defs>
</svg>
