<?xml version="1.0" encoding="UTF-8" standalone="no"?>
<svg xmlns:xlink="http://www.w3.org/1999/xlink" height="685.45px" width="872.75px" xmlns="http://www.w3.org/2000/svg">
  <g transform="matrix(1.0, 0.0, 0.0, 1.0, 272.0, 192.0)">
    <use height="308.65" transform="matrix(1.0591, 0.0, 0.0, 0.1589, -259.5459, -188.5315)" width="500.0" xlink:href="#shape0"/>
    <use height="308.65" transform="matrix(1.0991, 0.0, 0.0, 0.1651, -269.5651, 139.5049)" width="500.0" xlink:href="#shape0"/>
    <use height="143.75" transform="matrix(0.7, 0.0, 0.0, 0.7, -82.95, -50.3)" width="237.05" xlink:href="#shape1"/>
    <use height="384.0" transform="matrix(1.1243, 0.0, 0.0, 0.7604, -271.9956, -130.501)" width="506.95" xlink:href="#shape2"/>
  </g>
  <defs>
    <g id="shape0" transform="matrix(1.0, 0.0, 0.0, 1.0, -100.75, -184.8)">
      <path d="M100.75 493.45 L100.75 184.8 600.75 184.8 600.75 493.45 100.75 493.45" fill="#000000" fill-opacity="0.9882353" fill-rule="evenodd" stroke="none"/>
    </g>
    <g id="shape1" transform="matrix(1.0, 0.0, 0.0, 1.0, 0.0, 0.0)">
      <path d="M189.2 111.15 Q190.8 111.15 190.9 113.35 L189.75 117.95 Q189.75 118.85 190.7 118.95 L193.85 118.8 196.95 119.2 Q198.25 119.7 198.7 121.05 L199.05 124.25 198.6 125.25 198.2 126.2 198.5 126.75 Q198.95 127.45 198.95 128.65 198.95 131.4 198.15 135.05 196.45 142.55 193.15 142.55 L189.4 141.85 Q186.35 140.8 186.35 139.2 186.35 138.45 186.9 137.9 187.35 137.35 188.1 137.35 188.5 137.35 190.0 138.2 191.3 138.9 192.35 138.9 193.45 138.9 194.55 135.3 195.5 132.1 195.85 128.05 195.95 127.4 196.35 126.7 L196.7 125.85 196.4 125.4 195.8 124.45 195.0 122.5 Q194.5 121.95 193.25 121.95 L188.8 122.2 188.25 123.55 187.55 124.35 187.0 124.95 187.2 126.35 186.9 128.15 185.0 133.4 Q183.25 138.2 182.2 139.7 181.45 141.6 180.1 141.65 178.65 141.7 178.45 139.95 178.45 139.25 178.95 138.4 180.2 136.5 182.05 131.8 L183.95 126.8 Q184.15 126.25 184.9 125.4 L185.55 124.7 185.3 124.05 184.95 122.9 Q184.95 122.25 184.45 122.25 L184.2 122.45 183.6 122.85 180.65 123.55 180.15 123.6 Q178.7 123.6 178.5 122.25 178.3 120.7 179.85 120.2 L182.15 120.0 Q182.9 119.95 183.7 120.4 L184.3 120.75 184.75 120.3 185.3 119.7 186.0 119.25 186.25 118.45 187.45 112.45 Q187.85 111.15 189.2 111.15 M161.75 114.9 Q159.35 114.35 159.65 112.5 159.85 111.4 161.35 111.4 L161.95 111.5 Q167.65 112.7 172.3 112.65 174.0 112.65 174.0 114.7 174.0 116.35 171.55 116.3 168.0 116.25 161.75 114.9 M134.15 115.0 L131.8 115.6 Q129.5 115.75 129.45 113.95 129.45 112.1 131.55 112.5 130.85 112.9 132.7 112.0 L134.45 112.1 135.65 112.55 136.75 113.0 137.45 112.65 138.2 112.15 Q138.9 111.7 141.95 111.25 L145.6 110.8 Q147.55 110.75 147.55 112.75 147.55 114.1 146.3 115.2 L137.3 122.9 137.05 123.35 137.4 123.7 138.9 123.85 139.8 123.45 140.85 123.0 144.3 122.65 Q147.6 122.6 150.05 124.25 153.25 126.3 153.25 130.95 153.3 136.0 147.8 139.55 143.1 142.6 137.75 142.65 134.65 142.65 134.6 140.7 134.55 138.7 137.8 138.7 143.35 138.65 147.2 135.7 149.95 133.4 149.95 130.85 149.95 128.3 148.05 126.85 146.3 125.4 143.55 125.35 L141.6 125.4 140.2 125.3 139.05 125.25 137.9 125.55 135.95 126.85 Q135.25 127.0 133.3 128.05 L131.55 128.85 Q128.7 131.95 127.75 131.95 126.2 131.95 126.15 130.5 126.1 129.55 127.1 128.6 128.05 127.4 131.9 123.85 L136.8 119.45 139.3 117.15 Q141.0 115.5 141.0 115.0 141.0 114.55 140.0 114.55 L139.1 114.65 138.7 114.8 137.45 114.7 136.55 114.45 Q135.95 114.45 134.15 115.0 M103.05 111.0 Q104.8 110.95 104.8 112.9 L104.55 114.7 104.25 116.25 Q104.25 116.6 104.75 116.65 L106.75 116.4 109.1 115.95 Q110.95 115.95 111.0 117.7 111.05 119.4 108.15 120.0 L104.5 120.45 103.3 120.7 102.65 122.75 101.85 123.6 101.5 123.9 101.6 124.45 101.85 125.65 101.6 127.4 Q99.45 136.2 97.75 140.45 97.2 141.85 95.8 141.9 95.0 141.9 94.4 141.3 94.05 140.8 94.0 140.1 94.0 139.55 94.7 137.8 96.85 132.5 98.4 126.7 98.7 125.5 99.2 124.7 L99.85 124.0 100.15 123.55 100.0 122.8 99.9 121.8 99.9 120.6 99.55 120.25 98.5 119.9 98.4 120.0 97.55 120.6 94.9 121.05 Q92.4 121.1 92.4 119.15 92.4 117.45 94.45 117.4 L97.15 117.8 98.2 118.4 98.55 118.15 99.45 117.55 Q100.55 117.2 100.75 116.1 L101.15 112.8 Q101.35 111.05 103.05 111.0 M121.05 113.2 Q120.0 111.8 119.95 111.15 119.95 109.9 121.4 109.8 121.8 109.8 122.35 110.25 125.05 113.15 125.1 114.7 125.15 116.1 123.85 116.1 122.75 116.1 122.3 115.15 L121.05 113.2 M117.45 111.85 Q117.85 111.85 118.4 112.3 121.05 115.2 121.1 116.75 121.15 118.2 119.85 118.2 118.85 118.2 118.4 117.3 L117.05 115.25 Q116.0 113.85 115.95 113.2 115.95 111.9 117.45 111.85 M68.85 115.6 Q66.55 115.75 66.5 113.9 66.45 112.1 68.6 112.1 L70.85 112.25 Q71.1 112.25 72.05 112.75 L73.05 113.05 Q73.25 113.05 73.85 112.65 L75.1 112.05 79.2 111.5 83.65 111.1 Q85.7 111.05 85.8 113.1 85.8 113.65 85.15 114.25 82.1 116.4 74.9 122.75 74.45 123.2 74.35 123.5 74.4 123.35 74.7 123.35 L75.9 123.55 76.8 123.7 77.8 123.25 Q78.75 122.75 79.25 122.65 L82.05 122.5 Q85.05 122.45 87.85 124.65 91.1 127.2 91.1 131.95 91.1 136.95 85.45 140.05 80.75 142.7 75.3 142.7 71.7 142.7 69.7 141.2 67.8 139.7 67.75 137.4 67.7 134.65 70.0 133.35 71.4 132.55 73.5 132.5 76.0 132.45 77.2 133.55 78.15 134.15 78.5 134.9 L78.85 135.45 79.6 136.05 80.65 136.65 Q81.4 137.4 82.4 137.4 84.65 137.4 86.1 135.6 87.5 133.8 87.55 131.4 87.6 129.05 86.1 127.4 84.8 125.95 82.8 125.45 L81.5 125.3 80.45 125.35 79.4 125.4 76.95 125.15 76.05 125.6 74.85 126.2 Q72.05 127.15 71.0 127.8 L68.3 130.25 66.3 132.2 Q65.75 132.85 64.75 132.9 63.3 132.9 63.25 131.45 63.2 130.35 64.35 129.15 L70.35 123.2 74.5 119.4 77.1 116.95 Q78.25 115.8 78.3 115.15 78.3 114.75 77.45 114.75 L75.1 115.05 73.75 114.85 72.8 114.55 72.0 114.75 71.15 115.3 68.85 115.6 M44.4 112.75 L44.25 111.95 Q44.25 110.25 46.0 110.2 47.3 110.15 47.8 111.4 L48.45 113.65 Q48.8 114.3 49.75 114.3 51.1 114.3 55.15 112.85 L57.0 112.15 Q58.85 112.15 58.85 113.9 58.85 115.15 56.75 115.95 L54.2 116.7 50.75 117.6 Q50.15 117.65 50.15 118.0 L50.9 120.05 Q51.15 120.8 52.0 120.95 52.3 121.05 52.95 121.45 L53.65 121.75 54.15 121.2 Q54.95 120.5 55.5 120.4 L57.9 119.7 59.95 119.2 Q61.9 119.2 61.9 120.95 61.9 122.15 60.0 122.7 58.0 123.65 56.15 123.65 L54.8 123.3 54.15 123.05 54.15 123.2 53.5 123.8 Q53.2 124.0 53.2 124.7 53.2 125.15 56.55 129.65 57.4 130.85 57.4 131.75 57.4 133.45 55.7 133.6 55.15 133.6 54.3 133.1 51.6 131.55 49.5 131.1 L47.8 130.55 47.25 130.85 45.0 131.35 Q42.2 131.4 40.55 132.25 38.5 133.25 38.5 135.3 38.45 139.95 49.0 139.95 L51.7 139.75 53.8 139.55 Q55.7 139.55 55.7 141.2 55.7 142.8 53.85 143.35 L50.2 143.6 Q35.25 143.6 35.2 135.25 35.2 131.55 38.55 129.8 41.1 128.4 45.0 128.4 L46.8 128.8 47.95 129.1 48.8 128.8 Q49.65 128.4 50.45 128.35 50.85 128.35 50.85 127.75 L50.5 126.95 50.1 126.0 Q49.35 125.25 48.1 125.25 L37.2 126.4 Q34.3 126.45 34.3 124.5 34.3 122.9 36.35 122.85 L37.2 122.85 38.1 122.9 46.65 122.05 Q47.65 121.85 47.65 121.4 L47.0 118.95 Q46.6 118.45 45.5 118.4 L44.4 118.55 43.05 118.65 41.6 118.3 40.7 117.95 39.5 118.5 Q38.2 119.1 36.8 119.1 34.8 119.1 34.75 117.3 34.7 115.7 36.7 115.7 38.5 115.7 39.55 116.2 L40.35 116.6 40.65 116.25 Q41.2 115.7 41.75 115.6 L43.95 115.35 45.0 114.95 Q45.0 114.25 44.4 112.75 M236.3 124.95 Q237.05 125.15 237.05 126.6 237.15 127.9 236.15 128.85 235.2 129.85 233.95 129.85 230.75 129.85 230.75 126.25 230.75 125.05 231.7 124.25 232.7 123.5 233.8 123.5 235.2 123.5 236.3 124.95 M228.35 126.6 Q228.45 127.9 227.45 128.85 226.5 129.85 225.25 129.85 222.05 129.85 222.05 126.25 222.05 125.05 223.0 124.25 224.0 123.5 225.1 123.5 226.5 123.5 227.6 124.95 228.35 125.15 228.35 126.6 M218.9 124.95 Q219.65 125.15 219.65 126.6 219.75 127.9 218.75 128.85 217.8 129.85 216.55 129.85 213.35 129.85 213.35 126.25 213.35 125.05 214.3 124.25 215.3 123.5 216.4 123.5 217.8 123.5 218.9 124.95 M25.4 120.9 Q25.85 120.9 26.4 121.35 29.1 124.25 29.15 125.75 29.15 127.2 27.8 127.2 26.85 127.2 26.35 126.2 L24.95 123.8 Q24.0 122.8 24.0 122.2 24.0 120.95 25.4 120.9 M33.15 123.8 Q33.2 125.25 31.85 125.25 30.8 125.25 30.35 124.15 29.75 122.95 28.8 121.9 28.05 121.05 27.95 120.3 27.95 118.95 29.5 118.9 29.9 118.9 30.4 119.35 33.1 122.25 33.15 123.8 M8.5 115.85 L9.5 115.15 Q11.85 114.3 20.9 113.5 L25.6 113.05 28.0 112.9 29.7 113.05 Q30.95 113.4 30.95 114.65 30.95 115.6 30.4 116.0 L29.05 116.5 24.9 117.35 Q21.85 118.6 18.65 121.7 L16.95 122.85 16.9 123.6 16.5 125.3 Q15.25 128.1 15.25 130.5 15.2 134.8 18.15 136.55 20.4 137.95 25.1 137.95 26.75 137.95 26.9 139.85 26.9 141.65 24.85 141.65 19.0 141.65 15.65 139.25 11.85 136.45 11.85 130.75 11.85 126.3 14.25 122.9 14.5 122.55 15.25 122.2 L15.65 122.0 16.15 120.5 Q16.25 120.0 17.15 118.85 L17.85 117.85 Q17.85 117.25 17.35 117.25 L12.4 117.85 9.65 118.2 8.55 117.95 8.05 117.75 7.65 118.1 6.95 118.65 4.35 119.3 1.8 119.65 Q0.35 119.65 0.05 117.8 -0.2 116.35 1.85 116.05 L5.45 115.7 6.9 116.05 7.9 116.3 8.5 115.85 M70.8 137.3 Q70.8 138.5 72.55 139.15 L75.2 139.6 77.3 139.35 Q78.4 139.05 78.0 138.2 77.9 137.9 77.95 137.1 77.95 136.65 77.75 136.5 77.6 136.3 77.05 136.2 76.3 136.1 75.8 135.75 L73.3 135.5 Q70.8 135.5 70.8 137.3 M110.5 134.3 L109.7 137.1 Q109.65 139.05 115.15 139.1 L118.85 138.85 120.95 138.65 Q122.95 138.65 123.0 140.45 123.05 142.2 119.9 142.5 L116.0 142.55 Q112.4 142.55 109.7 141.4 106.3 140.2 106.25 137.0 106.25 132.6 108.85 132.6 110.5 132.6 110.5 134.3 M121.35 122.7 Q122.05 123.3 122.05 124.3 122.1 125.7 120.15 125.7 L118.65 125.65 117.25 125.5 114.7 125.25 113.55 124.7 113.35 124.65 112.5 125.25 Q111.6 126.0 110.2 126.05 108.2 126.05 108.2 124.3 108.2 123.05 109.6 122.75 L111.5 122.55 112.75 122.95 113.3 123.2 114.0 122.85 Q114.65 122.3 115.55 122.25 L120.15 122.05 Q120.7 122.05 121.35 122.7 M174.05 127.4 L174.0 126.55 Q173.5 122.6 169.4 122.6 167.5 122.6 164.3 123.5 L163.9 123.55 162.7 123.4 162.05 123.35 160.05 124.35 157.25 125.7 156.55 125.75 Q154.55 125.75 154.55 123.85 154.55 122.25 155.95 121.8 158.3 121.0 160.2 121.1 L161.4 121.55 161.9 121.75 162.45 121.25 163.2 120.55 163.9 120.25 Q166.4 119.4 169.6 119.4 172.95 119.4 174.9 121.15 176.9 122.85 177.1 126.15 177.15 126.95 176.7 127.75 L176.25 128.95 176.55 129.7 176.95 131.3 176.9 131.95 Q176.25 136.0 171.5 139.65 168.15 142.8 163.85 143.7 162.9 143.85 162.2 143.35 161.55 142.8 161.5 141.85 161.45 140.75 163.45 140.25 167.0 139.0 169.1 137.45 171.6 135.65 173.35 132.35 L174.05 130.3 Q174.05 130.05 174.4 129.55 L174.65 129.1 174.4 128.6 174.05 127.4 M205.9 120.4 L206.4 120.6 207.45 121.45 Q209.05 123.65 209.75 125.45 211.2 129.0 211.2 129.8 211.2 131.7 209.4 131.75 208.2 131.75 207.65 130.2 L206.2 126.0 205.35 124.25 Q204.8 123.0 204.8 122.3 L204.75 121.4 204.3 121.2 Q203.55 121.05 203.25 120.7 201.7 119.55 201.1 118.1 L200.85 117.35 Q200.85 115.7 202.7 115.5 203.6 115.5 204.05 116.1 205.35 117.7 205.75 119.0 205.75 119.75 205.9 120.4" fill="#ffffff" fill-opacity="0.69411767" fill-rule="evenodd" stroke="none"/>
      <path d="M30.3 68.3 L30.8 66.0 Q30.8 65.55 28.75 65.55 L27.5 65.55 25.9 65.75 Q25.35 66.0 25.35 66.9 25.35 67.7 25.75 68.2 26.15 68.7 26.75 68.7 L28.7 68.7 Q29.95 68.7 30.3 68.3 M18.0 63.4 L19.5 63.5 Q20.0 63.6 20.45 64.1 21.05 63.55 22.0 63.35 L23.8 63.3 25.45 63.1 Q26.5 62.75 26.5 62.2 L26.05 61.7 25.0 61.5 Q24.5 61.45 23.8 60.85 L22.65 61.4 21.25 61.7 19.75 61.5 Q18.35 61.15 18.35 60.4 18.35 59.6 19.2 59.15 20.05 58.65 20.8 58.65 L23.2 58.75 23.85 59.5 Q24.35 58.65 25.5 58.65 L25.7 58.7 25.75 58.7 Q26.05 58.7 26.15 58.5 L26.35 56.65 Q26.35 54.65 28.05 54.65 29.85 54.65 29.85 56.2 L29.7 56.8 29.6 57.6 Q29.6 58.65 31.05 58.6 L35.8 58.55 36.7 58.85 Q37.5 59.2 37.5 59.95 37.5 61.4 34.2 61.4 L30.15 61.2 Q30.0 61.2 29.6 61.95 29.6 63.2 31.55 63.15 L36.7 63.05 38.4 63.35 Q39.85 63.8 39.85 64.65 39.85 65.4 38.9 65.7 L37.2 65.85 35.75 65.7 Q34.9 65.7 34.15 66.45 33.45 67.1 33.45 68.0 33.45 68.5 34.5 68.65 L35.85 68.65 Q38.65 68.7 38.65 70.15 38.65 71.5 37.0 71.5 L34.2 71.4 31.55 71.25 Q29.35 71.25 29.35 72.25 29.35 73.25 32.75 73.25 L33.8 73.25 Q38.25 73.25 38.25 74.9 38.25 76.3 35.55 76.3 L33.35 76.15 31.25 76.0 Q29.2 76.0 29.2 77.15 29.2 77.55 29.6 77.75 L31.2 77.75 37.95 78.35 39.2 78.4 Q40.0 78.95 40.0 79.6 40.0 81.0 36.8 81.0 L33.2 80.8 29.7 80.6 Q28.9 80.6 28.9 82.8 L28.9 83.85 28.95 84.7 Q28.95 85.25 28.3 85.7 L28.2 85.75 35.6 86.05 36.65 85.95 37.8 85.85 39.45 86.15 Q40.65 86.6 40.65 87.5 40.65 89.9 37.5 89.9 L27.2 89.15 Q19.9 88.2 17.7 86.45 L17.1 85.45 14.8 84.7 12.8 83.95 Q12.2 83.95 10.45 86.7 8.45 89.8 6.95 89.8 6.15 89.8 5.5 89.0 5.05 88.35 5.05 87.6 5.05 86.85 5.85 86.35 L6.8 86.0 7.75 85.1 9.0 83.8 Q10.05 83.1 11.0 81.05 11.6 79.55 11.6 78.25 11.6 72.6 10.35 72.6 L8.55 73.0 6.5 73.4 Q5.9 73.4 5.25 73.0 4.6 72.6 4.6 71.9 4.6 70.15 6.3 69.75 L9.2 69.6 10.25 69.85 11.1 69.95 11.7 69.9 12.6 69.8 Q13.7 69.8 14.55 70.75 15.4 71.65 15.4 72.75 L14.9 73.65 14.45 74.2 Q14.2 74.8 14.2 79.3 L14.4 80.0 15.05 81.0 Q15.3 81.6 15.9 82.1 L17.2 83.1 17.55 83.85 17.75 83.9 Q18.95 83.9 20.9 84.8 L25.2 85.5 26.35 85.6 Q25.85 84.9 25.85 83.2 L25.9 81.85 25.95 81.0 Q25.95 80.35 24.45 80.35 L23.5 80.4 22.85 80.45 22.0 80.2 21.3 79.6 20.25 80.4 18.1 80.9 Q15.45 80.9 15.45 79.55 15.45 78.7 16.65 78.25 L18.25 77.9 Q18.9 77.9 19.5 78.25 L21.25 78.65 21.3 78.5 Q21.6 78.1 22.3 78.0 L24.65 77.9 Q25.85 77.75 25.85 77.1 25.85 76.2 25.3 75.95 L23.35 75.75 22.5 75.5 21.8 75.3 Q21.75 75.3 20.85 75.75 L19.3 76.2 Q16.65 76.2 16.65 74.9 16.65 74.0 17.85 73.55 L19.5 73.25 21.05 73.7 21.8 74.0 21.9 73.85 Q22.3 73.45 22.85 73.35 L25.0 73.2 Q26.1 73.0 26.1 72.35 26.1 71.25 24.6 71.25 L23.8 71.3 22.95 71.3 21.2 70.85 20.7 71.1 18.3 71.5 17.1 71.3 Q16.0 70.9 16.0 70.2 16.0 69.25 17.9 68.8 L19.8 68.55 21.05 69.35 Q21.3 69.1 22.3 68.7 22.8 68.55 22.8 68.0 22.8 66.9 22.2 66.45 L20.8 65.85 20.45 65.6 20.35 65.55 19.75 65.85 18.1 66.2 16.7 66.0 Q16.1 65.7 16.1 64.65 16.1 64.25 16.95 63.8 L18.0 63.4 M6.15 59.2 Q6.15 57.65 8.0 57.75 L8.45 57.8 Q9.25 57.85 10.7 60.7 L12.5 62.4 Q15.0 63.8 15.0 64.8 15.0 66.55 13.25 66.55 11.95 66.55 10.95 64.95 L9.8 62.65 8.15 61.95 Q6.15 61.0 6.15 59.2 M223.25 57.05 Q223.25 55.75 224.75 55.7 225.15 55.7 225.75 56.15 228.4 59.05 228.45 60.55 228.5 62.0 227.15 62.0 226.15 62.0 225.65 61.0 224.95 59.6 224.1 58.65 223.35 57.85 223.25 57.05 M228.8 53.85 Q229.2 53.85 229.75 54.3 232.45 57.2 232.45 58.75 232.55 60.2 231.2 60.2 230.15 60.2 229.7 59.2 L228.45 57.3 Q227.4 55.9 227.3 55.25 227.3 53.9 228.8 53.85 M220.8 64.0 Q220.45 63.45 220.35 62.75 220.35 61.95 220.85 61.45 221.35 61.05 222.15 60.95 223.1 60.95 223.6 61.55 224.8 63.0 225.2 64.45 L225.4 65.85 225.9 66.0 Q226.5 66.2 226.95 66.85 228.55 69.05 229.25 70.85 230.7 74.45 230.7 75.2 230.7 77.1 228.9 77.15 227.7 77.2 227.2 75.8 L224.85 69.6 Q224.25 68.35 224.25 67.75 L224.25 66.85 Q224.15 66.65 223.7 66.6 223.05 66.45 222.75 66.15 L220.8 64.0 M198.0 67.65 Q197.8 66.1 199.35 65.6 L201.6 65.4 Q202.45 65.4 203.35 65.85 L203.8 66.15 204.15 65.85 204.8 65.15 205.5 64.6 205.75 63.8 206.9 57.8 Q207.3 56.55 208.7 56.55 210.3 56.55 210.35 58.75 L209.3 62.65 209.25 63.3 Q209.25 64.25 210.2 64.35 L213.35 64.2 216.45 64.6 Q217.75 65.1 218.2 66.45 L218.55 69.65 217.9 71.05 217.65 71.6 218.0 72.15 Q218.45 72.95 218.45 74.05 218.45 76.65 217.6 80.45 215.95 87.95 212.65 88.0 L208.9 87.3 Q205.85 86.2 205.85 84.6 205.85 83.9 206.4 83.3 206.85 82.75 207.6 82.75 208.05 82.75 209.45 83.55 210.9 84.35 211.85 84.35 212.95 84.35 214.05 80.7 215.0 77.5 215.35 73.45 215.45 72.85 215.85 72.1 L216.2 71.25 215.9 70.8 215.25 69.75 214.5 67.95 Q213.95 67.35 212.75 67.35 L208.25 67.6 207.7 69.0 Q207.55 69.4 207.0 69.8 L206.5 70.3 206.7 71.8 206.4 73.4 204.5 78.8 Q202.85 83.25 201.6 85.7 200.95 87.0 199.6 87.05 198.9 87.05 198.35 86.5 198.05 86.15 197.95 85.4 197.95 84.55 198.35 84.2 199.8 81.6 201.55 77.25 L203.45 72.2 Q203.65 71.65 204.4 70.85 L205.05 70.05 204.75 69.45 204.45 68.3 Q204.45 67.65 203.95 67.65 L203.7 67.85 203.1 68.25 200.15 68.95 199.65 69.0 Q198.2 69.0 198.0 67.65 M130.4 81.65 Q129.7 81.55 129.15 81.2 L126.7 80.95 Q124.2 80.95 124.2 82.75 124.2 83.95 125.95 84.6 L128.55 85.05 130.7 84.8 Q131.8 84.5 131.35 83.65 131.25 83.35 131.3 82.55 L131.15 81.95 130.4 81.65 M148.3 75.1 Q149.05 75.05 149.5 75.5 149.95 76.0 150.05 76.8 L149.6 77.8 Q149.3 78.45 149.3 79.2 149.3 79.95 149.9 81.15 L151.5 81.8 152.7 82.55 153.25 82.9 154.15 82.75 155.35 82.5 157.2 82.65 158.6 82.8 165.95 82.2 169.6 81.4 Q170.5 81.4 171.1 81.95 171.75 82.5 171.75 83.3 171.75 84.6 170.4 85.1 166.95 86.35 159.95 86.4 L155.7 85.85 154.25 85.05 Q153.45 84.45 153.0 84.45 L152.15 84.5 151.05 84.6 Q148.7 84.6 147.2 82.65 145.75 80.9 145.75 78.6 145.75 75.2 148.3 75.1 M176.8 58.35 Q176.75 57.55 177.3 56.95 177.85 56.4 178.65 56.3 180.15 56.3 180.5 57.55 L181.4 61.7 181.3 62.8 181.25 63.35 181.55 63.65 182.5 64.55 183.35 66.45 Q183.9 67.3 184.55 67.3 185.45 67.3 187.05 66.55 192.8 63.7 193.65 63.65 194.45 63.6 195.0 64.2 195.5 64.75 195.6 65.5 195.6 66.85 194.5 67.25 188.7 69.4 185.7 70.85 L183.1 72.15 181.6 72.45 181.05 72.45 180.9 73.05 Q180.7 73.95 180.1 74.3 176.5 77.45 176.5 79.8 176.5 82.65 179.65 83.55 L185.3 84.05 190.35 83.7 193.95 83.25 Q195.15 83.1 195.9 83.65 196.6 84.1 196.6 85.0 196.6 86.4 195.05 86.75 L184.85 87.6 Q179.75 87.6 177.1 86.4 173.0 84.55 173.0 79.95 173.0 75.95 177.9 72.3 L179.05 71.9 179.9 71.6 180.1 71.15 180.25 70.3 180.9 69.15 180.1 66.5 179.7 64.65 Q179.7 64.0 179.85 63.7 L179.25 63.25 178.3 62.2 Q176.85 59.4 176.8 58.35 M169.15 62.55 Q169.15 64.25 167.05 64.3 L164.5 63.9 162.0 63.45 156.4 63.1 155.6 62.9 154.8 62.6 154.15 62.95 153.1 63.5 150.1 64.05 Q148.35 64.1 148.15 62.3 148.15 60.25 150.5 60.15 L152.35 60.1 Q153.0 60.1 153.9 60.65 L154.8 61.05 156.25 60.45 Q157.7 59.8 158.9 59.8 L167.25 60.45 Q169.15 60.85 169.15 62.55 M99.8 71.45 Q98.9 70.65 97.45 70.6 95.9 70.55 95.0 71.65 94.0 72.85 94.0 74.15 94.0 75.25 94.6 76.5 94.6 77.1 94.9 77.6 L96.05 77.75 97.7 78.0 Q99.9 78.0 100.65 76.5 100.95 75.85 100.95 74.05 100.95 72.55 99.8 71.45 M116.65 76.9 Q116.6 75.8 117.75 74.6 L123.75 68.65 127.85 64.85 130.5 62.4 Q131.6 61.25 131.65 60.6 131.7 60.2 130.8 60.2 L128.45 60.5 127.15 60.3 126.2 60.0 125.4 60.2 124.5 60.75 122.2 61.05 Q119.9 61.2 119.85 59.35 119.8 57.55 121.95 57.55 L124.2 57.7 125.45 58.2 126.4 58.5 127.25 58.1 128.45 57.5 132.6 56.95 137.0 56.55 Q139.1 56.5 139.15 58.55 L138.5 59.7 Q135.5 61.85 128.3 68.2 L127.7 68.95 Q127.8 68.8 128.05 68.8 L129.3 69.0 130.15 69.15 131.15 68.7 132.6 68.1 135.4 67.95 Q138.45 67.9 141.25 70.1 144.5 72.65 144.5 77.4 144.5 82.4 138.85 85.5 134.1 88.15 128.65 88.15 125.1 88.15 123.05 86.65 121.15 85.15 121.15 82.85 121.1 80.1 123.35 78.8 124.75 78.0 126.85 77.95 129.35 77.9 130.55 79.0 131.5 79.6 131.85 80.35 L132.2 80.9 132.95 81.5 Q133.65 81.8 134.0 82.1 134.8 82.85 135.8 82.85 138.05 82.85 139.5 81.05 140.9 79.25 140.9 76.85 140.95 74.5 139.45 72.85 138.15 71.4 136.15 70.9 L134.85 70.75 133.85 70.8 132.75 70.85 130.35 70.6 129.45 71.05 128.2 71.65 Q125.45 72.6 124.4 73.25 123.65 73.75 121.65 75.7 L119.7 77.65 Q119.15 78.3 118.1 78.35 116.7 78.35 116.65 76.9 M49.95 62.9 L52.3 62.6 53.85 63.0 54.95 63.4 Q56.1 62.75 56.2 63.4 56.55 63.0 58.2 62.6 62.25 62.6 62.25 61.85 L61.75 59.6 Q61.25 57.65 61.25 56.8 L61.25 56.75 Q61.25 54.65 62.8 54.65 63.7 54.65 64.35 55.35 65.0 56.0 65.0 56.9 L64.85 57.55 64.75 58.0 Q64.75 59.5 65.5 60.95 66.35 62.55 67.55 62.55 68.85 62.55 70.15 60.95 L71.6 58.3 Q72.65 56.4 73.5 56.4 74.3 56.4 74.75 57.0 75.2 57.55 75.2 58.25 75.2 59.25 73.95 60.4 72.9 61.25 72.9 61.8 L72.95 63.05 Q74.05 62.25 76.85 62.25 79.25 62.25 79.25 63.75 79.25 64.95 77.9 64.95 L77.2 65.05 76.25 65.2 74.2 65.05 73.4 64.8 73.0 64.6 72.2 64.95 70.8 65.3 67.3 65.4 66.1 66.4 Q66.4 66.45 66.7 67.5 L66.55 68.5 66.4 69.4 66.65 69.7 Q67.45 70.05 67.8 70.8 L68.4 73.95 Q68.85 76.1 69.6 76.1 L69.75 75.95 70.0 75.05 Q70.1 74.65 70.7 74.2 L70.7 73.45 Q70.7 72.8 71.0 71.45 71.35 69.25 71.75 68.9 72.3 68.45 72.95 68.45 73.7 68.45 74.2 69.0 74.7 69.5 74.7 70.2 L73.85 72.15 72.9 74.0 72.35 74.55 72.5 75.05 72.75 75.95 Q72.75 76.6 72.0 77.75 71.45 78.65 71.45 79.55 71.45 80.75 73.85 82.85 L78.1 85.85 Q80.65 87.7 80.65 88.65 80.65 89.4 79.8 90.05 79.05 90.7 78.3 90.7 76.8 90.7 74.5 88.55 L71.05 84.3 69.0 83.1 Q68.65 83.1 68.25 83.6 L65.65 86.0 Q63.9 86.95 63.45 87.7 61.7 89.0 61.0 89.0 60.35 89.0 59.85 88.4 59.25 87.75 59.25 87.15 59.25 86.15 61.55 84.6 63.25 83.4 65.05 82.15 66.9 80.7 66.9 79.6 66.9 78.6 65.8 75.75 64.6 72.75 64.6 71.3 L64.75 70.4 64.85 69.95 Q64.15 69.6 63.75 68.3 L63.2 66.6 61.5 65.95 Q60.3 65.4 60.2 65.4 L59.4 65.5 58.45 65.6 Q56.1 65.6 55.2 65.1 53.45 65.4 52.95 65.9 52.5 66.4 52.5 68.2 52.5 69.4 53.05 69.7 L54.9 69.9 56.9 69.85 58.05 69.45 59.5 69.05 Q60.5 69.05 61.35 70.0 62.1 70.95 62.1 71.95 L61.8 72.85 61.5 73.35 61.5 76.2 Q61.5 77.5 60.95 78.7 L60.55 79.4 Q61.1 79.75 61.1 81.05 61.1 82.65 59.6 84.0 57.9 85.8 56.25 85.8 55.3 85.8 53.55 85.1 51.65 84.35 51.65 83.35 51.65 81.75 53.65 81.75 54.05 81.75 55.0 82.1 L56.2 82.4 Q56.9 82.4 57.45 81.65 L58.4 79.95 58.85 79.45 58.95 79.15 58.9 78.9 58.65 78.4 58.55 76.55 58.65 74.75 58.4 73.15 Q58.05 72.7 56.7 72.7 53.95 72.7 53.0 73.5 52.5 74.0 52.5 75.2 L52.5 75.55 52.5 75.85 Q52.5 76.95 52.1 77.55 L51.55 78.15 51.3 78.55 51.6 79.1 Q52.0 79.7 52.0 80.35 52.0 82.4 50.35 85.5 48.5 89.0 46.5 89.0 45.85 89.0 45.2 88.35 44.6 87.65 44.6 87.0 44.6 86.4 45.1 85.9 48.05 82.85 49.4 78.8 L49.75 78.15 50.1 77.5 49.85 76.75 49.65 75.7 49.7 74.45 49.8 73.35 49.7 71.25 49.65 69.05 49.2 67.2 Q48.7 65.85 48.7 65.1 48.7 63.5 49.95 62.9 M89.0 61.45 L90.15 61.75 91.2 62.05 91.9 61.8 93.15 61.35 Q95.55 60.65 98.15 60.6 100.6 60.55 100.6 59.8 L100.55 57.8 Q100.55 55.8 102.3 55.7 104.05 55.6 104.15 57.55 L104.25 59.65 Q104.25 60.35 105.2 60.35 L109.6 60.3 Q112.2 60.25 113.45 60.35 114.35 60.45 114.85 61.2 115.3 61.75 115.25 62.45 115.15 64.25 112.95 64.0 L105.3 63.7 Q104.7 63.7 104.25 64.35 L103.25 65.45 103.6 65.95 Q104.05 66.6 104.1 67.4 L104.0 70.95 Q103.95 71.6 104.4 73.2 L104.85 75.85 Q104.85 81.8 100.1 86.55 L97.7 88.45 95.65 89.4 Q93.85 89.4 93.8 87.6 93.75 86.55 95.2 85.9 L97.55 84.15 Q99.1 82.85 99.1 82.1 99.1 81.0 97.8 81.0 95.75 81.0 94.9 80.0 L94.15 79.0 92.6 78.5 Q90.9 77.35 90.9 74.4 90.9 71.4 92.7 69.5 94.5 67.55 97.9 67.45 L99.15 67.75 100.3 67.9 Q100.85 67.9 100.9 67.1 100.95 66.25 101.35 65.75 L101.75 65.35 101.15 64.8 100.65 64.15 99.7 63.95 93.5 64.15 92.3 63.9 91.3 63.65 90.95 63.9 90.3 64.4 Q88.6 65.15 86.05 65.15 83.95 65.2 83.9 63.45 83.85 61.85 85.8 61.6 L89.0 61.45" fill="#ffffff" fill-opacity="0.69411767" fill-rule="evenodd" stroke="none"/>
      <path d="M16.65 25.15 Q17.95 25.15 17.95 26.85 17.95 28.7 15.8 32.2 13.7 35.5 11.85 35.5 10.7 35.5 10.7 34.35 10.7 32.95 12.9 30.6 L14.75 27.45 Q15.45 25.15 16.65 25.15 M22.25 26.95 Q22.8 24.95 23.65 24.95 24.5 24.95 24.85 25.85 L25.15 27.3 Q25.15 29.25 24.2 31.8 23.0 35.0 21.2 35.0 20.15 35.0 20.15 33.35 20.15 32.65 21.7 29.1 L22.25 26.95 M32.1 31.05 L33.2 33.4 Q33.2 34.15 32.65 34.7 32.1 35.2 31.35 35.2 29.8 35.2 28.7 31.3 27.85 29.2 27.85 27.4 27.85 25.15 29.2 25.15 30.45 25.15 31.1 28.65 L32.1 31.05 M35.5 24.8 L35.95 24.85 Q36.65 25.05 37.35 26.25 L38.15 27.8 Q41.05 33.05 41.05 33.4 L40.55 34.7 Q40.05 35.3 39.35 35.3 37.9 35.3 36.1 31.35 34.45 27.8 34.45 26.2 34.45 24.8 35.5 24.8 M31.35 15.85 Q30.9 15.85 30.55 16.25 30.2 16.7 30.2 17.25 L30.2 20.05 Q30.2 20.35 30.75 20.8 31.4 21.3 31.75 21.3 32.95 21.3 33.3 19.95 L33.55 17.3 Q33.55 16.75 32.85 16.3 32.05 15.85 31.35 15.85 M21.55 16.55 Q21.2 16.2 20.75 16.2 18.55 16.2 18.55 19.75 18.55 20.3 19.25 20.8 19.95 21.35 20.6 21.35 20.95 21.35 21.45 20.95 L21.95 20.25 21.95 17.3 Q21.95 16.9 21.55 16.55 M27.55 18.3 Q27.55 16.65 27.25 16.15 27.0 15.75 25.6 15.75 24.6 15.75 24.6 17.45 L24.6 18.3 24.65 18.95 Q24.65 21.25 25.9 21.25 26.7 21.25 27.15 20.3 27.55 19.45 27.55 18.3 M24.85 9.65 L24.85 11.55 Q24.85 12.95 26.2 12.95 26.85 12.95 27.3 11.6 27.65 10.75 27.65 9.65 L27.2 8.7 Q26.7 8.2 26.15 8.2 25.8 8.2 25.35 8.75 24.85 9.25 24.85 9.65 M22.3 10.25 Q22.3 9.45 21.75 8.85 21.25 8.3 20.5 8.3 19.6 8.3 19.2 8.9 18.7 9.7 18.7 10.7 18.7 12.75 20.65 12.75 22.3 12.75 22.3 10.25 M32.9 12.35 L33.65 11.2 33.65 8.6 Q33.65 7.95 31.75 7.95 30.15 7.95 30.15 10.45 30.15 12.5 31.3 12.5 L32.9 12.35 M40.25 12.7 Q42.0 12.9 42.0 14.1 42.0 15.5 38.2 15.5 36.2 15.5 36.2 17.45 36.2 19.6 36.55 20.45 37.0 21.7 38.55 21.7 L40.55 21.65 42.65 21.55 Q43.4 21.55 43.8 22.2 44.2 22.75 44.2 23.4 44.2 24.85 42.8 24.85 L39.55 24.8 36.35 24.75 29.85 24.8 Q27.35 24.7 20.5 24.75 L15.05 24.95 9.6 25.05 Q9.15 25.05 8.6 24.65 8.15 24.25 8.15 23.7 8.15 21.85 12.4 21.85 L15.25 21.65 Q15.8 21.3 15.8 19.2 L15.75 17.05 Q15.55 16.1 14.7 16.1 L13.65 16.25 12.65 16.4 Q12.0 16.4 11.5 15.9 11.0 15.4 11.0 14.8 11.0 13.35 12.55 13.2 L14.85 12.9 Q15.95 12.45 15.95 10.7 15.95 10.2 15.1 10.2 14.95 10.2 13.5 10.95 11.9 11.75 10.8 11.75 9.3 11.75 9.3 10.15 L9.5 8.9 Q10.25 8.4 11.85 8.05 L14.0 7.35 Q14.7 7.05 15.6 6.1 L17.0 4.45 17.95 2.85 18.35 1.4 Q18.7 0.0 19.8 0.0 20.3 0.0 20.85 0.65 21.5 1.4 21.5 1.9 21.5 2.7 20.9 3.85 L20.4 5.1 25.5 5.0 31.0 4.85 33.7 4.8 36.4 4.7 Q41.6 4.7 41.6 6.3 41.6 7.5 39.95 7.7 L37.55 8.1 Q36.5 8.45 36.5 9.9 36.5 11.8 37.7 12.35 L40.25 12.7 M73.0 23.35 L71.05 23.45 Q68.35 23.45 68.35 23.85 68.35 24.9 72.05 24.9 L73.6 24.85 74.7 24.8 Q76.7 24.8 76.7 24.0 76.7 23.25 74.8 23.25 L73.0 23.35 M70.1 19.1 Q68.2 19.1 68.2 19.85 68.2 20.65 70.0 20.65 L70.9 20.7 72.45 20.7 Q76.6 20.7 76.6 19.8 76.6 19.1 73.55 19.1 L70.1 19.1 M64.65 11.3 Q64.65 10.65 62.95 10.4 L60.2 9.8 Q59.45 10.45 58.3 10.45 55.7 10.45 55.7 11.85 55.7 12.9 58.3 12.9 L59.55 13.2 60.45 13.4 60.75 13.25 Q61.2 12.9 61.35 12.85 L63.6 12.4 Q64.65 12.1 64.65 11.3 M76.0 11.25 Q76.0 10.15 71.6 10.15 67.6 10.15 67.6 11.7 L68.4 12.1 69.65 12.4 73.55 12.4 Q76.0 12.4 76.0 11.25 M81.1 3.1 Q83.45 3.35 83.45 4.7 83.45 6.1 78.9 6.1 L76.95 6.05 75.75 6.05 72.75 6.05 69.8 6.1 Q68.15 6.1 68.15 6.95 L68.6 7.5 69.85 7.75 76.65 7.65 Q79.45 7.65 79.45 10.65 79.45 14.9 76.7 15.05 L69.7 15.05 68.5 15.3 Q67.9 15.55 67.9 15.9 L68.35 16.3 69.65 16.6 72.5 16.5 75.35 16.45 Q78.0 16.45 79.0 17.55 L79.85 19.45 Q80.15 20.15 81.1 20.1 L82.05 20.05 Q84.2 20.05 84.2 21.75 84.2 22.9 83.0 23.15 L81.25 23.25 Q80.4 23.25 80.1 24.1 L79.25 26.3 Q78.4 27.65 75.95 27.65 L73.05 27.75 70.1 27.8 Q68.85 27.8 68.45 28.85 L68.05 31.55 Q68.0 32.3 66.6 33.8 64.85 35.65 59.75 35.65 L56.05 34.95 Q53.0 34.15 53.0 32.95 53.0 31.6 54.65 31.6 L57.4 32.1 60.6 32.65 Q62.5 32.65 63.75 31.95 65.15 31.1 65.15 29.55 65.15 27.8 62.85 27.8 L61.55 27.9 60.3 27.95 58.7 27.6 57.65 27.4 56.85 27.75 Q55.45 28.3 54.05 28.3 50.65 28.3 50.65 27.0 50.65 25.2 54.55 25.2 L56.3 25.6 57.5 26.0 58.05 25.7 59.1 25.3 60.45 25.15 Q62.85 26.0 62.4 25.6 65.1 25.1 65.1 24.0 65.1 23.5 63.65 23.35 L60.35 23.4 56.0 22.9 Q54.55 23.75 53.75 23.9 L51.1 24.0 Q48.15 24.0 48.15 22.65 48.15 20.85 52.6 20.85 L54.55 21.25 55.85 21.55 56.55 21.3 57.65 20.9 63.1 20.6 Q64.7 20.6 64.7 19.8 64.7 19.3 63.1 19.3 L62.05 19.4 60.8 19.45 59.1 19.15 57.75 18.85 56.85 19.15 55.05 19.6 Q50.95 19.6 50.95 18.3 50.95 16.7 54.65 16.7 56.25 16.7 57.55 17.35 58.0 16.9 60.15 16.85 L63.35 16.65 Q64.75 16.4 64.75 15.65 L62.75 15.4 61.45 15.15 Q60.9 14.85 60.8 14.85 L59.95 15.0 Q59.1 15.7 58.2 15.7 L54.5 15.2 Q52.7 14.3 52.7 11.95 52.7 9.25 54.2 8.45 54.95 7.95 57.7 7.95 L59.05 8.25 60.05 8.45 60.75 8.2 Q61.5 7.85 62.05 7.85 L63.75 7.8 Q64.7 7.65 64.7 7.05 64.7 6.3 62.65 6.3 L60.25 6.45 57.8 6.6 56.55 6.3 55.9 6.05 55.25 6.3 53.95 6.85 50.75 7.2 Q49.0 7.2 49.0 5.5 49.0 3.95 53.1 3.95 L54.85 4.25 55.9 4.5 57.35 4.1 60.6 3.55 63.35 3.55 Q64.2 3.55 64.35 2.95 L64.7 1.25 Q64.95 0.0 66.15 0.0 67.6 0.0 67.8 1.1 L68.1 2.75 Q68.3 3.35 69.4 3.35 L71.7 3.35 78.35 3.1 81.1 3.1 M92.0 10.35 Q91.6 10.85 91.15 11.85 L91.4 12.35 91.75 13.8 91.6 20.2 Q91.55 24.2 92.05 28.25 92.3 30.7 92.45 30.65 92.45 32.65 90.8 32.85 88.9 32.85 88.45 29.5 L88.3 25.2 88.25 21.05 Q88.2 15.7 88.9 13.35 L89.7 11.75 89.5 10.55 89.15 9.15 Q89.15 6.7 89.65 5.4 90.15 3.6 91.55 3.55 93.15 3.55 93.2 5.4 93.25 6.2 92.6 8.3 L92.0 10.35 M102.35 21.3 L101.8 22.5 101.3 24.05 Q101.3 26.3 103.5 27.1 L109.15 27.75 112.7 27.45 116.1 27.1 Q117.85 27.1 118.0 29.0 118.0 30.4 116.8 30.75 L109.9 31.3 Q104.6 31.35 102.55 30.25 97.85 28.5 97.85 23.8 97.85 23.1 98.2 21.8 98.55 20.65 99.05 20.15 99.55 19.5 100.55 19.45 102.25 19.45 102.35 21.3 M111.95 5.55 Q116.65 5.5 116.7 7.85 116.7 9.35 114.85 9.4 L106.65 8.95 105.1 8.45 104.85 8.65 103.85 9.05 102.35 9.35 100.8 9.5 Q100.1 9.5 99.55 9.0 99.1 8.55 99.05 7.8 99.05 5.95 101.3 5.95 L103.85 6.1 104.55 6.65 105.05 6.95 105.65 6.6 106.6 6.0 111.95 5.55 M150.2 11.55 L150.6 11.95 Q150.95 12.15 150.95 12.8 L151.1 14.1 151.3 15.5 151.2 18.2 151.15 20.8 151.3 25.45 151.45 30.0 Q151.45 33.05 148.85 34.2 147.05 35.05 143.45 35.05 L141.6 35.0 139.95 35.0 136.15 34.65 135.6 34.45 134.95 34.3 Q134.5 34.3 133.45 34.75 L131.6 35.2 Q127.85 35.2 126.45 33.75 125.05 32.35 125.05 28.6 L124.85 20.55 124.6 12.5 Q124.6 9.2 125.5 8.45 124.45 6.35 124.45 4.75 124.45 3.8 125.1 3.05 125.8 2.3 126.7 2.1 L130.05 1.8 134.1 1.8 143.6 1.8 Q147.95 1.8 149.5 2.95 151.35 4.35 151.35 8.45 L150.2 11.55 M148.6 8.15 Q148.6 6.4 147.7 5.35 146.4 3.95 137.9 3.95 L131.85 4.1 Q126.95 4.5 127.0 6.15 L127.05 6.8 Q127.05 7.3 126.65 7.7 L126.3 8.2 126.8 9.35 127.35 11.2 Q127.4 13.05 130.15 13.05 L131.1 13.05 131.95 13.05 133.85 13.4 135.75 13.7 136.85 13.3 Q137.7 12.9 138.1 12.85 L142.8 12.5 145.1 12.7 Q146.5 13.0 146.5 14.15 146.5 15.35 143.35 15.35 L138.15 15.1 136.9 14.75 135.65 14.4 Q135.25 14.4 134.55 14.75 L133.55 15.1 130.35 15.2 Q128.8 15.3 128.1 16.0 127.3 16.85 127.3 19.05 127.3 21.05 128.6 21.55 L131.85 21.75 133.8 21.7 135.75 21.6 Q136.45 21.6 137.6 22.05 L138.8 22.45 139.75 22.1 141.15 21.65 143.45 21.6 145.45 21.65 Q146.7 21.95 146.7 22.9 146.7 24.25 144.05 24.25 140.65 24.25 139.4 23.4 L139.05 23.25 137.25 23.85 133.2 24.15 Q130.1 24.0 129.0 24.2 127.45 24.45 127.45 27.3 L127.7 28.85 Q128.2 31.25 129.35 31.85 L132.9 32.3 Q133.3 32.3 133.8 32.8 134.35 33.3 134.8 33.3 L136.1 33.05 137.35 32.7 143.0 32.3 Q147.2 32.05 147.95 31.2 148.8 30.3 148.95 27.65 L148.9 23.75 148.8 19.3 148.75 14.8 Q148.75 14.15 149.05 13.1 L149.35 11.55 148.95 10.4 Q148.6 9.35 148.6 8.15 M168.95 10.75 Q166.2 10.75 164.95 11.95 163.7 13.05 163.7 15.75 163.7 17.8 164.2 18.35 164.8 19.05 166.9 19.05 L168.2 18.95 169.5 18.85 171.05 19.1 Q172.1 19.45 172.1 20.15 172.1 20.8 171.3 21.25 L169.85 21.65 168.45 21.6 167.15 21.6 Q165.45 21.6 164.7 22.15 163.7 22.9 163.7 24.85 163.7 28.95 164.15 30.05 165.05 32.3 168.45 32.3 171.55 32.3 172.65 30.85 173.55 29.65 173.55 26.45 L173.45 24.1 173.45 21.7 Q173.45 20.7 173.8 19.2 L174.15 17.6 173.65 16.8 173.25 15.45 Q173.25 13.5 172.0 12.15 170.85 10.75 168.95 10.75 M172.2 9.05 L174.6 10.85 175.35 12.6 175.65 14.5 175.2 16.45 174.8 17.7 175.2 18.6 Q175.65 19.1 175.65 20.0 L175.65 24.0 175.7 28.0 Q175.7 30.4 174.6 32.35 173.25 34.75 171.0 34.5 L170.2 34.8 168.25 34.8 164.65 34.15 Q162.35 33.55 161.8 30.3 161.6 29.15 161.6 25.05 L161.65 21.8 161.75 18.45 161.65 16.1 161.6 13.75 Q161.6 10.5 163.15 9.5 L166.05 8.45 Q167.6 7.75 167.6 5.15 L167.25 3.35 166.9 1.7 Q166.9 1.15 167.35 0.75 167.8 0.35 168.35 0.35 169.2 0.35 170.0 0.9 170.75 1.45 170.75 2.3 L170.45 3.2 169.9 4.05 169.6 5.7 169.35 7.35 Q169.35 8.3 170.4 8.55 L172.2 9.05 M182.35 15.9 Q182.9 16.6 182.9 17.2 182.9 17.8 183.35 18.55 L184.55 19.8 186.1 22.55 187.35 25.25 Q187.35 25.9 186.95 26.55 186.6 27.2 186.0 27.2 184.9 27.2 183.8 24.05 L182.25 19.95 180.55 18.4 Q179.35 17.35 179.35 16.65 179.35 16.15 180.05 15.7 180.75 15.2 181.25 15.2 181.8 15.2 182.35 15.9 M182.55 2.7 L182.55 2.1 182.55 1.5 Q182.55 0.4 183.8 0.4 185.95 0.4 185.95 2.0 L185.3 3.15 Q184.7 3.85 184.6 4.65 L184.35 5.85 Q184.1 6.6 184.15 7.05 L184.8 7.15 185.35 7.05 186.45 7.3 187.25 7.85 Q188.25 7.4 189.7 7.4 193.25 7.4 194.0 8.5 194.65 9.3 194.65 13.05 L194.0 14.85 193.4 16.4 Q194.5 19.15 194.5 24.25 194.5 35.8 188.25 35.8 L183.15 35.2 Q179.5 34.3 179.5 32.7 L179.95 31.95 Q180.45 31.45 180.8 31.4 184.85 33.1 186.55 33.1 190.6 33.1 191.45 29.0 191.9 26.95 192.0 23.8 L192.05 18.55 Q192.05 18.25 192.4 17.45 L192.75 15.9 192.7 15.35 Q192.35 14.75 192.0 12.55 191.7 10.65 191.1 10.2 L189.45 9.95 Q188.25 9.9 187.9 9.55 L187.6 9.1 187.2 8.75 Q186.8 8.75 186.45 9.3 186.1 9.8 185.6 9.8 L184.5 9.8 183.45 9.75 Q182.0 9.75 179.75 11.65 L177.2 13.55 Q175.75 13.55 175.75 12.0 175.75 11.25 177.55 10.15 L180.8 7.55 Q182.55 5.55 182.55 2.7 M227.6 15.2 Q228.85 15.2 228.9 16.25 L228.75 17.1 Q228.6 17.45 227.6 17.85 L224.2 18.8 222.7 18.95 221.45 19.0 219.45 20.3 Q217.9 21.0 217.9 23.05 L217.95 25.55 Q217.95 27.05 216.7 27.1 215.55 27.15 215.5 25.65 L215.6 23.95 Q215.6 23.05 214.95 23.05 214.6 23.05 214.05 23.4 209.05 26.55 209.05 28.7 209.05 31.3 215.65 31.35 L222.6 30.7 Q224.65 30.45 224.65 32.0 224.65 33.15 223.15 33.4 L216.6 34.0 Q206.35 34.1 206.35 28.65 206.3 24.9 212.8 21.45 L214.4 20.3 Q214.7 19.95 214.7 18.7 214.7 17.65 214.05 16.95 213.4 16.2 212.4 16.15 L210.75 15.8 Q209.85 15.8 207.8 17.5 L205.65 19.4 203.85 21.9 Q203.2 22.75 202.4 22.75 201.3 22.8 201.3 21.55 201.3 20.95 202.0 19.9 L207.95 10.1 Q208.35 9.35 208.35 8.7 208.35 7.9 207.5 7.85 207.2 7.85 206.15 8.4 205.1 8.9 204.25 8.9 L202.7 8.8 Q201.0 8.5 201.2 7.4 201.35 6.3 202.7 6.3 L204.55 6.35 205.95 6.7 207.4 7.05 Q208.35 7.05 209.2 6.25 L209.8 4.75 210.15 3.25 Q210.45 2.2 211.7 2.2 212.85 2.2 212.9 3.4 L212.6 5.25 212.55 5.8 Q212.55 6.2 213.1 6.3 L215.0 6.35 216.85 6.2 219.05 6.05 Q221.0 6.05 221.0 7.35 221.05 8.65 219.65 8.7 L214.3 8.65 Q211.65 8.6 210.85 9.85 L208.95 13.0 208.65 14.0 Q208.65 14.7 209.35 14.75 L210.7 15.1 211.7 14.75 Q212.35 14.35 213.15 14.35 214.7 14.3 215.55 15.0 216.3 15.6 216.9 17.15 217.45 18.65 218.4 18.65 L219.2 18.35 220.45 18.25 221.2 18.3 223.95 16.85 Q225.75 15.7 226.7 15.35 L227.6 15.2" fill="#ffffff" fill-opacity="0.69411767" fill-rule="evenodd" stroke="none"/>
    </g>
    <g id="shape2" transform="matrix(1.0, 0.0, 0.0, 1.0, 253.45, 192.0)">
      <path d="M-253.45 -192.0 L253.5 -192.0 253.5 192.0 -253.45 192.0 -253.45 -192.0" fill="#ffffff" fill-opacity="0.007843138" fill-rule="evenodd" stroke="none"/>
    </g>
  </defs>
</svg>
