<?xml version="1.0" encoding="UTF-8" standalone="no"?>
<svg xmlns:xlink="http://www.w3.org/1999/xlink" height="59.8px" width="32.65px" xmlns="http://www.w3.org/2000/svg">
  <g transform="matrix(1.0, 0.0, 0.0, 1.0, 16.35, 29.9)">
    <use height="59.8" transform="matrix(1.0, 0.0, 0.0, 1.0, -16.35, -29.9)" width="32.65" xlink:href="#shape0"/>
  </g>
  <defs>
    <g id="shape0" transform="matrix(1.0, 0.0, 0.0, 1.0, 16.35, 29.9)">
      <path d="M-13.2 -20.95 L-13.15 -21.15 Q-9.3 -20.7 -6.35 -17.95 L-5.15 -16.75 -5.05 -16.8 -4.9 -16.8 -4.7 -16.5 -4.7 -16.35 -4.75 -16.3 Q-2.45 -13.6 -1.25 -10.4 L-1.2 -10.35 Q-0.6 -9.15 -1.9 -7.9 L-1.8 -7.85 -1.45 -7.85 Q0.4 -9.5 1.65 -11.75 2.6 -13.55 4.0 -14.95 7.4 -18.35 11.7 -20.25 12.15 -20.4 12.4 -20.75 L12.85 -21.35 Q13.0 -23.7 10.85 -25.4 4.6 -30.65 -3.5 -28.4 -10.45 -26.5 -14.95 -20.85 -14.85 -20.7 -14.9 -20.55 L-14.95 -20.25 -15.4 -19.9 Q-15.5 -17.9 -14.1 -16.1 L-11.75 -13.45 -11.7 -13.45 -8.75 -10.95 Q-7.75 -13.75 -5.85 -15.9 -8.35 -18.4 -11.7 -19.9 L-13.2 -20.65 -13.2 -20.95 M-6.25 29.9 L-7.55 29.9 -8.35 28.25 Q-9.1 26.1 -7.6 24.2 L-6.45 23.0 -8.2 19.8 Q-10.4 15.05 -11.0 9.65 L-11.25 8.05 Q-11.55 5.1 -11.15 2.25 -11.05 -2.7 -9.8 -7.45 L-9.0 -10.15 -10.1 -10.8 -10.4 -11.05 Q-12.55 -12.75 -14.45 -14.95 -16.45 -17.2 -16.2 -20.0 L-16.35 -20.25 -16.1 -20.6 -16.05 -20.7 Q-10.2 -28.8 -0.35 -29.8 6.8 -30.6 11.85 -25.55 L13.8 -23.1 13.9 -22.55 14.0 -22.55 14.15 -22.4 14.05 -21.8 14.1 -21.45 13.8 -20.85 13.75 -20.65 13.35 -20.35 12.8 -19.8 12.85 -19.8 Q5.9 -16.85 1.9 -10.5 L0.25 -8.05 Q-0.9 -6.55 -2.5 -6.95 L-2.6 -6.75 -3.0 -5.4 Q-5.4 2.75 -4.2 11.3 L-3.75 12.8 Q-3.2 15.85 -2.0 18.65 L-1.45 19.8 -1.45 19.9 -1.4 20.15 -1.35 20.3 -1.25 20.5 -1.15 20.65 -1.1 20.75 Q0.8 20.6 2.7 21.5 5.05 22.65 5.15 25.2 L7.15 25.45 7.2 25.55 7.35 25.6 Q12.85 26.25 16.3 29.9 L14.7 29.9 Q13.4 28.8 11.8 27.9 7.55 26.0 3.0 26.2 L2.95 26.3 2.5 26.35 2.4 26.35 2.35 26.25 1.5 26.35 1.4 26.25 Q1.25 25.95 1.45 25.75 L1.85 25.65 Q0.3 24.15 -2.0 25.7 L-2.5 26.1 Q-4.55 27.7 -3.7 29.7 L-3.45 29.6 -3.35 29.65 -3.15 29.8 -3.1 29.8 -3.05 29.9 -4.75 29.9 Q-4.95 29.2 -4.75 28.2 -4.45 26.5 -3.2 25.45 L-2.05 24.65 Q0.55 23.2 2.6 24.95 L2.95 25.35 4.3 25.2 Q3.5 21.45 -0.5 21.8 L-2.3 22.05 Q-5.4 22.85 -7.3 25.65 L-7.75 26.65 Q-7.55 27.15 -7.7 27.65 L-7.45 28.35 -7.45 28.55 -6.25 29.9 M-8.6 -7.55 Q-9.65 -3.95 -9.95 -0.1 L-10.3 6.15 Q-10.15 10.4 -9.1 14.7 L-9.05 14.75 -8.9 14.9 -8.65 16.05 -8.65 16.2 -7.25 19.45 -5.95 22.6 -4.1 21.5 Q-3.05 21.0 -2.05 20.85 L-3.0 18.65 Q-5.3 13.1 -5.55 7.0 -5.8 0.3 -3.7 -6.0 L-3.1 -7.7 Q-2.7 -9.0 -1.9 -10.05 -3.25 -13.05 -5.3 -15.3 -7.45 -11.6 -8.6 -7.55 M-3.1 29.7 Q-4.1 29.35 -3.05 27.95 L-2.55 27.5 Q-2.0 27.0 -1.3 27.1 L-2.75 29.3 -2.95 29.5 -3.1 29.7" fill="#000000" fill-rule="evenodd" stroke="none"/>
      <path d="M-13.2 -20.95 L-13.2 -20.65 -11.7 -19.9 Q-8.35 -18.4 -5.85 -15.9 -7.75 -13.75 -8.75 -10.95 L-11.7 -13.45 -11.75 -13.45 -14.1 -16.1 Q-15.5 -17.9 -15.4 -19.9 L-14.95 -20.25 -14.9 -20.55 Q-14.85 -20.7 -14.95 -20.85 -10.45 -26.5 -3.5 -28.4 4.6 -30.65 10.85 -25.4 13.0 -23.7 12.85 -21.35 L12.4 -20.75 Q12.15 -20.4 11.7 -20.25 7.4 -18.35 4.0 -14.95 2.6 -13.55 1.65 -11.75 0.4 -9.5 -1.45 -7.85 L-1.8 -7.85 -1.9 -7.9 Q-0.6 -9.15 -1.2 -10.35 L-1.25 -10.4 Q-2.45 -13.6 -4.75 -16.3 L-4.7 -16.35 -4.7 -16.5 -4.9 -16.8 -5.05 -16.8 -5.15 -16.75 -6.35 -17.95 Q-9.3 -20.7 -13.15 -21.15 L-13.2 -20.95" fill="url(#gradient0)" fill-rule="evenodd" stroke="none"/>
      <path d="M-8.6 -7.55 L-8.55 -7.55 Q-5.6 -7.45 -3.7 -6.0 -5.8 0.3 -5.55 7.0 -5.3 13.1 -3.0 18.65 L-4.45 18.75 Q-5.9 18.9 -7.25 19.45 L-8.65 16.2 -8.65 16.05 -8.9 14.9 -9.05 14.75 -9.1 14.7 Q-10.15 10.4 -10.3 6.15 L-9.95 -0.1 Q-9.65 -3.95 -8.6 -7.55" fill="#75640a" fill-rule="evenodd" stroke="none"/>
      <path d="M-3.7 -6.0 Q-5.6 -7.45 -8.55 -7.55 L-8.6 -7.55 Q-7.45 -11.6 -5.3 -15.3 -3.25 -13.05 -1.9 -10.05 -2.7 -9.0 -3.1 -7.7 L-3.7 -6.0 M-7.25 19.45 Q-5.9 18.9 -4.45 18.75 L-3.0 18.65 -2.05 20.85 Q-3.05 21.0 -4.1 21.5 L-5.95 22.6 -7.25 19.45" fill="#5f5300" fill-rule="evenodd" stroke="none"/>
      <path d="M14.7 29.9 L-2.55 29.9 -2.7 29.5 -3.1 29.7 -3.15 29.8 -3.35 29.65 -3.45 29.6 -3.7 29.7 Q-4.55 27.7 -2.5 26.1 L-2.0 25.7 Q0.3 24.15 1.85 25.65 L1.45 25.75 Q1.25 25.95 1.4 26.25 L1.5 26.35 2.35 26.25 2.4 26.35 2.5 26.35 2.95 26.3 3.0 26.2 Q7.55 26.0 11.8 27.9 13.4 28.8 14.7 29.9 M-4.75 29.9 L-6.25 29.9 -7.45 28.55 -7.45 28.35 -7.7 27.65 Q-7.55 27.15 -7.75 26.65 L-7.3 25.65 Q-5.4 22.85 -2.3 22.05 L-0.5 21.8 Q3.5 21.45 4.3 25.2 L2.95 25.35 2.6 24.95 Q0.55 23.2 -2.05 24.65 L-3.2 25.45 Q-4.45 26.5 -4.75 28.2 -4.95 29.2 -4.75 29.9 M-3.1 29.7 L-2.95 29.5 -2.75 29.3 -1.3 27.1 Q-2.0 27.0 -2.55 27.5 L-3.05 27.95 Q-4.1 29.35 -3.1 29.7" fill="#ffffff" fill-rule="evenodd" stroke="none"/>
      <path d="M-2.55 29.9 L-3.05 29.9 -3.1 29.8 -3.15 29.8 -3.1 29.7 -2.7 29.5 -2.55 29.9" fill="#e2ebef" fill-rule="evenodd" stroke="none"/>
    </g>
    <linearGradient gradientTransform="matrix(-0.0058, -0.0139, 0.0108, -0.0045, -3.85, -29.9)" gradientUnits="userSpaceOnUse" id="gradient0" spreadMethod="pad" x1="-819.2" x2="819.2">
      <stop offset="0.0" stop-color="#39fd7b"/>
      <stop offset="1.0" stop-color="#000000"/>
    </linearGradient>
  </defs>
</svg>
