<?xml version="1.0" encoding="UTF-8" standalone="no"?>
<svg xmlns:xlink="http://www.w3.org/1999/xlink" height="34.9px" width="70.35px" xmlns="http://www.w3.org/2000/svg">
  <g transform="matrix(1.0, 0.0, 0.0, 1.0, 35.15, 17.45)">
    <use height="34.9" transform="matrix(1.0, 0.0, 0.0, 1.0, -35.15, -17.45)" width="70.35" xlink:href="#shape0"/>
  </g>
  <defs>
    <g id="shape0" transform="matrix(1.0, 0.0, 0.0, 1.0, 35.15, 17.45)">
      <path d="M-34.15 -8.3 Q-33.45 -9.85 -32.25 -11.2 -30.3 -13.4 -27.85 -14.95 -25.4 -16.5 -22.55 -16.9 L-17.15 -17.4 -12.85 -17.3 -9.65 -16.0 Q-7.3 -14.9 -5.15 -13.05 L-1.5 -10.0 1.3 -8.05 Q2.2 -7.25 3.35 -6.9 L6.7 -6.7 Q9.45 -7.0 11.75 -8.2 13.8 -9.3 15.9 -11.15 17.95 -12.95 20.45 -13.4 22.95 -13.85 25.0 -12.45 L25.5 -12.1 25.55 -12.15 Q27.0 -10.45 28.15 -8.35 29.35 -6.05 29.95 -3.55 30.45 -1.55 30.55 0.5 L30.6 1.3 28.4 4.75 27.65 5.15 22.85 7.25 Q20.3 8.25 18.35 8.65 16.35 9.05 12.95 10.2 L7.0 11.95 Q4.45 12.6 1.9 13.5 3.5 12.6 5.25 11.75 12.2 9.7 16.7 6.25 18.4 4.95 19.9 2.4 21.05 2.0 21.85 1.95 22.65 1.9 24.7 2.7 25.1 0.1 20.85 0.7 L18.65 1.15 15.7 2.3 15.55 2.95 Q15.0 3.2 14.45 3.55 L10.35 5.95 Q8.2 7.05 5.5 7.8 L-0.05 8.5 -5.65 7.85 -9.75 6.95 Q-10.0 5.95 -11.4 6.5 -13.85 5.7 -15.65 3.9 L-19.4 0.45 Q-21.4 -1.3 -22.95 -3.45 -24.45 -5.6 -26.6 -6.85 -28.8 -8.15 -31.7 -8.45 L-34.15 -8.3 M-15.65 15.8 L-16.95 14.65 -2.65 13.4 Q-3.7 14.25 -5.5 14.85 -8.25 15.75 -11.15 15.9 L-15.65 15.8 M-16.4 -1.75 Q-18.35 -2.25 -18.1 -0.7 -16.95 0.4 -16.05 -1.1 L-15.95 -1.2 Q-15.75 -1.6 -16.35 -1.75 L-16.4 -1.75 M-14.95 1.3 Q-15.45 3.45 -12.9 3.35 -12.3 3.35 -12.6 2.45 -13.4 -0.05 -14.95 1.3" fill="#c19f79" fill-rule="evenodd" stroke="none"/>
      <path d="M25.55 -12.15 Q26.95 -14.45 29.25 -14.85 L32.55 -14.5 Q35.2 -13.4 35.2 -10.3 35.2 -7.35 33.95 -4.75 L31.25 0.25 30.6 1.3 30.55 0.5 Q30.45 -1.55 29.95 -3.55 29.35 -6.05 28.15 -8.35 27.0 -10.45 25.55 -12.15" fill="#b2936f" fill-rule="evenodd" stroke="none"/>
      <path d="M-16.95 14.65 L-17.05 14.65 -16.95 14.65 -17.45 14.0 -17.2 14.15 -17.95 13.5 -18.25 13.2 -18.15 13.25 -17.95 13.35 Q-17.85 13.35 -17.7 13.45 L-2.0 11.85 0.25 11.6 Q13.85 9.65 17.95 2.35 L17.95 2.3 Q17.35 1.95 15.7 2.3 L18.65 1.15 20.85 0.7 Q25.1 0.1 24.7 2.7 22.65 1.9 21.85 1.95 21.05 2.0 19.9 2.4 18.4 4.95 16.7 6.25 12.2 9.7 5.25 11.75 L-0.8 13.1 -2.65 13.4 -16.95 14.65 M-17.95 13.5 L-18.0 13.4 -18.15 13.25 -17.95 13.5" fill="#65543f" fill-rule="evenodd" stroke="none"/>
      <path d="M1.9 13.5 L1.7 13.55 -3.5 15.6 Q-6.0 16.6 -8.75 17.2 -11.85 17.85 -14.1 16.75 L-14.3 16.65 Q-12.15 16.9 -10.0 16.6 L-5.05 15.6 Q-2.45 15.0 -0.85 13.15 L-0.8 13.1 5.25 11.75 Q3.5 12.6 1.9 13.5 M-16.95 14.65 L-17.15 14.45 -17.45 14.0 -17.5 13.95 Q-19.35 13.7 -21.2 12.85 L-25.35 10.75 -29.65 7.9 Q-31.75 6.2 -33.05 4.25 -34.25 2.45 -34.9 -0.45 -35.45 -3.3 -34.85 -6.2 L-34.8 -6.4 Q-32.9 -6.95 -30.3 -5.9 -25.65 -4.1 -23.05 -0.15 L-19.9 3.75 -20.05 3.75 -20.3 3.8 Q-21.6 5.85 -19.75 6.05 -18.3 6.2 -18.05 5.45 L-16.6 6.5 Q-12.4 9.3 -7.35 9.65 L4.0 9.05 Q9.8 8.0 12.7 5.95 15.0 4.25 15.55 2.95 L15.7 2.3 Q17.35 1.95 17.95 2.3 L17.95 2.35 Q13.85 9.65 0.25 11.6 L-2.0 11.85 -17.7 13.45 Q-17.85 13.35 -17.95 13.35 L-18.15 13.25 -18.25 13.2 -17.95 13.5 -17.2 14.15 -17.45 14.0 -16.95 14.65" fill="#8c7357" fill-rule="evenodd" stroke="none"/>
      <path d="M-14.3 16.65 L-15.65 15.8 -11.15 15.9 Q-8.25 15.75 -5.5 14.85 -3.7 14.25 -2.65 13.4 L-0.8 13.1 -0.85 13.15 Q-2.45 15.0 -5.05 15.6 L-10.0 16.6 Q-12.15 16.9 -14.3 16.65 M-34.8 -6.4 L-34.15 -8.3 -31.7 -8.45 Q-28.8 -8.15 -26.6 -6.85 -24.45 -5.6 -22.95 -3.45 -21.4 -1.3 -19.4 0.45 L-15.65 3.9 Q-13.85 5.7 -11.4 6.5 L-11.6 6.55 -11.85 6.7 Q-12.2 8.75 -9.95 8.85 -9.6 7.55 -9.75 6.95 L-5.65 7.85 -0.05 8.5 5.5 7.8 Q8.2 7.05 10.35 5.95 L14.45 3.55 Q15.0 3.2 15.55 2.95 15.0 4.25 12.7 5.95 9.8 8.0 4.0 9.05 L-7.35 9.65 Q-12.4 9.3 -16.6 6.5 L-18.05 5.45 -17.95 4.95 -19.35 3.75 -19.9 3.75 -23.05 -0.15 Q-25.65 -4.1 -30.3 -5.9 -32.9 -6.95 -34.8 -6.4" fill="#a88b69" fill-rule="evenodd" stroke="none"/>
      <path d="M-11.4 6.5 Q-10.0 5.95 -9.75 6.95 -9.6 7.55 -9.95 8.85 -12.2 8.75 -11.85 6.7 L-11.6 6.55 -11.4 6.5 M-16.4 -1.75 L-16.35 -1.75 Q-15.75 -1.6 -15.95 -1.2 L-16.05 -1.1 Q-16.95 0.4 -18.1 -0.7 -18.35 -2.25 -16.4 -1.75 M-14.95 1.3 Q-13.4 -0.05 -12.6 2.45 -12.3 3.35 -12.9 3.35 -15.45 3.45 -14.95 1.3 M-19.9 3.75 L-19.35 3.75 -17.95 4.95 -18.05 5.45 Q-18.3 6.2 -19.75 6.05 -21.6 5.85 -20.3 3.8 L-20.05 3.75 -19.9 3.75" fill="#352c21" fill-rule="evenodd" stroke="none"/>
    </g>
  </defs>
</svg>
