<?xml version="1.0" encoding="UTF-8" standalone="no"?>
<svg xmlns:xlink="http://www.w3.org/1999/xlink" height="92.9px" width="69.4px" xmlns="http://www.w3.org/2000/svg">
  <g transform="matrix(1.0, 0.0, 0.0, 1.0, 34.7, 46.45)">
    <use height="92.9" transform="matrix(1.0, 0.0, 0.0, 1.0, -34.7, -46.45)" width="34.8" xlink:href="#sprite0"/>
    <use height="92.9" transform="matrix(-1.0, 0.0, 0.0, 1.0, 34.7, -46.45)" width="34.8" xlink:href="#sprite0"/>
    <use height="41.25" transform="matrix(1.0, 0.0, 0.0, 1.0, -20.75, -20.35)" width="41.3" xlink:href="#sprite1"/>
    <use height="4.95" transform="matrix(1.0, 0.0, 0.0, 1.0, -2.35, -2.25)" width="4.9" xlink:href="#sprite3"/>
  </g>
  <defs>
    <g id="sprite0" transform="matrix(1.0, 0.0, 0.0, 1.0, 17.4, 46.45)">
      <use height="92.9" transform="matrix(1.0, 0.0, 0.0, 1.0, -17.4, -46.45)" width="34.8" xlink:href="#shape0"/>
    </g>
    <g id="shape0" transform="matrix(1.0, 0.0, 0.0, 1.0, 17.4, 46.45)">
      <path d="M17.4 -45.5 Q13.9 -45.5 11.4 -43.05 8.95 -40.55 8.95 -37.05 8.95 -33.55 11.4 -31.1 L13.35 -29.6 Q13.55 -30.4 14.15 -31.05 L12.6 -32.25 Q10.6 -34.25 10.6 -37.05 10.6 -39.9 12.6 -41.85 14.6 -43.85 17.4 -43.85 L17.4 -42.9 Q14.95 -42.9 13.25 -41.2 11.5 -39.5 11.55 -37.05 11.5 -34.65 13.25 -32.9 L14.9 -31.75 Q15.95 -32.6 17.35 -32.55 L17.4 -32.55 17.4 -31.3 17.35 -31.3 Q16.15 -31.35 15.3 -30.5 14.45 -29.65 14.45 -28.55 14.45 -28.15 14.6 -27.8 15.8 -28.5 17.3 -28.5 L17.4 -28.5 17.4 -27.15 17.3 -27.15 Q15.8 -27.15 14.7 -26.25 13.75 -25.5 13.6 -24.5 L12.35 -24.35 Q12.4 -25.9 13.55 -27.0 13.2 -27.7 13.2 -28.55 L13.2 -28.65 Q11.85 -29.3 10.75 -30.4 8.0 -33.2 8.0 -37.05 8.0 -40.95 10.75 -43.7 13.5 -46.45 17.4 -46.45 L17.4 -45.5 M8.55 -23.55 Q8.45 -25.65 7.2 -27.4 6.05 -29.05 4.1 -30.0 2.15 -31.0 -0.15 -31.15 L-4.95 -30.65 Q-7.45 -29.95 -9.65 -28.4 L-11.8 -26.6 -13.35 -24.75 Q-14.85 -22.7 -15.5 -20.4 -16.15 -18.15 -15.9 -16.0 -15.65 -13.85 -14.5 -12.2 -13.85 -11.25 -12.95 -10.6 L-12.85 -10.5 -11.6 -9.75 -10.8 -9.45 -11.5 -8.15 Q-13.6 -8.9 -15.05 -10.6 L-15.65 -11.35 Q-17.05 -13.35 -17.35 -15.85 -17.6 -18.25 -16.85 -20.8 -16.15 -23.35 -14.5 -25.6 L-13.2 -27.25 -13.2 -27.3 Q-13.65 -27.9 -13.65 -28.55 L-13.5 -29.4 Q-13.2 -30.5 -12.3 -31.15 -11.35 -31.8 -10.2 -31.7 -9.05 -31.65 -8.4 -30.8 L-5.35 -32.0 Q-2.7 -32.8 -0.05 -32.6 2.6 -32.4 4.75 -31.3 7.0 -30.2 8.4 -28.2 9.8 -26.2 10.0 -23.9 L8.55 -23.55 M-12.85 -10.55 L-12.85 -10.6 Q-13.35 -11.35 -12.95 -12.75 -12.65 -13.85 -11.8 -15.2 L-11.4 -15.8 Q-9.0 -19.45 -5.45 -21.95 -2.35 -24.1 1.15 -24.9 L7.0 -25.1 Q4.45 -25.3 1.35 -24.35 -2.0 -23.4 -4.7 -21.45 -8.65 -18.7 -10.9 -15.25 L-11.8 -13.65 Q-12.65 -11.8 -12.15 -10.6 L-11.6 -9.8 -12.85 -10.55 M-2.45 26.5 L-1.05 25.1 Q3.1 23.85 4.45 27.4 L3.5 30.2 2.8 32.2 -1.25 44.1 Q-3.0 46.3 -5.5 46.45 -7.75 46.5 -9.95 45.0 -12.05 43.6 -13.05 41.55 -14.15 39.3 -13.4 37.55 L-3.9 28.0 -2.45 26.5 M11.3 34.9 L12.95 35.1 11.75 40.05 Q11.85 41.65 13.4 42.65 14.75 43.5 16.75 43.55 L17.4 43.55 17.4 45.2 16.75 45.25 Q14.05 45.25 12.25 43.9 10.2 42.4 10.05 39.6 L11.3 34.9 M3.15 28.05 Q2.75 27.05 1.75 26.5 0.85 25.95 -0.1 26.1 L-11.8 38.25 Q-12.3 39.4 -11.6 40.85 L-11.5 40.05 Q-11.1 39.1 -9.75 38.85 -8.45 38.65 -6.95 39.3 -5.45 39.9 -4.7 41.0 -3.95 42.1 -4.35 43.05 L-4.45 43.3 Q-4.55 42.6 -5.1 41.85 -5.7 41.1 -6.6 40.65 -7.85 39.95 -9.0 40.0 -10.2 40.1 -10.65 40.9 -10.95 41.45 -10.75 42.15 L-9.0 43.6 Q-7.35 44.65 -5.75 44.7 -3.95 44.75 -2.95 43.5 L3.15 28.05 M0.05 28.3 L-0.95 30.15 Q-5.45 38.1 -5.45 39.15 -7.85 36.95 -10.95 38.1 L0.0 26.9 0.65 27.25 0.05 28.3 M-11.8 -28.55 L-10.5 -29.55 -9.45 -30.25 -10.3 -30.6 Q-11.0 -30.65 -11.6 -30.2 -12.25 -29.8 -12.45 -29.1 L-12.5 -28.55 -12.35 -28.05 -11.8 -28.55 M-7.65 -28.15 Q-7.95 -26.1 -7.3 -24.95 -6.75 -24.0 -5.55 -23.9 L-7.75 -22.6 -10.25 -20.7 -11.8 -19.0 Q-13.4 -16.85 -14.0 -13.95 -14.55 -13.5 -14.9 -14.85 -15.3 -21.25 -11.8 -25.1 -10.15 -26.9 -7.65 -28.15" fill="#ffcc00" fill-rule="evenodd" stroke="none"/>
      <path d="M-12.85 -10.5 L-12.85 -10.55 -11.6 -9.8 -11.6 -9.75 -12.85 -10.5" fill="#ffff99" fill-rule="evenodd" stroke="none"/>
      <path d="M12.35 -24.35 L13.6 -24.5 17.4 -24.75 17.4 -24.0 13.65 -23.8 12.4 -23.6 10.0 -23.15 8.55 -22.75 6.05 -21.95 Q0.65 -19.95 -3.6 -16.25 -7.25 -13.15 -9.6 -9.15 L-10.35 -7.8 -10.4 -7.7 Q-13.0 -2.7 -13.35 2.95 -13.7 8.95 -11.5 14.55 -9.35 19.95 -5.05 24.2 L-2.45 26.5 -3.9 28.0 -6.25 25.9 Q-10.75 21.45 -13.0 15.75 -15.3 9.9 -14.9 3.6 -14.55 -2.35 -11.8 -7.6 L-11.5 -8.15 -10.8 -9.45 -9.95 -10.7 Q-7.75 -13.95 -4.65 -16.6 -0.2 -20.45 5.45 -22.55 L7.1 -23.15 8.55 -23.55 10.0 -23.9 12.35 -24.35 M17.4 23.1 Q12.4 23.05 7.9 21.2 3.4 19.35 0.05 16.05 -3.3 12.75 -5.0 8.5 -6.75 4.05 -6.45 -0.65 -6.2 -4.4 -4.7 -7.85 L-4.1 -9.05 -3.85 -9.5 Q-1.95 -13.05 1.25 -15.75 4.2 -18.35 7.9 -19.85 L8.75 -20.2 9.65 -20.5 13.55 -21.5 16.1 -21.75 17.4 -21.8 17.4 -20.45 16.15 -20.45 15.95 -20.4 14.55 -20.25 13.85 -20.15 10.2 -19.3 9.75 -19.15 9.35 -19.0 9.1 -18.95 7.15 -18.1 Q4.5 -16.9 2.35 -15.1 -0.35 -12.95 -2.1 -10.15 L-2.6 -9.25 -3.15 -8.2 -4.05 -5.85 -4.9 -2.6 -5.15 0.75 Q-5.15 4.45 -3.75 7.95 -2.15 11.95 1.0 15.1 4.15 18.25 8.35 20.0 11.85 21.4 15.65 21.7 L17.4 21.8 17.4 23.1 M3.5 30.2 L4.95 30.8 Q10.8 33.2 17.4 33.25 L17.4 35.4 12.95 35.1 11.3 34.9 Q7.65 34.25 4.25 32.85 L2.8 32.2 3.5 30.2" fill="#990000" fill-rule="evenodd" stroke="none"/>
      <path d="M15.95 -20.4 L16.15 -20.45 15.7 -20.35 15.25 -20.3 15.95 -20.4" fill="#ffffff" fill-rule="evenodd" stroke="none"/>
      <path d="M17.4 21.8 L15.65 21.7 16.85 15.9 17.4 15.9 17.4 21.8 M-5.15 0.75 L-4.9 -2.6 -4.7 -2.55 0.5 -1.45 0.5 -0.15 -5.15 0.75 M16.15 -20.45 L17.4 -20.45 17.4 -14.65 16.85 -14.65 15.7 -20.35 16.15 -20.45" fill="#ff9900" fill-rule="evenodd" stroke="none"/>
      <path d="M17.4 -21.8 L16.1 -21.75 13.55 -21.5 9.65 -20.5 8.75 -20.2 7.9 -19.85 Q4.2 -18.35 1.25 -15.75 -1.95 -13.05 -3.85 -9.5 L-4.1 -9.05 -4.7 -7.85 Q-6.2 -4.4 -6.45 -0.65 -6.75 4.05 -5.0 8.5 -3.3 12.75 0.05 16.05 3.4 19.35 7.9 21.2 12.4 23.05 17.4 23.1 L17.4 33.25 Q10.8 33.2 4.95 30.8 L3.5 30.2 4.45 27.4 Q3.1 23.85 -1.05 25.1 L-2.45 26.5 -5.05 24.2 Q-9.35 19.95 -11.5 14.55 -13.7 8.95 -13.35 2.95 -13.0 -2.7 -10.4 -7.7 L-10.35 -7.8 -9.6 -9.15 Q-7.25 -13.15 -3.6 -16.25 0.65 -19.95 6.05 -21.95 L8.55 -22.75 10.0 -23.15 12.4 -23.6 13.65 -23.8 17.4 -24.0 17.4 -21.8" fill="#ff0000" fill-rule="evenodd" stroke="none"/>
      <path d="M17.4 -43.85 Q14.6 -43.85 12.6 -41.85 10.6 -39.9 10.6 -37.05 10.6 -34.25 12.6 -32.25 L14.15 -31.05 Q13.55 -30.4 13.35 -29.6 L11.4 -31.1 Q8.95 -33.55 8.95 -37.05 8.95 -40.55 11.4 -43.05 13.9 -45.5 17.4 -45.5 L17.4 -43.85 M13.6 -24.5 Q13.75 -25.5 14.7 -26.25 15.8 -27.15 17.3 -27.15 L17.4 -27.15 17.4 -24.75 13.6 -24.5 M17.4 -28.5 L17.3 -28.5 Q15.8 -28.5 14.6 -27.8 14.45 -28.15 14.45 -28.55 14.45 -29.65 15.3 -30.5 16.15 -31.35 17.35 -31.3 L17.4 -31.3 17.4 -28.5 M-12.85 -10.5 L-12.95 -10.6 Q-13.85 -11.25 -14.5 -12.2 -15.65 -13.85 -15.9 -16.0 -16.15 -18.15 -15.5 -20.4 -14.85 -22.7 -13.35 -24.75 L-11.8 -26.6 -9.65 -28.4 Q-7.45 -29.95 -4.95 -30.65 L-0.15 -31.15 Q2.15 -31.0 4.1 -30.0 6.05 -29.05 7.2 -27.4 8.45 -25.65 8.55 -23.55 L7.1 -23.15 Q5.95 -24.7 2.65 -23.95 -0.65 -23.2 -4.15 -20.6 -7.65 -17.95 -9.3 -15.05 -10.95 -12.2 -9.95 -10.7 L-10.8 -9.45 -11.6 -9.75 -11.6 -9.8 -12.15 -10.6 Q-12.65 -11.8 -11.8 -13.65 L-10.9 -15.25 Q-8.65 -18.7 -4.7 -21.45 -2.0 -23.4 1.35 -24.35 4.45 -25.3 7.0 -25.1 L1.15 -24.9 Q-2.35 -24.1 -5.45 -21.95 -9.0 -19.45 -11.4 -15.8 L-11.8 -15.2 Q-12.65 -13.85 -12.95 -12.75 -13.35 -11.35 -12.85 -10.6 L-12.85 -10.55 -12.85 -10.5 M12.95 35.1 L17.4 35.4 17.4 43.55 16.75 43.55 Q14.75 43.5 13.4 42.65 11.85 41.65 11.75 40.05 L12.95 35.1 M3.15 28.05 L-2.95 43.5 Q-3.95 44.75 -5.75 44.7 -7.35 44.65 -9.0 43.6 L-10.75 42.15 Q-10.95 41.45 -10.65 40.9 -10.2 40.1 -9.0 40.0 -7.85 39.95 -6.6 40.65 -5.7 41.1 -5.1 41.85 -4.55 42.6 -4.45 43.3 L-4.35 43.05 Q-3.95 42.1 -4.7 41.0 -5.45 39.9 -6.95 39.3 -8.45 38.65 -9.75 38.85 -11.1 39.1 -11.5 40.05 L-11.6 40.85 Q-12.3 39.4 -11.8 38.25 L-0.1 26.1 Q0.85 25.95 1.75 26.5 2.75 27.05 3.15 28.05 M0.05 28.3 L0.65 27.25 0.0 26.9 -10.95 38.1 Q-7.85 36.95 -5.45 39.15 -5.45 38.1 -0.95 30.15 L0.05 28.3 M-11.8 -28.55 L-12.35 -28.05 -12.5 -28.55 -12.45 -29.1 Q-12.25 -29.8 -11.6 -30.2 -11.0 -30.65 -10.3 -30.6 L-9.45 -30.25 -10.5 -29.55 -11.8 -28.55 M-7.65 -28.15 Q-10.15 -26.9 -11.8 -25.1 -15.3 -21.25 -14.9 -14.85 -14.55 -13.5 -14.0 -13.95 -13.4 -16.85 -11.8 -19.0 L-10.25 -20.7 -7.75 -22.6 -5.55 -23.9 Q-6.75 -24.0 -7.3 -24.95 -7.95 -26.1 -7.65 -28.15" fill="#cc9900" fill-rule="evenodd" stroke="none"/>
      <path d="M-9.95 -10.7 Q-10.95 -12.2 -9.3 -15.05 -7.65 -17.95 -4.15 -20.6 -0.65 -23.2 2.65 -23.95 5.95 -24.7 7.1 -23.15 L5.45 -22.55 Q-0.2 -20.45 -4.65 -16.6 -7.75 -13.95 -9.95 -10.7" fill="#996600" fill-rule="evenodd" stroke="none"/>
      <path d="M15.65 21.7 Q11.85 21.4 8.35 20.0 4.15 18.25 1.0 15.1 -2.15 11.95 -3.75 7.95 -5.15 4.45 -5.15 0.75 L0.5 -0.15 0.5 -1.45 -4.7 -2.55 -4.9 -2.6 -4.05 -5.85 -3.15 -8.2 -2.6 -9.25 -2.1 -10.15 Q-0.35 -12.95 2.35 -15.1 4.5 -16.9 7.15 -18.1 L9.1 -18.95 9.35 -19.0 9.75 -19.15 10.2 -19.3 13.85 -20.15 14.55 -20.25 15.25 -20.3 15.7 -20.35 16.85 -14.65 17.4 -14.65 17.4 15.9 16.85 15.9 15.65 21.7" fill="#cccccc" fill-rule="evenodd" stroke="none"/>
    </g>
    <g id="sprite1" transform="matrix(1.0, 0.0, 0.0, 1.0, 24.95, 17.25)">
      <use height="15.15" transform="matrix(0.7258, -0.6856, 0.6856, 0.7258, -15.7408, -6.5805)" width="3.1" xlink:href="#sprite2"/>
      <use height="15.15" transform="matrix(1.0, 0.0, 0.0, 1.3642, -5.8, -17.2501)" width="3.1" xlink:href="#sprite2"/>
    </g>
    <g id="sprite2" transform="matrix(1.0, 0.0, 0.0, 1.0, 1.5, 15.1)">
      <use height="15.15" transform="matrix(1.0, 0.0, 0.0, 1.0, -1.5, -15.1)" width="3.1" xlink:href="#shape1"/>
    </g>
    <g id="shape1" transform="matrix(1.0, 0.0, 0.0, 1.0, 1.5, 15.1)">
      <path d="M0.3 -14.4 Q1.55 -10.3 1.6 -5.55 1.6 -2.65 1.15 0.05 L-1.05 0.05 Q-1.5 -2.65 -1.5 -5.55 -1.45 -10.3 -0.2 -14.4 L0.05 -15.1 0.3 -14.4" fill="#2800a3" fill-rule="evenodd" stroke="none"/>
    </g>
    <g id="sprite3" transform="matrix(1.0, 0.0, 0.0, 1.0, 2.45, 2.45)">
      <use height="4.95" transform="matrix(1.0, 0.0, 0.0, 1.0, -2.45, -2.45)" width="4.9" xlink:href="#shape2"/>
    </g>
    <g id="shape2" transform="matrix(1.0, 0.0, 0.0, 1.0, 2.45, 2.45)">
      <path d="M1.75 -1.75 Q2.45 -1.0 2.45 0.05 2.45 1.0 1.75 1.75 1.0 2.5 0.0 2.5 -1.0 2.5 -1.75 1.75 -2.45 1.05 -2.45 0.0 -2.45 -1.0 -1.75 -1.75 -1.0 -2.45 0.0 -2.45 1.0 -2.45 1.75 -1.75 M1.5 -0.2 Q1.5 -0.95 1.0 -1.45 0.45 -2.0 -0.25 -1.95 -1.0 -2.0 -1.5 -1.45 -2.0 -0.9 -2.0 -0.2 -2.0 0.5 -1.5 1.05 -1.0 1.55 -0.25 1.6 0.45 1.55 1.0 1.05 1.5 0.5 1.5 -0.2" fill="#000099" fill-rule="evenodd" stroke="none"/>
      <path d="M1.5 -0.2 Q1.5 0.5 1.0 1.05 0.45 1.55 -0.25 1.6 -1.0 1.55 -1.5 1.05 -2.0 0.5 -2.0 -0.2 -2.0 -0.9 -1.5 -1.45 -1.0 -2.0 -0.25 -1.95 0.45 -2.0 1.0 -1.45 1.5 -0.95 1.5 -0.2" fill="#3300ff" fill-rule="evenodd" stroke="none"/>
    </g>
  </defs>
</svg>
