<?xml version="1.0" encoding="UTF-8" standalone="no"?>
<svg xmlns:xlink="http://www.w3.org/1999/xlink" height="375.0px" width="500.0px" xmlns="http://www.w3.org/2000/svg">
  <g transform="matrix(1.0, 0.0, 0.0, 1.0, 0.0, 0.0)">
    <use height="50.95" transform="matrix(1.2063, 0.0, 0.0, 9.7722, -81.4532, -58.6094)" width="549.55" xlink:href="#shape0"/>
    <use height="284.95" transform="matrix(1.0, 0.0, 0.0, 1.0, -5.0, 43.65)" width="508.95" xlink:href="#shape1"/>
    <use height="259.0" transform="matrix(1.0, 0.0, 0.0, 1.0, 12.0, 58.0)" width="476.95" xlink:href="#shape2"/>
    <use height="50.95" transform="matrix(0.9636, 0.0, 0.0, 0.9627, -9.5332, -1.0669)" width="549.55" xlink:href="#shape0"/>
    <use height="50.95" transform="matrix(1.0, 0.0, 0.0, 1.0, -19.55, 327.0)" width="549.55" xlink:href="#shape0"/>
    <use height="384.0" transform="matrix(1.1243, 0.0, 0.0, 0.7604, -21.9956, 56.999)" width="506.95" xlink:href="#shape3"/>
    <use height="32.85" transform="matrix(-0.871, -0.4107, 0.4107, -0.871, 231.638, 213.7782)" width="126.25" xlink:href="#text0"/>
    <use height="55.4" transform="matrix(-0.7841, -0.5604, 0.5604, -0.7841, 142.5885, 133.8568)" width="154.55" xlink:href="#text1"/>
    <use height="27.75" transform="matrix(-0.7937, -0.5461, 0.5461, -0.7937, 172.3479, 141.9116)" width="19.7" xlink:href="#text2"/>
    <use height="32.85" transform="matrix(-0.871, -0.4107, 0.4107, -0.871, 228.288, 214.6782)" width="126.25" xlink:href="#text3"/>
    <use height="55.4" transform="matrix(-0.7841, -0.5604, 0.5604, -0.7841, 139.2385, 134.7068)" width="154.55" xlink:href="#text4"/>
    <use height="27.75" transform="matrix(-0.7937, -0.5461, 0.5461, -0.7937, 168.9479, 142.7616)" width="19.7" xlink:href="#text5"/>
  </g>
  <defs>
    <g id="shape0" transform="matrix(1.0, 0.0, 0.0, 1.0, 269.75, -138.55)">
      <path d="M279.8 189.5 L-269.75 189.5 -269.75 138.55 279.8 138.55 279.8 189.5" fill="#000000" fill-rule="evenodd" stroke="none"/>
    </g>
    <g id="shape1" transform="matrix(1.0, 0.0, 0.0, 1.0, 5.0, -43.65)">
      <path d="M503.95 43.65 L503.95 328.6 -5.0 328.6 -5.0 43.65 503.95 43.65" fill="url(#gradient0)" fill-rule="evenodd" stroke="none"/>
    </g>
    <linearGradient gradientTransform="matrix(-0.0036, 0.0676, -0.1736, -0.0093, 220.5, 301.15)" gradientUnits="userSpaceOnUse" id="gradient0" spreadMethod="pad" x1="-819.2" x2="819.2">
      <stop offset="0.0" stop-color="#165dad"/>
      <stop offset="1.0" stop-color="#002f62"/>
    </linearGradient>
    <g id="shape2" transform="matrix(1.0, 0.0, 0.0, 1.0, -12.0, -58.0)">
      <path d="M488.95 317.0 L12.0 317.0 12.0 58.0 488.95 58.0 488.95 317.0" fill="#000033" fill-opacity="0.2" fill-rule="evenodd" stroke="none"/>
    </g>
    <g id="shape3" transform="matrix(1.0, 0.0, 0.0, 1.0, 253.45, 192.0)">
      <path d="M-253.45 -192.0 L253.5 -192.0 253.5 192.0 -253.45 192.0 -253.45 -192.0" fill="#ffffff" fill-opacity="0.007843138" fill-rule="evenodd" stroke="none"/>
    </g>
    <g id="text0" transform="matrix(1.0, 0.0, 0.0, 1.0, -10.5, -6.9)">
      <g transform="matrix(1.0, 0.0, 0.0, 1.0, 7.5, 0.0)">
        <use fill="#000000" height="32.85" transform="matrix(0.8789, 0.0, 0.0, 0.8789, 0.0, 39.0)" width="126.25" xlink:href="#font_TradeGothic_CondEighteen_B0"/>
        <use fill="#000000" height="32.85" transform="matrix(0.8789, 0.0, 0.0, 0.8789, 21.9, 39.0)" width="126.25" xlink:href="#font_TradeGothic_CondEighteen_e0"/>
        <use fill="#000000" height="32.85" transform="matrix(0.8789, 0.0, 0.0, 0.8789, 41.3, 39.0)" width="126.25" xlink:href="#font_TradeGothic_CondEighteen_c0"/>
        <use fill="#000000" height="32.85" transform="matrix(0.8789, 0.0, 0.0, 0.8789, 60.65, 39.0)" width="126.25" xlink:href="#font_TradeGothic_CondEighteen_o0"/>
        <use fill="#000000" height="32.85" transform="matrix(0.8789, 0.0, 0.0, 0.8789, 80.0, 39.0)" width="126.25" xlink:href="#font_TradeGothic_CondEighteen_m0"/>
        <use fill="#000000" height="32.85" transform="matrix(0.8789, 0.0, 0.0, 0.8789, 109.4, 39.0)" width="126.25" xlink:href="#font_TradeGothic_CondEighteen_e0"/>
      </g>
    </g>
    <g id="font_TradeGothic_CondEighteen_B0">
      <path d="M3.3 0.0 L3.3 0.0 14.45 0.0 Q20.3 -0.1 22.8 -3.15 25.35 -6.15 25.3 -10.85 25.15 -17.7 19.65 -19.6 22.25 -20.4 23.45 -22.5 24.65 -24.6 24.65 -27.05 24.85 -36.75 13.75 -36.95 L3.3 -36.95 3.3 0.0 3.3 0.0 M10.35 -31.6 L10.35 -31.6 13.0 -31.6 Q17.65 -31.55 17.6 -26.45 17.25 -21.8 12.9 -21.75 L10.35 -21.75 10.35 -31.6 10.35 -31.6 M10.35 -16.4 L10.35 -16.4 12.6 -16.4 Q18.5 -16.4 18.25 -10.9 18.5 -5.4 13.25 -5.35 L10.35 -5.35 10.35 -16.4 10.35 -16.4" fill-rule="evenodd" stroke="none"/>
    </g>
    <g id="font_TradeGothic_CondEighteen_e0">
      <path d="M22.45 -17.8 L22.45 -17.8 Q22.5 -22.3 20.25 -25.1 17.95 -27.9 12.55 -28.0 7.15 -27.9 4.85 -25.1 2.6 -22.3 2.65 -17.8 L2.65 -9.7 Q2.6 -5.25 4.85 -2.45 7.15 0.35 12.55 0.4 17.85 0.35 20.15 -2.35 22.45 -5.0 22.45 -9.35 L16.05 -9.35 16.05 -8.75 Q16.0 -4.25 12.55 -4.4 9.1 -4.25 9.05 -8.75 L9.05 -12.6 22.45 -12.6 22.45 -17.8 22.45 -17.8 M9.05 -17.4 L9.05 -17.4 9.05 -18.8 Q9.1 -23.3 12.55 -23.2 16.0 -23.3 16.05 -18.8 L16.05 -17.4 9.05 -17.4 9.05 -17.4" fill-rule="evenodd" stroke="none"/>
    </g>
    <g id="font_TradeGothic_CondEighteen_c0">
      <path d="M22.45 -18.05 L22.45 -18.05 Q22.45 -22.5 20.15 -25.2 17.85 -27.9 12.55 -28.0 7.15 -27.9 4.85 -25.1 2.6 -22.3 2.65 -17.75 L2.65 -9.8 Q2.6 -5.25 4.85 -2.45 7.15 0.35 12.55 0.4 17.95 0.35 20.25 -2.45 22.5 -5.25 22.45 -9.8 L22.45 -10.5 16.05 -10.5 16.05 -8.8 Q16.0 -4.25 12.55 -4.4 9.1 -4.25 9.05 -8.8 L9.05 -18.75 Q9.1 -23.3 12.55 -23.2 16.0 -23.3 16.05 -18.75 L16.05 -18.05 22.45 -18.05 22.45 -18.05" fill-rule="evenodd" stroke="none"/>
    </g>
    <g id="font_TradeGothic_CondEighteen_o0">
      <path d="M2.65 -9.8 L2.65 -9.8 Q2.6 -5.25 4.85 -2.45 7.15 0.35 12.55 0.4 17.95 0.35 20.25 -2.45 22.5 -5.25 22.45 -9.8 L22.45 -17.75 Q22.5 -22.3 20.25 -25.1 17.95 -27.9 12.55 -28.0 7.15 -27.9 4.85 -25.1 2.6 -22.3 2.65 -17.75 L2.65 -9.8 2.65 -9.8 M16.05 -8.8 L16.05 -8.8 Q16.0 -4.25 12.55 -4.4 9.1 -4.25 9.05 -8.8 L9.05 -18.75 Q9.1 -23.3 12.55 -23.2 16.0 -23.3 16.05 -18.75 L16.05 -8.8 16.05 -8.8" fill-rule="evenodd" stroke="none"/>
    </g>
    <g id="font_TradeGothic_CondEighteen_m0">
      <path d="M22.0 0.0 L22.0 0.0 22.0 -21.45 Q24.0 -23.05 25.95 -23.2 28.0 -23.25 28.15 -21.2 L28.15 0.0 34.55 0.0 34.55 -22.1 Q34.55 -27.75 28.55 -28.0 26.9 -28.1 25.35 -27.45 23.8 -26.75 21.6 -24.8 20.65 -26.4 19.5 -27.2 18.35 -28.0 16.05 -28.0 13.9 -28.05 12.45 -27.2 L9.15 -24.8 9.15 -27.55 3.1 -27.55 3.1 0.0 9.45 0.0 9.45 -21.45 Q11.55 -23.05 13.45 -23.2 15.45 -23.25 15.65 -21.2 L15.65 0.0 22.0 0.0 22.0 0.0" fill-rule="evenodd" stroke="none"/>
    </g>
    <g id="text1" transform="matrix(1.0, 0.0, 0.0, 1.0, 6.45, -10.85)">
      <g transform="matrix(1.0, 0.0, 0.0, 1.0, -7.6, 0.0)">
        <use fill="#000000" height="55.4" transform="matrix(1.4648, 0.0, 0.0, 1.4648, 0.0, 66.0)" width="154.55" xlink:href="#font_TradeGothic_CondEighteen_T0"/>
        <use fill="#000000" height="55.4" transform="matrix(1.4648, 0.0, 0.0, 1.4648, 28.45, 66.0)" width="154.55" xlink:href="#font_TradeGothic_CondEighteen_O0"/>
        <use fill="#000000" height="55.4" transform="matrix(1.4648, 0.0, 0.0, 1.4648, 65.25, 66.0)" width="154.55" xlink:href="#font_TradeGothic_CondEighteen_O0"/>
        <use fill="#000000" height="55.4" transform="matrix(1.4648, 0.0, 0.0, 1.4648, 102.05, 66.0)" width="154.55" xlink:href="#font_TradeGothic_CondEighteen_N0"/>
        <use fill="#000000" height="55.4" transform="matrix(1.4648, 0.0, 0.0, 1.4648, 138.85, 66.0)" width="154.55" xlink:href="#font_TradeGothic_CondEighteen__0"/>
      </g>
    </g>
    <g id="font_TradeGothic_CondEighteen_T0">
      <path d="M7.5 0.0 L7.5 0.0 14.55 0.0 14.55 -31.4 21.3 -31.4 21.3 -37.0 0.75 -37.0 0.75 -31.4 7.5 -31.4 7.5 0.0 7.5 0.0" fill-rule="evenodd" stroke="none"/>
    </g>
    <g id="font_TradeGothic_CondEighteen_O0">
      <path d="M10.35 -27.75 L10.35 -27.75 Q10.1 -31.8 14.1 -31.8 18.1 -31.8 17.85 -27.75 L17.85 -9.25 Q18.1 -5.15 14.1 -5.2 10.1 -5.15 10.35 -9.25 L10.35 -27.75 10.35 -27.75 M3.3 -9.1 L3.3 -9.1 Q3.3 -5.1 5.95 -2.4 8.6 0.3 14.1 0.4 19.6 0.3 22.25 -2.4 24.9 -5.1 24.85 -9.1 L24.85 -27.9 Q24.9 -31.9 22.25 -34.6 19.6 -37.3 14.1 -37.4 8.6 -37.3 5.95 -34.6 3.3 -31.9 3.3 -27.9 L3.3 -9.1 3.3 -9.1" fill-rule="evenodd" stroke="none"/>
    </g>
    <g id="font_TradeGothic_CondEighteen_N0">
      <path d="M9.7 0.0 L9.7 0.0 9.7 -23.1 9.8 -23.1 18.7 0.0 24.85 0.0 24.85 -37.0 18.5 -37.0 18.5 -15.8 18.4 -15.8 9.85 -37.0 3.3 -37.0 3.3 0.0 9.7 0.0 9.7 0.0" fill-rule="evenodd" stroke="none"/>
    </g>
    <g id="font_TradeGothic_CondEighteen__0">
      <path d="M11.2 0.0 L11.2 0.0 11.2 -6.05 4.45 -6.05 4.45 0.0 11.2 0.0 11.2 0.0 M5.45 -10.85 L5.45 -10.85 10.15 -10.85 11.45 -36.95 4.2 -36.95 5.45 -10.85 5.45 -10.85" fill-rule="evenodd" stroke="none"/>
    </g>
    <g id="text2" transform="matrix(1.0, 0.0, 0.0, 1.0, -63.1, -16.35)">
      <g transform="matrix(1.0, 0.0, 0.0, 1.0, 61.05, 0.0)">
        <use fill="#000000" height="27.75" transform="matrix(0.9766, 0.0, 0.0, 0.9766, 0.0, 44.0)" width="19.7" xlink:href="#font_TradeGothic_CondEighteen_a0"/>
      </g>
    </g>
    <g id="font_TradeGothic_CondEighteen_a0">
      <path d="M15.4 -6.95 L15.4 -6.95 Q13.85 -4.65 11.25 -4.4 8.4 -4.3 8.35 -6.9 8.3 -8.65 9.75 -10.3 11.25 -12.0 15.4 -14.15 L15.4 -6.95 15.4 -6.95 M8.8 -19.35 L8.8 -19.35 Q8.55 -23.0 12.35 -23.2 15.45 -23.15 15.4 -19.7 L15.4 -18.1 Q8.7 -16.05 5.35 -13.2 2.0 -10.35 2.0 -5.85 2.0 -3.15 3.6 -1.4 5.25 0.35 8.5 0.4 12.6 0.55 15.75 -2.2 L16.1 0.0 22.2 0.0 Q21.85 -1.55 21.8 -2.95 L21.8 -20.45 Q21.55 -28.0 12.6 -28.0 3.35 -27.85 2.45 -19.35 L8.8 -19.35 8.8 -19.35" fill-rule="evenodd" stroke="none"/>
    </g>
    <g id="text3" transform="matrix(1.0, 0.0, 0.0, 1.0, -10.5, -6.9)">
      <g transform="matrix(1.0, 0.0, 0.0, 1.0, 7.5, 0.0)">
        <use fill="#ffffff" height="32.85" transform="matrix(0.8789, 0.0, 0.0, 0.8789, 0.0, 39.0)" width="126.25" xlink:href="#font_TradeGothic_CondEighteen_B0"/>
        <use fill="#ffffff" height="32.85" transform="matrix(0.8789, 0.0, 0.0, 0.8789, 21.9, 39.0)" width="126.25" xlink:href="#font_TradeGothic_CondEighteen_e0"/>
        <use fill="#ffffff" height="32.85" transform="matrix(0.8789, 0.0, 0.0, 0.8789, 41.3, 39.0)" width="126.25" xlink:href="#font_TradeGothic_CondEighteen_c0"/>
        <use fill="#ffffff" height="32.85" transform="matrix(0.8789, 0.0, 0.0, 0.8789, 60.65, 39.0)" width="126.25" xlink:href="#font_TradeGothic_CondEighteen_o0"/>
        <use fill="#ffffff" height="32.85" transform="matrix(0.8789, 0.0, 0.0, 0.8789, 80.0, 39.0)" width="126.25" xlink:href="#font_TradeGothic_CondEighteen_m0"/>
        <use fill="#ffffff" height="32.85" transform="matrix(0.8789, 0.0, 0.0, 0.8789, 109.4, 39.0)" width="126.25" xlink:href="#font_TradeGothic_CondEighteen_e0"/>
      </g>
    </g>
    <g id="text4" transform="matrix(1.0, 0.0, 0.0, 1.0, 6.45, -10.85)">
      <g transform="matrix(1.0, 0.0, 0.0, 1.0, -7.6, 0.0)">
        <use fill="#ffffff" height="55.4" transform="matrix(1.4648, 0.0, 0.0, 1.4648, 0.0, 66.0)" width="154.55" xlink:href="#font_TradeGothic_CondEighteen_T0"/>
        <use fill="#ffffff" height="55.4" transform="matrix(1.4648, 0.0, 0.0, 1.4648, 28.45, 66.0)" width="154.55" xlink:href="#font_TradeGothic_CondEighteen_O0"/>
        <use fill="#ffffff" height="55.4" transform="matrix(1.4648, 0.0, 0.0, 1.4648, 65.25, 66.0)" width="154.55" xlink:href="#font_TradeGothic_CondEighteen_O0"/>
        <use fill="#ffffff" height="55.4" transform="matrix(1.4648, 0.0, 0.0, 1.4648, 102.05, 66.0)" width="154.55" xlink:href="#font_TradeGothic_CondEighteen_N0"/>
        <use fill="#ffffff" height="55.4" transform="matrix(1.4648, 0.0, 0.0, 1.4648, 138.85, 66.0)" width="154.55" xlink:href="#font_TradeGothic_CondEighteen__0"/>
      </g>
    </g>
    <g id="text5" transform="matrix(1.0, 0.0, 0.0, 1.0, -63.1, -16.35)">
      <g transform="matrix(1.0, 0.0, 0.0, 1.0, 61.05, 0.0)">
        <use fill="#ffffff" height="27.75" transform="matrix(0.9766, 0.0, 0.0, 0.9766, 0.0, 44.0)" width="19.7" xlink:href="#font_TradeGothic_CondEighteen_a0"/>
      </g>
    </g>
  </defs>
</svg>
