<?xml version="1.0" encoding="UTF-8" standalone="no"?>
<svg xmlns:xlink="http://www.w3.org/1999/xlink" height="375.0px" width="500.0px" xmlns="http://www.w3.org/2000/svg">
  <g transform="matrix(1.0, 0.0, 0.0, 1.0, 0.0, 0.0)">
    <use height="50.95" transform="matrix(1.2063, 0.0, 0.0, 9.7722, -81.4532, -58.6094)" width="549.55" xlink:href="#shape0"/>
    <use height="284.95" transform="matrix(1.0, 0.0, 0.0, 1.0, -5.0, 43.65)" width="508.95" xlink:href="#shape1"/>
    <use height="259.0" transform="matrix(1.0, 0.0, 0.0, 1.0, 12.0, 58.0)" width="476.95" xlink:href="#shape2"/>
    <use height="50.95" transform="matrix(0.9636, 0.0, 0.0, 0.9627, -9.5332, -1.0669)" width="549.55" xlink:href="#shape0"/>
    <use height="50.95" transform="matrix(1.0, 0.0, 0.0, 1.0, -19.55, 327.0)" width="549.55" xlink:href="#shape0"/>
    <use height="384.0" transform="matrix(1.1243, 0.0, 0.0, 0.7604, -21.9956, 56.999)" width="506.95" xlink:href="#shape3"/>
    <use height="40.25" transform="matrix(0.0443, -0.0141, 0.0141, 0.0443, 240.449, 187.3323)" width="115.55" xlink:href="#text0"/>
    <use height="53.85" transform="matrix(0.0502, -0.0053, 0.0053, 0.0502, 238.8048, 190.3988)" width="396.6" xlink:href="#text1"/>
    <use height="35.8" transform="matrix(0.05, -0.0062, 0.0062, 0.05, 243.3309, 187.8016)" width="170.7" xlink:href="#text2"/>
    <use height="40.25" transform="matrix(0.0443, -0.0141, 0.0141, 0.0443, 240.549, 187.2323)" width="115.55" xlink:href="#text3"/>
    <use height="53.85" transform="matrix(0.0502, -0.0053, 0.0053, 0.0502, 238.9048, 190.2988)" width="396.6" xlink:href="#text4"/>
    <use height="35.8" transform="matrix(0.05, -0.0062, 0.0062, 0.05, 243.4309, 187.7016)" width="170.7" xlink:href="#text5"/>
  </g>
  <defs>
    <g id="shape0" transform="matrix(1.0, 0.0, 0.0, 1.0, 269.75, -138.55)">
      <path d="M279.8 189.5 L-269.75 189.5 -269.75 138.55 279.8 138.55 279.8 189.5" fill="#000000" fill-rule="evenodd" stroke="none"/>
    </g>
    <g id="shape1" transform="matrix(1.0, 0.0, 0.0, 1.0, 5.0, -43.65)">
      <path d="M503.95 43.65 L503.95 328.6 -5.0 328.6 -5.0 43.65 503.95 43.65" fill="url(#gradient0)" fill-rule="evenodd" stroke="none"/>
    </g>
    <linearGradient gradientTransform="matrix(-0.0036, 0.0676, -0.1736, -0.0093, 220.5, 301.15)" gradientUnits="userSpaceOnUse" id="gradient0" spreadMethod="pad" x1="-819.2" x2="819.2">
      <stop offset="0.0" stop-color="#165dad"/>
      <stop offset="1.0" stop-color="#002f62"/>
    </linearGradient>
    <g id="shape2" transform="matrix(1.0, 0.0, 0.0, 1.0, -12.0, -58.0)">
      <path d="M488.95 317.0 L12.0 317.0 12.0 58.0 488.95 58.0 488.95 317.0" fill="#000033" fill-opacity="0.2" fill-rule="evenodd" stroke="none"/>
    </g>
    <g id="shape3" transform="matrix(1.0, 0.0, 0.0, 1.0, 253.45, 192.0)">
      <path d="M-253.45 -192.0 L253.5 -192.0 253.5 192.0 -253.45 192.0 -253.45 -192.0" fill="#ffffff" fill-opacity="0.007843138" fill-rule="evenodd" stroke="none"/>
    </g>
    <g id="text0" transform="matrix(1.0, 0.0, 0.0, 1.0, -15.85, -6.9)">
      <g transform="matrix(1.0, 0.0, 0.0, 1.0, 12.9, 0.0)">
        <use fill="#000000" fill-opacity="0.19607843" height="40.25" transform="matrix(0.8789, 0.0, 0.0, 0.8789, 0.0, 39.0)" width="115.55" xlink:href="#font_TradeGothic_CondEighteen_E0"/>
        <use fill="#000000" fill-opacity="0.19607843" height="40.25" transform="matrix(0.8789, 0.0, 0.0, 0.8789, 19.35, 39.0)" width="115.55" xlink:href="#font_TradeGothic_CondEighteen_x0"/>
        <use fill="#000000" fill-opacity="0.19607843" height="40.25" transform="matrix(0.8789, 0.0, 0.0, 0.8789, 36.25, 39.0)" width="115.55" xlink:href="#font_TradeGothic_CondEighteen_p0"/>
        <use fill="#000000" fill-opacity="0.19607843" height="40.25" transform="matrix(0.8789, 0.0, 0.0, 0.8789, 55.65, 39.0)" width="115.55" xlink:href="#font_TradeGothic_CondEighteen_l0"/>
        <use fill="#000000" fill-opacity="0.19607843" height="40.25" transform="matrix(0.8789, 0.0, 0.0, 0.8789, 65.0, 39.0)" width="115.55" xlink:href="#font_TradeGothic_CondEighteen_o0"/>
        <use fill="#000000" fill-opacity="0.19607843" height="40.25" transform="matrix(0.8789, 0.0, 0.0, 0.8789, 84.35, 39.0)" width="115.55" xlink:href="#font_TradeGothic_CondEighteen_r0"/>
        <use fill="#000000" fill-opacity="0.19607843" height="40.25" transform="matrix(0.8789, 0.0, 0.0, 0.8789, 98.7, 39.0)" width="115.55" xlink:href="#font_TradeGothic_CondEighteen_e0"/>
      </g>
    </g>
    <g id="font_TradeGothic_CondEighteen_E0">
      <path d="M22.85 0.0 L22.85 0.0 22.85 -5.6 10.35 -5.6 10.35 -16.4 19.35 -16.4 19.35 -22.0 10.35 -22.0 10.35 -31.4 22.05 -31.4 22.05 -37.0 3.3 -37.0 3.3 0.0 22.85 0.0 22.85 0.0" fill-rule="evenodd" stroke="none"/>
    </g>
    <g id="font_TradeGothic_CondEighteen_x0">
      <path d="M0.7 0.0 L0.7 0.0 7.25 0.0 10.95 -9.3 11.05 -9.3 14.75 0.0 21.35 0.0 14.4 -14.7 21.0 -27.6 14.4 -27.6 11.0 -19.9 7.8 -27.6 1.2 -27.6 7.5 -14.6 0.7 0.0 0.7 0.0" fill-rule="evenodd" stroke="none"/>
    </g>
    <g id="font_TradeGothic_CondEighteen_p0">
      <path d="M9.45 -21.8 L9.45 -21.8 Q11.25 -23.1 13.05 -23.2 14.35 -23.25 15.2 -22.35 16.05 -21.45 16.05 -18.8 L16.05 -8.75 Q16.05 -6.15 15.2 -5.25 14.35 -4.3 13.05 -4.4 11.25 -4.5 9.45 -5.8 L9.45 -21.8 9.45 -21.8 M3.1 -27.6 L3.1 -27.6 3.1 8.8 9.45 8.8 9.45 -2.5 Q11.25 -1.1 12.6 -0.35 14.0 0.4 15.95 0.4 22.2 0.3 22.45 -7.35 L22.45 -20.45 Q22.2 -27.85 15.95 -28.0 13.7 -28.0 12.2 -27.2 10.75 -26.35 9.25 -24.55 L9.15 -24.55 9.15 -27.6 3.1 -27.6 3.1 -27.6" fill-rule="evenodd" stroke="none"/>
    </g>
    <g id="font_TradeGothic_CondEighteen_l0">
      <path d="M9.45 0.0 L9.45 0.0 9.45 -37.0 3.1 -37.0 3.1 0.0 9.45 0.0 9.45 0.0" fill-rule="evenodd" stroke="none"/>
    </g>
    <g id="font_TradeGothic_CondEighteen_o0">
      <path d="M2.65 -9.8 L2.65 -9.8 Q2.6 -5.25 4.85 -2.45 7.15 0.35 12.55 0.4 17.95 0.35 20.25 -2.45 22.5 -5.25 22.45 -9.8 L22.45 -17.75 Q22.5 -22.3 20.25 -25.1 17.95 -27.9 12.55 -28.0 7.15 -27.9 4.85 -25.1 2.6 -22.3 2.65 -17.75 L2.65 -9.8 2.65 -9.8 M16.05 -8.8 L16.05 -8.8 Q16.0 -4.25 12.55 -4.4 9.1 -4.25 9.05 -8.8 L9.05 -18.75 Q9.1 -23.3 12.55 -23.2 16.0 -23.3 16.05 -18.75 L16.05 -8.8 16.05 -8.8" fill-rule="evenodd" stroke="none"/>
    </g>
    <g id="font_TradeGothic_CondEighteen_r0">
      <path d="M9.45 0.0 L9.45 0.0 9.45 -18.75 Q9.55 -20.6 10.8 -21.5 12.05 -22.4 13.7 -22.4 L17.75 -21.85 17.75 -27.95 16.45 -27.95 Q11.8 -27.85 9.3 -24.15 L9.2 -24.15 9.2 -27.6 3.1 -27.6 3.1 0.0 9.45 0.0 9.45 0.0" fill-rule="evenodd" stroke="none"/>
    </g>
    <g id="font_TradeGothic_CondEighteen_e0">
      <path d="M22.45 -17.8 L22.45 -17.8 Q22.5 -22.3 20.25 -25.1 17.95 -27.9 12.55 -28.0 7.15 -27.9 4.85 -25.1 2.6 -22.3 2.65 -17.8 L2.65 -9.7 Q2.6 -5.25 4.85 -2.45 7.15 0.35 12.55 0.4 17.85 0.35 20.15 -2.35 22.45 -5.0 22.45 -9.35 L16.05 -9.35 16.05 -8.75 Q16.0 -4.25 12.55 -4.4 9.1 -4.25 9.05 -8.75 L9.05 -12.6 22.45 -12.6 22.45 -17.8 22.45 -17.8 M9.05 -17.4 L9.05 -17.4 9.05 -18.8 Q9.1 -23.3 12.55 -23.2 16.0 -23.3 16.05 -18.8 L16.05 -17.4 9.05 -17.4 9.05 -17.4" fill-rule="evenodd" stroke="none"/>
    </g>
    <g id="text1" transform="matrix(1.0, 0.0, 0.0, 1.0, 125.6, -10.6)">
      <g transform="matrix(1.0, 0.0, 0.0, 1.0, -130.4, 0.0)">
        <use fill="#000000" fill-opacity="0.19607843" height="53.85" transform="matrix(1.4258, 0.0, 0.0, 1.4258, 0.0, 64.0)" width="396.6" xlink:href="#font_TradeGothic_CondEighteen_O0"/>
        <use fill="#000000" fill-opacity="0.19607843" height="53.85" transform="matrix(1.4258, 0.0, 0.0, 1.4258, 35.8, 64.0)" width="396.6" xlink:href="#font_TradeGothic_CondEighteen_N0"/>
        <use fill="#000000" fill-opacity="0.19607843" height="53.85" transform="matrix(1.4258, 0.0, 0.0, 1.4258, 71.6, 64.0)" width="396.6" xlink:href="#font_TradeGothic_CondEighteen_L0"/>
        <use fill="#000000" fill-opacity="0.19607843" height="53.85" transform="matrix(1.4258, 0.0, 0.0, 1.4258, 99.3, 64.0)" width="396.6" xlink:href="#font_TradeGothic_CondEighteen_I0"/>
        <use fill="#000000" fill-opacity="0.19607843" height="53.85" transform="matrix(1.4258, 0.0, 0.0, 1.4258, 118.9, 64.0)" width="396.6" xlink:href="#font_TradeGothic_CondEighteen_N0"/>
        <use fill="#000000" fill-opacity="0.19607843" height="53.85" transform="matrix(1.4258, 0.0, 0.0, 1.4258, 154.7, 64.0)" width="396.6" xlink:href="#font_TradeGothic_CondEighteen_E0"/>
        <use fill="#000000" fill-opacity="0.19607843" height="53.85" transform="matrix(1.4258, 0.0, 0.0, 1.4258, 201.9, 64.0)" width="396.6" xlink:href="#font_TradeGothic_CondEighteen_W0"/>
        <use fill="#000000" fill-opacity="0.19607843" height="53.85" transform="matrix(1.4258, 0.0, 0.0, 1.4258, 249.9, 64.0)" width="396.6" xlink:href="#font_TradeGothic_CondEighteen_O0"/>
        <use fill="#000000" fill-opacity="0.19607843" height="53.85" transform="matrix(1.4258, 0.0, 0.0, 1.4258, 285.7, 64.0)" width="396.6" xlink:href="#font_TradeGothic_CondEighteen_R0"/>
        <use fill="#000000" fill-opacity="0.19607843" height="53.85" transform="matrix(1.4258, 0.0, 0.0, 1.4258, 321.5, 64.0)" width="396.6" xlink:href="#font_TradeGothic_CondEighteen_L0"/>
        <use fill="#000000" fill-opacity="0.19607843" height="53.85" transform="matrix(1.4258, 0.0, 0.0, 1.4258, 349.2, 64.0)" width="396.6" xlink:href="#font_TradeGothic_CondEighteen_D0"/>
        <use fill="#000000" fill-opacity="0.19607843" height="53.85" transform="matrix(1.4258, 0.0, 0.0, 1.4258, 385.0, 64.0)" width="396.6" xlink:href="#font_TradeGothic_CondEighteen__1"/>
      </g>
    </g>
    <g id="font_TradeGothic_CondEighteen_O0">
      <path d="M10.35 -27.75 L10.35 -27.75 Q10.1 -31.8 14.1 -31.8 18.1 -31.8 17.85 -27.75 L17.85 -9.25 Q18.1 -5.15 14.1 -5.2 10.1 -5.15 10.35 -9.25 L10.35 -27.75 10.35 -27.75 M3.3 -9.1 L3.3 -9.1 Q3.3 -5.1 5.95 -2.4 8.6 0.3 14.1 0.4 19.6 0.3 22.25 -2.4 24.9 -5.1 24.85 -9.1 L24.85 -27.9 Q24.9 -31.9 22.25 -34.6 19.6 -37.3 14.1 -37.4 8.6 -37.3 5.95 -34.6 3.3 -31.9 3.3 -27.9 L3.3 -9.1 3.3 -9.1" fill-rule="evenodd" stroke="none"/>
    </g>
    <g id="font_TradeGothic_CondEighteen_N0">
      <path d="M9.7 0.0 L9.7 0.0 9.7 -23.1 9.8 -23.1 18.7 0.0 24.85 0.0 24.85 -37.0 18.5 -37.0 18.5 -15.8 18.4 -15.8 9.85 -37.0 3.3 -37.0 3.3 0.0 9.7 0.0 9.7 0.0" fill-rule="evenodd" stroke="none"/>
    </g>
    <g id="font_TradeGothic_CondEighteen_L0">
      <path d="M21.1 0.0 L21.1 0.0 21.1 -5.6 10.15 -5.6 10.15 -37.0 3.1 -37.0 3.1 0.0 21.1 0.0 21.1 0.0" fill-rule="evenodd" stroke="none"/>
    </g>
    <g id="font_TradeGothic_CondEighteen_I0">
      <path d="M11.45 0.0 L11.45 0.0 11.45 -37.0 4.4 -37.0 4.4 0.0 11.45 0.0 11.45 0.0" fill-rule="evenodd" stroke="none"/>
    </g>
    <g id="font_TradeGothic_CondEighteen_W0">
      <path d="M10.95 -13.4 L10.95 -13.4 10.85 -13.4 6.55 -37.0 0.05 -37.0 7.75 0.0 13.6 0.0 18.35 -24.45 18.45 -24.45 23.5 0.0 29.35 0.0 36.5 -37.0 30.0 -37.0 26.1 -13.4 26.0 -13.4 21.25 -37.0 15.5 -37.0 10.95 -13.4 10.95 -13.4" fill-rule="evenodd" stroke="none"/>
    </g>
    <g id="font_TradeGothic_CondEighteen_R0">
      <path d="M10.35 -15.0 L10.35 -15.0 14.0 -15.15 18.95 0.0 26.1 0.0 20.15 -16.65 Q22.05 -17.3 23.5 -19.5 25.0 -21.65 25.1 -26.0 25.1 -31.85 22.1 -34.45 19.1 -37.0 13.2 -36.95 L3.3 -36.95 3.3 0.0 10.35 0.0 10.35 -15.0 10.35 -15.0 M10.35 -31.6 L10.35 -31.6 12.85 -31.6 Q15.65 -31.65 16.85 -30.45 18.1 -29.2 18.05 -26.0 18.1 -22.8 16.85 -21.55 15.65 -20.3 12.85 -20.35 L10.35 -20.35 10.35 -31.6 10.35 -31.6" fill-rule="evenodd" stroke="none"/>
    </g>
    <g id="font_TradeGothic_CondEighteen_D0">
      <path d="M3.3 0.0 L3.3 0.0 13.75 0.0 Q24.75 0.05 24.85 -11.25 L24.85 -25.75 Q24.75 -37.0 13.75 -36.95 L3.3 -36.95 3.3 0.0 3.3 0.0 M10.35 -31.6 L10.35 -31.6 12.8 -31.6 Q18.1 -31.95 17.85 -26.5 L17.85 -10.5 Q18.1 -5.05 12.8 -5.35 L10.35 -5.35 10.35 -31.6 10.35 -31.6" fill-rule="evenodd" stroke="none"/>
    </g>
    <g id="font_TradeGothic_CondEighteen__1">
      <path d="M11.2 0.0 L11.2 0.0 11.2 -6.05 4.45 -6.05 4.45 0.0 11.2 0.0 11.2 0.0 M5.45 -10.85 L5.45 -10.85 10.15 -10.85 11.45 -36.95 4.2 -36.95 5.45 -10.85 5.45 -10.85" fill-rule="evenodd" stroke="none"/>
    </g>
    <g id="text2" transform="matrix(1.0, 0.0, 0.0, 1.0, 12.3, -7.5)">
      <g transform="matrix(1.0, 0.0, 0.0, 1.0, -14.25, 0.0)">
        <use fill="#000000" fill-opacity="0.19607843" height="35.8" transform="matrix(0.957, 0.0, 0.0, 0.957, 0.0, 43.0)" width="170.7" xlink:href="#font_TradeGothic_CondEighteen_a0"/>
        <use fill="#000000" fill-opacity="0.19607843" height="35.8" transform="matrix(0.957, 0.0, 0.0, 0.957, 31.65, 43.0)" width="170.7" xlink:href="#font_TradeGothic_CondEighteen_m0"/>
        <use fill="#000000" fill-opacity="0.19607843" height="35.8" transform="matrix(0.957, 0.0, 0.0, 0.957, 63.8, 43.0)" width="170.7" xlink:href="#font_TradeGothic_CondEighteen_a0"/>
        <use fill="#000000" fill-opacity="0.19607843" height="35.8" transform="matrix(0.957, 0.0, 0.0, 0.957, 85.05, 43.0)" width="170.7" xlink:href="#font_TradeGothic_CondEighteen_s0"/>
        <use fill="#000000" fill-opacity="0.19607843" height="35.8" transform="matrix(0.957, 0.0, 0.0, 0.957, 103.6, 43.0)" width="170.7" xlink:href="#font_TradeGothic_CondEighteen_s0"/>
        <use fill="#000000" fill-opacity="0.19607843" height="35.8" transform="matrix(0.957, 0.0, 0.0, 0.957, 122.15, 43.0)" width="170.7" xlink:href="#font_TradeGothic_CondEighteen_i0"/>
        <use fill="#000000" fill-opacity="0.19607843" height="35.8" transform="matrix(0.957, 0.0, 0.0, 0.957, 132.55, 43.0)" width="170.7" xlink:href="#font_TradeGothic_CondEighteen_v0"/>
        <use fill="#000000" fill-opacity="0.19607843" height="35.8" transform="matrix(0.957, 0.0, 0.0, 0.957, 151.1, 43.0)" width="170.7" xlink:href="#font_TradeGothic_CondEighteen_e0"/>
      </g>
    </g>
    <g id="font_TradeGothic_CondEighteen_a0">
      <path d="M15.4 -6.95 L15.4 -6.95 Q13.85 -4.65 11.25 -4.4 8.4 -4.3 8.35 -6.9 8.3 -8.65 9.75 -10.3 11.25 -12.0 15.4 -14.15 L15.4 -6.95 15.4 -6.95 M8.8 -19.35 L8.8 -19.35 Q8.55 -23.0 12.35 -23.2 15.45 -23.15 15.4 -19.7 L15.4 -18.1 Q8.7 -16.05 5.35 -13.2 2.0 -10.35 2.0 -5.85 2.0 -3.15 3.6 -1.4 5.25 0.35 8.5 0.4 12.6 0.55 15.75 -2.2 L16.1 0.0 22.2 0.0 Q21.85 -1.55 21.8 -2.95 L21.8 -20.45 Q21.55 -28.0 12.6 -28.0 3.35 -27.85 2.45 -19.35 L8.8 -19.35 8.8 -19.35" fill-rule="evenodd" stroke="none"/>
    </g>
    <g id="font_TradeGothic_CondEighteen_m0">
      <path d="M22.0 0.0 L22.0 0.0 22.0 -21.45 Q24.0 -23.05 25.95 -23.2 28.0 -23.25 28.15 -21.2 L28.15 0.0 34.55 0.0 34.55 -22.1 Q34.55 -27.75 28.55 -28.0 26.9 -28.1 25.35 -27.45 23.8 -26.75 21.6 -24.8 20.65 -26.4 19.5 -27.2 18.35 -28.0 16.05 -28.0 13.9 -28.05 12.45 -27.2 L9.15 -24.8 9.15 -27.55 3.1 -27.55 3.1 0.0 9.45 0.0 9.45 -21.45 Q11.55 -23.05 13.45 -23.2 15.45 -23.25 15.65 -21.2 L15.65 0.0 22.0 0.0 22.0 0.0" fill-rule="evenodd" stroke="none"/>
    </g>
    <g id="font_TradeGothic_CondEighteen_s0">
      <path d="M19.9 -20.65 L19.9 -20.65 Q19.15 -23.9 16.75 -25.9 14.35 -27.95 10.7 -28.0 7.1 -27.95 4.7 -25.9 2.35 -23.9 2.25 -20.6 2.45 -16.95 5.25 -14.75 8.05 -12.55 10.85 -10.75 13.7 -9.0 13.9 -6.75 13.7 -4.45 11.25 -4.4 9.25 -4.45 8.35 -5.65 7.45 -6.9 7.2 -8.65 L1.55 -7.3 Q3.0 0.15 11.2 0.4 15.05 0.4 17.5 -1.5 19.95 -3.35 20.0 -7.05 19.8 -11.0 17.0 -13.3 14.2 -15.65 11.35 -17.3 8.55 -19.0 8.35 -21.05 8.5 -23.15 10.95 -23.2 13.8 -23.15 14.4 -19.8 L19.9 -20.65 19.9 -20.65" fill-rule="evenodd" stroke="none"/>
    </g>
    <g id="font_TradeGothic_CondEighteen_i0">
      <path d="M9.45 -31.75 L9.45 -31.75 9.45 -36.95 3.1 -36.95 3.1 -31.75 9.45 -31.75 9.45 -31.75 M9.45 0.0 L9.45 0.0 9.45 -27.6 3.1 -27.6 3.1 0.0 9.45 0.0 9.45 0.0" fill-rule="evenodd" stroke="none"/>
    </g>
    <g id="font_TradeGothic_CondEighteen_v0">
      <path d="M10.95 -9.1 L10.95 -9.1 10.8 -9.1 6.9 -27.6 0.45 -27.6 7.8 0.0 14.0 0.0 21.35 -27.6 14.9 -27.6 10.95 -9.1 10.95 -9.1" fill-rule="evenodd" stroke="none"/>
    </g>
    <g id="text3" transform="matrix(1.0, 0.0, 0.0, 1.0, -15.85, -6.9)">
      <g transform="matrix(1.0, 0.0, 0.0, 1.0, 12.9, 0.0)">
        <use fill="#ffffff" fill-opacity="0.19607843" height="40.25" transform="matrix(0.8789, 0.0, 0.0, 0.8789, 0.0, 39.0)" width="115.55" xlink:href="#font_TradeGothic_CondEighteen_E0"/>
        <use fill="#ffffff" fill-opacity="0.19607843" height="40.25" transform="matrix(0.8789, 0.0, 0.0, 0.8789, 19.35, 39.0)" width="115.55" xlink:href="#font_TradeGothic_CondEighteen_x0"/>
        <use fill="#ffffff" fill-opacity="0.19607843" height="40.25" transform="matrix(0.8789, 0.0, 0.0, 0.8789, 36.25, 39.0)" width="115.55" xlink:href="#font_TradeGothic_CondEighteen_p0"/>
        <use fill="#ffffff" fill-opacity="0.19607843" height="40.25" transform="matrix(0.8789, 0.0, 0.0, 0.8789, 55.65, 39.0)" width="115.55" xlink:href="#font_TradeGothic_CondEighteen_l0"/>
        <use fill="#ffffff" fill-opacity="0.19607843" height="40.25" transform="matrix(0.8789, 0.0, 0.0, 0.8789, 65.0, 39.0)" width="115.55" xlink:href="#font_TradeGothic_CondEighteen_o0"/>
        <use fill="#ffffff" fill-opacity="0.19607843" height="40.25" transform="matrix(0.8789, 0.0, 0.0, 0.8789, 84.35, 39.0)" width="115.55" xlink:href="#font_TradeGothic_CondEighteen_r0"/>
        <use fill="#ffffff" fill-opacity="0.19607843" height="40.25" transform="matrix(0.8789, 0.0, 0.0, 0.8789, 98.7, 39.0)" width="115.55" xlink:href="#font_TradeGothic_CondEighteen_e0"/>
      </g>
    </g>
    <g id="text4" transform="matrix(1.0, 0.0, 0.0, 1.0, 125.6, -10.6)">
      <g transform="matrix(1.0, 0.0, 0.0, 1.0, -130.4, 0.0)">
        <use fill="#ffffff" fill-opacity="0.19607843" height="53.85" transform="matrix(1.4258, 0.0, 0.0, 1.4258, 0.0, 64.0)" width="396.6" xlink:href="#font_TradeGothic_CondEighteen_O0"/>
        <use fill="#ffffff" fill-opacity="0.19607843" height="53.85" transform="matrix(1.4258, 0.0, 0.0, 1.4258, 35.8, 64.0)" width="396.6" xlink:href="#font_TradeGothic_CondEighteen_N0"/>
        <use fill="#ffffff" fill-opacity="0.19607843" height="53.85" transform="matrix(1.4258, 0.0, 0.0, 1.4258, 71.6, 64.0)" width="396.6" xlink:href="#font_TradeGothic_CondEighteen_L0"/>
        <use fill="#ffffff" fill-opacity="0.19607843" height="53.85" transform="matrix(1.4258, 0.0, 0.0, 1.4258, 99.3, 64.0)" width="396.6" xlink:href="#font_TradeGothic_CondEighteen_I0"/>
        <use fill="#ffffff" fill-opacity="0.19607843" height="53.85" transform="matrix(1.4258, 0.0, 0.0, 1.4258, 118.9, 64.0)" width="396.6" xlink:href="#font_TradeGothic_CondEighteen_N0"/>
        <use fill="#ffffff" fill-opacity="0.19607843" height="53.85" transform="matrix(1.4258, 0.0, 0.0, 1.4258, 154.7, 64.0)" width="396.6" xlink:href="#font_TradeGothic_CondEighteen_E0"/>
        <use fill="#ffffff" fill-opacity="0.19607843" height="53.85" transform="matrix(1.4258, 0.0, 0.0, 1.4258, 201.9, 64.0)" width="396.6" xlink:href="#font_TradeGothic_CondEighteen_W0"/>
        <use fill="#ffffff" fill-opacity="0.19607843" height="53.85" transform="matrix(1.4258, 0.0, 0.0, 1.4258, 249.9, 64.0)" width="396.6" xlink:href="#font_TradeGothic_CondEighteen_O0"/>
        <use fill="#ffffff" fill-opacity="0.19607843" height="53.85" transform="matrix(1.4258, 0.0, 0.0, 1.4258, 285.7, 64.0)" width="396.6" xlink:href="#font_TradeGothic_CondEighteen_R0"/>
        <use fill="#ffffff" fill-opacity="0.19607843" height="53.85" transform="matrix(1.4258, 0.0, 0.0, 1.4258, 321.5, 64.0)" width="396.6" xlink:href="#font_TradeGothic_CondEighteen_L0"/>
        <use fill="#ffffff" fill-opacity="0.19607843" height="53.85" transform="matrix(1.4258, 0.0, 0.0, 1.4258, 349.2, 64.0)" width="396.6" xlink:href="#font_TradeGothic_CondEighteen_D0"/>
        <use fill="#ffffff" fill-opacity="0.19607843" height="53.85" transform="matrix(1.4258, 0.0, 0.0, 1.4258, 385.0, 64.0)" width="396.6" xlink:href="#font_TradeGothic_CondEighteen__1"/>
      </g>
    </g>
    <g id="text5" transform="matrix(1.0, 0.0, 0.0, 1.0, 12.3, -7.5)">
      <g transform="matrix(1.0, 0.0, 0.0, 1.0, -14.25, 0.0)">
        <use fill="#ffffff" fill-opacity="0.19607843" height="35.8" transform="matrix(0.957, 0.0, 0.0, 0.957, 0.0, 43.0)" width="170.7" xlink:href="#font_TradeGothic_CondEighteen_a0"/>
        <use fill="#ffffff" fill-opacity="0.19607843" height="35.8" transform="matrix(0.957, 0.0, 0.0, 0.957, 31.65, 43.0)" width="170.7" xlink:href="#font_TradeGothic_CondEighteen_m0"/>
        <use fill="#ffffff" fill-opacity="0.19607843" height="35.8" transform="matrix(0.957, 0.0, 0.0, 0.957, 63.8, 43.0)" width="170.7" xlink:href="#font_TradeGothic_CondEighteen_a0"/>
        <use fill="#ffffff" fill-opacity="0.19607843" height="35.8" transform="matrix(0.957, 0.0, 0.0, 0.957, 85.05, 43.0)" width="170.7" xlink:href="#font_TradeGothic_CondEighteen_s0"/>
        <use fill="#ffffff" fill-opacity="0.19607843" height="35.8" transform="matrix(0.957, 0.0, 0.0, 0.957, 103.6, 43.0)" width="170.7" xlink:href="#font_TradeGothic_CondEighteen_s0"/>
        <use fill="#ffffff" fill-opacity="0.19607843" height="35.8" transform="matrix(0.957, 0.0, 0.0, 0.957, 122.15, 43.0)" width="170.7" xlink:href="#font_TradeGothic_CondEighteen_i0"/>
        <use fill="#ffffff" fill-opacity="0.19607843" height="35.8" transform="matrix(0.957, 0.0, 0.0, 0.957, 132.55, 43.0)" width="170.7" xlink:href="#font_TradeGothic_CondEighteen_v0"/>
        <use fill="#ffffff" fill-opacity="0.19607843" height="35.8" transform="matrix(0.957, 0.0, 0.0, 0.957, 151.1, 43.0)" width="170.7" xlink:href="#font_TradeGothic_CondEighteen_e0"/>
      </g>
    </g>
  </defs>
</svg>
