<?xml version="1.0" encoding="UTF-8" standalone="no"?>
<svg xmlns:xlink="http://www.w3.org/1999/xlink" height="375.0px" width="500.0px" xmlns="http://www.w3.org/2000/svg">
  <g transform="matrix(1.0, 0.0, 0.0, 1.0, 0.0, 0.0)">
    <use height="50.95" transform="matrix(1.2063, 0.0, 0.0, 9.7722, -81.4532, -58.6094)" width="549.55" xlink:href="#shape0"/>
    <use height="284.95" transform="matrix(1.0, 0.0, 0.0, 1.0, -5.0, 43.65)" width="508.95" xlink:href="#shape1"/>
    <use height="259.0" transform="matrix(1.0, 0.0, 0.0, 1.0, 12.0, 58.0)" width="476.95" xlink:href="#shape2"/>
    <use height="50.95" transform="matrix(0.9636, 0.0, 0.0, 0.9627, -9.5332, -1.0669)" width="549.55" xlink:href="#shape0"/>
    <use height="50.95" transform="matrix(1.0, 0.0, 0.0, 1.0, -19.55, 327.0)" width="549.55" xlink:href="#shape0"/>
    <use height="384.0" transform="matrix(1.1243, 0.0, 0.0, 0.7604, -21.9956, 56.999)" width="506.95" xlink:href="#shape3"/>
    <use height="42.95" transform="matrix(1.3235, -0.2028, 0.2028, 1.3235, 61.136, 317.3181)" width="483.9" xlink:href="#text0"/>
    <use height="42.95" transform="matrix(1.3235, -0.2028, 0.2028, 1.3235, 61.136, 311.4681)" width="483.9" xlink:href="#text1"/>
  </g>
  <defs>
    <g id="shape0" transform="matrix(1.0, 0.0, 0.0, 1.0, 269.75, -138.55)">
      <path d="M279.8 189.5 L-269.75 189.5 -269.75 138.55 279.8 138.55 279.8 189.5" fill="#000000" fill-rule="evenodd" stroke="none"/>
    </g>
    <g id="shape1" transform="matrix(1.0, 0.0, 0.0, 1.0, 5.0, -43.65)">
      <path d="M503.95 43.65 L503.95 328.6 -5.0 328.6 -5.0 43.65 503.95 43.65" fill="url(#gradient0)" fill-rule="evenodd" stroke="none"/>
    </g>
    <linearGradient gradientTransform="matrix(-0.0036, 0.0676, -0.1736, -0.0093, 220.5, 301.15)" gradientUnits="userSpaceOnUse" id="gradient0" spreadMethod="pad" x1="-819.2" x2="819.2">
      <stop offset="0.0" stop-color="#165dad"/>
      <stop offset="1.0" stop-color="#002f62"/>
    </linearGradient>
    <g id="shape2" transform="matrix(1.0, 0.0, 0.0, 1.0, -12.0, -58.0)">
      <path d="M488.95 317.0 L12.0 317.0 12.0 58.0 488.95 58.0 488.95 317.0" fill="#000033" fill-opacity="0.2" fill-rule="evenodd" stroke="none"/>
    </g>
    <g id="shape3" transform="matrix(1.0, 0.0, 0.0, 1.0, 253.45, 192.0)">
      <path d="M-253.45 -192.0 L253.5 -192.0 253.5 192.0 -253.45 192.0 -253.45 -192.0" fill="#ffffff" fill-opacity="0.007843138" fill-rule="evenodd" stroke="none"/>
    </g>
    <g id="text0" transform="matrix(1.0, 0.0, 0.0, 1.0, 168.9, -7.3)">
      <g transform="matrix(1.0, 0.0, 0.0, 1.0, -171.85, 0.0)">
        <use fill="#000000" fill-opacity="0.3647059" height="42.95" transform="matrix(0.9375, 0.0, 0.0, 0.9375, 0.0, 42.0)" width="483.9" xlink:href="#font_TradeGothic_CondEighteen_m0"/>
        <use fill="#000000" fill-opacity="0.3647059" height="42.95" transform="matrix(0.9375, 0.0, 0.0, 0.9375, 31.1, 42.0)" width="483.9" xlink:href="#font_TradeGothic_CondEighteen_i0"/>
        <use fill="#000000" fill-opacity="0.3647059" height="42.95" transform="matrix(0.9375, 0.0, 0.0, 0.9375, 40.85, 42.0)" width="483.9" xlink:href="#font_TradeGothic_CondEighteen_n0"/>
        <use fill="#000000" fill-opacity="0.3647059" height="42.95" transform="matrix(0.9375, 0.0, 0.0, 0.9375, 61.25, 42.0)" width="483.9" xlink:href="#font_TradeGothic_CondEighteen_i0"/>
        <use fill="#000000" fill-opacity="0.3647059" height="42.95" transform="matrix(0.9375, 0.0, 0.0, 0.9375, 71.0, 42.0)" width="483.9" xlink:href="#font_TradeGothic_CondEighteen_-0"/>
        <use fill="#000000" fill-opacity="0.3647059" height="42.95" transform="matrix(0.9375, 0.0, 0.0, 0.9375, 86.1, 42.0)" width="483.9" xlink:href="#font_TradeGothic_CondEighteen_g0"/>
        <use fill="#000000" fill-opacity="0.3647059" height="42.95" transform="matrix(0.9375, 0.0, 0.0, 0.9375, 106.5, 42.0)" width="483.9" xlink:href="#font_TradeGothic_CondEighteen_a0"/>
        <use fill="#000000" fill-opacity="0.3647059" height="42.95" transform="matrix(0.9375, 0.0, 0.0, 0.9375, 126.9, 42.0)" width="483.9" xlink:href="#font_TradeGothic_CondEighteen_m0"/>
        <use fill="#000000" fill-opacity="0.3647059" height="42.95" transform="matrix(0.9375, 0.0, 0.0, 0.9375, 158.05, 42.0)" width="483.9" xlink:href="#font_TradeGothic_CondEighteen_e0"/>
        <use fill="#000000" fill-opacity="0.3647059" height="42.95" transform="matrix(0.9375, 0.0, 0.0, 0.9375, 178.5, 42.0)" width="483.9" xlink:href="#font_TradeGothic_CondEighteen_s0"/>
        <use fill="#000000" fill-opacity="0.3647059" height="42.95" transform="matrix(0.9375, 0.0, 0.0, 0.9375, 206.1, 42.0)" width="483.9" xlink:href="#font_TradeGothic_CondEighteen_w0"/>
        <use fill="#000000" fill-opacity="0.3647059" height="42.95" transform="matrix(0.9375, 0.0, 0.0, 0.9375, 231.9, 42.0)" width="483.9" xlink:href="#font_TradeGothic_CondEighteen_i0"/>
        <use fill="#000000" fill-opacity="0.3647059" height="42.95" transform="matrix(0.9375, 0.0, 0.0, 0.9375, 241.65, 42.0)" width="483.9" xlink:href="#font_TradeGothic_CondEighteen_t0"/>
        <use fill="#000000" fill-opacity="0.3647059" height="42.95" transform="matrix(0.9375, 0.0, 0.0, 0.9375, 254.1, 42.0)" width="483.9" xlink:href="#font_TradeGothic_CondEighteen_h0"/>
        <use fill="#000000" fill-opacity="0.3647059" height="42.95" transform="matrix(0.9375, 0.0, 0.0, 0.9375, 284.25, 42.0)" width="483.9" xlink:href="#font_TradeGothic_CondEighteen_o0"/>
        <use fill="#000000" fill-opacity="0.3647059" height="42.95" transform="matrix(0.9375, 0.0, 0.0, 0.9375, 304.65, 42.0)" width="483.9" xlink:href="#font_TradeGothic_CondEighteen_t0"/>
        <use fill="#000000" fill-opacity="0.3647059" height="42.95" transform="matrix(0.9375, 0.0, 0.0, 0.9375, 317.1, 42.0)" width="483.9" xlink:href="#font_TradeGothic_CondEighteen_h0"/>
        <use fill="#000000" fill-opacity="0.3647059" height="42.95" transform="matrix(0.9375, 0.0, 0.0, 0.9375, 337.5, 42.0)" width="483.9" xlink:href="#font_TradeGothic_CondEighteen_e0"/>
        <use fill="#000000" fill-opacity="0.3647059" height="42.95" transform="matrix(0.9375, 0.0, 0.0, 0.9375, 357.9, 42.0)" width="483.9" xlink:href="#font_TradeGothic_CondEighteen_r0"/>
        <use fill="#000000" fill-opacity="0.3647059" height="42.95" transform="matrix(0.9375, 0.0, 0.0, 0.9375, 382.75, 42.0)" width="483.9" xlink:href="#font_TradeGothic_CondEighteen_T0"/>
        <use fill="#000000" fill-opacity="0.3647059" height="42.95" transform="matrix(0.9375, 0.0, 0.0, 0.9375, 398.75, 42.0)" width="483.9" xlink:href="#font_TradeGothic_CondEighteen_o0"/>
        <use fill="#000000" fill-opacity="0.3647059" height="42.95" transform="matrix(0.9375, 0.0, 0.0, 0.9375, 419.15, 42.0)" width="483.9" xlink:href="#font_TradeGothic_CondEighteen_o0"/>
        <use fill="#000000" fill-opacity="0.3647059" height="42.95" transform="matrix(0.9375, 0.0, 0.0, 0.9375, 439.55, 42.0)" width="483.9" xlink:href="#font_TradeGothic_CondEighteen_n0"/>
        <use fill="#000000" fill-opacity="0.3647059" height="42.95" transform="matrix(0.9375, 0.0, 0.0, 0.9375, 459.95, 42.0)" width="483.9" xlink:href="#font_TradeGothic_CondEighteen_s0"/>
        <use fill="#000000" fill-opacity="0.3647059" height="42.95" transform="matrix(0.9375, 0.0, 0.0, 0.9375, 477.75, 42.0)" width="483.9" xlink:href="#font_TradeGothic_CondEighteen_.0"/>
      </g>
    </g>
    <g id="font_TradeGothic_CondEighteen_m0">
      <path d="M22.0 0.0 L22.0 0.0 22.0 -21.45 Q24.0 -23.05 25.95 -23.2 28.0 -23.25 28.15 -21.2 L28.15 0.0 34.55 0.0 34.55 -22.1 Q34.55 -27.75 28.55 -28.0 26.9 -28.1 25.35 -27.45 23.8 -26.75 21.6 -24.8 20.65 -26.4 19.5 -27.2 18.35 -28.0 16.05 -28.0 13.9 -28.05 12.45 -27.2 L9.15 -24.8 9.15 -27.55 3.1 -27.55 3.1 0.0 9.45 0.0 9.45 -21.45 Q11.55 -23.05 13.45 -23.2 15.45 -23.25 15.65 -21.2 L15.65 0.0 22.0 0.0 22.0 0.0" fill-rule="evenodd" stroke="none"/>
    </g>
    <g id="font_TradeGothic_CondEighteen_i0">
      <path d="M9.45 -31.75 L9.45 -31.75 9.45 -36.95 3.1 -36.95 3.1 -31.75 9.45 -31.75 9.45 -31.75 M9.45 0.0 L9.45 0.0 9.45 -27.6 3.1 -27.6 3.1 0.0 9.45 0.0 9.45 0.0" fill-rule="evenodd" stroke="none"/>
    </g>
    <g id="font_TradeGothic_CondEighteen_n0">
      <path d="M9.45 0.0 L9.45 0.0 9.45 -21.45 Q11.55 -23.05 13.45 -23.2 15.5 -23.25 15.65 -21.2 L15.65 0.0 22.0 0.0 22.0 -22.1 Q21.85 -27.75 16.65 -28.0 14.1 -28.05 12.55 -27.2 L9.15 -24.8 9.15 -27.55 3.1 -27.55 3.1 0.0 9.45 0.0 9.45 0.0" fill-rule="evenodd" stroke="none"/>
    </g>
    <g id="font_TradeGothic_CondEighteen_-0">
      <path d="M16.3 -11.4 L16.3 -11.4 16.3 -16.2 2.45 -16.2 2.45 -11.4 16.3 -11.4 16.3 -11.4" fill-rule="evenodd" stroke="none"/>
    </g>
    <g id="font_TradeGothic_CondEighteen_g0">
      <path d="M11.2 -11.8 L11.2 -11.8 Q9.75 -11.7 8.95 -12.9 8.15 -14.1 8.15 -17.5 8.15 -20.85 8.95 -22.05 9.75 -23.25 11.2 -23.2 13.0 -23.25 13.7 -22.05 14.35 -20.85 14.3 -17.5 14.35 -14.1 13.7 -12.9 13.0 -11.7 11.2 -11.8 L11.2 -11.8 M13.0 4.6 L13.0 4.6 Q9.9 4.65 8.75 4.1 7.65 3.6 7.7 2.5 7.65 1.4 8.75 0.9 L13.0 0.4 Q16.05 0.4 17.2 0.9 18.35 1.4 18.25 2.5 18.35 3.6 17.2 4.1 16.05 4.65 13.0 4.6 L13.0 4.6 M24.05 -28.0 L24.05 -28.0 Q22.15 -28.0 21.1 -27.35 20.05 -26.65 18.85 -24.95 15.85 -28.1 11.9 -28.0 6.6 -28.05 4.3 -25.75 1.95 -23.4 2.0 -17.85 1.95 -13.25 2.9 -11.3 3.8 -9.35 6.15 -8.0 L3.55 -6.15 Q2.3 -4.95 2.25 -3.55 2.35 -0.95 5.1 -0.1 L5.1 0.0 Q1.35 0.9 0.9 4.3 1.25 8.75 11.05 8.8 17.1 8.85 20.55 7.25 23.95 5.7 24.0 2.15 23.7 -2.45 19.8 -3.4 L12.1 -4.25 Q8.2 -4.2 7.9 -5.8 8.0 -6.75 9.1 -7.0 L11.1 -7.0 Q15.9 -6.9 18.3 -9.4 20.7 -11.9 20.7 -18.05 20.7 -19.95 20.0 -22.35 21.35 -23.25 23.05 -23.2 L24.05 -23.15 24.05 -28.0 24.05 -28.0" fill-rule="evenodd" stroke="none"/>
    </g>
    <g id="font_TradeGothic_CondEighteen_a0">
      <path d="M15.4 -6.95 L15.4 -6.95 Q13.85 -4.65 11.25 -4.4 8.4 -4.3 8.35 -6.9 8.3 -8.65 9.75 -10.3 11.25 -12.0 15.4 -14.15 L15.4 -6.95 15.4 -6.95 M8.8 -19.35 L8.8 -19.35 Q8.55 -23.0 12.35 -23.2 15.45 -23.15 15.4 -19.7 L15.4 -18.1 Q8.7 -16.05 5.35 -13.2 2.0 -10.35 2.0 -5.85 2.0 -3.15 3.6 -1.4 5.25 0.35 8.5 0.4 12.6 0.55 15.75 -2.2 L16.1 0.0 22.2 0.0 Q21.85 -1.55 21.8 -2.95 L21.8 -20.45 Q21.55 -28.0 12.6 -28.0 3.35 -27.85 2.45 -19.35 L8.8 -19.35 8.8 -19.35" fill-rule="evenodd" stroke="none"/>
    </g>
    <g id="font_TradeGothic_CondEighteen_e0">
      <path d="M22.45 -17.8 L22.45 -17.8 Q22.5 -22.3 20.25 -25.1 17.95 -27.9 12.55 -28.0 7.15 -27.9 4.85 -25.1 2.6 -22.3 2.65 -17.8 L2.65 -9.7 Q2.6 -5.25 4.85 -2.45 7.15 0.35 12.55 0.4 17.85 0.35 20.15 -2.35 22.45 -5.0 22.45 -9.35 L16.05 -9.35 16.05 -8.75 Q16.0 -4.25 12.55 -4.4 9.1 -4.25 9.05 -8.75 L9.05 -12.6 22.45 -12.6 22.45 -17.8 22.45 -17.8 M9.05 -17.4 L9.05 -17.4 9.05 -18.8 Q9.1 -23.3 12.55 -23.2 16.0 -23.3 16.05 -18.8 L16.05 -17.4 9.05 -17.4 9.05 -17.4" fill-rule="evenodd" stroke="none"/>
    </g>
    <g id="font_TradeGothic_CondEighteen_s0">
      <path d="M19.9 -20.65 L19.9 -20.65 Q19.15 -23.9 16.75 -25.9 14.35 -27.95 10.7 -28.0 7.1 -27.95 4.7 -25.9 2.35 -23.9 2.25 -20.6 2.45 -16.95 5.25 -14.75 8.05 -12.55 10.85 -10.75 13.7 -9.0 13.9 -6.75 13.7 -4.45 11.25 -4.4 9.25 -4.45 8.35 -5.65 7.45 -6.9 7.2 -8.65 L1.55 -7.3 Q3.0 0.15 11.2 0.4 15.05 0.4 17.5 -1.5 19.95 -3.35 20.0 -7.05 19.8 -11.0 17.0 -13.3 14.2 -15.65 11.35 -17.3 8.55 -19.0 8.35 -21.05 8.5 -23.15 10.95 -23.2 13.8 -23.15 14.4 -19.8 L19.9 -20.65 19.9 -20.65" fill-rule="evenodd" stroke="none"/>
    </g>
    <g id="font_TradeGothic_CondEighteen_w0">
      <path d="M9.25 -10.35 L9.25 -10.35 9.15 -10.35 6.35 -27.6 0.25 -27.6 6.15 0.0 11.2 0.0 15.35 -17.45 15.45 -17.45 18.9 0.0 24.0 0.0 31.0 -27.6 24.9 -27.6 21.45 -10.35 21.35 -10.35 17.95 -27.55 13.25 -27.55 9.25 -10.35 9.25 -10.35" fill-rule="evenodd" stroke="none"/>
    </g>
    <g id="font_TradeGothic_CondEighteen_t0">
      <path d="M3.95 -22.8 L3.95 -22.8 3.95 -5.95 Q4.1 0.45 11.4 0.4 L14.6 0.1 14.6 -4.95 12.5 -4.95 Q10.3 -5.0 10.35 -7.2 L10.35 -22.8 14.6 -22.8 14.6 -27.6 10.35 -27.6 10.35 -35.0 3.95 -35.0 3.95 -27.6 0.5 -27.6 0.5 -22.8 3.95 -22.8 3.95 -22.8" fill-rule="evenodd" stroke="none"/>
    </g>
    <g id="font_TradeGothic_CondEighteen_h0">
      <path d="M9.45 0.0 L9.45 0.0 9.45 -21.45 Q11.55 -23.05 13.45 -23.2 15.5 -23.25 15.65 -21.2 L15.65 0.0 22.0 0.0 22.0 -22.1 Q21.85 -27.75 16.65 -28.0 14.05 -27.95 12.55 -27.1 L9.45 -24.85 9.45 -37.0 3.1 -37.0 3.1 0.0 9.45 0.0 9.45 0.0" fill-rule="evenodd" stroke="none"/>
    </g>
    <g id="font_TradeGothic_CondEighteen_o0">
      <path d="M2.65 -9.8 L2.65 -9.8 Q2.6 -5.25 4.85 -2.45 7.15 0.35 12.55 0.4 17.95 0.35 20.25 -2.45 22.5 -5.25 22.45 -9.8 L22.45 -17.75 Q22.5 -22.3 20.25 -25.1 17.95 -27.9 12.55 -28.0 7.15 -27.9 4.85 -25.1 2.6 -22.3 2.65 -17.75 L2.65 -9.8 2.65 -9.8 M16.05 -8.8 L16.05 -8.8 Q16.0 -4.25 12.55 -4.4 9.1 -4.25 9.05 -8.8 L9.05 -18.75 Q9.1 -23.3 12.55 -23.2 16.0 -23.3 16.05 -18.75 L16.05 -8.8 16.05 -8.8" fill-rule="evenodd" stroke="none"/>
    </g>
    <g id="font_TradeGothic_CondEighteen_r0">
      <path d="M9.45 0.0 L9.45 0.0 9.45 -18.75 Q9.55 -20.6 10.8 -21.5 12.05 -22.4 13.7 -22.4 L17.75 -21.85 17.75 -27.95 16.45 -27.95 Q11.8 -27.85 9.3 -24.15 L9.2 -24.15 9.2 -27.6 3.1 -27.6 3.1 0.0 9.45 0.0 9.45 0.0" fill-rule="evenodd" stroke="none"/>
    </g>
    <g id="font_TradeGothic_CondEighteen_T0">
      <path d="M7.5 0.0 L7.5 0.0 14.55 0.0 14.55 -31.4 21.3 -31.4 21.3 -37.0 0.75 -37.0 0.75 -31.4 7.5 -31.4 7.5 0.0 7.5 0.0" fill-rule="evenodd" stroke="none"/>
    </g>
    <g id="font_TradeGothic_CondEighteen_.0">
      <path d="M9.65 0.0 L9.65 0.0 9.65 -6.15 2.9 -6.15 2.9 0.0 9.65 0.0 9.65 0.0" fill-rule="evenodd" stroke="none"/>
    </g>
    <g id="text1" transform="matrix(1.0, 0.0, 0.0, 1.0, 168.9, -7.3)">
      <g transform="matrix(1.0, 0.0, 0.0, 1.0, -171.85, 0.0)">
        <use fill="#ffffff" fill-opacity="0.3647059" height="42.95" transform="matrix(0.9375, 0.0, 0.0, 0.9375, 0.0, 42.0)" width="483.9" xlink:href="#font_TradeGothic_CondEighteen_m0"/>
        <use fill="#ffffff" fill-opacity="0.3647059" height="42.95" transform="matrix(0.9375, 0.0, 0.0, 0.9375, 31.1, 42.0)" width="483.9" xlink:href="#font_TradeGothic_CondEighteen_i0"/>
        <use fill="#ffffff" fill-opacity="0.3647059" height="42.95" transform="matrix(0.9375, 0.0, 0.0, 0.9375, 40.85, 42.0)" width="483.9" xlink:href="#font_TradeGothic_CondEighteen_n0"/>
        <use fill="#ffffff" fill-opacity="0.3647059" height="42.95" transform="matrix(0.9375, 0.0, 0.0, 0.9375, 61.25, 42.0)" width="483.9" xlink:href="#font_TradeGothic_CondEighteen_i0"/>
        <use fill="#ffffff" fill-opacity="0.3647059" height="42.95" transform="matrix(0.9375, 0.0, 0.0, 0.9375, 71.0, 42.0)" width="483.9" xlink:href="#font_TradeGothic_CondEighteen_-0"/>
        <use fill="#ffffff" fill-opacity="0.3647059" height="42.95" transform="matrix(0.9375, 0.0, 0.0, 0.9375, 86.1, 42.0)" width="483.9" xlink:href="#font_TradeGothic_CondEighteen_g0"/>
        <use fill="#ffffff" fill-opacity="0.3647059" height="42.95" transform="matrix(0.9375, 0.0, 0.0, 0.9375, 106.5, 42.0)" width="483.9" xlink:href="#font_TradeGothic_CondEighteen_a0"/>
        <use fill="#ffffff" fill-opacity="0.3647059" height="42.95" transform="matrix(0.9375, 0.0, 0.0, 0.9375, 126.9, 42.0)" width="483.9" xlink:href="#font_TradeGothic_CondEighteen_m0"/>
        <use fill="#ffffff" fill-opacity="0.3647059" height="42.95" transform="matrix(0.9375, 0.0, 0.0, 0.9375, 158.05, 42.0)" width="483.9" xlink:href="#font_TradeGothic_CondEighteen_e0"/>
        <use fill="#ffffff" fill-opacity="0.3647059" height="42.95" transform="matrix(0.9375, 0.0, 0.0, 0.9375, 178.5, 42.0)" width="483.9" xlink:href="#font_TradeGothic_CondEighteen_s0"/>
        <use fill="#ffffff" fill-opacity="0.3647059" height="42.95" transform="matrix(0.9375, 0.0, 0.0, 0.9375, 206.1, 42.0)" width="483.9" xlink:href="#font_TradeGothic_CondEighteen_w0"/>
        <use fill="#ffffff" fill-opacity="0.3647059" height="42.95" transform="matrix(0.9375, 0.0, 0.0, 0.9375, 231.9, 42.0)" width="483.9" xlink:href="#font_TradeGothic_CondEighteen_i0"/>
        <use fill="#ffffff" fill-opacity="0.3647059" height="42.95" transform="matrix(0.9375, 0.0, 0.0, 0.9375, 241.65, 42.0)" width="483.9" xlink:href="#font_TradeGothic_CondEighteen_t0"/>
        <use fill="#ffffff" fill-opacity="0.3647059" height="42.95" transform="matrix(0.9375, 0.0, 0.0, 0.9375, 254.1, 42.0)" width="483.9" xlink:href="#font_TradeGothic_CondEighteen_h0"/>
        <use fill="#ffffff" fill-opacity="0.3647059" height="42.95" transform="matrix(0.9375, 0.0, 0.0, 0.9375, 284.25, 42.0)" width="483.9" xlink:href="#font_TradeGothic_CondEighteen_o0"/>
        <use fill="#ffffff" fill-opacity="0.3647059" height="42.95" transform="matrix(0.9375, 0.0, 0.0, 0.9375, 304.65, 42.0)" width="483.9" xlink:href="#font_TradeGothic_CondEighteen_t0"/>
        <use fill="#ffffff" fill-opacity="0.3647059" height="42.95" transform="matrix(0.9375, 0.0, 0.0, 0.9375, 317.1, 42.0)" width="483.9" xlink:href="#font_TradeGothic_CondEighteen_h0"/>
        <use fill="#ffffff" fill-opacity="0.3647059" height="42.95" transform="matrix(0.9375, 0.0, 0.0, 0.9375, 337.5, 42.0)" width="483.9" xlink:href="#font_TradeGothic_CondEighteen_e0"/>
        <use fill="#ffffff" fill-opacity="0.3647059" height="42.95" transform="matrix(0.9375, 0.0, 0.0, 0.9375, 357.9, 42.0)" width="483.9" xlink:href="#font_TradeGothic_CondEighteen_r0"/>
        <use fill="#ffffff" fill-opacity="0.3647059" height="42.95" transform="matrix(0.9375, 0.0, 0.0, 0.9375, 382.75, 42.0)" width="483.9" xlink:href="#font_TradeGothic_CondEighteen_T0"/>
        <use fill="#ffffff" fill-opacity="0.3647059" height="42.95" transform="matrix(0.9375, 0.0, 0.0, 0.9375, 398.75, 42.0)" width="483.9" xlink:href="#font_TradeGothic_CondEighteen_o0"/>
        <use fill="#ffffff" fill-opacity="0.3647059" height="42.95" transform="matrix(0.9375, 0.0, 0.0, 0.9375, 419.15, 42.0)" width="483.9" xlink:href="#font_TradeGothic_CondEighteen_o0"/>
        <use fill="#ffffff" fill-opacity="0.3647059" height="42.95" transform="matrix(0.9375, 0.0, 0.0, 0.9375, 439.55, 42.0)" width="483.9" xlink:href="#font_TradeGothic_CondEighteen_n0"/>
        <use fill="#ffffff" fill-opacity="0.3647059" height="42.95" transform="matrix(0.9375, 0.0, 0.0, 0.9375, 459.95, 42.0)" width="483.9" xlink:href="#font_TradeGothic_CondEighteen_s0"/>
        <use fill="#ffffff" fill-opacity="0.3647059" height="42.95" transform="matrix(0.9375, 0.0, 0.0, 0.9375, 477.75, 42.0)" width="483.9" xlink:href="#font_TradeGothic_CondEighteen_.0"/>
      </g>
    </g>
  </defs>
</svg>
