<?xml version="1.0" encoding="UTF-8" standalone="no"?>
<svg xmlns:xlink="http://www.w3.org/1999/xlink" height="375.0px" width="500.0px" xmlns="http://www.w3.org/2000/svg">
  <g transform="matrix(1.0, 0.0, 0.0, 1.0, 0.0, 0.0)">
    <use height="50.95" transform="matrix(1.2063, 0.0, 0.0, 9.7722, -81.4532, -58.6094)" width="549.55" xlink:href="#shape0"/>
    <use height="284.95" transform="matrix(1.0, 0.0, 0.0, 1.0, -5.0, 43.65)" width="508.95" xlink:href="#shape1"/>
    <use height="259.0" transform="matrix(1.0, 0.0, 0.0, 1.0, 12.0, 58.0)" width="476.95" xlink:href="#shape2"/>
    <use height="50.95" transform="matrix(0.9636, 0.0, 0.0, 0.9627, -9.5332, -1.0669)" width="549.55" xlink:href="#shape0"/>
    <use height="50.95" transform="matrix(1.0, 0.0, 0.0, 1.0, -19.55, 327.0)" width="549.55" xlink:href="#shape0"/>
    <use height="43.3" transform="matrix(0.4533, -0.0695, 0.0695, 0.4533, 115.2396, 79.0365)" width="489.45" xlink:href="#text0"/>
    <use height="43.3" transform="matrix(0.4533, -0.0695, 0.0695, 0.4533, 116.2396, 77.0365)" width="489.45" xlink:href="#text1"/>
  </g>
  <defs>
    <g id="shape0" transform="matrix(1.0, 0.0, 0.0, 1.0, 269.75, -138.55)">
      <path d="M279.8 189.5 L-269.75 189.5 -269.75 138.55 279.8 138.55 279.8 189.5" fill="#000000" fill-rule="evenodd" stroke="none"/>
    </g>
    <g id="shape1" transform="matrix(1.0, 0.0, 0.0, 1.0, 5.0, -43.65)">
      <path d="M503.95 43.65 L503.95 328.6 -5.0 328.6 -5.0 43.65 503.95 43.65" fill="url(#gradient0)" fill-rule="evenodd" stroke="none"/>
    </g>
    <linearGradient gradientTransform="matrix(-0.0036, 0.0676, -0.1736, -0.0093, 220.5, 301.15)" gradientUnits="userSpaceOnUse" id="gradient0" spreadMethod="pad" x1="-819.2" x2="819.2">
      <stop offset="0.0" stop-color="#165dad"/>
      <stop offset="1.0" stop-color="#002f62"/>
    </linearGradient>
    <g id="shape2" transform="matrix(1.0, 0.0, 0.0, 1.0, -12.0, -58.0)">
      <path d="M488.95 317.0 L12.0 317.0 12.0 58.0 488.95 58.0 488.95 317.0" fill="#000033" fill-opacity="0.2" fill-rule="evenodd" stroke="none"/>
    </g>
    <g id="text0" transform="matrix(1.0, 0.0, 0.0, 1.0, 171.85, -6.95)">
      <g transform="matrix(1.0, 0.0, 0.0, 1.0, -174.4, 0.0)">
        <use fill="#000000" fill-opacity="0.38039216" height="43.3" transform="matrix(0.9375, 0.0, 0.0, 0.9375, 0.0, 42.0)" width="489.45" xlink:href="#font_TradeGothic_CondEighteen_o0"/>
        <use fill="#000000" fill-opacity="0.38039216" height="43.3" transform="matrix(0.9375, 0.0, 0.0, 0.9375, 20.4, 42.0)" width="489.45" xlink:href="#font_TradeGothic_CondEighteen_t0"/>
        <use fill="#000000" fill-opacity="0.38039216" height="43.3" transform="matrix(0.9375, 0.0, 0.0, 0.9375, 32.85, 42.0)" width="489.45" xlink:href="#font_TradeGothic_CondEighteen_h0"/>
        <use fill="#000000" fill-opacity="0.38039216" height="43.3" transform="matrix(0.9375, 0.0, 0.0, 0.9375, 53.25, 42.0)" width="489.45" xlink:href="#font_TradeGothic_CondEighteen_e0"/>
        <use fill="#000000" fill-opacity="0.38039216" height="43.3" transform="matrix(0.9375, 0.0, 0.0, 0.9375, 73.65, 42.0)" width="489.45" xlink:href="#font_TradeGothic_CondEighteen_r0"/>
        <use fill="#000000" fill-opacity="0.38039216" height="43.3" transform="matrix(0.9375, 0.0, 0.0, 0.9375, 98.5, 42.0)" width="489.45" xlink:href="#font_TradeGothic_CondEighteen_c0"/>
        <use fill="#000000" fill-opacity="0.38039216" height="43.3" transform="matrix(0.9375, 0.0, 0.0, 0.9375, 118.9, 42.0)" width="489.45" xlink:href="#font_TradeGothic_CondEighteen_o0"/>
        <use fill="#000000" fill-opacity="0.38039216" height="43.3" transform="matrix(0.9375, 0.0, 0.0, 0.9375, 139.3, 42.0)" width="489.45" xlink:href="#font_TradeGothic_CondEighteen_o0"/>
        <use fill="#000000" fill-opacity="0.38039216" height="43.3" transform="matrix(0.9375, 0.0, 0.0, 0.9375, 159.7, 42.0)" width="489.45" xlink:href="#font_TradeGothic_CondEighteen_l0"/>
        <use fill="#000000" fill-opacity="0.38039216" height="43.3" transform="matrix(0.9375, 0.0, 0.0, 0.9375, 179.2, 42.0)" width="489.45" xlink:href="#font_TradeGothic_CondEighteen_s0"/>
        <use fill="#000000" fill-opacity="0.38039216" height="43.3" transform="matrix(0.9375, 0.0, 0.0, 0.9375, 197.0, 42.0)" width="489.45" xlink:href="#font_TradeGothic_CondEighteen_t0"/>
        <use fill="#000000" fill-opacity="0.38039216" height="43.3" transform="matrix(0.9375, 0.0, 0.0, 0.9375, 209.45, 42.0)" width="489.45" xlink:href="#font_TradeGothic_CondEighteen_u0"/>
        <use fill="#000000" fill-opacity="0.38039216" height="43.3" transform="matrix(0.9375, 0.0, 0.0, 0.9375, 229.85, 42.0)" width="489.45" xlink:href="#font_TradeGothic_CondEighteen_f0"/>
        <use fill="#000000" fill-opacity="0.38039216" height="43.3" transform="matrix(0.9375, 0.0, 0.0, 0.9375, 242.3, 42.0)" width="489.45" xlink:href="#font_TradeGothic_CondEighteen_f0"/>
        <use fill="#000000" fill-opacity="0.38039216" height="43.3" transform="matrix(0.9375, 0.0, 0.0, 0.9375, 264.5, 42.0)" width="489.45" xlink:href="#font_TradeGothic_CondEighteen_f0"/>
        <use fill="#000000" fill-opacity="0.38039216" height="43.3" transform="matrix(0.9375, 0.0, 0.0, 0.9375, 276.95, 42.0)" width="489.45" xlink:href="#font_TradeGothic_CondEighteen_o0"/>
        <use fill="#000000" fill-opacity="0.38039216" height="43.3" transform="matrix(0.9375, 0.0, 0.0, 0.9375, 297.35, 42.0)" width="489.45" xlink:href="#font_TradeGothic_CondEighteen_r0"/>
        <use fill="#000000" fill-opacity="0.38039216" height="43.3" transform="matrix(0.9375, 0.0, 0.0, 0.9375, 322.2, 42.0)" width="489.45" xlink:href="#font_TradeGothic_CondEighteen_y0"/>
        <use fill="#000000" fill-opacity="0.38039216" height="43.3" transform="matrix(0.9375, 0.0, 0.0, 0.9375, 340.0, 42.0)" width="489.45" xlink:href="#font_TradeGothic_CondEighteen_o0"/>
        <use fill="#000000" fill-opacity="0.38039216" height="43.3" transform="matrix(0.9375, 0.0, 0.0, 0.9375, 360.45, 42.0)" width="489.45" xlink:href="#font_TradeGothic_CondEighteen_u0"/>
        <use fill="#000000" fill-opacity="0.38039216" height="43.3" transform="matrix(0.9375, 0.0, 0.0, 0.9375, 380.85, 42.0)" width="489.45" xlink:href="#font_TradeGothic_CondEighteen_r0"/>
        <use fill="#000000" fill-opacity="0.38039216" height="43.3" transform="matrix(0.9375, 0.0, 0.0, 0.9375, 405.7, 42.0)" width="489.45" xlink:href="#font_TradeGothic_CondEighteen_T0"/>
        <use fill="#000000" fill-opacity="0.38039216" height="43.3" transform="matrix(0.9375, 0.0, 0.0, 0.9375, 421.7, 42.0)" width="489.45" xlink:href="#font_TradeGothic_CondEighteen_o0"/>
        <use fill="#000000" fill-opacity="0.38039216" height="43.3" transform="matrix(0.9375, 0.0, 0.0, 0.9375, 442.1, 42.0)" width="489.45" xlink:href="#font_TradeGothic_CondEighteen_o0"/>
        <use fill="#000000" fill-opacity="0.38039216" height="43.3" transform="matrix(0.9375, 0.0, 0.0, 0.9375, 462.5, 42.0)" width="489.45" xlink:href="#font_TradeGothic_CondEighteen_n0"/>
        <use fill="#000000" fill-opacity="0.38039216" height="43.3" transform="matrix(0.9375, 0.0, 0.0, 0.9375, 482.9, 42.0)" width="489.45" xlink:href="#font_TradeGothic_CondEighteen_.0"/>
      </g>
    </g>
    <g id="font_TradeGothic_CondEighteen_o0">
      <path d="M2.65 -9.8 L2.65 -9.8 Q2.6 -5.25 4.85 -2.45 7.15 0.35 12.55 0.4 17.95 0.35 20.25 -2.45 22.5 -5.25 22.45 -9.8 L22.45 -17.75 Q22.5 -22.3 20.25 -25.1 17.95 -27.9 12.55 -28.0 7.15 -27.9 4.85 -25.1 2.6 -22.3 2.65 -17.75 L2.65 -9.8 2.65 -9.8 M16.05 -8.8 L16.05 -8.8 Q16.0 -4.25 12.55 -4.4 9.1 -4.25 9.05 -8.8 L9.05 -18.75 Q9.1 -23.3 12.55 -23.2 16.0 -23.3 16.05 -18.75 L16.05 -8.8 16.05 -8.8" fill-rule="evenodd" stroke="none"/>
    </g>
    <g id="font_TradeGothic_CondEighteen_t0">
      <path d="M3.95 -22.8 L3.95 -22.8 3.95 -5.95 Q4.1 0.45 11.4 0.4 L14.6 0.1 14.6 -4.95 12.5 -4.95 Q10.3 -5.0 10.35 -7.2 L10.35 -22.8 14.6 -22.8 14.6 -27.6 10.35 -27.6 10.35 -35.0 3.95 -35.0 3.95 -27.6 0.5 -27.6 0.5 -22.8 3.95 -22.8 3.95 -22.8" fill-rule="evenodd" stroke="none"/>
    </g>
    <g id="font_TradeGothic_CondEighteen_h0">
      <path d="M9.45 0.0 L9.45 0.0 9.45 -21.45 Q11.55 -23.05 13.45 -23.2 15.5 -23.25 15.65 -21.2 L15.65 0.0 22.0 0.0 22.0 -22.1 Q21.85 -27.75 16.65 -28.0 14.05 -27.95 12.55 -27.1 L9.45 -24.85 9.45 -37.0 3.1 -37.0 3.1 0.0 9.45 0.0 9.45 0.0" fill-rule="evenodd" stroke="none"/>
    </g>
    <g id="font_TradeGothic_CondEighteen_e0">
      <path d="M22.45 -17.8 L22.45 -17.8 Q22.5 -22.3 20.25 -25.1 17.95 -27.9 12.55 -28.0 7.15 -27.9 4.85 -25.1 2.6 -22.3 2.65 -17.8 L2.65 -9.7 Q2.6 -5.25 4.85 -2.45 7.15 0.35 12.55 0.4 17.85 0.35 20.15 -2.35 22.45 -5.0 22.45 -9.35 L16.05 -9.35 16.05 -8.75 Q16.0 -4.25 12.55 -4.4 9.1 -4.25 9.05 -8.75 L9.05 -12.6 22.45 -12.6 22.45 -17.8 22.45 -17.8 M9.05 -17.4 L9.05 -17.4 9.05 -18.8 Q9.1 -23.3 12.55 -23.2 16.0 -23.3 16.05 -18.8 L16.05 -17.4 9.05 -17.4 9.05 -17.4" fill-rule="evenodd" stroke="none"/>
    </g>
    <g id="font_TradeGothic_CondEighteen_r0">
      <path d="M9.45 0.0 L9.45 0.0 9.45 -18.75 Q9.55 -20.6 10.8 -21.5 12.05 -22.4 13.7 -22.4 L17.75 -21.85 17.75 -27.95 16.45 -27.95 Q11.8 -27.85 9.3 -24.15 L9.2 -24.15 9.2 -27.6 3.1 -27.6 3.1 0.0 9.45 0.0 9.45 0.0" fill-rule="evenodd" stroke="none"/>
    </g>
    <g id="font_TradeGothic_CondEighteen_c0">
      <path d="M22.45 -18.05 L22.45 -18.05 Q22.45 -22.5 20.15 -25.2 17.85 -27.9 12.55 -28.0 7.15 -27.9 4.85 -25.1 2.6 -22.3 2.65 -17.75 L2.65 -9.8 Q2.6 -5.25 4.85 -2.45 7.15 0.35 12.55 0.4 17.95 0.35 20.25 -2.45 22.5 -5.25 22.45 -9.8 L22.45 -10.5 16.05 -10.5 16.05 -8.8 Q16.0 -4.25 12.55 -4.4 9.1 -4.25 9.05 -8.8 L9.05 -18.75 Q9.1 -23.3 12.55 -23.2 16.0 -23.3 16.05 -18.75 L16.05 -18.05 22.45 -18.05 22.45 -18.05" fill-rule="evenodd" stroke="none"/>
    </g>
    <g id="font_TradeGothic_CondEighteen_l0">
      <path d="M9.45 0.0 L9.45 0.0 9.45 -37.0 3.1 -37.0 3.1 0.0 9.45 0.0 9.45 0.0" fill-rule="evenodd" stroke="none"/>
    </g>
    <g id="font_TradeGothic_CondEighteen_s0">
      <path d="M19.9 -20.65 L19.9 -20.65 Q19.15 -23.9 16.75 -25.9 14.35 -27.95 10.7 -28.0 7.1 -27.95 4.7 -25.9 2.35 -23.9 2.25 -20.6 2.45 -16.95 5.25 -14.75 8.05 -12.55 10.85 -10.75 13.7 -9.0 13.9 -6.75 13.7 -4.45 11.25 -4.4 9.25 -4.45 8.35 -5.65 7.45 -6.9 7.2 -8.65 L1.55 -7.3 Q3.0 0.15 11.2 0.4 15.05 0.4 17.5 -1.5 19.95 -3.35 20.0 -7.05 19.8 -11.0 17.0 -13.3 14.2 -15.65 11.35 -17.3 8.55 -19.0 8.35 -21.05 8.5 -23.15 10.95 -23.2 13.8 -23.15 14.4 -19.8 L19.9 -20.65 19.9 -20.65" fill-rule="evenodd" stroke="none"/>
    </g>
    <g id="font_TradeGothic_CondEighteen_u0">
      <path d="M15.65 -27.6 L15.65 -27.6 15.65 -6.1 Q13.55 -4.5 11.65 -4.4 9.6 -4.35 9.45 -6.35 L9.45 -27.6 3.1 -27.6 3.1 -5.45 Q3.25 0.2 8.45 0.4 11.0 0.45 12.55 -0.4 14.1 -1.2 15.95 -2.75 L15.95 0.0 22.0 0.0 22.0 -27.6 15.65 -27.6 15.65 -27.6" fill-rule="evenodd" stroke="none"/>
    </g>
    <g id="font_TradeGothic_CondEighteen_f0">
      <path d="M4.2 0.0 L4.2 0.0 10.55 0.0 10.55 -22.8 14.2 -22.8 14.2 -27.6 10.55 -27.6 10.55 -30.8 Q10.45 -32.65 12.65 -32.6 L14.45 -32.6 14.45 -37.4 11.3 -37.4 Q4.4 -37.45 4.2 -30.85 L4.2 -27.6 0.5 -27.6 0.5 -22.8 4.2 -22.8 4.2 0.0 4.2 0.0" fill-rule="evenodd" stroke="none"/>
    </g>
    <g id="font_TradeGothic_CondEighteen_y0">
      <path d="M11.1 -9.9 L11.1 -9.9 11.0 -9.9 6.9 -27.6 0.45 -27.6 7.1 -4.1 Q7.7 -2.15 7.75 -0.45 8.05 4.0 3.6 4.0 L2.05 4.0 2.05 8.8 4.7 8.8 Q8.25 8.85 10.3 7.35 12.4 5.85 13.35 2.1 L21.35 -27.6 14.95 -27.6 11.1 -9.9 11.1 -9.9" fill-rule="evenodd" stroke="none"/>
    </g>
    <g id="font_TradeGothic_CondEighteen_T0">
      <path d="M7.5 0.0 L7.5 0.0 14.55 0.0 14.55 -31.4 21.3 -31.4 21.3 -37.0 0.75 -37.0 0.75 -31.4 7.5 -31.4 7.5 0.0 7.5 0.0" fill-rule="evenodd" stroke="none"/>
    </g>
    <g id="font_TradeGothic_CondEighteen_n0">
      <path d="M9.45 0.0 L9.45 0.0 9.45 -21.45 Q11.55 -23.05 13.45 -23.2 15.5 -23.25 15.65 -21.2 L15.65 0.0 22.0 0.0 22.0 -22.1 Q21.85 -27.75 16.65 -28.0 14.1 -28.05 12.55 -27.2 L9.15 -24.8 9.15 -27.55 3.1 -27.55 3.1 0.0 9.45 0.0 9.45 0.0" fill-rule="evenodd" stroke="none"/>
    </g>
    <g id="font_TradeGothic_CondEighteen_.0">
      <path d="M9.65 0.0 L9.65 0.0 9.65 -6.15 2.9 -6.15 2.9 0.0 9.65 0.0 9.65 0.0" fill-rule="evenodd" stroke="none"/>
    </g>
    <g id="text1" transform="matrix(1.0, 0.0, 0.0, 1.0, 171.85, -6.95)">
      <g transform="matrix(1.0, 0.0, 0.0, 1.0, -174.4, 0.0)">
        <use fill="#ffffff" fill-opacity="0.38039216" height="43.3" transform="matrix(0.9375, 0.0, 0.0, 0.9375, 0.0, 42.0)" width="489.45" xlink:href="#font_TradeGothic_CondEighteen_o0"/>
        <use fill="#ffffff" fill-opacity="0.38039216" height="43.3" transform="matrix(0.9375, 0.0, 0.0, 0.9375, 20.4, 42.0)" width="489.45" xlink:href="#font_TradeGothic_CondEighteen_t0"/>
        <use fill="#ffffff" fill-opacity="0.38039216" height="43.3" transform="matrix(0.9375, 0.0, 0.0, 0.9375, 32.85, 42.0)" width="489.45" xlink:href="#font_TradeGothic_CondEighteen_h0"/>
        <use fill="#ffffff" fill-opacity="0.38039216" height="43.3" transform="matrix(0.9375, 0.0, 0.0, 0.9375, 53.25, 42.0)" width="489.45" xlink:href="#font_TradeGothic_CondEighteen_e0"/>
        <use fill="#ffffff" fill-opacity="0.38039216" height="43.3" transform="matrix(0.9375, 0.0, 0.0, 0.9375, 73.65, 42.0)" width="489.45" xlink:href="#font_TradeGothic_CondEighteen_r0"/>
        <use fill="#ffffff" fill-opacity="0.38039216" height="43.3" transform="matrix(0.9375, 0.0, 0.0, 0.9375, 98.5, 42.0)" width="489.45" xlink:href="#font_TradeGothic_CondEighteen_c0"/>
        <use fill="#ffffff" fill-opacity="0.38039216" height="43.3" transform="matrix(0.9375, 0.0, 0.0, 0.9375, 118.9, 42.0)" width="489.45" xlink:href="#font_TradeGothic_CondEighteen_o0"/>
        <use fill="#ffffff" fill-opacity="0.38039216" height="43.3" transform="matrix(0.9375, 0.0, 0.0, 0.9375, 139.3, 42.0)" width="489.45" xlink:href="#font_TradeGothic_CondEighteen_o0"/>
        <use fill="#ffffff" fill-opacity="0.38039216" height="43.3" transform="matrix(0.9375, 0.0, 0.0, 0.9375, 159.7, 42.0)" width="489.45" xlink:href="#font_TradeGothic_CondEighteen_l0"/>
        <use fill="#ffffff" fill-opacity="0.38039216" height="43.3" transform="matrix(0.9375, 0.0, 0.0, 0.9375, 179.2, 42.0)" width="489.45" xlink:href="#font_TradeGothic_CondEighteen_s0"/>
        <use fill="#ffffff" fill-opacity="0.38039216" height="43.3" transform="matrix(0.9375, 0.0, 0.0, 0.9375, 197.0, 42.0)" width="489.45" xlink:href="#font_TradeGothic_CondEighteen_t0"/>
        <use fill="#ffffff" fill-opacity="0.38039216" height="43.3" transform="matrix(0.9375, 0.0, 0.0, 0.9375, 209.45, 42.0)" width="489.45" xlink:href="#font_TradeGothic_CondEighteen_u0"/>
        <use fill="#ffffff" fill-opacity="0.38039216" height="43.3" transform="matrix(0.9375, 0.0, 0.0, 0.9375, 229.85, 42.0)" width="489.45" xlink:href="#font_TradeGothic_CondEighteen_f0"/>
        <use fill="#ffffff" fill-opacity="0.38039216" height="43.3" transform="matrix(0.9375, 0.0, 0.0, 0.9375, 242.3, 42.0)" width="489.45" xlink:href="#font_TradeGothic_CondEighteen_f0"/>
        <use fill="#ffffff" fill-opacity="0.38039216" height="43.3" transform="matrix(0.9375, 0.0, 0.0, 0.9375, 264.5, 42.0)" width="489.45" xlink:href="#font_TradeGothic_CondEighteen_f0"/>
        <use fill="#ffffff" fill-opacity="0.38039216" height="43.3" transform="matrix(0.9375, 0.0, 0.0, 0.9375, 276.95, 42.0)" width="489.45" xlink:href="#font_TradeGothic_CondEighteen_o0"/>
        <use fill="#ffffff" fill-opacity="0.38039216" height="43.3" transform="matrix(0.9375, 0.0, 0.0, 0.9375, 297.35, 42.0)" width="489.45" xlink:href="#font_TradeGothic_CondEighteen_r0"/>
        <use fill="#ffffff" fill-opacity="0.38039216" height="43.3" transform="matrix(0.9375, 0.0, 0.0, 0.9375, 322.2, 42.0)" width="489.45" xlink:href="#font_TradeGothic_CondEighteen_y0"/>
        <use fill="#ffffff" fill-opacity="0.38039216" height="43.3" transform="matrix(0.9375, 0.0, 0.0, 0.9375, 340.0, 42.0)" width="489.45" xlink:href="#font_TradeGothic_CondEighteen_o0"/>
        <use fill="#ffffff" fill-opacity="0.38039216" height="43.3" transform="matrix(0.9375, 0.0, 0.0, 0.9375, 360.45, 42.0)" width="489.45" xlink:href="#font_TradeGothic_CondEighteen_u0"/>
        <use fill="#ffffff" fill-opacity="0.38039216" height="43.3" transform="matrix(0.9375, 0.0, 0.0, 0.9375, 380.85, 42.0)" width="489.45" xlink:href="#font_TradeGothic_CondEighteen_r0"/>
        <use fill="#ffffff" fill-opacity="0.38039216" height="43.3" transform="matrix(0.9375, 0.0, 0.0, 0.9375, 405.7, 42.0)" width="489.45" xlink:href="#font_TradeGothic_CondEighteen_T0"/>
        <use fill="#ffffff" fill-opacity="0.38039216" height="43.3" transform="matrix(0.9375, 0.0, 0.0, 0.9375, 421.7, 42.0)" width="489.45" xlink:href="#font_TradeGothic_CondEighteen_o0"/>
        <use fill="#ffffff" fill-opacity="0.38039216" height="43.3" transform="matrix(0.9375, 0.0, 0.0, 0.9375, 442.1, 42.0)" width="489.45" xlink:href="#font_TradeGothic_CondEighteen_o0"/>
        <use fill="#ffffff" fill-opacity="0.38039216" height="43.3" transform="matrix(0.9375, 0.0, 0.0, 0.9375, 462.5, 42.0)" width="489.45" xlink:href="#font_TradeGothic_CondEighteen_n0"/>
        <use fill="#ffffff" fill-opacity="0.38039216" height="43.3" transform="matrix(0.9375, 0.0, 0.0, 0.9375, 482.9, 42.0)" width="489.45" xlink:href="#font_TradeGothic_CondEighteen_.0"/>
      </g>
    </g>
  </defs>
</svg>
