<?xml version="1.0" encoding="UTF-8" standalone="no"?>
<svg xmlns:xlink="http://www.w3.org/1999/xlink" height="375.0px" width="500.0px" xmlns="http://www.w3.org/2000/svg">
  <g transform="matrix(1.0, 0.0, 0.0, 1.0, 0.0, 0.0)">
    <use height="50.95" transform="matrix(1.2063, 0.0, 0.0, 9.7722, -81.4532, -58.6094)" width="549.55" xlink:href="#shape0"/>
    <use height="17.5" transform="matrix(1.0, 0.0, 0.0, 1.0, 123.2, 184.0)" width="257.95" xlink:href="#text0"/>
    <use height="17.45" transform="matrix(1.0, 0.0, 0.0, 1.0, 129.5, 204.05)" width="243.35" xlink:href="#text1"/>
    <use height="17.5" transform="matrix(1.0, 0.0, 0.0, 1.0, 124.1, 182.0)" width="257.35" xlink:href="#text2"/>
    <use height="17.45" transform="matrix(1.0, 0.0, 0.0, 1.0, 130.45, 202.05)" width="242.95" xlink:href="#text3"/>
    <use height="50.95" transform="matrix(0.9636, 0.0, 0.0, 0.9627, -9.5332, -1.0669)" width="549.55" xlink:href="#shape0"/>
    <use height="50.95" transform="matrix(1.0, 0.0, 0.0, 1.0, -19.55, 327.0)" width="549.55" xlink:href="#shape0"/>
    <use height="384.0" transform="matrix(1.1243, 0.0, 0.0, 0.7604, -21.9956, 56.999)" width="506.95" xlink:href="#shape1"/>
    <use height="50.95" transform="matrix(0.9636, 0.0, 0.0, 0.9627, -9.5332, -1.0669)" width="549.55" xlink:href="#shape0"/>
    <use height="50.95" transform="matrix(1.0, 0.0, 0.0, 1.0, -19.55, 327.0)" width="549.55" xlink:href="#shape0"/>
  </g>
  <defs>
    <g id="shape0" transform="matrix(1.0, 0.0, 0.0, 1.0, 269.75, -138.55)">
      <path d="M279.8 189.5 L-269.75 189.5 -269.75 138.55 279.8 138.55 279.8 189.5" fill="#000000" fill-rule="evenodd" stroke="none"/>
    </g>
    <g id="text0" transform="matrix(1.0, 0.0, 0.0, 1.0, 55.8, -3.45)">
      <g transform="matrix(1.0, 0.0, 0.0, 1.0, -56.9, 0.0)">
        <use fill="#000000" fill-opacity="0.9607843" height="17.5" transform="matrix(0.3906, 0.0, 0.0, 0.3906, 0.0, 18.0)" width="257.95" xlink:href="#font_Franklin_Gothic_Condensed_R0"/>
        <use fill="#000000" fill-opacity="0.9607843" height="17.5" transform="matrix(0.3906, 0.0, 0.0, 0.3906, 10.65, 18.0)" width="257.95" xlink:href="#font_Franklin_Gothic_Condensed_o0"/>
        <use fill="#000000" fill-opacity="0.9607843" height="17.5" transform="matrix(0.3906, 0.0, 0.0, 0.3906, 19.8, 18.0)" width="257.95" xlink:href="#font_Franklin_Gothic_Condensed_b0"/>
        <use fill="#000000" fill-opacity="0.9607843" height="17.5" transform="matrix(0.3906, 0.0, 0.0, 0.3906, 29.3, 18.0)" width="257.95" xlink:href="#font_Franklin_Gothic_Condensed_o0"/>
        <use fill="#000000" fill-opacity="0.9607843" height="17.5" transform="matrix(0.3906, 0.0, 0.0, 0.3906, 38.45, 18.0)" width="257.95" xlink:href="#font_Franklin_Gothic_Condensed_t0"/>
        <use fill="#000000" fill-opacity="0.9607843" height="17.5" transform="matrix(0.3906, 0.0, 0.0, 0.3906, 49.1, 18.0)" width="257.95" xlink:href="#font_Franklin_Gothic_Condensed_C0"/>
        <use fill="#000000" fill-opacity="0.9607843" height="17.5" transform="matrix(0.3906, 0.0, 0.0, 0.3906, 59.75, 18.0)" width="257.95" xlink:href="#font_Franklin_Gothic_Condensed_o0"/>
        <use fill="#000000" fill-opacity="0.9607843" height="17.5" transform="matrix(0.3906, 0.0, 0.0, 0.3906, 68.9, 18.0)" width="257.95" xlink:href="#font_Franklin_Gothic_Condensed_g0"/>
        <use fill="#000000" fill-opacity="0.9607843" height="17.5" transform="matrix(0.3906, 0.0, 0.0, 0.3906, 78.0, 18.0)" width="257.95" xlink:href="#font_Franklin_Gothic_Condensed_s0"/>
        <use fill="#000000" fill-opacity="0.9607843" height="17.5" transform="matrix(0.3906, 0.0, 0.0, 0.3906, 90.95, 18.0)" width="257.95" xlink:href="#font_Franklin_Gothic_Condensed_a0"/>
        <use fill="#000000" fill-opacity="0.9607843" height="17.5" transform="matrix(0.3906, 0.0, 0.0, 0.3906, 100.1, 18.0)" width="257.95" xlink:href="#font_Franklin_Gothic_Condensed_r0"/>
        <use fill="#000000" fill-opacity="0.9607843" height="17.5" transform="matrix(0.3906, 0.0, 0.0, 0.3906, 106.65, 18.0)" width="257.95" xlink:href="#font_Franklin_Gothic_Condensed_e0"/>
        <use fill="#000000" fill-opacity="0.9607843" height="17.5" transform="matrix(0.3906, 0.0, 0.0, 0.3906, 120.25, 18.0)" width="257.95" xlink:href="#font_Franklin_Gothic_Condensed_t0"/>
        <use fill="#000000" fill-opacity="0.9607843" height="17.5" transform="matrix(0.3906, 0.0, 0.0, 0.3906, 126.05, 18.0)" width="257.95" xlink:href="#font_Franklin_Gothic_Condensed_r0"/>
        <use fill="#000000" fill-opacity="0.9607843" height="17.5" transform="matrix(0.3906, 0.0, 0.0, 0.3906, 132.6, 18.0)" width="257.95" xlink:href="#font_Franklin_Gothic_Condensed_y0"/>
        <use fill="#000000" fill-opacity="0.9607843" height="17.5" transform="matrix(0.3906, 0.0, 0.0, 0.3906, 140.25, 18.0)" width="257.95" xlink:href="#font_Franklin_Gothic_Condensed_i0"/>
        <use fill="#000000" fill-opacity="0.9607843" height="17.5" transform="matrix(0.3906, 0.0, 0.0, 0.3906, 144.55, 18.0)" width="257.95" xlink:href="#font_Franklin_Gothic_Condensed_n0"/>
        <use fill="#000000" fill-opacity="0.9607843" height="17.5" transform="matrix(0.3906, 0.0, 0.0, 0.3906, 154.05, 18.0)" width="257.95" xlink:href="#font_Franklin_Gothic_Condensed_g0"/>
        <use fill="#000000" fill-opacity="0.9607843" height="17.5" transform="matrix(0.3906, 0.0, 0.0, 0.3906, 168.05, 18.0)" width="257.95" xlink:href="#font_Franklin_Gothic_Condensed_t0"/>
        <use fill="#000000" fill-opacity="0.9607843" height="17.5" transform="matrix(0.3906, 0.0, 0.0, 0.3906, 173.85, 18.0)" width="257.95" xlink:href="#font_Franklin_Gothic_Condensed_o0"/>
        <use fill="#000000" fill-opacity="0.9607843" height="17.5" transform="matrix(0.3906, 0.0, 0.0, 0.3906, 187.85, 18.0)" width="257.95" xlink:href="#font_Franklin_Gothic_Condensed_t0"/>
        <use fill="#000000" fill-opacity="0.9607843" height="17.5" transform="matrix(0.3906, 0.0, 0.0, 0.3906, 193.65, 18.0)" width="257.95" xlink:href="#font_Franklin_Gothic_Condensed_a0"/>
        <use fill="#000000" fill-opacity="0.9607843" height="17.5" transform="matrix(0.3906, 0.0, 0.0, 0.3906, 202.75, 18.0)" width="257.95" xlink:href="#font_Franklin_Gothic_Condensed_k0"/>
        <use fill="#000000" fill-opacity="0.9607843" height="17.5" transform="matrix(0.3906, 0.0, 0.0, 0.3906, 211.9, 18.0)" width="257.95" xlink:href="#font_Franklin_Gothic_Condensed_e0"/>
        <use fill="#000000" fill-opacity="0.9607843" height="17.5" transform="matrix(0.3906, 0.0, 0.0, 0.3906, 225.55, 18.0)" width="257.95" xlink:href="#font_Franklin_Gothic_Condensed_o0"/>
        <use fill="#000000" fill-opacity="0.9607843" height="17.5" transform="matrix(0.3906, 0.0, 0.0, 0.3906, 234.7, 18.0)" width="257.95" xlink:href="#font_Franklin_Gothic_Condensed_v0"/>
        <use fill="#000000" fill-opacity="0.9607843" height="17.5" transform="matrix(0.3906, 0.0, 0.0, 0.3906, 242.35, 18.0)" width="257.95" xlink:href="#font_Franklin_Gothic_Condensed_e0"/>
        <use fill="#000000" fill-opacity="0.9607843" height="17.5" transform="matrix(0.3906, 0.0, 0.0, 0.3906, 251.1, 18.0)" width="257.95" xlink:href="#font_Franklin_Gothic_Condensed_r0"/>
      </g>
    </g>
    <g id="font_Franklin_Gothic_Condensed_R0">
      <path d="M12.75 -29.6 L12.75 -29.6 14.5 -29.6 Q17.15 -29.7 19.1 -28.95 21.05 -28.25 21.15 -25.55 20.85 -21.4 14.75 -21.55 L12.75 -21.55 12.75 -29.6 12.75 -29.6 M2.65 0.0 L2.65 0.0 12.75 0.0 12.75 -15.6 16.2 -15.6 21.25 0.0 31.25 0.0 24.55 -17.6 Q30.85 -20.0 31.25 -26.05 31.15 -31.4 27.4 -33.9 23.65 -36.4 17.8 -36.4 L2.65 -36.4 2.65 0.0 2.65 0.0" fill-rule="evenodd" stroke="none"/>
    </g>
    <g id="font_Franklin_Gothic_Condensed_o0">
      <path d="M10.35 -13.0 L10.35 -13.0 Q10.05 -21.35 13.65 -21.0 17.25 -21.35 16.95 -13.0 16.95 -8.25 16.15 -6.5 15.35 -4.7 13.65 -4.75 11.95 -4.7 11.15 -6.5 10.35 -8.25 10.35 -13.0 L10.35 -13.0 M0.9 -13.0 L0.9 -13.0 Q0.85 -6.95 4.0 -3.25 7.15 0.5 13.65 0.6 20.15 0.5 23.3 -3.25 26.45 -6.95 26.4 -13.0 26.4 -18.8 23.25 -22.5 20.05 -26.25 13.65 -26.4 7.25 -26.25 4.05 -22.5 0.9 -18.8 0.9 -13.0 L0.9 -13.0" fill-rule="evenodd" stroke="none"/>
    </g>
    <g id="font_Franklin_Gothic_Condensed_b0">
      <path d="M2.9 0.0 L2.9 0.0 7.65 0.0 9.35 -3.7 Q11.9 0.25 16.95 0.4 22.6 0.1 25.0 -4.2 27.35 -8.5 27.3 -13.2 27.3 -18.95 24.8 -22.6 22.35 -26.25 17.6 -26.4 14.6 -26.1 12.2 -24.2 L12.1 -24.2 12.1 -36.4 2.9 -36.4 2.9 0.0 2.9 0.0 M12.1 -20.3 L12.1 -20.3 12.6 -20.75 Q13.4 -21.6 15.1 -21.8 17.05 -21.8 17.5 -19.8 17.9 -17.85 17.85 -14.0 L17.85 -12.05 Q17.9 -8.45 17.35 -6.7 16.8 -4.95 15.0 -4.95 12.15 -5.0 12.1 -8.3 L12.1 -20.3 12.1 -20.3" fill-rule="evenodd" stroke="none"/>
    </g>
    <g id="font_Franklin_Gothic_Condensed_t0">
      <path d="M3.1 -6.0 L3.1 -6.0 Q3.35 0.8 10.9 0.6 L17.35 -0.1 17.35 -6.2 15.25 -5.95 Q13.15 -6.0 12.7 -6.85 12.25 -7.7 12.3 -9.05 L12.3 -19.8 17.35 -19.8 17.35 -25.75 12.3 -25.75 12.3 -35.0 3.1 -35.0 3.1 -25.75 -0.6 -25.75 -0.6 -19.8 3.1 -19.8 3.1 -6.0 3.1 -6.0" fill-rule="evenodd" stroke="none"/>
    </g>
    <g id="font_Franklin_Gothic_Condensed_C0">
      <path d="M30.15 -23.65 L30.15 -23.65 Q30.2 -29.45 26.75 -33.25 23.35 -37.05 16.1 -37.2 7.0 -36.8 3.65 -30.95 0.25 -25.15 0.45 -18.2 0.3 -10.8 3.65 -5.15 7.05 0.5 16.1 0.8 22.75 0.7 26.45 -2.9 30.1 -6.5 30.15 -12.6 L21.35 -13.3 Q21.25 -9.85 20.3 -7.95 19.3 -6.0 16.55 -6.0 13.15 -6.05 12.25 -9.25 11.35 -12.45 11.45 -18.15 11.35 -23.35 12.3 -26.8 13.25 -30.25 16.35 -30.4 19.0 -30.2 19.9 -27.95 20.75 -25.7 20.7 -23.65 L30.15 -23.65 30.15 -23.65" fill-rule="evenodd" stroke="none"/>
    </g>
    <g id="font_Franklin_Gothic_Condensed_g0">
      <path d="M12.95 -22.6 L12.95 -22.6 Q14.65 -22.55 15.4 -21.25 16.1 -20.0 16.1 -18.4 16.15 -16.75 15.45 -15.4 14.75 -14.05 12.95 -13.95 11.2 -14.05 10.55 -15.35 9.85 -16.6 9.9 -18.05 9.85 -19.6 10.5 -21.05 11.1 -22.5 12.95 -22.6 L12.95 -22.6 M12.85 -1.2 L12.85 -1.2 16.5 -0.9 Q18.7 -0.55 18.95 1.05 18.75 2.6 16.65 2.95 L12.75 3.2 9.1 2.9 Q7.0 2.5 6.8 1.05 7.05 -0.55 9.35 -0.9 L12.85 -1.2 12.85 -1.2 M27.95 -27.95 L27.95 -27.95 Q25.75 -27.9 23.5 -26.8 21.3 -25.7 20.65 -24.5 17.35 -26.4 13.0 -26.35 9.2 -26.4 5.45 -24.5 1.65 -22.55 1.35 -18.2 1.3 -13.7 6.65 -11.5 L6.65 -11.4 Q4.75 -10.95 3.0 -9.65 1.25 -8.35 1.1 -6.45 1.25 -3.05 5.05 -2.2 L5.05 -2.1 Q2.95 -1.8 1.35 -0.8 -0.3 0.25 -0.4 2.25 -0.25 4.7 2.3 5.85 4.85 7.0 7.95 7.3 L12.75 7.6 Q19.1 7.6 22.9 5.6 26.75 3.55 26.85 -0.3 26.55 -5.0 22.5 -6.25 18.4 -7.55 14.1 -7.4 L10.2 -7.6 Q8.65 -7.9 8.6 -9.15 8.9 -10.05 9.55 -10.6 L13.4 -10.2 Q17.4 -10.2 20.9 -12.1 24.4 -14.05 24.65 -17.85 24.6 -20.2 23.1 -22.05 23.55 -22.55 24.65 -22.6 26.65 -22.5 27.95 -21.3 L27.95 -27.95 27.95 -27.95" fill-rule="evenodd" stroke="none"/>
    </g>
    <g id="font_Franklin_Gothic_Condensed_s0">
      <path d="M23.25 -19.25 L23.25 -19.25 Q21.9 -23.05 18.9 -24.75 15.9 -26.4 12.4 -26.4 6.4 -26.15 3.85 -23.35 1.3 -20.5 1.35 -18.25 1.6 -14.0 4.95 -12.35 8.3 -10.65 11.6 -9.75 14.95 -8.85 15.2 -6.85 15.05 -5.1 12.4 -5.0 10.45 -5.05 9.35 -6.1 8.25 -7.2 7.5 -8.7 L0.45 -6.7 Q1.55 -3.5 4.6 -1.45 7.65 0.55 12.4 0.6 17.5 0.6 20.6 -1.7 23.65 -4.0 23.75 -8.2 23.5 -12.25 20.15 -13.9 16.8 -15.55 13.5 -16.5 10.15 -17.45 9.9 -19.35 9.85 -20.8 12.55 -21.0 14.2 -20.95 15.2 -19.95 16.2 -18.95 16.8 -17.75 L23.25 -19.25 23.25 -19.25" fill-rule="evenodd" stroke="none"/>
    </g>
    <g id="font_Franklin_Gothic_Condensed_a0">
      <path d="M15.4 -6.6 L15.4 -6.6 Q13.8 -4.9 12.65 -5.0 10.2 -5.0 10.1 -7.75 10.15 -10.5 11.55 -11.35 12.9 -12.25 15.4 -12.4 L15.4 -6.6 15.4 -6.6 M15.4 -16.4 L15.4 -16.4 Q10.65 -16.35 5.95 -14.4 1.25 -12.4 0.9 -7.3 1.3 0.4 9.1 0.6 13.3 0.45 15.7 -2.4 L16.0 0.0 25.5 0.0 Q24.8 -0.15 24.65 -4.15 L24.65 -18.4 Q24.45 -22.7 21.1 -24.55 17.75 -26.45 13.5 -26.4 9.6 -26.4 6.4 -24.7 3.25 -22.95 2.35 -19.1 L10.35 -17.65 Q10.45 -18.8 11.05 -19.85 11.7 -20.9 13.15 -21.0 15.45 -20.65 15.4 -18.0 L15.4 -16.4 15.4 -16.4" fill-rule="evenodd" stroke="none"/>
    </g>
    <g id="font_Franklin_Gothic_Condensed_r0">
      <path d="M2.45 0.0 L2.45 0.0 11.65 0.0 11.65 -16.6 Q12.25 -17.55 13.3 -18.1 L16.55 -18.6 Q18.45 -18.55 20.25 -17.9 L20.25 -26.35 Q17.45 -26.4 14.9 -25.3 12.4 -24.25 11.45 -21.8 L11.35 -21.8 11.5 -25.75 2.45 -25.75 2.45 0.0 2.45 0.0" fill-rule="evenodd" stroke="none"/>
    </g>
    <g id="font_Franklin_Gothic_Condensed_e0">
      <path d="M10.1 -16.0 L10.1 -16.0 Q10.1 -17.85 10.8 -19.35 11.55 -20.9 13.4 -21.0 15.65 -20.9 16.2 -19.35 16.8 -17.85 16.75 -16.0 L10.1 -16.0 10.1 -16.0 M25.3 -11.0 L25.3 -11.0 25.3 -12.75 Q25.35 -18.0 22.65 -22.1 19.95 -26.15 13.45 -26.4 7.2 -26.25 4.05 -22.4 0.9 -18.55 0.9 -12.9 0.9 -7.4 4.0 -3.5 7.1 0.45 13.55 0.6 19.55 0.3 22.1 -2.5 24.7 -5.25 24.9 -6.45 L18.7 -8.45 Q17.6 -5.2 14.1 -5.0 11.6 -5.15 10.8 -7.15 10.05 -9.15 10.1 -11.0 L25.3 -11.0 25.3 -11.0" fill-rule="evenodd" stroke="none"/>
    </g>
    <g id="font_Franklin_Gothic_Condensed_y0">
      <path d="M-0.4 -25.8 L-0.4 -25.8 6.95 -3.7 7.3 -1.45 Q7.25 0.3 5.8 1.0 L2.2 1.65 -0.25 1.4 -0.25 7.4 2.45 7.6 Q6.55 7.65 9.55 6.15 12.5 4.6 14.0 0.6 L23.55 -25.8 16.35 -25.8 12.45 -10.95 12.35 -10.95 9.0 -25.8 -0.4 -25.8 -0.4 -25.8" fill-rule="evenodd" stroke="none"/>
    </g>
    <g id="font_Franklin_Gothic_Condensed_i0">
      <path d="M2.25 -29.0 L2.25 -29.0 11.45 -29.0 11.45 -36.35 2.25 -36.35 2.25 -29.0 2.25 -29.0 M2.25 0.0 L2.25 0.0 11.45 0.0 11.45 -25.8 2.25 -25.8 2.25 0.0 2.25 0.0" fill-rule="evenodd" stroke="none"/>
    </g>
    <g id="font_Franklin_Gothic_Condensed_n0">
      <path d="M2.45 0.0 L2.45 0.0 11.65 0.0 11.65 -18.7 12.15 -19.35 Q13.05 -20.4 14.4 -20.4 16.7 -20.3 16.5 -18.1 L16.5 0.0 25.75 0.0 25.75 -20.45 Q25.45 -26.1 19.65 -26.4 14.6 -26.3 11.75 -22.2 L11.65 -22.2 11.65 -25.75 2.45 -25.75 2.45 0.0 2.45 0.0" fill-rule="evenodd" stroke="none"/>
    </g>
    <g id="font_Franklin_Gothic_Condensed_k0">
      <path d="M2.45 0.0 L2.45 0.0 11.65 0.0 11.65 -9.6 13.8 -11.8 13.9 -11.8 18.15 0.0 27.6 0.0 20.15 -18.4 27.25 -25.75 18.9 -25.75 11.75 -17.75 11.65 -17.75 11.65 -36.4 2.45 -36.4 2.45 0.0 2.45 0.0" fill-rule="evenodd" stroke="none"/>
    </g>
    <g id="font_Franklin_Gothic_Condensed_v0">
      <path d="M7.55 0.0 L7.55 0.0 14.45 0.0 23.55 -25.8 16.3 -25.8 12.35 -11.8 12.25 -11.8 9.0 -25.8 -0.45 -25.8 7.55 0.0 7.55 0.0" fill-rule="evenodd" stroke="none"/>
    </g>
    <g id="text1" transform="matrix(1.0, 0.0, 0.0, 1.0, 49.5, -3.5)">
      <g transform="matrix(1.0, 0.0, 0.0, 1.0, -49.9, 0.0)">
        <use fill="#000000" fill-opacity="0.9607843" height="17.45" transform="matrix(0.3906, 0.0, 0.0, 0.3906, 0.0, 18.0)" width="243.35" xlink:href="#font_Franklin_Gothic_Condensed_a0"/>
        <use fill="#000000" fill-opacity="0.9607843" height="17.45" transform="matrix(0.3906, 0.0, 0.0, 0.3906, 9.15, 18.0)" width="243.35" xlink:href="#font_Franklin_Gothic_Condensed_n0"/>
        <use fill="#000000" fill-opacity="0.9607843" height="17.45" transform="matrix(0.3906, 0.0, 0.0, 0.3906, 18.65, 18.0)" width="243.35" xlink:href="#font_Franklin_Gothic_Condensed_d0"/>
        <use fill="#000000" fill-opacity="0.9607843" height="17.45" transform="matrix(0.3906, 0.0, 0.0, 0.3906, 33.0, 18.0)" width="243.35" xlink:href="#font_Franklin_Gothic_Condensed_p0"/>
        <use fill="#000000" fill-opacity="0.9607843" height="17.45" transform="matrix(0.3906, 0.0, 0.0, 0.3906, 42.5, 18.0)" width="243.35" xlink:href="#font_Franklin_Gothic_Condensed_u0"/>
        <use fill="#000000" fill-opacity="0.9607843" height="17.45" transform="matrix(0.3906, 0.0, 0.0, 0.3906, 52.0, 18.0)" width="243.35" xlink:href="#font_Franklin_Gothic_Condensed_t0"/>
        <use fill="#000000" fill-opacity="0.9607843" height="17.45" transform="matrix(0.3906, 0.0, 0.0, 0.3906, 62.65, 18.0)" width="243.35" xlink:href="#font_Franklin_Gothic_Condensed_a0"/>
        <use fill="#000000" fill-opacity="0.9607843" height="17.45" transform="matrix(0.3906, 0.0, 0.0, 0.3906, 71.8, 18.0)" width="243.35" xlink:href="#font_Franklin_Gothic_Condensed_n0"/>
        <use fill="#000000" fill-opacity="0.9607843" height="17.45" transform="matrix(0.3906, 0.0, 0.0, 0.3906, 86.15, 18.0)" width="243.35" xlink:href="#font_Franklin_Gothic_Condensed_e0"/>
        <use fill="#000000" fill-opacity="0.9607843" height="17.45" transform="matrix(0.3906, 0.0, 0.0, 0.3906, 94.9, 18.0)" width="243.35" xlink:href="#font_Franklin_Gothic_Condensed_n0"/>
        <use fill="#000000" fill-opacity="0.9607843" height="17.45" transform="matrix(0.3906, 0.0, 0.0, 0.3906, 104.4, 18.0)" width="243.35" xlink:href="#font_Franklin_Gothic_Condensed_d0"/>
        <use fill="#000000" fill-opacity="0.9607843" height="17.45" transform="matrix(0.3906, 0.0, 0.0, 0.3906, 118.75, 18.0)" width="243.35" xlink:href="#font_Franklin_Gothic_Condensed_t0"/>
        <use fill="#000000" fill-opacity="0.9607843" height="17.45" transform="matrix(0.3906, 0.0, 0.0, 0.3906, 124.55, 18.0)" width="243.35" xlink:href="#font_Franklin_Gothic_Condensed_o0"/>
        <use fill="#000000" fill-opacity="0.9607843" height="17.45" transform="matrix(0.3906, 0.0, 0.0, 0.3906, 138.55, 18.0)" width="243.35" xlink:href="#font_Franklin_Gothic_Condensed_a0"/>
        <use fill="#000000" fill-opacity="0.9607843" height="17.45" transform="matrix(0.3906, 0.0, 0.0, 0.3906, 147.7, 18.0)" width="243.35" xlink:href="#font_Franklin_Gothic_Condensed_l0"/>
        <use fill="#000000" fill-opacity="0.9607843" height="17.45" transform="matrix(0.3906, 0.0, 0.0, 0.3906, 152.0, 18.0)" width="243.35" xlink:href="#font_Franklin_Gothic_Condensed_l0"/>
        <use fill="#000000" fill-opacity="0.9607843" height="17.45" transform="matrix(0.3906, 0.0, 0.0, 0.3906, 161.15, 18.0)" width="243.35" xlink:href="#font_Franklin_Gothic_Condensed_T0"/>
        <use fill="#000000" fill-opacity="0.9607843" height="17.45" transform="matrix(0.3906, 0.0, 0.0, 0.3906, 168.8, 18.0)" width="243.35" xlink:href="#font_Franklin_Gothic_Condensed_o0"/>
        <use fill="#000000" fill-opacity="0.9607843" height="17.45" transform="matrix(0.3906, 0.0, 0.0, 0.3906, 177.95, 18.0)" width="243.35" xlink:href="#font_Franklin_Gothic_Condensed_o0"/>
        <use fill="#000000" fill-opacity="0.9607843" height="17.45" transform="matrix(0.3906, 0.0, 0.0, 0.3906, 187.1, 18.0)" width="243.35" xlink:href="#font_Franklin_Gothic_Condensed_n0"/>
        <use fill="#000000" fill-opacity="0.9607843" height="17.45" transform="matrix(0.3906, 0.0, 0.0, 0.3906, 196.6, 18.0)" width="243.35" xlink:href="#font_Franklin_Gothic_Condensed_s0"/>
        <use fill="#000000" fill-opacity="0.9607843" height="17.45" transform="matrix(0.3906, 0.0, 0.0, 0.3906, 204.6, 18.0)" width="243.35" xlink:href="#font_Franklin_Gothic_Condensed__1"/>
        <use fill="#000000" fill-opacity="0.9607843" height="17.45" transform="matrix(0.3906, 0.0, 0.0, 0.3906, 214.35, 18.0)" width="243.35" xlink:href="#font_Franklin_Gothic_Condensed_f0"/>
        <use fill="#000000" fill-opacity="0.9607843" height="17.45" transform="matrix(0.3906, 0.0, 0.0, 0.3906, 219.8, 18.0)" width="243.35" xlink:href="#font_Franklin_Gothic_Condensed_u0"/>
        <use fill="#000000" fill-opacity="0.9607843" height="17.45" transform="matrix(0.3906, 0.0, 0.0, 0.3906, 229.3, 18.0)" width="243.35" xlink:href="#font_Franklin_Gothic_Condensed_n0"/>
        <use fill="#000000" fill-opacity="0.9607843" height="17.45" transform="matrix(0.3906, 0.0, 0.0, 0.3906, 238.8, 18.0)" width="243.35" xlink:href="#font_Franklin_Gothic_Condensed_.0"/>
      </g>
    </g>
    <g id="font_Franklin_Gothic_Condensed_d0">
      <path d="M16.1 -6.5 L16.1 -6.5 Q14.95 -4.7 12.85 -4.6 11.1 -4.65 10.7 -6.9 10.3 -9.2 10.35 -13.2 10.25 -15.65 10.7 -18.2 11.1 -20.8 13.25 -21.0 15.3 -20.9 16.1 -19.8 L16.1 -6.5 16.1 -6.5 M25.3 -36.4 L25.3 -36.4 16.1 -36.4 16.1 -23.4 Q13.85 -25.75 10.25 -25.75 4.95 -25.6 2.9 -21.55 0.8 -17.5 0.9 -11.85 0.9 -6.8 3.05 -3.3 5.2 0.25 9.7 0.4 L13.1 -0.1 Q14.55 -0.7 16.5 -2.45 L16.6 -2.45 16.6 0.0 25.3 0.0 25.3 -36.4 25.3 -36.4" fill-rule="evenodd" stroke="none"/>
    </g>
    <g id="font_Franklin_Gothic_Condensed_p0">
      <path d="M2.9 7.6 L2.9 7.6 12.1 7.6 12.1 -2.2 Q14.3 0.0 17.6 0.0 23.25 -0.25 25.3 -4.45 27.4 -8.7 27.3 -13.9 26.9 -25.95 18.15 -26.2 14.75 -25.9 11.85 -23.0 L11.75 -23.0 11.75 -25.8 2.9 -25.8 2.9 7.6 2.9 7.6 M12.1 -19.35 L12.1 -19.35 Q12.85 -21.1 15.3 -21.4 17.1 -21.4 17.5 -19.15 17.9 -16.9 17.85 -12.4 17.9 -8.85 17.45 -6.75 16.95 -4.65 14.85 -4.6 13.65 -4.45 12.1 -5.55 L12.1 -19.35 12.1 -19.35" fill-rule="evenodd" stroke="none"/>
    </g>
    <g id="font_Franklin_Gothic_Condensed_u0">
      <path d="M25.75 -25.8 L25.75 -25.8 16.5 -25.8 16.5 -7.05 16.05 -6.45 Q15.15 -5.35 13.75 -5.35 11.5 -5.5 11.65 -7.65 L11.65 -25.8 2.45 -25.8 2.45 -5.3 Q2.7 0.4 8.55 0.6 13.55 0.55 16.4 -3.4 L16.5 -3.4 16.5 0.0 25.75 0.0 25.75 -25.8 25.75 -25.8" fill-rule="evenodd" stroke="none"/>
    </g>
    <g id="font_Franklin_Gothic_Condensed_l0">
      <path d="M2.25 0.0 L2.25 0.0 11.45 0.0 11.45 -36.4 2.25 -36.4 2.25 0.0 2.25 0.0" fill-rule="evenodd" stroke="none"/>
    </g>
    <g id="font_Franklin_Gothic_Condensed_T0">
      <path d="M-0.45 -29.2 L-0.45 -29.2 8.6 -29.2 8.6 0.0 18.7 0.0 18.7 -29.2 27.8 -29.2 27.8 -36.35 -0.45 -36.35 -0.45 -29.2 -0.45 -29.2" fill-rule="evenodd" stroke="none"/>
    </g>
    <g id="font_Franklin_Gothic_Condensed__1">
      <path d="M3.75 -19.2 L3.75 -19.2 11.25 -19.2 11.25 -36.4 3.75 -36.4 3.75 -19.2 3.75 -19.2" fill-rule="evenodd" stroke="none"/>
    </g>
    <g id="font_Franklin_Gothic_Condensed_f0">
      <path d="M3.1 0.0 L3.1 0.0 12.3 0.0 12.3 -19.8 17.3 -19.8 17.3 -25.75 12.3 -25.75 12.3 -28.5 Q12.2 -30.65 15.6 -30.6 L17.3 -30.4 17.3 -36.85 12.65 -37.15 Q8.05 -37.2 5.6 -35.2 3.15 -33.2 3.1 -28.55 L3.1 -25.75 -0.6 -25.75 -0.6 -19.8 3.1 -19.8 3.1 0.0 3.1 0.0" fill-rule="evenodd" stroke="none"/>
    </g>
    <g id="font_Franklin_Gothic_Condensed_.0">
      <path d="M2.65 0.0 L2.65 0.0 12.55 0.0 12.55 -9.0 2.65 -9.0 2.65 0.0 2.65 0.0" fill-rule="evenodd" stroke="none"/>
    </g>
    <g id="text2" transform="matrix(1.0, 0.0, 0.0, 1.0, 55.9, -3.45)">
      <g transform="matrix(1.0, 0.0, 0.0, 1.0, -56.9, 0.0)">
        <use fill="#ffffff" fill-opacity="0.9607843" height="17.5" transform="matrix(0.3906, 0.0, 0.0, 0.3906, 0.0, 18.0)" width="257.35" xlink:href="#font_Franklin_Gothic_Condensed_R1"/>
        <use fill="#ffffff" fill-opacity="0.9607843" height="17.5" transform="matrix(0.3906, 0.0, 0.0, 0.3906, 10.65, 18.0)" width="257.35" xlink:href="#font_Franklin_Gothic_Condensed_o1"/>
        <use fill="#ffffff" fill-opacity="0.9607843" height="17.5" transform="matrix(0.3906, 0.0, 0.0, 0.3906, 19.8, 18.0)" width="257.35" xlink:href="#font_Franklin_Gothic_Condensed_b1"/>
        <use fill="#ffffff" fill-opacity="0.9607843" height="17.5" transform="matrix(0.3906, 0.0, 0.0, 0.3906, 29.3, 18.0)" width="257.35" xlink:href="#font_Franklin_Gothic_Condensed_o1"/>
        <use fill="#ffffff" fill-opacity="0.9607843" height="17.5" transform="matrix(0.3906, 0.0, 0.0, 0.3906, 38.45, 18.0)" width="257.35" xlink:href="#font_Franklin_Gothic_Condensed_t1"/>
        <use fill="#ffffff" fill-opacity="0.9607843" height="17.5" transform="matrix(0.3906, 0.0, 0.0, 0.3906, 49.1, 18.0)" width="257.35" xlink:href="#font_Franklin_Gothic_Condensed_C1"/>
        <use fill="#ffffff" fill-opacity="0.9607843" height="17.5" transform="matrix(0.3906, 0.0, 0.0, 0.3906, 59.75, 18.0)" width="257.35" xlink:href="#font_Franklin_Gothic_Condensed_o1"/>
        <use fill="#ffffff" fill-opacity="0.9607843" height="17.5" transform="matrix(0.3906, 0.0, 0.0, 0.3906, 68.9, 18.0)" width="257.35" xlink:href="#font_Franklin_Gothic_Condensed_g1"/>
        <use fill="#ffffff" fill-opacity="0.9607843" height="17.5" transform="matrix(0.3906, 0.0, 0.0, 0.3906, 78.0, 18.0)" width="257.35" xlink:href="#font_Franklin_Gothic_Condensed_s1"/>
        <use fill="#ffffff" fill-opacity="0.9607843" height="17.5" transform="matrix(0.3906, 0.0, 0.0, 0.3906, 90.95, 18.0)" width="257.35" xlink:href="#font_Franklin_Gothic_Condensed_a1"/>
        <use fill="#ffffff" fill-opacity="0.9607843" height="17.5" transform="matrix(0.3906, 0.0, 0.0, 0.3906, 100.1, 18.0)" width="257.35" xlink:href="#font_Franklin_Gothic_Condensed_r1"/>
        <use fill="#ffffff" fill-opacity="0.9607843" height="17.5" transform="matrix(0.3906, 0.0, 0.0, 0.3906, 106.65, 18.0)" width="257.35" xlink:href="#font_Franklin_Gothic_Condensed_e1"/>
        <use fill="#ffffff" fill-opacity="0.9607843" height="17.5" transform="matrix(0.3906, 0.0, 0.0, 0.3906, 120.25, 18.0)" width="257.35" xlink:href="#font_Franklin_Gothic_Condensed_t1"/>
        <use fill="#ffffff" fill-opacity="0.9607843" height="17.5" transform="matrix(0.3906, 0.0, 0.0, 0.3906, 126.05, 18.0)" width="257.35" xlink:href="#font_Franklin_Gothic_Condensed_r1"/>
        <use fill="#ffffff" fill-opacity="0.9607843" height="17.5" transform="matrix(0.3906, 0.0, 0.0, 0.3906, 132.6, 18.0)" width="257.35" xlink:href="#font_Franklin_Gothic_Condensed_y1"/>
        <use fill="#ffffff" fill-opacity="0.9607843" height="17.5" transform="matrix(0.3906, 0.0, 0.0, 0.3906, 140.25, 18.0)" width="257.35" xlink:href="#font_Franklin_Gothic_Condensed_i1"/>
        <use fill="#ffffff" fill-opacity="0.9607843" height="17.5" transform="matrix(0.3906, 0.0, 0.0, 0.3906, 144.55, 18.0)" width="257.35" xlink:href="#font_Franklin_Gothic_Condensed_n1"/>
        <use fill="#ffffff" fill-opacity="0.9607843" height="17.5" transform="matrix(0.3906, 0.0, 0.0, 0.3906, 154.05, 18.0)" width="257.35" xlink:href="#font_Franklin_Gothic_Condensed_g1"/>
        <use fill="#ffffff" fill-opacity="0.9607843" height="17.5" transform="matrix(0.3906, 0.0, 0.0, 0.3906, 168.05, 18.0)" width="257.35" xlink:href="#font_Franklin_Gothic_Condensed_t1"/>
        <use fill="#ffffff" fill-opacity="0.9607843" height="17.5" transform="matrix(0.3906, 0.0, 0.0, 0.3906, 173.85, 18.0)" width="257.35" xlink:href="#font_Franklin_Gothic_Condensed_o1"/>
        <use fill="#ffffff" fill-opacity="0.9607843" height="17.5" transform="matrix(0.3906, 0.0, 0.0, 0.3906, 187.85, 18.0)" width="257.35" xlink:href="#font_Franklin_Gothic_Condensed_t1"/>
        <use fill="#ffffff" fill-opacity="0.9607843" height="17.5" transform="matrix(0.3906, 0.0, 0.0, 0.3906, 193.65, 18.0)" width="257.35" xlink:href="#font_Franklin_Gothic_Condensed_a1"/>
        <use fill="#ffffff" fill-opacity="0.9607843" height="17.5" transform="matrix(0.3906, 0.0, 0.0, 0.3906, 202.75, 18.0)" width="257.35" xlink:href="#font_Franklin_Gothic_Condensed_k1"/>
        <use fill="#ffffff" fill-opacity="0.9607843" height="17.5" transform="matrix(0.3906, 0.0, 0.0, 0.3906, 211.9, 18.0)" width="257.35" xlink:href="#font_Franklin_Gothic_Condensed_e1"/>
        <use fill="#ffffff" fill-opacity="0.9607843" height="17.5" transform="matrix(0.3906, 0.0, 0.0, 0.3906, 225.55, 18.0)" width="257.35" xlink:href="#font_Franklin_Gothic_Condensed_o1"/>
        <use fill="#ffffff" fill-opacity="0.9607843" height="17.5" transform="matrix(0.3906, 0.0, 0.0, 0.3906, 234.7, 18.0)" width="257.35" xlink:href="#font_Franklin_Gothic_Condensed_v1"/>
        <use fill="#ffffff" fill-opacity="0.9607843" height="17.5" transform="matrix(0.3906, 0.0, 0.0, 0.3906, 242.35, 18.0)" width="257.35" xlink:href="#font_Franklin_Gothic_Condensed_e1"/>
        <use fill="#ffffff" fill-opacity="0.9607843" height="17.5" transform="matrix(0.3906, 0.0, 0.0, 0.3906, 251.1, 18.0)" width="257.35" xlink:href="#font_Franklin_Gothic_Condensed_r1"/>
      </g>
    </g>
    <g id="font_Franklin_Gothic_Condensed_R1">
      <path d="M11.6 -29.6 L11.6 -29.6 13.15 -29.6 Q15.6 -29.7 17.35 -28.95 19.15 -28.25 19.2 -25.55 18.95 -21.4 13.4 -21.55 L11.6 -21.55 11.6 -29.6 11.6 -29.6 M2.4 0.0 L2.4 0.0 11.6 0.0 11.6 -15.6 14.7 -15.6 19.3 0.0 28.4 0.0 22.35 -17.6 Q28.05 -20.0 28.4 -26.05 28.3 -31.4 24.9 -33.9 21.5 -36.4 16.15 -36.4 L2.4 -36.4 2.4 0.0 2.4 0.0" fill-rule="evenodd" stroke="none"/>
    </g>
    <g id="font_Franklin_Gothic_Condensed_o1">
      <path d="M9.4 -13.0 L9.4 -13.0 Q9.15 -21.35 12.4 -21.0 15.7 -21.35 15.4 -13.0 15.4 -8.25 14.7 -6.5 13.95 -4.7 12.4 -4.75 10.85 -4.7 10.15 -6.5 9.4 -8.25 9.4 -13.0 L9.4 -13.0 M0.8 -13.0 L0.8 -13.0 Q0.8 -6.95 3.65 -3.25 6.5 0.5 12.4 0.6 18.35 0.5 21.2 -3.25 24.05 -6.95 24.0 -13.0 24.0 -18.8 21.1 -22.5 18.25 -26.25 12.4 -26.4 6.6 -26.25 3.7 -22.5 0.8 -18.8 0.8 -13.0 L0.8 -13.0" fill-rule="evenodd" stroke="none"/>
    </g>
    <g id="font_Franklin_Gothic_Condensed_b1">
      <path d="M2.6 0.0 L2.6 0.0 6.95 0.0 8.5 -3.7 Q10.85 0.25 15.4 0.4 20.55 0.1 22.7 -4.2 24.9 -8.5 24.8 -13.2 24.8 -18.95 22.55 -22.6 20.3 -26.25 16.0 -26.4 13.25 -26.1 11.1 -24.2 L11.0 -24.2 11.0 -36.4 2.6 -36.4 2.6 0.0 2.6 0.0 M11.0 -20.3 L11.0 -20.3 11.45 -20.75 Q12.2 -21.6 13.7 -21.8 15.5 -21.8 15.9 -19.8 16.3 -17.85 16.2 -14.0 L16.2 -12.05 Q16.25 -8.45 15.8 -6.7 15.3 -4.95 13.65 -4.95 11.05 -5.0 11.0 -8.3 L11.0 -20.3 11.0 -20.3" fill-rule="evenodd" stroke="none"/>
    </g>
    <g id="font_Franklin_Gothic_Condensed_t1">
      <path d="M2.8 -6.0 L2.8 -6.0 Q3.05 0.8 9.9 0.6 L15.75 -0.1 15.75 -6.2 13.85 -5.95 Q11.95 -6.0 11.55 -6.85 11.1 -7.7 11.2 -9.05 L11.2 -19.8 15.75 -19.8 15.75 -25.75 11.2 -25.75 11.2 -35.0 2.8 -35.0 2.8 -25.75 -0.55 -25.75 -0.55 -19.8 2.8 -19.8 2.8 -6.0 2.8 -6.0" fill-rule="evenodd" stroke="none"/>
    </g>
    <g id="font_Franklin_Gothic_Condensed_C1">
      <path d="M27.4 -23.65 L27.4 -23.65 Q27.45 -29.45 24.35 -33.25 21.25 -37.05 14.65 -37.2 6.4 -36.8 3.3 -30.95 0.25 -25.15 0.4 -18.2 0.25 -10.8 3.35 -5.15 6.4 0.5 14.65 0.8 20.7 0.7 24.05 -2.9 27.35 -6.5 27.4 -12.6 L19.4 -13.3 Q19.35 -9.85 18.45 -7.95 17.55 -6.0 15.05 -6.0 11.95 -6.05 11.15 -9.25 10.3 -12.45 10.4 -18.15 10.35 -23.35 11.2 -26.8 12.05 -30.25 14.85 -30.4 17.3 -30.2 18.1 -27.95 18.85 -25.7 18.8 -23.65 L27.4 -23.65 27.4 -23.65" fill-rule="evenodd" stroke="none"/>
    </g>
    <g id="font_Franklin_Gothic_Condensed_g1">
      <path d="M11.75 -22.6 L11.75 -22.6 Q13.35 -22.55 14.0 -21.25 14.65 -20.0 14.65 -18.4 14.65 -16.75 14.05 -15.4 13.45 -14.05 11.75 -13.95 10.2 -14.05 9.6 -15.35 8.95 -16.6 9.0 -18.05 8.95 -19.6 9.55 -21.05 10.1 -22.5 11.75 -22.6 L11.75 -22.6 M11.65 -1.2 L11.65 -1.2 15.0 -0.9 Q17.0 -0.55 17.25 1.05 17.05 2.6 15.15 2.95 L11.6 3.2 8.3 2.9 Q6.4 2.5 6.2 1.05 6.45 -0.55 8.5 -0.9 L11.65 -1.2 11.65 -1.2 M25.4 -27.95 L25.4 -27.95 Q23.4 -27.9 21.4 -26.8 19.35 -25.7 18.75 -24.5 15.8 -26.4 11.8 -26.35 8.4 -26.4 4.95 -24.5 1.5 -22.55 1.25 -18.2 1.2 -13.7 6.05 -11.5 L6.05 -11.4 Q4.35 -10.95 2.75 -9.65 1.15 -8.35 1.0 -6.45 1.15 -3.05 4.6 -2.2 L4.6 -2.1 Q2.7 -1.8 1.2 -0.8 -0.3 0.25 -0.35 2.25 -0.25 4.7 2.1 5.85 4.4 7.0 7.2 7.3 L11.6 7.6 Q17.35 7.6 20.85 5.6 24.3 3.55 24.4 -0.3 24.15 -5.0 20.45 -6.25 16.75 -7.55 12.85 -7.4 L9.3 -7.6 Q7.85 -7.9 7.8 -9.15 8.1 -10.05 8.7 -10.6 L12.2 -10.2 Q15.8 -10.2 19.0 -12.1 22.2 -14.05 22.4 -17.85 22.35 -20.2 21.0 -22.05 21.4 -22.55 22.45 -22.6 24.25 -22.5 25.4 -21.3 L25.4 -27.95 25.4 -27.95" fill-rule="evenodd" stroke="none"/>
    </g>
    <g id="font_Franklin_Gothic_Condensed_s1">
      <path d="M21.15 -19.25 L21.15 -19.25 Q19.9 -23.05 17.2 -24.75 14.45 -26.4 11.25 -26.4 5.8 -26.15 3.5 -23.35 1.15 -20.5 1.25 -18.25 1.45 -14.0 4.5 -12.35 7.55 -10.65 10.55 -9.75 13.6 -8.85 13.85 -6.85 13.7 -5.1 11.25 -5.0 9.5 -5.05 8.5 -6.1 7.5 -7.2 6.8 -8.7 L0.4 -6.7 Q1.45 -3.5 4.2 -1.45 6.95 0.55 11.25 0.6 15.9 0.6 18.7 -1.7 21.5 -4.0 21.6 -8.2 21.35 -12.25 18.35 -13.9 15.3 -15.55 12.25 -16.5 9.25 -17.45 9.0 -19.35 8.95 -20.8 11.4 -21.0 12.9 -20.95 13.8 -19.95 L15.3 -17.75 21.15 -19.25 21.15 -19.25" fill-rule="evenodd" stroke="none"/>
    </g>
    <g id="font_Franklin_Gothic_Condensed_a1">
      <path d="M14.0 -6.6 L14.0 -6.6 Q12.55 -4.9 11.5 -5.0 9.3 -5.0 9.2 -7.75 9.2 -10.5 10.5 -11.35 11.75 -12.25 14.0 -12.4 L14.0 -6.6 14.0 -6.6 M14.0 -16.4 L14.0 -16.4 Q9.7 -16.35 5.4 -14.4 1.15 -12.4 0.8 -7.3 1.15 0.4 8.25 0.6 12.05 0.45 14.3 -2.4 14.35 -1.15 14.55 0.0 L23.15 0.0 Q22.55 -0.15 22.4 -4.15 L22.4 -18.4 Q22.25 -22.7 19.2 -24.55 16.1 -26.45 12.25 -26.4 8.7 -26.4 5.85 -24.7 2.95 -22.95 2.1 -19.1 L9.4 -17.65 Q9.5 -18.8 10.05 -19.85 10.65 -20.9 12.0 -21.0 14.05 -20.65 14.0 -18.0 L14.0 -16.4 14.0 -16.4" fill-rule="evenodd" stroke="none"/>
    </g>
    <g id="font_Franklin_Gothic_Condensed_r1">
      <path d="M2.2 0.0 L2.2 0.0 10.6 0.0 10.6 -16.6 Q11.15 -17.55 12.05 -18.1 L15.05 -18.6 Q16.75 -18.55 18.4 -17.9 L18.4 -26.35 Q15.85 -26.4 13.55 -25.3 11.3 -24.25 10.4 -21.8 L10.3 -21.8 10.45 -25.75 2.2 -25.75 2.2 0.0 2.2 0.0" fill-rule="evenodd" stroke="none"/>
    </g>
    <g id="font_Franklin_Gothic_Condensed_e1">
      <path d="M9.2 -16.0 L9.2 -16.0 Q9.15 -17.85 9.85 -19.35 10.5 -20.9 12.2 -21.0 14.2 -20.9 14.75 -19.35 15.25 -17.85 15.25 -16.0 L9.2 -16.0 9.2 -16.0 M23.0 -11.0 L23.0 -11.0 23.0 -12.75 Q23.05 -18.0 20.6 -22.1 18.15 -26.15 12.25 -26.4 6.55 -26.25 3.7 -22.4 0.85 -18.55 0.8 -12.9 0.8 -7.4 3.6 -3.5 6.45 0.45 12.35 0.6 17.75 0.3 20.1 -2.5 22.45 -5.25 22.65 -6.45 L17.0 -8.45 Q16.0 -5.2 12.85 -5.0 10.55 -5.15 9.85 -7.15 9.15 -9.15 9.2 -11.0 L23.0 -11.0 23.0 -11.0" fill-rule="evenodd" stroke="none"/>
    </g>
    <g id="font_Franklin_Gothic_Condensed_y1">
      <path d="M-0.4 -25.8 L-0.4 -25.8 6.3 -3.7 6.65 -1.45 Q6.6 0.3 5.25 1.0 3.95 1.65 2.0 1.65 L-0.25 1.4 -0.25 7.4 2.25 7.6 Q5.95 7.65 8.7 6.15 11.4 4.6 12.7 0.6 L21.4 -25.8 14.9 -25.8 11.35 -10.95 11.25 -10.95 8.2 -25.8 -0.4 -25.8 -0.4 -25.8" fill-rule="evenodd" stroke="none"/>
    </g>
    <g id="font_Franklin_Gothic_Condensed_i1">
      <path d="M2.0 -29.0 L2.0 -29.0 10.4 -29.0 10.4 -36.35 2.0 -36.35 2.0 -29.0 2.0 -29.0 M2.0 0.0 L2.0 0.0 10.4 0.0 10.4 -25.8 2.0 -25.8 2.0 0.0 2.0 0.0" fill-rule="evenodd" stroke="none"/>
    </g>
    <g id="font_Franklin_Gothic_Condensed_n1">
      <path d="M2.2 0.0 L2.2 0.0 10.6 0.0 10.6 -18.7 11.05 -19.35 Q11.85 -20.4 13.1 -20.4 15.15 -20.3 15.0 -18.1 L15.0 0.0 23.4 0.0 23.4 -20.45 Q23.15 -26.1 17.85 -26.4 13.3 -26.3 10.7 -22.2 L10.6 -22.2 10.6 -25.75 2.2 -25.75 2.2 0.0 2.2 0.0" fill-rule="evenodd" stroke="none"/>
    </g>
    <g id="font_Franklin_Gothic_Condensed_k1">
      <path d="M2.2 0.0 L2.2 0.0 10.6 0.0 10.6 -9.6 12.55 -11.8 12.65 -11.8 16.5 0.0 25.1 0.0 18.35 -18.4 24.8 -25.75 17.2 -25.75 10.7 -17.75 10.6 -17.75 10.6 -36.4 2.2 -36.4 2.2 0.0 2.2 0.0" fill-rule="evenodd" stroke="none"/>
    </g>
    <g id="font_Franklin_Gothic_Condensed_v1">
      <path d="M6.85 0.0 L6.85 0.0 13.15 0.0 21.4 -25.8 14.85 -25.8 11.25 -11.8 11.1 -11.8 8.2 -25.8 -0.4 -25.8 6.85 0.0 6.85 0.0" fill-rule="evenodd" stroke="none"/>
    </g>
    <g id="text3" transform="matrix(1.0, 0.0, 0.0, 1.0, 49.55, -3.5)">
      <g transform="matrix(1.0, 0.0, 0.0, 1.0, -49.9, 0.0)">
        <use fill="#ffffff" fill-opacity="0.9607843" height="17.45" transform="matrix(0.3906, 0.0, 0.0, 0.3906, 0.0, 18.0)" width="242.95" xlink:href="#font_Franklin_Gothic_Condensed_a1"/>
        <use fill="#ffffff" fill-opacity="0.9607843" height="17.45" transform="matrix(0.3906, 0.0, 0.0, 0.3906, 9.15, 18.0)" width="242.95" xlink:href="#font_Franklin_Gothic_Condensed_n1"/>
        <use fill="#ffffff" fill-opacity="0.9607843" height="17.45" transform="matrix(0.3906, 0.0, 0.0, 0.3906, 18.65, 18.0)" width="242.95" xlink:href="#font_Franklin_Gothic_Condensed_d1"/>
        <use fill="#ffffff" fill-opacity="0.9607843" height="17.45" transform="matrix(0.3906, 0.0, 0.0, 0.3906, 33.0, 18.0)" width="242.95" xlink:href="#font_Franklin_Gothic_Condensed_p1"/>
        <use fill="#ffffff" fill-opacity="0.9607843" height="17.45" transform="matrix(0.3906, 0.0, 0.0, 0.3906, 42.5, 18.0)" width="242.95" xlink:href="#font_Franklin_Gothic_Condensed_u1"/>
        <use fill="#ffffff" fill-opacity="0.9607843" height="17.45" transform="matrix(0.3906, 0.0, 0.0, 0.3906, 52.0, 18.0)" width="242.95" xlink:href="#font_Franklin_Gothic_Condensed_t1"/>
        <use fill="#ffffff" fill-opacity="0.9607843" height="17.45" transform="matrix(0.3906, 0.0, 0.0, 0.3906, 62.65, 18.0)" width="242.95" xlink:href="#font_Franklin_Gothic_Condensed_a1"/>
        <use fill="#ffffff" fill-opacity="0.9607843" height="17.45" transform="matrix(0.3906, 0.0, 0.0, 0.3906, 71.8, 18.0)" width="242.95" xlink:href="#font_Franklin_Gothic_Condensed_n1"/>
        <use fill="#ffffff" fill-opacity="0.9607843" height="17.45" transform="matrix(0.3906, 0.0, 0.0, 0.3906, 86.15, 18.0)" width="242.95" xlink:href="#font_Franklin_Gothic_Condensed_e1"/>
        <use fill="#ffffff" fill-opacity="0.9607843" height="17.45" transform="matrix(0.3906, 0.0, 0.0, 0.3906, 94.9, 18.0)" width="242.95" xlink:href="#font_Franklin_Gothic_Condensed_n1"/>
        <use fill="#ffffff" fill-opacity="0.9607843" height="17.45" transform="matrix(0.3906, 0.0, 0.0, 0.3906, 104.4, 18.0)" width="242.95" xlink:href="#font_Franklin_Gothic_Condensed_d1"/>
        <use fill="#ffffff" fill-opacity="0.9607843" height="17.45" transform="matrix(0.3906, 0.0, 0.0, 0.3906, 118.75, 18.0)" width="242.95" xlink:href="#font_Franklin_Gothic_Condensed_t1"/>
        <use fill="#ffffff" fill-opacity="0.9607843" height="17.45" transform="matrix(0.3906, 0.0, 0.0, 0.3906, 124.55, 18.0)" width="242.95" xlink:href="#font_Franklin_Gothic_Condensed_o1"/>
        <use fill="#ffffff" fill-opacity="0.9607843" height="17.45" transform="matrix(0.3906, 0.0, 0.0, 0.3906, 138.55, 18.0)" width="242.95" xlink:href="#font_Franklin_Gothic_Condensed_a1"/>
        <use fill="#ffffff" fill-opacity="0.9607843" height="17.45" transform="matrix(0.3906, 0.0, 0.0, 0.3906, 147.7, 18.0)" width="242.95" xlink:href="#font_Franklin_Gothic_Condensed_l1"/>
        <use fill="#ffffff" fill-opacity="0.9607843" height="17.45" transform="matrix(0.3906, 0.0, 0.0, 0.3906, 152.0, 18.0)" width="242.95" xlink:href="#font_Franklin_Gothic_Condensed_l1"/>
        <use fill="#ffffff" fill-opacity="0.9607843" height="17.45" transform="matrix(0.3906, 0.0, 0.0, 0.3906, 161.15, 18.0)" width="242.95" xlink:href="#font_Franklin_Gothic_Condensed_T1"/>
        <use fill="#ffffff" fill-opacity="0.9607843" height="17.45" transform="matrix(0.3906, 0.0, 0.0, 0.3906, 168.8, 18.0)" width="242.95" xlink:href="#font_Franklin_Gothic_Condensed_o1"/>
        <use fill="#ffffff" fill-opacity="0.9607843" height="17.45" transform="matrix(0.3906, 0.0, 0.0, 0.3906, 177.95, 18.0)" width="242.95" xlink:href="#font_Franklin_Gothic_Condensed_o1"/>
        <use fill="#ffffff" fill-opacity="0.9607843" height="17.45" transform="matrix(0.3906, 0.0, 0.0, 0.3906, 187.1, 18.0)" width="242.95" xlink:href="#font_Franklin_Gothic_Condensed_n1"/>
        <use fill="#ffffff" fill-opacity="0.9607843" height="17.45" transform="matrix(0.3906, 0.0, 0.0, 0.3906, 196.6, 18.0)" width="242.95" xlink:href="#font_Franklin_Gothic_Condensed_s1"/>
        <use fill="#ffffff" fill-opacity="0.9607843" height="17.45" transform="matrix(0.3906, 0.0, 0.0, 0.3906, 204.6, 18.0)" width="242.95" xlink:href="#font_Franklin_Gothic_Condensed__3"/>
        <use fill="#ffffff" fill-opacity="0.9607843" height="17.45" transform="matrix(0.3906, 0.0, 0.0, 0.3906, 214.35, 18.0)" width="242.95" xlink:href="#font_Franklin_Gothic_Condensed_f1"/>
        <use fill="#ffffff" fill-opacity="0.9607843" height="17.45" transform="matrix(0.3906, 0.0, 0.0, 0.3906, 219.8, 18.0)" width="242.95" xlink:href="#font_Franklin_Gothic_Condensed_u1"/>
        <use fill="#ffffff" fill-opacity="0.9607843" height="17.45" transform="matrix(0.3906, 0.0, 0.0, 0.3906, 229.3, 18.0)" width="242.95" xlink:href="#font_Franklin_Gothic_Condensed_n1"/>
        <use fill="#ffffff" fill-opacity="0.9607843" height="17.45" transform="matrix(0.3906, 0.0, 0.0, 0.3906, 238.8, 18.0)" width="242.95" xlink:href="#font_Franklin_Gothic_Condensed_.1"/>
      </g>
    </g>
    <g id="font_Franklin_Gothic_Condensed_d1">
      <path d="M14.6 -6.5 L14.6 -6.5 Q13.6 -4.7 11.65 -4.6 10.1 -4.65 9.75 -6.9 9.35 -9.2 9.4 -13.2 9.3 -15.65 9.7 -18.2 10.1 -20.8 12.05 -21.0 13.9 -20.9 14.6 -19.8 L14.6 -6.5 14.6 -6.5 M23.0 -36.4 L23.0 -36.4 14.6 -36.4 14.6 -23.4 Q12.6 -25.75 9.3 -25.75 4.5 -25.6 2.6 -21.55 0.75 -17.5 0.8 -11.85 0.8 -6.8 2.75 -3.3 4.75 0.25 8.8 0.4 10.55 0.45 11.9 -0.1 13.25 -0.7 15.0 -2.45 L15.1 -2.45 15.1 0.0 23.0 0.0 23.0 -36.4 23.0 -36.4" fill-rule="evenodd" stroke="none"/>
    </g>
    <g id="font_Franklin_Gothic_Condensed_p1">
      <path d="M2.6 7.6 L2.6 7.6 11.0 7.6 11.0 -2.2 Q13.0 0.0 16.0 0.0 21.15 -0.25 23.0 -4.45 24.9 -8.7 24.8 -13.9 24.45 -25.95 16.5 -26.2 13.4 -25.9 10.8 -23.0 L10.7 -23.0 10.7 -25.8 2.6 -25.8 2.6 7.6 2.6 7.6 M11.0 -19.35 L11.0 -19.35 Q11.7 -21.1 13.9 -21.4 15.55 -21.4 15.9 -19.15 16.3 -16.9 16.2 -12.4 16.3 -8.85 15.85 -6.75 15.4 -4.65 13.5 -4.6 12.4 -4.45 11.0 -5.55 L11.0 -19.35 11.0 -19.35" fill-rule="evenodd" stroke="none"/>
    </g>
    <g id="font_Franklin_Gothic_Condensed_u1">
      <path d="M23.4 -25.8 L23.4 -25.8 15.0 -25.8 15.0 -7.05 14.6 -6.45 Q13.75 -5.35 12.5 -5.35 10.45 -5.5 10.6 -7.65 L10.6 -25.8 2.2 -25.8 2.2 -5.3 Q2.45 0.4 7.75 0.6 12.35 0.55 14.95 -3.4 L15.0 -3.4 15.0 0.0 23.4 0.0 23.4 -25.8 23.4 -25.8" fill-rule="evenodd" stroke="none"/>
    </g>
    <g id="font_Franklin_Gothic_Condensed_l1">
      <path d="M2.0 0.0 L2.0 0.0 10.4 0.0 10.4 -36.4 2.0 -36.4 2.0 0.0 2.0 0.0" fill-rule="evenodd" stroke="none"/>
    </g>
    <g id="font_Franklin_Gothic_Condensed_T1">
      <path d="M-0.45 -29.2 L-0.45 -29.2 7.8 -29.2 7.8 0.0 17.0 0.0 17.0 -29.2 25.25 -29.2 25.25 -36.35 -0.45 -36.35 -0.45 -29.2 -0.45 -29.2" fill-rule="evenodd" stroke="none"/>
    </g>
    <g id="font_Franklin_Gothic_Condensed__3">
      <path d="M3.4 -19.2 L3.4 -19.2 10.2 -19.2 10.2 -36.4 3.4 -36.4 3.4 -19.2 3.4 -19.2" fill-rule="evenodd" stroke="none"/>
    </g>
    <g id="font_Franklin_Gothic_Condensed_f1">
      <path d="M2.8 0.0 L2.8 0.0 11.2 0.0 11.2 -19.8 15.7 -19.8 15.7 -25.75 11.2 -25.75 11.2 -28.5 Q11.1 -30.65 14.15 -30.6 L15.7 -30.4 15.7 -36.85 11.5 -37.15 Q7.35 -37.2 5.1 -35.2 2.85 -33.2 2.8 -28.55 L2.8 -25.75 -0.55 -25.75 -0.55 -19.8 2.8 -19.8 2.8 0.0 2.8 0.0" fill-rule="evenodd" stroke="none"/>
    </g>
    <g id="font_Franklin_Gothic_Condensed_.1">
      <path d="M2.4 0.0 L2.4 0.0 11.4 0.0 11.4 -9.0 2.4 -9.0 2.4 0.0 2.4 0.0" fill-rule="evenodd" stroke="none"/>
    </g>
    <g id="shape1" transform="matrix(1.0, 0.0, 0.0, 1.0, 253.45, 192.0)">
      <path d="M-253.45 -192.0 L253.5 -192.0 253.5 192.0 -253.45 192.0 -253.45 -192.0" fill="#ffffff" fill-opacity="0.007843138" fill-rule="evenodd" stroke="none"/>
    </g>
  </defs>
</svg>
