<?xml version="1.0" encoding="UTF-8" standalone="no"?>
<svg xmlns:xlink="http://www.w3.org/1999/xlink" height="38.9px" width="233.5px" xmlns="http://www.w3.org/2000/svg">
  <g transform="matrix(1.0, 0.0, 0.0, 1.0, 116.75, 22.35)">
    <use height="31.2" transform="matrix(1.0, 0.0, 0.0, 1.0, -92.35, -15.6)" width="184.65" xlink:href="#shape0"/>
  </g>
  <defs>
    <g id="shape0" transform="matrix(1.0, 0.0, 0.0, 1.0, 92.35, 15.6)">
      <path d="M9.9 -12.6 L9.9 8.15 Q9.25 8.4 7.45 9.55 L-0.05 1.85 Q-0.2 4.75 0.5 6.95 L0.5 7.85 -1.45 9.3 Q-2.8 10.4 -3.0 10.4 -3.35 10.4 -3.55 7.55 L-4.25 -6.55 Q-0.95 -8.55 -0.15 -8.55 0.1 -8.55 1.95 -5.25 4.1 -1.55 5.0 -0.6 L6.6 -11.4 9.9 -12.6 M46.65 -13.6 Q47.5 -13.6 48.0 -12.75 48.45 -12.05 48.45 -11.15 48.45 -9.9 47.75 -9.05 47.15 -8.4 46.55 -8.4 45.8 -8.4 45.3 -9.3 44.85 -10.05 44.85 -10.9 44.85 -11.85 45.25 -12.6 45.8 -13.6 46.65 -13.6 M83.3 -3.25 L86.5 -4.75 86.45 -7.75 86.35 -11.35 Q88.25 -10.45 89.95 -10.25 L89.95 -3.0 90.15 0.55 90.3 4.1 90.3 8.05 89.1 7.95 86.25 8.05 85.55 1.75 83.05 2.6 80.55 3.6 81.4 9.65 77.15 11.35 76.55 -5.45 75.0 -4.75 Q73.3 -3.75 72.75 -2.65 L74.1 7.85 Q71.1 8.8 69.2 9.8 L68.65 -1.25 68.1 -1.5 66.95 -1.05 Q66.2 -0.6 66.0 -0.6 L65.15 -0.35 64.25 -0.05 63.5 -0.05 Q63.15 5.0 59.5 7.7 56.7 9.75 53.45 9.75 L51.8 9.75 50.15 9.7 49.95 -6.0 49.6 -7.15 51.2 -7.65 53.35 -8.05 53.5 -6.4 Q53.6 -5.35 53.9 -5.35 L55.65 -6.0 57.4 -6.7 Q59.45 -6.7 61.05 -5.7 62.8 -4.65 63.3 -2.75 L63.2 -5.75 75.6 -10.2 77.05 -10.2 77.3 -8.2 78.45 -8.5 80.5 -9.2 Q80.95 -4.9 80.85 -2.55 L80.85 -2.45 81.2 -2.35 Q81.35 -2.35 83.3 -3.25 M48.25 -5.9 L48.35 -2.95 48.05 4.5 47.75 11.85 46.2 11.7 44.25 11.55 43.85 11.85 44.75 -5.9 46.25 -5.7 48.25 -5.9 M35.45 -8.85 L38.0 3.15 39.65 -2.95 40.85 -9.15 43.7 -9.15 42.15 12.75 38.1 13.6 34.5 0.45 Q34.25 0.4 34.15 0.65 32.8 6.6 31.5 10.8 L27.8 10.2 23.85 -7.2 26.35 -8.35 27.4 -2.85 28.7 2.65 31.6 -8.55 Q31.95 -8.9 32.8 -8.9 L33.7 -8.8 34.65 -8.75 35.45 -8.85 M14.9 -5.35 L16.65 -6.0 18.4 -6.7 Q20.45 -6.7 22.05 -5.7 24.5 -4.25 24.5 -1.1 24.5 4.75 20.5 7.7 17.7 9.75 14.45 9.75 L12.8 9.75 11.15 9.7 10.95 -6.0 10.6 -7.15 12.2 -7.65 14.35 -8.05 14.5 -6.4 Q14.6 -5.35 14.9 -5.35 M-73.1 -13.6 Q-72.25 -13.6 -71.75 -12.75 -71.3 -12.05 -71.3 -11.15 -71.3 -9.9 -72.0 -9.05 -72.6 -8.4 -73.2 -8.4 -73.95 -8.4 -74.45 -9.3 -74.9 -10.05 -74.9 -10.9 -74.9 -11.85 -74.5 -12.6 -73.95 -13.6 -73.1 -13.6 M-28.95 -11.65 L-26.55 -11.8 -26.4 -8.8 Q-25.9 -9.4 -24.05 -9.6 L-21.3 -9.6 Q-20.55 -9.6 -19.9 -8.25 -19.3 -7.05 -19.3 -6.2 -19.3 -2.4 -22.95 0.35 -19.15 2.25 -19.15 5.85 L-19.2 6.55 -13.3 -9.65 -12.0 -10.1 Q-11.65 -10.1 -9.7 -6.85 L-7.45 -2.9 Q-6.0 0.35 -3.65 6.85 L-6.35 8.9 -8.25 10.2 Q-8.5 10.2 -9.35 8.15 L-10.75 5.0 -13.4 5.35 Q-14.95 5.6 -15.65 6.2 -15.95 6.45 -16.45 7.85 -16.95 9.1 -17.15 9.1 L-18.25 8.65 Q-19.2 8.15 -19.65 8.0 L-20.1 8.85 Q-21.15 10.8 -22.15 11.15 L-26.5 12.0 -29.4 12.3 -30.6 12.3 -30.6 -5.1 -30.25 -11.8 -28.95 -11.65 M-85.95 -2.55 L-85.95 -2.45 Q-85.95 -2.35 -85.6 -2.35 -85.45 -2.35 -83.5 -3.25 L-80.3 -4.75 -80.35 -7.75 -80.45 -11.35 Q-78.55 -10.45 -76.85 -10.25 L-76.85 -3.0 -76.65 0.55 -76.5 4.1 -76.5 8.05 -77.7 7.95 -80.55 8.05 -81.25 1.75 -83.75 2.6 -86.25 3.6 -85.4 9.65 -89.65 11.35 -90.35 -8.05 -88.35 -8.5 -86.3 -9.2 Q-85.85 -4.9 -85.95 -2.55 M-43.9 -3.0 L-43.7 0.55 -43.55 4.1 -43.55 8.05 -44.75 7.95 -47.6 8.05 -48.3 1.75 -50.8 2.6 -53.3 3.6 -52.45 9.65 -56.7 11.35 -57.05 1.5 -58.0 1.95 -56.95 5.25 Q-58.4 7.1 -59.8 8.0 L-61.55 8.9 Q-62.9 9.45 -63.4 9.45 -65.85 9.45 -67.65 8.4 -70.35 6.75 -70.35 3.15 L-70.15 0.5 Q-69.75 -2.05 -67.05 -4.5 -64.65 -6.75 -63.2 -6.75 L-59.95 -6.75 -59.85 -5.95 -60.1 -3.45 Q-60.3 -3.65 -60.7 -3.65 -62.25 -3.65 -64.2 -2.0 -66.4 -0.2 -66.4 1.8 -66.4 2.7 -65.75 3.25 -65.25 3.75 -64.75 3.75 L-63.5 3.75 -63.5 0.15 Q-61.45 -0.85 -57.15 -1.9 L-57.4 -8.05 -55.4 -8.5 -53.35 -9.2 Q-52.9 -4.9 -53.0 -2.55 L-53.0 -2.45 -52.65 -2.35 -50.55 -3.25 -47.35 -4.75 -47.4 -7.75 -47.5 -11.35 Q-45.6 -10.45 -43.9 -10.25 L-43.9 -3.0 M-71.4 -2.95 L-71.7 4.5 -72.0 11.85 -73.55 11.7 -75.5 11.55 -75.9 11.85 -75.0 -5.9 -73.5 -5.7 -71.5 -5.9 -71.4 -2.95" fill="#000000" fill-rule="evenodd" stroke="none"/>
      <path d="M9.9 -12.6 L9.9 8.15 Q9.25 8.4 7.45 9.55 L-0.05 1.85 Q-0.2 4.75 0.5 6.95 L0.5 7.85 -1.45 9.3 Q-2.8 10.4 -3.0 10.4 -3.35 10.4 -3.55 7.55 L-4.25 -6.55 Q-0.95 -8.55 -0.15 -8.55 0.1 -8.55 1.95 -5.25 4.1 -1.55 5.0 -0.6 L6.6 -11.4 9.9 -12.6 M46.65 -13.6 Q47.5 -13.6 48.0 -12.75 48.45 -12.05 48.45 -11.15 48.45 -9.9 47.75 -9.05 47.15 -8.4 46.55 -8.4 45.8 -8.4 45.3 -9.3 44.85 -10.05 44.85 -10.9 44.85 -11.85 45.25 -12.6 45.8 -13.6 46.65 -13.6 M83.3 -3.25 L86.5 -4.75 86.45 -7.75 86.35 -11.35 Q88.25 -10.45 89.95 -10.25 L89.95 -3.0 90.15 0.55 90.3 4.1 90.3 8.05 89.1 7.95 86.25 8.05 85.55 1.75 83.05 2.6 80.55 3.6 81.4 9.65 77.15 11.35 76.55 -5.45 75.0 -4.75 Q73.3 -3.75 72.75 -2.65 L74.1 7.85 Q71.1 8.8 69.2 9.8 L68.65 -1.25 68.1 -1.5 66.95 -1.05 Q66.2 -0.6 66.0 -0.6 L65.15 -0.35 64.25 -0.05 63.5 -0.05 Q63.15 5.0 59.5 7.7 56.7 9.75 53.45 9.75 L51.8 9.75 50.15 9.7 49.95 -6.0 49.6 -7.15 51.2 -7.65 53.35 -8.05 53.5 -6.4 Q53.6 -5.35 53.9 -5.35 L55.65 -6.0 57.4 -6.7 Q59.45 -6.7 61.05 -5.7 62.8 -4.65 63.3 -2.75 L63.2 -5.75 75.6 -10.2 77.05 -10.2 77.3 -8.2 78.45 -8.5 80.5 -9.2 Q80.95 -4.9 80.85 -2.55 L80.85 -2.45 81.2 -2.35 Q81.35 -2.35 83.3 -3.25 M48.25 -5.9 L48.35 -2.95 48.05 4.5 47.75 11.85 46.2 11.7 44.25 11.55 43.85 11.85 44.75 -5.9 46.25 -5.7 48.25 -5.9 M35.45 -8.85 L38.0 3.15 39.65 -2.95 40.85 -9.15 43.7 -9.15 42.15 12.75 38.1 13.6 34.5 0.45 Q34.25 0.4 34.15 0.65 32.8 6.6 31.5 10.8 L27.8 10.2 23.85 -7.2 26.35 -8.35 27.4 -2.85 28.7 2.65 31.6 -8.55 Q31.95 -8.9 32.8 -8.9 L33.7 -8.8 34.65 -8.75 35.45 -8.85 M14.9 -5.35 L16.65 -6.0 18.4 -6.7 Q20.45 -6.7 22.05 -5.7 24.5 -4.25 24.5 -1.1 24.5 4.75 20.5 7.7 17.7 9.75 14.45 9.75 L12.8 9.75 11.15 9.7 10.95 -6.0 10.6 -7.15 12.2 -7.65 14.35 -8.05 14.5 -6.4 Q14.6 -5.35 14.9 -5.35 M-73.1 -13.6 Q-72.25 -13.6 -71.75 -12.75 -71.3 -12.05 -71.3 -11.15 -71.3 -9.9 -72.0 -9.05 -72.6 -8.4 -73.2 -8.4 -73.95 -8.4 -74.45 -9.3 -74.9 -10.05 -74.9 -10.9 -74.9 -11.85 -74.5 -12.6 -73.95 -13.6 -73.1 -13.6 M-28.95 -11.65 L-26.55 -11.8 -26.4 -8.8 Q-25.9 -9.4 -24.05 -9.6 L-21.3 -9.6 Q-20.55 -9.6 -19.9 -8.25 -19.3 -7.05 -19.3 -6.2 -19.3 -2.4 -22.95 0.35 -19.15 2.25 -19.15 5.85 L-19.2 6.55 -13.3 -9.65 -12.0 -10.1 Q-11.65 -10.1 -9.7 -6.85 L-7.45 -2.9 Q-6.0 0.35 -3.65 6.85 L-6.35 8.9 -8.25 10.2 Q-8.5 10.2 -9.35 8.15 L-10.75 5.0 -13.4 5.35 Q-14.95 5.6 -15.65 6.2 -15.95 6.45 -16.45 7.85 -16.95 9.1 -17.15 9.1 L-18.25 8.65 Q-19.2 8.15 -19.65 8.0 L-20.1 8.85 Q-21.15 10.8 -22.15 11.15 L-26.5 12.0 -29.4 12.3 -30.6 12.3 -30.6 -5.1 -30.25 -11.8 -28.95 -11.65 M-85.95 -2.55 L-85.95 -2.45 Q-85.95 -2.35 -85.6 -2.35 -85.45 -2.35 -83.5 -3.25 L-80.3 -4.75 -80.35 -7.75 -80.45 -11.35 Q-78.55 -10.45 -76.85 -10.25 L-76.85 -3.0 -76.65 0.55 -76.5 4.1 -76.5 8.05 -77.7 7.95 -80.55 8.05 -81.25 1.75 -83.75 2.6 -86.25 3.6 -85.4 9.65 -89.65 11.35 -90.35 -8.05 -88.35 -8.5 -86.3 -9.2 Q-85.85 -4.9 -85.95 -2.55 M-43.9 -3.0 L-43.7 0.55 -43.55 4.1 -43.55 8.05 -44.75 7.95 -47.6 8.05 -48.3 1.75 -50.8 2.6 -53.3 3.6 -52.45 9.65 -56.7 11.35 -57.05 1.5 -58.0 1.95 -56.95 5.25 Q-58.4 7.1 -59.8 8.0 L-61.55 8.9 Q-62.9 9.45 -63.4 9.45 -65.85 9.45 -67.65 8.4 -70.35 6.75 -70.35 3.15 L-70.15 0.5 Q-69.75 -2.05 -67.05 -4.5 -64.65 -6.75 -63.2 -6.75 L-59.95 -6.75 -59.85 -5.95 -60.1 -3.45 Q-60.3 -3.65 -60.7 -3.65 -62.25 -3.65 -64.2 -2.0 -66.4 -0.2 -66.4 1.8 -66.4 2.7 -65.75 3.25 -65.25 3.75 -64.75 3.75 L-63.5 3.75 -63.5 0.15 Q-61.45 -0.85 -57.15 -1.9 L-57.4 -8.05 -55.4 -8.5 -53.35 -9.2 Q-52.9 -4.9 -53.0 -2.55 L-53.0 -2.45 -52.65 -2.35 -50.55 -3.25 -47.35 -4.75 -47.4 -7.75 -47.5 -11.35 Q-45.6 -10.45 -43.9 -10.25 L-43.9 -3.0 M-71.4 -2.95 L-71.7 4.5 -72.0 11.85 -73.55 11.7 -75.5 11.55 -75.9 11.85 -75.0 -5.9 -73.5 -5.7 -71.5 -5.9 -71.4 -2.95" fill="none" stroke="#000000" stroke-linecap="round" stroke-linejoin="round" stroke-width="4.0"/>
      <path d="M9.9 -12.6 L9.9 8.15 Q9.25 8.4 7.45 9.55 L-0.05 1.85 Q-0.2 4.75 0.5 6.95 L0.5 7.85 -1.45 9.3 Q-2.8 10.4 -3.0 10.4 -3.35 10.4 -3.55 7.55 L-4.25 -6.55 Q-0.95 -8.55 -0.15 -8.55 0.1 -8.55 1.95 -5.25 4.1 -1.55 5.0 -0.6 L6.6 -11.4 9.9 -12.6 M46.65 -13.6 Q47.5 -13.6 48.0 -12.75 48.45 -12.05 48.45 -11.15 48.45 -9.9 47.75 -9.05 47.15 -8.4 46.55 -8.4 45.8 -8.4 45.3 -9.3 44.85 -10.05 44.85 -10.9 44.85 -11.85 45.25 -12.6 45.8 -13.6 46.65 -13.6 M80.85 -2.55 L80.85 -2.45 81.2 -2.35 Q81.35 -2.35 83.3 -3.25 L86.5 -4.75 86.45 -7.75 86.35 -11.35 Q88.25 -10.45 89.95 -10.25 L89.95 -3.0 90.15 0.55 90.3 4.1 90.3 8.05 89.1 7.95 86.25 8.05 85.55 1.75 83.05 2.6 80.55 3.6 81.4 9.65 77.15 11.35 76.55 -5.45 75.0 -4.75 Q73.3 -3.75 72.75 -2.65 L74.1 7.85 Q71.1 8.8 69.2 9.8 L68.65 -1.25 68.1 -1.5 66.95 -1.05 Q66.2 -0.6 66.0 -0.6 L65.15 -0.35 64.25 -0.05 63.5 -0.05 Q63.15 5.0 59.5 7.7 56.7 9.75 53.45 9.75 L51.8 9.75 50.15 9.7 49.95 -6.0 49.6 -7.15 51.2 -7.65 53.35 -8.05 53.5 -6.4 Q53.6 -5.35 53.9 -5.35 L55.65 -6.0 57.4 -6.7 Q59.45 -6.7 61.05 -5.7 62.8 -4.65 63.3 -2.75 L63.2 -5.75 75.6 -10.2 77.05 -10.2 77.3 -8.2 78.45 -8.5 80.5 -9.2 Q80.95 -4.9 80.85 -2.55 M58.85 -1.35 L57.65 -1.5 56.4 -1.2 Q55.55 -0.9 55.1 -0.6 L55.55 2.1 56.0 4.8 58.1 2.9 Q59.55 1.25 59.55 0.0 59.55 -1.0 58.85 -1.35 M48.25 -5.9 L48.35 -2.95 48.05 4.5 47.75 11.85 46.2 11.7 44.25 11.55 43.85 11.85 44.75 -5.9 46.25 -5.7 48.25 -5.9 M35.45 -8.85 L38.0 3.15 39.65 -2.95 40.85 -9.15 43.7 -9.15 42.15 12.75 38.1 13.6 34.5 0.45 Q34.25 0.4 34.15 0.65 32.8 6.6 31.5 10.8 L27.8 10.2 23.85 -7.2 26.35 -8.35 27.4 -2.85 28.7 2.65 31.6 -8.55 Q31.95 -8.9 32.8 -8.9 L33.7 -8.8 34.65 -8.75 35.45 -8.85 M14.9 -5.35 L16.65 -6.0 18.4 -6.7 Q20.45 -6.7 22.05 -5.7 24.5 -4.25 24.5 -1.1 24.5 4.75 20.5 7.7 17.7 9.75 14.45 9.75 L12.8 9.75 11.15 9.7 10.95 -6.0 10.6 -7.15 12.2 -7.65 14.35 -8.05 14.5 -6.4 Q14.6 -5.35 14.9 -5.35 M17.4 -1.2 Q16.55 -0.9 16.1 -0.6 L16.55 2.1 17.0 4.8 19.1 2.9 Q20.55 1.25 20.55 0.0 20.55 -1.0 19.85 -1.35 L18.65 -1.5 17.4 -1.2 M-71.3 -11.15 Q-71.3 -9.9 -72.0 -9.05 -72.6 -8.4 -73.2 -8.4 -73.95 -8.4 -74.45 -9.3 -74.9 -10.05 -74.9 -10.9 -74.9 -11.85 -74.5 -12.6 -73.95 -13.6 -73.1 -13.6 -72.25 -13.6 -71.75 -12.75 -71.3 -12.05 -71.3 -11.15 M-28.95 -11.65 L-26.55 -11.8 -26.4 -8.8 Q-25.9 -9.4 -24.05 -9.6 L-21.3 -9.6 Q-20.55 -9.6 -19.9 -8.25 -19.3 -7.05 -19.3 -6.2 -19.3 -2.4 -22.95 0.35 -19.15 2.25 -19.15 5.85 L-19.2 6.55 -13.3 -9.65 -12.0 -10.1 Q-11.65 -10.1 -9.7 -6.85 L-7.45 -2.9 Q-6.0 0.35 -3.65 6.85 L-6.35 8.9 -8.25 10.2 Q-8.5 10.2 -9.35 8.15 L-10.75 5.0 -13.4 5.35 Q-14.95 5.6 -15.65 6.2 -15.95 6.45 -16.45 7.85 -16.95 9.1 -17.15 9.1 L-18.25 8.65 Q-19.2 8.15 -19.65 8.0 L-20.1 8.85 Q-21.15 10.8 -22.15 11.15 L-26.5 12.0 -29.4 12.3 -30.6 12.3 -30.6 -5.1 -30.25 -11.8 -28.95 -11.65 M-85.95 -2.55 L-85.95 -2.45 Q-85.95 -2.35 -85.6 -2.35 -85.45 -2.35 -83.5 -3.25 L-80.3 -4.75 -80.35 -7.75 -80.45 -11.35 Q-78.55 -10.45 -76.85 -10.25 L-76.85 -3.0 -76.65 0.55 -76.5 4.1 -76.5 8.05 -77.7 7.95 -80.55 8.05 -81.25 1.75 -83.75 2.6 -86.25 3.6 -85.4 9.65 -89.65 11.35 -90.35 -8.05 -88.35 -8.5 -86.3 -9.2 Q-85.85 -4.9 -85.95 -2.55 M-12.3 -3.5 L-13.2 0.0 -10.85 -0.25 Q-11.4 -2.05 -12.3 -3.5 M-23.45 -5.45 L-23.8 -5.75 -24.3 -6.05 Q-25.25 -6.05 -26.35 -5.2 L-26.35 -2.25 -24.55 -3.25 Q-23.55 -4.1 -23.45 -5.45 M-28.05 5.9 L-27.8 7.25 Q-27.5 8.2 -27.05 8.2 -26.75 8.2 -25.95 7.55 -24.95 6.8 -24.65 6.1 -25.25 5.2 -25.6 5.2 L-27.85 5.2 -28.05 5.9 M-43.9 -3.0 L-43.7 0.55 -43.55 4.1 -43.55 8.05 -44.75 7.95 -47.6 8.05 -48.3 1.75 -50.8 2.6 -53.3 3.6 -52.45 9.65 -56.7 11.35 -57.05 1.5 -58.0 1.95 -56.95 5.25 Q-58.4 7.1 -59.8 8.0 L-61.55 8.9 Q-62.9 9.45 -63.4 9.45 -65.85 9.45 -67.65 8.4 -70.35 6.75 -70.35 3.15 L-70.15 0.5 Q-69.75 -2.05 -67.05 -4.5 -64.65 -6.75 -63.2 -6.75 L-59.95 -6.75 -59.85 -5.95 -60.1 -3.45 Q-60.3 -3.65 -60.7 -3.65 -62.25 -3.65 -64.2 -2.0 -66.4 -0.2 -66.4 1.8 -66.4 2.7 -65.75 3.25 -65.25 3.75 -64.75 3.75 L-63.5 3.75 -63.5 0.15 Q-61.45 -0.85 -57.15 -1.9 L-57.4 -8.05 -55.4 -8.5 -53.35 -9.2 Q-52.9 -4.9 -53.0 -2.55 L-53.0 -2.45 -52.65 -2.35 -50.55 -3.25 -47.35 -4.75 -47.4 -7.75 -47.5 -11.35 Q-45.6 -10.45 -43.9 -10.25 L-43.9 -3.0 M-71.4 -2.95 L-71.7 4.5 -72.0 11.85 -73.55 11.7 -75.5 11.55 -75.9 11.85 -75.0 -5.9 -73.5 -5.7 -71.5 -5.9 -71.4 -2.95" fill="#ffff00" fill-rule="evenodd" stroke="none"/>
    </g>
  </defs>
</svg>
