<?xml version="1.0" encoding="UTF-8" standalone="no"?>
<svg xmlns:xlink="http://www.w3.org/1999/xlink" height="515.7px" width="681.85px" xmlns="http://www.w3.org/2000/svg">
  <g transform="matrix(1.0, 0.0, 0.0, 1.0, 340.9, 257.85)">
    <use height="21.95" transform="matrix(-4.3285, 1.1598, 1.1598, 4.3285, 260.2844, -4.8405)" width="30.75" xlink:href="#shape0"/>
    <use height="20.6" transform="matrix(3.7857, -1.0144, 1.0144, 3.7857, -155.7395, -205.7731)" width="43.1" xlink:href="#shape1"/>
    <use height="83.35" transform="matrix(3.7857, -1.0144, 1.0144, 3.7857, -26.5247, -194.6259)" width="62.35" xlink:href="#shape2"/>
    <use height="21.95" transform="matrix(4.3285, -1.1598, 1.1598, 4.3285, 52.3002, 52.113)" width="30.75" xlink:href="#shape0"/>
    <use height="21.95" transform="matrix(-4.3285, 1.1598, 1.1598, 4.3285, 315.4844, -18.3405)" width="30.75" xlink:href="#shape0"/>
    <use height="30.4" transform="matrix(3.7857, -1.0144, 1.0144, 3.7857, -272.6153, 124.402)" width="20.15" xlink:href="#sprite0"/>
    <use height="30.4" transform="matrix(-3.7857, 1.0144, 1.0144, 3.7857, -264.6226, 122.3125)" width="20.15" xlink:href="#sprite0"/>
    <use height="21.95" transform="matrix(2.673, -0.7162, 0.7162, 2.673, -336.2595, 195.7487)" width="30.75" xlink:href="#shape0"/>
    <use height="21.95" transform="matrix(-2.673, 0.7162, 0.7162, 2.673, -172.9973, 151.9459)" width="30.75" xlink:href="#shape0"/>
    <use height="6.35" transform="matrix(3.7857, -1.0144, 1.0144, 3.7857, -331.706, 84.8457)" width="23.65" xlink:href="#shape4"/>
    <use height="6.35" transform="matrix(1.1858, -2.8881, 2.8881, 1.1858, -300.4992, 80.439)" width="23.65" xlink:href="#shape4"/>
    <use height="6.35" transform="matrix(-2.6416, -1.6568, 1.6568, -2.6416, -254.5664, 35.3044)" width="23.65" xlink:href="#shape4"/>
    <use height="6.35" transform="matrix(1.1858, -2.8881, 2.8881, 1.1858, -310.6992, 2.139)" width="23.65" xlink:href="#shape4"/>
    <use height="6.35" transform="matrix(-2.6416, -1.6568, 1.6568, -2.6416, -264.4664, -43.2956)" width="23.65" xlink:href="#shape4"/>
    <use height="6.35" transform="matrix(1.1858, -2.8881, 2.8881, 1.1858, -321.4992, -80.061)" width="23.65" xlink:href="#shape4"/>
    <use height="6.35" transform="matrix(4.3792, -1.1734, 0.8559, 3.1942, -297.4402, -147.8065)" width="23.65" xlink:href="#shape4"/>
    <use height="6.35" transform="matrix(4.0876, -1.8615, 0.8593, 2.4856, -217.1954, -134.1213)" width="23.65" xlink:href="#shape4"/>
    <use height="23.3" transform="matrix(4.2136, 1.171, -1.6766, 3.7831, -219.5974, -151.128)" width="17.6" xlink:href="#shape5"/>
    <use height="6.35" transform="matrix(-1.6432, -2.6451, 2.6451, -1.6432, -175.0104, -102.529)" width="23.65" xlink:href="#shape4"/>
    <use height="23.3" transform="matrix(3.6551, -0.8793, 0.5667, 4.394, -149.6167, -172.0023)" width="17.6" xlink:href="#shape5"/>
  </g>
  <defs>
    <g id="shape0" transform="matrix(1.0, 0.0, 0.0, 1.0, 15.5, 11.0)">
      <path d="M15.25 -11.0 L15.25 -5.0 -3.25 -5.0 -8.5 10.95 -15.5 10.85 -14.75 8.65 -8.75 -5.0 -14.1 -5.05 -15.1 -10.85 15.25 -11.0" fill="#003399" fill-rule="evenodd" stroke="none"/>
    </g>
    <g id="shape1" transform="matrix(1.0, 0.0, 0.0, 1.0, 21.2, 9.2)">
      <path d="M-15.25 -3.8 Q-9.25 -9.2 -0.65 -9.2 7.95 -9.2 14.0 -3.8 20.05 1.6 21.9 6.75 L15.3 11.4 Q16.2 4.55 12.2 0.95 6.8 -3.85 -0.8 -3.85 -8.45 -3.85 -13.75 0.95 -17.0 3.8 -18.25 7.4 L-21.2 7.4 Q-20.6 0.95 -15.25 -3.8" fill="#333399" fill-rule="evenodd" stroke="none"/>
    </g>
    <g id="shape2" transform="matrix(1.0, 0.0, 0.0, 1.0, 31.15, 41.65)">
      <path d="M-31.1 -30.3 L-30.95 -30.55 -17.05 -41.55 -16.8 -41.65 -16.55 -41.6 -16.3 -41.4 -10.5 -32.6 -10.45 -32.25 -10.65 -31.9 -12.7 -30.6 -6.35 -20.4 -6.3 -20.3 12.95 11.8 Q18.9 12.8 23.65 15.6 31.25 20.1 31.2 26.45 31.25 32.8 23.65 37.3 16.3 41.7 5.85 41.7 -4.6 41.7 -12.0 37.3 -19.55 32.8 -19.5 26.45 -19.55 20.1 -12.0 15.6 -7.45 12.85 -4.9 12.45 -0.4 3.0 -12.95 -16.05 L-13.05 -16.25 -19.95 -25.8 -23.25 -23.6 -23.55 -23.55 -23.85 -23.65 -30.95 -29.75 -31.1 -30.0 -31.1 -30.3 M-11.15 -26.0 L-16.5 -22.6 Q1.8 3.2 -3.7 12.25 L5.85 11.2 11.7 11.6 -11.15 -26.0 M-4.55 13.4 Q-6.95 13.7 -11.5 16.45 -18.45 20.6 -18.5 26.45 -18.45 32.3 -11.5 36.45 -4.3 40.7 5.85 40.7 16.0 40.7 23.15 36.45 30.15 32.3 30.2 26.45 30.15 20.6 23.15 16.45 18.5 13.7 12.6 12.75 L12.55 12.75 5.85 12.2 -4.5 13.4 -4.55 13.4" fill="#003366" fill-rule="evenodd" stroke="none"/>
      <path d="M-11.15 -26.0 L11.7 11.6 5.85 11.2 -3.7 12.25 Q1.8 3.2 -16.5 -22.6 L-11.15 -26.0 M-4.55 13.4 L-4.5 13.4 5.85 12.2 12.55 12.75 12.6 12.75 Q18.5 13.7 23.15 16.45 30.15 20.6 30.2 26.45 30.15 32.3 23.15 36.45 16.0 40.7 5.85 40.7 -4.3 40.7 -11.5 36.45 -18.45 32.3 -18.5 26.45 -18.45 20.6 -11.5 16.45 -6.95 13.7 -4.55 13.4" fill="#333399" fill-rule="evenodd" stroke="none"/>
    </g>
    <g id="sprite0" transform="matrix(1.0, 0.0, 0.0, 1.0, 10.05, 15.2)">
      <use height="30.4" transform="matrix(1.0, 0.0, 0.0, 1.0, -10.05, -15.2)" width="20.15" xlink:href="#shape3"/>
    </g>
    <g id="shape3" transform="matrix(1.0, 0.0, 0.0, 1.0, 10.05, 15.2)">
      <path d="M-10.05 -14.8 L-10.05 -15.2 10.1 -15.2 10.1 -9.15 4.15 -9.05 4.15 7.0 Q4.3 10.4 1.15 12.85 -2.0 15.2 -6.3 15.2 L-6.65 15.2 -10.05 15.15 -10.05 14.65 -6.65 14.7 -6.3 14.7 Q-2.45 14.65 0.3 12.45 3.05 10.2 2.95 7.0 L2.95 -9.05 -10.05 -9.05 -10.05 -9.9 8.95 -9.9 8.95 -14.8 -10.05 -14.8" fill="#003366" fill-rule="evenodd" stroke="none"/>
      <path d="M-10.05 14.65 L-10.05 -9.05 2.95 -9.05 2.95 7.0 Q3.05 10.2 0.3 12.45 -2.45 14.65 -6.3 14.7 L-6.65 14.7 -10.05 14.65 M-10.05 -9.9 L-10.05 -14.8 8.95 -14.8 8.95 -9.9 -10.05 -9.9" fill="#333399" fill-rule="evenodd" stroke="none"/>
    </g>
    <g id="shape4" transform="matrix(1.0, 0.0, 0.0, 1.0, 11.85, 3.15)">
      <path d="M10.9 -3.0 L11.05 -2.65 Q12.55 0.3 11.05 2.7 L10.9 3.05 10.55 3.2 -10.5 3.2 -10.85 3.05 -11.0 2.7 Q-12.65 0.2 -11.0 -2.65 L-10.85 -3.0 -10.5 -3.15 10.55 -3.15 10.9 -3.0" fill="#333399" fill-rule="evenodd" stroke="none"/>
    </g>
    <g id="shape5" transform="matrix(1.0, 0.0, 0.0, 1.0, 8.8, 11.65)">
      <path d="M-2.8 -5.75 Q-4.05 -3.5 -4.05 -0.35 -4.05 2.8 -2.8 5.0 -1.65 7.05 0.0 7.1 1.65 7.05 2.8 5.0 4.05 2.8 4.05 -0.35 4.05 -3.5 2.8 -5.75 1.65 -7.75 0.0 -7.8 -1.65 -7.75 -2.8 -5.75 M0.0 -11.65 Q3.7 -11.65 6.25 -8.2 8.8 -4.8 8.8 0.0 8.8 4.8 6.25 8.15 3.7 11.65 0.0 11.65 -3.7 11.65 -6.3 8.15 -8.8 4.8 -8.8 0.0 -8.8 -4.8 -6.3 -8.2 -3.7 -11.65 0.0 -11.65" fill="#333399" fill-rule="evenodd" stroke="none"/>
    </g>
  </defs>
</svg>
