<?xml version="1.0" encoding="UTF-8" standalone="no"?>
<svg xmlns:xlink="http://www.w3.org/1999/xlink" height="9.95px" width="58.45px" xmlns="http://www.w3.org/2000/svg">
  <g transform="matrix(1.0, 0.0, 0.0, 1.0, -42.15, -4.45)">
    <use height="36.45" transform="matrix(0.2734, 0.0, 0.0, 0.2734, 42.1551, 4.457)" width="33.0" xlink:href="#shape0"/>
    <use height="36.0" transform="matrix(0.2734, 0.0, 0.0, 0.2734, 52.5734, 4.4297)" width="32.85" xlink:href="#shape1"/>
    <use height="34.8" transform="matrix(0.2734, 0.0, 0.0, 0.2734, 62.832, 4.5801)" width="45.0" xlink:href="#shape2"/>
    <use height="36.0" transform="matrix(0.2734, 0.0, 0.0, 0.2734, 76.4734, 4.4297)" width="32.85" xlink:href="#shape1"/>
    <use height="36.45" transform="matrix(0.2734, 0.0, 0.0, 0.2734, 86.8551, 4.457)" width="33.0" xlink:href="#shape0"/>
    <use height="25.85" transform="matrix(0.2734, 0.0, 0.0, 0.2734, 97.2871, 7.2188)" width="12.15" xlink:href="#shape3"/>
  </g>
  <defs>
    <g id="shape0" transform="matrix(1.0, 0.0, 0.0, 1.0, -0.75, 34.9)">
      <path d="M0.75 -34.0 L6.1 -34.5 11.25 -34.8 15.1 -34.9 16.6 -34.9 17.8 -24.2 18.9 -13.1 22.9 -13.95 26.9 -14.9 30.0 -15.7 31.25 -16.0 32.3 -10.8 33.1 -6.0 33.6 -2.45 33.75 -1.1 21.75 0.25 4.4 1.55 3.4 -6.9 2.55 -14.8 1.7 -23.4 0.75 -34.0" fill="#ffffff" fill-rule="evenodd" stroke="none"/>
    </g>
    <g id="shape1" transform="matrix(1.0, 0.0, 0.0, 1.0, -1.0, 35.0)">
      <path d="M22.15 -34.85 L32.55 -35.0 32.5 -33.75 32.4 -30.55 32.2 -26.25 31.85 -21.8 30.2 -21.9 26.0 -22.2 20.65 -22.6 15.4 -23.1 15.4 -21.65 15.45 -20.25 16.75 -20.15 19.85 -19.95 23.45 -19.7 23.55 -18.85 23.7 -16.75 23.95 -14.05 19.3 -13.1 15.65 -12.45 15.7 -11.6 15.8 -10.15 17.2 -10.25 20.85 -10.55 26.15 -11.1 32.2 -11.75 32.5 -10.0 33.15 -5.5 33.85 0.4 22.35 0.75 11.35 0.9 1.65 1.0 1.4 -9.2 1.15 -21.25 1.0 -33.85 11.95 -34.55 22.15 -34.85" fill="#ffffff" fill-rule="evenodd" stroke="none"/>
    </g>
    <g id="shape2" transform="matrix(1.0, 0.0, 0.0, 1.0, -0.3, 34.45)">
      <path d="M33.65 -33.7 L39.0 -33.95 45.3 -34.25 41.45 -24.4 38.2 -16.4 35.15 -9.25 31.75 -1.7 26.8 -0.85 22.1 -0.2 18.55 0.2 17.15 0.35 13.0 -7.15 9.25 -14.15 5.2 -21.75 0.3 -31.2 5.5 -32.45 10.45 -33.5 14.15 -34.15 15.65 -34.45 19.7 -26.45 23.2 -19.15 25.8 -26.25 28.6 -33.4 29.95 -33.5 33.65 -33.7" fill="#ffffff" fill-rule="evenodd" stroke="none"/>
    </g>
    <g id="shape3" transform="matrix(1.0, 0.0, 0.0, 1.0, -1.05, 24.8)">
      <path d="M2.35 -0.45 Q1.35 -1.45 1.1 -2.8 0.8 -4.95 2.25 -6.65 3.65 -8.4 6.2 -8.95 L9.35 -8.85 Q10.8 -8.4 11.8 -7.45 12.8 -6.45 13.05 -5.05 13.3 -3.7 12.7 -2.4 12.1 -1.15 10.9 -0.2 9.65 0.7 8.0 1.05 L4.85 0.9 Q3.35 0.5 2.35 -0.45 M12.3 -22.55 Q13.15 -21.5 13.2 -20.05 13.25 -17.95 11.6 -16.4 9.95 -14.9 7.4 -14.7 5.65 -14.65 4.25 -15.25 2.85 -15.85 2.0 -16.95 1.15 -18.0 1.1 -19.45 1.05 -21.55 2.7 -23.1 4.35 -24.6 6.9 -24.8 8.65 -24.85 10.05 -24.25 11.45 -23.65 12.3 -22.55" fill="#ffffff" fill-rule="evenodd" stroke="none"/>
    </g>
  </defs>
</svg>
