<?xml version="1.0" encoding="UTF-8" standalone="no"?>
<svg xmlns:xlink="http://www.w3.org/1999/xlink" height="285.05px" width="781.9px" xmlns="http://www.w3.org/2000/svg">
  <g transform="matrix(1.0, 0.0, 0.0, 1.0, 205.8, 372.75)">
    <use height="40.75" transform="matrix(0.9542, -0.2885, 0.2885, 0.9542, 362.9539, -296.4118)" width="60.05" xlink:href="#sprite0"/>
  </g>
  <defs>
    <g id="sprite0" transform="matrix(1.0, 0.0, 0.0, 1.0, 30.0, 20.35)">
      <use height="14.7" transform="matrix(-0.8217, -0.239, -0.3402, 0.7786, 30.064, -2.761)" width="21.1" xlink:href="#sprite1"/>
      <use height="40.75" transform="matrix(1.0, 0.0, 0.0, 1.0, -25.65, -20.35)" width="51.7" xlink:href="#shape1"/>
      <use height="14.7" transform="matrix(1.0, 0.0, 0.0, 1.0, -30.0, -17.65)" width="21.1" xlink:href="#sprite1"/>
    </g>
    <g id="sprite1" transform="matrix(1.0, 0.0, 0.0, 1.0, 10.3, 7.35)">
      <use height="14.7" transform="matrix(1.0, 0.0, 0.0, 1.0, -10.3, -7.35)" width="21.1" xlink:href="#shape0"/>
    </g>
    <g id="shape0" transform="matrix(1.0, 0.0, 0.0, 1.0, 10.3, 7.35)">
      <path d="M7.95 -3.75 Q6.1 -6.25 2.05 -6.25 L-2.3 -5.55 -4.3 -4.65 -2.75 -4.95 1.95 -5.0 4.95 -4.45 Q6.75 -3.85 7.95 -3.75 M8.7 -3.9 Q10.05 -0.3 8.7 2.6 0.7 4.6 -7.8 -3.4 1.2 -9.65 8.7 -3.9" fill="#999999" fill-rule="evenodd" stroke="none"/>
      <path d="M7.95 -3.75 Q6.75 -3.85 4.95 -4.45 L1.95 -5.0 -2.75 -4.95 -4.3 -4.65 -2.3 -5.55 2.05 -6.25 Q6.1 -6.25 7.95 -3.75" fill="#cccccc" fill-rule="evenodd" stroke="none"/>
      <path d="M1.95 7.35 Q-7.55 4.85 -10.3 -2.4 -6.15 -6.75 -0.05 -7.3 6.45 -7.9 10.2 -3.4 11.65 -1.3 9.7 3.1 L1.95 7.35 M8.7 -3.9 Q1.2 -9.65 -7.8 -3.4 0.7 4.6 8.7 2.6 10.05 -0.3 8.7 -3.9" fill="#333333" fill-rule="evenodd" stroke="none"/>
    </g>
    <g id="shape1" transform="matrix(1.0, 0.0, 0.0, 1.0, 25.65, 20.35)">
      <path d="M-4.0 -18.45 Q-5.6 -19.05 -5.1 -15.65 L-4.55 -11.5 Q-3.0 -12.05 -3.75 -17.5 23.0 -8.6 24.25 -8.6 25.0 -8.6 11.65 -13.15 L-4.0 -18.45 M-6.15 -19.35 Q-0.8 -18.55 10.4 -14.5 20.5 -10.85 24.5 -8.7 25.8 -5.25 24.75 0.65 L-5.25 -9.6 Q-4.4 -14.6 -6.15 -19.35 M-4.25 7.15 L-5.0 1.8 Q-0.3 4.3 9.7 6.65 17.6 8.55 19.2 8.35 L19.8 13.0 Q19.9 13.9 -4.25 7.15 M-3.9 3.9 Q-2.5 5.15 17.85 9.9 L18.1 9.3 -4.15 3.15 Q-5.25 2.65 -3.9 3.9 M-4.6 -4.65 Q-2.15 -3.55 5.25 -0.65 13.65 2.65 16.25 2.65 17.15 2.65 16.25 7.3 L5.7 5.1 Q0.5 3.65 -4.2 1.25 L-4.6 -4.65" fill="#999999" fill-rule="evenodd" stroke="none"/>
      <path d="M-6.15 -19.35 Q-4.4 -14.6 -5.25 -9.6 L24.75 0.65 Q25.8 -5.25 24.5 -8.7 20.5 -10.85 10.4 -14.5 -0.8 -18.55 -6.15 -19.35 M-5.55 1.55 Q-11.05 6.9 -17.95 9.5 -16.55 13.3 -16.95 14.25 -15.6 12.5 -5.25 7.35 L-5.55 1.55 M-5.5 0.4 L-4.85 0.8 -5.15 -4.75 -10.2 -0.35 Q-13.05 2.1 -14.6 2.25 -16.2 2.35 -11.8 5.9 -8.35 3.7 -5.5 0.4 M-4.25 7.15 Q19.9 13.9 19.8 13.0 L19.2 8.35 Q17.6 8.55 9.7 6.65 -0.3 4.3 -5.0 1.8 L-4.25 7.15 M-4.6 -4.65 L-4.2 1.25 Q0.5 3.65 5.7 5.1 L16.25 7.3 Q17.15 2.65 16.25 2.65 13.65 2.65 5.25 -0.65 -2.15 -3.55 -4.6 -4.65 M26.0 -2.5 Q25.7 0.7 25.2 1.15 L24.75 1.7 17.25 4.8 16.6 7.4 19.75 7.9 20.25 13.9 Q19.0 16.15 8.75 20.4 L-17.5 15.15 -18.5 8.9 Q-15.35 7.95 -12.55 6.35 L-14.7 3.5 -21.8 2.15 Q-22.4 2.05 -22.5 1.55 L-25.6 -9.95 Q-25.8 -10.65 -25.15 -10.95 L-6.95 -20.35 -6.0 -20.2 Q9.4 -15.95 25.25 -9.35 26.3 -6.35 26.0 -2.5 M-24.75 -9.95 Q-22.75 -2.85 -22.0 0.65 -18.35 -1.35 -12.45 -5.25 L-5.85 -9.65 Q-5.25 -13.85 -7.0 -19.45 L-24.75 -9.95" fill="#333333" fill-rule="evenodd" stroke="none"/>
      <path d="M-4.0 -18.45 L11.65 -13.15 Q25.0 -8.6 24.25 -8.6 23.0 -8.6 -3.75 -17.5 -3.0 -12.05 -4.55 -11.5 L-5.1 -15.65 Q-5.6 -19.05 -4.0 -18.45 M-3.9 3.9 Q-5.25 2.65 -4.15 3.15 L18.1 9.3 17.85 9.9 Q-2.5 5.15 -3.9 3.9" fill="#cccccc" fill-rule="evenodd" stroke="none"/>
      <path d="M-5.55 1.55 L-5.25 7.35 Q-15.6 12.5 -16.95 14.25 -16.55 13.3 -17.95 9.5 -11.05 6.9 -5.55 1.55 M-5.5 0.4 Q-8.35 3.7 -11.8 5.9 -16.2 2.35 -14.6 2.25 -13.05 2.1 -10.2 -0.35 L-5.15 -4.75 -4.85 0.8 -5.5 0.4 M-24.75 -9.95 L-7.0 -19.45 Q-5.25 -13.85 -5.85 -9.65 L-12.45 -5.25 Q-18.35 -1.35 -22.0 0.65 -22.75 -2.85 -24.75 -9.95" fill="#666666" fill-rule="evenodd" stroke="none"/>
    </g>
  </defs>
</svg>
