<?xml version="1.0" encoding="UTF-8" standalone="no"?>
<svg xmlns:xlink="http://www.w3.org/1999/xlink" height="36.05px" width="32.7px" xmlns="http://www.w3.org/2000/svg">
  <g transform="matrix(1.0, 0.0, 0.0, 1.0, 16.35, 18.0)">
    <use height="36.05" transform="matrix(1.0, 0.0, 0.0, 1.0, -16.35, -18.0)" width="32.7" xlink:href="#shape0"/>
  </g>
  <defs>
    <g id="shape0" transform="matrix(1.0, 0.0, 0.0, 1.0, 16.35, 18.0)">
      <path d="M-6.15 -9.95 L-6.35 -10.2 -6.4 -10.65 -6.35 -10.85 -6.2 -11.35 -6.1 -11.45 -5.65 -11.35 -5.55 -11.2 -5.45 -10.95 Q-5.2 -11.1 -4.9 -11.2 L-4.7 -11.15 Q-4.25 -11.0 -4.15 -10.55 -4.05 -10.25 -4.25 -9.9 L-4.3 -9.85 Q-4.65 -9.45 -5.15 -9.55 L-4.35 -9.1 -4.25 -8.85 Q-4.25 -8.5 -4.65 -8.4 L-5.0 -8.35 Q-5.4 -8.3 -5.5 -8.65 L-5.55 -8.7 -5.6 -8.55 -5.8 -8.15 -6.1 -7.95 Q-6.3 -7.75 -6.55 -7.8 -6.7 -7.8 -6.75 -7.9 -7.0 -8.3 -6.75 -8.7 -6.5 -9.15 -6.05 -9.3 L-6.05 -9.35 -6.1 -9.35 -6.45 -9.3 -7.15 -9.35 -7.3 -9.5 -7.3 -9.7 Q-7.2 -10.15 -6.7 -10.05 L-6.45 -10.0 -6.15 -9.9 -6.05 -9.8 -6.15 -9.95 M-8.7 6.65 L-8.6 6.6 Q-8.4 6.6 -8.35 6.75 -8.25 6.9 -8.3 7.1 L-8.35 7.25 Q-8.0 6.9 -7.5 7.0 -7.25 7.05 -7.1 7.2 L-7.1 7.35 -7.45 7.65 -7.9 7.75 -8.05 7.7 -7.95 7.8 -7.85 7.9 -7.8 7.95 -7.8 8.15 -7.95 8.4 -8.55 8.55 -9.0 8.3 Q-9.15 8.2 -9.35 8.05 L-9.5 7.75 -9.5 7.7 -9.45 7.6 -9.2 7.5 -8.85 7.45 -8.8 7.45 -8.85 7.4 -8.85 6.75 -8.7 6.65 M-4.1 -6.95 Q-3.65 -6.75 -3.55 -6.25 L-3.5 -5.85 Q-3.3 -6.6 -2.6 -6.8 L-2.25 -6.75 -2.1 -6.5 -2.25 -6.15 -2.45 -5.9 -2.55 -5.8 -2.9 -5.65 -2.5 -5.5 -2.2 -5.3 Q-2.0 -5.1 -2.15 -4.85 L-2.35 -4.7 -2.8 -4.85 -3.0 -5.0 -2.8 -4.25 Q-2.7 -3.85 -2.9 -3.5 L-3.1 -3.35 -3.3 -3.4 -3.55 -3.6 Q-3.9 -4.1 -3.6 -4.65 -3.95 -4.35 -4.4 -4.35 L-4.85 -4.4 -5.4 -4.85 -5.4 -5.1 -5.3 -5.3 Q-4.9 -5.65 -4.4 -5.65 L-4.15 -5.6 -4.25 -5.8 -4.55 -6.75 -4.35 -7.0 -4.1 -6.95 M4.8 -11.7 L4.95 -11.65 5.1 -11.25 5.2 -10.45 Q5.3 -10.95 5.8 -11.1 L6.4 -11.1 6.65 -10.85 6.6 -10.55 6.35 -10.2 5.85 -10.0 5.55 -10.0 6.1 -9.7 6.45 -9.45 6.5 -9.35 Q6.75 -8.9 6.4 -8.55 L6.0 -8.3 5.75 -8.35 5.5 -8.55 Q5.25 -8.8 5.15 -9.15 L5.05 -8.45 4.75 -8.0 4.3 -7.9 3.95 -8.1 Q3.7 -8.4 3.9 -8.7 L4.2 -9.1 4.3 -9.15 4.5 -9.35 4.45 -9.35 4.15 -9.2 3.75 -9.15 3.7 -9.15 3.3 -9.2 3.05 -9.4 3.05 -9.65 3.2 -9.85 3.45 -10.1 4.55 -10.25 4.45 -10.5 4.4 -10.95 4.55 -11.5 4.8 -11.7 M8.3 -4.1 Q8.4 -4.8 9.05 -5.05 L9.35 -5.0 9.5 -4.75 9.35 -4.2 9.0 -3.65 8.9 -3.55 8.85 -3.55 8.9 -3.5 10.05 -3.05 10.25 -2.65 Q10.3 -2.45 10.15 -2.4 L9.75 -2.25 9.2 -2.45 8.75 -2.8 Q9.0 -2.3 8.7 -1.75 L8.3 -1.3 8.0 -1.25 7.8 -1.45 Q7.45 -2.2 7.95 -2.85 L7.3 -2.7 6.85 -2.85 6.45 -3.1 Q6.25 -3.3 6.45 -3.45 L6.7 -3.55 7.45 -3.95 7.5 -3.95 7.2 -4.35 Q6.95 -4.75 7.35 -5.05 L7.55 -5.05 7.95 -4.6 8.2 -4.15 8.25 -4.05 8.3 -4.1 M8.15 -3.05 L8.05 -3.0 7.95 -2.85 8.15 -3.05 M8.75 -2.8 L8.7 -2.85 8.75 -2.8 M8.55 2.15 L8.5 1.55 8.65 1.4 8.95 1.55 9.25 2.05 9.35 2.45 9.6 1.9 10.25 1.45 10.6 1.55 10.65 1.85 10.45 2.3 9.85 2.75 Q10.65 2.7 11.0 3.4 L11.0 3.65 10.75 3.85 10.35 3.8 9.85 3.55 9.55 3.25 Q9.75 4.05 9.1 4.65 L8.7 4.85 8.45 4.7 8.3 4.2 8.35 3.85 8.75 3.4 8.0 3.3 7.6 3.05 7.35 2.8 7.35 2.65 7.65 2.4 8.55 2.2 8.6 2.2 8.55 2.15 M8.6 2.2 Q8.7 2.45 8.9 2.3 L8.75 2.2 8.6 2.2 M8.75 3.4 L8.95 3.3 9.1 3.2 9.1 3.15 9.05 3.2 Q8.85 3.25 8.75 3.4 M8.0 8.5 L7.75 8.0 Q7.7 7.8 7.8 7.65 L8.3 7.3 8.95 7.15 9.4 7.25 9.35 6.8 9.35 6.75 9.55 6.15 9.75 6.05 9.95 6.25 10.0 6.85 9.95 6.9 9.8 7.3 Q10.05 6.9 10.5 6.9 L10.6 6.9 10.95 6.9 11.05 6.95 11.3 7.2 11.3 7.45 10.95 7.65 10.5 7.7 10.3 7.7 10.65 8.4 10.6 8.55 10.35 8.9 9.95 9.15 9.7 9.1 9.4 8.6 9.4 8.45 9.35 8.45 9.0 8.7 8.45 8.8 8.0 8.55 8.0 8.5 M9.4 7.25 L9.55 7.3 9.4 7.25 M3.9 -4.6 L3.5 -4.75 3.15 -5.0 3.0 -5.1 3.2 -4.65 3.2 -4.45 3.15 -4.0 2.95 -3.65 2.75 -3.45 Q2.5 -3.3 2.35 -3.6 L2.3 -4.25 2.4 -4.5 1.85 -4.15 1.4 -4.1 1.05 -4.2 Q0.9 -4.3 0.9 -4.5 L1.1 -4.8 1.4 -5.05 1.75 -5.2 2.0 -5.25 1.85 -5.35 Q1.6 -5.5 1.5 -5.8 L1.5 -6.45 1.6 -6.5 1.85 -6.35 2.25 -5.95 2.4 -5.7 Q2.35 -6.45 3.05 -6.65 L3.5 -6.6 3.6 -6.35 3.5 -5.95 3.0 -5.45 Q3.7 -5.6 4.2 -5.15 L4.3 -4.95 4.25 -4.7 Q4.15 -4.5 3.9 -4.6 M3.0 -0.5 L4.05 -0.35 4.1 -0.3 4.25 -0.05 4.1 0.15 3.75 0.25 3.25 0.15 2.85 0.05 3.15 0.8 2.85 1.5 Q2.7 1.75 2.45 1.6 L2.2 1.35 2.15 0.95 2.25 0.55 2.1 0.65 1.7 1.0 1.05 0.95 0.75 0.7 Q0.55 0.5 0.85 0.3 L1.25 -0.05 1.65 -0.3 1.85 -0.4 1.7 -0.5 1.45 -0.9 1.45 -1.3 1.55 -1.35 1.9 -1.25 2.25 -0.9 2.3 -0.75 2.55 -1.3 2.95 -1.65 3.25 -1.65 3.4 -1.4 3.3 -0.95 3.0 -0.55 3.0 -0.5 M-3.6 -4.65 L-3.55 -4.75 -3.6 -4.75 -3.6 -4.65 M-2.7 -0.7 L-2.8 -0.4 -3.15 -0.1 -2.1 0.0 -1.8 0.25 Q-1.7 0.4 -1.75 0.55 L-1.85 0.7 -2.05 0.8 -2.95 0.7 -2.7 1.2 -2.65 1.8 -2.8 2.1 -3.1 2.25 -3.6 1.95 Q-3.9 1.35 -3.7 0.7 -3.9 1.3 -4.6 1.3 L-5.4 0.95 -5.55 0.7 -5.6 0.45 -5.35 0.2 -4.4 0.0 -4.5 -0.15 -4.7 -0.5 -4.75 -0.55 -4.75 -1.05 -4.6 -1.15 -4.35 -1.0 -4.0 -0.65 -3.9 -0.5 -3.8 -0.25 -3.75 -0.45 -3.65 -0.85 -3.4 -1.3 -3.0 -1.4 -2.75 -1.3 -2.65 -1.1 -2.7 -0.7 M-4.85 5.6 L-4.9 5.35 -4.95 5.25 -5.1 4.65 -4.9 4.3 Q-4.75 4.3 -4.7 4.4 L-4.35 4.85 -4.15 5.3 -4.05 5.05 Q-4.0 4.55 -3.55 4.4 L-3.05 4.35 Q-2.75 4.4 -2.7 4.7 -2.65 4.9 -2.75 5.1 L-3.0 5.45 -3.15 5.6 -3.3 5.7 -2.05 6.05 -1.8 6.35 -1.8 6.55 -1.9 6.7 -2.45 6.75 -3.2 6.55 -3.0 6.8 -2.95 7.1 -2.9 7.45 -3.2 7.9 -3.5 8.05 -3.9 8.0 -4.15 7.8 -4.3 7.45 -4.35 7.0 -4.25 6.3 -4.6 6.8 -4.85 7.0 -5.6 7.0 -6.15 6.55 -6.2 6.25 -6.1 6.0 Q-5.65 5.55 -4.95 5.6 L-4.85 5.6 -4.85 5.65 -4.55 5.9 Q-4.65 5.6 -4.85 5.6 M2.25 0.55 L2.45 0.15 2.25 0.45 2.25 0.55 M3.5 6.3 Q3.5 5.45 4.35 5.2 L4.7 5.3 4.75 5.6 4.4 6.3 4.4 6.35 3.85 6.8 5.1 6.75 5.6 7.15 5.6 7.4 5.35 7.65 4.8 7.65 4.15 7.4 3.95 7.25 4.2 8.1 4.15 8.6 4.1 8.7 3.75 9.1 3.5 9.1 3.15 8.7 3.1 8.6 3.05 8.2 3.25 7.75 1.95 7.8 1.5 7.45 1.5 7.25 1.8 6.85 Q2.2 6.5 2.75 6.4 L2.55 6.2 2.45 6.0 2.4 5.4 2.5 5.3 2.95 5.5 3.35 6.1 3.45 6.3 3.5 6.45 3.5 6.3 M-8.05 -2.95 L-7.7 -2.1 Q-7.65 -1.55 -8.05 -1.2 L-8.25 -1.2 -8.55 -1.5 -8.7 -1.9 -8.75 -2.35 -8.75 -2.5 -8.8 -2.45 -9.1 -2.2 -9.45 -2.05 Q-9.8 -2.0 -10.05 -2.25 L-10.35 -2.6 -10.3 -3.05 -10.15 -3.25 -9.85 -3.4 -9.15 -3.55 -9.45 -3.85 -9.8 -4.4 -9.8 -4.8 -9.55 -5.0 -9.3 -4.85 -9.05 -4.5 -8.85 -4.1 -8.7 -5.2 -8.45 -5.5 Q-8.15 -5.7 -7.95 -5.35 -7.75 -4.85 -7.95 -4.3 L-8.0 -4.2 -8.1 -4.0 -8.2 -3.85 -6.95 -4.1 Q-6.6 -4.0 -6.4 -3.7 L-6.4 -3.25 Q-6.8 -2.6 -7.5 -2.85 L-8.0 -3.0 -8.1 -3.0 -8.05 -2.95 M-9.2 1.7 L-8.8 1.25 -8.45 1.15 Q-8.25 1.2 -8.1 1.35 L-8.0 1.7 -8.1 2.05 -8.55 2.5 -7.9 2.4 Q-7.35 2.45 -7.1 2.8 L-6.95 3.15 -7.05 3.35 -7.3 3.5 -7.8 3.45 -8.3 3.25 Q-8.4 3.2 -8.55 3.1 -8.1 3.8 -8.5 4.55 L-8.5 4.6 Q-8.7 4.9 -9.05 4.9 L-9.4 4.7 -9.65 4.35 -9.65 4.3 Q-9.8 3.85 -9.55 3.5 L-10.0 3.65 -10.55 3.65 -11.1 3.5 -11.35 3.3 -11.35 3.15 -11.15 2.95 -11.15 2.9 -10.75 2.7 -9.85 2.55 -9.8 2.55 -10.05 2.3 -10.3 1.65 -10.25 1.35 -10.15 1.3 -9.75 1.55 -9.2 2.3 -9.2 1.7 M-9.3 3.2 L-9.5 3.4 -9.55 3.5 -9.3 3.2 M-9.8 2.55 L-9.7 2.6 -9.8 2.55 M-4.4 0.0 L-4.15 0.05 -4.2 0.0 -4.35 -0.05 -4.4 0.0 M-8.45 7.45 L-8.35 7.25 -8.5 7.45 -8.45 7.45 M3.25 7.75 L3.25 7.7 3.5 7.25 3.25 7.65 3.25 7.75" fill="#009900" fill-rule="evenodd" stroke="none"/>
      <path d="M-6.05 -9.3 Q-6.5 -9.15 -6.75 -8.7 -7.0 -8.3 -6.75 -7.9 -6.7 -7.8 -6.55 -7.8 -6.3 -7.75 -6.1 -7.95 L-5.8 -8.15 -5.6 -8.55 -5.55 -8.7 -5.5 -8.65 Q-5.4 -8.3 -5.0 -8.35 L-4.65 -8.4 Q-4.25 -8.5 -4.25 -8.85 L-4.35 -9.1 -5.15 -9.55 Q-4.65 -9.45 -4.3 -9.85 L-4.25 -9.9 Q-4.05 -10.25 -4.15 -10.55 -4.25 -11.0 -4.7 -11.15 L-4.9 -11.2 Q-5.2 -11.1 -5.45 -10.95 L-5.55 -11.2 -5.65 -11.35 -6.1 -11.45 -6.2 -11.35 -6.35 -10.85 -6.4 -10.65 -6.35 -10.2 -6.15 -9.95 -6.15 -9.9 -6.45 -10.0 -6.7 -10.05 Q-7.2 -10.15 -7.3 -9.7 L-7.3 -9.5 -7.15 -9.35 -6.45 -9.3 -6.1 -9.35 -6.05 -9.3 M-11.95 5.7 L-11.9 3.65 -11.85 2.95 -11.75 1.85 -11.5 0.35 -11.25 -0.95 -10.7 -2.9 -10.55 -3.4 -9.95 -4.85 -9.8 -5.25 -9.6 -5.75 -9.4 -6.35 -8.5 -8.0 -8.5 -8.1 -7.65 -9.8 -7.55 -9.9 -7.3 -10.35 -6.3 -11.5 Q-5.15 -12.65 -3.55 -13.15 L-3.35 -11.95 -3.65 -12.35 -3.7 -12.4 -3.8 -12.4 -3.95 -12.3 -3.9 -12.05 Q-2.45 -10.05 -0.1 -9.85 L-0.15 -9.35 -0.1 -8.75 -0.15 -7.3 -0.15 -5.65 -0.2 -4.15 -0.2 -1.35 -0.15 -0.3 -0.1 2.7 -0.05 3.6 -0.15 4.55 -0.05 6.0 0.05 8.5 0.0 10.3 -3.25 9.9 -5.45 9.55 Q-7.1 9.25 -8.55 8.55 L-7.95 8.4 -7.8 8.15 -7.8 7.95 -7.85 7.9 -7.95 7.8 -7.9 7.75 -7.45 7.65 -7.1 7.35 -7.1 7.2 Q-7.25 7.05 -7.5 7.0 -8.0 6.9 -8.35 7.25 L-8.3 7.1 Q-8.25 6.9 -8.35 6.75 -8.4 6.6 -8.6 6.6 L-8.7 6.65 -9.05 6.6 -9.6 7.15 -9.9 7.8 -10.15 7.65 -10.85 7.15 -11.95 5.9 -11.9 5.8 -11.95 5.7 M-4.1 -6.95 L-4.35 -7.0 -4.55 -6.75 -4.25 -5.8 -4.15 -5.6 -4.4 -5.65 Q-4.9 -5.65 -5.3 -5.3 L-5.4 -5.1 -5.4 -4.85 -4.85 -4.4 -4.4 -4.35 Q-3.95 -4.35 -3.6 -4.65 -3.9 -4.1 -3.55 -3.6 L-3.3 -3.4 -3.1 -3.35 -2.9 -3.5 Q-2.7 -3.85 -2.8 -4.25 L-3.0 -5.0 -2.8 -4.85 -2.35 -4.7 -2.15 -4.85 Q-2.0 -5.1 -2.2 -5.3 L-2.5 -5.5 -2.9 -5.65 -2.55 -5.8 -2.45 -5.9 -2.25 -6.15 -2.1 -6.5 -2.25 -6.75 -2.6 -6.8 Q-3.3 -6.6 -3.5 -5.85 L-3.55 -6.25 Q-3.65 -6.75 -4.1 -6.95 M-0.55 -4.15 Q-0.2 -5.2 -1.4 -5.2 L-1.9 -4.95 -2.0 -4.75 Q-2.35 -4.3 -2.0 -3.75 L-1.6 -3.5 Q-0.8 -3.35 -0.55 -4.15 M-2.7 -0.7 L-2.65 -1.1 -2.75 -1.3 -3.0 -1.4 -3.4 -1.3 -3.65 -0.85 -3.75 -0.45 -3.8 -0.25 -3.9 -0.5 -4.0 -0.65 -4.35 -1.0 -4.6 -1.15 -4.75 -1.05 -4.75 -0.55 -4.7 -0.5 -4.5 -0.15 -4.4 0.0 -5.35 0.2 -5.6 0.45 -5.55 0.7 -5.4 0.95 -4.6 1.3 Q-3.9 1.3 -3.7 0.7 -3.9 1.35 -3.6 1.95 L-3.1 2.25 -2.8 2.1 -2.65 1.8 -2.7 1.2 -2.95 0.7 -2.05 0.8 -1.85 0.7 -1.75 0.55 Q-1.7 0.4 -1.8 0.25 L-2.1 0.0 -3.15 -0.1 -2.8 -0.4 -2.7 -0.7 M-1.6 1.8 Q-2.0 1.95 -2.2 2.35 L-2.3 2.65 Q-2.55 3.5 -1.5 3.8 L-0.9 3.4 -0.6 2.9 -0.55 2.7 Q-0.5 1.7 -1.6 1.8 M-4.95 5.6 Q-5.65 5.55 -6.1 6.0 L-6.2 6.25 -6.15 6.55 -5.6 7.0 -4.85 7.0 -4.6 6.8 -4.25 6.3 -4.35 7.0 -4.3 7.45 -4.15 7.8 -3.9 8.0 -3.5 8.05 -3.2 7.9 -2.9 7.45 -2.95 7.1 -3.0 6.8 -3.2 6.55 -2.45 6.75 -1.9 6.7 -1.8 6.55 -1.8 6.35 -2.05 6.05 -3.3 5.7 -3.15 5.6 -3.0 5.45 -2.75 5.1 Q-2.65 4.9 -2.7 4.7 -2.75 4.4 -3.05 4.35 L-3.55 4.4 Q-4.0 4.55 -4.05 5.05 L-4.15 5.3 -4.35 4.85 -4.7 4.4 Q-4.75 4.3 -4.9 4.3 L-5.1 4.65 -4.95 5.25 -4.9 5.35 -4.85 5.6 -4.95 5.6 M-8.0 -3.0 L-7.5 -2.85 Q-6.8 -2.6 -6.4 -3.25 L-6.4 -3.7 Q-6.6 -4.0 -6.95 -4.1 L-8.2 -3.85 -8.1 -4.0 -8.0 -4.2 -7.95 -4.3 Q-7.75 -4.85 -7.95 -5.35 -8.15 -5.7 -8.45 -5.5 L-8.7 -5.2 -8.85 -4.1 -9.05 -4.5 -9.3 -4.85 -9.55 -5.0 -9.8 -4.8 -9.8 -4.4 -9.45 -3.85 -9.15 -3.55 -9.85 -3.4 -10.15 -3.25 -10.3 -3.05 -10.35 -2.6 -10.05 -2.25 Q-9.8 -2.0 -9.45 -2.05 L-9.1 -2.2 -8.8 -2.45 -8.75 -2.5 -8.75 -2.35 -8.7 -1.9 -8.55 -1.5 -8.25 -1.2 -8.05 -1.2 Q-7.65 -1.55 -7.7 -2.1 L-8.05 -2.95 -8.0 -3.0 M-9.2 1.7 L-9.2 2.3 -9.75 1.55 -10.15 1.3 -10.25 1.35 -10.3 1.65 -10.05 2.3 -9.8 2.55 -9.85 2.55 -10.75 2.7 -11.15 2.9 -11.15 2.95 -11.35 3.15 -11.35 3.3 -11.1 3.5 -10.55 3.65 -10.0 3.65 -9.55 3.5 Q-9.8 3.85 -9.65 4.3 L-9.65 4.35 -9.4 4.7 -9.05 4.9 Q-8.7 4.9 -8.5 4.6 L-8.5 4.55 Q-8.1 3.8 -8.55 3.1 -8.4 3.2 -8.3 3.25 L-7.8 3.45 -7.3 3.5 -7.05 3.35 -6.95 3.15 -7.1 2.8 Q-7.35 2.45 -7.9 2.4 L-8.55 2.5 -8.1 2.05 -8.0 1.7 -8.1 1.35 Q-8.25 1.2 -8.45 1.15 L-8.8 1.25 -9.2 1.7" fill="url(#gradient0)" fill-rule="evenodd" stroke="none"/>
      <path d="M-6.55 -11.75 Q-5.3 -13.15 -3.55 -13.6 L-3.5 -13.6 -3.45 -14.05 Q-3.1 -15.95 -1.7 -17.1 L-1.7 -17.25 -0.4 -17.9 -0.1 -18.0 Q2.55 -17.55 3.0 -14.85 L3.15 -13.8 Q6.15 -13.25 8.1 -11.0 L8.85 -10.05 9.15 -9.65 9.75 -8.7 Q10.8 -6.9 11.35 -4.9 L11.4 -4.85 12.4 0.0 12.5 0.85 12.8 3.5 12.85 6.75 12.85 7.1 12.8 8.2 12.75 8.55 12.75 8.6 Q13.55 10.35 14.95 11.8 15.85 12.75 16.35 13.95 L16.35 14.25 16.2 14.35 16.15 14.35 Q14.85 16.35 12.3 16.9 L11.35 17.2 10.7 17.4 4.1 17.95 0.55 17.4 Q0.7 15.65 0.3 14.0 L0.2 13.6 -2.3 13.4 Q-2.55 14.8 -1.95 16.15 L-1.9 16.2 -1.9 16.25 -1.95 16.35 Q-3.75 16.6 -5.6 16.3 -9.1 15.75 -12.15 14.0 L-13.65 13.05 -15.9 10.8 -16.05 10.55 -16.35 9.75 -16.3 9.65 -15.9 9.4 Q-14.35 8.4 -13.15 7.0 L-12.3 5.85 -12.3 5.6 -12.3 3.5 -12.3 2.95 -11.95 0.65 -11.55 -1.0 -11.3 -2.1 -11.1 -2.8 -10.4 -4.9 -10.35 -4.95 -10.3 -5.0 -10.35 -5.05 -9.95 -6.0 -9.95 -6.05 -9.9 -6.1 -9.65 -6.75 -8.9 -8.1 -7.65 -10.35 -6.55 -11.75 M-8.55 8.55 Q-7.1 9.25 -5.45 9.55 L-3.25 9.9 0.0 10.3 0.05 8.5 -0.05 6.0 -0.15 4.55 -0.05 3.6 -0.1 2.7 -0.15 -0.3 -0.2 -1.35 -0.2 -4.15 -0.15 -5.65 -0.15 -7.3 -0.1 -8.75 -0.15 -9.35 -0.1 -9.85 Q-2.45 -10.05 -3.9 -12.05 L-3.95 -12.3 -3.8 -12.4 -3.7 -12.4 -3.65 -12.35 -3.35 -11.95 -3.55 -13.15 Q-5.15 -12.65 -6.3 -11.5 L-7.3 -10.35 -7.55 -9.9 -7.65 -9.8 -8.5 -8.1 -8.5 -8.0 -9.4 -6.35 -9.6 -5.75 -9.8 -5.25 -9.95 -4.85 -10.55 -3.4 -10.7 -2.9 -11.25 -0.95 -11.5 0.35 -11.75 1.85 -11.85 2.95 -11.9 3.65 -11.95 5.7 -11.95 5.75 -11.9 5.8 -11.95 5.9 -10.85 7.15 -10.15 7.65 -9.9 7.8 -9.35 8.15 -9.0 8.35 -8.55 8.55 M11.15 -4.0 Q10.85 -5.6 10.15 -7.1 L8.9 -9.25 8.5 -9.85 8.05 -10.45 Q6.45 -12.55 3.85 -13.2 L3.2 -13.4 3.15 -11.4 3.2 -11.3 3.25 -11.35 3.55 -11.75 3.85 -11.65 Q2.85 -10.0 0.75 -9.85 L0.15 -9.85 0.25 -9.3 0.25 -9.1 0.2 -8.35 0.2 -5.65 0.15 -2.35 0.15 -0.3 0.25 2.7 0.25 3.6 0.25 4.3 0.25 4.35 0.25 4.7 0.35 6.0 0.45 7.65 0.5 8.5 0.25 10.3 2.15 10.4 8.1 10.1 8.45 10.05 Q10.15 9.75 11.6 8.8 L12.35 8.5 12.4 8.25 12.45 7.05 12.45 3.5 12.4 2.95 12.05 -0.05 11.45 -3.0 11.35 -3.5 11.3 -3.65 11.25 -3.85 11.15 -4.0 M-1.0 -17.2 Q-3.25 -15.55 -3.1 -12.65 L-3.0 -11.65 -3.05 -11.6 Q-1.55 -10.05 0.9 -10.25 2.0 -10.4 2.8 -10.95 L2.75 -11.0 2.85 -11.3 Q2.95 -13.45 2.35 -15.55 1.7 -17.65 -0.45 -17.4 L-1.0 -17.2 M12.5 9.2 L12.4 8.9 12.35 8.9 Q10.6 9.95 8.55 10.35 L7.7 10.5 Q2.15 11.2 -3.35 10.25 L-7.0 9.45 -9.65 8.45 -10.1 8.2 -11.0 7.55 -12.05 6.25 -12.1 6.25 -12.8 7.25 -13.95 8.4 Q-14.9 9.25 -15.9 9.9 L-15.95 9.9 -15.9 10.0 Q-14.5 12.3 -12.05 13.7 L-11.1 14.15 -9.65 14.75 Q-7.55 15.65 -5.25 15.9 L-2.3 16.15 Q-2.95 14.8 -2.75 13.3 L-3.65 13.05 -4.25 12.55 -4.2 12.45 -4.1 12.4 Q-1.4 13.65 1.7 13.05 L2.45 13.2 2.45 13.3 2.45 13.35 0.6 13.6 Q1.2 15.15 0.95 16.9 L0.9 17.0 Q5.8 18.25 10.6 17.05 L13.8 15.9 15.45 14.7 15.8 14.15 15.85 14.15 15.8 14.1 15.85 14.0 15.9 13.9 14.25 11.5 12.5 9.2 M-0.55 -4.15 Q-0.8 -3.35 -1.6 -3.5 L-2.0 -3.75 Q-2.35 -4.3 -2.0 -4.75 L-1.9 -4.95 -1.4 -5.2 Q-0.2 -5.2 -0.55 -4.15 M-0.8 -4.6 L-0.85 -4.7 -1.4 -4.8 -1.5 -4.8 -1.6 -4.75 -1.8 -4.35 -1.8 -4.25 -1.7 -4.0 -1.65 -3.95 Q-1.0 -3.65 -0.8 -4.35 L-0.8 -4.6 M-0.95 2.4 L-1.0 2.3 -1.05 2.25 -1.65 2.2 -1.85 2.35 -1.9 2.4 -1.95 2.65 -2.0 2.7 -2.05 2.85 -1.8 3.3 -1.75 3.35 -1.55 3.4 -0.9 2.7 -0.9 2.5 -0.95 2.45 -0.95 2.4 M-1.6 1.8 Q-0.5 1.7 -0.55 2.7 L-0.6 2.9 -0.9 3.4 -1.5 3.8 Q-2.55 3.5 -2.3 2.65 L-2.2 2.35 Q-2.0 1.95 -1.6 1.8" fill="#000000" fill-rule="evenodd" stroke="none"/>
      <path d="M-6.05 -9.3 L-6.1 -9.35 -6.05 -9.35 -6.05 -9.3 M-9.9 7.8 L-9.6 7.15 -9.05 6.6 -8.7 6.65 -8.85 6.75 -8.85 7.4 -8.8 7.45 -8.85 7.45 -9.2 7.5 -9.45 7.6 -9.5 7.7 -9.5 7.75 -9.35 8.05 Q-9.15 8.2 -9.0 8.3 L-8.55 8.55 -9.0 8.35 -9.35 8.15 -9.9 7.8 M-7.9 7.75 L-7.95 7.8 -8.05 7.7 -7.9 7.75 M3.15 -11.4 L3.25 -11.35 3.2 -11.3 3.15 -11.4 M8.9 -3.55 L8.9 -3.5 8.85 -3.55 8.9 -3.55 M7.45 -3.95 L7.5 -3.95 7.45 -3.95 M8.2 -4.15 L8.3 -4.1 8.25 -4.05 8.2 -4.15 M8.75 -2.8 L8.7 -2.85 8.75 -2.8 M8.55 2.2 L8.55 2.15 8.6 2.2 8.55 2.2 M8.0 8.55 L7.95 8.55 8.0 8.5 8.0 8.55 M3.0 -0.55 L3.0 -0.5 3.0 -0.55 M-4.95 5.6 L-4.85 5.6 -4.95 5.6 M3.45 6.3 L3.5 6.3 3.5 6.45 3.45 6.3 M-8.0 -3.0 L-8.05 -2.95 -8.1 -3.0 -8.0 -3.0" fill="#ff6600" fill-rule="evenodd" stroke="none"/>
      <path d="M3.15 -11.4 L3.2 -13.4 3.85 -13.2 Q6.45 -12.55 8.05 -10.45 L8.5 -9.85 8.9 -9.25 10.15 -7.1 Q10.85 -5.6 11.15 -4.0 L11.3 -3.65 11.35 -3.5 11.45 -3.0 12.05 -0.05 12.4 2.95 12.45 3.5 12.45 7.05 12.4 8.25 12.35 8.5 11.6 8.8 Q10.15 9.75 8.45 10.05 L8.1 10.1 2.15 10.4 0.25 10.3 0.5 8.5 0.45 7.65 0.35 6.0 0.25 4.7 0.25 4.35 0.25 4.3 0.25 3.6 0.25 2.7 0.15 -0.3 0.15 -2.35 0.2 -5.65 0.2 -8.35 0.25 -9.1 0.25 -9.3 0.15 -9.85 0.75 -9.85 Q2.85 -10.0 3.85 -11.65 L3.55 -11.75 3.25 -11.35 3.15 -11.4 M4.8 -11.7 L4.55 -11.5 4.4 -10.95 4.45 -10.5 4.55 -10.25 3.45 -10.1 3.2 -9.85 3.05 -9.65 3.05 -9.4 3.3 -9.2 3.7 -9.15 3.75 -9.15 4.15 -9.2 4.45 -9.35 4.5 -9.35 4.3 -9.15 4.2 -9.1 3.9 -8.7 Q3.7 -8.4 3.95 -8.1 L4.3 -7.9 4.75 -8.0 5.05 -8.45 5.15 -9.15 Q5.25 -8.8 5.5 -8.55 L5.75 -8.35 6.0 -8.3 6.4 -8.55 Q6.75 -8.9 6.5 -9.35 L6.45 -9.45 6.1 -9.7 5.55 -10.0 5.85 -10.0 6.35 -10.2 6.6 -10.55 6.65 -10.85 6.4 -11.1 5.8 -11.1 Q5.3 -10.95 5.2 -10.45 L5.1 -11.25 4.95 -11.65 4.8 -11.7 M8.9 -3.55 L9.0 -3.65 9.35 -4.2 9.5 -4.75 9.35 -5.0 9.05 -5.05 Q8.4 -4.8 8.3 -4.1 L8.2 -4.15 7.95 -4.6 7.55 -5.05 7.35 -5.05 Q6.95 -4.75 7.2 -4.35 L7.5 -3.95 7.45 -3.95 6.7 -3.55 6.45 -3.45 Q6.25 -3.3 6.45 -3.1 L6.85 -2.85 7.3 -2.7 7.95 -2.85 Q7.45 -2.2 7.8 -1.45 L8.0 -1.25 8.3 -1.3 8.7 -1.75 Q9.0 -2.3 8.75 -2.8 L9.2 -2.45 9.75 -2.25 10.15 -2.4 Q10.3 -2.45 10.25 -2.65 L10.05 -3.05 8.9 -3.5 8.9 -3.55 M8.55 2.2 L7.65 2.4 7.35 2.65 7.35 2.8 7.6 3.05 8.0 3.3 8.75 3.4 8.35 3.85 8.3 4.2 8.45 4.7 8.7 4.85 9.1 4.65 Q9.75 4.05 9.55 3.25 L9.85 3.55 10.35 3.8 10.75 3.85 11.0 3.65 11.0 3.4 Q10.65 2.7 9.85 2.75 L10.45 2.3 10.65 1.85 10.6 1.55 10.25 1.45 9.6 1.9 9.35 2.45 9.25 2.05 8.95 1.55 8.65 1.4 8.5 1.55 8.55 2.15 8.55 2.2 M8.0 8.55 L8.45 8.8 9.0 8.7 9.35 8.45 9.4 8.45 9.4 8.6 9.7 9.1 9.95 9.15 10.35 8.9 10.6 8.55 10.65 8.4 10.3 7.7 10.5 7.7 10.95 7.65 11.3 7.45 11.3 7.2 11.05 6.95 10.95 6.9 10.6 6.9 10.5 6.9 Q10.05 6.9 9.8 7.3 L9.95 6.9 10.0 6.85 9.95 6.25 9.75 6.05 9.55 6.15 9.35 6.75 9.35 6.8 9.4 7.25 8.95 7.15 8.3 7.3 7.8 7.65 Q7.7 7.8 7.75 8.0 L8.0 8.5 7.95 8.55 8.0 8.55 M3.0 -0.55 L3.3 -0.95 3.4 -1.4 3.25 -1.65 2.95 -1.65 2.55 -1.3 2.3 -0.75 2.25 -0.9 1.9 -1.25 1.55 -1.35 1.45 -1.3 1.45 -0.9 1.7 -0.5 1.85 -0.4 1.65 -0.3 1.25 -0.05 0.85 0.3 Q0.55 0.5 0.75 0.7 L1.05 0.95 1.7 1.0 2.1 0.65 2.25 0.55 2.15 0.95 2.2 1.35 2.45 1.6 Q2.7 1.75 2.85 1.5 L3.15 0.8 2.85 0.05 3.25 0.15 3.75 0.25 4.1 0.15 4.25 -0.05 4.1 -0.3 4.05 -0.35 3.0 -0.5 3.0 -0.55 M3.9 -4.6 Q4.15 -4.5 4.25 -4.7 L4.3 -4.95 4.2 -5.15 Q3.7 -5.6 3.0 -5.45 L3.5 -5.95 3.6 -6.35 3.5 -6.6 3.05 -6.65 Q2.35 -6.45 2.4 -5.7 L2.25 -5.95 1.85 -6.35 1.6 -6.5 1.5 -6.45 1.5 -5.8 Q1.6 -5.5 1.85 -5.35 L2.0 -5.25 1.75 -5.2 1.4 -5.05 1.1 -4.8 0.9 -4.5 Q0.9 -4.3 1.05 -4.2 L1.4 -4.1 1.85 -4.15 2.4 -4.5 2.3 -4.25 2.35 -3.6 Q2.5 -3.3 2.75 -3.45 L2.95 -3.65 3.15 -4.0 3.2 -4.45 3.2 -4.65 3.0 -5.1 3.15 -5.0 3.5 -4.75 3.9 -4.6 M3.45 6.3 L3.35 6.1 2.95 5.5 2.5 5.3 2.4 5.4 2.45 6.0 2.55 6.2 2.75 6.4 Q2.2 6.5 1.8 6.85 L1.5 7.25 1.5 7.45 1.95 7.8 3.25 7.75 3.05 8.2 3.1 8.6 3.15 8.7 3.5 9.1 3.75 9.1 4.1 8.7 4.15 8.6 4.2 8.1 3.95 7.25 4.15 7.4 4.8 7.65 5.35 7.65 5.6 7.4 5.6 7.15 5.1 6.75 3.85 6.8 4.4 6.35 4.4 6.3 4.75 5.6 4.7 5.3 4.35 5.2 Q3.5 5.45 3.5 6.3 L3.45 6.3" fill="url(#gradient1)" fill-rule="evenodd" stroke="none"/>
      <path d="M-1.0 -17.2 L-0.45 -17.4 Q1.7 -17.65 2.35 -15.55 2.95 -13.45 2.85 -11.3 L2.75 -11.0 2.8 -10.95 Q2.0 -10.4 0.9 -10.25 -1.55 -10.05 -3.05 -11.6 L-3.0 -11.65 -3.1 -12.65 Q-3.25 -15.55 -1.0 -17.2" fill="url(#gradient2)" fill-rule="evenodd" stroke="none"/>
      <path d="M12.35 8.9 L12.5 9.2 14.25 11.5 15.9 13.9 15.85 14.0 15.8 14.1 15.85 14.15 15.8 14.15 15.45 14.7 13.8 15.9 10.6 17.05 10.55 16.9 9.25 12.4 8.55 10.35 Q10.6 9.95 12.35 8.9" fill="url(#gradient3)" fill-rule="evenodd" stroke="none"/>
      <path d="M8.55 10.35 L9.25 12.4 10.55 16.9 10.6 17.05 Q5.8 18.25 0.9 17.0 L0.95 16.9 Q1.2 15.15 0.6 13.6 L2.45 13.35 2.45 13.3 2.45 13.2 1.7 13.05 Q-1.4 13.65 -4.1 12.4 L-4.2 12.45 -4.25 12.55 -3.65 13.05 -2.75 13.3 Q-2.95 14.8 -2.3 16.15 L-5.25 15.9 Q-7.55 15.65 -9.65 14.75 L-11.1 14.15 -12.05 13.7 -11.95 13.2 -11.25 11.1 -10.6 9.4 -10.1 8.2 -9.65 8.45 -7.0 9.45 -3.35 10.25 Q2.15 11.2 7.7 10.5 L8.55 10.35" fill="#3366ff" fill-rule="evenodd" stroke="none"/>
      <path d="M-0.8 -4.6 L-0.8 -4.35 Q-1.0 -3.65 -1.65 -3.95 L-1.7 -4.0 -1.8 -4.25 -1.8 -4.35 -1.6 -4.75 -1.5 -4.8 -1.4 -4.8 -0.85 -4.7 -0.8 -4.6 M-0.95 2.4 L-0.95 2.45 -0.9 2.5 -0.9 2.7 -1.55 3.4 -1.75 3.35 -1.8 3.3 -2.05 2.85 -2.0 2.7 -1.95 2.65 -1.9 2.4 -1.85 2.35 -1.65 2.2 -1.05 2.25 -1.0 2.3 -0.95 2.4" fill="#66cc66" fill-rule="evenodd" stroke="none"/>
      <path d="M-12.05 13.7 Q-14.5 12.3 -15.9 10.0 L-15.95 9.9 -15.9 9.9 Q-14.9 9.25 -13.95 8.4 L-12.8 7.25 -12.1 6.25 -12.05 6.25 -11.0 7.55 -10.1 8.2 -10.6 9.4 -11.25 11.1 -11.95 13.2 -12.05 13.7" fill="url(#gradient4)" fill-rule="evenodd" stroke="none"/>
    </g>
    <linearGradient gradientTransform="matrix(-0.0072, -0.0014, 0.0027, -0.014, -11.75, -1.2)" gradientUnits="userSpaceOnUse" id="gradient0" spreadMethod="pad" x1="-819.2" x2="819.2">
      <stop offset="0.0" stop-color="#ff6600"/>
      <stop offset="1.0" stop-color="#000000"/>
    </linearGradient>
    <linearGradient gradientTransform="matrix(0.0075, -9.0E-4, 0.0018, 0.0144, 10.35, -1.75)" gradientUnits="userSpaceOnUse" id="gradient1" spreadMethod="pad" x1="-819.2" x2="819.2">
      <stop offset="0.0" stop-color="#ff6600"/>
      <stop offset="1.0" stop-color="#000000"/>
    </linearGradient>
    <linearGradient gradientTransform="matrix(0.0036, 0.0, 0.0, 0.0044, 1.8, -13.7)" gradientUnits="userSpaceOnUse" id="gradient2" spreadMethod="pad" x1="-819.2" x2="819.2">
      <stop offset="0.0" stop-color="#6f3827"/>
      <stop offset="1.0" stop-color="#000000"/>
    </linearGradient>
    <linearGradient gradientTransform="matrix(0.0038, -0.0024, 0.0026, 0.0042, 13.3, 12.25)" gradientUnits="userSpaceOnUse" id="gradient3" spreadMethod="pad" x1="-819.2" x2="819.2">
      <stop offset="0.0" stop-color="#3366ff"/>
      <stop offset="1.0" stop-color="#000000"/>
    </linearGradient>
    <linearGradient gradientTransform="matrix(-0.003, -0.0018, 0.0024, -0.0039, -14.0, 9.1)" gradientUnits="userSpaceOnUse" id="gradient4" spreadMethod="pad" x1="-819.2" x2="819.2">
      <stop offset="0.0" stop-color="#3366ff"/>
      <stop offset="1.0" stop-color="#000000"/>
    </linearGradient>
  </defs>
</svg>
