<?xml version="1.0" encoding="UTF-8" standalone="no"?>
<svg xmlns:xlink="http://www.w3.org/1999/xlink" height="101.9px" width="103.85px" xmlns="http://www.w3.org/2000/svg">
  <g transform="matrix(1.0, 0.0, 0.0, 1.0, 51.9, 50.95)">
    <use height="101.9" transform="matrix(1.0, 0.0, 0.0, 1.0, -51.9, -50.95)" width="103.85" xlink:href="#shape0"/>
  </g>
  <defs>
    <g id="shape0" transform="matrix(1.0, 0.0, 0.0, 1.0, 51.9, 50.95)">
      <path d="M-24.3 -45.35 L-23.55 -45.65 -17.15 -47.7 Q-10.95 -49.4 -4.5 -50.1 L3.85 -50.85 Q11.25 -51.15 18.6 -50.55 L33.35 -49.1 Q40.65 -48.2 47.7 -46.4 49.8 -45.9 51.7 -44.9 L51.8 -44.8 51.9 -44.55 51.95 -44.5 Q52.05 -37.3 50.65 -30.15 L48.15 -15.65 47.85 -14.8 Q47.15 -13.55 46.2 -13.35 L46.2 -13.3 46.1 -13.15 46.0 -13.05 42.05 -13.3 41.5 -13.4 39.55 0.3 37.95 8.6 38.45 8.65 40.7 8.75 41.05 8.85 41.2 9.05 41.4 9.3 41.5 9.5 41.0 14.55 41.0 14.65 40.9 15.3 40.75 15.55 40.05 15.45 40.05 15.35 39.65 15.6 39.7 16.05 39.7 16.15 39.5 30.7 39.35 35.2 39.15 35.3 Q36.5 36.85 33.75 37.9 L33.7 37.95 33.2 38.1 32.9 38.2 32.65 38.0 32.9 37.7 29.15 37.0 29.5 32.85 26.55 34.4 17.8 38.55 17.85 40.1 18.0 44.05 Q18.1 45.65 17.75 47.0 L17.8 47.3 17.75 47.55 17.5 47.8 17.45 47.85 17.4 47.9 Q14.85 49.95 11.9 50.95 L11.75 50.8 11.7 50.7 Q7.45 50.8 3.9 48.75 L3.8 48.5 4.0 48.25 4.2 48.15 Q4.1 41.0 4.4 33.85 L4.5 28.4 -0.6 27.6 -0.3 30.25 -0.3 30.3 -0.25 30.5 -0.3 30.55 -0.4 30.85 -0.9 31.0 Q-2.05 31.75 -3.5 32.25 -4.1 32.45 -4.7 32.25 L-4.85 32.2 -10.45 31.45 Q-10.85 28.85 -10.85 26.2 L-14.7 25.7 -14.75 25.8 Q-20.45 27.85 -26.2 30.05 -30.7 31.65 -34.85 34.2 L-35.05 34.25 -34.85 36.3 -34.45 41.2 -34.3 41.3 Q-34.05 42.95 -36.15 43.8 -37.05 44.2 -37.8 44.7 L-37.85 44.75 Q-38.35 45.4 -39.1 45.55 L-39.3 45.55 -40.85 45.3 -44.6 44.0 -45.3 43.35 -45.3 43.25 Q-46.2 36.1 -47.55 29.05 -48.35 25.05 -48.65 21.1 L-49.35 20.95 -49.5 21.15 -50.45 21.2 Q-51.5 18.15 -51.75 14.85 L-51.8 14.65 -51.8 14.55 -51.9 14.45 -51.9 14.35 -51.9 14.25 -51.8 14.05 -37.55 10.6 -26.2 7.65 -12.8 4.45 -11.3 3.95 -10.9 4.0 -10.9 3.95 -10.35 4.05 -13.4 -9.4 -13.9 -11.8 -14.65 -15.9 -14.6 -16.35 -21.2 -16.15 Q-21.55 -15.95 -21.9 -16.15 L-22.1 -16.4 -22.05 -16.55 -25.55 -30.3 -28.05 -40.65 -28.45 -43.65 -28.2 -44.1 -28.05 -44.15 -28.05 -44.2 -26.25 -44.9 -24.3 -45.35 M32.6 -16.05 L32.85 -15.95 33.0 -15.9 38.55 -15.2 38.6 -15.25 38.65 -15.25 38.85 -15.3 39.1 -15.25 39.2 -15.15 39.25 -15.1 40.6 -14.95 45.05 -14.15 Q44.7 -16.4 45.25 -18.75 L46.6 -26.0 Q47.75 -33.3 48.35 -40.65 L48.75 -42.95 47.1 -43.35 36.1 -45.4 18.35 -47.4 Q0.7 -48.9 -16.65 -45.6 L-27.1 -43.4 Q-25.8 -36.55 -24.1 -29.7 L-21.1 -17.05 -16.95 -17.65 -1.4 -18.3 11.5 -17.8 26.0 -16.65 32.45 -15.95 32.6 -16.0 32.6 -16.05 M-15.85 -47.15 L-16.85 -46.85 -15.8 -47.05 Q-8.1 -48.45 -0.25 -48.9 L3.1 -49.15 17.85 -48.7 32.75 -47.2 47.15 -44.85 Q48.15 -44.7 49.0 -44.1 L49.05 -44.2 49.4 -44.35 49.55 -44.4 49.35 -44.5 45.1 -45.95 Q38.95 -47.35 32.75 -48.2 16.45 -50.4 -0.1 -49.55 -8.1 -49.1 -15.85 -47.15 M-12.8 -16.45 L-13.55 -16.4 Q-12.45 -9.8 -10.65 -3.3 -9.6 0.5 -9.4 4.2 L-6.2 4.7 Q-6.8 -2.25 -8.4 -8.95 -9.25 -12.75 -9.35 -16.6 L-12.8 -16.45 M-49.45 19.95 L-34.75 21.95 -25.7 23.2 -25.25 23.25 -21.65 23.7 -21.3 23.6 -21.2 23.6 -20.95 23.65 -20.8 23.8 -19.9 23.9 -5.05 25.7 9.7 27.75 10.75 28.05 Q10.15 25.15 10.2 22.1 L10.2 22.05 2.8 21.3 -6.5 19.85 -21.45 17.85 -45.85 15.85 -50.6 15.25 -49.5 19.95 -49.5 20.0 -49.45 19.95 M-46.75 14.35 L-36.9 15.05 -22.05 16.6 -7.2 18.55 7.25 20.55 11.05 21.1 11.15 21.15 Q12.2 20.3 13.75 19.85 L20.0 17.7 33.55 12.0 38.1 10.15 36.7 9.9 34.8 9.55 30.2 9.2 29.95 9.2 12.5 7.8 -2.05 6.4 -3.05 6.3 -3.65 6.25 -7.7 5.7 -10.6 5.15 Q-17.65 7.15 -25.0 8.6 L-32.25 10.45 Q-39.45 12.65 -46.75 14.2 L-47.2 14.3 -46.75 14.35 M-41.05 22.45 L-41.15 22.6 Q-40.3 29.8 -39.7 37.05 -39.35 40.6 -39.15 44.1 L-39.0 44.1 -35.4 41.45 Q-36.85 34.7 -37.25 27.65 L-37.5 22.95 -38.5 22.8 -41.05 22.45 M-47.55 21.35 L-45.05 35.0 Q-44.35 38.95 -44.35 42.8 L-40.1 43.95 Q-41.45 37.3 -41.7 30.3 L-42.1 23.45 Q-42.35 22.85 -42.2 22.25 L-47.55 21.35 M-28.3 24.15 L-36.4 23.1 -35.9 27.2 Q-32.15 25.5 -28.3 24.15 M-35.55 30.1 L-35.15 33.35 Q-29.1 29.4 -22.15 27.1 L-17.0 25.4 -21.65 24.85 Q-23.3 26.0 -25.55 26.6 L-29.25 27.9 Q-32.35 29.35 -35.55 30.1 M-24.35 24.55 L-25.6 24.45 -25.75 24.5 -35.8 27.85 -35.65 29.3 Q-30.0 26.85 -24.3 24.7 L-24.05 24.6 -24.35 24.55 M-9.4 29.9 L-9.35 30.3 -5.1 31.15 -5.5 26.9 -9.85 26.3 -9.95 26.45 -9.4 29.9 M49.6 -43.55 Q49.8 -37.55 48.75 -31.55 L46.5 -16.9 46.15 -15.05 47.05 -16.1 49.35 -30.45 Q50.5 -37.0 51.1 -43.7 L49.6 -43.55 M31.8 -14.65 L14.65 -16.2 Q4.15 -17.0 -6.4 -16.7 -5.35 -9.8 -3.95 -2.95 L-2.95 1.7 Q-2.6 3.45 -2.8 5.15 L3.85 5.85 17.8 7.1 29.7 8.0 Q29.65 4.95 30.05 1.8 L30.8 -5.6 31.75 -14.55 31.8 -14.65 M32.45 -7.9 L31.05 6.55 30.85 8.05 31.9 8.1 34.95 8.3 Q35.5 1.2 36.75 -5.9 L38.2 -13.9 33.0 -14.55 Q32.5 -11.45 32.45 -8.3 L32.45 -7.9 M-3.85 5.0 Q-4.8 -1.55 -6.25 -8.05 -7.25 -12.35 -7.05 -16.7 L-8.45 -16.65 Q-7.4 -10.2 -5.95 -3.75 -5.0 0.5 -5.25 4.8 L-3.85 5.0 M-4.0 30.45 L-3.95 30.85 -3.85 30.85 -1.45 30.1 Q-1.85 28.8 -1.85 27.45 L-4.4 27.05 -4.0 30.45 M11.25 22.1 L11.65 27.6 Q17.35 24.7 23.2 21.9 30.3 18.55 37.55 15.35 L40.0 14.3 Q39.95 12.25 40.35 10.2 33.5 13.5 26.5 16.4 L17.7 20.0 Q14.65 21.3 11.5 21.95 L11.45 22.0 11.35 22.1 11.25 22.1 M5.25 48.4 L11.25 49.45 Q10.85 42.6 11.0 35.6 L11.05 29.05 8.15 29.15 5.5 28.55 5.8 30.95 Q5.8 38.35 5.45 45.75 L5.25 48.35 5.25 48.4 M33.35 24.4 L33.65 18.5 31.4 19.4 31.15 20.7 31.05 20.95 Q31.2 22.55 30.95 24.1 L32.45 23.95 32.7 24.0 32.95 24.05 33.25 24.4 33.35 24.65 33.35 24.4 M33.35 24.65 L33.35 24.7 33.35 24.65 M32.25 25.05 L30.9 25.15 Q24.85 29.15 18.4 32.55 L17.65 32.8 17.65 34.05 Q18.5 33.5 19.4 33.2 26.25 29.75 32.5 25.4 L32.75 25.2 32.25 25.05 M17.65 31.65 Q23.7 28.1 30.0 24.8 L30.1 24.8 30.0 24.7 Q29.75 22.25 30.3 19.9 23.9 22.85 17.65 26.1 L17.65 31.65 M16.7 26.6 L11.9 28.65 Q12.65 35.7 12.35 42.9 12.2 46.25 12.3 49.55 L12.35 49.55 12.45 49.7 12.5 49.75 12.9 49.3 Q14.85 48.3 16.6 47.1 L16.3 32.85 Q16.2 29.65 16.7 26.6 M33.25 24.9 L33.2 24.95 33.25 24.95 33.25 24.9 M32.45 30.1 L32.65 30.2 32.65 30.15 33.15 25.9 Q30.9 27.85 28.2 29.4 L17.7 35.3 17.7 35.35 17.75 37.9 Q22.95 34.55 28.7 31.85 L32.45 30.1 M32.5 31.35 L32.55 31.05 32.4 31.15 30.5 32.3 Q30.75 33.95 30.35 35.6 L30.3 35.85 32.9 36.35 Q32.85 34.45 32.95 32.5 L33.0 31.7 32.75 31.65 32.5 31.45 32.5 31.35 M36.0 8.4 L37.05 8.5 Q37.9 1.7 39.05 -5.2 L39.55 -9.05 Q39.7 -11.35 40.45 -13.55 L39.15 -13.75 39.1 -13.55 39.05 -13.3 Q38.45 -6.05 37.1 1.1 L36.0 8.3 35.95 8.4 36.0 8.4 M38.4 17.95 L38.6 16.3 34.8 18.05 34.5 18.15 Q34.8 25.45 34.55 32.7 34.5 34.7 34.1 36.55 35.2 35.6 36.7 35.0 37.5 34.65 38.4 34.35 37.75 27.5 38.25 20.55 L38.4 17.95" fill="#000000" fill-rule="evenodd" stroke="none"/>
      <path d="M32.45 -15.95 L26.0 -16.65 11.5 -17.8 -1.4 -18.3 -16.95 -17.65 -21.1 -17.05 -24.1 -29.7 Q-25.8 -36.55 -27.1 -43.4 L-16.65 -45.6 Q0.7 -48.9 18.35 -47.4 L36.1 -45.4 47.1 -43.35 48.75 -42.95 48.35 -40.65 Q47.75 -33.3 46.6 -26.0 L45.25 -18.75 Q44.7 -16.4 45.05 -14.15 L40.6 -14.95 39.25 -15.1 39.2 -15.15 39.1 -15.25 38.85 -15.3 38.65 -15.25 38.6 -15.25 38.55 -15.2 33.0 -15.9 32.85 -15.95 32.6 -16.05 32.45 -15.95 M-15.85 -47.15 Q-8.1 -49.1 -0.1 -49.55 16.45 -50.4 32.75 -48.2 38.95 -47.35 45.1 -45.95 L49.35 -44.5 49.4 -44.35 49.05 -44.2 49.0 -44.1 Q48.15 -44.7 47.15 -44.85 L32.75 -47.2 17.85 -48.7 3.1 -49.15 -0.25 -48.9 Q-8.1 -48.45 -15.8 -47.05 L-15.85 -47.15 M-46.75 14.2 Q-39.45 12.65 -32.25 10.45 L-25.0 8.6 Q-17.65 7.15 -10.6 5.15 L-7.7 5.7 -3.65 6.25 -3.05 6.3 -2.05 6.4 12.5 7.8 29.95 9.2 30.2 9.2 34.8 9.55 36.7 9.9 38.1 10.15 33.55 12.0 20.0 17.7 13.75 19.85 Q12.2 20.3 11.15 21.15 L11.05 21.1 7.25 20.55 -7.2 18.55 -22.05 16.6 -36.9 15.05 -46.75 14.35 -46.75 14.2 M-24.3 24.7 Q-30.0 26.85 -35.65 29.3 L-35.8 27.85 -25.75 24.5 -25.6 24.45 -24.35 24.55 -24.3 24.7 M33.25 24.4 L33.35 24.4 33.35 24.65 33.25 24.4 M32.5 25.4 Q26.25 29.75 19.4 33.2 18.5 33.5 17.65 34.05 L17.65 32.8 18.4 32.55 Q24.85 29.15 30.9 25.15 L32.25 25.05 32.5 25.4 M32.4 31.15 L32.55 31.05 32.5 31.35 32.4 31.15" fill="#ff0000" fill-rule="evenodd" stroke="none"/>
      <path d="M-49.5 19.95 L-50.6 15.25 -45.85 15.85 -21.45 17.85 -6.5 19.85 2.8 21.3 10.2 22.05 10.2 22.1 Q10.15 25.15 10.75 28.05 L9.7 27.75 -5.05 25.7 -19.9 23.9 -20.8 23.8 -20.95 23.65 -21.2 23.6 -21.3 23.6 -21.65 23.7 -25.25 23.25 -25.7 23.2 -34.75 21.95 -49.45 19.95 -49.5 19.95 M-12.8 -16.45 L-9.35 -16.6 Q-9.25 -12.75 -8.4 -8.95 -6.8 -2.25 -6.2 4.7 L-9.4 4.2 Q-9.6 0.5 -10.65 -3.3 -12.45 -9.8 -13.55 -16.4 L-12.8 -16.45 M-47.55 21.35 L-42.2 22.25 Q-42.35 22.85 -42.1 23.45 L-41.7 30.3 Q-41.45 37.3 -40.1 43.95 L-44.35 42.8 Q-44.35 38.95 -45.05 35.0 L-47.55 21.35 M32.45 -7.9 L32.45 -8.3 Q32.5 -11.45 33.0 -14.55 L38.2 -13.9 36.75 -5.9 Q35.5 1.2 34.95 8.3 L31.9 8.1 30.85 8.05 31.05 6.55 32.45 -7.9 M5.25 48.35 L5.45 45.75 Q5.8 38.35 5.8 30.95 L5.5 28.55 8.15 29.15 11.05 29.05 11.0 35.6 Q10.85 42.6 11.25 49.45 L5.25 48.4 5.25 48.35 M11.25 22.1 L11.35 22.1 11.45 22.0 11.5 21.95 Q14.65 21.3 17.7 20.0 L26.5 16.4 Q33.5 13.5 40.35 10.2 39.95 12.25 40.0 14.3 L37.55 15.35 Q30.3 18.55 23.2 21.9 17.35 24.7 11.65 27.6 L11.25 22.1" fill="#d20000" fill-rule="evenodd" stroke="none"/>
      <path d="M-41.05 22.45 L-38.5 22.8 -37.5 22.95 -37.25 27.65 Q-36.85 34.7 -35.4 41.45 L-39.0 44.1 -39.15 44.1 Q-39.35 40.6 -39.7 37.05 -40.3 29.8 -41.15 22.6 L-41.05 22.45 M-35.55 30.1 Q-32.35 29.35 -29.25 27.9 L-25.55 26.6 Q-23.3 26.0 -21.65 24.85 L-17.0 25.4 -22.15 27.1 Q-29.1 29.4 -35.15 33.35 L-35.55 30.1 M-9.4 29.9 L-9.95 26.45 -9.85 26.3 -5.5 26.9 -5.1 31.15 -9.35 30.3 -9.4 29.9 M49.6 -43.55 L51.1 -43.7 Q50.5 -37.0 49.35 -30.45 L47.05 -16.1 46.15 -15.05 46.5 -16.9 48.75 -31.55 Q49.8 -37.55 49.6 -43.55 M-3.85 5.0 L-5.25 4.8 Q-5.0 0.5 -5.95 -3.75 -7.4 -10.2 -8.45 -16.65 L-7.05 -16.7 Q-7.25 -12.35 -6.25 -8.05 -4.8 -1.55 -3.85 5.0 M-3.85 30.85 L-4.0 30.45 -4.4 27.05 -1.85 27.45 Q-1.85 28.8 -1.45 30.1 L-3.85 30.85 M33.25 24.4 L32.95 24.05 32.7 24.0 32.45 23.95 30.95 24.1 Q31.2 22.55 31.05 20.95 L31.15 20.7 31.4 19.4 33.65 18.5 33.35 24.4 33.25 24.4 M16.7 26.6 Q16.2 29.65 16.3 32.85 L16.6 47.1 Q14.85 48.3 12.9 49.3 L12.5 49.75 12.45 49.7 12.35 49.55 12.3 49.55 Q12.2 46.25 12.35 42.9 12.65 35.7 11.9 28.65 L16.7 26.6 M32.65 30.15 L32.45 30.1 28.7 31.85 Q22.95 34.55 17.75 37.9 L17.7 35.35 17.7 35.3 28.2 29.4 Q30.9 27.85 33.15 25.9 L32.65 30.15 M32.4 31.15 L32.5 31.35 32.5 31.45 32.75 31.65 33.0 31.7 32.95 32.5 Q32.85 34.45 32.9 36.35 L30.3 35.85 30.35 35.6 Q30.75 33.95 30.5 32.3 L32.4 31.15 M36.0 8.3 L37.1 1.1 Q38.45 -6.05 39.05 -13.3 L39.1 -13.55 39.15 -13.75 40.45 -13.55 Q39.7 -11.35 39.55 -9.05 L39.05 -5.2 Q37.9 1.7 37.05 8.5 L36.0 8.4 36.0 8.3 M38.4 17.95 L38.25 20.55 Q37.75 27.5 38.4 34.35 37.5 34.65 36.7 35.0 35.2 35.6 34.1 36.55 34.5 34.7 34.55 32.7 34.8 25.45 34.5 18.15 L34.8 18.05 38.6 16.3 38.4 17.95" fill="#7d0000" fill-rule="evenodd" stroke="none"/>
    </g>
  </defs>
</svg>
