<?xml version="1.0" encoding="UTF-8" standalone="no"?>
<svg xmlns:xlink="http://www.w3.org/1999/xlink" height="88.9px" width="303.4px" xmlns="http://www.w3.org/2000/svg">
  <g transform="matrix(1.0, 0.0, 0.0, 1.0, 151.7, 44.45)">
    <use height="88.9" transform="matrix(1.0, 0.0, 0.0, 1.0, -151.7, -44.45)" width="303.4" xlink:href="#shape0"/>
  </g>
  <defs>
    <g id="shape0" transform="matrix(1.0, 0.0, 0.0, 1.0, 151.7, 44.45)">
      <path d="M141.15 -32.75 L145.1 -34.8 146.8 -36.0 Q149.75 -38.15 150.95 -40.4 L147.75 -28.35 147.25 -26.65 146.8 -25.7 Q144.95 -22.5 139.55 -19.55 L140.2 -25.0 140.85 -30.35 140.85 -30.55 141.25 -30.6 146.8 -33.75 Q149.2 -35.1 148.4 -36.7 L145.4 -34.9 Q142.8 -33.65 141.0 -31.75 L141.15 -32.75 M-138.9 -19.15 Q-145.9 -22.8 -147.45 -26.8 L-147.55 -27.15 -147.85 -28.6 -150.3 -40.65 Q-149.35 -38.6 -146.85 -36.6 -145.95 -35.85 -144.85 -35.15 L-141.75 -33.4 -141.5 -32.4 -141.55 -32.4 -141.7 -32.25 -141.75 -32.3 -148.4 -37.15 -148.75 -36.95 -148.95 -36.7 -148.85 -36.45 Q-146.3 -33.8 -143.15 -31.85 L-142.2 -31.65 Q-141.95 -31.75 -141.8 -31.95 L-141.75 -31.95 -141.3 -31.6 -140.65 -28.6 -138.9 -19.15 M-131.65 25.65 Q-137.2 22.5 -138.5 19.05 L-138.65 18.7 -138.9 17.35 -141.25 6.0 Q-140.35 7.95 -138.0 9.85 L-136.05 11.2 -134.55 12.1 -134.3 13.3 -134.4 13.35 Q-136.6 10.95 -139.2 9.0 -139.7 9.05 -139.55 9.4 -137.85 12.9 -134.2 14.9 L-134.0 14.85 -132.65 21.4 -131.65 25.65 M134.35 13.2 L137.45 11.5 139.05 10.4 Q141.85 8.35 142.95 6.25 L139.95 17.6 139.5 19.2 139.05 20.1 Q137.25 23.2 132.0 26.0 L132.35 24.15 134.05 15.05 134.45 14.75 135.0 14.85 Q137.9 13.75 140.05 11.65 L140.4 11.5 Q141.75 10.7 140.6 10.0 L139.55 10.4 134.2 14.1 134.35 13.2" fill="#201d1c" fill-rule="evenodd" stroke="none"/>
      <path d="M-133.35 -28.25 L-133.3 -28.2 Q-132.15 -22.9 -131.3 -17.45 L-131.05 -15.8 Q-135.6 -17.4 -138.9 -19.15 L-140.65 -28.6 -141.3 -31.6 Q-137.9 -29.1 -133.6 -28.2 L-133.35 -28.25 M131.05 -26.95 L131.1 -27.15 Q135.2 -27.5 139.25 -29.2 140.5 -29.75 140.85 -30.35 L140.2 -25.0 139.55 -19.55 Q135.35 -17.25 129.1 -15.15 129.55 -19.15 130.3 -23.05 L131.05 -26.95 M141.15 -32.75 L141.0 -31.75 Q142.8 -33.65 145.4 -34.9 L148.4 -36.7 Q149.2 -35.1 146.8 -33.75 L141.25 -30.6 140.85 -30.55 Q140.5 -30.6 140.25 -30.9 L140.7 -31.4 140.6 -31.6 Q139.05 -30.5 137.05 -30.05 133.85 -29.4 131.3 -28.1 L131.45 -29.05 Q137.1 -30.85 141.15 -32.75 M-141.75 -33.4 Q-138.4 -31.7 -133.7 -30.05 L-133.45 -29.05 Q-137.1 -31.15 -141.2 -32.6 L-141.2 -32.55 -141.5 -32.4 -141.75 -33.4 M-141.7 -32.25 L-141.65 -32.2 -141.75 -31.95 -141.8 -31.95 Q-141.95 -31.75 -142.2 -31.65 L-143.15 -31.85 Q-146.3 -33.8 -148.85 -36.45 L-148.95 -36.7 -148.75 -36.95 -148.4 -37.15 -141.75 -32.3 -141.7 -32.25 M-123.75 18.75 L-121.25 30.05 Q-127.6 27.9 -131.65 25.65 L-132.65 21.4 -134.0 14.85 -134.2 14.9 Q-137.85 12.9 -139.55 9.4 -139.7 9.05 -139.2 9.0 -136.6 10.95 -134.4 13.35 L-133.55 14.3 -133.55 14.4 -133.7 14.7 -129.15 16.75 Q-126.5 17.5 -124.2 18.85 L-123.75 18.75 M121.85 30.2 L123.55 21.85 124.35 18.4 Q129.9 18.35 134.05 15.05 L132.35 24.15 132.0 26.0 Q127.9 28.15 121.85 30.2 M124.55 17.45 L124.65 16.9 Q130.35 15.1 134.35 13.2 L134.2 14.1 139.55 10.4 140.6 10.0 Q141.75 10.7 140.4 11.5 L140.05 11.65 Q137.9 13.75 135.0 14.85 L134.45 14.75 134.05 14.25 133.8 14.15 Q129.35 16.2 124.55 17.45 M-124.25 16.45 L-124.15 16.95 -123.95 17.85 Q-128.55 14.9 -134.0 13.2 L-134.3 13.3 -134.55 12.1 Q-130.5 14.35 -124.25 16.45" fill="#2e2927" fill-rule="evenodd" stroke="none"/>
      <path d="M12.9 -15.0 L12.35 -14.95 9.6 -14.95 6.55 -14.75 4.2 -14.9 3.8 -14.9 12.9 -15.0 M0.35 -14.9 L-2.3 -14.55 -7.5 -14.35 -9.0 -14.35 -20.95 -15.05 -22.1 -15.1 -24.6 -15.15 Q-36.45 -14.4 -48.2 -15.55 L-71.45 -17.75 -87.75 -19.55 Q-99.05 -21.05 -110.15 -23.65 L-133.0 -29.25 -133.4 -29.1 -133.45 -29.05 -133.7 -30.05 Q-123.3 -26.45 -106.65 -23.3 -62.3 -14.95 0.35 -14.9 M-133.3 -28.2 L-128.85 -26.65 -118.8 -24.15 -110.4 -22.2 Q-99.3 -19.55 -87.95 -18.0 L-72.65 -15.95 Q-46.8 -12.75 -20.7 -12.95 -13.15 -12.75 -5.55 -12.85 L8.8 -12.45 13.35 -12.75 17.0 -12.6 47.2 -13.6 49.3 -13.8 54.45 -14.15 78.1 -17.2 81.9 -17.35 Q94.65 -18.15 106.65 -21.25 118.1 -22.6 129.1 -25.8 130.7 -26.3 131.05 -26.95 L130.3 -23.05 Q129.55 -19.15 129.1 -15.15 119.3 -11.9 104.45 -9.0 61.15 -0.65 -0.05 -0.65 -61.25 -0.65 -104.6 -9.0 -120.9 -12.15 -131.05 -15.8 L-131.3 -17.45 Q-132.15 -22.9 -133.3 -28.2 M130.75 -27.85 L127.45 -26.95 Q120.85 -24.95 114.0 -24.05 110.65 -23.6 107.85 -22.6 L105.45 -22.15 99.55 -21.35 Q88.75 -20.25 78.25 -18.2 L71.65 -17.65 51.0 -15.65 50.6 -15.7 47.4 -15.4 18.4 -14.5 17.25 -14.55 16.75 -14.6 15.1 -14.95 14.25 -15.0 Q68.05 -15.9 107.35 -23.3 121.75 -26.0 131.45 -29.05 L131.3 -28.1 130.75 -27.85 M-123.45 18.55 Q-120.9 19.95 -117.7 20.7 L-110.95 22.15 -103.6 23.5 -92.75 25.5 Q-78.2 28.3 -63.4 29.8 L-22.6 32.05 -20.35 32.4 -16.2 32.45 18.0 31.95 46.4 30.75 68.35 29.4 77.1 28.25 Q88.85 26.25 100.7 24.8 113.05 23.25 123.7 18.5 L123.65 18.4 123.0 18.2 120.85 18.85 Q110.05 21.75 98.95 23.35 87.1 25.0 75.4 27.2 L71.6 27.45 68.4 27.7 52.4 29.1 24.0 30.6 -5.5 30.95 -15.85 30.65 Q-25.25 30.7 -34.65 30.15 L-56.0 28.8 -77.6 26.5 -100.45 22.75 Q-112.1 20.65 -123.4 17.6 L-123.65 17.7 -123.85 17.9 -123.95 17.85 -124.15 16.95 -124.25 16.45 Q-114.75 19.6 -100.05 22.35 -58.2 30.25 0.9 30.25 60.05 30.25 101.85 22.35 115.45 19.8 124.65 16.9 L124.55 17.45 123.65 17.65 123.55 17.95 123.7 18.4 124.35 18.4 123.55 21.85 121.85 30.2 Q112.75 33.15 99.1 35.8 58.3 43.7 0.55 43.7 -57.25 43.7 -98.1 35.8 -112.05 33.1 -121.25 30.05 L-123.75 18.75 -123.7 18.7 -123.45 18.55" fill="#524846" fill-rule="evenodd" stroke="none"/>
      <path d="M3.8 -14.9 L4.2 -14.9 6.55 -14.75 9.6 -14.95 12.35 -14.95 12.9 -15.0 14.25 -15.0 15.1 -14.95 16.75 -14.6 17.25 -14.55 18.4 -14.5 47.4 -15.4 50.6 -15.7 51.0 -15.65 71.65 -17.65 78.25 -18.2 Q88.75 -20.25 99.55 -21.35 L105.45 -22.15 107.85 -22.6 Q110.65 -23.6 114.0 -24.05 120.85 -24.95 127.45 -26.95 L130.75 -27.85 129.4 -27.05 131.1 -27.15 131.05 -26.95 Q130.7 -26.3 129.1 -25.8 118.1 -22.6 106.65 -21.25 94.65 -18.15 81.9 -17.35 L78.1 -17.2 54.45 -14.15 49.3 -13.8 47.2 -13.6 17.0 -12.6 13.35 -12.75 8.8 -12.45 -5.55 -12.85 Q-13.15 -12.75 -20.7 -12.95 -46.8 -12.75 -72.65 -15.95 L-87.95 -18.0 Q-99.3 -19.55 -110.4 -22.2 L-118.8 -24.15 -128.85 -26.65 -133.3 -28.2 -133.35 -28.25 -133.35 -28.3 -133.2 -28.4 -133.0 -28.7 -133.05 -28.8 -133.45 -29.05 -133.4 -29.1 -133.0 -29.25 -110.15 -23.65 Q-99.05 -21.05 -87.75 -19.55 L-71.45 -17.75 -48.2 -15.55 Q-36.45 -14.4 -24.6 -15.15 L-22.1 -15.1 -20.95 -15.05 -9.0 -14.35 -7.5 -14.35 -2.3 -14.55 0.35 -14.9 3.8 -14.9 M-123.85 17.9 L-123.65 17.7 -123.4 17.6 Q-112.1 20.65 -100.45 22.75 L-77.6 26.5 -56.0 28.8 -34.65 30.15 Q-25.25 30.7 -15.85 30.65 L-5.5 30.95 24.0 30.6 52.4 29.1 68.4 27.7 71.6 27.45 75.4 27.2 Q87.1 25.0 98.95 23.35 110.05 21.75 120.85 18.85 L123.0 18.2 123.65 18.4 123.7 18.5 Q113.05 23.25 100.7 24.8 88.85 26.25 77.1 28.25 L68.35 29.4 46.4 30.75 18.0 31.95 -16.2 32.45 -20.35 32.4 -22.6 32.05 -63.4 29.8 Q-78.2 28.3 -92.75 25.5 L-103.6 23.5 -110.95 22.15 -117.7 20.7 Q-120.9 19.95 -123.45 18.55 L-123.35 18.3 -123.4 18.2 -123.85 17.9" fill="#796b68" fill-rule="evenodd" stroke="none"/>
      <path d="M-133.45 -29.05 L-133.05 -28.8 -133.0 -28.7 -133.2 -28.4 -133.35 -28.3 -133.35 -28.25 -133.6 -28.2 Q-137.9 -29.1 -141.3 -31.6 L-141.75 -31.95 -141.65 -32.2 -141.7 -32.25 -141.55 -32.4 -141.5 -32.4 -141.2 -32.55 -141.2 -32.6 Q-137.1 -31.15 -133.45 -29.05 M131.1 -27.15 L129.4 -27.05 130.75 -27.85 131.3 -28.1 Q133.85 -29.4 137.05 -30.05 139.05 -30.5 140.6 -31.6 L140.7 -31.4 140.25 -30.9 Q140.5 -30.6 140.85 -30.55 L140.85 -30.35 Q140.5 -29.75 139.25 -29.2 135.2 -27.5 131.1 -27.15 M-123.85 17.9 L-123.4 18.2 -123.35 18.3 -123.45 18.55 -123.7 18.7 -123.75 18.75 -124.2 18.85 Q-126.5 17.5 -129.15 16.75 L-133.7 14.7 -133.55 14.4 -133.55 14.3 -134.4 13.35 -134.3 13.3 -134.0 13.2 Q-128.55 14.9 -123.95 17.85 L-123.85 17.9 M124.35 18.4 L123.7 18.4 123.55 17.95 123.65 17.65 124.55 17.45 Q129.35 16.2 133.8 14.15 L134.05 14.25 134.45 14.75 134.05 15.05 Q129.9 18.35 124.35 18.4" fill="#443d39" fill-rule="evenodd" stroke="none"/>
      <path d="M12.9 -15.0 L3.8 -14.9 0.35 -14.9 M14.25 -15.0 L12.9 -15.0 M139.55 -19.55 Q144.95 -22.5 146.8 -25.7 L147.25 -26.65 147.75 -28.35 150.95 -40.4 Q149.75 -38.15 146.8 -36.0 L145.1 -34.8 141.15 -32.75 Q137.1 -30.85 131.45 -29.05 121.75 -26.0 107.35 -23.3 68.05 -15.9 14.25 -15.0 M139.55 -19.55 Q135.35 -17.25 129.1 -15.15 119.3 -11.9 104.45 -9.0 61.15 -0.65 -0.05 -0.65 -61.25 -0.65 -104.6 -9.0 -120.9 -12.15 -131.05 -15.8 -135.6 -17.4 -138.9 -19.15 -145.9 -22.8 -147.45 -26.8 L-147.55 -27.15 -147.85 -28.6 -150.3 -40.65 Q-150.95 -42.05 -150.95 -43.4 L-150.95 -43.7 -150.3 -40.65 Q-149.35 -38.6 -146.85 -36.6 -145.95 -35.85 -144.85 -35.15 L-141.75 -33.4 Q-138.4 -31.7 -133.7 -30.05 -123.3 -26.45 -106.65 -23.3 -62.3 -14.95 0.35 -14.9 M-121.25 30.05 Q-112.05 33.1 -98.1 35.8 -57.25 43.7 0.55 43.7 58.3 43.7 99.1 35.8 112.75 33.15 121.85 30.2 M124.65 16.9 Q115.45 19.8 101.85 22.35 60.05 30.25 0.9 30.25 -58.2 30.25 -100.05 22.35 -114.75 19.6 -124.25 16.45 M-134.55 12.1 L-136.05 11.2 -138.0 9.85 Q-140.35 7.95 -141.25 6.0 L-138.9 17.35 -138.65 18.7 -138.5 19.05 Q-137.2 22.5 -131.65 25.65 -127.6 27.9 -121.25 30.05 M-134.55 12.1 Q-130.5 14.35 -124.25 16.45 M-141.8 3.4 Q-141.85 4.7 -141.25 6.0 L-141.8 3.15 -141.8 3.4 M134.35 13.2 L137.45 11.5 139.05 10.4 Q141.85 8.35 142.95 6.25 L139.95 17.6 139.5 19.2 139.05 20.1 Q137.25 23.2 132.0 26.0 127.9 28.15 121.85 30.2 M134.35 13.2 Q130.35 15.1 124.65 16.9" fill="none" stroke="#000000" stroke-linecap="round" stroke-linejoin="round" stroke-width="1.5"/>
    </g>
  </defs>
</svg>
