<?xml version="1.0" encoding="UTF-8" standalone="no"?>
<svg xmlns:xlink="http://www.w3.org/1999/xlink" height="73.0px" width="469.15px" xmlns="http://www.w3.org/2000/svg">
  <g transform="matrix(1.0, 0.0, 0.0, 1.0, 435.5, 25.75)">
    <use height="15.5" transform="matrix(1.0, 0.0, 0.0, 1.0, -435.5, -21.95)" width="459.6" xlink:href="#button0"/>
  </g>
  <defs>
    <g id="button0" transform="matrix(1.0, 0.0, 0.0, 1.0, 226.9, 8.65)">
      <use height="11.6" transform="matrix(1.0, 0.0, 0.0, 1.0, -223.4, -5.4)" width="456.1" xlink:href="#text0"/>
    </g>
    <g id="text0" transform="matrix(1.0, 0.0, 0.0, 1.0, 151.4, -2.7)">
      <g transform="matrix(1.0, 0.0, 0.0, 1.0, -152.05, 0.0)">
        <use fill="#ffffff" height="11.6" transform="matrix(0.2734, 0.0, 0.0, 0.2734, 0.1, 14.05)" width="456.1" xlink:href="#font_ComicBook_Normal_D0"/>
        <use fill="#ffffff" height="11.6" transform="matrix(0.2734, 0.0, 0.0, 0.2734, 11.3, 14.05)" width="456.1" xlink:href="#font_ComicBook_Normal_O0"/>
        <use fill="#ffffff" height="11.6" transform="matrix(0.2734, 0.0, 0.0, 0.2734, 23.2, 14.05)" width="456.1" xlink:href="#font_ComicBook_Normal_W0"/>
        <use fill="#ffffff" height="11.6" transform="matrix(0.2734, 0.0, 0.0, 0.2734, 37.45, 14.05)" width="456.1" xlink:href="#font_ComicBook_Normal_N0"/>
        <use fill="#ffffff" height="11.6" transform="matrix(0.2734, 0.0, 0.0, 0.2734, 46.25, 14.05)" width="456.1" xlink:href="#font_ComicBook_Normal_L0"/>
        <use fill="#ffffff" height="11.6" transform="matrix(0.2734, 0.0, 0.0, 0.2734, 53.9, 14.05)" width="456.1" xlink:href="#font_ComicBook_Normal_O0"/>
        <use fill="#ffffff" height="11.6" transform="matrix(0.2734, 0.0, 0.0, 0.2734, 65.8, 14.05)" width="456.1" xlink:href="#font_ComicBook_Normal_a0"/>
        <use fill="#ffffff" height="11.6" transform="matrix(0.2734, 0.0, 0.0, 0.2734, 77.2, 14.05)" width="456.1" xlink:href="#font_ComicBook_Normal_d0"/>
        <use fill="#ffffff" height="11.6" transform="matrix(0.2734, 0.0, 0.0, 0.2734, 93.85, 14.05)" width="456.1" xlink:href="#font_ComicBook_Normal_c0"/>
        <use fill="#ffffff" height="11.6" transform="matrix(0.2734, 0.0, 0.0, 0.2734, 103.95, 14.05)" width="456.1" xlink:href="#font_ComicBook_Normal_o0"/>
        <use fill="#ffffff" height="11.6" transform="matrix(0.2734, 0.0, 0.0, 0.2734, 115.85, 14.05)" width="456.1" xlink:href="#font_ComicBook_Normal_m0"/>
        <use fill="#ffffff" height="11.6" transform="matrix(0.2734, 0.0, 0.0, 0.2734, 128.4, 14.05)" width="456.1" xlink:href="#font_ComicBook_Normal_p0"/>
        <use fill="#ffffff" height="11.6" transform="matrix(0.2734, 0.0, 0.0, 0.2734, 138.3, 14.05)" width="456.1" xlink:href="#font_ComicBook_Normal_l0"/>
        <use fill="#ffffff" height="11.6" transform="matrix(0.2734, 0.0, 0.0, 0.2734, 146.0, 14.05)" width="456.1" xlink:href="#font_ComicBook_Normal_e0"/>
        <use fill="#ffffff" height="11.6" transform="matrix(0.2734, 0.0, 0.0, 0.2734, 155.75, 14.05)" width="456.1" xlink:href="#font_ComicBook_Normal_t0"/>
        <use fill="#ffffff" height="11.6" transform="matrix(0.2734, 0.0, 0.0, 0.2734, 166.1, 14.05)" width="456.1" xlink:href="#font_ComicBook_Normal_e0"/>
        <use fill="#ffffff" height="11.6" transform="matrix(0.2734, 0.0, 0.0, 0.2734, 175.85, 14.05)" width="456.1" xlink:href="#font_ComicBook_Normal_d0"/>
        <use fill="#ffffff" height="11.6" transform="matrix(0.2734, 0.0, 0.0, 0.2734, 187.05, 14.05)" width="456.1" xlink:href="#font_ComicBook_Normal_.0"/>
        <use fill="#ffffff" height="11.6" transform="matrix(0.2734, 0.0, 0.0, 0.2734, 196.6, 14.05)" width="456.1" xlink:href="#font_ComicBook_Normal_C0"/>
        <use fill="#ffffff" height="11.6" transform="matrix(0.2734, 0.0, 0.0, 0.2734, 206.75, 14.05)" width="456.1" xlink:href="#font_ComicBook_Normal_l0"/>
        <use fill="#ffffff" height="11.6" transform="matrix(0.2734, 0.0, 0.0, 0.2734, 214.45, 14.05)" width="456.1" xlink:href="#font_ComicBook_Normal_i0"/>
        <use fill="#ffffff" height="11.6" transform="matrix(0.2734, 0.0, 0.0, 0.2734, 218.65, 14.05)" width="456.1" xlink:href="#font_ComicBook_Normal_c0"/>
        <use fill="#ffffff" height="11.6" transform="matrix(0.2734, 0.0, 0.0, 0.2734, 228.75, 14.05)" width="456.1" xlink:href="#font_ComicBook_Normal_k0"/>
        <use fill="#ffffff" height="11.6" transform="matrix(0.2734, 0.0, 0.0, 0.2734, 243.15, 14.05)" width="456.1" xlink:href="#font_ComicBook_Normal_h0"/>
        <use fill="#ffffff" height="11.6" transform="matrix(0.2734, 0.0, 0.0, 0.2734, 252.8, 14.05)" width="456.1" xlink:href="#font_ComicBook_Normal_e0"/>
        <use fill="#ffffff" height="11.6" transform="matrix(0.2734, 0.0, 0.0, 0.2734, 262.55, 14.05)" width="456.1" xlink:href="#font_ComicBook_Normal_r0"/>
        <use fill="#ffffff" height="11.6" transform="matrix(0.2734, 0.0, 0.0, 0.2734, 272.3, 14.05)" width="456.1" xlink:href="#font_ComicBook_Normal_e0"/>
        <use fill="#ffffff" height="11.6" transform="matrix(0.2734, 0.0, 0.0, 0.2734, 287.5, 14.05)" width="456.1" xlink:href="#font_ComicBook_Normal_t0"/>
        <use fill="#ffffff" height="11.6" transform="matrix(0.2734, 0.0, 0.0, 0.2734, 297.85, 14.05)" width="456.1" xlink:href="#font_ComicBook_Normal_o0"/>
        <use fill="#ffffff" height="11.6" transform="matrix(0.2734, 0.0, 0.0, 0.2734, 315.2, 14.05)" width="456.1" xlink:href="#font_ComicBook_Normal_p0"/>
        <use fill="#ffffff" height="11.6" transform="matrix(0.2734, 0.0, 0.0, 0.2734, 325.1, 14.05)" width="456.1" xlink:href="#font_ComicBook_Normal_l0"/>
        <use fill="#ffffff" height="11.6" transform="matrix(0.2734, 0.0, 0.0, 0.2734, 332.8, 14.05)" width="456.1" xlink:href="#font_ComicBook_Normal_a0"/>
        <use fill="#ffffff" height="11.6" transform="matrix(0.2734, 0.0, 0.0, 0.2734, 344.2, 14.05)" width="456.1" xlink:href="#font_ComicBook_Normal_y0"/>
        <use fill="#ffffff" height="11.6" transform="matrix(0.2734, 0.0, 0.0, 0.2734, 359.75, 14.05)" width="456.1" xlink:href="#font_ComicBook_Normal_t0"/>
        <use fill="#ffffff" height="11.6" transform="matrix(0.2734, 0.0, 0.0, 0.2734, 370.1, 14.05)" width="456.1" xlink:href="#font_ComicBook_Normal_o0"/>
        <use fill="#ffffff" height="11.6" transform="matrix(0.2734, 0.0, 0.0, 0.2734, 382.0, 14.05)" width="456.1" xlink:href="#font_ComicBook_Normal_o0"/>
        <use fill="#ffffff" height="11.6" transform="matrix(0.2734, 0.0, 0.0, 0.2734, 393.9, 14.05)" width="456.1" xlink:href="#font_ComicBook_Normal_n0"/>
        <use fill="#ffffff" height="11.6" transform="matrix(0.2734, 0.0, 0.0, 0.2734, 402.7, 14.05)" width="456.1" xlink:href="#font_ComicBook_Normal_t0"/>
        <use fill="#ffffff" height="11.6" transform="matrix(0.2734, 0.0, 0.0, 0.2734, 413.05, 14.05)" width="456.1" xlink:href="#font_ComicBook_Normal_o0"/>
        <use fill="#ffffff" height="11.6" transform="matrix(0.2734, 0.0, 0.0, 0.2734, 424.95, 14.05)" width="456.1" xlink:href="#font_ComicBook_Normal_w0"/>
        <use fill="#ffffff" height="11.6" transform="matrix(0.2734, 0.0, 0.0, 0.2734, 439.2, 14.05)" width="456.1" xlink:href="#font_ComicBook_Normal_n0"/>
      </g>
    </g>
    <g id="font_ComicBook_Normal_D0">
      <path d="M33.85 -40.15 Q39.9 -38.6 40.1 -35.35 40.1 -30.2 36.15 -23.3 L33.1 -18.5 29.4 -13.85 25.2 -9.6 Q22.5 -7.2 20.05 -5.45 L15.0 -2.35 Q12.4 -1.05 9.75 -0.2 7.6 0.5 5.4 0.5 3.35 0.5 2.2 -0.2 2.05 -0.25 2.05 -0.95 2.05 -1.75 2.8 -7.75 3.5 -13.35 3.6 -16.7 3.6 -20.4 3.25 -23.6 2.8 -27.95 2.8 -29.8 2.8 -31.25 2.95 -32.7 3.15 -34.95 4.15 -36.35 5.35 -38.05 7.05 -38.2 L7.1 -38.2 14.15 -38.95 21.8 -39.85 27.15 -40.2 29.35 -40.35 30.5 -40.45 33.85 -40.15 M26.3 -32.55 L22.4 -32.1 Q18.7 -32.0 11.8 -30.15 L11.0 -21.4 10.25 -15.3 Q9.7 -11.55 9.7 -10.55 L9.8 -9.65 Q10.25 -8.85 11.3 -8.85 12.3 -8.85 14.15 -9.7 18.8 -11.6 23.7 -16.45 27.65 -20.3 30.7 -24.95 33.35 -29.05 33.45 -30.25 33.45 -32.95 30.15 -32.95 L26.3 -32.55" fill-rule="evenodd" stroke="none"/>
    </g>
    <g id="font_ComicBook_Normal_O0">
      <path d="M23.35 -32.05 Q20.0 -32.05 17.1 -30.65 13.85 -29.15 12.2 -26.25 10.85 -23.95 10.2 -21.5 9.55 -19.05 9.55 -16.45 9.55 -12.6 11.35 -10.8 13.85 -8.1 18.35 -8.1 21.15 -8.1 23.5 -9.1 25.8 -10.1 27.7 -12.15 32.45 -17.3 32.45 -23.25 32.45 -27.5 29.4 -30.2 27.2 -32.05 23.35 -32.05 M35.55 -35.75 L37.5 -32.8 38.95 -29.6 39.8 -26.1 40.1 -22.4 Q40.1 -14.65 35.35 -8.05 33.85 -6.05 32.0 -4.55 30.15 -3.05 27.85 -2.0 23.5 0.0 18.7 0.0 14.05 0.0 10.2 -1.8 8.05 -2.8 6.55 -4.15 5.0 -5.5 3.95 -7.2 1.4 -11.3 1.4 -16.0 1.4 -21.75 5.05 -27.85 7.85 -32.5 11.35 -35.5 16.55 -39.95 23.95 -39.95 27.7 -39.95 30.95 -38.8 34.05 -37.65 35.55 -35.75" fill-rule="evenodd" stroke="none"/>
    </g>
    <g id="font_ComicBook_Normal_W0">
      <path d="M30.25 -29.1 Q30.5 -26.7 30.9 -24.2 31.2 -21.95 31.4 -21.45 31.8 -19.95 32.75 -19.0 33.55 -18.35 34.35 -18.35 35.3 -18.35 35.8 -19.55 L36.6 -21.5 37.55 -23.8 38.9 -27.25 Q39.9 -29.5 40.9 -32.75 L42.55 -36.75 Q43.6 -38.7 44.5 -39.55 45.5 -40.6 47.4 -40.6 48.9 -40.35 49.95 -39.25 51.0 -38.15 51.0 -36.95 L50.8 -35.9 49.6 -33.1 48.4 -30.05 47.0 -26.15 Q45.15 -20.75 43.25 -16.75 L39.9 -10.15 Q38.25 -7.1 35.9 -3.8 33.45 -0.3 32.0 -0.3 31.0 -0.3 30.1 -2.45 27.0 -10.5 25.65 -15.8 24.85 -19.0 23.45 -19.0 22.55 -19.0 21.55 -16.8 L20.15 -13.2 18.95 -10.2 15.85 -3.5 Q14.1 0.05 12.0 0.05 10.2 0.05 9.05 -3.5 L7.1 -9.65 5.45 -15.1 4.25 -19.35 Q2.5 -25.95 0.6 -36.7 0.6 -37.55 0.85 -38.15 L1.75 -39.25 Q3.1 -40.5 4.9 -40.5 7.55 -40.5 8.35 -38.2 9.35 -34.75 10.3 -29.1 11.25 -23.5 12.1 -19.75 12.65 -17.3 13.3 -17.3 14.0 -17.3 15.0 -19.55 L17.9 -25.2 Q19.4 -28.15 20.15 -30.85 L21.2 -36.35 Q21.65 -38.05 22.9 -39.25 24.1 -40.5 25.65 -40.5 27.4 -40.5 28.55 -39.5 29.75 -38.55 29.8 -36.7 L29.7 -35.6 29.6 -34.5 Q29.6 -33.25 29.85 -31.9 L30.25 -29.1" fill-rule="evenodd" stroke="none"/>
    </g>
    <g id="font_ComicBook_Normal_N0">
      <path d="M27.5 -41.4 Q28.85 -41.35 29.7 -40.3 30.65 -39.25 30.65 -38.0 30.65 -35.5 29.75 -31.4 28.8 -27.3 28.75 -24.95 L28.7 -22.2 Q28.7 -19.25 29.1 -15.05 L29.95 -7.15 Q29.95 -5.8 29.5 -4.85 29.0 -3.95 27.95 -3.25 26.0 -2.05 23.4 -2.05 20.95 -2.05 17.95 -4.8 14.8 -7.6 9.4 -14.3 L8.55 -13.95 Q8.2 -13.9 8.2 -13.45 L8.15 -10.55 8.3 -7.05 8.5 -4.25 Q8.5 -2.85 8.0 -2.0 7.5 -1.15 6.3 -0.65 5.25 -0.2 4.2 -0.2 2.15 -0.2 1.6 -2.75 1.3 -4.2 1.3 -5.65 1.3 -7.35 2.0 -11.05 2.65 -14.45 2.65 -16.85 L2.7 -17.65 2.7 -18.5 2.75 -19.45 2.8 -20.55 2.9 -23.9 Q2.9 -26.5 2.5 -28.65 2.1 -30.85 1.35 -32.7 L1.15 -33.85 Q1.15 -35.1 1.9 -36.1 2.7 -37.15 4.05 -37.2 L4.05 -37.25 Q7.15 -37.25 9.6 -33.7 10.45 -32.45 10.65 -30.6 10.95 -28.0 11.3 -27.25 L11.75 -25.85 12.15 -24.55 13.3 -22.05 Q14.75 -19.75 17.4 -16.7 20.2 -13.6 21.1 -13.45 22.25 -13.45 22.7 -16.05 L22.85 -19.75 22.8 -21.1 23.0 -24.25 23.2 -27.65 23.35 -32.85 23.45 -34.45 23.45 -35.8 Q23.45 -37.25 23.85 -38.5 24.9 -41.4 27.5 -41.4" fill-rule="evenodd" stroke="none"/>
    </g>
    <g id="font_ComicBook_Normal_L0">
      <path d="M6.7 -41.15 Q9.6 -40.75 9.9 -36.7 L10.05 -32.85 9.85 -27.45 9.45 -21.6 8.95 -16.2 8.7 -10.75 Q8.7 -9.5 9.75 -9.5 L11.9 -10.05 16.95 -12.2 Q19.7 -13.45 22.1 -13.45 L25.6 -13.3 Q27.35 -12.7 27.5 -10.05 27.5 -8.0 26.05 -6.9 25.1 -6.25 22.7 -5.5 L17.45 -4.25 12.25 -3.0 Q11.2 -2.7 8.4 -1.2 6.4 -0.05 4.45 0.15 L3.15 -0.1 2.25 -0.9 Q1.6 -1.9 1.6 -3.3 1.6 -6.7 2.15 -11.75 2.85 -18.15 2.85 -20.75 L2.65 -28.5 2.45 -36.5 Q2.55 -37.95 3.7 -39.6 4.85 -41.15 6.7 -41.15" fill-rule="evenodd" stroke="none"/>
    </g>
    <g id="font_ComicBook_Normal_a0">
      <path d="M21.2 -28.8 Q20.35 -28.8 19.35 -27.95 17.45 -25.4 15.25 -21.5 L14.5 -19.8 13.8 -17.95 12.85 -15.5 15.1 -15.45 16.75 -15.5 18.15 -15.55 20.2 -15.7 Q23.2 -16.0 28.2 -17.6 L25.8 -22.55 23.75 -26.05 23.2 -27.0 22.75 -27.75 Q22.05 -28.75 21.2 -28.8 M29.55 -31.35 Q32.5 -26.0 34.2 -21.55 L38.05 -11.7 Q38.45 -10.8 39.8 -8.65 40.65 -7.15 40.65 -5.7 40.65 -4.5 39.7 -2.85 38.55 -0.85 37.2 -0.85 34.55 -0.85 32.2 -8.8 30.4 -10.6 27.45 -10.6 L23.9 -10.25 21.25 -9.75 20.15 -9.55 Q16.2 -9.05 12.85 -7.8 9.2 -6.55 8.35 -5.1 8.0 -4.4 8.0 -3.95 L8.0 -2.9 8.05 -1.5 Q7.2 0.75 5.15 0.75 2.9 0.75 1.6 -0.65 0.75 -1.5 0.75 -2.8 0.75 -4.45 2.2 -7.3 L3.55 -9.7 4.5 -11.65 7.8 -18.9 9.65 -23.0 11.4 -26.65 Q16.6 -37.3 19.35 -39.55 L19.15 -39.45 Q19.15 -39.8 20.4 -39.8 22.4 -39.8 24.7 -37.75 27.3 -35.5 29.55 -31.35" fill-rule="evenodd" stroke="none"/>
    </g>
    <g id="font_ComicBook_Normal_d0">
      <path d="M33.85 -40.15 Q39.9 -38.6 40.1 -35.35 40.1 -30.2 36.15 -23.3 L33.1 -18.5 29.4 -13.85 25.2 -9.6 Q22.5 -7.2 20.05 -5.45 L15.0 -2.35 Q12.4 -1.05 9.75 -0.2 7.6 0.5 5.4 0.5 3.35 0.5 2.2 -0.2 2.05 -0.25 2.05 -0.95 2.05 -1.75 2.8 -7.75 3.5 -13.35 3.6 -16.7 3.6 -20.4 3.25 -23.6 2.8 -27.95 2.8 -29.8 2.8 -31.25 2.95 -32.7 3.15 -34.95 4.15 -36.35 5.35 -38.05 7.05 -38.2 L7.1 -38.2 14.15 -38.95 21.8 -39.85 27.15 -40.2 29.35 -40.35 30.5 -40.45 33.85 -40.15 M26.3 -32.55 L22.4 -32.1 Q18.7 -32.0 11.8 -30.15 L11.0 -21.4 10.25 -15.3 Q9.7 -11.55 9.7 -10.55 L9.8 -9.65 Q10.25 -8.85 11.3 -8.85 12.3 -8.85 14.15 -9.7 18.8 -11.6 23.7 -16.45 27.65 -20.3 30.7 -24.95 33.35 -29.05 33.45 -30.25 33.45 -32.95 30.15 -32.95 L26.3 -32.55" fill-rule="evenodd" stroke="none"/>
    </g>
    <g id="font_ComicBook_Normal_c0">
      <path d="M33.85 -30.3 Q33.85 -22.6 30.3 -22.3 27.65 -22.3 26.95 -27.55 26.5 -29.5 25.9 -30.15 25.1 -31.15 23.15 -31.15 20.7 -31.15 16.85 -27.0 13.45 -23.2 10.6 -18.3 7.75 -13.25 7.75 -11.15 L7.8 -10.55 Q8.65 -8.2 12.85 -8.2 16.95 -8.2 21.0 -9.65 L27.45 -12.4 Q30.95 -13.95 33.0 -14.05 34.6 -14.05 35.4 -13.55 36.2 -13.05 36.3 -11.95 36.3 -9.5 34.65 -7.5 33.0 -5.55 29.55 -3.75 23.15 -0.35 17.25 -0.35 10.95 -0.35 6.2 -2.75 0.65 -5.5 0.65 -10.6 0.8 -17.6 5.95 -25.2 8.1 -28.35 10.9 -31.25 13.7 -34.15 16.85 -36.45 19.75 -38.55 22.1 -39.55 24.45 -40.55 26.6 -40.55 29.45 -40.3 31.45 -37.95 33.4 -35.6 33.75 -32.45 L33.85 -30.3" fill-rule="evenodd" stroke="none"/>
    </g>
    <g id="font_ComicBook_Normal_o0">
      <path d="M23.35 -32.05 Q20.0 -32.05 17.1 -30.65 13.85 -29.15 12.2 -26.25 10.85 -23.95 10.2 -21.5 9.55 -19.05 9.55 -16.45 9.55 -12.6 11.35 -10.8 13.85 -8.1 18.35 -8.1 21.15 -8.1 23.5 -9.1 25.8 -10.1 27.7 -12.15 32.45 -17.3 32.45 -23.25 32.45 -27.5 29.4 -30.2 27.2 -32.05 23.35 -32.05 M35.55 -35.75 L37.5 -32.8 38.95 -29.6 39.8 -26.1 40.1 -22.4 Q40.1 -14.65 35.35 -8.05 33.85 -6.05 32.0 -4.55 30.15 -3.05 27.85 -2.0 23.5 0.0 18.7 0.0 14.05 0.0 10.2 -1.8 8.05 -2.8 6.55 -4.15 5.0 -5.5 3.95 -7.2 1.4 -11.3 1.4 -16.0 1.4 -21.75 5.05 -27.85 7.85 -32.5 11.35 -35.5 16.55 -39.95 23.95 -39.95 27.7 -39.95 30.95 -38.8 34.05 -37.65 35.55 -35.75" fill-rule="evenodd" stroke="none"/>
    </g>
    <g id="font_ComicBook_Normal_m0">
      <path d="M39.45 -28.35 L40.65 -20.65 41.25 -17.3 42.05 -12.65 Q42.3 -11.05 43.6 -8.15 44.7 -5.5 44.7 -3.15 44.7 -2.45 43.85 -2.1 L43.15 -1.85 42.3 -1.55 39.8 -1.05 Q38.65 -1.05 38.35 -1.95 L35.65 -11.65 35.1 -13.85 34.55 -16.3 33.7 -19.6 32.7 -23.1 Q32.25 -24.35 30.75 -24.35 29.8 -22.95 28.4 -20.1 L27.2 -17.15 26.5 -14.2 25.4 -7.6 Q25.2 -6.0 23.95 -5.25 22.95 -4.6 21.1 -4.6 19.7 -4.65 18.7 -5.5 17.7 -6.25 17.55 -7.6 L17.3 -11.15 Q17.2 -12.25 16.4 -14.2 15.95 -15.05 15.45 -17.25 15.05 -19.15 14.4 -20.25 L13.8 -22.1 Q13.4 -23.35 12.8 -23.35 11.95 -23.35 11.6 -21.85 L10.8 -19.3 Q9.6 -16.9 9.3 -14.65 L8.7 -10.6 8.6 -9.2 8.85 -6.35 8.75 -3.2 Q8.45 -1.8 6.85 -0.95 5.75 -0.35 4.25 -0.1 2.5 -0.1 1.3 -1.55 0.35 -2.8 0.35 -5.1 1.1 -9.7 2.65 -14.8 L5.55 -24.3 6.65 -28.8 7.8 -33.9 Q8.25 -35.8 10.1 -37.7 12.05 -39.75 13.7 -39.75 15.85 -39.75 17.0 -36.4 17.7 -34.45 18.1 -31.65 18.45 -28.65 19.0 -27.0 19.45 -25.6 20.55 -23.95 21.6 -22.35 22.2 -22.35 L25.95 -28.85 27.85 -32.1 30.45 -36.2 Q31.1 -37.3 31.95 -37.8 32.85 -38.3 34.1 -38.3 36.05 -38.15 37.1 -35.85 L38.5 -32.15 39.45 -28.35" fill-rule="evenodd" stroke="none"/>
    </g>
    <g id="font_ComicBook_Normal_p0">
      <path d="M23.5 -32.1 L16.8 -32.4 Q14.1 -32.4 9.4 -30.65 L9.4 -19.9 Q14.3 -20.8 18.1 -22.0 26.8 -24.85 26.95 -28.75 26.95 -31.45 23.5 -32.1 M31.05 -38.2 L33.45 -36.3 Q34.45 -35.2 34.95 -33.6 35.45 -32.05 35.45 -30.25 35.3 -26.25 31.55 -22.3 28.95 -19.55 23.6 -16.1 21.25 -14.5 17.45 -13.9 L11.65 -13.7 Q8.9 -13.7 8.9 -13.3 L8.85 -11.85 8.95 -9.0 9.05 -5.7 Q9.05 -3.1 8.3 -1.75 7.4 -0.2 5.55 -0.15 3.75 -0.15 2.55 -1.3 1.4 -2.6 1.25 -4.65 L1.2 -6.1 1.6 -10.05 2.05 -14.2 2.0 -20.55 2.2 -26.9 3.0 -33.4 Q3.5 -36.85 4.2 -37.25 7.15 -39.05 17.75 -40.05 L21.15 -40.2 Q27.35 -40.2 31.05 -38.2" fill-rule="evenodd" stroke="none"/>
    </g>
    <g id="font_ComicBook_Normal_l0">
      <path d="M6.7 -41.15 Q9.6 -40.75 9.9 -36.7 L10.05 -32.85 9.85 -27.45 9.45 -21.6 8.95 -16.2 8.7 -10.75 Q8.7 -9.5 9.75 -9.5 L11.9 -10.05 16.95 -12.2 Q19.7 -13.45 22.1 -13.45 L25.6 -13.3 Q27.35 -12.7 27.5 -10.05 27.5 -8.0 26.05 -6.9 25.1 -6.25 22.7 -5.5 L17.45 -4.25 12.25 -3.0 Q11.2 -2.7 8.4 -1.2 6.4 -0.05 4.45 0.15 L3.15 -0.1 2.25 -0.9 Q1.6 -1.9 1.6 -3.3 1.6 -6.7 2.15 -11.75 2.85 -18.15 2.85 -20.75 L2.65 -28.5 2.45 -36.5 Q2.55 -37.95 3.7 -39.6 4.85 -41.15 6.7 -41.15" fill-rule="evenodd" stroke="none"/>
    </g>
    <g id="font_ComicBook_Normal_e0">
      <path d="M24.75 -31.4 L19.2 -31.25 Q15.05 -31.25 12.15 -29.85 8.55 -28.1 8.55 -24.3 8.55 -23.7 8.7 -23.25 9.0 -22.2 10.25 -22.2 L11.35 -22.35 12.35 -22.35 Q14.95 -22.5 20.3 -24.15 25.3 -25.65 28.6 -25.65 30.2 -25.65 31.6 -24.6 32.9 -23.6 33.0 -22.0 33.0 -20.5 32.3 -19.5 31.5 -18.1 30.0 -18.1 L23.4 -17.05 16.95 -15.25 12.5 -14.75 8.7 -14.2 Q8.1 -14.0 8.0 -13.0 L8.05 -11.2 8.05 -10.0 8.1 -8.95 Q8.2 -8.55 8.55 -8.35 9.95 -7.6 11.85 -7.6 14.25 -7.6 19.5 -9.15 25.15 -10.85 27.85 -11.2 29.8 -11.2 30.95 -10.5 32.3 -9.55 32.45 -8.05 32.45 -6.15 31.45 -5.1 30.3 -3.95 28.2 -3.65 L18.25 -1.8 Q12.2 -0.3 8.15 0.05 5.05 0.05 3.5 -0.95 1.95 -2.0 1.65 -4.05 L1.45 -6.6 Q1.45 -8.45 2.05 -11.8 2.85 -15.9 2.9 -17.35 L2.95 -19.75 2.85 -24.2 2.85 -28.2 Q3.0 -30.45 3.4 -31.6 4.5 -34.75 8.0 -36.15 L12.7 -37.25 17.8 -37.75 24.4 -39.1 27.8 -39.6 31.3 -39.95 Q32.35 -39.95 33.2 -39.05 33.9 -38.15 34.15 -36.8 34.15 -34.65 33.25 -33.5 32.0 -32.1 30.1 -31.95 L24.75 -31.4" fill-rule="evenodd" stroke="none"/>
    </g>
    <g id="font_ComicBook_Normal_t0">
      <path d="M23.65 -30.2 Q24.5 -27.5 24.5 -24.75 L24.15 -20.6 23.55 -15.9 23.1 -9.8 22.1 -3.2 Q21.85 -2.0 20.7 -1.2 19.55 -0.45 18.1 -0.45 16.5 -0.45 15.55 -0.9 14.35 -1.5 14.35 -2.65 L14.55 -5.15 14.75 -7.65 15.15 -13.25 Q15.55 -17.55 15.55 -23.05 L15.15 -29.45 15.15 -30.2 15.05 -31.05 Q14.85 -31.7 13.5 -31.7 L8.2 -31.15 Q6.55 -31.15 5.5 -31.95 4.25 -32.8 4.25 -34.35 4.35 -35.85 5.55 -36.95 6.8 -38.05 8.25 -38.05 L12.9 -38.3 19.7 -38.9 27.0 -39.5 33.75 -39.8 Q35.55 -39.8 36.75 -39.05 38.2 -38.2 38.2 -36.65 38.2 -35.0 36.95 -33.75 35.7 -32.5 34.05 -32.35 L25.25 -31.9 24.15 -31.25 Q23.65 -30.8 23.65 -30.2" fill-rule="evenodd" stroke="none"/>
    </g>
    <g id="font_ComicBook_Normal_.0">
      <path d="M9.0 -9.55 Q10.1 -9.55 10.85 -9.05 12.75 -7.9 12.75 -5.4 12.75 -3.85 12.1 -2.5 L11.2 -1.05 9.85 -0.05 Q8.3 1.0 6.75 1.0 5.3 1.0 4.4 -0.05 3.35 -1.2 3.35 -2.8 3.35 -3.9 3.85 -5.45 4.55 -7.15 6.0 -8.35 7.45 -9.55 9.0 -9.55" fill-rule="evenodd" stroke="none"/>
    </g>
    <g id="font_ComicBook_Normal_C0">
      <path d="M33.85 -30.3 Q33.85 -22.6 30.3 -22.3 27.65 -22.3 26.95 -27.55 26.5 -29.5 25.9 -30.15 25.1 -31.15 23.15 -31.15 20.7 -31.15 16.85 -27.0 13.45 -23.2 10.6 -18.3 7.75 -13.25 7.75 -11.15 L7.8 -10.55 Q8.65 -8.2 12.85 -8.2 16.95 -8.2 21.0 -9.65 L27.45 -12.4 Q30.95 -13.95 33.0 -14.05 34.6 -14.05 35.4 -13.55 36.2 -13.05 36.3 -11.95 36.3 -9.5 34.65 -7.5 33.0 -5.55 29.55 -3.75 23.15 -0.35 17.25 -0.35 10.95 -0.35 6.2 -2.75 0.65 -5.5 0.65 -10.6 0.8 -17.6 5.95 -25.2 8.1 -28.35 10.9 -31.25 13.7 -34.15 16.85 -36.45 19.75 -38.55 22.1 -39.55 24.45 -40.55 26.6 -40.55 29.45 -40.3 31.45 -37.95 33.4 -35.6 33.75 -32.45 L33.85 -30.3" fill-rule="evenodd" stroke="none"/>
    </g>
    <g id="font_ComicBook_Normal_i0">
      <path d="M8.9 -39.95 L8.9 -40.05 Q10.75 -40.05 12.0 -38.35 12.85 -37.1 12.85 -34.8 L12.2 -27.6 11.7 -19.45 10.45 -3.6 Q10.15 -0.4 7.4 -0.05 5.35 -0.05 4.3 -0.9 3.1 -2.0 3.1 -3.6 L3.55 -19.6 Q3.75 -26.55 4.55 -35.4 4.8 -37.35 6.0 -38.65 7.15 -39.95 8.9 -39.95" fill-rule="evenodd" stroke="none"/>
    </g>
    <g id="font_ComicBook_Normal_k0">
      <path d="M25.8 -39.15 L26.2 -39.5 26.55 -39.75 26.8 -39.9 Q27.5 -40.4 28.65 -40.4 30.15 -40.3 31.15 -39.1 32.2 -37.9 32.2 -36.4 32.2 -35.3 30.95 -34.05 L28.8 -31.6 Q24.2 -24.95 17.35 -20.45 16.25 -19.7 16.25 -18.85 16.25 -18.05 17.55 -17.3 L20.45 -15.9 Q22.05 -15.05 23.05 -14.15 L27.1 -11.1 Q29.15 -9.35 29.15 -7.35 29.15 -5.05 27.4 -3.45 26.05 -2.3 24.5 -2.3 23.2 -2.3 21.85 -3.65 L19.2 -6.45 Q13.05 -12.9 8.5 -12.9 7.8 -12.8 7.6 -12.05 L7.4 -10.7 8.15 -8.1 Q8.5 -7.0 8.5 -5.3 7.85 0.15 5.05 0.15 1.6 0.15 1.4 -5.15 L1.25 -14.6 1.45 -23.05 Q1.6 -25.65 2.1 -30.0 L2.8 -36.7 Q2.85 -38.1 4.1 -39.05 5.15 -39.7 7.05 -39.7 9.6 -39.5 10.35 -37.05 L10.45 -36.45 Q10.45 -35.7 9.8 -34.7 L8.85 -32.8 Q8.1 -29.2 8.1 -25.85 8.1 -23.45 8.65 -23.45 11.85 -23.8 14.0 -25.6 L17.5 -29.55 Q19.35 -31.0 22.4 -34.3 L23.6 -36.55 Q24.25 -37.85 25.1 -38.6 L25.8 -39.15" fill-rule="evenodd" stroke="none"/>
    </g>
    <g id="font_ComicBook_Normal_h0">
      <path d="M27.4 -39.15 Q28.15 -40.0 29.15 -40.15 30.95 -40.15 31.9 -39.05 32.75 -38.15 32.9 -36.75 32.9 -32.9 32.5 -28.9 L31.95 -21.1 Q31.8 -17.1 31.8 -12.75 L31.95 -3.95 Q31.95 -2.85 31.15 -2.2 30.2 -1.5 28.95 -1.4 25.75 -1.4 25.4 -3.95 L25.3 -5.3 25.5 -7.45 25.65 -9.7 25.75 -11.2 25.8 -12.75 25.55 -14.15 Q25.25 -15.15 24.4 -15.4 L22.55 -15.85 20.85 -16.05 18.7 -15.75 16.35 -15.35 13.45 -15.35 Q11.85 -15.35 10.65 -14.75 L9.85 -14.25 9.05 -13.85 Q8.3 -13.4 8.2 -12.65 L8.0 -9.75 8.2 -6.4 8.35 -2.85 Q8.35 -1.65 7.55 -0.85 6.8 0.0 5.55 0.0 3.0 0.0 2.2 -1.05 1.85 -1.55 1.6 -3.75 L1.3 -8.5 1.15 -12.05 1.25 -16.15 Q1.4 -18.55 2.2 -22.5 L3.25 -28.95 3.05 -31.1 2.85 -33.05 Q2.85 -34.1 3.2 -34.95 4.9 -39.25 7.8 -39.25 L7.75 -39.2 Q9.3 -39.15 10.55 -38.3 11.55 -37.6 11.55 -36.2 L10.15 -28.2 9.25 -24.75 Q8.6 -22.9 8.6 -22.15 8.6 -21.25 9.85 -21.25 L16.5 -22.5 18.35 -22.85 20.2 -23.1 21.95 -23.4 Q24.75 -23.95 25.4 -25.7 25.75 -26.7 25.75 -28.35 L25.65 -31.2 25.7 -33.1 25.6 -34.6 Q25.6 -36.2 26.35 -37.5 L27.4 -39.15" fill-rule="evenodd" stroke="none"/>
    </g>
    <g id="font_ComicBook_Normal_r0">
      <path d="M22.25 -33.2 L16.55 -33.4 13.65 -33.45 12.95 -33.45 Q11.2 -33.4 9.75 -32.4 9.2 -32.0 9.0 -31.2 L8.8 -30.3 8.55 -29.55 8.55 -29.5 7.35 -26.1 7.25 -25.1 Q7.25 -24.25 7.75 -24.0 L9.4 -23.7 11.05 -23.55 Q12.1 -23.55 15.55 -24.55 18.9 -25.6 21.75 -27.6 24.65 -29.6 24.95 -31.35 24.95 -32.85 22.25 -33.2 M23.7 -39.85 Q27.4 -39.8 29.7 -38.8 32.5 -37.6 33.65 -34.65 L33.85 -33.4 Q33.85 -30.95 30.95 -27.3 L28.35 -24.4 25.1 -21.55 Q22.05 -19.1 21.0 -19.1 22.3 -17.15 24.75 -14.15 25.55 -13.25 27.8 -11.8 L30.75 -9.55 Q31.85 -8.35 31.85 -6.5 31.85 -4.35 30.2 -3.05 29.1 -2.15 27.75 -2.15 26.15 -2.15 24.45 -3.4 22.95 -4.5 21.15 -6.95 19.45 -9.5 17.95 -10.6 L13.55 -13.05 Q11.55 -13.85 10.05 -13.85 8.7 -13.85 8.7 -11.7 L8.8 -7.15 Q8.75 -5.95 8.35 -4.7 L7.55 -2.2 Q7.05 -0.95 6.0 -0.35 4.05 0.7 2.85 0.7 0.6 0.7 0.6 -5.35 L0.9 -12.05 1.2 -19.45 1.05 -24.2 1.05 -28.35 Q1.1 -31.05 1.4 -33.25 1.85 -37.0 5.8 -38.55 8.3 -39.55 11.25 -39.85 L16.9 -39.9 20.3 -39.9 23.7 -39.85" fill-rule="evenodd" stroke="none"/>
    </g>
    <g id="font_ComicBook_Normal_y0">
      <path d="M35.3 -34.8 L22.25 -17.15 Q21.1 -15.65 17.6 -9.75 15.3 -5.9 12.3 -2.3 L10.7 -0.6 Q9.95 0.0 8.75 0.0 7.6 -0.15 6.75 -0.9 5.95 -1.65 5.95 -2.55 5.95 -5.1 7.65 -7.35 L11.1 -11.2 Q13.4 -13.45 14.1 -15.2 L14.45 -16.6 Q14.45 -17.6 13.7 -18.4 11.35 -21.3 9.55 -23.75 L6.05 -28.6 Q2.2 -34.0 0.9 -36.85 L0.75 -37.55 Q0.75 -39.65 6.0 -40.15 8.1 -40.15 9.25 -38.35 L11.6 -34.4 13.2 -31.75 14.7 -29.1 15.95 -25.9 Q16.6 -24.5 18.1 -24.4 19.15 -24.4 20.4 -25.8 L22.85 -28.55 24.6 -30.95 26.2 -33.4 28.95 -37.1 Q30.2 -38.75 32.15 -38.75 33.65 -38.6 34.6 -37.65 35.6 -36.8 35.6 -35.8 L35.3 -34.8" fill-rule="evenodd" stroke="none"/>
    </g>
    <g id="font_ComicBook_Normal_n0">
      <path d="M27.5 -41.4 Q28.85 -41.35 29.7 -40.3 30.65 -39.25 30.65 -38.0 30.65 -35.5 29.75 -31.4 28.8 -27.3 28.75 -24.95 L28.7 -22.2 Q28.7 -19.25 29.1 -15.05 L29.95 -7.15 Q29.95 -5.8 29.5 -4.85 29.0 -3.95 27.95 -3.25 26.0 -2.05 23.4 -2.05 20.95 -2.05 17.95 -4.8 14.8 -7.6 9.4 -14.3 L8.55 -13.95 Q8.2 -13.9 8.2 -13.45 L8.15 -10.55 8.3 -7.05 8.5 -4.25 Q8.5 -2.85 8.0 -2.0 7.5 -1.15 6.3 -0.65 5.25 -0.2 4.2 -0.2 2.15 -0.2 1.6 -2.75 1.3 -4.2 1.3 -5.65 1.3 -7.35 2.0 -11.05 2.65 -14.45 2.65 -16.85 L2.7 -17.65 2.7 -18.5 2.75 -19.45 2.8 -20.55 2.9 -23.9 Q2.9 -26.5 2.5 -28.65 2.1 -30.85 1.35 -32.7 L1.15 -33.85 Q1.15 -35.1 1.9 -36.1 2.7 -37.15 4.05 -37.2 L4.05 -37.25 Q7.15 -37.25 9.6 -33.7 10.45 -32.45 10.65 -30.6 10.95 -28.0 11.3 -27.25 L11.75 -25.85 12.15 -24.55 13.3 -22.05 Q14.75 -19.75 17.4 -16.7 20.2 -13.6 21.1 -13.45 22.25 -13.45 22.7 -16.05 L22.85 -19.75 22.8 -21.1 23.0 -24.25 23.2 -27.65 23.35 -32.85 23.45 -34.45 23.45 -35.8 Q23.45 -37.25 23.85 -38.5 24.9 -41.4 27.5 -41.4" fill-rule="evenodd" stroke="none"/>
    </g>
    <g id="font_ComicBook_Normal_w0">
      <path d="M30.25 -29.1 Q30.5 -26.7 30.9 -24.2 31.2 -21.95 31.4 -21.45 31.8 -19.95 32.75 -19.0 33.55 -18.35 34.35 -18.35 35.3 -18.35 35.8 -19.55 L36.6 -21.5 37.55 -23.8 38.9 -27.25 Q39.9 -29.5 40.9 -32.75 L42.55 -36.75 Q43.6 -38.7 44.5 -39.55 45.5 -40.6 47.4 -40.6 48.9 -40.35 49.95 -39.25 51.0 -38.15 51.0 -36.95 L50.8 -35.9 49.6 -33.1 48.4 -30.05 47.0 -26.15 Q45.15 -20.75 43.25 -16.75 L39.9 -10.15 Q38.25 -7.1 35.9 -3.8 33.45 -0.3 32.0 -0.3 31.0 -0.3 30.1 -2.45 27.0 -10.5 25.65 -15.8 24.85 -19.0 23.45 -19.0 22.55 -19.0 21.55 -16.8 L20.15 -13.2 18.95 -10.2 15.85 -3.5 Q14.1 0.05 12.0 0.05 10.2 0.05 9.05 -3.5 L7.1 -9.65 5.45 -15.1 4.25 -19.35 Q2.5 -25.95 0.6 -36.7 0.6 -37.55 0.85 -38.15 L1.75 -39.25 Q3.1 -40.5 4.9 -40.5 7.55 -40.5 8.35 -38.2 9.35 -34.75 10.3 -29.1 11.25 -23.5 12.1 -19.75 12.65 -17.3 13.3 -17.3 14.0 -17.3 15.0 -19.55 L17.9 -25.2 Q19.4 -28.15 20.15 -30.85 L21.2 -36.35 Q21.65 -38.05 22.9 -39.25 24.1 -40.5 25.65 -40.5 27.4 -40.5 28.55 -39.5 29.75 -38.55 29.8 -36.7 L29.7 -35.6 29.6 -34.5 Q29.6 -33.25 29.85 -31.9 L30.25 -29.1" fill-rule="evenodd" stroke="none"/>
    </g>
  </defs>
</svg>
