<?xml version="1.0" encoding="UTF-8" standalone="no"?>
<svg xmlns:xlink="http://www.w3.org/1999/xlink" height="81.1px" width="81.1px" xmlns="http://www.w3.org/2000/svg">
  <g transform="matrix(1.0, 0.0, 0.0, 1.0, 40.55, 40.55)">
    <use height="81.1" transform="matrix(1.0, 0.0, 0.0, 1.0, -40.55, -40.55)" width="81.1" xlink:href="#shape0"/>
  </g>
  <defs>
    <g id="shape0" transform="matrix(1.0, 0.0, 0.0, 1.0, 40.55, 40.55)">
      <path d="M26.65 -23.0 L26.7 -23.05 24.95 -24.95 Q17.9 -32.0 8.95 -34.2 4.6 -35.3 -0.15 -35.3 -14.85 -35.35 -25.25 -24.95 -33.9 -16.3 -35.3 -4.6 L-35.3 -4.55 -35.3 -4.5 -35.6 0.15 Q-35.6 5.05 -34.45 9.5 -33.8 9.5 -33.9 10.2 L-34.0 10.4 -34.15 10.5 -34.05 10.9 Q-32.05 17.3 -27.55 22.7 L-27.35 22.5 Q-26.7 22.75 -26.9 23.4 L-25.25 25.2 Q-22.45 27.95 -19.4 30.0 L-19.35 30.0 -19.35 29.95 -19.3 30.05 Q-13.85 33.65 -7.35 34.95 L-7.35 34.85 -7.35 34.75 -7.25 34.95 -0.15 35.6 Q10.15 35.6 18.35 30.5 L18.3 30.4 18.4 30.25 18.55 30.4 Q21.95 28.2 24.95 25.2 35.35 14.85 35.35 0.15 35.35 -13.25 26.75 -23.0 L26.65 -23.0 M25.65 -25.65 L27.3 -23.9 Q28.3 -25.15 29.75 -26.1 L27.95 -28.0 Q19.85 -36.1 9.4 -38.5 9.6 -36.95 8.9 -35.25 18.3 -33.0 25.65 -25.65 M31.55 -26.05 L31.45 -25.85 31.35 -25.75 Q37.1 -18.9 39.25 -10.55 L39.4 -10.45 39.3 -10.35 Q40.55 -5.45 40.55 0.0 40.55 3.95 39.9 7.65 L40.3 7.95 40.35 8.1 40.3 8.25 40.15 8.4 39.75 8.65 39.7 8.65 Q37.35 20.0 28.65 28.65 25.5 31.8 22.05 34.15 L22.05 34.25 Q21.95 34.55 21.65 34.5 L21.5 34.5 Q12.0 40.55 0.0 40.55 L-7.0 40.0 Q-7.35 40.45 -7.9 40.35 L-8.1 39.8 Q-19.8 37.55 -28.7 28.65 L-31.05 26.15 -31.1 26.15 -31.3 25.85 Q-38.9 16.8 -40.25 5.2 L-40.55 0.0 Q-40.55 -16.8 -28.7 -28.7 -16.8 -40.55 0.0 -40.55 L2.55 -40.45 Q17.7 -39.65 28.65 -28.7 L30.6 -26.65 30.65 -26.7 30.65 -26.75 Q31.7 -26.9 31.55 -26.05 M27.8 -23.35 Q33.05 -17.25 35.1 -9.75 36.1 -10.65 38.0 -10.7 L38.2 -10.7 Q36.05 -18.6 30.65 -25.1 29.25 -23.95 27.8 -23.35 M3.95 -39.35 L0.0 -39.55 Q-7.3 -39.55 -13.65 -37.25 -12.75 -35.9 -12.55 -34.3 -6.75 -36.3 -0.15 -36.3 L7.9 -35.5 8.15 -35.45 Q7.8 -37.1 8.65 -38.65 L3.95 -39.35 M35.3 -8.9 Q36.35 -4.6 36.35 0.15 36.35 3.35 35.9 6.4 L35.9 6.35 Q37.6 6.45 39.0 7.15 39.55 3.7 39.55 0.0 39.55 -5.1 38.45 -9.7 37.1 -8.95 35.3 -8.9 M-14.7 -36.85 Q-22.0 -34.0 -28.0 -28.0 L-30.2 -25.6 -30.05 -25.5 -29.75 -25.35 -29.4 -25.0 -29.3 -24.8 -28.8 -24.6 -27.9 -23.5 -25.95 -25.65 Q-20.3 -31.3 -13.4 -33.95 L-13.85 -34.5 Q-13.95 -35.55 -14.55 -36.35 L-14.65 -36.55 -14.7 -36.85 M-29.9 -23.85 L-30.9 -24.75 Q-37.75 -16.4 -39.15 -5.8 -37.5 -5.95 -36.25 -5.3 -34.9 -15.05 -28.6 -22.7 L-28.7 -22.8 -29.15 -23.1 -29.3 -23.3 -29.35 -23.5 -29.35 -23.6 -29.35 -23.65 -29.9 -23.85 M-39.55 0.0 Q-39.55 3.35 -39.05 6.55 L-38.1 11.0 Q-37.1 10.15 -35.6 9.75 L-35.4 9.7 Q-36.6 5.15 -36.6 0.15 L-36.35 -4.15 Q-37.95 -3.85 -39.25 -4.9 L-39.55 0.0 M-20.25 30.6 Q-23.25 28.6 -25.95 25.9 L-27.6 24.15 Q-28.75 25.15 -30.05 25.75 L-28.0 27.95 Q-25.1 30.85 -21.9 33.05 L-21.9 32.95 Q-20.9 31.95 -20.35 30.7 L-20.25 30.6 M-37.9 11.7 Q-35.75 19.0 -30.6 25.1 L-28.3 23.3 Q-33.05 17.7 -35.05 10.95 L-37.9 11.7 M-7.65 35.9 Q-13.95 34.65 -19.3 31.25 -19.55 32.55 -20.95 33.65 -15.05 37.4 -8.1 38.8 -8.05 37.2 -7.65 35.9 M-6.7 39.05 L0.0 39.55 5.7 39.2 5.6 39.05 5.55 38.9 5.45 37.6 5.3 37.2 5.3 36.85 5.35 36.45 5.25 36.25 -0.15 36.6 -6.9 36.05 Q-6.55 37.4 -6.7 39.05 M25.65 25.9 Q22.65 28.9 19.35 31.05 L21.45 33.35 Q24.85 31.05 27.95 27.95 30.95 24.95 33.2 21.65 31.2 20.75 30.9 19.5 28.7 22.9 25.65 25.9 M31.15 19.05 Q32.7 19.65 33.8 20.75 37.35 15.1 38.7 8.55 37.0 8.3 35.7 7.35 34.5 13.65 31.15 19.05 M6.75 38.15 L6.7 38.35 7.0 39.0 Q14.3 37.75 20.55 33.9 19.35 32.75 18.75 31.45 13.05 34.95 6.4 36.1 6.9 36.95 6.75 38.15" fill="#000000" fill-rule="evenodd" stroke="none"/>
      <path d="M25.65 -25.65 Q18.3 -33.0 8.9 -35.25 9.6 -36.95 9.4 -38.5 19.85 -36.1 27.95 -28.0 L29.75 -26.1 Q28.3 -25.15 27.3 -23.9 L25.65 -25.65 M27.8 -23.35 Q29.25 -23.95 30.65 -25.1 36.05 -18.6 38.2 -10.7 L38.0 -10.7 Q36.1 -10.65 35.1 -9.75 33.05 -17.25 27.8 -23.35 M3.95 -39.35 L8.65 -38.65 Q7.8 -37.1 8.15 -35.45 L7.9 -35.5 -0.15 -36.3 Q-6.75 -36.3 -12.55 -34.3 -12.75 -35.9 -13.65 -37.25 -7.3 -39.55 0.0 -39.55 L3.95 -39.35 M35.3 -8.9 Q37.1 -8.95 38.45 -9.7 39.55 -5.1 39.55 0.0 39.55 3.7 39.0 7.15 37.6 6.45 35.9 6.35 L35.9 6.4 Q36.35 3.35 36.35 0.15 36.35 -4.6 35.3 -8.9 M-14.7 -36.85 L-14.65 -36.55 -14.55 -36.35 Q-13.95 -35.55 -13.85 -34.5 L-13.4 -33.95 Q-20.3 -31.3 -25.95 -25.65 L-27.9 -23.5 -28.8 -24.6 -29.3 -24.8 -29.4 -25.0 -29.75 -25.35 -30.05 -25.5 -30.2 -25.6 -28.0 -28.0 Q-22.0 -34.0 -14.7 -36.85 M-29.9 -23.85 L-29.35 -23.65 -29.35 -23.6 -29.35 -23.5 -29.3 -23.3 -29.15 -23.1 -28.7 -22.8 -28.6 -22.7 Q-34.9 -15.05 -36.25 -5.3 -37.5 -5.95 -39.15 -5.8 -37.75 -16.4 -30.9 -24.75 L-29.9 -23.85 M-39.55 0.0 L-39.25 -4.9 Q-37.95 -3.85 -36.35 -4.15 L-36.6 0.15 Q-36.6 5.15 -35.4 9.7 L-35.6 9.75 Q-37.1 10.15 -38.1 11.0 L-39.05 6.55 Q-39.55 3.35 -39.55 0.0 M-20.25 30.6 L-20.35 30.7 Q-20.9 31.95 -21.9 32.95 L-21.9 33.05 Q-25.1 30.85 -28.0 27.95 L-30.05 25.75 Q-28.75 25.15 -27.6 24.15 L-25.95 25.9 Q-23.25 28.6 -20.25 30.6 M25.65 25.9 Q28.7 22.9 30.9 19.5 31.2 20.75 33.2 21.65 30.95 24.95 27.95 27.95 24.85 31.05 21.45 33.35 L19.35 31.05 Q22.65 28.9 25.65 25.9 M-6.7 39.05 Q-6.55 37.4 -6.9 36.05 L-0.15 36.6 5.25 36.25 5.35 36.45 5.3 36.85 5.3 37.2 5.45 37.6 5.55 38.9 5.6 39.05 5.7 39.2 0.0 39.55 -6.7 39.05 M-7.65 35.9 Q-8.05 37.2 -8.1 38.8 -15.05 37.4 -20.95 33.65 -19.55 32.55 -19.3 31.25 -13.95 34.65 -7.65 35.9 M-37.9 11.7 L-35.05 10.95 Q-33.05 17.7 -28.3 23.3 L-30.6 25.1 Q-35.75 19.0 -37.9 11.7 M31.15 19.05 Q34.5 13.65 35.7 7.35 37.0 8.3 38.7 8.55 37.35 15.1 33.8 20.75 32.7 19.65 31.15 19.05 M6.75 38.15 Q6.9 36.95 6.4 36.1 13.05 34.95 18.75 31.45 19.35 32.75 20.55 33.9 14.3 37.75 7.0 39.0 L6.7 38.35 6.75 38.15" fill="#663300" fill-rule="evenodd" stroke="none"/>
      <path d="M26.65 -23.0 L26.75 -23.0 Q35.35 -13.25 35.35 0.15 35.35 14.85 24.95 25.2 21.95 28.2 18.55 30.4 L18.4 30.25 18.3 30.4 18.35 30.5 Q10.15 35.6 -0.15 35.6 L-7.25 34.95 -7.35 34.75 -7.35 34.85 -7.35 34.95 Q-13.85 33.65 -19.3 30.05 L-19.35 29.95 -19.35 30.0 -19.4 30.0 Q-22.45 27.95 -25.25 25.2 L-26.9 23.4 Q-26.7 22.75 -27.35 22.5 L-27.55 22.7 Q-32.05 17.3 -34.05 10.9 L-34.15 10.5 -34.0 10.4 -33.9 10.2 Q-33.8 9.5 -34.45 9.5 -35.6 5.05 -35.6 0.15 L-35.3 -4.5 -35.3 -4.55 -35.3 -4.6 Q-33.9 -16.3 -25.25 -24.95 -14.85 -35.35 -0.15 -35.3 4.6 -35.3 8.95 -34.2 17.9 -32.0 24.95 -24.95 L26.7 -23.05 26.65 -23.0 M22.2 -22.55 L19.95 -24.6 18.55 -25.7 Q10.5 -31.75 -0.05 -31.75 -13.1 -31.75 -22.35 -22.55 -31.55 -13.3 -31.55 -0.25 -31.55 11.4 -24.25 19.95 L-23.05 21.3 -22.35 22.0 -19.6 24.5 -18.05 25.65 Q-10.2 31.25 -0.05 31.25 5.45 31.25 10.3 29.6 L11.7 29.1 Q17.45 26.75 22.2 22.0 27.55 16.65 29.85 10.0 L30.2 8.85 Q31.45 4.55 31.45 -0.25 31.45 -11.2 24.95 -19.45 L23.9 -20.75 22.2 -22.55" fill="#002f9d" fill-rule="evenodd" stroke="none"/>
      <path d="M24.1 -18.8 L23.95 -19.0 Q21.45 -21.7 18.1 -23.0 L17.9 -23.0 Q21.5 -20.65 24.55 -16.7 24.75 -16.0 25.1 -15.35 25.5 -14.65 25.4 -13.85 L25.75 -13.5 25.9 -13.3 Q25.85 -12.8 26.05 -12.4 L26.15 -11.6 Q26.9 -10.55 26.85 -9.15 26.75 -7.3 27.3 -6.25 27.6 -7.65 27.4 -9.1 27.1 -11.45 26.3 -13.75 L26.1 -13.95 25.9 -14.1 Q25.9 -15.1 25.4 -16.0 24.6 -17.4 24.1 -18.8 M22.2 -22.55 L23.9 -20.75 24.95 -19.45 Q31.45 -11.2 31.45 -0.25 31.45 4.55 30.2 8.85 L29.85 10.0 Q27.55 16.65 22.2 22.0 17.45 26.75 11.7 29.1 L10.3 29.6 Q5.45 31.25 -0.05 31.25 -10.2 31.25 -18.05 25.65 L-19.6 24.5 -22.35 22.0 -23.05 21.3 -24.25 19.95 Q-31.55 11.4 -31.55 -0.25 -31.55 -13.3 -22.35 -22.55 -13.1 -31.75 -0.05 -31.75 10.5 -31.75 18.55 -25.7 L19.95 -24.6 22.2 -22.55 M13.7 -0.05 L13.5 0.0 Q12.9 1.5 12.95 2.6 L13.05 2.4 13.7 -0.05 M18.95 -9.1 L18.8 -9.05 Q18.8 -8.2 19.35 -7.6 L19.4 -7.25 Q21.9 0.2 19.15 7.35 L19.3 7.2 19.65 6.25 20.15 5.7 20.2 5.35 Q22.3 -1.2 19.95 -7.8 L19.8 -8.0 Q19.2 -8.45 18.95 -9.1 M12.45 -9.45 L12.15 -9.6 11.95 -9.75 11.85 -9.95 Q9.8 -13.3 5.85 -13.85 L5.75 -13.85 Q6.0 -13.15 7.8 -12.85 L8.15 -12.5 8.7 -11.95 9.35 -11.8 10.05 -11.1 10.85 -10.35 10.95 -10.15 11.0 -10.0 11.05 -9.8 11.2 -9.45 13.05 -6.8 13.85 -4.75 14.15 -2.15 14.4 -4.0 14.55 -5.3 14.2 -5.9 13.7 -7.15 12.55 -8.85 12.55 -9.05 12.5 -9.25 12.45 -9.45 M-0.25 -20.9 L-0.15 -20.75 Q8.45 -21.45 14.45 -15.95 L14.4 -16.05 Q8.9 -21.8 0.65 -21.3 L0.65 -21.25 Q-0.1 -21.3 -0.25 -20.9 M6.65 -25.7 L6.7 -25.75 5.5 -26.25 5.9 -26.0 6.65 -25.7 M26.8 2.85 Q26.05 3.95 26.3 5.4 24.65 10.6 21.9 15.1 L22.15 14.9 Q27.2 9.7 27.05 2.75 L26.8 2.85 M-15.4 -21.9 L-14.2 -23.1 Q-5.2 -28.35 5.45 -26.3 1.75 -27.75 -2.35 -27.6 -6.0 -27.4 -9.55 -26.25 -14.4 -24.65 -17.25 -20.55 L-17.15 -20.5 -15.4 -21.9 M-23.55 -5.05 L-23.75 -5.0 Q-26.4 6.8 -17.3 14.45 -20.4 10.35 -22.85 5.85 L-22.85 5.65 -22.8 5.25 Q-23.3 4.35 -23.3 3.4 -24.35 0.2 -23.9 -3.35 L-23.85 -3.55 -23.55 -5.05 M-8.15 13.9 L-5.7 14.85 Q0.3 16.7 5.95 13.2 L5.7 13.3 Q0.35 15.1 -4.3 14.35 -9.3 13.5 -13.55 9.7 -13.9 9.8 -13.55 10.25 -11.35 12.85 -8.15 13.9 M-11.9 6.5 Q-14.2 4.8 -15.55 2.3 -14.75 5.4 -11.9 6.5 M-16.75 -5.65 L-16.6 -5.9 Q-15.95 -7.4 -15.6 -9.05 -15.05 -9.25 -14.75 -9.55 L-14.7 -9.75 -14.8 -10.3 -15.0 -10.25 Q-15.15 -9.5 -16.05 -9.05 L-16.05 -8.85 Q-16.3 -7.65 -16.85 -6.6 L-16.9 -6.05 -17.25 -2.65 -17.2 -2.5 -16.5 -1.0 -16.5 -0.6 -16.15 1.65 -15.65 2.15 -16.0 1.45 -16.0 1.1 Q-16.35 -0.05 -16.3 -1.35 L-16.65 -1.75 -17.0 -2.85 -16.85 -3.25 -16.75 -5.65 M-8.1 -15.95 L-8.6 -15.65 Q-10.8 -15.15 -11.8 -13.25 L-12.1 -13.1 -12.7 -12.45 Q-12.45 -12.45 -12.35 -12.55 L-11.6 -13.05 -11.4 -13.4 Q-9.75 -15.4 -7.3 -15.45 L-7.4 -15.55 -8.1 -15.95 M-28.5 4.25 L-28.55 3.9 -29.05 1.45 -29.05 1.25 Q-29.2 -7.15 -25.05 -14.3 -32.25 -5.7 -28.5 4.25 M-12.05 20.2 Q-12.4 20.3 -11.8 20.7 -5.3 25.35 3.3 23.6 L3.2 23.5 Q-5.2 24.1 -12.05 20.2 M1.55 29.2 L1.55 29.25 Q6.4 29.65 10.45 27.45 L10.4 27.45 1.55 29.2" fill="url(#gradient0)" fill-rule="evenodd" stroke="none"/>
      <path d="M24.1 -18.8 Q24.6 -17.4 25.4 -16.0 25.9 -15.1 25.9 -14.1 L26.1 -13.95 26.3 -13.75 Q27.1 -11.45 27.4 -9.1 27.6 -7.65 27.3 -6.25 26.75 -7.3 26.85 -9.15 26.9 -10.55 26.15 -11.6 L26.05 -12.4 Q25.85 -12.8 25.9 -13.3 L25.75 -13.5 25.4 -13.85 Q25.5 -14.65 25.1 -15.35 24.75 -16.0 24.55 -16.7 21.5 -20.65 17.9 -23.0 L18.1 -23.0 Q21.45 -21.7 23.95 -19.0 L24.1 -18.8 M6.65 -25.7 L5.9 -26.0 5.5 -26.25 6.7 -25.75 6.65 -25.7 M-0.25 -20.9 Q-0.1 -21.3 0.65 -21.25 L0.65 -21.3 Q8.9 -21.8 14.4 -16.05 L14.45 -15.95 Q8.45 -21.45 -0.15 -20.75 L-0.25 -20.9 M12.45 -9.45 L12.5 -9.25 12.55 -9.05 12.55 -8.85 13.7 -7.15 14.2 -5.9 14.55 -5.3 14.4 -4.0 14.15 -2.15 13.85 -4.75 13.05 -6.8 11.2 -9.45 11.05 -9.8 11.0 -10.0 10.95 -10.15 10.85 -10.35 10.05 -11.1 9.35 -11.8 8.7 -11.95 8.15 -12.5 7.8 -12.85 Q6.0 -13.15 5.75 -13.85 L5.85 -13.85 Q9.8 -13.3 11.85 -9.95 L11.95 -9.75 12.15 -9.6 12.45 -9.45 M18.95 -9.1 Q19.2 -8.45 19.8 -8.0 L19.95 -7.8 Q22.3 -1.2 20.2 5.35 L20.15 5.7 19.65 6.25 19.3 7.2 19.15 7.35 Q21.9 0.2 19.4 -7.25 L19.35 -7.6 Q18.8 -8.2 18.8 -9.05 L18.95 -9.1 M13.7 -0.05 L13.05 2.4 12.95 2.6 Q12.9 1.5 13.5 0.0 L13.7 -0.05 M26.8 2.85 L27.05 2.75 Q27.2 9.7 22.15 14.9 L21.9 15.1 Q24.65 10.6 26.3 5.4 26.05 3.95 26.8 2.85 M-15.4 -21.9 L-17.15 -20.5 -17.25 -20.55 Q-14.4 -24.65 -9.55 -26.25 -6.0 -27.4 -2.35 -27.6 1.75 -27.75 5.45 -26.3 -5.2 -28.35 -14.2 -23.1 L-15.4 -21.9 M-23.55 -5.05 L-23.85 -3.55 -23.9 -3.35 Q-24.35 0.2 -23.3 3.4 -23.3 4.35 -22.8 5.25 L-22.85 5.65 -22.85 5.85 Q-20.4 10.35 -17.3 14.45 -26.4 6.8 -23.75 -5.0 L-23.55 -5.05 M-28.5 4.25 Q-32.25 -5.7 -25.05 -14.3 -29.2 -7.15 -29.05 1.25 L-29.05 1.45 -28.55 3.9 -28.5 4.25 M-8.1 -15.95 L-7.4 -15.55 -7.3 -15.45 Q-9.75 -15.4 -11.4 -13.4 L-11.6 -13.05 -12.35 -12.55 Q-12.45 -12.45 -12.7 -12.45 L-12.1 -13.1 -11.8 -13.25 Q-10.8 -15.15 -8.6 -15.65 L-8.1 -15.95 M-16.75 -5.65 L-16.85 -3.25 -17.0 -2.85 -16.65 -1.75 -16.3 -1.35 Q-16.35 -0.05 -16.0 1.1 L-16.0 1.45 -15.65 2.15 -16.15 1.65 -16.5 -0.6 -16.5 -1.0 -17.2 -2.5 -17.25 -2.65 -16.9 -6.05 -16.85 -6.6 Q-16.3 -7.65 -16.05 -8.85 L-16.05 -9.05 Q-15.15 -9.5 -15.0 -10.25 L-14.8 -10.3 -14.7 -9.75 -14.75 -9.55 Q-15.05 -9.25 -15.6 -9.05 -15.95 -7.4 -16.6 -5.9 L-16.75 -5.65 M-11.9 6.5 Q-14.75 5.4 -15.55 2.3 -14.2 4.8 -11.9 6.5 M-8.15 13.9 Q-11.35 12.85 -13.55 10.25 -13.9 9.8 -13.55 9.7 -9.3 13.5 -4.3 14.35 0.35 15.1 5.7 13.3 L5.95 13.2 Q0.3 16.7 -5.7 14.85 L-8.15 13.9 M-12.05 20.2 Q-5.2 24.1 3.2 23.5 L3.3 23.6 Q-5.3 25.35 -11.8 20.7 -12.4 20.3 -12.05 20.2 M1.55 29.2 L10.4 27.45 10.45 27.45 Q6.4 29.65 1.55 29.25 L1.55 29.2" fill="#00fcff" fill-rule="evenodd" stroke="none"/>
    </g>
    <radialGradient cx="0" cy="0" gradientTransform="matrix(0.0466, 0.0, 0.0, 0.0466, -2.05, -0.5)" gradientUnits="userSpaceOnUse" id="gradient0" r="819.2" spreadMethod="pad">
      <stop offset="0.0" stop-color="#00ffff"/>
      <stop offset="1.0" stop-color="#0033ff"/>
    </radialGradient>
  </defs>
</svg>
