<?xml version="1.0" encoding="UTF-8" standalone="no"?>
<svg xmlns:xlink="http://www.w3.org/1999/xlink" height="17.2px" width="229.15px" xmlns="http://www.w3.org/2000/svg">
  <g transform="matrix(1.0, 0.0, 0.0, 1.0, 1.85, -6.1)">
    <use height="39.05" transform="matrix(0.4297, 0.0, 0.0, 0.4297, -1.8637, 6.1016)" width="37.25" xlink:href="#shape0"/>
    <use height="36.0" transform="matrix(0.4297, 0.0, 0.0, 0.4297, 15.8797, 6.9609)" width="32.85" xlink:href="#shape1"/>
    <use height="36.4" transform="matrix(0.4297, 0.0, 0.0, 0.4297, 31.4578, 7.0684)" width="41.05" xlink:href="#shape2"/>
    <use height="35.8" transform="matrix(0.4297, 0.0, 0.0, 0.4297, 50.6582, 7.4121)" width="16.15" xlink:href="#shape3"/>
    <use height="36.35" transform="matrix(0.4297, 0.0, 0.0, 0.4297, 59.4227, 7.1758)" width="41.15" xlink:href="#shape4"/>
    <use height="35.8" transform="matrix(0.4297, 0.0, 0.0, 0.4297, 85.7582, 7.4121)" width="16.15" xlink:href="#shape3"/>
    <use height="36.35" transform="matrix(0.4297, 0.0, 0.0, 0.4297, 94.5227, 7.1758)" width="41.15" xlink:href="#shape4"/>
    <use height="34.8" transform="matrix(0.4297, 0.0, 0.0, 0.4297, 113.6289, 7.1973)" width="45.0" xlink:href="#shape5"/>
    <use height="36.75" transform="matrix(0.4297, 0.0, 0.0, 0.4297, 134.2148, 7.498)" width="46.25" xlink:href="#shape6"/>
    <use height="36.85" transform="matrix(0.4297, 0.0, 0.0, 0.4297, 155.3719, 6.875)" width="37.4" xlink:href="#shape7"/>
    <use height="35.8" transform="matrix(0.4297, 0.0, 0.0, 0.4297, 172.9582, 7.4121)" width="16.15" xlink:href="#shape3"/>
    <use height="35.7" transform="matrix(0.4297, 0.0, 0.0, 0.4297, 181.6582, 7.2832)" width="42.15" xlink:href="#shape8"/>
    <use height="36.35" transform="matrix(0.4297, 0.0, 0.0, 0.4297, 201.5227, 7.1758)" width="41.15" xlink:href="#shape4"/>
    <use height="36.65" transform="matrix(0.4297, 0.0, 0.0, 0.4297, 220.9297, 7.0469)" width="14.85" xlink:href="#shape9"/>
  </g>
  <defs>
    <g id="shape0" transform="matrix(1.0, 0.0, 0.0, 1.0, -0.55, 37.0)">
      <path d="M16.3 -22.75 L16.5 -20.2 Q19.8 -20.6 21.35 -21.6 22.9 -22.6 22.75 -23.7 22.65 -24.8 21.0 -25.35 L16.15 -25.5 16.3 -22.75 M17.1 -13.55 L17.2 -12.8 17.45 -11.05 17.7 -9.2 Q20.4 -9.5 21.7 -10.3 22.95 -11.1 22.85 -11.95 22.75 -12.85 21.3 -13.35 L17.1 -13.55 M35.05 -32.65 Q37.25 -30.4 37.75 -26.7 38.0 -24.25 37.35 -22.3 36.7 -20.35 35.5 -19.0 34.3 -17.6 33.0 -16.85 34.2 -16.4 35.4 -15.25 36.6 -14.15 37.25 -12.3 37.85 -10.5 37.35 -7.8 36.9 -5.7 34.75 -3.6 32.55 -1.5 28.5 0.05 24.45 1.6 18.35 2.05 L3.9 1.35 2.85 -10.5 1.7 -22.35 0.55 -33.7 6.4 -35.3 Q9.9 -36.15 13.95 -36.6 L22.0 -37.0 Q26.0 -36.9 29.4 -35.85 32.8 -34.85 35.05 -32.65" fill="#ffffff" fill-rule="evenodd" stroke="none"/>
    </g>
    <g id="shape1" transform="matrix(1.0, 0.0, 0.0, 1.0, -1.0, 35.0)">
      <path d="M22.15 -34.85 L32.55 -35.0 32.5 -33.75 32.4 -30.55 32.2 -26.25 31.85 -21.8 30.2 -21.9 26.0 -22.2 20.65 -22.6 15.4 -23.1 15.4 -21.65 15.45 -20.25 16.75 -20.15 19.85 -19.95 23.45 -19.7 23.55 -18.85 23.7 -16.75 23.95 -14.05 19.3 -13.1 15.65 -12.45 15.7 -11.6 15.8 -10.15 17.2 -10.25 20.85 -10.55 26.15 -11.1 32.2 -11.75 32.5 -10.0 33.15 -5.5 33.85 0.4 22.35 0.75 11.35 0.9 1.65 1.0 1.4 -9.2 1.15 -21.25 1.0 -33.85 11.95 -34.55 22.15 -34.85" fill="#ffffff" fill-rule="evenodd" stroke="none"/>
    </g>
    <g id="shape2" transform="matrix(1.0, 0.0, 0.0, 1.0, -0.6, 34.75)">
      <path d="M21.1 -34.75 Q25.85 -34.75 29.85 -33.3 33.85 -31.9 36.7 -29.35 39.6 -26.8 41.0 -23.5 L33.3 -20.95 27.8 -19.0 25.65 -18.2 Q24.7 -19.75 23.0 -20.4 L19.5 -20.6 Q17.7 -20.2 16.45 -18.65 15.2 -17.1 15.2 -14.35 15.25 -12.05 16.4 -10.55 17.55 -9.05 19.45 -8.9 L21.45 -9.2 Q22.4 -9.6 23.0 -10.45 L21.15 -10.7 19.55 -10.85 18.85 -10.9 18.75 -13.4 18.8 -15.45 18.85 -16.3 24.5 -16.5 31.8 -16.65 41.65 -16.8 Q41.5 -12.25 39.8 -8.8 38.1 -5.35 35.2 -3.05 32.3 -0.7 28.5 0.5 24.75 1.65 20.45 1.65 14.65 1.65 10.2 -0.45 5.75 -2.5 3.2 -6.5 0.65 -10.45 0.6 -16.15 0.65 -20.55 2.35 -24.0 4.05 -27.4 6.9 -29.8 9.8 -32.2 13.45 -33.45 17.1 -34.7 21.1 -34.75" fill="#ffffff" fill-rule="evenodd" stroke="none"/>
    </g>
    <g id="shape3" transform="matrix(1.0, 0.0, 0.0, 1.0, -0.95, 33.95)">
      <path d="M17.1 -33.1 L17.1 -16.8 16.75 0.15 11.65 0.9 6.55 1.4 2.6 1.75 1.05 1.85 0.95 -6.7 0.95 -14.65 1.0 -23.25 1.2 -33.95 6.6 -33.85 11.75 -33.55 15.6 -33.25 17.1 -33.1" fill="#ffffff" fill-rule="evenodd" stroke="none"/>
    </g>
    <g id="shape4" transform="matrix(1.0, 0.0, 0.0, 1.0, -1.1, 34.5)">
      <path d="M32.25 -34.05 L37.35 -33.5 40.9 -33.05 42.25 -32.85 41.75 -22.85 41.1 -11.85 40.25 -0.4 34.7 0.55 29.35 1.25 25.35 1.7 23.75 1.85 21.1 -3.2 18.6 -7.7 16.8 -10.95 16.1 -12.15 16.05 -6.8 15.95 -2.65 15.9 1.45 11.05 1.1 6.2 0.65 2.55 0.3 1.1 0.1 1.25 -16.7 1.65 -34.35 7.15 -34.2 12.05 -33.9 15.55 -33.65 16.9 -33.5 19.9 -27.4 22.8 -21.9 24.9 -18.0 25.75 -16.45 25.95 -22.8 26.15 -28.6 26.3 -32.85 26.35 -34.5 32.25 -34.05" fill="#ffffff" fill-rule="evenodd" stroke="none"/>
    </g>
    <g id="shape5" transform="matrix(1.0, 0.0, 0.0, 1.0, -0.3, 34.45)">
      <path d="M33.65 -33.7 L39.0 -33.95 45.3 -34.25 41.45 -24.4 38.2 -16.4 35.15 -9.25 31.75 -1.7 26.8 -0.85 22.1 -0.2 18.55 0.2 17.15 0.35 13.0 -7.15 9.25 -14.15 5.2 -21.75 0.3 -31.2 5.5 -32.45 10.45 -33.5 14.15 -34.15 15.65 -34.45 19.7 -26.45 23.2 -19.15 25.8 -26.25 28.6 -33.4 29.95 -33.5 33.65 -33.7" fill="#ffffff" fill-rule="evenodd" stroke="none"/>
    </g>
    <g id="shape6" transform="matrix(1.0, 0.0, 0.0, 1.0, -0.5, 33.75)">
      <path d="M25.4 -13.2 L24.45 -16.6 23.4 -20.1 22.45 -16.5 21.4 -12.7 23.55 -12.95 25.4 -13.2 M33.0 -33.75 L36.05 -27.15 39.8 -19.05 43.55 -10.4 46.75 -2.3 Q43.5 -1.1 39.4 -0.05 L29.8 2.15 28.6 -2.1 27.45 -6.05 22.85 -5.25 19.3 -4.65 18.3 -0.95 17.25 3.0 11.25 1.6 5.85 0.1 2.0 -1.1 0.5 -1.65 3.5 -8.15 7.35 -16.35 11.55 -25.1 15.65 -33.3 21.65 -33.6 27.25 -33.7 31.35 -33.75 33.0 -33.75" fill="#ffffff" fill-rule="evenodd" stroke="none"/>
    </g>
    <g id="shape7" transform="matrix(1.0, 0.0, 0.0, 1.0, -0.4, 35.2)">
      <path d="M32.65 -31.5 Q34.75 -29.75 35.95 -27.7 37.2 -25.65 37.8 -23.6 L32.7 -22.45 28.0 -21.6 24.55 -21.15 23.2 -21.0 Q22.6 -22.05 21.55 -22.55 L19.35 -23.1 17.35 -22.85 Q16.5 -22.5 16.3 -21.9 16.0 -20.9 17.55 -20.1 19.1 -19.35 22.85 -19.2 L27.35 -18.7 Q29.9 -18.3 32.3 -17.25 34.65 -16.2 36.2 -14.3 37.75 -12.4 37.7 -9.45 37.5 -6.5 35.95 -4.35 34.4 -2.25 31.8 -0.9 29.25 0.45 25.95 1.1 L19.05 1.65 Q14.7 1.65 11.15 0.7 7.6 -0.3 4.9 -2.5 2.2 -4.7 0.4 -8.35 L7.35 -10.4 12.5 -11.6 14.55 -12.0 Q15.35 -10.65 16.65 -10.05 17.95 -9.45 19.3 -9.4 L21.7 -9.65 22.95 -10.45 Q23.3 -11.45 21.45 -12.05 L16.2 -12.95 Q12.3 -13.3 9.15 -14.35 6.0 -15.4 4.05 -17.35 2.1 -19.35 1.75 -22.5 1.45 -25.75 3.2 -28.6 4.95 -31.45 8.85 -33.3 12.8 -35.1 19.0 -35.2 23.85 -35.25 27.2 -34.2 30.55 -33.2 32.65 -31.5" fill="#ffffff" fill-rule="evenodd" stroke="none"/>
    </g>
    <g id="shape8" transform="matrix(1.0, 0.0, 0.0, 1.0, -0.95, 34.25)">
      <path d="M18.95 -18.3 Q17.4 -17.1 17.35 -15.35 17.4 -13.55 18.95 -12.35 20.45 -11.2 22.75 -11.15 25.0 -11.2 26.55 -12.35 28.05 -13.55 28.1 -15.35 28.05 -17.1 26.55 -18.3 25.0 -19.5 22.75 -19.55 20.45 -19.5 18.95 -18.3 M32.95 -31.85 Q37.5 -29.5 40.15 -25.55 42.75 -21.6 43.05 -16.65 43.25 -13.15 41.95 -9.9 40.65 -6.65 37.9 -4.1 35.15 -1.55 31.1 -0.05 27.05 1.45 21.7 1.45 17.4 1.45 13.65 0.3 9.9 -0.9 7.05 -3.15 4.15 -5.45 2.55 -8.75 0.95 -12.1 0.95 -16.4 1.0 -20.8 2.85 -24.1 4.7 -27.45 7.75 -29.7 10.85 -31.95 14.6 -33.1 18.4 -34.25 22.4 -34.25 28.45 -34.2 32.95 -31.85" fill="#ffffff" fill-rule="evenodd" stroke="none"/>
    </g>
    <g id="shape9" transform="matrix(1.0, 0.0, 0.0, 1.0, -1.0, 34.8)">
      <path d="M3.0 -0.15 Q2.1 -1.15 1.95 -2.55 1.85 -3.95 2.6 -5.1 3.4 -6.3 4.75 -7.05 6.15 -7.8 7.95 -7.95 L11.2 -7.55 Q12.7 -7.0 13.65 -6.0 14.6 -4.95 14.7 -3.55 14.8 -2.2 14.0 -1.0 13.25 0.15 11.85 0.95 10.5 1.7 8.7 1.85 L5.45 1.45 Q3.95 0.9 3.0 -0.15 M15.85 -34.05 L15.7 -26.0 15.45 -18.15 15.1 -9.9 11.0 -9.65 6.45 -9.4 2.8 -9.2 1.3 -9.1 1.1 -17.85 1.0 -26.55 1.05 -34.8 6.45 -34.65 11.2 -34.4 14.55 -34.2 15.85 -34.05" fill="#ffffff" fill-rule="evenodd" stroke="none"/>
    </g>
  </defs>
</svg>
