<?xml version="1.0" encoding="UTF-8" standalone="no"?>
<svg xmlns:xlink="http://www.w3.org/1999/xlink" height="464.15px" width="540.15px" xmlns="http://www.w3.org/2000/svg">
  <g transform="matrix(1.0, 0.0, 0.0, 1.0, 270.1, 232.1)">
    <use height="464.15" transform="matrix(1.0, 0.0, 0.0, 1.0, -270.1, -232.1)" width="540.15" xlink:href="#shape0"/>
  </g>
  <defs>
    <g id="shape0" transform="matrix(1.0, 0.0, 0.0, 1.0, 270.1, 232.1)">
      <path d="M109.45 183.1 Q113.7 174.05 103.85 170.9 102.8 171.4 100.85 172.45 95.95 175.2 96.8 181.0 100.8 189.7 108.6 184.7 L109.45 183.1 M120.25 161.9 Q116.2 167.3 115.7 174.05 117.6 183.5 126.55 184.7 L129.25 183.45 Q134.0 180.8 134.1 175.65 L133.9 174.1 Q132.2 166.8 127.5 161.3 126.05 160.75 124.6 160.45 L122.75 160.25 Q121.1 160.75 120.25 161.9 M134.4 135.25 Q133.45 130.35 128.45 129.35 127.25 129.6 126.3 130.25 118.9 135.4 125.1 142.15 132.85 145.0 134.55 136.8 L134.4 135.25 M35.9 143.75 L35.85 144.0 Q28.35 145.1 29.25 152.8 32.9 161.95 40.6 155.95 L41.35 154.3 Q44.15 146.25 35.9 143.75 M33.5 36.75 Q33.75 37.55 34.25 37.7 46.2 42.25 37.75 31.4 L35.95 32.1 Q33.0 33.4 33.5 36.75 M82.6 87.85 Q93.1 83.05 83.1 77.2 L83.05 77.5 Q74.65 80.0 79.8 87.85 81.45 88.35 82.6 87.85 M119.0 45.25 Q117.9 45.75 115.95 46.85 111.05 49.6 111.9 55.35 115.9 64.1 123.7 59.1 L124.55 57.45 Q128.8 48.4 119.0 45.25 M166.65 153.85 L166.05 152.3 Q163.2 146.8 156.75 148.0 L156.65 148.3 152.5 149.6 151.0 151.1 Q148.9 153.15 148.25 155.95 148.25 157.55 148.6 159.1 148.95 160.75 149.65 162.35 157.75 167.8 165.25 160.25 L166.35 156.95 166.65 153.85 M165.25 107.0 L166.0 105.35 Q168.8 97.3 160.55 94.75 L160.5 95.05 Q153.0 96.15 153.9 103.8 157.55 113.0 165.25 107.0 M190.65 117.1 Q194.9 108.05 185.1 104.85 L182.05 106.45 Q177.15 109.2 178.0 115.0 182.0 123.7 189.8 118.7 L190.65 117.1 M194.55 141.6 L194.5 141.85 Q187.0 143.0 187.9 150.65 191.55 159.8 199.25 153.85 L200.0 152.2 Q202.8 144.1 194.55 141.6 M163.35 132.55 L164.15 130.9 Q166.9 122.85 158.65 120.3 L158.6 120.6 Q151.1 121.7 152.05 129.35 155.7 138.55 163.35 132.55 M217.2 145.85 L217.15 146.15 Q209.65 147.25 210.6 154.9 214.25 164.1 221.9 158.1 L222.7 156.45 Q225.45 148.4 217.2 145.85 M209.45 120.25 Q212.25 112.2 203.95 109.65 L203.95 109.95 Q196.4 111.05 197.35 118.7 201.0 127.9 208.7 121.9 L209.45 120.25 M93.5 -0.8 Q106.3 -0.55 96.3 -9.55 L94.55 -8.85 Q90.1 -6.4 92.05 -1.6 92.8 -0.8 93.5 -0.8 M68.95 -54.0 Q81.75 -53.8 71.75 -62.8 70.8 -62.55 70.0 -62.1 65.55 -59.65 67.5 -54.8 68.25 -54.0 68.95 -54.0 M270.05 232.05 L-270.1 232.05 -270.1 -232.1 270.05 -232.1 270.05 232.05 M-89.2 6.7 Q-78.95 7.15 -86.9 0.0 L-86.9 0.3 Q-91.65 1.05 -90.65 5.85 -89.95 6.65 -89.2 6.7 M-37.75 33.55 Q-38.7 33.8 -39.6 34.2 -42.55 35.55 -42.0 38.85 -41.8 39.65 -41.3 39.85 -29.35 44.35 -37.75 33.55 M-32.55 -52.9 Q-22.3 -52.5 -30.2 -59.6 L-30.25 -59.35 Q-35.0 -58.55 -34.0 -53.75 -33.3 -52.95 -32.55 -52.9 M-99.15 -107.25 Q-86.35 -107.0 -96.3 -116.05 L-98.1 -115.3 Q-102.55 -112.85 -100.55 -108.05 -99.85 -107.25 -99.15 -107.25 M-150.85 -162.45 Q-138.9 -157.9 -147.3 -168.75 L-149.15 -168.05 Q-152.05 -166.7 -151.55 -163.4 -151.35 -162.6 -150.85 -162.45 M-68.95 -171.1 Q-56.1 -170.9 -66.1 -179.9 L-67.9 -179.2 Q-72.35 -176.75 -70.35 -171.9 -69.65 -171.1 -68.95 -171.1 M-170.45 -31.4 Q-169.75 -30.6 -169.05 -30.6 -156.2 -30.35 -166.2 -39.4 L-168.0 -38.65 Q-172.45 -36.2 -170.45 -31.4 M-174.2 -108.3 Q-163.95 -107.85 -171.85 -114.95 L-171.9 -114.7 Q-176.65 -113.9 -175.65 -109.1 -174.95 -108.3 -174.2 -108.3 M-209.65 -153.8 L-211.45 -153.15 Q-214.4 -151.8 -213.9 -148.5 -213.65 -147.7 -213.2 -147.5 -201.25 -143.0 -209.65 -153.8 M-173.3 -181.4 Q-175.45 -172.6 -172.8 -181.5 L-173.3 -181.4" fill="url(#gradient0)" fill-rule="evenodd" stroke="none"/>
      <path d="M68.95 -54.0 Q68.25 -54.0 67.5 -54.8 65.55 -59.65 70.0 -62.1 70.8 -62.55 71.75 -62.8 81.75 -53.8 68.95 -54.0 M93.5 -0.8 Q92.8 -0.8 92.05 -1.6 90.1 -6.4 94.55 -8.85 L96.3 -9.55 Q106.3 -0.55 93.5 -0.8 M209.45 120.25 L208.7 121.9 Q201.0 127.9 197.35 118.7 196.4 111.05 203.95 109.95 L203.95 109.65 Q212.25 112.2 209.45 120.25 M217.2 145.85 Q225.45 148.4 222.7 156.45 L221.9 158.1 Q214.25 164.1 210.6 154.9 209.65 147.25 217.15 146.15 L217.2 145.85 M163.35 132.55 Q155.7 138.55 152.05 129.35 151.1 121.7 158.6 120.6 L158.65 120.3 Q166.9 122.85 164.15 130.9 L163.35 132.55 M194.55 141.6 Q202.8 144.1 200.0 152.2 L199.25 153.85 Q191.55 159.8 187.9 150.65 187.0 143.0 194.5 141.85 L194.55 141.6 M190.65 117.1 L189.8 118.7 Q182.0 123.7 178.0 115.0 177.15 109.2 182.05 106.45 L185.1 104.85 Q194.9 108.05 190.65 117.1 M165.25 107.0 Q157.55 113.0 153.9 103.8 153.0 96.15 160.5 95.05 L160.55 94.75 Q168.8 97.3 166.0 105.35 L165.25 107.0 M166.65 153.85 L166.35 156.95 165.25 160.25 Q157.75 167.8 149.65 162.35 148.95 160.75 148.6 159.1 148.25 157.55 148.25 155.95 148.9 153.15 151.0 151.1 L152.5 149.6 156.65 148.3 156.75 148.0 Q163.2 146.8 166.05 152.3 L166.65 153.85 M119.0 45.25 Q128.8 48.4 124.55 57.45 L123.7 59.1 Q115.9 64.1 111.9 55.35 111.05 49.6 115.95 46.85 117.9 45.75 119.0 45.25 M82.6 87.85 Q81.45 88.35 79.8 87.85 74.65 80.0 83.05 77.5 L83.1 77.2 Q93.1 83.05 82.6 87.85 M33.5 36.75 Q33.0 33.4 35.95 32.1 L37.75 31.4 Q46.2 42.25 34.25 37.7 33.75 37.55 33.5 36.75 M35.9 143.75 Q44.15 146.25 41.35 154.3 L40.6 155.95 Q32.9 161.95 29.25 152.8 28.35 145.1 35.85 144.0 L35.9 143.75 M134.4 135.25 L134.55 136.8 Q132.85 145.0 125.1 142.15 118.9 135.4 126.3 130.25 127.25 129.6 128.45 129.35 133.45 130.35 134.4 135.25 M120.25 161.9 Q121.1 160.75 122.75 160.25 L124.6 160.45 Q126.05 160.75 127.5 161.3 132.2 166.8 133.9 174.1 L134.1 175.65 Q134.0 180.8 129.25 183.45 L126.55 184.7 Q117.6 183.5 115.7 174.05 116.2 167.3 120.25 161.9 M109.45 183.1 L108.6 184.7 Q100.8 189.7 96.8 181.0 95.95 175.2 100.85 172.45 102.8 171.4 103.85 170.9 113.7 174.05 109.45 183.1 M-173.3 -181.4 L-172.8 -181.5 Q-175.45 -172.6 -173.3 -181.4 M-209.65 -153.8 Q-201.25 -143.0 -213.2 -147.5 -213.65 -147.7 -213.9 -148.5 -214.4 -151.8 -211.45 -153.15 L-209.65 -153.8 M-174.2 -108.3 Q-174.95 -108.3 -175.65 -109.1 -176.65 -113.9 -171.9 -114.7 L-171.85 -114.95 Q-163.95 -107.85 -174.2 -108.3 M-170.45 -31.4 Q-172.45 -36.2 -168.0 -38.65 L-166.2 -39.4 Q-156.2 -30.35 -169.05 -30.6 -169.75 -30.6 -170.45 -31.4 M-68.95 -171.1 Q-69.65 -171.1 -70.35 -171.9 -72.35 -176.75 -67.9 -179.2 L-66.1 -179.9 Q-56.1 -170.9 -68.95 -171.1 M-150.85 -162.45 Q-151.35 -162.6 -151.55 -163.4 -152.05 -166.7 -149.15 -168.05 L-147.3 -168.75 Q-138.9 -157.9 -150.85 -162.45 M-99.15 -107.25 Q-99.85 -107.25 -100.55 -108.05 -102.55 -112.85 -98.1 -115.3 L-96.3 -116.05 Q-86.35 -107.0 -99.15 -107.25 M-32.55 -52.9 Q-33.3 -52.95 -34.0 -53.75 -35.0 -58.55 -30.25 -59.35 L-30.2 -59.6 Q-22.3 -52.5 -32.55 -52.9 M-37.75 33.55 Q-29.35 44.35 -41.3 39.85 -41.8 39.65 -42.0 38.85 -42.55 35.55 -39.6 34.2 -38.7 33.8 -37.75 33.55 M-89.2 6.7 Q-89.95 6.65 -90.65 5.85 -91.65 1.05 -86.9 0.3 L-86.9 0.0 Q-78.95 7.15 -89.2 6.7" fill="#006600" fill-rule="evenodd" stroke="none"/>
    </g>
    <radialGradient cx="0" cy="0" gradientTransform="matrix(0.4347, 0.0, 0.0, 0.4347, -0.05, -0.05)" gradientUnits="userSpaceOnUse" id="gradient0" r="819.2" spreadMethod="pad">
      <stop offset="0.0" stop-color="#00cc00"/>
      <stop offset="1.0" stop-color="#003300"/>
    </radialGradient>
  </defs>
</svg>
