<?xml version="1.0" encoding="UTF-8" standalone="no"?>
<svg xmlns:xlink="http://www.w3.org/1999/xlink" height="90.45px" width="639.85px" xmlns="http://www.w3.org/2000/svg">
  <g transform="matrix(1.0, 0.0, 0.0, 1.0, 319.85, 42.7)">
    <use height="90.45" transform="matrix(1.0, 0.0, 0.0, 1.0, -319.85, -42.7)" width="639.85" xlink:href="#shape0"/>
  </g>
  <defs>
    <g id="shape0" transform="matrix(1.0, 0.0, 0.0, 1.0, 319.85, 42.7)">
      <path d="M320.0 -42.7 L320.0 47.75 299.15 47.75 299.15 -42.7 320.0 -42.7" fill="#ff0000" fill-rule="evenodd" stroke="none"/>
      <path d="M26.7 -42.7 L299.15 -42.7 299.15 47.75 26.7 47.75 26.7 -42.7" fill="#ff0000" fill-rule="evenodd" stroke="none"/>
      <path d="M26.7 47.75 L-34.9 47.75 -34.9 -42.7 26.7 -42.7 26.7 47.75" fill="#ff0000" fill-rule="evenodd" stroke="none"/>
      <path d="M-299.85 47.75 L-319.85 47.75 -319.85 -42.7 -299.85 -42.7 -299.85 47.75" fill="#ff0000" fill-rule="evenodd" stroke="none"/>
      <path d="M-299.85 -42.7 L-34.95 -42.7 -34.95 47.75 -299.85 47.75 -299.85 -42.7" fill="#ff0000" fill-rule="evenodd" stroke="none"/>
    </g>
  </defs>
</svg>
