<?xml version="1.0" encoding="UTF-8" standalone="no"?>
<svg xmlns:xlink="http://www.w3.org/1999/xlink" height="83.95px" width="65.25px" xmlns="http://www.w3.org/2000/svg">
  <g transform="matrix(1.0, 0.0, 0.0, 1.0, 32.65, 42.0)">
    <use height="83.95" transform="matrix(1.0, 0.0, 0.0, 1.0, -32.65, -42.0)" width="65.25" xlink:href="#shape0"/>
  </g>
  <defs>
    <g id="shape0" transform="matrix(1.0, 0.0, 0.0, 1.0, 32.65, 42.0)">
      <path d="M-11.55 -41.9 L-11.35 -42.0 Q-10.0 -41.05 -8.4 -40.4 L-2.55 -38.15 -1.1 -37.65 Q4.55 -35.65 10.35 -33.9 L10.5 -33.85 13.15 -32.45 13.35 -32.4 13.7 -32.35 15.35 -31.4 Q22.85 -27.25 26.5 -19.45 L26.5 -19.25 26.6 -18.95 Q28.65 -13.75 28.75 -8.1 L28.6 -3.35 Q28.45 -1.75 27.7 -1.05 L29.6 -0.8 Q31.05 -0.45 31.75 0.9 33.35 3.65 32.0 5.95 31.65 8.4 30.45 10.7 25.85 19.35 18.0 25.55 10.9 31.15 2.15 33.4 -5.05 35.1 -11.95 37.05 -13.55 37.45 -14.8 38.45 L-15.8 39.2 Q-18.1 40.85 -20.65 41.85 L-22.15 41.8 Q-25.1 40.5 -24.75 38.05 L-25.55 38.2 -26.1 38.15 -26.25 38.1 -26.35 38.1 -26.5 38.05 -26.7 38.1 -26.75 38.15 -26.95 38.1 Q-29.15 37.85 -30.7 36.3 -34.65 32.55 -30.55 28.8 L-30.4 28.65 -30.1 28.35 Q-28.75 27.35 -27.1 26.8 -23.9 25.55 -20.7 25.0 -15.15 22.25 -11.4 17.3 L-11.9 16.4 -12.05 15.75 -12.05 15.55 -12.05 15.3 Q-14.2 14.1 -15.9 12.15 L-16.5 11.45 -17.0 10.75 -17.45 10.1 -17.65 10.45 -18.65 11.3 -18.7 11.2 -18.8 10.9 -18.75 10.85 -18.75 10.65 -18.75 10.55 -18.05 9.15 -19.6 6.55 -19.8 6.55 -19.85 6.55 -20.8 4.0 Q-22.9 -0.9 -23.5 -6.3 L-23.55 -6.45 -23.3 -8.4 Q-23.55 -17.15 -17.05 -23.8 L-15.45 -25.05 -15.8 -25.05 -25.2 -24.6 -25.5 -24.85 -25.65 -25.15 -25.7 -25.3 -25.4 -25.85 Q-21.95 -26.65 -20.75 -29.9 L-20.45 -29.95 -19.9 -29.9 -19.9 -29.85 -11.65 -30.25 -18.75 -31.5 -19.4 -31.35 -19.6 -31.55 -19.7 -31.8 -19.6 -31.9 -19.45 -32.4 -19.25 -32.45 -19.05 -32.55 -18.6 -32.55 -18.25 -32.5 Q-12.6 -35.55 -11.7 -41.8 L-11.6 -41.85 -11.55 -41.9 M9.25 -32.7 L9.0 -32.8 Q-0.4 -35.8 -9.5 -39.5 L-9.65 -39.7 -9.7 -39.9 -9.9 -39.85 -10.65 -40.25 Q-10.5 -39.25 -11.1 -37.9 -13.05 -34.05 -16.3 -32.35 -12.75 -32.0 -9.4 -30.55 L-9.3 -30.45 Q-9.2 -30.15 -9.45 -29.9 L-9.55 -29.9 Q-9.65 -29.65 -10.0 -29.55 -13.75 -28.55 -17.65 -28.3 -19.05 -28.2 -19.85 -28.7 -20.05 -27.3 -21.4 -26.35 L-20.45 -26.3 -14.15 -25.85 -14.05 -25.75 -13.0 -26.1 -12.85 -26.0 -12.7 -26.0 -12.65 -25.95 -12.55 -25.85 -12.55 -25.65 Q-18.65 -21.85 -21.25 -15.15 L-21.85 -11.65 -22.1 -9.1 -22.1 -8.9 -22.1 -7.75 -22.1 -7.7 -22.05 -7.6 -22.0 -7.5 -21.95 -7.35 -22.0 -7.0 -22.0 -6.35 Q-20.3 -6.25 -18.8 -4.85 L-18.4 -4.5 -18.35 -4.55 -17.5 -3.6 -16.05 -1.95 Q-13.3 1.2 -11.45 4.9 L-11.3 5.05 -11.25 5.15 -11.2 5.25 -11.2 5.35 -11.2 5.45 Q-9.85 8.25 -9.0 11.35 L-8.95 11.45 -8.95 11.4 Q-5.55 9.75 -1.75 9.55 L1.6 9.7 3.55 9.9 Q1.15 7.9 -0.4 5.0 L-2.15 1.65 -5.45 2.6 -4.85 1.8 Q-3.9 1.0 -2.7 0.45 L-4.2 -3.25 Q-5.9 -7.8 -5.05 -12.0 L-4.6 -13.75 -4.75 -13.7 -4.55 -14.3 -4.2 -15.15 -4.0 -15.2 -2.65 -17.65 -4.1 -17.6 -4.15 -17.65 Q-4.5 -18.1 -4.2 -18.45 0.8 -19.95 5.2 -17.1 8.45 -15.35 11.05 -12.4 13.8 -9.15 15.15 -5.4 16.2 -2.55 16.4 0.7 L16.4 0.8 16.45 1.75 Q16.45 3.55 15.95 5.05 L15.7 5.65 15.05 6.9 20.45 1.85 Q23.25 -0.9 26.7 -1.05 28.45 -8.55 26.25 -16.0 L24.65 -19.95 Q20.2 -28.0 11.9 -31.85 L9.25 -32.7 M12.05 -9.05 L10.05 -11.8 9.95 -11.8 8.2 -13.6 6.55 -14.95 6.7 -14.85 Q3.3 -17.2 -1.0 -17.6 L-1.15 -17.3 -2.0 -16.4 -2.05 -16.3 -2.7 -15.5 -2.55 -15.55 -3.1 -14.2 -3.15 -14.2 -3.5 -12.45 -3.7 -10.5 Q-3.75 -8.0 -3.3 -5.5 L-3.1 -4.1 Q-2.8 -2.65 -2.1 -1.4 L-1.9 -1.0 -1.9 -0.85 -1.75 -0.6 -1.5 -0.55 -1.4 -0.5 Q-1.1 -0.35 -0.85 -0.5 L2.7 -0.9 2.75 -0.9 4.2 -0.95 6.65 -0.95 6.85 -1.0 7.1 -1.15 10.15 -1.1 Q12.65 -1.0 15.1 -0.15 L14.8 -2.15 Q14.05 -5.65 12.25 -8.7 L12.05 -9.0 12.05 -9.05 M3.5 -24.5 Q5.85 -23.45 6.3 -21.4 5.15 -21.3 4.25 -22.15 L2.6 -23.5 1.8 -23.7 Q-1.4 -24.9 -3.95 -22.95 L-4.3 -22.95 -4.55 -23.1 -4.65 -23.2 -4.65 -23.3 Q-4.85 -24.2 -4.0 -24.65 -0.25 -26.15 3.5 -24.5 M-21.8 -5.2 L-22.0 -5.2 -21.95 -5.15 Q-21.6 -2.5 -20.85 0.05 L-20.8 -0.1 -20.45 1.35 -20.35 1.7 -20.3 1.8 -19.7 3.1 -19.4 3.75 -18.4 6.0 -17.25 7.95 -16.6 7.25 -16.55 7.25 -15.05 6.1 -14.85 6.0 -14.85 5.9 -13.25 4.6 -13.35 4.45 -13.35 4.25 -13.3 4.25 -13.45 3.95 Q-14.95 1.4 -16.85 -0.75 L-18.35 -2.3 -18.4 -2.4 -18.45 -2.35 -19.1 -3.1 -19.45 -3.35 -19.5 -3.35 -21.8 -5.2 M-14.4 8.95 L-14.7 7.5 -16.6 8.9 -15.6 10.25 -11.75 14.1 -11.2 13.15 -13.4 10.95 Q-12.35 10.25 -11.8 9.25 L-11.85 9.1 -12.0 9.05 -12.1 9.05 -14.25 9.2 -14.4 8.95 M2.05 10.75 Q-4.15 10.05 -9.25 13.35 L-9.3 13.35 -9.4 13.5 -9.7 13.65 -10.45 14.15 -10.65 15.0 -10.45 15.15 -10.65 15.75 -10.6 16.2 -9.95 15.1 -9.6 15.1 Q-9.35 15.15 -9.2 15.3 -9.15 16.45 -9.9 17.6 -12.65 21.6 -16.65 24.5 L-9.35 24.9 Q-10.25 25.75 -11.9 25.85 L-19.7 26.1 -20.6 26.25 Q-23.15 26.75 -25.65 27.75 L-26.05 27.9 -29.65 30.1 Q-32.4 31.9 -30.6 34.35 -28.45 37.3 -24.65 36.85 L-24.6 36.6 -24.4 36.35 -22.55 33.75 -25.2 34.65 -25.2 34.55 -24.55 33.25 Q-20.35 31.15 -15.5 30.65 L-6.8 29.35 Q2.7 27.6 10.25 22.35 L13.5 19.8 13.85 19.5 18.65 14.65 Q20.4 12.55 20.7 9.8 20.8 8.2 21.45 6.9 19.8 7.8 18.9 10.0 L18.75 10.15 18.65 10.15 18.55 10.1 18.35 10.05 18.3 9.9 Q18.1 7.5 20.25 6.05 21.25 5.3 22.6 4.9 24.85 4.15 26.8 5.4 L26.8 5.5 26.55 6.1 26.4 6.25 25.4 6.3 23.05 6.35 22.65 6.95 Q22.4 12.25 18.85 16.35 10.35 26.3 -2.25 29.35 L-6.4 30.15 Q-12.15 30.9 -17.75 32.35 L-19.3 32.8 -21.0 34.25 -23.05 36.7 -23.1 36.85 Q-24.05 38.6 -22.95 40.2 L-22.75 40.3 -22.45 40.55 -22.25 40.75 -21.8 40.85 Q-21.05 40.9 -20.6 40.5 L-19.05 39.3 Q-13.25 35.1 -6.05 34.1 3.2 32.85 11.25 28.35 24.85 20.65 30.5 6.9 L30.5 6.85 30.45 6.7 30.75 5.65 Q31.5 4.2 31.4 2.55 L31.3 2.3 Q31.0 2.0 31.0 1.55 L30.9 1.3 Q30.0 0.65 28.95 0.3 L25.5 0.5 25.35 0.45 25.2 0.4 25.05 0.35 Q21.4 1.65 19.05 4.75 13.75 11.65 5.5 11.15 L5.3 11.15 5.3 11.1 3.4 10.9 2.05 10.75 M6.25 1.3 L6.6 1.85 3.3 4.2 Q2.85 4.4 2.85 4.8 L2.95 4.9 3.05 5.0 3.1 5.05 8.05 4.5 8.75 6.25 8.65 7.75 Q8.65 8.95 8.25 9.65 10.35 9.3 12.35 8.6 L13.75 8.0 13.6 7.75 Q14.75 5.3 15.05 2.75 L15.15 1.1 Q11.35 0.05 7.5 0.3 L5.5 0.4 6.25 1.3" fill="#000000" fill-rule="evenodd" stroke="none"/>
      <path d="M-9.0 11.35 Q-9.85 8.25 -11.2 5.45 L-11.2 5.35 -11.2 5.25 -11.25 5.15 -11.3 5.05 -11.45 4.9 Q-13.3 1.2 -16.05 -1.95 L-17.5 -3.6 -18.35 -4.55 -18.4 -4.5 -18.8 -4.85 Q-20.3 -6.25 -22.0 -6.35 L-22.0 -7.0 -21.95 -7.35 -22.0 -7.5 -22.05 -7.6 -22.1 -7.7 -22.1 -7.75 -22.1 -8.9 -22.1 -9.1 -21.85 -11.65 -21.25 -15.15 Q-18.65 -21.85 -12.55 -25.65 L-12.55 -25.85 -12.65 -25.95 -12.7 -26.0 -12.85 -26.0 -13.0 -26.1 -14.05 -25.75 -14.15 -25.85 -20.45 -26.3 -21.4 -26.35 Q-20.05 -27.3 -19.85 -28.7 -19.05 -28.2 -17.65 -28.3 -13.75 -28.55 -10.0 -29.55 -9.65 -29.65 -9.55 -29.9 L-9.45 -29.9 Q-9.2 -30.15 -9.3 -30.45 L-9.4 -30.55 Q-12.75 -32.0 -16.3 -32.35 -13.05 -34.05 -11.1 -37.9 -10.5 -39.25 -10.65 -40.25 L-9.9 -39.85 -9.7 -39.9 -9.65 -39.7 -9.5 -39.5 Q-0.4 -35.8 9.0 -32.8 L9.25 -32.7 Q10.45 -31.95 11.4 -30.85 L13.0 -29.15 Q17.6 -24.8 20.3 -19.25 21.3 -17.15 21.45 -14.8 L21.65 -13.1 21.85 -11.2 21.65 -7.45 21.0 -4.85 20.5 -3.15 Q20.15 -1.5 19.35 -0.05 L15.95 5.05 Q16.45 3.55 16.45 1.75 L16.4 0.8 16.4 0.7 Q16.2 -2.55 15.15 -5.4 13.8 -9.15 11.05 -12.4 8.45 -15.35 5.2 -17.1 0.8 -19.95 -4.2 -18.45 -4.5 -18.1 -4.15 -17.65 L-4.1 -17.6 -2.65 -17.65 -4.0 -15.2 -4.2 -15.15 -4.55 -14.3 -4.75 -13.7 -4.6 -13.75 -5.05 -12.0 Q-5.9 -7.8 -4.2 -3.25 L-2.7 0.45 Q-3.9 1.0 -4.85 1.8 L-5.45 2.6 -2.15 1.65 -0.4 5.0 Q1.15 7.9 3.55 9.9 L1.6 9.7 -1.75 9.55 Q-5.55 9.75 -8.95 11.4 L-9.0 11.35 M7.1 -1.15 L6.85 -1.0 6.65 -0.95 4.2 -0.95 2.75 -0.9 2.7 -0.9 -0.85 -0.5 Q-1.1 -0.35 -1.4 -0.5 L-1.5 -0.55 -1.75 -0.6 -1.9 -0.85 -1.9 -1.0 -2.1 -1.4 Q-2.8 -2.65 -3.1 -4.1 L-3.3 -5.5 Q-3.75 -8.0 -3.7 -10.5 L-3.5 -12.45 -3.15 -14.2 -3.1 -14.2 -2.55 -15.55 -2.7 -15.5 -2.05 -16.3 -2.0 -16.4 -1.15 -17.3 -1.0 -17.6 Q3.3 -17.2 6.7 -14.85 L6.55 -14.95 8.2 -13.6 9.95 -11.8 10.05 -11.8 12.05 -9.05 12.0 -8.95 12.05 -9.0 12.25 -8.7 Q14.05 -5.65 14.8 -2.15 L15.1 -0.15 Q12.65 -1.0 10.15 -1.1 L10.15 -1.2 7.2 -1.25 7.1 -1.15 M3.5 -24.5 Q-0.25 -26.15 -4.0 -24.65 -4.85 -24.2 -4.65 -23.3 L-4.65 -23.2 -4.55 -23.1 -4.3 -22.95 -3.95 -22.95 Q-1.4 -24.9 1.8 -23.7 L2.6 -23.5 4.25 -22.15 Q5.15 -21.3 6.3 -21.4 5.85 -23.45 3.5 -24.5 M-21.95 -5.15 L-21.8 -5.2 -19.5 -3.35 -19.45 -3.35 -19.1 -3.1 -18.45 -2.35 -18.4 -2.3 -18.35 -2.3 -16.85 -0.75 Q-14.95 1.4 -13.45 3.95 L-13.5 4.0 -13.4 4.15 -13.35 4.25 -13.35 4.45 -13.25 4.6 -14.85 5.9 -15.05 6.1 -16.55 7.25 -16.6 7.2 -16.6 7.25 -17.25 7.95 -18.4 6.0 -19.4 3.75 -19.7 3.1 -20.3 1.8 -20.35 1.7 -20.45 1.35 -20.8 -0.1 -20.85 0.05 Q-21.6 -2.5 -21.95 -5.15" fill="#55bb65" fill-rule="evenodd" stroke="none"/>
      <path d="M12.05 -9.05 L12.05 -9.0 12.0 -8.95 12.05 -9.05 M10.15 -1.1 L7.1 -1.15 7.2 -1.25 10.15 -1.2 10.15 -1.1 M-18.45 -2.35 L-18.4 -2.4 -18.35 -2.3 -18.4 -2.3 -18.45 -2.35 M-13.45 3.95 L-13.3 4.25 -13.35 4.25 -13.4 4.15 -13.5 4.0 -13.45 3.95 M-14.85 5.9 L-14.85 6.0 -15.05 6.1 -14.85 5.9 M-16.55 7.25 L-16.6 7.25 -16.6 7.2 -16.55 7.25 M-15.6 10.25 L-14.55 9.05 -14.4 8.95 -14.25 9.2 -12.1 9.05 -12.0 9.05 -11.85 9.1 -11.8 9.25 Q-12.35 10.25 -13.4 10.95 L-11.2 13.15 -11.75 14.1 -15.6 10.25 M15.05 2.75 Q14.75 5.3 13.6 7.75 L13.75 8.0 12.35 8.6 Q10.35 9.3 8.25 9.65 8.65 8.95 8.65 7.75 L8.75 6.25 8.05 4.5 3.1 5.05 3.05 5.0 2.95 4.9 2.85 4.8 Q2.85 4.4 3.3 4.2 L6.6 1.85 6.25 1.3 10.05 1.5 13.5 2.15 15.05 2.75" fill="#ffffff" fill-rule="evenodd" stroke="none"/>
      <path d="M-14.4 8.95 L-14.55 9.05 -15.6 10.25 -16.6 8.9 -14.7 7.5 -14.4 8.95 M6.25 1.3 L5.5 0.4 7.5 0.3 Q11.35 0.05 15.15 1.1 L15.05 2.75 13.5 2.15 10.05 1.5 6.25 1.3" fill="#cccccc" fill-rule="evenodd" stroke="none"/>
      <path d="M13.85 19.5 L13.5 19.8 10.25 22.35 Q2.7 27.6 -6.8 29.35 L-15.5 30.65 Q-20.35 31.15 -24.55 33.25 L-25.2 34.55 -25.2 34.65 -22.55 33.75 -24.4 36.35 -24.6 36.6 -24.65 36.85 Q-28.45 37.3 -30.6 34.35 -32.4 31.9 -29.65 30.1 L-26.05 27.9 -25.65 27.75 Q-23.15 26.75 -20.6 26.25 L-19.7 26.1 -11.9 25.85 Q-10.25 25.75 -9.35 24.9 L-16.65 24.5 Q-12.65 21.6 -9.9 17.6 -9.15 16.45 -9.2 15.3 -9.35 15.15 -9.6 15.1 L-9.95 15.1 -10.6 16.2 -10.65 15.75 -10.45 15.15 -10.65 15.0 -10.45 14.15 -9.7 13.65 -9.4 13.5 -9.3 13.35 -9.25 13.35 Q-4.15 10.05 2.05 10.75 L3.1 11.45 Q4.85 12.9 7.2 12.95 L9.1 12.9 11.75 12.3 Q13.6 11.5 15.05 12.7 L15.45 13.25 Q16.3 15.1 15.25 17.1 L13.8 19.45 13.85 19.5 M-19.05 39.3 L-20.6 40.5 Q-21.05 40.9 -21.8 40.85 L-22.25 40.75 -22.45 40.55 -22.75 40.3 -22.95 40.2 Q-24.05 38.6 -23.1 36.85 L-23.05 36.7 -21.0 34.25 Q-21.7 35.75 -21.0 37.3 L-20.3 38.4 -19.05 39.3" fill="#f07942" fill-rule="evenodd" stroke="none"/>
      <path d="M2.05 10.75 L3.4 10.9 5.3 11.1 5.3 11.15 5.5 11.15 Q13.75 11.65 19.05 4.75 21.4 1.65 25.05 0.35 L25.2 0.4 25.35 0.45 25.5 0.5 28.95 0.3 Q30.0 0.65 30.9 1.3 L31.0 1.55 Q31.0 2.0 31.3 2.3 L31.4 2.55 Q31.5 4.2 30.75 5.65 L30.45 6.7 30.5 6.85 30.5 6.9 Q24.85 20.65 11.25 28.35 3.2 32.85 -6.05 34.1 -13.25 35.1 -19.05 39.3 L-20.3 38.4 -21.0 37.3 Q-21.7 35.75 -21.0 34.25 L-19.3 32.8 -17.75 32.35 Q-12.15 30.9 -6.4 30.15 L-2.25 29.35 Q10.35 26.3 18.85 16.35 22.4 12.25 22.65 6.95 L23.05 6.35 25.4 6.3 26.4 6.25 26.55 6.1 26.8 5.5 26.8 5.4 Q24.85 4.15 22.6 4.9 21.25 5.3 20.25 6.05 18.1 7.5 18.3 9.9 L18.35 10.05 18.55 10.1 18.65 10.15 18.75 10.15 18.9 10.0 Q19.8 7.8 21.45 6.9 20.8 8.2 20.7 9.8 20.4 12.55 18.65 14.65 L13.85 19.5 13.8 19.45 15.25 17.1 Q16.3 15.1 15.45 13.25 L15.05 12.7 Q13.6 11.5 11.75 12.3 L9.1 12.9 7.2 12.95 Q4.85 12.9 3.1 11.45 L2.05 10.75" fill="#e05512" fill-rule="evenodd" stroke="none"/>
      <path d="M9.25 -32.7 L11.9 -31.85 Q20.2 -28.0 24.65 -19.95 L26.25 -16.0 Q28.45 -8.55 26.7 -1.05 23.25 -0.9 20.45 1.85 L15.05 6.9 15.7 5.65 15.95 5.05 19.35 -0.05 Q20.15 -1.5 20.5 -3.15 L21.0 -4.85 21.65 -7.45 21.85 -11.2 21.65 -13.1 21.45 -14.8 Q21.3 -17.15 20.3 -19.25 17.6 -24.8 13.0 -29.15 L11.4 -30.85 Q10.45 -31.95 9.25 -32.7" fill="#43a752" fill-rule="evenodd" stroke="none"/>
    </g>
  </defs>
</svg>
