<?xml version="1.0" encoding="UTF-8" standalone="no"?>
<svg xmlns:xlink="http://www.w3.org/1999/xlink" height="14.9px" width="15.4px" xmlns="http://www.w3.org/2000/svg">
  <g transform="matrix(1.0, 0.0, 0.0, 1.0, 7.7, 7.25)">
    <use height="7.5" transform="matrix(-0.9953, -0.0128, 0.0128, -0.9953, 6.7698, 7.6705)" width="13.8" xlink:href="#shape0"/>
  </g>
  <defs>
    <g id="shape0" transform="matrix(1.0, 0.0, 0.0, 1.0, 6.9, 3.75)">
      <path d="M1.7 -3.55 Q2.5 -3.45 3.6 -2.8 L5.7 -0.8 5.9 -0.6 Q6.45 0.3 6.7 1.5 L6.75 1.65 6.9 3.65 6.75 2.75 6.75 2.6 5.9 0.55 5.7 0.35 3.6 -1.65 1.85 -2.4 1.4 -2.45 0.0 -2.6 -1.25 -2.5 -1.65 -2.4 Q-4.05 -1.8 -5.45 0.15 L-5.6 0.35 -5.9 0.8 -5.95 0.85 -6.0 0.95 -6.0 1.0 -6.15 1.3 -6.6 2.3 -6.65 2.4 -6.8 3.25 -6.8 3.3 -6.85 3.75 -6.8 2.15 -6.8 2.1 -6.65 1.3 -6.6 1.15 -6.2 0.2 -6.05 -0.15 -6.0 -0.2 -5.95 -0.25 -5.9 -0.35 -5.65 -0.8 -5.5 -0.95 Q-4.05 -2.95 -1.6 -3.55 L-1.0 -3.7 0.15 -3.75 1.7 -3.55" fill="#3366cc" fill-rule="evenodd" stroke="none"/>
    </g>
  </defs>
</svg>
