<?xml version="1.0" encoding="UTF-8" standalone="no"?>
<svg xmlns:xlink="http://www.w3.org/1999/xlink" height="22.75px" width="211.5px" xmlns="http://www.w3.org/2000/svg">
  <g transform="matrix(1.0, 0.0, 0.0, 1.0, -0.35, -9.0)">
    <use height="36.4" transform="matrix(0.5859, 0.0, 0.0, 0.5859, 0.3516, 9.6387)" width="41.05" xlink:href="#shape0"/>
    <use height="36.75" transform="matrix(0.5859, 0.0, 0.0, 0.5859, 26.043, 10.2246)" width="46.25" xlink:href="#shape1"/>
    <use height="35.1" transform="matrix(0.5859, 0.0, 0.0, 0.5859, 54.9773, 9.7266)" width="46.5" xlink:href="#shape2"/>
    <use height="36.0" transform="matrix(0.5859, 0.0, 0.0, 0.5859, 84.3859, 9.4922)" width="32.85" xlink:href="#shape3"/>
    <use height="35.7" transform="matrix(0.5859, 0.0, 0.0, 0.5859, 114.8566, 9.9316)" width="42.15" xlink:href="#shape4"/>
    <use height="34.8" transform="matrix(0.5859, 0.0, 0.0, 0.5859, 141.2758, 9.8145)" width="45.0" xlink:href="#shape5"/>
    <use height="36.0" transform="matrix(0.5859, 0.0, 0.0, 0.5859, 169.4359, 9.4922)" width="32.85" xlink:href="#shape3"/>
    <use height="37.7" transform="matrix(0.5859, 0.0, 0.0, 0.5859, 190.7152, 9.0234)" width="36.05" xlink:href="#shape6"/>
  </g>
  <defs>
    <g id="shape0" transform="matrix(1.0, 0.0, 0.0, 1.0, -0.6, 34.75)">
      <path d="M21.1 -34.75 Q25.85 -34.75 29.85 -33.3 33.85 -31.9 36.7 -29.35 39.6 -26.8 41.0 -23.5 L33.3 -20.95 27.8 -19.0 25.65 -18.2 Q24.7 -19.75 23.0 -20.4 L19.5 -20.6 Q17.7 -20.2 16.45 -18.65 15.2 -17.1 15.2 -14.35 15.25 -12.05 16.4 -10.55 17.55 -9.05 19.45 -8.9 L21.45 -9.2 Q22.4 -9.6 23.0 -10.45 L21.15 -10.7 19.55 -10.85 18.85 -10.9 18.75 -13.4 18.8 -15.45 18.85 -16.3 24.5 -16.5 31.8 -16.65 41.65 -16.8 Q41.5 -12.25 39.8 -8.8 38.1 -5.35 35.2 -3.05 32.3 -0.7 28.5 0.5 24.75 1.65 20.45 1.65 14.65 1.65 10.2 -0.45 5.75 -2.5 3.2 -6.5 0.65 -10.45 0.6 -16.15 0.65 -20.55 2.35 -24.0 4.05 -27.4 6.9 -29.8 9.8 -32.2 13.45 -33.45 17.1 -34.7 21.1 -34.75" fill="#ffd026" fill-rule="evenodd" stroke="none"/>
    </g>
    <g id="shape1" transform="matrix(1.0, 0.0, 0.0, 1.0, -0.5, 33.75)">
      <path d="M25.4 -13.2 L24.45 -16.6 23.4 -20.1 22.45 -16.5 21.4 -12.7 23.55 -12.95 25.4 -13.2 M33.0 -33.75 L36.05 -27.15 39.8 -19.05 43.55 -10.4 46.75 -2.3 Q43.5 -1.1 39.4 -0.05 L29.8 2.15 28.6 -2.1 27.45 -6.05 22.85 -5.25 19.3 -4.65 18.3 -0.95 17.25 3.0 11.25 1.6 5.85 0.1 2.0 -1.1 0.5 -1.65 3.5 -8.15 7.35 -16.35 11.55 -25.1 15.65 -33.3 21.65 -33.6 27.25 -33.7 31.35 -33.75 33.0 -33.75" fill="#ffd026" fill-rule="evenodd" stroke="none"/>
    </g>
    <g id="shape2" transform="matrix(1.0, 0.0, 0.0, 1.0, -0.9, 34.6)">
      <path d="M35.15 -33.35 L40.2 -33.8 45.7 -34.15 46.35 -22.65 46.9 -11.2 47.4 -0.3 45.9 -0.2 42.1 0.0 36.85 0.25 30.95 0.5 30.8 -5.25 30.65 -11.15 29.5 -10.0 26.8 -7.35 23.5 -4.3 20.75 -7.95 18.65 -10.95 17.8 -12.15 17.15 -5.8 16.55 0.45 15.1 0.25 11.4 -0.2 6.35 -0.9 0.9 -1.65 Q1.55 -10.3 2.55 -18.55 L4.5 -34.6 6.05 -34.45 9.9 -34.1 14.8 -33.55 19.6 -32.85 20.3 -31.2 22.05 -27.1 24.2 -21.8 27.1 -27.0 29.2 -31.15 30.05 -32.85 31.45 -33.0 35.15 -33.35" fill="#ffd026" fill-rule="evenodd" stroke="none"/>
    </g>
    <g id="shape3" transform="matrix(1.0, 0.0, 0.0, 1.0, -1.0, 35.0)">
      <path d="M22.15 -34.85 L32.55 -35.0 32.5 -33.75 32.4 -30.55 32.2 -26.25 31.85 -21.8 30.2 -21.9 26.0 -22.2 20.65 -22.6 15.4 -23.1 15.4 -21.65 15.45 -20.25 16.75 -20.15 19.85 -19.95 23.45 -19.7 23.55 -18.85 23.7 -16.75 23.95 -14.05 19.3 -13.1 15.65 -12.45 15.7 -11.6 15.8 -10.15 17.2 -10.25 20.85 -10.55 26.15 -11.1 32.2 -11.75 32.5 -10.0 33.15 -5.5 33.85 0.4 22.35 0.75 11.35 0.9 1.65 1.0 1.4 -9.2 1.15 -21.25 1.0 -33.85 11.95 -34.55 22.15 -34.85" fill="#ffd026" fill-rule="evenodd" stroke="none"/>
    </g>
    <g id="shape4" transform="matrix(1.0, 0.0, 0.0, 1.0, -0.95, 34.25)">
      <path d="M18.95 -18.3 Q17.4 -17.1 17.35 -15.35 17.4 -13.55 18.95 -12.35 20.45 -11.2 22.75 -11.15 25.0 -11.2 26.55 -12.35 28.05 -13.55 28.1 -15.35 28.05 -17.1 26.55 -18.3 25.0 -19.5 22.75 -19.55 20.45 -19.5 18.95 -18.3 M32.95 -31.85 Q37.5 -29.5 40.15 -25.55 42.75 -21.6 43.05 -16.65 43.25 -13.15 41.95 -9.9 40.65 -6.65 37.9 -4.1 35.15 -1.55 31.1 -0.05 27.05 1.45 21.7 1.45 17.4 1.45 13.65 0.3 9.9 -0.9 7.05 -3.15 4.15 -5.45 2.55 -8.75 0.95 -12.1 0.95 -16.4 1.0 -20.8 2.85 -24.1 4.7 -27.45 7.75 -29.7 10.85 -31.95 14.6 -33.1 18.4 -34.25 22.4 -34.25 28.45 -34.2 32.95 -31.85" fill="#ffd026" fill-rule="evenodd" stroke="none"/>
    </g>
    <g id="shape5" transform="matrix(1.0, 0.0, 0.0, 1.0, -0.3, 34.45)">
      <path d="M33.65 -33.7 L39.0 -33.95 45.3 -34.25 41.45 -24.4 38.2 -16.4 35.15 -9.25 31.75 -1.7 26.8 -0.85 22.1 -0.2 18.55 0.2 17.15 0.35 13.0 -7.15 9.25 -14.15 5.2 -21.75 0.3 -31.2 5.5 -32.45 10.45 -33.5 14.15 -34.15 15.65 -34.45 19.7 -26.45 23.2 -19.15 25.8 -26.25 28.6 -33.4 29.95 -33.5 33.65 -33.7" fill="#ffd026" fill-rule="evenodd" stroke="none"/>
    </g>
    <g id="shape6" transform="matrix(1.0, 0.0, 0.0, 1.0, -1.05, 35.8)">
      <path d="M14.8 -18.2 Q17.95 -18.35 19.5 -19.35 21.0 -20.3 21.0 -21.45 20.95 -22.6 19.35 -23.3 L14.55 -23.5 14.65 -20.75 14.8 -18.2 M27.4 -34.05 Q30.4 -32.8 32.35 -30.4 34.35 -28.0 34.75 -24.15 34.9 -22.6 34.4 -20.7 33.95 -18.8 32.65 -16.8 31.4 -14.8 29.1 -13.0 L33.0 -8.55 35.95 -4.95 37.1 -3.5 29.9 -0.9 24.8 1.1 22.85 1.9 19.85 -1.85 17.2 -5.45 15.35 -8.05 15.6 -3.6 15.85 0.1 15.95 1.65 10.6 1.5 5.9 1.3 2.6 1.15 1.35 1.1 Q1.15 -4.15 1.1 -10.0 L1.05 -21.8 1.05 -33.3 6.6 -34.7 13.5 -35.65 Q17.15 -35.95 20.75 -35.6 24.35 -35.25 27.4 -34.05" fill="#ffd026" fill-rule="evenodd" stroke="none"/>
    </g>
  </defs>
</svg>
