<?xml version="1.0" encoding="UTF-8" standalone="no"?>
<svg xmlns:xlink="http://www.w3.org/1999/xlink" height="115.35px" width="48.05px" xmlns="http://www.w3.org/2000/svg">
  <g transform="matrix(1.0, 0.0, 0.0, 1.0, 24.0, 60.5)">
    <use height="115.35" transform="matrix(1.0, 0.0, 0.0, 1.0, -18.75, -60.5)" width="38.7" xlink:href="#shape0"/>
  </g>
  <defs>
    <g id="shape0" transform="matrix(1.0, 0.0, 0.0, 1.0, 18.75, 60.5)">
      <path d="M-13.8 24.05 L-13.6 24.0 Q-15.0 19.7 -15.7 15.25 -16.45 10.65 -16.55 6.0 L-16.8 1.5 -17.05 -2.75 -16.9 -7.0 -16.75 -9.25 Q-16.5 -13.85 -15.6 -18.25 L-15.0 -22.0 -14.7 -22.95 Q-14.35 -23.6 -14.3 -24.25 L-13.65 -27.05 Q-12.8 -29.2 -12.25 -31.5 L-11.75 -33.2 -10.1 -38.0 Q-8.7 -42.55 -6.35 -46.55 L-3.75 -50.75 -1.55 -54.05 Q-0.25 -55.85 1.4 -57.3 L2.2 -58.0 2.4 -57.95 2.9 -57.2 3.0 -56.75 2.75 -53.5 Q2.4 -48.75 2.45 -43.75 L2.6 -41.0 2.65 -40.25 Q2.7 -37.7 3.05 -35.25 L3.85 -30.25 4.7 -26.75 6.35 -21.4 6.4 -21.4 6.55 -20.95 6.65 -20.55 6.7 -20.25 8.0 -15.9 Q9.75 -10.7 12.0 -5.85 18.3 7.75 19.7 22.5 21.2 38.15 12.9 50.9 L14.75 52.25 14.65 52.65 14.55 52.95 11.9 52.4 10.05 54.8 Q9.4 54.95 9.05 54.45 L10.35 51.9 Q7.15 50.7 4.15 48.5 -7.55 39.95 -13.0 26.2 L-13.3 25.35 -13.8 24.05" fill="#000000" fill-rule="evenodd" stroke="none"/>
      <path d="M-13.8 24.05 Q-18.65 10.65 -18.75 -3.5 -18.85 -18.45 -13.9 -32.4 L-8.6 -46.8 Q-5.45 -55.0 1.5 -59.75 L2.1 -59.95 2.4 -60.15 3.1 -60.45 3.8 -60.35 4.05 -60.25 4.45 -59.2 4.5 -59.15 4.65 -58.6 4.9 -57.45 Q5.1 -51.15 4.75 -44.65 L5.05 -42.55 5.0 -42.1 Q4.9 -37.3 5.15 -32.5 L5.75 -25.9 6.4 -21.4 6.35 -21.4 4.7 -26.75 3.85 -30.25 3.05 -35.25 Q2.7 -37.7 2.65 -40.25 L2.6 -41.0 2.45 -43.75 Q2.4 -48.75 2.75 -53.5 L3.0 -56.75 2.9 -57.2 2.4 -57.95 2.2 -58.0 1.4 -57.3 Q-0.25 -55.85 -1.55 -54.05 L-3.75 -50.75 -6.35 -46.55 Q-8.7 -42.55 -10.1 -38.0 L-11.75 -33.2 -12.25 -31.5 Q-12.8 -29.2 -13.65 -27.05 L-14.3 -24.25 Q-14.35 -23.6 -14.7 -22.95 L-15.0 -22.0 -15.6 -18.25 Q-16.5 -13.85 -16.75 -9.25 L-16.9 -7.0 -17.05 -2.75 -16.8 1.5 -16.55 6.0 Q-16.45 10.65 -15.7 15.25 -15.0 19.7 -13.6 24.0 L-13.8 24.05" fill="#666666" fill-rule="evenodd" stroke="none"/>
    </g>
  </defs>
</svg>
