<?xml version="1.0" encoding="UTF-8" standalone="no"?>
<svg xmlns:xlink="http://www.w3.org/1999/xlink" height="9.85px" width="17.05px" xmlns="http://www.w3.org/2000/svg">
  <g transform="matrix(1.0, 0.0, 0.0, 1.0, 8.5, 4.9)">
    <use height="9.85" transform="matrix(1.0, 0.0, 0.0, 1.0, -8.5, -4.9)" width="17.05" xlink:href="#shape0"/>
  </g>
  <defs>
    <g id="shape0" transform="matrix(1.0, 0.0, 0.0, 1.0, 8.5, 4.9)">
      <path d="M-6.95 -4.65 L-6.85 -4.8 -6.7 -4.65 -6.65 -4.6 -6.55 -4.5 -6.45 -4.45 Q-4.4 -2.9 -1.9 -1.9 L-1.1 -2.8 -0.95 -2.7 Q1.75 -1.5 4.5 -0.45 5.3 -0.15 5.95 0.35 L7.75 1.65 Q8.5 2.35 8.55 3.35 8.4 4.35 7.4 4.75 L5.7 4.95 5.55 4.95 5.45 4.9 Q2.8 3.75 -0.05 2.95 L-2.8 2.05 -3.0 2.05 -3.05 2.0 -3.1 1.95 -2.9 0.2 Q-5.65 -0.65 -7.95 -2.35 L-8.35 -2.85 -8.3 -2.9 -8.2 -2.95 -7.8 -2.65 Q-5.55 -1.1 -2.95 -0.25 L-2.8 -0.15 -2.1 -1.6 -2.15 -1.65 Q-4.65 -2.6 -6.75 -4.2 -7.05 -4.45 -6.95 -4.65 M7.25 1.7 L5.8 0.7 5.6 0.55 5.55 0.5 -0.2 -1.9 -1.15 -2.4 Q-2.6 -0.55 -2.7 1.8 L2.85 3.5 5.65 4.5 Q6.9 4.75 7.95 3.95 8.5 2.65 7.25 1.7" fill="#000000" fill-rule="evenodd" stroke="none"/>
      <path d="M7.25 1.7 Q8.5 2.65 7.95 3.95 6.9 4.75 5.65 4.5 L2.85 3.5 -2.7 1.8 Q-2.6 -0.55 -1.15 -2.4 L-0.2 -1.9 5.55 0.5 5.6 0.55 5.8 0.7 7.25 1.7" fill="url(#gradient0)" fill-rule="evenodd" stroke="none"/>
      <path d="M-8.3 -2.9 L-8.5 -3.45 Q-8.6 -4.1 -8.15 -4.5 L-8.0 -4.6 Q-7.8 -4.9 -7.4 -4.9 L-7.3 -4.9 -6.95 -4.65 Q-7.05 -4.45 -6.75 -4.2 -4.65 -2.6 -2.15 -1.65 L-2.1 -1.6 -2.8 -0.15 -2.95 -0.25 Q-5.55 -1.1 -7.8 -2.65 L-8.2 -2.95 -8.3 -2.9" fill="url(#gradient1)" fill-rule="evenodd" stroke="none"/>
    </g>
    <linearGradient gradientTransform="matrix(-0.0019, 0.0063, -0.0041, -0.0012, 1.6, 3.3)" gradientUnits="userSpaceOnUse" id="gradient0" spreadMethod="pad" x1="-819.2" x2="819.2">
      <stop offset="0.0" stop-color="#ffd485"/>
      <stop offset="1.0" stop-color="#000000"/>
    </linearGradient>
    <linearGradient gradientTransform="matrix(-3.0E-4, 0.0039, -0.0029, -2.0E-4, -5.65, -1.5)" gradientUnits="userSpaceOnUse" id="gradient1" spreadMethod="pad" x1="-819.2" x2="819.2">
      <stop offset="0.0" stop-color="#236fdd"/>
      <stop offset="1.0" stop-color="#000000"/>
    </linearGradient>
  </defs>
</svg>
