<?xml version="1.0" encoding="UTF-8" standalone="no"?>
<svg xmlns:xlink="http://www.w3.org/1999/xlink" height="15.9px" width="64.4px" xmlns="http://www.w3.org/2000/svg">
  <g transform="matrix(1.0, 0.0, 0.0, 1.0, 32.2, 8.6)">
    <use height="15.9" transform="matrix(1.0, 0.0, 0.0, 1.0, -32.2, -8.6)" width="64.4" xlink:href="#shape0"/>
  </g>
  <defs>
    <g id="shape0" transform="matrix(1.0, 0.0, 0.0, 1.0, 32.2, 8.6)">
      <path d="M-4.75 -6.65 L-6.2 -6.65 -6.2 -8.35 -4.75 -8.35 -4.75 -6.65 M-6.2 -5.0 L-4.75 -5.0 -4.75 3.8 -6.2 3.8 -6.2 -5.0 M-10.55 -5.3 Q-12.9 -7.95 -16.75 -6.95 L-16.75 2.35 -14.15 2.5 Q-11.9 2.6 -10.85 0.75 -9.25 -2.2 -10.55 -5.3 M-18.35 -8.35 L-11.8 -8.05 Q-10.95 -7.85 -10.2 -7.3 -8.1 -4.9 -8.25 -1.7 -8.4 1.75 -11.25 3.05 -14.2 4.3 -17.35 3.95 L-18.35 3.8 -18.35 -8.35 M-20.7 -2.3 Q-20.7 -4.5 -22.2 -6.0 -23.75 -7.55 -25.9 -7.55 -28.1 -7.55 -29.6 -6.0 -31.15 -4.5 -31.15 -2.3 -31.15 -0.15 -29.6 1.4 -28.1 2.9 -25.9 2.9 -23.75 2.9 -22.2 1.4 -20.7 -0.15 -20.7 -2.3 M-26.0 -4.6 Q-28.95 -3.8 -27.1 -1.1 -25.4 1.5 -23.9 -1.3 L-22.9 -1.0 Q-24.05 2.0 -27.0 0.65 -30.15 -0.8 -28.75 -4.2 L-27.9 -5.1 Q-24.7 -7.0 -23.0 -3.85 L-24.05 -3.8 Q-24.7 -5.0 -26.0 -4.6 M-30.35 -6.75 Q-28.5 -8.6 -25.9 -8.6 -23.3 -8.6 -21.45 -6.75 -19.65 -4.9 -19.65 -2.3 -19.65 0.3 -21.45 2.15 -23.3 3.95 -25.9 3.95 -28.5 3.95 -30.35 2.15 -32.2 0.3 -32.2 -2.3 -32.2 -4.9 -30.35 -6.75 M22.05 -4.0 L22.75 -2.95 Q23.25 -1.65 23.15 -0.25 L16.6 -0.05 Q16.65 1.6 18.1 2.3 20.55 3.45 21.55 0.95 L23.1 1.15 Q22.6 3.05 20.75 3.7 17.3 4.75 15.75 1.65 14.2 -1.45 16.65 -3.8 19.25 -6.35 22.05 -4.0 M21.55 -1.45 Q21.5 -2.25 20.95 -2.75 17.85 -5.45 16.65 -1.45 L21.55 -1.45 M24.1 -5.0 L25.75 -5.0 28.2 2.15 30.7 -5.0 32.2 -5.0 28.85 3.95 28.75 4.3 Q28.0 7.75 24.9 7.2 L24.75 5.8 25.0 5.9 25.25 5.95 Q26.9 6.1 27.3 4.45 L27.45 3.95 24.1 -5.0 M6.05 -5.0 L7.4 -5.0 7.4 -3.75 Q8.95 -5.3 11.05 -4.7 13.25 -4.05 13.25 -1.6 L13.25 3.8 11.75 3.8 Q13.75 -2.2 9.25 -3.05 8.25 -3.25 7.85 -2.0 6.95 0.75 7.55 3.8 L6.05 3.8 6.05 -5.0 M2.5 -2.7 Q1.7 -4.45 0.15 -3.3 -2.25 -1.5 2.4 -0.2 5.65 0.7 2.75 2.7 -1.25 5.45 -3.05 1.15 L-1.55 0.95 Q-1.15 2.8 0.75 2.85 2.55 2.85 2.1 1.45 1.5 -0.3 -0.6 -1.05 -4.5 -2.45 -0.75 -4.35 2.75 -6.15 3.95 -2.75 L2.5 -2.7" fill="#ff6600" fill-rule="evenodd" stroke="none"/>
    </g>
  </defs>
</svg>
