<?xml version="1.0" encoding="UTF-8" standalone="no"?>
<svg xmlns:xlink="http://www.w3.org/1999/xlink" height="43.3px" width="163.2px" xmlns="http://www.w3.org/2000/svg">
  <g transform="matrix(1.0, 0.0, 0.0, 1.0, 0.0, 0.0)">
    <use height="27.4" transform="matrix(0.8, 0.0, 0.0, 0.8, 2.15, 1.9)" width="198.6" xlink:href="#shape0"/>
  </g>
  <defs>
    <g id="shape0" transform="matrix(1.0, 0.0, 0.0, 1.0, 0.0, 0.0)">
      <path d="M188.3 15.8 L182.2 9.45 175.4 19.55 171.05 16.15 174.35 11.2 Q176.25 8.4 178.1 6.3 180.0 4.2 182.2 3.95 184.55 3.7 186.9 6.15 L198.6 19.65 194.5 23.65 Q190.65 18.35 188.3 15.8 M164.5 4.9 L151.6 6.15 151.05 11.55 162.05 11.1 161.95 15.55 156.65 16.0 150.9 16.95 150.9 24.55 145.05 24.7 145.55 14.0 Q145.9 9.45 146.8 1.0 L164.85 0.3 164.5 4.9 M132.85 5.95 L123.4 6.5 122.9 9.55 Q127.15 9.1 129.25 9.45 132.75 10.15 134.4 13.1 135.7 15.3 135.2 18.1 134.85 20.35 133.45 22.2 131.35 25.05 127.6 26.2 125.15 27.05 118.55 27.25 L115.9 27.4 114.6 21.4 120.35 21.15 Q123.85 20.7 125.6 19.3 127.0 18.1 127.15 16.6 127.25 15.1 125.95 14.25 124.65 13.45 121.95 13.8 L117.5 14.6 Q115.3 15.1 115.65 12.95 L117.75 0.9 133.35 0.2 132.85 5.95 M102.15 7.7 Q96.9 6.3 94.2 5.8 L86.25 4.65 87.4 0.2 Q96.9 1.6 103.55 3.6 L102.15 7.7 M108.05 18.35 Q107.65 20.6 105.9 22.7 104.65 24.35 100.75 26.8 L97.85 22.8 Q100.05 21.5 100.9 20.8 102.3 19.65 102.65 18.35 103.0 17.2 102.3 16.0 101.7 15.1 100.55 14.5 98.3 13.55 94.1 14.85 91.25 15.65 89.5 16.6 L85.65 18.6 Q84.0 19.4 83.05 18.45 82.5 17.9 82.6 16.35 82.7 14.0 83.3 11.9 L85.05 6.15 90.2 7.0 89.05 11.35 Q93.05 10.15 95.6 9.9 102.4 9.2 105.35 11.45 108.75 14.0 108.05 18.35 M76.5 5.25 L77.65 10.95 78.5 18.7 73.7 19.3 73.0 12.25 71.95 5.95 76.5 5.25 M61.05 9.55 L56.8 26.8 51.9 25.25 56.1 10.25 51.8 10.85 51.8 6.15 57.5 5.45 58.9 0.55 63.25 1.0 62.1 5.25 66.4 5.0 Q68.3 4.9 69.6 6.05 71.0 7.35 71.0 10.25 L71.1 19.75 Q71.25 26.8 66.05 26.8 L61.05 26.8 60.35 22.2 66.2 22.1 65.85 9.2 61.05 9.55 M44.5 4.9 L31.6 6.15 31.05 11.55 42.05 11.1 41.95 15.55 36.65 16.0 30.9 16.95 30.9 24.55 25.05 24.7 25.55 14.0 Q25.9 9.45 26.8 1.0 L44.85 0.3 44.5 4.9 M10.55 4.9 L9.7 10.85 Q8.9 17.05 8.2 26.55 L0.9 27.25 3.5 7.7 0.0 8.5 0.9 0.8 6.4 0.1 Q9.7 -0.4 10.4 1.7 10.75 2.65 10.55 4.9" fill="url(#gradient0)" fill-rule="evenodd" stroke="none"/>
    </g>
    <linearGradient gradientTransform="matrix(0.0, -0.0123, 0.0167, 0.0, 99.3, 13.7)" gradientUnits="userSpaceOnUse" id="gradient0" spreadMethod="pad" x1="-819.2" x2="819.2">
      <stop offset="0.0" stop-color="#5fad40"/>
      <stop offset="1.0" stop-color="#91ee5f"/>
      <stop offset="1.0" stop-color="#88ec45"/>
    </linearGradient>
  </defs>
</svg>
