<?xml version="1.0" encoding="UTF-8" standalone="no"?>
<svg xmlns:xlink="http://www.w3.org/1999/xlink" height="43.3px" width="163.2px" xmlns="http://www.w3.org/2000/svg">
  <g transform="matrix(1.0, 0.0, 0.0, 1.0, 0.0, 0.0)">
    <use height="27.4" transform="matrix(0.8, 0.0, 0.0, 0.8, 0.0, 4.25)" width="204.0" xlink:href="#shape0"/>
  </g>
  <defs>
    <g id="shape0" transform="matrix(1.0, 0.0, 0.0, 1.0, 0.0, 0.0)">
      <path d="M187.6 3.95 Q189.95 3.7 192.3 6.15 L204.0 19.65 199.9 23.65 Q196.05 18.35 193.7 15.8 L187.6 9.45 180.8 19.55 176.45 16.15 179.75 11.2 Q181.65 8.4 183.5 6.3 185.4 4.2 187.6 3.95 M169.9 4.9 L157.0 6.15 156.45 11.55 167.45 11.1 167.35 15.55 162.05 16.0 156.3 16.95 156.3 24.55 150.45 24.7 150.95 14.0 Q151.3 9.45 152.2 1.0 L170.25 0.3 169.9 4.9 M135.1 10.85 Q134.3 17.05 133.6 26.55 L126.3 27.25 128.9 7.7 125.4 8.5 126.3 0.8 131.8 0.1 Q135.1 -0.4 135.8 1.7 136.15 2.65 135.95 4.9 L135.1 10.85 M107.55 7.7 L99.6 5.8 91.65 4.65 92.8 0.2 Q102.3 1.6 108.95 3.6 L107.55 7.7 M105.95 14.5 Q103.7 13.55 99.5 14.85 96.65 15.65 94.9 16.6 L91.05 18.6 88.45 18.45 Q87.9 17.9 88.0 16.35 88.1 14.0 88.7 11.9 L90.45 6.15 95.6 7.0 94.45 11.35 Q98.45 10.15 101.0 9.9 107.8 9.2 110.75 11.45 114.15 14.0 113.45 18.35 113.05 20.6 111.3 22.7 110.05 24.35 106.15 26.8 L103.25 22.8 106.3 20.8 Q107.7 19.65 108.05 18.35 108.4 17.2 107.7 16.0 107.1 15.1 105.95 14.5 M83.05 10.95 L83.9 18.7 79.1 19.3 78.4 12.25 77.35 5.95 81.9 5.25 83.05 10.95 M75.0 6.05 Q76.4 7.35 76.4 10.25 L76.5 19.75 Q76.65 26.8 71.45 26.8 L66.45 26.8 65.75 22.2 71.6 22.1 71.25 9.2 66.45 9.55 62.2 26.8 57.3 25.25 61.5 10.25 57.2 10.85 57.2 6.15 62.9 5.45 64.3 0.55 68.65 1.0 67.5 5.25 71.8 5.0 Q73.7 4.9 75.0 6.05 M47.35 15.55 L42.05 16.0 36.3 16.95 36.3 24.55 30.45 24.7 30.95 14.0 Q31.3 9.45 32.2 1.0 L50.25 0.3 49.9 4.9 37.0 6.15 36.45 11.55 47.45 11.1 47.35 15.55 M18.25 5.95 L8.8 6.5 8.3 9.55 Q12.55 9.1 14.65 9.45 18.15 10.15 19.8 13.1 21.1 15.3 20.6 18.1 20.25 20.35 18.85 22.2 16.75 25.05 13.0 26.2 10.55 27.05 3.95 27.25 L1.3 27.4 0.0 21.4 5.75 21.15 Q9.25 20.7 11.0 19.3 12.4 18.1 12.55 16.6 12.65 15.1 11.35 14.25 10.05 13.45 7.35 13.8 L2.9 14.6 Q0.7 15.1 1.05 12.95 L3.15 0.9 18.75 0.2 18.25 5.95" fill="url(#gradient0)" fill-rule="evenodd" stroke="none"/>
    </g>
    <linearGradient gradientTransform="matrix(0.0, -0.0142, 0.0167, 0.0, 102.0, 13.7)" gradientUnits="userSpaceOnUse" id="gradient0" spreadMethod="pad" x1="-819.2" x2="819.2">
      <stop offset="0.0" stop-color="#a7aa40"/>
      <stop offset="1.0" stop-color="#e9ed5b"/>
      <stop offset="1.0" stop-color="#88ec45"/>
    </linearGradient>
  </defs>
</svg>
