<?xml version="1.0" encoding="UTF-8" standalone="no"?>
<svg xmlns:xlink="http://www.w3.org/1999/xlink" height="43.3px" width="163.2px" xmlns="http://www.w3.org/2000/svg">
  <g transform="matrix(1.0, 0.0, 0.0, 1.0, 0.0, 0.0)">
    <use height="29.1" transform="matrix(0.8, 0.0, 0.0, 0.8, 10.7, 11.85)" width="177.3" xlink:href="#shape0"/>
  </g>
  <defs>
    <g id="shape0" transform="matrix(1.0, 0.0, 0.0, 1.0, 0.0, 0.0)">
      <path d="M177.05 9.05 L177.2 12.0 177.3 24.15 177.05 26.5 Q176.7 27.7 176.0 28.15 L174.15 28.6 171.3 28.75 170.05 24.15 172.95 24.15 173.1 9.75 171.2 9.85 168.85 28.6 164.3 27.8 164.4 26.25 149.5 28.6 149.05 24.65 155.25 23.95 155.25 23.35 151.05 23.95 151.05 20.9 155.25 20.65 155.25 20.2 149.65 20.9 149.4 20.65 150.35 10.0 155.6 9.5 155.6 8.6 148.8 9.15 148.8 5.65 155.75 5.3 155.85 4.1 150.6 4.85 148.8 1.45 163.6 0.0 165.45 3.05 159.7 3.55 159.6 5.2 165.35 5.2 165.35 6.35 167.35 6.25 168.15 0.15 172.6 0.5 171.8 6.0 174.95 6.1 Q175.65 6.25 176.25 6.95 176.95 7.65 177.05 9.05 M164.65 10.55 L164.65 8.25 159.35 8.35 159.35 9.15 161.6 9.05 Q162.75 8.95 163.45 9.5 164.9 10.55 164.75 12.45 L164.5 19.35 162.55 19.35 159.35 19.7 159.35 20.3 163.8 20.2 163.95 21.35 163.8 22.5 159.35 22.85 159.25 23.45 164.4 23.1 164.5 24.5 166.75 10.35 164.65 10.55 M159.35 12.1 L159.35 13.15 161.0 13.15 161.0 12.0 159.35 12.1 M146.0 3.65 L145.55 5.2 143.9 6.95 138.15 12.2 133.1 16.1 129.85 13.15 134.5 9.5 133.35 8.25 131.85 9.4 129.25 6.45 137.0 0.5 140.95 1.55 139.9 2.35 143.1 1.65 Q144.5 1.55 145.3 2.15 146.0 2.7 146.0 3.65 M144.7 14.1 Q146.0 14.1 146.6 14.9 147.65 16.2 146.85 17.95 146.25 19.25 144.7 20.75 L135.45 29.1 131.85 25.45 136.4 22.65 135.1 21.45 132.75 23.7 129.25 20.65 135.6 15.35 141.1 10.2 144.25 12.55 142.5 14.45 144.7 14.1 M159.35 15.5 L159.35 16.9 160.9 16.8 161.0 15.35 159.35 15.5 M155.25 13.4 L155.25 12.35 154.45 12.45 154.35 13.5 155.25 13.4 M154.2 17.15 L155.25 17.0 155.25 15.85 154.2 15.95 154.2 17.15 M137.35 5.4 L136.75 5.9 137.8 6.8 139.9 5.05 137.35 5.4 M130.2 11.75 L127.5 12.0 127.5 12.7 130.65 15.5 129.25 19.85 127.5 18.4 127.5 28.5 122.7 28.4 122.8 21.35 121.3 24.4 118.7 19.7 122.2 12.35 118.8 12.7 118.95 8.7 123.25 8.6 123.4 5.75 120.0 6.7 118.7 2.6 128.9 0.35 131.0 3.4 127.75 4.5 127.6 8.35 130.2 8.35 130.2 11.75 M138.15 18.55 L139.45 19.95 142.4 17.25 138.85 17.95 138.15 18.55 M116.0 22.05 Q116.25 24.15 114.5 25.35 112.85 26.4 110.15 26.5 L101.25 27.0 Q94.9 27.35 92.9 26.85 90.6 26.4 90.0 24.3 89.5 22.75 90.0 21.1 90.6 18.75 91.5 16.65 L95.5 8.0 98.65 1.2 103.6 3.3 99.35 12.35 95.85 21.7 109.35 21.0 105.35 11.4 110.75 9.5 114.5 17.35 Q115.75 20.2 116.0 22.05 M86.95 4.95 L84.5 5.65 82.75 1.3 85.05 0.6 86.95 4.95 M83.65 5.55 L80.75 6.1 79.1 1.55 81.9 0.85 83.65 5.55 M84.95 7.4 Q85.05 9.3 83.45 12.0 L80.5 16.9 83.9 18.9 80.85 22.85 77.7 21.0 72.9 27.7 67.95 25.1 72.9 18.3 67.5 15.6 70.4 11.5 75.6 14.1 79.0 8.8 69.0 10.0 64.35 17.85 59.65 15.35 69.25 0.95 74.4 2.7 73.0 4.35 79.45 3.75 80.4 6.6 84.25 5.9 Q84.95 6.6 84.95 7.4 M56.25 14.8 L35.6 28.05 32.0 23.1 53.65 10.1 56.25 14.8 M24.0 5.9 L13.6 6.1 1.65 7.4 1.85 2.35 11.15 1.8 Q16.85 1.55 24.0 1.55 L24.0 5.9 M30.7 5.3 L33.85 0.95 43.7 6.1 40.4 11.15 30.7 5.3 M23.65 19.0 Q22.0 22.3 18.25 27.8 L13.1 25.7 17.1 19.1 20.15 12.8 10.55 13.75 0.0 15.5 0.25 10.35 Q16.85 8.0 20.15 8.0 26.0 8.0 26.0 12.35 26.0 14.55 23.65 19.0" fill="url(#gradient0)" fill-rule="evenodd" stroke="none"/>
    </g>
    <linearGradient gradientTransform="matrix(0.0, -0.0135, 0.0178, 0.0, 88.65, 14.55)" gradientUnits="userSpaceOnUse" id="gradient0" spreadMethod="pad" x1="-819.2" x2="819.2">
      <stop offset="0.0" stop-color="#b24040"/>
      <stop offset="1.0" stop-color="#ef8f60"/>
      <stop offset="1.0" stop-color="#ed7e48"/>
    </linearGradient>
  </defs>
</svg>
