<?xml version="1.0" encoding="UTF-8" standalone="no"?>
<svg xmlns:xlink="http://www.w3.org/1999/xlink" height="206.4px" width="189.05px" xmlns="http://www.w3.org/2000/svg">
  <g transform="matrix(1.0, 0.0, 0.0, 1.0, 118.4, 92.5)">
    <use height="59.0" transform="matrix(0.8006, 0.0, 0.0, 0.664, -111.4794, 74.6559)" width="196.0" xlink:href="#sprite0"/>
    <use height="34.6" transform="matrix(1.0666, 0.7426, -0.57, 0.8187, -36.9142, 39.1886)" width="14.25" xlink:href="#sprite2"/>
    <use height="28.35" transform="matrix(0.0595, 1.053, -0.9955, 0.0562, -56.9054, 44.5148)" width="46.8" xlink:href="#sprite3"/>
    <use height="25.35" transform="matrix(0.2988, 1.1098, -0.9608, 0.2587, -43.1321, 47.22)" width="21.85" xlink:href="#sprite4"/>
    <use height="34.6" transform="matrix(0.8818, -0.8624, 0.6958, 0.7114, -39.5798, 53.528)" width="14.25" xlink:href="#sprite2"/>
    <use height="60.8" transform="matrix(-0.5847, -0.3567, -0.382, 0.6262, -0.0071, 31.4779)" width="78.75" xlink:href="#shape4"/>
    <use height="31.0" transform="matrix(1.0, 0.0, 0.0, 1.0, 31.9, -23.15)" width="37.1" xlink:href="#sprite5"/>
    <use height="75.8" transform="matrix(-0.0811, 0.5942, 0.5942, 0.0811, 0.2614, -11.1026)" width="24.75" xlink:href="#shape6"/>
    <use height="41.7" transform="matrix(-0.1431, 0.5822, 0.5822, 0.1431, -10.8533, -16.646)" width="38.35" xlink:href="#shape7"/>
    <use height="28.0" transform="matrix(-0.6, 0.0, 0.0, 0.6, 6.5899, -20.9499)" width="21.05" xlink:href="#sprite6"/>
    <use height="95.5" transform="matrix(-0.4982, -0.5222, -0.4333, 0.4134, 25.1171, 13.5904)" width="81.0" xlink:href="#shape9"/>
    <use height="75.8" transform="matrix(-0.0811, 0.5942, 0.5942, 0.0811, 0.4614, -6.1026)" width="24.75" xlink:href="#shape6"/>
    <use height="41.7" transform="matrix(-0.1431, 0.5822, 0.5822, 0.1431, -10.6533, -13.646)" width="38.35" xlink:href="#shape7"/>
    <use height="31.0" transform="matrix(1.0, 0.0, 0.0, 1.0, 33.55, -19.3)" width="37.1" xlink:href="#sprite7"/>
    <use height="28.35" transform="matrix(0.9268, -0.3577, 0.3968, 1.0284, -22.7531, 82.7676)" width="46.8" xlink:href="#sprite3"/>
    <use height="25.35" transform="matrix(0.6291, -1.047, 0.8496, 0.5105, -29.5177, 80.9083)" width="21.85" xlink:href="#sprite4"/>
    <use height="52.9" transform="matrix(1.4537, 0.0, 0.0, 1.4537, -23.8556, -89.8501)" width="61.25" xlink:href="#sprite8"/>
  </g>
  <defs>
    <g id="sprite0" transform="matrix(1.0, 0.0, 0.0, 1.0, 113.2, 27.4)">
      <use height="59.0" transform="matrix(1.0, 0.0, 0.0, 1.0, -113.2, -27.4)" width="196.0" xlink:href="#sprite1"/>
    </g>
    <g id="sprite1" transform="matrix(1.0, 0.0, 0.0, 1.0, 98.0, 29.55)">
      <use height="7.5" transform="matrix(4.0833, 0.0, 0.0, 7.86, -97.9999, -29.525)" width="48.0" xlink:href="#shape0"/>
    </g>
    <g id="shape0" transform="matrix(1.0, 0.0, 0.0, 1.0, 24.0, 3.75)">
      <path d="M24.0 0.0 Q24.0 1.55 16.95 2.65 L0.0 3.75 -17.0 2.65 Q-24.0 1.55 -24.0 0.0 -24.0 -1.55 -17.0 -2.65 L0.0 -3.75 16.95 -2.65 Q24.0 -1.55 24.0 0.0" fill="#000000" fill-opacity="0.28627452" fill-rule="evenodd" stroke="none"/>
    </g>
    <g id="sprite2" transform="matrix(1.0, 0.0, 0.0, 1.0, 7.1, 14.4)">
      <use height="34.6" transform="matrix(1.0, 0.0, 0.0, 1.0, -7.1, -14.4)" width="14.25" xlink:href="#shape1"/>
    </g>
    <g id="shape1" transform="matrix(1.0, 0.0, 0.0, 1.0, 7.1, 14.4)">
      <path d="M3.35 13.8 L3.45 13.45 Q4.1 11.2 4.9 9.4 L5.7 2.3 5.8 -0.95 Q5.5 -6.05 3.4 -10.6 L2.75 -11.45 2.1 -12.2 Q0.1 -13.35 -1.85 -12.85 -4.05 -10.6 -4.4 -7.2 L-5.65 7.45 -6.05 9.9 -6.2 10.25 -6.7 10.6 -7.0 10.45 -7.1 10.35 -6.1 -2.95 -5.35 -8.75 Q-4.95 -10.85 -3.8 -12.25 L-3.9 -12.4 Q-2.55 -14.4 -0.05 -14.4 4.45 -13.2 5.75 -8.7 7.8 -1.5 6.9 5.95 L6.3 9.6 6.15 11.4 6.05 11.6 Q5.4 18.45 -1.3 20.1 -3.3 20.6 -4.35 19.1 -4.2 18.35 -3.35 18.35 1.7 18.85 3.35 13.8" fill="#000000" fill-rule="evenodd" stroke="none"/>
      <path d="M-6.2 10.25 L-6.05 9.9 -5.65 7.45 -4.4 -7.2 Q-4.05 -10.6 -1.85 -12.85 0.1 -13.35 2.1 -12.2 L2.75 -11.45 3.4 -10.6 Q5.5 -6.05 5.8 -0.95 L5.7 2.3 4.9 9.4 Q4.1 11.2 3.45 13.45 L3.35 13.8 3.2 13.8 2.5 14.05 1.7 14.1 -0.55 13.75 -3.5 12.8 -4.65 12.15 Q-5.8 11.35 -6.2 10.25" fill="#55bb65" fill-rule="evenodd" stroke="none"/>
    </g>
    <g id="sprite3" transform="matrix(1.0, 0.0, 0.0, 1.0, 23.4, 14.15)">
      <use height="28.35" transform="matrix(1.0, 0.0, 0.0, 1.0, -23.4, -14.15)" width="46.8" xlink:href="#shape2"/>
    </g>
    <g id="shape2" transform="matrix(1.0, 0.0, 0.0, 1.0, 23.4, 14.15)">
      <path d="M13.7 6.9 L14.05 6.55 14.25 6.75 13.7 6.9" fill="#0ecfe4" fill-rule="evenodd" stroke="none"/>
      <path d="M14.05 6.55 Q12.0 4.45 9.55 2.8 L7.8 1.55 4.35 0.3 3.95 -0.15 4.05 -0.25 4.45 -0.4 Q6.95 0.1 9.05 1.15 10.25 1.75 11.35 2.5 L11.6 2.7 Q14.3 4.65 16.3 7.65 L17.4 9.65 19.65 8.45 21.8 6.55 22.2 6.0 22.3 5.95 22.3 5.9 Q21.9 4.5 21.15 3.25 L19.85 1.45 Q17.45 -1.2 14.15 -2.75 6.0 -6.5 -2.85 -4.35 -6.65 -3.4 -9.95 -1.2 L-10.75 -1.05 -10.8 -1.15 -10.85 -1.25 -10.8 -1.4 Q-8.35 -3.8 -5.1 -5.1 L-0.85 -6.15 -1.15 -8.5 Q-1.2 -9.35 -1.55 -10.2 L-1.65 -10.7 -1.6 -10.85 -1.55 -11.0 -1.4 -11.1 -1.35 -11.15 -0.9 -11.15 -0.75 -11.1 Q0.85 -8.75 0.0 -6.25 L1.85 -6.4 Q9.5 -6.8 16.2 -3.25 19.85 -1.35 22.1 1.9 L22.1 1.95 Q23.7 4.1 23.3 6.65 L23.1 7.05 23.0 7.15 Q22.65 8.45 20.85 9.2 L19.15 9.95 Q3.95 16.95 -12.45 12.45 -16.7 11.3 -20.25 8.8 -22.15 7.55 -23.2 5.6 -23.55 4.95 -23.35 4.25 L-21.65 0.0 -21.65 -0.1 -21.65 -0.3 -20.9 -1.65 Q-18.6 -6.25 -14.6 -9.75 -11.25 -12.65 -7.2 -14.05 L-6.9 -14.15 -6.25 -13.9 -6.2 -13.85 -6.15 -13.75 -6.1 -13.4 -6.25 -13.1 -8.85 -11.9 Q-14.1 -9.2 -17.7 -4.15 L-19.55 -1.65 -19.8 -1.15 -20.85 0.85 Q-21.75 3.0 -22.1 5.15 L-21.9 5.6 Q-15.4 11.45 -6.5 12.6 4.05 13.95 14.05 10.9 L16.2 10.15 16.1 10.0 15.8 9.25 15.8 9.15 15.05 7.95 14.3 6.8 14.25 6.75 14.05 6.55" fill="#000000" fill-rule="evenodd" stroke="none"/>
      <path d="M11.6 2.7 L11.35 2.5 Q10.25 1.75 9.05 1.15 6.95 0.1 4.45 -0.4 L4.05 -0.25 3.95 -0.15 4.35 0.3 7.8 1.55 9.55 2.8 Q12.0 4.45 14.05 6.55 L13.7 6.9 12.95 7.15 10.7 7.65 5.2 8.3 -0.55 8.35 -5.9 7.9 -9.3 7.05 Q-11.85 6.15 -14.0 4.55 -15.2 3.7 -15.7 2.4 -16.1 1.45 -16.0 0.5 -15.8 -1.15 -15.15 -2.65 L-14.35 -4.35 Q-13.1 -6.95 -11.25 -9.15 L-8.85 -11.9 -6.25 -13.1 -6.1 -13.4 -6.15 -13.75 -6.15 -13.9 -5.3 -13.85 Q-3.9 -13.6 -2.75 -12.7 -1.9 -12.0 -1.4 -11.1 L-1.55 -11.0 -1.6 -10.85 -1.65 -10.7 -1.55 -10.2 Q-1.2 -9.35 -1.15 -8.5 L-0.85 -6.15 -5.1 -5.1 Q-8.35 -3.8 -10.8 -1.4 L-10.85 -1.25 -10.8 -1.15 -10.75 -1.05 -9.95 -1.2 Q-6.65 -3.4 -2.85 -4.35 6.0 -6.5 14.15 -2.75 17.45 -1.2 19.85 1.45 L21.15 3.25 20.6 3.6 Q19.55 4.15 18.35 4.15 15.4 4.2 12.7 3.0 L11.65 2.6 11.6 2.7" fill="#55bb65" fill-rule="evenodd" stroke="none"/>
      <path d="M11.6 2.7 L11.65 2.6 12.7 3.0 Q15.4 4.2 18.35 4.15 19.55 4.15 20.6 3.6 L21.15 3.25 Q21.9 4.5 22.3 5.9 L22.3 5.95 22.2 6.0 21.8 6.55 19.65 8.45 17.4 9.65 16.3 7.65 Q14.3 4.65 11.6 2.7 M-8.85 -11.9 L-11.25 -9.15 Q-13.1 -6.95 -14.35 -4.35 L-15.15 -2.65 Q-15.8 -1.15 -16.0 0.5 -16.1 1.45 -15.7 2.4 -15.2 3.7 -14.0 4.55 -11.85 6.15 -9.3 7.05 L-5.9 7.9 -0.55 8.35 5.2 8.3 10.7 7.65 12.95 7.15 13.7 6.9 14.25 6.75 14.3 6.8 15.05 7.95 15.8 9.15 15.8 9.25 16.1 10.0 16.2 10.15 14.05 10.9 Q4.05 13.95 -6.5 12.6 -15.4 11.45 -21.9 5.6 L-22.1 5.15 Q-21.75 3.0 -20.85 0.85 L-19.8 -1.15 -19.55 -1.65 -17.7 -4.15 Q-14.1 -9.2 -8.85 -11.9" fill="#43a752" fill-rule="evenodd" stroke="none"/>
    </g>
    <g id="sprite4" transform="matrix(1.0, 0.0, 0.0, 1.0, 11.0, 12.65)">
      <use height="25.35" transform="matrix(1.0, 0.0, 0.0, 1.0, -11.0, -12.65)" width="21.85" xlink:href="#shape3"/>
    </g>
    <g id="shape3" transform="matrix(1.0, 0.0, 0.0, 1.0, 11.0, 12.65)">
      <path d="M0.0 -10.8 Q-1.25 -6.15 -3.7 -2.0 L-3.9 -1.8 -8.3 6.3 -8.3 6.35 Q-8.45 7.1 -8.95 7.6 L-10.45 9.3 -10.75 9.35 -10.8 9.3 -10.95 8.9 -11.0 8.7 -10.1 7.2 -10.05 7.1 -10.0 7.05 -9.75 6.55 -9.6 6.4 -9.55 6.3 -7.5 2.15 -4.6 -2.85 -3.15 -5.55 -1.6 -9.75 -1.0 -11.2 -0.85 -11.4 -0.75 -11.45 -0.5 -11.5 -0.25 -11.45 -0.05 -11.15 0.0 -10.95 0.0 -10.8 M3.55 9.85 Q7.15 4.05 8.75 -2.65 L10.0 -7.95 Q10.1 -8.4 10.5 -8.45 L10.7 -8.35 10.85 -8.3 Q11.0 -4.8 10.1 -1.35 8.85 3.2 6.35 7.2 5.55 10.05 3.0 11.45 2.7 11.6 2.6 11.3 L3.55 9.85" fill="#000000" fill-rule="evenodd" stroke="none"/>
      <path d="M0.0 -10.8 L0.6 -11.55 1.0 -11.85 Q3.7 -13.2 6.5 -12.25 9.35 -11.25 10.45 -8.55 L10.5 -8.45 Q10.1 -8.4 10.0 -7.95 L8.75 -2.65 Q7.15 4.05 3.55 9.85 L2.75 10.2 Q1.1 11.05 -0.75 11.4 L-1.4 11.6 -3.65 12.25 -6.75 12.7 Q-8.25 12.75 -9.5 12.1 -10.95 11.35 -10.85 9.8 L-10.8 9.3 -10.75 9.35 -10.45 9.3 -8.95 7.6 Q-8.45 7.1 -8.3 6.35 L-8.3 6.3 -3.9 -1.8 -3.7 -2.0 Q-1.25 -6.15 0.0 -10.8" fill="#55bb65" fill-rule="evenodd" stroke="none"/>
    </g>
    <g id="shape4" transform="matrix(1.0, 0.0, 0.0, 1.0, 39.1, 30.45)">
      <path d="M38.1 -15.35 Q38.45 -19.05 35.3 -21.15 33.4 -22.4 31.3 -23.15 10.05 -30.2 -12.4 -27.65 -25.65 -26.1 -38.15 -21.45 -34.35 -6.85 -22.55 2.25 L-21.2 -7.0 Q-19.5 6.1 -25.55 17.95 -15.8 27.15 -2.45 28.25 8.5 28.3 19.0 25.85 26.05 24.35 31.65 19.75 32.5 10.15 31.25 0.75 37.15 -6.3 38.1 -15.35 M34.9 -0.85 L33.35 1.65 Q34.95 11.45 32.1 20.9 31.6 22.55 30.4 23.65 27.5 26.4 23.85 27.35 11.9 30.4 -0.4 30.35 -16.5 30.25 -27.35 18.8 L-26.6 16.45 -28.8 15.65 Q-36.2 12.75 -38.6 5.45 -35.0 2.6 -34.65 -2.0 -34.25 -7.2 -36.75 -11.8 -39.5 -16.9 -39.0 -22.35 -29.65 -25.85 -20.0 -27.9 -8.7 -30.2 2.75 -30.45 22.65 -30.9 39.5 -20.3 L39.65 -17.7 Q39.9 -8.55 34.9 -0.85 M-36.6 6.0 Q-33.0 12.25 -26.05 14.7 L-22.9 4.05 Q-28.25 0.55 -32.15 -4.25 -32.45 0.35 -35.25 4.2 L-36.6 6.0" fill="#000000" fill-rule="evenodd" stroke="none"/>
      <path d="M38.1 -15.35 Q37.15 -6.3 31.25 0.75 32.5 10.15 31.65 19.75 26.05 24.35 19.0 25.85 8.5 28.3 -2.45 28.25 -15.8 27.15 -25.55 17.95 -19.5 6.1 -21.2 -7.0 L-22.55 2.25 Q-34.35 -6.85 -38.15 -21.45 -25.65 -26.1 -12.4 -27.65 10.05 -30.2 31.3 -23.15 33.4 -22.4 35.3 -21.15 38.45 -19.05 38.1 -15.35 M-36.6 6.0 L-35.25 4.2 Q-32.45 0.35 -32.15 -4.25 -28.25 0.55 -22.9 4.05 L-26.05 14.7 Q-33.0 12.25 -36.6 6.0" fill="#6633cc" fill-rule="evenodd" stroke="none"/>
    </g>
    <g id="sprite5" transform="matrix(1.0, 0.0, 0.0, 1.0, 18.55, 15.5)">
      <use height="31.0" transform="matrix(1.0, 0.0, 0.0, 1.0, -18.55, -15.5)" width="37.1" xlink:href="#shape5"/>
    </g>
    <g id="shape5" transform="matrix(1.0, 0.0, 0.0, 1.0, 18.55, 15.5)">
      <path d="M-3.7 -9.7 Q-6.25 -7.45 -8.05 -4.45 L-11.2 0.75 -11.65 1.45 -11.75 1.55 -12.0 1.85 -12.05 2.2 -11.75 3.85 Q-10.85 7.95 -7.55 10.2 L-7.55 10.15 -7.15 10.3 -6.2 10.5 -6.1 10.3 -6.0 10.2 -3.8 10.55 -3.8 10.45 -3.05 10.45 -3.0 10.5 -1.05 9.95 Q3.2 8.65 4.95 4.4 7.45 0.65 11.95 -0.8 16.4 -2.3 17.5 -6.45 L17.45 -6.5 Q18.1 -12.15 12.35 -13.75 5.4 -15.7 -0.6 -11.95 L-1.3 -11.45 Q0.45 -10.7 0.85 -9.1 L0.85 -9.05 Q-3.85 -7.0 -6.6 -2.75 L-6.8 -2.4 -7.15 -2.2 -7.2 -1.85 Q-7.25 -1.65 -7.45 -1.55 L-7.5 -1.3 -7.65 -1.1 Q-8.15 -0.9 -8.45 -1.3 -7.2 -6.1 -3.65 -9.65 L-3.15 -10.1 -3.7 -9.7 M-5.55 -9.2 L-5.25 -9.6 -5.1 -9.65 -5.05 -9.75 -4.85 -9.85 -4.85 -9.8 Q-0.1 -14.3 6.6 -15.45 13.45 -16.1 17.5 -11.1 L18.3 -9.65 Q18.7 -8.5 18.45 -7.4 18.55 -5.55 17.25 -3.7 14.8 -0.15 10.55 1.3 6.45 2.7 4.55 6.6 2.75 10.15 -1.1 11.25 L-2.9 11.6 Q-2.95 14.05 -6.0 15.05 -10.25 16.45 -13.55 13.55 -18.4 9.95 -18.55 4.05 -18.65 -0.1 -14.65 -1.3 -13.25 -1.35 -12.1 -0.8 L-12.05 -0.6 Q-11.65 -0.5 -11.35 -0.9 L-11.2 -1.25 -11.1 -1.45 -10.5 -2.25 -10.55 -2.1 -10.25 -2.7 -10.1 -2.95 -10.05 -3.0 -10.05 -3.05 -7.75 -6.55 -5.55 -9.1 -5.55 -9.2 M4.55 -4.4 Q-1.65 -1.7 -5.2 4.05 L-5.45 4.25 -5.95 4.1 -6.0 4.05 Q-4.85 -0.6 -1.3 -4.0 L0.9 -6.2 1.05 -6.45 1.1 -6.65 2.6 -7.75 Q4.55 -6.6 5.25 -4.6 L5.25 -4.5 5.1 -4.35 4.85 -4.3 4.55 -4.4 M-3.3 0.0 Q0.1 -3.05 3.95 -5.25 L2.9 -6.65 2.7 -6.7 Q-0.65 -3.75 -3.35 -0.05 L-3.4 0.05 -3.3 0.0 M-1.3 -11.45 L-1.75 -11.15 -1.3 -11.45 M-5.65 -5.5 Q-3.25 -8.0 -0.2 -9.6 L-1.1 -10.4 -1.3 -10.4 Q-4.1 -8.45 -5.7 -5.55 L-5.75 -5.45 -5.65 -5.5 M-11.9 -0.25 L-14.75 -0.1 -15.7 0.15 Q-18.3 1.95 -17.7 5.3 -16.95 9.6 -13.55 12.3 -9.6 16.1 -5.05 13.3 -4.1 12.75 -4.0 11.7 L-4.0 11.6 -4.95 11.45 -5.6 11.55 -5.7 11.65 -6.3 11.75 -7.2 11.35 -7.95 10.95 Q-12.6 8.25 -12.75 2.65 L-12.7 2.3 -12.85 2.1 -12.9 2.0 -12.9 1.7 -12.9 1.55 Q-12.6 1.15 -12.15 0.9 L-12.15 0.55 -11.9 -0.25" fill="#000000" fill-rule="evenodd" stroke="none"/>
      <path d="M-3.65 -9.65 Q-7.2 -6.1 -8.45 -1.3 -8.15 -0.9 -7.65 -1.1 L-7.5 -1.3 -7.45 -1.55 Q-7.25 -1.65 -7.2 -1.85 L-7.15 -2.2 -6.8 -2.4 -6.6 -2.75 Q-3.85 -7.0 0.85 -9.05 L0.85 -9.1 Q0.45 -10.7 -1.3 -11.45 L-0.6 -11.95 Q5.4 -15.7 12.35 -13.75 18.1 -12.15 17.45 -6.5 L17.5 -6.45 Q16.4 -2.3 11.95 -0.8 7.45 0.65 4.95 4.4 3.2 8.65 -1.05 9.95 L-3.0 10.5 -3.05 10.45 -3.8 10.45 -3.8 10.55 -6.0 10.2 -6.1 10.3 -6.2 10.5 -7.15 10.3 -7.55 10.15 -7.55 10.2 Q-10.85 7.95 -11.75 3.85 L-12.05 2.2 -12.0 1.85 -11.75 1.55 -11.65 1.45 -11.2 0.75 -8.05 -4.45 Q-6.25 -7.45 -3.7 -9.7 L-3.65 -9.65 M-10.5 -2.25 L-10.25 -2.7 -10.55 -2.1 -10.5 -2.25 M-10.05 -3.05 L-9.7 -3.7 -9.65 -3.85 -9.6 -4.05 -9.45 -4.25 -7.9 -6.5 -7.85 -6.7 -7.85 -6.75 -6.6 -8.25 -6.35 -8.45 -5.65 -9.15 -5.55 -9.2 -5.55 -9.1 -7.75 -6.55 -10.05 -3.05 M-3.35 -0.05 Q-0.65 -3.75 2.7 -6.7 L2.9 -6.65 3.95 -5.25 Q0.1 -3.05 -3.3 0.0 L-3.35 -0.05 M4.55 -4.4 L4.85 -4.3 5.1 -4.35 5.25 -4.5 5.25 -4.6 Q4.55 -6.6 2.6 -7.75 L1.1 -6.65 1.05 -6.45 0.9 -6.2 -1.3 -4.0 Q-4.85 -0.6 -6.0 4.05 L-5.95 4.1 -5.45 4.25 -5.2 4.05 Q-1.65 -1.7 4.55 -4.4 M-5.7 -5.55 Q-4.1 -8.45 -1.3 -10.4 L-1.1 -10.4 -0.2 -9.6 Q-3.25 -8.0 -5.65 -5.5 L-5.7 -5.55 M-11.9 -0.25 L-12.15 0.55 -12.15 0.9 Q-12.6 1.15 -12.9 1.55 L-12.9 1.7 -12.9 2.0 -12.85 2.1 -12.7 2.3 -12.75 2.65 Q-12.6 8.25 -7.95 10.95 L-7.2 11.35 -6.3 11.75 -5.7 11.65 -5.6 11.55 -4.95 11.45 -4.0 11.6 -4.0 11.7 Q-4.1 12.75 -5.05 13.3 -9.6 16.1 -13.55 12.3 -16.95 9.6 -17.7 5.3 -18.3 1.95 -15.7 0.15 L-14.75 -0.1 -11.9 -0.25" fill="#ffffff" fill-rule="evenodd" stroke="none"/>
    </g>
    <g id="shape6" transform="matrix(1.0, 0.0, 0.0, 1.0, 12.2, 38.25)">
      <path d="M-2.7 -38.25 Q4.35 -38.25 7.35 -33.35 9.55 -29.65 10.8 -25.8 11.65 -22.95 11.6 -19.85 14.1 3.2 10.0 26.1 9.35 29.55 8.1 33.0 6.7 36.6 1.65 37.4 -3.0 38.15 -6.0 35.2 -10.7 30.85 -10.0 25.2 -7.2 2.4 -11.8 -20.2 -12.6 -24.3 -11.85 -28.6 -10.9 -33.9 -5.8 -37.2 -4.55 -37.95 -2.7 -38.25 M-7.9 22.85 Q-8.9 27.95 -6.1 32.85 -4.6 35.55 -0.8 36.15 L1.45 36.1 Q5.15 35.35 6.45 32.5 L7.2 30.2 Q10.9 12.45 9.85 -5.45 L9.35 -16.15 Q9.15 -23.8 6.0 -31.15 3.6 -36.65 -3.6 -36.35 -7.4 -35.85 -8.85 -33.25 -11.1 -29.4 -10.1 -24.9 -4.75 -3.3 -7.25 18.7 L-7.9 22.85" fill="#000000" fill-rule="evenodd" stroke="none"/>
      <path d="M-7.9 22.85 Q-5.55 26.15 -0.6 26.2 L1.05 26.0 Q7.75 4.4 5.5 -17.75 5.0 -22.85 -0.45 -25.9 -5.75 -28.9 -10.1 -24.9 -11.1 -29.4 -8.85 -33.25 -7.4 -35.85 -3.6 -36.35 3.6 -36.65 6.0 -31.15 9.15 -23.8 9.35 -16.15 L9.85 -5.45 Q10.9 12.45 7.2 30.2 L6.45 32.5 Q5.15 35.35 1.45 36.1 L-0.8 36.15 Q-4.6 35.55 -6.1 32.85 -8.9 27.95 -7.9 22.85" fill="#43a752" fill-rule="evenodd" stroke="none"/>
      <path d="M-10.1 -24.9 Q-5.75 -28.9 -0.45 -25.9 5.0 -22.85 5.5 -17.75 7.75 4.4 1.05 26.0 L-0.6 26.2 Q-5.55 26.15 -7.9 22.85 L-7.25 18.7 Q-4.75 -3.3 -10.1 -24.9" fill="#55bb65" fill-rule="evenodd" stroke="none"/>
    </g>
    <g id="shape7" transform="matrix(1.0, 0.0, 0.0, 1.0, 19.15, 20.6)">
      <path d="M2.8 18.4 Q9.95 17.5 15.95 13.75 L17.7 12.65 Q15.2 0.8 10.45 -10.25 9.5 -12.55 7.6 -14.35 L3.55 -17.9 Q1.2 -19.9 -1.75 -19.3 L-8.0 -17.55 Q-11.45 -14.65 -13.05 -10.65 L-14.55 -6.25 Q-17.2 3.1 -17.85 13.0 L-18.05 16.2 Q-7.85 19.95 2.8 18.4 M3.6 -19.8 Q7.35 -18.15 9.75 -14.5 11.45 -11.95 12.55 -9.2 L15.35 -1.5 Q17.8 5.85 19.2 13.35 15.95 16.35 12.0 18.45 9.65 19.75 6.7 20.2 L-3.75 21.05 -9.05 20.5 Q-13.05 19.75 -16.3 17.95 L-19.15 16.1 Q-19.15 6.8 -17.35 -2.35 -16.2 -8.05 -13.5 -13.0 L-11.5 -15.9 Q-9.25 -18.55 -5.95 -19.7 -1.15 -21.45 3.6 -19.8" fill="#000000" fill-rule="evenodd" stroke="none"/>
      <path d="M2.8 18.4 Q5.35 8.6 4.8 -1.35 4.6 -4.35 3.8 -7.3 L2.9 -9.75 Q1.0 -13.3 -2.65 -14.7 L-7.25 -16.55 Q-8.05 -16.85 -8.0 -17.55 L-1.75 -19.3 Q1.2 -19.9 3.55 -17.9 L7.6 -14.35 Q9.5 -12.55 10.45 -10.25 15.2 0.8 17.7 12.65 L15.95 13.75 Q9.95 17.5 2.8 18.4" fill="#004e9b" fill-rule="evenodd" stroke="none"/>
      <path d="M-8.0 -17.55 Q-8.05 -16.85 -7.25 -16.55 L-2.65 -14.7 Q1.0 -13.3 2.9 -9.75 L3.8 -7.3 Q4.6 -4.35 4.8 -1.35 5.35 8.6 2.8 18.4 -7.85 19.95 -18.05 16.2 L-17.85 13.0 Q-17.2 3.1 -14.55 -6.25 L-13.05 -10.65 Q-11.45 -14.65 -8.0 -17.55" fill="#3399ff" fill-rule="evenodd" stroke="none"/>
    </g>
    <g id="sprite6" transform="matrix(1.0, 0.0, 0.0, 1.0, 10.65, 14.0)">
      <use height="28.0" transform="matrix(1.0, 0.0, 0.0, 1.0, -10.65, -14.0)" width="21.05" xlink:href="#shape8"/>
    </g>
    <g id="shape8" transform="matrix(1.0, 0.0, 0.0, 1.0, 10.65, 14.0)">
      <path d="M6.6 -11.55 Q6.6 -2.9 9.75 5.35 10.3 6.8 10.4 8.4 L10.4 9.95 9.9 9.55 Q6.25 15.2 -0.15 13.65 -3.1 12.8 -4.0 9.9 L-4.8 6.5 Q-6.25 -1.45 -10.65 -8.25 L-10.4 -11.25 Q-5.85 -10.25 -1.25 -11.15 2.25 -12.05 5.4 -14.0 L6.6 -11.55 M-6.4 -5.4 L-5.6 -3.3 Q-4.55 -0.05 -4.3 3.3 -3.95 8.8 0.1 12.4 L1.55 12.25 Q3.45 12.05 5.25 10.95 L8.4 8.0 7.9 6.95 Q4.65 -1.95 5.2 -11.45 L5.2 -11.55 5.15 -11.55 Q-1.75 -7.9 -9.4 -9.5 L-6.4 -5.4" fill="#000000" fill-rule="evenodd" stroke="none"/>
      <path d="M-6.4 -5.4 Q-2.25 -4.3 1.8 -6.0 L1.8 -3.5 Q1.95 4.1 5.25 10.95 3.45 12.05 1.55 12.25 L0.1 12.4 Q-3.95 8.8 -4.3 3.3 -4.55 -0.05 -5.6 -3.3 L-6.4 -5.4" fill="#55bb65" fill-rule="evenodd" stroke="none"/>
      <path d="M5.25 10.95 Q1.95 4.1 1.8 -3.5 L1.8 -6.0 Q-2.25 -4.3 -6.4 -5.4 L-9.4 -9.5 Q-1.75 -7.9 5.15 -11.55 L5.2 -11.45 Q4.65 -1.95 7.9 6.95 L8.4 8.0 5.25 10.95" fill="#43a752" fill-rule="evenodd" stroke="none"/>
    </g>
    <g id="shape9" transform="matrix(1.0, 0.0, 0.0, 1.0, 40.45, 47.0)">
      <path d="M25.85 -21.0 L23.0 -29.5 22.9 -29.8 Q21.1 -34.8 18.35 -38.2 11.15 -47.05 -2.25 -45.0 L-5.4 -43.2 Q-8.2 -41.4 -10.55 -39.1 -8.3 -41.65 -6.05 -43.4 6.1 -52.65 18.7 -38.25 L18.75 -38.2 Q22.1 -34.35 24.3 -29.75 25.5 -27.25 26.35 -24.45 L27.35 -21.15 30.5 -10.2 32.55 -2.45 Q35.15 8.0 37.25 18.55 L40.55 36.05 38.5 39.7 Q1.8 57.6 -33.7 39.0 -37.2 37.15 -40.45 34.8 -39.15 13.4 -31.3 -5.55 L-27.85 -13.2 Q-24.75 -19.45 -20.9 -25.35 L-15.35 -33.35 -15.0 -33.8 -15.3 -33.35 -15.9 -32.45 -20.15 -25.2 Q-23.55 -19.15 -26.4 -12.9 L-29.65 -5.15 Q-32.15 1.15 -34.1 7.65 L-36.0 15.35 -37.55 24.05 -38.2 33.55 -38.0 35.5 Q-22.6 44.6 -4.6 45.75 4.45 46.75 13.3 45.35 25.05 43.4 35.95 38.4 L38.05 37.4 37.35 34.55 35.95 24.65 34.75 16.9 33.05 8.25 30.95 -2.1 29.0 -10.1 28.95 -10.15 25.85 -21.0" fill="#000000" fill-rule="evenodd" stroke="none"/>
      <path d="M28.95 -10.15 L29.0 -10.1 28.7 -10.1 28.95 -10.15" fill="#d6280a" fill-rule="evenodd" stroke="none"/>
      <path d="M-15.3 -33.35 L-15.0 -33.8 -15.1 -33.3 -15.3 -33.35" fill="#6666cc" fill-rule="evenodd" stroke="none"/>
      <path d="M-5.4 -43.2 L-2.25 -45.0 2.55 -41.0 -5.4 -43.2" fill="#3636a3" fill-rule="evenodd" stroke="none"/>
      <path d="M13.3 45.35 Q4.45 46.75 -4.6 45.75 -22.6 44.6 -38.0 35.5 L-38.2 33.55 Q-16.65 39.05 5.45 38.5 L15.25 38.1 13.3 45.35 M-37.55 24.05 L-36.0 15.35 -27.5 17.15 Q-5.1 21.4 17.55 19.3 L16.9 28.3 Q-5.3 30.9 -27.15 26.55 L-37.55 24.05 M-34.1 7.65 Q-32.15 1.15 -29.65 -5.15 L-28.8 -4.95 -26.2 -4.4 -17.75 -2.65 Q-10.35 -1.15 -2.75 -0.85 1.1 -0.65 5.0 -0.75 L8.25 -0.75 Q12.4 -0.6 16.6 -0.75 17.25 4.8 17.55 10.4 3.5 11.75 -10.65 10.8 -22.35 10.0 -34.1 7.65 M-26.4 -12.9 Q-23.55 -19.15 -20.15 -25.2 L-14.85 -24.2 -11.3 -23.7 -7.65 -23.05 -4.3 -22.6 -0.55 -22.1 6.8 -21.4 12.9 -21.4 Q14.3 -15.6 15.3 -9.7 L9.5 -9.65 Q5.75 -9.5 2.0 -9.6 L-12.35 -10.65 -26.4 -12.9 M-10.55 -39.1 Q-8.2 -41.4 -5.4 -43.2 L2.55 -41.0 Q7.3 -36.35 10.05 -30.35 L2.3 -30.65 -1.6 -31.05 -15.1 -33.3 -15.0 -33.8 Q-13.0 -36.75 -10.55 -39.1" fill="#3399ff" fill-rule="evenodd" stroke="none"/>
      <path d="M22.9 -29.8 L21.35 -29.95 17.8 -30.2 Q13.9 -30.2 10.05 -30.35 11.3 -27.5 12.15 -24.3 L12.9 -21.4 21.7 -21.0 Q23.75 -20.85 25.85 -21.0 L28.95 -10.15 28.7 -10.1 25.15 -9.7 20.15 -9.4 15.3 -9.7 16.6 -0.75 23.65 -1.25 30.95 -2.1 33.05 8.25 17.55 10.4 17.55 19.3 34.75 16.9 35.95 24.65 16.9 28.3 15.25 38.1 5.45 38.5 Q-16.65 39.05 -38.2 33.55 L-37.55 24.05 -27.15 26.55 Q-5.3 30.9 16.9 28.3 L17.55 19.3 Q-5.1 21.4 -27.5 17.15 L-36.0 15.35 -34.1 7.65 Q-22.35 10.0 -10.65 10.8 3.5 11.75 17.55 10.4 17.25 4.8 16.6 -0.75 12.4 -0.6 8.25 -0.75 L5.0 -0.75 Q1.1 -0.65 -2.75 -0.85 -10.35 -1.15 -17.75 -2.65 L-26.2 -4.4 -28.8 -4.95 -29.65 -5.15 -26.4 -12.9 -12.35 -10.65 2.0 -9.6 Q5.75 -9.5 9.5 -9.65 L15.3 -9.7 Q14.3 -15.6 12.9 -21.4 L6.8 -21.4 -0.55 -22.1 -4.3 -22.6 -7.65 -23.05 -11.3 -23.7 -14.85 -24.2 -20.15 -25.2 -15.9 -32.45 -15.3 -33.35 -15.1 -33.3 -1.6 -31.05 2.3 -30.65 10.05 -30.35 Q7.3 -36.35 2.55 -41.0 L6.7 -40.0 11.0 -39.35 15.25 -38.65 18.35 -38.2 Q21.1 -34.8 22.9 -29.8 M37.35 34.55 L38.05 37.4 35.95 38.4 Q25.05 43.4 13.3 45.35 L15.25 38.1 37.35 34.55" fill="#006cd9" fill-rule="evenodd" stroke="none"/>
      <path d="M22.9 -29.8 L23.0 -29.5 25.85 -21.0 Q23.75 -20.85 21.7 -21.0 L12.9 -21.4 12.15 -24.3 Q11.3 -27.5 10.05 -30.35 13.9 -30.2 17.8 -30.2 L21.35 -29.95 22.9 -29.8 M29.0 -10.1 L30.95 -2.1 23.65 -1.25 16.6 -0.75 15.3 -9.7 20.15 -9.4 25.15 -9.7 28.7 -10.1 29.0 -10.1 M33.05 8.25 L34.75 16.9 17.55 19.3 17.55 10.4 33.05 8.25 M35.95 24.65 L37.35 34.55 15.25 38.1 16.9 28.3 35.95 24.65 M-2.25 -45.0 Q11.15 -47.05 18.35 -38.2 L15.25 -38.65 11.0 -39.35 6.7 -40.0 2.55 -41.0 -2.25 -45.0" fill="#004e9b" fill-rule="evenodd" stroke="none"/>
    </g>
    <g id="sprite7" transform="matrix(1.0, 0.0, 0.0, 1.0, 18.55, 15.5)">
      <use height="31.0" transform="matrix(1.0, 0.0, 0.0, 1.0, -18.55, -15.5)" width="37.1" xlink:href="#shape10"/>
    </g>
    <g id="shape10" transform="matrix(1.0, 0.0, 0.0, 1.0, 18.55, 15.5)">
      <path d="M-1.3 -11.45 L-0.6 -11.95 Q5.4 -15.7 12.35 -13.75 18.1 -12.15 17.45 -6.5 L17.5 -6.45 Q16.4 -2.3 11.95 -0.8 7.45 0.65 4.95 4.4 3.2 8.65 -1.05 9.95 L-3.0 10.5 -3.05 10.45 -3.8 10.45 -3.8 10.55 -6.0 10.2 -6.1 10.3 -6.2 10.5 -7.15 10.3 -7.55 10.15 -7.55 10.2 Q-10.85 7.95 -11.75 3.85 L-12.05 2.2 -12.0 1.85 -11.75 1.55 -11.65 1.45 -11.2 0.75 -8.05 -4.45 Q-6.25 -7.45 -3.7 -9.7 L-3.65 -9.65 Q-7.2 -6.1 -8.45 -1.3 -8.15 -0.9 -7.65 -1.1 L-7.5 -1.3 -7.45 -1.55 Q-7.25 -1.65 -7.2 -1.85 L-7.15 -2.2 -6.8 -2.4 -6.6 -2.75 Q-3.85 -7.0 0.85 -9.05 L0.85 -9.1 Q0.45 -10.7 -1.3 -11.45 M-5.7 -5.55 Q-4.1 -8.45 -1.3 -10.4 L-1.1 -10.4 -0.2 -9.6 Q-3.25 -8.0 -5.65 -5.5 L-5.7 -5.55 M-3.35 -0.05 Q-0.65 -3.75 2.7 -6.7 L2.9 -6.65 3.95 -5.25 Q0.1 -3.05 -3.3 0.0 L-3.35 -0.05 M1.1 -6.65 L1.05 -6.45 0.9 -6.2 -1.3 -4.0 Q-4.85 -0.6 -6.0 4.05 L-5.95 4.1 -5.45 4.25 -5.2 4.05 Q-1.65 -1.7 4.55 -4.4 L4.85 -4.3 5.1 -4.35 5.25 -4.5 5.25 -4.6 Q4.55 -6.6 2.6 -7.75 L1.1 -6.65 M-11.9 -0.25 L-12.15 0.55 -12.15 0.9 Q-12.6 1.15 -12.9 1.55 L-12.9 1.7 -12.9 2.0 -12.85 2.1 -12.7 2.3 -12.75 2.65 Q-12.6 8.25 -7.95 10.95 L-7.2 11.35 -6.3 11.75 -5.7 11.65 -5.6 11.55 -4.95 11.45 -4.0 11.6 -4.0 11.7 Q-4.1 12.75 -5.05 13.3 -9.6 16.1 -13.55 12.3 -16.95 9.6 -17.7 5.3 -18.3 1.95 -15.7 0.15 L-14.75 -0.1 -11.9 -0.25 M-11.05 -10.8 L-11.0 -11.1 -10.9 -11.4 -10.85 -11.45 -10.65 -11.55 Q-6.75 -12.55 -5.55 -9.1 L-7.75 -6.55 -10.55 -2.1 -10.35 -3.3 Q-9.9 -7.15 -11.05 -10.8" fill="#ffffff" fill-rule="evenodd" stroke="none"/>
      <path d="M-1.3 -11.45 L-1.75 -11.15 -1.3 -11.45 Q0.45 -10.7 0.85 -9.1 L0.85 -9.05 Q-3.85 -7.0 -6.6 -2.75 L-6.8 -2.4 -7.15 -2.2 -7.2 -1.85 Q-7.25 -1.65 -7.45 -1.55 L-7.5 -1.3 -7.65 -1.1 Q-8.15 -0.9 -8.45 -1.3 -7.2 -6.1 -3.65 -9.65 L-3.15 -10.1 -3.7 -9.7 Q-6.25 -7.45 -8.05 -4.45 L-11.2 0.75 -11.65 1.45 -11.75 1.55 -12.0 1.85 -12.05 2.2 -11.75 3.85 Q-10.85 7.95 -7.55 10.2 L-7.55 10.15 -7.15 10.3 -6.2 10.5 -6.1 10.3 -6.0 10.2 -3.8 10.55 -3.8 10.45 -3.05 10.45 -3.0 10.5 -1.05 9.95 Q3.2 8.65 4.95 4.4 7.45 0.65 11.95 -0.8 16.4 -2.3 17.5 -6.45 L17.45 -6.5 Q18.1 -12.15 12.35 -13.75 5.4 -15.7 -0.6 -11.95 L-1.3 -11.45 M-5.65 -5.5 Q-3.25 -8.0 -0.2 -9.6 L-1.1 -10.4 -1.3 -10.4 Q-4.1 -8.45 -5.7 -5.55 L-5.75 -5.45 -5.65 -5.5 M1.1 -6.65 L2.6 -7.75 Q4.55 -6.6 5.25 -4.6 L5.25 -4.5 5.1 -4.35 4.85 -4.3 4.55 -4.4 Q-1.65 -1.7 -5.2 4.05 L-5.45 4.25 -5.95 4.1 -6.0 4.05 Q-4.85 -0.6 -1.3 -4.0 L0.9 -6.2 1.05 -6.45 1.1 -6.65 M-3.3 0.0 Q0.1 -3.05 3.95 -5.25 L2.9 -6.65 2.7 -6.7 Q-0.65 -3.75 -3.35 -0.05 L-3.4 0.05 -3.3 0.0 M6.6 -15.45 Q13.45 -16.1 17.5 -11.1 L18.3 -9.65 Q18.7 -8.5 18.45 -7.4 18.55 -5.55 17.25 -3.7 14.8 -0.15 10.55 1.3 6.45 2.7 4.55 6.6 2.75 10.15 -1.1 11.25 L-2.9 11.6 Q-2.95 14.05 -6.0 15.05 -10.25 16.45 -13.55 13.55 -18.4 9.95 -18.55 4.05 -18.65 -0.1 -14.65 -1.3 -13.05 -1.35 -11.75 -0.6 L-11.75 -1.2 Q-11.15 -4.5 -11.5 -7.85 L-11.9 -9.85 Q-12.15 -10.85 -11.8 -11.8 L-11.55 -12.05 -10.05 -12.8 Q-5.85 -13.0 -4.85 -9.8 -0.1 -14.3 6.6 -15.45 M-11.05 -10.8 Q-9.9 -7.15 -10.35 -3.3 L-10.55 -2.1 -7.75 -6.55 -5.55 -9.1 Q-6.75 -12.55 -10.65 -11.55 L-10.85 -11.45 -10.9 -11.4 -11.0 -11.1 -11.05 -10.8 M-11.9 -0.25 L-14.75 -0.1 -15.7 0.15 Q-18.3 1.95 -17.7 5.3 -16.95 9.6 -13.55 12.3 -9.6 16.1 -5.05 13.3 -4.1 12.75 -4.0 11.7 L-4.0 11.6 -4.95 11.45 -5.6 11.55 -5.7 11.65 -6.3 11.75 -7.2 11.35 -7.95 10.95 Q-12.6 8.25 -12.75 2.65 L-12.7 2.3 -12.85 2.1 -12.9 2.0 -12.9 1.7 -12.9 1.55 Q-12.6 1.15 -12.15 0.9 L-12.15 0.55 -11.9 -0.25" fill="#000000" fill-rule="evenodd" stroke="none"/>
    </g>
    <g id="sprite8" transform="matrix(1.0, 0.0, 0.0, 1.0, 30.65, 26.45)">
      <use height="52.9" transform="matrix(1.0, 0.0, 0.0, 1.0, -30.65, -26.45)" width="61.25" xlink:href="#shape11"/>
    </g>
    <g id="shape11" transform="matrix(1.0, 0.0, 0.0, 1.0, 30.65, 26.45)">
      <path d="M4.9 -12.65 L4.95 -12.55 Q7.35 -9.2 8.65 -5.4 L9.4 -3.5 9.4 -3.45 9.3 -3.35 9.95 0.3 10.05 1.65 Q10.1 3.6 9.5 5.4 L9.6 5.5 9.7 5.6 9.95 6.05 10.15 6.85 19.25 6.45 Q21.35 5.1 23.75 4.2 24.95 3.7 26.2 3.55 L26.55 3.55 26.7 3.55 Q30.9 3.6 30.6 7.7 30.5 9.35 29.4 10.6 L29.3 10.7 29.25 10.7 29.1 10.8 29.05 10.9 29.0 10.95 28.95 11.05 28.65 11.35 28.15 11.7 Q29.6 12.9 28.6 15.1 28.35 15.65 27.75 15.9 L23.7 16.9 22.75 16.95 Q21.55 17.05 20.45 17.6 L10.7 22.7 Q4.65 25.9 -2.15 26.35 -9.7 26.85 -16.65 24.35 -18.5 23.7 -19.95 22.45 -21.85 21.85 -22.4 19.5 -22.65 18.4 -22.0 17.45 L-21.1 16.35 Q-21.85 16.35 -22.75 15.55 L-25.25 12.95 Q-28.05 9.75 -29.55 5.75 L-29.65 5.55 -29.75 5.45 Q-31.65 -0.75 -29.55 -6.9 L-29.1 -8.3 -28.95 -8.5 -28.85 -8.6 -28.05 -10.75 -28.0 -10.85 -23.45 -18.75 -22.95 -19.75 -20.8 -24.0 Q-20.25 -25.15 -19.95 -26.4 L-19.8 -26.45 -19.75 -26.4 -19.65 -26.45 Q-16.0 -23.4 -11.25 -24.55 L-11.1 -24.75 -10.85 -25.0 -10.7 -25.05 -10.55 -25.1 -10.2 -24.9 -10.1 -24.9 -10.05 -24.7 -10.05 -24.5 -10.45 -24.25 -13.8 -19.95 Q-11.25 -21.8 -9.0 -23.9 L-9.05 -23.95 -8.75 -24.25 -8.55 -24.35 -3.9 -24.45 -3.45 -24.3 -3.4 -24.2 -3.35 -23.95 -3.4 -23.65 Q-6.4 -21.7 -8.85 -19.15 L-9.05 -18.95 -7.55 -19.1 Q-0.55 -18.65 3.8 -13.6 L4.9 -12.65 M5.75 4.7 Q3.15 -0.5 3.0 -6.3 L3.0 -8.0 1.65 -8.1 1.45 -8.35 1.5 -8.45 1.5 -8.55 1.55 -8.6 1.65 -8.7 1.7 -8.7 2.8 -8.9 3.05 -8.95 3.05 -9.35 Q3.15 -10.9 4.1 -11.8 L3.75 -12.15 3.55 -12.35 3.5 -12.45 3.5 -12.55 3.45 -12.6 3.45 -12.65 2.85 -13.3 2.75 -13.4 1.3 -14.7 -0.8 -16.35 Q-5.65 -18.8 -11.0 -17.85 L-11.1 -17.95 -11.1 -18.05 -11.1 -18.1 -11.0 -18.2 -10.95 -18.3 -10.2 -18.65 -10.2 -18.75 Q-8.85 -20.7 -6.9 -22.2 L-6.4 -22.7 Q-7.65 -22.55 -8.45 -23.25 -8.65 -22.55 -9.5 -21.9 -11.8 -20.05 -14.4 -18.75 L-14.85 -18.7 -14.9 -18.65 Q-15.15 -18.65 -15.25 -18.9 L-15.25 -19.0 Q-14.1 -21.45 -12.3 -23.5 -14.95 -22.75 -18.0 -23.95 L-19.45 -25.05 -19.7 -24.45 -19.8 -24.35 -19.75 -24.25 -19.75 -24.05 Q-22.95 -17.35 -26.7 -10.9 L-26.8 -10.7 -27.85 -8.9 Q-30.55 -2.55 -28.95 4.2 L-27.85 7.25 Q-25.35 12.55 -20.55 15.85 -18.55 14.2 -15.55 14.3 L-9.95 14.4 -10.95 14.05 -11.35 13.85 Q-12.45 13.25 -13.35 12.2 -15.25 10.05 -16.25 7.55 -17.4 4.8 -17.5 1.55 -17.55 -1.4 -16.6 -4.05 -15.6 -7.85 -12.05 -9.55 -11.7 -9.5 -11.65 -9.1 L-11.65 -9.05 -12.5 -8.3 -10.45 -7.65 -9.45 -8.1 -8.55 -8.45 Q-8.05 -8.5 -7.8 -8.15 L-7.75 -8.05 -7.75 -7.95 -7.8 -7.8 -7.9 -7.7 -9.4 -7.1 -8.25 -6.35 Q-5.7 -4.45 -4.3 -1.05 -3.0 2.15 -2.25 5.5 -1.7 7.9 -2.0 10.25 L-1.0 9.15 0.85 7.4 Q3.05 5.55 5.8 4.8 L5.75 4.7 M4.7 -11.1 L4.65 -11.15 4.55 -11.05 4.2 -8.75 Q5.6 -8.4 6.7 -7.65 L4.7 -11.1 M4.3 -7.7 L4.1 -7.75 4.1 -7.7 4.05 -6.05 Q4.05 -3.75 4.6 -1.45 L5.2 -1.85 5.6 -1.8 5.8 -1.8 Q7.1 -0.6 7.65 0.85 L6.35 1.85 6.3 1.9 6.25 2.0 6.3 2.1 8.05 2.25 7.95 4.6 8.75 4.85 Q9.3 0.85 8.3 -3.05 L7.75 -4.85 7.6 -5.35 Q6.4 -7.0 4.3 -7.7 M-2.9 20.85 L-2.55 20.85 0.6 20.65 Q7.45 19.75 13.65 15.9 L19.2 12.2 Q22.15 10.05 25.6 9.1 L26.6 9.5 26.65 9.55 24.7 10.4 27.1 10.9 27.3 10.95 27.5 11.1 Q29.85 9.4 29.55 6.65 29.3 4.35 26.85 4.75 L23.75 5.35 23.4 5.45 Q21.5 6.15 19.85 7.2 L19.25 7.55 Q16.75 9.1 14.75 11.35 13.8 12.15 12.85 12.1 14.6 9.9 16.75 8.2 L9.45 7.75 Q8.45 7.5 7.9 6.8 L8.0 6.5 8.2 6.35 9.15 6.6 8.95 6.35 8.5 6.1 8.55 5.9 8.0 5.55 7.35 5.65 7.1 5.7 6.95 5.7 Q2.4 6.45 -0.75 10.0 L-1.4 10.75 -2.35 11.85 -2.45 11.95 Q-6.85 16.4 -13.3 15.25 -16.2 14.7 -18.9 15.8 L-18.95 15.9 -19.0 16.0 -19.05 16.1 Q-20.4 16.5 -21.1 17.75 L-21.7 19.3 -21.6 19.5 -21.4 20.05 -21.35 20.25 Q-20.55 21.25 -19.4 21.65 -19.0 21.8 -18.7 22.1 L-18.65 22.2 -18.6 22.25 Q-8.5 27.1 3.05 24.5 9.85 22.95 15.65 18.95 20.2 15.85 25.55 15.3 L27.05 15.15 27.9 14.75 28.1 14.45 28.1 14.25 28.15 13.95 28.2 13.8 Q28.0 12.35 26.6 11.85 L26.5 11.8 24.1 11.45 22.4 11.5 21.35 12.05 Q17.45 14.05 13.85 16.55 L11.1 18.2 Q2.5 22.9 -7.3 21.65 -11.35 21.15 -14.2 18.3 L-14.7 18.15 -16.05 19.3 -16.65 19.8 -16.8 19.8 Q-17.1 19.8 -17.25 19.6 L-17.3 19.5 Q-16.85 17.85 -15.2 17.1 -14.25 16.65 -13.3 16.55 -11.35 16.3 -10.25 17.75 L-10.2 17.85 -10.3 17.95 -10.35 18.05 -10.4 18.1 -10.55 18.1 Q-12.2 17.35 -13.55 17.65 -12.55 18.05 -11.65 18.9 -10.1 20.3 -8.05 20.55 L-2.9 20.85 M-14.2 -12.45 L-14.2 -12.35 -14.25 -12.15 -14.45 -11.95 Q-16.85 -11.75 -18.05 -9.45 L-18.4 -8.95 -18.65 -7.35 Q-18.7 -6.4 -19.4 -5.9 -20.2 -7.25 -19.4 -9.05 -18.15 -11.85 -15.3 -12.95 -14.6 -13.1 -14.25 -12.5 L-14.2 -12.45 M-13.35 -7.45 Q-15.6 -5.05 -16.3 -2.0 -14.75 -5.25 -11.4 -7.15 L-13.15 -7.4 -13.35 -7.45 M-9.35 -5.85 L-10.45 -6.65 -10.85 -6.45 Q-14.75 -4.1 -16.1 0.15 L-16.6 1.4 -16.35 3.95 -16.3 4.25 Q-15.75 6.9 -14.4 9.2 -12.4 12.65 -8.7 14.15 L-8.65 14.35 -7.6 14.0 -5.35 12.9 -4.75 12.5 -4.7 12.4 -2.45 10.45 Q-2.55 4.65 -4.9 0.0 -6.25 -2.7 -8.3 -4.85 L-9.35 -5.85" fill="#000000" fill-rule="evenodd" stroke="none"/>
      <path d="M-26.8 -10.7 L-26.7 -10.9 Q-22.95 -17.35 -19.75 -24.05 L-19.75 -24.25 -19.8 -24.35 -19.7 -24.45 -19.45 -25.05 -18.0 -23.95 Q-14.95 -22.75 -12.3 -23.5 -14.1 -21.45 -15.25 -19.0 L-15.25 -18.9 Q-15.15 -18.65 -14.9 -18.65 L-14.85 -18.7 -14.4 -18.75 Q-11.8 -20.05 -9.5 -21.9 -8.65 -22.55 -8.45 -23.25 -7.65 -22.55 -6.4 -22.7 L-6.9 -22.2 Q-8.85 -20.7 -10.2 -18.75 L-10.2 -18.65 -10.95 -18.3 -11.0 -18.2 -11.1 -18.1 -11.1 -18.05 -11.1 -17.95 -11.0 -17.85 Q-5.65 -18.8 -0.8 -16.35 L1.3 -14.7 2.75 -13.4 2.85 -13.3 3.45 -12.65 3.45 -12.6 3.5 -12.55 3.5 -12.45 3.55 -12.35 3.75 -12.15 4.1 -11.8 Q3.15 -10.9 3.05 -9.35 L3.05 -8.95 2.8 -8.9 1.7 -8.7 1.65 -8.7 1.55 -8.6 1.5 -8.55 1.5 -8.45 1.45 -8.35 1.65 -8.1 3.0 -8.0 3.0 -6.3 Q3.15 -0.5 5.75 4.7 L5.8 4.8 Q3.05 5.55 0.85 7.4 L-1.0 9.15 -2.0 10.25 Q-1.7 7.9 -2.25 5.5 -3.0 2.15 -4.3 -1.05 -5.7 -4.45 -8.25 -6.35 L-9.4 -7.1 -7.9 -7.7 -7.8 -7.8 -7.75 -7.95 -7.75 -8.05 -7.8 -8.15 Q-8.05 -8.5 -8.55 -8.45 L-9.45 -8.1 -10.45 -7.65 -12.5 -8.3 -11.65 -9.05 -11.65 -9.1 Q-11.7 -9.5 -12.05 -9.55 -15.6 -7.85 -16.6 -4.05 -17.55 -1.4 -17.5 1.55 -17.4 4.8 -16.25 7.55 -15.25 10.05 -13.35 12.2 -12.45 13.25 -11.35 13.85 -13.7 13.45 -15.9 12.7 L-18.1 11.55 -19.25 10.85 Q-20.2 10.35 -20.95 9.7 L-22.95 7.7 -23.8 6.55 -24.55 5.5 Q-25.65 4.1 -26.15 2.4 -27.45 -2.05 -27.1 -6.85 -27.0 -7.7 -27.05 -8.6 -27.1 -9.7 -26.8 -10.7 M4.55 -11.05 L4.7 -11.1 6.7 -7.65 Q5.6 -8.4 4.2 -8.75 L4.55 -11.05 M-13.35 -7.45 L-13.15 -7.4 -11.4 -7.15 Q-14.75 -5.25 -16.3 -2.0 -15.6 -5.05 -13.35 -7.45 M-14.2 -12.45 L-14.25 -12.5 Q-14.6 -13.1 -15.3 -12.95 -18.15 -11.85 -19.4 -9.05 -20.2 -7.25 -19.4 -5.9 -18.7 -6.4 -18.65 -7.35 L-18.4 -8.95 -18.05 -9.45 Q-16.85 -11.75 -14.45 -11.95 L-14.25 -12.15 -14.2 -12.35 -14.2 -12.45" fill="#55bb65" fill-rule="evenodd" stroke="none"/>
      <path d="M-26.8 -10.7 Q-27.1 -9.7 -27.05 -8.6 -27.0 -7.7 -27.1 -6.85 -27.45 -2.05 -26.15 2.4 -25.65 4.1 -24.55 5.5 L-23.8 6.55 -22.95 7.7 -20.95 9.7 Q-20.2 10.35 -19.25 10.85 L-18.1 11.55 -15.9 12.7 Q-13.7 13.45 -11.35 13.85 L-10.95 14.05 -9.95 14.4 -15.55 14.3 Q-18.55 14.2 -20.55 15.85 -25.35 12.55 -27.85 7.25 L-28.95 4.2 Q-30.55 -2.55 -27.85 -8.9 L-26.8 -10.7" fill="#43a752" fill-rule="evenodd" stroke="none"/>
      <path d="M4.1 -7.7 L4.3 -7.7 Q6.4 -7.0 7.6 -5.35 L7.75 -4.85 8.3 -3.05 7.15 -4.45 6.75 -4.75 Q5.5 -5.6 4.05 -6.05 L4.1 -7.7 M-16.35 3.95 L-16.6 1.4 -16.1 0.15 Q-14.75 -4.1 -10.85 -6.45 L-10.45 -6.65 -9.35 -5.85 -10.65 -4.85 -12.35 -3.3 -12.7 -2.9 Q-14.35 -1.1 -15.45 1.1 -16.1 2.45 -16.25 4.0 L-16.35 3.95" fill="#cccccc" fill-rule="evenodd" stroke="none"/>
      <path d="M4.3 -7.7 L4.1 -7.7 4.1 -7.75 4.3 -7.7 M4.05 -6.05 Q5.5 -5.6 6.75 -4.75 L7.15 -4.45 8.3 -3.05 Q9.3 0.85 8.75 4.85 L7.95 4.6 8.05 2.25 6.3 2.1 6.25 2.0 6.3 1.9 6.35 1.85 7.65 0.85 Q7.1 -0.6 5.8 -1.8 L5.6 -1.8 5.2 -1.85 4.6 -1.45 Q4.05 -3.75 4.05 -6.05 M-16.35 3.95 L-16.25 4.0 Q-16.1 2.45 -15.45 1.1 -14.35 -1.1 -12.7 -2.9 L-12.35 -3.3 -10.65 -4.85 -9.35 -5.85 -8.3 -4.85 Q-6.25 -2.7 -4.9 0.0 -2.55 4.65 -2.45 10.45 L-4.7 12.4 -4.75 12.5 -5.35 12.9 -7.6 14.0 -8.65 14.35 -8.7 14.15 Q-12.4 12.65 -14.4 9.2 -15.75 6.9 -16.3 4.25 L-16.35 3.95" fill="#ffffff" fill-rule="evenodd" stroke="none"/>
      <path d="M-0.75 10.0 Q2.4 6.45 6.95 5.7 L7.1 5.7 7.35 5.65 8.0 5.55 8.55 5.9 8.5 6.1 8.95 6.35 9.15 6.6 8.2 6.35 8.0 6.5 7.9 6.8 Q8.45 7.5 9.45 7.75 L16.75 8.2 Q14.6 9.9 12.85 12.1 13.8 12.15 14.75 11.35 16.75 9.1 19.25 7.55 L19.85 7.2 Q21.5 6.15 23.4 5.45 L23.75 5.35 26.85 4.75 Q29.3 4.35 29.55 6.65 29.85 9.4 27.5 11.1 L27.3 10.95 27.1 10.9 24.7 10.4 26.65 9.55 26.6 9.5 25.6 9.1 Q22.15 10.05 19.2 12.2 L13.65 15.9 Q7.45 19.75 0.6 20.65 L-2.55 20.85 -2.9 20.85 -2.9 20.8 -4.9 20.2 Q-6.5 19.65 -6.95 18.15 L-7.0 17.65 Q-6.8 16.25 -5.35 15.75 -4.35 15.35 -3.6 14.75 L-2.5 13.8 Q-1.2 12.6 -0.95 10.9 L-0.75 10.0 M24.1 11.45 L26.5 11.8 26.6 11.85 Q28.0 12.35 28.2 13.8 L28.15 13.95 28.1 14.25 28.1 14.45 27.9 14.75 27.05 15.15 25.55 15.3 25.8 14.15 25.65 13.15 Q25.25 11.95 24.1 11.45" fill="#f07942" fill-rule="evenodd" stroke="none"/>
      <path d="M-0.75 10.0 L-0.95 10.9 Q-1.2 12.6 -2.5 13.8 L-3.6 14.75 Q-4.35 15.35 -5.35 15.75 -6.8 16.25 -7.0 17.65 L-6.95 18.15 Q-6.5 19.65 -4.9 20.2 L-2.9 20.8 -2.9 20.85 -8.05 20.55 Q-10.1 20.3 -11.65 18.9 -12.55 18.05 -13.55 17.65 -12.2 17.35 -10.55 18.1 L-10.4 18.1 -10.35 18.05 -10.3 17.95 -10.2 17.85 -10.25 17.75 Q-11.35 16.3 -13.3 16.55 -14.25 16.65 -15.2 17.1 -16.85 17.85 -17.3 19.5 L-17.25 19.6 Q-17.1 19.8 -16.8 19.8 L-16.65 19.8 -16.05 19.3 -14.7 18.15 -14.2 18.3 Q-11.35 21.15 -7.3 21.65 2.5 22.9 11.1 18.2 L13.85 16.55 Q17.45 14.05 21.35 12.05 L22.4 11.5 24.1 11.45 Q25.25 11.95 25.65 13.15 L25.8 14.15 25.55 15.3 Q20.2 15.85 15.65 18.95 9.85 22.95 3.05 24.5 -8.5 27.1 -18.6 22.25 L-18.65 22.2 -18.7 22.1 Q-19.0 21.8 -19.4 21.65 -20.55 21.25 -21.35 20.25 L-21.4 20.05 -21.6 19.5 -21.7 19.3 -21.1 17.75 Q-20.4 16.5 -19.05 16.1 L-19.0 16.0 -18.95 15.9 -18.9 15.8 Q-16.2 14.7 -13.3 15.25 -6.85 16.4 -2.45 11.95 L-2.35 11.85 -1.4 10.75 -0.75 10.0" fill="#e05512" fill-rule="evenodd" stroke="none"/>
      <path d="M-6.0 1.45 Q-3.65 6.1 -3.55 11.9 L-5.8 13.85 -7.05 13.1 -7.85 12.3 -8.35 11.0 -5.3 8.75 -5.3 8.7 -5.3 8.6 -5.3 8.5 -5.85 8.4 -8.9 8.75 Q-9.2 6.5 -8.7 4.15 -8.4 2.85 -7.5 1.9 L-7.25 1.65 Q-7.1 1.45 -6.75 1.4 L-6.0 1.45" fill="#000000" fill-rule="evenodd" stroke="none"/>
    </g>
  </defs>
</svg>
