<?xml version="1.0" encoding="UTF-8" standalone="no"?>
<svg xmlns:xlink="http://www.w3.org/1999/xlink" height="375.0px" width="500.0px" xmlns="http://www.w3.org/2000/svg">
  <g transform="matrix(1.0, 0.0, 0.0, 1.0, 0.0, 0.0)">
    <use height="375.0" transform="matrix(1.0, 0.0, 0.0, 1.0, 0.0, 0.0)" width="500.0" xlink:href="#shape0"/>
    <use height="800.0" transform="matrix(1.0, 0.0, 0.0, 1.0, -200.0, -212.55)" width="900.0" xlink:href="#shape1"/>
  </g>
  <defs>
    <g id="shape0" transform="matrix(1.0, 0.0, 0.0, 1.0, 0.0, 0.0)">
      <path d="M500.0 0.0 L500.0 375.0 0.0 375.0 0.0 0.0 500.0 0.0" fill="url(#gradient0)" fill-rule="evenodd" stroke="none"/>
    </g>
    <radialGradient cx="0" cy="0" gradientTransform="matrix(0.3815, 0.0, 0.0, 0.3815, 250.0, 187.5)" gradientUnits="userSpaceOnUse" id="gradient0" r="819.2" spreadMethod="pad">
      <stop offset="0.0" stop-color="#84bafb"/>
      <stop offset="1.0" stop-color="#1c5f9f"/>
    </radialGradient>
    <g id="shape1" transform="matrix(1.0, 0.0, 0.0, 1.0, 200.0, 212.55)">
      <path d="M500.0 0.0 L0.0 0.0 0.0 375.0 500.0 375.0 500.0 0.0 M700.0 -212.55 L700.0 587.45 -200.0 587.45 -200.0 -212.55 700.0 -212.55" fill="#ffffff" fill-rule="evenodd" stroke="none"/>
    </g>
  </defs>
</svg>
