<?xml version="1.0" encoding="UTF-8" standalone="no"?>
<svg xmlns:xlink="http://www.w3.org/1999/xlink" height="375.0px" width="500.0px" xmlns="http://www.w3.org/2000/svg">
  <g transform="matrix(1.0, 0.0, 0.0, 1.0, 0.0, 0.0)">
    <use height="685.45" transform="matrix(1.0, 0.0, 0.0, 1.0, -21.95, -3.9)" width="872.75" xlink:href="#sprite0"/>
    <use height="23.75" transform="matrix(1.0, 0.0, 0.0, 1.0, 409.0, 341.0)" width="76.0" xlink:href="#button0"/>
    <use height="800.0" transform="matrix(1.0, 0.0, 0.0, 1.0, -200.0, -212.55)" width="900.0" xlink:href="#shape3"/>
  </g>
  <defs>
    <g id="sprite0" transform="matrix(1.0, 0.0, 0.0, 1.0, 272.0, 192.0)">
      <use height="308.65" transform="matrix(1.0591, 0.0, 0.0, 0.1589, -259.5459, -188.5315)" width="500.0" xlink:href="#shape0"/>
      <use height="308.65" transform="matrix(1.0991, 0.0, 0.0, 0.1651, -269.5651, 139.5049)" width="500.0" xlink:href="#shape0"/>
      <use height="384.0" transform="matrix(1.1243, 0.0, 0.0, 0.7604, -271.9956, -130.501)" width="506.95" xlink:href="#shape1"/>
      <use height="384.0" transform="matrix(1.0, 0.0, 0.0, 0.75, -250.0, -144.5)" width="506.95" xlink:href="#shape1"/>
      <use height="308.65" transform="matrix(1.0591, 0.0, 0.0, 0.1589, -259.5459, -188.5315)" width="500.0" xlink:href="#shape0"/>
      <use height="308.65" transform="matrix(1.0991, 0.0, 0.0, 0.1651, -269.5651, 139.5049)" width="500.0" xlink:href="#shape0"/>
    </g>
    <g id="shape0" transform="matrix(1.0, 0.0, 0.0, 1.0, -100.75, -184.8)">
      <path d="M100.75 493.45 L100.75 184.8 600.75 184.8 600.75 493.45 100.75 493.45" fill="#000000" fill-opacity="0.9882353" fill-rule="evenodd" stroke="none"/>
    </g>
    <g id="shape1" transform="matrix(1.0, 0.0, 0.0, 1.0, 253.45, 192.0)">
      <path d="M-253.45 -192.0 L253.5 -192.0 253.5 192.0 -253.45 192.0 -253.45 -192.0" fill="#ffffff" fill-opacity="0.007843138" fill-rule="evenodd" stroke="none"/>
    </g>
    <g id="button0" transform="matrix(1.0, 0.0, 0.0, 1.0, 0.8, -2.05)">
      <use height="20.2" transform="matrix(1.0, 0.0, 0.0, 1.0, 2.45, 3.05)" width="70.5" xlink:href="#shape2"/>
    </g>
    <g id="shape2" transform="matrix(1.0, 0.0, 0.0, 1.0, -2.45, -3.05)">
      <path d="M13.55 9.1 L13.6 8.3 Q13.65 7.75 11.9 7.75 L10.4 7.7 8.9 7.65 8.1 7.45 7.3 7.2 6.7 7.55 Q6.05 7.95 5.4 7.95 3.6 8.0 3.6 7.0 3.55 5.95 5.55 5.95 L6.45 6.1 6.85 6.35 7.0 6.4 7.65 6.2 8.7 6.25 13.75 6.1 Q16.0 6.1 16.0 7.55 L15.7 8.9 14.7 10.5 14.15 11.0 14.1 11.45 13.95 12.2 13.2 13.45 12.75 14.2 12.85 14.4 13.2 14.85 13.55 15.75 13.75 15.8 14.2 15.9 Q14.55 16.05 14.95 16.5 16.1 17.3 18.6 19.85 L18.9 20.65 18.6 21.4 17.8 21.75 Q17.3 21.75 16.8 21.1 L15.65 19.65 14.1 17.85 Q13.6 17.6 13.35 17.0 L13.15 16.55 12.8 16.55 11.95 16.3 11.5 16.05 10.35 16.85 Q7.75 19.4 5.15 21.15 4.3 21.7 3.7 21.7 2.45 21.75 2.45 20.8 2.45 20.05 3.05 19.75 8.25 17.4 12.2 11.7 L12.85 11.0 13.45 10.35 13.5 9.85 Q13.45 9.3 13.55 9.1 M31.95 7.5 L34.4 7.1 Q35.5 7.0 35.65 8.05 L35.3 8.9 34.6 9.15 30.85 9.5 30.0 9.65 Q29.35 9.8 29.25 10.15 L28.75 10.95 28.65 11.1 29.15 12.25 29.35 13.15 Q29.6 13.5 30.4 13.5 L33.65 13.45 34.35 13.55 34.7 13.65 34.85 13.45 Q35.15 13.2 35.4 13.1 L36.6 12.8 Q37.05 12.75 37.4 13.1 L37.75 13.8 Q37.75 14.75 36.8 14.85 L35.15 14.7 34.45 14.5 33.6 14.85 32.55 15.2 31.15 15.35 Q30.2 15.5 30.0 15.75 29.8 15.95 29.75 16.7 L30.05 19.5 30.5 22.1 Q30.5 23.15 29.4 23.25 28.3 23.25 28.25 22.15 L28.05 19.2 27.95 16.9 Q27.95 15.8 26.9 15.8 L24.1 16.15 21.2 16.45 Q19.75 16.45 19.7 15.5 19.7 14.4 21.2 14.4 L26.45 14.0 Q27.15 13.85 27.35 13.3 L27.45 12.15 27.65 11.6 27.75 11.1 27.5 10.8 27.05 10.35 Q26.75 9.85 25.65 9.85 L24.85 9.7 24.3 9.55 23.2 10.3 21.7 10.5 Q20.5 10.5 20.35 9.65 20.3 9.1 20.75 8.75 21.15 8.45 21.7 8.45 L22.95 8.65 23.9 8.9 Q24.4 8.55 25.5 8.15 L26.5 8.05 Q26.85 7.95 26.85 7.5 L26.5 5.8 Q26.45 5.3 26.7 4.95 27.0 4.6 27.5 4.55 28.45 4.55 28.65 5.4 L29.05 7.2 Q29.3 7.75 30.05 7.75 L31.95 7.5 M40.6 11.6 L40.5 12.35 40.65 12.4 41.2 13.05 42.0 15.15 41.9 15.85 41.3 16.25 Q40.5 16.25 40.3 15.45 L39.8 13.4 39.8 12.9 39.85 12.7 39.45 12.25 Q38.65 11.65 38.6 10.75 38.6 9.95 39.45 9.9 39.95 9.9 40.2 10.4 L40.6 11.6 M43.9 11.85 L43.5 10.0 Q43.5 9.05 44.15 9.05 44.8 9.0 45.1 10.0 45.9 12.0 45.9 14.2 45.9 15.05 45.15 15.05 44.4 15.05 44.25 14.15 L43.9 11.85 M52.35 10.35 L52.05 11.35 51.5 12.45 51.1 12.85 50.85 14.3 Q50.05 16.65 48.45 18.75 46.8 20.85 44.85 22.1 L43.45 22.9 Q42.45 22.9 42.4 22.0 42.4 21.55 43.3 21.0 45.35 19.7 47.05 17.55 48.65 15.5 49.65 13.25 L50.1 12.65 50.45 12.4 50.35 11.8 Q50.25 11.45 50.5 10.1 50.65 9.35 51.45 9.35 52.35 9.35 52.35 10.35 M65.2 8.5 L62.3 8.4 58.75 8.3 57.35 8.0 56.75 7.8 56.7 7.85 56.35 8.15 54.85 8.5 53.6 8.3 Q53.05 8.05 53.05 7.35 53.05 6.4 55.0 6.4 L56.1 6.6 56.6 6.9 56.95 7.0 57.05 6.9 57.55 6.7 59.35 6.5 64.15 6.45 66.8 6.4 Q68.8 6.4 68.85 8.7 L68.55 9.45 67.95 10.9 Q67.7 11.05 67.4 11.55 L67.4 11.7 67.5 12.1 67.05 13.5 Q65.4 16.9 62.95 18.9 L60.05 20.85 Q58.0 22.0 56.9 22.0 56.0 22.0 55.9 21.1 55.9 20.45 56.7 20.05 L57.8 19.6 Q60.2 18.5 61.85 17.1 63.75 15.5 65.6 13.0 65.9 11.85 66.3 11.45 L66.75 11.0 66.6 10.6 Q66.45 10.3 66.45 9.8 L66.55 9.05 66.6 8.7 66.7 8.65 65.2 8.5 M71.6 5.45 L71.3 4.6 Q71.0 4.3 70.55 4.3 69.65 4.3 69.4 4.85 L69.2 5.2 69.1 5.25 69.2 5.4 69.4 5.85 69.85 6.5 70.55 6.7 71.2 6.7 71.6 5.45 M72.95 5.5 Q73.0 6.5 72.3 7.25 71.6 7.95 70.55 7.95 69.5 8.0 68.8 7.3 68.1 6.6 68.1 5.6 68.1 5.25 68.4 4.8 L68.35 4.85 68.3 4.65 Q68.3 4.3 68.6 3.85 69.35 3.05 70.55 3.05 71.5 3.05 72.2 3.75 72.95 4.45 72.95 5.5" fill="#999999" fill-rule="evenodd" stroke="none"/>
    </g>
    <g id="shape3" transform="matrix(1.0, 0.0, 0.0, 1.0, 200.0, 212.55)">
      <path d="M500.0 0.0 L0.0 0.0 0.0 375.0 500.0 375.0 500.0 0.0 M700.0 -212.55 L700.0 587.45 -200.0 587.45 -200.0 -212.55 700.0 -212.55" fill="#ffffff" fill-rule="evenodd" stroke="none"/>
    </g>
  </defs>
</svg>
