<?xml version="1.0" encoding="UTF-8" standalone="no"?>
<svg xmlns:xlink="http://www.w3.org/1999/xlink" height="375.0px" width="500.0px" xmlns="http://www.w3.org/2000/svg">
  <g transform="matrix(1.0, 0.0, 0.0, 1.0, 0.0, 0.0)">
    <use height="375.0" transform="matrix(1.0, 0.0, 0.0, 1.0, 0.0, 0.0)" width="500.0" xlink:href="#shape0"/>
    <use height="14.5" transform="matrix(1.0, 0.0, 0.0, 1.0, 104.95, 295.75)" width="290.0" xlink:href="#shape1"/>
    <use height="5.0" id="LoadB" transform="matrix(1.0, 0.0, 0.0, -2.5118, 105.55, 309.5098)" width="288.95" xlink:href="#sprite0"/>
    <use height="15.0" transform="matrix(1.0, 0.0, 0.0, 1.0, 107.55, 276.1)" width="109.25" xlink:href="#text0"/>
    <use height="16.5" transform="matrix(1.0, 0.0, 0.0, 0.931, 104.0, 295.569)" width="292.0" xlink:href="#shape3"/>
    <use height="800.0" transform="matrix(1.0, 0.0, 0.0, 1.0, -200.0, -212.55)" width="900.0" xlink:href="#shape4"/>
  </g>
  <defs>
    <g id="shape0" transform="matrix(1.0, 0.0, 0.0, 1.0, 0.0, 0.0)">
      <path d="M500.0 0.0 L500.0 375.0 0.0 375.0 0.0 0.0 500.0 0.0" fill="url(#gradient0)" fill-rule="evenodd" stroke="none"/>
    </g>
    <radialGradient cx="0" cy="0" gradientTransform="matrix(0.3815, 0.0, 0.0, 0.3815, 250.0, 187.5)" gradientUnits="userSpaceOnUse" id="gradient0" r="819.2" spreadMethod="pad">
      <stop offset="0.0" stop-color="#84bafb"/>
      <stop offset="1.0" stop-color="#1c5f9f"/>
    </radialGradient>
    <g id="shape1" transform="matrix(1.0, 0.0, 0.0, 1.0, -104.95, -295.75)">
      <path d="M394.95 310.25 L104.95 310.25 104.95 295.75 394.95 295.75 394.95 310.25" fill="#cccccc" fill-rule="evenodd" stroke="none"/>
    </g>
    <g id="sprite0" transform="matrix(1.0, 0.0, 0.0, 1.0, -0.05, 2.95)">
      <use height="308.65" transform="matrix(0.5779, 0.0, 0.0, 0.0162, 0.073, -2.9553)" width="500.0" xlink:href="#shape2"/>
    </g>
    <g id="shape2" transform="matrix(1.0, 0.0, 0.0, 1.0, -100.75, -184.8)">
      <path d="M100.75 493.45 L100.75 184.8 600.75 184.8 600.75 493.45 100.75 493.45" fill="#ff0000" fill-rule="evenodd" stroke="none"/>
    </g>
    <g id="text0" transform="matrix(1.0, 0.0, 0.0, 1.0, -0.45, -0.45)">
      <g transform="matrix(1.0, 0.0, 0.0, 1.0, 0.0, 0.0)">
        <use fill="#000099" height="15.0" transform="matrix(0.3125, 0.0, 0.0, 0.3125, 0.0, 14.0)" width="109.25" xlink:href="#font_HG_________W8__0"/>
        <use fill="#000099" height="15.0" transform="matrix(0.3125, 0.0, 0.0, 0.3125, 16.0, 14.0)" width="109.25" xlink:href="#font_HG_________W8__1"/>
        <use fill="#000099" height="15.0" transform="matrix(0.3125, 0.0, 0.0, 0.3125, 32.0, 14.0)" width="109.25" xlink:href="#font_HG_________W8__2"/>
        <use fill="#000099" height="15.0" transform="matrix(0.3125, 0.0, 0.0, 0.3125, 48.0, 14.0)" width="109.25" xlink:href="#font_HG_________W8__1"/>
        <use fill="#000099" height="15.0" transform="matrix(0.3125, 0.0, 0.0, 0.3125, 64.0, 14.0)" width="109.25" xlink:href="#font_HG_________W8__3"/>
      </g>
      <g transform="matrix(1.0, 0.0, 0.0, 1.0, 0.0, 0.0)">
        <use fill="#000099" height="15.0" transform="matrix(0.3125, 0.0, 0.0, 0.3125, 80.0, 14.0)" width="109.25" xlink:href="#font_HG_________W8_.0"/>
        <use fill="#000099" height="15.0" transform="matrix(0.3125, 0.0, 0.0, 0.3125, 88.0, 14.0)" width="109.25" xlink:href="#font_HG_________W8_.0"/>
        <use fill="#000099" height="15.0" transform="matrix(0.3125, 0.0, 0.0, 0.3125, 96.0, 14.0)" width="109.25" xlink:href="#font_HG_________W8_.0"/>
      </g>
    </g>
    <g id="font_HG_________W8__0">
      <path d="M34.6 -14.2 L34.6 -14.2 Q33.8 -13.6 33.8 -12.4 L33.8 -1.2 Q33.8 2.4 35.2 3.4 36.6 4.4 41.2 4.4 L46.2 4.0 Q47.6 3.6 48.2 2.0 48.6 1.2 49.0 -0.8 L49.2 -3.4 Q49.2 -4.8 48.4 -5.4 47.8 -6.0 46.2 -6.0 44.8 -6.0 44.2 -5.4 43.4 -5.0 43.2 -3.8 43.2 -2.0 42.8 -1.8 L41.6 -1.6 Q40.4 -1.6 40.4 -2.6 L40.4 -12.4 Q40.4 -13.6 39.6 -14.2 38.8 -15.0 37.2 -15.0 35.6 -15.0 34.6 -14.2 M31.8 -14.2 L31.8 -14.2 Q31.0 -15.0 29.0 -15.0 27.6 -15.0 27.0 -14.4 26.2 -13.8 26.0 -12.6 L25.8 -10.4 Q25.4 -6.0 23.2 -3.8 L20.0 -1.4 Q18.2 -0.4 18.2 1.2 18.2 2.8 19.2 4.0 20.2 5.0 21.6 5.0 24.4 5.0 27.4 1.8 30.6 -1.4 31.6 -5.2 L32.2 -8.6 32.6 -12.0 Q32.6 -13.4 31.8 -14.2 M16.4 -33.2 L3.8 -33.2 Q2.6 -33.2 2.0 -32.4 1.4 -31.6 1.4 -30.0 1.4 -28.4 2.0 -27.8 2.6 -27.0 3.8 -27.0 L16.4 -27.0 Q17.6 -27.0 18.4 -27.8 19.0 -28.4 19.0 -30.0 19.0 -31.6 18.4 -32.4 17.6 -33.2 16.4 -33.2 M44.4 -22.2 L23.0 -22.2 Q20.4 -22.2 19.6 -21.4 18.6 -20.4 18.6 -17.8 L18.6 -13.6 Q18.6 -12.2 19.4 -11.6 20.4 -11.0 21.8 -11.0 23.4 -11.0 24.4 -11.6 25.2 -12.2 25.2 -13.6 L25.2 -15.4 Q25.2 -16.6 26.2 -16.6 L40.8 -16.6 Q42.0 -16.6 42.0 -15.4 L42.0 -13.6 Q42.0 -12.2 42.8 -11.6 43.8 -11.0 45.4 -11.0 47.0 -11.0 48.0 -11.6 48.8 -12.2 48.8 -13.6 L48.8 -17.8 Q48.8 -20.4 47.8 -21.4 47.0 -22.2 44.4 -22.2 M13.2 -11.8 L7.0 -11.8 Q4.4 -11.8 3.6 -11.0 2.6 -10.0 2.6 -7.4 L2.6 -0.2 Q2.6 2.4 3.6 3.2 4.4 4.2 7.0 4.2 L13.2 4.2 Q15.8 4.2 16.6 3.2 17.6 2.4 17.6 -0.2 L17.6 -7.4 Q17.6 -10.0 16.6 -11.0 15.8 -11.8 13.2 -11.8 M8.8 -5.4 L8.8 -5.4 Q8.8 -6.4 9.6 -6.4 L10.8 -6.4 Q11.6 -6.4 11.6 -5.4 L11.6 -2.6 Q11.6 -1.8 10.8 -1.8 L9.6 -1.8 Q8.8 -1.8 8.8 -2.6 L8.8 -5.4 M15.0 -18.8 L5.4 -18.8 Q4.4 -18.8 3.6 -18.0 3.0 -17.4 3.0 -16.0 3.0 -14.6 3.6 -14.0 4.4 -13.2 5.4 -13.2 L15.0 -13.2 Q16.0 -13.2 16.6 -14.0 17.2 -14.6 17.2 -16.0 17.2 -17.4 16.6 -18.0 16.0 -18.8 15.0 -18.8 M15.0 -25.6 L5.4 -25.6 Q4.2 -25.6 3.6 -24.8 3.0 -24.2 3.0 -22.8 3.0 -21.4 3.6 -20.8 4.2 -20.0 5.4 -20.0 L15.0 -20.0 Q16.0 -20.0 16.6 -20.8 17.2 -21.4 17.2 -22.8 17.2 -24.2 16.6 -24.8 16.0 -25.6 15.0 -25.6 M14.8 -40.8 L5.6 -40.8 Q4.4 -40.8 3.8 -40.0 3.0 -39.2 3.0 -37.8 3.0 -36.2 3.8 -35.6 4.4 -34.8 5.6 -34.8 L14.8 -34.8 Q16.0 -34.8 16.6 -35.6 17.2 -36.2 17.2 -37.8 17.2 -39.2 16.6 -40.0 16.0 -40.8 14.8 -40.8 M30.8 -41.8 L30.8 -41.8 Q29.8 -41.0 29.8 -39.6 L29.8 -38.6 21.2 -38.6 Q20.0 -38.6 19.4 -37.8 18.6 -36.8 18.6 -35.4 18.6 -34.0 19.4 -33.2 20.0 -32.4 21.2 -32.4 L29.8 -32.4 29.8 -30.0 22.8 -30.0 Q21.8 -30.0 21.2 -29.2 20.6 -28.4 20.6 -27.0 20.6 -25.6 21.2 -25.0 21.8 -24.2 22.8 -24.2 L45.0 -24.2 Q46.2 -24.2 46.8 -25.0 47.4 -25.6 47.4 -27.0 47.4 -28.4 46.8 -29.2 46.2 -30.0 45.0 -30.0 L37.0 -30.0 37.0 -32.4 46.8 -32.4 Q48.0 -32.4 48.8 -33.2 49.4 -34.0 49.4 -35.4 49.4 -36.8 48.8 -37.8 48.0 -38.6 46.8 -38.6 L37.0 -38.6 37.0 -39.6 Q37.0 -41.0 36.0 -41.8 35.0 -42.6 33.4 -42.6 31.8 -42.6 30.8 -41.8" fill-rule="evenodd" stroke="none"/>
    </g>
    <g id="font_HG_________W8__1">
      <path d="M21.8 -7.2 L21.8 -7.2 Q23.2 -9.8 25.2 -14.6 30.0 -13.6 34.6 -11.8 32.6 -6.8 29.2 -2.8 27.6 -0.6 27.2 1.0 27.2 2.8 28.8 4.2 30.2 5.4 32.0 5.4 33.4 5.4 34.6 4.2 35.8 3.2 37.6 0.4 40.0 -3.2 41.8 -8.4 L44.0 -7.2 Q45.2 -6.6 46.0 -6.6 47.6 -6.6 48.8 -8.0 50.0 -9.4 50.0 -11.2 50.0 -13.0 48.6 -14.0 47.2 -15.0 43.8 -16.8 44.4 -19.4 44.4 -20.6 L44.6 -23.6 Q44.6 -25.2 43.6 -26.2 42.6 -27.0 40.4 -27.0 38.4 -27.0 37.4 -25.8 36.8 -24.6 36.6 -22.2 L36.2 -19.6 27.8 -21.6 31.6 -31.6 Q33.2 -35.6 33.0 -36.6 33.0 -38.0 31.6 -39.2 30.4 -40.2 28.2 -40.2 L26.0 -40.2 22.4 -39.8 13.2 -39.0 Q10.8 -38.8 9.8 -37.8 8.8 -36.8 8.8 -34.8 8.8 -33.0 9.8 -32.0 10.6 -31.0 12.4 -31.0 L14.0 -31.2 21.0 -32.0 22.8 -32.2 23.2 -32.0 23.0 -31.4 19.8 -22.4 Q12.6 -21.8 8.4 -19.2 5.2 -17.0 3.2 -13.8 1.4 -10.8 1.4 -7.0 1.4 -2.4 3.8 0.0 6.2 2.6 10.2 2.6 13.8 2.6 16.4 0.4 19.2 -2.0 21.8 -7.2 M10.8 -12.4 L10.8 -12.4 Q13.2 -14.6 17.0 -15.0 L15.2 -11.2 12.6 -7.2 Q11.2 -5.2 10.2 -5.2 8.8 -5.2 8.8 -7.4 8.8 -10.4 10.8 -12.4" fill-rule="evenodd" stroke="none"/>
    </g>
    <g id="font_HG_________W8__2">
      <path d="M36.0 -39.2 L36.0 -39.2 Q34.6 -40.6 32.0 -40.4 L23.8 -40.4 Q22.6 -40.4 22.0 -39.6 21.2 -38.6 21.2 -37.0 21.2 -35.4 22.0 -34.6 22.6 -33.8 23.8 -33.8 L28.2 -33.8 Q29.4 -33.8 29.6 -33.2 L28.8 -30.0 27.6 -26.0 Q24.8 -18.8 20.2 -13.8 17.8 -11.2 17.8 -9.6 17.8 -8.4 19.0 -7.2 20.4 -6.2 21.8 -6.2 23.0 -6.2 24.2 -7.2 25.6 -8.2 27.2 -10.4 30.6 -14.8 33.2 -22.0 35.4 -15.0 38.8 -10.2 42.4 -5.0 45.0 -5.0 46.6 -5.0 47.8 -6.4 49.0 -7.6 49.0 -9.2 48.6 -10.8 47.0 -12.8 L46.0 -13.8 45.0 -14.8 Q42.0 -18.2 39.8 -23.8 38.4 -27.8 37.6 -33.4 36.8 -38.0 36.0 -39.2 M11.4 -40.0 L11.4 -40.0 Q9.8 -41.6 8.2 -41.6 6.6 -41.6 5.2 -40.4 3.8 -39.0 3.8 -37.6 3.8 -36.0 7.2 -32.8 L8.2 -31.8 9.2 -30.8 Q10.4 -29.2 12.0 -29.2 13.8 -29.2 15.2 -30.4 16.6 -31.8 16.6 -33.4 16.6 -34.2 15.6 -35.6 L11.4 -40.0 M15.0 -23.0 L15.0 -23.0 Q13.8 -24.0 11.0 -24.0 L4.6 -24.0 Q3.2 -24.0 2.6 -23.0 1.8 -22.2 1.8 -20.4 1.8 -18.8 2.6 -17.8 3.2 -17.0 4.6 -17.0 L7.4 -17.0 Q8.4 -17.0 8.4 -15.8 L8.4 -6.8 4.0 -3.0 Q1.4 -1.0 1.4 0.6 1.4 2.4 2.6 3.8 3.8 5.2 5.4 5.2 7.0 5.2 9.6 2.8 L13.8 -1.2 Q16.0 1.4 20.2 2.8 L29.8 3.8 33.8 4.0 42.6 4.0 46.2 3.8 Q47.6 3.8 48.4 3.2 49.0 3.0 49.4 1.8 L49.6 0.0 Q49.6 -2.0 48.8 -3.0 48.0 -3.8 46.2 -3.8 L42.4 -3.8 39.4 -3.6 35.2 -3.6 Q25.8 -3.6 21.8 -4.8 17.0 -6.0 16.0 -9.4 L16.0 -19.4 Q16.0 -22.0 15.0 -23.0" fill-rule="evenodd" stroke="none"/>
    </g>
    <g id="font_HG_________W8__3">
      <path d="M22.4 -41.0 L22.4 -41.0 Q21.4 -40.0 21.4 -38.6 L21.4 -34.2 8.2 -34.2 Q5.6 -34.2 4.4 -33.2 3.4 -32.0 3.4 -29.4 L3.4 -13.6 Q3.4 -10.8 4.4 -9.8 5.6 -8.8 8.2 -8.8 L21.4 -8.8 21.4 2.0 Q21.4 3.6 22.4 4.4 23.4 5.2 25.2 5.2 27.2 5.2 28.2 4.4 29.2 3.6 29.2 2.0 L29.2 -8.8 42.2 -8.8 Q45.0 -8.8 46.0 -9.8 47.0 -10.8 47.0 -13.6 L47.0 -29.4 Q47.0 -32.0 46.0 -33.2 45.0 -34.2 42.2 -34.2 L29.2 -34.2 29.2 -38.6 Q29.2 -40.0 28.2 -41.0 27.2 -41.8 25.2 -41.8 23.4 -41.8 22.4 -41.0 M29.2 -15.8 L29.2 -27.4 38.4 -27.4 Q39.4 -27.4 39.4 -26.2 L39.4 -17.0 Q39.4 -15.8 38.4 -15.8 L29.2 -15.8 M11.2 -26.2 L11.2 -26.2 Q11.2 -27.4 12.2 -27.4 L21.4 -27.4 21.4 -15.8 12.2 -15.8 Q11.2 -15.8 11.2 -17.0 L11.2 -26.2" fill-rule="evenodd" stroke="none"/>
    </g>
    <g id="font_HG_________W8_.0">
      <path d="M9.2 -6.0 L9.2 -6.0 Q7.8 -7.4 5.8 -7.4 4.0 -7.4 2.8 -6.2 1.4 -4.8 1.4 -3.0 1.4 -1.0 2.8 0.4 4.0 1.6 5.8 1.6 7.8 1.6 9.0 0.4 10.4 -1.0 10.4 -3.0 10.4 -4.8 9.2 -6.0" fill-rule="evenodd" stroke="none"/>
    </g>
    <g id="shape3" transform="matrix(1.0, 0.0, 0.0, 1.0, 146.0, 8.25)">
      <path d="M-145.0 -7.25 L145.0 -7.25 145.0 7.25 -145.0 7.25 -145.0 -7.25 Z" fill="none" stroke="#000099" stroke-linecap="round" stroke-linejoin="round" stroke-width="2.0"/>
    </g>
    <g id="shape4" transform="matrix(1.0, 0.0, 0.0, 1.0, 200.0, 212.55)">
      <path d="M500.0 0.0 L0.0 0.0 0.0 375.0 500.0 375.0 500.0 0.0 M700.0 -212.55 L700.0 587.45 -200.0 587.45 -200.0 -212.55 700.0 -212.55" fill="#ffffff" fill-rule="evenodd" stroke="none"/>
    </g>
  </defs>
</svg>
