<?xml version="1.0" encoding="UTF-8" standalone="no"?>
<svg xmlns:xlink="http://www.w3.org/1999/xlink" height="599.05px" width="110.6px" xmlns="http://www.w3.org/2000/svg">
  <g transform="matrix(1.0, 0.0, 0.0, 1.0, 55.3, 299.5)">
    <use height="599.05" transform="matrix(1.0, 0.0, 0.0, 1.0, -55.3, -299.5)" width="110.6" xlink:href="#shape0"/>
    <use height="16.1" transform="matrix(1.0, 0.0, 0.0, 1.0, 21.25, 188.1)" width="4.9" xlink:href="#shape1"/>
    <use height="16.1" transform="matrix(0.98, 0.0, 0.0, 0.98, 13.299, 153.211)" width="4.9" xlink:href="#shape1"/>
    <use height="16.1" transform="matrix(0.96, 0.0, 0.0, 0.96, 6.398, 118.4721)" width="4.9" xlink:href="#shape1"/>
    <use height="16.1" transform="matrix(0.94, 0.0, 0.0, 0.94, -1.553, 80.2331)" width="4.9" xlink:href="#shape1"/>
    <use height="16.1" transform="matrix(0.92, 0.0, 0.0, 0.92, -9.504, 43.344)" width="4.9" xlink:href="#shape1"/>
    <use height="16.1" transform="matrix(0.8, 0.0, 0.0, 0.8, -24.26, -26.9899)" width="4.9" xlink:href="#shape1"/>
    <use height="16.1" transform="matrix(0.74, 0.0, 0.0, 0.74, -28.813, -49.0069)" width="4.9" xlink:href="#shape1"/>
    <use height="16.1" transform="matrix(0.7, 0.0, 0.0, 0.7, -33.765, -70.735)" width="4.9" xlink:href="#shape1"/>
    <use height="16.1" transform="matrix(0.64, 0.0, 0.0, 0.64, -38.068, -90.702)" width="4.9" xlink:href="#shape1"/>
    <use height="16.1" transform="matrix(0.6, 0.0, 0.0, 0.6, -41.97, -110.9299)" width="4.9" xlink:href="#shape1"/>
    <use height="16.1" transform="matrix(1.0, 0.0, 0.0, -1.0, 19.75, -169.5)" width="4.9" xlink:href="#shape1"/>
    <use height="16.1" transform="matrix(0.98, 0.0, 0.0, -0.98, 12.299, -130.611)" width="4.9" xlink:href="#shape1"/>
    <use height="16.1" transform="matrix(0.96, 0.0, 0.0, -0.96, 4.898, -92.3721)" width="4.9" xlink:href="#shape1"/>
    <use height="16.1" transform="matrix(0.94, 0.0, 0.0, -0.94, -2.553, -53.1331)" width="4.9" xlink:href="#shape1"/>
    <use height="16.1" transform="matrix(0.92, 0.0, 0.0, -0.92, -10.004, -14.744)" width="4.9" xlink:href="#shape1"/>
    <use height="16.1" transform="matrix(0.8, 0.0, 0.0, -0.8, -24.26, 55.5899)" width="4.9" xlink:href="#shape1"/>
    <use height="16.1" transform="matrix(0.74, 0.0, 0.0, -0.74, -28.563, 79.1069)" width="4.9" xlink:href="#shape1"/>
    <use height="16.1" transform="matrix(0.7, 0.0, 0.0, -0.7, -32.515, 101.335)" width="4.9" xlink:href="#shape1"/>
    <use height="16.1" transform="matrix(0.64, 0.0, 0.0, -0.64, -37.318, 123.302)" width="4.9" xlink:href="#shape1"/>
    <use height="16.1" transform="matrix(0.6, 0.0, 0.0, -0.6, -41.97, 146.5299)" width="4.9" xlink:href="#shape1"/>
    <use height="16.1" transform="matrix(1.0, 0.0, 0.0, 1.0, 11.55, 232.25)" width="4.9" xlink:href="#shape1"/>
    <use height="16.1" transform="matrix(0.94, 0.0, 0.0, 0.94, 1.397, 223.5831)" width="4.9" xlink:href="#shape1"/>
    <use height="16.1" transform="matrix(0.88, 0.0, 0.0, 0.88, -7.406, 215.7161)" width="4.9" xlink:href="#shape1"/>
    <use height="16.1" transform="matrix(0.82, 0.0, 0.0, 0.82, -15.809, 208.1991)" width="4.9" xlink:href="#shape1"/>
    <use height="16.1" transform="matrix(0.76, 0.0, 0.0, 0.76, -23.662, 200.682)" width="4.9" xlink:href="#shape1"/>
    <use height="16.1" transform="matrix(0.72, 0.0, 0.0, 0.72, -31.064, 194.0541)" width="4.9" xlink:href="#shape1"/>
    <use height="16.1" transform="matrix(0.66, 0.0, 0.0, 0.66, -37.117, 188.5871)" width="4.9" xlink:href="#shape1"/>
    <use height="16.1" transform="matrix(1.0, 0.0, 0.0, 1.0, 11.55, -232.25)" width="4.9" xlink:href="#shape1"/>
    <use height="16.1" transform="matrix(0.94, 0.0, 0.0, 0.94, 1.397, -217.9169)" width="4.9" xlink:href="#shape1"/>
    <use height="16.1" transform="matrix(0.88, 0.0, 0.0, 0.88, -7.406, -205.7839)" width="4.9" xlink:href="#shape1"/>
    <use height="16.1" transform="matrix(0.82, 0.0, 0.0, 0.82, -15.809, -193.8009)" width="4.9" xlink:href="#shape1"/>
    <use height="16.1" transform="matrix(0.76, 0.0, 0.0, 0.76, -23.662, -182.318)" width="4.9" xlink:href="#shape1"/>
    <use height="16.1" transform="matrix(0.72, 0.0, 0.0, 0.72, -31.064, -171.9459)" width="4.9" xlink:href="#shape1"/>
    <use height="16.1" transform="matrix(0.66, 0.0, 0.0, 0.66, -37.117, -163.9129)" width="4.9" xlink:href="#shape1"/>
    <use height="16.1" transform="matrix(1.3, 0.0, 0.0, 1.3, 40.015, 174.5851)" width="4.9" xlink:href="#shape1"/>
    <use height="16.1" transform="matrix(1.3, 0.0, 0.0, 1.3, 40.015, 115.4351)" width="4.9" xlink:href="#shape1"/>
    <use height="16.1" transform="matrix(1.3, 0.0, 0.0, 1.3, 40.015, 56.2851)" width="4.9" xlink:href="#shape1"/>
    <use height="16.1" transform="matrix(1.3, 0.0, 0.0, 1.3, 40.015, -2.8649)" width="4.9" xlink:href="#shape1"/>
    <use height="16.1" transform="matrix(1.3, 0.0, 0.0, 1.3, 40.015, -62.0149)" width="4.9" xlink:href="#shape1"/>
    <use height="16.1" transform="matrix(1.3, 0.0, 0.0, 1.3, 40.015, -121.1649)" width="4.9" xlink:href="#shape1"/>
    <use height="16.1" transform="matrix(1.3, 0.0, 0.0, 1.3, 40.015, -180.3149)" width="4.9" xlink:href="#shape1"/>
    <use height="16.1" transform="matrix(0.6, 0.0, 0.0, -0.6, -52.22, 136.0299)" width="4.9" xlink:href="#shape1"/>
    <use height="16.1" transform="matrix(0.6, 0.0, 0.0, -0.6, -52.22, 99.7799)" width="4.9" xlink:href="#shape1"/>
    <use height="16.1" transform="matrix(0.6, 0.0, 0.0, -0.6, -52.22, 63.5299)" width="4.9" xlink:href="#shape1"/>
    <use height="16.1" transform="matrix(0.6, 0.0, 0.0, -0.6, -52.22, 27.2799)" width="4.9" xlink:href="#shape1"/>
    <use height="16.1" transform="matrix(0.6, 0.0, 0.0, -0.6, -52.22, -8.9701)" width="4.9" xlink:href="#shape1"/>
    <use height="16.1" transform="matrix(0.6, 0.0, 0.0, -0.6, -52.22, -45.2201)" width="4.9" xlink:href="#shape1"/>
    <use height="16.1" transform="matrix(0.6, 0.0, 0.0, -0.6, -52.22, -81.4701)" width="4.9" xlink:href="#shape1"/>
    <use height="16.1" transform="matrix(0.66, 0.0, 0.0, 0.66, -46.117, 183.5871)" width="4.9" xlink:href="#shape1"/>
    <use height="16.1" transform="matrix(0.6, 0.0, 0.0, -0.6, -53.22, 158.5299)" width="4.9" xlink:href="#shape1"/>
    <use height="16.1" transform="matrix(0.66, 0.0, 0.0, 0.66, -46.617, 167.5871)" width="4.9" xlink:href="#shape1"/>
    <use height="16.1" transform="matrix(0.6, 0.0, 0.0, -0.6, -48.22, 165.5299)" width="4.9" xlink:href="#shape1"/>
    <use height="16.1" transform="matrix(0.6, 0.0, 0.0, -0.6, -53.22, 187.5299)" width="4.9" xlink:href="#shape1"/>
    <use height="16.1" transform="matrix(0.66, 0.0, 0.0, 0.66, -46.617, -155.4129)" width="4.9" xlink:href="#shape1"/>
    <use height="16.1" transform="matrix(0.6, 0.0, 0.0, -0.6, -53.22, -107.4701)" width="4.9" xlink:href="#shape1"/>
    <use height="16.1" transform="matrix(0.6, 0.0, 0.0, -0.6, -53.22, -136.9701)" width="4.9" xlink:href="#shape1"/>
    <use height="16.1" transform="matrix(0.6, 0.0, 0.0, -0.6, -49.72, -118.4701)" width="4.9" xlink:href="#shape1"/>
    <use height="16.1" transform="matrix(0.66, 0.0, 0.0, 0.66, -47.617, -140.4129)" width="4.9" xlink:href="#shape1"/>
    <use height="16.1" transform="matrix(1.3, 0.0, 0.0, 1.3, 44.015, -234.8149)" width="4.9" xlink:href="#shape1"/>
    <use height="16.1" transform="matrix(1.3, 0.0, 0.0, 1.3, 44.015, -279.8149)" width="4.9" xlink:href="#shape1"/>
    <use height="16.1" transform="matrix(1.0, 0.0, 0.0, 1.0, 25.05, -253.75)" width="4.9" xlink:href="#shape1"/>
    <use height="16.1" transform="matrix(1.0, 0.0, 0.0, 1.0, 25.05, -231.75)" width="4.9" xlink:href="#shape1"/>
    <use height="16.1" transform="matrix(1.3, 0.0, 0.0, 1.3, 31.015, -219.8149)" width="4.9" xlink:href="#shape1"/>
    <use height="16.1" transform="matrix(1.3, 0.0, 0.0, 1.3, 44.015, 220.0851)" width="4.9" xlink:href="#shape1"/>
    <use height="16.1" transform="matrix(1.3, 0.0, 0.0, 1.3, 44.015, 262.5851)" width="4.9" xlink:href="#shape1"/>
    <use height="16.1" transform="matrix(1.1, 0.0, 0.0, 1.1, 24.805, 247.9451)" width="4.9" xlink:href="#shape1"/>
    <use height="16.1" transform="matrix(1.1, 0.0, 0.0, 1.1, 24.805, 223.4451)" width="4.9" xlink:href="#shape1"/>
    <use height="16.1" transform="matrix(1.1, 0.0, 0.0, 1.1, 30.805, 209.9451)" width="4.9" xlink:href="#shape1"/>
  </g>
  <defs>
    <g id="shape0" transform="matrix(1.0, 0.0, 0.0, 1.0, 55.3, 299.5)">
      <path d="M22.1 -253.3 L21.7 -252.75 22.1 -253.3 M21.7 -252.75 L21.7 -252.25 21.35 -252.25 21.7 -252.75 21.35 -252.25 21.7 -252.75 M22.15 266.2 L21.65 265.7 20.9 264.95 21.65 265.65 22.15 266.2 M21.65 265.7 L21.65 265.65 21.65 265.7" fill="#7d8285" fill-rule="evenodd" stroke="none"/>
      <path d="M21.7 -252.25 L21.7 -214.05 -39.35 -140.0 -39.35 -167.8 21.35 -252.25 21.7 -252.25" fill="url(#gradient0)" fill-rule="evenodd" stroke="none"/>
      <path d="M21.7 -252.75 L22.1 -253.3 55.05 -299.25 55.05 -212.9 32.55 -189.35 31.95 -190.7 22.8 -211.5 21.7 -214.0 21.7 -214.05 21.7 -252.25 21.7 -252.75" fill="url(#gradient1)" fill-rule="evenodd" stroke="none"/>
      <path d="M21.7 -214.05 L21.7 -214.0 22.8 -211.5 22.05 -207.6 -40.0 -134.3 -14.2 -15.85 -15.15 -10.8 -41.75 -133.15 -40.9 -138.1 -40.9 -138.15 -40.9 -165.6 -39.35 -167.8 -39.35 -140.0 21.7 -214.05 M31.95 -190.7 L32.55 -189.35 55.05 -212.9 55.05 -209.85 32.55 -186.55 32.55 -184.05 -7.8 13.55 32.55 198.55 32.55 200.85 55.05 216.0 55.05 219.45 32.55 203.95 31.95 205.25 -9.8 13.8 31.95 -190.7 M-39.35 204.25 L-40.9 202.65 -40.9 175.15 -41.75 170.65 -15.1 39.95 -14.15 44.7 -39.8 170.95 22.1 220.35 22.9 224.4 21.7 227.0 21.65 227.0 -39.35 176.4 -40.9 175.15 -39.35 176.4 -39.35 204.25 M-54.95 143.7 L-54.95 142.0 -45.95 148.05 -45.95 -105.4 -45.95 -107.25 -45.95 -105.4 -54.95 -96.1 -54.95 -97.85 -45.95 -107.25 -45.5 -107.75 -42.95 -95.5 -42.95 136.9 -45.5 150.25 -45.95 149.9 -45.95 148.05 -45.95 149.9 -54.95 143.7 M32.55 -186.55 L32.55 -189.35 32.55 -186.55 M32.55 200.85 L32.55 203.95 32.55 200.85 M-40.9 -138.15 L-39.35 -140.0 -40.9 -138.15" fill="#32383c" fill-rule="evenodd" stroke="none"/>
      <path d="M22.8 -211.5 L31.95 -190.7 -9.8 13.8 -15.1 39.9 -15.1 39.95 -41.75 170.65 -45.45 150.25 -45.5 150.25 -42.95 136.9 -20.05 15.6 -15.15 -10.8 -14.2 -15.85 22.05 -207.6 22.8 -211.5 M-9.8 13.8 L-15.15 -10.8 -9.8 13.8 M-15.1 39.9 L-20.05 15.6 -15.1 39.9" fill="url(#gradient2)" fill-rule="evenodd" stroke="none"/>
      <path d="M55.05 -209.85 L55.05 216.0 32.55 200.85 32.55 198.55 32.55 -184.05 32.55 -186.55 55.05 -209.85" fill="url(#gradient3)" fill-rule="evenodd" stroke="none"/>
      <path d="M55.05 219.45 L55.05 299.3 22.15 266.2 21.65 265.65 21.65 227.0 21.7 227.0 22.9 224.4 31.95 205.25 32.55 203.95 55.05 219.45 M23.8 228.7 L23.8 228.65 23.75 228.65 23.75 228.7 23.8 228.7" fill="url(#gradient4)" fill-rule="evenodd" stroke="none"/>
      <path d="M22.9 224.4 L22.1 220.35 -14.15 44.7 -15.1 39.95 -15.1 39.9 -9.8 13.8 31.95 205.25 22.9 224.4 M-42.95 -95.5 L-45.5 -107.75 -45.7 -108.85 -41.75 -133.15 -15.15 -10.8 -20.05 15.6 -42.95 -95.5" fill="url(#gradient5)" fill-rule="evenodd" stroke="none"/>
      <path d="M20.9 264.95 L-39.35 204.25 -39.35 176.4 21.65 227.0 21.65 265.65 20.9 264.95" fill="url(#gradient6)" fill-rule="evenodd" stroke="none"/>
      <path d="M32.55 -184.05 L32.55 198.55 -7.8 13.55 32.55 -184.05" fill="url(#gradient7)" fill-rule="evenodd" stroke="none"/>
      <path d="M-54.95 -97.85 L-54.95 -146.1 -40.9 -165.6 -40.9 -138.15 -40.9 -138.1 -41.75 -133.15 -45.7 -108.85 -45.95 -107.25 -54.95 -97.85" fill="url(#gradient8)" fill-rule="evenodd" stroke="none"/>
      <path d="M-45.5 -107.75 L-45.95 -107.25 -45.7 -108.85 -45.5 -107.75" fill="#4a4f55" fill-rule="evenodd" stroke="none"/>
      <path d="M-54.95 142.0 L-54.95 -96.1 -45.95 -105.4 -45.95 148.05 -54.95 142.0" fill="url(#gradient9)" fill-rule="evenodd" stroke="none"/>
      <path d="M-14.2 -15.85 L-40.0 -134.3 22.05 -207.6 -14.2 -15.85" fill="url(#gradient10)" fill-rule="evenodd" stroke="none"/>
      <path d="M-40.9 202.65 L-55.0 188.55 -54.95 188.5 -54.95 143.7 -45.95 149.9 -45.5 150.25 -45.45 150.25 -41.75 170.65 -40.9 175.15 -40.9 202.65" fill="url(#gradient11)" fill-rule="evenodd" stroke="none"/>
      <path d="M22.1 220.35 L-39.8 170.95 -14.15 44.7 22.1 220.35" fill="url(#gradient12)" fill-rule="evenodd" stroke="none"/>
      <path d="M-42.95 136.9 L-42.95 -95.5 -20.05 15.6 -42.95 136.9" fill="url(#gradient13)" fill-rule="evenodd" stroke="none"/>
      <path d="M21.7 -252.75 L22.1 -253.3 M21.7 -252.75 L21.7 -252.25 21.7 -214.05 21.7 -214.0 22.8 -211.5 31.95 -190.7 32.55 -189.35 55.05 -212.9 55.05 -299.25 22.1 -253.3 M21.7 -252.75 L21.35 -252.25 -39.35 -167.8 M-39.35 -140.0 L21.7 -214.05 M22.05 -207.6 L22.8 -211.5 M55.05 -212.9 L55.05 -209.85 55.05 216.0 55.05 219.45 55.05 299.3 22.15 266.2 M20.9 264.95 L-39.35 204.25 -40.9 202.65 -55.0 188.55 -55.05 188.5 -54.95 188.5 -54.95 143.7 -54.95 142.0 -54.95 -96.1 -54.95 -97.85 -54.95 -146.1 -40.9 -165.6 -39.35 -167.8 M32.55 -189.35 L32.55 -186.55 32.55 -184.05 32.55 198.55 32.55 200.85 M31.95 205.25 L32.55 203.95 32.55 200.85 M21.65 227.0 L21.7 227.0 22.9 224.4 22.1 220.35 M-14.15 44.7 L-15.1 39.95 -41.75 170.65 -40.9 175.15 -39.35 176.4 21.65 227.0 21.65 265.65 22.15 266.2 M22.9 224.4 L31.95 205.25 -9.8 13.8 -15.1 39.9 -15.1 39.95 M21.65 265.65 L20.9 264.95 M21.65 265.65 L21.65 265.7 M32.55 203.95 L55.05 219.45 M-45.5 -107.75 L-45.95 -107.25 -45.95 -105.4 -45.95 148.05 -45.95 149.9 -45.5 150.25 -42.95 136.9 -20.05 15.6 -42.95 -95.5 -45.5 -107.75 -45.7 -108.85 -45.95 -107.25 -54.95 -97.85 M-45.7 -108.85 L-41.75 -133.15 -40.9 -138.1 -40.9 -138.15 -40.9 -165.6 M-39.35 -140.0 L-40.9 -138.15 M-15.15 -10.8 L-14.2 -15.85 M22.05 -207.6 L-14.2 -15.85 M-41.75 -133.15 L-15.15 -10.8 -9.8 13.8 31.95 -190.7 M-20.05 15.6 L-15.1 39.9 M-45.5 150.25 L-45.45 150.25 -41.75 170.65 M-54.95 143.7 L-45.95 149.9 M-40.9 175.15 L-40.9 202.65 M-20.05 15.6 L-15.15 -10.8 M-14.15 44.7 L22.1 220.35" fill="none" stroke="#424546" stroke-linecap="round" stroke-linejoin="round" stroke-width="0.5"/>
    </g>
    <linearGradient gradientTransform="matrix(0.0096, 0.0077, -0.0464, 0.0581, -7.85, -196.0)" gradientUnits="userSpaceOnUse" id="gradient0" spreadMethod="pad" x1="-819.2" x2="819.2">
      <stop offset="0.0" stop-color="#676b72"/>
      <stop offset="0.25882352941176473" stop-color="#80858b"/>
      <stop offset="0.807843137254902" stop-color="#81868c"/>
      <stop offset="1.0" stop-color="#676b72"/>
    </linearGradient>
    <radialGradient cx="0" cy="0" gradientTransform="matrix(0.0305, 0.0068, -0.0138, 0.0621, 39.05, -230.7)" gradientUnits="userSpaceOnUse" id="gradient1" r="819.2" spreadMethod="pad">
      <stop offset="0.0" stop-color="#80858b"/>
      <stop offset="1.0" stop-color="#6b6f76"/>
    </radialGradient>
    <linearGradient gradientTransform="matrix(0.006, 0.0012, -0.1954, 0.9799, 7.7, -106.05)" gradientUnits="userSpaceOnUse" id="gradient2" spreadMethod="pad" x1="-819.2" x2="819.2">
      <stop offset="0.0" stop-color="#676b72"/>
      <stop offset="0.25882352941176473" stop-color="#80858b"/>
      <stop offset="0.807843137254902" stop-color="#81868c"/>
      <stop offset="1.0" stop-color="#676b72"/>
    </linearGradient>
    <linearGradient gradientTransform="matrix(0.0145, 0.0, 0.0, 0.2547, 43.2, 14.95)" gradientUnits="userSpaceOnUse" id="gradient3" spreadMethod="pad" x1="-819.2" x2="819.2">
      <stop offset="0.0" stop-color="#676b72"/>
      <stop offset="0.25882352941176473" stop-color="#80858b"/>
      <stop offset="0.807843137254902" stop-color="#81868c"/>
      <stop offset="1.0" stop-color="#676b72"/>
    </linearGradient>
    <radialGradient cx="0" cy="0" gradientTransform="matrix(0.0249, -0.0075, 0.0163, 0.054, 35.05, 236.3)" gradientUnits="userSpaceOnUse" id="gradient4" r="819.2" spreadMethod="pad">
      <stop offset="0.0" stop-color="#80858b"/>
      <stop offset="1.0" stop-color="#6b6f76"/>
    </radialGradient>
    <linearGradient gradientTransform="matrix(0.0071, -0.0016, 0.026, 0.1192, 0.95, 96.2)" gradientUnits="userSpaceOnUse" id="gradient5" spreadMethod="pad" x1="-819.2" x2="819.2">
      <stop offset="0.0" stop-color="#676b72"/>
      <stop offset="0.25882352941176473" stop-color="#80858b"/>
      <stop offset="0.807843137254902" stop-color="#81868c"/>
      <stop offset="1.0" stop-color="#676b72"/>
    </linearGradient>
    <linearGradient gradientTransform="matrix(0.0116, -0.0132, 0.0347, 0.0303, -8.1, 218.75)" gradientUnits="userSpaceOnUse" id="gradient6" spreadMethod="pad" x1="-819.2" x2="819.2">
      <stop offset="0.0" stop-color="#676b72"/>
      <stop offset="0.25882352941176473" stop-color="#80858b"/>
      <stop offset="0.807843137254902" stop-color="#81868c"/>
      <stop offset="1.0" stop-color="#676b72"/>
    </linearGradient>
    <radialGradient cx="0" cy="0" gradientTransform="matrix(0.0397, 0.0, 0.0, 0.2477, 22.5, 6.8)" gradientUnits="userSpaceOnUse" id="gradient7" r="819.2" spreadMethod="pad">
      <stop offset="0.0" stop-color="#4c5059"/>
      <stop offset="1.0" stop-color="#424749"/>
    </radialGradient>
    <radialGradient cx="0" cy="0" gradientTransform="matrix(0.0131, -0.003, 0.0098, 0.0424, -49.95, -137.2)" gradientUnits="userSpaceOnUse" id="gradient8" r="819.2" spreadMethod="pad">
      <stop offset="0.0" stop-color="#80858b"/>
      <stop offset="1.0" stop-color="#6b6f76"/>
    </radialGradient>
    <linearGradient gradientTransform="matrix(0.0056, 0.0, 0.0, 0.1516, -50.75, 21.8)" gradientUnits="userSpaceOnUse" id="gradient9" spreadMethod="pad" x1="-819.2" x2="819.2">
      <stop offset="0.0" stop-color="#676b72"/>
      <stop offset="0.25882352941176473" stop-color="#80858b"/>
      <stop offset="0.807843137254902" stop-color="#81868c"/>
      <stop offset="1.0" stop-color="#676b72"/>
    </linearGradient>
    <radialGradient cx="0" cy="0" gradientTransform="matrix(0.0507, 0.0, 0.0, 0.1353, -15.5, -125.2)" gradientUnits="userSpaceOnUse" id="gradient10" r="819.2" spreadMethod="pad">
      <stop offset="0.0" stop-color="#4c5059"/>
      <stop offset="1.0" stop-color="#424749"/>
    </radialGradient>
    <radialGradient cx="0" cy="0" gradientTransform="matrix(0.0174, 0.0057, -0.0115, 0.0351, -48.45, 173.3)" gradientUnits="userSpaceOnUse" id="gradient11" r="819.2" spreadMethod="pad">
      <stop offset="0.0" stop-color="#80858b"/>
      <stop offset="1.0" stop-color="#6b6f76"/>
    </radialGradient>
    <radialGradient cx="0" cy="0" gradientTransform="matrix(0.0525, 0.0, 0.0, 0.1356, -13.5, 158.8)" gradientUnits="userSpaceOnUse" id="gradient12" r="819.2" spreadMethod="pad">
      <stop offset="0.0" stop-color="#4c5059"/>
      <stop offset="1.0" stop-color="#424749"/>
    </radialGradient>
    <radialGradient cx="0" cy="0" gradientTransform="matrix(0.0165, 0.0, 0.0, 0.1542, -35.5, 16.3)" gradientUnits="userSpaceOnUse" id="gradient13" r="819.2" spreadMethod="pad">
      <stop offset="0.0" stop-color="#4c5059"/>
      <stop offset="1.0" stop-color="#424749"/>
    </radialGradient>
    <g id="shape1" transform="matrix(1.0, 0.0, 0.0, 1.0, 2.45, 8.05)">
      <path d="M1.9 -3.95 L2.2 0.0 Q2.15 3.2 1.55 5.5 0.9 7.8 0.0 7.8 -0.95 7.8 -1.55 5.5 L-1.9 3.9 1.9 -3.95 -1.9 3.9 -2.2 0.0 Q-2.2 -3.25 -1.55 -5.55 -0.95 -7.85 0.0 -7.8 0.9 -7.85 1.55 -5.55 L1.9 -3.95" fill="url(#gradient14)" fill-rule="evenodd" stroke="none"/>
      <path d="M1.9 -3.95 L-1.9 3.9" fill="none" stroke="#585b5c" stroke-linecap="round" stroke-linejoin="round" stroke-width="1.0"/>
      <path d="M-1.9 3.9 L-1.55 5.5 Q-0.95 7.8 0.0 7.8 0.9 7.8 1.55 5.5 2.15 3.2 2.2 0.0 L1.9 -3.95 M-1.9 3.9 L-2.2 0.0 Q-2.2 -3.25 -1.55 -5.55 -0.95 -7.85 0.0 -7.8 0.9 -7.85 1.55 -5.55 L1.9 -3.95 Z" fill="none" stroke="#485253" stroke-linecap="round" stroke-linejoin="round" stroke-width="0.5"/>
    </g>
    <radialGradient cx="0" cy="0" gradientTransform="matrix(0.0027, 0.0, 0.0, 0.009, -1.1, -0.4)" gradientUnits="userSpaceOnUse" id="gradient14" r="819.2" spreadMethod="pad">
      <stop offset="0.0" stop-color="#9b9fa4"/>
      <stop offset="1.0" stop-color="#5d6268"/>
    </radialGradient>
  </defs>
</svg>
