<?xml version="1.0" encoding="UTF-8" standalone="no"?>
<svg xmlns:xlink="http://www.w3.org/1999/xlink" height="20.35px" width="25.75px" xmlns="http://www.w3.org/2000/svg">
  <g transform="matrix(1.0, 0.0, 0.0, 1.0, 1.55, 2.1)">
    <use height="6.05" transform="matrix(0.5517, -0.0314, 0.0314, 0.5517, 18.2698, 6.9487)" width="5.2" xlink:href="#shape0"/>
    <use height="6.05" transform="matrix(0.4663, -0.2178, 0.2178, 0.4663, 13.2732, 4.7443)" width="5.2" xlink:href="#shape0"/>
    <use height="6.05" transform="matrix(0.3262, -0.3482, 0.3482, 0.3262, 6.89, -0.2896)" width="5.2" xlink:href="#shape0"/>
  </g>
  <defs>
    <g id="shape0" transform="matrix(1.0, 0.0, 0.0, 1.0, 2.6, 3.05)">
      <path d="M0.6 -1.05 L-1.45 -2.15 Q-0.2 -0.7 -0.3 0.0 L-0.05 1.6 0.8 2.55 1.75 2.65 2.25 2.0 Q2.4 1.45 1.85 0.5 L0.6 -1.05 M0.8 -1.3 L2.15 0.35 Q2.75 1.45 2.55 2.1 2.35 2.8 1.85 2.95 L0.7 2.85 Q0.05 2.55 -0.25 1.7 -0.6 0.9 -0.55 0.0 -0.5 -0.9 -2.6 -3.05 L0.8 -1.3" fill="#6699cc" fill-rule="evenodd" stroke="none"/>
      <path d="M0.6 -1.05 L1.85 0.5 Q2.4 1.45 2.25 2.0 L1.75 2.65 0.8 2.55 -0.05 1.6 -0.3 0.0 Q-0.2 -0.7 -1.45 -2.15 L0.6 -1.05" fill="#ffffff" fill-rule="evenodd" stroke="none"/>
    </g>
  </defs>
</svg>
