<?xml version="1.0" encoding="UTF-8" standalone="no"?>
<svg xmlns:xlink="http://www.w3.org/1999/xlink" height="72.6px" width="83.9px" xmlns="http://www.w3.org/2000/svg">
  <g transform="matrix(1.0, 0.0, 0.0, 1.0, 43.85, 36.3)">
    <use height="62.85" transform="matrix(1.0, 0.0, 0.0, 1.0, -42.7, -32.45)" width="80.55" xlink:href="#shape0"/>
  </g>
  <defs>
    <g id="shape0" transform="matrix(1.0, 0.0, 0.0, 1.0, 42.7, 32.45)">
      <path d="M6.7 -32.15 L8.05 -32.4 8.55 -32.45 Q11.1 -31.3 10.8 -28.4 10.0 -20.95 6.05 -14.55 L5.45 -13.5 8.7 -10.65 Q13.25 -14.6 18.3 -18.1 23.0 -21.35 28.55 -23.15 L35.05 -23.35 Q38.75 -21.95 37.55 -18.5 36.25 -15.3 33.25 -13.85 26.5 -10.8 19.65 -8.35 L11.85 -5.45 12.2 -3.4 Q13.1 1.7 10.85 6.8 L9.6 8.55 9.8 8.95 9.95 9.55 Q10.95 13.9 7.25 17.1 L6.05 18.05 4.7 18.85 2.45 19.85 1.65 20.3 Q-5.15 23.15 -11.55 26.95 -14.85 28.9 -18.6 29.85 L-18.85 29.8 Q-23.55 31.2 -28.75 29.3 L-30.5 28.6 Q-32.45 28.0 -34.0 26.5 -37.9 22.6 -39.75 17.7 L-40.1 16.85 -40.15 16.25 -40.2 15.85 Q-41.3 14.35 -41.55 12.75 -43.25 9.9 -42.4 6.2 -41.9 3.85 -40.8 1.95 L-40.25 1.05 -38.15 -1.4 -37.0 -2.5 Q-36.55 -4.5 -35.35 -6.2 -34.3 -7.8 -32.55 -8.35 L-31.0 -8.7 -29.9 -8.6 -29.65 -8.55 Q-27.5 -8.0 -26.65 -6.2 -21.9 -6.0 -17.4 -4.3 L-17.15 -4.25 -16.15 -3.85 -15.15 -4.0 Q-14.35 -6.65 -12.7 -8.85 L-12.9 -9.0 -12.65 -9.35 Q-14.0 -10.15 -14.05 -12.2 L-13.8 -12.6 -13.7 -12.6 -13.65 -12.4 -13.7 -12.3 Q-13.25 -10.75 -12.05 -9.9 L-12.05 -9.95 -11.95 -10.05 Q-12.9 -11.1 -12.95 -12.6 -13.1 -13.4 -12.6 -13.55 -12.5 -11.75 -11.45 -10.65 L-11.3 -10.75 -11.25 -10.85 -11.35 -11.0 Q-11.95 -12.75 -11.05 -13.95 -11.3 -12.75 -10.85 -11.55 L-10.9 -11.45 -10.8 -11.4 -9.2 -13.35 -7.75 -14.65 Q-5.35 -16.05 -2.7 -16.0 L-0.75 -15.95 0.15 -15.8 Q0.65 -22.35 3.25 -28.65 3.95 -30.75 5.9 -31.9 L6.7 -32.15 M7.95 -5.9 Q7.1 -7.0 7.3 -8.65 7.2 -8.6 7.15 -8.7 L7.15 -8.85 Q7.1 -9.0 7.2 -9.15 L7.35 -9.5 7.6 -9.75 7.95 -10.05 Q4.85 -13.45 -0.1 -14.75 L-2.15 -15.15 Q-3.75 -15.05 -5.2 -14.45 L-4.15 -14.15 Q-4.2 -13.2 -6.05 -13.35 L-7.35 -13.45 -8.6 -12.5 -8.55 -12.5 -8.4 -12.5 -8.25 -12.45 -7.8 -12.3 -7.55 -12.05 -7.4 -11.9 Q-7.25 -9.0 -9.15 -6.4 L-12.25 -2.75 -10.8 -1.0 -10.75 -0.85 -10.65 -0.65 -10.45 -0.75 Q-9.8 -3.7 -7.65 -6.15 -5.85 -8.2 -3.5 -9.15 -1.35 -10.7 1.3 -9.8 3.05 -7.8 2.9 -5.4 L5.2 -5.45 5.25 -5.45 Q5.0 -7.15 4.25 -8.75 L3.75 -9.9 1.45 -11.6 3.35 -11.3 Q5.85 -9.6 6.25 -6.5 L6.25 -6.4 6.25 -5.85 6.45 -5.85 6.5 -5.85 6.25 -5.6 5.9 -4.3 5.25 -3.2 5.3 -3.8 Q3.75 -2.9 2.3 -3.1 L2.2 -2.8 Q3.7 -2.25 5.55 -2.75 5.55 -2.75 5.65 -2.7 4.2 -1.4 2.35 -1.65 L2.25 -1.65 1.65 -1.75 0.75 -0.1 Q-1.0 2.65 -3.55 4.25 -1.55 6.15 0.7 7.1 3.85 8.4 7.55 8.2 L8.8 8.1 9.45 6.9 9.85 6.45 Q11.75 2.1 11.55 -2.4 L11.45 -2.75 Q11.45 -3.65 11.1 -4.35 L10.95 -5.05 10.4 -4.9 10.2 -4.6 10.1 -4.45 Q8.65 -4.95 7.95 -5.9 M-0.05 -9.3 L-1.4 -9.15 -2.1 -8.8 -1.9 -8.6 Q-0.7 -7.65 -0.05 -6.4 0.75 -5.9 1.6 -5.7 L1.85 -5.6 Q1.75 -7.25 1.15 -8.75 L-0.05 -9.3 M2.6 -4.05 L5.35 -3.9 5.3 -4.9 Q4.15 -4.35 2.7 -4.4 L2.6 -4.05 M0.65 -3.55 L1.1 -3.3 1.15 -3.45 0.7 -3.75 0.65 -3.55 M1.7 -4.2 L1.8 -4.55 1.5 -4.65 0.45 -5.0 1.05 -4.45 1.45 -4.3 1.7 -4.2 M6.15 16.65 L6.7 16.4 Q8.1 15.65 8.65 14.15 L8.95 13.35 9.1 12.45 Q9.4 10.75 8.95 9.1 2.5 10.5 -2.95 6.2 L-3.85 5.35 -4.35 4.75 -4.35 4.7 -5.5 5.25 -6.55 5.65 -7.2 5.75 -7.45 5.75 -8.1 5.7 -8.55 5.7 Q-8.35 8.05 -8.75 10.4 L-8.8 10.7 Q-9.0 11.4 -9.45 11.8 -9.6 11.2 -9.35 10.4 L-9.35 9.55 Q-9.1 4.75 -11.15 0.75 L-12.45 -1.5 -14.15 -2.75 Q-16.4 -3.75 -18.6 -1.45 L-19.6 -0.25 Q-21.05 1.6 -21.55 4.0 L-21.75 5.05 -21.75 5.1 -22.05 5.5 -22.2 5.5 -22.25 5.45 -22.4 5.2 -22.55 4.6 -22.55 4.5 -22.15 3.25 -21.6 1.6 Q-21.1 0.3 -20.25 -0.75 L-19.9 -1.25 Q-18.8 -2.4 -17.5 -3.2 L-19.8 -4.1 Q-23.8 -5.35 -28.05 -5.25 L-29.0 -5.35 -29.1 -5.45 -29.05 -5.65 -29.0 -5.7 -28.65 -5.9 -28.55 -6.0 -28.45 -6.05 -28.25 -6.05 -27.95 -6.05 -27.8 -6.1 -27.85 -6.2 -27.75 -6.45 Q-28.7 -7.45 -30.05 -7.6 L-31.5 -7.6 -31.75 -7.65 Q-33.95 -6.6 -34.9 -4.4 L-35.2 -3.65 -35.3 -3.5 -34.65 -3.75 -34.3 -3.75 Q-34.55 -3.2 -35.05 -2.8 L-35.85 -2.2 -35.9 -2.1 -36.05 -2.0 -36.15 -1.95 -36.15 -2.0 -36.8 -1.65 -38.1 -0.15 -38.6 0.45 -38.95 0.95 Q-41.7 5.15 -40.85 10.45 L-40.4 11.5 -40.35 11.6 Q-40.55 11.85 -40.4 12.25 L-39.5 14.8 -39.45 15.2 -39.4 15.35 Q-37.65 18.05 -34.15 19.6 -23.15 24.35 -11.85 20.1 L-6.5 18.0 Q-4.3 16.9 -2.2 15.6 -1.15 14.7 0.05 14.15 L-1.5 13.65 -1.55 13.55 -1.5 13.4 -1.45 13.2 -0.9 13.05 0.1 13.05 Q2.85 13.9 2.95 16.65 L2.9 16.65 2.8 16.75 2.35 16.8 Q1.9 15.55 1.0 14.8 L0.5 14.8 0.3 14.95 0.2 15.1 Q-5.75 19.45 -13.05 21.6 -19.05 23.4 -25.3 22.95 -33.0 22.3 -38.75 17.4 L-38.9 17.35 -38.45 18.5 Q-36.8 22.8 -32.8 26.0 L-29.95 27.8 Q-23.55 30.6 -17.05 28.45 L-15.9 28.0 -12.2 26.3 -7.75 23.9 -5.75 22.9 Q-2.9 21.2 0.15 19.85 L6.15 16.65 M5.2 15.05 L5.25 15.2 5.2 15.2 5.15 15.3 5.1 15.35 5.2 15.05 M-17.3 -3.4 L-17.45 -3.25 -17.5 -3.2 -17.45 -3.2 -17.35 -3.3 -17.3 -3.35 -16.85 -3.55 -17.3 -3.4 M-8.35 -11.75 L-8.75 -11.5 -8.75 -11.4 -9.9 -10.55 -9.5 -9.95 -9.0 -9.85 -8.95 -9.85 -8.65 -9.7 -8.2 -10.7 -8.0 -11.1 -8.1 -11.4 -8.15 -11.6 -8.35 -11.75 M-11.65 -8.85 L-12.2 -8.2 -14.2 -4.9 -14.3 -4.1 -14.45 -3.85 -14.05 -3.75 Q-14.0 -4.65 -13.25 -5.65 L-12.5 -6.4 -11.55 -6.85 -11.45 -6.8 -11.3 -6.85 -10.85 -6.65 -10.8 -6.65 -10.55 -6.5 -10.35 -6.4 -8.9 -9.05 -9.4 -9.15 -9.8 -9.15 -10.0 -9.05 -10.65 -9.1 -10.95 -9.1 -11.0 -8.9 -11.1 -8.8 -11.45 -8.9 -11.65 -8.85 M-2.75 -8.55 Q-4.85 -7.7 -6.3 -6.0 -6.45 -5.85 -6.65 -5.85 L-7.7 -4.55 -7.1 -4.6 -6.75 -4.65 Q-3.65 -3.15 -4.75 0.25 L-4.85 0.7 -5.6 2.0 Q-6.15 2.7 -6.95 3.2 L-7.95 3.65 -8.85 3.75 -8.75 4.75 -7.7 5.0 -7.0 4.8 -4.3 3.55 Q-2.45 2.4 -1.0 0.7 L-0.65 0.3 -0.7 0.15 -0.65 -0.1 Q-0.25 -2.85 -0.95 -5.5 L-1.45 -7.25 -2.6 -8.45 -2.75 -8.55 M-14.35 2.65 Q-12.7 4.65 -12.65 7.45 -12.65 9.8 -14.6 10.95 L-14.7 11.0 Q-16.0 10.85 -16.7 9.7 -18.05 6.7 -16.6 3.8 L-16.35 3.25 -16.2 3.1 -16.0 3.05 -16.0 2.85 -15.85 2.75 Q-15.6 2.55 -15.3 2.5 L-15.1 2.4 -14.55 2.6 -14.35 2.65" fill="#000000" fill-rule="evenodd" stroke="none"/>
      <path d="M-8.6 -12.5 L-7.35 -13.45 -6.05 -13.35 Q-4.2 -13.2 -4.15 -14.15 L-5.2 -14.45 Q-3.75 -15.05 -2.15 -15.15 L-0.1 -14.75 Q4.85 -13.45 7.95 -10.05 L7.6 -9.75 7.35 -9.5 7.2 -9.15 Q7.1 -9.0 7.15 -8.85 L7.15 -8.7 Q7.2 -8.6 7.3 -8.65 7.1 -7.0 7.95 -5.9 L7.65 -3.85 7.4 -2.95 Q6.2 1.9 2.35 4.95 L2.3 5.0 2.45 5.2 Q2.0 6.5 0.7 7.1 -1.55 6.15 -3.55 4.25 -1.0 2.65 0.75 -0.1 L1.65 -1.75 2.25 -1.65 2.35 -1.65 Q4.2 -1.4 5.65 -2.7 5.55 -2.75 5.55 -2.75 3.7 -2.25 2.2 -2.8 L2.3 -3.1 Q3.75 -2.9 5.3 -3.8 L5.25 -3.2 5.9 -4.3 6.25 -5.6 6.5 -5.85 6.45 -5.85 6.25 -5.85 6.25 -6.4 6.25 -6.5 Q5.85 -9.6 3.35 -11.3 L1.45 -11.6 3.75 -9.9 4.25 -8.75 Q5.0 -7.15 5.25 -5.45 L5.2 -5.45 2.9 -5.4 Q3.05 -7.8 1.3 -9.8 -1.35 -10.7 -3.5 -9.15 -5.85 -8.2 -7.65 -6.15 -9.8 -3.7 -10.45 -0.75 L-10.65 -0.65 -10.75 -0.85 -10.8 -1.0 -12.25 -2.75 -9.15 -6.4 Q-7.25 -9.0 -7.4 -11.9 L-7.55 -12.05 -7.8 -12.3 -8.25 -12.45 -8.4 -12.5 -8.55 -12.5 -8.6 -12.5 M1.7 -4.2 L1.45 -4.3 1.05 -4.45 0.45 -5.0 1.5 -4.65 1.8 -4.55 1.7 -4.2 M0.65 -3.55 L0.7 -3.75 1.15 -3.45 1.1 -3.3 0.65 -3.55 M2.6 -4.05 L2.7 -4.4 Q4.15 -4.35 5.3 -4.9 L5.35 -3.9 2.6 -4.05 M-0.05 -9.3 L1.15 -8.75 Q1.75 -7.25 1.85 -5.6 L1.6 -5.7 Q0.75 -5.9 -0.05 -6.4 -0.7 -7.65 -1.9 -8.6 L-2.1 -8.8 -1.4 -9.15 -0.05 -9.3 M-8.35 -11.75 L-8.15 -11.6 -8.1 -11.4 -8.0 -11.1 -8.2 -10.7 -8.65 -9.7 -8.95 -9.85 -9.0 -9.85 -9.5 -9.95 -9.9 -10.55 -8.75 -11.4 -8.75 -11.5 -8.35 -11.75" fill="#75640a" fill-rule="evenodd" stroke="none"/>
      <path d="M0.7 7.1 Q2.0 6.5 2.45 5.2 L2.3 5.0 2.35 4.95 Q6.2 1.9 7.4 -2.95 L7.65 -3.85 7.95 -5.9 Q8.65 -4.95 10.1 -4.45 L10.2 -4.6 10.4 -4.9 10.95 -5.05 11.1 -4.35 Q11.45 -3.65 11.45 -2.75 L11.55 -2.4 Q11.75 2.1 9.85 6.45 L9.45 6.9 8.8 8.1 7.55 8.2 Q3.85 8.4 0.7 7.1" fill="#5f5300" fill-rule="evenodd" stroke="none"/>
      <path d="M-22.15 3.25 L-22.55 4.5 -22.55 4.6 -22.4 5.2 -22.25 5.45 -22.2 5.5 -22.05 5.5 -21.75 5.1 -21.75 5.05 -21.55 4.0 Q-21.05 1.6 -19.6 -0.25 L-18.6 -1.45 Q-16.4 -3.75 -14.15 -2.75 L-12.45 -1.5 -11.15 0.75 Q-9.1 4.75 -9.35 9.55 L-9.35 10.4 Q-9.6 11.2 -9.45 11.8 -9.0 11.4 -8.8 10.7 L-8.75 10.4 Q-8.35 8.05 -8.55 5.7 L-8.1 5.7 -7.45 5.75 -7.2 5.75 -6.55 5.65 -5.5 5.25 -4.35 4.7 -4.35 4.75 -3.85 5.35 -2.95 6.2 Q2.5 10.5 8.95 9.1 9.4 10.75 9.1 12.45 L8.95 13.35 8.65 14.15 Q8.1 15.65 6.7 16.4 L6.15 16.65 6.05 15.9 5.95 15.7 5.65 15.05 5.15 15.3 5.2 15.2 5.25 15.2 5.2 15.05 Q5.75 13.65 3.9 12.55 L1.4 12.2 1.35 12.05 0.3 12.1 0.0 12.1 -0.6 12.4 Q-2.7 14.05 -4.85 14.4 L-5.75 14.7 Q-9.1 17.0 -14.15 16.25 L-15.15 15.95 -16.65 15.25 Q-18.15 14.6 -19.65 13.75 L-20.45 13.1 Q-22.95 10.85 -25.0 8.15 L-25.4 7.2 Q-25.55 6.65 -26.2 5.95 -27.7 4.65 -29.45 3.5 -31.55 2.2 -34.0 1.3 L-35.35 1.0 -37.1 0.9 -38.95 0.95 -38.6 0.45 -38.1 -0.15 -36.8 -1.65 -36.15 -2.0 -36.15 -1.95 -36.05 -2.0 -35.9 -2.1 -35.85 -2.2 -35.05 -2.8 Q-34.55 -3.2 -34.3 -3.75 L-34.65 -3.75 -35.3 -3.5 -35.2 -3.65 -34.9 -4.4 Q-33.95 -6.6 -31.75 -7.65 L-31.5 -7.6 -30.05 -7.6 Q-28.7 -7.45 -27.75 -6.45 L-27.85 -6.2 -27.8 -6.1 -27.95 -6.05 -28.25 -6.05 -28.45 -6.05 -28.55 -6.0 -28.65 -5.9 -29.0 -5.7 -29.05 -5.65 -29.1 -5.45 -29.0 -5.35 -28.05 -5.25 Q-23.8 -5.35 -19.8 -4.1 L-17.5 -3.2 -19.9 -3.65 -22.05 -3.25 -22.5 -3.05 Q-23.5 -2.4 -23.75 -1.15 L-23.8 -0.65 -23.95 0.45 -23.75 1.25 -22.8 2.75 -22.5 2.95 -22.15 3.25 M-39.45 15.2 L-39.5 14.8 -39.35 15.15 -39.45 15.2 M-17.5 -3.2 L-17.45 -3.25 -17.3 -3.4 -17.3 -3.35 -17.35 -3.3 -17.45 -3.2 -17.5 -3.2 M-14.35 2.65 L-14.55 2.6 -15.1 2.4 -15.3 2.5 Q-15.6 2.55 -15.85 2.75 L-16.0 2.85 -16.0 3.05 -16.2 3.1 -16.35 3.25 -16.6 3.8 Q-18.05 6.7 -16.7 9.7 -16.0 10.85 -14.7 11.0 L-14.6 10.95 Q-12.65 9.8 -12.65 7.45 -12.7 4.65 -14.35 2.65 M-21.4 24.55 L-21.45 24.6 -21.85 24.65 -21.45 24.45 -21.4 24.55 M-26.15 24.05 L-26.0 24.05 -26.05 24.15 -26.05 24.2 -26.3 24.15 -26.15 24.05 M-8.95 21.05 L-9.4 21.2 -9.5 21.15 -8.85 20.95 -8.95 21.05" fill="#cfb392" fill-rule="evenodd" stroke="none"/>
      <path d="M-22.15 3.25 L-22.5 2.95 -22.8 2.75 -23.75 1.25 -23.95 0.45 -23.8 -0.65 -23.75 -1.15 Q-23.5 -2.4 -22.5 -3.05 L-22.05 -3.25 -19.9 -3.65 -17.5 -3.2 Q-18.8 -2.4 -19.9 -1.25 L-20.25 -0.75 Q-21.1 0.3 -21.6 1.6 L-22.15 3.25 M-38.95 0.95 L-37.1 0.9 -35.35 1.0 -34.0 1.3 Q-31.55 2.2 -29.45 3.5 -27.7 4.65 -26.2 5.95 -25.55 6.65 -25.4 7.2 L-25.0 8.15 Q-22.95 10.85 -20.45 13.1 L-19.65 13.75 Q-18.15 14.6 -16.65 15.25 L-15.15 15.95 -14.15 16.25 Q-9.1 17.0 -5.75 14.7 L-4.85 14.4 Q-2.7 14.05 -0.6 12.4 L0.0 12.1 0.3 12.1 1.35 12.05 1.4 12.2 3.9 12.55 Q5.75 13.65 5.2 15.05 L5.1 15.35 5.15 15.3 5.65 15.05 5.95 15.7 6.05 15.9 6.15 16.65 0.15 19.85 Q-2.9 21.2 -5.75 22.9 L-7.75 23.9 -12.2 26.3 -15.9 28.0 -17.05 28.45 Q-23.55 30.6 -29.95 27.8 L-32.8 26.0 Q-36.8 22.8 -38.45 18.5 L-38.9 17.35 -38.75 17.4 Q-33.0 22.3 -25.3 22.95 -19.05 23.4 -13.05 21.6 -5.75 19.45 0.2 15.1 L0.3 14.95 0.5 14.8 1.0 14.8 Q1.9 15.55 2.35 16.8 L2.8 16.75 2.9 16.65 2.95 16.65 Q2.85 13.9 0.1 13.05 L-0.9 13.05 -1.45 13.2 -1.5 13.4 -1.55 13.55 -1.5 13.65 0.05 14.15 Q-1.15 14.7 -2.2 15.6 -4.3 16.9 -6.5 18.0 L-11.85 20.1 Q-23.15 24.35 -34.15 19.6 -37.65 18.05 -39.4 15.35 L-39.45 15.2 -39.35 15.15 -39.5 14.8 -40.4 12.25 Q-40.55 11.85 -40.35 11.6 L-40.4 11.5 -40.85 10.45 Q-41.7 5.15 -38.95 0.95 M-8.95 21.05 L-8.85 20.95 -9.5 21.15 -9.4 21.2 -8.95 21.05 M-26.15 24.05 L-26.3 24.15 -26.05 24.2 -26.05 24.15 -26.0 24.05 -26.15 24.05 M-21.4 24.55 L-21.45 24.45 -21.85 24.65 -21.45 24.6 -21.4 24.55" fill="#c19b6b" fill-rule="evenodd" stroke="none"/>
      <path d="M-11.65 -8.85 L-11.45 -8.9 -11.1 -8.8 -11.0 -8.9 -10.95 -9.1 -10.65 -9.1 -10.0 -9.05 -9.8 -9.15 -9.4 -9.15 -8.9 -9.05 -10.35 -6.4 -10.55 -6.5 -10.8 -6.65 -10.85 -6.65 -11.3 -6.85 -11.45 -6.8 -11.55 -6.85 -12.5 -6.4 -13.25 -5.65 Q-14.0 -4.65 -14.05 -3.75 L-14.45 -3.85 -14.3 -4.1 -14.2 -4.9 -12.2 -8.2 -11.65 -8.85 M-2.75 -8.55 L-2.6 -8.45 -1.45 -7.25 -0.95 -5.5 Q-0.25 -2.85 -0.65 -0.1 L-0.7 0.15 -0.65 0.3 -1.0 0.7 Q-2.45 2.4 -4.3 3.55 L-7.0 4.8 -7.7 5.0 -8.75 4.75 -8.85 3.75 -7.95 3.65 -6.95 3.2 Q-6.15 2.7 -5.6 2.0 L-4.85 0.7 -4.75 0.25 Q-3.65 -3.15 -6.75 -4.65 L-7.1 -4.6 -7.7 -4.55 -6.65 -5.85 Q-6.45 -5.85 -6.3 -6.0 -4.85 -7.7 -2.75 -8.55" fill="#ffffff" fill-rule="evenodd" stroke="none"/>
    </g>
  </defs>
</svg>
