<?xml version="1.0" encoding="UTF-8" standalone="no"?>
<svg xmlns:xlink="http://www.w3.org/1999/xlink" height="72.6px" width="83.9px" xmlns="http://www.w3.org/2000/svg">
  <g transform="matrix(1.0, 0.0, 0.0, 1.0, 43.85, 36.3)">
    <use height="63.2" transform="matrix(1.0, 0.0, 0.0, 1.0, -42.75, -32.7)" width="80.35" xlink:href="#shape0"/>
  </g>
  <defs>
    <g id="shape0" transform="matrix(1.0, 0.0, 0.0, 1.0, 42.75, 32.7)">
      <path d="M34.8 -23.85 Q38.45 -22.45 37.3 -19.1 36.1 -15.85 33.05 -14.35 26.4 -11.2 19.4 -8.65 L11.65 -5.75 Q12.05 -4.75 12.1 -3.7 13.05 1.4 10.75 6.5 L9.65 8.3 9.8 8.65 9.85 8.7 9.9 9.3 Q11.0 13.6 7.3 16.95 L6.1 17.85 4.8 18.7 2.55 19.6 1.7 20.1 Q-5.1 23.1 -11.4 26.9 -14.7 28.9 -18.5 29.95 L-18.75 29.9 Q-23.4 31.25 -28.6 29.45 L-30.35 28.8 Q-32.3 28.2 -33.9 26.65 -37.8 22.85 -39.75 17.95 L-40.05 17.05 -40.2 16.5 -40.25 16.0 Q-41.35 14.55 -41.6 12.95 -43.3 10.15 -42.5 6.5 -42.0 4.1 -40.9 2.1 L-40.35 1.25 Q-39.5 -0.1 -38.3 -1.25 L-37.1 -2.35 Q-36.75 -4.4 -35.55 -6.05 -34.5 -7.65 -32.7 -8.2 -32.05 -8.65 -31.2 -8.6 L-30.15 -8.5 -29.9 -8.5 Q-27.7 -7.95 -26.8 -6.2 -22.0 -6.0 -17.55 -4.3 L-17.3 -4.2 -16.35 -3.9 -15.35 -4.05 Q-14.6 -6.75 -12.85 -8.9 L-13.1 -9.05 -12.8 -9.35 Q-14.25 -10.25 -14.3 -12.25 L-14.0 -12.65 -13.9 -12.65 -13.9 -12.45 -13.9 -12.35 Q-13.45 -10.85 -12.3 -9.95 L-12.25 -10.0 -12.15 -10.1 Q-13.1 -11.2 -13.2 -12.65 -13.3 -13.5 -12.8 -13.55 -12.7 -11.9 -11.65 -10.7 L-11.55 -10.85 -11.45 -10.95 -11.55 -11.15 Q-12.15 -12.8 -11.3 -14.0 -11.5 -12.8 -11.05 -11.65 L-11.1 -11.55 -11.05 -11.55 -9.45 -13.45 -8.0 -14.75 Q-5.6 -16.15 -2.85 -16.2 L-1.05 -16.1 -0.15 -15.95 Q0.35 -22.55 2.85 -28.9 3.6 -31.05 5.55 -32.1 L6.3 -32.4 7.65 -32.65 8.2 -32.7 Q10.7 -31.55 10.45 -28.7 9.7 -21.3 5.8 -14.8 L5.2 -13.8 8.5 -10.95 Q13.05 -14.9 18.0 -18.4 22.7 -21.75 28.25 -23.6 L34.8 -23.85 M7.85 -6.15 Q7.0 -7.2 7.15 -8.85 L7.0 -9.0 6.95 -9.2 7.0 -9.45 7.2 -9.75 7.35 -10.0 7.75 -10.3 Q4.65 -13.7 -0.4 -14.95 L-2.4 -15.3 -5.5 -14.6 -4.4 -14.35 Q-4.45 -13.35 -6.25 -13.5 L-7.6 -13.6 -8.85 -12.6 -8.8 -12.6 -8.65 -12.6 -8.5 -12.6 -8.05 -12.4 -7.8 -12.2 -7.65 -12.0 Q-7.45 -9.1 -9.35 -6.55 -10.8 -4.6 -12.35 -2.8 L-10.9 -1.05 -10.85 -0.9 -10.75 -0.7 -10.6 -0.8 Q-9.95 -3.75 -7.8 -6.2 -6.05 -8.35 -3.7 -9.3 -1.55 -10.8 1.1 -10.0 2.9 -8.0 2.75 -5.6 L5.0 -5.65 5.05 -5.7 Q4.8 -7.35 4.05 -9.0 L3.55 -10.2 1.3 -11.75 3.15 -11.5 Q5.65 -9.9 6.0 -6.7 L6.05 -6.65 6.05 -6.1 6.25 -6.05 6.3 -6.05 6.0 -5.8 5.7 -4.5 5.1 -3.35 5.1 -4.0 Q3.65 -3.1 2.15 -3.25 L2.05 -3.0 Q3.6 -2.5 5.4 -2.95 L5.5 -2.85 Q4.1 -1.65 2.2 -1.9 L2.05 -1.85 1.55 -1.95 0.65 -0.35 Q-1.1 2.45 -3.65 4.1 -1.65 5.95 0.65 6.9 3.8 8.25 7.55 7.95 L8.75 7.85 9.45 6.65 9.8 6.25 Q11.65 1.85 11.4 -2.65 11.3 -2.8 11.35 -3.0 L10.95 -4.65 10.8 -5.35 10.25 -5.15 10.05 -4.9 9.95 -4.75 Q8.55 -5.25 7.85 -6.15 M1.65 -5.8 Q1.65 -7.4 0.9 -8.95 L-0.3 -9.5 -1.65 -9.3 -2.3 -8.95 -2.1 -8.85 Q-0.9 -7.9 -0.2 -6.55 L1.4 -5.85 1.65 -5.8 M5.15 -5.15 Q4.05 -4.6 2.6 -4.6 L2.5 -4.2 5.15 -4.15 5.15 -5.15 M1.35 -4.8 L0.3 -5.2 0.85 -4.6 1.3 -4.5 1.5 -4.45 1.6 -4.75 1.35 -4.8 M1.0 -3.65 L0.5 -3.9 0.5 -3.75 0.95 -3.5 1.0 -3.65 M6.2 16.45 L6.75 16.15 Q8.1 15.35 8.7 13.9 L9.0 13.1 9.15 12.25 Q9.45 10.5 8.95 8.8 2.5 10.3 -3.05 6.05 L-3.95 5.25 -4.4 4.55 -4.45 4.55 -5.5 5.15 -6.7 5.55 -7.3 5.65 -7.55 5.6 -8.15 5.65 -8.6 5.6 Q-8.35 7.95 -8.8 10.35 L-8.8 10.6 Q-9.0 11.3 -9.5 11.75 -9.65 11.05 -9.4 10.3 -9.3 9.95 -9.35 9.5 -9.2 4.6 -11.25 0.7 L-12.65 -1.6 -14.3 -2.8 Q-16.6 -3.8 -18.75 -1.45 L-19.75 -0.25 Q-21.15 1.65 -21.65 4.0 L-21.8 5.05 -21.85 5.1 -22.1 5.55 -22.3 5.6 -22.3 5.55 -22.55 5.15 -22.6 4.6 -22.65 4.5 -22.25 3.3 -21.7 1.6 -20.4 -0.7 -20.0 -1.2 Q-19.0 -2.45 -17.65 -3.25 L-19.95 -4.05 Q-24.0 -5.35 -28.25 -5.15 L-29.2 -5.25 -29.3 -5.35 -29.25 -5.55 -29.25 -5.6 -28.9 -5.85 -28.75 -5.9 -28.7 -5.95 -28.45 -6.0 -28.2 -6.0 -28.05 -6.0 -28.1 -6.15 -27.9 -6.45 Q-28.95 -7.3 -30.3 -7.5 L-31.7 -7.5 -32.0 -7.45 Q-34.1 -6.5 -35.05 -4.25 L-35.35 -3.55 -35.45 -3.35 -34.85 -3.65 -34.5 -3.6 -35.2 -2.6 -36.05 -2.0 -36.05 -1.95 -36.2 -1.75 -36.3 -1.75 -36.3 -1.8 -36.9 -1.5 -38.25 0.0 -38.75 0.6 -39.1 1.1 Q-41.8 5.4 -40.95 10.6 L-40.5 11.75 -40.45 11.85 Q-40.65 12.1 -40.5 12.5 L-39.45 15.05 -39.4 15.4 -39.4 15.55 Q-37.6 18.25 -34.15 19.75 -23.0 24.35 -11.85 20.15 L-6.45 17.9 Q-4.3 16.85 -2.2 15.45 -1.15 14.5 0.1 14.0 L-1.5 13.55 -1.5 13.4 -1.55 13.25 -1.45 13.05 Q-1.3 12.85 -0.95 12.9 L0.1 12.9 Q2.85 13.7 2.9 16.45 L2.9 16.5 2.8 16.6 2.35 16.65 Q1.9 15.35 1.05 14.6 L0.55 14.65 0.4 14.8 0.25 14.9 Q-5.7 19.35 -12.95 21.55 -19.0 23.4 -25.25 23.05 -32.95 22.45 -38.7 17.6 L-38.9 17.5 -38.4 18.7 Q-36.7 22.95 -32.75 26.15 L-29.85 28.0 Q-23.45 30.7 -16.9 28.45 L-16.85 28.45 -15.75 28.0 -12.1 26.25 -7.6 23.9 -5.7 22.8 Q-2.8 21.05 0.25 19.7 L6.2 16.45 M5.3 14.85 L5.25 15.0 5.2 15.1 5.15 15.1 5.3 14.85 M-10.15 -10.65 L-9.8 -10.05 -9.75 -10.05 -9.3 -10.0 -9.2 -9.95 -8.85 -9.8 -8.45 -10.8 -8.2 -11.2 -8.35 -11.6 -8.35 -11.7 -8.6 -11.8 -8.95 -11.6 -9.0 -11.55 -10.15 -10.65 M-12.35 -8.25 L-14.4 -4.95 -14.5 -4.15 -14.6 -3.9 -14.2 -3.8 Q-14.15 -4.7 -13.45 -5.7 L-12.65 -6.45 -11.75 -6.9 -11.6 -6.9 -11.4 -6.95 -11.05 -6.75 -11.0 -6.75 -10.75 -6.6 -10.55 -6.5 -9.15 -9.15 -9.65 -9.25 -10.0 -9.25 -10.2 -9.1 -10.85 -9.2 -11.1 -9.1 -11.2 -9.0 -11.25 -8.9 -11.7 -9.0 -11.85 -8.95 -12.35 -8.25 M-17.65 -3.25 L-17.6 -3.25 -17.5 -3.3 -17.45 -3.35 -17.0 -3.6 -17.5 -3.4 -17.65 -3.3 -17.65 -3.25 M-2.9 -8.75 Q-5.0 -7.85 -6.5 -6.05 L-6.85 -5.95 -7.85 -4.6 -7.25 -4.75 -6.9 -4.75 Q-3.8 -3.3 -4.85 0.1 L-5.0 0.6 -5.7 1.9 -7.05 3.15 -8.05 3.6 -9.0 3.7 -8.8 4.65 -7.75 4.9 -7.1 4.65 Q-5.65 4.15 -4.4 3.45 -2.55 2.3 -1.1 0.55 L-0.75 0.1 -0.8 0.0 -0.8 -0.3 Q-0.45 -3.05 -1.1 -5.65 L-1.65 -7.45 Q-2.1 -8.25 -2.7 -8.65 L-2.9 -8.75 M-14.45 2.6 Q-12.75 4.6 -12.7 7.35 -12.7 9.8 -14.6 10.95 L-14.7 10.95 Q-16.0 10.85 -16.7 9.7 -18.15 6.75 -16.7 3.75 L-16.45 3.2 -16.25 3.05 -16.1 2.95 -16.1 2.8 -15.95 2.7 -15.45 2.45 -15.2 2.35 -14.65 2.55 -14.45 2.6" fill="#000000" fill-rule="evenodd" stroke="none"/>
      <path d="M-8.85 -12.6 L-7.6 -13.6 -6.25 -13.5 Q-4.45 -13.35 -4.4 -14.35 L-5.5 -14.6 -2.4 -15.3 -0.4 -14.95 Q4.65 -13.7 7.75 -10.3 L7.35 -10.0 7.2 -9.75 7.0 -9.45 6.95 -9.2 7.0 -9.0 7.15 -8.85 Q7.0 -7.2 7.85 -6.15 L7.55 -4.1 7.35 -3.15 Q6.15 1.7 2.35 4.75 L2.3 4.75 2.4 5.0 Q1.95 6.3 0.65 6.9 -1.65 5.95 -3.65 4.1 -1.1 2.45 0.65 -0.35 L1.55 -1.95 2.05 -1.85 2.2 -1.9 Q4.1 -1.65 5.5 -2.85 L5.4 -2.95 Q3.6 -2.5 2.05 -3.0 L2.15 -3.25 Q3.65 -3.1 5.1 -4.0 L5.1 -3.35 5.7 -4.5 6.0 -5.8 6.3 -6.05 6.25 -6.05 6.05 -6.1 6.05 -6.65 6.0 -6.7 Q5.65 -9.9 3.15 -11.5 L1.3 -11.75 3.55 -10.2 4.05 -9.0 Q4.8 -7.35 5.05 -5.7 L5.0 -5.65 2.75 -5.6 Q2.9 -8.0 1.1 -10.0 -1.55 -10.8 -3.7 -9.3 -6.05 -8.35 -7.8 -6.2 -9.95 -3.75 -10.6 -0.8 L-10.75 -0.7 -10.85 -0.9 -10.9 -1.05 -12.35 -2.8 Q-10.8 -4.6 -9.35 -6.55 -7.45 -9.1 -7.65 -12.0 L-7.8 -12.2 -8.05 -12.4 -8.5 -12.6 -8.65 -12.6 -8.8 -12.6 -8.85 -12.6 M1.0 -3.65 L0.95 -3.5 0.5 -3.75 0.5 -3.9 1.0 -3.65 M1.35 -4.8 L1.6 -4.75 1.5 -4.45 1.3 -4.5 0.85 -4.6 0.3 -5.2 1.35 -4.8 M5.15 -5.15 L5.15 -4.15 2.5 -4.2 2.6 -4.6 Q4.05 -4.6 5.15 -5.15 M1.65 -5.8 L1.4 -5.85 -0.2 -6.55 Q-0.9 -7.9 -2.1 -8.85 L-2.3 -8.95 -1.65 -9.3 -0.3 -9.5 0.9 -8.95 Q1.65 -7.4 1.65 -5.8 M-10.15 -10.65 L-9.0 -11.55 -8.95 -11.6 -8.6 -11.8 -8.35 -11.7 -8.35 -11.6 -8.2 -11.2 -8.45 -10.8 -8.85 -9.8 -9.2 -9.95 -9.3 -10.0 -9.75 -10.05 -9.8 -10.05 -10.15 -10.65" fill="#75640a" fill-rule="evenodd" stroke="none"/>
      <path d="M0.65 6.9 Q1.95 6.3 2.4 5.0 L2.3 4.75 2.35 4.75 Q6.15 1.7 7.35 -3.15 L7.55 -4.1 7.85 -6.15 Q8.55 -5.25 9.95 -4.75 L10.05 -4.9 10.25 -5.15 10.8 -5.35 10.95 -4.65 11.35 -3.0 Q11.3 -2.8 11.4 -2.65 11.65 1.85 9.8 6.25 L9.45 6.65 8.75 7.85 7.55 7.95 Q3.8 8.25 0.65 6.9" fill="#5f5300" fill-rule="evenodd" stroke="none"/>
      <path d="M-22.25 3.3 L-22.65 4.5 -22.6 4.6 -22.55 5.15 -22.3 5.55 -22.3 5.6 -22.1 5.55 -21.85 5.1 -21.8 5.05 -21.65 4.0 Q-21.15 1.65 -19.75 -0.25 L-18.75 -1.45 Q-16.6 -3.8 -14.3 -2.8 L-12.65 -1.6 -11.25 0.7 Q-9.2 4.6 -9.35 9.5 -9.3 9.95 -9.4 10.3 -9.65 11.05 -9.5 11.75 -9.0 11.3 -8.8 10.6 L-8.8 10.35 Q-8.35 7.95 -8.6 5.6 L-8.15 5.65 -7.55 5.6 -7.3 5.65 -6.7 5.55 -5.5 5.15 -4.45 4.55 -4.4 4.55 -3.95 5.25 -3.05 6.05 Q2.5 10.3 8.95 8.8 9.45 10.5 9.15 12.25 L9.0 13.1 8.7 13.9 Q8.1 15.35 6.75 16.15 L6.2 16.45 6.1 15.65 6.0 15.5 5.75 14.8 Q5.5 14.9 5.2 15.1 L5.25 15.0 5.3 14.85 Q5.75 13.4 3.85 12.35 2.65 11.85 1.45 12.0 L1.4 11.85 0.3 11.9 0.05 11.95 Q-0.35 12.05 -0.6 12.3 -2.65 13.9 -4.85 14.25 -5.4 14.3 -5.75 14.65 -9.05 16.95 -14.05 16.2 L-15.1 15.95 -16.65 15.25 Q-18.15 14.6 -19.65 13.75 L-20.45 13.15 Q-23.0 10.95 -25.0 8.25 L-25.45 7.25 -26.35 6.1 Q-27.8 4.7 -29.55 3.6 -31.7 2.3 -34.1 1.4 L-35.5 1.15 -37.25 1.05 -39.1 1.1 -38.75 0.6 -38.25 0.0 -36.9 -1.5 -36.3 -1.8 -36.3 -1.75 -36.2 -1.75 -36.05 -1.95 -36.05 -2.0 -35.2 -2.6 -34.5 -3.6 -34.85 -3.65 -35.45 -3.35 -35.35 -3.55 -35.05 -4.25 Q-34.1 -6.5 -32.0 -7.45 L-31.7 -7.5 -30.3 -7.5 Q-28.95 -7.3 -27.9 -6.45 L-28.1 -6.15 -28.05 -6.0 -28.2 -6.0 -28.45 -6.0 -28.7 -5.95 -28.75 -5.9 -28.9 -5.85 -29.25 -5.6 -29.25 -5.55 -29.3 -5.35 -29.2 -5.25 -28.25 -5.15 Q-24.0 -5.35 -19.95 -4.05 L-17.65 -3.25 -20.05 -3.6 -22.2 -3.2 -22.65 -3.0 Q-23.65 -2.35 -23.9 -1.1 L-24.0 -0.6 -24.05 0.5 -23.9 1.25 Q-23.6 2.1 -22.9 2.75 L-22.65 3.0 -22.25 3.3 M-39.4 15.4 L-39.45 15.05 -39.3 15.35 -39.4 15.4 M-17.45 -3.35 L-17.5 -3.3 -17.6 -3.25 -17.65 -3.25 -17.65 -3.3 -17.5 -3.4 -17.45 -3.35 M-14.45 2.6 L-14.65 2.55 -15.2 2.35 -15.45 2.45 -15.95 2.7 -16.1 2.8 -16.1 2.95 -16.25 3.05 -16.45 3.2 -16.7 3.75 Q-18.15 6.75 -16.7 9.7 -16.0 10.85 -14.7 10.95 L-14.6 10.95 Q-12.7 9.8 -12.7 7.35 -12.75 4.6 -14.45 2.6 M-9.3 21.1 L-9.4 21.1 -8.75 20.9 -8.85 20.9 -9.3 21.1 M-21.75 24.65 L-21.3 24.5 -21.3 24.55 -21.3 24.65 -21.75 24.65 M-25.95 24.15 L-26.0 24.25 -25.95 24.3 -26.2 24.2 -26.1 24.15 -25.95 24.15" fill="#cfb392" fill-rule="evenodd" stroke="none"/>
      <path d="M-22.25 3.3 L-22.65 3.0 -22.9 2.75 Q-23.6 2.1 -23.9 1.25 L-24.05 0.5 -24.0 -0.6 -23.9 -1.1 Q-23.65 -2.35 -22.65 -3.0 L-22.2 -3.2 -20.05 -3.6 -17.65 -3.25 Q-19.0 -2.45 -20.0 -1.2 L-20.4 -0.7 -21.7 1.6 -22.25 3.3 M-39.1 1.1 L-37.25 1.05 -35.5 1.15 -34.1 1.4 Q-31.7 2.3 -29.55 3.6 -27.8 4.7 -26.35 6.1 L-25.45 7.25 -25.0 8.25 Q-23.0 10.95 -20.45 13.15 L-19.65 13.75 Q-18.15 14.6 -16.65 15.25 L-15.1 15.95 -14.05 16.2 Q-9.05 16.95 -5.75 14.65 -5.4 14.3 -4.85 14.25 -2.65 13.9 -0.6 12.3 -0.35 12.05 0.05 11.95 L0.3 11.9 1.4 11.85 1.45 12.0 Q2.65 11.85 3.85 12.35 5.75 13.4 5.3 14.85 L5.15 15.1 5.2 15.1 Q5.5 14.9 5.75 14.8 L6.0 15.5 6.1 15.65 6.2 16.45 0.25 19.7 Q-2.8 21.05 -5.7 22.8 L-7.6 23.9 -12.1 26.25 -15.75 28.0 -16.85 28.45 -16.9 28.45 Q-23.45 30.7 -29.85 28.0 L-32.75 26.15 Q-36.7 22.95 -38.4 18.7 L-38.9 17.5 -38.7 17.6 Q-32.95 22.45 -25.25 23.05 -19.0 23.4 -12.95 21.55 -5.7 19.35 0.25 14.9 L0.4 14.8 0.55 14.65 1.05 14.6 Q1.9 15.35 2.35 16.65 L2.8 16.6 2.9 16.5 2.9 16.45 Q2.85 13.7 0.1 12.9 L-0.95 12.9 Q-1.3 12.85 -1.45 13.05 L-1.55 13.25 -1.5 13.4 -1.5 13.55 0.1 14.0 Q-1.15 14.5 -2.2 15.45 -4.3 16.85 -6.45 17.9 L-11.85 20.15 Q-23.0 24.35 -34.15 19.75 -37.6 18.25 -39.4 15.55 L-39.4 15.4 -39.3 15.35 -39.45 15.05 -40.5 12.5 Q-40.65 12.1 -40.45 11.85 L-40.5 11.75 -40.95 10.6 Q-41.8 5.4 -39.1 1.1 M-9.3 21.1 L-8.85 20.9 -8.75 20.9 -9.4 21.1 -9.3 21.1 M-25.95 24.15 L-26.1 24.15 -26.2 24.2 -25.95 24.3 -26.0 24.25 -25.95 24.15 M-21.75 24.65 L-21.3 24.65 -21.3 24.55 -21.3 24.5 -21.75 24.65" fill="#c19b6b" fill-rule="evenodd" stroke="none"/>
      <path d="M-12.35 -8.25 L-11.85 -8.95 -11.7 -9.0 -11.25 -8.9 -11.2 -9.0 -11.1 -9.1 -10.85 -9.2 -10.2 -9.1 -10.0 -9.25 -9.65 -9.25 -9.15 -9.15 -10.55 -6.5 -10.75 -6.6 -11.0 -6.75 -11.05 -6.75 -11.4 -6.95 -11.6 -6.9 -11.75 -6.9 -12.65 -6.45 -13.45 -5.7 Q-14.15 -4.7 -14.2 -3.8 L-14.6 -3.9 -14.5 -4.15 -14.4 -4.95 -12.35 -8.25 M-2.9 -8.75 L-2.7 -8.65 Q-2.1 -8.25 -1.65 -7.45 L-1.1 -5.65 Q-0.45 -3.05 -0.8 -0.3 L-0.8 0.0 -0.75 0.1 -1.1 0.55 Q-2.55 2.3 -4.4 3.45 -5.65 4.15 -7.1 4.65 L-7.75 4.9 -8.8 4.65 -9.0 3.7 -8.05 3.6 -7.05 3.15 -5.7 1.9 -5.0 0.6 -4.85 0.1 Q-3.8 -3.3 -6.9 -4.75 L-7.25 -4.75 -7.85 -4.6 -6.85 -5.95 -6.5 -6.05 Q-5.0 -7.85 -2.9 -8.75" fill="#ffffff" fill-rule="evenodd" stroke="none"/>
    </g>
  </defs>
</svg>
