<?xml version="1.0" encoding="UTF-8" standalone="no"?>
<svg xmlns:xlink="http://www.w3.org/1999/xlink" height="181.25px" width="455.15px" xmlns="http://www.w3.org/2000/svg">
  <g transform="matrix(1.0, 0.0, 0.0, 1.0, 265.05, 116.9)">
    <clipPath id="clipPath0" transform="matrix(1.0, 0.0, 0.0, 1.0, 265.05, 116.9)">
      <use height="97.95" transform="matrix(1.0, 0.0, 0.0, 1.0, -133.45, -105.6)" width="266.5" xlink:href="#shape0"/>
    </clipPath>
    <g clip-path="url(#clipPath0)">
      <use height="99.55" transform="matrix(0.64, 0.0, 0.0, 0.64, -20.6493, -6.7892)" width="87.5" xlink:href="#sprite0"/>
    </g>
  </g>
  <defs>
    <g id="shape0" transform="matrix(1.0, 0.0, 0.0, 1.0, 133.45, 105.6)">
      <path d="M13.0 -7.65 Q-38.8 -7.65 -80.8 -8.25 -122.85 -8.9 -133.05 -12.2 L-133.05 -12.35 Q-133.05 -13.25 -132.55 -14.1 L-133.45 -14.1 -133.45 -105.6 133.05 -105.6 133.05 -14.1 130.85 -14.1 131.1 -13.6 Q127.35 -12.1 112.55 -10.7 L81.25 -8.45 Q64.75 -7.65 13.0 -7.65" fill="#0066ff" fill-rule="evenodd" stroke="none"/>
    </g>
    <g id="sprite0" transform="matrix(1.0, 0.0, 0.0, 1.0, 43.75, 49.75)">
      <use height="99.55" transform="matrix(1.0, 0.0, 0.0, 1.0, -43.75, -49.75)" width="87.5" xlink:href="#shape1"/>
    </g>
    <g id="shape1" transform="matrix(1.0, 0.0, 0.0, 1.0, 43.75, 49.75)">
      <path d="M-23.2 49.8 L-26.1 49.8 -27.85 48.2 -28.0 47.6 -27.7 46.85 Q-18.9 43.8 -13.55 35.9 -8.15 28.0 0.85 25.15 L0.6 22.95 Q-5.1 24.55 -11.15 24.5 L-25.3 24.35 -28.35 24.95 -29.45 25.4 -34.7 26.65 Q-35.55 26.7 -36.1 26.25 -38.55 24.25 -37.55 22.05 L-38.35 22.0 -38.9 21.8 -39.0 21.75 Q-39.05 21.65 -39.1 21.7 L-39.2 21.6 -39.45 21.6 -39.5 21.6 -39.65 21.55 Q-41.65 20.75 -42.75 18.95 -45.5 14.4 -40.7 11.9 L-40.5 11.8 -40.1 11.6 -36.95 10.9 Q-33.65 10.55 -30.45 10.8 -24.55 9.65 -19.85 5.95 -20.15 5.5 -20.05 4.95 L-20.0 4.3 -20.0 4.15 -19.9 3.9 Q-21.65 2.2 -22.75 -0.05 L-23.4 -1.6 -24.8 -6.2 -25.0 -6.25 -25.05 -6.3 Q-25.35 -7.65 -25.25 -8.9 -26.0 -14.0 -25.2 -19.25 L-25.25 -19.4 -24.5 -21.2 Q-22.55 -29.5 -14.75 -34.1 L-12.9 -34.8 -13.3 -34.9 Q-17.6 -36.4 -22.15 -36.85 L-22.4 -37.2 -22.5 -37.5 -22.5 -37.65 -22.05 -38.05 Q-18.6 -37.95 -16.65 -40.65 L-16.35 -40.7 -15.85 -40.5 -15.9 -40.45 Q-12.1 -39.35 -8.05 -38.75 L-14.4 -41.7 -15.05 -41.75 -15.15 -41.95 -15.2 -42.25 -15.1 -42.3 -14.8 -42.75 -14.65 -42.75 -14.4 -42.8 -13.95 -42.65 -13.7 -42.55 Q-7.6 -44.0 -5.2 -49.6 L-5.05 -49.6 -5.0 -49.7 -4.8 -49.7 -2.45 -47.45 2.5 -43.85 3.7 -43.0 13.5 -36.6 13.6 -36.55 Q14.8 -35.65 15.8 -34.55 L15.95 -34.5 Q16.05 -34.4 16.25 -34.35 L17.6 -33.0 Q23.6 -27.2 25.05 -19.0 L25.0 -18.8 25.0 -18.5 Q25.6 -13.05 24.3 -7.75 L22.95 -3.3 Q22.45 -1.85 21.55 -1.45 L23.2 -0.7 Q24.5 0.0 24.9 1.4 25.65 4.4 23.8 6.25 22.85 8.5 21.15 10.35 16.55 15.25 10.75 18.6 11.8 21.25 11.6 24.7 L11.55 25.8 12.1 26.3 12.2 26.45 13.0 27.0 13.0 26.95 Q23.45 32.5 30.95 41.75 33.9 45.4 38.3 47.3 L43.75 49.8 39.6 49.8 Q29.55 44.5 22.4 35.45 L22.25 35.3 22.0 34.85 21.9 34.55 18.05 31.5 Q19.6 33.25 20.85 35.35 21.95 37.25 22.85 39.4 L23.3 40.6 Q24.5 43.9 25.3 47.35 L25.8 49.8 24.3 49.8 23.15 45.0 21.75 40.9 20.35 37.7 Q19.0 35.1 17.3 32.85 L17.25 32.85 Q14.8 29.65 11.45 27.2 L11.4 27.2 11.2 29.05 11.4 29.9 11.6 29.8 12.1 29.75 11.9 31.0 Q11.2 33.0 8.65 33.55 L7.0 33.75 Q4.65 33.85 2.9 33.15 0.55 32.15 -0.65 29.65 L-0.85 29.15 -0.85 28.7 -0.2 28.35 -0.2 28.3 Q0.6 28.5 0.5 29.3 L0.5 29.45 0.65 29.6 1.25 30.15 0.95 26.65 -3.15 28.2 -5.75 30.35 -5.85 30.45 -6.95 31.85 -7.1 32.0 Q-7.05 32.45 -7.45 32.75 L-7.6 32.9 -8.25 35.0 -9.95 39.6 -11.4 42.95 -13.4 47.1 -14.9 49.8 -16.6 49.8 -15.75 48.4 -15.1 47.15 -15.0 47.05 -13.75 44.45 -13.2 43.3 Q-11.1 38.8 -9.45 34.15 L-9.4 33.85 -8.85 33.25 -8.75 33.0 -8.95 33.15 Q-14.2 37.95 -18.9 43.4 -21.6 46.6 -25.55 48.0 L-23.35 49.7 -23.2 49.8 M12.25 -35.75 L12.0 -35.9 Q3.9 -41.1 -3.65 -46.9 L-3.8 -47.15 -3.8 -47.3 -3.95 -47.3 -4.55 -47.9 Q-4.65 -46.9 -5.6 -45.8 -8.4 -42.65 -11.9 -41.9 -8.6 -40.65 -5.85 -38.5 L-5.8 -38.35 Q-5.8 -38.05 -6.05 -37.9 L-6.15 -37.9 Q-6.3 -37.7 -6.65 -37.7 L-14.15 -38.45 Q-15.55 -38.7 -16.15 -39.35 -16.7 -38.1 -18.15 -37.55 L-17.3 -37.25 Q-14.2 -36.7 -11.5 -35.25 L-11.45 -35.15 -10.4 -35.2 -10.25 -35.1 -10.1 -35.05 -10.05 -34.95 -10.0 -34.85 -10.05 -34.65 Q-16.75 -32.65 -20.85 -27.0 L-22.3 -23.85 -23.2 -21.55 -23.25 -21.35 -23.55 -20.25 -23.55 -20.2 -23.55 -20.1 -23.5 -20.0 -23.5 -19.85 -23.6 -19.5 -23.8 -18.95 Q-22.25 -18.4 -21.2 -16.7 L-20.9 -16.25 -20.6 -16.35 -19.25 -16.75 -19.2 -16.8 -19.0 -16.75 -18.9 -16.7 -18.85 -16.6 -18.75 -16.5 Q-18.65 -16.3 -18.85 -16.1 -19.45 -15.4 -20.3 -15.2 L-19.3 -13.3 Q-16.1 -6.55 -16.05 0.95 L-16.05 1.05 -16.0 1.05 Q-12.45 0.35 -8.85 1.15 -7.3 1.45 -5.7 2.1 L-3.85 2.75 Q-5.6 0.3 -6.4 -2.8 -7.5 -7.1 -7.9 -11.5 -8.35 -16.2 -6.45 -19.95 L-5.6 -21.5 -7.65 -21.25 -7.85 -21.3 -8.0 -21.45 -8.05 -21.55 -8.05 -21.7 -7.35 -22.5 -6.15 -22.6 -4.7 -22.7 -2.75 -24.65 -4.15 -25.0 -4.2 -25.0 Q-4.35 -25.55 -4.0 -25.8 1.05 -25.95 4.45 -22.15 7.05 -19.7 8.75 -16.25 10.55 -12.5 10.85 -8.65 11.15 -5.2 10.25 -1.65 9.8 0.05 8.95 1.4 L8.55 1.85 7.65 2.85 14.0 -0.55 Q17.35 -2.45 20.6 -1.7 24.15 -8.3 23.95 -15.8 23.85 -17.95 23.4 -19.95 21.3 -28.6 14.5 -34.3 L12.25 -35.75 M-1.25 -24.15 L-1.45 -23.95 -3.3 -22.65 Q1.6 -22.45 5.3 -19.65 2.7 -22.7 -1.25 -24.15 M3.65 -28.85 Q3.25 -29.0 2.95 -29.2 0.2 -31.15 -2.65 -29.95 L-3.0 -30.05 -3.15 -30.25 -3.25 -30.4 -3.2 -30.45 Q-3.15 -31.35 -2.25 -31.6 1.65 -32.0 4.7 -29.55 6.65 -27.95 6.55 -25.9 5.45 -26.1 4.85 -27.15 L3.65 -28.85 M-4.9 -20.0 L-5.55 -18.25 Q-6.7 -14.5 -6.55 -10.55 L-5.7 -11.05 -4.8 -11.1 -4.6 -11.05 Q-3.05 -10.5 -1.95 -9.15 0.0 -6.8 1.0 -4.05 L-2.7 -2.6 Q-3.15 -2.55 -3.25 -2.2 L-3.2 -2.05 -3.15 -1.95 -3.1 -1.9 1.7 -1.15 1.9 0.7 Q1.6 1.4 1.45 2.05 1.1 3.15 0.55 3.75 2.6 3.95 4.7 3.8 L6.15 3.55 6.05 3.3 Q9.4 -0.6 9.7 -5.7 9.85 -9.2 8.95 -12.5 L8.85 -12.85 7.65 -15.95 6.3 -17.05 Q2.25 -21.15 -3.55 -21.55 L-4.15 -21.5 -4.9 -20.0 M-32.5 24.65 Q-26.05 22.2 -19.05 23.05 -10.05 24.25 -1.35 22.05 L0.45 21.55 1.6 21.2 Q5.4 19.95 8.75 18.2 L10.15 17.4 Q17.15 13.35 22.15 6.8 L22.15 6.7 22.15 6.55 Q22.3 6.05 22.7 5.65 23.75 4.5 24.1 2.9 L24.05 2.65 Q23.85 2.3 23.95 1.9 L23.95 1.6 22.35 0.2 Q20.8 -0.85 19.05 -0.5 L18.9 -0.6 18.8 -0.7 18.7 -0.8 Q14.95 -0.45 11.95 1.9 5.2 7.0 -2.4 4.45 L-2.55 4.4 -2.6 4.35 -4.3 3.7 -5.5 3.2 Q-11.2 1.0 -16.8 2.8 L-16.85 2.8 -17.0 2.9 -17.3 2.95 -18.1 3.25 -18.5 3.95 -18.35 4.2 -18.75 4.7 -18.75 5.1 -17.9 4.25 -17.55 4.35 -17.25 4.65 Q-17.5 5.75 -18.5 6.6 -22.1 9.65 -26.55 11.4 -23.1 12.1 -19.8 13.6 L-22.45 13.85 Q-26.1 12.45 -29.8 12.1 L-30.7 12.05 Q-33.25 11.85 -35.8 12.15 L-36.25 12.2 -40.15 13.35 Q-43.2 14.35 -42.15 17.15 -40.85 20.45 -37.2 21.0 L-37.05 20.7 -36.85 20.55 -34.4 18.6 -37.1 18.75 -37.1 18.7 -36.15 17.6 Q-31.7 16.65 -27.05 17.4 L-18.5 18.4 Q-9.15 19.15 -0.8 16.15 L-0.1 15.9 1.65 15.2 2.9 14.6 3.35 14.4 3.5 14.35 5.6 13.2 9.05 11.05 Q11.2 9.55 12.2 7.05 12.75 5.55 13.7 4.45 11.9 4.9 10.45 6.75 L10.3 6.85 10.25 6.8 10.1 6.7 9.95 6.7 9.95 6.55 Q10.35 4.2 12.75 3.35 L15.25 2.9 Q17.55 2.75 19.05 4.4 L19.05 4.55 18.65 5.05 18.45 5.1 17.5 4.9 15.25 4.35 14.75 4.85 Q13.2 9.75 8.85 12.7 L6.9 14.0 5.35 14.85 Q3.0 16.15 0.6 17.05 L-0.5 17.45 Q-7.05 19.7 -14.25 19.55 L-18.4 19.25 -29.6 18.5 -31.1 18.5 Q-32.15 18.9 -33.1 19.45 -34.45 20.2 -35.65 21.25 L-35.7 21.35 Q-37.05 22.7 -36.4 24.5 L-36.3 24.7 -36.0 24.95 -35.9 25.2 -35.5 25.4 Q-34.8 25.65 -34.3 25.4 L-32.5 24.65 M9.45 21.2 L9.4 20.9 9.2 19.5 5.7 21.15 1.9 22.55 2.25 25.25 Q2.5 28.05 2.4 31.0 6.0 33.3 10.05 30.65 L9.45 21.2 M-24.05 -17.8 Q-24.4 -15.2 -24.35 -12.65 -23.55 -14.15 -22.1 -15.35 L-23.9 -17.8 -24.05 -17.85 -24.05 -17.8 M-23.5 -6.45 Q-22.4 -1.4 -19.35 2.85 L-18.6 2.1 -20.1 -0.55 Q-18.95 -0.95 -18.2 -1.7 L-18.2 -1.85 -18.3 -1.95 -18.4 -1.95 -20.45 -2.4 Q-20.7 -4.35 -19.9 -6.45 L-19.65 -6.6 -19.25 -6.85 -18.3 -6.75 Q-19.05 -9.7 -20.35 -12.35 L-21.4 -14.25 -21.4 -14.3 -21.65 -14.1 Q-23.65 -12.1 -24.0 -9.45 L-23.95 -8.8 -23.5 -6.45" fill="#000000" fill-rule="evenodd" stroke="none"/>
      <path d="M-16.05 0.95 Q-16.1 -6.55 -19.3 -13.3 L-20.3 -15.2 Q-19.45 -15.4 -18.85 -16.1 -18.65 -16.3 -18.75 -16.5 L-18.85 -16.6 -18.9 -16.7 -19.0 -16.75 -19.2 -16.8 -19.25 -16.75 -20.6 -16.35 -20.9 -16.25 -21.2 -16.7 Q-22.25 -18.4 -23.8 -18.95 L-23.6 -19.5 -23.5 -19.85 -23.5 -20.0 -23.55 -20.1 -23.55 -20.2 -23.55 -20.25 -23.25 -21.35 -23.2 -21.55 -22.3 -23.85 -20.85 -27.0 Q-16.75 -32.65 -10.05 -34.65 L-10.0 -34.85 -10.05 -34.95 -10.1 -35.05 -10.25 -35.1 -10.4 -35.2 -11.45 -35.15 -11.5 -35.25 Q-14.2 -36.7 -17.3 -37.25 L-18.15 -37.55 Q-16.7 -38.1 -16.15 -39.35 -15.55 -38.7 -14.15 -38.45 L-6.65 -37.7 Q-6.3 -37.7 -6.15 -37.9 L-6.05 -37.9 Q-5.8 -38.05 -5.8 -38.35 L-5.85 -38.5 Q-8.6 -40.65 -11.9 -41.9 -8.4 -42.65 -5.6 -45.8 -4.65 -46.9 -4.55 -47.9 L-3.95 -47.3 -3.8 -47.3 -3.8 -47.15 -3.65 -46.9 Q3.9 -41.1 12.0 -35.9 L12.25 -35.75 13.75 -33.5 Q14.2 -32.45 14.8 -31.5 18.0 -26.2 19.15 -20.35 19.55 -18.15 19.15 -15.85 L18.9 -14.25 18.6 -12.4 17.45 -8.95 16.2 -6.65 15.3 -5.15 13.45 -2.55 8.95 1.4 Q9.8 0.05 10.25 -1.65 11.15 -5.2 10.85 -8.65 10.55 -12.5 8.75 -16.25 7.05 -19.7 4.45 -22.15 1.05 -25.95 -4.0 -25.8 -4.35 -25.55 -4.2 -25.0 L-4.15 -25.0 -2.75 -24.65 -4.7 -22.7 -6.15 -22.6 -7.35 -22.5 -8.05 -21.7 -8.05 -21.55 -8.0 -21.45 -7.85 -21.3 -7.65 -21.25 -5.6 -21.5 -6.45 -19.95 Q-8.35 -16.2 -7.9 -11.5 -7.5 -7.1 -6.4 -2.8 -5.6 0.3 -3.85 2.75 L-5.7 2.1 Q-7.3 1.45 -8.85 1.15 -12.45 0.35 -16.0 1.05 L-16.05 0.95 M3.65 -28.85 L4.85 -27.15 Q5.45 -26.1 6.55 -25.9 6.65 -27.95 4.7 -29.55 1.65 -32.0 -2.25 -31.6 -3.15 -31.35 -3.2 -30.45 L-3.25 -30.4 -3.15 -30.25 -3.0 -30.05 -2.65 -29.95 Q0.2 -31.15 2.95 -29.2 3.25 -29.0 3.65 -28.85 M-1.25 -24.15 Q2.7 -22.7 5.3 -19.65 1.6 -22.45 -3.3 -22.65 L-1.45 -23.95 -1.25 -24.15 M2.25 25.25 L3.0 25.25 4.4 25.1 Q6.25 24.6 7.65 23.25 L8.9 21.9 9.45 21.2 10.05 30.65 Q6.0 33.3 2.4 31.0 2.5 28.05 2.25 25.25 M-24.05 -17.8 L-23.9 -17.8 -22.1 -15.35 Q-23.55 -14.15 -24.35 -12.65 -24.4 -15.2 -24.05 -17.8" fill="#55bb65" fill-rule="evenodd" stroke="none"/>
      <path d="M12.25 -35.75 L14.5 -34.3 Q21.3 -28.6 23.4 -19.95 23.85 -17.95 23.95 -15.8 24.15 -8.3 20.6 -1.7 17.35 -2.45 14.0 -0.55 L7.65 2.85 8.55 1.85 8.95 1.4 13.45 -2.55 15.3 -5.15 16.2 -6.65 17.45 -8.95 18.6 -12.4 18.9 -14.25 19.15 -15.85 Q19.55 -18.15 19.15 -20.35 18.0 -26.2 14.8 -31.5 14.2 -32.45 13.75 -33.5 L12.25 -35.75 M2.25 25.25 L1.9 22.55 5.7 21.15 9.2 19.5 9.4 20.9 9.45 21.2 8.9 21.9 7.65 23.25 Q6.25 24.6 4.4 25.1 L3.0 25.25 2.25 25.25" fill="#43a752" fill-rule="evenodd" stroke="none"/>
      <path d="M8.85 -12.85 L8.75 -12.8 Q7.65 -14.45 6.15 -15.6 3.6 -17.5 0.65 -18.55 L0.0 -18.8 -2.85 -19.6 -4.9 -20.0 -4.15 -21.5 -3.55 -21.55 Q2.25 -21.15 6.3 -17.05 L7.65 -15.95 8.85 -12.85 M-20.35 -12.35 Q-21.8 -10.95 -22.7 -9.3 L-23.0 -8.7 -23.5 -6.45 -23.95 -8.8 -24.0 -9.45 Q-23.65 -12.1 -21.65 -14.1 L-21.4 -14.25 -20.35 -12.35" fill="#cccccc" fill-rule="evenodd" stroke="none"/>
      <path d="M-4.9 -20.0 L-2.85 -19.6 0.0 -18.8 0.65 -18.55 Q3.6 -17.5 6.15 -15.6 7.65 -14.45 8.75 -12.8 L8.85 -12.85 8.95 -12.5 Q9.85 -9.2 9.7 -5.7 9.4 -0.6 6.05 3.3 L6.15 3.55 4.7 3.8 Q2.6 3.95 0.55 3.75 1.1 3.15 1.45 2.05 1.6 1.4 1.9 0.7 L1.7 -1.15 -3.1 -1.9 -3.15 -1.95 -3.2 -2.05 -3.25 -2.2 Q-3.15 -2.55 -2.7 -2.6 L1.0 -4.05 Q0.0 -6.8 -1.95 -9.15 -3.05 -10.5 -4.6 -11.05 L-4.8 -11.1 -5.7 -11.05 -6.55 -10.55 Q-6.7 -14.5 -5.55 -18.25 L-4.9 -20.0 M-20.35 -12.35 Q-19.05 -9.7 -18.3 -6.75 L-19.25 -6.85 -19.65 -6.6 -19.9 -6.45 Q-20.7 -4.35 -20.45 -2.4 L-18.4 -1.95 -18.3 -1.95 -18.2 -1.85 -18.2 -1.7 Q-18.95 -0.95 -20.1 -0.55 L-18.6 2.1 -19.35 2.85 Q-22.4 -1.4 -23.5 -6.45 L-23.0 -8.7 -22.7 -9.3 Q-21.8 -10.95 -20.35 -12.35 M-21.65 -14.1 L-21.4 -14.3 -21.4 -14.25 -21.65 -14.1" fill="#ffffff" fill-rule="evenodd" stroke="none"/>
      <path d="M-5.5 3.2 L-4.3 3.7 -2.6 4.35 -2.55 4.4 -2.4 4.45 Q5.2 7.0 11.95 1.9 14.95 -0.45 18.7 -0.8 L18.8 -0.7 18.9 -0.6 19.05 -0.5 Q20.8 -0.85 22.35 0.2 L23.95 1.6 23.95 1.9 Q23.85 2.3 24.05 2.65 L24.1 2.9 Q23.75 4.5 22.7 5.65 22.3 6.05 22.15 6.55 L22.15 6.7 22.15 6.8 Q17.15 13.35 10.15 17.4 L8.75 18.2 Q5.4 19.95 1.6 21.2 L0.45 21.55 -1.35 22.05 Q-10.05 24.25 -19.05 23.05 -26.05 22.2 -32.5 24.65 L-33.45 23.5 -33.9 22.3 Q-34.15 20.65 -33.1 19.45 -32.15 18.9 -31.1 18.5 L-29.6 18.5 -18.4 19.25 -14.25 19.55 Q-7.05 19.7 -0.5 17.45 L0.6 17.05 Q3.0 16.15 5.35 14.85 L6.9 14.0 8.85 12.7 Q13.2 9.75 14.75 4.85 L15.25 4.35 17.5 4.9 18.45 5.1 18.65 5.05 19.05 4.55 19.05 4.4 Q17.55 2.75 15.25 2.9 L12.75 3.35 Q10.35 4.2 9.95 6.55 L9.95 6.7 10.1 6.7 10.25 6.8 10.3 6.85 10.45 6.75 Q11.9 4.9 13.7 4.45 12.75 5.55 12.2 7.05 11.2 9.55 9.05 11.05 L5.6 13.2 3.5 14.35 3.35 14.4 3.35 14.35 3.3 14.3 4.9 12.85 5.25 12.5 Q6.75 10.9 6.4 8.95 L6.15 8.3 Q5.1 6.8 3.15 7.1 L0.55 7.0 -1.25 6.55 Q-3.45 5.9 -4.75 4.15 L-5.5 3.2" fill="#e05512" fill-rule="evenodd" stroke="none"/>
      <path d="M-5.5 3.2 L-4.75 4.15 Q-3.45 5.9 -1.25 6.55 L0.55 7.0 3.15 7.1 Q5.1 6.8 6.15 8.3 L6.4 8.95 Q6.75 10.9 5.25 12.5 L4.9 12.85 3.3 14.3 3.35 14.35 3.35 14.4 2.9 14.6 1.65 15.2 -0.1 15.9 -0.8 16.15 Q-9.15 19.15 -18.5 18.4 L-27.05 17.4 Q-31.7 16.65 -36.15 17.6 L-37.1 18.7 -37.1 18.75 -34.4 18.6 -36.85 20.55 -37.05 20.7 -37.2 21.0 Q-40.85 20.45 -42.15 17.15 -43.2 14.35 -40.15 13.35 L-36.25 12.2 -35.8 12.15 Q-33.25 11.85 -30.7 12.05 L-29.8 12.1 Q-26.1 12.45 -22.45 13.85 L-19.8 13.6 Q-23.1 12.1 -26.55 11.4 -22.1 9.65 -18.5 6.6 -17.5 5.75 -17.25 4.65 L-17.55 4.35 -17.9 4.25 -18.75 5.1 -18.75 4.7 -18.35 4.2 -18.5 3.95 -18.1 3.25 -17.3 2.95 -17.0 2.9 -16.85 2.8 -16.8 2.8 Q-11.2 1.0 -5.5 3.2 M-33.1 19.45 Q-34.15 20.65 -33.9 22.3 L-33.45 23.5 -32.5 24.65 -34.3 25.4 Q-34.8 25.65 -35.5 25.4 L-35.9 25.2 -36.0 24.95 -36.3 24.7 -36.4 24.5 Q-37.05 22.7 -35.7 21.35 L-35.65 21.25 Q-34.45 20.2 -33.1 19.45" fill="#f07942" fill-rule="evenodd" stroke="none"/>
      <path d="M-23.2 49.8 L-23.35 49.7 -25.55 48.0 Q-21.6 46.6 -18.9 43.4 -14.2 37.95 -8.95 33.15 L-8.85 33.25 -9.4 33.85 -9.45 34.15 Q-11.1 38.8 -13.2 43.3 L-14.15 44.25 -15.3 45.3 -20.4 48.95 Q-21.35 49.55 -22.4 49.8 L-23.2 49.8 M-13.4 47.1 L-11.4 42.95 -9.85 42.25 -5.35 41.05 -2.6 40.75 -2.1 40.7 3.15 40.95 5.4 41.35 10.15 42.65 12.35 43.45 14.65 44.4 15.95 45.05 19.85 47.4 21.0 48.05 21.05 49.8 12.85 49.8 12.0 49.4 10.35 48.65 9.7 48.25 Q8.85 47.6 7.8 47.4 L6.8 47.15 Q4.75 46.6 2.6 46.4 L0.4 46.05 -7.2 45.55 Q-8.95 45.6 -10.6 46.2 L-11.0 46.35 -11.6 46.5 -12.4 46.7 -13.4 47.1 M-9.95 39.6 L-8.25 35.0 Q-4.65 33.2 -0.35 33.1 L2.9 33.15 Q4.65 33.85 7.0 33.75 L8.65 33.55 Q10.55 33.75 12.15 34.55 L12.9 34.85 15.9 35.85 19.35 37.3 19.4 37.5 19.95 39.4 20.7 43.4 20.65 43.35 20.2 43.05 19.85 42.8 17.6 41.95 17.2 41.75 16.6 41.45 14.95 40.75 Q12.8 39.75 10.4 39.2 L9.7 38.95 Q7.6 38.15 5.15 38.0 L4.65 37.95 3.65 37.75 3.4 37.7 -0.35 37.7 -2.1 37.8 Q-4.75 37.95 -7.1 38.85 L-7.6 38.95 Q-8.95 38.95 -9.95 39.6 M-5.75 30.35 L-3.15 28.2 0.95 26.65 1.25 30.15 0.65 29.6 0.5 29.45 0.5 29.3 Q0.6 28.5 -0.2 28.3 L-0.2 28.35 -0.85 28.7 -0.85 29.15 -0.65 29.65 -1.6 29.65 -4.35 30.05 -5.75 30.35 M11.9 31.0 L12.1 29.75 11.6 29.8 11.4 29.9 11.2 29.05 11.4 27.2 11.45 27.2 Q14.8 29.65 17.25 32.85 L17.3 32.85 15.35 31.95 14.95 31.75 11.9 31.0 M23.3 40.6 L22.85 39.4 Q21.95 37.25 20.85 35.35 19.6 33.25 18.05 31.5 L21.9 34.55 22.0 34.85 22.25 35.3 22.4 35.45 Q29.55 44.5 39.6 49.8 L27.8 49.8 Q26.1 46.55 24.8 43.2 L24.15 41.8 23.5 40.5 23.3 40.6 M-13.4 49.8 L-12.2 49.4 -9.8 48.9 -9.2 48.8 -6.4 48.7 -5.6 48.8 Q-1.9 49.0 1.6 49.8 L-13.4 49.8" fill="#3399ff" fill-rule="evenodd" stroke="none"/>
      <path d="M-14.9 49.8 L-13.4 47.1 -12.4 46.7 -11.6 46.5 -11.0 46.35 -10.6 46.2 Q-8.95 45.6 -7.2 45.55 L0.4 46.05 2.6 46.4 Q4.75 46.6 6.8 47.15 L7.8 47.4 Q8.85 47.6 9.7 48.25 L10.35 48.65 12.0 49.4 12.85 49.8 1.6 49.8 Q-1.9 49.0 -5.6 48.8 L-6.4 48.7 -9.2 48.8 -9.8 48.9 -12.2 49.4 -13.4 49.8 -14.9 49.8 M-11.4 42.95 L-9.95 39.6 Q-8.95 38.95 -7.6 38.95 L-7.1 38.85 Q-4.75 37.95 -2.1 37.8 L-0.35 37.7 3.4 37.7 3.65 37.75 4.65 37.95 5.15 38.0 Q7.6 38.15 9.7 38.95 L10.4 39.2 Q12.8 39.75 14.95 40.75 L16.6 41.45 17.2 41.75 17.6 41.95 19.85 42.8 20.2 43.05 20.65 43.35 20.7 43.4 20.75 43.6 20.85 43.45 23.15 45.0 24.3 49.8 23.35 49.8 22.4 48.9 21.9 48.6 21.0 48.05 19.85 47.4 15.95 45.05 14.65 44.4 12.35 43.45 10.15 42.65 5.4 41.35 3.15 40.95 -2.1 40.7 -2.6 40.75 -5.35 41.05 -9.85 42.25 -11.4 42.95 M-8.25 35.0 L-7.6 32.9 -7.45 32.75 Q-7.05 32.45 -7.1 32.0 L-6.95 31.85 -5.85 30.45 -5.75 30.35 -4.35 30.05 -1.6 29.65 -0.65 29.65 Q0.55 32.15 2.9 33.15 L-0.35 33.1 Q-4.65 33.2 -8.25 35.0 M8.65 33.55 Q11.2 33.0 11.9 31.0 L14.95 31.75 15.35 31.95 17.3 32.85 Q19.0 35.1 20.35 37.7 L19.45 37.4 19.4 37.35 19.35 37.3 15.9 35.85 12.9 34.85 12.15 34.55 Q10.55 33.75 8.65 33.55" fill="#0060bf" fill-rule="evenodd" stroke="none"/>
      <path d="M-13.2 43.3 L-13.75 44.45 -15.0 47.05 -15.1 47.15 -15.75 48.4 -16.6 49.8 -22.4 49.8 Q-21.35 49.55 -20.4 48.95 L-15.3 45.3 -14.15 44.25 -13.2 43.3 M20.35 37.7 L21.75 40.9 23.15 45.0 20.85 43.45 20.7 43.4 19.95 39.4 19.4 37.5 19.45 37.4 20.35 37.7 M25.8 49.8 L25.3 47.35 Q24.5 43.9 23.3 40.6 L23.5 40.5 24.15 41.8 24.8 43.2 Q26.1 46.55 27.8 49.8 L25.8 49.8 M21.05 49.8 L21.0 48.05 21.9 48.6 22.4 48.9 23.35 49.8 21.05 49.8" fill="#007dfb" fill-rule="evenodd" stroke="none"/>
      <path d="M20.7 43.4 L20.85 43.45 20.75 43.6 20.7 43.4 M19.35 37.3 L19.4 37.35 19.45 37.4 19.4 37.5 19.35 37.3" fill="#d6280a" fill-rule="evenodd" stroke="none"/>
    </g>
  </defs>
</svg>
