<?xml version="1.0" encoding="UTF-8" standalone="no"?>
<svg xmlns:xlink="http://www.w3.org/1999/xlink" height="181.25px" width="455.15px" xmlns="http://www.w3.org/2000/svg">
  <g transform="matrix(1.0, 0.0, 0.0, 1.0, 265.05, 116.9)">
    <clipPath id="clipPath0" transform="matrix(1.0, 0.0, 0.0, 1.0, 265.05, 116.9)">
      <use height="97.95" transform="matrix(1.0, 0.0, 0.0, 1.0, -133.45, -105.6)" width="266.5" xlink:href="#shape0"/>
    </clipPath>
    <g clip-path="url(#clipPath0)">
      <use height="160.3" transform="matrix(0.64, 0.0, 0.0, 0.64, -46.4808, -44.4947)" width="152.55" xlink:href="#sprite0"/>
    </g>
    <use height="14.5" transform="matrix(1.0, 0.0, 0.0, 1.0, -41.05, -18.25)" width="76.1" xlink:href="#shape2"/>
  </g>
  <defs>
    <g id="shape0" transform="matrix(1.0, 0.0, 0.0, 1.0, 133.45, 105.6)">
      <path d="M13.0 -7.65 Q-38.8 -7.65 -80.8 -8.25 -122.85 -8.9 -133.05 -12.2 L-133.05 -12.35 Q-133.05 -13.25 -132.55 -14.1 L-133.45 -14.1 -133.45 -105.6 133.05 -105.6 133.05 -14.1 130.85 -14.1 131.1 -13.6 Q127.35 -12.1 112.55 -10.7 L81.25 -8.45 Q64.75 -7.65 13.0 -7.65" fill="#0066ff" fill-rule="evenodd" stroke="none"/>
    </g>
    <g id="sprite0" transform="matrix(1.0, 0.0, 0.0, 1.0, 76.3, 80.15)">
      <use height="160.3" transform="matrix(1.0, 0.0, 0.0, 1.0, -76.3, -80.15)" width="152.55" xlink:href="#shape1"/>
    </g>
    <g id="shape1" transform="matrix(1.0, 0.0, 0.0, 1.0, 76.3, 80.15)">
      <path d="M21.3 -67.0 L21.4 -66.95 23.6 -64.95 23.75 -64.9 Q23.85 -64.8 24.05 -64.75 L25.4 -63.4 Q31.4 -57.6 32.85 -49.4 L32.8 -49.2 32.8 -48.9 Q33.4 -43.45 32.1 -38.15 L30.75 -33.7 Q30.25 -32.25 29.35 -31.85 L31.0 -31.1 Q32.3 -30.4 32.7 -29.0 33.45 -26.0 31.6 -24.15 30.65 -21.9 28.95 -20.05 24.35 -15.15 18.55 -11.8 19.6 -9.15 19.4 -5.7 L19.35 -4.6 19.9 -4.1 20.0 -3.95 20.8 -3.4 20.8 -3.45 Q31.25 2.1 38.75 11.35 41.7 15.0 46.1 16.9 L51.65 19.45 Q50.6 23.2 46.8 25.55 L44.3 26.95 45.15 28.7 45.2 28.75 45.55 29.8 45.6 29.95 Q49.2 38.8 50.95 48.15 L51.0 48.1 51.0 48.05 Q54.15 48.8 53.85 51.75 L56.0 51.65 Q66.95 51.4 74.9 58.3 77.2 60.3 75.6 62.75 73.3 66.35 68.8 66.7 62.25 67.15 56.05 65.25 50.05 63.45 44.1 64.35 L43.1 65.25 42.25 65.6 Q36.3 68.3 33.15 62.95 32.3 61.55 33.3 60.2 34.6 58.5 36.6 57.6 38.7 56.6 40.35 54.85 L40.75 54.5 40.1 53.7 Q39.6 50.2 42.45 49.15 40.0 40.7 36.65 32.55 L35.45 29.7 34.55 29.8 34.55 31.6 34.45 33.3 Q34.0 42.45 31.1 51.05 L30.1 52.7 30.3 53.6 29.95 54.05 29.75 54.15 29.7 54.25 Q28.4 58.8 24.4 62.3 15.0 70.45 2.55 68.35 L2.75 73.3 2.7 73.45 Q1.9 74.55 0.85 74.85 -1.4 77.7 -5.75 78.45 L-10.6 79.25 -28.2 79.9 -34.6 79.1 Q-39.45 78.3 -43.1 75.15 L-43.1 74.35 -43.2 74.2 Q-43.5 71.2 -42.3 68.45 -41.45 66.5 -40.3 64.85 -43.95 66.7 -48.35 67.2 -56.35 68.1 -64.2 67.55 L-65.4 67.45 Q-71.15 66.75 -75.45 63.4 L-75.6 63.5 -75.95 63.4 -76.3 62.95 Q-74.8 59.05 -72.05 55.8 -67.3 50.25 -60.25 48.05 -56.4 46.85 -52.4 46.45 L-49.3 46.5 Q-48.5 35.75 -42.8 26.55 -41.25 24.0 -38.95 22.3 L-38.95 22.25 Q-37.9 21.1 -36.55 20.55 L-35.8 20.25 Q-29.6 23.05 -26.4 28.9 L-26.1 27.0 -25.9 25.7 -25.45 25.3 -25.2 25.25 Q-21.9 29.3 -17.5 31.75 L-17.1 30.95 -17.15 30.85 -17.25 30.55 Q-16.65 25.65 -14.4 21.7 -17.45 20.45 -20.05 17.8 L-20.2 17.2 -19.9 16.45 Q-11.1 13.4 -5.75 5.5 -0.35 -2.4 8.65 -5.25 L8.4 -7.45 Q2.7 -5.85 -3.35 -5.9 L-17.5 -6.05 Q-19.1 -6.05 -20.55 -5.45 L-21.65 -5.0 Q-24.25 -4.05 -26.9 -3.75 -27.75 -3.7 -28.3 -4.15 -30.75 -6.15 -29.75 -8.35 L-30.55 -8.4 -31.1 -8.6 -31.2 -8.65 -31.3 -8.7 -31.4 -8.8 -31.65 -8.8 -31.7 -8.8 -31.85 -8.85 Q-33.85 -9.65 -34.95 -11.45 -37.7 -16.0 -32.9 -18.5 L-32.7 -18.6 -32.3 -18.8 -29.15 -19.5 Q-25.85 -19.85 -22.65 -19.6 -16.75 -20.75 -12.05 -24.45 -12.35 -24.9 -12.25 -25.45 L-12.2 -26.1 -12.2 -26.25 -12.1 -26.5 Q-13.85 -28.2 -14.95 -30.45 L-15.6 -32.0 -17.0 -36.6 -17.2 -36.65 -17.25 -36.7 Q-17.55 -38.05 -17.45 -39.3 -18.2 -44.4 -17.4 -49.65 L-17.45 -49.8 -16.7 -51.6 Q-14.75 -59.9 -6.95 -64.5 L-5.1 -65.2 -5.5 -65.3 Q-9.8 -66.8 -14.35 -67.25 L-14.6 -67.6 -14.7 -67.9 -14.7 -68.05 -14.25 -68.45 Q-10.8 -68.35 -8.85 -71.05 L-8.55 -71.1 -8.05 -70.9 -8.1 -70.85 Q-4.3 -69.75 -0.25 -69.15 L-6.6 -72.1 -7.25 -72.15 -7.35 -72.35 -7.4 -72.65 -7.3 -72.7 -7.0 -73.15 -6.85 -73.15 -6.6 -73.2 -6.15 -73.05 -5.9 -72.95 Q0.2 -74.4 2.6 -80.0 L2.75 -80.0 2.8 -80.1 3.0 -80.1 5.35 -77.85 10.3 -74.25 11.5 -73.4 21.3 -67.0 M16.75 -29.0 L16.35 -28.55 15.45 -27.55 21.8 -30.95 Q25.15 -32.85 28.4 -32.1 31.95 -38.7 31.75 -46.2 31.65 -48.35 31.2 -50.35 29.1 -59.0 22.3 -64.7 L20.05 -66.15 19.8 -66.3 Q11.7 -71.5 4.15 -77.3 L4.0 -77.55 4.0 -77.7 3.85 -77.7 3.25 -78.3 Q3.15 -77.3 2.2 -76.2 -0.6 -73.05 -4.1 -72.3 -0.8 -71.05 1.95 -68.9 L2.0 -68.75 1.75 -68.3 1.65 -68.3 Q1.5 -68.1 1.15 -68.1 L-6.35 -68.85 Q-7.75 -69.1 -8.35 -69.75 -8.9 -68.5 -10.35 -67.95 L-9.5 -67.65 Q-6.4 -67.1 -3.7 -65.65 L-3.65 -65.55 -2.6 -65.6 -2.45 -65.5 -2.3 -65.45 -2.25 -65.35 -2.2 -65.25 -2.25 -65.05 Q-8.95 -63.05 -13.05 -57.4 L-14.5 -54.25 -15.4 -51.95 -15.45 -51.75 -15.75 -50.65 -15.75 -50.6 -15.75 -50.5 -15.7 -50.4 -15.7 -50.25 -15.8 -49.9 -16.0 -49.35 Q-14.45 -48.8 -13.4 -47.1 L-13.1 -46.65 -12.8 -46.75 -11.45 -47.15 -11.4 -47.2 -11.2 -47.15 -11.1 -47.1 -11.05 -47.0 -10.95 -46.9 Q-10.85 -46.7 -11.05 -46.5 -11.65 -45.8 -12.5 -45.6 L-11.5 -43.7 Q-8.3 -36.95 -8.25 -29.45 L-8.25 -29.35 -8.2 -29.35 Q-4.65 -30.05 -1.05 -29.25 L2.1 -28.3 3.95 -27.65 Q2.2 -30.1 1.4 -33.2 0.3 -37.5 -0.1 -41.9 -0.55 -46.6 1.35 -50.35 L2.2 -51.9 0.15 -51.65 -0.05 -51.7 -0.2 -51.85 -0.25 -51.95 -0.25 -52.1 0.45 -52.9 1.65 -53.0 3.1 -53.1 5.05 -55.05 3.65 -55.4 3.6 -55.4 Q3.45 -55.95 3.8 -56.2 8.85 -56.35 12.25 -52.55 14.85 -50.1 16.55 -46.65 18.35 -42.9 18.65 -39.05 18.95 -35.6 18.05 -32.05 17.6 -30.35 16.75 -29.0 M6.55 -54.55 L6.35 -54.35 4.5 -53.05 Q9.4 -52.85 13.1 -50.05 10.5 -53.1 6.55 -54.55 M4.6 -60.85 Q4.65 -61.75 5.55 -62.0 9.45 -62.4 12.5 -59.95 14.45 -58.35 14.35 -56.3 13.25 -56.5 12.65 -57.55 L11.45 -59.25 Q11.05 -59.4 10.75 -59.6 8.0 -61.55 5.15 -60.35 L4.8 -60.45 4.65 -60.65 4.55 -60.8 4.6 -60.85 M16.65 -43.25 L15.45 -46.35 14.1 -47.45 Q10.05 -51.55 4.25 -51.95 L3.65 -51.9 2.9 -50.4 2.25 -48.65 Q1.1 -44.9 1.25 -40.95 L2.1 -41.45 3.0 -41.5 3.2 -41.45 Q4.75 -40.9 5.85 -39.55 7.8 -37.2 8.8 -34.45 L5.1 -33.0 Q4.65 -32.95 4.55 -32.6 L4.6 -32.45 4.65 -32.35 4.7 -32.3 9.5 -31.55 9.7 -29.7 9.25 -28.35 Q8.9 -27.25 8.35 -26.65 10.4 -26.45 12.5 -26.6 L13.95 -26.85 13.85 -27.1 Q17.2 -31.0 17.5 -36.1 17.65 -39.6 16.75 -42.9 L16.65 -43.25 M-16.1 -48.2 L-16.25 -48.25 -16.25 -48.2 Q-16.6 -45.6 -16.55 -43.05 -15.75 -44.55 -14.3 -45.75 L-16.1 -48.2 M-13.6 -44.65 L-13.6 -44.7 -13.85 -44.5 Q-15.85 -42.5 -16.2 -39.85 L-16.15 -39.2 -15.7 -36.85 Q-14.6 -31.8 -11.55 -27.55 L-10.8 -28.3 Q-11.8 -29.6 -12.3 -30.95 -11.15 -31.35 -10.4 -32.1 L-10.4 -32.25 -10.5 -32.35 -10.6 -32.35 -12.65 -32.8 Q-12.9 -34.75 -12.1 -36.85 L-11.85 -37.0 -11.45 -37.25 -10.5 -37.15 Q-11.25 -40.1 -12.55 -42.75 L-13.6 -44.65 M2.3 -27.2 Q-3.4 -29.4 -9.0 -27.6 L-9.05 -27.6 -9.2 -27.5 -9.5 -27.45 -10.3 -27.15 -10.7 -26.45 -10.55 -26.2 -10.95 -25.7 -10.95 -25.3 -10.1 -26.15 -9.75 -26.05 -9.45 -25.75 Q-9.7 -24.65 -10.7 -23.8 -14.3 -20.75 -18.75 -19.0 -15.3 -18.3 -12.0 -16.8 -13.1 -16.2 -14.65 -16.55 -18.3 -17.95 -22.0 -18.3 L-22.9 -18.35 Q-25.45 -18.55 -28.0 -18.25 L-28.45 -18.2 -32.35 -17.05 Q-35.4 -16.05 -34.35 -13.25 -33.05 -9.95 -29.4 -9.4 L-29.25 -9.7 -29.05 -9.85 -26.6 -11.8 -29.3 -11.65 -29.3 -11.7 -28.35 -12.8 Q-23.9 -13.75 -19.25 -13.0 L-10.7 -12.0 Q-1.35 -11.25 7.0 -14.25 L7.7 -14.5 9.45 -15.2 10.7 -15.8 11.15 -16.0 11.3 -16.05 13.4 -17.2 16.85 -19.35 Q19.0 -20.85 20.0 -23.35 20.55 -24.85 21.5 -25.95 19.7 -25.5 18.25 -23.65 L18.1 -23.55 18.05 -23.6 17.9 -23.7 17.75 -23.7 17.75 -23.85 Q18.15 -26.2 20.55 -27.05 L23.05 -27.5 Q25.35 -27.65 26.85 -26.0 L26.85 -25.85 26.45 -25.35 26.25 -25.3 25.3 -25.5 23.05 -26.05 22.55 -25.55 Q21.0 -20.65 16.65 -17.7 L14.7 -16.4 13.15 -15.55 Q10.8 -14.25 8.4 -13.35 L7.3 -12.95 Q0.75 -10.7 -6.45 -10.85 L-10.6 -11.15 -21.8 -11.9 -23.3 -11.9 -25.3 -10.95 Q-26.65 -10.2 -27.85 -9.15 L-27.9 -9.05 Q-29.25 -7.7 -28.6 -5.9 L-28.5 -5.7 -28.2 -5.45 -28.1 -5.2 -27.7 -5.0 Q-27.0 -4.75 -26.5 -5.0 L-24.7 -5.75 Q-18.25 -8.2 -11.25 -7.35 -2.25 -6.15 6.45 -8.35 L8.25 -8.85 9.4 -9.2 Q13.2 -10.45 16.55 -12.2 L17.95 -13.0 Q24.95 -17.05 29.95 -23.6 L29.95 -23.7 29.95 -23.85 30.5 -24.75 Q31.55 -25.9 31.9 -27.5 L31.85 -27.75 Q31.65 -28.1 31.75 -28.5 L31.75 -28.8 Q31.05 -29.6 30.15 -30.2 28.6 -31.25 26.85 -30.9 L26.7 -31.0 26.6 -31.1 26.5 -31.2 Q22.75 -30.85 19.75 -28.5 13.0 -23.4 5.4 -25.95 L5.25 -26.0 5.2 -26.05 3.5 -26.7 2.3 -27.2 M-27.25 35.5 L-26.8 31.55 -27.4 30.45 Q-27.7 29.7 -28.3 29.15 -29.95 25.75 -33.0 23.4 L-34.4 22.25 -35.35 21.9 -35.55 21.8 Q-36.3 22.0 -36.9 22.4 L-38.1 23.45 -38.35 23.7 -38.7 24.0 Q-41.85 27.0 -43.75 31.0 L-43.85 31.15 Q-47.05 38.75 -47.95 46.9 L-47.95 47.05 -47.85 47.3 -47.85 47.45 -47.9 47.6 -48.1 47.95 -48.45 49.6 Q-48.95 50.0 -49.3 49.45 L-49.45 48.25 Q-60.15 47.75 -68.55 54.45 -72.05 57.25 -73.8 61.3 L-74.55 62.55 -71.5 64.05 Q-67.65 55.0 -57.75 52.55 L-57.4 52.4 -56.7 52.6 -56.55 52.7 Q-65.05 55.55 -69.45 63.4 L-69.8 63.85 -69.85 64.0 -69.85 64.15 -69.9 64.45 -70.0 64.65 -69.95 64.65 -64.45 66.1 Q-59.75 66.85 -54.55 66.15 L-49.4 65.6 Q-43.8 65.1 -39.0 62.45 L-38.6 62.6 -37.75 61.7 Q-38.8 50.3 -35.2 39.65 -34.25 36.9 -32.0 35.35 -31.6 35.4 -31.4 35.75 L-31.35 35.9 -31.5 36.35 -31.75 36.65 -31.85 36.95 -31.9 37.25 -32.5 38.5 Q-29.6 41.0 -27.5 44.1 -27.6 39.75 -27.25 35.5 M17.25 -9.2 L17.2 -9.5 17.0 -10.9 13.5 -9.25 9.7 -7.85 10.05 -5.15 Q10.3 -2.35 10.2 0.6 13.8 2.9 17.85 0.25 L17.25 -9.2 M7.15 -0.75 L6.95 -1.25 6.95 -1.7 Q7.15 -2.1 7.6 -2.05 L7.6 -2.1 Q8.4 -1.9 8.3 -1.1 L8.3 -0.95 8.45 -0.8 9.05 -0.25 8.75 -3.75 4.65 -2.2 2.05 -0.05 1.95 0.05 0.85 1.45 0.7 1.6 0.35 2.35 0.2 2.5 -0.45 4.6 -2.15 9.2 -3.6 12.55 -5.6 16.7 -7.5 20.1 -9.25 22.9 -9.45 23.2 -9.75 23.4 -9.8 23.55 -12.1 26.95 -14.85 30.35 -15.5 31.25 -14.1 30.8 -11.2 30.25 -7.2 30.3 -7.05 30.3 Q-5.8 27.75 -3.95 25.45 L-3.85 25.35 -2.0 23.55 Q-0.9 22.5 0.6 21.95 L1.4 21.7 2.2 21.45 Q3.5 21.55 4.65 22.1 L5.4 22.5 5.7 22.65 6.95 24.15 Q7.65 24.7 7.95 25.5 L8.8 26.9 11.8 32.9 Q19.55 36.45 24.8 42.95 26.8 45.4 28.4 48.3 L29.5 50.65 31.35 44.35 32.45 38.45 32.95 34.2 32.95 33.75 33.0 33.05 33.1 28.75 Q33.0 24.75 32.35 20.85 L30.95 14.6 29.55 10.5 28.15 7.3 Q26.8 4.7 25.1 2.45 L25.05 2.45 Q22.6 -0.75 19.25 -3.2 L19.2 -3.2 19.0 -1.35 19.2 -0.5 19.4 -0.6 19.9 -0.65 19.7 0.6 Q19.0 2.6 16.45 3.15 L14.8 3.35 Q12.45 3.45 10.7 2.75 8.35 1.75 7.15 -0.75 M-1.15 2.75 Q-6.4 7.55 -11.1 13.0 -13.8 16.2 -17.75 17.6 L-15.55 19.3 -15.2 19.55 Q-13.6 20.55 -11.85 21.2 L-10.4 21.7 -10.1 21.4 -10.05 21.1 -10.0 20.95 -9.7 20.6 -7.95 18.0 -7.3 16.75 -7.2 16.65 -5.95 14.05 -5.4 12.9 Q-3.3 8.4 -1.65 3.75 L-1.6 3.45 -1.05 2.85 -0.95 2.6 -1.15 2.75 M-12.35 22.35 L-13.45 22.05 -15.1 27.7 -13.35 25.3 -11.15 22.6 -12.35 22.35 M-11.25 51.4 Q-11.2 43.35 -9.1 35.65 L-7.8 31.9 Q-12.15 31.7 -16.25 33.05 L-16.6 33.15 Q-17.15 34.1 -18.0 34.7 -18.5 34.55 -18.65 34.0 L-18.05 32.8 Q-21.5 32.15 -23.75 28.8 L-24.4 28.05 -25.1 31.85 -25.1 32.0 -25.15 32.2 -25.65 37.2 Q-25.9 40.5 -25.75 43.9 -25.55 49.4 -23.8 54.4 L-24.05 54.6 -24.1 54.65 -23.75 54.6 -22.6 54.45 -20.6 54.4 Q-21.95 52.45 -22.35 50.0 L-22.55 49.7 -22.7 49.55 Q-24.75 41.65 -20.2 35.5 -19.7 37.05 -20.55 39.2 -22.05 42.9 -21.4 47.0 L-20.6 50.4 -19.1 54.4 Q-15.05 54.5 -11.15 55.65 L-11.25 51.4 M12.8 39.1 L10.6 33.7 9.25 30.2 7.7 27.8 6.75 26.4 6.5 26.15 Q3.75 21.5 -0.55 24.45 L-1.6 25.4 Q-5.55 29.2 -6.8 34.7 L-7.25 35.6 Q-9.5 43.8 -9.7 52.4 -9.7 54.1 -10.05 55.7 L-10.3 55.9 -10.05 55.95 -9.95 56.05 -9.9 56.2 -9.85 56.5 -9.9 56.8 -9.95 56.95 -10.05 57.1 -24.35 56.7 Q-31.55 57.55 -36.65 62.75 -40.5 66.75 -41.8 71.9 L-41.75 74.0 -41.75 74.15 -38.55 76.4 Q-33.4 67.65 -23.4 64.6 L-21.0 63.95 -19.2 64.1 -19.05 64.15 Q-30.65 67.05 -37.05 76.85 L-37.1 76.95 -37.05 76.95 -36.95 77.0 Q-32.25 78.15 -27.6 78.6 -13.85 79.75 -0.9 74.3 -0.2 74.0 0.25 73.3 L1.15 72.3 1.2 72.3 Q0.9 70.05 1.0 67.9 0.7 60.3 1.0 52.65 L0.9 52.2 Q0.9 51.95 1.05 51.8 L1.3 46.7 Q1.75 40.5 4.6 35.6 5.55 37.1 4.6 39.3 4.1 40.35 3.9 41.55 6.05 47.4 6.65 53.6 L6.65 53.65 Q11.05 54.25 14.75 50.2 L14.85 50.15 Q14.55 45.65 13.45 41.4 L12.8 39.1 M40.05 26.9 L42.6 25.9 Q42.75 25.5 43.2 25.55 L43.2 25.5 43.25 25.6 Q43.85 25.3 44.4 25.05 47.75 23.55 49.7 20.55 38.15 15.15 30.2 5.05 L30.05 4.9 Q29.85 4.75 29.8 4.45 L29.7 4.15 25.85 1.1 Q27.4 2.85 28.65 4.95 29.75 6.85 30.65 9.0 L31.1 10.2 Q32.3 13.5 33.1 16.95 34.4 22.75 34.55 28.8 L40.05 26.9 M27.7 55.5 L28.65 53.65 28.65 53.25 Q26.95 48.35 23.85 44.35 22.15 42.15 20.05 40.2 L16.95 37.25 Q14.85 35.8 12.6 34.7 L14.05 38.55 Q14.15 38.45 14.35 38.45 L14.6 38.4 Q20.1 41.75 17.85 47.9 16.5 51.6 13.0 53.7 7.7 56.85 2.6 53.85 L2.4 56.5 Q2.2 59.45 2.15 62.4 L2.35 66.9 2.45 67.35 Q13.65 68.45 22.25 61.6 25.55 59.0 27.7 55.5 M43.5 29.75 L42.85 27.65 Q39.8 28.95 36.55 29.55 L37.9 32.2 Q42.05 40.8 44.3 50.35 L44.3 51.05 46.3 51.55 49.55 51.4 50.0 50.8 Q47.9 40.0 43.6 29.95 L43.5 29.75 M45.8 62.55 Q49.6 61.6 54.0 63.2 62.8 66.4 71.65 64.15 L73.2 63.75 73.35 63.6 73.95 63.0 74.45 62.15 74.85 61.35 Q73.05 56.2 67.1 54.8 L61.8 53.8 53.6 52.9 Q52.5 56.5 48.4 57.05 44.65 57.6 42.05 55.7 L36.95 59.05 34.45 60.75 Q34.0 65.35 39.65 64.8 41.4 64.65 42.8 63.55 43.25 62.4 44.5 61.8 L45.0 61.65 Q45.45 61.7 45.7 62.05 L45.8 62.5 45.75 62.55 45.8 62.55 M55.1 54.55 Q55.35 54.2 55.8 54.2 L57.4 54.2 58.2 54.15 Q62.05 54.15 65.55 55.25 L65.65 55.35 65.65 55.5 65.65 55.65 65.65 55.8 65.6 55.95 65.55 56.1 65.5 56.4 65.45 56.55 65.4 56.7 65.25 56.85 65.1 57.0 65.05 57.15 65.0 57.3 64.9 57.4 Q60.5 56.0 55.75 55.15 55.15 55.05 55.1 54.55 M54.6 56.9 Q58.75 56.8 62.05 58.65 L62.15 58.75 61.45 59.75 59.5 61.15 59.0 61.3 Q57.1 59.85 54.9 58.85 L52.5 57.5 52.4 57.3 Q52.7 56.8 53.4 56.85 L54.6 56.9 M60.2 59.3 L60.35 59.15 60.3 59.15 Q58.4 58.25 56.3 58.2 L58.85 60.0 59.05 60.1 60.2 59.3 M64.45 56.25 Q63.95 55.25 62.0 55.5 L64.3 56.3 64.45 56.25 M51.1 52.05 Q48.95 53.6 47.05 53.5 L46.9 53.45 Q45.2 53.25 43.7 51.8 L43.1 51.55 42.75 50.25 42.0 51.3 41.55 51.85 Q41.45 52.55 41.8 53.15 L42.25 53.9 Q42.85 53.9 43.2 54.35 L43.25 54.5 43.25 54.65 Q48.4 57.1 51.85 52.9 L52.45 51.75 52.25 51.0 51.9 49.95 51.2 49.65 51.45 51.25 Q51.5 51.7 51.15 52.0 L51.1 52.05 M16.4 48.35 Q18.55 42.9 14.4 39.45 L15.8 44.4 Q16.3 46.35 16.35 48.35 L16.35 48.45 16.4 48.35 M5.2 53.3 Q4.6 49.05 3.45 45.0 L2.7 52.2 Q3.95 52.9 5.2 53.3 M-27.45 46.8 Q-30.0 43.05 -33.0 39.7 -35.4 45.2 -36.15 51.2 -32.65 47.4 -27.4 47.45 L-27.45 46.85 -27.45 46.8 M-24.65 54.5 Q-30.8 55.65 -35.75 52.4 L-36.2 51.6 Q-36.65 55.5 -36.4 59.6 L-36.35 60.4 -35.05 59.3 Q-30.25 55.65 -24.45 54.7 L-24.65 54.5 M-27.2 48.9 L-29.15 49.3 Q-32.35 49.5 -34.55 51.75 -30.45 53.6 -25.5 53.25 -26.8 51.3 -27.2 48.9" fill="#000000" fill-rule="evenodd" stroke="none"/>
      <path d="M16.75 -29.0 L21.25 -32.95 23.1 -35.55 24.0 -37.05 25.25 -39.35 26.4 -42.8 26.7 -44.65 26.95 -46.25 Q27.35 -48.55 26.95 -50.75 25.8 -56.6 22.6 -61.9 22.0 -62.85 21.55 -63.9 L20.05 -66.15 22.3 -64.7 Q29.1 -59.0 31.2 -50.35 31.65 -48.35 31.75 -46.2 31.95 -38.7 28.4 -32.1 25.15 -32.85 21.8 -30.95 L15.45 -27.55 16.35 -28.55 16.75 -29.0 M-64.45 66.1 L-62.45 63.95 -60.5 62.3 -58.45 60.75 -56.95 59.7 Q-56.0 59.1 -55.0 58.65 -51.55 57.05 -47.8 56.35 L-46.4 56.15 -45.4 56.05 -43.7 56.0 -42.6 49.4 -42.35 48.4 -41.2 44.2 Q-40.2 40.45 -38.2 37.2 L-37.55 35.95 Q-36.6 33.4 -34.55 31.7 L-34.25 31.75 Q-31.25 32.15 -28.75 34.15 L-27.85 34.9 -27.25 35.5 Q-27.6 39.75 -27.5 44.1 -29.6 41.0 -32.5 38.5 L-31.9 37.25 -31.85 36.95 -31.75 36.65 -31.5 36.35 -31.35 35.9 -31.4 35.75 Q-31.6 35.4 -32.0 35.35 -34.25 36.9 -35.2 39.65 -38.8 50.3 -37.75 61.7 L-38.6 62.6 -39.0 62.45 Q-43.8 65.1 -49.4 65.6 L-54.55 66.15 Q-59.75 66.85 -64.45 66.1 M17.25 -9.2 L16.7 -8.5 15.45 -7.15 Q14.05 -5.8 12.2 -5.3 L10.8 -5.15 10.05 -5.15 9.7 -7.85 13.5 -9.25 17.0 -10.9 17.2 -9.5 17.25 -9.2 M-12.35 22.35 L-11.15 22.6 -13.35 25.3 -15.1 27.7 -13.45 22.05 -12.35 22.35 M-27.6 78.6 Q-26.65 77.1 -25.35 75.85 L-23.25 73.95 Q-20.8 71.75 -17.85 70.35 -14.25 68.65 -10.4 67.75 L-6.45 67.4 -6.45 66.6 -5.8 59.4 -5.55 57.0 -5.1 53.4 -4.05 46.4 Q-3.3 42.6 -2.05 39.0 L-1.3 37.05 0.1 34.15 0.9 33.35 2.4 30.6 2.7 30.5 3.85 30.1 4.4 30.05 Q4.85 30.15 4.95 29.9 5.0 29.8 5.2 29.8 6.15 29.85 6.7 30.55 L7.2 31.0 Q8.65 32.0 9.45 33.55 L10.0 34.4 12.8 39.1 13.45 41.4 Q14.55 45.65 14.85 50.15 L14.75 50.2 Q11.05 54.25 6.65 53.65 L6.65 53.6 Q6.05 47.4 3.9 41.55 4.1 40.35 4.6 39.3 5.55 37.1 4.6 35.6 1.75 40.5 1.3 46.7 L1.05 51.8 Q0.9 51.95 0.9 52.2 L1.0 52.65 Q0.7 60.3 1.0 67.9 0.9 70.05 1.2 72.3 L1.15 72.3 0.25 73.3 Q-0.2 74.0 -0.9 74.3 -13.85 79.75 -27.6 78.6 M46.3 51.55 L44.3 51.05 44.3 50.35 Q42.05 40.8 37.9 32.2 L36.55 29.55 Q39.8 28.95 42.85 27.65 L43.5 29.75 40.45 31.25 Q40.6 32.55 41.1 33.85 L41.85 36.2 42.6 38.2 Q44.0 41.8 44.8 45.6 L46.3 51.55" fill="#43a752" fill-rule="evenodd" stroke="none"/>
      <path d="M20.05 -66.15 L21.55 -63.9 Q22.0 -62.85 22.6 -61.9 25.8 -56.6 26.95 -50.75 27.35 -48.55 26.95 -46.25 L26.7 -44.65 26.4 -42.8 25.25 -39.35 24.0 -37.05 23.1 -35.55 21.25 -32.95 16.75 -29.0 Q17.6 -30.35 18.05 -32.05 18.95 -35.6 18.65 -39.05 18.35 -42.9 16.55 -46.65 14.85 -50.1 12.25 -52.55 8.85 -56.35 3.8 -56.2 3.45 -55.95 3.6 -55.4 L3.65 -55.4 5.05 -55.05 3.1 -53.1 1.65 -53.0 0.45 -52.9 -0.25 -52.1 -0.25 -51.95 -0.2 -51.85 -0.05 -51.7 0.15 -51.65 2.2 -51.9 1.35 -50.35 Q-0.55 -46.6 -0.1 -41.9 0.3 -37.5 1.4 -33.2 2.2 -30.1 3.95 -27.65 L2.1 -28.3 -1.05 -29.25 Q-4.65 -30.05 -8.2 -29.35 L-8.25 -29.45 Q-8.3 -36.95 -11.5 -43.7 L-12.5 -45.6 Q-11.65 -45.8 -11.05 -46.5 -10.85 -46.7 -10.95 -46.9 L-11.05 -47.0 -11.1 -47.1 -11.2 -47.15 -11.4 -47.2 -11.45 -47.15 -12.8 -46.75 -13.1 -46.65 -13.4 -47.1 Q-14.45 -48.8 -16.0 -49.35 L-15.8 -49.9 -15.7 -50.25 -15.7 -50.4 -15.75 -50.5 -15.75 -50.6 -15.75 -50.65 -15.45 -51.75 -15.4 -51.95 -14.5 -54.25 -13.05 -57.4 Q-8.95 -63.05 -2.25 -65.05 L-2.2 -65.25 -2.25 -65.35 -2.3 -65.45 -2.45 -65.5 -2.6 -65.6 -3.65 -65.55 -3.7 -65.65 Q-6.4 -67.1 -9.5 -67.65 L-10.35 -67.95 Q-8.9 -68.5 -8.35 -69.75 -7.75 -69.1 -6.35 -68.85 L1.15 -68.1 Q1.5 -68.1 1.65 -68.3 L1.75 -68.3 2.0 -68.75 1.95 -68.9 Q-0.8 -71.05 -4.1 -72.3 -0.6 -73.05 2.2 -76.2 3.15 -77.3 3.25 -78.3 L3.85 -77.7 4.0 -77.7 4.0 -77.55 4.15 -77.3 Q11.7 -71.5 19.8 -66.3 L20.05 -66.15 M4.6 -60.85 L4.55 -60.8 4.65 -60.65 4.8 -60.45 5.15 -60.35 Q8.0 -61.55 10.75 -59.6 11.05 -59.4 11.45 -59.25 L12.65 -57.55 Q13.25 -56.5 14.35 -56.3 14.45 -58.35 12.5 -59.95 9.45 -62.4 5.55 -62.0 4.65 -61.75 4.6 -60.85 M6.55 -54.55 Q10.5 -53.1 13.1 -50.05 9.4 -52.85 4.5 -53.05 L6.35 -54.35 6.55 -54.55 M-16.1 -48.2 L-14.3 -45.75 Q-15.75 -44.55 -16.55 -43.05 -16.6 -45.6 -16.25 -48.2 L-16.1 -48.2 M-47.95 46.9 Q-47.05 38.75 -43.85 31.15 L-43.75 31.0 Q-41.85 27.0 -38.7 24.0 L-38.35 23.7 -38.1 23.45 -36.9 22.4 Q-36.3 22.0 -35.55 21.8 L-35.35 21.9 -34.4 22.25 -33.0 23.4 Q-29.95 25.75 -28.3 29.15 -27.7 29.7 -27.4 30.45 L-26.8 31.55 -27.25 35.5 -27.85 34.9 -28.75 34.15 Q-31.25 32.15 -34.25 31.75 L-34.55 31.7 Q-36.6 33.4 -37.55 35.95 L-38.2 37.2 Q-40.2 40.45 -41.2 44.2 L-42.35 48.4 -42.6 49.4 -43.7 56.0 -45.4 56.05 -46.4 56.15 -47.8 56.35 Q-51.55 57.05 -55.0 58.65 -56.0 59.1 -56.95 59.7 L-58.45 60.75 -60.5 62.3 -62.45 63.95 -64.45 66.1 -69.95 64.65 -69.9 64.45 -69.85 64.15 -69.85 64.0 -69.8 63.85 -69.45 63.4 Q-65.05 55.55 -56.55 52.7 L-56.7 52.6 -57.4 52.4 -57.75 52.55 Q-67.65 55.0 -71.5 64.05 L-74.55 62.55 -73.8 61.3 Q-72.05 57.25 -68.55 54.45 -60.15 47.75 -49.45 48.25 L-49.3 49.45 Q-48.95 50.0 -48.45 49.6 L-48.1 47.95 -47.9 47.6 -47.85 47.45 -47.85 47.3 -47.95 46.9 M10.05 -5.15 L10.8 -5.15 12.2 -5.3 Q14.05 -5.8 15.45 -7.15 L16.7 -8.5 17.25 -9.2 17.85 0.25 Q13.8 2.9 10.2 0.6 10.3 -2.35 10.05 -5.15 M-37.05 76.85 Q-30.65 67.05 -19.05 64.15 L-19.2 64.1 -21.0 63.95 -23.4 64.6 Q-33.4 67.65 -38.55 76.4 L-41.75 74.15 -41.75 74.0 -41.8 71.9 Q-40.5 66.75 -36.65 62.75 -31.55 57.55 -24.35 56.7 L-10.05 57.1 -9.95 56.95 -9.9 56.8 -9.85 56.5 -9.9 56.2 -9.95 56.05 -10.05 55.95 -10.3 55.9 -10.05 55.7 Q-9.7 54.1 -9.7 52.4 -9.5 43.8 -7.25 35.6 L-6.8 34.7 Q-5.55 29.2 -1.6 25.4 L-0.55 24.45 Q3.75 21.5 6.5 26.15 L6.75 26.4 7.7 27.8 9.25 30.2 10.6 33.7 12.8 39.1 10.0 34.4 9.45 33.55 Q8.65 32.0 7.2 31.0 L6.7 30.55 Q6.15 29.85 5.2 29.8 5.0 29.8 4.95 29.9 4.85 30.15 4.4 30.05 L3.85 30.1 2.7 30.5 2.4 30.6 0.9 33.35 0.1 34.15 -1.3 37.05 -2.05 39.0 Q-3.3 42.6 -4.05 46.4 L-5.1 53.4 -5.55 57.0 -5.8 59.4 -6.45 66.6 -6.45 67.4 -10.4 67.75 Q-14.25 68.65 -17.85 70.35 -20.8 71.75 -23.25 73.95 L-25.35 75.85 Q-26.65 77.1 -27.6 78.6 -32.25 78.15 -36.95 77.0 L-37.05 76.95 -37.05 76.85 M46.3 51.55 L44.8 45.6 Q44.0 41.8 42.6 38.2 L41.85 36.2 41.1 33.85 Q40.6 32.55 40.45 31.25 L43.5 29.75 43.6 29.95 Q47.9 40.0 50.0 50.8 L49.55 51.4 46.3 51.55" fill="#55bb65" fill-rule="evenodd" stroke="none"/>
      <path d="M2.9 -50.4 L3.65 -51.9 4.25 -51.95 Q10.05 -51.55 14.1 -47.45 L15.45 -46.35 16.65 -43.25 16.55 -43.2 Q15.45 -44.85 13.95 -46.0 11.4 -47.9 8.45 -48.95 L7.8 -49.2 4.95 -50.0 2.9 -50.4 M-13.85 -44.5 L-13.6 -44.65 -12.55 -42.75 Q-14.0 -41.35 -14.9 -39.7 L-15.2 -39.1 -15.7 -36.85 -16.15 -39.2 -16.2 -39.85 Q-15.85 -42.5 -13.85 -44.5" fill="#cccccc" fill-rule="evenodd" stroke="none"/>
      <path d="M16.65 -43.25 L16.75 -42.9 Q17.65 -39.6 17.5 -36.1 17.2 -31.0 13.85 -27.1 L13.95 -26.85 12.5 -26.6 Q10.4 -26.45 8.35 -26.65 8.9 -27.25 9.25 -28.35 L9.7 -29.7 9.5 -31.55 4.7 -32.3 4.65 -32.35 4.6 -32.45 4.55 -32.6 Q4.65 -32.95 5.1 -33.0 L8.8 -34.45 Q7.8 -37.2 5.85 -39.55 4.75 -40.9 3.2 -41.45 L3.0 -41.5 2.1 -41.45 1.25 -40.95 Q1.1 -44.9 2.25 -48.65 L2.9 -50.4 4.95 -50.0 7.8 -49.2 8.45 -48.95 Q11.4 -47.9 13.95 -46.0 15.45 -44.85 16.55 -43.2 L16.65 -43.25 M-13.85 -44.5 L-13.6 -44.7 -13.6 -44.65 -13.85 -44.5 M-12.55 -42.75 Q-11.25 -40.1 -10.5 -37.15 L-11.45 -37.25 -11.85 -37.0 -12.1 -36.85 Q-12.9 -34.75 -12.65 -32.8 L-10.6 -32.35 -10.5 -32.35 -10.4 -32.25 -10.4 -32.1 Q-11.15 -31.35 -12.3 -30.95 -11.8 -29.6 -10.8 -28.3 L-11.55 -27.55 Q-14.6 -31.8 -15.7 -36.85 L-15.2 -39.1 -14.9 -39.7 Q-14.0 -41.35 -12.55 -42.75 M45.8 62.5 L45.7 62.05 Q45.45 61.7 45.0 61.65 L44.5 61.8 Q43.25 62.4 42.8 63.55 41.4 64.65 39.65 64.8 34.0 65.35 34.45 60.75 L36.95 59.05 42.05 55.7 Q44.65 57.6 48.4 57.05 52.5 56.5 53.6 52.9 L61.8 53.8 67.1 54.8 Q73.05 56.2 74.85 61.35 L74.45 62.15 73.95 63.0 73.35 63.6 73.2 63.75 71.65 64.15 Q62.8 66.4 54.0 63.2 49.6 61.6 45.8 62.55 L45.8 62.5 M54.6 56.9 L53.4 56.85 Q52.7 56.8 52.4 57.3 L52.5 57.5 54.9 58.85 Q57.1 59.85 59.0 61.3 L59.5 61.15 61.45 59.75 62.15 58.75 62.05 58.65 Q58.75 56.8 54.6 56.9 M55.1 54.55 Q55.15 55.05 55.75 55.15 60.5 56.0 64.9 57.4 L65.0 57.3 65.05 57.15 65.1 57.0 65.25 56.85 65.4 56.7 65.45 56.55 65.5 56.4 65.55 56.1 65.6 55.95 65.65 55.8 65.65 55.65 65.65 55.5 65.65 55.35 65.55 55.25 Q62.05 54.15 58.2 54.15 L57.4 54.2 55.8 54.2 Q55.35 54.2 55.1 54.55 M60.3 59.15 L60.2 59.3 59.05 60.1 58.85 60.0 56.3 58.2 Q58.4 58.25 60.3 59.15 M51.15 52.0 Q51.5 51.7 51.45 51.25 L51.2 49.65 51.9 49.95 52.25 51.0 52.45 51.75 51.85 52.9 Q48.4 57.1 43.25 54.65 L43.25 54.5 43.2 54.35 Q42.85 53.9 42.25 53.9 L41.8 53.15 Q41.45 52.55 41.55 51.85 L42.0 51.3 42.75 50.25 43.1 51.55 43.7 51.8 Q45.2 53.25 46.9 53.45 L47.05 53.5 Q48.95 53.6 51.1 52.05 L51.15 52.0 M64.45 56.25 L64.3 56.3 62.0 55.5 Q63.95 55.25 64.45 56.25 M-27.2 48.9 Q-26.8 51.3 -25.5 53.25 -30.45 53.6 -34.55 51.75 -32.35 49.5 -29.15 49.3 L-27.2 48.9" fill="#ffffff" fill-rule="evenodd" stroke="none"/>
      <path d="M11.15 -16.0 L10.7 -15.8 9.45 -15.2 7.7 -14.5 7.0 -14.25 Q-1.35 -11.25 -10.7 -12.0 L-19.25 -13.0 Q-23.9 -13.75 -28.35 -12.8 L-29.3 -11.7 -29.3 -11.65 -26.6 -11.8 -29.05 -9.85 -29.25 -9.7 -29.4 -9.4 Q-33.05 -9.95 -34.35 -13.25 -35.4 -16.05 -32.35 -17.05 L-28.45 -18.2 -28.0 -18.25 Q-25.45 -18.55 -22.9 -18.35 L-22.0 -18.3 Q-18.3 -17.95 -14.65 -16.55 -13.1 -16.2 -12.0 -16.8 -15.3 -18.3 -18.75 -19.0 -14.3 -20.75 -10.7 -23.8 -9.7 -24.65 -9.45 -25.75 L-9.75 -26.05 -10.1 -26.15 -10.95 -25.3 -10.95 -25.7 -10.55 -26.2 -10.7 -26.45 -10.3 -27.15 -9.5 -27.45 -9.2 -27.5 -9.05 -27.6 -9.0 -27.6 Q-3.4 -29.4 2.3 -27.2 L3.05 -26.25 Q4.35 -24.5 6.55 -23.85 L8.35 -23.4 10.95 -23.3 Q12.9 -23.6 13.95 -22.1 L14.2 -21.45 Q14.55 -19.5 13.05 -17.9 L12.7 -17.55 11.1 -16.1 11.15 -16.05 11.15 -16.0 M-24.7 -5.75 L-26.5 -5.0 Q-27.0 -4.75 -27.7 -5.0 L-28.1 -5.2 -28.2 -5.45 -28.5 -5.7 -28.6 -5.9 Q-29.25 -7.7 -27.9 -9.05 L-27.85 -9.15 Q-26.65 -10.2 -25.3 -10.95 -26.35 -9.75 -26.1 -8.1 L-25.65 -6.9 -24.7 -5.75" fill="#f07942" fill-rule="evenodd" stroke="none"/>
      <path d="M2.3 -27.2 L3.5 -26.7 5.2 -26.05 5.25 -26.0 5.4 -25.95 Q13.0 -23.4 19.75 -28.5 22.75 -30.85 26.5 -31.2 L26.6 -31.1 26.7 -31.0 26.85 -30.9 Q28.6 -31.25 30.15 -30.2 31.05 -29.6 31.75 -28.8 L31.75 -28.5 Q31.65 -28.1 31.85 -27.75 L31.9 -27.5 Q31.55 -25.9 30.5 -24.75 L29.95 -23.85 29.95 -23.7 29.95 -23.6 Q24.95 -17.05 17.95 -13.0 L16.55 -12.2 Q13.2 -10.45 9.4 -9.2 L8.25 -8.85 6.45 -8.35 Q-2.25 -6.15 -11.25 -7.35 -18.25 -8.2 -24.7 -5.75 L-25.65 -6.9 -26.1 -8.1 Q-26.35 -9.75 -25.3 -10.95 L-23.3 -11.9 -21.8 -11.9 -10.6 -11.15 -6.45 -10.85 Q0.75 -10.7 7.3 -12.95 L8.4 -13.35 Q10.8 -14.25 13.15 -15.55 L14.7 -16.4 16.65 -17.7 Q21.0 -20.65 22.55 -25.55 L23.05 -26.05 25.3 -25.5 26.25 -25.3 26.45 -25.35 26.85 -25.85 26.85 -26.0 Q25.35 -27.65 23.05 -27.5 L20.55 -27.05 Q18.15 -26.2 17.75 -23.85 L17.75 -23.7 17.9 -23.7 18.05 -23.6 18.1 -23.55 18.25 -23.65 Q19.7 -25.5 21.5 -25.95 20.55 -24.85 20.0 -23.35 19.0 -20.85 16.85 -19.35 L13.4 -17.2 11.3 -16.05 11.15 -16.0 11.15 -16.05 11.1 -16.1 12.7 -17.55 13.05 -17.9 Q14.55 -19.5 14.2 -21.45 L13.95 -22.1 Q12.9 -23.6 10.95 -23.3 L8.35 -23.4 6.55 -23.85 Q4.35 -24.5 3.05 -26.25 L2.3 -27.2" fill="#e05512" fill-rule="evenodd" stroke="none"/>
      <path d="M2.05 -0.05 L4.65 -2.2 8.75 -3.75 9.05 -0.25 8.45 -0.8 8.3 -0.95 8.3 -1.1 Q8.4 -1.9 7.6 -2.1 L7.6 -2.05 Q7.15 -2.1 6.95 -1.7 L6.95 -1.25 7.15 -0.75 6.2 -0.75 3.45 -0.35 2.05 -0.05 M10.7 2.75 Q12.45 3.45 14.8 3.35 L16.45 3.15 Q18.35 3.35 19.95 4.15 L20.7 4.45 23.7 5.45 27.15 6.9 27.2 7.1 27.75 9.0 28.5 13.0 28.45 12.95 28.0 12.65 27.65 12.4 25.4 11.55 25.0 11.35 24.4 11.05 22.75 10.35 Q20.6 9.35 18.2 8.8 L17.5 8.55 Q15.4 7.75 12.95 7.6 L12.45 7.55 11.45 7.35 11.2 7.3 7.45 7.3 5.7 7.4 Q3.05 7.55 0.7 8.45 L0.2 8.55 Q-1.15 8.55 -2.15 9.2 L-0.45 4.6 Q3.15 2.8 7.45 2.7 L10.7 2.75 M19.7 0.6 L19.9 -0.65 19.4 -0.6 19.2 -0.5 19.0 -1.35 19.2 -3.2 19.25 -3.2 Q22.6 -0.75 25.05 2.45 L25.1 2.45 23.15 1.55 22.75 1.35 Q21.3 0.8 19.7 0.6 M24.8 42.95 Q19.55 36.45 11.8 32.9 L8.8 26.9 10.4 27.4 14.0 28.95 14.95 29.45 15.85 29.9 19.25 31.9 20.35 32.65 21.85 33.75 22.6 34.35 Q24.9 35.9 26.8 37.85 L25.45 41.6 24.8 42.95 M4.65 22.1 Q3.5 21.55 2.2 21.45 L1.4 21.7 0.6 21.95 -0.8 22.0 -4.4 22.25 -8.2 22.95 -9.1 23.25 -9.8 23.55 -9.75 23.4 -9.45 23.2 -9.25 22.9 -7.5 20.1 Q-5.95 19.5 -4.4 19.0 -3.25 18.6 -2.0 18.5 L-1.4 18.4 1.4 18.3 2.2 18.4 Q6.1 18.6 9.8 19.5 11.65 19.9 13.4 20.55 L14.2 20.85 17.8 22.15 Q21.45 23.35 24.6 25.75 L25.8 26.6 28.6 28.75 28.45 29.8 27.85 33.35 27.7 33.3 25.95 31.85 22.8 29.4 Q19.6 27.1 16.0 25.4 12.65 23.8 9.0 22.85 L7.6 22.5 6.4 22.3 5.75 22.2 4.65 22.1 M-3.95 25.45 Q-5.8 27.75 -7.05 30.3 L-7.2 30.3 -11.2 30.25 -14.1 30.8 -15.5 31.25 -14.85 30.35 -12.1 26.95 -11.2 26.7 -10.0 26.4 Q-7.05 25.4 -3.95 25.35 L-3.95 25.45 M-5.6 16.7 L-3.6 12.55 -2.05 11.85 2.45 10.65 5.2 10.35 5.7 10.3 10.95 10.55 13.2 10.95 17.95 12.25 20.15 13.05 22.45 14.0 23.75 14.65 27.65 17.0 28.8 17.65 28.85 20.0 28.9 22.0 28.9 24.75 28.55 24.45 28.05 23.95 26.2 22.6 24.25 21.35 23.55 20.9 19.8 19.0 18.15 18.25 17.5 17.85 Q16.65 17.2 15.6 17.0 L14.6 16.75 10.4 16.0 8.2 15.65 0.6 15.15 Q-1.15 15.2 -2.8 15.8 L-3.2 15.95 -3.8 16.1 -4.6 16.3 -5.6 16.7 M-1.15 2.75 L-1.05 2.85 -1.6 3.45 -1.65 3.75 Q-3.3 8.4 -5.4 12.9 L-6.35 13.85 -7.5 14.9 -12.6 18.55 Q-13.85 19.3 -15.2 19.55 L-15.55 19.3 -17.75 17.6 Q-13.8 16.2 -11.1 13.0 -6.4 7.55 -1.15 2.75 M31.1 10.2 L30.65 9.0 Q29.75 6.85 28.65 4.95 27.4 2.85 25.85 1.1 L29.7 4.15 29.8 4.45 Q29.85 4.75 30.05 4.9 L30.2 5.05 Q38.15 15.15 49.7 20.55 47.75 23.55 44.4 25.05 43.85 25.3 43.25 25.6 L43.2 25.5 43.2 25.55 Q42.75 25.5 42.6 25.9 L40.05 26.9 39.85 26.55 39.2 25.4 37.75 23.0 35.65 19.55 Q33.95 16.25 32.6 12.8 L31.95 11.4 31.3 10.1 31.1 10.2" fill="#3399ff" fill-rule="evenodd" stroke="none"/>
      <path d="M2.05 -0.05 L3.45 -0.35 6.2 -0.75 7.15 -0.75 Q8.35 1.75 10.7 2.75 L7.45 2.7 Q3.15 2.8 -0.45 4.6 L0.2 2.5 0.35 2.35 0.7 1.6 0.85 1.45 1.95 0.05 2.05 -0.05 M16.45 3.15 Q19.0 2.6 19.7 0.6 21.3 0.8 22.75 1.35 L23.15 1.55 25.1 2.45 Q26.8 4.7 28.15 7.3 L27.25 7.0 27.2 6.95 27.15 6.9 23.7 5.45 20.7 4.45 19.95 4.15 Q18.35 3.35 16.45 3.15 M30.95 14.6 L32.35 20.85 31.95 20.45 31.3 19.65 Q30.75 18.85 30.2 18.5 L29.7 18.2 28.8 17.65 27.65 17.0 23.75 14.65 22.45 14.0 20.15 13.05 17.95 12.25 13.2 10.95 10.95 10.55 5.7 10.3 5.2 10.35 2.45 10.65 -2.05 11.85 -3.6 12.55 -2.15 9.2 Q-1.15 8.55 0.2 8.55 L0.7 8.45 Q3.05 7.55 5.7 7.4 L7.45 7.3 11.2 7.3 11.45 7.35 12.45 7.55 12.95 7.6 Q15.4 7.75 17.5 8.55 L18.2 8.8 Q20.6 9.35 22.75 10.35 L24.4 11.05 25.0 11.35 25.4 11.55 27.65 12.4 28.0 12.65 28.45 12.95 28.5 13.0 28.55 13.2 28.65 13.05 Q29.95 13.8 30.95 14.6 M33.1 28.75 L33.0 33.05 32.45 32.2 32.15 31.85 31.7 31.35 Q31.05 30.45 30.0 29.8 L29.4 29.4 28.6 28.75 25.8 26.6 24.6 25.75 Q21.45 23.35 17.8 22.15 L14.2 20.85 13.4 20.55 Q11.65 19.9 9.8 19.5 6.1 18.6 2.2 18.4 L1.4 18.3 -1.4 18.4 -2.0 18.5 Q-3.25 18.6 -4.4 19.0 -5.95 19.5 -7.5 20.1 L-5.6 16.7 -4.6 16.3 -3.8 16.1 -3.2 15.95 -2.8 15.8 Q-1.15 15.2 0.6 15.15 L8.2 15.65 10.4 16.0 14.6 16.75 15.6 17.0 Q16.65 17.2 17.5 17.85 L18.15 18.25 19.8 19.0 23.55 20.9 24.25 21.35 26.2 22.6 28.05 23.95 28.55 24.45 28.9 24.75 30.7 26.3 31.15 26.65 31.75 27.25 32.05 27.5 33.1 28.75 M32.45 38.45 L31.35 44.35 30.85 43.4 28.75 40.25 28.25 39.55 26.8 37.85 Q24.9 35.9 22.6 34.35 L21.85 33.75 20.35 32.65 19.25 31.9 15.85 29.9 14.95 29.45 14.0 28.95 10.4 27.4 8.8 26.9 7.95 25.5 Q7.65 24.7 6.95 24.15 L5.7 22.65 5.4 22.5 4.65 22.1 5.75 22.2 6.4 22.3 7.6 22.5 9.0 22.85 Q12.65 23.8 16.0 25.4 19.6 27.1 22.8 29.4 L25.95 31.85 27.7 33.3 27.85 33.45 28.15 33.65 29.05 34.55 29.4 35.0 Q31.15 36.55 32.45 38.45 M0.6 21.95 Q-0.9 22.5 -2.0 23.55 L-3.85 25.35 -3.95 25.35 Q-7.05 25.4 -10.0 26.4 L-11.2 26.7 -12.1 26.95 -9.8 23.55 -9.1 23.25 -8.2 22.95 -4.4 22.25 -0.8 22.0 0.6 21.95" fill="#0060bf" fill-rule="evenodd" stroke="none"/>
      <path d="M28.15 7.3 L29.55 10.5 30.95 14.6 Q29.95 13.8 28.65 13.05 L28.5 13.0 27.75 9.0 27.2 7.1 27.25 7.0 28.15 7.3 M32.35 20.85 Q33.0 24.75 33.1 28.75 L32.05 27.5 31.75 27.25 31.15 26.65 30.7 26.3 28.9 24.75 28.9 22.0 28.85 20.0 28.8 17.65 29.7 18.2 30.2 18.5 Q30.75 18.85 31.3 19.65 L31.95 20.45 32.35 20.85 M33.0 33.05 L32.95 33.75 32.95 34.2 32.45 38.45 Q31.15 36.55 29.4 35.0 L29.05 34.55 28.15 33.65 27.85 33.45 27.85 33.35 28.45 29.8 28.6 28.75 29.4 29.4 30.0 29.8 Q31.05 30.45 31.7 31.35 L32.15 31.85 32.45 32.2 33.0 33.05 M31.35 44.35 L29.5 50.65 28.4 48.3 Q26.8 45.4 24.8 42.95 L25.45 41.6 26.8 37.85 28.25 39.55 28.75 40.25 30.85 43.4 31.35 44.35 M-15.2 19.55 Q-13.85 19.3 -12.6 18.55 L-7.5 14.9 -6.35 13.85 -5.4 12.9 -5.95 14.05 -7.2 16.65 -7.3 16.75 -7.95 18.0 -9.7 20.6 -10.0 20.95 -10.05 21.1 -10.1 21.4 -10.4 21.7 -11.85 21.2 Q-13.6 20.55 -15.2 19.55 M31.1 10.2 L31.3 10.1 31.95 11.4 32.6 12.8 Q33.95 16.25 35.65 19.55 L37.75 23.0 39.2 25.4 39.85 26.55 40.05 26.9 34.55 28.8 Q34.4 22.75 33.1 16.95 32.3 13.5 31.1 10.2" fill="#007dfb" fill-rule="evenodd" stroke="none"/>
      <path d="M-23.8 54.4 Q-25.55 49.4 -25.75 43.9 -25.9 40.5 -25.65 37.2 L-25.15 32.2 -25.1 32.0 -25.1 31.85 -24.4 28.05 -23.75 28.8 Q-21.5 32.15 -18.05 32.8 L-18.65 34.0 Q-18.5 34.55 -18.0 34.7 -17.15 34.1 -16.6 33.15 L-16.25 33.05 Q-12.15 31.7 -7.8 31.9 L-9.1 35.65 Q-11.2 43.35 -11.25 51.4 -11.7 51.15 -12.2 51.05 L-13.15 50.7 Q-15.15 49.85 -17.4 50.0 L-20.6 50.4 -21.4 47.0 Q-22.05 42.9 -20.55 39.2 -19.7 37.05 -20.2 35.5 -24.75 41.65 -22.7 49.55 L-22.55 49.7 -22.35 50.0 Q-21.95 52.45 -20.6 54.4 L-22.6 54.45 -23.75 54.6 -23.8 54.4 M2.4 56.5 L2.6 53.85 Q7.7 56.85 13.0 53.7 16.5 51.6 17.85 47.9 20.1 41.75 14.6 38.4 L14.35 38.45 Q14.15 38.45 14.05 38.55 L12.6 34.7 Q14.85 35.8 16.95 37.25 L20.05 40.2 Q22.15 42.15 23.85 44.35 26.95 48.35 28.65 53.25 L28.65 53.65 27.7 55.5 26.2 56.15 23.4 57.05 21.95 57.45 19.6 57.9 18.0 58.15 13.2 58.6 9.2 58.45 Q5.65 58.1 2.4 56.5" fill="#6633cc" fill-rule="evenodd" stroke="none"/>
      <path d="M-3.85 25.35 L-3.95 25.45 -3.95 25.35 -3.85 25.35 M27.85 33.35 L27.85 33.45 27.7 33.3 27.85 33.35" fill="#f02d0b" fill-rule="evenodd" stroke="none"/>
      <path d="M27.15 6.9 L27.2 6.95 27.25 7.0 27.2 7.1 27.15 6.9 M28.5 13.0 L28.65 13.05 28.55 13.2 28.5 13.0" fill="#d6280a" fill-rule="evenodd" stroke="none"/>
      <path d="M-20.6 50.4 L-17.4 50.0 Q-15.15 49.85 -13.15 50.7 L-12.2 51.05 Q-11.7 51.15 -11.25 51.4 L-11.15 55.65 Q-15.05 54.5 -19.1 54.4 L-20.6 50.4 M2.4 56.5 Q5.65 58.1 9.2 58.45 L13.2 58.6 18.0 58.15 19.6 57.9 21.95 57.45 23.4 57.05 26.2 56.15 27.7 55.5 Q25.55 59.0 22.25 61.6 13.65 68.45 2.45 67.35 L2.35 66.9 2.15 62.4 Q2.2 59.45 2.4 56.5 M16.35 48.35 Q16.3 46.35 15.8 44.4 L14.4 39.45 Q18.55 42.9 16.4 48.35 L16.35 48.35 M5.2 53.3 Q3.95 52.9 2.7 52.2 L3.45 45.0 Q4.6 49.05 5.2 53.3" fill="#4d269b" fill-rule="evenodd" stroke="none"/>
      <path d="M-23.8 54.4 L-23.75 54.6 -24.1 54.65 -24.05 54.6 -23.8 54.4" fill="#666666" fill-rule="evenodd" stroke="none"/>
      <path d="M-47.95 46.9 L-47.85 47.3 -47.95 47.05 -47.95 46.9" fill="#0ecfe4" fill-rule="evenodd" stroke="none"/>
    </g>
    <g id="shape2" transform="matrix(1.0, 0.0, 0.0, 1.0, 41.05, 18.25)">
      <path d="M7.65 -16.7 Q4.45 -17.0 1.25 -16.8 L0.95 -17.05 0.95 -17.15 1.0 -17.25 1.05 -17.4 8.7 -18.2 9.6 -18.25 Q16.0 -18.45 21.85 -16.6 L21.85 -16.55 Q16.65 -15.75 11.4 -16.3 L7.65 -16.7 M15.6 -14.6 Q19.95 -15.15 23.5 -13.25 L23.55 -13.15 Q23.5 -11.15 21.3 -10.5 L18.05 -9.6 16.1 -9.15 14.0 -8.85 13.85 -8.75 13.75 -8.65 10.6 -8.7 10.5 -8.85 10.5 -8.9 10.7 -9.15 Q13.8 -9.9 16.75 -10.95 18.05 -11.4 19.2 -12.15 L19.25 -12.25 19.35 -12.55 19.35 -12.65 19.35 -12.75 19.35 -13.1 18.6 -13.4 Q16.65 -13.5 15.05 -14.15 L15.05 -14.25 15.2 -14.45 15.35 -14.5 15.45 -14.55 15.6 -14.6 M6.95 -17.35 L6.85 -17.35 6.95 -17.3 19.3 -16.9 9.6 -17.65 6.95 -17.35 M2.2 -6.9 Q1.05 -6.25 -0.6 -5.85 L-4.6 -5.7 Q-7.65 -6.25 -10.2 -7.25 L-10.15 -7.35 -10.1 -7.4 -9.9 -7.5 -9.7 -7.55 -9.25 -7.7 -9.25 -7.75 2.15 -6.95 2.2 -6.9 M-0.65 -6.6 L-6.0 -7.05 -7.6 -7.0 Q-5.0 -5.55 -2.0 -6.25 L-0.65 -6.6 M12.45 -9.15 Q18.15 -8.95 23.05 -12.35 L23.1 -12.6 23.1 -13.0 Q21.75 -13.75 20.15 -13.9 L19.6 -13.8 19.45 -13.8 19.85 -13.25 20.0 -12.95 19.75 -12.3 19.7 -11.9 16.75 -10.3 12.45 -9.15 M11.65 -5.8 Q18.2 -6.3 24.7 -7.55 L24.2 -7.8 24.05 -8.1 24.05 -8.2 24.15 -8.35 24.3 -8.55 Q28.1 -8.55 31.2 -10.15 L31.2 -10.25 31.2 -10.45 31.2 -10.55 31.1 -10.7 31.0 -11.0 31.0 -11.1 29.6 -12.45 Q29.05 -12.9 28.4 -12.85 L28.15 -13.1 Q28.0 -13.35 28.2 -13.45 L28.35 -13.5 Q32.05 -13.05 35.0 -11.0 L35.05 -10.9 Q34.5 -7.7 30.8 -6.9 L18.7 -4.65 15.8 -4.35 12.55 -4.05 9.15 -4.15 Q8.45 -4.2 8.3 -4.75 9.65 -5.65 11.65 -5.8 M30.75 -12.3 L30.9 -12.25 31.45 -11.65 31.8 -10.25 31.8 -9.9 Q28.9 -7.75 25.0 -8.0 25.65 -7.9 25.9 -7.4 17.95 -5.35 9.55 -4.75 L12.3 -4.6 25.8 -6.25 Q28.55 -6.7 31.15 -7.75 L33.55 -8.75 Q34.45 -9.45 34.55 -10.6 L34.5 -10.8 Q32.8 -11.95 30.8 -12.35 L30.55 -12.4 30.75 -12.3 M-29.05 -16.35 L-29.25 -16.35 -29.4 -16.4 -29.45 -16.45 -29.5 -16.45 -29.75 -16.4 -29.9 -16.35 -30.25 -16.25 -30.45 -16.2 -30.6 -16.15 -30.45 -16.15 -29.1 -16.25 -21.7 -16.85 -21.5 -16.9 -21.7 -16.95 -22.0 -17.0 -29.05 -16.35 M-31.65 -16.1 Q-31.15 -16.65 -30.4 -16.8 L-26.25 -17.5 -24.4 -17.65 Q-20.15 -17.8 -16.25 -16.8 L-16.25 -16.75 -30.3 -15.65 -31.15 -15.6 -31.3 -15.65 -31.5 -15.85 -31.6 -15.95 -31.65 -16.1 M-31.3 -12.9 L-31.55 -12.6 -31.45 -12.1 -31.35 -11.65 -31.35 -11.55 Q-29.7 -9.8 -27.25 -9.4 L-24.9 -8.75 Q-29.1 -8.1 -33.4 -9.75 -35.35 -10.5 -35.1 -12.45 -34.6 -12.9 -33.9 -13.05 -33.4 -13.15 -33.0 -13.5 -29.15 -14.55 -25.15 -14.9 L-24.55 -14.65 -24.5 -14.6 Q-27.6 -14.3 -30.75 -13.3 L-31.0 -13.25 -31.3 -12.9 M-31.6 -13.2 L-31.3 -13.4 Q-31.05 -13.65 -31.65 -13.45 L-34.5 -12.45 -34.65 -12.35 -34.85 -12.0 -34.85 -11.7 Q-33.15 -9.25 -29.85 -9.15 L-29.5 -9.1 -27.4 -8.9 Q-30.05 -9.3 -31.9 -11.15 L-32.0 -11.9 -32.15 -12.55 -31.6 -13.2 M-38.05 -10.2 L-38.1 -10.1 -38.4 -9.9 -38.55 -9.55 -38.6 -9.45 Q-35.4 -7.55 -31.55 -7.15 L-23.2 -6.15 -17.35 -5.45 Q-14.7 -5.15 -12.6 -4.05 L-12.8 -3.8 -12.9 -3.75 Q-24.45 -4.55 -35.9 -6.1 -38.7 -6.5 -40.95 -8.05 L-41.05 -8.8 -41.05 -9.1 -40.05 -9.9 -38.25 -10.75 Q-37.85 -10.55 -38.05 -10.2 M-40.45 -8.75 L-38.95 -7.6 Q-31.65 -5.7 -24.1 -5.45 L-37.2 -8.1 Q-37.9 -8.3 -38.55 -8.75 L-39.4 -9.3 -40.35 -8.8 -40.45 -8.75 M-23.3 -5.3 L-22.75 -5.3 -23.25 -5.4 -23.4 -5.4 Q-23.65 -5.35 -23.3 -5.3" fill="#389cff" fill-rule="evenodd" stroke="none"/>
      <path d="M6.95 -17.3 L6.95 -17.35 9.6 -17.65 19.3 -16.9 6.95 -17.3 M12.45 -9.15 L16.75 -10.3 19.7 -11.9 19.75 -12.3 20.0 -12.95 19.85 -13.25 19.45 -13.8 19.6 -13.8 20.15 -13.9 Q21.75 -13.75 23.1 -13.0 L23.1 -12.6 23.05 -12.35 Q18.15 -8.95 12.45 -9.15 M-0.65 -6.6 L-2.0 -6.25 Q-5.0 -5.55 -7.6 -7.0 L-6.0 -7.05 -0.65 -6.6 M30.8 -12.35 Q32.8 -11.95 34.5 -10.8 L34.55 -10.6 Q34.45 -9.45 33.55 -8.75 L31.15 -7.75 Q28.55 -6.7 25.8 -6.25 L12.3 -4.6 9.55 -4.75 Q17.95 -5.35 25.9 -7.4 25.65 -7.9 25.0 -8.0 28.9 -7.75 31.8 -9.9 L31.8 -10.25 31.45 -11.65 30.9 -12.25 30.75 -12.3 30.8 -12.35 M-29.1 -16.25 L-29.05 -16.35 -22.0 -17.0 -21.7 -16.95 -21.7 -16.85 -29.1 -16.25 M-31.6 -13.2 L-32.15 -12.55 -32.0 -11.9 -31.9 -11.15 Q-30.05 -9.3 -27.4 -8.9 L-29.5 -9.1 -29.85 -9.15 Q-33.15 -9.25 -34.85 -11.7 L-34.85 -12.0 -34.65 -12.35 -34.5 -12.45 -31.65 -13.45 Q-31.05 -13.65 -31.3 -13.4 L-31.6 -13.2 M-40.45 -8.75 L-40.35 -8.8 -39.4 -9.3 -38.55 -8.75 Q-37.9 -8.3 -37.2 -8.1 L-24.1 -5.45 Q-31.65 -5.7 -38.95 -7.6 L-40.45 -8.75" fill="#dfefff" fill-rule="evenodd" stroke="none"/>
    </g>
  </defs>
</svg>
