<?xml version="1.0" encoding="UTF-8" standalone="no"?>
<svg xmlns:xlink="http://www.w3.org/1999/xlink" height="181.25px" width="455.15px" xmlns="http://www.w3.org/2000/svg">
  <g transform="matrix(1.0, 0.0, 0.0, 1.0, 265.05, 116.9)">
    <clipPath id="clipPath0" transform="matrix(1.0, 0.0, 0.0, 1.0, 265.05, 116.9)">
      <use height="97.95" transform="matrix(1.0, 0.0, 0.0, 1.0, -133.45, -105.6)" width="266.5" xlink:href="#shape0"/>
    </clipPath>
    <g clip-path="url(#clipPath0)">
      <use height="160.3" transform="matrix(0.64, 0.0, 0.0, 0.64, -46.4808, -60.4947)" width="152.55" xlink:href="#sprite0"/>
    </g>
    <use height="130.7" transform="matrix(1.0, 0.0, 0.0, 1.0, -236.5, -108.95)" width="416.65" xlink:href="#shape2"/>
  </g>
  <defs>
    <g id="shape0" transform="matrix(1.0, 0.0, 0.0, 1.0, 133.45, 105.6)">
      <path d="M13.0 -7.65 Q-38.8 -7.65 -80.8 -8.25 -122.85 -8.9 -133.05 -12.2 L-133.05 -12.35 Q-133.05 -13.25 -132.55 -14.1 L-133.45 -14.1 -133.45 -105.6 133.05 -105.6 133.05 -14.1 130.85 -14.1 131.1 -13.6 Q127.35 -12.1 112.55 -10.7 L81.25 -8.45 Q64.75 -7.65 13.0 -7.65" fill="#0066ff" fill-rule="evenodd" stroke="none"/>
    </g>
    <g id="sprite0" transform="matrix(1.0, 0.0, 0.0, 1.0, 76.3, 80.15)">
      <use height="160.3" transform="matrix(1.0, 0.0, 0.0, 1.0, -76.3, -80.15)" width="152.55" xlink:href="#shape1"/>
    </g>
    <g id="shape1" transform="matrix(1.0, 0.0, 0.0, 1.0, 76.3, 80.15)">
      <path d="M21.3 -67.0 L21.4 -66.95 23.6 -64.95 23.75 -64.9 Q23.85 -64.8 24.05 -64.75 L25.4 -63.4 Q31.4 -57.6 32.85 -49.4 L32.8 -49.2 32.8 -48.9 Q33.4 -43.45 32.1 -38.15 L30.75 -33.7 Q30.25 -32.25 29.35 -31.85 L31.0 -31.1 Q32.3 -30.4 32.7 -29.0 33.45 -26.0 31.6 -24.15 30.65 -21.9 28.95 -20.05 24.35 -15.15 18.55 -11.8 19.6 -9.15 19.4 -5.7 L19.35 -4.6 19.9 -4.1 20.0 -3.95 20.8 -3.4 20.8 -3.45 Q31.25 2.1 38.75 11.35 41.7 15.0 46.1 16.9 L51.65 19.45 Q50.6 23.2 46.8 25.55 L44.3 26.95 45.15 28.7 45.2 28.75 45.55 29.8 45.6 29.95 Q49.2 38.8 50.95 48.15 L51.0 48.1 51.0 48.05 Q54.15 48.8 53.85 51.75 L56.0 51.65 Q66.95 51.4 74.9 58.3 77.2 60.3 75.6 62.75 73.3 66.35 68.8 66.7 62.25 67.15 56.05 65.25 50.05 63.45 44.1 64.35 L43.1 65.25 42.25 65.6 Q36.3 68.3 33.15 62.95 32.3 61.55 33.3 60.2 34.6 58.5 36.6 57.6 38.7 56.6 40.35 54.85 L40.75 54.5 40.1 53.7 Q39.6 50.2 42.45 49.15 40.0 40.7 36.65 32.55 L35.45 29.7 34.55 29.8 34.55 31.6 34.45 33.3 Q34.0 42.45 31.1 51.05 L30.1 52.7 30.3 53.6 29.95 54.05 29.75 54.15 29.7 54.25 Q28.4 58.8 24.4 62.3 15.0 70.45 2.55 68.35 L2.75 73.3 2.7 73.45 Q1.9 74.55 0.85 74.85 -1.4 77.7 -5.75 78.45 L-10.6 79.25 -28.2 79.9 -34.6 79.1 Q-39.45 78.3 -43.1 75.15 L-43.1 74.35 -43.2 74.2 Q-43.5 71.2 -42.3 68.45 -41.45 66.5 -40.3 64.85 -43.95 66.7 -48.35 67.2 -56.35 68.1 -64.2 67.55 L-65.4 67.45 Q-71.15 66.75 -75.45 63.4 L-75.6 63.5 -75.95 63.4 -76.3 62.95 Q-74.8 59.05 -72.05 55.8 -67.3 50.25 -60.25 48.05 -56.4 46.85 -52.4 46.45 L-49.3 46.5 Q-48.5 35.75 -42.8 26.55 -41.25 24.0 -38.95 22.3 L-38.95 22.25 Q-37.9 21.1 -36.55 20.55 L-35.8 20.25 Q-29.6 23.05 -26.4 28.9 L-26.1 27.0 -25.9 25.7 -25.45 25.3 -25.2 25.25 Q-21.9 29.3 -17.5 31.75 L-17.1 30.95 -17.15 30.85 -17.25 30.55 Q-16.65 25.65 -14.4 21.7 -17.45 20.45 -20.05 17.8 L-20.2 17.2 -19.9 16.45 Q-11.1 13.4 -5.75 5.5 -0.35 -2.4 8.65 -5.25 L8.4 -7.45 Q2.7 -5.85 -3.35 -5.9 L-17.5 -6.05 Q-19.1 -6.05 -20.55 -5.45 L-21.65 -5.0 Q-24.25 -4.05 -26.9 -3.75 -27.75 -3.7 -28.3 -4.15 -30.75 -6.15 -29.75 -8.35 L-30.55 -8.4 -31.1 -8.6 -31.2 -8.65 -31.3 -8.7 -31.4 -8.8 -31.65 -8.8 -31.7 -8.8 -31.85 -8.85 Q-33.85 -9.65 -34.95 -11.45 -37.7 -16.0 -32.9 -18.5 L-32.7 -18.6 -32.3 -18.8 -29.15 -19.5 Q-25.85 -19.85 -22.65 -19.6 -16.75 -20.75 -12.05 -24.45 -12.35 -24.9 -12.25 -25.45 L-12.2 -26.1 -12.2 -26.25 -12.1 -26.5 Q-13.85 -28.2 -14.95 -30.45 L-15.6 -32.0 -17.0 -36.6 -17.2 -36.65 -17.25 -36.7 Q-17.55 -38.05 -17.45 -39.3 -18.2 -44.4 -17.4 -49.65 L-17.45 -49.8 -16.7 -51.6 Q-14.75 -59.9 -6.95 -64.5 L-5.1 -65.2 -5.5 -65.3 Q-9.8 -66.8 -14.35 -67.25 L-14.6 -67.6 -14.7 -67.9 -14.7 -68.05 -14.25 -68.45 Q-10.8 -68.35 -8.85 -71.05 L-8.55 -71.1 -8.05 -70.9 -8.1 -70.85 Q-4.3 -69.75 -0.25 -69.15 L-6.6 -72.1 -7.25 -72.15 -7.35 -72.35 -7.4 -72.65 -7.3 -72.7 -7.0 -73.15 -6.85 -73.15 -6.6 -73.2 -6.15 -73.05 -5.9 -72.95 Q0.2 -74.4 2.6 -80.0 L2.75 -80.0 2.8 -80.1 3.0 -80.1 5.35 -77.85 10.3 -74.25 11.5 -73.4 21.3 -67.0 M16.75 -29.0 L16.35 -28.55 15.45 -27.55 21.8 -30.95 Q25.15 -32.85 28.4 -32.1 31.95 -38.7 31.75 -46.2 31.65 -48.35 31.2 -50.35 29.1 -59.0 22.3 -64.7 L20.05 -66.15 19.8 -66.3 Q11.7 -71.5 4.15 -77.3 L4.0 -77.55 4.0 -77.7 3.85 -77.7 3.25 -78.3 Q3.15 -77.3 2.2 -76.2 -0.6 -73.05 -4.1 -72.3 -0.8 -71.05 1.95 -68.9 L2.0 -68.75 1.75 -68.3 1.65 -68.3 Q1.5 -68.1 1.15 -68.1 L-6.35 -68.85 Q-7.75 -69.1 -8.35 -69.75 -8.9 -68.5 -10.35 -67.95 L-9.5 -67.65 Q-6.4 -67.1 -3.7 -65.65 L-3.65 -65.55 -2.6 -65.6 -2.45 -65.5 -2.3 -65.45 -2.25 -65.35 -2.2 -65.25 -2.25 -65.05 Q-8.95 -63.05 -13.05 -57.4 L-14.5 -54.25 -15.4 -51.95 -15.45 -51.75 -15.75 -50.65 -15.75 -50.6 -15.75 -50.5 -15.7 -50.4 -15.7 -50.25 -15.8 -49.9 -16.0 -49.35 Q-14.45 -48.8 -13.4 -47.1 L-13.1 -46.65 -12.8 -46.75 -11.45 -47.15 -11.4 -47.2 -11.2 -47.15 -11.1 -47.1 -11.05 -47.0 -10.95 -46.9 Q-10.85 -46.7 -11.05 -46.5 -11.65 -45.8 -12.5 -45.6 L-11.5 -43.7 Q-8.3 -36.95 -8.25 -29.45 L-8.25 -29.35 -8.2 -29.35 Q-4.65 -30.05 -1.05 -29.25 L2.1 -28.3 3.95 -27.65 Q2.2 -30.1 1.4 -33.2 0.3 -37.5 -0.1 -41.9 -0.55 -46.6 1.35 -50.35 L2.2 -51.9 0.15 -51.65 -0.05 -51.7 -0.2 -51.85 -0.25 -51.95 -0.25 -52.1 0.45 -52.9 1.65 -53.0 3.1 -53.1 5.05 -55.05 3.65 -55.4 3.6 -55.4 Q3.45 -55.95 3.8 -56.2 8.85 -56.35 12.25 -52.55 14.85 -50.1 16.55 -46.65 18.35 -42.9 18.65 -39.05 18.95 -35.6 18.05 -32.05 17.6 -30.35 16.75 -29.0 M6.55 -54.55 L6.35 -54.35 4.5 -53.05 Q9.4 -52.85 13.1 -50.05 10.5 -53.1 6.55 -54.55 M4.6 -60.85 Q4.65 -61.75 5.55 -62.0 9.45 -62.4 12.5 -59.95 14.45 -58.35 14.35 -56.3 13.25 -56.5 12.65 -57.55 L11.45 -59.25 Q11.05 -59.4 10.75 -59.6 8.0 -61.55 5.15 -60.35 L4.8 -60.45 4.65 -60.65 4.55 -60.8 4.6 -60.85 M16.65 -43.25 L15.45 -46.35 14.1 -47.45 Q10.05 -51.55 4.25 -51.95 L3.65 -51.9 2.9 -50.4 2.25 -48.65 Q1.1 -44.9 1.25 -40.95 L2.1 -41.45 3.0 -41.5 3.2 -41.45 Q4.75 -40.9 5.85 -39.55 7.8 -37.2 8.8 -34.45 L5.1 -33.0 Q4.65 -32.95 4.55 -32.6 L4.6 -32.45 4.65 -32.35 4.7 -32.3 9.5 -31.55 9.7 -29.7 9.25 -28.35 Q8.9 -27.25 8.35 -26.65 10.4 -26.45 12.5 -26.6 L13.95 -26.85 13.85 -27.1 Q17.2 -31.0 17.5 -36.1 17.65 -39.6 16.75 -42.9 L16.65 -43.25 M-16.1 -48.2 L-16.25 -48.25 -16.25 -48.2 Q-16.6 -45.6 -16.55 -43.05 -15.75 -44.55 -14.3 -45.75 L-16.1 -48.2 M-13.6 -44.65 L-13.6 -44.7 -13.85 -44.5 Q-15.85 -42.5 -16.2 -39.85 L-16.15 -39.2 -15.7 -36.85 Q-14.6 -31.8 -11.55 -27.55 L-10.8 -28.3 Q-11.8 -29.6 -12.3 -30.95 -11.15 -31.35 -10.4 -32.1 L-10.4 -32.25 -10.5 -32.35 -10.6 -32.35 -12.65 -32.8 Q-12.9 -34.75 -12.1 -36.85 L-11.85 -37.0 -11.45 -37.25 -10.5 -37.15 Q-11.25 -40.1 -12.55 -42.75 L-13.6 -44.65 M2.3 -27.2 Q-3.4 -29.4 -9.0 -27.6 L-9.05 -27.6 -9.2 -27.5 -9.5 -27.45 -10.3 -27.15 -10.7 -26.45 -10.55 -26.2 -10.95 -25.7 -10.95 -25.3 -10.1 -26.15 -9.75 -26.05 -9.45 -25.75 Q-9.7 -24.65 -10.7 -23.8 -14.3 -20.75 -18.75 -19.0 -15.3 -18.3 -12.0 -16.8 -13.1 -16.2 -14.65 -16.55 -18.3 -17.95 -22.0 -18.3 L-22.9 -18.35 Q-25.45 -18.55 -28.0 -18.25 L-28.45 -18.2 -32.35 -17.05 Q-35.4 -16.05 -34.35 -13.25 -33.05 -9.95 -29.4 -9.4 L-29.25 -9.7 -29.05 -9.85 -26.6 -11.8 -29.3 -11.65 -29.3 -11.7 -28.35 -12.8 Q-23.9 -13.75 -19.25 -13.0 L-10.7 -12.0 Q-1.35 -11.25 7.0 -14.25 L7.7 -14.5 9.45 -15.2 10.7 -15.8 11.15 -16.0 11.3 -16.05 13.4 -17.2 16.85 -19.35 Q19.0 -20.85 20.0 -23.35 20.55 -24.85 21.5 -25.95 19.7 -25.5 18.25 -23.65 L18.1 -23.55 18.05 -23.6 17.9 -23.7 17.75 -23.7 17.75 -23.85 Q18.15 -26.2 20.55 -27.05 L23.05 -27.5 Q25.35 -27.65 26.85 -26.0 L26.85 -25.85 26.45 -25.35 26.25 -25.3 25.3 -25.5 23.05 -26.05 22.55 -25.55 Q21.0 -20.65 16.65 -17.7 L14.7 -16.4 13.15 -15.55 Q10.8 -14.25 8.4 -13.35 L7.3 -12.95 Q0.75 -10.7 -6.45 -10.85 L-10.6 -11.15 -21.8 -11.9 -23.3 -11.9 -25.3 -10.95 Q-26.65 -10.2 -27.85 -9.15 L-27.9 -9.05 Q-29.25 -7.7 -28.6 -5.9 L-28.5 -5.7 -28.2 -5.45 -28.1 -5.2 -27.7 -5.0 Q-27.0 -4.75 -26.5 -5.0 L-24.7 -5.75 Q-18.25 -8.2 -11.25 -7.35 -2.25 -6.15 6.45 -8.35 L8.25 -8.85 9.4 -9.2 Q13.2 -10.45 16.55 -12.2 L17.95 -13.0 Q24.95 -17.05 29.95 -23.6 L29.95 -23.7 29.95 -23.85 30.5 -24.75 Q31.55 -25.9 31.9 -27.5 L31.85 -27.75 Q31.65 -28.1 31.75 -28.5 L31.75 -28.8 Q31.05 -29.6 30.15 -30.2 28.6 -31.25 26.85 -30.9 L26.7 -31.0 26.6 -31.1 26.5 -31.2 Q22.75 -30.85 19.75 -28.5 13.0 -23.4 5.4 -25.95 L5.25 -26.0 5.2 -26.05 3.5 -26.7 2.3 -27.2 M-27.25 35.5 L-26.8 31.55 -27.4 30.45 Q-27.7 29.7 -28.3 29.15 -29.95 25.75 -33.0 23.4 L-34.4 22.25 -35.35 21.9 -35.55 21.8 Q-36.3 22.0 -36.9 22.4 L-38.1 23.45 -38.35 23.7 -38.7 24.0 Q-41.85 27.0 -43.75 31.0 L-43.85 31.15 Q-47.05 38.75 -47.95 46.9 L-47.95 47.05 -47.85 47.3 -47.85 47.45 -47.9 47.6 -48.1 47.95 -48.45 49.6 Q-48.95 50.0 -49.3 49.45 L-49.45 48.25 Q-60.15 47.75 -68.55 54.45 -72.05 57.25 -73.8 61.3 L-74.55 62.55 -71.5 64.05 Q-67.65 55.0 -57.75 52.55 L-57.4 52.4 -56.7 52.6 -56.55 52.7 Q-65.05 55.55 -69.45 63.4 L-69.8 63.85 -69.85 64.0 -69.85 64.15 -69.9 64.45 -70.0 64.65 -69.95 64.65 -64.45 66.1 Q-59.75 66.85 -54.55 66.15 L-49.4 65.6 Q-43.8 65.1 -39.0 62.45 L-38.6 62.6 -37.75 61.7 Q-38.8 50.3 -35.2 39.65 -34.25 36.9 -32.0 35.35 -31.6 35.4 -31.4 35.75 L-31.35 35.9 -31.5 36.35 -31.75 36.65 -31.85 36.95 -31.9 37.25 -32.5 38.5 Q-29.6 41.0 -27.5 44.1 -27.6 39.75 -27.25 35.5 M17.25 -9.2 L17.2 -9.5 17.0 -10.9 13.5 -9.25 9.7 -7.85 10.05 -5.15 Q10.3 -2.35 10.2 0.6 13.8 2.9 17.85 0.25 L17.25 -9.2 M7.15 -0.75 L6.95 -1.25 6.95 -1.7 Q7.15 -2.1 7.6 -2.05 L7.6 -2.1 Q8.4 -1.9 8.3 -1.1 L8.3 -0.95 8.45 -0.8 9.05 -0.25 8.75 -3.75 4.65 -2.2 2.05 -0.05 1.95 0.05 0.85 1.45 0.7 1.6 0.35 2.35 0.2 2.5 -0.45 4.6 -2.15 9.2 -3.6 12.55 -5.6 16.7 -7.5 20.1 -9.25 22.9 -9.45 23.2 -9.75 23.4 -9.8 23.55 -12.1 26.95 -14.85 30.35 -15.5 31.25 -14.1 30.8 -11.2 30.25 -7.2 30.3 -7.05 30.3 Q-5.8 27.75 -3.95 25.45 L-3.85 25.35 -2.0 23.55 Q-0.9 22.5 0.6 21.95 L1.4 21.7 2.2 21.45 Q3.5 21.55 4.65 22.1 L5.4 22.5 5.7 22.65 6.95 24.15 Q7.65 24.7 7.95 25.5 L8.8 26.9 11.8 32.9 Q19.55 36.45 24.8 42.95 26.8 45.4 28.4 48.3 L29.5 50.65 31.35 44.35 32.45 38.45 32.95 34.2 32.95 33.75 33.0 33.05 33.1 28.75 Q33.0 24.75 32.35 20.85 L30.95 14.6 29.55 10.5 28.15 7.3 Q26.8 4.7 25.1 2.45 L25.05 2.45 Q22.6 -0.75 19.25 -3.2 L19.2 -3.2 19.0 -1.35 19.2 -0.5 19.4 -0.6 19.9 -0.65 19.7 0.6 Q19.0 2.6 16.45 3.15 L14.8 3.35 Q12.45 3.45 10.7 2.75 8.35 1.75 7.15 -0.75 M-1.15 2.75 Q-6.4 7.55 -11.1 13.0 -13.8 16.2 -17.75 17.6 L-15.55 19.3 -15.2 19.55 Q-13.6 20.55 -11.85 21.2 L-10.4 21.7 -10.1 21.4 -10.05 21.1 -10.0 20.95 -9.7 20.6 -7.95 18.0 -7.3 16.75 -7.2 16.65 -5.95 14.05 -5.4 12.9 Q-3.3 8.4 -1.65 3.75 L-1.6 3.45 -1.05 2.85 -0.95 2.6 -1.15 2.75 M-12.35 22.35 L-13.45 22.05 -15.1 27.7 -13.35 25.3 -11.15 22.6 -12.35 22.35 M-11.25 51.4 Q-11.2 43.35 -9.1 35.65 L-7.8 31.9 Q-12.15 31.7 -16.25 33.05 L-16.6 33.15 Q-17.15 34.1 -18.0 34.7 -18.5 34.55 -18.65 34.0 L-18.05 32.8 Q-21.5 32.15 -23.75 28.8 L-24.4 28.05 -25.1 31.85 -25.1 32.0 -25.15 32.2 -25.65 37.2 Q-25.9 40.5 -25.75 43.9 -25.55 49.4 -23.8 54.4 L-24.05 54.6 -24.1 54.65 -23.75 54.6 -22.6 54.45 -20.6 54.4 Q-21.95 52.45 -22.35 50.0 L-22.55 49.7 -22.7 49.55 Q-24.75 41.65 -20.2 35.5 -19.7 37.05 -20.55 39.2 -22.05 42.9 -21.4 47.0 L-20.6 50.4 -19.1 54.4 Q-15.05 54.5 -11.15 55.65 L-11.25 51.4 M12.8 39.1 L10.6 33.7 9.25 30.2 7.7 27.8 6.75 26.4 6.5 26.15 Q3.75 21.5 -0.55 24.45 L-1.6 25.4 Q-5.55 29.2 -6.8 34.7 L-7.25 35.6 Q-9.5 43.8 -9.7 52.4 -9.7 54.1 -10.05 55.7 L-10.3 55.9 -10.05 55.95 -9.95 56.05 -9.9 56.2 -9.85 56.5 -9.9 56.8 -9.95 56.95 -10.05 57.1 -24.35 56.7 Q-31.55 57.55 -36.65 62.75 -40.5 66.75 -41.8 71.9 L-41.75 74.0 -41.75 74.15 -38.55 76.4 Q-33.4 67.65 -23.4 64.6 L-21.0 63.95 -19.2 64.1 -19.05 64.15 Q-30.65 67.05 -37.05 76.85 L-37.1 76.95 -37.05 76.95 -36.95 77.0 Q-32.25 78.15 -27.6 78.6 -13.85 79.75 -0.9 74.3 -0.2 74.0 0.25 73.3 L1.15 72.3 1.2 72.3 Q0.9 70.05 1.0 67.9 0.7 60.3 1.0 52.65 L0.9 52.2 Q0.9 51.95 1.05 51.8 L1.3 46.7 Q1.75 40.5 4.6 35.6 5.55 37.1 4.6 39.3 4.1 40.35 3.9 41.55 6.05 47.4 6.65 53.6 L6.65 53.65 Q11.05 54.25 14.75 50.2 L14.85 50.15 Q14.55 45.65 13.45 41.4 L12.8 39.1 M40.05 26.9 L42.6 25.9 Q42.75 25.5 43.2 25.55 L43.2 25.5 43.25 25.6 Q43.85 25.3 44.4 25.05 47.75 23.55 49.7 20.55 38.15 15.15 30.2 5.05 L30.05 4.9 Q29.85 4.75 29.8 4.45 L29.7 4.15 25.85 1.1 Q27.4 2.85 28.65 4.95 29.75 6.85 30.65 9.0 L31.1 10.2 Q32.3 13.5 33.1 16.95 34.4 22.75 34.55 28.8 L40.05 26.9 M27.7 55.5 L28.65 53.65 28.65 53.25 Q26.95 48.35 23.85 44.35 22.15 42.15 20.05 40.2 L16.95 37.25 Q14.85 35.8 12.6 34.7 L14.05 38.55 Q14.15 38.45 14.35 38.45 L14.6 38.4 Q20.1 41.75 17.85 47.9 16.5 51.6 13.0 53.7 7.7 56.85 2.6 53.85 L2.4 56.5 Q2.2 59.45 2.15 62.4 L2.35 66.9 2.45 67.35 Q13.65 68.45 22.25 61.6 25.55 59.0 27.7 55.5 M43.5 29.75 L42.85 27.65 Q39.8 28.95 36.55 29.55 L37.9 32.2 Q42.05 40.8 44.3 50.35 L44.3 51.05 46.3 51.55 49.55 51.4 50.0 50.8 Q47.9 40.0 43.6 29.95 L43.5 29.75 M45.8 62.55 Q49.6 61.6 54.0 63.2 62.8 66.4 71.65 64.15 L73.2 63.75 73.35 63.6 73.95 63.0 74.45 62.15 74.85 61.35 Q73.05 56.2 67.1 54.8 L61.8 53.8 53.6 52.9 Q52.5 56.5 48.4 57.05 44.65 57.6 42.05 55.7 L36.95 59.05 34.45 60.75 Q34.0 65.35 39.65 64.8 41.4 64.65 42.8 63.55 43.25 62.4 44.5 61.8 L45.0 61.65 Q45.45 61.7 45.7 62.05 L45.8 62.5 45.75 62.55 45.8 62.55 M55.1 54.55 Q55.35 54.2 55.8 54.2 L57.4 54.2 58.2 54.15 Q62.05 54.15 65.55 55.25 L65.65 55.35 65.65 55.5 65.65 55.65 65.65 55.8 65.6 55.95 65.55 56.1 65.5 56.4 65.45 56.55 65.4 56.7 65.25 56.85 65.1 57.0 65.05 57.15 65.0 57.3 64.9 57.4 Q60.5 56.0 55.75 55.15 55.15 55.05 55.1 54.55 M54.6 56.9 Q58.75 56.8 62.05 58.65 L62.15 58.75 61.45 59.75 59.5 61.15 59.0 61.3 Q57.1 59.85 54.9 58.85 L52.5 57.5 52.4 57.3 Q52.7 56.8 53.4 56.85 L54.6 56.9 M60.2 59.3 L60.35 59.15 60.3 59.15 Q58.4 58.25 56.3 58.2 L58.85 60.0 59.05 60.1 60.2 59.3 M64.45 56.25 Q63.95 55.25 62.0 55.5 L64.3 56.3 64.45 56.25 M51.1 52.05 Q48.95 53.6 47.05 53.5 L46.9 53.45 Q45.2 53.25 43.7 51.8 L43.1 51.55 42.75 50.25 42.0 51.3 41.55 51.85 Q41.45 52.55 41.8 53.15 L42.25 53.9 Q42.85 53.9 43.2 54.35 L43.25 54.5 43.25 54.65 Q48.4 57.1 51.85 52.9 L52.45 51.75 52.25 51.0 51.9 49.95 51.2 49.65 51.45 51.25 Q51.5 51.7 51.15 52.0 L51.1 52.05 M16.4 48.35 Q18.55 42.9 14.4 39.45 L15.8 44.4 Q16.3 46.35 16.35 48.35 L16.35 48.45 16.4 48.35 M5.2 53.3 Q4.6 49.05 3.45 45.0 L2.7 52.2 Q3.95 52.9 5.2 53.3 M-27.45 46.8 Q-30.0 43.05 -33.0 39.7 -35.4 45.2 -36.15 51.2 -32.65 47.4 -27.4 47.45 L-27.45 46.85 -27.45 46.8 M-24.65 54.5 Q-30.8 55.65 -35.75 52.4 L-36.2 51.6 Q-36.65 55.5 -36.4 59.6 L-36.35 60.4 -35.05 59.3 Q-30.25 55.65 -24.45 54.7 L-24.65 54.5 M-27.2 48.9 L-29.15 49.3 Q-32.35 49.5 -34.55 51.75 -30.45 53.6 -25.5 53.25 -26.8 51.3 -27.2 48.9" fill="#000000" fill-rule="evenodd" stroke="none"/>
      <path d="M16.75 -29.0 L21.25 -32.95 23.1 -35.55 24.0 -37.05 25.25 -39.35 26.4 -42.8 26.7 -44.65 26.95 -46.25 Q27.35 -48.55 26.95 -50.75 25.8 -56.6 22.6 -61.9 22.0 -62.85 21.55 -63.9 L20.05 -66.15 22.3 -64.7 Q29.1 -59.0 31.2 -50.35 31.65 -48.35 31.75 -46.2 31.95 -38.7 28.4 -32.1 25.15 -32.85 21.8 -30.95 L15.45 -27.55 16.35 -28.55 16.75 -29.0 M-64.45 66.1 L-62.45 63.95 -60.5 62.3 -58.45 60.75 -56.95 59.7 Q-56.0 59.1 -55.0 58.65 -51.55 57.05 -47.8 56.35 L-46.4 56.15 -45.4 56.05 -43.7 56.0 -42.6 49.4 -42.35 48.4 -41.2 44.2 Q-40.2 40.45 -38.2 37.2 L-37.55 35.95 Q-36.6 33.4 -34.55 31.7 L-34.25 31.75 Q-31.25 32.15 -28.75 34.15 L-27.85 34.9 -27.25 35.5 Q-27.6 39.75 -27.5 44.1 -29.6 41.0 -32.5 38.5 L-31.9 37.25 -31.85 36.95 -31.75 36.65 -31.5 36.35 -31.35 35.9 -31.4 35.75 Q-31.6 35.4 -32.0 35.35 -34.25 36.9 -35.2 39.65 -38.8 50.3 -37.75 61.7 L-38.6 62.6 -39.0 62.45 Q-43.8 65.1 -49.4 65.6 L-54.55 66.15 Q-59.75 66.85 -64.45 66.1 M17.25 -9.2 L16.7 -8.5 15.45 -7.15 Q14.05 -5.8 12.2 -5.3 L10.8 -5.15 10.05 -5.15 9.7 -7.85 13.5 -9.25 17.0 -10.9 17.2 -9.5 17.25 -9.2 M-12.35 22.35 L-11.15 22.6 -13.35 25.3 -15.1 27.7 -13.45 22.05 -12.35 22.35 M-27.6 78.6 Q-26.65 77.1 -25.35 75.85 L-23.25 73.95 Q-20.8 71.75 -17.85 70.35 -14.25 68.65 -10.4 67.75 L-6.45 67.4 -6.45 66.6 -5.8 59.4 -5.55 57.0 -5.1 53.4 -4.05 46.4 Q-3.3 42.6 -2.05 39.0 L-1.3 37.05 0.1 34.15 0.9 33.35 2.4 30.6 2.7 30.5 3.85 30.1 4.4 30.05 Q4.85 30.15 4.95 29.9 5.0 29.8 5.2 29.8 6.15 29.85 6.7 30.55 L7.2 31.0 Q8.65 32.0 9.45 33.55 L10.0 34.4 12.8 39.1 13.45 41.4 Q14.55 45.65 14.85 50.15 L14.75 50.2 Q11.05 54.25 6.65 53.65 L6.65 53.6 Q6.05 47.4 3.9 41.55 4.1 40.35 4.6 39.3 5.55 37.1 4.6 35.6 1.75 40.5 1.3 46.7 L1.05 51.8 Q0.9 51.95 0.9 52.2 L1.0 52.65 Q0.7 60.3 1.0 67.9 0.9 70.05 1.2 72.3 L1.15 72.3 0.25 73.3 Q-0.2 74.0 -0.9 74.3 -13.85 79.75 -27.6 78.6 M46.3 51.55 L44.3 51.05 44.3 50.35 Q42.05 40.8 37.9 32.2 L36.55 29.55 Q39.8 28.95 42.85 27.65 L43.5 29.75 40.45 31.25 Q40.6 32.55 41.1 33.85 L41.85 36.2 42.6 38.2 Q44.0 41.8 44.8 45.6 L46.3 51.55" fill="#43a752" fill-rule="evenodd" stroke="none"/>
      <path d="M20.05 -66.15 L21.55 -63.9 Q22.0 -62.85 22.6 -61.9 25.8 -56.6 26.95 -50.75 27.35 -48.55 26.95 -46.25 L26.7 -44.65 26.4 -42.8 25.25 -39.35 24.0 -37.05 23.1 -35.55 21.25 -32.95 16.75 -29.0 Q17.6 -30.35 18.05 -32.05 18.95 -35.6 18.65 -39.05 18.35 -42.9 16.55 -46.65 14.85 -50.1 12.25 -52.55 8.85 -56.35 3.8 -56.2 3.45 -55.95 3.6 -55.4 L3.65 -55.4 5.05 -55.05 3.1 -53.1 1.65 -53.0 0.45 -52.9 -0.25 -52.1 -0.25 -51.95 -0.2 -51.85 -0.05 -51.7 0.15 -51.65 2.2 -51.9 1.35 -50.35 Q-0.55 -46.6 -0.1 -41.9 0.3 -37.5 1.4 -33.2 2.2 -30.1 3.95 -27.65 L2.1 -28.3 -1.05 -29.25 Q-4.65 -30.05 -8.2 -29.35 L-8.25 -29.45 Q-8.3 -36.95 -11.5 -43.7 L-12.5 -45.6 Q-11.65 -45.8 -11.05 -46.5 -10.85 -46.7 -10.95 -46.9 L-11.05 -47.0 -11.1 -47.1 -11.2 -47.15 -11.4 -47.2 -11.45 -47.15 -12.8 -46.75 -13.1 -46.65 -13.4 -47.1 Q-14.45 -48.8 -16.0 -49.35 L-15.8 -49.9 -15.7 -50.25 -15.7 -50.4 -15.75 -50.5 -15.75 -50.6 -15.75 -50.65 -15.45 -51.75 -15.4 -51.95 -14.5 -54.25 -13.05 -57.4 Q-8.95 -63.05 -2.25 -65.05 L-2.2 -65.25 -2.25 -65.35 -2.3 -65.45 -2.45 -65.5 -2.6 -65.6 -3.65 -65.55 -3.7 -65.65 Q-6.4 -67.1 -9.5 -67.65 L-10.35 -67.95 Q-8.9 -68.5 -8.35 -69.75 -7.75 -69.1 -6.35 -68.85 L1.15 -68.1 Q1.5 -68.1 1.65 -68.3 L1.75 -68.3 2.0 -68.75 1.95 -68.9 Q-0.8 -71.05 -4.1 -72.3 -0.6 -73.05 2.2 -76.2 3.15 -77.3 3.25 -78.3 L3.85 -77.7 4.0 -77.7 4.0 -77.55 4.15 -77.3 Q11.7 -71.5 19.8 -66.3 L20.05 -66.15 M4.6 -60.85 L4.55 -60.8 4.65 -60.65 4.8 -60.45 5.15 -60.35 Q8.0 -61.55 10.75 -59.6 11.05 -59.4 11.45 -59.25 L12.65 -57.55 Q13.25 -56.5 14.35 -56.3 14.45 -58.35 12.5 -59.95 9.45 -62.4 5.55 -62.0 4.65 -61.75 4.6 -60.85 M6.55 -54.55 Q10.5 -53.1 13.1 -50.05 9.4 -52.85 4.5 -53.05 L6.35 -54.35 6.55 -54.55 M-16.1 -48.2 L-14.3 -45.75 Q-15.75 -44.55 -16.55 -43.05 -16.6 -45.6 -16.25 -48.2 L-16.1 -48.2 M-47.95 46.9 Q-47.05 38.75 -43.85 31.15 L-43.75 31.0 Q-41.85 27.0 -38.7 24.0 L-38.35 23.7 -38.1 23.45 -36.9 22.4 Q-36.3 22.0 -35.55 21.8 L-35.35 21.9 -34.4 22.25 -33.0 23.4 Q-29.95 25.75 -28.3 29.15 -27.7 29.7 -27.4 30.45 L-26.8 31.55 -27.25 35.5 -27.85 34.9 -28.75 34.15 Q-31.25 32.15 -34.25 31.75 L-34.55 31.7 Q-36.6 33.4 -37.55 35.95 L-38.2 37.2 Q-40.2 40.45 -41.2 44.2 L-42.35 48.4 -42.6 49.4 -43.7 56.0 -45.4 56.05 -46.4 56.15 -47.8 56.35 Q-51.55 57.05 -55.0 58.65 -56.0 59.1 -56.95 59.7 L-58.45 60.75 -60.5 62.3 -62.45 63.95 -64.45 66.1 -69.95 64.65 -69.9 64.45 -69.85 64.15 -69.85 64.0 -69.8 63.85 -69.45 63.4 Q-65.05 55.55 -56.55 52.7 L-56.7 52.6 -57.4 52.4 -57.75 52.55 Q-67.65 55.0 -71.5 64.05 L-74.55 62.55 -73.8 61.3 Q-72.05 57.25 -68.55 54.45 -60.15 47.75 -49.45 48.25 L-49.3 49.45 Q-48.95 50.0 -48.45 49.6 L-48.1 47.95 -47.9 47.6 -47.85 47.45 -47.85 47.3 -47.95 46.9 M10.05 -5.15 L10.8 -5.15 12.2 -5.3 Q14.05 -5.8 15.45 -7.15 L16.7 -8.5 17.25 -9.2 17.85 0.25 Q13.8 2.9 10.2 0.6 10.3 -2.35 10.05 -5.15 M-37.05 76.85 Q-30.65 67.05 -19.05 64.15 L-19.2 64.1 -21.0 63.95 -23.4 64.6 Q-33.4 67.65 -38.55 76.4 L-41.75 74.15 -41.75 74.0 -41.8 71.9 Q-40.5 66.75 -36.65 62.75 -31.55 57.55 -24.35 56.7 L-10.05 57.1 -9.95 56.95 -9.9 56.8 -9.85 56.5 -9.9 56.2 -9.95 56.05 -10.05 55.95 -10.3 55.9 -10.05 55.7 Q-9.7 54.1 -9.7 52.4 -9.5 43.8 -7.25 35.6 L-6.8 34.7 Q-5.55 29.2 -1.6 25.4 L-0.55 24.45 Q3.75 21.5 6.5 26.15 L6.75 26.4 7.7 27.8 9.25 30.2 10.6 33.7 12.8 39.1 10.0 34.4 9.45 33.55 Q8.65 32.0 7.2 31.0 L6.7 30.55 Q6.15 29.85 5.2 29.8 5.0 29.8 4.95 29.9 4.85 30.15 4.4 30.05 L3.85 30.1 2.7 30.5 2.4 30.6 0.9 33.35 0.1 34.15 -1.3 37.05 -2.05 39.0 Q-3.3 42.6 -4.05 46.4 L-5.1 53.4 -5.55 57.0 -5.8 59.4 -6.45 66.6 -6.45 67.4 -10.4 67.75 Q-14.25 68.65 -17.85 70.35 -20.8 71.75 -23.25 73.95 L-25.35 75.85 Q-26.65 77.1 -27.6 78.6 -32.25 78.15 -36.95 77.0 L-37.05 76.95 -37.05 76.85 M46.3 51.55 L44.8 45.6 Q44.0 41.8 42.6 38.2 L41.85 36.2 41.1 33.85 Q40.6 32.55 40.45 31.25 L43.5 29.75 43.6 29.95 Q47.9 40.0 50.0 50.8 L49.55 51.4 46.3 51.55" fill="#55bb65" fill-rule="evenodd" stroke="none"/>
      <path d="M2.9 -50.4 L3.65 -51.9 4.25 -51.95 Q10.05 -51.55 14.1 -47.45 L15.45 -46.35 16.65 -43.25 16.55 -43.2 Q15.45 -44.85 13.95 -46.0 11.4 -47.9 8.45 -48.95 L7.8 -49.2 4.95 -50.0 2.9 -50.4 M-13.85 -44.5 L-13.6 -44.65 -12.55 -42.75 Q-14.0 -41.35 -14.9 -39.7 L-15.2 -39.1 -15.7 -36.85 -16.15 -39.2 -16.2 -39.85 Q-15.85 -42.5 -13.85 -44.5" fill="#cccccc" fill-rule="evenodd" stroke="none"/>
      <path d="M16.65 -43.25 L16.75 -42.9 Q17.65 -39.6 17.5 -36.1 17.2 -31.0 13.85 -27.1 L13.95 -26.85 12.5 -26.6 Q10.4 -26.45 8.35 -26.65 8.9 -27.25 9.25 -28.35 L9.7 -29.7 9.5 -31.55 4.7 -32.3 4.65 -32.35 4.6 -32.45 4.55 -32.6 Q4.65 -32.95 5.1 -33.0 L8.8 -34.45 Q7.8 -37.2 5.85 -39.55 4.75 -40.9 3.2 -41.45 L3.0 -41.5 2.1 -41.45 1.25 -40.95 Q1.1 -44.9 2.25 -48.65 L2.9 -50.4 4.95 -50.0 7.8 -49.2 8.45 -48.95 Q11.4 -47.9 13.95 -46.0 15.45 -44.85 16.55 -43.2 L16.65 -43.25 M-13.85 -44.5 L-13.6 -44.7 -13.6 -44.65 -13.85 -44.5 M-12.55 -42.75 Q-11.25 -40.1 -10.5 -37.15 L-11.45 -37.25 -11.85 -37.0 -12.1 -36.85 Q-12.9 -34.75 -12.65 -32.8 L-10.6 -32.35 -10.5 -32.35 -10.4 -32.25 -10.4 -32.1 Q-11.15 -31.35 -12.3 -30.95 -11.8 -29.6 -10.8 -28.3 L-11.55 -27.55 Q-14.6 -31.8 -15.7 -36.85 L-15.2 -39.1 -14.9 -39.7 Q-14.0 -41.35 -12.55 -42.75 M45.8 62.5 L45.7 62.05 Q45.45 61.7 45.0 61.65 L44.5 61.8 Q43.25 62.4 42.8 63.55 41.4 64.65 39.65 64.8 34.0 65.35 34.45 60.75 L36.95 59.05 42.05 55.7 Q44.65 57.6 48.4 57.05 52.5 56.5 53.6 52.9 L61.8 53.8 67.1 54.8 Q73.05 56.2 74.85 61.35 L74.45 62.15 73.95 63.0 73.35 63.6 73.2 63.75 71.65 64.15 Q62.8 66.4 54.0 63.2 49.6 61.6 45.8 62.55 L45.8 62.5 M54.6 56.9 L53.4 56.85 Q52.7 56.8 52.4 57.3 L52.5 57.5 54.9 58.85 Q57.1 59.85 59.0 61.3 L59.5 61.15 61.45 59.75 62.15 58.75 62.05 58.65 Q58.75 56.8 54.6 56.9 M55.1 54.55 Q55.15 55.05 55.75 55.15 60.5 56.0 64.9 57.4 L65.0 57.3 65.05 57.15 65.1 57.0 65.25 56.85 65.4 56.7 65.45 56.55 65.5 56.4 65.55 56.1 65.6 55.95 65.65 55.8 65.65 55.65 65.65 55.5 65.65 55.35 65.55 55.25 Q62.05 54.15 58.2 54.15 L57.4 54.2 55.8 54.2 Q55.35 54.2 55.1 54.55 M60.3 59.15 L60.2 59.3 59.05 60.1 58.85 60.0 56.3 58.2 Q58.4 58.25 60.3 59.15 M51.15 52.0 Q51.5 51.7 51.45 51.25 L51.2 49.65 51.9 49.95 52.25 51.0 52.45 51.75 51.85 52.9 Q48.4 57.1 43.25 54.65 L43.25 54.5 43.2 54.35 Q42.85 53.9 42.25 53.9 L41.8 53.15 Q41.45 52.55 41.55 51.85 L42.0 51.3 42.75 50.25 43.1 51.55 43.7 51.8 Q45.2 53.25 46.9 53.45 L47.05 53.5 Q48.95 53.6 51.1 52.05 L51.15 52.0 M64.45 56.25 L64.3 56.3 62.0 55.5 Q63.95 55.25 64.45 56.25 M-27.2 48.9 Q-26.8 51.3 -25.5 53.25 -30.45 53.6 -34.55 51.75 -32.35 49.5 -29.15 49.3 L-27.2 48.9" fill="#ffffff" fill-rule="evenodd" stroke="none"/>
      <path d="M11.15 -16.0 L10.7 -15.8 9.45 -15.2 7.7 -14.5 7.0 -14.25 Q-1.35 -11.25 -10.7 -12.0 L-19.25 -13.0 Q-23.9 -13.75 -28.35 -12.8 L-29.3 -11.7 -29.3 -11.65 -26.6 -11.8 -29.05 -9.85 -29.25 -9.7 -29.4 -9.4 Q-33.05 -9.95 -34.35 -13.25 -35.4 -16.05 -32.35 -17.05 L-28.45 -18.2 -28.0 -18.25 Q-25.45 -18.55 -22.9 -18.35 L-22.0 -18.3 Q-18.3 -17.95 -14.65 -16.55 -13.1 -16.2 -12.0 -16.8 -15.3 -18.3 -18.75 -19.0 -14.3 -20.75 -10.7 -23.8 -9.7 -24.65 -9.45 -25.75 L-9.75 -26.05 -10.1 -26.15 -10.95 -25.3 -10.95 -25.7 -10.55 -26.2 -10.7 -26.45 -10.3 -27.15 -9.5 -27.45 -9.2 -27.5 -9.05 -27.6 -9.0 -27.6 Q-3.4 -29.4 2.3 -27.2 L3.05 -26.25 Q4.35 -24.5 6.55 -23.85 L8.35 -23.4 10.95 -23.3 Q12.9 -23.6 13.95 -22.1 L14.2 -21.45 Q14.55 -19.5 13.05 -17.9 L12.7 -17.55 11.1 -16.1 11.15 -16.05 11.15 -16.0 M-24.7 -5.75 L-26.5 -5.0 Q-27.0 -4.75 -27.7 -5.0 L-28.1 -5.2 -28.2 -5.45 -28.5 -5.7 -28.6 -5.9 Q-29.25 -7.7 -27.9 -9.05 L-27.85 -9.15 Q-26.65 -10.2 -25.3 -10.95 -26.35 -9.75 -26.1 -8.1 L-25.65 -6.9 -24.7 -5.75" fill="#f07942" fill-rule="evenodd" stroke="none"/>
      <path d="M2.3 -27.2 L3.5 -26.7 5.2 -26.05 5.25 -26.0 5.4 -25.95 Q13.0 -23.4 19.75 -28.5 22.75 -30.85 26.5 -31.2 L26.6 -31.1 26.7 -31.0 26.85 -30.9 Q28.6 -31.25 30.15 -30.2 31.05 -29.6 31.75 -28.8 L31.75 -28.5 Q31.65 -28.1 31.85 -27.75 L31.9 -27.5 Q31.55 -25.9 30.5 -24.75 L29.95 -23.85 29.95 -23.7 29.95 -23.6 Q24.95 -17.05 17.95 -13.0 L16.55 -12.2 Q13.2 -10.45 9.4 -9.2 L8.25 -8.85 6.45 -8.35 Q-2.25 -6.15 -11.25 -7.35 -18.25 -8.2 -24.7 -5.75 L-25.65 -6.9 -26.1 -8.1 Q-26.35 -9.75 -25.3 -10.95 L-23.3 -11.9 -21.8 -11.9 -10.6 -11.15 -6.45 -10.85 Q0.75 -10.7 7.3 -12.95 L8.4 -13.35 Q10.8 -14.25 13.15 -15.55 L14.7 -16.4 16.65 -17.7 Q21.0 -20.65 22.55 -25.55 L23.05 -26.05 25.3 -25.5 26.25 -25.3 26.45 -25.35 26.85 -25.85 26.85 -26.0 Q25.35 -27.65 23.05 -27.5 L20.55 -27.05 Q18.15 -26.2 17.75 -23.85 L17.75 -23.7 17.9 -23.7 18.05 -23.6 18.1 -23.55 18.25 -23.65 Q19.7 -25.5 21.5 -25.95 20.55 -24.85 20.0 -23.35 19.0 -20.85 16.85 -19.35 L13.4 -17.2 11.3 -16.05 11.15 -16.0 11.15 -16.05 11.1 -16.1 12.7 -17.55 13.05 -17.9 Q14.55 -19.5 14.2 -21.45 L13.95 -22.1 Q12.9 -23.6 10.95 -23.3 L8.35 -23.4 6.55 -23.85 Q4.35 -24.5 3.05 -26.25 L2.3 -27.2" fill="#e05512" fill-rule="evenodd" stroke="none"/>
      <path d="M2.05 -0.05 L4.65 -2.2 8.75 -3.75 9.05 -0.25 8.45 -0.8 8.3 -0.95 8.3 -1.1 Q8.4 -1.9 7.6 -2.1 L7.6 -2.05 Q7.15 -2.1 6.95 -1.7 L6.95 -1.25 7.15 -0.75 6.2 -0.75 3.45 -0.35 2.05 -0.05 M10.7 2.75 Q12.45 3.45 14.8 3.35 L16.45 3.15 Q18.35 3.35 19.95 4.15 L20.7 4.45 23.7 5.45 27.15 6.9 27.2 7.1 27.75 9.0 28.5 13.0 28.45 12.95 28.0 12.65 27.65 12.4 25.4 11.55 25.0 11.35 24.4 11.05 22.75 10.35 Q20.6 9.35 18.2 8.8 L17.5 8.55 Q15.4 7.75 12.95 7.6 L12.45 7.55 11.45 7.35 11.2 7.3 7.45 7.3 5.7 7.4 Q3.05 7.55 0.7 8.45 L0.2 8.55 Q-1.15 8.55 -2.15 9.2 L-0.45 4.6 Q3.15 2.8 7.45 2.7 L10.7 2.75 M19.7 0.6 L19.9 -0.65 19.4 -0.6 19.2 -0.5 19.0 -1.35 19.2 -3.2 19.25 -3.2 Q22.6 -0.75 25.05 2.45 L25.1 2.45 23.15 1.55 22.75 1.35 Q21.3 0.8 19.7 0.6 M24.8 42.95 Q19.55 36.45 11.8 32.9 L8.8 26.9 10.4 27.4 14.0 28.95 14.95 29.45 15.85 29.9 19.25 31.9 20.35 32.65 21.85 33.75 22.6 34.35 Q24.9 35.9 26.8 37.85 L25.45 41.6 24.8 42.95 M4.65 22.1 Q3.5 21.55 2.2 21.45 L1.4 21.7 0.6 21.95 -0.8 22.0 -4.4 22.25 -8.2 22.95 -9.1 23.25 -9.8 23.55 -9.75 23.4 -9.45 23.2 -9.25 22.9 -7.5 20.1 Q-5.95 19.5 -4.4 19.0 -3.25 18.6 -2.0 18.5 L-1.4 18.4 1.4 18.3 2.2 18.4 Q6.1 18.6 9.8 19.5 11.65 19.9 13.4 20.55 L14.2 20.85 17.8 22.15 Q21.45 23.35 24.6 25.75 L25.8 26.6 28.6 28.75 28.45 29.8 27.85 33.35 27.7 33.3 25.95 31.85 22.8 29.4 Q19.6 27.1 16.0 25.4 12.65 23.8 9.0 22.85 L7.6 22.5 6.4 22.3 5.75 22.2 4.65 22.1 M-3.95 25.45 Q-5.8 27.75 -7.05 30.3 L-7.2 30.3 -11.2 30.25 -14.1 30.8 -15.5 31.25 -14.85 30.35 -12.1 26.95 -11.2 26.7 -10.0 26.4 Q-7.05 25.4 -3.95 25.35 L-3.95 25.45 M-5.6 16.7 L-3.6 12.55 -2.05 11.85 2.45 10.65 5.2 10.35 5.7 10.3 10.95 10.55 13.2 10.95 17.95 12.25 20.15 13.05 22.45 14.0 23.75 14.65 27.65 17.0 28.8 17.65 28.85 20.0 28.9 22.0 28.9 24.75 28.55 24.45 28.05 23.95 26.2 22.6 24.25 21.35 23.55 20.9 19.8 19.0 18.15 18.25 17.5 17.85 Q16.65 17.2 15.6 17.0 L14.6 16.75 10.4 16.0 8.2 15.65 0.6 15.15 Q-1.15 15.2 -2.8 15.8 L-3.2 15.95 -3.8 16.1 -4.6 16.3 -5.6 16.7 M-1.15 2.75 L-1.05 2.85 -1.6 3.45 -1.65 3.75 Q-3.3 8.4 -5.4 12.9 L-6.35 13.85 -7.5 14.9 -12.6 18.55 Q-13.85 19.3 -15.2 19.55 L-15.55 19.3 -17.75 17.6 Q-13.8 16.2 -11.1 13.0 -6.4 7.55 -1.15 2.75 M31.1 10.2 L30.65 9.0 Q29.75 6.85 28.65 4.95 27.4 2.85 25.85 1.1 L29.7 4.15 29.8 4.45 Q29.85 4.75 30.05 4.9 L30.2 5.05 Q38.15 15.15 49.7 20.55 47.75 23.55 44.4 25.05 43.85 25.3 43.25 25.6 L43.2 25.5 43.2 25.55 Q42.75 25.5 42.6 25.9 L40.05 26.9 39.85 26.55 39.2 25.4 37.75 23.0 35.65 19.55 Q33.95 16.25 32.6 12.8 L31.95 11.4 31.3 10.1 31.1 10.2" fill="#3399ff" fill-rule="evenodd" stroke="none"/>
      <path d="M2.05 -0.05 L3.45 -0.35 6.2 -0.75 7.15 -0.75 Q8.35 1.75 10.7 2.75 L7.45 2.7 Q3.15 2.8 -0.45 4.6 L0.2 2.5 0.35 2.35 0.7 1.6 0.85 1.45 1.95 0.05 2.05 -0.05 M16.45 3.15 Q19.0 2.6 19.7 0.6 21.3 0.8 22.75 1.35 L23.15 1.55 25.1 2.45 Q26.8 4.7 28.15 7.3 L27.25 7.0 27.2 6.95 27.15 6.9 23.7 5.45 20.7 4.45 19.95 4.15 Q18.35 3.35 16.45 3.15 M30.95 14.6 L32.35 20.85 31.95 20.45 31.3 19.65 Q30.75 18.85 30.2 18.5 L29.7 18.2 28.8 17.65 27.65 17.0 23.75 14.65 22.45 14.0 20.15 13.05 17.95 12.25 13.2 10.95 10.95 10.55 5.7 10.3 5.2 10.35 2.45 10.65 -2.05 11.85 -3.6 12.55 -2.15 9.2 Q-1.15 8.55 0.2 8.55 L0.7 8.45 Q3.05 7.55 5.7 7.4 L7.45 7.3 11.2 7.3 11.45 7.35 12.45 7.55 12.95 7.6 Q15.4 7.75 17.5 8.55 L18.2 8.8 Q20.6 9.35 22.75 10.35 L24.4 11.05 25.0 11.35 25.4 11.55 27.65 12.4 28.0 12.65 28.45 12.95 28.5 13.0 28.55 13.2 28.65 13.05 Q29.95 13.8 30.95 14.6 M33.1 28.75 L33.0 33.05 32.45 32.2 32.15 31.85 31.7 31.35 Q31.05 30.45 30.0 29.8 L29.4 29.4 28.6 28.75 25.8 26.6 24.6 25.75 Q21.45 23.35 17.8 22.15 L14.2 20.85 13.4 20.55 Q11.65 19.9 9.8 19.5 6.1 18.6 2.2 18.4 L1.4 18.3 -1.4 18.4 -2.0 18.5 Q-3.25 18.6 -4.4 19.0 -5.95 19.5 -7.5 20.1 L-5.6 16.7 -4.6 16.3 -3.8 16.1 -3.2 15.95 -2.8 15.8 Q-1.15 15.2 0.6 15.15 L8.2 15.65 10.4 16.0 14.6 16.75 15.6 17.0 Q16.65 17.2 17.5 17.85 L18.15 18.25 19.8 19.0 23.55 20.9 24.25 21.35 26.2 22.6 28.05 23.95 28.55 24.45 28.9 24.75 30.7 26.3 31.15 26.65 31.75 27.25 32.05 27.5 33.1 28.75 M32.45 38.45 L31.35 44.35 30.85 43.4 28.75 40.25 28.25 39.55 26.8 37.85 Q24.9 35.9 22.6 34.35 L21.85 33.75 20.35 32.65 19.25 31.9 15.85 29.9 14.95 29.45 14.0 28.95 10.4 27.4 8.8 26.9 7.95 25.5 Q7.65 24.7 6.95 24.15 L5.7 22.65 5.4 22.5 4.65 22.1 5.75 22.2 6.4 22.3 7.6 22.5 9.0 22.85 Q12.65 23.8 16.0 25.4 19.6 27.1 22.8 29.4 L25.95 31.85 27.7 33.3 27.85 33.45 28.15 33.65 29.05 34.55 29.4 35.0 Q31.15 36.55 32.45 38.45 M0.6 21.95 Q-0.9 22.5 -2.0 23.55 L-3.85 25.35 -3.95 25.35 Q-7.05 25.4 -10.0 26.4 L-11.2 26.7 -12.1 26.95 -9.8 23.55 -9.1 23.25 -8.2 22.95 -4.4 22.25 -0.8 22.0 0.6 21.95" fill="#0060bf" fill-rule="evenodd" stroke="none"/>
      <path d="M28.15 7.3 L29.55 10.5 30.95 14.6 Q29.95 13.8 28.65 13.05 L28.5 13.0 27.75 9.0 27.2 7.1 27.25 7.0 28.15 7.3 M32.35 20.85 Q33.0 24.75 33.1 28.75 L32.05 27.5 31.75 27.25 31.15 26.65 30.7 26.3 28.9 24.75 28.9 22.0 28.85 20.0 28.8 17.65 29.7 18.2 30.2 18.5 Q30.75 18.85 31.3 19.65 L31.95 20.45 32.35 20.85 M33.0 33.05 L32.95 33.75 32.95 34.2 32.45 38.45 Q31.15 36.55 29.4 35.0 L29.05 34.55 28.15 33.65 27.85 33.45 27.85 33.35 28.45 29.8 28.6 28.75 29.4 29.4 30.0 29.8 Q31.05 30.45 31.7 31.35 L32.15 31.85 32.45 32.2 33.0 33.05 M31.35 44.35 L29.5 50.65 28.4 48.3 Q26.8 45.4 24.8 42.95 L25.45 41.6 26.8 37.85 28.25 39.55 28.75 40.25 30.85 43.4 31.35 44.35 M-15.2 19.55 Q-13.85 19.3 -12.6 18.55 L-7.5 14.9 -6.35 13.85 -5.4 12.9 -5.95 14.05 -7.2 16.65 -7.3 16.75 -7.95 18.0 -9.7 20.6 -10.0 20.95 -10.05 21.1 -10.1 21.4 -10.4 21.7 -11.85 21.2 Q-13.6 20.55 -15.2 19.55 M31.1 10.2 L31.3 10.1 31.95 11.4 32.6 12.8 Q33.95 16.25 35.65 19.55 L37.75 23.0 39.2 25.4 39.85 26.55 40.05 26.9 34.55 28.8 Q34.4 22.75 33.1 16.95 32.3 13.5 31.1 10.2" fill="#007dfb" fill-rule="evenodd" stroke="none"/>
      <path d="M-23.8 54.4 Q-25.55 49.4 -25.75 43.9 -25.9 40.5 -25.65 37.2 L-25.15 32.2 -25.1 32.0 -25.1 31.85 -24.4 28.05 -23.75 28.8 Q-21.5 32.15 -18.05 32.8 L-18.65 34.0 Q-18.5 34.55 -18.0 34.7 -17.15 34.1 -16.6 33.15 L-16.25 33.05 Q-12.15 31.7 -7.8 31.9 L-9.1 35.65 Q-11.2 43.35 -11.25 51.4 -11.7 51.15 -12.2 51.05 L-13.15 50.7 Q-15.15 49.85 -17.4 50.0 L-20.6 50.4 -21.4 47.0 Q-22.05 42.9 -20.55 39.2 -19.7 37.05 -20.2 35.5 -24.75 41.65 -22.7 49.55 L-22.55 49.7 -22.35 50.0 Q-21.95 52.45 -20.6 54.4 L-22.6 54.45 -23.75 54.6 -23.8 54.4 M2.4 56.5 L2.6 53.85 Q7.7 56.85 13.0 53.7 16.5 51.6 17.85 47.9 20.1 41.75 14.6 38.4 L14.35 38.45 Q14.15 38.45 14.05 38.55 L12.6 34.7 Q14.85 35.8 16.95 37.25 L20.05 40.2 Q22.15 42.15 23.85 44.35 26.95 48.35 28.65 53.25 L28.65 53.65 27.7 55.5 26.2 56.15 23.4 57.05 21.95 57.45 19.6 57.9 18.0 58.15 13.2 58.6 9.2 58.45 Q5.65 58.1 2.4 56.5" fill="#6633cc" fill-rule="evenodd" stroke="none"/>
      <path d="M-3.85 25.35 L-3.95 25.45 -3.95 25.35 -3.85 25.35 M27.85 33.35 L27.85 33.45 27.7 33.3 27.85 33.35" fill="#f02d0b" fill-rule="evenodd" stroke="none"/>
      <path d="M27.15 6.9 L27.2 6.95 27.25 7.0 27.2 7.1 27.15 6.9 M28.5 13.0 L28.65 13.05 28.55 13.2 28.5 13.0" fill="#d6280a" fill-rule="evenodd" stroke="none"/>
      <path d="M-20.6 50.4 L-17.4 50.0 Q-15.15 49.85 -13.15 50.7 L-12.2 51.05 Q-11.7 51.15 -11.25 51.4 L-11.15 55.65 Q-15.05 54.5 -19.1 54.4 L-20.6 50.4 M2.4 56.5 Q5.65 58.1 9.2 58.45 L13.2 58.6 18.0 58.15 19.6 57.9 21.95 57.45 23.4 57.05 26.2 56.15 27.7 55.5 Q25.55 59.0 22.25 61.6 13.65 68.45 2.45 67.35 L2.35 66.9 2.15 62.4 Q2.2 59.45 2.4 56.5 M16.35 48.35 Q16.3 46.35 15.8 44.4 L14.4 39.45 Q18.55 42.9 16.4 48.35 L16.35 48.35 M5.2 53.3 Q3.95 52.9 2.7 52.2 L3.45 45.0 Q4.6 49.05 5.2 53.3" fill="#4d269b" fill-rule="evenodd" stroke="none"/>
      <path d="M-23.8 54.4 L-23.75 54.6 -24.1 54.65 -24.05 54.6 -23.8 54.4" fill="#666666" fill-rule="evenodd" stroke="none"/>
      <path d="M-47.95 46.9 L-47.85 47.3 -47.95 47.05 -47.95 46.9" fill="#0ecfe4" fill-rule="evenodd" stroke="none"/>
    </g>
    <g id="shape2" transform="matrix(1.0, 0.0, 0.0, 1.0, 236.5, 108.95)">
      <path d="M13.3 -65.35 Q14.7 -64.75 14.95 -63.35 L14.9 -63.25 14.45 -62.9 14.3 -62.85 Q13.95 -62.95 13.75 -63.15 L13.55 -63.3 Q13.25 -63.6 13.25 -64.0 L13.25 -64.45 13.1 -65.1 Q13.05 -65.4 13.3 -65.35 M21.7 -59.2 L21.8 -59.1 22.05 -57.4 21.9 -56.9 20.75 -57.05 20.45 -57.55 20.3 -57.65 20.25 -59.1 20.25 -59.45 20.55 -60.2 20.75 -60.3 21.7 -59.2 M-3.95 -63.3 Q-4.15 -62.55 -4.9 -61.8 L-4.95 -61.7 Q-4.75 -60.9 -4.85 -60.0 L-4.9 -59.55 -5.25 -58.95 -5.35 -58.85 Q-5.6 -58.6 -5.95 -58.5 L-6.55 -58.85 Q-6.65 -59.75 -6.15 -60.45 L-5.85 -60.75 Q-5.55 -62.45 -4.0 -63.25 L-3.95 -63.3" fill="#dfefff" fill-rule="evenodd" stroke="none"/>
      <path d="M49.85 -107.6 Q53.3 -108.95 56.95 -108.85 61.5 -109.35 64.75 -106.6 65.35 -106.15 64.9 -105.45 64.25 -104.5 63.0 -104.3 55.6 -103.05 48.75 -100.05 44.6 -98.2 43.15 -93.9 L42.95 -93.35 Q40.35 -90.85 36.9 -90.5 36.3 -90.45 36.2 -91.05 35.9 -92.5 37.05 -93.65 37.4 -93.95 37.4 -94.4 35.5 -94.75 33.55 -93.8 28.15 -91.2 24.65 -86.45 21.15 -81.7 17.4 -77.4 L16.85 -77.25 16.5 -77.35 Q16.55 -79.05 17.3 -80.8 18.95 -84.5 21.15 -87.95 L23.7 -91.55 Q28.5 -97.65 35.9 -99.8 37.55 -100.3 38.85 -101.5 43.1 -105.55 48.75 -107.2 L49.85 -107.6 M17.9 -78.85 L22.1 -85.15 Q24.45 -88.4 27.55 -91.05 31.95 -94.8 37.55 -95.55 L37.7 -95.45 37.8 -95.35 37.9 -95.3 38.0 -95.2 38.2 -94.9 38.3 -94.8 38.3 -94.25 Q38.2 -93.35 37.55 -92.65 L36.9 -91.55 Q38.5 -91.1 40.05 -92.2 41.5 -93.2 42.45 -94.6 L43.6 -96.55 Q44.9 -99.35 47.7 -100.65 53.2 -103.15 59.15 -104.45 L61.1 -104.75 Q62.9 -104.9 64.2 -105.95 L64.2 -106.0 64.2 -106.1 64.15 -106.2 64.05 -106.3 63.75 -106.6 63.7 -106.7 Q60.5 -108.2 56.9 -107.85 51.6 -107.75 46.85 -105.55 L44.6 -104.4 Q41.4 -102.65 38.6 -100.25 36.35 -98.3 33.35 -97.85 28.55 -95.8 25.2 -91.7 22.15 -87.9 19.8 -83.65 L18.8 -81.35 18.7 -81.3 18.65 -81.2 18.55 -81.1 18.55 -81.0 18.55 -80.9 18.5 -80.7 18.35 -80.35 18.3 -79.85 18.2 -79.8 18.15 -79.7 18.05 -79.6 18.05 -79.5 18.05 -79.4 18.05 -79.3 18.0 -79.2 17.85 -78.9 17.8 -78.75 17.9 -78.85 M35.3 -60.2 Q29.75 -58.6 25.5 -54.2 L21.9 -50.2 Q27.4 -53.25 33.85 -55.1 42.55 -57.6 51.55 -58.35 52.8 -58.45 53.55 -59.25 52.6 -60.55 50.65 -60.7 L44.5 -60.75 35.8 -58.8 Q35.35 -58.65 35.05 -59.1 L35.05 -59.2 35.05 -59.3 35.05 -59.45 35.05 -59.65 35.05 -59.75 35.15 -59.85 35.3 -60.1 35.3 -60.2 M54.6 -59.15 Q52.35 -56.75 48.6 -56.8 L46.15 -56.7 Q39.65 -56.0 33.35 -54.15 26.25 -52.05 20.45 -47.65 L18.25 -45.65 17.65 -45.6 17.55 -45.7 17.5 -45.8 17.5 -45.85 17.5 -45.95 Q19.35 -48.65 21.5 -51.2 24.5 -54.7 28.05 -57.7 31.55 -60.65 35.95 -61.2 L36.1 -61.1 36.2 -61.0 36.25 -60.9 36.3 -60.8 36.35 -60.7 36.35 -60.6 36.35 -60.55 36.35 -60.25 36.25 -59.9 36.1 -59.6 39.45 -60.45 Q42.0 -61.4 44.6 -61.75 49.65 -62.5 53.95 -60.15 54.5 -59.85 54.6 -59.15 M4.95 -81.05 Q7.1 -83.3 9.8 -84.95 L10.8 -85.9 Q11.7 -87.1 12.4 -88.45 L12.2 -88.9 Q12.1 -89.2 11.8 -89.1 L11.35 -88.95 11.1 -88.85 Q6.35 -86.45 4.7 -81.5 L4.6 -81.15 4.55 -81.1 4.95 -81.05 M12.55 -89.95 L12.95 -89.7 Q13.65 -87.2 11.55 -85.15 L10.45 -83.85 Q7.4 -82.5 5.3 -80.1 4.65 -79.9 3.95 -80.1 L3.85 -80.2 3.55 -80.5 3.5 -80.6 Q3.4 -81.2 3.75 -81.7 L4.2 -82.55 4.3 -82.65 4.45 -82.75 Q6.15 -88.15 11.6 -90.1 L12.2 -90.1 12.4 -90.05 12.55 -89.95 M16.6 -16.1 Q15.45 -17.15 13.8 -16.9 12.35 -16.7 11.1 -16.0 L10.95 -15.9 Q10.75 -14.2 9.3 -13.25 7.0 -11.75 4.25 -11.7 14.9 -9.55 24.55 -13.7 20.05 -12.95 16.85 -15.65 16.65 -15.8 16.6 -16.1 M13.75 -17.9 Q16.35 -18.3 17.55 -16.25 L17.6 -16.2 Q20.7 -13.85 24.85 -14.9 L26.2 -14.7 Q26.35 -13.0 24.35 -12.3 14.1 -8.6 3.2 -10.95 2.45 -11.1 2.05 -11.65 3.3 -13.2 5.85 -13.0 L6.95 -13.2 9.6 -14.65 Q9.6 -16.95 12.05 -17.5 L13.75 -17.9 M10.85 -5.65 L10.8 -5.85 10.8 -6.6 17.0 -7.5 31.1 -8.1 Q32.85 -8.2 34.5 -8.75 37.1 -9.65 39.8 -8.7 L41.2 -8.45 50.1 -9.25 Q53.4 -9.8 56.55 -10.65 L57.1 -10.6 57.35 -10.55 57.45 -10.45 57.75 -10.0 57.75 -9.9 Q55.2 -6.85 50.85 -6.35 43.7 -5.6 36.7 -4.0 31.75 -2.85 26.6 -2.75 20.4 -2.6 14.4 -4.15 12.5 -4.6 10.85 -5.65 M22.5 -6.85 L12.0 -5.95 Q20.55 -2.7 29.9 -3.9 34.55 -4.5 39.1 -5.7 L43.05 -6.25 Q49.65 -6.6 55.7 -9.0 L56.1 -9.5 56.05 -9.55 Q48.75 -7.9 41.35 -7.55 L39.45 -7.75 Q36.75 -8.6 34.05 -7.7 28.7 -5.95 22.95 -6.8 L22.5 -6.85 M58.55 -28.75 L58.35 -28.75 Q57.95 -28.75 57.7 -29.05 60.65 -32.45 64.75 -34.8 68.9 -37.2 73.55 -37.95 76.25 -37.95 75.4 -35.8 L74.85 -34.75 Q75.45 -33.55 77.05 -33.65 85.1 -34.0 92.75 -31.7 99.8 -29.55 105.9 -25.4 108.25 -23.8 108.7 -21.25 L108.65 -21.15 108.2 -20.7 108.1 -20.6 Q105.15 -21.15 102.4 -22.65 100.05 -23.95 97.5 -24.9 89.9 -27.7 81.75 -26.35 77.9 -25.75 74.35 -26.9 73.4 -27.2 73.15 -28.15 L73.15 -28.2 73.3 -28.6 73.4 -28.9 73.35 -28.95 73.3 -29.25 73.3 -29.35 Q71.75 -30.65 69.7 -30.85 65.05 -31.25 60.75 -29.85 L58.55 -28.75 M61.55 -31.3 L64.25 -31.65 Q68.4 -32.3 72.25 -31.1 74.7 -30.3 74.2 -28.1 75.85 -26.4 78.5 -26.95 L81.85 -27.5 Q92.25 -28.65 101.65 -24.3 L107.25 -21.7 107.8 -21.65 107.6 -21.95 Q104.7 -26.1 99.75 -28.05 L96.9 -29.2 Q91.35 -31.55 85.35 -32.25 L76.0 -33.1 Q73.6 -33.2 74.25 -35.3 L74.85 -36.4 74.9 -36.55 74.25 -37.0 73.55 -36.95 Q66.9 -35.7 61.55 -31.4 L61.4 -31.3 61.55 -31.3 M57.0 -19.7 L57.05 -19.9 57.15 -20.0 57.3 -20.05 57.5 -20.1 57.55 -20.1 Q61.5 -19.55 65.25 -18.45 68.25 -17.55 68.45 -14.85 67.65 -13.45 66.0 -13.3 L61.4 -13.2 Q60.6 -13.25 60.1 -13.85 59.8 -14.9 60.6 -15.6 L61.25 -16.55 61.3 -16.65 61.25 -16.75 61.15 -16.95 61.1 -17.1 Q59.35 -18.45 57.3 -19.25 57.0 -19.35 56.95 -19.6 L57.0 -19.7 M61.0 -14.45 Q61.1 -14.05 61.75 -13.95 L66.4 -14.2 66.8 -14.35 67.4 -15.15 67.55 -15.3 Q66.6 -17.25 64.3 -17.75 L64.1 -17.95 64.05 -18.0 60.95 -18.5 Q63.3 -16.65 61.0 -14.55 L61.0 -14.45 M110.5 -81.9 Q116.95 -81.45 122.7 -78.1 123.45 -77.7 124.3 -77.4 L126.15 -77.5 126.15 -77.75 126.15 -77.85 126.25 -78.05 126.4 -78.25 Q131.55 -78.55 136.65 -77.15 L142.05 -75.65 143.6 -75.85 Q139.0 -78.95 133.5 -80.45 128.05 -81.95 122.45 -82.35 L122.2 -82.35 112.85 -82.4 110.5 -82.05 110.25 -81.95 110.5 -81.9 M144.6 -76.1 L144.65 -75.95 144.65 -75.85 Q144.55 -75.45 144.25 -75.2 L143.6 -74.7 143.45 -74.7 141.7 -74.75 137.2 -76.0 Q132.2 -77.25 127.3 -77.4 L127.35 -77.3 127.4 -77.05 127.35 -76.85 127.3 -76.75 122.9 -76.9 Q119.15 -78.65 115.2 -80.0 112.75 -80.85 110.1 -80.9 L102.9 -80.7 102.85 -80.8 102.85 -81.0 102.9 -81.1 103.95 -81.65 112.95 -83.35 126.75 -82.9 Q134.15 -81.95 141.05 -78.8 143.2 -77.85 144.6 -76.1 M122.55 -55.7 L122.15 -55.9 122.1 -55.95 Q125.4 -56.9 129.2 -56.75 L133.95 -56.85 138.2 -56.95 Q143.6 -57.15 147.95 -54.3 L148.0 -54.2 148.05 -54.05 148.05 -53.95 148.1 -53.85 148.1 -53.65 148.15 -53.45 148.15 -53.4 Q151.25 -51.7 154.85 -50.75 156.55 -50.3 158.1 -49.5 164.05 -46.35 169.5 -42.4 L172.25 -40.1 Q176.85 -35.65 178.9 -29.75 179.4 -28.35 179.3 -26.9 177.2 -25.25 175.85 -27.6 L175.15 -28.85 Q173.05 -32.85 170.15 -36.4 L168.85 -37.8 Q164.5 -41.9 158.3 -42.2 L154.8 -42.6 Q151.65 -43.25 149.4 -45.15 L149.0 -45.55 Q148.2 -48.7 145.3 -50.6 L141.95 -52.45 Q134.85 -55.65 126.95 -55.4 124.75 -55.35 122.65 -55.45 L122.6 -55.65 122.55 -55.7 M134.4 -55.9 Q140.1 -55.05 145.05 -51.8 147.95 -49.9 149.45 -47.0 L150.2 -45.8 Q151.15 -44.55 152.65 -44.2 155.9 -43.35 159.3 -42.9 162.3 -42.55 165.05 -41.4 169.6 -39.55 172.2 -35.35 L173.65 -33.3 Q175.65 -30.65 176.65 -27.55 L176.9 -27.4 177.1 -27.3 Q177.75 -26.95 178.4 -27.3 178.2 -30.3 176.6 -32.85 173.35 -37.95 168.7 -41.95 166.75 -43.65 164.5 -45.0 160.6 -47.35 156.45 -49.2 152.8 -50.8 148.85 -51.85 147.95 -52.1 147.25 -52.8 L147.25 -52.95 147.25 -53.05 147.15 -53.45 147.15 -53.7 Q144.15 -55.75 140.4 -55.95 L138.0 -56.0 137.6 -55.95 134.4 -55.9 M117.05 -49.55 L117.15 -49.45 117.35 -48.95 117.45 -48.8 117.6 -48.4 Q115.8 -46.7 113.0 -46.55 L101.0 -47.05 100.95 -47.45 101.05 -47.6 101.15 -48.0 Q106.25 -51.4 112.55 -51.2 115.1 -51.15 117.05 -49.55 M115.6 -49.45 Q114.1 -50.15 112.4 -50.25 107.3 -50.25 102.75 -48.1 L102.65 -48.05 Q109.65 -46.25 116.45 -48.6 L115.6 -49.45 M83.6 -7.3 L83.4 -7.3 83.55 -7.2 Q86.8 -4.0 91.05 -2.45 L92.05 -2.35 Q92.15 -3.45 91.25 -4.25 L89.85 -5.65 Q87.8 -7.1 85.3 -7.4 L83.6 -7.3 M81.2 -8.35 L81.35 -8.4 Q84.65 -8.55 87.8 -7.6 89.65 -7.05 91.2 -5.9 93.15 -4.45 92.85 -2.1 92.75 -1.3 91.9 -1.45 87.0 -2.45 83.4 -5.95 L81.35 -7.4 80.95 -7.95 81.2 -8.35 M114.05 -14.45 Q117.75 -14.45 118.4 -11.2 118.45 -10.95 118.15 -10.85 116.25 -10.1 114.75 -11.9 L112.95 -14.05 113.15 -14.3 114.05 -14.45 M117.6 -11.55 Q116.75 -13.2 114.85 -13.45 115.85 -11.9 117.5 -11.5 L117.6 -11.55 M144.1 -12.45 Q151.75 -11.25 156.4 -5.05 L157.0 -4.0 Q157.65 -2.3 156.35 -1.2 149.9 -1.1 147.9 -6.9 L147.4 -8.3 Q146.2 -11.3 143.1 -11.9 L143.0 -12.0 Q143.25 -12.6 144.1 -12.4 L144.1 -12.45 M148.8 -6.3 Q151.2 -2.05 156.05 -2.25 156.4 -2.9 156.05 -3.55 L155.9 -3.95 Q152.35 -8.9 146.8 -10.9 148.65 -9.05 148.8 -6.4 L148.8 -6.3 M170.65 -16.15 L170.15 -16.7 170.15 -16.9 170.85 -17.1 Q175.15 -16.2 177.6 -12.55 L179.45 -9.95 Q180.7 -8.3 179.65 -6.75 175.3 -7.55 172.7 -11.3 L171.7 -13.05 Q171.0 -14.55 170.65 -16.15 M179.15 -7.75 L179.2 -7.75 Q178.75 -10.1 176.85 -11.75 176.6 -11.95 176.65 -12.25 174.65 -14.95 171.65 -15.95 173.1 -9.75 179.15 -7.75 M-176.95 -85.9 L-176.35 -86.2 -175.5 -86.3 Q-171.5 -87.9 -167.2 -88.5 L-161.9 -89.2 Q-154.35 -89.4 -147.4 -86.9 -145.45 -86.25 -144.4 -84.45 L-143.95 -83.95 Q-137.65 -83.4 -131.7 -81.65 -126.35 -80.1 -122.65 -76.1 L-122.6 -76.05 Q-122.0 -75.85 -121.8 -75.15 L-121.85 -75.05 -121.95 -74.9 -122.05 -74.8 -122.1 -74.7 -122.15 -74.7 -122.4 -74.65 -122.6 -74.65 -122.95 -75.15 Q-128.25 -77.7 -133.95 -78.8 L-146.15 -79.35 -152.55 -79.15 Q-155.35 -79.2 -156.55 -81.3 L-156.6 -81.65 -156.6 -81.7 -156.3 -82.2 -156.1 -82.85 -156.15 -82.95 -156.25 -83.1 -156.3 -83.2 -156.35 -83.3 Q-162.2 -84.2 -168.0 -83.05 -171.85 -82.35 -175.55 -81.05 L-182.45 -78.7 -184.75 -77.85 Q-186.6 -77.1 -188.25 -77.8 -188.05 -79.0 -186.9 -79.7 L-184.7 -81.25 -184.65 -81.25 -183.65 -82.0 Q-180.55 -84.25 -177.05 -85.8 L-176.95 -85.9 M-175.25 -85.35 L-176.2 -85.25 -181.45 -82.2 -185.75 -79.45 -186.9 -78.5 Q-180.95 -79.8 -175.05 -82.0 -172.65 -82.9 -170.15 -83.45 L-159.8 -84.7 Q-156.3 -85.45 -155.35 -82.75 L-155.35 -82.1 -155.7 -81.3 Q-153.3 -79.6 -150.05 -80.05 -139.65 -81.35 -129.6 -78.6 -127.1 -77.95 -124.65 -76.95 -126.0 -78.15 -127.65 -78.95 -134.2 -82.25 -141.65 -82.6 -145.05 -82.75 -146.9 -85.6 L-147.5 -86.05 Q-155.45 -88.9 -164.05 -88.0 -169.85 -87.4 -175.2 -85.35 L-175.25 -85.35 M-205.3 -62.55 L-205.0 -62.1 -204.8 -61.35 -204.85 -60.95 -205.3 -60.2 -205.3 -60.1 -205.25 -59.85 -205.25 -59.65 -205.2 -59.6 -204.65 -59.0 Q-194.8 -58.45 -184.9 -58.5 L-181.7 -58.35 -175.5 -57.75 Q-171.8 -57.45 -168.2 -56.4 -162.45 -54.75 -157.15 -52.05 -156.2 -51.6 -155.35 -50.95 -154.8 -50.55 -154.9 -50.0 L-155.7 -50.15 -155.8 -50.1 -155.95 -50.05 -156.0 -50.0 -157.6 -50.5 Q-162.95 -52.75 -168.9 -53.45 L-174.25 -54.1 Q-188.85 -55.85 -202.9 -52.15 L-208.7 -50.55 Q-211.25 -49.75 -212.85 -51.45 L-213.2 -51.8 -213.2 -51.9 -213.2 -52.2 -213.2 -52.3 -213.2 -52.55 -213.2 -52.65 -213.2 -53.1 -213.2 -53.3 -215.5 -52.95 Q-221.55 -50.35 -226.7 -46.35 L-232.3 -41.4 Q-233.85 -39.9 -235.75 -38.95 L-235.95 -39.0 -236.3 -39.3 -236.35 -39.35 -236.5 -39.85 -236.2 -41.15 -235.75 -42.2 -235.65 -42.25 Q-234.85 -44.0 -233.55 -45.4 L-231.1 -48.15 Q-228.3 -51.5 -224.65 -53.9 -218.25 -58.1 -211.35 -61.35 -208.95 -62.5 -206.25 -62.6 L-205.5 -62.6 -205.3 -62.55 M-205.9 -61.55 Q-210.35 -61.5 -214.25 -59.1 L-216.55 -57.75 -221.25 -55.1 Q-225.35 -52.65 -228.8 -49.3 -232.4 -45.8 -234.8 -41.5 L-235.5 -40.15 Q-235.1 -40.2 -234.45 -40.7 -231.55 -43.05 -228.95 -45.7 L-226.35 -47.95 Q-220.8 -51.95 -214.4 -54.3 -213.25 -54.7 -212.4 -54.05 L-212.3 -53.95 -212.25 -53.65 -212.25 -53.55 -212.2 -53.3 -212.2 -53.2 -212.25 -52.5 -212.3 -52.25 -211.45 -51.6 Q-207.9 -51.0 -204.65 -52.5 -203.05 -53.25 -201.35 -53.65 -195.4 -55.05 -189.4 -55.5 L-174.5 -55.0 -170.35 -54.6 -163.15 -53.3 -161.25 -52.8 -163.05 -53.7 -163.4 -53.95 Q-168.45 -55.55 -173.7 -56.3 L-184.05 -57.45 Q-191.1 -57.95 -198.15 -57.55 -201.95 -57.35 -205.35 -58.6 -205.7 -58.75 -206.05 -59.05 L-206.25 -60.15 -205.9 -61.0 -205.85 -61.1 -205.85 -61.35 -205.9 -61.55 M-74.65 -88.65 Q-74.25 -92.7 -74.65 -96.7 L-74.6 -98.85 Q-74.4 -100.75 -72.65 -99.9 L-72.4 -99.9 -72.15 -100.0 -71.75 -100.4 -71.55 -101.4 Q-71.55 -102.15 -71.95 -102.8 L-72.85 -103.5 -73.3 -104.15 -74.55 -104.7 -75.5 -104.75 -75.8 -104.9 -76.1 -105.0 -76.15 -105.2 -76.15 -105.25 -76.6 -105.35 -76.7 -105.4 -76.9 -105.4 -78.65 -105.05 -79.0 -104.95 -79.2 -104.8 -79.3 -104.7 -79.5 -104.5 -79.55 -103.85 -79.55 -102.9 Q-77.2 -100.2 -77.15 -96.7 -77.15 -94.4 -75.95 -92.3 -75.0 -90.6 -74.8 -88.65 L-74.7 -88.2 -74.65 -88.65 M-80.15 -102.1 Q-81.55 -104.55 -79.1 -105.8 L-77.0 -106.4 Q-72.3 -106.05 -70.9 -101.8 -70.65 -101.0 -70.9 -100.25 -71.3 -99.15 -72.4 -98.8 L-73.0 -99.0 -73.55 -99.2 -73.5 -94.65 -73.4 -93.0 Q-73.3 -90.0 -74.2 -87.4 L-74.65 -87.05 Q-76.15 -87.7 -76.15 -89.65 -76.2 -91.3 -77.15 -92.75 -78.55 -94.95 -78.35 -97.5 -78.15 -99.3 -79.35 -100.75 L-80.15 -102.1 M-125.95 -56.35 Q-122.8 -54.65 -118.95 -54.1 L-117.4 -53.85 Q-111.15 -52.65 -104.75 -52.7 -110.65 -53.95 -114.6 -58.3 L-114.75 -58.75 -114.7 -59.3 -114.55 -59.5 -114.5 -59.6 -114.3 -59.85 -114.4 -59.9 Q-120.1 -61.75 -126.35 -61.9 L-127.35 -61.65 -127.55 -61.65 -127.35 -61.55 Q-125.4 -60.8 -124.0 -59.1 -123.75 -58.75 -123.85 -58.35 L-123.95 -58.15 -124.05 -58.05 -124.3 -57.7 -125.8 -56.8 -126.1 -56.45 -125.95 -56.35 M-111.5 -59.7 L-111.5 -59.65 -111.6 -59.45 -111.65 -59.35 -112.15 -59.25 -113.4 -59.15 -113.85 -58.95 -113.85 -58.85 -113.85 -58.65 -113.85 -58.55 -113.85 -58.45 -113.55 -58.1 Q-112.7 -57.25 -111.6 -56.7 L-111.2 -56.4 -110.95 -56.3 -110.75 -56.1 -110.7 -56.05 -110.6 -55.95 Q-108.6 -55.0 -106.5 -54.2 L-104.65 -53.6 -102.6 -52.9 -102.6 -52.8 -102.55 -52.6 -102.55 -52.5 -102.65 -52.2 Q-107.3 -51.2 -112.3 -51.95 -118.6 -52.95 -124.75 -54.45 -126.8 -54.95 -126.85 -56.65 -126.9 -57.2 -126.35 -57.45 -125.3 -57.95 -124.85 -58.8 -126.05 -60.1 -127.9 -60.8 -128.75 -61.1 -128.35 -61.8 -127.75 -63.0 -126.3 -62.9 -118.75 -62.6 -111.75 -60.0 L-111.5 -59.7 M-133.3 -38.4 L-133.15 -38.45 -132.4 -38.55 -132.3 -38.6 -132.0 -38.6 Q-130.65 -38.6 -129.65 -37.8 -129.35 -37.55 -129.5 -37.2 L-137.5 -32.6 Q-138.2 -32.25 -139.05 -32.25 L-139.2 -32.05 -139.3 -31.95 -139.45 -31.8 Q-138.05 -29.15 -134.75 -28.8 -130.25 -28.35 -126.05 -29.65 -122.25 -30.8 -118.45 -31.05 L-118.25 -30.85 -118.2 -30.75 -118.2 -30.6 -119.35 -29.75 Q-121.35 -28.45 -124.1 -28.15 -127.85 -25.2 -132.5 -23.9 -137.85 -22.4 -142.95 -23.95 L-143.3 -24.25 -143.65 -25.45 -143.7 -25.5 -143.85 -25.7 -144.05 -25.85 Q-150.6 -26.35 -155.85 -22.1 -158.4 -20.0 -161.5 -19.65 -161.85 -19.65 -162.1 -19.95 L-162.1 -20.35 -161.95 -21.0 Q-160.5 -23.7 -158.15 -25.75 -153.0 -30.2 -147.1 -33.3 L-148.35 -34.45 -148.35 -34.55 Q-146.85 -36.8 -143.7 -37.25 L-138.5 -37.95 -135.05 -38.2 -133.7 -38.35 -133.3 -38.4 M-133.1 -37.4 Q-136.2 -36.7 -139.4 -36.75 L-141.15 -36.6 Q-144.0 -36.05 -146.8 -35.1 L-146.85 -35.05 -147.1 -34.85 -147.2 -34.75 Q-145.25 -33.55 -147.05 -32.5 L-151.35 -29.65 -155.65 -26.6 Q-159.15 -24.2 -161.05 -20.55 -158.9 -21.0 -156.75 -22.7 -151.35 -27.0 -144.55 -26.75 -142.6 -26.65 -142.4 -24.65 L-142.2 -24.3 Q-135.8 -23.35 -129.9 -25.75 -127.4 -26.75 -125.2 -28.35 -124.3 -29.05 -123.2 -29.35 L-125.85 -28.85 Q-132.7 -26.35 -138.95 -29.65 -140.5 -30.45 -140.35 -32.2 -139.15 -33.55 -137.25 -34.0 -136.75 -34.15 -136.25 -34.4 L-130.75 -37.35 -133.1 -37.4 M-135.45 -0.2 L-135.5 -0.3 -135.5 -0.35 -135.5 -0.45 -135.5 -0.65 Q-132.4 -4.0 -128.65 -6.65 L-127.65 -7.45 Q-125.25 -9.85 -121.9 -10.0 L-120.35 -9.6 -120.3 -9.55 Q-120.0 -4.45 -124.75 -2.35 -127.55 -1.1 -130.55 -0.2 L-135.0 0.3 -135.2 0.1 -135.4 -0.1 -135.45 -0.2 M-134.35 -0.65 Q-129.25 -1.1 -124.45 -3.5 -122.7 -4.35 -121.9 -6.15 -121.3 -7.4 -121.1 -8.8 L-121.1 -8.85 -121.15 -8.9 -121.8 -9.0 Q-126.1 -8.65 -128.75 -5.25 L-129.85 -4.3 Q-132.35 -2.8 -134.35 -0.65 M-52.1 -78.65 L-51.9 -78.7 Q-47.05 -72.95 -47.05 -65.25 -47.1 -61.55 -48.6 -58.15 -51.9 -50.8 -46.8 -44.35 L-45.45 -42.15 Q-45.05 -41.4 -45.85 -40.95 -48.25 -41.65 -50.5 -43.0 -52.9 -44.5 -54.8 -46.6 -58.35 -50.65 -56.8 -55.8 L-55.8 -58.9 -51.8 -65.25 Q-51.35 -66.55 -51.25 -67.9 L-51.1 -68.45 -52.65 -74.95 Q-53.1 -76.55 -52.3 -78.0 L-52.3 -78.1 -52.35 -78.3 -52.35 -78.4 -52.1 -78.65 M-74.9 -58.05 L-74.5 -58.2 Q-72.2 -57.55 -70.35 -55.85 -69.8 -55.35 -69.75 -54.7 -69.65 -53.2 -71.15 -52.5 -73.9 -51.2 -74.8 -54.25 -75.3 -55.9 -75.4 -57.65 -75.2 -57.95 -74.9 -58.05 M-73.75 -53.95 L-72.9 -52.95 Q-71.3 -52.95 -70.45 -54.4 -71.85 -55.3 -72.95 -56.55 -73.6 -57.05 -74.3 -57.25 -74.4 -55.55 -73.8 -54.05 L-73.75 -53.95 M-50.45 -66.85 Q-51.45 -63.5 -53.45 -60.5 L-54.9 -58.45 Q-57.75 -53.05 -54.65 -48.05 -53.55 -46.35 -51.8 -45.2 -49.1 -43.45 -46.3 -41.95 -52.05 -47.95 -50.25 -55.85 L-49.15 -59.35 Q-46.45 -66.0 -49.4 -72.45 -50.4 -74.75 -51.8 -76.65 -51.55 -73.1 -50.5 -69.55 -50.05 -68.2 -50.45 -66.85 M-70.9 -6.3 L-70.9 -6.0 -71.05 -5.8 Q-70.7 -2.25 -72.5 1.15 -73.2 2.45 -72.8 3.85 L-72.6 4.15 -72.45 4.3 Q-70.1 4.0 -68.5 5.35 -68.25 5.55 -68.4 5.9 L-70.3 8.75 Q-73.5 12.45 -76.1 16.6 L-78.3 19.75 Q-79.65 21.55 -81.65 21.75 L-82.0 21.7 Q-82.9 18.8 -80.8 16.25 L-80.45 15.7 Q-78.4 11.2 -77.05 6.5 L-77.15 6.2 -77.15 5.95 Q-78.65 5.15 -79.3 3.7 -79.55 3.15 -79.2 2.6 -76.25 -2.2 -72.0 -5.95 L-71.95 -6.25 -71.9 -6.45 -71.65 -6.55 -71.5 -6.6 Q-71.15 -6.65 -70.95 -6.35 L-70.9 -6.3 M-71.95 -4.65 Q-76.15 -1.1 -78.4 3.65 L-78.4 3.9 Q-74.85 5.7 -76.65 9.5 L-80.7 17.9 -81.4 20.15 -81.3 20.9 Q-77.05 17.6 -74.35 12.7 -72.8 9.9 -70.55 7.5 L-69.2 5.7 Q-71.2 5.75 -73.0 4.8 -73.7 4.45 -73.75 3.7 -74.0 0.9 -72.55 -1.7 -71.75 -3.2 -71.95 -4.65 M-71.15 -10.95 Q-71.4 -11.8 -70.75 -12.4 -65.75 -16.95 -58.8 -18.05 L-51.15 -19.4 Q-49.6 -19.8 -48.55 -19.05 L-48.5 -19.05 -47.85 -18.7 -47.8 -18.65 -48.4 -18.45 -48.5 -18.4 -48.65 -18.35 -48.75 -18.35 -55.2 -16.75 Q-57.8 -16.25 -60.1 -14.9 L-61.4 -14.2 -62.45 -12.85 -62.55 -12.7 Q-60.6 -10.75 -57.5 -10.6 L-52.85 -10.45 Q-49.15 -10.35 -45.75 -9.3 L-45.3 -8.9 Q-33.2 -6.05 -20.7 -5.95 L-17.65 -5.75 Q-11.35 -4.85 -5.45 -5.75 L-5.35 -5.45 -5.4 -5.3 Q-6.85 -4.55 -8.35 -4.25 L-8.45 -4.15 Q-21.45 -2.6 -34.6 -3.8 L-38.05 -4.05 Q-41.95 -4.35 -45.9 -3.95 -52.6 -3.25 -58.3 -6.1 L-58.45 -6.45 -58.4 -6.65 Q-62.45 -7.6 -66.9 -7.95 -70.3 -8.2 -71.15 -10.95 M-17.65 -4.9 L-33.6 -6.1 Q-39.65 -6.6 -45.5 -8.0 -46.1 -8.15 -46.3 -8.7 L-58.1 -9.8 Q-60.85 -10.05 -62.9 -11.8 -63.95 -12.75 -62.95 -13.75 -60.5 -16.2 -57.25 -17.3 L-62.05 -16.2 Q-65.2 -15.35 -67.9 -13.7 -69.85 -12.55 -70.45 -10.65 -66.8 -8.25 -62.2 -8.35 -59.65 -8.35 -57.45 -7.4 L-57.45 -7.3 -57.4 -7.0 -57.45 -6.35 Q-49.9 -3.85 -41.85 -5.1 L-35.55 -4.95 -32.8 -4.55 Q-25.2 -3.95 -17.6 -4.35 L-14.75 -4.55 -17.65 -4.9 M-7.6 -22.0 L-7.5 -21.9 -7.5 -21.6 -7.55 -21.45 Q-6.7 -18.5 -5.0 -16.1 L-4.9 -15.9 Q-5.55 -13.8 -8.05 -13.4 L-9.95 -13.25 Q-14.1 -13.2 -16.6 -15.95 L-16.2 -16.5 -16.1 -16.55 -15.0 -16.7 -11.6 -18.9 -10.55 -19.5 Q-9.35 -20.1 -8.65 -21.3 L-8.65 -21.6 -8.7 -21.75 Q-8.4 -22.2 -7.9 -22.15 L-7.6 -22.0 M-13.1 -16.85 L-15.0 -15.55 Q-10.45 -13.1 -5.95 -15.5 L-7.2 -18.3 -8.3 -20.25 Q-9.9 -18.5 -12.1 -17.45 L-13.1 -16.85 M-40.95 4.15 L-41.1 3.85 -41.2 3.6 -41.1 3.3 -40.75 3.15 Q-39.75 3.6 -39.1 4.7 L-39.05 4.8 Q-37.3 10.6 -42.4 14.3 L-42.55 14.4 -43.45 14.4 Q-44.8 12.25 -43.25 9.85 L-42.9 9.5 -42.85 9.4 -42.8 9.2 -42.8 9.15 Q-40.95 7.15 -40.95 4.55 L-40.95 4.15 M-41.95 9.9 Q-43.3 11.4 -43.05 13.35 -40.6 12.1 -39.75 9.35 -39.0 7.1 -40.05 5.2 -40.25 7.6 -41.85 9.5 L-41.9 9.6 -41.95 9.9" fill="#389cff" fill-rule="evenodd" stroke="none"/>
      <path d="M17.85 -78.9 L18.0 -79.2 18.05 -79.3 18.05 -79.4 18.05 -79.5 18.05 -79.6 18.15 -79.7 18.2 -79.8 18.3 -79.85 18.35 -80.35 18.5 -80.7 18.55 -80.9 18.55 -81.0 18.55 -81.1 18.65 -81.2 18.7 -81.3 18.8 -81.35 19.8 -83.65 Q22.15 -87.9 25.2 -91.7 28.55 -95.8 33.35 -97.85 36.35 -98.3 38.6 -100.25 41.4 -102.65 44.6 -104.4 L46.85 -105.55 Q51.6 -107.75 56.9 -107.85 60.5 -108.2 63.7 -106.7 L63.75 -106.6 64.05 -106.3 64.15 -106.2 64.2 -106.1 64.2 -106.0 64.2 -105.95 Q62.9 -104.9 61.1 -104.75 L59.15 -104.45 Q53.2 -103.15 47.7 -100.65 44.9 -99.35 43.6 -96.55 L42.45 -94.6 Q41.5 -93.2 40.05 -92.2 38.5 -91.1 36.9 -91.55 L37.55 -92.65 Q38.2 -93.35 38.3 -94.25 L38.3 -94.8 38.2 -94.9 38.0 -95.2 37.9 -95.3 37.8 -95.35 37.7 -95.45 37.55 -95.55 Q31.95 -94.8 27.55 -91.05 24.45 -88.4 22.1 -85.15 L17.9 -78.85 17.85 -78.9 M35.3 -60.1 L35.15 -59.85 35.05 -59.75 35.05 -59.65 35.05 -59.45 35.05 -59.3 35.05 -59.2 35.05 -59.1 Q35.35 -58.65 35.8 -58.8 L44.5 -60.75 50.65 -60.7 Q52.6 -60.55 53.55 -59.25 52.8 -58.45 51.55 -58.35 42.55 -57.6 33.85 -55.1 27.4 -53.25 21.9 -50.2 L25.5 -54.2 Q29.75 -58.6 35.3 -60.2 L35.3 -60.1 M4.6 -81.15 L4.7 -81.5 Q6.35 -86.45 11.1 -88.85 L11.35 -88.95 11.8 -89.1 Q12.1 -89.2 12.2 -88.9 L12.4 -88.45 Q11.7 -87.1 10.8 -85.9 L9.8 -84.95 Q7.1 -83.3 4.95 -81.05 L4.6 -81.15 M16.6 -16.1 Q16.65 -15.8 16.85 -15.65 20.05 -12.95 24.55 -13.7 14.9 -9.55 4.25 -11.7 7.0 -11.75 9.3 -13.25 10.75 -14.2 10.95 -15.9 L11.1 -16.0 Q12.35 -16.7 13.8 -16.9 15.45 -17.15 16.6 -16.1 M22.5 -6.85 L22.95 -6.8 Q28.7 -5.95 34.05 -7.7 36.75 -8.6 39.45 -7.75 L41.35 -7.55 Q48.75 -7.9 56.05 -9.55 L56.1 -9.5 55.7 -9.0 Q49.65 -6.6 43.05 -6.25 L39.1 -5.7 Q34.55 -4.5 29.9 -3.9 20.55 -2.7 12.0 -5.95 L22.5 -6.85 M107.25 -21.7 L101.65 -24.3 Q92.25 -28.65 81.85 -27.5 L78.5 -26.95 Q75.85 -26.4 74.2 -28.1 74.7 -30.3 72.25 -31.1 68.4 -32.3 64.25 -31.65 L61.55 -31.3 61.55 -31.4 Q66.9 -35.7 73.55 -36.95 L74.25 -37.0 74.9 -36.55 74.85 -36.4 74.25 -35.3 Q73.6 -33.2 76.0 -33.1 L85.35 -32.25 Q91.35 -31.55 96.9 -29.2 L99.75 -28.05 Q104.7 -26.1 107.6 -21.95 L107.25 -21.7 M110.5 -82.05 L112.85 -82.4 122.2 -82.35 122.45 -82.35 Q128.05 -81.95 133.5 -80.45 139.0 -78.95 143.6 -75.85 L142.05 -75.65 136.65 -77.15 Q131.55 -78.55 126.4 -78.25 L126.25 -78.05 126.15 -77.85 126.15 -77.75 126.15 -77.5 124.3 -77.4 Q123.45 -77.7 122.7 -78.1 116.95 -81.45 110.5 -81.9 L110.5 -82.05 M61.0 -14.45 L61.0 -14.55 Q63.3 -16.65 60.95 -18.5 L64.05 -18.0 64.1 -17.95 64.3 -17.75 Q66.6 -17.25 67.55 -15.3 L67.4 -15.15 66.8 -14.35 66.4 -14.2 61.75 -13.95 Q61.1 -14.05 61.0 -14.45 M134.4 -55.9 L137.6 -55.95 138.0 -56.0 140.4 -55.95 Q144.15 -55.75 147.15 -53.7 L147.15 -53.45 147.25 -53.05 147.25 -52.95 147.25 -52.8 Q147.95 -52.1 148.85 -51.85 152.8 -50.8 156.45 -49.2 160.6 -47.35 164.5 -45.0 166.75 -43.65 168.7 -41.95 173.35 -37.95 176.6 -32.85 178.2 -30.3 178.4 -27.3 177.75 -26.95 177.1 -27.3 L176.9 -27.4 176.65 -27.55 Q175.65 -30.65 173.65 -33.3 L172.2 -35.35 Q169.6 -39.55 165.05 -41.4 162.3 -42.55 159.3 -42.9 155.9 -43.35 152.65 -44.2 151.15 -44.55 150.2 -45.8 L149.45 -47.0 Q147.95 -49.9 145.05 -51.8 140.1 -55.05 134.4 -55.9 M83.55 -7.2 L83.6 -7.3 85.3 -7.4 Q87.8 -7.1 89.85 -5.65 L91.25 -4.25 Q92.15 -3.45 92.05 -2.35 L91.05 -2.45 Q86.8 -4.0 83.55 -7.2 M148.8 -6.3 L148.8 -6.4 Q148.65 -9.05 146.8 -10.9 152.35 -8.9 155.9 -3.95 L156.05 -3.55 Q156.4 -2.9 156.05 -2.25 151.2 -2.05 148.8 -6.3 M179.2 -7.75 L179.15 -7.75 Q173.1 -9.75 171.65 -15.95 174.65 -14.95 176.65 -12.25 176.6 -11.95 176.85 -11.75 178.75 -10.1 179.2 -7.75 M-175.25 -85.35 L-175.2 -85.35 Q-169.85 -87.4 -164.05 -88.0 -155.45 -88.9 -147.5 -86.05 L-146.9 -85.6 Q-145.05 -82.75 -141.65 -82.6 -134.2 -82.25 -127.65 -78.95 -126.0 -78.15 -124.65 -76.95 -127.1 -77.95 -129.6 -78.6 -139.65 -81.35 -150.05 -80.05 -153.3 -79.6 -155.7 -81.3 L-155.35 -82.1 -155.35 -82.75 Q-156.3 -85.45 -159.8 -84.7 L-170.15 -83.45 Q-172.65 -82.9 -175.05 -82.0 -180.95 -79.8 -186.9 -78.5 L-185.75 -79.45 -181.45 -82.2 -176.2 -85.25 -175.25 -85.35 M-163.15 -53.3 L-170.35 -54.6 -174.5 -55.0 -189.4 -55.5 Q-195.4 -55.05 -201.35 -53.65 -203.05 -53.25 -204.65 -52.5 -207.9 -51.0 -211.45 -51.6 L-212.3 -52.25 -212.25 -52.5 -212.2 -53.2 -212.2 -53.3 -212.25 -53.55 -212.25 -53.65 -212.3 -53.95 -212.4 -54.05 Q-213.25 -54.7 -214.4 -54.3 -220.8 -51.95 -226.35 -47.95 L-228.95 -45.7 Q-231.55 -43.05 -234.45 -40.7 -235.1 -40.2 -235.5 -40.15 L-234.8 -41.5 Q-232.4 -45.8 -228.8 -49.3 -225.35 -52.65 -221.25 -55.1 L-216.55 -57.75 -214.25 -59.1 Q-210.35 -61.5 -205.9 -61.55 L-205.85 -61.1 -205.9 -61.0 -206.25 -60.15 -206.05 -59.05 Q-205.7 -58.75 -205.35 -58.6 -201.95 -57.35 -198.15 -57.55 -191.1 -57.95 -184.05 -57.45 L-173.7 -56.3 Q-168.45 -55.55 -163.4 -53.95 L-163.05 -53.7 -163.15 -53.3 M-74.8 -88.65 Q-75.0 -90.6 -75.95 -92.3 -77.15 -94.4 -77.15 -96.7 -77.2 -100.2 -79.55 -102.9 L-79.55 -103.85 -79.5 -104.5 -79.3 -104.7 -79.2 -104.8 -79.0 -104.95 -78.65 -105.05 -76.9 -105.4 -76.7 -105.4 -76.6 -105.35 -76.15 -105.25 -76.15 -105.2 -76.1 -105.0 -75.8 -104.9 -75.5 -104.75 -74.55 -104.7 -73.3 -104.15 -72.85 -103.5 -71.95 -102.8 Q-71.55 -102.15 -71.55 -101.4 L-71.75 -100.4 -72.15 -100.0 -72.4 -99.9 -72.65 -99.9 Q-74.4 -100.75 -74.6 -98.85 L-74.65 -96.7 Q-74.25 -92.7 -74.65 -88.65 L-74.8 -88.65 M-114.5 -59.6 L-114.55 -59.5 -114.7 -59.3 -114.75 -58.75 -114.6 -58.3 Q-110.65 -53.95 -104.75 -52.7 -111.15 -52.65 -117.4 -53.85 L-118.95 -54.1 Q-122.8 -54.65 -125.95 -56.35 L-125.8 -56.8 -124.3 -57.7 -124.05 -58.05 -123.95 -58.15 -123.85 -58.35 Q-123.75 -58.75 -124.0 -59.1 -125.4 -60.8 -127.35 -61.55 L-127.35 -61.65 -126.35 -61.9 Q-120.1 -61.75 -114.4 -59.9 L-114.5 -59.6 M-133.1 -37.4 L-130.75 -37.35 -136.25 -34.4 Q-136.75 -34.15 -137.25 -34.0 -139.15 -33.55 -140.35 -32.2 -140.5 -30.45 -138.95 -29.65 -132.7 -26.35 -125.85 -28.85 L-123.2 -29.35 Q-124.3 -29.05 -125.2 -28.35 -127.4 -26.75 -129.9 -25.75 -135.8 -23.35 -142.2 -24.3 L-142.4 -24.65 Q-142.6 -26.65 -144.55 -26.75 -151.35 -27.0 -156.75 -22.7 -158.9 -21.0 -161.05 -20.55 -159.15 -24.2 -155.65 -26.6 L-151.35 -29.65 -147.05 -32.5 Q-145.25 -33.55 -147.2 -34.75 L-147.1 -34.85 -146.85 -35.05 -146.8 -35.1 Q-144.0 -36.05 -141.15 -36.6 L-139.4 -36.75 Q-136.2 -36.7 -133.1 -37.4 M-134.35 -0.65 Q-132.35 -2.8 -129.85 -4.3 L-128.75 -5.25 Q-126.1 -8.65 -121.8 -9.0 L-121.15 -8.9 -121.1 -8.85 -121.1 -8.8 Q-121.3 -7.4 -121.9 -6.15 -122.7 -4.35 -124.45 -3.5 -129.25 -1.1 -134.35 -0.65 M-50.45 -66.85 Q-50.05 -68.2 -50.5 -69.55 -51.55 -73.1 -51.8 -76.65 -50.4 -74.75 -49.4 -72.45 -46.45 -66.0 -49.15 -59.35 L-50.25 -55.85 Q-52.05 -47.95 -46.3 -41.95 -49.1 -43.45 -51.8 -45.2 -53.55 -46.35 -54.65 -48.05 -57.75 -53.05 -54.9 -58.45 L-53.45 -60.5 Q-51.45 -63.5 -50.45 -66.85 M-73.75 -53.95 L-73.8 -54.05 Q-74.4 -55.55 -74.3 -57.25 -73.6 -57.05 -72.95 -56.55 -71.85 -55.3 -70.45 -54.4 -71.3 -52.95 -72.9 -52.95 L-73.75 -53.95 M-71.95 -4.65 Q-71.75 -3.2 -72.55 -1.7 -74.0 0.9 -73.75 3.7 -73.7 4.45 -73.0 4.8 -71.2 5.75 -69.2 5.7 L-70.55 7.5 Q-72.8 9.9 -74.35 12.7 -77.05 17.6 -81.3 20.9 L-81.4 20.15 -80.7 17.9 -76.65 9.5 Q-74.85 5.7 -78.4 3.9 L-78.4 3.65 Q-76.15 -1.1 -71.95 -4.65 M-17.6 -4.35 Q-25.2 -3.95 -32.8 -4.55 L-35.55 -4.95 -41.85 -5.1 Q-49.9 -3.85 -57.45 -6.35 L-57.4 -7.0 -57.45 -7.3 -57.45 -7.4 Q-59.65 -8.35 -62.2 -8.35 -66.8 -8.25 -70.45 -10.65 -69.85 -12.55 -67.9 -13.7 -65.2 -15.35 -62.05 -16.2 L-57.25 -17.3 Q-60.5 -16.2 -62.95 -13.75 -63.95 -12.75 -62.9 -11.8 -60.85 -10.05 -58.1 -9.8 L-46.3 -8.7 Q-46.1 -8.15 -45.5 -8.0 -39.65 -6.6 -33.6 -6.1 L-17.65 -4.9 -17.6 -4.35 M-13.1 -16.85 L-12.1 -17.45 Q-9.9 -18.5 -8.3 -20.25 L-7.2 -18.3 -5.95 -15.5 Q-10.45 -13.1 -15.0 -15.55 L-13.1 -16.85 M-41.95 9.9 L-41.9 9.6 -41.85 9.5 Q-40.25 7.6 -40.05 5.2 -39.0 7.1 -39.75 9.35 -40.6 12.1 -43.05 13.35 -43.3 11.4 -41.95 9.9" fill="#dfefff" fill-rule="evenodd" stroke="none"/>
    </g>
  </defs>
</svg>
