<?xml version="1.0" encoding="UTF-8" standalone="no"?>
<svg xmlns:xlink="http://www.w3.org/1999/xlink" height="11.0px" width="25.75px" xmlns="http://www.w3.org/2000/svg">
  <g transform="matrix(1.0, 0.0, 0.0, 1.0, -8.5, 4.0)">
    <use height="11.0" transform="matrix(1.0, 0.0, 0.0, 1.0, 8.5, -4.0)" width="25.75" xlink:href="#shape0"/>
  </g>
  <defs>
    <g id="shape0" transform="matrix(1.0, 0.0, 0.0, 1.0, -8.5, 4.0)">
      <path d="M14.7 -1.75 L16.1 -1.75 16.1 -4.0 17.3 -4.0 17.3 -1.75 19.25 -1.75 19.25 -0.8 17.3 -0.8 17.3 3.0 17.55 3.65 18.35 3.9 Q19.15 3.9 19.8 3.5 L19.8 4.6 18.4 4.95 Q17.2 4.95 16.7 4.4 16.1 3.85 16.1 3.15 L16.1 -0.8 14.7 -0.8 14.7 -1.75 M11.15 -0.85 L10.2 -0.5 Q9.9 -0.2 9.9 0.15 L10.1 0.55 Q10.3 0.8 11.55 1.05 L12.85 1.45 Q13.3 1.6 13.55 1.85 14.0 2.3 14.0 2.95 14.0 3.65 13.45 4.25 12.7 4.95 11.25 4.95 9.8 4.95 9.1 4.25 8.5 3.65 8.5 2.75 L9.7 2.75 Q9.75 3.3 9.95 3.55 10.4 3.95 11.2 3.95 L12.55 3.6 12.8 3.0 12.5 2.5 11.75 2.15 10.15 1.7 Q9.5 1.55 9.2 1.25 8.7 0.7 8.7 0.15 8.7 -0.6 9.2 -1.15 9.9 -1.85 11.2 -1.85 12.6 -1.85 13.25 -1.2 13.85 -0.6 13.85 0.1 L12.65 0.1 12.45 -0.5 Q12.1 -0.85 11.15 -0.85 M23.75 -0.8 Q23.05 -0.8 22.6 -0.35 21.9 0.35 21.9 1.55 21.9 2.7 22.55 3.35 23.05 3.9 23.75 3.9 24.45 3.9 25.0 3.35 25.65 2.7 25.65 1.55 25.65 0.35 24.95 -0.35 24.45 -0.8 23.75 -0.8 M23.75 -1.85 Q25.05 -1.85 25.95 -1.0 26.9 0.0 26.9 1.55 26.9 3.05 25.95 4.05 25.05 4.95 23.75 4.95 22.45 4.95 21.6 4.05 20.6 3.05 20.6 1.55 20.6 0.0 21.6 -1.0 22.45 -1.85 23.75 -1.85 M29.5 -1.75 L29.5 -1.0 Q30.2 -1.85 31.3 -1.85 32.55 -1.85 33.3 -1.1 34.25 -0.15 34.25 1.55 34.25 3.3 33.3 4.25 32.55 5.0 31.3 5.0 30.05 5.0 29.5 4.05 L29.5 7.0 28.3 7.0 28.3 -1.75 29.5 -1.75 M31.3 -0.8 Q30.6 -0.8 30.05 -0.25 29.5 0.3 29.5 1.15 L29.5 1.95 Q29.5 2.75 30.15 3.4 30.65 3.95 31.3 3.95 31.9 3.95 32.3 3.55 32.95 2.9 32.95 1.55 32.95 0.25 32.35 -0.35 31.9 -0.8 31.3 -0.8" fill="#041c43" fill-rule="evenodd" stroke="none"/>
    </g>
  </defs>
</svg>
