<?xml version="1.0" encoding="UTF-8" standalone="no"?>
<svg xmlns:xlink="http://www.w3.org/1999/xlink" height="37.75px" width="78.7px" xmlns="http://www.w3.org/2000/svg">
  <g transform="matrix(1.0, 0.0, 0.0, 1.0, 39.8, 21.1)">
    <use height="33.3" transform="matrix(1.0, 0.0, 0.0, 1.0, -38.8, -16.65)" width="77.65" xlink:href="#shape0"/>
  </g>
  <defs>
    <g id="shape0" transform="matrix(1.0, 0.0, 0.0, 1.0, 38.8, 16.65)">
      <path d="M35.45 0.8 L37.3 -1.8 37.65 -2.55 Q36.25 -4.8 33.35 -5.1 L22.45 -6.35 20.6 -6.7 15.7 -7.8 7.7 -10.25 Q1.15 -12.35 -5.2 -14.9 L-6.5 -15.45 Q-8.4 -14.5 -10.65 -14.05 L-12.7 -13.4 Q-19.4 -10.6 -25.65 -6.8 -29.4 -4.55 -32.1 -1.15 -34.7 2.15 -36.3 5.95 -37.35 9.6 -37.25 13.35 L-37.2 13.5 -37.2 13.55 -37.2 13.5 Q-25.95 15.2 -18.05 7.25 L-16.6 5.85 -16.35 5.95 -16.2 6.0 -17.55 8.15 -19.5 10.35 Q-21.15 11.8 -23.3 12.9 -27.35 14.9 -31.65 15.25 -21.15 16.15 -11.75 10.3 -6.95 7.3 -3.2 3.0 -1.7 1.25 0.0 0.05 0.3 0.05 0.4 0.3 L0.45 0.35 -0.6 2.35 Q5.9 4.45 12.8 5.05 L20.7 5.5 28.45 4.65 30.55 4.1 Q33.45 2.95 35.45 0.8 M13.45 -9.8 L18.65 -8.55 Q25.75 -7.0 33.0 -6.5 37.2 -6.2 38.75 -2.75 39.0 -2.2 38.75 -1.65 L37.5 0.45 Q35.5 3.15 32.25 4.7 26.5 7.4 20.2 6.7 10.3 6.75 0.8 4.15 L-1.35 3.3 -2.45 4.35 -6.1 7.65 Q-12.0 12.9 -19.45 15.2 -26.45 17.35 -33.8 16.35 -36.4 16.0 -38.3 14.55 L-38.2 14.25 -38.35 14.05 Q-39.05 12.9 -38.7 11.05 L-38.4 9.15 Q-38.1 6.9 -37.15 4.9 -36.4 2.35 -34.75 0.15 -31.75 -3.85 -27.75 -6.9 -25.6 -8.55 -23.25 -9.9 -17.5 -13.1 -11.25 -15.1 L-7.0 -16.25 -6.7 -16.45 -6.1 -16.65 Q-0.05 -14.65 5.85 -12.25 9.55 -10.75 13.45 -9.8" fill="#000000" fill-rule="evenodd" stroke="none"/>
      <path d="M-37.25 13.35 L-37.2 13.5 -37.25 13.35 M-17.55 8.15 L-16.9 8.55 Q-18.15 9.55 -19.5 10.35 L-17.55 8.15" fill="#0ecfe4" fill-rule="evenodd" stroke="none"/>
      <path d="M-37.25 13.35 Q-37.35 9.6 -36.3 5.95 -34.7 2.15 -32.1 -1.15 -29.4 -4.55 -25.65 -6.8 -19.4 -10.6 -12.7 -13.4 L-10.65 -14.05 Q-8.4 -14.5 -6.5 -15.45 L-5.2 -14.9 Q1.15 -12.35 7.7 -10.25 L15.7 -7.8 20.6 -6.7 22.45 -6.35 33.35 -5.1 Q36.25 -4.8 37.65 -2.55 L37.3 -1.8 35.45 0.8 34.05 1.2 32.3 1.55 24.05 1.75 21.3 1.6 15.8 0.85 13.05 0.4 7.8 -0.7 Q3.35 -1.8 -0.7 -3.75 L-2.75 -4.65 Q-5.05 -5.6 -7.45 -5.1 L-8.3 -4.75 -9.7 -3.0 -10.7 -0.5 -11.1 0.1 Q-12.25 1.3 -12.95 2.75 L-13.25 3.2 -13.85 4.05 -15.7 7.25 -16.9 8.55 -17.55 8.15 -16.2 6.0 -16.35 5.95 -16.6 5.85 -18.05 7.25 Q-25.95 15.2 -37.2 13.5 L-37.25 13.35" fill="#55bb65" fill-rule="evenodd" stroke="none"/>
      <path d="M-16.9 8.55 L-15.7 7.25 -13.85 4.05 -13.25 3.2 -12.95 2.75 Q-12.25 1.3 -11.1 0.1 L-10.7 -0.5 -9.7 -3.0 -8.3 -4.75 -7.45 -5.1 Q-5.05 -5.6 -2.75 -4.65 L-0.7 -3.75 Q3.35 -1.8 7.8 -0.7 L13.05 0.4 15.8 0.85 21.3 1.6 24.05 1.75 32.3 1.55 34.05 1.2 35.45 0.8 Q33.45 2.95 30.55 4.1 L28.45 4.65 20.7 5.5 12.8 5.05 Q5.9 4.45 -0.6 2.35 L0.45 0.35 0.4 0.3 Q0.3 0.05 0.0 0.05 -1.7 1.25 -3.2 3.0 -6.95 7.3 -11.75 10.3 -21.15 16.15 -31.65 15.25 -27.35 14.9 -23.3 12.9 -21.15 11.8 -19.5 10.35 -18.15 9.55 -16.9 8.55" fill="#43a752" fill-rule="evenodd" stroke="none"/>
    </g>
  </defs>
</svg>
