<?xml version="1.0" encoding="UTF-8" standalone="no"?>
<svg xmlns:xlink="http://www.w3.org/1999/xlink" height="25.35px" width="103.05px" xmlns="http://www.w3.org/2000/svg">
  <g transform="matrix(1.0, 0.0, 0.0, 1.0, 2.0, 2.0)">
    <use height="25.35" transform="matrix(1.0, 0.0, 0.0, 1.0, -2.0, -2.0)" width="103.05" xlink:href="#shape0"/>
  </g>
  <defs>
    <g id="shape0" transform="matrix(1.0, 0.0, 0.0, 1.0, 2.0, 2.0)">
      <path d="M10.05 7.1 L10.0 9.95 10.05 11.45 4.45 12.95 4.45 14.55 4.9 15.0 6.65 14.5 Q8.05 14.0 8.45 14.0 L9.55 14.0 9.55 17.15 1.4 20.4 Q1.1 18.75 0.55 11.45 L0.0 3.95 0.0 2.2 9.0 2.2 8.9 5.1 2.9 6.3 2.9 7.7 3.2 8.15 3.65 8.3 5.95 7.9 10.05 7.1" fill="#000000" fill-rule="evenodd" stroke="none"/>
      <path d="M10.05 7.1 L10.0 9.95 10.05 11.45 4.45 12.95 4.45 14.55 4.9 15.0 6.65 14.5 Q8.05 14.0 8.45 14.0 L9.55 14.0 9.55 17.15 1.4 20.4 Q1.1 18.75 0.55 11.45 L0.0 3.95 0.0 2.2 9.0 2.2 8.9 5.1 2.9 6.3 2.9 7.7 3.2 8.15 3.65 8.3 5.95 7.9 10.05 7.1 Z" fill="none" stroke="#000000" stroke-linecap="round" stroke-linejoin="round" stroke-width="4.0"/>
      <path d="M19.7 1.1 L22.7 0.0 22.7 18.65 20.45 19.95 13.7 13.05 Q13.6 15.65 14.2 17.6 L14.2 18.45 12.45 19.75 11.05 20.7 Q10.75 20.75 10.55 18.15 L9.95 5.45 Q12.9 3.65 13.6 3.65 13.85 3.65 15.55 6.65 17.45 9.95 18.25 10.85 L19.7 1.1" fill="#000000" fill-rule="evenodd" stroke="none"/>
      <path d="M19.7 1.1 L22.7 0.0 22.7 18.65 20.45 19.95 13.7 13.05 Q13.6 15.65 14.2 17.6 L14.2 18.45 12.45 19.75 11.05 20.7 Q10.75 20.75 10.55 18.15 L9.95 5.45 Q12.9 3.65 13.6 3.65 13.85 3.65 15.55 6.65 17.45 9.95 18.25 10.85 L19.7 1.1 Z" fill="none" stroke="#000000" stroke-linecap="round" stroke-linejoin="round" stroke-width="4.0"/>
      <path d="M35.9 10.35 Q35.9 15.65 32.3 18.25 29.8 20.15 26.85 20.15 L25.35 20.1 23.85 20.05 23.7 5.9 23.35 4.9 24.8 4.45 26.75 4.1 26.9 5.6 Q26.95 6.55 27.25 6.55 L28.8 5.9 30.4 5.3 Q32.2 5.3 33.7 6.2 35.9 7.55 35.9 10.35 M30.65 10.0 L29.5 10.3 28.3 10.85 28.75 13.25 29.15 15.65 31.05 13.95 Q32.35 12.5 32.35 11.35 32.35 10.45 31.7 10.15 L30.65 10.0" fill="#000000" fill-rule="evenodd" stroke="none"/>
      <path d="M35.9 10.35 Q35.9 15.65 32.3 18.25 29.8 20.15 26.85 20.15 L25.35 20.1 23.85 20.05 23.7 5.9 23.35 4.9 24.8 4.45 26.75 4.1 26.9 5.6 Q26.95 6.55 27.25 6.55 L28.8 5.9 30.4 5.3 Q32.2 5.3 33.7 6.2 35.9 7.55 35.9 10.35 M30.65 10.0 L29.5 10.3 28.3 10.85 28.75 13.25 29.15 15.65 31.05 13.95 Q32.35 12.5 32.35 11.35 32.35 10.45 31.7 10.15 L30.65 10.0" fill="none" stroke="#000000" stroke-linecap="round" stroke-linejoin="round" stroke-width="4.0"/>
      <path d="M59.45 12.4 L57.9 13.15 58.85 16.05 Q57.55 17.7 56.3 18.55 L54.7 19.35 53.05 19.85 Q50.85 19.85 49.25 18.9 46.8 17.4 46.8 14.2 L47.0 11.8 Q47.35 9.5 49.75 7.3 51.95 5.3 53.2 5.3 L56.15 5.3 56.25 6.0 56.0 8.25 Q55.85 8.1 55.45 8.1 54.1 8.05 52.3 9.55 50.35 11.15 50.35 12.9 50.35 13.75 50.95 14.25 51.4 14.65 51.85 14.7 L52.95 14.7 52.95 11.5 Q54.95 10.55 59.1 9.55 59.1 10.5 59.45 12.4" fill="#000000" fill-rule="evenodd" stroke="none"/>
      <path d="M59.45 12.4 L57.9 13.15 58.85 16.05 Q57.55 17.7 56.3 18.55 L54.7 19.35 53.05 19.85 Q50.85 19.85 49.25 18.9 46.8 17.4 46.8 14.2 L47.0 11.8 Q47.35 9.5 49.75 7.3 51.95 5.3 53.2 5.3 L56.15 5.3 56.25 6.0 56.0 8.25 Q55.85 8.1 55.45 8.1 54.1 8.05 52.3 9.55 50.35 11.15 50.35 12.9 50.35 13.75 50.95 14.25 51.4 14.65 51.85 14.7 L52.95 14.7 52.95 11.5 Q54.95 10.55 59.1 9.55 59.1 10.5 59.45 12.4 Z" fill="none" stroke="#000000" stroke-linecap="round" stroke-linejoin="round" stroke-width="4.0"/>
      <path d="M66.3 11.1 Q65.8 9.5 65.0 8.2 L64.2 11.4 66.3 11.1 M67.35 5.2 L69.35 8.8 72.8 17.5 70.35 19.4 68.65 20.55 Q68.4 20.55 67.65 18.7 L66.4 15.85 64.0 16.15 Q62.6 16.4 61.95 16.95 L61.25 18.45 Q60.85 19.6 60.6 19.55 L59.65 19.15 Q58.7 18.65 58.3 18.5 L64.1 2.65 65.25 2.3 Q65.6 2.3 67.35 5.2" fill="#000000" fill-rule="evenodd" stroke="none"/>
      <path d="M66.3 11.1 Q65.8 9.5 65.0 8.2 L64.2 11.4 66.3 11.1 M67.35 5.2 L69.35 8.8 72.8 17.5 70.35 19.4 68.65 20.55 Q68.4 20.55 67.65 18.7 L66.4 15.85 64.0 16.15 Q62.6 16.4 61.95 16.95 L61.25 18.45 Q60.85 19.6 60.6 19.55 L59.65 19.15 Q58.7 18.65 58.3 18.5 L64.1 2.65 65.25 2.3 Q65.6 2.3 67.35 5.2" fill="none" stroke="#000000" stroke-linecap="round" stroke-linejoin="round" stroke-width="4.0"/>
      <path d="M88.75 12.6 L89.1 16.1 89.35 18.75 89.35 20.1 87.45 20.4 85.85 20.85 85.1 16.3 84.35 11.75 Q83.05 15.25 82.4 20.6 L81.25 21.05 80.25 21.35 Q80.0 21.35 79.55 21.0 L77.8 16.4 75.85 11.5 Q75.55 12.25 75.5 14.1 L75.5 17.3 75.3 19.05 75.15 20.85 74.5 20.85 73.15 20.6 Q72.4 20.35 71.95 20.1 L73.85 3.95 74.75 3.3 75.7 2.6 79.85 12.2 83.5 1.4 84.2 1.3 Q84.95 1.3 88.4 2.4 88.4 5.45 88.75 12.6" fill="#000000" fill-rule="evenodd" stroke="none"/>
      <path d="M88.75 12.6 L89.1 16.1 89.35 18.75 89.35 20.1 87.45 20.4 85.85 20.85 85.1 16.3 84.35 11.75 Q83.05 15.25 82.4 20.6 L81.25 21.05 80.25 21.35 Q80.0 21.35 79.55 21.0 L77.8 16.4 75.85 11.5 Q75.55 12.25 75.5 14.1 L75.5 17.3 75.3 19.05 75.15 20.85 74.5 20.85 73.15 20.6 Q72.4 20.35 71.95 20.1 L73.85 3.95 74.75 3.3 75.7 2.6 79.85 12.2 83.5 1.4 84.2 1.3 Q84.95 1.3 88.4 2.4 88.4 5.45 88.75 12.6 Z" fill="none" stroke="#000000" stroke-linecap="round" stroke-linejoin="round" stroke-width="4.0"/>
      <path d="M99.05 7.1 L99.0 9.95 99.05 11.45 93.45 12.95 93.45 14.55 93.9 15.0 95.65 14.5 97.45 14.0 98.55 14.0 98.55 17.15 90.4 20.4 Q90.1 18.75 89.55 11.45 L89.0 3.95 89.0 2.2 98.0 2.2 97.9 5.1 91.9 6.3 91.9 7.7 92.2 8.15 92.65 8.3 94.95 7.9 99.05 7.1" fill="#000000" fill-rule="evenodd" stroke="none"/>
      <path d="M99.05 7.1 L99.0 9.95 99.05 11.45 93.45 12.95 93.45 14.55 93.9 15.0 95.65 14.5 97.45 14.0 98.55 14.0 98.55 17.15 90.4 20.4 Q90.1 18.75 89.55 11.45 L89.0 3.95 89.0 2.2 98.0 2.2 97.9 5.1 91.9 6.3 91.9 7.7 92.2 8.15 92.65 8.3 94.95 7.9 99.05 7.1 Z" fill="none" stroke="#000000" stroke-linecap="round" stroke-linejoin="round" stroke-width="4.0"/>
      <path d="M8.9 5.1 L2.9 6.3 2.9 7.7 3.2 8.15 3.65 8.3 5.95 7.9 10.05 7.1 10.0 9.95 10.05 11.45 4.45 12.95 4.45 14.55 4.9 15.0 6.65 14.5 Q8.05 14.0 8.45 14.0 L9.55 14.0 9.55 17.15 1.4 20.4 Q1.1 18.75 0.55 11.45 L0.0 3.95 0.0 2.2 9.0 2.2 8.9 5.1" fill="#ffff00" fill-rule="evenodd" stroke="none"/>
      <path d="M19.7 1.1 L22.75 0.0 22.75 18.65 Q22.1 18.9 20.5 19.95 L13.75 13.0 Q13.6 15.65 14.25 17.6 L14.25 18.4 Q13.8 18.65 12.45 19.75 L11.1 20.7 Q10.75 20.7 10.6 18.1 10.2 12.4 9.95 5.45 12.9 3.65 13.65 3.65 L15.55 6.65 Q17.5 9.95 18.3 10.85 L19.7 1.1" fill="#ffff00" fill-rule="evenodd" stroke="none"/>
      <path d="M29.45 10.35 Q28.7 10.6 28.3 10.85 L28.7 13.25 29.1 15.7 31.05 14.0 Q32.35 12.5 32.35 11.4 32.35 10.5 31.65 10.2 L30.65 10.05 29.45 10.35 M33.65 6.25 Q35.85 7.55 35.9 10.4 35.85 15.65 32.3 18.3 29.75 20.15 26.8 20.15 L25.35 20.15 23.85 20.1 23.7 5.95 23.35 4.95 24.8 4.5 26.7 4.15 26.9 5.6 Q26.95 6.6 27.2 6.6 L28.8 5.95 30.35 5.35 Q32.2 5.35 33.65 6.25" fill="#ffff00" fill-rule="evenodd" stroke="none"/>
      <path d="M59.45 12.4 L57.9 13.15 58.85 16.05 Q57.55 17.7 56.3 18.55 L54.7 19.35 53.05 19.85 Q50.85 19.85 49.25 18.9 46.8 17.4 46.8 14.2 L47.0 11.8 Q47.35 9.5 49.75 7.3 51.95 5.3 53.2 5.3 L56.15 5.3 56.25 6.0 56.0 8.25 Q55.85 8.1 55.45 8.1 54.1 8.05 52.3 9.55 50.35 11.15 50.35 12.9 50.35 13.75 50.95 14.25 51.4 14.65 51.85 14.7 L52.95 14.7 52.95 11.5 Q54.95 10.55 59.1 9.55 59.1 10.5 59.45 12.4" fill="#ffff00" fill-rule="evenodd" stroke="none"/>
      <path d="M66.3 11.1 Q65.85 9.5 65.0 8.2 L64.2 11.4 66.3 11.1 M69.35 8.8 L72.8 17.5 70.35 19.4 68.65 20.55 67.65 18.7 66.35 15.85 63.95 16.15 Q62.6 16.4 61.95 16.95 L61.25 18.45 Q60.8 19.6 60.6 19.55 60.45 19.6 59.6 19.15 L58.3 18.5 64.1 2.65 65.25 2.3 Q65.6 2.3 67.35 5.2 L69.35 8.8" fill="#ffff00" fill-rule="evenodd" stroke="none"/>
      <path d="M89.1 16.1 L89.35 18.75 89.35 20.1 87.45 20.4 85.85 20.85 85.1 16.3 84.35 11.75 Q83.1 15.25 82.4 20.6 L81.3 21.05 80.25 21.35 Q80.0 21.35 79.55 21.0 L77.85 16.4 75.9 11.5 Q75.6 12.25 75.55 14.1 L75.5 17.3 75.3 19.05 75.15 20.85 74.5 20.85 73.2 20.6 Q72.4 20.35 71.95 20.1 L73.85 3.95 74.75 3.3 75.75 2.6 79.85 12.2 83.55 1.4 84.2 1.3 Q84.95 1.3 88.4 2.4 L88.8 12.6 89.1 16.1" fill="#ffff00" fill-rule="evenodd" stroke="none"/>
      <path d="M97.9 5.1 L91.9 6.3 91.9 7.7 92.2 8.15 92.65 8.3 94.95 7.9 99.05 7.1 99.0 9.95 99.05 11.45 93.45 12.95 93.45 14.55 93.9 15.0 95.65 14.5 97.45 14.0 98.55 14.0 98.55 17.15 90.4 20.4 Q90.1 18.75 89.55 11.45 L89.0 3.95 89.0 2.2 98.0 2.2 97.9 5.1" fill="#ffff00" fill-rule="evenodd" stroke="none"/>
    </g>
  </defs>
</svg>
