<?xml version="1.0" encoding="UTF-8" standalone="no"?>
<svg xmlns:xlink="http://www.w3.org/1999/xlink" height="69.6px" width="69.55px" xmlns="http://www.w3.org/2000/svg">
  <g transform="matrix(1.0, 0.0, 0.0, 1.0, 34.75, 34.8)">
    <use height="69.6" transform="matrix(1.0, 0.0, 0.0, 1.0, -34.75, -34.8)" width="69.55" xlink:href="#shape0"/>
    <use height="9.65" transform="matrix(1.0, 0.0, 0.0, 1.0, -15.35, -4.85)" width="31.0" xlink:href="#text0"/>
  </g>
  <defs>
    <g id="shape0" transform="matrix(1.0, 0.0, 0.0, 1.0, 34.75, 34.8)">
      <path d="M9.55 -31.7 L9.9 -32.1 10.5 -32.15 10.9 -31.8 11.0 -31.6 11.0 -31.2 9.75 -27.2 9.35 -26.8 8.8 -26.7 8.35 -27.1 8.3 -27.3 8.3 -27.65 9.55 -31.65 9.55 -31.7 M-31.7 9.6 L-31.65 9.6 -27.7 8.3 -27.35 8.25 -27.15 8.35 -26.8 8.8 -26.8 9.35 -27.25 9.7 -31.2 11.0 -31.6 11.05 -31.75 11.0 -32.15 10.55 -32.1 10.0 -31.7 9.6 M-19.95 26.35 L-17.5 22.95 -17.2 22.65 -17.0 22.6 Q-16.7 22.55 -16.45 22.75 L-16.15 23.25 -16.3 23.8 -18.8 27.25 -19.1 27.5 -19.25 27.55 -19.8 27.4 -20.15 26.95 -20.0 26.4 -19.95 26.35 M22.65 -17.2 L22.9 -17.5 26.35 -19.95 26.95 -20.1 27.4 -19.8 27.55 -19.2 27.5 -19.05 27.25 -18.75 23.8 -16.3 23.25 -16.15 Q22.95 -16.2 22.75 -16.45 L22.6 -17.0 22.65 -17.2" fill="#3e4240" fill-rule="evenodd" stroke="none"/>
      <path d="M11.0 -31.6 L10.9 -31.8 10.5 -32.15 9.9 -32.1 9.55 -31.7 Q5.35 -32.95 0.75 -33.05 L0.55 -33.55 0.0 -33.8 -0.5 -33.55 -0.65 -33.4 -0.75 -33.8 -0.5 -34.3 0.0 -34.55 Q5.65 -34.55 10.75 -32.9 L11.2 -32.55 11.25 -31.95 11.0 -31.6 M8.3 -27.3 L8.35 -27.1 8.8 -26.7 9.35 -26.8 9.75 -27.2 Q13.25 -25.95 16.4 -23.7 L16.25 -23.1 16.55 -22.65 17.15 -22.5 17.3 -22.55 17.15 -22.2 16.65 -21.9 16.1 -22.05 Q12.55 -24.7 8.55 -26.0 L8.1 -26.4 Q7.95 -26.7 8.05 -26.95 L8.3 -27.3 M0.65 -28.45 L0.7 -28.15 0.5 -27.6 -0.05 -27.4 Q-4.6 -27.4 -8.55 -26.1 L-9.15 -26.15 -9.5 -26.6 -9.55 -27.05 -9.3 -26.85 -8.75 -26.85 Q-8.45 -26.95 -8.3 -27.2 L-8.3 -27.75 -8.3 -27.8 Q-4.75 -28.8 -0.75 -28.9 L-0.5 -28.35 Q-0.3 -28.15 0.0 -28.15 L0.55 -28.35 0.65 -28.45 M-10.95 -31.25 Q-15.2 -29.8 -18.9 -27.15 -19.1 -27.4 -19.35 -27.45 L-19.95 -27.3 -20.25 -26.8 -20.25 -26.65 -20.55 -26.9 -20.7 -27.45 -20.4 -27.95 Q-15.95 -31.3 -10.7 -32.9 L-10.15 -32.85 -9.75 -32.4 -9.75 -32.0 -9.9 -32.1 -10.45 -32.15 -10.9 -31.75 -10.95 -31.25 M-16.3 -23.4 L-16.05 -23.2 -15.9 -22.65 -16.2 -22.15 -19.4 -19.3 -22.25 -16.05 -22.7 -15.75 -23.25 -15.9 -23.5 -16.15 -23.3 -16.15 -22.85 -16.45 Q-22.65 -16.7 -22.7 -17.0 L-23.0 -17.5 -20.5 -20.35 -20.45 -20.4 -17.65 -22.9 -17.15 -22.6 Q-16.85 -22.55 -16.6 -22.75 L-16.3 -23.2 -16.3 -23.4 M-27.25 -18.8 Q-29.85 -15.1 -31.3 -10.95 L-31.8 -10.9 -32.2 -10.45 -32.15 -9.9 -32.0 -9.7 -32.45 -9.7 -32.9 -10.1 -32.95 -10.65 Q-31.35 -15.85 -28.05 -20.3 L-27.55 -20.6 -27.0 -20.45 -26.75 -20.15 -26.95 -20.15 -27.45 -19.85 -27.6 -19.25 -27.3 -18.8 -27.25 -18.8 M-27.0 -9.45 L-26.6 -9.45 -26.2 -9.1 -26.1 -8.5 Q-27.35 -4.6 -27.35 -0.1 L-27.55 0.45 -28.1 0.65 -28.4 0.6 -28.3 0.55 -28.1 0.0 -28.3 -0.5 -28.85 -0.75 Q-28.75 -4.7 -27.75 -8.25 L-27.2 -8.25 -26.85 -8.7 -26.85 -9.25 -27.0 -9.45 M-33.0 0.75 Q-32.95 5.35 -31.7 9.6 L-32.1 10.0 -32.15 10.55 -31.75 11.0 -31.6 11.05 -31.95 11.3 -32.55 11.25 -32.9 10.8 Q-34.55 5.65 -34.5 0.0 L-34.25 -0.5 -33.75 -0.75 -33.35 -0.65 -33.5 -0.5 -33.75 0.0 -33.5 0.55 Q-33.3 0.75 -33.0 0.75 M-27.35 8.25 L-27.0 8.05 -26.45 8.1 -26.05 8.55 Q-24.75 12.6 -22.1 16.15 -21.9 16.4 -21.95 16.7 L-22.25 17.2 -22.6 17.35 -22.55 17.2 -22.65 16.65 -23.15 16.3 -23.7 16.45 -23.75 16.45 Q-26.0 13.25 -27.25 9.7 L-26.8 9.35 -26.8 8.8 -27.15 8.35 -27.35 8.25 M-26.25 20.1 L-23.4 23.35 -19.95 26.35 -20.0 26.4 -20.15 26.95 -19.8 27.4 -19.25 27.55 -19.1 27.5 -19.25 27.85 Q-19.45 28.1 -19.75 28.15 L-20.3 28.0 -24.45 24.4 -27.9 20.4 -28.05 19.85 -27.75 19.35 -27.4 19.2 -27.45 19.4 -27.3 19.95 -26.8 20.25 -26.25 20.15 -26.25 20.1 M-17.2 22.65 L-17.05 22.3 -16.55 22.0 -16.0 22.15 Q-12.5 24.7 -8.4 26.0 L-8.0 26.35 -7.9 26.95 -8.1 27.25 -8.15 27.15 -8.6 26.75 -9.15 26.8 -9.55 27.2 Q-13.15 26.0 -16.3 23.8 L-16.15 23.25 -16.45 22.75 Q-16.7 22.55 -17.0 22.6 L-17.2 22.65 M-9.45 31.75 Q-5.35 32.9 -0.75 33.05 L-0.5 33.6 Q-0.3 33.8 0.0 33.8 L0.55 33.6 0.65 33.45 0.75 33.8 0.55 34.35 0.0 34.55 Q-5.65 34.5 -10.65 33.0 L-11.1 32.6 -11.15 32.05 -10.9 31.7 -10.85 31.9 -10.45 32.25 -9.85 32.25 -9.5 31.8 -9.45 31.75 M-0.65 28.4 L-0.75 28.0 -0.5 27.5 Q-0.3 27.25 0.0 27.25 4.45 27.2 8.35 26.0 L8.9 26.05 9.3 26.5 9.3 26.9 9.15 26.8 8.6 26.75 Q8.25 26.8 8.15 27.1 8.0 27.35 8.1 27.65 4.6 28.6 0.75 28.75 L0.55 28.25 0.0 28.0 Q-0.3 28.0 -0.5 28.25 L-0.65 28.4 M10.85 31.3 Q15.05 29.8 18.75 27.2 L19.25 27.5 19.8 27.35 20.1 26.85 20.1 26.65 20.4 26.9 20.55 27.45 20.25 27.95 Q15.75 31.3 10.6 33.0 L10.0 32.95 9.65 32.5 9.65 32.1 9.8 32.25 10.4 32.3 10.85 31.9 10.9 31.35 10.85 31.3 M16.05 23.35 L15.75 23.1 15.6 22.55 15.9 22.05 19.25 19.2 21.95 16.05 22.45 15.75 23.0 15.9 23.25 16.2 23.05 16.2 22.55 16.55 Q22.35 16.75 22.4 17.1 L22.7 17.55 20.3 20.25 17.4 22.85 16.9 22.55 16.35 22.7 16.05 23.2 16.05 23.35 M27.15 18.9 Q29.75 15.15 31.25 11.0 L31.3 11.0 31.85 10.95 32.25 10.5 32.2 9.9 32.1 9.75 32.45 9.8 32.9 10.15 32.95 10.75 Q31.25 15.9 27.9 20.4 L27.4 20.7 26.85 20.55 26.6 20.25 26.85 20.25 27.3 19.95 27.45 19.4 27.15 18.9 M26.85 9.45 L26.45 9.45 26.0 9.05 25.95 8.5 Q27.2 4.5 27.25 -0.05 L27.5 -0.55 28.0 -0.8 28.4 -0.7 28.25 -0.55 28.0 -0.05 28.25 0.5 Q28.45 0.7 28.75 0.7 28.6 4.65 27.6 8.25 L27.05 8.3 Q26.75 8.4 26.7 8.75 L26.75 9.3 26.85 9.45 M33.05 -0.8 Q32.95 -5.35 31.75 -9.45 L31.8 -9.45 32.25 -9.85 32.3 -10.4 31.9 -10.85 31.7 -10.95 32.05 -11.15 32.6 -11.1 33.0 -10.65 Q34.55 -5.65 34.55 -0.05 L34.35 0.5 33.8 0.7 33.45 0.6 33.6 0.5 33.8 -0.05 33.6 -0.55 33.05 -0.8 M27.35 -8.15 L27.0 -7.9 26.4 -7.95 Q26.1 -8.1 26.05 -8.4 24.7 -12.5 22.15 -16.0 L22.0 -16.55 22.3 -17.05 22.65 -17.2 22.6 -17.0 22.75 -16.45 Q22.95 -16.2 23.25 -16.15 L23.8 -16.3 Q25.95 -13.15 27.25 -9.6 L26.85 -9.25 Q26.7 -8.95 26.8 -8.65 L27.15 -8.2 27.35 -8.15 M26.35 -19.95 L23.35 -23.35 20.1 -26.25 20.25 -26.8 19.95 -27.3 19.4 -27.45 19.2 -27.4 19.35 -27.75 19.85 -28.05 20.4 -27.9 24.4 -24.4 28.0 -20.25 28.15 -19.7 27.85 -19.2 27.5 -19.05 27.55 -19.2 27.4 -19.8 26.95 -20.1 26.35 -19.95" fill="url(#gradient0)" fill-rule="evenodd" stroke="none"/>
      <path d="M9.55 -31.7 L9.55 -31.65 8.3 -27.65 8.3 -27.3 8.05 -26.95 Q7.95 -26.7 8.1 -26.4 L8.55 -26.0 Q12.55 -24.7 16.1 -22.05 L16.65 -21.9 17.15 -22.2 17.3 -22.55 17.6 -22.8 20.1 -26.25 23.35 -23.35 26.35 -19.95 22.9 -17.5 22.65 -17.2 22.3 -17.05 22.0 -16.55 22.15 -16.0 Q24.7 -12.5 26.05 -8.4 26.1 -8.1 26.4 -7.95 L27.0 -7.9 27.35 -8.15 27.75 -8.15 31.75 -9.45 Q32.95 -5.35 33.05 -0.8 L28.75 -0.8 28.4 -0.7 28.0 -0.8 27.5 -0.55 27.25 -0.05 Q27.2 4.5 25.95 8.5 L26.0 9.05 26.45 9.45 26.85 9.45 27.2 9.7 31.25 11.0 Q29.75 15.15 27.15 18.9 L23.6 16.35 23.25 16.2 23.0 15.9 22.45 15.75 21.95 16.05 19.25 19.2 15.9 22.05 15.6 22.55 15.75 23.1 16.05 23.35 16.2 23.75 18.75 27.2 Q15.05 29.8 10.85 31.3 L9.55 27.25 9.3 26.9 9.3 26.5 8.9 26.05 8.35 26.0 Q4.45 27.2 0.0 27.25 -0.3 27.25 -0.5 27.5 L-0.75 28.0 -0.65 28.4 -0.75 28.75 -0.75 33.05 Q-5.35 32.9 -9.45 31.75 L-8.15 27.7 -8.1 27.25 -7.9 26.95 -8.0 26.35 -8.4 26.0 Q-12.5 24.7 -16.0 22.15 L-16.55 22.0 -17.05 22.3 -17.2 22.65 -17.5 22.95 -19.95 26.35 -23.4 23.35 -26.25 20.1 -22.85 17.7 -22.6 17.35 -22.25 17.2 -21.95 16.7 Q-21.9 16.4 -22.1 16.15 -24.75 12.6 -26.05 8.55 L-26.45 8.1 -27.0 8.05 -27.35 8.25 -27.7 8.3 -31.65 9.6 -31.7 9.6 Q-32.95 5.35 -33.0 0.75 L-28.85 0.75 -28.4 0.6 -28.1 0.65 -27.55 0.45 -27.35 -0.1 Q-27.35 -4.6 -26.1 -8.5 L-26.2 -9.1 -26.6 -9.45 -27.0 -9.45 -27.3 -9.65 -31.25 -10.95 -31.3 -10.95 Q-29.85 -15.1 -27.25 -18.8 L-23.9 -16.3 Q-23.7 -16.15 -23.5 -16.15 L-23.25 -15.9 -22.7 -15.75 -22.25 -16.05 -19.4 -19.3 -16.2 -22.15 -15.9 -22.65 -16.05 -23.2 -16.3 -23.4 -16.45 -23.8 -18.9 -27.15 Q-15.2 -29.8 -10.95 -31.25 L-10.95 -31.2 -9.7 -27.3 -9.55 -27.05 -9.5 -26.6 -9.15 -26.15 -8.55 -26.1 Q-4.6 -27.4 -0.05 -27.4 L0.5 -27.6 0.7 -28.15 0.65 -28.45 0.75 -28.9 0.75 -33.05 Q5.35 -32.95 9.55 -31.7 M17.7 -17.85 Q10.25 -25.25 -0.05 -25.25 -10.5 -25.25 -17.9 -17.85 -25.25 -10.55 -25.2 -0.1 -25.25 10.35 -17.9 17.65 -10.5 25.05 -0.05 25.05 10.25 25.05 17.7 17.65 25.1 10.35 25.1 -0.1 25.1 -10.55 17.7 -17.85" fill="url(#gradient1)" fill-rule="evenodd" stroke="none"/>
      <path d="M-0.65 -33.4 L-0.5 -33.55 0.0 -33.8 0.55 -33.55 0.75 -33.05 0.75 -28.9 0.65 -28.45 0.55 -28.35 0.0 -28.15 Q-0.3 -28.15 -0.5 -28.35 L-0.75 -28.9 -0.75 -33.05 -0.65 -33.4 M-8.3 -27.8 L-8.3 -27.75 -8.3 -27.2 Q-8.45 -26.95 -8.75 -26.85 L-9.3 -26.85 -9.55 -27.05 -9.7 -27.3 -10.95 -31.2 -10.95 -31.25 -10.9 -31.75 -10.45 -32.15 -9.9 -32.1 -9.75 -32.0 -9.55 -31.65 -8.3 -27.8 M-18.9 -27.15 L-16.45 -23.8 -16.3 -23.4 -16.3 -23.2 -16.6 -22.75 Q-16.85 -22.55 -17.15 -22.6 L-17.65 -22.9 -20.1 -26.25 -20.25 -26.65 -20.25 -26.8 -19.95 -27.3 -19.35 -27.45 Q-19.1 -27.4 -18.9 -27.15 M-23.5 -16.15 Q-23.7 -16.15 -23.9 -16.3 L-27.25 -18.8 -27.3 -18.8 -27.6 -19.25 -27.45 -19.85 -26.95 -20.15 -26.75 -20.15 -26.4 -20.0 -23.0 -17.5 -22.7 -17.0 Q-22.65 -16.7 -22.85 -16.45 L-23.3 -16.15 -23.5 -16.15 M-31.3 -10.95 L-31.25 -10.95 -27.3 -9.65 -27.0 -9.45 -26.85 -9.25 -26.85 -8.7 -27.2 -8.25 -27.75 -8.25 -31.7 -9.55 -32.0 -9.7 -32.15 -9.9 -32.2 -10.45 -31.8 -10.9 -31.3 -10.95 M-28.4 0.6 L-28.85 0.75 -33.0 0.75 Q-33.3 0.75 -33.5 0.55 L-33.75 0.0 -33.5 -0.5 -33.35 -0.65 -33.0 -0.75 -28.85 -0.75 -28.3 -0.5 -28.1 0.0 -28.3 0.55 -28.4 0.6 M-22.6 17.35 L-22.85 17.7 -26.25 20.1 -26.25 20.15 -26.8 20.25 -27.3 19.95 -27.45 19.4 -27.4 19.2 -27.1 18.9 -23.75 16.45 -23.7 16.45 -23.15 16.3 -22.65 16.65 -22.55 17.2 -22.6 17.35 M20.1 -26.25 L17.6 -22.8 17.3 -22.55 17.15 -22.5 16.55 -22.65 16.25 -23.1 16.4 -23.7 18.9 -27.15 19.2 -27.4 19.4 -27.45 19.95 -27.3 20.25 -26.8 20.1 -26.25" fill="#626a67" fill-rule="evenodd" stroke="none"/>
      <path d="M13.6 -13.75 Q19.25 -8.15 19.3 -0.1 19.25 7.95 13.6 13.55 7.9 19.25 -0.05 19.25 -8.1 19.25 -13.8 13.55 -19.4 7.95 -19.4 -0.1 -19.4 -8.15 -13.8 -13.75 -8.1 -19.45 -0.05 -19.45 7.9 -19.45 13.6 -13.75 M17.8 -0.1 Q17.8 -7.5 12.55 -12.7 7.25 -17.95 -0.05 -17.95 -7.5 -17.95 -12.75 -12.7 -17.95 -7.5 -17.9 -0.1 -17.95 7.3 -12.75 12.5 -7.5 17.75 -0.05 17.75 7.25 17.75 12.55 12.5 17.8 7.3 17.8 -0.1" fill="url(#gradient2)" fill-rule="evenodd" stroke="none"/>
      <path d="M17.8 -0.1 Q17.8 7.3 12.55 12.5 7.25 17.75 -0.05 17.75 -7.5 17.75 -12.75 12.5 -17.95 7.3 -17.9 -0.1 -17.95 -7.5 -12.75 -12.7 -7.5 -17.95 -0.05 -17.95 7.25 -17.95 12.55 -12.7 17.8 -7.5 17.8 -0.1" fill="url(#gradient3)" fill-rule="evenodd" stroke="none"/>
      <path d="M13.6 -13.75 Q7.9 -19.45 -0.05 -19.45 -8.1 -19.45 -13.8 -13.75 -19.4 -8.15 -19.4 -0.1 -19.4 7.95 -13.8 13.55 -8.1 19.25 -0.05 19.25 7.9 19.25 13.6 13.55 19.25 7.95 19.3 -0.1 19.25 -8.15 13.6 -13.75 M17.7 -17.85 Q25.1 -10.55 25.1 -0.1 25.1 10.35 17.7 17.65 10.25 25.05 -0.05 25.05 -10.5 25.05 -17.9 17.65 -25.25 10.35 -25.2 -0.1 -25.25 -10.55 -17.9 -17.85 -10.5 -25.25 -0.05 -25.25 10.25 -25.25 17.7 -17.85" fill="url(#gradient4)" fill-rule="evenodd" stroke="none"/>
      <path d="M-8.1 27.25 L-8.15 27.7 -9.45 31.75 -9.5 31.8 -9.85 32.25 -10.45 32.25 -10.85 31.9 -10.9 31.7 -10.9 31.3 -9.55 27.2 -9.15 26.8 -8.6 26.75 -8.15 27.15 -8.1 27.25 M31.75 -9.45 L27.75 -8.15 27.35 -8.15 27.15 -8.2 26.8 -8.65 Q26.7 -8.95 26.85 -9.25 L27.25 -9.6 27.3 -9.6 31.35 -10.9 31.7 -10.95 31.9 -10.85 32.3 -10.4 32.25 -9.85 31.8 -9.45 31.75 -9.45" fill="#3d413f" fill-rule="evenodd" stroke="none"/>
      <path d="M-0.75 33.05 L-0.75 28.75 -0.65 28.4 -0.5 28.25 Q-0.3 28.0 0.0 28.0 L0.55 28.25 0.75 28.75 0.75 33.05 0.65 33.45 0.55 33.6 0.0 33.8 Q-0.3 33.8 -0.5 33.6 L-0.75 33.05 M9.3 26.9 L9.55 27.25 10.85 31.3 10.9 31.35 10.85 31.9 10.4 32.3 9.8 32.25 9.65 32.1 9.45 31.8 8.1 27.7 8.1 27.65 Q8.0 27.35 8.15 27.1 8.25 26.8 8.6 26.75 L9.15 26.8 9.3 26.9 M18.75 27.2 L16.2 23.75 16.05 23.35 16.05 23.2 16.35 22.7 16.9 22.55 17.4 22.85 19.95 26.3 20.1 26.65 20.1 26.85 19.8 27.35 19.25 27.5 18.75 27.2 M23.25 16.2 L23.6 16.35 27.15 18.9 27.45 19.4 27.3 19.95 26.85 20.25 26.6 20.25 26.3 20.1 22.75 17.55 22.7 17.55 22.4 17.1 Q22.35 16.75 22.55 16.55 L23.05 16.2 23.25 16.2 M31.25 11.0 L27.2 9.7 26.85 9.45 26.75 9.3 26.7 8.75 Q26.75 8.4 27.05 8.3 L27.6 8.25 27.65 8.25 31.75 9.55 32.1 9.75 32.2 9.9 32.25 10.5 31.85 10.95 31.3 11.0 31.25 11.0 M28.4 -0.7 L28.75 -0.8 33.05 -0.8 33.6 -0.55 33.8 -0.05 33.6 0.5 33.45 0.6 33.05 0.7 28.75 0.7 Q28.45 0.7 28.25 0.5 L28.0 -0.05 28.25 -0.55 28.4 -0.7" fill="#303231" fill-rule="evenodd" stroke="none"/>
      <path d="M9.75 -27.2 L11.0 -31.2 11.0 -31.6 11.25 -31.95 11.2 -32.55 10.75 -32.9 Q5.65 -34.55 0.0 -34.55 L-0.5 -34.3 -0.75 -33.8 -0.65 -33.4 -0.75 -33.05 -0.75 -28.9 Q-4.75 -28.8 -8.3 -27.8 M19.2 -27.4 L18.9 -27.15 16.4 -23.7 Q13.25 -25.95 9.75 -27.2 M27.5 -19.05 L27.85 -19.2 28.15 -19.7 28.0 -20.25 24.4 -24.4 20.4 -27.9 19.85 -28.05 19.35 -27.75 19.2 -27.4 M23.8 -16.3 L27.25 -18.75 27.5 -19.05 M31.7 -10.95 L31.35 -10.9 27.3 -9.6 27.25 -9.6 Q25.95 -13.15 23.8 -16.3 M33.45 0.6 L33.8 0.7 34.35 0.5 34.55 -0.05 Q34.55 -5.65 33.0 -10.65 L32.6 -11.1 32.05 -11.15 31.7 -10.95 M28.75 0.7 L33.05 0.7 33.45 0.6 M26.6 20.25 L26.85 20.55 27.4 20.7 27.9 20.4 Q31.25 15.9 32.95 10.75 L32.9 10.15 32.45 9.8 32.1 9.75 31.75 9.55 27.65 8.25 27.6 8.25 Q28.6 4.65 28.75 0.7 M22.7 17.55 L22.75 17.55 26.3 20.1 26.6 20.25 M17.4 22.85 L20.3 20.25 22.7 17.55 M20.1 26.65 L19.95 26.3 17.4 22.85 M20.1 26.65 L20.4 26.9 20.55 27.45 20.25 27.95 Q15.75 31.3 10.6 33.0 L10.0 32.95 9.65 32.5 9.65 32.1 9.45 31.8 8.1 27.7 8.1 27.65 Q4.6 28.6 0.75 28.75 L0.75 33.05 0.65 33.45 0.75 33.8 0.55 34.35 0.0 34.55 Q-5.65 34.5 -10.65 33.0 L-11.1 32.6 -11.15 32.05 -10.9 31.7 -10.9 31.3 -9.55 27.2 Q-13.15 26.0 -16.3 23.8 L-18.8 27.25 -19.1 27.5 -19.25 27.85 Q-19.45 28.1 -19.75 28.15 L-20.3 28.0 -24.45 24.4 -27.9 20.4 -28.05 19.85 -27.75 19.35 -27.4 19.2 -27.1 18.9 -23.75 16.45 Q-26.0 13.25 -27.25 9.7 L-31.2 11.0 -31.6 11.05 -31.95 11.3 -32.55 11.25 -32.9 10.8 Q-34.55 5.65 -34.5 0.0 L-34.25 -0.5 -33.75 -0.75 -33.35 -0.65 -33.0 -0.75 -28.85 -0.75 Q-28.75 -4.7 -27.75 -8.25 L-31.7 -9.55 -32.0 -9.7 -32.45 -9.7 -32.9 -10.1 -32.95 -10.65 Q-31.35 -15.85 -28.05 -20.3 L-27.55 -20.6 -27.0 -20.45 -26.75 -20.15 -26.4 -20.0 -23.0 -17.5 -20.5 -20.35 -20.45 -20.4 -17.65 -22.9 -20.1 -26.25 -20.25 -26.65 -20.55 -26.9 -20.7 -27.45 -20.4 -27.95 Q-15.95 -31.3 -10.7 -32.9 L-10.15 -32.85 -9.75 -32.4 -9.75 -32.0 -9.55 -31.65 -8.3 -27.8" fill="none" stroke="#1d2226" stroke-linecap="round" stroke-linejoin="round" stroke-width="0.5"/>
      <path d="M17.7 -17.85 Q10.25 -25.25 -0.05 -25.25 -10.5 -25.25 -17.9 -17.85 -25.25 -10.55 -25.2 -0.1 -25.25 10.35 -17.9 17.65 -10.5 25.05 -0.05 25.05 10.25 25.05 17.7 17.65 25.1 10.35 25.1 -0.1 25.1 -10.55 17.7 -17.85" fill="none" stroke="#202528" stroke-linecap="round" stroke-linejoin="round" stroke-width="0.5"/>
    </g>
    <linearGradient gradientTransform="matrix(0.0078, 0.0094, -0.7695, 0.6361, 248.5, -205.75)" gradientUnits="userSpaceOnUse" id="gradient0" spreadMethod="pad" x1="-819.2" x2="819.2">
      <stop offset="0.0" stop-color="#626a67"/>
      <stop offset="1.0" stop-color="#303231"/>
    </linearGradient>
    <radialGradient cx="0" cy="0" gradientTransform="matrix(0.0423, 0.0, 0.0, 0.0423, 0.0, -0.2)" gradientUnits="userSpaceOnUse" id="gradient1" r="819.2" spreadMethod="pad">
      <stop offset="0.8431372549019608" stop-color="#424646"/>
      <stop offset="0.9137254901960784" stop-color="#484f4e"/>
    </radialGradient>
    <linearGradient gradientTransform="matrix(0.0056, 0.0056, -0.7072, 0.7047, 231.35, -230.4)" gradientUnits="userSpaceOnUse" id="gradient2" spreadMethod="pad" x1="-819.2" x2="819.2">
      <stop offset="0.0" stop-color="#feb998"/>
      <stop offset="1.0" stop-color="#fe5605"/>
    </linearGradient>
    <radialGradient cx="0" cy="0" gradientTransform="matrix(0.0291, 0.0, 0.0, 0.0291, -2.0, -3.95)" gradientUnits="userSpaceOnUse" id="gradient3" r="819.2" spreadMethod="pad">
      <stop offset="0.0" stop-color="#fec289"/>
      <stop offset="1.0" stop-color="#fe6c27"/>
    </radialGradient>
    <radialGradient cx="0" cy="0" gradientTransform="matrix(0.0326, 0.0, 0.0, 0.0326, -0.25, -0.2)" gradientUnits="userSpaceOnUse" id="gradient4" r="819.2" spreadMethod="pad">
      <stop offset="0.8627450980392157" stop-color="#646768"/>
      <stop offset="0.9019607843137255" stop-color="#565a5d"/>
    </radialGradient>
    <g id="text0" transform="matrix(1.0, 0.0, 0.0, 1.0, -1.25, -3.9)">
      <g transform="matrix(1.0, 0.0, 0.0, 1.0, 0.0, 0.0)">
        <use fill="#d62101" height="9.65" transform="matrix(0.2148, 0.0, 0.0, 0.2148, 0.0, 13.0)" width="31.0" xlink:href="#font_A-OTF____Pro_B__0"/>
        <use fill="#d62101" height="9.65" transform="matrix(0.2148, 0.0, 0.0, 0.2148, 11.0, 13.0)" width="31.0" xlink:href="#font_A-OTF____Pro_B__1"/>
        <use fill="#d62101" height="9.65" transform="matrix(0.2148, 0.0, 0.0, 0.2148, 22.0, 13.0)" width="31.0" xlink:href="#font_A-OTF____Pro_B__2"/>
      </g>
    </g>
    <g id="font_A-OTF____Pro_B__0">
      <path d="M16.3 -41.8 L25.1 -41.8 25.0 -38.5 24.95 -35.1 25.0 -31.05 Q25.1 -29.55 25.35 -28.65 25.65 -27.8 26.2 -27.25 L29.15 -28.1 31.95 -28.8 35.9 -29.6 42.3 -30.8 43.95 -22.4 36.15 -21.4 Q32.1 -20.75 28.3 -19.7 24.45 -18.7 21.4 -17.3 18.35 -15.9 16.5 -14.15 14.7 -12.4 14.65 -10.25 14.7 -7.85 16.5 -6.8 18.3 -5.7 21.45 -5.45 L28.55 -5.25 36.0 -5.4 45.5 -6.15 45.5 2.25 39.6 2.65 30.9 2.85 23.15 2.6 17.85 1.95 14.25 1.0 11.65 -0.15 Q8.85 -1.65 7.35 -4.05 5.85 -6.45 5.85 -9.4 5.9 -12.75 7.3 -15.3 8.75 -17.8 10.85 -19.6 12.95 -21.4 15.05 -22.6 L18.75 -24.45 17.9 -25.55 17.05 -27.55 Q16.7 -28.8 16.55 -30.95 L16.35 -34.75 16.3 -38.2 16.3 -41.8" fill-rule="evenodd" stroke="none"/>
    </g>
    <g id="font_A-OTF____Pro_B__1">
      <path d="M9.0 -41.75 L17.85 -41.65 17.7 -37.95 17.5 -32.05 17.35 -25.35 17.2 -19.25 17.15 -15.15 Q17.15 -11.6 17.95 -9.45 18.75 -7.3 20.65 -6.35 22.55 -5.35 25.7 -5.35 L29.4 -5.75 Q31.5 -6.2 33.55 -7.75 35.65 -9.25 37.3 -12.45 39.0 -15.6 39.9 -21.0 L47.45 -17.6 Q46.15 -11.5 43.95 -7.65 41.8 -3.8 39.15 -1.6 36.55 0.55 33.95 1.5 31.3 2.4 29.1 2.6 L25.5 2.8 Q20.6 2.75 17.45 1.55 14.3 0.4 12.55 -1.7 10.75 -3.8 10.0 -6.5 9.2 -9.2 9.0 -12.3 8.85 -15.35 8.85 -18.5 L8.9 -22.05 8.95 -27.35 9.0 -33.2 9.0 -38.4 9.0 -41.75 M45.5 -33.05 L40.95 -30.6 40.1 -32.4 38.35 -35.5 36.2 -38.7 40.55 -40.85 42.95 -37.75 44.55 -35.0 45.5 -33.05 M38.3 -29.3 L33.6 -26.6 32.85 -28.5 31.5 -31.05 29.05 -35.2 33.5 -37.4 35.1 -35.15 36.95 -32.1 38.3 -29.3" fill-rule="evenodd" stroke="none"/>
    </g>
    <g id="font_A-OTF____Pro_B__2">
      <path d="M26.4 -3.55 L26.4 -3.55 26.5 -4.15 26.55 -4.75 26.4 -5.9 Q26.2 -6.85 25.4 -7.7 24.6 -8.6 22.85 -8.65 21.35 -8.6 20.45 -7.95 19.6 -7.3 19.55 -6.15 19.6 -4.85 20.55 -4.25 21.5 -3.65 22.65 -3.5 L24.45 -3.35 25.35 -3.4 26.4 -3.55 M7.45 -41.2 L37.85 -41.2 37.85 -34.8 33.3 -30.95 30.65 -28.7 29.15 -27.45 28.05 -26.5 29.6 -26.9 32.6 -27.1 Q36.5 -27.1 39.35 -25.8 42.25 -24.5 44.1 -22.4 45.95 -20.25 46.9 -17.7 47.8 -15.15 47.8 -12.55 47.8 -8.25 45.6 -4.75 43.35 -1.25 38.7 0.9 34.0 3.0 26.65 3.05 21.7 3.0 18.95 1.75 16.15 0.5 14.9 -1.2 13.65 -2.95 13.35 -4.35 13.05 -5.8 13.1 -6.3 13.15 -9.0 14.65 -10.85 16.15 -12.75 18.45 -13.7 20.75 -14.7 23.25 -14.7 26.35 -14.65 28.4 -13.45 30.45 -12.2 31.45 -10.3 32.5 -8.35 32.5 -6.25 L32.45 -5.4 32.35 -4.5 Q35.6 -5.5 37.35 -7.35 39.1 -9.25 39.15 -12.2 L38.7 -14.75 Q38.25 -16.15 37.1 -17.4 35.95 -18.65 33.85 -19.45 31.75 -20.25 28.55 -20.25 25.5 -20.25 23.0 -19.5 20.5 -18.75 18.1 -17.1 15.7 -15.5 13.0 -12.9 L6.75 -6.75 1.7 -13.5 4.1 -15.35 6.8 -17.55 10.7 -20.85 16.6 -26.0 25.4 -33.65 7.45 -33.3 7.45 -41.2" fill-rule="evenodd" stroke="none"/>
    </g>
  </defs>
</svg>
