<?xml version="1.0" encoding="UTF-8" standalone="no"?>
<svg xmlns:xlink="http://www.w3.org/1999/xlink" height="179.5px" width="122.8px" xmlns="http://www.w3.org/2000/svg">
  <g transform="matrix(1.0, 0.0, 0.0, 1.0, 61.4, 89.75)">
    <use height="179.5" transform="matrix(1.0, 0.0, 0.0, 1.0, -61.4, -89.75)" width="122.8" xlink:href="#shape0"/>
  </g>
  <defs>
    <g id="shape0" transform="matrix(1.0, 0.0, 0.0, 1.0, 61.4, 89.75)">
      <path d="M61.25 -79.8 L61.4 -79.3 47.75 89.05 47.5 89.6 46.95 89.75 -60.7 79.6 -61.05 79.45 -61.3 79.15 -61.4 78.8 Q-52.25 -2.0 -47.9 -89.0 L-47.75 -89.4 -47.45 -89.65 -47.05 -89.75 60.75 -80.1 61.25 -79.8 M60.65 -79.35 L-47.15 -89.0 Q-51.5 -1.95 -60.65 78.85 L47.0 89.0 60.65 -79.35" fill="#333333" fill-rule="evenodd" stroke="none"/>
      <path d="M60.65 -79.35 L47.0 89.0 -60.65 78.85 Q-51.5 -1.95 -47.15 -89.0 L60.65 -79.35" fill="#ffffff" fill-rule="evenodd" stroke="none"/>
    </g>
  </defs>
</svg>
