<?xml version="1.0" encoding="UTF-8" standalone="no"?>
<svg xmlns:xlink="http://www.w3.org/1999/xlink" height="113.15px" width="277.15px" xmlns="http://www.w3.org/2000/svg">
  <g transform="matrix(1.0, 0.0, 0.0, 1.0, 35.15, 0.15)">
    <use height="16.0" transform="matrix(1.0, 0.0, 0.0, 1.0, -4.15, -0.15)" width="16.0" xlink:href="#sprite0"/>
    <use height="16.0" transform="matrix(1.0, 0.0, 0.0, 1.0, -35.15, -0.15)" width="16.0" xlink:href="#sprite3"/>
    <use height="16.0" transform="matrix(1.0, 0.0, 0.0, 1.0, 18.85, -0.15)" width="16.0" xlink:href="#sprite6"/>
    <use height="107.3" transform="matrix(1.0, 0.0, 0.0, 1.0, 58.7, 5.7)" width="183.3" xlink:href="#sprite7"/>
  </g>
  <defs>
    <g id="sprite0" transform="matrix(1.0, 0.0, 0.0, 1.0, 0.0, 0.0)">
      <use height="1.0" id="b" transform="matrix(16.0, 0.0, 0.0, 16.0, 0.0, 0.0)" width="1.0" xlink:href="#sprite1"/>
      <use height="1.0" id="face" transform="matrix(14.0001, 0.0, 0.0, 14.0001, 1.0, 1.0)" width="1.0" xlink:href="#sprite2"/>
    </g>
    <g id="sprite1" transform="matrix(1.0, 0.0, 0.0, 1.0, 0.0, 0.0)">
      <use height="1.0" transform="matrix(1.0, 0.0, 0.0, 1.0, 0.0, 0.0)" width="1.0" xlink:href="#shape0"/>
    </g>
    <g id="shape0" transform="matrix(1.0, 0.0, 0.0, 1.0, 0.0, 0.0)">
      <path d="M0.0 1.0 L0.0 0.0 1.0 0.0 1.0 1.0 0.0 1.0" fill="#848484" fill-rule="evenodd" stroke="none"/>
    </g>
    <g id="sprite2" transform="matrix(1.0, 0.0, 0.0, 1.0, 0.0, 0.0)">
      <use height="1.0" transform="matrix(1.0, 0.0, 0.0, 1.0, 0.0, 0.0)" width="1.0" xlink:href="#shape1"/>
    </g>
    <g id="shape1" transform="matrix(1.0, 0.0, 0.0, 1.0, 0.0, 0.0)">
      <path d="M1.0 1.0 L0.0 1.0 0.0 0.0 1.0 0.0 1.0 1.0" fill="#efebef" fill-rule="evenodd" stroke="none"/>
    </g>
    <g id="sprite3" transform="matrix(1.0, 0.0, 0.0, 1.0, 0.0, 0.0)">
      <use height="1.0" id="b" transform="matrix(15.9999, 0.0, 0.0, 16.0, 0.0, 0.0)" width="1.0" xlink:href="#sprite4"/>
      <use height="1.0" id="it" transform="matrix(15.0, 0.0, 0.0, 15.0, 1.0, 1.0)" width="1.0" xlink:href="#sprite5"/>
      <use height="1.0" id="g" transform="matrix(14.0, 0.0, 0.0, 14.0, 1.0, 1.0)" width="1.0" xlink:href="#sprite1"/>
      <use height="1.0" id="face" transform="matrix(12.9999, 0.0, 0.0, 12.9999, 2.0, 2.0)" width="1.0" xlink:href="#sprite2"/>
    </g>
    <g id="sprite4" transform="matrix(1.0, 0.0, 0.0, 1.0, 0.0, 0.0)">
      <use height="1.0" transform="matrix(1.0, 0.0, 0.0, 1.0, 0.0, 0.0)" width="1.0" xlink:href="#shape2"/>
    </g>
    <g id="shape2" transform="matrix(1.0, 0.0, 0.0, 1.0, 0.0, 0.0)">
      <path d="M1.0 0.0 L1.0 1.0 0.0 1.0 0.0 0.0 1.0 0.0" fill="#000000" fill-rule="evenodd" stroke="none"/>
    </g>
    <g id="sprite5" transform="matrix(1.0, 0.0, 0.0, 1.0, 0.0, 0.0)">
      <use height="100.0" transform="matrix(0.01, 0.0, 0.0, 0.01, 0.0, 0.0)" width="100.0" xlink:href="#shape3"/>
    </g>
    <g id="shape3" transform="matrix(1.0, 0.0, 0.0, 1.0, 0.0, 0.0)">
      <path d="M100.0 0.0 L100.0 100.0 0.0 100.0 0.0 0.0 100.0 0.0" fill="#ffffff" fill-rule="evenodd" stroke="none"/>
    </g>
    <g id="sprite6" transform="matrix(1.0, 0.0, 0.0, 1.0, 0.0, 0.0)">
      <use height="1.0" id="ob" transform="matrix(16.0, 0.0, 0.0, 16.0, 0.0, 0.0)" width="1.0" xlink:href="#sprite4"/>
      <use height="1.0" id="ol" transform="matrix(15.0, 0.0, 0.0, 15.0, 0.0, 0.0)" width="1.0" xlink:href="#sprite2"/>
      <use height="1.0" id="ib" transform="matrix(14.0, 0.0, 0.0, 14.0, 1.0, 1.0)" width="1.0" xlink:href="#sprite1"/>
      <use height="1.0" id="il" transform="matrix(13.0, 0.0, 0.0, 13.0, 1.0, 1.0)" width="1.0" xlink:href="#sprite5"/>
      <use height="1.0" id="face" transform="matrix(12.0, 0.0, 0.0, 12.0, 2.0, 2.0)" width="1.0" xlink:href="#sprite2"/>
    </g>
  </defs>
</svg>
