<?xml version="1.0" encoding="UTF-8" standalone="no"?>
<svg xmlns:xlink="http://www.w3.org/1999/xlink" height="98.3px" width="78.8px" xmlns="http://www.w3.org/2000/svg">
  <g transform="matrix(1.0, 0.0, 0.0, 1.0, 39.4, 48.8)">
    <path d="M-4.45 -29.75 Q-3.2 -39.0 1.85 -46.85 L6.55 -47.25 Q7.55 -46.55 8.15 -45.55 14.45 -35.3 12.9 -23.2 12.15 -17.0 14.4 -11.05 20.8 5.95 31.3 20.95 36.45 28.3 37.05 37.35 L36.65 37.6 Q29.95 42.65 21.55 44.35 23.05 40.5 23.6 36.7 25.3 25.15 19.9 14.8 L12.2 -0.2 Q5.25 -14.0 7.65 -29.25 7.0 -28.2 5.75 -27.8 0.2 -26.15 -4.45 -29.75" fill="#0db5c8" fill-rule="evenodd" stroke="none"/>
    <path d="M21.55 44.35 Q29.95 42.65 36.65 37.6 L37.05 37.35 Q36.45 28.3 31.3 20.95 20.8 5.95 14.4 -11.05 12.15 -17.0 12.9 -23.2 14.45 -35.3 8.15 -45.55 7.55 -46.55 6.55 -47.25 L1.85 -46.85 Q-3.2 -39.0 -4.45 -29.75 -6.05 -6.45 3.4 14.9 L8.05 16.5 Q14.85 19.2 19.45 24.85 15.4 22.0 10.95 19.95 6.5 17.85 1.8 17.1 -7.1 15.5 -15.85 17.75 -29.55 21.2 -37.35 33.0 -33.05 37.4 -27.85 40.4 L-27.05 38.75 Q-20.4 26.75 -6.85 24.05 L-4.15 25.5 -6.6 25.85 Q-19.6 29.4 -26.5 40.9 L-26.9 40.9 -26.55 41.05 Q-6.95 50.1 13.9 45.3 L21.55 44.35 M13.95 -34.25 Q13.55 -17.95 20.25 -3.0 25.7 9.25 33.35 20.05 39.0 28.1 39.4 38.15 33.95 42.6 27.2 44.95 14.3 49.45 0.75 49.5 -9.25 49.55 -18.8 46.9 L-24.55 44.95 Q-34.7 41.1 -39.4 31.6 L-35.6 26.7 Q-33.6 24.45 -31.2 22.65 -17.0 12.2 0.6 14.3 -1.5 10.3 -2.8 6.05 -7.2 -8.35 -6.65 -23.7 -6.3 -34.6 -1.7 -44.4 0.65 -49.4 5.8 -48.75 10.8 -47.85 12.5 -43.3 14.05 -39.1 13.95 -34.25" fill="#000000" fill-rule="evenodd" stroke="none"/>
    <path d="M-4.45 -29.75 Q0.2 -26.15 5.75 -27.8 7.0 -28.2 7.65 -29.25 5.25 -14.0 12.2 -0.2 L19.9 14.8 Q25.3 25.15 23.6 36.7 23.05 40.5 21.55 44.35 L13.9 45.3 Q-6.95 50.1 -26.55 41.05 L-26.5 40.9 Q-19.6 29.4 -6.6 25.85 L-4.15 25.5 -6.85 24.05 Q-20.4 26.75 -27.05 38.75 L-27.85 40.4 Q-33.05 37.4 -37.35 33.0 -29.55 21.2 -15.85 17.75 -7.1 15.5 1.8 17.1 6.5 17.85 10.95 19.95 15.4 22.0 19.45 24.85 14.85 19.2 8.05 16.5 L3.4 14.9 Q-6.05 -6.45 -4.45 -29.75" fill="#0ecfe4" fill-rule="evenodd" stroke="none"/>
  </g>
</svg>
