<?xml version="1.0" encoding="UTF-8" standalone="no"?>
<svg xmlns:xlink="http://www.w3.org/1999/xlink" height="68.95px" width="47.2px" xmlns="http://www.w3.org/2000/svg">
  <g transform="matrix(1.0, 0.0, 0.0, 1.0, 23.6, 34.5)">
    <path d="M0.6 -32.05 Q-5.45 -30.1 -4.9 -23.75 8.25 -24.95 17.1 -15.2 22.35 -21.2 16.3 -27.9 9.9 -34.95 0.6 -32.05 M19.25 -27.7 Q25.9 -19.55 18.0 -13.45 25.95 2.25 22.6 19.3 19.8 33.45 6.4 34.45 2.1 34.45 -1.25 31.95 -8.25 26.75 -7.85 17.9 -7.35 7.7 -4.75 -2.05 -11.4 2.55 -18.15 -1.7 -23.2 -4.9 -23.6 -10.95 -13.15 -14.55 -5.9 -23.0 -7.6 -28.5 -2.9 -31.75 -1.35 -32.9 0.45 -33.7 11.9 -36.8 19.25 -27.7 M6.2 -21.0 Q1.05 -22.95 -4.5 -22.5 -10.3 -12.5 -21.6 -10.15 -21.35 -4.05 -15.7 -2.0 -11.1 -0.5 -6.95 -2.95 -5.75 -3.65 -5.1 -4.95 L-7.15 -10.3 Q-1.35 -3.45 -4.6 5.35 -8.25 15.35 -3.9 24.6 0.3 33.6 9.6 31.85 12.9 31.2 15.15 28.35 24.6 16.15 20.3 0.5 L18.4 -6.1 Q16.75 -17.15 6.2 -21.0 M17.9 2.8 L18.15 14.95 19.75 14.05 17.9 2.8 M6.8 18.0 Q9.1 5.05 5.55 -7.6 11.6 -1.25 12.0 9.15 L12.3 17.05 Q11.65 18.1 10.5 18.4 L6.8 18.0 M7.75 17.05 L11.2 16.5 Q11.3 7.9 8.8 -0.15 L8.4 13.5 7.75 17.05 M16.55 15.45 Q17.15 3.25 13.55 -8.6 18.85 -0.7 19.9 8.8 L20.85 15.95 16.55 15.45" fill="#999999" fill-rule="evenodd" stroke="none"/>
    <path d="M0.6 -32.05 Q9.9 -34.95 16.3 -27.9 22.35 -21.2 17.1 -15.2 8.25 -24.95 -4.9 -23.75 -5.45 -30.1 0.6 -32.05 M16.55 15.45 L20.85 15.95 19.9 8.8 Q18.85 -0.7 13.55 -8.6 17.15 3.25 16.55 15.45 M7.75 17.05 L8.4 13.5 8.8 -0.15 Q11.3 7.9 11.2 16.5 L7.75 17.05 M6.8 18.0 L10.5 18.4 Q11.65 18.1 12.3 17.05 L12.0 9.15 Q11.6 -1.25 5.55 -7.6 9.1 5.05 6.8 18.0 M17.9 2.8 L19.75 14.05 18.15 14.95 17.9 2.8 M6.2 -21.0 Q16.75 -17.15 18.4 -6.1 L20.3 0.5 Q24.6 16.15 15.15 28.35 12.9 31.2 9.6 31.85 0.3 33.6 -3.9 24.6 -8.25 15.35 -4.6 5.35 -1.35 -3.45 -7.15 -10.3 L-5.1 -4.95 Q-5.75 -3.65 -6.95 -2.95 -11.1 -0.5 -15.7 -2.0 -21.35 -4.05 -21.6 -10.15 -10.3 -12.5 -4.5 -22.5 1.05 -22.95 6.2 -21.0" fill="#ffffff" fill-rule="evenodd" stroke="none"/>
  </g>
</svg>
