<?xml version="1.0" encoding="UTF-8" standalone="no"?>
<svg xmlns:xlink="http://www.w3.org/1999/xlink" height="129.55px" width="100.6px" xmlns="http://www.w3.org/2000/svg">
  <g transform="matrix(1.0, 0.0, 0.0, 1.0, 46.45, 62.8)">
    <path d="M-1.85 -54.95 Q-9.65 -55.45 -16.5 -58.95 1.65 -64.1 20.0 -60.2 L18.55 -58.35 Q8.6 -54.65 -1.85 -54.95 M21.45 -59.4 Q26.45 -56.5 30.4 -51.95 L28.5 -48.7 20.35 -58.15 21.45 -59.4 M18.9 -40.75 L14.55 -43.8 18.2 -51.6 22.3 -48.3 Q30.15 -41.75 34.9 -32.6 L20.1 -45.95 18.9 -40.75" fill="#ffcccc" fill-rule="evenodd" stroke="none"/>
    <path d="M-44.35 52.15 Q-39.6 15.3 -39.65 -21.9 -39.65 -28.75 -37.45 -35.0 -36.1 -38.85 -34.1 -42.35 L-31.35 -46.6 -28.2 -50.5 Q-24.75 -54.15 -20.55 -57.0 -15.8 -60.2 -10.25 -61.5 L-5.65 -62.25 1.8 -62.8 6.9 -62.65 11.95 -62.1 16.95 -61.4 Q25.65 -60.1 30.2 -52.6 L30.8 -51.6 29.5 -46.8 Q48.4 -8.4 53.6 34.4 54.7 43.4 53.65 52.35 L52.65 59.55 -46.45 66.75 -45.0 56.8 -45.15 65.6 -39.7 64.3 -31.95 63.05 -27.8 62.6 -23.65 62.2 -19.85 61.9 -12.5 61.4 -8.6 61.1 -8.6 59.65 -8.5 61.1 -5.55 61.05 0.2 61.3 3.5 61.4 18.55 61.65 27.85 60.0 31.1 59.35 35.45 58.65 Q38.25 59.75 40.4 58.05 L46.3 57.75 50.45 58.1 51.8 58.3 51.95 56.8 52.2 53.5 52.25 50.15 51.85 43.35 51.55 39.9 51.2 36.75 51.2 36.7 50.45 30.35 49.7 24.5 49.25 21.2 48.0 13.6 47.3 10.3 46.5 6.95 46.3 6.25 45.1 2.0 43.85 -1.7 42.75 -4.65 40.4 -10.15 37.55 -15.25 35.85 -19.15 31.1 -26.75 30.7 -27.3 27.85 -30.7 27.75 -30.8 24.55 -33.95 22.15 -36.05 18.55 -39.05 14.55 -42.4 11.8 -34.0 9.55 -30.85 7.8 -32.05 5.1 -34.0 3.5 -35.15 0.2 -37.6 -4.85 -41.6 -8.6 -44.8 -8.8 -45.05 -12.35 -48.75 -12.6 -49.05 -15.8 -53.25 -15.9 -53.45 -18.0 -56.95 -19.8 -56.05 -23.4 -53.45 -23.65 -53.25 -23.65 -53.65 -27.0 -48.75 -27.8 -48.75 -27.8 -47.6 -35.55 -36.2 -37.75 -27.55 -38.65 -19.15 -38.65 -15.2 -38.6 -12.95 -37.85 -4.6 -37.25 2.0 -37.2 6.95 -37.4 10.35 -37.75 13.6 -38.45 21.45 -39.05 24.45 -39.5 27.85 -39.7 27.85 -39.5 27.85 -39.7 28.95 -41.2 36.5 -41.2 36.55 -42.0 40.0 -42.75 43.35 -44.05 50.15 -44.35 52.15 M-39.7 27.85 L-39.7 28.95 -39.7 27.85 M-17.45 -57.75 Q-11.35 -49.1 -3.1 -42.4 3.05 -37.4 9.75 -33.0 L16.3 -52.85 Q22.45 -52.7 26.35 -47.25 28.2 -44.7 30.4 -42.35 L19.8 -56.8 Q9.2 -53.6 -1.85 -54.25 -9.95 -54.55 -17.45 -57.75 M-1.85 -54.95 Q8.6 -54.65 18.55 -58.35 L20.0 -60.2 Q1.65 -64.1 -16.5 -58.95 -9.65 -55.45 -1.85 -54.95 M21.45 -59.4 L20.35 -58.15 28.5 -48.7 30.4 -51.95 Q26.45 -56.5 21.45 -59.4 M34.9 -32.6 Q30.15 -41.75 22.3 -48.3 L18.2 -51.6 14.55 -43.8 18.9 -40.75 Q27.7 -34.35 33.85 -25.35 36.7 -21.25 38.5 -16.65 37.4 -24.9 34.9 -32.6" fill="#000000" fill-rule="evenodd" stroke="none"/>
    <path d="M-11.2 -51.9 L-11.5 -52.6 -11.2 -53.3 -10.5 -53.6 -9.8 -53.3 Q-9.5 -53.0 -9.5 -52.6 -9.5 -52.2 -9.8 -51.9 -10.1 -51.6 -10.5 -51.6 -10.9 -51.6 -11.2 -51.9 M-6.5 -49.85 Q-6.1 -49.85 -5.8 -49.55 -5.5 -49.25 -5.5 -48.85 -5.5 -48.45 -5.8 -48.15 -6.1 -47.85 -6.5 -47.85 L-7.2 -48.15 -7.5 -48.85 -7.2 -49.55 -6.5 -49.85 M-3.25 -45.6 L-2.95 -46.3 Q-2.65 -46.6 -2.25 -46.6 L-1.55 -46.3 Q-1.25 -46.0 -1.25 -45.6 -1.25 -45.2 -1.55 -44.9 -1.85 -44.6 -2.25 -44.6 -2.65 -44.6 -2.95 -44.9 L-3.25 -45.6 M14.55 -52.25 L13.95 -52.05 13.4 -52.25 Q13.15 -52.5 13.15 -52.85 13.15 -53.2 13.4 -53.4 L13.95 -53.65 14.55 -53.4 14.75 -52.85 14.55 -52.25 M11.0 -42.85 L10.7 -42.15 Q10.4 -41.85 10.0 -41.85 9.6 -41.85 9.3 -42.15 9.0 -42.45 9.0 -42.85 9.0 -43.25 9.3 -43.55 9.6 -43.85 10.0 -43.85 L10.7 -43.55 11.0 -42.85 M11.05 -48.15 Q10.75 -48.45 10.75 -48.85 10.75 -49.25 11.05 -49.5 11.3 -49.8 11.7 -49.8 12.1 -49.8 12.4 -49.5 L12.65 -48.85 12.4 -48.15 11.7 -47.9 Q11.3 -47.9 11.05 -48.15 M3.2 -40.55 Q2.9 -40.25 2.45 -40.25 2.0 -40.25 1.7 -40.55 1.4 -40.85 1.4 -41.3 1.4 -41.75 1.7 -42.05 2.0 -42.35 2.45 -42.35 L3.2 -42.05 3.5 -41.3 3.2 -40.55 M5.75 -38.5 L6.35 -38.95 6.7 -39.05 6.95 -39.0 7.7 -38.2 7.65 -37.75 6.95 -37.1 Q5.5 -37.05 5.75 -38.5" fill="#8f2493" fill-rule="evenodd" stroke="none"/>
    <path d="M-11.2 -51.9 Q-10.9 -51.6 -10.5 -51.6 -10.1 -51.6 -9.8 -51.9 -9.5 -52.2 -9.5 -52.6 -9.5 -53.0 -9.8 -53.3 L-10.5 -53.6 -11.2 -53.3 -11.5 -52.6 -11.2 -51.9 M-6.5 -49.85 L-7.2 -49.55 -7.5 -48.85 -7.2 -48.15 -6.5 -47.85 Q-6.1 -47.85 -5.8 -48.15 -5.5 -48.45 -5.5 -48.85 -5.5 -49.25 -5.8 -49.55 -6.1 -49.85 -6.5 -49.85 M-17.45 -57.75 Q-9.95 -54.55 -1.85 -54.25 9.2 -53.6 19.8 -56.8 L30.4 -42.35 Q28.2 -44.7 26.35 -47.25 22.45 -52.7 16.3 -52.85 L9.75 -33.0 Q3.05 -37.4 -3.1 -42.4 -11.35 -49.1 -17.45 -57.75 M-3.25 -45.6 L-2.95 -44.9 Q-2.65 -44.6 -2.25 -44.6 -1.85 -44.6 -1.55 -44.9 -1.25 -45.2 -1.25 -45.6 -1.25 -46.0 -1.55 -46.3 L-2.25 -46.6 Q-2.65 -46.6 -2.95 -46.3 L-3.25 -45.6 M14.55 -52.25 L14.75 -52.85 14.55 -53.4 13.95 -53.65 13.4 -53.4 Q13.15 -53.2 13.15 -52.85 13.15 -52.5 13.4 -52.25 L13.95 -52.05 14.55 -52.25 M18.9 -40.75 L20.1 -45.95 34.9 -32.6 Q37.4 -24.9 38.5 -16.65 36.7 -21.25 33.85 -25.35 27.7 -34.35 18.9 -40.75 M11.05 -48.15 Q11.3 -47.9 11.7 -47.9 L12.4 -48.15 12.65 -48.85 12.4 -49.5 Q12.1 -49.8 11.7 -49.8 11.3 -49.8 11.05 -49.5 10.75 -49.25 10.75 -48.85 10.75 -48.45 11.05 -48.15 M11.0 -42.85 L10.7 -43.55 10.0 -43.85 Q9.6 -43.85 9.3 -43.55 9.0 -43.25 9.0 -42.85 9.0 -42.45 9.3 -42.15 9.6 -41.85 10.0 -41.85 10.4 -41.85 10.7 -42.15 L11.0 -42.85 M3.2 -40.55 L3.5 -41.3 3.2 -42.05 2.45 -42.35 Q2.0 -42.35 1.7 -42.05 1.4 -41.75 1.4 -41.3 1.4 -40.85 1.7 -40.55 2.0 -40.25 2.45 -40.25 2.9 -40.25 3.2 -40.55 M5.75 -38.5 Q5.5 -37.05 6.95 -37.1 L7.65 -37.75 7.7 -38.2 6.95 -39.0 6.7 -39.05 6.35 -38.95 5.75 -38.5" fill="#ffe8e8" fill-rule="evenodd" stroke="none"/>
    <path d="M-44.35 52.15 L-44.05 50.15 -42.75 43.35 -42.0 40.0 -41.2 36.55 -41.2 36.5 -39.7 28.95 -39.5 27.85 -39.05 24.45 -38.45 21.45 -37.75 13.6 -37.4 10.35 -37.2 6.95 -37.25 2.0 -37.85 -4.6 -38.6 -12.95 -38.65 -15.2 -38.65 -19.15 -37.75 -27.55 -35.55 -36.2 -27.8 -47.6 -27.8 -48.75 -27.0 -48.75 -23.65 -53.65 -23.65 -53.25 -23.4 -53.45 -19.8 -56.05 -18.0 -56.95 -15.9 -53.45 -15.8 -53.25 -12.6 -49.05 -12.35 -48.75 -8.8 -45.05 -8.6 -44.8 -4.85 -41.6 0.2 -37.6 3.5 -35.15 5.1 -34.0 7.8 -32.05 9.55 -30.85 11.8 -34.0 14.55 -42.4 18.55 -39.05 22.15 -36.05 24.55 -33.95 27.75 -30.8 27.85 -30.7 30.7 -27.3 31.1 -26.75 35.85 -19.15 37.55 -15.25 40.4 -10.15 42.75 -4.65 43.85 -1.7 45.1 2.0 46.3 6.25 46.5 6.95 47.3 10.3 48.0 13.6 49.25 21.2 49.7 24.5 50.45 30.35 51.2 36.7 51.2 36.75 51.55 39.9 51.85 43.35 52.25 50.15 52.2 53.5 51.95 56.8 51.8 58.3 50.45 58.1 46.3 57.75 40.4 58.05 Q38.25 59.75 35.45 58.65 L31.1 59.35 27.85 60.0 18.55 61.65 3.5 61.4 0.2 61.3 -5.55 61.05 -8.5 61.1 -8.6 59.65 -8.6 61.1 -12.5 61.4 -19.85 61.9 -23.65 62.2 -27.8 62.6 -31.95 63.05 -39.7 64.3 -45.15 65.6 -45.0 56.8 -44.6 53.55 -44.35 52.15 M-19.8 -53.45 L-15.9 -53.45 -19.8 -53.45 -19.8 -48.75 -19.8 -53.45 -19.8 -56.05 -19.8 -53.45 -23.4 -53.45 -19.8 -53.45 M-12.6 -48.75 L-19.8 -48.75 -12.6 -48.75 -12.6 -49.05 -12.6 -48.75 -12.35 -48.75 -12.6 -48.75 -12.6 -41.65 -12.6 -48.75 M-4.85 -41.6 L-5.55 -41.6 -8.6 -41.6 -5.55 -41.6 -4.85 -41.6 M-8.6 -44.8 L-8.6 -41.6 -8.6 -44.8 M-8.6 -41.6 L-12.6 -41.65 -8.6 -41.6 -8.6 -34.05 -8.6 -41.6 M-5.55 -34.05 L-8.6 -34.05 -5.55 -34.05 -5.55 -41.6 -5.55 -34.05 -5.55 -30.75 -5.55 -34.05 0.2 -34.0 -5.55 -34.05 M-19.8 -48.75 L-19.8 -41.65 -19.8 -48.75 -23.65 -48.75 -19.8 -48.75 M-23.65 -41.7 L-23.65 -48.75 -23.65 -41.7 -19.8 -41.65 -12.6 -41.65 -19.8 -41.65 -23.65 -41.7 -27.8 -41.7 -23.65 -41.7 -23.65 -34.1 -23.65 -41.7 M-12.6 -34.05 L-12.6 -41.65 -12.6 -34.05 -8.6 -34.05 -12.6 -34.05 -19.8 -34.1 -12.6 -34.05 -12.6 -30.75 -12.6 -34.05 M-5.55 -30.75 L-8.6 -30.75 -8.6 -34.05 -8.6 -30.75 -5.55 -30.75 -5.55 -27.35 -5.55 -30.75 0.2 -30.75 -5.55 -30.75 M0.2 -37.6 L0.2 -34.0 0.2 -37.6 M-19.8 -30.75 L-19.8 -34.1 -19.8 -30.75 -12.6 -30.75 -19.8 -30.75 -19.8 -27.4 -12.6 -27.4 -12.6 -30.75 -12.6 -27.4 -8.6 -27.35 -12.6 -27.4 -19.8 -27.4 -19.8 -30.75 -23.65 -30.75 -23.65 -34.1 -23.65 -30.75 -19.8 -30.75 M-12.6 -30.75 L-8.6 -30.75 -8.6 -27.35 -8.6 -30.75 -12.6 -30.75 M-12.6 -19.15 L-12.6 -27.4 -12.6 -19.15 -8.6 -19.15 -12.6 -19.15 -19.8 -19.15 -12.6 -19.15 -12.6 -15.2 -12.6 -19.15 M-8.6 -27.35 L-8.6 -19.15 -8.6 -27.35 -5.55 -27.35 -8.6 -27.35 M0.2 -34.0 L0.2 -30.75 0.2 -34.0 3.5 -34.0 0.2 -34.0 M3.5 -35.15 L3.5 -34.0 3.5 -35.15 M-23.65 -27.45 L-19.8 -27.4 -23.65 -27.45 -23.65 -19.15 -23.65 -27.45 -23.65 -30.75 -27.8 -30.75 -23.65 -30.75 -23.65 -27.45 -27.8 -27.45 -23.65 -27.45 M-19.8 -19.15 L-23.65 -19.15 -19.8 -19.15 -19.8 -27.4 -19.8 -19.15 -19.8 -15.2 -19.8 -19.15 M-19.8 -41.65 L-19.8 -34.1 -19.8 -41.65 M-27.0 -48.75 L-23.65 -48.75 -27.0 -48.75 M-27.8 -34.1 L-27.8 -41.7 -27.8 -34.1 -23.65 -34.1 -27.8 -34.1 -27.8 -30.75 -27.8 -34.1 -35.55 -34.15 -35.55 -30.75 -35.55 -27.5 -35.55 -30.75 -35.55 -34.15 -35.55 -36.2 -35.55 -34.15 -27.8 -34.1 M-27.8 -47.6 L-27.8 -41.7 -27.8 -47.6 M-37.75 -27.55 L-35.55 -27.5 -37.75 -27.55 M-27.8 -27.45 L-27.8 -30.75 -27.8 -27.45 -35.55 -27.5 -27.8 -27.45 -27.8 -19.15 -27.8 -27.45 M-35.55 -30.75 L-27.8 -30.75 -35.55 -30.75 M-35.55 -19.15 L-35.55 -27.5 -35.55 -19.15 -31.95 -19.15 -27.8 -19.15 -23.65 -19.15 -27.8 -19.15 -31.95 -19.15 -35.55 -19.15 -38.65 -19.15 -35.55 -19.15 -35.55 -15.2 -35.55 -19.15 M-27.8 -15.2 L-27.8 -19.15 -27.8 -15.2 -23.65 -15.2 -23.65 -19.15 -23.65 -15.2 -27.8 -15.2 -27.8 -12.85 -27.8 -15.2 -31.95 -15.2 -31.95 -12.9 -31.95 -15.2 -27.8 -15.2 M-23.65 -12.8 L-27.8 -12.85 -23.65 -12.8 -23.65 -15.2 -19.8 -15.2 -23.65 -15.2 -23.65 -12.8 -23.65 -4.65 -23.65 -12.8 -19.8 -12.75 -23.65 -12.8 M-8.6 -19.15 L-8.6 -15.2 -12.6 -15.2 -8.6 -15.2 -8.6 -19.15 -5.55 -19.15 -8.6 -19.15 M-5.55 -27.35 L-5.55 -19.15 -5.55 -27.35 0.2 -27.35 -5.55 -27.35 M0.2 -30.75 L0.2 -27.35 0.2 -30.75 M-35.55 -15.2 L-38.65 -15.2 -35.55 -15.2 -35.55 -12.9 -35.55 -15.2 -31.95 -15.2 -31.95 -19.15 -31.95 -15.2 -35.55 -15.2 M-38.6 -12.95 L-35.55 -12.9 -38.6 -12.95 M-27.8 -12.85 L-31.95 -12.9 -27.8 -12.85 -27.8 -4.65 -27.8 -12.85 M-23.65 -4.65 L-27.8 -4.65 -23.65 -4.65 -23.65 -1.65 -27.8 -1.65 -23.65 -1.65 -23.65 -4.65 -19.8 -4.65 -23.65 -4.65 M-19.8 -15.2 L-19.8 -12.75 -19.8 -15.2 -12.6 -15.2 -19.8 -15.2 M-12.6 -12.7 L-12.6 -15.2 -12.6 -12.7 -8.6 -12.65 -12.6 -12.7 -19.8 -12.75 -12.6 -12.7 -12.6 -4.65 -12.6 -12.7 M-5.55 -15.2 L-8.6 -15.2 -8.6 -12.65 -8.6 -15.2 -5.55 -15.2 -5.55 -19.15 -5.55 -15.2 -5.55 -12.65 -5.55 -15.2 0.2 -15.2 -5.55 -15.2 M0.2 -19.15 L-5.55 -19.15 0.2 -19.15 0.2 -27.35 0.2 -19.15 0.2 -15.2 0.2 -19.15 3.95 -19.15 0.2 -19.15 M3.5 -27.3 L0.2 -27.35 3.5 -27.3 3.5 -30.8 3.5 -34.0 3.5 -30.8 3.5 -27.3 3.95 -19.15 3.5 -27.3 7.8 -27.3 3.5 -27.3 M-35.55 -12.9 L-31.95 -12.9 -35.55 -12.9 -35.55 -4.65 -35.55 -12.9 M5.1 -34.0 L3.5 -34.0 5.1 -34.0 M-31.95 -4.65 L-35.55 -4.65 -31.95 -4.65 -31.95 -1.65 -35.55 -1.65 -31.95 -1.65 -31.95 -4.65 -31.95 -12.9 -31.95 -4.65 -27.8 -4.65 -31.95 -4.65 M-27.8 -1.65 L-27.8 -4.65 -27.8 -1.65 -31.95 -1.65 -31.95 2.0 -31.95 -1.65 -27.8 -1.65 -27.8 2.0 -27.8 -1.65 M-19.8 -12.75 L-19.8 -4.65 -19.8 -12.75 M-8.6 -4.65 L-12.6 -4.65 -8.6 -4.65 -8.6 -12.65 -8.6 -4.65 -8.6 -1.65 -12.6 -1.65 -8.6 -1.65 -8.6 -4.65 -5.55 -4.65 -8.6 -4.65 M-5.55 -12.65 L-8.6 -12.65 -5.55 -12.65 -5.55 -4.65 -5.55 -12.65 0.2 -12.55 -5.55 -12.65 M7.8 -30.8 L7.8 -27.3 7.8 -30.8 3.5 -30.8 7.8 -30.8 14.55 -30.8 7.8 -30.8 7.8 -32.05 7.8 -30.8 M-35.55 2.0 L-35.55 -1.65 -35.55 -4.65 -35.55 -1.65 -35.55 2.0 -31.95 2.0 -35.55 2.0 -37.25 2.0 -35.55 2.0 -35.55 6.95 -37.2 6.95 -35.55 6.95 -35.55 10.35 -35.55 6.95 -35.55 2.0 M-23.65 2.0 L-27.8 2.0 -23.65 2.0 -23.65 -1.65 -19.8 -1.65 -23.65 -1.65 -23.65 2.0 -23.65 6.95 -23.65 10.35 -27.8 10.35 -23.65 10.35 -23.65 6.95 -23.65 2.0 -19.8 2.0 -12.6 2.0 -19.8 2.0 -19.8 6.95 -19.8 10.35 -19.8 6.95 -19.8 2.0 -23.65 2.0 M-19.8 -4.65 L-19.8 -1.65 -19.8 -4.65 -12.6 -4.65 -19.8 -4.65 M-12.6 -1.65 L-12.6 -4.65 -12.6 -1.65 -19.8 -1.65 -12.6 -1.65 -12.6 2.0 -12.6 -1.65 M0.2 -15.2 L0.2 -12.55 0.2 -15.2 3.95 -15.2 3.95 -19.15 3.95 -15.2 0.2 -15.2 M7.8 -19.15 L3.95 -19.15 7.8 -19.15 7.8 -27.3 7.8 -19.15 7.8 -15.25 7.8 -19.15 14.55 -19.15 7.8 -19.15 M14.55 -27.3 L7.8 -27.3 14.55 -27.3 14.55 -30.8 14.55 -27.3 14.55 -19.15 14.55 -27.3 18.55 -27.3 14.55 -27.3 M-37.85 -4.6 L-35.55 -4.65 -37.85 -4.6 M-8.6 2.0 L-12.6 2.0 -8.6 2.0 -8.6 -1.65 -5.55 -1.65 -8.6 -1.65 -8.6 2.0 -8.6 6.95 -8.6 2.0 -5.55 2.0 -5.55 -1.65 -5.55 2.0 0.2 2.0 0.2 -1.65 0.2 2.0 3.5 2.0 3.95 2.0 3.5 2.0 0.2 2.0 -5.55 2.0 -8.6 2.0 M-5.55 -4.65 L-5.55 -1.65 -5.55 -4.65 0.2 -4.65 -5.55 -4.65 M0.2 -12.55 L0.2 -4.65 0.2 -12.55 3.95 -12.55 0.2 -12.55 M7.8 -15.25 L5.0 -15.2 3.95 -15.2 3.95 -12.55 3.95 -15.2 5.0 -15.2 7.8 -15.25 10.4 -15.25 14.55 -15.25 18.55 -15.25 18.55 -12.5 18.55 -4.65 18.55 -12.5 18.55 -15.25 14.55 -15.25 14.55 -12.5 18.55 -12.5 14.55 -12.5 14.55 -4.65 14.55 -12.5 14.55 -15.25 14.55 -19.15 18.55 -19.15 18.55 -15.25 22.15 -15.25 18.55 -15.25 18.55 -19.15 22.15 -19.15 18.55 -19.15 18.55 -27.3 18.55 -30.8 14.55 -30.8 18.55 -30.8 18.55 -27.3 18.55 -19.15 14.55 -19.15 14.55 -15.25 10.4 -15.25 7.8 -15.25 7.8 -15.2 7.8 -15.25 M14.55 -34.0 L14.55 -30.8 14.55 -34.0 11.8 -34.0 14.55 -34.0 18.55 -33.95 14.55 -34.0 14.55 -42.4 14.55 -34.0 M-23.65 -34.1 L-19.8 -34.1 -23.65 -34.1 M-23.65 -53.25 L-23.65 -48.75 -23.65 -53.25 M22.15 -33.95 L22.15 -36.05 22.15 -33.95 24.55 -33.95 22.15 -33.95 22.15 -30.8 22.15 -33.95 18.55 -33.95 18.55 -30.8 22.15 -30.8 18.55 -30.8 18.55 -33.95 22.15 -33.95 M22.15 -30.8 L22.15 -27.3 22.15 -30.8 27.75 -30.8 22.15 -30.8 M27.85 -30.7 L27.85 -27.3 27.85 -30.7 M30.7 -27.3 L27.85 -27.3 22.15 -27.3 27.85 -27.3 30.7 -27.3 M18.55 -39.05 L18.55 -33.95 18.55 -39.05 M18.55 -4.65 L14.55 -4.65 18.55 -4.65 18.55 -1.7 14.55 -1.7 18.55 -1.7 18.55 -4.65 22.15 -4.65 18.55 -4.65 M7.8 -12.5 L14.55 -12.5 7.8 -12.5 7.8 -4.65 7.8 -12.5 7.8 -15.2 7.8 -12.5 3.95 -12.55 7.8 -12.5 M14.55 -4.65 L7.8 -4.65 14.55 -4.65 14.55 -1.7 14.55 -4.65 M22.15 -12.5 L22.15 -4.65 22.15 -12.5 18.55 -12.5 22.15 -12.5 27.85 -12.5 22.15 -12.5 22.15 -15.25 22.15 -19.15 22.15 -15.25 22.15 -12.5 M22.15 -27.3 L18.55 -27.3 22.15 -27.3 22.15 -19.15 22.15 -27.3 M27.85 -19.15 L22.15 -19.15 27.85 -19.15 27.85 -27.3 27.85 -19.15 27.85 -15.25 27.85 -19.15 31.1 -19.15 27.85 -19.15 M5.0 -15.2 L7.8 -15.2 5.0 -15.2 M3.95 -4.65 L3.95 -9.85 3.95 -12.55 3.95 -9.85 3.95 -4.65 7.8 -4.65 3.95 -4.65 3.5 -4.65 3.95 -4.65 3.95 -1.7 6.75 -1.7 7.8 -1.7 7.8 -4.65 7.8 -1.7 14.55 -1.7 7.8 -1.7 6.75 -1.7 3.95 -1.7 3.95 -4.65 M14.55 2.0 L14.55 -1.7 14.55 2.0 18.55 2.0 14.55 2.0 7.8 2.0 14.55 2.0 14.55 6.95 14.55 2.0 M22.15 -1.7 L18.55 -1.7 18.55 2.0 18.55 -1.7 22.15 -1.7 22.15 -4.65 22.15 -1.7 22.15 2.0 22.15 -1.7 27.85 -1.7 22.15 -1.7 M27.85 -4.65 L22.15 -4.65 27.85 -4.65 27.85 -12.5 27.85 -4.65 27.85 -1.7 27.85 -4.65 31.1 -4.65 27.85 -4.65 M27.85 -15.25 L22.15 -15.25 27.85 -15.25 27.85 -12.5 27.85 -15.25 31.1 -15.25 31.1 -19.15 31.1 -26.75 31.1 -19.15 31.1 -15.25 27.85 -15.25 M7.8 2.0 L7.8 -1.7 7.8 2.0 7.8 6.95 7.8 2.0 3.95 2.0 3.95 -1.65 3.5 -1.65 3.5 -1.7 1.15 -1.65 3.5 -1.65 3.5 2.0 3.5 -1.65 1.15 -1.65 0.2 -1.65 1.15 -1.65 3.5 -1.7 3.5 -1.65 3.95 -1.65 3.95 2.0 7.8 2.0 M18.55 6.95 L14.55 6.95 18.55 6.95 18.55 2.0 18.55 6.95 18.55 10.3 14.55 10.3 18.55 10.3 18.55 6.95 22.15 6.95 27.85 6.95 22.15 6.95 22.15 10.3 22.15 6.95 22.15 2.0 18.55 2.0 22.15 2.0 27.85 2.0 31.1 2.0 27.85 2.0 27.85 6.95 31.1 6.95 27.85 6.95 27.85 10.3 27.85 13.6 27.85 10.3 27.85 6.95 27.85 2.0 22.15 2.0 22.15 6.95 18.55 6.95 M31.1 -12.5 L31.1 -4.65 31.1 -12.5 27.85 -12.5 31.1 -12.5 31.1 -15.25 35.45 -15.25 31.1 -15.25 31.1 -12.5 35.45 -12.5 31.1 -12.5 M35.85 -19.15 L35.45 -19.15 31.1 -19.15 35.45 -19.15 35.85 -19.15 M3.5 -4.65 L3.5 -1.7 3.95 -1.7 3.95 -1.65 6.75 -1.7 3.95 -1.65 3.95 -1.7 3.5 -1.7 3.5 -4.65 0.2 -4.65 3.5 -4.65 3.95 -9.85 3.5 -4.65 M0.2 -1.65 L0.2 -4.65 0.2 -1.65 -5.55 -1.65 0.2 -1.65 M0.2 6.95 L0.2 2.0 0.2 6.95 3.5 6.95 0.2 6.95 0.2 10.3 0.2 6.95 -5.55 6.95 0.2 6.95 M10.4 -15.25 L7.8 -15.2 10.4 -15.25 M3.5 2.0 L3.5 6.95 3.5 2.0 M35.45 -19.15 L35.45 -15.25 35.45 -19.15 M37.55 -15.25 L35.45 -15.25 37.55 -15.25 M35.45 -4.65 L35.45 -12.5 35.45 -15.25 35.45 -12.5 35.45 -4.65 40.4 -4.65 35.45 -4.65 31.1 -4.65 35.45 -4.65 35.45 -1.7 35.45 -4.65 M40.4 -10.15 L40.4 -4.65 40.4 -10.15 M40.4 -4.65 L40.4 -1.7 35.45 -1.7 40.4 -1.7 40.4 -4.65 42.75 -4.65 40.4 -4.65 M35.45 -1.7 L31.1 -1.7 31.1 -4.65 31.1 -1.7 35.45 -1.7 35.45 2.0 35.45 -1.7 M40.4 2.0 L35.45 2.0 40.4 2.0 40.4 -1.7 43.85 -1.7 40.4 -1.7 40.4 2.0 40.4 6.95 40.4 2.0 45.1 2.0 40.4 2.0 M31.1 2.0 L31.1 -1.7 27.85 -1.7 31.1 -1.7 31.1 2.0 35.45 2.0 31.1 2.0 31.1 6.95 31.1 2.0 M35.45 6.95 L35.45 2.0 35.45 6.95 40.4 6.95 35.45 6.95 35.45 10.3 35.45 6.95 31.1 6.95 31.1 10.3 27.85 10.3 31.1 10.3 31.1 6.95 35.45 6.95 M46.3 6.95 L46.3 10.3 46.3 6.95 40.4 6.95 46.3 6.95 46.3 6.25 46.3 6.95 46.5 6.95 46.3 6.95 M47.3 10.3 L46.3 10.3 40.4 10.3 40.4 6.95 40.4 10.3 46.3 10.3 47.3 10.3 M49.7 24.5 L46.3 24.5 49.7 24.5 M46.3 36.7 L46.3 27.85 46.3 24.5 46.3 21.2 46.3 24.5 46.3 27.85 46.3 36.7 50.45 36.7 46.3 36.7 46.3 39.9 46.3 36.7 40.4 36.7 46.3 36.7 M50.45 30.35 L50.45 36.7 50.45 30.35 M48.0 13.6 L46.3 13.6 48.0 13.6 M49.25 21.2 L46.3 21.2 49.25 21.2 M46.3 13.6 L46.3 21.2 46.3 13.6 40.4 13.6 46.3 13.6 46.3 10.3 46.3 13.6 M40.4 21.2 L40.4 13.6 40.4 21.2 46.3 21.2 40.4 21.2 35.45 21.2 40.4 21.2 40.4 24.5 46.3 24.5 40.4 24.5 40.4 21.2 M50.45 43.35 L46.3 43.35 50.45 43.35 50.45 39.9 46.3 39.9 50.45 39.9 50.45 43.35 50.45 50.15 50.45 43.35 51.85 43.35 50.45 43.35 M46.3 50.15 L46.3 43.35 46.3 39.9 46.3 43.35 46.3 50.15 50.45 50.15 46.3 50.15 40.4 50.15 46.3 50.15 46.3 53.5 46.3 50.15 M46.3 39.9 L40.4 39.9 40.4 36.7 40.4 39.9 46.3 39.9 M51.2 36.7 L50.45 36.7 51.2 36.7 M50.45 36.7 L50.45 39.9 51.55 39.9 50.45 39.9 50.45 36.7 M31.1 13.6 L27.85 13.6 31.1 13.6 31.1 10.3 35.45 10.3 31.1 10.3 31.1 13.6 31.1 21.2 31.1 13.6 35.45 13.6 40.4 13.6 35.45 13.6 35.45 21.2 35.45 13.6 31.1 13.6 M40.4 13.6 L40.4 10.3 35.45 10.3 40.4 10.3 40.4 13.6 M27.85 10.3 L22.15 10.3 27.85 10.3 M22.15 24.5 L22.15 21.2 22.15 24.5 27.85 24.5 22.15 24.5 18.55 24.5 14.55 24.4 18.55 24.5 22.15 24.5 22.15 27.85 22.15 24.5 M27.85 -1.7 L27.85 2.0 27.85 -1.7 M27.85 21.2 L27.85 24.5 27.85 21.2 22.15 21.2 27.85 21.2 27.85 13.6 27.85 21.2 31.1 21.2 27.85 21.2 M22.15 13.6 L22.15 21.2 22.15 13.6 18.55 13.6 14.55 13.6 18.55 13.6 22.15 13.6 27.85 13.6 22.15 13.6 22.15 10.3 22.15 13.6 M14.55 21.2 L14.55 13.6 14.55 21.2 22.15 21.2 14.55 21.2 7.8 21.2 14.55 21.2 14.55 24.4 14.55 21.2 M35.45 10.3 L35.45 13.6 35.45 10.3 M35.45 24.5 L31.1 24.5 31.1 21.2 31.1 24.5 35.45 24.5 35.45 21.2 35.45 24.5 40.4 24.5 40.4 27.85 40.4 24.5 35.45 24.5 35.45 27.85 35.45 24.5 M18.55 13.6 L18.55 10.3 22.15 10.3 18.55 10.3 18.55 13.6 M31.1 21.2 L35.45 21.2 31.1 21.2 M46.3 27.85 L40.4 27.85 35.45 27.85 40.4 27.85 46.3 27.85 M31.1 27.85 L31.1 24.5 27.85 24.5 31.1 24.5 31.1 27.85 35.45 27.85 31.1 27.85 27.85 27.85 31.1 27.85 31.1 36.7 31.1 27.85 M35.45 36.7 L35.45 27.85 35.45 36.7 40.4 36.7 35.45 36.7 31.1 36.7 35.45 36.7 35.45 39.9 35.45 36.7 M40.4 27.85 L40.4 36.7 40.4 27.85 M14.55 13.6 L14.55 10.3 14.55 6.95 14.55 10.3 14.55 13.6 7.8 13.6 14.55 13.6 M7.8 21.2 L7.8 13.6 7.8 21.2 3.5 21.2 7.8 21.2 7.8 24.4 7.8 21.2 M27.85 27.85 L22.15 27.85 27.85 27.85 27.85 24.5 27.85 27.85 27.85 36.7 27.85 27.85 M3.5 6.95 L3.5 10.3 0.2 10.3 3.5 10.3 3.5 6.95 7.8 6.95 7.8 10.3 7.8 6.95 3.5 6.95 M14.55 6.95 L7.8 6.95 14.55 6.95 M3.5 13.6 L3.5 10.3 7.8 10.3 3.5 10.3 3.5 13.6 7.8 13.6 3.5 13.6 0.2 13.6 3.5 13.6 3.5 21.2 3.5 13.6 M7.8 10.3 L7.8 13.6 7.8 10.3 14.55 10.3 7.8 10.3 M14.55 24.4 L7.8 24.4 14.55 24.4 14.55 27.85 14.55 24.4 M18.55 27.85 L14.55 27.85 18.55 27.85 18.55 24.5 18.55 27.85 18.55 36.7 18.55 39.95 14.55 39.95 18.55 39.95 18.55 36.7 18.55 27.85 22.15 27.85 18.55 27.85 M0.2 21.2 L3.5 21.2 0.2 21.2 0.2 24.4 0.2 21.2 0.2 13.6 0.2 21.2 -5.55 21.2 0.2 21.2 M7.8 24.4 L3.5 24.4 0.2 24.4 3.5 24.4 3.5 21.2 3.5 24.4 7.8 24.4 7.8 27.85 7.8 24.4 M14.55 27.85 L7.8 27.85 14.55 27.85 14.55 36.7 14.55 39.95 14.55 36.7 14.55 27.85 M22.15 36.7 L22.15 27.85 22.15 36.7 27.85 36.7 22.15 36.7 22.15 39.9 22.15 36.7 18.55 36.7 22.15 36.7 M40.4 43.35 L40.4 39.9 35.45 39.9 40.4 39.9 40.4 43.35 46.3 43.35 40.4 43.35 35.45 43.35 40.4 43.35 40.4 50.15 40.4 43.35 M-5.55 13.6 L0.2 13.6 -5.55 13.6 -5.55 21.2 -5.55 13.6 -8.6 13.6 -5.55 13.6 -5.55 10.35 -8.6 10.35 -8.6 6.95 -8.6 10.35 -5.55 10.35 -5.55 6.95 -5.55 10.35 -5.55 13.6 M0.2 36.7 L0.2 27.85 0.2 36.7 3.5 36.7 0.2 36.7 0.2 39.95 3.5 39.95 3.5 43.35 7.8 43.35 3.5 43.35 3.5 50.15 3.5 43.35 3.5 39.95 0.2 39.95 0.2 43.35 0.2 39.95 0.2 36.7 -5.55 36.7 0.2 36.7 M0.2 13.6 L0.2 10.3 0.2 13.6 M3.5 27.85 L3.5 36.7 3.5 27.85 0.2 27.85 3.5 27.85 7.8 27.85 3.5 27.85 3.5 24.4 3.5 27.85 M0.2 24.4 L0.2 27.85 0.2 24.4 -5.55 24.4 0.2 24.4 M-5.55 27.85 L-5.55 24.4 -5.55 27.85 0.2 27.85 -5.55 27.85 -8.6 27.85 -5.55 27.85 -5.55 36.7 -5.55 27.85 M3.5 36.7 L7.8 36.7 3.5 36.7 3.5 39.95 7.8 39.95 3.5 39.95 3.5 36.7 M7.8 27.85 L7.8 36.7 7.8 39.95 7.8 36.7 7.8 27.85 M7.8 50.15 L3.5 50.15 7.8 50.15 7.8 43.35 7.8 39.95 7.8 43.35 7.8 50.15 7.8 53.5 7.8 50.15 14.55 50.15 14.55 43.35 14.55 39.95 14.55 43.35 14.55 50.15 18.55 50.15 14.55 50.15 7.8 50.15 M14.55 39.95 L7.8 39.95 14.55 39.95 M18.55 39.95 L18.55 50.15 18.55 39.95 M7.8 43.35 L14.55 43.35 7.8 43.35 M3.5 43.35 L0.2 43.35 3.5 43.35 M-5.55 39.95 L0.2 39.95 -5.55 39.95 -5.55 43.35 -5.55 39.95 -5.55 36.7 -5.55 39.95 -6.4 39.95 -8.6 40.0 -8.6 43.35 -8.6 40.0 -6.4 39.95 -5.55 39.95 M0.2 43.35 L-5.55 43.35 0.2 43.35 0.2 50.15 0.2 43.35 M3.5 50.15 L0.2 50.15 3.5 50.15 3.5 53.5 7.8 53.5 3.5 53.5 3.5 50.15 M14.55 53.5 L14.55 50.15 14.55 53.5 18.55 53.5 18.55 50.15 18.55 53.5 14.55 53.5 14.55 56.8 18.55 56.8 14.55 56.8 14.55 53.5 7.8 53.5 14.55 53.5 M27.85 43.35 L22.15 43.35 27.85 43.35 27.85 39.9 27.85 43.35 27.85 50.15 27.85 43.35 31.1 43.35 27.85 43.35 M7.8 36.7 L14.55 36.7 7.8 36.7 M22.15 39.9 L27.85 39.9 22.15 39.9 22.15 43.35 22.15 50.15 22.15 43.35 22.15 39.9 M27.85 50.15 L22.15 50.15 27.85 50.15 27.85 53.5 27.85 56.8 27.85 53.5 27.85 50.15 31.1 50.15 35.45 50.15 31.1 50.15 31.1 53.5 35.45 53.5 40.4 53.5 40.4 56.8 40.4 53.5 35.45 53.5 31.1 53.5 31.1 50.15 27.85 50.15 M27.85 39.9 L31.1 39.9 31.1 43.35 31.1 39.9 27.85 39.9 27.85 36.7 27.85 39.9 M31.1 36.7 L27.85 36.7 31.1 36.7 31.1 39.9 35.45 39.9 31.1 39.9 31.1 36.7 M35.45 43.35 L35.45 39.9 35.45 43.35 31.1 43.35 35.45 43.35 35.45 50.15 35.45 43.35 M50.45 50.15 L50.45 53.5 46.3 53.5 50.45 53.5 50.45 50.15 52.25 50.15 50.45 50.15 M40.4 50.15 L35.45 50.15 40.4 50.15 40.4 53.5 46.3 53.5 40.4 53.5 40.4 50.15 M46.3 56.8 L46.3 53.5 46.3 56.8 50.45 56.8 46.3 56.8 40.4 56.8 46.3 56.8 46.3 57.75 46.3 56.8 M52.2 53.5 L50.45 53.5 50.45 56.8 50.45 53.5 52.2 53.5 M35.45 50.15 L35.45 53.5 35.45 50.15 M31.1 59.35 L31.1 56.8 31.1 59.35 M35.45 58.65 L35.45 56.8 35.45 58.65 M40.4 56.8 L35.45 56.8 40.4 56.8 40.4 58.05 40.4 56.8 M31.1 56.8 L31.1 53.5 31.1 56.8 35.45 56.8 31.1 56.8 27.85 56.8 31.1 56.8 M35.45 53.5 L35.45 56.8 35.45 53.5 M22.15 53.5 L27.85 53.5 22.15 53.5 22.15 56.8 22.15 53.5 22.15 50.15 22.15 53.5 18.55 53.5 18.55 56.8 18.55 53.5 22.15 53.5 M27.85 56.8 L22.15 56.8 27.85 56.8 27.85 60.0 27.85 56.8 M31.1 43.35 L31.1 50.15 31.1 43.35 M27.85 53.5 L31.1 53.5 27.85 53.5 M3.5 56.8 L7.8 56.8 14.55 56.8 7.8 56.8 3.5 56.8 3.5 61.4 3.5 56.8 3.5 53.5 0.2 53.5 3.5 53.5 3.5 56.8 0.2 56.8 3.5 56.8 M18.55 61.65 L18.55 56.8 18.55 61.65 M0.2 56.8 L0.2 53.5 0.2 56.8 -5.55 56.8 0.2 56.8 0.2 61.3 0.2 56.8 M0.2 53.5 L0.2 50.15 0.2 53.5 -5.55 53.55 0.2 53.5 M-5.55 56.8 L-5.55 53.55 -5.55 56.8 -8.6 56.8 -5.55 56.8 -5.55 61.05 -5.55 56.8 M7.8 53.5 L7.8 56.8 7.8 53.5 M50.45 58.1 L50.45 56.8 50.45 58.1 M51.95 56.8 L50.45 56.8 51.95 56.8 M-8.6 6.95 L-5.55 6.95 -8.6 6.95 -12.6 6.95 -8.6 6.95 M-5.55 6.95 L-5.55 2.0 -5.55 6.95 M-12.6 6.95 L-19.8 6.95 -12.6 6.95 -12.6 2.0 -12.6 6.95 -12.6 10.35 -12.6 6.95 M-12.6 10.35 L-19.8 10.35 -12.6 10.35 -12.6 13.6 -12.6 10.35 -8.6 10.35 -8.6 13.6 -8.6 21.2 -8.6 13.6 -12.6 13.6 -12.6 21.2 -12.6 24.45 -12.6 21.2 -19.8 21.2 -19.8 24.45 -19.8 21.2 -23.65 21.2 -19.8 21.2 -12.6 21.2 -12.6 13.6 -8.6 13.6 -8.6 10.35 -12.6 10.35 M-12.6 24.45 L-19.8 24.45 -23.65 24.45 -23.65 21.2 -23.65 24.45 -19.8 24.45 -12.6 24.45 -9.45 24.45 -8.6 24.4 -8.6 24.45 -8.6 24.4 -9.45 24.45 -8.6 24.45 -5.95 24.4 -8.6 24.4 -8.6 21.2 -12.6 21.2 -8.6 21.2 -8.6 24.4 -5.95 24.4 -8.6 24.45 -9.45 24.45 -12.6 24.45 -12.6 27.85 -12.6 24.45 M-19.8 13.6 L-19.8 21.2 -19.8 13.6 -23.65 13.6 -19.8 13.6 -12.6 13.6 -19.8 13.6 -19.8 10.35 -19.8 13.6 M-23.65 21.2 L-23.65 13.6 -23.65 21.2 -27.8 21.3 -23.65 21.2 M-27.8 24.45 L-27.8 21.3 -27.8 24.45 -23.65 24.45 -23.65 27.85 -23.65 24.45 -27.8 24.45 -31.95 24.45 -31.95 21.35 -31.95 24.45 -27.8 24.45 -27.8 27.85 -27.8 24.45 M-19.8 27.85 L-23.65 27.85 -19.8 27.85 -19.8 24.45 -19.8 27.85 -19.8 36.6 -19.8 27.85 -12.6 27.85 -19.8 27.85 M0.2 10.3 L-5.55 10.35 0.2 10.3 M-5.55 21.2 L-8.6 21.2 -5.55 21.2 -5.55 24.4 -5.55 21.2 M-5.95 24.4 L-5.55 24.4 -5.95 24.4 M-27.8 6.95 L-23.65 6.95 -27.8 6.95 -27.8 10.35 -27.8 6.95 -27.8 2.0 -27.8 6.95 -31.95 6.95 -27.8 6.95 M-19.8 -1.65 L-19.8 2.0 -19.8 -1.65 M-27.8 10.35 L-31.95 10.35 -31.95 6.95 -31.95 10.35 -27.8 10.35 -27.8 13.6 -27.8 10.35 M-23.65 13.6 L-27.8 13.6 -23.65 13.6 -23.65 10.35 -19.8 10.35 -23.65 10.35 -23.65 13.6 M-31.95 13.6 L-31.95 10.35 -35.55 10.35 -31.95 10.35 -31.95 13.6 -27.8 13.6 -31.95 13.6 -35.55 13.6 -37.75 13.6 -35.55 13.6 -35.55 21.4 -35.55 13.6 -35.55 10.35 -37.4 10.35 -35.55 10.35 -35.55 13.6 -31.95 13.6 -31.95 21.35 -27.8 21.3 -31.95 21.35 -35.55 21.4 -35.55 24.45 -35.55 21.4 -38.45 21.45 -35.55 21.4 -31.95 21.35 -31.95 13.6 M-27.8 21.3 L-27.8 13.6 -27.8 21.3 M-23.65 27.85 L-27.8 27.85 -23.65 27.85 -23.65 36.55 -23.65 27.85 M-19.8 36.6 L-23.65 36.55 -19.8 36.6 -19.8 40.0 -19.8 36.6 -12.6 36.65 -19.8 36.6 M-31.95 6.95 L-35.55 6.95 -31.95 6.95 -31.95 2.0 -31.95 6.95 M-27.8 2.0 L-31.95 2.0 -27.8 2.0 M-31.95 27.85 L-31.95 24.45 -35.55 24.45 -31.95 24.45 -31.95 27.85 -27.8 27.85 -31.95 27.85 -35.55 27.85 -31.95 27.85 -31.95 36.5 -31.95 27.85 M-27.8 36.55 L-27.8 27.85 -27.8 36.55 -23.65 36.55 -27.8 36.55 -31.95 36.5 -27.8 36.55 -27.8 40.0 -27.8 36.55 M-19.8 40.0 L-23.65 40.0 -23.65 36.55 -23.65 40.0 -19.8 40.0 -19.8 43.35 -19.8 40.0 -12.6 40.0 -19.8 40.0 M-12.6 27.85 L-12.6 36.65 -12.6 27.85 -8.6 27.85 -12.6 27.85 M-39.05 24.45 L-35.55 24.45 -39.05 24.45 M-8.6 24.45 L-8.6 27.85 -8.6 24.45 M-35.55 27.85 L-39.5 27.85 -35.55 27.85 -35.55 24.45 -35.55 27.85 -35.55 36.5 -35.55 40.0 -35.55 36.5 -35.55 27.85 M-39.7 36.5 L-35.55 36.5 -39.7 36.5 -39.7 40.0 -35.55 40.0 -39.7 40.0 -39.7 36.5 -39.7 28.95 -39.7 36.5 -41.2 36.5 -39.7 36.5 M-23.65 43.35 L-23.65 40.0 -27.8 40.0 -23.65 40.0 -23.65 43.35 -19.8 43.35 -23.65 43.35 -27.8 43.35 -23.65 43.35 -23.65 50.15 -23.65 43.35 M-12.6 36.65 L-12.6 40.0 -12.6 36.65 -8.6 36.7 -12.6 36.65 M-8.6 27.85 L-8.6 36.7 -8.6 27.85 M-35.55 36.5 L-31.95 36.5 -35.55 36.5 M-35.55 43.35 L-35.55 40.0 -35.55 43.35 -31.95 43.35 -35.55 43.35 -39.7 43.35 -35.55 43.35 -35.55 50.15 -35.55 43.35 M-35.55 40.0 L-31.95 40.0 -31.95 43.35 -31.95 40.0 -35.55 40.0 M-31.95 50.15 L-35.55 50.15 -31.95 50.15 -31.95 43.35 -31.95 50.15 -31.95 53.55 -27.8 53.55 -23.65 53.55 -23.65 50.15 -19.8 50.15 -23.65 50.15 -23.65 53.55 -27.8 53.55 -27.8 50.15 -27.8 53.55 -27.8 56.8 -23.65 56.8 -27.8 56.8 -27.8 62.6 -27.8 56.8 -27.8 53.55 -31.95 53.55 -31.95 50.15 -27.8 50.15 -23.65 50.15 -27.8 50.15 -31.95 50.15 M-27.8 43.35 L-31.95 43.35 -27.8 43.35 -27.8 40.0 -27.8 43.35 -27.8 50.15 -27.8 43.35 M-42.0 40.0 L-39.7 40.0 -39.7 43.35 -39.7 40.0 -42.0 40.0 M-19.8 43.35 L-19.8 50.15 -19.8 43.35 -12.6 43.35 -19.8 43.35 M-12.6 40.0 L-12.6 43.35 -12.6 40.0 -9.9 40.0 -8.6 39.95 -8.6 36.7 -8.6 39.95 -9.9 40.0 -12.6 40.0 M-5.55 36.7 L-8.6 36.7 -5.55 36.7 M-5.55 43.35 L-8.6 43.35 -5.55 43.35 -5.55 50.15 -5.55 43.35 M0.2 50.15 L-5.55 50.15 0.2 50.15 M-6.4 39.95 L-8.6 39.95 -8.6 40.0 -9.9 40.0 -8.6 40.0 -8.6 39.95 -6.4 39.95 M-31.95 40.0 L-31.95 36.5 -31.95 40.0 M-12.6 43.35 L-8.6 43.35 -12.6 43.35 -12.6 50.15 -12.6 43.35 M-8.6 50.15 L-12.6 50.15 -8.6 50.15 -8.6 43.35 -8.6 50.15 -5.55 50.15 -8.6 50.15 -8.6 53.55 -5.55 53.55 -8.6 53.55 -8.6 50.15 M-23.65 6.95 L-19.8 6.95 -23.65 6.95 M-5.55 50.15 L-5.55 53.55 -5.55 50.15 M-8.6 56.8 L-8.6 53.55 -8.6 56.8 -8.6 59.65 -8.6 56.8 -12.6 56.8 -8.6 56.8 M-12.5 61.4 L-12.6 56.8 -12.5 61.4 M-12.6 56.8 L-19.85 56.8 -12.6 56.8 -12.6 53.55 -12.6 56.8 M-19.8 53.55 L-12.6 53.55 -19.8 53.55 -19.85 56.8 -19.85 61.9 -19.85 56.8 -19.8 53.55 -19.8 50.15 -12.6 50.15 -12.6 53.55 -12.6 50.15 -19.8 50.15 -19.8 53.55 -23.65 53.55 -23.65 56.8 -23.65 53.55 -19.8 53.55 M-8.6 53.55 L-12.6 53.55 -8.6 53.55 M-31.95 56.8 L-27.8 56.8 -31.95 56.8 -31.95 63.05 -31.95 56.8 -31.95 53.55 -35.55 53.55 -39.7 53.55 -39.7 50.15 -39.7 53.55 -35.55 53.55 -31.95 53.55 -31.95 56.8 -35.55 56.8 -39.7 56.8 -35.55 56.8 -31.95 56.8 M-19.85 56.8 L-23.65 56.8 -19.85 56.8 M-35.55 50.15 L-35.55 53.55 -35.55 50.15 -39.7 50.15 -35.55 50.15 M-39.7 64.3 L-39.7 56.8 -39.7 64.3 M-35.55 56.8 L-35.55 53.55 -35.55 56.8 M-44.6 53.55 L-39.7 53.55 -39.7 56.8 -39.7 53.55 -44.6 53.55 M-23.65 62.2 L-23.65 56.8 -23.65 62.2 M-39.7 43.35 L-42.75 43.35 -39.7 43.35 -39.7 50.15 -39.7 43.35 M-45.0 56.8 L-39.7 56.8 -45.0 56.8 M-44.05 50.15 L-39.7 50.15 -44.05 50.15" fill="#5c2961" fill-rule="evenodd" stroke="none"/>
    <path d="M-27.8 -47.6 L-27.8 -48.75 M-19.8 -53.45 L-19.8 -48.75 M-12.6 -48.75 L-12.6 -49.05 M-19.8 -56.05 L-19.8 -53.45 M-12.6 -48.75 L-12.6 -41.65 -12.6 -34.05 M-5.55 -34.05 L-5.55 -41.6 M-19.8 -41.65 L-19.8 -48.75 M-5.55 -30.75 L-5.55 -34.05 M0.2 -34.0 L0.2 -37.6 M-19.8 -34.1 L-19.8 -30.75 -19.8 -27.4 M-12.6 -30.75 L-12.6 -34.05 M-12.6 -30.75 L-12.6 -27.4 -12.6 -19.15 -12.6 -15.2 -12.6 -12.7 -12.6 -4.65 -12.6 -1.65 -12.6 2.0 M-5.55 -27.35 L-5.55 -30.75 M0.2 -30.75 L0.2 -34.0 M-19.8 -19.15 L-19.8 -27.4 M-19.8 -34.1 L-19.8 -41.65 M-27.8 -41.7 L-27.8 -34.1 M-27.8 -41.7 L-27.8 -47.6 M-35.55 -27.5 L-35.55 -30.75 -35.55 -34.15 -35.55 -36.2 M-27.8 -30.75 L-27.8 -27.45 M-27.8 -30.75 L-27.8 -34.1 M-35.55 -27.5 L-35.55 -19.15 M-27.8 -19.15 L-27.8 -27.45 M-27.8 -19.15 L-27.8 -15.2 -27.8 -12.85 -27.8 -4.65 -27.8 -1.65 -27.8 2.0 -27.8 6.95 -27.8 10.35 -27.8 13.6 -27.8 21.3 -27.8 24.45 -27.8 27.85 -27.8 36.55 -27.8 40.0 M-19.8 -15.2 L-19.8 -19.15 M-5.55 -19.15 L-5.55 -27.35 M0.2 -27.35 L0.2 -30.75 M-35.55 -15.2 L-35.55 -19.15 M-35.55 -12.9 L-35.55 -15.2 M-19.8 -12.75 L-19.8 -15.2 M-5.55 -15.2 L-5.55 -19.15 M0.2 -19.15 L0.2 -27.35 M-35.55 -12.9 L-35.55 -4.65 -35.55 -1.65 -35.55 2.0 -35.55 6.95 -35.55 10.35 M-19.8 -4.65 L-19.8 -12.75 M-5.55 -12.65 L-5.55 -15.2 M0.2 -15.2 L0.2 -19.15 M7.8 -27.3 L7.8 -30.8 7.8 -32.05 M-19.8 -1.65 L-19.8 -4.65 M-5.55 -4.65 L-5.55 -12.65 M0.2 -12.55 L0.2 -15.2 M7.8 -19.15 L7.8 -27.3 M14.55 -27.3 L14.55 -30.8 14.55 -34.0 14.55 -42.4 M-5.55 -1.65 L-5.55 -4.65 M0.2 -4.65 L0.2 -12.55 M7.8 -15.25 L7.8 -19.15 M14.55 -19.15 L14.55 -27.3 M22.15 -36.05 L22.15 -33.95 M22.15 -27.3 L22.15 -30.8 22.15 -33.95 M27.85 -27.3 L27.85 -30.7 M14.55 -12.5 L14.55 -4.65 14.55 -1.7 14.55 2.0 14.55 6.95 14.55 10.3 14.55 13.6 14.55 21.2 14.55 24.4 14.55 27.85 14.55 36.7 14.55 39.95 14.55 43.35 14.55 50.15 14.55 53.5 14.55 56.8 M14.55 -15.25 L14.55 -12.5 M7.8 -12.5 L7.8 -4.65 7.8 -1.7 7.8 2.0 M22.15 -4.65 L22.15 -12.5 22.15 -15.25 22.15 -19.15 M22.15 -27.3 L22.15 -19.15 M27.85 -19.15 L27.85 -27.3 M14.55 -15.25 L14.55 -19.15 M7.8 -12.5 L7.8 -15.2 7.8 -15.25 M22.15 -1.7 L22.15 -4.65 M27.85 -4.65 L27.85 -12.5 27.85 -15.25 27.85 -19.15 M22.15 2.0 L22.15 -1.7 M27.85 -1.7 L27.85 -4.65 M0.2 -1.65 L0.2 2.0 0.2 6.95 0.2 10.3 0.2 13.6 M0.2 -4.65 L0.2 -1.65 M-5.55 -1.65 L-5.55 2.0 -5.55 6.95 M35.45 -15.25 L35.45 -19.15 M35.45 -15.25 L35.45 -12.5 35.45 -4.65 35.45 -1.7 35.45 2.0 35.45 6.95 M46.3 10.3 L46.3 6.95 46.3 6.25 M46.3 21.2 L46.3 24.5 46.3 27.85 46.3 36.7 M46.3 21.2 L46.3 13.6 46.3 10.3 M46.3 39.9 L46.3 43.35 46.3 50.15 46.3 53.5 46.3 56.8 46.3 57.75 M46.3 39.9 L46.3 36.7 M27.85 6.95 L27.85 10.3 27.85 13.6 27.85 21.2 M35.45 10.3 L35.45 6.95 M27.85 2.0 L27.85 6.95 M22.15 6.95 L22.15 10.3 M35.45 13.6 L35.45 21.2 M27.85 2.0 L27.85 -1.7 M22.15 6.95 L22.15 2.0 M22.15 21.2 L22.15 24.5 22.15 27.85 22.15 36.7 M27.85 24.5 L27.85 21.2 M22.15 21.2 L22.15 13.6 22.15 10.3 M35.45 13.6 L35.45 10.3 M35.45 24.5 L35.45 21.2 M35.45 24.5 L35.45 27.85 35.45 36.7 35.45 39.9 35.45 43.35 35.45 50.15 M7.8 13.6 L7.8 21.2 7.8 24.4 7.8 27.85 M27.85 27.85 L27.85 24.5 M7.8 6.95 L7.8 2.0 M7.8 10.3 L7.8 6.95 M7.8 13.6 L7.8 10.3 M0.2 21.2 L0.2 24.4 M27.85 36.7 L27.85 27.85 M0.2 21.2 L0.2 13.6 M-5.55 13.6 L-5.55 21.2 -5.55 24.4 -5.55 27.85 -5.55 36.7 -5.55 39.95 -5.55 43.35 -5.55 50.15 M0.2 27.85 L0.2 36.7 0.2 39.95 0.2 43.35 0.2 50.15 0.2 53.5 0.2 56.8 0.2 61.3 M0.2 27.85 L0.2 24.4 M7.8 39.95 L7.8 36.7 7.8 27.85 M7.8 50.15 L7.8 43.35 7.8 39.95 M7.8 53.5 L7.8 50.15 M27.85 43.35 L27.85 39.9 27.85 36.7 M22.15 39.9 L22.15 43.35 22.15 50.15 M27.85 50.15 L27.85 43.35 M22.15 39.9 L22.15 36.7 M35.45 53.5 L35.45 50.15 M35.45 56.8 L35.45 58.65 M35.45 56.8 L35.45 53.5 M22.15 53.5 L22.15 56.8 M27.85 56.8 L27.85 53.5 27.85 50.15 M27.85 56.8 L27.85 60.0 M22.15 53.5 L22.15 50.15 M-5.55 53.55 L-5.55 56.8 -5.55 61.05 M7.8 56.8 L7.8 53.5 M-5.55 10.35 L-5.55 6.95 M-12.6 6.95 L-12.6 2.0 M-19.8 2.0 L-19.8 6.95 -19.8 10.35 -19.8 13.6 M-12.6 10.35 L-12.6 6.95 M-19.8 24.45 L-19.8 21.2 -19.8 13.6 M-12.6 24.45 L-12.6 21.2 M-19.8 27.85 L-19.8 24.45 M-12.6 13.6 L-12.6 21.2 M-12.6 13.6 L-12.6 10.35 M-5.55 13.6 L-5.55 10.35 M-19.8 2.0 L-19.8 -1.65 M-19.8 36.6 L-19.8 27.85 M-12.6 27.85 L-12.6 24.45 M-35.55 21.4 L-35.55 24.45 M-19.8 40.0 L-19.8 36.6 M-12.6 36.65 L-12.6 27.85 M-35.55 21.4 L-35.55 13.6 -35.55 10.35 M-35.55 27.85 L-35.55 24.45 M-35.55 40.0 L-35.55 36.5 -35.55 27.85 M-19.8 43.35 L-19.8 40.0 M-12.6 40.0 L-12.6 36.65 M-35.55 40.0 L-35.55 43.35 -35.55 50.15 M-27.8 43.35 L-27.8 40.0 M-19.8 50.15 L-19.8 43.35 M-12.6 43.35 L-12.6 40.0 M-12.6 43.35 L-12.6 50.15 -12.6 53.55 M-5.55 53.55 L-5.55 50.15 M-12.6 56.8 L-12.5 61.4 M-12.6 56.8 L-12.6 53.55 M-19.8 53.55 L-19.85 56.8 -19.85 61.9 M-19.8 53.55 L-19.8 50.15 M-27.8 56.8 L-27.8 62.6 M-27.8 50.15 L-27.8 53.55 -27.8 56.8 M-35.55 53.55 L-35.55 50.15 M-35.55 53.55 L-35.55 56.8 M-27.8 50.15 L-27.8 43.35" fill="none" stroke="#7d138c" stroke-linecap="round" stroke-linejoin="round" stroke-width="1.5"/>
    <path d="M-41.2 36.55 L-41.2 36.5 M-39.7 27.85 L-39.5 27.85 -35.55 27.85 -31.95 27.85 -27.8 27.85 -23.65 27.85 -19.8 27.85 -12.6 27.85 -8.6 27.85 -5.55 27.85 0.2 27.85 M51.2 36.7 L51.2 36.75 M-8.6 -41.6 L-5.55 -41.6 -4.85 -41.6 M-12.6 -41.65 L-8.6 -41.6 M-8.6 -34.05 L-5.55 -34.05 0.2 -34.0 3.5 -34.0 5.1 -34.0 M-23.65 -41.7 L-19.8 -41.65 -12.6 -41.65 M-12.6 -34.05 L-8.6 -34.05 M-12.6 -34.05 L-19.8 -34.1 -23.65 -34.1 M-23.65 -41.7 L-27.8 -41.7 M-27.8 -34.1 L-23.65 -34.1 M-27.8 -34.1 L-35.55 -34.15 M-27.8 -12.85 L-23.65 -12.8 -19.8 -12.75 -12.6 -12.7 -8.6 -12.65 -5.55 -12.65 0.2 -12.55 3.95 -12.55 M-35.55 -12.9 L-38.6 -12.95 M-31.95 -12.9 L-27.8 -12.85 M-27.8 -4.65 L-23.65 -4.65 -19.8 -4.65 -12.6 -4.65 -8.6 -4.65 -5.55 -4.65 0.2 -4.65 M-31.95 -12.9 L-35.55 -12.9 M-35.55 -4.65 L-31.95 -4.65 -27.8 -4.65 M-35.55 2.0 L-31.95 2.0 -27.8 2.0 -23.65 2.0 -19.8 2.0 M-35.55 -4.65 L-37.85 -4.6 M-12.6 2.0 L-8.6 2.0 -5.55 2.0 0.2 2.0 3.5 2.0 3.95 2.0 M14.55 -34.0 L11.8 -34.0 M22.15 -33.95 L24.55 -33.95 M18.55 -33.95 L14.55 -34.0 M22.15 -33.95 L18.55 -33.95 M14.55 -4.65 L18.55 -4.65 22.15 -4.65 27.85 -4.65 31.1 -4.65 35.45 -4.65 40.4 -4.65 42.75 -4.65 M7.8 -4.65 L14.55 -4.65 M7.8 -12.5 L3.95 -12.55 M3.95 -4.65 L7.8 -4.65 M14.55 2.0 L18.55 2.0 22.15 2.0 27.85 2.0 M3.5 -4.65 L3.95 -4.65 M7.8 2.0 L14.55 2.0 M14.55 6.95 L18.55 6.95 22.15 6.95 M3.5 -4.65 L0.2 -4.65 M0.2 6.95 L3.5 6.95 7.8 6.95 14.55 6.95 M35.45 2.0 L40.4 2.0 45.1 2.0 M31.1 2.0 L35.45 2.0 M35.45 6.95 L40.4 6.95 M46.3 6.95 L40.4 6.95 M46.3 6.95 L46.5 6.95 M46.3 36.7 L50.45 36.7 51.2 36.7 M46.3 21.2 L49.25 21.2 M46.3 13.6 L48.0 13.6 M46.3 13.6 L40.4 13.6 35.45 13.6 M40.4 21.2 L46.3 21.2 M46.3 43.35 L50.45 43.35 51.85 43.35 M46.3 50.15 L50.45 50.15 52.25 50.15 M46.3 36.7 L40.4 36.7 M31.1 6.95 L27.85 6.95 22.15 6.95 M27.85 13.6 L31.1 13.6 35.45 13.6 M35.45 6.95 L31.1 6.95 M31.1 2.0 L27.85 2.0 M35.45 21.2 L40.4 21.2 M27.85 21.2 L22.15 21.2 M22.15 13.6 L18.55 13.6 14.55 13.6 7.8 13.6 M14.55 21.2 L22.15 21.2 M27.85 21.2 L31.1 21.2 M27.85 13.6 L22.15 13.6 M35.45 21.2 L31.1 21.2 M35.45 27.85 L40.4 27.85 46.3 27.85 M31.1 27.85 L35.45 27.85 M35.45 36.7 L40.4 36.7 M7.8 21.2 L14.55 21.2 M22.15 27.85 L27.85 27.85 31.1 27.85 M7.8 2.0 L3.95 2.0 M3.5 13.6 L7.8 13.6 M0.2 13.6 L3.5 13.6 M3.5 21.2 L7.8 21.2 M14.55 27.85 L18.55 27.85 22.15 27.85 M3.5 21.2 L0.2 21.2 M7.8 27.85 L14.55 27.85 M22.15 36.7 L27.85 36.7 31.1 36.7 35.45 36.7 M40.4 43.35 L46.3 43.35 M0.2 13.6 L-5.55 13.6 M-5.55 21.2 L0.2 21.2 M0.2 36.7 L3.5 36.7 M3.5 27.85 L0.2 27.85 M7.8 36.7 L3.5 36.7 M7.8 27.85 L3.5 27.85 M7.8 43.35 L3.5 43.35 M3.5 50.15 L7.8 50.15 14.55 50.15 18.55 50.15 M0.2 43.35 L3.5 43.35 M14.55 43.35 L7.8 43.35 M-5.55 43.35 L0.2 43.35 M0.2 50.15 L3.5 50.15 M14.55 36.7 L7.8 36.7 M22.15 43.35 L27.85 43.35 31.1 43.35 35.45 43.35 40.4 43.35 M22.15 50.15 L27.85 50.15 31.1 50.15 M40.4 50.15 L46.3 50.15 M35.45 50.15 L40.4 50.15 M46.3 56.8 L50.45 56.8 51.95 56.8 M22.15 36.7 L18.55 36.7 M35.45 50.15 L31.1 50.15 M40.4 56.8 L46.3 56.8 M35.45 56.8 L40.4 56.8 M31.1 56.8 L35.45 56.8 M22.15 56.8 L27.85 56.8 31.1 56.8 M14.55 56.8 L18.55 56.8 M14.55 56.8 L7.8 56.8 3.5 56.8 M0.2 56.8 L3.5 56.8 M-5.55 56.8 L0.2 56.8 M-5.55 6.95 L-8.6 6.95 M-5.55 6.95 L0.2 6.95 M-19.8 6.95 L-12.6 6.95 -8.6 6.95 M-12.6 2.0 L-19.8 2.0 M-19.8 21.2 L-23.65 21.2 -27.8 21.3 -31.95 21.35 -35.55 21.4 -38.45 21.45 M-12.6 21.2 L-19.8 21.2 M-19.8 13.6 L-23.65 13.6 M-12.6 21.2 L-8.6 21.2 -5.55 21.2 M-8.6 13.6 L-12.6 13.6 M-8.6 13.6 L-5.55 13.6 M-19.8 13.6 L-12.6 13.6 M-23.65 6.95 L-27.8 6.95 -31.95 6.95 M-27.8 13.6 L-23.65 13.6 M-35.55 2.0 L-37.25 2.0 M-35.55 6.95 L-37.2 6.95 M-31.95 13.6 L-27.8 13.6 M-23.65 36.55 L-19.8 36.6 -12.6 36.65 -8.6 36.7 -5.55 36.7 0.2 36.7 M-35.55 6.95 L-31.95 6.95 M-35.55 13.6 L-37.75 13.6 M-27.8 36.55 L-23.65 36.55 M-31.95 13.6 L-35.55 13.6 M-35.55 36.5 L-39.7 36.5 -41.2 36.5 M-31.95 36.5 L-27.8 36.55 M-23.65 43.35 L-19.8 43.35 -12.6 43.35 M-31.95 36.5 L-35.55 36.5 M-35.55 43.35 L-31.95 43.35 -27.8 43.35 -23.65 43.35 M-39.7 43.35 L-35.55 43.35 M-35.55 50.15 L-31.95 50.15 -27.8 50.15 M-23.65 50.15 L-19.8 50.15 -12.6 50.15 -8.6 50.15 M-8.6 43.35 L-5.55 43.35 M-5.55 50.15 L0.2 50.15 M-8.6 43.35 L-12.6 43.35 M-19.8 6.95 L-23.65 6.95 M-5.55 50.15 L-8.6 50.15 M-8.6 56.8 L-5.55 56.8 M-8.6 56.8 L-12.6 56.8 M-19.85 56.8 L-12.6 56.8 M-23.65 56.8 L-27.8 56.8 -31.95 56.8 -35.55 56.8 -39.7 56.8 -45.0 56.8 M-23.65 50.15 L-27.8 50.15 M-23.65 56.8 L-19.85 56.8 M-35.55 50.15 L-39.7 50.15 -44.05 50.15 M-42.75 43.35 L-39.7 43.35" fill="none" stroke="#000000" stroke-linecap="round" stroke-linejoin="round" stroke-width="1.25"/>
    <path d="M-27.8 -48.75 L-27.0 -48.75 M-19.8 -48.75 L-12.6 -48.75 M-12.35 -48.75 L-12.6 -48.75 M-19.8 -48.75 L-23.65 -48.75 -27.0 -48.75 M-12.6 -27.4 L-8.6 -27.35 -5.55 -27.35 0.2 -27.35 3.5 -27.3 7.8 -27.3 14.55 -27.3 18.55 -27.3 22.15 -27.3 27.85 -27.3 30.7 -27.3 M-19.8 -27.4 L-12.6 -27.4 M-12.6 -19.15 L-8.6 -19.15 -5.55 -19.15 0.2 -19.15 3.95 -19.15 7.8 -19.15 14.55 -19.15 18.55 -19.15 M-19.8 -27.4 L-23.65 -27.45 M-23.65 -19.15 L-19.8 -19.15 -12.6 -19.15 M-35.55 -27.5 L-37.75 -27.55 M-27.8 -27.45 L-23.65 -27.45 M-27.8 -27.45 L-35.55 -27.5 M-35.55 -19.15 L-31.95 -19.15 -27.8 -19.15 M-23.65 -19.15 L-27.8 -19.15 M-35.55 -19.15 L-38.65 -19.15 M18.55 -12.5 L14.55 -12.5 7.8 -12.5 M22.15 -12.5 L18.55 -12.5 M22.15 -19.15 L18.55 -19.15 M22.15 -19.15 L27.85 -19.15 31.1 -19.15 35.45 -19.15 35.85 -19.15 M27.85 -12.5 L22.15 -12.5 M31.1 -12.5 L27.85 -12.5 M35.45 -12.5 L31.1 -12.5" fill="none" stroke="#000000" stroke-linecap="round" stroke-linejoin="round" stroke-width="1.25"/>
    <path d="M-39.7 28.95 L-39.7 27.85 M-23.65 -53.65 L-23.65 -53.25 -23.4 -53.45 M-15.9 -53.45 L-15.8 -53.25 M-8.8 -45.05 L-8.6 -44.8 M-8.6 59.65 L-8.6 61.1 M-15.9 -53.45 L-19.8 -53.45 -23.4 -53.45 M-8.6 -41.6 L-8.6 -44.8 M-8.6 -41.6 L-8.6 -34.05 -8.6 -30.75 -5.55 -30.75 0.2 -30.75 M-23.65 -48.75 L-23.65 -41.7 M-19.8 -30.75 L-12.6 -30.75 M-8.6 -27.35 L-8.6 -30.75 -12.6 -30.75 M-8.6 -19.15 L-8.6 -27.35 M3.5 -34.0 L3.5 -35.15 M-23.65 -27.45 L-23.65 -19.15 M-23.65 -34.1 L-23.65 -41.7 M-23.65 -27.45 L-23.65 -30.75 -27.8 -30.75 -35.55 -30.75 M-23.65 -34.1 L-23.65 -30.75 -19.8 -30.75 M-27.8 -15.2 L-23.65 -15.2 -23.65 -19.15 M-23.65 -12.8 L-23.65 -15.2 -19.8 -15.2 -12.6 -15.2 -8.6 -15.2 -8.6 -19.15 M-38.65 -15.2 L-35.55 -15.2 -31.95 -15.2 -31.95 -19.15 M-27.8 -15.2 L-31.95 -15.2 -31.95 -12.9 M-23.65 -4.65 L-23.65 -12.8 M-8.6 -12.65 L-8.6 -15.2 -5.55 -15.2 0.2 -15.2 3.95 -15.2 3.95 -19.15 3.5 -27.3 3.5 -30.8 3.5 -34.0 M-31.95 -4.65 L-31.95 -12.9 M-35.55 -1.65 L-31.95 -1.65 -31.95 -4.65 M-27.8 -1.65 L-23.65 -1.65 -23.65 -4.65 M-8.6 -4.65 L-8.6 -12.65 M7.8 -30.8 L3.5 -30.8 M-31.95 2.0 L-31.95 -1.65 -27.8 -1.65 M-23.65 2.0 L-23.65 -1.65 -19.8 -1.65 -12.6 -1.65 -8.6 -1.65 -8.6 -4.65 M14.55 -30.8 L7.8 -30.8 M-8.6 2.0 L-8.6 -1.65 -5.55 -1.65 M3.95 -12.55 L3.95 -15.2 5.0 -15.2 7.8 -15.25 10.4 -15.25 14.55 -15.25 M18.55 -27.3 L18.55 -30.8 14.55 -30.8 M-23.65 -48.75 L-23.65 -53.25 M22.15 -30.8 L18.55 -30.8 18.55 -33.95 18.55 -39.05 M22.15 -30.8 L27.75 -30.8 M18.55 -4.65 L18.55 -12.5 18.55 -15.25 14.55 -15.25 M14.55 -1.7 L18.55 -1.7 18.55 -4.65 M18.55 -19.15 L18.55 -15.25 22.15 -15.25 27.85 -15.25 31.1 -15.25 31.1 -19.15 31.1 -26.75 M18.55 -19.15 L18.55 -27.3 M7.8 -15.2 L5.0 -15.2 M3.95 -12.55 L3.95 -9.85 3.95 -4.65 3.95 -1.7 6.75 -1.7 7.8 -1.7 14.55 -1.7 M18.55 2.0 L18.55 -1.7 22.15 -1.7 27.85 -1.7 31.1 -1.7 31.1 2.0 M18.55 6.95 L18.55 2.0 M31.1 -4.65 L31.1 -12.5 31.1 -15.25 35.45 -15.25 37.55 -15.25 M3.5 2.0 L3.5 -1.65 1.15 -1.65 0.2 -1.65 -5.55 -1.65 M3.95 2.0 L3.95 -1.65 3.5 -1.65 3.5 -1.7 1.15 -1.65 M3.95 -1.7 L3.95 -1.65 6.75 -1.7 M3.95 -1.7 L3.5 -1.7 3.5 -4.65 M3.5 6.95 L3.5 2.0 M3.95 -9.85 L3.5 -4.65 M7.8 -15.2 L10.4 -15.25 M40.4 -4.65 L40.4 -10.15 M35.45 -1.7 L40.4 -1.7 40.4 -4.65 M31.1 -4.65 L31.1 -1.7 35.45 -1.7 M40.4 2.0 L40.4 -1.7 43.85 -1.7 M40.4 6.95 L40.4 2.0 M40.4 6.95 L40.4 10.3 46.3 10.3 47.3 10.3 M46.3 24.5 L49.7 24.5 M50.45 36.7 L50.45 30.35 M40.4 13.6 L40.4 21.2 40.4 24.5 46.3 24.5 M50.45 43.35 L50.45 39.9 46.3 39.9 M50.45 50.15 L50.45 43.35 M40.4 36.7 L40.4 39.9 46.3 39.9 M51.55 39.9 L50.45 39.9 50.45 36.7 M27.85 10.3 L31.1 10.3 31.1 6.95 31.1 2.0 M31.1 13.6 L31.1 10.3 35.45 10.3 40.4 10.3 40.4 13.6 M22.15 10.3 L27.85 10.3 M22.15 24.5 L27.85 24.5 31.1 24.5 31.1 27.85 31.1 36.7 31.1 39.9 35.45 39.9 40.4 39.9 40.4 43.35 40.4 50.15 40.4 53.5 46.3 53.5 50.45 53.5 50.45 50.15 M31.1 21.2 L31.1 13.6 M22.15 10.3 L18.55 10.3 18.55 13.6 M31.1 21.2 L31.1 24.5 35.45 24.5 M40.4 27.85 L40.4 24.5 35.45 24.5 M40.4 36.7 L40.4 27.85 M14.55 10.3 L18.55 10.3 18.55 6.95 M14.55 24.4 L18.55 24.5 22.15 24.5 M0.2 10.3 L3.5 10.3 3.5 6.95 M7.8 10.3 L3.5 10.3 3.5 13.6 3.5 21.2 M7.8 10.3 L14.55 10.3 M7.8 24.4 L14.55 24.4 M18.55 27.85 L18.55 24.5 M0.2 24.4 L3.5 24.4 3.5 21.2 M3.5 24.4 L7.8 24.4 M14.55 39.95 L18.55 39.95 18.55 36.7 18.55 27.85 M3.5 36.7 L3.5 27.85 3.5 24.4 M0.2 24.4 L-5.55 24.4 -5.95 24.4 -8.6 24.4 -8.6 21.2 -8.6 13.6 M3.5 36.7 L3.5 39.95 7.8 39.95 14.55 39.95 M3.5 43.35 L3.5 50.15 3.5 53.5 7.8 53.5 14.55 53.5 18.55 53.5 18.55 50.15 18.55 39.95 M3.5 43.35 L3.5 39.95 0.2 39.95 -5.55 39.95 -6.4 39.95 -8.6 40.0 -8.6 43.35 M27.85 39.9 L22.15 39.9 M31.1 43.35 L31.1 39.9 27.85 39.9 M50.45 56.8 L50.45 53.5 52.2 53.5 M31.1 50.15 L31.1 53.5 35.45 53.5 40.4 53.5 40.4 56.8 40.4 58.05 M31.1 56.8 L31.1 59.35 M31.1 53.5 L31.1 56.8 M27.85 53.5 L22.15 53.5 M31.1 50.15 L31.1 43.35 M31.1 53.5 L27.85 53.5 M18.55 56.8 L18.55 53.5 22.15 53.5 M3.5 56.8 L3.5 61.4 M18.55 56.8 L18.55 61.65 M3.5 56.8 L3.5 53.5 0.2 53.5 -5.55 53.55 M50.45 56.8 L50.45 58.1 M-8.6 6.95 L-8.6 10.35 -5.55 10.35 0.2 10.3 M-8.6 6.95 L-8.6 2.0 M-19.8 10.35 L-12.6 10.35 -8.6 10.35 -8.6 13.6 M-23.65 21.2 L-23.65 24.45 -19.8 24.45 -12.6 24.45 -9.45 24.45 -8.6 24.45 -5.95 24.4 M-23.65 13.6 L-23.65 21.2 M-27.8 24.45 L-23.65 24.45 -23.65 27.85 -23.65 36.55 -23.65 40.0 -19.8 40.0 -12.6 40.0 -9.9 40.0 -8.6 39.95 -8.6 36.7 -8.6 27.85 -8.6 24.45 -8.6 24.4 -9.45 24.45 M-27.8 10.35 L-23.65 10.35 -23.65 6.95 -23.65 2.0 M-31.95 6.95 L-31.95 10.35 -27.8 10.35 M-23.65 13.6 L-23.65 10.35 -19.8 10.35 M-35.55 10.35 L-31.95 10.35 -31.95 13.6 -31.95 21.35 -31.95 24.45 -27.8 24.45 M-35.55 10.35 L-37.4 10.35 M-31.95 6.95 L-31.95 2.0 M-35.55 24.45 L-31.95 24.45 -31.95 27.85 -31.95 36.5 -31.95 40.0 -35.55 40.0 M-35.55 24.45 L-39.05 24.45 M-39.7 36.5 L-39.7 40.0 -35.55 40.0 M-27.8 40.0 L-23.65 40.0 -23.65 43.35 -23.65 50.15 M-39.7 36.5 L-39.7 28.95 M-31.95 43.35 L-31.95 40.0 M-31.95 50.15 L-31.95 43.35 M-39.7 43.35 L-39.7 40.0 -42.0 40.0 M-9.9 40.0 L-8.6 40.0 -8.6 39.95 -6.4 39.95 M-8.6 50.15 L-8.6 43.35 M-8.6 50.15 L-8.6 53.55 -5.55 53.55 M-8.6 56.8 L-8.6 59.65 M-8.6 53.55 L-8.6 56.8 M-12.6 53.55 L-19.8 53.55 -23.65 53.55 -23.65 56.8 -23.65 62.2 M-12.6 53.55 L-8.6 53.55 M-27.8 53.55 L-23.65 53.55 -23.65 50.15 M-31.95 56.8 L-31.95 63.05 M-31.95 50.15 L-31.95 53.55 -27.8 53.55 M-39.7 50.15 L-39.7 53.55 -35.55 53.55 -31.95 53.55 -31.95 56.8 M-39.7 56.8 L-39.7 64.3 M-39.7 56.8 L-39.7 53.55 -44.6 53.55 M-39.7 43.35 L-39.7 50.15" fill="none" stroke="#f583bf" stroke-linecap="round" stroke-linejoin="round" stroke-width="1.0"/>
  </g>
</svg>
