<?xml version="1.0" encoding="UTF-8" standalone="no"?>
<svg xmlns:xlink="http://www.w3.org/1999/xlink" height="29.0px" width="32.6px" xmlns="http://www.w3.org/2000/svg">
  <g transform="matrix(1.0, 0.0, 0.0, 1.0, 16.35, 14.5)">
    <path d="M-11.4 -8.75 L-14.25 -4.95 -12.5 8.75 0.65 11.95 8.85 5.9 7.4 -4.95 9.6 -5.85 10.7 2.2 14.85 -1.25 13.35 -10.35 Q10.0 -11.8 6.3 -12.5 -3.1 -13.8 -11.45 -8.85 L-11.5 -8.8 -11.4 -8.75 M14.65 -11.1 L16.25 -0.05 10.95 3.65 10.85 6.9 -0.4 14.5 -14.25 10.4 -16.35 -4.05 Q-14.85 -6.2 -13.0 -7.95 -5.05 -15.85 6.45 -14.2 L14.65 -11.1" fill="#000000" fill-rule="evenodd" stroke="none"/>
    <path d="M-11.45 -8.85 Q-3.1 -13.8 6.3 -12.5 10.0 -11.8 13.35 -10.35 L14.85 -1.25 10.7 2.2 9.6 -5.85 7.4 -4.95 8.85 5.9 0.65 11.95 -12.5 8.75 -14.25 -4.95 -11.4 -8.75 -11.45 -8.85 M-9.7 6.75 L0.0 8.55 -1.6 3.9 5.45 -10.6 -10.5 -6.15 Q-13.35 0.1 -9.7 6.75" fill="#d7d9ee" fill-rule="evenodd" stroke="none"/>
    <path d="M-9.7 6.75 Q-13.35 0.1 -10.5 -6.15 L5.45 -10.6 -1.6 3.9 0.0 8.55 -9.7 6.75" fill="#eff0f8" fill-rule="evenodd" stroke="none"/>
  </g>
</svg>
