<?xml version="1.0" encoding="UTF-8" standalone="no"?>
<svg xmlns:xlink="http://www.w3.org/1999/xlink" height="47.35px" width="97.6px" xmlns="http://www.w3.org/2000/svg">
  <g transform="matrix(1.0, 0.0, 0.0, 1.0, 0.0, 0.0)">
    <path d="M96.8 0.7 L96.35 5.05 96.0 5.35 94.65 5.25 94.3 5.35 85.05 16.75 85.35 16.8 88.4 17.0 87.9 21.0 Q87.9 21.45 87.45 21.35 L85.65 21.25 78.7 21.5 Q78.25 21.55 78.35 21.15 L78.6 16.8 Q78.6 16.4 79.0 16.5 L81.2 16.65 81.8 16.45 84.05 12.95 80.05 8.65 Q76.8 4.85 75.95 4.7 L74.6 4.6 Q74.4 4.55 74.5 4.3 L74.7 1.6 74.7 1.55 Q74.7 0.6 75.2 0.55 L84.65 0.55 84.8 0.9 84.45 4.95 Q84.5 5.45 84.1 5.35 L81.6 5.15 81.3 5.15 85.8 10.6 89.7 5.15 87.05 5.0 Q86.65 5.0 86.75 4.6 86.8 1.05 86.95 0.85 L87.25 0.8 96.45 0.4 Q96.9 0.3 96.8 0.7 M83.05 30.45 L79.6 30.2 80.4 26.2 Q80.5 25.95 80.75 26.0 L90.95 25.65 Q91.3 25.55 91.25 25.95 L90.9 30.35 Q90.95 30.8 90.55 30.7 L87.6 30.6 Q87.15 30.45 87.2 30.95 L86.7 36.4 Q86.3 39.0 86.3 41.4 86.15 41.85 86.65 41.75 L87.45 41.7 93.75 42.05 Q94.05 42.2 94.15 41.7 95.0 38.05 95.25 37.85 L97.25 37.8 Q97.7 37.7 97.6 38.1 L96.95 46.2 Q96.95 46.6 96.55 46.6 L81.8 47.05 80.9 47.0 80.75 46.65 80.55 42.5 80.6 41.5 80.9 41.4 82.65 41.5 Q83.1 41.65 83.05 41.2 L83.4 30.7 Q83.4 30.4 83.05 30.45 M65.6 0.6 Q65.45 0.8 68.95 12.55 L70.5 17.05 70.9 17.15 73.2 17.4 72.7 20.8 Q72.7 21.3 72.15 21.15 L64.2 21.6 Q63.7 21.8 63.85 21.15 L63.7 17.4 Q63.5 16.75 64.1 16.9 L66.9 17.0 67.25 16.95 66.15 13.7 65.95 13.4 57.25 13.85 56.35 15.25 55.6 16.85 58.2 17.0 Q58.55 17.1 58.45 17.35 L58.25 20.85 Q58.3 21.3 57.85 21.25 L50.35 21.6 Q49.9 21.65 49.95 21.2 L50.0 16.9 Q50.0 16.5 50.35 16.55 L52.65 16.65 58.7 5.25 58.4 5.2 57.65 5.25 55.25 5.05 56.0 1.4 Q56.0 0.95 56.4 1.05 L57.0 1.05 65.1 0.25 Q65.55 0.05 65.6 0.6 M62.5 5.15 L58.85 11.1 59.15 11.15 64.8 11.3 65.15 11.25 62.5 5.15 M48.8 8.25 Q48.75 12.0 47.05 15.05 45.35 18.1 42.25 19.85 38.05 21.95 32.3 21.7 L29.3 21.65 Q28.75 21.5 28.85 21.15 L28.9 20.35 28.85 16.2 Q28.9 16.0 29.25 16.05 L30.7 16.25 Q31.05 16.4 31.05 15.9 L31.35 5.0 Q31.25 4.75 31.0 4.85 L27.35 4.95 27.35 4.8 Q28.05 3.0 27.95 1.95 27.85 0.9 28.4 0.85 L38.45 0.0 Q41.55 -0.15 44.45 1.3 48.65 3.8 48.8 8.25 M43.8 7.25 Q41.9 5.7 39.0 5.3 L35.05 4.9 Q34.95 4.85 34.95 4.95 L35.05 6.5 34.4 10.6 Q33.85 13.1 33.75 16.4 33.85 16.65 34.15 16.55 L38.3 16.6 41.75 16.15 Q43.55 15.55 44.65 14.15 45.7 12.75 45.75 11.1 45.7 8.8 43.8 7.25 M50.85 31.0 Q50.1 37.25 49.95 41.75 49.85 42.05 50.05 42.15 L52.15 42.25 Q52.6 42.15 52.6 42.5 L52.15 46.5 Q52.05 46.8 51.7 46.7 L50.85 46.7 45.25 47.2 Q44.8 47.3 44.85 46.8 L44.7 42.3 Q44.6 41.95 45.0 42.0 L46.5 42.1 Q46.95 42.2 46.85 41.8 L47.0 31.05 Q46.95 30.5 46.6 30.65 L45.7 30.7 43.6 30.6 Q43.25 30.45 43.35 30.2 L43.8 27.15 Q43.85 26.4 44.25 26.5 L53.6 26.0 Q54.0 25.85 53.95 26.3 L53.45 30.35 53.1 30.75 51.25 30.7 Q50.85 30.6 50.85 31.0 M42.4 42.55 L41.95 46.35 Q42.0 46.8 41.55 46.7 L35.95 47.3 35.6 47.3 Q35.4 47.05 34.35 43.25 33.45 40.05 31.95 39.2 30.45 38.35 27.3 38.45 26.9 38.35 26.95 38.75 L26.7 42.3 29.75 42.65 Q30.25 42.55 30.1 43.2 L29.6 46.2 Q29.55 46.65 28.6 46.75 L22.1 47.3 Q21.55 47.5 21.65 46.95 L21.75 42.25 Q21.8 42.0 22.05 42.05 L23.45 42.2 23.75 42.2 24.15 30.8 Q24.2 30.45 23.85 30.55 L21.15 30.3 Q21.2 29.35 21.4 28.5 L21.65 27.05 Q21.8 26.75 22.05 26.75 L35.65 25.5 Q38.3 25.5 39.7 26.3 41.6 27.5 41.7 30.05 41.65 32.6 39.8 34.75 38.0 36.9 35.0 37.85 L34.7 37.95 35.25 38.4 36.35 39.6 Q37.0 41.2 38.5 42.1 L40.4 42.4 42.05 42.3 Q42.45 42.2 42.4 42.55 M55.55 42.0 L57.85 42.1 63.9 30.7 63.6 30.65 62.85 30.7 60.45 30.5 61.2 26.85 Q61.2 26.4 61.6 26.5 L62.2 26.5 70.3 25.7 Q70.75 25.5 70.8 26.05 70.65 26.25 74.15 38.0 L75.7 42.5 76.1 42.6 78.4 42.85 77.9 46.25 Q77.9 46.75 77.35 46.6 L69.4 47.05 Q68.9 47.25 69.05 46.6 L68.9 42.85 Q68.7 42.2 69.3 42.35 L72.1 42.45 72.45 42.4 71.35 39.15 71.15 38.85 62.45 39.3 61.55 40.7 60.8 42.3 63.4 42.45 Q63.75 42.55 63.65 42.8 L63.45 46.3 Q63.5 46.75 63.05 46.7 L55.55 47.05 Q55.1 47.1 55.15 46.65 L55.2 42.35 Q55.2 41.95 55.55 42.0 M64.35 36.6 L70.0 36.75 70.35 36.7 67.7 30.6 64.05 36.55 64.35 36.6 M15.85 1.0 L15.5 5.3 15.3 5.8 9.9 9.3 10.15 9.4 Q12.05 9.9 13.15 10.55 14.85 11.45 15.55 12.6 16.25 13.8 16.25 15.6 16.15 17.85 13.95 19.75 11.7 21.6 8.3 21.75 5.2 21.6 3.3 20.75 L1.35 19.65 Q1.4 18.8 1.8 17.9 L2.3 16.95 5.8 17.5 Q9.6 17.7 11.7 16.3 13.05 15.3 13.0 13.7 13.0 11.6 7.0 11.7 L4.95 11.85 Q4.75 11.6 4.6 10.15 L4.8 10.0 Q6.6 9.1 10.0 6.25 L11.6 4.7 5.25 4.5 Q4.9 4.35 4.85 4.8 L4.2 7.1 3.95 7.1 2.3 6.95 2.55 1.55 Q2.6 1.1 2.95 1.2 L4.5 1.25 15.45 0.7 Q15.95 0.6 15.85 1.0 M19.75 29.7 Q19.4 31.75 19.35 34.0 19.4 34.35 19.05 34.35 L17.35 34.35 Q16.95 34.4 17.0 34.05 L17.05 31.1 Q17.1 30.7 16.7 30.75 L12.2 30.6 Q11.85 30.5 11.8 30.85 10.6 40.0 10.5 41.8 L13.3 42.1 Q13.7 42.05 13.6 42.4 L13.05 46.3 Q13.05 46.65 12.65 46.6 L5.05 46.8 4.7 46.55 4.5 41.75 Q4.4 41.4 4.8 41.45 L7.1 41.65 Q7.5 41.75 7.4 41.3 L7.75 30.8 Q7.8 30.45 7.45 30.5 L3.4 30.35 Q3.05 30.3 3.0 30.55 L2.3 33.9 1.95 34.25 0.0 34.1 0.0 33.8 0.6 26.45 Q0.6 26.05 0.95 26.15 L19.85 25.75 Q20.15 25.65 20.2 25.95 L19.75 29.7 M34.2 31.0 L28.25 30.6 Q27.8 30.5 27.75 31.0 L27.15 35.65 Q27.1 35.95 27.45 36.0 L29.65 36.05 34.8 35.45 Q37.55 34.75 37.6 32.85 37.55 31.3 34.2 31.0" fill="#ffffff" fill-rule="evenodd" stroke="none"/>
  </g>
</svg>
