<?xml version="1.0" encoding="UTF-8" standalone="no"?>
<svg xmlns:xlink="http://www.w3.org/1999/xlink" height="329.1px" width="385.55px" xmlns="http://www.w3.org/2000/svg">
  <g transform="matrix(1.0, 0.0, 0.0, 1.0, 0.0, 0.0)">
    <path d="M225.6 38.15 Q222.9 51.5 212.45 58.8 202.0 66.15 188.55 64.1 175.2 61.4 167.9 50.95 160.55 40.5 162.6 27.05 165.3 13.7 175.75 6.4 186.2 -0.95 199.65 1.1 213.0 3.8 220.3 14.25 227.65 24.7 225.6 38.15" fill="#555963" fill-rule="evenodd" stroke="none"/>
    <path d="M164.45 39.6 Q161.8 39.4 163.75 26.4 166.45 13.05 176.9 5.75 187.35 -1.6 200.8 0.45 L203.75 1.1 Q191.2 0.3 181.65 7.6 172.15 14.9 169.65 27.45 167.1 39.75 164.45 39.6" fill="#373840" fill-rule="evenodd" stroke="none"/>
    <path d="M220.85 48.9 Q219.15 53.5 211.9 58.3 203.9 63.6 195.15 64.7 184.65 65.95 176.65 60.25 167.05 53.4 162.25 37.25 162.9 36.15 165.45 35.8 167.7 35.45 168.0 34.0 179.9 54.55 200.0 52.15 207.05 51.3 213.55 47.8 219.0 44.85 220.4 42.45 224.9 34.8 224.75 25.45 L225.25 28.4 Q225.8 33.35 224.3 38.95 223.65 41.45 220.85 48.9" fill="#17181c" fill-rule="evenodd" stroke="none"/>
    <path d="M208.25 12.7 Q200.25 8.35 200.55 5.8 202.4 4.05 210.65 8.0 218.7 12.35 218.35 14.9 216.5 16.65 208.25 12.7" fill="#ffffff" fill-rule="evenodd" stroke="none"/>
    <path d="M385.55 266.9 L378.4 278.3 271.95 329.1 18.0 301.05 0.5 287.9 274.4 318.35 385.55 266.9" fill="#17181c" fill-rule="evenodd" stroke="none"/>
    <path d="M297.9 58.75 L385.35 267.35 274.65 319.75 228.95 58.7 297.9 58.75" fill="#373840" fill-rule="evenodd" stroke="none"/>
    <path d="M113.75 84.0 Q93.55 91.85 81.45 94.4 L69.05 96.7 80.7 59.95 104.15 60.35 158.45 60.3 Q133.9 76.15 113.75 84.0" fill="#17181c" fill-rule="evenodd" stroke="none"/>
    <path d="M79.6 64.3 L82.7 60.25 229.75 58.85 275.95 319.4 0.0 288.8 79.6 64.3" fill="#555963" fill-rule="evenodd" stroke="none"/>
    <path d="M137.9 96.35 Q142.5 93.8 144.75 89.05 L147.0 83.75 163.7 83.9 152.95 189.65 128.35 188.1 136.05 116.85 119.05 116.9 121.4 99.3 Q121.55 99.5 126.25 99.3 130.9 99.15 137.9 96.35" fill="#7b8898" fill-rule="evenodd" stroke="none"/>
    <path d="M111.05 202.55 L108.55 218.1 98.75 217.65 90.6 273.85 76.15 272.3 83.2 216.45 72.3 215.0 74.55 200.7 111.05 202.55" fill="#7b8898" fill-rule="evenodd" stroke="none"/>
    <path d="M153.65 279.35 L161.6 205.35 178.7 206.35 185.5 251.2 190.3 206.85 205.15 207.45 198.5 284.2 180.65 281.55 173.85 236.7 169.55 281.4 153.65 279.35" fill="#7b8898" fill-rule="evenodd" stroke="none"/>
    <path d="M132.65 215.5 Q130.65 214.8 128.85 219.15 127.1 223.5 124.25 241.7 121.9 259.7 124.6 262.9 127.35 266.1 127.95 265.2 128.0 265.5 129.15 265.2 130.35 264.85 132.1 260.15 133.9 255.4 135.75 242.45 138.35 223.45 137.05 219.3 135.8 215.15 132.65 215.5 M149.45 210.0 Q153.05 216.5 152.85 223.4 152.8 227.5 151.8 236.1 L148.4 261.7 Q148.3 263.15 146.4 267.7 144.5 272.25 139.2 275.8 133.9 279.4 123.7 277.9 109.0 274.3 108.15 259.85 107.3 245.4 110.3 230.1 114.6 200.5 135.55 202.05 145.8 203.5 149.45 210.0" fill="#7b8898" fill-rule="evenodd" stroke="none"/>
    <path d="M123.55 97.0 Q128.2 96.85 135.2 94.05 139.8 91.5 142.05 86.75 L144.3 81.45 161.0 81.6 150.25 187.35 125.65 185.8 133.35 114.55 116.35 114.6 118.7 97.0 Q118.85 97.2 123.55 97.0" fill="#17181c" fill-rule="evenodd" stroke="none"/>
    <path d="M108.35 200.25 L105.85 215.8 96.05 215.35 87.9 271.55 73.45 270.0 80.5 214.15 69.6 212.7 71.85 198.4 108.35 200.25" fill="#17181c" fill-rule="evenodd" stroke="none"/>
    <path d="M150.9 277.05 L158.85 203.05 175.95 204.05 182.75 248.9 187.55 204.55 202.4 205.15 195.75 281.9 177.9 279.25 171.1 234.4 166.8 279.1 150.9 277.05" fill="#17181c" fill-rule="evenodd" stroke="none"/>
    <path d="M129.95 213.2 Q127.95 212.5 126.15 216.85 124.4 221.2 121.55 239.4 119.2 257.4 121.9 260.6 124.65 263.8 125.25 262.9 125.3 263.2 126.45 262.9 127.65 262.6 129.4 257.85 131.2 253.1 133.05 240.15 135.65 221.15 134.35 217.0 133.1 212.85 129.95 213.2 M146.75 207.7 Q150.35 214.25 150.15 221.1 150.05 225.2 149.1 233.8 L145.7 259.4 Q145.6 260.85 143.7 265.4 141.8 269.95 136.5 273.5 131.2 277.1 121.0 275.6 106.3 272.05 105.45 257.55 104.6 243.1 107.6 227.8 111.9 198.2 132.85 199.75 143.1 201.2 146.75 207.7" fill="#17181c" fill-rule="evenodd" stroke="none"/>
  </g>
</svg>
