<?xml version="1.0" encoding="UTF-8" standalone="no"?>
<svg xmlns:xlink="http://www.w3.org/1999/xlink" height="40.85px" width="95.85px" xmlns="http://www.w3.org/2000/svg">
  <g transform="matrix(1.0, 0.0, 0.0, 1.0, 0.0, 0.0)">
    <path d="M86.6 5.2 Q86.6 5.55 86.25 5.5 L84.15 5.45 Q83.75 5.3 83.8 5.7 83.2 13.2 82.85 20.95 82.95 21.35 82.5 21.35 L79.4 21.5 Q78.25 21.3 76.15 16.85 74.0 12.45 69.45 6.55 L68.65 16.75 68.9 16.85 71.2 17.0 Q71.65 17.05 71.6 17.35 L71.4 20.95 Q71.4 21.3 71.0 21.3 L63.95 21.55 Q63.55 21.65 63.6 21.25 L63.6 17.55 Q63.55 16.35 63.9 16.45 L65.65 16.6 65.9 16.6 Q66.25 14.4 66.0 5.55 66.1 5.15 65.7 5.2 L65.35 5.3 62.45 4.95 Q62.15 4.95 62.2 4.7 L62.25 4.6 Q62.75 3.75 62.65 2.75 62.75 1.45 63.15 0.8 L65.5 0.6 68.35 0.8 70.6 0.5 70.95 0.8 76.15 10.35 Q78.25 14.5 80.05 17.1 L80.15 5.55 79.9 5.3 77.35 5.15 Q76.9 5.25 77.0 4.7 L77.4 1.2 Q77.35 1.0 77.45 0.95 L81.4 0.7 84.95 0.95 87.05 0.5 87.25 0.85 86.6 5.2 M95.85 25.65 L95.55 28.65 95.35 28.85 93.95 28.8 89.1 38.75 Q88.45 40.4 88.1 40.45 L86.2 40.5 85.95 40.45 84.2 31.4 84.2 31.25 80.25 40.45 78.3 40.6 78.0 40.25 74.95 28.95 74.65 28.7 73.2 28.6 73.55 25.8 Q73.55 25.55 73.8 25.65 L75.0 25.7 80.3 25.45 79.85 28.55 79.6 28.8 77.9 28.75 77.7 28.8 79.05 36.35 Q79.05 36.6 79.5 36.55 79.9 36.55 80.75 33.9 L83.3 26.05 Q83.35 25.85 83.55 25.9 L85.85 25.65 86.05 25.65 87.25 36.3 87.45 36.45 Q88.0 36.55 88.0 36.3 88.85 33.6 89.8 31.75 90.75 29.9 90.85 28.7 L90.7 28.65 88.7 28.55 89.15 25.8 Q89.15 25.55 89.4 25.65 L90.35 25.7 95.6 25.35 Q95.95 25.3 95.85 25.65 M61.2 2.9 L60.55 4.65 Q60.2 6.3 60.3 7.4 L60.3 8.7 58.2 9.0 Q57.75 9.15 57.85 8.65 L57.85 6.9 Q57.8 6.55 56.05 6.05 L52.0 5.4 Q48.0 5.45 45.5 7.8 44.35 8.9 43.7 10.3 43.05 11.7 43.05 12.75 43.05 14.55 44.75 15.65 46.45 16.8 49.35 16.8 53.35 16.65 55.75 15.55 L58.2 14.15 50.6 13.65 50.85 11.8 Q50.9 11.35 51.3 11.45 L61.1 11.0 Q61.4 10.9 61.5 11.2 L60.5 18.55 Q60.25 19.0 57.25 20.45 54.25 21.95 49.95 22.15 44.2 22.25 41.7 18.05 L40.7 15.75 Q40.4 14.7 40.4 13.3 40.6 7.1 44.0 3.55 47.45 0.05 51.95 0.0 53.85 0.05 55.4 0.65 56.95 1.25 57.6 1.95 L57.9 2.2 58.0 1.95 Q58.0 0.7 58.2 0.35 L60.65 0.15 Q61.55 0.2 61.6 1.05 61.6 2.1 61.2 2.9 M56.1 29.2 L54.6 29.15 Q54.35 29.05 54.35 29.35 53.95 34.65 53.7 40.15 L53.45 40.4 51.25 40.55 Q50.45 40.4 48.95 37.25 47.4 34.1 44.2 29.95 L43.6 37.2 43.8 37.25 45.45 37.35 45.7 37.6 45.55 40.15 45.3 40.4 40.3 40.55 Q40.0 40.65 40.05 40.35 L40.05 37.75 Q40.0 36.9 40.25 36.95 L41.5 37.05 41.65 37.05 Q41.9 35.5 41.75 29.2 L41.55 29.0 41.25 29.05 39.2 28.8 39.05 28.6 39.1 28.55 39.35 27.2 Q39.45 26.3 39.7 25.85 L41.4 25.7 43.4 25.85 45.0 25.65 Q45.2 25.7 45.25 25.85 L48.95 32.6 Q50.45 35.6 51.7 37.45 L51.8 29.2 Q51.8 28.95 51.6 29.05 L49.8 28.95 Q49.5 29.0 49.55 28.6 L49.85 26.15 Q49.8 26.0 49.9 25.95 L55.2 25.95 56.7 25.65 Q56.85 25.7 56.8 25.9 L56.35 28.95 56.1 29.2 M59.0 27.75 Q61.0 25.1 65.4 25.2 68.75 25.2 70.6 27.0 72.5 28.8 72.55 32.1 L72.4 34.0 71.9 35.8 Q70.2 40.95 65.0 40.85 L62.25 40.55 Q61.05 40.2 59.85 39.3 57.3 37.5 57.35 34.25 57.4 32.1 57.85 30.4 58.35 28.65 59.0 27.75 M60.05 34.7 Q60.8 35.8 62.0 36.4 63.2 37.0 65.95 37.05 68.2 37.0 69.35 35.95 70.5 34.85 70.5 33.3 70.55 31.05 69.4 30.15 L67.85 29.55 64.9 29.25 62.75 29.35 Q60.85 29.55 60.1 30.2 59.3 30.85 59.3 32.4 59.35 33.6 60.05 34.7 M39.3 4.95 L38.95 5.35 37.1 5.3 Q36.7 5.2 36.7 5.6 35.95 11.85 35.8 16.35 35.7 16.65 35.9 16.75 L38.0 16.85 Q38.45 16.75 38.45 17.1 L38.0 21.1 Q37.9 21.4 37.55 21.3 L36.7 21.3 31.1 21.8 Q30.65 21.9 30.7 21.4 L30.55 16.9 Q30.45 16.55 30.85 16.6 L32.35 16.7 Q32.8 16.8 32.7 16.4 L32.85 5.65 Q32.8 5.1 32.45 5.25 L31.55 5.3 29.45 5.2 Q29.1 5.05 29.2 4.8 L29.65 1.75 Q29.7 1.0 30.1 1.1 L39.45 0.6 Q39.85 0.45 39.8 0.9 L39.3 4.95 M28.45 0.7 L27.35 8.4 25.25 8.6 Q24.9 8.7 24.95 8.3 L25.1 6.6 23.55 5.85 Q22.05 5.15 19.1 5.05 16.3 5.1 14.35 5.95 12.35 6.75 12.25 7.65 12.3 8.85 13.85 9.2 L25.75 10.65 Q28.45 11.75 28.5 14.3 28.45 17.05 25.9 19.35 23.35 21.65 18.8 21.75 14.7 21.6 11.9 20.45 9.1 19.3 9.0 19.0 L9.35 17.15 Q9.65 15.4 9.8 15.3 L12.05 15.95 17.55 16.6 Q21.15 16.55 23.25 15.8 25.35 15.05 25.4 14.1 25.4 12.95 23.25 13.05 L20.05 13.15 12.9 12.6 Q9.45 11.45 9.4 8.05 9.45 4.9 11.85 2.5 14.3 0.1 18.15 0.0 22.05 -0.15 25.5 2.25 L25.7 2.3 25.75 2.1 25.95 0.75 26.4 0.5 28.2 0.4 Q28.6 0.35 28.45 0.7 M15.85 25.45 L15.6 28.5 15.35 28.8 14.15 28.7 Q13.85 28.65 13.9 28.9 L13.1 36.6 Q12.85 38.45 11.6 39.6 10.3 40.7 7.05 40.75 4.2 40.75 3.15 39.3 2.05 37.85 2.05 34.8 L2.05 28.85 0.25 28.85 Q0.05 28.9 0.0 28.75 L0.3 25.9 6.5 25.55 Q6.8 25.45 6.75 25.75 L6.5 28.65 Q6.55 28.95 6.25 28.95 L4.95 28.9 Q4.7 28.8 4.65 29.25 L4.15 34.95 Q4.1 37.0 7.5 36.95 11.55 36.95 11.6 32.65 L11.55 28.8 Q11.6 28.5 11.3 28.6 L9.0 28.65 8.75 28.6 9.15 25.85 9.4 25.65 15.6 25.3 Q15.85 25.2 15.85 25.45 M17.1 26.2 L26.7 25.3 Q28.9 25.3 29.85 26.3 30.8 27.3 30.8 29.4 30.75 30.8 30.1 32.05 29.4 33.3 28.25 34.0 26.35 35.2 21.45 35.25 21.35 35.2 21.3 35.3 L21.1 37.35 23.5 37.55 23.7 37.8 23.55 40.15 23.3 40.4 17.5 40.8 Q17.2 40.85 17.25 40.5 L17.35 37.2 Q17.3 36.9 17.6 37.0 L18.8 37.1 19.05 37.1 19.1 28.8 16.4 28.7 17.1 26.2 M27.95 29.8 Q27.45 29.2 24.95 29.15 L24.15 29.15 22.0 28.9 21.45 33.1 23.4 33.35 26.45 33.05 27.7 32.05 28.15 30.7 27.95 29.8" fill="#ffffff" fill-rule="evenodd" stroke="none"/>
  </g>
</svg>
