<?xml version="1.0" encoding="UTF-8" standalone="no"?>
<svg xmlns:xlink="http://www.w3.org/1999/xlink" height="49.65px" width="96.9px" xmlns="http://www.w3.org/2000/svg">
  <g transform="matrix(1.0, 0.0, 0.0, 1.0, 0.0, 0.0)">
    <path d="M96.2 5.45 Q96.15 6.1 95.7 6.05 L94.5 5.95 94.35 3.75 Q94.4 3.55 94.15 3.6 L88.95 3.5 Q88.65 3.45 88.65 3.65 L88.3 6.5 Q88.3 6.7 88.55 6.65 L92.75 6.5 92.95 6.65 Q92.95 8.2 92.75 8.45 L92.0 8.6 88.25 8.5 Q88.0 8.5 88.0 8.8 L87.7 11.25 Q87.7 11.5 87.95 11.4 L94.45 11.75 94.7 11.55 95.15 9.15 Q95.15 8.9 95.55 8.9 L96.75 8.95 96.9 9.8 96.5 14.5 Q96.5 14.85 94.95 14.8 L85.7 15.25 84.15 15.15 Q83.9 15.05 83.95 14.35 L84.1 11.4 84.3 11.25 85.5 11.3 85.75 11.1 86.0 4.85 85.9 3.6 Q85.85 3.35 85.05 3.4 L83.85 3.45 83.25 3.3 83.75 0.55 Q83.8 0.35 84.0 0.4 L96.35 0.0 96.5 0.2 96.2 5.45 M82.5 0.75 L82.25 3.65 Q82.3 3.95 82.0 3.85 L80.65 3.85 Q80.4 3.75 80.4 4.05 L80.05 7.8 Q79.7 9.7 79.65 11.75 L79.75 12.0 81.6 12.05 Q81.85 12.0 81.8 12.3 L81.5 14.75 81.25 15.0 75.8 15.3 75.5 15.05 75.45 11.95 Q75.45 11.65 75.75 11.75 L77.35 11.8 Q77.7 11.95 77.65 11.6 L77.75 9.1 Q77.85 8.8 77.55 8.85 L70.7 8.75 Q70.4 8.7 70.4 8.9 L70.1 11.75 70.3 11.9 71.9 12.0 72.15 12.25 71.9 14.55 Q71.85 15.1 71.45 15.05 L67.5 15.25 66.7 15.2 66.65 14.95 66.6 11.85 Q66.55 11.6 66.85 11.7 L67.95 11.75 68.2 11.5 68.15 10.55 68.35 4.0 Q68.4 3.65 68.05 3.7 L67.45 3.75 65.75 3.55 66.1 0.8 Q66.2 0.65 66.4 0.7 L67.65 0.8 73.0 0.4 Q73.25 0.35 73.15 0.6 L72.8 3.55 72.5 3.75 71.2 3.75 70.95 3.9 70.6 6.95 70.9 7.1 77.85 6.7 77.9 3.95 77.7 3.7 77.25 3.75 75.75 3.6 Q75.5 3.5 75.6 3.35 L75.65 0.95 Q75.65 0.7 75.9 0.75 L82.2 0.5 Q82.55 0.4 82.5 0.75 M96.7 34.55 L96.4 37.25 Q96.1 38.7 96.1 40.3 L95.9 40.55 94.65 40.55 Q94.4 40.6 94.45 40.3 L94.45 38.2 Q94.5 37.95 94.2 38.0 L91.0 37.85 Q90.75 37.8 90.75 38.05 L89.85 45.8 91.8 46.05 92.05 46.25 91.6 49.0 91.35 49.2 85.95 49.4 85.7 49.2 85.55 45.8 Q85.5 45.55 85.75 45.55 L87.4 45.7 87.65 45.5 87.85 38.0 87.65 37.8 84.8 37.7 Q84.5 37.65 84.5 37.85 L84.0 40.25 83.75 40.45 82.35 40.35 82.35 40.15 82.65 37.65 Q82.65 36.3 82.8 34.95 82.8 34.65 83.05 34.7 L96.45 34.45 Q96.65 34.35 96.7 34.55 M81.6 34.8 L81.3 37.7 81.0 37.95 79.75 37.95 Q79.45 37.9 79.45 38.15 78.9 42.6 78.8 45.8 78.7 46.0 78.9 46.05 L80.35 46.15 Q80.65 46.1 80.7 46.3 L80.35 49.15 80.0 49.3 79.45 49.3 75.45 49.65 Q75.15 49.75 75.2 49.4 L75.05 46.2 Q75.0 45.9 75.3 45.95 L76.35 46.05 76.6 45.8 76.7 38.2 Q76.7 37.8 76.4 37.9 L75.8 37.95 74.3 37.85 Q74.05 37.75 74.15 37.6 L74.4 35.4 Q74.5 34.9 74.75 34.95 L81.4 34.6 Q81.7 34.5 81.6 34.8 M62.55 3.9 Q62.6 3.65 62.3 3.7 L59.1 3.55 Q58.85 3.5 58.85 3.75 L57.95 11.5 59.9 11.75 Q60.2 11.7 60.15 11.95 L59.7 14.7 59.45 14.9 54.05 15.1 53.8 14.9 53.65 11.5 Q53.6 11.25 53.85 11.25 L55.5 11.4 55.75 11.2 55.95 3.7 55.75 3.5 52.9 3.4 Q52.6 3.35 52.6 3.55 L52.1 5.95 51.85 6.15 50.45 6.05 50.45 5.85 50.9 0.65 Q50.9 0.35 51.15 0.4 L64.55 0.15 Q64.75 0.05 64.8 0.25 L64.5 2.95 Q64.2 4.4 64.2 6.0 L64.0 6.25 62.75 6.25 Q62.5 6.3 62.55 6.0 L62.55 3.9 M64.4 17.8 L63.65 20.35 Q63.35 21.5 63.45 22.3 L63.45 23.2 61.95 23.45 Q61.65 23.5 61.7 23.15 L61.7 21.95 Q61.65 21.7 60.45 21.3 L57.55 20.9 Q54.75 20.9 52.95 22.55 52.1 23.35 51.65 24.35 51.2 25.35 51.2 26.1 51.2 27.35 52.4 28.15 53.6 28.95 55.7 28.95 58.55 28.85 60.2 28.05 L61.95 27.1 56.55 26.75 56.75 25.4 Q56.75 25.1 57.05 25.15 L64.0 24.85 64.3 24.95 63.6 30.2 61.3 31.55 Q59.15 32.6 56.1 32.75 52.0 32.85 50.25 29.85 49.75 29.0 49.55 28.2 49.3 27.45 49.35 26.45 49.45 22.05 51.9 19.55 54.3 17.1 57.5 17.05 58.85 17.05 59.95 17.5 L61.55 18.45 61.75 18.6 61.8 18.4 61.95 17.3 63.7 17.15 Q64.35 17.15 64.4 17.8 M66.95 22.45 Q67.0 23.3 68.1 23.55 L76.55 24.6 Q78.45 25.35 78.5 27.2 78.45 29.15 76.65 30.75 74.8 32.4 71.6 32.5 68.7 32.4 66.7 31.55 64.7 30.75 64.65 30.55 L65.2 27.9 66.8 28.35 70.7 28.8 74.75 28.25 Q76.25 27.7 76.25 27.05 76.3 26.25 74.75 26.3 L72.5 26.4 67.4 26.0 Q64.95 25.15 64.95 22.75 65.0 20.5 66.7 18.8 68.4 17.1 71.15 17.05 73.9 16.95 76.35 18.6 L76.5 18.65 76.55 18.55 76.7 17.55 Q76.75 17.35 77.0 17.4 L78.25 17.3 Q78.55 17.25 78.45 17.55 L77.65 23.0 77.15 23.1 76.2 23.15 Q75.9 23.2 75.95 22.9 L76.1 21.7 75.0 21.15 Q73.9 20.7 71.8 20.65 69.8 20.65 68.45 21.25 67.05 21.8 66.95 22.45 M41.45 6.25 L40.2 6.25 Q39.95 6.3 40.0 6.0 L40.0 3.9 Q40.05 3.65 39.75 3.7 L36.55 3.55 Q36.3 3.5 36.3 3.75 L35.4 11.5 37.35 11.75 Q37.65 11.7 37.6 11.95 L37.15 14.7 36.9 14.9 31.5 15.1 31.25 14.9 31.1 11.5 Q31.05 11.25 31.3 11.25 L32.95 11.4 Q33.2 11.5 33.2 11.2 L33.4 3.7 33.2 3.5 30.35 3.4 Q30.05 3.35 30.05 3.55 L29.55 5.95 29.3 6.15 27.9 6.05 27.9 5.85 28.35 0.65 Q28.35 0.35 28.6 0.4 L42.0 0.15 Q42.2 0.05 42.25 0.25 L41.95 2.95 Q41.65 4.4 41.65 6.0 L41.45 6.25 M48.9 23.85 L48.75 25.75 48.25 27.55 Q46.55 32.7 41.35 32.6 L38.6 32.3 Q37.4 31.95 36.2 31.05 33.65 29.25 33.7 26.0 33.75 23.85 34.2 22.15 34.7 20.4 35.35 19.5 37.35 16.85 41.75 16.95 45.1 16.95 46.95 18.75 48.85 20.55 48.9 23.85 M41.25 21.0 L39.1 21.1 Q37.2 21.3 36.45 21.95 35.65 22.6 35.65 24.15 35.7 25.35 36.4 26.45 37.15 27.55 38.35 28.15 39.55 28.75 42.3 28.8 44.55 28.75 45.7 27.7 46.85 26.6 46.85 25.05 46.9 22.8 45.75 21.9 L44.2 21.3 41.25 21.0 M53.35 34.7 L65.7 34.3 65.85 34.5 65.55 39.75 Q65.5 40.4 65.05 40.35 L63.85 40.25 63.7 38.05 63.5 37.9 58.3 37.8 Q58.0 37.75 58.0 37.95 L57.65 40.8 Q57.65 41.0 57.9 40.95 L62.1 40.8 62.3 40.95 Q62.3 42.5 62.1 42.75 L61.35 42.9 57.6 42.8 Q57.35 42.8 57.35 43.1 L57.05 45.55 Q57.05 45.8 57.3 45.7 L63.8 46.05 64.05 45.85 64.5 43.45 Q64.5 43.2 64.9 43.2 L66.1 43.25 66.25 44.1 65.85 48.8 Q65.85 49.15 64.3 49.1 L55.05 49.55 53.5 49.45 Q53.25 49.35 53.3 48.65 L53.45 45.7 Q53.4 45.5 53.65 45.55 L54.85 45.6 55.1 45.4 55.35 39.15 55.25 37.9 Q55.2 37.65 54.4 37.7 L53.2 37.75 52.6 37.6 53.1 34.85 53.35 34.7 M51.5 35.95 Q51.25 36.7 51.15 37.65 L50.95 37.85 50.0 37.8 Q49.75 37.75 49.7 37.95 L47.1 42.25 Q44.85 45.95 44.85 46.2 L46.15 46.25 Q46.45 46.2 46.4 46.45 L46.1 49.05 45.85 49.25 39.25 49.55 Q39.0 49.6 39.05 49.4 L38.9 46.25 Q38.85 46.0 39.05 46.05 L40.5 46.05 37.0 37.85 36.85 37.8 36.3 37.85 35.55 37.75 35.95 35.0 Q36.0 34.8 36.2 34.85 L42.5 34.6 42.7 34.8 42.3 37.75 42.05 38.0 40.35 37.85 40.15 37.9 41.4 42.05 41.4 42.0 42.7 46.1 46.75 37.65 46.55 37.6 44.95 37.45 45.35 35.1 Q45.4 34.8 45.6 34.85 L51.75 34.55 51.5 35.95 M26.75 0.2 L26.45 5.45 Q26.4 6.1 25.95 6.05 L24.75 5.95 24.6 3.75 Q24.65 3.55 24.4 3.6 L19.2 3.5 Q18.9 3.45 18.9 3.65 L18.55 6.5 Q18.55 6.7 18.8 6.65 L23.0 6.5 23.2 6.65 Q23.2 8.2 23.0 8.45 L22.25 8.6 18.5 8.5 Q18.25 8.5 18.25 8.8 L17.95 11.25 Q17.95 11.5 18.2 11.4 L24.7 11.75 24.95 11.55 25.4 9.15 Q25.4 8.9 25.8 8.9 L27.0 8.95 27.15 9.8 26.75 14.5 Q26.75 14.85 25.2 14.8 L15.95 15.25 14.4 15.15 Q14.15 15.05 14.2 14.35 L14.35 11.4 14.55 11.25 15.75 11.3 16.0 11.1 16.25 4.85 16.15 3.6 Q16.1 3.35 15.3 3.4 L14.1 3.45 13.5 3.3 14.0 0.55 Q14.05 0.35 14.25 0.4 L26.6 0.0 26.75 0.2 M28.35 17.3 L30.5 18.5 30.45 17.85 Q30.4 16.65 30.75 16.8 L31.2 16.85 32.35 16.65 32.5 17.95 32.2 23.4 Q32.15 23.9 30.7 23.85 L30.55 23.6 30.65 23.15 30.45 21.8 29.2 21.25 26.25 20.7 Q23.65 20.8 22.1 22.2 20.55 23.65 20.5 25.6 20.6 28.35 23.85 28.75 L25.75 28.8 30.6 28.35 32.8 27.85 Q33.15 27.65 33.1 28.0 L32.85 30.35 Q32.2 30.95 29.8 31.75 27.4 32.6 24.6 32.65 L23.25 32.45 22.0 31.85 Q18.5 29.95 18.45 25.75 18.5 22.15 20.7 19.55 22.9 17.0 26.2 16.85 L28.35 17.3 M12.75 8.9 L12.3 14.65 12.0 14.9 0.85 15.25 Q0.75 15.2 0.8 14.95 L0.65 12.0 0.7 11.3 0.9 11.25 2.15 11.3 Q2.45 11.4 2.4 11.1 L2.65 3.65 Q2.7 3.4 2.4 3.45 L0.0 3.3 Q0.1 2.4 0.55 0.45 0.6 0.25 0.8 0.3 L8.0 0.05 Q8.3 0.0 8.25 0.25 L8.0 3.4 7.75 3.65 5.65 3.55 Q5.35 3.45 5.35 3.8 L4.7 11.25 5.0 11.5 5.55 11.45 10.0 11.7 10.3 11.45 Q10.9 8.85 11.1 8.7 L12.5 8.65 Q12.8 8.6 12.75 8.9 M16.75 34.8 Q17.1 34.7 17.05 35.05 L16.8 37.95 16.55 38.15 15.2 38.15 14.95 38.35 14.6 42.1 Q14.25 44.0 14.2 46.05 L14.3 46.3 16.15 46.35 Q16.4 46.3 16.35 46.6 L16.05 49.05 15.8 49.3 10.35 49.6 Q10.0 49.7 10.05 49.35 L10.0 46.25 Q10.0 45.95 10.3 46.05 L11.9 46.1 Q12.25 46.25 12.2 45.9 L12.3 43.4 Q12.4 43.1 12.1 43.15 L5.25 43.05 Q4.95 43.0 4.95 43.2 L4.65 46.05 Q4.7 46.25 4.85 46.2 L6.45 46.3 6.7 46.55 6.45 48.85 Q6.4 49.4 6.0 49.35 L2.05 49.55 1.25 49.5 Q1.15 49.45 1.2 49.25 L1.15 46.15 Q1.1 45.9 1.4 46.0 L2.5 46.05 2.75 45.8 2.7 44.85 2.9 38.3 Q2.95 37.95 2.6 38.0 L2.0 38.05 0.3 37.85 0.65 35.1 0.95 35.0 2.2 35.1 7.55 34.7 Q7.8 34.65 7.7 34.9 L7.35 37.85 7.05 38.05 5.75 38.05 Q5.5 38.0 5.5 38.2 L5.15 41.25 Q5.2 41.45 5.45 41.4 L12.4 41.0 12.45 38.25 Q12.5 37.95 12.25 38.0 L11.8 38.05 10.3 37.9 10.15 37.65 10.2 35.25 Q10.2 35.0 10.45 35.05 L16.75 34.8 M18.05 46.2 Q18.05 45.9 18.3 46.0 L19.95 46.05 24.2 37.95 24.0 37.9 23.45 37.95 21.75 37.8 22.3 35.2 Q22.3 34.9 22.55 34.95 L23.0 34.95 28.75 34.4 Q29.1 34.25 29.1 34.65 L32.6 46.35 32.85 46.4 34.5 46.55 34.15 48.95 Q34.15 49.35 33.75 49.25 L33.15 49.2 28.15 49.55 Q27.8 49.7 27.85 49.2 L27.75 46.55 Q27.65 46.1 28.05 46.2 L30.05 46.3 30.3 46.25 29.5 43.95 29.35 43.7 23.15 44.05 22.0 46.15 23.85 46.3 24.05 46.55 23.9 49.05 Q23.95 49.35 23.6 49.3 L18.3 49.55 Q17.95 49.55 18.0 49.25 L18.05 46.2 M26.9 37.85 L25.25 40.5 Q24.35 41.85 24.3 42.1 L24.55 42.15 28.55 42.25 28.8 42.2 26.9 37.85" fill="#ffffff" fill-rule="evenodd" stroke="none"/>
  </g>
</svg>
