<?xml version="1.0" encoding="UTF-8" standalone="no"?>
<svg xmlns:xlink="http://www.w3.org/1999/xlink" height="40.65px" width="79.15px" xmlns="http://www.w3.org/2000/svg">
  <g transform="matrix(1.0, 0.0, 0.0, 1.0, 0.0, 0.0)">
    <path d="M76.95 4.7 L70.15 9.8 70.45 9.75 Q72.15 9.75 73.05 10.4 73.95 11.0 74.4 12.3 74.9 13.8 75.6 14.15 L78.75 14.5 Q79.15 14.4 79.15 14.8 L79.05 17.9 Q79.1 18.25 78.75 18.2 L73.55 18.55 Q73.2 18.6 73.1 18.3 L72.7 16.35 71.65 13.55 70.65 12.1 Q69.75 11.35 68.35 11.35 66.4 11.5 66.1 11.8 L65.8 14.35 66.1 14.55 68.25 14.75 68.5 15.05 68.25 17.75 Q68.3 18.15 67.95 18.05 L62.0 18.55 Q61.65 18.65 61.75 18.25 L61.65 14.4 Q61.55 14.0 61.95 14.1 L63.2 14.2 Q63.6 14.3 63.55 13.95 L63.95 4.7 Q64.05 4.35 63.7 4.45 L61.35 4.15 61.95 1.1 Q61.95 0.75 62.3 0.85 L63.45 0.9 69.45 0.6 Q69.85 0.5 69.7 0.9 L69.3 4.25 68.95 4.55 67.1 4.55 66.3 9.9 66.3 10.15 72.75 4.65 72.55 4.6 71.4 4.55 Q71.05 4.6 71.1 4.3 L71.3 1.2 Q71.3 0.8 71.65 0.85 L78.75 0.45 Q79.15 0.35 79.1 0.7 L78.55 4.45 Q78.7 4.85 77.65 4.75 L76.95 4.7 M75.4 22.6 L75.05 28.85 Q75.05 29.6 74.45 29.55 L73.05 29.4 72.9 26.8 Q72.95 26.55 72.65 26.6 L71.85 26.65 66.5 26.5 Q66.2 26.45 66.15 26.7 L65.75 30.05 66.05 30.25 71.0 30.05 71.2 30.2 Q71.2 32.1 71.0 32.35 70.75 32.65 70.1 32.55 L65.7 32.4 Q65.35 32.45 65.4 32.75 L65.05 35.65 65.35 35.85 73.0 36.25 73.3 36.0 73.8 33.15 Q73.85 32.85 74.3 32.9 L75.7 32.95 Q75.95 33.05 75.9 33.95 L75.65 35.7 Q75.45 37.1 75.4 39.5 75.4 39.95 73.6 39.9 71.8 39.8 68.05 40.0 L62.7 40.4 60.85 40.3 Q60.55 40.15 60.6 39.35 L60.8 35.85 Q60.75 35.6 61.0 35.65 L62.45 35.7 62.7 35.5 62.95 26.6 61.9 26.4 60.5 26.45 59.75 26.3 60.4 23.05 Q60.4 22.8 60.65 22.85 L75.25 22.4 75.4 22.6 M58.55 0.25 L59.9 0.0 Q60.15 0.05 60.1 1.55 L59.7 8.0 Q59.65 8.6 57.95 8.55 57.75 8.5 57.8 8.25 L57.9 7.75 57.65 6.1 Q57.6 6.0 56.2 5.45 54.8 4.9 52.7 4.85 49.65 4.9 47.8 6.6 45.95 8.3 45.9 10.6 46.05 13.85 49.85 14.3 L52.1 14.4 57.85 13.85 60.45 13.25 Q60.85 13.05 60.75 13.45 L60.5 16.2 Q59.7 16.95 56.9 17.9 54.05 18.85 50.75 18.95 L49.15 18.7 47.65 18.0 Q43.55 15.75 43.45 10.8 43.55 6.55 46.15 3.5 48.75 0.4 52.6 0.3 53.8 0.3 55.2 0.8 56.55 1.3 57.7 2.2 L57.7 1.45 Q57.6 0.05 58.0 0.2 L58.55 0.25 M42.65 1.25 L42.2 4.65 41.9 4.95 40.4 4.95 Q40.05 4.85 40.05 5.2 39.45 10.45 39.3 14.2 39.2 14.45 39.4 14.5 L41.15 14.6 Q41.5 14.55 41.5 14.85 L41.1 18.2 Q41.05 18.45 40.75 18.35 L40.05 18.35 35.35 18.75 Q34.95 18.85 35.0 18.45 L34.9 14.65 Q34.8 14.35 35.15 14.4 L36.4 14.5 Q36.75 14.6 36.7 14.2 L36.85 5.2 Q36.8 4.8 36.45 4.9 L35.7 4.95 33.95 4.85 Q33.65 4.75 33.75 4.5 L34.1 1.95 Q34.2 1.35 34.5 1.4 L42.35 1.0 Q42.7 0.9 42.65 1.25 M41.7 23.35 L53.1 22.35 Q55.3 22.3 56.5 22.95 58.1 24.0 58.15 26.15 58.1 28.25 56.6 30.05 55.05 31.85 52.55 32.65 L52.3 32.75 53.7 34.15 Q54.25 35.45 55.5 36.25 L57.05 36.5 58.5 36.4 Q58.8 36.3 58.75 36.65 L58.35 39.8 Q58.4 40.15 58.05 40.1 L53.35 40.6 53.05 40.6 52.0 37.2 Q51.25 34.55 50.0 33.8 48.75 33.1 46.1 33.2 45.75 33.1 45.8 33.45 L45.6 36.4 48.15 36.7 Q48.6 36.65 48.45 37.15 L48.05 39.7 Q48.0 40.05 47.2 40.15 L41.75 40.6 Q41.25 40.75 41.35 40.3 L41.45 36.35 Q41.5 36.2 41.7 36.2 L42.85 36.35 43.15 36.3 43.45 26.75 Q43.5 26.45 43.2 26.55 L40.9 26.35 41.35 23.65 Q41.45 23.35 41.7 23.35 M51.85 26.95 L46.85 26.6 Q46.55 26.55 46.45 26.9 L46.0 30.8 Q45.9 31.1 46.2 31.15 L50.4 31.0 52.4 30.65 Q54.7 30.1 54.75 28.5 54.7 27.2 51.85 26.95 M32.8 10.85 Q33.15 10.8 33.1 11.15 L32.55 17.95 Q32.55 18.3 32.2 18.25 L19.8 18.65 19.05 18.6 18.95 18.3 18.75 14.8 18.8 14.0 19.1 13.9 20.55 14.0 20.9 13.75 20.85 12.75 21.15 4.95 Q21.2 4.65 20.9 4.75 L18.0 4.5 18.65 1.15 Q18.7 0.95 18.95 1.0 L27.5 0.7 Q27.8 0.65 27.75 0.95 L27.45 4.65 Q27.5 5.0 27.15 4.95 L24.65 4.85 Q24.3 4.75 24.35 5.1 L23.9 9.7 Q23.6 11.9 23.6 13.9 23.5 14.25 23.9 14.2 L24.55 14.15 29.85 14.45 30.2 14.15 Q30.9 11.1 31.1 10.9 L32.8 10.85 M25.0 22.85 L39.6 22.4 39.75 22.6 39.4 28.85 Q39.4 29.6 38.8 29.55 L37.4 29.4 37.25 26.8 Q37.3 26.55 37.0 26.6 L36.2 26.65 30.85 26.5 Q30.55 26.45 30.5 26.7 L30.1 30.05 30.4 30.25 35.35 30.05 Q35.6 30.0 35.55 30.2 35.55 32.1 35.35 32.35 35.1 32.65 34.45 32.55 L30.05 32.4 Q29.7 32.45 29.75 32.75 L29.4 35.65 Q29.4 35.95 29.7 35.85 L37.35 36.25 37.65 36.0 38.15 33.15 Q38.2 32.85 38.65 32.9 L40.05 32.95 Q40.3 33.05 40.25 33.95 L40.0 35.7 Q39.8 37.1 39.75 39.5 39.75 39.95 37.95 39.9 36.15 39.8 32.4 40.0 L27.05 40.4 25.2 40.3 Q24.9 40.15 24.95 39.35 L25.15 35.85 Q25.1 35.6 25.35 35.65 L26.8 35.7 27.05 35.5 27.3 26.6 26.25 26.4 24.85 26.45 24.1 26.3 24.75 23.05 Q24.75 22.8 25.0 22.85 M23.2 23.25 L22.9 26.65 Q22.95 27.0 22.6 26.95 L21.05 26.9 Q20.7 26.8 20.75 27.15 L20.3 31.55 Q19.9 33.85 19.8 36.25 19.75 36.55 19.95 36.55 L22.15 36.6 22.4 36.9 22.0 39.8 Q22.05 40.15 21.7 40.1 L15.3 40.45 Q14.9 40.6 14.95 40.15 L14.9 36.5 Q14.85 36.15 15.2 36.25 L17.1 36.35 Q17.55 36.5 17.5 36.1 L17.6 33.1 Q17.7 32.75 17.35 32.8 L9.2 32.7 Q8.9 32.65 8.9 32.9 L8.55 36.25 8.8 36.45 10.7 36.55 10.95 36.8 10.65 39.55 Q10.6 40.2 10.15 40.15 L5.5 40.4 4.55 40.35 4.45 40.05 4.5 39.45 4.4 36.4 Q4.35 36.1 4.7 36.2 L6.05 36.25 6.3 36.0 6.45 27.1 Q6.55 26.7 6.15 26.75 L5.45 26.8 3.35 26.6 3.85 23.3 Q3.95 23.15 4.15 23.2 L5.65 23.35 11.95 22.85 Q12.25 22.8 12.15 23.1 L11.75 26.55 Q11.75 26.8 11.35 26.8 L9.8 26.8 Q9.55 26.75 9.55 27.0 L9.15 30.6 Q9.2 30.85 9.5 30.75 L17.7 30.3 17.8 27.05 Q17.85 26.7 17.55 26.75 L17.0 26.8 15.2 26.65 Q14.95 26.5 15.05 26.3 L15.1 23.5 Q15.1 23.2 15.4 23.25 L22.85 22.95 Q23.25 22.85 23.2 23.25 M16.65 1.55 L16.25 8.0 Q16.2 8.6 14.5 8.55 14.3 8.5 14.35 8.25 L14.45 7.75 14.2 6.1 Q14.15 6.0 12.75 5.45 11.35 4.9 9.25 4.85 6.2 4.9 4.35 6.6 2.5 8.3 2.45 10.6 2.6 13.85 6.4 14.3 L8.65 14.4 14.4 13.85 17.0 13.25 Q17.4 13.05 17.3 13.45 L17.05 16.2 Q16.25 16.95 13.45 17.9 10.6 18.85 7.3 18.95 L5.7 18.7 4.2 18.0 Q0.1 15.75 0.0 10.8 0.1 6.55 2.7 3.5 5.3 0.4 9.15 0.3 L11.75 0.8 Q13.1 1.3 14.25 2.2 L14.25 1.45 Q14.15 0.05 14.55 0.2 L15.1 0.25 16.45 0.0 Q16.7 0.05 16.65 1.55" fill="#ffffff" fill-rule="evenodd" stroke="none"/>
  </g>
</svg>
