<?xml version="1.0" encoding="UTF-8" standalone="no"?>
<svg xmlns:xlink="http://www.w3.org/1999/xlink" height="450.2px" width="676.75px" xmlns="http://www.w3.org/2000/svg">
  <g transform="matrix(1.0, 0.0, 0.0, 1.0, 338.4, 225.1)">
    <path d="M217.9 -214.05 L217.0 -214.15 -217.85 -214.15 -227.85 -223.9 Q-226.3 -225.1 -224.25 -225.1 L223.3 -225.1 Q225.55 -225.05 227.2 -223.55 L217.9 -214.05 M-325.95 -154.35 L-328.4 -149.65 -328.4 114.3 -328.15 115.7 Q-327.5 118.55 -324.7 119.65 L-336.65 124.45 -338.4 120.2 -338.4 -157.3 -336.15 -161.95 -325.95 -154.35 M-223.9 120.35 Q-226.15 141.9 -223.25 161.25 -223.05 162.65 -221.95 163.6 L-229.25 170.9 Q-230.3 169.4 -230.3 167.5 L-230.3 126.2 -234.6 126.2 -223.9 120.35 M216.95 164.75 Q220.8 163.4 220.85 159.3 L221.0 122.95 227.3 128.6 226.85 168.75 Q226.8 171.25 224.45 172.65 L216.95 164.75 M323.75 120.05 Q327.45 119.05 328.2 115.25 L328.35 114.3 328.35 -164.1 Q328.1 -168.75 323.65 -170.0 L335.1 -178.15 Q338.25 -176.35 338.35 -172.65 L338.35 120.05 338.3 120.8 Q337.45 125.95 332.35 126.35 L323.75 120.05 M-230.25 -163.3 L-230.25 -163.5 -230.15 -163.4 -230.25 -163.3" fill="#369c41" fill-rule="evenodd" stroke="none"/>
    <path d="M-217.85 -214.15 Q-223.2 -213.8 -223.3 -208.45 -223.85 -181.9 -223.85 -155.35 L-322.6 -155.35 -325.95 -154.35 -336.15 -161.95 -332.4 -163.3 -230.25 -163.3 -230.15 -163.4 -230.25 -163.5 -230.2 -219.1 Q-230.2 -222.05 -227.85 -223.9 L-217.85 -214.15 M-324.7 119.65 L-322.6 120.0 -223.9 120.35 -234.6 126.2 -332.4 126.2 Q-334.9 126.2 -336.65 124.45 L-324.7 119.65 M-221.95 163.6 L-218.1 165.0 -156.1 165.0 Q-156.05 187.25 -155.45 209.55 -155.4 211.8 -153.45 213.15 L-152.5 213.5 -150.35 214.1 151.95 214.1 Q155.8 214.05 157.25 210.55 L157.45 209.55 157.7 165.0 216.95 164.75 224.45 172.65 Q223.05 173.5 221.3 173.5 L161.65 173.5 161.65 219.1 Q161.65 221.6 159.9 223.35 158.15 225.1 155.65 225.1 L-153.95 225.1 Q-156.45 225.1 -158.2 223.35 -159.95 221.6 -159.95 219.1 L-159.95 173.5 -224.3 173.5 Q-226.8 173.5 -228.55 171.75 L-229.25 170.9 -221.95 163.6 M221.0 122.95 L221.0 120.2 322.55 120.2 323.75 120.05 332.35 126.35 227.3 126.35 227.3 128.6 221.0 122.95 M323.65 -170.0 L322.55 -170.1 222.75 -170.1 222.7 -208.45 222.6 -209.6 Q221.8 -213.3 217.9 -214.05 L227.2 -223.55 Q229.1 -221.7 229.1 -219.1 L229.15 -178.8 332.35 -178.8 335.1 -178.15 323.65 -170.0" fill="#2d8235" fill-rule="evenodd" stroke="none"/>
    <path d="M216.95 -211.35 L-8.25 -211.75 -35.65 -211.7 -94.95 -211.65 -127.0 -211.85 Q-156.45 -212.2 -185.55 -211.95 L-194.65 -211.75 -217.25 -210.75 -218.85 -207.6 219.05 -207.6 216.95 -211.35 M-217.85 -214.15 L217.0 -214.15 217.9 -214.05 Q221.8 -213.3 222.6 -209.6 L222.7 -208.45 222.75 -170.1 322.55 -170.1 323.65 -170.0 Q328.1 -168.75 328.35 -164.1 L328.35 114.3 328.2 115.25 Q327.45 119.05 323.75 120.05 L322.55 120.2 221.0 120.2 221.0 122.95 220.85 159.3 Q220.8 163.4 216.95 164.75 L157.7 165.0 157.45 209.55 157.25 210.55 Q155.8 214.05 151.95 214.1 L-150.35 214.1 -152.5 213.5 -153.45 213.15 Q-155.4 211.8 -155.45 209.55 -156.05 187.25 -156.1 165.0 L-218.1 165.0 -221.95 163.6 Q-223.05 162.65 -223.25 161.25 -226.15 141.9 -223.9 120.35 L-322.6 120.0 -324.7 119.65 Q-327.5 118.55 -328.15 115.7 L-328.4 114.3 -328.4 -149.65 -325.95 -154.35 -322.6 -155.35 -223.85 -155.35 Q-223.85 -181.9 -223.3 -208.45 -223.2 -213.8 -217.85 -214.15 M323.3 -163.65 L321.2 -166.95 Q289.1 -168.8 257.1 -167.75 239.95 -167.05 223.3 -164.2 L323.3 -163.65 M322.15 -154.85 L321.6 -154.85 321.6 -45.6 322.05 -38.1 Q322.9 -26.75 322.15 -15.25 L321.6 -6.0 321.6 107.4 323.0 109.8 322.95 110.4 Q324.5 94.65 324.35 78.5 323.8 17.8 324.5 -42.95 325.2 -99.4 322.15 -154.85 M-227.1 -151.45 Q-254.0 -151.1 -280.9 -152.25 -303.05 -153.6 -323.75 -150.15 L-324.25 -148.5 -225.25 -148.0 -227.1 -151.45" fill="#45bf52" fill-rule="evenodd" stroke="none"/>
    <path d="M216.95 -211.35 L219.05 -207.6 -218.85 -207.6 -217.25 -210.75 -194.65 -211.75 -185.55 -211.95 Q-156.45 -212.2 -127.0 -211.85 L-94.95 -211.65 -35.65 -211.7 -8.25 -211.75 216.95 -211.35 M322.15 -154.85 Q325.2 -99.4 324.5 -42.95 323.8 17.8 324.35 78.5 324.5 94.65 322.95 110.4 L323.0 109.8 321.6 107.4 321.6 -6.0 322.15 -15.25 Q322.9 -26.75 322.05 -38.1 L321.6 -45.6 321.6 -154.85 322.15 -154.85 M323.3 -163.65 L223.3 -164.2 Q239.95 -167.05 257.1 -167.75 289.1 -168.8 321.2 -166.95 L323.3 -163.65 M-227.1 -151.45 L-225.25 -148.0 -324.25 -148.5 -323.75 -150.15 Q-303.05 -153.6 -280.9 -152.25 -254.0 -151.1 -227.1 -151.45" fill="#2fea00" fill-rule="evenodd" stroke="none"/>
  </g>
</svg>
