<?xml version="1.0" encoding="UTF-8" standalone="no"?>
<svg xmlns:xlink="http://www.w3.org/1999/xlink" height="99.45px" width="99.9px" xmlns="http://www.w3.org/2000/svg">
  <g transform="matrix(1.0, 0.0, 0.0, 1.0, 1.9, 1.7)">
    <path d="M73.5 86.55 L73.65 86.6 73.7 86.6 77.1 89.6 77.15 89.75 77.1 89.95 73.7 92.9 73.5 92.95 73.25 92.7 73.25 86.8 Q73.25 86.55 73.5 86.55 M13.1 96.75 L13.1 82.75 -0.9 82.75 -0.9 96.75 13.1 96.75 M14.1 97.7 L14.1 97.75 -1.9 97.75 -1.9 81.75 14.1 81.75 14.1 96.7 66.9 96.7 66.9 97.75 61.9 97.75 61.9 97.7 14.1 97.7 M7.6 86.6 L7.8 86.55 8.05 86.8 8.05 92.7 7.8 92.95 7.65 92.9 7.6 92.9 4.2 89.9 4.15 89.75 4.2 89.55 7.6 86.6 M14.25 82.75 L14.25 81.75 67.15 81.75 67.15 82.8 62.15 82.8 62.15 82.75 14.25 82.75 M82.2 96.75 L82.2 82.75 68.2 82.75 68.2 96.75 82.2 96.75 M82.0 65.95 L98.0 65.95 98.0 81.95 83.2 81.95 83.2 97.75 67.2 97.75 67.2 81.75 82.0 81.75 82.0 65.95 M97.0 66.95 L83.0 66.95 83.0 80.95 97.0 80.95 97.0 66.95 M86.85 72.45 L86.8 72.25 Q86.8 72.0 87.05 72.0 L92.95 72.0 93.2 72.25 93.15 72.4 93.15 72.45 90.15 75.85 90.0 75.9 89.8 75.85 86.85 72.45 M93.15 7.8 L93.2 8.0 92.95 8.25 87.05 8.25 86.8 8.0 86.85 7.85 86.85 7.8 89.85 4.4 90.0 4.35 90.2 4.4 93.15 7.8 M97.0 -0.7 L83.0 -0.7 83.0 13.0 83.05 13.0 83.05 13.3 97.0 13.3 97.0 -0.7 M82.0 -1.7 L98.0 -1.7 98.0 65.9 96.95 65.9 96.95 60.9 97.0 60.9 97.0 14.3 83.05 14.3 83.05 65.9 82.0 65.9 82.0 60.9 82.05 60.9 82.05 14.3 82.0 14.3 82.0 -1.7" fill="#d4d0d8" fill-rule="evenodd" stroke="none"/>
  </g>
</svg>
