<?xml version="1.0" encoding="UTF-8" standalone="no"?>
<svg xmlns:xlink="http://www.w3.org/1999/xlink" height="131.95px" width="108.45px" xmlns="http://www.w3.org/2000/svg">
  <g transform="matrix(1.0, 0.0, 0.0, 1.0, 54.35, 66.05)">
    <path d="M29.55 -62.75 L30.85 -60.85 Q9.35 -65.25 -12.85 -63.5 L-23.05 -62.45 -22.35 -64.2 -16.9 -64.9 Q7.45 -67.5 29.55 -62.75 M32.2 -43.65 L31.55 -43.4 Q12.05 -34.85 -9.1 -37.65 -14.85 -38.45 -20.6 -40.15 L-22.15 -55.45 2.45 -53.7 4.05 -43.7 Q17.45 -41.5 33.1 -47.8 L32.2 -43.65" fill="#973e3c" fill-rule="evenodd" stroke="none"/>
    <path d="M30.85 -60.85 Q35.15 -59.85 33.05 -57.45 L32.55 -57.0 2.45 -53.7 -22.15 -55.45 Q-31.45 -57.0 -31.4 -59.1 -31.4 -61.1 -23.05 -62.45 L-12.85 -63.5 Q9.35 -65.25 30.85 -60.85" fill="#c97a78" fill-rule="evenodd" stroke="none"/>
    <path d="M-30.65 -43.8 L-34.1 -45.35 -32.45 -61.1 -22.35 -64.2 -23.05 -62.45 Q-31.4 -61.1 -31.4 -59.1 -31.45 -57.0 -22.15 -55.45 L-20.6 -40.15 Q-25.65 -41.65 -30.65 -43.8" fill="#863735" fill-rule="evenodd" stroke="none"/>
    <path d="M31.55 -43.4 Q52.3 -34.2 53.65 -12.2 55.0 9.4 47.65 29.6 41.45 46.7 29.8 60.65 0.1 70.7 -29.75 60.65 -49.95 36.3 -53.65 4.95 -55.1 -7.65 -51.65 -19.5 -52.65 -14.7 -52.35 -8.55 -49.7 -19.05 -33.25 -36.45 -33.1 -36.55 -33.1 -36.8 -43.85 -35.1 -48.6 -27.45 -42.9 -38.55 -30.65 -43.8 -25.65 -41.65 -20.6 -40.15 -14.85 -38.45 -9.1 -37.65 12.05 -34.85 31.55 -43.4 M10.15 -7.0 L0.4 -7.2 -9.2 -4.0 -11.05 -3.9 -19.45 -3.95 -20.1 -4.65 Q-26.45 -9.1 -31.95 -3.8 L-33.3 -3.25 Q-38.4 -0.95 -35.45 3.2 L-39.5 4.65 -41.35 5.3 -44.8 6.55 -38.35 11.95 -39.6 15.85 -41.15 18.1 -41.6 19.05 -37.9 23.65 -39.9 26.9 -36.5 30.9 Q-36.5 33.8 -34.6 35.9 -32.7 37.95 -30.0 37.95 L-30.0 38.1 -32.5 41.7 -29.95 45.25 Q-29.95 48.2 -27.95 50.3 -25.95 52.35 -23.1 52.35 L-13.75 54.2 -5.25 54.65 4.2 55.75 14.2 54.7 22.6 53.05 32.6 49.5 27.8 45.15 Q28.85 44.25 29.15 43.2 30.85 42.85 32.25 41.95 34.2 40.6 34.2 38.7 34.2 36.8 32.25 35.5 31.15 34.75 29.9 34.45 L30.6 32.1 Q33.0 32.1 34.7 30.25 36.4 28.4 36.4 25.8 L39.5 22.85 37.9 18.9 38.75 12.55 44.1 8.95 Q43.55 3.05 36.85 3.4 L35.7 2.6 Q35.7 0.05 33.4 -1.75 31.05 -3.6 27.8 -3.6 L23.4 -5.85 Q18.8 -13.65 10.95 -7.85 L10.15 -7.0 M48.25 -18.2 Q44.85 -17.4 44.95 -13.45 44.9 -11.85 46.4 -11.15 49.85 -9.5 51.2 -13.1 52.8 -17.6 48.25 -18.2 M47.15 -20.1 L47.55 -20.05 Q49.05 -35.65 32.15 -40.2 38.5 -31.2 47.15 -20.1 M20.95 10.25 L21.25 9.7 22.1 9.55 21.95 10.2 21.0 10.7 20.95 10.25 M26.15 22.45 L25.6 22.0 26.1 21.85 26.15 22.45 M-8.1 20.75 L-8.95 21.7 -9.45 22.0 -9.5 21.9 Q-9.05 21.1 -9.0 20.25 L-8.1 20.75 M13.15 38.45 L14.0 39.05 12.3 38.8 13.15 38.45 M16.15 39.95 L16.7 40.05 16.55 40.2 16.15 39.95 M-24.55 3.35 L-24.45 4.25 -25.4 4.0 -24.55 3.35 M-11.25 16.65 L-11.25 16.7 -11.3 16.7 -11.25 16.65 M-32.05 4.95 L-32.4 5.2 -32.75 4.75 -32.05 4.95 M-33.5 10.55 L-33.15 10.9 -33.95 10.75 -33.5 10.55 M-24.05 33.2 L-24.2 32.4 -23.55 33.2 -24.05 33.2 M-27.2 58.8 L-27.05 58.45 -41.6 31.9 Q-42.15 49.7 -27.2 58.8" fill="#eafaff" fill-rule="evenodd" stroke="none"/>
    <path d="M-51.65 -19.5 L-48.6 -27.45 Q-43.85 -35.1 -33.1 -36.8 -33.1 -36.55 -33.25 -36.45 -49.7 -19.05 -52.35 -8.55 -52.65 -14.7 -51.65 -19.5 M19.6 -5.7 L19.25 -5.8 Q19.15 -9.8 20.25 -5.85 L20.15 -5.75 19.6 -5.7 M23.75 -3.05 L23.0 -2.7 22.8 -3.0 22.7 -3.2 23.25 -3.55 23.4 -3.55 23.65 -3.25 23.75 -3.05 M33.7 -0.65 L34.05 0.2 33.7 1.1 Q33.3 1.45 32.75 1.45 32.2 1.45 31.85 1.1 L31.45 0.2 Q31.45 -0.3 31.85 -0.65 32.2 -1.05 32.75 -1.05 33.3 -1.05 33.7 -0.65 M47.15 -20.1 Q38.5 -31.2 32.15 -40.2 49.05 -35.65 47.55 -20.05 L47.15 -20.1 M48.25 -18.2 Q52.8 -17.6 51.2 -13.1 49.85 -9.5 46.4 -11.15 44.9 -11.85 44.95 -13.45 44.85 -17.4 48.25 -18.2 M36.4 5.35 L36.15 6.3 Q33.0 5.65 36.15 5.2 L36.4 5.35 M26.95 16.4 L26.6 17.3 25.65 17.65 24.75 17.3 Q24.35 16.9 24.35 16.4 24.35 15.9 24.75 15.55 25.1 15.15 25.65 15.15 26.2 15.15 26.6 15.55 26.95 15.9 26.95 16.4 M22.4 22.65 Q22.75 22.25 23.3 22.25 23.85 22.25 24.25 22.65 24.6 23.0 24.6 23.5 L24.25 24.4 23.3 24.75 Q22.75 24.75 22.4 24.4 22.0 24.0 22.0 23.5 22.0 23.0 22.4 22.65 M35.75 22.3 Q34.3 21.45 35.2 19.95 L35.9 19.2 Q39.0 19.6 37.35 22.05 L37.05 22.3 35.75 22.3 M19.5 33.85 L20.15 33.1 21.05 33.25 Q21.85 33.8 21.75 34.75 L21.65 35.5 21.45 35.75 21.25 36.0 Q20.1 36.55 19.2 35.6 18.95 34.65 19.5 33.85 M34.35 26.7 Q34.7 27.05 34.7 27.55 L34.35 28.45 Q33.95 28.8 33.4 28.8 32.85 28.8 32.5 28.45 32.1 28.05 32.1 27.55 32.1 27.05 32.5 26.7 32.85 26.3 33.4 26.3 33.95 26.3 34.35 26.7 M28.95 33.65 L28.75 34.15 28.3 34.35 Q28.05 34.35 27.85 34.15 L27.65 33.65 27.85 33.15 Q28.05 32.95 28.3 32.95 L28.75 33.15 28.95 33.65 M-41.6 19.05 L-41.15 18.1 Q-38.0 20.5 -41.6 19.05 M-41.35 5.3 L-39.5 4.65 -39.45 4.75 Q-39.5 8.3 -41.35 5.3 M-32.0 -0.15 Q-32.0 0.2 -32.3 0.45 L-33.05 0.7 -33.8 0.45 -34.1 -0.15 -33.8 -0.75 -33.05 -1.0 -32.3 -0.75 -32.0 -0.15 M-17.45 4.1 Q-17.1 3.7 -16.55 3.7 -16.0 3.7 -15.6 4.1 -15.25 4.45 -15.25 4.95 -15.25 5.45 -15.6 5.85 -16.0 6.2 -16.55 6.2 L-17.45 5.85 Q-17.85 5.45 -17.85 4.95 -17.85 4.45 -17.45 4.1 M-31.1 14.5 L-29.65 14.55 Q-27.8 15.75 -28.9 17.6 L-29.75 18.4 Q-33.45 18.1 -31.7 15.1 L-31.1 14.5 M-37.0 13.0 L-36.75 13.3 -36.7 13.5 -37.4 13.8 -37.65 13.55 -37.7 13.35 -37.15 13.0 -37.0 13.0 M-26.2 21.9 Q-23.15 22.3 -24.75 24.75 L-25.05 25.0 -26.35 25.0 Q-27.8 24.15 -26.85 22.65 L-26.2 21.9 M-32.65 31.95 Q-32.65 32.4 -32.95 32.7 L-33.75 33.0 Q-34.2 33.0 -34.5 32.7 L-34.85 31.95 Q-34.85 31.5 -34.5 31.2 -34.2 30.9 -33.75 30.9 -33.3 30.9 -32.95 31.2 -32.65 31.5 -32.65 31.95 M-20.8 37.5 Q-20.45 37.1 -19.9 37.1 -19.35 37.1 -18.95 37.5 -18.6 37.85 -18.6 38.35 -18.6 38.85 -18.95 39.25 -19.35 39.6 -19.9 39.6 -20.45 39.6 -20.8 39.25 -21.2 38.85 -21.2 38.35 -21.2 37.85 -20.8 37.5 M-27.2 58.8 Q-42.15 49.7 -41.6 31.9 L-27.05 58.45 -27.2 58.8" fill="#ffffff" fill-rule="evenodd" stroke="none"/>
    <path d="M-1.5 -5.0 Q1.5 -5.0 3.6 -3.4 5.7 -1.8 5.7 0.5 L3.25 3.2 -2.95 0.6 -6.1 -3.35 -1.5 -5.0 M22.7 1.15 Q22.7 -0.8 24.2 -2.2 25.7 -3.6 27.8 -3.6 31.05 -3.6 33.4 -1.75 35.7 0.05 35.7 2.6 L26.45 4.95 22.7 1.15 M33.7 -0.65 Q33.3 -1.05 32.75 -1.05 32.2 -1.05 31.85 -0.65 31.45 -0.3 31.45 0.2 L31.85 1.1 Q32.2 1.45 32.75 1.45 33.3 1.45 33.7 1.1 L34.05 0.2 33.7 -0.65 M20.95 10.25 L21.55 8.0 21.25 9.7 20.95 10.25 M18.65 14.2 Q18.65 12.75 19.35 11.75 20.05 10.7 21.0 10.7 L21.95 10.2 32.15 14.65 29.45 17.8 Q26.7 11.55 19.6 13.85 L18.65 14.2 M14.05 23.55 L14.75 27.4 13.5 28.85 3.45 29.15 Q2.3 28.3 1.85 27.3 L2.15 24.1 3.85 22.5 Q5.05 21.8 6.5 21.55 L11.4 21.9 14.05 23.55 M25.95 27.6 L26.9 23.5 36.4 25.8 Q36.4 28.4 34.7 30.25 33.0 32.1 30.6 32.1 L26.15 28.05 25.95 27.6 M-6.85 5.55 Q-6.85 7.65 -7.75 9.15 -8.65 10.6 -9.95 10.6 L-19.05 9.2 -20.15 6.55 -20.05 5.8 -15.9 2.35 -8.95 3.2 -6.85 5.55 M-9.25 22.3 L-9.05 25.15 -12.5 27.95 -17.65 26.05 -20.05 20.45 -19.0 19.9 -9.5 21.9 -9.45 22.0 -9.25 22.3 M19.5 33.85 Q18.95 34.65 19.2 35.6 20.1 36.55 21.25 36.0 L21.45 35.75 21.65 35.5 21.75 34.75 Q21.85 33.8 21.05 33.25 L20.15 33.1 19.5 33.85 M15.4 31.55 L17.4 31.1 Q20.55 31.1 22.75 32.8 24.95 34.5 24.95 36.9 L24.25 37.95 16.7 40.05 16.15 39.95 Q14.95 39.65 14.0 39.05 L13.15 38.45 12.65 37.8 Q10.4 34.05 14.5 31.9 L15.4 31.55 M13.55 46.6 L13.6 46.15 13.6 46.55 13.55 46.6 M34.35 26.7 Q33.95 26.3 33.4 26.3 32.85 26.3 32.5 26.7 32.1 27.05 32.1 27.55 32.1 28.05 32.5 28.45 32.85 28.8 33.4 28.8 33.95 28.8 34.35 28.45 L34.7 27.55 Q34.7 27.05 34.35 26.7 M-35.45 3.2 Q-38.4 -0.95 -33.3 -3.25 L-31.95 -3.8 Q-28.5 -3.8 -26.05 -2.0 -23.6 -0.25 -23.6 2.25 L-24.55 3.35 -25.4 4.0 -32.05 4.95 -32.75 4.75 -35.45 3.2 M-32.0 -0.15 L-32.3 -0.75 -33.05 -1.0 -33.8 -0.75 -34.1 -0.15 -33.8 0.45 -33.05 0.7 -32.3 0.45 Q-32.0 0.2 -32.0 -0.15 M-29.45 11.1 L-29.4 11.55 -29.45 11.5 -29.45 11.1 M-17.45 4.1 Q-17.85 4.45 -17.85 4.95 -17.85 5.45 -17.45 5.85 L-16.55 6.2 Q-16.0 6.2 -15.6 5.85 -15.25 5.45 -15.25 4.95 -15.25 4.45 -15.6 4.1 -16.0 3.7 -16.55 3.7 -17.1 3.7 -17.45 4.1 M-21.0 15.9 L-21.25 15.95 -21.45 15.45 -21.0 15.9 M-19.8 33.85 L-19.85 33.8 -19.85 33.4 -19.8 33.85 M-11.6 40.8 L-14.05 34.8 -6.35 33.4 -2.85 35.6 -2.25 38.65 Q-2.25 40.15 -4.3 41.25 -6.4 42.3 -9.3 42.3 L-11.6 40.8" fill="#eca383" fill-rule="evenodd" stroke="none"/>
    <path d="M10.15 -7.0 Q11.55 -5.95 11.8 -4.55 11.8 -2.4 10.1 -0.9 8.35 0.6 5.9 0.6 L5.7 0.5 Q5.7 -1.8 3.6 -3.4 1.5 -5.0 -1.5 -5.0 -1.05 -6.25 0.4 -7.2 L10.15 -7.0 M36.4 5.35 L36.85 3.4 Q43.55 3.05 44.1 8.95 L38.75 12.55 35.4 11.0 35.25 9.75 36.15 6.3 36.4 5.35 M3.25 3.2 L3.7 4.0 2.4 8.1 -6.85 5.55 -8.95 3.2 -2.95 0.6 3.25 3.2 M-4.25 12.25 L1.15 11.5 6.2 14.65 6.1 17.45 -3.9 19.0 -5.0 19.2 -7.05 16.0 -4.25 12.25 M-9.05 25.15 L-8.75 25.15 -8.35 29.8 Q-9.95 28.75 -11.95 28.55 L-12.5 27.95 -9.05 25.15 M24.25 37.95 L24.95 36.9 29.9 34.45 Q31.15 34.75 32.25 35.5 34.2 36.8 34.2 38.7 34.2 40.6 32.25 41.95 30.85 42.85 29.15 43.2 29.15 41.05 27.75 39.5 26.3 37.95 24.25 37.95 M-4.9 49.1 L2.65 49.95 1.95 53.15 4.2 55.75 -5.25 54.65 -4.9 49.1 M-31.95 -3.8 Q-26.45 -9.1 -20.1 -4.65 L-19.45 -3.95 -19.15 -0.95 -23.6 2.25 Q-23.6 -0.25 -26.05 -2.0 -28.5 -3.8 -31.95 -3.8 M-20.05 20.45 L-17.65 26.05 -24.2 28.8 -26.75 28.35 Q-28.2 28.35 -29.2 26.7 -30.25 25.05 -30.25 22.75 -29.9 21.95 -29.05 21.3 L-22.65 19.7 Q-21.25 19.85 -20.05 20.45 M-26.2 21.9 L-26.85 22.65 Q-27.8 24.15 -26.35 25.0 L-25.05 25.0 -24.75 24.75 Q-23.15 22.3 -26.2 21.9 M-7.1 30.95 L-7.5 30.5 -7.1 30.75 -7.1 30.95" fill="#912eaf" fill-rule="evenodd" stroke="none"/>
    <path d="M35.4 11.0 L38.75 12.55 37.9 18.9 29.45 17.95 29.45 17.8 32.15 14.65 35.4 11.0 M21.55 8.0 L20.95 10.25 21.0 10.7 Q20.05 10.7 19.35 11.75 18.65 12.75 18.65 14.2 L17.95 14.6 14.3 12.5 11.85 7.45 21.55 7.35 21.55 8.0 M15.55 21.8 Q14.45 22.6 14.05 23.55 L11.4 21.9 15.55 21.8 M14.75 27.4 L18.75 29.4 Q17.75 30.15 17.4 31.1 L15.4 31.55 13.5 28.85 14.75 27.4 M25.6 27.9 L25.95 27.6 26.15 28.05 25.6 27.9 M3.85 22.5 L2.15 24.1 Q-3.2 21.0 -8.2 24.6 L-8.75 25.15 -9.05 25.15 -9.25 22.3 -8.95 21.7 -8.1 20.75 -5.0 19.2 -3.9 19.0 3.85 22.5 M5.65 48.05 L3.3 41.9 Q10.7 39.35 13.55 45.85 L13.6 46.15 13.55 46.6 11.3 48.05 5.65 48.05 M17.9 45.7 L27.8 45.15 32.6 49.5 22.6 53.05 Q22.6 50.15 21.15 48.1 19.65 46.0 17.6 46.0 L17.9 45.7 M-29.95 45.25 L-32.5 41.7 -30.0 38.1 -24.05 37.25 Q-24.05 39.5 -23.15 41.1 -22.25 42.7 -20.95 42.7 L-21.5 43.7 -29.95 45.25 M-30.0 37.95 Q-32.7 37.95 -34.6 35.9 -36.5 33.8 -36.5 30.9 L-27.45 29.4 -24.6 31.6 -24.2 32.4 -24.05 33.2 Q-26.5 33.2 -28.25 34.6 -30.0 36.0 -30.0 37.95 M-37.9 23.65 L-41.6 19.05 Q-38.0 20.5 -41.15 18.1 L-39.6 15.85 -34.1 14.9 Q-34.1 17.4 -33.15 19.15 -32.25 20.9 -30.9 20.9 -31.3 21.65 -31.3 22.5 L-37.9 23.65 M-19.15 -0.95 L-16.1 -0.9 -15.9 2.35 -20.05 5.8 -21.0 6.3 -20.15 6.55 -19.05 9.2 Q-20.35 9.2 -21.25 10.75 -22.15 12.25 -22.15 14.4 L-28.15 12.2 Q-28.75 11.8 -29.4 11.55 L-29.45 11.1 -24.45 4.25 -24.55 3.35 -23.6 2.25 -19.15 -0.95 M-32.65 31.95 Q-32.65 31.5 -32.95 31.2 -33.3 30.9 -33.75 30.9 -34.2 30.9 -34.5 31.2 -34.85 31.5 -34.85 31.95 L-34.5 32.7 Q-34.2 33.0 -33.75 33.0 L-32.95 32.7 Q-32.65 32.4 -32.65 31.95 M-19.0 34.25 L-19.8 33.85 -19.85 33.4 Q-19.85 31.4 -17.5 30.0 -15.2 28.55 -11.95 28.55 -9.95 28.75 -8.35 29.8 L-7.5 30.5 -7.1 30.95 -6.35 33.4 -14.05 34.8 -19.0 34.25" fill="#d19018" fill-rule="evenodd" stroke="none"/>
    <path d="M11.8 -4.55 Q11.55 -5.95 10.15 -7.0 L10.95 -7.85 Q18.8 -13.65 23.4 -5.85 L20.25 -5.85 Q19.15 -9.8 19.25 -5.8 L19.6 -5.7 15.65 -3.15 11.8 -4.55 M26.45 4.95 L35.7 2.6 36.85 3.4 36.4 5.35 36.15 5.2 Q33.0 5.65 36.15 6.3 L35.25 9.75 26.25 6.4 26.45 4.95 M21.55 7.35 L11.85 7.45 14.3 12.5 6.2 14.65 1.15 11.5 2.4 8.1 3.7 4.0 8.35 3.1 9.75 2.95 Q19.15 -1.2 21.55 7.35 M22.4 22.65 Q22.0 23.0 22.0 23.5 22.0 24.0 22.4 24.4 22.75 24.75 23.3 24.75 L24.25 24.4 24.6 23.5 Q24.6 23.0 24.25 22.65 23.85 22.25 23.3 22.25 22.75 22.25 22.4 22.65 M26.15 22.45 L26.9 23.5 25.95 27.6 25.6 27.9 18.75 29.4 14.75 27.4 14.05 23.55 Q14.45 22.6 15.55 21.8 L19.7 20.4 25.6 22.0 26.15 22.45 M3.3 41.9 L5.65 48.05 2.65 49.95 -4.9 49.1 -6.9 46.5 Q-6.9 44.3 -4.75 42.75 -2.6 41.2 0.4 41.2 2.0 41.3 3.3 41.9 M17.65 45.55 L17.9 45.7 17.6 46.0 17.3 45.95 17.65 45.55 M-11.05 -3.9 L-9.2 -4.0 Q-7.55 -3.95 -6.1 -3.35 L-2.95 0.6 -8.95 3.2 -15.9 2.35 -16.1 -0.9 -11.05 -3.9 M-28.15 12.2 L-22.15 14.4 -21.45 15.45 -21.25 15.95 -21.55 18.4 -22.65 19.7 -29.05 21.3 -30.9 20.9 Q-32.25 20.9 -33.15 19.15 -34.1 17.4 -34.1 14.9 L-28.15 12.2 M-31.1 14.5 L-31.7 15.1 Q-33.45 18.1 -29.75 18.4 L-28.9 17.6 Q-27.8 15.75 -29.65 14.55 L-31.1 14.5 M-20.8 37.5 Q-21.2 37.85 -21.2 38.35 -21.2 38.85 -20.8 39.25 -20.45 39.6 -19.9 39.6 -19.35 39.6 -18.95 39.25 -18.6 38.85 -18.6 38.35 -18.6 37.85 -18.95 37.5 -19.35 37.1 -19.9 37.1 -20.45 37.1 -20.8 37.5 M-24.05 37.25 L-19.0 34.25 -14.05 34.8 -11.6 40.8 -20.95 42.7 Q-22.25 42.7 -23.15 41.1 -24.05 39.5 -24.05 37.25" fill="#d2271d" fill-rule="evenodd" stroke="none"/>
    <path d="M35.25 9.75 L35.4 11.0 32.15 14.65 21.95 10.2 22.1 9.55 26.25 6.4 35.25 9.75 M26.9 23.5 L26.15 22.45 26.1 21.85 27.25 19.4 29.45 17.95 37.9 18.9 39.5 22.85 36.4 25.8 26.9 23.5 M19.7 20.4 L15.55 21.8 11.4 21.9 6.5 21.55 6.95 17.95 7.55 17.5 Q13.35 13.4 18.7 17.75 L19.7 20.4 M18.75 29.4 L25.6 27.9 26.15 28.05 30.6 32.1 29.9 34.45 24.95 36.9 Q24.95 34.5 22.75 32.8 20.55 31.1 17.4 31.1 17.75 30.15 18.75 29.4 M35.75 22.3 L37.05 22.3 37.35 22.05 Q39.0 19.6 35.9 19.2 L35.2 19.95 Q34.3 21.45 35.75 22.3 M16.7 40.05 L24.25 37.95 Q26.3 37.95 27.75 39.5 29.15 41.05 29.15 43.2 28.85 44.25 27.8 45.15 L17.9 45.7 17.65 45.55 16.55 40.2 16.7 40.05 M11.3 48.05 L13.55 46.6 13.6 46.55 17.3 45.95 17.6 46.0 Q19.65 46.0 21.15 48.1 22.6 50.15 22.6 53.05 L14.2 54.7 Q16.95 50.8 12.35 48.45 L11.3 48.05 M28.95 33.65 L28.75 33.15 28.3 32.95 Q28.05 32.95 27.85 33.15 L27.65 33.65 27.85 34.15 Q28.05 34.35 28.3 34.35 L28.75 34.15 28.95 33.65 M-23.1 52.35 Q-25.95 52.35 -27.95 50.3 -29.95 48.2 -29.95 45.25 L-21.5 43.7 -18.4 45.7 Q-20.35 45.7 -21.7 47.65 -23.1 49.6 -23.1 52.35 M-30.0 38.1 L-30.0 37.95 Q-30.0 36.0 -28.25 34.6 -26.5 33.2 -24.05 33.2 L-23.55 33.2 -19.85 33.8 -19.8 33.85 -19.0 34.25 -24.05 37.25 -30.0 38.1 M-36.5 30.9 L-39.9 26.9 -37.9 23.65 -31.3 22.5 -30.25 22.75 Q-30.25 25.05 -29.2 26.7 -28.2 28.35 -26.75 28.35 L-27.45 29.4 -36.5 30.9 M-39.6 15.85 L-38.35 11.95 -44.8 6.55 -41.35 5.3 Q-39.5 8.3 -39.45 4.75 L-39.5 4.65 -35.45 3.2 -32.75 4.75 -32.4 5.2 -33.5 10.55 -33.95 10.75 -33.15 10.9 -29.45 11.5 -29.4 11.55 Q-28.75 11.8 -28.15 12.2 L-34.1 14.9 -39.6 15.85 M-19.45 -3.95 L-11.05 -3.9 -16.1 -0.9 -19.15 -0.95 -19.45 -3.95 M-20.15 6.55 L-21.0 6.3 -20.05 5.8 -20.15 6.55 M-37.0 13.0 L-37.15 13.0 -37.7 13.35 -37.65 13.55 -37.4 13.8 -36.7 13.5 -36.75 13.3 -37.0 13.0" fill="#65b05d" fill-rule="evenodd" stroke="none"/>
    <path d="M29.55 -62.75 Q32.55 -62.75 34.65 -58.8 36.75 -54.85 36.75 -49.25 L33.1 -47.8 32.55 -57.0 33.05 -57.45 Q35.15 -59.85 30.85 -60.85 L29.55 -62.75" fill="#c26765" fill-rule="evenodd" stroke="none"/>
    <path d="M32.55 -57.0 L33.1 -47.8 36.75 -49.25 36.75 -45.8 32.2 -43.65 33.1 -47.8 Q17.45 -41.5 4.05 -43.7 L2.45 -53.7 32.55 -57.0" fill="#b14946" fill-rule="evenodd" stroke="none"/>
    <path d="M0.4 -7.2 Q-1.05 -6.25 -1.5 -5.0 L-6.1 -3.35 Q-7.55 -3.95 -9.2 -4.0 L0.4 -7.2 M5.7 0.5 L5.9 0.6 8.35 3.1 3.7 4.0 3.25 3.2 5.7 0.5 M15.65 -3.15 L19.6 -5.7 20.15 -5.75 20.25 -5.85 23.4 -5.85 27.8 -3.6 Q25.7 -3.6 24.2 -2.2 22.7 -0.8 22.7 1.15 L21.35 1.0 Q14.15 2.7 15.65 -3.15 M23.75 -3.05 L23.65 -3.25 23.4 -3.55 23.25 -3.55 22.7 -3.2 22.8 -3.0 23.0 -2.7 23.75 -3.05 M14.3 12.5 L17.95 14.6 18.7 17.75 Q13.35 13.4 7.55 17.5 L6.95 17.95 6.1 17.45 6.2 14.65 14.3 12.5 M2.4 8.1 L1.15 11.5 -4.25 12.25 -8.85 13.4 -9.95 10.6 Q-8.65 10.6 -7.75 9.15 -6.85 7.65 -6.85 5.55 L2.4 8.1 M-8.95 21.7 L-9.25 22.3 -9.45 22.0 -8.95 21.7 M1.85 27.3 Q2.3 28.3 3.45 29.15 3.45 31.8 1.6 33.7 -0.25 35.6 -2.85 35.6 L-6.35 33.4 -7.1 30.95 -7.1 30.75 1.85 27.3 M14.5 31.9 Q10.4 34.05 12.65 37.8 L13.15 38.45 12.3 38.8 Q4.95 38.2 2.65 36.95 0.35 35.65 1.9 34.3 3.4 32.95 7.85 32.3 L14.5 31.9 M0.4 41.2 Q-2.6 41.2 -4.75 42.75 -6.9 44.3 -6.9 46.5 L-9.3 42.3 Q-6.4 42.3 -4.3 41.25 -2.25 40.15 -2.25 38.65 L0.4 41.2 M-13.75 54.2 L-23.1 52.35 Q-23.1 49.6 -21.7 47.65 -20.35 45.7 -18.4 45.7 L-10.35 50.2 -13.75 54.2 M-11.25 16.7 Q-10.3 16.7 -9.65 17.75 -9.0 18.8 -9.0 20.25 -9.05 21.1 -9.5 21.9 L-19.0 19.9 -21.55 18.4 -21.25 15.95 -21.0 15.9 -11.3 16.7 -11.25 16.7 M-27.45 29.4 L-26.75 28.35 -24.2 28.8 -24.6 31.6 -27.45 29.4" fill="#ffcc00" fill-rule="evenodd" stroke="none"/>
    <path d="M5.9 0.6 Q8.35 0.6 10.1 -0.9 11.8 -2.4 11.8 -4.55 L15.65 -3.15 Q14.15 2.7 21.35 1.0 L22.7 1.15 26.45 4.95 26.25 6.4 22.1 9.55 21.25 9.7 21.55 8.0 21.55 7.35 Q19.15 -1.2 9.75 2.95 L8.35 3.1 5.9 0.6 M17.95 14.6 L18.65 14.2 19.6 13.85 Q26.7 11.55 29.45 17.8 L29.45 17.95 27.25 19.4 26.1 21.85 25.6 22.0 19.7 20.4 18.7 17.75 17.95 14.6 M26.95 16.4 Q26.95 15.9 26.6 15.55 26.2 15.15 25.65 15.15 25.1 15.15 24.75 15.55 24.35 15.9 24.35 16.4 24.35 16.9 24.75 17.3 L25.65 17.65 26.6 17.3 26.95 16.4 M-8.85 13.4 L-4.25 12.25 -7.05 16.0 -5.0 19.2 -8.1 20.75 -9.0 20.25 Q-9.0 18.8 -9.65 17.75 -10.3 16.7 -11.25 16.7 L-11.25 16.65 -8.85 13.4 M6.1 17.45 L6.95 17.95 6.5 21.55 Q5.05 21.8 3.85 22.5 L-3.9 19.0 6.1 17.45 M3.45 29.15 L13.5 28.85 15.4 31.55 14.5 31.9 7.85 32.3 Q3.4 32.95 1.9 34.3 0.35 35.65 2.65 36.95 4.95 38.2 12.3 38.8 L14.0 39.05 Q14.95 39.65 16.15 39.95 L16.55 40.2 17.65 45.55 17.3 45.95 13.6 46.55 13.6 46.15 13.55 45.85 Q10.7 39.35 3.3 41.9 2.0 41.3 0.4 41.2 L-2.25 38.65 -2.85 35.6 Q-0.25 35.6 1.6 33.7 3.45 31.8 3.45 29.15 M-6.9 46.5 L-4.9 49.1 -5.25 54.65 -13.75 54.2 -10.35 50.2 -18.4 45.7 -21.5 43.7 -20.95 42.7 -11.6 40.8 -9.3 42.3 -6.9 46.5 M-24.45 4.25 L-29.45 11.1 -29.45 11.5 -33.15 10.9 -33.5 10.55 -32.4 5.2 -32.05 4.95 -25.4 4.0 -24.45 4.25 M-21.55 18.4 L-19.0 19.9 -20.05 20.45 Q-21.25 19.85 -22.65 19.7 L-21.55 18.4 M-17.65 26.05 L-12.5 27.95 -11.95 28.55 Q-15.2 28.55 -17.5 30.0 -19.85 31.4 -19.85 33.4 L-19.85 33.8 -23.55 33.2 -24.2 32.4 -24.6 31.6 -24.2 28.8 -17.65 26.05 M-30.9 20.9 L-29.05 21.3 Q-29.9 21.95 -30.25 22.75 L-31.3 22.5 Q-31.3 21.65 -30.9 20.9" fill="#ffff66" fill-rule="evenodd" stroke="none"/>
    <path d="M-9.95 10.6 L-8.85 13.4 -11.25 16.65 -11.3 16.7 -21.0 15.9 -21.45 15.45 -22.15 14.4 Q-22.15 12.25 -21.25 10.75 -20.35 9.2 -19.05 9.2 L-9.95 10.6 M-8.75 25.15 L-8.2 24.6 Q-3.2 21.0 2.15 24.1 L1.85 27.3 -7.1 30.75 -7.5 30.5 -8.35 29.8 -8.75 25.15 M2.65 49.95 L5.65 48.05 11.3 48.05 12.35 48.45 Q16.95 50.8 14.2 54.7 L4.2 55.75 1.95 53.15 2.65 49.95" fill="#42e1cd" fill-rule="evenodd" stroke="none"/>
    <path d="M36.75 -49.25 Q36.75 -54.85 34.65 -58.8 32.55 -62.75 29.55 -62.75 M36.75 -49.25 L36.75 -45.8 32.2 -43.65 31.55 -43.4 Q52.3 -34.2 53.65 -12.2 55.0 9.4 47.65 29.6 41.45 46.7 29.8 60.65 0.1 70.7 -29.75 60.65 -49.95 36.3 -53.65 4.95 -55.1 -7.65 -51.65 -19.5 L-48.6 -27.45 Q-42.9 -38.55 -30.65 -43.8 L-34.1 -45.35 -32.45 -61.1 -22.35 -64.2 -16.9 -64.9 Q7.45 -67.5 29.55 -62.75 M-30.65 -43.8 Q-25.65 -41.65 -20.6 -40.15 -14.85 -38.45 -9.1 -37.65 12.05 -34.85 31.55 -43.4" fill="none" stroke="#000000" stroke-linecap="round" stroke-linejoin="round" stroke-width="0.5"/>
  </g>
</svg>
