<?xml version="1.0" encoding="UTF-8" standalone="no"?>
<svg xmlns:xlink="http://www.w3.org/1999/xlink" height="83.9px" width="186.65px" xmlns="http://www.w3.org/2000/svg">
  <g transform="matrix(1.0, 0.0, 0.0, 1.0, 93.65, 43.1)">
    <path d="M88.8 -39.0 Q92.5 -35.3 92.5 -30.1 L92.5 7.45 Q92.5 12.6 88.8 16.25 85.15 19.95 80.0 19.95 L-80.65 19.95 Q-85.85 19.95 -89.5 16.25 -93.15 12.6 -93.15 7.45 L-93.15 -30.1 Q-93.15 -35.3 -89.5 -39.0 -85.85 -42.6 -80.65 -42.6 L80.0 -42.6 Q85.15 -42.6 88.8 -39.0" fill="#ffffff" fill-rule="evenodd" stroke="none"/>
    <path d="M88.8 -39.0 Q85.15 -42.6 80.0 -42.6 L-80.65 -42.6 Q-85.85 -42.6 -89.5 -39.0 -93.15 -35.3 -93.15 -30.1 L-93.15 7.45 Q-93.15 12.6 -89.5 16.25 -85.85 19.95 -80.65 19.95 L80.0 19.95 Q85.15 19.95 88.8 16.25 92.5 12.6 92.5 7.45 L92.5 -30.1 Q92.5 -35.3 88.8 -39.0 Z" fill="none" stroke="#000000" stroke-linecap="round" stroke-linejoin="round" stroke-width="1.0"/>
    <path d="M35.7 19.95 L36.25 11.8 58.7 11.75 57.1 19.75 14.85 40.3 14.7 40.0 35.7 19.95" fill="#ffffff" fill-rule="evenodd" stroke="none"/>
    <path d="M14.7 40.0 L35.7 19.95" fill="none" stroke="#000000" stroke-linecap="round" stroke-linejoin="round" stroke-width="1.0"/>
    <path d="M57.1 19.75 L14.85 40.3" fill="none" stroke="#000000" stroke-linecap="round" stroke-linejoin="round" stroke-width="1.0"/>
  </g>
</svg>
