<?xml version="1.0" encoding="UTF-8" standalone="no"?>
<svg xmlns:xlink="http://www.w3.org/1999/xlink" height="27.25px" width="42.0px" xmlns="http://www.w3.org/2000/svg">
  <g transform="matrix(1.0, 0.0, 0.0, 1.0, 0.0, 0.0)">
    <path d="M41.55 5.65 L41.55 21.7 41.55 22.05 Q41.35 23.95 39.8 25.35 37.95 26.95 35.45 26.95 L6.5 26.95 Q4.0 26.95 2.2 25.35 0.6 23.95 0.45 22.05 L0.4 21.7 0.4 5.65 Q0.4 3.45 2.2 1.85 4.0 0.25 6.5 0.25 L35.45 0.25 Q37.95 0.25 39.8 1.85 41.55 3.45 41.55 5.65" fill="#0170c2" fill-rule="evenodd" stroke="none"/>
    <path d="M42.0 5.5 L42.0 21.9 42.0 22.25 Q41.8 24.2 40.2 25.65 38.35 27.25 35.8 27.25 L6.25 27.25 Q3.65 27.25 1.85 25.65 0.2 24.2 0.05 22.25 L0.0 21.9 0.0 5.5 Q0.0 3.25 1.85 1.65 3.65 0.0 6.25 0.0 L35.8 0.0 Q38.35 0.0 40.2 1.65 42.0 3.25 42.0 5.5 M41.55 5.65 Q41.55 3.45 39.8 1.85 37.95 0.25 35.45 0.25 L6.5 0.25 Q4.0 0.25 2.2 1.85 0.4 3.45 0.4 5.65 L0.4 21.7 0.45 22.05 Q0.6 23.95 2.2 25.35 4.0 26.95 6.5 26.95 L35.45 26.95 Q37.95 26.95 39.8 25.35 41.35 23.95 41.55 22.05 L41.55 21.7 41.55 5.65" fill="#014369" fill-rule="evenodd" stroke="none"/>
  </g>
</svg>
