<?xml version="1.0" encoding="UTF-8" standalone="no"?>
<svg xmlns:xlink="http://www.w3.org/1999/xlink" height="53.1px" width="52.45px" xmlns="http://www.w3.org/2000/svg">
  <g transform="matrix(1.0, 0.0, 0.0, 1.0, 26.25, 26.35)">
    <path d="M17.55 -25.5 Q22.65 -22.25 21.0 -16.55 L18.35 -16.65 Q13.0 -20.45 10.55 -15.05 19.75 -9.3 20.9 1.5 22.15 12.9 13.15 19.95 1.25 29.3 -11.8 21.45 -18.25 17.55 -20.35 10.2 -25.0 -5.85 -10.5 -14.35 -11.2 -20.65 -16.9 -18.05 -18.25 -17.45 -19.45 -17.6 -25.7 -18.3 -21.1 -24.65 -10.3 -27.5 -7.85 -16.85 L-7.6 -15.5 Q-0.2 -16.7 7.35 -15.85 8.3 -25.15 17.55 -25.5" fill="#66d5c5" fill-rule="evenodd" stroke="none"/>
    <path d="M-21.1 -24.65 Q-25.7 -18.3 -19.45 -17.6 -18.25 -17.45 -16.9 -18.05 -11.2 -20.65 -10.5 -14.35 -25.0 -5.85 -20.35 10.2 -18.25 17.55 -11.8 21.45 1.25 29.3 13.15 19.95 22.15 12.9 20.9 1.5 19.75 -9.3 10.55 -15.05 13.0 -20.45 18.35 -16.65 L21.0 -16.55 Q22.65 -22.25 17.55 -25.5 26.1 -23.6 24.65 -14.85 24.4 -13.3 23.0 -12.65 17.4 -10.45 13.9 -15.95 L13.6 -15.9 Q12.25 -15.2 12.4 -13.9 L15.55 -12.2 Q22.85 -7.55 24.45 0.75 27.05 14.25 15.35 21.25 -0.2 30.4 -15.55 20.8 -21.15 17.2 -22.9 10.85 -27.3 -5.0 -12.65 -13.55 L-12.8 -14.4 Q-13.15 -15.65 -14.25 -16.1 -16.6 -12.65 -20.4 -11.9 -21.9 -11.8 -22.85 -12.95 -28.25 -19.3 -21.1 -24.65" fill="#34c0ab" fill-rule="evenodd" stroke="none"/>
    <path d="M13.5 -14.4 L14.95 -13.6 13.75 -14.8 13.5 -14.4 M-21.1 -24.65 Q-28.25 -19.3 -22.85 -12.95 -21.9 -11.8 -20.4 -11.9 -16.6 -12.65 -14.25 -16.1 -13.15 -15.65 -12.8 -14.4 L-12.65 -13.55 Q-27.3 -5.0 -22.9 10.85 -21.15 17.2 -15.55 20.8 -0.2 30.4 15.35 21.25 27.05 14.25 24.45 0.75 22.85 -7.55 15.55 -12.2 L12.4 -13.9 Q12.25 -15.2 13.6 -15.9 L13.9 -15.95 Q17.4 -10.45 23.0 -12.65 24.4 -13.3 24.65 -14.85 26.1 -23.6 17.55 -25.5 8.3 -25.15 7.35 -15.85 -0.2 -16.7 -7.6 -15.5 L-7.85 -16.85 Q-10.3 -27.5 -21.1 -24.65 M21.5 -10.85 L18.7 -10.95 Q30.55 -0.45 23.65 13.85 21.05 19.15 15.95 22.15 -0.1 31.7 -16.0 21.45 -26.4 14.65 -24.95 2.6 -23.6 -8.35 -14.0 -13.65 L-14.15 -14.95 Q-19.35 -7.95 -24.9 -13.7 -26.45 -15.25 -26.2 -17.6 -25.2 -26.4 -16.35 -26.25 -9.65 -26.1 -7.4 -19.6 -7.0 -18.35 -6.85 -16.8 -0.6 -17.65 6.45 -16.75 9.5 -29.65 21.55 -25.25 29.8 -18.35 22.75 -11.5 22.25 -11.05 21.5 -10.85" fill="#000000" fill-rule="evenodd" stroke="none"/>
    <path d="M0.05 -3.25 L-0.6 -3.5 -1.25 -3.25 -1.55 -2.65 Q-1.95 -0.55 -3.6 1.1 -5.7 3.2 -8.7 3.2 -11.75 3.2 -13.85 1.1 -16.0 -1.05 -16.0 -4.05 -16.0 -7.05 -13.85 -9.15 L-13.85 -9.2 Q-11.75 -11.3 -8.7 -11.3 -5.7 -11.3 -3.6 -9.2 -1.95 -7.55 -1.55 -5.4 L-1.25 -4.8 -0.6 -4.6 0.05 -4.8 0.4 -5.4 Q0.75 -7.55 2.4 -9.2 4.5 -11.3 7.55 -11.3 10.55 -11.3 12.65 -9.2 14.75 -7.1 14.8 -4.05 L14.8 -4.0 Q14.75 -1.05 12.65 1.1 10.55 3.2 7.55 3.2 4.5 3.2 2.4 1.1 0.75 -0.55 0.4 -2.65 L0.05 -3.25" fill="#ffffff" fill-rule="evenodd" stroke="none"/>
    <path d="M0.05 -3.25 L0.4 -2.65 Q0.75 -0.55 2.4 1.1 4.5 3.2 7.55 3.2 10.55 3.2 12.65 1.1 14.75 -1.05 14.8 -4.0 L14.8 -4.05 Q14.75 -7.1 12.65 -9.2 10.55 -11.3 7.55 -11.3 4.5 -11.3 2.4 -9.2 0.75 -7.55 0.4 -5.4 L0.05 -4.8 -0.6 -4.6 -1.25 -4.8 -1.55 -5.4 Q-1.95 -7.55 -3.6 -9.2 -5.7 -11.3 -8.7 -11.3 -11.75 -11.3 -13.85 -9.2 L-13.85 -9.15 Q-16.0 -7.05 -16.0 -4.05 -16.0 -1.05 -13.85 1.1 -11.75 3.2 -8.7 3.2 -5.7 3.2 -3.6 1.1 -1.95 -0.55 -1.55 -2.65 L-1.25 -3.25 -0.6 -3.5 0.05 -3.25 M14.05 -10.6 Q16.75 -7.9 16.8 -4.05 L16.8 -4.0 Q16.75 -0.25 14.1 2.5 L14.05 2.5 Q11.35 5.2 7.55 5.2 3.7 5.2 1.0 2.5 0.05 1.55 -0.6 0.4 -1.25 1.55 -2.2 2.5 -4.9 5.2 -8.7 5.2 -12.55 5.2 -15.25 2.5 -18.0 -0.25 -18.0 -4.05 -18.0 -7.95 -15.25 -10.6 -12.55 -13.3 -8.7 -13.3 -4.9 -13.3 -2.2 -10.6 -1.25 -9.65 -0.6 -8.5 0.05 -9.65 1.0 -10.6 3.7 -13.3 7.55 -13.3 11.35 -13.3 14.05 -10.6" fill="#000000" fill-rule="evenodd" stroke="none"/>
    <path d="M-22.65 1.75 Q-16.85 5.25 -10.35 7.1 -3.1 9.1 4.35 8.15 13.55 7.0 21.5 2.25 L21.75 2.85 Q22.5 4.85 22.3 7.0 22.1 9.1 21.2 11.05 18.4 16.95 12.85 20.45 7.95 23.5 2.15 23.9 -4.75 24.5 -11.1 21.7 -15.7 19.7 -19.05 16.05 -24.8 9.8 -22.7 1.75 L-22.65 1.75 -22.7 1.75 -22.65 1.75" fill="#000000" fill-rule="evenodd" stroke="none"/>
    <path d="M18.7 1.6 Q21.65 1.5 23.35 3.45 23.85 4.05 23.75 4.35 M-22.65 1.75 L-22.7 1.75 M-22.65 1.75 Q-21.6 1.25 -20.15 1.75 M-24.35 3.55 Q-23.7 2.2 -22.7 1.75" fill="none" stroke="#000000" stroke-linecap="round" stroke-linejoin="round" stroke-width="1.0"/>
  </g>
</svg>
