<?xml version="1.0" encoding="UTF-8" standalone="no"?>
<svg xmlns:xlink="http://www.w3.org/1999/xlink" height="165.95px" width="50.0px" xmlns="http://www.w3.org/2000/svg">
  <g transform="matrix(1.0, 0.0, 0.0, 1.0, 25.0, 81.7)">
    <path d="M-5.05 -32.55 L-0.85 -32.1 -0.85 81.25 -4.9 81.25 -5.05 -32.55" fill="#e1e1e1" fill-rule="evenodd" stroke="none"/>
    <path d="M2.3 -32.2 L5.9 -32.75 5.5 81.85 4.95 82.2 Q-0.35 85.55 -4.9 81.25 L-0.85 81.25 2.3 81.25 2.3 -32.2" fill="#999999" fill-rule="evenodd" stroke="none"/>
    <path d="M-0.85 -32.1 L2.3 -32.2 2.3 81.25 -0.85 81.25 -0.85 -32.1" fill="#cccccc" fill-rule="evenodd" stroke="none"/>
    <path d="M10.25 -56.5 Q13.2 -59.45 13.2 -63.55 13.2 -67.7 10.25 -70.6 7.35 -73.55 3.25 -73.55 -0.9 -73.55 -3.85 -70.6 -6.75 -67.7 -6.75 -63.55 -6.75 -59.45 -3.85 -56.5 -0.9 -53.6 3.25 -53.55 7.35 -53.6 10.25 -56.5 M12.65 -71.35 Q17.45 -66.55 17.45 -59.8 17.45 -53.05 12.65 -48.3 7.9 -43.5 1.15 -43.5 -5.6 -43.5 -10.4 -48.3 -15.15 -53.05 -15.15 -59.8 -15.15 -66.55 -10.4 -71.35 -5.6 -76.1 1.15 -76.1 7.9 -76.1 12.65 -71.35" fill="#ec0000" fill-rule="evenodd" stroke="none"/>
    <path d="M10.25 -56.5 Q7.35 -53.6 3.25 -53.55 -0.9 -53.6 -3.85 -56.5 -6.75 -59.45 -6.75 -63.55 -6.75 -67.7 -3.85 -70.6 -0.9 -73.55 3.25 -73.55 7.35 -73.55 10.25 -70.6 13.2 -67.7 13.2 -63.55 13.2 -59.45 10.25 -56.5" fill="#ff0000" fill-rule="evenodd" stroke="none"/>
    <path d="M-5.05 -32.55 Q-16.05 -35.1 -21.45 -45.2 -26.85 -55.25 -22.4 -65.95 -18.0 -76.5 -7.05 -79.85 4.0 -83.35 13.5 -77.0 23.1 -70.55 24.25 -59.05 25.45 -47.5 17.45 -39.2 12.55 -34.15 5.9 -32.75 L2.3 -32.2 -0.85 -32.1 -5.05 -32.55 M12.65 -71.35 Q7.9 -76.1 1.15 -76.1 -5.6 -76.1 -10.4 -71.35 -15.15 -66.55 -15.15 -59.8 -15.15 -53.05 -10.4 -48.3 -5.6 -43.5 1.15 -43.5 7.9 -43.5 12.65 -48.3 17.45 -53.05 17.45 -59.8 17.45 -66.55 12.65 -71.35" fill="#cc0000" fill-rule="evenodd" stroke="none"/>
    <path d="M5.9 -32.75 Q12.55 -34.15 17.45 -39.2 25.45 -47.5 24.25 -59.05 23.1 -70.55 13.5 -77.0 4.0 -83.35 -7.05 -79.85 -18.0 -76.5 -22.4 -65.95 -26.85 -55.25 -21.45 -45.2 -16.05 -35.1 -5.05 -32.55 L-0.85 -32.1 2.3 -32.2 5.9 -32.75 5.5 81.85 4.95 82.2 Q-0.35 85.55 -4.9 81.25 L-5.05 -32.55" fill="none" stroke="#000000" stroke-linecap="round" stroke-linejoin="round" stroke-width="1.25"/>
  </g>
</svg>
