<?xml version="1.0" encoding="UTF-8" standalone="no"?>
<svg xmlns:xlink="http://www.w3.org/1999/xlink" height="57.85px" width="68.85px" xmlns="http://www.w3.org/2000/svg">
  <g transform="matrix(1.0, 0.0, 0.0, 1.0, 34.45, 28.95)">
    <path d="M14.3 -22.65 Q12.15 -21.4 10.15 -19.95 L11.25 -19.95 Q20.4 -15.45 22.85 -5.45 24.2 0.1 22.05 5.45 25.8 5.3 28.85 3.1 30.3 2.0 31.15 0.3 32.55 -2.45 32.35 -5.6 31.85 -12.35 27.9 -17.7 26.15 -20.0 23.65 -21.75 22.25 -22.75 20.65 -23.05 L16.5 -23.55 14.3 -22.65 M14.4 -15.05 Q11.7 -17.15 8.85 -18.9 L9.1 -19.55 Q3.9 -23.7 -2.45 -25.95 L-5.05 -26.8 Q-11.65 -23.85 -18.3 -20.95 -18.4 -19.1 -17.2 -17.45 -15.5 -15.25 -12.7 -14.6 L-10.9 -14.4 -6.3 -15.05 -5.6 -14.25 Q-5.45 -10.5 -8.6 -8.3 -10.35 -7.05 -12.55 -6.7 -19.9 -5.4 -27.15 -7.3 -30.75 -3.3 -31.65 1.95 -32.5 7.1 -30.8 11.85 -29.05 16.75 -25.45 20.25 -19.9 25.65 -12.15 25.0 -8.95 25.0 -5.85 24.05 L-2.95 22.9 Q1.9 20.65 6.05 17.15 L11.0 12.4 13.9 9.5 Q15.55 7.85 17.85 7.2 L20.65 6.65 Q21.1 0.2 19.9 -5.95 L18.85 -9.2 17.0 -12.4 14.4 -15.05 M1.3 -4.15 L2.9 2.7 Q1.95 4.15 0.25 4.15 L-12.6 3.05 Q-16.0 2.55 -18.2 0.0 L-17.55 -0.85 -13.0 -0.3 Q-5.45 -0.05 0.6 -4.35 L1.3 -4.15 M10.5 -22.75 Q12.05 -24.15 13.8 -24.95 17.5 -26.45 21.7 -25.35 L23.3 -24.75 Q25.45 -23.65 27.2 -21.85 31.45 -17.35 33.5 -10.95 34.7 -7.2 34.3 -3.25 33.95 0.25 31.9 3.05 L30.2 5.0 30.0 5.5 29.8 5.95 29.75 6.05 29.2 6.35 Q26.0 9.45 22.05 8.95 L21.9 9.25 15.95 11.7 Q13.75 12.95 12.1 14.85 7.05 20.75 0.3 24.6 -5.6 28.1 -12.6 28.9 -17.45 28.6 -21.85 26.1 -27.9 22.8 -31.35 16.8 -35.3 9.9 -34.2 2.0 -33.65 -1.8 -31.75 -5.25 -31.0 -6.55 -29.8 -7.35 -24.6 -10.45 -18.55 -9.15 L-15.95 -8.75 Q-12.0 -8.5 -8.5 -10.45 L-7.65 -12.4 -9.35 -12.0 -11.35 -12.25 Q-13.25 -12.0 -15.1 -12.75 -18.9 -14.45 -20.55 -18.25 -20.95 -19.7 -20.5 -21.2 -20.15 -22.45 -18.95 -23.1 -15.35 -24.7 -12.0 -26.85 -8.35 -29.25 -4.2 -28.9 4.0 -27.9 9.0 -21.2 L10.5 -22.75 M1.55 9.75 Q-5.65 12.15 -13.35 10.4 -6.2 15.3 2.35 14.0 L2.05 9.6 Q1.75 9.6 1.55 9.75 M3.0 8.2 L3.9 15.0 3.45 15.5 Q-1.1 16.35 -5.45 15.05 L-5.65 14.85 Q-11.85 13.4 -16.7 9.45 L-14.35 9.0 -11.85 9.4 Q-4.55 10.65 2.15 7.8 L3.0 8.2 M0.55 -2.45 L-0.6 -1.4 Q-8.25 1.3 -16.3 0.2 -7.85 4.5 1.2 1.8 L0.55 -2.45" fill="#999999" fill-rule="evenodd" stroke="none"/>
    <path d="M1.3 -4.15 L0.6 -4.35 Q-5.45 -0.05 -13.0 -0.3 L-17.55 -0.85 -18.2 0.0 Q-16.0 2.55 -12.6 3.05 L0.25 4.15 Q1.95 4.15 2.9 2.7 L1.3 -4.15 M14.4 -15.05 L17.0 -12.4 18.85 -9.2 19.9 -5.95 Q21.1 0.2 20.65 6.65 L17.85 7.2 Q15.55 7.85 13.9 9.5 L11.0 12.4 6.05 17.15 Q1.9 20.65 -2.95 22.9 L-5.85 24.05 Q-8.95 25.0 -12.15 25.0 -19.9 25.65 -25.45 20.25 -29.05 16.75 -30.8 11.85 -32.5 7.1 -31.65 1.95 -30.75 -3.3 -27.15 -7.3 -19.9 -5.4 -12.55 -6.7 -10.35 -7.05 -8.6 -8.3 -5.45 -10.5 -5.6 -14.25 L-6.3 -15.05 -10.9 -14.4 -12.7 -14.6 Q-15.5 -15.25 -17.2 -17.45 -18.4 -19.1 -18.3 -20.95 -11.65 -23.85 -5.05 -26.8 L-2.45 -25.95 Q3.9 -23.7 9.1 -19.55 L8.85 -18.9 Q11.7 -17.15 14.4 -15.05 M14.3 -22.65 L16.5 -23.55 20.65 -23.05 Q22.25 -22.75 23.65 -21.75 26.15 -20.0 27.9 -17.7 31.85 -12.35 32.35 -5.6 32.55 -2.45 31.15 0.3 30.3 2.0 28.85 3.1 25.8 5.3 22.05 5.45 24.2 0.1 22.85 -5.45 20.4 -15.45 11.25 -19.95 L10.15 -19.95 Q12.15 -21.4 14.3 -22.65 M0.55 -2.45 L1.2 1.8 Q-7.85 4.5 -16.3 0.2 -8.25 1.3 -0.6 -1.4 L0.55 -2.45 M3.0 8.2 L2.15 7.8 Q-4.55 10.65 -11.85 9.4 L-14.35 9.0 -16.7 9.45 Q-11.85 13.4 -5.65 14.85 L-5.45 15.05 Q-1.1 16.35 3.45 15.5 L3.9 15.0 3.0 8.2 M1.55 9.75 Q1.75 9.6 2.05 9.6 L2.35 14.0 Q-6.2 15.3 -13.35 10.4 -5.65 12.15 1.55 9.75" fill="#ffffff" fill-rule="evenodd" stroke="none"/>
  </g>
</svg>
