<?xml version="1.0" encoding="UTF-8" standalone="no"?>
<svg xmlns:xlink="http://www.w3.org/1999/xlink" height="76.5px" width="50.95px" xmlns="http://www.w3.org/2000/svg">
  <g transform="matrix(1.0, 0.0, 0.0, 1.0, 25.5, 38.25)">
    <path d="M19.05 -20.55 L20.25 -26.7 21.2 -26.5 Q21.5 -22.3 20.95 -18.4 L17.1 8.3 16.85 9.75 14.4 21.05 14.4 18.95 Q15.2 10.0 16.15 1.05 17.2 -8.45 18.65 -18.0 L19.05 -20.55 M-13.35 26.4 Q-15.85 16.15 -16.85 5.65 L-17.7 -3.7 -17.9 -4.95 -17.4 -10.4 -16.85 -9.8 -15.3 -0.75 -14.05 8.3 -12.75 19.2 Q-12.05 24.65 -12.0 30.3 L-13.35 26.4" fill="#ffffff" fill-rule="evenodd" stroke="none"/>
    <path d="M14.4 18.95 L14.4 21.05 16.85 9.75 17.1 8.3 20.95 -18.4 Q21.5 -22.3 21.2 -26.5 L20.25 -26.7 19.05 -20.55 Q14.6 -22.45 9.35 -22.8 -0.9 -23.95 -11.1 -22.6 -15.6 -22.3 -19.55 -20.3 L-20.0 -20.45 -20.0 -19.75 -19.9 -18.8 -17.9 -4.95 -17.7 -3.7 -16.85 5.65 Q-15.85 16.15 -13.35 26.4 L-12.65 31.2 Q-14.4 31.75 -15.1 32.5 L-24.6 -32.8 -24.75 -33.95 Q-23.85 -35.35 -17.65 -36.35 L0.0 -37.5 17.55 -36.35 Q23.7 -35.35 24.7 -34.0 L24.55 -32.8 16.05 32.6 Q15.25 31.7 12.8 30.95 L14.4 18.95 M-24.6 -32.8 Q-23.4 -31.6 -17.65 -30.7 L0.0 -29.5 17.55 -30.7 Q23.3 -31.6 24.55 -32.8 23.3 -31.6 17.55 -30.7 L0.0 -29.5 -17.65 -30.7 Q-23.4 -31.6 -24.6 -32.8" fill="#aeefff" fill-rule="evenodd" stroke="none"/>
    <path d="M19.05 -20.55 L18.65 -18.0 Q17.2 -17.25 14.05 -16.65 8.2 -15.5 -0.1 -15.5 -8.4 -15.5 -14.25 -16.65 -19.0 -17.6 -19.9 -18.8 L-20.0 -19.75 -19.55 -20.3 Q-15.6 -22.3 -11.1 -22.6 -0.9 -23.95 9.35 -22.8 14.6 -22.45 19.05 -20.55" fill="#00b3df" fill-rule="evenodd" stroke="none"/>
    <path d="M18.65 -18.0 Q17.2 -8.45 16.15 1.05 15.2 10.0 14.4 18.95 L12.8 30.95 Q15.25 31.7 16.05 32.6 L15.9 33.5 16.4 33.7 Q16.15 35.2 11.7 36.3 7.05 37.5 0.4 37.5 -6.25 37.5 -10.95 36.3 -14.55 35.4 -15.35 34.25 L-15.5 33.1 -15.1 32.5 Q-14.4 31.75 -12.65 31.2 L-13.35 26.4 -12.0 30.3 Q-12.05 24.65 -12.75 19.2 L-14.05 8.3 -15.3 -0.75 -16.85 -9.8 -17.4 -10.4 -17.9 -4.95 -19.9 -18.8 Q-19.0 -17.6 -14.25 -16.65 -8.4 -15.5 -0.1 -15.5 8.2 -15.5 14.05 -16.65 17.2 -17.25 18.65 -18.0 M-20.0 -19.75 L-20.0 -20.45 -19.55 -20.3 -20.0 -19.75 M-12.65 31.2 Q-4.7 28.95 3.65 29.6 8.3 29.8 12.8 30.95 8.3 29.8 3.65 29.6 -4.7 28.95 -12.65 31.2" fill="#00ccff" fill-rule="evenodd" stroke="none"/>
    <path d="M12.8 30.95 Q15.25 31.7 16.05 32.6 L24.55 -32.8 Q23.3 -31.6 17.55 -30.7 L0.0 -29.5 -17.65 -30.7 Q-23.4 -31.6 -24.6 -32.8 L-15.1 32.5 Q-14.4 31.75 -12.65 31.2 M-24.6 -32.8 L-24.75 -33.95 Q-23.85 -35.35 -17.65 -36.35 L0.0 -37.5 17.55 -36.35 Q23.7 -35.35 24.7 -34.0 L24.55 -32.8 M16.4 33.7 Q16.15 35.2 11.7 36.3 7.05 37.5 0.4 37.5 -6.25 37.5 -10.95 36.3 -14.55 35.4 -15.35 34.25 L-15.5 33.1 -15.1 32.5 M12.8 30.95 Q8.3 29.8 3.65 29.6 -4.7 28.95 -12.65 31.2 M16.4 33.7 L16.05 32.6 15.9 33.5" fill="none" stroke="#000000" stroke-linecap="round" stroke-linejoin="round" stroke-width="1.5"/>
  </g>
</svg>
