<?xml version="1.0" encoding="UTF-8" standalone="no"?>
<svg xmlns:xlink="http://www.w3.org/1999/xlink" height="95.65px" width="42.5px" xmlns="http://www.w3.org/2000/svg">
  <g transform="matrix(1.0, 0.0, 0.0, 1.0, 22.9, 58.25)">
    <path d="M8.9 -55.0 Q10.2 -54.15 10.95 -52.7 L11.25 -51.8 11.5 -43.05 11.3 -38.2 10.95 -36.5 Q16.15 -29.95 18.0 -21.8 20.4 -11.05 19.2 -0.05 L17.75 10.8 Q16.5 18.85 14.15 26.8 13.4 29.35 12.0 31.35 L10.25 33.4 8.3 34.9 Q1.95 38.15 -5.1 37.15 L-7.1 36.5 -8.75 35.35 -11.6 32.15 Q-14.25 28.55 -15.8 24.25 -18.7 16.15 -20.45 7.8 -21.85 1.1 -22.55 -5.5 L-22.9 -11.35 Q-23.05 -19.2 -20.7 -26.55 -18.9 -32.2 -15.1 -37.05 -15.7 -45.1 -15.2 -53.05 -12.6 -54.9 -9.8 -56.4 -6.65 -58.2 -3.05 -58.25 3.4 -58.4 8.9 -55.0 M10.55 -37.35 L10.55 -44.35 10.5 -47.3 Q-0.65 -39.3 -12.6 -46.9 -13.6 -47.55 -14.45 -48.35 L-13.95 -37.1 -14.35 -36.55 Q-11.45 -34.65 -8.2 -33.7 -5.3 -32.9 -2.15 -32.75 L-0.45 -32.75 Q4.05 -33.1 7.95 -35.6 L10.55 -37.35 M18.05 -6.05 Q18.45 -11.8 17.6 -17.3 16.9 -21.95 15.0 -26.5 12.95 -31.3 10.3 -35.7 9.45 -34.5 8.35 -33.95 2.5 -31.1 -3.9 -31.55 L-8.8 -32.55 Q-11.25 -33.25 -13.1 -34.7 L-14.75 -35.95 Q-22.45 -23.8 -21.75 -9.3 L-21.6 -6.9 -22.1 -7.1 -21.45 -5.95 -18.3 10.35 -19.3 10.15 -19.45 10.8 -17.85 12.35 -15.95 19.65 Q-14.75 23.8 -12.75 27.65 -11.0 31.1 -8.5 33.95 -7.8 34.75 -6.7 35.15 -3.85 36.15 -0.9 36.1 3.35 35.75 7.45 34.2 L8.05 33.85 8.05 33.95 8.1 33.9 9.5 32.65 Q11.05 30.95 11.85 28.8 14.55 21.35 16.1 13.3 L17.05 12.25 16.5 11.4 16.9 8.85 Q18.05 2.2 18.05 -4.75 L18.05 -6.05 M2.3 -44.75 Q6.8 -45.55 10.3 -48.75 L10.1 -51.9 Q4.0 -58.25 -5.15 -57.1 -10.4 -56.2 -13.85 -52.35 L-14.4 -51.55 Q-8.95 -42.8 2.3 -44.75" fill="#000000" fill-rule="evenodd" stroke="none"/>
    <path d="M10.55 -37.35 L7.95 -35.6 Q4.05 -33.1 -0.45 -32.75 L-2.15 -32.75 Q-5.3 -32.9 -8.2 -33.7 -11.45 -34.65 -14.35 -36.55 L-13.95 -37.1 -14.45 -48.35 Q-13.6 -47.55 -12.6 -46.9 -0.65 -39.3 10.5 -47.3 L10.55 -44.35 10.55 -37.35" fill="#cc0000" fill-rule="evenodd" stroke="none"/>
    <path d="M13.85 -17.25 L12.4 -21.5 8.2 -32.1 8.45 -32.85 9.35 -32.85 11.65 -29.0 Q15.2 -22.7 16.55 -15.55 16.95 -11.75 16.5 -7.9 L16.15 -5.7 15.15 -5.65 14.8 -5.95 14.55 -11.35 14.4 -13.1 14.1 -15.2 13.85 -17.25 M13.05 12.3 L15.2 6.9 15.2 7.8 15.55 8.1 15.6 11.45 15.3 14.0 14.15 18.05 Q13.05 25.45 9.15 31.85 8.75 32.45 8.15 32.35 L7.7 32.1 7.6 31.9 7.5 31.65 Q11.0 23.3 12.7 14.45 L13.05 12.3" fill="#ffffff" fill-rule="evenodd" stroke="none"/>
    <path d="M16.55 -15.55 Q15.2 -22.7 11.65 -29.0 L9.35 -32.85 8.45 -32.85 8.2 -32.1 12.4 -21.5 13.85 -17.25 12.75 -18.2 Q11.15 -18.25 9.95 -18.8 L6.15 -20.15 Q-2.45 -22.0 -10.9 -19.8 L-10.55 -24.25 Q-10.1 -28.55 -8.8 -32.55 L-3.9 -31.55 Q2.5 -31.1 8.35 -33.95 9.45 -34.5 10.3 -35.7 12.95 -31.3 15.0 -26.5 16.9 -21.95 17.6 -17.3 18.45 -11.8 18.05 -6.05 L17.85 -6.45 17.25 -6.35 17.1 -6.55 17.35 -8.55 Q18.15 -12.35 16.55 -15.55 M-3.2 34.35 L2.95 34.05 Q5.6 33.6 7.7 32.1 L8.15 32.35 Q8.75 32.45 9.15 31.85 13.05 25.45 14.15 18.05 L15.3 14.0 16.1 13.3 Q14.55 21.35 11.85 28.8 11.05 30.95 9.5 32.65 L8.1 33.9 8.05 33.85 7.45 34.2 Q3.35 35.75 -0.9 36.1 L-3.2 34.35" fill="#e3f1df" fill-rule="evenodd" stroke="none"/>
    <path d="M2.3 -44.75 Q-8.95 -42.8 -14.4 -51.55 L-13.85 -52.35 Q-10.4 -56.2 -5.15 -57.1 4.0 -58.25 10.1 -51.9 L10.3 -48.75 Q6.8 -45.55 2.3 -44.75" fill="#990000" fill-rule="evenodd" stroke="none"/>
    <path d="M13.85 -17.25 L14.1 -15.2 13.75 -15.55 Q12.5 -16.3 11.35 -16.65 0.25 -20.5 -10.95 -17.75 L-19.75 -14.7 -19.55 -14.2 -19.35 -14.1 Q-15.35 -11.6 -10.75 -10.55 L1.05 -9.65 Q8.2 -9.65 14.4 -13.1 L14.55 -11.35 8.8 -9.75 Q-0.9 -7.0 -10.75 -9.55 -15.45 -10.35 -19.45 -13.05 L-19.4 -6.35 -19.85 -6.15 Q-22.0 -10.35 -20.8 -15.15 L-20.65 -15.75 -10.9 -19.8 Q-2.45 -22.0 6.15 -20.15 L9.95 -18.8 Q11.15 -18.25 12.75 -18.2 L13.85 -17.25 M16.5 -7.9 Q16.95 -11.75 16.55 -15.55 18.15 -12.35 17.35 -8.55 L17.1 -6.55 16.85 -6.35 16.5 -7.9 M-15.0 14.3 L-11.45 22.4 -6.9 30.5 Q-4.7 28.75 -1.95 28.3 L3.7 27.65 Q5.1 27.8 6.4 28.45 7.4 28.9 8.05 29.9 L12.4 15.5 12.7 14.45 Q11.0 23.3 7.5 31.65 L7.6 31.9 7.7 32.1 Q5.6 33.6 2.95 34.05 L-3.2 34.35 -7.3 32.75 Q-11.9 24.4 -15.4 15.75 L-16.1 13.65 -15.2 13.45 -15.0 14.3 M-6.5 31.4 L-6.65 32.35 Q-2.8 33.75 1.25 32.95 L6.4 31.5 7.45 30.95 6.9 30.35 Q6.25 29.95 5.55 29.9 L0.15 29.25 Q-3.35 29.65 -6.5 31.4" fill="#66cccc" fill-rule="evenodd" stroke="none"/>
    <path d="M14.1 -15.2 L14.4 -13.1 Q8.2 -9.65 1.05 -9.65 L-10.75 -10.55 -10.95 -17.75 Q0.25 -20.5 11.35 -16.65 12.5 -16.3 13.75 -15.55 L14.1 -15.2 M14.55 -11.35 L14.8 -5.95 15.15 -5.65 16.15 -5.7 16.5 -7.9 16.85 -6.35 16.95 -6.15 Q14.6 -4.45 11.9 -3.8 L1.7 -1.8 Q-5.2 -1.0 -11.85 -2.85 L-11.4 -3.95 Q-10.35 -6.55 -10.75 -9.55 -0.9 -7.0 8.8 -9.75 L14.55 -11.35 M12.4 15.5 L8.05 29.9 Q7.4 28.9 6.4 28.45 5.1 27.8 3.7 27.65 L-1.95 28.3 Q-4.7 28.75 -6.9 30.5 L-11.45 22.4 -12.75 18.45 Q-13.15 16.75 -12.8 15.3 -8.15 16.9 -3.15 17.25 4.8 17.65 12.4 15.5" fill="#b7e3f9" fill-rule="evenodd" stroke="none"/>
    <path d="M17.25 -6.35 L17.85 -6.45 18.05 -6.05 18.05 -4.75 16.5 -3.45 Q11.3 -0.85 5.35 0.15 -3.95 1.55 -13.0 -0.85 L-13.2 -0.9 Q-18.15 -2.3 -21.45 -5.95 L-22.1 -7.1 -21.6 -6.9 Q-20.8 -6.4 -19.9 -6.05 L-11.85 -2.85 Q-5.2 -1.0 1.7 -1.8 L11.9 -3.8 Q14.6 -4.45 16.95 -6.15 L17.25 -6.35 M-11.55 13.55 Q-6.55 15.2 -1.1 15.3 6.4 15.35 13.05 12.3 L12.7 14.45 12.4 15.5 Q4.8 17.65 -3.15 17.25 -8.15 16.9 -12.8 15.3 L-15.0 14.3 -15.2 13.45 -16.1 13.65 -17.85 12.35 -19.45 10.8 -19.3 10.15 -18.3 10.35 -11.55 13.55 M15.6 11.45 L16.5 11.4 17.05 12.25 16.1 13.3 15.3 14.0 15.6 11.45" fill="#6699cc" fill-rule="evenodd" stroke="none"/>
    <path d="M-13.0 -0.85 Q-3.95 1.55 5.35 0.15 11.3 -0.85 16.5 -3.45 L18.05 -4.75 Q18.05 2.2 16.9 8.85 L16.5 11.4 15.6 11.45 15.55 8.1 15.2 7.8 15.2 6.9 13.05 12.3 Q6.4 15.35 -1.1 15.3 -6.55 15.2 -11.55 13.55 L-8.5 11.2 Q-7.95 9.95 -8.3 8.6 -8.75 7.15 -9.45 5.9 L-13.0 -0.85" fill="#a2c0df" fill-rule="evenodd" stroke="none"/>
    <path d="M-11.85 -2.85 L-19.9 -6.05 -19.85 -6.15 -19.4 -6.35 -19.45 -13.05 Q-15.45 -10.35 -10.75 -9.55 -10.35 -6.55 -11.4 -3.95 L-11.85 -2.85 M-10.75 -10.55 Q-15.35 -11.6 -19.35 -14.1 L-19.55 -14.2 -19.75 -14.7 -10.95 -17.75 -10.75 -10.55 M-11.45 22.4 L-15.0 14.3 -12.8 15.3 Q-13.15 16.75 -12.75 18.45 L-11.45 22.4 M-6.5 31.4 Q-3.35 29.65 0.15 29.25 L5.55 29.9 Q6.25 29.95 6.9 30.35 L7.45 30.95 6.4 31.5 1.25 32.95 Q-2.8 33.75 -6.65 32.35 L-6.5 31.4" fill="#89d2f5" fill-rule="evenodd" stroke="none"/>
    <path d="M-8.8 -32.55 Q-10.1 -28.55 -10.55 -24.25 L-10.9 -19.8 -20.65 -15.75 -20.8 -15.15 Q-22.0 -10.35 -19.85 -6.15 L-19.9 -6.05 Q-20.8 -6.4 -21.6 -6.9 L-21.75 -9.3 Q-22.45 -23.8 -14.75 -35.95 L-13.1 -34.7 Q-11.25 -33.25 -8.8 -32.55 M-16.1 13.65 L-15.4 15.75 Q-11.9 24.4 -7.3 32.75 L-3.2 34.35 -0.9 36.1 Q-3.85 36.15 -6.7 35.15 -7.8 34.75 -8.5 33.95 -11.0 31.1 -12.75 27.65 -14.75 23.8 -15.95 19.65 L-17.85 12.35 -16.1 13.65" fill="#d0e8ca" fill-rule="evenodd" stroke="none"/>
    <path d="M-13.0 -0.85 L-9.45 5.9 Q-8.75 7.15 -8.3 8.6 -7.95 9.95 -8.5 11.2 L-11.55 13.55 -18.3 10.35 -21.45 -5.95 Q-18.15 -2.3 -13.2 -0.9 L-13.0 -0.85" fill="#8db3d8" fill-rule="evenodd" stroke="none"/>
  </g>
</svg>
