<?xml version="1.0" encoding="UTF-8" standalone="no"?>
<svg xmlns:xlink="http://www.w3.org/1999/xlink" height="54.0px" width="53.85px" xmlns="http://www.w3.org/2000/svg">
  <g transform="matrix(1.0, 0.0, 0.0, 1.0, 61.95, 83.8)">
    <path d="M-41.85 -73.6 L-42.6 -73.4 -42.95 -73.25 -43.55 -73.05 Q-46.5 -71.9 -48.35 -69.25 L-49.55 -67.55 Q-50.4 -63.55 -48.2 -60.35 L-46.3 -58.15 -44.15 -56.25 Q-42.0 -54.7 -39.35 -53.55 L-32.1 -50.85 Q-23.35 -48.05 -14.8 -44.85 L-13.45 -44.35 -11.2 -43.5 Q-9.4 -42.8 -8.1 -41.65 L-8.35 -39.25 Q-10.25 -40.85 -12.35 -42.05 -16.1 -44.25 -20.5 -45.35 -34.55 -48.9 -46.75 -56.05 L-46.95 -56.25 Q-51.1 -59.6 -50.8 -64.75 L-50.6 -66.4 -50.7 -66.4 -49.65 -69.25 Q-47.6 -72.6 -43.75 -73.9 L-43.6 -73.9 -42.35 -73.8 -41.85 -73.6 M-11.6 -31.35 L-11.5 -30.75 -11.45 -30.1 -11.55 -30.6 Q-11.85 -30.7 -11.65 -29.8 L-12.55 -30.9 -12.75 -31.1 Q-13.95 -33.15 -16.35 -34.0 L-23.7 -36.4 Q-28.5 -37.75 -33.35 -38.7 L-40.85 -40.2 Q-50.6 -42.35 -57.2 -49.5 L-58.0 -50.7 Q-66.25 -63.5 -57.2 -75.55 -54.25 -79.35 -49.8 -81.55 L-47.05 -82.65 -46.75 -82.5 -46.7 -82.5 Q-46.25 -82.35 -46.25 -81.9 L-46.85 -81.7 Q-53.15 -79.45 -57.0 -74.0 L-57.2 -73.7 -57.95 -72.4 Q-63.05 -62.4 -57.2 -52.55 L-56.4 -51.25 Q-50.05 -44.25 -40.55 -42.3 L-30.9 -40.3 Q-25.05 -39.1 -19.5 -37.05 L-14.95 -35.45 Q-11.55 -34.3 -11.6 -31.35" fill="#000000" fill-rule="evenodd" stroke="none"/>
    <path d="M-8.35 -39.25 L-8.4 -39.0 -8.55 -38.1 Q-8.8 -36.3 -9.45 -34.6 L-10.25 -32.9 -10.85 -31.9 -11.4 -31.05 -11.6 -31.35 Q-11.55 -34.3 -14.95 -35.45 L-19.5 -37.05 Q-25.05 -39.1 -30.9 -40.3 L-40.55 -42.3 Q-50.05 -44.25 -56.4 -51.25 L-57.2 -52.55 Q-63.05 -62.4 -57.95 -72.4 L-57.2 -73.7 -57.0 -74.0 Q-53.15 -79.45 -46.85 -81.7 L-46.25 -81.9 Q-46.25 -82.35 -46.7 -82.5 L-46.3 -82.35 -45.75 -82.2 -44.5 -82.35 Q-44.05 -82.45 -43.65 -82.7 -42.05 -83.65 -40.25 -83.8 -37.6 -84.0 -36.25 -81.75 L-35.6 -80.55 -35.4 -80.1 Q-35.15 -79.45 -35.35 -78.75 -35.55 -78.0 -36.0 -77.35 L-36.1 -77.2 Q-38.1 -74.55 -41.1 -73.65 L-41.2 -73.6 -41.85 -73.45 -41.85 -73.6 -42.35 -73.8 -43.6 -73.9 -43.75 -73.9 Q-47.6 -72.6 -49.65 -69.25 L-50.7 -66.4 -50.6 -66.4 -50.8 -64.75 Q-51.1 -59.6 -46.95 -56.25 L-46.75 -56.05 Q-34.55 -48.9 -20.5 -45.35 -16.1 -44.25 -12.35 -42.05 -10.25 -40.85 -8.35 -39.25" fill="#dadada" fill-rule="evenodd" stroke="none"/>
  </g>
</svg>
