<?xml version="1.0" encoding="UTF-8" standalone="no"?>
<svg xmlns:xlink="http://www.w3.org/1999/xlink" height="46.1px" width="88.35px" xmlns="http://www.w3.org/2000/svg">
  <g transform="matrix(1.0, 0.0, 0.0, 1.0, 27.2, 26.8)">
    <path d="M23.2 -10.25 Q24.6 -7.0 24.95 -3.55 25.4 0.7 24.2 4.9 L23.4 7.45 23.05 8.3 21.8 8.9 Q18.8 10.3 15.3 9.55 16.75 7.25 17.6 4.7 20.35 -3.7 16.45 -11.0 19.5 -11.7 22.4 -10.55 L23.2 -10.25 M12.35 -9.65 Q13.1 -8.75 13.7 -7.25 L14.45 -4.75 Q14.9 -2.65 14.35 -0.4 13.25 4.15 10.35 7.85 4.8 5.4 -1.1 3.8 -4.95 2.65 -8.9 3.05 -11.8 2.4 -14.4 3.15 L-14.1 -0.6 Q-13.8 -3.5 -14.65 -6.2 L-12.45 -5.55 -2.3 -5.9 Q2.0 -6.25 6.2 -7.65 L12.35 -9.65 M-23.9 -6.4 Q-22.65 -10.1 -19.25 -10.35 -17.8 -8.95 -16.95 -7.0 -15.4 -0.5 -17.5 5.6 L-17.55 5.9 -17.55 6.25 -18.05 6.85 -20.0 8.45 Q-21.55 8.95 -22.75 7.75 -26.2 2.35 -24.7 -3.7 L-23.9 -6.4 M-21.8 -8.1 L-20.8 -1.25 -20.75 1.0 Q-20.9 3.2 -21.9 5.35 L-20.9 6.1 Q-18.95 4.2 -18.6 1.4 -17.9 -3.95 -20.65 -8.4 L-21.35 -8.45 -21.8 -8.1" fill="#ffcc00" fill-rule="evenodd" stroke="none"/>
    <path d="M19.4 16.05 L14.4 18.1 Q11.4 16.5 10.05 13.5 L6.55 12.4 Q1.8 10.8 -3.15 9.7 -9.75 8.15 -16.55 8.7 L-17.15 9.35 Q-19.45 11.6 -22.6 10.7 -24.55 8.85 -25.7 6.5 -27.3 3.35 -27.2 -0.1 -27.0 -6.95 -22.3 -11.95 -20.6 -12.8 -18.85 -12.35 -17.1 -11.95 -16.45 -10.05 L-3.95 -10.7 Q0.25 -10.95 4.4 -12.35 L9.0 -14.05 11.6 -14.8 12.95 -17.1 13.6 -17.3 13.95 -17.7 15.2 -17.95 19.5 -17.8 20.05 -16.35 20.35 -17.25 Q24.0 -13.55 26.15 -8.85 27.2 -6.45 27.35 -3.7 27.6 2.2 25.75 7.75 24.15 12.45 20.25 15.45 L19.8 15.05 19.4 16.05 M18.8 -15.5 L16.5 -16.7 14.55 -16.5 12.9 -15.3 13.95 -15.3 16.45 -11.0 Q20.35 -3.7 17.6 4.7 16.75 7.25 15.3 9.55 L13.15 12.35 13.2 13.05 12.9 13.4 14.8 15.55 Q19.45 14.65 21.85 10.5 L23.05 8.3 23.4 7.45 24.2 4.9 Q25.4 0.7 24.95 -3.55 24.6 -7.0 23.2 -10.25 L20.7 -14.2 18.8 -15.5 M-15.35 7.1 L-14.95 6.7 Q-4.15 5.2 6.25 9.15 L11.8 11.1 Q15.95 5.85 16.6 -0.95 17.1 -5.9 15.15 -10.65 L13.35 -14.1 Q11.7 -13.3 10.0 -13.2 -0.25 -8.0 -11.85 -8.8 -14.1 -8.95 -16.15 -9.6 -15.2 -8.0 -14.65 -6.2 -13.8 -3.5 -14.1 -0.6 L-14.4 3.15 Q-14.6 5.2 -15.55 7.0 L-15.6 7.15 -15.35 7.1 M-21.8 -8.1 L-21.35 -8.45 -20.65 -8.4 Q-17.9 -3.95 -18.6 1.4 -18.95 4.2 -20.9 6.1 L-21.9 5.35 Q-20.9 3.2 -20.75 1.0 L-20.8 -1.25 -21.8 -8.1 M-23.9 -6.4 L-24.7 -3.7 Q-26.2 2.35 -22.75 7.75 -21.55 8.95 -20.0 8.45 L-18.05 6.85 -17.55 6.25 -17.55 5.9 -17.5 5.6 Q-15.4 -0.5 -16.95 -7.0 -17.8 -8.95 -19.25 -10.35 -22.65 -10.1 -23.9 -6.4" fill="#000000" fill-rule="evenodd" stroke="none"/>
    <path d="M11.05 -13.05 L9.6 -12.15 8.35 -11.8 Q7.5 -11.45 7.1 -10.7 0.95 -8.2 -5.85 -7.65 L-13.7 -7.6 -5.1 -7.05 Q1.4 -7.85 7.5 -10.0 9.7 -10.85 11.65 -12.4 L11.05 -13.05 M16.45 -11.0 L13.95 -15.3 12.9 -15.3 14.55 -16.5 16.5 -16.7 18.8 -15.5 18.05 -15.7 Q16.55 -15.85 15.5 -15.0 L16.2 -14.2 17.7 -14.4 20.45 -12.95 20.7 -14.2 23.2 -10.25 22.4 -10.55 Q19.5 -11.7 16.45 -11.0 M15.15 -10.65 L12.35 -9.65 6.2 -7.65 Q2.0 -6.25 -2.3 -5.9 L-12.45 -5.55 -14.65 -6.2 Q-15.2 -8.0 -16.15 -9.6 -14.1 -8.95 -11.85 -8.8 -0.25 -8.0 10.0 -13.2 11.7 -13.3 13.35 -14.1 L15.15 -10.65" fill="#ffe88c" fill-rule="evenodd" stroke="none"/>
    <path d="M20.25 15.45 Q24.15 12.45 25.75 7.75 27.6 2.2 27.35 -3.7 27.2 -6.45 26.15 -8.85 24.0 -13.55 20.35 -17.25 21.4 -18.85 23.0 -19.9 24.2 -20.7 25.55 -20.95 L28.15 -20.65 Q31.6 -19.7 34.65 -17.75 36.6 -18.6 38.75 -18.1 42.9 -17.05 46.15 -14.1 50.8 -9.75 51.15 -3.3 L51.65 8.05 51.35 8.65 Q51.05 10.45 50.2 12.05 48.8 14.85 45.85 16.15 L43.7 16.65 41.7 16.7 33.8 15.05 Q32.0 16.2 30.05 16.9 27.65 17.95 25.05 17.9 22.0 17.85 20.25 15.45 M11.05 -13.05 L11.65 -12.4 Q9.7 -10.85 7.5 -10.0 1.4 -7.85 -5.1 -7.05 L-13.7 -7.6 -5.85 -7.65 Q0.95 -8.2 7.1 -10.7 7.5 -11.45 8.35 -11.8 L9.6 -12.15 11.05 -13.05 M18.8 -15.5 L20.7 -14.2 20.45 -12.95 17.7 -14.4 16.2 -14.2 15.5 -15.0 Q16.55 -15.85 18.05 -15.7 L18.8 -15.5 M34.0 -20.45 Q34.95 -21.85 36.6 -22.7 41.85 -25.35 47.55 -24.3 L50.0 -23.6 51.6 -22.95 Q56.8 -18.95 58.5 -12.55 59.0 -10.8 59.1 -9.0 L59.0 -5.6 Q58.7 -3.45 57.45 -1.6 L55.7 0.65 Q54.4 2.1 52.95 1.9 52.85 1.35 53.05 0.2 54.0 -5.8 51.0 -11.1 49.55 -13.75 47.15 -15.9 41.9 -20.7 34.9 -19.45 L34.0 -20.45 M36.95 -8.95 L31.9 -9.2 30.8 -8.55 Q30.85 -8.3 31.05 -8.2 31.35 -7.95 31.8 -7.85 32.45 -6.25 32.6 -4.6 33.5 3.8 31.25 11.9 L32.2 12.3 32.3 11.75 Q33.8 10.75 34.55 8.95 37.7 1.1 36.9 -7.45 L37.25 -8.45 36.95 -8.95 M35.85 -7.45 Q36.3 -2.15 35.35 2.8 34.7 6.1 33.05 9.1 34.7 0.6 33.1 -7.65 L35.85 -7.45 M46.15 -9.7 L43.3 -9.65 42.25 -10.7 42.0 -10.3 Q42.55 -5.05 42.4 0.05 42.25 5.2 40.95 10.2 L41.75 10.5 Q45.0 6.5 46.15 1.55 47.35 -3.45 47.15 -8.55 L47.75 -9.15 47.15 -9.6 46.9 -10.4 46.2 -10.35 46.15 -9.7 M43.6 -8.95 L46.05 -8.6 Q45.5 -2.65 43.75 3.15 L44.1 -5.95 Q44.1 -7.6 43.6 -8.95" fill="#ffffff" fill-rule="evenodd" stroke="none"/>
    <path d="M19.4 16.05 L19.8 15.05 20.25 15.45 Q22.0 17.85 25.05 17.9 27.65 17.95 30.05 16.9 32.0 16.2 33.8 15.05 L41.7 16.7 43.7 16.65 45.85 16.15 Q48.8 14.85 50.2 12.05 51.05 10.45 51.35 8.65 L51.65 8.05 51.15 -3.3 Q50.8 -9.75 46.15 -14.1 42.9 -17.05 38.75 -18.1 36.6 -18.6 34.65 -17.75 31.6 -19.7 28.15 -20.65 L25.55 -20.95 Q24.2 -20.7 23.0 -19.9 21.4 -18.85 20.35 -17.25 L20.05 -16.35 19.5 -17.8 Q20.3 -20.15 22.3 -21.5 24.95 -23.15 28.05 -23.15 30.9 -23.0 33.25 -21.15 L33.3 -21.9 Q35.95 -24.8 39.85 -26.15 L44.7 -26.8 Q53.15 -26.7 57.75 -19.5 61.6 -13.45 61.1 -6.35 60.85 -2.35 58.3 0.7 L56.45 2.25 54.2 3.45 52.9 3.9 53.0 8.5 52.7 10.2 Q51.7 13.75 49.05 16.0 45.85 18.8 41.6 18.65 37.65 18.55 34.4 16.2 L31.15 18.1 Q28.75 19.2 26.15 19.3 L22.75 18.8 Q20.15 18.4 19.4 16.05 M43.6 -8.95 Q44.1 -7.6 44.1 -5.95 L43.75 3.15 Q45.5 -2.65 46.05 -8.6 L43.6 -8.95 M46.15 -9.7 L46.2 -10.35 46.9 -10.4 47.15 -9.6 47.75 -9.15 47.15 -8.55 Q47.35 -3.45 46.15 1.55 45.0 6.5 41.75 10.5 L40.95 10.2 Q42.25 5.2 42.4 0.05 42.55 -5.05 42.0 -10.3 L42.25 -10.7 43.3 -9.65 46.15 -9.7 M35.85 -7.45 L33.1 -7.65 Q34.7 0.6 33.05 9.1 34.7 6.1 35.35 2.8 36.3 -2.15 35.85 -7.45 M36.95 -8.95 L37.25 -8.45 36.9 -7.45 Q37.7 1.1 34.55 8.95 33.8 10.75 32.3 11.75 L32.2 12.3 31.25 11.9 Q33.5 3.8 32.6 -4.6 32.45 -6.25 31.8 -7.85 31.35 -7.95 31.05 -8.2 30.85 -8.3 30.8 -8.55 L31.9 -9.2 36.95 -8.95 M34.0 -20.45 L34.9 -19.45 Q41.9 -20.7 47.15 -15.9 49.55 -13.75 51.0 -11.1 54.0 -5.8 53.05 0.2 52.85 1.35 52.95 1.9 54.4 2.1 55.7 0.65 L57.45 -1.6 Q58.7 -3.45 59.0 -5.6 L59.1 -9.0 Q59.0 -10.8 58.5 -12.55 56.8 -18.95 51.6 -22.95 L50.0 -23.6 47.55 -24.3 Q41.85 -25.35 36.6 -22.7 34.95 -21.85 34.0 -20.45" fill="#999999" fill-rule="evenodd" stroke="none"/>
    <path d="M23.05 8.3 L21.85 10.5 Q19.45 14.65 14.8 15.55 L12.9 13.4 13.2 13.05 13.15 12.35 15.3 9.55 Q18.8 10.3 21.8 8.9 L23.05 8.3 M15.15 -10.65 Q17.1 -5.9 16.6 -0.95 15.95 5.85 11.8 11.1 L6.25 9.15 Q-4.15 5.2 -14.95 6.7 L-15.35 7.1 -15.55 7.0 Q-14.6 5.2 -14.4 3.15 -11.8 2.4 -8.9 3.05 -4.95 2.65 -1.1 3.8 4.8 5.4 10.35 7.85 13.25 4.15 14.35 -0.4 14.9 -2.65 14.45 -4.75 L13.7 -7.25 Q13.1 -8.75 12.35 -9.65 L15.15 -10.65" fill="#d7ac00" fill-rule="evenodd" stroke="none"/>
  </g>
</svg>
