<?xml version="1.0" encoding="UTF-8" standalone="no"?>
<svg xmlns:xlink="http://www.w3.org/1999/xlink" height="63.2px" width="60.05px" xmlns="http://www.w3.org/2000/svg">
  <g transform="matrix(1.0, 0.0, 0.0, 1.0, 37.7, 84.65)">
    <path d="M9.45 -81.7 L9.55 -81.55 9.6 -81.4 9.55 -81.2 9.35 -80.95 Q2.35 -78.25 -5.0 -76.25 L-5.0 -76.1 -6.4 -75.5 Q-9.8 -75.0 -13.0 -73.55 L-17.65 -71.6 Q-26.85 -68.1 -32.5 -60.35 -38.2 -52.7 -34.9 -43.75 -32.9 -38.2 -28.95 -33.7 L-24.6 -29.6 -15.4 -23.0 -16.8 -21.45 -17.25 -21.75 -20.6 -24.05 Q-29.95 -30.25 -35.2 -40.05 -39.5 -47.95 -36.45 -56.3 -35.45 -59.0 -33.8 -61.4 -30.3 -66.55 -24.7 -69.7 -16.15 -74.7 -6.55 -77.05 L-6.35 -77.2 8.15 -82.0 9.35 -81.85 9.45 -81.7 M-11.0 -31.55 L-11.05 -31.55 -12.05 -31.8 -12.2 -31.85 Q-13.55 -32.35 -14.8 -32.95 L-15.3 -33.15 Q-23.35 -37.3 -28.65 -44.55 -31.0 -47.8 -30.3 -51.75 -28.95 -59.55 -21.65 -63.45 -13.8 -67.75 -5.35 -70.7 L-2.25 -71.65 Q5.15 -73.45 12.65 -74.7 L15.25 -75.1 15.3 -75.0 Q14.55 -74.05 13.3 -73.45 L11.15 -72.9 4.2 -71.65 Q-8.6 -68.7 -20.2 -62.35 -25.2 -59.65 -27.65 -54.75 -30.2 -49.8 -26.85 -45.35 -23.3 -40.6 -18.2 -37.25 L-15.45 -35.45 -10.75 -32.45 -10.15 -32.05 Q-10.95 -32.1 -10.75 -31.8 -10.6 -31.5 -10.85 -31.55 L-11.0 -31.55" fill="#000000" fill-rule="evenodd" stroke="none"/>
    <path d="M9.45 -81.7 Q11.3 -82.4 13.05 -83.4 16.3 -85.25 19.85 -84.35 20.8 -84.15 21.7 -83.5 22.7 -82.75 22.15 -81.45 L21.5 -80.15 Q19.55 -76.85 16.25 -75.45 L15.7 -75.3 13.25 -74.85 12.65 -74.75 12.65 -74.7 Q5.15 -73.45 -2.25 -71.65 L-5.35 -70.7 Q-13.8 -67.75 -21.65 -63.45 -28.95 -59.55 -30.3 -51.75 -31.0 -47.8 -28.65 -44.55 -23.35 -37.3 -15.3 -33.15 L-14.8 -32.95 Q-13.55 -32.35 -12.2 -31.85 L-12.05 -31.8 -11.05 -31.55 -11.0 -31.55 -15.4 -23.0 -24.6 -29.6 -28.95 -33.7 Q-32.9 -38.2 -34.9 -43.75 -38.2 -52.7 -32.5 -60.35 -26.85 -68.1 -17.65 -71.6 L-13.0 -73.55 Q-9.8 -75.0 -6.4 -75.5 L-5.0 -76.1 -5.0 -76.25 Q2.35 -78.25 9.35 -80.95 L9.55 -81.2 9.6 -81.4 9.55 -81.55 9.45 -81.7" fill="#dadada" fill-rule="evenodd" stroke="none"/>
  </g>
</svg>
