<?xml version="1.0" encoding="UTF-8" standalone="no"?>
<svg xmlns:xlink="http://www.w3.org/1999/xlink" height="91.7px" width="58.25px" xmlns="http://www.w3.org/2000/svg">
  <g transform="matrix(1.0, 0.0, 0.0, 1.0, 28.95, 46.05)">
    <path d="M14.45 38.55 Q20.2 30.7 23.95 21.75 25.45 18.2 26.05 14.55 L27.0 7.1 Q27.25 4.0 27.0 0.95 26.4 -6.75 23.45 -13.95 21.35 -18.95 20.0 -24.3 13.15 -22.8 6.55 -20.6 L-0.05 -18.6 Q-3.5 -17.45 -6.95 -17.95 L-7.8 -19.05 Q-7.3 -26.05 -4.0 -32.25 -1.85 -36.2 -0.25 -40.4 L-1.0 -41.55 Q-2.25 -43.3 -4.2 -43.9 L-4.25 -43.9 -4.3 -43.95 Q-7.0 -44.8 -9.65 -43.85 -9.75 -43.15 -10.6 -42.35 -16.0 -37.25 -20.1 -30.95 -24.15 -24.75 -26.05 -17.55 -26.95 -14.0 -27.35 -10.35 -28.0 -4.15 -23.0 -0.6 -20.95 0.85 -18.45 1.1 -10.95 1.9 -3.65 0.2 3.6 -1.5 10.5 -4.35 L12.85 -4.6 Q13.1 -4.45 13.0 -4.0 L12.85 -3.6 Q5.4 0.1 -2.65 1.95 -4.45 5.5 -6.85 8.45 L-7.6 9.6 Q-11.2 16.2 -11.05 23.7 -11.0 27.3 -9.7 30.65 L-9.65 30.7 -9.65 30.65 Q-9.75 26.6 -8.55 22.5 -7.8 19.9 -6.0 17.65 L-4.15 15.65 Q-6.6 21.0 -7.9 26.8 -8.2 28.25 -8.15 29.75 -8.1 31.85 -7.3 33.85 -5.55 38.15 -1.85 40.9 0.0 42.2 2.2 43.05 L5.1 44.2 Q1.45 37.45 2.2 29.95 2.6 25.8 4.5 22.05 5.5 20.0 7.5 18.85 6.05 22.4 4.9 26.05 3.25 31.4 4.15 36.95 4.8 40.85 6.45 44.35 9.95 42.9 12.9 40.1 L14.45 38.55 M26.45 -10.5 L28.35 -2.85 29.1 1.95 Q29.95 11.4 26.8 20.25 22.95 31.0 15.5 39.7 14.0 41.5 12.0 42.9 L7.7 45.15 6.2 45.65 1.7 44.6 Q-2.65 43.15 -5.75 39.7 L-8.4 36.45 Q-13.45 29.25 -12.65 20.25 -12.2 15.2 -9.7 10.8 -7.2 6.45 -4.2 2.3 -8.75 3.55 -13.4 3.5 L-19.0 2.65 Q-21.0 2.35 -22.8 1.55 -26.7 0.0 -28.15 -4.15 -29.0 -6.65 -28.95 -9.15 L-28.55 -13.1 Q-26.65 -23.45 -21.1 -32.3 -18.0 -37.3 -13.95 -41.65 -12.3 -43.35 -10.35 -44.5 -8.75 -45.55 -6.8 -46.05 -4.85 -45.7 -3.0 -45.0 0.45 -43.9 1.0 -40.25 L-6.15 -20.0 -5.7 -19.5 21.15 -26.05 Q24.25 -18.4 26.45 -10.5" fill="#000000" fill-rule="evenodd" stroke="none"/>
    <path d="M-4.2 -43.9 L-4.35 -43.7 Q-5.05 -42.05 -6.05 -40.55 -11.4 -32.7 -14.1 -23.55 -15.1 -20.1 -15.05 -16.5 -15.0 -13.65 -12.55 -12.5 -3.65 -8.5 5.95 -10.4 L9.45 -11.1 Q13.55 -12.0 17.45 -13.5 17.8 -13.45 17.75 -12.0 17.7 -11.25 17.95 -10.5 19.4 -6.4 19.45 -2.0 18.3 0.05 17.0 1.55 14.2 4.8 12.75 8.95 L11.7 12.1 Q11.2 13.5 11.0 15.0 9.75 25.15 12.7 34.9 13.2 36.5 14.05 37.95 L14.45 38.55 12.9 40.1 Q9.95 42.9 6.45 44.35 4.8 40.85 4.15 36.95 3.25 31.4 4.9 26.05 6.05 22.4 7.5 18.85 5.5 20.0 4.5 22.05 2.6 25.8 2.2 29.95 1.45 37.45 5.1 44.2 L2.2 43.05 Q0.0 42.2 -1.85 40.9 -5.55 38.15 -7.3 33.85 -8.1 31.85 -8.15 29.75 -8.2 28.25 -7.9 26.8 -6.6 21.0 -4.15 15.65 L-6.0 17.65 Q-7.8 19.9 -8.55 22.5 -9.75 26.6 -9.65 30.65 L-9.7 30.65 Q-11.0 27.3 -11.05 23.7 -11.2 16.2 -7.6 9.6 L-6.85 8.45 Q-4.45 5.5 -2.65 1.95 5.4 0.1 12.85 -3.6 L13.0 -4.0 Q13.1 -4.45 12.85 -4.6 L10.5 -4.35 Q3.6 -1.5 -3.65 0.2 -10.95 1.9 -18.45 1.1 -20.95 0.85 -23.0 -0.6 -28.0 -4.15 -27.35 -10.35 -26.95 -14.0 -26.05 -17.55 -24.15 -24.75 -20.1 -30.95 -16.0 -37.25 -10.6 -42.35 -9.75 -43.15 -9.65 -43.85 -7.0 -44.8 -4.3 -43.95 L-4.25 -43.9 -4.2 -43.9" fill="#0ecfe4" fill-rule="evenodd" stroke="none"/>
    <path d="M14.45 38.55 L14.05 37.95 Q13.2 36.5 12.7 34.9 9.75 25.15 11.0 15.0 11.2 13.5 11.7 12.1 L12.75 8.95 Q14.2 4.8 17.0 1.55 18.3 0.05 19.45 -2.0 19.4 -6.4 17.95 -10.5 17.7 -11.25 17.75 -12.0 17.8 -13.45 17.45 -13.5 13.55 -12.0 9.45 -11.1 L5.95 -10.4 Q-3.65 -8.5 -12.55 -12.5 -15.0 -13.65 -15.05 -16.5 -15.1 -20.1 -14.1 -23.55 -11.4 -32.7 -6.05 -40.55 -5.05 -42.05 -4.35 -43.7 L-4.2 -43.9 Q-2.25 -43.3 -1.0 -41.55 L-0.25 -40.4 Q-1.85 -36.2 -4.0 -32.25 -7.3 -26.05 -7.8 -19.05 L-6.95 -17.95 Q-3.5 -17.45 -0.05 -18.6 L6.55 -20.6 Q13.15 -22.8 20.0 -24.3 21.35 -18.95 23.45 -13.95 26.4 -6.75 27.0 0.95 27.25 4.0 27.0 7.1 L26.05 14.55 Q25.45 18.2 23.95 21.75 20.2 30.7 14.45 38.55" fill="#0db5c8" fill-rule="evenodd" stroke="none"/>
  </g>
</svg>
