<?xml version="1.0" encoding="UTF-8" standalone="no"?>
<svg xmlns:xlink="http://www.w3.org/1999/xlink" height="60.7px" width="96.65px" xmlns="http://www.w3.org/2000/svg">
  <g transform="matrix(1.0, 0.0, 0.0, 1.0, 48.3, 30.2)">
    <path d="M16.65 -27.4 L-0.05 -28.25 Q-9.15 -27.55 -18.15 -25.6 -27.1 -23.55 -35.65 -20.25 L-32.1 -8.0 -35.05 -12.8 -35.7 -12.85 -36.05 -14.15 -46.35 -8.0 Q-44.8 -2.0 -41.8 3.5 -40.05 6.8 -37.35 9.3 L-32.4 13.25 Q-29.7 15.05 -26.65 16.25 -21.25 18.55 -15.6 19.1 L-5.4 20.3 -5.6 18.6 -5.2 18.05 -7.25 2.65 -14.4 1.1 -18.45 -0.3 Q-19.85 -0.95 -20.5 -2.45 L-20.5 -2.55 Q-17.55 -0.95 -14.55 0.0 -10.65 1.15 -6.8 1.15 L-4.35 1.3 Q-0.75 1.8 2.9 1.45 L3.35 2.2 2.9 2.95 -5.9 2.8 -2.65 24.15 Q3.5 26.2 9.8 27.6 L17.05 28.5 Q24.05 27.65 30.85 25.6 35.7 23.95 40.2 21.65 L46.2 18.3 41.65 5.1 Q41.35 4.25 41.45 3.35 L43.05 -6.3 Q44.3 -12.75 44.8 -19.4 L34.95 -23.1 Q26.0 -26.2 16.65 -27.4 M39.25 -23.4 L44.9 -21.5 46.7 -18.8 Q45.65 -8.55 43.8 1.65 43.3 4.25 44.2 6.9 L48.35 18.7 Q43.8 22.45 38.65 25.1 33.5 27.7 27.7 29.05 17.85 31.55 8.05 29.75 5.8 29.45 3.7 28.75 1.6 28.05 -0.4 27.15 L-4.35 25.05 -4.9 22.1 -19.5 20.75 Q-24.05 20.15 -28.1 18.2 -36.8 14.0 -42.45 6.1 -44.7 2.95 -46.15 -0.8 -47.55 -4.55 -48.3 -8.5 L-42.1 -12.45 -39.2 -14.05 -36.3 -15.45 -36.6 -20.1 -37.05 -20.2 -36.45 -21.0 Q-34.3 -21.8 -32.2 -22.7 -25.6 -25.8 -18.6 -27.7 -11.1 -29.75 -3.5 -29.85 8.4 -30.95 20.05 -28.5 29.85 -26.55 39.25 -23.4" fill="#000000" fill-rule="evenodd" stroke="none"/>
    <path d="M16.65 -27.4 Q26.0 -26.2 34.95 -23.1 L44.8 -19.4 Q44.3 -12.75 43.05 -6.3 L41.45 3.35 Q41.35 4.25 41.65 5.1 L46.2 18.3 40.2 21.65 Q35.7 23.95 30.85 25.6 24.05 27.65 17.05 28.5 L9.8 27.6 Q3.5 26.2 -2.65 24.15 L-5.9 2.8 2.9 2.95 3.35 2.2 2.9 1.45 Q-0.75 1.8 -4.35 1.3 L-6.8 1.15 Q-10.65 1.15 -14.55 0.0 -17.55 -0.95 -20.5 -2.55 L-20.5 -2.45 Q-19.85 -0.95 -18.45 -0.3 L-14.4 1.1 -7.25 2.65 -5.2 18.05 -5.6 18.6 -5.4 20.3 -15.6 19.1 Q-21.25 18.55 -26.65 16.25 -29.7 15.05 -32.4 13.25 L-37.35 9.3 Q-40.05 6.8 -41.8 3.5 -44.8 -2.0 -46.35 -8.0 L-36.05 -14.15 -35.7 -12.85 -35.05 -12.8 -32.1 -8.0 -35.65 -20.25 Q-27.1 -23.55 -18.15 -25.6 -9.15 -27.55 -0.05 -28.25 L16.65 -27.4" fill="#666666" fill-rule="evenodd" stroke="none"/>
  </g>
</svg>
