<?xml version="1.0" encoding="UTF-8" standalone="no"?>
<svg xmlns:xlink="http://www.w3.org/1999/xlink" height="56.75px" width="76.8px" xmlns="http://www.w3.org/2000/svg">
  <g transform="matrix(1.0, 0.0, 0.0, 1.0, 38.25, 28.25)">
    <path d="M15.7 -2.2 L17.2 -1.55 Q23.2 10.8 15.0 21.15 14.1 22.3 12.6 22.8 3.05 25.5 -2.25 16.1 -5.0 11.25 -8.55 6.7 -14.1 -0.4 -23.45 -0.2 L-30.15 0.25 Q-32.95 0.0 -35.15 -1.75 -38.55 -13.2 -29.2 -20.75 -22.25 -26.45 -13.15 -24.75 0.55 -22.25 7.25 -10.1 10.1 -4.65 15.7 -2.2 M-14.6 4.2 L-11.65 6.75 -7.25 14.1 Q-11.0 13.55 -14.45 15.05 -22.05 18.35 -24.35 11.1 -24.75 9.85 -23.75 8.75 -20.25 4.95 -14.6 4.2 M-8.35 -15.1 L-6.85 -13.95 Q-0.85 -8.8 2.35 -1.45 L-8.6 -12.35 -8.35 -15.1 M2.85 0.75 Q3.6 1.4 4.6 1.3 2.9 -3.8 0.25 -8.3 -3.2 -14.2 -9.2 -15.85 L-9.4 -12.4 -9.9 -11.65 2.85 0.75 M20.55 -2.05 L21.65 -2.55 Q33.45 0.05 34.4 11.7 35.1 20.8 26.6 23.8 22.65 25.15 19.15 22.85 25.25 11.05 20.55 -2.05" fill="#ffffff" fill-rule="evenodd" stroke="none"/>
    <path d="M22.45 -6.55 Q33.95 -4.5 37.45 6.6 41.15 18.25 32.15 25.75 26.85 30.15 20.2 27.55 17.8 26.7 15.95 25.15 5.95 29.2 -1.7 22.05 -3.85 20.1 -5.3 17.5 -11.9 17.2 -18.25 18.95 -20.05 19.4 -21.8 18.55 -28.95 15.25 -26.8 7.35 -26.5 6.3 -25.7 5.75 -22.75 3.8 -19.55 2.25 -27.65 2.3 -35.4 0.5 -36.5 0.3 -36.9 -0.85 -41.95 -16.45 -28.25 -25.45 -23.9 -28.3 -18.55 -28.25 -1.5 -28.05 7.65 -13.4 13.1 -4.75 22.45 -6.55 M15.7 -2.2 Q10.1 -4.65 7.25 -10.1 0.55 -22.25 -13.15 -24.75 -22.25 -26.45 -29.2 -20.75 -38.55 -13.2 -35.15 -1.75 -32.95 0.0 -30.15 0.25 L-23.45 -0.2 Q-14.1 -0.4 -8.55 6.7 -5.0 11.25 -2.25 16.1 3.05 25.5 12.6 22.8 14.1 22.3 15.0 21.15 23.2 10.8 17.2 -1.55 L15.7 -2.2 M20.55 -2.05 Q25.25 11.05 19.15 22.85 22.65 25.15 26.6 23.8 35.1 20.8 34.4 11.7 33.45 0.05 21.65 -2.55 L20.55 -2.05 M2.85 0.75 L-9.9 -11.65 -9.4 -12.4 -9.2 -15.85 Q-3.2 -14.2 0.25 -8.3 2.9 -3.8 4.6 1.3 3.6 1.4 2.85 0.75 M-8.35 -15.1 L-8.6 -12.35 2.35 -1.45 Q-0.85 -8.8 -6.85 -13.95 L-8.35 -15.1 M-14.6 4.2 Q-20.25 4.95 -23.75 8.75 -24.75 9.85 -24.35 11.1 -22.05 18.35 -14.45 15.05 -11.0 13.55 -7.25 14.1 L-11.65 6.75 -14.6 4.2" fill="#999999" fill-rule="evenodd" stroke="none"/>
  </g>
</svg>
