<?xml version="1.0" encoding="UTF-8" standalone="no"?>
<svg xmlns:xlink="http://www.w3.org/1999/xlink" height="60.55px" width="88.15px" xmlns="http://www.w3.org/2000/svg">
  <g transform="matrix(1.0, 0.0, 0.0, 1.0, 44.15, 30.2)">
    <path d="M39.85 -6.25 Q41.7 -9.55 42.45 -13.35 42.8 -15.3 42.7 -17.5 42.65 -19.0 41.7 -20.05 39.6 -22.15 36.6 -22.85 27.2 -26.55 17.15 -27.8 7.15 -28.75 -2.7 -28.25 -10.4 -27.7 -18.15 -25.9 L-27.05 -23.4 -33.6 -21.25 -33.2 -20.8 -33.4 -20.3 Q-30.65 -12.8 -26.1 -6.25 -22.75 -1.4 -18.05 2.25 L-16.7 -7.0 -16.4 -6.6 Q-15.45 6.45 -21.05 17.95 -19.05 19.9 -16.75 21.7 -13.05 24.4 -8.6 25.9 -3.55 27.7 1.85 28.15 11.6 28.5 21.15 26.4 L26.1 24.8 Q31.35 22.9 36.15 19.75 36.8 10.15 35.75 0.75 L37.15 -1.55 39.85 -6.25 M17.15 -29.8 Q28.2 -28.65 38.1 -23.6 L44.0 -20.3 43.85 -13.45 43.4 -10.4 Q42.6 -6.75 40.75 -3.5 L37.85 1.65 Q38.45 7.4 38.4 13.2 38.4 16.8 37.5 20.25 37.1 21.7 36.05 22.7 34.5 24.1 32.7 24.95 25.2 28.55 17.05 29.75 9.05 30.75 1.2 30.15 L-5.85 28.9 -11.45 27.15 Q-18.15 24.3 -22.85 18.8 L-21.7 14.9 Q-23.8 14.75 -25.75 13.6 -29.0 11.55 -31.6 8.85 -36.15 4.0 -39.45 -1.95 L-40.0 -2.15 Q-42.15 -6.35 -43.2 -11.15 -44.15 -15.3 -43.55 -19.75 L-44.15 -19.9 -42.45 -21.25 -40.55 -21.95 -34.75 -22.0 -34.5 -22.35 Q-23.5 -27.0 -11.8 -28.8 2.6 -30.95 17.15 -29.8 M-31.0 -8.45 L-32.15 -10.45 -31.5 -10.2 -35.15 -20.35 -42.5 -19.9 Q-42.3 -12.3 -39.0 -5.45 -34.6 3.7 -27.2 10.3 -24.6 12.6 -21.05 13.2 L-18.4 4.05 -22.75 0.8 Q-25.85 -1.35 -28.05 -4.35 L-28.95 -5.65 -29.4 -5.8 -30.6 -8.35 -30.95 -8.3 -31.0 -8.45" fill="#000000" fill-rule="evenodd" stroke="none"/>
    <path d="M39.85 -6.25 L37.15 -1.55 35.75 0.75 Q36.8 10.15 36.15 19.75 31.35 22.9 26.1 24.8 L21.15 26.4 Q11.6 28.5 1.85 28.15 -3.55 27.7 -8.6 25.9 -13.05 24.4 -16.75 21.7 -19.05 19.9 -21.05 17.95 -15.45 6.45 -16.4 -6.6 L-16.7 -7.0 -18.05 2.25 Q-22.75 -1.4 -26.1 -6.25 -30.65 -12.8 -33.4 -20.3 L-33.2 -20.8 -33.6 -21.25 -27.05 -23.4 -18.15 -25.9 Q-10.4 -27.7 -2.7 -28.25 7.15 -28.75 17.15 -27.8 27.2 -26.55 36.6 -22.85 39.6 -22.15 41.7 -20.05 42.65 -19.0 42.7 -17.5 42.8 -15.3 42.45 -13.35 41.7 -9.55 39.85 -6.25 M-31.0 -8.45 L-30.95 -8.3 -30.6 -8.35 -29.4 -5.8 -28.95 -5.65 -28.05 -4.35 Q-25.85 -1.35 -22.75 0.8 L-18.4 4.05 -21.05 13.2 Q-24.6 12.6 -27.2 10.3 -34.6 3.7 -39.0 -5.45 -42.3 -12.3 -42.5 -19.9 L-35.15 -20.35 -31.5 -10.2 -32.15 -10.45 -31.0 -8.45" fill="#666666" fill-rule="evenodd" stroke="none"/>
  </g>
</svg>
