<?xml version="1.0" encoding="UTF-8" standalone="no"?>
<svg xmlns:xlink="http://www.w3.org/1999/xlink" height="129.1px" width="109.15px" xmlns="http://www.w3.org/2000/svg">
  <g transform="matrix(1.0, 0.0, 0.0, 1.0, 54.65, 64.45)">
    <path d="M41.0 -17.2 Q42.3 -19.8 41.55 -22.65 40.75 -25.8 38.35 -27.95 35.95 -30.1 32.55 -30.45 L27.55 -30.1 Q21.4 -29.4 15.65 -27.45 11.55 -26.0 7.35 -25.9 6.35 -26.3 6.4 -27.4 6.4 -28.25 6.8 -28.9 7.6 -30.3 8.75 -31.4 L13.2 -35.25 Q16.75 -36.25 18.7 -39.6 19.6 -41.2 19.4 -43.3 19.3 -44.15 18.5 -44.65 L18.55 -44.7 Q29.4 -42.95 38.15 -36.35 43.35 -32.5 46.9 -27.25 48.4 -25.05 49.2 -22.7 50.9 -17.4 50.8 -11.85 L50.75 -11.85 49.25 -13.05 Q45.5 -16.1 41.0 -17.2 M6.9 8.9 Q15.25 6.65 22.6 2.1 31.55 -3.3 38.2 -11.4 L39.0 -10.9 36.5 -7.4 Q33.85 -3.85 30.6 -1.15 L25.2 3.05 Q16.45 9.25 8.25 16.2 L8.3 14.05 Q8.1 11.3 6.9 8.9 M3.2 -41.75 L7.7 -42.15 7.75 -42.15 8.3 -40.75 Q8.55 -39.15 7.85 -38.05 5.9 -34.7 2.35 -33.1 L2.8 -33.8 Q4.65 -37.45 3.25 -41.55 L3.2 -41.75 M50.4 -0.15 Q49.5 4.6 46.95 8.9 43.75 14.35 39.05 18.4 34.3 22.55 28.2 24.4 L40.85 10.95 50.4 -0.15" fill="#0db5c8" fill-rule="evenodd" stroke="none"/>
    <path d="M50.8 -11.85 Q50.9 -17.4 49.2 -22.7 48.4 -25.05 46.9 -27.25 43.35 -32.5 38.15 -36.35 29.4 -42.95 18.55 -44.7 L18.35 -44.7 18.5 -44.65 Q19.3 -44.15 19.4 -43.3 19.6 -41.2 18.7 -39.6 16.75 -36.25 13.2 -35.25 L11.9 -35.1 12.75 -35.6 12.8 -36.1 13.5 -36.65 15.4 -38.45 Q17.55 -40.45 18.0 -43.2 L17.55 -44.35 17.85 -44.75 18.05 -44.75 17.85 -44.8 14.4 -44.85 Q10.5 -44.7 6.75 -43.7 L5.35 -43.3 6.8 -43.35 9.1 -42.95 Q9.9 -41.85 9.8 -40.3 9.7 -38.45 8.6 -36.95 6.55 -34.1 3.45 -32.35 L-15.25 -21.4 Q-17.2 -20.2 -18.55 -18.4 -17.4 -14.75 -15.05 -11.8 -13.0 -9.25 -10.2 -7.0 L-4.15 -2.75 Q2.95 1.7 6.9 8.9 8.1 11.3 8.3 14.05 L8.25 16.2 6.75 17.55 6.6 15.6 Q6.65 9.7 2.7 5.45 -0.95 1.6 -5.3 -1.4 L-14.35 -8.3 Q-16.5 -10.15 -18.0 -12.8 -20.4 -17.05 -20.2 -21.9 L-19.65 -25.45 Q-18.55 -29.45 -15.85 -32.75 L-15.9 -34.05 Q-16.2 -38.65 -19.2 -42.1 -21.4 -44.35 -24.0 -45.8 -25.3 -46.5 -26.7 -46.85 -34.1 -49.0 -41.1 -45.35 L-44.4 -43.25 Q-48.1 -40.45 -50.05 -36.35 -52.45 -31.15 -52.4 -25.4 -52.4 -23.1 -52.0 -20.9 -51.7 -19.15 -50.75 -17.55 -49.3 -15.0 -46.8 -13.1 -43.25 -10.25 -38.8 -9.05 -30.75 -6.8 -23.0 -3.15 -19.2 -1.3 -17.25 2.5 -15.8 5.35 -15.95 8.55 -16.05 11.15 -17.7 13.25 L-19.45 15.45 -20.25 15.3 Q-21.05 9.6 -25.6 6.45 -29.3 3.85 -33.05 1.4 -37.95 -1.7 -42.1 -5.25 L-45.25 -8.55 -48.8 -12.45 Q-51.55 -15.25 -52.7 -19.05 L-52.9 -16.7 -53.25 -18.05 Q-53.3 -15.15 -52.7 -12.15 L-51.7 -8.65 -50.15 -5.95 Q-45.9 -0.55 -40.95 3.85 -36.5 7.9 -32.4 12.4 -28.5 16.7 -24.3 20.45 -21.35 23.15 -17.7 25.3 -12.95 27.95 -7.7 29.1 L-9.4 30.35 Q-15.9 28.3 -21.3 24.3 L-25.4 20.85 -34.0 12.5 -46.1 0.55 Q-49.45 -2.95 -52.05 -7.1 -53.6 -9.6 -54.15 -12.4 L-54.45 -14.65 Q-55.05 -22.45 -53.85 -30.1 -53.1 -34.8 -50.7 -38.65 -48.65 -42.0 -45.9 -44.8 -46.75 -49.65 -45.05 -54.35 -42.85 -60.6 -36.85 -63.3 -32.65 -65.15 -28.05 -64.05 -24.8 -63.25 -22.25 -60.85 -18.4 -57.05 -18.15 -51.65 -17.95 -47.95 -19.75 -44.95 L-18.5 -43.5 -16.5 -40.55 Q-15.5 -38.8 -14.85 -36.9 L-14.25 -34.65 Q-6.5 -40.8 2.75 -43.8 8.3 -45.6 14.15 -46.1 18.8 -46.6 23.15 -45.45 33.65 -42.8 41.4 -35.5 L44.4 -32.25 47.7 -27.85 Q49.1 -25.7 50.1 -23.35 51.05 -21.05 51.35 -18.55 L52.0 -10.35 50.8 -11.75 50.8 -11.85 M2.1 -38.85 L1.55 -41.1 -6.75 -37.9 Q-11.05 -36.1 -14.3 -33.0 L-14.35 -32.4 -15.0 -32.3 -15.9 -30.65 -13.5 -32.3 -12.95 -32.3 -12.25 -32.75 -10.75 -32.0 -10.7 -34.2 Q-6.95 -36.9 -2.5 -38.5 L-1.4 -36.3 -2.15 -35.2 Q-4.35 -32.65 -7.1 -30.75 -12.45 -27.1 -18.4 -25.3 L-18.8 -19.75 Q-17.15 -21.65 -15.1 -23.1 -10.6 -26.25 -5.75 -28.55 -2.05 -30.3 0.4 -33.3 1.5 -34.65 1.95 -36.35 L2.1 -38.85 M3.2 -41.75 L3.0 -41.7 3.25 -41.55 Q4.65 -37.45 2.8 -33.8 L2.35 -33.1 Q5.9 -34.7 7.85 -38.05 8.55 -39.15 8.3 -40.75 L7.75 -42.15 7.7 -42.15 3.2 -41.75 M35.55 -15.95 Q41.35 -16.8 46.55 -13.2 L49.0 -11.3 Q51.85 -8.7 52.85 -5.0 39.8 10.75 25.5 25.2 L15.95 34.3 10.25 39.55 -5.35 54.45 Q-8.45 57.4 -11.9 59.95 L-14.5 61.7 Q-17.65 63.6 -21.15 62.55 -24.95 61.4 -26.1 57.5 -27.5 52.6 -24.55 48.25 -22.95 45.9 -21.0 43.9 L-12.35 35.15 Q-8.85 31.9 -4.95 29.25 L1.3 24.55 7.7 19.2 Q18.2 10.0 29.4 1.7 L35.05 -3.0 Q38.9 -6.65 40.5 -11.8 L41.05 -14.3 39.55 -12.6 35.55 -15.95 M51.5 -1.55 Q51.6 1.0 51.0 3.1 49.9 6.95 47.85 10.35 45.1 15.05 40.95 18.7 36.7 22.3 31.65 24.8 28.75 26.25 26.05 26.5 25.95 26.15 26.1 26.05 27.0 25.1 28.2 24.4 34.3 22.55 39.05 18.4 43.75 14.35 46.95 8.9 49.5 4.6 50.4 -0.15 L51.3 -2.45 51.5 -1.55 M-29.45 -62.7 L-30.8 -62.8 Q-32.1 -62.5 -33.2 -61.75 L-33.9 -61.1 -33.3 -60.05 Q-28.2 -60.85 -24.55 -57.45 -23.1 -56.15 -22.75 -54.3 -22.1 -50.6 -23.4 -46.95 L-22.15 -46.05 Q-19.75 -47.4 -19.4 -50.05 -18.7 -55.15 -21.95 -59.0 -23.9 -61.2 -26.55 -61.95 L-29.45 -62.7 M-42.1 -35.5 Q-41.7 -35.9 -41.15 -35.9 -40.6 -35.9 -40.2 -35.5 -39.8 -35.1 -39.8 -34.55 -39.8 -34.0 -40.2 -33.6 -40.6 -33.2 -41.15 -33.2 -41.7 -33.2 -42.1 -33.6 -42.5 -34.0 -42.5 -34.55 -42.5 -35.1 -42.1 -35.5 M-46.55 -11.4 Q-44.3 -8.1 -41.05 -5.6 L-39.9 -4.7 Q-38.55 -5.75 -37.95 -7.15 -42.6 -8.65 -46.55 -11.4 M-37.0 -31.45 Q-36.65 -31.85 -36.15 -31.85 -35.65 -31.85 -35.25 -31.45 -34.9 -31.1 -34.9 -30.6 -34.9 -30.1 -35.25 -29.7 -35.65 -29.35 -36.15 -29.35 -36.65 -29.35 -37.0 -29.7 -37.4 -30.1 -37.4 -30.6 -37.4 -31.1 -37.0 -31.45 M-33.95 -38.4 L-33.2 -38.7 Q-32.75 -38.7 -32.45 -38.4 -32.15 -38.1 -32.15 -37.65 -32.15 -37.2 -32.45 -36.9 -32.75 -36.6 -33.2 -36.6 -33.65 -36.6 -33.95 -36.9 -34.25 -37.2 -34.25 -37.65 L-33.95 -38.4 M-37.4 -42.6 Q-36.95 -43.0 -36.25 -43.0 -35.55 -43.0 -35.05 -42.6 -34.6 -42.2 -34.6 -41.6 -34.6 -41.0 -35.05 -40.6 -35.55 -40.2 -36.25 -40.2 -36.95 -40.2 -37.4 -40.6 -37.9 -41.0 -37.9 -41.6 -37.9 -42.2 -37.4 -42.6 M-18.25 10.7 L-20.0 10.7 -19.15 13.05 -18.25 10.7 M-18.9 2.15 L-19.9 0.95 Q-21.05 4.1 -24.15 5.7 L-20.4 9.85 -17.45 8.85 Q-16.95 5.2 -18.9 2.15 M-36.8 -6.8 L-38.9 -4.0 -33.65 -0.55 -29.95 -4.75 -36.8 -6.8 M-31.55 -0.9 L-32.9 -0.1 -24.9 5.1 -20.95 -0.1 Q-23.25 -2.05 -26.15 -3.35 L-28.7 -4.35 Q-29.15 -2.85 -30.35 -1.8 L-31.55 -0.9" fill="#000000" fill-rule="evenodd" stroke="none"/>
    <path d="M13.2 -35.25 L8.75 -31.4 Q7.6 -30.3 6.8 -28.9 6.4 -28.25 6.4 -27.4 6.35 -26.3 7.35 -25.9 11.55 -26.0 15.65 -27.45 21.4 -29.4 27.55 -30.1 L32.55 -30.45 Q35.95 -30.1 38.35 -27.95 40.75 -25.8 41.55 -22.65 42.3 -19.8 41.0 -17.2 37.8 -18.25 35.0 -16.8 L34.35 -15.95 34.5 -15.7 34.55 -15.45 Q36.0 -13.0 38.2 -11.4 31.55 -3.3 22.6 2.1 15.25 6.65 6.9 8.9 2.95 1.7 -4.15 -2.75 L-10.2 -7.0 Q-13.0 -9.25 -15.05 -11.8 -17.4 -14.75 -18.55 -18.4 -17.2 -20.2 -15.25 -21.4 L3.45 -32.35 Q6.55 -34.1 8.6 -36.95 9.7 -38.45 9.8 -40.3 9.9 -41.85 9.1 -42.95 L6.8 -43.35 6.75 -43.7 Q10.5 -44.7 14.4 -44.85 L17.85 -44.8 17.85 -44.75 17.55 -44.35 18.0 -43.2 Q17.55 -40.45 15.4 -38.45 L13.5 -36.65 12.8 -36.1 12.75 -35.6 11.9 -35.1 13.2 -35.25" fill="#0ecfe4" fill-rule="evenodd" stroke="none"/>
    <path d="M2.1 -38.85 L1.95 -36.35 Q1.5 -34.65 0.4 -33.3 -2.05 -30.3 -5.75 -28.55 -10.6 -26.25 -15.1 -23.1 -17.15 -21.65 -18.8 -19.75 L-18.4 -25.3 Q-12.45 -27.1 -7.1 -30.75 -4.35 -32.65 -2.15 -35.2 L-1.4 -36.3 -2.5 -38.5 Q-6.95 -36.9 -10.7 -34.2 L-10.75 -32.0 -12.25 -32.75 -12.95 -32.3 -13.5 -32.3 -15.9 -30.65 -15.0 -32.3 -14.35 -32.4 -14.3 -33.0 Q-11.05 -36.1 -6.75 -37.9 L1.55 -41.1 2.1 -38.85 M-46.55 -11.4 Q-42.6 -8.65 -37.95 -7.15 -38.55 -5.75 -39.9 -4.7 L-41.05 -5.6 Q-44.3 -8.1 -46.55 -11.4 M-31.55 -0.9 L-30.35 -1.8 Q-29.15 -2.85 -28.7 -4.35 L-26.15 -3.35 Q-23.25 -2.05 -20.95 -0.1 L-24.9 5.1 -32.9 -0.1 -31.55 -0.9 M-36.8 -6.8 L-29.95 -4.75 -33.65 -0.55 -38.9 -4.0 -36.8 -6.8 M-18.9 2.15 Q-16.95 5.2 -17.45 8.85 L-20.4 9.85 -24.15 5.7 Q-21.05 4.1 -19.9 0.95 L-18.9 2.15 M-18.25 10.7 L-19.15 13.05 -20.0 10.7 -18.25 10.7" fill="#ffffff" fill-rule="evenodd" stroke="none"/>
    <path d="M41.0 -17.2 Q45.5 -16.1 49.25 -13.05 L50.75 -11.85 50.8 -11.75 52.0 -10.35 Q53.4 -8.35 53.85 -6.0 L54.35 -5.95 54.5 -5.65 51.5 -1.55 51.3 -2.45 50.4 -0.15 40.85 10.95 28.2 24.4 Q27.0 25.1 26.1 26.05 25.95 26.15 26.05 26.5 L21.7 30.55 21.1 31.05 Q11.7 40.85 1.85 49.95 L-4.8 56.45 Q-9.7 61.45 -16.05 64.4 L-16.35 64.05 Q-18.75 65.05 -21.15 64.4 -24.5 63.5 -26.55 60.8 -28.3 58.55 -28.35 55.7 -28.4 48.75 -23.9 43.5 -17.5 36.05 -9.4 30.35 L-7.7 29.1 1.2 22.8 6.75 17.55 8.25 16.2 Q16.45 9.25 25.2 3.05 L30.6 -1.15 Q33.85 -3.85 36.5 -7.4 L39.0 -10.9 38.2 -11.4 Q36.0 -13.0 34.55 -15.45 L34.5 -15.7 34.35 -15.95 35.0 -16.8 Q37.8 -18.25 41.0 -17.2 M35.55 -15.95 L39.55 -12.6 41.05 -14.3 40.5 -11.8 Q38.9 -6.65 35.05 -3.0 L29.4 1.7 Q18.2 10.0 7.7 19.2 L1.3 24.55 -4.95 29.25 Q-8.85 31.9 -12.35 35.15 L-21.0 43.9 Q-22.95 45.9 -24.55 48.25 -27.5 52.6 -26.1 57.5 -24.95 61.4 -21.15 62.55 -17.65 63.6 -14.5 61.7 L-11.9 59.95 Q-8.45 57.4 -5.35 54.45 L10.25 39.55 15.95 34.3 25.5 25.2 Q39.8 10.75 52.85 -5.0 51.85 -8.7 49.0 -11.3 L46.55 -13.2 Q41.35 -16.8 35.55 -15.95 M-29.45 -62.7 L-26.55 -61.95 Q-23.9 -61.2 -21.95 -59.0 -18.7 -55.15 -19.4 -50.05 -19.75 -47.4 -22.15 -46.05 L-23.4 -46.95 Q-22.1 -50.6 -22.75 -54.3 -23.1 -56.15 -24.55 -57.45 -28.2 -60.85 -33.3 -60.05 L-33.9 -61.1 -33.2 -61.75 Q-32.1 -62.5 -30.8 -62.8 L-29.45 -62.7" fill="#999999" fill-rule="evenodd" stroke="none"/>
    <path d="M-19.2 -42.1 Q-16.2 -38.65 -15.9 -34.05 L-15.85 -32.75 Q-18.55 -29.45 -19.65 -25.45 L-20.2 -21.9 Q-20.4 -17.05 -18.0 -12.8 -16.5 -10.15 -14.35 -8.3 L-5.3 -1.4 Q-0.95 1.6 2.7 5.45 6.65 9.7 6.6 15.6 L6.75 17.55 1.2 22.8 Q1.05 17.45 -1.5 12.7 -5.65 4.95 -12.5 -0.7 -17.95 -5.1 -22.65 -10.05 -26.35 -14.0 -27.7 -19.35 -28.15 -21.2 -28.0 -23.1 -27.8 -26.15 -27.2 -29.1 -25.5 -37.1 -19.2 -42.1" fill="#c19f79" fill-rule="evenodd" stroke="none"/>
    <path d="M-7.7 29.1 Q-12.95 27.95 -17.7 25.3 -21.35 23.15 -24.3 20.45 -28.5 16.7 -32.4 12.4 -36.5 7.9 -40.95 3.85 -45.9 -0.55 -50.15 -5.95 L-51.7 -8.65 -52.7 -12.15 Q-53.3 -15.15 -53.25 -18.05 L-52.9 -16.7 -52.7 -19.05 Q-51.55 -15.25 -48.8 -12.45 L-45.25 -8.55 -42.1 -5.25 Q-37.95 -1.7 -33.05 1.4 -29.3 3.85 -25.6 6.45 -21.05 9.6 -20.25 15.3 L-19.45 15.45 -17.7 13.25 Q-16.05 11.15 -15.95 8.55 -15.8 5.35 -17.25 2.5 -19.2 -1.3 -23.0 -3.15 -30.75 -6.8 -38.8 -9.05 -43.25 -10.25 -46.8 -13.1 -49.3 -15.0 -50.75 -17.55 -51.7 -19.15 -52.0 -20.9 -52.4 -23.1 -52.4 -25.4 -52.45 -31.15 -50.05 -36.35 -48.1 -40.45 -44.4 -43.25 L-41.1 -45.35 Q-34.1 -49.0 -26.7 -46.85 -25.3 -46.5 -24.0 -45.8 -21.4 -44.35 -19.2 -42.1 -25.5 -37.1 -27.2 -29.1 -27.8 -26.15 -28.0 -23.1 -28.15 -21.2 -27.7 -19.35 -26.35 -14.0 -22.65 -10.05 -17.95 -5.1 -12.5 -0.7 -5.65 4.95 -1.5 12.7 1.05 17.45 1.2 22.8 L-7.7 29.1 M-42.1 -35.5 Q-42.5 -35.1 -42.5 -34.55 -42.5 -34.0 -42.1 -33.6 -41.7 -33.2 -41.15 -33.2 -40.6 -33.2 -40.2 -33.6 -39.8 -34.0 -39.8 -34.55 -39.8 -35.1 -40.2 -35.5 -40.6 -35.9 -41.15 -35.9 -41.7 -35.9 -42.1 -35.5 M-37.4 -42.6 Q-37.9 -42.2 -37.9 -41.6 -37.9 -41.0 -37.4 -40.6 -36.95 -40.2 -36.25 -40.2 -35.55 -40.2 -35.05 -40.6 -34.6 -41.0 -34.6 -41.6 -34.6 -42.2 -35.05 -42.6 -35.55 -43.0 -36.25 -43.0 -36.95 -43.0 -37.4 -42.6 M-33.95 -38.4 L-34.25 -37.65 Q-34.25 -37.2 -33.95 -36.9 -33.65 -36.6 -33.2 -36.6 -32.75 -36.6 -32.45 -36.9 -32.15 -37.2 -32.15 -37.65 -32.15 -38.1 -32.45 -38.4 -32.75 -38.7 -33.2 -38.7 L-33.95 -38.4 M-37.0 -31.45 Q-37.4 -31.1 -37.4 -30.6 -37.4 -30.1 -37.0 -29.7 -36.65 -29.35 -36.15 -29.35 -35.65 -29.35 -35.25 -29.7 -34.9 -30.1 -34.9 -30.6 -34.9 -31.1 -35.25 -31.45 -35.65 -31.85 -36.15 -31.85 -36.65 -31.85 -37.0 -31.45" fill="#a88b69" fill-rule="evenodd" stroke="none"/>
  </g>
</svg>
