<?xml version="1.0" encoding="UTF-8" standalone="no"?>
<svg xmlns:xlink="http://www.w3.org/1999/xlink" height="54.25px" width="56.05px" xmlns="http://www.w3.org/2000/svg">
  <g transform="matrix(1.0, 0.0, 0.0, 1.0, 14.5, 82.1)">
    <path d="M29.7 -82.05 Q28.45 -81.8 27.75 -80.55 L26.65 -79.25 25.95 -78.35 25.75 -78.35 25.7 -78.35 25.6 -78.4 25.35 -78.45 Q20.9 -77.8 17.05 -75.5 13.25 -73.2 9.8 -70.4 L2.75 -65.0 -4.45 -59.65 Q-7.95 -56.9 -12.2 -55.5 L-13.95 -54.7 -14.25 -54.5 Q-14.55 -54.15 -14.45 -53.8 L-14.25 -53.45 -13.9 -52.25 Q-11.7 -48.4 -8.65 -45.2 L-7.2 -43.7 Q-0.75 -36.7 8.45 -35.1 L10.5 -34.85 18.4 -28.05 19.2 -27.9 Q21.2 -27.75 23.05 -28.5 25.05 -29.4 26.9 -30.65 31.4 -33.8 34.75 -38.0 L35.0 -38.35 Q38.05 -41.9 40.05 -46.25 L40.55 -47.6 Q41.15 -49.15 41.35 -50.8 41.9 -54.2 41.1 -57.6 L39.75 -58.1 39.35 -58.15 39.45 -58.3 Q39.1 -58.35 38.8 -58.5 40.05 -60.55 39.75 -63.1 L39.55 -64.85 39.5 -65.2 Q39.15 -68.2 38.05 -71.2 L37.3 -73.2 37.4 -73.5 Q35.3 -78.2 31.35 -81.1 L30.3 -81.7 30.45 -82.05 29.7 -82.05 M30.4 -72.45 L26.9 -77.9 29.85 -81.25 Q33.45 -78.4 35.5 -74.25 37.45 -70.4 38.2 -66.0 L38.65 -62.8 Q38.8 -60.65 37.75 -58.8 L36.0 -59.45 35.0 -59.8 32.4 -60.9 32.45 -64.2 32.45 -65.1 32.2 -67.7 31.7 -69.55 31.75 -69.8 31.65 -69.9 31.0 -71.3 31.15 -71.45 31.1 -71.55 30.55 -72.85 30.4 -72.45 M22.7 -75.6 L22.7 -75.55 22.8 -75.6 22.7 -75.6 M28.2 -73.75 Q29.55 -71.2 30.5 -68.45 L31.35 -63.65 31.35 -62.85 31.4 -62.8 31.4 -61.4 27.1 -64.0 26.7 -64.2 26.5 -64.2 26.5 -63.95 26.8 -63.65 27.1 -63.35 29.35 -61.65 29.4 -61.65 29.4 -61.6 Q31.25 -60.35 33.25 -59.35 34.3 -58.8 35.4 -58.3 L40.05 -57.05 40.2 -54.45 Q40.3 -52.9 40.0 -51.25 39.5 -48.1 38.05 -45.2 36.9 -42.75 35.2 -40.65 L32.0 -37.0 Q29.8 -34.6 27.2 -32.55 25.0 -30.85 22.4 -29.95 L19.75 -29.05 16.6 -31.35 10.85 -36.25 5.55 -37.0 Q0.9 -37.75 -2.2 -41.25 L-2.2 -40.7 -7.2 -45.3 -11.2 -50.15 -13.35 -53.6 -13.25 -53.75 -13.1 -53.9 Q-8.6 -55.35 -4.6 -58.05 -2.55 -59.45 -0.55 -60.95 L6.85 -66.65 12.8 -71.15 16.75 -73.9 Q19.2 -75.5 21.9 -76.6 L24.8 -77.6 Q25.35 -77.65 25.6 -77.35 L25.9 -77.5 26.0 -77.15 26.3 -77.05 28.2 -73.75" fill="#000000" fill-rule="evenodd" stroke="none"/>
    <path d="M30.4 -72.45 L30.55 -72.85 31.1 -71.55 31.15 -71.45 31.0 -71.3 31.65 -69.9 31.75 -69.8 31.7 -69.55 32.2 -67.7 32.45 -65.1 32.45 -64.2 32.4 -60.9 35.0 -59.8 36.0 -59.45 37.75 -58.8 Q38.8 -60.65 38.65 -62.8 L38.2 -66.0 Q37.45 -70.4 35.5 -74.25 33.45 -78.4 29.85 -81.25 L26.9 -77.9 30.4 -72.45 M28.2 -73.75 L26.3 -77.05 26.0 -77.15 25.9 -77.5 25.6 -77.35 Q25.35 -77.65 24.8 -77.6 L21.9 -76.6 Q19.2 -75.5 16.75 -73.9 L12.8 -71.15 6.85 -66.65 -0.55 -60.95 Q-2.55 -59.45 -4.6 -58.05 -8.6 -55.35 -13.1 -53.9 L-13.25 -53.75 -13.35 -53.6 -11.2 -50.15 -7.2 -45.3 -2.2 -40.7 -2.2 -41.25 Q0.9 -37.75 5.55 -37.0 L10.85 -36.25 16.6 -31.35 19.75 -29.05 22.4 -29.95 Q25.0 -30.85 27.2 -32.55 29.8 -34.6 32.0 -37.0 L35.2 -40.65 Q36.9 -42.75 38.05 -45.2 39.5 -48.1 40.0 -51.25 40.3 -52.9 40.2 -54.45 L40.05 -57.05 35.4 -58.3 Q34.3 -58.8 33.25 -59.35 31.25 -60.35 29.4 -61.6 L29.4 -61.65 29.35 -61.65 27.1 -63.35 26.8 -63.65 26.5 -63.95 26.5 -64.2 26.7 -64.2 27.1 -64.0 31.4 -61.4 31.4 -62.8 31.35 -62.85 31.35 -63.65 30.5 -68.45 Q29.55 -71.2 28.2 -73.75 M22.7 -75.6 L22.8 -75.6 22.7 -75.55 22.7 -75.6" fill="#666666" fill-rule="evenodd" stroke="none"/>
  </g>
</svg>
