<?xml version="1.0" encoding="UTF-8" standalone="no"?>
<svg xmlns:xlink="http://www.w3.org/1999/xlink" height="54.55px" width="53.45px" xmlns="http://www.w3.org/2000/svg">
  <g transform="matrix(1.0, 0.0, 0.0, 1.0, 6.5, 59.95)">
    <path d="M23.95 -59.65 Q22.85 -58.95 22.7 -57.55 L22.15 -55.95 21.85 -54.8 21.65 -54.75 21.6 -54.7 21.5 -54.7 21.3 -54.7 Q17.4 -52.45 14.7 -48.85 12.05 -45.3 9.9 -41.4 L5.35 -33.75 0.75 -26.15 Q-1.5 -22.25 -4.9 -19.45 L-6.25 -17.95 -6.45 -17.7 -6.35 -17.0 -6.05 -16.7 -5.25 -15.75 Q-1.75 -13.0 2.3 -11.2 L4.2 -10.35 Q12.75 -6.25 21.85 -8.25 L23.85 -8.75 33.7 -5.4 34.6 -5.6 Q36.5 -6.2 37.85 -7.55 L40.6 -11.0 Q43.6 -15.6 45.15 -20.75 L45.25 -21.15 Q46.7 -25.65 46.95 -30.4 L46.9 -31.85 Q46.9 -33.45 46.5 -35.1 45.65 -38.5 43.7 -41.3 L42.25 -41.25 41.9 -41.15 41.9 -41.3 41.2 -41.2 Q41.6 -43.65 40.4 -45.9 L39.5 -47.45 39.35 -47.75 Q37.9 -50.35 35.75 -52.75 L34.3 -54.3 34.25 -54.65 Q30.6 -58.15 25.85 -59.4 L24.65 -59.6 24.65 -59.95 23.95 -59.65 M28.25 -51.05 L22.95 -54.75 24.35 -58.95 Q28.8 -57.7 32.25 -54.6 35.5 -51.8 37.85 -48.0 L39.45 -45.15 Q40.45 -43.25 40.15 -41.15 L38.25 -41.1 37.2 -41.05 34.35 -41.05 33.2 -44.15 32.85 -45.0 31.65 -47.3 30.45 -48.8 30.4 -49.1 30.3 -49.15 29.15 -50.2 29.25 -50.4 29.15 -50.45 28.2 -51.45 28.25 -51.05 M19.9 -51.05 L19.9 -51.0 20.0 -51.15 19.9 -51.05 M25.7 -51.4 L29.75 -47.35 32.4 -43.25 32.7 -42.5 32.75 -42.45 33.25 -41.15 28.3 -41.95 27.9 -42.0 27.7 -41.9 27.8 -41.7 28.15 -41.55 28.6 -41.35 31.25 -40.65 31.35 -40.65 31.35 -40.6 35.75 -40.0 38.15 -39.8 42.9 -40.4 44.0 -38.05 45.05 -35.0 Q45.75 -31.9 45.5 -28.7 45.35 -25.95 44.55 -23.4 L42.95 -18.8 Q41.8 -15.75 40.15 -12.9 38.8 -10.5 36.7 -8.7 L34.65 -6.85 30.8 -7.8 23.65 -10.15 18.45 -8.9 Q13.85 -7.85 9.7 -9.9 L9.85 -9.4 3.6 -11.8 -1.95 -14.8 -5.25 -17.2 -5.15 -17.4 -5.15 -17.55 Q-1.5 -20.55 1.2 -24.6 L3.85 -28.8 8.55 -36.8 12.4 -43.25 15.05 -47.25 Q16.75 -49.7 18.8 -51.65 L21.1 -53.7 21.95 -53.8 22.15 -54.05 22.35 -53.75 22.7 -53.75 25.7 -51.4" fill="#000000" fill-rule="evenodd" stroke="none"/>
    <path d="M28.25 -51.05 L28.2 -51.45 29.15 -50.45 29.25 -50.4 29.15 -50.2 30.3 -49.15 30.4 -49.1 30.45 -48.8 31.65 -47.3 32.85 -45.0 33.2 -44.15 34.35 -41.05 37.2 -41.05 38.25 -41.1 40.15 -41.15 Q40.45 -43.25 39.45 -45.15 L37.85 -48.0 Q35.5 -51.8 32.25 -54.6 28.8 -57.7 24.35 -58.95 L22.95 -54.75 28.25 -51.05 M25.7 -51.4 L22.7 -53.75 22.35 -53.75 22.15 -54.05 21.95 -53.8 21.1 -53.7 18.8 -51.65 Q16.75 -49.7 15.05 -47.25 L12.4 -43.25 8.55 -36.8 3.85 -28.8 1.2 -24.6 Q-1.5 -20.55 -5.15 -17.55 L-5.15 -17.4 -5.25 -17.2 -1.95 -14.8 3.6 -11.8 9.85 -9.4 9.7 -9.9 Q13.85 -7.85 18.45 -8.9 L23.65 -10.15 30.8 -7.8 34.65 -6.85 36.7 -8.7 Q38.8 -10.5 40.15 -12.9 41.8 -15.75 42.95 -18.8 L44.55 -23.4 Q45.35 -25.95 45.5 -28.7 45.75 -31.9 45.05 -35.0 L44.0 -38.05 42.9 -40.4 38.15 -39.8 35.75 -40.0 31.35 -40.6 31.35 -40.65 31.25 -40.65 28.6 -41.35 28.15 -41.55 27.8 -41.7 27.7 -41.9 27.9 -42.0 28.3 -41.95 33.25 -41.15 32.75 -42.45 32.7 -42.5 32.4 -43.25 29.75 -47.35 25.7 -51.4 M19.9 -51.05 L20.0 -51.15 19.9 -51.0 19.9 -51.05" fill="#666666" fill-rule="evenodd" stroke="none"/>
  </g>
</svg>
