<?xml version="1.0" encoding="UTF-8" standalone="no"?>
<svg xmlns:xlink="http://www.w3.org/1999/xlink" height="186.35px" width="74.15px" xmlns="http://www.w3.org/2000/svg">
  <g transform="matrix(1.0, 0.0, 0.0, 1.0, 38.6, 185.85)">
    <path d="M3.8 -178.95 L3.75 -179.05 3.75 -179.0 3.8 -178.95 M4.1 -178.75 L4.0 -178.85 4.05 -178.75 4.1 -178.75 M7.95 -173.25 L8.05 -173.1 8.15 -173.0 8.55 -172.55 8.25 -173.1 8.15 -173.35 7.95 -173.25 M7.8 -175.6 L7.85 -175.5 9.2 -173.1 11.05 -168.8 12.55 -163.45 Q12.85 -161.9 12.75 -160.3 L12.85 -160.35 Q15.5 -162.2 18.9 -162.1 L19.6 -162.05 Q19.7 -162.7 20.1 -163.3 L20.8 -164.15 21.1 -164.7 23.35 -166.55 Q25.3 -167.6 27.7 -167.55 30.45 -167.3 32.6 -165.4 33.95 -164.2 34.7 -162.65 35.35 -161.4 35.5 -159.9 35.75 -156.35 33.7 -153.45 32.4 -151.55 30.45 -150.5 L30.35 -150.45 30.25 -150.35 30.0 -150.35 30.05 -148.15 Q29.9 -145.65 28.75 -143.45 27.65 -141.45 26.2 -139.85 L23.35 -137.3 22.95 -137.05 20.9 -134.65 Q19.8 -133.65 18.5 -132.85 17.45 -132.2 16.3 -131.95 L9.55 -131.5 1.85 -132.2 Q-0.2 -132.45 -2.2 -132.2 L-5.55 -132.1 Q-6.6 -129.95 -7.1 -127.55 L-7.3 -126.35 -7.45 -125.65 -7.45 -125.45 -7.55 -125.0 -5.05 -121.75 -1.75 -116.7 0.8 -112.7 0.95 -112.35 5.45 -101.95 5.55 -101.6 6.2 -99.9 7.1 -97.4 7.75 -95.2 8.2 -93.65 8.8 -91.25 8.95 -90.6 9.05 -90.05 Q10.35 -84.85 10.4 -79.4 L10.4 -78.55 10.1 -78.2 10.15 -77.6 10.1 -77.45 10.1 -77.35 Q8.8 -73.05 6.65 -69.1 L6.6 -68.5 Q6.5 -67.6 6.75 -66.75 7.2 -65.3 7.95 -63.85 8.4 -62.95 9.25 -62.45 9.7 -62.2 9.45 -61.7 L8.65 -60.2 8.3 -59.55 Q6.2 -56.75 2.9 -55.65 4.0 -51.25 3.55 -46.3 L3.4 -42.2 Q3.05 -36.75 1.75 -31.4 0.95 -28.2 -0.7 -25.45 L3.6 -25.85 4.6 -25.65 6.55 -25.35 Q9.95 -24.8 13.2 -23.55 16.3 -22.4 18.9 -20.35 L21.9 -17.55 Q22.95 -16.4 23.45 -15.0 L23.25 -14.5 22.75 -13.3 22.7 -13.4 Q20.85 -10.7 18.05 -8.9 13.7 -6.2 8.7 -5.3 L6.8 -3.85 Q2.15 -0.95 -3.35 -0.1 L-4.75 0.2 -6.75 0.4 -16.5 0.45 -19.6 0.2 -23.95 -0.75 Q-27.8 -1.75 -31.5 -3.35 -32.75 -3.9 -33.55 -4.75 L-33.6 -4.8 -34.6 -5.55 -35.4 -6.0 Q-35.25 -11.5 -32.3 -16.15 L-26.6 -25.45 Q-23.95 -30.0 -22.15 -34.9 -24.15 -35.15 -26.0 -36.35 -27.7 -37.45 -28.75 -39.15 -31.65 -43.65 -31.3 -49.0 L-31.2 -50.45 -31.4 -50.55 Q-33.15 -51.55 -34.25 -53.2 L-34.6 -53.95 -34.5 -59.2 -34.4 -60.9 -34.05 -64.4 -34.75 -65.5 Q-36.15 -68.1 -37.15 -70.85 -37.8 -72.65 -37.85 -74.5 L-37.85 -76.45 -38.6 -77.75 -35.95 -91.8 -34.35 -99.3 -34.2 -99.15 -32.85 -104.2 -33.25 -104.6 -32.35 -108.85 -32.2 -109.3 -31.45 -111.9 -30.6 -114.85 -29.65 -117.45 -30.45 -118.8 -30.7 -118.8 -30.75 -118.95 -31.0 -119.65 -31.05 -119.95 -31.45 -121.4 Q-31.75 -124.25 -31.65 -127.1 -31.55 -130.85 -31.6 -134.6 L-31.6 -134.65 -31.4 -142.1 -31.1 -149.05 -31.1 -149.5 -31.1 -149.55 -31.1 -150.05 -31.15 -150.35 -31.15 -151.2 -31.1 -153.15 -31.3 -153.15 Q-32.8 -156.3 -33.35 -159.8 L-33.6 -161.55 Q-33.9 -164.45 -33.35 -167.2 -32.95 -169.5 -32.05 -171.75 L-31.4 -173.1 Q-30.5 -174.75 -29.05 -176.0 L-28.45 -179.05 -28.25 -179.1 -28.0 -178.9 Q-26.8 -179.7 -25.3 -179.85 -23.45 -182.15 -20.85 -183.7 L-19.35 -184.5 Q-15.85 -185.8 -12.1 -185.85 L-8.6 -185.5 Q-5.8 -185.2 -3.3 -184.05 L-2.4 -183.8 -2.3 -183.75 0.35 -182.6 Q4.95 -180.05 7.8 -175.6 M8.7 -171.0 L8.6 -170.9 8.8 -170.85 8.7 -171.0 M20.75 -162.5 L20.8 -162.8 20.75 -162.7 20.75 -162.6 20.75 -162.5 M4.45 -4.35 L4.5 -4.25 4.7 -4.35 4.45 -4.35 M15.7 -9.3 L15.9 -9.4 15.65 -9.4 15.7 -9.3 M-15.85 -174.15 L-15.75 -174.25 -15.8 -174.25 -15.85 -174.15 M-19.45 -175.2 L-19.2 -175.2 -19.4 -175.3 -19.45 -175.2 M-24.15 -179.95 L-24.2 -179.9 -24.15 -179.9 -24.15 -179.95 M-18.1 -134.25 Q-17.8 -131.4 -17.8 -128.45 L-16.6 -128.6 -15.5 -128.65 Q-14.75 -131.3 -14.5 -134.0 L-16.1 -134.65 -17.45 -135.25 -18.25 -135.75 -18.15 -134.65 -18.1 -134.25 M-8.4 -126.45 L-8.5 -126.6 -8.4 -126.25 -8.4 -126.45 M-13.9 -97.2 L-13.9 -97.25 -13.95 -97.25 -13.9 -97.2 M-28.95 -46.6 L-28.95 -46.65 -28.95 -46.6" fill="#000000" fill-rule="evenodd" stroke="none"/>
  </g>
</svg>
