<?xml version="1.0" encoding="UTF-8" standalone="no"?>
<svg xmlns:xlink="http://www.w3.org/1999/xlink" height="62.3px" width="42.3px" xmlns="http://www.w3.org/2000/svg">
  <g transform="matrix(1.0, 0.0, 0.0, 1.0, 21.05, 31.2)">
    <path d="M1.1 5.4 Q0.1 5.8 0.8 6.5 L1.1 6.85 0.85 7.4 1.05 8.35 1.6 8.9 2.1 8.2 4.65 8.9 Q8.85 5.0 7.2 -1.25 5.8 -6.45 2.85 -10.95 L2.2 -11.05 1.4 5.45 1.1 5.4 M2.65 -10.15 L3.85 -8.05 Q6.3 -1.2 5.65 5.95 5.55 6.8 4.8 7.2 L2.75 6.55 Q3.8 -1.75 2.65 -10.15 M18.35 -13.75 Q19.3 -10.8 19.0 -7.55 17.8 5.6 12.85 18.0 2.05 25.0 -9.0 18.25 -11.75 12.15 -18.45 12.25 -21.85 6.85 -16.7 2.0 L-13.7 1.55 -9.4 4.95 -7.8 4.4 Q-5.85 -5.25 -10.3 -14.25 -13.5 -20.75 -7.85 -25.1 1.9 -32.45 11.25 -25.3 16.25 -20.4 18.35 -13.75 M11.65 -10.7 L11.1 -9.6 Q12.25 -2.0 10.65 5.5 L9.95 6.3 9.95 8.2 10.7 8.45 13.8 7.75 Q17.75 -1.6 12.25 -10.75 L11.65 -10.7 M12.2 6.3 L13.1 -6.4 Q15.35 0.2 13.1 6.4 L12.2 6.3 M10.0 22.0 L12.75 20.8 Q10.65 30.55 0.85 29.1 -7.45 27.65 -9.4 19.35 -0.35 25.45 10.0 22.0" fill="#ffffff" fill-rule="evenodd" stroke="none"/>
    <path d="M2.65 -10.15 Q3.8 -1.75 2.75 6.55 L4.8 7.2 Q5.55 6.8 5.65 5.95 6.3 -1.2 3.85 -8.05 L2.65 -10.15 M1.4 5.45 L2.2 -11.05 2.85 -10.95 Q5.8 -6.45 7.2 -1.25 8.85 5.0 4.65 8.9 L2.1 8.2 1.6 8.9 1.05 8.35 0.85 7.4 1.1 6.85 0.8 6.5 Q0.1 5.8 1.1 5.4 L1.4 5.6 1.4 5.45 M11.65 -10.7 L12.25 -10.75 Q17.75 -1.6 13.8 7.75 L10.7 8.45 9.95 8.2 9.95 6.3 10.65 5.5 Q12.25 -2.0 11.1 -9.6 L11.65 -10.7 M18.35 -13.75 Q16.25 -20.4 11.25 -25.3 1.9 -32.45 -7.85 -25.1 -13.5 -20.75 -10.3 -14.25 -5.85 -5.25 -7.8 4.4 L-9.4 4.95 -13.7 1.55 -16.7 2.0 Q-21.85 6.85 -18.45 12.25 -11.75 12.15 -9.0 18.25 2.05 25.0 12.85 18.0 17.8 5.6 19.0 -7.55 19.3 -10.8 18.35 -13.75 M20.95 -5.8 Q18.5 8.3 14.5 22.2 13.8 24.7 12.15 26.8 8.6 31.45 2.75 31.1 -8.75 30.6 -11.1 19.1 L-10.65 18.3 Q-13.7 13.85 -19.3 12.95 -22.05 9.4 -20.5 5.35 -17.6 -2.4 -9.55 1.15 -8.65 -7.3 -12.25 -15.15 -13.85 -18.65 -12.15 -21.95 -6.95 -32.35 4.7 -31.05 16.95 -27.55 20.4 -15.3 21.75 -10.55 20.95 -5.8 M12.2 6.3 L13.1 6.4 Q15.35 0.2 13.1 -6.4 L12.2 6.3 M10.0 22.0 Q-0.35 25.45 -9.4 19.35 -7.45 27.65 0.85 29.1 10.65 30.55 12.75 20.8 L10.0 22.0" fill="#999999" fill-rule="evenodd" stroke="none"/>
  </g>
</svg>
