<?xml version="1.0" encoding="UTF-8" standalone="no"?>
<svg xmlns:xlink="http://www.w3.org/1999/xlink" height="45.25px" width="37.45px" xmlns="http://www.w3.org/2000/svg">
  <g transform="matrix(1.0, 0.0, 0.0, 1.0, 18.6, 22.6)">
    <path d="M2.9 -12.15 Q4.55 -16.25 3.4 -20.45 L16.75 -22.6 Q18.25 -22.1 18.3 -20.5 L18.8 -8.35 Q18.95 -3.95 18.25 0.55 16.9 9.55 11.75 17.1 10.55 18.85 8.75 20.4 5.5 23.15 1.25 22.55 -3.45 21.65 -6.8 18.05 L-10.1 13.8 Q-14.95 6.5 -17.6 -1.95 L-18.25 -4.7 -18.6 -7.75 -17.25 -9.45 Q-13.85 -13.7 -8.7 -15.4 L-6.95 -9.95 -2.8 -10.05 Q0.0 -10.0 2.45 -11.65 L2.75 -11.75 2.9 -12.15 M16.3 -19.7 L5.05 -18.25 4.4 -12.65 Q6.3 -13.35 8.15 -14.15 12.8 -16.0 16.65 -19.25 L16.3 -19.7 M4.6 -10.5 Q-5.15 -6.45 -16.15 -7.1 L-16.2 -6.8 -16.5 -6.0 Q-15.1 0.25 -12.25 5.75 -10.6 11.9 -6.25 16.2 -2.55 19.85 1.4 20.2 5.35 20.5 9.5 17.5 9.8 16.35 10.85 15.85 L11.55 14.2 Q18.3 -0.35 16.65 -17.75 10.9 -13.15 4.6 -10.5 M-15.05 -9.6 L-8.2 -9.55 -9.55 -13.85 -15.05 -9.6" fill="#000000" fill-rule="evenodd" stroke="none"/>
    <path d="M2.45 -11.65 L2.9 -12.15 2.75 -11.75 2.45 -11.65 M16.3 -19.7 L16.65 -19.25 Q12.8 -16.0 8.15 -14.15 6.3 -13.35 4.4 -12.65 L5.05 -18.25 16.3 -19.7 M1.4 20.2 Q5.65 10.8 5.9 0.7 6.0 -3.0 5.4 -6.7 L4.6 -10.5 Q10.9 -13.15 16.65 -17.75 18.3 -0.35 11.55 14.2 L10.85 15.85 Q9.8 16.35 9.5 17.5 5.35 20.5 1.4 20.2 M-15.05 -9.6 L-9.55 -13.85 -8.2 -9.55 -15.05 -9.6" fill="#d6280a" fill-rule="evenodd" stroke="none"/>
    <path d="M4.6 -10.5 L5.4 -6.7 Q6.0 -3.0 5.9 0.7 5.65 10.8 1.4 20.2 -2.55 19.85 -6.25 16.2 -10.6 11.9 -12.25 5.75 -15.1 0.25 -16.5 -6.0 L-16.2 -6.8 -16.15 -7.1 Q-5.15 -6.45 4.6 -10.5" fill="#f02d0b" fill-rule="evenodd" stroke="none"/>
  </g>
</svg>
