<?xml version="1.0" encoding="UTF-8" standalone="no"?>
<svg xmlns:xlink="http://www.w3.org/1999/xlink" height="56.85px" width="85.3px" xmlns="http://www.w3.org/2000/svg">
  <g transform="matrix(1.0, 0.0, 0.0, 1.0, 42.55, 28.75)">
    <path d="M-32.05 -21.45 L-36.75 -18.45 -36.7 -17.4 Q-27.65 -23.2 -16.95 -23.35 -6.5 -23.45 2.7 -18.65 8.1 -15.95 12.4 -11.7 14.5 -9.65 15.65 -7.2 L15.55 -6.45 14.95 -6.05 Q10.25 -12.3 3.3 -16.05 -4.7 -20.5 -13.75 -21.05 -21.7 -21.55 -29.25 -19.0 L-36.95 -16.55 -37.35 -16.3 -37.35 -16.1 -37.3 -15.9 -37.0 -15.95 -37.1 -12.8 Q-30.05 -18.3 -21.3 -18.25 -16.55 -18.2 -12.5 -15.7 -8.6 -13.4 -5.85 -9.85 -4.7 -8.4 -3.95 -6.7 -3.05 -4.75 -2.45 -2.65 -0.2 5.65 -2.4 13.9 -3.15 16.65 -4.5 19.2 -5.25 20.5 -6.15 21.65 L-8.25 23.85 -10.5 25.75 Q-3.85 27.1 2.8 25.2 8.8 23.6 13.85 20.0 16.35 18.35 18.5 16.5 L27.9 7.65 26.6 -1.85 27.25 -0.9 Q28.7 1.7 29.05 4.65 L29.25 6.2 30.4 5.0 31.35 4.95 34.1 1.4 Q37.9 -3.4 40.1 -9.15 41.7 -13.25 40.6 -17.3 40.25 -18.75 38.95 -19.55 37.1 -20.9 35.0 -21.45 L27.25 -23.95 Q21.55 -25.75 15.6 -26.25 2.7 -27.5 -10.35 -26.1 -21.35 -24.6 -31.85 -21.15 L-31.9 -21.55 -32.05 -21.45 M20.8 -27.15 Q30.75 -25.7 39.5 -20.55 L42.35 -18.75 Q43.05 -15.5 42.55 -12.2 42.05 -8.8 40.6 -6.0 38.0 -1.0 34.5 3.3 28.05 11.2 20.1 17.75 L12.95 22.9 Q9.5 24.95 5.6 26.15 0.45 27.7 -4.9 28.05 -9.6 28.4 -14.05 26.7 -18.0 25.2 -22.0 23.85 -26.6 22.45 -31.0 20.55 -34.3 19.05 -37.0 16.7 L-37.05 15.2 Q-33.95 12.75 -30.15 11.2 -24.3 8.7 -18.2 7.4 L-17.65 6.7 Q-16.85 5.7 -16.6 4.4 -16.2 2.05 -16.9 0.0 -17.9 -2.9 -20.3 -5.0 L-20.3 -5.55 Q-23.3 -6.85 -26.45 -6.9 -32.5 -6.95 -38.4 -5.4 L-39.0 -5.85 -42.55 -4.55 -41.1 -7.1 Q-39.5 -9.95 -38.85 -13.15 -38.55 -14.75 -38.7 -16.3 L-38.8 -19.35 -28.1 -24.35 -27.75 -24.05 Q-18.25 -26.6 -8.6 -27.9 1.95 -29.35 12.5 -28.35 L20.8 -27.15" fill="#000000" fill-rule="evenodd" stroke="none"/>
    <path d="M-31.85 -21.15 Q-21.35 -24.6 -10.35 -26.1 2.7 -27.5 15.6 -26.25 21.55 -25.75 27.25 -23.95 L35.0 -21.45 Q37.1 -20.9 38.95 -19.55 40.25 -18.75 40.6 -17.3 41.7 -13.25 40.1 -9.15 37.9 -3.4 34.1 1.4 L31.35 4.95 30.4 5.0 29.25 6.2 29.05 4.65 Q28.7 1.7 27.25 -0.9 L26.6 -1.85 27.9 7.65 18.5 16.5 Q16.35 18.35 13.85 20.0 8.8 23.6 2.8 25.2 -3.85 27.1 -10.5 25.75 L-8.25 23.85 -6.15 21.65 Q-5.25 20.5 -4.5 19.2 -3.15 16.65 -2.4 13.9 -0.2 5.65 -2.45 -2.65 -3.05 -4.75 -3.95 -6.7 -4.7 -8.4 -5.85 -9.85 -8.6 -13.4 -12.5 -15.7 -16.55 -18.2 -21.3 -18.25 -30.05 -18.3 -37.1 -12.8 L-37.0 -15.95 -37.3 -15.9 -37.35 -16.1 -37.35 -16.3 -36.95 -16.55 -29.25 -19.0 Q-21.7 -21.55 -13.75 -21.05 -4.7 -20.5 3.3 -16.05 10.25 -12.3 14.95 -6.05 L15.55 -6.45 15.65 -7.2 Q14.5 -9.65 12.4 -11.7 8.1 -15.95 2.7 -18.65 -6.5 -23.45 -16.95 -23.35 -27.65 -23.2 -36.7 -17.4 L-36.75 -18.45 -32.05 -21.45 -31.85 -21.15" fill="#666666" fill-rule="evenodd" stroke="none"/>
  </g>
</svg>
