<?xml version="1.0" encoding="UTF-8" standalone="no"?>
<svg xmlns:xlink="http://www.w3.org/1999/xlink" height="36.0px" width="49.5px" xmlns="http://www.w3.org/2000/svg">
  <g transform="matrix(1.0, 0.0, 0.0, 1.0, 25.1, 81.6)">
    <path d="M-24.05 -76.05 L-23.75 -77.3 -23.4 -78.05 -22.75 -78.6 Q-21.8 -79.2 -20.7 -79.3 L-20.7 -79.25 -20.35 -79.35 -19.7 -79.4 Q-14.9 -80.45 -9.95 -80.45 L-7.7 -80.3 1.6 -79.1 Q6.7 -78.15 11.5 -76.3 L18.25 -73.25 19.5 -73.95 19.85 -74.05 19.9 -74.15 19.95 -74.3 21.0 -74.75 21.0 -74.8 21.0 -74.9 21.25 -75.1 21.4 -75.0 Q22.25 -73.5 22.5 -71.85 L22.4 -71.9 22.45 -71.85 22.45 -70.95 22.35 -70.85 22.35 -70.4 22.35 -69.3 22.45 -69.35 22.55 -69.2 22.55 -68.9 22.45 -68.85 22.3 -68.85 22.3 -67.95 22.0 -67.7 22.0 -67.05 Q20.4 -69.05 18.15 -70.4 16.5 -71.4 14.7 -71.85 8.7 -73.2 4.0 -69.35 1.65 -67.4 0.45 -64.6 -1.85 -59.15 -1.05 -53.35 -0.45 -49.3 2.45 -47.05 L2.35 -46.95 2.2 -46.85 2.1 -46.7 Q-3.75 -47.1 -8.7 -50.6 -12.6 -53.35 -15.4 -57.2 L-17.2 -59.7 -18.5 -61.55 -17.8 -64.15 -17.7 -64.25 -17.55 -64.35 Q-17.3 -65.7 -16.65 -66.9 L-16.7 -67.1 -16.95 -67.15 Q-17.8 -66.3 -18.2 -65.1 L-18.25 -64.95 -18.35 -64.85 -18.5 -64.75 -19.15 -62.55 -19.55 -63.3 -19.7 -63.4 -19.8 -63.45 -20.25 -63.5 -21.75 -65.8 -23.45 -70.35 Q-23.9 -71.45 -23.95 -72.6 L-24.0 -72.65 -24.05 -72.8 -24.15 -74.55 -24.1 -75.15 -24.05 -76.05 M-25.0 -75.55 Q-25.25 -73.75 -24.9 -71.85 L-24.05 -68.1 Q-22.4 -65.85 -21.15 -63.15 L-20.9 -62.75 Q-19.55 -61.35 -18.8 -59.6 L-14.9 -54.8 Q-13.25 -52.8 -11.3 -51.15 L-8.4 -49.0 -8.3 -48.95 -2.35 -46.05 Q-1.5 -45.7 -0.5 -45.7 L1.55 -45.65 3.3 -45.6 3.3 -45.65 4.05 -45.9 Q4.8 -45.9 5.45 -46.2 L5.55 -46.25 8.25 -46.8 10.45 -46.95 12.4 -47.25 13.45 -47.4 13.6 -47.45 13.6 -47.5 Q16.55 -47.9 18.9 -49.6 L19.0 -49.85 19.1 -50.3 19.1 -50.45 Q17.2 -52.7 14.55 -54.2 L10.6 -56.25 8.75 -57.0 8.6 -57.35 8.35 -57.85 Q7.7 -59.75 8.7 -61.4 L9.15 -62.4 11.05 -63.95 Q11.35 -64.1 11.35 -64.4 L11.35 -64.45 13.65 -65.0 15.9 -64.75 22.0 -62.5 22.25 -62.6 22.4 -62.7 22.45 -62.75 24.35 -61.5 24.4 -61.65 24.4 -61.8 Q23.35 -63.9 23.05 -66.05 L23.1 -66.1 Q22.95 -67.55 23.1 -68.95 L23.15 -69.2 Q22.95 -70.15 23.05 -71.1 L23.05 -71.6 23.05 -72.05 Q22.8 -73.65 22.1 -75.1 L21.3 -76.2 21.1 -76.2 21.0 -76.1 20.95 -76.05 20.9 -75.9 20.95 -75.65 21.0 -75.6 21.0 -75.55 19.5 -74.55 19.45 -74.55 18.5 -74.45 18.1 -74.65 17.85 -74.75 17.75 -74.75 17.6 -74.6 17.55 -74.55 Q13.8 -76.5 9.75 -77.9 3.75 -79.9 -2.55 -80.95 L-7.5 -81.5 Q-10.4 -81.7 -13.25 -81.5 L-19.75 -80.35 Q-22.15 -79.7 -24.35 -78.65 L-25.0 -75.55 M20.3 -73.65 L20.35 -73.55 20.5 -73.5 20.55 -73.55 20.5 -73.6 20.3 -73.65 M-1.55 -73.1 L1.9 -74.0 Q7.8 -75.25 13.5 -73.4 16.85 -72.4 19.8 -70.75 L19.35 -71.55 19.3 -71.65 Q18.6 -72.15 18.25 -72.8 16.55 -73.8 14.65 -74.45 12.0 -75.3 9.35 -75.75 3.45 -76.05 -2.1 -74.1 -5.5 -72.95 -8.3 -70.8 L-9.8 -69.1 -9.8 -68.95 -9.8 -68.8 -9.75 -68.65 -9.65 -68.5 -9.45 -68.35 Q-6.2 -71.65 -1.55 -73.1 M19.75 -72.55 L19.65 -72.55 19.75 -72.5 19.75 -72.55 M20.6 -47.9 L20.65 -47.9 20.55 -48.05 20.6 -47.9 M13.0 -55.5 L13.05 -55.3 13.35 -55.15 13.0 -55.5" fill="#000000" fill-rule="evenodd" stroke="none"/>
    <path d="M-24.05 -76.05 L-24.1 -75.15 -24.15 -74.55 -24.05 -72.8 -24.0 -72.65 -23.95 -72.6 Q-23.9 -71.45 -23.45 -70.35 L-21.75 -65.8 -20.25 -63.5 -19.8 -63.45 -19.7 -63.4 -19.55 -63.3 -19.15 -62.55 -18.5 -64.75 -18.35 -64.85 -18.25 -64.95 -18.2 -65.1 Q-17.8 -66.3 -16.95 -67.15 L-16.7 -67.1 -16.65 -66.9 Q-17.3 -65.7 -17.55 -64.35 L-17.7 -64.25 -17.8 -64.15 -18.5 -61.55 -17.2 -59.7 -15.4 -57.2 Q-12.6 -53.35 -8.7 -50.6 -3.75 -47.1 2.1 -46.7 L2.2 -46.85 2.35 -46.95 2.45 -47.05 Q-0.45 -49.3 -1.05 -53.35 -1.85 -59.15 0.45 -64.6 1.65 -67.4 4.0 -69.35 8.7 -73.2 14.7 -71.85 16.5 -71.4 18.15 -70.4 20.4 -69.05 22.0 -67.05 L22.0 -67.7 22.3 -67.95 22.3 -68.85 22.45 -68.85 22.55 -68.9 22.55 -69.2 22.45 -69.35 22.35 -69.3 22.35 -70.4 22.35 -70.85 22.45 -70.95 22.45 -71.85 22.4 -71.9 22.5 -71.85 Q22.25 -73.5 21.4 -75.0 L21.25 -75.1 21.0 -74.9 21.0 -74.8 21.0 -74.75 19.95 -74.3 19.9 -74.15 19.85 -74.05 19.5 -73.95 18.25 -73.25 11.5 -76.3 Q6.7 -78.15 1.6 -79.1 L-7.7 -80.3 -9.95 -80.45 Q-14.9 -80.45 -19.7 -79.4 L-20.35 -79.35 -20.7 -79.25 -20.7 -79.3 Q-21.8 -79.2 -22.75 -78.6 L-23.4 -78.05 -23.75 -77.3 -24.05 -76.05 M-1.55 -73.1 Q-6.2 -71.65 -9.45 -68.35 L-9.65 -68.5 -9.75 -68.65 -9.8 -68.8 -9.8 -68.95 -9.8 -69.1 -8.3 -70.8 Q-5.5 -72.95 -2.1 -74.1 3.45 -76.05 9.35 -75.75 12.0 -75.3 14.65 -74.45 16.55 -73.8 18.25 -72.8 18.6 -72.15 19.3 -71.65 L19.35 -71.55 19.8 -70.75 Q16.85 -72.4 13.5 -73.4 7.8 -75.25 1.9 -74.0 L-1.55 -73.1 M20.3 -73.65 L20.5 -73.6 20.55 -73.55 20.5 -73.5 20.35 -73.55 20.3 -73.65 M19.75 -72.5 L19.65 -72.55 19.75 -72.55 19.8 -72.55 19.75 -72.5" fill="#666666" fill-rule="evenodd" stroke="none"/>
  </g>
</svg>
