<?xml version="1.0" encoding="UTF-8" standalone="no"?>
<svg xmlns:xlink="http://www.w3.org/1999/xlink" height="55.2px" width="116.25px" xmlns="http://www.w3.org/2000/svg">
  <g transform="matrix(1.0, 0.0, 0.0, 1.0, 58.1, 27.35)">
    <path d="M3.55 -20.55 L8.15 -23.95 Q12.3 -26.75 17.3 -27.35 L20.35 -26.9 Q29.35 -25.4 36.35 -19.25 47.2 -9.7 56.75 1.1 L57.15 0.65 58.15 1.0 Q56.55 5.1 52.75 7.55 49.9 9.45 46.4 9.3 44.1 9.0 42.15 8.1 37.5 6.1 33.2 3.0 L27.4 -1.0 Q21.85 -4.55 15.3 -4.5 L11.5 -0.35 Q10.7 0.6 10.15 1.8 7.55 7.35 5.9 13.6 L5.05 17.0 5.05 19.25 4.55 20.0 4.45 20.7 4.05 21.9 3.9 22.25 3.2 23.35 2.15 24.9 -2.55 26.4 Q-9.7 28.6 -17.15 27.45 -22.45 26.75 -27.2 24.75 -31.1 23.05 -34.75 20.95 -39.35 18.25 -44.1 16.15 L-44.1 15.4 Q-50.5 9.95 -55.35 3.2 -57.5 0.2 -58.1 -3.35 L-53.0 -7.1 -47.45 -10.25 Q-44.95 -11.5 -42.3 -12.4 L-38.5 -13.45 -32.45 -13.05 Q-19.6 -11.35 -10.05 -2.55 L-8.55 -5.45 Q-3.95 -14.15 3.55 -20.55 M-36.4 17.75 L-27.35 22.4 Q-25.55 23.35 -23.6 23.95 -18.25 25.35 -12.8 25.25 -5.05 25.15 1.9 21.9 L2.05 20.75 2.4 20.4 2.55 19.25 2.9 18.9 3.05 16.25 3.4 15.9 Q4.6 10.95 5.95 6.05 6.55 3.85 7.4 1.8 8.1 -0.05 9.2 -1.65 10.2 -3.1 11.55 -4.2 14.05 -6.35 17.05 -7.5 23.7 -5.6 29.75 -1.9 L33.4 0.8 40.8 6.05 Q42.9 7.4 45.3 7.7 47.85 7.9 49.95 6.9 L51.55 6.0 Q54.35 4.05 56.45 1.4 L54.6 -0.1 Q47.85 -5.55 42.2 -12.3 37.4 -17.8 31.3 -21.75 26.5 -24.9 20.85 -25.45 12.5 -25.85 5.95 -20.35 -3.5 -12.25 -8.95 -1.05 L-3.4 6.25 -3.45 7.0 -2.7 8.2 -2.6 8.5 Q-2.55 8.85 -2.95 8.9 -3.75 9.05 -3.95 8.3 -4.55 6.35 -5.8 4.7 -7.7 2.15 -10.0 -0.05 L-10.45 -0.1 Q-14.05 -4.25 -18.9 -6.75 L-24.15 -9.2 Q-30.8 -12.1 -38.15 -11.45 -43.85 -10.9 -48.7 -7.95 -52.65 -5.55 -55.6 -2.1 -51.4 6.7 -43.6 12.7 L-43.35 12.9 -43.35 12.7 -43.35 11.65 -43.35 11.25 Q-40.45 6.55 -35.55 4.05 -31.35 1.95 -26.95 1.4 -24.8 0.8 -23.15 2.05 L-22.85 2.4 Q-23.7 4.85 -27.05 4.3 -30.4 3.75 -33.7 5.1 -39.9 7.6 -42.25 13.7 L-36.4 17.75" fill="#000000" fill-rule="evenodd" stroke="none"/>
    <path d="M42.2 -12.3 Q47.85 -5.55 54.6 -0.1 L56.45 1.4 Q54.35 4.05 51.55 6.0 L49.95 6.9 Q47.85 7.9 45.3 7.7 42.9 7.4 40.8 6.05 L33.4 0.8 29.75 -1.9 Q23.7 -5.6 17.05 -7.5 14.05 -6.35 11.55 -4.2 10.2 -3.1 9.2 -1.65 8.1 -0.05 7.4 1.8 6.55 3.85 5.95 6.05 4.6 10.95 3.4 15.9 L3.05 16.25 2.9 18.9 2.55 19.25 2.4 20.4 2.05 20.75 1.9 21.9 Q-5.05 25.15 -12.8 25.25 -18.25 25.35 -23.6 23.95 -25.55 23.35 -27.35 22.4 L-36.4 17.75 Q-23.55 2.25 -5.75 10.9 L-3.65 12.0 -2.95 8.9 Q-2.55 8.85 -2.6 8.5 L-2.7 8.2 Q3.8 -17.85 27.2 -10.8 31.2 -9.5 35.0 -7.3 38.05 -5.55 40.05 -2.85 41.1 -4.2 41.65 -5.85 42.5 -8.35 42.3 -11.15 L42.2 -12.3" fill="#0db5c8" fill-rule="evenodd" stroke="none"/>
    <path d="M-36.4 17.75 L-42.25 13.7 Q-39.9 7.6 -33.7 5.1 -30.4 3.75 -27.05 4.3 -23.7 4.85 -22.85 2.4 L-23.15 2.05 Q-24.8 0.8 -26.95 1.4 -31.35 1.95 -35.55 4.05 -40.45 6.55 -43.35 11.25 L-43.35 11.65 -43.35 12.7 -43.6 12.7 Q-51.4 6.7 -55.6 -2.1 -52.65 -5.55 -48.7 -7.95 -43.85 -10.9 -38.15 -11.45 -30.8 -12.1 -24.15 -9.2 L-18.9 -6.75 Q-14.05 -4.25 -10.45 -0.1 L-10.0 -0.05 Q-7.7 2.15 -5.8 4.7 -4.55 6.35 -3.95 8.3 -3.75 9.05 -2.95 8.9 L-3.65 12.0 -5.75 10.9 Q-23.55 2.25 -36.4 17.75 M-2.7 8.2 L-3.45 7.0 -3.4 6.25 -8.95 -1.05 Q-3.5 -12.25 5.95 -20.35 12.5 -25.85 20.85 -25.45 26.5 -24.9 31.3 -21.75 37.4 -17.8 42.2 -12.3 L42.3 -11.15 Q42.5 -8.35 41.65 -5.85 41.1 -4.2 40.05 -2.85 38.05 -5.55 35.0 -7.3 31.2 -9.5 27.2 -10.8 3.8 -17.85 -2.7 8.2" fill="#0ecfe4" fill-rule="evenodd" stroke="none"/>
  </g>
</svg>
