<?xml version="1.0" encoding="UTF-8" standalone="no"?>
<svg xmlns:xlink="http://www.w3.org/1999/xlink" height="97.75px" width="78.8px" xmlns="http://www.w3.org/2000/svg">
  <g transform="matrix(1.0, 0.0, 0.0, 1.0, 39.4, 48.85)">
    <path d="M-4.45 -29.75 Q-3.5 -39.0 1.85 -46.85 L6.55 -47.25 Q8.85 -46.1 9.8 -43.85 14.55 -32.85 12.45 -20.1 12.95 -15.5 14.45 -11.05 17.2 -3.15 21.05 4.15 25.7 12.85 31.25 20.95 36.4 28.45 37.05 37.35 L36.65 37.6 Q29.7 42.55 21.55 44.35 L21.5 44.05 Q23.0 39.4 23.8 34.65 24.95 27.1 22.3 19.8 21.35 17.2 20.0 14.75 18.15 11.5 16.6 8.2 L15.0 5.25 Q12.8 1.7 11.45 -2.15 L8.8 -10.05 Q8.25 -11.6 7.95 -13.15 L7.35 -16.45 Q6.75 -19.65 6.95 -22.85 L7.0 -25.6 Q6.95 -27.65 7.65 -29.25 L7.2 -28.65 6.85 -28.4 Q5.15 -27.75 3.25 -27.4 L2.05 -27.35 0.15 -27.5 Q-2.65 -27.85 -4.45 -29.75" fill="#0db5c8" fill-rule="evenodd" stroke="none"/>
    <path d="M21.55 44.35 Q29.7 42.55 36.65 37.6 L37.05 37.35 Q36.4 28.45 31.25 20.95 25.7 12.85 21.05 4.15 17.2 -3.15 14.45 -11.05 12.95 -15.5 12.45 -20.1 14.55 -32.85 9.8 -43.85 8.85 -46.1 6.55 -47.25 L1.85 -46.85 Q-3.5 -39.0 -4.45 -29.75 -5.0 -25.1 -4.35 -20.1 -4.25 -13.95 -3.4 -7.8 -2.15 1.05 0.95 9.45 2.0 12.3 3.4 14.9 7.1 15.9 10.65 17.65 15.95 20.3 19.45 24.85 15.45 22.15 11.1 19.75 7.95 17.95 4.7 17.0 3.6 16.2 2.0 15.95 L1.65 16.05 1.3 16.2 Q-3.45 15.35 -8.5 16.15 -16.05 17.3 -23.0 20.35 -28.55 22.7 -32.6 26.9 -35.35 29.7 -37.35 33.0 -33.2 37.5 -27.85 40.4 -27.2 36.6 -24.25 33.6 L-22.0 31.45 Q-15.6 25.35 -6.85 24.05 -5.4 24.55 -4.15 25.4 L-4.15 25.5 -6.25 25.6 -6.7 25.5 Q-15.0 27.75 -21.05 33.7 -24.35 36.9 -26.5 40.9 L-26.9 40.9 -26.55 41.05 -23.7 42.35 Q-15.8 45.5 -7.25 46.45 1.8 47.45 10.7 46.15 L13.45 45.65 13.7 45.45 13.9 45.3 21.4 44.4 21.55 44.35 M13.8 -39.0 L15.0 -20.1 15.95 -14.6 Q16.45 -12.4 17.2 -10.25 20.25 -1.8 24.8 5.95 29.35 13.75 34.2 21.4 39.05 29.05 39.4 38.15 L38.0 38.9 36.4 40.15 36.35 40.2 Q34.95 41.6 32.9 42.5 26.8 45.15 20.45 46.8 L13.25 48.35 8.1 48.85 -8.0 48.75 -11.3 48.35 -13.6 47.95 Q-22.7 46.5 -30.4 41.65 -35.1 38.7 -38.1 34.3 L-38.15 34.4 -39.0 32.45 -39.4 31.6 Q-38.6 29.3 -36.8 27.4 -34.45 24.8 -31.8 22.75 -27.55 19.35 -22.45 17.45 -17.1 15.4 -11.4 14.5 L-8.15 14.05 -6.55 13.7 0.6 14.3 Q-2.2 9.8 -3.45 4.55 -5.65 -4.3 -6.2 -13.3 L-6.45 -20.1 Q-7.8 -34.35 -1.3 -45.95 0.3 -48.8 3.55 -48.85 12.95 -49.35 13.8 -39.0" fill="#000000" fill-rule="evenodd" stroke="none"/>
    <path d="M-4.45 -29.75 Q-2.65 -27.85 0.15 -27.5 L2.05 -27.35 3.25 -27.4 Q5.15 -27.75 6.85 -28.4 L7.2 -28.65 7.65 -29.25 Q6.95 -27.65 7.0 -25.6 L6.95 -22.85 Q6.75 -19.65 7.35 -16.45 L7.95 -13.15 Q8.25 -11.6 8.8 -10.05 L11.45 -2.15 Q12.8 1.7 15.0 5.25 L16.6 8.2 Q18.15 11.5 20.0 14.75 21.35 17.2 22.3 19.8 24.95 27.1 23.8 34.65 23.0 39.4 21.5 44.05 L21.55 44.35 21.4 44.4 13.9 45.3 13.7 45.45 13.45 45.65 10.7 46.15 Q1.8 47.45 -7.25 46.45 -15.8 45.5 -23.7 42.35 L-26.55 41.05 -26.5 40.9 Q-24.35 36.9 -21.05 33.7 -15.0 27.75 -6.7 25.5 L-6.25 25.6 -4.15 25.5 -4.15 25.4 Q-5.4 24.55 -6.85 24.05 -15.6 25.35 -22.0 31.45 L-24.25 33.6 Q-27.2 36.6 -27.85 40.4 -33.2 37.5 -37.35 33.0 -35.35 29.7 -32.6 26.9 -28.55 22.7 -23.0 20.35 -16.05 17.3 -8.5 16.15 -3.45 15.35 1.3 16.2 L1.65 16.05 2.0 15.95 Q3.6 16.2 4.7 17.0 7.95 17.95 11.1 19.75 15.45 22.15 19.45 24.85 15.95 20.3 10.65 17.65 7.1 15.9 3.4 14.9 2.0 12.3 0.95 9.45 -2.15 1.05 -3.4 -7.8 -4.25 -13.95 -4.35 -20.1 -5.0 -25.1 -4.45 -29.75" fill="#0ecfe4" fill-rule="evenodd" stroke="none"/>
  </g>
</svg>
