<?xml version="1.0" encoding="UTF-8" standalone="no"?>
<svg xmlns:xlink="http://www.w3.org/1999/xlink" height="60.6px" width="79.35px" xmlns="http://www.w3.org/2000/svg">
  <g transform="matrix(1.0, 0.0, 0.0, 1.0, 39.65, 30.3)">
    <path d="M16.4 -27.3 L12.65 -27.8 -2.95 -28.45 Q-11.6 -28.3 -20.0 -26.6 -29.15 -24.85 -37.85 -21.55 L-37.95 -21.5 -38.15 -21.45 -38.1 -21.4 -38.1 -20.9 -37.85 -20.25 -37.7 -19.9 -36.6 -17.1 Q-34.35 -11.3 -30.9 -6.05 -27.35 -1.35 -22.55 2.25 L-21.55 -6.05 -21.45 -6.75 -21.2 -7.0 -20.95 -6.75 -20.85 -6.05 -20.75 -5.35 -20.8 -0.7 -20.8 -0.65 -20.8 -0.6 Q-21.0 3.1 -21.7 6.7 L-22.55 10.6 -25.55 17.95 -22.35 20.75 Q-20.4 22.45 -17.9 23.75 -13.3 26.25 -8.05 27.35 -3.7 28.25 0.85 28.2 L8.85 27.65 Q14.2 27.2 19.5 25.9 23.95 24.7 27.8 22.25 L31.65 19.75 31.85 10.25 31.75 7.5 31.25 0.75 35.7 -6.95 Q36.7 -8.6 37.15 -10.4 L37.25 -10.6 37.35 -10.8 38.05 -13.65 38.1 -14.6 38.3 -16.1 38.2 -18.25 37.75 -19.6 36.85 -20.7 Q35.45 -21.9 33.7 -22.4 L33.7 -22.35 33.1 -22.55 32.1 -22.85 Q24.5 -26.0 16.4 -27.3 M12.65 -29.8 L22.1 -28.15 Q27.5 -26.8 32.45 -24.4 36.15 -22.6 39.5 -20.3 39.8 -17.65 39.7 -15.05 39.55 -12.0 38.5 -9.0 36.8 -4.45 34.55 -0.15 L33.35 1.65 33.95 7.5 34.1 10.25 34.35 18.95 33.7 20.2 Q31.85 22.95 29.0 24.55 25.8 26.3 22.3 27.4 13.65 30.15 4.7 30.25 L4.05 30.25 Q-3.7 30.65 -11.4 28.9 L-13.7 28.2 Q-16.35 27.4 -18.7 26.0 -23.7 23.2 -27.35 18.8 L-26.6 16.45 Q-32.85 14.8 -36.6 9.65 L-37.2 8.65 -38.5 6.15 Q-38.95 5.3 -38.15 4.85 -36.8 4.1 -36.0 2.55 -34.85 0.2 -34.1 -2.25 -33.65 -3.65 -33.8 -5.1 L-33.9 -6.05 Q-37.5 -12.65 -39.55 -19.75 L-39.55 -19.8 -39.55 -19.85 -39.65 -20.15 Q-39.7 -21.2 -39.25 -22.0 L-39.15 -22.1 -38.75 -22.5 -36.05 -23.55 Q-26.7 -27.15 -16.75 -28.8 -6.3 -30.35 4.35 -30.3 L12.65 -29.8 M-32.5 -1.8 Q-33.7 2.55 -36.6 6.0 -33.4 11.75 -27.25 14.1 L-26.05 14.7 -24.65 10.25 -24.1 8.6 -22.9 4.05 Q-28.35 0.45 -32.15 -4.25 -32.15 -3.1 -32.5 -1.8" fill="#000000" fill-rule="evenodd" stroke="none"/>
    <path d="M16.4 -27.3 Q24.5 -26.0 32.1 -22.85 L33.1 -22.55 33.7 -22.35 33.7 -22.4 Q35.45 -21.9 36.85 -20.7 L37.75 -19.6 38.2 -18.25 38.3 -16.1 38.1 -14.6 38.05 -13.65 37.35 -10.8 37.25 -10.6 37.15 -10.4 Q36.7 -8.6 35.7 -6.95 L31.25 0.75 31.75 7.5 31.85 10.25 31.65 19.75 27.8 22.25 Q23.95 24.7 19.5 25.9 14.2 27.2 8.85 27.65 L0.85 28.2 Q-3.7 28.25 -8.05 27.35 -13.3 26.25 -17.9 23.75 -20.4 22.45 -22.35 20.75 L-25.55 17.95 -22.55 10.6 -21.7 6.7 Q-21.0 3.1 -20.8 -0.6 L-20.8 -0.65 -20.8 -0.7 -20.75 -5.35 -20.85 -6.05 -20.95 -6.75 -21.2 -7.0 -21.45 -6.75 -21.55 -6.05 -22.55 2.25 Q-27.35 -1.35 -30.9 -6.05 -34.35 -11.3 -36.6 -17.1 L-37.7 -19.9 -37.85 -20.25 -38.1 -20.9 -38.1 -21.4 -38.15 -21.45 -37.95 -21.5 -37.85 -21.55 Q-29.15 -24.85 -20.0 -26.6 -11.6 -28.3 -2.95 -28.45 L12.65 -27.8 16.4 -27.3 M-32.5 -1.8 Q-32.15 -3.1 -32.15 -4.25 -28.35 0.45 -22.9 4.05 L-24.1 8.6 -24.65 10.25 -26.05 14.7 -27.25 14.1 Q-33.4 11.75 -36.6 6.0 -33.7 2.55 -32.5 -1.8" fill="#666666" fill-rule="evenodd" stroke="none"/>
  </g>
</svg>
