<?xml version="1.0" encoding="UTF-8" standalone="no"?>
<svg xmlns:xlink="http://www.w3.org/1999/xlink" height="69.95px" width="47.55px" xmlns="http://www.w3.org/2000/svg">
  <g transform="matrix(1.0, 0.0, 0.0, 1.0, 23.75, 34.95)">
    <path d="M17.1 -28.5 L17.05 -28.5 16.75 -28.65 16.8 -28.85 17.1 -28.5" fill="#000000" fill-rule="evenodd" stroke="none"/>
    <path d="M4.45 -34.9 L5.55 -34.95 5.7 -34.95 5.75 -34.95 11.6 -34.05 15.05 -32.7 17.05 -31.55 18.5 -30.3 Q20.25 -28.6 21.25 -26.15 22.7 -22.75 22.15 -19.25 21.5 -15.05 18.0 -13.45 20.35 -8.05 21.7 -2.2 L21.8 -1.6 Q22.95 1.9 23.35 5.85 L23.75 11.65 Q24.3 20.45 19.55 27.85 17.75 30.7 15.0 32.5 8.9 36.5 1.8 34.1 -2.05 32.85 -4.4 29.6 L-4.95 28.8 Q-7.4 25.75 -8.4 22.0 -9.85 16.8 -8.2 11.8 L-7.05 8.9 Q-4.55 3.45 -4.75 -2.05 -5.8 -0.85 -7.85 -0.3 L-10.95 0.2 Q-19.2 0.8 -22.9 -6.3 -24.05 -8.5 -23.6 -10.95 -21.0 -13.05 -17.45 -13.65 -14.05 -14.2 -11.8 -16.8 L-5.9 -23.0 Q-7.45 -25.5 -6.1 -28.7 -4.0 -33.65 1.55 -34.6 L4.45 -34.9 M16.8 -28.85 Q15.55 -30.05 13.85 -30.95 L13.05 -31.2 12.25 -31.55 12.1 -31.65 11.9 -31.8 10.45 -32.2 Q4.15 -33.65 -1.8 -31.15 -3.4 -30.55 -4.25 -29.05 -5.8 -26.4 -4.9 -23.75 L-4.85 -23.75 -4.85 -23.8 -4.6 -23.65 -3.7 -23.8 -0.45 -24.0 Q7.95 -23.65 14.45 -18.35 L16.6 -16.2 17.1 -15.2 Q19.85 -17.4 19.9 -21.25 L19.6 -23.75 Q18.9 -26.5 17.1 -28.5 L16.8 -28.85 M16.25 -13.6 L15.95 -13.65 Q13.65 -17.95 9.2 -19.95 2.65 -22.85 -4.5 -22.7 L-4.5 -22.5 -4.65 -22.25 -4.7 -22.15 -4.85 -22.1 -5.05 -22.0 Q-8.95 -16.35 -14.65 -12.35 -15.75 -11.6 -16.95 -11.15 -19.1 -10.4 -21.3 -10.35 L-21.6 -10.15 Q-22.0 -5.45 -17.6 -2.9 -13.2 -0.45 -8.25 -2.4 -6.75 -3.0 -5.75 -4.15 L-5.1 -4.95 Q-5.6 -7.4 -6.85 -9.6 L-7.25 -10.15 -7.15 -10.3 -6.9 -10.35 Q-4.95 -8.15 -4.2 -5.35 L-3.75 -5.1 -3.85 -3.9 -3.75 -2.9 Q-3.4 1.05 -4.4 4.85 L-6.9 13.0 Q-7.6 15.05 -7.35 17.1 -6.95 21.1 -4.95 24.6 -2.75 28.4 0.65 31.15 2.0 32.2 3.65 32.55 L6.55 32.8 Q14.05 32.95 17.75 26.65 19.25 24.15 20.2 21.4 22.65 14.15 21.3 6.75 L20.55 2.85 Q19.35 -3.8 17.05 -10.15 L17.05 -10.35 17.1 -11.0 16.9 -11.35 16.55 -11.85 16.4 -13.1 16.3 -13.5 16.25 -13.6 M5.85 -8.35 L5.9 -8.25 5.95 -8.25 6.05 -8.25 6.25 -7.85 6.35 -7.65 Q10.95 -0.95 12.05 7.2 12.65 12.05 12.25 16.8 L12.25 16.85 12.3 17.05 Q10.25 19.15 7.05 18.25 L6.8 18.0 7.6 10.15 Q8.1 4.15 7.25 -1.8 6.9 -4.25 6.15 -6.55 L6.05 -6.7 5.8 -7.1 5.75 -7.6 5.45 -8.25 5.5 -8.4 5.85 -8.35 M19.85 15.55 Q18.4 16.55 16.5 15.6 L16.55 15.45 16.7 15.2 16.9 13.55 16.9 13.1 16.95 12.95 17.15 12.75 Q17.25 4.95 15.25 -2.5 14.85 -4.2 14.05 -5.8 L13.7 -6.65 Q13.25 -7.6 13.15 -8.55 L13.2 -8.65 13.55 -8.6 13.6 -8.55 13.65 -8.55 13.8 -8.25 Q17.75 -3.15 19.2 3.15 20.4 8.4 20.8 13.8 L21.0 14.0 21.1 14.15 21.0 14.3 Q21.2 14.85 21.0 15.55 L20.85 15.95 20.25 16.0 20.0 15.8 19.85 15.6 19.85 15.55 M18.25 6.75 L18.35 10.85 Q18.35 12.9 17.6 14.8 18.55 15.2 19.75 14.05 L19.75 14.0 Q19.3 8.3 17.9 2.8 L18.25 6.75 M7.75 17.05 L11.2 16.5 11.2 16.45 11.05 16.25 Q11.0 8.6 9.35 1.4 L8.8 -0.15 9.1 3.25 Q9.15 8.45 8.4 13.5 L7.75 17.05" fill="#999999" fill-rule="evenodd" stroke="none"/>
    <path d="M17.1 -28.5 Q18.9 -26.5 19.6 -23.75 L19.9 -21.25 Q19.85 -17.4 17.1 -15.2 L16.6 -16.2 14.45 -18.35 Q7.95 -23.65 -0.45 -24.0 L-3.7 -23.8 -4.6 -23.65 -4.85 -23.8 -4.85 -23.75 -4.9 -23.75 Q-5.8 -26.4 -4.25 -29.05 -3.4 -30.55 -1.8 -31.15 4.15 -33.65 10.45 -32.2 L11.9 -31.8 12.1 -31.65 12.25 -31.55 13.05 -31.2 13.85 -30.95 Q15.55 -30.05 16.8 -28.85 L16.75 -28.65 17.05 -28.5 17.1 -28.5 M19.85 15.6 L20.0 15.8 20.25 16.0 20.85 15.95 21.0 15.55 Q21.2 14.85 21.0 14.3 L21.1 14.15 21.0 14.0 20.8 13.8 Q20.4 8.4 19.2 3.15 17.75 -3.15 13.8 -8.25 L13.65 -8.55 13.6 -8.55 13.55 -8.6 13.2 -8.65 13.15 -8.55 Q13.25 -7.6 13.7 -6.65 L14.05 -5.8 Q14.85 -4.2 15.25 -2.5 17.25 4.95 17.15 12.75 L16.95 12.95 16.9 13.1 16.9 13.55 16.7 15.2 16.55 15.45 16.5 15.6 Q18.4 16.55 19.85 15.55 L19.85 15.6 M5.85 -8.35 L5.5 -8.4 5.45 -8.25 5.75 -7.6 5.8 -7.1 6.05 -6.7 6.15 -6.55 Q6.9 -4.25 7.25 -1.8 8.1 4.15 7.6 10.15 L6.8 18.0 7.05 18.25 Q10.25 19.15 12.3 17.05 L12.25 16.85 12.25 16.8 Q12.65 12.05 12.05 7.2 10.95 -0.95 6.35 -7.65 L6.25 -7.85 6.05 -8.25 5.95 -8.25 5.9 -8.25 5.85 -8.35 M16.25 -13.6 L16.3 -13.5 16.4 -13.1 16.55 -11.85 16.9 -11.35 17.1 -11.0 17.05 -10.35 17.05 -10.15 Q19.35 -3.8 20.55 2.85 L21.3 6.75 Q22.65 14.15 20.2 21.4 19.25 24.15 17.75 26.65 14.05 32.95 6.55 32.8 L3.65 32.55 Q2.0 32.2 0.65 31.15 -2.75 28.4 -4.95 24.6 -6.95 21.1 -7.35 17.1 -7.6 15.05 -6.9 13.0 L-4.4 4.85 Q-3.4 1.05 -3.75 -2.9 L-3.85 -3.9 -3.75 -5.1 -4.2 -5.35 Q-4.95 -8.15 -6.9 -10.35 L-7.15 -10.3 -7.25 -10.15 -6.85 -9.6 Q-5.6 -7.4 -5.1 -4.95 L-5.75 -4.15 Q-6.75 -3.0 -8.25 -2.4 -13.2 -0.45 -17.6 -2.9 -22.0 -5.45 -21.6 -10.15 L-21.3 -10.35 Q-19.1 -10.4 -16.95 -11.15 -15.75 -11.6 -14.65 -12.35 -8.95 -16.35 -5.05 -22.0 L-4.85 -22.1 -4.7 -22.15 -4.65 -22.25 -4.5 -22.5 -4.5 -22.7 Q2.65 -22.85 9.2 -19.95 13.65 -17.95 15.95 -13.65 L16.25 -13.6 M7.75 17.05 L8.4 13.5 Q9.15 8.45 9.1 3.25 L8.8 -0.15 9.35 1.4 Q11.0 8.6 11.05 16.25 L11.2 16.45 11.2 16.5 7.75 17.05 M18.25 6.75 L17.9 2.8 Q19.3 8.3 19.75 14.0 L19.75 14.05 Q18.55 15.2 17.6 14.8 18.35 12.9 18.35 10.85 L18.25 6.75" fill="#ffffff" fill-rule="evenodd" stroke="none"/>
  </g>
</svg>
