<?xml version="1.0" encoding="UTF-8" standalone="no"?>
<svg xmlns:xlink="http://www.w3.org/1999/xlink" height="42.65px" width="46.7px" xmlns="http://www.w3.org/2000/svg">
  <g transform="matrix(1.0, 0.0, 0.0, 1.0, 23.35, 21.3)">
    <path d="M-1.3 -17.9 Q3.9 -22.15 10.65 -21.1 20.25 -18.85 22.8 -9.6 24.1 -4.75 22.2 -0.3 21.6 1.2 20.5 2.25 L16.75 5.3 16.3 6.85 16.35 7.2 16.05 8.9 Q13.85 17.85 5.1 20.7 2.7 21.5 0.25 21.35 -7.8 20.7 -11.95 13.95 -19.4 13.25 -22.25 6.65 -24.3 2.0 -22.45 -2.75 L-17.0 -3.45 -17.55 -3.75 -18.7 -5.2 -19.0 -6.45 -19.35 -7.8 -19.95 -8.45 -15.3 -16.85 -13.65 -18.0 Q-12.5 -18.65 -11.1 -18.6 L-2.15 -16.5 -2.05 -17.25 -1.3 -17.9 M16.95 2.85 L18.85 1.15 Q20.2 -0.2 20.7 -2.05 22.2 -8.9 18.15 -14.45 16.15 -17.3 12.65 -18.5 5.35 -20.95 -0.7 -16.25 L-0.75 -16.1 Q6.5 -15.0 11.4 -9.35 15.95 -4.2 16.7 2.7 L16.8 2.95 16.95 2.85 M-10.15 14.25 Q-7.9 16.55 -5.2 17.75 1.1 20.55 7.15 17.4 8.8 16.55 10.0 15.2 L13.1 11.05 14.05 7.65 13.85 7.1 14.25 5.55 13.25 0.8 13.7 0.5 Q13.2 -2.65 11.55 -5.4 7.9 -11.65 0.95 -13.8 L-3.55 -14.75 Q-7.4 -16.0 -11.4 -15.7 -13.65 -15.55 -14.65 -13.4 -15.95 -10.65 -18.05 -8.3 L-18.3 -8.1 -15.05 -3.65 -13.0 -10.8 -12.6 -10.85 Q-11.2 -7.6 -12.1 -4.1 -12.45 -2.8 -13.6 -2.05 -16.7 0.25 -19.75 -1.8 L-20.75 -1.8 Q-21.45 0.65 -21.05 3.2 -20.75 5.6 -19.25 7.4 -18.15 8.8 -16.75 9.65 -11.35 12.75 -5.3 11.0 L-4.7 11.65 -4.75 11.85 Q-6.65 14.5 -10.0 14.1 L-10.2 14.15 -10.15 14.25 M0.85 5.2 L0.75 5.25 0.75 5.5 Q4.3 2.1 4.6 -2.35 L4.35 -3.1 Q3.9 -3.85 3.4 -4.0 L3.45 -3.4 3.45 -3.1 3.15 -2.1 3.05 -1.85 3.25 -1.25 1.8 2.6 0.85 5.2 M-0.85 5.35 L-0.8 5.05 -0.65 4.5 -0.6 4.3 -0.4 4.1 -0.15 3.85 1.5 -2.4 2.0 -5.0 1.85 -5.65 1.95 -6.15 2.35 -6.4 2.85 -6.5 2.9 -6.55 6.7 -2.65 6.9 -2.35 Q5.1 4.6 -0.7 9.1 -1.85 9.95 -2.6 8.75 L-2.0 7.25 -1.85 6.9 -0.85 5.6 -0.85 5.35 M10.0 4.25 L10.0 4.3 7.15 11.5 7.1 11.75 11.1 5.9 10.0 4.25 M11.85 8.0 L9.0 12.1 Q7.15 14.55 4.5 15.6 L4.05 15.25 3.8 14.95 Q6.45 9.6 8.1 3.9 8.5 2.35 9.75 2.15 12.5 3.6 12.35 6.45 12.3 7.3 11.85 8.0" fill="#999999" fill-rule="evenodd" stroke="none"/>
    <path d="M16.7 2.7 Q15.95 -4.2 11.4 -9.35 6.5 -15.0 -0.75 -16.1 L-0.7 -16.25 Q5.35 -20.95 12.65 -18.5 16.15 -17.3 18.15 -14.45 22.2 -8.9 20.7 -2.05 20.2 -0.2 18.85 1.15 L16.95 2.85 16.7 2.7 M-10.0 14.1 Q-6.65 14.5 -4.75 11.85 L-4.7 11.65 -5.3 11.0 Q-11.35 12.75 -16.75 9.65 -18.15 8.8 -19.25 7.4 -20.75 5.6 -21.05 3.2 -21.45 0.65 -20.75 -1.8 L-19.75 -1.8 Q-16.7 0.25 -13.6 -2.05 -12.45 -2.8 -12.1 -4.1 -11.2 -7.6 -12.6 -10.85 L-13.0 -10.8 -15.05 -3.65 -18.3 -8.1 -18.05 -8.3 Q-15.95 -10.65 -14.65 -13.4 -13.65 -15.55 -11.4 -15.7 -7.4 -16.0 -3.55 -14.75 L0.95 -13.8 Q7.9 -11.65 11.55 -5.4 13.2 -2.65 13.7 0.5 L13.25 0.8 14.25 5.55 13.85 7.1 14.05 7.65 13.1 11.05 10.0 15.2 Q8.8 16.55 7.15 17.4 1.1 20.55 -5.2 17.75 -7.9 16.55 -10.15 14.25 L-10.0 14.1 M1.8 2.6 L3.25 -1.25 3.05 -1.85 3.15 -2.1 3.45 -3.1 3.45 -3.4 3.4 -4.0 Q3.9 -3.85 4.35 -3.1 L4.6 -2.35 Q4.3 2.1 0.75 5.5 L0.75 5.25 0.85 5.2 3.3 0.9 Q3.6 0.35 3.25 0.4 L1.8 2.6 M-2.0 7.25 L-2.6 8.75 Q-1.85 9.95 -0.7 9.1 5.1 4.6 6.9 -2.35 L6.7 -2.65 2.9 -6.55 2.85 -6.5 2.35 -6.4 1.95 -6.15 1.85 -5.65 2.0 -5.0 1.5 -2.4 -0.15 3.85 -0.4 4.1 -0.6 4.3 -0.65 4.5 -0.8 5.05 -0.85 5.35 -1.9 6.2 -2.2 6.45 -2.0 7.25 M-2.7 5.55 L-2.9 5.3 -2.85 5.55 -2.7 5.55 M9.45 5.8 L9.05 7.3 9.05 7.6 Q10.0 6.7 9.5 5.75 L9.45 5.8 M11.85 8.0 Q12.3 7.3 12.35 6.45 12.5 3.6 9.75 2.15 8.5 2.35 8.1 3.9 6.45 9.6 3.8 14.95 L4.05 15.25 4.5 15.6 Q7.15 14.55 9.0 12.1 L11.85 8.0 M10.0 4.25 L11.1 5.9 7.1 11.75 7.15 11.5 10.0 4.3 10.0 4.25" fill="#ffffff" fill-rule="evenodd" stroke="none"/>
  </g>
</svg>
