<?xml version="1.0" encoding="UTF-8" standalone="no"?>
<svg xmlns:xlink="http://www.w3.org/1999/xlink" height="29.0px" width="21.7px" xmlns="http://www.w3.org/2000/svg">
  <g transform="matrix(1.0, 0.0, 0.0, 1.0, 10.85, 14.5)">
    <path d="M5.05 -14.45 L5.05 -14.5 5.35 -14.4 5.8 -14.4 6.15 -14.25 6.65 -13.9 8.6 -12.5 Q10.0 -11.0 10.45 -8.55 11.85 -1.15 8.4 5.75 5.1 12.4 -2.2 14.3 L-5.3 14.2 Q-7.6 13.4 -8.95 11.75 L-9.25 11.6 -9.45 11.45 -9.85 10.5 -10.05 10.1 -10.0 10.05 Q-10.6 8.4 -10.75 6.6 -11.25 0.5 -8.9 -5.0 -6.55 -10.65 -1.15 -13.3 L-0.95 -13.5 -0.8 -13.6 -0.7 -13.65 Q0.35 -13.75 1.2 -14.35 L1.3 -14.4 1.8 -14.45 1.8 -14.5 4.95 -14.4 5.0 -14.4 5.05 -14.45 M6.4 -11.8 L5.65 -12.35 Q2.7 -12.85 -0.15 -11.8 -3.5 -10.4 -5.55 -7.4 -7.85 -4.1 -8.65 -0.15 L-8.8 0.7 -8.8 0.75 Q-9.7 5.8 -8.45 10.75 -3.55 14.65 2.05 10.55 4.85 8.55 6.5 5.5 10.0 -0.9 8.5 -7.85 L8.25 -9.15 Q7.65 -10.75 6.4 -11.8" fill="#000000" fill-rule="evenodd" stroke="none"/>
    <path d="M-8.8 0.7 L-1.9 0.7 Q0.25 -6.85 6.35 -11.75 L6.4 -11.8 Q7.65 -10.75 8.25 -9.15 L8.5 -7.85 Q10.0 -0.9 6.5 5.5 4.85 8.55 2.05 10.55 -3.55 14.65 -8.45 10.75 -9.7 5.8 -8.8 0.75 L-8.8 0.7" fill="#d6280a" fill-rule="evenodd" stroke="none"/>
    <path d="M6.4 -11.8 L6.35 -11.75 Q0.25 -6.85 -1.9 0.7 L-8.8 0.7 -8.65 -0.15 Q-7.85 -4.1 -5.55 -7.4 -3.5 -10.4 -0.15 -11.8 2.7 -12.85 5.65 -12.35 L6.4 -11.8" fill="#ff0000" fill-rule="evenodd" stroke="none"/>
  </g>
</svg>
