<?xml version="1.0" encoding="UTF-8" standalone="no"?>
<svg xmlns:xlink="http://www.w3.org/1999/xlink" height="44.45px" width="41.3px" xmlns="http://www.w3.org/2000/svg">
  <g transform="matrix(1.0, 0.0, 0.0, 1.0, 20.65, 22.25)">
    <path d="M-3.35 2.35 L-3.4 2.25 Q-4.65 -2.85 -4.25 -8.05 -3.95 -12.0 -2.3 -15.65 -1.2 -18.15 0.7 -19.8 L-0.3 -19.9 -6.05 -19.25 -7.15 -19.1 -9.1 -18.05 Q-12.95 -15.8 -15.7 -12.15 -16.85 -10.65 -17.45 -8.9 -20.0 -1.55 -17.35 5.6 -14.3 13.9 -6.05 17.6 -3.2 18.85 -0.25 19.7 3.35 20.75 6.85 20.55 4.5 19.35 2.85 16.8 -1.55 10.05 -3.35 2.35 M-11.45 -18.85 Q-9.2 -20.4 -6.55 -21.0 L-6.4 -21.15 -5.95 -21.5 -4.6 -22.0 -4.35 -22.05 -3.8 -22.15 3.4 -21.65 3.7 -21.8 4.3 -21.75 4.5 -21.55 4.65 -21.35 4.65 -21.3 Q7.45 -20.45 10.0 -18.8 16.55 -14.65 18.75 -7.3 20.3 -1.9 20.6 3.65 20.9 10.35 17.9 16.2 16.4 18.4 14.3 20.1 12.15 21.9 9.35 22.1 -1.5 22.95 -10.5 17.0 -16.55 13.05 -19.05 6.35 -21.8 -0.8 -19.8 -8.2 -18.75 -12.25 -15.8 -15.2 -13.85 -17.2 -11.45 -18.85 M14.95 -10.7 Q13.6 -13.9 10.6 -16.1 8.2 -17.8 5.4 -18.85 L3.35 -19.4 2.65 -18.9 1.8 -18.15 Q-1.9 -13.9 -2.15 -8.05 -2.3 -3.5 -1.4 0.9 L-1.2 1.9 Q0.35 8.6 3.95 14.55 6.1 18.1 9.85 19.3 L11.0 19.8 12.1 19.45 12.85 19.05 Q13.6 18.4 14.4 17.85 14.8 16.8 15.65 16.0 16.65 15.05 16.85 13.7 L16.9 13.55 17.05 13.35 17.35 12.95 Q18.5 9.45 18.5 5.65 18.5 -1.15 16.15 -7.6 L14.95 -10.7" fill="#000000" fill-rule="evenodd" stroke="none"/>
    <path d="M-9.1 -18.05 L-7.15 -19.1 -6.05 -19.25 -0.3 -19.9 0.7 -19.8 Q-1.2 -18.15 -2.3 -15.65 -3.95 -12.0 -4.25 -8.05 -4.65 -2.85 -3.4 2.25 L-3.35 2.35 Q-8.5 2.95 -12.9 -0.55 -15.95 -2.9 -15.15 -6.65 -13.7 -13.35 -9.1 -18.05" fill="#ff0000" fill-rule="evenodd" stroke="none"/>
    <path d="M-3.35 2.35 Q-1.55 10.05 2.85 16.8 4.5 19.35 6.85 20.55 3.35 20.75 -0.25 19.7 -3.2 18.85 -6.05 17.6 -14.3 13.9 -17.35 5.6 -20.0 -1.55 -17.45 -8.9 -16.85 -10.65 -15.7 -12.15 -12.95 -15.8 -9.1 -18.05 -13.7 -13.35 -15.15 -6.65 -15.95 -2.9 -12.9 -0.55 -8.5 2.95 -3.35 2.35" fill="#d6280a" fill-rule="evenodd" stroke="none"/>
    <path d="M14.95 -10.7 L16.15 -7.6 Q18.5 -1.15 18.5 5.65 18.5 9.45 17.35 12.95 L17.05 13.35 16.9 13.55 16.85 13.7 Q16.65 15.05 15.65 16.0 14.8 16.8 14.4 17.85 13.6 18.4 12.85 19.05 L12.1 19.45 11.0 19.8 9.85 19.3 Q6.1 18.1 3.95 14.55 0.35 8.6 -1.2 1.9 L-1.4 0.9 Q-2.3 -3.5 -2.15 -8.05 -1.9 -13.9 1.8 -18.15 L2.65 -18.9 3.35 -19.4 5.4 -18.85 Q8.2 -17.8 10.6 -16.1 13.6 -13.9 14.95 -10.7" fill="#990000" fill-rule="evenodd" stroke="none"/>
  </g>
</svg>
