<?xml version="1.0" encoding="UTF-8" standalone="no"?>
<svg xmlns:xlink="http://www.w3.org/1999/xlink" height="22.9px" width="62.35px" xmlns="http://www.w3.org/2000/svg">
  <g transform="matrix(1.0, 0.0, 0.0, 1.0, 31.15, 11.45)">
    <path d="M8.2 -6.85 Q19.65 -7.85 30.85 -6.75 L30.95 -6.85 30.95 -6.95 31.2 -6.9 30.2 -3.7 Q28.25 2.3 30.1 8.0 28.5 9.15 25.85 8.8 22.2 8.3 18.5 8.8 L1.15 11.05 Q-9.7 12.35 -19.85 9.2 L-22.55 8.25 Q-26.0 6.85 -28.3 4.05 L-28.25 3.8 Q-29.0 2.8 -29.4 1.6 L-29.45 1.4 Q-31.2 -2.0 -31.15 -5.9 L-31.1 -7.05 -31.0 -7.2 -30.85 -7.4 Q-30.9 -9.6 -29.75 -11.0 L-30.05 -11.4 -27.25 -11.45 Q-18.25 -7.0 -7.9 -6.55 -1.35 -6.25 5.2 -6.6 L8.2 -6.85 M27.8 -3.5 L27.45 -3.6 27.1 -3.85 27.1 -3.95 Q16.1 -5.1 5.15 -3.45 -10.8 -1.1 -24.9 -7.35 -27.0 -8.25 -28.6 -9.75 -29.2 -8.55 -29.25 -7.1 L-29.35 -6.75 Q-29.25 -0.95 -25.95 3.65 -18.0 7.95 -8.7 8.2 4.95 8.5 18.2 5.5 22.85 4.45 27.05 5.35 26.25 1.65 27.3 -2.2 L27.45 -2.95 27.8 -3.5" fill="#000000" fill-rule="evenodd" stroke="none"/>
    <path d="M27.8 -3.5 L27.45 -2.95 27.3 -2.2 Q26.25 1.65 27.05 5.35 22.85 4.45 18.2 5.5 4.95 8.5 -8.7 8.2 -18.0 7.95 -25.95 3.65 -29.25 -0.95 -29.35 -6.75 L-29.25 -7.1 Q-29.2 -8.55 -28.6 -9.75 -27.0 -8.25 -24.9 -7.35 -10.8 -1.1 5.15 -3.45 16.1 -5.1 27.1 -3.95 L27.1 -3.85 27.45 -3.6 27.8 -3.5" fill="#0ecfe4" fill-rule="evenodd" stroke="none"/>
  </g>
</svg>
