<?xml version="1.0" encoding="UTF-8" standalone="no"?>
<svg xmlns:xlink="http://www.w3.org/1999/xlink" height="31.05px" width="66.7px" xmlns="http://www.w3.org/2000/svg">
  <g transform="matrix(1.0, 0.0, 0.0, 1.0, 33.35, 15.55)">
    <path d="M0.3 1.2 Q-4.15 1.5 -8.45 2.7 L-13.3 4.2 Q-20.8 6.95 -26.15 12.7 L-26.45 13.05 -26.8 12.85 Q-29.8 8.0 -31.15 2.5 L-31.65 0.1 Q-31.85 -0.85 -31.65 -1.65 L-31.6 -1.5 -31.55 -1.3 -31.2 -1.35 -31.05 -1.5 -31.05 -1.65 -31.05 -1.85 -28.55 -3.45 -26.95 -4.55 Q-21.15 -8.4 -14.45 -10.65 -9.0 -12.45 -3.3 -13.05 3.95 -13.85 11.15 -13.0 18.35 -12.15 24.7 -9.0 L26.25 -8.1 Q27.0 -7.6 27.65 -7.45 L28.15 -7.1 Q28.45 -6.55 28.9 -6.1 30.6 -4.4 31.15 -2.05 L31.35 -1.85 31.4 -1.65 Q31.65 0.85 30.1 2.7 26.8 6.65 22.2 5.0 21.85 4.45 20.7 4.1 L14.95 2.4 Q7.9 0.6 0.55 1.15 L0.3 1.2" fill="#0ecfe4" fill-rule="evenodd" stroke="none"/>
    <path d="M0.3 1.2 L0.55 1.15 Q7.9 0.6 14.95 2.4 L20.7 4.1 Q21.85 4.45 22.2 5.0 26.8 6.65 30.1 2.7 31.65 0.85 31.4 -1.65 L31.35 -1.85 31.15 -2.05 Q30.6 -4.4 28.9 -6.1 28.45 -6.55 28.15 -7.1 L27.65 -7.45 Q27.0 -7.6 26.25 -8.1 L24.7 -9.0 Q18.35 -12.15 11.15 -13.0 3.95 -13.85 -3.3 -13.05 -9.0 -12.45 -14.45 -10.65 -21.15 -8.4 -26.95 -4.55 L-28.55 -3.45 -31.05 -1.85 -31.05 -1.65 -31.05 -1.5 -31.2 -1.35 -31.55 -1.3 -31.6 -1.5 -31.65 -1.65 Q-31.85 -0.85 -31.65 0.1 L-31.15 2.5 Q-29.8 8.0 -26.8 12.85 L-26.45 13.05 -26.15 12.7 Q-20.8 6.95 -13.3 4.2 L-8.45 2.7 Q-4.15 1.5 0.3 1.2 M-30.7 -3.5 Q-25.6 -7.9 -19.45 -10.75 -11.7 -14.35 -3.15 -14.85 L6.4 -15.55 Q13.85 -15.05 21.0 -12.65 L26.9 -10.1 27.4 -10.15 Q31.25 -8.15 32.8 -4.0 33.85 -1.2 32.95 1.7 32.25 3.95 30.4 5.45 26.35 8.7 21.75 6.7 19.75 6.5 17.7 5.7 9.65 2.55 0.8 3.35 -5.3 3.95 -11.15 5.95 -14.75 7.15 -18.2 8.85 -22.55 11.0 -25.65 14.55 L-26.1 15.35 -26.3 15.35 -26.4 15.45 -26.55 15.5 -27.3 15.45 -27.4 15.25 -27.45 15.15 Q-28.45 14.7 -29.1 13.45 L-29.15 13.1 -29.2 12.9 Q-33.3 6.65 -33.35 -0.8 -33.35 -2.35 -32.35 -3.45 L-31.85 -3.8 -30.95 -3.85 -30.8 -3.65 -30.7 -3.5" fill="#000000" fill-rule="evenodd" stroke="none"/>
  </g>
</svg>
