<?xml version="1.0" encoding="UTF-8" standalone="no"?>
<svg xmlns:xlink="http://www.w3.org/1999/xlink" height="48.0px" width="60.55px" xmlns="http://www.w3.org/2000/svg">
  <g transform="matrix(1.0, 0.0, 0.0, 1.0, 35.15, 22.8)">
    <path d="M-22.45 -10.35 L-22.35 -9.65 Q-22.15 -4.65 -20.4 -0.1 -18.45 5.2 -13.85 8.35 -13.0 8.95 -12.45 9.75 -9.05 14.75 -12.0 19.8 -10.6 21.3 -8.5 21.45 L-5.9 21.25 Q-4.0 20.75 -2.8 19.25 -0.3 16.2 -1.9 12.5 -3.9 8.0 -2.55 3.8 L-1.95 3.8 -0.8 4.0 Q3.25 4.8 5.45 8.4 L12.5 20.45 Q14.0 23.0 17.0 23.0 L17.8 22.7 Q19.8 21.5 20.8 19.5 24.1 13.1 23.3 5.8 22.3 -3.45 16.9 -11.35 15.4 -13.6 13.05 -15.3 5.4 -21.0 -4.25 -20.75 -14.25 -20.4 -20.7 -13.1 L-22.45 -10.35 M-24.05 -11.25 L-21.85 -14.65 Q-16.2 -20.85 -8.05 -22.35 -1.45 -23.55 4.95 -21.6 14.7 -18.65 20.05 -10.05 27.05 1.2 24.85 14.3 24.15 18.35 21.5 21.8 L19.25 24.05 Q15.7 26.65 12.3 23.4 11.2 22.3 10.5 21.0 7.45 15.05 3.5 9.5 1.75 7.1 -0.95 6.05 L0.25 15.5 Q0.4 16.8 0.15 18.1 -0.45 21.3 -3.4 22.6 -9.3 25.1 -13.8 20.8 L-12.7 14.9 Q-12.35 12.9 -13.45 10.7 L-14.2 12.05 Q-14.75 12.95 -15.9 13.3 -19.95 14.6 -23.9 13.15 -30.6 10.75 -33.6 4.2 -36.4 -1.8 -34.2 -8.15 -33.75 -9.5 -32.75 -10.35 -28.9 -13.95 -24.05 -11.25 M4.4 -14.75 L4.3 -15.35 3.1 -16.2 0.9 -12.25 Q10.6 -10.45 15.4 -1.75 12.75 -9.55 6.0 -14.35 L4.4 -14.75 M17.4 2.75 L16.65 2.65 16.1 1.35 12.55 -3.95 Q10.6 -6.75 7.55 -8.6 3.95 -10.9 -0.1 -11.45 0.3 -13.45 1.45 -15.15 L1.85 -16.4 Q1.9 -17.2 3.25 -17.5 10.05 -14.05 14.15 -7.65 17.4 -2.7 17.65 2.8 L17.4 2.75 M-29.05 -10.15 L-32.25 -9.5 Q-35.05 -3.05 -31.7 3.45 -27.35 11.8 -17.7 11.6 -15.9 11.55 -15.1 10.0 L-16.6 8.65 Q-24.1 1.45 -24.2 -8.95 -26.3 -10.65 -29.05 -10.15" fill="#999999" fill-rule="evenodd" stroke="none"/>
    <path d="M-22.45 -10.35 L-20.7 -13.1 Q-14.25 -20.4 -4.25 -20.75 5.4 -21.0 13.05 -15.3 15.4 -13.6 16.9 -11.35 22.3 -3.45 23.3 5.8 24.1 13.1 20.8 19.5 19.8 21.5 17.8 22.7 L17.0 23.0 Q14.0 23.0 12.5 20.45 L5.45 8.4 Q3.25 4.8 -0.8 4.0 L-1.95 3.8 -2.55 3.8 Q-3.9 8.0 -1.9 12.5 -0.3 16.2 -2.8 19.25 -4.0 20.75 -5.9 21.25 L-8.5 21.45 Q-10.6 21.3 -12.0 19.8 -9.05 14.75 -12.45 9.75 -13.0 8.95 -13.85 8.35 -18.45 5.2 -20.4 -0.1 -22.15 -4.65 -22.35 -9.65 L-22.45 -10.35 M-29.05 -10.15 Q-26.3 -10.65 -24.2 -8.95 -24.1 1.45 -16.6 8.65 L-15.1 10.0 Q-15.9 11.55 -17.7 11.6 -27.35 11.8 -31.7 3.45 -35.05 -3.05 -32.25 -9.5 L-29.05 -10.15 M17.4 2.75 L17.65 2.8 Q17.4 -2.7 14.15 -7.65 10.05 -14.05 3.25 -17.5 1.9 -17.2 1.85 -16.4 L1.45 -15.15 Q0.3 -13.45 -0.1 -11.45 3.95 -10.9 7.55 -8.6 10.6 -6.75 12.55 -3.95 L16.1 1.35 16.65 2.65 17.4 2.75 M4.4 -14.75 L6.0 -14.35 Q12.75 -9.55 15.4 -1.75 10.6 -10.45 0.9 -12.25 L3.1 -16.2 4.3 -15.35 4.4 -14.75" fill="#ffffff" fill-rule="evenodd" stroke="none"/>
  </g>
</svg>
