<?xml version="1.0" encoding="UTF-8" standalone="no"?>
<svg xmlns:xlink="http://www.w3.org/1999/xlink" height="16.2px" width="37.65px" xmlns="http://www.w3.org/2000/svg">
  <g transform="matrix(1.0, 0.0, 0.0, 1.0, 34.25, 102.55)">
    <path d="M3.3 -101.7 Q3.55 -102.1 3.3 -102.5 L3.1 -102.55 3.0 -102.55 2.7 -102.25 2.55 -102.2 2.45 -102.0 Q-0.55 -99.25 -4.65 -98.1 L-6.95 -97.75 Q-11.4 -97.5 -15.85 -97.95 -20.25 -98.5 -24.45 -99.9 -26.8 -100.65 -28.9 -101.85 L-28.9 -101.95 -28.95 -102.2 -29.05 -102.25 -29.1 -102.3 -29.15 -102.3 -29.2 -102.35 Q-33.0 -102.45 -34.0 -98.9 L-34.25 -97.15 Q-34.3 -95.4 -33.4 -94.0 L-33.2 -94.0 -32.85 -93.6 Q-31.35 -92.25 -29.65 -91.15 -25.95 -88.6 -21.7 -87.45 -16.3 -86.0 -10.7 -86.45 -7.65 -86.7 -4.65 -87.5 -3.6 -87.8 -2.7 -88.35 -1.35 -88.7 -0.15 -89.55 0.95 -90.4 1.55 -91.65 3.35 -95.3 3.2 -99.4 L3.15 -101.45 3.3 -101.7 M1.95 -99.05 Q2.05 -96.9 1.5 -94.9 0.8 -92.45 -0.9 -90.8 L-2.25 -89.95 -4.5 -88.75 -4.6 -88.6 -6.4 -88.1 Q-14.8 -86.5 -22.9 -89.1 -26.05 -90.15 -28.85 -92.05 L-31.8 -94.4 -32.55 -95.05 -32.8 -96.6 -32.85 -97.95 Q-32.75 -98.55 -32.8 -99.2 -32.0 -100.6 -30.55 -101.1 L-29.55 -101.35 -29.35 -101.35 Q-26.4 -98.5 -22.1 -97.8 L-20.25 -97.45 -18.7 -97.1 Q-11.35 -95.6 -4.05 -97.2 -1.45 -97.8 0.8 -99.25 L2.0 -100.15 1.95 -99.05" fill="#000000" fill-rule="evenodd" stroke="none"/>
    <path d="M1.95 -99.05 L2.0 -100.15 0.8 -99.25 Q-1.45 -97.8 -4.05 -97.2 -11.35 -95.6 -18.7 -97.1 L-20.25 -97.45 -22.1 -97.8 Q-26.4 -98.5 -29.35 -101.35 L-29.55 -101.35 -30.55 -101.1 Q-32.0 -100.6 -32.8 -99.2 -32.75 -98.55 -32.85 -97.95 L-32.8 -96.6 -32.55 -95.05 -31.8 -94.4 -28.85 -92.05 Q-26.05 -90.15 -22.9 -89.1 -14.8 -86.5 -6.4 -88.1 L-4.6 -88.6 -4.5 -88.75 -2.25 -89.95 -0.9 -90.8 Q0.8 -92.45 1.5 -94.9 2.05 -96.9 1.95 -99.05" fill="#0ecfe4" fill-rule="evenodd" stroke="none"/>
  </g>
</svg>
