<?xml version="1.0" encoding="UTF-8" standalone="no"?>
<svg xmlns:xlink="http://www.w3.org/1999/xlink" height="16.2px" width="37.65px" xmlns="http://www.w3.org/2000/svg">
  <g transform="matrix(1.0, 0.0, 0.0, 1.0, 34.25, 101.35)">
    <path d="M3.3 -101.3 L3.1 -101.35 3.0 -101.35 2.7 -101.05 2.55 -101.0 2.45 -100.8 Q-0.55 -98.05 -4.65 -96.9 L-6.95 -96.55 Q-11.4 -96.3 -15.85 -96.75 -20.25 -97.3 -24.45 -98.7 -26.8 -99.45 -28.9 -100.65 L-28.9 -100.75 -28.95 -101.0 -29.05 -101.05 -29.1 -101.1 -29.15 -101.1 -29.2 -101.15 Q-33.0 -101.25 -34.0 -97.7 L-34.25 -95.95 Q-34.3 -94.2 -33.4 -92.8 L-33.2 -92.8 -32.85 -92.4 Q-31.35 -91.05 -29.65 -89.95 -25.95 -87.4 -21.7 -86.25 -16.3 -84.8 -10.7 -85.25 -7.65 -85.5 -4.65 -86.3 -3.6 -86.6 -2.7 -87.15 -1.35 -87.5 -0.15 -88.35 0.95 -89.2 1.55 -90.45 3.35 -94.1 3.2 -98.2 L3.15 -100.25 3.3 -100.5 Q3.55 -100.9 3.3 -101.3 M1.95 -97.85 Q2.05 -95.7 1.5 -93.7 0.8 -91.25 -0.9 -89.6 L-2.25 -88.75 -4.5 -87.55 -4.6 -87.4 -6.4 -86.9 Q-14.8 -85.3 -22.9 -87.9 -26.05 -88.95 -28.85 -90.85 L-31.8 -93.2 -32.55 -93.85 -32.8 -95.4 -32.85 -96.75 Q-32.75 -97.35 -32.8 -98.0 -32.0 -99.4 -30.55 -99.9 L-29.55 -100.15 -29.35 -100.15 Q-26.4 -97.3 -22.1 -96.6 L-20.25 -96.25 -18.7 -95.9 Q-11.35 -94.4 -4.05 -96.0 -1.45 -96.6 0.8 -98.05 L2.0 -98.95 1.95 -97.85" fill="#000000" fill-rule="evenodd" stroke="none"/>
    <path d="M1.95 -97.85 L2.0 -98.95 0.8 -98.05 Q-1.45 -96.6 -4.05 -96.0 -11.35 -94.4 -18.7 -95.9 L-20.25 -96.25 -22.1 -96.6 Q-26.4 -97.3 -29.35 -100.15 L-29.55 -100.15 -30.55 -99.9 Q-32.0 -99.4 -32.8 -98.0 -32.75 -97.35 -32.85 -96.75 L-32.8 -95.4 -32.55 -93.85 -31.8 -93.2 -28.85 -90.85 Q-26.05 -88.95 -22.9 -87.9 -14.8 -85.3 -6.4 -86.9 L-4.6 -87.4 -4.5 -87.55 -2.25 -88.75 -0.9 -89.6 Q0.8 -91.25 1.5 -93.7 2.05 -95.7 1.95 -97.85" fill="#0ecfe4" fill-rule="evenodd" stroke="none"/>
  </g>
</svg>
