<?xml version="1.0" encoding="UTF-8" standalone="no"?>
<svg xmlns:xlink="http://www.w3.org/1999/xlink" height="43.4px" width="55.1px" xmlns="http://www.w3.org/2000/svg">
  <g transform="matrix(1.0, 0.0, 0.0, 1.0, -40.85, 73.5)">
    <path d="M52.65 -63.55 Q47.55 -64.35 42.55 -62.6 L41.65 -60.15 Q41.95 -58.7 43.0 -57.9 48.25 -53.75 55.4 -53.0 57.85 -52.1 60.0 -50.65 63.85 -48.0 67.2 -44.9 71.25 -41.15 74.8 -37.0 78.1 -33.1 82.8 -31.5 L82.95 -31.7 Q86.65 -34.7 88.8 -38.8 L88.65 -38.9 Q85.95 -38.8 83.25 -39.0 79.0 -39.5 75.5 -41.95 L73.1 -43.95 70.05 -46.75 68.7 -48.0 65.2 -51.0 61.35 -53.55 59.8 -54.45 58.15 -55.25 54.7 -56.4 53.25 -56.75 51.2 -56.95 51.55 -57.1 51.7 -57.25 52.85 -59.05 53.0 -59.65 53.2 -60.75 Q53.45 -62.3 52.65 -63.55" fill="#0db5c8" fill-rule="evenodd" stroke="none"/>
    <path d="M88.8 -38.8 Q86.65 -34.7 82.95 -31.7 L82.8 -31.5 Q78.1 -33.1 74.8 -37.0 71.25 -41.15 67.2 -44.9 63.85 -48.0 60.0 -50.65 57.85 -52.1 55.4 -53.0 48.25 -53.75 43.0 -57.9 41.95 -58.7 41.65 -60.15 L42.55 -62.6 Q47.55 -64.35 52.65 -63.55 55.2 -63.15 57.85 -62.05 L64.3 -59.8 Q68.9 -57.85 73.0 -54.95 L75.6 -52.85 Q75.6 -50.7 76.0 -48.55 76.65 -45.35 78.6 -42.8 L77.05 -48.0 Q76.55 -49.95 76.45 -51.85 76.25 -52.55 76.35 -53.45 L76.45 -53.65 76.55 -53.8 Q76.8 -56.45 77.95 -59.1 79.65 -63.0 82.35 -66.3 84.4 -68.95 87.2 -70.5 89.15 -71.6 91.2 -72.2 93.0 -69.3 93.85 -66.05 91.7 -66.2 89.65 -65.05 L88.15 -64.2 Q83.95 -61.6 82.0 -57.05 L82.3 -55.4 82.35 -55.4 Q82.65 -55.8 82.75 -56.5 L82.7 -56.8 Q85.15 -60.9 89.25 -63.3 91.45 -64.65 93.9 -65.2 L93.95 -65.4 94.0 -65.25 94.3 -63.5 Q94.85 -58.8 94.1 -54.0 93.35 -49.0 91.35 -44.4 L90.7 -43.05 90.55 -42.9 90.45 -42.85 88.85 -38.9 88.8 -38.8 M84.45 -31.45 Q85.4 -32.0 86.15 -33.0 88.5 -35.9 90.3 -39.05 L92.15 -42.75 93.2 -45.4 95.45 -54.15 95.7 -55.95 95.8 -57.25 Q96.4 -62.35 94.85 -67.2 93.95 -70.15 92.0 -72.4 L92.05 -72.4 91.15 -73.2 90.75 -73.5 Q89.35 -73.4 88.1 -72.7 L84.9 -70.7 Q82.45 -68.85 80.7 -66.4 78.8 -63.85 77.5 -60.9 L76.8 -59.25 76.35 -58.4 Q75.8 -56.45 75.65 -54.45 73.6 -56.6 70.95 -58.05 66.55 -60.5 61.75 -62.15 L58.15 -63.2 Q50.65 -66.05 43.5 -64.15 41.7 -63.7 41.2 -61.95 39.6 -57.0 45.0 -55.05 L55.05 -51.65 57.9 -50.35 60.0 -49.05 Q64.2 -46.2 67.7 -42.65 L74.6 -35.35 Q78.05 -31.55 82.85 -30.1 L83.5 -30.75 84.4 -31.4 84.45 -31.45" fill="#000000" fill-rule="evenodd" stroke="none"/>
    <path d="M52.65 -63.55 Q53.45 -62.3 53.2 -60.75 L53.0 -59.65 52.85 -59.05 51.7 -57.25 51.55 -57.1 51.2 -56.95 53.25 -56.75 54.7 -56.4 58.15 -55.25 59.8 -54.45 61.35 -53.55 65.2 -51.0 68.7 -48.0 70.05 -46.75 73.1 -43.95 75.5 -41.95 Q79.0 -39.5 83.25 -39.0 85.95 -38.8 88.65 -38.9 L88.8 -38.8 88.85 -38.9 90.45 -42.85 90.55 -42.9 90.7 -43.05 91.35 -44.4 Q93.35 -49.0 94.1 -54.0 94.85 -58.8 94.3 -63.5 L94.0 -65.25 93.9 -65.2 Q91.45 -64.65 89.25 -63.3 85.15 -60.9 82.7 -56.8 L82.75 -56.5 Q82.65 -55.8 82.35 -55.4 L82.3 -55.4 82.0 -57.05 Q83.95 -61.6 88.15 -64.2 L89.65 -65.05 Q91.7 -66.2 93.85 -66.05 93.0 -69.3 91.2 -72.2 89.15 -71.6 87.2 -70.5 84.4 -68.95 82.35 -66.3 79.65 -63.0 77.95 -59.1 76.8 -56.45 76.55 -53.8 L76.45 -53.65 76.35 -53.45 Q76.25 -52.55 76.45 -51.85 76.55 -49.95 77.05 -48.0 L78.6 -42.8 Q76.65 -45.35 76.0 -48.55 75.6 -50.7 75.6 -52.85 L73.0 -54.95 Q68.9 -57.85 64.3 -59.8 L57.85 -62.05 Q55.2 -63.15 52.65 -63.55" fill="#0ecfe4" fill-rule="evenodd" stroke="none"/>
  </g>
</svg>
