<?xml version="1.0" encoding="UTF-8" standalone="no"?>
<svg xmlns:xlink="http://www.w3.org/1999/xlink" height="29.7px" width="64.95px" xmlns="http://www.w3.org/2000/svg">
  <g transform="matrix(1.0, 0.0, 0.0, 1.0, 32.45, 14.85)">
    <path d="M-31.35 -12.05 Q-30.25 -2.05 -22.8 4.9 L-22.3 4.75 -16.45 8.7 Q-13.65 10.2 -10.5 11.1 -0.25 14.1 10.2 11.95 L17.4 10.05 22.45 8.3 24.7 7.7 27.4 6.0 28.35 4.75 28.85 4.05 29.45 3.4 Q31.0 -0.1 29.85 -3.5 L29.4 -4.3 Q26.5 -8.15 21.45 -7.1 L20.3 -6.85 Q18.8 -5.4 16.7 -4.4 12.1 -2.2 7.15 -1.2 -2.5 0.75 -12.05 -1.65 -14.35 -2.25 -16.45 -3.15 L-30.7 -11.75 -31.35 -12.05 M-31.9 -14.8 L-31.05 -14.85 -31.1 -13.65 Q-23.25 -10.35 -16.45 -5.25 -14.0 -4.1 -11.3 -3.35 -4.5 -1.45 2.5 -2.5 5.6 -2.95 8.65 -3.75 L12.15 -4.85 Q16.55 -6.55 20.4 -9.05 L21.2 -8.9 24.7 -9.2 Q30.45 -8.3 32.1 -2.95 32.8 -0.75 32.25 1.5 31.9 2.1 31.8 2.85 L31.55 3.6 31.5 3.8 31.6 3.75 31.5 4.0 30.3 5.2 Q27.8 7.6 24.9 9.45 L23.9 10.1 23.7 10.15 Q17.3 12.65 10.6 14.0 L-3.05 14.6 Q-6.95 14.15 -10.65 13.0 -13.7 12.1 -16.45 10.6 L-20.4 8.0 -18.35 9.75 -20.3 9.8 -21.05 9.25 -21.0 8.7 Q-31.5 0.7 -32.45 -12.5 L-32.3 -14.45 -31.9 -14.8" fill="#000000" fill-rule="evenodd" stroke="none"/>
    <path d="M-31.35 -12.05 L-30.7 -11.75 -16.45 -3.15 Q-14.35 -2.25 -12.05 -1.65 -2.5 0.75 7.15 -1.2 12.1 -2.2 16.7 -4.4 18.8 -5.4 20.3 -6.85 L21.45 -7.1 Q26.5 -8.15 29.4 -4.3 L29.85 -3.5 Q31.0 -0.1 29.45 3.4 L28.85 4.05 28.35 4.75 27.4 6.0 24.7 7.7 22.45 8.3 17.4 10.05 10.2 11.95 Q-0.25 14.1 -10.5 11.1 -13.65 10.2 -16.45 8.7 L-22.3 4.75 -22.8 4.9 Q-30.25 -2.05 -31.35 -12.05" fill="#0ecfe4" fill-rule="evenodd" stroke="none"/>
  </g>
</svg>
