<?xml version="1.0" encoding="UTF-8" standalone="no"?>
<svg xmlns:xlink="http://www.w3.org/1999/xlink" height="61.05px" width="52.6px" xmlns="http://www.w3.org/2000/svg">
  <g transform="matrix(1.0, 0.0, 0.0, 1.0, 26.3, 30.55)">
    <path d="M9.3 -30.55 Q16.85 -30.25 22.75 -26.25 L23.6 -25.6 Q27.25 -22.6 26.0 -18.45 L25.8 -17.95 Q24.65 -14.95 21.35 -13.7 L20.05 -13.3 Q18.55 -12.9 17.8 -11.7 L17.2 -10.6 Q15.9 -8.25 15.6 -5.6 L14.85 0.2 14.35 4.15 14.05 6.5 Q13.35 12.25 9.95 17.35 L9.45 18.1 9.3 18.3 Q7.85 20.3 5.9 21.95 L3.3 23.8 Q2.05 24.6 0.45 24.65 -1.25 27.6 -4.05 29.05 -6.85 30.5 -10.65 30.5 L-14.9 29.95 Q-21.35 28.2 -24.35 23.05 L-25.1 21.55 -26.0 18.95 -26.25 17.4 Q-26.4 15.75 -26.15 14.15 -25.85 12.3 -24.75 10.7 -22.45 7.45 -18.1 6.65 L-18.0 6.7 Q-18.8 5.0 -18.85 3.2 -19.0 -0.4 -18.0 -3.75 L-16.85 -7.05 Q-15.9 -9.15 -14.2 -10.85 L-13.8 -11.2 -13.65 -11.35 -13.3 -11.65 -13.45 -11.8 Q-13.7 -14.85 -12.6 -17.8 -10.4 -23.55 -4.9 -26.6 -2.6 -27.9 0.3 -28.7 4.35 -29.85 8.55 -30.4 L9.3 -30.55 M7.4 -18.7 L12.55 -18.4 13.9 -18.0 14.9 -17.45 15.05 -17.3 15.25 -16.9 15.25 -16.7 12.5 -16.75 7.4 -17.1 Q2.15 -16.75 -1.45 -13.3 -0.8 -12.65 -0.45 -11.65 L-0.35 -11.35 -0.2 -10.35 Q-0.05 -8.95 -0.35 -7.65 -0.9 -5.65 -2.6 -3.9 -4.8 -1.7 -7.9 -0.65 L-7.95 -0.65 -8.45 -0.7 -8.5 -0.9 -8.5 -1.05 -8.5 -1.2 Q-5.2 -3.0 -3.35 -5.75 -2.6 -6.85 -2.1 -8.1 -1.0 -10.85 -3.45 -12.6 L-3.9 -12.85 -4.2 -13.05 -5.2 -13.35 Q-7.75 -13.0 -9.8 -11.95 L-12.4 -10.2 -13.6 -8.95 -14.75 -7.35 -14.95 -7.0 Q-17.5 -2.55 -17.45 2.55 -17.45 4.7 -16.7 6.75 L-16.7 6.85 -16.75 7.05 -16.75 7.2 -16.65 7.35 -16.35 7.55 -16.15 7.7 -16.15 7.75 -16.65 7.85 Q-15.05 9.55 -14.0 11.7 L-13.5 12.8 Q-10.85 19.1 -3.85 21.85 L-2.05 22.45 -0.85 22.75 -0.2 22.65 1.5 22.5 3.0 21.5 Q4.9 20.15 6.4 18.45 L7.9 16.65 8.6 15.6 Q11.6 10.85 11.9 5.5 12.25 0.7 13.15 -4.0 13.75 -7.15 14.75 -10.2 15.3 -12.0 16.7 -13.4 17.9 -14.6 19.45 -15.45 20.75 -16.2 22.35 -16.7 L23.2 -17.3 Q24.25 -18.95 24.2 -20.45 24.1 -22.6 21.8 -24.45 L19.65 -25.9 Q14.75 -28.85 8.95 -28.6 0.45 -28.2 -6.2 -23.75 L-8.8 -21.35 -9.05 -20.95 Q-12.1 -16.95 -12.55 -12.3 L-12.05 -12.65 Q-10.55 -13.7 -8.75 -14.25 L-6.35 -14.8 Q-3.5 -14.85 -1.95 -13.7 0.1 -16.65 3.95 -17.8 L7.4 -18.7 M-17.5 7.6 L-18.05 7.65 -18.2 7.7 -17.4 7.75 -17.5 7.6 M-19.5 8.25 Q-20.75 8.95 -21.7 9.75 -26.15 13.45 -24.3 19.15 -22.85 23.6 -19.0 26.25 -17.6 27.15 -15.85 27.85 L-15.0 28.2 -13.95 28.5 -11.3 29.0 -7.55 28.7 Q-5.0 28.0 -2.75 26.1 L-1.65 24.55 -1.75 24.55 -2.0 24.4 -2.25 24.1 -2.25 23.9 -2.5 23.75 Q-3.25 23.4 -4.25 23.1 -7.4 22.2 -9.85 20.4 L-12.75 17.5 -15.3 13.55 -17.25 9.65 -17.7 9.65 -17.8 9.6 -17.75 9.45 Q-17.6 8.85 -17.85 8.35 L-18.0 8.2 -18.85 8.05 -19.4 8.2 -19.45 8.2 -19.5 8.25" fill="#999999" fill-rule="evenodd" stroke="none"/>
    <path d="M7.4 -18.7 L3.95 -17.8 Q0.1 -16.65 -1.95 -13.7 -3.5 -14.85 -6.35 -14.8 L-8.75 -14.25 Q-10.55 -13.7 -12.05 -12.65 L-12.55 -12.3 Q-12.1 -16.95 -9.05 -20.95 L-8.8 -21.35 -6.2 -23.75 Q0.45 -28.2 8.95 -28.6 14.75 -28.85 19.65 -25.9 L21.8 -24.45 Q24.1 -22.6 24.2 -20.45 24.25 -18.95 23.2 -17.3 L22.35 -16.7 Q20.75 -16.2 19.45 -15.45 17.9 -14.6 16.7 -13.4 15.3 -12.0 14.75 -10.2 13.75 -7.15 13.15 -4.0 12.25 0.7 11.9 5.5 11.6 10.85 8.6 15.6 L7.9 16.65 6.4 18.45 Q4.9 20.15 3.0 21.5 L1.5 22.5 -0.2 22.65 -0.85 22.75 -2.05 22.45 -3.85 21.85 Q-10.85 19.1 -13.5 12.8 L-14.0 11.7 Q-15.05 9.55 -16.65 7.85 L-16.15 7.75 -16.15 7.7 -16.35 7.55 -16.65 7.35 -16.75 7.2 -16.75 7.05 -16.7 6.85 -16.7 6.75 Q-17.45 4.7 -17.45 2.55 -17.5 -2.55 -14.95 -7.0 L-14.75 -7.35 -13.6 -8.95 -12.4 -10.2 -9.8 -11.95 Q-7.75 -13.0 -5.2 -13.35 L-4.2 -13.05 -3.9 -12.85 -3.45 -12.6 Q-1.0 -10.85 -2.1 -8.1 -2.6 -6.85 -3.35 -5.75 -5.2 -3.0 -8.5 -1.2 L-8.5 -1.05 -8.5 -0.9 -8.45 -0.7 -7.95 -0.65 -7.9 -0.65 Q-4.8 -1.7 -2.6 -3.9 -0.9 -5.65 -0.35 -7.65 -0.05 -8.95 -0.2 -10.35 L-0.35 -11.35 -0.45 -11.65 Q-0.8 -12.65 -1.45 -13.3 2.15 -16.75 7.4 -17.1 L12.5 -16.75 15.25 -16.7 15.25 -16.9 15.05 -17.3 14.9 -17.45 13.9 -18.0 12.55 -18.4 7.4 -18.7 M-19.4 8.2 L-18.85 8.05 -18.0 8.2 -17.85 8.35 Q-17.6 8.85 -17.75 9.45 L-17.8 9.6 -17.7 9.65 -17.25 9.65 -15.3 13.55 -12.75 17.5 -9.85 20.4 Q-7.4 22.2 -4.25 23.1 -3.25 23.4 -2.5 23.75 L-2.25 23.9 -2.25 24.1 -2.0 24.4 -1.75 24.55 -1.65 24.55 -2.75 26.1 Q-5.0 28.0 -7.55 28.7 L-11.3 29.0 -13.95 28.5 -15.0 28.2 -15.85 27.85 Q-17.6 27.15 -19.0 26.25 -22.85 23.6 -24.3 19.15 -26.15 13.45 -21.7 9.75 -20.75 8.95 -19.5 8.25 L-19.4 8.2" fill="#ffffff" fill-rule="evenodd" stroke="none"/>
  </g>
</svg>
