<?xml version="1.0" encoding="UTF-8" standalone="no"?>
<svg xmlns:xlink="http://www.w3.org/1999/xlink" height="13.75px" width="23.15px" xmlns="http://www.w3.org/2000/svg">
  <g transform="matrix(1.0, 0.0, 0.0, 1.0, -24.5, 103.05)">
    <path d="M27.65 -101.8 L27.6 -101.8 27.25 -101.55 Q26.4 -100.6 25.85 -99.45 L25.65 -98.1 Q25.5 -97.4 25.8 -96.85 27.75 -93.2 31.55 -91.6 32.95 -91.0 34.4 -90.85 40.05 -90.05 44.35 -93.75 45.95 -95.1 46.4 -97.2 46.7 -98.55 45.75 -99.6 43.95 -101.5 41.55 -101.45 39.35 -97.75 34.8 -98.2 30.45 -98.6 27.65 -101.8" fill="#0ecfe4" fill-rule="evenodd" stroke="none"/>
    <path d="M27.65 -101.8 Q30.45 -98.6 34.8 -98.2 39.35 -97.75 41.55 -101.45 43.95 -101.5 45.75 -99.6 46.7 -98.55 46.4 -97.2 45.95 -95.1 44.35 -93.75 40.05 -90.05 34.4 -90.85 32.95 -91.0 31.55 -91.6 27.75 -93.2 25.8 -96.85 25.5 -97.4 25.65 -98.1 L25.85 -99.45 Q26.4 -100.6 27.25 -101.55 L27.6 -101.8 27.65 -101.8 M25.55 -101.35 Q23.7 -98.55 25.05 -95.5 25.5 -94.5 26.3 -93.7 28.05 -92.05 30.05 -90.75 34.5 -88.5 39.35 -89.7 42.65 -90.55 45.25 -92.75 48.1 -95.2 47.55 -98.75 47.35 -99.7 46.7 -100.4 45.75 -101.5 44.35 -102.15 43.2 -102.75 41.85 -102.6 L41.75 -102.7 41.65 -102.85 41.55 -102.95 41.45 -103.0 41.0 -103.0 40.55 -102.55 39.95 -102.1 39.95 -101.95 39.95 -101.85 39.95 -101.75 40.05 -101.65 40.2 -101.5 Q37.45 -98.5 33.25 -99.65 31.4 -100.15 30.0 -101.4 L28.2 -103.0 28.05 -103.05 Q26.5 -102.8 25.55 -101.35" fill="#333333" fill-rule="evenodd" stroke="none"/>
  </g>
</svg>
