<?xml version="1.0" encoding="UTF-8" standalone="no"?>
<svg xmlns:xlink="http://www.w3.org/1999/xlink" height="10.35px" width="23.75px" xmlns="http://www.w3.org/2000/svg">
  <g transform="matrix(1.0, 0.0, 0.0, 1.0, -24.1, 109.45)">
    <path d="M25.35 -107.5 L28.8 -108.05 Q35.4 -109.1 41.8 -107.3 L44.4 -106.35 46.1 -105.4 Q46.5 -105.15 46.85 -105.1 47.5 -103.8 46.7 -102.3 L46.65 -102.1 45.05 -100.3 37.35 -101.4 31.65 -101.7 28.1 -101.15 Q27.2 -100.95 26.6 -100.5 24.95 -102.95 25.35 -106.05 L25.35 -107.5 M24.55 -108.5 L24.45 -108.4 Q23.45 -104.0 25.4 -100.05 25.65 -99.55 26.05 -99.15 L26.75 -99.1 26.9 -99.25 27.05 -99.45 27.05 -99.5 28.8 -100.0 32.0 -100.6 Q37.65 -100.8 43.05 -99.55 L45.35 -99.4 Q48.45 -101.55 47.7 -105.1 L47.75 -105.1 47.8 -105.25 47.85 -105.35 47.85 -105.45 47.45 -105.75 47.2 -105.9 45.35 -107.0 Q42.5 -108.3 39.35 -108.9 L35.75 -109.45 26.85 -108.75 25.25 -108.45 25.15 -108.55 25.0 -108.65 24.65 -108.6 24.55 -108.5" fill="#333333" fill-rule="evenodd" stroke="none"/>
    <path d="M25.35 -107.5 L25.35 -106.05 Q24.95 -102.95 26.6 -100.5 27.2 -100.95 28.1 -101.15 L31.65 -101.7 37.35 -101.4 45.05 -100.3 46.65 -102.1 46.7 -102.3 Q47.5 -103.8 46.85 -105.1 46.5 -105.15 46.1 -105.4 L44.4 -106.35 41.8 -107.3 Q35.4 -109.1 28.8 -108.05 L25.35 -107.5" fill="#0ecfe4" fill-rule="evenodd" stroke="none"/>
  </g>
</svg>
