<?xml version="1.0" encoding="UTF-8" standalone="no"?>
<svg xmlns:xlink="http://www.w3.org/1999/xlink" height="26.15px" width="37.1px" xmlns="http://www.w3.org/2000/svg">
  <g transform="matrix(1.0, 0.0, 0.0, 1.0, -28.0, 119.3)">
    <path d="M31.3 -104.65 L31.2 -104.65 30.4 -104.4 30.15 -104.05 29.35 -103.4 Q28.9 -102.25 29.35 -101.2 29.9 -99.95 30.9 -99.0 32.7 -97.25 34.95 -96.1 38.8 -94.1 43.1 -94.6 L43.35 -94.8 44.3 -95.5 44.55 -96.25 Q44.8 -97.15 44.65 -98.05 44.4 -99.55 43.4 -100.75 L43.25 -100.9 43.05 -101.0 38.95 -100.85 Q34.8 -102.1 31.3 -104.65" fill="#0ecfe4" fill-rule="evenodd" stroke="none"/>
    <path d="M31.3 -105.95 Q28.05 -105.25 28.0 -101.95 27.95 -99.95 29.45 -98.5 L30.05 -97.9 Q33.35 -94.8 37.8 -93.55 L43.85 -93.75 44.3 -93.95 Q46.1 -95.35 45.95 -97.8 45.8 -99.4 45.0 -100.65 44.0 -102.3 42.2 -102.1 39.55 -101.7 37.0 -102.85 35.3 -103.6 33.8 -104.7 L32.45 -105.55 31.3 -105.95 M31.3 -104.65 Q34.8 -102.1 38.95 -100.85 L43.05 -101.0 43.25 -100.9 43.4 -100.75 Q44.4 -99.55 44.65 -98.05 44.8 -97.15 44.55 -96.25 L44.3 -95.5 43.35 -94.8 43.1 -94.6 Q38.8 -94.1 34.95 -96.1 32.7 -97.25 30.9 -99.0 29.9 -99.95 29.35 -101.2 28.9 -102.25 29.35 -103.4 L30.15 -104.05 30.4 -104.4 31.2 -104.65 31.3 -104.65" fill="#333333" fill-rule="evenodd" stroke="none"/>
    <path d="M62.35 -114.9 Q61.0 -116.5 58.95 -117.2 52.65 -119.35 47.7 -115.3 46.05 -113.25 45.0 -110.85 44.05 -108.7 44.15 -106.2 L45.1 -106.35 Q47.6 -106.2 49.3 -104.2 51.7 -101.35 50.9 -97.5 L50.75 -97.05 52.55 -99.25 Q54.8 -102.4 58.75 -102.1 L58.8 -102.2 58.75 -103.8 58.35 -104.95 58.15 -105.1 Q56.75 -106.65 54.95 -105.6 L54.55 -105.55 54.2 -105.6 54.05 -105.7 53.9 -105.95 53.85 -106.2 53.9 -106.3 54.0 -106.45 Q55.1 -107.2 56.45 -107.2 L57.45 -107.0 58.1 -106.65 Q59.1 -108.1 61.1 -108.4 L61.8 -108.4 Q63.55 -108.1 63.85 -109.5 64.25 -111.4 63.5 -113.1 L62.35 -114.9 M48.8 -95.4 L49.3 -95.9 50.0 -97.6 Q51.0 -101.7 47.8 -104.45 46.65 -105.5 45.1 -105.35 L44.2 -105.15 43.95 -104.9 43.5 -104.85 43.45 -104.85 Q42.3 -104.2 42.2 -102.6 45.25 -99.95 44.45 -95.8 L43.85 -94.4 47.15 -94.1 48.85 -95.3 48.8 -95.4" fill="#ffffff" fill-rule="evenodd" stroke="none"/>
    <path d="M62.35 -114.9 L63.5 -113.1 Q64.25 -111.4 63.85 -109.5 63.55 -108.1 61.8 -108.4 L61.1 -108.4 Q59.1 -108.1 58.1 -106.65 L57.45 -107.0 56.45 -107.2 Q55.1 -107.2 54.0 -106.45 L53.9 -106.3 53.85 -106.2 53.9 -105.95 54.05 -105.7 54.2 -105.6 54.55 -105.55 54.95 -105.6 Q56.75 -106.65 58.15 -105.1 L58.35 -104.95 58.75 -103.8 58.8 -102.2 58.75 -102.1 Q54.8 -102.4 52.55 -99.25 L50.75 -97.05 50.9 -97.5 Q51.7 -101.35 49.3 -104.2 47.6 -106.2 45.1 -106.35 L44.15 -106.2 Q44.05 -108.7 45.0 -110.85 46.05 -113.25 47.7 -115.3 52.65 -119.35 58.95 -117.2 61.0 -116.5 62.35 -114.9 M62.8 -116.0 Q59.25 -119.45 54.2 -119.3 48.55 -119.1 45.5 -114.55 L43.3 -110.7 43.05 -109.05 Q42.8 -107.4 42.9 -105.7 41.65 -104.95 41.4 -103.1 L41.0 -103.25 41.4 -102.65 41.5 -101.85 41.65 -101.75 41.75 -101.7 42.05 -101.85 42.1 -101.85 42.35 -101.55 Q44.4 -98.25 42.9 -94.75 L42.8 -94.85 42.9 -94.7 42.55 -94.0 42.7 -93.75 42.8 -93.65 43.5 -94.05 Q44.55 -93.25 46.1 -93.25 48.4 -93.15 49.75 -95.0 L50.1 -95.55 Q51.6 -95.95 52.75 -97.4 L54.35 -99.45 Q56.0 -101.35 58.7 -100.9 59.4 -100.75 59.75 -101.3 60.15 -102.55 59.9 -103.8 59.7 -105.15 58.75 -106.0 L58.6 -106.2 Q60.95 -107.65 63.8 -107.9 L64.3 -108.25 Q65.1 -109.15 65.1 -110.35 65.2 -113.2 63.45 -115.3 L62.8 -116.0 M48.85 -95.3 L47.15 -94.1 43.85 -94.4 44.45 -95.8 Q45.25 -99.95 42.2 -102.6 42.3 -104.2 43.45 -104.85 L43.5 -104.85 43.95 -104.9 44.2 -105.15 45.1 -105.35 Q46.65 -105.5 47.8 -104.45 51.0 -101.7 50.0 -97.6 L49.3 -95.9 48.8 -95.4 48.85 -95.4 48.85 -95.3" fill="#999999" fill-rule="evenodd" stroke="none"/>
  </g>
</svg>
