<?xml version="1.0" encoding="UTF-8" standalone="no"?>
<svg xmlns:xlink="http://www.w3.org/1999/xlink" height="33.85px" width="20.75px" xmlns="http://www.w3.org/2000/svg">
  <g transform="matrix(1.0, 0.0, 0.0, 1.0, -40.0, 127.55)">
    <path d="M46.85 -94.55 Q49.8 -94.75 51.2 -97.45 L51.5 -98.5 Q51.9 -100.8 50.75 -102.75 49.2 -105.45 46.2 -106.2 L43.55 -106.05 Q43.2 -105.45 42.8 -105.6 L42.3 -105.15 Q41.4 -104.25 41.2 -103.05 L41.15 -102.65 44.15 -102.05 45.9 -100.95 Q47.95 -99.1 47.5 -96.2 L47.4 -95.95 Q47.35 -95.35 46.85 -94.95 L46.85 -94.85 46.85 -94.75 46.85 -94.55 M43.85 -123.85 Q42.8 -122.35 42.15 -120.7 40.6 -116.45 42.15 -112.1 43.1 -109.6 43.65 -107.0 L46.15 -107.15 46.35 -107.1 Q49.75 -106.35 51.5 -103.3 L52.4 -101.1 52.55 -100.3 53.7 -102.7 Q55.65 -106.0 59.6 -105.55 60.3 -107.35 58.8 -108.9 L58.4 -109.1 Q54.25 -109.6 53.15 -113.55 52.55 -115.6 53.1 -117.6 53.75 -119.8 55.95 -120.4 L54.75 -123.0 Q54.0 -124.2 52.85 -125.05 50.3 -126.75 47.1 -126.0 45.05 -125.5 43.85 -123.85" fill="#ffffff" fill-rule="evenodd" stroke="none"/>
    <path d="M41.15 -122.4 Q40.5 -120.75 40.25 -119.05 39.55 -114.6 41.15 -110.35 L42.2 -106.8 42.3 -106.35 40.8 -104.75 Q40.05 -103.55 40.05 -102.15 L40.0 -102.1 40.05 -101.9 40.2 -100.8 40.3 -100.75 40.75 -100.5 41.0 -100.6 41.0 -101.4 Q42.85 -101.5 44.65 -100.75 45.05 -100.3 45.55 -100.05 L46.1 -99.25 46.25 -99.15 Q46.7 -98.2 46.7 -97.15 46.7 -96.05 46.1 -95.2 L46.1 -95.1 46.1 -95.0 45.9 -94.75 45.85 -94.6 45.55 -94.7 45.4 -94.6 45.3 -94.5 45.3 -94.4 45.3 -94.3 45.35 -94.15 Q48.35 -92.9 50.75 -95.2 52.5 -96.85 52.65 -98.95 53.4 -99.65 53.7 -100.8 L54.0 -101.65 Q55.0 -103.6 57.1 -104.2 L59.95 -104.85 60.25 -105.1 Q61.15 -106.6 60.35 -108.35 59.55 -110.2 57.45 -110.55 55.1 -110.9 54.3 -113.2 53.35 -115.8 54.6 -118.15 55.15 -119.25 56.55 -119.5 56.9 -119.55 56.9 -119.95 56.9 -121.55 56.15 -122.95 55.2 -124.6 53.75 -125.85 51.25 -127.95 47.95 -127.45 43.1 -126.85 41.15 -122.4 M43.85 -123.85 Q45.05 -125.5 47.1 -126.0 50.3 -126.75 52.85 -125.05 54.0 -124.2 54.75 -123.0 L55.95 -120.4 Q53.75 -119.8 53.1 -117.6 52.55 -115.6 53.15 -113.55 54.25 -109.6 58.4 -109.1 L58.8 -108.9 Q60.3 -107.35 59.6 -105.55 55.65 -106.0 53.7 -102.7 L52.55 -100.3 52.4 -101.1 51.5 -103.3 Q49.75 -106.35 46.35 -107.1 L46.15 -107.15 43.65 -107.0 Q43.1 -109.6 42.15 -112.1 40.6 -116.45 42.15 -120.7 42.8 -122.35 43.85 -123.85 M46.85 -94.75 L46.85 -94.85 46.85 -94.95 Q47.35 -95.35 47.4 -95.95 L47.5 -96.2 Q47.95 -99.1 45.9 -100.95 L44.15 -102.05 41.15 -102.65 41.2 -103.05 Q41.4 -104.25 42.3 -105.15 L42.8 -105.6 Q43.2 -105.45 43.55 -106.05 L46.2 -106.2 Q49.2 -105.45 50.75 -102.75 51.9 -100.8 51.5 -98.5 L51.2 -97.45 Q49.8 -94.75 46.85 -94.55 L46.7 -94.55 46.85 -94.75" fill="#999999" fill-rule="evenodd" stroke="none"/>
  </g>
</svg>
