<?xml version="1.0" encoding="UTF-8" standalone="no"?>
<svg xmlns:xlink="http://www.w3.org/1999/xlink" height="21.0px" width="37.85px" xmlns="http://www.w3.org/2000/svg">
  <g transform="matrix(1.0, 0.0, 0.0, 1.0, 34.5, 119.8)">
    <path d="M-18.65 -118.3 L-14.55 -117.95 -11.35 -116.95 Q-9.3 -116.25 -7.3 -115.35 -2.65 -113.15 1.45 -110.05 L1.65 -109.9 1.9 -109.65 2.25 -108.25 2.4 -104.85 2.15 -103.0 1.4 -100.7 0.95 -100.0 Q0.4 -99.45 -0.3 -99.75 L-1.05 -100.35 -4.3 -103.3 -4.5 -103.75 -4.6 -103.9 -7.05 -105.6 -10.75 -107.95 Q-12.25 -108.8 -13.8 -109.45 L-17.05 -110.55 -19.45 -111.15 -23.9 -111.0 -25.8 -110.5 -27.6 -109.9 -28.5 -109.45 -28.65 -109.6 -30.1 -109.85 Q-31.8 -110.1 -32.7 -111.7 -33.45 -113.1 -32.95 -114.65 L-32.2 -116.0 Q-30.9 -117.25 -29.25 -117.7 -26.7 -118.5 -23.85 -118.35 L-18.65 -118.3 M-12.85 -118.75 L-17.7 -119.45 -22.35 -119.8 Q-26.5 -119.85 -30.3 -118.8 -31.7 -118.4 -32.7 -117.4 -33.75 -116.4 -34.2 -115.05 -34.8 -113.5 -34.2 -111.9 -33.6 -110.3 -32.2 -109.2 -31.15 -108.4 -29.8 -108.2 L-29.15 -108.25 Q-27.85 -108.55 -26.65 -109.0 L-23.95 -109.55 -23.7 -109.75 -22.4 -109.85 -17.2 -109.45 Q-14.35 -108.75 -11.85 -107.35 L-8.9 -105.4 -4.65 -101.95 -2.75 -100.3 -1.75 -99.45 -0.75 -99.0 1.5 -99.1 Q2.25 -99.45 2.5 -100.35 L3.05 -102.45 Q3.6 -105.15 3.2 -107.8 L2.75 -109.6 2.15 -110.65 -1.5 -113.5 -5.2 -115.75 Q-7.65 -117.1 -10.45 -118.15 L-12.85 -118.75" fill="#000000" fill-rule="evenodd" stroke="none"/>
    <path d="M-18.65 -118.3 L-23.85 -118.35 Q-26.7 -118.5 -29.25 -117.7 -30.9 -117.25 -32.2 -116.0 L-32.95 -114.65 Q-33.45 -113.1 -32.7 -111.7 -31.8 -110.1 -30.1 -109.85 L-28.65 -109.6 -28.5 -109.45 -27.6 -109.9 -25.8 -110.5 -23.9 -111.0 -19.45 -111.15 -17.05 -110.55 -13.8 -109.45 Q-12.25 -108.8 -10.75 -107.95 L-7.05 -105.6 -4.6 -103.9 -4.5 -103.75 -4.3 -103.3 -1.05 -100.35 -0.3 -99.75 Q0.4 -99.45 0.95 -100.0 L1.4 -100.7 2.15 -103.0 2.4 -104.85 2.25 -108.25 1.9 -109.65 1.65 -109.9 1.45 -110.05 Q-2.65 -113.15 -7.3 -115.35 -9.3 -116.25 -11.35 -116.95 L-14.55 -117.95 -18.65 -118.3" fill="#0ecfe4" fill-rule="evenodd" stroke="none"/>
  </g>
</svg>
