<?xml version="1.0" encoding="UTF-8" standalone="no"?>
<svg xmlns:xlink="http://www.w3.org/1999/xlink" height="45.2px" width="37.45px" xmlns="http://www.w3.org/2000/svg">
  <g transform="matrix(1.0, 0.0, 0.0, 1.0, 18.7, 22.6)">
    <path d="M-2.85 -10.25 L-6.0 -9.75 -7.0 -9.65 -6.95 -9.95 -7.35 -10.9 -7.35 -11.1 -7.8 -12.3 -8.15 -13.65 -8.7 -15.4 -9.9 -15.3 -9.85 -15.2 Q-12.5 -13.8 -15.0 -11.8 -17.0 -10.1 -18.65 -7.75 -18.8 -6.55 -18.6 -5.3 L-17.75 -1.9 -16.75 0.95 -16.1 2.3 -15.8 3.55 -15.45 4.4 -15.0 5.25 -14.6 6.05 -14.1 6.9 Q-13.2 10.35 -11.25 13.1 -8.4 17.05 -4.75 19.8 L-3.35 21.15 Q-1.5 22.0 0.25 22.35 7.9 23.85 12.75 15.75 19.05 5.1 18.75 -8.35 L18.65 -20.5 18.4 -20.9 18.2 -21.35 17.9 -21.75 17.6 -22.2 17.25 -22.35 16.7 -22.55 16.7 -22.6 8.1 -21.2 8.05 -21.15 7.9 -21.1 7.8 -21.25 7.5 -21.1 7.45 -21.05 5.3 -20.8 4.6 -20.65 4.55 -20.75 3.4 -20.45 3.5 -20.0 3.85 -18.15 Q3.95 -15.05 2.9 -12.15 L2.75 -11.75 2.45 -11.65 2.1 -11.45 0.85 -10.95 Q-1.0 -10.2 -2.75 -10.3 -2.75 -10.3 -2.85 -10.25 M1.35 20.2 Q-2.55 19.85 -6.3 16.2 -10.6 11.9 -12.3 5.75 -15.1 0.25 -16.55 -6.0 L-16.25 -6.8 -16.2 -7.1 Q-5.15 -6.45 4.6 -10.5 10.9 -13.15 16.6 -17.75 18.3 -0.35 11.55 14.2 L10.8 15.85 Q9.8 16.35 9.5 17.5 5.35 20.5 1.35 20.2 M16.6 -19.25 Q12.2 -15.9 7.5 -13.65 L7.6 -13.8 6.6 -13.2 5.6 -13.05 5.6 -12.95 5.65 -12.85 4.25 -12.3 4.35 -12.65 Q5.2 -15.4 5.0 -18.25 L7.1 -18.45 Q7.6 -19.0 8.65 -18.85 L8.65 -18.8 8.65 -18.85 16.25 -19.7 16.6 -19.25 M-9.35 -13.1 L-8.7 -10.75 Q-8.65 -10.0 -8.25 -9.55 -11.6 -9.35 -15.05 -9.6 -12.2 -11.45 -9.6 -13.8 L-9.55 -13.85 -9.35 -13.1" fill="#000000" fill-rule="evenodd" stroke="none"/>
    <path d="M2.9 -12.15 L2.85 -12.15 2.45 -11.65 2.75 -11.75 2.9 -12.15 M-2.75 -10.3 L-2.8 -10.3 -2.85 -10.25 Q-2.75 -10.3 -2.75 -10.3 M4.6 -10.5 L5.0 -9.4 Q5.75 -8.15 5.75 -6.65 L5.8 -5.55 Q6.0 -1.6 5.8 2.3 5.5 9.2 3.2 15.7 L2.05 18.6 1.35 20.2 Q5.35 20.5 9.5 17.5 9.8 16.35 10.8 15.85 L11.55 14.2 Q18.3 -0.35 16.6 -17.75 10.9 -13.15 4.6 -10.5 M-9.35 -13.1 L-9.55 -13.85 -9.6 -13.8 Q-12.2 -11.45 -15.05 -9.6 -11.6 -9.35 -8.25 -9.55 -8.65 -10.0 -8.7 -10.75 L-9.35 -13.1 M16.6 -19.25 L16.25 -19.7 8.65 -18.85 8.65 -18.8 8.65 -18.85 Q7.6 -19.0 7.1 -18.45 L5.0 -18.25 Q5.2 -15.4 4.35 -12.65 L4.25 -12.3 5.65 -12.85 5.6 -12.95 5.6 -13.05 6.6 -13.2 7.6 -13.8 7.5 -13.65 Q12.2 -15.9 16.6 -19.25" fill="#d6280a" fill-rule="evenodd" stroke="none"/>
    <path d="M4.6 -10.5 Q-5.15 -6.45 -16.2 -7.1 L-16.25 -6.8 -16.55 -6.0 Q-15.1 0.25 -12.3 5.75 -10.6 11.9 -6.3 16.2 -2.55 19.85 1.35 20.2 L2.05 18.6 3.2 15.7 Q5.5 9.2 5.8 2.3 6.0 -1.6 5.8 -5.55 L5.75 -6.65 Q5.75 -8.15 5.0 -9.4 L4.6 -10.5" fill="#f02d0b" fill-rule="evenodd" stroke="none"/>
  </g>
</svg>
