<?xml version="1.0" encoding="UTF-8" standalone="no"?>
<svg xmlns:xlink="http://www.w3.org/1999/xlink" height="23.0px" width="16.75px" xmlns="http://www.w3.org/2000/svg">
  <g transform="matrix(1.0, 0.0, 0.0, 1.0, 10.15, 11.4)">
    <path d="M-2.45 -9.7 Q-4.8 -9.75 -6.4 -6.85 -8.05 -4.0 -8.05 0.1 -8.05 4.15 -6.4 7.0 -4.8 9.9 -2.45 9.9 -0.2 9.9 1.45 7.0 3.1 4.15 3.1 0.1 3.1 -4.0 1.45 -6.85 -0.2 -9.75 -2.45 -9.7 M-1.75 -11.4 Q1.65 -11.4 4.1 -8.05 6.55 -4.7 6.6 0.1 6.55 4.85 4.1 8.2 1.65 11.55 -1.75 11.6 -5.2 11.55 -7.7 8.2 -10.15 4.85 -10.15 0.1 -10.15 -4.7 -7.7 -8.05 -5.2 -11.4 -1.75 -11.4" fill="#e6e600" fill-rule="evenodd" stroke="none"/>
    <path d="M-2.45 -9.7 Q-0.2 -9.75 1.45 -6.85 3.1 -4.0 3.1 0.1 3.1 4.15 1.45 7.0 -0.2 9.9 -2.45 9.9 -4.8 9.9 -6.4 7.0 -8.05 4.15 -8.05 0.1 -8.05 -4.0 -6.4 -6.85 -4.8 -9.75 -2.45 -9.7" fill="#ffff00" fill-rule="evenodd" stroke="none"/>
  </g>
</svg>
