<?xml version="1.0" encoding="UTF-8" standalone="no"?>
<svg xmlns:xlink="http://www.w3.org/1999/xlink" height="47.2px" width="151.1px" xmlns="http://www.w3.org/2000/svg">
  <g transform="matrix(1.0, 0.0, 0.0, 1.0, 75.55, 23.55)">
    <path d="M11.9 -20.5 L18.1 -23.15 Q37.9 -14.35 59.25 -18.2 67.4 -19.8 75.0 -23.55 L74.65 -22.45 Q76.8 -12.75 73.95 -2.8 71.8 4.85 67.25 11.25 63.4 16.55 57.3 19.0 L57.25 19.45 Q43.2 27.65 28.35 19.8 18.45 14.6 14.45 4.0 L-75.55 3.75 -75.55 -4.9 12.15 -4.9 Q10.3 -12.55 11.9 -20.5 M24.9 7.4 Q15.55 -5.85 17.45 -22.15 14.4 -21.4 12.1 -19.3 L12.1 -15.95 Q12.25 -4.05 17.05 6.55 26.5 22.4 44.65 21.75 48.55 21.25 52.35 19.9 35.2 21.3 24.9 7.4 M12.85 -1.9 L12.5 -3.35 -74.25 -3.45 -74.3 -1.9 -74.4 0.1 -74.75 2.3 14.05 2.35 13.45 0.1 12.85 -1.9 M70.05 2.7 Q73.6 -6.55 73.7 -16.4 L72.85 -13.9 Q71.05 -8.6 67.0 -4.65 L69.7 2.85 69.85 3.2 70.05 2.7 M60.5 -16.5 L56.75 -15.85 51.05 -15.55 51.35 1.35 Q54.45 0.75 57.55 -0.5 61.6 -2.2 64.75 -5.15 L60.5 -16.5 M20.7 -3.95 L21.55 -6.5 19.05 -11.05 20.7 -3.95 M23.25 -6.85 L25.2 -5.0 Q29.2 -1.15 34.3 0.9 L36.15 -16.3 27.75 -18.3 23.25 -6.85 M22.55 -5.0 L21.55 -1.8 Q25.3 7.45 33.1 13.5 L34.05 2.55 32.45 1.8 Q26.75 -0.95 22.55 -5.0 M21.05 -9.65 L22.15 -8.1 26.85 -18.55 18.95 -21.45 Q17.4 -14.9 21.05 -9.65 M47.2 2.2 L49.55 1.45 49.8 -15.5 37.15 -16.2 Q37.6 -7.25 35.85 1.45 L38.6 2.15 Q42.9 2.95 47.2 2.25 L47.25 2.25 47.2 2.2 M65.4 -3.25 L63.75 -1.95 Q58.15 2.25 51.35 3.1 L51.85 18.3 54.55 17.65 Q65.1 14.75 69.1 4.7 L65.4 -3.25 M73.35 -21.05 L72.05 -20.25 61.75 -16.8 66.3 -6.7 Q71.85 -12.95 73.35 -21.05 M50.25 18.45 L49.9 17.9 49.55 3.65 Q42.5 4.8 35.65 3.05 L34.45 14.4 Q41.7 19.15 50.25 18.45" fill="#000000" fill-rule="evenodd" stroke="none"/>
    <path d="M21.05 -9.65 Q17.4 -14.9 18.95 -21.45 L26.85 -18.55 22.15 -8.1 21.05 -9.65 M22.55 -5.0 Q26.75 -0.95 32.45 1.8 L34.05 2.55 33.1 13.5 Q25.3 7.45 21.55 -1.8 L22.55 -5.0 M23.25 -6.85 L27.75 -18.3 36.15 -16.3 34.3 0.9 Q29.2 -1.15 25.2 -5.0 L23.25 -6.85 M20.7 -3.95 L19.05 -11.05 21.55 -6.5 20.7 -3.95 M60.5 -16.5 L64.75 -5.15 Q61.6 -2.2 57.55 -0.5 54.45 0.75 51.35 1.35 L51.05 -15.55 56.75 -15.85 60.5 -16.5 M69.7 2.85 L67.0 -4.65 Q71.05 -8.6 72.85 -13.9 L73.7 -16.4 Q73.6 -6.55 70.05 2.7 L69.7 2.85 M73.35 -21.05 Q71.85 -12.95 66.3 -6.7 L61.75 -16.8 72.05 -20.25 73.35 -21.05 M65.4 -3.25 L69.1 4.7 Q65.1 14.75 54.55 17.65 L51.85 18.3 51.35 3.1 Q58.15 2.25 63.75 -1.95 L65.4 -3.25 M47.2 2.25 Q42.9 2.95 38.6 2.15 L35.85 1.45 Q37.6 -7.25 37.15 -16.2 L49.8 -15.5 49.55 1.45 47.2 2.2 47.2 2.25 M50.25 18.45 Q41.7 19.15 34.45 14.4 L35.65 3.05 Q42.5 4.8 49.55 3.65 L49.9 17.9 50.25 18.45" fill="#ffffff" fill-rule="evenodd" stroke="none"/>
    <path d="M17.05 6.55 Q12.25 -4.05 12.1 -15.95 L12.1 -19.3 Q14.4 -21.4 17.45 -22.15 15.55 -5.85 24.9 7.4 20.75 9.5 17.05 6.55 M-74.3 -1.9 L-74.25 -3.45 12.5 -3.35 12.85 -1.9 -74.3 -1.9" fill="#ff0000" fill-rule="evenodd" stroke="none"/>
    <path d="M24.9 7.4 Q35.2 21.3 52.35 19.9 48.55 21.25 44.65 21.75 26.5 22.4 17.05 6.55 20.75 9.5 24.9 7.4 M12.85 -1.9 L13.45 0.1 -74.4 0.1 -74.3 -1.9 12.85 -1.9" fill="#cc0000" fill-rule="evenodd" stroke="none"/>
    <path d="M13.45 0.1 L14.05 2.35 -74.75 2.3 -74.4 0.1 13.45 0.1" fill="#990000" fill-rule="evenodd" stroke="none"/>
  </g>
</svg>
