<?xml version="1.0" encoding="UTF-8" standalone="no"?>
<svg xmlns:xlink="http://www.w3.org/1999/xlink" height="28.55px" width="32.6px" xmlns="http://www.w3.org/2000/svg">
  <g transform="matrix(1.0, 0.0, 0.0, 1.0, -16.0, 88.05)">
    <path d="M24.15 -86.95 L18.65 -84.85 17.8 -84.55 17.3 -84.0 16.55 -81.45 16.05 -78.15 16.0 -77.85 24.35 -77.95 24.6 -77.95 24.95 -77.5 25.0 -77.45 Q25.75 -74.95 24.75 -72.55 L24.7 -72.2 23.05 -70.65 21.7 -70.6 21.7 -66.5 24.2 -64.35 25.85 -63.1 29.4 -60.9 31.85 -59.65 33.7 -59.5 33.75 -59.5 Q39.7 -61.95 45.9 -63.35 L46.7 -63.55 46.9 -63.8 47.1 -64.9 47.65 -68.15 48.1 -71.6 48.3 -73.6 48.6 -78.1 45.45 -82.25 45.25 -82.45 44.45 -83.4 40.05 -86.1 37.2 -87.0 Q34.35 -87.8 31.35 -88.0 L29.45 -88.0 25.55 -87.65 Q24.6 -87.5 24.15 -86.95 M43.5 -82.7 L44.3 -81.65 45.45 -80.15 46.45 -78.95 46.75 -78.55 46.15 -71.55 45.75 -68.85 45.6 -68.1 45.45 -67.15 45.05 -65.2 43.75 -64.85 33.5 -62.05 32.0 -61.7 31.45 -61.8 29.35 -63.0 27.25 -64.4 Q25.35 -65.85 23.7 -67.55 L23.45 -67.75 23.6 -70.05 Q25.45 -71.15 25.85 -73.15 26.45 -75.4 25.65 -77.55 L24.9 -78.75 24.9 -79.05 Q23.7 -80.2 22.05 -80.75 L21.75 -80.65 21.65 -80.5 Q22.1 -79.55 23.05 -79.0 L23.2 -78.9 23.15 -78.6 21.45 -78.65 Q19.5 -78.8 17.6 -78.6 L17.65 -79.0 18.2 -81.45 18.75 -83.65 Q20.8 -84.15 22.65 -85.0 L24.1 -85.75 24.15 -85.7 Q24.75 -85.55 25.15 -85.95 L25.35 -86.0 25.4 -86.0 27.0 -86.4 28.65 -86.5 Q34.0 -86.65 39.1 -84.85 L40.1 -84.5 43.25 -82.9 43.55 -82.75 43.6 -82.7 43.55 -82.7 43.5 -82.7" fill="#000000" fill-rule="evenodd" stroke="none"/>
    <path d="M28.65 -86.5 L27.0 -86.4 25.4 -86.0 25.35 -86.0 25.15 -85.95 Q24.75 -85.55 24.15 -85.7 L24.1 -85.75 22.65 -85.0 Q20.8 -84.15 18.75 -83.65 L18.2 -81.45 17.65 -79.0 17.6 -78.6 Q19.5 -78.8 21.45 -78.65 L23.15 -78.6 23.2 -78.9 23.05 -79.0 Q22.1 -79.55 21.65 -80.5 L21.75 -80.65 22.05 -80.75 Q23.7 -80.2 24.9 -79.05 L24.9 -78.75 25.65 -77.55 Q26.45 -75.4 25.85 -73.15 25.45 -71.15 23.6 -70.05 L23.45 -67.75 23.7 -67.55 Q25.35 -65.85 27.25 -64.4 L29.35 -63.0 31.45 -61.8 32.0 -61.7 33.5 -62.05 43.75 -64.85 45.05 -65.2 45.45 -67.15 45.6 -68.1 45.75 -68.85 46.15 -71.55 46.75 -78.55 46.45 -78.95 45.45 -80.15 44.3 -81.65 43.5 -82.7 43.55 -82.75 43.25 -82.9 Q44.85 -79.75 42.0 -78.4 L40.3 -78.15 Q39.1 -78.3 38.2 -77.65 40.0 -74.55 40.75 -71.0 41.6 -67.25 37.9 -66.6 35.2 -66.1 33.0 -67.75 30.4 -69.75 29.7 -72.9 29.0 -76.25 31.65 -78.5 33.9 -80.4 31.5 -82.35 29.4 -84.05 28.65 -86.5" fill="#d7d9ee" fill-rule="evenodd" stroke="none"/>
    <path d="M43.25 -82.9 L40.1 -84.5 39.1 -84.85 Q34.0 -86.65 28.65 -86.5 29.4 -84.05 31.5 -82.35 33.9 -80.4 31.65 -78.5 29.0 -76.25 29.7 -72.9 30.4 -69.75 33.0 -67.75 35.2 -66.1 37.9 -66.6 41.6 -67.25 40.75 -71.0 40.0 -74.55 38.2 -77.65 39.1 -78.3 40.3 -78.15 L42.0 -78.4 Q44.85 -79.75 43.25 -82.9" fill="#eff0f8" fill-rule="evenodd" stroke="none"/>
  </g>
</svg>
