<?xml version="1.0" encoding="UTF-8" standalone="no"?>
<svg xmlns:xlink="http://www.w3.org/1999/xlink" height="37.25px" width="37.35px" xmlns="http://www.w3.org/2000/svg">
  <g transform="matrix(1.0, 0.0, 0.0, 1.0, 57.2, 219.95)">
    <path d="M-57.05 -219.35 L-57.15 -219.1 Q-57.75 -213.05 -52.45 -209.65 L-45.25 -204.45 Q-41.45 -201.3 -39.3 -196.9 -42.9 -199.4 -47.5 -199.1 L-48.4 -198.9 Q-48.6 -197.45 -47.35 -196.35 L-46.65 -195.55 -43.85 -191.55 -40.1 -186.55 Q-38.3 -184.35 -35.85 -182.95 L-34.65 -182.75 -27.7 -184.95 -24.15 -185.65 Q-21.75 -185.85 -20.2 -187.6 -19.95 -187.8 -20.05 -188.15 L-20.1 -188.15 Q-19.45 -191.35 -20.5 -194.2 L-20.5 -194.3 Q-21.55 -199.25 -23.15 -204.05 -24.7 -208.8 -27.6 -212.85 -30.45 -216.8 -35.2 -217.55 L-47.2 -219.55 -48.4 -219.75 -49.5 -219.9 -49.65 -219.85 -49.9 -219.75 -49.9 -219.8 Q-50.8 -219.05 -51.1 -218.15 L-51.4 -218.15 -52.8 -218.55 -54.3 -219.1 -54.45 -219.15 -56.1 -219.85 -56.65 -219.85 -57.05 -219.35 M-39.65 -209.7 L-39.35 -209.95 -39.5 -210.2 -39.65 -210.45 Q-44.9 -212.55 -49.45 -215.85 L-50.25 -216.8 -49.8 -218.05 -49.45 -218.6 -46.25 -218.2 -34.35 -216.2 Q-32.2 -215.8 -30.55 -214.35 -26.85 -211.0 -25.05 -206.3 -23.5 -202.3 -22.35 -198.2 -21.25 -194.0 -21.2 -189.8 L-21.25 -189.4 -21.85 -189.1 -21.95 -188.7 -21.95 -188.3 Q-25.55 -187.1 -29.3 -186.5 L-30.35 -186.25 -35.5 -184.35 Q-39.3 -187.75 -42.4 -191.9 L-42.75 -192.4 -46.8 -198.0 Q-41.4 -197.9 -37.9 -193.8 L-37.8 -193.7 -37.5 -193.65 -37.05 -193.95 -36.95 -194.2 -36.9 -194.55 Q-38.9 -199.6 -42.6 -203.45 L-46.9 -207.15 -52.15 -210.75 Q-56.45 -213.7 -56.05 -218.8 L-53.95 -217.85 -52.85 -217.55 -51.3 -217.4 Q-51.35 -216.7 -51.0 -216.0 L-50.85 -215.75 -49.8 -214.5 -48.75 -213.75 Q-45.65 -211.7 -42.3 -210.15 L-41.55 -209.85 -39.65 -209.75 -39.65 -209.7 M-30.15 -188.45 L-31.25 -189.6 Q-33.85 -192.7 -34.8 -196.6 L-34.95 -197.1 -35.1 -198.25 -35.1 -198.45 Q-35.25 -200.4 -34.55 -202.3 L-33.85 -204.2 -34.75 -204.15 -34.8 -204.2 -34.95 -203.85 -35.25 -203.15 -36.0 -200.4 -36.0 -200.35 Q-36.55 -196.65 -34.7 -192.95 L-34.45 -192.4 -33.9 -191.5 -32.95 -190.3 -30.55 -188.1 -30.25 -188.3 -30.2 -188.4 -30.15 -188.45" fill="#000000" fill-rule="evenodd" stroke="none"/>
    <path d="M-46.25 -218.2 L-49.45 -218.6 -49.8 -218.05 -50.25 -216.8 -49.45 -215.85 Q-44.9 -212.55 -39.65 -210.45 L-39.5 -210.2 -39.35 -209.95 -39.65 -209.7 Q-38.55 -209.15 -37.7 -208.25 L-36.35 -206.5 -35.75 -205.65 -35.4 -205.2 -35.05 -204.45 -34.95 -203.85 -34.8 -204.2 -34.75 -204.15 -33.85 -204.2 -34.55 -202.3 Q-35.25 -200.4 -35.1 -198.45 L-35.1 -198.25 -34.95 -197.1 -34.8 -196.6 Q-33.85 -192.7 -31.25 -189.6 L-30.15 -188.45 -30.15 -188.35 Q-29.6 -188.2 -29.0 -188.55 L-28.65 -188.75 Q-27.05 -189.75 -26.25 -191.65 -26.0 -192.25 -25.9 -192.9 -25.6 -194.9 -26.1 -196.95 -27.1 -200.7 -28.6 -204.25 L-29.85 -206.75 Q-31.8 -210.05 -34.55 -212.6 L-35.8 -213.35 Q-38.35 -214.65 -41.0 -215.5 L-42.35 -215.95 -44.45 -216.95 Q-45.5 -217.45 -46.25 -218.2 M-48.75 -213.75 L-49.8 -214.5 -50.85 -215.75 -52.85 -217.55 -53.95 -217.85 -56.05 -218.8 Q-56.45 -213.7 -52.15 -210.75 L-46.9 -207.15 -42.6 -203.45 Q-38.9 -199.6 -36.9 -194.55 L-36.95 -194.2 -37.05 -193.95 -37.5 -193.65 -37.8 -193.7 -37.9 -193.8 Q-41.4 -197.9 -46.8 -198.0 L-42.75 -192.4 -42.4 -191.9 Q-41.0 -191.9 -39.7 -191.0 L-39.15 -190.7 -38.3 -190.15 Q-36.9 -189.25 -35.45 -189.25 -34.9 -189.2 -34.55 -189.65 -33.85 -190.5 -33.9 -191.5 L-34.45 -192.4 -34.7 -192.95 Q-36.55 -196.65 -36.0 -200.35 L-36.0 -200.4 Q-36.3 -203.7 -41.2 -207.45 -44.55 -210.0 -48.75 -213.75" fill="#ffffff" fill-rule="evenodd" stroke="none"/>
    <path d="M-46.25 -218.2 Q-45.5 -217.45 -44.45 -216.95 L-42.35 -215.95 -41.0 -215.5 Q-38.35 -214.65 -35.8 -213.35 L-34.55 -212.6 Q-31.8 -210.05 -29.85 -206.75 L-28.6 -204.25 Q-27.1 -200.7 -26.1 -196.95 -25.6 -194.9 -25.9 -192.9 -26.0 -192.25 -26.25 -191.65 -27.05 -189.75 -28.65 -188.75 L-29.0 -188.55 Q-29.6 -188.2 -30.15 -188.35 L-30.15 -188.45 -30.2 -188.4 -30.25 -188.3 -30.55 -188.1 -32.95 -190.3 -33.9 -191.5 Q-33.85 -190.5 -34.55 -189.65 -34.9 -189.2 -35.45 -189.25 -36.9 -189.25 -38.3 -190.15 L-39.15 -190.7 -39.7 -191.0 Q-41.0 -191.9 -42.4 -191.9 -39.3 -187.75 -35.5 -184.35 L-30.35 -186.25 -29.3 -186.5 Q-25.55 -187.1 -21.95 -188.3 L-21.95 -188.7 -21.85 -189.1 -21.25 -189.4 -21.2 -189.8 Q-21.25 -194.0 -22.35 -198.2 -23.5 -202.3 -25.05 -206.3 -26.85 -211.0 -30.55 -214.35 -32.2 -215.8 -34.35 -216.2 L-46.25 -218.2 M-34.95 -203.85 L-35.05 -204.45 -35.4 -205.2 -35.75 -205.65 -36.35 -206.5 -37.7 -208.25 Q-38.55 -209.15 -39.65 -209.7 L-39.65 -209.75 -41.55 -209.85 -42.3 -210.15 Q-45.65 -211.7 -48.75 -213.75 -44.55 -210.0 -41.2 -207.45 -36.3 -203.7 -36.0 -200.4 L-35.25 -203.15 -34.95 -203.85 M-50.85 -215.75 L-51.0 -216.0 Q-51.35 -216.7 -51.3 -217.4 L-52.85 -217.55 -50.85 -215.75" fill="#cccccc" fill-rule="evenodd" stroke="none"/>
  </g>
</svg>
