<?xml version="1.0" encoding="UTF-8" standalone="no"?>
<svg xmlns:xlink="http://www.w3.org/1999/xlink" height="66.35px" width="98.65px" xmlns="http://www.w3.org/2000/svg">
  <g transform="matrix(1.0, 0.0, 0.0, 1.0, 47.0, 260.6)">
    <path d="M3.9 -259.35 Q10.4 -253.65 1.95 -251.35 L1.1 -251.3 3.9 -259.35 M-11.75 -250.3 L-13.5 -250.55 Q-11.85 -252.7 -11.85 -255.65 L-11.75 -250.3 M-13.95 -196.35 L-13.9 -196.55 -9.55 -199.7 -12.0 -206.65 -8.3 -202.2 -7.3 -209.05 -6.45 -209.6 -5.8 -202.7 -6.65 -200.6 -10.85 -195.55 -13.5 -194.25 -13.95 -196.35 M-2.9 -217.85 L-6.75 -218.6 -6.8 -218.8 -7.05 -219.6 -1.1 -220.55 -2.1 -225.0 0.5 -220.5 2.8 -226.85 0.1 -230.45 3.1 -227.55 0.75 -236.65 2.75 -235.85 6.7 -226.65 4.7 -224.0 4.65 -223.95 1.5 -218.65 1.2 -218.35 -2.9 -217.85 M-8.4 -218.7 L-9.6 -218.05 -10.3 -222.7 -10.1 -222.65 -9.05 -220.25 -8.45 -218.85 -8.4 -218.7 M-24.15 -226.65 L-22.0 -221.0 -26.1 -214.95 -30.2 -214.9 -31.85 -215.25 -32.0 -215.9 -28.55 -216.35 Q-28.5 -221.9 -27.0 -217.1 L-26.9 -216.9 -26.35 -228.3 -25.4 -228.05 -24.25 -226.9 -24.15 -226.65 M-29.15 -208.65 Q-26.4 -205.0 -31.3 -200.8 -33.4 -199.0 -33.0 -201.35 L-30.8 -204.0 -29.15 -208.65 M-31.75 -224.15 Q-30.65 -224.1 -30.0 -223.5 -28.7 -218.95 -31.55 -223.9 L-31.75 -224.15 M8.65 -205.3 L12.1 -209.35 11.85 -212.4 13.35 -209.95 16.1 -217.0 Q16.1 -212.15 13.95 -208.7 11.75 -205.3 8.65 -205.3 M-4.25 -230.05 L-3.65 -226.7 -6.65 -230.95 Q-5.15 -230.85 -4.25 -230.05" fill="#dfa23c" fill-rule="evenodd" stroke="none"/>
    <path d="M1.1 -251.3 L-1.05 -252.15 1.55 -260.6 3.9 -259.35 1.1 -251.3 M-13.5 -250.55 L-16.65 -251.0 Q-16.65 -252.95 -15.25 -254.3 -13.85 -255.65 -11.85 -255.65 -11.85 -252.7 -13.5 -250.55 M-13.9 -196.55 L-15.25 -202.65 -15.75 -203.75 -12.95 -212.75 -7.3 -209.05 -8.3 -202.2 -12.0 -206.65 -9.55 -199.7 -13.9 -196.55 M7.75 -211.55 L8.7 -211.7 8.85 -213.75 11.85 -219.75 16.1 -217.0 13.35 -209.95 11.85 -212.4 12.1 -209.35 8.65 -205.3 4.9 -205.85 7.75 -211.55 M-9.6 -218.05 L-14.2 -217.65 -14.4 -218.6 Q-14.4 -220.3 -13.2 -221.5 -12.0 -222.7 -10.3 -222.7 L-9.6 -218.05 M-7.45 -221.15 L-8.85 -226.15 -9.2 -227.45 -9.2 -227.8 -9.4 -227.9 -6.65 -230.95 -3.65 -226.7 -4.25 -230.05 -4.6 -232.55 -4.9 -234.1 0.75 -236.65 3.1 -227.55 0.1 -230.45 2.8 -226.85 0.5 -220.5 -2.1 -225.0 -1.1 -220.55 -7.05 -219.6 -7.45 -221.15" fill="url(#gradient0)" fill-rule="evenodd" stroke="none"/>
    <path d="M9.1 -240.75 L9.1 -240.95 9.25 -240.75 9.1 -240.75" fill="#d7df3f" fill-rule="evenodd" stroke="none"/>
    <path d="M9.1 -240.75 L-6.7 -240.9 -4.85 -239.4 7.55 -238.15 9.3 -236.6 -2.05 -237.8 -6.7 -235.45 -4.9 -234.1 -4.6 -232.55 -25.4 -228.05 -26.35 -228.3 -30.1 -227.4 -30.0 -223.5 Q-30.65 -224.1 -31.75 -224.15 L-33.75 -221.95 -32.0 -215.9 -31.85 -215.25 -35.25 -212.9 -34.2 -205.8 -33.0 -201.35 Q-33.4 -199.0 -31.3 -200.8 -26.4 -205.0 -29.15 -208.65 -29.2 -209.0 -29.4 -209.15 -32.7 -212.6 -32.9 -208.6 L-33.65 -212.8 -29.4 -213.4 -30.2 -214.9 -26.1 -214.95 -22.0 -221.0 -24.15 -226.65 Q-18.2 -225.15 -12.25 -227.75 L-9.5 -228.0 -9.25 -227.3 -8.85 -226.15 -7.45 -221.15 Q-7.75 -220.2 -9.05 -220.25 L-10.1 -222.65 -10.25 -223.05 Q-18.15 -222.2 -15.75 -217.75 L-14.2 -217.65 -9.6 -218.05 -8.4 -218.7 -6.75 -218.6 -2.9 -217.85 8.6 -217.1 9.0 -215.65 8.85 -213.75 8.7 -211.7 7.75 -211.55 -6.45 -209.6 -7.3 -209.05 -12.95 -212.75 -15.75 -203.75 -21.15 -203.9 -23.45 -201.95 -15.25 -202.65 -13.9 -196.55 -13.95 -196.35 -17.05 -195.15 Q-32.25 -193.6 -37.85 -206.7 L-36.25 -210.6 -36.8 -213.6 -32.6 -215.95 -37.3 -228.5 -40.9 -230.25 -42.5 -233.3 -44.65 -236.0 -43.75 -238.55 -47.0 -242.4 Q-44.1 -248.35 -36.8 -245.8 L-26.7 -250.4 -30.45 -245.7 -24.9 -242.65 -29.25 -237.0 Q-20.85 -233.9 -12.1 -240.25 -11.55 -247.2 -18.85 -250.35 L-16.65 -251.0 -13.5 -250.55 -11.75 -250.3 Q2.0 -251.5 9.1 -240.95 L9.1 -240.75 M4.65 -223.95 L4.7 -224.0 4.9 -223.75 4.65 -223.95 M1.55 -218.35 L1.2 -218.35 1.5 -218.65 1.55 -218.35 M48.75 -217.2 L51.65 -216.25 31.3 -215.9 Q39.75 -219.85 48.75 -217.2 M-35.8 -232.95 L-36.2 -237.5 -40.05 -233.05 -35.8 -232.95" fill="#8f00bf" fill-rule="evenodd" stroke="none"/>
    <path d="M9.3 -236.6 L7.55 -238.15 -4.85 -239.4 -6.7 -240.9 9.1 -240.75 9.25 -240.75 9.3 -236.6 M9.0 -215.65 L8.6 -217.1 -2.9 -217.85 1.2 -218.35 1.55 -218.35 7.1 -220.4 8.7 -217.15 9.0 -215.65 M-6.75 -218.6 L-8.4 -218.7 -8.45 -218.85 -6.8 -218.8 -6.75 -218.6 M-14.2 -217.65 L-15.75 -217.75 -14.4 -218.6 -14.2 -217.65 M-9.25 -227.3 L-9.5 -228.0 -9.4 -227.9 -9.2 -227.8 -9.2 -227.45 -9.25 -227.3 M-12.25 -227.75 Q-18.2 -225.15 -24.15 -226.65 L-24.25 -226.9 -12.25 -227.75 M8.7 -217.15 L8.6 -217.1 8.7 -217.15 M-3.3 -201.6 L-6.65 -200.6 -5.8 -202.7 -3.3 -201.6" fill="#cf40ff" fill-rule="evenodd" stroke="none"/>
    <path d="M-30.2 -214.9 L-29.4 -213.4 -33.65 -212.8 -32.9 -208.6 -34.2 -205.8 -35.25 -212.9 -31.85 -215.25 -30.2 -214.9 M4.9 -223.75 L7.1 -220.4 1.55 -218.35 1.5 -218.65 4.65 -223.95 4.9 -223.75 M-35.8 -232.95 L-40.05 -233.05 -36.2 -237.5 -35.8 -232.95 M-6.65 -200.6 L-3.3 -201.6 -1.35 -198.95 -10.85 -195.55 -6.65 -200.6" fill="#700095" fill-rule="evenodd" stroke="none"/>
    <path d="M8.7 -217.15 L8.6 -217.1 8.7 -217.15" fill="#e7e66d" fill-rule="evenodd" stroke="none"/>
    <path d="M-32.0 -215.9 L-33.75 -221.95 -31.75 -224.15 -31.55 -223.9 Q-28.7 -218.95 -30.0 -223.5 L-30.1 -227.4 -26.35 -228.3 -26.9 -216.9 -27.0 -217.1 Q-28.5 -221.9 -28.55 -216.35 L-32.0 -215.9" fill="url(#gradient1)" fill-rule="evenodd" stroke="none"/>
    <path d="M-32.9 -208.6 Q-32.7 -212.6 -29.4 -209.15 -29.2 -209.0 -29.15 -208.65 L-30.8 -204.0 -33.0 -201.35 -34.2 -205.8 -32.9 -208.6" fill="url(#gradient2)" fill-rule="evenodd" stroke="none"/>
  </g>
  <defs>
    <linearGradient gradientTransform="matrix(-0.0139, -0.0036, -0.0085, 0.0209, -142.9, -348.75)" gradientUnits="userSpaceOnUse" id="gradient0" spreadMethod="pad" x1="-819.2" x2="819.2">
      <stop offset="0.0" stop-color="#eacb6f"/>
      <stop offset="1.0" stop-color="#70411f"/>
    </linearGradient>
    <linearGradient gradientTransform="matrix(-0.0101, -0.0026, -0.0062, 0.0152, -131.0, -309.95)" gradientUnits="userSpaceOnUse" id="gradient1" spreadMethod="pad" x1="-819.2" x2="819.2">
      <stop offset="0.0" stop-color="#eacb6f"/>
      <stop offset="1.0" stop-color="#70411f"/>
    </linearGradient>
    <linearGradient gradientTransform="matrix(-0.0081, -0.0021, -0.0049, 0.0121, -107.8, -289.65)" gradientUnits="userSpaceOnUse" id="gradient2" spreadMethod="pad" x1="-819.2" x2="819.2">
      <stop offset="0.0" stop-color="#eacb6f"/>
      <stop offset="1.0" stop-color="#70411f"/>
    </linearGradient>
  </defs>
</svg>
