<?xml version="1.0" encoding="UTF-8" standalone="no"?>
<svg xmlns:xlink="http://www.w3.org/1999/xlink" height="33.4px" width="28.25px" xmlns="http://www.w3.org/2000/svg">
  <g transform="matrix(1.0, 0.0, 0.0, 1.0, 22.45, 233.65)">
    <path d="M-14.8 -222.3 L-14.9 -226.2 -11.15 -227.1 Q-11.15 -221.95 -12.8 -218.3 -14.45 -214.7 -16.8 -214.7 L-18.55 -220.75 -16.55 -222.95 -16.35 -222.7 Q-13.45 -217.7 -14.8 -222.3" fill="url(#gradient0)" fill-rule="evenodd" stroke="none"/>
    <path d="M3.0 -223.1 L4.75 -228.2 5.8 -226.9 4.15 -222.9 3.0 -223.1 M-19.4 -232.9 L-18.35 -231.6 -20.0 -227.6 -21.15 -227.8 -19.4 -232.9 M-11.15 -227.1 L-6.8 -219.8 -10.9 -213.75 -16.8 -214.7 Q-14.45 -214.7 -12.8 -218.3 -11.15 -221.95 -11.15 -227.1 M-16.55 -222.95 Q-15.45 -222.9 -14.8 -222.3 -13.45 -217.7 -16.35 -222.7 L-16.55 -222.95 M-17.15 -207.85 Q-14.8 -201.35 -21.05 -200.25 L-21.0 -200.55 -17.15 -207.85" fill="#dfa23c" fill-rule="evenodd" stroke="none"/>
    <path d="M-21.0 -200.55 L-22.05 -204.75 -20.45 -209.6 -17.15 -207.85 -21.0 -200.55" fill="url(#gradient1)" fill-rule="evenodd" stroke="none"/>
    <path d="M4.75 -228.2 L3.0 -223.1 1.7 -223.6 3.0 -228.95 4.75 -228.2" fill="url(#gradient2)" fill-rule="evenodd" stroke="none"/>
    <path d="M-19.4 -232.9 L-21.15 -227.8 -22.45 -228.3 -21.15 -233.65 -19.4 -232.9" fill="url(#gradient3)" fill-rule="evenodd" stroke="none"/>
  </g>
  <defs>
    <linearGradient gradientTransform="matrix(-0.0101, -0.0026, -0.0062, 0.0152, -115.8, -308.75)" gradientUnits="userSpaceOnUse" id="gradient0" spreadMethod="pad" x1="-819.2" x2="819.2">
      <stop offset="0.0" stop-color="#eacb6f"/>
      <stop offset="1.0" stop-color="#70411f"/>
    </linearGradient>
    <linearGradient gradientTransform="matrix(-0.0081, -0.0021, -0.0049, 0.0121, -95.8, -288.85)" gradientUnits="userSpaceOnUse" id="gradient1" spreadMethod="pad" x1="-819.2" x2="819.2">
      <stop offset="0.0" stop-color="#eacb6f"/>
      <stop offset="1.0" stop-color="#70411f"/>
    </linearGradient>
    <linearGradient gradientTransform="matrix(-0.0088, -0.0023, -0.0054, 0.0133, -88.25, -284.85)" gradientUnits="userSpaceOnUse" id="gradient2" spreadMethod="pad" x1="-819.2" x2="819.2">
      <stop offset="0.0" stop-color="#eacb6f"/>
      <stop offset="1.0" stop-color="#70411f"/>
    </linearGradient>
    <linearGradient gradientTransform="matrix(-0.0088, -0.0023, -0.0054, 0.0133, -112.4, -289.55)" gradientUnits="userSpaceOnUse" id="gradient3" spreadMethod="pad" x1="-819.2" x2="819.2">
      <stop offset="0.0" stop-color="#eacb6f"/>
      <stop offset="1.0" stop-color="#70411f"/>
    </linearGradient>
  </defs>
</svg>
