<?xml version="1.0" encoding="UTF-8" standalone="no"?>
<svg xmlns:xlink="http://www.w3.org/1999/xlink" height="120.75px" width="114.05px" xmlns="http://www.w3.org/2000/svg">
  <g transform="matrix(1.0, 0.0, 0.0, 1.0, 56.85, 62.45)">
    <path d="M42.35 -50.6 L43.75 -49.6 44.7 -48.95 43.75 -48.95 44.7 -48.95 46.3 -47.75 46.6 -47.55 50.45 -44.65 54.3 -41.6 55.0 -40.95 55.05 -39.95 54.3 -39.95 55.05 -39.95 55.05 -36.7 54.3 -36.7 55.05 -36.7 55.0 -34.05 54.95 -33.3 54.3 -28.85 54.3 -33.3 54.3 -28.85 53.25 -24.6 50.45 -24.65 53.25 -24.6 52.05 -21.15 50.45 -21.15 50.45 -24.65 50.45 -33.3 50.45 -24.65 46.3 -24.65 46.3 -21.15 46.3 -17.8 46.3 -21.15 46.3 -24.65 43.75 -24.2 43.75 -20.95 43.75 -24.2 37.0 -24.25 32.7 -24.25 29.4 -24.25 23.65 -24.3 23.45 -24.3 23.65 -24.3 29.4 -24.25 32.7 -24.25 32.7 -33.05 37.0 -33.05 32.7 -33.05 32.7 -24.25 37.0 -24.25 43.75 -24.2 46.3 -24.65 50.45 -24.65 50.45 -21.15 52.05 -21.15 50.6 -17.8 50.45 -17.8 50.45 -21.15 46.3 -21.15 50.45 -21.15 50.45 -17.8 50.6 -17.8 50.45 -17.55 50.45 -17.8 50.45 -17.55 44.1 -7.9 44.1 -11.9 44.1 -7.9 40.85 -4.0 41.4 -3.55 42.6 6.0 47.4 48.05 Q42.1 50.7 36.95 51.4 L35.35 51.25 33.5 51.65 Q-7.05 62.65 -46.45 50.4 L-44.7 18.25 -44.35 5.95 -44.85 -1.25 -44.7 -4.4 -47.8 -8.3 -51.7 -17.7 -53.2 -21.1 -46.7 -21.1 -53.2 -21.1 -53.45 -21.7 -54.35 -24.4 -56.1 -33.2 -56.25 -36.65 -56.25 -39.85 -53.45 -39.85 -56.25 -39.85 -53.45 -43.25 -53.45 -39.85 -53.45 -36.65 -53.45 -39.85 -53.45 -43.25 -47.9 -47.45 -46.7 -48.35 -46.7 -48.4 -43.4 -52.15 -39.55 -55.1 -39.35 -55.2 -24.5 -61.65 -21.6 -61.6 -15.8 -61.6 -12.05 -61.6 -8.1 -61.6 -1.2 -61.6 2.25 -61.65 2.25 -54.8 2.25 -61.65 6.0 -61.6 9.7 -61.6 9.7 -54.8 9.7 -61.6 20.6 -61.6 23.25 -61.65 23.3 -61.65 29.4 -60.3 29.4 -58.5 29.4 -54.8 29.4 -58.5 32.7 -56.7 32.7 -54.8 32.7 -56.7 36.0 -54.8 37.0 -54.15 37.0 -53.95 37.0 -54.15 37.35 -53.95 42.35 -50.6 37.0 -50.6 42.35 -50.6 M37.0 -48.95 L37.0 -50.6 37.0 -48.95 43.75 -48.95 37.0 -48.95 32.7 -48.95 37.0 -48.95 37.0 -47.3 37.0 -48.95 M43.75 -49.6 L43.75 -48.95 43.75 -49.6 M6.0 -54.8 L6.0 -61.6 6.0 -54.8 9.7 -54.8 6.0 -54.8 6.0 -50.95 2.25 -50.95 -1.2 -50.95 2.25 -50.95 6.0 -50.95 6.0 -54.8 2.25 -54.8 2.25 -50.95 2.25 -54.8 -1.2 -54.8 2.25 -54.8 6.0 -54.8 M-1.2 -50.95 L-1.2 -54.8 -1.2 -50.95 -8.1 -50.9 -1.2 -50.95 -1.2 -48.95 -1.2 -50.95 M-1.2 -54.8 L-1.2 -61.6 -1.2 -54.8 -8.1 -54.8 -1.2 -54.8 M-8.1 -50.9 L-8.1 -54.8 -8.1 -50.9 -8.1 -48.95 -8.1 -50.9 -12.05 -50.9 -12.05 -54.8 -12.05 -50.9 -8.1 -50.9 M2.25 -48.95 L-1.2 -48.95 2.25 -48.95 2.25 -50.95 2.25 -48.95 6.0 -48.95 2.25 -48.95 2.25 -40.95 2.25 -48.95 M9.7 -50.95 L6.0 -50.95 9.7 -50.95 9.7 -54.8 9.7 -50.95 16.6 -51.0 9.7 -50.95 9.7 -48.95 9.7 -50.95 M20.6 -54.8 L16.6 -54.8 9.7 -54.8 16.6 -54.8 20.6 -54.8 20.6 -61.6 20.6 -54.8 20.6 -51.0 16.6 -51.0 20.6 -51.0 20.6 -54.8 23.25 -54.8 20.6 -54.8 M16.6 -54.8 L16.6 -51.0 16.6 -54.8 M16.6 -48.95 L9.7 -48.95 16.6 -48.95 16.6 -51.0 16.6 -48.95 16.6 -40.95 20.6 -40.95 16.6 -40.95 16.6 -36.75 20.6 -36.75 20.6 -34.05 20.6 -36.75 16.6 -36.75 16.6 -34.05 16.6 -36.75 16.6 -40.95 16.6 -48.95 20.6 -48.95 16.6 -48.95 M23.25 -61.65 L23.25 -54.8 23.25 -61.65 M23.25 -51.0 L23.25 -54.8 23.25 -51.0 29.4 -51.05 23.25 -51.0 20.6 -51.0 23.25 -51.0 23.25 -48.95 23.25 -51.0 M29.4 -54.8 L29.4 -53.95 29.4 -51.05 29.4 -53.95 29.4 -54.8 23.25 -54.8 29.4 -54.8 32.7 -54.8 29.4 -54.8 M29.4 -48.95 L23.25 -48.95 29.4 -48.95 29.4 -50.6 29.4 -51.05 29.4 -50.6 29.4 -48.95 32.7 -48.95 29.4 -48.95 29.4 -47.3 29.4 -48.95 M32.7 -53.95 L32.7 -50.6 31.75 -50.6 29.4 -51.05 31.75 -50.6 32.7 -50.6 32.7 -53.95 29.4 -53.95 32.7 -53.95 32.7 -54.8 36.0 -54.8 32.7 -54.8 32.7 -53.95 37.0 -53.95 37.35 -53.95 37.0 -53.95 37.0 -50.6 37.0 -53.95 32.7 -53.95 M32.7 -48.95 L32.7 -50.6 37.0 -50.6 32.7 -50.6 32.7 -48.95 32.7 -47.3 32.7 -48.95 M43.75 -47.3 L37.0 -47.3 43.75 -47.3 43.75 -48.95 43.75 -47.3 43.75 -40.95 43.75 -47.3 46.3 -47.55 43.75 -47.3 M29.4 -50.6 L31.75 -50.6 29.4 -50.6 M37.0 -47.3 L32.7 -47.3 29.4 -47.3 32.7 -47.3 37.0 -47.3 37.0 -40.95 37.0 -47.3 M43.75 -40.95 L37.0 -40.95 43.75 -40.95 43.75 -39.7 43.75 -40.95 46.3 -40.95 43.75 -40.95 M46.3 -47.75 L46.3 -47.55 46.3 -47.75 M32.7 -39.7 L32.7 -40.95 32.7 -39.7 37.0 -39.7 32.7 -39.7 29.4 -39.7 32.7 -39.7 32.7 -36.5 37.0 -36.5 32.7 -36.5 32.7 -39.7 M37.0 -40.95 L37.0 -39.7 37.0 -40.95 32.7 -40.95 37.0 -40.95 M32.7 -47.3 L32.7 -40.95 32.7 -47.3 M20.6 -48.95 L23.25 -48.95 20.6 -48.95 20.6 -40.95 20.6 -48.95 20.6 -51.0 20.6 -48.95 M23.25 -40.95 L20.6 -40.95 23.25 -40.95 23.25 -48.95 23.25 -40.95 29.4 -40.95 29.4 -39.7 29.4 -40.95 23.25 -40.95 23.25 -36.75 23.25 -40.95 M37.0 -39.7 L37.0 -36.5 37.0 -39.7 43.75 -39.7 37.0 -39.7 M46.3 -47.55 L46.3 -40.95 46.3 -47.55 46.6 -47.55 46.3 -47.55 M29.4 -36.5 L23.25 -36.75 29.4 -36.5 29.4 -39.7 29.4 -36.5 29.4 -34.05 29.4 -36.5 32.7 -36.5 32.7 -34.05 32.7 -36.5 29.4 -36.5 M29.4 -40.95 L29.4 -47.3 29.4 -40.95 32.7 -40.95 29.4 -40.95 M23.25 -34.05 L20.6 -34.05 16.6 -34.05 20.6 -34.05 23.25 -34.05 23.25 -36.75 23.25 -34.05 29.4 -34.05 23.25 -34.05 23.25 -24.3 23.25 -34.05 M20.6 -40.95 L20.6 -36.75 23.25 -36.75 20.6 -36.75 20.6 -40.95 M9.7 -36.75 L16.6 -36.75 9.7 -36.75 9.7 -34.05 9.7 -36.75 9.7 -40.95 9.7 -36.75 6.0 -36.75 6.0 -34.05 6.0 -36.75 9.7 -36.75 M16.6 -34.05 L9.7 -34.05 16.6 -34.05 16.6 -29.15 16.6 -34.05 M18.5 -24.35 L16.6 -29.15 16.6 -24.95 16.6 -24.35 16.6 -24.95 16.85 -24.35 16.6 -24.35 16.85 -24.35 18.0 -20.9 18.25 -20.2 Q19.15 -17.6 20.6 -19.55 L20.6 -17.55 20.6 -19.55 21.5 -20.9 22.8 -20.95 23.65 -20.95 22.8 -20.95 21.5 -20.9 21.5 -20.95 22.95 -23.35 23.25 -23.9 23.45 -24.3 23.25 -24.3 21.8 -24.3 20.6 -24.3 21.8 -24.3 20.6 -22.15 20.6 -20.95 19.85 -20.95 19.6 -20.95 18.5 -24.35 20.6 -24.3 18.5 -24.35 M20.6 -34.05 L20.6 -24.3 20.6 -34.05 M37.0 -34.05 L32.7 -34.05 37.0 -34.05 37.0 -36.5 37.0 -34.05 37.0 -33.05 37.0 -34.05 43.75 -34.05 37.0 -34.05 M43.75 -36.5 L37.0 -36.5 43.75 -36.5 43.75 -39.7 43.75 -36.5 43.75 -34.05 43.75 -36.5 46.3 -36.7 43.75 -36.5 M46.3 -39.95 L43.75 -39.7 46.3 -39.95 46.3 -40.95 46.3 -39.95 46.3 -36.7 46.3 -39.95 50.45 -39.95 46.3 -39.95 M50.45 -40.95 L46.3 -40.95 50.45 -40.95 50.45 -44.65 50.45 -40.95 50.45 -39.95 50.45 -40.95 54.3 -40.95 50.45 -40.95 M29.4 -34.05 L29.4 -33.05 29.4 -24.25 29.4 -33.05 29.4 -34.05 32.7 -34.05 29.4 -34.05 M29.4 -33.05 L32.7 -33.05 29.4 -33.05 M32.7 -34.05 L32.7 -33.05 32.7 -34.05 M43.75 -33.05 L37.0 -33.05 43.75 -33.05 43.75 -34.05 43.75 -33.05 43.75 -24.2 43.75 -33.05 46.3 -33.3 43.75 -33.05 M9.7 -40.95 L16.6 -40.95 9.7 -40.95 6.0 -40.95 2.25 -40.95 6.0 -40.95 9.7 -40.95 9.7 -48.95 9.7 -40.95 M9.7 -34.05 L6.0 -34.05 9.7 -34.05 9.4 -25.05 9.4 -24.35 9.4 -25.05 9.7 -34.05 M16.6 -24.35 L9.4 -24.35 16.6 -24.35 16.6 -20.9 16.6 -24.35 M6.0 -48.95 L6.0 -40.95 6.0 -48.95 9.7 -48.95 6.0 -48.95 6.0 -50.95 6.0 -48.95 M2.25 -34.05 L2.25 -36.75 2.25 -34.05 6.0 -34.05 2.25 -34.05 2.25 -25.05 2.25 -20.9 2.25 -25.05 2.25 -34.05 -1.2 -34.05 2.25 -34.05 M6.0 -25.05 L6.0 -34.05 6.0 -25.05 2.25 -25.05 6.0 -25.05 9.4 -25.05 6.0 -25.05 5.55 -20.9 9.4 -20.9 5.55 -20.9 6.0 -25.05 M9.4 -24.35 L9.4 -20.9 9.4 -24.35 M2.25 -36.75 L6.0 -36.75 2.25 -36.75 2.25 -40.95 2.25 -36.75 -1.2 -36.75 2.25 -36.75 M-1.2 -40.95 L2.25 -40.95 -1.2 -40.95 -1.2 -36.75 -1.2 -40.95 -8.1 -40.95 -1.2 -40.95 -1.2 -48.95 -8.1 -48.95 -12.05 -48.95 -15.8 -48.95 -12.05 -48.95 -8.1 -48.95 -1.2 -48.95 -1.2 -40.95 M5.55 -17.55 L5.55 -20.9 2.25 -20.9 5.55 -20.9 5.55 -17.55 9.4 -17.55 5.55 -17.55 1.4 -17.55 -1.35 -17.85 1.4 -17.55 5.55 -17.55 5.9 -15.35 9.75 -15.35 5.9 -15.35 5.55 -17.55 M9.4 -20.9 L9.4 -17.55 9.4 -20.9 16.6 -20.9 9.4 -20.9 M6.0 -40.95 L6.0 -36.75 6.0 -40.95 M20.6 -24.3 L20.6 -22.15 20.6 -24.3 M16.6 -20.9 L18.0 -20.9 16.6 -20.9 16.6 -17.55 16.6 -20.9 M20.6 -17.55 L16.6 -17.55 20.6 -17.55 20.95 -15.35 16.95 -15.35 20.95 -15.35 20.6 -17.55 23.65 -17.55 20.6 -17.55 M16.95 -15.35 L16.6 -17.55 16.95 -15.35 9.75 -15.35 16.95 -15.35 16.95 -12.0 16.95 -15.35 M23.65 -20.95 L23.65 -17.55 23.65 -20.95 29.4 -20.95 23.65 -20.95 23.65 -24.3 23.65 -20.95 M22.8 -20.95 L21.5 -20.95 22.8 -20.95 M-1.2 -19.95 Q-0.4 -19.95 0.2 -20.3 0.75 -20.7 0.75 -21.2 L-1.2 -21.2 -1.95 -21.25 -4.55 -21.25 -8.1 -21.25 -4.55 -21.25 -2.15 -19.75 -2.1 -19.6 -7.45 -17.85 -8.1 -17.85 -7.45 -17.85 -6.85 -15.7 -7.75 -15.7 -6.85 -15.7 -7.1 -12.2 -7.75 -12.2 -7.1 -12.2 -7.3 -4.05 -7.3 -2.3 -7.75 -2.3 -7.75 0.25 -11.6 0.25 -11.6 -4.05 -11.6 0.25 -7.75 0.25 -7.75 5.95 -7.75 13.7 -7.75 18.45 -7.75 24.95 -11.6 24.95 -11.6 30.95 -11.6 24.95 -7.75 24.95 -7.75 30.95 -11.6 30.95 -7.75 30.95 -7.75 36.2 -11.6 36.2 -11.6 40.95 -11.6 36.2 -7.75 36.2 -7.75 40.95 -11.6 40.95 -7.75 40.95 -7.75 45.55 -11.6 45.55 -11.6 50.95 -7.75 50.95 -11.6 50.95 -15.35 50.95 -21.1 50.95 -24.15 50.95 -21.1 50.95 -21.1 45.55 -24.15 45.55 -24.15 40.95 -24.15 45.55 -21.1 45.55 -21.1 40.95 -24.15 40.95 -21.1 40.95 -21.1 36.2 -21.1 30.95 -21.1 36.2 -15.35 36.2 -21.1 36.2 -24.15 36.2 -24.15 40.95 -24.15 36.2 -21.1 36.2 -21.1 40.95 -21.1 45.55 -21.1 50.95 -15.35 50.95 -11.6 50.95 -11.6 45.55 -7.75 45.55 -7.75 50.95 -7.75 53.35 -7.3 50.95 -7.3 49.4 -5.8 49.4 -5.8 45.55 -5.8 40.95 -5.8 36.2 -5.8 30.95 -5.8 24.95 -5.8 18.45 -5.8 13.7 -5.8 5.95 -5.8 0.25 -5.8 -4.05 -6.05 -12.2 -6.2 -15.7 -6.3 -17.2 -3.9 -17.85 Q-2.6 -18.25 -1.35 -18.8 L-1.35 -19.45 -1.2 -19.95 -1.35 -19.45 -1.35 -19.9 -1.2 -19.95 M-1.35 -17.85 L-1.35 -18.8 -1.35 -17.85 -1.0 -15.7 -1.35 -17.85 -3.9 -17.85 -1.35 -17.85 M9.4 -17.55 L9.75 -15.35 9.4 -17.55 16.6 -17.55 9.4 -17.55 M1.4 -17.55 L1.75 -15.35 1.4 -17.55 M1.75 -15.35 L5.9 -15.35 5.9 -12.05 5.9 -15.35 1.75 -15.35 1.75 -12.05 1.75 -15.35 -1.0 -15.7 1.75 -15.35 M9.75 -12.0 L5.9 -12.05 1.75 -12.05 5.9 -12.05 9.75 -12.0 9.75 -15.35 9.75 -12.0 9.75 -3.75 9.75 -12.0 16.95 -12.0 20.95 -11.95 16.95 -12.0 9.75 -12.0 M24.0 -15.35 L20.95 -15.35 20.95 -11.95 20.95 -15.35 24.0 -15.35 23.65 -17.55 24.0 -15.35 24.0 -11.95 24.0 -15.35 29.75 -15.35 24.0 -15.35 M29.4 -17.55 L23.65 -17.55 29.4 -17.55 29.4 -20.95 29.4 -17.55 29.75 -15.35 29.4 -17.55 32.7 -17.55 29.4 -17.55 M9.75 -3.75 L5.9 -3.75 9.75 -3.75 16.95 -3.75 9.75 -3.75 9.75 0.25 9.75 -3.75 M16.95 -3.75 L16.95 -12.0 16.95 -3.75 20.95 -3.75 16.95 -3.75 16.95 0.25 16.95 -3.75 M20.95 -11.95 L20.95 -3.75 20.95 -11.95 24.0 -11.95 20.95 -11.95 M29.4 -20.95 L32.7 -20.95 32.7 -17.55 32.7 -20.95 29.4 -20.95 29.4 -24.25 29.4 -20.95 M1.75 -12.05 L1.75 -3.75 1.75 -12.05 -1.0 -12.2 1.75 -12.05 M-1.0 -4.05 L-1.0 -12.2 -1.0 -4.05 1.75 -3.75 5.9 -3.75 1.75 -3.75 -1.0 -4.05 -1.0 0.25 -1.0 -4.05 -5.8 -4.05 -1.0 -4.05 M5.9 -12.05 L5.9 -3.75 5.9 -12.05 M16.95 0.25 L9.75 0.25 16.95 0.25 16.95 6.25 16.95 0.25 20.95 0.25 20.95 -3.75 24.0 -3.75 24.0 -11.95 24.0 -3.75 29.75 -3.75 33.5 -3.75 29.75 -3.75 24.0 -3.75 20.95 -3.75 20.95 0.25 16.95 0.25 M37.0 -20.95 L37.0 -24.25 37.0 -20.95 43.75 -20.95 37.0 -20.95 32.7 -20.95 32.7 -24.25 32.7 -20.95 37.0 -20.95 37.0 -17.55 37.0 -20.95 M43.75 -17.55 L37.0 -17.55 43.75 -17.55 43.75 -20.95 43.75 -17.55 44.1 -15.4 43.75 -17.55 46.3 -17.8 43.75 -17.55 M37.35 -15.4 L33.05 -15.4 32.7 -17.55 33.05 -15.4 37.35 -15.4 37.0 -17.55 37.35 -15.4 37.35 -11.9 37.35 -15.4 44.1 -15.4 37.35 -15.4 M32.7 -17.55 L37.0 -17.55 32.7 -17.55 M29.75 -11.95 L24.0 -11.95 29.75 -11.95 29.75 -3.75 29.75 -11.95 29.75 -15.35 29.75 -11.95 33.05 -11.9 29.75 -11.95 M33.05 -15.4 L33.05 -11.9 33.05 -15.4 M33.05 -11.9 L33.5 -3.75 33.05 -11.9 37.35 -11.9 33.05 -11.9 M46.3 -34.05 L46.3 -33.3 46.3 -34.05 43.75 -34.05 46.3 -34.05 50.45 -34.05 46.3 -34.05 46.3 -36.7 46.3 -34.05 M54.3 -41.6 L54.3 -40.95 54.3 -41.6 M24.0 0.25 L24.0 -3.75 24.0 0.25 29.75 0.25 24.0 0.25 20.95 0.25 20.95 6.25 20.95 0.25 24.0 0.25 24.0 6.25 24.0 0.25 M29.75 -3.75 L29.75 0.25 29.75 -3.75 M33.5 -3.75 L37.35 -3.75 33.5 -3.75 33.5 0.25 37.35 0.25 33.5 0.25 33.5 -3.75 M37.35 -11.9 L37.35 -3.75 37.35 0.25 37.35 -3.75 37.35 -11.9 44.1 -11.9 37.35 -11.9 M37.0 -24.25 L37.0 -33.05 37.0 -24.25 M44.1 -15.4 L44.1 -11.9 44.1 -15.4 M54.3 -40.95 L55.0 -40.95 54.3 -40.95 54.3 -39.95 54.3 -40.95 M50.45 -33.3 L46.3 -33.3 50.45 -33.3 50.45 -34.05 50.45 -33.3 54.3 -33.3 50.45 -33.3 M50.45 -39.95 L50.45 -36.7 46.3 -36.7 50.45 -36.7 50.45 -39.95 54.3 -39.95 50.45 -39.95 M54.3 -36.7 L54.3 -39.95 54.3 -36.7 50.45 -36.7 50.45 -34.05 50.45 -36.7 54.3 -36.7 54.3 -34.05 54.3 -36.7 M54.3 -34.05 L50.45 -34.05 54.3 -34.05 55.0 -34.05 54.3 -34.05 54.3 -33.3 54.95 -33.3 54.3 -33.3 54.3 -34.05 M46.3 -33.3 L46.3 -24.65 46.3 -33.3 M46.3 -17.8 L50.45 -17.8 46.3 -17.8 M37.35 -3.75 L41.4 -3.55 37.35 -3.75 M37.35 6.25 L37.35 0.25 37.35 6.25 33.5 6.25 37.35 6.25 42.6 6.0 37.35 6.25 37.35 13.7 37.35 18.75 37.35 24.95 37.35 31.25 37.35 36.2 37.35 41.25 37.35 45.55 36.95 51.4 37.35 45.55 37.35 41.25 37.35 36.2 37.35 31.25 37.35 24.95 37.35 18.75 37.35 13.7 37.35 6.25 M37.35 13.7 L33.5 13.7 33.5 6.25 33.5 0.25 33.5 6.25 33.5 13.7 37.35 13.7 M29.75 6.25 L29.75 0.25 29.75 6.25 33.5 6.25 29.75 6.25 24.0 6.25 29.75 6.25 29.75 13.7 29.75 6.25 M24.0 6.25 L20.95 6.25 24.0 6.25 24.0 13.7 29.75 13.7 33.5 13.7 33.5 18.75 33.5 13.7 29.75 13.7 24.0 13.7 24.0 18.75 24.0 24.95 24.0 18.75 24.0 13.7 20.95 13.7 20.95 18.75 24.0 18.75 20.95 18.75 20.95 24.95 24.0 24.95 20.95 24.95 20.95 18.75 20.95 13.7 24.0 13.7 24.0 6.25 M37.35 18.75 L33.5 18.75 37.35 18.75 M29.75 18.75 L29.75 13.7 29.75 18.75 33.5 18.75 29.75 18.75 29.75 24.95 29.75 18.75 24.0 18.75 29.75 18.75 M37.35 24.95 L33.5 24.95 33.5 18.75 33.5 24.95 37.35 24.95 M16.95 18.75 L20.95 18.75 16.95 18.75 16.95 24.95 16.95 18.75 16.95 13.7 16.95 18.75 9.75 18.75 16.95 18.75 M20.95 31.25 L20.95 24.95 16.95 24.95 20.95 24.95 20.95 31.25 24.0 31.25 20.95 31.25 16.95 31.25 20.95 31.25 20.95 36.2 24.0 36.2 20.95 36.2 20.95 31.25 M24.0 24.95 L24.0 31.25 24.0 24.95 29.75 24.95 24.0 24.95 M16.95 13.7 L20.95 13.7 20.95 6.25 20.95 13.7 16.95 13.7 9.75 13.7 5.9 13.7 5.9 6.25 5.9 13.7 9.75 13.7 9.75 6.25 5.9 6.25 9.75 6.25 9.75 0.25 5.9 0.25 5.9 6.25 5.9 0.25 9.75 0.25 9.75 6.25 9.75 13.7 9.75 18.75 9.75 24.95 9.75 18.75 9.75 13.7 16.95 13.7 16.95 6.25 9.75 6.25 16.95 6.25 20.95 6.25 16.95 6.25 16.95 13.7 M16.95 24.95 L9.75 24.95 16.95 24.95 16.95 31.25 16.95 24.95 M24.0 31.25 L24.0 36.2 24.0 31.25 29.75 31.25 24.0 31.25 M29.75 24.95 L29.75 31.25 29.75 24.95 33.5 24.95 33.5 31.25 33.5 24.95 29.75 24.95 M37.35 31.25 L33.5 31.25 37.35 31.25 M29.75 0.25 L33.5 0.25 29.75 0.25 M1.75 0.25 L5.9 0.25 1.75 0.25 1.75 6.25 1.75 0.25 1.75 -3.75 1.75 0.25 -1.0 0.25 1.75 0.25 M5.9 6.25 L1.75 6.25 5.9 6.25 M1.75 18.75 L5.9 18.75 1.75 18.75 1.75 24.95 1.75 18.75 1.75 13.7 1.75 18.75 -1.0 18.45 1.75 18.75 M1.75 13.7 L5.9 13.7 5.9 18.75 5.9 24.95 1.75 24.95 5.9 24.95 5.9 18.75 5.9 13.7 1.75 13.7 1.75 6.25 1.75 13.7 -1.0 13.7 1.75 13.7 M-1.0 24.95 L-1.0 18.45 -1.0 24.95 1.75 24.95 -1.0 24.95 -5.8 24.95 -1.0 24.95 -1.0 30.95 1.75 31.25 -1.0 30.95 -1.0 36.2 -1.0 30.95 -1.0 24.95 M1.75 31.25 L1.75 24.95 1.75 31.25 5.9 31.25 1.75 31.25 1.75 36.2 1.75 31.25 M9.75 24.95 L5.9 24.95 5.9 31.25 5.9 24.95 9.75 24.95 9.75 31.25 9.75 24.95 M16.95 31.25 L9.75 31.25 16.95 31.25 16.95 36.2 16.95 31.25 M20.95 41.25 L20.95 36.2 16.95 36.2 20.95 36.2 20.95 41.25 24.0 41.25 20.95 41.25 16.95 41.25 20.95 41.25 20.95 45.55 24.0 45.55 20.95 45.55 20.95 41.25 M24.0 36.2 L24.0 41.25 24.0 36.2 29.75 36.2 24.0 36.2 M29.75 31.25 L29.75 36.2 29.75 31.25 33.5 31.25 29.75 31.25 M37.35 36.2 L33.5 36.2 33.5 31.25 33.5 36.2 37.35 36.2 M5.9 18.75 L9.75 18.75 5.9 18.75 M-1.0 5.95 L1.75 6.25 -1.0 5.95 -1.0 13.7 -1.0 5.95 -1.0 0.25 -5.8 0.25 -1.0 0.25 -1.0 5.95 -5.8 5.95 -1.0 5.95 M5.9 31.25 L5.9 36.2 1.75 36.2 -1.0 36.2 1.75 36.2 5.9 36.2 5.9 31.25 9.75 31.25 5.9 31.25 M9.75 36.2 L9.75 31.25 9.75 36.2 16.95 36.2 9.75 36.2 5.9 36.2 9.75 36.2 9.75 41.25 9.75 36.2 M16.95 41.25 L16.95 36.2 16.95 41.25 9.75 41.25 16.95 41.25 16.95 45.55 16.95 41.25 M24.0 41.25 L24.0 45.55 24.0 41.25 29.75 41.25 24.0 41.25 M29.75 36.2 L29.75 41.25 29.75 36.2 33.5 36.2 33.5 41.25 33.5 36.2 29.75 36.2 M37.35 41.25 L33.5 41.25 37.35 41.25 M20.95 51.25 L20.95 45.55 16.95 45.55 20.95 45.55 20.95 51.25 24.0 51.25 20.95 51.25 16.95 51.25 20.95 51.25 M24.0 45.55 L24.0 51.25 24.0 45.55 29.75 45.55 24.0 45.55 M29.75 41.25 L29.75 45.55 29.75 41.25 33.5 41.25 29.75 41.25 M9.75 45.55 L5.9 45.55 5.9 41.25 5.9 45.55 9.75 45.55 9.75 41.25 9.75 45.55 9.75 51.25 9.75 45.55 16.95 45.55 9.75 45.55 M37.35 45.55 L33.5 45.55 33.5 41.25 33.5 45.55 37.35 45.55 M5.9 41.25 L9.75 41.25 5.9 41.25 5.9 36.2 5.9 41.25 1.75 41.25 5.9 41.25 M5.9 51.25 L5.9 45.55 1.75 45.55 5.9 45.55 5.9 51.25 9.75 51.25 5.9 51.25 1.75 51.25 5.9 51.25 M16.95 51.25 L16.95 45.55 16.95 51.25 9.75 51.25 16.95 51.25 M1.75 51.25 L1.75 45.55 1.75 41.25 1.75 45.55 1.75 51.25 -1.0 50.95 -1.0 45.55 -1.0 40.95 -5.8 40.95 -1.0 40.95 -1.0 36.2 -5.8 36.2 -1.0 36.2 -1.0 40.95 -1.0 45.55 -5.8 45.55 -1.0 45.55 1.75 45.55 -1.0 45.55 -1.0 50.95 1.75 51.25 M1.75 36.2 L1.75 41.25 1.75 36.2 M33.5 51.25 L33.5 45.55 29.75 45.55 33.5 45.55 33.5 51.25 35.35 51.25 33.5 51.25 33.5 51.65 33.5 51.25 29.75 51.25 24.0 51.25 29.75 51.25 29.75 45.55 29.75 51.25 33.5 51.25 M5.9 -3.75 L5.9 0.25 5.9 -3.75 M-35.7 -54.25 L-35.7 -50.85 -35.7 -54.25 -38.05 -54.25 -35.7 -54.25 M-39.55 -53.3 L-38.05 -54.25 -39.55 -54.25 -39.55 -53.3 -39.55 -50.85 -35.7 -50.85 -29.85 -50.85 -35.7 -50.85 -39.55 -50.85 -39.55 -53.3 M-28.5 -50.85 L-29.85 -50.85 -29.85 -48.95 -29.8 -47.6 -35.7 -47.6 -29.8 -47.6 -29.25 -40.95 -35.7 -40.95 -29.25 -40.95 -29.15 -40.0 -35.7 -40.0 -29.15 -40.0 -28.65 -36.75 -35.7 -36.75 -28.65 -36.75 -28.5 -35.9 -28.5 -34.05 -28.5 -35.9 -28.15 -34.05 -28.0 -33.35 -28.5 -33.35 -28.0 -33.35 -24.8 -24.6 -24.55 -24.1 -24.55 -24.6 -24.5 -24.6 -24.5 -24.0 -24.5 -22.4 -24.55 -24.1 -24.5 -22.4 -24.5 -24.0 -22.9 -21.25 -24.5 -21.25 -24.5 -21.2 -25.8 -21.2 -28.5 -21.2 -25.8 -21.2 -24.5 -21.25 -24.5 -22.4 -24.5 -21.25 -25.8 -21.2 -24.5 -21.2 -24.5 -21.25 -22.9 -21.25 -22.9 -21.2 -24.5 -21.2 -22.9 -21.2 -21.6 -19.25 -21.45 -19.05 -19.05 -21.25 -17.95 -24.6 -19.6 -24.6 -21.6 -24.6 -19.6 -24.6 -20.7 -21.25 -21.2 -21.25 -21.6 -21.85 -21.6 -24.6 -21.6 -21.85 -23.1 -24.6 -24.55 -27.9 -24.55 -34.05 -24.55 -27.9 -26.25 -33.35 -26.45 -34.05 -27.05 -36.75 -27.75 -40.95 -28.25 -45.35 -28.45 -48.95 -28.25 -48.95 -28.45 -48.95 -28.5 -50.85 -28.25 -50.85 -28.5 -50.85 M-28.25 -54.8 L-28.25 -50.85 -28.25 -54.8 -24.55 -54.8 -28.25 -54.8 M-24.5 -61.65 L-24.55 -54.8 -24.5 -61.65 M-21.6 -54.8 L-21.6 -50.85 -21.6 -54.8 -24.55 -54.8 -21.6 -54.8 -15.8 -54.8 -21.6 -54.8 -21.6 -61.6 -21.6 -54.8 M-15.8 -50.9 L-21.6 -50.85 -24.55 -50.85 -24.55 -54.8 -24.55 -50.85 -21.6 -50.85 -15.8 -50.9 -15.8 -54.8 -15.8 -50.9 -12.05 -50.9 -12.05 -48.95 -12.05 -50.9 -15.8 -50.9 -15.8 -48.95 -15.8 -50.9 M-24.55 -48.95 L-24.55 -50.85 -28.25 -50.85 -24.55 -50.85 -24.55 -48.95 -21.6 -48.95 -24.55 -48.95 -24.55 -40.95 -24.55 -48.95 -28.25 -48.95 -28.25 -45.35 -28.25 -48.95 -24.55 -48.95 M-21.6 -50.85 L-21.6 -48.95 -21.6 -50.85 M-15.8 -54.8 L-12.05 -54.8 -15.8 -54.8 -15.8 -61.6 -15.8 -54.8 M-12.05 -54.8 L-12.05 -61.6 -12.05 -54.8 -8.1 -54.8 -12.05 -54.8 M-8.1 -61.6 L-8.1 -54.8 -8.1 -61.6 M-43.7 -50.45 L-43.15 -50.85 -39.55 -50.85 -39.55 -48.95 -39.55 -47.6 -39.55 -48.95 -39.55 -50.85 -43.15 -50.85 -43.7 -50.85 -43.7 -50.45 -43.7 -47.6 -43.7 -50.45 M-39.55 -47.6 L-43.7 -47.6 -39.55 -47.6 -39.55 -40.95 -39.55 -47.6 -35.7 -47.6 -39.55 -47.6 M-46.7 -47.45 L-46.7 -48.35 -46.7 -47.45 -43.7 -47.6 -46.7 -47.45 -47.9 -47.45 -46.7 -47.45 -46.7 -40.95 -46.7 -47.45 M-43.7 -40.95 L-43.7 -47.6 -43.7 -40.95 -39.55 -40.95 -43.7 -40.95 -46.7 -40.95 -43.7 -40.95 -43.7 -40.0 -43.7 -40.95 M-35.7 -48.95 L-35.7 -47.6 -35.7 -48.95 -39.55 -48.95 -35.7 -48.95 -29.85 -48.95 -35.7 -48.95 -35.7 -50.85 -35.7 -48.95 M-39.55 -40.0 L-43.7 -40.0 -39.55 -40.0 -39.55 -40.95 -39.55 -40.0 -39.55 -36.75 -43.7 -36.75 -39.55 -36.75 -39.55 -40.0 -35.7 -40.0 -39.55 -40.0 M-35.7 -40.95 L-39.55 -40.95 -35.7 -40.95 -35.7 -47.6 -35.7 -40.95 -35.7 -40.0 -35.7 -40.95 M-46.7 -39.85 L-46.7 -40.95 -46.7 -39.85 -43.7 -40.0 -46.7 -39.85 -46.7 -36.65 -46.7 -39.85 -53.45 -39.85 -46.7 -39.85 M-43.7 -36.75 L-43.7 -40.0 -43.7 -36.75 -46.7 -36.65 -53.45 -36.65 -46.7 -36.65 -43.7 -36.75 -43.7 -34.05 -43.7 -36.75 M-53.45 -36.65 L-56.25 -36.65 -53.45 -36.65 -53.45 -34.05 -53.45 -36.65 M-53.45 -33.2 L-53.45 -34.05 -53.45 -33.2 -46.7 -33.2 -53.45 -33.2 -56.1 -33.2 -53.45 -33.2 -53.45 -24.4 -53.45 -33.2 M-46.7 -34.05 L-46.7 -33.2 -46.7 -34.05 -53.45 -34.05 -46.7 -34.05 -46.7 -36.65 -46.7 -34.05 -43.7 -34.05 -43.7 -33.35 -43.7 -34.05 -46.7 -34.05 M-39.55 -34.05 L-43.7 -34.05 -39.55 -34.05 -39.55 -36.75 -35.7 -36.75 -39.55 -36.75 -39.55 -34.05 -39.55 -33.35 -39.55 -34.05 -35.7 -34.05 -39.55 -34.05 M-35.7 -40.0 L-35.7 -36.75 -35.7 -40.0 M-39.55 -33.35 L-43.7 -33.35 -46.7 -33.2 -43.7 -33.35 -39.55 -33.35 -35.7 -33.35 -35.7 -34.05 -35.7 -33.35 -28.5 -33.35 -35.7 -33.35 -39.55 -33.35 -39.55 -24.7 -39.55 -33.35 M-35.7 -36.75 L-35.7 -34.05 -35.7 -36.75 M-46.7 -21.1 L-46.7 -17.7 -46.7 -21.1 -46.7 -24.35 -46.7 -21.1 M-43.7 -17.85 L-46.7 -17.7 -51.7 -17.7 -46.7 -17.7 -43.7 -17.85 -43.7 -21.2 -43.7 -24.7 -43.7 -21.2 -43.7 -17.85 -43.35 -15.65 -43.7 -17.85 -39.55 -17.85 -43.7 -17.85 M-46.7 -24.35 L-43.7 -24.7 -46.7 -24.35 -53.45 -24.4 -46.7 -24.35 -46.7 -33.2 -46.7 -24.35 M-39.55 -17.85 L-39.2 -15.65 -43.35 -15.65 -39.2 -15.65 -39.55 -17.85 -35.7 -17.85 -39.55 -17.85 -39.55 -21.2 -43.7 -21.2 -39.55 -21.2 -39.55 -17.85 M-53.45 -21.7 L-53.45 -24.4 -53.45 -21.7 M-53.45 -24.4 L-54.35 -24.4 -53.45 -24.4 M-43.35 -12.35 L-43.35 -15.65 -43.35 -12.35 -39.2 -12.35 -43.35 -12.35 M-35.35 -15.65 L-39.2 -15.65 -39.2 -12.35 -39.2 -15.65 -35.35 -15.65 -35.7 -17.85 -35.35 -15.65 -35.35 -12.3 -35.35 -15.65 -28.15 -15.65 -28.5 -17.85 -28.15 -15.65 -24.15 -15.65 -24.5 -17.85 -24.15 -15.65 -28.15 -15.65 -28.15 -12.3 -28.15 -15.65 -35.35 -15.65 M-43.7 -33.35 L-43.7 -24.7 -43.7 -33.35 M-8.1 -40.95 L-8.1 -48.95 -8.1 -40.95 -12.05 -40.95 -8.1 -40.95 -8.1 -36.75 -8.1 -40.95 M-12.05 -40.95 L-12.05 -48.95 -12.05 -40.95 -15.8 -40.95 -12.05 -40.95 -12.05 -36.75 -15.8 -36.75 -12.05 -36.75 -12.05 -40.95 M-1.2 -36.75 L-8.1 -36.75 -1.2 -36.75 -1.2 -34.05 -1.2 -36.75 M-15.8 -36.75 L-15.8 -40.95 -15.8 -36.75 -15.75 -34.05 -15.8 -36.75 -21.6 -36.75 -15.8 -36.75 M-15.8 -48.95 L-15.8 -40.95 -15.8 -48.95 -21.6 -48.95 -15.8 -48.95 M-21.6 -40.95 L-21.6 -48.95 -21.6 -40.95 -15.8 -40.95 -21.6 -40.95 -24.55 -40.95 -21.6 -40.95 -21.6 -36.75 -21.6 -40.95 M-12.05 -34.05 L-15.75 -34.05 -12.05 -34.05 -12.05 -36.75 -8.1 -36.75 -12.05 -36.75 -12.05 -34.05 -8.1 -34.05 -8.1 -36.75 -8.1 -34.05 -1.2 -34.05 -8.1 -34.05 -12.05 -34.05 -12.4 -24.55 -12.05 -34.05 M-1.2 -25.05 L-1.2 -34.05 -1.2 -25.05 2.25 -25.05 -1.2 -25.05 -1.2 -21.2 -1.2 -25.05 M-8.1 -24.55 L-8.1 -34.05 -8.1 -24.55 -8.25 -24.55 -12.4 -24.55 -8.25 -24.55 -8.1 -24.4 -8.1 -24.55 M-8.1 -21.25 L-8.1 -24.4 -8.1 -21.25 -12.4 -21.25 -12.4 -17.85 -12.4 -21.25 -8.1 -21.25 -8.1 -17.85 -8.1 -21.25 M-26.65 -40.95 L-27.75 -40.95 -26.65 -40.95 -26.6 -40.65 -26.4 -40.95 Q-26.3 -42.0 -26.65 -41.2 L-26.65 -40.95 M-24.55 -40.95 L-26.4 -40.95 -24.55 -40.95 -24.55 -36.75 -27.05 -36.75 -24.55 -36.75 -24.55 -40.95 M-28.25 -50.85 L-28.25 -48.95 -28.25 -50.85 M-28.5 -34.05 L-28.5 -33.35 -28.5 -34.05 -35.7 -34.05 -28.5 -34.05 -28.15 -34.05 -28.5 -34.05 M-35.7 -24.65 L-35.7 -33.35 -35.7 -24.65 -28.5 -24.65 -35.7 -24.65 -35.7 -21.2 -35.7 -24.65 -39.55 -24.7 -39.55 -21.2 -35.7 -21.2 -39.55 -21.2 -39.55 -24.7 -43.7 -24.7 -39.55 -24.7 -35.7 -24.65 M-28.5 -33.35 L-28.5 -24.65 -28.5 -33.35 M-21.6 -34.05 L-21.6 -36.75 -21.6 -34.05 -15.75 -34.05 -21.6 -34.05 -24.55 -34.05 -21.6 -34.05 -21.6 -24.6 -21.6 -34.05 M-15.7 -24.55 L-15.75 -34.05 -15.7 -24.55 -12.4 -24.55 -15.7 -24.55 -17.95 -24.6 -15.7 -24.55 -15.7 -21.25 -15.7 -24.55 M-24.55 -34.05 L-24.55 -36.75 -21.6 -36.75 -24.55 -36.75 -24.55 -34.05 -26.45 -34.05 -24.55 -34.05 M-12.4 -24.55 L-12.4 -21.25 -15.7 -21.25 -12.4 -21.25 -12.4 -24.55 M-21.6 -24.6 L-23.1 -24.6 -21.6 -24.6 M-28.5 -24.65 L-24.8 -24.6 -28.5 -24.65 -28.5 -21.2 -28.5 -24.65 M-15.7 -21.25 L-19.05 -21.25 -15.7 -21.25 -15.7 -17.85 -15.7 -21.25 M-12.4 -17.85 L-15.7 -17.85 -12.4 -17.85 -12.05 -15.7 -12.05 -12.2 -12.05 -15.7 -12.4 -17.85 -8.1 -17.85 -12.4 -17.85 M-21.6 -17.85 L-21.6 -19.25 -21.6 -17.85 -21.45 -17.85 -21.6 -17.85 -21.45 -17.6 -21.1 -15.65 -21.1 -12.25 -21.1 -15.65 -21.45 -17.6 -21.6 -17.85 -24.5 -17.85 -21.6 -17.85 M-21.45 -19.05 L-21.45 -17.85 -21.45 -19.05 M-35.7 -17.85 L-28.5 -17.85 -35.7 -17.85 -35.7 -21.2 -35.7 -17.85 M-24.15 -12.25 L-24.15 -15.65 -21.1 -15.65 -24.15 -15.65 -24.15 -12.25 -21.1 -12.25 -24.15 -12.25 -28.15 -12.3 -24.15 -12.25 -24.15 -4.05 -24.15 -12.25 M-21.1 -4.05 L-24.15 -4.05 -21.1 -4.05 -21.1 -12.25 -21.1 -4.05 -21.1 0.25 -21.1 -4.05 -15.35 -4.05 -21.1 -4.05 M-15.35 -12.25 L-21.1 -12.25 -15.35 -12.25 -15.35 -15.65 -15.35 -12.25 -15.35 -4.05 -15.35 -12.25 -12.05 -12.2 -15.35 -12.25 M-21.1 -15.65 L-15.35 -15.65 -21.1 -15.65 M-28.5 -21.2 L-28.5 -17.85 -28.5 -21.2 -35.7 -21.2 -28.5 -21.2 M-21.45 -17.6 L-21.45 -17.85 -21.45 -17.6 M-28.5 -17.85 L-24.5 -17.85 -28.5 -17.85 M-24.5 -17.85 L-24.5 -21.2 -24.5 -17.85 M-35.35 -4.05 L-39.2 -4.05 -35.35 -4.05 -35.35 -12.3 -35.35 -4.05 -35.35 0.25 -35.35 -4.05 -28.15 -4.05 -35.35 -4.05 M-39.2 -12.35 L-35.35 -12.3 -39.2 -12.35 -39.2 -4.05 -39.2 0.25 -35.35 0.25 -39.2 0.25 -39.2 -4.05 -39.2 -12.35 M-28.15 -12.3 L-28.15 -4.05 -28.15 -12.3 -35.35 -12.3 -28.15 -12.3 M-24.15 -4.05 L-28.15 -4.05 -24.15 -4.05 -24.15 0.25 -21.1 0.25 -24.15 0.25 -24.15 -4.05 M-7.75 -15.7 L-8.1 -17.85 -7.75 -15.7 -7.75 -12.2 -7.75 -15.7 -12.05 -15.7 -7.75 -15.7 M-1.0 -15.7 L-6.2 -15.7 -1.0 -15.7 -1.0 -12.2 -1.0 -15.7 M-15.35 -15.65 L-15.7 -17.85 -15.35 -15.65 M-11.6 -4.05 L-15.35 -4.05 -11.6 -4.05 -12.05 -12.2 -11.6 -4.05 -7.75 -4.05 -11.6 -4.05 M-7.75 -12.2 L-12.05 -12.2 -7.75 -12.2 -7.75 -4.05 -7.75 -12.2 M-1.0 -12.2 L-6.05 -12.2 -1.0 -12.2 M-7.3 -4.05 L-7.75 -4.05 -7.3 -4.05 M-7.75 -4.05 L-7.75 -2.3 -7.75 -4.05 M-21.45 -17.85 L-15.7 -17.85 -21.45 -17.85 M-15.35 5.95 L-15.35 0.25 -15.35 5.95 -11.6 5.95 -15.35 5.95 -15.35 13.7 -15.35 5.95 -21.1 5.95 -15.35 5.95 M-15.35 0.25 L-11.6 0.25 -11.6 5.95 -11.6 0.25 -15.35 0.25 -15.35 -4.05 -15.35 0.25 -21.1 0.25 -15.35 0.25 M-15.35 13.7 L-15.35 18.45 -15.35 13.7 -21.1 13.7 -15.35 13.7 -11.6 13.7 -11.6 18.45 -11.6 13.7 -15.35 13.7 M-21.1 18.45 L-21.1 13.7 -21.1 18.45 -15.35 18.45 -11.6 18.45 -15.35 18.45 -21.1 18.45 -24.15 18.45 -21.1 18.45 -21.1 24.95 -21.1 18.45 M-21.1 13.7 L-21.1 5.95 -21.1 13.7 -24.15 13.7 -24.15 18.45 -24.15 13.7 -21.1 13.7 M-15.35 24.95 L-21.1 24.95 -15.35 24.95 -15.35 18.45 -15.35 24.95 -15.35 30.95 -15.35 24.95 -11.6 24.95 -11.6 18.45 -7.75 18.45 -11.6 18.45 -11.6 24.95 -15.35 24.95 M-1.0 13.7 L-1.0 18.45 -1.0 13.7 -5.8 13.7 -1.0 13.7 M-1.0 18.45 L-5.8 18.45 -1.0 18.45 M-7.75 13.7 L-11.6 13.7 -11.6 5.95 -11.6 13.7 -7.75 13.7 M-24.15 5.95 L-28.15 5.95 -24.15 5.95 -24.15 0.25 -28.15 0.25 -24.15 0.25 -24.15 5.95 -24.15 13.7 -28.15 13.7 -24.15 13.7 -24.15 5.95 -21.1 5.95 -24.15 5.95 M-11.6 5.95 L-7.75 5.95 -11.6 5.95 M-28.15 13.7 L-28.15 5.95 -28.15 0.25 -28.15 5.95 -28.15 13.7 -35.35 13.7 -28.15 13.7 -28.15 18.45 -28.15 13.7 M-21.1 0.25 L-21.1 5.95 -21.1 0.25 M-39.2 5.95 L-35.35 5.95 -39.2 5.95 -39.2 13.7 -35.35 13.7 -39.2 13.7 -39.2 5.95 -39.2 0.25 -39.2 5.95 -44.35 5.95 -39.2 5.95 M-35.35 0.25 L-35.35 5.95 -35.35 13.7 -35.35 5.95 -35.35 0.25 -28.15 0.25 -35.35 0.25 M-28.15 -4.05 L-28.15 0.25 -28.15 -4.05 M-35.35 13.7 L-35.35 18.45 -35.35 13.7 M-24.15 18.45 L-28.15 18.45 -24.15 18.45 -24.15 24.95 -21.1 24.95 -24.15 24.95 -24.15 18.45 M-21.1 30.95 L-21.1 24.95 -21.1 30.95 -15.35 30.95 -21.1 30.95 -24.15 30.95 -21.1 30.95 M-39.2 18.45 L-39.2 13.7 -39.2 18.45 -35.35 18.45 -28.15 18.45 -35.35 18.45 -39.2 18.45 -39.2 24.95 -39.2 18.45 -44.7 18.25 -39.2 18.45 M-28.15 24.95 L-28.15 18.45 -28.15 24.95 -24.15 24.95 -24.15 30.95 -24.15 24.95 -28.15 24.95 -28.15 30.95 -28.15 24.95 -35.35 24.95 -28.15 24.95 M-15.35 30.95 L-15.35 36.2 -15.35 30.95 -11.6 30.95 -15.35 30.95 M-35.35 5.95 L-28.15 5.95 -35.35 5.95 M-28.15 36.2 L-28.15 30.95 -28.15 36.2 -24.15 36.2 -24.15 30.95 -24.15 36.2 -28.15 36.2 -35.35 36.2 -28.15 36.2 -28.15 40.95 -28.15 45.55 -28.15 40.95 -35.35 40.95 -35.35 45.55 -35.35 40.95 -28.15 40.95 -28.15 36.2 M-28.15 30.95 L-24.15 30.95 -28.15 30.95 -35.35 30.95 -28.15 30.95 M-35.35 30.95 L-35.35 24.95 -35.35 30.95 -39.2 30.95 -35.35 30.95 -35.35 36.2 -35.35 30.95 M-35.35 36.2 L-39.2 36.2 -39.2 30.95 -39.2 36.2 -35.35 36.2 -35.35 40.95 -35.35 36.2 M-39.2 30.95 L-39.2 24.95 -35.35 24.95 -39.2 24.95 -39.2 30.95 M-28.15 45.55 L-35.35 45.55 -28.15 45.55 -24.15 45.55 -24.15 50.95 -24.15 45.55 -28.15 45.55 -28.15 50.95 -28.15 45.55 M-24.15 40.95 L-28.15 40.95 -24.15 40.95 M-15.35 40.95 L-21.1 40.95 -15.35 40.95 -15.35 36.2 -15.35 40.95 -15.35 45.55 -15.35 40.95 -11.6 40.95 -15.35 40.95 M-11.6 30.95 L-11.6 36.2 -15.35 36.2 -11.6 36.2 -11.6 30.95 M-39.2 50.95 L-39.2 45.55 -35.35 45.55 -39.2 45.55 -39.2 50.95 -35.35 50.95 -39.2 50.95 M-35.35 45.55 L-35.35 50.95 -35.35 45.55 M-39.2 45.55 L-39.2 40.95 -39.2 45.55 M-39.2 40.95 L-35.35 40.95 -39.2 40.95 -39.2 36.2 -39.2 40.95 M-15.35 45.55 L-21.1 45.55 -15.35 45.55 -11.6 45.55 -11.6 40.95 -11.6 45.55 -15.35 45.55 -15.35 50.95 -15.35 45.55 M-5.8 30.95 L-1.0 30.95 -5.8 30.95 M1.75 41.25 L-1.0 40.95 1.75 41.25 M-35.35 24.95 L-35.35 18.45 -35.35 24.95 M-28.15 50.95 L-35.35 50.95 -28.15 50.95 -24.15 50.95 -28.15 50.95" fill="#5c2961" fill-rule="evenodd" stroke="none"/>
    <path d="M43.75 -50.6 L43.75 -49.6 43.75 -50.6 42.35 -50.6 43.75 -50.6 M44.7 -48.95 L43.75 -49.6 42.35 -50.6 37.35 -53.95 40.2 -53.95 37.35 -53.95 37.0 -54.15 36.0 -54.8 32.7 -56.7 29.4 -58.5 29.4 -60.3 32.7 -58.4 37.0 -55.9 38.85 -54.8 39.45 -54.4 40.2 -53.95 47.55 -48.95 44.7 -48.95 47.55 -48.95 47.85 -48.75 56.6 -40.95 55.0 -40.95 56.6 -40.95 56.6 -36.7 55.05 -36.7 56.6 -36.7 54.7 -24.6 54.3 -24.6 54.7 -24.6 54.3 -23.3 54.3 -24.6 54.3 -23.3 54.15 -22.8 53.6 -21.2 53.55 -21.15 52.15 -17.8 50.6 -17.8 52.15 -17.8 44.1 -5.1 43.0 -3.75 49.4 50.0 Q42.1 52.3 34.65 53.85 11.1 58.65 -10.0 58.3 -29.2 57.95 -47.4 51.3 L-44.85 -1.25 -44.35 5.95 -44.7 18.25 -46.45 50.4 Q-7.05 62.65 33.5 51.65 L35.35 51.25 36.95 51.4 Q42.1 50.7 47.4 48.05 L42.6 6.0 41.4 -3.55 40.85 -4.0 44.1 -7.9 44.1 -5.1 44.1 -7.9 50.45 -17.55 50.6 -17.8 52.05 -21.15 53.25 -24.6 54.3 -28.85 54.95 -33.3 55.0 -34.05 55.05 -36.7 55.05 -39.95 55.0 -40.95 54.3 -41.6 50.45 -44.65 46.6 -47.55 46.3 -47.75 44.7 -48.95 M32.7 -58.4 L32.7 -56.7 32.7 -58.4 M37.0 -54.8 L36.0 -54.8 37.0 -54.8 37.0 -55.9 37.0 -54.8 37.0 -54.15 37.0 -54.8 38.85 -54.8 37.0 -54.8 M16.6 -29.15 L18.5 -24.35 19.6 -20.95 19.6 -20.9 19.65 -20.65 19.85 -20.9 20.6 -20.9 20.6 -19.55 20.6 -20.9 19.85 -20.9 19.85 -20.95 20.6 -20.95 20.6 -22.15 21.8 -24.3 23.25 -24.3 23.45 -24.3 23.25 -23.9 23.25 -24.3 23.25 -23.9 22.95 -23.35 21.5 -20.95 20.6 -20.95 20.6 -20.9 21.5 -20.9 20.6 -20.9 20.6 -20.95 21.5 -20.95 21.5 -20.9 20.6 -19.55 Q19.15 -17.6 18.25 -20.2 L18.0 -20.9 19.3 -20.9 19.6 -20.9 19.3 -20.9 18.0 -20.9 16.85 -24.35 18.5 -24.35 16.85 -24.35 16.6 -24.95 16.6 -29.15 M19.3 -20.9 L19.6 -20.95 19.3 -20.9 M-1.35 -19.45 L-1.35 -18.8 Q-2.6 -18.25 -3.9 -17.85 L-7.45 -17.85 -3.9 -17.85 -6.3 -17.2 -6.2 -15.7 -6.85 -15.7 -7.45 -17.85 -2.1 -19.6 -1.35 -19.9 -1.35 -19.45 M54.3 -24.6 L54.3 -28.85 54.3 -24.6 53.25 -24.6 54.3 -24.6 M53.55 -21.15 L52.05 -21.15 53.55 -21.15 M-47.8 -8.3 Q-51.05 -12.95 -53.15 -18.3 -57.8 -30.3 -56.5 -43.05 L-43.4 -52.15 -46.7 -48.4 -47.9 -47.45 -53.45 -43.25 -56.25 -39.85 -56.25 -36.65 -56.1 -33.2 -54.35 -24.4 -53.45 -21.7 -53.2 -21.1 -51.7 -17.7 -47.8 -8.3 M-38.05 -54.25 L-39.55 -53.3 -39.55 -54.25 -38.05 -54.25 M-29.85 -50.85 L-28.5 -50.85 -28.45 -48.95 -28.25 -45.35 -28.25 -40.95 -28.25 -45.35 -27.75 -40.95 -28.25 -40.95 -29.25 -40.95 -28.25 -40.95 -27.75 -40.95 -27.05 -36.75 -28.25 -36.75 -27.05 -36.75 -26.45 -34.05 -28.15 -34.05 -26.45 -34.05 -26.25 -33.35 -24.55 -27.9 -23.1 -24.6 -24.5 -24.6 -23.1 -24.6 -21.6 -21.85 -21.2 -21.25 -21.6 -21.25 -21.2 -21.25 -20.85 -20.65 -20.7 -21.25 -19.6 -24.6 -17.95 -24.6 -19.05 -21.25 -20.7 -21.25 -19.05 -21.25 -21.45 -19.05 -21.6 -19.25 -21.6 -21.25 -21.6 -19.25 -22.9 -21.2 -22.9 -21.25 -24.5 -24.0 -24.5 -24.6 -24.55 -24.6 -24.55 -27.9 -24.55 -24.6 -24.8 -24.6 -24.55 -24.6 -24.55 -24.1 -24.8 -24.6 -28.0 -33.35 -28.15 -34.05 -28.5 -35.9 -28.65 -36.75 -29.15 -40.0 -29.25 -40.95 -29.8 -47.6 -29.85 -48.95 -28.45 -48.95 -29.85 -48.95 -29.85 -50.85 M-43.15 -50.85 L-43.7 -50.45 -43.7 -50.85 -43.15 -50.85 M-53.45 -21.1 L-53.2 -21.1 -53.45 -21.1 -53.45 -21.7 -53.45 -21.1 M-8.1 -24.55 L-8.1 -24.4 -8.25 -24.55 -8.1 -24.55 M-4.55 -21.25 L-1.95 -21.25 -2.15 -19.75 -4.55 -21.25 M-28.25 -36.75 L-28.25 -40.95 -28.25 -36.75 -28.5 -36.75 -28.65 -36.75 -28.5 -36.75 -28.25 -36.75 M-21.6 -21.25 L-21.6 -21.85 -21.6 -21.25 -22.3 -21.25 -22.9 -21.25 -22.3 -21.25 -21.6 -21.25 M-28.5 -36.75 L-28.5 -35.9 -28.5 -36.75 M-28.0 -33.35 L-26.25 -33.35 -28.0 -33.35 M-22.3 -21.25 L-22.9 -21.2 -22.3 -21.25 M-6.85 -15.7 L-6.2 -15.7 -6.05 -12.2 -7.1 -12.2 -6.05 -12.2 -5.8 -4.05 -5.8 0.25 -7.3 0.25 -5.8 0.25 -5.8 5.95 -5.8 13.7 -5.8 18.45 -5.8 24.95 -7.3 24.95 -5.8 24.95 -5.8 30.95 -5.8 36.2 -5.8 40.95 -5.8 45.55 -5.8 49.4 -7.3 49.4 -7.3 45.55 -7.3 40.95 -7.3 36.2 -7.3 30.95 -7.3 24.95 -7.3 18.45 -7.3 13.7 -7.3 5.95 -7.3 0.25 -7.3 -2.3 -7.3 -4.05 -7.1 -12.2 -6.85 -15.7 M-5.8 13.7 L-7.3 13.7 -5.8 13.7 M-5.8 36.2 L-7.3 36.2 -5.8 36.2 M-5.8 45.55 L-7.3 45.55 -5.8 45.55" fill="#000000" fill-rule="evenodd" stroke="none"/>
    <path d="M-26.65 -40.95 L-26.65 -41.2 Q-26.3 -42.0 -26.4 -40.95 L-26.65 -40.95 -26.4 -40.95 -26.6 -40.65 -26.65 -40.95" fill="#8f2493" fill-rule="evenodd" stroke="none"/>
    <path d="M19.85 -20.9 L19.65 -20.65 19.6 -20.9 19.6 -20.95 19.85 -20.95 19.85 -20.9 19.6 -20.9 19.85 -20.9 M0.75 -21.2 Q0.75 -20.7 0.2 -20.3 -0.4 -19.95 -1.2 -19.95 L-1.35 -19.9 -2.1 -19.6 -2.15 -19.75 -1.95 -21.25 -1.2 -21.2 -1.2 -19.95 -1.2 -21.2 0.75 -21.2 M-21.2 -21.25 L-20.7 -21.25 -20.85 -20.65 -21.2 -21.25" fill="#ffe8e8" fill-rule="evenodd" stroke="none"/>
    <path d="M43.75 -50.6 L42.35 -50.6 37.0 -50.6 32.7 -50.6 32.7 -48.95 M6.0 -61.6 L6.0 -54.8 M-1.2 -50.95 L2.25 -50.95 6.0 -50.95 6.0 -54.8 M-8.1 -50.9 L-1.2 -50.95 M6.0 -50.95 L9.7 -50.95 M20.6 -54.8 L20.6 -61.6 M16.6 -51.0 L9.7 -50.95 M16.6 -51.0 L20.6 -51.0 20.6 -54.8 M23.25 -51.0 L29.4 -51.05 31.75 -50.6 32.7 -50.6 32.7 -53.95 32.7 -54.8 32.7 -56.7 32.7 -58.4 M20.6 -51.0 L23.25 -51.0 M31.75 -50.6 L29.4 -50.6 M32.7 -47.3 L32.7 -48.95 M32.7 -40.95 L32.7 -39.7 32.7 -36.5 37.0 -36.5 43.75 -36.5 46.3 -36.7 50.45 -36.7 50.45 -39.95 50.45 -40.95 50.45 -44.65 M32.7 -40.95 L32.7 -47.3 M20.6 -48.95 L20.6 -40.95 M23.25 -36.75 L29.4 -36.5 32.7 -36.5 32.7 -34.05 M20.6 -34.05 L20.6 -36.75 16.6 -36.75 9.7 -36.75 6.0 -36.75 6.0 -34.05 6.0 -25.05 5.55 -20.9 9.4 -20.9 16.6 -20.9 M23.25 -36.75 L20.6 -36.75 20.6 -40.95 M20.6 -24.3 L20.6 -34.05 M32.7 -24.25 L32.7 -33.05 32.7 -34.05 M6.0 -40.95 L6.0 -48.95 6.0 -50.95 M6.0 -36.75 L2.25 -36.75 M-1.2 -36.75 L2.25 -36.75 M2.25 -20.9 L5.55 -20.9 5.55 -17.55 5.9 -15.35 9.75 -15.35 16.95 -15.35 20.95 -15.35 20.6 -17.55 20.6 -19.55 20.6 -20.9 19.85 -20.9 19.6 -20.9 19.3 -20.9 18.0 -20.9 16.6 -20.9 M6.0 -36.75 L6.0 -40.95 M19.6 -20.95 L19.3 -20.9 M19.6 -20.95 L19.85 -20.95 20.6 -20.95 20.6 -22.15 20.6 -24.3 M21.5 -20.9 L20.6 -20.9 20.6 -20.95 21.5 -20.95 22.8 -20.95 21.5 -20.9 M23.65 -20.95 L22.8 -20.95 M5.9 -12.05 L5.9 -15.35 1.75 -15.35 M20.95 -11.95 L20.95 -15.35 24.0 -15.35 29.75 -15.35 M29.4 -20.95 L23.65 -20.95 M20.95 -3.75 L20.95 -11.95 M32.7 -17.55 L32.7 -20.95 29.4 -20.95 M5.9 -3.75 L5.9 -12.05 M9.75 0.25 L16.95 0.25 20.95 0.25 20.95 -3.75 M37.0 -20.95 L43.75 -20.95 M32.7 -24.25 L32.7 -20.95 37.0 -20.95 M32.7 -17.55 L33.05 -15.4 37.35 -15.4 44.1 -15.4 M33.05 -11.9 L33.05 -15.4 M33.5 -3.75 L33.05 -11.9 M24.0 0.25 L29.75 0.25 M33.5 -3.75 L33.5 0.25 37.35 0.25 M55.05 -36.7 L56.6 -36.7 M50.45 -33.3 L50.45 -34.05 M54.3 -36.7 L55.05 -36.7 M54.3 -36.7 L50.45 -36.7 50.45 -34.05 M50.45 -33.3 L50.45 -24.65 50.45 -21.15 52.05 -21.15 53.55 -21.15 53.6 -21.2 M50.45 -17.8 L50.45 -21.15 46.3 -21.15 M-39.55 -55.1 L-39.35 -55.2 M50.45 -17.8 L50.45 -17.55 M20.6 -48.95 L20.6 -51.0 M33.5 0.25 L33.5 6.25 33.5 13.7 37.35 13.7 M24.0 0.25 L20.95 0.25 20.95 6.25 20.95 13.7 16.95 13.7 9.75 13.7 M29.75 13.7 L33.5 13.7 33.5 18.75 33.5 24.95 37.35 24.95 M24.0 13.7 L29.75 13.7 M20.95 18.75 L20.95 24.95 24.0 24.95 29.75 24.95 33.5 24.95 33.5 31.25 33.5 36.2 37.35 36.2 M24.0 13.7 L20.95 13.7 20.95 18.75 M16.95 24.95 L20.95 24.95 20.95 31.25 20.95 36.2 24.0 36.2 29.75 36.2 33.5 36.2 33.5 41.25 33.5 45.55 37.35 45.55 M9.75 24.95 L16.95 24.95 M33.5 0.25 L29.75 0.25 M9.75 0.25 L5.9 0.25 5.9 6.25 5.9 13.7 9.75 13.7 M5.9 0.25 L1.75 0.25 M1.75 24.95 L5.9 24.95 5.9 18.75 5.9 13.7 1.75 13.7 M-1.0 24.95 L1.75 24.95 M5.9 31.25 L5.9 24.95 9.75 24.95 M16.95 36.2 L20.95 36.2 20.95 41.25 20.95 45.55 24.0 45.55 29.75 45.55 33.5 45.55 33.5 51.25 33.5 51.65 M-1.0 13.7 L1.75 13.7 M-1.0 36.2 L1.75 36.2 5.9 36.2 5.9 31.25 M9.75 36.2 L16.95 36.2 M5.9 36.2 L9.75 36.2 M16.95 45.55 L20.95 45.55 20.95 51.25 M5.9 41.25 L5.9 45.55 9.75 45.55 16.95 45.55 M5.9 41.25 L5.9 36.2 M1.75 45.55 L5.9 45.55 5.9 51.25 M5.9 0.25 L5.9 -3.75 M-39.55 -53.3 L-39.55 -50.85 -35.7 -50.85 -29.85 -50.85 -28.5 -50.85 -28.25 -50.85 -24.55 -50.85 -24.55 -48.95 M-24.55 -54.8 L-24.5 -61.65 M-39.55 -54.25 L-39.55 -53.3 M-24.55 -54.8 L-24.55 -50.85 -21.6 -50.85 -15.8 -50.9 M-12.05 -48.95 L-12.05 -50.9 -15.8 -50.9 M-8.1 -50.9 L-12.05 -50.9 -12.05 -54.8 M-12.05 -61.6 L-12.05 -54.8 M-39.55 -47.6 L-39.55 -48.95 -39.55 -50.85 -43.15 -50.85 -43.7 -50.85 M-39.55 -40.95 L-39.55 -47.6 M-39.55 -40.0 L-39.55 -40.95 M-43.7 -36.75 L-39.55 -36.75 -39.55 -40.0 M-56.25 -36.65 L-53.45 -36.65 -46.7 -36.65 M-43.7 -36.75 L-46.7 -36.65 M-39.55 -34.05 L-39.55 -36.75 -35.7 -36.75 -28.65 -36.75 -28.5 -36.75 -28.25 -36.75 -27.05 -36.75 -24.55 -36.75 -24.55 -40.95 -24.55 -48.95 M-39.55 -33.35 L-39.55 -34.05 M-46.7 -21.1 L-53.2 -21.1 -53.45 -21.1 M-43.35 -15.65 L-39.2 -15.65 -39.55 -17.85 -39.55 -21.2 -43.7 -21.2 M-39.2 -12.35 L-39.2 -15.65 -35.35 -15.65 -28.15 -15.65 M-12.05 -48.95 L-12.05 -40.95 M-8.1 -36.75 L-1.2 -36.75 M-15.8 -36.75 L-12.05 -36.75 -12.05 -40.95 M-12.05 -34.05 L-12.05 -36.75 -8.1 -36.75 M-8.1 -21.25 L-4.55 -21.25 -1.95 -21.25 -1.2 -21.2 0.75 -21.2 M-21.6 -36.75 L-15.8 -36.75 M-12.4 -24.55 L-12.05 -34.05 M-21.6 -36.75 L-24.55 -36.75 -24.55 -34.05 -24.55 -27.9 -24.55 -24.6 -24.55 -24.1 -24.5 -22.4 -24.5 -24.0 -24.5 -24.6 M-15.7 -21.25 L-12.4 -21.25 -12.4 -24.55 M-21.2 -21.25 L-20.7 -21.25 -19.05 -21.25 -15.7 -21.25 M-21.6 -21.25 L-21.2 -21.25 M-28.5 -21.2 L-25.8 -21.2 -24.5 -21.25 -24.5 -22.4 M-25.8 -21.2 L-24.5 -21.2 -24.5 -21.25 -22.9 -21.25 -22.3 -21.25 -21.6 -21.25 M-12.4 -17.85 L-12.4 -21.25 -8.1 -21.25 M-24.5 -21.2 L-22.9 -21.2 -22.3 -21.25 M-35.7 -21.2 L-39.55 -21.2 -39.55 -24.7 -39.55 -33.35 M-21.1 -15.65 L-24.15 -15.65 -24.15 -12.25 -24.15 -4.05 -24.15 0.25 -21.1 0.25 -15.35 0.25 M-24.5 -17.85 L-24.15 -15.65 -28.15 -15.65 M-15.35 -15.65 L-21.1 -15.65 M-28.5 -21.2 L-35.7 -21.2 M-24.5 -21.2 L-24.5 -17.85 M-39.2 -12.35 L-39.2 -4.05 -39.2 0.25 -35.35 0.25 -28.15 0.25 M-12.05 -12.2 L-12.05 -15.7 -12.4 -17.85 M-7.75 -15.7 L-6.85 -15.7 M-6.2 -15.7 L-1.0 -15.7 1.75 -15.35 M-6.2 -15.7 L-6.85 -15.7 M-11.6 -4.05 L-12.05 -12.2 M-7.75 -15.7 L-12.05 -15.7 M-7.3 0.25 L-5.8 0.25 -1.0 0.25 1.75 0.25 M-7.75 0.25 L-7.3 0.25 M-7.3 13.7 L-5.8 13.7 M-11.6 -4.05 L-11.6 0.25 -7.75 0.25 M-11.6 5.95 L-11.6 0.25 -15.35 0.25 M-15.35 13.7 L-21.1 13.7 -24.15 13.7 -24.15 18.45 -24.15 24.95 -21.1 24.95 -15.35 24.95 -11.6 24.95 -11.6 18.45 -11.6 13.7 -15.35 13.7 M-1.0 13.7 L-5.8 13.7 M-7.3 13.7 L-7.75 13.7 M-7.75 24.95 L-7.3 24.95 -5.8 24.95 -1.0 24.95 M-11.6 5.95 L-11.6 13.7 -7.75 13.7 M-24.15 5.95 L-24.15 0.25 -28.15 0.25 M-28.15 13.7 L-24.15 13.7 -24.15 5.95 M-39.2 5.95 L-39.2 13.7 -35.35 13.7 -28.15 13.7 M-39.2 0.25 L-39.2 5.95 M-39.2 13.7 L-39.2 18.45 M-28.15 24.95 L-24.15 24.95 -24.15 30.95 M-21.1 36.2 L-15.35 36.2 -11.6 36.2 -11.6 30.95 -11.6 24.95 -7.75 24.95 M-28.15 36.2 L-24.15 36.2 -24.15 30.95 M-28.15 24.95 L-35.35 24.95 -39.2 24.95 -39.2 30.95 -39.2 36.2 -35.35 36.2 -28.15 36.2 M-21.1 36.2 L-24.15 36.2 -24.15 40.95 -24.15 45.55 -21.1 45.55 -15.35 45.55 -11.6 45.55 -11.6 40.95 -11.6 36.2 -7.75 36.2 -7.3 36.2 -5.8 36.2 M-35.35 45.55 L-28.15 45.55 -24.15 45.55 -24.15 50.95 M-35.35 45.55 L-39.2 45.55 -39.2 50.95 M-39.2 40.95 L-39.2 45.55 M-39.2 40.95 L-39.2 36.2 M-1.0 36.2 L-5.8 36.2 M-7.75 45.55 L-7.3 45.55 -5.8 45.55 -1.0 45.55 1.75 45.55 M-7.75 45.55 L-11.6 45.55 -11.6 50.95 M-39.2 24.95 L-39.2 18.45" fill="none" stroke="#f583bf" stroke-linecap="round" stroke-linejoin="round" stroke-width="1.0"/>
    <path d="M43.75 -49.6 L43.75 -50.6 M37.0 -50.6 L37.0 -48.95 37.0 -47.3 37.0 -40.95 M43.75 -48.95 L43.75 -49.6 M9.7 -54.8 L9.7 -61.6 M23.25 -61.65 L23.3 -61.65 M2.25 -50.95 L2.25 -54.8 2.25 -61.65 M-1.2 -54.8 L-1.2 -50.95 -1.2 -48.95 M-1.2 -61.6 L-1.2 -54.8 M-8.1 -54.8 L-8.1 -50.9 M2.25 -48.95 L2.25 -50.95 M9.7 -50.95 L9.7 -54.8 M16.6 -51.0 L16.6 -54.8 M9.7 -50.95 L9.7 -48.95 M16.6 -48.95 L16.6 -51.0 M23.25 -54.8 L23.25 -61.65 M29.4 -58.5 L29.4 -60.3 M23.25 -54.8 L23.25 -51.0 23.25 -48.95 M29.4 -51.05 L29.4 -53.95 29.4 -54.8 29.4 -58.5 M29.4 -48.95 L29.4 -50.6 29.4 -51.05 M37.0 -53.95 L37.0 -54.15 37.0 -54.8 37.0 -55.9 M37.0 -53.95 L37.0 -50.6 M43.75 -47.3 L43.75 -48.95 M29.4 -48.95 L29.4 -47.3 29.4 -40.95 29.4 -39.7 M43.75 -40.95 L43.75 -47.3 M46.3 -47.55 L46.3 -47.75 M37.0 -39.7 L37.0 -40.95 M23.25 -40.95 L23.25 -48.95 M37.0 -36.5 L37.0 -39.7 M43.75 -39.7 L43.75 -40.95 M46.3 -40.95 L46.3 -47.55 M23.25 -40.95 L23.25 -36.75 M29.4 -36.5 L29.4 -39.7 M16.6 -36.75 L16.6 -34.05 16.6 -29.15 M23.25 -34.05 L23.25 -36.75 M16.6 -40.95 L16.6 -36.75 M9.7 -36.75 L9.7 -34.05 9.4 -25.05 9.4 -24.35 M29.4 -34.05 L29.4 -36.5 M37.0 -34.05 L37.0 -36.5 M43.75 -36.5 L43.75 -39.7 M46.3 -39.95 L46.3 -40.95 M29.4 -24.25 L29.4 -33.05 29.4 -34.05 M23.25 -34.05 L23.25 -24.3 23.25 -23.9 M37.0 -34.05 L37.0 -33.05 37.0 -24.25 37.0 -20.95 37.0 -17.55 M43.75 -33.05 L43.75 -34.05 43.75 -36.5 M16.6 -48.95 L16.6 -40.95 M9.7 -40.95 L9.7 -36.75 M16.6 -24.35 L16.6 -24.95 16.6 -29.15 M2.25 -48.95 L2.25 -40.95 M9.7 -40.95 L9.7 -48.95 M2.25 -36.75 L2.25 -34.05 2.25 -25.05 2.25 -20.9 M9.4 -20.9 L9.4 -24.35 M2.25 -36.75 L2.25 -40.95 M-1.2 -40.95 L-1.2 -36.75 -1.2 -34.05 -1.2 -25.05 M9.4 -17.55 L9.4 -20.9 M16.6 -20.9 L16.6 -24.35 M16.6 -20.9 L16.6 -17.55 16.95 -15.35 16.95 -12.0 16.95 -3.75 M22.95 -23.35 L23.25 -23.9 M23.65 -17.55 L23.65 -20.95 23.65 -24.3 M-1.2 -19.95 L-1.35 -19.45 -1.35 -18.8 -1.35 -17.85 M9.75 -15.35 L9.4 -17.55 M1.75 -15.35 L1.4 -17.55 M1.75 -15.35 L1.75 -12.05 M9.75 -12.0 L9.75 -15.35 M24.0 -15.35 L23.65 -17.55 M29.4 -17.55 L29.4 -20.95 29.4 -24.25 M9.75 -3.75 L9.75 -12.0 M24.0 -11.95 L24.0 -15.35 M29.75 -15.35 L29.4 -17.55 M1.75 -3.75 L1.75 -12.05 M-1.0 -12.2 L-1.0 -4.05 M9.75 -3.75 L9.75 0.25 M16.95 0.25 L16.95 -3.75 M43.75 -20.95 L43.75 -24.2 43.75 -33.05 M43.75 -17.55 L43.75 -20.95 M37.35 -15.4 L37.0 -17.55 M24.0 -3.75 L24.0 -11.95 M29.75 -11.95 L29.75 -15.35 M29.75 -3.75 L29.75 -11.95 M37.35 -11.9 L37.35 -15.4 M44.1 -15.4 L43.75 -17.55 M46.3 -17.8 L46.3 -21.15 46.3 -24.65 46.3 -33.3 46.3 -34.05 46.3 -36.7 46.3 -39.95 M54.3 -40.95 L54.3 -41.6 M24.0 -3.75 L24.0 0.25 M29.75 0.25 L29.75 -3.75 M37.35 0.25 L37.35 -3.75 37.35 -11.9 M44.1 -11.9 L44.1 -15.4 M54.3 -40.95 L54.3 -39.95 54.3 -36.7 M54.3 -28.85 L54.3 -24.6 54.3 -23.3 M54.3 -34.05 L54.3 -36.7 M54.3 -33.3 L54.3 -28.85 M54.3 -34.05 L54.3 -33.3 M54.15 -22.8 L54.3 -23.3 M44.1 -5.1 L44.1 -3.75 M44.1 -11.9 L44.1 -7.9 M44.1 -5.1 L44.1 -7.9 M37.35 0.25 L37.35 6.25 37.35 13.7 37.35 18.75 37.35 24.95 37.35 31.25 37.35 36.2 37.35 41.25 37.35 45.55 36.95 51.4 M29.75 0.25 L29.75 6.25 29.75 13.7 29.75 18.75 M24.0 6.25 L24.0 0.25 M24.0 24.95 L24.0 18.75 24.0 13.7 M16.95 18.75 L16.95 24.95 16.95 31.25 16.95 36.2 16.95 41.25 16.95 45.55 16.95 51.25 M24.0 31.25 L24.0 24.95 M29.75 24.95 L29.75 18.75 M16.95 13.7 L16.95 18.75 M9.75 18.75 L9.75 24.95 9.75 31.25 9.75 36.2 9.75 41.25 M24.0 36.2 L24.0 31.25 M29.75 31.25 L29.75 24.95 M24.0 6.25 L24.0 13.7 M16.95 6.25 L16.95 0.25 M9.75 6.25 L9.75 0.25 M1.75 0.25 L1.75 6.25 M9.75 13.7 L9.75 6.25 M1.75 18.75 L1.75 24.95 1.75 31.25 M1.75 13.7 L1.75 18.75 M-1.0 18.45 L-1.0 24.95 -1.0 30.95 -1.0 36.2 M24.0 41.25 L24.0 36.2 M29.75 36.2 L29.75 31.25 M9.75 13.7 L9.75 18.75 M1.75 13.7 L1.75 6.25 M-1.0 5.95 L-1.0 13.7 M16.95 13.7 L16.95 6.25 M1.75 36.2 L1.75 31.25 M24.0 45.55 L24.0 41.25 M29.75 41.25 L29.75 36.2 M24.0 51.25 L24.0 45.55 M29.75 45.55 L29.75 41.25 M9.75 45.55 L9.75 41.25 M9.75 51.25 L9.75 45.55 M1.75 41.25 L1.75 45.55 1.75 51.25 M1.75 41.25 L1.75 36.2 M29.75 51.25 L29.75 45.55 M1.75 0.25 L1.75 -3.75 M-35.7 -50.85 L-35.7 -54.25 M-28.25 -50.85 L-28.25 -54.8 M-21.6 -50.85 L-21.6 -54.8 -21.6 -61.6 M-15.8 -50.9 L-15.8 -54.8 -15.8 -61.6 M-21.6 -48.95 L-21.6 -50.85 M-15.8 -50.9 L-15.8 -48.95 M-8.1 -48.95 L-8.1 -50.9 M-8.1 -54.8 L-8.1 -61.6 M-43.7 -50.45 L-43.7 -47.6 -43.7 -40.95 -43.7 -40.0 -43.7 -36.75 M-43.7 -50.85 L-43.7 -50.45 M-46.7 -48.35 L-46.7 -47.45 -46.7 -40.95 -46.7 -39.85 M-35.7 -47.6 L-35.7 -48.95 -35.7 -50.85 M-46.7 -48.35 L-46.7 -48.4 M-35.7 -40.95 L-35.7 -47.6 M-35.7 -40.0 L-35.7 -40.95 M-53.45 -36.65 L-53.45 -39.85 -53.45 -43.25 M-53.45 -34.05 L-53.45 -33.2 M-46.7 -33.2 L-46.7 -34.05 M-53.45 -34.05 L-53.45 -36.65 M-46.7 -36.65 L-46.7 -39.85 M-46.7 -36.65 L-46.7 -34.05 M-43.7 -34.05 L-43.7 -36.75 M-43.7 -33.35 L-43.7 -34.05 M-35.7 -36.75 L-35.7 -40.0 M-28.25 -40.95 L-28.25 -45.35 M-35.7 -34.05 L-35.7 -36.75 M-46.7 -17.7 L-46.7 -21.1 M-43.7 -17.85 L-43.7 -21.2 -43.7 -24.7 -43.7 -33.35 M-46.7 -24.35 L-46.7 -21.1 M-43.7 -17.85 L-43.35 -15.65 -43.35 -12.35 M-53.45 -24.4 L-53.45 -21.7 M-53.45 -21.1 L-53.45 -21.7 M-53.45 -24.4 L-53.45 -33.2 M-35.35 -15.65 L-35.7 -17.85 -35.7 -21.2 -35.7 -24.65 M-46.7 -24.35 L-46.7 -33.2 M-8.1 -48.95 L-8.1 -40.95 -8.1 -36.75 -8.1 -34.05 -8.1 -24.55 -8.1 -24.4 -8.1 -21.25 -8.1 -17.85 -7.75 -15.7 M-1.2 -40.95 L-1.2 -48.95 M-15.8 -40.95 L-15.8 -36.75 -15.75 -34.05 -15.7 -24.55 -15.7 -21.25 -15.7 -17.85 -15.35 -15.65 M-15.8 -40.95 L-15.8 -48.95 M-21.6 -48.95 L-21.6 -40.95 -21.6 -36.75 -21.6 -34.05 -21.6 -24.6 -21.6 -21.85 -21.6 -21.25 -21.6 -19.25 -21.6 -17.85 M-1.2 -21.2 L-1.2 -25.05 M-28.25 -48.95 L-28.25 -45.35 M-28.25 -48.95 L-28.25 -50.85 M-28.25 -40.95 L-28.25 -36.75 M-35.7 -34.05 L-35.7 -33.35 -35.7 -24.65 M-28.5 -33.35 L-28.5 -34.05 -28.5 -35.9 -28.5 -36.75 M-28.5 -24.65 L-28.5 -33.35 M-28.5 -24.65 L-28.5 -21.2 M-21.45 -17.85 L-21.45 -19.05 M-28.15 -15.65 L-28.5 -17.85 -28.5 -21.2 M-21.1 -12.25 L-21.1 -15.65 -21.45 -17.6 -21.6 -17.85 M-28.15 -15.65 L-28.15 -12.3 M-21.1 -4.05 L-21.1 -12.25 M-15.35 -12.25 L-15.35 -15.65 M-21.45 -17.85 L-21.45 -17.6 M-35.35 -4.05 L-35.35 -12.3 -35.35 -15.65 M-35.35 0.25 L-35.35 -4.05 M-28.15 -4.05 L-28.15 -12.3 M-21.1 0.25 L-21.1 -4.05 M-15.35 -4.05 L-15.35 -12.25 M-1.35 -19.45 L-1.35 -19.9 M-1.2 -19.95 L-1.2 -21.2 M-1.0 -15.7 L-1.35 -17.85 M-7.75 -12.2 L-7.75 -15.7 M-1.0 -12.2 L-1.0 -15.7 M-7.75 -2.3 L-7.75 0.25 -7.75 5.95 M-1.0 0.25 L-1.0 -4.05 M-7.75 -2.3 L-7.75 -4.05 -7.75 -12.2 M-1.0 5.95 L-1.0 0.25 M-15.35 0.25 L-15.35 5.95 M-15.35 0.25 L-15.35 -4.05 M-15.35 18.45 L-15.35 13.7 -15.35 5.95 M-21.1 13.7 L-21.1 18.45 -21.1 24.95 -21.1 30.95 -21.1 36.2 M-21.1 5.95 L-21.1 13.7 M-15.35 24.95 L-15.35 18.45 M-1.0 18.45 L-1.0 13.7 M-7.75 13.7 L-7.75 18.45 -7.75 24.95 -7.75 30.95 -7.75 36.2 -7.75 40.95 -7.75 45.55 M-7.75 13.7 L-7.75 5.95 M-28.15 0.25 L-28.15 5.95 -28.15 13.7 -28.15 18.45 -28.15 24.95 M-21.1 5.95 L-21.1 0.25 M-35.35 13.7 L-35.35 5.95 -35.35 0.25 M-28.15 0.25 L-28.15 -4.05 M-35.35 18.45 L-35.35 13.7 M-15.35 30.95 L-15.35 24.95 M-15.35 36.2 L-15.35 30.95 M-28.15 30.95 L-28.15 36.2 -28.15 40.95 M-28.15 30.95 L-28.15 24.95 M-35.35 24.95 L-35.35 30.95 M-21.1 40.95 L-21.1 36.2 M-35.35 36.2 L-35.35 30.95 M-35.35 40.95 L-35.35 45.55 M-28.15 45.55 L-28.15 40.95 M-35.35 40.95 L-35.35 36.2 M-21.1 45.55 L-21.1 40.95 M-15.35 40.95 L-15.35 36.2 M-35.35 50.95 L-35.35 45.55 M-21.1 50.95 L-21.1 45.55 M-15.35 45.55 L-15.35 40.95 M-1.0 40.95 L-1.0 36.2 M-7.75 53.35 L-7.75 50.95 -7.75 45.55 M-1.0 45.55 L-1.0 40.95 M-35.35 18.45 L-35.35 24.95 M-28.15 50.95 L-28.15 45.55 M-1.0 50.95 L-1.0 45.55 M-15.35 50.95 L-15.35 45.55" fill="none" stroke="#7d138c" stroke-linecap="round" stroke-linejoin="round" stroke-width="1.5"/>
    <path d="M44.7 -48.95 L47.55 -48.95 M40.2 -53.95 L37.35 -53.95 37.0 -53.95 M37.0 -48.95 L43.75 -48.95 44.7 -48.95 M6.0 -54.8 L9.7 -54.8 16.6 -54.8 20.6 -54.8 23.25 -54.8 M38.85 -54.8 L39.45 -54.4 M2.25 -54.8 L-1.2 -54.8 -8.1 -54.8 M6.0 -54.8 L2.25 -54.8 M-1.2 -48.95 L2.25 -48.95 M9.7 -48.95 L16.6 -48.95 M29.4 -54.8 L23.25 -54.8 M23.25 -48.95 L29.4 -48.95 M32.7 -53.95 L29.4 -53.95 M32.7 -54.8 L29.4 -54.8 M36.0 -54.8 L32.7 -54.8 M36.0 -54.8 L37.0 -54.8 38.85 -54.8 M32.7 -48.95 L37.0 -48.95 M37.0 -47.3 L43.75 -47.3 46.3 -47.55 46.6 -47.55 M55.0 -40.95 L56.6 -40.95 M47.85 -48.75 L47.55 -48.95 M32.7 -53.95 L37.0 -53.95 M32.7 -48.95 L29.4 -48.95 M29.4 -47.3 L32.7 -47.3 37.0 -47.3 M37.0 -40.95 L43.75 -40.95 46.3 -40.95 50.45 -40.95 54.3 -40.95 M32.7 -39.7 L37.0 -39.7 43.75 -39.7 46.3 -39.95 50.45 -39.95 54.3 -39.95 55.05 -39.95 M37.0 -40.95 L32.7 -40.95 M23.25 -48.95 L20.6 -48.95 16.6 -48.95 M20.6 -40.95 L23.25 -40.95 M29.4 -39.7 L32.7 -39.7 M29.4 -40.95 L23.25 -40.95 M29.4 -40.95 L32.7 -40.95 M16.6 -34.05 L20.6 -34.05 23.25 -34.05 M20.6 -40.95 L16.6 -40.95 9.7 -40.95 M9.7 -34.05 L16.6 -34.05 M18.5 -24.35 L20.6 -24.3 21.8 -24.3 23.25 -24.3 23.45 -24.3 23.65 -24.3 29.4 -24.25 32.7 -24.25 M32.7 -34.05 L37.0 -34.05 M29.4 -34.05 L23.25 -34.05 M32.7 -33.05 L29.4 -33.05 M37.0 -33.05 L32.7 -33.05 M32.7 -34.05 L29.4 -34.05 M37.0 -33.05 L43.75 -33.05 46.3 -33.3 50.45 -33.3 M43.75 -34.05 L37.0 -34.05 M6.0 -34.05 L9.7 -34.05 M9.4 -24.35 L16.6 -24.35 16.85 -24.35 M6.0 -48.95 L2.25 -48.95 M2.25 -40.95 L6.0 -40.95 9.7 -40.95 M9.7 -48.95 L6.0 -48.95 M2.25 -34.05 L6.0 -34.05 M6.0 -25.05 L9.4 -25.05 M2.25 -25.05 L6.0 -25.05 M2.25 -40.95 L-1.2 -40.95 M5.55 -17.55 L9.4 -17.55 16.6 -17.55 20.6 -17.55 23.65 -17.55 29.4 -17.55 32.7 -17.55 M18.5 -24.35 L16.85 -24.35 M-1.35 -17.85 L1.4 -17.55 5.55 -17.55 M1.75 -12.05 L5.9 -12.05 9.75 -12.0 16.95 -12.0 20.95 -11.95 24.0 -11.95 29.75 -11.95 33.05 -11.9 37.35 -11.9 44.1 -11.9 M5.9 -3.75 L9.75 -3.75 M16.95 -3.75 L20.95 -3.75 24.0 -3.75 29.75 -3.75 33.5 -3.75 M1.75 -12.05 L-1.0 -12.2 M-1.0 -4.05 L1.75 -3.75 5.9 -3.75 M16.95 -3.75 L9.75 -3.75 M43.75 -24.2 L37.0 -24.25 32.7 -24.25 M37.0 -17.55 L43.75 -17.55 46.3 -17.8 M37.0 -17.55 L32.7 -17.55 M46.3 -24.65 L43.75 -24.2 M46.3 -34.05 L43.75 -34.05 M37.35 -3.75 L33.5 -3.75 M55.0 -40.95 L54.3 -40.95 M50.45 -34.05 L46.3 -34.05 M54.3 -24.6 L54.7 -24.6 M50.45 -34.05 L54.3 -34.05 M54.95 -33.3 L54.3 -33.3 50.45 -33.3 M53.25 -24.6 L54.3 -24.6 M55.0 -34.05 L54.3 -34.05 M50.45 -24.65 L53.25 -24.6 M50.45 -24.65 L46.3 -24.65 M50.6 -17.8 L52.15 -17.8 M44.1 -3.75 L43.0 -3.75 M50.45 -17.8 L46.3 -17.8 M50.6 -17.8 L50.45 -17.8 M40.85 -4.0 L41.4 -3.55 37.35 -3.75 M37.35 6.25 L42.6 6.0 M33.5 6.25 L37.35 6.25 M29.75 6.25 L33.5 6.25 M20.95 6.25 L24.0 6.25 29.75 6.25 M33.5 18.75 L37.35 18.75 M29.75 18.75 L33.5 18.75 M24.0 18.75 L20.95 18.75 16.95 18.75 9.75 18.75 5.9 18.75 1.75 18.75 -1.0 18.45 M20.95 31.25 L24.0 31.25 29.75 31.25 33.5 31.25 37.35 31.25 M29.75 18.75 L24.0 18.75 M16.95 31.25 L20.95 31.25 M5.9 6.25 L9.75 6.25 16.95 6.25 20.95 6.25 M1.75 6.25 L5.9 6.25 M1.75 31.25 L5.9 31.25 9.75 31.25 16.95 31.25 M20.95 41.25 L24.0 41.25 29.75 41.25 33.5 41.25 37.35 41.25 M1.75 6.25 L-1.0 5.95 M1.75 31.25 L-1.0 30.95 -5.8 30.95 M16.95 41.25 L20.95 41.25 M9.75 41.25 L16.95 41.25 M20.95 51.25 L24.0 51.25 29.75 51.25 M9.75 41.25 L5.9 41.25 1.75 41.25 M5.9 51.25 L9.75 51.25 M16.95 51.25 L20.95 51.25 M1.75 51.25 L5.9 51.25 M33.5 51.25 L35.35 51.25 M33.5 51.25 L29.75 51.25 M16.95 51.25 L9.75 51.25 M-35.7 -54.25 L-38.05 -54.25 -39.55 -54.25 M-28.25 -54.8 L-24.55 -54.8 M-21.6 -54.8 L-24.55 -54.8 M-15.8 -54.8 L-21.6 -54.8 M-24.55 -48.95 L-21.6 -48.95 M-15.8 -48.95 L-12.05 -48.95 -8.1 -48.95 M-12.05 -54.8 L-15.8 -54.8 M-12.05 -54.8 L-8.1 -54.8 M-43.7 -47.6 L-39.55 -47.6 -35.7 -47.6 -29.8 -47.6 M-46.7 -47.45 L-43.7 -47.6 M-43.7 -40.95 L-39.55 -40.95 -35.7 -40.95 -29.25 -40.95 -28.25 -40.95 M-35.7 -48.95 L-39.55 -48.95 M-47.9 -47.45 L-46.7 -47.45 M-46.7 -40.95 L-43.7 -40.95 M-43.7 -40.0 L-39.55 -40.0 -35.7 -40.0 -29.15 -40.0 M-29.85 -48.95 L-35.7 -48.95 M-46.7 -39.85 L-43.7 -40.0 M-53.45 -39.85 L-56.25 -39.85 M-53.45 -33.2 L-46.7 -33.2 -43.7 -33.35 -39.55 -33.35 -35.7 -33.35 -28.5 -33.35 -28.0 -33.35 M-46.7 -34.05 L-53.45 -34.05 M-46.7 -39.85 L-53.45 -39.85 M-53.45 -33.2 L-56.1 -33.2 M-46.7 -34.05 L-43.7 -34.05 -39.55 -34.05 -35.7 -34.05 M-28.45 -48.95 L-29.85 -48.95 M-51.7 -17.7 L-46.7 -17.7 -43.7 -17.85 M-43.7 -24.7 L-46.7 -24.35 M-39.55 -17.85 L-43.7 -17.85 M-54.35 -24.4 L-53.45 -24.4 -46.7 -24.35 M-43.35 -12.35 L-39.2 -12.35 M-35.7 -17.85 L-39.55 -17.85 M-1.2 -48.95 L-8.1 -48.95 M-8.1 -40.95 L-1.2 -40.95 M-12.05 -40.95 L-8.1 -40.95 M-1.2 -34.05 L2.25 -34.05 M-12.05 -40.95 L-15.8 -40.95 M-15.8 -48.95 L-21.6 -48.95 M-21.6 -40.95 L-15.8 -40.95 M-15.75 -34.05 L-12.05 -34.05 -8.1 -34.05 -1.2 -34.05 M-1.2 -25.05 L2.25 -25.05 M-27.75 -40.95 L-26.65 -40.95 M-26.4 -40.95 L-24.55 -40.95 -21.6 -40.95 M-24.55 -48.95 L-28.25 -48.95 -28.45 -48.95 M-26.4 -40.95 L-26.65 -40.95 M-27.75 -40.95 L-28.25 -40.95 M-28.5 -34.05 L-35.7 -34.05 M-35.7 -24.65 L-28.5 -24.65 M-28.15 -34.05 L-28.5 -34.05 M-21.6 -34.05 L-15.75 -34.05 M-15.7 -24.55 L-12.4 -24.55 -8.25 -24.55 -8.1 -24.55 M-24.55 -34.05 L-21.6 -34.05 M-21.6 -24.6 L-19.6 -24.6 -17.95 -24.6 -15.7 -24.55 M-26.45 -34.05 L-24.55 -34.05 M-23.1 -24.6 L-21.6 -24.6 M-28.15 -34.05 L-26.45 -34.05 M-24.55 -24.6 L-24.5 -24.6 -23.1 -24.6 M-26.25 -33.35 L-28.0 -33.35 M-24.8 -24.6 L-24.55 -24.6 M-24.8 -24.6 L-28.5 -24.65 M-15.7 -17.85 L-12.4 -17.85 -8.1 -17.85 -7.45 -17.85 -3.9 -17.85 M-21.6 -17.85 L-21.45 -17.85 M-28.5 -17.85 L-35.7 -17.85 M-39.55 -24.7 L-43.7 -24.7 M-24.15 -12.25 L-21.1 -12.25 -15.35 -12.25 -12.05 -12.2 -7.75 -12.2 -7.1 -12.2 -6.05 -12.2 -1.0 -12.2 M-21.6 -17.85 L-24.5 -17.85 -28.5 -17.85 M-28.15 -12.3 L-24.15 -12.25 M-24.15 -4.05 L-21.1 -4.05 -15.35 -4.05 -11.6 -4.05 M-35.7 -24.65 L-39.55 -24.7 M-39.2 -4.05 L-35.35 -4.05 -28.15 -4.05 -24.15 -4.05 M-35.35 -12.3 L-39.2 -12.35 M-28.15 -12.3 L-35.35 -12.3 M-1.35 -17.85 L-3.9 -17.85 M-7.75 -4.05 L-7.3 -4.05 M-1.0 -4.05 L-5.8 -4.05 M-7.75 -4.05 L-11.6 -4.05 M-7.75 5.95 L-7.3 5.95 M-15.7 -17.85 L-21.45 -17.85 M-5.8 5.95 L-1.0 5.95 M-15.35 5.95 L-11.6 5.95 M-21.1 18.45 L-15.35 18.45 -11.6 18.45 -7.75 18.45 -7.3 18.45 M-15.35 5.95 L-21.1 5.95 M-24.15 18.45 L-21.1 18.45 M-5.8 18.45 L-1.0 18.45 M-7.75 5.95 L-11.6 5.95 M-28.15 5.95 L-24.15 5.95 -21.1 5.95 M-35.35 5.95 L-39.2 5.95 -44.35 5.95 M-28.15 18.45 L-24.15 18.45 M-21.1 30.95 L-15.35 30.95 -11.6 30.95 -7.75 30.95 -7.3 30.95 M-39.2 18.45 L-35.35 18.45 -28.15 18.45 M-24.15 30.95 L-21.1 30.95 M-28.15 5.95 L-35.35 5.95 M-24.15 30.95 L-28.15 30.95 M-35.35 30.95 L-28.15 30.95 M-24.15 40.95 L-21.1 40.95 -15.35 40.95 -11.6 40.95 -7.75 40.95 -7.3 40.95 M-35.35 30.95 L-39.2 30.95 M-28.15 40.95 L-35.35 40.95 -39.2 40.95 M-28.15 40.95 L-24.15 40.95 M-39.2 50.95 L-35.35 50.95 -28.15 50.95 -24.15 50.95 -21.1 50.95 M-5.8 40.95 L-1.0 40.95 1.75 41.25 M-7.75 50.95 L-11.6 50.95 -15.35 50.95 -21.1 50.95 M-39.2 18.45 L-44.7 18.25 M-7.3 50.95 L-7.75 50.95 M1.75 51.25 L-1.0 50.95" fill="none" stroke="#000000" stroke-linecap="round" stroke-linejoin="round" stroke-width="1.25"/>
    <path d="M-13.3 -34.0 L-10.05 -39.5 -2.9 -23.05 -13.3 -34.0 M12.9 -34.2 L2.9 -23.2 9.45 -39.5 12.9 -34.2 M-22.95 -60.85 L22.35 -60.85 -0.3 -31.85 -22.95 -60.85" fill="#ffcccc" fill-rule="evenodd" stroke="none"/>
    <path d="M20.9 -23.0 Q28.65 -37.95 27.8 -54.9 L27.5 -59.75 23.2 -60.85 -0.05 -28.45 -23.05 -59.55 -27.95 -60.6 Q-29.7 -40.5 -20.9 -22.1 L-20.55 -21.5 -20.4 -22.1 -15.0 -31.15 -20.15 -19.5 Q-33.05 -38.8 -29.1 -62.45 L28.55 -62.1 29.4 -55.55 Q31.9 -36.5 20.9 -23.0 M-14.2 -32.55 L-13.3 -34.0 -2.9 -23.05 -1.85 -20.6 -14.2 -32.55 M-1.8 -20.45 L1.0 -21.75 9.8 -41.0 18.0 -25.45 Q15.5 -28.7 13.75 -32.7 10.55 -26.6 4.9 -22.8 0.05 -19.65 -5.45 -18.85 L-1.8 -20.45 M12.9 -34.2 L9.45 -39.5 2.9 -23.2 12.9 -34.2 M-22.95 -60.85 L-0.3 -31.85 22.35 -60.85 -22.95 -60.85" fill="#000000" fill-rule="evenodd" stroke="none"/>
    <path d="M25.35 -58.6 L25.1 -58.05 Q25.1 -57.7 25.35 -57.45 L25.9 -57.25 26.5 -57.45 26.7 -58.05 26.5 -58.6 25.9 -58.85 25.35 -58.6 M25.15 -51.65 Q25.35 -51.45 25.65 -51.45 L26.2 -51.65 26.4 -52.2 26.2 -52.7 25.65 -52.95 25.15 -52.7 24.9 -52.2 Q24.9 -51.9 25.15 -51.65 M-20.9 -22.1 Q-29.7 -40.5 -27.95 -60.6 L-23.05 -59.55 -0.05 -28.45 23.2 -60.85 27.5 -59.75 27.8 -54.9 Q28.65 -37.95 20.9 -23.0 L19.9 -21.8 18.0 -25.45 9.8 -41.0 1.0 -21.75 -1.8 -20.45 -1.85 -20.6 -2.9 -23.05 -10.05 -39.5 -13.3 -34.0 -14.2 -32.55 -15.0 -31.15 -20.4 -22.1 -20.9 -22.1 M25.95 -45.5 L26.15 -46.05 25.95 -46.55 25.4 -46.8 24.9 -46.55 24.65 -46.05 Q24.65 -45.75 24.9 -45.5 L25.4 -45.3 25.95 -45.5 M24.05 -40.55 L23.8 -40.0 Q23.8 -39.65 24.05 -39.4 24.25 -39.2 24.6 -39.2 L25.2 -39.4 25.4 -40.0 25.2 -40.55 24.6 -40.8 Q24.25 -40.8 24.05 -40.55 M24.05 -33.35 L23.85 -33.85 23.3 -34.1 22.8 -33.85 22.55 -33.35 22.8 -32.8 23.3 -32.6 23.85 -32.8 24.05 -33.35 M21.35 -26.95 L21.15 -27.45 20.6 -27.7 20.1 -27.45 19.85 -26.95 20.1 -26.4 Q20.3 -26.2 20.6 -26.2 L21.15 -26.4 21.35 -26.95 M13.0 -42.2 L12.4 -42.45 11.8 -42.2 11.55 -41.6 Q11.55 -41.25 11.8 -41.0 L12.4 -40.75 Q12.75 -40.75 13.0 -41.0 L13.25 -41.6 13.0 -42.2 M14.5 -37.2 Q14.7 -37.0 15.05 -37.0 L15.65 -37.2 15.85 -37.8 15.65 -38.35 15.05 -38.6 Q14.7 -38.6 14.5 -38.35 L14.25 -37.8 Q14.25 -37.45 14.5 -37.2 M16.7 -34.55 L16.5 -34.1 16.7 -33.65 17.15 -33.45 17.6 -33.65 17.8 -34.1 17.6 -34.55 17.15 -34.75 16.7 -34.55 M18.75 -31.45 Q18.5 -31.25 18.5 -30.9 18.5 -30.55 18.75 -30.3 L19.3 -30.1 19.9 -30.3 20.1 -30.9 19.9 -31.45 19.3 -31.7 18.75 -31.45 M-26.1 -57.25 L-26.65 -57.0 -26.9 -56.45 -26.65 -55.85 -26.1 -55.65 -25.5 -55.85 -25.3 -56.45 -25.5 -57.0 Q-25.75 -57.25 -26.1 -57.25 M-26.4 -52.5 L-26.65 -51.95 -26.4 -51.35 -25.85 -51.15 -25.25 -51.35 -25.05 -51.95 -25.25 -52.5 -25.85 -52.75 -26.4 -52.5 M-16.9 -37.7 L-17.15 -37.1 -16.9 -36.5 -16.3 -36.25 Q-15.95 -36.25 -15.7 -36.5 -15.45 -36.75 -15.45 -37.1 L-15.7 -37.7 Q-15.95 -37.95 -16.3 -37.95 L-16.9 -37.7 M-13.65 -42.45 L-14.25 -42.2 -14.5 -41.6 -14.25 -41.0 -13.65 -40.75 Q-13.3 -40.75 -13.05 -41.0 L-12.8 -41.6 -13.05 -42.2 -13.65 -42.45 M-18.95 -33.7 L-19.55 -33.45 -19.8 -32.85 -19.55 -32.25 Q-19.3 -32.0 -18.95 -32.0 -18.6 -32.0 -18.35 -32.25 -18.1 -32.5 -18.1 -32.85 L-18.35 -33.45 -18.95 -33.7 M-26.65 -46.5 L-26.1 -46.3 -25.5 -46.5 -25.3 -47.1 -25.5 -47.65 Q-25.75 -47.9 -26.1 -47.9 L-26.65 -47.65 -26.9 -47.1 -26.65 -46.5 M-25.6 -41.05 Q-25.25 -41.05 -25.0 -41.25 L-24.8 -41.85 -25.0 -42.4 -25.6 -42.65 -26.15 -42.4 -26.4 -41.85 -26.15 -41.25 Q-25.95 -41.05 -25.6 -41.05 M-23.7 -36.55 L-23.9 -37.1 -24.5 -37.35 -25.05 -37.1 -25.3 -36.55 -25.05 -35.95 -24.5 -35.75 -23.9 -35.95 -23.7 -36.55 M-23.8 -31.5 L-23.5 -30.9 -22.9 -30.65 Q-22.55 -30.65 -22.25 -30.9 -22.0 -31.15 -22.0 -31.5 L-22.25 -32.1 -22.9 -32.35 -23.5 -32.1 -23.8 -31.5 M-21.3 -27.45 L-21.8 -27.2 -22.05 -26.7 -21.8 -26.15 Q-21.6 -25.95 -21.3 -25.95 L-20.75 -26.15 -20.55 -26.7 -20.75 -27.2 -21.3 -27.45" fill="#ffe8e8" fill-rule="evenodd" stroke="none"/>
    <path d="M25.15 -51.65 Q24.9 -51.9 24.9 -52.2 L25.15 -52.7 25.65 -52.95 26.2 -52.7 26.4 -52.2 26.2 -51.65 25.65 -51.45 Q25.35 -51.45 25.15 -51.65 M25.35 -58.6 L25.9 -58.85 26.5 -58.6 26.7 -58.05 26.5 -57.45 25.9 -57.25 25.35 -57.45 Q25.1 -57.7 25.1 -58.05 L25.35 -58.6 M18.75 -31.45 L19.3 -31.7 19.9 -31.45 20.1 -30.9 19.9 -30.3 19.3 -30.1 18.75 -30.3 Q18.5 -30.55 18.5 -30.9 18.5 -31.25 18.75 -31.45 M16.7 -34.55 L17.15 -34.75 17.6 -34.55 17.8 -34.1 17.6 -33.65 17.15 -33.45 16.7 -33.65 16.5 -34.1 16.7 -34.55 M14.5 -37.2 Q14.25 -37.45 14.25 -37.8 L14.5 -38.35 Q14.7 -38.6 15.05 -38.6 L15.65 -38.35 15.85 -37.8 15.65 -37.2 15.05 -37.0 Q14.7 -37.0 14.5 -37.2 M13.0 -42.2 L13.25 -41.6 13.0 -41.0 Q12.75 -40.75 12.4 -40.75 L11.8 -41.0 Q11.55 -41.25 11.55 -41.6 L11.8 -42.2 12.4 -42.45 13.0 -42.2 M21.35 -26.95 L21.15 -26.4 20.6 -26.2 Q20.3 -26.2 20.1 -26.4 L19.85 -26.95 20.1 -27.45 20.6 -27.7 21.15 -27.45 21.35 -26.95 M24.05 -33.35 L23.85 -32.8 23.3 -32.6 22.8 -32.8 22.55 -33.35 22.8 -33.85 23.3 -34.1 23.85 -33.85 24.05 -33.35 M24.05 -40.55 Q24.25 -40.8 24.6 -40.8 L25.2 -40.55 25.4 -40.0 25.2 -39.4 24.6 -39.2 Q24.25 -39.2 24.05 -39.4 23.8 -39.65 23.8 -40.0 L24.05 -40.55 M25.95 -45.5 L25.4 -45.3 24.9 -45.5 Q24.65 -45.75 24.65 -46.05 L24.9 -46.55 25.4 -46.8 25.95 -46.55 26.15 -46.05 25.95 -45.5 M-21.3 -27.45 L-20.75 -27.2 -20.55 -26.7 -20.75 -26.15 -21.3 -25.95 Q-21.6 -25.95 -21.8 -26.15 L-22.05 -26.7 -21.8 -27.2 -21.3 -27.45 M-23.8 -31.5 L-23.5 -32.1 -22.9 -32.35 -22.25 -32.1 -22.0 -31.5 Q-22.0 -31.15 -22.25 -30.9 -22.55 -30.65 -22.9 -30.65 L-23.5 -30.9 -23.8 -31.5 M-23.7 -36.55 L-23.9 -35.95 -24.5 -35.75 -25.05 -35.95 -25.3 -36.55 -25.05 -37.1 -24.5 -37.35 -23.9 -37.1 -23.7 -36.55 M-25.6 -41.05 Q-25.95 -41.05 -26.15 -41.25 L-26.4 -41.85 -26.15 -42.4 -25.6 -42.65 -25.0 -42.4 -24.8 -41.85 -25.0 -41.25 Q-25.25 -41.05 -25.6 -41.05 M-26.65 -46.5 L-26.9 -47.1 -26.65 -47.65 -26.1 -47.9 Q-25.75 -47.9 -25.5 -47.65 L-25.3 -47.1 -25.5 -46.5 -26.1 -46.3 -26.65 -46.5 M-18.95 -33.7 L-18.35 -33.45 -18.1 -32.85 Q-18.1 -32.5 -18.35 -32.25 -18.6 -32.0 -18.95 -32.0 -19.3 -32.0 -19.55 -32.25 L-19.8 -32.85 -19.55 -33.45 -18.95 -33.7 M-13.65 -42.45 L-13.05 -42.2 -12.8 -41.6 -13.05 -41.0 Q-13.3 -40.75 -13.65 -40.75 L-14.25 -41.0 -14.5 -41.6 -14.25 -42.2 -13.65 -42.45 M-16.9 -37.7 L-16.3 -37.95 Q-15.95 -37.95 -15.7 -37.7 L-15.45 -37.1 Q-15.45 -36.75 -15.7 -36.5 -15.95 -36.25 -16.3 -36.25 L-16.9 -36.5 -17.15 -37.1 -16.9 -37.7 M-26.4 -52.5 L-25.85 -52.75 -25.25 -52.5 -25.05 -51.95 -25.25 -51.35 -25.85 -51.15 -26.4 -51.35 -26.65 -51.95 -26.4 -52.5 M-26.1 -57.25 Q-25.75 -57.25 -25.5 -57.0 L-25.3 -56.45 -25.5 -55.85 -26.1 -55.65 -26.65 -55.85 -26.9 -56.45 -26.65 -57.0 -26.1 -57.25" fill="#8f2493" fill-rule="evenodd" stroke="none"/>
  </g>
</svg>
