<?xml version="1.0" encoding="UTF-8" standalone="no"?>
<svg xmlns:xlink="http://www.w3.org/1999/xlink" height="30.25px" width="42.85px" xmlns="http://www.w3.org/2000/svg">
  <g transform="matrix(1.0, 0.0, 0.0, 1.0, -137.9, 167.45)">
    <path d="M145.6 -167.4 Q150.85 -167.6 156.05 -167.2 161.15 -166.85 166.0 -165.0 170.6 -163.25 172.7 -158.8 L177.9 -147.6 178.35 -146.5 178.85 -145.45 178.85 -145.3 178.85 -145.05 178.9 -145.05 Q178.35 -144.0 177.6 -143.45 L177.65 -143.2 178.4 -142.0 179.35 -140.65 179.45 -140.5 180.55 -139.05 180.75 -138.55 180.35 -138.05 180.1 -137.85 Q174.2 -135.8 169.45 -140.1 L162.35 -145.8 Q158.2 -148.75 153.25 -149.7 156.7 -146.85 157.65 -142.3 L157.65 -141.4 Q156.25 -140.85 154.85 -141.8 L153.9 -142.25 149.15 -143.95 143.2 -146.45 Q140.45 -147.65 138.4 -149.65 137.95 -150.1 137.95 -150.75 L138.25 -158.1 138.0 -161.7 Q137.55 -164.1 138.85 -166.0 139.0 -166.3 139.35 -166.3 L139.4 -166.3 Q142.35 -167.65 145.55 -167.4 L145.6 -167.4 M149.1 -145.5 L149.7 -145.25 156.35 -142.7 Q154.8 -147.95 149.8 -150.3 L149.65 -150.45 149.55 -150.65 149.7 -151.2 149.9 -151.35 150.25 -151.5 Q155.85 -150.85 160.65 -148.1 L165.5 -144.85 170.5 -140.65 Q174.55 -137.2 179.5 -138.85 L178.0 -140.65 177.6 -141.35 177.4 -141.55 177.25 -141.75 176.4 -142.85 176.05 -143.15 174.8 -144.1 172.8 -146.5 170.8 -148.7 168.6 -150.6 166.1 -152.5 166.1 -152.55 166.05 -152.55 166.25 -152.9 166.55 -152.85 169.3 -151.05 Q171.9 -149.35 173.85 -146.9 L176.0 -144.0 Q176.65 -144.2 177.15 -144.75 L177.55 -145.2 176.25 -148.2 171.1 -159.3 Q170.1 -161.3 168.25 -162.5 163.9 -165.25 158.75 -165.9 L149.95 -166.5 Q145.5 -166.6 141.35 -165.55 L140.9 -165.4 140.8 -164.75 140.45 -164.55 140.1 -164.45 Q139.85 -160.7 140.2 -156.9 L140.25 -155.85 139.7 -150.35 Q144.1 -147.5 149.1 -145.5" fill="#000000" fill-rule="evenodd" stroke="none"/>
    <path d="M149.1 -145.5 Q148.7 -146.85 147.5 -147.9 L147.0 -148.35 146.25 -149.1 Q145.0 -150.2 144.6 -151.6 144.4 -152.1 144.8 -152.55 145.4 -153.45 146.45 -153.7 L145.0 -154.3 Q143.4 -155.05 142.15 -156.1 L142.2 -156.45 142.35 -156.5 142.4 -156.55 142.35 -156.55 Q141.95 -157.05 142.15 -157.7 L142.25 -158.1 Q142.85 -159.95 144.5 -161.15 L145.65 -161.75 Q147.55 -162.6 149.75 -162.55 L157.7 -161.95 160.5 -161.35 Q164.25 -160.3 167.55 -158.2 L168.7 -157.2 Q170.65 -155.05 172.25 -152.65 L173.05 -151.5 174.6 -149.65 Q175.35 -148.75 176.25 -148.2 L177.55 -145.2 177.15 -144.75 Q176.65 -144.2 176.0 -144.0 L173.85 -146.9 Q171.9 -149.35 169.3 -151.05 L166.55 -152.85 166.25 -152.9 166.05 -152.55 164.1 -154.05 162.0 -154.95 161.0 -155.3 160.45 -155.55 159.6 -155.7 159.0 -155.65 158.4 -155.2 Q157.15 -154.4 155.85 -153.85 159.2 -154.3 164.45 -151.5 L167.8 -149.4 Q170.65 -147.3 172.55 -144.7 L173.55 -143.9 Q174.2 -143.4 175.05 -143.15 L177.25 -141.75 177.4 -141.55 177.6 -141.35 178.0 -140.65 179.5 -138.85 Q174.55 -137.2 170.5 -140.65 L165.5 -144.85 160.65 -148.1 Q155.85 -150.85 150.25 -151.5 L149.9 -151.35 149.7 -151.2 149.55 -150.65 149.65 -150.45 149.8 -150.3 Q154.8 -147.95 156.35 -142.7 L149.7 -145.25 149.1 -145.5" fill="#ffffff" fill-rule="evenodd" stroke="none"/>
    <path d="M176.25 -148.2 Q175.35 -148.75 174.6 -149.65 L173.05 -151.5 172.25 -152.65 Q170.65 -155.05 168.7 -157.2 L167.55 -158.2 Q164.25 -160.3 160.5 -161.35 L157.7 -161.95 149.75 -162.55 Q147.55 -162.6 145.65 -161.75 L144.5 -161.15 Q142.85 -159.95 142.25 -158.1 L142.15 -157.7 Q141.95 -157.05 142.35 -156.55 L142.4 -156.55 142.35 -156.5 142.2 -156.45 142.15 -156.1 Q143.4 -155.05 145.0 -154.3 L146.45 -153.7 Q145.4 -153.45 144.8 -152.55 144.4 -152.1 144.6 -151.6 145.0 -150.2 146.25 -149.1 L147.0 -148.35 147.5 -147.9 Q148.7 -146.85 149.1 -145.5 144.1 -147.5 139.7 -150.35 L140.25 -155.85 140.2 -156.9 Q139.85 -160.7 140.1 -164.45 L140.45 -164.55 140.8 -164.75 140.9 -165.4 141.35 -165.55 Q145.5 -166.6 149.95 -166.5 L158.75 -165.9 Q163.9 -165.25 168.25 -162.5 170.1 -161.3 171.1 -159.3 L176.25 -148.2 M177.25 -141.75 L175.05 -143.15 Q174.2 -143.4 173.55 -143.9 L172.55 -144.7 Q170.65 -147.3 167.8 -149.4 L164.45 -151.5 Q159.2 -154.3 155.85 -153.85 157.15 -154.4 158.4 -155.2 L159.0 -155.65 159.6 -155.7 160.45 -155.55 161.0 -155.3 162.0 -154.95 164.1 -154.05 166.05 -152.55 166.1 -152.55 166.1 -152.5 168.6 -150.6 170.8 -148.7 172.8 -146.5 174.8 -144.1 176.05 -143.15 176.4 -142.85 177.25 -141.75" fill="#cccccc" fill-rule="evenodd" stroke="none"/>
  </g>
</svg>
