<?xml version="1.0" encoding="UTF-8" standalone="no"?>
<svg xmlns:xlink="http://www.w3.org/1999/xlink" height="23.5px" width="23.4px" xmlns="http://www.w3.org/2000/svg">
  <g transform="matrix(1.0, 0.0, 0.0, 1.0, 11.7, 11.7)">
    <path d="M7.05 -9.45 L9.25 -7.1 6.8 -5.8 8.55 -2.85 11.45 -3.3 11.7 1.15 8.85 1.3 8.05 4.1 10.0 6.2 7.3 9.2 5.05 7.5 2.85 9.05 3.95 11.1 Q1.5 11.95 -1.0 11.75 L-0.9 9.4 -3.15 8.65 -4.25 10.95 -8.1 8.45 -6.8 6.2 -8.35 4.1 -10.65 4.95 -11.7 0.65 -8.9 0.25 -8.55 -3.65 -10.9 -4.4 -8.1 -8.45 -6.35 -6.55 -3.15 -8.5 -3.95 -11.1 1.35 -11.7 0.9 -8.8 3.65 -7.75 5.6 -10.4 7.05 -9.45 M0.05 -6.05 Q-2.5 -6.05 -4.3 -4.25 -6.1 -2.45 -6.1 0.1 -6.1 2.65 -4.3 4.45 -2.5 6.25 0.05 6.25 2.55 6.25 4.4 4.45 6.2 2.65 6.2 0.1 6.2 -2.45 4.4 -4.25 2.55 -6.05 0.05 -6.05" fill="#999999" fill-rule="evenodd" stroke="none"/>
    <path d="M7.05 -9.45 L5.6 -10.4 3.65 -7.75 0.9 -8.8 1.35 -11.7 -3.95 -11.1 -3.15 -8.5 -6.35 -6.55 -8.1 -8.45 -10.9 -4.4 -8.55 -3.65 -8.9 0.25 -11.7 0.65 -10.65 4.95 -8.35 4.1 -6.8 6.2 -8.1 8.45 -4.25 10.95 -3.15 8.65 -0.9 9.4 -1.0 11.75 Q1.5 11.95 3.95 11.1 L2.85 9.05 5.05 7.5 7.3 9.2 10.0 6.2 8.05 4.1 8.85 1.3 11.7 1.15 11.45 -3.3 8.55 -2.85 6.8 -5.8 9.25 -7.1 7.05 -9.45 M0.05 -6.05 Q-2.5 -6.05 -4.3 -4.25 -6.1 -2.45 -6.1 0.1 -6.1 2.65 -4.3 4.45 -2.5 6.25 0.05 6.25 2.55 6.25 4.4 4.45 6.2 2.65 6.2 0.1 6.2 -2.45 4.4 -4.25 2.55 -6.05 0.05 -6.05" fill="none" stroke="#000000" stroke-linecap="round" stroke-linejoin="round" stroke-width="0.05"/>
  </g>
</svg>
