<?xml version="1.0" encoding="UTF-8" standalone="no"?>
<svg xmlns:xlink="http://www.w3.org/1999/xlink" height="11.4px" width="9.85px" xmlns="http://www.w3.org/2000/svg">
  <g transform="matrix(1.0, 0.0, 0.0, 1.0, 31.45, 148.85)">
    <path d="M-27.9 -144.05 L-27.95 -144.15 -29.55 -143.1 -31.45 -144.5 -24.55 -148.85 -23.9 -146.7 -25.85 -145.5 -25.8 -145.4 -27.9 -144.05 M-25.55 -145.05 L-24.95 -144.1 -27.05 -142.75 -27.65 -143.7 -25.55 -145.05 M-24.55 -143.4 L-23.75 -142.15 -25.85 -140.8 -26.65 -142.05 -24.55 -143.4 M-23.2 -141.3 L-22.35 -139.95 -24.45 -138.6 -25.3 -139.95 -23.2 -141.3 M-21.9 -139.3 L-21.6 -138.8 -23.7 -137.45 -24.0 -137.95 -21.9 -139.3" fill="#cccccc" fill-rule="evenodd" stroke="none"/>
    <path d="M-27.9 -144.05 L-25.8 -145.4 -25.55 -145.05 -27.65 -143.7 -27.9 -144.05 M-24.95 -144.1 L-24.55 -143.4 -26.65 -142.05 -27.05 -142.75 -24.95 -144.1 M-23.75 -142.15 L-23.2 -141.3 -25.3 -139.95 -25.85 -140.8 -23.75 -142.15 M-22.35 -139.95 L-21.9 -139.3 -24.0 -137.95 -24.45 -138.6 -22.35 -139.95" fill="#999999" fill-rule="evenodd" stroke="none"/>
    <path d="M-25.8 -145.4 L-25.85 -145.5 -23.9 -146.7 -24.55 -148.85 -31.45 -144.5 -29.55 -143.1 -27.95 -144.15 -27.9 -144.05 M-25.8 -145.4 L-25.55 -145.05 -24.95 -144.1 -24.55 -143.4 -23.75 -142.15 -23.2 -141.3 -22.35 -139.95 -21.9 -139.3 -21.6 -138.8 -23.7 -137.45 -24.0 -137.95 -24.45 -138.6 -25.3 -139.95 -25.85 -140.8 -26.65 -142.05 -27.05 -142.75 -27.65 -143.7 -27.9 -144.05" fill="none" stroke="#000000" stroke-linecap="round" stroke-linejoin="round" stroke-width="0.05"/>
  </g>
</svg>
