<?xml version="1.0" encoding="UTF-8" standalone="no"?>
<svg xmlns:xlink="http://www.w3.org/1999/xlink" height="8.05px" width="10.3px" xmlns="http://www.w3.org/2000/svg">
  <g transform="matrix(1.0, 0.0, 0.0, 1.0, -25.0, 89.7)">
    <path d="M32.45 -86.95 Q32.45 -86.95 32.55 -86.9 L33.2 -88.55 35.3 -88.5 32.45 -81.65 30.85 -82.9 31.65 -84.8 Q31.55 -84.85 31.55 -84.85 L32.45 -86.95 M31.15 -85.0 L30.2 -85.4 31.1 -87.5 32.05 -87.1 31.15 -85.0 M29.55 -85.7 L28.3 -86.2 29.2 -88.3 30.45 -87.8 29.55 -85.7 M27.45 -86.6 L26.1 -87.15 27.0 -89.25 28.35 -88.7 27.45 -86.6 M25.45 -87.4 L25.0 -87.6 25.9 -89.7 26.35 -89.5 25.45 -87.4" fill="#cccccc" fill-rule="evenodd" stroke="none"/>
    <path d="M32.45 -86.95 L31.55 -84.85 31.15 -85.0 32.05 -87.1 32.45 -86.95 M30.2 -85.4 L29.55 -85.7 30.45 -87.8 31.1 -87.5 30.2 -85.4 M28.3 -86.2 L27.45 -86.6 28.35 -88.7 29.2 -88.3 28.3 -86.2 M26.1 -87.15 L25.45 -87.4 26.35 -89.5 27.0 -89.25 26.1 -87.15" fill="#999999" fill-rule="evenodd" stroke="none"/>
    <path d="M31.55 -84.85 Q31.55 -84.85 31.65 -84.8 L30.85 -82.9 32.45 -81.65 35.3 -88.5 33.2 -88.55 32.55 -86.9 Q32.45 -86.95 32.45 -86.95 M31.55 -84.85 L31.15 -85.0 30.2 -85.4 29.55 -85.7 28.3 -86.2 27.45 -86.6 26.1 -87.15 25.45 -87.4 25.0 -87.6 25.9 -89.7 26.35 -89.5 27.0 -89.25 28.35 -88.7 29.2 -88.3 30.45 -87.8 31.1 -87.5 32.05 -87.1 32.45 -86.95" fill="none" stroke="#000000" stroke-linecap="round" stroke-linejoin="round" stroke-width="0.05"/>
  </g>
</svg>
