<?xml version="1.0" encoding="UTF-8" standalone="no"?>
<svg xmlns:xlink="http://www.w3.org/1999/xlink" height="68.65px" width="49.5px" xmlns="http://www.w3.org/2000/svg">
  <g transform="matrix(1.0, 0.0, 0.0, 1.0, 10.2, -96.15)">
    <path d="M7.05 99.1 Q10.0 102.05 10.0 106.2 10.0 110.35 7.05 113.3 4.1 116.25 -0.1 116.25 -4.3 116.25 -7.25 113.3 -10.2 110.35 -10.2 106.2 -10.2 102.05 -7.25 99.1 -4.3 96.15 -0.1 96.15 4.1 96.15 7.05 99.1 M5.0 100.0 Q2.7 100.4 2.65 103.2 L0.65 99.1 -3.35 98.75 -6.35 103.0 -8.95 107.8 Q-7.7 112.2 -3.55 113.7 L1.5 113.5 -1.0 110.75 6.3 112.0 8.05 110.1 8.75 103.9 5.0 100.0 M19.35 116.65 L16.75 121.45 25.5 129.4 24.85 129.3 Q6.7 115.55 -1.4 138.7 -1.7 140.75 -1.6 142.6 -2.9 127.55 14.4 121.35 L15.65 117.25 23.4 111.95 Q53.15 126.55 27.2 148.55 L27.4 149.2 Q29.3 168.65 12.5 163.85 L14.15 164.0 Q30.5 164.85 25.2 149.1 L21.4 146.75 20.05 143.5 Q29.05 148.5 27.25 142.95 27.2 142.75 27.3 142.6 49.55 126.1 22.3 114.35 L19.35 116.65 M11.7 163.45 Q9.0 163.45 7.1 160.55 5.15 157.6 5.15 153.45 L6.3 154.05 11.05 152.0 Q4.25 157.8 11.7 163.45" fill="#333333" fill-rule="evenodd" stroke="none"/>
    <path d="M5.0 100.0 L8.75 103.9 8.05 110.1 6.3 112.0 -1.0 110.75 1.5 113.5 -3.55 113.7 Q-7.7 112.2 -8.95 107.8 L-6.35 103.0 -4.6 107.15 0.15 105.1 Q-0.95 110.45 5.15 108.65 L7.0 105.35 5.0 100.0 M19.35 116.65 L22.3 114.35 Q49.55 126.1 27.3 142.6 27.2 142.75 27.25 142.95 29.05 148.5 20.05 143.5 19.85 132.75 24.85 136.35 L25.0 136.7 26.75 138.55 Q44.25 125.2 21.75 115.45 L19.35 116.65 M25.2 149.1 Q30.5 164.85 14.15 164.0 L12.5 163.85 11.7 163.45 Q4.25 157.8 11.05 152.0 L6.3 154.05 5.15 153.45 Q0.65 149.3 -1.25 145.35 L-1.6 142.6 Q-1.7 140.75 -1.4 138.7 L-1.15 140.2 Q0.95 148.3 8.95 146.55 L12.05 139.0 Q18.55 145.9 13.05 152.45 L12.8 152.5 Q18.65 161.05 25.2 149.1" fill="#666666" fill-rule="evenodd" stroke="none"/>
    <path d="M-6.35 103.0 L-3.35 98.75 0.65 99.1 2.65 103.2 Q2.7 100.4 5.0 100.0 L7.0 105.35 5.15 108.65 Q-0.95 110.45 0.15 105.1 L-4.6 107.15 -6.35 103.0 M-1.4 138.7 Q6.7 115.55 24.85 129.3 L25.5 129.4 16.75 121.45 19.35 116.65 21.75 115.45 Q44.25 125.2 26.75 138.55 L25.0 136.7 24.85 136.35 Q19.85 132.75 20.05 143.5 L21.4 146.75 25.2 149.1 Q18.65 161.05 12.8 152.5 L13.05 152.45 Q18.55 145.9 12.05 139.0 L8.95 146.55 Q0.95 148.3 -1.15 140.2 L-1.4 138.7" fill="#cccccc" fill-rule="evenodd" stroke="none"/>
  </g>
</svg>
