<?xml version="1.0" encoding="UTF-8" standalone="no"?>
<svg xmlns:xlink="http://www.w3.org/1999/xlink" height="10.6px" width="13.45px" xmlns="http://www.w3.org/2000/svg">
  <g transform="matrix(1.0, 0.0, 0.0, 1.0, 116.65, 175.7)">
    <path d="M-113.5 -168.6 L-113.65 -168.6 -113.8 -166.1 -116.65 -165.1 -116.15 -175.7 -113.4 -174.8 -113.55 -171.85 -113.4 -171.85 -113.5 -168.6 M-112.8 -171.8 L-111.3 -171.75 -111.4 -168.5 -112.9 -168.55 -112.8 -171.8 M-110.3 -171.7 L-108.35 -171.65 -108.45 -168.4 -110.4 -168.45 -110.3 -171.7 M-107.05 -171.55 L-104.95 -171.5 -105.05 -168.25 -107.15 -168.3 -107.05 -171.55 M-103.95 -171.45 L-103.2 -171.4 -103.3 -168.15 -104.05 -168.2 -103.95 -171.45" fill="#cccccc" fill-rule="evenodd" stroke="none"/>
    <path d="M-113.5 -168.6 L-113.4 -171.85 -112.8 -171.8 -112.9 -168.55 -113.5 -168.6 M-111.3 -171.75 L-110.3 -171.7 -110.4 -168.45 -111.4 -168.5 -111.3 -171.75 M-108.35 -171.65 L-107.05 -171.55 -107.15 -168.3 -108.45 -168.4 -108.35 -171.65 M-104.95 -171.5 L-103.95 -171.45 -104.05 -168.2 -105.05 -168.25 -104.95 -171.5" fill="#999999" fill-rule="evenodd" stroke="none"/>
    <path d="M-113.4 -171.85 L-113.55 -171.85 -113.4 -174.8 -116.15 -175.7 -116.65 -165.1 -113.8 -166.1 -113.65 -168.6 -113.5 -168.6 M-113.4 -171.85 L-112.8 -171.8 -111.3 -171.75 -110.3 -171.7 -108.35 -171.65 -107.05 -171.55 -104.95 -171.5 -103.95 -171.45 -103.2 -171.4 -103.3 -168.15 -104.05 -168.2 -105.05 -168.25 -107.15 -168.3 -108.45 -168.4 -110.4 -168.45 -111.4 -168.5 -112.9 -168.55 -113.5 -168.6" fill="none" stroke="#000000" stroke-linecap="round" stroke-linejoin="round" stroke-width="0.05"/>
  </g>
</svg>
