<?xml version="1.0" encoding="UTF-8" standalone="no"?>
<svg xmlns:xlink="http://www.w3.org/1999/xlink" height="14.8px" width="12.7px" xmlns="http://www.w3.org/2000/svg">
  <g transform="matrix(1.0, 0.0, 0.0, 1.0, -97.0, 47.2)">
    <path d="M105.05 -38.5 L105.1 -38.4 107.25 -39.7 109.7 -37.9 100.6 -32.4 99.8 -35.2 102.35 -36.7 102.3 -36.8 105.05 -38.5 M102.0 -37.3 L101.2 -38.6 103.95 -40.3 104.75 -39.0 102.0 -37.3 M100.65 -39.45 L99.65 -41.1 102.4 -42.8 103.4 -41.15 100.65 -39.45 M99.0 -42.25 L97.9 -44.0 100.65 -45.7 101.75 -43.95 99.0 -42.25 M97.35 -44.9 L97.0 -45.5 99.75 -47.2 100.1 -46.6 97.35 -44.9" fill="#cccccc" fill-rule="evenodd" stroke="none"/>
    <path d="M105.05 -38.5 L102.3 -36.8 102.0 -37.3 104.75 -39.0 105.05 -38.5 M101.2 -38.6 L100.65 -39.45 103.4 -41.15 103.95 -40.3 101.2 -38.6 M99.65 -41.1 L99.0 -42.25 101.75 -43.95 102.4 -42.8 99.65 -41.1 M97.9 -44.0 L97.35 -44.9 100.1 -46.6 100.65 -45.7 97.9 -44.0" fill="#999999" fill-rule="evenodd" stroke="none"/>
    <path d="M102.3 -36.8 L102.35 -36.7 99.8 -35.2 100.6 -32.4 109.7 -37.9 107.25 -39.7 105.1 -38.4 105.05 -38.5 M102.3 -36.8 L102.0 -37.3 101.2 -38.6 100.65 -39.45 99.65 -41.1 99.0 -42.25 97.9 -44.0 97.35 -44.9 97.0 -45.5 99.75 -47.2 100.1 -46.6 100.65 -45.7 101.75 -43.95 102.4 -42.8 103.4 -41.15 103.95 -40.3 104.75 -39.0 105.05 -38.5" fill="none" stroke="#000000" stroke-linecap="round" stroke-linejoin="round" stroke-width="0.05"/>
  </g>
</svg>
