<?xml version="1.0" encoding="UTF-8" standalone="no"?>
<svg xmlns:xlink="http://www.w3.org/1999/xlink" height="10.0px" width="10.65px" xmlns="http://www.w3.org/2000/svg">
  <g transform="matrix(1.0, 0.0, 0.0, 1.0, 137.75, 165.75)">
    <path d="M-132.85 -159.2 L-132.95 -159.15 -131.8 -157.7 -132.9 -155.75 -137.75 -161.8 -135.8 -162.65 -134.45 -161.0 -134.35 -161.05 -132.85 -159.2 M-134.05 -161.35 L-133.2 -162.0 -131.7 -160.15 -132.55 -159.5 -134.05 -161.35 M-132.6 -162.5 L-131.5 -163.4 -130.0 -161.55 -131.1 -160.65 -132.6 -162.5 M-130.75 -164.0 L-129.6 -164.95 -128.1 -163.1 -129.25 -162.15 -130.75 -164.0 M-129.0 -165.4 L-128.6 -165.75 -127.1 -163.9 -127.5 -163.55 -129.0 -165.4" fill="#cccccc" fill-rule="evenodd" stroke="none"/>
    <path d="M-132.85 -159.2 L-134.35 -161.05 -134.05 -161.35 -132.55 -159.5 -132.85 -159.2 M-133.2 -162.0 L-132.6 -162.5 -131.1 -160.65 -131.7 -160.15 -133.2 -162.0 M-131.5 -163.4 L-130.75 -164.0 -129.25 -162.15 -130.0 -161.55 -131.5 -163.4 M-129.6 -164.95 L-129.0 -165.4 -127.5 -163.55 -128.1 -163.1 -129.6 -164.95" fill="#999999" fill-rule="evenodd" stroke="none"/>
    <path d="M-134.35 -161.05 L-134.45 -161.0 -135.8 -162.65 -137.75 -161.8 -132.9 -155.75 -131.8 -157.7 -132.95 -159.15 -132.85 -159.2 M-134.35 -161.05 L-134.05 -161.35 -133.2 -162.0 -132.6 -162.5 -131.5 -163.4 -130.75 -164.0 -129.6 -164.95 -129.0 -165.4 -128.6 -165.75 -127.1 -163.9 -127.5 -163.55 -128.1 -163.1 -129.25 -162.15 -130.0 -161.55 -131.1 -160.65 -131.7 -160.15 -132.55 -159.5 -132.85 -159.2" fill="none" stroke="#000000" stroke-linecap="round" stroke-linejoin="round" stroke-width="0.05"/>
  </g>
</svg>
