<?xml version="1.0" encoding="UTF-8" standalone="no"?>
<svg xmlns:xlink="http://www.w3.org/1999/xlink" height="10.35px" width="7.6px" xmlns="http://www.w3.org/2000/svg">
  <g transform="matrix(1.0, 0.0, 0.0, 1.0, -106.6, 23.75)">
    <path d="M111.2 -16.45 L111.2 -16.3 113.0 -16.65 114.2 -14.8 106.6 -13.4 106.75 -15.5 108.85 -15.9 108.85 -16.05 111.2 -16.45 M108.75 -16.45 L108.6 -17.5 110.95 -17.9 111.1 -16.85 108.75 -16.45 M108.45 -18.25 L108.2 -19.6 110.55 -20.0 110.8 -18.65 108.45 -18.25 M108.0 -20.6 L107.75 -22.05 110.1 -22.45 110.35 -21.0 108.0 -20.6 M107.6 -22.8 L107.5 -23.35 109.85 -23.75 109.95 -23.2 107.6 -22.8" fill="#cccccc" fill-rule="evenodd" stroke="none"/>
    <path d="M111.2 -16.45 L108.85 -16.05 108.75 -16.45 111.1 -16.85 111.2 -16.45 M108.6 -17.5 L108.45 -18.25 110.8 -18.65 110.95 -17.9 108.6 -17.5 M108.2 -19.6 L108.0 -20.6 110.35 -21.0 110.55 -20.0 108.2 -19.6 M107.75 -22.05 L107.6 -22.8 109.95 -23.2 110.1 -22.45 107.75 -22.05" fill="#999999" fill-rule="evenodd" stroke="none"/>
    <path d="M108.85 -16.05 L108.85 -15.9 106.75 -15.5 106.6 -13.4 114.2 -14.8 113.0 -16.65 111.2 -16.3 111.2 -16.45 M108.85 -16.05 L108.75 -16.45 108.6 -17.5 108.45 -18.25 108.2 -19.6 108.0 -20.6 107.75 -22.05 107.6 -22.8 107.5 -23.35 109.85 -23.75 109.95 -23.2 110.1 -22.45 110.35 -21.0 110.55 -20.0 110.8 -18.65 110.95 -17.9 111.1 -16.85 111.2 -16.45" fill="none" stroke="#000000" stroke-linecap="round" stroke-linejoin="round" stroke-width="0.05"/>
  </g>
</svg>
