<?xml version="1.0" encoding="UTF-8" standalone="no"?>
<svg xmlns:xlink="http://www.w3.org/1999/xlink" height="221.6px" width="208.2px" xmlns="http://www.w3.org/2000/svg">
  <g transform="matrix(1.0, 0.0, 0.0, 1.0, 91.95, 100.0)">
    <path d="M-4.45 -82.25 Q52.7 -99.45 62.25 -42.25 L59.7 -43.75 Q52.6 -48.75 52.7 -43.9 38.9 -46.6 28.2 -37.25 L4.1 -73.5 6.95 -53.85 Q4.65 -53.4 3.15 -52.05 -24.1 -27.4 -44.5 -39.75 L-43.55 -46.85 Q-34.45 -92.45 0.95 -77.05 L1.4 -76.9 1.0 -77.4 Q-1.6 -80.3 -4.45 -82.25 M56.65 -41.65 L59.6 -40.55 Q82.95 -30.65 86.85 -4.55 83.1 4.0 73.3 1.85 L70.2 0.8 57.35 -12.25 57.35 -11.9 Q74.5 6.95 79.15 32.95 L75.25 48.9 65.15 36.5 Q66.0 32.95 66.25 29.0 66.85 19.25 61.8 11.2 L54.9 31.5 48.05 24.85 45.5 19.8 38.85 -0.8 30.8 -23.3 31.0 -23.55 Q38.75 -39.8 56.4 -41.65 L56.6 -41.65 56.65 -41.65 M-53.7 62.35 L-53.7 62.15 Q-54.1 43.7 -44.8 27.75 L-44.75 27.65 -38.65 22.55 Q-36.6 47.25 -47.95 66.05 L-53.7 62.35 M-51.9 38.15 L-56.85 55.4 -60.4 45.8 -59.85 45.45 -59.7 45.65 Q-63.35 30.8 -57.5 12.5 -50.85 0.4 -37.7 -1.4 L-36.1 -1.55 -37.6 7.95 Q-46.15 15.1 -50.3 29.05 -51.7 33.6 -51.9 38.15 M-60.45 0.4 L-60.5 -1.45 Q-61.55 -21.5 -48.0 -33.4 L-47.8 -32.95 -42.4 -22.9 Q-42.4 -13.25 -47.65 -6.4 -52.95 0.4 -60.45 0.4 M64.15 -50.85 L59.1 -69.15 Q76.0 -63.85 77.3 -47.05 77.55 -43.85 76.75 -40.7 69.75 -37.95 65.25 -48.35 L64.15 -50.85 M83.9 -82.5 L88.9 -81.35 93.3 -86.95 85.3 -85.9 81.85 -90.9 84.6 -95.65 89.5 -96.3 92.85 -90.8 102.0 -93.45 Q110.55 -57.8 92.95 -78.05 L92.8 -77.6 Q92.15 -76.5 91.2 -75.8 89.75 -74.9 88.0 -75.1 86.05 -75.25 84.75 -76.7 L83.9 -82.5 M30.9 -8.2 L26.25 -9.0 Q36.35 -2.55 36.85 9.55 L34.2 8.2 33.25 8.05 Q33.05 8.35 33.55 9.15 L40.15 17.35 Q43.6 27.55 36.3 34.85 L35.45 35.6 Q34.8 24.35 25.55 16.6 9.3 65.85 7.2 11.95 7.1 9.0 9.3 6.35 -4.4 11.1 -6.55 23.8 -15.75 3.0 -1.7 -13.1 -17.2 1.95 -31.25 17.9 L-34.65 13.0 Q-35.3 -2.6 -26.75 -15.9 L-32.1 -11.75 -25.9 -23.35 -25.15 -23.3 Q-20.3 -28.05 -14.05 -29.8 8.65 -36.6 29.1 -20.75 L35.0 -5.95 33.85 -6.75 Q31.3 -9.3 30.9 -8.2 M63.3 105.6 L62.95 108.4 Q56.55 115.55 50.8 108.25 L63.3 105.6 M51.05 116.8 L50.95 116.5 51.45 116.7 51.05 116.8 M-79.35 52.4 L-74.05 50.95 -79.75 50.3 -79.5 45.05 -75.05 41.75 -73.15 48.65 -64.05 55.05 Q-63.95 67.45 -75.6 62.1 L-76.0 61.7 Q-78.55 58.55 -83.6 65.3 -84.4 58.85 -77.35 55.4 L-79.35 52.4" fill="#cccccc" fill-rule="evenodd" stroke="none"/>
    <path d="M-70.25 80.25 Q-78.7 80.25 -83.85 78.65 -89.0 74.5 -90.7 63.75 L-91.35 58.25 -86.4 55.85 -79.35 52.4 -77.35 55.4 Q-84.4 58.85 -83.6 65.3 -78.55 58.55 -76.0 61.7 L-75.6 62.1 Q-63.95 67.45 -64.05 55.05 L-60.75 63.7 -60.85 64.1 Q-62.65 70.35 -70.2 68.7 -71.85 68.25 -71.55 66.2 L-72.9 68.95 -62.0 70.6 -62.6 77.1 Q-66.7 79.25 -70.25 80.25 M52.7 -43.9 Q54.05 -42.5 56.25 -41.8 L56.4 -41.7 56.4 -41.65 Q38.75 -39.8 31.0 -23.55 L30.8 -23.3 19.6 -27.65 Q-3.95 -49.0 -25.5 -23.95 L-25.9 -23.35 -32.1 -11.75 -36.1 -1.55 -37.7 -1.4 Q-50.85 0.4 -57.5 12.5 -60.25 6.9 -60.45 0.4 -52.95 0.4 -47.65 -6.4 -42.4 -13.25 -42.4 -22.9 L-41.6 -22.25 -41.35 -21.5 -41.0 -21.9 -44.5 -39.75 Q-24.1 -27.4 3.15 -52.05 4.65 -53.4 6.95 -53.85 L4.1 -73.5 28.2 -37.25 Q38.9 -46.6 52.7 -43.9 M86.85 -4.55 L87.35 0.7 Q88.95 18.0 82.75 33.6 L70.2 0.8 73.3 1.85 Q83.1 4.0 86.85 -4.55 M79.15 32.95 Q88.7 66.8 64.55 93.55 47.8 112.15 23.8 102.9 L24.1 99.5 19.6 100.6 Q0.05 121.35 -20.25 101.1 L-6.35 96.75 Q-48.05 101.55 -53.7 62.35 L-47.95 66.05 Q-36.6 47.25 -38.65 22.55 L-44.75 27.65 -44.75 27.6 -44.85 27.65 -51.9 38.15 Q-51.7 33.6 -50.3 29.05 -46.15 15.1 -37.6 7.95 -40.35 30.15 -22.0 43.0 -13.55 72.65 8.2 69.85 L6.0 69.0 Q-22.7 57.15 -21.6 29.65 L-22.45 40.15 Q-34.95 29.7 -34.65 13.0 L-31.25 17.9 Q-17.2 1.95 -1.7 -13.1 -15.75 3.0 -6.55 23.8 -4.4 11.1 9.3 6.35 7.1 9.0 7.2 11.95 9.3 65.85 25.55 16.6 34.8 24.35 35.45 35.6 L36.3 34.85 Q43.6 27.55 40.15 17.35 42.0 20.0 43.45 22.85 54.55 44.75 32.35 58.1 31.1 61.65 29.4 64.25 52.2 52.5 48.05 24.85 L54.9 31.5 61.8 11.2 Q66.85 19.25 66.25 29.0 66.0 32.95 65.15 36.5 L75.25 48.9 79.15 32.95 M64.15 -50.85 L65.25 -48.35 Q69.75 -37.95 76.75 -40.7 L83.8 -22.2 66.05 -39.85 64.15 -50.85 M102.15 -93.4 Q111.2 -85.4 114.45 -79.45 115.1 -72.95 108.55 -65.1 L106.15 -62.55 90.45 -62.3 Q94.55 -63.5 89.45 -72.5 L88.9 -72.7 88.0 -66.2 81.4 -66.1 Q69.4 -76.5 80.05 -86.75 L83.9 -82.5 84.75 -76.7 Q86.05 -75.25 88.0 -75.1 89.75 -74.9 91.2 -75.8 92.15 -76.5 92.8 -77.6 L92.95 -78.05 Q110.55 -57.8 102.0 -93.45 L102.15 -93.4 M38.85 -0.8 L45.5 19.8 36.85 9.55 Q36.35 -2.55 26.25 -9.0 L30.9 -8.2 Q32.4 -7.65 33.85 -6.75 L35.15 -5.35 Q35.15 -3.45 36.25 -2.1 37.3 -0.8 38.85 -0.8 M63.3 105.6 L64.45 107.95 56.25 116.35 48.7 111.95 50.95 116.5 51.05 116.8 47.25 118.8 Q38.0 120.05 37.35 110.95 L50.8 108.25 Q56.55 115.55 62.95 108.4 L63.3 105.6 M-19.8 17.4 L-19.7 16.8 Q-20.15 16.9 -20.55 17.15 L-21.2 25.15 Q-20.8 21.4 -19.8 17.4" fill="#666666" fill-rule="evenodd" stroke="none"/>
    <path d="M-4.7 -82.65 Q30.55 -99.15 57.8 -71.35 70.05 -69.65 76.55 -59.2 81.4 -51.35 79.7 -42.3 98.75 -4.05 83.25 35.7 84.85 43.5 84.9 51.5 85.15 80.0 66.5 101.15 67.5 105.35 66.0 109.35 63.55 115.9 56.75 117.5 L52.25 118.15 Q50.5 120.4 47.7 121.2 41.75 122.8 38.35 117.8 36.8 115.5 35.6 113.0 L23.1 105.85 Q13.35 114.45 0.45 114.45 -14.1 114.45 -22.0 102.85 -29.9 100.8 -36.85 96.4 -53.2 86.3 -59.5 68.25 L-60.9 79.7 -70.25 80.25 Q-66.7 79.25 -62.6 77.1 L-62.0 70.6 -72.9 68.95 -71.55 66.2 Q-71.85 68.25 -70.2 68.7 -62.65 70.35 -60.85 64.1 L-60.75 63.7 -64.05 55.05 -73.15 48.65 -75.05 41.75 -79.5 45.05 -79.75 50.3 -74.05 50.95 -79.35 52.4 -86.4 55.85 -82.15 50.15 Q-83.45 45.2 -79.95 41.25 -77.95 38.95 -75.2 37.75 L-73.15 38.0 -69.05 47.4 -64.8 50.05 -59.35 15.9 Q-69.5 -12.35 -50.75 -34.9 L-47.6 -35.1 Q-48.5 -71.8 -14.8 -86.6 L-4.75 -82.55 -4.45 -82.25 -4.7 -82.65 M-83.85 78.65 Q-95.1 75.1 -90.7 63.75 -89.0 74.5 -83.85 78.65 M52.7 -43.9 Q52.6 -48.75 59.7 -43.75 L62.25 -42.25 Q52.7 -99.45 -4.45 -82.25 -1.6 -80.3 1.0 -77.4 L0.95 -77.05 Q-34.45 -92.45 -43.55 -46.85 L-44.5 -39.75 -41.0 -21.9 Q-41.35 -22.0 -41.6 -22.25 L-42.4 -22.9 -47.8 -32.95 -47.65 -33.55 -48.0 -33.4 Q-61.55 -21.5 -60.5 -1.45 L-60.45 0.4 Q-60.25 6.9 -57.5 12.5 -63.35 30.8 -59.7 45.65 L-59.85 45.45 Q-60.15 45.45 -60.4 45.6 L-60.4 45.8 -56.85 55.4 -51.9 38.15 -44.85 27.65 -44.8 27.75 Q-54.1 43.7 -53.7 62.15 L-53.7 62.35 Q-48.05 101.55 -6.35 96.75 L-20.25 101.1 Q0.05 121.35 19.6 100.6 L24.1 99.5 23.8 102.9 Q47.8 112.15 64.55 93.55 88.7 66.8 79.15 32.95 74.5 6.95 57.35 -11.9 L57.35 -12.25 70.2 0.8 82.75 33.6 Q88.95 18.0 87.35 0.7 L86.85 -4.55 Q82.95 -30.65 59.6 -40.55 L56.65 -41.65 56.25 -41.8 Q54.05 -42.5 52.7 -43.9 M76.75 -40.7 Q77.55 -43.85 77.3 -47.05 76.0 -63.85 59.1 -69.15 L64.15 -50.85 66.05 -39.85 83.8 -22.2 76.75 -40.7 M90.45 -62.3 Q63.75 -67.25 79.1 -88.15 L78.65 -92.5 84.35 -100.0 94.7 -96.35 Q97.15 -97.65 99.4 -95.75 L102.15 -93.4 102.0 -93.45 92.85 -90.8 89.5 -96.3 84.6 -95.65 81.85 -90.9 85.3 -85.9 93.3 -86.95 88.9 -81.35 83.9 -82.5 80.05 -86.75 Q69.4 -76.5 81.4 -66.1 L88.0 -66.2 88.9 -72.7 89.45 -72.5 Q94.55 -63.5 90.45 -62.3 M114.45 -79.45 Q119.95 -69.3 108.55 -65.1 115.1 -72.95 114.45 -79.45 M30.8 -23.3 L38.85 -0.8 Q37.3 -0.8 36.25 -2.1 35.15 -3.45 35.15 -5.35 L35.0 -5.95 29.1 -20.75 Q8.65 -36.6 -14.05 -29.8 -20.3 -28.05 -25.15 -23.3 L-25.5 -23.95 Q-3.95 -49.0 19.6 -27.65 L30.8 -23.3 M45.5 19.8 L48.05 24.85 Q52.2 52.5 29.4 64.25 31.1 61.65 32.35 58.1 54.55 44.75 43.45 22.85 42.0 20.0 40.15 17.35 L33.55 9.15 34.2 8.2 36.85 9.55 45.5 19.8 M-32.1 -11.75 L-26.75 -15.9 Q-35.3 -2.6 -34.65 13.0 -34.95 29.7 -22.45 40.15 L-21.6 29.65 Q-22.7 57.15 6.0 69.0 L8.2 69.85 Q-13.55 72.65 -22.0 43.0 -40.35 30.15 -37.6 7.95 L-36.1 -1.55 -32.1 -11.75 M50.95 116.5 L48.7 111.95 56.25 116.35 64.45 107.95 63.3 105.6 50.8 108.25 37.35 110.95 Q38.0 120.05 47.25 118.8 L51.05 116.8 51.45 116.7 50.95 116.5 M-19.8 17.4 Q-20.8 21.4 -21.2 25.15 L-20.55 17.15 -19.8 17.4" fill="#333333" fill-rule="evenodd" stroke="none"/>
    <path d="M-4.75 -82.55 L-4.7 -82.65 -4.45 -82.25 -4.75 -82.55 M56.25 -41.8 L56.65 -41.65 56.6 -41.65 56.4 -41.7 56.25 -41.8 M-44.8 27.75 L-44.85 27.65 -44.75 27.6 -44.8 27.75 M0.95 -77.05 L1.0 -77.4 1.4 -76.9 0.95 -77.05 M-25.15 -23.3 L-25.9 -23.35 -25.5 -23.95 -25.15 -23.3 M33.55 9.15 Q33.05 8.35 33.25 8.05 L34.2 8.2 33.55 9.15 M-20.55 17.15 Q-20.15 16.9 -19.7 16.8 L-19.8 17.4 -20.55 17.15" fill="#000000" fill-rule="evenodd" stroke="none"/>
  </g>
</svg>
