<?xml version="1.0" encoding="UTF-8" standalone="no"?>
<svg xmlns:xlink="http://www.w3.org/1999/xlink" height="237.7px" width="267.7px" xmlns="http://www.w3.org/2000/svg">
  <g transform="matrix(1.0, 0.0, 0.0, 1.0, 132.7, 125.65)">
    <path d="M104.4 -103.95 Q101.8 -111.5 106.6 -121.4 L116.3 -125.65 119.75 -124.5 Q144.4 -115.55 129.2 -95.65 145.1 -120.1 111.6 -121.4 L108.7 -118.4 107.45 -110.5 110.6 -107.25 105.1 -107.25 Q104.5 -106.85 104.45 -106.4 L104.4 -103.95 M127.8 -94.75 Q120.55 -90.2 114.2 -93.15 L117.8 -93.05 118.85 -93.05 118.35 -93.55 115.55 -98.8 118.3 -101.0 118.5 -98.0 127.8 -94.75" fill="#000000" fill-rule="evenodd" stroke="none"/>
    <path d="M104.4 -103.95 L104.45 -106.4 Q104.5 -106.85 105.1 -107.25 L110.6 -107.25 107.45 -110.5 108.7 -118.4 111.6 -121.4 Q145.1 -120.1 129.2 -95.65 L128.45 -94.55 127.8 -94.75 118.5 -98.0 118.3 -101.0 115.55 -98.8 118.35 -93.55 117.8 -93.05 114.2 -93.15 111.4 -94.85 Q106.15 -98.85 104.4 -103.95 M100.25 -62.95 Q94.65 -70.4 85.45 -70.15 L85.1 -70.0 Q90.75 -53.75 86.95 -37.9 66.7 -71.5 41.6 -55.05 L32.8 -64.65 30.65 -64.8 Q25.4 -85.1 5.45 -90.6 18.65 -76.45 16.0 -59.25 L-9.1 -62.7 -10.9 -61.05 Q-22.9 -25.5 -50.55 -50.9 -66.5 -65.5 -56.75 -85.55 -38.25 -111.1 -10.95 -99.65 L-11.2 -99.25 -5.0 -100.25 -7.25 -101.95 Q59.45 -129.9 97.05 -69.45 98.9 -66.45 100.25 -62.95 M-57.5 -29.85 L-55.2 -25.4 Q-72.9 -11.75 -66.85 8.85 L-66.05 10.9 -63.25 18.5 Q-46.2 43.75 -66.3 51.6 L-67.1 51.35 -75.15 41.0 -81.8 46.65 Q-87.95 19.6 -75.2 2.15 L-73.45 5.4 Q-68.3 4.7 -71.75 -3.8 -80.1 -24.3 -63.3 -38.55 L-57.5 -29.85 M86.55 -20.8 Q94.15 -20.8 99.5 -23.55 104.85 -26.3 104.85 -30.2 L105.7 -27.45 108.2 -26.75 117.0 -14.65 112.3 -3.85 Q96.05 -0.75 88.45 -16.9 L86.55 -20.8 M-40.05 12.3 Q-9.8 24.15 8.1 51.85 -16.4 43.85 -21.3 26.3 L-23.05 40.0 -42.6 22.05 -40.05 12.3 M21.5 62.9 L22.7 62.6 22.9 63.75 21.5 62.9 M32.25 61.3 Q39.55 61.1 46.0 63.9 L33.5 66.85 32.25 61.3 M56.05 52.55 L58.25 44.35 Q57.8 48.7 56.05 52.55 M62.4 32.55 L71.9 15.1 Q77.65 30.95 75.05 46.65 L62.4 32.55 M70.5 10.85 L62.75 -4.45 Q67.65 2.8 70.5 10.85 M61.4 -7.95 L57.6 -31.85 Q75.75 -17.7 82.2 4.35 L61.4 -7.95 M-122.7 52.55 Q-115.2 49.3 -114.85 55.05 L-114.1 60.0 -112.3 57.2 -108.6 58.55 -104.9 64.2 Q-111.15 71.85 -116.3 64.7 L-116.65 64.15 -119.45 63.25 -122.7 52.55" fill="#cccccc" fill-rule="evenodd" stroke="none"/>
    <path d="M29.8 -114.65 Q51.95 -113.25 70.5 -101.65 109.4 -77.1 107.85 -29.6 123.0 -18.7 123.7 -0.1 124.6 25.25 103.95 39.65 110.05 60.45 99.7 78.75 83.85 106.65 54.2 97.55 45.2 107.4 32.15 109.85 -2.8 116.75 -34.35 101.8 -59.8 89.9 -75.65 64.7 -97.05 30.85 -75.75 -0.85 L-76.35 -4.6 Q-79.75 -28.1 -64.7 -43.55 -71.2 -62.0 -62.5 -79.4 -44.2 -115.95 -8.35 -102.55 L-6.05 -104.5 Q9.7 -115.85 29.8 -114.65 M-56.75 -85.55 L-58.55 -82.0 Q-71.5 -52.0 -57.5 -29.85 L-63.3 -38.55 Q-80.1 -24.3 -71.75 -3.8 -68.3 4.7 -73.45 5.4 L-75.2 2.15 Q-87.95 19.6 -81.8 46.65 -69.1 83.55 -31.15 93.05 L-34.55 80.1 Q-29.45 94.0 -16.2 100.5 21.95 119.5 56.25 95.8 70.1 100.7 81.35 91.65 123.95 57.6 83.3 13.2 L92.35 18.6 Q92.85 12.3 91.75 6.05 85.0 -32.05 49.75 -43.0 L52.7 -43.35 Q75.65 -41.65 86.55 -20.8 L88.45 -16.9 Q95.9 0.75 93.85 20.05 L103.25 36.75 105.45 34.8 Q129.45 13.75 117.0 -14.65 L108.2 -26.75 105.7 -27.45 104.85 -30.2 100.25 -62.95 Q98.9 -66.45 97.05 -69.45 59.45 -129.9 -7.25 -101.95 L-5.0 -100.25 -11.2 -99.25 -10.95 -99.65 Q-38.25 -111.1 -56.75 -85.55 M-66.05 10.9 Q-59.05 24.45 -45.2 30.8 L-42.75 31.95 Q-42.65 61.5 -13.8 66.35 L-10.7 66.6 Q-41.6 69.55 -44.35 35.3 L-63.25 18.5 -66.05 10.9 M-40.05 12.3 L-27.85 -37.95 -25.6 -31.6 Q3.25 -31.25 16.25 -55.6 L16.45 -55.2 Q19.75 -47.25 27.9 -46.1 30.4 -45.65 32.65 -46.9 L57.6 -31.85 61.4 -7.95 62.75 -4.45 70.5 10.85 72.9 12.8 71.9 15.1 62.4 32.55 Q60.05 38.35 58.25 44.35 L56.05 52.55 54.75 67.95 46.0 63.9 Q39.55 61.1 32.25 61.3 L22.7 62.6 21.5 62.9 15.25 67.15 8.1 51.85 Q-9.8 24.15 -40.05 12.3 M52.15 58.55 Q55.45 34.0 69.45 13.8 54.1 -6.2 54.4 -31.15 L34.05 -41.85 Q23.1 -42.15 15.95 -50.6 -0.4 -28.8 -25.45 -27.95 L-36.95 11.1 Q3.4 24.45 15.05 63.4 16.05 62.8 17.15 62.3 32.65 55.05 48.6 62.05 50.4 62.9 52.15 64.0 51.95 61.3 52.15 58.55 M-123.15 72.8 L-127.9 71.5 -128.45 66.6 -132.7 56.5 Q-125.9 47.95 -115.05 49.55 L-112.8 51.8 -112.3 57.2 -114.1 60.0 -114.85 55.05 Q-115.2 49.3 -122.7 52.55 L-126.0 54.05 -127.55 56.5 -129.8 56.45 -126.75 69.95 -123.15 72.8 M-105.4 69.0 Q-104.8 73.85 -112.1 74.1 L-105.4 69.0" fill="#333333" fill-rule="evenodd" stroke="none"/>
    <path d="M-56.75 -85.55 Q-66.5 -65.5 -50.55 -50.9 -22.9 -25.5 -10.9 -61.05 L-9.1 -62.7 16.0 -59.25 Q18.65 -76.45 5.45 -90.6 25.4 -85.1 30.65 -64.8 L32.8 -64.65 41.6 -55.05 Q66.7 -71.5 86.95 -37.9 90.75 -53.75 85.1 -70.0 L85.45 -70.15 Q94.65 -70.4 100.25 -62.95 L104.85 -30.2 Q104.85 -26.3 99.5 -23.55 94.15 -20.8 86.55 -20.8 75.65 -41.65 52.7 -43.35 L49.75 -43.0 Q85.0 -32.05 91.75 6.05 92.85 12.3 92.35 18.6 L83.3 13.2 Q123.95 57.6 81.35 91.65 70.1 100.7 56.25 95.8 21.95 119.5 -16.2 100.5 -29.45 94.0 -34.55 80.1 L-31.15 93.05 Q-69.1 83.55 -81.8 46.65 L-75.15 41.0 -67.1 51.35 -66.3 51.6 Q-46.2 43.75 -63.25 18.5 L-44.35 35.3 Q-41.6 69.55 -10.7 66.6 L-13.8 66.35 Q-42.65 61.5 -42.75 31.95 L-45.2 30.8 Q-59.05 24.45 -66.05 10.9 L-66.85 8.85 Q-72.9 -11.75 -55.2 -25.4 L-57.5 -29.85 Q-71.5 -52.0 -58.55 -82.0 L-56.75 -85.55 M57.6 -31.85 L32.65 -46.9 Q30.4 -45.65 27.9 -46.1 19.75 -47.25 16.45 -55.2 L16.25 -55.6 Q3.25 -31.25 -25.6 -31.6 L-27.85 -37.95 -40.05 12.3 -42.6 22.05 -23.05 40.0 -21.3 26.3 Q-16.4 43.85 8.1 51.85 L15.25 67.15 21.5 62.9 22.9 63.75 22.7 62.6 32.25 61.3 33.5 66.85 46.0 63.9 54.75 67.95 56.05 52.55 Q57.8 48.7 58.25 44.35 60.05 38.35 62.4 32.55 L75.05 46.65 Q77.65 30.95 71.9 15.1 L72.9 12.8 70.5 10.85 Q67.65 2.8 62.75 -4.45 L61.4 -7.95 82.2 4.35 Q75.75 -17.7 57.6 -31.85 M52.15 58.55 Q51.95 61.3 52.15 64.0 50.4 62.9 48.6 62.05 50.5 60.5 52.15 58.55 M88.45 -16.9 Q96.05 -0.75 112.3 -3.85 L117.0 -14.65 Q129.45 13.75 105.45 34.8 L103.25 36.75 93.85 20.05 Q95.9 0.75 88.45 -16.9 M-123.15 72.8 L-126.75 69.95 -129.8 56.45 -127.55 56.5 -126.0 54.05 -122.7 52.55 -119.45 63.25 -116.65 64.15 -116.3 64.7 Q-111.15 71.85 -104.9 64.2 L-105.4 69.0 -112.1 74.1 Q-118.15 75.8 -123.15 72.8" fill="#666666" fill-rule="evenodd" stroke="none"/>
  </g>
</svg>
