<?xml version="1.0" encoding="UTF-8" standalone="no"?>
<svg xmlns:xlink="http://www.w3.org/1999/xlink" height="216.2px" width="247.7px" xmlns="http://www.w3.org/2000/svg">
  <g transform="matrix(1.0, 0.0, 0.0, 1.0, 101.8, 135.45)">
    <path d="M27.45 -125.25 L14.45 -126.25 17.05 -128.4 Q23.1 -127.4 27.45 -125.25 M-8.45 -124.7 L-9.9 -120.8 4.9 -121.7 -3.95 -119.85 Q-7.9 -113.65 -8.95 -106.5 -13.15 -78.4 20.25 -85.8 L21.9 -88.95 13.0 -100.2 13.6 -99.5 Q19.9 -90.8 31.3 -91.5 L24.9 -88.45 24.0 -85.05 Q-11.7 -73.45 -13.1 -107.45 -13.6 -119.3 -8.45 -124.7 M78.55 -80.05 Q62.6 -75.9 59.7 -60.2 L59.5 -58.35 65.35 -58.35 Q37.5 -14.9 80.85 21.5 58.95 12.85 50.65 -15.75 44.6 -36.6 57.25 -55.05 64.1 -95.75 104.6 -76.1 117.95 -69.65 122.9 -55.4 150.15 -45.8 145.1 -17.3 L143.45 -15.65 Q151.85 21.05 111.35 24.85 124.65 21.55 140.55 11.4 145.8 -3.45 140.7 -13.75 L132.1 -12.3 129.3 -16.25 133.5 -15.1 140.4 -17.25 137.25 -21.85 141.9 -18.65 142.3 -19.4 Q146.3 -43.15 123.6 -52.1 L123.4 -51.4 121.75 -47.35 118.4 -52.9 Q106.1 -49.85 97.45 -39.45 L106.4 -53.9 119.45 -55.95 Q107.2 -81.95 78.55 -80.05 M-63.65 -52.75 Q-73.1 -50.95 -79.05 -44.0 -127.25 12.3 -64.05 49.7 L-59.95 28.45 -59.6 49.6 -53.15 48.75 -58.75 51.5 Q-50.9 65.7 -35.95 71.3 -0.4 84.8 19.2 53.85 39.3 22.2 11.95 -4.15 L-1.45 -12.2 Q-11.85 -15.45 -21.6 -10.3 L-22.05 -10.2 -13.6 -16.65 Q-10.0 -28.15 -19.35 -38.75 -42.75 -41.95 -51.4 -18.8 L-60.55 -23.9 Q-88.45 -16.8 -78.6 8.9 L-78.45 9.25 -81.1 8.85 -82.85 -7.8 Q-74.95 -31.0 -52.75 -23.35 L-51.95 -25.4 Q-46.0 -39.35 -31.0 -42.7 -8.15 -41.9 -9.55 -19.25 L-9.85 -16.5 1.3 -17.05 Q5.85 -41.8 -16.25 -53.5 L-40.65 -54.65 -44.2 -51.2 -37.2 -43.25 -40.95 -42.2 -41.5 -43.6 Q-48.25 -57.0 -63.65 -52.75 M30.5 40.0 Q25.4 78.45 -12.9 80.7 -46.9 81.85 -61.7 51.15 -96.5 44.0 -101.25 6.3 -105.05 -24.15 -83.1 -44.5 -67.45 -59.05 -46.25 -52.45 L-41.15 -58.0 Q-17.8 -60.8 -3.05 -44.05 9.2 -30.2 2.45 -13.6 35.4 3.25 30.5 40.0" fill="#000000" fill-rule="evenodd" stroke="none"/>
    <path d="M27.45 -125.25 L28.7 -125.15 28.9 -124.45 Q38.1 -91.05 12.45 -108.05 12.0 -108.35 11.8 -108.9 -5.9 -94.3 -4.9 -116.75 -4.85 -118.35 -3.95 -119.85 L4.9 -121.7 -9.9 -120.8 -8.45 -124.7 Q-0.65 -143.3 18.65 -129.75 L17.05 -128.4 14.45 -126.25 27.45 -125.25 M123.4 -51.4 Q131.8 -42.7 123.75 -34.25 L122.55 -33.2 Q128.1 -22.7 125.2 -10.15 L110.7 -11.3 109.35 -16.4 Q99.75 -15.3 97.2 -5.8 82.3 -19.3 86.35 -46.2 69.95 -29.35 76.7 -6.85 55.5 -42.4 87.3 -68.95 L70.95 -70.15 78.55 -80.05 Q107.2 -81.95 119.45 -55.95 L106.4 -53.9 97.45 -39.45 Q106.1 -49.85 118.4 -52.9 L121.75 -47.35 123.4 -51.4 M-63.65 -52.75 Q-48.25 -57.0 -41.5 -43.6 L-40.95 -42.2 -37.2 -43.25 -44.2 -51.2 -40.65 -54.65 -16.25 -53.5 Q-7.05 -44.8 -8.4 -32.3 L-9.2 -33.75 Q-17.05 -46.0 -31.0 -42.7 -46.0 -39.35 -51.95 -25.4 L-52.75 -23.35 Q-74.95 -31.0 -82.85 -7.8 -82.85 -26.65 -76.05 -40.0 -70.75 -50.5 -63.65 -52.75 M-60.55 -23.9 L-51.4 -18.8 Q-42.75 -41.95 -19.35 -38.75 -10.0 -28.15 -13.6 -16.65 L-22.05 -10.2 -21.6 -10.3 Q-11.85 -15.45 -1.45 -12.2 L11.95 -4.15 Q5.2 4.7 -4.35 -1.45 L-5.9 -2.35 Q8.8 7.8 9.95 33.45 -1.35 37.65 -10.6 29.7 -20.4 30.35 -21.55 42.55 -51.95 36.35 -46.05 2.75 L-60.1 19.15 Q-82.35 -1.0 -60.55 -23.9" fill="#cccccc" fill-rule="evenodd" stroke="none"/>
    <path d="M-3.95 -119.85 Q-4.85 -118.35 -4.9 -116.75 -5.9 -94.3 11.8 -108.9 12.0 -108.35 12.45 -108.05 38.1 -91.05 28.9 -124.45 L28.7 -125.15 Q48.05 -113.1 36.05 -94.75 L34.0 -91.9 31.3 -91.5 Q19.9 -90.8 13.6 -99.5 L13.0 -100.2 21.9 -88.95 20.25 -85.8 Q-13.15 -78.4 -8.95 -106.5 -7.9 -113.65 -3.95 -119.85 M78.55 -80.05 L70.95 -70.15 87.3 -68.95 Q55.5 -42.4 76.7 -6.85 69.95 -29.35 86.35 -46.2 82.3 -19.3 97.2 -5.8 99.75 -15.3 109.35 -16.4 L110.7 -11.3 125.2 -10.15 Q128.1 -22.7 122.55 -33.2 L123.75 -34.25 Q131.8 -42.7 123.4 -51.4 L123.6 -52.1 Q146.3 -43.15 142.3 -19.4 L141.9 -18.65 137.25 -21.85 140.4 -17.25 133.5 -15.1 129.3 -16.25 132.1 -12.3 140.7 -13.75 Q145.8 -3.45 140.55 11.4 124.65 21.55 111.35 24.85 L80.85 21.5 Q37.5 -14.9 65.35 -58.35 L59.5 -58.35 59.7 -60.2 Q62.6 -75.9 78.55 -80.05 M11.95 -4.15 Q39.3 22.2 19.2 53.85 -0.4 84.8 -35.95 71.3 -50.9 65.7 -58.75 51.5 L-53.15 48.75 -59.6 49.6 -59.95 28.45 -64.05 49.7 Q-127.25 12.3 -79.05 -44.0 -73.1 -50.95 -63.65 -52.75 -70.75 -50.5 -76.05 -40.0 -82.85 -26.65 -82.85 -7.8 L-81.1 8.85 -78.45 9.25 -78.6 8.9 Q-88.45 -16.8 -60.55 -23.9 -82.35 -1.0 -60.1 19.15 L-46.05 2.75 Q-51.95 36.35 -21.55 42.55 -20.4 30.35 -10.6 29.7 -1.35 37.65 9.95 33.45 8.8 7.8 -5.9 -2.35 L-4.35 -1.45 Q5.2 4.7 11.95 -4.15 M-16.25 -53.5 Q5.85 -41.8 1.3 -17.05 L-9.85 -16.5 -9.55 -19.25 Q-8.15 -41.9 -31.0 -42.7 -17.05 -46.0 -9.2 -33.75 L-8.4 -32.3 Q-7.05 -44.8 -16.25 -53.5" fill="#666666" fill-rule="evenodd" stroke="none"/>
  </g>
</svg>
