<?xml version="1.0" encoding="UTF-8" standalone="no"?>
<svg xmlns:xlink="http://www.w3.org/1999/xlink" height="105.3px" width="97.35px" xmlns="http://www.w3.org/2000/svg">
  <g transform="matrix(1.0, 0.0, 0.0, 1.0, 48.05, 54.6)">
    <path d="M-18.05 -53.55 Q10.6 -55.45 22.85 -29.45 L9.8 -27.4 2.1 -13.95 Q10.1 -23.8 21.8 -26.4 L25.15 -20.9 26.8 -24.9 Q36.05 -15.0 26.0 -6.7 L25.55 -6.4 Q31.9 3.5 28.6 16.35 L14.15 15.15 12.75 10.1 Q2.95 10.95 0.6 20.7 L0.25 22.25 Q-14.05 7.3 -10.25 -19.7 -26.85 -2.9 -19.9 19.65 -41.95 -16.1 -9.3 -42.45 L-25.65 -43.65 -18.05 -53.55" fill="#cccccc" fill-rule="evenodd" stroke="none"/>
    <path d="M26.8 -24.9 L25.15 -20.9 21.8 -26.4 Q10.1 -23.8 2.1 -13.95 L9.8 -27.4 22.85 -29.45 Q10.6 -55.45 -18.05 -53.55 L-19.05 -53.35 Q10.35 -60.35 26.3 -28.9 53.5 -19.3 48.5 9.2 L46.85 10.85 46.1 18.65 Q45.45 15.5 44.1 12.75 L35.5 14.2 32.7 10.25 36.9 11.4 43.8 9.25 40.65 4.65 45.3 7.85 45.7 7.1 Q49.7 -16.65 27.0 -25.6 L26.8 -24.9 M0.7 48.4 Q18.35 47.65 43.8 37.95 34.4 56.15 0.7 48.4 M-37.15 -33.6 Q-36.35 -27.05 -31.4 -31.4 L-31.5 -31.25 Q-47.95 0.35 -33.0 33.95 -59.65 5.7 -39.1 -30.15 L-37.15 -33.6" fill="#000000" fill-rule="evenodd" stroke="none"/>
    <path d="M26.8 -24.9 L27.0 -25.6 Q49.7 -16.65 45.7 7.1 L45.3 7.85 40.65 4.65 43.8 9.25 36.9 11.4 32.7 10.25 35.5 14.2 44.1 12.75 Q45.45 15.5 46.1 18.65 47.7 26.7 44.3 37.0 L43.8 37.95 Q18.35 47.65 0.7 48.4 L-33.0 33.95 Q-47.95 0.35 -31.5 -31.25 L-31.4 -31.4 Q-36.35 -27.05 -37.15 -33.6 L-36.6 -35.85 Q-32.7 -49.65 -19.05 -53.35 L-18.05 -53.55 -25.65 -43.65 -9.3 -42.45 Q-41.95 -16.1 -19.9 19.65 -26.85 -2.9 -10.25 -19.7 -14.05 7.3 0.25 22.25 L0.6 20.7 Q2.95 10.95 12.75 10.1 L14.15 15.15 28.6 16.35 Q31.9 3.5 25.55 -6.4 L26.0 -6.7 Q36.05 -15.0 26.8 -24.9" fill="#666666" fill-rule="evenodd" stroke="none"/>
  </g>
</svg>
