<?xml version="1.0" encoding="UTF-8" standalone="no"?>
<svg xmlns:xlink="http://www.w3.org/1999/xlink" height="96.2px" width="100.85px" xmlns="http://www.w3.org/2000/svg">
  <g transform="matrix(1.0, 0.0, 0.0, 1.0, 50.3, 47.35)">
    <path d="M41.35 -22.1 Q41.2 -22.2 41.4 -22.3 L41.45 -22.3 41.35 -22.1 M21.7 -16.3 L21.55 -16.05 21.55 -16.3 21.7 -16.3 M17.3 36.75 L17.15 36.65 17.35 36.6 17.3 36.75" fill="#000000" fill-rule="evenodd" stroke="none"/>
    <path d="M21.2 -38.25 L19.2 -42.25 Q35.7 -40.85 42.2 -27.8 L43.05 -25.95 44.85 -20.35 41.45 -22.3 41.4 -22.3 Q41.2 -22.2 41.35 -22.1 L44.8 -19.25 43.4 -16.65 30.45 -13.65 43.7 -11.3 49.85 -2.05 43.55 9.9 44.2 13.15 Q33.65 21.9 19.1 14.5 18.25 14.1 17.2 14.15 17.2 10.75 19.0 8.4 20.7 6.05 23.25 6.0 L30.95 0.65 18.05 -2.0 15.9 -6.9 21.55 -16.05 21.75 -16.25 34.15 -22.2 Q29.0 -24.4 23.8 -26.65 L21.2 -38.2 21.2 -38.25 M7.0 -47.35 Q14.85 -46.0 20.65 -37.9 9.0 -23.8 -3.25 -39.4 L-4.75 -40.75 -8.7 -44.4 Q-5.75 -45.8 -3.0 -46.6 L7.0 -47.35 M-28.75 -14.35 L-26.45 -12.0 Q-26.45 -6.95 -33.05 -3.4 -39.7 0.15 -49.1 0.15 L-48.8 -1.45 -48.4 -3.05 -48.3 -3.0 -45.0 -9.65 -44.95 -9.7 -40.15 -13.95 -50.3 -11.4 -50.05 -12.5 Q-46.35 -26.6 -45.55 -18.75 L-43.15 -28.05 Q-42.45 -29.95 -41.3 -31.15 -39.55 -33.05 -36.8 -33.15 L-34.05 -36.0 Q-28.5 -36.95 -33.3 -36.75 -32.25 -38.6 -30.85 -39.95 -26.9 -42.35 -22.55 -43.9 -18.8 -44.55 -14.0 -44.0 L-5.15 -40.45 -5.1 -40.4 -3.45 -31.15 Q-4.45 -28.6 -7.1 -27.7 -11.45 -26.15 -15.2 -28.95 -16.85 -29.0 -17.7 -27.55 -25.5 -13.5 -35.65 -24.7 L-28.85 -14.4 -28.75 -14.35 M-28.4 0.65 Q-21.0 1.3 -17.8 8.6 L-20.9 11.6 Q-31.95 21.95 -42.8 11.95 L-43.45 11.25 Q-41.9 1.7 -32.1 0.75 L-28.4 0.65 M-23.45 14.8 Q-10.65 -0.1 4.3 14.5 L5.55 16.0 Q-2.4 42.0 -26.75 23.75 L-23.55 14.9 -23.45 14.8 M7.75 19.3 L6.25 14.0 20.95 16.95 23.65 20.3 9.2 21.1 7.75 19.3" fill="#cccccc" fill-rule="evenodd" stroke="none"/>
    <path d="M20.65 -37.9 L21.15 -38.2 21.2 -38.2 23.8 -26.65 Q29.0 -24.4 34.15 -22.2 L21.75 -16.25 21.7 -16.3 21.55 -16.3 19.4 -14.7 14.15 -19.4 14.15 -19.55 22.2 -23.45 22.15 -23.5 Q9.75 -16.7 1.1 -24.05 L1.1 -24.2 Q-7.0 -11.95 -28.8 -14.55 L-28.85 -14.4 -35.65 -24.7 Q-25.5 -13.5 -17.7 -27.55 -16.85 -29.0 -15.2 -28.95 -11.45 -26.15 -7.1 -27.7 -4.45 -28.6 -3.45 -31.15 L-5.1 -40.4 -5.0 -40.45 -4.75 -40.75 -3.25 -39.4 Q9.0 -23.8 20.65 -37.9 M15.9 -6.9 L18.05 -2.0 30.95 0.65 23.25 6.0 Q20.2 5.95 18.1 2.25 15.9 -1.55 15.9 -6.9 M17.2 14.15 Q18.25 14.1 19.1 14.5 33.65 21.9 44.2 13.15 L42.65 17.4 Q45.5 38.55 18.1 43.8 L18.1 43.85 Q17.15 43.55 16.55 43.0 14.55 41.1 17.3 36.75 L17.35 36.6 17.15 36.65 Q-0.25 56.45 -20.05 39.7 L-20.05 40.4 -20.1 40.55 -21.25 40.7 -26.5 40.75 -28.05 40.3 Q-41.65 34.3 -46.1 19.95 L-47.1 15.9 -45.2 9.3 -48.25 3.7 -49.1 0.15 Q-39.7 0.15 -33.05 -3.4 -26.45 -6.95 -26.45 -12.0 L-22.9 -11.1 -23.05 0.3 -28.4 0.65 -32.1 0.75 Q-41.9 1.7 -43.45 11.25 L-42.8 11.95 Q-31.95 21.95 -20.9 11.6 L-23.45 14.8 -23.55 14.9 -26.75 23.75 Q-2.4 42.0 5.55 16.0 L7.75 19.3 9.2 21.1 23.65 20.3 20.95 16.95 17.2 14.15 M43.55 9.9 L49.85 -2.05 Q50.5 15.35 43.75 9.9 L43.55 9.9 M43.7 -11.3 L30.45 -13.65 43.4 -16.65 44.8 -19.25 47.5 -8.85 43.7 -11.3 M-50.15 -10.8 L-50.3 -11.4 -40.15 -13.95 -44.95 -9.7 -45.1 -9.8 -48.8 -5.1 -50.15 -10.8" fill="#666666" fill-rule="evenodd" stroke="none"/>
    <path d="M21.2 -38.25 L21.15 -38.2 20.65 -37.9 Q14.85 -46.0 7.0 -47.35 21.6 -47.35 31.9 -41.6 42.2 -35.9 42.2 -27.8 35.7 -40.85 19.2 -42.25 L21.2 -38.25 M21.55 -16.05 L15.9 -6.9 Q15.9 -1.55 18.1 2.25 20.2 5.95 23.25 6.0 20.7 6.05 19.0 8.4 17.2 10.75 17.2 14.15 L20.95 16.95 6.25 14.0 7.75 19.3 5.55 16.0 4.3 14.5 Q-10.65 -0.1 -23.45 14.8 L-20.9 11.6 -17.8 8.6 Q-21.0 1.3 -28.4 0.65 L-23.05 0.3 -22.9 -11.1 -26.45 -12.0 -28.75 -14.35 -28.8 -14.55 Q-7.0 -11.95 1.1 -24.2 L1.1 -24.05 Q9.75 -16.7 22.15 -23.5 L22.1 -23.45 22.2 -23.45 14.15 -19.55 14.0 -19.55 14.15 -19.4 19.4 -14.7 21.55 -16.3 21.55 -16.05 M44.2 13.15 L43.55 9.9 43.75 9.9 Q50.5 15.35 49.85 -2.05 L43.7 -11.3 47.5 -8.85 44.8 -19.25 41.35 -22.1 41.45 -22.3 44.85 -20.35 43.05 -25.95 Q53.05 -10.65 49.7 7.95 48.9 12.3 45.65 15.45 45.45 34.6 27.6 42.7 20.9 45.75 14.0 42.95 -4.35 55.75 -21.25 40.7 L-20.1 40.55 -19.95 40.6 -20.05 40.4 -20.05 39.7 Q-0.25 56.45 17.15 36.65 L17.3 36.75 Q14.55 41.1 16.55 43.0 17.15 43.55 18.1 43.85 L18.15 43.85 18.1 43.8 Q45.5 38.55 42.65 17.4 L44.2 13.15 M18.9 -14.1 L13.75 -18.95 0.9 -21.95 Q-6.8 -12.55 -21.9 -11.0 L-22.4 1.75 -16.95 8.45 Q-3.45 1.5 6.0 13.4 L14.6 11.9 19.65 7.15 Q10.35 -3.5 18.9 -14.1 M-26.5 40.75 Q-35.5 40.75 -41.85 29.9 -44.55 25.35 -46.1 19.95 -41.65 34.3 -28.05 40.3 L-26.5 40.75 M-47.1 15.9 Q-48.25 10.2 -48.25 3.7 L-45.2 9.3 -47.1 15.9 M-48.8 -1.45 L-49.6 -3.95 Q-50.3 -7.45 -50.15 -10.8 L-48.8 -5.1 -45.1 -9.8 -45.0 -9.65 -48.3 -3.0 -48.4 -3.15 -48.4 -3.05 -48.8 -1.45 M-50.05 -12.5 Q-49.2 -20.65 -43.15 -28.05 L-45.55 -18.75 Q-46.35 -26.6 -50.05 -12.5 M-41.3 -31.15 L-40.1 -32.65 Q-35.75 -36.95 -30.85 -39.95 -32.25 -38.6 -33.3 -36.75 -28.5 -36.95 -34.05 -36.0 L-36.8 -33.15 Q-39.55 -33.05 -41.3 -31.15 M-22.55 -43.9 Q-13.6 -47.1 -3.0 -46.6 -5.75 -45.8 -8.7 -44.4 L-4.75 -40.75 -5.0 -40.45 -5.15 -40.45 -14.0 -44.0 Q-18.8 -44.55 -22.55 -43.9" fill="#333333" fill-rule="evenodd" stroke="none"/>
  </g>
</svg>
