<?xml version="1.0" encoding="UTF-8" standalone="no"?>
<svg xmlns:xlink="http://www.w3.org/1999/xlink" height="169.05px" width="184.95px" xmlns="http://www.w3.org/2000/svg">
  <g transform="matrix(1.0, 0.0, 0.0, 1.0, 92.85, 83.2)">
    <path d="M1.7 -76.3 L1.4 -76.0 1.45 -76.2 1.7 -76.3 M-74.2 48.1 L-73.85 48.1 -73.85 48.65 -74.2 48.1" fill="#000000" fill-rule="evenodd" stroke="none"/>
    <path d="M34.6 73.5 Q30.75 71.8 33.85 66.9 L36.75 62.65 58.25 59.9 Q52.8 59.9 59.85 56.0 59.55 50.95 63.55 47.55 66.05 45.4 68.9 43.95 72.35 42.3 75.35 40.25 L78.7 26.15 76.3 23.5 82.05 8.7 80.7 0.25 78.55 4.45 78.75 -10.45 76.5 -6.95 Q73.5 -10.45 73.25 -15.05 L73.15 -17.05 Q73.05 -20.65 75.3 -23.35 L70.05 -27.5 66.6 -48.65 55.15 -61.9 57.9 -66.25 70.1 -51.4 Q70.1 -44.75 72.7 -40.0 75.25 -35.3 78.9 -35.3 L88.8 5.85 Q90.45 12.75 88.55 19.65 L85.8 21.2 81.95 29.5 81.9 29.8 81.2 35.15 81.15 35.4 Q81.15 46.35 75.7 54.1 70.25 61.8 62.55 61.8 L34.7 73.85 34.6 73.5 M15.95 -82.25 Q20.35 -80.7 24.3 -78.05 33.55 -81.85 45.35 -73.45 L38.35 -70.9 40.0 -71.25 Q50.4 -73.6 57.9 -66.25 L50.15 -63.45 37.65 -68.8 36.5 -69.0 34.8 -69.25 34.55 -69.3 22.2 -72.5 18.0 -75.1 20.5 -76.95 8.1 -74.2 1.7 -76.3 1.45 -76.2 1.4 -76.0 -17.2 -75.65 -23.35 -77.3 -26.25 -73.75 -39.75 -71.55 -40.35 -71.2 -45.35 -70.7 -43.4 -69.9 -59.6 -58.15 -63.15 -57.1 -63.25 -52.7 -67.55 -52.15 -70.05 -48.9 -70.35 -49.05 -73.4 -48.25 -74.5 -42.65 -74.9 -41.9 -81.35 -28.8 -83.8 -28.4 Q-83.05 -35.15 -84.0 -42.0 L-84.25 -43.45 -83.35 -44.4 -73.95 -55.0 -69.65 -54.9 -64.95 -61.55 -59.35 -69.5 -25.35 -79.8 -13.1 -80.15 -15.5 -81.55 -13.05 -82.4 -12.7 -82.5 -0.8 -83.2 15.95 -82.25 M-83.4 31.2 Q-95.75 2.8 -84.0 -27.1 L-82.0 -21.9 -84.65 -19.25 -82.8 -9.35 Q-78.95 -6.95 -77.5 -2.65 -75.55 3.25 -80.15 7.6 L-78.95 12.0 -83.25 21.95 -80.25 31.0 -73.9 34.0 -72.2 41.75 -65.1 46.35 -69.7 49.0 Q-65.25 49.15 -61.75 51.75 -57.35 54.85 -57.8 60.4 L-54.95 62.45 -49.8 61.85 -42.4 70.3 -26.15 68.4 -27.55 73.5 -23.5 70.65 Q-8.45 61.85 0.9 76.35 L6.7 74.35 Q7.1 73.05 7.9 72.8 16.7 69.95 24.0 75.9 L26.7 75.35 26.75 75.45 Q6.35 84.0 -15.5 79.85 -30.75 77.1 -45.45 71.85 L-52.2 69.35 -55.95 67.8 Q-56.75 67.45 -57.55 67.25 -66.95 59.1 -73.85 48.65 L-73.85 48.1 -74.2 48.1 -82.15 33.15 -83.4 31.2 M27.25 75.1 L30.15 73.25 33.35 74.0 33.4 74.2 27.3 75.35 27.25 75.1" fill="#cccccc" fill-rule="evenodd" stroke="none"/>
    <path d="M34.7 73.85 L62.55 61.8 60.7 66.7 60.3 67.05 45.75 75.7 45.6 74.6 45.25 74.6 Q40.7 77.45 35.7 78.2 11.35 82.5 -13.0 85.7 L-28.5 79.4 -32.8 79.5 -38.75 77.5 Q-42.6 75.45 -45.45 71.85 -30.75 77.1 -15.5 79.85 6.35 84.0 26.75 75.45 L27.3 75.35 33.4 74.2 34.7 73.85 M81.95 29.5 L85.8 21.2 88.55 19.65 82.1 29.6 81.95 29.5 M50.15 -63.45 L44.05 -63.55 40.65 -65.05 Q38.85 -66.35 37.6 -68.5 L37.65 -68.8 50.15 -63.45 M-74.45 -41.9 Q-74.45 -36.45 -76.45 -32.6 -78.5 -28.8 -81.35 -28.8 L-74.9 -41.9 -74.45 -41.9 M-81.25 41.05 Q-82.45 37.65 -82.45 33.35 L-82.15 33.15 -74.2 48.1 Q-76.95 48.1 -79.05 45.3 L-81.25 41.05 M1.4 -76.0 Q1.05 -75.15 0.45 -74.65 -8.05 -67.6 -17.2 -75.65 L1.4 -76.0 M-26.25 -73.75 L-34.45 -69.8 -39.7 -71.4 -39.75 -71.55 -26.25 -73.75 M-43.4 -69.9 L-42.25 -67.55 -59.6 -58.15 -43.4 -69.9 M34.5 -69.25 L24.75 -69.95 22.2 -72.5 34.55 -69.3 34.5 -69.25 M-63.0 66.5 L-72.25 56.65 Q-73.75 53.0 -73.85 48.65 -66.95 59.1 -57.55 67.25 L-57.65 67.5 Q-60.5 67.5 -63.0 66.5 M-55.95 67.8 L-52.2 69.35 -56.05 68.1 -55.95 67.8" fill="#666666" fill-rule="evenodd" stroke="none"/>
    <path d="M70.1 -51.4 L57.9 -66.25 55.15 -61.9 66.6 -48.65 70.05 -27.5 75.3 -23.35 Q73.05 -20.65 73.15 -17.05 L73.25 -15.05 Q73.5 -10.45 76.5 -6.95 L78.75 -10.45 78.55 4.45 80.7 0.25 82.05 8.7 76.3 23.5 78.7 26.15 75.35 40.25 Q72.35 42.3 68.9 43.95 66.05 45.4 63.55 47.55 59.55 50.95 59.85 56.0 52.8 59.9 58.25 59.9 L36.75 62.65 33.85 66.9 Q30.75 71.8 34.6 73.5 L33.35 74.0 30.15 73.25 27.25 75.1 26.7 75.35 24.0 75.9 Q16.7 69.95 7.9 72.8 7.1 73.05 6.7 74.35 L0.9 76.35 Q-8.45 61.85 -23.5 70.65 L-27.55 73.5 -26.15 68.4 -42.4 70.3 -49.8 61.85 -54.95 62.45 -57.8 60.4 Q-57.35 54.85 -61.75 51.75 -65.25 49.15 -69.7 49.0 L-65.1 46.35 -72.2 41.75 -73.9 34.0 -80.25 31.0 -83.25 21.95 -78.95 12.0 -80.15 7.6 Q-75.55 3.25 -77.5 -2.65 -78.95 -6.95 -82.8 -9.35 L-84.65 -19.25 -82.0 -21.9 -84.0 -27.1 Q-95.75 2.8 -83.4 31.2 L-82.45 33.35 Q-82.45 37.65 -81.25 41.05 -102.65 4.0 -84.6 -34.75 L-84.7 -37.05 Q-84.55 -39.65 -84.0 -42.0 -83.05 -35.15 -83.8 -28.4 L-81.35 -28.8 Q-78.5 -28.8 -76.45 -32.6 -74.45 -36.45 -74.45 -41.9 L-74.5 -42.65 -73.4 -48.25 -70.35 -49.05 Q-68.6 -36.85 -77.55 -28.8 L-78.9 -27.75 -80.4 -21.4 -82.65 -19.4 -83.05 -15.05 -81.6 -13.45 -81.35 -10.25 Q-68.55 2.35 -80.9 20.95 L-78.95 24.2 -78.95 29.15 -71.95 33.75 -71.95 39.35 -64.35 44.55 -64.05 47.85 Q-57.7 49.9 -56.5 56.6 L-55.8 58.85 Q-46.1 60.35 -40.45 68.6 -18.65 57.85 -1.9 71.7 L5.3 72.85 Q14.2 64.65 23.1 73.6 L31.6 72.15 35.15 61.5 Q43.6 56.2 53.4 58.85 L57.75 55.9 Q59.25 43.0 72.15 40.15 L71.55 37.05 76.95 27.6 74.75 25.0 76.1 12.4 80.15 8.45 77.1 5.15 75.7 -5.65 Q66.95 -12.3 72.75 -22.55 L68.45 -26.35 64.15 -34.95 66.45 -38.45 Q64.3 -57.1 44.05 -63.55 L50.15 -63.45 57.9 -66.25 Q50.4 -73.6 40.0 -71.25 L38.35 -70.9 45.35 -73.45 Q33.55 -81.85 24.3 -78.05 20.35 -80.7 15.95 -82.25 27.95 -81.15 39.9 -78.65 65.0 -73.25 70.1 -51.4 M62.55 61.8 Q70.25 61.8 75.7 54.1 81.15 46.35 81.15 35.4 L81.35 37.85 Q81.4 58.8 60.7 66.7 L62.55 61.8 M81.2 35.15 L81.9 29.8 82.1 29.6 88.55 19.65 Q90.45 12.75 88.8 5.85 L78.9 -35.3 Q89.75 -26.05 86.85 -10.25 L86.25 -7.55 Q99.55 14.3 82.55 33.65 L81.2 35.15 M-17.2 -75.65 Q-8.05 -67.6 0.45 -74.65 1.05 -75.15 1.4 -76.0 L1.7 -76.3 8.1 -74.2 20.5 -76.95 18.0 -75.1 22.2 -72.5 24.75 -69.95 34.5 -69.25 34.8 -69.25 36.5 -69.0 37.6 -68.5 Q38.85 -66.35 40.65 -65.05 37.1 -66.6 33.2 -67.95 24.15 -66.0 18.25 -73.55 L3.0 -74.05 Q-8.45 -64.05 -19.2 -75.7 L-23.5 -74.65 -35.05 -67.65 -39.75 -67.7 Q-47.9 -57.5 -61.35 -56.6 L-62.7 -51.05 -66.85 -50.95 -70.05 -48.9 -67.55 -52.15 -63.25 -52.7 -63.15 -57.1 -59.6 -58.15 -42.25 -67.55 -43.4 -69.9 -45.35 -70.7 -40.35 -71.2 -39.7 -71.4 -34.45 -69.8 -26.25 -73.75 -23.35 -77.3 -17.2 -75.65 M60.3 67.05 Q33.65 88.85 -4.4 84.7 -18.45 88.6 -32.8 79.5 L-28.5 79.4 -13.0 85.7 Q11.35 82.5 35.7 78.2 40.7 77.45 45.25 74.6 L45.6 74.6 45.75 75.7 60.3 67.05 M-38.75 77.5 L-63.0 66.5 Q-60.5 67.5 -57.65 67.5 L-56.05 68.1 -52.2 69.35 -45.45 71.85 Q-42.6 75.45 -38.75 77.5 M-72.25 56.65 L-79.05 45.3 Q-76.95 48.1 -74.2 48.1 L-73.85 48.65 Q-73.75 53.0 -72.25 56.65 M-12.7 -82.5 L-13.05 -82.4 -15.5 -81.55 -13.1 -80.15 -25.35 -79.8 Q-19.1 -81.65 -12.7 -82.5 M-64.95 -61.55 L-69.65 -54.9 -73.95 -55.0 -83.35 -44.4 Q-79.5 -56.65 -64.95 -61.55" fill="#333333" fill-rule="evenodd" stroke="none"/>
  </g>
</svg>
