<?xml version="1.0" encoding="UTF-8" standalone="no"?>
<svg xmlns:xlink="http://www.w3.org/1999/xlink" height="37.2px" width="147.5px" xmlns="http://www.w3.org/2000/svg">
  <g transform="matrix(1.0, 0.0, 0.0, 1.0, 73.75, 18.6)">
    <path d="M73.75 7.5 L73.6 13.8 72.6 13.8 72.45 7.5 73.75 7.5 M69.95 11.15 Q69.5 10.85 68.9 10.65 L67.75 10.45 66.7 10.65 Q66.3 10.9 66.3 11.35 66.3 11.75 66.55 11.95 L67.35 12.3 68.05 12.45 68.65 12.55 Q69.45 12.75 69.85 13.15 70.25 13.6 70.25 14.3 70.25 15.2 69.5 15.8 68.8 16.35 67.5 16.35 L66.15 16.2 65.15 15.8 65.15 14.55 65.2 14.55 Q65.7 14.95 66.35 15.2 L67.6 15.45 68.7 15.2 69.15 14.45 68.9 13.85 Q68.7 13.65 68.05 13.55 L67.45 13.4 66.75 13.25 Q65.9 13.0 65.55 12.6 65.15 12.15 65.15 11.5 L65.35 10.75 65.85 10.1 Q66.2 9.8 66.7 9.65 L67.8 9.5 69.0 9.65 70.0 10.0 70.0 11.15 69.95 11.15 M73.7 16.2 L72.5 16.2 72.5 14.95 73.7 14.95 73.7 16.2 M39.35 11.1 Q38.95 10.5 38.1 10.5 37.65 10.5 37.15 10.75 L36.25 11.25 36.25 15.0 37.05 15.25 37.8 15.35 Q38.75 15.35 39.25 14.7 39.75 14.1 39.75 12.9 39.75 11.7 39.35 11.1 M43.0 10.4 Q43.8 9.45 45.2 9.45 46.55 9.45 47.4 10.4 48.2 11.35 48.2 12.95 48.2 14.55 47.4 15.45 46.55 16.4 45.2 16.4 43.8 16.4 43.0 15.45 42.15 14.55 42.15 12.95 42.15 11.35 43.0 10.4 M40.9 12.85 L40.65 14.3 40.0 15.4 39.1 16.1 38.0 16.35 37.1 16.2 36.25 15.85 36.25 18.6 35.15 18.6 35.15 9.65 36.25 9.65 36.25 10.35 Q36.7 9.95 37.25 9.75 L38.4 9.45 Q39.6 9.45 40.25 10.35 40.9 11.25 40.9 12.85 M43.8 11.05 Q43.3 11.65 43.3 12.95 43.3 14.15 43.8 14.8 44.3 15.45 45.2 15.45 46.05 15.45 46.6 14.8 47.1 14.15 47.1 12.95 47.1 11.65 46.6 11.05 46.1 10.4 45.2 10.4 44.3 10.4 43.8 11.05 M29.25 10.9 Q28.7 11.4 28.65 12.2 L32.4 12.2 Q32.4 11.35 31.95 10.85 31.5 10.4 30.65 10.4 29.75 10.4 29.25 10.9 M33.45 13.05 L28.65 13.05 Q28.65 13.65 28.8 14.1 L29.3 14.85 Q29.6 15.1 30.05 15.25 L30.95 15.4 32.3 15.15 33.3 14.6 33.35 14.6 33.35 15.8 32.2 16.2 31.0 16.35 Q29.35 16.35 28.45 15.45 27.5 14.6 27.5 12.95 27.5 11.35 28.4 10.4 29.25 9.45 30.7 9.45 32.05 9.45 32.75 10.25 33.45 11.0 33.45 12.45 L33.45 13.05 M61.95 9.65 L64.25 9.65 64.25 10.6 61.95 10.6 61.95 13.55 62.0 14.35 62.15 14.9 62.5 15.25 63.2 15.35 63.75 15.3 64.15 15.15 64.25 15.15 64.25 16.15 63.55 16.3 62.9 16.35 Q61.9 16.35 61.4 15.8 60.85 15.25 60.85 14.05 L60.85 10.6 60.1 10.6 60.1 9.65 60.85 9.65 60.85 7.75 61.95 7.75 61.95 9.65 M51.05 9.65 L51.05 16.2 49.95 16.2 49.95 9.65 51.05 9.65 M49.9 8.55 L49.9 7.4 51.1 7.4 51.1 8.55 49.9 8.55 M58.15 10.1 Q58.7 10.75 58.7 11.95 L58.7 16.2 57.6 16.2 57.6 12.45 57.55 11.65 57.35 11.0 56.95 10.65 56.2 10.5 55.3 10.75 Q54.8 10.95 54.35 11.3 L54.35 16.2 53.25 16.2 53.25 9.65 54.35 9.65 54.35 10.4 Q54.85 9.95 55.4 9.7 L56.55 9.45 Q57.6 9.45 58.15 10.1 M25.75 -18.35 L30.65 -18.35 25.1 -10.05 25.1 -4.05 20.65 -4.05 20.65 -10.05 15.05 -18.35 20.0 -18.35 22.85 -13.55 25.75 -18.35 M13.8 -14.35 L9.65 -14.1 Q9.5 -15.05 8.95 -15.5 L7.5 -15.95 Q6.7 -15.95 6.3 -15.6 5.9 -15.3 5.9 -14.8 5.9 -14.5 6.25 -14.2 6.55 -13.9 7.75 -13.7 10.65 -13.05 11.9 -12.4 L13.7 -10.85 Q14.3 -9.9 14.3 -8.7 14.3 -7.35 13.5 -6.15 12.75 -5.0 11.4 -4.4 10.0 -3.8 7.95 -3.8 4.3 -3.8 2.9 -5.2 1.5 -6.6 1.3 -8.8 L5.5 -9.05 Q5.65 -8.0 6.05 -7.5 6.75 -6.6 8.0 -6.6 8.95 -6.6 9.5 -7.05 10.0 -7.5 10.0 -8.1 L9.5 -9.1 7.25 -9.9 Q4.3 -10.55 3.1 -11.65 1.85 -12.75 1.85 -14.4 1.85 -15.5 2.5 -16.5 3.1 -17.5 4.4 -18.05 5.7 -18.6 7.9 -18.6 10.65 -18.6 12.1 -17.6 13.55 -16.55 13.8 -14.35 M-4.7 -18.35 L0.65 -4.05 -3.95 -4.05 -4.7 -6.4 -9.7 -6.4 -10.4 -4.05 -14.9 -4.05 -9.55 -18.35 -4.7 -18.35 M-5.6 -9.5 L-7.2 -14.65 -8.75 -9.5 -5.6 -9.5 M0.75 9.2 L0.45 10.3 0.4 11.85 0.45 13.4 0.75 14.5 1.3 15.15 2.2 15.4 3.15 15.2 3.7 14.5 4.0 13.4 4.05 11.85 4.0 10.3 3.7 9.15 3.15 8.5 2.2 8.25 1.3 8.5 Q0.95 8.7 0.75 9.2 M2.2 7.3 Q3.8 7.3 4.5 8.45 5.25 9.55 5.25 11.85 5.25 14.2 4.5 15.3 3.75 16.4 2.2 16.4 0.65 16.4 -0.05 15.25 -0.8 14.15 -0.8 11.85 -0.8 9.5 -0.05 8.4 0.65 7.3 2.2 7.3 M7.6 8.4 Q8.3 7.3 9.85 7.3 11.45 7.3 12.15 8.45 12.9 9.55 12.9 11.85 12.9 14.2 12.15 15.3 11.4 16.4 9.85 16.4 8.3 16.4 7.6 15.25 6.85 14.15 6.85 11.85 6.85 9.5 7.6 8.4 M8.05 11.85 L8.1 13.4 8.4 14.5 Q8.6 14.95 8.95 15.15 L9.85 15.4 10.8 15.2 11.35 14.5 11.65 13.4 11.7 11.85 11.65 10.3 11.35 9.15 10.8 8.5 9.85 8.25 8.95 8.5 Q8.6 8.7 8.4 9.2 8.2 9.6 8.1 10.3 L8.05 11.85 M-7.6 9.45 L-7.6 8.65 -6.85 8.6 -6.2 8.4 -5.75 8.05 Q-5.6 7.85 -5.6 7.45 L-4.7 7.45 -4.7 15.3 -2.9 15.3 -2.9 16.2 -7.6 16.2 -7.6 15.3 -5.8 15.3 -5.8 9.45 -7.6 9.45 M25.75 7.5 L25.75 16.2 24.3 16.2 20.15 8.4 20.15 16.2 19.05 16.2 19.05 7.5 20.85 7.5 24.65 14.6 24.65 7.5 25.75 7.5 M-16.1 -15.3 L-23.5 -15.3 -23.5 -13.05 -16.65 -13.05 -16.65 -10.1 -23.5 -10.1 -23.5 -7.3 -15.85 -7.3 -15.85 -4.05 -27.95 -4.05 -27.95 -18.35 -16.1 -18.35 -16.1 -15.3 M-36.15 -14.65 Q-34.8 -14.8 -33.8 -13.85 -32.85 -13.0 -32.85 -11.6 -32.85 -10.25 -33.8 -9.15 -34.8 -8.1 -36.15 -7.95 -37.5 -7.85 -38.5 -8.75 -39.45 -9.7 -39.45 -11.05 -39.45 -12.45 -38.5 -13.45 -37.5 -14.55 -36.15 -14.65 M-40.75 7.5 L-39.6 7.5 -39.6 12.7 -39.8 14.35 -40.5 15.55 -41.55 16.2 -42.95 16.4 -44.4 16.15 -45.4 15.55 -46.1 14.35 -46.3 12.7 -46.3 7.5 -45.15 7.5 -45.15 12.75 -45.05 13.85 -44.7 14.6 -44.0 15.2 -42.95 15.4 -41.9 15.2 Q-41.45 15.0 -41.2 14.6 L-40.85 13.85 -40.75 12.8 -40.75 7.5 M-36.35 11.25 L-36.35 15.0 -35.55 15.25 -34.8 15.35 Q-33.85 15.35 -33.35 14.7 -32.85 14.1 -32.85 12.9 -32.85 11.7 -33.25 11.1 -33.65 10.5 -34.5 10.5 L-35.45 10.75 -36.35 11.25 M-35.35 9.75 Q-34.85 9.45 -34.2 9.45 -33.0 9.45 -32.35 10.35 -31.7 11.25 -31.7 12.85 L-31.95 14.3 Q-32.15 14.95 -32.6 15.4 L-33.5 16.1 -34.6 16.35 -35.5 16.2 -36.35 15.85 -36.35 18.6 -37.45 18.6 -37.45 9.65 -36.35 9.65 -36.35 10.35 Q-35.9 9.95 -35.35 9.75 M-19.45 8.5 L-22.55 8.5 -22.55 16.2 -23.75 16.2 -23.75 8.5 -26.85 8.5 -26.85 7.5 -19.45 7.5 -19.45 8.5 M-18.5 11.05 Q-19.0 11.65 -19.0 12.95 -19.0 14.15 -18.5 14.8 -18.0 15.45 -17.1 15.45 -16.25 15.45 -15.7 14.8 -15.2 14.15 -15.2 12.95 -15.2 11.65 -15.7 11.05 -16.2 10.4 -17.1 10.4 -18.0 10.4 -18.5 11.05 M-19.3 10.4 Q-18.5 9.45 -17.1 9.45 -15.75 9.45 -14.9 10.4 -14.1 11.35 -14.1 12.95 -14.1 14.55 -14.9 15.45 -15.75 16.4 -17.1 16.4 -18.5 16.4 -19.3 15.45 -20.15 14.55 -20.15 12.95 -20.15 11.35 -19.3 10.4 M-61.4 7.4 L-60.2 7.4 -60.2 8.55 -61.4 8.55 -61.4 7.4 M-60.25 9.65 L-60.25 16.2 -61.35 16.2 -61.35 9.65 -60.25 9.65 M-53.15 10.1 Q-52.6 10.75 -52.6 11.95 L-52.6 16.2 -53.7 16.2 -53.7 12.45 -53.75 11.65 -53.95 11.0 -54.35 10.65 -55.1 10.5 -56.0 10.75 Q-56.5 10.95 -56.95 11.3 L-56.95 16.2 -58.05 16.2 -58.05 9.65 -56.95 9.65 -56.95 10.4 -55.9 9.7 -54.75 9.45 Q-53.7 9.45 -53.15 10.1 M-67.75 7.5 L-65.95 14.8 -64.1 7.5 -62.95 7.5 -65.25 16.2 -66.55 16.2 -68.4 8.95 -70.15 16.2 -71.45 16.2 -73.75 7.5 -72.55 7.5 -70.75 14.75 -68.95 7.5 -67.75 7.5" fill="#ffffff" fill-rule="evenodd" stroke="none"/>
  </g>
</svg>
