<?xml version="1.0" encoding="UTF-8" standalone="no"?>
<svg xmlns:xlink="http://www.w3.org/1999/xlink" height="36.95px" width="154.8px" xmlns="http://www.w3.org/2000/svg">
  <g transform="matrix(1.0, 0.0, 0.0, 1.0, 78.0, 14.65)">
    <path d="M17.75 -14.65 L20.9 -14.3 Q21.95 -13.95 22.65 -13.0 23.3 -12.05 23.3 -10.7 23.3 -9.5 22.8 -8.65 22.3 -7.75 21.4 -7.25 20.8 -6.9 19.85 -6.65 L21.0 -6.15 21.7 -5.4 22.3 -4.5 24.45 -0.35 19.45 -0.35 17.1 -4.7 16.3 -5.85 15.2 -6.15 14.8 -6.15 14.8 -0.35 10.35 -0.35 10.35 -14.65 17.75 -14.65 M4.3 -0.35 L3.55 -2.7 -1.45 -2.7 -2.15 -0.35 -6.65 -0.35 -1.3 -14.65 3.55 -14.65 8.9 -0.35 4.3 -0.35 M1.05 -10.95 L-0.5 -5.8 2.65 -5.8 1.05 -10.95 M18.6 -9.5 L18.85 -10.35 Q18.85 -11.05 18.4 -11.4 17.95 -11.8 16.75 -11.8 L14.8 -11.8 14.8 -8.85 16.7 -8.85 17.85 -9.05 18.6 -9.5 M37.6 -12.65 L38.75 -10.35 39.1 -7.55 Q39.1 -5.25 38.6 -4.0 38.05 -2.75 37.1 -1.85 36.2 -1.0 35.15 -0.75 L32.5 -0.35 25.9 -0.35 25.9 -14.65 32.5 -14.65 35.65 -14.15 Q36.85 -13.6 37.6 -12.65 M30.35 -3.6 L31.45 -3.6 33.4 -3.9 Q34.0 -4.2 34.3 -5.0 34.65 -5.75 34.65 -7.45 34.65 -9.75 33.9 -10.6 33.15 -11.4 31.45 -11.4 L30.35 -11.4 30.35 -3.6 M76.8 11.2 L76.65 17.5 75.65 17.5 75.5 11.2 76.8 11.2 M65.0 11.45 L65.0 13.35 67.3 13.35 67.3 14.3 65.0 14.3 65.0 17.25 65.05 18.05 65.2 18.6 65.55 18.95 66.25 19.05 66.8 19.0 67.2 18.85 67.3 18.85 67.3 19.85 66.6 20.0 65.95 20.05 Q64.95 20.05 64.45 19.5 63.9 18.95 63.9 17.75 L63.9 14.3 63.15 14.3 63.15 13.35 63.9 13.35 63.9 11.45 65.0 11.45 M69.35 15.05 Q69.35 15.45 69.6 15.65 L70.4 16.0 71.1 16.15 71.7 16.25 Q72.5 16.45 72.9 16.85 73.3 17.3 73.3 18.0 73.3 18.9 72.55 19.5 71.85 20.05 70.55 20.05 L69.2 19.9 68.2 19.5 68.2 18.25 68.25 18.25 69.4 18.9 70.65 19.15 71.75 18.9 72.2 18.15 71.95 17.55 Q71.75 17.35 71.1 17.25 L70.5 17.1 69.8 16.95 68.6 16.3 Q68.2 15.85 68.2 15.2 L68.4 14.45 68.9 13.8 Q69.25 13.5 69.75 13.35 L70.85 13.2 72.05 13.35 73.05 13.7 73.05 14.85 73.0 14.85 Q72.55 14.55 71.95 14.35 L70.8 14.15 69.75 14.35 Q69.35 14.6 69.35 15.05 M61.75 15.65 L61.75 19.9 60.65 19.9 60.65 16.15 60.6 15.35 60.4 14.7 60.0 14.35 59.25 14.2 58.35 14.45 Q57.85 14.65 57.4 15.0 L57.4 19.9 56.3 19.9 56.3 13.35 57.4 13.35 57.4 14.1 58.45 13.4 59.6 13.15 Q60.65 13.15 61.2 13.8 61.75 14.45 61.75 15.65 M75.55 18.65 L76.75 18.65 76.75 19.9 75.55 19.9 75.55 18.65 M54.15 12.25 L52.95 12.25 52.95 11.1 54.15 11.1 54.15 12.25 M50.15 16.65 Q50.15 15.35 49.65 14.75 49.15 14.1 48.25 14.1 47.35 14.1 46.85 14.75 46.35 15.35 46.35 16.65 46.35 17.85 46.85 18.5 47.35 19.15 48.25 19.15 49.1 19.15 49.65 18.5 50.15 17.85 50.15 16.65 M48.25 13.15 Q49.6 13.15 50.45 14.1 51.25 15.05 51.25 16.65 51.25 18.25 50.45 19.15 49.6 20.1 48.25 20.1 46.85 20.1 46.05 19.15 45.2 18.25 45.2 16.65 45.2 15.05 46.05 14.1 46.85 13.15 48.25 13.15 M41.15 14.2 L40.2 14.45 Q39.75 14.65 39.3 14.95 L39.3 18.7 40.1 18.95 40.85 19.05 Q41.8 19.05 42.3 18.4 42.8 17.8 42.8 16.6 42.8 15.4 42.4 14.8 42.0 14.2 41.15 14.2 M43.95 16.55 L43.7 18.0 43.05 19.1 Q42.7 19.55 42.15 19.8 L41.05 20.05 40.15 19.9 39.3 19.55 39.3 22.3 38.2 22.3 38.2 13.35 39.3 13.35 39.3 14.05 Q39.75 13.65 40.3 13.45 40.8 13.15 41.45 13.15 42.65 13.15 43.3 14.05 43.95 14.95 43.95 16.55 M54.1 13.35 L54.1 19.9 53.0 19.9 53.0 13.35 54.1 13.35 M21.5 11.2 L21.5 19.9 20.05 19.9 15.9 12.1 15.9 19.9 14.8 19.9 14.8 11.2 16.6 11.2 20.4 18.3 20.4 11.2 21.5 11.2 M26.4 14.1 Q25.5 14.1 25.0 14.6 24.45 15.1 24.4 15.9 L28.15 15.9 Q28.15 15.05 27.7 14.55 27.25 14.1 26.4 14.1 M29.2 16.75 L24.4 16.75 Q24.4 17.35 24.55 17.8 L25.05 18.55 25.8 18.95 26.7 19.1 28.05 18.85 29.05 18.3 29.1 18.3 29.1 19.5 27.95 19.9 26.75 20.05 Q25.1 20.05 24.2 19.15 23.25 18.3 23.25 16.65 23.25 15.05 24.15 14.1 25.0 13.15 26.45 13.15 27.8 13.15 28.5 13.95 29.2 14.7 29.2 16.15 L29.2 16.75 M36.45 16.65 Q36.45 18.25 35.65 19.15 34.8 20.1 33.45 20.1 32.05 20.1 31.25 19.15 30.4 18.25 30.4 16.65 30.4 15.05 31.25 14.1 32.05 13.15 33.45 13.15 34.8 13.15 35.65 14.1 36.45 15.05 36.45 16.65 M33.45 14.1 Q32.55 14.1 32.05 14.75 31.55 15.35 31.55 16.65 31.55 17.85 32.05 18.5 32.55 19.15 33.45 19.15 34.3 19.15 34.85 18.5 35.35 17.85 35.35 16.65 35.35 15.35 34.85 14.75 34.35 14.1 33.45 14.1 M5.6 11.0 Q7.2 11.0 7.9 12.15 8.65 13.25 8.65 15.55 8.65 17.9 7.9 19.0 7.15 20.1 5.6 20.1 4.05 20.1 3.35 18.95 2.6 17.85 2.6 15.55 2.6 13.2 3.35 12.1 4.05 11.0 5.6 11.0 M5.6 11.95 L4.7 12.2 Q4.35 12.4 4.15 12.9 L3.85 14.0 3.8 15.55 3.85 17.1 4.15 18.2 4.7 18.85 5.6 19.1 6.55 18.9 7.1 18.2 7.4 17.1 7.45 15.55 7.4 14.0 7.1 12.85 6.55 12.2 5.6 11.95 M0.25 19.0 Q-0.5 20.1 -2.05 20.1 -3.6 20.1 -4.3 18.95 -5.05 17.85 -5.05 15.55 -5.05 13.2 -4.3 12.1 -3.6 11.0 -2.05 11.0 -0.45 11.0 0.25 12.15 1.0 13.25 1.0 15.55 1.0 17.9 0.25 19.0 M-31.75 -7.4 Q-31.75 -6.05 -32.7 -5.1 -33.65 -4.15 -35.0 -4.15 -36.35 -4.15 -37.3 -5.1 -38.25 -6.05 -38.25 -7.4 -38.25 -8.75 -37.3 -9.7 -36.35 -10.65 -35.0 -10.65 -33.65 -10.65 -32.7 -9.7 -31.75 -8.75 -31.75 -7.4 M-21.85 -14.65 L-17.45 -14.65 -17.45 -9.65 -12.6 -9.65 -12.6 -14.65 -8.15 -14.65 -8.15 -0.35 -12.6 -0.35 -12.6 -6.15 -17.45 -6.15 -17.45 -0.35 -21.85 -0.35 -21.85 -14.65 M-7.15 12.15 L-6.95 13.1 Q-6.95 13.8 -7.45 14.35 -8.0 14.9 -8.7 15.05 L-8.7 15.15 Q-8.4 15.2 -8.05 15.35 -7.65 15.5 -7.4 15.7 L-6.95 16.35 -6.75 17.3 -7.0 18.4 -7.6 19.3 -8.65 19.9 -9.95 20.1 -11.35 19.9 -12.5 19.55 -12.5 18.3 -12.45 18.3 Q-11.95 18.65 -11.25 18.85 L-9.95 19.05 -9.2 18.95 -8.5 18.6 -8.1 18.0 Q-7.95 17.7 -7.95 17.25 -7.95 16.75 -8.1 16.45 L-8.55 15.95 -9.15 15.7 -10.0 15.65 -10.5 15.65 -10.5 14.7 -10.1 14.7 Q-9.2 14.7 -8.65 14.3 -8.15 13.95 -8.15 13.2 L-8.3 12.65 -8.65 12.3 Q-8.9 12.1 -9.2 12.05 L-9.85 12.0 -11.05 12.2 -12.2 12.75 -12.25 12.75 -12.25 11.55 -11.15 11.15 -9.8 11.0 -8.7 11.1 -7.8 11.5 Q-7.4 11.75 -7.15 12.15 M-2.05 11.95 L-2.95 12.2 -3.5 12.9 -3.8 14.0 -3.85 15.55 -3.8 17.1 -3.5 18.2 -2.95 18.85 -2.05 19.1 -1.1 18.9 Q-0.75 18.65 -0.55 18.2 L-0.25 17.1 -0.2 15.55 -0.25 14.0 -0.55 12.85 Q-0.75 12.4 -1.1 12.2 -1.45 11.95 -2.05 11.95 M-19.95 14.75 Q-20.45 14.1 -21.35 14.1 -22.25 14.1 -22.75 14.75 -23.25 15.35 -23.25 16.65 -23.25 17.85 -22.75 18.5 -22.25 19.15 -21.35 19.15 -20.5 19.15 -19.95 18.5 -19.45 17.85 -19.45 16.65 -19.45 15.35 -19.95 14.75 M-18.35 16.65 Q-18.35 18.25 -19.15 19.15 -20.0 20.1 -21.35 20.1 -22.75 20.1 -23.55 19.15 -24.4 18.25 -24.4 16.65 -24.4 15.05 -23.55 14.1 -22.75 13.15 -21.35 13.15 -20.0 13.15 -19.15 14.1 -18.35 15.05 -18.35 16.65 M-23.7 12.2 L-26.8 12.2 -26.8 19.9 -28.0 19.9 -28.0 12.2 -31.1 12.2 -31.1 11.2 -23.7 11.2 -23.7 12.2 M-36.6 14.05 Q-35.95 14.95 -35.95 16.55 L-36.2 18.0 Q-36.4 18.65 -36.85 19.1 L-37.75 19.8 -38.85 20.05 -39.75 19.9 -40.6 19.55 -40.6 22.3 -41.7 22.3 -41.7 13.35 -40.6 13.35 -40.6 14.05 -39.6 13.45 -38.45 13.15 Q-37.25 13.15 -36.6 14.05 M-38.75 14.2 L-39.7 14.45 -40.6 14.95 -40.6 18.7 -39.8 18.95 -39.05 19.05 Q-38.1 19.05 -37.6 18.4 -37.1 17.8 -37.1 16.6 -37.1 15.4 -37.5 14.8 -37.9 14.2 -38.75 14.2 M-49.4 11.2 L-49.4 16.45 -49.3 17.55 -48.95 18.3 -48.25 18.9 -47.2 19.1 -46.15 18.9 -45.45 18.3 Q-45.2 18.0 -45.1 17.55 L-45.0 16.5 -45.0 11.2 -43.85 11.2 -43.85 16.4 -44.05 18.05 -44.75 19.25 -45.8 19.9 -47.2 20.1 -48.65 19.85 Q-49.25 19.65 -49.65 19.25 L-50.35 18.05 -50.55 16.4 -50.55 11.2 -49.4 11.2 M-56.85 15.65 L-56.85 19.9 -57.95 19.9 -57.95 16.15 -58.0 15.35 -58.2 14.7 -58.6 14.35 -59.35 14.2 -60.25 14.45 -61.2 15.0 -61.2 19.9 -62.3 19.9 -62.3 13.35 -61.2 13.35 -61.2 14.1 -60.15 13.4 -59.0 13.15 Q-57.95 13.15 -57.4 13.8 -56.85 14.45 -56.85 15.65 M-67.2 11.2 L-69.5 19.9 -70.8 19.9 -72.65 12.65 -74.4 19.9 -75.7 19.9 -78.0 11.2 -76.8 11.2 -75.0 18.45 -73.2 11.2 -72.0 11.2 -70.2 18.5 -68.35 11.2 -67.2 11.2 M-65.65 12.25 L-65.65 11.1 -64.45 11.1 -64.45 12.25 -65.65 12.25 M-64.5 13.35 L-64.5 19.9 -65.6 19.9 -65.6 13.35 -64.5 13.35" fill="#ffffff" fill-rule="evenodd" stroke="none"/>
  </g>
</svg>
