<?xml version="1.0" encoding="UTF-8" standalone="no"?>
<svg xmlns:xlink="http://www.w3.org/1999/xlink" height="129.9px" width="144.45px" xmlns="http://www.w3.org/2000/svg">
  <g transform="matrix(1.0, 0.0, 0.0, 1.0, 79.5, 64.95)">
    <use height="92.0" transform="matrix(0.2256, 0.9735, -0.9735, 0.2256, 34.4038, -55.1563)" width="92.0" xlink:href="#shape0"/>
    <use height="11.8" transform="matrix(-2.0063, 0.0, 0.0, 2.0063, 6.5851, -11.536)" width="42.9" xlink:href="#sprite0"/>
  </g>
  <defs>
    <g id="shape0" transform="matrix(1.0, 0.0, 0.0, 1.0, 46.0, 46.0)">
      <path d="M0.5 -45.0 L2.1 -24.15 0.5 -24.2 -1.3 -24.15 0.05 -45.0 0.5 -45.0 M45.0 -0.1 L45.0 0.55 25.0 1.8 25.0 -1.15 45.0 -0.1 M0.45 45.0 L-0.95 25.0 2.0 25.0 1.05 45.0 0.45 45.0 M-23.9 2.25 L-45.0 1.15 -45.0 0.4 -23.95 -0.7 -24.0 0.3 -23.9 2.25" fill="#cc0000" fill-rule="evenodd" stroke="none"/>
      <path d="M2.7 -23.1 Q10.95 -22.45 16.95 -16.45 23.8 -9.6 24.0 -0.2 L24.0 0.8 Q23.8 10.15 16.95 16.75 10.2 23.8 0.5 23.8 -9.2 23.8 -16.25 16.75 -22.15 10.85 -22.9 2.75 L-22.9 2.65 -23.0 0.3 -22.95 -1.2 -22.95 -1.25 Q-22.45 -9.95 -16.25 -16.45 -10.05 -22.4 -1.8 -23.1 L0.5 -23.2 2.5 -23.1 2.7 -23.1 M7.15 -6.45 Q10.0 -3.6 10.0 0.3 10.0 4.2 7.15 7.0 L7.1 7.05 Q4.4 9.85 0.5 9.85 -3.4 9.85 -6.25 7.0 -9.0 4.25 -9.0 0.3 -9.0 -3.6 -6.3 -6.45 L-6.25 -6.5 Q-3.4 -9.2 0.5 -9.2 4.4 -9.2 7.15 -6.45 M0.5 -20.9 Q-8.25 -20.9 -14.55 -14.75 L-14.6 -14.75 Q-20.7 -8.4 -20.7 0.3 -20.7 9.05 -14.55 15.2 L-14.55 15.15 Q-8.3 21.5 0.5 21.5 9.2 21.5 15.35 15.2 L15.4 15.15 Q21.7 9.0 21.7 0.3 21.7 -8.45 15.4 -14.75 9.25 -20.9 0.5 -20.9" fill="#333333" fill-rule="evenodd" stroke="none"/>
      <path d="M0.5 -13.2 Q-5.05 -13.2 -9.05 -9.35 L-9.15 -9.25 Q-13.0 -5.25 -13.0 0.3 -13.0 5.85 -9.1 9.8 L-9.1 9.85 Q-5.1 13.85 0.5 13.85 6.05 13.85 9.95 9.85 L10.0 9.8 Q14.0 5.85 14.0 0.3 14.0 -5.3 10.0 -9.3 6.1 -13.2 0.5 -13.2 M12.55 -11.9 Q17.7 -6.75 17.7 0.3 17.7 7.35 12.55 12.3 L12.5 12.35 Q7.55 17.5 0.5 17.5 -6.6 17.5 -11.7 12.35 -16.7 7.35 -16.7 0.3 -16.7 -6.75 -11.75 -11.9 L-11.7 -11.9 -11.7 -11.95 Q-6.6 -16.9 0.5 -16.9 7.55 -16.9 12.55 -11.9" fill="#990000" fill-rule="evenodd" stroke="none"/>
      <path d="M0.5 -45.0 L0.05 -45.0 -1.3 -24.15 0.5 -24.2 2.1 -24.15 0.5 -45.0 M1.3 -45.85 L1.45 -45.55 3.15 -24.05 Q11.55 -23.3 17.65 -17.15 24.1 -10.7 24.9 -2.15 L45.55 -1.1 45.9 -0.95 46.0 -0.6 46.0 1.0 45.9 1.35 45.55 1.5 24.9 2.8 Q24.1 11.3 17.65 17.45 11.5 23.9 3.0 24.7 L2.0 45.55 1.85 45.85 1.5 46.0 -0.05 46.0 -0.4 45.9 -0.55 45.55 -2.0 24.7 Q-10.5 23.9 -16.95 17.45 -23.0 11.45 -23.85 3.25 L-45.5 2.1 -45.85 1.95 -46.0 1.6 -46.0 -0.1 -45.85 -0.45 -45.5 -0.6 -23.9 -1.7 Q-23.25 -10.55 -16.95 -17.15 -10.65 -23.25 -2.3 -24.05 L-0.95 -45.5 -0.8 -45.85 -0.45 -46.0 0.95 -46.0 1.3 -45.85 M7.15 -6.45 Q4.4 -9.2 0.5 -9.2 -3.4 -9.2 -6.25 -6.5 L-6.3 -6.45 Q-9.0 -3.6 -9.0 0.3 -9.0 4.25 -6.25 7.0 -3.4 9.85 0.5 9.85 4.4 9.85 7.1 7.05 L7.15 7.0 Q10.0 4.2 10.0 0.3 10.0 -3.6 7.15 -6.45 M2.7 -23.1 L2.5 -23.1 0.5 -23.2 -1.8 -23.1 Q-10.05 -22.4 -16.25 -16.45 -22.45 -9.95 -22.95 -1.25 L-22.95 -1.2 -23.0 0.3 -22.9 2.65 -22.9 2.75 Q-22.15 10.85 -16.25 16.75 -9.2 23.8 0.5 23.8 10.2 23.8 16.95 16.75 23.8 10.15 24.0 0.8 L24.0 -0.2 Q23.8 -9.6 16.95 -16.45 10.95 -22.45 2.7 -23.1 M0.5 -13.2 Q6.1 -13.2 10.0 -9.3 14.0 -5.3 14.0 0.3 14.0 5.85 10.0 9.8 L9.95 9.85 Q6.05 13.85 0.5 13.85 -5.1 13.85 -9.1 9.85 L-9.1 9.8 Q-13.0 5.85 -13.0 0.3 -13.0 -5.25 -9.15 -9.25 L-9.05 -9.35 Q-5.05 -13.2 0.5 -13.2 M0.5 -20.9 Q9.25 -20.9 15.4 -14.75 21.7 -8.45 21.7 0.3 21.7 9.0 15.4 15.15 L15.35 15.2 Q9.2 21.5 0.5 21.5 -8.3 21.5 -14.55 15.15 L-14.55 15.2 Q-20.7 9.05 -20.7 0.3 -20.7 -8.4 -14.6 -14.75 L-14.55 -14.75 Q-8.25 -20.9 0.5 -20.9 M12.55 -11.9 Q7.55 -16.9 0.5 -16.9 -6.6 -16.9 -11.7 -11.95 L-11.7 -11.9 -11.75 -11.9 Q-16.7 -6.75 -16.7 0.3 -16.7 7.35 -11.7 12.35 -6.6 17.5 0.5 17.5 7.55 17.5 12.5 12.35 L12.55 12.3 Q17.7 7.35 17.7 0.3 17.7 -6.75 12.55 -11.9 M-23.9 2.25 L-24.0 0.3 -23.95 -0.7 -45.0 0.4 -45.0 1.15 -23.9 2.25 M0.45 45.0 L1.05 45.0 2.0 25.0 -0.95 25.0 0.45 45.0 M45.0 -0.1 L25.0 -1.15 25.0 1.8 45.0 0.55 45.0 -0.1" fill="#000000" fill-rule="evenodd" stroke="none"/>
    </g>
    <g id="sprite0" transform="matrix(1.0, 0.0, 0.0, 1.0, 13.6, 5.75)">
      <use height="11.8" id="p1" transform="matrix(1.0, 0.0, 0.0, 1.0, -13.6, -5.75)" width="42.9" xlink:href="#sprite1"/>
    </g>
    <g id="sprite1" transform="matrix(1.0, 0.0, 0.0, 1.0, 3.15, 5.55)">
      <use height="6.0" transform="matrix(1.0, 0.0, 0.0, 1.0, -3.15, -2.85)" width="6.0" xlink:href="#shape1"/>
    </g>
    <g id="shape1" transform="matrix(1.0, 0.0, 0.0, 1.0, 3.15, 2.85)">
      <path d="M-0.15 -2.85 Q1.05 -2.9 1.95 -2.0 2.85 -1.1 2.85 0.15 2.85 1.35 1.95 2.25 1.05 3.1 -0.15 3.15 -1.4 3.1 -2.3 2.25 -3.2 1.35 -3.15 0.15 -3.2 -1.1 -2.3 -2.0 -1.4 -2.9 -0.15 -2.85" fill="url(#gradient0)" fill-rule="evenodd" stroke="none"/>
    </g>
    <radialGradient cx="0" cy="0" gradientTransform="matrix(0.0037, 0.0, 0.0, 0.0037, -0.15, 0.1)" gradientUnits="userSpaceOnUse" id="gradient0" r="819.2" spreadMethod="pad">
      <stop offset="0.0" stop-color="#ccffff" stop-opacity="0.8"/>
      <stop offset="1.0" stop-color="#66ccff"/>
    </radialGradient>
  </defs>
</svg>
