<?xml version="1.0" encoding="UTF-8" standalone="no"?>
<svg xmlns:xlink="http://www.w3.org/1999/xlink" height="171.1px" width="175.4px" xmlns="http://www.w3.org/2000/svg">
  <g transform="matrix(1.0, 0.0, 0.0, 1.0, 94.1, 162.7)">
    <use height="0.15" transform="matrix(1.0, 0.0, 0.0, 1.0, -41.25, -34.2)" width="0.05" xlink:href="#shape0"/>
    <use height="61.3" transform="matrix(0.4411, 0.4596, -0.4596, 0.4411, -34.1357, -66.9538)" width="28.3" xlink:href="#sprite0"/>
    <use height="60.15" transform="matrix(0.637, -0.05, 0.05, 0.637, -33.9705, -36.1397)" width="47.35" xlink:href="#sprite1"/>
    <use height="39.15" transform="matrix(0.5935, 0.2375, -0.2375, 0.5935, -27.2206, -81.1238)" width="35.35" xlink:href="#sprite2"/>
    <use height="60.15" transform="matrix(-0.6369, 0.05, 0.05, 0.6369, 19.9566, -37.8549)" width="47.35" xlink:href="#sprite1"/>
    <use height="39.15" transform="matrix(-0.4085, 0.49, 0.49, 0.4085, 5.6058, -86.5545)" width="35.35" xlink:href="#sprite2"/>
    <use height="93.25" transform="matrix(0.6378, 0.0245, -0.0245, 0.6378, -24.0253, -85.3191)" width="61.2" xlink:href="#sprite3"/>
    <use height="83.55" transform="matrix(0.4819, 0.1998, -0.1998, 0.4819, -12.5001, -126.041)" width="87.3" xlink:href="#sprite4"/>
    <use height="61.3" transform="matrix(-0.6351, -0.0139, 0.0139, -0.6351, 28.6943, -67.6806)" width="28.3" xlink:href="#sprite0"/>
    <use height="56.55" transform="matrix(0.6182, 0.1634, -0.1634, 0.6182, -8.1974, -162.7013)" width="89.0" xlink:href="#sprite13"/>
  </g>
  <defs>
    <g id="shape0" transform="matrix(1.0, 0.0, 0.0, 1.0, 41.25, 34.2)">
      <path d="M-41.2 -34.05 L-41.25 -34.1 -41.2 -34.2 -41.2 -34.05" fill="#000000" fill-rule="evenodd" stroke="none"/>
    </g>
    <g id="sprite0" transform="matrix(1.0, 0.0, 0.0, 1.0, 14.15, 24.6)">
      <use height="61.3" transform="matrix(1.0, 0.0, 0.0, 1.0, -14.15, -24.6)" width="28.3" xlink:href="#shape1"/>
    </g>
    <g id="shape1" transform="matrix(1.0, 0.0, 0.0, 1.0, 14.15, 24.6)">
      <path d="M-1.2 -21.95 L-1.0 -21.65 -0.2 -19.8 Q-0.95 -12.1 -0.6 -4.3 L-0.25 -4.2 1.75 -3.05 Q4.55 -1.1 3.55 2.2 7.9 7.25 14.15 9.45 13.9 13.05 10.9 15.0 6.85 17.55 2.85 14.8 4.4 20.65 4.7 26.75 4.95 32.05 0.75 35.2 -1.25 36.7 -3.85 36.7 -11.9 36.05 -13.55 27.6 -15.55 17.35 -10.8 7.95 -15.55 4.25 -11.55 -0.6 L-9.6 -2.55 Q-10.1 -7.45 -10.2 -12.3 -10.0 -13.25 -10.05 -14.5 -10.25 -18.7 -8.85 -21.95 L-9.05 -16.95 Q-9.35 -10.05 -8.75 -3.15 -7.65 -3.95 -6.35 -4.3 L-1.65 -4.5 Q-2.2 -13.3 -1.2 -21.95 M-9.45 -1.05 L-9.75 -0.75 Q-13.4 3.25 -10.25 6.9 L-8.5 5.2 -7.8 4.65 Q-4.8 2.35 -1.1 1.85 L-0.2 1.75 Q1.3 1.6 2.95 1.75 3.3 -2.05 -0.35 -3.2 L-0.55 -3.3 -1.55 -3.55 -6.15 -3.25 Q-7.5 -2.8 -8.65 -1.8 L-9.45 -1.05 M-11.95 21.3 Q-11.3 15.6 -8.1 10.85 -10.3 17.95 -9.9 25.3 L-12.5 25.6 -11.95 21.3 M-7.2 21.5 Q-6.95 15.25 -3.3 11.45 -5.45 19.05 -4.05 26.8 L-6.3 27.05 Q-7.0 26.85 -7.35 26.25 L-7.2 21.5 M-5.05 24.1 L-5.25 15.9 Q-6.8 20.75 -6.7 25.9 L-4.65 26.25 -5.05 24.1 M-10.75 17.7 L-11.85 24.45 -10.9 25.0 -10.75 17.7 M-0.2 2.55 L-1.15 2.7 Q-2.45 2.9 -3.7 3.4 -6.0 4.25 -7.6 5.65 L-8.2 6.25 Q-10.5 8.6 -11.05 12.35 L-12.15 16.3 Q-14.75 25.7 -9.1 33.0 -7.75 34.7 -5.75 35.1 -0.15 36.15 2.35 30.75 4.95 25.2 2.75 19.2 0.8 13.95 4.3 9.85 L3.05 13.05 Q3.45 13.8 4.2 14.25 6.65 15.7 9.45 14.8 12.8 13.55 12.95 9.9 6.2 8.5 2.7 2.5 L-0.2 2.55" fill="#000000" fill-rule="evenodd" stroke="none"/>
      <path d="M-9.45 -1.05 L-8.65 -1.8 Q-7.5 -2.8 -6.15 -3.25 L-1.55 -3.55 -0.55 -3.3 -0.35 -3.2 Q3.3 -2.05 2.95 1.75 1.3 1.6 -0.2 1.75 L-1.1 1.85 Q-4.8 2.35 -7.8 4.65 L-8.5 5.2 -10.25 6.9 Q-13.4 3.25 -9.75 -0.75 L-9.45 -1.05 M-0.2 2.55 L2.7 2.5 Q6.2 8.5 12.95 9.9 12.8 13.55 9.45 14.8 6.65 15.7 4.2 14.25 3.45 13.8 3.05 13.05 L4.3 9.85 Q0.8 13.95 2.75 19.2 4.95 25.2 2.35 30.75 -0.15 36.15 -5.75 35.1 -7.75 34.7 -9.1 33.0 -14.75 25.7 -12.15 16.3 L-11.05 12.35 Q-10.5 8.6 -8.2 6.25 L-7.6 5.65 Q-6.0 4.25 -3.7 3.4 -2.45 2.9 -1.15 2.7 L-0.2 2.55 M-10.75 17.7 L-10.9 25.0 -11.85 24.45 -10.75 17.7 M-5.05 24.1 L-4.65 26.25 -6.7 25.9 Q-6.8 20.75 -5.25 15.9 L-5.05 24.1 M-7.2 21.5 L-7.35 26.25 Q-7.0 26.85 -6.3 27.05 L-4.05 26.8 Q-5.45 19.05 -3.3 11.45 -6.95 15.25 -7.2 21.5 M-11.95 21.3 L-12.5 25.6 -9.9 25.3 Q-10.3 17.95 -8.1 10.85 -11.3 15.6 -11.95 21.3" fill="#ffffff" fill-rule="evenodd" stroke="none"/>
      <path d="M-6.35 -4.3 Q-7.65 -3.95 -8.75 -3.15 -9.35 -10.05 -9.05 -16.95 L-8.85 -21.95 -7.75 -24.1 -7.1 -24.2 Q-7.85 -14.15 -6.35 -4.3" fill="#0db5c8" fill-rule="evenodd" stroke="none"/>
      <path d="M-1.2 -21.95 Q-2.2 -13.3 -1.65 -4.5 L-6.35 -4.3 Q-7.85 -14.15 -7.1 -24.2 L-6.8 -24.25 -4.5 -24.6 Q-2.55 -23.65 -1.2 -21.95" fill="#0ecfe4" fill-rule="evenodd" stroke="none"/>
    </g>
    <g id="sprite1" transform="matrix(1.0, 0.0, 0.0, 1.0, 23.65, 30.1)">
      <use height="60.15" transform="matrix(1.0, 0.0, 0.0, 1.0, -23.65, -30.1)" width="47.35" xlink:href="#shape2"/>
    </g>
    <g id="shape2" transform="matrix(1.0, 0.0, 0.0, 1.0, 23.65, 30.1)">
      <path d="M5.85 -29.3 Q8.0 -28.05 8.3 -25.0 8.7 -21.35 8.5 -17.6 8.1 -10.1 10.7 -3.15 13.3 3.9 18.25 9.5 L19.0 10.45 19.2 10.75 Q22.7 15.7 23.65 21.7 23.8 22.45 23.5 23.0 23.8 24.1 22.05 24.95 16.35 27.55 10.1 28.85 L0.35 30.05 -3.1 30.05 Q-9.25 29.9 -14.95 28.05 -20.1 26.35 -23.35 22.25 L-23.6 22.0 -23.65 21.9 -23.6 21.5 -23.6 21.25 -23.6 21.05 Q-22.35 18.15 -20.0 16.0 -15.4 11.85 -9.35 10.2 L-4.0 9.2 Q-1.5 8.85 0.8 9.15 L0.1 7.7 -0.35 7.05 Q-3.2 0.85 -4.15 -5.85 -5.2 -13.25 -3.7 -20.55 -2.9 -24.45 -0.6 -27.7 0.4 -29.1 1.9 -29.65 L2.1 -29.6 3.0 -29.9 3.65 -30.1 Q4.9 -29.9 5.85 -29.3 M5.3 -28.3 L2.2 -28.45 1.45 -28.15 Q-2.1 -24.5 -2.8 -19.25 L-3.45 -12.6 -2.9 -5.85 -2.5 -4.25 Q-1.5 2.45 1.8 8.5 L2.15 9.35 Q6.35 10.15 9.8 13.15 10.35 13.6 10.35 14.25 L6.65 12.5 Q-0.15 9.1 -7.85 11.05 -13.2 12.4 -17.65 15.55 -21.0 17.95 -22.65 21.6 -20.1 24.2 -17.05 25.8 -15.85 21.85 -12.5 18.9 -8.4 15.25 -2.85 14.85 L-1.15 15.25 -1.1 15.35 -5.3 16.05 Q-11.15 18.05 -14.35 23.35 L-16.15 26.25 Q-13.15 27.65 -9.6 28.15 L2.7 28.55 5.05 28.3 Q12.4 27.4 19.35 25.05 21.15 24.4 22.35 23.0 L22.35 22.9 22.35 22.7 Q21.9 17.85 19.5 13.6 L19.05 12.95 19.05 12.85 19.0 12.7 17.9 11.55 15.25 7.75 Q10.25 1.05 8.35 -7.05 6.8 -13.75 7.5 -20.8 7.85 -24.5 6.0 -27.45 L5.3 -28.3" fill="#000000" fill-rule="evenodd" stroke="none"/>
      <path d="M5.3 -28.3 L6.0 -27.45 Q7.85 -24.5 7.5 -20.8 6.8 -13.75 8.35 -7.05 10.25 1.05 15.25 7.75 L17.9 11.55 19.0 12.7 19.05 12.85 19.05 12.95 19.5 13.6 Q21.9 17.85 22.35 22.7 L22.35 22.9 22.35 23.0 Q21.15 24.4 19.35 25.05 12.4 27.4 5.05 28.3 L2.7 28.55 Q5.45 26.65 8.0 24.45 10.6 22.25 12.4 19.4 L13.2 18.1 Q14.25 16.25 13.0 14.55 L12.65 13.95 10.55 10.5 Q7.4 6.0 5.5 0.55 3.75 -4.35 3.0 -9.5 L2.8 -12.5 2.75 -16.5 Q2.55 -22.8 5.3 -28.3" fill="#0db5c8" fill-rule="evenodd" stroke="none"/>
      <path d="M2.7 28.55 L-9.6 28.15 Q-13.15 27.65 -16.15 26.25 L-14.35 23.35 Q-11.15 18.05 -5.3 16.05 L-1.1 15.35 -1.15 15.25 -2.85 14.85 Q-8.4 15.25 -12.5 18.9 -15.85 21.85 -17.05 25.8 -20.1 24.2 -22.65 21.6 -21.0 17.95 -17.65 15.55 -13.2 12.4 -7.85 11.05 -0.15 9.1 6.65 12.5 L10.35 14.25 Q10.35 13.6 9.8 13.15 6.35 10.15 2.15 9.35 L1.8 8.5 Q-1.5 2.45 -2.5 -4.25 L-2.9 -5.85 -3.45 -12.6 -2.8 -19.25 Q-2.1 -24.5 1.45 -28.15 L2.2 -28.45 5.3 -28.3 Q2.55 -22.8 2.75 -16.5 L2.8 -12.5 3.0 -9.5 Q3.75 -4.35 5.5 0.55 7.4 6.0 10.55 10.5 L12.65 13.95 13.0 14.55 Q14.25 16.25 13.2 18.1 L12.4 19.4 Q10.6 22.25 8.0 24.45 5.45 26.65 2.7 28.55" fill="#0ecfe4" fill-rule="evenodd" stroke="none"/>
    </g>
    <g id="sprite2" transform="matrix(1.0, 0.0, 0.0, 1.0, 17.65, 19.6)">
      <use height="39.15" transform="matrix(1.0, 0.0, 0.0, 1.0, -17.65, -19.6)" width="35.35" xlink:href="#shape3"/>
    </g>
    <g id="shape3" transform="matrix(1.0, 0.0, 0.0, 1.0, 17.65, 19.6)">
      <path d="M-16.4 9.2 L-14.95 7.75 -13.4 6.25 -11.65 4.4 -9.55 2.45 Q-10.9 0.5 -11.6 -1.8 L-11.55 -2.05 Q-8.65 -3.35 -6.15 -5.2 -3.35 -7.35 -1.05 -10.1 L-0.15 -11.15 1.35 -12.85 Q6.05 -18.15 12.8 -19.55 L13.05 -19.55 13.1 -19.55 13.4 -19.6 14.9 -19.1 15.05 -19.0 15.9 -17.85 Q19.35 -12.4 16.1 -6.05 12.7 0.65 8.2 6.7 6.75 8.75 4.9 10.15 L4.0 10.35 3.55 10.05 0.45 9.75 -0.15 10.3 -6.15 16.1 -8.2 18.05 -9.4 19.2 -10.4 19.25 -10.3 18.95 Q-9.7 17.25 -8.15 15.95 L-6.15 14.25 -1.75 10.1 -0.9 9.35 Q-2.2 8.85 -3.45 8.05 L-6.0 6.1 -6.15 6.0 -6.8 5.45 -8.85 3.35 -10.9 5.7 -12.4 7.3 Q-14.7 9.8 -17.3 11.75 L-17.65 11.7 -17.65 11.5 -17.5 11.15 Q-17.15 10.1 -16.4 9.2 M15.25 -16.7 Q14.5 -17.95 13.2 -18.6 6.1 -16.55 1.25 -10.85 L-0.15 -9.25 Q-2.9 -6.3 -6.15 -3.8 L-8.15 -2.4 Q-9.15 -1.7 -10.3 -1.3 L-8.45 1.65 -8.2 1.75 -8.05 1.8 -7.95 2.0 -7.85 2.2 -7.95 2.35 -6.15 4.25 -4.85 5.4 -1.85 7.35 -0.15 8.15 Q1.9 9.0 4.15 9.2 L4.85 8.95 Q9.55 2.7 13.75 -3.95 17.05 -9.2 15.85 -15.05 L15.25 -16.7" fill="#000000" fill-rule="evenodd" stroke="none"/>
      <path d="M-4.85 5.4 L-6.15 4.25 -7.95 2.35 -7.85 2.2 -7.95 2.0 -8.05 1.8 -8.2 1.75 -8.45 1.65 -10.3 -1.3 Q-9.15 -1.7 -8.15 -2.4 L-6.15 -3.8 Q-2.9 -6.3 -0.15 -9.25 L1.25 -10.85 Q6.1 -16.55 13.2 -18.6 14.5 -17.95 15.25 -16.7 L12.25 -11.15 10.75 -8.4 Q7.25 -2.4 1.9 1.8 L0.6 2.6 Q0.2 2.75 -0.15 2.95 -2.6 4.1 -4.85 5.4" fill="#f02d0b" fill-rule="evenodd" stroke="none"/>
      <path d="M-14.2 19.35 L-14.5 19.35 Q-16.4 19.05 -17.65 17.5 L-17.65 11.7 -17.3 11.75 Q-14.7 9.8 -12.4 7.3 L-10.9 5.7 Q-9.15 8.3 -6.15 9.65 L-6.05 9.7 Q-5.7 9.65 -6.15 10.25 L-6.4 10.55 -14.35 19.2 -14.2 19.35 M-17.65 11.5 L-17.65 11.35 -17.5 11.15 -17.65 11.5" fill="#0ecfe4" fill-rule="evenodd" stroke="none"/>
      <path d="M-10.3 18.95 L-11.35 19.3 -13.95 19.4 -14.2 19.35 -14.35 19.2 -6.4 10.55 -6.15 10.25 Q-5.7 9.65 -6.05 9.7 L-6.15 9.65 Q-9.15 8.3 -10.9 5.7 L-8.85 3.35 -6.8 5.45 -6.15 6.0 -6.0 6.1 -3.45 8.05 Q-2.2 8.85 -0.9 9.35 L-1.75 10.1 -6.15 14.25 -8.15 15.95 Q-9.7 17.25 -10.3 18.95" fill="#0db5c8" fill-rule="evenodd" stroke="none"/>
      <path d="M-4.85 5.4 Q-2.6 4.1 -0.15 2.95 0.2 2.75 0.6 2.6 L1.9 1.8 Q7.25 -2.4 10.75 -8.4 L12.25 -11.15 15.25 -16.7 15.85 -15.05 Q17.05 -9.2 13.75 -3.95 9.55 2.7 4.85 8.95 L4.15 9.2 Q1.9 9.0 -0.15 8.15 L-1.85 7.35 -4.85 5.4" fill="#d6280a" fill-rule="evenodd" stroke="none"/>
      <path d="M-17.65 11.35 L-17.5 11.15 Q-17.15 10.1 -16.4 9.2" fill="none" stroke="#66ff00" stroke-linecap="round" stroke-linejoin="round" stroke-width="0.05"/>
    </g>
    <g id="sprite3" transform="matrix(1.0, 0.0, 0.0, 1.0, 30.6, 46.6)">
      <use height="93.25" transform="matrix(1.0, 0.0, 0.0, 1.0, -30.6, -46.6)" width="61.2" xlink:href="#shape4"/>
    </g>
    <g id="shape4" transform="matrix(1.0, 0.0, 0.0, 1.0, 30.6, 46.6)">
      <path d="M-0.25 -29.1 Q-2.7 -29.15 -4.55 -30.35 -3.85 -30.9 -3.55 -32.05 -2.0 -37.75 -2.45 -43.85 L-2.4 -43.95 -1.45 -44.95 -1.15 -45.2 -0.5 -45.3 Q-0.95 -42.0 -0.6 -38.6 -0.2 -34.9 -0.25 -31.15 L-0.25 -29.1" fill="#0db5c8" fill-rule="evenodd" stroke="none"/>
      <path d="M-0.25 -29.1 L1.55 -29.25 Q3.1 -29.5 4.3 -30.4 3.8 -30.85 3.85 -31.95 4.15 -36.7 3.65 -41.4 3.5 -42.7 2.7 -43.75 L2.05 -44.6 Q0.9 -45.45 -0.5 -45.3 L-1.15 -45.2 -1.45 -44.95 -2.4 -43.95 -2.45 -43.85 Q-2.0 -37.75 -3.55 -32.05 -3.85 -30.9 -4.55 -30.35 -2.7 -29.15 -0.25 -29.1 M-0.3 -46.55 Q4.5 -45.95 5.05 -41.0 5.4 -38.25 5.0 -35.5 4.7 -33.3 5.35 -31.3 L5.55 -31.35 5.55 -31.4 5.8 -31.3 5.95 -31.25 6.05 -31.05 6.5 -30.85 Q11.3 -28.3 13.8 -23.25 L16.25 -18.0 Q19.2 -11.25 20.45 -3.95 L20.85 -1.45 21.5 3.8 21.9 7.85 21.95 8.05 22.05 9.2 22.3 11.8 23.15 16.05 22.8 16.75 Q24.1 20.05 23.25 23.45 L24.35 26.2 Q25.35 29.6 27.15 32.65 L30.5 38.1 Q30.7 38.45 30.4 38.75 L29.35 39.6 Q28.95 40.2 28.0 40.65 L25.0 42.05 Q18.2 44.9 10.9 46.15 5.15 47.15 -0.5 46.15 L-1.2 46.1 -1.3 45.9 -1.45 45.75 -1.6 45.35 -3.05 41.6 -3.1 41.5 Q-3.4 43.45 -4.2 45.25 L-4.25 45.4 -4.25 45.45 Q-4.5 46.1 -5.2 46.15 -19.45 46.6 -30.55 38.1 L-30.55 37.9 -30.55 37.6 Q-26.9 33.15 -25.2 27.45 -24.55 25.15 -24.3 22.8 L-24.25 22.8 Q-25.55 19.55 -25.25 16.0 L-25.55 15.6 -25.55 11.25 -25.7 10.3 Q-25.95 8.05 -25.6 5.75 L-25.4 4.45 -24.7 1.2 -24.6 0.75 -23.2 -4.2 Q-21.95 -8.15 -20.05 -11.85 -16.3 -19.3 -11.45 -26.2 -9.85 -28.45 -7.75 -30.1 L-5.7 -31.55 -5.3 -31.35 Q-3.25 -36.25 -3.85 -41.9 -4.25 -45.7 -0.6 -46.6 L-0.3 -46.55 M7.55 -28.7 L6.25 -29.6 5.65 -30.0 Q3.3 -27.6 -0.25 -27.75 L-1.8 -27.9 Q-4.25 -28.35 -5.95 -29.9 L-6.1 -30.1 -8.7 -27.8 -9.15 -27.25 -10.0 -26.15 Q-13.5 -21.55 -16.25 -16.45 -18.85 -11.65 -20.95 -6.55 L-22.1 -3.4 -23.5 1.65 Q-24.1 4.15 -24.35 6.7 L-24.45 7.35 -24.45 7.6 -24.45 8.15 -24.45 8.25 -24.55 8.4 -24.55 8.45 -24.55 8.75 -24.3 11.4 -24.3 11.55 -24.3 14.6 -24.3 14.9 -20.8 18.55 Q-16.25 22.35 -9.9 23.45 1.45 25.4 12.5 22.15 14.95 21.4 17.1 20.15 L19.45 18.45 21.3 16.7 Q21.35 16.3 21.65 16.0 L21.65 15.95 21.75 15.8 Q21.25 14.25 21.05 12.75 L20.95 10.75 20.5 8.85 20.4 7.8 20.3 4.6 19.95 1.2 19.65 -0.8 Q18.7 -6.85 16.85 -12.65 15.25 -17.55 12.85 -22.15 10.9 -26.15 7.55 -28.7 M22.35 25.75 L22.25 25.9 Q21.8 26.05 21.6 25.7 22.25 22.25 22.1 18.75 L22.0 17.55 Q20.7 19.85 17.9 21.1 L17.1 21.45 Q5.0 26.75 -8.3 24.9 -14.05 24.1 -19.1 21.2 L-20.5 20.35 Q-22.45 19.0 -24.05 17.3 L-24.15 17.4 Q-23.7 21.4 -21.9 25.05 L-21.9 25.2 -22.05 25.5 -22.2 25.65 -22.9 25.55 -23.35 24.75 Q-23.55 27.1 -24.55 29.45 -25.9 32.65 -27.55 35.6 L-28.9 37.75 Q-18.45 45.35 -5.25 44.75 L-4.95 44.8 Q-5.05 43.15 -4.6 41.4 -4.3 40.35 -4.35 39.2 L-4.35 37.05 -3.75 36.5 -3.55 36.45 -3.3 36.55 -3.15 36.6 Q-2.1 40.85 -0.4 44.85 L1.35 44.9 Q8.35 45.85 15.15 44.2 21.05 42.75 26.4 39.95 L28.4 38.55 28.8 38.1 29.15 37.8 Q24.7 32.35 22.75 25.65 L22.65 25.2 22.35 25.75" fill="#000000" fill-rule="evenodd" stroke="none"/>
      <path d="M-0.5 -45.3 Q0.9 -45.45 2.05 -44.6 L2.7 -43.75 Q3.5 -42.7 3.65 -41.4 4.15 -36.7 3.85 -31.95 3.8 -30.85 4.3 -30.4 3.1 -29.5 1.55 -29.25 L-0.25 -29.1 -0.25 -31.15 Q-0.2 -34.9 -0.6 -38.6 -0.95 -42.0 -0.5 -45.3" fill="#0ecfe4" fill-rule="evenodd" stroke="none"/>
      <path d="M-10.0 -26.15 L-9.15 -27.25 -8.7 -27.8 -6.1 -30.1 -5.95 -29.9 Q-4.25 -28.35 -1.8 -27.9 L-0.25 -27.75 Q3.3 -27.6 5.65 -30.0 L6.25 -29.6 7.55 -28.7 12.55 -17.55 13.65 -14.1 Q14.8 -9.45 15.45 -4.55 L15.75 -2.05 16.05 0.7 12.5 1.7 10.6 2.1 5.55 2.65 4.05 2.7 Q1.8 2.9 -0.45 2.65 L-4.95 2.25 -10.4 1.25 -11.0 1.1 -15.85 -0.3 -17.5 -0.95 -19.45 -1.85 Q-17.95 -10.0 -14.5 -17.65 -12.6 -21.95 -9.85 -26.05 L-10.0 -26.15 M17.1 20.15 Q14.95 21.4 12.5 22.15 1.45 25.4 -9.9 23.45 -16.25 22.35 -20.8 18.55 -21.2 15.95 -21.2 13.25 L-19.4 14.3 Q-15.3 16.75 -10.5 17.55 L-9.4 17.8 -2.45 18.6 5.05 18.05 11.55 17.2 12.55 16.95 17.1 15.05 17.1 15.95 17.1 20.15 M-24.3 11.55 L-24.3 11.4 Q-24.2 11.45 -24.05 11.55 L-24.3 11.55 M-20.35 3.95 Q-17.2 5.9 -14.0 7.0 L-11.4 7.65 -8.95 8.05 -7.95 8.2 -2.95 8.6 -1.95 8.7 2.6 8.55 4.05 8.45 7.15 8.15 8.55 7.85 16.4 6.6 16.4 7.95 16.5 10.55 15.55 10.9 Q11.35 12.55 6.55 13.1 L-1.45 13.5 Q-11.15 13.45 -19.45 9.4 L-20.45 8.95 -20.9 8.75 -20.35 3.95" fill="#f02d0b" fill-rule="evenodd" stroke="none"/>
      <path d="M-10.0 -26.15 L-9.85 -26.05 Q-12.6 -21.95 -14.5 -17.65 -17.95 -10.0 -19.45 -1.85 L-22.1 -3.4 -20.95 -6.55 Q-18.85 -11.65 -16.25 -16.45 -13.5 -21.55 -10.0 -26.15 M16.05 0.7 L15.75 -2.05 15.45 -4.55 Q14.8 -9.45 13.65 -14.1 L12.55 -17.55 7.55 -28.7 Q10.9 -26.15 12.85 -22.15 15.25 -17.55 16.85 -12.65 18.7 -6.85 19.65 -0.8 L17.65 0.1 16.05 0.7 M20.3 4.6 L20.4 7.8 20.5 8.85 16.5 10.55 16.4 7.95 16.4 6.6 17.5 6.3 18.5 5.8 Q19.2 5.25 20.3 4.6 M21.05 12.75 Q21.25 14.25 21.75 15.8 L21.65 15.95 21.65 16.0 Q21.35 16.3 21.3 16.7 L19.45 18.45 17.1 20.15 17.1 15.95 17.1 15.05 19.7 13.6 21.05 12.75 M-20.8 18.55 L-24.3 14.9 -24.3 14.6 -24.3 11.55 -24.05 11.55 -21.2 13.25 Q-21.2 15.95 -20.8 18.55 M-24.35 6.7 Q-24.1 4.15 -23.5 1.65 L-22.8 2.2 -21.6 3.1 -20.35 3.95 -20.9 8.75 -24.35 6.7" fill="#d6280a" fill-rule="evenodd" stroke="none"/>
      <path d="M-19.45 -1.85 L-17.5 -0.95 -15.85 -0.3 -11.0 1.1 -10.4 1.25 -4.95 2.25 -0.45 2.65 Q1.8 2.9 4.05 2.7 L5.55 2.65 10.6 2.1 12.5 1.7 16.05 0.7 17.65 0.1 19.65 -0.8 19.95 1.2 20.3 4.6 Q19.2 5.25 18.5 5.8 L17.5 6.3 16.4 6.6 8.55 7.85 7.15 8.15 4.05 8.45 2.6 8.55 -1.95 8.7 -2.95 8.6 -7.95 8.2 -8.95 8.05 -11.4 7.65 -14.0 7.0 Q-17.2 5.9 -20.35 3.95 L-21.6 3.1 -22.8 2.2 -23.5 1.65 -22.1 -3.4 -19.45 -1.85 M20.5 8.85 L20.95 10.75 21.05 12.75 19.7 13.6 17.1 15.05 12.55 16.95 11.55 17.2 5.05 18.05 -2.45 18.6 -9.4 17.8 -10.5 17.55 Q-15.3 16.75 -19.4 14.3 L-21.2 13.25 -24.05 11.55 Q-24.2 11.45 -24.3 11.4 L-24.55 8.75 -24.45 8.25 -24.45 8.15 -24.45 7.6 -24.45 7.35 -24.35 6.7 -20.9 8.75 -20.45 8.95 -19.45 9.4 Q-11.15 13.45 -1.45 13.5 L6.55 13.1 Q11.35 12.55 15.55 10.9 L16.5 10.55 20.5 8.85" fill="#c62509" fill-rule="evenodd" stroke="none"/>
      <path d="M22.75 25.65 Q24.7 32.35 29.15 37.8 L28.8 38.1 28.4 38.55 26.4 39.95 Q21.05 42.75 15.15 44.2 8.35 45.85 1.35 44.9 L-0.4 44.85 Q-2.1 40.85 -3.15 36.6 L-3.3 36.55 -3.55 36.45 -3.75 36.5 -4.35 37.05 -4.35 39.2 Q-4.3 40.35 -4.6 41.4 -5.05 43.15 -4.95 44.8 L-5.25 44.75 Q-18.45 45.35 -28.9 37.75 L-27.55 35.6 Q-25.9 32.65 -24.55 29.45 -23.55 27.1 -23.35 24.75 L-22.9 25.55 -22.2 25.65 -22.05 25.5 -21.9 25.2 -21.9 25.05 Q-23.7 21.4 -24.15 17.4 L-24.05 17.3 Q-22.45 19.0 -20.5 20.35 L-19.1 21.2 Q-14.05 24.1 -8.3 24.9 5.0 26.75 17.1 21.45 L17.9 21.1 Q20.7 19.85 22.0 17.55 L22.1 18.75 Q22.25 22.25 21.6 25.7 21.8 26.05 22.25 25.9 L22.35 25.75 22.75 25.65" fill="#666666" fill-rule="evenodd" stroke="none"/>
    </g>
    <g id="sprite4" transform="matrix(1.0, 0.0, 0.0, 1.0, 42.85, 39.8)">
      <use height="75.15" transform="matrix(1.0, 0.0, 0.0, 1.0, -42.85, -39.8)" width="87.3" xlink:href="#sprite5"/>
      <use height="37.7" transform="matrix(1.0, 0.0, 0.0, 1.0, -25.2, -27.95)" width="49.5" xlink:href="#sprite8"/>
      <use height="36.0" transform="matrix(0.9966, -0.0792, 0.0792, 0.9966, -34.3245, 4.8562)" width="69.7" xlink:href="#button0"/>
      <use height="5.7" transform="matrix(0.9966, -0.0792, 0.0792, 0.9966, -18.6065, 33.1216)" width="40.65" xlink:href="#sprite11"/>
      <use height="22.4" transform="matrix(0.9966, -0.0792, 0.0792, 0.9966, -17.0786, 1.3505)" width="34.4" xlink:href="#sprite12"/>
    </g>
    <g id="sprite5" transform="matrix(1.0, 0.0, 0.0, 1.0, 42.9, 38.6)">
      <use height="68.55" transform="matrix(0.9994, 0.0085, -0.0085, 0.9994, 23.2973, -32.1191)" width="21.1" xlink:href="#sprite6"/>
      <use height="57.0" transform="matrix(0.9966, -0.0792, 0.0792, 0.9966, -35.6431, -33.2916)" width="67.25" xlink:href="#sprite7"/>
      <use height="68.55" transform="matrix(-0.9994, 0.0085, 0.0085, 0.9994, -21.7973, -33.1191)" width="21.1" xlink:href="#sprite6"/>
    </g>
    <g id="sprite6" transform="matrix(1.0, 0.0, 0.0, 1.0, 10.55, 34.3)">
      <use height="68.55" transform="matrix(1.0, 0.0, 0.0, 1.0, -10.55, -34.3)" width="21.1" xlink:href="#shape5"/>
    </g>
    <g id="shape5" transform="matrix(1.0, 0.0, 0.0, 1.0, 10.55, 34.3)">
      <path d="M6.6 -9.2 Q5.55 -23.75 0.1 -29.7 L-8.65 -27.2 -10.55 -29.45 Q-7.8 -31.05 -2.0 -32.9 4.45 -34.95 5.35 -33.95 10.2 -28.6 10.5 -4.3 10.65 5.1 10.0 14.75 L8.75 32.2 Q7.85 35.65 6.4 33.35 7.25 -0.15 6.6 -9.2" fill="#000000" fill-rule="evenodd" stroke="none"/>
    </g>
    <g id="sprite7" transform="matrix(1.0, 0.0, 0.0, 1.0, 33.6, 28.5)">
      <use height="57.0" transform="matrix(1.0, 0.0, 0.0, 1.0, -33.6, -28.5)" width="67.25" xlink:href="#shape6"/>
    </g>
    <g id="shape6" transform="matrix(1.0, 0.0, 0.0, 1.0, 33.6, 28.5)">
      <path d="M-23.75 20.15 Q-13.9 28.5 0.0 28.5 13.9 28.5 23.8 20.15 33.65 11.8 33.65 0.0 33.65 -11.8 23.8 -20.15 13.9 -28.5 0.0 -28.5 -13.9 -28.5 -23.75 -20.15 -33.6 -11.8 -33.6 0.0 -33.6 11.8 -23.75 20.15" fill="url(#gradient0)" fill-rule="evenodd" stroke="none"/>
    </g>
    <radialGradient cx="0" cy="0" gradientTransform="matrix(0.0435, 0.0, 0.0, 0.0435, 1.35, -6.55)" gradientUnits="userSpaceOnUse" id="gradient0" r="819.2" spreadMethod="pad">
      <stop offset="0.0" stop-color="#54b4cc"/>
      <stop offset="0.7176470588235294" stop-color="#54b4cc"/>
      <stop offset="1.0" stop-color="#3e8699"/>
    </radialGradient>
    <g id="sprite8" transform="matrix(1.0, 0.0, 0.0, 1.0, 24.8, 18.8)">
      <use height="34.35" transform="matrix(0.9966, -0.0792, 0.0792, 0.9966, -24.8179, -15.3403)" width="21.5" xlink:href="#sprite9"/>
      <use height="34.35" transform="matrix(-0.9984, 0.0487, 0.0487, 0.9984, 23.0507, -18.7968)" width="21.5" xlink:href="#sprite9"/>
    </g>
    <g id="sprite9" transform="matrix(1.0, 0.0, 0.0, 1.0, 10.75, 17.1)">
      <use height="34.35" transform="matrix(1.0, 0.0, 0.0, 1.0, -10.75, -17.1)" width="21.5" xlink:href="#shape7"/>
      <use height="26.55" transform="matrix(1.0, 0.0, 0.0, 1.0, -9.7998, -10.4998)" width="19.65" xlink:href="#sprite10"/>
    </g>
    <g id="shape7" transform="matrix(1.0, 0.0, 0.0, 1.0, 10.75, 17.1)">
      <path d="M5.95 -10.15 Q7.85 -9.0 9.2 -6.25 11.0 -2.55 10.7 5.25 10.55 10.6 9.9 13.45 9.2 16.85 -0.3 17.2 L-5.65 17.05 -7.8 16.65 Q-9.35 15.2 -10.15 11.4 -10.9 7.7 -10.7 2.75 -10.45 -2.95 -7.75 -6.95 -4.95 -11.05 -0.7 -11.35 L1.55 -11.5 Q3.85 -11.4 5.35 -10.45 L5.95 -10.15 M9.15 -1.55 L9.35 -1.55 9.25 -1.8 9.05 -2.35 9.05 -2.4 9.05 -2.5 8.6 -4.55 7.9 -6.15 7.5 -6.75 7.75 -6.65 5.65 -9.15 Q4.05 -10.35 1.2 -10.5 -5.65 -10.9 -8.85 -1.8 L-8.7 -2.0 -9.2 0.35 -9.25 0.7 -9.35 3.0 -9.45 3.2 -9.55 3.55 -9.55 3.65 -9.2 5.1 -9.2 5.3 -9.3 5.45 -9.35 6.05 -9.4 6.2 -9.2 6.45 -9.15 6.75 -9.0 6.5 -8.9 6.5 -8.85 6.5 -8.6 6.5 -7.15 4.8 -4.1 2.55 Q-1.5 1.1 1.2 -0.1 1.8 -0.1 2.3 -0.45 L2.95 -0.65 4.75 -1.05 8.95 -1.4 9.15 -1.35 9.15 -1.55 M9.3 0.2 L4.25 0.7 Q5.2 2.75 5.2 6.2 5.2 10.1 4.15 11.95 2.85 14.35 -0.4 14.45 -5.35 14.6 -6.0 7.9 L-0.35 6.6 -4.35 4.55 -6.2 6.0 Q-7.8 7.35 -8.95 9.05 L-8.55 11.15 Q-7.8 14.5 -6.45 15.85 L-6.85 15.9 -5.5 16.1 -0.35 16.2 Q4.55 16.05 7.55 13.25 8.85 12.05 9.25 5.0 L9.3 0.2 M-0.3 -16.95 Q2.5 -17.7 3.7 -15.2 -1.55 -17.35 -5.3 -12.25 L-4.25 -14.05 Q-2.8 -16.3 -0.3 -16.95" fill="#000000" fill-rule="evenodd" stroke="none"/>
      <path d="M-9.2 5.1 L-9.2 5.25 -9.2 5.3 -9.2 5.1 M-9.2 6.45 L-9.0 6.5 -9.15 6.75 -9.2 6.45 M4.75 -1.05 L5.55 -1.25 6.65 -1.45 7.8 -1.5 8.0 -1.5 9.15 -1.55 9.15 -1.35 8.95 -1.4 4.75 -1.05 M9.3 0.2 L9.25 5.0 Q8.85 12.05 7.55 13.25 4.55 16.05 -0.35 16.2 L-5.5 16.1 -6.85 15.9 -6.45 15.85 Q-7.8 14.5 -8.55 11.15 L-8.95 9.05 Q-7.8 7.35 -6.2 6.0 L-4.35 4.55 -0.35 6.6 -6.0 7.9 Q-5.35 14.6 -0.4 14.45 2.85 14.35 4.15 11.95 5.2 10.1 5.2 6.2 5.2 2.75 4.25 0.7 L9.3 0.2" fill="#ffffff" fill-rule="evenodd" stroke="none"/>
      <path d="M-9.2 5.1 L-9.55 3.65 -9.55 3.55 -9.45 3.2 -9.35 3.0 -9.25 0.7 -9.2 0.35 -8.7 -2.0 -8.85 -1.8 Q-5.65 -10.9 1.2 -10.5 4.05 -10.35 5.65 -9.15 L7.75 -6.65 7.5 -6.75 7.9 -6.15 8.6 -4.55 9.05 -2.5 9.05 -2.4 9.05 -2.35 9.25 -1.8 9.35 -1.55 9.15 -1.55 8.0 -1.5 7.8 -1.5 6.65 -1.45 5.55 -1.25 4.75 -1.05 2.95 -0.65 2.3 -0.45 Q1.8 -0.1 1.2 -0.1 -1.5 1.1 -4.1 2.55 L-7.15 4.8 -8.6 6.5 -8.85 6.5 -8.9 6.5 -9.0 6.5 -9.2 6.45 -9.4 6.2 -9.35 6.05 -9.3 5.45 -9.2 5.3 -9.2 5.25 -9.2 5.1" fill="#53b3cb" fill-rule="evenodd" stroke="none"/>
    </g>
    <g id="button0" transform="matrix(1.0, 0.0, 0.0, 1.0, 34.7, 16.95)">
      <use height="36.0" transform="matrix(1.0, 0.0, 0.0, 1.0, -34.7, -16.95)" width="69.7" xlink:href="#shape8"/>
    </g>
    <g id="shape8" transform="matrix(1.0, 0.0, 0.0, 1.0, 34.7, 16.95)">
      <path d="M28.15 7.35 L25.65 6.35 Q23.4 5.5 21.8 3.4 L20.85 1.85 19.15 -0.9 Q16.7 -4.8 12.35 -6.4 9.2 -7.55 4.2 -7.65 L8.85 -7.55 13.9 -6.85 Q16.5 -6.25 18.15 -4.1 L21.25 -0.05 Q22.85 2.05 25.2 3.35 L29.3 5.85 28.15 7.35 M-5.8 -8.0 L-14.35 -8.4 Q-18.65 -7.1 -20.35 -6.15 -23.05 -4.65 -24.6 -1.9 L-26.35 1.7 -26.35 0.85 Q-26.35 -0.4 -27.2 -0.6 L-27.0 -0.9 Q-21.5 -9.15 -15.75 -9.15 L-10.05 -8.55 -5.8 -8.0 M-27.5 3.6 Q-28.8 5.1 -30.55 5.1 L-31.75 3.25 Q-30.2 3.1 -29.0 1.85 -28.9 3.6 -27.6 3.6 L-27.5 3.6 M26.4 9.3 L27.3 8.35 26.4 9.3 M-25.8 -12.0 L-33.25 -3.65 Q-35.4 -5.35 -34.4 -7.85 L-32.2 -12.3 Q-30.95 -14.45 -31.0 -16.9 L-25.8 -12.0" fill="#a88b69" fill-rule="evenodd" stroke="none"/>
      <path d="M4.2 -7.65 Q9.2 -7.55 12.35 -6.4 16.7 -4.8 19.15 -0.9 L20.85 1.85 21.8 3.4 Q23.4 5.5 25.65 6.35 L28.15 7.35 27.3 8.35 26.4 9.3 Q23.0 12.65 18.5 14.9 L16.45 15.85 11.7 17.75 7.05 18.8 2.2 19.0 -3.0 19.05 -7.95 18.75 -12.45 17.9 Q-14.6 17.35 -16.45 16.25 L-20.45 14.1 Q-22.5 13.1 -24.4 11.8 L-28.1 8.8 Q-30.05 6.85 -30.55 5.1 -28.8 5.1 -27.5 3.6 -26.6 3.5 -26.4 1.85 L-26.35 1.7 -24.6 -1.9 Q-23.05 -4.65 -20.35 -6.15 -18.65 -7.1 -14.35 -8.4 L-5.8 -8.0 4.2 -7.65 M22.15 5.75 Q22.15 4.75 20.9 4.75 20.0 4.75 19.35 5.45 18.75 6.15 18.75 7.1 18.75 8.0 19.75 8.0 20.75 8.0 21.45 7.35 22.15 6.7 22.15 5.75 M-23.65 -2.6 Q-24.55 -2.6 -24.55 -1.15 -24.55 0.1 -23.65 0.1 -22.85 0.1 -22.85 -1.65 -22.85 -2.6 -23.65 -2.6" fill="#8c7357" fill-rule="evenodd" stroke="none"/>
      <path d="M29.3 5.85 L25.2 3.35 Q22.85 2.05 21.25 -0.05 L18.15 -4.1 Q16.5 -6.25 13.9 -6.85 L8.85 -7.55 4.2 -7.65 -5.8 -8.0 -10.05 -8.55 -15.75 -9.15 Q-21.5 -9.15 -27.0 -0.9 L-27.2 -0.6 Q-27.95 -0.6 -28.45 0.1 -29.0 0.85 -29.0 1.85 -30.2 3.1 -31.75 3.25 L-33.25 -3.65 -25.8 -12.0 -25.5 -11.75 Q-21.6 -14.35 -15.0 -15.75 -8.4 -17.1 -0.9 -16.9 16.05 -16.4 26.3 -9.15 26.85 -7.7 28.1 -5.7 29.45 -3.5 29.85 -1.0 L30.6 3.95 29.3 5.85 M18.5 14.9 Q23.0 12.65 26.4 9.3 22.95 12.85 18.5 14.9 M24.15 -2.0 Q24.15 -2.95 23.5 -3.15 22.65 -3.3 22.65 -2.0 22.65 -0.5 23.15 -0.5 24.15 -0.35 24.15 -2.0 M26.45 3.2 Q27.1 3.25 27.1 1.9 L27.1 1.85 Q27.1 0.4 26.1 0.8 25.8 0.9 25.85 1.85 L25.85 2.0 Q25.85 3.15 26.45 3.2 M-31.8 -3.7 Q-31.8 -2.5 -31.3 -2.5 -30.8 -2.5 -30.8 -4.2 -30.8 -5.1 -31.3 -5.1 -31.8 -5.1 -31.8 -3.7 M-28.3 -5.95 Q-28.95 -5.95 -28.95 -4.5 -28.95 -3.2 -28.3 -3.2 -27.7 -3.2 -27.7 -4.95 -27.7 -5.95 -28.3 -5.95" fill="#c19f79" fill-rule="evenodd" stroke="none"/>
      <path d="M26.3 -9.15 L30.7 -14.45 31.0 -13.15 Q32.15 -8.55 34.5 -4.35 35.55 -2.45 34.4 -0.45 33.2 1.55 31.4 3.05 L30.6 3.95 29.85 -1.0 Q29.45 -3.5 28.1 -5.7 26.85 -7.7 26.3 -9.15" fill="#b2936f" fill-rule="evenodd" stroke="none"/>
      <path d="M-26.35 1.7 L-26.4 1.85 Q-26.6 3.5 -27.5 3.6 L-27.6 3.6 Q-28.9 3.6 -29.0 1.85 -29.0 0.85 -28.45 0.1 -27.95 -0.6 -27.2 -0.6 -26.35 -0.4 -26.35 0.85 L-26.35 1.7 M24.15 -2.0 Q24.15 -0.35 23.15 -0.5 22.65 -0.5 22.65 -2.0 22.65 -3.3 23.5 -3.15 24.15 -2.95 24.15 -2.0 M26.45 3.2 Q25.85 3.15 25.85 2.0 L25.85 1.85 Q25.8 0.9 26.1 0.8 27.1 0.4 27.1 1.85 L27.1 1.9 Q27.1 3.25 26.45 3.2 M22.15 5.75 Q22.15 6.7 21.45 7.35 20.75 8.0 19.75 8.0 18.75 8.0 18.75 7.1 18.75 6.15 19.35 5.45 20.0 4.75 20.9 4.75 22.15 4.75 22.15 5.75 M-31.8 -3.7 Q-31.8 -5.1 -31.3 -5.1 -30.8 -5.1 -30.8 -4.2 -30.8 -2.5 -31.3 -2.5 -31.8 -2.5 -31.8 -3.7 M-28.3 -5.95 Q-27.7 -5.95 -27.7 -4.95 -27.7 -3.2 -28.3 -3.2 -28.95 -3.2 -28.95 -4.5 -28.95 -5.95 -28.3 -5.95 M-23.65 -2.6 Q-22.85 -2.6 -22.85 -1.65 -22.85 0.1 -23.65 0.1 -24.55 0.1 -24.55 -1.15 -24.55 -2.6 -23.65 -2.6" fill="#352c21" fill-rule="evenodd" stroke="none"/>
    </g>
    <g id="sprite11" transform="matrix(1.0, 0.0, 0.0, 1.0, 20.35, 2.85)">
      <use height="5.7" transform="matrix(1.0, 0.0, 0.0, 1.0, -20.35, -2.85)" width="40.65" xlink:href="#shape9"/>
    </g>
    <g id="shape9" transform="matrix(1.0, 0.0, 0.0, 1.0, 20.35, 2.85)">
      <path d="M-17.95 -1.45 L0.05 -1.2 12.65 -0.65 17.4 -0.35 20.3 -1.6 -0.6 -1.95 -20.35 -2.85 -17.95 -1.45" fill="#65543f" fill-rule="evenodd" stroke="none"/>
      <path d="M-4.35 2.8 L7.25 2.7 Q11.05 2.4 13.85 1.25 0.7 -0.65 -15.75 0.1 -11.7 2.3 -4.35 2.8" fill="#8c7357" fill-rule="evenodd" stroke="none"/>
    </g>
    <g id="sprite12" transform="matrix(1.0, 0.0, 0.0, 1.0, 17.2, 11.2)">
      <use height="22.4" transform="matrix(1.0, 0.0, 0.0, 1.0, -17.2, -11.2)" width="34.4" xlink:href="#shape10"/>
    </g>
    <g id="shape10" transform="matrix(1.0, 0.0, 0.0, 1.0, 17.2, 11.2)">
      <path d="M-11.8 8.6 Q-6.85 11.2 0.95 11.2 8.6 11.2 12.45 8.9 16.85 6.25 17.2 0.05 17.45 -4.4 12.3 -7.8 7.15 -11.2 0.05 -11.2 -7.5 -11.2 -12.05 -8.5 -17.0 -5.5 -17.2 0.05 -17.35 5.6 -11.8 8.6" fill="url(#gradient1)" fill-rule="evenodd" stroke="none"/>
      <path d="M2.2 -0.55 Q3.45 0.3 5.2 0.3 6.95 0.3 8.2 -0.55 9.45 -1.45 9.45 -2.7 9.45 -3.95 8.2 -4.8 6.95 -5.7 5.2 -5.7 3.45 -5.7 2.2 -4.8 0.95 -3.95 0.95 -2.7 0.95 -1.45 2.2 -0.55" fill="url(#gradient2)" fill-rule="evenodd" stroke="none"/>
    </g>
    <radialGradient cx="0" cy="0" gradientTransform="matrix(0.022, 0.0, 0.0, 0.022, 0.65, -2.1)" gradientUnits="userSpaceOnUse" id="gradient1" r="819.2" spreadMethod="pad">
      <stop offset="0.0" stop-color="#202020"/>
      <stop offset="0.7843137254901961" stop-color="#0a0a0a"/>
      <stop offset="1.0" stop-color="#0a0a0a"/>
    </radialGradient>
    <radialGradient cx="0" cy="0" gradientTransform="matrix(0.0052, 0.0, 0.0, 0.0052, 5.2, -2.7)" gradientUnits="userSpaceOnUse" id="gradient2" r="819.2" spreadMethod="pad">
      <stop offset="0.0" stop-color="#5d5d5d"/>
      <stop offset="0.37254901960784315" stop-color="#5d5d5d"/>
      <stop offset="1.0" stop-color="#202020"/>
    </radialGradient>
    <g id="sprite13" transform="matrix(1.0, 0.0, 0.0, 1.0, 44.9, 27.6)">
      <use height="54.95" transform="matrix(1.0, 0.0, 0.0, 1.0, -44.9, -27.6)" width="86.4" xlink:href="#sprite14"/>
    </g>
    <g id="sprite14" transform="matrix(1.0, 0.0, 0.0, 1.0, 43.2, 27.5)">
      <use height="54.95" transform="matrix(1.0, 0.0, 0.0, 1.0, -43.2, -27.5)" width="86.4" xlink:href="#shape11"/>
    </g>
    <g id="shape11" transform="matrix(1.0, 0.0, 0.0, 1.0, 43.2, 27.5)">
      <path d="M-0.55 18.15 L-0.6 18.05 -0.55 18.05 -0.55 18.15 M-14.8 -6.15 L-14.75 -6.1 -14.8 -6.1 -14.8 -6.15 M-34.85 9.85 L-34.75 9.95 -34.85 9.95 -34.85 9.85 M-16.25 -10.2 L-16.15 -10.1 -16.2 -10.05 -16.25 -10.2" fill="#000000" fill-rule="evenodd" stroke="none"/>
      <path d="M-1.45 -23.85 L-1.35 -23.2 -1.15 -21.8 0.0 -15.1 -0.05 -15.1 -0.05 -15.0 -0.05 -14.85 0.0 -14.8 0.05 -14.75 0.1 -14.55 0.45 -14.5 0.5 -14.6 0.5 -14.65 1.5 -14.55 6.85 -14.4 6.0 -13.65 2.9 -10.9 2.5 -10.45 2.15 -10.15 2.0 -9.9 1.8 -9.7 1.8 -9.65 1.75 -9.65 1.75 -9.6 1.75 -9.1 2.1 -8.0 Q2.9 -5.2 4.05 -2.55 L-1.05 -6.4 -1.1 -6.45 -1.3 -6.55 -1.55 -6.4 -1.5 -6.3 -1.45 -6.3 -6.1 -2.35 -6.2 -2.45 -4.25 -9.1 -4.3 -9.2 -4.35 -9.3 -4.45 -9.35 -4.5 -9.35 -5.05 -10.05 Q-7.45 -12.7 -10.35 -14.6 -7.55 -14.4 -4.65 -14.5 -4.0 -14.55 -3.6 -14.85 L-3.4 -14.85 -2.9 -16.6 -1.6 -23.85 -1.45 -23.85 M34.75 9.65 L33.8 10.55 31.15 13.35 Q30.35 14.1 30.05 15.05 L29.95 15.15 29.95 15.25 30.0 15.3 29.95 15.4 30.1 15.55 Q30.65 16.55 31.65 17.3 L33.55 19.1 28.75 19.1 Q28.25 19.1 27.95 19.35 L27.9 19.35 23.4 25.8 24.2 21.55 24.35 19.45 24.25 19.0 17.9 18.9 22.5 16.25 24.25 15.0 24.4 14.9 24.4 14.85 24.6 14.65 24.55 14.55 24.5 14.45 24.45 14.45 24.6 10.65 24.6 4.8 24.85 5.45 25.85 7.4 Q27.25 9.75 28.25 12.25 L28.55 12.35 28.6 12.3 28.65 12.25 28.75 12.1 29.9 11.85 34.75 9.65 M-31.5 21.2 L-29.7 15.55 -29.65 15.45 -29.5 15.05 -29.45 14.95 -29.4 14.8 -29.45 14.7 -29.5 14.65 -29.55 14.6 -30.4 13.85 -33.25 12.35 -31.75 11.95 -30.45 11.6 -29.05 10.95 -28.8 10.95 -28.65 10.5 Q-28.15 7.25 -28.15 4.0 L-26.15 10.65 -25.95 10.75 -25.5 10.9 -19.3 10.6 -20.85 12.1 -22.5 13.5 -23.8 14.9 -23.85 15.0 -23.9 15.15 -23.85 15.25 -23.6 15.8 -23.6 15.95 Q-22.8 18.9 -21.55 21.65 L-21.55 21.8 -21.55 21.9 -21.15 22.65 -24.2 20.4 -24.2 20.35 -27.05 18.0 -27.05 17.95 -27.15 17.8 Q-27.55 17.6 -27.75 18.0 L-31.45 21.25 -31.5 21.2" fill="#ffff66" fill-rule="evenodd" stroke="none"/>
      <path d="M-6.1 -2.35 L-1.45 -6.3 -1.5 -6.3 -1.55 -6.4 -1.3 -6.55 -1.1 -6.45 -1.05 -6.4 4.05 -2.55 Q2.9 -5.2 2.1 -8.0 L1.75 -9.1 1.75 -9.6 1.75 -9.65 1.8 -9.65 1.8 -9.7 2.0 -9.9 2.15 -10.15 2.5 -10.45 2.9 -10.9 6.0 -13.65 6.85 -14.4 1.5 -14.55 0.5 -14.65 0.5 -14.6 0.45 -14.5 0.1 -14.55 0.05 -14.75 0.0 -14.8 -0.05 -14.85 -0.05 -15.0 -0.05 -15.1 0.0 -15.1 -1.15 -21.8 -1.35 -23.2 -1.45 -23.85 -1.5 -24.25 -1.6 -23.85 -2.9 -16.6 -3.4 -14.85 -3.6 -14.85 Q-4.0 -14.55 -4.65 -14.5 -7.55 -14.4 -10.35 -14.6 -7.45 -12.7 -5.05 -10.05 L-4.5 -9.35 -4.45 -9.35 -4.35 -9.3 -4.3 -9.2 -4.25 -9.1 -6.2 -2.45 -6.25 -2.25 -6.1 -2.35 M0.45 -15.3 L7.85 -15.0 7.9 -15.0 7.95 -14.95 8.0 -14.85 8.0 -14.75 7.5 -14.1 2.25 -9.45 Q3.3 -6.2 4.65 -3.05 L4.8 -2.45 5.25 -1.5 5.3 -1.3 5.3 -1.25 5.35 -1.2 5.35 -1.05 5.3 -0.95 4.8 -0.9 4.6 -1.2 3.9 -1.7 2.75 -2.65 Q0.7 -4.25 -1.15 -6.0 L-3.9 -3.45 -6.85 -0.8 -7.15 -0.85 Q-7.35 -1.15 -7.2 -1.4 L-7.1 -1.5 Q-6.05 -5.0 -5.15 -8.5 L-4.95 -8.95 -5.75 -9.8 -6.8 -10.95 -10.9 -14.45 -10.85 -14.6 -10.85 -14.65 -10.9 -14.7 -10.9 -14.75 -10.9 -14.85 -10.85 -14.95 -4.5 -15.35 -4.0 -15.35 -3.9 -15.85 -3.85 -15.95 -3.7 -16.15 -3.35 -18.55 -2.0 -25.75 -1.4 -27.5 -1.15 -26.65 -0.95 -25.45 Q-0.65 -21.75 0.05 -18.1 L0.45 -15.3 M34.75 9.65 L29.9 11.85 28.75 12.1 28.65 12.25 28.6 12.3 28.55 12.35 28.25 12.25 Q27.25 9.75 25.85 7.4 L24.85 5.45 24.6 4.8 24.6 10.65 24.45 14.45 24.5 14.45 24.55 14.55 24.6 14.65 24.4 14.85 24.4 14.9 24.25 15.0 22.5 16.25 17.9 18.9 24.25 19.0 24.35 19.45 24.2 21.55 23.4 25.8 27.9 19.35 27.95 19.35 Q28.25 19.1 28.75 19.1 L33.55 19.1 31.65 17.3 Q30.65 16.55 30.1 15.55 L29.95 15.4 30.0 15.3 29.95 15.25 29.95 15.15 30.05 15.05 Q30.35 14.1 31.15 13.35 L33.8 10.55 34.75 9.65 M36.2 8.3 L36.3 8.3 36.4 8.35 Q36.5 9.2 35.6 9.8 L34.15 11.1 30.55 15.25 34.45 19.05 34.5 19.05 34.6 19.05 34.7 19.1 34.75 19.2 34.8 19.35 34.8 19.4 34.85 19.55 Q34.5 20.05 34.05 19.7 L28.25 19.8 23.55 26.8 23.15 27.4 22.65 27.4 Q22.7 25.6 23.05 23.75 L23.45 21.4 23.8 19.55 16.75 19.35 16.5 19.05 22.85 15.1 24.0 14.5 23.8 7.55 Q23.8 5.3 24.15 3.2 L24.35 3.15 24.5 3.15 24.55 3.25 24.65 3.3 Q26.05 6.65 27.75 9.8 L28.7 11.6 Q29.2 11.2 29.9 11.0 L31.6 10.35 Q33.9 9.25 36.2 8.3 M-17.65 10.0 L-17.65 10.1 -23.0 14.9 -23.25 15.1 -23.25 15.2 -23.2 15.3 -20.95 21.4 -20.95 21.55 Q-20.75 21.8 -20.7 22.1 L-20.7 22.2 Q-20.15 23.0 -19.85 23.95 L-19.8 24.0 -19.8 24.1 -19.75 24.3 -19.7 24.35 -19.85 24.5 -19.95 24.6 -20.25 24.55 -20.5 24.05 -21.5 23.3 -25.75 19.9 -27.35 18.55 -32.2 22.8 -32.75 22.65 -32.6 22.1 -32.55 22.05 Q-31.35 19.15 -30.45 16.15 L-30.45 16.1 -30.05 14.95 -30.75 14.55 Q-32.5 13.35 -34.4 12.35 L-34.4 12.3 -34.4 12.15 Q-33.05 11.5 -31.5 11.2 L-29.25 10.45 -29.2 10.3 -29.2 10.2 -29.15 10.1 -28.95 7.75 -28.9 7.55 -28.75 4.05 -28.7 3.8 Q-28.85 3.25 -28.65 2.65 L-28.55 2.55 -28.45 2.45 -28.35 2.4 -28.2 2.45 Q-28.05 2.65 -28.05 2.9 -27.4 4.05 -27.2 5.45 L-27.2 5.5 -25.55 10.35 -18.25 9.8 -17.85 9.85 -17.75 9.85 -17.7 9.9 -17.65 10.0 M-31.45 21.25 L-27.75 18.0 Q-27.55 17.6 -27.15 17.8 L-27.05 17.95 -27.05 18.0 -24.2 20.35 -24.2 20.4 -21.15 22.65 -21.55 21.9 -21.55 21.8 -21.55 21.65 Q-22.8 18.9 -23.6 15.95 L-23.6 15.8 -23.85 15.25 -23.9 15.15 -23.85 15.0 -23.8 14.9 -22.5 13.5 -20.85 12.1 -19.3 10.6 -25.5 10.9 -25.95 10.75 -26.15 10.65 -28.15 4.0 Q-28.15 7.25 -28.65 10.5 L-28.8 10.95 -29.05 10.95 -30.45 11.6 -31.75 11.95 -33.25 12.35 -30.4 13.85 -29.55 14.6 -29.5 14.65 -29.45 14.7 -29.4 14.8 -29.45 14.95 -29.5 15.05 -29.65 15.45 -29.7 15.55 -31.5 21.2 -31.55 21.3 -31.45 21.25" fill="#ff6600" fill-rule="evenodd" stroke="none"/>
      <path d="M3.05 -17.7 Q10.45 -17.05 17.65 -15.3 24.85 -13.55 31.75 -10.8 36.4 -8.95 40.4 -6.25 32.6 -9.85 24.1 -12.8 18.7 -14.65 13.05 -15.7 L2.3 -17.4 2.7 -17.65 3.05 -17.7 M4.4 -9.65 L6.05 -10.05 11.55 -10.5 Q18.95 -10.55 26.25 -9.1 33.55 -7.6 40.15 -4.25 41.15 -3.75 41.95 -3.05 L42.25 -2.75 Q38.6 -5.05 34.35 -6.3 27.35 -8.4 20.1 -9.25 12.5 -10.2 4.95 -9.6 L4.4 -9.65 M22.55 -4.9 Q29.95 -4.4 37.05 -2.0 40.65 -0.75 42.65 2.35 L43.1 3.65 Q43.6 6.7 40.95 7.2 41.9 6.6 42.25 5.4 43.35 2.0 40.15 0.5 31.2 -3.65 21.45 -4.8 L22.55 -4.9 M-0.55 18.05 Q8.45 17.3 17.35 15.35 L21.7 14.05 22.15 14.25 22.2 14.35 Q15.05 17.3 7.05 17.9 L-0.55 18.15 -0.55 18.05 M17.15 22.35 Q5.6 25.05 -6.25 22.35 L-11.7 20.9 Q-13.85 20.3 -14.9 19.15 -8.0 21.65 -0.55 22.5 6.9 23.4 14.3 22.55 L17.15 22.35 M19.55 9.5 L21.55 9.15 Q14.75 11.75 7.2 11.75 L-2.2 11.9 -13.4 11.9 8.15 10.75 19.55 9.5 M-27.6 -0.75 Q-31.45 0.25 -32.25 3.85 -32.8 6.45 -30.85 8.4 -32.5 8.0 -32.95 6.0 -33.5 3.8 -32.3 1.9 -30.8 -0.55 -27.95 -1.35 L-26.05 -2.05 Q-25.9 -1.2 -27.6 -0.75 M-16.2 -10.05 Q-23.2 -8.35 -30.15 -5.35 -34.25 -3.55 -36.9 -0.35 -28.65 -4.95 -19.15 -6.25 L-16.9 -6.4 -14.8 -6.15 -14.8 -6.1 Q-21.6 -5.5 -28.2 -3.45 -34.05 -1.65 -38.7 2.2 L-38.75 2.25 Q-39.8 4.05 -38.8 5.9 -37.55 8.2 -35.35 9.55 L-34.85 9.85 -34.85 9.95 Q-37.6 9.8 -39.2 7.3 -40.45 5.35 -40.15 3.45 L-40.45 3.7 Q-43.05 6.2 -41.95 9.5 -40.75 13.1 -37.35 15.1 L-35.2 16.3 -32.95 17.15 -32.85 17.25 -32.8 17.3 -32.4 17.4 -32.25 17.45 -32.2 17.65 -32.25 17.7 -32.3 17.75 -33.05 17.95 Q-38.35 16.35 -41.7 12.0 -44.35 8.5 -42.25 4.7 -41.05 2.55 -39.15 1.1 -36.75 -2.65 -32.75 -4.75 -25.3 -8.6 -17.15 -10.35 L-16.25 -10.2 -16.2 -10.05" fill="#999999" fill-rule="evenodd" stroke="none"/>
    </g>
  </defs>
</svg>
