<?xml version="1.0" encoding="UTF-8" standalone="no"?>
<svg xmlns:xlink="http://www.w3.org/1999/xlink" height="276.05px" width="459.05px" xmlns="http://www.w3.org/2000/svg">
  <g transform="matrix(1.0, 0.0, 0.0, 1.0, 230.0, 130.35)">
    <use height="197.25" transform="matrix(1.3995, 0.0, 0.0, 1.3995, -229.9904, -130.3731)" width="328.0" xlink:href="#sprite0"/>
  </g>
  <defs>
    <g id="sprite0" transform="matrix(1.0, 0.0, 0.0, 1.0, 161.05, 94.8)">
      <use height="197.25" transform="matrix(1.0, 0.0, 0.0, 1.0, -161.05, -94.8)" width="328.0" xlink:href="#shape0"/>
    </g>
    <g id="shape0" transform="matrix(1.0, 0.0, 0.0, 1.0, 161.05, 94.8)">
      <path d="M164.8 -76.25 Q166.95 -72.05 166.95 -67.05 L166.95 81.05 Q166.95 89.9 160.2 96.15 153.5 102.4 143.95 102.45 L-130.55 102.45 Q-140.1 102.4 -146.8 96.15 -153.55 89.9 -153.55 81.05 L-153.55 -67.05 Q-153.55 -75.9 -146.8 -82.2 -143.75 -85.05 -140.15 -86.55 -135.8 -88.45 -130.55 -88.45 L143.95 -88.45 Q153.5 -88.45 160.2 -82.2 163.15 -79.45 164.8 -76.25" fill="url(#gradient0)" fill-rule="evenodd" stroke="none"/>
      <path d="M153.0 -87.65 Q156.15 -84.5 157.9 -80.8 160.2 -76.0 160.2 -70.3 L160.2 70.45 Q160.2 80.55 153.0 87.75 145.85 94.9 135.7 94.95 L-136.6 94.95 Q-146.75 94.9 -153.9 87.75 -161.1 80.55 -161.05 70.45 L-161.05 -70.3 Q-161.1 -80.45 -153.9 -87.65 -150.65 -90.9 -146.8 -92.65 -142.15 -94.8 -136.6 -94.8 L135.7 -94.8 Q145.85 -94.8 153.0 -87.65 M133.9 -81.6 Q130.75 -82.55 127.2 -82.55 L-128.05 -82.55 Q-133.15 -82.55 -137.5 -80.65 -141.3 -78.95 -144.5 -75.75 -149.75 -70.5 -150.95 -63.6 L-151.3 -59.3 -151.3 59.45 Q-151.3 69.05 -144.5 75.85 -141.75 78.65 -138.5 80.3 -133.75 82.7 -128.05 82.7 L127.2 82.7 Q133.65 82.7 138.85 79.6 141.35 78.05 143.6 75.85 150.4 69.05 150.45 59.45 L150.45 -59.3 Q150.4 -65.05 148.0 -69.75 146.35 -73.0 143.6 -75.75 139.3 -80.05 133.9 -81.6" fill="#308945" fill-rule="evenodd" stroke="none"/>
      <path d="M-137.5 -80.65 Q-133.15 -82.55 -128.05 -82.55 L127.2 -82.55 Q130.75 -82.55 133.9 -81.6 L130.1 -77.15 123.95 -77.9 -124.8 -77.9 Q-129.75 -77.9 -133.95 -76.1 L-137.5 -80.65" fill="#518b50" fill-rule="evenodd" stroke="none"/>
      <path d="M-133.95 -76.1 Q-129.75 -77.9 -124.8 -77.9 L123.95 -77.9 130.1 -77.15 Q135.65 -75.65 140.0 -71.25 142.65 -68.65 144.25 -65.6 146.7 -60.85 146.7 -55.1 L146.7 55.2 Q146.7 64.65 140.0 71.3 133.35 78.0 123.95 78.0 L-124.8 78.0 Q-129.05 78.0 -132.75 76.65 -137.3 74.95 -140.95 71.3 -147.65 64.65 -147.6 55.2 L-147.6 -55.1 -147.35 -58.95 Q-146.25 -66.0 -140.95 -71.25 -137.8 -74.45 -133.95 -76.1" fill="#ffffbf" fill-rule="evenodd" stroke="none"/>
      <path d="M130.1 -77.15 L133.9 -81.6 Q139.3 -80.05 143.6 -75.75 146.35 -73.0 148.0 -69.75 L144.25 -65.6 Q142.65 -68.65 140.0 -71.25 135.65 -75.65 130.1 -77.15" fill="#d3d29c" fill-rule="evenodd" stroke="none"/>
      <path d="M148.0 -69.75 Q150.4 -65.05 150.45 -59.3 L150.45 59.45 Q150.4 69.05 143.6 75.85 141.35 78.05 138.85 79.6 L123.95 78.0 Q133.35 78.0 140.0 71.3 146.7 64.65 146.7 55.2 L146.7 -55.1 Q146.7 -60.85 144.25 -65.6 L148.0 -69.75" fill="#eae8d0" fill-rule="evenodd" stroke="none"/>
      <path d="M138.85 79.6 Q133.65 82.7 127.2 82.7 L-128.05 82.7 Q-133.75 82.7 -138.5 80.3 L-132.75 76.65 Q-129.05 78.0 -124.8 78.0 L123.95 78.0 138.85 79.6" fill="#5e8a55" fill-rule="evenodd" stroke="none"/>
      <path d="M-137.5 -80.65 L-133.95 -76.1 Q-137.8 -74.45 -140.95 -71.25 -146.25 -66.0 -147.35 -58.95 L-150.95 -63.6 Q-149.75 -70.5 -144.5 -75.75 -141.3 -78.95 -137.5 -80.65" fill="#b7c68f" fill-rule="evenodd" stroke="none"/>
      <path d="M-138.5 80.3 Q-141.75 78.65 -144.5 75.85 -151.3 69.05 -151.3 59.45 L-151.3 -59.3 -150.95 -63.6 -147.35 -58.95 -147.6 -55.1 -147.6 55.2 Q-147.65 64.65 -140.95 71.3 -137.3 74.95 -132.75 76.65 L-138.5 80.3" fill="#d9dea6" fill-rule="evenodd" stroke="none"/>
    </g>
    <radialGradient cx="0" cy="0" gradientTransform="matrix(0.0114, -0.1842, 0.2989, 0.016, 2.0, -20.1)" gradientUnits="userSpaceOnUse" id="gradient0" r="819.2" spreadMethod="pad">
      <stop offset="0.29411764705882354" stop-color="#000000"/>
      <stop offset="1.0" stop-color="#000000" stop-opacity="0.0"/>
    </radialGradient>
  </defs>
</svg>
