<?xml version="1.0" encoding="UTF-8" standalone="no"?>
<svg xmlns:xlink="http://www.w3.org/1999/xlink" height="60.1px" width="294.7px" xmlns="http://www.w3.org/2000/svg">
  <g transform="matrix(1.0, 0.0, 0.0, 1.0, 64.5, -6.3)">
    <g transform="matrix(1.0, 0.0, 0.0, 1.0, -65.85, 0.0)">
      <use fill="#000000" height="60.1" transform="matrix(0.625, 0.0, 0.0, 0.625, 41.0, 29.0)" width="294.7" xlink:href="#font_Times_New_Roman_T0"/>
      <use fill="#000000" height="60.1" transform="matrix(0.625, 0.0, 0.0, 0.625, 60.55, 29.0)" width="294.7" xlink:href="#font_Times_New_Roman_a0"/>
      <use fill="#000000" height="60.1" transform="matrix(0.625, 0.0, 0.0, 0.625, 74.75, 29.0)" width="294.7" xlink:href="#font_Times_New_Roman_r0"/>
      <use fill="#000000" height="60.1" transform="matrix(0.625, 0.0, 0.0, 0.625, 85.4, 29.0)" width="294.7" xlink:href="#font_Times_New_Roman_g0"/>
      <use fill="#000000" height="60.1" transform="matrix(0.625, 0.0, 0.0, 0.625, 101.4, 29.0)" width="294.7" xlink:href="#font_Times_New_Roman_e0"/>
      <use fill="#000000" height="60.1" transform="matrix(0.625, 0.0, 0.0, 0.625, 115.6, 29.0)" width="294.7" xlink:href="#font_Times_New_Roman_t0"/>
      <use fill="#000000" height="60.1" transform="matrix(0.625, 0.0, 0.0, 0.625, 132.5, 29.0)" width="294.7" xlink:href="#font_Times_New_Roman_M0"/>
      <use fill="#000000" height="60.1" transform="matrix(0.625, 0.0, 0.0, 0.625, 160.95, 29.0)" width="294.7" xlink:href="#font_Times_New_Roman_i0"/>
      <use fill="#000000" height="60.1" transform="matrix(0.625, 0.0, 0.0, 0.625, 169.85, 29.0)" width="294.7" xlink:href="#font_Times_New_Roman_s0"/>
      <use fill="#000000" height="60.1" transform="matrix(0.625, 0.0, 0.0, 0.625, 182.3, 29.0)" width="294.7" xlink:href="#font_Times_New_Roman_s0"/>
      <use fill="#000000" height="60.1" transform="matrix(0.625, 0.0, 0.0, 0.625, 194.75, 29.0)" width="294.7" xlink:href="#font_Times_New_Roman_e0"/>
      <use fill="#000000" height="60.1" transform="matrix(0.625, 0.0, 0.0, 0.625, 208.95, 29.0)" width="294.7" xlink:href="#font_Times_New_Roman_d0"/>
      <use fill="#000000" height="60.1" transform="matrix(0.625, 0.0, 0.0, 0.625, 224.95, 29.0)" width="294.7" xlink:href="#font_Times_New_Roman__1"/>
    </g>
    <g transform="matrix(1.0, 0.0, 0.0, 1.0, -65.85, 0.0)">
      <use fill="#000000" height="60.1" transform="matrix(0.625, 0.0, 0.0, 0.625, 0.0, 66.0)" width="294.7" xlink:href="#font_Times_New_Roman_-0"/>
      <use fill="#000000" height="60.1" transform="matrix(0.625, 0.0, 0.0, 0.625, 18.65, 66.0)" width="294.7" xlink:href="#font_Times_New_Roman_C0"/>
      <use fill="#000000" height="60.1" transform="matrix(0.625, 0.0, 0.0, 0.625, 40.0, 66.0)" width="294.7" xlink:href="#font_Times_New_Roman_l0"/>
      <use fill="#000000" height="60.1" transform="matrix(0.625, 0.0, 0.0, 0.625, 48.9, 66.0)" width="294.7" xlink:href="#font_Times_New_Roman_i0"/>
      <use fill="#000000" height="60.1" transform="matrix(0.625, 0.0, 0.0, 0.625, 57.8, 66.0)" width="294.7" xlink:href="#font_Times_New_Roman_c0"/>
      <use fill="#000000" height="60.1" transform="matrix(0.625, 0.0, 0.0, 0.625, 72.0, 66.0)" width="294.7" xlink:href="#font_Times_New_Roman_k0"/>
      <use fill="#000000" height="60.1" transform="matrix(0.625, 0.0, 0.0, 0.625, 96.0, 66.0)" width="294.7" xlink:href="#font_Times_New_Roman_T0"/>
      <use fill="#000000" height="60.1" transform="matrix(0.625, 0.0, 0.0, 0.625, 115.55, 66.0)" width="294.7" xlink:href="#font_Times_New_Roman_o0"/>
      <use fill="#000000" height="60.1" transform="matrix(0.625, 0.0, 0.0, 0.625, 139.55, 66.0)" width="294.7" xlink:href="#font_Times_New_Roman_C0"/>
      <use fill="#000000" height="60.1" transform="matrix(0.625, 0.0, 0.0, 0.625, 160.9, 66.0)" width="294.7" xlink:href="#font_Times_New_Roman_o0"/>
      <use fill="#000000" height="60.1" transform="matrix(0.625, 0.0, 0.0, 0.625, 176.9, 66.0)" width="294.7" xlink:href="#font_Times_New_Roman_n0"/>
      <use fill="#000000" height="60.1" transform="matrix(0.625, 0.0, 0.0, 0.625, 192.9, 66.0)" width="294.7" xlink:href="#font_Times_New_Roman_t0"/>
      <use fill="#000000" height="60.1" transform="matrix(0.625, 0.0, 0.0, 0.625, 201.8, 66.0)" width="294.7" xlink:href="#font_Times_New_Roman_i0"/>
      <use fill="#000000" height="60.1" transform="matrix(0.625, 0.0, 0.0, 0.625, 210.7, 66.0)" width="294.7" xlink:href="#font_Times_New_Roman_n0"/>
      <use fill="#000000" height="60.1" transform="matrix(0.625, 0.0, 0.0, 0.625, 226.7, 66.0)" width="294.7" xlink:href="#font_Times_New_Roman_u0"/>
      <use fill="#000000" height="60.1" transform="matrix(0.625, 0.0, 0.0, 0.625, 242.7, 66.0)" width="294.7" xlink:href="#font_Times_New_Roman_e0"/>
      <use fill="#000000" height="60.1" transform="matrix(0.625, 0.0, 0.0, 0.625, 264.9, 66.0)" width="294.7" xlink:href="#font_Times_New_Roman_-0"/>
    </g>
  </g>
  <defs>
    <g id="font_Times_New_Roman_T0">
      <path d="M29.65 -33.9 L1.95 -33.9 1.55 -25.95 2.5 -25.95 Q2.7 -28.25 3.6 -29.6 4.55 -30.95 5.85 -31.4 L9.2 -31.75 13.3 -31.75 13.3 -5.85 Q13.3 -3.0 12.75 -2.2 11.85 -0.9 9.7 -0.9 L8.5 -0.9 8.5 0.0 22.85 0.0 22.85 -0.9 21.7 -0.9 Q19.7 -0.9 18.75 -1.95 18.1 -2.75 18.1 -5.85 L18.1 -31.75 22.85 -31.75 Q24.95 -31.75 26.25 -31.05 27.55 -30.4 28.3 -28.95 28.8 -28.05 29.05 -25.95 L30.0 -25.95 29.65 -33.9" fill-rule="evenodd" stroke="none"/>
    </g>
    <g id="font_Times_New_Roman_a0">
      <path d="M14.6 -4.9 L14.6 -4.9 Q11.5 -2.4 9.6 -2.4 8.2 -2.4 7.1 -3.6 6.05 -4.8 6.05 -6.6 6.05 -8.0 6.9 -9.2 7.75 -10.4 9.7 -11.5 10.8 -12.15 14.6 -13.65 L14.6 -4.9 M14.6 -3.3 L14.6 -3.3 Q14.6 -1.25 15.35 -0.4 16.05 0.45 17.3 0.45 19.85 0.45 22.65 -3.3 L22.65 -4.7 20.6 -2.85 19.9 -2.7 Q19.55 -2.7 19.25 -2.95 18.95 -3.2 18.85 -3.9 18.7 -4.65 18.7 -7.95 L18.7 -15.7 Q18.7 -19.05 18.25 -20.1 17.55 -21.75 16.1 -22.55 14.15 -23.55 11.1 -23.55 7.1 -23.55 4.9 -21.75 2.7 -19.95 2.7 -17.8 2.7 -16.7 3.3 -16.05 3.9 -15.4 4.8 -15.4 5.75 -15.4 6.35 -16.0 6.95 -16.65 6.95 -17.8 L6.9 -19.25 Q6.9 -20.35 7.85 -21.2 8.75 -22.05 10.35 -22.05 12.4 -22.05 13.5 -20.75 14.6 -19.5 14.6 -16.05 L14.6 -15.15 Q8.7 -13.0 6.15 -11.5 3.6 -10.0 2.6 -8.3 1.85 -7.1 1.85 -5.4 1.85 -2.75 3.4 -1.15 4.9 0.5 7.3 0.5 8.8 0.5 10.15 -0.15 11.05 -0.55 14.6 -3.3" fill-rule="evenodd" stroke="none"/>
    </g>
    <g id="font_Times_New_Roman_r0">
      <path d="M8.3 -23.55 L7.25 -23.55 0.35 -20.75 0.6 -19.85 2.35 -20.25 Q3.0 -20.25 3.45 -19.9 L4.05 -18.75 4.2 -14.0 4.2 -5.15 4.05 -2.7 Q3.8 -1.85 3.2 -1.45 2.35 -0.9 0.6 -0.9 L0.6 0.0 12.3 0.0 12.3 -0.9 Q10.75 -0.9 9.95 -1.35 9.1 -1.8 8.8 -2.45 8.3 -3.45 8.3 -5.35 L8.3 -16.3 Q9.5 -18.65 10.65 -19.7 11.15 -20.2 11.6 -20.2 12.15 -20.2 13.25 -19.3 14.3 -18.45 15.2 -18.45 16.1 -18.45 16.75 -19.15 17.4 -19.8 17.4 -20.8 17.4 -21.9 16.5 -22.7 15.6 -23.55 14.2 -23.55 11.2 -23.55 8.3 -18.4 L8.3 -23.55" fill-rule="evenodd" stroke="none"/>
    </g>
    <g id="font_Times_New_Roman_g0">
      <path d="M7.5 0.0 L7.5 0.0 16.15 0.6 Q20.0 0.7 21.3 1.25 22.55 1.8 22.55 3.1 22.55 4.9 20.45 6.5 18.3 8.05 13.8 8.05 9.05 8.05 6.55 6.5 5.1 5.6 5.1 4.4 5.1 3.5 5.7 2.4 6.3 1.3 7.5 0.0 M12.1 -22.35 L12.1 -22.35 Q14.1 -22.35 15.35 -20.7 17.1 -18.45 17.1 -14.5 17.1 -11.45 15.85 -10.0 14.65 -8.6 12.75 -8.6 10.75 -8.6 9.45 -10.25 7.75 -12.4 7.75 -16.35 7.75 -19.4 9.0 -20.9 10.25 -22.35 12.1 -22.35 M7.75 -8.35 L7.75 -8.35 Q5.15 -6.2 4.45 -5.0 3.75 -3.85 3.75 -2.95 3.75 -2.2 4.3 -1.55 4.8 -0.95 6.1 -0.2 L3.55 2.5 1.8 5.1 Q1.55 5.7 1.55 6.3 1.55 7.65 3.4 8.9 6.75 11.05 11.55 11.05 17.85 11.05 21.75 7.4 24.4 4.95 24.4 2.1 24.4 0.05 23.0 -1.35 21.6 -2.75 19.3 -3.05 L12.6 -3.4 9.1 -3.6 Q7.9 -3.75 7.5 -4.15 7.1 -4.55 7.1 -5.0 7.1 -5.5 7.5 -6.2 7.85 -6.9 8.95 -7.85 L12.45 -7.35 Q16.55 -7.35 19.0 -9.65 21.45 -11.9 21.45 -15.1 21.45 -17.9 20.05 -19.7 L23.05 -19.7 24.3 -19.8 24.55 -20.0 24.7 -20.9 24.55 -21.7 24.3 -21.9 23.05 -21.95 18.2 -21.95 Q15.8 -23.55 12.5 -23.55 8.5 -23.55 5.95 -21.1 3.4 -18.65 3.4 -15.25 3.4 -13.05 4.5 -11.2 5.65 -9.35 7.75 -8.35" fill-rule="evenodd" stroke="none"/>
    </g>
    <g id="font_Times_New_Roman_e0">
      <path d="M5.45 -15.7 L5.45 -15.7 Q5.75 -18.6 7.4 -20.2 9.0 -21.8 11.1 -21.8 12.45 -21.8 13.7 -21.0 14.9 -20.2 15.55 -18.8 15.95 -17.9 16.05 -15.7 L5.45 -15.7 M5.45 -14.25 L21.3 -14.25 Q21.3 -18.5 18.8 -21.05 16.35 -23.6 12.5 -23.6 7.95 -23.6 4.95 -20.3 1.9 -17.0 1.9 -11.15 1.9 -5.7 4.85 -2.5 7.8 0.7 11.9 0.7 15.7 0.7 18.25 -2.1 20.75 -4.9 21.3 -8.35 L20.5 -8.85 Q19.4 -5.85 17.75 -4.6 16.05 -3.35 13.8 -3.35 10.45 -3.35 7.95 -6.25 5.45 -9.15 5.45 -14.25" fill-rule="evenodd" stroke="none"/>
    </g>
    <g id="font_Times_New_Roman_t0">
      <path d="M8.25 -30.4 L7.5 -30.4 5.9 -26.95 Q4.75 -25.15 3.35 -23.8 1.9 -22.5 0.5 -21.95 L0.5 -21.15 4.15 -21.15 4.15 -5.75 Q4.15 -3.25 4.65 -2.05 5.2 -0.9 6.3 -0.25 7.4 0.4 8.55 0.4 10.25 0.4 11.85 -0.85 13.45 -2.1 14.3 -4.55 L13.35 -4.55 Q12.9 -3.55 12.15 -3.0 11.35 -2.5 10.55 -2.5 9.55 -2.5 8.9 -3.3 8.25 -4.05 8.25 -6.3 L8.25 -21.15 13.6 -21.15 13.6 -22.9 8.25 -22.9 8.25 -30.4" fill-rule="evenodd" stroke="none"/>
    </g>
    <g id="font_Times_New_Roman_M0">
      <path d="M20.95 0.0 L21.8 0.0 34.85 -28.5 34.85 -5.85 Q34.85 -3.0 34.3 -2.2 33.45 -0.9 31.25 -0.9 L30.05 -0.9 30.05 0.0 44.45 0.0 44.45 -0.9 43.3 -0.9 Q41.3 -0.9 40.35 -1.95 39.65 -2.75 39.65 -5.85 L39.65 -28.0 Q39.65 -30.85 40.2 -31.65 41.1 -32.95 43.3 -32.95 L44.45 -32.95 44.45 -33.9 34.85 -33.9 22.75 -7.35 10.45 -33.9 0.85 -33.9 0.85 -32.95 3.9 -32.45 Q4.8 -32.0 5.15 -31.25 5.65 -30.25 5.65 -28.0 L5.65 -5.85 Q5.65 -3.0 5.1 -2.2 4.2 -0.9 2.05 -0.9 L0.85 -0.9 0.85 0.0 12.65 0.0 12.65 -0.9 11.45 -0.9 Q9.45 -0.9 8.55 -1.95 7.85 -2.75 7.85 -5.85 L7.85 -28.5 20.95 0.0" fill-rule="evenodd" stroke="none"/>
    </g>
    <g id="font_Times_New_Roman_i0">
      <path d="M9.5 -23.55 L8.4 -23.55 1.5 -20.75 1.85 -19.85 Q2.85 -20.25 3.55 -20.25 L4.6 -19.9 5.15 -18.8 Q5.35 -17.7 5.35 -14.0 L5.35 -5.15 Q5.35 -3.05 5.05 -2.3 L4.1 -1.2 1.85 -0.9 1.85 0.0 13.0 0.0 13.0 -0.9 10.75 -1.25 Q10.15 -1.6 9.85 -2.3 9.5 -3.0 9.5 -5.15 L9.5 -23.55 M7.45 -35.55 L7.45 -35.55 Q6.35 -35.55 5.65 -34.8 4.9 -34.05 4.9 -33.0 4.9 -31.95 5.65 -31.2 6.4 -30.45 7.45 -30.45 8.5 -30.45 9.25 -31.2 9.95 -31.95 9.95 -33.0 9.95 -34.05 9.25 -34.8 8.5 -35.55 7.45 -35.55" fill-rule="evenodd" stroke="none"/>
    </g>
    <g id="font_Times_New_Roman_s0">
      <path d="M16.4 -23.55 L15.6 -23.55 15.05 -22.8 14.45 -22.6 12.75 -23.0 9.45 -23.55 Q6.4 -23.55 4.45 -21.65 2.5 -19.75 2.5 -16.95 2.5 -14.75 3.65 -13.35 4.75 -11.9 8.4 -10.1 12.0 -8.3 13.25 -7.1 14.45 -5.95 14.45 -4.2 14.45 -2.8 13.35 -1.75 12.25 -0.75 10.55 -0.75 8.1 -0.75 6.1 -2.55 4.15 -4.3 3.45 -7.8 L2.6 -7.8 2.6 0.35 3.45 0.35 Q3.75 -0.3 4.35 -0.3 L5.7 -0.05 10.5 0.7 Q13.4 0.7 15.8 -1.2 18.15 -3.1 18.15 -6.25 18.15 -10.3 13.05 -12.75 L9.4 -14.55 Q7.05 -15.7 6.25 -16.7 5.45 -17.7 5.45 -19.1 5.45 -20.25 6.55 -21.15 7.6 -22.1 9.35 -22.1 11.65 -22.1 13.15 -20.75 14.65 -19.45 15.6 -15.75 L16.4 -15.75 16.4 -23.55" fill-rule="evenodd" stroke="none"/>
    </g>
    <g id="font_Times_New_Roman_d0">
      <path d="M17.8 -4.3 L17.8 -4.3 Q15.65 -2.05 13.4 -2.05 10.7 -2.05 8.5 -4.7 6.3 -7.4 6.3 -12.45 6.3 -17.45 8.55 -20.05 10.3 -22.05 12.5 -22.05 13.65 -22.05 14.9 -21.3 16.15 -20.6 16.9 -19.2 17.65 -17.8 17.8 -16.1 L17.8 -4.3 M17.8 -2.55 L17.8 0.7 18.95 0.7 25.75 -2.1 25.45 -3.0 Q24.35 -2.55 23.65 -2.55 23.1 -2.55 22.7 -2.9 22.3 -3.25 22.1 -4.15 21.9 -5.05 21.9 -9.05 L21.9 -35.55 20.8 -35.55 13.95 -32.75 14.3 -31.85 16.0 -32.25 17.0 -31.95 Q17.4 -31.6 17.6 -30.7 17.8 -29.8 17.8 -25.9 L17.8 -21.65 Q15.8 -23.6 12.8 -23.6 7.9 -23.6 4.8 -19.5 1.7 -15.4 1.7 -10.5 1.7 -5.55 4.5 -2.4 7.3 0.7 11.05 0.7 12.9 0.7 14.5 -0.05 16.1 -0.8 17.8 -2.55" fill-rule="evenodd" stroke="none"/>
    </g>
    <g id="font_Times_New_Roman__1">
      <path d="M8.5 -4.8 L8.5 -4.8 Q7.35 -4.8 6.55 -4.0 5.75 -3.2 5.75 -2.05 5.75 -0.9 6.55 -0.1 7.35 0.7 8.5 0.7 9.65 0.7 10.5 -0.1 11.3 -0.9 11.3 -2.05 11.3 -3.2 10.5 -4.0 9.65 -4.8 8.5 -4.8 M9.0 -8.95 L11.25 -29.2 11.35 -30.9 Q11.35 -32.75 10.55 -33.7 9.75 -34.65 8.55 -34.65 7.4 -34.65 6.55 -33.7 5.7 -32.75 5.7 -31.2 L5.85 -29.2 8.05 -8.95 9.0 -8.95" fill-rule="evenodd" stroke="none"/>
    </g>
    <g id="font_Times_New_Roman_-0">
      <path d="M2.1 -13.35 L2.1 -9.6 15.0 -9.6 15.0 -13.35 2.1 -13.35" fill-rule="evenodd" stroke="none"/>
    </g>
    <g id="font_Times_New_Roman_C0">
      <path d="M30.85 -34.65 L29.95 -34.65 Q29.7 -33.45 29.05 -32.8 28.55 -32.3 27.85 -32.3 27.4 -32.3 26.35 -32.85 22.8 -34.65 19.1 -34.65 14.4 -34.65 10.4 -32.3 6.4 -30.0 4.15 -25.75 1.85 -21.5 1.85 -16.4 1.85 -10.1 5.3 -5.45 9.95 0.8 18.35 0.8 23.05 0.8 26.45 -1.3 29.85 -3.4 32.4 -7.95 L31.6 -8.45 Q28.6 -4.25 26.05 -2.8 23.55 -1.4 20.25 -1.4 16.45 -1.4 13.5 -3.2 10.5 -5.0 9.05 -8.4 7.55 -11.75 7.55 -16.35 7.55 -21.95 9.15 -25.7 10.7 -29.45 13.4 -31.15 16.15 -32.85 19.5 -32.85 23.55 -32.85 26.4 -30.6 29.3 -28.3 30.85 -23.15 L31.6 -23.15 30.85 -34.65" fill-rule="evenodd" stroke="none"/>
    </g>
    <g id="font_Times_New_Roman_l0">
      <path d="M9.5 -35.55 L8.35 -35.55 1.55 -32.75 1.95 -31.85 3.6 -32.25 4.6 -31.95 5.15 -30.7 Q5.35 -29.85 5.35 -25.95 L5.35 -5.15 Q5.35 -3.05 5.0 -2.3 4.7 -1.55 4.1 -1.2 L1.95 -0.9 1.95 0.0 13.2 0.0 13.2 -0.9 Q11.4 -0.9 10.75 -1.25 10.1 -1.6 9.8 -2.3 9.5 -3.0 9.5 -5.15 L9.5 -35.55" fill-rule="evenodd" stroke="none"/>
    </g>
    <g id="font_Times_New_Roman_c0">
      <path d="M21.05 -8.7 L20.35 -9.05 Q19.05 -6.0 17.65 -4.85 15.7 -3.2 13.25 -3.2 9.85 -3.2 7.85 -6.3 5.8 -9.45 5.8 -13.55 5.8 -17.6 7.85 -20.05 9.35 -21.9 11.85 -21.9 13.4 -21.9 14.3 -21.15 15.15 -20.35 15.3 -18.9 15.45 -17.4 15.85 -16.9 16.6 -15.95 18.1 -15.95 19.2 -15.95 19.8 -16.5 20.4 -17.1 20.4 -18.05 20.4 -20.0 18.25 -21.75 16.05 -23.55 12.7 -23.55 8.2 -23.55 5.0 -20.2 1.75 -16.8 1.75 -11.4 1.75 -5.85 4.65 -2.55 7.55 0.7 11.45 0.7 14.75 0.7 17.45 -1.7 20.15 -4.15 21.05 -8.7" fill-rule="evenodd" stroke="none"/>
    </g>
    <g id="font_Times_New_Roman_k0">
      <path d="M8.4 -35.55 L7.25 -35.55 0.45 -32.75 0.85 -31.85 2.45 -32.3 Q3.1 -32.3 3.5 -31.95 3.9 -31.6 4.05 -30.7 4.25 -29.85 4.25 -25.85 L4.25 -5.0 Q4.25 -3.0 3.85 -2.15 L3.05 -1.3 Q2.2 -0.9 0.45 -0.9 L0.45 0.0 12.1 0.0 12.1 -0.9 9.6 -1.2 Q9.0 -1.5 8.7 -2.2 8.4 -2.9 8.4 -5.15 L8.4 -12.75 15.4 -3.75 Q16.4 -2.5 16.4 -1.9 16.4 -1.45 16.1 -1.15 L14.8 -0.9 14.8 0.0 25.9 0.0 25.9 -0.9 23.75 -1.15 21.65 -2.65 18.35 -6.55 12.45 -14.0 18.35 -19.4 Q19.95 -20.9 21.35 -21.45 22.7 -22.05 24.75 -22.1 L24.75 -22.9 14.8 -22.9 14.8 -22.1 Q15.75 -22.05 16.15 -21.65 16.55 -21.3 16.55 -20.8 L16.35 -20.2 14.2 -18.05 8.4 -12.75 8.4 -35.55" fill-rule="evenodd" stroke="none"/>
    </g>
    <g id="font_Times_New_Roman_o0">
      <path d="M12.05 -21.95 L12.05 -21.95 Q14.8 -21.95 16.55 -19.55 19.2 -16.05 19.2 -9.95 19.2 -5.05 17.6 -3.05 16.05 -1.05 13.6 -1.05 10.35 -1.05 8.4 -4.7 6.4 -8.3 6.4 -13.3 6.4 -16.4 7.2 -18.4 8.05 -20.35 9.4 -21.15 10.7 -21.95 12.05 -21.95 M12.8 -23.55 L12.8 -23.55 Q9.95 -23.55 7.4 -22.05 4.85 -20.6 3.3 -17.45 1.75 -14.35 1.75 -11.2 1.75 -6.9 4.3 -3.4 7.35 0.7 12.55 0.7 15.7 0.7 18.3 -0.9 20.9 -2.5 22.35 -5.65 23.85 -8.8 23.85 -11.85 23.85 -16.25 21.15 -19.6 18.0 -23.55 12.8 -23.55" fill-rule="evenodd" stroke="none"/>
    </g>
    <g id="font_Times_New_Roman_n0">
      <path d="M8.3 -18.7 L8.3 -23.55 7.2 -23.55 0.3 -20.75 0.7 -19.85 2.35 -20.25 3.4 -19.9 Q3.8 -19.6 4.0 -18.7 L4.15 -13.65 4.15 -5.15 Q4.15 -2.65 3.55 -1.75 2.95 -0.9 1.2 -0.9 L0.7 -0.9 0.7 0.0 12.0 0.0 12.0 -0.9 9.55 -1.2 Q8.9 -1.55 8.55 -2.3 8.3 -2.85 8.3 -5.15 L8.3 -17.25 Q11.25 -20.5 14.2 -20.5 16.15 -20.5 16.95 -19.05 17.75 -17.65 17.75 -14.55 L17.75 -5.15 17.65 -2.8 Q17.4 -1.85 16.8 -1.35 16.15 -0.9 14.55 -0.9 L14.05 -0.9 14.05 0.0 25.4 0.0 25.4 -0.9 Q23.75 -0.9 23.15 -1.25 22.5 -1.6 22.25 -2.2 21.9 -3.0 21.9 -5.15 L21.9 -14.95 Q21.9 -18.05 21.35 -19.55 20.55 -21.7 19.2 -22.6 17.85 -23.55 15.95 -23.55 12.3 -23.55 8.3 -18.7" fill-rule="evenodd" stroke="none"/>
    </g>
    <g id="font_Times_New_Roman_u0">
      <path d="M21.7 -22.9 L13.9 -22.9 13.9 -21.95 Q16.15 -21.9 16.85 -21.2 17.55 -20.55 17.55 -18.6 L17.55 -5.6 Q15.7 -3.7 14.35 -3.05 12.95 -2.35 11.9 -2.35 10.3 -2.35 9.2 -3.35 8.1 -4.35 8.1 -7.55 L8.1 -22.9 0.05 -22.9 0.05 -21.95 2.55 -21.65 3.6 -20.7 Q3.95 -20.05 3.95 -18.45 L3.95 -8.2 Q3.95 -5.0 4.5 -3.25 5.05 -1.5 6.45 -0.4 7.85 0.7 9.8 0.7 11.5 0.7 13.05 -0.1 14.6 -0.95 17.55 -4.15 L17.55 0.7 18.7 0.7 25.55 -2.1 25.2 -3.0 23.45 -2.55 Q22.9 -2.55 22.5 -2.9 22.05 -3.25 21.9 -4.15 21.7 -5.05 21.7 -9.0 L21.7 -22.9" fill-rule="evenodd" stroke="none"/>
    </g>
  </defs>
</svg>
