<?xml version="1.0" encoding="UTF-8" standalone="no"?>
<svg xmlns:xlink="http://www.w3.org/1999/xlink" height="59.55px" width="255.65px" xmlns="http://www.w3.org/2000/svg">
  <g transform="matrix(1.0, 0.0, 0.0, 1.0, 45.45, -6.85)">
    <g transform="matrix(1.0, 0.0, 0.0, 1.0, -45.85, 0.0)">
      <use fill="#000000" height="59.55" transform="matrix(0.625, 0.0, 0.0, 0.625, 0.0, 29.0)" width="255.65" xlink:href="#font_Times_New_Roman_Y0"/>
      <use fill="#000000" height="59.55" transform="matrix(0.625, 0.0, 0.0, 0.625, 23.1, 29.0)" width="255.65" xlink:href="#font_Times_New_Roman_o0"/>
      <use fill="#000000" height="59.55" transform="matrix(0.625, 0.0, 0.0, 0.625, 39.1, 29.0)" width="255.65" xlink:href="#font_Times_New_Roman_u0"/>
      <use fill="#000000" height="59.55" transform="matrix(0.625, 0.0, 0.0, 0.625, 63.1, 29.0)" width="255.65" xlink:href="#font_Times_New_Roman_R0"/>
      <use fill="#000000" height="59.55" transform="matrix(0.625, 0.0, 0.0, 0.625, 84.45, 29.0)" width="255.65" xlink:href="#font_Times_New_Roman_a0"/>
      <use fill="#000000" height="59.55" transform="matrix(0.625, 0.0, 0.0, 0.625, 98.65, 29.0)" width="255.65" xlink:href="#font_Times_New_Roman_n0"/>
      <use fill="#000000" height="59.55" transform="matrix(0.625, 0.0, 0.0, 0.625, 122.65, 29.0)" width="255.65" xlink:href="#font_Times_New_Roman_T0"/>
      <use fill="#000000" height="59.55" transform="matrix(0.625, 0.0, 0.0, 0.625, 142.2, 29.0)" width="255.65" xlink:href="#font_Times_New_Roman_o0"/>
      <use fill="#000000" height="59.55" transform="matrix(0.625, 0.0, 0.0, 0.625, 158.2, 29.0)" width="255.65" xlink:href="#font_Times_New_Roman_o0"/>
      <use fill="#000000" height="59.55" transform="matrix(0.625, 0.0, 0.0, 0.625, 182.2, 29.0)" width="255.65" xlink:href="#font_Times_New_Roman_F0"/>
      <use fill="#000000" height="59.55" transform="matrix(0.625, 0.0, 0.0, 0.625, 200.0, 29.0)" width="255.65" xlink:href="#font_Times_New_Roman_a0"/>
      <use fill="#000000" height="59.55" transform="matrix(0.625, 0.0, 0.0, 0.625, 214.2, 29.0)" width="255.65" xlink:href="#font_Times_New_Roman_r0"/>
      <use fill="#000000" height="59.55" transform="matrix(0.625, 0.0, 0.0, 0.625, 224.85, 29.0)" width="255.65" xlink:href="#font_Times_New_Roman__1"/>
    </g>
    <g transform="matrix(1.0, 0.0, 0.0, 1.0, -45.85, 0.0)">
      <use fill="#000000" height="59.55" transform="matrix(0.625, 0.0, 0.0, 0.625, 25.0, 66.0)" width="255.65" xlink:href="#font_Times_New_Roman_-0"/>
      <use fill="#000000" height="59.55" transform="matrix(0.625, 0.0, 0.0, 0.625, 43.65, 66.0)" width="255.65" xlink:href="#font_Times_New_Roman_G0"/>
      <use fill="#000000" height="59.55" transform="matrix(0.625, 0.0, 0.0, 0.625, 66.75, 66.0)" width="255.65" xlink:href="#font_Times_New_Roman_a0"/>
      <use fill="#000000" height="59.55" transform="matrix(0.625, 0.0, 0.0, 0.625, 80.95, 66.0)" width="255.65" xlink:href="#font_Times_New_Roman_m0"/>
      <use fill="#000000" height="59.55" transform="matrix(0.625, 0.0, 0.0, 0.625, 105.85, 66.0)" width="255.65" xlink:href="#font_Times_New_Roman_e0"/>
      <use fill="#000000" height="59.55" transform="matrix(0.625, 0.0, 0.0, 0.625, 128.05, 66.0)" width="255.65" xlink:href="#font_Times_New_Roman_O0"/>
      <use fill="#000000" height="59.55" transform="matrix(0.625, 0.0, 0.0, 0.625, 151.15, 66.0)" width="255.65" xlink:href="#font_Times_New_Roman_v0"/>
      <use fill="#000000" height="59.55" transform="matrix(0.625, 0.0, 0.0, 0.625, 167.15, 66.0)" width="255.65" xlink:href="#font_Times_New_Roman_e0"/>
      <use fill="#000000" height="59.55" transform="matrix(0.625, 0.0, 0.0, 0.625, 181.35, 66.0)" width="255.65" xlink:href="#font_Times_New_Roman_r0"/>
      <use fill="#000000" height="59.55" transform="matrix(0.625, 0.0, 0.0, 0.625, 200.0, 66.0)" width="255.65" xlink:href="#font_Times_New_Roman_-0"/>
    </g>
  </g>
  <defs>
    <g id="font_Times_New_Roman_Y0">
      <path d="M24.4 -33.9 L24.4 -32.95 26.45 -32.65 27.5 -31.8 Q27.85 -31.25 27.85 -30.55 27.85 -29.4 26.35 -27.05 L19.7 -16.6 12.6 -27.5 Q11.1 -29.85 11.1 -30.75 11.1 -31.85 12.1 -32.4 13.05 -32.95 14.25 -32.95 L15.0 -32.95 15.0 -33.9 0.5 -33.9 0.5 -32.95 1.95 -32.7 Q3.8 -31.85 4.4 -31.2 L6.6 -28.1 15.9 -13.9 15.9 -5.85 Q15.9 -3.0 15.35 -2.2 14.45 -0.9 12.3 -0.9 L11.1 -0.9 11.1 0.0 25.5 0.0 25.5 -0.9 24.4 -0.9 Q22.35 -0.9 21.4 -1.95 20.7 -2.75 20.7 -5.85 L20.7 -14.35 28.9 -27.25 31.4 -30.75 33.7 -32.4 35.6 -32.95 36.25 -32.95 36.25 -33.9 24.4 -33.9" fill-rule="evenodd" stroke="none"/>
    </g>
    <g id="font_Times_New_Roman_o0">
      <path d="M12.05 -21.95 L12.05 -21.95 Q14.8 -21.95 16.55 -19.55 19.2 -16.05 19.2 -9.95 19.2 -5.05 17.6 -3.05 16.05 -1.05 13.6 -1.05 10.35 -1.05 8.4 -4.7 6.4 -8.3 6.4 -13.3 6.4 -16.4 7.2 -18.4 8.05 -20.35 9.4 -21.15 10.7 -21.95 12.05 -21.95 M12.8 -23.55 L12.8 -23.55 Q9.95 -23.55 7.4 -22.05 4.85 -20.6 3.3 -17.45 1.75 -14.35 1.75 -11.2 1.75 -6.9 4.3 -3.4 7.35 0.7 12.55 0.7 15.7 0.7 18.3 -0.9 20.9 -2.5 22.35 -5.65 23.85 -8.8 23.85 -11.85 23.85 -16.25 21.15 -19.6 18.0 -23.55 12.8 -23.55" fill-rule="evenodd" stroke="none"/>
    </g>
    <g id="font_Times_New_Roman_u0">
      <path d="M21.7 -22.9 L13.9 -22.9 13.9 -21.95 Q16.15 -21.9 16.85 -21.2 17.55 -20.55 17.55 -18.6 L17.55 -5.6 Q15.7 -3.7 14.35 -3.05 12.95 -2.35 11.9 -2.35 10.3 -2.35 9.2 -3.35 8.1 -4.35 8.1 -7.55 L8.1 -22.9 0.05 -22.9 0.05 -21.95 2.55 -21.65 3.6 -20.7 Q3.95 -20.05 3.95 -18.45 L3.95 -8.2 Q3.95 -5.0 4.5 -3.25 5.05 -1.5 6.45 -0.4 7.85 0.7 9.8 0.7 11.5 0.7 13.05 -0.1 14.6 -0.95 17.55 -4.15 L17.55 0.7 18.7 0.7 25.55 -2.1 25.2 -3.0 23.45 -2.55 Q22.9 -2.55 22.5 -2.9 22.05 -3.25 21.9 -4.15 21.7 -5.05 21.7 -9.0 L21.7 -22.9" fill-rule="evenodd" stroke="none"/>
    </g>
    <g id="font_Times_New_Roman_R0">
      <path d="M10.55 -17.4 L10.55 -31.5 14.45 -32.0 Q17.75 -32.0 19.75 -30.0 21.7 -28.0 21.7 -24.85 21.7 -21.6 19.25 -19.5 16.8 -17.4 11.95 -17.4 L11.35 -17.4 10.55 -17.4 M34.6 0.0 L34.6 -0.9 Q31.85 -1.2 30.1 -2.3 28.4 -3.4 26.0 -6.75 L19.0 -16.5 Q23.25 -17.45 25.3 -19.75 27.35 -22.05 27.35 -25.15 27.35 -28.1 25.55 -30.2 23.75 -32.3 21.2 -33.1 L13.25 -33.9 0.9 -33.9 0.9 -32.95 2.15 -32.95 Q4.1 -32.95 5.05 -31.85 5.75 -31.1 5.75 -27.9 L5.75 -6.0 Q5.75 -3.1 5.25 -2.3 4.3 -0.9 2.15 -0.9 L0.9 -0.9 0.9 0.0 15.4 0.0 15.4 -0.9 14.1 -0.9 Q12.2 -0.9 11.25 -2.0 10.55 -2.8 10.55 -6.0 L10.55 -15.85 11.3 -15.8 12.0 -15.8 14.1 -15.85 25.55 0.0 34.6 0.0" fill-rule="evenodd" stroke="none"/>
    </g>
    <g id="font_Times_New_Roman_a0">
      <path d="M14.6 -4.9 L14.6 -4.9 Q11.5 -2.4 9.6 -2.4 8.2 -2.4 7.1 -3.6 6.05 -4.8 6.05 -6.6 6.05 -8.0 6.9 -9.2 7.75 -10.4 9.7 -11.5 10.8 -12.15 14.6 -13.65 L14.6 -4.9 M14.6 -3.3 L14.6 -3.3 Q14.6 -1.25 15.35 -0.4 16.05 0.45 17.3 0.45 19.85 0.45 22.65 -3.3 L22.65 -4.7 20.6 -2.85 19.9 -2.7 Q19.55 -2.7 19.25 -2.95 18.95 -3.2 18.85 -3.9 18.7 -4.65 18.7 -7.95 L18.7 -15.7 Q18.7 -19.05 18.25 -20.1 17.55 -21.75 16.1 -22.55 14.15 -23.55 11.1 -23.55 7.1 -23.55 4.9 -21.75 2.7 -19.95 2.7 -17.8 2.7 -16.7 3.3 -16.05 3.9 -15.4 4.8 -15.4 5.75 -15.4 6.35 -16.0 6.95 -16.65 6.95 -17.8 L6.9 -19.25 Q6.9 -20.35 7.85 -21.2 8.75 -22.05 10.35 -22.05 12.4 -22.05 13.5 -20.75 14.6 -19.5 14.6 -16.05 L14.6 -15.15 Q8.7 -13.0 6.15 -11.5 3.6 -10.0 2.6 -8.3 1.85 -7.1 1.85 -5.4 1.85 -2.75 3.4 -1.15 4.9 0.5 7.3 0.5 8.8 0.5 10.15 -0.15 11.05 -0.55 14.6 -3.3" fill-rule="evenodd" stroke="none"/>
    </g>
    <g id="font_Times_New_Roman_n0">
      <path d="M8.3 -18.7 L8.3 -23.55 7.2 -23.55 0.3 -20.75 0.7 -19.85 2.35 -20.25 3.4 -19.9 Q3.8 -19.6 4.0 -18.7 L4.15 -13.65 4.15 -5.15 Q4.15 -2.65 3.55 -1.75 2.95 -0.9 1.2 -0.9 L0.7 -0.9 0.7 0.0 12.0 0.0 12.0 -0.9 9.55 -1.2 Q8.9 -1.55 8.55 -2.3 8.3 -2.85 8.3 -5.15 L8.3 -17.25 Q11.25 -20.5 14.2 -20.5 16.15 -20.5 16.95 -19.05 17.75 -17.65 17.75 -14.55 L17.75 -5.15 17.65 -2.8 Q17.4 -1.85 16.8 -1.35 16.15 -0.9 14.55 -0.9 L14.05 -0.9 14.05 0.0 25.4 0.0 25.4 -0.9 Q23.75 -0.9 23.15 -1.25 22.5 -1.6 22.25 -2.2 21.9 -3.0 21.9 -5.15 L21.9 -14.95 Q21.9 -18.05 21.35 -19.55 20.55 -21.7 19.2 -22.6 17.85 -23.55 15.95 -23.55 12.3 -23.55 8.3 -18.7" fill-rule="evenodd" stroke="none"/>
    </g>
    <g id="font_Times_New_Roman_T0">
      <path d="M29.65 -33.9 L1.95 -33.9 1.55 -25.95 2.5 -25.95 Q2.7 -28.25 3.6 -29.6 4.55 -30.95 5.85 -31.4 L9.2 -31.75 13.3 -31.75 13.3 -5.85 Q13.3 -3.0 12.75 -2.2 11.85 -0.9 9.7 -0.9 L8.5 -0.9 8.5 0.0 22.85 0.0 22.85 -0.9 21.7 -0.9 Q19.7 -0.9 18.75 -1.95 18.1 -2.75 18.1 -5.85 L18.1 -31.75 22.85 -31.75 Q24.95 -31.75 26.25 -31.05 27.55 -30.4 28.3 -28.95 28.8 -28.05 29.05 -25.95 L30.0 -25.95 29.65 -33.9" fill-rule="evenodd" stroke="none"/>
    </g>
    <g id="font_Times_New_Roman_F0">
      <path d="M10.5 -32.05 L17.95 -32.05 21.9 -31.55 Q23.15 -31.05 24.0 -29.9 24.85 -28.8 25.5 -26.45 L26.4 -26.45 26.05 -33.9 0.85 -33.9 0.85 -32.95 2.05 -32.95 Q3.25 -32.95 4.35 -32.35 5.1 -31.9 5.35 -31.3 5.7 -30.45 5.7 -27.9 L5.7 -6.0 Q5.7 -2.95 5.1 -2.15 4.15 -0.9 2.05 -0.9 L0.85 -0.9 0.85 0.0 15.4 0.0 15.4 -0.9 14.15 -0.9 Q12.95 -0.9 11.85 -1.5 11.05 -1.95 10.8 -2.6 10.5 -3.4 10.5 -6.0 L10.5 -16.65 16.65 -16.65 19.25 -16.15 20.6 -14.8 Q21.05 -13.85 21.1 -11.9 L22.0 -11.9 22.0 -23.35 21.1 -23.35 Q20.75 -20.6 19.8 -19.65 18.8 -18.7 16.65 -18.7 L10.5 -18.7 10.5 -32.05" fill-rule="evenodd" stroke="none"/>
    </g>
    <g id="font_Times_New_Roman_r0">
      <path d="M8.3 -23.55 L7.25 -23.55 0.35 -20.75 0.6 -19.85 2.35 -20.25 Q3.0 -20.25 3.45 -19.9 L4.05 -18.75 4.2 -14.0 4.2 -5.15 4.05 -2.7 Q3.8 -1.85 3.2 -1.45 2.35 -0.9 0.6 -0.9 L0.6 0.0 12.3 0.0 12.3 -0.9 Q10.75 -0.9 9.95 -1.35 9.1 -1.8 8.8 -2.45 8.3 -3.45 8.3 -5.35 L8.3 -16.3 Q9.5 -18.65 10.65 -19.7 11.15 -20.2 11.6 -20.2 12.15 -20.2 13.25 -19.3 14.3 -18.45 15.2 -18.45 16.1 -18.45 16.75 -19.15 17.4 -19.8 17.4 -20.8 17.4 -21.9 16.5 -22.7 15.6 -23.55 14.2 -23.55 11.2 -23.55 8.3 -18.4 L8.3 -23.55" fill-rule="evenodd" stroke="none"/>
    </g>
    <g id="font_Times_New_Roman__1">
      <path d="M8.5 -4.8 L8.5 -4.8 Q7.35 -4.8 6.55 -4.0 5.75 -3.2 5.75 -2.05 5.75 -0.9 6.55 -0.1 7.35 0.7 8.5 0.7 9.65 0.7 10.5 -0.1 11.3 -0.9 11.3 -2.05 11.3 -3.2 10.5 -4.0 9.65 -4.8 8.5 -4.8 M9.0 -8.95 L11.25 -29.2 11.35 -30.9 Q11.35 -32.75 10.55 -33.7 9.75 -34.65 8.55 -34.65 7.4 -34.65 6.55 -33.7 5.7 -32.75 5.7 -31.2 L5.85 -29.2 8.05 -8.95 9.0 -8.95" fill-rule="evenodd" stroke="none"/>
    </g>
    <g id="font_Times_New_Roman_-0">
      <path d="M2.1 -13.35 L2.1 -9.6 15.0 -9.6 15.0 -13.35 2.1 -13.35" fill-rule="evenodd" stroke="none"/>
    </g>
    <g id="font_Times_New_Roman_G0">
      <path d="M31.45 -34.65 L30.5 -34.65 Q30.45 -33.4 30.1 -32.95 29.75 -32.5 29.3 -32.5 28.8 -32.5 27.4 -33.05 L23.15 -34.35 19.75 -34.65 Q14.7 -34.65 10.95 -32.5 6.5 -29.85 3.95 -25.0 1.8 -20.9 1.8 -16.4 1.8 -10.25 5.65 -5.5 10.75 0.8 20.55 0.8 L26.8 0.05 Q29.6 -0.65 32.45 -2.2 L32.45 -12.6 Q32.45 -15.3 32.95 -16.25 33.7 -17.55 35.65 -17.55 L36.25 -17.55 36.25 -18.5 23.15 -18.5 23.15 -17.55 26.0 -17.1 Q26.8 -16.7 27.2 -15.9 27.6 -15.15 27.6 -12.6 L27.6 -2.8 Q25.95 -1.85 24.2 -1.4 L20.6 -0.9 Q17.4 -0.9 14.35 -2.75 11.3 -4.65 9.45 -8.65 7.55 -12.65 7.55 -17.5 7.55 -23.45 10.4 -27.8 13.75 -32.9 20.25 -32.9 25.0 -32.9 28.0 -30.0 30.1 -27.95 31.45 -23.95 L32.3 -23.95 31.45 -34.65" fill-rule="evenodd" stroke="none"/>
    </g>
    <g id="font_Times_New_Roman_m0">
      <path d="M8.4 -18.7 L8.4 -23.55 7.35 -23.55 0.45 -20.75 0.8 -19.85 2.5 -20.25 Q3.15 -20.25 3.5 -19.9 L4.05 -18.8 4.3 -13.9 4.3 -5.15 Q4.3 -3.05 3.95 -2.3 3.65 -1.55 3.0 -1.2 L0.8 -0.9 0.8 0.0 12.15 0.0 12.15 -0.9 9.65 -1.2 Q9.05 -1.55 8.75 -2.25 8.4 -2.9 8.4 -5.15 L8.4 -17.45 Q9.55 -18.8 11.6 -19.9 12.95 -20.65 14.3 -20.65 16.25 -20.65 17.35 -19.05 18.2 -17.8 18.2 -15.0 L18.2 -5.15 18.05 -2.7 Q17.8 -1.8 17.1 -1.35 16.35 -0.9 14.45 -0.9 L14.45 0.0 26.05 0.0 26.05 -0.9 23.55 -1.25 Q22.85 -1.65 22.6 -2.25 22.3 -2.8 22.3 -5.15 L22.3 -16.1 22.25 -17.15 22.3 -17.45 Q24.2 -19.25 25.55 -19.9 L28.2 -20.55 Q30.35 -20.55 31.35 -18.95 32.0 -17.8 32.0 -15.0 L32.0 -5.15 31.9 -2.75 Q31.65 -1.85 31.1 -1.45 30.25 -0.9 28.8 -0.9 L28.3 -0.9 28.3 0.0 39.6 0.0 39.6 -0.9 Q38.1 -0.9 37.4 -1.25 36.75 -1.65 36.5 -2.2 36.15 -3.0 36.15 -5.15 L36.15 -15.0 Q36.15 -18.1 35.6 -19.55 34.8 -21.7 33.4 -22.6 31.95 -23.55 30.15 -23.55 28.25 -23.55 26.5 -22.6 24.7 -21.7 22.15 -18.7 21.6 -21.05 20.05 -22.3 18.5 -23.55 16.35 -23.55 L13.8 -23.05 Q12.5 -22.5 11.35 -21.55 L8.4 -18.7" fill-rule="evenodd" stroke="none"/>
    </g>
    <g id="font_Times_New_Roman_e0">
      <path d="M5.45 -15.7 L5.45 -15.7 Q5.75 -18.6 7.4 -20.2 9.0 -21.8 11.1 -21.8 12.45 -21.8 13.7 -21.0 14.9 -20.2 15.55 -18.8 15.95 -17.9 16.05 -15.7 L5.45 -15.7 M5.45 -14.25 L21.3 -14.25 Q21.3 -18.5 18.8 -21.05 16.35 -23.6 12.5 -23.6 7.95 -23.6 4.95 -20.3 1.9 -17.0 1.9 -11.15 1.9 -5.7 4.85 -2.5 7.8 0.7 11.9 0.7 15.7 0.7 18.25 -2.1 20.75 -4.9 21.3 -8.35 L20.5 -8.85 Q19.4 -5.85 17.75 -4.6 16.05 -3.35 13.8 -3.35 10.45 -3.35 7.95 -6.25 5.45 -9.15 5.45 -14.25" fill-rule="evenodd" stroke="none"/>
    </g>
    <g id="font_Times_New_Roman_O0">
      <path d="M18.25 -32.85 L18.25 -32.85 Q23.1 -32.85 25.85 -29.45 29.3 -25.15 29.3 -16.45 29.3 -8.45 26.2 -4.7 23.05 -1.0 18.3 -1.0 13.8 -1.0 11.1 -4.4 7.55 -8.85 7.55 -17.15 7.55 -25.25 10.95 -29.45 13.7 -32.85 18.25 -32.85 M18.75 -34.65 L18.75 -34.65 Q12.1 -34.65 7.3 -30.25 1.8 -25.15 1.8 -17.05 1.8 -9.15 6.6 -4.2 11.35 0.8 18.35 0.8 25.25 0.8 30.15 -4.3 35.0 -9.4 35.0 -17.15 35.0 -24.65 30.2 -29.65 25.35 -34.65 18.75 -34.65" fill-rule="evenodd" stroke="none"/>
    </g>
    <g id="font_Times_New_Roman_v0">
      <path d="M0.45 -22.9 L0.45 -21.95 2.1 -21.55 3.4 -20.55 4.45 -18.6 12.6 0.7 13.65 0.7 21.75 -18.95 Q22.45 -20.7 23.35 -21.45 23.85 -21.85 25.15 -21.95 L25.15 -22.9 17.65 -22.9 17.65 -21.95 19.4 -21.8 20.1 -21.3 20.3 -20.75 Q20.3 -20.0 19.7 -18.6 L14.35 -5.5 9.05 -18.15 Q8.5 -19.35 8.5 -20.2 8.5 -21.0 9.05 -21.5 9.55 -21.95 10.5 -21.95 L11.2 -21.95 11.2 -22.9 0.45 -22.9" fill-rule="evenodd" stroke="none"/>
    </g>
  </defs>
</svg>
