<?xml version="1.0" encoding="UTF-8" standalone="no"?>
<svg xmlns:xlink="http://www.w3.org/1999/xlink" height="60.1px" width="214.1px" xmlns="http://www.w3.org/2000/svg">
  <g transform="matrix(1.0, 0.0, 0.0, 1.0, 24.35, -6.3)">
    <g transform="matrix(1.0, 0.0, 0.0, 1.0, -25.4, 0.0)">
      <use fill="#000000" height="60.1" transform="matrix(0.625, 0.0, 0.0, 0.625, 0.0, 29.0)" width="214.1" xlink:href="#font_Times_New_Roman_T0"/>
      <use fill="#000000" height="60.1" transform="matrix(0.625, 0.0, 0.0, 0.625, 19.55, 29.0)" width="214.1" xlink:href="#font_Times_New_Roman_a0"/>
      <use fill="#000000" height="60.1" transform="matrix(0.625, 0.0, 0.0, 0.625, 33.75, 29.0)" width="214.1" xlink:href="#font_Times_New_Roman_r0"/>
      <use fill="#000000" height="60.1" transform="matrix(0.625, 0.0, 0.0, 0.625, 44.4, 29.0)" width="214.1" xlink:href="#font_Times_New_Roman_g0"/>
      <use fill="#000000" height="60.1" transform="matrix(0.625, 0.0, 0.0, 0.625, 60.4, 29.0)" width="214.1" xlink:href="#font_Times_New_Roman_e0"/>
      <use fill="#000000" height="60.1" transform="matrix(0.625, 0.0, 0.0, 0.625, 74.6, 29.0)" width="214.1" xlink:href="#font_Times_New_Roman_t0"/>
      <use fill="#000000" height="60.1" transform="matrix(0.625, 0.0, 0.0, 0.625, 91.5, 29.0)" width="214.1" xlink:href="#font_Times_New_Roman_M0"/>
      <use fill="#000000" height="60.1" transform="matrix(0.625, 0.0, 0.0, 0.625, 119.95, 29.0)" width="214.1" xlink:href="#font_Times_New_Roman_i0"/>
      <use fill="#000000" height="60.1" transform="matrix(0.625, 0.0, 0.0, 0.625, 128.85, 29.0)" width="214.1" xlink:href="#font_Times_New_Roman_s0"/>
      <use fill="#000000" height="60.1" transform="matrix(0.625, 0.0, 0.0, 0.625, 141.3, 29.0)" width="214.1" xlink:href="#font_Times_New_Roman_s0"/>
      <use fill="#000000" height="60.1" transform="matrix(0.625, 0.0, 0.0, 0.625, 153.75, 29.0)" width="214.1" xlink:href="#font_Times_New_Roman_e0"/>
      <use fill="#000000" height="60.1" transform="matrix(0.625, 0.0, 0.0, 0.625, 167.95, 29.0)" width="214.1" xlink:href="#font_Times_New_Roman_d0"/>
      <use fill="#000000" height="60.1" transform="matrix(0.625, 0.0, 0.0, 0.625, 183.95, 29.0)" width="214.1" xlink:href="#font_Times_New_Roman__1"/>
    </g>
    <g transform="matrix(1.0, 0.0, 0.0, 1.0, -25.4, 0.0)">
      <use fill="#000000" height="60.1" transform="matrix(0.625, 0.0, 0.0, 0.625, 5.0, 66.0)" width="214.1" xlink:href="#font_Times_New_Roman_-0"/>
      <use fill="#000000" height="60.1" transform="matrix(0.625, 0.0, 0.0, 0.625, 23.65, 66.0)" width="214.1" xlink:href="#font_Times_New_Roman_G0"/>
      <use fill="#000000" height="60.1" transform="matrix(0.625, 0.0, 0.0, 0.625, 46.75, 66.0)" width="214.1" xlink:href="#font_Times_New_Roman_a0"/>
      <use fill="#000000" height="60.1" transform="matrix(0.625, 0.0, 0.0, 0.625, 60.95, 66.0)" width="214.1" xlink:href="#font_Times_New_Roman_m0"/>
      <use fill="#000000" height="60.1" transform="matrix(0.625, 0.0, 0.0, 0.625, 85.85, 66.0)" width="214.1" xlink:href="#font_Times_New_Roman_e0"/>
      <use fill="#000000" height="60.1" transform="matrix(0.625, 0.0, 0.0, 0.625, 108.05, 66.0)" width="214.1" xlink:href="#font_Times_New_Roman_O0"/>
      <use fill="#000000" height="60.1" transform="matrix(0.625, 0.0, 0.0, 0.625, 131.15, 66.0)" width="214.1" xlink:href="#font_Times_New_Roman_v0"/>
      <use fill="#000000" height="60.1" transform="matrix(0.625, 0.0, 0.0, 0.625, 147.15, 66.0)" width="214.1" xlink:href="#font_Times_New_Roman_e0"/>
      <use fill="#000000" height="60.1" transform="matrix(0.625, 0.0, 0.0, 0.625, 161.35, 66.0)" width="214.1" xlink:href="#font_Times_New_Roman_r0"/>
      <use fill="#000000" height="60.1" transform="matrix(0.625, 0.0, 0.0, 0.625, 180.0, 66.0)" width="214.1" xlink:href="#font_Times_New_Roman_-0"/>
    </g>
  </g>
  <defs>
    <g id="font_Times_New_Roman_T0">
      <path d="M29.65 -33.9 L1.95 -33.9 1.55 -25.95 2.5 -25.95 Q2.7 -28.25 3.6 -29.6 4.55 -30.95 5.85 -31.4 L9.2 -31.75 13.3 -31.75 13.3 -5.85 Q13.3 -3.0 12.75 -2.2 11.85 -0.9 9.7 -0.9 L8.5 -0.9 8.5 0.0 22.85 0.0 22.85 -0.9 21.7 -0.9 Q19.7 -0.9 18.75 -1.95 18.1 -2.75 18.1 -5.85 L18.1 -31.75 22.85 -31.75 Q24.95 -31.75 26.25 -31.05 27.55 -30.4 28.3 -28.95 28.8 -28.05 29.05 -25.95 L30.0 -25.95 29.65 -33.9" fill-rule="evenodd" stroke="none"/>
    </g>
    <g id="font_Times_New_Roman_a0">
      <path d="M14.6 -4.9 L14.6 -4.9 Q11.5 -2.4 9.6 -2.4 8.2 -2.4 7.1 -3.6 6.05 -4.8 6.05 -6.6 6.05 -8.0 6.9 -9.2 7.75 -10.4 9.7 -11.5 10.8 -12.15 14.6 -13.65 L14.6 -4.9 M14.6 -3.3 L14.6 -3.3 Q14.6 -1.25 15.35 -0.4 16.05 0.45 17.3 0.45 19.85 0.45 22.65 -3.3 L22.65 -4.7 20.6 -2.85 19.9 -2.7 Q19.55 -2.7 19.25 -2.95 18.95 -3.2 18.85 -3.9 18.7 -4.65 18.7 -7.95 L18.7 -15.7 Q18.7 -19.05 18.25 -20.1 17.55 -21.75 16.1 -22.55 14.15 -23.55 11.1 -23.55 7.1 -23.55 4.9 -21.75 2.7 -19.95 2.7 -17.8 2.7 -16.7 3.3 -16.05 3.9 -15.4 4.8 -15.4 5.75 -15.4 6.35 -16.0 6.95 -16.65 6.95 -17.8 L6.9 -19.25 Q6.9 -20.35 7.85 -21.2 8.75 -22.05 10.35 -22.05 12.4 -22.05 13.5 -20.75 14.6 -19.5 14.6 -16.05 L14.6 -15.15 Q8.7 -13.0 6.15 -11.5 3.6 -10.0 2.6 -8.3 1.85 -7.1 1.85 -5.4 1.85 -2.75 3.4 -1.15 4.9 0.5 7.3 0.5 8.8 0.5 10.15 -0.15 11.05 -0.55 14.6 -3.3" fill-rule="evenodd" stroke="none"/>
    </g>
    <g id="font_Times_New_Roman_r0">
      <path d="M8.3 -23.55 L7.25 -23.55 0.35 -20.75 0.6 -19.85 2.35 -20.25 Q3.0 -20.25 3.45 -19.9 L4.05 -18.75 4.2 -14.0 4.2 -5.15 4.05 -2.7 Q3.8 -1.85 3.2 -1.45 2.35 -0.9 0.6 -0.9 L0.6 0.0 12.3 0.0 12.3 -0.9 Q10.75 -0.9 9.95 -1.35 9.1 -1.8 8.8 -2.45 8.3 -3.45 8.3 -5.35 L8.3 -16.3 Q9.5 -18.65 10.65 -19.7 11.15 -20.2 11.6 -20.2 12.15 -20.2 13.25 -19.3 14.3 -18.45 15.2 -18.45 16.1 -18.45 16.75 -19.15 17.4 -19.8 17.4 -20.8 17.4 -21.9 16.5 -22.7 15.6 -23.55 14.2 -23.55 11.2 -23.55 8.3 -18.4 L8.3 -23.55" fill-rule="evenodd" stroke="none"/>
    </g>
    <g id="font_Times_New_Roman_g0">
      <path d="M7.5 0.0 L7.5 0.0 16.15 0.6 Q20.0 0.7 21.3 1.25 22.55 1.8 22.55 3.1 22.55 4.9 20.45 6.5 18.3 8.05 13.8 8.05 9.05 8.05 6.55 6.5 5.1 5.6 5.1 4.4 5.1 3.5 5.7 2.4 6.3 1.3 7.5 0.0 M12.1 -22.35 L12.1 -22.35 Q14.1 -22.35 15.35 -20.7 17.1 -18.45 17.1 -14.5 17.1 -11.45 15.85 -10.0 14.65 -8.6 12.75 -8.6 10.75 -8.6 9.45 -10.25 7.75 -12.4 7.75 -16.35 7.75 -19.4 9.0 -20.9 10.25 -22.35 12.1 -22.35 M7.75 -8.35 L7.75 -8.35 Q5.15 -6.2 4.45 -5.0 3.75 -3.85 3.75 -2.95 3.75 -2.2 4.3 -1.55 4.8 -0.95 6.1 -0.2 L3.55 2.5 1.8 5.1 Q1.55 5.7 1.55 6.3 1.55 7.65 3.4 8.9 6.75 11.05 11.55 11.05 17.85 11.05 21.75 7.4 24.4 4.95 24.4 2.1 24.4 0.05 23.0 -1.35 21.6 -2.75 19.3 -3.05 L12.6 -3.4 9.1 -3.6 Q7.9 -3.75 7.5 -4.15 7.1 -4.55 7.1 -5.0 7.1 -5.5 7.5 -6.2 7.85 -6.9 8.95 -7.85 L12.45 -7.35 Q16.55 -7.35 19.0 -9.65 21.45 -11.9 21.45 -15.1 21.45 -17.9 20.05 -19.7 L23.05 -19.7 24.3 -19.8 24.55 -20.0 24.7 -20.9 24.55 -21.7 24.3 -21.9 23.05 -21.95 18.2 -21.95 Q15.8 -23.55 12.5 -23.55 8.5 -23.55 5.95 -21.1 3.4 -18.65 3.4 -15.25 3.4 -13.05 4.5 -11.2 5.65 -9.35 7.75 -8.35" fill-rule="evenodd" stroke="none"/>
    </g>
    <g id="font_Times_New_Roman_e0">
      <path d="M5.45 -15.7 L5.45 -15.7 Q5.75 -18.6 7.4 -20.2 9.0 -21.8 11.1 -21.8 12.45 -21.8 13.7 -21.0 14.9 -20.2 15.55 -18.8 15.95 -17.9 16.05 -15.7 L5.45 -15.7 M5.45 -14.25 L21.3 -14.25 Q21.3 -18.5 18.8 -21.05 16.35 -23.6 12.5 -23.6 7.95 -23.6 4.95 -20.3 1.9 -17.0 1.9 -11.15 1.9 -5.7 4.85 -2.5 7.8 0.7 11.9 0.7 15.7 0.7 18.25 -2.1 20.75 -4.9 21.3 -8.35 L20.5 -8.85 Q19.4 -5.85 17.75 -4.6 16.05 -3.35 13.8 -3.35 10.45 -3.35 7.95 -6.25 5.45 -9.15 5.45 -14.25" fill-rule="evenodd" stroke="none"/>
    </g>
    <g id="font_Times_New_Roman_t0">
      <path d="M8.25 -30.4 L7.5 -30.4 5.9 -26.95 Q4.75 -25.15 3.35 -23.8 1.9 -22.5 0.5 -21.95 L0.5 -21.15 4.15 -21.15 4.15 -5.75 Q4.15 -3.25 4.65 -2.05 5.2 -0.9 6.3 -0.25 7.4 0.4 8.55 0.4 10.25 0.4 11.85 -0.85 13.45 -2.1 14.3 -4.55 L13.35 -4.55 Q12.9 -3.55 12.15 -3.0 11.35 -2.5 10.55 -2.5 9.55 -2.5 8.9 -3.3 8.25 -4.05 8.25 -6.3 L8.25 -21.15 13.6 -21.15 13.6 -22.9 8.25 -22.9 8.25 -30.4" fill-rule="evenodd" stroke="none"/>
    </g>
    <g id="font_Times_New_Roman_M0">
      <path d="M20.95 0.0 L21.8 0.0 34.85 -28.5 34.85 -5.85 Q34.85 -3.0 34.3 -2.2 33.45 -0.9 31.25 -0.9 L30.05 -0.9 30.05 0.0 44.45 0.0 44.45 -0.9 43.3 -0.9 Q41.3 -0.9 40.35 -1.95 39.65 -2.75 39.65 -5.85 L39.65 -28.0 Q39.65 -30.85 40.2 -31.65 41.1 -32.95 43.3 -32.95 L44.45 -32.95 44.45 -33.9 34.85 -33.9 22.75 -7.35 10.45 -33.9 0.85 -33.9 0.85 -32.95 3.9 -32.45 Q4.8 -32.0 5.15 -31.25 5.65 -30.25 5.65 -28.0 L5.65 -5.85 Q5.65 -3.0 5.1 -2.2 4.2 -0.9 2.05 -0.9 L0.85 -0.9 0.85 0.0 12.65 0.0 12.65 -0.9 11.45 -0.9 Q9.45 -0.9 8.55 -1.95 7.85 -2.75 7.85 -5.85 L7.85 -28.5 20.95 0.0" fill-rule="evenodd" stroke="none"/>
    </g>
    <g id="font_Times_New_Roman_i0">
      <path d="M9.5 -23.55 L8.4 -23.55 1.5 -20.75 1.85 -19.85 Q2.85 -20.25 3.55 -20.25 L4.6 -19.9 5.15 -18.8 Q5.35 -17.7 5.35 -14.0 L5.35 -5.15 Q5.35 -3.05 5.05 -2.3 L4.1 -1.2 1.85 -0.9 1.85 0.0 13.0 0.0 13.0 -0.9 10.75 -1.25 Q10.15 -1.6 9.85 -2.3 9.5 -3.0 9.5 -5.15 L9.5 -23.55 M7.45 -35.55 L7.45 -35.55 Q6.35 -35.55 5.65 -34.8 4.9 -34.05 4.9 -33.0 4.9 -31.95 5.65 -31.2 6.4 -30.45 7.45 -30.45 8.5 -30.45 9.25 -31.2 9.95 -31.95 9.95 -33.0 9.95 -34.05 9.25 -34.8 8.5 -35.55 7.45 -35.55" fill-rule="evenodd" stroke="none"/>
    </g>
    <g id="font_Times_New_Roman_s0">
      <path d="M16.4 -23.55 L15.6 -23.55 15.05 -22.8 14.45 -22.6 12.75 -23.0 9.45 -23.55 Q6.4 -23.55 4.45 -21.65 2.5 -19.75 2.5 -16.95 2.5 -14.75 3.65 -13.35 4.75 -11.9 8.4 -10.1 12.0 -8.3 13.25 -7.1 14.45 -5.95 14.45 -4.2 14.45 -2.8 13.35 -1.75 12.25 -0.75 10.55 -0.75 8.1 -0.75 6.1 -2.55 4.15 -4.3 3.45 -7.8 L2.6 -7.8 2.6 0.35 3.45 0.35 Q3.75 -0.3 4.35 -0.3 L5.7 -0.05 10.5 0.7 Q13.4 0.7 15.8 -1.2 18.15 -3.1 18.15 -6.25 18.15 -10.3 13.05 -12.75 L9.4 -14.55 Q7.05 -15.7 6.25 -16.7 5.45 -17.7 5.45 -19.1 5.45 -20.25 6.55 -21.15 7.6 -22.1 9.35 -22.1 11.65 -22.1 13.15 -20.75 14.65 -19.45 15.6 -15.75 L16.4 -15.75 16.4 -23.55" fill-rule="evenodd" stroke="none"/>
    </g>
    <g id="font_Times_New_Roman_d0">
      <path d="M17.8 -4.3 L17.8 -4.3 Q15.65 -2.05 13.4 -2.05 10.7 -2.05 8.5 -4.7 6.3 -7.4 6.3 -12.45 6.3 -17.45 8.55 -20.05 10.3 -22.05 12.5 -22.05 13.65 -22.05 14.9 -21.3 16.15 -20.6 16.9 -19.2 17.65 -17.8 17.8 -16.1 L17.8 -4.3 M17.8 -2.55 L17.8 0.7 18.95 0.7 25.75 -2.1 25.45 -3.0 Q24.35 -2.55 23.65 -2.55 23.1 -2.55 22.7 -2.9 22.3 -3.25 22.1 -4.15 21.9 -5.05 21.9 -9.05 L21.9 -35.55 20.8 -35.55 13.95 -32.75 14.3 -31.85 16.0 -32.25 17.0 -31.95 Q17.4 -31.6 17.6 -30.7 17.8 -29.8 17.8 -25.9 L17.8 -21.65 Q15.8 -23.6 12.8 -23.6 7.9 -23.6 4.8 -19.5 1.7 -15.4 1.7 -10.5 1.7 -5.55 4.5 -2.4 7.3 0.7 11.05 0.7 12.9 0.7 14.5 -0.05 16.1 -0.8 17.8 -2.55" fill-rule="evenodd" stroke="none"/>
    </g>
    <g id="font_Times_New_Roman__1">
      <path d="M8.5 -4.8 L8.5 -4.8 Q7.35 -4.8 6.55 -4.0 5.75 -3.2 5.75 -2.05 5.75 -0.9 6.55 -0.1 7.35 0.7 8.5 0.7 9.65 0.7 10.5 -0.1 11.3 -0.9 11.3 -2.05 11.3 -3.2 10.5 -4.0 9.65 -4.8 8.5 -4.8 M9.0 -8.95 L11.25 -29.2 11.35 -30.9 Q11.35 -32.75 10.55 -33.7 9.75 -34.65 8.55 -34.65 7.4 -34.65 6.55 -33.7 5.7 -32.75 5.7 -31.2 L5.85 -29.2 8.05 -8.95 9.0 -8.95" fill-rule="evenodd" stroke="none"/>
    </g>
    <g id="font_Times_New_Roman_-0">
      <path d="M2.1 -13.35 L2.1 -9.6 15.0 -9.6 15.0 -13.35 2.1 -13.35" fill-rule="evenodd" stroke="none"/>
    </g>
    <g id="font_Times_New_Roman_G0">
      <path d="M31.45 -34.65 L30.5 -34.65 Q30.45 -33.4 30.1 -32.95 29.75 -32.5 29.3 -32.5 28.8 -32.5 27.4 -33.05 L23.15 -34.35 19.75 -34.65 Q14.7 -34.65 10.95 -32.5 6.5 -29.85 3.95 -25.0 1.8 -20.9 1.8 -16.4 1.8 -10.25 5.65 -5.5 10.75 0.8 20.55 0.8 L26.8 0.05 Q29.6 -0.65 32.45 -2.2 L32.45 -12.6 Q32.45 -15.3 32.95 -16.25 33.7 -17.55 35.65 -17.55 L36.25 -17.55 36.25 -18.5 23.15 -18.5 23.15 -17.55 26.0 -17.1 Q26.8 -16.7 27.2 -15.9 27.6 -15.15 27.6 -12.6 L27.6 -2.8 Q25.95 -1.85 24.2 -1.4 L20.6 -0.9 Q17.4 -0.9 14.35 -2.75 11.3 -4.65 9.45 -8.65 7.55 -12.65 7.55 -17.5 7.55 -23.45 10.4 -27.8 13.75 -32.9 20.25 -32.9 25.0 -32.9 28.0 -30.0 30.1 -27.95 31.45 -23.95 L32.3 -23.95 31.45 -34.65" fill-rule="evenodd" stroke="none"/>
    </g>
    <g id="font_Times_New_Roman_m0">
      <path d="M8.4 -18.7 L8.4 -23.55 7.35 -23.55 0.45 -20.75 0.8 -19.85 2.5 -20.25 Q3.15 -20.25 3.5 -19.9 L4.05 -18.8 4.3 -13.9 4.3 -5.15 Q4.3 -3.05 3.95 -2.3 3.65 -1.55 3.0 -1.2 L0.8 -0.9 0.8 0.0 12.15 0.0 12.15 -0.9 9.65 -1.2 Q9.05 -1.55 8.75 -2.25 8.4 -2.9 8.4 -5.15 L8.4 -17.45 Q9.55 -18.8 11.6 -19.9 12.95 -20.65 14.3 -20.65 16.25 -20.65 17.35 -19.05 18.2 -17.8 18.2 -15.0 L18.2 -5.15 18.05 -2.7 Q17.8 -1.8 17.1 -1.35 16.35 -0.9 14.45 -0.9 L14.45 0.0 26.05 0.0 26.05 -0.9 23.55 -1.25 Q22.85 -1.65 22.6 -2.25 22.3 -2.8 22.3 -5.15 L22.3 -16.1 22.25 -17.15 22.3 -17.45 Q24.2 -19.25 25.55 -19.9 L28.2 -20.55 Q30.35 -20.55 31.35 -18.95 32.0 -17.8 32.0 -15.0 L32.0 -5.15 31.9 -2.75 Q31.65 -1.85 31.1 -1.45 30.25 -0.9 28.8 -0.9 L28.3 -0.9 28.3 0.0 39.6 0.0 39.6 -0.9 Q38.1 -0.9 37.4 -1.25 36.75 -1.65 36.5 -2.2 36.15 -3.0 36.15 -5.15 L36.15 -15.0 Q36.15 -18.1 35.6 -19.55 34.8 -21.7 33.4 -22.6 31.95 -23.55 30.15 -23.55 28.25 -23.55 26.5 -22.6 24.7 -21.7 22.15 -18.7 21.6 -21.05 20.05 -22.3 18.5 -23.55 16.35 -23.55 L13.8 -23.05 Q12.5 -22.5 11.35 -21.55 L8.4 -18.7" fill-rule="evenodd" stroke="none"/>
    </g>
    <g id="font_Times_New_Roman_O0">
      <path d="M18.25 -32.85 L18.25 -32.85 Q23.1 -32.85 25.85 -29.45 29.3 -25.15 29.3 -16.45 29.3 -8.45 26.2 -4.7 23.05 -1.0 18.3 -1.0 13.8 -1.0 11.1 -4.4 7.55 -8.85 7.55 -17.15 7.55 -25.25 10.95 -29.45 13.7 -32.85 18.25 -32.85 M18.75 -34.65 L18.75 -34.65 Q12.1 -34.65 7.3 -30.25 1.8 -25.15 1.8 -17.05 1.8 -9.15 6.6 -4.2 11.35 0.8 18.35 0.8 25.25 0.8 30.15 -4.3 35.0 -9.4 35.0 -17.15 35.0 -24.65 30.2 -29.65 25.35 -34.65 18.75 -34.65" fill-rule="evenodd" stroke="none"/>
    </g>
    <g id="font_Times_New_Roman_v0">
      <path d="M0.45 -22.9 L0.45 -21.95 2.1 -21.55 3.4 -20.55 4.45 -18.6 12.6 0.7 13.65 0.7 21.75 -18.95 Q22.45 -20.7 23.35 -21.45 23.85 -21.85 25.15 -21.95 L25.15 -22.9 17.65 -22.9 17.65 -21.95 19.4 -21.8 20.1 -21.3 20.3 -20.75 Q20.3 -20.0 19.7 -18.6 L14.35 -5.5 9.05 -18.15 Q8.5 -19.35 8.5 -20.2 8.5 -21.0 9.05 -21.5 9.55 -21.95 10.5 -21.95 L11.2 -21.95 11.2 -22.9 0.45 -22.9" fill-rule="evenodd" stroke="none"/>
    </g>
  </defs>
</svg>
