<?xml version="1.0" encoding="UTF-8" standalone="no"?>
<svg xmlns:xlink="http://www.w3.org/1999/xlink" height="95.3px" width="294.7px" xmlns="http://www.w3.org/2000/svg">
  <g transform="matrix(1.0, 0.0, 0.0, 1.0, 64.5, -8.5)">
    <g transform="matrix(1.0, 0.0, 0.0, 1.0, -65.85, 0.0)">
      <use fill="#000000" height="95.3" transform="matrix(0.625, 0.0, 0.0, 0.625, 3.0, 66.0)" width="294.7" xlink:href="#font_Times_New_Roman_Y0"/>
      <use fill="#000000" height="95.3" transform="matrix(0.625, 0.0, 0.0, 0.625, 26.1, 66.0)" width="294.7" xlink:href="#font_Times_New_Roman_o0"/>
      <use fill="#000000" height="95.3" transform="matrix(0.625, 0.0, 0.0, 0.625, 42.1, 66.0)" width="294.7" xlink:href="#font_Times_New_Roman_u0"/>
      <use fill="#000000" height="95.3" transform="matrix(0.625, 0.0, 0.0, 0.625, 66.1, 66.0)" width="294.7" xlink:href="#font_Times_New_Roman_S0"/>
      <use fill="#000000" height="95.3" transform="matrix(0.625, 0.0, 0.0, 0.625, 83.9, 66.0)" width="294.7" xlink:href="#font_Times_New_Roman_c0"/>
      <use fill="#000000" height="95.3" transform="matrix(0.625, 0.0, 0.0, 0.625, 98.1, 66.0)" width="294.7" xlink:href="#font_Times_New_Roman_o0"/>
      <use fill="#000000" height="95.3" transform="matrix(0.625, 0.0, 0.0, 0.625, 114.1, 66.0)" width="294.7" xlink:href="#font_Times_New_Roman_r0"/>
      <use fill="#000000" height="95.3" transform="matrix(0.625, 0.0, 0.0, 0.625, 124.75, 66.0)" width="294.7" xlink:href="#font_Times_New_Roman_e0"/>
      <use fill="#000000" height="95.3" transform="matrix(0.625, 0.0, 0.0, 0.625, 138.95, 66.0)" width="294.7" xlink:href="#font_Times_New_Roman_d0"/>
      <use fill="#000000" height="95.3" transform="matrix(0.625, 0.0, 0.0, 0.625, 162.95, 66.0)" width="294.7" xlink:href="#font_Times_New_Roman_:0"/>
      <use fill="#000000" height="95.3" transform="matrix(0.625, 0.0, 0.0, 0.625, 179.85, 66.0)" width="294.7" xlink:href="#font_Times_New_Roman_10"/>
      <use fill="#000000" height="95.3" transform="matrix(0.625, 0.0, 0.0, 0.625, 195.85, 66.0)" width="294.7" xlink:href="#font_Times_New_Roman_20"/>
      <use fill="#000000" height="95.3" transform="matrix(0.625, 0.0, 0.0, 0.625, 211.85, 66.0)" width="294.7" xlink:href="#font_Times_New_Roman_50"/>
      <use fill="#000000" height="95.3" transform="matrix(0.625, 0.0, 0.0, 0.625, 235.85, 66.0)" width="294.7" xlink:href="#font_Times_New_Roman_p0"/>
      <use fill="#000000" height="95.3" transform="matrix(0.625, 0.0, 0.0, 0.625, 251.85, 66.0)" width="294.7" xlink:href="#font_Times_New_Roman_t0"/>
      <use fill="#000000" height="95.3" transform="matrix(0.625, 0.0, 0.0, 0.625, 260.75, 66.0)" width="294.7" xlink:href="#font_Times_New_Roman_s0"/>
    </g>
    <g transform="matrix(1.0, 0.0, 0.0, 1.0, -65.85, 0.0)">
      <use fill="#000000" height="95.3" transform="matrix(0.625, 0.0, 0.0, 0.625, 0.0, 103.0)" width="294.7" xlink:href="#font_Times_New_Roman_-0"/>
      <use fill="#000000" height="95.3" transform="matrix(0.625, 0.0, 0.0, 0.625, 18.65, 103.0)" width="294.7" xlink:href="#font_Times_New_Roman_C0"/>
      <use fill="#000000" height="95.3" transform="matrix(0.625, 0.0, 0.0, 0.625, 40.0, 103.0)" width="294.7" xlink:href="#font_Times_New_Roman_l0"/>
      <use fill="#000000" height="95.3" transform="matrix(0.625, 0.0, 0.0, 0.625, 48.9, 103.0)" width="294.7" xlink:href="#font_Times_New_Roman_i0"/>
      <use fill="#000000" height="95.3" transform="matrix(0.625, 0.0, 0.0, 0.625, 57.8, 103.0)" width="294.7" xlink:href="#font_Times_New_Roman_c0"/>
      <use fill="#000000" height="95.3" transform="matrix(0.625, 0.0, 0.0, 0.625, 72.0, 103.0)" width="294.7" xlink:href="#font_Times_New_Roman_k0"/>
      <use fill="#000000" height="95.3" transform="matrix(0.625, 0.0, 0.0, 0.625, 96.0, 103.0)" width="294.7" xlink:href="#font_Times_New_Roman_T0"/>
      <use fill="#000000" height="95.3" transform="matrix(0.625, 0.0, 0.0, 0.625, 115.55, 103.0)" width="294.7" xlink:href="#font_Times_New_Roman_o0"/>
      <use fill="#000000" height="95.3" transform="matrix(0.625, 0.0, 0.0, 0.625, 139.55, 103.0)" width="294.7" xlink:href="#font_Times_New_Roman_C0"/>
      <use fill="#000000" height="95.3" transform="matrix(0.625, 0.0, 0.0, 0.625, 160.9, 103.0)" width="294.7" xlink:href="#font_Times_New_Roman_o0"/>
      <use fill="#000000" height="95.3" transform="matrix(0.625, 0.0, 0.0, 0.625, 176.9, 103.0)" width="294.7" xlink:href="#font_Times_New_Roman_n0"/>
      <use fill="#000000" height="95.3" transform="matrix(0.625, 0.0, 0.0, 0.625, 192.9, 103.0)" width="294.7" xlink:href="#font_Times_New_Roman_t0"/>
      <use fill="#000000" height="95.3" transform="matrix(0.625, 0.0, 0.0, 0.625, 201.8, 103.0)" width="294.7" xlink:href="#font_Times_New_Roman_i0"/>
      <use fill="#000000" height="95.3" transform="matrix(0.625, 0.0, 0.0, 0.625, 210.7, 103.0)" width="294.7" xlink:href="#font_Times_New_Roman_n0"/>
      <use fill="#000000" height="95.3" transform="matrix(0.625, 0.0, 0.0, 0.625, 226.7, 103.0)" width="294.7" xlink:href="#font_Times_New_Roman_u0"/>
      <use fill="#000000" height="95.3" transform="matrix(0.625, 0.0, 0.0, 0.625, 242.7, 103.0)" width="294.7" xlink:href="#font_Times_New_Roman_e0"/>
      <use fill="#000000" height="95.3" transform="matrix(0.625, 0.0, 0.0, 0.625, 264.9, 103.0)" width="294.7" xlink:href="#font_Times_New_Roman_-0"/>
    </g>
  </g>
  <defs>
    <g id="font_Times_New_Roman_Y0">
      <path d="M24.4 -33.9 L24.4 -32.95 26.45 -32.65 27.5 -31.8 Q27.85 -31.25 27.85 -30.55 27.85 -29.4 26.35 -27.05 L19.7 -16.6 12.6 -27.5 Q11.1 -29.85 11.1 -30.75 11.1 -31.85 12.1 -32.4 13.05 -32.95 14.25 -32.95 L15.0 -32.95 15.0 -33.9 0.5 -33.9 0.5 -32.95 1.95 -32.7 Q3.8 -31.85 4.4 -31.2 L6.6 -28.1 15.9 -13.9 15.9 -5.85 Q15.9 -3.0 15.35 -2.2 14.45 -0.9 12.3 -0.9 L11.1 -0.9 11.1 0.0 25.5 0.0 25.5 -0.9 24.4 -0.9 Q22.35 -0.9 21.4 -1.95 20.7 -2.75 20.7 -5.85 L20.7 -14.35 28.9 -27.25 31.4 -30.75 33.7 -32.4 35.6 -32.95 36.25 -32.95 36.25 -33.9 24.4 -33.9" fill-rule="evenodd" stroke="none"/>
    </g>
    <g id="font_Times_New_Roman_o0">
      <path d="M12.05 -21.95 L12.05 -21.95 Q14.8 -21.95 16.55 -19.55 19.2 -16.05 19.2 -9.95 19.2 -5.05 17.6 -3.05 16.05 -1.05 13.6 -1.05 10.35 -1.05 8.4 -4.7 6.4 -8.3 6.4 -13.3 6.4 -16.4 7.2 -18.4 8.05 -20.35 9.4 -21.15 10.7 -21.95 12.05 -21.95 M12.8 -23.55 L12.8 -23.55 Q9.95 -23.55 7.4 -22.05 4.85 -20.6 3.3 -17.45 1.75 -14.35 1.75 -11.2 1.75 -6.9 4.3 -3.4 7.35 0.7 12.55 0.7 15.7 0.7 18.3 -0.9 20.9 -2.5 22.35 -5.65 23.85 -8.8 23.85 -11.85 23.85 -16.25 21.15 -19.6 18.0 -23.55 12.8 -23.55" fill-rule="evenodd" stroke="none"/>
    </g>
    <g id="font_Times_New_Roman_u0">
      <path d="M21.7 -22.9 L13.9 -22.9 13.9 -21.95 Q16.15 -21.9 16.85 -21.2 17.55 -20.55 17.55 -18.6 L17.55 -5.6 Q15.7 -3.7 14.35 -3.05 12.95 -2.35 11.9 -2.35 10.3 -2.35 9.2 -3.35 8.1 -4.35 8.1 -7.55 L8.1 -22.9 0.05 -22.9 0.05 -21.95 2.55 -21.65 3.6 -20.7 Q3.95 -20.05 3.95 -18.45 L3.95 -8.2 Q3.95 -5.0 4.5 -3.25 5.05 -1.5 6.45 -0.4 7.85 0.7 9.8 0.7 11.5 0.7 13.05 -0.1 14.6 -0.95 17.55 -4.15 L17.55 0.7 18.7 0.7 25.55 -2.1 25.2 -3.0 23.45 -2.55 Q22.9 -2.55 22.5 -2.9 22.05 -3.25 21.9 -4.15 21.7 -5.05 21.7 -9.0 L21.7 -22.9" fill-rule="evenodd" stroke="none"/>
    </g>
    <g id="font_Times_New_Roman_S0">
      <path d="M23.5 -34.65 L22.55 -34.65 Q22.3 -33.5 21.9 -33.1 21.5 -32.7 20.85 -32.7 20.25 -32.7 18.85 -33.35 15.85 -34.65 13.15 -34.65 8.8 -34.65 6.0 -32.0 3.2 -29.4 3.2 -25.75 3.2 -23.65 4.15 -21.9 5.1 -20.15 6.95 -18.7 L13.15 -14.8 18.45 -11.6 Q19.9 -10.5 20.6 -9.25 21.3 -7.95 21.3 -6.7 21.3 -4.45 19.5 -2.8 17.65 -1.15 14.55 -1.15 11.85 -1.15 9.6 -2.35 7.3 -3.55 6.2 -5.35 5.1 -7.2 4.45 -10.85 L3.55 -10.85 3.55 0.8 4.45 0.8 Q4.65 -0.4 5.0 -0.75 5.35 -1.15 6.0 -1.15 L9.1 -0.35 12.3 0.55 15.05 0.8 Q19.75 0.8 22.75 -2.0 25.75 -4.8 25.75 -8.65 25.75 -10.65 24.8 -12.5 23.85 -14.35 22.15 -15.7 20.4 -17.1 15.65 -19.65 9.8 -22.75 8.25 -24.65 7.2 -25.9 7.2 -27.45 7.2 -29.5 8.9 -31.05 10.6 -32.65 13.2 -32.65 15.5 -32.65 17.65 -31.5 19.8 -30.3 20.95 -28.3 22.1 -26.3 22.55 -22.95 L23.5 -22.95 23.5 -34.65" fill-rule="evenodd" stroke="none"/>
    </g>
    <g id="font_Times_New_Roman_c0">
      <path d="M21.05 -8.7 L20.35 -9.05 Q19.05 -6.0 17.65 -4.85 15.7 -3.2 13.25 -3.2 9.85 -3.2 7.85 -6.3 5.8 -9.45 5.8 -13.55 5.8 -17.6 7.85 -20.05 9.35 -21.9 11.85 -21.9 13.4 -21.9 14.3 -21.15 15.15 -20.35 15.3 -18.9 15.45 -17.4 15.85 -16.9 16.6 -15.95 18.1 -15.95 19.2 -15.95 19.8 -16.5 20.4 -17.1 20.4 -18.05 20.4 -20.0 18.25 -21.75 16.05 -23.55 12.7 -23.55 8.2 -23.55 5.0 -20.2 1.75 -16.8 1.75 -11.4 1.75 -5.85 4.65 -2.55 7.55 0.7 11.45 0.7 14.75 0.7 17.45 -1.7 20.15 -4.15 21.05 -8.7" fill-rule="evenodd" stroke="none"/>
    </g>
    <g id="font_Times_New_Roman_r0">
      <path d="M8.3 -23.55 L7.25 -23.55 0.35 -20.75 0.6 -19.85 2.35 -20.25 Q3.0 -20.25 3.45 -19.9 L4.05 -18.75 4.2 -14.0 4.2 -5.15 4.05 -2.7 Q3.8 -1.85 3.2 -1.45 2.35 -0.9 0.6 -0.9 L0.6 0.0 12.3 0.0 12.3 -0.9 Q10.75 -0.9 9.95 -1.35 9.1 -1.8 8.8 -2.45 8.3 -3.45 8.3 -5.35 L8.3 -16.3 Q9.5 -18.65 10.65 -19.7 11.15 -20.2 11.6 -20.2 12.15 -20.2 13.25 -19.3 14.3 -18.45 15.2 -18.45 16.1 -18.45 16.75 -19.15 17.4 -19.8 17.4 -20.8 17.4 -21.9 16.5 -22.7 15.6 -23.55 14.2 -23.55 11.2 -23.55 8.3 -18.4 L8.3 -23.55" fill-rule="evenodd" stroke="none"/>
    </g>
    <g id="font_Times_New_Roman_e0">
      <path d="M5.45 -15.7 L5.45 -15.7 Q5.75 -18.6 7.4 -20.2 9.0 -21.8 11.1 -21.8 12.45 -21.8 13.7 -21.0 14.9 -20.2 15.55 -18.8 15.95 -17.9 16.05 -15.7 L5.45 -15.7 M5.45 -14.25 L21.3 -14.25 Q21.3 -18.5 18.8 -21.05 16.35 -23.6 12.5 -23.6 7.95 -23.6 4.95 -20.3 1.9 -17.0 1.9 -11.15 1.9 -5.7 4.85 -2.5 7.8 0.7 11.9 0.7 15.7 0.7 18.25 -2.1 20.75 -4.9 21.3 -8.35 L20.5 -8.85 Q19.4 -5.85 17.75 -4.6 16.05 -3.35 13.8 -3.35 10.45 -3.35 7.95 -6.25 5.45 -9.15 5.45 -14.25" fill-rule="evenodd" stroke="none"/>
    </g>
    <g id="font_Times_New_Roman_d0">
      <path d="M17.8 -4.3 L17.8 -4.3 Q15.65 -2.05 13.4 -2.05 10.7 -2.05 8.5 -4.7 6.3 -7.4 6.3 -12.45 6.3 -17.45 8.55 -20.05 10.3 -22.05 12.5 -22.05 13.65 -22.05 14.9 -21.3 16.15 -20.6 16.9 -19.2 17.65 -17.8 17.8 -16.1 L17.8 -4.3 M17.8 -2.55 L17.8 0.7 18.95 0.7 25.75 -2.1 25.45 -3.0 Q24.35 -2.55 23.65 -2.55 23.1 -2.55 22.7 -2.9 22.3 -3.25 22.1 -4.15 21.9 -5.05 21.9 -9.05 L21.9 -35.55 20.8 -35.55 13.95 -32.75 14.3 -31.85 16.0 -32.25 17.0 -31.95 Q17.4 -31.6 17.6 -30.7 17.8 -29.8 17.8 -25.9 L17.8 -21.65 Q15.8 -23.6 12.8 -23.6 7.9 -23.6 4.8 -19.5 1.7 -15.4 1.7 -10.5 1.7 -5.55 4.5 -2.4 7.3 0.7 11.05 0.7 12.9 0.7 14.5 -0.05 16.1 -0.8 17.8 -2.55" fill-rule="evenodd" stroke="none"/>
    </g>
    <g id="font_Times_New_Roman_:0">
      <path d="M7.2 -4.85 L7.2 -4.85 Q6.05 -4.85 5.25 -4.05 4.4 -3.2 4.4 -2.05 4.4 -0.9 5.25 -0.1 6.05 0.7 7.2 0.7 8.35 0.7 9.15 -0.1 10.0 -0.9 10.0 -2.05 10.0 -3.2 9.2 -4.05 8.35 -4.85 7.2 -4.85 M7.25 -23.6 L7.25 -23.6 Q6.1 -23.6 5.3 -22.75 4.45 -21.95 4.45 -20.8 4.45 -19.65 5.3 -18.85 6.1 -18.05 7.25 -18.05 8.4 -18.05 9.2 -18.85 10.0 -19.65 10.0 -20.8 10.0 -21.95 9.2 -22.75 8.4 -23.6 7.25 -23.6" fill-rule="evenodd" stroke="none"/>
    </g>
    <g id="font_Times_New_Roman_10">
      <path d="M6.0 -30.55 L6.4 -29.8 Q8.05 -30.55 8.95 -30.55 L10.1 -30.2 10.7 -29.0 10.95 -24.25 10.95 -5.95 10.7 -2.3 9.7 -1.3 6.6 -0.9 6.6 0.0 19.35 0.0 19.35 -0.9 Q17.05 -0.95 16.3 -1.35 15.55 -1.7 15.35 -2.4 15.1 -3.1 15.1 -5.95 L15.1 -34.6 14.25 -34.6 6.0 -30.55" fill-rule="evenodd" stroke="none"/>
    </g>
    <g id="font_Times_New_Roman_20">
      <path d="M23.5 -6.5 L22.55 -6.5 Q21.9 -5.4 21.05 -4.75 20.15 -4.15 19.1 -3.95 L15.3 -3.75 6.45 -3.75 14.2 -11.95 Q18.35 -16.5 20.2 -20.55 21.4 -23.1 21.4 -25.7 21.4 -29.3 18.65 -31.95 15.9 -34.6 11.75 -34.6 7.9 -34.6 5.3 -32.1 2.7 -29.65 2.1 -25.0 L3.0 -25.0 Q3.95 -27.85 5.95 -29.3 7.95 -30.75 10.45 -30.75 13.2 -30.75 15.15 -28.7 17.15 -26.6 17.15 -23.4 17.15 -19.15 13.55 -14.05 9.95 -8.95 1.1 -0.9 L1.1 0.0 21.1 0.0 23.5 -6.5" fill-rule="evenodd" stroke="none"/>
    </g>
    <g id="font_Times_New_Roman_50">
      <path d="M22.25 -33.9 L10.1 -33.9 3.6 -20.7 Q8.3 -20.55 11.0 -19.4 14.5 -17.95 16.45 -15.3 18.45 -12.65 18.45 -9.55 18.45 -6.4 16.25 -4.15 14.0 -1.95 11.1 -1.95 9.15 -1.95 7.3 -3.25 L5.65 -4.3 4.5 -4.5 Q3.6 -4.5 3.05 -3.95 2.45 -3.4 2.45 -2.7 2.45 -1.45 3.85 -0.4 5.25 0.6 8.3 0.6 11.3 0.6 14.2 -0.75 16.2 -1.75 17.85 -3.35 19.5 -4.95 20.6 -7.2 21.7 -9.5 21.7 -12.15 21.7 -16.75 18.35 -20.15 14.5 -24.1 7.85 -25.1 L10.1 -29.65 20.3 -29.65 22.25 -33.9" fill-rule="evenodd" stroke="none"/>
    </g>
    <g id="font_Times_New_Roman_p0">
      <path d="M7.95 -16.65 L7.95 -16.65 Q10.05 -18.9 10.95 -19.35 12.1 -19.95 13.3 -19.95 15.5 -19.95 17.1 -18.0 19.4 -15.15 19.4 -9.9 19.4 -5.3 17.4 -2.75 15.85 -0.8 13.35 -0.8 11.25 -0.8 9.9 -1.9 8.55 -3.0 8.2 -4.45 7.95 -5.3 7.95 -8.1 L7.95 -16.65 M-0.05 -20.6 L0.25 -19.8 1.8 -20.15 3.0 -19.85 3.6 -18.95 Q3.8 -18.35 3.8 -16.15 L3.8 5.5 3.55 8.65 2.8 9.5 Q1.85 10.05 0.45 10.05 L-0.15 10.05 -0.15 10.95 11.85 10.95 11.85 10.05 9.25 9.65 Q8.55 9.3 8.25 8.65 7.95 8.0 7.95 5.65 L7.95 -1.3 Q9.2 -0.2 10.2 0.2 L13.4 0.7 Q17.65 0.7 20.45 -2.45 23.85 -6.35 23.85 -12.25 23.85 -17.55 21.05 -20.85 18.75 -23.55 15.3 -23.55 13.3 -23.55 11.55 -22.35 9.75 -21.15 7.95 -18.1 L7.95 -23.45 7.0 -23.45 -0.05 -20.6" fill-rule="evenodd" stroke="none"/>
    </g>
    <g id="font_Times_New_Roman_t0">
      <path d="M8.25 -30.4 L7.5 -30.4 5.9 -26.95 Q4.75 -25.15 3.35 -23.8 1.9 -22.5 0.5 -21.95 L0.5 -21.15 4.15 -21.15 4.15 -5.75 Q4.15 -3.25 4.65 -2.05 5.2 -0.9 6.3 -0.25 7.4 0.4 8.55 0.4 10.25 0.4 11.85 -0.85 13.45 -2.1 14.3 -4.55 L13.35 -4.55 Q12.9 -3.55 12.15 -3.0 11.35 -2.5 10.55 -2.5 9.55 -2.5 8.9 -3.3 8.25 -4.05 8.25 -6.3 L8.25 -21.15 13.6 -21.15 13.6 -22.9 8.25 -22.9 8.25 -30.4" fill-rule="evenodd" stroke="none"/>
    </g>
    <g id="font_Times_New_Roman_s0">
      <path d="M16.4 -23.55 L15.6 -23.55 15.05 -22.8 14.45 -22.6 12.75 -23.0 9.45 -23.55 Q6.4 -23.55 4.45 -21.65 2.5 -19.75 2.5 -16.95 2.5 -14.75 3.65 -13.35 4.75 -11.9 8.4 -10.1 12.0 -8.3 13.25 -7.1 14.45 -5.95 14.45 -4.2 14.45 -2.8 13.35 -1.75 12.25 -0.75 10.55 -0.75 8.1 -0.75 6.1 -2.55 4.15 -4.3 3.45 -7.8 L2.6 -7.8 2.6 0.35 3.45 0.35 Q3.75 -0.3 4.35 -0.3 L5.7 -0.05 10.5 0.7 Q13.4 0.7 15.8 -1.2 18.15 -3.1 18.15 -6.25 18.15 -10.3 13.05 -12.75 L9.4 -14.55 Q7.05 -15.7 6.25 -16.7 5.45 -17.7 5.45 -19.1 5.45 -20.25 6.55 -21.15 7.6 -22.1 9.35 -22.1 11.65 -22.1 13.15 -20.75 14.65 -19.45 15.6 -15.75 L16.4 -15.75 16.4 -23.55" fill-rule="evenodd" stroke="none"/>
    </g>
    <g id="font_Times_New_Roman_-0">
      <path d="M2.1 -13.35 L2.1 -9.6 15.0 -9.6 15.0 -13.35 2.1 -13.35" fill-rule="evenodd" stroke="none"/>
    </g>
    <g id="font_Times_New_Roman_C0">
      <path d="M30.85 -34.65 L29.95 -34.65 Q29.7 -33.45 29.05 -32.8 28.55 -32.3 27.85 -32.3 27.4 -32.3 26.35 -32.85 22.8 -34.65 19.1 -34.65 14.4 -34.65 10.4 -32.3 6.4 -30.0 4.15 -25.75 1.85 -21.5 1.85 -16.4 1.85 -10.1 5.3 -5.45 9.95 0.8 18.35 0.8 23.05 0.8 26.45 -1.3 29.85 -3.4 32.4 -7.95 L31.6 -8.45 Q28.6 -4.25 26.05 -2.8 23.55 -1.4 20.25 -1.4 16.45 -1.4 13.5 -3.2 10.5 -5.0 9.05 -8.4 7.55 -11.75 7.55 -16.35 7.55 -21.95 9.15 -25.7 10.7 -29.45 13.4 -31.15 16.15 -32.85 19.5 -32.85 23.55 -32.85 26.4 -30.6 29.3 -28.3 30.85 -23.15 L31.6 -23.15 30.85 -34.65" fill-rule="evenodd" stroke="none"/>
    </g>
    <g id="font_Times_New_Roman_l0">
      <path d="M9.5 -35.55 L8.35 -35.55 1.55 -32.75 1.95 -31.85 3.6 -32.25 4.6 -31.95 5.15 -30.7 Q5.35 -29.85 5.35 -25.95 L5.35 -5.15 Q5.35 -3.05 5.0 -2.3 4.7 -1.55 4.1 -1.2 L1.95 -0.9 1.95 0.0 13.2 0.0 13.2 -0.9 Q11.4 -0.9 10.75 -1.25 10.1 -1.6 9.8 -2.3 9.5 -3.0 9.5 -5.15 L9.5 -35.55" fill-rule="evenodd" stroke="none"/>
    </g>
    <g id="font_Times_New_Roman_i0">
      <path d="M9.5 -23.55 L8.4 -23.55 1.5 -20.75 1.85 -19.85 Q2.85 -20.25 3.55 -20.25 L4.6 -19.9 5.15 -18.8 Q5.35 -17.7 5.35 -14.0 L5.35 -5.15 Q5.35 -3.05 5.05 -2.3 L4.1 -1.2 1.85 -0.9 1.85 0.0 13.0 0.0 13.0 -0.9 10.75 -1.25 Q10.15 -1.6 9.85 -2.3 9.5 -3.0 9.5 -5.15 L9.5 -23.55 M7.45 -35.55 L7.45 -35.55 Q6.35 -35.55 5.65 -34.8 4.9 -34.05 4.9 -33.0 4.9 -31.95 5.65 -31.2 6.4 -30.45 7.45 -30.45 8.5 -30.45 9.25 -31.2 9.95 -31.95 9.95 -33.0 9.95 -34.05 9.25 -34.8 8.5 -35.55 7.45 -35.55" fill-rule="evenodd" stroke="none"/>
    </g>
    <g id="font_Times_New_Roman_k0">
      <path d="M8.4 -35.55 L7.25 -35.55 0.45 -32.75 0.85 -31.85 2.45 -32.3 Q3.1 -32.3 3.5 -31.95 3.9 -31.6 4.05 -30.7 4.25 -29.85 4.25 -25.85 L4.25 -5.0 Q4.25 -3.0 3.85 -2.15 L3.05 -1.3 Q2.2 -0.9 0.45 -0.9 L0.45 0.0 12.1 0.0 12.1 -0.9 9.6 -1.2 Q9.0 -1.5 8.7 -2.2 8.4 -2.9 8.4 -5.15 L8.4 -12.75 15.4 -3.75 Q16.4 -2.5 16.4 -1.9 16.4 -1.45 16.1 -1.15 L14.8 -0.9 14.8 0.0 25.9 0.0 25.9 -0.9 23.75 -1.15 21.65 -2.65 18.35 -6.55 12.45 -14.0 18.35 -19.4 Q19.95 -20.9 21.35 -21.45 22.7 -22.05 24.75 -22.1 L24.75 -22.9 14.8 -22.9 14.8 -22.1 Q15.75 -22.05 16.15 -21.65 16.55 -21.3 16.55 -20.8 L16.35 -20.2 14.2 -18.05 8.4 -12.75 8.4 -35.55" fill-rule="evenodd" stroke="none"/>
    </g>
    <g id="font_Times_New_Roman_T0">
      <path d="M29.65 -33.9 L1.95 -33.9 1.55 -25.95 2.5 -25.95 Q2.7 -28.25 3.6 -29.6 4.55 -30.95 5.85 -31.4 L9.2 -31.75 13.3 -31.75 13.3 -5.85 Q13.3 -3.0 12.75 -2.2 11.85 -0.9 9.7 -0.9 L8.5 -0.9 8.5 0.0 22.85 0.0 22.85 -0.9 21.7 -0.9 Q19.7 -0.9 18.75 -1.95 18.1 -2.75 18.1 -5.85 L18.1 -31.75 22.85 -31.75 Q24.95 -31.75 26.25 -31.05 27.55 -30.4 28.3 -28.95 28.8 -28.05 29.05 -25.95 L30.0 -25.95 29.65 -33.9" fill-rule="evenodd" stroke="none"/>
    </g>
    <g id="font_Times_New_Roman_n0">
      <path d="M8.3 -18.7 L8.3 -23.55 7.2 -23.55 0.3 -20.75 0.7 -19.85 2.35 -20.25 3.4 -19.9 Q3.8 -19.6 4.0 -18.7 L4.15 -13.65 4.15 -5.15 Q4.15 -2.65 3.55 -1.75 2.95 -0.9 1.2 -0.9 L0.7 -0.9 0.7 0.0 12.0 0.0 12.0 -0.9 9.55 -1.2 Q8.9 -1.55 8.55 -2.3 8.3 -2.85 8.3 -5.15 L8.3 -17.25 Q11.25 -20.5 14.2 -20.5 16.15 -20.5 16.95 -19.05 17.75 -17.65 17.75 -14.55 L17.75 -5.15 17.65 -2.8 Q17.4 -1.85 16.8 -1.35 16.15 -0.9 14.55 -0.9 L14.05 -0.9 14.05 0.0 25.4 0.0 25.4 -0.9 Q23.75 -0.9 23.15 -1.25 22.5 -1.6 22.25 -2.2 21.9 -3.0 21.9 -5.15 L21.9 -14.95 Q21.9 -18.05 21.35 -19.55 20.55 -21.7 19.2 -22.6 17.85 -23.55 15.95 -23.55 12.3 -23.55 8.3 -18.7" fill-rule="evenodd" stroke="none"/>
    </g>
  </defs>
</svg>
