<?xml version="1.0" encoding="UTF-8" standalone="no"?>
<svg xmlns:xlink="http://www.w3.org/1999/xlink" height="260.45px" width="43.8px" xmlns="http://www.w3.org/2000/svg">
  <g transform="matrix(1.0, 0.0, 0.0, 1.0, 21.9, 130.2)">
    <use height="260.45" transform="matrix(1.0, 0.0, 0.0, 1.0, -21.9, -130.2)" width="43.8" xlink:href="#shape0"/>
  </g>
  <defs>
    <g id="shape0" transform="matrix(1.0, 0.0, 0.0, 1.0, 21.9, 130.2)">
      <path d="M1.05 -114.0 L1.7 -106.05 1.7 -106.0 18.05 84.55 Q17.85 84.55 17.7 84.7 L17.55 85.05 17.7 85.4 18.05 85.55 18.1 85.55 21.1 120.3 21.05 120.3 Q20.8 120.35 20.7 120.5 L20.6 120.9 20.8 121.2 21.15 121.3 21.4 123.95 -21.9 130.25 -21.9 -130.2 21.9 -130.2 21.9 -111.45 1.05 -114.0" fill="#000033" fill-rule="evenodd" stroke="none"/>
    </g>
  </defs>
</svg>
