<?xml version="1.0" encoding="UTF-8" standalone="no"?>
<svg xmlns:xlink="http://www.w3.org/1999/xlink" height="61.3px" width="28.3px" xmlns="http://www.w3.org/2000/svg">
  <g transform="matrix(1.0, 0.0, 0.0, 1.0, 14.15, 24.6)">
    <use height="61.3" transform="matrix(1.0, 0.0, 0.0, 1.0, -14.15, -24.6)" width="28.3" xlink:href="#shape0"/>
  </g>
  <defs>
    <g id="shape0" transform="matrix(1.0, 0.0, 0.0, 1.0, 14.15, 24.6)">
      <path d="M-1.2 -21.95 L-1.0 -21.65 -0.2 -19.8 Q-0.95 -12.1 -0.6 -4.3 L-0.25 -4.2 1.75 -3.05 Q4.55 -1.1 3.55 2.2 7.9 7.25 14.15 9.45 13.9 13.05 10.9 15.0 6.85 17.55 2.85 14.8 4.4 20.65 4.7 26.75 4.95 32.05 0.75 35.2 -1.25 36.7 -3.85 36.7 -11.9 36.05 -13.55 27.6 -15.55 17.35 -10.8 7.95 -15.55 4.25 -11.55 -0.6 L-9.6 -2.55 Q-10.1 -7.45 -10.2 -12.3 -10.0 -13.25 -10.05 -14.5 -10.25 -18.7 -8.85 -21.95 L-9.05 -16.95 Q-9.35 -10.05 -8.75 -3.15 -7.65 -3.95 -6.35 -4.3 L-1.65 -4.5 Q-2.2 -13.3 -1.2 -21.95 M-9.45 -1.05 L-9.75 -0.75 Q-13.4 3.25 -10.25 6.9 L-8.5 5.2 -7.8 4.65 Q-4.8 2.35 -1.1 1.85 L-0.2 1.75 Q1.3 1.6 2.95 1.75 3.3 -2.05 -0.35 -3.2 L-0.55 -3.3 -1.55 -3.55 -6.15 -3.25 Q-7.5 -2.8 -8.65 -1.8 L-9.45 -1.05 M-11.95 21.3 Q-11.3 15.6 -8.1 10.85 -10.3 17.95 -9.9 25.3 L-12.5 25.6 -11.95 21.3 M-7.2 21.5 Q-6.95 15.25 -3.3 11.45 -5.45 19.05 -4.05 26.8 L-6.3 27.05 Q-7.0 26.85 -7.35 26.25 L-7.2 21.5 M-5.05 24.1 L-5.25 15.9 Q-6.8 20.75 -6.7 25.9 L-4.65 26.25 -5.05 24.1 M-10.75 17.7 L-11.85 24.45 -10.9 25.0 -10.75 17.7 M-0.2 2.55 L-1.15 2.7 Q-2.45 2.9 -3.7 3.4 -6.0 4.25 -7.6 5.65 L-8.2 6.25 Q-10.5 8.6 -11.05 12.35 L-12.15 16.3 Q-14.75 25.7 -9.1 33.0 -7.75 34.7 -5.75 35.1 -0.15 36.15 2.35 30.75 4.95 25.2 2.75 19.2 0.8 13.95 4.3 9.85 L3.05 13.05 Q3.45 13.8 4.2 14.25 6.65 15.7 9.45 14.8 12.8 13.55 12.95 9.9 6.2 8.5 2.7 2.5 L-0.2 2.55" fill="#000000" fill-rule="evenodd" stroke="none"/>
      <path d="M-9.45 -1.05 L-8.65 -1.8 Q-7.5 -2.8 -6.15 -3.25 L-1.55 -3.55 -0.55 -3.3 -0.35 -3.2 Q3.3 -2.05 2.95 1.75 1.3 1.6 -0.2 1.75 L-1.1 1.85 Q-4.8 2.35 -7.8 4.65 L-8.5 5.2 -10.25 6.9 Q-13.4 3.25 -9.75 -0.75 L-9.45 -1.05 M-0.2 2.55 L2.7 2.5 Q6.2 8.5 12.95 9.9 12.8 13.55 9.45 14.8 6.65 15.7 4.2 14.25 3.45 13.8 3.05 13.05 L4.3 9.85 Q0.8 13.95 2.75 19.2 4.95 25.2 2.35 30.75 -0.15 36.15 -5.75 35.1 -7.75 34.7 -9.1 33.0 -14.75 25.7 -12.15 16.3 L-11.05 12.35 Q-10.5 8.6 -8.2 6.25 L-7.6 5.65 Q-6.0 4.25 -3.7 3.4 -2.45 2.9 -1.15 2.7 L-0.2 2.55 M-10.75 17.7 L-10.9 25.0 -11.85 24.45 -10.75 17.7 M-5.05 24.1 L-4.65 26.25 -6.7 25.9 Q-6.8 20.75 -5.25 15.9 L-5.05 24.1 M-7.2 21.5 L-7.35 26.25 Q-7.0 26.85 -6.3 27.05 L-4.05 26.8 Q-5.45 19.05 -3.3 11.45 -6.95 15.25 -7.2 21.5 M-11.95 21.3 L-12.5 25.6 -9.9 25.3 Q-10.3 17.95 -8.1 10.85 -11.3 15.6 -11.95 21.3" fill="#ffffff" fill-rule="evenodd" stroke="none"/>
      <path d="M-6.35 -4.3 Q-7.65 -3.95 -8.75 -3.15 -9.35 -10.05 -9.05 -16.95 L-8.85 -21.95 -7.75 -24.1 -7.1 -24.2 Q-7.85 -14.15 -6.35 -4.3" fill="#0db5c8" fill-rule="evenodd" stroke="none"/>
      <path d="M-1.2 -21.95 Q-2.2 -13.3 -1.65 -4.5 L-6.35 -4.3 Q-7.85 -14.15 -7.1 -24.2 L-6.8 -24.25 -4.5 -24.6 Q-2.55 -23.65 -1.2 -21.95" fill="#0ecfe4" fill-rule="evenodd" stroke="none"/>
    </g>
  </defs>
</svg>
