<?xml version="1.0" encoding="UTF-8" standalone="no"?>
<svg xmlns:xlink="http://www.w3.org/1999/xlink" height="129.6px" width="351.0px" xmlns="http://www.w3.org/2000/svg">
  <g transform="matrix(1.0, 0.0, 0.0, 1.0, 0.0, 0.0)">
    <path d="M169.2 127.25 Q167.75 125.45 167.4 122.3 L167.4 41.4 Q124.55 41.4 88.4 40.2 49.15 38.85 25.1 35.0 1.15 31.15 0.0 23.4 0.25 16.55 24.3 11.35 48.35 6.1 87.95 3.05 127.55 0.1 174.6 0.0 221.65 0.0 262.1 3.05 302.4 6.1 326.95 11.8 351.45 17.45 351.0 25.2 349.45 31.05 325.1 34.55 300.7 38.15 261.2 39.75 224.65 41.3 181.8 41.4 L181.8 122.3 Q180.9 129.5 174.6 129.5 L174.6 21.6 169.65 21.6 Q170.0 21.3 170.55 21.05 172.25 20.15 174.95 20.05 177.65 19.95 179.3 20.8 L180.25 21.5 Q181.45 22.5 181.7 24.3 L181.8 24.55 181.8 25.1 181.8 39.6 Q234.7 39.05 272.9 36.15 L273.7 36.25 305.55 33.2 303.95 33.1 Q344.45 28.05 345.6 23.4 344.95 19.9 325.9 15.85 L326.05 15.55 Q314.2 12.85 296.9 10.6 L250.0 5.95 248.4 5.85 180.0 3.6 Q103.25 3.85 54.25 9.45 5.2 15.1 3.6 23.4 4.6 31.4 35.45 35.0 L51.55 36.55 52.1 36.6 96.5 38.8 103.25 38.95 103.3 38.95 Q132.05 39.7 167.4 39.6 L167.4 25.1 Q167.5 24.45 167.75 24.0 168.2 22.75 169.2 21.95 L169.2 127.25" fill="#6f6a9e" fill-rule="evenodd" stroke="none"/>
    <path d="M167.75 24.0 Q167.5 24.45 167.4 25.1 L167.4 39.6 Q132.05 39.7 103.3 38.95 110.6 30.6 122.4 29.6 128.05 29.85 132.3 31.85 136.55 33.85 142.2 34.1 151.85 33.45 158.4 28.7 162.45 25.65 167.75 24.0 M35.45 35.0 Q4.6 31.4 3.6 23.4 5.2 15.1 54.25 9.45 103.25 3.85 180.0 3.6 L248.4 5.85 Q241.55 12.95 230.95 13.65 225.25 13.4 221.05 11.4 216.8 9.45 211.15 9.15 201.5 9.8 194.95 14.55 188.55 19.25 179.3 20.8 177.65 19.95 174.95 20.05 172.25 20.15 170.55 21.05 166.15 19.8 161.55 19.7 155.6 20.05 151.45 22.85 147.25 25.65 141.3 26.0 134.35 25.55 129.4 22.4 124.4 19.25 117.45 18.8 110.35 19.25 105.1 22.4 99.8 25.55 92.7 26.0 81.45 25.35 73.15 21.05 64.9 16.75 53.55 16.1 37.7 16.65 26.1 28.7 24.2 30.3 22.3 32.75 L35.45 35.0 M325.9 15.85 Q344.95 19.9 345.6 23.4 344.45 28.05 303.95 33.1 L181.7 24.3 Q181.45 22.5 180.25 21.5 185.85 23.4 191.8 23.55 197.75 23.2 201.85 20.4 206.1 17.65 212.05 17.25 218.95 17.7 223.9 20.85 228.95 24.0 235.9 24.45 243.0 24.0 248.2 20.85 253.55 17.7 260.65 17.25 271.9 17.9 280.15 22.2 288.45 26.55 299.8 27.15 314.9 26.65 325.9 15.85 M272.9 36.15 Q234.7 39.05 181.8 39.6 L181.8 25.1 181.8 24.55 272.9 36.15 M82.6 7.0 L52.45 9.9 174.6 18.8 82.6 7.0" fill="#e7e6e3" fill-rule="evenodd" stroke="none"/>
    <path d="M169.2 21.95 Q168.2 22.75 167.75 24.0 162.45 25.65 158.4 28.7 151.85 33.45 142.2 34.1 136.55 33.85 132.3 31.85 128.05 29.85 122.4 29.6 110.6 30.6 103.3 38.95 L103.25 38.95 96.5 38.8 52.1 36.6 51.55 36.55 35.45 35.0 22.3 32.75 Q24.2 30.3 26.1 28.7 37.7 16.65 53.55 16.1 64.9 16.75 73.15 21.05 81.45 25.35 92.7 26.0 99.8 25.55 105.1 22.4 110.35 19.25 117.45 18.8 124.4 19.25 129.4 22.4 134.35 25.55 141.3 26.0 147.25 25.65 151.45 22.85 155.6 20.05 161.55 19.7 166.15 19.8 170.55 21.05 170.0 21.3 169.65 21.6 L169.2 21.6 169.2 21.95 M248.4 5.85 L250.0 5.95 296.9 10.6 Q314.2 12.85 326.05 15.55 L325.9 15.85 Q314.9 26.65 299.8 27.15 288.45 26.55 280.15 22.2 271.9 17.9 260.65 17.25 253.55 17.7 248.2 20.85 243.0 24.0 235.9 24.45 228.95 24.0 223.9 20.85 218.95 17.7 212.05 17.25 206.1 17.65 201.85 20.4 197.75 23.2 191.8 23.55 185.85 23.4 180.25 21.5 L179.3 20.8 Q188.55 19.25 194.95 14.55 201.5 9.8 211.15 9.15 216.8 9.45 221.05 11.4 225.25 13.4 230.95 13.65 241.55 12.95 248.4 5.85 M303.95 33.1 L305.55 33.2 273.7 36.25 272.9 36.15 181.8 24.55 181.7 24.3 303.95 33.1 M82.6 7.0 L174.6 18.8 52.45 9.9 82.6 7.0" fill="#ffffff" fill-rule="evenodd" stroke="none"/>
    <path d="M169.2 127.25 L169.2 21.95 169.2 21.6 169.65 21.6 174.6 21.6 174.6 129.5 174.6 129.6 169.2 129.6 169.2 127.25" fill="#eff2e8" fill-rule="evenodd" stroke="none"/>
  </g>
</svg>
