<?xml version="1.0" encoding="UTF-8" standalone="no"?>
<svg xmlns:xlink="http://www.w3.org/1999/xlink" height="36.4px" width="41.05px" xmlns="http://www.w3.org/2000/svg">
  <g transform="matrix(1.0, 0.0, 0.0, 1.0, -0.6, 34.75)">
    <path d="M21.1 -34.75 Q25.85 -34.75 29.85 -33.3 33.85 -31.9 36.7 -29.35 39.6 -26.8 41.0 -23.5 L33.3 -20.95 27.8 -19.0 25.65 -18.2 Q24.7 -19.75 23.0 -20.4 L19.5 -20.6 Q17.7 -20.2 16.45 -18.65 15.2 -17.1 15.2 -14.35 15.25 -12.05 16.4 -10.55 17.55 -9.05 19.45 -8.9 L21.45 -9.2 Q22.4 -9.6 23.0 -10.45 L21.15 -10.7 19.55 -10.85 18.85 -10.9 18.75 -13.4 18.8 -15.45 18.85 -16.3 24.5 -16.5 31.8 -16.65 41.65 -16.8 Q41.5 -12.25 39.8 -8.8 38.1 -5.35 35.2 -3.05 32.3 -0.7 28.5 0.5 24.75 1.65 20.45 1.65 14.65 1.65 10.2 -0.45 5.75 -2.5 3.2 -6.5 0.65 -10.45 0.6 -16.15 0.65 -20.55 2.35 -24.0 4.05 -27.4 6.9 -29.8 9.8 -32.2 13.45 -33.45 17.1 -34.7 21.1 -34.75" fill="#000000" fill-rule="evenodd" stroke="none"/>
  </g>
</svg>
