<?xml version="1.0" encoding="UTF-8" standalone="no"?>
<svg xmlns:xlink="http://www.w3.org/1999/xlink" height="36.35px" width="41.15px" xmlns="http://www.w3.org/2000/svg">
  <g transform="matrix(1.0, 0.0, 0.0, 1.0, -1.1, 34.5)">
    <path d="M32.25 -34.05 L37.35 -33.5 40.9 -33.05 42.25 -32.85 41.75 -22.85 41.1 -11.85 40.25 -0.4 34.7 0.55 29.35 1.25 25.35 1.7 23.75 1.85 21.1 -3.2 18.6 -7.7 16.8 -10.95 16.1 -12.15 16.05 -6.8 15.95 -2.65 15.9 1.45 11.05 1.1 6.2 0.65 2.55 0.3 1.1 0.1 1.25 -16.7 1.65 -34.35 7.15 -34.2 12.05 -33.9 15.55 -33.65 16.9 -33.5 19.9 -27.4 22.8 -21.9 24.9 -18.0 25.75 -16.45 25.95 -22.8 26.15 -28.6 26.3 -32.85 26.35 -34.5 32.25 -34.05" fill="#000000" fill-rule="evenodd" stroke="none"/>
  </g>
</svg>
