<?xml version="1.0" encoding="UTF-8" standalone="no"?>
<svg xmlns:xlink="http://www.w3.org/1999/xlink" height="36.85px" width="37.4px" xmlns="http://www.w3.org/2000/svg">
  <g transform="matrix(1.0, 0.0, 0.0, 1.0, -0.4, 35.2)">
    <path d="M32.65 -31.5 Q34.75 -29.75 35.95 -27.7 37.2 -25.65 37.8 -23.6 L32.7 -22.45 28.0 -21.6 24.55 -21.15 23.2 -21.0 Q22.6 -22.05 21.55 -22.55 L19.35 -23.1 17.35 -22.85 Q16.5 -22.5 16.3 -21.9 16.0 -20.9 17.55 -20.1 19.1 -19.35 22.85 -19.2 L27.35 -18.7 Q29.9 -18.3 32.3 -17.25 34.65 -16.2 36.2 -14.3 37.75 -12.4 37.7 -9.45 37.5 -6.5 35.95 -4.35 34.4 -2.25 31.8 -0.9 29.25 0.45 25.95 1.1 L19.05 1.65 Q14.7 1.65 11.15 0.7 7.6 -0.3 4.9 -2.5 2.2 -4.7 0.4 -8.35 L7.35 -10.4 12.5 -11.6 14.55 -12.0 Q15.35 -10.65 16.65 -10.05 17.95 -9.45 19.3 -9.4 L21.7 -9.65 22.95 -10.45 Q23.3 -11.45 21.45 -12.05 L16.2 -12.95 Q12.3 -13.3 9.15 -14.35 6.0 -15.4 4.05 -17.35 2.1 -19.35 1.75 -22.5 1.45 -25.75 3.2 -28.6 4.95 -31.45 8.85 -33.3 12.8 -35.1 19.0 -35.2 23.85 -35.25 27.2 -34.2 30.55 -33.2 32.65 -31.5" fill="#000000" fill-rule="evenodd" stroke="none"/>
  </g>
</svg>
