<?xml version="1.0" encoding="UTF-8" standalone="no"?>
<svg xmlns:xlink="http://www.w3.org/1999/xlink" height="49.3px" width="270.3px" xmlns="http://www.w3.org/2000/svg">
  <g transform="matrix(1.0, 0.0, 0.0, 1.0, 2.8, -1.0)">
    <path d="M267.5 15.0 L267.5 36.3 Q267.5 42.05 263.4 46.15 L263.35 46.2 Q259.25 50.3 253.5 50.3 L11.2 50.3 Q5.45 50.3 1.35 46.2 L1.35 46.15 Q-2.8 42.05 -2.8 36.3 L-2.8 15.0 Q-2.8 9.25 1.35 5.15 5.45 1.0 11.2 1.0 L253.5 1.0 Q259.25 1.0 263.35 5.15 L263.4 5.15 Q267.5 9.25 267.5 15.0" fill="#5ffc00" fill-rule="evenodd" stroke="none"/>
    <path d="M259.15 9.35 Q261.5 11.7 261.5 15.0 L261.5 36.3 Q261.5 39.6 259.15 41.95 256.8 44.3 253.5 44.3 L11.2 44.3 Q7.9 44.3 5.55 41.95 3.2 39.6 3.2 36.3 L3.2 15.0 Q3.2 11.7 5.55 9.35 7.9 7.0 11.2 7.0 L253.5 7.0 Q256.8 7.0 259.15 9.35" fill="#000000" fill-rule="evenodd" stroke="none"/>
  </g>
</svg>
