<?xml version="1.0" encoding="UTF-8" standalone="no"?>
<svg xmlns:xlink="http://www.w3.org/1999/xlink" height="55.35px" width="45.95px" xmlns="http://www.w3.org/2000/svg">
  <g transform="matrix(1.0, 0.0, 0.0, 1.0, 25.0, -27.8)">
    <path d="M16.9 61.6 L16.75 66.8 20.6 70.0 19.6 78.2 14.5 82.25 3.15 83.15 -1.25 72.55 -1.5 28.4 20.9 28.4 16.9 61.6" fill="#0d0f0d" fill-rule="evenodd" stroke="none"/>
    <path d="M-2.45 29.0 L-1.65 65.7 -1.85 78.25 -23.7 78.5 -25.0 75.15 -19.75 72.9 -24.5 27.8 -2.45 29.0" fill="#0d0f0d" fill-rule="evenodd" stroke="none"/>
    <path d="M20.35 28.7 L20.35 28.65 20.95 28.65 20.35 28.7" fill="#1d1211" fill-rule="evenodd" stroke="none"/>
    <path d="M20.35 28.7 L16.1 61.3 7.65 60.7 -0.85 61.3 -0.2 31.05 20.35 28.7 M5.85 63.75 L6.65 64.15 5.2 63.75 -0.85 68.55 -0.85 61.9 8.25 61.3 16.1 61.9 16.1 66.75 7.15 64.3 8.25 63.75 8.25 61.9 7.05 61.9 5.85 61.9 5.2 63.1 5.85 63.75 M0.4 64.35 L0.4 65.55 2.8 65.55 3.4 64.35 2.8 63.1 1.6 63.1 0.4 63.1 0.4 64.35 M0.1 69.1 L6.2 65.1 16.05 67.45 20.35 70.0 19.45 77.75 14.5 81.65 3.45 82.35 -0.2 72.8 0.1 69.1 M12.5 64.35 L12.5 64.95 13.7 65.55 14.9 64.95 15.5 64.35 14.9 63.1 13.7 63.1 12.5 63.1 12.5 64.35" fill="#181e16" fill-rule="evenodd" stroke="none"/>
    <path d="M5.85 63.75 L7.65 63.75 7.65 62.5 7.05 61.9 8.25 61.9 8.25 63.75 7.15 64.3 7.05 64.35 6.65 64.15 5.85 63.75 5.2 63.1 5.85 61.9 7.05 61.9 5.85 62.5 5.85 63.75 M1.6 63.1 L2.8 63.1 3.4 64.35 2.8 65.55 0.4 65.55 0.4 64.35 1.0 64.95 2.2 64.95 2.2 64.35 2.8 64.35 1.6 63.1 0.4 64.35 0.4 63.1 1.6 63.1 M12.5 64.35 L13.1 64.95 14.3 64.95 14.3 64.35 14.9 64.35 13.7 63.1 14.9 63.1 15.5 64.35 14.9 64.95 13.7 65.55 12.5 64.95 12.5 64.35 12.5 63.1 13.7 63.1 12.5 64.35" fill="#0d0f0d" fill-rule="evenodd" stroke="none"/>
    <path d="M7.05 61.9 L7.65 62.5 7.65 63.75 5.85 63.75 5.85 62.5 7.05 61.9 M1.6 63.1 L2.8 64.35 2.2 64.35 2.2 64.95 1.0 64.95 0.4 64.35 1.6 63.1 M13.7 63.1 L14.9 64.35 14.3 64.35 14.3 64.95 13.1 64.95 12.5 64.35 13.7 63.1" fill="#608051" fill-rule="evenodd" stroke="none"/>
    <path d="M-23.45 28.75 L-23.5 28.75 -24.1 28.65 -23.5 28.65 -23.45 28.75" fill="#1d1211" fill-rule="evenodd" stroke="none"/>
    <path d="M-23.45 28.75 L-2.9 31.1 -2.3 67.35 -10.8 66.75 -19.25 67.35 -23.45 28.75 M-9.8 70.2 L-8.95 69.8 -8.35 69.2 -8.95 68.0 -10.2 68.0 -11.4 68.0 -11.4 69.8 -10.3 70.35 -19.25 72.8 -19.25 68.0 -11.4 67.35 -2.3 68.0 -2.3 74.65 -8.35 69.8 -9.8 70.2 M-16.85 69.2 L-18.05 69.2 -18.65 70.4 -18.05 71.0 -16.85 71.6 -15.65 71.0 -15.65 70.4 -15.65 69.2 -16.85 69.2 M-5.95 69.2 L-6.55 70.4 -5.95 71.6 -3.55 71.6 -3.55 70.4 -3.55 69.2 -4.75 69.2 -5.95 69.2 M-8.35 71.0 L-7.75 71.0 -2.3 74.65 -2.3 75.85 -23.5 76.45 -24.1 75.25 -8.35 71.0 M-23.5 77.05 L-2.3 76.45 -2.3 77.65 -23.5 77.65 -23.5 77.05" fill="#181e16" fill-rule="evenodd" stroke="none"/>
    <path d="M-10.3 70.35 L-11.4 69.8 -11.4 68.0 -10.2 68.0 -8.95 68.0 -8.35 69.2 -8.95 69.8 -9.8 70.2 -10.2 70.4 -10.3 70.35 M-16.85 69.2 L-18.05 70.4 -17.45 70.4 -17.45 71.0 -16.25 71.0 -15.65 70.4 -16.85 69.2 -15.65 69.2 -15.65 70.4 -15.65 71.0 -16.85 71.6 -18.05 71.0 -18.65 70.4 -18.05 69.2 -16.85 69.2 M-8.95 69.8 L-8.95 68.6 -10.2 68.0 -10.8 68.6 -10.8 69.8 -8.95 69.8 M-5.95 69.2 L-4.75 69.2 -3.55 69.2 -3.55 70.4 -3.55 71.6 -5.95 71.6 -6.55 70.4 -5.95 69.2 M-3.55 70.4 L-4.75 69.2 -5.95 70.4 -5.35 70.4 -5.35 71.0 -4.15 71.0 -3.55 70.4" fill="#0d0f0d" fill-rule="evenodd" stroke="none"/>
    <path d="M-16.85 69.2 L-15.65 70.4 -16.25 71.0 -17.45 71.0 -17.45 70.4 -18.05 70.4 -16.85 69.2 M-8.95 69.8 L-10.8 69.8 -10.8 68.6 -10.2 68.0 -8.95 68.6 -8.95 69.8 M-3.55 70.4 L-4.15 71.0 -5.35 71.0 -5.35 70.4 -5.95 70.4 -4.75 69.2 -3.55 70.4" fill="#608051" fill-rule="evenodd" stroke="none"/>
  </g>
</svg>
