<?xml version="1.0" encoding="UTF-8" standalone="no"?>
<svg xmlns:xlink="http://www.w3.org/1999/xlink" height="240.5px" width="435.3px" xmlns="http://www.w3.org/2000/svg">
  <g transform="matrix(1.0, 0.0, 0.0, 1.0, -362.9, -68.7)">
    <path d="M424.9 78.55 L425.4 82.45 Q426.15 90.35 425.35 103.6 L425.55 103.65 Q427.55 103.9 429.35 104.7 L429.5 104.55 430.8 104.6 Q435.85 99.75 443.95 92.95 452.05 86.05 459.15 83.75 L460.9 83.1 Q462.2 85.6 456.0 90.85 449.45 96.3 442.0 101.15 L433.55 106.65 433.55 106.85 434.85 106.2 433.3 107.1 434.4 110.9 Q434.15 113.3 434.75 118.05 L434.75 118.2 432.0 117.85 431.95 117.25 433.2 116.9 434.1 116.2 433.15 116.5 432.7 114.45 Q431.75 112.3 430.7 111.85 428.8 111.0 429.7 112.05 432.25 112.6 433.1 116.5 L431.75 116.6 Q431.35 115.55 430.4 114.8 426.9 113.5 424.1 117.8 421.7 122.35 424.65 124.75 428.2 126.05 430.95 121.7 L431.75 119.85 Q433.3 120.85 434.85 119.55 435.05 123.3 434.15 125.6 432.7 128.05 430.65 128.6 L428.8 128.95 Q429.0 127.2 426.05 125.75 422.85 124.15 419.3 123.55 L419.05 123.45 Q415.95 121.85 413.15 121.25 L411.7 121.35 411.5 121.3 411.1 121.35 409.9 121.4 Q408.7 120.5 408.55 118.95 408.45 116.15 409.8 114.3 L411.35 112.6 Q411.9 113.35 413.0 113.5 412.65 114.35 412.45 115.5 412.05 120.65 415.7 121.7 419.45 121.55 420.3 116.5 420.7 111.4 417.05 110.3 415.85 110.35 414.95 110.9 L414.15 110.1 415.55 109.0 Q417.65 107.7 419.5 108.55 L419.95 108.15 Q420.1 107.95 418.8 107.75 417.8 107.5 416.25 108.35 L418.0 106.15 418.7 105.55 Q419.9 104.6 421.45 104.1 420.1 95.55 419.45 86.4 418.85 77.2 420.45 69.9 420.65 69.6 421.05 69.55 421.7 70.2 422.25 71.7 L423.2 74.5 Q423.95 77.75 424.3 83.1 L424.75 97.6 Q424.75 99.5 425.35 102.7 426.1 89.9 425.35 82.2 L424.9 78.55 M461.2 83.0 L461.9 83.5 461.95 83.65 461.15 83.0 461.2 83.0 M462.0 84.7 L461.8 85.2 Q452.2 95.55 443.05 101.25 L439.65 103.35 444.45 100.25 Q453.05 94.65 461.8 85.1 L462.0 84.7 M421.5 74.35 Q421.0 76.15 421.25 82.5 421.45 88.8 422.1 95.0 422.7 101.15 423.45 102.5 423.6 102.25 423.35 95.8 L422.55 82.5 Q422.05 75.65 421.5 74.35 M458.95 85.7 L453.45 89.0 Q448.25 92.15 442.15 96.6 436.0 100.95 432.8 104.85 434.8 104.1 441.0 99.5 L458.95 85.7 M406.65 132.4 Q396.55 121.15 385.95 102.8 388.2 102.1 389.45 100.3 399.8 117.2 408.35 130.35 407.35 131.3 406.65 132.4 M463.2 144.6 Q465.2 145.8 464.95 147.35 454.75 148.25 439.8 143.85 440.65 143.15 441.55 140.7 L440.9 140.55 452.95 143.0 463.2 144.6 M434.85 119.4 L431.9 119.25 432.0 118.55 434.8 118.65 434.85 119.4 M412.85 111.2 L413.8 110.4 Q414.05 110.95 414.45 111.3 L414.05 111.7 412.85 111.2 M412.35 111.65 Q412.9 112.05 413.6 112.25 L413.25 112.9 Q412.45 112.75 411.75 112.2 L412.35 111.65 M405.05 118.9 Q405.05 121.1 406.7 123.35 409.05 126.45 411.8 128.4 L411.85 128.45 411.9 128.5 411.8 128.45 Q409.05 126.5 406.7 123.45 405.0 121.15 405.05 118.9 M422.75 132.2 L423.0 132.15 424.5 132.5 Q428.45 133.25 432.5 131.9 436.5 130.6 437.5 126.6 L437.5 126.7 Q436.5 130.7 432.5 132.0 428.45 133.3 424.5 132.65 L422.75 132.2 M442.75 231.9 Q443.45 233.3 443.25 234.8 443.0 236.55 442.6 236.95 441.15 238.05 438.0 238.15 435.6 238.1 433.75 236.95 431.85 235.85 432.3 233.05 L433.5 230.45 436.75 220.0 Q438.8 213.25 440.75 207.65 442.75 202.0 443.6 201.6 L448.9 200.5 449.1 200.0 438.8 228.9 445.05 228.35 Q448.0 228.45 450.55 230.7 451.35 231.75 451.65 233.7 L451.4 235.65 Q451.2 236.95 450.75 237.35 L449.8 234.3 449.65 233.65 Q449.2 232.5 448.05 231.85 L447.75 231.65 Q446.35 230.9 447.15 231.4 L447.2 231.45 447.05 231.4 Q449.1 233.5 449.0 235.7 448.1 239.25 445.85 238.3 445.1 234.65 444.25 233.15 L443.55 232.25 442.5 231.5 442.65 231.7 442.35 231.6 442.75 231.9 M404.2 232.0 Q404.7 231.4 405.3 230.95 403.8 231.35 402.9 233.0 401.0 235.0 400.75 237.3 400.45 237.8 400.05 237.1 399.7 236.5 400.15 234.75 401.2 231.8 403.35 229.9 406.2 227.8 408.95 227.9 L416.75 228.7 429.3 202.15 433.35 202.05 Q431.35 205.25 428.7 211.25 426.1 217.2 424.0 222.6 L421.45 229.45 422.7 232.35 Q422.75 235.4 420.75 236.25 418.65 237.05 413.35 236.95 L407.15 237.05 Q403.3 237.0 403.15 235.3 403.55 233.3 404.2 232.0" fill="#c0e5ba" fill-rule="evenodd" stroke="none"/>
    <path d="M421.05 69.55 L420.95 69.45 421.35 69.55 422.15 69.85 422.2 69.85 422.25 69.9 424.9 78.55 425.35 82.2 Q426.1 89.9 425.35 102.7 424.75 99.5 424.75 97.6 L424.3 83.1 Q423.95 77.75 423.2 74.5 L422.25 71.7 Q421.7 70.2 421.05 69.55 M429.5 104.55 L429.45 104.55 Q436.65 97.55 444.15 91.85 451.65 86.05 458.95 83.25 L460.8 82.85 461.25 82.95 461.2 83.0 461.15 83.0 461.95 83.65 462.0 84.7 461.8 85.1 Q453.05 94.65 444.45 100.25 L439.65 103.35 434.85 106.2 433.55 106.85 433.55 106.65 442.0 101.15 Q449.45 96.3 456.0 90.85 462.2 85.6 460.9 83.1 L459.15 83.75 Q452.05 86.05 443.95 92.95 435.85 99.75 430.8 104.6 L429.5 104.55 M434.4 110.9 L434.4 110.85 435.7 118.05 434.75 118.2 434.75 118.05 Q434.15 113.3 434.4 110.9 M413.85 109.75 L418.15 105.9 418.0 106.15 416.25 108.35 415.6 108.65 Q414.9 109.05 414.05 110.0 L413.85 109.75 M383.4 100.5 Q384.65 100.35 385.9 99.75 387.35 99.1 388.1 98.05 L389.45 100.3 Q388.2 102.1 385.95 102.8 396.55 121.15 406.65 132.4 L405.6 134.3 Q393.25 118.2 383.4 100.5 M465.3 144.85 L466.05 145.25 466.8 146.25 466.8 146.45 Q467.45 147.6 465.2 148.9 L451.25 147.65 436.95 144.95 Q439.0 142.8 439.95 140.35 L440.9 140.55 441.55 140.7 Q440.65 143.15 439.8 143.85 454.75 148.25 464.95 147.35 465.2 145.8 463.2 144.6 L463.15 144.55 465.3 144.85 M434.85 119.55 L434.95 119.5 435.2 119.3 434.85 119.4 434.8 118.65 435.7 118.2 437.5 126.6 Q436.5 130.6 432.5 131.9 428.45 133.25 424.5 132.5 L423.0 132.15 425.5 131.55 Q427.35 130.95 428.75 129.3 L428.8 128.95 430.65 128.6 Q432.7 128.05 434.15 125.6 435.05 123.3 434.85 119.55 M412.55 111.0 L413.7 109.95 413.8 110.25 413.7 110.35 413.8 110.3 413.8 110.4 412.85 111.2 412.55 111.0 M414.15 110.1 L414.05 110.05 415.55 109.0 414.15 110.1 M411.75 112.2 L411.4 111.85 412.05 111.4 412.35 111.65 411.75 112.2 M411.05 112.1 L411.35 112.6 409.8 114.3 Q408.45 116.15 408.55 118.95 408.7 120.5 409.9 121.4 L409.35 121.9 Q408.8 123.3 409.85 125.0 L411.7 127.95 411.85 128.45 411.8 128.4 Q409.05 126.45 406.7 123.35 405.05 121.1 405.05 118.9 405.0 118.0 405.3 117.1 406.35 114.7 408.4 113.65 L411.05 112.1 M417.2 135.8 L417.25 135.8 417.8 135.95 418.05 135.8 419.55 132.8 422.35 132.3 422.55 132.35 422.65 133.75 423.0 133.9 Q421.7 137.35 419.95 140.05 L418.45 140.1 418.45 140.05 418.35 139.8 417.55 138.8 417.25 137.95 417.05 136.7 Q417.0 136.25 417.1 135.9 L417.2 135.8 M443.0 197.85 L450.65 195.6 449.1 200.0 448.9 200.5 443.6 201.6 Q442.75 202.0 440.75 207.65 438.8 213.25 436.75 220.0 L433.5 230.45 432.3 233.05 Q431.85 235.85 433.75 236.95 435.6 238.1 438.0 238.15 441.15 238.05 442.6 236.95 443.0 236.55 443.25 234.8 443.45 233.3 442.75 231.9 444.2 233.1 444.1 235.2 L443.85 240.05 429.6 239.0 Q429.2 234.5 431.85 230.75 L443.0 197.85 M442.65 231.7 L442.5 231.5 443.55 232.25 442.65 231.7 M444.25 233.15 Q445.1 234.65 445.85 238.3 448.1 239.25 449.0 235.7 449.1 233.5 447.05 231.4 L447.2 231.45 Q449.6 233.05 449.5 235.7 449.45 238.35 449.0 239.8 L444.45 240.05 444.6 236.45 Q444.9 234.4 444.25 233.15 M449.8 234.3 L450.75 237.35 Q451.2 236.95 451.4 235.65 L451.65 233.7 451.75 234.2 451.7 239.35 451.65 239.55 449.45 239.75 Q449.9 238.8 449.95 236.65 L449.8 234.3 M430.35 199.6 L436.65 199.05 424.25 229.7 424.2 229.85 424.0 230.25 Q425.0 235.0 424.0 238.45 L411.65 239.65 401.75 239.0 Q402.4 235.1 403.25 233.5 L404.2 232.0 Q403.55 233.3 403.15 235.3 403.3 237.0 407.15 237.05 L413.35 236.95 Q418.65 237.05 420.75 236.25 422.75 235.4 422.7 232.35 L421.45 229.45 424.0 222.6 Q426.1 217.2 428.7 211.25 431.35 205.25 433.35 202.05 L429.3 202.15 429.2 202.15 430.35 199.6 M402.9 233.0 Q401.7 235.0 401.4 238.95 L399.0 238.45 400.4 233.85 400.15 234.75 Q399.7 236.5 400.05 237.1 400.45 237.8 400.75 237.3 401.0 235.0 402.9 233.0" fill="#b1dfa3" fill-rule="evenodd" stroke="none"/>
    <path d="M424.9 78.55 L422.25 69.9 422.2 69.85 422.15 69.85 421.35 69.55 420.95 69.45 421.05 69.55 Q420.65 69.6 420.45 69.9 418.85 77.2 419.45 86.4 420.1 95.55 421.45 104.1 419.9 104.6 418.7 105.55 L418.0 106.15 418.15 105.9 413.85 109.75 413.7 109.55 418.6 105.3 421.15 103.9 Q419.8 95.4 419.2 86.25 418.6 77.1 420.2 69.8 420.5 69.0 421.2 69.25 L422.3 69.65 Q424.8 74.45 425.6 82.3 426.4 90.2 425.55 103.35 427.35 103.55 429.3 104.35 436.55 97.35 444.05 91.65 451.45 85.9 458.9 83.05 461.65 82.15 462.1 83.3 462.45 84.45 461.95 85.3 452.35 95.7 443.2 101.4 L433.55 107.15 434.75 111.35 435.9 118.05 435.7 118.05 434.4 110.85 434.4 110.9 433.3 107.1 434.85 106.2 439.65 103.35 443.05 101.25 Q452.2 95.55 461.8 85.2 L462.0 84.7 461.95 83.65 461.9 83.5 461.2 83.0 461.25 82.95 460.8 82.85 458.95 83.25 Q451.65 86.05 444.15 91.85 436.65 97.55 429.45 104.55 L429.5 104.55 429.35 104.7 Q427.55 103.9 425.55 103.65 L425.35 103.6 Q426.15 90.35 425.4 82.45 L424.9 78.55 M383.15 100.5 L383.4 100.5 Q393.25 118.2 405.6 134.3 L405.5 134.6 Q393.25 118.8 383.15 100.5 M388.1 98.05 L388.25 97.85 408.55 130.2 408.35 130.35 Q399.8 117.2 389.45 100.3 L388.1 98.05 M412.0 128.8 L411.65 128.6 Q408.85 126.65 406.5 123.55 404.1 120.35 405.1 117.1 406.15 114.5 408.3 113.5 L410.95 111.9 411.05 112.1 408.4 113.65 Q406.35 114.7 405.3 117.1 405.0 118.0 405.05 118.9 405.0 121.15 406.7 123.45 409.05 126.5 411.8 128.45 L411.9 128.5 412.0 128.8 M411.25 111.7 L411.9 111.25 412.05 111.4 411.4 111.85 411.25 111.7 M412.35 110.85 L413.6 109.65 413.7 109.95 412.55 111.0 412.35 110.85 M463.1 144.3 L463.05 144.35 464.6 144.55 464.65 144.55 465.3 144.85 463.15 144.55 463.2 144.6 452.95 143.0 440.9 140.55 439.95 140.35 440.0 140.15 463.1 144.3 M465.2 148.9 L464.95 149.1 464.9 149.1 449.95 147.75 436.8 145.1 436.95 144.95 451.25 147.65 465.2 148.9 M451.2 195.4 L439.6 228.3 445.55 228.05 Q448.35 228.2 450.85 230.4 452.85 232.95 452.15 239.6 L451.65 240.05 Q439.75 240.9 429.6 239.45 429.15 239.4 429.1 239.0 428.65 234.55 431.4 230.55 L442.4 197.95 443.0 197.85 431.85 230.75 Q429.2 234.5 429.6 239.0 L443.85 240.05 444.1 235.2 Q444.2 233.1 442.75 231.9 L442.35 231.6 442.65 231.7 443.55 232.25 444.25 233.15 Q444.9 234.4 444.6 236.45 L444.45 240.05 449.0 239.8 Q449.45 238.35 449.5 235.7 449.6 233.05 447.2 231.45 L447.15 231.4 Q446.35 230.9 447.75 231.65 L448.05 231.85 Q449.2 232.5 449.65 233.65 L449.8 234.3 449.95 236.65 Q449.9 238.8 449.45 239.75 L451.65 239.55 451.7 239.35 451.75 234.2 451.65 233.7 Q451.35 231.75 450.55 230.7 448.0 228.45 445.05 228.35 L438.8 228.9 449.1 200.0 450.65 195.6 451.2 195.4 M437.15 198.95 L424.55 230.35 Q425.5 235.6 424.4 238.8 411.05 240.8 401.4 239.3 L401.35 239.35 401.35 239.3 398.75 238.8 Q398.1 237.55 399.85 233.7 400.7 231.8 401.35 231.05 L403.1 229.55 Q406.0 227.35 408.75 227.45 L416.45 228.15 430.05 199.65 430.35 199.6 429.2 202.15 429.3 202.15 416.75 228.7 408.95 227.9 Q406.2 227.8 403.35 229.9 401.2 231.8 400.15 234.75 L400.4 233.85 399.0 238.45 401.4 238.95 Q401.7 235.0 402.9 233.0 403.8 231.35 405.3 230.95 404.7 231.4 404.2 232.0 L403.25 233.5 Q402.4 235.1 401.75 239.0 L411.65 239.65 424.0 238.45 Q425.0 235.0 424.0 230.25 L424.2 229.85 424.25 229.7 436.65 199.05 437.15 198.95 M435.7 118.2 L435.9 118.05 436.9 122.1 Q437.75 125.45 437.75 126.7 436.7 130.85 432.6 132.2 428.4 133.5 424.5 132.8 L422.7 132.4 422.75 133.65 423.05 133.8 423.0 133.9 422.65 133.75 422.55 132.35 422.35 132.3 422.7 132.2 422.75 132.2 424.5 132.65 Q428.45 133.3 432.5 132.0 436.5 130.7 437.5 126.7 L437.5 126.6 435.7 118.2 M419.95 140.05 L419.8 140.25 419.8 140.3 418.45 140.3 418.45 140.1 419.95 140.05" fill="#49a462" fill-rule="evenodd" stroke="none"/>
    <path d="M421.5 74.35 Q422.05 75.65 422.55 82.5 L423.35 95.8 Q423.6 102.25 423.45 102.5 422.7 101.15 422.1 95.0 421.45 88.8 421.25 82.5 421.0 76.15 421.5 74.35 M458.95 85.7 L441.0 99.5 Q434.8 104.1 432.8 104.85 436.0 100.95 442.15 96.6 448.25 92.15 453.45 89.0 L458.95 85.7" fill="#b76ea3" fill-rule="evenodd" stroke="none"/>
    <path d="M435.7 118.05 L435.9 118.05 435.7 118.2 434.8 118.65 432.0 118.55 431.9 119.25 434.85 119.4 435.2 119.3 434.95 119.5 434.85 119.55 Q433.3 120.85 431.75 119.85 L430.95 121.7 Q428.2 126.05 424.65 124.75 421.7 122.35 424.1 117.8 426.9 113.5 430.4 114.8 431.35 115.55 431.75 116.6 L433.1 116.5 Q432.25 112.6 429.7 112.05 428.8 111.0 430.7 111.85 431.75 112.3 432.7 114.45 L433.15 116.5 434.1 116.2 433.2 116.9 431.95 117.25 432.0 117.85 434.75 118.2 435.7 118.05 M413.7 109.55 L413.85 109.75 414.05 110.0 Q414.9 109.05 415.6 108.65 L416.25 108.35 Q417.8 107.5 418.8 107.75 420.1 107.95 419.95 108.15 L419.5 108.55 Q417.65 107.7 415.55 109.0 L414.05 110.05 414.15 110.1 414.95 110.9 Q415.85 110.35 417.05 110.3 420.7 111.4 420.3 116.5 419.45 121.55 415.7 121.7 412.05 120.65 412.45 115.5 412.65 114.35 413.0 113.5 411.9 113.35 411.35 112.6 L411.05 112.1 410.95 111.9 410.7 111.0 411.25 111.7 411.4 111.85 411.75 112.2 Q412.45 112.75 413.25 112.9 L413.6 112.25 Q412.9 112.05 412.35 111.65 L412.05 111.4 411.9 111.25 Q411.3 110.65 411.0 109.75 L410.9 109.45 412.35 110.85 412.55 111.0 412.85 111.2 414.05 111.7 414.45 111.3 Q414.05 110.95 413.8 110.4 L413.8 110.3 413.7 110.35 413.8 110.25 413.7 109.95 413.6 109.65 413.6 109.55 413.5 109.25 413.7 109.55 M364.3 93.1 Q363.6 93.55 363.85 94.65 364.25 96.15 365.75 97.0 L366.6 97.35 370.0 97.5 Q370.95 97.3 371.95 96.75 L372.1 96.65 371.85 96.7 368.1 96.85 Q364.9 96.8 364.45 93.05 L364.45 93.0 364.3 93.1 M377.5 83.4 L377.05 83.05 376.45 82.6 372.85 79.25 375.95 82.55 380.25 86.55 Q381.95 87.85 383.75 88.2 L383.85 88.25 384.6 87.85 384.55 87.85 384.6 87.8 381.25 85.75 381.15 85.7 377.5 83.4 M390.55 83.7 Q389.2 83.7 388.0 85.5 386.3 87.9 383.85 88.25 386.3 87.9 388.0 85.5 389.2 83.7 390.55 83.7 391.15 84.5 391.3 87.2 391.4 89.85 386.95 92.35 L387.1 92.35 Q389.85 91.75 391.55 89.3 393.5 86.05 391.65 84.0 391.0 83.55 390.5 83.65 L390.55 83.7 M383.15 100.5 L382.45 100.5 Q380.65 100.35 380.0 98.75 375.75 99.05 373.0 96.6 L372.5 96.75 370.7 97.65 365.65 97.4 Q363.95 96.45 363.5 94.7 363.0 92.85 365.15 92.4 L367.95 92.55 Q369.4 92.55 371.05 91.5 L371.05 90.9 367.85 86.1 Q364.7 80.95 366.95 78.7 368.25 77.85 370.15 79.15 L370.95 78.45 Q372.55 78.0 374.0 79.7 L377.35 82.7 385.35 87.5 386.75 86.3 388.3 84.6 Q389.75 82.6 391.85 83.65 393.95 86.1 391.85 89.45 390.45 91.6 388.3 92.35 L388.55 93.05 Q389.4 96.0 388.25 97.85 L388.1 98.05 Q387.35 99.1 385.9 99.75 384.65 100.35 383.4 100.5 L383.15 100.5 M369.85 79.45 L370.0 79.6 370.0 79.55 369.85 79.45 M381.95 97.7 L381.7 97.9 380.35 98.6 Q381.3 100.1 382.95 100.2 384.15 100.2 385.8 99.45 387.35 98.75 388.05 97.55 389.0 95.85 388.25 93.2 387.9 94.9 387.1 96.0 385.45 98.2 381.95 97.7 M378.35 94.9 L379.05 95.65 379.85 96.3 381.25 97.0 Q382.8 97.55 384.65 97.0 L384.9 96.9 385.1 96.85 386.05 96.25 387.3 94.75 387.6 93.85 387.7 93.3 387.75 93.15 387.8 92.55 387.8 92.5 387.2 92.5 387.15 92.55 Q386.65 92.95 386.0 94.2 385.3 95.55 383.25 96.25 382.05 96.45 380.25 95.75 L378.35 94.9 M373.25 95.85 L373.1 96.15 374.75 97.4 376.95 98.2 Q379.45 98.7 381.2 97.55 L381.15 97.55 Q380.25 97.3 379.5 96.75 L379.2 96.55 377.0 97.1 Q375.4 97.4 373.35 95.75 L373.25 95.85 M463.1 144.3 Q464.05 143.45 465.05 143.25 L465.1 142.9 465.35 142.35 Q466.35 140.35 468.05 138.8 L474.3 132.0 Q476.25 129.85 477.75 129.75 L479.05 129.6 479.65 129.25 Q481.5 128.7 482.25 129.75 483.0 130.75 482.85 131.45 L482.65 131.9 Q484.35 133.8 482.35 138.15 L479.35 143.2 Q477.85 146.0 476.35 148.0 479.4 149.85 480.1 152.6 480.2 155.05 478.3 156.85 476.3 158.7 474.6 156.35 L473.3 152.9 472.55 151.85 472.1 151.8 469.6 151.2 Q468.3 150.85 467.05 150.05 L466.8 149.95 466.5 149.75 Q465.6 149.9 464.9 149.1 L464.95 149.1 465.2 148.9 Q467.45 147.6 466.8 146.45 L466.8 146.25 466.05 145.25 465.3 144.85 464.65 144.55 464.6 144.55 463.05 144.35 463.1 144.3 M479.8 129.45 L479.75 129.45 Q477.65 130.6 476.2 132.65 474.7 134.65 473.2 135.8 475.5 132.55 477.85 129.95 L477.8 129.95 Q477.15 129.85 476.3 130.5 475.45 131.0 474.45 132.1 472.45 134.2 471.3 135.8 L467.8 139.3 Q466.0 141.1 465.25 143.3 468.2 143.05 469.1 145.85 469.5 147.4 468.8 148.5 L468.7 148.65 468.25 149.15 467.1 149.85 467.2 149.9 467.15 149.9 Q469.6 151.25 472.2 151.75 L472.15 151.65 471.6 150.9 Q472.75 151.55 473.4 152.8 L474.35 155.45 474.65 156.15 474.7 156.25 474.75 156.25 Q475.5 157.35 476.4 157.45 477.25 157.55 478.15 156.7 480.0 154.95 479.85 152.65 479.3 150.05 476.5 148.5 L476.55 148.55 475.3 147.95 476.1 147.95 478.1 144.85 478.05 145.0 482.15 138.1 482.55 137.05 483.15 134.8 Q483.45 132.9 482.55 132.05 L482.5 132.05 Q481.35 131.3 479.75 133.9 478.15 136.5 475.65 138.5 L476.7 137.2 476.4 137.65 480.6 132.0 Q481.55 131.1 482.6 131.4 482.75 130.8 482.05 129.9 481.4 128.95 479.8 129.45 M468.55 144.4 Q470.1 142.4 471.7 141.7 L468.65 144.55 468.55 144.4 M467.8 143.6 Q468.15 142.5 469.25 141.25 470.35 139.95 471.1 139.8 L469.6 141.4 Q468.5 142.55 467.9 143.7 L467.8 143.6 M466.75 143.0 Q467.25 141.4 468.4 140.7 467.65 141.7 467.05 143.1 L466.75 143.0 M468.85 146.15 L468.8 145.9 Q467.7 143.35 465.9 143.5 464.05 143.65 463.6 144.2 467.25 145.05 466.95 146.4 467.85 147.65 465.15 149.15 L465.2 149.2 465.65 149.35 Q467.25 149.85 468.2 148.7 469.3 147.4 468.9 145.9 L468.8 145.7 468.85 146.15 M430.85 116.95 L430.5 116.7 430.8 117.2 430.8 117.15 431.1 117.35 431.5 117.6 431.85 117.8 431.75 117.25 431.35 117.15 430.85 116.95 M430.35 116.25 L430.95 116.45 431.6 116.6 431.45 116.15 Q430.6 114.6 428.6 114.95 L428.15 115.05 429.75 115.95 429.7 115.8 430.35 116.25 M425.5 123.05 Q424.5 122.35 425.15 120.7 L426.55 121.1 425.8 119.7 Q426.75 118.7 427.7 119.1 428.75 119.9 427.85 121.8 426.7 123.55 425.5 123.05 M431.4 118.25 L431.15 118.05 431.25 118.85 431.55 119.05 431.8 119.2 431.85 118.5 431.65 118.4 431.4 118.25 M431.65 119.8 L431.3 119.5 431.05 121.45 431.65 119.8 M430.85 120.65 Q431.1 116.65 427.9 115.25 426.0 115.65 424.25 118.3 422.05 122.65 424.65 124.65 427.65 125.85 430.35 121.8 L430.85 120.65 M415.15 111.05 L416.25 111.5 418.65 111.6 418.45 111.35 Q417.2 109.9 415.65 110.8 L415.15 111.05 M414.05 112.35 L413.85 112.3 413.45 112.95 413.85 113.0 414.45 112.4 414.25 112.35 414.05 112.35 M414.3 111.75 L414.5 111.8 415.0 111.85 415.2 111.9 415.45 111.75 414.65 111.45 414.3 111.75 M412.95 114.35 L413.45 113.5 413.2 113.5 412.95 114.35 M412.8 115.15 L412.65 115.85 Q412.35 120.75 415.55 121.6 418.75 121.5 419.65 116.7 419.85 113.3 418.4 111.9 414.95 111.2 412.8 115.15 M416.7 115.45 Q418.0 115.75 417.95 117.85 417.7 119.85 416.35 120.0 415.15 119.75 415.05 117.95 L416.5 117.7 415.2 116.85 Q415.7 115.45 416.7 115.45" fill="#000000" fill-rule="evenodd" stroke="none"/>
    <path d="M366.6 97.35 L365.75 97.0 Q364.25 96.15 363.85 94.65 363.6 93.55 364.3 93.1 363.55 93.75 364.0 95.0 364.5 96.3 365.8 97.0 L366.6 97.35 M376.45 82.6 L377.05 83.05 377.5 83.4 377.05 83.1 376.45 82.6 M381.25 85.75 L384.6 87.8 384.55 87.85 381.25 85.75 M369.85 79.45 L370.0 79.55 370.0 79.6 369.85 79.45 M477.8 129.95 L477.85 129.95 Q475.5 132.55 473.2 135.8 474.7 134.65 476.2 132.65 477.65 130.6 479.75 129.45 L479.8 129.45 Q481.6 130.3 479.35 133.35 L476.7 137.2 475.65 138.5 Q478.15 136.5 479.75 133.9 481.35 131.3 482.5 132.05 481.05 132.0 480.8 132.65 482.1 132.0 482.2 133.35 481.95 135.75 480.3 139.6 478.65 143.25 478.1 144.85 L476.1 147.95 475.3 147.95 476.55 148.55 476.8 148.95 Q478.05 150.6 478.3 152.55 478.3 155.15 476.3 156.4 474.8 156.25 474.35 155.45 L473.4 152.8 Q472.75 151.55 471.6 150.9 L472.15 151.65 Q470.15 149.95 469.35 147.15 L469.3 147.0 Q469.1 149.05 467.2 149.9 L467.1 149.85 468.25 149.15 468.7 148.65 468.8 148.5 Q469.5 147.4 469.1 145.85 468.2 143.05 465.25 143.3 466.0 141.1 467.8 139.3 L471.3 135.8 Q472.45 134.2 474.45 132.1 475.45 131.0 476.3 130.5 L476.65 131.15 477.8 129.95 M474.75 156.25 L474.7 156.25 474.65 156.15 474.75 156.25 M466.75 143.0 L467.05 143.1 Q467.65 141.7 468.4 140.7 467.25 141.4 466.75 143.0 M467.8 143.6 L467.9 143.7 Q468.5 142.55 469.6 141.4 L471.1 139.8 Q470.35 139.95 469.25 141.25 468.15 142.5 467.8 143.6 M468.55 144.4 L468.65 144.55 471.7 141.7 Q470.1 142.4 468.55 144.4 M468.85 146.15 L468.9 146.55 Q468.75 147.85 467.55 147.95 L466.95 147.9 Q466.65 148.7 465.2 149.2 L465.15 149.15 Q467.85 147.65 466.95 146.4 467.25 145.05 463.6 144.2 464.05 143.65 465.9 143.5 467.7 143.35 468.8 145.9 L468.85 146.15 M425.5 123.05 Q426.7 123.55 427.85 121.8 428.75 119.9 427.7 119.1 426.75 118.7 425.8 119.7 L426.55 121.1 425.15 120.7 Q424.5 122.35 425.5 123.05 M430.85 120.65 L430.35 121.8 Q427.65 125.85 424.65 124.65 422.05 122.65 424.25 118.3 426.0 115.65 427.9 115.25 431.1 116.65 430.85 120.65 M412.8 115.15 Q414.95 111.2 418.4 111.9 419.85 113.3 419.65 116.7 418.75 121.5 415.55 121.6 412.35 120.75 412.65 115.85 L412.8 115.15 M416.7 115.45 Q415.7 115.45 415.2 116.85 L416.5 117.7 415.05 117.95 Q415.15 119.75 416.35 120.0 417.7 119.85 417.95 117.85 418.0 115.75 416.7 115.45 M420.2 131.05 L417.85 135.65 415.0 135.1 417.1 130.5 419.85 131.05 420.2 131.05 M416.6 130.35 L414.8 135.0 413.05 133.55 414.45 129.4 416.6 130.35" fill="#ffffff" fill-rule="evenodd" stroke="none"/>
    <path d="M364.3 93.1 L364.45 93.0 364.45 93.05 Q364.9 96.8 368.1 96.85 L371.85 96.7 372.1 96.65 371.95 96.75 Q370.95 97.3 370.0 97.5 L366.6 97.35 365.8 97.0 Q364.5 96.3 364.0 95.0 363.55 93.75 364.3 93.1 M377.5 83.4 L381.15 85.7 381.25 85.75 384.55 87.85 384.6 87.85 383.85 88.25 383.75 88.2 Q381.95 87.85 380.25 86.55 L375.95 82.55 372.85 79.25 376.45 82.6 377.05 83.1 377.5 83.4 M390.55 83.7 L390.5 83.65 Q391.0 83.55 391.65 84.0 393.5 86.05 391.55 89.3 389.85 91.75 387.1 92.35 L386.95 92.35 Q391.4 89.85 391.3 87.2 391.15 84.5 390.55 83.7 M373.25 95.85 L373.35 95.75 Q375.4 97.4 377.0 97.1 L379.2 96.55 379.5 96.75 Q380.25 97.3 381.15 97.55 L381.2 97.55 Q379.45 98.7 376.95 98.2 L374.75 97.4 373.1 96.15 373.25 95.85 M378.35 94.9 L380.25 95.75 Q382.05 96.45 383.25 96.25 385.3 95.55 386.0 94.2 386.65 92.95 387.15 92.55 L387.2 92.5 387.8 92.5 387.8 92.55 387.75 93.15 387.7 93.3 387.6 93.85 387.3 94.75 386.05 96.25 385.1 96.85 384.9 96.9 384.65 97.0 Q382.8 97.55 381.25 97.0 L379.85 96.3 379.05 95.65 378.35 94.9 M381.95 97.7 Q385.45 98.2 387.1 96.0 387.9 94.9 388.25 93.2 389.0 95.85 388.05 97.55 387.35 98.75 385.8 99.45 384.15 100.2 382.95 100.2 381.3 100.1 380.35 98.6 L381.7 97.9 381.95 97.7 M479.8 129.45 Q481.4 128.95 482.05 129.9 482.75 130.8 482.6 131.4 481.55 131.1 480.6 132.0 L476.4 137.65 476.7 137.2 479.35 133.35 Q481.6 130.3 479.8 129.45 M482.5 132.05 L482.55 132.05 Q483.45 132.9 483.15 134.8 L482.55 137.05 482.15 138.1 478.05 145.0 478.1 144.85 Q478.65 143.25 480.3 139.6 481.95 135.75 482.2 133.35 482.1 132.0 480.8 132.65 481.05 132.0 482.5 132.05 M476.55 148.55 L476.5 148.5 Q479.3 150.05 479.85 152.65 480.0 154.95 478.15 156.7 477.25 157.55 476.4 157.45 475.5 157.35 474.75 156.25 L474.65 156.15 474.35 155.45 Q474.8 156.25 476.3 156.4 478.3 155.15 478.3 152.55 478.05 150.6 476.8 148.95 L476.55 148.55 M472.15 151.65 L472.2 151.75 Q469.6 151.25 467.15 149.9 L467.2 149.9 Q469.1 149.05 469.3 147.0 L469.35 147.15 Q470.15 149.95 472.15 151.65 M476.3 130.5 Q477.15 129.85 477.8 129.95 L476.65 131.15 476.3 130.5 M465.2 149.2 Q466.65 148.7 466.95 147.9 L467.55 147.95 Q468.75 147.85 468.9 146.55 L468.85 146.15 468.8 145.7 468.9 145.9 Q469.3 147.4 468.2 148.7 467.25 149.85 465.65 149.35 L465.2 149.2" fill="#dedede" fill-rule="evenodd" stroke="none"/>
    <path d="M423.55 173.45 L423.8 173.4 Q431.3 172.0 437.6 167.85 L441.65 164.7 Q444.6 161.85 446.05 158.5 L446.05 158.45 446.15 158.25 446.25 158.0 Q465.35 175.0 462.5 190.75 456.7 193.5 451.2 195.4 L450.65 195.6 443.0 197.85 442.4 197.95 437.15 198.95 436.65 199.05 430.35 199.6 430.05 199.65 422.55 199.35 Q426.65 186.1 423.45 173.45 L423.55 173.45 M446.25 158.45 L446.2 158.4 Q443.4 164.65 437.05 168.65 430.7 172.7 423.7 173.7 426.75 186.15 422.8 199.2 L430.45 199.4 439.75 198.25 460.75 191.35 462.25 190.65 Q465.05 175.2 446.25 158.4 L446.25 158.45" fill="#c48cc3" fill-rule="evenodd" stroke="none"/>
    <path d="M439.75 198.25 Q446.05 193.45 446.35 184.85 446.35 180.45 445.6 174.1 444.75 167.8 442.5 164.45 444.85 161.9 446.25 158.45 L446.25 158.4 Q465.05 175.2 462.25 190.65 L460.75 191.35 439.75 198.25 M450.8 189.05 Q450.25 186.2 448.05 186.2 445.85 186.7 446.0 189.65 446.55 192.5 448.8 192.45 450.95 191.95 450.8 189.05 M456.5 184.55 Q458.55 183.75 458.05 180.9 457.05 178.15 454.85 178.45 452.8 179.3 453.35 182.15 454.3 184.85 456.5 184.55 M451.85 167.4 Q450.8 164.5 448.65 164.8 446.55 165.65 447.15 168.65 448.1 171.5 450.35 171.2 452.4 170.35 451.85 167.4" fill="#e9a6ce" fill-rule="evenodd" stroke="none"/>
    <path d="M430.0 194.45 Q429.5 191.85 427.5 191.8 425.5 192.25 425.6 194.9 426.1 197.45 428.1 197.5 430.05 197.05 430.0 194.45 M431.9 176.4 Q432.85 179.25 435.15 178.9 437.25 178.05 436.7 175.15 435.75 172.35 433.5 172.65 431.35 173.5 431.9 176.4 M427.85 181.25 Q425.9 181.85 426.2 184.45 426.85 187.0 428.9 186.9 430.8 186.3 430.55 183.7 429.85 181.15 427.85 181.25 M443.65 178.0 Q445.8 177.3 445.45 174.3 444.6 171.35 442.4 171.5 440.3 172.2 440.65 175.25 441.45 178.15 443.65 178.0 M438.55 188.8 Q437.8 185.95 435.5 186.1 433.3 186.8 433.65 189.75 434.4 192.65 436.75 192.45 438.9 191.75 438.55 188.8 M439.75 198.25 L430.45 199.4 422.8 199.2 Q426.75 186.15 423.7 173.7 430.7 172.7 437.05 168.65 443.4 164.65 446.2 158.4 L446.25 158.45 Q444.85 161.9 442.5 164.45 444.75 167.8 445.6 174.1 446.35 180.45 446.35 184.85 446.05 193.45 439.75 198.25" fill="#eab3d7" fill-rule="evenodd" stroke="none"/>
    <path d="M423.8 173.4 Q421.0 170.5 417.6 162.4 414.2 154.35 414.55 142.15 L415.85 142.2 416.05 142.65 Q416.45 142.9 416.9 142.65 L417.35 142.35 422.5 143.15 Q429.4 144.4 433.75 149.1 436.95 153.2 439.0 156.9 441.0 160.4 441.65 164.7 L437.6 167.85 Q431.3 172.0 423.8 173.4 M405.85 139.7 L404.6 139.15 404.6 139.1 405.85 139.7 M406.45 133.2 Q407.35 131.6 408.7 130.4 L409.2 129.95 409.85 130.8 409.35 131.4 Q408.2 132.8 407.35 134.35 L406.45 133.2 M410.35 131.4 L412.85 133.5 412.8 133.55 412.9 133.85 413.2 134.1 Q412.05 135.1 410.05 135.25 L408.05 134.85 408.45 134.15 410.35 131.4 M415.65 148.9 Q416.9 151.5 418.5 151.45 419.45 151.1 420.25 149.8 L421.0 148.45 Q421.3 150.95 422.8 154.5 420.75 156.1 418.45 155.7 416.2 152.85 415.65 148.9 M415.25 148.1 Q415.7 152.75 418.3 155.95 420.85 156.45 423.05 154.55 421.4 150.75 421.15 148.1 418.2 148.5 415.25 148.1 M435.4 146.4 L435.4 146.35 Q441.2 154.1 446.05 158.45 L446.05 158.5 Q441.2 154.15 435.4 146.4 M435.5 144.45 Q437.2 142.45 438.4 140.0 L438.5 139.8 439.3 137.75 440.3 137.9 439.7 140.3 Q438.75 142.75 436.65 144.9 L436.45 145.1 435.5 144.45 M417.6 151.0 Q417.55 150.55 417.9 150.45 418.25 150.4 418.4 150.85 L418.1 151.35 417.6 151.0" fill="#fcd468" fill-rule="evenodd" stroke="none"/>
    <path d="M408.55 130.2 L409.05 129.75 409.4 129.8 Q410.8 131.8 412.9 133.2 L412.85 133.5 410.35 131.4 410.5 131.25 409.95 130.65 409.85 130.8 409.2 129.95 408.7 130.4 Q407.35 131.6 406.45 133.2 L405.65 134.8 Q404.85 136.75 404.6 139.1 L404.6 139.15 405.85 139.7 406.3 139.9 406.3 139.85 406.35 139.9 414.3 141.15 414.4 137.0 414.75 135.3 414.8 135.3 414.9 135.35 414.95 135.35 Q414.45 138.05 414.35 141.15 L414.35 142.2 414.55 142.15 Q414.2 154.35 417.6 162.4 421.0 170.5 423.8 173.4 L423.55 173.45 Q420.9 170.65 417.85 163.7 414.25 155.55 414.3 142.0 409.7 141.8 404.5 139.35 L404.35 139.1 Q404.65 136.6 405.5 134.6 L405.6 134.3 406.65 132.4 Q407.35 131.3 408.35 130.35 L408.55 130.2 M436.8 145.1 L435.55 146.25 Q441.35 153.95 446.15 158.25 L446.05 158.45 Q441.2 154.1 435.4 146.35 L435.4 146.4 434.95 146.75 434.65 146.75 Q428.25 142.4 425.8 137.0 L425.8 136.8 Q426.3 135.55 427.2 134.8 L425.0 134.25 424.9 134.05 427.4 134.65 Q428.8 133.55 431.2 133.55 L431.35 133.65 Q435.55 137.2 440.35 137.65 L440.55 137.9 440.0 140.15 439.95 140.35 Q439.0 142.8 436.95 144.95 L436.8 145.1 M439.3 137.75 L439.35 137.65 438.6 137.45 438.55 137.65 436.4 141.9 434.3 144.55 434.25 144.55 434.15 144.7 433.25 145.55 433.7 145.8 434.8 146.55 435.25 146.2 435.25 146.15 435.4 146.05 436.5 145.1 436.45 145.1 436.65 144.9 Q438.75 142.75 439.7 140.3 L440.3 137.9 439.3 137.75" fill="#fea139" fill-rule="evenodd" stroke="none"/>
    <path d="M431.1 117.35 L430.8 117.15 430.8 117.2 430.5 116.7 430.85 116.95 431.1 117.35 M431.35 117.15 L431.75 117.25 431.85 117.8 431.5 117.6 431.35 117.15 M430.95 116.45 Q430.15 115.2 428.6 114.95 L430.35 116.25 429.7 115.8 429.75 115.95 428.15 115.05 428.6 114.95 Q430.6 114.6 431.45 116.15 L431.6 116.6 430.95 116.45 M431.65 118.4 L431.85 118.5 431.8 119.2 431.55 119.05 431.25 118.85 431.15 118.05 431.4 118.25 431.55 119.05 431.65 118.4 M431.65 119.8 L431.05 121.45 431.3 119.5 431.65 119.8 M415.15 111.05 L415.65 110.8 Q417.2 109.9 418.45 111.35 L418.65 111.6 416.25 111.5 415.15 111.05 M414.3 111.75 L414.65 111.45 415.45 111.75 415.2 111.9 415.0 111.85 414.5 111.8 414.3 111.75 M414.05 112.35 L414.25 112.35 414.45 112.4 413.85 113.0 413.45 112.95 413.85 112.3 414.05 112.35 M412.95 114.35 L413.2 113.5 413.45 113.5 412.95 114.35" fill="#bde5bb" fill-rule="evenodd" stroke="none"/>
    <path d="M431.1 117.35 L430.85 116.95 431.35 117.15 431.5 117.6 431.1 117.35 M430.95 116.45 L430.35 116.25 428.6 114.95 Q430.15 115.2 430.95 116.45 M431.4 118.25 L431.65 118.4 431.55 119.05 431.4 118.25" fill="#e1f3cf" fill-rule="evenodd" stroke="none"/>
    <path d="M423.1 128.25 Q423.25 127.75 423.55 127.8 423.85 127.95 423.7 128.45 L423.25 128.9 Q422.95 128.75 423.1 128.25 M422.8 126.55 Q422.95 126.05 423.25 126.1 423.55 126.25 423.4 126.75 L422.95 127.2 Q422.65 127.05 422.8 126.55 M414.75 124.8 Q415.0 124.75 415.2 125.05 415.3 125.35 415.05 125.45 414.75 125.5 414.6 125.2 414.45 124.9 414.75 124.8 M414.3 126.55 Q414.0 126.6 413.85 126.1 413.7 125.6 414.0 125.45 414.3 125.35 414.45 125.9 414.6 126.4 414.3 126.55 M413.6 124.15 Q413.45 123.65 413.75 123.5 414.05 123.45 414.2 123.95 414.35 124.45 414.05 124.6 413.75 124.65 413.6 124.15" fill="#ad811f" fill-rule="evenodd" stroke="none"/>
    <path d="M412.05 128.05 L412.15 127.3 Q412.75 128.3 413.9 129.05 L414.25 129.25 413.75 130.65 Q412.6 129.7 412.05 128.05 M411.55 125.9 L411.45 126.25 410.65 125.65 410.4 125.3 410.25 125.0 Q409.7 123.85 409.75 123.1 L409.85 122.15 Q410.75 121.35 413.25 121.9 415.4 122.3 418.0 123.45 L416.35 123.35 Q415.2 123.9 416.1 125.65 416.75 127.1 417.45 127.6 L417.25 128.15 416.15 128.85 Q413.4 128.45 411.8 125.35 411.6 124.55 411.55 123.65 L412.0 123.7 411.5 123.2 Q410.95 123.35 411.0 124.2 L411.35 123.75 Q411.25 124.9 411.55 125.9 M419.0 123.75 L418.95 123.7 418.55 123.5 419.2 123.8 419.0 123.75 M418.15 127.75 L420.3 127.1 Q421.75 126.35 421.6 125.2 L421.0 124.45 Q423.55 125.2 425.55 126.35 427.25 127.3 427.85 128.3 L427.9 128.5 Q427.4 130.15 425.4 130.95 L422.55 131.05 423.15 130.5 423.55 130.3 425.8 128.8 425.85 129.25 Q426.25 128.55 425.85 128.15 425.45 128.0 425.2 128.35 L425.65 128.5 424.6 129.35 425.0 129.0 424.8 129.1 Q422.45 130.15 420.0 130.1 417.8 129.4 417.7 128.7 L418.15 127.75 M419.85 123.95 L419.7 123.9 Q423.15 124.45 426.05 125.95 L426.55 126.25 426.6 126.3 426.0 125.95 Q423.2 124.5 419.85 123.95 M422.8 126.55 Q422.65 127.05 422.95 127.2 L423.4 126.75 Q423.55 126.25 423.25 126.1 422.95 126.05 422.8 126.55 M423.1 128.25 Q422.95 128.75 423.25 128.9 L423.7 128.45 Q423.85 127.95 423.55 127.8 423.25 127.75 423.1 128.25 M419.75 132.45 L420.4 131.1 420.3 131.05 420.95 131.0 Q421.75 131.1 421.95 131.75 L421.55 132.2 419.75 132.45 M422.0 132.1 L423.85 131.75 425.95 131.05 Q424.15 131.9 422.0 132.1 M428.45 129.3 L428.5 129.2 428.6 128.6 428.55 128.5 Q428.45 127.55 427.2 126.7 L427.15 126.6 Q428.9 127.85 428.6 129.2 L428.45 129.3 M413.6 124.15 Q413.75 124.65 414.05 124.6 414.35 124.45 414.2 123.95 414.05 123.45 413.75 123.5 413.45 123.65 413.6 124.15 M414.3 126.55 Q414.6 126.4 414.45 125.9 414.3 125.35 414.0 125.45 413.7 125.6 413.85 126.1 414.0 126.6 414.3 126.55 M414.75 124.8 Q414.45 124.9 414.6 125.2 414.75 125.5 415.05 125.45 415.3 125.35 415.2 125.05 415.0 124.75 414.75 124.8" fill="#e6ca50" fill-rule="evenodd" stroke="none"/>
    <path d="M418.0 123.45 L418.95 123.75 419.0 123.75 419.2 123.8 419.7 123.9 419.85 123.95 421.0 124.45 421.6 125.2 Q421.75 126.35 420.3 127.1 L418.15 127.75 417.75 127.75 417.45 127.6 Q416.75 127.1 416.1 125.65 415.2 123.9 416.35 123.35 L418.0 123.45 M420.0 124.75 Q418.65 123.7 417.15 123.6 416.55 123.6 416.4 123.95 416.55 124.35 417.9 124.6 L420.0 124.75" fill="#e1002e" fill-rule="evenodd" stroke="none"/>
    <path d="M411.1 121.35 L411.5 121.3 411.7 121.35 413.15 121.5 417.4 122.95 418.55 123.5 418.95 123.7 419.0 123.75 418.95 123.75 418.0 123.45 Q415.4 122.3 413.25 121.9 410.75 121.35 409.85 122.15 L409.75 123.1 Q409.7 123.85 410.25 125.0 L410.4 125.3 410.65 125.65 411.45 126.25 411.55 125.9 412.15 127.3 412.05 128.05 412.1 128.3 411.05 126.5 Q409.7 124.95 409.4 122.85 409.3 122.0 410.0 121.6 L410.0 121.7 Q410.25 121.5 410.6 121.4 L411.1 121.35 M421.0 124.45 L419.85 123.95 Q423.2 124.5 426.0 125.95 L426.6 126.3 426.55 126.25 426.1 125.9 427.15 126.6 427.2 126.7 Q428.45 127.55 428.55 128.5 L428.6 128.6 428.5 129.2 428.45 129.3 Q427.95 130.2 425.95 131.05 L423.85 131.75 422.0 132.1 421.3 132.3 421.55 132.2 421.95 131.75 Q421.75 131.1 420.95 131.0 L423.15 130.5 422.55 131.05 425.4 130.95 Q427.4 130.15 427.9 128.5 L427.85 128.3 Q427.25 127.3 425.55 126.35 423.55 125.2 421.0 124.45 M417.7 128.7 Q417.8 129.4 420.0 130.1 422.45 130.15 424.8 129.1 L425.0 129.0 424.6 129.35 Q421.85 131.2 417.85 130.3 417.1 129.95 417.35 129.85 417.45 129.25 417.7 128.7 M417.25 128.15 L416.95 129.6 Q417.0 129.85 416.6 129.8 414.8 129.1 413.25 127.7 412.25 126.75 411.8 125.35 413.4 128.45 416.15 128.85 L417.25 128.15" fill="#edac50" fill-rule="evenodd" stroke="none"/>
    <path d="M413.65 130.95 Q412.6 130.15 412.0 128.8 L411.9 128.5 411.85 128.45 411.7 127.95 409.85 125.0 Q408.8 123.3 409.35 121.9 L409.9 121.4 411.1 121.35 410.6 121.4 Q410.25 121.5 410.0 121.7 L410.0 121.6 Q409.3 122.0 409.4 122.85 409.7 124.95 411.05 126.5 L412.1 128.3 412.05 128.05 Q412.6 129.7 413.75 130.65 L413.65 130.95 M411.7 121.35 L413.15 121.25 Q415.95 121.85 419.05 123.45 L419.3 123.55 Q422.85 124.15 426.05 125.75 429.0 127.2 428.8 128.95 L428.75 129.3 Q427.35 130.95 425.5 131.55 L423.0 132.15 422.75 132.2 422.7 132.2 422.35 132.3 419.55 132.8 419.75 132.45 421.55 132.2 421.3 132.3 422.0 132.1 Q424.15 131.9 425.95 131.05 427.95 130.2 428.45 129.3 L428.6 129.2 Q428.9 127.85 427.15 126.6 L426.1 125.9 426.55 126.25 426.05 125.95 Q423.15 124.45 419.7 123.9 L419.2 123.8 418.55 123.5 417.4 122.95 413.15 121.5 411.7 121.35 M412.15 127.3 L411.55 125.9 Q411.25 124.9 411.35 123.75 L411.0 124.2 Q410.95 123.35 411.5 123.2 L412.0 123.7 411.55 123.65 Q411.6 124.55 411.8 125.35 412.25 126.75 413.25 127.7 414.8 129.1 416.6 129.8 417.0 129.85 416.95 129.6 L417.25 128.15 417.45 127.6 417.75 127.75 418.15 127.75 417.7 128.7 Q417.45 129.25 417.35 129.85 417.1 129.95 417.85 130.3 421.85 131.2 424.6 129.35 L425.65 128.5 425.2 128.35 Q425.45 128.0 425.85 128.15 426.25 128.55 425.85 129.25 L425.8 128.8 423.55 130.3 423.15 130.5 420.95 131.0 420.3 131.05 420.2 131.05 419.85 131.05 417.1 130.5 416.6 130.35 414.45 129.4 414.25 129.25 413.9 129.05 Q412.75 128.3 412.15 127.3" fill="#996400" fill-rule="evenodd" stroke="none"/>
    <path d="M423.05 133.8 L423.15 133.55 Q423.25 133.3 423.5 133.4 L424.85 134.0 424.9 134.05 425.0 134.25 Q424.55 139.85 423.15 141.8 L423.1 141.85 Q421.55 142.4 419.85 140.35 L419.8 140.3 419.8 140.25 419.95 140.05 Q421.7 137.35 423.0 133.9 L423.05 133.8 M415.55 135.5 L415.75 135.5 Q415.5 136.35 415.5 137.9 415.55 139.85 415.95 141.4 L416.25 142.45 Q416.95 142.7 417.5 141.85 L418.05 140.6 418.2 140.05 417.8 139.6 417.1 137.95 Q416.65 136.4 416.75 135.85 L416.8 135.85 416.85 135.75 417.15 135.8 417.1 135.9 Q417.0 136.25 417.05 136.7 L417.25 137.95 417.55 138.8 418.35 139.8 418.45 140.05 418.45 140.1 418.45 140.3 Q418.3 141.35 417.7 142.0 L417.35 142.35 416.9 142.65 Q416.45 142.9 416.05 142.65 L415.85 142.2 415.65 141.35 Q415.3 139.9 415.25 138.15 415.2 136.5 415.55 135.5 M423.4 133.65 Q422.05 137.35 420.05 140.25 421.8 142.1 423.05 141.5 424.35 139.75 424.8 134.25 L423.4 133.65 M421.0 148.45 L421.1 148.25 418.25 148.55 415.55 148.35 415.35 148.35 415.65 148.9 Q416.2 152.85 418.45 155.7 420.75 156.1 422.8 154.5 421.3 150.95 421.0 148.45 M415.25 148.1 Q418.2 148.5 421.15 148.1 421.4 150.75 423.05 154.55 420.85 156.45 418.3 155.95 415.7 152.75 415.25 148.1" fill="#ed3066" fill-rule="evenodd" stroke="none"/>
    <path d="M406.3 139.85 L406.3 139.9 405.85 139.7 405.55 139.5 Q405.9 137.65 406.6 136.0 L407.35 134.35 Q408.2 132.8 409.35 131.4 L409.85 130.8 409.95 130.65 410.5 131.25 410.35 131.4 408.45 134.15 408.05 134.85 Q406.8 137.2 406.3 139.85 M415.75 135.5 L416.85 135.75 416.8 135.85 416.75 135.85 Q416.65 136.4 417.1 137.95 L417.8 139.6 418.2 140.05 418.05 140.6 417.5 141.85 Q416.95 142.7 416.25 142.45 L415.95 141.4 Q415.55 139.85 415.5 137.9 415.5 136.35 415.75 135.5 M423.4 133.65 L424.8 134.25 Q424.35 139.75 423.05 141.5 421.8 142.1 420.05 140.25 422.05 137.35 423.4 133.65 M415.65 148.9 L415.35 148.35 415.55 148.35 418.25 148.55 421.1 148.25 421.0 148.45 420.25 149.8 Q419.45 151.1 418.5 151.45 416.9 151.5 415.65 148.9 M435.5 144.45 L435.3 144.6 435.2 144.75 434.75 145.2 434.65 145.35 434.6 145.35 434.0 145.95 433.7 145.8 433.25 145.55 434.15 144.7 434.25 144.55 434.3 144.55 436.4 141.9 438.55 137.65 438.6 137.45 439.35 137.65 439.3 137.75 438.5 139.8 438.4 140.0 Q437.2 142.45 435.5 144.45 M417.6 151.0 L418.1 151.35 418.4 150.85 Q418.25 150.4 417.9 150.45 417.55 150.55 417.6 151.0" fill="#de3f95" fill-rule="evenodd" stroke="none"/>
    <path d="M414.55 142.15 L414.35 142.2 414.35 141.15 Q414.45 138.05 414.95 135.35 L415.55 135.5 Q415.2 136.5 415.25 138.15 415.3 139.9 415.65 141.35 L415.85 142.2 414.55 142.15 M414.75 135.3 L414.4 137.0 414.3 141.15 406.35 139.9 406.3 139.85 Q406.8 137.2 408.05 134.85 L410.05 135.25 Q412.05 135.1 413.2 134.1 L414.75 135.3 M404.6 139.1 Q404.85 136.75 405.65 134.8 L406.45 133.2 407.35 134.35 406.6 136.0 Q405.9 137.65 405.55 139.5 L405.85 139.7 404.6 139.1 M417.15 135.8 L417.2 135.8 417.1 135.9 417.15 135.8 M419.8 140.3 L419.85 140.35 Q421.55 142.4 423.1 141.85 L423.15 141.8 Q424.55 139.85 425.0 134.25 L427.2 134.8 Q426.3 135.55 425.8 136.8 L425.8 137.0 Q428.25 142.4 434.65 146.75 L434.95 146.75 435.4 146.4 Q441.2 154.15 446.05 158.5 444.6 161.85 441.65 164.7 441.0 160.4 439.0 156.9 436.95 153.2 433.75 149.1 429.4 144.4 422.5 143.15 L417.35 142.35 417.7 142.0 Q418.3 141.35 418.45 140.3 L419.8 140.3 M433.7 145.8 L434.0 145.95 434.6 145.35 434.65 145.35 434.75 145.2 435.2 144.75 435.3 144.6 435.5 144.45 436.45 145.1 436.5 145.1 435.4 146.05 435.25 146.15 435.25 146.2 434.8 146.55 433.7 145.8" fill="#f8c566" fill-rule="evenodd" stroke="none"/>
    <path d="M420.0 124.75 L417.9 124.6 Q416.55 124.35 416.4 123.95 416.55 123.6 417.15 123.6 418.65 123.7 420.0 124.75" fill="#f83d5f" fill-rule="evenodd" stroke="none"/>
    <path d="M412.9 133.2 L413.65 130.95 413.75 130.65 414.25 129.25 414.45 129.4 413.05 133.55 414.8 135.0 416.6 130.35 417.1 130.5 415.0 135.1 417.85 135.65 420.2 131.05 420.3 131.05 420.4 131.1 419.75 132.45 419.55 132.8 418.05 135.8 417.8 135.95 417.25 135.8 417.2 135.8 417.15 135.8 416.85 135.75 415.75 135.5 415.55 135.5 414.95 135.35 414.9 135.35 414.8 135.3 414.75 135.3 413.2 134.1 412.9 133.85 412.8 133.55 412.85 133.5 412.9 133.2" fill="#d9d9d9" fill-rule="evenodd" stroke="none"/>
    <path d="M443.65 178.0 Q441.45 178.15 440.65 175.25 440.3 172.2 442.4 171.5 444.6 171.35 445.45 174.3 445.8 177.3 443.65 178.0 M427.85 181.25 Q429.85 181.15 430.55 183.7 430.8 186.3 428.9 186.9 426.85 187.0 426.2 184.45 425.9 181.85 427.85 181.25 M431.9 176.4 Q431.35 173.5 433.5 172.65 435.75 172.35 436.7 175.15 437.25 178.05 435.15 178.9 432.85 179.25 431.9 176.4 M430.0 194.45 Q430.05 197.05 428.1 197.5 426.1 197.45 425.6 194.9 425.5 192.25 427.5 191.8 429.5 191.85 430.0 194.45 M438.55 188.8 Q438.9 191.75 436.75 192.45 434.4 192.65 433.65 189.75 433.3 186.8 435.5 186.1 437.8 185.95 438.55 188.8" fill="#dd71b6" fill-rule="evenodd" stroke="none"/>
    <path d="M451.85 167.4 Q452.4 170.35 450.35 171.2 448.1 171.5 447.15 168.65 446.55 165.65 448.65 164.8 450.8 164.5 451.85 167.4 M456.5 184.55 Q454.3 184.85 453.35 182.15 452.8 179.3 454.85 178.45 457.05 178.15 458.05 180.9 458.55 183.75 456.5 184.55 M450.8 189.05 Q450.95 191.95 448.8 192.45 446.55 192.5 446.0 189.65 445.85 186.7 448.05 186.2 450.25 186.2 450.8 189.05" fill="#d55aaa" fill-rule="evenodd" stroke="none"/>
    <path d="M435.9 118.05 L434.75 111.35 433.55 107.15 443.2 101.4 Q452.35 95.7 461.95 85.3 462.45 84.45 462.1 83.3 461.65 82.15 458.9 83.05 451.45 85.9 444.05 91.65 436.55 97.35 429.3 104.35 427.35 103.55 425.55 103.35 426.4 90.2 425.6 82.3 424.8 74.45 422.3 69.65 L421.2 69.25 Q420.5 69.0 420.2 69.8 418.6 77.1 419.2 86.25 419.8 95.4 421.15 103.9 L418.6 105.3 413.7 109.55 M383.85 88.25 Q386.3 87.9 388.0 85.5 389.2 83.7 390.55 83.7 M388.25 97.85 Q389.4 96.0 388.55 93.05 L388.3 92.35 Q390.45 91.6 391.85 89.45 393.95 86.1 391.85 83.65 389.75 82.6 388.3 84.6 L386.75 86.3 385.35 87.5 377.35 82.7 374.0 79.7 Q372.55 78.0 370.95 78.45 L370.15 79.15 Q368.25 77.85 366.95 78.7 364.7 80.95 367.85 86.1 L371.05 90.9 371.05 91.5 Q369.4 92.55 367.95 92.55 L365.15 92.4 Q363.0 92.85 363.5 94.7 363.95 96.45 365.65 97.4 L370.7 97.65 372.5 96.75 373.0 96.6 Q375.75 99.05 380.0 98.75 380.65 100.35 382.45 100.5 L383.15 100.5 M388.25 97.85 L408.55 130.2 409.05 129.75 409.4 129.8 Q410.8 131.8 412.9 133.2 L413.65 130.95 Q412.6 130.15 412.0 128.8 L411.65 128.6 Q408.85 126.65 406.5 123.55 404.1 120.35 405.1 117.1 406.15 114.5 408.3 113.5 L410.95 111.9 M405.5 134.6 Q404.65 136.6 404.35 139.1 L404.5 139.35 Q409.7 141.8 414.3 142.0 414.25 155.55 417.85 163.7 420.9 170.65 423.55 173.45 M464.9 149.1 Q465.6 149.9 466.5 149.75 L466.8 149.95 467.05 150.05 Q468.3 150.85 469.6 151.2 L472.1 151.8 472.55 151.85 473.3 152.9 474.6 156.35 Q476.3 158.7 478.3 156.85 480.2 155.05 480.1 152.6 479.4 149.85 476.35 148.0 477.85 146.0 479.35 143.2 L482.35 138.15 Q484.35 133.8 482.65 131.9 L482.85 131.45 Q483.0 130.75 482.25 129.75 481.5 128.7 479.65 129.25 L479.05 129.6 477.75 129.75 Q476.25 129.85 474.3 132.0 L468.05 138.8 Q466.35 140.35 465.35 142.35 L465.1 142.9 465.05 143.25 Q464.05 143.45 463.1 144.3 M464.95 149.1 L464.9 149.1 449.95 147.75 436.8 145.1 435.55 146.25 Q441.35 153.95 446.15 158.25 L446.25 158.0 Q465.35 175.0 462.5 190.75 456.7 193.5 451.2 195.4 L439.6 228.3 445.55 228.05 Q448.35 228.2 450.85 230.4 452.85 232.95 452.15 239.6 L451.65 240.05 Q439.75 240.9 429.6 239.45 429.15 239.4 429.1 239.0 428.65 234.55 431.4 230.55 L442.4 197.95 437.15 198.95 424.55 230.35 Q425.5 235.6 424.4 238.8 411.05 240.8 401.4 239.3 L401.35 239.35 401.35 239.3 398.75 238.8 Q398.1 237.55 399.85 233.7 400.7 231.8 401.35 231.05 L403.1 229.55 Q406.0 227.35 408.75 227.45 L416.45 228.15 430.05 199.65 422.55 199.35 Q426.65 186.1 423.45 173.45 L423.55 173.45 M463.2 144.6 L452.95 143.0 440.9 140.55 M435.9 118.05 L436.9 122.1 Q437.75 125.45 437.75 126.7 436.7 130.85 432.6 132.2 428.4 133.5 424.5 132.8 L422.7 132.4 422.75 133.65 423.05 133.8 M424.9 134.05 L427.4 134.65 Q428.8 133.55 431.2 133.55 L431.35 133.65 Q435.55 137.2 440.35 137.65 L440.55 137.9 440.0 140.15 M405.5 134.6 Q393.25 118.8 383.15 100.5" fill="none" stroke="#000000" stroke-linecap="round" stroke-linejoin="round" stroke-width="1.0"/>
    <path d="M796.3 246.2 L796.3 246.25 796.35 246.25 Q798.2 248.15 798.2 250.8 L798.2 302.7 Q798.2 305.35 796.35 307.3 L796.3 307.3 796.3 307.35 Q794.35 309.2 791.7 309.2 L654.7 309.2 Q652.05 309.2 650.15 307.35 L650.15 307.3 650.1 307.3 Q648.2 305.35 648.2 302.7 L648.2 250.8 Q648.2 248.15 650.1 246.25 L650.15 246.2 Q649.7 247.15 649.7 248.3 L649.7 300.2 Q649.7 302.25 651.15 303.75 L651.2 303.75 Q652.65 305.2 654.7 305.2 L791.7 305.2 Q793.75 305.2 795.25 303.75 796.7 302.25 796.7 300.2 L796.7 248.3 Q796.7 247.1 796.2 246.1 L796.3 246.2" fill="#000000" fill-rule="evenodd" stroke="none"/>
  </g>
</svg>
