<?xml version="1.0" encoding="UTF-8" standalone="no"?>
<svg xmlns:xlink="http://www.w3.org/1999/xlink" height="34.85px" width="42.95px" xmlns="http://www.w3.org/2000/svg">
  <g transform="matrix(1.0, 0.0, 0.0, 1.0, 22.85, 79.85)">
    <path d="M-2.25 -79.85 L-12.55 -78.65 -15.55 -77.4 -18.0 -75.6 -21.6 -70.75 -14.95 -71.35 -11.95 -72.0 -8.9 -73.8 -8.9 -75.0 -8.3 -75.6 -7.7 -75.6 -8.3 -75.0 -8.3 -73.8 -7.1 -73.2 -6.5 -76.2 -6.5 -76.8 -8.3 -77.4 -13.15 -77.4 -14.95 -76.2 -13.15 -78.0 -10.75 -78.65 -5.9 -77.4 -2.25 -78.65 1.35 -77.4 4.4 -78.0 7.4 -78.0 11.05 -76.8 10.45 -76.8 6.2 -77.4 3.8 -77.4 1.95 -76.8 -1.05 -77.4 -4.1 -77.4 -5.9 -76.2 -6.5 -75.0 -5.9 -73.2 -2.25 -72.0 0.15 -72.0 1.95 -73.8 4.4 -73.8 3.8 -75.6 2.55 -75.6 3.8 -76.2 4.4 -75.6 5.0 -74.4 13.45 -70.75 17.1 -70.15 18.3 -69.55 18.9 -69.55 18.55 -70.15 18.9 -70.15 18.5 -70.25 18.3 -70.6 18.3 -71.35 17.1 -72.55 17.1 -72.6 16.95 -72.7 14.05 -75.6 12.0 -76.65 11.05 -77.4 7.4 -78.65 -2.25 -79.85 0.15 -79.85 5.6 -79.25 10.45 -78.0 16.5 -74.4 18.3 -72.0 19.5 -68.95 20.1 -68.95 12.85 -49.85 8.6 -47.4 -1.05 -45.0 -7.1 -46.2 -15.55 -49.2 -19.2 -61.1 -21.6 -64.7 -22.85 -68.95 -19.2 -75.0 -16.2 -77.4 -12.55 -79.25 -2.25 -79.85 M16.5 -69.55 L14.05 -70.15 11.65 -70.15 8.0 -58.65 12.25 -59.25 12.85 -59.25 17.1 -69.55 16.5 -69.55 M18.9 -68.35 L17.1 -69.55 15.9 -64.1 13.45 -59.25 15.9 -59.25 17.7 -63.5 18.3 -68.35 18.9 -68.35 M3.2 -58.65 L7.4 -58.65 10.45 -70.15 4.4 -68.35 3.2 -58.65 M7.4 -70.15 L11.65 -70.75 4.4 -73.2 1.95 -73.2 1.35 -72.0 -1.65 -71.35 -6.35 -72.55 -6.4 -72.55 -6.5 -72.6 -8.9 -73.2 -11.95 -71.35 -16.2 -70.15 -14.35 -69.55 -13.15 -69.55 -7.1 -67.15 -2.85 -66.55 7.4 -70.15 M8.6 -58.05 L8.0 -58.05 7.4 -55.05 11.65 -56.25 12.85 -58.65 8.6 -58.05 M2.55 -58.05 L2.55 -54.45 6.8 -55.05 8.0 -58.05 2.55 -58.05 M1.95 -58.05 L-1.65 -58.05 -1.65 -53.85 1.95 -54.45 1.95 -58.05 M10.45 -55.05 L-2.25 -53.2 -8.9 -53.85 -14.95 -55.65 -15.55 -55.65 -16.8 -56.25 -16.2 -55.05 -14.35 -53.2 -4.7 -49.6 -1.05 -49.6 4.4 -50.8 9.85 -52.6 12.25 -53.85 13.45 -55.05 14.05 -56.25 10.45 -55.05 M12.25 -56.25 L14.05 -56.85 14.65 -57.45 15.3 -58.65 13.45 -58.65 12.25 -56.25 M4.4 -68.35 L-1.65 -66.55 -1.65 -58.05 2.55 -58.65 4.4 -68.35 M-21.0 -69.55 L-22.25 -68.35 -21.6 -65.95 -20.4 -62.9 -19.8 -62.9 -18.6 -61.7 -16.2 -61.1 -19.2 -70.15 -19.8 -70.15 -21.0 -69.55 M-11.35 -60.5 L-11.35 -59.25 -7.1 -58.65 -7.7 -66.55 -8.9 -67.15 -12.55 -68.35 -12.55 -64.7 -11.95 -60.5 -11.35 -60.5 M-6.5 -59.9 L-6.5 -58.65 -2.25 -58.65 -2.25 -66.55 -2.85 -65.95 -7.1 -65.95 -6.5 -59.9 M-15.55 -61.7 L-15.55 -61.1 -11.95 -59.25 -13.15 -68.95 -13.75 -68.95 -14.95 -69.55 -16.8 -70.15 -18.6 -70.15 -15.55 -61.7 M-14.35 -56.85 L-14.35 -55.65 -10.75 -55.05 -11.35 -58.65 -12.55 -59.25 -14.95 -59.9 -15.55 -59.9 -14.35 -56.85 M-18.6 -61.1 L-18.6 -59.9 -18.0 -58.65 -16.8 -56.85 -14.95 -56.25 -16.2 -60.5 -18.0 -61.1 -18.6 -61.1 M-10.75 -55.65 L-10.15 -55.05 -6.5 -54.45 -7.1 -58.05 -7.7 -58.05 -10.75 -58.65 -10.75 -55.65 M-5.9 -55.05 L-5.9 -53.85 -2.25 -53.85 -2.25 -58.05 -2.85 -58.05 -6.5 -58.05 -5.9 -55.05" fill="#000000" fill-rule="evenodd" stroke="none"/>
    <path d="M18.55 -70.15 L18.9 -69.55 18.3 -69.55 17.1 -70.15 13.45 -70.75 5.0 -74.4 4.4 -75.6 3.8 -76.2 2.55 -75.6 3.8 -75.6 4.4 -73.8 1.95 -73.8 0.15 -72.0 -2.25 -72.0 -5.9 -73.2 -6.5 -75.0 -5.9 -76.2 -4.1 -77.4 -1.05 -77.4 1.95 -76.8 3.8 -77.4 6.2 -77.4 10.45 -76.8 11.05 -76.8 7.4 -78.0 4.4 -78.0 1.35 -77.4 -2.25 -78.65 -5.9 -77.4 -10.75 -78.65 -13.15 -78.0 -14.95 -76.2 -13.15 -77.4 -8.3 -77.4 -6.5 -76.8 -6.5 -76.2 -7.1 -73.2 -8.3 -73.8 -8.3 -75.0 -7.7 -75.6 -8.3 -75.6 -8.9 -75.0 -8.9 -73.8 -11.95 -72.0 -14.95 -71.35 -21.6 -70.75 -18.0 -75.6 -15.55 -77.4 -12.55 -78.65 -2.25 -79.85 7.4 -78.65 11.05 -77.4 12.0 -76.65 9.25 -78.0 11.05 -76.8 12.25 -75.0 13.45 -71.35 18.3 -70.3 18.3 -70.15 18.55 -70.15 M16.95 -72.7 L17.1 -72.6 17.1 -72.55 16.95 -72.7 M18.3 -70.6 L18.5 -70.25 18.3 -70.3 18.3 -70.6 M-1.65 -71.35 L-4.7 -72.0 -6.35 -72.55 -4.1 -71.35 -1.65 -70.75 0.75 -70.75 3.2 -72.0 7.4 -70.15 -2.85 -66.55 -7.1 -67.15 -13.15 -69.55 -14.35 -69.55 -11.35 -70.75 -8.9 -72.6 -6.5 -72.6 -6.4 -72.55 -6.35 -72.55 -1.65 -71.35 M9.85 -52.6 L4.4 -50.8 -1.05 -49.6 -4.7 -49.6 -14.35 -53.2 -16.2 -55.05 -16.8 -56.25 -15.55 -55.65 -14.95 -55.65 -8.9 -53.85 -2.25 -53.2 10.45 -55.05 9.85 -52.6 M-15.55 -77.4 L-21.0 -71.35 -16.8 -71.35 -16.2 -75.0 -14.35 -77.4 -15.55 -77.4 M-12.55 -52.6 L-13.15 -53.85 -13.75 -53.85 -14.95 -55.05 -14.35 -53.2 -12.55 -52.6" fill="#d9dae6" fill-rule="evenodd" stroke="none"/>
    <path d="M16.5 -69.55 L17.1 -69.55 12.85 -59.25 12.25 -59.25 8.0 -58.65 11.65 -70.15 14.05 -70.15 16.5 -69.55 M18.9 -68.35 L18.3 -68.35 17.7 -63.5 15.9 -59.25 13.45 -59.25 15.9 -64.1 17.1 -69.55 18.9 -68.35 M3.2 -58.65 L5.6 -64.1 7.4 -67.15 9.85 -68.95 8.0 -68.95 6.8 -68.35 5.0 -67.75 3.2 -58.65 4.4 -68.35 10.45 -70.15 7.4 -58.65 3.2 -58.65 M14.05 -68.95 L12.25 -69.55 8.6 -59.25 9.85 -59.25 11.65 -64.1 14.05 -68.95 M0.75 -64.1 L1.35 -65.95 3.2 -67.75 1.35 -67.15 -1.05 -65.95 -1.05 -58.65 0.75 -58.65 0.75 -64.1 M8.6 -58.05 L12.85 -58.65 11.65 -56.25 7.4 -55.05 8.0 -58.05 8.6 -58.05 8.6 -57.45 9.25 -57.45 11.05 -58.05 8.6 -58.05 M3.2 -57.45 L3.2 -56.25 6.8 -57.45 3.2 -57.45 M1.95 -58.05 L1.95 -54.45 -1.65 -53.85 -1.65 -58.05 1.95 -58.05 M2.55 -58.05 L8.0 -58.05 6.8 -55.05 2.55 -54.45 2.55 -58.05 M4.4 -68.35 L2.55 -58.65 -1.65 -58.05 -1.65 -66.55 4.4 -68.35 M12.25 -56.25 L13.45 -58.65 15.3 -58.65 14.65 -57.45 14.05 -56.85 12.25 -56.25 M-21.0 -69.55 L-19.8 -70.15 -19.2 -70.15 -16.2 -61.1 -18.6 -61.7 -19.8 -62.9 -20.4 -62.9 -21.6 -65.95 -19.8 -62.9 -18.6 -62.3 -16.8 -62.3 -19.2 -70.15 -21.0 -69.55 M-8.9 -67.15 L-7.7 -66.55 -7.1 -58.65 -11.35 -59.25 -11.35 -60.5 -7.7 -59.25 -8.9 -67.15 M-12.55 -64.7 L-11.35 -60.5 -11.95 -60.5 -12.55 -64.7 M-2.85 -65.95 L-2.25 -66.55 -2.25 -58.65 -6.5 -58.65 -6.5 -59.9 -2.85 -59.9 -2.85 -65.95 M-14.95 -69.55 L-13.75 -68.95 -13.15 -68.95 -11.95 -59.25 -15.55 -61.1 -15.55 -61.7 -12.55 -60.5 -14.95 -69.55 M-15.55 -59.9 L-14.95 -59.9 -12.55 -59.25 -11.35 -58.65 -10.75 -55.05 -14.35 -55.65 -14.35 -56.85 -11.35 -55.65 -12.55 -59.25 -15.55 -59.9 M-18.6 -61.1 L-18.0 -61.1 -16.2 -60.5 -14.95 -56.25 -16.8 -56.85 -18.0 -58.65 -18.6 -59.9 -18.6 -61.1 -18.0 -59.25 -17.4 -58.05 -15.55 -57.45 -16.2 -60.5 -18.6 -61.1 M-7.7 -58.05 L-7.1 -58.05 -6.5 -54.45 -10.15 -55.05 -10.75 -55.65 -7.7 -55.65 -7.7 -58.05 M-2.85 -58.05 L-2.25 -58.05 -2.25 -53.85 -5.9 -53.85 -5.9 -55.05 -2.85 -55.05 -2.85 -58.05 M-1.05 -55.65 L-0.45 -55.65 1.35 -56.85 -1.05 -56.85 -1.05 -55.65" fill="#cbcbcb" fill-rule="evenodd" stroke="none"/>
    <path d="M12.0 -76.65 L14.05 -75.6 16.95 -72.7 17.1 -72.55 18.3 -71.35 18.3 -70.6 18.3 -70.3 13.45 -71.35 12.25 -75.0 11.05 -76.8 9.25 -78.0 12.0 -76.65 M18.5 -70.25 L18.9 -70.15 18.55 -70.15 18.3 -70.15 18.3 -70.3 18.5 -70.25 M-1.65 -71.35 L1.35 -72.0 1.95 -73.2 4.4 -73.2 11.65 -70.75 7.4 -70.15 3.2 -72.0 0.75 -70.75 -1.65 -70.75 -4.1 -71.35 -6.35 -72.55 -4.7 -72.0 -1.65 -71.35 M-14.35 -69.55 L-16.2 -70.15 -11.95 -71.35 -8.9 -73.2 -6.5 -72.6 -8.9 -72.6 -11.35 -70.75 -14.35 -69.55 M10.45 -55.05 L14.05 -56.25 13.45 -55.05 12.25 -53.85 9.85 -52.6 10.45 -55.05" fill="#b2b1cb" fill-rule="evenodd" stroke="none"/>
    <path d="M-15.55 -77.4 L-14.35 -77.4 -16.2 -75.0 -16.8 -71.35 -21.0 -71.35 -15.55 -77.4 M-12.55 -52.6 L-14.35 -53.2 -14.95 -55.05 -13.75 -53.85 -13.15 -53.85 -12.55 -52.6" fill="#e3f2ea" fill-rule="evenodd" stroke="none"/>
    <path d="M14.05 -68.95 L11.65 -64.1 9.85 -59.25 8.6 -59.25 12.25 -69.55 14.05 -68.95 M3.2 -58.65 L5.0 -67.75 6.8 -68.35 8.0 -68.95 9.85 -68.95 7.4 -67.15 5.6 -64.1 3.2 -58.65 M0.75 -64.1 L0.75 -58.65 -1.05 -58.65 -1.05 -65.95 1.35 -67.15 3.2 -67.75 1.35 -65.95 0.75 -64.1 M8.6 -58.05 L11.05 -58.05 9.25 -57.45 8.6 -57.45 8.6 -58.05 M3.2 -57.45 L6.8 -57.45 3.2 -56.25 3.2 -57.45 M-21.6 -65.95 L-22.25 -68.35 -21.0 -69.55 -19.2 -70.15 -16.8 -62.3 -18.6 -62.3 -19.8 -62.9 -21.6 -65.95 M-8.9 -67.15 L-7.7 -59.25 -11.35 -60.5 -12.55 -64.7 -12.55 -68.35 -8.9 -67.15 M-2.85 -65.95 L-2.85 -59.9 -6.5 -59.9 -7.1 -65.95 -2.85 -65.95 M-14.95 -69.55 L-12.55 -60.5 -15.55 -61.7 -18.6 -70.15 -16.8 -70.15 -14.95 -69.55 M-14.35 -56.85 L-15.55 -59.9 -12.55 -59.25 -11.35 -55.65 -14.35 -56.85 M-18.6 -61.1 L-16.2 -60.5 -15.55 -57.45 -17.4 -58.05 -18.0 -59.25 -18.6 -61.1 M-7.7 -58.05 L-7.7 -55.65 -10.75 -55.65 -10.75 -58.65 -7.7 -58.05 M-2.85 -58.05 L-2.85 -55.05 -5.9 -55.05 -6.5 -58.05 -2.85 -58.05 M-1.05 -55.65 L-1.05 -56.85 1.35 -56.85 -0.45 -55.65 -1.05 -55.65" fill="#ffffff" fill-rule="evenodd" stroke="none"/>
  </g>
</svg>
