<?xml version="1.0" encoding="UTF-8" standalone="no"?>
<svg xmlns:xlink="http://www.w3.org/1999/xlink" height="14.55px" width="167.85px" xmlns="http://www.w3.org/2000/svg">
  <g transform="matrix(1.0, 0.0, 0.0, 1.0, -0.15, -4.4)">
    <path d="M167.05 12.35 L166.85 12.5 165.45 13.5 165.45 13.45 165.35 13.5 165.1 13.6 164.55 13.85 164.35 13.95 164.2 14.3 164.35 14.85 164.35 14.9 164.35 15.0 164.35 15.2 164.35 15.25 Q164.3 16.65 163.3 17.6 L163.25 17.7 Q162.35 18.55 160.9 18.65 L160.7 18.65 159.1 18.45 157.75 17.5 157.5 17.25 157.35 17.4 157.35 17.45 157.15 17.6 157.2 17.55 156.6 17.9 156.55 17.95 156.5 17.95 156.3 18.05 156.25 18.05 154.65 18.3 154.6 18.3 153.2 18.5 153.15 18.5 153.0 18.5 152.1 18.6 152.0 18.6 151.6 18.65 151.45 18.65 150.45 18.45 150.4 18.45 150.2 18.3 150.1 18.35 149.05 18.55 149.0 18.55 147.75 18.45 146.5 18.35 146.45 18.35 146.3 18.35 146.2 18.35 145.55 18.25 145.4 18.25 145.35 18.25 144.95 18.2 144.9 18.2 143.9 17.75 143.35 17.85 142.5 18.0 142.4 18.0 142.25 18.0 142.2 18.0 141.3 18.1 140.6 18.15 140.25 18.2 138.95 17.95 138.9 17.9 137.8 18.1 136.9 18.05 135.65 18.0 135.2 17.95 135.1 17.95 135.0 17.95 134.95 17.95 134.85 17.95 134.8 17.95 134.5 17.9 Q133.9 17.8 133.45 17.4 L133.4 17.35 132.9 16.5 132.8 16.35 132.8 16.4 132.7 16.5 130.3 18.0 130.25 18.05 130.2 18.05 130.1 18.1 126.9 18.55 124.1 18.15 Q122.7 17.7 121.65 16.9 L121.6 16.85 121.6 16.9 121.45 16.75 121.5 16.75 121.2 16.5 120.8 17.4 120.7 17.5 Q120.2 18.05 119.5 18.15 L117.85 18.3 116.35 18.45 115.25 18.55 114.65 18.55 Q113.9 18.55 113.35 18.05 L113.25 18.0 112.8 17.35 112.75 17.4 112.75 17.45 112.55 17.6 112.6 17.55 112.0 17.9 111.95 17.95 111.9 17.95 111.7 18.05 111.65 18.05 110.05 18.3 110.0 18.3 108.6 18.5 108.55 18.5 108.4 18.5 107.5 18.6 107.4 18.6 107.0 18.65 106.85 18.65 105.85 18.45 105.8 18.45 105.65 18.35 105.6 18.3 105.5 18.35 104.45 18.55 104.4 18.55 103.15 18.45 101.9 18.35 101.85 18.35 101.7 18.35 101.6 18.35 100.95 18.25 100.8 18.25 100.75 18.25 100.35 18.2 100.3 18.2 Q99.55 18.05 99.05 17.5 L98.0 18.05 97.95 18.05 97.85 18.1 94.65 18.55 91.85 18.15 Q90.45 17.7 89.4 16.9 L89.35 16.85 89.35 16.9 89.2 16.75 89.25 16.75 88.95 16.45 88.9 16.5 Q87.9 17.4 86.5 18.0 L86.45 18.05 86.4 18.05 86.3 18.1 83.1 18.55 80.3 18.15 Q78.9 17.7 77.85 16.9 L77.8 16.85 77.8 16.9 77.65 16.75 77.7 16.75 77.4 16.5 77.0 17.4 76.9 17.5 Q76.4 18.05 75.7 18.15 L74.05 18.3 72.55 18.45 71.45 18.55 70.85 18.55 Q70.1 18.55 69.55 18.05 L69.45 18.0 Q68.9 17.45 68.85 16.65 L68.8 14.7 68.8 13.6 68.6 13.6 68.55 13.6 68.0 13.7 67.9 13.7 Q67.25 13.7 66.75 13.3 L66.75 13.55 66.75 13.65 Q66.7 15.0 66.0 16.05 L65.95 16.15 65.75 16.35 Q65.1 17.2 64.05 17.7 L61.95 18.45 61.85 18.45 59.65 18.6 57.3 18.35 56.9 18.25 55.8 17.8 55.0 18.2 54.9 18.2 53.5 18.4 52.0 18.55 51.95 18.55 50.9 18.6 50.55 18.65 50.5 18.65 49.5 18.5 49.45 18.45 49.4 18.45 48.75 17.9 48.65 17.8 48.6 17.75 Q48.3 17.3 48.3 16.75 L48.25 14.3 48.25 12.6 48.05 12.75 47.85 12.85 46.95 13.05 46.65 13.05 46.65 13.45 46.9 15.95 Q46.95 16.75 46.5 17.4 L46.4 17.5 Q45.9 18.05 45.2 18.15 L43.55 18.3 42.05 18.45 40.95 18.55 40.35 18.55 Q39.6 18.55 39.05 18.05 L38.95 18.0 38.5 17.35 38.4 17.4 38.35 17.4 36.45 18.0 36.2 18.1 36.0 18.15 33.45 18.75 32.05 18.55 32.0 18.5 31.85 18.35 31.35 17.85 30.65 18.65 Q30.0 19.05 29.3 18.95 L29.25 18.95 29.15 18.95 27.4 18.5 26.3 18.25 26.2 18.35 26.0 18.45 24.9 18.65 24.5 18.6 23.5 18.55 23.4 18.55 21.9 18.4 21.8 18.4 20.3 18.2 19.85 18.1 19.5 18.2 19.4 18.2 17.9 18.4 16.3 18.55 15.25 18.6 14.9 18.65 14.85 18.65 13.85 18.5 13.8 18.45 13.75 18.45 13.15 17.95 13.1 17.9 13.05 17.85 12.85 17.85 12.0 18.0 11.9 18.0 11.75 18.0 11.7 18.0 10.8 18.1 10.1 18.15 9.75 18.2 8.45 17.95 8.4 17.9 7.3 18.1 6.4 18.05 5.15 18.0 4.7 17.95 4.6 17.95 4.45 17.95 4.35 17.95 4.3 17.95 4.0 17.9 Q3.4 17.8 2.95 17.4 L2.9 17.35 2.4 16.5 2.3 16.3 2.1 15.2 1.65 13.55 1.15 11.6 0.65 9.6 0.2 7.8 0.15 6.95 0.2 6.7 0.7 5.9 0.75 5.8 1.5 5.4 1.7 5.35 1.7 5.3 3.15 5.0 4.45 4.75 4.5 4.75 4.6 4.75 5.5 4.6 5.85 4.55 5.9 4.55 6.05 4.55 Q7.0 4.35 7.7 5.2 L8.25 6.6 8.25 6.65 8.25 6.75 8.35 7.05 8.4 6.75 Q8.55 6.0 8.9 5.65 L8.95 5.65 Q9.65 4.8 10.65 5.0 L10.85 5.0 12.6 4.95 14.0 5.0 14.65 4.85 16.3 4.9 17.85 4.95 17.9 4.95 19.0 5.05 19.05 5.05 19.4 5.1 19.5 5.1 19.95 5.25 20.0 5.2 20.25 5.1 20.2 5.1 20.4 5.05 20.45 5.05 20.55 5.0 21.6 4.85 23.2 4.65 24.85 4.45 25.95 4.65 26.15 4.8 26.75 5.35 26.85 5.5 27.05 6.45 27.05 6.7 27.3 6.15 28.0 5.35 28.2 5.3 29.0 5.05 30.65 4.95 30.75 4.95 32.25 4.95 33.4 4.9 33.85 4.9 Q34.4 4.9 34.85 5.2 L34.85 5.15 34.9 5.2 34.85 5.2 34.95 5.25 35.0 5.25 35.65 6.05 35.7 6.1 35.8 6.35 36.05 6.0 36.05 6.05 36.2 5.9 Q36.65 5.45 37.3 5.35 L37.4 5.35 40.15 5.15 43.05 4.95 46.0 4.7 46.1 4.7 Q46.8 4.65 47.4 5.1 L48.1 6.05 48.05 5.95 48.2 6.3 48.3 6.8 Q48.35 6.0 48.9 5.45 49.5 4.85 50.3 4.85 L51.85 4.9 53.35 4.95 54.45 5.05 54.55 5.05 54.9 5.1 55.7 5.4 55.95 5.25 56.05 5.25 56.3 5.15 Q57.6 4.55 59.55 4.5 L59.65 4.5 62.45 4.9 62.55 4.9 62.8 5.0 Q63.8 5.35 64.55 5.9 L64.7 6.05 64.7 6.0 66.0 7.45 66.05 7.5 66.05 7.35 Q66.05 6.55 66.55 6.0 L66.55 6.05 66.7 5.9 Q67.15 5.45 67.8 5.35 L67.9 5.35 70.65 5.15 73.55 4.95 76.5 4.7 76.6 4.7 Q77.3 4.65 77.9 5.1 78.4 5.45 78.6 6.05 L78.65 6.1 Q79.4 5.6 80.35 5.3 L80.6 5.2 83.25 4.8 Q85.4 4.8 87.05 5.65 88.15 6.2 88.9 7.0 L89.5 6.45 89.7 6.35 89.9 6.25 Q90.8 5.65 91.9 5.3 L92.15 5.2 94.8 4.8 Q96.95 4.8 98.6 5.65 L98.95 5.85 99.3 5.35 Q99.9 4.75 100.7 4.75 L102.3 4.8 103.55 4.85 103.75 4.85 104.8 4.95 105.15 5.0 106.0 5.35 106.4 5.05 Q106.45 4.95 106.55 4.95 L106.55 4.9 107.55 4.7 109.2 4.85 110.65 5.0 111.65 5.1 111.75 5.1 112.1 5.15 112.5 5.3 114.45 5.15 117.35 4.95 120.3 4.7 120.4 4.7 Q121.1 4.65 121.7 5.1 122.2 5.45 122.4 6.05 L122.45 6.1 124.15 5.3 124.4 5.2 127.05 4.8 Q129.2 4.8 130.85 5.65 L131.2 5.9 131.25 5.85 131.3 5.8 Q131.6 5.5 132.0 5.4 L132.2 5.35 132.2 5.3 133.65 5.0 134.95 4.75 135.0 4.75 135.1 4.75 136.0 4.6 136.35 4.55 136.4 4.55 136.55 4.55 Q137.5 4.35 138.2 5.2 L138.75 6.6 138.75 6.65 138.75 6.75 138.85 7.05 138.9 6.75 Q139.05 6.0 139.4 5.65 L139.45 5.65 Q140.15 4.8 141.15 5.0 L141.35 5.0 143.1 4.95 144.45 5.0 Q144.8 4.75 145.3 4.75 L146.9 4.8 148.15 4.85 148.35 4.85 149.4 4.95 149.75 5.0 Q150.2 5.1 150.6 5.35 L151.0 5.05 151.15 4.95 151.15 4.9 Q151.6 4.65 152.15 4.7 L153.8 4.85 155.25 5.0 156.25 5.1 156.35 5.1 156.7 5.15 157.45 5.45 Q157.95 5.1 158.6 4.85 159.7 4.45 161.15 4.4 L161.3 4.4 Q163.45 4.45 164.85 5.0 L165.05 5.15 165.15 5.2 Q166.6 5.9 167.3 7.0 L167.45 7.25 167.45 7.2 Q168.1 8.4 168.0 9.85 167.9 11.4 167.05 12.35 M157.95 14.45 L157.1 14.4 157.2 14.75 157.95 14.45 M138.15 5.2 L138.2 5.2 138.15 5.2 M131.2 5.9 L130.9 6.3 130.95 6.3 131.6 6.15 131.25 5.9 131.1 6.2 131.15 6.0 131.2 5.9 M127.4 11.95 L127.3 11.9 127.25 11.9 127.25 12.05 127.3 12.0 127.4 11.95 M138.65 16.9 L138.75 16.75 138.15 17.05 138.3 17.2 138.4 17.3 138.4 17.35 138.45 17.2 138.55 16.95 138.6 16.95 138.65 16.9 M139.4 17.45 L139.55 17.35 139.4 17.2 139.4 17.3 139.4 17.45 M95.0 11.9 L95.0 12.05 95.05 12.0 95.15 11.95 95.05 11.9 95.0 11.9 M83.45 12.05 L83.5 12.0 83.6 11.95 83.5 11.9 83.45 11.9 83.45 12.05 M7.65 5.2 L7.7 5.2 7.65 5.2 M66.05 7.55 L66.05 7.5 66.05 7.55 M98.05 18.0 L98.0 18.05 98.05 18.0" fill="#000000" fill-rule="evenodd" stroke="none"/>
  </g>
</svg>
