<?xml version="1.0" encoding="UTF-8" standalone="no"?>
<svg xmlns:xlink="http://www.w3.org/1999/xlink" height="35.2px" width="46.1px" xmlns="http://www.w3.org/2000/svg">
  <g transform="matrix(1.0, 0.0, 0.0, 1.0, -0.45, 35.1)">
    <path d="M33.1 -33.55 L38.8 -33.6 46.55 -33.45 44.75 -25.25 43.3 -18.75 42.0 -13.2 40.65 -7.6 39.05 -1.1 35.2 -0.6 31.4 -0.25 28.45 0.0 27.3 0.1 26.1 -3.35 24.85 -6.7 23.9 -9.15 23.5 -10.15 23.05 -8.75 21.8 -5.2 20.2 -0.25 16.1 -0.35 12.35 -0.55 9.55 -0.7 8.45 -0.8 7.25 -5.2 5.65 -11.4 3.8 -18.55 2.0 -25.8 0.45 -32.3 5.7 -33.45 10.5 -34.35 13.95 -34.9 15.25 -35.1 15.55 -33.8 16.3 -30.3 17.4 -25.35 18.65 -19.7 19.25 -20.8 20.75 -23.55 22.85 -27.05 23.65 -26.0 25.55 -23.4 27.65 -20.05 28.65 -24.5 29.7 -28.85 30.5 -32.15 30.85 -33.45 33.1 -33.55" fill="#000000" fill-rule="evenodd" stroke="none"/>
  </g>
</svg>
