<?xml version="1.0" encoding="UTF-8" standalone="no"?>
<svg xmlns:xlink="http://www.w3.org/1999/xlink" height="37.25px" width="38.4px" xmlns="http://www.w3.org/2000/svg">
  <g transform="matrix(1.0, 0.0, 0.0, 1.0, -0.95, 35.4)">
    <path d="M33.1 -34.75 L39.1 -35.4 39.3 -24.5 39.35 -15.35 39.35 -6.9 39.3 1.85 37.7 1.75 33.7 1.4 28.4 0.9 22.9 0.15 22.8 -5.35 22.7 -10.95 19.95 -10.75 17.7 -10.6 17.4 0.15 11.9 0.9 6.6 1.4 2.6 1.75 1.05 1.85 0.95 -6.7 0.95 -14.65 1.0 -23.25 1.2 -33.95 6.95 -33.85 12.3 -33.55 16.2 -33.25 17.75 -33.1 17.75 -26.35 17.75 -19.4 20.25 -19.5 22.5 -19.55 22.3 -26.5 22.1 -33.15 23.65 -33.4 27.6 -34.0 33.1 -34.75" fill="#000000" fill-rule="evenodd" stroke="none"/>
  </g>
</svg>
