<?xml version="1.0" encoding="UTF-8" standalone="no"?>
<svg xmlns:xlink="http://www.w3.org/1999/xlink" height="36.0px" width="34.65px" xmlns="http://www.w3.org/2000/svg">
  <g transform="matrix(1.0, 0.0, 0.0, 1.0, -0.8, 34.5)">
    <path d="M32.65 -34.5 L33.75 -29.3 34.65 -24.15 35.2 -20.25 35.45 -18.65 34.0 -18.7 30.5 -18.7 26.15 -18.6 27.1 -9.05 27.9 0.0 22.25 0.65 16.9 1.1 12.85 1.4 11.25 1.5 11.2 -5.25 11.2 -11.45 11.2 -17.75 6.25 -17.2 2.4 -16.6 0.8 -16.3 0.8 -21.75 0.95 -26.9 1.1 -30.7 1.2 -32.25 11.35 -33.0 21.6 -33.7 32.65 -34.5" fill="#000000" fill-rule="evenodd" stroke="none"/>
  </g>
</svg>
