<?xml version="1.0" encoding="UTF-8" standalone="no"?>
<svg xmlns:xlink="http://www.w3.org/1999/xlink" height="36.4px" width="39.65px" xmlns="http://www.w3.org/2000/svg">
  <g transform="matrix(1.0, 0.0, 0.0, 1.0, -0.3, 35.55)">
    <path d="M20.6 -26.7 L22.6 -30.8 24.25 -34.2 24.95 -35.55 26.35 -35.25 29.9 -34.4 34.75 -33.15 39.95 -31.55 39.05 -30.0 36.55 -25.8 32.8 -19.55 28.15 -11.95 28.15 -5.75 28.1 0.1 22.1 0.45 16.6 0.65 12.6 0.8 11.0 0.85 11.2 -6.25 11.45 -12.85 7.3 -19.45 3.75 -25.3 1.25 -29.55 0.3 -31.15 6.05 -32.95 11.2 -34.35 14.85 -35.25 16.25 -35.55 16.95 -34.2 18.6 -30.8 20.6 -26.7" fill="#000000" fill-rule="evenodd" stroke="none"/>
  </g>
</svg>
