<?xml version="1.0" encoding="UTF-8" standalone="no"?>
<svg xmlns:xlink="http://www.w3.org/1999/xlink" height="34.15px" width="25.95px" xmlns="http://www.w3.org/2000/svg">
  <g transform="matrix(1.0, 0.0, 0.0, 1.0, -3.6, 34.15)">
    <path d="M19.05 -25.95 Q17.85 -27.0 15.45 -27.0 L12.45 -27.0 12.45 -18.45 15.4 -18.45 Q17.95 -18.45 19.1 -19.5 20.3 -20.55 20.3 -22.8 20.3 -24.9 19.05 -25.95 M26.25 -31.25 Q27.9 -29.75 28.7 -27.65 29.55 -25.55 29.55 -22.9 29.55 -17.2 26.6 -14.3 23.7 -11.35 18.0 -11.35 L12.45 -11.35 12.45 0.0 3.6 0.0 3.6 -34.15 17.7 -34.15 22.65 -33.5 Q24.65 -32.8 26.25 -31.25" fill="#000000" fill-rule="evenodd" stroke="none"/>
  </g>
</svg>
