<?xml version="1.0" encoding="UTF-8" standalone="no"?>
<svg xmlns:xlink="http://www.w3.org/1999/xlink" height="54.55px" width="46.3px" xmlns="http://www.w3.org/2000/svg">
  <g transform="matrix(1.0, 0.0, 0.0, 1.0, 24.3, -27.8)">
    <path d="M14.6 81.85 L3.25 82.35 -1.15 76.55 -1.4 30.4 22.0 28.4 16.85 72.4 20.7 74.4 20.1 77.8 14.6 81.85" fill="#0d0f0d" fill-rule="evenodd" stroke="none"/>
    <path d="M-2.25 31.0 L-2.6 54.6 -1.45 65.9 -1.65 75.25 -6.0 76.7 -22.7 76.3 -24.0 72.95 -19.55 70.7 -19.45 65.7 -23.1 55.4 -24.3 27.8 -2.25 31.0" fill="#0d0f0d" fill-rule="evenodd" stroke="none"/>
    <path d="M21.1 30.65 L20.5 30.7 20.5 30.65 21.1 30.65" fill="#261817" fill-rule="evenodd" stroke="none"/>
    <path d="M7.05 67.4 L5.85 67.4 5.2 68.6 5.85 69.25 7.05 69.85 8.25 69.25 8.25 67.4 7.05 67.4 M0.4 69.85 L0.4 71.05 2.8 71.05 3.4 69.85 2.8 68.6 1.6 68.6 0.4 68.6 0.4 69.85 M12.5 69.85 L12.5 70.45 13.7 71.05 14.9 70.45 15.5 69.85 14.9 68.6 13.7 68.6 12.5 68.6 12.5 69.85 M6.2 71.6 L16.05 73.15 20.35 74.85 19.45 77.3 14.5 81.1 3.45 81.55 -0.2 76.7 0.1 74.25 6.2 71.6 M15.95 67.0 L7.5 66.4 -1.0 67.0 -0.5 32.25 20.2 30.9 15.95 67.0 M16.1 67.4 L16.1 72.25 5.2 71.0 -0.85 74.05 -0.85 67.4 8.25 66.8 16.1 67.4" fill="#181e16" fill-rule="evenodd" stroke="none"/>
    <path d="M7.05 67.4 L8.25 67.4 8.25 69.25 7.05 69.85 5.85 69.25 5.2 68.6 5.85 67.4 7.05 67.4 5.85 68.0 5.85 69.25 7.65 69.25 7.65 68.0 7.05 67.4 M1.6 68.6 L2.8 68.6 3.4 69.85 2.8 71.05 0.4 71.05 0.4 69.85 1.0 70.45 2.2 70.45 2.2 69.85 2.8 69.85 1.6 68.6 0.4 69.85 0.4 68.6 1.6 68.6 M12.5 69.85 L13.1 70.45 14.3 70.45 14.3 69.85 14.9 69.85 13.7 68.6 14.9 68.6 15.5 69.85 14.9 70.45 13.7 71.05 12.5 70.45 12.5 69.85 12.5 68.6 13.7 68.6 12.5 69.85" fill="#0d0f0d" fill-rule="evenodd" stroke="none"/>
    <path d="M7.05 67.4 L7.65 68.0 7.65 69.25 5.85 69.25 5.85 68.0 7.05 67.4 M1.6 68.6 L2.8 69.85 2.2 69.85 2.2 70.45 1.0 70.45 0.4 69.85 1.6 68.6 M13.7 68.6 L14.9 69.85 14.3 69.85 14.3 70.45 13.1 70.45 12.5 69.85 13.7 68.6" fill="#608051" fill-rule="evenodd" stroke="none"/>
    <path d="M-24.0 30.65 L-23.4 30.65 -23.4 30.7 -24.0 30.65" fill="#261817" fill-rule="evenodd" stroke="none"/>
    <path d="M-2.55 32.25 L-3.2 54.1 -2.3 65.0 -10.8 64.4 -19.25 65.0 -22.5 55.5 -23.1 29.9 -2.55 32.25 M-9.9 65.5 L-11.1 65.5 -11.1 67.35 -9.9 67.95 -8.7 67.35 -8.1 66.7 -8.7 65.5 -9.9 65.5 M-15.35 67.95 L-15.35 66.7 -16.55 66.7 -17.75 66.7 -18.4 67.95 -17.75 68.55 -16.55 69.15 -15.35 68.55 -15.35 67.95 M-19.0 65.5 L-11.15 64.9 -2.05 65.5 -2.05 72.15 -8.1 69.1 -19.0 70.35 -19.0 65.5 M-3.25 67.95 L-3.25 66.7 -4.45 66.7 -5.7 66.7 -6.3 67.95 -5.7 69.15 -3.25 69.15 -3.25 67.95 M-2.95 72.35 L-2.65 74.8 -6.35 75.75 -22.3 75.4 -23.2 72.95 -18.9 71.25 -9.1 69.7 -2.95 72.35" fill="#181e16" fill-rule="evenodd" stroke="none"/>
    <path d="M-9.9 65.5 L-10.5 66.1 -10.5 67.35 -8.7 67.35 -9.9 67.95 -11.1 67.35 -11.1 65.5 -9.9 65.5 -8.7 65.5 -8.1 66.7 -8.7 67.35 -8.7 66.1 -9.9 65.5 M-17.15 67.95 L-17.15 68.55 -15.95 68.55 -15.35 67.95 -16.55 66.7 -17.75 67.95 -17.15 67.95 M-15.35 67.95 L-15.35 68.55 -16.55 69.15 -17.75 68.55 -18.4 67.95 -17.75 66.7 -16.55 66.7 -15.35 66.7 -15.35 67.95 M-4.45 66.7 L-3.25 66.7 -3.25 67.95 -4.45 66.7 -5.7 67.95 -5.05 67.95 -5.05 68.55 -3.85 68.55 -3.25 67.95 -3.25 69.15 -5.7 69.15 -6.3 67.95 -5.7 66.7 -4.45 66.7" fill="#0d0f0d" fill-rule="evenodd" stroke="none"/>
    <path d="M-8.7 67.35 L-10.5 67.35 -10.5 66.1 -9.9 65.5 -8.7 66.1 -8.7 67.35 M-17.15 67.95 L-17.75 67.95 -16.55 66.7 -15.35 67.95 -15.95 68.55 -17.15 68.55 -17.15 67.95 M-4.45 66.7 L-3.25 67.95 -3.85 68.55 -5.05 68.55 -5.05 67.95 -5.7 67.95 -4.45 66.7" fill="#608051" fill-rule="evenodd" stroke="none"/>
  </g>
</svg>
