<?xml version="1.0" encoding="UTF-8" standalone="no"?>
<svg xmlns:xlink="http://www.w3.org/1999/xlink" height="36.4px" width="37.8px" xmlns="http://www.w3.org/2000/svg">
  <g transform="matrix(1.0, 0.0, 0.0, 1.0, -2.05, 35.15)">
    <path d="M20.95 -35.15 Q26.4 -35.1 30.65 -32.75 34.9 -30.4 37.35 -26.3 39.8 -22.25 39.85 -17.0 39.8 -11.75 37.35 -7.65 34.9 -3.55 30.65 -1.2 26.4 1.2 20.95 1.25 15.5 1.2 11.25 -1.2 7.0 -3.55 4.55 -7.65 2.1 -11.75 2.05 -17.0 2.1 -22.2 4.55 -26.3 7.0 -30.4 11.25 -32.75 15.5 -35.1 20.95 -35.15 M25.85 -25.25 Q23.65 -26.55 20.95 -26.55 18.25 -26.55 16.1 -25.25 13.95 -23.95 12.65 -21.8 11.35 -19.65 11.35 -17.0 11.35 -14.3 12.65 -12.15 13.95 -9.95 16.1 -8.65 18.25 -7.4 20.95 -7.35 23.65 -7.4 25.85 -8.65 28.0 -9.95 29.3 -12.15 30.55 -14.3 30.6 -17.0 30.55 -19.65 29.3 -21.8 28.0 -23.95 25.85 -25.25" fill="#000000" fill-rule="evenodd" stroke="none"/>
  </g>
</svg>
