<?xml version="1.0" encoding="UTF-8" standalone="no"?>
<svg xmlns:xlink="http://www.w3.org/1999/xlink" height="35.8px" width="26.15px" xmlns="http://www.w3.org/2000/svg">
  <g transform="matrix(1.0, 0.0, 0.0, 1.0, -2.05, 34.85)">
    <path d="M24.7 -25.35 Q22.8 -26.25 20.5 -26.25 17.8 -26.25 15.75 -25.05 13.7 -23.85 12.55 -21.7 11.35 -19.6 11.35 -16.85 11.35 -14.15 12.55 -12.1 13.7 -10.05 15.8 -8.85 17.85 -7.7 20.5 -7.65 22.7 -7.65 24.55 -8.55 26.45 -9.4 28.2 -11.25 L28.2 -0.75 24.8 0.3 22.5 0.8 20.35 0.95 Q15.15 0.9 11.05 -1.45 6.9 -3.8 4.5 -7.8 2.1 -11.8 2.05 -16.9 2.1 -21.95 4.5 -26.0 6.9 -30.05 11.0 -32.4 15.05 -34.8 20.15 -34.85 L23.95 -34.45 28.2 -33.1 28.2 -22.5 Q26.6 -24.4 24.7 -25.35" fill="#000000" fill-rule="evenodd" stroke="none"/>
  </g>
</svg>
