<?xml version="1.0" encoding="UTF-8" standalone="no"?>
<svg xmlns:xlink="http://www.w3.org/1999/xlink" height="36.45px" width="35.75px" xmlns="http://www.w3.org/2000/svg">
  <g transform="matrix(1.0, 0.0, 0.0, 1.0, -2.05, 35.2)">
    <path d="M20.6 -35.2 Q26.05 -35.2 29.8 -32.85 33.55 -30.5 35.95 -25.6 L27.5 -22.1 Q26.35 -24.85 24.55 -26.2 22.75 -27.55 20.2 -27.55 17.65 -27.5 15.65 -26.15 13.65 -24.75 12.5 -22.35 11.35 -19.95 11.35 -16.85 11.35 -13.65 12.5 -11.25 13.65 -8.85 15.7 -7.5 17.75 -6.1 20.45 -6.1 23.5 -6.1 25.25 -7.6 27.05 -9.05 27.45 -12.05 L20.2 -12.05 20.2 -18.95 37.8 -18.95 37.55 -14.4 36.9 -10.95 Q36.5 -9.4 35.8 -8.0 33.6 -3.45 29.65 -1.15 25.7 1.2 20.3 1.25 14.85 1.2 10.75 -1.05 6.7 -3.35 4.4 -7.4 2.1 -11.5 2.05 -16.9 2.1 -22.4 4.45 -26.5 6.75 -30.6 10.9 -32.9 15.05 -35.15 20.6 -35.2" fill="#000000" fill-rule="evenodd" stroke="none"/>
  </g>
</svg>
