<?xml version="1.0" encoding="UTF-8" standalone="no"?>
<svg xmlns:xlink="http://www.w3.org/1999/xlink" height="34.15px" width="29.9px" xmlns="http://www.w3.org/2000/svg">
  <g transform="matrix(1.0, 0.0, 0.0, 1.0, -3.6, 34.15)">
    <path d="M14.5 -26.6 L12.45 -26.6 12.45 -7.5 14.5 -7.5 Q19.0 -7.55 21.6 -10.15 24.2 -12.7 24.25 -17.1 24.2 -21.45 21.6 -24.0 19.0 -26.55 14.5 -26.6 M25.05 -31.75 Q28.85 -29.45 31.15 -25.6 33.45 -21.75 33.5 -17.1 33.45 -12.4 31.15 -8.55 28.85 -4.7 25.05 -2.35 21.3 -0.05 16.7 0.0 L3.6 0.0 3.6 -34.15 16.7 -34.15 Q21.3 -34.05 25.05 -31.75" fill="#000000" fill-rule="evenodd" stroke="none"/>
  </g>
</svg>
