<?xml version="1.0" encoding="UTF-8" standalone="no"?>
<svg xmlns:xlink="http://www.w3.org/1999/xlink" height="53.45px" width="46.05px" xmlns="http://www.w3.org/2000/svg">
  <g transform="matrix(1.0, 0.0, 0.0, 1.0, 24.9, -28.8)">
    <path d="M21.05 78.8 L20.95 82.25 -1.6 82.15 -1.25 32.4 21.15 29.9 16.65 71.65 16.4 77.2 21.05 78.8" fill="#0d0f0d" fill-rule="evenodd" stroke="none"/>
    <path d="M-2.05 31.6 L-4.1 50.1 -2.05 60.4 -2.2 69.1 -22.2 69.1 -23.5 65.75 -20.15 64.9 -20.45 60.2 -24.9 51.5 -23.6 28.8 -2.05 31.6" fill="#0d0f0d" fill-rule="evenodd" stroke="none"/>
    <path d="M20.1 32.75 L20.1 32.65 20.7 32.65 20.1 32.75" fill="#261817" fill-rule="evenodd" stroke="none"/>
    <path d="M20.1 32.65 L20.1 32.75 15.9 71.35 7.4 70.75 -1.05 71.35 -0.45 34.1 20.1 31.75 20.1 32.65 M1.35 73.2 L0.15 73.2 0.15 74.4 0.15 75.6 2.55 75.6 3.2 74.4 2.55 73.2 1.35 73.2 M6.95 74.35 L8.0 73.8 8.0 72.0 6.8 72.0 5.6 72.0 5.0 73.2 5.6 73.8 6.4 74.2 5.0 73.8 -1.05 78.65 -1.05 72.0 8.0 71.35 15.9 72.0 15.9 76.8 6.95 74.35 M13.45 73.2 L12.25 73.2 12.25 74.4 12.25 75.0 13.45 75.6 14.65 75.0 15.3 74.4 14.65 73.2 13.45 73.2 M4.4 75.0 L5.0 75.0 20.7 79.25 20.1 80.45 -1.05 79.85 -1.05 78.65 4.4 75.0 M20.1 81.05 L20.1 81.65 -1.05 81.65 -1.05 80.45 20.1 81.05" fill="#181e16" fill-rule="evenodd" stroke="none"/>
    <path d="M0.15 74.4 L0.15 73.2 1.35 73.2 0.15 74.4 0.75 75.0 1.95 75.0 1.95 74.4 2.55 74.4 1.35 73.2 2.55 73.2 3.2 74.4 2.55 75.6 0.15 75.6 0.15 74.4 M5.6 72.6 L5.6 73.8 7.4 73.8 7.4 72.6 6.8 72.0 5.6 72.6 M6.4 74.2 L5.6 73.8 5.0 73.2 5.6 72.0 6.8 72.0 8.0 72.0 8.0 73.8 6.95 74.35 6.8 74.4 6.4 74.2 M13.45 73.2 L14.65 73.2 15.3 74.4 14.65 75.0 13.45 75.6 12.25 75.0 12.25 74.4 12.25 73.2 13.45 73.2 12.25 74.4 12.85 75.0 14.05 75.0 14.05 74.4 14.65 74.4 13.45 73.2" fill="#0d0f0d" fill-rule="evenodd" stroke="none"/>
    <path d="M0.15 74.4 L1.35 73.2 2.55 74.4 1.95 74.4 1.95 75.0 0.75 75.0 0.15 74.4 M5.6 72.6 L6.8 72.0 7.4 72.6 7.4 73.8 5.6 73.8 5.6 72.6 M13.45 73.2 L14.65 74.4 14.05 74.4 14.05 75.0 12.85 75.0 12.25 74.4 13.45 73.2" fill="#608051" fill-rule="evenodd" stroke="none"/>
    <path d="M-23.2 32.65 L-23.2 32.7 -23.8 32.65 -23.2 32.65" fill="#261817" fill-rule="evenodd" stroke="none"/>
    <path d="M-3.05 33.45 L-4.7 50.1 -3.0 60.0 -11.5 59.3 -19.95 60.0 -24.0 51.5 -23.0 31.1 -3.05 33.45 M-10.3 60.7 L-11.5 60.7 -11.5 62.55 -10.3 63.15 -9.1 62.55 -8.5 61.9 -9.1 60.7 -10.3 60.7 M-11.55 60.1 L-2.45 60.7 -2.45 66.85 -8.5 63.8 -19.4 65.05 -19.4 60.7 -11.55 60.1 M-16.95 61.9 L-18.15 61.9 -18.8 63.15 -18.15 63.75 -16.95 64.35 -15.75 63.75 -15.75 63.15 -15.75 61.9 -16.95 61.9 M-3.65 63.15 L-3.65 61.9 -4.85 61.9 -6.1 61.9 -6.7 63.15 -6.1 64.35 -3.65 64.35 -3.65 63.15 M-2.65 66.85 L-2.35 69.1 -21.3 69.1 -22.2 65.95 -8.75 64.2 -2.65 66.85" fill="#181e16" fill-rule="evenodd" stroke="none"/>
    <path d="M-10.3 60.7 L-10.9 61.3 -10.9 62.55 -9.1 62.55 -10.3 63.15 -11.5 62.55 -11.5 60.7 -10.3 60.7 -9.1 60.7 -8.5 61.9 -9.1 62.55 -9.1 61.3 -10.3 60.7 M-16.95 61.9 L-18.15 63.15 -17.55 63.15 -17.55 63.75 -16.35 63.75 -15.75 63.15 -16.95 61.9 -15.75 61.9 -15.75 63.15 -15.75 63.75 -16.95 64.35 -18.15 63.75 -18.8 63.15 -18.15 61.9 -16.95 61.9 M-3.65 63.15 L-4.85 61.9 -6.1 63.15 -5.45 63.15 -5.45 63.75 -4.25 63.75 -3.65 63.15 -3.65 64.35 -6.1 64.35 -6.7 63.15 -6.1 61.9 -4.85 61.9 -3.65 61.9 -3.65 63.15" fill="#0d0f0d" fill-rule="evenodd" stroke="none"/>
    <path d="M-9.1 62.55 L-10.9 62.55 -10.9 61.3 -10.3 60.7 -9.1 61.3 -9.1 62.55 M-16.95 61.9 L-15.75 63.15 -16.35 63.75 -17.55 63.75 -17.55 63.15 -18.15 63.15 -16.95 61.9 M-3.65 63.15 L-4.25 63.75 -5.45 63.75 -5.45 63.15 -6.1 63.15 -4.85 61.9 -3.65 63.15" fill="#608051" fill-rule="evenodd" stroke="none"/>
  </g>
</svg>
