<?xml version="1.0" encoding="UTF-8" standalone="no"?>
<svg xmlns:xlink="http://www.w3.org/1999/xlink" height="24.95px" width="27.9px" xmlns="http://www.w3.org/2000/svg">
  <g transform="matrix(1.0, 0.0, 0.0, 1.0, -1.9, 24.05)">
    <path d="M3.7 -18.05 Q5.5 -20.85 8.6 -22.45 11.75 -24.05 15.9 -24.05 20.0 -24.05 23.1 -22.45 26.25 -20.85 28.0 -18.05 29.8 -15.3 29.8 -11.6 29.8 -7.9 28.0 -5.1 26.25 -2.3 23.1 -0.75 20.0 0.85 15.9 0.9 11.75 0.85 8.6 -0.75 5.5 -2.3 3.7 -5.1 1.95 -7.9 1.9 -11.6 1.95 -15.3 3.7 -18.05 M15.9 -17.0 Q13.6 -16.95 12.1 -15.45 10.6 -13.95 10.55 -11.65 10.6 -9.4 12.1 -7.9 13.6 -6.4 15.9 -6.35 18.15 -6.4 19.6 -7.9 21.1 -9.4 21.15 -11.65 21.1 -13.95 19.6 -15.45 18.15 -16.95 15.9 -17.0" fill="#000000" fill-rule="evenodd" stroke="none"/>
  </g>
</svg>
