<?xml version="1.0" encoding="UTF-8" standalone="no"?>
<svg xmlns:xlink="http://www.w3.org/1999/xlink" height="23.7px" width="24.5px" xmlns="http://www.w3.org/2000/svg">
  <g transform="matrix(1.0, 0.0, 0.0, 1.0, -2.8, 23.7)">
    <path d="M11.0 -20.3 Q12.6 -22.2 14.3 -22.95 16.05 -23.75 18.55 -23.7 20.65 -23.7 22.3 -23.05 23.95 -22.4 25.15 -21.15 26.35 -20.0 26.85 -18.55 27.35 -17.1 27.3 -14.75 L27.3 0.0 19.1 0.0 19.1 -11.75 19.1 -13.55 18.95 -14.6 18.6 -15.4 Q18.2 -16.25 17.3 -16.7 L15.3 -17.2 Q13.25 -17.2 12.15 -15.95 11.0 -14.75 11.0 -12.45 L11.0 0.0 2.8 0.0 2.8 -23.2 11.0 -23.2 11.0 -20.3" fill="#000000" fill-rule="evenodd" stroke="none"/>
  </g>
</svg>
