<?xml version="1.0" encoding="UTF-8" standalone="no"?>
<svg xmlns:xlink="http://www.w3.org/1999/xlink" height="24.75px" width="27.1px" xmlns="http://www.w3.org/2000/svg">
  <g transform="matrix(1.0, 0.0, 0.0, 1.0, -1.9, 23.95)">
    <path d="M13.6 -23.95 Q15.8 -23.95 17.55 -23.25 19.3 -22.5 20.8 -20.95 L20.8 -23.2 29.0 -23.2 29.0 0.0 20.8 0.0 20.8 -2.55 Q19.45 -0.8 17.7 0.0 15.95 0.8 13.65 0.8 10.3 0.75 7.65 -0.9 5.0 -2.5 3.5 -5.3 1.95 -8.1 1.9 -11.6 1.95 -15.15 3.45 -17.95 5.0 -20.7 7.6 -22.3 10.25 -23.95 13.6 -23.95 M15.8 -16.9 Q13.5 -16.85 12.0 -15.35 10.5 -13.85 10.45 -11.6 10.5 -9.35 12.05 -7.85 13.55 -6.35 15.8 -6.3 18.0 -6.35 19.5 -7.85 21.0 -9.3 21.05 -11.55 21.0 -13.85 19.5 -15.35 18.0 -16.85 15.8 -16.9" fill="#000000" fill-rule="evenodd" stroke="none"/>
  </g>
</svg>
