<?xml version="1.0" encoding="UTF-8" standalone="no"?>
<svg xmlns:xlink="http://www.w3.org/1999/xlink" height="24.9px" width="20.3px" xmlns="http://www.w3.org/2000/svg">
  <g transform="matrix(1.0, 0.0, 0.0, 1.0, -1.4, 24.0)">
    <path d="M18.25 -17.2 Q17.1 -17.8 15.95 -18.05 L13.75 -18.35 Q12.7 -18.3 12.0 -17.85 11.3 -17.4 11.3 -16.7 11.25 -16.15 11.5 -15.85 11.75 -15.55 12.55 -15.3 L14.95 -14.7 Q18.45 -14.0 20.1 -12.3 21.7 -10.6 21.7 -7.75 21.7 -5.15 20.35 -3.2 19.0 -1.25 16.5 -0.2 14.05 0.85 10.65 0.9 8.25 0.9 5.95 0.2 3.65 -0.45 1.4 -1.8 L4.35 -7.55 Q6.0 -6.5 7.75 -5.85 9.45 -5.2 10.95 -5.2 12.05 -5.2 12.75 -5.7 13.45 -6.2 13.45 -7.0 13.5 -7.85 12.8 -8.3 L10.0 -9.15 Q6.3 -9.9 4.7 -11.4 3.15 -12.9 3.2 -15.7 3.25 -19.55 6.0 -21.75 8.75 -23.95 13.5 -24.0 L17.35 -23.65 21.0 -22.55 18.25 -17.2" fill="#000000" fill-rule="evenodd" stroke="none"/>
  </g>
</svg>
