<?xml version="1.0" encoding="UTF-8" standalone="no"?>
<svg xmlns:xlink="http://www.w3.org/1999/xlink" height="25.9px" width="10.6px" xmlns="http://www.w3.org/2000/svg">
  <g transform="matrix(1.0, 0.0, 0.0, 1.0, -2.45, 24.9)">
    <path d="M11.5 -23.35 Q10.05 -24.85 7.8 -24.9 5.5 -24.85 4.0 -23.35 2.5 -21.9 2.45 -19.65 2.5 -17.35 4.0 -15.85 5.5 -14.35 7.8 -14.3 10.05 -14.35 11.5 -15.85 13.0 -17.35 13.05 -19.65 13.0 -21.9 11.5 -23.35 M4.0 -0.55 Q5.5 0.95 7.8 1.0 10.05 0.95 11.5 -0.55 13.0 -2.05 13.05 -4.35 13.0 -6.6 11.5 -8.05 10.05 -9.55 7.8 -9.6 5.5 -9.55 4.0 -8.05 2.5 -6.6 2.45 -4.35 2.5 -2.05 4.0 -0.55" fill="#000000" fill-rule="evenodd" stroke="none"/>
  </g>
</svg>
