<?xml version="1.0" encoding="UTF-8" standalone="no"?>
<svg xmlns:xlink="http://www.w3.org/1999/xlink" height="24.7px" width="18.45px" xmlns="http://www.w3.org/2000/svg">
  <g transform="matrix(1.0, 0.0, 0.0, 1.0, -1.9, 23.9)">
    <path d="M18.2 -16.8 L16.1 -17.15 Q13.6 -17.1 12.05 -15.6 10.5 -14.05 10.45 -11.6 10.5 -9.05 12.05 -7.5 13.6 -5.95 16.2 -5.9 L18.35 -6.3 Q19.35 -6.7 20.35 -7.45 L20.35 -0.5 Q18.8 0.2 17.45 0.5 L14.55 0.8 Q11.0 0.75 8.15 -0.85 5.3 -2.45 3.6 -5.2 1.95 -7.95 1.9 -11.4 1.95 -15.05 3.6 -17.85 5.3 -20.7 8.2 -22.3 11.1 -23.9 14.9 -23.9 L17.7 -23.6 20.35 -22.65 20.35 -15.65 Q19.15 -16.5 18.2 -16.8" fill="#000000" fill-rule="evenodd" stroke="none"/>
  </g>
</svg>
