<?xml version="1.0" encoding="UTF-8" standalone="no"?>
<svg xmlns:xlink="http://www.w3.org/1999/xlink" height="38.05px" width="16.9px" xmlns="http://www.w3.org/2000/svg">
  <g transform="matrix(1.0, 0.0, 0.0, 1.0, -0.55, 38.05)">
    <path d="M15.65 -37.85 L17.45 -37.15 17.45 -30.05 15.85 -30.7 14.6 -30.85 Q13.75 -30.85 13.05 -30.4 12.3 -30.0 12.0 -29.35 11.8 -28.95 11.75 -28.2 L11.7 -26.1 11.7 -23.2 17.45 -23.2 17.45 -16.4 11.7 -16.4 11.7 0.0 3.5 0.0 3.5 -16.4 0.55 -16.4 0.55 -23.2 3.5 -23.2 3.5 -26.7 Q3.45 -29.6 4.1 -31.4 4.75 -33.25 6.25 -34.75 7.8 -36.35 9.75 -37.2 11.7 -38.05 13.85 -38.05 L15.65 -37.85" fill="#000000" fill-rule="evenodd" stroke="none"/>
  </g>
</svg>
