<?xml version="1.0" encoding="UTF-8" standalone="no"?>
<svg xmlns:xlink="http://www.w3.org/1999/xlink" height="38.35px" width="27.1px" xmlns="http://www.w3.org/2000/svg">
  <g transform="matrix(1.0, 0.0, 0.0, 1.0, -2.8, 37.55)">
    <path d="M16.1 -16.9 Q13.8 -16.85 12.3 -15.35 10.8 -13.85 10.75 -11.55 10.8 -9.3 12.3 -7.85 13.85 -6.35 16.1 -6.3 18.35 -6.35 19.8 -7.85 21.3 -9.35 21.35 -11.6 21.3 -13.85 19.8 -15.35 18.35 -16.85 16.1 -16.9 M2.8 -37.55 L11.0 -37.55 11.0 -20.95 Q12.55 -22.5 14.3 -23.25 16.05 -23.95 18.25 -23.95 21.55 -23.95 24.2 -22.3 26.85 -20.7 28.35 -17.95 29.9 -15.15 29.9 -11.6 29.9 -8.1 28.35 -5.3 26.8 -2.5 24.15 -0.9 21.5 0.75 18.2 0.8 15.85 0.8 14.1 0.0 12.35 -0.8 11.0 -2.55 L11.0 0.0 2.8 0.0 2.8 -37.55" fill="#000000" fill-rule="evenodd" stroke="none"/>
  </g>
</svg>
