<?xml version="1.0" encoding="UTF-8" standalone="no"?>
<svg xmlns:xlink="http://www.w3.org/1999/xlink" height="34.15px" width="28.35px" xmlns="http://www.w3.org/2000/svg">
  <g transform="matrix(1.0, 0.0, 0.0, 1.0, -3.6, 34.15)">
    <path d="M18.1 -26.2 Q16.7 -27.3 14.1 -27.35 L12.45 -27.35 12.45 -18.85 14.1 -18.85 Q16.7 -18.85 18.15 -19.95 19.55 -21.05 19.55 -23.1 19.55 -25.1 18.1 -26.2 M25.75 -31.1 Q27.15 -29.65 27.9 -27.7 28.65 -25.75 28.7 -23.6 28.65 -19.75 26.75 -17.3 24.85 -14.85 21.2 -13.95 L31.95 0.0 20.9 0.0 12.45 -13.1 12.45 0.0 3.6 0.0 3.6 -34.15 17.35 -34.15 Q20.25 -34.15 22.3 -33.4 24.3 -32.7 25.75 -31.1" fill="#000000" fill-rule="evenodd" stroke="none"/>
  </g>
</svg>
