<?xml version="1.0" encoding="UTF-8" standalone="no"?>
<svg xmlns:xlink="http://www.w3.org/1999/xlink" height="35.3px" width="25.5px" xmlns="http://www.w3.org/2000/svg">
  <g transform="matrix(1.0, 0.0, 0.0, 1.0, -2.35, 34.15)">
    <path d="M25.35 -34.15 L25.35 -26.6 13.55 -26.6 12.95 -22.85 14.45 -23.0 15.65 -23.05 Q19.2 -23.0 21.95 -21.45 24.65 -19.95 26.25 -17.25 27.85 -14.6 27.85 -11.2 27.85 -7.35 26.1 -4.6 24.4 -1.85 21.15 -0.35 17.95 1.1 13.5 1.15 10.35 1.15 7.65 0.4 4.9 -0.4 2.35 -2.0 L3.7 -10.3 Q6.15 -8.2 8.4 -7.25 10.65 -6.3 13.0 -6.3 15.5 -6.35 17.05 -7.75 18.65 -9.15 18.7 -11.4 18.65 -14.0 16.55 -15.55 14.5 -17.1 11.1 -17.15 L7.9 -16.8 4.6 -15.75 7.6 -34.15 25.35 -34.15" fill="#000000" fill-rule="evenodd" stroke="none"/>
  </g>
</svg>
