<?xml version="1.0" encoding="UTF-8" standalone="no"?>
<svg xmlns:xlink="http://www.w3.org/1999/xlink" height="36.7px" width="28.9px" xmlns="http://www.w3.org/2000/svg">
  <g transform="matrix(1.0, 0.0, 0.0, 1.0, -0.9, 35.4)">
    <path d="M15.4 -27.5 Q13.65 -27.45 12.4 -26.15 11.1 -24.8 10.4 -22.45 9.7 -20.1 9.7 -17.0 9.7 -13.85 10.4 -11.5 11.1 -9.15 12.4 -7.85 13.65 -6.5 15.4 -6.5 17.05 -6.5 18.3 -7.85 19.6 -9.15 20.3 -11.5 21.0 -13.85 21.0 -17.0 21.0 -20.1 20.3 -22.45 19.6 -24.8 18.3 -26.15 17.05 -27.45 15.4 -27.5 M22.95 -33.1 Q26.2 -30.8 28.0 -26.7 29.8 -22.6 29.8 -17.1 29.8 -11.55 28.0 -7.45 26.2 -3.3 22.95 -1.05 19.75 1.25 15.4 1.3 11.0 1.25 7.75 -1.05 4.5 -3.3 2.7 -7.45 0.9 -11.55 0.9 -17.1 0.9 -22.6 2.7 -26.7 4.55 -30.8 7.75 -33.1 11.0 -35.4 15.4 -35.4 19.75 -35.4 22.95 -33.1" fill="#000000" fill-rule="evenodd" stroke="none"/>
  </g>
</svg>
