<?xml version="1.0" encoding="UTF-8" standalone="no"?>
<svg xmlns:xlink="http://www.w3.org/1999/xlink" height="35.6px" width="27.1px" xmlns="http://www.w3.org/2000/svg">
  <g transform="matrix(1.0, 0.0, 0.0, 1.0, -2.8, 23.95)">
    <path d="M11.0 -23.2 L11.0 -20.65 Q12.35 -22.35 14.1 -23.15 15.85 -23.95 18.2 -23.95 21.5 -23.9 24.15 -22.3 26.8 -20.65 28.35 -17.85 29.9 -15.1 29.9 -11.55 29.9 -8.05 28.35 -5.25 26.85 -2.5 24.2 -0.85 21.55 0.75 18.25 0.8 16.05 0.8 14.3 0.05 12.55 -0.65 11.0 -2.25 L11.0 11.65 2.8 11.65 2.8 -23.2 11.0 -23.2 M16.1 -16.9 Q13.8 -16.85 12.3 -15.35 10.8 -13.85 10.75 -11.6 10.8 -9.35 12.3 -7.85 13.85 -6.35 16.1 -6.3 18.35 -6.35 19.8 -7.85 21.3 -9.35 21.35 -11.6 21.3 -13.85 19.8 -15.35 18.35 -16.85 16.1 -16.9" fill="#000000" fill-rule="evenodd" stroke="none"/>
  </g>
</svg>
