<?xml version="1.0" encoding="UTF-8" standalone="no"?>
<svg xmlns:xlink="http://www.w3.org/1999/xlink" height="37.7px" width="36.05px" xmlns="http://www.w3.org/2000/svg">
  <g transform="matrix(1.0, 0.0, 0.0, 1.0, -1.05, 35.8)">
    <path d="M14.8 -18.2 Q17.95 -18.35 19.5 -19.35 21.0 -20.3 21.0 -21.45 20.95 -22.6 19.35 -23.3 L14.55 -23.5 14.65 -20.75 14.8 -18.2 M27.4 -34.05 Q30.4 -32.8 32.35 -30.4 34.35 -28.0 34.75 -24.15 34.9 -22.6 34.4 -20.7 33.95 -18.8 32.65 -16.8 31.4 -14.8 29.1 -13.0 L33.0 -8.55 35.95 -4.95 37.1 -3.5 29.9 -0.9 24.8 1.1 22.85 1.9 19.85 -1.85 17.2 -5.45 15.35 -8.05 15.6 -3.6 15.85 0.1 15.95 1.65 10.6 1.5 5.9 1.3 2.6 1.15 1.35 1.1 Q1.15 -4.15 1.1 -10.0 L1.05 -21.8 1.05 -33.3 6.6 -34.7 13.5 -35.65 Q17.15 -35.95 20.75 -35.6 24.35 -35.25 27.4 -34.05" fill="#000000" fill-rule="evenodd" stroke="none"/>
  </g>
</svg>
