<?xml version="1.0" encoding="UTF-8" standalone="no"?>
<svg xmlns:xlink="http://www.w3.org/1999/xlink" height="35.95px" width="41.25px" xmlns="http://www.w3.org/2000/svg">
  <g transform="matrix(1.0, 0.0, 0.0, 1.0, -0.9, 35.0)">
    <path d="M22.05 -35.0 Q29.45 -34.85 34.55 -31.8 39.65 -28.7 42.15 -22.9 L36.05 -21.45 30.7 -20.0 26.95 -18.9 25.5 -18.45 Q24.75 -20.3 23.4 -21.05 22.0 -21.8 20.55 -21.55 19.05 -21.35 18.05 -20.15 17.0 -19.0 16.95 -17.0 17.0 -15.1 18.0 -14.0 18.95 -12.95 20.45 -12.65 L23.4 -12.9 Q24.9 -13.5 25.9 -14.95 L31.55 -13.65 36.8 -12.05 40.65 -10.7 42.15 -10.15 Q41.0 -7.05 38.1 -4.5 35.25 -2.0 30.9 -0.5 26.55 0.95 20.95 0.95 15.2 0.85 10.65 -1.25 6.1 -3.3 3.5 -7.3 0.9 -11.3 0.9 -17.15 0.95 -21.5 2.75 -24.85 4.55 -28.2 7.55 -30.5 10.55 -32.75 14.3 -33.9 18.05 -35.05 22.05 -35.0" fill="#000000" fill-rule="evenodd" stroke="none"/>
  </g>
</svg>
