<?xml version="1.0" encoding="UTF-8" standalone="no"?>
<svg xmlns:xlink="http://www.w3.org/1999/xlink" height="55.3px" width="47.2px" xmlns="http://www.w3.org/2000/svg">
  <g transform="matrix(1.0, 0.0, 0.0, 1.0, 24.2, -28.8)">
    <path d="M1.25 30.0 L22.3 28.8 22.1 55.4 18.45 65.7 18.55 70.7 23.0 72.95 21.7 76.3 5.0 76.7 0.65 75.25 0.45 65.9 1.6 54.6 1.25 30.0" fill="#0d0f0d" fill-rule="evenodd" stroke="none"/>
    <path d="M-2.15 30.0 L-1.55 79.65 -6.2 84.1 -17.35 83.65 Q-19.95 81.9 -22.6 80.1 L-23.9 76.75 -19.45 74.5 -19.35 69.5 -24.2 28.8 -2.15 30.0" fill="#0d0f0d" fill-rule="evenodd" stroke="none"/>
    <path d="M1.45 32.25 L22.0 29.9 21.4 55.5 18.15 65.0 9.7 64.4 1.2 65.0 2.1 54.1 1.45 32.25 M8.85 65.5 L7.65 65.5 7.0 66.7 7.65 67.35 8.85 67.95 10.05 67.35 10.05 65.5 8.85 65.5 M2.2 67.95 L2.2 69.15 4.6 69.15 5.2 67.95 4.6 66.7 3.4 66.7 2.2 66.7 2.2 67.95 M1.9 72.35 L8.0 69.7 17.85 71.25 22.15 72.95 21.25 75.4 5.25 75.75 1.6 74.8 1.9 72.35 M7.0 69.1 Q4.0 70.65 0.95 72.15 L0.95 65.5 10.05 64.9 17.9 65.5 17.9 70.35 7.0 69.1 M14.3 67.95 L14.3 68.55 15.5 69.15 16.7 68.55 17.3 67.95 16.7 66.7 15.5 66.7 14.3 66.7 14.3 67.95" fill="#181e16" fill-rule="evenodd" stroke="none"/>
    <path d="M7.65 67.35 L7.0 66.7 7.65 65.5 8.85 65.5 7.65 66.1 7.65 67.35 9.45 67.35 9.45 66.1 8.85 65.5 10.05 65.5 10.05 67.35 8.85 67.95 7.65 67.35 M2.2 67.95 L2.8 68.55 4.0 68.55 4.0 67.95 4.6 67.95 3.4 66.7 2.2 67.95 2.2 66.7 3.4 66.7 4.6 66.7 5.2 67.95 4.6 69.15 2.2 69.15 2.2 67.95 M15.5 66.7 L16.7 66.7 17.3 67.95 16.7 68.55 15.5 69.15 14.3 68.55 14.3 67.95 14.9 68.55 16.1 68.55 16.1 67.95 16.7 67.95 15.5 66.7 14.3 67.95 14.3 66.7 15.5 66.7" fill="#0d0f0d" fill-rule="evenodd" stroke="none"/>
    <path d="M7.65 67.35 L7.65 66.1 8.85 65.5 9.45 66.1 9.45 67.35 7.65 67.35 M2.2 67.95 L3.4 66.7 4.6 67.95 4.0 67.95 4.0 68.55 2.8 68.55 2.2 67.95 M15.5 66.7 L16.7 67.95 16.1 67.95 16.1 68.55 14.9 68.55 14.3 67.95 15.5 66.7" fill="#608051" fill-rule="evenodd" stroke="none"/>
    <path d="M-2.55 32.25 L-1.9 69.0 -10.4 68.4 -18.85 69.0 -23.1 29.9 -2.55 32.25 M-15.35 70.6 L-16.55 70.6 -17.75 70.6 -18.4 71.85 -17.75 72.45 -16.55 73.05 -15.35 72.45 -15.35 71.85 -15.35 70.6 M-9.9 69.4 L-11.1 69.4 -11.1 71.25 -9.9 71.85 -8.7 71.25 -8.1 70.6 -8.7 69.4 -9.9 69.4 M-11.15 68.8 L-2.05 69.4 -2.05 76.05 -8.1 73.0 -19.0 74.25 -19.0 69.4 -11.15 68.8 M-4.45 70.6 L-5.7 70.6 -6.3 71.85 -5.7 73.05 -3.25 73.05 -3.25 71.85 -3.25 70.6 -4.45 70.6 M-23.2 76.85 L-18.9 75.15 -9.1 73.6 -2.95 76.25 -2.65 79.9 -6.35 83.55 -17.4 83.1 -22.3 79.3 -23.2 76.85" fill="#181e16" fill-rule="evenodd" stroke="none"/>
    <path d="M-15.35 70.6 L-15.35 71.85 -15.35 72.45 -16.55 73.05 -17.75 72.45 -18.4 71.85 -17.75 70.6 -16.55 70.6 -15.35 70.6 M-15.35 71.85 L-16.55 70.6 -17.75 71.85 -17.15 71.85 -17.15 72.45 -15.95 72.45 -15.35 71.85 M-9.9 69.4 L-10.5 70.0 -10.5 71.25 -8.7 71.25 -9.9 71.85 -11.1 71.25 -11.1 69.4 -9.9 69.4 -8.7 69.4 -8.1 70.6 -8.7 71.25 -8.7 70.0 -9.9 69.4 M-3.25 71.85 L-3.25 73.05 -5.7 73.05 -6.3 71.85 -5.7 70.6 -4.45 70.6 -5.7 71.85 -5.05 71.85 -5.05 72.45 -3.85 72.45 -3.25 71.85 -4.45 70.6 -3.25 70.6 -3.25 71.85" fill="#0d0f0d" fill-rule="evenodd" stroke="none"/>
    <path d="M-15.35 71.85 L-15.95 72.45 -17.15 72.45 -17.15 71.85 -17.75 71.85 -16.55 70.6 -15.35 71.85 M-8.7 71.25 L-10.5 71.25 -10.5 70.0 -9.9 69.4 -8.7 70.0 -8.7 71.25 M-3.25 71.85 L-3.85 72.45 -5.05 72.45 -5.05 71.85 -5.7 71.85 -4.45 70.6 -3.25 71.85" fill="#608051" fill-rule="evenodd" stroke="none"/>
  </g>
</svg>
