<?xml version="1.0" encoding="UTF-8" standalone="no"?>
<svg xmlns:xlink="http://www.w3.org/1999/xlink" height="34.15px" width="26.0px" xmlns="http://www.w3.org/2000/svg">
  <g transform="matrix(1.0, 0.0, 0.0, 1.0, -3.6, 34.15)">
    <path d="M14.25 -14.05 L12.45 -14.05 12.45 -6.9 14.4 -6.9 Q17.65 -6.9 19.15 -7.75 20.7 -8.6 20.65 -10.4 20.65 -11.45 20.2 -12.2 L18.95 -13.45 17.95 -13.85 16.55 -14.0 14.25 -14.05 M17.2 -26.55 Q16.15 -27.4 14.1 -27.4 L12.45 -27.4 12.45 -20.65 14.1 -20.65 Q16.15 -20.65 17.2 -21.55 18.25 -22.4 18.25 -24.05 18.25 -25.65 17.2 -26.55 M23.9 -31.85 Q26.35 -29.6 26.4 -25.25 26.4 -22.7 25.5 -21.0 24.65 -19.3 22.65 -18.15 26.25 -17.5 27.95 -15.45 29.65 -13.4 29.6 -9.8 29.55 -5.15 26.5 -2.6 23.4 -0.05 17.85 0.0 L3.6 0.0 3.6 -34.15 16.75 -34.15 Q21.45 -34.1 23.9 -31.85" fill="#000000" fill-rule="evenodd" stroke="none"/>
  </g>
</svg>
