<?xml version="1.0" encoding="UTF-8" standalone="no"?>
<svg xmlns:xlink="http://www.w3.org/1999/xlink" height="48.25px" width="11.5px" xmlns="http://www.w3.org/2000/svg">
  <g transform="matrix(1.0, 0.0, 0.0, 1.0, -3.45, 38.95)">
    <path d="M10.0 -38.95 L14.95 -36.15 Q12.35 -31.65 11.05 -26.35 9.75 -21.0 9.75 -14.85 9.75 -10.8 10.4 -6.85 11.05 -2.9 12.2 0.55 13.4 4.0 14.95 6.45 L10.0 9.3 7.5 5.1 Q6.55 3.15 5.8 0.75 4.65 -3.05 4.05 -7.2 3.45 -11.35 3.45 -15.25 3.45 -19.7 4.25 -24.0 5.0 -28.3 6.45 -32.1 7.95 -35.95 10.0 -38.95" fill="#000000" fill-rule="evenodd" stroke="none"/>
  </g>
</svg>
