<?xml version="1.0" encoding="UTF-8" standalone="no"?>
<svg xmlns:xlink="http://www.w3.org/1999/xlink" height="35.95px" width="26.05px" xmlns="http://www.w3.org/2000/svg">
  <g transform="matrix(1.0, 0.0, 0.0, 1.0, -2.3, 35.05)">
    <path d="M15.4 -14.35 L15.35 -14.35 Q13.65 -14.35 12.45 -13.15 11.3 -12.0 11.25 -10.3 11.3 -8.55 12.45 -7.4 13.65 -6.25 15.35 -6.2 17.05 -6.25 18.2 -7.4 19.35 -8.55 19.4 -10.3 19.35 -12.0 18.25 -13.15 17.1 -14.35 15.4 -14.35 M15.4 -29.1 Q13.75 -29.05 12.7 -28.0 11.65 -26.95 11.6 -25.4 11.65 -23.75 12.7 -22.7 13.75 -21.65 15.4 -21.6 16.95 -21.65 18.0 -22.7 19.05 -23.75 19.1 -25.4 19.05 -26.95 18.0 -28.0 16.95 -29.05 15.4 -29.1 M21.55 -33.85 Q24.15 -32.65 25.55 -30.45 26.95 -28.3 27.0 -25.35 27.0 -22.8 25.75 -21.1 24.45 -19.4 21.4 -17.95 24.95 -16.6 26.65 -14.45 28.35 -12.25 28.35 -9.2 28.35 -6.3 26.65 -4.05 24.95 -1.75 22.05 -0.45 19.15 0.85 15.4 0.9 11.6 0.85 8.65 -0.45 5.7 -1.75 4.05 -4.0 2.35 -6.25 2.3 -9.2 2.3 -12.35 3.95 -14.5 5.6 -16.65 9.05 -17.95 L9.1 -17.95 Q6.45 -19.1 5.1 -21.0 3.7 -22.85 3.7 -25.4 3.75 -28.25 5.2 -30.45 6.65 -32.6 9.25 -33.8 11.9 -35.05 15.45 -35.05 18.95 -35.05 21.55 -33.85" fill="#000000" fill-rule="evenodd" stroke="none"/>
  </g>
</svg>
