<?xml version="1.0" encoding="UTF-8" standalone="no"?>
<svg xmlns:xlink="http://www.w3.org/1999/xlink" height="103.45px" width="102.2px" xmlns="http://www.w3.org/2000/svg">
  <g transform="matrix(1.0, 0.0, 0.0, 1.0, 53.05, 55.25)">
    <path d="M15.9 -55.25 L16.5 -55.25 18.9 -49.2 18.25 -48.85 46.75 -31.05 46.1 -29.85 49.15 -6.85 42.5 30.05 41.3 30.05 40.7 33.65 39.45 33.65 42.5 38.5 31.6 48.2 23.75 40.9 24.95 39.1 24.35 34.25 24.95 34.25 28.6 31.85 28.0 28.2 26.75 27.6 29.2 14.3 26.15 2.2 20.1 7.65 21.95 28.8 -0.4 32.25 -3.55 31.85 -4.7 31.85 -4.7 31.7 -25.85 28.8 -24.05 7.65 -30.1 2.2 -33.1 14.3 -30.7 27.6 -31.9 28.2 -31.9 31.85 -28.9 34.25 -28.25 34.25 -28.9 39.1 -27.05 40.9 -35.55 48.2 -46.4 38.5 -42.8 33.65 -44.0 33.65 -44.6 30.05 -46.4 30.05 -53.05 -6.85 -49.45 -29.85 -50.05 -31.05 -20.85 -48.8 -21.6 -49.2 -19.2 -55.25 -18.6 -55.25 -1.05 -49.0 15.9 -55.25 M17.7 -49.8 L15.3 -53.45 -0.3 -48.05 -0.4 -47.9 4.4 -41.95 5.0 -41.95 17.7 -49.8 M22.55 -44.35 L22.55 -43.15 23.15 -42.55 23.75 -43.15 23.75 -43.75 24.35 -43.75 23.75 -44.35 24.15 -44.35 22.55 -45.55 22.3 -44.15 22.55 -44.35 M22.55 -37.7 L23.15 -37.7 23.15 -37.1 23.75 -36.5 22.55 -35.3 21.3 -35.9 20.7 -36.5 21.3 -37.1 22.55 -37.7 M23.15 -42.55 L22.55 -42.55 22.2 -43.25 21.3 -37.7 15.45 -36.35 15.9 -35.9 15.9 -35.3 15.9 -34.7 24.35 -34.7 24.35 -42.55 23.15 -42.55 M20.7 -38.3 L21.95 -45.55 17.7 -48.0 0.15 -20.15 15.9 -31.05 13.6 -35.15 13.45 -35.3 13.5 -35.35 12.85 -36.5 20.7 -38.3 M22.55 -36.5 L23.15 -36.5 22.55 -37.1 21.95 -37.1 21.3 -36.5 21.95 -35.9 22.55 -35.9 22.55 -36.5 M0.15 28.8 L0.15 29.45 0.1 29.45 0.15 30.95 20.7 28.8 18.9 7.65 41.3 -32.85 40.7 -32.85 25.55 -42.55 25.55 -34.1 18.3 -34.1 21.95 -30.45 -0.45 -14.95 0.05 25.4 0.15 26.4 17.7 24.8 0.1 26.95 0.1 28.15 0.15 28.2 0.15 28.8 0.1 28.8 0.15 28.8 M1.7 -39.5 L1.95 -39.5 5.7 -30.35 17.0 -48.15 3.8 -40.75 3.05 -41.7 1.7 -39.5 M0.15 -39.5 L2.55 -41.95 -1.25 -46.9 -3.65 -44.1 -5.3 -41.35 -3.45 -38.9 0.15 -39.5 M9.25 -25.0 L9.25 -25.6 10.45 -26.2 11.05 -26.2 11.05 -25.6 9.85 -25.6 9.25 -25.0 9.85 -24.4 11.05 -24.4 11.05 -25.6 11.65 -25.0 10.75 -24.1 18.45 -29.85 17.7 -29.85 17.1 -29.85 16.5 -30.45 17.1 -31.65 17.7 -31.65 18.9 -31.65 19.45 -30.6 20.1 -31.05 15.9 -34.7 14.65 -34.1 14.5 -34.25 16.5 -31.05 -1.05 -18.35 -1.05 -15.35 10.35 -23.8 9.25 -24.4 9.25 -25.0 M0.75 -31.05 L0.15 -29.85 -1.65 -29.25 -2.85 -29.85 -3.45 -31.05 -2.85 -31.65 -1.65 -32.25 -1.05 -32.25 0.15 -31.65 0.75 -31.05 M14.05 -35.9 L14.05 -34.7 15.3 -34.7 15.3 -35.3 15.9 -35.3 15.3 -35.9 14.05 -35.9 14.25 -36.05 13.45 -35.9 13.7 -35.5 14.05 -35.9 M17.7 -29.85 L18.3 -30.45 18.9 -30.45 17.7 -31.65 17.7 -31.05 17.1 -30.45 17.7 -30.45 17.7 -29.85 M4.4 -29.85 L0.15 -38.3 -3.45 -38.3 -6.5 -29.85 -1.65 -18.95 4.4 -29.85 M12.5 -18.5 L12.25 -18.35 9.25 -18.95 12.5 -18.5 19.5 -22.6 20.1 -22.6 20.1 -22.0 21.3 -22.6 21.75 -22.0 22.15 -21.45 24.95 -17.75 26.15 -17.75 26.15 -16.55 12.5 -18.5 M0.75 -17.75 L0.15 -17.75 0.15 -18.35 0.15 -18.95 0.75 -19.55 1.35 -19.55 0.15 -18.35 0.75 -18.35 0.75 -17.75 M1.95 -18.95 L2.55 -18.35 1.95 -17.75 1.95 -18.95 M32.8 -13.5 L32.2 -14.7 28.6 -7.45 28.45 -7.2 29.2 -7.45 29.8 -7.45 30.4 -6.85 31.0 -5.65 30.4 -4.45 29.2 -3.85 27.35 -4.45 27.35 -5.35 20.1 7.05 29.8 -3.85 30.4 -3.85 39.7 -20.65 38.25 -20.15 37.05 -20.75 36.45 -22.0 37.05 -23.2 38.25 -23.8 38.85 -23.8 40.05 -23.2 40.6 -22.2 43.8 -28.05 42.5 -28.05 41.3 -28.05 40.7 -29.25 41.3 -30.45 42.5 -31.05 43.1 -31.05 44.3 -30.45 44.7 -29.65 45.5 -31.05 42.5 -32.85 32.85 -15.95 34.05 -16.55 34.65 -16.55 35.25 -15.95 35.85 -14.7 35.25 -13.5 35.25 -15.35 34.05 -15.95 32.8 -15.35 32.8 -13.5 35.25 -13.5 34.05 -12.9 32.8 -13.5 M42.5 -28.05 L43.7 -28.65 43.7 -30.45 41.9 -30.45 41.3 -29.25 42.5 -28.05 M38.25 -23.2 L37.05 -22.0 38.25 -20.75 39.45 -21.4 39.45 -22.6 38.25 -23.2 M28.0 -6.85 L28.0 -5.05 29.2 -4.45 29.8 -5.05 29.8 -5.65 30.4 -5.65 29.8 -6.85 28.0 -6.85 M41.15 26.3 L41.9 27.0 41.3 28.2 40.05 28.8 38.85 28.2 38.25 27.0 38.85 26.4 39.65 26.0 36.0 25.35 36.45 25.8 37.05 27.0 36.45 27.6 35.25 28.2 34.05 27.6 33.4 27.0 34.05 25.8 35.2 25.2 28.6 24.0 28.0 27.6 41.9 29.45 42.5 26.4 41.9 26.4 41.15 26.3 M48.55 -6.25 L44.9 -28.05 31.6 -3.85 26.75 1.6 29.8 14.3 29.8 14.9 28.6 23.4 42.5 25.8 48.55 -6.25 M41.3 27.0 L40.7 26.4 39.45 26.4 38.85 27.0 40.05 28.2 40.7 27.6 40.7 27.0 41.3 27.0 M31.0 25.2 L31.6 25.8 31.0 27.0 29.8 27.6 28.6 27.0 28.6 25.2 29.8 24.6 30.4 24.6 31.0 25.2 29.2 25.2 29.2 26.4 29.8 27.0 31.0 26.4 31.0 25.2 M18.9 27.0 L17.7 26.4 17.1 27.0 17.7 27.6 18.3 27.0 18.9 27.0 18.9 27.6 17.7 27.6 17.1 27.6 16.5 27.0 17.7 25.8 18.3 25.8 18.9 26.4 18.9 27.0 M11.05 27.0 L9.85 27.6 11.05 28.2 11.05 27.6 11.65 27.6 11.05 27.0 M11.65 27.0 L12.25 27.6 11.05 28.8 9.85 28.2 9.25 27.6 9.85 27.0 11.05 26.4 11.65 26.4 11.65 27.0 M3.2 27.6 L4.4 27.6 4.4 29.45 3.2 29.45 2.55 29.45 1.95 28.8 2.55 27.6 3.2 27.6 2.55 28.8 3.2 29.45 3.2 28.8 3.8 28.8 3.2 27.6 M35.85 25.8 L34.65 25.8 34.05 26.4 34.65 27.6 35.85 27.6 35.85 26.4 36.45 26.4 35.85 25.8 M40.05 33.05 L40.05 30.05 29.2 28.2 29.2 31.25 40.05 33.05 M29.8 32.45 L24.95 35.5 26.15 38.5 28.6 39.1 32.8 38.5 32.8 36.1 34.05 39.7 32.8 39.1 28.6 40.9 25.55 39.1 24.95 40.9 32.2 46.35 41.3 38.5 38.25 33.65 29.8 32.45 M-19.8 -49.8 L-7.7 -41.95 -7.1 -41.95 -2.25 -48.0 -18.0 -53.45 -19.8 -49.8 M-45.2 -32.85 L-22.85 7.65 -24.65 28.8 -0.45 31.25 -1.05 -13.5 -3.45 -15.35 -4.1 26.4 -22.3 24.7 -4.7 25.8 -4.1 -15.35 -25.85 -31.05 -21.6 -34.1 -28.9 -34.1 -29.5 -42.55 -44.6 -32.85 -45.2 -32.85 M-46.4 -31.05 L-44.6 -30.45 -44.6 -28.05 -46.4 -28.05 -47.65 -28.05 -48.25 -29.25 -47.65 -30.45 -47.0 -31.05 -46.4 -31.05 M-45.8 -32.85 L-49.45 -31.05 -34.3 -3.85 -33.7 -3.85 -23.45 7.05 -30.95 -5.8 -31.3 -5.05 -33.1 -4.45 -34.3 -5.05 -34.95 -6.25 -34.3 -7.45 -33.7 -8.05 -33.1 -8.05 -32.05 -7.7 -36.15 -15.9 -36.15 -13.5 -37.95 -12.9 -39.15 -13.5 -39.75 -14.7 -39.15 -15.95 -38.55 -16.55 -37.95 -16.55 -36.15 -15.95 -45.8 -32.85 M-46.4 -28.05 L-45.2 -28.65 -45.2 -30.45 -47.0 -30.45 -47.65 -29.25 -47.0 -29.25 -47.0 -28.65 -46.4 -28.05 M-41.0 -22.6 L-42.2 -23.2 -43.4 -22.0 -42.8 -22.0 -42.8 -21.4 -42.2 -20.75 -41.0 -21.4 -41.0 -22.6 M-42.2 -23.8 L-41.0 -23.2 -40.35 -22.0 -41.0 -20.75 -42.2 -20.15 -43.4 -20.75 -44.0 -22.0 -43.4 -23.2 -42.8 -23.8 -42.2 -23.8 M-51.85 -6.25 L-46.4 25.8 -31.9 23.4 -33.7 14.9 -33.7 14.3 -30.1 1.6 -35.55 -3.85 -48.85 -28.05 -51.85 -6.25 M-1.65 -41.35 L-2.85 -41.35 -3.45 -42.55 -2.85 -43.15 -1.65 -43.75 -1.05 -43.75 -0.45 -43.15 -2.25 -43.15 -2.85 -42.55 -1.65 -41.35 -0.45 -41.95 -0.45 -43.15 0.15 -42.55 -0.45 -41.35 -1.65 -41.35 M-6.5 -40.75 L-16.35 -46.25 -7.4 -30.25 -4.7 -38.9 -4.55 -38.9 -6.25 -41.05 -6.5 -40.75 M-19.5 -48.05 L-24.65 -44.95 -24.65 -38.3 -16.8 -36.5 -17.05 -35.95 -18.3 -36.2 -18.0 -35.9 -17.4 -35.3 -18.0 -34.7 -18.6 -34.1 -19.8 -34.7 -22.85 -31.65 -21.6 -31.65 -21.0 -31.65 -20.4 -30.45 -21.0 -29.85 -21.6 -29.85 -22.85 -29.85 -22.85 -30.45 -22.85 -31.65 -24.05 -30.45 -1.05 -14.1 -1.65 -17.75 -19.8 -31.05 -17.7 -34.4 -19.2 -31.05 -2.85 -20.15 -17.75 -47.05 -19.5 -48.05 M-19.3 -36.4 L-25.25 -37.7 -25.85 -45.55 -28.9 -43.75 -28.25 -43.75 -28.25 -42.55 -27.65 -43.15 -27.65 -43.75 -27.05 -43.75 -25.85 -43.15 -25.85 -42.55 -25.85 -41.95 -27.05 -41.35 -27.65 -41.95 -28.25 -42.55 -28.25 -34.7 -19.8 -34.7 -19.8 -35.3 -19.8 -35.9 -19.3 -36.4 M-19.2 -35.3 L-19.2 -34.7 -18.0 -34.7 -18.0 -35.9 -19.2 -35.9 -19.8 -35.3 -19.2 -35.3 M-11.95 -25.0 L-10.75 -23.8 -11.95 -22.6 -13.15 -23.2 -13.75 -23.8 -12.55 -25.0 -11.95 -25.0 M-2.85 -31.05 L-2.25 -29.85 -0.45 -29.85 -0.45 -31.05 0.15 -31.05 -0.45 -31.65 -2.25 -31.65 -2.85 -31.05 M-25.85 -42.55 L-26.45 -43.15 -27.65 -43.15 -27.65 -41.95 -26.45 -41.95 -25.85 -42.55 M-25.85 -37.7 L-25.25 -37.1 -24.65 -36.5 -25.25 -35.9 -25.85 -35.3 -27.05 -35.9 -27.05 -36.5 -27.05 -37.1 -26.45 -37.7 -25.85 -37.7 M-21.6 -31.65 L-22.85 -30.45 -22.25 -30.45 -21.6 -29.85 -21.0 -30.45 -21.0 -31.05 -21.6 -31.65 M-25.25 -37.1 L-26.45 -37.1 -27.05 -36.5 -26.45 -36.5 -26.45 -35.9 -25.25 -35.9 -25.25 -37.1 M-33.1 -7.45 L-34.3 -6.25 -33.7 -6.25 -33.7 -5.65 -33.1 -5.05 -31.9 -5.65 -31.9 -6.85 -33.1 -7.45 M-39.15 -14.7 L-38.55 -14.7 -38.55 -14.1 -37.95 -13.5 -36.75 -14.1 -36.75 -15.95 -38.55 -15.95 -39.15 -14.7 M-3.45 -18.95 L-2.85 -18.35 -3.45 -17.75 -3.45 -18.95 M-4.1 -17.15 L-5.3 -17.75 -5.3 -18.35 -5.3 -18.95 -4.7 -18.95 -5.3 -18.35 -4.7 -18.35 -4.7 -17.75 -4.1 -17.15 M-11.95 -24.4 L-12.55 -24.4 -13.15 -23.8 -12.55 -23.8 -12.55 -23.2 -11.95 -23.2 -11.35 -23.8 -11.95 -24.4 M-2.25 -9.9 L-1.65 -9.9 -1.05 -9.3 -2.25 -8.05 -3.45 -8.7 -3.45 -9.3 -2.85 -9.3 -2.25 -8.7 -1.65 -9.3 -2.25 -9.9 -3.45 -9.3 -3.45 -9.9 -2.25 -9.9 M-1.05 -3.25 L-1.05 -2.0 -2.25 -2.0 -3.45 -2.0 -3.45 -3.25 -2.85 -3.85 -2.25 -3.85 -1.05 -3.25 M-2.25 -2.0 L-1.65 -2.65 -2.25 -3.25 -2.85 -2.65 -2.25 -2.65 -2.25 -2.0 M-2.85 2.2 L-2.25 2.2 -1.05 3.4 -2.25 4.65 -3.45 4.05 -3.45 2.8 -2.85 2.2 M-3.45 10.05 L-2.85 10.05 -2.25 10.7 -3.45 10.7 -3.45 10.05 -3.45 9.45 -2.85 8.85 -2.25 8.85 -1.05 10.05 -1.65 10.7 -2.25 10.7 -1.65 10.05 -2.25 9.45 -3.45 10.05 M-2.25 3.4 L-2.25 4.05 -1.65 3.4 -2.25 2.8 -2.85 3.4 -2.25 3.4 M-2.85 15.5 L-2.25 15.5 -1.05 15.5 -1.05 16.1 -1.05 16.75 -2.25 17.35 -3.45 16.1 -2.85 15.5 M-2.25 15.5 L-2.85 16.1 -2.25 16.1 -2.25 16.75 -1.05 16.1 -2.25 15.5 M-3.45 22.15 L-2.85 21.55 -2.25 21.55 -1.05 22.8 -1.65 23.4 -2.25 23.4 -3.45 23.4 -3.45 22.15 M-2.25 23.4 L-1.65 22.8 -2.25 22.15 -2.85 22.8 -2.25 22.8 -2.25 23.4 M-33.7 24.6 L-32.5 25.2 -31.9 26.4 -32.5 27.0 -33.7 27.6 -34.95 27.0 -34.95 25.2 -34.3 24.6 -33.7 24.6 M-21.0 27.0 L-21.0 27.6 -22.25 28.2 -23.45 27.0 -22.85 26.4 -22.25 26.4 -21.0 26.4 -21.0 27.0 -22.25 26.4 -22.85 27.0 -22.25 27.0 -22.25 27.6 -21.0 27.0 M-32.5 25.2 L-34.3 25.2 -34.3 27.0 -32.5 27.0 -32.5 25.2 M-37.95 27.6 L-37.35 27.0 -38.55 25.8 -39.75 27.0 -39.15 27.0 -39.15 27.6 -37.95 27.6 M-36.75 27.0 L-37.35 27.6 -38.55 28.2 -39.75 27.6 -40.35 27.0 -39.75 25.8 -39.25 25.25 -45.8 26.4 -46.4 26.4 -45.8 29.45 -31.3 27.6 -31.9 24.0 -38.8 25.2 -38.55 25.2 -37.35 25.8 -36.75 27.0 M-33.1 28.2 L-44.0 30.05 -43.4 33.05 -32.5 31.25 -33.1 28.2 M-37.95 39.7 L-36.15 36.1 -36.15 38.5 -31.9 39.1 -29.5 38.5 -28.9 35.5 -33.1 32.45 -42.2 33.65 -44.6 38.5 -35.55 46.35 -28.9 40.9 -29.5 39.1 -31.9 40.9 -36.15 39.1 -37.95 39.7 M-4.1 28.8 L-3.45 28.8 -2.85 30.05 -2.25 28.8 -2.85 28.2 -4.1 28.8 -4.1 28.2 -2.85 28.2 -2.25 28.2 -1.65 28.8 -2.85 30.05 -4.1 29.45 -4.1 28.8 M-9.5 27.6 L-8.9 27.6 -8.3 28.2 -9.5 29.45 -10.75 28.8 -10.75 28.2 -10.15 28.2 -9.5 28.8 -8.9 28.2 -9.5 27.6 -10.75 28.2 -10.75 27.6 -9.5 27.6 M-16.8 27.0 L-15.55 27.0 -15.55 27.6 -15.55 28.2 -16.8 28.8 -18.0 27.6 -17.4 27.0 -16.8 27.0 -17.4 27.6 -16.8 27.6 -16.8 28.8 -15.55 27.6 -16.8 27.0 M-42.2 27.6 L-42.8 28.8 -45.2 28.8 -45.8 27.6 -45.2 26.4 -44.0 26.4 -42.8 26.4 -42.2 27.6 M-45.2 27.6 L-44.6 27.6 -44.6 28.2 -43.4 28.2 -42.8 27.6 -44.0 26.4 -45.2 27.6" fill="#0d0f0d" fill-rule="evenodd" stroke="none"/>
    <path d="M17.7 -49.8 L5.0 -41.95 4.4 -41.95 -0.4 -47.9 -0.3 -48.05 15.3 -53.45 17.7 -49.8 M23.75 -44.35 L24.35 -43.75 23.75 -43.75 23.75 -43.15 23.15 -42.55 22.55 -43.15 22.55 -44.35 23.75 -44.35 M22.55 -36.5 L22.55 -35.9 21.95 -35.9 21.3 -36.5 21.95 -37.1 22.55 -37.1 23.15 -36.5 22.55 -36.5 M1.7 -39.5 L3.05 -41.7 3.8 -40.75 17.0 -48.15 5.7 -30.35 1.95 -39.5 1.7 -39.5 M9.25 -25.0 L9.85 -25.6 11.05 -25.6 11.05 -24.4 9.85 -24.4 9.25 -25.0 M15.9 -35.3 L15.3 -35.3 15.3 -34.7 14.05 -34.7 14.05 -35.9 15.3 -35.9 15.9 -35.3 M17.7 -29.85 L17.7 -30.45 17.1 -30.45 17.7 -31.05 17.7 -31.65 18.9 -30.45 18.3 -30.45 17.7 -29.85 M21.75 -22.0 L21.95 -22.0 22.15 -21.45 21.75 -22.0 M1.35 -19.55 L1.95 -18.95 1.95 -17.75 0.75 -17.75 0.75 -18.35 0.15 -18.35 1.35 -19.55 M32.8 -13.5 L32.8 -15.35 34.05 -15.95 35.25 -15.35 35.25 -13.5 32.8 -13.5 M42.5 -28.05 L41.3 -29.25 41.9 -30.45 43.7 -30.45 43.7 -28.65 42.5 -28.05 M38.25 -23.2 L39.45 -22.6 39.45 -21.4 38.25 -20.75 37.05 -22.0 38.25 -23.2 M28.0 -6.85 L29.8 -6.85 30.4 -5.65 29.8 -5.65 29.8 -5.05 29.2 -4.45 28.0 -5.05 28.0 -6.85 M41.3 27.0 L40.7 27.0 40.7 27.6 40.05 28.2 38.85 27.0 39.45 26.4 40.7 26.4 41.3 27.0 M31.0 25.2 L31.0 26.4 29.8 27.0 29.2 26.4 29.2 25.2 31.0 25.2 M16.5 13.7 L4.4 13.7 4.4 13.1 16.5 13.7 M18.9 27.0 L18.3 27.0 17.7 27.6 17.1 27.0 17.7 26.4 18.9 27.0 M11.05 27.0 L11.65 27.6 11.05 27.6 11.05 28.2 9.85 27.6 11.05 27.0 M3.2 27.6 L3.8 28.8 3.2 28.8 3.2 29.45 2.55 28.8 3.2 27.6 M35.85 25.8 L36.45 26.4 35.85 26.4 35.85 27.6 34.65 27.6 34.05 26.4 34.65 25.8 35.85 25.8 M-19.8 -49.8 L-18.0 -53.45 -2.25 -48.0 -7.1 -41.95 -7.7 -41.95 -19.8 -49.8 M-46.4 -28.05 L-47.0 -28.65 -47.0 -29.25 -47.65 -29.25 -47.0 -30.45 -45.2 -30.45 -45.2 -28.65 -46.4 -28.05 M-41.0 -22.6 L-41.0 -21.4 -42.2 -20.75 -42.8 -21.4 -42.8 -22.0 -43.4 -22.0 -42.2 -23.2 -41.0 -22.6 M-1.65 -41.35 L-2.85 -42.55 -2.25 -43.15 -0.45 -43.15 -0.45 -41.95 -1.65 -41.35 M-6.5 -40.75 L-6.25 -41.05 -4.55 -38.9 -4.7 -38.9 -7.4 -30.25 -16.35 -46.25 -6.5 -40.75 M-19.2 -35.3 L-19.8 -35.3 -19.2 -35.9 -18.0 -35.9 -18.0 -34.7 -19.2 -34.7 -19.2 -35.3 M-2.85 -31.05 L-2.25 -31.65 -0.45 -31.65 0.15 -31.05 -0.45 -31.05 -0.45 -29.85 -2.25 -29.85 -2.85 -31.05 M-25.85 -42.55 L-26.45 -41.95 -27.65 -41.95 -27.65 -43.15 -26.45 -43.15 -25.85 -42.55 M-21.6 -31.65 L-21.0 -31.05 -21.0 -30.45 -21.6 -29.85 -22.25 -30.45 -22.85 -30.45 -21.6 -31.65 M-25.25 -37.1 L-25.25 -35.9 -26.45 -35.9 -26.45 -36.5 -27.05 -36.5 -26.45 -37.1 -25.25 -37.1 M-39.15 -14.7 L-38.55 -15.95 -36.75 -15.95 -36.75 -14.1 -37.95 -13.5 -38.55 -14.1 -38.55 -14.7 -39.15 -14.7 M-33.1 -7.45 L-31.9 -6.85 -31.9 -5.65 -33.1 -5.05 -33.7 -5.65 -33.7 -6.25 -34.3 -6.25 -33.1 -7.45 M-4.7 -18.95 L-3.45 -18.95 -3.45 -17.75 -4.1 -17.15 -4.7 -17.75 -4.7 -18.35 -5.3 -18.35 -4.7 -18.95 M-11.95 -24.4 L-11.35 -23.8 -11.95 -23.2 -12.55 -23.2 -12.55 -23.8 -13.15 -23.8 -12.55 -24.4 -11.95 -24.4 M-2.25 -9.9 L-1.65 -9.3 -2.25 -8.7 -2.85 -9.3 -3.45 -9.3 -2.25 -9.9 M-2.25 -2.0 L-2.25 -2.65 -2.85 -2.65 -2.25 -3.25 -1.65 -2.65 -2.25 -2.0 M-2.25 3.4 L-2.85 3.4 -2.25 2.8 -1.65 3.4 -2.25 4.05 -2.25 3.4 M-2.25 10.7 L-2.85 10.05 -3.45 10.05 -2.25 9.45 -1.65 10.05 -2.25 10.7 M-2.25 15.5 L-1.05 16.1 -2.25 16.75 -2.25 16.1 -2.85 16.1 -2.25 15.5 M-7.7 13.1 L-7.7 13.7 -19.8 13.7 -7.7 13.1 M-2.25 23.4 L-2.25 22.8 -2.85 22.8 -2.25 22.15 -1.65 22.8 -2.25 23.4 M-32.5 25.2 L-32.5 27.0 -34.3 27.0 -34.3 25.2 -32.5 25.2 M-21.0 27.0 L-22.25 27.6 -22.25 27.0 -22.85 27.0 -22.25 26.4 -21.0 27.0 M-37.95 27.6 L-39.15 27.6 -39.15 27.0 -39.75 27.0 -38.55 25.8 -37.35 27.0 -37.95 27.6 M-4.1 28.8 L-2.85 28.2 -2.25 28.8 -2.85 30.05 -3.45 28.8 -4.1 28.8 M-9.5 27.6 L-8.9 28.2 -9.5 28.8 -10.15 28.2 -10.75 28.2 -9.5 27.6 M-16.8 27.0 L-15.55 27.6 -16.8 28.8 -16.8 27.6 -17.4 27.6 -16.8 27.0 M-45.2 27.6 L-44.0 26.4 -42.8 27.6 -43.4 28.2 -44.6 28.2 -44.6 27.6 -45.2 27.6" fill="#608051" fill-rule="evenodd" stroke="none"/>
    <path d="M0.15 -39.5 L-3.45 -38.9 -5.3 -41.35 -3.65 -44.1 -1.25 -46.9 2.55 -41.95 0.15 -39.5 M0.75 -31.05 L0.15 -31.65 -1.05 -32.25 -1.65 -32.25 -2.85 -31.65 -3.45 -31.05 -2.85 -29.85 -1.65 -29.25 0.15 -29.85 0.75 -31.05 M4.4 -29.85 L-1.65 -18.95 -6.5 -29.85 -3.45 -38.3 0.15 -38.3 4.4 -29.85 M-0.45 -43.15 L-1.05 -43.75 -1.65 -43.75 -2.85 -43.15 -3.45 -42.55 -2.85 -41.35 -1.65 -41.35 -0.45 -41.35 0.15 -42.55 -0.45 -43.15" fill="#21301e" fill-rule="evenodd" stroke="none"/>
    <path d="M23.75 -44.35 L22.55 -44.35 22.3 -44.15 22.55 -45.55 24.15 -44.35 23.75 -44.35 M22.55 -37.7 L21.3 -37.1 20.7 -36.5 21.3 -35.9 22.55 -35.3 23.75 -36.5 23.15 -37.1 23.15 -37.7 22.55 -37.7 M23.15 -42.55 L24.35 -42.55 24.35 -34.7 15.9 -34.7 15.9 -35.3 15.9 -35.9 15.45 -36.35 21.3 -37.7 22.2 -43.25 22.55 -42.55 23.15 -42.55 M20.7 -38.3 L12.85 -36.5 13.5 -35.35 13.45 -35.3 13.6 -35.15 15.9 -31.05 0.15 -20.15 17.7 -48.0 21.95 -45.55 20.7 -38.3 M0.15 28.8 L0.15 28.2 0.1 28.15 0.1 26.95 17.7 24.8 0.15 26.4 0.05 25.4 -0.45 -14.95 21.95 -30.45 18.3 -34.1 25.55 -34.1 25.55 -42.55 40.7 -32.85 41.3 -32.85 18.9 7.65 20.7 28.8 0.15 30.95 0.1 29.45 0.15 29.45 0.15 28.8 M11.05 -25.6 L11.05 -26.2 10.45 -26.2 9.25 -25.6 9.25 -25.0 9.25 -24.4 10.35 -23.8 -1.05 -15.35 -1.05 -18.35 16.5 -31.05 14.5 -34.25 14.65 -34.1 15.9 -34.7 20.1 -31.05 19.45 -30.6 18.9 -31.65 17.7 -31.65 17.1 -31.65 16.5 -30.45 17.1 -29.85 17.7 -29.85 18.45 -29.85 10.75 -24.1 11.65 -25.0 11.05 -25.6 M14.05 -35.9 L13.7 -35.5 13.45 -35.9 14.25 -36.05 14.05 -35.9 M12.5 -18.5 L9.25 -18.95 12.25 -18.35 12.5 -18.5 26.15 -16.55 26.15 -17.75 24.95 -17.75 22.15 -21.45 21.95 -22.0 21.75 -22.0 21.3 -22.6 20.1 -22.0 20.1 -22.6 19.5 -22.6 12.5 -18.5 M1.35 -19.55 L0.75 -19.55 0.15 -18.95 0.15 -18.35 0.15 -17.75 0.75 -17.75 1.95 -17.75 2.55 -18.35 1.95 -18.95 1.35 -19.55 M42.5 -28.05 L43.8 -28.05 40.6 -22.2 40.05 -23.2 38.85 -23.8 38.25 -23.8 37.05 -23.2 36.45 -22.0 37.05 -20.75 38.25 -20.15 39.7 -20.65 30.4 -3.85 29.8 -3.85 20.1 7.05 27.35 -5.35 27.35 -4.45 29.2 -3.85 30.4 -4.45 31.0 -5.65 30.4 -6.85 29.8 -7.45 29.2 -7.45 28.45 -7.2 28.6 -7.45 32.2 -14.7 32.8 -13.5 34.05 -12.9 35.25 -13.5 35.85 -14.7 35.25 -15.95 34.65 -16.55 34.05 -16.55 32.85 -15.95 42.5 -32.85 45.5 -31.05 44.7 -29.65 44.3 -30.45 43.1 -31.05 42.5 -31.05 41.3 -30.45 40.7 -29.25 41.3 -28.05 42.5 -28.05 M48.55 -6.25 L42.5 25.8 28.6 23.4 29.8 14.9 29.8 14.3 26.75 1.6 31.6 -3.85 44.9 -28.05 48.55 -6.25 M41.15 26.3 L41.9 26.4 42.5 26.4 41.9 29.45 28.0 27.6 28.6 24.0 35.2 25.2 34.05 25.8 33.4 27.0 34.05 27.6 35.25 28.2 36.45 27.6 37.05 27.0 36.45 25.8 36.0 25.35 39.65 26.0 38.85 26.4 38.25 27.0 38.85 28.2 40.05 28.8 41.3 28.2 41.9 27.0 41.15 26.3 M31.0 25.2 L30.4 24.6 29.8 24.6 28.6 25.2 28.6 27.0 29.8 27.6 31.0 27.0 31.6 25.8 31.0 25.2 M16.5 13.7 L4.4 13.1 4.4 13.7 16.5 13.7 M18.9 27.0 L18.9 26.4 18.3 25.8 17.7 25.8 16.5 27.0 17.1 27.6 17.7 27.6 18.9 27.6 18.9 27.0 M11.65 27.0 L11.65 26.4 11.05 26.4 9.85 27.0 9.25 27.6 9.85 28.2 11.05 28.8 12.25 27.6 11.65 27.0 M3.2 27.6 L2.55 27.6 1.95 28.8 2.55 29.45 3.2 29.45 4.4 29.45 4.4 27.6 3.2 27.6 M40.05 33.05 L29.2 31.25 29.2 28.2 40.05 30.05 40.05 33.05 M-46.4 -31.05 L-47.0 -31.05 -47.65 -30.45 -48.25 -29.25 -47.65 -28.05 -46.4 -28.05 -44.6 -28.05 -44.6 -30.45 -46.4 -31.05 M-45.2 -32.85 L-44.6 -32.85 -29.5 -42.55 -28.9 -34.1 -21.6 -34.1 -25.85 -31.05 -4.1 -15.35 -4.7 25.8 -22.3 24.7 -4.1 26.4 -3.45 -15.35 -1.05 -13.5 -0.45 31.25 -24.65 28.8 -22.85 7.65 -45.2 -32.85 M-45.8 -32.85 L-36.15 -15.95 -37.95 -16.55 -38.55 -16.55 -39.15 -15.95 -39.75 -14.7 -39.15 -13.5 -37.95 -12.9 -36.15 -13.5 -36.15 -15.9 -32.05 -7.7 -33.1 -8.05 -33.7 -8.05 -34.3 -7.45 -34.95 -6.25 -34.3 -5.05 -33.1 -4.45 -31.3 -5.05 -30.95 -5.8 -23.45 7.05 -33.7 -3.85 -34.3 -3.85 -49.45 -31.05 -45.8 -32.85 M-51.85 -6.25 L-48.85 -28.05 -35.55 -3.85 -30.1 1.6 -33.7 14.3 -33.7 14.9 -31.9 23.4 -46.4 25.8 -51.85 -6.25 M-42.2 -23.8 L-42.8 -23.8 -43.4 -23.2 -44.0 -22.0 -43.4 -20.75 -42.2 -20.15 -41.0 -20.75 -40.35 -22.0 -41.0 -23.2 -42.2 -23.8 M-19.3 -36.4 L-19.8 -35.9 -19.8 -35.3 -19.8 -34.7 -28.25 -34.7 -28.25 -42.55 -27.65 -41.95 -27.05 -41.35 -25.85 -41.95 -25.85 -42.55 -25.85 -43.15 -27.05 -43.75 -27.65 -43.75 -27.65 -43.15 -28.25 -42.55 -28.25 -43.75 -28.9 -43.75 -25.85 -45.55 -25.25 -37.7 -19.3 -36.4 M-19.5 -48.05 L-17.75 -47.05 -2.85 -20.15 -19.2 -31.05 -17.7 -34.4 -19.8 -31.05 -1.65 -17.75 -1.05 -14.1 -24.05 -30.45 -22.85 -31.65 -22.85 -30.45 -22.85 -29.85 -21.6 -29.85 -21.0 -29.85 -20.4 -30.45 -21.0 -31.65 -21.6 -31.65 -22.85 -31.65 -19.8 -34.7 -18.6 -34.1 -18.0 -34.7 -17.4 -35.3 -18.0 -35.9 -18.3 -36.2 -17.05 -35.95 -16.8 -36.5 -24.65 -38.3 -24.65 -44.95 -19.5 -48.05 M-11.95 -25.0 L-12.55 -25.0 -13.75 -23.8 -13.15 -23.2 -11.95 -22.6 -10.75 -23.8 -11.95 -25.0 M-25.85 -37.7 L-26.45 -37.7 -27.05 -37.1 -27.05 -36.5 -27.05 -35.9 -25.85 -35.3 -25.25 -35.9 -24.65 -36.5 -25.25 -37.1 -25.85 -37.7 M-3.45 -18.95 L-4.7 -18.95 -5.3 -18.95 -5.3 -18.35 -5.3 -17.75 -4.1 -17.15 -3.45 -17.75 -2.85 -18.35 -3.45 -18.95 M-3.45 -9.3 L-3.45 -8.7 -2.25 -8.05 -1.05 -9.3 -1.65 -9.9 -2.25 -9.9 -3.45 -9.9 -3.45 -9.3 M-1.05 -3.25 L-2.25 -3.85 -2.85 -3.85 -3.45 -3.25 -3.45 -2.0 -2.25 -2.0 -1.05 -2.0 -1.05 -3.25 M-2.85 2.2 L-3.45 2.8 -3.45 4.05 -2.25 4.65 -1.05 3.4 -2.25 2.2 -2.85 2.2 M-3.45 10.05 L-3.45 10.7 -2.25 10.7 -1.65 10.7 -1.05 10.05 -2.25 8.85 -2.85 8.85 -3.45 9.45 -3.45 10.05 M-2.85 15.5 L-3.45 16.1 -2.25 17.35 -1.05 16.75 -1.05 16.1 -1.05 15.5 -2.25 15.5 -2.85 15.5 M-7.7 13.1 L-19.8 13.7 -7.7 13.7 -7.7 13.1 M-3.45 22.15 L-3.45 23.4 -2.25 23.4 -1.65 23.4 -1.05 22.8 -2.25 21.55 -2.85 21.55 -3.45 22.15 M-21.0 27.0 L-21.0 26.4 -22.25 26.4 -22.85 26.4 -23.45 27.0 -22.25 28.2 -21.0 27.6 -21.0 27.0 M-33.7 24.6 L-34.3 24.6 -34.95 25.2 -34.95 27.0 -33.7 27.6 -32.5 27.0 -31.9 26.4 -32.5 25.2 -33.7 24.6 M-33.1 28.2 L-32.5 31.25 -43.4 33.05 -44.0 30.05 -33.1 28.2 M-36.75 27.0 L-37.35 25.8 -38.55 25.2 -38.8 25.2 -31.9 24.0 -31.3 27.6 -45.8 29.45 -46.4 26.4 -45.8 26.4 -39.25 25.25 -39.75 25.8 -40.35 27.0 -39.75 27.6 -38.55 28.2 -37.35 27.6 -36.75 27.0 M-4.1 28.8 L-4.1 29.45 -2.85 30.05 -1.65 28.8 -2.25 28.2 -2.85 28.2 -4.1 28.2 -4.1 28.8 M-10.75 28.2 L-10.75 28.8 -9.5 29.45 -8.3 28.2 -8.9 27.6 -9.5 27.6 -10.75 27.6 -10.75 28.2 M-16.8 27.0 L-17.4 27.0 -18.0 27.6 -16.8 28.8 -15.55 28.2 -15.55 27.6 -15.55 27.0 -16.8 27.0 M-42.2 27.6 L-42.8 26.4 -44.0 26.4 -45.2 26.4 -45.8 27.6 -45.2 28.8 -42.8 28.8 -42.2 27.6" fill="#181e16" fill-rule="evenodd" stroke="none"/>
    <path d="M29.8 32.45 L38.25 33.65 41.3 38.5 32.2 46.35 24.95 40.9 25.55 39.1 28.6 40.9 32.8 39.1 34.05 39.7 32.8 36.1 32.8 38.5 28.6 39.1 26.15 38.5 24.95 35.5 29.8 32.45 M-37.95 39.7 L-36.15 39.1 -31.9 40.9 -29.5 39.1 -28.9 40.9 -35.55 46.35 -44.6 38.5 -42.2 33.65 -33.1 32.45 -28.9 35.5 -29.5 38.5 -31.9 39.1 -36.15 38.5 -36.15 36.1 -37.95 39.7" fill="#d9dae6" fill-rule="evenodd" stroke="none"/>
  </g>
</svg>
