<?xml version="1.0" encoding="UTF-8" standalone="no"?>
<svg xmlns:xlink="http://www.w3.org/1999/xlink" height="22.8px" width="15.35px" xmlns="http://www.w3.org/2000/svg">
  <g transform="matrix(1.0, 0.0, 0.0, 1.0, -1.7, 22.1)">
    <path d="M15.7 -17.85 L11.6 -15.65 10.45 -17.2 9.1 -17.65 Q8.45 -17.65 8.0 -17.2 7.5 -16.8 7.5 -16.15 7.45 -15.45 8.05 -14.95 8.65 -14.45 10.35 -13.65 13.0 -12.45 14.45 -11.45 15.9 -10.4 16.5 -9.3 17.1 -8.15 17.05 -6.6 17.05 -4.55 16.05 -2.9 15.0 -1.25 13.3 -0.3 11.6 0.65 9.45 0.7 6.7 0.7 4.75 -0.65 2.85 -1.95 1.7 -4.65 L5.95 -6.6 Q6.8 -5.0 7.6 -4.35 8.35 -3.75 9.45 -3.75 10.6 -3.8 11.3 -4.4 11.95 -5.0 12.0 -6.05 12.05 -6.75 11.75 -7.2 L10.4 -8.3 7.05 -10.0 Q4.7 -11.15 3.75 -12.4 2.8 -13.65 2.85 -15.6 2.9 -18.55 4.75 -20.3 6.6 -22.05 9.7 -22.1 11.7 -22.1 13.15 -21.05 14.65 -20.0 15.7 -17.85" fill="#000000" fill-rule="evenodd" stroke="none"/>
  </g>
</svg>
