<?xml version="1.0" encoding="UTF-8" standalone="no"?>
<svg xmlns:xlink="http://www.w3.org/1999/xlink" height="34.0px" width="34.15px" xmlns="http://www.w3.org/2000/svg">
  <g transform="matrix(1.0, 0.0, 0.0, 1.0, -8.05, -149.0)">
    <path d="M40.1 149.1 L40.6 149.25 41.25 149.6 41.6 149.95 41.75 150.45 41.95 150.8 41.95 151.3 10.35 182.9 9.85 182.7 9.5 182.7 9.0 182.4 Q8.8 182.4 8.65 182.2 L8.15 181.2 8.15 180.85 39.75 149.1 40.1 149.1" fill="#a09e9e" fill-rule="evenodd" stroke="none"/>
    <path d="M40.1 149.1 L40.6 149.25 41.25 149.6 41.6 149.95 41.75 150.45 41.95 150.8 41.95 151.3 10.35 182.9 9.85 182.7 9.5 182.7 9.0 182.4 Q8.8 182.4 8.65 182.2 L8.15 181.2 8.15 180.85 39.75 149.1 40.1 149.1 Z" fill="none" stroke="#909090" stroke-linecap="round" stroke-linejoin="round" stroke-width="0.2"/>
    <path d="M39.75 182.9 L10.35 182.9 41.95 151.3 41.95 181.2 41.6 181.9 41.25 182.2 40.95 182.4 40.6 182.75 40.1 182.75 39.75 182.9" fill="#808080" fill-rule="evenodd" stroke="none"/>
    <path d="M39.75 182.9 L10.35 182.9 41.95 151.3 41.95 181.2 41.6 181.9 41.25 182.2 40.95 182.4 40.6 182.75 40.1 182.75 39.75 182.9 Z" fill="none" stroke="#909090" stroke-linecap="round" stroke-linejoin="round" stroke-width="0.2"/>
    <path d="M9.5 149.25 L9.85 149.1 39.75 149.1 8.15 180.85 8.15 150.8 8.3 150.45 8.5 149.95 8.65 149.6 9.0 149.45 Q9.3 149.45 9.5 149.25" fill="#cfcfcd" fill-rule="evenodd" stroke="none"/>
    <path d="M9.5 149.25 L9.85 149.1 39.75 149.1 8.15 180.85 8.15 150.8 8.3 150.45 8.5 149.95 8.65 149.6 9.0 149.45 Q9.3 149.45 9.5 149.25 Z" fill="none" stroke="#bfbfbf" stroke-linecap="round" stroke-linejoin="round" stroke-width="0.2"/>
    <path d="M14.2 157.7 L8.15 151.3 8.15 150.8 8.3 150.45 8.5 149.95 8.65 149.6 9.0 149.45 Q9.3 149.45 9.5 149.25 L9.85 149.1 10.35 149.1 15.25 155.15 14.2 157.7" fill="#f1f0f0" fill-rule="evenodd" stroke="none"/>
    <path d="M14.2 157.7 L8.15 151.3 8.15 150.8 8.3 150.45 8.5 149.95 8.65 149.6 9.0 149.45 Q9.3 149.45 9.5 149.25 L9.85 149.1 10.35 149.1 15.25 155.15 14.2 157.7 Z" fill="none" stroke="#e0dfdf" stroke-linecap="round" stroke-linejoin="round" stroke-width="0.2"/>
    <path d="M36.7 174.3 L42.1 180.9 42.1 181.2 41.95 181.55 41.6 181.9 41.45 182.25 40.75 182.55 Q40.6 182.75 40.25 182.75 L39.95 182.9 36.05 176.15 36.7 174.3" fill="#a09e9e" fill-rule="evenodd" stroke="none"/>
    <path d="M36.7 174.3 L42.1 180.9 42.1 181.2 41.95 181.55 41.6 181.9 41.45 182.25 40.75 182.55 Q40.6 182.75 40.25 182.75 L39.95 182.9 36.05 176.15 36.7 174.3 Z" fill="none" stroke="#909090" stroke-linecap="round" stroke-linejoin="round" stroke-width="0.2"/>
    <path d="M37.55 152.65 L37.7 153.3 37.7 175.45 37.55 175.95 37.2 176.65 36.7 177.0 36.0 177.15 14.05 177.15 13.35 177.0 12.85 176.65 12.5 175.95 12.35 175.45 12.35 153.3 12.5 152.65 13.35 151.8 36.7 151.8 37.55 152.65" fill="#e0dfdf" fill-rule="evenodd" stroke="none"/>
    <path d="M13.75 177.15 L13.75 151.8 18.5 151.8 18.5 177.15 13.75 177.15" fill="#d5d4d5" fill-rule="evenodd" stroke="none"/>
    <path d="M21.2 151.8 L21.2 177.15 16.45 177.15 16.45 151.8 21.2 151.8" fill="#dbdbda" fill-rule="evenodd" stroke="none"/>
    <path d="M23.7 151.8 L23.7 177.15 18.95 177.15 18.95 151.8 23.7 151.8" fill="#e2e1e0" fill-rule="evenodd" stroke="none"/>
    <path d="M26.4 151.8 L26.4 177.15 21.65 177.15 21.65 151.8 26.4 151.8" fill="#e8e6e7" fill-rule="evenodd" stroke="none"/>
    <path d="M28.75 151.8 L28.75 177.15 24.2 177.15 24.2 151.8 28.75 151.8" fill="#eeeded" fill-rule="evenodd" stroke="none"/>
    <path d="M31.65 151.8 L31.65 177.15 26.9 177.15 26.9 151.8 31.65 151.8" fill="#f4f3f3" fill-rule="evenodd" stroke="none"/>
    <path d="M34.0 151.8 L34.0 177.15 29.45 177.15 29.45 151.8 34.0 151.8" fill="#fafafa" fill-rule="evenodd" stroke="none"/>
    <path d="M32.15 177.15 L32.15 151.8 36.7 151.8 36.7 177.0 36.55 177.15 32.15 177.15" fill="#ffffff" fill-rule="evenodd" stroke="none"/>
    <path d="M37.5 152.65 L37.7 153.3 37.7 175.45 37.5 175.95 37.2 176.65 36.7 176.95 36.0 177.15 14.05 177.15 13.35 176.95 12.85 176.65 12.5 175.95 12.35 175.45 12.35 153.3 12.5 152.65 13.35 151.8 36.7 151.8 37.5 152.65 Z" fill="none" stroke="#cfcfcd" stroke-linecap="round" stroke-linejoin="round" stroke-width="0.2"/>
  </g>
</svg>
