<?xml version="1.0" encoding="UTF-8" standalone="no"?>
<svg xmlns:xlink="http://www.w3.org/1999/xlink" height="57.8px" width="116.3px" xmlns="http://www.w3.org/2000/svg">
  <g transform="matrix(1.0, 0.0, 0.0, 1.0, 7.8, 6.0)">
    <path d="M104.4 -1.85 Q108.5 2.25 108.5 8.0 L108.5 37.8 Q108.5 43.55 104.4 47.65 L104.35 47.7 Q100.25 51.8 94.5 51.8 L6.2 51.8 Q0.45 51.8 -3.65 47.7 L-3.65 47.65 Q-7.8 43.55 -7.8 37.8 L-7.8 8.0 Q-7.8 2.25 -3.65 -1.85 0.45 -6.0 6.2 -6.0 L94.5 -6.0 Q100.25 -6.0 104.35 -1.85 L104.4 -1.85" fill="#ffffff" fill-rule="evenodd" stroke="none"/>
    <path d="M94.5 0.0 Q97.8 0.0 100.15 2.35 102.5 4.7 102.5 8.0 L102.5 37.8 Q102.5 41.1 100.15 43.45 97.8 45.8 94.5 45.8 L6.2 45.8 Q2.9 45.8 0.55 43.45 -1.8 41.1 -1.8 37.8 L-1.8 8.0 Q-1.8 4.7 0.55 2.35 2.9 0.0 6.2 0.0 L94.5 0.0" fill="#5ffc00" fill-rule="evenodd" stroke="none"/>
  </g>
</svg>
