<?xml version="1.0" encoding="UTF-8" standalone="no"?>
<svg xmlns:xlink="http://www.w3.org/1999/xlink" height="35.1px" width="46.5px" xmlns="http://www.w3.org/2000/svg">
  <g transform="matrix(1.0, 0.0, 0.0, 1.0, -0.9, 34.6)">
    <path d="M35.15 -33.35 L40.2 -33.8 45.7 -34.15 46.35 -22.65 46.9 -11.2 47.4 -0.3 45.9 -0.2 42.1 0.0 36.85 0.25 30.95 0.5 30.8 -5.25 30.65 -11.15 29.5 -10.0 26.8 -7.35 23.5 -4.3 20.75 -7.95 18.65 -10.95 17.8 -12.15 17.15 -5.8 16.55 0.45 15.1 0.25 11.4 -0.2 6.35 -0.9 0.9 -1.65 Q1.55 -10.3 2.55 -18.55 L4.5 -34.6 6.05 -34.45 9.9 -34.1 14.8 -33.55 19.6 -32.85 20.3 -31.2 22.05 -27.1 24.2 -21.8 27.1 -27.0 29.2 -31.15 30.05 -32.85 31.45 -33.0 35.15 -33.35" fill="#000000" fill-rule="evenodd" stroke="none"/>
  </g>
</svg>
