<?xml version="1.0" encoding="UTF-8" standalone="no"?>
<svg xmlns:xlink="http://www.w3.org/1999/xlink" height="160.65px" width="93.0px" xmlns="http://www.w3.org/2000/svg">
  <g transform="matrix(1.0, 0.0, 0.0, 1.0, -41.55, -112.25)">
    <path d="M123.5 122.55 L122.85 122.55 122.1 122.8 122.3 122.8 Q119.5 123.85 116.15 127.1 112.45 130.65 110.75 134.05 L111.8 134.15 110.05 134.6 111.55 134.75 Q108.65 135.25 106.35 133.7 104.0 132.15 102.25 132.7 100.1 134.3 102.4 137.5 104.65 140.7 108.7 139.9 L107.95 140.45 108.45 141.75 108.4 141.7 108.95 142.65 110.05 143.8 111.0 144.45 111.3 144.6 112.2 145.05 Q113.6 145.45 115.15 144.45 117.0 142.5 117.05 141.3 117.35 138.7 116.0 136.4 117.9 138.45 117.55 141.4 L117.45 141.8 117.4 141.7 Q117.0 142.85 115.35 144.8 L115.5 144.8 115.45 144.85 Q118.6 145.2 119.95 142.5 121.0 142.45 122.0 143.25 L126.2 145.55 Q128.85 146.65 129.7 145.75 130.55 144.9 130.15 144.1 L129.2 143.05 129.45 143.2 128.35 142.3 127.7 141.95 125.85 140.75 125.6 140.65 Q124.2 140.0 123.75 139.0 L123.55 137.9 123.5 137.9 123.5 137.85 122.4 138.15 Q122.85 137.6 123.9 137.4 L124.45 137.35 126.0 137.15 129.0 137.3 131.1 137.6 131.75 137.6 132.15 137.55 Q133.35 137.35 133.7 136.45 134.0 134.8 132.0 133.6 130.0 132.35 126.95 132.15 L126.1 132.15 126.15 132.1 125.95 132.15 118.85 132.65 118.2 133.7 Q118.45 131.7 120.2 130.2 L123.25 127.8 Q126.1 125.2 125.4 123.7 124.8 122.5 123.5 122.55 M108.35 145.55 L107.95 144.9 Q106.9 143.1 107.95 141.55 L107.7 140.35 Q104.35 140.3 101.9 137.3 99.4 134.3 102.1 132.35 104.0 131.75 106.0 133.1 L108.1 134.1 109.65 134.6 110.2 134.3 110.4 133.85 Q112.15 130.45 115.9 126.8 119.65 123.15 122.85 122.2 125.1 121.85 125.8 123.6 126.45 125.35 123.5 128.1 L119.85 131.0 119.3 131.55 118.85 132.2 119.15 132.3 120.5 132.35 127.0 131.75 Q130.0 132.0 132.2 133.3 134.4 134.55 134.0 136.5 133.05 138.45 130.0 137.8 L125.5 137.45 124.15 137.55 123.85 138.45 Q123.85 138.95 124.55 139.45 L128.45 141.9 Q129.7 142.65 130.45 143.9 131.05 145.1 129.95 146.05 128.8 146.95 126.05 145.8 122.8 144.25 121.85 143.5 L121.35 143.15 120.25 142.7 Q118.65 145.6 115.3 145.15 L114.4 146.3 Q113.8 147.55 111.45 147.25 L111.2 147.25 Q109.6 146.85 108.7 145.9 L108.35 145.55 M58.7 119.65 L56.45 119.9 54.5 119.15 Q51.9 133.05 54.7 146.95 53.95 149.0 52.55 149.05 46.25 134.45 52.65 116.65 56.55 118.35 60.15 117.6 L60.05 117.75 59.5 118.45 59.7 117.95 Q56.25 118.65 52.9 116.95 47.95 129.95 50.8 141.25 48.25 130.05 52.95 117.35 L55.65 118.4 59.25 118.75 58.7 119.65 M81.15 117.6 Q84.55 118.3 88.2 116.65 94.55 134.45 88.3 149.05 86.9 149.0 86.2 146.95 88.9 133.05 86.35 119.15 L84.4 119.9 Q83.6 120.15 82.85 119.9 L82.15 118.8 85.3 118.4 88.0 117.35 Q92.65 130.05 90.15 141.25 93.0 129.95 88.05 116.95 84.85 118.6 81.55 118.0 L81.15 117.6 M118.3 133.85 L118.15 134.05 118.2 133.75 118.3 133.85 M114.1 146.05 L114.55 145.2 114.5 145.2 111.75 145.3 Q109.3 144.15 108.1 141.95 107.35 142.85 108.1 144.4 L108.95 145.55 108.85 145.55 Q109.65 146.35 110.95 146.7 113.3 147.0 114.1 146.05 M79.75 118.05 L80.15 120.0 79.0 118.0 Q78.15 116.85 75.15 116.65 L77.8 116.5 Q78.65 116.45 79.75 118.05 M63.3 129.3 Q62.15 128.1 61.5 125.8 60.5 120.7 64.0 119.3 67.75 119.1 69.15 124.05 L69.35 125.35 70.6 125.2 72.1 125.4 Q73.6 125.6 74.55 126.35 L75.35 126.3 74.1 125.3 Q74.8 124.0 75.95 124.2 76.85 124.55 76.85 126.0 L76.6 127.15 76.3 127.7 75.55 127.45 75.9 128.0 76.05 128.35 Q76.45 129.2 76.45 130.1 76.25 131.45 75.4 132.35 73.95 133.95 70.65 134.2 67.75 134.0 66.3 132.75 65.1 131.75 64.9 130.1 L64.95 129.3 65.1 128.65 65.4 127.95 65.4 127.9 64.95 127.15 66.25 126.45 64.7 126.0 Q64.7 124.55 65.65 124.2 66.9 124.0 67.65 125.75 L69.1 125.4 69.0 124.25 Q68.0 121.1 66.2 120.2 62.65 120.6 61.7 124.6 L61.85 125.85 Q62.5 127.95 63.55 129.1 L63.3 129.3 M72.2 124.7 L72.3 123.95 Q73.65 119.0 77.45 119.2 80.9 120.6 79.95 125.7 79.4 127.7 78.4 128.9 L78.1 128.7 79.4 125.95 79.55 124.25 Q78.55 120.55 75.25 120.15 73.25 121.0 72.25 124.35 L72.2 124.7 M79.85 125.4 Q80.4 122.3 78.6 120.1 77.15 118.65 75.05 119.95 79.45 120.25 79.85 125.4 M61.35 120.0 L61.7 118.05 Q62.8 116.45 63.7 116.5 L66.35 116.65 Q63.3 116.85 62.5 118.0 61.65 119.15 61.35 120.0 M62.9 120.1 Q61.05 122.2 61.55 125.25 62.0 120.15 66.45 119.95 64.4 118.65 62.9 120.1 M72.35 126.3 L72.1 126.0 70.95 125.75 Q69.65 125.8 69.55 126.3 69.6 126.6 70.25 126.75 L70.95 126.85 71.75 126.75 72.1 126.6 72.35 126.3" fill="#000000" fill-rule="evenodd" stroke="none"/>
    <path d="M122.3 122.8 L122.1 122.8 122.85 122.55 123.5 122.55 Q124.75 122.55 125.35 123.7 126.0 125.2 123.15 127.8 L120.75 129.65 Q119.15 130.85 118.35 132.5 L118.35 132.25 Q118.75 129.75 121.55 128.1 124.35 126.45 124.8 124.0 124.85 122.55 122.3 122.8 M118.2 133.7 L118.85 132.65 125.95 132.15 126.15 132.1 126.1 132.15 Q124.25 132.4 123.25 132.9 L120.65 133.95 118.3 133.85 118.2 133.75 118.15 133.75 118.2 133.7 M132.15 137.55 L131.75 137.6 131.1 137.6 129.0 137.3 126.0 137.15 124.45 137.35 123.8 137.4 Q122.95 137.55 122.45 138.05 122.75 137.35 124.9 136.75 L130.75 136.35 Q133.25 136.3 132.85 134.4 L132.85 134.35 Q133.85 135.3 133.6 136.45 133.25 137.35 132.15 137.55 M122.4 138.15 L123.5 137.85 123.5 137.9 Q123.35 138.35 123.75 139.0 124.2 140.0 125.6 140.65 L127.7 141.95 128.35 142.3 129.45 143.2 129.2 143.05 123.4 140.0 Q122.2 139.7 122.0 138.75 122.0 138.3 122.4 138.05 L122.3 138.2 122.4 138.15 M115.5 144.8 L115.35 144.8 Q117.0 142.85 117.4 141.7 L117.45 141.8 Q118.1 143.0 119.55 143.15 118.05 145.05 115.5 144.8 M111.3 144.6 L111.0 144.45 110.05 143.8 108.95 142.65 108.4 141.7 108.45 141.75 Q109.8 142.85 112.9 143.8 114.95 143.9 115.95 142.1 116.85 140.15 116.5 137.5 117.3 139.35 117.0 141.25 116.95 142.4 115.1 144.4 113.55 145.4 112.15 145.0 L111.3 144.6 M114.5 145.2 L114.1 146.05 Q113.3 147.0 110.95 146.7 109.65 146.35 108.85 145.55 L108.95 145.55 114.5 145.2" fill="#dedede" fill-rule="evenodd" stroke="none"/>
    <path d="M123.5 122.55 Q124.8 122.5 125.4 123.7 126.1 125.2 123.25 127.8 L120.2 130.2 Q118.45 131.7 118.2 133.7 L118.15 133.75 118.2 133.75 118.15 134.05 118.3 133.85 120.65 133.95 123.25 132.9 Q124.25 132.4 126.1 132.15 L126.95 132.15 Q130.0 132.35 132.0 133.6 134.0 134.8 133.7 136.45 133.35 137.35 132.15 137.55 133.25 137.35 133.6 136.45 133.85 135.3 132.85 134.35 L132.85 134.4 Q133.25 136.3 130.75 136.35 L124.9 136.75 Q122.75 137.35 122.45 138.05 122.95 137.55 123.8 137.4 L124.45 137.35 123.9 137.4 Q122.85 137.6 122.4 138.15 L122.3 138.2 122.4 138.05 Q122.0 138.3 122.0 138.75 122.2 139.7 123.4 140.0 L129.2 143.05 130.15 144.1 Q130.55 144.9 129.7 145.75 128.85 146.65 126.2 145.55 L122.0 143.25 Q121.0 142.45 119.95 142.5 118.6 145.2 115.45 144.85 L115.5 144.8 Q118.05 145.05 119.55 143.15 118.1 143.0 117.45 141.8 L117.55 141.4 Q117.9 138.45 116.0 136.4 117.35 138.7 117.05 141.3 117.0 142.5 115.15 144.45 113.6 145.45 112.2 145.05 L111.3 144.6 112.15 145.0 Q113.55 145.4 115.1 144.4 116.95 142.4 117.0 141.25 117.3 139.35 116.5 137.5 116.85 140.15 115.95 142.1 114.95 143.9 112.9 143.8 109.8 142.85 108.45 141.75 L107.95 140.45 108.7 139.9 Q104.65 140.7 102.4 137.5 100.1 134.3 102.25 132.7 104.0 132.15 106.35 133.7 108.65 135.25 111.55 134.75 L110.05 134.6 111.8 134.15 110.75 134.05 Q112.45 130.65 116.15 127.1 119.5 123.85 122.3 122.8 124.85 122.55 124.8 124.0 124.35 126.45 121.55 128.1 118.75 129.75 118.35 132.25 L118.35 132.5 Q119.15 130.85 120.75 129.65 L123.15 127.8 Q126.0 125.2 125.35 123.7 124.75 122.55 123.5 122.55 M123.5 137.9 L123.55 137.9 123.75 139.0 Q123.35 138.35 123.5 137.9 M125.6 140.65 L125.85 140.75 127.7 141.95 125.6 140.65 M114.5 145.2 L114.55 145.2 114.1 146.05 114.5 145.2 108.95 145.55 108.1 144.4 Q107.35 142.85 108.1 141.95 109.3 144.15 111.75 145.3 L114.5 145.2 M72.1 125.4 L72.2 124.7 72.25 124.35 Q73.25 121.0 75.25 120.15 78.55 120.55 79.55 124.25 L79.4 125.95 78.1 128.7 76.3 127.7 76.6 127.15 76.85 126.0 Q76.85 124.55 75.95 124.2 74.8 124.0 74.1 125.3 L75.35 126.3 74.55 126.35 Q73.6 125.6 72.1 125.4 M63.55 129.1 Q62.5 127.95 61.85 125.85 L61.7 124.6 Q62.65 120.6 66.2 120.2 68.0 121.1 69.0 124.25 L69.1 125.4 67.65 125.75 Q66.9 124.0 65.65 124.2 64.7 124.55 64.7 126.0 L66.25 126.45 64.95 127.15 65.4 127.9 65.4 127.95 63.55 129.1" fill="#ffffff" fill-rule="evenodd" stroke="none"/>
    <path d="M79.75 118.05 Q78.65 116.45 77.8 116.5 L75.15 116.65 Q78.15 116.85 79.0 118.0 L80.15 120.0 79.75 118.05 M59.15 119.75 Q59.9 118.5 61.0 117.35 64.85 113.4 70.6 113.3 76.35 113.4 80.15 117.35 L82.1 119.75 Q83.3 122.3 83.3 125.4 83.2 128.85 81.75 131.6 L80.7 131.4 Q79.8 129.95 78.4 128.9 79.4 127.7 79.95 125.7 80.9 120.6 77.45 119.2 73.65 119.0 72.3 123.95 L72.2 124.7 72.1 125.4 70.6 125.2 69.35 125.35 69.15 124.05 Q67.75 119.1 64.0 119.3 60.5 120.7 61.5 125.8 62.15 128.1 63.3 129.3 62.0 130.4 61.15 132.0 L60.9 132.2 60.0 132.6 Q58.0 129.5 57.85 125.4 57.9 122.35 59.15 119.75 M79.85 125.4 Q79.45 120.25 75.05 119.95 77.15 118.65 78.6 120.1 80.4 122.3 79.85 125.4 M78.3 120.65 Q77.1 119.6 75.4 119.75 78.25 120.1 79.55 122.9 79.5 121.7 78.3 120.65 M108.05 147.5 L109.85 149.3 Q109.4 151.65 106.9 157.0 L101.55 167.05 Q98.7 171.85 97.2 172.55 96.4 172.65 93.65 171.05 L87.25 167.05 89.45 164.75 Q90.85 163.35 90.7 163.0 L89.8 162.3 97.1 167.85 Q101.9 161.25 108.05 147.5 M61.35 120.0 Q61.65 119.15 62.5 118.0 63.3 116.85 66.35 116.65 L63.7 116.5 Q62.8 116.45 61.7 118.05 L61.35 120.0 M62.9 120.1 Q64.4 118.65 66.45 119.95 62.0 120.15 61.55 125.25 61.05 122.2 62.9 120.1 M66.1 119.75 Q64.4 119.6 63.2 120.65 62.0 121.7 61.95 122.9 63.3 120.1 66.1 119.75 M57.9 170.3 L57.85 170.4 57.65 170.75 57.9 170.3 M55.9 173.95 L55.6 174.75 59.6 179.45 59.3 183.15 Q57.15 181.95 51.05 174.9 L51.0 174.65 Q51.8 172.5 53.45 169.4 L55.1 166.35 55.15 166.35 53.85 168.55 Q54.75 169.9 57.35 170.25 56.25 172.0 55.55 174.7 L55.9 173.95 M90.45 263.1 Q91.35 264.6 90.95 266.15 90.5 267.7 90.0 268.1 L87.3 269.0 83.6 269.3 Q81.1 269.2 79.1 268.05 77.1 266.85 77.65 263.95 L78.2 249.8 78.4 245.05 82.95 245.35 87.5 244.75 86.1 259.05 Q85.05 259.4 83.8 260.9 85.55 259.75 86.85 259.5 90.05 258.8 92.65 258.8 95.3 258.75 97.85 261.0 98.9 262.1 100.05 264.5 L100.1 264.75 100.1 266.65 Q100.25 267.9 99.8 268.35 99.5 266.85 98.45 265.0 97.4 263.05 95.25 262.1 L95.7 262.65 96.35 263.45 Q97.1 264.8 96.85 266.25 95.9 270.25 93.5 269.5 92.7 265.65 91.9 264.3 L91.2 263.4 Q90.45 262.8 90.35 262.95 L90.25 262.85 90.45 263.1 M56.55 245.2 L61.95 245.7 Q65.05 245.65 67.05 244.9 L70.05 266.9 Q68.0 268.15 62.35 269.55 56.7 270.85 52.15 270.4 48.2 269.95 48.65 266.65 L48.9 266.2 Q49.95 264.05 50.15 263.95 48.4 264.9 47.7 267.4 L46.9 269.9 Q43.15 272.2 46.45 264.6 L45.7 265.7 Q46.85 263.5 47.6 263.1 47.5 262.95 46.15 264.55 L44.75 266.85 Q43.95 267.6 43.9 266.95 L42.5 270.3 43.15 270.75 43.15 270.8 42.4 270.45 Q43.6 266.8 45.95 263.45 48.25 260.15 52.15 259.7 56.95 259.2 61.6 263.3 L56.55 245.2 M47.5 271.8 Q51.25 272.25 58.0 271.8 L71.0 270.2 71.0 270.25 Q61.25 272.05 53.7 272.15 L47.45 271.85 47.5 271.8" fill="#7fb0d2" fill-rule="evenodd" stroke="none"/>
    <path d="M82.15 118.8 L81.55 118.0 Q84.85 118.6 88.05 116.95 93.0 129.95 90.15 141.25 92.65 130.05 88.0 117.35 L85.3 118.4 82.15 118.8 M59.5 118.45 L59.25 118.75 55.65 118.4 52.95 117.35 Q48.25 130.05 50.8 141.25 47.95 129.95 52.9 116.95 56.25 118.65 59.7 117.95 L59.5 118.45 M72.35 126.3 L72.1 126.6 71.75 126.75 70.95 126.85 70.25 126.75 Q69.6 126.6 69.55 126.3 69.65 125.8 70.95 125.75 L72.1 126.0 72.35 126.3" fill="#666666" fill-rule="evenodd" stroke="none"/>
    <path d="M110.75 149.2 Q105.75 164.5 97.55 173.55 L97.0 173.6 96.45 173.35 Q89.45 170.0 84.0 166.65 L84.25 166.5 97.3 173.3 Q105.45 164.15 110.75 149.2 M88.3 242.55 L86.8 259.05 92.85 258.45 Q95.6 258.4 98.25 260.65 99.45 261.95 100.5 264.45 101.5 266.9 101.3 270.35 101.2 270.8 100.75 270.85 87.55 272.0 76.15 270.75 75.75 270.7 75.65 270.3 L77.1 243.1 77.7 243.25 76.2 270.2 91.45 270.95 91.65 266.25 Q91.75 264.55 90.45 263.1 L90.25 262.85 90.35 262.95 Q90.45 262.8 91.2 263.4 L91.9 264.3 92.05 264.7 Q92.25 265.75 92.1 267.55 L92.05 270.9 96.8 270.65 Q97.2 269.25 97.25 266.9 97.3 265.1 96.35 263.45 L95.7 262.65 95.45 262.25 Q98.15 264.1 97.95 266.85 97.75 269.5 97.25 270.5 L97.2 270.65 100.85 270.3 Q101.05 267.05 100.1 264.75 L100.05 264.5 Q98.9 262.1 97.85 261.0 95.3 258.75 92.65 258.8 90.05 258.8 86.85 259.5 85.55 259.75 83.8 260.9 85.05 259.4 86.1 259.05 L87.5 244.75 87.55 244.75 87.75 242.7 88.3 242.55 M68.3 242.5 Q68.3 245.55 68.8 249.95 69.9 260.5 71.5 270.25 61.55 272.35 53.75 272.4 45.95 272.5 42.05 270.6 43.15 266.6 45.4 263.4 47.6 260.2 51.5 259.3 56.75 258.45 60.95 262.25 59.15 254.75 56.65 246.65 L55.75 243.35 56.0 243.4 56.55 245.2 61.6 263.3 Q56.95 259.2 52.15 259.7 48.25 260.15 45.95 263.45 43.6 266.8 42.4 270.45 L43.15 270.8 43.15 270.75 44.75 266.85 46.15 264.55 Q47.5 262.95 47.6 263.1 46.85 263.5 45.7 265.7 L45.5 266.05 Q44.3 268.45 43.95 271.05 L46.35 271.65 46.6 271.7 46.5 271.45 46.9 269.9 47.7 267.4 Q48.4 264.9 50.15 263.95 49.95 264.05 48.9 266.2 L48.65 266.65 Q47.7 268.65 47.5 271.8 L47.45 271.85 53.7 272.15 Q61.25 272.05 71.0 270.25 L71.0 270.2 68.3 250.4 Q67.85 245.9 67.9 242.65 L68.3 242.5 M59.2 185.15 L52.0 177.15 50.85 175.8 Q50.4 175.05 50.6 174.55 51.45 172.35 53.15 169.15 L54.9 166.2 55.1 166.35 53.45 169.4 Q51.8 172.5 51.0 174.65 L51.05 174.9 51.0 174.85 Q51.2 176.05 59.25 184.6 L59.2 185.15 M68.25 150.65 L67.45 144.6 68.0 144.6 68.85 151.15 68.25 150.65 M58.15 133.5 Q56.75 130.65 56.65 127.1 56.75 122.9 58.7 119.65 L59.25 118.75 59.5 118.45 60.05 117.75 60.8 116.95 Q64.7 112.9 70.7 112.75 76.6 112.9 80.6 116.95 L81.15 117.6 81.55 118.0 82.15 118.8 82.85 119.9 Q84.6 123.05 84.7 127.1 84.6 130.05 83.65 132.55 L82.75 131.9 84.1 127.15 84.1 127.1 Q84.0 123.25 82.35 120.25 L82.1 119.75 80.15 117.35 Q76.35 113.4 70.6 113.3 64.85 113.4 61.0 117.35 59.9 118.5 59.15 119.75 57.15 122.9 57.05 127.1 L57.05 127.15 58.85 133.15 58.15 133.5 M74.0 144.7 L73.3 150.75 72.9 150.7 73.55 144.75 74.0 144.7 M89.65 161.8 L96.9 167.35 Q101.9 160.4 108.35 145.55 L108.7 145.9 107.95 147.4 108.05 147.5 Q101.9 161.25 97.1 167.85 L89.8 162.3 89.5 162.05 89.65 161.8 M59.7 167.8 L60.0 167.8 58.15 170.45 Q56.65 172.9 56.05 174.7 L59.65 178.85 59.6 179.45 55.6 174.75 55.9 173.95 56.0 173.7 57.65 170.8 57.65 170.75 57.85 170.4 57.9 170.3 59.7 167.8" fill="#313494" fill-rule="evenodd" stroke="none"/>
    <path d="M111.45 147.25 L110.75 149.2 Q105.45 164.15 97.3 173.3 L84.25 166.5 84.3 166.5 85.3 165.95 Q87.7 164.5 89.5 162.05 L89.8 162.3 90.7 163.0 Q90.85 163.35 89.45 164.75 L87.25 167.05 93.65 171.05 Q96.4 172.65 97.2 172.55 98.7 171.85 101.55 167.05 L106.9 157.0 Q109.4 151.65 109.85 149.3 L108.05 147.5 107.95 147.4 108.7 145.9 Q109.6 146.85 111.2 147.25 L111.45 147.25 M82.1 119.75 L82.35 120.25 Q84.0 123.25 84.1 127.1 L84.1 127.15 82.75 131.9 81.75 131.6 Q83.2 128.85 83.3 125.4 83.3 122.3 82.1 119.75 M59.15 119.75 Q57.9 122.35 57.85 125.4 58.0 129.5 60.0 132.6 L58.85 133.15 57.05 127.15 57.05 127.1 Q57.15 122.9 59.15 119.75 M73.55 144.75 L72.9 150.7 72.45 150.65 71.0 151.85 Q70.55 152.85 70.6 154.15 L70.7 154.85 70.45 155.25 70.05 153.85 Q70.0 152.7 69.6 151.85 L68.85 151.15 68.0 144.6 73.55 144.75 M59.7 167.8 L57.9 170.3 57.65 170.75 57.65 170.8 56.0 173.7 55.9 173.95 55.55 174.7 Q56.25 172.0 57.35 170.25 54.75 169.9 53.85 168.55 L55.15 166.35 Q57.35 167.75 59.7 167.8 M51.05 174.9 Q57.15 181.95 59.3 183.15 L59.25 184.6 Q51.2 176.05 51.0 174.85 L51.05 174.9 M87.5 244.75 L82.95 245.35 78.4 245.05 78.2 249.8 77.65 263.95 Q77.1 266.85 79.1 268.05 81.1 269.2 83.6 269.3 L87.3 269.0 90.0 268.1 Q90.5 267.7 90.95 266.15 91.35 264.6 90.45 263.1 91.75 264.55 91.65 266.25 L91.45 270.95 76.2 270.2 77.7 243.25 Q82.05 244.35 87.75 242.7 L87.55 244.75 87.5 244.75 M91.9 264.3 Q92.7 265.65 93.5 269.5 95.9 270.25 96.85 266.25 97.1 264.8 96.35 263.45 97.3 265.1 97.25 266.9 97.2 269.25 96.8 270.65 L92.05 270.9 92.1 267.55 Q92.25 265.75 92.05 264.7 L91.9 264.3 M95.7 262.65 L95.25 262.1 Q97.4 263.05 98.45 265.0 99.5 266.85 99.8 268.35 100.25 267.9 100.1 266.65 L100.1 264.75 Q101.05 267.05 100.85 270.3 L97.2 270.65 97.25 270.5 Q97.75 269.5 97.95 266.85 98.15 264.1 95.45 262.25 L95.7 262.65 M56.55 245.2 L56.0 243.4 Q61.65 244.6 67.9 242.65 67.85 245.9 68.3 250.4 L71.0 270.2 58.0 271.8 Q51.25 272.25 47.5 271.8 47.7 268.65 48.65 266.65 48.2 269.95 52.15 270.4 56.7 270.85 62.35 269.55 68.0 268.15 70.05 266.9 L67.05 244.9 Q65.05 245.65 61.95 245.7 L56.55 245.2 M46.9 269.9 L46.5 271.45 46.6 271.7 46.35 271.65 43.95 271.05 Q44.3 268.45 45.5 266.05 L45.7 265.7 46.45 264.6 Q43.15 272.2 46.9 269.9 M44.75 266.85 L43.15 270.75 42.5 270.3 43.9 266.95 Q43.95 267.6 44.75 266.85" fill="#6792c4" fill-rule="evenodd" stroke="none"/>
    <path d="M79.2 136.25 L79.55 136.75 80.55 136.45 81.6 135.65 Q82.85 134.45 83.05 133.2 L81.3 132.35 79.9 132.25 Q78.7 129.75 76.9 128.75 L76.05 128.35 75.9 128.0 Q78.95 129.1 80.55 131.75 L81.6 131.9 82.6 132.3 83.5 132.9 Q84.4 133.65 84.6 135.0 84.05 138.3 80.5 140.3 L78.5 142.85 Q76.45 144.15 74.05 144.4 L73.6 144.4 66.5 144.3 Q62.65 144.15 61.1 140.55 L60.7 139.95 Q57.75 138.65 57.55 135.55 57.8 134.65 58.4 134.05 L59.0 133.5 Q59.5 133.15 60.2 132.9 L61.1 132.55 61.55 132.3 Q62.7 129.9 65.1 128.65 L64.95 129.3 61.55 132.75 60.45 133.25 60.1 133.35 Q59.55 133.4 59.15 134.0 L59.0 134.15 Q59.15 135.2 60.4 136.3 L60.85 136.65 Q61.8 137.35 62.6 137.2 L63.6 136.65 63.85 136.7 64.0 136.2 64.55 134.85 66.3 132.75 Q67.75 134.0 70.65 134.2 73.95 133.95 75.4 132.35 76.6 132.95 77.4 134.05 77.2 134.6 77.4 134.75 L77.8 134.55 78.6 135.45 78.65 135.45 78.6 135.5 Q78.3 136.15 78.7 136.45 L79.2 136.25 M77.0 136.05 Q76.8 136.45 77.1 136.7 77.3 136.8 77.6 136.35 L77.5 135.7 Q77.2 135.6 77.0 136.05 M77.5 141.25 Q79.15 140.85 80.65 138.85 L83.2 135.3 Q81.7 136.7 80.2 138.7 78.7 140.7 76.8 140.95 L74.3 140.35 74.2 140.35 70.75 139.95 67.25 140.4 67.15 140.4 67.0 140.45 65.0 140.95 Q63.1 140.65 61.85 138.75 60.5 136.8 59.15 135.9 61.2 139.95 64.15 141.25 L67.2 140.95 68.1 140.65 68.2 140.6 70.8 140.3 72.8 140.7 77.5 141.25 M70.4 140.6 L69.15 140.75 67.85 141.1 Q67.15 141.35 66.6 141.7 L74.05 141.55 74.3 141.6 74.2 141.55 73.4 141.1 72.1 140.75 70.4 140.6 M68.1 143.0 L68.2 143.0 70.2 143.3 73.75 142.8 74.25 142.6 74.6 142.2 74.25 142.35 73.8 142.5 70.75 142.9 68.95 142.85 67.5 142.6 66.55 142.25 67.25 142.7 68.1 143.0" fill="#e6ac0e" fill-rule="evenodd" stroke="none"/>
    <path d="M77.75 132.2 Q77.9 131.7 77.7 131.5 77.45 131.4 77.2 131.85 77.05 132.3 77.25 132.5 L77.75 132.2 M76.05 128.35 L76.9 128.75 Q78.7 129.75 79.9 132.25 L81.3 132.35 83.05 133.2 Q82.85 134.45 81.6 135.65 L80.55 136.45 79.55 136.75 79.2 136.25 79.4 135.95 Q79.65 135.2 79.35 134.95 78.95 134.8 78.65 135.45 L78.6 135.45 77.8 134.55 78.0 134.25 Q78.2 133.6 78.0 133.45 77.7 133.35 77.45 134.0 L77.4 134.05 Q76.6 132.95 75.4 132.35 76.25 131.45 76.45 130.1 76.45 129.2 76.05 128.35 M66.3 132.75 L64.55 134.85 64.0 136.2 63.95 136.05 Q63.7 135.6 63.45 135.7 63.2 135.85 63.35 136.35 L63.6 136.65 62.6 137.2 Q61.8 137.35 60.85 136.65 L60.4 136.3 Q59.15 135.2 59.0 134.15 L59.15 134.0 Q59.55 133.4 60.1 133.35 L60.45 133.25 61.55 132.75 64.95 129.3 64.9 130.1 Q65.1 131.75 66.3 132.75 M63.8 131.85 L63.3 131.5 Q63.05 131.7 63.25 132.2 L63.75 132.5 63.8 131.85 M70.4 140.6 L72.1 140.75 73.4 141.1 74.2 141.55 74.3 141.6 74.05 141.55 66.6 141.7 Q67.15 141.35 67.85 141.1 L69.15 140.75 70.4 140.6 M62.35 136.45 Q62.7 136.15 62.4 135.5 62.1 134.8 61.7 134.95 61.35 135.2 61.6 135.95 61.95 136.6 62.35 136.45 M63.6 134.75 Q63.8 134.6 63.6 134.0 63.3 133.35 63.0 133.45 62.75 133.6 63.05 134.25 L63.6 134.75" fill="#e6ca50" fill-rule="evenodd" stroke="none"/>
    <path d="M67.45 144.6 L66.45 144.6 Q62.3 144.4 60.7 140.6 L60.4 140.15 Q57.4 138.8 57.15 135.45 57.25 134.15 58.15 133.5 L58.85 133.15 60.0 132.6 60.9 132.2 61.15 132.0 Q62.0 130.4 63.3 129.3 L63.55 129.1 65.4 127.95 65.1 128.65 Q62.7 129.9 61.55 132.3 L61.1 132.55 60.2 132.9 Q59.5 133.15 59.0 133.5 L58.4 134.05 Q57.8 134.65 57.55 135.55 57.75 138.65 60.7 139.95 L61.1 140.55 Q62.65 144.15 66.5 144.3 L73.6 144.4 74.05 144.4 Q76.45 144.15 78.5 142.85 L80.5 140.3 Q84.05 138.3 84.6 135.0 84.4 133.65 83.5 132.9 L82.6 132.3 81.6 131.9 80.55 131.75 Q78.95 129.1 75.9 128.0 L75.55 127.45 76.3 127.7 78.1 128.7 78.4 128.9 Q79.8 129.95 80.7 131.4 L81.75 131.6 82.75 131.9 83.65 132.55 Q84.6 133.4 84.95 134.95 84.85 136.95 83.5 138.15 L80.6 140.5 80.15 141.05 79.75 141.7 78.65 143.15 Q76.5 144.45 74.0 144.7 L73.55 144.75 68.0 144.6 67.45 144.6 M77.5 141.25 L72.8 140.7 70.8 140.3 68.2 140.6 68.1 140.65 67.2 140.95 64.15 141.25 Q61.2 139.95 59.15 135.9 60.5 136.8 61.85 138.75 63.1 140.65 65.0 140.95 L67.0 140.45 67.15 140.4 67.25 140.4 70.75 139.95 74.2 140.35 74.3 140.35 76.8 140.95 Q78.7 140.7 80.2 138.7 81.7 136.7 83.2 135.3 L80.65 138.85 Q79.15 140.85 77.5 141.25 M74.95 203.15 Q79.9 202.55 84.6 200.05 L85.35 204.7 Q89.0 213.95 90.5 222.25 91.8 229.45 92.05 238.1 89.15 239.8 83.65 240.5 80.75 240.85 78.45 240.55 L77.3 239.05 Q75.65 236.9 75.55 234.1 75.45 230.2 78.85 228.15 L74.45 228.5 65.35 227.95 Q67.55 229.5 68.25 230.6 69.0 231.75 68.9 234.65 68.45 237.6 67.4 240.15 L62.25 240.8 Q56.6 241.1 53.4 239.55 52.7 231.85 53.5 224.55 54.45 216.0 57.8 204.7 L58.7 200.35 Q63.25 202.4 67.55 203.0 L67.45 203.05 67.35 203.05 67.3 203.25 64.3 202.7 63.85 206.8 67.0 207.4 67.35 208.5 67.45 208.55 Q71.1 209.75 74.8 208.55 L74.9 208.5 75.35 207.35 78.9 206.7 78.5 202.9 75.05 203.4 74.95 203.15 M68.1 143.0 L67.25 142.7 66.55 142.25 67.5 142.6 68.95 142.85 70.75 142.9 73.8 142.5 74.25 142.35 74.6 142.2 74.25 142.6 73.75 142.8 70.2 143.3 68.2 143.0 68.1 143.0 M80.25 202.4 L80.8 206.25 84.9 204.75 84.4 200.4 Q82.6 201.65 80.25 202.4 M80.5 243.1 L78.85 241.1 83.1 241.05 Q88.6 240.6 92.05 238.8 L92.05 240.9 Q85.55 243.4 80.5 243.1 M58.05 204.8 Q59.85 205.65 61.95 206.3 L62.55 202.2 58.8 200.7 58.05 204.8 M66.15 242.6 Q59.85 244.0 53.65 242.15 L53.45 240.1 Q56.15 241.65 60.85 241.55 L67.15 240.8 66.15 242.6" fill="#996400" fill-rule="evenodd" stroke="none"/>
    <path d="M77.75 132.2 L77.25 132.5 Q77.05 132.3 77.2 131.85 77.45 131.4 77.7 131.5 77.9 131.7 77.75 132.2 M79.2 136.25 L78.7 136.45 Q78.3 136.15 78.6 135.5 L78.65 135.45 Q78.95 134.8 79.35 134.95 79.65 135.2 79.4 135.95 L79.2 136.25 M77.8 134.55 L77.4 134.75 Q77.2 134.6 77.4 134.05 L77.45 134.0 Q77.7 133.35 78.0 133.45 78.2 133.6 78.0 134.25 L77.8 134.55 M64.0 136.2 L63.85 136.7 63.6 136.65 63.35 136.35 Q63.2 135.85 63.45 135.7 63.7 135.6 63.95 136.05 L64.0 136.2 M77.0 136.05 Q77.2 135.6 77.5 135.7 L77.6 136.35 Q77.3 136.8 77.1 136.7 76.8 136.45 77.0 136.05 M63.8 131.85 L63.75 132.5 63.25 132.2 Q63.05 131.7 63.3 131.5 L63.8 131.85 M63.6 134.75 L63.05 134.25 Q62.75 133.6 63.0 133.45 63.3 133.35 63.6 134.0 63.8 134.6 63.6 134.75 M62.35 136.45 Q61.95 136.6 61.6 135.95 61.35 135.2 61.7 134.95 62.1 134.8 62.4 135.5 62.7 136.15 62.35 136.45" fill="#ad811f" fill-rule="evenodd" stroke="none"/>
    <path d="M78.3 120.65 Q79.5 121.7 79.55 122.9 78.25 120.1 75.4 119.75 77.1 119.6 78.3 120.65 M66.1 119.75 Q63.3 120.1 61.95 122.9 62.0 121.7 63.2 120.65 64.4 119.6 66.1 119.75" fill="#bdd5e4" fill-rule="evenodd" stroke="none"/>
    <path d="M84.0 166.65 Q82.35 167.35 81.3 167.05 82.15 170.7 82.85 177.15 L84.65 199.4 84.7 200.0 84.6 200.05 Q79.9 202.55 74.95 203.15 L74.9 203.05 74.8 203.05 73.95 202.95 Q79.25 202.45 84.25 199.85 L84.25 199.7 84.3 199.65 83.4 188.15 81.15 167.35 80.2 164.3 80.6 165.05 80.65 165.05 81.9 164.75 83.8 163.9 84.05 163.75 84.7 163.35 Q86.55 162.2 87.5 160.5 L87.65 160.3 87.65 160.2 85.5 158.55 Q83.35 157.05 81.55 155.15 79.9 153.6 78.25 153.35 L75.2 152.95 Q73.1 154.15 71.65 156.0 L71.75 156.05 Q72.3 156.75 71.85 157.8 71.25 158.65 70.7 157.95 L70.5 157.7 70.45 164.65 Q71.0 164.05 71.55 164.65 72.1 165.35 71.65 166.4 71.05 167.25 70.5 166.55 L70.45 166.55 70.45 175.4 71.6 175.35 Q72.15 176.0 71.7 177.1 71.1 177.9 70.55 177.2 L70.45 177.15 70.5 187.8 71.6 187.75 Q72.15 188.45 71.7 189.5 71.1 190.35 70.55 189.65 L70.5 189.6 Q70.5 195.2 70.65 199.45 L70.75 202.7 70.35 202.75 70.2 199.45 Q70.0 195.0 69.95 189.15 L70.2 156.0 69.95 155.0 69.9 154.9 Q69.65 155.65 69.05 156.05 67.7 154.35 65.9 153.2 L65.6 153.0 Q62.65 153.55 59.7 155.6 57.15 157.9 54.4 162.75 L56.3 164.25 56.45 164.4 57.6 164.9 58.05 165.05 58.7 165.15 Q60.0 165.4 61.55 165.15 L61.55 165.0 63.3 161.15 64.0 160.0 63.3 161.65 63.35 161.1 61.85 166.2 61.75 166.6 61.5 167.85 Q60.65 171.5 60.1 177.85 L59.95 180.05 59.9 180.75 59.1 197.5 59.05 200.15 Q64.05 202.35 68.85 202.85 L67.55 203.0 Q63.25 202.4 58.7 200.35 L58.7 200.3 58.7 199.95 Q58.65 196.55 58.9 190.55 L59.2 185.15 59.25 184.6 59.3 183.15 59.6 179.45 59.65 178.85 59.75 177.8 Q60.25 171.4 61.1 167.7 L60.0 167.8 59.7 167.8 Q57.35 167.75 55.15 166.35 L55.1 166.35 54.9 166.2 52.85 164.6 Q56.25 158.2 59.5 155.25 62.25 153.25 65.05 152.6 65.65 150.8 68.2 150.65 L68.25 150.65 68.85 151.15 69.6 151.85 Q70.0 152.7 70.05 153.85 L70.45 155.25 70.7 154.85 70.6 154.15 Q70.55 152.85 71.0 151.85 L72.45 150.65 72.9 150.7 73.3 150.75 Q74.95 151.15 75.5 152.45 L78.3 152.9 Q80.1 153.2 81.8 154.9 84.0 157.05 86.4 158.75 L89.75 161.65 89.65 161.8 89.5 162.05 Q87.7 164.5 85.3 165.95 L84.3 166.5 84.25 166.5 84.0 166.65 M65.6 152.45 L66.3 152.95 Q67.9 154.0 69.1 155.45 70.0 154.15 69.25 152.05 L68.05 151.05 Q66.15 151.2 65.6 152.45 M70.9 155.4 L70.75 156.0 Q70.95 155.75 71.2 155.8 L70.9 155.4 M75.05 152.45 Q74.65 151.4 73.25 151.15 L72.55 151.05 71.4 152.05 Q70.65 154.15 71.55 155.45 73.0 153.7 74.95 152.5 L75.05 152.45 M71.0 164.55 Q70.45 164.65 70.4 165.6 70.45 166.4 71.0 166.5 71.55 166.4 71.65 165.6 71.55 164.65 71.0 164.55 M70.55 157.0 Q70.6 157.8 71.15 157.9 71.7 157.8 71.8 157.0 71.7 156.05 71.15 155.95 70.6 156.05 70.55 157.0 M61.0 166.85 L61.0 166.8 61.05 166.65 60.6 166.65 57.45 166.2 55.7 165.5 55.45 165.35 53.7 163.95 53.35 164.6 55.1 165.95 55.25 166.05 55.3 166.1 Q57.65 167.45 60.05 167.3 L60.4 167.3 60.95 167.2 61.0 166.85 M60.6 166.25 L61.05 166.25 61.05 166.2 60.6 166.25 M71.05 175.25 Q70.5 175.35 70.45 176.25 70.5 177.1 71.05 177.15 71.6 177.1 71.7 176.25 71.6 175.35 71.05 175.25 M70.5 188.5 L70.45 188.7 70.5 188.95 Q70.6 189.6 71.05 189.65 71.6 189.55 71.7 188.7 71.6 187.8 71.05 187.7 70.55 187.8 70.5 188.5 M84.2 164.55 L85.2 163.95 Q87.4 162.5 88.2 161.05 L88.35 160.85 88.35 160.8 87.95 160.35 87.9 160.5 87.75 160.7 Q86.85 162.2 85.05 163.5 L83.25 164.6 81.7 165.25 81.4 165.35 81.0 165.4 81.05 165.45 81.0 165.45 81.1 165.65 81.1 165.9 Q82.8 165.65 84.45 164.75 L84.2 164.55 M85.05 165.7 Q87.4 164.3 89.15 161.8 L89.15 161.75 88.6 161.1 88.5 161.3 Q87.6 162.75 85.55 164.2 L84.55 164.85 82.6 165.8 81.05 166.2 81.2 166.85 Q81.2 167.2 82.55 166.85 L82.65 166.85 82.8 166.8 82.85 166.8 84.1 166.4 85.0 166.1 85.05 165.7 M78.35 160.8 L78.4 161.0 77.95 160.1 78.35 160.8" fill="#f16810" fill-rule="evenodd" stroke="none"/>
    <path d="M70.75 202.7 L70.65 199.45 Q70.5 195.2 70.5 189.6 L70.55 189.65 Q71.1 190.35 71.7 189.5 72.15 188.45 71.6 187.75 L70.5 187.8 70.45 177.15 70.55 177.2 Q71.1 177.9 71.7 177.1 72.15 176.0 71.6 175.35 L70.45 175.4 70.45 166.55 70.5 166.55 Q71.05 167.25 71.65 166.4 72.1 165.35 71.55 164.65 71.0 164.05 70.45 164.65 L70.5 157.7 70.7 157.95 Q71.25 158.65 71.85 157.8 72.3 156.75 71.75 156.05 L71.65 156.0 Q73.1 154.15 75.2 152.95 L78.25 153.35 Q79.9 153.6 81.55 155.15 83.35 157.05 85.5 158.55 L87.65 160.2 87.65 160.3 87.5 160.5 Q86.55 162.2 84.7 163.35 L84.05 163.75 83.8 163.9 82.25 162.3 Q79.0 159.2 76.55 157.45 L78.25 160.5 78.35 160.8 77.95 160.1 78.4 161.0 Q80.8 169.95 82.05 180.7 83.3 191.85 82.7 200.45 83.65 200.25 84.25 199.7 L84.25 199.85 Q79.25 202.45 73.95 202.95 L70.75 202.7 M80.65 165.05 L80.6 165.05 80.2 164.3 79.4 162.6 80.65 165.05 M58.05 165.05 L57.6 164.9 56.45 164.4 56.3 164.25 54.4 162.75 Q57.15 157.9 59.7 155.6 62.65 153.55 65.6 153.0 L65.9 153.2 Q67.7 154.35 69.05 156.05 69.65 155.65 69.9 154.9 L69.95 155.0 70.2 156.0 69.95 189.15 Q70.0 195.0 70.2 199.45 L70.35 202.75 68.85 202.85 Q64.05 202.35 59.05 200.15 L59.1 197.5 59.1 200.05 60.95 200.8 Q59.65 184.5 63.3 161.65 L64.0 160.0 63.3 161.15 65.6 156.95 Q63.25 158.75 60.0 162.5 L58.1 164.9 58.05 165.05 M70.9 155.4 L71.2 155.8 Q70.95 155.75 70.75 156.0 L70.9 155.4 M61.75 166.6 L61.55 167.75 Q60.65 171.4 60.15 177.75 L59.95 180.05 60.1 177.85 Q60.65 171.5 61.5 167.85 L61.75 166.6 M57.45 166.2 Q57.25 166.7 57.45 166.9 L60.15 167.2 60.45 167.2 60.95 167.1 61.0 166.85 60.95 167.2 60.4 167.3 60.05 167.3 Q57.65 167.45 55.3 166.1 L55.25 166.05 55.1 165.95 53.35 164.6 53.7 163.95 55.45 165.35 55.7 165.5 57.45 166.2 M60.6 166.25 L61.05 166.2 61.05 166.25 60.6 166.25 M81.4 165.35 L81.7 165.25 83.25 164.6 85.05 163.5 Q86.85 162.2 87.75 160.7 L87.9 160.5 87.95 160.35 88.35 160.8 88.35 160.85 88.2 161.05 Q87.4 162.5 85.2 163.95 L84.2 164.55 84.05 164.4 81.4 165.35 M84.55 164.85 L85.55 164.2 Q87.6 162.75 88.5 161.3 L88.6 161.1 89.15 161.75 89.15 161.8 Q87.4 164.3 85.05 165.7 L84.55 164.85" fill="#fea125" fill-rule="evenodd" stroke="none"/>
    <path d="M65.6 152.45 Q66.15 151.2 68.05 151.05 L69.25 152.05 Q70.0 154.15 69.1 155.45 67.9 154.0 66.3 152.95 L65.6 152.45 M75.05 152.45 L74.95 152.5 Q73.0 153.7 71.55 155.45 70.65 154.15 71.4 152.05 L72.55 151.05 73.25 151.15 Q74.65 151.4 75.05 152.45 M70.55 157.0 Q70.6 156.05 71.15 155.95 71.7 156.05 71.8 157.0 71.7 157.8 71.15 157.9 70.6 157.8 70.55 157.0 M71.0 164.55 Q71.55 164.65 71.65 165.6 71.55 166.4 71.0 166.5 70.45 166.4 70.4 165.6 70.45 164.65 71.0 164.55 M71.05 175.25 Q71.6 175.35 71.7 176.25 71.6 177.1 71.05 177.15 70.5 177.1 70.45 176.25 70.5 175.35 71.05 175.25 M70.5 188.5 Q70.55 187.8 71.05 187.7 71.6 187.8 71.7 188.7 71.6 189.55 71.05 189.65 70.6 189.6 70.5 188.95 L70.45 188.7 70.5 188.5" fill="#fd6720" fill-rule="evenodd" stroke="none"/>
    <path d="M83.8 163.9 L81.9 164.75 80.65 165.05 79.4 162.6 80.2 164.3 81.15 167.35 83.4 188.15 84.3 199.65 84.25 199.7 Q83.65 200.25 82.7 200.45 83.3 191.85 82.05 180.7 80.8 169.95 78.4 161.0 L78.35 160.8 78.25 160.5 76.55 157.45 Q79.0 159.2 82.25 162.3 L83.8 163.9 M58.05 165.05 L58.1 164.9 60.0 162.5 Q63.25 158.75 65.6 156.95 L63.3 161.15 61.55 165.0 61.55 165.15 Q60.0 165.4 58.7 165.15 L58.05 165.05 M63.3 161.65 Q59.65 184.5 60.95 200.8 L59.1 200.05 59.1 197.5 59.9 180.75 59.95 180.05 60.15 177.75 Q60.65 171.4 61.55 167.75 L61.75 166.6 61.85 166.2 63.35 161.1 63.3 161.65 M61.0 166.85 L60.95 167.1 60.45 167.2 60.15 167.2 57.45 166.9 Q57.25 166.7 57.45 166.2 L60.6 166.65 61.05 166.65 61.0 166.8 61.0 166.85 M81.4 165.35 L84.05 164.4 84.2 164.55 84.45 164.75 Q82.8 165.65 81.1 165.9 L81.1 165.65 81.0 165.45 81.05 165.45 81.0 165.4 81.4 165.35 M85.05 165.7 L85.0 166.1 84.1 166.4 82.85 166.8 82.8 166.8 82.65 166.85 82.55 166.85 Q81.2 167.2 81.2 166.85 L81.05 166.2 82.6 165.8 84.55 164.85 85.05 165.7 M78.5 160.9 L79.4 162.6 78.5 160.9" fill="#fc841f" fill-rule="evenodd" stroke="none"/>
    <path d="M84.65 199.4 L85.65 204.3 Q89.3 213.75 90.9 222.2 92.4 230.7 92.5 240.95 L88.3 242.55 87.75 242.7 Q82.05 244.35 77.7 243.25 L77.1 243.1 74.5 242.05 72.15 229.9 71.55 229.9 69.75 242.0 68.3 242.5 67.9 242.65 Q61.65 244.6 56.0 243.4 L55.75 243.35 53.4 242.7 Q51.85 233.0 52.95 224.35 54.05 215.65 57.45 204.45 L58.7 199.95 58.7 200.3 58.7 200.35 57.8 204.7 Q54.45 216.0 53.5 224.55 52.7 231.85 53.4 239.55 L53.3 239.5 53.3 240.0 53.45 240.1 53.65 242.15 Q59.85 244.0 66.15 242.6 L66.1 242.7 69.25 241.75 69.3 241.65 69.55 240.15 71.2 229.45 72.65 229.35 74.8 241.75 Q77.4 242.95 80.55 243.2 L80.5 243.1 Q85.55 243.4 92.05 240.9 L92.05 238.8 92.2 238.7 92.2 237.95 92.05 238.1 Q91.8 229.45 90.5 222.25 89.0 213.95 85.35 204.7 L84.6 200.05 84.7 200.0 84.65 199.4" fill="#1b100f" fill-rule="evenodd" stroke="none"/>
    <path d="M75.05 203.4 L78.5 202.9 78.9 206.7 75.35 207.35 Q75.8 205.45 75.05 203.4 M67.0 207.4 L63.85 206.8 64.3 202.7 67.3 203.25 Q66.85 204.15 66.8 205.2 L66.15 205.1 66.0 205.15 Q65.6 205.5 65.95 206.0 L66.05 206.1 66.8 206.2 67.0 207.4 M53.4 239.55 Q56.6 241.1 62.25 240.8 L67.4 240.15 69.6 239.4 69.55 240.15 67.15 240.8 60.85 241.55 Q56.15 241.65 53.45 240.1 L53.3 240.0 53.3 239.5 53.4 239.55 M78.45 240.55 Q80.75 240.85 83.65 240.5 89.15 239.8 92.05 238.1 L92.2 237.95 92.2 238.7 92.05 238.8 Q88.6 240.6 83.1 241.05 L78.85 241.1 Q76.2 240.85 74.5 239.85 L74.5 239.35 Q76.2 240.3 78.45 240.55 M80.25 202.4 Q82.6 201.65 84.4 200.4 L84.9 204.75 80.8 206.25 80.25 202.4 M58.05 204.8 L58.8 200.7 62.55 202.2 61.95 206.3 Q59.85 205.65 58.05 204.8" fill="#6e250c" fill-rule="evenodd" stroke="none"/>
    <path d="M67.4 240.15 Q68.45 237.6 68.9 234.65 69.0 231.75 68.25 230.6 67.55 229.5 65.35 227.95 L74.45 228.5 78.85 228.15 Q75.45 230.2 75.55 234.1 75.65 236.9 77.3 239.05 L78.45 240.55 Q76.2 240.3 74.5 239.35 L74.5 239.85 Q76.2 240.85 78.85 241.1 L80.5 243.1 80.55 243.2 Q77.4 242.95 74.8 241.75 L72.65 229.35 71.2 229.45 69.55 240.15 69.6 239.4 67.4 240.15 M67.15 240.8 L69.55 240.15 69.3 241.65 69.25 241.75 66.1 242.7 66.15 242.6 67.15 240.8" fill="#825500" fill-rule="evenodd" stroke="none"/>
    <path d="M73.95 202.95 L74.8 203.05 74.9 203.05 74.95 203.15 75.05 203.4 Q75.8 205.45 75.35 207.35 L74.9 208.5 74.8 208.55 Q71.1 209.75 67.45 208.55 L67.35 208.5 67.0 207.4 66.8 206.2 66.05 206.1 65.95 206.0 Q65.6 205.5 66.0 205.15 L66.15 205.1 66.8 205.2 Q66.85 204.15 67.3 203.25 L67.35 203.05 67.45 203.05 67.55 203.0 68.85 202.85 70.35 202.75 70.75 202.7 73.95 202.95 M74.8 203.2 L74.8 203.15 74.75 203.2 70.75 202.85 68.0 203.1 67.5 203.2 Q67.05 204.15 66.95 205.2 L67.65 205.3 68.0 203.85 Q71.0 203.4 74.2 203.85 L74.2 204.05 Q74.8 206.05 74.2 207.75 L73.4 207.95 68.0 207.75 67.7 206.55 67.7 206.35 67.7 206.3 66.95 206.2 66.9 206.2 66.9 206.45 66.95 206.45 67.5 208.5 Q71.1 209.6 74.8 208.5 76.0 205.95 74.8 203.2 M69.4 206.15 L69.3 205.65 66.05 205.3 Q65.7 205.6 66.0 206.05 L67.6 206.3 66.1 206.0 65.9 205.65 69.4 206.15" fill="#690b09" fill-rule="evenodd" stroke="none"/>
    <path d="M74.75 203.2 L74.8 203.15 74.8 203.2 Q75.95 206.0 74.8 208.45 L72.1 209.0 73.4 207.95 74.2 207.75 Q74.8 206.05 74.2 204.05 74.4 203.5 74.75 203.2" fill="#fb7924" fill-rule="evenodd" stroke="none"/>
    <path d="M74.8 203.2 Q76.0 205.95 74.8 208.5 71.1 209.6 67.5 208.5 L66.95 206.45 67.7 206.55 68.0 207.75 73.4 207.95 72.1 209.0 74.8 208.45 Q75.95 206.0 74.8 203.2 M66.95 206.2 L67.7 206.3 67.7 206.35 66.95 206.2 M74.2 204.05 L74.2 203.85 Q71.0 203.4 68.0 203.85 L67.65 205.3 66.95 205.2 Q67.05 204.15 67.5 203.2 L68.0 203.1 70.75 202.85 74.75 203.2 Q74.4 203.5 74.2 204.05 M69.4 206.15 L65.9 205.65 66.1 206.0 67.6 206.3 66.0 206.05 Q65.7 205.6 66.05 205.3 L69.3 205.65 69.4 206.15" fill="#e6b800" fill-rule="evenodd" stroke="none"/>
    <path d="M66.95 206.45 L66.9 206.45 66.9 206.2 66.95 206.2 67.7 206.35 67.7 206.55 66.95 206.45" fill="#e67300" fill-rule="evenodd" stroke="none"/>
    <path d="M108.45 141.75 L107.95 140.45 108.7 139.9 Q104.65 140.7 102.4 137.5 100.1 134.3 102.25 132.7 104.0 132.15 106.35 133.7 108.65 135.25 111.55 134.75 L110.05 134.6 111.8 134.15 110.75 134.05 Q112.45 130.65 116.15 127.1 119.5 123.85 122.3 122.8 M82.85 119.9 Q84.6 123.05 84.7 127.1 84.6 130.05 83.65 132.55 84.6 133.4 84.95 134.95 84.85 136.95 83.5 138.15 L80.6 140.5 80.15 141.05 79.75 141.7 78.65 143.15 Q76.5 144.45 74.0 144.7 L73.3 150.75 M60.0 167.8 L61.1 167.7 Q60.25 171.4 59.75 177.8 L59.65 178.85" fill="none" stroke="#000000" stroke-linecap="round" stroke-linejoin="round" stroke-width="0.25"/>
    <path d="M108.35 145.55 L107.95 144.9 Q106.9 143.1 107.95 141.55 L107.7 140.35 Q104.35 140.3 101.9 137.3 99.4 134.3 102.1 132.35 104.0 131.75 106.0 133.1 L108.1 134.1 109.65 134.6 110.2 134.3 110.4 133.85 Q112.15 130.45 115.9 126.8 119.65 123.15 122.85 122.2 125.1 121.85 125.8 123.6 126.45 125.35 123.5 128.1 L119.85 131.0 119.3 131.55 118.85 132.2 119.15 132.3 120.5 132.35 127.0 131.75 Q130.0 132.0 132.2 133.3 134.4 134.55 134.0 136.5 133.05 138.45 130.0 137.8 L125.5 137.45 124.15 137.55 123.85 138.45 Q123.85 138.95 124.55 139.45 L128.45 141.9 Q129.7 142.65 130.45 143.9 131.05 145.1 129.95 146.05 128.8 146.95 126.05 145.8 122.8 144.25 121.85 143.5 L121.35 143.15 120.25 142.7 Q118.65 145.6 115.3 145.15 L114.4 146.3 Q113.8 147.55 111.45 147.25 M110.75 149.2 Q105.75 164.5 97.55 173.55 L97.0 173.6 96.45 173.35 Q89.45 170.0 84.0 166.65 82.35 167.35 81.3 167.05 82.15 170.7 82.85 177.15 L84.65 199.4 85.65 204.3 Q89.3 213.75 90.9 222.2 92.4 230.7 92.5 240.95 L88.3 242.55 86.8 259.05 92.85 258.45 Q95.6 258.4 98.25 260.65 99.45 261.95 100.5 264.45 101.5 266.9 101.3 270.35 101.2 270.8 100.75 270.85 87.55 272.0 76.15 270.75 75.75 270.7 75.65 270.3 L77.1 243.1 74.5 242.05 72.15 229.9 71.55 229.9 69.75 242.0 68.3 242.5 Q68.3 245.55 68.8 249.95 69.9 260.5 71.5 270.25 61.55 272.35 53.75 272.4 45.95 272.5 42.05 270.6 43.15 266.6 45.4 263.4 47.6 260.2 51.5 259.3 56.75 258.45 60.95 262.25 59.15 254.75 56.65 246.65 L55.75 243.35 53.4 242.7 Q51.85 233.0 52.95 224.35 54.05 215.65 57.45 204.45 L58.7 199.95 Q58.65 196.55 58.9 190.55 L59.2 185.15 52.0 177.15 50.85 175.8 Q50.4 175.05 50.6 174.55 51.45 172.35 53.15 169.15 L54.9 166.2 52.85 164.6 Q56.25 158.2 59.5 155.25 62.25 153.25 65.05 152.6 65.65 150.8 68.2 150.65 L68.25 150.65 67.45 144.6 66.45 144.6 Q62.3 144.4 60.7 140.6 L60.4 140.15 Q57.4 138.8 57.15 135.45 57.25 134.15 58.15 133.5 56.75 130.65 56.65 127.1 56.75 122.9 58.7 119.65 L56.45 119.9 54.5 119.15 Q51.9 133.05 54.7 146.95 53.95 149.0 52.55 149.05 46.25 134.45 52.65 116.65 56.55 118.35 60.15 117.6 L60.05 117.75 60.8 116.95 Q64.7 112.9 70.7 112.75 76.6 112.9 80.6 116.95 L81.15 117.6 Q84.55 118.3 88.2 116.65 94.55 134.45 88.3 149.05 86.9 149.0 86.2 146.95 88.9 133.05 86.35 119.15 L84.4 119.9 Q83.6 120.15 82.85 119.9 M73.3 150.75 Q74.95 151.15 75.5 152.45 L78.3 152.9 Q80.1 153.2 81.8 154.9 84.0 157.05 86.4 158.75 L89.75 161.65 89.65 161.8 M59.65 178.85 L56.05 174.7 Q56.65 172.9 58.15 170.45 L60.0 167.8 M55.1 166.35 L53.45 169.4 Q51.8 172.5 51.0 174.65 L51.05 174.9 M108.05 147.5 Q101.9 161.25 97.1 167.85 L89.8 162.3" fill="none" stroke="#000000" stroke-linecap="round" stroke-linejoin="round" stroke-width="1.0"/>
  </g>
</svg>
