<?xml version="1.0" encoding="UTF-8" standalone="no"?>
<svg xmlns:xlink="http://www.w3.org/1999/xlink" height="103.45px" width="102.2px" xmlns="http://www.w3.org/2000/svg">
  <g transform="matrix(1.0, 0.0, 0.0, 1.0, 53.05, 54.25)">
    <path d="M15.9 -54.25 L16.5 -54.25 18.9 -48.2 18.25 -47.85 46.75 -30.05 46.1 -28.85 49.15 -5.85 42.5 31.05 41.3 31.05 40.7 34.65 39.45 34.65 42.5 39.5 31.6 49.2 23.75 41.9 24.95 40.1 24.35 35.25 24.95 35.25 28.6 32.85 28.0 29.2 26.75 28.6 29.2 15.3 26.15 3.2 20.1 8.65 21.95 29.8 -0.4 33.25 -3.55 32.85 -4.7 32.85 -4.7 32.7 -25.85 29.8 -24.05 8.65 -30.1 3.2 -33.1 15.3 -30.7 28.6 -31.9 29.2 -31.9 32.85 -28.9 35.25 -28.25 35.25 -28.9 40.1 -27.05 41.9 -35.55 49.2 -46.4 39.5 -42.8 34.65 -44.0 34.65 -44.6 31.05 -46.4 31.05 -53.05 -5.85 -49.45 -28.85 -50.05 -30.05 -20.85 -47.8 -21.6 -48.2 -19.2 -54.25 -18.6 -54.25 -1.05 -48.0 15.9 -54.25 M23.75 -43.35 L24.15 -43.35 22.55 -44.55 22.3 -43.15 22.55 -43.35 22.55 -42.15 23.15 -41.55 23.75 -42.15 23.75 -42.75 24.35 -42.75 23.75 -43.35 M23.15 -41.55 L22.55 -41.55 22.2 -42.25 21.3 -36.7 15.45 -35.35 15.9 -34.9 15.9 -34.3 15.9 -33.7 24.35 -33.7 24.35 -41.55 23.15 -41.55 M23.15 -36.1 L23.75 -35.5 22.55 -34.3 21.3 -34.9 20.7 -35.5 21.3 -36.1 22.55 -36.7 23.15 -36.7 23.15 -36.1 M20.7 -37.3 L21.95 -44.55 17.7 -47.0 0.15 -19.15 15.9 -30.05 13.6 -34.15 13.45 -34.3 13.5 -34.35 12.85 -35.5 20.7 -37.3 M21.95 -36.1 L21.3 -35.5 21.95 -34.9 22.55 -34.9 22.55 -35.5 23.15 -35.5 22.55 -36.1 21.95 -36.1 M0.15 29.8 L0.15 30.45 0.1 30.45 0.15 31.95 20.7 29.8 18.9 8.65 41.3 -31.85 40.7 -31.85 25.55 -41.55 25.55 -33.1 18.3 -33.1 21.95 -29.45 -0.45 -13.95 0.05 26.4 0.15 27.4 17.7 25.8 0.1 27.95 0.1 29.15 0.15 29.2 0.15 29.8 0.1 29.8 0.15 29.8 M1.7 -38.5 L1.95 -38.5 5.7 -29.35 17.0 -47.15 3.8 -39.75 3.05 -40.7 1.7 -38.5 M0.15 -38.5 L2.55 -40.95 -1.25 -45.9 -3.65 -43.1 -5.3 -40.35 -3.45 -37.9 0.15 -38.5 M4.4 -40.95 L5.0 -40.95 17.7 -48.8 15.3 -52.45 -0.3 -47.05 -0.4 -46.9 4.4 -40.95 M0.75 -30.05 L0.15 -28.85 -1.65 -28.25 -2.85 -28.85 -3.45 -30.05 -2.85 -30.65 -1.65 -31.25 -1.05 -31.25 0.15 -30.65 0.75 -30.05 M14.05 -34.9 L14.05 -33.7 15.3 -33.7 15.3 -34.3 15.9 -34.3 15.3 -34.9 14.05 -34.9 14.25 -35.05 13.45 -34.9 13.7 -34.5 14.05 -34.9 M17.7 -30.65 L18.9 -30.65 19.45 -29.55 20.1 -30.05 15.9 -33.7 14.65 -33.1 14.5 -33.25 16.5 -30.05 -1.05 -17.35 -1.05 -14.35 10.35 -22.85 9.25 -23.4 9.25 -24.0 9.85 -23.4 11.05 -23.4 11.05 -24.6 11.65 -24.0 10.7 -23.1 18.5 -28.85 17.7 -28.85 18.3 -29.45 18.9 -29.45 17.7 -30.65 17.7 -30.05 17.1 -29.45 17.7 -29.45 17.7 -28.85 17.1 -28.85 16.5 -29.45 17.1 -30.65 17.7 -30.65 M9.25 -24.0 L9.25 -24.6 10.45 -25.2 11.05 -25.2 11.05 -24.6 9.85 -24.6 9.25 -24.0 M4.4 -28.85 L0.15 -37.3 -3.45 -37.3 -6.5 -28.85 -1.65 -17.95 4.4 -28.85 M22.15 -20.45 L24.95 -16.75 26.15 -16.75 26.15 -15.55 12.5 -17.5 12.25 -17.35 9.25 -17.95 12.5 -17.5 19.5 -21.6 20.1 -21.6 20.1 -21.0 21.3 -21.6 21.75 -21.0 22.15 -20.45 M1.95 -17.95 L2.55 -17.35 1.95 -16.75 1.95 -17.95 M0.75 -16.75 L0.15 -16.75 0.15 -17.35 0.15 -17.95 0.75 -18.55 1.35 -18.55 0.15 -17.35 0.75 -17.35 0.75 -16.75 M32.8 -12.5 L32.2 -13.7 28.6 -6.45 28.45 -6.2 29.2 -6.45 29.8 -6.45 30.4 -5.85 31.0 -4.65 30.4 -3.45 29.2 -2.85 27.35 -3.45 27.35 -4.35 20.1 8.05 29.8 -2.85 30.4 -2.85 39.7 -19.65 38.25 -19.15 37.05 -19.75 36.45 -21.0 37.05 -22.2 38.25 -22.8 38.85 -22.8 40.05 -22.2 40.6 -21.2 43.8 -27.05 42.5 -27.05 41.3 -27.05 40.7 -28.25 41.3 -29.45 42.5 -30.05 43.1 -30.05 44.3 -29.45 44.7 -28.65 45.5 -30.05 42.5 -31.85 32.85 -14.95 34.05 -15.55 34.65 -15.55 35.25 -14.95 35.85 -13.7 35.25 -12.5 35.25 -14.35 34.05 -14.95 32.8 -14.35 32.8 -12.5 35.25 -12.5 34.05 -11.9 32.8 -12.5 M42.5 -27.05 L43.7 -27.65 43.7 -29.45 41.9 -29.45 41.3 -28.25 42.5 -27.05 M39.45 -20.4 L39.45 -21.6 38.25 -22.2 37.05 -21.0 38.25 -19.75 39.45 -20.4 M28.0 -4.05 L29.2 -3.45 29.8 -4.05 29.8 -4.65 30.4 -4.65 29.8 -5.85 28.0 -5.85 28.0 -4.05 M48.55 -5.25 L44.9 -27.05 31.6 -2.85 26.75 2.6 29.8 15.3 29.8 15.9 28.6 24.4 42.5 26.8 48.55 -5.25 M-45.2 -31.85 L-22.85 8.65 -24.65 29.8 -0.45 32.25 -1.05 -12.5 -3.45 -14.35 -4.1 27.4 -22.3 25.7 -4.7 26.8 -4.1 -14.35 -25.85 -30.05 -21.6 -33.1 -28.9 -33.1 -29.5 -41.55 -44.6 -31.85 -45.2 -31.85 M-46.4 -27.05 L-45.2 -27.65 -45.2 -29.45 -47.0 -29.45 -47.65 -28.25 -47.0 -28.25 -47.0 -27.65 -46.4 -27.05 -47.65 -27.05 -48.25 -28.25 -47.65 -29.45 -47.0 -30.05 -46.4 -30.05 -44.6 -29.45 -44.6 -27.05 -46.4 -27.05 M-45.8 -31.85 L-49.45 -30.05 -34.3 -2.85 -33.7 -2.85 -23.45 8.05 -30.95 -4.8 -31.3 -4.05 -33.1 -3.45 -34.3 -4.05 -34.95 -5.25 -34.3 -6.45 -33.7 -7.05 -33.1 -7.05 -32.05 -6.7 -36.15 -14.9 -36.15 -12.5 -37.95 -11.9 -39.15 -12.5 -39.75 -13.7 -39.15 -14.95 -38.55 -15.55 -37.95 -15.55 -36.15 -14.95 -45.8 -31.85 M-42.2 -22.8 L-41.0 -22.2 -40.35 -21.0 -41.0 -19.75 -42.2 -19.15 -43.4 -19.75 -44.0 -21.0 -43.4 -22.2 -42.8 -22.8 -42.2 -22.8 M-42.2 -19.75 L-41.0 -20.4 -41.0 -21.6 -42.2 -22.2 -43.4 -21.0 -42.8 -21.0 -42.8 -20.4 -42.2 -19.75 M-51.85 -5.25 L-46.4 26.8 -31.9 24.4 -33.7 15.9 -33.7 15.3 -30.1 2.6 -35.55 -2.85 -48.85 -27.05 -51.85 -5.25 M-6.5 -39.75 L-16.3 -45.25 -7.4 -29.25 -4.7 -37.9 -4.55 -37.9 -6.25 -40.05 -6.5 -39.75 M-7.1 -40.95 L-2.25 -47.0 -18.0 -52.45 -19.8 -48.8 -7.7 -40.95 -7.1 -40.95 M-0.45 -42.15 L0.15 -41.55 -0.45 -40.35 -1.65 -40.35 -0.45 -40.95 -0.45 -42.15 -2.25 -42.15 -2.85 -41.55 -1.65 -40.35 -2.85 -40.35 -3.45 -41.55 -2.85 -42.15 -1.65 -42.75 -1.05 -42.75 -0.45 -42.15 M-19.5 -47.05 L-24.65 -43.95 -24.65 -37.3 -16.8 -35.5 -17.05 -34.95 -18.3 -35.2 -18.0 -34.9 -17.4 -34.3 -18.0 -33.7 -18.6 -33.1 -19.8 -33.7 -22.85 -30.65 -21.6 -30.65 -21.0 -30.65 -20.4 -29.45 -21.0 -28.85 -21.6 -28.85 -22.85 -28.85 -22.85 -29.45 -22.85 -30.65 -24.05 -29.45 -1.05 -13.1 -1.65 -16.75 -19.8 -30.05 -17.7 -33.4 -19.2 -30.05 -2.85 -19.15 -17.75 -46.05 -19.5 -47.05 M-19.8 -34.3 L-19.2 -34.3 -19.2 -33.7 -18.0 -33.7 -18.0 -34.9 -19.2 -34.9 -19.8 -34.3 -19.8 -34.9 -19.3 -35.4 -25.25 -36.7 -25.85 -44.55 -28.9 -42.75 -28.25 -42.75 -28.25 -41.55 -28.25 -33.7 -19.8 -33.7 -19.8 -34.3 M-0.45 -30.05 L0.15 -30.05 -0.45 -30.65 -2.25 -30.65 -2.85 -30.05 -2.25 -28.85 -0.45 -28.85 -0.45 -30.05 M-28.25 -41.55 L-27.65 -42.15 -27.65 -42.75 -27.05 -42.75 -25.85 -42.15 -25.85 -41.55 -25.85 -40.95 -27.05 -40.35 -27.65 -40.95 -28.25 -41.55 M-25.85 -41.55 L-26.45 -42.15 -27.65 -42.15 -27.65 -40.95 -26.45 -40.95 -25.85 -41.55 M-25.25 -36.1 L-26.45 -36.1 -27.05 -35.5 -26.45 -35.5 -26.45 -34.9 -25.25 -34.9 -25.25 -36.1 -24.65 -35.5 -25.25 -34.9 -25.85 -34.3 -27.05 -34.9 -27.05 -35.5 -27.05 -36.1 -26.45 -36.7 -25.85 -36.7 -25.25 -36.1 M-31.9 -4.65 L-31.9 -5.85 -33.1 -6.45 -34.3 -5.25 -33.7 -5.25 -33.7 -4.65 -33.1 -4.05 -31.9 -4.65 M-38.55 -14.95 L-39.15 -13.7 -38.55 -13.7 -38.55 -13.1 -37.95 -12.5 -36.75 -13.1 -36.75 -14.95 -38.55 -14.95 M-21.6 -28.85 L-21.0 -29.45 -21.0 -30.05 -21.6 -30.65 -22.85 -29.45 -22.25 -29.45 -21.6 -28.85 M-5.3 -17.35 L-5.3 -17.95 -4.7 -17.95 -5.3 -17.35 -4.7 -17.35 -4.7 -16.75 -4.1 -16.15 -5.3 -16.75 -5.3 -17.35 M-3.45 -17.95 L-2.85 -17.35 -3.45 -16.75 -3.45 -17.95 M-12.55 -22.2 L-11.95 -22.2 -11.35 -22.8 -11.95 -23.4 -12.55 -23.4 -13.15 -22.8 -12.55 -22.8 -12.55 -22.2 M-11.95 -24.0 L-10.75 -22.8 -11.95 -21.6 -13.15 -22.2 -13.75 -22.8 -12.55 -24.0 -11.95 -24.0 M-3.45 -8.3 L-2.85 -8.3 -2.25 -7.7 -1.65 -8.3 -2.25 -8.9 -1.65 -8.9 -1.05 -8.3 -2.25 -7.05 -3.45 -7.7 -3.45 -8.3 -3.45 -8.9 -2.25 -8.9 -3.45 -8.3 M-2.85 -2.85 L-2.25 -2.85 -1.05 -2.25 -1.05 -1.0 -2.25 -1.0 -3.45 -1.0 -3.45 -2.25 -2.85 -2.85 M-2.25 -1.0 L-1.65 -1.65 -2.25 -2.25 -2.85 -1.65 -2.25 -1.65 -2.25 -1.0 M-3.45 3.8 L-2.85 3.2 -2.25 3.2 -1.05 4.4 -2.25 5.65 -3.45 5.05 -3.45 3.8 M-3.45 11.05 L-2.85 11.05 -2.25 11.7 -3.45 11.7 -3.45 11.05 -3.45 10.45 -2.85 9.85 -2.25 9.85 -1.05 11.05 -1.65 11.7 -2.25 11.7 -1.65 11.05 -2.25 10.45 -3.45 11.05 M-1.65 4.4 L-2.25 3.8 -2.85 4.4 -2.25 4.4 -2.25 5.05 -1.65 4.4 M-2.85 16.5 L-2.25 16.5 -1.05 16.5 -1.05 17.1 -1.05 17.75 -2.25 18.35 -3.45 17.1 -2.85 16.5 M-2.25 16.5 L-2.85 17.1 -2.25 17.1 -2.25 17.75 -1.05 17.1 -2.25 16.5 M-2.85 22.55 L-2.25 22.55 -1.05 23.8 -1.65 24.4 -2.25 24.4 -3.45 24.4 -3.45 23.15 -2.85 22.55 M-2.25 24.4 L-1.65 23.8 -2.25 23.15 -2.85 23.8 -2.25 23.8 -2.25 24.4 M-21.0 27.4 L-21.0 28.0 -21.0 28.6 -22.25 29.2 -23.45 28.0 -22.85 27.4 -22.25 27.4 -21.0 27.4 M-21.0 28.0 L-22.25 27.4 -22.85 28.0 -22.25 28.0 -22.25 28.6 -21.0 28.0 M-31.9 27.4 L-32.5 28.0 -33.7 28.6 -34.95 28.0 -34.95 26.2 -34.3 25.6 -33.7 25.6 -32.5 26.2 -31.9 27.4 M-31.9 25.0 L-38.8 26.2 -38.55 26.2 -37.35 26.8 -36.75 28.0 -37.35 28.6 -38.55 29.2 -39.75 28.6 -40.35 28.0 -39.75 26.8 -39.25 26.25 -45.8 27.4 -46.4 27.4 -45.8 30.45 -31.3 28.6 -31.9 25.0 M-39.75 28.0 L-39.15 28.0 -39.15 28.6 -37.95 28.6 -37.35 28.0 -38.55 26.8 -39.75 28.0 M-32.5 28.0 L-32.5 26.2 -34.3 26.2 -34.3 28.0 -32.5 28.0 M-33.1 29.2 L-44.0 31.05 -43.4 34.05 -32.5 32.25 -33.1 29.2 M-37.95 40.7 L-36.15 37.1 -36.15 39.5 -31.9 40.1 -29.5 39.5 -28.9 36.5 -33.1 33.45 -42.2 34.65 -44.6 39.5 -35.55 47.35 -28.9 41.9 -29.5 40.1 -31.9 41.9 -36.15 40.1 -37.95 40.7 M-4.1 29.8 L-4.1 29.2 -2.85 29.2 -2.25 29.2 -1.65 29.8 -2.85 31.05 -4.1 30.45 -4.1 29.8 -3.45 29.8 -2.85 31.05 -2.25 29.8 -2.85 29.2 -4.1 29.8 M-9.5 28.6 L-8.9 28.6 -8.3 29.2 -9.5 30.45 -10.75 29.8 -10.75 29.2 -10.15 29.2 -9.5 29.8 -8.9 29.2 -9.5 28.6 -10.75 29.2 -10.75 28.6 -9.5 28.6 M-15.55 29.2 L-16.8 29.8 -18.0 28.6 -17.4 28.0 -16.8 28.0 -15.55 28.0 -15.55 28.6 -15.55 29.2 M-16.8 28.6 L-16.8 29.8 -15.55 28.6 -16.8 28.0 -17.4 28.6 -16.8 28.6 M-44.0 27.4 L-42.8 27.4 -42.2 28.6 -42.8 29.8 -45.2 29.8 -45.8 28.6 -45.2 27.4 -44.0 27.4 -45.2 28.6 -44.6 28.6 -44.6 29.2 -43.4 29.2 -42.8 28.6 -44.0 27.4 M41.15 27.3 L41.9 28.0 41.3 29.2 40.05 29.8 38.85 29.2 38.25 28.0 38.85 27.4 39.65 27.0 36.0 26.35 36.45 26.8 37.05 28.0 36.45 28.6 35.25 29.2 34.05 28.6 33.4 28.0 34.05 26.8 35.2 26.2 28.6 25.0 28.0 28.6 41.9 30.45 42.5 27.4 41.9 27.4 41.15 27.3 M40.7 27.4 L39.45 27.4 38.85 28.0 40.05 29.2 40.7 28.6 40.7 28.0 41.3 28.0 40.7 27.4 M17.7 28.6 L17.1 28.6 16.5 28.0 17.7 26.8 18.3 26.8 18.9 27.4 18.9 28.0 17.7 27.4 17.1 28.0 17.7 28.6 18.3 28.0 18.9 28.0 18.9 28.6 17.7 28.6 M11.05 28.0 L9.85 28.6 11.05 29.2 11.05 28.6 11.65 28.6 11.05 28.0 M3.2 30.45 L2.55 30.45 1.95 29.8 2.55 28.6 3.2 28.6 2.55 29.8 3.2 30.45 3.2 29.8 3.8 29.8 3.2 28.6 4.4 28.6 4.4 30.45 3.2 30.45 M11.65 28.0 L12.25 28.6 11.05 29.8 9.85 29.2 9.25 28.6 9.85 28.0 11.05 27.4 11.65 27.4 11.65 28.0 M35.85 26.8 L34.65 26.8 34.05 27.4 34.65 28.6 35.85 28.6 35.85 27.4 36.45 27.4 35.85 26.8 M31.0 26.2 L29.2 26.2 29.2 27.4 29.8 28.0 31.0 27.4 31.0 26.2 31.6 26.8 31.0 28.0 29.8 28.6 28.6 28.0 28.6 26.2 29.8 25.6 30.4 25.6 31.0 26.2 M40.05 34.05 L40.05 31.05 29.2 29.2 29.2 32.25 40.05 34.05 M29.8 33.45 L24.95 36.5 26.15 39.5 28.6 40.1 32.8 39.5 32.8 37.1 34.05 40.7 32.8 40.1 28.6 41.9 25.55 40.1 24.95 41.9 32.2 47.35 41.3 39.5 38.25 34.65 29.8 33.45" fill="#0d0f0d" fill-rule="evenodd" stroke="none"/>
    <path d="M22.55 -43.35 L23.75 -43.35 24.35 -42.75 23.75 -42.75 23.75 -42.15 23.15 -41.55 22.55 -42.15 22.55 -43.35 M21.95 -36.1 L22.55 -36.1 23.15 -35.5 22.55 -35.5 22.55 -34.9 21.95 -34.9 21.3 -35.5 21.95 -36.1 M1.7 -38.5 L3.05 -40.7 3.8 -39.75 17.0 -47.15 5.7 -29.35 1.95 -38.5 1.7 -38.5 M4.4 -40.95 L-0.4 -46.9 -0.3 -47.05 15.3 -52.45 17.7 -48.8 5.0 -40.95 4.4 -40.95 M15.9 -34.3 L15.3 -34.3 15.3 -33.7 14.05 -33.7 14.05 -34.9 15.3 -34.9 15.9 -34.3 M17.7 -30.65 L18.9 -29.45 18.3 -29.45 17.7 -28.85 17.7 -29.45 17.1 -29.45 17.7 -30.05 17.7 -30.65 M11.05 -24.6 L11.05 -23.4 9.85 -23.4 9.25 -24.0 9.85 -24.6 11.05 -24.6 M21.75 -21.0 L21.95 -21.0 22.15 -20.45 21.75 -21.0 M1.35 -18.55 L1.95 -17.95 1.95 -16.75 0.75 -16.75 0.75 -17.35 0.15 -17.35 1.35 -18.55 M32.8 -12.5 L32.8 -14.35 34.05 -14.95 35.25 -14.35 35.25 -12.5 32.8 -12.5 M42.5 -27.05 L41.3 -28.25 41.9 -29.45 43.7 -29.45 43.7 -27.65 42.5 -27.05 M39.45 -20.4 L38.25 -19.75 37.05 -21.0 38.25 -22.2 39.45 -21.6 39.45 -20.4 M28.0 -4.05 L28.0 -5.85 29.8 -5.85 30.4 -4.65 29.8 -4.65 29.8 -4.05 29.2 -3.45 28.0 -4.05 M-46.4 -27.05 L-47.0 -27.65 -47.0 -28.25 -47.65 -28.25 -47.0 -29.45 -45.2 -29.45 -45.2 -27.65 -46.4 -27.05 M-42.2 -19.75 L-42.8 -20.4 -42.8 -21.0 -43.4 -21.0 -42.2 -22.2 -41.0 -21.6 -41.0 -20.4 -42.2 -19.75 M-7.1 -40.95 L-7.7 -40.95 -19.8 -48.8 -18.0 -52.45 -2.25 -47.0 -7.1 -40.95 M-6.5 -39.75 L-6.25 -40.05 -4.55 -37.9 -4.7 -37.9 -7.4 -29.25 -16.3 -45.25 -6.5 -39.75 M-0.45 -42.15 L-0.45 -40.95 -1.65 -40.35 -2.85 -41.55 -2.25 -42.15 -0.45 -42.15 M-19.8 -34.3 L-19.2 -34.9 -18.0 -34.9 -18.0 -33.7 -19.2 -33.7 -19.2 -34.3 -19.8 -34.3 M-0.45 -30.05 L-0.45 -28.85 -2.25 -28.85 -2.85 -30.05 -2.25 -30.65 -0.45 -30.65 0.15 -30.05 -0.45 -30.05 M-25.85 -41.55 L-26.45 -40.95 -27.65 -40.95 -27.65 -42.15 -26.45 -42.15 -25.85 -41.55 M-25.25 -36.1 L-25.25 -34.9 -26.45 -34.9 -26.45 -35.5 -27.05 -35.5 -26.45 -36.1 -25.25 -36.1 M-21.6 -28.85 L-22.25 -29.45 -22.85 -29.45 -21.6 -30.65 -21.0 -30.05 -21.0 -29.45 -21.6 -28.85 M-38.55 -14.95 L-36.75 -14.95 -36.75 -13.1 -37.95 -12.5 -38.55 -13.1 -38.55 -13.7 -39.15 -13.7 -38.55 -14.95 M-31.9 -4.65 L-33.1 -4.05 -33.7 -4.65 -33.7 -5.25 -34.3 -5.25 -33.1 -6.45 -31.9 -5.85 -31.9 -4.65 M-5.3 -17.35 L-4.7 -17.95 -3.45 -17.95 -3.45 -16.75 -4.1 -16.15 -4.7 -16.75 -4.7 -17.35 -5.3 -17.35 M-12.55 -22.2 L-12.55 -22.8 -13.15 -22.8 -12.55 -23.4 -11.95 -23.4 -11.35 -22.8 -11.95 -22.2 -12.55 -22.2 M-2.25 -8.9 L-1.65 -8.3 -2.25 -7.7 -2.85 -8.3 -3.45 -8.3 -2.25 -8.9 M-2.25 -1.0 L-2.25 -1.65 -2.85 -1.65 -2.25 -2.25 -1.65 -1.65 -2.25 -1.0 M-1.65 4.4 L-2.25 5.05 -2.25 4.4 -2.85 4.4 -2.25 3.8 -1.65 4.4 M-2.25 11.7 L-2.85 11.05 -3.45 11.05 -2.25 10.45 -1.65 11.05 -2.25 11.7 M-2.25 16.5 L-1.05 17.1 -2.25 17.75 -2.25 17.1 -2.85 17.1 -2.25 16.5 M-7.7 14.1 L-7.7 14.7 -19.8 14.7 -7.7 14.1 M-2.25 24.4 L-2.25 23.8 -2.85 23.8 -2.25 23.15 -1.65 23.8 -2.25 24.4 M-21.0 28.0 L-22.25 28.6 -22.25 28.0 -22.85 28.0 -22.25 27.4 -21.0 28.0 M-32.5 28.0 L-34.3 28.0 -34.3 26.2 -32.5 26.2 -32.5 28.0 M-39.75 28.0 L-38.55 26.8 -37.35 28.0 -37.95 28.6 -39.15 28.6 -39.15 28.0 -39.75 28.0 M-4.1 29.8 L-2.85 29.2 -2.25 29.8 -2.85 31.05 -3.45 29.8 -4.1 29.8 M-9.5 28.6 L-8.9 29.2 -9.5 29.8 -10.15 29.2 -10.75 29.2 -9.5 28.6 M-16.8 28.6 L-17.4 28.6 -16.8 28.0 -15.55 28.6 -16.8 29.8 -16.8 28.6 M-44.0 27.4 L-42.8 28.6 -43.4 29.2 -44.6 29.2 -44.6 28.6 -45.2 28.6 -44.0 27.4 M40.7 27.4 L41.3 28.0 40.7 28.0 40.7 28.6 40.05 29.2 38.85 28.0 39.45 27.4 40.7 27.4 M16.5 14.7 L4.4 14.7 4.4 14.1 16.5 14.7 M17.7 28.6 L17.1 28.0 17.7 27.4 18.9 28.0 18.3 28.0 17.7 28.6 M11.05 28.0 L11.65 28.6 11.05 28.6 11.05 29.2 9.85 28.6 11.05 28.0 M3.2 30.45 L2.55 29.8 3.2 28.6 3.8 29.8 3.2 29.8 3.2 30.45 M35.85 26.8 L36.45 27.4 35.85 27.4 35.85 28.6 34.65 28.6 34.05 27.4 34.65 26.8 35.85 26.8 M31.0 26.2 L31.0 27.4 29.8 28.0 29.2 27.4 29.2 26.2 31.0 26.2" fill="#608051" fill-rule="evenodd" stroke="none"/>
    <path d="M0.15 -38.5 L-3.45 -37.9 -5.3 -40.35 -3.65 -43.1 -1.25 -45.9 2.55 -40.95 0.15 -38.5 M0.75 -30.05 L0.15 -30.65 -1.05 -31.25 -1.65 -31.25 -2.85 -30.65 -3.45 -30.05 -2.85 -28.85 -1.65 -28.25 0.15 -28.85 0.75 -30.05 M4.4 -28.85 L-1.65 -17.95 -6.5 -28.85 -3.45 -37.3 0.15 -37.3 4.4 -28.85 M-1.65 -40.35 L-0.45 -40.35 0.15 -41.55 -0.45 -42.15 -1.05 -42.75 -1.65 -42.75 -2.85 -42.15 -3.45 -41.55 -2.85 -40.35 -1.65 -40.35" fill="#21301e" fill-rule="evenodd" stroke="none"/>
    <path d="M23.75 -43.35 L22.55 -43.35 22.3 -43.15 22.55 -44.55 24.15 -43.35 23.75 -43.35 M23.15 -41.55 L24.35 -41.55 24.35 -33.7 15.9 -33.7 15.9 -34.3 15.9 -34.9 15.45 -35.35 21.3 -36.7 22.2 -42.25 22.55 -41.55 23.15 -41.55 M20.7 -37.3 L12.85 -35.5 13.5 -34.35 13.45 -34.3 13.6 -34.15 15.9 -30.05 0.15 -19.15 17.7 -47.0 21.95 -44.55 20.7 -37.3 M23.15 -36.1 L23.15 -36.7 22.55 -36.7 21.3 -36.1 20.7 -35.5 21.3 -34.9 22.55 -34.3 23.75 -35.5 23.15 -36.1 M0.15 29.8 L0.15 29.2 0.1 29.15 0.1 27.95 17.7 25.8 0.15 27.4 0.05 26.4 -0.45 -13.95 21.95 -29.45 18.3 -33.1 25.55 -33.1 25.55 -41.55 40.7 -31.85 41.3 -31.85 18.9 8.65 20.7 29.8 0.15 31.95 0.1 30.45 0.15 30.45 0.15 29.8 M14.05 -34.9 L13.7 -34.5 13.45 -34.9 14.25 -35.05 14.05 -34.9 M9.25 -24.0 L9.25 -23.4 10.35 -22.85 -1.05 -14.35 -1.05 -17.35 16.5 -30.05 14.5 -33.25 14.65 -33.1 15.9 -33.7 20.1 -30.05 19.45 -29.55 18.9 -30.65 17.7 -30.65 17.1 -30.65 16.5 -29.45 17.1 -28.85 17.7 -28.85 18.5 -28.85 10.7 -23.1 11.65 -24.0 11.05 -24.6 11.05 -25.2 10.45 -25.2 9.25 -24.6 9.25 -24.0 M21.75 -21.0 L21.3 -21.6 20.1 -21.0 20.1 -21.6 19.5 -21.6 12.5 -17.5 9.25 -17.95 12.25 -17.35 12.5 -17.5 26.15 -15.55 26.15 -16.75 24.95 -16.75 22.15 -20.45 21.95 -21.0 21.75 -21.0 M1.95 -17.95 L1.35 -18.55 0.75 -18.55 0.15 -17.95 0.15 -17.35 0.15 -16.75 0.75 -16.75 1.95 -16.75 2.55 -17.35 1.95 -17.95 M42.5 -27.05 L43.8 -27.05 40.6 -21.2 40.05 -22.2 38.85 -22.8 38.25 -22.8 37.05 -22.2 36.45 -21.0 37.05 -19.75 38.25 -19.15 39.7 -19.65 30.4 -2.85 29.8 -2.85 20.1 8.05 27.35 -4.35 27.35 -3.45 29.2 -2.85 30.4 -3.45 31.0 -4.65 30.4 -5.85 29.8 -6.45 29.2 -6.45 28.45 -6.2 28.6 -6.45 32.2 -13.7 32.8 -12.5 34.05 -11.9 35.25 -12.5 35.85 -13.7 35.25 -14.95 34.65 -15.55 34.05 -15.55 32.85 -14.95 42.5 -31.85 45.5 -30.05 44.7 -28.65 44.3 -29.45 43.1 -30.05 42.5 -30.05 41.3 -29.45 40.7 -28.25 41.3 -27.05 42.5 -27.05 M48.55 -5.25 L42.5 26.8 28.6 24.4 29.8 15.9 29.8 15.3 26.75 2.6 31.6 -2.85 44.9 -27.05 48.55 -5.25 M-45.2 -31.85 L-44.6 -31.85 -29.5 -41.55 -28.9 -33.1 -21.6 -33.1 -25.85 -30.05 -4.1 -14.35 -4.7 26.8 -22.3 25.7 -4.1 27.4 -3.45 -14.35 -1.05 -12.5 -0.45 32.25 -24.65 29.8 -22.85 8.65 -45.2 -31.85 M-46.4 -27.05 L-44.6 -27.05 -44.6 -29.45 -46.4 -30.05 -47.0 -30.05 -47.65 -29.45 -48.25 -28.25 -47.65 -27.05 -46.4 -27.05 M-45.8 -31.85 L-36.15 -14.95 -37.95 -15.55 -38.55 -15.55 -39.15 -14.95 -39.75 -13.7 -39.15 -12.5 -37.95 -11.9 -36.15 -12.5 -36.15 -14.9 -32.05 -6.7 -33.1 -7.05 -33.7 -7.05 -34.3 -6.45 -34.95 -5.25 -34.3 -4.05 -33.1 -3.45 -31.3 -4.05 -30.95 -4.8 -23.45 8.05 -33.7 -2.85 -34.3 -2.85 -49.45 -30.05 -45.8 -31.85 M-42.2 -22.8 L-42.8 -22.8 -43.4 -22.2 -44.0 -21.0 -43.4 -19.75 -42.2 -19.15 -41.0 -19.75 -40.35 -21.0 -41.0 -22.2 -42.2 -22.8 M-51.85 -5.25 L-48.85 -27.05 -35.55 -2.85 -30.1 2.6 -33.7 15.3 -33.7 15.9 -31.9 24.4 -46.4 26.8 -51.85 -5.25 M-19.5 -47.05 L-17.75 -46.05 -2.85 -19.15 -19.2 -30.05 -17.7 -33.4 -19.8 -30.05 -1.65 -16.75 -1.05 -13.1 -24.05 -29.45 -22.85 -30.65 -22.85 -29.45 -22.85 -28.85 -21.6 -28.85 -21.0 -28.85 -20.4 -29.45 -21.0 -30.65 -21.6 -30.65 -22.85 -30.65 -19.8 -33.7 -18.6 -33.1 -18.0 -33.7 -17.4 -34.3 -18.0 -34.9 -18.3 -35.2 -17.05 -34.95 -16.8 -35.5 -24.65 -37.3 -24.65 -43.95 -19.5 -47.05 M-19.8 -34.3 L-19.8 -33.7 -28.25 -33.7 -28.25 -41.55 -28.25 -42.75 -28.9 -42.75 -25.85 -44.55 -25.25 -36.7 -19.3 -35.4 -19.8 -34.9 -19.8 -34.3 M-28.25 -41.55 L-27.65 -40.95 -27.05 -40.35 -25.85 -40.95 -25.85 -41.55 -25.85 -42.15 -27.05 -42.75 -27.65 -42.75 -27.65 -42.15 -28.25 -41.55 M-25.25 -36.1 L-25.85 -36.7 -26.45 -36.7 -27.05 -36.1 -27.05 -35.5 -27.05 -34.9 -25.85 -34.3 -25.25 -34.9 -24.65 -35.5 -25.25 -36.1 M-4.7 -17.95 L-5.3 -17.95 -5.3 -17.35 -5.3 -16.75 -4.1 -16.15 -3.45 -16.75 -2.85 -17.35 -3.45 -17.95 -4.7 -17.95 M-11.95 -24.0 L-12.55 -24.0 -13.75 -22.8 -13.15 -22.2 -11.95 -21.6 -10.75 -22.8 -11.95 -24.0 M-3.45 -8.3 L-3.45 -7.7 -2.25 -7.05 -1.05 -8.3 -1.65 -8.9 -2.25 -8.9 -3.45 -8.9 -3.45 -8.3 M-2.85 -2.85 L-3.45 -2.25 -3.45 -1.0 -2.25 -1.0 -1.05 -1.0 -1.05 -2.25 -2.25 -2.85 -2.85 -2.85 M-3.45 3.8 L-3.45 5.05 -2.25 5.65 -1.05 4.4 -2.25 3.2 -2.85 3.2 -3.45 3.8 M-3.45 11.05 L-3.45 11.7 -2.25 11.7 -1.65 11.7 -1.05 11.05 -2.25 9.85 -2.85 9.85 -3.45 10.45 -3.45 11.05 M-2.85 16.5 L-3.45 17.1 -2.25 18.35 -1.05 17.75 -1.05 17.1 -1.05 16.5 -2.25 16.5 -2.85 16.5 M-7.7 14.1 L-19.8 14.7 -7.7 14.7 -7.7 14.1 M-2.85 22.55 L-3.45 23.15 -3.45 24.4 -2.25 24.4 -1.65 24.4 -1.05 23.8 -2.25 22.55 -2.85 22.55 M-21.0 27.4 L-22.25 27.4 -22.85 27.4 -23.45 28.0 -22.25 29.2 -21.0 28.6 -21.0 28.0 -21.0 27.4 M-31.9 25.0 L-31.3 28.6 -45.8 30.45 -46.4 27.4 -45.8 27.4 -39.25 26.25 -39.75 26.8 -40.35 28.0 -39.75 28.6 -38.55 29.2 -37.35 28.6 -36.75 28.0 -37.35 26.8 -38.55 26.2 -38.8 26.2 -31.9 25.0 M-31.9 27.4 L-32.5 26.2 -33.7 25.6 -34.3 25.6 -34.95 26.2 -34.95 28.0 -33.7 28.6 -32.5 28.0 -31.9 27.4 M-33.1 29.2 L-32.5 32.25 -43.4 34.05 -44.0 31.05 -33.1 29.2 M-4.1 29.8 L-4.1 30.45 -2.85 31.05 -1.65 29.8 -2.25 29.2 -2.85 29.2 -4.1 29.2 -4.1 29.8 M-10.75 29.2 L-10.75 29.8 -9.5 30.45 -8.3 29.2 -8.9 28.6 -9.5 28.6 -10.75 28.6 -10.75 29.2 M-15.55 29.2 L-15.55 28.6 -15.55 28.0 -16.8 28.0 -17.4 28.0 -18.0 28.6 -16.8 29.8 -15.55 29.2 M-44.0 27.4 L-45.2 27.4 -45.8 28.6 -45.2 29.8 -42.8 29.8 -42.2 28.6 -42.8 27.4 -44.0 27.4 M41.15 27.3 L41.9 27.4 42.5 27.4 41.9 30.45 28.0 28.6 28.6 25.0 35.2 26.2 34.05 26.8 33.4 28.0 34.05 28.6 35.25 29.2 36.45 28.6 37.05 28.0 36.45 26.8 36.0 26.35 39.65 27.0 38.85 27.4 38.25 28.0 38.85 29.2 40.05 29.8 41.3 29.2 41.9 28.0 41.15 27.3 M16.5 14.7 L4.4 14.1 4.4 14.7 16.5 14.7 M18.9 28.0 L18.9 27.4 18.3 26.8 17.7 26.8 16.5 28.0 17.1 28.6 17.7 28.6 18.9 28.6 18.9 28.0 M11.65 28.0 L11.65 27.4 11.05 27.4 9.85 28.0 9.25 28.6 9.85 29.2 11.05 29.8 12.25 28.6 11.65 28.0 M3.2 28.6 L2.55 28.6 1.95 29.8 2.55 30.45 3.2 30.45 4.4 30.45 4.4 28.6 3.2 28.6 M31.0 26.2 L30.4 25.6 29.8 25.6 28.6 26.2 28.6 28.0 29.8 28.6 31.0 28.0 31.6 26.8 31.0 26.2 M40.05 34.05 L29.2 32.25 29.2 29.2 40.05 31.05 40.05 34.05" fill="#181e16" fill-rule="evenodd" stroke="none"/>
    <path d="M-37.95 40.7 L-36.15 40.1 -31.9 41.9 -29.5 40.1 -28.9 41.9 -35.55 47.35 -44.6 39.5 -42.2 34.65 -33.1 33.45 -28.9 36.5 -29.5 39.5 -31.9 40.1 -36.15 39.5 -36.15 37.1 -37.95 40.7 M29.8 33.45 L38.25 34.65 41.3 39.5 32.2 47.35 24.95 41.9 25.55 40.1 28.6 41.9 32.8 40.1 34.05 40.7 32.8 37.1 32.8 39.5 28.6 40.1 26.15 39.5 24.95 36.5 29.8 33.45" fill="#d9dae6" fill-rule="evenodd" stroke="none"/>
  </g>
</svg>
