<?xml version="1.0" encoding="UTF-8" standalone="no"?>
<svg xmlns:xlink="http://www.w3.org/1999/xlink" height="37.85px" width="76.4px" xmlns="http://www.w3.org/2000/svg">
  <g transform="matrix(1.0, 0.0, 0.0, 1.0, 37.45, 37.45)">
    <path d="M-26.8 0.15 L-27.8 0.15 -27.8 0.1 -27.8 -0.25 Q-27.8 -11.75 -19.65 -19.9 -11.5 -28.05 0.0 -28.05 11.5 -28.05 19.65 -19.9 27.85 -11.75 27.85 -0.25 L27.85 0.1 27.85 0.15 26.85 0.15 26.85 0.1 26.85 -0.25 Q26.85 -11.35 18.95 -19.2 11.1 -27.05 0.0 -27.05 -11.1 -27.05 -18.95 -19.2 -26.8 -11.35 -26.8 -0.25 L-26.8 0.1 -26.8 0.15 M16.4 0.15 L15.4 0.15 15.4 -0.1 15.4 -0.45 Q15.4 -6.85 10.9 -11.35 6.35 -15.85 -0.05 -15.85 -6.45 -15.85 -10.95 -11.35 -15.45 -6.85 -15.45 -0.45 L-15.45 -0.1 -15.45 0.15 -16.45 0.15 -16.45 -0.1 -16.45 -0.45 Q-16.45 -7.25 -11.65 -12.05 -6.85 -16.85 -0.05 -16.85 6.75 -16.85 11.6 -12.05 16.4 -7.25 16.4 -0.45 L16.4 -0.1 16.4 0.15" fill="#ffffff" fill-rule="evenodd" stroke="none"/>
    <path d="M26.85 0.15 L16.4 0.15 16.4 -0.1 16.4 -0.45 Q16.4 -7.25 11.6 -12.05 6.75 -16.85 -0.05 -16.85 -6.85 -16.85 -11.65 -12.05 -16.45 -7.25 -16.45 -0.45 L-16.45 -0.1 -16.45 0.15 -26.8 0.15 -26.8 0.1 -26.8 -0.25 Q-26.8 -11.35 -18.95 -19.2 -11.1 -27.05 0.0 -27.05 11.1 -27.05 18.95 -19.2 26.85 -11.35 26.85 -0.25 L26.85 0.1 26.85 0.15 M15.4 0.15 L-15.45 0.15 -15.45 -0.1 -15.45 -0.45 Q-15.45 -6.85 -10.95 -11.35 -6.45 -15.85 -0.05 -15.85 6.35 -15.85 10.9 -11.35 15.4 -6.85 15.4 -0.45 L15.4 -0.1 15.4 0.15" fill="#000000" fill-rule="evenodd" stroke="none"/>
    <path d="M0.0 -28.05 Q-11.5 -28.05 -19.65 -19.9 -27.8 -11.75 -27.8 -0.25 L-27.8 0.1 -27.8 0.15 -37.45 0.15 -37.45 0.0 Q-37.45 -15.5 -26.5 -26.5 -15.5 -37.45 0.0 -37.45 15.5 -37.45 26.45 -26.5 37.45 -15.5 37.45 0.0 L37.45 0.15 27.85 0.15 27.85 0.1 27.85 -0.25 Q27.85 -11.75 19.65 -19.9 11.5 -28.05 0.0 -28.05" fill="#000000" fill-rule="evenodd" stroke="none"/>
    <path d="M27.95 -26.25 Q38.95 -15.25 38.95 0.25 L38.95 0.4 29.35 0.4 29.35 0.35 29.35 0.0 Q29.35 -11.5 21.15 -19.65 13.0 -27.8 1.5 -27.8 -10.0 -27.8 -18.15 -19.65 -26.3 -11.5 -26.3 0.0 L-26.3 0.35 -26.3 0.4 -35.95 0.4 -35.95 0.25 Q-35.95 -15.25 -25.0 -26.25 -14.0 -37.2 1.5 -37.2 17.0 -37.2 27.95 -26.25" fill="#000000" fill-opacity="0.3019608" fill-rule="evenodd" stroke="none"/>
  </g>
</svg>
