<?xml version="1.0" encoding="UTF-8" standalone="no"?>
<svg xmlns:xlink="http://www.w3.org/1999/xlink" height="50.0px" width="50.1px" xmlns="http://www.w3.org/2000/svg">
  <g transform="matrix(1.0, 0.0, 0.0, 1.0, 24.9, 48.35)">
    <path d="M1.6 -0.9 L1.35 -1.2 Q0.85 -1.7 0.15 -1.7 L-0.1 -1.65 -0.35 -1.7 -1.45 -1.25 -1.5 -1.25 -24.9 -41.75 Q-13.75 -48.35 0.15 -48.35 14.0 -48.35 25.15 -41.75 L25.2 -41.75 1.6 -0.9" fill="#ffffff" fill-opacity="0.5019608" fill-rule="evenodd" stroke="none"/>
    <path d="M-0.9 -1.5 L-0.35 -1.65 -0.1 -1.7 Q0.6 -1.7 1.1 -1.2 L1.35 -0.9 1.55 -0.35 1.6 0.0 Q1.6 0.65 1.1 1.15 L0.45 1.6 0.4 1.6 -0.1 1.65 Q-0.75 1.65 -1.3 1.15 -1.8 0.65 -1.8 -0.05 -1.8 -0.7 -1.3 -1.2 L-1.25 -1.25 -0.9 -1.5 -0.25 -0.35 -0.9 -1.5" fill="#ffff00" fill-rule="evenodd" stroke="none"/>
    <path d="M-0.9 -1.5 L-23.75 -40.85 M-0.25 -0.35 L-0.9 -1.5 Z" fill="none" stroke="#ffff00" stroke-linecap="round" stroke-linejoin="round" stroke-width="2.0"/>
  </g>
</svg>
