<?xml version="1.0" encoding="UTF-8" standalone="no"?>
<svg xmlns:xlink="http://www.w3.org/1999/xlink" height="25.85px" width="12.15px" xmlns="http://www.w3.org/2000/svg">
  <g transform="matrix(1.0, 0.0, 0.0, 1.0, -1.05, 24.8)">
    <path d="M2.35 -0.45 Q1.35 -1.45 1.1 -2.8 0.8 -4.95 2.25 -6.65 3.65 -8.4 6.2 -8.95 L9.35 -8.85 Q10.8 -8.4 11.8 -7.45 12.8 -6.45 13.05 -5.05 13.3 -3.7 12.7 -2.4 12.1 -1.15 10.9 -0.2 9.65 0.7 8.0 1.05 L4.85 0.9 Q3.35 0.5 2.35 -0.45 M12.3 -22.55 Q13.15 -21.5 13.2 -20.05 13.25 -17.95 11.6 -16.4 9.95 -14.9 7.4 -14.7 5.65 -14.65 4.25 -15.25 2.85 -15.85 2.0 -16.95 1.15 -18.0 1.1 -19.45 1.05 -21.55 2.7 -23.1 4.35 -24.6 6.9 -24.8 8.65 -24.85 10.05 -24.25 11.45 -23.65 12.3 -22.55" fill="#000000" fill-rule="evenodd" stroke="none"/>
  </g>
</svg>
