<?xml version="1.0" encoding="UTF-8" standalone="no"?>
<svg xmlns:xlink="http://www.w3.org/1999/xlink" height="119.5px" width="117.6px" xmlns="http://www.w3.org/2000/svg">
  <g transform="matrix(1.0, 0.0, 0.0, 1.0, 0.6, 0.8)">
    <path d="M84.75 36.95 Q83.45 38.05 80.0 39.65 76.55 41.35 75.25 42.4 73.1 44.25 73.1 46.8 73.1 51.5 78.85 54.95 83.5 57.8 89.65 58.7 91.9 59.05 94.5 58.8 L103.05 57.95 Q105.4 58.15 107.55 59.2 L113.65 61.95 Q116.25 63.6 116.25 67.0 116.25 70.9 113.75 72.0 L109.4 72.5 102.05 70.8 Q97.1 69.75 95.15 72.5 94.1 74.05 94.9 74.95 L97.3 76.4 Q99.05 77.4 99.5 78.6 100.2 80.3 98.8 83.05 96.3 88.1 92.7 85.0 L90.25 82.3 Q89.05 80.75 88.7 80.75 86.1 80.75 85.25 82.1 84.6 83.15 84.6 86.15 L84.6 94.65 Q84.6 97.3 82.9 99.35 81.15 101.45 78.6 101.45 75.1 101.45 72.5 98.55 70.95 96.85 68.5 92.25 66.1 87.65 64.55 85.95 61.95 83.05 58.4 83.05 51.95 83.05 47.45 87.5 44.4 90.5 40.65 97.8 L34.0 109.45 Q29.55 115.55 23.55 117.95 L21.7 117.5 21.25 115.75 Q21.25 110.6 24.15 105.9 25.85 103.1 30.45 98.15 35.0 93.25 36.75 90.4 39.6 85.7 39.6 80.55 39.6 75.4 37.0 71.6 34.05 67.45 29.5 67.45 27.5 67.45 25.45 68.25 L22.05 69.95 Q19.85 71.25 18.65 71.75 16.65 72.5 14.6 72.5 10.65 72.5 7.75 70.3 4.7 67.9 4.7 64.25 4.7 60.35 7.35 57.5 10.05 54.6 13.9 54.6 L22.15 55.95 Q24.9 55.95 26.9 54.5 29.05 52.95 29.05 50.45 29.05 45.75 24.55 43.05 21.85 41.45 14.6 39.45 7.35 37.45 4.65 35.85 0.15 33.15 0.15 28.45 0.15 26.25 2.2 24.95 4.0 23.85 6.55 23.85 9.2 23.85 11.75 24.95 L16.1 27.3 Q18.85 29.05 20.4 29.65 23.0 30.75 25.6 30.75 27.55 30.75 28.55 30.0 29.35 29.4 29.7 28.05 L30.25 25.15 Q30.65 23.1 31.35 21.55 32.8 18.3 34.4 17.85 L35.6 17.75 36.75 17.9 Q37.75 17.9 39.3 18.8 40.85 19.7 41.9 19.7 43.75 19.7 45.1 18.5 46.45 17.25 46.45 15.5 L46.45 7.0 Q46.45 5.55 48.0 4.75 49.3 4.1 51.05 4.1 55.9 4.1 59.25 7.85 62.55 11.5 62.55 16.5 62.55 18.7 61.8 20.85 L60.05 24.5 Q58.8 26.9 58.3 28.2 57.5 30.4 57.5 32.55 57.5 34.15 58.55 35.2 59.65 36.25 61.15 36.25 63.9 36.25 66.3 34.45 67.7 33.4 70.1 30.5 72.55 27.65 73.95 26.55 76.3 24.75 79.1 24.75 82.25 24.75 84.6 27.05 86.9 29.4 86.9 32.55 86.9 35.15 84.75 36.95" fill="#ffe689" fill-rule="evenodd" stroke="none"/>
    <path d="M84.75 36.95 Q83.45 38.05 80.0 39.65 76.55 41.35 75.25 42.4 73.1 44.25 73.1 46.8 73.1 51.5 78.85 54.95 83.5 57.8 89.65 58.7 91.9 59.05 94.5 58.8 L103.05 57.95 Q105.4 58.15 107.55 59.2 L113.65 61.95 Q116.25 63.6 116.25 67.0 116.25 70.9 113.75 72.0 L109.4 72.5 102.05 70.8 Q97.1 69.75 95.15 72.5 94.1 74.05 94.9 74.95 L97.3 76.4 Q99.05 77.4 99.5 78.6 100.2 80.3 98.8 83.05 96.3 88.1 92.7 85.0 L90.25 82.3 Q89.05 80.75 88.7 80.75 86.1 80.75 85.25 82.1 84.6 83.15 84.6 86.15 L84.6 94.65 Q84.6 97.3 82.9 99.35 81.15 101.45 78.6 101.45 75.1 101.45 72.5 98.55 70.95 96.85 68.5 92.25 66.1 87.65 64.55 85.95 61.95 83.05 58.4 83.05 51.95 83.05 47.45 87.5 44.4 90.5 40.65 97.8 L34.0 109.45 Q29.55 115.55 23.55 117.95 L21.7 117.5 21.25 115.75 Q21.25 110.6 24.15 105.9 25.85 103.1 30.45 98.15 35.0 93.25 36.75 90.4 39.6 85.7 39.6 80.55 39.6 75.4 37.0 71.6 34.05 67.45 29.5 67.45 27.5 67.45 25.45 68.25 L22.05 69.95 Q19.85 71.25 18.65 71.75 16.65 72.5 14.6 72.5 10.65 72.5 7.75 70.3 4.7 67.9 4.7 64.25 4.7 60.35 7.35 57.5 10.05 54.6 13.9 54.6 L22.15 55.95 Q24.9 55.95 26.9 54.5 29.05 52.95 29.05 50.45 29.05 45.75 24.55 43.05 21.85 41.45 14.6 39.45 7.35 37.45 4.65 35.85 0.15 33.15 0.15 28.45 0.15 26.25 2.2 24.95 4.0 23.85 6.55 23.85 9.2 23.85 11.75 24.95 L16.1 27.3 Q18.85 29.05 20.4 29.65 23.0 30.75 25.6 30.75 27.55 30.75 28.55 30.0 29.35 29.4 29.7 28.05 L30.25 25.15 Q30.65 23.1 31.35 21.55 32.8 18.3 34.4 17.85 L35.6 17.75 36.75 17.9 Q37.75 17.9 39.3 18.8 40.85 19.7 41.9 19.7 43.75 19.7 45.1 18.5 46.45 17.25 46.45 15.5 L46.45 7.0 Q46.45 5.55 48.0 4.75 49.3 4.1 51.05 4.1 55.9 4.1 59.25 7.85 62.55 11.5 62.55 16.5 62.55 18.7 61.8 20.85 L60.05 24.5 Q58.8 26.9 58.3 28.2 57.5 30.4 57.5 32.55 57.5 34.15 58.55 35.2 59.65 36.25 61.15 36.25 63.9 36.25 66.3 34.45 67.7 33.4 70.1 30.5 72.55 27.65 73.95 26.55 76.3 24.75 79.1 24.75 82.25 24.75 84.6 27.05 86.9 29.4 86.9 32.55 86.9 35.15 84.75 36.95 Z" fill="none" stroke="#ffce27" stroke-linecap="round" stroke-linejoin="round" stroke-width="1.5"/>
    <path d="M52.9 106.25 Q52.9 109.95 54.4 112.55 55.9 115.2 57.95 115.2 60.05 115.2 61.55 112.55 63.0 109.95 63.0 106.25 63.0 102.55 61.55 99.9 60.05 97.3 57.95 97.3 55.9 97.3 54.4 99.9 52.9 102.55 52.9 106.25" fill="#ffe689" fill-rule="evenodd" stroke="none"/>
    <path d="M52.9 106.25 Q52.9 102.55 54.4 99.9 55.9 97.3 57.95 97.3 60.05 97.3 61.55 99.9 63.0 102.55 63.0 106.25 63.0 109.95 61.55 112.55 60.05 115.2 57.95 115.2 55.9 115.2 54.4 112.55 52.9 109.95 52.9 106.25 Z" fill="none" stroke="#ffce27" stroke-linecap="round" stroke-linejoin="round" stroke-width="1.5"/>
    <path d="M81.45 8.45 Q83.05 5.75 83.3 3.3 83.5 0.9 82.25 0.2 81.0 -0.5 79.05 0.85 77.1 2.3 75.5 5.0 73.8 8.0 72.75 12.0 71.65 16.35 72.8 17.0 73.95 17.65 77.0 14.45 79.65 11.6 81.45 8.45" fill="#ffe689" fill-rule="evenodd" stroke="none"/>
    <path d="M81.45 8.45 Q79.65 11.6 77.0 14.45 73.95 17.65 72.8 17.0 71.65 16.35 72.75 12.0 73.8 8.0 75.5 5.0 77.1 2.3 79.05 0.85 81.0 -0.5 82.25 0.2 83.5 0.9 83.3 3.3 83.05 5.75 81.45 8.45 Z" fill="none" stroke="#ffce27" stroke-linecap="round" stroke-linejoin="round" stroke-width="1.5"/>
    <path d="M5.85 28.85 L7.0 26.15 5.15 26.6 3.95 28.35 Q3.35 29.25 3.35 30.25 3.35 30.8 3.95 31.25 L4.7 32.1 4.9 31.95 Q5.15 32.1 5.15 31.65 5.15 30.3 5.85 28.85" fill="#ffffff" fill-rule="evenodd" stroke="none"/>
    <path d="M33.6 24.75 L33.15 26.6 Q32.7 27.95 32.7 28.45 32.7 28.95 33.4 29.25 34.4 29.65 34.55 29.8 34.55 27.65 35.4 25.55 L37.3 21.55 35.45 21.1 Q34.35 23.05 33.6 24.75" fill="#ffffff" fill-rule="evenodd" stroke="none"/>
    <path d="M48.25 11.55 Q48.15 13.55 48.75 15.1 49.4 16.55 49.9 13.9 L50.6 9.15 50.15 7.3 48.3 7.8 48.25 11.55" fill="#ffffff" fill-rule="evenodd" stroke="none"/>
    <path d="M71.25 33.5 Q73.8 31.85 75.15 31.25 76.8 30.5 79.55 29.8 L77.7 28.45 Q75.6 28.9 74.0 30.25 72.95 31.2 71.25 33.5" fill="#ffffff" fill-rule="evenodd" stroke="none"/>
    <path d="M12.95 60.1 L12.5 59.2 Q12.05 58.65 12.05 58.25 10.25 59.1 9.35 59.9 8.2 60.85 7.45 62.4 L8.35 65.95 Q8.3 65.55 8.95 65.2 9.75 64.8 9.75 64.25 9.75 63.2 11.35 62.15 12.95 61.15 12.95 60.1" fill="#ffffff" fill-rule="evenodd" stroke="none"/>
    <path d="M40.05 62.4 L38.6 63.85 Q37.75 64.7 37.75 65.6 37.75 67.0 38.7 68.15 L40.75 70.05 42.8 71.9 Q43.7 73.1 43.7 74.45 L43.25 78.0 Q45.5 76.8 49.35 76.35 L55.65 75.25 Q53.95 74.4 51.0 73.6 L46.4 72.3 Q44.0 71.45 42.85 70.3 41.45 68.9 41.45 66.65 L41.65 64.3 41.9 61.95 40.05 62.4" fill="#ffffff" fill-rule="evenodd" stroke="none"/>
    <path d="M23.55 113.85 L26.2 109.4 Q27.8 106.85 28.1 104.65 L26.3 106.0 24.45 109.85 Q23.7 111.7 23.55 113.85" fill="#ffffff" fill-rule="evenodd" stroke="none"/>
    <path d="M54.75 106.0 L58.4 104.2 56.55 100.5 Q55.15 103.4 54.75 106.0" fill="#ffffff" fill-rule="evenodd" stroke="none"/>
    <path d="M75.65 84.9 L76.3 82.6 Q76.3 82.15 75.9 81.65 L75.4 80.75 74.1 82.9 72.75 84.75 Q71.25 86.9 71.25 89.05 71.25 89.7 71.6 90.45 L72.2 91.8 Q72.8 91.85 74.7 92.55 76.5 93.25 77.25 93.15 L77.7 91.35 Q77.4 90.65 75.95 89.3 74.95 88.3 74.95 87.2 74.95 86.3 75.65 84.9" fill="#ffffff" fill-rule="evenodd" stroke="none"/>
    <path d="M81.1 66.6 L85.5 63.75 83.65 64.25 77.95 63.4 Q75.15 62.65 73.1 60.55 73.2 61.55 72.9 64.0 72.6 66.45 72.65 67.45 L74.45 67.75 76.2 67.9 Q78.7 67.9 81.1 66.6" fill="#ffffff" fill-rule="evenodd" stroke="none"/>
    <path d="M56.55 17.9 Q55.1 22.35 51.7 27.9 47.95 34.1 46.45 37.6 47.3 38.05 49.4 38.35 51.05 38.65 52.0 39.45 52.8 40.15 53.2 41.5 L53.75 43.9 Q54.05 45.35 54.45 45.95 55.05 46.8 56.1 46.8 57.8 46.8 58.85 45.35 59.8 44.05 59.8 42.2 59.8 40.6 58.95 39.05 L57.05 36.45 55.15 33.95 Q54.3 32.4 54.3 30.75 54.3 27.8 55.45 24.3 56.55 20.8 56.55 17.9" fill="#ffb64b" fill-rule="evenodd" stroke="none"/>
    <path d="M68.95 47.7 Q69.2 44.95 70.65 42.9 71.8 41.25 74.1 39.6 L78.45 36.7 Q81.15 34.85 82.75 33.0 81.05 34.15 78.1 35.4 74.1 37.1 73.45 37.45 71.05 38.6 69.9 40.0 68.5 41.7 68.5 44.15 L68.95 47.7" fill="#ffb64b" fill-rule="evenodd" stroke="none"/>
    <path d="M66.2 83.5 L65.75 81.7 Q63.7 77.8 58.85 77.1 53.2 77.7 50.05 78.85 45.3 80.6 47.4 83.05 48.15 84.0 51.9 82.55 57.1 80.55 58.85 80.3 62.45 81.1 66.2 83.5" fill="#ffb64b" fill-rule="evenodd" stroke="none"/>
    <path d="M81.85 97.05 L82.5 88.65 Q82.35 90.1 81.1 92.1 L78.65 95.4 Q77.25 97.2 77.1 97.9 76.85 98.9 78.4 98.9 L79.4 98.9 80.3 98.85 Q81.25 98.55 81.85 97.05" fill="#ffb64b" fill-rule="evenodd" stroke="none"/>
    <path d="M107.75 67.85 L102.95 68.35 106.15 69.65 109.5 70.2 111.05 70.05 112.6 69.75 112.85 68.85 113.05 67.9 Q113.05 67.45 112.65 66.95 L112.15 66.05 Q109.8 67.35 107.75 67.85" fill="#ffb64b" fill-rule="evenodd" stroke="none"/>
    <path d="M56.55 112.45 L59.6 112.5 Q60.7 112.15 60.7 110.6 L60.25 105.1 59.8 106.95 56.55 112.45" fill="#ffb64b" fill-rule="evenodd" stroke="none"/>
    <path d="M29.7 64.0 Q28.05 63.75 25.75 62.55 23.75 61.5 21.7 61.5 20.35 61.5 19.6 62.45 19.05 63.15 18.6 64.75 L17.75 67.45 Q17.1 68.9 15.95 69.5 L20.35 67.9 24.2 66.3 Q28.65 64.55 32.7 64.25 L29.7 64.0" fill="#ffb64b" fill-rule="evenodd" stroke="none"/>
    <path d="M22.8 36.7 Q19.85 34.15 16.8 34.15 L11.35 34.3 15.85 36.0 19.95 37.4 Q24.55 39.05 27.45 41.95 24.9 38.45 22.8 36.7" fill="#ffb64b" fill-rule="evenodd" stroke="none"/>
  </g>
</svg>
