<?xml version="1.0" encoding="UTF-8" standalone="no"?>
<svg xmlns:xlink="http://www.w3.org/1999/xlink" height="46.1px" width="218.1px" xmlns="http://www.w3.org/2000/svg">
  <g transform="matrix(1.0, 0.0, 0.0, 1.0, 1.5, 5.5)">
    <path d="M2.5 19.0 L2.5 3.95 Q2.5 -1.35 3.85 -5.5 L215.25 -5.5 Q216.6 -1.35 216.6 3.95 L216.6 19.0 2.5 19.0 216.6 19.0 216.6 32.6 Q216.6 35.9 214.25 38.25 212.35 40.15 209.85 40.5 L208.6 40.6 10.5 40.6 Q7.2 40.6 4.85 38.25 2.5 35.9 2.5 32.6 L2.5 19.0" fill="#000000" fill-opacity="0.3019608" fill-rule="evenodd" stroke="none"/>
    <path d="M0.3 19.0 L0.3 -4.55 0.3 -5.5 214.4 -5.5 214.4 -4.55 214.4 19.0 0.3 19.0 214.4 19.0 214.4 28.6 Q214.4 31.9 212.05 34.25 210.15 36.15 207.65 36.5 L206.4 36.6 8.3 36.6 Q5.0 36.6 2.65 34.25 0.3 31.9 0.3 28.6 L0.3 19.0" fill="#ffffff" fill-rule="evenodd" stroke="none"/>
    <path d="M-1.5 19.0 L-1.5 -4.45 -1.5 -5.5 1.55 -5.5 1.5 -4.45 1.5 19.0 -1.5 19.0 1.5 19.0 1.5 28.65 Q1.5 31.35 3.4 33.25 5.3 35.15 8.0 35.15 L206.1 35.15 207.35 35.05 207.45 35.05 Q209.45 34.75 211.0 33.2 212.9 31.3 212.9 28.6 L212.9 19.0 212.9 -4.55 212.9 -5.5 215.9 -5.5 215.9 -4.55 215.9 19.0 215.9 28.6 Q215.9 32.5 213.1 35.3 210.85 37.55 207.85 38.0 L207.95 38.0 206.1 38.15 8.0 38.15 Q4.1 38.15 1.3 35.35 -1.5 32.55 -1.5 28.65 L-1.5 19.0 M215.9 19.0 L212.9 19.0 215.9 19.0" fill="#fd360b" fill-rule="evenodd" stroke="none"/>
  </g>
</svg>
