<?xml version="1.0" encoding="UTF-8" standalone="no"?>
<svg xmlns:xlink="http://www.w3.org/1999/xlink" height="70.4px" width="107.65px" xmlns="http://www.w3.org/2000/svg">
  <g transform="matrix(1.0, 0.0, 0.0, 1.0, 56.25, 42.9)">
    <path d="M8.35 -19.0 Q0.85 -18.5 -4.15 -15.0 -6.15 -17.5 -16.65 -10.5 -27.15 -3.5 -27.65 1.5 -30.15 2.0 -33.15 4.5 L-36.5 7.1 Q-37.65 8.25 -37.65 10.5 -37.65 14.0 -34.65 13.0 -35.15 15.0 -32.15 16.0 -29.15 17.0 -26.65 14.0 -26.15 19.0 -22.15 19.0 -18.15 19.0 -16.15 14.5 -13.15 19.5 -8.15 19.0 -3.15 18.5 -2.15 14.0 2.35 18.5 7.35 16.5 12.35 14.5 11.35 10.0 16.35 15.0 19.35 12.5 22.35 10.0 18.85 5.0 24.35 6.5 29.85 2.0 35.35 -2.5 28.35 -4.5 30.0 -4.45 35.35 -8.5 37.85 -10.4 37.7 -11.35 L35.85 -14.0 Q33.85 -16.5 28.85 -15.5 26.85 -18.0 23.85 -18.0 20.85 -18.0 18.85 -16.5 15.85 -19.5 8.35 -19.0 Z" fill="none" stroke="#747532" stroke-linecap="round" stroke-linejoin="round" stroke-width="2.0"/>
    <path d="M8.35 -19.0 Q0.85 -18.5 -4.15 -15.0 -6.15 -17.5 -16.65 -10.5 -27.15 -3.5 -27.65 1.5 -30.15 2.0 -33.15 4.5 L-36.5 7.1 Q-37.65 8.25 -37.65 10.5 -37.65 14.0 -34.65 13.0 -35.15 15.0 -32.15 16.0 -29.15 17.0 -26.65 14.0 -26.15 19.0 -22.15 19.0 -18.15 19.0 -16.15 14.5 -13.15 19.5 -8.15 19.0 -3.15 18.5 -2.15 14.0 2.35 18.5 7.35 16.5 12.35 14.5 11.35 10.0 16.35 15.0 19.35 12.5 22.35 10.0 18.85 5.0 24.35 6.5 29.85 2.0 35.35 -2.5 28.35 -4.5 30.0 -4.45 35.35 -8.5 37.85 -10.4 37.7 -11.35 L35.85 -14.0 Q33.85 -16.5 28.85 -15.5 26.85 -18.0 23.85 -18.0 20.85 -18.0 18.85 -16.5 15.85 -19.5 8.35 -19.0" fill="#6f4f34" fill-rule="evenodd" stroke="none"/>
    <path d="M20.8 -27.55 Q17.8 -27.55 15.8 -26.05 12.8 -29.05 5.3 -28.55 -2.2 -28.05 -7.2 -24.55 -9.2 -27.05 -19.7 -20.05 -30.2 -13.05 -30.7 -8.05 -33.2 -7.55 -36.2 -5.05 L-39.55 -2.45 Q-40.7 -1.3 -40.7 0.95 -40.7 4.45 -37.7 3.45 -38.2 5.45 -35.2 6.45 -32.2 7.45 -29.7 4.45 -29.2 9.45 -25.2 9.45 -21.2 9.45 -19.2 4.95 -16.2 9.95 -11.2 9.45 -6.2 8.95 -5.2 4.45 -0.7 8.95 4.3 6.95 9.3 4.95 8.3 0.45 13.3 5.45 16.3 2.95 19.3 0.45 15.8 -4.55 21.3 -3.05 26.8 -7.55 32.3 -12.05 25.3 -14.05 26.95 -13.95 32.3 -18.05 34.8 -19.9 34.65 -20.9 L32.8 -23.55 Q30.8 -26.05 25.8 -25.05 23.8 -27.55 20.8 -27.55" fill="#f4f6cb" fill-rule="evenodd" stroke="none"/>
    <path d="M33.4 -21.7 Q31.4 -24.2 26.4 -23.2 24.4 -25.7 21.4 -25.7 18.4 -25.7 16.4 -24.2 13.4 -27.2 5.9 -26.7 -1.6 -26.2 -6.6 -22.7 -8.6 -25.2 -19.1 -18.2 -29.6 -11.2 -30.1 -6.2 -32.6 -5.7 -35.6 -3.2 L-38.95 -0.6 Q-40.1 0.55 -40.1 2.8 -40.1 6.3 -37.1 5.3 -37.6 7.3 -34.6 8.3 -31.6 9.3 -29.1 6.3 -28.6 11.3 -24.6 11.3 -20.6 11.3 -18.6 6.8 -15.6 11.8 -10.6 11.3 -5.6 10.8 -4.6 6.3 -0.1 10.8 4.9 8.8 9.9 6.8 8.9 2.3 13.9 7.3 16.9 4.8 19.9 2.3 16.4 -2.7 21.9 -1.2 27.4 -5.7 32.9 -10.2 25.9 -12.2 27.55 -12.1 32.9 -16.2 35.4 -18.05 35.25 -19.05 L33.4 -21.7 Z" fill="none" stroke="#f4f6cb" stroke-linecap="round" stroke-linejoin="round" stroke-width="32.300000000000004"/>
    <path d="M34.0 -19.85 Q32.0 -22.35 27.0 -21.35 25.0 -23.85 22.0 -23.85 19.0 -23.85 17.0 -22.35 14.0 -25.35 6.5 -24.85 -1.0 -24.35 -6.0 -20.85 -8.0 -23.35 -18.5 -16.35 -29.0 -9.35 -29.5 -4.35 -32.0 -3.85 -35.0 -1.35 L-38.35 1.25 Q-39.5 2.4 -39.5 4.65 -39.5 8.15 -36.5 7.15 -37.0 9.15 -34.0 10.15 -31.0 11.15 -28.5 8.15 -28.0 13.15 -24.0 13.15 -20.0 13.15 -18.0 8.65 -15.0 13.65 -10.0 13.15 -5.0 12.65 -4.0 8.15 0.5 12.65 5.5 10.65 10.5 8.65 9.5 4.15 14.5 9.15 17.5 6.65 20.5 4.15 17.0 -0.85 22.5 0.65 28.0 -3.85 33.5 -8.35 26.5 -10.35 28.15 -10.3 33.5 -14.35 36.0 -16.2 35.85 -17.2 L34.0 -19.85 Z" fill="none" stroke="#f4f6cb" stroke-linecap="round" stroke-linejoin="round" stroke-width="24.55"/>
    <path d="M6.65 -24.35 Q-0.85 -23.85 -5.85 -20.35 -7.85 -22.85 -18.35 -15.85 -28.85 -8.85 -29.35 -3.85 -31.85 -3.35 -34.85 -0.85 L-38.2 1.75 Q-39.35 2.9 -39.35 5.15 -39.35 8.65 -36.35 7.65 -36.85 9.65 -33.85 10.65 -30.85 11.65 -28.35 8.65 -27.85 13.65 -23.85 13.65 -19.85 13.65 -17.85 9.15 -14.85 14.15 -9.85 13.65 -4.85 13.15 -3.85 8.65 0.65 13.15 5.65 11.15 10.65 9.15 9.65 4.65 14.65 9.65 17.65 7.15 20.65 4.65 17.15 -0.35 22.65 1.15 28.15 -3.35 33.65 -7.85 26.65 -9.85 28.3 -9.75 33.65 -13.85 36.15 -15.7 36.0 -16.7 L34.15 -19.35 Q32.15 -21.85 27.15 -20.85 25.15 -23.35 22.15 -23.35 19.15 -23.35 17.15 -21.85 14.15 -24.85 6.65 -24.35 Z" fill="none" stroke="#f2f4c5" stroke-linecap="round" stroke-linejoin="round" stroke-width="22.400000000000002"/>
    <path d="M6.8 -23.85 Q-0.7 -23.35 -5.7 -19.85 -7.7 -22.35 -18.2 -15.35 -28.7 -8.35 -29.2 -3.35 -31.7 -2.85 -34.7 -0.35 L-38.05 2.25 Q-39.2 3.4 -39.2 5.65 -39.2 9.15 -36.2 8.15 -36.7 10.15 -33.7 11.15 -30.7 12.15 -28.2 9.15 -27.7 14.15 -23.7 14.15 -19.7 14.15 -17.7 9.65 -14.7 14.65 -9.7 14.15 -4.7 13.65 -3.7 9.15 0.8 13.65 5.8 11.65 10.8 9.65 9.8 5.15 14.8 10.15 17.8 7.65 20.8 5.15 17.3 0.15 22.8 1.65 28.3 -2.85 33.8 -7.35 26.8 -9.35 28.45 -9.25 33.8 -13.35 36.3 -15.2 36.15 -16.2 L34.3 -18.85 Q32.3 -21.35 27.3 -20.35 25.3 -22.85 22.3 -22.85 19.3 -22.85 17.3 -21.35 14.3 -24.35 6.8 -23.85 Z" fill="none" stroke="#eff1bf" stroke-linecap="round" stroke-linejoin="round" stroke-width="20.25"/>
    <path d="M7.0 -23.3 Q-0.5 -22.8 -5.5 -19.3 -7.5 -21.8 -18.0 -14.8 -28.5 -7.8 -29.0 -2.8 -31.5 -2.3 -34.5 0.2 L-37.85 2.8 Q-39.0 3.95 -39.0 6.2 -39.0 9.7 -36.0 8.7 -36.5 10.7 -33.5 11.7 -30.5 12.7 -28.0 9.7 -27.5 14.7 -23.5 14.7 -19.5 14.7 -17.5 10.2 -14.5 15.2 -9.5 14.7 -4.5 14.2 -3.5 9.7 1.0 14.2 6.0 12.2 11.0 10.2 10.0 5.7 15.0 10.7 18.0 8.2 21.0 5.7 17.5 0.7 23.0 2.2 28.5 -2.3 34.0 -6.8 27.0 -8.8 28.6 -8.75 34.0 -12.8 36.45 -14.7 36.35 -15.65 L34.5 -18.3 Q32.5 -20.8 27.5 -19.8 25.5 -22.3 22.5 -22.3 19.5 -22.3 17.5 -20.8 14.5 -23.8 7.0 -23.3 Z" fill="none" stroke="#edefb8" stroke-linecap="round" stroke-linejoin="round" stroke-width="18.1"/>
    <path d="M7.15 -22.8 Q-0.35 -22.3 -5.35 -18.8 -7.35 -21.3 -17.85 -14.3 -28.35 -7.3 -28.85 -2.3 -31.35 -1.8 -34.35 0.7 L-37.7 3.3 Q-38.85 4.45 -38.85 6.7 -38.85 10.2 -35.85 9.2 -36.35 11.2 -33.35 12.2 -30.35 13.2 -27.85 10.2 -27.35 15.2 -23.35 15.2 -19.35 15.2 -17.35 10.7 -14.35 15.7 -9.35 15.2 -4.35 14.7 -3.35 10.2 1.15 14.7 6.15 12.7 11.15 10.7 10.15 6.2 15.15 11.2 18.15 8.7 21.15 6.2 17.65 1.2 23.15 2.7 28.65 -1.8 34.15 -6.3 27.15 -8.3 28.8 -8.25 34.15 -12.3 36.6 -14.15 36.5 -15.15 L34.65 -17.8 Q32.65 -20.3 27.65 -19.3 25.65 -21.8 22.65 -21.8 19.65 -21.8 17.65 -20.3 14.65 -23.3 7.15 -22.8 Z" fill="none" stroke="#eaecb2" stroke-linecap="round" stroke-linejoin="round" stroke-width="16.0"/>
    <path d="M7.3 -22.3 Q-0.2 -21.8 -5.2 -18.3 -7.2 -20.8 -17.7 -13.8 -28.2 -6.8 -28.7 -1.8 -31.2 -1.3 -34.2 1.2 L-37.55 3.8 Q-38.7 4.95 -38.7 7.2 -38.7 10.7 -35.7 9.7 -36.2 11.7 -33.2 12.7 -30.2 13.7 -27.7 10.7 -27.2 15.7 -23.2 15.7 -19.2 15.7 -17.2 11.2 -14.2 16.2 -9.2 15.7 -4.2 15.2 -3.2 10.7 1.3 15.2 6.3 13.2 11.3 11.2 10.3 6.7 15.3 11.7 18.3 9.2 21.3 6.7 17.8 1.7 23.3 3.2 28.8 -1.3 34.3 -5.8 27.3 -7.8 28.95 -7.75 34.3 -11.8 36.8 -13.65 36.65 -14.65 L34.8 -17.3 Q32.8 -19.8 27.8 -18.8 25.8 -21.3 22.8 -21.3 19.8 -21.3 17.8 -19.8 14.8 -22.8 7.3 -22.3 Z" fill="none" stroke="#e1e4a0" stroke-linecap="round" stroke-linejoin="round" stroke-width="13.850000000000001"/>
    <path d="M7.45 -21.8 Q-0.05 -21.3 -5.05 -17.8 -7.05 -20.3 -17.55 -13.3 -28.05 -6.3 -28.55 -1.3 -31.05 -0.8 -34.05 1.7 L-37.4 4.3 Q-38.55 5.45 -38.55 7.7 -38.55 11.2 -35.55 10.2 -36.05 12.2 -33.05 13.2 -30.05 14.2 -27.55 11.2 -27.05 16.2 -23.05 16.2 -19.05 16.2 -17.05 11.7 -14.05 16.7 -9.05 16.2 -4.05 15.7 -3.05 11.2 1.45 15.7 6.45 13.7 11.45 11.7 10.45 7.2 15.45 12.2 18.45 9.7 21.45 7.2 17.95 2.2 23.45 3.7 28.95 -0.8 34.45 -5.3 27.45 -7.3 29.1 -7.25 34.45 -11.3 36.95 -13.15 36.8 -14.15 L34.95 -16.8 Q32.95 -19.3 27.95 -18.3 25.95 -20.8 22.95 -20.8 19.95 -20.8 17.95 -19.3 14.95 -22.3 7.45 -21.8 Z" fill="none" stroke="#d8dc8e" stroke-linecap="round" stroke-linejoin="round" stroke-width="11.700000000000001"/>
    <path d="M7.6 -21.3 Q0.1 -20.8 -4.9 -17.3 -6.9 -19.8 -17.4 -12.8 -27.9 -5.8 -28.4 -0.8 -30.9 -0.3 -33.9 2.2 L-37.25 4.8 Q-38.4 5.95 -38.4 8.2 -38.4 11.7 -35.4 10.7 -35.9 12.7 -32.9 13.7 -29.9 14.7 -27.4 11.7 -26.9 16.7 -22.9 16.7 -18.9 16.7 -16.9 12.2 -13.9 17.2 -8.9 16.7 -3.9 16.2 -2.9 11.7 1.6 16.2 6.6 14.2 11.6 12.2 10.6 7.7 15.6 12.7 18.6 10.2 21.6 7.7 18.1 2.7 23.6 4.2 29.1 -0.3 34.6 -4.8 27.6 -6.8 29.25 -6.7 34.6 -10.8 37.1 -12.65 36.95 -13.65 L35.1 -16.3 Q33.1 -18.8 28.1 -17.8 26.1 -20.3 23.1 -20.3 20.1 -20.3 18.1 -18.8 15.1 -21.8 7.6 -21.3 Z" fill="none" stroke="#cfd47b" stroke-linecap="round" stroke-linejoin="round" stroke-width="9.55"/>
    <path d="M7.8 -20.8 Q0.3 -20.3 -4.7 -16.8 -6.7 -19.3 -17.2 -12.3 -27.7 -5.3 -28.2 -0.3 -30.7 0.2 -33.7 2.7 L-37.05 5.3 Q-38.2 6.45 -38.2 8.7 -38.2 12.2 -35.2 11.2 -35.7 13.2 -32.7 14.2 -29.7 15.2 -27.2 12.2 -26.7 17.2 -22.7 17.2 -18.7 17.2 -16.7 12.7 -13.7 17.7 -8.7 17.2 -3.7 16.7 -2.7 12.2 1.8 16.7 6.8 14.7 11.8 12.7 10.8 8.2 15.8 13.2 18.8 10.7 21.8 8.2 18.3 3.2 23.8 4.7 29.3 0.2 34.8 -4.3 27.8 -6.3 29.4 -6.2 34.8 -10.3 37.25 -12.15 37.15 -13.15 L35.3 -15.8 Q33.3 -18.3 28.3 -17.3 26.3 -19.8 23.3 -19.8 20.3 -19.8 18.3 -18.3 15.3 -21.3 7.8 -20.8 Z" fill="none" stroke="#c6cb69" stroke-linecap="round" stroke-linejoin="round" stroke-width="7.4"/>
    <path d="M7.95 -20.2 Q0.45 -19.7 -4.55 -16.2 -6.55 -18.7 -17.05 -11.7 -27.55 -4.7 -28.05 0.3 -30.55 0.8 -33.55 3.3 L-36.9 5.9 Q-38.05 7.05 -38.05 9.3 -38.05 12.8 -35.05 11.8 -35.55 13.8 -32.55 14.8 -29.55 15.8 -27.05 12.8 -26.55 17.8 -22.55 17.8 -18.55 17.8 -16.55 13.3 -13.55 18.3 -8.55 17.8 -3.55 17.3 -2.55 12.8 1.95 17.3 6.95 15.3 11.95 13.3 10.95 8.8 15.95 13.8 18.95 11.3 21.95 8.8 18.45 3.8 23.95 5.3 29.45 0.8 34.95 -3.7 27.95 -5.7 29.6 -5.65 34.95 -9.7 37.45 -11.55 37.3 -12.55 L35.45 -15.2 Q33.45 -17.7 28.45 -16.7 26.45 -19.2 23.45 -19.2 20.45 -19.2 18.45 -17.7 15.45 -20.7 7.95 -20.2 Z" fill="none" stroke="#a9a257" stroke-linecap="round" stroke-linejoin="round" stroke-width="4.95"/>
    <path d="M8.15 -19.6 Q0.65 -19.1 -4.35 -15.6 -6.35 -18.1 -16.85 -11.1 -27.35 -4.1 -27.85 0.9 -30.35 1.4 -33.35 3.9 L-36.7 6.5 Q-37.85 7.65 -37.85 9.9 -37.85 13.4 -34.85 12.4 -35.35 14.4 -32.35 15.4 -29.35 16.4 -26.85 13.4 -26.35 18.4 -22.35 18.4 -18.35 18.4 -16.35 13.9 -13.35 18.9 -8.35 18.4 -3.35 17.9 -2.35 13.4 2.15 17.9 7.15 15.9 12.15 13.9 11.15 9.4 16.15 14.4 19.15 11.9 22.15 9.4 18.65 4.4 24.15 5.9 29.65 1.4 35.15 -3.1 28.15 -5.1 29.8 -5.05 35.15 -9.1 37.65 -10.95 37.5 -11.95 L35.65 -14.6 Q33.65 -17.1 28.65 -16.1 26.65 -18.6 23.65 -18.6 20.65 -18.6 18.65 -17.1 15.65 -20.1 8.15 -19.6 Z" fill="none" stroke="#8c7845" stroke-linecap="round" stroke-linejoin="round" stroke-width="2.45"/>
  </g>
</svg>
