<?xml version="1.0" encoding="UTF-8" standalone="no"?>
<svg xmlns:xlink="http://www.w3.org/1999/xlink" height="19.15px" width="35.9px" xmlns="http://www.w3.org/2000/svg">
  <g transform="matrix(1.0, 0.0, 0.0, 1.0, 0.9, -5.4)">
    <path d="M20.8 6.45 Q17.45 6.7 15.2 8.25 14.3 7.15 9.55 10.3 4.85 13.45 4.6 15.65 3.5 15.9 2.15 17.0 L0.65 18.2 Q0.1 18.7 0.1 19.7 0.1 21.3 1.45 20.85 1.25 21.75 2.6 22.2 3.95 22.65 5.05 21.3 5.3 23.55 7.1 23.55 8.9 23.55 9.8 21.5 11.15 23.75 13.4 23.55 15.65 23.3 16.1 21.3 18.1 23.3 20.35 22.4 22.6 21.5 22.15 19.5 24.4 21.75 25.75 20.6 27.1 19.5 25.55 17.25 28.0 17.9 30.5 15.9 32.95 13.9 29.8 13.0 30.55 13.0 32.95 11.2 34.1 10.3 34.0 9.9 L33.2 8.7 Q32.3 7.6 30.05 8.05 29.15 6.9 27.8 6.9 26.45 6.9 25.55 7.6 24.2 6.25 20.8 6.45 Z" fill="none" stroke="#747532" stroke-linecap="round" stroke-linejoin="round" stroke-width="2.0"/>
  </g>
</svg>
