<?xml version="1.0" encoding="UTF-8" standalone="no"?>
<svg xmlns:xlink="http://www.w3.org/1999/xlink" height="21.9px" width="32.7px" xmlns="http://www.w3.org/2000/svg">
  <g transform="matrix(1.0, 0.0, 0.0, 1.0, -0.8, -11.55)">
    <path d="M20.5 30.8 Q14.45 32.85 9.05 31.25 L2.3 23.6 32.0 13.05 31.3 24.95 Q26.6 28.8 20.5 30.8" fill="#896f69" fill-rule="evenodd" stroke="none"/>
    <path d="M20.5 30.8 Q26.6 28.8 31.3 24.95 L32.0 13.05 2.3 23.6 9.05 31.25 Q14.45 32.85 20.5 30.8 Z" fill="none" stroke="#332e27" stroke-linecap="round" stroke-linejoin="round" stroke-width="3.0"/>
    <path d="M11.75 31.5 L7.9 26.1" fill="none" stroke="#332e27" stroke-linecap="round" stroke-linejoin="round" stroke-width="1.0"/>
    <path d="M14.65 31.7 L12.2 26.75" fill="none" stroke="#332e27" stroke-linecap="round" stroke-linejoin="round" stroke-width="1.0"/>
    <path d="M19.4 30.8 L17.8 25.85" fill="none" stroke="#332e27" stroke-linecap="round" stroke-linejoin="round" stroke-width="1.0"/>
    <path d="M24.1 29.0 L23.45 23.85" fill="none" stroke="#332e27" stroke-linecap="round" stroke-linejoin="round" stroke-width="1.0"/>
    <path d="M27.95 20.45 L27.95 26.55" fill="none" stroke="#332e27" stroke-linecap="round" stroke-linejoin="round" stroke-width="1.0"/>
    <path d="M29.5 19.1 L29.5 25.65" fill="none" stroke="#332e27" stroke-linecap="round" stroke-linejoin="round" stroke-width="1.0"/>
  </g>
</svg>
