<?xml version="1.0" encoding="UTF-8" standalone="no"?>
<svg xmlns:xlink="http://www.w3.org/1999/xlink" height="19.15px" width="35.9px" xmlns="http://www.w3.org/2000/svg">
  <g transform="matrix(1.0, 0.0, 0.0, 1.0, 1.6, -8.6)">
    <path d="M20.1 9.65 Q16.75 9.9 14.5 11.45 13.6 10.35 8.85 13.5 4.15 16.65 3.9 18.85 2.8 19.1 1.45 20.2 L-0.05 21.4 Q-0.6 21.9 -0.6 22.9 -0.6 24.5 0.75 24.05 0.55 24.95 1.9 25.4 3.25 25.85 4.35 24.5 4.6 26.75 6.4 26.75 8.2 26.75 9.1 24.7 10.45 26.95 12.7 26.75 14.95 26.5 15.4 24.5 17.4 26.5 19.65 25.6 21.9 24.7 21.45 22.7 23.7 24.95 25.05 23.8 26.4 22.7 24.85 20.45 27.3 21.1 29.8 19.1 32.25 17.1 29.1 16.2 29.8 16.15 32.25 14.4 33.35 13.6 33.3 13.15 L32.5 11.9 Q31.6 10.8 29.35 11.25 28.45 10.1 27.1 10.1 25.75 10.1 24.85 10.8 23.5 9.45 20.1 9.65 Z" fill="none" stroke="#483527" stroke-linecap="round" stroke-linejoin="round" stroke-width="2.0"/>
    <path d="M16.0 19.45 Q16.0 18.85 16.6 18.4 17.15 18.0 17.95 18.0 18.7 18.0 19.3 18.4 19.85 18.85 19.85 19.45 19.85 20.05 19.3 20.5 18.7 20.9 17.95 20.9 17.15 20.9 16.6 20.5 16.0 20.05 16.0 19.45" fill="url(#gradient0)" fill-rule="evenodd" stroke="none"/>
    <path d="M9.05 19.55 Q9.05 20.1 9.45 20.5 9.9 20.9 10.5 20.9 11.1 20.9 11.55 20.5 11.95 20.1 11.95 19.55 11.95 19.0 11.55 18.6 11.1 18.2 10.5 18.2 9.9 18.2 9.45 18.6 9.05 19.0 9.05 19.55" fill="url(#gradient1)" fill-rule="evenodd" stroke="none"/>
    <path d="M5.0 20.35 Q5.0 20.85 5.35 21.2 5.7 21.6 6.25 21.6 6.75 21.6 7.1 21.2 L7.45 20.35 Q7.45 19.8 7.1 19.45 6.75 19.1 6.25 19.1 5.7 19.1 5.35 19.45 5.0 19.8 5.0 20.35" fill="url(#gradient2)" fill-rule="evenodd" stroke="none"/>
    <path d="M8.6 15.4 Q8.6 16.0 9.0 16.45 9.45 16.85 10.05 16.85 10.65 16.85 11.1 16.45 11.5 16.0 11.5 15.4 11.5 14.8 11.1 14.35 L10.05 13.95 Q9.45 13.95 9.0 14.35 8.6 14.8 8.6 15.4" fill="url(#gradient3)" fill-rule="evenodd" stroke="none"/>
    <path d="M10.8 12.65 L11.65 13.25 12.95 13.05 Q13.6 12.75 13.95 12.2 14.3 11.65 14.1 11.2 13.85 10.75 13.25 10.6 L11.9 10.8 10.9 11.65 Q10.55 12.2 10.8 12.65" fill="url(#gradient4)" fill-rule="evenodd" stroke="none"/>
    <path d="M17.8 10.9 Q17.8 11.3 18.4 11.6 L19.75 11.9 21.1 11.6 Q21.65 11.3 21.65 10.9 21.65 10.5 21.1 10.15 L19.75 9.9 18.4 10.15 Q17.8 10.5 17.8 10.9" fill="url(#gradient5)" fill-rule="evenodd" stroke="none"/>
    <path d="M14.9 13.25 Q14.9 13.8 15.3 14.2 15.75 14.6 16.35 14.6 16.95 14.6 17.4 14.2 17.8 13.8 17.8 13.25 17.8 12.7 17.4 12.3 16.95 11.9 16.35 11.9 15.75 11.9 15.3 12.3 14.9 12.7 14.9 13.25" fill="url(#gradient6)" fill-rule="evenodd" stroke="none"/>
    <path d="M20.75 13.8 Q20.75 14.35 21.2 14.7 21.65 15.05 22.3 15.05 22.95 15.05 23.4 14.7 23.9 14.35 23.9 13.8 23.9 13.3 23.4 12.95 22.95 12.6 22.3 12.6 21.65 12.6 21.2 12.95 20.75 13.3 20.75 13.8" fill="url(#gradient7)" fill-rule="evenodd" stroke="none"/>
    <path d="M22.3 17.4 Q22.5 17.85 23.05 18.0 L24.2 17.95 25.15 17.25 Q25.45 16.8 25.3 16.35 L24.55 15.75 23.4 15.8 22.5 16.5 Q22.15 16.95 22.3 17.4" fill="url(#gradient8)" fill-rule="evenodd" stroke="none"/>
    <path d="M26.1 12.8 L27.15 13.05 28.2 12.8 28.6 12.15 Q28.6 11.75 28.2 11.5 L27.15 11.25 26.1 11.5 Q25.7 11.75 25.7 12.15 L26.1 12.8" fill="url(#gradient9)" fill-rule="evenodd" stroke="none"/>
  </g>
  <defs>
    <radialGradient cx="0" cy="0" gradientTransform="matrix(0.0027, 0.0, 0.0, 0.0027, 17.75, 18.8)" gradientUnits="userSpaceOnUse" id="gradient0" r="819.2" spreadMethod="pad">
      <stop offset="0.0" stop-color="#8856ae"/>
      <stop offset="0.18823529411764706" stop-color="#8856ae"/>
      <stop offset="0.6705882352941176" stop-color="#4b2c58"/>
      <stop offset="1.0" stop-color="#4b2c58"/>
    </radialGradient>
    <radialGradient cx="0" cy="0" gradientTransform="matrix(0.0024, 0.0, 0.0, 0.0024, 10.35, 18.95)" gradientUnits="userSpaceOnUse" id="gradient1" r="819.2" spreadMethod="pad">
      <stop offset="0.0" stop-color="#8856ae"/>
      <stop offset="0.18823529411764706" stop-color="#8856ae"/>
      <stop offset="0.6705882352941176" stop-color="#4b2c58"/>
      <stop offset="1.0" stop-color="#4b2c58"/>
    </radialGradient>
    <radialGradient cx="0" cy="0" gradientTransform="matrix(0.0022, 0.0, 0.0, 0.0022, 6.1, 19.8)" gradientUnits="userSpaceOnUse" id="gradient2" r="819.2" spreadMethod="pad">
      <stop offset="0.0" stop-color="#8856ae"/>
      <stop offset="0.18823529411764706" stop-color="#8856ae"/>
      <stop offset="0.6705882352941176" stop-color="#4b2c58"/>
      <stop offset="1.0" stop-color="#4b2c58"/>
    </radialGradient>
    <radialGradient cx="0" cy="0" gradientTransform="matrix(0.0026, 0.0, 0.0, 0.0026, 9.9, 14.75)" gradientUnits="userSpaceOnUse" id="gradient3" r="819.2" spreadMethod="pad">
      <stop offset="0.0" stop-color="#8856ae"/>
      <stop offset="0.18823529411764706" stop-color="#8856ae"/>
      <stop offset="0.6705882352941176" stop-color="#4b2c58"/>
      <stop offset="1.0" stop-color="#4b2c58"/>
    </radialGradient>
    <radialGradient cx="0" cy="0" gradientTransform="matrix(0.0025, 0.0, 0.0, 0.0025, 12.3, 11.3)" gradientUnits="userSpaceOnUse" id="gradient4" r="819.2" spreadMethod="pad">
      <stop offset="0.0" stop-color="#8856ae"/>
      <stop offset="0.18823529411764706" stop-color="#8856ae"/>
      <stop offset="0.6705882352941176" stop-color="#4b2c58"/>
      <stop offset="1.0" stop-color="#4b2c58"/>
    </radialGradient>
    <radialGradient cx="0" cy="0" gradientTransform="matrix(0.0026, 0.0, 0.0, 0.0026, 19.55, 10.45)" gradientUnits="userSpaceOnUse" id="gradient5" r="819.2" spreadMethod="pad">
      <stop offset="0.0" stop-color="#8856ae"/>
      <stop offset="0.18823529411764706" stop-color="#8856ae"/>
      <stop offset="0.6705882352941176" stop-color="#4b2c58"/>
      <stop offset="1.0" stop-color="#4b2c58"/>
    </radialGradient>
    <radialGradient cx="0" cy="0" gradientTransform="matrix(0.0024, 0.0, 0.0, 0.0024, 16.2, 12.65)" gradientUnits="userSpaceOnUse" id="gradient6" r="819.2" spreadMethod="pad">
      <stop offset="0.0" stop-color="#8856ae"/>
      <stop offset="0.18823529411764706" stop-color="#8856ae"/>
      <stop offset="0.6705882352941176" stop-color="#4b2c58"/>
      <stop offset="1.0" stop-color="#4b2c58"/>
    </radialGradient>
    <radialGradient cx="0" cy="0" gradientTransform="matrix(0.0022, 0.0, 0.0, 0.0022, 22.15, 13.3)" gradientUnits="userSpaceOnUse" id="gradient7" r="819.2" spreadMethod="pad">
      <stop offset="0.0" stop-color="#8856ae"/>
      <stop offset="0.18823529411764706" stop-color="#8856ae"/>
      <stop offset="0.6705882352941176" stop-color="#4b2c58"/>
      <stop offset="1.0" stop-color="#4b2c58"/>
    </radialGradient>
    <radialGradient cx="0" cy="0" gradientTransform="matrix(0.0021, 0.0, 0.0, 0.0021, 23.65, 16.35)" gradientUnits="userSpaceOnUse" id="gradient8" r="819.2" spreadMethod="pad">
      <stop offset="0.0" stop-color="#8856ae"/>
      <stop offset="0.18823529411764706" stop-color="#8856ae"/>
      <stop offset="0.6705882352941176" stop-color="#4b2c58"/>
      <stop offset="1.0" stop-color="#4b2c58"/>
    </radialGradient>
    <radialGradient cx="0" cy="0" gradientTransform="matrix(0.002, 0.0, 0.0, 0.002, 27.0, 11.7)" gradientUnits="userSpaceOnUse" id="gradient9" r="819.2" spreadMethod="pad">
      <stop offset="0.0" stop-color="#8856ae"/>
      <stop offset="0.18823529411764706" stop-color="#8856ae"/>
      <stop offset="0.6705882352941176" stop-color="#4b2c58"/>
      <stop offset="1.0" stop-color="#4b2c58"/>
    </radialGradient>
  </defs>
</svg>
