<?xml version="1.0" encoding="UTF-8" standalone="no"?>
<svg xmlns:xlink="http://www.w3.org/1999/xlink" height="19.15px" width="25.7px" xmlns="http://www.w3.org/2000/svg">
  <g transform="matrix(1.0, 0.0, 0.0, 1.0, -2.35, -5.95)">
    <path d="M15.0 23.1 Q8.55 22.95 7.3 21.7 L4.35 8.4 26.05 9.1 22.35 21.55 Q21.5 23.3 15.0 23.1" fill="#493406" fill-rule="evenodd" stroke="none"/>
    <path d="M15.0 23.1 Q8.55 22.95 7.3 21.7 L4.35 8.4 26.05 9.1 22.35 21.55 Q21.5 23.3 15.0 23.1 Z" fill="none" stroke="#302400" stroke-linecap="round" stroke-linejoin="round" stroke-width="4.0"/>
    <path d="M17.7 11.95 L17.95 8.85 Q18.0 7.75 17.55 7.4 L15.9 7.2 15.1 7.35 Q14.65 7.6 14.45 8.4 13.8 10.55 14.5 17.15 L15.0 21.5 Q15.2 22.6 15.9 22.6 16.6 22.6 16.9 21.5 L17.3 17.15 17.7 11.95" fill="url(#gradient0)" fill-rule="evenodd" stroke="none"/>
    <path d="M21.15 5.95 L20.45 6.15 Q19.95 6.45 19.6 7.25 18.55 9.55 18.15 16.3 L17.8 19.5 17.5 21.3 Q17.4 21.9 17.6 22.1 L18.65 22.25 Q19.35 22.25 19.7 20.65 L21.7 10.25 22.25 7.25 Q22.35 6.3 22.1 6.05 L21.15 5.95" fill="url(#gradient1)" fill-rule="evenodd" stroke="none"/>
    <path d="M26.5 7.55 L26.8 6.6 26.05 6.65 25.3 6.65 Q24.75 6.75 24.3 7.3 22.9 9.05 21.75 15.6 L21.1 18.95 20.7 20.9 Q20.65 21.6 20.9 21.75 L21.9 21.55 Q22.5 21.3 23.95 15.25 25.0 10.75 26.5 7.55" fill="url(#gradient2)" fill-rule="evenodd" stroke="none"/>
    <path d="M11.7 6.2 L9.9 6.15 Q9.1 6.2 8.85 6.5 8.55 6.85 8.6 7.8 L10.05 15.95 11.0 20.55 Q11.55 22.15 12.7 22.45 L13.75 22.5 Q14.05 22.35 14.05 21.65 L13.85 19.75 13.6 16.5 13.2 10.4 12.7 7.3 Q12.4 6.45 11.7 6.2" fill="url(#gradient3)" fill-rule="evenodd" stroke="none"/>
    <path d="M4.35 7.75 Q5.6 10.95 6.35 15.45 7.4 21.65 7.9 21.75 L9.85 21.85 Q10.35 21.7 10.25 21.05 L9.8 19.1 9.2 15.8 Q8.5 9.25 6.85 7.5 6.35 6.9 5.65 6.85 L4.85 6.85 4.05 6.8 4.35 7.75" fill="url(#gradient4)" fill-rule="evenodd" stroke="none"/>
  </g>
  <defs>
    <linearGradient gradientTransform="matrix(0.0, -0.0094, -0.0023, 0.0, 16.05, 14.9)" gradientUnits="userSpaceOnUse" id="gradient0" spreadMethod="pad" x1="-819.2" x2="819.2">
      <stop offset="0.0" stop-color="#a06805"/>
      <stop offset="0.39215686274509803" stop-color="#a06805"/>
      <stop offset="0.6235294117647059" stop-color="#4a3307"/>
      <stop offset="1.0" stop-color="#4a3307"/>
    </linearGradient>
    <linearGradient gradientTransform="matrix(0.0, -0.01, -0.0029, 0.0, 19.85, 14.1)" gradientUnits="userSpaceOnUse" id="gradient1" spreadMethod="pad" x1="-819.2" x2="819.2">
      <stop offset="0.0" stop-color="#a06805"/>
      <stop offset="0.39215686274509803" stop-color="#a06805"/>
      <stop offset="0.6235294117647059" stop-color="#4a3307"/>
      <stop offset="1.0" stop-color="#4a3307"/>
    </linearGradient>
    <linearGradient gradientTransform="matrix(0.0, -0.0093, -0.0037, 0.0, 23.75, 14.2)" gradientUnits="userSpaceOnUse" id="gradient2" spreadMethod="pad" x1="-819.2" x2="819.2">
      <stop offset="0.0" stop-color="#a06805"/>
      <stop offset="0.39215686274509803" stop-color="#a06805"/>
      <stop offset="0.6235294117647059" stop-color="#4a3307"/>
      <stop offset="1.0" stop-color="#4a3307"/>
    </linearGradient>
    <linearGradient gradientTransform="matrix(0.0, -0.01, -0.0033, 0.0, 11.3, 14.35)" gradientUnits="userSpaceOnUse" id="gradient3" spreadMethod="pad" x1="-819.2" x2="819.2">
      <stop offset="0.0" stop-color="#a06805"/>
      <stop offset="0.39215686274509803" stop-color="#a06805"/>
      <stop offset="0.6235294117647059" stop-color="#4a3307"/>
      <stop offset="1.0" stop-color="#4a3307"/>
    </linearGradient>
    <linearGradient gradientTransform="matrix(0.0, -0.0092, -0.0038, 0.0, 7.15, 14.35)" gradientUnits="userSpaceOnUse" id="gradient4" spreadMethod="pad" x1="-819.2" x2="819.2">
      <stop offset="0.0" stop-color="#a06805"/>
      <stop offset="0.39215686274509803" stop-color="#a06805"/>
      <stop offset="0.6235294117647059" stop-color="#4a3307"/>
      <stop offset="1.0" stop-color="#4a3307"/>
    </linearGradient>
  </defs>
</svg>
