<?xml version="1.0" encoding="UTF-8" standalone="no"?>
<svg xmlns:xlink="http://www.w3.org/1999/xlink" height="79.95px" width="111.0px" xmlns="http://www.w3.org/2000/svg">
  <g transform="matrix(1.0, 0.0, 0.0, 1.0, 58.8, 48.65)">
    <path d="M6.3 -19.8 Q2.8 -22.8 -1.2 -22.8 -5.2 -22.8 -5.7 -19.8 -8.7 -21.3 -11.7 -19.8 -14.7 -18.3 -14.7 -16.3 -17.7 -18.3 -23.2 -14.3 -28.7 -10.3 -28.7 -2.8 -39.2 0.2 -38.2 8.2 -37.2 16.2 -30.2 15.2 -29.2 16.7 -25.7 17.7 -22.2 18.7 -20.2 17.2 -18.7 20.2 -15.7 19.7 -12.7 19.2 -10.7 16.7 L-5.7 20.2 Q-3.7 23.2 1.3 22.7 6.3 22.2 8.3 19.7 10.8 22.7 14.8 21.2 18.8 19.7 20.3 17.2 25.3 22.2 30.8 19.2 36.3 16.2 35.8 11.7 38.3 12.2 38.3 6.7 38.3 1.2 35.3 0.7 34.8 -9.8 26.8 -14.8 18.8 -19.8 13.8 -19.8 13.3 -22.3 10.3 -22.3 7.3 -22.3 6.3 -19.8 Z" fill="none" stroke="#624c16" stroke-linecap="round" stroke-linejoin="round" stroke-width="4.0"/>
    <path d="M6.3 -19.8 Q2.8 -22.8 -1.2 -22.8 -5.2 -22.8 -5.7 -19.8 -8.7 -21.3 -11.7 -19.8 -14.7 -18.3 -14.7 -16.3 -17.7 -18.3 -23.2 -14.3 -28.7 -10.3 -28.7 -2.8 -39.2 0.2 -38.2 8.2 -37.2 16.2 -30.2 15.2 -29.2 16.7 -25.7 17.7 -22.2 18.7 -20.2 17.2 -18.7 20.2 -15.7 19.7 -12.7 19.2 -10.7 16.7 L-5.7 20.2 Q-3.7 23.2 1.3 22.7 6.3 22.2 8.3 19.7 10.8 22.7 14.8 21.2 18.8 19.7 20.3 17.2 25.3 22.2 30.8 19.2 36.3 16.2 35.8 11.7 38.3 12.2 38.3 6.7 38.3 1.2 35.3 0.7 34.8 -9.8 26.8 -14.8 18.8 -19.8 13.8 -19.8 13.3 -22.3 10.3 -22.3 7.3 -22.3 6.3 -19.8" fill="#8f6815" fill-rule="evenodd" stroke="none"/>
    <path d="M2.45 -29.85 Q-1.05 -32.85 -5.05 -32.85 -9.05 -32.85 -9.55 -29.85 -12.55 -31.35 -15.55 -29.85 -18.55 -28.35 -18.55 -26.35 -21.55 -28.35 -27.05 -24.35 -32.55 -20.35 -32.55 -12.85 -43.05 -9.85 -42.05 -1.85 -41.05 6.15 -34.05 5.15 -33.05 6.65 -29.55 7.65 -26.05 8.65 -24.05 7.15 -22.55 10.15 -19.55 9.65 -16.55 9.15 -14.55 6.65 L-9.55 10.15 Q-7.55 13.15 -2.55 12.65 2.45 12.15 4.45 9.65 6.95 12.65 10.95 11.15 14.95 9.65 16.45 7.15 21.45 12.15 26.95 9.15 32.45 6.15 31.95 1.65 34.45 2.15 34.45 -3.35 34.45 -8.85 31.45 -9.35 30.95 -19.85 22.95 -24.85 14.95 -29.85 9.95 -29.85 9.45 -32.35 6.45 -32.35 3.45 -32.35 2.45 -29.85" fill="#d6a133" fill-rule="evenodd" stroke="none"/>
    <path d="M3.0 -28.45 Q-0.5 -31.45 -4.5 -31.45 -8.5 -31.45 -9.0 -28.45 -12.0 -29.95 -15.0 -28.45 -18.0 -26.95 -18.0 -24.95 -21.0 -26.95 -26.5 -22.95 -32.0 -18.95 -32.0 -11.45 -42.5 -8.45 -41.5 -0.45 -40.5 7.55 -33.5 6.55 -32.5 8.05 -29.0 9.05 -25.5 10.05 -23.5 8.55 -22.0 11.55 -19.0 11.05 -16.0 10.55 -14.0 8.05 L-9.0 11.55 Q-7.0 14.55 -2.0 14.05 3.0 13.55 5.0 11.05 7.5 14.05 11.5 12.55 15.5 11.05 17.0 8.55 22.0 13.55 27.5 10.55 33.0 7.55 32.5 3.05 35.0 3.55 35.0 -1.95 35.0 -7.45 32.0 -7.95 31.5 -18.45 23.5 -23.45 15.5 -28.45 10.5 -28.45 10.0 -30.95 7.0 -30.95 4.0 -30.95 3.0 -28.45 Z" fill="none" stroke="#d6a133" stroke-linecap="round" stroke-linejoin="round" stroke-width="34.45"/>
    <path d="M3.5 -27.0 Q0.0 -30.0 -4.0 -30.0 -8.0 -30.0 -8.5 -27.0 -11.5 -28.5 -14.5 -27.0 -17.5 -25.5 -17.5 -23.5 -20.5 -25.5 -26.0 -21.5 -31.5 -17.5 -31.5 -10.0 -42.0 -7.0 -41.0 1.0 -40.0 9.0 -33.0 8.0 -32.0 9.5 -28.5 10.5 -25.0 11.5 -23.0 10.0 -21.5 13.0 -18.5 12.5 -15.5 12.0 -13.5 9.5 L-8.5 13.0 Q-6.5 16.0 -1.5 15.5 3.5 15.0 5.5 12.5 8.0 15.5 12.0 14.0 16.0 12.5 17.5 10.0 22.5 15.0 28.0 12.0 33.5 9.0 33.0 4.5 35.5 5.0 35.5 -0.5 35.5 -6.0 32.5 -6.5 32.0 -17.0 24.0 -22.0 16.0 -27.0 11.0 -27.0 10.5 -29.5 7.5 -29.5 4.5 -29.5 3.5 -27.0 Z" fill="none" stroke="#d6a133" stroke-linecap="round" stroke-linejoin="round" stroke-width="28.8"/>
    <path d="M3.7 -26.55 Q0.2 -29.55 -3.8 -29.55 -7.8 -29.55 -8.3 -26.55 -11.3 -28.05 -14.3 -26.55 -17.3 -25.05 -17.3 -23.05 -20.3 -25.05 -25.8 -21.05 -31.3 -17.05 -31.3 -9.55 -41.8 -6.55 -40.8 1.45 -39.8 9.45 -32.8 8.45 -31.8 9.95 -28.3 10.95 -24.8 11.95 -22.8 10.45 -21.3 13.45 -18.3 12.95 -15.3 12.45 -13.3 9.95 L-8.3 13.45 Q-6.3 16.45 -1.3 15.95 3.7 15.45 5.7 12.95 8.2 15.95 12.2 14.45 16.2 12.95 17.7 10.45 22.7 15.45 28.2 12.45 33.7 9.45 33.2 4.95 35.7 5.45 35.7 -0.05 35.7 -5.55 32.7 -6.05 32.2 -16.55 24.2 -21.55 16.2 -26.55 11.2 -26.55 10.7 -29.05 7.7 -29.05 4.7 -29.05 3.7 -26.55 Z" fill="none" stroke="#d29c2e" stroke-linecap="round" stroke-linejoin="round" stroke-width="26.900000000000002"/>
    <path d="M3.9 -26.05 Q0.4 -29.05 -3.6 -29.05 -7.6 -29.05 -8.1 -26.05 -11.1 -27.55 -14.1 -26.05 -17.1 -24.55 -17.1 -22.55 -20.1 -24.55 -25.6 -20.55 -31.1 -16.55 -31.1 -9.05 -41.6 -6.05 -40.6 1.95 -39.6 9.95 -32.6 8.95 -31.6 10.45 -28.1 11.45 -24.6 12.45 -22.6 10.95 -21.1 13.95 -18.1 13.45 -15.1 12.95 -13.1 10.45 L-8.1 13.95 Q-6.1 16.95 -1.1 16.45 3.9 15.95 5.9 13.45 8.4 16.45 12.4 14.95 16.4 13.45 17.9 10.95 22.9 15.95 28.4 12.95 33.9 9.95 33.4 5.45 35.9 5.95 35.9 0.45 35.9 -5.05 32.9 -5.55 32.4 -16.05 24.4 -21.05 16.4 -26.05 11.4 -26.05 10.9 -28.55 7.9 -28.55 4.9 -28.55 3.9 -26.05 Z" fill="none" stroke="#cd9729" stroke-linecap="round" stroke-linejoin="round" stroke-width="25.0"/>
    <path d="M4.05 -25.6 Q0.55 -28.6 -3.45 -28.6 -7.45 -28.6 -7.95 -25.6 -10.95 -27.1 -13.95 -25.6 -16.95 -24.1 -16.95 -22.1 -19.95 -24.1 -25.45 -20.1 -30.95 -16.1 -30.95 -8.6 -41.45 -5.6 -40.45 2.4 -39.45 10.4 -32.45 9.4 -31.45 10.9 -27.95 11.9 -24.45 12.9 -22.45 11.4 -20.95 14.4 -17.95 13.9 -14.95 13.4 -12.95 10.9 L-7.95 14.4 Q-5.95 17.4 -0.95 16.9 4.05 16.4 6.05 13.9 8.55 16.9 12.55 15.4 16.55 13.9 18.05 11.4 23.05 16.4 28.55 13.4 34.05 10.4 33.55 5.9 36.05 6.4 36.05 0.9 36.05 -4.6 33.05 -5.1 32.55 -15.6 24.55 -20.6 16.55 -25.6 11.55 -25.6 11.05 -28.1 8.05 -28.1 5.05 -28.1 4.05 -25.6 Z" fill="none" stroke="#c99325" stroke-linecap="round" stroke-linejoin="round" stroke-width="23.05"/>
    <path d="M4.25 -25.1 Q0.75 -28.1 -3.25 -28.1 -7.25 -28.1 -7.75 -25.1 -10.75 -26.6 -13.75 -25.1 -16.75 -23.6 -16.75 -21.6 -19.75 -23.6 -25.25 -19.6 -30.75 -15.6 -30.75 -8.1 -41.25 -5.1 -40.25 2.9 -39.25 10.9 -32.25 9.9 -31.25 11.4 -27.75 12.4 -24.25 13.4 -22.25 11.9 -20.75 14.9 -17.75 14.4 -14.75 13.9 -12.75 11.4 L-7.75 14.9 Q-5.75 17.9 -0.75 17.4 4.25 16.9 6.25 14.4 8.75 17.4 12.75 15.9 16.75 14.4 18.25 11.9 23.25 16.9 28.75 13.9 34.25 10.9 33.75 6.4 36.25 6.9 36.25 1.4 36.25 -4.1 33.25 -4.6 32.75 -15.1 24.75 -20.1 16.75 -25.1 11.75 -25.1 11.25 -27.6 8.25 -27.6 5.25 -27.6 4.25 -25.1 Z" fill="none" stroke="#c48e20" stroke-linecap="round" stroke-linejoin="round" stroke-width="21.150000000000002"/>
    <path d="M4.45 -24.6 Q0.95 -27.6 -3.05 -27.6 -7.05 -27.6 -7.55 -24.6 -10.55 -26.1 -13.55 -24.6 -16.55 -23.1 -16.55 -21.1 -19.55 -23.1 -25.05 -19.1 -30.55 -15.1 -30.55 -7.6 -41.05 -4.6 -40.05 3.4 -39.05 11.4 -32.05 10.4 -31.05 11.9 -27.55 12.9 -24.05 13.9 -22.05 12.4 -20.55 15.4 -17.55 14.9 -14.55 14.4 -12.55 11.9 L-7.55 15.4 Q-5.55 18.4 -0.55 17.9 4.45 17.4 6.45 14.9 8.95 17.9 12.95 16.4 16.95 14.9 18.45 12.4 23.45 17.4 28.95 14.4 34.45 11.4 33.95 6.9 36.45 7.4 36.45 1.9 36.45 -3.6 33.45 -4.1 32.95 -14.6 24.95 -19.6 16.95 -24.6 11.95 -24.6 11.45 -27.1 8.45 -27.1 5.45 -27.1 4.45 -24.6 Z" fill="none" stroke="#c0891b" stroke-linecap="round" stroke-linejoin="round" stroke-width="19.25"/>
    <path d="M4.6 -24.15 Q1.1 -27.15 -2.9 -27.15 -6.9 -27.15 -7.4 -24.15 -10.4 -25.65 -13.4 -24.15 -16.4 -22.65 -16.4 -20.65 -19.4 -22.65 -24.9 -18.65 -30.4 -14.65 -30.4 -7.15 -40.9 -4.15 -39.9 3.85 -38.9 11.85 -31.9 10.85 -30.9 12.35 -27.4 13.35 -23.9 14.35 -21.9 12.85 -20.4 15.85 -17.4 15.35 -14.4 14.85 -12.4 12.35 L-7.4 15.85 Q-5.4 18.85 -0.4 18.35 4.6 17.85 6.6 15.35 9.1 18.35 13.1 16.85 17.1 15.35 18.6 12.85 23.6 17.85 29.1 14.85 34.6 11.85 34.1 7.35 36.6 7.85 36.6 2.35 36.6 -3.15 33.6 -3.65 33.1 -14.15 25.1 -19.15 17.1 -24.15 12.1 -24.15 11.6 -26.65 8.6 -26.65 5.6 -26.65 4.6 -24.15 Z" fill="none" stroke="#bb8417" stroke-linecap="round" stroke-linejoin="round" stroke-width="17.3"/>
    <path d="M4.8 -23.6 Q1.3 -26.6 -2.7 -26.6 -6.7 -26.6 -7.2 -23.6 -10.2 -25.1 -13.2 -23.6 -16.2 -22.1 -16.2 -20.1 -19.2 -22.1 -24.7 -18.1 -30.2 -14.1 -30.2 -6.6 -40.7 -3.6 -39.7 4.4 -38.7 12.4 -31.7 11.4 -30.7 12.9 -27.2 13.9 -23.7 14.9 -21.7 13.4 -20.2 16.4 -17.2 15.9 -14.2 15.4 -12.2 12.9 L-7.2 16.4 Q-5.2 19.4 -0.2 18.9 4.8 18.4 6.8 15.9 9.3 18.9 13.3 17.4 17.3 15.9 18.8 13.4 23.8 18.4 29.3 15.4 34.8 12.4 34.3 7.9 36.8 8.4 36.8 2.9 36.8 -2.6 33.8 -3.1 33.3 -13.6 25.3 -18.6 17.3 -23.6 12.3 -23.6 11.8 -26.1 8.8 -26.1 5.8 -26.1 4.8 -23.6 Z" fill="none" stroke="#b07d16" stroke-linecap="round" stroke-linejoin="round" stroke-width="15.200000000000001"/>
    <path d="M5.05 -23.05 Q1.55 -26.05 -2.45 -26.05 -6.45 -26.05 -6.95 -23.05 -9.95 -24.55 -12.95 -23.05 -15.95 -21.55 -15.95 -19.55 -18.95 -21.55 -24.45 -17.55 -29.95 -13.55 -29.95 -6.05 -40.45 -3.05 -39.45 4.95 -38.45 12.95 -31.45 11.95 -30.45 13.45 -26.95 14.45 -23.45 15.45 -21.45 13.95 -19.95 16.95 -16.95 16.45 -13.95 15.95 -11.95 13.45 L-6.95 16.95 Q-4.95 19.95 0.05 19.45 5.05 18.95 7.05 16.45 9.55 19.45 13.55 17.95 17.55 16.45 19.05 13.95 24.05 18.95 29.55 15.95 35.05 12.95 34.55 8.45 37.05 8.95 37.05 3.45 37.05 -2.05 34.05 -2.55 33.55 -13.05 25.55 -18.05 17.55 -23.05 12.55 -23.05 12.05 -25.55 9.05 -25.55 6.05 -25.55 5.05 -23.05 Z" fill="none" stroke="#a57616" stroke-linecap="round" stroke-linejoin="round" stroke-width="13.05"/>
    <path d="M5.25 -22.5 Q1.75 -25.5 -2.25 -25.5 -6.25 -25.5 -6.75 -22.5 -9.75 -24.0 -12.75 -22.5 -15.75 -21.0 -15.75 -19.0 -18.75 -21.0 -24.25 -17.0 -29.75 -13.0 -29.75 -5.5 -40.25 -2.5 -39.25 5.5 -38.25 13.5 -31.25 12.5 -30.25 14.0 -26.75 15.0 -23.25 16.0 -21.25 14.5 -19.75 17.5 -16.75 17.0 -13.75 16.5 -11.75 14.0 L-6.75 17.5 Q-4.75 20.5 0.25 20.0 5.25 19.5 7.25 17.0 9.75 20.0 13.75 18.5 17.75 17.0 19.25 14.5 24.25 19.5 29.75 16.5 35.25 13.5 34.75 9.0 37.25 9.5 37.25 4.0 37.25 -1.5 34.25 -2.0 33.75 -12.5 25.75 -17.5 17.75 -22.5 12.75 -22.5 12.25 -25.0 9.25 -25.0 6.25 -25.0 5.25 -22.5 Z" fill="none" stroke="#9a6f15" stroke-linecap="round" stroke-linejoin="round" stroke-width="10.9"/>
    <path d="M5.45 -22.0 Q1.95 -25.0 -2.05 -25.0 -6.05 -25.0 -6.55 -22.0 -9.55 -23.5 -12.55 -22.0 -15.55 -20.5 -15.55 -18.5 -18.55 -20.5 -24.05 -16.5 -29.55 -12.5 -29.55 -5.0 -40.05 -2.0 -39.05 6.0 -38.05 14.0 -31.05 13.0 -30.05 14.5 -26.55 15.5 -23.05 16.5 -21.05 15.0 -19.55 18.0 -16.55 17.5 -13.55 17.0 -11.55 14.5 L-6.55 18.0 Q-4.55 21.0 0.45 20.5 5.45 20.0 7.45 17.5 9.95 20.5 13.95 19.0 17.95 17.5 19.45 15.0 24.45 20.0 29.95 17.0 35.45 14.0 34.95 9.5 37.45 10.0 37.45 4.5 37.45 -1.0 34.45 -1.5 33.95 -12.0 25.95 -17.0 17.95 -22.0 12.95 -22.0 12.45 -24.5 9.45 -24.5 6.45 -24.5 5.45 -22.0 Z" fill="none" stroke="#8f6815" stroke-linecap="round" stroke-linejoin="round" stroke-width="8.75"/>
    <path d="M5.85 -20.9 Q2.35 -23.9 -1.65 -23.9 -5.65 -23.9 -6.15 -20.9 -9.15 -22.4 -12.15 -20.9 -15.15 -19.4 -15.15 -17.4 -18.15 -19.4 -23.65 -15.4 -29.15 -11.4 -29.15 -3.9 -39.65 -0.9 -38.65 7.1 -37.65 15.1 -30.65 14.1 -29.65 15.6 -26.15 16.6 -22.65 17.6 -20.65 16.1 -19.15 19.1 -16.15 18.6 -13.15 18.1 -11.15 15.6 L-6.15 19.1 Q-4.15 22.1 0.85 21.6 5.85 21.1 7.85 18.6 10.35 21.6 14.35 20.1 18.35 18.6 19.85 16.1 24.85 21.1 30.35 18.1 35.85 15.1 35.35 10.6 37.85 11.1 37.85 5.6 37.85 0.1 34.85 -0.4 34.35 -10.9 26.35 -15.9 18.35 -20.9 13.35 -20.9 12.85 -23.4 9.85 -23.4 6.85 -23.4 5.85 -20.9 Z" fill="none" stroke="#8f6815" stroke-linecap="round" stroke-linejoin="round" stroke-width="4.3500000000000005"/>
  </g>
</svg>
