<?xml version="1.0" encoding="UTF-8" standalone="no"?>
<svg xmlns:xlink="http://www.w3.org/1999/xlink" height="19.95px" width="30.8px" xmlns="http://www.w3.org/2000/svg">
  <g transform="matrix(1.0, 0.0, 0.0, 1.0, 0.45, 5.35)">
    <path d="M17.15 -2.3 Q15.95 -3.35 14.55 -3.35 13.15 -3.35 12.95 -2.3 11.9 -2.8 10.85 -2.3 9.8 -1.75 9.8 -1.05 8.75 -1.75 6.85 -0.35 4.9 1.05 4.9 3.65 1.25 4.7 1.6 7.5 1.95 10.3 4.4 9.95 4.75 10.5 5.95 10.85 L7.9 10.65 Q8.4 11.7 9.45 11.55 10.5 11.35 11.2 10.5 L12.95 11.7 Q13.65 12.75 15.4 12.6 17.15 12.4 17.85 11.55 18.75 12.6 20.15 12.05 21.55 11.55 22.05 10.65 23.8 12.4 25.75 11.35 27.65 10.3 27.5 8.75 28.35 8.9 28.35 7.0 28.35 5.05 27.3 4.9 27.15 1.2 24.35 -0.55 21.55 -2.3 19.8 -2.3 19.6 -3.15 18.55 -3.15 17.5 -3.15 17.15 -2.3 Z" fill="none" stroke="#624c16" stroke-linecap="round" stroke-linejoin="round" stroke-width="4.0"/>
    <path d="M14.9 8.5 L14.75 9.05 12.35 8.7 9.95 8.35 8.95 8.65 7.95 8.95 Q7.0 8.95 5.45 8.1 3.95 7.3 2.95 7.35 3.15 6.2 3.55 6.2 L4.7 6.6 5.9 7.0 6.95 6.8 7.95 6.6 8.45 6.8 8.95 7.0 10.15 6.75 11.35 6.45 Q12.45 6.45 13.35 7.1 L14.9 8.5" fill="#d6a949" fill-rule="evenodd" stroke="none"/>
    <path d="M19.85 -0.15 L18.15 -0.5 17.4 -0.35 16.75 -0.05 Q16.05 -1.2 14.85 -1.2 13.55 -1.2 12.65 -0.3 L11.2 1.65 10.2 1.2 9.1 0.95 7.6 1.2 Q6.85 1.5 6.85 2.1 L7.05 3.25 8.25 3.25 12.25 3.4 Q12.35 2.7 12.75 2.3 13.25 1.8 13.95 1.8 14.75 1.8 15.7 2.55 16.7 3.3 17.45 3.4 L17.95 2.25 18.65 2.5 19.35 2.65 Q20.0 2.65 20.4 2.1 L20.7 0.95 Q20.7 0.25 19.85 -0.15" fill="#e2b95e" fill-rule="evenodd" stroke="none"/>
  </g>
</svg>
