<?xml version="1.0" encoding="UTF-8" standalone="no"?>
<svg xmlns:xlink="http://www.w3.org/1999/xlink" height="46.7px" width="185.4px" xmlns="http://www.w3.org/2000/svg">
  <g transform="matrix(1.0, 0.0, 0.0, 1.0, -1.5, -12.95)">
    <path d="M184.55 19.85 Q182.65 17.95 180.15 17.6 L178.9 17.5 128.55 17.5 15.3 17.5 Q12.0 17.5 9.65 19.85 7.3 22.2 7.3 25.5 L7.3 35.1 8.25 35.15 7.3 35.15 7.3 58.7 7.3 59.65 128.55 59.65 186.9 59.65 186.9 58.7 186.9 35.15 185.95 35.15 186.9 35.1 186.9 25.5 Q186.9 22.2 184.55 19.85" fill="#000000" fill-opacity="0.3019608" fill-rule="evenodd" stroke="none"/>
    <path d="M182.9 22.5 L182.9 32.1 181.95 32.15 182.9 32.15 182.9 55.7 182.9 56.65 128.55 56.65 3.3 56.65 3.3 55.7 3.3 32.15 4.25 32.15 3.3 32.1 3.3 22.5 Q3.3 19.2 5.65 16.85 8.0 14.5 11.3 14.5 L128.55 14.5 174.9 14.5 176.15 14.6 Q178.65 14.95 180.55 16.85 182.9 19.2 182.9 22.5 M128.55 56.65 L128.55 14.5 128.55 56.65" fill="#ffffff" fill-rule="evenodd" stroke="none"/>
    <path d="M179.5 17.9 Q177.95 16.35 175.95 16.1 L175.85 16.1 174.6 15.95 128.55 15.95 11.0 15.95 Q8.3 15.95 6.4 17.85 4.5 19.75 4.5 22.45 L4.5 32.1 1.5 32.1 1.5 22.45 Q1.5 18.55 4.3 15.75 7.1 12.95 11.0 12.95 L128.55 12.95 174.6 12.95 176.45 13.15 176.35 13.15 Q179.35 13.55 181.6 15.8 184.4 18.6 184.4 22.5 L184.4 32.1 181.4 32.1 181.4 22.5 Q181.4 19.8 179.5 17.9 M184.4 32.15 L184.4 55.7 184.4 56.65 181.4 56.65 181.4 55.7 181.4 32.15 184.4 32.15 M128.55 15.95 L128.55 12.95 128.55 15.95 M4.5 32.15 L4.5 55.55 4.55 56.65 1.5 56.65 1.5 55.55 1.5 32.15 4.5 32.15" fill="#fd360b" fill-rule="evenodd" stroke="none"/>
  </g>
</svg>
