<?xml version="1.0" encoding="UTF-8" standalone="no"?>
<svg xmlns:xlink="http://www.w3.org/1999/xlink" height="40.7px" width="30.25px" xmlns="http://www.w3.org/2000/svg">
  <g transform="matrix(1.0, 0.0, 0.0, 1.0, 15.4, 80.15)">
    <path d="M-3.35 -79.95 L0.35 -80.15 13.65 -79.55 14.85 -64.4 14.85 -44.9 -0.9 -39.45 -15.4 -44.3 -14.8 -64.4 -12.35 -79.55 -11.1 -79.6 -11.75 -79.55 -12.35 -76.5 -12.35 -74.7 -11.75 -74.7 -10.55 -75.3 -10.55 -78.35 0.95 -79.55 -3.35 -79.95 M9.75 -67.35 L11.2 -67.45 11.2 -66.85 9.75 -66.85 3.35 -66.85 1.55 -66.25 2.15 -67.45 1.55 -68.05 2.15 -68.05 9.55 -70.5 11.2 -71.05 10.0 -69.25 9.65 -69.15 2.75 -66.85 9.75 -67.35 M9.85 -58.55 L12.45 -57.75 11.85 -55.35 11.85 -57.15 9.8 -57.85 6.4 -58.95 0.35 -60.2 6.4 -59.6 9.85 -58.55 M-11.75 -73.5 L-13.6 -62.6 -14.2 -50.5 -0.9 -45.65 14.25 -50.5 14.25 -62.0 13.65 -72.9 13.05 -72.9 10.0 -74.1 3.95 -72.9 0.35 -71.05 -2.1 -72.9 -5.1 -74.1 -8.15 -74.1 -8.75 -74.0 -8.75 -74.1 -9.95 -73.8 -11.75 -73.5 M-8.95 -69.7 L-2.1 -67.45 -1.5 -67.45 -0.9 -67.45 -1.2 -66.4 -0.9 -66.25 -1.25 -66.25 -1.5 -65.3 -1.5 -63.8 -0.25 -63.2 1.55 -63.8 1.55 -65.0 2.15 -65.65 2.15 -63.2 -0.25 -63.2 -2.1 -63.2 -1.5 -65.3 -1.5 -66.25 -9.1 -66.25 -11.15 -66.25 -11.15 -66.85 -9.1 -66.85 -2.7 -66.85 -9.0 -68.3 -10.55 -68.65 -11.15 -70.45 -8.95 -69.7 M-9.15 -58.45 L-5.7 -59.6 0.35 -60.2 -9.15 -57.65 -10.55 -57.15 -9.95 -55.95 -10.55 -55.95 -11.15 -57.75 -9.15 -58.45 M0.95 -57.15 L1.55 -56.55 0.95 -55.35 0.35 -54.75 0.95 -55.95 -0.25 -57.15 -0.25 -57.75 0.95 -57.15 M-1.5 -67.45 L-2.1 -66.85 -1.5 -66.55 -1.5 -67.45" fill="#050505" fill-rule="evenodd" stroke="none"/>
    <path d="M9.75 -66.85 L9.85 -58.55 6.4 -59.6 0.35 -60.2 -5.7 -59.6 -9.15 -58.45 -9.1 -66.25 -1.5 -66.25 -1.5 -65.3 -2.1 -63.2 -0.25 -63.2 2.15 -63.2 2.15 -65.65 1.55 -65.0 1.55 -63.8 -0.25 -63.2 -1.5 -63.8 -1.5 -65.3 -1.25 -66.25 -0.9 -66.25 -1.2 -66.4 -0.9 -67.45 -1.5 -67.45 -2.1 -67.45 -8.95 -69.7 -8.75 -74.0 -8.15 -74.1 -5.1 -74.1 -2.1 -72.9 0.35 -71.05 3.95 -72.9 10.0 -74.1 13.05 -72.9 13.65 -72.9 14.25 -62.0 14.25 -50.5 -0.9 -45.65 -14.2 -50.5 -13.6 -62.6 -11.75 -73.5 -12.95 -63.2 -12.95 -51.1 -8.75 -49.3 -9.15 -57.65 0.35 -60.2 6.4 -58.95 9.8 -57.85 9.4 -49.3 13.05 -50.5 13.65 -62.6 12.45 -72.9 11.85 -72.9 9.4 -73.5 9.55 -70.5 2.15 -68.05 1.55 -68.05 2.15 -67.45 1.55 -66.25 3.35 -66.85 9.75 -66.85 M9.65 -69.15 L9.75 -67.35 2.75 -66.85 9.65 -69.15 M0.95 -57.15 L-0.25 -57.75 -0.25 -57.15 0.95 -55.95 0.35 -54.75 0.95 -55.35 1.55 -56.55 0.95 -57.15 M-9.95 -73.8 L-11.15 -73.5 -11.75 -73.5 -9.95 -73.8 M-1.5 -67.45 L-1.5 -66.55 -2.1 -66.85 -1.5 -67.45 M-9.1 -66.85 L-9.0 -68.3 -2.7 -66.85 -9.1 -66.85" fill="#54acce" fill-rule="evenodd" stroke="none"/>
    <path d="M-3.35 -79.95 L0.95 -79.55 -10.55 -78.35 -10.55 -75.3 -11.75 -74.7 -12.35 -74.7 -12.35 -76.5 -11.75 -79.55 -11.1 -79.6 -5.1 -80.15 -3.35 -79.95" fill="#e3f2ea" fill-rule="evenodd" stroke="none"/>
    <path d="M9.75 -66.85 L11.2 -66.85 11.2 -67.45 9.75 -67.35 9.65 -69.15 10.0 -69.25 11.2 -71.05 9.55 -70.5 9.4 -73.5 11.85 -72.9 12.45 -72.9 13.65 -62.6 13.05 -50.5 9.4 -49.3 9.8 -57.85 11.85 -57.15 11.85 -55.35 12.45 -57.75 9.85 -58.55 9.75 -66.85" fill="#4575b4" fill-rule="evenodd" stroke="none"/>
    <path d="M-8.75 -74.0 L-8.95 -69.7 -11.15 -70.45 -10.55 -68.65 -9.0 -68.3 -9.1 -66.85 -11.15 -66.85 -11.15 -66.25 -9.1 -66.25 -9.15 -58.45 -11.15 -57.75 -10.55 -55.95 -9.95 -55.95 -10.55 -57.15 -9.15 -57.65 -8.75 -49.3 -12.95 -51.1 -12.95 -63.2 -11.75 -73.5 -11.15 -73.5 -9.95 -73.8 -8.75 -74.1 -8.75 -74.0" fill="#96d4d9" fill-rule="evenodd" stroke="none"/>
  </g>
</svg>
