<?xml version="1.0" encoding="UTF-8" standalone="no"?>
<svg xmlns:xlink="http://www.w3.org/1999/xlink" height="59.75px" width="56.7px" xmlns="http://www.w3.org/2000/svg">
  <g transform="matrix(1.0, 0.0, 0.0, 1.0, -3.45, 6.45)">
    <path d="M29.75 -4.15 Q33.15 -5.9 35.6 -3.15 35.9 -4.0 37.65 -3.85 39.0 -3.7 39.35 -2.8 41.4 -4.85 46.55 -3.15 51.7 -1.4 53.75 2.7 58.55 4.05 58.55 7.15 58.55 10.25 54.1 11.3 L46.9 29.45 Q35.9 32.55 28.35 33.9 L8.8 37.35 Q11.2 31.2 10.2 27.4 9.15 23.65 5.05 20.85 13.95 12.65 16.7 10.95 19.45 9.2 29.05 0.65 26.3 -2.45 29.75 -4.15" fill="#c4b47c" fill-rule="evenodd" stroke="none"/>
    <path d="M29.75 -4.15 Q26.3 -2.45 29.05 0.65 19.45 9.2 16.7 10.95 13.95 12.65 5.05 20.85 9.15 23.65 10.2 27.4 11.2 31.2 8.8 37.35 L28.35 33.9 Q35.9 32.55 46.9 29.45 L54.1 11.3 Q58.55 10.25 58.55 7.15 58.55 4.05 53.75 2.7 51.7 -1.4 46.55 -3.15 41.4 -4.85 39.35 -2.8 39.0 -3.7 37.65 -3.85 35.9 -4.0 35.6 -3.15 33.15 -5.9 29.75 -4.15 Z" fill="none" stroke="#514b2d" stroke-linecap="round" stroke-linejoin="round" stroke-width="3.2"/>
    <path d="M46.95 28.8 L53.45 11.3 Q57.1 10.45 57.8 8.0 L57.7 7.2 57.8 6.25 Q57.8 5.1 56.55 4.8 52.75 3.75 51.4 7.2 L5.75 20.9 Q9.6 25.1 10.25 27.45 11.25 31.2 8.85 36.7 L28.45 33.25 Q35.95 31.9 46.95 28.8" fill="#f0e4b5" fill-rule="evenodd" stroke="none"/>
    <path d="M45.7 28.25 L48.5 19.7 Q50.9 14.55 51.25 11.8 51.6 9.05 50.55 9.05 L6.6 22.6 Q7.55 23.5 8.4 24.95 9.3 26.45 9.7 27.95 10.2 29.8 9.95 32.2 9.75 34.15 9.15 35.8 L25.95 32.55 45.7 28.25" fill="#5c5d8e" fill-rule="evenodd" stroke="none"/>
    <path d="M45.7 28.25 L25.95 32.55 9.15 35.8 Q9.75 34.15 9.95 32.2 10.2 29.8 9.7 27.95 9.3 26.45 8.4 24.95 7.55 23.5 6.6 22.6 L50.55 9.05 Q51.6 9.05 51.25 11.8 50.9 14.55 48.5 19.7 L45.7 28.25 Z" fill="none" stroke="#313253" stroke-linecap="round" stroke-linejoin="round" stroke-width="1.6"/>
    <path d="M32.85 7.85 Q30.1 7.5 27.7 10.25" fill="none" stroke="#9d9269" stroke-linecap="round" stroke-linejoin="round" stroke-width="1.6"/>
    <path d="M31.8 -0.4 Q43.8 0.3 48.95 6.1" fill="none" stroke="#58502e" stroke-linecap="round" stroke-linejoin="round" stroke-width="3.2"/>
    <path d="M34.1 28.85 Q35.2 27.55 35.2 25.7 35.2 23.85 34.1 22.55 32.9 21.25 31.3 21.25 29.65 21.25 28.5 22.55 27.35 23.85 27.35 25.7 27.35 27.55 28.5 28.85 29.65 30.15 31.3 30.15 32.9 30.15 34.1 28.85" fill="url(#gradient0)" fill-rule="evenodd" stroke="none"/>
    <path d="M34.1 28.85 Q32.9 30.15 31.3 30.15 29.65 30.15 28.5 28.85 27.35 27.55 27.35 25.7 27.35 23.85 28.5 22.55 29.65 21.25 31.3 21.25 32.9 21.25 34.1 22.55 35.2 23.85 35.2 25.7 35.2 27.55 34.1 28.85 Z" fill="none" stroke="#1d1e5f" stroke-linecap="round" stroke-linejoin="round" stroke-width="1.6"/>
    <path d="M18.9 27.25 Q18.75 28.45 19.2 29.3 19.7 30.15 20.55 30.15 21.4 30.15 22.1 29.3 22.85 28.45 23.05 27.25 23.2 26.0 22.75 25.15 22.3 24.3 21.4 24.3 20.55 24.3 19.85 25.15 19.1 26.0 18.9 27.25" fill="url(#gradient1)" fill-rule="evenodd" stroke="none"/>
    <path d="M18.9 27.25 Q19.1 26.0 19.85 25.15 20.55 24.3 21.4 24.3 22.3 24.3 22.75 25.15 23.2 26.0 23.05 27.25 22.85 28.45 22.1 29.3 21.4 30.15 20.55 30.15 19.7 30.15 19.2 29.3 18.75 28.45 18.9 27.25 Z" fill="none" stroke="#1d1e5f" stroke-linecap="round" stroke-linejoin="round" stroke-width="1.6"/>
    <path d="M13.25 25.15 Q13.25 26.05 13.8 26.4 L15.5 26.7 Q16.7 26.7 17.55 26.05 18.4 25.4 18.4 24.5 18.4 22.25 16.2 22.25 15.05 22.25 14.15 23.25 13.25 24.2 13.25 25.15" fill="url(#gradient2)" fill-rule="evenodd" stroke="none"/>
    <path d="M13.25 25.15 Q13.25 24.2 14.15 23.25 15.05 22.25 16.2 22.25 18.4 22.25 18.4 24.5 18.4 25.4 17.55 26.05 16.7 26.7 15.5 26.7 L13.8 26.4 Q13.25 26.05 13.25 25.15 Z" fill="none" stroke="#1d1e5f" stroke-linecap="round" stroke-linejoin="round" stroke-width="1.6"/>
    <path d="M23.45 21.95 L25.25 21.7 Q27.7 21.55 27.7 19.5 27.7 18.65 27.1 18.4 L25.25 18.3 Q24.1 18.35 23.45 19.35 22.9 20.2 22.9 21.25 22.9 21.95 23.45 21.95" fill="url(#gradient3)" fill-rule="evenodd" stroke="none"/>
    <path d="M23.45 21.95 Q22.9 21.95 22.9 21.25 22.9 20.2 23.45 19.35 24.1 18.35 25.25 18.3 L27.1 18.4 Q27.7 18.65 27.7 19.5 27.7 21.55 25.25 21.7 L23.45 21.95 Z" fill="none" stroke="#1d1e5f" stroke-linecap="round" stroke-linejoin="round" stroke-width="1.6"/>
    <path d="M41.75 18.15 Q42.75 18.15 43.45 17.45 44.15 16.75 44.15 15.75 44.15 14.75 43.45 14.05 42.75 13.35 41.75 13.35 40.75 13.35 40.05 14.05 39.35 14.75 39.35 15.75 39.35 16.75 40.05 17.45 40.75 18.15 41.75 18.15" fill="url(#gradient4)" fill-rule="evenodd" stroke="none"/>
    <path d="M41.75 18.15 Q40.75 18.15 40.05 17.45 39.35 16.75 39.35 15.75 39.35 14.75 40.05 14.05 40.75 13.35 41.75 13.35 42.75 13.35 43.45 14.05 44.15 14.75 44.15 15.75 44.15 16.75 43.45 17.45 42.75 18.15 41.75 18.15 Z" fill="none" stroke="#1d1e5f" stroke-linecap="round" stroke-linejoin="round" stroke-width="1.6"/>
    <path d="M45.55 13.4 Q45.55 13.95 46.1 14.25 L47.4 14.4 Q48.2 14.25 48.75 13.7 49.3 13.2 49.3 12.65 49.3 12.1 48.75 11.8 L47.4 11.65 Q46.65 11.8 46.1 12.3 45.55 12.85 45.55 13.4" fill="url(#gradient5)" fill-rule="evenodd" stroke="none"/>
    <path d="M45.55 13.4 Q45.55 12.85 46.1 12.3 46.65 11.8 47.4 11.65 L48.75 11.8 Q49.3 12.1 49.3 12.65 49.3 13.2 48.75 13.7 48.2 14.25 47.4 14.4 L46.1 14.25 Q45.55 13.95 45.55 13.4 Z" fill="none" stroke="#1d1e5f" stroke-linecap="round" stroke-linejoin="round" stroke-width="1.6"/>
    <path d="M41.25 27.5 Q42.3 27.5 43.35 26.55 44.4 25.55 44.8 24.2 45.25 22.85 44.8 21.9 44.3 20.95 43.25 20.95 42.2 21.0 41.15 21.95 40.1 22.9 39.65 24.25 39.25 25.6 39.7 26.55 40.15 27.5 41.25 27.5" fill="url(#gradient6)" fill-rule="evenodd" stroke="none"/>
    <path d="M41.25 27.5 Q40.15 27.5 39.7 26.55 39.25 25.6 39.65 24.25 40.1 22.9 41.15 21.95 42.2 21.0 43.25 20.95 44.3 20.95 44.8 21.9 45.25 22.85 44.8 24.2 44.4 25.55 43.35 26.55 42.3 27.5 41.25 27.5 Z" fill="none" stroke="#1d1e5f" stroke-linecap="round" stroke-linejoin="round" stroke-width="1.6"/>
    <path d="M53.35 21.55 L52.35 20.4 51.7 19.15 Q45.1 26.85 41.45 26.8 39.05 26.8 37.6 25.25 36.6 24.15 36.15 22.55 L35.05 20.3 Q33.95 18.4 32.7 17.2 28.95 13.6 25.7 16.95 20.65 22.25 32.7 30.55 27.5 30.05 23.55 34.15 20.85 36.95 21.8 40.85 22.65 44.15 25.5 46.55 29.95 50.35 34.7 50.5 37.55 50.6 41.05 49.15 L43.65 48.2 45.3 47.4 Q46.5 46.65 49.0 43.25 52.75 38.2 51.3 31.55 54.4 26.9 54.55 24.4 54.6 23.1 53.35 21.55" fill="#ffffff" fill-rule="evenodd" stroke="none"/>
    <path d="M53.35 21.55 Q54.6 23.1 54.55 24.4 54.4 26.9 51.3 31.55 52.75 38.2 49.0 43.25 46.5 46.65 45.3 47.4 L43.65 48.2 41.05 49.15 Q37.55 50.6 34.7 50.5 29.95 50.35 25.5 46.55 22.65 44.15 21.8 40.85 20.85 36.95 23.55 34.15 27.5 30.05 32.7 30.55 20.65 22.25 25.7 16.95 28.95 13.6 32.7 17.2 33.95 18.4 35.05 20.3 L36.15 22.55 Q36.6 24.15 37.6 25.25 39.05 26.8 41.45 26.8 45.1 26.85 51.7 19.15 L52.35 20.4 53.35 21.55 Z" fill="none" stroke="#000000" stroke-linecap="round" stroke-linejoin="round" stroke-width="0.9500000000000001"/>
    <path d="M42.45 41.05 L44.8 40.95 46.65 39.5 46.9 38.7 46.8 37.75 44.65 39.45 42.45 41.05" fill="#000000" fill-rule="evenodd" stroke="none"/>
    <path d="M45.1 42.1 Q43.8 42.55 43.05 43.15 42.55 43.6 43.0 43.8 L44.4 43.8 Q46.9 43.55 47.85 42.5 L48.05 41.55 48.2 40.6 47.25 41.2 45.1 42.1" fill="#000000" fill-rule="evenodd" stroke="none"/>
    <path d="M30.9 16.6 Q28.05 14.9 25.65 17.35 20.9 22.25 33.05 30.6 28.0 29.95 24.3 33.75 21.75 36.4 22.85 40.2 23.8 43.45 26.6 45.9 33.25 51.6 40.4 49.45 L40.6 49.05 37.8 48.4 35.25 47.9 Q32.45 47.15 30.6 45.35 28.1 43.0 28.05 39.55 28.0 36.25 30.3 33.9 L32.85 31.25 Q34.0 30.05 33.2 28.15 32.7 27.0 30.85 24.55 29.0 22.1 28.5 20.95 27.7 19.05 28.85 17.85 29.7 16.95 30.9 16.6" fill="#c9dfff" fill-rule="evenodd" stroke="none"/>
    <path d="M43.1 45.45 L41.1 45.45 Q39.95 45.45 40.45 45.9 41.25 46.7 42.25 46.9 43.4 47.15 44.05 46.45 L44.25 45.85 44.45 45.25 43.1 45.45" fill="#000000" fill-rule="evenodd" stroke="none"/>
    <path d="M38.35 45.15 Q38.25 41.95 35.9 39.65 33.55 37.4 30.35 37.4 27.15 37.4 24.95 39.65 22.8 41.9 22.9 45.15 23.0 48.35 25.35 50.6 27.7 52.85 30.9 52.85 34.1 52.85 36.3 50.6 38.45 48.35 38.35 45.15" fill="#ffffff" fill-rule="evenodd" stroke="none"/>
    <path d="M38.35 45.15 Q38.45 48.35 36.3 50.6 34.1 52.85 30.9 52.85 27.7 52.85 25.35 50.6 23.0 48.35 22.9 45.15 22.8 41.9 24.95 39.65 27.15 37.4 30.35 37.4 33.55 37.4 35.9 39.65 38.25 41.95 38.35 45.15 Z" fill="none" stroke="#000000" stroke-linecap="round" stroke-linejoin="round" stroke-width="0.9500000000000001"/>
    <path d="M35.65 46.4 Q35.6 44.55 34.2 43.2 32.85 41.9 31.0 41.85 29.1 41.85 27.9 43.15 26.65 44.45 26.75 46.3 26.8 48.15 28.15 49.45 29.55 50.75 31.4 50.8 33.25 50.85 34.5 49.55 35.75 48.25 35.65 46.4" fill="#c9dfff" fill-rule="evenodd" stroke="none"/>
    <path d="M35.65 46.4 Q35.75 48.25 34.5 49.55 33.25 50.85 31.4 50.8 29.55 50.75 28.15 49.45 26.8 48.15 26.75 46.3 26.65 44.45 27.9 43.15 29.1 41.85 31.0 41.85 32.85 41.9 34.2 43.2 35.6 44.55 35.65 46.4 Z" fill="none" stroke="#000000" stroke-linecap="round" stroke-linejoin="round" stroke-width="1.25"/>
  </g>
  <defs>
    <radialGradient cx="0" cy="0" gradientTransform="matrix(0.0054, 0.0, 0.0, 0.0054, 31.3, 25.7)" gradientUnits="userSpaceOnUse" id="gradient0" r="819.2" spreadMethod="pad">
      <stop offset="0.0" stop-color="#4446b1"/>
      <stop offset="1.0" stop-color="#2d2f89"/>
    </radialGradient>
    <radialGradient cx="0" cy="0" gradientTransform="matrix(0.0036, 0.0, 0.0, 0.0036, 20.95, 27.25)" gradientUnits="userSpaceOnUse" id="gradient1" r="819.2" spreadMethod="pad">
      <stop offset="0.0" stop-color="#4446b1"/>
      <stop offset="1.0" stop-color="#2d2f89"/>
    </radialGradient>
    <radialGradient cx="0" cy="0" gradientTransform="matrix(0.0033, 0.0, 0.0, 0.0033, 15.85, 24.5)" gradientUnits="userSpaceOnUse" id="gradient2" r="819.2" spreadMethod="pad">
      <stop offset="0.0" stop-color="#4446b1"/>
      <stop offset="1.0" stop-color="#2d2f89"/>
    </radialGradient>
    <radialGradient cx="0" cy="0" gradientTransform="matrix(0.0033, 0.0, 0.0, 0.0033, 25.25, 20.1)" gradientUnits="userSpaceOnUse" id="gradient3" r="819.2" spreadMethod="pad">
      <stop offset="0.0" stop-color="#4446b1"/>
      <stop offset="1.0" stop-color="#2d2f89"/>
    </radialGradient>
    <radialGradient cx="0" cy="0" gradientTransform="matrix(0.0029, 0.0, 0.0, 0.0029, 41.75, 15.75)" gradientUnits="userSpaceOnUse" id="gradient4" r="819.2" spreadMethod="pad">
      <stop offset="0.0" stop-color="#4446b1"/>
      <stop offset="1.0" stop-color="#2d2f89"/>
    </radialGradient>
    <radialGradient cx="0" cy="0" gradientTransform="matrix(0.0023, 0.0, 0.0, 0.0023, 47.4, 13.0)" gradientUnits="userSpaceOnUse" id="gradient5" r="819.2" spreadMethod="pad">
      <stop offset="0.0" stop-color="#4446b1"/>
      <stop offset="1.0" stop-color="#2d2f89"/>
    </radialGradient>
    <radialGradient cx="0" cy="0" gradientTransform="matrix(0.0042, 0.0, 0.0, 0.0042, 42.25, 24.25)" gradientUnits="userSpaceOnUse" id="gradient6" r="819.2" spreadMethod="pad">
      <stop offset="0.0" stop-color="#4446b1"/>
      <stop offset="1.0" stop-color="#2d2f89"/>
    </radialGradient>
  </defs>
</svg>
