<?xml version="1.0" encoding="UTF-8" standalone="no"?>
<svg xmlns:xlink="http://www.w3.org/1999/xlink" height="36.85px" width="35.95px" xmlns="http://www.w3.org/2000/svg">
  <g transform="matrix(1.0, 0.0, 0.0, 1.0, -0.7, 35.7)">
    <path d="M23.2 -35.45 L34.95 -35.7 34.85 -34.55 34.65 -31.65 34.35 -27.75 33.95 -23.65 26.5 -23.4 19.95 -23.1 13.25 -22.75 13.4 -19.6 Q14.95 -20.45 17.65 -21.15 20.3 -21.9 23.9 -21.85 L27.85 -21.45 Q30.05 -21.05 32.05 -19.95 34.1 -18.85 35.35 -16.75 36.65 -14.7 36.65 -11.35 36.5 -8.15 35.05 -5.85 33.6 -3.55 31.25 -2.05 28.9 -0.55 26.2 0.2 L20.8 1.15 12.85 0.8 Q9.15 0.15 6.1 -1.4 3.1 -2.95 1.15 -5.4 L7.65 -8.45 12.35 -10.45 14.2 -11.15 Q15.05 -10.15 16.4 -9.8 L19.05 -9.55 Q20.4 -9.65 21.3 -10.2 22.2 -10.7 22.15 -11.5 21.95 -12.6 20.65 -13.2 L17.4 -13.55 Q15.45 -13.35 13.4 -12.15 L8.05 -11.65 4.2 -11.25 2.7 -11.1 2.05 -17.35 1.5 -23.6 1.05 -29.1 0.8 -33.0 0.7 -34.5 11.95 -35.0 23.2 -35.45" fill="#000000" fill-rule="evenodd" stroke="none"/>
  </g>
</svg>
