<?xml version="1.0" encoding="UTF-8" standalone="no"?>
<svg xmlns:xlink="http://www.w3.org/1999/xlink" height="37.5px" width="35.5px" xmlns="http://www.w3.org/2000/svg">
  <g transform="matrix(1.0, 0.0, 0.0, 1.0, -0.9, 35.9)">
    <path d="M16.25 -23.5 L16.4 -20.75 16.6 -18.2 Q19.7 -18.35 21.25 -19.35 22.75 -20.3 22.7 -21.45 22.65 -22.6 21.0 -23.3 L16.25 -23.5 M28.5 -34.1 Q31.7 -32.85 33.8 -30.4 35.9 -28.0 36.35 -24.15 36.6 -22.25 35.9 -19.75 35.2 -17.25 33.15 -14.75 31.1 -12.3 27.3 -10.5 23.5 -8.65 17.6 -8.1 L17.85 -4.55 18.1 -1.5 18.25 -0.25 12.95 0.5 8.2 1.05 4.75 1.45 3.45 1.6 2.2 -16.15 0.9 -33.3 6.65 -34.8 13.85 -35.75 Q17.7 -36.05 21.5 -35.7 25.25 -35.35 28.5 -34.1" fill="#000000" fill-rule="evenodd" stroke="none"/>
  </g>
</svg>
