<?xml version="1.0" encoding="UTF-8" standalone="no"?>
<svg xmlns:xlink="http://www.w3.org/1999/xlink" height="37.8px" width="35.55px" xmlns="http://www.w3.org/2000/svg">
  <g transform="matrix(1.0, 0.0, 0.0, 1.0, -0.65, 35.4)">
    <path d="M18.05 -23.4 Q16.5 -23.25 15.55 -22.4 14.55 -21.55 14.6 -20.4 14.75 -19.3 15.8 -18.6 16.85 -17.9 18.4 -18.0 19.95 -18.15 20.9 -18.95 21.9 -19.8 21.85 -20.95 21.7 -22.05 20.65 -22.75 19.6 -23.45 18.05 -23.4 M32.15 -31.05 Q34.2 -29.05 35.2 -26.65 36.15 -24.2 36.2 -21.85 36.35 -17.75 34.45 -13.4 32.55 -9.0 28.8 -4.9 25.05 -0.8 19.55 2.4 L15.1 0.55 11.1 -1.4 8.25 -3.0 7.15 -3.65 Q9.55 -4.5 11.4 -5.85 L14.45 -8.4 Q10.3 -8.3 7.25 -9.85 4.2 -11.4 2.45 -14.15 0.75 -16.9 0.65 -20.3 0.55 -24.2 2.6 -27.55 4.65 -30.95 8.65 -33.05 12.65 -35.2 18.45 -35.4 23.3 -35.5 26.7 -34.3 30.05 -33.1 32.15 -31.05" fill="#000000" fill-rule="evenodd" stroke="none"/>
  </g>
</svg>
