<?xml version="1.0" encoding="UTF-8" standalone="no"?>
<svg xmlns:xlink="http://www.w3.org/1999/xlink" height="35.65px" width="41.9px" xmlns="http://www.w3.org/2000/svg">
  <g transform="matrix(1.0, 0.0, 0.0, 1.0, -0.65, 35.2)">
    <path d="M17.85 -20.1 Q16.35 -18.95 16.3 -17.15 16.35 -15.35 17.85 -14.15 19.4 -13.0 21.65 -12.95 23.95 -13.0 25.5 -14.15 27.0 -15.35 27.05 -17.15 27.0 -18.95 25.5 -20.1 23.95 -21.3 21.65 -21.35 19.4 -21.3 17.85 -20.1 M32.4 -32.85 Q36.95 -30.5 39.6 -26.55 42.2 -22.6 42.5 -17.65 42.7 -14.15 41.35 -10.9 40.05 -7.7 37.3 -5.15 34.6 -2.6 30.55 -1.1 26.45 0.4 21.15 0.45 16.85 0.45 13.1 -0.7 9.4 -1.85 6.6 -4.1 3.8 -6.35 2.2 -9.7 0.65 -13.0 0.65 -17.4 0.75 -21.75 2.55 -25.1 4.3 -28.45 7.3 -30.7 10.35 -32.95 14.1 -34.05 17.85 -35.2 21.85 -35.2 27.85 -35.15 32.4 -32.85" fill="#000000" fill-rule="evenodd" stroke="none"/>
  </g>
</svg>
