<?xml version="1.0" encoding="UTF-8" standalone="no"?>
<svg xmlns:xlink="http://www.w3.org/1999/xlink" height="209.05px" width="144.55px" xmlns="http://www.w3.org/2000/svg">
  <g transform="matrix(1.0, 0.0, 0.0, 1.0, 213.7, 43.25)">
    <path d="M-213.7 -28.75 Q-213.7 -33.7 -210.2 -37.25 -206.65 -40.75 -201.7 -40.75 L-81.15 -40.75 Q-76.2 -40.75 -72.7 -37.25 -69.15 -33.7 -69.15 -28.75 L-69.15 153.8 Q-69.15 158.75 -72.7 162.25 -76.2 165.8 -81.15 165.8 L-201.7 165.8 Q-206.65 165.8 -210.2 162.25 -213.7 158.75 -213.7 153.8 L-213.7 -28.75" fill="#000000" fill-rule="evenodd" stroke="none"/>
    <path d="M-213.7 -31.25 Q-213.7 -36.2 -210.2 -39.75 -206.65 -43.25 -201.7 -43.25 L-81.15 -43.25 Q-76.2 -43.25 -72.7 -39.75 -69.15 -36.2 -69.15 -31.25 L-69.15 151.3 Q-69.15 156.25 -72.7 159.75 -76.2 163.3 -81.15 163.3 L-201.7 163.3 Q-206.65 163.3 -210.2 159.75 -213.7 156.25 -213.7 151.3 L-213.7 -31.25" fill="#fd360b" fill-rule="evenodd" stroke="none"/>
  </g>
</svg>
