<?xml version="1.0" encoding="UTF-8" standalone="no"?>
<svg xmlns:xlink="http://www.w3.org/1999/xlink" height="246.5px" width="241.3px" xmlns="http://www.w3.org/2000/svg">
  <g transform="matrix(1.0, 0.0, 0.0, 1.0, 63.35, 62.85)">
    <path d="M10.65 -28.25 L-8.75 -39.3 -6.0 -17.55 -27.0 -24.6 -19.9 -3.35 -42.05 -6.15 -30.9 13.45 -52.75 15.0 -38.0 31.95 -59.6 37.85 -42.3 51.35 -63.3 61.85 -63.2 61.85 -63.35 61.9 -43.85 71.6 -61.75 85.45 -39.75 91.45 -54.3 108.2 -32.75 109.75 -43.8 129.15 -22.0 126.4 -29.05 147.35 -7.85 140.25 -10.65 162.4 9.0 151.25 10.55 173.1 27.5 158.45 33.4 180.0 46.8 162.7 57.3 183.65 67.8 162.7 81.25 180.0 87.15 158.45 104.1 173.1 105.65 151.25 125.25 162.4 122.45 140.25 143.7 147.35 136.65 126.4 158.4 129.15 147.35 109.75 168.85 108.2 154.35 91.45 176.3 85.45 158.5 71.6 177.95 61.9 177.85 61.85 156.9 51.35 174.2 37.85 152.7 31.95 167.3 15.0 145.5 13.45 156.65 -6.15 134.5 -3.35 141.55 -24.6 120.65 -17.55 123.4 -39.3 104.0 -28.25 102.45 -49.8 85.7 -35.25 79.7 -57.25 67.3 -41.15 58.45 -58.85 48.75 -39.45 34.9 -57.25 28.85 -35.25 12.2 -49.8 10.65 -28.25" fill="#000000" fill-opacity="0.5019608" fill-rule="evenodd" stroke="none"/>
    <path d="M67.3 -45.15 L79.7 -61.25 85.75 -39.25 102.45 -53.8 104.0 -32.25 123.35 -43.3 120.65 -21.55 141.6 -28.55 134.5 -7.35 156.65 -10.15 145.5 9.5 167.35 11.05 152.65 28.0 174.2 33.9 156.9 47.4 177.9 57.85 177.85 57.85 177.95 57.9 158.5 67.6 176.35 81.45 154.35 87.5 168.9 104.2 147.35 105.75 158.4 125.15 136.65 122.4 143.65 143.35 122.45 136.3 125.25 158.45 105.6 147.3 104.05 169.15 87.15 154.45 81.25 176.0 67.8 158.75 57.3 179.7 46.8 158.75 33.4 176.0 27.5 154.45 10.55 169.15 9.0 147.3 -10.65 158.45 -7.85 136.3 -29.05 143.35 -22.05 122.4 -43.8 125.15 -32.75 105.75 -54.25 104.2 -39.75 87.5 -61.7 81.45 -43.9 67.6 -63.35 57.9 -63.25 57.85 -42.3 47.4 -59.6 33.9 -38.05 28.0 -52.7 11.05 -30.85 9.5 -42.05 -10.15 -19.9 -7.35 -26.95 -28.55 -6.0 -21.55 -8.75 -43.3 10.6 -32.25 12.15 -53.8 28.9 -39.25 34.9 -61.25 48.75 -43.4 58.45 -62.85 67.3 -45.15" fill="#ffff00" fill-rule="evenodd" stroke="none"/>
  </g>
</svg>
