<?xml version="1.0" encoding="UTF-8" standalone="no"?>
<svg xmlns:xlink="http://www.w3.org/1999/xlink" height="37.55px" width="253.8px" xmlns="http://www.w3.org/2000/svg">
  <g transform="matrix(1.0, 0.0, 0.0, 1.0, -1.7, -0.5)">
    <path d="M251.4 33.9 L251.35 33.95 Q247.25 38.05 241.5 38.05 L51.65 38.05 51.65 0.5 241.5 0.5 Q247.25 0.5 251.35 4.65 L251.4 4.65 Q255.3 8.55 255.5 13.95 L255.5 24.05 255.5 24.2 Q255.45 29.85 251.4 33.9 M51.6 38.05 L15.7 38.05 Q9.95 38.05 5.85 33.95 L5.85 33.9 Q3.7 31.75 2.65 29.2 1.75 26.85 1.7 24.2 L1.7 24.05 1.7 13.95 Q1.9 8.55 5.85 4.65 9.95 0.5 15.7 0.5 L51.6 0.5 51.6 38.05" fill="#000000" fill-rule="evenodd" stroke="none"/>
  </g>
</svg>
