<?xml version="1.0" encoding="UTF-8" standalone="no"?>
<svg xmlns:xlink="http://www.w3.org/1999/xlink" height="37.55px" width="253.8px" xmlns="http://www.w3.org/2000/svg">
  <g transform="matrix(1.0, 0.0, 0.0, 1.0, -1.7, 2.25)">
    <path d="M51.6 -2.25 L51.6 35.3 15.7 35.3 Q9.95 35.3 5.85 31.2 L5.85 31.15 Q3.7 29.0 2.65 26.45 1.75 24.1 1.7 21.45 L1.7 21.3 1.7 11.2 Q1.9 5.8 5.85 1.9 9.95 -2.25 15.7 -2.25 L51.6 -2.25 M241.5 -2.25 Q247.25 -2.25 251.35 1.9 L251.4 1.9 Q255.3 5.8 255.5 11.2 L255.5 21.3 255.5 21.45 Q255.45 27.1 251.4 31.15 L251.35 31.2 Q247.25 35.3 241.5 35.3 L51.65 35.3 51.65 -2.25 241.5 -2.25" fill="#ffffff" fill-rule="evenodd" stroke="none"/>
    <path d="M245.25 27.45 Q241.35 30.4 235.9 30.4 L55.5 30.4 21.4 30.4 Q15.9 30.4 12.0 27.45 L12.0 27.4 Q9.95 25.85 9.0 24.0 8.1 22.3 8.1 20.4 L8.1 20.25 8.1 13.0 Q8.25 9.05 12.0 6.25 L12.0 6.2 Q15.9 3.25 21.4 3.25 L55.5 3.25 235.9 3.25 Q241.35 3.25 245.25 6.2 L245.25 6.25 Q248.95 9.05 249.2 13.0 L249.2 20.25 249.2 20.4 Q249.1 24.45 245.25 27.4 L245.25 27.45 M55.5 30.4 L55.5 3.25 55.5 30.4" fill="#fff200" fill-rule="evenodd" stroke="none"/>
  </g>
</svg>
