<?xml version="1.0" encoding="UTF-8" standalone="no"?>
<svg xmlns:xlink="http://www.w3.org/1999/xlink" height="37.55px" width="176.8px" xmlns="http://www.w3.org/2000/svg">
  <g transform="matrix(1.0, 0.0, 0.0, 1.0, -1.7, 2.25)">
    <path d="M51.6 -2.25 L51.6 35.3 15.7 35.3 Q9.95 35.3 5.85 31.2 L5.85 31.15 Q3.7 29.0 2.65 26.45 1.75 24.1 1.7 21.45 L1.7 21.3 1.7 11.2 Q1.9 5.8 5.85 1.9 9.95 -2.25 15.7 -2.25 L51.6 -2.25 M164.5 -2.25 Q170.25 -2.25 174.35 1.9 L174.4 1.9 Q178.3 5.8 178.5 11.2 L178.5 21.3 178.5 21.45 Q178.45 27.1 174.4 31.15 L174.35 31.2 Q170.25 35.3 164.5 35.3 L51.65 35.3 51.65 -2.25 164.5 -2.25" fill="#5ffc00" fill-rule="evenodd" stroke="none"/>
    <path d="M168.25 27.45 Q164.35 30.4 158.9 30.4 L55.5 30.4 21.4 30.4 Q15.9 30.4 12.0 27.45 L12.0 27.4 Q9.95 25.85 9.0 24.0 8.1 22.3 8.1 20.4 L8.1 20.25 8.1 13.0 Q8.25 9.05 12.0 6.25 L12.0 6.2 Q15.9 3.25 21.4 3.25 L55.5 3.25 158.9 3.25 Q164.35 3.25 168.25 6.2 L168.25 6.25 Q171.95 9.05 172.2 13.0 L172.2 20.25 172.2 20.4 Q172.1 24.45 168.25 27.4 L168.25 27.45 M55.5 30.4 L55.5 3.25 55.5 30.4" fill="#000000" fill-rule="evenodd" stroke="none"/>
  </g>
</svg>
