<?xml version="1.0" encoding="UTF-8" standalone="no"?>
<svg xmlns:xlink="http://www.w3.org/1999/xlink" height="37.55px" width="176.8px" xmlns="http://www.w3.org/2000/svg">
  <g transform="matrix(1.0, 0.0, 0.0, 1.0, -1.7, 2.25)">
    <path d="M51.6 -2.25 L51.6 35.3 15.7 35.3 Q9.95 35.3 5.85 31.2 L5.85 31.15 Q3.7 29.0 2.65 26.45 1.75 24.1 1.7 21.45 L1.7 21.3 1.7 11.2 Q1.9 5.8 5.85 1.9 9.95 -2.25 15.7 -2.25 L51.6 -2.25 M164.5 -2.25 Q170.25 -2.25 174.35 1.9 L174.4 1.9 Q178.3 5.8 178.5 11.2 L178.5 21.3 178.5 21.45 Q178.45 27.1 174.4 31.15 L174.35 31.2 Q170.25 35.3 164.5 35.3 L51.65 35.3 51.65 -2.25 164.5 -2.25" fill="#5ffc00" fill-rule="evenodd" stroke="none"/>
  </g>
</svg>
