<?xml version="1.0" encoding="UTF-8" standalone="no"?>
<svg xmlns:xlink="http://www.w3.org/1999/xlink" height="240.8px" width="279.65px" xmlns="http://www.w3.org/2000/svg">
  <g transform="matrix(1.0, 0.0, 0.0, 1.0, -21.5, -54.1)">
    <path d="M296.35 57.15 L296.35 57.1 292.2 56.35 290.8 56.15 281.8 55.25 281.5 55.2 268.35 54.8 244.25 55.9 Q234.85 57.0 234.55 58.6 234.75 60.1 240.65 60.8 L253.65 61.55 265.95 61.7 265.95 58.9 266.0 58.7 266.3 58.3 266.3 78.5 265.95 77.55 265.95 62.05 250.8 61.8 238.65 60.8 Q234.05 60.05 233.85 58.6 233.9 57.25 238.5 56.3 243.1 55.25 250.7 54.7 L267.35 54.1 284.1 54.7 292.2 55.55 296.55 56.35 Q301.25 57.45 301.15 58.95 300.85 60.05 296.2 60.7 L292.2 61.2 283.95 61.7 268.7 62.05 268.7 77.55 Q268.55 78.95 267.35 78.95 L267.35 58.25 266.4 58.25 266.55 58.15 267.4 57.95 268.25 58.1 268.4 58.2 Q268.65 58.4 268.7 58.75 L268.7 58.8 268.7 61.7 286.2 61.05 286.35 61.05 292.45 60.45 292.2 60.45 Q299.9 59.5 300.1 58.6 300.0 57.9 296.35 57.15" fill="#6f6a9e" fill-rule="evenodd" stroke="none"/>
    <path d="M268.4 58.2 L270.65 58.6 Q271.75 58.55 272.55 58.0 273.35 57.5 274.5 57.4 275.85 57.5 276.8 58.1 277.75 58.7 279.1 58.8 L281.45 58.1 Q282.45 57.5 283.85 57.4 286.0 57.55 287.55 58.35 289.15 59.2 291.35 59.3 L292.2 59.25 Q294.55 58.9 296.35 57.15 300.0 57.9 300.1 58.6 299.9 59.5 292.2 60.45 L268.7 58.75 Q268.65 58.4 268.4 58.2 M281.5 55.2 Q280.15 56.6 278.15 56.7 L276.25 56.3 274.35 55.85 Q272.5 56.0 271.25 56.9 270.0 57.8 268.25 58.1 L267.4 57.95 266.55 58.15 264.85 57.9 Q263.7 57.95 262.9 58.5 262.1 59.0 260.95 59.1 259.6 59.0 258.65 58.4 257.7 57.8 256.35 57.7 255.0 57.8 254.0 58.4 253.0 59.0 251.6 59.1 249.45 58.95 247.9 58.15 246.3 57.3 244.1 57.2 241.1 57.3 238.85 59.6 L238.15 60.4 240.65 60.8 Q234.75 60.1 234.55 58.6 234.85 57.0 244.25 55.9 L268.35 54.8 281.5 55.2 M266.0 58.7 L265.95 58.9 265.95 61.7 253.65 61.55 Q255.05 59.95 257.3 59.8 L259.2 60.2 261.1 60.65 Q262.95 60.5 264.2 59.6 265.0 59.0 266.0 58.7 M286.2 61.05 L268.7 61.7 268.7 58.8 286.2 61.05 M249.7 55.45 L243.9 56.0 267.35 57.7 249.7 55.45" fill="#e7e6e3" fill-rule="evenodd" stroke="none"/>
    <path d="M296.35 57.15 Q294.55 58.9 292.2 59.25 L291.35 59.3 Q289.15 59.2 287.55 58.35 286.0 57.55 283.85 57.4 282.45 57.5 281.45 58.1 L279.1 58.8 Q277.75 58.7 276.8 58.1 275.85 57.5 274.5 57.4 273.35 57.5 272.55 58.0 271.75 58.55 270.65 58.6 L268.4 58.2 268.25 58.1 Q270.0 57.8 271.25 56.9 272.5 56.0 274.35 55.85 L276.25 56.3 278.15 56.7 Q280.15 56.6 281.5 55.2 L281.8 55.25 290.8 56.15 292.2 56.35 296.35 57.1 296.35 57.15 M268.7 58.75 L292.2 60.45 292.45 60.45 286.35 61.05 286.2 61.05 268.7 58.8 268.7 58.75 M266.3 58.3 L266.0 58.7 Q265.0 59.0 264.2 59.6 262.95 60.5 261.1 60.65 L259.2 60.2 257.3 59.8 Q255.05 59.95 253.65 61.55 L240.65 60.8 238.15 60.4 238.85 59.6 Q241.1 57.3 244.1 57.2 246.3 57.3 247.9 58.15 249.45 58.95 251.6 59.1 253.0 59.0 254.0 58.4 255.0 57.8 256.35 57.7 257.7 57.8 258.65 58.4 259.6 59.0 260.95 59.1 262.1 59.0 262.9 58.5 263.7 57.95 264.85 57.9 L266.55 58.15 266.4 58.25 266.3 58.25 266.3 58.3 M249.7 55.45 L267.35 57.7 243.9 56.0 249.7 55.45" fill="#ffffff" fill-rule="evenodd" stroke="none"/>
    <path d="M266.3 58.3 L266.3 58.25 266.4 58.25 267.35 58.25 267.35 78.95 266.3 78.95 266.3 78.5 266.3 58.3" fill="#eff2e8" fill-rule="evenodd" stroke="none"/>
    <path d="M178.6 69.2 Q176.35 68.1 173.95 67.45 167.3 65.85 159.55 65.9 151.85 65.9 145.25 67.2 140.25 68.35 136.85 72.05 133.45 75.8 132.15 79.05 L141.45 78.05 Q146.4 77.15 149.95 74.4 149.55 72.45 151.35 71.7 L152.25 72.1 Q152.05 72.05 151.25 72.45 150.5 72.85 151.05 74.25 151.95 75.0 153.15 74.95 L153.4 70.95 153.95 70.1 Q147.5 67.25 141.45 71.0 L141.4 70.85 Q147.55 65.25 154.7 69.35 159.75 66.35 165.1 68.75 169.45 67.45 174.05 68.25 176.4 69.05 178.55 70.15 L178.05 70.3 Q176.1 69.4 172.3 68.75 168.45 68.1 165.6 69.9 164.0 68.9 161.4 68.85 154.3 69.1 154.1 72.1 153.9 75.2 157.75 76.8 161.5 78.45 166.3 74.4 167.75 74.6 169.15 74.0 168.95 71.1 166.45 72.0 169.15 69.7 169.95 73.2 172.95 75.35 176.05 76.35 L182.5 78.45 187.9 79.95 190.6 80.4 Q188.8 77.05 185.9 74.3 182.55 70.85 178.6 69.2 M138.3 100.55 Q136.4 96.95 135.1 92.5 131.4 88.5 130.1 81.15 132.05 76.65 135.7 72.45 139.3 68.2 144.95 66.8 154.55 64.85 163.4 65.25 172.2 65.7 177.6 68.0 188.15 72.35 191.6 80.95 189.8 90.45 186.05 96.1 L184.3 99.65 183.8 100.65 182.85 101.0 183.25 99.35 177.6 100.9 177.6 100.95 Q168.7 103.35 159.6 103.75 150.4 104.1 141.7 100.55 L138.9 99.25 139.45 100.95 138.3 100.55 M173.6 79.65 Q176.75 78.65 179.95 78.4 174.8 76.9 169.8 74.8 168.5 75.45 167.1 75.5 L164.9 76.7 Q162.9 77.7 161.0 77.9 158.3 77.8 156.4 76.85 154.45 75.9 153.8 75.8 L150.5 75.15 Q145.9 78.95 140.0 79.15 L142.5 80.0 143.95 80.6 Q151.55 83.95 155.15 84.45 158.8 84.9 162.4 83.5 L173.6 79.65 M167.95 96.35 L173.8 96.0 178.15 79.4 174.45 80.25 Q171.8 80.75 169.3 81.85 L167.3 96.35 167.95 96.35 M181.8 95.0 L185.1 87.05 Q187.35 81.55 187.45 80.3 L187.05 80.2 Q183.5 79.05 179.75 79.35 176.8 87.55 174.6 96.0 L181.8 95.0 M174.7 96.9 L173.75 101.3 179.9 99.8 181.45 96.15 174.7 96.9 M167.1 97.2 L166.45 102.45 173.0 101.45 174.25 96.75 167.1 97.2 M168.95 82.0 Q164.9 83.2 160.95 84.7 L161.1 96.7 166.35 96.4 168.95 82.0 M187.85 80.7 Q186.15 87.95 182.3 95.25 L185.55 94.8 Q189.15 89.2 190.6 81.7 L187.85 80.7 M185.05 95.7 L182.2 95.95 180.7 99.25 183.15 98.8 Q184.6 97.75 185.05 95.7 M166.3 97.05 L161.1 97.35 160.8 102.8 165.8 102.5 166.3 97.05 M134.8 79.6 Q132.45 80.05 130.75 81.8 L132.05 85.55 Q133.0 87.8 134.25 89.8 134.75 90.6 136.7 91.55 L139.55 92.4 135.35 79.5 134.8 79.6 M141.55 80.55 Q139.1 79.4 136.4 79.55 L140.45 92.05 140.5 92.05 140.75 92.9 Q143.65 93.7 146.25 94.8 L143.45 81.4 141.55 80.55 M139.5 93.35 L139.5 93.3 136.55 92.35 136.55 92.7 Q136.2 94.25 137.2 96.3 138.85 99.05 142.0 99.7 L139.9 93.45 139.5 93.35 M158.95 85.35 L158.95 85.3 Q156.1 85.9 153.2 85.25 L153.2 85.3 153.95 94.7 154.1 96.35 Q157.0 96.65 159.95 96.45 L159.8 85.1 158.95 85.35 M150.5 84.3 L144.65 81.9 145.4 87.75 146.7 93.6 146.75 93.65 147.05 95.0 153.2 96.2 152.1 84.9 150.5 84.3 M142.55 98.95 L142.85 100.0 147.65 101.4 146.5 95.8 142.1 94.45 141.1 94.15 142.5 98.9 142.55 98.95 M150.95 96.65 L147.25 96.0 147.8 99.0 148.2 101.6 153.8 102.5 153.25 97.0 150.95 96.65 M154.5 101.25 L154.55 102.6 160.05 102.8 160.1 97.0 158.85 97.1 154.15 97.05 154.5 101.25" fill="#000000" fill-rule="evenodd" stroke="none"/>
    <path d="M167.95 96.35 Q168.95 92.5 171.35 87.85 173.75 83.15 176.8 80.9 L174.9 81.25 Q172.4 81.6 170.35 83.05 168.85 89.6 167.95 96.35 L167.3 96.35 169.3 81.85 Q171.8 80.75 174.45 80.25 L178.15 79.4 173.8 96.0 167.95 96.35 M180.3 80.8 L179.5 83.0 175.55 95.0 177.5 94.8 Q179.5 87.7 182.9 81.2 L180.3 80.8 M164.25 95.8 Q163.85 91.55 163.95 88.45 164.05 85.35 167.9 83.45 164.5 83.8 161.5 85.4 L161.45 95.85 164.25 95.8 M175.75 98.0 L175.75 98.15 179.1 96.95 178.45 97.05 178.75 96.9 175.4 97.25 175.4 98.1 175.75 98.0 M174.7 96.9 L181.45 96.15 179.9 99.8 173.75 101.3 174.7 96.9 M181.8 95.0 L174.6 96.0 Q176.8 87.55 179.75 79.35 183.5 79.05 187.05 80.2 L187.45 80.3 Q187.35 81.55 185.1 87.05 L181.8 95.0 M172.7 97.65 L167.95 97.9 167.85 99.2 172.7 97.65 M185.05 95.7 Q184.6 97.75 183.15 98.8 L180.7 99.25 182.2 95.95 185.05 95.7 M187.85 80.7 L190.6 81.7 Q189.15 89.2 185.55 94.8 L182.3 95.25 Q186.15 87.95 187.85 80.7 M168.95 82.0 L166.35 96.4 161.1 96.7 160.95 84.7 Q164.9 83.2 168.95 82.0 M167.1 97.2 L174.25 96.75 173.0 101.45 166.45 102.45 167.1 97.2 M134.8 79.6 L135.35 79.5 139.55 92.4 136.7 91.55 Q134.75 90.6 134.25 89.8 133.0 87.8 132.05 85.55 L130.75 81.8 Q132.45 80.05 134.8 79.6 M166.3 97.05 L165.8 102.5 160.8 102.8 161.1 97.35 166.3 97.05 M141.55 80.55 L143.45 81.4 146.25 94.8 Q143.65 93.7 140.75 92.9 L140.5 92.05 Q142.65 93.0 145.0 93.05 142.8 86.95 141.55 80.55 M139.5 93.35 L139.9 93.45 142.0 99.7 Q138.85 99.05 137.2 96.3 136.2 94.25 136.55 92.7 136.5 95.3 137.9 97.1 L140.75 97.4 139.5 93.35 M134.6 89.8 Q136.7 91.05 139.0 91.1 136.7 85.5 135.2 79.6 132.8 80.05 131.1 81.85 L132.4 85.6 Q133.35 87.85 134.6 89.8 M158.95 85.35 L159.8 85.1 159.95 96.45 Q157.0 96.65 154.1 96.35 L153.95 94.7 Q156.45 95.15 159.05 94.7 L158.95 85.35 M150.5 84.3 L152.1 84.9 153.2 96.2 147.05 95.0 146.75 93.65 Q149.5 94.5 152.35 94.8 L150.5 84.3 M142.1 94.45 L146.5 95.8 147.65 101.4 142.85 100.0 142.55 98.95 Q144.5 99.8 146.7 100.0 L145.1 95.45 142.1 94.45 M147.8 99.0 L148.0 100.0 Q150.2 100.8 152.45 100.65 L151.8 96.8 150.95 96.65 153.25 97.0 153.8 102.5 148.2 101.6 147.8 99.0 M158.85 97.1 L160.1 97.0 160.05 102.8 154.55 102.6 154.5 101.25 Q156.75 101.75 158.95 101.25 L158.85 97.1 M161.8 98.3 L161.8 100.45 165.1 98.3 161.8 98.3" fill="#cbcbcb" fill-rule="evenodd" stroke="none"/>
    <path d="M178.45 97.05 L179.1 96.95 175.75 98.15 175.75 98.0 178.45 97.05" fill="#fefefe" fill-rule="evenodd" stroke="none"/>
    <path d="M185.9 74.3 Q188.8 77.05 190.6 80.4 L187.9 79.95 182.5 78.45 176.05 76.35 Q172.95 75.35 169.95 73.2 169.15 69.7 166.45 72.0 168.95 71.1 169.15 74.0 167.75 74.6 166.3 74.4 161.5 78.45 157.75 76.8 153.9 75.2 154.1 72.1 154.3 69.1 161.4 68.85 164.0 68.9 165.6 69.9 168.45 68.1 172.3 68.75 176.1 69.4 178.05 70.3 L178.55 70.15 Q176.4 69.05 174.05 68.25 169.45 67.45 165.1 68.75 159.75 66.35 154.7 69.35 147.55 65.25 141.4 70.85 L141.45 71.0 Q147.5 67.25 153.95 70.1 L153.4 70.95 153.15 74.95 Q151.95 75.0 151.05 74.25 150.5 72.85 151.25 72.45 152.05 72.05 152.25 72.1 L151.35 71.7 Q149.55 72.45 149.95 74.4 146.4 77.15 141.45 78.05 L132.15 79.05 Q133.45 75.8 136.85 72.05 140.25 68.35 145.25 67.2 151.85 65.9 159.55 65.9 167.3 65.85 173.95 67.45 176.35 68.1 178.6 69.2 L176.3 68.45 Q179.25 69.75 180.5 72.65 181.8 75.1 182.4 78.05 183.95 78.65 186.25 79.05 L189.75 79.8 189.1 78.25 Q187.6 76.05 185.9 74.3 M139.45 100.95 L138.9 99.25 141.7 100.55 Q150.4 104.1 159.6 103.75 168.7 103.35 177.6 100.95 L177.45 102.95 161.2 108.65 143.4 102.35 141.25 101.35 141.4 101.65 139.45 100.95 M142.5 80.0 Q147.0 78.95 150.65 76.05 152.35 76.7 154.1 76.4 160.8 81.25 167.75 77.0 170.35 78.35 173.6 79.65 L162.4 83.5 Q158.8 84.9 155.15 84.45 151.55 83.95 143.95 80.6 L142.5 80.0 M133.2 78.2 Q135.3 78.45 138.65 77.5 139.1 72.55 142.35 68.85 L140.55 69.25 Q136.15 73.1 133.2 78.2 M111.1 233.65 Q110.65 232.15 110.8 230.55 110.15 233.25 109.15 235.75 L109.65 235.3 110.8 234.55 116.95 237.4 120.9 235.3 121.8 237.4 111.75 245.45 98.6 233.95 102.85 227.05 115.1 225.15 121.8 229.6 120.6 234.1 117.25 235.3 111.1 233.65 M222.25 233.95 L209.15 245.45 204.6 241.85 199.05 237.4 199.95 235.3 204.0 237.4 210.05 234.55 211.8 235.75 Q210.7 233.25 210.05 230.55 210.25 232.15 209.75 233.65 L203.65 235.3 200.3 234.1 199.05 229.6 205.8 225.15 218.05 227.05 222.25 233.95" fill="#d9dae6" fill-rule="evenodd" stroke="none"/>
    <path d="M185.9 74.3 Q187.6 76.05 189.1 78.25 L189.75 79.8 186.25 79.05 Q183.95 78.65 182.4 78.05 181.8 75.1 180.5 72.65 179.25 69.75 176.3 68.45 L178.6 69.2 Q182.55 70.85 185.9 74.3 M177.6 100.95 L177.6 100.9 183.25 99.35 182.85 101.0 177.45 102.95 177.6 100.95 M142.5 80.0 L140.0 79.15 Q145.9 78.95 150.5 75.15 L153.8 75.8 Q154.45 75.9 156.4 76.85 158.3 77.8 161.0 77.9 162.9 77.7 164.9 76.7 L167.1 75.5 Q168.5 75.45 169.8 74.8 174.8 76.9 179.95 78.4 176.75 78.65 173.6 79.65 170.35 78.35 167.75 77.0 160.8 81.25 154.1 76.4 152.35 76.7 150.65 76.05 147.0 78.95 142.5 80.0" fill="#b2b1cb" fill-rule="evenodd" stroke="none"/>
    <path d="M143.4 102.35 L141.4 101.65 141.25 101.35 143.4 102.35 M133.2 78.2 Q136.15 73.1 140.55 69.25 L142.35 68.85 Q139.1 72.55 138.65 77.5 135.3 78.45 133.2 78.2" fill="#e3f2ea" fill-rule="evenodd" stroke="none"/>
    <path d="M180.3 80.8 L182.9 81.2 Q179.5 87.7 177.5 94.8 L175.55 95.0 179.5 83.0 180.3 80.8 M167.95 96.35 Q168.85 89.6 170.35 83.05 172.4 81.6 174.9 81.25 L176.8 80.9 Q173.75 83.15 171.35 87.85 168.95 92.5 167.95 96.35 M164.25 95.8 L161.45 95.85 161.5 85.4 Q164.5 83.8 167.9 83.45 164.05 85.35 163.95 88.45 163.85 91.55 164.25 95.8 M178.45 97.05 L175.75 98.0 175.4 98.1 175.4 97.25 178.75 96.9 178.45 97.05 M172.7 97.65 L167.85 99.2 167.95 97.9 172.7 97.65 M140.5 92.05 L140.45 92.05 136.4 79.55 Q139.1 79.4 141.55 80.55 142.8 86.95 145.0 93.05 142.65 93.0 140.5 92.05 M136.55 92.7 L136.55 92.35 139.5 93.3 139.5 93.35 140.75 97.4 137.9 97.1 Q136.5 95.3 136.55 92.7 M134.6 89.8 Q133.35 87.85 132.4 85.6 L131.1 81.85 Q132.8 80.05 135.2 79.6 136.7 85.5 139.0 91.1 136.7 91.05 134.6 89.8 M153.95 94.7 L153.2 85.3 153.2 85.25 Q156.1 85.9 158.95 85.3 L158.95 85.35 159.05 94.7 Q156.45 95.15 153.95 94.7 M146.75 93.65 L146.7 93.6 145.4 87.75 144.65 81.9 150.5 84.3 152.35 94.8 Q149.5 94.5 146.75 93.65 M142.1 94.45 L145.1 95.45 146.7 100.0 Q144.5 99.8 142.55 98.95 L142.5 98.9 141.1 94.15 142.1 94.45 M147.8 99.0 L147.25 96.0 150.95 96.65 151.8 96.8 152.45 100.65 Q150.2 100.8 148.0 100.0 L147.8 99.0 M154.5 101.25 L154.15 97.05 158.85 97.1 158.95 101.25 Q156.75 101.75 154.5 101.25 M161.8 98.3 L165.1 98.3 161.8 100.45 161.8 98.3" fill="#ffffff" fill-rule="evenodd" stroke="none"/>
    <path d="M138.3 100.55 L139.45 100.95 141.4 101.65 143.4 102.35 161.2 108.65 177.45 102.95 182.85 101.0 183.8 100.65 186.25 99.75 190.6 108.0 189.05 108.9 229.8 134.2 228.9 135.8 233.95 169.2 224.4 221.8 222.2 221.6 221.25 227.2 219.65 226.95 224.1 234.1 208.8 247.6 196.7 237.8 199.0 234.6 198.0 228.2 203.7 224.3 203.55 219.25 201.5 218.85 205.0 198.95 200.9 181.75 192.3 189.85 194.2 220.45 193.25 220.7 187.15 286.7 193.55 289.65 192.9 294.9 160.45 294.45 128.0 294.9 127.35 289.65 133.7 286.7 127.35 220.85 126.25 220.45 128.6 189.85 120.0 181.75 115.9 198.95 119.4 218.85 117.35 219.25 117.15 224.3 122.9 228.2 121.95 234.6 124.2 237.8 112.1 247.6 96.8 234.1 101.25 226.95 99.65 227.2 98.7 221.6 96.5 221.8 86.95 169.2 92.0 135.8 91.05 134.2 133.25 108.8 131.85 108.0 136.2 99.75 138.3 100.55 M218.25 145.45 Q216.55 145.6 216.35 147.2 216.55 148.75 218.25 148.9 219.95 148.75 220.1 147.2 219.95 145.6 218.25 145.45 M218.2 144.7 Q220.95 145.05 221.05 147.2 220.95 149.3 218.2 149.65 215.5 149.3 215.4 147.2 215.5 145.05 218.2 144.7 M224.3 134.85 Q222.6 134.95 222.4 136.55 222.6 138.15 224.3 138.25 225.95 138.15 226.15 136.55 225.95 134.95 224.3 134.85 M224.3 134.05 Q227.0 134.35 227.15 136.5 L227.0 137.35 228.7 134.25 223.8 131.8 Q221.95 133.85 217.2 142.55 L210.15 156.0 Q210.8 155.55 211.85 155.45 214.6 155.75 214.75 157.95 214.6 160.05 211.85 160.35 209.25 160.05 209.05 158.05 L203.75 168.25 203.6 168.45 204.8 168.2 Q207.5 168.5 207.65 170.7 207.5 172.8 204.8 173.1 202.4 172.85 202.05 171.15 L191.65 188.65 206.9 173.15 213.0 162.05 226.7 137.85 Q226.0 138.8 224.3 138.95 221.6 138.65 221.45 136.5 221.6 134.35 224.3 134.05 M185.05 101.8 L162.7 109.75 162.45 110.05 169.3 118.45 188.1 107.6 185.05 101.8 M198.25 115.55 L198.45 116.3 Q198.35 117.65 196.6 117.8 194.9 117.65 194.8 116.3 194.9 114.95 196.6 114.75 L197.1 114.85 195.1 113.6 193.75 124.65 182.35 126.95 182.75 127.65 Q183.05 126.75 184.45 126.65 186.2 126.8 186.25 128.15 L186.2 128.65 198.15 128.65 199.05 116.05 198.25 115.55 M196.6 117.35 Q197.7 117.3 197.8 116.35 197.7 115.35 196.6 115.25 195.5 115.35 195.4 116.35 195.5 117.3 196.6 117.35 M194.15 113.15 L188.35 110.15 163.3 150.05 185.65 134.5 181.55 126.75 193.15 124.25 194.15 113.15 M163.4 122.5 L166.65 119.0 161.2 111.6 155.55 119.25 158.15 122.65 163.4 122.5 M167.9 119.7 L165.05 122.8 171.0 135.55 187.5 109.8 168.65 120.65 167.9 119.7 M177.95 143.9 Q179.0 143.8 179.1 142.85 179.0 141.85 177.95 141.75 176.8 141.85 176.7 142.85 176.8 143.8 177.95 143.9 M177.95 144.4 Q176.2 144.2 176.1 142.85 176.2 141.5 177.95 141.35 179.65 141.5 179.75 142.85 179.65 144.2 177.95 144.4 M195.0 125.15 Q193.85 125.25 193.8 126.25 193.85 127.2 195.0 127.3 196.05 127.2 196.15 126.25 196.05 125.25 195.0 125.15 M196.8 126.2 Q196.7 127.55 195.0 127.7 193.25 127.55 193.15 126.2 193.25 124.85 195.0 124.7 196.7 124.85 196.8 126.2 M183.2 128.2 Q183.3 129.15 184.45 129.25 185.55 129.15 185.6 128.2 185.55 127.2 184.45 127.1 183.3 127.2 183.2 128.2 M184.45 129.65 L183.75 129.55 186.4 134.5 161.45 152.45 161.95 156.4 162.05 156.55 192.4 134.5 186.15 128.75 Q185.75 129.55 184.45 129.65 M188.85 135.8 Q189.95 135.75 190.05 134.8 189.95 133.8 188.85 133.7 187.7 133.8 187.65 134.8 187.7 135.75 188.85 135.8 M195.15 149.4 L193.9 146.95 193.85 147.0 192.4 147.85 196.35 153.3 197.25 153.55 195.15 149.4 M190.85 147.15 L190.85 147.2 182.6 152.1 195.7 153.3 190.85 147.15 M191.15 146.0 L192.05 147.15 Q193.0 146.6 193.9 146.0 L198.5 153.55 200.95 153.75 200.3 155.4 181.15 152.35 191.15 146.0 M188.85 133.2 Q190.6 133.4 190.7 134.75 190.6 136.1 188.85 136.25 187.1 136.1 187.05 134.75 187.1 133.4 188.85 133.2 M189.05 129.6 L194.25 134.75 162.35 157.3 162.9 215.45 163.0 216.35 191.95 213.7 190.35 189.35 222.45 131.35 199.9 117.35 199.55 129.6 189.05 129.6 M169.55 136.1 L163.5 123.45 160.75 123.45 158.2 123.45 Q153.85 135.9 153.6 135.9 153.55 136.3 155.2 140.0 L160.45 151.25 169.55 136.1 M162.9 152.25 Q163.0 150.9 164.7 150.7 166.45 150.9 166.55 152.25 166.45 153.6 164.7 153.75 163.0 153.6 162.9 152.25 M163.55 152.25 Q163.65 153.2 164.75 153.3 165.85 153.2 165.95 152.25 165.85 151.25 164.75 151.15 163.65 151.25 163.55 152.25 M211.85 159.5 Q213.55 159.4 213.75 157.85 213.55 156.2 211.85 156.1 210.15 156.2 210.0 157.85 210.15 159.4 211.85 159.5 M202.9 170.6 Q203.1 172.15 204.8 172.25 206.5 172.15 206.65 170.6 206.5 169.0 204.8 168.85 203.1 169.0 202.9 170.6 M208.8 172.9 L201.15 180.8 206.15 199.6 206.15 199.85 203.7 212.75 224.4 215.45 232.65 169.45 227.85 138.25 208.8 172.9 M160.1 109.9 L137.4 101.8 134.35 107.6 153.2 118.45 160.15 109.9 160.1 109.9 M156.7 123.05 L154.3 120.05 153.8 120.65 139.45 112.4 152.25 135.35 156.6 123.35 156.7 123.05 M161.0 119.7 Q158.6 119.45 158.45 117.8 158.55 116.15 161.0 115.95 163.4 116.15 163.45 117.8 163.4 119.45 161.0 119.7 M160.95 119.1 Q162.5 119.05 162.6 117.8 162.5 116.65 160.95 116.5 159.45 116.65 159.3 117.8 159.45 119.05 160.95 119.1 M125.8 113.6 Q123.85 114.85 121.85 116.05 L122.75 128.65 134.5 128.65 134.4 128.15 Q134.5 126.8 136.2 126.65 137.8 126.8 138.0 128.0 L138.55 126.95 127.15 124.65 126.35 118.0 Q126.2 119.2 124.55 119.4 122.8 119.2 122.7 117.85 122.8 116.5 124.55 116.35 125.95 116.5 126.3 117.4 L125.8 113.6 M124.55 118.95 Q125.65 118.85 125.7 117.9 125.65 116.9 124.55 116.8 123.4 116.9 123.3 117.9 123.4 118.85 124.55 118.95 M134.7 109.65 L127.55 114.1 127.75 124.2 139.35 126.75 135.25 134.5 158.55 150.0 137.8 111.5 134.7 109.65 M136.2 129.65 Q135.05 129.55 134.6 128.9 L128.25 134.7 161.45 158.7 160.8 153.25 134.5 134.5 137.25 129.4 136.2 129.65 M131.8 135.8 Q132.85 135.75 132.95 134.8 132.85 133.8 131.8 133.7 130.65 133.8 130.55 134.8 130.65 135.75 131.8 135.8 M135.0 128.2 Q135.1 129.15 136.2 129.25 137.3 129.15 137.35 128.2 137.3 127.2 136.2 127.1 135.1 127.2 135.0 128.2 M133.6 134.75 Q133.5 136.1 131.8 136.25 130.05 136.1 129.95 134.75 130.05 133.4 131.8 133.2 133.5 133.4 133.6 134.75 M123.85 126.2 Q123.9 124.85 125.65 124.7 127.4 124.85 127.5 126.2 127.4 127.55 125.65 127.7 123.9 127.55 123.85 126.2 M124.45 126.25 Q124.55 127.2 125.65 127.3 126.75 127.2 126.85 126.25 126.75 125.25 125.65 125.15 124.55 125.25 124.45 126.25 M132.25 129.55 L121.3 129.6 121.0 117.35 98.4 131.35 130.5 189.35 128.95 213.7 156.3 215.65 157.25 156.9 126.4 134.6 132.25 129.55 M158.15 134.5 Q158.25 132.6 161.05 132.35 163.85 132.6 164.0 134.5 163.85 136.45 161.05 136.75 158.25 136.45 158.15 134.5 M161.05 136.05 Q162.8 135.9 163.0 134.5 162.8 133.15 161.05 133.0 159.3 133.15 159.1 134.5 159.3 135.9 161.05 136.05 M145.5 145.7 Q146.6 145.6 146.7 144.65 146.6 143.65 145.5 143.55 144.35 143.65 144.3 144.65 144.35 145.6 145.5 145.7 M147.35 144.6 Q147.25 145.95 145.5 146.1 143.75 145.95 143.65 144.6 143.75 143.25 145.5 143.1 147.25 143.25 147.35 144.6 M92.2 134.25 L93.8 137.1 93.75 136.5 Q93.85 134.35 96.55 134.05 99.25 134.35 99.4 136.5 99.25 138.65 96.55 138.95 95.05 138.8 94.35 138.05 L99.9 147.85 99.75 147.2 Q99.9 145.05 102.6 144.7 105.3 145.05 105.45 147.2 105.3 149.3 102.6 149.65 101.05 149.45 100.35 148.7 L107.9 162.05 114.0 173.15 129.25 188.65 118.55 170.55 Q118.05 172.05 115.75 172.3 113.05 172.05 112.95 169.9 113.05 167.7 115.75 167.45 L116.85 167.65 111.55 157.45 Q111.4 159.5 108.7 159.85 106.0 159.5 105.9 157.4 106.0 155.25 108.7 154.9 109.85 155.05 110.55 155.55 L103.7 142.55 Q98.95 133.85 97.1 131.8 L92.2 134.25 M115.75 168.05 Q114.1 168.15 113.9 169.75 114.1 171.35 115.75 171.45 117.45 171.35 117.6 169.75 117.45 168.15 115.75 168.05 M108.7 158.95 Q110.4 158.8 110.55 157.3 110.4 155.65 108.7 155.55 107.0 155.65 106.8 157.3 107.0 158.8 108.7 158.95 M104.5 147.2 Q104.3 145.6 102.6 145.45 100.9 145.6 100.75 147.2 100.9 148.75 102.6 148.9 104.3 148.75 104.5 147.2 M94.65 136.55 Q94.85 138.15 96.55 138.25 98.25 138.15 98.4 136.55 98.25 134.95 96.55 134.85 94.85 134.95 94.65 136.55 M112.1 172.9 L93.0 138.25 88.2 169.45 96.5 215.45 117.15 212.75 114.7 199.85 114.7 199.6 119.7 180.8 112.1 172.9 M158.15 152.7 Q158.05 151.7 156.95 151.65 155.8 151.7 155.75 152.7 155.8 153.65 156.95 153.75 158.05 153.65 158.15 152.7 M155.1 152.7 Q155.15 151.35 156.9 151.2 158.65 151.35 158.75 152.7 158.65 154.05 156.9 154.25 155.15 154.05 155.1 152.7 M157.9 157.2 L157.8 165.35 Q158.15 164.45 159.55 164.3 161.35 164.45 161.45 165.75 161.35 166.95 159.55 167.1 158.15 167.0 157.8 166.15 L157.25 216.9 128.65 214.4 128.0 219.85 162.4 223.55 161.75 159.25 157.9 157.2 M159.8 173.85 Q158.7 173.95 158.6 174.85 158.7 175.75 159.8 175.85 160.9 175.75 161.05 174.85 160.9 173.95 159.8 173.85 M159.6 164.75 Q158.45 164.8 158.4 165.75 158.45 166.65 159.6 166.75 160.7 166.65 160.8 165.75 160.7 164.8 159.6 164.75 M157.95 174.9 Q158.05 173.6 159.75 173.45 161.55 173.6 161.65 174.9 161.55 176.1 159.75 176.3 158.05 176.1 157.95 174.9 M159.75 182.85 Q158.6 182.9 158.5 183.8 158.6 184.75 159.75 184.85 160.8 184.75 160.95 183.8 160.8 182.9 159.75 182.85 M159.75 182.4 Q161.5 182.55 161.6 183.8 161.5 185.05 159.75 185.2 158.0 185.05 157.9 183.8 158.0 182.55 159.75 182.4 M159.7 191.7 Q161.45 191.85 161.55 193.1 161.45 194.35 159.7 194.5 157.95 194.35 157.85 193.1 157.95 191.85 159.7 191.7 M160.9 193.1 Q160.8 192.2 159.7 192.1 158.55 192.2 158.45 193.1 158.55 194.0 159.7 194.1 160.8 194.0 160.9 193.1 M160.0 201.25 Q158.85 201.35 158.8 202.2 158.85 203.15 160.0 203.25 161.1 203.15 161.2 202.2 161.1 201.35 160.0 201.25 M158.15 202.25 Q158.2 201.0 159.95 200.85 161.75 201.0 161.8 202.25 161.75 203.5 159.95 203.65 158.2 203.5 158.15 202.25 M151.15 219.65 Q151.05 220.85 149.3 221.05 147.55 220.85 147.45 219.65 147.55 218.35 149.3 218.2 151.05 218.35 151.15 219.65 M150.5 219.6 Q150.35 218.7 149.3 218.6 148.15 218.7 148.05 219.6 148.15 220.5 149.3 220.6 150.35 220.5 150.5 219.6 M161.6 211.4 Q161.5 212.6 159.75 212.8 158.0 212.6 157.9 211.4 L158.0 211.0 Q158.3 210.1 159.75 209.95 161.2 210.1 161.55 211.0 L161.6 211.4 M157.55 220.5 Q157.65 221.4 158.8 221.5 159.85 221.4 160.0 220.5 159.85 219.6 158.8 219.5 157.65 219.6 157.55 220.5 M160.85 211.0 Q160.55 210.45 159.75 210.4 158.85 210.45 158.6 211.0 L158.5 211.4 Q158.6 212.3 159.75 212.4 160.8 212.3 160.95 211.4 L160.85 211.0 M160.6 220.5 Q160.5 221.7 158.75 221.9 157.0 221.7 156.9 220.5 157.0 219.25 158.75 219.05 160.5 219.25 160.6 220.5 M130.25 217.8 Q130.35 218.7 131.5 218.8 132.55 218.7 132.7 217.8 132.55 216.9 131.5 216.8 130.35 216.9 130.25 217.8 M129.6 217.8 Q129.7 216.55 131.45 216.35 133.25 216.55 133.3 217.8 133.25 219.0 131.45 219.2 129.7 219.0 129.6 217.8 M139.25 220.15 Q137.5 220.0 137.4 218.75 137.5 217.5 139.25 217.35 141.05 217.5 141.1 218.75 141.05 220.0 139.25 220.15 M140.45 218.75 Q140.35 217.85 139.25 217.75 138.1 217.85 138.0 218.75 138.1 219.7 139.25 219.75 140.35 219.7 140.45 218.75 M159.5 225.0 L128.3 221.3 134.7 278.1 147.15 277.3 159.8 277.85 159.5 225.0 M107.6 215.35 Q109.85 215.6 110.0 217.4 109.85 219.15 107.6 219.4 105.35 219.15 105.25 217.4 105.35 215.6 107.6 215.35 M115.0 214.9 Q113.55 215.0 113.45 216.3 113.55 217.65 115.0 217.75 116.35 217.65 116.55 216.3 116.35 215.0 115.0 214.9 M107.6 215.85 Q106.15 216.0 106.05 217.3 106.15 218.6 107.6 218.7 109.0 218.6 109.15 217.3 109.0 216.0 107.6 215.85 M114.95 214.35 Q117.2 214.65 117.35 216.4 117.2 218.2 114.95 218.45 112.7 218.2 112.6 216.4 112.7 214.65 114.95 214.35 M116.95 213.35 L96.8 216.4 97.6 221.0 117.8 218.25 116.95 213.35 M99.85 216.85 Q98.4 217.0 98.3 218.3 98.4 219.6 99.85 219.7 101.25 219.6 101.4 218.3 101.25 217.0 99.85 216.85 M97.45 218.35 Q97.55 216.6 99.8 216.3 102.05 216.6 102.2 218.35 102.05 220.15 99.8 220.4 97.55 220.15 97.45 218.35 M111.1 233.65 L117.25 235.3 120.6 234.1 121.8 229.6 115.1 225.15 102.85 227.05 98.6 233.95 111.75 245.45 121.8 237.4 120.9 235.3 116.95 237.4 110.8 234.55 109.65 235.3 109.15 235.75 Q110.15 233.25 110.8 230.55 110.65 232.15 111.1 233.65 M115.9 219.6 L100.0 221.95 100.6 225.95 116.25 224.0 115.9 219.6 M137.7 284.0 Q135.4 283.75 135.35 281.95 135.4 280.15 137.7 279.9 139.95 280.15 140.05 281.95 139.95 283.75 137.7 284.0 M137.75 280.45 Q136.3 280.55 136.15 281.85 136.3 283.15 137.75 283.3 139.1 283.15 139.3 281.85 139.1 280.55 137.75 280.45 M128.8 292.1 L128.8 293.45 159.25 292.8 159.15 291.4 128.8 292.1 M128.6 291.45 L159.35 290.7 159.35 289.7 145.0 283.5 128.3 289.5 128.6 291.45 M135.0 279.05 L135.0 286.3 144.75 282.2 Q143.85 281.7 143.8 280.6 143.9 278.8 146.15 278.6 148.4 278.8 148.55 280.6 148.4 282.25 146.5 282.6 L159.45 288.5 159.15 278.8 146.6 277.95 Q139.8 278.0 135.0 279.05 M155.6 283.9 Q156.95 283.8 157.1 282.5 156.95 281.2 155.6 281.05 154.15 281.2 154.0 282.5 154.15 283.8 155.6 283.9 M157.95 282.55 Q157.8 284.35 155.6 284.6 153.3 284.35 153.2 282.55 153.3 280.75 155.6 280.55 157.8 280.75 157.95 282.55 M146.2 281.95 Q147.55 281.85 147.75 280.55 147.55 279.25 146.2 279.1 144.75 279.25 144.65 280.55 144.75 281.85 146.2 281.95 M161.0 289.1 L161.0 290.85 192.25 291.45 192.55 289.5 169.5 283.5 161.0 289.1 M160.95 292.9 L192.15 293.45 192.45 291.95 160.95 291.5 160.95 292.9 M160.8 288.5 L169.3 282.05 185.85 286.35 185.85 279.1 Q181.0 278.05 174.05 278.05 L161.15 278.95 160.8 288.5 M161.1 277.85 L173.7 277.3 186.2 278.1 192.6 221.3 161.4 225.0 161.1 277.85 M203.8 216.15 Q203.9 214.35 206.15 214.15 208.4 214.35 208.55 216.15 208.4 217.95 206.15 218.2 203.9 217.95 203.8 216.15 M223.25 221.0 L224.05 216.4 221.8 216.1 Q223.05 216.55 223.1 217.85 223.0 219.65 220.7 219.9 218.45 219.65 218.35 217.85 218.45 216.2 220.4 215.85 L203.85 213.35 203.05 218.25 223.25 221.0 M204.6 216.1 Q204.7 217.4 206.15 217.5 207.5 217.4 207.7 216.1 207.5 214.8 206.15 214.65 204.7 214.8 204.6 216.1 M215.05 217.0 Q214.85 215.7 213.5 215.6 212.05 215.7 211.9 217.0 212.05 218.35 213.5 218.45 214.85 218.35 215.05 217.0 M215.85 217.1 Q215.7 218.9 213.5 219.15 211.2 218.9 211.15 217.1 211.2 215.35 213.5 215.05 215.7 215.35 215.85 217.1 M220.75 219.2 Q222.15 219.05 222.35 217.75 222.15 216.45 220.75 216.3 219.35 216.45 219.2 217.75 219.35 219.05 220.75 219.2 M220.9 221.95 L204.95 219.6 204.65 224.0 220.25 225.95 220.9 221.95 M222.25 233.95 L218.05 227.05 205.8 225.15 199.05 229.6 200.3 234.1 203.65 235.3 209.75 233.65 Q210.25 232.15 210.05 230.55 210.7 233.25 211.8 235.75 L210.05 234.55 204.0 237.4 199.95 235.3 199.05 237.4 204.6 241.85 209.15 245.45 222.25 233.95 M189.8 217.3 Q189.7 216.35 188.6 216.3 187.5 216.35 187.4 217.3 187.5 218.2 188.6 218.3 189.7 218.2 189.8 217.3 M192.9 219.85 L192.25 214.4 162.95 217.05 162.95 218.95 Q163.6 219.3 163.65 220.05 163.6 220.8 163.0 221.2 L163.0 223.1 192.9 219.85 M190.4 217.3 Q190.35 218.5 188.55 218.7 186.85 218.5 186.75 217.3 186.85 216.05 188.55 215.85 190.35 216.05 190.4 217.3 M162.95 219.65 L163.0 220.5 163.1 220.05 162.95 219.65 M167.7 218.75 Q166.55 218.85 166.45 219.75 166.55 220.65 167.7 220.75 168.75 220.65 168.9 219.75 168.75 218.85 167.7 218.75 M167.65 218.35 Q169.4 218.5 169.5 219.75 169.4 221.0 167.65 221.15 165.9 221.0 165.8 219.75 165.9 218.5 167.65 218.35 M178.5 217.4 Q177.35 217.45 177.3 218.35 177.35 219.3 178.5 219.35 179.55 219.3 179.7 218.35 179.55 217.45 178.5 217.4 M178.45 216.95 Q180.2 217.1 180.3 218.35 180.2 219.6 178.45 219.75 176.7 219.6 176.65 218.35 176.7 217.1 178.45 216.95 M173.7 280.55 Q173.55 279.25 172.15 279.1 170.7 279.25 170.6 280.55 170.7 281.85 172.15 281.95 173.55 281.85 173.7 280.55 M163.0 282.5 Q163.15 283.8 164.55 283.9 165.95 283.8 166.1 282.5 165.95 281.2 164.55 281.05 163.15 281.2 163.0 282.5 M184.85 282.5 Q184.7 284.25 182.45 284.5 180.2 284.25 180.1 282.5 180.2 280.7 182.45 280.45 184.7 280.7 184.85 282.5 M172.1 282.65 Q169.85 282.4 169.75 280.6 169.85 278.8 172.1 278.6 174.35 278.8 174.5 280.6 174.35 282.4 172.1 282.65 M162.2 282.55 Q162.3 280.75 164.55 280.55 166.8 280.75 166.95 282.55 166.8 284.35 164.55 284.6 162.3 284.35 162.2 282.55 M182.45 280.95 Q181.0 281.1 180.85 282.4 181.0 283.7 182.45 283.8 183.8 283.7 184.0 282.4 183.8 281.1 182.45 280.95" fill="#0d0f0d" fill-rule="evenodd" stroke="none"/>
    <path d="M218.25 145.45 Q219.95 145.6 220.1 147.2 219.95 148.75 218.25 148.9 216.55 148.75 216.35 147.2 216.55 145.6 218.25 145.45 M224.3 134.85 Q225.95 134.95 226.15 136.55 225.95 138.15 224.3 138.25 222.6 138.15 222.4 136.55 222.6 134.95 224.3 134.85 M185.05 101.8 L188.1 107.6 169.3 118.45 162.45 110.05 162.7 109.75 185.05 101.8 M196.6 117.35 Q195.5 117.3 195.4 116.35 195.5 115.35 196.6 115.25 197.7 115.35 197.8 116.35 197.7 117.3 196.6 117.35 M167.9 119.7 L168.65 120.65 187.5 109.8 171.0 135.55 165.05 122.8 167.9 119.7 M177.95 143.9 Q176.8 143.8 176.7 142.85 176.8 141.85 177.95 141.75 179.0 141.85 179.1 142.85 179.0 143.8 177.95 143.9 M195.0 125.15 Q196.05 125.25 196.15 126.25 196.05 127.2 195.0 127.3 193.85 127.2 193.8 126.25 193.85 125.25 195.0 125.15 M183.2 128.2 Q183.3 127.2 184.45 127.1 185.55 127.2 185.6 128.2 185.55 129.15 184.45 129.25 183.3 129.15 183.2 128.2 M188.85 135.8 Q187.7 135.75 187.65 134.8 187.7 133.8 188.85 133.7 189.95 133.8 190.05 134.8 189.95 135.75 188.85 135.8 M195.15 149.4 L197.25 153.55 196.35 153.3 192.4 147.85 193.85 147.0 195.15 149.4 M163.55 152.25 Q163.65 151.25 164.75 151.15 165.85 151.25 165.95 152.25 165.85 153.2 164.75 153.3 163.65 153.2 163.55 152.25 M202.9 170.6 Q203.1 169.0 204.8 168.85 206.5 169.0 206.65 170.6 206.5 172.15 204.8 172.25 203.1 172.15 202.9 170.6 M211.85 159.5 Q210.15 159.4 210.0 157.85 210.15 156.2 211.85 156.1 213.55 156.2 213.75 157.85 213.55 159.4 211.85 159.5 M156.7 123.05 L156.6 123.35 152.25 135.35 139.45 112.4 153.8 120.65 154.3 120.05 156.7 123.05 M160.1 109.9 L160.15 109.9 153.2 118.45 134.35 107.6 137.4 101.8 160.1 109.9 M160.95 119.1 Q159.45 119.05 159.3 117.8 159.45 116.65 160.95 116.5 162.5 116.65 162.6 117.8 162.5 119.05 160.95 119.1 M124.55 118.95 Q123.4 118.85 123.3 117.9 123.4 116.9 124.55 116.8 125.65 116.9 125.7 117.9 125.65 118.85 124.55 118.95 M135.0 128.2 Q135.1 127.2 136.2 127.1 137.3 127.2 137.35 128.2 137.3 129.15 136.2 129.25 135.1 129.15 135.0 128.2 M131.8 135.8 Q130.65 135.75 130.55 134.8 130.65 133.8 131.8 133.7 132.85 133.8 132.95 134.8 132.85 135.75 131.8 135.8 M124.45 126.25 Q124.55 125.25 125.65 125.15 126.75 125.25 126.85 126.25 126.75 127.2 125.65 127.3 124.55 127.2 124.45 126.25 M161.05 136.05 Q159.3 135.9 159.1 134.5 159.3 133.15 161.05 133.0 162.8 133.15 163.0 134.5 162.8 135.9 161.05 136.05 M145.5 145.7 Q144.35 145.6 144.3 144.65 144.35 143.65 145.5 143.55 146.6 143.65 146.7 144.65 146.6 145.6 145.5 145.7 M94.65 136.55 Q94.85 134.95 96.55 134.85 98.25 134.95 98.4 136.55 98.25 138.15 96.55 138.25 94.85 138.15 94.65 136.55 M104.5 147.2 Q104.3 148.75 102.6 148.9 100.9 148.75 100.75 147.2 100.9 145.6 102.6 145.45 104.3 145.6 104.5 147.2 M108.7 158.95 Q107.0 158.8 106.8 157.3 107.0 155.65 108.7 155.55 110.4 155.65 110.55 157.3 110.4 158.8 108.7 158.95 M115.75 168.05 Q117.45 168.15 117.6 169.75 117.45 171.35 115.75 171.45 114.1 171.35 113.9 169.75 114.1 168.15 115.75 168.05 M158.15 152.7 Q158.05 153.65 156.95 153.75 155.8 153.65 155.75 152.7 155.8 151.7 156.95 151.65 158.05 151.7 158.15 152.7 M159.6 164.75 Q160.7 164.8 160.8 165.75 160.7 166.65 159.6 166.75 158.45 166.65 158.4 165.75 158.45 164.8 159.6 164.75 M159.8 173.85 Q160.9 173.95 161.05 174.85 160.9 175.75 159.8 175.85 158.7 175.75 158.6 174.85 158.7 173.95 159.8 173.85 M159.75 182.85 Q160.8 182.9 160.95 183.8 160.8 184.75 159.75 184.85 158.6 184.75 158.5 183.8 158.6 182.9 159.75 182.85 M160.9 193.1 Q160.8 194.0 159.7 194.1 158.55 194.0 158.45 193.1 158.55 192.2 159.7 192.1 160.8 192.2 160.9 193.1 M160.0 201.25 Q161.1 201.35 161.2 202.2 161.1 203.15 160.0 203.25 158.85 203.15 158.8 202.2 158.85 201.35 160.0 201.25 M150.5 219.6 Q150.35 220.5 149.3 220.6 148.15 220.5 148.05 219.6 148.15 218.7 149.3 218.6 150.35 218.7 150.5 219.6 M160.85 211.0 L160.95 211.4 Q160.8 212.3 159.75 212.4 158.6 212.3 158.5 211.4 L158.6 211.0 Q158.85 210.45 159.75 210.4 160.55 210.45 160.85 211.0 M157.55 220.5 Q157.65 219.6 158.8 219.5 159.85 219.6 160.0 220.5 159.85 221.4 158.8 221.5 157.65 221.4 157.55 220.5 M130.25 217.8 Q130.35 216.9 131.5 216.8 132.55 216.9 132.7 217.8 132.55 218.7 131.5 218.8 130.35 218.7 130.25 217.8 M140.45 218.75 Q140.35 219.7 139.25 219.75 138.1 219.7 138.0 218.75 138.1 217.85 139.25 217.75 140.35 217.85 140.45 218.75 M151.6 198.35 L133.35 198.6 151.9 197.4 151.6 198.35 M107.6 215.85 Q109.0 216.0 109.15 217.3 109.0 218.6 107.6 218.7 106.15 218.6 106.05 217.3 106.15 216.0 107.6 215.85 M115.0 214.9 Q116.35 215.0 116.55 216.3 116.35 217.65 115.0 217.75 113.55 217.65 113.45 216.3 113.55 215.0 115.0 214.9 M99.85 216.85 Q101.25 217.0 101.4 218.3 101.25 219.6 99.85 219.7 98.4 219.6 98.3 218.3 98.4 217.0 99.85 216.85 M137.75 280.45 Q139.1 280.55 139.3 281.85 139.1 283.15 137.75 283.3 136.3 283.15 136.15 281.85 136.3 280.55 137.75 280.45 M155.6 283.9 Q154.15 283.8 154.0 282.5 154.15 281.2 155.6 281.05 156.95 281.2 157.1 282.5 156.95 283.8 155.6 283.9 M146.2 281.95 Q144.75 281.85 144.65 280.55 144.75 279.25 146.2 279.1 147.55 279.25 147.75 280.55 147.55 281.85 146.2 281.95 M215.05 217.0 Q214.85 218.35 213.5 218.45 212.05 218.35 211.9 217.0 212.05 215.7 213.5 215.6 214.85 215.7 215.05 217.0 M204.6 216.1 Q204.7 214.8 206.15 214.65 207.5 214.8 207.7 216.1 207.5 217.4 206.15 217.5 204.7 217.4 204.6 216.1 M220.75 219.2 Q219.35 219.05 219.2 217.75 219.35 216.45 220.75 216.3 222.15 216.45 222.35 217.75 222.15 219.05 220.75 219.2 M189.8 217.3 Q189.7 218.2 188.6 218.3 187.5 218.2 187.4 217.3 187.5 216.35 188.6 216.3 189.7 216.35 189.8 217.3 M167.7 218.75 Q168.75 218.85 168.9 219.75 168.75 220.65 167.7 220.75 166.55 220.65 166.45 219.75 166.55 218.85 167.7 218.75 M162.95 219.65 L163.1 220.05 163.0 220.5 162.95 219.65 M178.5 217.4 Q179.55 217.45 179.7 218.35 179.55 219.3 178.5 219.35 177.35 219.3 177.3 218.35 177.35 217.45 178.5 217.4 M169.3 198.35 L169.0 197.4 187.55 198.6 169.3 198.35 M163.0 282.5 Q163.15 281.2 164.55 281.05 165.95 281.2 166.1 282.5 165.95 283.8 164.55 283.9 163.15 283.8 163.0 282.5 M173.7 280.55 Q173.55 281.85 172.15 281.95 170.7 281.85 170.6 280.55 170.7 279.25 172.15 279.1 173.55 279.25 173.7 280.55 M182.45 280.95 Q183.8 281.1 184.0 282.4 183.8 283.7 182.45 283.8 181.0 283.7 180.85 282.4 181.0 281.1 182.45 280.95" fill="#608051" fill-rule="evenodd" stroke="none"/>
    <path d="M218.2 144.7 Q215.5 145.05 215.4 147.2 215.5 149.3 218.2 149.65 220.95 149.3 221.05 147.2 220.95 145.05 218.2 144.7 M224.3 134.05 Q221.6 134.35 221.45 136.5 221.6 138.65 224.3 138.95 226.0 138.8 226.7 137.85 L213.0 162.05 206.9 173.15 191.65 188.65 202.05 171.15 Q202.4 172.85 204.8 173.1 207.5 172.8 207.65 170.7 207.5 168.5 204.8 168.2 L203.6 168.45 203.75 168.25 209.05 158.05 Q209.25 160.05 211.85 160.35 214.6 160.05 214.75 157.95 214.6 155.75 211.85 155.45 210.8 155.55 210.15 156.0 L217.2 142.55 Q221.95 133.85 223.8 131.8 L228.7 134.25 227.0 137.35 227.15 136.5 Q227.0 134.35 224.3 134.05 M198.25 115.55 L199.05 116.05 198.15 128.65 186.2 128.65 186.25 128.15 Q186.2 126.8 184.45 126.65 183.05 126.75 182.75 127.65 L182.35 126.95 193.75 124.65 195.1 113.6 197.1 114.85 196.6 114.75 Q194.9 114.95 194.8 116.3 194.9 117.65 196.6 117.8 198.35 117.65 198.45 116.3 L198.25 115.55 M194.15 113.15 L193.15 124.25 181.55 126.75 185.65 134.5 163.3 150.05 188.35 110.15 194.15 113.15 M177.95 144.4 Q179.65 144.2 179.75 142.85 179.65 141.5 177.95 141.35 176.2 141.5 176.1 142.85 176.2 144.2 177.95 144.4 M196.8 126.2 Q196.7 124.85 195.0 124.7 193.25 124.85 193.15 126.2 193.25 127.55 195.0 127.7 196.7 127.55 196.8 126.2 M184.45 129.65 Q185.75 129.55 186.15 128.75 L192.4 134.5 162.05 156.55 161.95 156.4 161.45 152.45 186.4 134.5 183.75 129.55 184.45 129.65 M188.85 133.2 Q187.1 133.4 187.05 134.75 187.1 136.1 188.85 136.25 190.6 136.1 190.7 134.75 190.6 133.4 188.85 133.2 M191.15 146.0 L181.15 152.35 200.3 155.4 200.95 153.75 198.5 153.55 193.9 146.0 Q193.0 146.6 192.05 147.15 L191.15 146.0 M190.85 147.15 L195.7 153.3 182.6 152.1 190.85 147.2 190.85 147.15 M193.85 147.0 L193.9 146.95 195.15 149.4 193.85 147.0 M189.05 129.6 L199.55 129.6 199.9 117.35 222.45 131.35 190.35 189.35 191.95 213.7 163.0 216.35 162.9 215.45 162.35 157.3 194.25 134.75 189.05 129.6 M162.9 152.25 Q163.0 153.6 164.7 153.75 166.45 153.6 166.55 152.25 166.45 150.9 164.7 150.7 163.0 150.9 162.9 152.25 M208.8 172.9 L227.85 138.25 232.65 169.45 224.4 215.45 203.7 212.75 206.15 199.85 206.15 199.6 201.15 180.8 208.8 172.9 M125.8 113.6 L126.3 117.4 Q125.95 116.5 124.55 116.35 122.8 116.5 122.7 117.85 122.8 119.2 124.55 119.4 126.2 119.2 126.35 118.0 L127.15 124.65 138.55 126.95 138.0 128.0 Q137.8 126.8 136.2 126.65 134.5 126.8 134.4 128.15 L134.5 128.65 122.75 128.65 121.85 116.05 Q123.85 114.85 125.8 113.6 M134.7 109.65 L137.8 111.5 158.55 150.0 135.25 134.5 139.35 126.75 127.75 124.2 127.55 114.1 134.7 109.65 M136.2 129.65 L137.25 129.4 134.5 134.5 160.8 153.25 161.45 158.7 128.25 134.7 134.6 128.9 Q135.05 129.55 136.2 129.65 M123.85 126.2 Q123.9 127.55 125.65 127.7 127.4 127.55 127.5 126.2 127.4 124.85 125.65 124.7 123.9 124.85 123.85 126.2 M133.6 134.75 Q133.5 133.4 131.8 133.2 130.05 133.4 129.95 134.75 130.05 136.1 131.8 136.25 133.5 136.1 133.6 134.75 M132.25 129.55 L126.4 134.6 157.25 156.9 156.3 215.65 128.95 213.7 130.5 189.35 98.4 131.35 121.0 117.35 121.3 129.6 132.25 129.55 M92.2 134.25 L97.1 131.8 Q98.95 133.85 103.7 142.55 L110.55 155.55 Q109.85 155.05 108.7 154.9 106.0 155.25 105.9 157.4 106.0 159.5 108.7 159.85 111.4 159.5 111.55 157.45 L116.85 167.65 115.75 167.45 Q113.05 167.7 112.95 169.9 113.05 172.05 115.75 172.3 118.05 172.05 118.55 170.55 L129.25 188.65 114.0 173.15 107.9 162.05 100.35 148.7 Q101.05 149.45 102.6 149.65 105.3 149.3 105.45 147.2 105.3 145.05 102.6 144.7 99.9 145.05 99.75 147.2 L99.9 147.85 94.35 138.05 Q95.05 138.8 96.55 138.95 99.25 138.65 99.4 136.5 99.25 134.35 96.55 134.05 93.85 134.35 93.75 136.5 L93.8 137.1 92.2 134.25 M147.35 144.6 Q147.25 143.25 145.5 143.1 143.75 143.25 143.65 144.6 143.75 145.95 145.5 146.1 147.25 145.95 147.35 144.6 M112.1 172.9 L119.7 180.8 114.7 199.6 114.7 199.85 117.15 212.75 96.5 215.45 88.2 169.45 93.0 138.25 112.1 172.9 M157.9 157.2 L161.75 159.25 162.4 223.55 128.0 219.85 128.65 214.4 157.25 216.9 157.8 166.15 Q158.15 167.0 159.55 167.1 161.35 166.95 161.45 165.75 161.35 164.45 159.55 164.3 158.15 164.45 157.8 165.35 L157.9 157.2 M155.1 152.7 Q155.15 154.05 156.9 154.25 158.65 154.05 158.75 152.7 158.65 151.35 156.9 151.2 155.15 151.35 155.1 152.7 M157.95 174.9 Q158.05 176.1 159.75 176.3 161.55 176.1 161.65 174.9 161.55 173.6 159.75 173.45 158.05 173.6 157.95 174.9 M159.7 191.7 Q157.95 191.85 157.85 193.1 157.95 194.35 159.7 194.5 161.45 194.35 161.55 193.1 161.45 191.85 159.7 191.7 M159.75 182.4 Q158.0 182.55 157.9 183.8 158.0 185.05 159.75 185.2 161.5 185.05 161.6 183.8 161.5 182.55 159.75 182.4 M151.15 219.65 Q151.05 218.35 149.3 218.2 147.55 218.35 147.45 219.65 147.55 220.85 149.3 221.05 151.05 220.85 151.15 219.65 M158.15 202.25 Q158.2 203.5 159.95 203.65 161.75 203.5 161.8 202.25 161.75 201.0 159.95 200.85 158.2 201.0 158.15 202.25 M161.6 211.4 L161.55 211.0 Q161.2 210.1 159.75 209.95 158.3 210.1 158.0 211.0 L157.9 211.4 Q158.0 212.6 159.75 212.8 161.5 212.6 161.6 211.4 M160.6 220.5 Q160.5 219.25 158.75 219.05 157.0 219.25 156.9 220.5 157.0 221.7 158.75 221.9 160.5 221.7 160.6 220.5 M139.25 220.15 Q141.05 220.0 141.1 218.75 141.05 217.5 139.25 217.35 137.5 217.5 137.4 218.75 137.5 220.0 139.25 220.15 M129.6 217.8 Q129.7 219.0 131.45 219.2 133.25 219.0 133.3 217.8 133.25 216.55 131.45 216.35 129.7 216.55 129.6 217.8 M151.6 198.35 L151.9 197.4 133.35 198.6 151.6 198.35 M159.5 225.0 L159.8 277.85 147.15 277.3 134.7 278.1 128.3 221.3 159.5 225.0 M107.6 215.35 Q105.35 215.6 105.25 217.4 105.35 219.15 107.6 219.4 109.85 219.15 110.0 217.4 109.85 215.6 107.6 215.35 M116.95 213.35 L117.8 218.25 97.6 221.0 96.8 216.4 116.95 213.35 M114.95 214.35 Q112.7 214.65 112.6 216.4 112.7 218.2 114.95 218.45 117.2 218.2 117.35 216.4 117.2 214.65 114.95 214.35 M97.45 218.35 Q97.55 220.15 99.8 220.4 102.05 220.15 102.2 218.35 102.05 216.6 99.8 216.3 97.55 216.6 97.45 218.35 M137.7 284.0 Q139.95 283.75 140.05 281.95 139.95 280.15 137.7 279.9 135.4 280.15 135.35 281.95 135.4 283.75 137.7 284.0 M115.9 219.6 L116.25 224.0 100.6 225.95 100.0 221.95 115.9 219.6 M128.8 292.1 L159.15 291.4 159.25 292.8 128.8 293.45 128.8 292.1 M128.6 291.45 L128.3 289.5 145.0 283.5 159.35 289.7 159.35 290.7 128.6 291.45 M135.0 279.05 Q139.8 278.0 146.6 277.95 L159.15 278.8 159.45 288.5 146.5 282.6 Q148.4 282.25 148.55 280.6 148.4 278.8 146.15 278.6 143.9 278.8 143.8 280.6 143.85 281.7 144.75 282.2 L135.0 286.3 135.0 279.05 M157.95 282.55 Q157.8 280.75 155.6 280.55 153.3 280.75 153.2 282.55 153.3 284.35 155.6 284.6 157.8 284.35 157.95 282.55 M161.0 289.1 L169.5 283.5 192.55 289.5 192.25 291.45 161.0 290.85 161.0 289.1 M161.1 277.85 L161.4 225.0 192.6 221.3 186.2 278.1 173.7 277.3 161.1 277.85 M160.8 288.5 L161.15 278.95 174.05 278.05 Q181.0 278.05 185.85 279.1 L185.85 286.35 169.3 282.05 160.8 288.5 M160.95 292.9 L160.95 291.5 192.45 291.95 192.15 293.45 160.95 292.9 M223.25 221.0 L203.05 218.25 203.85 213.35 220.4 215.85 Q218.45 216.2 218.35 217.85 218.45 219.65 220.7 219.9 223.0 219.65 223.1 217.85 223.05 216.55 221.8 216.1 L224.05 216.4 223.25 221.0 M203.8 216.15 Q203.9 217.95 206.15 218.2 208.4 217.95 208.55 216.15 208.4 214.35 206.15 214.15 203.9 214.35 203.8 216.15 M215.85 217.1 Q215.7 215.35 213.5 215.05 211.2 215.35 211.15 217.1 211.2 218.9 213.5 219.15 215.7 218.9 215.85 217.1 M220.9 221.95 L220.25 225.95 204.65 224.0 204.95 219.6 220.9 221.95 M190.4 217.3 Q190.35 216.05 188.55 215.85 186.85 216.05 186.75 217.3 186.85 218.5 188.55 218.7 190.35 218.5 190.4 217.3 M192.9 219.85 L163.0 223.1 163.0 221.2 Q163.6 220.8 163.65 220.05 163.6 219.3 162.95 218.95 L162.95 217.05 192.25 214.4 192.9 219.85 M167.65 218.35 Q165.9 218.5 165.8 219.75 165.9 221.0 167.65 221.15 169.4 221.0 169.5 219.75 169.4 218.5 167.65 218.35 M178.45 216.95 Q176.7 217.1 176.65 218.35 176.7 219.6 178.45 219.75 180.2 219.6 180.3 218.35 180.2 217.1 178.45 216.95 M169.3 198.35 L187.55 198.6 169.0 197.4 169.3 198.35 M162.2 282.55 Q162.3 284.35 164.55 284.6 166.8 284.35 166.95 282.55 166.8 280.75 164.55 280.55 162.3 280.75 162.2 282.55 M172.1 282.65 Q174.35 282.4 174.5 280.6 174.35 278.8 172.1 278.6 169.85 278.8 169.75 280.6 169.85 282.4 172.1 282.65 M184.85 282.5 Q184.7 280.7 182.45 280.45 180.2 280.7 180.1 282.5 180.2 284.25 182.45 284.5 184.7 284.25 184.85 282.5" fill="#181e16" fill-rule="evenodd" stroke="none"/>
    <path d="M163.4 122.5 L158.15 122.65 155.55 119.25 161.2 111.6 166.65 119.0 163.4 122.5 M169.55 136.1 L160.45 151.25 155.2 140.0 Q153.55 136.3 153.6 135.9 153.85 135.9 158.2 123.45 L160.75 123.45 163.5 123.45 169.55 136.1 M161.0 119.7 Q163.4 119.45 163.45 117.8 163.4 116.15 161.0 115.95 158.55 116.15 158.45 117.8 158.6 119.45 161.0 119.7 M158.15 134.5 Q158.25 136.45 161.05 136.75 163.85 136.45 164.0 134.5 163.85 132.6 161.05 132.35 158.25 132.6 158.15 134.5" fill="#21301e" fill-rule="evenodd" stroke="none"/>
    <path d="M50.5 93.8 L53.85 93.45 53.45 90.2 Q52.6 88.75 52.45 87.1 L51.35 88.25 50.45 89.65 50.45 89.7 50.4 89.65 Q50.0 88.75 49.1 88.35 L49.05 88.7 49.1 88.75 Q48.95 91.35 48.3 93.85 L50.5 93.8 M43.3 123.15 Q45.4 107.1 47.75 96.5 L45.9 96.45 Q44.75 94.55 44.8 93.2 46.55 94.8 47.5 95.1 48.7 92.5 48.75 88.0 49.9 88.3 50.45 89.15 51.15 87.75 52.6 86.55 52.8 88.5 53.4 89.55 54.05 90.6 54.45 94.65 55.25 94.15 56.45 92.3 56.65 93.55 56.1 96.0 L54.5 96.3 59.0 123.1 58.45 123.35 54.15 96.3 48.15 96.55 47.9 97.6 Q46.8 102.65 45.85 108.9 L43.65 123.15 44.25 123.65 43.3 123.15 M45.25 94.55 L46.0 96.05 49.75 96.15 47.2 95.5 Q46.15 95.1 45.1 93.8 L45.1 94.05 45.25 94.55 M48.2 94.2 L48.15 94.35 48.4 94.4 Q48.75 94.7 48.6 95.05 48.3 95.6 47.9 95.15 L47.8 95.45 50.45 95.8 53.2 95.5 Q53.8 95.4 54.1 95.1 L54.05 94.9 Q53.6 95.1 53.45 94.45 53.85 93.75 54.0 94.0 L54.0 93.7 48.2 94.2 M49.55 95.3 L49.9 94.95 49.55 94.55 Q49.2 94.6 49.2 94.95 49.2 95.25 49.55 95.3 M48.2 95.3 L48.5 94.9 Q48.5 94.55 48.2 94.5 47.95 94.55 47.95 94.9 L48.2 95.3 M49.5 94.45 Q49.9 94.3 50.1 94.95 49.3 95.95 49.1 94.95 49.05 94.6 49.5 94.45 M53.95 94.85 L54.25 94.45 Q54.25 94.1 53.95 94.1 53.65 94.1 53.65 94.45 53.65 94.8 53.95 94.85 M51.05 94.4 Q52.0 94.85 51.05 95.45 50.55 95.4 50.5 94.9 50.55 94.45 51.05 94.4 M51.4 94.9 Q51.35 94.55 51.0 94.55 50.65 94.55 50.6 94.9 50.65 95.3 51.0 95.35 L51.4 94.9 M53.05 94.75 Q52.6 95.7 52.15 95.0 51.75 94.35 52.55 94.2 53.0 94.3 53.05 94.75 M52.55 95.15 L52.9 94.75 52.55 94.35 Q52.2 94.4 52.2 94.75 52.2 95.1 52.55 95.15 M51.1 96.15 L55.7 95.6 56.35 93.05 Q55.25 94.85 54.2 95.35 L51.1 96.15 M54.0 100.5 L54.1 100.45 54.3 100.15 54.75 100.55 54.75 101.05 54.15 101.4 51.4 102.75 54.25 102.95 51.6 103.05 54.0 104.55 52.55 104.0 Q51.65 103.6 51.3 102.95 L51.15 102.9 50.85 102.95 50.75 102.25 50.25 105.25 Q49.75 107.05 49.7 108.85 L49.75 109.95 Q49.85 110.7 50.2 110.75 51.15 110.7 51.75 110.2 L52.7 109.4 Q53.1 108.85 52.55 108.25 51.95 107.6 51.35 108.25 51.3 107.5 52.25 107.75 53.15 108.0 53.05 109.35 L52.9 109.5 54.8 114.25 54.85 114.15 57.05 122.3 Q57.3 123.5 57.0 124.15 L56.7 124.3 Q57.2 123.0 56.4 121.45 L52.85 115.75 Q51.7 114.3 50.35 113.95 49.05 114.75 47.65 117.35 L47.35 117.95 Q45.75 121.1 45.35 122.8 L45.35 124.25 45.3 124.25 Q45.05 123.05 45.5 120.75 46.0 117.65 46.9 114.4 L47.8 111.3 48.15 103.0 47.7 102.85 48.15 102.9 50.15 102.75 48.2 101.65 47.8 101.3 47.35 101.0 47.4 100.55 48.0 100.2 48.1 100.15 48.2 100.45 48.25 100.5 50.5 101.9 50.9 98.35 51.05 102.0 54.0 100.5 M47.7 116.8 Q48.9 114.4 50.35 113.3 53.15 115.0 54.7 117.85 56.15 120.15 57.05 122.85 56.3 119.05 54.8 115.55 L52.45 109.9 Q50.7 111.7 48.7 110.3 L47.75 112.85 Q46.2 117.45 45.4 122.3 46.0 120.3 47.35 117.4 L47.7 116.8" fill="#000000" fill-rule="evenodd" stroke="none"/>
    <path d="M44.25 123.65 L43.65 123.15 45.85 108.9 Q46.8 102.65 47.9 97.6 50.85 98.05 53.5 97.7 L54.0 100.5 51.05 102.0 50.9 98.35 50.5 101.9 48.25 100.5 48.4 98.3 48.0 100.2 47.4 100.55 47.35 101.0 47.8 101.3 46.1 110.8 Q45.1 116.8 44.5 123.75 L44.25 123.65 M54.15 101.4 L57.4 123.95 57.0 124.15 Q57.3 123.5 57.05 122.3 L54.85 114.15 54.8 114.25 52.9 109.5 53.05 109.35 Q53.15 108.0 52.25 107.75 51.3 107.5 51.35 108.25 51.95 107.6 52.55 108.25 53.1 108.85 52.7 109.4 L51.75 110.2 Q51.15 110.7 50.2 110.75 49.85 110.7 49.75 109.95 L49.7 108.85 Q49.75 107.05 50.25 105.25 L50.75 102.25 50.85 102.95 51.15 102.9 51.3 102.95 Q51.65 103.6 52.55 104.0 L54.0 104.55 51.6 103.05 54.25 102.95 51.4 102.75 54.15 101.4 M48.2 101.65 L50.15 102.75 48.15 102.9 48.2 101.65 M47.65 117.35 Q49.05 114.75 50.35 113.95 51.7 114.3 52.85 115.75 L56.4 121.45 Q57.2 123.0 56.7 124.3 L51.05 127.35 47.85 125.6 Q47.6 122.6 47.65 117.35 M47.75 112.85 L48.7 110.3 Q50.7 111.7 52.45 109.9 L54.8 115.55 Q56.3 119.05 57.05 122.85 56.15 120.15 54.7 117.85 53.15 115.0 50.35 113.3 48.9 114.4 47.7 116.8 L47.75 112.85 M32.1 197.85 L31.95 196.1 31.15 199.2 Q31.35 198.75 31.95 198.4 L34.65 200.0 36.4 198.75 36.8 200.0 32.4 204.55 26.6 198.0 28.5 194.15 33.85 193.0 36.8 195.55 36.25 198.1 34.8 198.75 32.1 197.85 M69.85 197.85 L67.2 198.75 65.7 198.1 65.15 195.55 68.1 193.0 73.5 194.15 75.35 198.0 69.6 204.55 65.15 200.0 65.6 198.75 67.3 200.0 70.0 198.4 70.8 199.2 70.0 196.1 69.85 197.85" fill="#b2b1cb" fill-rule="evenodd" stroke="none"/>
    <path d="M49.1 88.75 L49.05 88.7 49.1 88.35 Q50.0 88.75 50.4 89.65 L50.45 89.7 50.45 89.65 51.35 88.25 52.45 87.1 Q52.6 88.75 53.45 90.2 L53.85 93.45 50.5 93.8 Q51.25 92.7 51.15 90.9 51.05 90.0 50.35 90.25 L49.1 88.75 M45.25 94.55 L45.1 94.05 45.1 93.8 Q46.15 95.1 47.2 95.5 L49.75 96.15 46.0 96.05 45.25 94.55 M51.1 96.15 L54.2 95.35 Q55.25 94.85 56.35 93.05 L55.7 95.6 51.1 96.15" fill="#333333" fill-rule="evenodd" stroke="none"/>
    <path d="M47.9 97.6 L48.15 96.55 54.15 96.3 58.45 123.35 57.4 123.95 54.15 101.4 54.75 101.05 54.75 100.55 54.3 100.15 54.1 100.45 54.0 100.5 53.5 97.7 Q50.85 98.05 47.9 97.6" fill="#7173b3" fill-rule="evenodd" stroke="none"/>
    <path d="M48.25 100.5 L48.2 100.45 48.1 100.15 48.0 100.2 48.4 98.3 48.25 100.5 M47.8 101.3 L48.2 101.65 48.15 102.9 47.7 102.85 48.15 103.0 47.8 111.3 46.9 114.4 Q46.0 117.65 45.5 120.75 45.05 123.05 45.3 124.25 L44.5 123.75 Q45.1 116.8 46.1 110.8 L47.8 101.3 M45.35 124.25 L45.35 122.8 Q45.75 121.1 47.35 117.95 L47.65 117.35 Q47.6 122.6 47.85 125.6 L45.35 124.25 M47.7 116.8 L47.35 117.4 Q46.0 120.3 45.4 122.3 46.2 117.45 47.75 112.85 L47.7 116.8" fill="#d9dae6" fill-rule="evenodd" stroke="none"/>
    <path d="M48.2 94.2 L54.0 93.7 54.0 94.0 Q53.85 93.75 53.45 94.45 53.6 95.1 54.05 94.9 L54.1 95.1 Q53.8 95.4 53.2 95.5 L50.45 95.8 47.8 95.45 47.9 95.15 Q48.3 95.6 48.6 95.05 48.75 94.7 48.4 94.4 L48.15 94.35 48.2 94.2 M49.5 94.45 Q49.05 94.6 49.1 94.95 49.3 95.95 50.1 94.95 49.9 94.3 49.5 94.45 M51.05 94.4 Q50.55 94.45 50.5 94.9 50.55 95.4 51.05 95.45 52.0 94.85 51.05 94.4 M53.05 94.75 Q53.0 94.3 52.55 94.2 51.75 94.35 52.15 95.0 52.6 95.7 53.05 94.75" fill="#989898" fill-rule="evenodd" stroke="none"/>
    <path d="M43.3 123.15 L44.25 123.65 44.5 123.75 45.3 124.25 45.35 124.25 47.85 125.6 51.05 127.35 56.7 124.3 57.0 124.15 57.4 123.95 58.45 123.35 59.0 123.1 59.65 122.7 61.05 126.7 60.75 127.0 78.7 141.45 78.25 142.35 80.5 161.3 76.3 191.15 75.3 191.0 74.9 194.2 74.2 194.05 76.15 198.1 69.45 205.8 64.15 200.2 65.1 198.4 64.7 194.75 67.2 192.55 67.15 189.65 66.25 189.45 67.75 178.15 65.95 168.4 62.15 173.0 63.0 190.4 62.6 190.5 59.95 228.65 62.75 230.3 62.45 233.65 50.55 233.4 39.55 233.65 39.25 230.3 42.05 228.6 39.25 190.55 38.75 190.35 39.8 173.0 36.05 168.4 34.2 178.15 35.75 189.45 34.85 189.65 34.8 192.5 37.3 194.75 36.85 198.35 37.85 200.15 32.5 205.75 25.85 198.1 27.8 194.05 27.1 194.2 26.65 191.0 25.65 191.1 21.5 161.25 23.7 142.3 23.3 141.4 41.6 127.15 41.2 126.8 42.6 122.75 43.3 123.15 M54.2 132.9 L53.0 134.95 54.75 141.75 59.45 128.15 54.15 132.8 54.2 132.9 M52.3 134.8 L53.4 132.85 51.05 128.65 48.85 132.9 50.0 134.85 52.3 134.8 M52.0 132.4 Q51.95 133.35 51.0 133.45 50.05 133.35 50.0 132.4 50.05 131.45 51.0 131.35 51.95 131.45 52.0 132.4 M51.65 132.4 Q51.6 131.75 51.0 131.65 50.4 131.75 50.35 132.4 50.4 133.1 51.0 133.15 51.6 133.1 51.65 132.4 M54.2 131.8 L60.25 126.5 59.3 123.7 51.95 127.65 54.2 131.8 M42.0 126.6 L48.05 131.9 50.3 127.7 43.0 123.75 42.0 126.6 M42.3 127.75 L38.95 129.45 39.4 135.75 44.5 137.2 42.7 141.6 50.15 150.4 44.25 129.45 42.3 127.75 M49.35 135.1 L48.05 132.95 48.1 132.85 45.2 130.3 47.95 140.0 49.35 135.1 M43.05 137.35 Q43.7 137.45 43.7 138.05 43.7 138.7 43.05 138.8 L42.45 138.4 39.75 141.6 51.4 155.5 51.1 152.2 50.0 150.9 50.0 150.85 42.35 141.6 44.2 137.3 39.15 136.0 38.55 129.75 36.8 131.15 37.2 138.25 42.4 138.25 42.4 138.05 Q42.4 137.45 43.05 137.35 M41.5 141.35 Q41.1 141.4 41.05 141.85 41.1 142.35 41.5 142.35 41.9 142.35 41.95 141.85 41.9 141.4 41.5 141.35 M43.05 138.55 Q43.45 138.55 43.5 138.05 43.45 137.6 43.05 137.55 42.65 137.6 42.6 138.05 42.65 138.55 43.05 138.55 M42.2 141.85 Q42.15 142.5 41.5 142.6 40.85 142.5 40.85 141.85 40.85 141.2 41.5 141.15 42.15 141.2 42.2 141.85 M45.15 145.75 Q45.8 145.8 45.8 146.45 45.8 147.1 45.15 147.2 44.5 147.1 44.5 146.45 44.5 145.8 45.15 145.75 M45.15 145.95 Q44.75 146.0 44.7 146.45 44.75 146.9 45.15 146.95 45.55 146.9 45.6 146.45 45.55 146.0 45.15 145.95 M58.35 137.8 Q58.4 137.2 59.0 137.1 59.65 137.2 59.7 137.8 L59.6 138.25 64.75 138.25 65.15 131.15 63.4 129.75 62.8 136.0 57.8 137.3 59.6 141.6 51.7 151.5 51.6 153.7 51.65 153.8 62.2 141.6 59.5 138.35 59.0 138.55 Q58.4 138.45 58.35 137.8 M59.0 138.3 Q59.45 138.3 59.45 137.8 59.45 137.35 59.0 137.3 58.65 137.35 58.6 137.8 58.65 138.3 59.0 138.3 M60.05 141.85 Q60.1 142.35 60.45 142.35 60.9 142.35 60.9 141.85 60.9 141.4 60.45 141.35 60.1 141.4 60.05 141.85 M59.25 141.6 L57.45 137.2 62.55 135.75 63.0 129.45 60.45 127.75 52.25 150.4 59.25 141.6 M59.8 141.85 Q59.85 141.2 60.45 141.15 61.1 141.2 61.15 141.85 61.1 142.5 60.45 142.6 59.85 142.5 59.8 141.85 M52.0 141.3 Q51.95 140.5 51.25 140.4 50.55 140.5 50.45 141.3 50.55 142.05 51.25 142.15 51.95 142.05 52.0 141.3 M51.25 140.05 Q52.35 140.2 52.45 141.3 52.35 142.35 51.25 142.55 50.15 142.35 50.1 141.3 50.15 140.2 51.25 140.05 M57.1 145.7 Q56.7 145.75 56.65 146.2 56.7 146.65 57.1 146.7 57.5 146.65 57.55 146.2 57.5 145.75 57.1 145.7 M57.1 145.45 Q57.75 145.55 57.75 146.2 57.75 146.85 57.1 146.9 56.45 146.85 56.45 146.2 56.45 145.55 57.1 145.45 M54.35 142.6 L52.35 135.35 50.0 135.35 48.35 141.9 51.0 151.1 54.35 142.6 M63.85 132.0 Q63.9 132.5 64.3 132.5 64.7 132.5 64.7 132.0 64.7 131.55 64.3 131.5 63.9 131.55 63.85 132.0 M64.15 137.15 Q64.15 137.75 63.5 137.85 62.85 137.75 62.8 137.15 62.85 136.5 63.5 136.4 64.15 136.5 64.15 137.15 M64.3 132.75 Q63.65 132.65 63.6 132.0 63.65 131.35 64.3 131.25 64.95 131.35 64.95 132.0 64.95 132.65 64.3 132.75 M63.5 136.6 Q63.1 136.65 63.05 137.15 63.1 137.6 63.5 137.65 63.9 137.6 63.9 137.15 63.9 136.65 63.5 136.6 M65.4 138.85 L60.75 138.85 62.75 141.9 51.85 154.4 52.05 187.45 52.1 188.05 62.05 186.5 61.3 172.7 75.45 139.8 65.55 131.85 65.4 138.85 M76.05 140.05 Q75.2 141.2 73.15 146.15 L67.2 160.75 61.9 172.3 68.6 163.5 69.15 162.25 68.3 162.65 Q67.25 162.45 67.2 161.25 67.25 160.05 68.3 159.85 69.4 160.05 69.45 161.25 L69.45 161.5 78.2 141.45 76.05 140.05 M73.55 147.5 Q72.85 147.6 72.75 148.45 72.85 149.35 73.55 149.45 74.2 149.35 74.25 148.45 74.2 147.6 73.55 147.5 M77.0 142.4 Q76.9 141.55 76.25 141.45 75.55 141.55 75.5 142.4 75.55 143.3 76.25 143.4 76.9 143.3 77.0 142.4 M77.35 142.45 Q77.3 143.65 76.2 143.85 75.15 143.65 75.1 142.45 75.15 141.2 76.2 141.05 77.3 141.2 77.35 142.45 M37.7 132.5 Q38.1 132.5 38.15 132.0 38.1 131.55 37.7 131.5 37.3 131.55 37.25 132.0 37.3 132.5 37.7 132.5 M37.7 131.25 Q38.35 131.35 38.35 132.0 38.35 132.65 37.7 132.75 37.05 132.65 37.05 132.0 37.05 131.35 37.7 131.25 M25.75 143.4 Q26.45 143.3 26.5 142.4 26.45 141.55 25.75 141.45 25.1 141.55 25.0 142.4 25.1 143.3 25.75 143.4 M25.75 143.85 Q24.65 143.65 24.6 142.45 24.65 141.2 25.75 141.05 26.85 141.2 26.9 142.45 26.85 143.65 25.75 143.85 M28.5 147.5 Q27.8 147.6 27.7 148.45 27.8 149.35 28.5 149.45 29.15 149.35 29.2 148.45 29.15 147.6 28.5 147.5 M25.95 140.05 L23.8 141.45 32.55 161.45 32.5 161.25 Q32.55 160.05 33.65 159.85 34.75 160.05 34.8 161.25 34.75 162.45 33.65 162.65 L32.9 162.3 33.4 163.5 40.1 172.3 34.8 160.75 28.85 146.15 Q26.8 141.2 25.95 140.05 M38.05 137.15 Q38.1 137.6 38.5 137.65 38.9 137.6 38.95 137.15 38.9 136.65 38.5 136.6 38.1 136.65 38.05 137.15 M37.85 137.15 Q37.85 136.5 38.5 136.4 39.15 136.5 39.15 137.15 39.15 137.75 38.5 137.85 37.85 137.75 37.85 137.15 M26.5 139.8 L40.65 172.7 39.95 186.5 49.15 187.65 49.6 154.3 39.25 141.9 41.2 138.85 36.6 138.85 36.45 131.85 26.5 139.8 M30.65 155.5 Q29.6 155.3 29.55 154.1 29.6 152.85 30.65 152.65 31.75 152.85 31.8 154.1 31.75 155.3 30.65 155.5 M30.7 154.95 Q31.35 154.9 31.4 154.0 31.35 153.1 30.7 153.0 30.0 153.1 29.95 154.0 30.0 154.9 30.7 154.95 M27.35 148.5 Q27.4 147.25 28.45 147.1 29.55 147.25 29.6 148.5 29.55 149.7 28.45 149.9 27.4 149.7 27.35 148.5 M33.65 162.15 Q34.35 162.05 34.4 161.15 34.35 160.3 33.65 160.2 33.0 160.3 32.9 161.15 33.0 162.05 33.65 162.15 M32.55 163.4 L24.15 143.75 22.05 161.45 25.7 187.5 34.8 186.0 33.7 178.65 33.7 178.55 35.9 167.85 32.55 163.4 M26.55 189.0 Q26.6 189.75 27.2 189.85 27.75 189.8 27.8 189.0 27.75 188.3 27.2 188.2 26.6 188.3 26.55 189.0 M26.25 189.1 Q26.3 188.05 27.2 187.9 28.1 188.05 28.15 189.1 28.1 190.1 27.2 190.25 26.3 190.1 26.25 189.1 M26.2 190.65 L35.05 189.1 34.7 186.3 25.85 188.05 26.2 190.65 M27.5 193.5 L34.35 192.4 34.2 189.85 27.25 191.2 27.5 193.5 M39.55 190.05 L51.55 192.1 51.5 169.55 Q51.4 170.1 50.8 170.2 50.1 170.1 50.05 169.4 50.1 168.65 50.8 168.6 51.4 168.65 51.5 169.2 L51.5 164.6 50.8 165.1 Q50.1 165.0 50.1 164.3 50.1 163.55 50.8 163.5 L51.5 164.0 51.5 159.5 Q51.3 159.8 50.9 159.8 50.2 159.75 50.15 159.0 50.2 158.3 50.9 158.2 L51.5 158.55 51.5 156.2 50.15 154.45 49.6 188.35 39.8 186.95 39.55 190.05 M33.1 187.9 Q33.15 188.65 33.75 188.7 34.3 188.65 34.35 187.9 34.3 187.15 33.75 187.1 33.15 187.15 33.1 187.9 M34.7 188.0 Q34.65 189.0 33.75 189.15 32.85 189.0 32.8 188.0 32.85 186.95 33.75 186.8 34.65 186.95 34.7 188.0 M31.55 188.55 Q31.5 189.55 30.6 189.7 29.7 189.55 29.65 188.55 29.7 187.5 30.6 187.35 31.5 187.5 31.55 188.55 M31.25 188.45 Q31.2 187.75 30.6 187.65 30.05 187.75 30.0 188.45 30.05 189.2 30.6 189.3 31.2 189.25 31.25 188.45 M32.1 197.85 L34.8 198.75 36.25 198.1 36.8 195.55 33.85 193.0 28.5 194.15 26.6 198.0 32.4 204.55 36.8 200.0 36.4 198.75 34.65 200.0 31.95 198.4 Q31.35 198.75 31.15 199.2 L31.95 196.1 32.1 197.85 M71.35 152.6 Q72.45 152.75 72.5 154.0 72.45 155.2 71.35 155.4 70.3 155.2 70.25 154.0 70.3 152.75 71.35 152.6 M73.5 149.9 Q72.4 149.7 72.4 148.5 72.4 147.25 73.5 147.1 74.6 147.25 74.65 148.5 74.6 149.7 73.5 149.9 M71.35 152.95 Q70.7 153.05 70.65 153.9 70.7 154.8 71.35 154.9 72.05 154.8 72.15 153.9 72.05 153.05 71.35 152.95 M67.3 152.5 L67.0 153.45 58.55 151.7 63.0 148.1 63.4 148.75 64.2 148.1 66.2 152.35 67.3 152.5 M64.15 148.7 L64.15 148.65 64.05 148.75 63.5 149.2 65.25 152.25 65.65 152.4 65.65 152.35 64.95 150.5 64.2 148.65 64.15 148.7 M63.25 149.45 L62.85 148.75 59.25 151.55 65.0 152.25 63.25 149.45 M68.35 162.15 Q69.0 162.05 69.05 161.15 69.0 160.3 68.35 160.2 67.65 160.3 67.55 161.15 67.65 162.05 68.35 162.15 M53.9 150.75 Q53.9 151.4 53.25 151.5 52.6 151.4 52.55 150.75 52.6 150.1 53.25 150.05 53.9 150.1 53.9 150.75 M69.45 163.4 L66.1 167.85 68.3 178.55 68.3 178.65 67.2 186.0 76.3 187.5 79.9 161.45 77.85 143.75 69.45 163.4 M53.65 150.75 Q53.65 150.3 53.25 150.25 52.85 150.3 52.8 150.75 52.85 151.25 53.25 151.25 53.65 151.25 53.65 150.75 M48.55 150.95 Q48.6 151.4 49.0 151.45 49.4 151.4 49.45 150.95 49.4 150.45 49.0 150.4 48.6 150.45 48.55 150.95 M51.35 159.0 Q51.3 158.5 50.9 158.45 50.45 158.5 50.4 159.0 50.45 159.55 50.9 159.6 51.3 159.55 51.35 159.0 M49.0 150.2 Q49.65 150.3 49.65 150.95 49.65 151.6 49.0 151.7 48.35 151.6 48.35 150.95 48.35 150.3 49.0 150.2 M50.75 175.15 Q51.2 175.1 51.25 174.55 51.2 174.05 50.75 174.0 50.3 174.05 50.25 174.55 50.3 175.1 50.75 175.15 M51.3 169.4 Q51.25 168.9 50.8 168.85 50.35 168.9 50.3 169.4 50.35 169.9 50.8 169.95 51.25 169.9 51.3 169.4 M50.8 164.85 Q51.25 164.8 51.3 164.25 51.25 163.75 50.8 163.7 50.4 163.75 50.35 164.25 50.4 164.8 50.8 164.85 M50.75 175.4 Q50.05 175.3 50.0 174.6 50.05 173.85 50.75 173.8 51.45 173.85 51.5 174.6 51.45 175.3 50.75 175.4 M54.75 177.25 L60.15 177.95 54.9 177.8 54.75 177.25 M51.5 184.95 Q51.45 185.65 50.75 185.75 50.05 185.65 50.0 184.95 50.05 184.25 50.75 184.15 51.45 184.25 51.5 184.95 M51.25 184.95 Q51.2 184.45 50.75 184.4 50.3 184.45 50.25 184.95 50.3 185.5 50.75 185.55 51.2 185.5 51.25 184.95 M50.75 180.55 Q50.05 180.45 50.0 179.75 50.05 179.05 50.75 178.95 51.45 179.05 51.5 179.75 51.45 180.45 50.75 180.55 M50.75 180.35 Q51.2 180.3 51.25 179.75 51.2 179.25 50.75 179.2 50.3 179.25 50.25 179.75 50.3 180.3 50.75 180.35 M47.1 177.8 L41.9 177.95 47.25 177.25 47.1 177.8 M47.25 190.45 Q46.55 190.35 46.5 189.65 46.55 188.95 47.25 188.85 47.95 188.95 48.0 189.65 47.95 190.35 47.25 190.45 M41.55 188.45 Q41.5 187.95 41.05 187.9 40.65 187.95 40.6 188.45 40.65 189.0 41.05 189.0 41.5 189.0 41.55 188.45 M47.25 190.2 Q47.7 190.15 47.75 189.6 47.7 189.1 47.25 189.05 46.8 189.1 46.75 189.6 46.8 190.15 47.25 190.2 M41.8 188.45 Q41.8 189.15 41.05 189.25 40.35 189.15 40.35 188.45 40.35 187.75 41.05 187.65 41.8 187.75 41.8 188.45 M43.45 189.0 Q43.5 188.3 44.2 188.2 44.9 188.3 44.95 189.0 44.9 189.7 44.2 189.8 43.5 189.7 43.45 189.0 M43.7 189.0 Q43.75 189.55 44.2 189.55 44.65 189.55 44.7 189.0 44.65 188.5 44.2 188.45 43.75 188.5 43.7 189.0 M57.9 188.25 Q58.6 188.35 58.65 189.05 58.65 189.8 57.9 189.85 57.2 189.8 57.2 189.05 57.2 188.35 57.9 188.25 M57.45 189.05 Q57.5 189.6 57.9 189.65 58.35 189.6 58.4 189.05 58.35 188.55 57.9 188.5 57.5 188.55 57.45 189.05 M52.1 189.5 Q52.35 189.65 52.4 190.15 L52.1 190.75 52.1 191.85 62.45 190.0 62.15 186.95 52.1 188.45 52.1 189.5 M52.1 189.9 L52.1 190.35 52.15 190.15 52.1 189.9 M51.25 190.15 Q51.2 189.6 50.75 189.55 50.35 189.6 50.3 190.15 50.35 190.65 50.75 190.7 51.2 190.65 51.25 190.15 M51.5 190.15 Q51.45 190.85 50.75 190.95 50.05 190.85 50.05 190.15 50.05 189.4 50.75 189.3 51.45 189.4 51.5 190.15 M55.1 190.45 Q54.4 190.35 54.35 189.65 54.4 188.95 55.1 188.85 55.8 188.95 55.85 189.65 55.8 190.35 55.1 190.45 M55.1 190.2 Q55.55 190.15 55.6 189.6 55.55 189.1 55.1 189.05 54.65 189.1 54.6 189.6 54.65 190.15 55.1 190.2 M67.3 188.0 Q67.35 186.95 68.25 186.8 69.15 186.95 69.2 188.0 69.15 189.0 68.25 189.15 67.35 189.0 67.3 188.0 M67.6 187.9 Q67.65 188.65 68.25 188.7 68.8 188.65 68.85 187.9 68.8 187.15 68.25 187.1 67.65 187.15 67.6 187.9 M60.9 187.8 Q61.6 187.9 61.65 188.6 61.6 189.3 60.9 189.4 60.2 189.3 60.15 188.6 60.2 187.9 60.9 187.8 M67.3 186.3 L66.95 189.1 75.8 190.65 76.15 188.05 67.3 186.3 M60.9 188.05 Q60.45 188.1 60.45 188.6 60.45 189.15 60.9 189.2 61.35 189.15 61.4 188.6 61.35 188.1 60.9 188.05 M69.85 197.85 L70.0 196.1 70.8 199.2 70.0 198.4 67.3 200.0 65.6 198.75 65.15 200.0 69.6 204.55 75.35 198.0 73.5 194.15 68.1 193.0 65.15 195.55 65.7 198.1 67.2 198.75 69.85 197.85 M71.35 187.35 Q72.25 187.5 72.3 188.55 72.25 189.55 71.35 189.7 70.45 189.55 70.4 188.55 70.45 187.5 71.35 187.35 M67.75 189.85 L67.6 192.4 74.45 193.5 74.75 191.2 67.75 189.85 M71.35 187.65 Q70.8 187.75 70.75 188.45 70.8 189.25 71.35 189.3 71.95 189.2 72.0 188.45 71.95 187.75 71.35 187.65 M74.8 189.85 Q75.35 189.75 75.4 189.0 75.35 188.3 74.8 188.2 74.2 188.3 74.15 189.0 74.2 189.8 74.8 189.85 M74.8 190.25 Q73.9 190.1 73.85 189.1 73.9 188.05 74.8 187.9 75.7 188.05 75.75 189.1 75.7 190.1 74.8 190.25 M51.4 192.95 L51.3 223.6 Q55.45 222.9 59.55 223.75 L62.3 190.85 51.4 192.95 M50.55 192.95 L39.65 190.85 42.5 223.75 Q46.5 222.9 50.7 223.6 L50.55 192.95 M57.4 225.7 Q57.45 226.45 58.05 226.5 58.6 226.45 58.65 225.7 58.6 224.95 58.05 224.9 57.45 224.95 57.4 225.7 M57.1 225.75 Q57.15 224.75 58.05 224.6 58.95 224.75 59.0 225.75 58.95 226.75 58.05 226.9 57.15 226.75 57.1 225.75 M59.35 224.3 L55.6 223.7 51.3 224.25 51.15 229.65 54.8 226.1 Q54.05 225.9 54.0 225.0 54.05 223.95 54.95 223.8 55.85 223.95 55.9 225.0 55.85 225.9 55.15 226.1 L59.35 228.45 59.35 224.3 M54.95 225.75 Q55.55 225.65 55.6 224.9 55.55 224.2 54.95 224.1 54.4 224.2 54.35 224.9 54.4 225.65 54.95 225.75 M52.65 227.25 Q51.75 227.1 51.7 226.1 51.75 225.05 52.65 224.95 53.55 225.05 53.6 226.1 53.55 227.1 52.65 227.25 M52.65 226.85 Q53.2 226.75 53.25 226.05 53.2 225.3 52.65 225.25 52.05 225.3 52.0 226.05 52.05 226.8 52.65 226.85 M51.25 230.4 L51.25 231.35 62.15 231.7 62.3 230.6 55.0 226.8 51.25 230.4 M51.2 232.55 L62.15 232.85 62.25 232.0 51.2 231.75 51.2 232.55 M46.75 225.75 Q47.35 225.65 47.35 224.9 47.35 224.2 46.75 224.1 46.2 224.2 46.15 224.9 46.2 225.65 46.75 225.75 M45.8 225.0 Q45.85 223.95 46.75 223.8 47.65 223.95 47.7 225.0 47.65 225.75 47.1 226.0 L50.55 229.7 50.45 224.2 46.3 223.7 42.6 224.3 42.6 228.45 46.9 226.1 46.75 226.15 Q45.85 226.0 45.8 225.0 M49.05 227.25 Q48.15 227.1 48.1 226.1 48.15 225.05 49.05 224.95 49.95 225.05 50.0 226.1 49.95 227.1 49.05 227.25 M49.05 226.85 Q49.6 226.8 49.65 226.05 49.6 225.3 49.05 225.25 48.45 225.3 48.45 226.05 48.45 226.75 49.05 226.85 M44.6 225.75 Q44.55 226.75 43.65 226.9 42.75 226.75 42.75 225.75 42.75 224.75 43.65 224.6 44.55 224.75 44.6 225.75 M43.65 224.9 Q43.1 224.95 43.05 225.7 43.1 226.45 43.65 226.5 44.25 226.45 44.3 225.7 44.25 224.95 43.65 224.9 M50.45 232.5 L50.45 231.65 39.9 232.1 39.9 232.85 50.45 232.5 M50.5 230.35 L47.0 226.8 39.65 230.6 39.8 231.7 50.5 231.25 50.5 230.35" fill="#291214" fill-rule="evenodd" stroke="none"/>
    <path d="M49.1 88.75 L50.35 90.25 Q51.05 90.0 51.15 90.9 51.25 92.7 50.5 93.8 L48.3 93.85 Q48.95 91.35 49.1 88.75" fill="#666666" fill-rule="evenodd" stroke="none"/>
    <path d="M48.2 95.3 L47.95 94.9 Q47.95 94.55 48.2 94.5 48.5 94.55 48.5 94.9 L48.2 95.3 M49.55 95.3 Q49.2 95.25 49.2 94.95 49.2 94.6 49.55 94.55 L49.9 94.95 49.55 95.3 M53.95 94.85 Q53.65 94.8 53.65 94.45 53.65 94.1 53.95 94.1 54.25 94.1 54.25 94.45 L53.95 94.85 M51.4 94.9 L51.0 95.35 Q50.65 95.3 50.6 94.9 50.65 94.55 51.0 94.55 51.35 94.55 51.4 94.9 M52.55 95.15 Q52.2 95.1 52.2 94.75 52.2 94.4 52.55 94.35 L52.9 94.75 52.55 95.15" fill="#cbcbcb" fill-rule="evenodd" stroke="none"/>
    <path d="M54.2 132.9 L54.15 132.8 59.45 128.15 54.75 141.75 53.0 134.95 54.2 132.9 M51.65 132.4 Q51.6 133.1 51.0 133.15 50.4 133.1 50.35 132.4 50.4 131.75 51.0 131.65 51.6 131.75 51.65 132.4 M54.2 131.8 L51.95 127.65 59.3 123.7 60.25 126.5 54.2 131.8 M42.0 126.6 L43.0 123.75 50.3 127.7 48.05 131.9 42.0 126.6 M49.35 135.1 L47.95 140.0 45.2 130.3 48.1 132.85 48.05 132.95 49.35 135.1 M43.05 138.55 Q42.65 138.55 42.6 138.05 42.65 137.6 43.05 137.55 43.45 137.6 43.5 138.05 43.45 138.55 43.05 138.55 M41.5 141.35 Q41.9 141.4 41.95 141.85 41.9 142.35 41.5 142.35 41.1 142.35 41.05 141.85 41.1 141.4 41.5 141.35 M45.15 145.95 Q45.55 146.0 45.6 146.45 45.55 146.9 45.15 146.95 44.75 146.9 44.7 146.45 44.75 146.0 45.15 145.95 M60.05 141.85 Q60.1 141.4 60.45 141.35 60.9 141.4 60.9 141.85 60.9 142.35 60.45 142.35 60.1 142.35 60.05 141.85 M59.0 138.3 Q58.65 138.3 58.6 137.8 58.65 137.35 59.0 137.3 59.45 137.35 59.45 137.8 59.45 138.3 59.0 138.3 M52.0 141.3 Q51.95 142.05 51.25 142.15 50.55 142.05 50.45 141.3 50.55 140.5 51.25 140.4 51.95 140.5 52.0 141.3 M57.1 145.7 Q57.5 145.75 57.55 146.2 57.5 146.65 57.1 146.7 56.7 146.65 56.65 146.2 56.7 145.75 57.1 145.7 M63.85 132.0 Q63.9 131.55 64.3 131.5 64.7 131.55 64.7 132.0 64.7 132.5 64.3 132.5 63.9 132.5 63.85 132.0 M63.5 136.6 Q63.9 136.65 63.9 137.15 63.9 137.6 63.5 137.65 63.1 137.6 63.05 137.15 63.1 136.65 63.5 136.6 M77.0 142.4 Q76.9 143.3 76.25 143.4 75.55 143.3 75.5 142.4 75.55 141.55 76.25 141.45 76.9 141.55 77.0 142.4 M73.55 147.5 Q74.2 147.6 74.25 148.45 74.2 149.35 73.55 149.45 72.85 149.35 72.75 148.45 72.85 147.6 73.55 147.5 M37.7 132.5 Q37.3 132.5 37.25 132.0 37.3 131.55 37.7 131.5 38.1 131.55 38.15 132.0 38.1 132.5 37.7 132.5 M25.75 143.4 Q25.1 143.3 25.0 142.4 25.1 141.55 25.75 141.45 26.45 141.55 26.5 142.4 26.45 143.3 25.75 143.4 M28.5 147.5 Q29.15 147.6 29.2 148.45 29.15 149.35 28.5 149.45 27.8 149.35 27.7 148.45 27.8 147.6 28.5 147.5 M38.05 137.15 Q38.1 136.65 38.5 136.6 38.9 136.65 38.95 137.15 38.9 137.6 38.5 137.65 38.1 137.6 38.05 137.15 M30.7 154.95 Q30.0 154.9 29.95 154.0 30.0 153.1 30.7 153.0 31.35 153.1 31.4 154.0 31.35 154.9 30.7 154.95 M33.65 162.15 Q33.0 162.05 32.9 161.15 33.0 160.3 33.65 160.2 34.35 160.3 34.4 161.15 34.35 162.05 33.65 162.15 M26.55 189.0 Q26.6 188.3 27.2 188.2 27.75 188.3 27.8 189.0 27.75 189.8 27.2 189.85 26.6 189.75 26.55 189.0 M33.1 187.9 Q33.15 187.15 33.75 187.1 34.3 187.15 34.35 187.9 34.3 188.65 33.75 188.7 33.15 188.65 33.1 187.9 M31.25 188.45 Q31.2 189.25 30.6 189.3 30.05 189.2 30.0 188.45 30.05 187.75 30.6 187.65 31.2 187.75 31.25 188.45 M71.35 152.95 Q72.05 153.05 72.15 153.9 72.05 154.8 71.35 154.9 70.7 154.8 70.65 153.9 70.7 153.05 71.35 152.95 M64.95 150.5 L65.65 152.35 65.65 152.4 65.25 152.25 63.5 149.2 64.05 148.75 64.15 148.65 64.15 148.7 64.95 150.5 M63.25 149.45 L62.85 148.8 62.85 148.75 63.25 149.45 M68.35 162.15 Q67.65 162.05 67.55 161.15 67.65 160.3 68.35 160.2 69.0 160.3 69.05 161.15 69.0 162.05 68.35 162.15 M53.65 150.75 Q53.65 151.25 53.25 151.25 52.85 151.25 52.8 150.75 52.85 150.3 53.25 150.25 53.65 150.3 53.65 150.75 M51.35 159.0 Q51.3 159.55 50.9 159.6 50.45 159.55 50.4 159.0 50.45 158.5 50.9 158.45 51.3 158.5 51.35 159.0 M48.55 150.95 Q48.6 150.45 49.0 150.4 49.4 150.45 49.45 150.95 49.4 151.4 49.0 151.45 48.6 151.4 48.55 150.95 M50.8 164.85 Q50.4 164.8 50.35 164.25 50.4 163.75 50.8 163.7 51.25 163.75 51.3 164.25 51.25 164.8 50.8 164.85 M51.3 169.4 Q51.25 169.9 50.8 169.95 50.35 169.9 50.3 169.4 50.35 168.9 50.8 168.85 51.25 168.9 51.3 169.4 M50.75 175.15 Q50.3 175.1 50.25 174.55 50.3 174.05 50.75 174.0 51.2 174.05 51.25 174.55 51.2 175.1 50.75 175.15 M51.25 184.95 Q51.2 185.5 50.75 185.55 50.3 185.5 50.25 184.95 50.3 184.45 50.75 184.4 51.2 184.45 51.25 184.95 M50.75 180.35 Q50.3 180.3 50.25 179.75 50.3 179.25 50.75 179.2 51.2 179.25 51.25 179.75 51.2 180.3 50.75 180.35 M47.25 190.2 Q46.8 190.15 46.75 189.6 46.8 189.1 47.25 189.05 47.7 189.1 47.75 189.6 47.7 190.15 47.25 190.2 M41.55 188.45 Q41.5 189.0 41.05 189.0 40.65 189.0 40.6 188.45 40.65 187.95 41.05 187.9 41.5 187.95 41.55 188.45 M43.7 189.0 Q43.75 188.5 44.2 188.45 44.65 188.5 44.7 189.0 44.65 189.55 44.2 189.55 43.75 189.55 43.7 189.0 M57.45 189.05 Q57.5 188.55 57.9 188.5 58.35 188.55 58.4 189.05 58.35 189.6 57.9 189.65 57.5 189.6 57.45 189.05 M52.1 189.9 L52.15 190.15 52.1 190.35 52.1 189.9 M51.25 190.15 Q51.2 190.65 50.75 190.7 50.35 190.65 50.3 190.15 50.35 189.6 50.75 189.55 51.2 189.6 51.25 190.15 M55.1 190.2 Q54.65 190.15 54.6 189.6 54.65 189.1 55.1 189.05 55.55 189.1 55.6 189.6 55.55 190.15 55.1 190.2 M67.6 187.9 Q67.65 187.15 68.25 187.1 68.8 187.15 68.85 187.9 68.8 188.65 68.25 188.7 67.65 188.65 67.6 187.9 M60.9 188.05 Q61.35 188.1 61.4 188.6 61.35 189.15 60.9 189.2 60.45 189.15 60.45 188.6 60.45 188.1 60.9 188.05 M74.8 189.85 Q74.2 189.8 74.15 189.0 74.2 188.3 74.8 188.2 75.35 188.3 75.4 189.0 75.35 189.75 74.8 189.85 M71.35 187.65 Q71.95 187.75 72.0 188.45 71.95 189.2 71.35 189.3 70.8 189.25 70.75 188.45 70.8 187.75 71.35 187.65 M57.4 225.7 Q57.45 224.95 58.05 224.9 58.6 224.95 58.65 225.7 58.6 226.45 58.05 226.5 57.45 226.45 57.4 225.7 M54.95 225.75 Q54.4 225.65 54.35 224.9 54.4 224.2 54.95 224.1 55.55 224.2 55.6 224.9 55.55 225.65 54.95 225.75 M52.65 226.85 Q52.05 226.8 52.0 226.05 52.05 225.3 52.65 225.25 53.2 225.3 53.25 226.05 53.2 226.75 52.65 226.85 M46.75 225.75 Q46.2 225.65 46.15 224.9 46.2 224.2 46.75 224.1 47.35 224.2 47.35 224.9 47.35 225.65 46.75 225.75 M49.05 226.85 Q48.45 226.75 48.45 226.05 48.45 225.3 49.05 225.25 49.6 225.3 49.65 226.05 49.6 226.8 49.05 226.85 M43.65 224.9 Q44.25 224.95 44.3 225.7 44.25 226.45 43.65 226.5 43.1 226.45 43.05 225.7 43.1 224.95 43.65 224.9" fill="#c25e86" fill-rule="evenodd" stroke="none"/>
    <path d="M42.3 127.75 L44.25 129.45 50.15 150.4 42.7 141.6 44.5 137.2 39.4 135.75 38.95 129.45 42.3 127.75 M43.05 137.35 Q42.4 137.45 42.4 138.05 L42.4 138.25 37.2 138.25 36.8 131.15 38.55 129.75 39.15 136.0 44.2 137.3 42.35 141.6 50.0 150.85 50.0 150.9 51.1 152.2 51.4 155.5 39.75 141.6 42.45 138.4 43.05 138.8 Q43.7 138.7 43.7 138.05 43.7 137.45 43.05 137.35 M45.15 145.75 Q44.5 145.8 44.5 146.45 44.5 147.1 45.15 147.2 45.8 147.1 45.8 146.45 45.8 145.8 45.15 145.75 M42.2 141.85 Q42.15 141.2 41.5 141.15 40.85 141.2 40.85 141.85 40.85 142.5 41.5 142.6 42.15 142.5 42.2 141.85 M58.35 137.8 Q58.4 138.45 59.0 138.55 L59.5 138.35 62.2 141.6 51.65 153.8 51.6 153.7 51.7 151.5 59.6 141.6 57.8 137.3 62.8 136.0 63.4 129.75 65.15 131.15 64.75 138.25 59.6 138.25 59.7 137.8 Q59.65 137.2 59.0 137.1 58.4 137.2 58.35 137.8 M59.8 141.85 Q59.85 142.5 60.45 142.6 61.1 142.5 61.15 141.85 61.1 141.2 60.45 141.15 59.85 141.2 59.8 141.85 M59.25 141.6 L52.25 150.4 60.45 127.75 63.0 129.45 62.55 135.75 57.45 137.2 59.25 141.6 M57.1 145.45 Q56.45 145.55 56.45 146.2 56.45 146.85 57.1 146.9 57.75 146.85 57.75 146.2 57.75 145.55 57.1 145.45 M64.3 132.75 Q64.95 132.65 64.95 132.0 64.95 131.35 64.3 131.25 63.65 131.35 63.6 132.0 63.65 132.65 64.3 132.75 M64.15 137.15 Q64.15 136.5 63.5 136.4 62.85 136.5 62.8 137.15 62.85 137.75 63.5 137.85 64.15 137.75 64.15 137.15 M65.4 138.85 L65.55 131.85 75.45 139.8 61.3 172.7 62.05 186.5 52.1 188.05 52.05 187.45 51.85 154.4 62.75 141.9 60.75 138.85 65.4 138.85 M76.05 140.05 L78.2 141.45 69.45 161.5 69.45 161.25 Q69.4 160.05 68.3 159.85 67.25 160.05 67.2 161.25 67.25 162.45 68.3 162.65 L69.15 162.25 68.6 163.5 61.9 172.3 67.2 160.75 73.15 146.15 Q75.2 141.2 76.05 140.05 M77.35 142.45 Q77.3 141.2 76.2 141.05 75.15 141.2 75.1 142.45 75.15 143.65 76.2 143.85 77.3 143.65 77.35 142.45 M37.7 131.25 Q37.05 131.35 37.05 132.0 37.05 132.65 37.7 132.75 38.35 132.65 38.35 132.0 38.35 131.35 37.7 131.25 M25.75 143.85 Q26.85 143.65 26.9 142.45 26.85 141.2 25.75 141.05 24.65 141.2 24.6 142.45 24.65 143.65 25.75 143.85 M25.95 140.05 Q26.8 141.2 28.85 146.15 L34.8 160.75 40.1 172.3 33.4 163.5 32.9 162.3 33.65 162.65 Q34.75 162.45 34.8 161.25 34.75 160.05 33.65 159.85 32.55 160.05 32.5 161.25 L32.55 161.45 23.8 141.45 25.95 140.05 M30.65 155.5 Q31.75 155.3 31.8 154.1 31.75 152.85 30.65 152.65 29.6 152.85 29.55 154.1 29.6 155.3 30.65 155.5 M26.5 139.8 L36.45 131.85 36.6 138.85 41.2 138.85 39.25 141.9 49.6 154.3 49.15 187.65 39.95 186.5 40.65 172.7 26.5 139.8 M37.85 137.15 Q37.85 137.75 38.5 137.85 39.15 137.75 39.15 137.15 39.15 136.5 38.5 136.4 37.85 136.5 37.85 137.15 M27.35 148.5 Q27.4 149.7 28.45 149.9 29.55 149.7 29.6 148.5 29.55 147.25 28.45 147.1 27.4 147.25 27.35 148.5 M32.55 163.4 L35.9 167.85 33.7 178.55 33.7 178.65 34.8 186.0 25.7 187.5 22.05 161.45 24.15 143.75 32.55 163.4 M39.55 190.05 L39.8 186.95 49.6 188.35 50.15 154.45 51.5 156.2 51.5 158.55 50.9 158.2 Q50.2 158.3 50.15 159.0 50.2 159.75 50.9 159.8 51.3 159.8 51.5 159.5 L51.5 164.0 50.8 163.5 Q50.1 163.55 50.1 164.3 50.1 165.0 50.8 165.1 L51.5 164.6 51.5 169.2 Q51.4 168.65 50.8 168.6 50.1 168.65 50.05 169.4 50.1 170.1 50.8 170.2 51.4 170.1 51.5 169.55 L51.55 192.1 39.55 190.05 M27.5 193.5 L27.25 191.2 34.2 189.85 34.35 192.4 27.5 193.5 M26.2 190.65 L25.85 188.05 34.7 186.3 35.05 189.1 26.2 190.65 M26.25 189.1 Q26.3 190.1 27.2 190.25 28.1 190.1 28.15 189.1 28.1 188.05 27.2 187.9 26.3 188.05 26.25 189.1 M31.55 188.55 Q31.5 187.5 30.6 187.35 29.7 187.5 29.65 188.55 29.7 189.55 30.6 189.7 31.5 189.55 31.55 188.55 M34.7 188.0 Q34.65 186.95 33.75 186.8 32.85 186.95 32.8 188.0 32.85 189.0 33.75 189.15 34.65 189.0 34.7 188.0 M73.5 149.9 Q74.6 149.7 74.65 148.5 74.6 147.25 73.5 147.1 72.4 147.25 72.4 148.5 72.4 149.7 73.5 149.9 M71.35 152.6 Q70.3 152.75 70.25 154.0 70.3 155.2 71.35 155.4 72.45 155.2 72.5 154.0 72.45 152.75 71.35 152.6 M67.3 152.5 L66.2 152.35 64.2 148.1 63.4 148.75 63.0 148.1 58.55 151.7 67.0 153.45 67.3 152.5 M64.95 150.5 L64.15 148.7 64.2 148.65 64.95 150.5 M62.85 148.75 L62.85 148.8 63.25 149.45 65.0 152.25 59.25 151.55 62.85 148.75 M69.45 163.4 L77.85 143.75 79.9 161.45 76.3 187.5 67.2 186.0 68.3 178.65 68.3 178.55 66.1 167.85 69.45 163.4 M53.9 150.75 Q53.9 150.1 53.25 150.05 52.6 150.1 52.55 150.75 52.6 151.4 53.25 151.5 53.9 151.4 53.9 150.75 M49.0 150.2 Q48.35 150.3 48.35 150.95 48.35 151.6 49.0 151.7 49.65 151.6 49.65 150.95 49.65 150.3 49.0 150.2 M51.5 184.95 Q51.45 184.25 50.75 184.15 50.05 184.25 50.0 184.95 50.05 185.65 50.75 185.75 51.45 185.65 51.5 184.95 M54.75 177.25 L54.9 177.8 60.15 177.95 54.75 177.25 M50.75 175.4 Q51.45 175.3 51.5 174.6 51.45 173.85 50.75 173.8 50.05 173.85 50.0 174.6 50.05 175.3 50.75 175.4 M50.75 180.55 Q51.45 180.45 51.5 179.75 51.45 179.05 50.75 178.95 50.05 179.05 50.0 179.75 50.05 180.45 50.75 180.55 M47.1 177.8 L47.25 177.25 41.9 177.95 47.1 177.8 M47.25 190.45 Q47.95 190.35 48.0 189.65 47.95 188.95 47.25 188.85 46.55 188.95 46.5 189.65 46.55 190.35 47.25 190.45 M43.45 189.0 Q43.5 189.7 44.2 189.8 44.9 189.7 44.95 189.0 44.9 188.3 44.2 188.2 43.5 188.3 43.45 189.0 M41.8 188.45 Q41.8 187.75 41.05 187.65 40.35 187.75 40.35 188.45 40.35 189.15 41.05 189.25 41.8 189.15 41.8 188.45 M57.9 188.25 Q57.2 188.35 57.2 189.05 57.2 189.8 57.9 189.85 58.65 189.8 58.65 189.05 58.6 188.35 57.9 188.25 M52.1 189.5 L52.1 188.45 62.15 186.95 62.45 190.0 52.1 191.85 52.1 190.75 52.4 190.15 Q52.35 189.65 52.1 189.5 M51.5 190.15 Q51.45 189.4 50.75 189.3 50.05 189.4 50.05 190.15 50.05 190.85 50.75 190.95 51.45 190.85 51.5 190.15 M55.1 190.45 Q55.8 190.35 55.85 189.65 55.8 188.95 55.1 188.85 54.4 188.95 54.35 189.65 54.4 190.35 55.1 190.45 M67.3 188.0 Q67.35 189.0 68.25 189.15 69.15 189.0 69.2 188.0 69.15 186.95 68.25 186.8 67.35 186.95 67.3 188.0 M67.3 186.3 L76.15 188.05 75.8 190.65 66.95 189.1 67.3 186.3 M60.9 187.8 Q60.2 187.9 60.15 188.6 60.2 189.3 60.9 189.4 61.6 189.3 61.65 188.6 61.6 187.9 60.9 187.8 M67.75 189.85 L74.75 191.2 74.45 193.5 67.6 192.4 67.75 189.85 M71.35 187.35 Q70.45 187.5 70.4 188.55 70.45 189.55 71.35 189.7 72.25 189.55 72.3 188.55 72.25 187.5 71.35 187.35 M74.8 190.25 Q75.7 190.1 75.75 189.1 75.7 188.05 74.8 187.9 73.9 188.05 73.85 189.1 73.9 190.1 74.8 190.25 M51.4 192.95 L62.3 190.85 59.55 223.75 Q55.45 222.9 51.3 223.6 L51.4 192.95 M50.55 192.95 L50.7 223.6 Q46.5 222.9 42.5 223.75 L39.65 190.85 50.55 192.95 M57.1 225.75 Q57.15 226.75 58.05 226.9 58.95 226.75 59.0 225.75 58.95 224.75 58.05 224.6 57.15 224.75 57.1 225.75 M59.35 224.3 L59.35 228.45 55.15 226.1 Q55.85 225.9 55.9 225.0 55.85 223.95 54.95 223.8 54.05 223.95 54.0 225.0 54.05 225.9 54.8 226.1 L51.15 229.65 51.3 224.25 55.6 223.7 59.35 224.3 M52.65 227.25 Q53.55 227.1 53.6 226.1 53.55 225.05 52.65 224.95 51.75 225.05 51.7 226.1 51.75 227.1 52.65 227.25 M51.25 230.4 L55.0 226.8 62.3 230.6 62.15 231.7 51.25 231.35 51.25 230.4 M45.8 225.0 Q45.85 226.0 46.75 226.15 L46.9 226.1 42.6 228.45 42.6 224.3 46.3 223.7 50.45 224.2 50.55 229.7 47.1 226.0 Q47.65 225.75 47.7 225.0 47.65 223.95 46.75 223.8 45.85 223.95 45.8 225.0 M49.05 227.25 Q49.95 227.1 50.0 226.1 49.95 225.05 49.05 224.95 48.15 225.05 48.1 226.1 48.15 227.1 49.05 227.25 M44.6 225.75 Q44.55 224.75 43.65 224.6 42.75 224.75 42.75 225.75 42.75 226.75 43.65 226.9 44.55 226.75 44.6 225.75 M50.5 230.35 L50.5 231.25 39.8 231.7 39.65 230.6 47.0 226.8 50.5 230.35" fill="#481520" fill-rule="evenodd" stroke="none"/>
    <path d="M52.0 132.4 Q51.95 131.45 51.0 131.35 50.05 131.45 50.0 132.4 50.05 133.35 51.0 133.45 51.95 133.35 52.0 132.4 M52.3 134.8 L50.0 134.85 48.85 132.9 51.05 128.65 53.4 132.85 52.3 134.8 M51.25 140.05 Q50.15 140.2 50.1 141.3 50.15 142.35 51.25 142.55 52.35 142.35 52.45 141.3 52.35 140.2 51.25 140.05 M54.35 142.6 L51.0 151.1 48.35 141.9 50.0 135.35 52.35 135.35 54.35 142.6" fill="#6c1836" fill-rule="evenodd" stroke="none"/>
    <path d="M51.2 232.55 L51.2 231.75 62.25 232.0 62.15 232.85 51.2 232.55 M50.45 232.5 L39.9 232.85 39.9 232.1 50.45 231.65 50.45 232.5" fill="#43151e" fill-rule="evenodd" stroke="none"/>
  </g>
</svg>
