<?xml version="1.0" encoding="UTF-8" standalone="no"?>
<svg xmlns:xlink="http://www.w3.org/1999/xlink" height="69.8px" width="116.3px" xmlns="http://www.w3.org/2000/svg">
  <g transform="matrix(1.0, 0.0, 0.0, 1.0, -1.7, -0.5)">
    <path d="M118.0 13.3 L118.0 56.3 Q118.0 62.05 113.9 66.15 L113.85 66.2 Q109.75 70.3 104.0 70.3 L51.65 70.3 51.65 0.5 104.0 0.5 Q109.75 0.5 113.85 4.65 L113.9 4.65 Q117.55 8.3 117.95 13.3 L118.0 13.3 M1.75 13.3 Q2.15 8.3 5.85 4.65 9.95 0.5 15.7 0.5 L51.6 0.5 51.6 70.3 15.7 70.3 Q9.95 70.3 5.85 66.2 L5.85 66.15 Q1.7 62.05 1.7 56.3 L1.7 13.3 1.75 13.3" fill="#000000" fill-rule="evenodd" stroke="none"/>
  </g>
</svg>
