<?xml version="1.0" encoding="UTF-8" standalone="no"?>
<svg xmlns:xlink="http://www.w3.org/1999/xlink" height="69.8px" width="116.3px" xmlns="http://www.w3.org/2000/svg">
  <g transform="matrix(1.0, 0.0, 0.0, 1.0, -1.7, 2.0)">
    <path d="M51.6 -2.0 L51.6 67.8 15.7 67.8 Q9.95 67.8 5.85 63.7 L5.85 63.65 Q1.9 59.7 1.7 54.3 L1.7 54.25 1.7 53.15 1.7 12.0 Q1.7 6.25 5.85 2.15 9.95 -2.0 15.7 -2.0 L51.6 -2.0 M104.0 -2.0 Q109.75 -2.0 113.85 2.15 L113.9 2.15 Q118.0 6.25 118.0 12.0 L118.0 53.15 118.0 54.25 118.0 54.3 Q117.8 59.7 113.9 63.65 L113.85 63.7 Q109.75 67.8 104.0 67.8 L51.65 67.8 51.65 -2.0 104.0 -2.0" fill="#ffff00" fill-rule="evenodd" stroke="none"/>
  </g>
</svg>
