<?xml version="1.0" encoding="UTF-8" standalone="no"?>
<svg xmlns:xlink="http://www.w3.org/1999/xlink" height="70.3px" width="156.3px" xmlns="http://www.w3.org/2000/svg">
  <g transform="matrix(1.0, 0.0, 0.0, 1.0, -1.7, -0.5)">
    <path d="M158.0 14.5 L158.0 56.8 Q158.0 62.55 153.9 66.65 L153.85 66.7 Q149.75 70.8 144.0 70.8 L51.65 70.8 51.65 0.5 144.0 0.5 Q149.75 0.5 153.85 4.65 L153.9 4.65 Q158.0 8.75 158.0 14.5 M15.7 0.5 L51.6 0.5 51.6 70.8 15.7 70.8 Q9.95 70.8 5.85 66.7 L5.85 66.65 Q1.7 62.55 1.7 56.8 L1.7 14.5 Q1.7 8.75 5.85 4.65 9.95 0.5 15.7 0.5" fill="#000000" fill-rule="evenodd" stroke="none"/>
  </g>
</svg>
