<?xml version="1.0" encoding="UTF-8" standalone="no"?>
<svg xmlns:xlink="http://www.w3.org/1999/xlink" height="55.3px" width="47.5px" xmlns="http://www.w3.org/2000/svg">
  <g transform="matrix(1.0, 0.0, 0.0, 1.0, 24.2, -27.8)">
    <path d="M0.75 29.0 L22.8 27.8 18.05 72.9 23.3 75.15 22.0 78.5 0.15 78.25 -0.05 65.7 0.75 29.0" fill="#0d0f0d" fill-rule="evenodd" stroke="none"/>
    <path d="M-2.15 29.2 L-1.4 63.1 -1.55 76.85 -5.9 83.1 -17.4 82.3 -22.9 74.1 -23.9 69.75 -19.75 66.9 -24.2 28.0 -2.15 29.2" fill="#0d0f0d" fill-rule="evenodd" stroke="none"/>
    <path d="M22.0 28.75 L22.0 28.65 22.6 28.65 22.0 28.75 17.8 67.35 9.3 66.75 0.85 67.35 1.45 31.1 22.0 28.75 M8.85 70.35 L9.9 69.8 9.9 68.0 8.7 68.0 7.5 68.0 6.9 69.2 7.5 69.8 8.3 70.2 6.9 69.8 0.85 74.65 0.85 68.0 9.9 67.35 17.8 68.0 17.8 72.8 8.85 70.35 M2.05 70.4 L2.05 71.6 4.45 71.6 5.1 70.4 4.45 69.2 3.25 69.2 2.05 69.2 2.05 70.4 M0.85 74.65 L6.3 71.0 6.9 71.0 22.6 75.25 22.0 76.45 0.85 75.85 0.85 74.65 M14.15 70.4 L14.15 71.0 15.35 71.6 16.55 71.0 17.2 70.4 16.55 69.2 15.35 69.2 14.15 69.2 14.15 70.4 M0.85 77.65 L0.85 76.45 22.0 77.05 22.0 77.65 0.85 77.65" fill="#1d1211" fill-rule="evenodd" stroke="none"/>
    <path d="M8.7 68.0 L9.9 68.0 9.9 69.8 8.85 70.35 8.7 70.4 8.3 70.2 7.5 69.8 6.9 69.2 7.5 68.0 8.7 68.0 7.5 68.6 7.5 69.8 9.3 69.8 9.3 68.6 8.7 68.0 M3.25 69.2 L4.45 69.2 5.1 70.4 4.45 71.6 2.05 71.6 2.05 70.4 2.65 71.0 3.85 71.0 3.85 70.4 4.45 70.4 3.25 69.2 2.05 70.4 2.05 69.2 3.25 69.2 M15.35 69.2 L16.55 69.2 17.2 70.4 16.55 71.0 15.35 71.6 14.15 71.0 14.15 70.4 14.75 71.0 15.95 71.0 15.95 70.4 16.55 70.4 15.35 69.2 14.15 70.4 14.15 69.2 15.35 69.2" fill="#0d0f0d" fill-rule="evenodd" stroke="none"/>
    <path d="M8.7 68.0 L9.3 68.6 9.3 69.8 7.5 69.8 7.5 68.6 8.7 68.0 M3.25 69.2 L4.45 70.4 3.85 70.4 3.85 71.0 2.65 71.0 2.05 70.4 3.25 69.2 M15.35 69.2 L16.55 70.4 15.95 70.4 15.95 71.0 14.75 71.0 14.15 70.4 15.35 69.2" fill="#844747" fill-rule="evenodd" stroke="none"/>
    <path d="M-23.2 28.7 L-23.8 28.65 -23.2 28.65 -23.2 28.7 -2.65 31.05 -2.05 61.3 -10.5 60.7 -19.0 61.3 -23.2 28.7 M-9.5 64.15 L-8.7 63.75 -8.1 63.1 -8.7 61.9 -9.9 61.9 -11.1 61.9 -11.1 63.75 -10.05 64.3 -19.0 66.75 -19.0 61.9 -11.1 61.3 -2.05 61.9 -2.05 68.55 -8.1 63.75 -9.5 64.15 M-15.35 64.35 L-15.35 63.1 -16.55 63.1 -17.75 63.1 -18.4 64.35 -17.75 64.95 -16.55 65.55 -15.35 64.95 -15.35 64.35 M-4.45 63.1 L-5.7 63.1 -6.3 64.35 -5.7 65.55 -3.25 65.55 -3.25 64.35 -3.25 63.1 -4.45 63.1 M-2.95 69.1 L-2.65 76.8 -6.35 82.35 -17.4 81.65 -22.3 73.75 -23.2 70.0 -18.9 67.45 -9.1 65.1 -2.95 69.1" fill="#1d1211" fill-rule="evenodd" stroke="none"/>
    <path d="M-10.05 64.3 L-11.1 63.75 -11.1 61.9 -9.9 61.9 -8.7 61.9 -8.1 63.1 -8.7 63.75 -9.5 64.15 -9.9 64.35 -10.05 64.3 M-8.7 63.75 L-8.7 62.5 -9.9 61.9 -10.5 62.5 -10.5 63.75 -8.7 63.75 M-15.35 64.35 L-15.35 64.95 -16.55 65.55 -17.75 64.95 -18.4 64.35 -17.75 63.1 -16.55 63.1 -15.35 63.1 -15.35 64.35 -16.55 63.1 -17.75 64.35 -17.15 64.35 -17.15 64.95 -15.95 64.95 -15.35 64.35 M-4.45 63.1 L-5.7 64.35 -5.05 64.35 -5.05 64.95 -3.85 64.95 -3.25 64.35 -4.45 63.1 -3.25 63.1 -3.25 64.35 -3.25 65.55 -5.7 65.55 -6.3 64.35 -5.7 63.1 -4.45 63.1" fill="#0d0f0d" fill-rule="evenodd" stroke="none"/>
    <path d="M-8.7 63.75 L-10.5 63.75 -10.5 62.5 -9.9 61.9 -8.7 62.5 -8.7 63.75 M-4.45 63.1 L-3.25 64.35 -3.85 64.95 -5.05 64.95 -5.05 64.35 -5.7 64.35 -4.45 63.1 M-15.35 64.35 L-15.95 64.95 -17.15 64.95 -17.15 64.35 -17.75 64.35 -16.55 63.1 -15.35 64.35" fill="#844747" fill-rule="evenodd" stroke="none"/>
  </g>
</svg>
