<?xml version="1.0" encoding="UTF-8" standalone="no"?>
<svg xmlns:xlink="http://www.w3.org/1999/xlink" height="70.3px" width="156.3px" xmlns="http://www.w3.org/2000/svg">
  <g transform="matrix(1.0, 0.0, 0.0, 1.0, -1.7, 2.0)">
    <path d="M51.6 -2.0 L51.6 68.3 15.7 68.3 Q9.95 68.3 5.85 64.2 L5.85 64.15 Q1.7 60.05 1.7 54.3 L1.7 12.0 Q1.7 6.25 5.85 2.15 9.95 -2.0 15.7 -2.0 L51.6 -2.0 M144.0 -2.0 Q149.75 -2.0 153.85 2.15 L153.9 2.15 Q158.0 6.25 158.0 12.0 L158.0 54.3 Q158.0 60.05 153.9 64.15 L153.85 64.2 Q149.75 68.3 144.0 68.3 L51.65 68.3 51.65 -2.0 144.0 -2.0" fill="#ffffff" fill-rule="evenodd" stroke="none"/>
    <path d="M10.05 6.35 Q12.4 4.0 15.7 4.0 L51.6 4.0 51.6 62.3 15.7 62.3 Q12.4 62.3 10.05 59.95 7.7 57.6 7.7 54.3 L7.7 12.0 Q7.7 8.7 10.05 6.35 M149.65 6.35 Q152.0 8.7 152.0 12.0 L152.0 54.3 Q152.0 57.6 149.65 59.95 147.3 62.3 144.0 62.3 L51.65 62.3 51.65 4.0 144.0 4.0 Q147.3 4.0 149.65 6.35" fill="#5ffc00" fill-rule="evenodd" stroke="none"/>
  </g>
</svg>
