<?xml version="1.0" encoding="UTF-8" standalone="no"?>
<svg xmlns:xlink="http://www.w3.org/1999/xlink" height="198.5px" width="194.4px" xmlns="http://www.w3.org/2000/svg">
  <g transform="matrix(1.0, 0.0, 0.0, 1.0, 8.8, 5.6)">
    <path d="M177.05 57.1 L159.45 55.85 168.45 40.05 150.6 42.3 156.3 25.2 139.45 30.85 141.65 13.35 126.05 22.25 124.8 4.9 111.3 16.6 106.45 -1.1 96.45 11.85 89.35 -2.4 81.5 13.25 70.35 -1.1 65.5 16.6 52.05 4.9 50.8 22.25 35.2 13.35 37.4 30.85 20.5 25.2 26.2 42.3 8.35 40.05 17.35 55.85 -0.25 57.1 11.6 70.75 -5.8 75.5 8.15 86.35 -8.75 94.8 -8.7 94.8 -8.8 94.85 6.9 102.65 -7.5 113.8 10.2 118.65 -1.5 132.15 15.85 133.4 6.95 149.0 24.5 146.8 18.85 163.65 35.9 157.95 33.65 175.8 49.5 166.8 50.75 184.4 64.4 172.6 69.15 189.95 79.95 176.05 88.4 192.9 96.85 176.05 107.7 189.95 112.45 172.6 126.1 184.4 127.35 166.8 143.15 175.8 140.9 157.95 158.0 163.65 152.35 146.8 169.85 149.0 160.95 133.4 178.3 132.15 166.6 118.65 184.3 113.8 169.95 102.65 185.6 94.85 185.55 94.8 168.65 86.35 182.6 75.5 165.25 70.75 177.05 57.1" fill="#000000" fill-opacity="0.5019608" fill-rule="evenodd" stroke="none"/>
    <path d="M177.05 53.9 L165.25 67.55 182.6 72.3 168.65 83.15 185.55 91.6 185.6 91.65 169.95 99.45 184.3 110.6 166.6 115.45 178.3 128.95 160.95 130.2 169.85 145.8 152.35 143.6 158.0 160.45 140.9 154.75 143.15 172.6 127.35 163.6 126.1 181.2 112.45 169.4 107.7 186.75 96.85 172.85 88.4 189.7 79.95 172.85 69.15 186.75 64.4 169.4 50.75 181.2 49.5 163.6 33.65 172.6 35.9 154.75 18.85 160.45 24.5 143.6 6.95 145.8 15.85 130.2 -1.5 128.95 10.2 115.45 -7.5 110.6 6.9 99.45 -8.8 91.65 -8.7 91.6 -8.75 91.6 8.15 83.15 -5.8 72.3 11.6 67.55 -0.25 53.9 17.35 52.65 8.35 36.85 26.2 39.1 20.5 22.0 37.4 27.65 35.2 10.15 50.8 19.05 52.05 1.7 65.5 13.4 70.35 -4.3 81.5 10.05 89.35 -5.6 96.45 8.65 106.45 -4.3 111.3 13.4 124.8 1.7 126.05 19.05 141.65 10.15 139.45 27.65 156.3 22.0 150.6 39.1 168.45 36.85 159.45 52.65 177.05 53.9" fill="#fd360b" fill-rule="evenodd" stroke="none"/>
  </g>
</svg>
