<?xml version="1.0" encoding="UTF-8" standalone="no"?>
<svg xmlns:xlink="http://www.w3.org/1999/xlink" height="99.15px" width="101.0px" xmlns="http://www.w3.org/2000/svg">
  <g transform="matrix(1.0, 0.0, 0.0, 1.0, 50.45, 52.3)">
    <path d="M-14.5 29.0 L-23.85 29.0 -23.85 28.75 -24.45 28.75 -22.65 8.15 -27.5 2.7 -30.5 14.2 -28.1 27.5 -29.3 28.1 -29.3 31.15 -27.5 34.15 -26.9 34.15 -27.5 38.4 -25.95 39.95 -25.95 40.45 -32.95 46.85 -43.8 37.8 -40.8 32.95 -41.4 33.55 -42.0 29.35 -43.8 29.95 -50.45 -5.75 -46.85 -28.15 -47.45 -29.35 -19.5 -46.45 -20.25 -46.9 -17.8 -52.3 -17.2 -52.3 -0.25 -46.65 17.25 -52.3 17.85 -52.3 20.3 -46.9 19.35 -46.35 47.5 -29.35 46.9 -28.15 50.55 -5.75 43.9 29.95 42.05 29.35 41.45 33.55 40.25 32.95 43.3 37.8 33.0 46.85 24.55 40.2 26.35 38.4 25.15 34.15 25.75 34.15 29.35 31.15 29.35 28.1 28.15 27.5 30.6 14.2 27.55 2.7 21.5 8.15 22.7 28.75 22.1 28.75 22.1 29.0 13.35 29.0 22.1 28.1 21.5 24.5 20.3 7.55 42.65 -31.15 42.05 -31.15 26.95 -40.85 26.35 -32.35 19.1 -32.35 22.1 -28.75 0.95 -13.0 0.95 27.5 1.55 28.1 1.55 29.35 0.95 29.35 0.95 30.3 0.95 31.15 -3.3 31.15 -3.25 30.15 0.35 30.55 0.35 23.3 0.35 16.65 0.35 10.6 0.35 4.55 0.35 -2.1 0.35 -8.15 0.35 -12.4 -2.1 -13.6 -2.35 4.2 -1.5 3.35 -0.9 3.35 0.35 4.55 -0.25 5.15 -0.9 5.15 -2.1 5.15 -2.35 4.85 -2.45 10.35 -1.5 9.35 -0.9 9.35 0.35 10.6 -0.25 11.2 -0.9 11.2 -2.1 11.2 -2.45 10.85 -2.55 16.5 -2.1 16.05 -1.5 16.05 -2.1 16.65 -1.5 16.65 -1.5 17.85 -2.1 17.85 -2.55 16.9 -2.65 23.25 -1.5 22.1 -0.9 22.1 0.35 23.3 -0.25 23.9 -0.9 23.9 -2.1 23.9 -2.65 23.35 -2.7 26.3 -20.75 24.6 -3.3 25.7 -2.7 -14.2 -23.85 -28.75 -20.25 -32.35 -27.5 -32.35 -27.5 -40.85 -42.0 -31.15 -42.6 -31.15 -21.45 7.55 -22.65 24.5 -23.25 28.1 -14.5 29.0 M-0.9 23.9 L-0.25 23.3 -0.9 22.7 -2.1 23.3 -1.5 23.3 -0.9 23.9 M-0.9 11.2 L-0.25 10.6 -0.9 10.0 -2.1 10.6 -1.5 10.6 -0.9 11.2 M-0.9 5.15 L-0.25 4.55 -0.9 3.95 -2.1 4.55 -1.5 4.55 -0.9 5.15 M19.1 -29.95 L20.3 -29.95 20.3 -28.4 21.5 -29.35 17.25 -32.95 25.75 -32.95 25.75 -41.45 26.35 -41.45 25.15 -42.15 25.15 -42.05 25.75 -41.45 24.55 -40.2 23.3 -40.85 23.3 -42.05 24.45 -42.6 23.3 -43.25 22.7 -36.0 14.85 -34.15 16.05 -34.15 16.65 -34.15 17.25 -33.55 16.05 -32.35 15.65 -32.55 17.25 -29.35 0.35 -17.25 0.95 -13.6 19.95 -28.15 19.1 -28.15 19.1 -28.75 19.7 -28.75 19.1 -29.95 18.5 -28.75 19.1 -28.15 17.85 -28.15 17.85 -29.95 19.1 -29.95 M16.05 -34.15 L15.45 -33.55 16.05 -32.95 16.05 -33.55 16.65 -33.55 16.05 -34.15 M24.55 -41.45 L25.15 -41.45 24.55 -42.05 23.9 -41.45 24.55 -40.85 24.55 -41.45 M24.55 -35.4 L24.55 -34.15 23.3 -33.55 22.1 -34.8 23.3 -36.0 23.9 -36.0 24.55 -35.4 M23.3 -34.8 L23.9 -34.8 23.3 -35.4 22.7 -34.8 23.3 -34.15 23.3 -34.8 M22.1 -36.0 L22.7 -43.25 18.5 -45.65 1.55 -18.45 16.65 -29.35 14.25 -34.15 22.1 -36.0 M-0.25 -41.45 L0.95 -41.45 1.55 -40.2 0.95 -39.6 -0.25 -39.0 -1.5 -39.6 -2.1 -40.2 -1.5 -41.45 -0.25 -41.45 -1.5 -40.2 -0.9 -39.6 0.35 -39.6 0.35 -40.2 0.95 -40.2 -0.25 -41.45 M1.55 -37.2 L3.95 -39.6 -0.2 -44.75 -3.9 -39.6 -2.1 -37.2 1.55 -37.2 M5.8 -40.2 L6.4 -40.2 18.5 -47.5 16.65 -51.1 0.95 -45.65 5.8 -40.2 M4.35 -39.4 L2.15 -37.2 2.75 -37.2 6.6 -29.2 16.5 -44.75 5.15 -38.4 4.35 -39.4 M1.55 -29.95 L1.55 -28.15 -0.25 -27.5 -1.5 -28.15 -2.1 -29.35 -1.5 -29.95 -0.25 -30.55 0.35 -30.55 1.55 -29.95 M5.8 -28.15 L1.55 -36.6 -2.1 -36.6 -5.7 -28.15 -0.25 -17.85 5.8 -28.15 M0.95 -29.95 L-0.9 -29.95 -1.5 -29.35 -0.9 -28.15 0.95 -28.15 0.95 -29.95 M11.2 -22.1 L10.0 -22.7 10.0 -23.3 10.0 -23.9 11.2 -24.5 11.85 -24.5 11.85 -23.9 12.45 -23.3 11.2 -22.1 M11.85 -23.3 L11.2 -23.9 10.0 -23.3 11.2 -22.7 11.2 -23.3 11.85 -23.3 M25.15 -19.25 L26.95 -16.05 28.75 -16.05 28.75 -14.8 14.95 -17.3 14.85 -17.25 11.85 -17.85 14.95 -17.3 22.1 -21.45 22.7 -21.45 22.7 -20.85 23.9 -21.45 24.25 -20.85 25.15 -19.25 M3.95 -17.25 L3.95 -16.05 2.75 -16.05 2.15 -16.05 1.55 -17.25 2.15 -17.85 2.75 -17.85 3.95 -17.85 3.95 -17.25 2.75 -17.85 2.15 -17.25 2.75 -17.25 2.75 -16.05 3.95 -17.25 M-11.15 -21.45 L-11.55 -21.45 0.35 -13.0 0.35 -16.65 -6.7 -21.45 -2.1 -18.45 -16.4 -44.7 -18.15 -45.7 -23.25 -42.65 -23.25 -36.0 -15.4 -34.15 -18.4 -29.35 -16.6 -33.0 -17.2 -32.35 -18.4 -32.95 -19.0 -33.55 -18.4 -34.15 -17.2 -34.15 -16.6 -34.15 -16.2 -33.75 -16.0 -34.15 -23.85 -36.0 -24.45 -43.25 -27.5 -41.45 -26.9 -41.45 -26.9 -40.2 -26.9 -32.95 -18.4 -32.95 -22.65 -29.35 -22.0 -28.85 -21.45 -29.95 -20.85 -29.95 -21.45 -28.75 -20.85 -28.75 -20.85 -28.15 -20.95 -28.15 -12.2 -21.9 -12.35 -22.1 -11.75 -23.3 -11.15 -23.3 -11.75 -22.1 -11.15 -22.1 -11.15 -21.45 -9.95 -22.1 -11.15 -23.3 -9.95 -23.3 -9.95 -22.1 -9.95 -21.45 -11.15 -21.45 M-17.2 -34.15 L-18.4 -33.55 -17.8 -33.55 -17.2 -32.95 -16.6 -33.55 -17.2 -34.15 M34.8 -14.8 L35.4 -14.8 36.6 -14.2 37.25 -13.6 36.6 -12.4 34.8 -11.8 33.6 -12.4 33.1 -13.4 29.1 -5.9 29.95 -6.35 30.6 -6.35 31.8 -5.75 32.4 -4.55 31.8 -3.95 29.95 -3.35 28.75 -3.95 28.2 -4.5 20.9 7.55 31.2 -3.35 31.8 -3.35 46.9 -29.35 43.3 -31.15 37.5 -21.15 37.85 -21.45 39.65 -22.1 40.25 -22.1 41.45 -20.85 40.85 -19.65 39.65 -19.05 37.85 -19.65 37.3 -20.75 33.4 -14.0 33.6 -14.2 34.8 -14.8 33.6 -13.6 34.2 -12.4 36.0 -12.4 36.0 -13.6 36.6 -13.6 36.0 -14.2 34.8 -14.8 M38.45 -19.65 L40.25 -19.65 40.25 -20.85 40.85 -20.85 40.25 -21.45 38.45 -21.45 38.45 -19.65 M28.75 -5.15 L29.35 -3.95 31.2 -3.95 31.2 -5.75 29.35 -5.75 28.75 -5.15 M43.9 -29.35 L44.5 -29.35 45.1 -28.75 45.7 -27.5 45.1 -26.9 43.9 -26.3 42.05 -26.9 41.45 -27.5 42.05 -28.75 43.9 -29.35 M45.1 -27.5 L44.5 -28.75 42.65 -28.75 42.65 -26.9 44.5 -26.9 44.5 -27.5 45.1 -27.5 M49.35 -5.75 L46.3 -26.9 33.0 -3.35 27.55 2.1 31.2 14.8 29.35 23.3 43.9 25.1 49.35 -5.75 M40.25 26.3 L40.25 27.5 41.45 28.1 42.05 27.5 42.05 26.3 41.45 25.7 40.9 26.0 36.75 25.25 37.25 25.7 37.85 26.3 37.25 27.5 36.0 28.1 34.8 27.5 34.8 25.7 36.0 25.1 29.35 23.9 28.75 27.5 43.3 29.35 43.3 26.3 42.65 26.3 42.65 28.1 41.45 28.1 40.25 28.1 39.65 26.9 40.25 26.3 M37.25 25.7 L35.4 25.7 35.4 26.9 36.0 27.5 37.25 26.9 37.25 25.7 M31.2 24.5 L31.8 24.5 33.0 25.7 32.4 26.9 31.2 27.5 29.95 26.9 29.35 25.7 29.95 25.1 31.2 24.5 M40.85 32.35 L41.45 29.95 30.6 28.1 29.95 31.15 40.85 32.35 M19.1 25.7 L19.7 25.7 20.3 26.9 19.7 27.5 19.1 27.5 19.1 26.9 19.7 26.9 19.1 25.7 17.85 26.9 19.1 27.5 17.85 27.5 17.85 26.9 17.85 25.7 19.1 25.7 M11.85 28.1 L11.2 28.1 10.6 27.5 11.85 26.3 12.45 26.3 13.05 26.9 13.05 28.1 11.85 28.1 11.85 27.5 12.45 27.5 11.85 26.9 11.2 27.5 11.85 28.1 M4.55 27.5 L5.15 27.5 5.8 28.1 4.55 29.35 3.35 28.75 3.35 28.1 4.55 28.75 4.55 28.1 5.15 28.1 4.55 27.5 3.35 28.1 3.35 27.5 4.55 27.5 M31.8 25.1 L30.6 25.1 29.95 25.7 31.2 26.9 31.8 26.3 31.8 25.7 32.4 25.7 31.8 25.1 M39.65 32.95 L30.6 31.75 26.35 34.8 26.95 37.8 29.35 39.0 33.6 37.8 33.6 35.4 34.8 39.0 33.6 38.4 29.35 40.2 26.95 39.0 26.35 40.2 33.0 45.65 42.05 37.8 39.65 32.95 M-43.8 -29.35 L-42.6 -28.75 -42.0 -27.5 -42.6 -26.9 -43.8 -26.3 -45.05 -26.9 -45.65 -27.5 -45.05 -28.75 -44.4 -29.35 -43.8 -29.35 M-42.6 -26.9 L-42.6 -28.75 -44.4 -28.75 -45.05 -27.5 -44.4 -27.5 -44.4 -26.9 -42.6 -26.9 M-36.55 -14.8 L-35.95 -15.4 -35.35 -15.4 -34.25 -14.85 -40.2 -26.3 -43.2 -31.15 -46.85 -29.35 -31.7 -3.35 -31.1 -3.35 -22.05 7.55 -28.8 -4.9 -29.3 -3.95 -30.5 -3.95 -31.7 -3.95 -32.35 -5.15 -31.7 -6.35 -31.1 -6.95 -30.5 -6.95 -29.7 -6.55 -33.7 -13.9 -33.55 -13.6 -34.15 -12.4 -35.35 -11.8 -36.55 -12.4 -37.15 -13.6 -36.55 -14.8 -36.55 -13.0 -35.35 -12.4 -34.15 -13.6 -34.75 -14.8 -36.55 -14.8 M-40.8 -19.65 L-39.0 -19.65 -38.4 -20.85 -39.0 -21.45 -40.8 -21.45 -40.8 -19.65 -41.4 -20.85 -40.2 -22.1 -39.6 -22.1 -38.4 -21.45 -37.75 -20.85 -38.4 -19.65 -39.6 -19.05 -40.8 -19.65 M-30.5 -3.95 L-29.3 -4.55 -29.3 -6.35 -31.1 -6.35 -31.7 -5.15 -31.1 -5.15 -31.1 -4.55 -30.5 -3.95 M-49.85 -5.75 L-43.8 25.1 -29.3 23.3 -31.1 14.8 -27.5 2.1 -32.95 -3.35 -46.25 -26.9 -49.85 -5.75 M-5.7 -40.2 L-0.9 -45.65 -16.6 -51.1 -19.0 -47.5 -6.3 -40.2 -5.7 -40.2 M-5.1 -38.4 L-14.8 -43.85 -6.25 -29.25 -3.3 -36.6 -3.3 -36.9 -4.7 -38.95 -5.1 -38.4 M-20.85 -29.95 L-19.65 -29.95 -19.0 -28.75 -19.65 -28.15 -20.85 -28.15 -19.65 -28.75 -20.85 -29.95 M-24.45 -40.2 L-24.45 -39.6 -25.65 -39.0 -26.9 -40.2 -26.3 -40.85 -26.3 -41.45 -25.65 -41.45 -24.45 -40.85 -24.45 -40.2 -25.65 -40.85 -26.3 -40.2 -25.65 -40.2 -25.65 -39.6 -24.45 -40.2 M-23.85 -35.4 L-23.25 -34.8 -23.85 -34.15 -25.05 -33.55 -26.3 -34.8 -25.65 -35.4 -25.65 -36.0 -25.05 -36.0 -23.85 -35.4 M-23.85 -34.8 L-25.05 -35.4 -25.65 -34.8 -25.05 -34.8 -25.05 -34.15 -23.85 -34.8 M-2.1 -16.65 L-2.1 -16.05 -3.3 -16.05 -3.9 -16.05 -4.5 -16.65 -3.9 -17.85 -3.3 -17.85 -2.1 -17.85 -2.1 -16.65 -3.3 -17.85 -3.9 -16.65 -3.3 -16.65 -3.3 -16.05 -2.1 -16.65 M-0.9 -8.75 L-1.5 -8.15 -0.9 -8.15 -0.9 -7.55 -0.25 -8.15 -0.9 -8.75 -0.25 -8.75 0.35 -8.15 -0.9 -6.95 -2.1 -7.55 -2.1 -8.75 -0.9 -8.75 M-0.9 -2.7 L-0.25 -2.7 0.35 -2.1 -0.9 -0.9 -2.1 -1.5 -2.1 -2.1 -1.5 -2.1 -0.9 -1.5 -0.25 -2.1 -0.9 -2.7 -2.1 -2.1 -2.1 -2.7 -0.9 -2.7 M-1.5 16.05 L-0.25 16.05 0.35 16.65 -0.25 17.85 -1.5 17.85 -0.25 16.65 -1.5 16.05 M-31.1 24.5 L-29.9 25.1 -29.3 26.3 -29.3 23.9 -36.2 25.1 -35.95 25.1 -34.75 25.7 -34.75 26.9 -34.75 27.5 -35.95 28.1 -37.15 27.5 -37.75 26.9 -37.15 25.7 -36.65 25.15 -41.0 25.9 -40.2 26.3 -39.6 27.5 -40.2 28.1 -41.4 28.75 Q-42.0 28.4 -42.6 28.1 L-43.2 27.5 -42.6 26.3 -42.5 26.2 -43.2 26.3 -43.8 26.3 -43.2 29.35 -29.3 27.5 -29.3 26.3 -29.9 26.9 -31.1 27.5 -32.35 26.9 -32.95 26.3 -32.35 25.1 -31.7 24.5 -31.1 24.5 M-20.85 27.5 L-20.25 26.9 -20.85 26.3 -22.05 26.9 -21.45 26.9 -20.85 27.5 -22.05 27.5 -22.05 26.9 -22.05 26.3 -21.45 25.7 -20.85 25.7 -19.65 26.9 -20.25 27.5 -20.85 27.5 M-34.75 26.9 L-35.35 25.7 -37.15 25.7 -37.15 27.5 -35.35 27.5 -34.75 26.9 M-30.5 25.1 L-31.7 25.1 -32.35 25.7 -31.7 25.7 -31.7 26.9 -30.5 26.9 -29.9 25.7 -30.5 25.1 M-39.6 32.95 L-42.6 37.8 -33.55 45.65 -27.5 40.2 -27.5 39.0 -29.9 40.2 -34.15 38.4 -35.35 39.0 -34.15 35.4 -33.55 37.8 -29.3 39.0 -27.5 37.8 -27.5 34.8 -31.1 31.75 -39.6 32.95 M-30.5 28.1 L-41.4 29.95 -40.8 32.35 -29.9 31.15 -30.5 28.1 M-2.7 28.1 L-2.7 27.5 -2.1 27.5 -0.9 28.1 -0.25 28.75 -0.9 29.35 -2.1 29.35 -2.7 29.35 -3.3 28.75 -2.7 28.1 M-2.1 29.35 L-0.9 28.75 -2.1 28.1 -2.7 28.75 -2.1 28.75 -2.1 29.35 M-9.35 26.9 L-8.75 26.9 -7.55 27.5 -7.55 28.1 -7.55 28.75 -8.75 28.75 -9.35 28.75 -9.95 28.1 -9.35 27.5 -9.35 26.9 M-8.75 28.75 L-7.55 28.1 -8.75 27.5 -9.35 28.1 -8.75 28.1 -8.75 28.75 M-13.6 27.5 L-14.2 28.1 -15.4 28.1 -16.0 28.1 -16.6 27.5 -16.0 26.9 -16.0 26.3 -15.4 26.3 -14.2 26.9 -13.6 27.5 M-15.4 27.5 L-15.4 28.1 -14.2 27.5 -15.4 26.9 -16.0 27.5 -15.4 27.5 M-40.8 26.3 L-42.0 26.3 -42.6 27.5 -42.0 27.5 -42.0 28.1 -40.8 28.1 -40.2 27.5 -40.8 26.3" fill="#0f0b0b" fill-rule="evenodd" stroke="none"/>
    <path d="M-0.9 23.9 L-1.5 23.3 -2.1 23.3 -0.9 22.7 -0.25 23.3 -0.9 23.9 M-1.5 17.85 L-1.5 16.65 -2.1 16.65 -1.5 16.05 -0.25 16.65 -1.5 17.85 M-0.9 11.2 L-1.5 10.6 -2.1 10.6 -0.9 10.0 -0.25 10.6 -0.9 11.2 M-0.9 5.15 L-1.5 4.55 -2.1 4.55 -0.9 3.95 -0.25 4.55 -0.9 5.15 M19.1 -29.95 L19.7 -28.75 19.1 -28.75 19.1 -28.15 18.5 -28.75 19.1 -29.95 M16.05 -34.15 L16.65 -33.55 16.05 -33.55 16.05 -32.95 15.45 -33.55 16.05 -34.15 M24.55 -41.45 L24.55 -40.85 23.9 -41.45 24.55 -42.05 25.15 -41.45 24.55 -41.45 M23.3 -34.8 L23.3 -34.15 22.7 -34.8 23.3 -35.4 23.9 -34.8 23.3 -34.8 M-0.25 -41.45 L0.95 -40.2 0.35 -40.2 0.35 -39.6 -0.9 -39.6 -1.5 -40.2 -0.25 -41.45 M4.35 -39.4 L5.15 -38.4 16.5 -44.75 6.6 -29.2 2.75 -37.2 2.15 -37.2 4.35 -39.4 M5.8 -40.2 L0.95 -45.65 16.65 -51.1 18.5 -47.5 6.4 -40.2 5.8 -40.2 M0.95 -29.95 L0.95 -28.15 -0.9 -28.15 -1.5 -29.35 -0.9 -29.95 0.95 -29.95 M11.85 -23.3 L11.2 -23.3 11.2 -22.7 10.0 -23.3 11.2 -23.9 11.85 -23.3 M24.25 -20.85 L24.55 -20.85 25.15 -19.25 24.25 -20.85 M3.95 -17.25 L2.75 -16.05 2.75 -17.25 2.15 -17.25 2.75 -17.85 3.95 -17.25 M-11.15 -21.45 L-11.15 -22.1 -11.75 -22.1 -11.15 -23.3 -9.95 -22.1 -11.15 -21.45 M-20.85 -28.15 L-20.85 -28.75 -21.45 -28.75 -20.85 -29.95 -19.65 -28.75 -20.85 -28.15 M-17.2 -34.15 L-16.6 -33.55 -17.2 -32.95 -17.8 -33.55 -18.4 -33.55 -17.2 -34.15 M34.8 -14.8 L36.0 -14.2 36.6 -13.6 36.0 -13.6 36.0 -12.4 34.2 -12.4 33.6 -13.6 34.8 -14.8 M28.75 -5.15 L29.35 -5.75 31.2 -5.75 31.2 -3.95 29.35 -3.95 28.75 -5.15 M38.45 -19.65 L38.45 -21.45 40.25 -21.45 40.85 -20.85 40.25 -20.85 40.25 -19.65 38.45 -19.65 M45.1 -27.5 L44.5 -27.5 44.5 -26.9 42.65 -26.9 42.65 -28.75 44.5 -28.75 45.1 -27.5 M40.9 26.0 L41.45 25.7 42.05 26.3 42.05 27.5 41.45 28.1 40.25 27.5 40.25 26.3 40.9 26.0 M37.25 25.7 L37.25 26.9 36.0 27.5 35.4 26.9 35.4 25.7 37.25 25.7 M5.8 13.6 L5.15 13.0 17.25 14.15 5.8 13.6 M19.1 25.7 L19.7 26.9 19.1 26.9 19.1 27.5 17.85 26.9 19.1 25.7 M11.85 28.1 L11.2 27.5 11.85 26.9 12.45 27.5 11.85 27.5 11.85 28.1 M4.55 27.5 L5.15 28.1 4.55 28.1 4.55 28.75 3.35 28.1 4.55 27.5 M31.8 25.1 L32.4 25.7 31.8 25.7 31.8 26.3 31.2 26.9 29.95 25.7 30.6 25.1 31.8 25.1 M-42.6 -26.9 L-44.4 -26.9 -44.4 -27.5 -45.05 -27.5 -44.4 -28.75 -42.6 -28.75 -42.6 -26.9 M-36.55 -14.8 L-34.75 -14.8 -34.15 -13.6 -35.35 -12.4 -36.55 -13.0 -36.55 -14.8 M-30.5 -3.95 L-31.1 -4.55 -31.1 -5.15 -31.7 -5.15 -31.1 -6.35 -29.3 -6.35 -29.3 -4.55 -30.5 -3.95 M-40.8 -19.65 L-40.8 -21.45 -39.0 -21.45 -38.4 -20.85 -39.0 -19.65 -40.8 -19.65 M-5.1 -38.4 L-4.7 -38.95 -3.3 -36.9 -3.3 -36.6 -6.25 -29.25 -14.8 -43.85 -5.1 -38.4 M-5.7 -40.2 L-6.3 -40.2 -19.0 -47.5 -16.6 -51.1 -0.9 -45.65 -5.7 -40.2 M-24.45 -40.2 L-25.65 -39.6 -25.65 -40.2 -26.3 -40.2 -25.65 -40.85 -24.45 -40.2 M-23.85 -34.8 L-25.05 -34.15 -25.05 -34.8 -25.65 -34.8 -25.05 -35.4 -23.85 -34.8 M-2.1 -16.65 L-3.3 -16.05 -3.3 -16.65 -3.9 -16.65 -3.3 -17.85 -2.1 -16.65 M-0.9 -8.75 L-0.25 -8.15 -0.9 -7.55 -0.9 -8.15 -1.5 -8.15 -0.9 -8.75 M-0.9 -2.7 L-0.25 -2.1 -0.9 -1.5 -1.5 -2.1 -2.1 -2.1 -0.9 -2.7 M-6.3 13.0 L-6.9 13.6 -18.4 14.15 -6.3 13.0 M-20.85 27.5 L-21.45 26.9 -22.05 26.9 -20.85 26.3 -20.25 26.9 -20.85 27.5 M-30.5 25.1 L-29.9 25.7 -30.5 26.9 -31.7 26.9 -31.7 25.7 -32.35 25.7 -31.7 25.1 -30.5 25.1 M-34.75 26.9 L-35.35 27.5 -37.15 27.5 -37.15 25.7 -35.35 25.7 -34.75 26.9 M-2.1 29.35 L-2.1 28.75 -2.7 28.75 -2.1 28.1 -0.9 28.75 -2.1 29.35 M-8.75 28.75 L-8.75 28.1 -9.35 28.1 -8.75 27.5 -7.55 28.1 -8.75 28.75 M-15.4 27.5 L-16.0 27.5 -15.4 26.9 -14.2 27.5 -15.4 28.1 -15.4 27.5 M-40.8 26.3 L-40.2 27.5 -40.8 28.1 -42.0 28.1 -42.0 27.5 -42.6 27.5 -42.0 26.3 -40.8 26.3" fill="#844747" fill-rule="evenodd" stroke="none"/>
    <path d="M-0.25 -41.45 L-1.5 -41.45 -2.1 -40.2 -1.5 -39.6 -0.25 -39.0 0.95 -39.6 1.55 -40.2 0.95 -41.45 -0.25 -41.45 M1.55 -37.2 L-2.1 -37.2 -3.9 -39.6 -0.2 -44.75 3.95 -39.6 1.55 -37.2 M5.8 -28.15 L-0.25 -17.85 -5.7 -28.15 -2.1 -36.6 1.55 -36.6 5.8 -28.15 M1.55 -29.95 L0.35 -30.55 -0.25 -30.55 -1.5 -29.95 -2.1 -29.35 -1.5 -28.15 -0.25 -27.5 1.55 -28.15 1.55 -29.95" fill="#2f1916" fill-rule="evenodd" stroke="none"/>
    <path d="M-14.5 29.0 L-23.25 28.1 -22.65 24.5 -21.45 7.55 -42.6 -31.15 -42.0 -31.15 -27.5 -40.85 -27.5 -32.35 -20.25 -32.35 -23.85 -28.75 -2.7 -14.2 -3.3 25.7 -20.75 24.6 -2.7 26.3 -2.65 23.35 -2.1 23.9 -0.9 23.9 -0.25 23.9 0.35 23.3 -0.9 22.1 -1.5 22.1 -2.65 23.25 -2.55 16.9 -2.1 17.85 -1.5 17.85 -0.25 17.85 0.35 16.65 -0.25 16.05 -1.5 16.05 -2.1 16.05 -2.55 16.5 -2.45 10.85 -2.1 11.2 -0.9 11.2 -0.25 11.2 0.35 10.6 -0.9 9.35 -1.5 9.35 -2.45 10.35 -2.35 4.85 -2.1 5.15 -0.9 5.15 -0.25 5.15 0.35 4.55 -0.9 3.35 -1.5 3.35 -2.35 4.2 -2.1 -13.6 0.35 -12.4 0.35 -8.15 0.35 -2.1 0.35 4.55 0.35 10.6 0.35 16.65 0.35 23.3 0.35 30.55 -3.25 30.15 -14.5 29.0 M0.95 30.3 L0.95 29.35 1.55 29.35 1.55 28.1 0.95 27.5 0.95 -13.0 22.1 -28.75 19.1 -32.35 26.35 -32.35 26.95 -40.85 42.05 -31.15 42.65 -31.15 20.3 7.55 21.5 24.5 22.1 28.1 13.35 29.0 0.95 30.3 M16.05 -34.15 L14.85 -34.15 22.7 -36.0 23.3 -43.25 24.45 -42.6 23.3 -42.05 23.3 -40.85 24.55 -40.2 25.75 -41.45 25.15 -42.05 25.15 -42.15 26.35 -41.45 25.75 -41.45 25.75 -32.95 17.25 -32.95 21.5 -29.35 20.3 -28.4 20.3 -29.95 19.1 -29.95 17.85 -29.95 17.85 -28.15 19.1 -28.15 19.95 -28.15 0.95 -13.6 0.35 -17.25 17.25 -29.35 15.65 -32.55 16.05 -32.35 17.25 -33.55 16.65 -34.15 16.05 -34.15 M24.55 -35.4 L23.9 -36.0 23.3 -36.0 22.1 -34.8 23.3 -33.55 24.55 -34.15 24.55 -35.4 M22.1 -36.0 L14.25 -34.15 16.65 -29.35 1.55 -18.45 18.5 -45.65 22.7 -43.25 22.1 -36.0 M11.2 -22.1 L12.45 -23.3 11.85 -23.9 11.85 -24.5 11.2 -24.5 10.0 -23.9 10.0 -23.3 10.0 -22.7 11.2 -22.1 M24.25 -20.85 L23.9 -21.45 22.7 -20.85 22.7 -21.45 22.1 -21.45 14.95 -17.3 11.85 -17.85 14.85 -17.25 14.95 -17.3 28.75 -14.8 28.75 -16.05 26.95 -16.05 25.15 -19.25 24.55 -20.85 24.25 -20.85 M3.95 -17.25 L3.95 -17.85 2.75 -17.85 2.15 -17.85 1.55 -17.25 2.15 -16.05 2.75 -16.05 3.95 -16.05 3.95 -17.25 M-17.2 -34.15 L-18.4 -34.15 -19.0 -33.55 -18.4 -32.95 -17.2 -32.35 -16.6 -33.0 -18.4 -29.35 -15.4 -34.15 -23.25 -36.0 -23.25 -42.65 -18.15 -45.7 -16.4 -44.7 -2.1 -18.45 -6.7 -21.45 0.35 -16.65 0.35 -13.0 -11.55 -21.45 -11.15 -21.45 -9.95 -21.45 -9.95 -22.1 -9.95 -23.3 -11.15 -23.3 -11.75 -23.3 -12.35 -22.1 -12.2 -21.9 -20.95 -28.15 -20.85 -28.15 -19.65 -28.15 -19.0 -28.75 -19.65 -29.95 -20.85 -29.95 -21.45 -29.95 -22.0 -28.85 -22.65 -29.35 -18.4 -32.95 -26.9 -32.95 -26.9 -40.2 -26.9 -41.45 -27.5 -41.45 -24.45 -43.25 -23.85 -36.0 -16.0 -34.15 -16.2 -33.75 -16.6 -34.15 -17.2 -34.15 M34.8 -14.8 L33.6 -14.2 33.4 -14.0 37.3 -20.75 37.85 -19.65 39.65 -19.05 40.85 -19.65 41.45 -20.85 40.25 -22.1 39.65 -22.1 37.85 -21.45 37.5 -21.15 43.3 -31.15 46.9 -29.35 31.8 -3.35 31.2 -3.35 20.9 7.55 28.2 -4.5 28.75 -3.95 29.95 -3.35 31.8 -3.95 32.4 -4.55 31.8 -5.75 30.6 -6.35 29.95 -6.35 29.1 -5.9 33.1 -13.4 33.6 -12.4 34.8 -11.8 36.6 -12.4 37.25 -13.6 36.6 -14.2 35.4 -14.8 34.8 -14.8 M43.9 -29.35 L42.05 -28.75 41.45 -27.5 42.05 -26.9 43.9 -26.3 45.1 -26.9 45.7 -27.5 45.1 -28.75 44.5 -29.35 43.9 -29.35 M49.35 -5.75 L43.9 25.1 29.35 23.3 31.2 14.8 27.55 2.1 33.0 -3.35 46.3 -26.9 49.35 -5.75 M40.9 26.0 L40.25 26.3 39.65 26.9 40.25 28.1 41.45 28.1 42.65 28.1 42.65 26.3 43.3 26.3 43.3 29.35 28.75 27.5 29.35 23.9 36.0 25.1 34.8 25.7 34.8 27.5 36.0 28.1 37.25 27.5 37.85 26.3 37.25 25.7 36.75 25.25 40.9 26.0 M40.85 32.35 L29.95 31.15 30.6 28.1 41.45 29.95 40.85 32.35 M31.2 24.5 L29.95 25.1 29.35 25.7 29.95 26.9 31.2 27.5 32.4 26.9 33.0 25.7 31.8 24.5 31.2 24.5 M5.8 13.6 L17.25 14.15 5.15 13.0 5.8 13.6 M19.1 27.5 L19.7 27.5 20.3 26.9 19.7 25.7 19.1 25.7 17.85 25.7 17.85 26.9 17.85 27.5 19.1 27.5 M11.85 28.1 L13.05 28.1 13.05 26.9 12.45 26.3 11.85 26.3 10.6 27.5 11.2 28.1 11.85 28.1 M3.35 28.1 L3.35 28.75 4.55 29.35 5.8 28.1 5.15 27.5 4.55 27.5 3.35 27.5 3.35 28.1 M-43.8 -29.35 L-44.4 -29.35 -45.05 -28.75 -45.65 -27.5 -45.05 -26.9 -43.8 -26.3 -42.6 -26.9 -42.0 -27.5 -42.6 -28.75 -43.8 -29.35 M-30.5 -3.95 L-29.3 -3.95 -28.8 -4.9 -22.05 7.55 -31.1 -3.35 -31.7 -3.35 -46.85 -29.35 -43.2 -31.15 -40.2 -26.3 -34.25 -14.85 -35.35 -15.4 -35.95 -15.4 -36.55 -14.8 -37.15 -13.6 -36.55 -12.4 -35.35 -11.8 -34.15 -12.4 -33.55 -13.6 -33.7 -13.9 -29.7 -6.55 -30.5 -6.95 -31.1 -6.95 -31.7 -6.35 -32.35 -5.15 -31.7 -3.95 -30.5 -3.95 M-40.8 -19.65 L-39.6 -19.05 -38.4 -19.65 -37.75 -20.85 -38.4 -21.45 -39.6 -22.1 -40.2 -22.1 -41.4 -20.85 -40.8 -19.65 M-49.85 -5.75 L-46.25 -26.9 -32.95 -3.35 -27.5 2.1 -31.1 14.8 -29.3 23.3 -43.8 25.1 -49.85 -5.75 M-24.45 -40.2 L-24.45 -40.85 -25.65 -41.45 -26.3 -41.45 -26.3 -40.85 -26.9 -40.2 -25.65 -39.0 -24.45 -39.6 -24.45 -40.2 M-23.85 -35.4 L-25.05 -36.0 -25.65 -36.0 -25.65 -35.4 -26.3 -34.8 -25.05 -33.55 -23.85 -34.15 -23.25 -34.8 -23.85 -35.4 M-2.1 -16.65 L-2.1 -17.85 -3.3 -17.85 -3.9 -17.85 -4.5 -16.65 -3.9 -16.05 -3.3 -16.05 -2.1 -16.05 -2.1 -16.65 M-0.9 -8.75 L-2.1 -8.75 -2.1 -7.55 -0.9 -6.95 0.35 -8.15 -0.25 -8.75 -0.9 -8.75 M-2.1 -2.1 L-2.1 -1.5 -0.9 -0.9 0.35 -2.1 -0.25 -2.7 -0.9 -2.7 -2.1 -2.7 -2.1 -2.1 M-6.3 13.0 L-18.4 14.15 -6.9 13.6 -6.3 13.0 M-31.1 24.5 L-31.7 24.5 -32.35 25.1 -32.95 26.3 -32.35 26.9 -31.1 27.5 -29.9 26.9 -29.3 26.3 -29.3 27.5 -43.2 29.35 -43.8 26.3 -43.2 26.3 -42.5 26.2 -42.6 26.3 -43.2 27.5 -42.6 28.1 Q-42.0 28.4 -41.4 28.75 L-40.2 28.1 -39.6 27.5 -40.2 26.3 -41.0 25.9 -36.65 25.15 -37.15 25.7 -37.75 26.9 -37.15 27.5 -35.95 28.1 -34.75 27.5 -34.75 26.9 -34.75 25.7 -35.95 25.1 -36.2 25.1 -29.3 23.9 -29.3 26.3 -29.9 25.1 -31.1 24.5 M-20.85 27.5 L-20.25 27.5 -19.65 26.9 -20.85 25.7 -21.45 25.7 -22.05 26.3 -22.05 26.9 -22.05 27.5 -20.85 27.5 M-2.7 28.1 L-3.3 28.75 -2.7 29.35 -2.1 29.35 -0.9 29.35 -0.25 28.75 -0.9 28.1 -2.1 27.5 -2.7 27.5 -2.7 28.1 M-30.5 28.1 L-29.9 31.15 -40.8 32.35 -41.4 29.95 -30.5 28.1 M-9.35 26.9 L-9.35 27.5 -9.95 28.1 -9.35 28.75 -8.75 28.75 -7.55 28.75 -7.55 28.1 -7.55 27.5 -8.75 26.9 -9.35 26.9 M-13.6 27.5 L-14.2 26.9 -15.4 26.3 -16.0 26.3 -16.0 26.9 -16.6 27.5 -16.0 28.1 -15.4 28.1 -14.2 28.1 -13.6 27.5" fill="#1d1211" fill-rule="evenodd" stroke="none"/>
    <path d="M39.65 32.95 L42.05 37.8 33.0 45.65 26.35 40.2 26.95 39.0 29.35 40.2 33.6 38.4 34.8 39.0 33.6 35.4 33.6 37.8 29.35 39.0 26.95 37.8 26.35 34.8 30.6 31.75 39.65 32.95 M-39.6 32.95 L-31.1 31.75 -27.5 34.8 -27.5 37.8 -29.3 39.0 -33.55 37.8 -34.15 35.4 -35.35 39.0 -34.15 38.4 -29.9 40.2 -27.5 39.0 -27.5 40.2 -33.55 45.65 -42.6 37.8 -39.6 32.95" fill="#54acce" fill-rule="evenodd" stroke="none"/>
  </g>
</svg>
