<?xml version="1.0" encoding="UTF-8" standalone="no"?>
<svg xmlns:xlink="http://www.w3.org/1999/xlink" height="65.4px" width="29.5px" xmlns="http://www.w3.org/2000/svg">
  <g transform="matrix(1.0, 0.0, 0.0, 1.0, 17.45, -16.15)">
    <path d="M9.3 62.25 L11.8 66.0 11.15 75.75 7.85 80.5 0.5 81.55 -2.3 69.05 -2.5 16.9 12.0 16.9 9.3 62.25" fill="#291214" fill-rule="evenodd" stroke="none"/>
    <path d="M-2.9 17.55 L-2.45 75.75 -16.6 76.05 -17.45 72.1 -14.05 69.45 -17.1 16.15 -2.9 17.55" fill="#291214" fill-rule="evenodd" stroke="none"/>
    <path d="M11.65 17.2 L11.65 17.15 12.05 17.15 11.65 17.2" fill="#1d1211" fill-rule="evenodd" stroke="none"/>
    <path d="M11.65 17.2 L8.9 55.75 3.4 55.05 -2.05 55.75 -1.65 20.0 11.65 17.2 M2.5 58.3 L3.05 58.8 3.8 58.05 3.8 55.9 2.5 55.9 3.8 55.75 8.9 56.45 8.9 62.2 1.85 58.6 -2.05 64.3 -2.05 56.45 2.25 55.95 1.85 57.35 2.25 58.05 2.3 58.1 2.3 58.3 2.5 58.3 M0.7 58.8 L0.3 57.35 -1.3 57.35 -1.3 60.2 0.3 60.2 0.7 58.8 M7.35 60.2 L8.1 59.5 8.5 58.8 8.1 57.35 6.55 57.35 6.55 59.5 7.35 60.2 M8.85 63.0 L11.65 66.0 11.05 75.15 7.85 79.75 0.7 80.6 -1.65 69.3 -1.45 64.95 2.5 60.25 8.85 63.0" fill="#481520" fill-rule="evenodd" stroke="none"/>
    <path d="M2.5 58.3 L3.45 58.3 3.45 56.85 3.05 56.1 2.3 56.85 2.3 58.1 2.25 58.05 1.85 57.35 2.25 55.95 2.25 55.9 2.5 55.9 3.8 55.9 3.8 58.05 3.05 58.8 2.5 58.3 M0.7 58.8 L0.3 60.2 -1.3 60.2 -1.3 57.35 0.3 57.35 0.7 58.8 M6.95 59.7 L7.75 59.7 7.75 59.0 8.15 59.0 7.35 57.55 6.6 59.0 6.95 59.7 M7.35 60.2 L6.55 59.5 6.55 57.35 8.1 57.35 8.5 58.8 8.1 59.5 7.35 60.2 M-0.85 59.7 L-0.1 59.7 -0.1 59.0 0.3 59.0 -0.45 57.55 -1.25 59.0 -0.85 59.7" fill="#291214" fill-rule="evenodd" stroke="none"/>
    <path d="M2.3 58.1 L2.3 56.85 3.05 56.1 3.45 56.85 3.45 58.3 2.5 58.3 2.3 58.3 2.3 58.1 M6.95 59.7 L6.6 59.0 7.35 57.55 8.15 59.0 7.75 59.0 7.75 59.7 6.95 59.7 M-0.85 59.7 L-1.25 59.0 -0.45 57.55 0.3 59.0 -0.1 59.0 -0.1 59.7 -0.85 59.7" fill="#c25e86" fill-rule="evenodd" stroke="none"/>
    <path d="M-16.45 17.25 L-16.5 17.25 -16.85 17.15 -16.5 17.15 -16.45 17.25" fill="#1d1211" fill-rule="evenodd" stroke="none"/>
    <path d="M-16.45 17.25 L-3.15 20.05 -2.8 62.9 -8.25 62.2 -13.75 62.9 -16.45 17.25 M-13.35 65.9 L-12.95 66.6 -12.15 67.3 -11.35 66.6 -11.35 64.45 -12.95 64.45 -13.35 65.9 M-7.05 63.1 L-2.8 63.65 -2.8 71.45 -2.8 72.9 -16.5 73.6 -16.85 72.2 -6.7 67.2 -6.3 67.2 -2.8 71.45 -6.7 65.75 -13.75 69.35 -13.75 63.65 -8.65 62.9 -7.65 63.0 -8.65 63.0 -8.65 65.15 -7.85 65.9 -7.35 65.45 -7.1 65.45 -7.1 65.2 -7.05 65.15 -6.7 64.45 -7.05 63.1 M-3.55 67.3 L-3.55 64.45 -5.1 64.45 -5.5 65.9 -5.1 67.3 -3.55 67.3 M-16.5 74.35 L-2.8 73.6 -2.8 75.05 -16.5 75.05 -16.5 74.35" fill="#481520" fill-rule="evenodd" stroke="none"/>
    <path d="M-13.35 65.9 L-12.95 64.45 -11.35 64.45 -11.35 66.6 -12.15 67.3 -12.95 66.6 -13.35 65.9 M-12.55 66.15 L-12.55 66.85 -11.8 66.85 -11.4 66.15 -12.2 64.7 -12.95 66.15 -12.55 66.15 M-7.65 63.0 L-7.05 63.0 -7.05 63.1 -6.7 64.45 -7.05 65.15 -7.1 65.2 -7.1 64.0 -7.9 63.3 -8.25 64.0 -8.25 65.45 -7.35 65.45 -7.85 65.9 -8.65 65.15 -8.65 63.0 -7.65 63.0 M-3.6 66.15 L-4.35 64.7 -5.15 66.15 -4.75 66.15 -4.75 66.85 -3.95 66.85 -3.6 66.15 M-3.55 67.3 L-5.1 67.3 -5.5 65.9 -5.1 64.45 -3.55 64.45 -3.55 67.3" fill="#291214" fill-rule="evenodd" stroke="none"/>
    <path d="M-12.55 66.15 L-12.95 66.15 -12.2 64.7 -11.4 66.15 -11.8 66.85 -12.55 66.85 -12.55 66.15 M-7.1 65.2 L-7.1 65.45 -7.35 65.45 -8.25 65.45 -8.25 64.0 -7.9 63.3 -7.1 64.0 -7.1 65.2 M-3.6 66.15 L-3.95 66.85 -4.75 66.85 -4.75 66.15 -5.15 66.15 -4.35 64.7 -3.6 66.15" fill="#c25e86" fill-rule="evenodd" stroke="none"/>
  </g>
</svg>
