<?xml version="1.0" encoding="UTF-8" standalone="no"?>
<svg xmlns:xlink="http://www.w3.org/1999/xlink" height="60.0px" width="21.2px" xmlns="http://www.w3.org/2000/svg">
  <g transform="matrix(1.0, 0.0, 0.0, 1.0, 12.25, 114.75)">
    <path d="M-8.6 -102.05 L-9.8 -103.85 -10.45 -106.25 -6.8 -103.85 -5.6 -107.5 -5.0 -112.9 -2.55 -111.7 -1.35 -112.9 -0.15 -114.75 0.45 -112.3 1.05 -111.1 1.65 -108.7 2.2 -104.55 1.65 -105.05 -2.55 -105.05 1.65 -105.65 1.05 -105.65 1.05 -109.9 -0.15 -114.15 -2.55 -110.5 -3.15 -111.7 -4.4 -112.3 -5.6 -105.05 -5.6 -104.45 -6.2 -103.85 -5.6 -103.85 -5.6 -103.25 -6.2 -103.25 -5.0 -102.65 -2.55 -102.65 1.05 -103.25 2.3 -103.85 3.5 -105.05 5.3 -107.5 4.7 -102.05 2.9 -102.05 8.95 -62.65 -1.35 -54.75 -11.65 -63.85 -12.25 -63.85 -9.2 -85.7 -6.2 -102.05 -3.75 -102.05 -8.6 -103.85 -9.8 -105.05 -9.8 -104.45 -8.6 -102.05 M2.2 -104.4 L2.3 -103.85 1.65 -103.85 1.05 -104.45 1.65 -105.05 1.65 -103.85 2.2 -104.4 M-0.15 -104.45 L0.45 -104.45 0.45 -103.85 -0.15 -104.45 -0.75 -103.85 -0.15 -103.85 -0.15 -103.25 -0.75 -103.85 -0.75 -104.05 -0.15 -104.45 M2.3 -103.25 L-1.95 -102.05 1.05 -102.65 4.1 -102.65 4.7 -106.25 3.5 -104.45 2.3 -103.25 M0.45 -85.7 L-0.75 -86.9 -1.35 -86.3 -1.35 -86.9 -0.75 -86.9 -0.15 -86.9 0.45 -86.3 0.45 -85.7 M2.25 -96.55 L2.3 -96.6 2.3 -97.2 2.9 -96.6 2.9 -96.0 2.4 -95.7 -1.35 -93.55 2.3 -92.95 -1.35 -92.95 -1.95 -93.55 -1.95 -92.95 -2.55 -94.15 -2.65 -93.4 -3.75 -91.75 -4.55 -91.55 -4.6 -91.55 -6.2 -91.15 -4.4 -91.75 -3.15 -92.95 -5.0 -92.95 -3.15 -93.55 -6.2 -95.4 -6.2 -96.0 -6.25 -96.0 -6.5 -96.0 -11.65 -66.35 -11.05 -66.35 -10.45 -65.85 -10.45 -65.75 -9.35 -64.8 -9.8 -65.75 -9.8 -68.15 -8.6 -74.2 -6.2 -81.95 -5.6 -83.9 -5.6 -84.5 -3.75 -83.3 -3.75 -83.9 -3.15 -83.3 -3.15 -82.7 -1.35 -83.9 0.45 -84.5 5.3 -71.2 5.9 -67.55 5.9 -66.95 5.9 -65.75 5.3 -64.55 5.9 -66.95 4.7 -71.8 -0.15 -83.9 -2.55 -82.7 -3.15 -82.7 -3.75 -82.7 -5.0 -83.9 -6.2 -80.0 -7.4 -76.05 -9.2 -67.55 -6.8 -74.2 -6.2 -75.2 -5.0 -77.25 -3.15 -79.05 -6.2 -74.5 -6.8 -73.6 -9.2 -66.95 -9.2 -64.7 -6.2 -62.1 -6.2 -62.4 -1.35 -58.5 6.5 -63.95 8.3 -65.15 2.3 -102.05 -2.55 -101.45 -5.6 -101.45 -6.2 -100.2 -5.8 -100.2 -5.9 -99.6 -6.2 -99.6 -6.2 -97.9 -6.4 -96.6 -6.2 -96.6 -6.1 -96.65 -5.6 -97.2 -5.6 -96.6 -2.55 -94.8 -1.95 -99.0 -1.95 -94.8 2.25 -96.55 M4.7 -70.6 L5.3 -68.75 0.45 -76.65 -3.15 -79.05 -2.55 -79.65 -1.35 -78.45 0.45 -77.25 4.7 -70.6 M-1.95 -104.45 L-2.55 -103.85 -1.95 -103.85 -1.95 -103.25 -2.55 -103.85 -2.55 -104.45 -1.95 -104.45 M-4.4 -103.85 L-3.75 -103.85 -3.75 -103.25 -4.4 -103.85 M-2.8 -92.5 L-3.75 -85.7 -3.75 -88.1 -3.5 -89.35 -3.5 -89.4 -2.8 -92.5 M-1.35 -92.95 L1.65 -91.15 -0.15 -91.75 -1.35 -92.95 M-5.6 -84.5 L-5.6 -85.1 -5.0 -85.7 -5.6 -84.5" fill="#000000" fill-rule="evenodd" stroke="none"/>
    <path d="M0.45 -85.7 L0.45 -86.3 -0.15 -86.9 -0.75 -86.9 -1.35 -86.9 -1.35 -86.3 -0.75 -86.9 0.45 -85.7 M2.4 -95.7 L4.1 -85.1 6.5 -63.95 -1.35 -58.5 -6.2 -62.4 -6.2 -74.5 -3.15 -79.05 -5.0 -77.25 -6.2 -75.2 -6.2 -80.0 -5.0 -83.9 -3.75 -82.7 -3.15 -82.7 -2.55 -82.7 -0.15 -83.9 4.7 -71.8 5.9 -66.95 5.9 -67.55 5.3 -71.2 0.45 -84.5 -1.35 -83.9 -3.15 -82.7 -3.15 -83.3 -3.75 -83.9 -3.75 -83.3 -5.6 -84.5 -5.6 -83.9 -6.2 -81.95 -6.2 -91.15 -6.2 -95.4 -3.15 -93.55 -5.0 -92.95 -3.15 -92.95 -4.4 -91.75 -6.2 -91.15 -4.6 -91.55 -4.55 -91.55 -3.75 -91.75 -2.65 -93.4 -2.55 -94.15 -1.95 -92.95 -1.95 -93.55 -1.35 -92.95 2.3 -92.95 -1.35 -93.55 2.4 -95.7 M-5.8 -100.2 L1.65 -100.2 2.25 -96.55 -1.95 -94.8 -1.95 -99.0 -2.55 -94.8 -5.6 -96.6 -5.6 -97.2 -6.1 -96.65 -5.6 -99.6 -5.9 -99.6 -5.8 -100.2 M-6.2 -96.6 L-6.4 -96.6 -6.2 -97.9 -6.2 -96.6 M4.7 -70.6 L0.45 -77.25 -1.35 -78.45 -2.55 -79.65 -3.15 -79.05 0.45 -76.65 5.3 -68.75 4.7 -70.6 M5.9 -66.95 L5.3 -64.55 5.9 -65.75 5.9 -66.95 M-10.45 -65.85 L-11.05 -66.35 -11.65 -66.35 -6.5 -96.0 -6.25 -96.0 -8.6 -82.7 -10.45 -65.85 M-2.55 -93.55 L-2.65 -93.4 -2.55 -93.55 M-1.35 -92.95 L-0.15 -91.75 1.65 -91.15 -1.35 -92.95 M-2.8 -92.5 L-3.5 -89.4 -3.5 -89.35 -3.75 -88.1 -3.75 -85.7 -2.8 -92.5 M-5.6 -84.5 L-5.0 -85.7 -5.6 -85.1 -5.6 -84.5" fill="#b2b1cb" fill-rule="evenodd" stroke="none"/>
    <path d="M-8.6 -102.05 L-9.8 -104.45 -9.8 -105.05 -8.6 -103.85 -3.75 -102.05 -6.2 -102.05 -8.6 -102.05 M-4.4 -112.3 L-3.15 -111.7 -2.55 -110.5 -0.15 -114.15 1.05 -109.9 1.05 -105.65 1.65 -105.65 -2.55 -105.05 -1.95 -106.85 -1.95 -109.9 -2.55 -109.9 -4.4 -111.7 -4.4 -112.3 M2.3 -103.25 L3.5 -104.45 4.7 -106.25 4.1 -102.65 1.05 -102.65 -1.95 -102.05 2.3 -103.25" fill="#333333" fill-rule="evenodd" stroke="none"/>
    <path d="M2.4 -95.7 L2.9 -96.0 2.9 -96.6 2.3 -97.2 2.3 -96.6 2.25 -96.55 1.65 -100.2 -5.8 -100.2 -6.2 -100.2 -5.6 -101.45 -2.55 -101.45 2.3 -102.05 8.3 -65.15 6.5 -63.95 4.1 -85.1 2.4 -95.7" fill="#7173b3" fill-rule="evenodd" stroke="none"/>
    <path d="M-6.1 -96.65 L-6.2 -96.6 -6.2 -97.9 -6.2 -99.6 -5.9 -99.6 -5.6 -99.6 -6.1 -96.65 M-6.2 -80.0 L-6.2 -75.2 -6.8 -74.2 -9.2 -67.55 -7.4 -76.05 -6.2 -80.0 M-6.2 -74.5 L-6.2 -62.4 -6.2 -62.1 -9.2 -64.7 -9.2 -66.95 -6.8 -73.6 -6.2 -74.5 M-6.2 -81.95 L-8.6 -74.2 -9.8 -68.15 -9.8 -65.75 -9.35 -64.8 -10.45 -65.75 -10.45 -65.85 -8.6 -82.7 -6.25 -96.0 -6.2 -96.0 -6.2 -95.4 -6.2 -91.15 -6.2 -81.95" fill="#d9dae6" fill-rule="evenodd" stroke="none"/>
    <path d="M2.3 -103.85 L1.05 -103.25 -2.55 -102.65 -5.0 -102.65 -6.2 -103.25 -5.6 -103.25 -5.0 -103.85 -5.6 -104.45 -5.6 -105.05 -2.55 -105.05 1.65 -105.05 1.05 -104.45 1.65 -103.85 2.3 -103.85 M0.45 -103.85 L0.45 -104.45 -0.15 -104.45 -0.75 -104.05 -0.75 -103.85 -0.15 -103.25 0.45 -103.85 M-1.95 -103.25 L-1.35 -103.85 -1.95 -104.45 -2.55 -104.45 -2.55 -103.85 -1.95 -103.25 M-3.75 -103.25 L-3.15 -103.85 -3.75 -104.45 -4.4 -103.85 -3.75 -103.25" fill="#989898" fill-rule="evenodd" stroke="none"/>
    <path d="M-5.6 -103.25 L-5.6 -103.85 -6.2 -103.85 -5.6 -104.45 -5.0 -103.85 -5.6 -103.25 M1.65 -105.05 L2.2 -104.55 2.3 -104.45 2.2 -104.4 1.65 -103.85 1.65 -105.05 M-0.15 -104.45 L0.45 -103.85 -0.15 -103.25 -0.15 -103.85 -0.75 -103.85 -0.15 -104.45 M-1.95 -104.45 L-1.35 -103.85 -1.95 -103.25 -1.95 -103.85 -2.55 -103.85 -1.95 -104.45 M-3.75 -103.25 L-3.75 -103.85 -4.4 -103.85 -3.75 -104.45 -3.15 -103.85 -3.75 -103.25" fill="#cbcbcb" fill-rule="evenodd" stroke="none"/>
    <path d="M-5.6 -105.05 L-4.4 -112.3 -4.4 -111.7 -2.55 -109.9 -1.95 -109.9 -1.95 -106.85 -2.55 -105.05 -5.6 -105.05" fill="#666666" fill-rule="evenodd" stroke="none"/>
  </g>
</svg>
