<?xml version="1.0" encoding="UTF-8" standalone="no"?>
<svg xmlns:xlink="http://www.w3.org/1999/xlink" height="64.45px" width="29.7px" xmlns="http://www.w3.org/2000/svg">
  <g transform="matrix(1.0, 0.0, 0.0, 1.0, 17.0, -16.15)">
    <path d="M11.5 75.25 L7.95 80.05 0.6 80.6 -2.25 73.75 -2.4 19.25 12.7 16.9 9.4 68.85 11.85 71.2 11.5 75.25" fill="#291214" fill-rule="evenodd" stroke="none"/>
    <path d="M-2.95 47.8 L-2.2 61.15 -2.35 72.25 -5.15 73.9 -15.95 73.45 -16.8 69.5 -13.95 66.85 -13.85 60.9 -16.2 48.8 -17.0 16.15 -2.75 19.95 -2.95 47.8" fill="#291214" fill-rule="evenodd" stroke="none"/>
    <path d="M11.75 19.55 L12.15 19.55 11.75 19.6 11.75 19.55" fill="#261817" fill-rule="evenodd" stroke="none"/>
    <path d="M7.4 64.35 L7.35 64.3 7.35 64.35 6.55 64.35 6.55 66.5 7.35 67.2 8.1 66.5 8.5 65.8 8.1 64.35 7.4 64.35 M3.1 62.9 L3.05 62.85 3.0 62.9 2.25 62.9 1.85 64.35 2.25 65.05 3.05 65.8 3.8 65.05 3.8 62.9 3.1 62.9 M-0.5 64.35 L-1.3 64.35 -1.3 67.2 0.3 67.2 0.7 65.8 0.3 64.35 -0.45 64.35 -0.45 64.3 -0.5 64.35 M8.8 62.5 L3.35 61.75 -2.15 62.5 -1.85 21.4 11.55 19.8 8.8 62.5 M2.5 67.9 L8.85 69.75 11.65 71.75 11.05 74.65 7.85 79.15 0.7 79.65 -1.65 73.9 -1.45 71.05 2.5 67.9 M8.9 62.95 L8.9 68.7 1.85 67.2 -2.05 70.8 -2.05 62.95 3.8 62.25 8.9 62.95" fill="#481520" fill-rule="evenodd" stroke="none"/>
    <path d="M7.4 64.35 L8.1 64.35 8.5 65.8 8.1 66.5 7.35 67.2 6.55 66.5 6.55 64.35 7.35 64.35 6.6 65.75 6.95 66.45 7.75 66.45 7.75 65.75 8.15 65.75 7.4 64.35 M3.0 62.9 L2.3 63.55 2.3 65.0 3.45 65.0 3.45 63.55 3.1 62.9 3.8 62.9 3.8 65.05 3.05 65.8 2.25 65.05 1.85 64.35 2.25 62.9 3.0 62.9 M-0.45 64.35 L0.3 64.35 0.7 65.8 0.3 67.2 -1.3 67.2 -1.3 64.35 -0.5 64.35 -1.25 65.75 -0.85 66.45 -0.1 66.45 -0.1 65.75 0.3 65.75 -0.45 64.35" fill="#291214" fill-rule="evenodd" stroke="none"/>
    <path d="M7.35 64.35 L7.35 64.3 7.4 64.35 8.15 65.75 7.75 65.75 7.75 66.45 6.95 66.45 6.6 65.75 7.35 64.35 M3.0 62.9 L3.05 62.85 3.1 62.9 3.45 63.55 3.45 65.0 2.3 65.0 2.3 63.55 3.0 62.9 M-0.45 64.35 L0.3 65.75 -0.1 65.75 -0.1 66.45 -0.85 66.45 -1.25 65.75 -0.5 64.35 -0.45 64.3 -0.45 64.35" fill="#c25e86" fill-rule="evenodd" stroke="none"/>
    <path d="M-16.4 19.55 L-16.4 19.6 -16.8 19.55 -16.4 19.55" fill="#261817" fill-rule="evenodd" stroke="none"/>
    <path d="M-16.2 18.65 L-2.9 21.4 -3.35 47.2 -2.75 60.1 -8.25 59.4 -13.75 60.1 -15.85 48.9 -16.2 18.65 M-7.75 60.65 L-8.45 60.65 -8.45 62.8 -7.65 63.55 -6.85 62.8 -6.5 62.1 -6.85 60.65 -7.65 60.65 -7.7 60.6 -7.75 60.65 M-2.6 60.65 L-2.6 68.55 -6.55 64.95 -13.55 66.4 -13.55 60.65 -8.5 60.0 -2.6 60.65 M-12.0 62.1 L-12.0 62.05 -12.05 62.1 -12.75 62.1 -13.15 63.55 -12.75 64.25 -11.95 64.95 -11.15 64.25 -11.15 62.1 -12.0 62.1 M-16.3 69.5 L-13.5 67.5 -7.15 65.65 -3.2 68.75 -3.0 71.65 -5.4 72.8 -15.7 72.4 -16.3 69.5 M-4.15 62.1 L-4.2 62.05 -4.2 62.1 -4.9 62.1 -5.3 63.55 -4.9 64.95 -3.35 64.95 -3.35 62.1 -4.15 62.1" fill="#481520" fill-rule="evenodd" stroke="none"/>
    <path d="M-7.65 60.65 L-6.85 60.65 -6.5 62.1 -6.85 62.8 -7.65 63.55 -8.45 62.8 -8.45 60.65 -7.75 60.65 -8.1 61.35 -8.1 62.75 -6.95 62.75 -6.95 61.35 -7.65 60.65 M-12.0 62.1 L-11.15 62.1 -11.15 64.25 -11.95 64.95 -12.75 64.25 -13.15 63.55 -12.75 62.1 -12.05 62.1 -12.8 63.5 -12.4 63.5 -12.4 64.2 -11.6 64.2 -11.25 63.5 -12.0 62.1 M-4.15 62.1 L-3.35 62.1 -3.35 64.95 -4.9 64.95 -5.3 63.55 -4.9 62.1 -4.2 62.1 -4.95 63.5 -4.55 63.5 -4.55 64.2 -3.8 64.2 -3.4 63.5 -4.15 62.1" fill="#291214" fill-rule="evenodd" stroke="none"/>
    <path d="M-7.65 60.65 L-6.95 61.35 -6.95 62.75 -8.1 62.75 -8.1 61.35 -7.75 60.65 -7.7 60.6 -7.65 60.65 M-12.05 62.1 L-12.0 62.05 -12.0 62.1 -11.25 63.5 -11.6 64.2 -12.4 64.2 -12.4 63.5 -12.8 63.5 -12.05 62.1 M-4.2 62.1 L-4.2 62.05 -4.15 62.1 -3.4 63.5 -3.8 64.2 -4.55 64.2 -4.55 63.5 -4.95 63.5 -4.2 62.1" fill="#c25e86" fill-rule="evenodd" stroke="none"/>
  </g>
</svg>
