<?xml version="1.0" encoding="UTF-8" standalone="no"?>
<svg xmlns:xlink="http://www.w3.org/1999/xlink" height="108.85px" width="77.4px" xmlns="http://www.w3.org/2000/svg">
  <g transform="matrix(1.0, 0.0, 0.0, 1.0, 40.65, 65.95)">
    <path d="M2.3 -54.45 L2.9 -54.45 10.15 -61.1 8.95 -64.75 -0.75 -59.9 2.3 -54.45 M2.1 -53.0 L2.3 -52.65 1.65 -52.65 0.45 -50.25 1.05 -50.25 3.15 -41.9 8.8 -58.9 2.1 -53.0 M11.35 -61.1 L10.75 -60.6 34.35 -41.75 33.75 -40.55 36.75 -15.75 31.3 23.55 30.1 23.55 29.5 27.8 28.3 27.8 31.3 33.25 22.25 42.9 15.0 35.65 16.8 33.25 16.2 28.4 16.8 28.4 19.2 25.4 19.2 21.75 18.0 21.75 19.8 6.65 17.4 -6.05 12.55 0.0 13.75 22.95 13.15 22.95 -1.0 25.75 -3.2 25.4 -4.4 25.4 -4.4 25.2 -17.7 22.95 -18.3 22.95 -16.45 0.0 -21.9 -6.05 -24.35 6.65 -21.9 21.75 -23.15 21.75 -23.15 25.4 -20.7 28.4 -20.1 28.4 -20.7 33.25 -19.5 35.65 -26.15 42.9 -35.2 33.25 -32.8 27.8 -33.4 27.8 -34.0 23.55 -35.2 23.55 -40.65 -15.75 -37.65 -40.55 -38.25 -41.75 -14.2 -60.65 -14.65 -61.1 -13.45 -65.95 -12.85 -65.95 -1.95 -59.9 9.55 -65.95 10.15 -65.95 11.35 -61.1 M15.6 -53.25 L15.0 -53.25 14.35 -53.85 15.6 -55.05 16.8 -55.05 14.35 -56.9 13.75 -49.0 7.1 -47.2 9.55 -41.15 2.1 -32.5 8.95 -41.15 6.5 -47.2 13.15 -49.0 13.75 -57.5 10.75 -59.3 0.0 -30.05 -1.35 -28.45 -1.35 -25.45 1.3 -28.45 1.05 -28.45 1.05 -29.05 1.65 -29.05 1.65 -28.85 12.55 -41.15 8.95 -46.0 14.35 -46.0 16.2 -46.0 16.2 -53.25 15.6 -53.25 15.6 -53.85 16.2 -53.85 15.6 -54.45 15.0 -53.85 15.6 -53.25 M1.05 -30.25 L0.45 -29.05 1.05 -28.45 0.45 -28.45 -0.15 -29.05 0.45 -30.25 1.05 -30.25 1.65 -30.25 1.65 -29.05 1.05 -30.25 M31.3 -41.75 L30.1 -40.55 30.7 -39.35 31.3 -38.75 31.9 -39.35 31.9 -41.15 31.3 -41.75 M24.65 -26.65 L25.25 -26.65 25.85 -26.05 26.4 -24.95 32.4 -38.65 31.3 -38.15 30.1 -38.75 29.5 -40.55 30.1 -41.75 31.3 -42.35 31.9 -42.35 32.5 -41.75 32.5 -38.95 33.75 -41.75 30.7 -43.55 12.55 -1.25 20.4 -12.75 21.05 -12.75 25.8 -23.55 24.65 -23.0 23.45 -23.6 23.45 -26.05 24.65 -26.65 24.05 -26.05 24.05 -24.2 24.65 -23.6 25.25 -24.2 25.25 -25.45 25.85 -25.45 24.65 -26.65 M30.1 -43.55 L29.5 -43.55 17.4 -54.45 16.8 -44.8 10.75 -44.8 13.15 -41.15 -0.75 -24.35 -0.75 19.95 12.55 17.5 11.35 -0.65 30.1 -43.55 M26.45 -32.1 L27.7 -30.85 28.3 -31.5 28.3 -32.1 28.9 -32.1 28.3 -33.3 27.7 -33.9 27.05 -33.3 26.45 -32.1 M13.75 -47.2 L13.75 -47.8 14.35 -48.4 15.0 -48.4 15.0 -47.8 15.6 -47.2 14.35 -46.0 13.75 -46.6 13.75 -47.2 14.35 -46.6 14.35 -47.2 15.0 -47.2 14.35 -47.8 13.75 -47.2 M27.7 -33.9 L28.3 -33.9 28.9 -33.3 28.9 -32.1 28.9 -30.85 27.7 -30.25 26.45 -30.85 25.85 -32.1 26.45 -33.3 27.7 -33.9 M10.75 -41.75 L11.35 -41.75 11.35 -40.55 10.75 -39.95 9.55 -40.55 9.55 -41.15 9.55 -41.75 10.75 -41.75 10.15 -41.15 10.75 -40.55 10.75 -41.75 M8.3 -47.2 L8.95 -47.2 9.55 -46.6 8.3 -45.4 7.7 -46.0 7.7 -46.6 7.7 -47.2 8.3 -47.2 7.7 -46.6 8.3 -45.4 8.3 -46.6 8.95 -46.6 8.3 -47.2 M5.3 -35.1 L5.3 -35.7 5.9 -36.3 6.5 -36.3 6.5 -35.7 7.1 -35.1 6.5 -34.5 5.9 -34.5 5.9 -35.1 6.5 -35.1 5.9 -35.7 5.3 -35.1 5.9 -34.5 5.3 -34.5 5.3 -35.1 M7.9 -28.0 L7.7 -27.85 5.3 -28.45 7.9 -28.0 13.75 -32.7 14.35 -32.7 14.35 -32.1 15.6 -32.7 15.85 -32.1 15.6 -32.1 14.35 -31.5 16.8 -27.25 17.4 -27.25 16.6 -30.45 18.0 -27.25 19.2 -27.25 19.2 -26.05 7.9 -28.0 M16.2 -27.25 L13.75 -32.1 8.95 -28.45 15.6 -27.25 16.2 -27.25 M19.8 -14.55 L19.2 -15.75 19.8 -16.95 21.05 -17.55 21.65 -17.55 21.65 -16.95 22.25 -15.75 21.65 -14.55 21.65 -16.35 21.05 -16.95 19.8 -16.35 19.8 -14.55 21.65 -14.55 21.05 -13.95 19.8 -14.55 M33.1 -38.75 L22.25 -12.75 18.0 -6.7 21.05 7.25 19.2 16.9 31.3 18.75 36.15 -15.15 33.1 -38.75 M-13.2 -59.75 L-17.7 -57.5 -17.1 -49.0 -10.45 -47.2 -12.85 -41.15 -3.15 -29.65 -10.8 -57.5 -13.2 -59.75 M-18.9 -53.85 L-19.5 -54.45 -20.1 -53.85 -19.5 -53.85 -19.5 -53.25 -20.1 -53.25 -20.1 -46.0 -18.3 -46.0 -13.45 -46.0 -12.85 -46.6 -12.85 -47.2 -12.25 -47.2 -11.65 -46.6 -11.65 -46.0 -11.65 -45.7 -11.05 -47.2 -17.7 -49.0 -18.3 -56.9 -20.7 -55.05 -19.5 -55.05 -18.9 -54.45 -18.9 -53.85 -18.9 -53.25 -19.5 -53.25 -18.9 -53.85 M-11.65 -46.0 L-12.25 -46.6 -12.85 -46.0 -12.25 -46.0 -12.25 -45.4 -11.65 -46.0 M-6.2 -52.65 L-6.0 -53.0 -9.75 -56.55 -6.05 -43.2 -4.4 -49.6 -4.25 -49.75 -6.2 -52.65 M-5.6 -53.85 L-3.15 -59.9 -12.85 -64.75 -14.05 -61.1 -6.2 -53.85 -5.6 -53.85 M-3.15 -53.25 L-2.55 -52.65 -1.35 -52.65 -1.35 -53.85 -1.95 -54.45 -3.15 -53.25 -3.15 -54.45 -1.95 -55.05 -1.35 -55.05 -0.75 -54.45 -0.75 -52.65 -1.95 -52.05 -3.15 -52.65 -3.15 -53.25 M-1.95 -43.55 L-1.35 -43.55 -0.75 -42.95 -0.15 -41.75 -0.75 -40.55 -1.95 -39.95 -2.55 -40.55 -3.15 -41.75 -2.55 -42.95 -1.95 -43.55 M-0.15 -49.6 L-3.15 -49.6 -5.6 -41.15 -1.95 -29.05 2.3 -39.95 -0.15 -49.6 M-3.15 -50.25 L-0.15 -50.25 1.05 -52.65 -1.95 -58.1 -5.0 -52.65 -3.15 -50.25 M-1.95 -42.95 L-2.55 -42.35 -2.55 -41.15 -1.95 -40.55 -0.75 -41.15 -0.75 -42.35 -1.95 -42.95 M-12.25 -44.8 L-13.1 -45.65 -17.1 -41.15 -1.4 -23.05 -1.35 -23.0 -1.4 -23.1 -1.95 -27.25 -3.75 -29.4 -3.75 -29.05 -3.75 -28.45 -4.4 -27.85 -5.6 -29.05 -5.0 -29.65 -5.0 -30.25 -4.45 -30.25 -13.45 -41.15 -14.65 -39.95 -15.25 -40.55 -15.25 -41.15 -15.25 -41.75 -14.65 -41.75 -14.05 -41.75 -13.45 -41.15 -11.85 -45.2 -12.25 -44.8 M-18.3 -46.0 L-19.5 -47.2 -18.9 -47.8 -18.9 -48.4 -18.3 -48.4 -17.7 -47.8 -17.7 -47.2 -17.7 -46.6 -18.3 -46.0 M-17.7 -47.2 L-18.3 -47.8 -18.9 -47.2 -18.3 -47.2 -18.3 -46.6 -17.7 -47.2 M-14.65 -41.75 L-15.25 -41.15 -14.65 -41.15 -14.65 -40.55 -14.05 -41.15 -14.65 -41.75 M-14.65 -44.8 L-20.7 -44.8 -21.3 -54.45 -33.4 -43.55 -34.0 -43.55 -15.85 -0.65 -16.45 17.5 -4.4 19.35 -3.75 -24.8 -17.7 -41.15 -14.65 -44.8 M-10.45 -35.1 L-10.45 -35.7 -9.8 -35.7 -9.2 -35.7 -8.6 -35.1 -9.8 -33.9 -10.45 -34.5 -10.45 -35.1 -9.8 -35.1 -9.8 -34.5 -9.2 -35.1 -9.8 -35.7 -10.45 -35.1 M-4.4 -29.05 L-4.4 -28.45 -3.75 -29.05 -4.4 -29.65 -5.0 -29.05 -4.4 -29.05 M-36.45 -40.55 L-35.85 -40.55 -35.85 -39.35 -35.2 -38.75 -34.6 -39.35 -34.0 -40.55 -35.2 -41.75 -36.45 -40.55 -36.45 -41.75 -35.85 -42.35 -35.2 -42.35 -34.3 -41.9 -35.2 -43.55 -37.65 -41.75 -36.45 -39.0 -36.45 -40.55 M-28.55 -26.65 L-27.35 -26.05 -27.35 -23.6 -28.55 -23.0 -29.7 -23.55 -26.15 -15.55 -26.15 -16.95 -25.55 -17.55 -24.95 -17.55 -23.75 -16.95 -23.15 -15.75 -23.75 -14.55 -24.95 -13.95 -25.6 -14.25 -24.95 -12.75 -24.35 -12.75 -16.45 -1.25 -32.2 -38.15 -34.0 -41.4 -34.0 -40.55 -34.0 -38.75 -35.2 -38.15 -36.3 -38.65 -33.4 -32.1 -30.3 -25.0 -29.8 -26.05 -29.2 -26.65 -28.55 -26.65 -29.2 -26.05 -29.8 -24.8 -29.2 -24.8 -29.2 -24.2 -28.55 -23.6 -27.95 -24.2 -27.95 -26.05 -28.55 -26.65 M-30.4 -32.1 L-31.0 -33.3 -31.6 -33.9 -30.4 -33.3 -30.4 -32.1 -30.4 -30.85 -31.6 -30.25 -32.8 -30.85 -33.4 -32.1 -32.8 -33.3 -32.2 -33.9 -31.6 -33.9 -32.2 -33.3 -32.8 -32.1 -32.2 -32.1 -32.2 -31.5 -31.6 -30.85 -30.4 -32.1 M-25.55 -16.35 L-25.55 -14.55 -24.35 -14.55 -23.75 -15.75 -24.95 -16.95 -25.55 -16.35 M-26.15 -12.75 L-37.05 -38.75 -40.05 -15.15 -35.2 18.75 -23.15 16.9 -24.95 7.25 -21.9 -6.7 -26.15 -12.75 M-3.15 -24.2 L-3.75 19.95 -15.85 18.1 -16.45 18.1 -17.1 22.35 -1.35 24.75 -1.35 22.95 -2.55 23.55 -3.15 22.95 -3.15 22.35 -3.15 21.15 -2.55 21.15 -1.35 21.75 -1.35 16.3 -2.55 16.9 -3.15 16.3 -3.15 15.7 -3.15 14.5 -2.55 14.5 -1.35 15.1 -1.35 9.65 -2.55 9.65 -3.15 9.65 -3.15 9.05 -3.15 7.85 -2.55 7.85 -1.35 7.85 -1.35 3.0 -2.55 3.0 -3.15 3.0 -3.15 1.8 -3.15 1.2 -2.55 1.2 -1.35 1.2 -1.35 -4.25 -2.55 -3.65 -3.15 -4.25 -3.15 -4.85 -3.15 -6.05 -2.55 -6.05 -1.35 -5.45 -1.35 -10.9 -1.95 -10.3 -3.15 -10.9 -3.15 -11.5 -3.15 -12.1 -2.55 -12.75 -1.95 -12.75 -1.35 -12.1 -1.35 -17.55 -1.95 -17.55 -3.15 -17.55 -3.15 -19.4 -1.95 -19.4 -1.35 -19.4 -1.35 -22.4 -3.15 -24.2 M-1.95 -17.55 L-1.35 -18.15 -1.95 -19.4 -2.55 -18.15 -1.95 -18.15 -1.95 -17.55 M-1.95 -12.1 L-3.15 -11.5 -2.55 -11.5 -1.95 -10.9 -1.35 -11.5 -1.95 -12.1 M-3.15 -4.85 L-2.55 -4.85 -2.55 -4.25 -1.35 -4.85 -2.55 -5.45 -3.15 -4.85 M-3.15 1.8 L-2.55 1.8 -2.55 3.0 -1.95 1.8 -2.55 1.2 -3.15 1.8 M-6.8 5.4 L-7.4 6.0 -12.8 6.5 -6.8 5.4 M-3.15 9.05 L-2.55 9.05 -2.55 9.65 -1.95 9.05 -2.55 7.85 -3.15 9.05 M-15.85 20.55 L-15.25 20.55 -15.25 21.15 -14.65 20.55 -15.25 19.35 -15.85 20.55 -15.85 19.35 -15.25 19.35 -14.65 19.35 -14.05 20.55 -14.65 21.15 -15.25 21.15 -15.85 21.15 -15.85 20.55 M-11.65 21.15 L-11.65 19.95 -11.05 19.95 -9.8 21.15 -10.45 21.75 -11.05 21.75 -10.45 21.15 -11.05 20.55 -11.65 21.15 -11.05 21.15 -11.05 21.75 -11.65 21.75 -11.65 21.15 M-2.55 15.7 L-2.55 16.3 -1.95 15.7 -2.55 15.1 -3.15 15.7 -2.55 15.7 M-6.8 20.55 L-6.2 21.15 -6.2 21.75 -6.2 22.35 -6.8 22.95 -8.0 21.75 -7.4 21.15 -7.4 20.55 -6.8 20.55 M-6.2 21.75 L-6.8 21.15 -7.4 21.75 -6.8 21.75 -6.8 22.35 -6.2 21.75 M-0.75 20.55 L-0.75 21.15 -0.15 21.75 -0.15 22.95 -0.75 23.25 -0.75 24.5 13.15 22.35 12.55 18.1 11.95 18.1 -0.75 20.55 M-3.15 22.35 L-2.55 22.35 -2.55 22.95 -1.95 22.35 -2.55 21.75 -3.15 22.35 M-33.4 22.35 L-34.0 22.35 -34.6 21.15 -34.0 19.95 -34.0 19.8 -34.6 19.95 -35.2 19.95 -34.6 22.95 -23.15 21.15 -23.75 17.5 -32.95 19.55 -32.2 19.95 -32.2 22.35 -33.4 22.35 -32.8 21.75 -32.8 20.55 -33.4 19.95 -34.0 20.55 -34.0 21.75 -33.4 22.35 M-25.55 20.55 L-26.15 19.35 -25.55 18.75 -25.55 20.55 -24.35 20.55 -23.75 19.35 -24.35 18.75 -25.55 18.75 -25.55 18.1 -24.95 18.1 -23.75 18.75 -23.75 19.35 -23.75 20.55 -24.95 21.15 -25.55 20.55 M-27.95 19.35 L-27.35 20.55 -27.95 21.15 -28.55 21.75 -29.8 21.15 -29.8 20.55 -29.8 19.35 -29.2 18.75 -28.55 18.75 -27.95 19.35 -29.2 19.35 -29.8 20.55 -29.2 20.55 -29.2 21.15 -27.95 21.15 -27.95 19.35 M-33.4 24.15 L-32.8 27.2 -23.75 25.4 -24.35 22.35 -33.4 24.15 M-24.35 26.6 L-31.6 27.8 -34.0 32.65 -26.75 41.7 -20.7 35.65 -21.3 33.85 -23.75 35.65 -26.75 33.25 -27.95 34.45 -26.75 30.2 -26.75 32.65 -23.15 33.85 -21.3 33.25 -20.7 29.6 -24.35 26.6 M19.8 20.55 L19.2 19.35 20.4 18.1 21.05 18.1 21.65 18.75 21.65 19.35 21.05 18.75 19.8 18.75 19.8 20.55 21.05 20.55 21.05 19.35 21.65 19.35 21.65 20.55 20.4 21.15 19.8 20.55 M19.2 19.35 L19.2 21.15 30.7 22.95 31.3 19.95 30.7 19.95 30.1 19.8 30.1 19.95 30.7 21.15 30.1 22.35 29.5 22.35 28.3 22.35 28.3 21.15 28.3 19.95 29.0 19.6 25.35 18.8 25.85 19.35 25.85 20.55 25.85 21.15 24.65 21.75 23.45 20.55 24.05 19.35 24.65 18.75 25.0 18.75 19.2 17.5 19.2 19.35 M24.05 19.35 L24.05 21.15 25.25 21.15 25.25 20.55 25.85 20.55 25.25 19.35 24.05 19.35 M29.5 19.95 L28.3 21.15 29.5 22.35 30.1 21.75 30.1 20.55 29.5 19.95 M2.9 6.0 L2.9 5.4 9.0 6.55 2.9 6.0 M4.1 21.75 L4.1 22.35 3.5 22.95 2.3 21.75 3.5 20.55 4.1 20.55 4.1 21.75 3.5 21.15 2.9 21.75 3.5 22.35 3.5 21.75 4.1 21.75 M7.7 19.95 L7.7 20.55 8.3 21.15 7.1 22.35 5.9 21.15 7.1 19.95 7.7 19.95 M6.5 21.15 L7.1 21.75 7.1 21.15 7.7 21.15 7.1 20.55 6.5 21.15 M10.15 20.55 L10.15 19.95 10.75 19.35 11.35 19.35 11.95 19.95 11.95 20.55 10.75 19.95 10.15 20.55 10.75 21.15 11.35 20.55 11.95 20.55 11.95 21.15 10.75 21.75 10.15 21.15 10.15 20.55 M17.4 33.25 L19.2 33.85 22.85 32.65 22.85 30.2 24.05 34.45 22.85 33.25 19.2 35.65 17.4 33.85 16.8 35.65 22.25 41.7 30.1 32.65 27.7 27.8 20.4 26.6 16.8 29.6 17.4 33.25 M29.5 24.15 L19.8 22.35 19.8 25.4 28.9 27.2 29.5 24.15" fill="#291214" fill-rule="evenodd" stroke="none"/>
    <path d="M2.1 -53.0 L8.8 -58.9 3.15 -41.9 1.05 -50.25 0.45 -50.25 1.65 -52.65 2.3 -52.65 2.1 -53.0 M2.3 -54.45 L-0.75 -59.9 8.95 -64.75 10.15 -61.1 2.9 -54.45 2.3 -54.45 M15.6 -53.25 L15.0 -53.85 15.6 -54.45 16.2 -53.85 15.6 -53.85 15.6 -53.25 M1.65 -29.05 L1.05 -29.05 1.05 -28.45 0.45 -29.05 1.05 -30.25 1.65 -29.05 M31.3 -41.75 L31.9 -41.15 31.9 -39.35 31.3 -38.75 30.7 -39.35 30.1 -40.55 31.3 -41.75 M24.65 -26.65 L25.85 -25.45 25.25 -25.45 25.25 -24.2 24.65 -23.6 24.05 -24.2 24.05 -26.05 24.65 -26.65 M26.45 -32.1 L27.05 -33.3 27.7 -33.9 28.3 -33.3 28.9 -32.1 28.3 -32.1 28.3 -31.5 27.7 -30.85 26.45 -32.1 M13.75 -47.2 L14.35 -47.8 15.0 -47.2 14.35 -47.2 14.35 -46.6 13.75 -47.2 M10.75 -41.75 L10.75 -40.55 10.15 -41.15 10.75 -41.75 M8.3 -47.2 L8.95 -46.6 8.3 -46.6 8.3 -45.4 7.7 -46.6 8.3 -47.2 M5.3 -35.1 L5.9 -35.7 6.5 -35.1 5.9 -35.1 5.9 -34.5 5.3 -35.1 M15.85 -32.1 L16.2 -32.1 16.6 -30.45 17.4 -27.25 16.8 -27.25 14.35 -31.5 15.6 -32.1 15.85 -32.1 M16.2 -27.25 L15.6 -27.25 8.95 -28.45 13.75 -32.1 16.2 -27.25 M19.8 -14.55 L19.8 -16.35 21.05 -16.95 21.65 -16.35 21.65 -14.55 19.8 -14.55 M-19.5 -53.25 L-19.5 -53.85 -20.1 -53.85 -19.5 -54.45 -18.9 -53.85 -19.5 -53.25 M-11.65 -46.0 L-12.25 -45.4 -12.25 -46.0 -12.85 -46.0 -12.25 -46.6 -11.65 -46.0 M-6.2 -52.65 L-4.25 -49.75 -4.4 -49.6 -6.05 -43.2 -9.75 -56.55 -6.0 -53.0 -6.2 -52.65 M-5.6 -53.85 L-6.2 -53.85 -14.05 -61.1 -12.85 -64.75 -3.15 -59.9 -5.6 -53.85 M-3.15 -53.25 L-1.95 -54.45 -1.35 -53.85 -1.35 -52.65 -2.55 -52.65 -3.15 -53.25 M-1.95 -42.95 L-0.75 -42.35 -0.75 -41.15 -1.95 -40.55 -2.55 -41.15 -2.55 -42.35 -1.95 -42.95 M-17.7 -47.2 L-18.3 -46.6 -18.3 -47.2 -18.9 -47.2 -18.3 -47.8 -17.7 -47.2 M-14.65 -41.75 L-14.05 -41.15 -14.65 -40.55 -14.65 -41.15 -15.25 -41.15 -14.65 -41.75 M-10.45 -35.1 L-9.8 -35.7 -9.2 -35.1 -9.8 -34.5 -9.8 -35.1 -10.45 -35.1 M-4.4 -29.05 L-5.0 -29.05 -4.4 -29.65 -3.75 -29.05 -4.4 -28.45 -4.4 -29.05 M-34.0 -40.55 L-34.6 -39.35 -35.2 -38.75 -35.85 -39.35 -35.85 -40.55 -36.45 -40.55 -35.2 -41.75 -34.0 -40.55 M-28.55 -26.65 L-27.95 -26.05 -27.95 -24.2 -28.55 -23.6 -29.2 -24.2 -29.2 -24.8 -29.8 -24.8 -29.2 -26.05 -28.55 -26.65 M-31.6 -33.9 L-31.0 -33.3 -30.4 -32.1 -31.6 -30.85 -32.2 -31.5 -32.2 -32.1 -32.8 -32.1 -32.2 -33.3 -31.6 -33.9 M-25.55 -16.35 L-24.95 -16.95 -23.75 -15.75 -24.35 -14.55 -25.55 -14.55 -25.55 -16.35 M-1.95 -17.55 L-1.95 -18.15 -2.55 -18.15 -1.95 -19.4 -1.35 -18.15 -1.95 -17.55 M-3.15 1.8 L-2.55 1.2 -1.95 1.8 -2.55 3.0 -2.55 1.8 -3.15 1.8 M-3.15 -4.85 L-2.55 -5.45 -1.35 -4.85 -2.55 -4.25 -2.55 -4.85 -3.15 -4.85 M-1.95 -12.1 L-1.35 -11.5 -1.95 -10.9 -2.55 -11.5 -3.15 -11.5 -1.95 -12.1 M-15.85 20.55 L-15.25 19.35 -14.65 20.55 -15.25 21.15 -15.25 20.55 -15.85 20.55 M-3.15 9.05 L-2.55 7.85 -1.95 9.05 -2.55 9.65 -2.55 9.05 -3.15 9.05 M-11.65 21.15 L-11.05 20.55 -10.45 21.15 -11.05 21.75 -11.05 21.15 -11.65 21.15 M-2.55 15.7 L-3.15 15.7 -2.55 15.1 -1.95 15.7 -2.55 16.3 -2.55 15.7 M-6.2 21.75 L-6.8 22.35 -6.8 21.75 -7.4 21.75 -6.8 21.15 -6.2 21.75 M-3.15 22.35 L-2.55 21.75 -1.95 22.35 -2.55 22.95 -2.55 22.35 -3.15 22.35 M-33.4 22.35 L-34.0 21.75 -34.0 20.55 -33.4 19.95 -32.8 20.55 -32.8 21.75 -33.4 22.35 M-25.55 20.55 L-25.55 18.75 -24.35 18.75 -23.75 19.35 -24.35 20.55 -25.55 20.55 M-27.95 19.35 L-27.95 21.15 -29.2 21.15 -29.2 20.55 -29.8 20.55 -29.2 19.35 -27.95 19.35 M19.8 20.55 L19.8 18.75 21.05 18.75 21.65 19.35 21.05 19.35 21.05 20.55 19.8 20.55 M29.5 19.95 L30.1 20.55 30.1 21.75 29.5 22.35 28.3 21.15 29.5 19.95 M24.05 19.35 L25.25 19.35 25.85 20.55 25.25 20.55 25.25 21.15 24.05 21.15 24.05 19.35 M4.1 21.75 L3.5 21.75 3.5 22.35 2.9 21.75 3.5 21.15 4.1 21.75 M6.5 21.15 L7.1 20.55 7.7 21.15 7.1 21.15 7.1 21.75 6.5 21.15 M10.15 20.55 L10.75 19.95 11.95 20.55 11.35 20.55 10.75 21.15 10.15 20.55" fill="#c25e86" fill-rule="evenodd" stroke="none"/>
    <path d="M-3.15 -53.25 L-3.15 -52.65 -1.95 -52.05 -0.75 -52.65 -0.75 -54.45 -1.35 -55.05 -1.95 -55.05 -3.15 -54.45 -3.15 -53.25 M-3.15 -50.25 L-5.0 -52.65 -1.95 -58.1 1.05 -52.65 -0.15 -50.25 -3.15 -50.25 M-0.15 -49.6 L2.3 -39.95 -1.95 -29.05 -5.6 -41.15 -3.15 -49.6 -0.15 -49.6 M-1.95 -43.55 L-2.55 -42.95 -3.15 -41.75 -2.55 -40.55 -1.95 -39.95 -0.75 -40.55 -0.15 -41.75 -0.75 -42.95 -1.35 -43.55 -1.95 -43.55" fill="#6c1836" fill-rule="evenodd" stroke="none"/>
    <path d="M1.05 -28.45 L1.3 -28.45 -1.35 -25.45 -1.35 -28.45 0.0 -30.05 10.75 -59.3 13.75 -57.5 13.15 -49.0 6.5 -47.2 8.95 -41.15 2.1 -32.5 9.55 -41.15 7.1 -47.2 13.75 -49.0 14.35 -56.9 16.8 -55.05 15.6 -55.05 14.35 -53.85 15.0 -53.25 15.6 -53.25 16.2 -53.25 16.2 -46.0 14.35 -46.0 8.95 -46.0 12.55 -41.15 1.65 -28.85 1.65 -29.05 1.65 -30.25 1.05 -30.25 0.45 -30.25 -0.15 -29.05 0.45 -28.45 1.05 -28.45 M24.65 -26.65 L23.45 -26.05 23.45 -23.6 24.65 -23.0 25.8 -23.55 21.05 -12.75 20.4 -12.75 12.55 -1.25 30.7 -43.55 33.75 -41.75 32.5 -38.95 32.5 -41.75 31.9 -42.35 31.3 -42.35 30.1 -41.75 29.5 -40.55 30.1 -38.75 31.3 -38.15 32.4 -38.65 26.4 -24.95 25.85 -26.05 25.25 -26.65 24.65 -26.65 M30.1 -43.55 L11.35 -0.65 12.55 17.5 -0.75 19.95 -0.75 -24.35 13.15 -41.15 10.75 -44.8 16.8 -44.8 17.4 -54.45 29.5 -43.55 30.1 -43.55 M27.7 -33.9 L26.45 -33.3 25.85 -32.1 26.45 -30.85 27.7 -30.25 28.9 -30.85 28.9 -32.1 28.9 -33.3 28.3 -33.9 27.7 -33.9 M13.75 -47.2 L13.75 -46.6 14.35 -46.0 15.6 -47.2 15.0 -47.8 15.0 -48.4 14.35 -48.4 13.75 -47.8 13.75 -47.2 M10.75 -41.75 L9.55 -41.75 9.55 -41.15 9.55 -40.55 10.75 -39.95 11.35 -40.55 11.35 -41.75 10.75 -41.75 M8.3 -47.2 L7.7 -47.2 7.7 -46.6 7.7 -46.0 8.3 -45.4 9.55 -46.6 8.95 -47.2 8.3 -47.2 M5.9 -34.5 L6.5 -34.5 7.1 -35.1 6.5 -35.7 6.5 -36.3 5.9 -36.3 5.3 -35.7 5.3 -35.1 5.3 -34.5 5.9 -34.5 M7.9 -28.0 L5.3 -28.45 7.7 -27.85 7.9 -28.0 19.2 -26.05 19.2 -27.25 18.0 -27.25 16.6 -30.45 16.2 -32.1 15.85 -32.1 15.6 -32.7 14.35 -32.1 14.35 -32.7 13.75 -32.7 7.9 -28.0 M21.65 -14.55 L22.25 -15.75 21.65 -16.95 21.65 -17.55 21.05 -17.55 19.8 -16.95 19.2 -15.75 19.8 -14.55 21.05 -13.95 21.65 -14.55 M33.1 -38.75 L36.15 -15.15 31.3 18.75 19.2 16.9 21.05 7.25 18.0 -6.7 22.25 -12.75 33.1 -38.75 M-13.2 -59.75 L-10.8 -57.5 -3.15 -29.65 -12.85 -41.15 -10.45 -47.2 -17.1 -49.0 -17.7 -57.5 -13.2 -59.75 M-18.9 -53.85 L-18.9 -54.45 -19.5 -55.05 -20.7 -55.05 -18.3 -56.9 -17.7 -49.0 -11.05 -47.2 -11.65 -45.7 -11.65 -46.0 -11.65 -46.6 -12.25 -47.2 -12.85 -47.2 -12.85 -46.6 -13.45 -46.0 -18.3 -46.0 -20.1 -46.0 -20.1 -53.25 -19.5 -53.25 -18.9 -53.25 -18.9 -53.85 M-18.3 -46.0 L-17.7 -46.6 -17.7 -47.2 -17.7 -47.8 -18.3 -48.4 -18.9 -48.4 -18.9 -47.8 -19.5 -47.2 -18.3 -46.0 M-12.25 -44.8 L-11.85 -45.2 -13.45 -41.15 -14.05 -41.75 -14.65 -41.75 -15.25 -41.75 -15.25 -41.15 -15.25 -40.55 -14.65 -39.95 -13.45 -41.15 -4.45 -30.25 -5.0 -30.25 -5.0 -29.65 -5.6 -29.05 -4.4 -27.85 -3.75 -28.45 -3.75 -29.05 -3.75 -29.4 -1.95 -27.25 -1.4 -23.1 -1.35 -23.0 -1.4 -23.05 -17.1 -41.15 -13.1 -45.65 -12.25 -44.8 M-10.45 -35.1 L-10.45 -34.5 -9.8 -33.9 -8.6 -35.1 -9.2 -35.7 -9.8 -35.7 -10.45 -35.7 -10.45 -35.1 M-14.65 -44.8 L-17.7 -41.15 -3.75 -24.8 -4.4 19.35 -16.45 17.5 -15.85 -0.65 -34.0 -43.55 -33.4 -43.55 -21.3 -54.45 -20.7 -44.8 -14.65 -44.8 M-36.45 -40.55 L-36.45 -39.0 -37.65 -41.75 -35.2 -43.55 -34.3 -41.9 -35.2 -42.35 -35.85 -42.35 -36.45 -41.75 -36.45 -40.55 M-34.0 -40.55 L-34.0 -41.4 -32.2 -38.15 -16.45 -1.25 -24.35 -12.75 -24.95 -12.75 -25.6 -14.25 -24.95 -13.95 -23.75 -14.55 -23.15 -15.75 -23.75 -16.95 -24.95 -17.55 -25.55 -17.55 -26.15 -16.95 -26.15 -15.55 -29.7 -23.55 -28.55 -23.0 -27.35 -23.6 -27.35 -26.05 -28.55 -26.65 -29.2 -26.65 -29.8 -26.05 -30.3 -25.0 -33.4 -32.1 -36.3 -38.65 -35.2 -38.15 -34.0 -38.75 -34.0 -40.55 M-30.4 -32.1 L-30.4 -33.3 -31.6 -33.9 -32.2 -33.9 -32.8 -33.3 -33.4 -32.1 -32.8 -30.85 -31.6 -30.25 -30.4 -30.85 -30.4 -32.1 M-3.15 -24.2 L-1.35 -22.4 -1.35 -19.4 -1.95 -19.4 -3.15 -19.4 -3.15 -17.55 -1.95 -17.55 -1.35 -17.55 -1.35 -12.1 -1.95 -12.75 -2.55 -12.75 -3.15 -12.1 -3.15 -11.5 -3.15 -10.9 -1.95 -10.3 -1.35 -10.9 -1.35 -5.45 -2.55 -6.05 -3.15 -6.05 -3.15 -4.85 -3.15 -4.25 -2.55 -3.65 -1.35 -4.25 -1.35 1.2 -2.55 1.2 -3.15 1.2 -3.15 1.8 -3.15 3.0 -2.55 3.0 -1.35 3.0 -1.35 7.85 -2.55 7.85 -3.15 7.85 -3.15 9.05 -3.15 9.65 -2.55 9.65 -1.35 9.65 -1.35 15.1 -2.55 14.5 -3.15 14.5 -3.15 15.7 -3.15 16.3 -2.55 16.9 -1.35 16.3 -1.35 21.75 -2.55 21.15 -3.15 21.15 -3.15 22.35 -3.15 22.95 -2.55 23.55 -1.35 22.95 -1.35 24.75 -17.1 22.35 -16.45 18.1 -15.85 18.1 -3.75 19.95 -3.15 -24.2 M-26.15 -12.75 L-21.9 -6.7 -24.95 7.25 -23.15 16.9 -35.2 18.75 -40.05 -15.15 -37.05 -38.75 -26.15 -12.75 M-6.8 5.4 L-12.8 6.5 -7.4 6.0 -6.8 5.4 M-15.85 20.55 L-15.85 21.15 -15.25 21.15 -14.65 21.15 -14.05 20.55 -14.65 19.35 -15.25 19.35 -15.85 19.35 -15.85 20.55 M-11.05 21.75 L-10.45 21.75 -9.8 21.15 -11.05 19.95 -11.65 19.95 -11.65 21.15 -11.65 21.75 -11.05 21.75 M-6.8 20.55 L-7.4 20.55 -7.4 21.15 -8.0 21.75 -6.8 22.95 -6.2 22.35 -6.2 21.75 -6.2 21.15 -6.8 20.55 M-0.75 20.55 L11.95 18.1 12.55 18.1 13.15 22.35 -0.75 24.5 -0.75 23.25 -0.15 22.95 -0.15 21.75 -0.75 21.15 -0.75 20.55 M-33.4 22.35 L-32.2 22.35 -32.2 19.95 -32.95 19.55 -23.75 17.5 -23.15 21.15 -34.6 22.95 -35.2 19.95 -34.6 19.95 -34.0 19.8 -34.0 19.95 -34.6 21.15 -34.0 22.35 -33.4 22.35 M-25.55 18.75 L-26.15 19.35 -25.55 20.55 -24.95 21.15 -23.75 20.55 -23.75 19.35 -23.75 18.75 -24.95 18.1 -25.55 18.1 -25.55 18.75 M-27.95 19.35 L-28.55 18.75 -29.2 18.75 -29.8 19.35 -29.8 20.55 -29.8 21.15 -28.55 21.75 -27.95 21.15 -27.35 20.55 -27.95 19.35 M-33.4 24.15 L-24.35 22.35 -23.75 25.4 -32.8 27.2 -33.4 24.15 M21.65 19.35 L21.65 18.75 21.05 18.1 20.4 18.1 19.2 19.35 19.8 20.55 20.4 21.15 21.65 20.55 21.65 19.35 M19.2 19.35 L19.2 17.5 25.0 18.75 24.65 18.75 24.05 19.35 23.45 20.55 24.65 21.75 25.85 21.15 25.85 20.55 25.85 19.35 25.35 18.8 29.0 19.6 28.3 19.95 28.3 21.15 28.3 22.35 29.5 22.35 30.1 22.35 30.7 21.15 30.1 19.95 30.1 19.8 30.7 19.95 31.3 19.95 30.7 22.95 19.2 21.15 19.2 19.35 M2.9 6.0 L9.0 6.55 2.9 5.4 2.9 6.0 M4.1 21.75 L4.1 20.55 3.5 20.55 2.3 21.75 3.5 22.95 4.1 22.35 4.1 21.75 M7.7 19.95 L7.1 19.95 5.9 21.15 7.1 22.35 8.3 21.15 7.7 20.55 7.7 19.95 M11.95 20.55 L11.95 19.95 11.35 19.35 10.75 19.35 10.15 19.95 10.15 20.55 10.15 21.15 10.75 21.75 11.95 21.15 11.95 20.55 M29.5 24.15 L28.9 27.2 19.8 25.4 19.8 22.35 29.5 24.15" fill="#481520" fill-rule="evenodd" stroke="none"/>
    <path d="M-24.35 26.6 L-20.7 29.6 -21.3 33.25 -23.15 33.85 -26.75 32.65 -26.75 30.2 -27.95 34.45 -26.75 33.25 -23.75 35.65 -21.3 33.85 -20.7 35.65 -26.75 41.7 -34.0 32.65 -31.6 27.8 -24.35 26.6 M17.4 33.25 L16.8 29.6 20.4 26.6 27.7 27.8 30.1 32.65 22.25 41.7 16.8 35.65 17.4 33.85 19.2 35.65 22.85 33.25 24.05 34.45 22.85 30.2 22.85 32.65 19.2 33.85 17.4 33.25" fill="#b2b1cb" fill-rule="evenodd" stroke="none"/>
  </g>
</svg>
