<?xml version="1.0" encoding="UTF-8" standalone="no"?>
<svg xmlns:xlink="http://www.w3.org/1999/xlink" height="63.2px" width="29.55px" xmlns="http://www.w3.org/2000/svg">
  <g transform="matrix(1.0, 0.0, 0.0, 1.0, 17.4, -17.3)">
    <path d="M9.1 74.55 L12.1 76.4 12.05 80.5 -2.55 80.35 -2.3 21.6 12.15 18.65 9.1 74.55" fill="#291214" fill-rule="evenodd" stroke="none"/>
    <path d="M-3.95 42.5 L-2.6 54.65 -2.7 64.95 -15.65 64.95 -16.5 60.95 -14.3 60.0 -14.5 54.45 -17.4 44.1 -16.55 17.3 -2.6 20.65 -3.95 42.5" fill="#291214" fill-rule="evenodd" stroke="none"/>
    <path d="M11.5 21.9 L11.85 21.9 11.5 22.0 11.5 21.9" fill="#261817" fill-rule="evenodd" stroke="none"/>
    <path d="M11.5 21.9 L11.5 22.0 8.75 67.6 3.3 66.9 -2.2 67.6 -1.8 23.6 11.5 20.8 11.5 21.9 M2.1 70.4 L2.1 70.55 2.2 70.55 2.7 71.0 1.7 70.5 -2.2 76.2 1.3 71.95 1.7 71.95 11.85 76.9 11.5 78.35 -2.2 77.6 -2.2 76.2 -2.2 68.35 3.65 67.6 8.75 68.35 8.75 74.05 3.0 71.15 3.7 70.45 3.7 68.3 2.15 68.3 1.75 69.75 2.1 70.4 M-1.4 71.25 L-1.4 72.6 0.2 72.6 0.6 71.2 0.2 69.75 -1.4 69.75 -1.4 71.25 M6.45 71.25 L6.45 71.9 7.25 72.6 8.0 71.9 8.4 71.2 8.0 69.75 6.45 69.75 6.45 71.25 M11.5 79.1 L11.5 79.75 -2.2 79.75 -2.2 78.35 11.5 79.1" fill="#481520" fill-rule="evenodd" stroke="none"/>
    <path d="M2.2 70.55 L3.3 70.55 3.3 69.1 2.9 68.4 2.1 69.1 2.1 70.4 1.75 69.75 2.15 68.3 3.7 68.3 3.7 70.45 3.0 71.15 2.9 71.2 2.7 71.0 2.2 70.55 M-1.4 71.25 L-1.4 69.75 0.2 69.75 0.6 71.2 0.2 72.6 -1.4 72.6 -1.4 71.25 -1.0 72.0 -0.25 72.0 -0.25 71.25 0.15 71.25 -0.6 69.85 -1.4 71.25 M6.45 71.25 L6.8 72.0 7.6 72.0 7.6 71.25 8.0 71.25 7.2 69.85 6.45 71.25 6.45 69.75 8.0 69.75 8.4 71.2 8.0 71.9 7.25 72.6 6.45 71.9 6.45 71.25" fill="#291214" fill-rule="evenodd" stroke="none"/>
    <path d="M2.1 70.4 L2.1 69.1 2.9 68.4 3.3 69.1 3.3 70.55 2.2 70.55 2.1 70.55 2.1 70.4 M-1.4 71.25 L-0.6 69.85 0.15 71.25 -0.25 71.25 -0.25 72.0 -1.0 72.0 -1.4 71.25 M6.45 71.25 L7.2 69.85 8.0 71.25 7.6 71.25 7.6 72.0 6.8 72.0 6.45 71.25" fill="#c25e86" fill-rule="evenodd" stroke="none"/>
    <path d="M-16.3 21.95 L-16.65 21.9 -16.3 21.9 -16.3 21.95" fill="#261817" fill-rule="evenodd" stroke="none"/>
    <path d="M-4.3 42.5 L-3.2 54.2 -8.7 53.4 -14.2 54.2 -16.8 44.1 -16.15 20.05 -3.25 22.85 -4.3 42.5 M-7.2 57.2 L-7.15 57.15 -6.8 56.45 -7.15 55.0 -8.75 55.0 -8.75 57.15 -7.95 57.9 -7.25 57.25 -7.2 57.25 -7.2 57.2 M-5.2 56.45 L-5.6 57.9 -5.2 59.3 -3.65 59.3 -3.65 56.45 -5.2 56.45 M-2.9 55.0 L-2.9 62.3 -6.8 58.7 -13.8 60.15 -13.8 55.0 -8.75 54.3 -2.9 55.0 M-11.45 58.6 L-11.45 56.45 -13.05 56.45 -13.45 57.9 -13.05 58.6 -12.25 59.3 -11.45 58.6 M-2.8 64.95 L-15.05 64.95 -15.65 61.2 -6.95 59.15 -3.0 62.3 -2.8 64.95" fill="#481520" fill-rule="evenodd" stroke="none"/>
    <path d="M-7.25 57.25 L-7.95 57.9 -8.75 57.15 -8.75 55.0 -7.15 55.0 -6.8 56.45 -7.15 57.15 -7.2 57.2 -7.2 55.8 -7.95 55.1 -8.35 55.8 -8.35 57.25 -7.25 57.25 M-5.2 56.45 L-3.65 56.45 -3.65 59.3 -5.2 59.3 -5.6 57.9 -5.2 56.45 M-4.05 58.65 L-3.65 57.95 -4.45 56.5 -5.25 57.95 -4.85 57.95 -4.85 58.65 -4.05 58.65 M-11.9 58.65 L-11.5 57.95 -12.25 56.5 -13.05 57.95 -12.65 57.95 -12.65 58.65 -11.9 58.65 M-11.45 58.6 L-12.25 59.3 -13.05 58.6 -13.45 57.9 -13.05 56.45 -11.45 56.45 -11.45 58.6" fill="#291214" fill-rule="evenodd" stroke="none"/>
    <path d="M-7.2 57.2 L-7.2 57.25 -7.25 57.25 -8.35 57.25 -8.35 55.8 -7.95 55.1 -7.2 55.8 -7.2 57.2 M-4.05 58.65 L-4.85 58.65 -4.85 57.95 -5.25 57.95 -4.45 56.5 -3.65 57.95 -4.05 58.65 M-11.9 58.65 L-12.65 58.65 -12.65 57.95 -13.05 57.95 -12.25 56.5 -11.5 57.95 -11.9 58.65" fill="#c25e86" fill-rule="evenodd" stroke="none"/>
  </g>
</svg>
