<?xml version="1.0" encoding="UTF-8" standalone="no"?>
<svg xmlns:xlink="http://www.w3.org/1999/xlink" height="65.3px" width="30.5px" xmlns="http://www.w3.org/2000/svg">
  <g transform="matrix(1.0, 0.0, 0.0, 1.0, 16.95, -16.15)">
    <path d="M10.15 69.45 L13.55 72.1 12.7 76.05 -1.4 75.75 -1.05 17.55 13.25 16.15 10.15 69.45" fill="#291214" fill-rule="evenodd" stroke="none"/>
    <path d="M-2.65 17.8 L-2.3 74.1 -5.1 81.45 -12.55 80.55 -16.1 70.85 -16.75 65.75 -14.05 62.35 -16.95 16.4 -2.65 17.8" fill="#291214" fill-rule="evenodd" stroke="none"/>
    <path d="M12.7 17.25 L12.7 17.15 13.1 17.15 12.7 17.25" fill="#1d1211" fill-rule="evenodd" stroke="none"/>
    <path d="M12.7 17.25 L10.0 62.9 4.5 62.2 -1.0 62.9 -0.6 20.05 12.7 17.25 M8.45 64.7 L7.65 64.7 7.65 66.85 8.45 67.55 9.2 66.85 9.6 66.15 9.2 64.7 8.45 64.7 M3.35 65.45 L4.1 66.15 4.9 65.4 4.9 63.25 3.35 63.25 2.95 64.7 3.35 65.4 3.35 65.45 M0.6 64.7 L-0.2 64.7 -0.2 67.55 1.4 67.55 1.8 66.15 1.4 64.7 0.6 64.7 M2.95 67.2 L13.1 72.2 12.7 73.6 -1.0 72.9 -1.0 71.45 -1.0 63.65 4.9 62.9 10.0 63.65 10.0 69.35 2.95 65.75 -1.0 71.45 2.55 67.2 2.95 67.2 M12.7 74.35 L12.7 75.05 -1.0 75.05 -1.0 73.6 12.7 74.35" fill="#481520" fill-rule="evenodd" stroke="none"/>
    <path d="M8.45 64.7 L9.2 64.7 9.6 66.15 9.2 66.85 8.45 67.55 7.65 66.85 7.65 64.7 8.45 64.7 7.65 66.15 8.05 66.85 8.85 66.85 8.85 66.15 9.2 66.15 8.45 64.7 M3.35 65.4 L2.95 64.7 3.35 63.25 4.9 63.25 4.9 65.4 4.1 66.15 3.35 65.45 4.55 65.45 4.55 64.0 4.15 63.3 3.35 64.0 3.35 65.4 M0.6 64.7 L1.4 64.7 1.8 66.15 1.4 67.55 -0.2 67.55 -0.2 64.7 0.6 64.7 -0.15 66.15 0.25 66.85 1.0 66.85 1.0 66.15 1.4 66.15 0.6 64.7" fill="#291214" fill-rule="evenodd" stroke="none"/>
    <path d="M8.45 64.7 L9.2 66.15 8.85 66.15 8.85 66.85 8.05 66.85 7.65 66.15 8.45 64.7 M3.35 65.4 L3.35 64.0 4.15 63.3 4.55 64.0 4.55 65.45 3.35 65.45 3.35 65.4 M0.6 64.7 L1.4 66.15 1.0 66.15 1.0 66.85 0.25 66.85 -0.15 66.15 0.6 64.7" fill="#c25e86" fill-rule="evenodd" stroke="none"/>
    <path d="M-16.3 17.2 L-16.7 17.15 -16.3 17.15 -16.3 17.2" fill="#1d1211" fill-rule="evenodd" stroke="none"/>
    <path d="M-16.3 17.2 L-3.0 20.0 -2.6 55.75 -8.1 55.0 -13.55 55.75 -16.3 17.2 M-7.75 56.15 L-8.45 56.15 -8.45 58.3 -7.65 59.05 -6.85 58.3 -6.5 57.6 -6.85 56.15 -7.65 56.15 -7.7 56.1 -7.75 56.15 M-4.15 57.6 L-4.2 57.55 -4.2 57.6 -4.9 57.6 -5.3 59.05 -4.9 60.45 -3.35 60.45 -3.35 57.6 -4.15 57.6 M-2.6 56.4 L-2.6 64.3 -6.55 58.6 -13.55 62.2 -13.55 56.4 -8.5 55.75 -2.6 56.4 M-12.0 57.6 L-12.0 57.55 -12.05 57.6 -12.75 57.6 -13.15 59.05 -12.75 59.75 -11.95 60.45 -11.15 59.75 -11.15 57.6 -12.0 57.6 M-13.5 62.95 L-7.15 60.2 -3.2 64.9 -3.0 74.0 -5.4 80.6 -12.55 79.75 -15.7 70.4 -16.3 66.0 -13.5 62.95" fill="#481520" fill-rule="evenodd" stroke="none"/>
    <path d="M-7.65 56.15 L-6.85 56.15 -6.5 57.6 -6.85 58.3 -7.65 59.05 -8.45 58.3 -8.45 56.15 -7.75 56.15 -8.1 56.85 -8.1 58.3 -6.95 58.3 -6.95 56.85 -7.65 56.15 M-4.15 57.6 L-3.35 57.6 -3.35 60.45 -4.9 60.45 -5.3 59.05 -4.9 57.6 -4.2 57.6 -4.95 59.0 -4.55 59.0 -4.55 59.7 -3.8 59.7 -3.4 59.0 -4.15 57.6 M-12.0 57.6 L-11.15 57.6 -11.15 59.75 -11.95 60.45 -12.75 59.75 -13.15 59.05 -12.75 57.6 -12.05 57.6 -12.8 59.0 -12.4 59.0 -12.4 59.7 -11.6 59.7 -11.25 59.0 -12.0 57.6" fill="#291214" fill-rule="evenodd" stroke="none"/>
    <path d="M-7.65 56.15 L-6.95 56.85 -6.95 58.3 -8.1 58.3 -8.1 56.85 -7.75 56.15 -7.7 56.1 -7.65 56.15 M-4.2 57.6 L-4.2 57.55 -4.15 57.6 -3.4 59.0 -3.8 59.7 -4.55 59.7 -4.55 59.0 -4.95 59.0 -4.2 57.6 M-12.05 57.6 L-12.0 57.55 -12.0 57.6 -11.25 59.0 -11.6 59.7 -12.4 59.7 -12.4 59.0 -12.8 59.0 -12.05 57.6" fill="#c25e86" fill-rule="evenodd" stroke="none"/>
  </g>
</svg>
