<?xml version="1.0" encoding="UTF-8" standalone="no"?>
<svg xmlns:xlink="http://www.w3.org/1999/xlink" height="65.4px" width="30.3px" xmlns="http://www.w3.org/2000/svg">
  <g transform="matrix(1.0, 0.0, 0.0, 1.0, 16.95, -17.3)">
    <path d="M12.9 17.35 L12.8 48.8 10.4 60.9 10.5 66.85 13.35 69.5 12.55 73.5 1.75 73.95 -1.1 72.25 -1.2 61.2 -0.5 47.85 -0.7 18.75 12.9 17.35" fill="#291214" fill-rule="evenodd" stroke="none"/>
    <path d="M-2.65 18.75 L-2.3 77.4 -5.3 82.7 -12.5 82.15 -15.9 77.95 -16.75 73.95 -13.85 71.35 -13.8 65.45 -16.95 17.3 -2.65 18.75" fill="#291214" fill-rule="evenodd" stroke="none"/>
    <path d="M12.7 18.65 L12.35 48.9 10.25 60.15 4.75 59.4 -0.75 60.15 -0.15 47.25 -0.6 21.4 12.7 18.65 M4.15 60.65 L3.4 60.65 3.0 62.1 3.4 62.8 4.2 63.55 4.95 62.8 4.95 60.65 4.25 60.65 4.2 60.6 4.15 60.65 M5.0 60.0 L10.05 60.7 10.05 66.45 3.05 64.95 -0.9 68.6 -0.9 60.7 5.0 60.0 M8.55 62.1 L8.5 62.05 8.5 62.1 7.7 62.1 7.7 64.25 8.5 64.95 9.25 64.25 9.65 63.55 9.25 62.1 8.55 62.1 M0.7 62.1 L0.7 62.05 0.65 62.1 -0.15 62.1 -0.15 64.95 1.45 64.95 1.85 63.55 1.45 62.1 0.7 62.1 M3.65 65.65 L10.0 67.5 12.8 69.5 12.2 72.45 1.9 72.85 -0.5 71.65 -0.3 68.8 3.65 65.65" fill="#481520" fill-rule="evenodd" stroke="none"/>
    <path d="M4.15 60.65 L3.45 61.35 3.45 62.75 4.6 62.75 4.6 61.35 4.25 60.65 4.95 60.65 4.95 62.8 4.2 63.55 3.4 62.8 3.0 62.1 3.4 60.65 4.15 60.65 M8.55 62.1 L9.25 62.1 9.65 63.55 9.25 64.25 8.5 64.95 7.7 64.25 7.7 62.1 8.5 62.1 7.75 63.5 8.15 64.2 8.9 64.2 8.9 63.5 9.3 63.5 8.55 62.1 M0.65 62.1 L-0.1 63.5 0.3 64.2 1.1 64.2 1.1 63.5 1.5 63.5 0.7 62.1 1.45 62.1 1.85 63.55 1.45 64.95 -0.15 64.95 -0.15 62.1 0.65 62.1" fill="#291214" fill-rule="evenodd" stroke="none"/>
    <path d="M4.25 60.65 L4.6 61.35 4.6 62.75 3.45 62.75 3.45 61.35 4.15 60.65 4.2 60.6 4.25 60.65 M8.5 62.1 L8.5 62.05 8.55 62.1 9.3 63.5 8.9 63.5 8.9 64.2 8.15 64.2 7.75 63.5 8.5 62.1 M0.65 62.1 L0.7 62.05 0.7 62.1 1.5 63.5 1.1 63.5 1.1 64.2 0.3 64.2 -0.1 63.5 0.65 62.1" fill="#c25e86" fill-rule="evenodd" stroke="none"/>
    <path d="M-2.9 21.4 L-2.5 64.8 -8.0 64.1 -13.5 64.8 -16.2 18.65 -2.9 21.4 M-12.0 66.65 L-12.75 66.65 -13.15 68.1 -12.75 68.8 -11.95 69.5 -11.15 68.8 -11.15 66.65 -12.0 66.65 M-13.55 65.3 L-8.5 64.6 -2.6 65.3 -2.6 73.15 -6.55 69.55 -13.55 71.05 -13.55 65.3 M-13.5 72.1 L-7.15 70.25 -3.2 73.35 -3.0 77.7 -5.4 82.0 -12.55 81.45 -15.7 77.0 -16.3 74.1 -13.5 72.1 M-4.2 66.65 L-4.9 66.65 -5.3 68.1 -4.9 69.5 -3.35 69.5 -3.35 66.65 -4.2 66.65 M-8.45 65.2 L-8.45 67.35 -7.65 68.1 -6.85 67.35 -6.5 66.65 -6.85 65.2 -8.45 65.2" fill="#481520" fill-rule="evenodd" stroke="none"/>
    <path d="M-12.0 66.65 L-11.15 66.65 -11.15 68.8 -11.95 69.5 -12.75 68.8 -13.15 68.1 -12.75 66.65 -12.0 66.65 -12.8 68.1 -12.4 68.1 -12.4 68.8 -11.6 68.8 -11.25 68.1 -12.0 66.65 M-4.2 66.65 L-3.35 66.65 -3.35 69.5 -4.9 69.5 -5.3 68.1 -4.9 66.65 -4.2 66.65 -4.95 68.1 -4.55 68.1 -4.55 68.8 -3.8 68.8 -3.4 68.1 -4.2 66.65 M-8.45 65.2 L-6.85 65.2 -6.5 66.65 -6.85 67.35 -7.65 68.1 -8.45 67.35 -8.45 65.2 M-7.7 65.25 L-8.1 65.95 -8.1 67.4 -6.95 67.4 -6.95 65.95 -7.7 65.25" fill="#291214" fill-rule="evenodd" stroke="none"/>
    <path d="M-12.0 66.65 L-11.25 68.1 -11.6 68.8 -12.4 68.8 -12.4 68.1 -12.8 68.1 -12.0 66.65 M-4.2 66.65 L-3.4 68.1 -3.8 68.8 -4.55 68.8 -4.55 68.1 -4.95 68.1 -4.2 66.65 M-7.7 65.25 L-6.95 65.95 -6.95 67.4 -8.1 67.4 -8.1 65.95 -7.7 65.25" fill="#c25e86" fill-rule="evenodd" stroke="none"/>
  </g>
</svg>
