<?xml version="1.0" encoding="UTF-8" standalone="no"?>
<svg xmlns:xlink="http://www.w3.org/1999/xlink" height="63.1px" width="29.45px" xmlns="http://www.w3.org/2000/svg">
  <g transform="matrix(1.0, 0.0, 0.0, 1.0, 16.15, -17.3)">
    <path d="M12.45 17.3 L13.3 44.1 10.4 54.45 10.25 60.0 12.4 60.95 11.55 64.95 -1.35 64.95 -1.5 54.65 -0.15 42.5 -1.5 20.65 12.45 17.3 M-1.65 21.5 L-1.45 80.3 -16.05 80.4 -16.1 76.35 -13.1 74.45 -16.15 18.55 -1.65 21.5" fill="#291214" fill-rule="evenodd" stroke="none"/>
    <path d="M-1.45 21.5 L-1.2 80.3 -15.8 80.4 -15.85 76.35 -12.85 74.45 -15.95 18.55 -1.45 21.5" fill="#291214" fill-rule="evenodd" stroke="none"/>
    <path d="M12.6 21.9 L13.0 21.9 12.6 21.95 12.6 21.9" fill="#261817" fill-rule="evenodd" stroke="none"/>
    <path d="M11.8 20.65 L13.1 44.15 10.45 54.2 5.0 53.4 -0.5 54.2 0.6 42.55 -0.5 22.25 11.8 20.65 M10.15 55.05 L10.15 60.2 3.05 58.7 -0.85 62.3 -0.85 55.05 5.05 54.3 10.15 55.05 M3.55 57.0 L4.3 57.65 5.05 56.9 5.05 54.75 3.5 54.75 3.1 56.2 3.5 56.9 3.5 56.95 3.5 57.0 3.55 57.0 M1.55 56.2 L-0.05 56.2 -0.05 59.05 1.55 59.05 1.95 57.65 1.55 56.2 M9.75 57.65 L9.35 56.2 7.8 56.2 7.8 58.35 8.6 59.05 9.35 58.35 9.75 57.65 M3.25 59.2 L11.95 61.25 11.35 64.95 -0.85 64.95 -0.7 62.3 3.25 59.2" fill="#481520" fill-rule="evenodd" stroke="none"/>
    <path d="M3.55 57.0 L4.65 57.0 4.65 55.55 4.3 54.85 3.5 55.55 3.5 56.9 3.1 56.2 3.5 54.75 5.05 54.75 5.05 56.9 4.3 57.65 3.55 57.0 M1.15 58.4 L1.15 57.7 1.55 57.7 0.75 56.25 0.0 57.7 0.35 58.4 1.15 58.4 M1.55 56.2 L1.95 57.65 1.55 59.05 -0.05 59.05 -0.05 56.2 1.55 56.2 M8.2 58.4 L8.95 58.4 8.95 57.7 9.35 57.7 8.6 56.25 7.8 57.7 8.2 58.4 M9.75 57.65 L9.35 58.35 8.6 59.05 7.8 58.35 7.8 56.2 9.35 56.2 9.75 57.65" fill="#291214" fill-rule="evenodd" stroke="none"/>
    <path d="M3.5 56.9 L3.5 55.55 4.3 54.85 4.65 55.55 4.65 57.0 3.55 57.0 3.5 57.0 3.5 56.95 3.5 56.9 M1.15 58.4 L0.35 58.4 0.0 57.7 0.75 56.25 1.55 57.7 1.15 57.7 1.15 58.4 M8.2 58.4 L7.8 57.7 8.6 56.25 9.35 57.7 8.95 57.7 8.95 58.4 8.2 58.4" fill="#c25e86" fill-rule="evenodd" stroke="none"/>
    <path d="M-15.25 22.0 L-15.55 21.9 -15.25 21.9 -15.2 21.9 -15.2 22.0 -15.25 22.0" fill="#261817" fill-rule="evenodd" stroke="none"/>
    <path d="M-15.25 21.9 L-15.15 19.65 -1.9 22.45 -1.5 67.6 -7.0 66.9 -12.45 67.6 -15.25 22.0 -15.2 22.0 -15.2 21.9 -15.25 21.9 M-12.05 70.95 L-11.65 71.65 -10.85 72.35 -10.05 71.65 -10.05 69.5 -11.65 69.5 -12.05 70.95 M-12.45 68.35 L-7.35 67.6 -1.5 68.35 -1.5 76.2 -1.5 77.6 -15.2 78.3 -15.55 76.9 -5.4 71.9 -5.0 71.9 -1.5 76.2 -5.4 70.45 -12.45 74.0 -12.45 68.35 M-5.8 70.25 L-5.75 70.2 -5.4 69.5 -5.75 68.05 -7.35 68.05 -7.35 70.2 -6.55 70.95 -5.85 70.3 -5.8 70.3 -5.8 70.25 M-3.8 69.5 L-4.2 70.95 -3.8 72.35 -2.25 72.35 -2.25 69.5 -3.8 69.5 M-1.5 78.3 L-1.5 79.75 -15.2 79.75 -15.2 79.05 -1.5 78.3" fill="#481520" fill-rule="evenodd" stroke="none"/>
    <path d="M-10.9 69.6 L-11.65 71.0 -11.3 71.0 -11.3 71.75 -10.5 71.75 -10.1 71.0 -10.9 69.6 M-12.05 70.95 L-11.65 69.5 -10.05 69.5 -10.05 71.65 -10.85 72.35 -11.65 71.65 -12.05 70.95 M-5.85 70.3 L-6.55 70.95 -7.35 70.2 -7.35 68.05 -5.75 68.05 -5.4 69.5 -5.75 70.2 -5.8 70.25 -5.8 68.85 -6.6 68.15 -7.0 68.85 -7.0 70.3 -5.85 70.3 M-3.05 69.6 L-3.85 71.0 -3.45 71.0 -3.45 71.75 -2.7 71.75 -2.3 71.0 -3.05 69.6 M-3.8 69.5 L-2.25 69.5 -2.25 72.35 -3.8 72.35 -4.2 70.95 -3.8 69.5" fill="#291214" fill-rule="evenodd" stroke="none"/>
    <path d="M-10.9 69.6 L-10.1 71.0 -10.5 71.75 -11.3 71.75 -11.3 71.0 -11.65 71.0 -10.9 69.6 M-5.8 70.25 L-5.8 70.3 -5.85 70.3 -7.0 70.3 -7.0 68.85 -6.6 68.15 -5.8 68.85 -5.8 70.25 M-3.05 69.6 L-2.3 71.0 -2.7 71.75 -3.45 71.75 -3.45 71.0 -3.85 71.0 -3.05 69.6" fill="#c25e86" fill-rule="evenodd" stroke="none"/>
  </g>
</svg>
