<?xml version="1.0" encoding="UTF-8" standalone="no"?>
<svg xmlns:xlink="http://www.w3.org/1999/xlink" height="55.35px" width="45.95px" xmlns="http://www.w3.org/2000/svg">
  <g transform="matrix(1.0, 0.0, 0.0, 1.0, 23.0, -27.3)">
    <path d="M0.5 27.9 L22.9 27.9 18.9 61.1 18.75 66.3 22.6 69.5 21.6 77.7 16.5 81.75 5.15 82.65 0.75 72.05 0.5 27.9" fill="#0d0f0d" fill-rule="evenodd" stroke="none"/>
    <path d="M0.15 77.75 L-21.7 78.0 -23.0 74.65 -17.75 72.4 -22.5 27.3 -0.45 28.5 0.35 65.2 0.15 77.75" fill="#0d0f0d" fill-rule="evenodd" stroke="none"/>
    <path d="M8.65 63.65 L7.2 63.25 1.15 68.05 1.15 61.4 10.25 60.8 18.1 61.4 18.1 66.25 9.15 63.8 10.25 63.25 10.25 61.4 9.05 61.4 7.85 61.4 7.2 62.6 7.85 63.25 8.65 63.65 M2.4 63.85 L2.4 65.05 4.8 65.05 5.4 63.85 4.8 62.6 3.6 62.6 2.4 62.6 2.4 63.85 M1.8 72.3 L2.1 68.6 8.2 64.6 18.05 66.95 22.35 69.5 21.45 77.25 16.5 81.15 5.45 81.85 1.8 72.3 M14.5 63.85 L14.5 64.45 15.7 65.05 16.9 64.45 17.5 63.85 16.9 62.6 15.7 62.6 14.5 62.6 14.5 63.85" fill="#181e16" fill-rule="evenodd" stroke="none"/>
    <path d="M22.35 28.2 L22.35 28.15 22.95 28.15 22.35 28.2 18.1 60.8 9.65 60.2 1.15 60.8 1.8 30.55 22.35 28.2" fill="#261817" fill-rule="evenodd" stroke="none"/>
    <path d="M8.65 63.65 L7.85 63.25 7.2 62.6 7.85 61.4 9.05 61.4 10.25 61.4 10.25 63.25 9.15 63.8 9.05 63.85 8.65 63.65 M7.85 63.25 L9.65 63.25 9.65 62.0 9.05 61.4 7.85 62.0 7.85 63.25 M2.4 63.85 L3.0 64.45 4.2 64.45 4.2 63.85 4.8 63.85 3.6 62.6 4.8 62.6 5.4 63.85 4.8 65.05 2.4 65.05 2.4 63.85 2.4 62.6 3.6 62.6 2.4 63.85 M15.7 62.6 L16.9 62.6 17.5 63.85 16.9 64.45 15.7 65.05 14.5 64.45 14.5 63.85 15.1 64.45 16.3 64.45 16.3 63.85 16.9 63.85 15.7 62.6 14.5 63.85 14.5 62.6 15.7 62.6" fill="#0d0f0d" fill-rule="evenodd" stroke="none"/>
    <path d="M7.85 63.25 L7.85 62.0 9.05 61.4 9.65 62.0 9.65 63.25 7.85 63.25 M3.6 62.6 L4.8 63.85 4.2 63.85 4.2 64.45 3.0 64.45 2.4 63.85 3.6 62.6 M15.7 62.6 L16.9 63.85 16.3 63.85 16.3 64.45 15.1 64.45 14.5 63.85 15.7 62.6" fill="#7e7e82" fill-rule="evenodd" stroke="none"/>
    <path d="M-21.45 28.25 L-21.5 28.25 -22.1 28.15 -21.5 28.15 -21.45 28.25 -0.9 30.6 -0.3 66.85 -8.8 66.25 -17.25 66.85 -21.45 28.25" fill="#261817" fill-rule="evenodd" stroke="none"/>
    <path d="M-14.85 68.7 L-16.05 68.7 -16.65 69.9 -16.05 70.5 -14.85 71.1 -13.65 70.5 -13.65 69.9 -13.65 68.7 -14.85 68.7 M-8.3 69.85 L-17.25 72.3 -17.25 67.5 -9.4 66.85 -0.3 67.5 -0.3 74.15 -0.3 75.35 -21.5 75.95 -22.1 74.75 -6.35 70.5 -5.75 70.5 -0.3 74.15 -6.35 69.3 -7.8 69.7 -6.95 69.3 -6.35 68.7 -6.95 67.5 -8.2 67.5 -9.4 67.5 -9.4 69.3 -8.3 69.85 M-1.55 69.9 L-1.55 68.7 -2.75 68.7 -3.95 68.7 -4.55 69.9 -3.95 71.1 -1.55 71.1 -1.55 69.9 M-21.5 76.55 L-0.3 75.95 -0.3 77.15 -21.5 77.15 -21.5 76.55" fill="#181e16" fill-rule="evenodd" stroke="none"/>
    <path d="M-14.85 68.7 L-16.05 69.9 -15.45 69.9 -15.45 70.5 -14.25 70.5 -13.65 69.9 -13.65 70.5 -14.85 71.1 -16.05 70.5 -16.65 69.9 -16.05 68.7 -14.85 68.7 -13.65 68.7 -13.65 69.9 -14.85 68.7 M-7.8 69.7 L-8.2 69.9 -8.3 69.85 -9.4 69.3 -9.4 67.5 -8.2 67.5 -6.95 67.5 -6.35 68.7 -6.95 69.3 -7.8 69.7 M-6.95 68.1 L-8.2 67.5 -8.8 68.1 -8.8 69.3 -6.95 69.3 -6.95 68.1 M-1.55 69.9 L-1.55 71.1 -3.95 71.1 -4.55 69.9 -3.95 68.7 -2.75 68.7 -1.55 68.7 -1.55 69.9 -2.75 68.7 -3.95 69.9 -3.35 69.9 -3.35 70.5 -2.15 70.5 -1.55 69.9" fill="#0d0f0d" fill-rule="evenodd" stroke="none"/>
    <path d="M-13.65 69.9 L-14.25 70.5 -15.45 70.5 -15.45 69.9 -16.05 69.9 -14.85 68.7 -13.65 69.9 M-6.95 68.1 L-6.95 69.3 -8.8 69.3 -8.8 68.1 -8.2 67.5 -6.95 68.1 M-1.55 69.9 L-2.15 70.5 -3.35 70.5 -3.35 69.9 -3.95 69.9 -2.75 68.7 -1.55 69.9" fill="#7e7e82" fill-rule="evenodd" stroke="none"/>
  </g>
</svg>
