<?xml version="1.0" encoding="UTF-8" standalone="no"?>
<svg xmlns:xlink="http://www.w3.org/1999/xlink" height="43.85px" width="40.45px" xmlns="http://www.w3.org/2000/svg">
  <g transform="matrix(1.0, 0.0, 0.0, 1.0, 19.25, 79.5)">
    <path d="M2.75 -77.45 L2.1 -78.3 -0.9 -78.9 -0.85 -78.65 -2.75 -78.9 -7.55 -78.3 -9.05 -75.55 -9.35 -75.65 -8.15 -78.3 -8.15 -78.9 -7.55 -78.9 -2.75 -79.5 2.1 -78.9 2.7 -78.9 3.35 -77.95 2.75 -77.45 M12.85 -61.65 L13.45 -62.0 14.8 -59.55 17.25 -51.7 17.25 -51.35 18.4 -49.55 21.2 -41.7 21.2 -41.1 12.7 -37.45 7.0 -36.25 0.65 -35.65 -5.75 -35.65 -12.15 -36.85 -19.25 -40.5 -19.25 -41.1 -17.05 -50.4 -17.25 -50.5 -17.25 -51.1 -15.15 -60.7 -14.75 -60.4 -16.65 -50.5 -13.6 -48.05 -10.0 -46.85 -10.0 -47.15 -5.75 -45.65 -0.3 -45.65 4.55 -46.25 7.75 -47.45 8.15 -47.45 12.4 -48.65 14.8 -49.85 15.6 -50.45 17.25 -51.1 17.05 -51.55 17.25 -51.7 12.85 -61.65" fill="#0d0f0d" fill-rule="evenodd" stroke="none"/>
    <path d="M-0.85 -78.65 L0.4 -75.0 -0.3 -74.05 -0.9 -70.45 -0.8 -69.85 -0.9 -69.25 -0.3 -66.2 1.2 -64.35 1.5 -63.8 1.75 -63.65 2.1 -63.2 3.85 -62.15 2.1 -62.55 -2.1 -61.95 -3.35 -61.95 -3.85 -62.3 -2.75 -63.8 -2.1 -66.8 -2.75 -66.8 -2.75 -68.0 -2.75 -70.45 -3.65 -71.65 -4.55 -73.45 -6.9 -74.9 -6.35 -78.3 -7.55 -78.3 -2.75 -78.9 -0.85 -78.65 M-10.0 -54.1 L-5.75 -55.9 -1.5 -57.15 3.3 -57.15 5.75 -56.5 6.05 -56.4 6.35 -55.3 7.55 -47.45 7.75 -47.45 4.55 -46.25 -0.3 -45.65 -5.75 -45.65 -10.0 -47.15 -10.0 -54.1 M4.9 -60.6 L5.8 -57.35 3.3 -57.75 -1.5 -57.75 -5.75 -56.5 -10.0 -54.25 -10.0 -54.7 -9.35 -58.8 -8.8 -59.2 -6.95 -59.55 -4.55 -61.35 -4.3 -61.7 -3.35 -61.35 -2.1 -61.35 2.1 -61.95 3.9 -61.35 4.9 -60.6 M17.05 -51.55 L17.25 -51.1 15.6 -50.45 17.05 -51.55" fill="#f1e4e2" fill-rule="evenodd" stroke="none"/>
    <path d="M-9.05 -75.55 L-7.55 -78.3 -6.35 -78.3 -6.9 -74.9 -7.55 -75.3 -9.05 -75.55 M-10.0 -54.1 L-10.0 -47.15 -10.0 -46.85 -13.6 -48.05 -16.65 -50.5 -14.75 -60.4 -13.6 -59.55 -10.6 -58.95 -9.75 -59.05 -10.6 -58.35 -12.4 -55.3 -13.0 -52.3 -13.6 -51.1 -10.0 -54.1 M-10.0 -54.25 Q-10.85 -53.8 -11.75 -53.3 L-11.2 -55.9 -10.0 -58.35 -9.35 -58.8 -10.0 -54.7 -10.0 -54.25" fill="#f4f2f2" fill-rule="evenodd" stroke="none"/>
    <path d="M-0.85 -78.65 L-0.9 -78.9 2.1 -78.3 2.75 -77.45 1.5 -76.5 0.4 -75.0 -0.85 -78.65 M5.25 -61.3 L8.75 -60.15 12.4 -61.35 12.85 -61.65 17.25 -51.7 17.05 -51.55 15.6 -50.45 14.8 -49.85 12.4 -48.65 8.15 -47.45 7.75 -47.45 7.55 -47.45 6.35 -55.3 6.05 -56.4 11.8 -54.1 11.2 -54.7 9.95 -57.15 5.25 -61.3 M-15.15 -60.7 L-16.05 -61.35 -17.85 -63.8 -17.95 -64.35 -16.65 -62.55 -13.6 -60.75 -10.6 -60.15 -7.95 -60.7 -9.75 -59.05 -10.6 -58.95 -13.6 -59.55 -14.75 -60.4 -15.15 -60.7 M-3.85 -62.3 L-4.45 -62.75 -3.35 -65.0 -2.75 -68.0 -3.35 -71.05 -3.65 -71.65 -2.75 -70.45 -2.75 -68.0 -2.75 -66.8 -2.1 -66.8 -2.75 -63.8 -3.85 -62.3 M4.9 -60.6 L6.35 -59.55 10.6 -55.3 6.95 -57.15 5.8 -57.35 4.9 -60.6 M-8.8 -59.2 L-5.15 -61.95 -4.3 -61.7 -4.55 -61.35 -6.95 -59.55 -8.8 -59.2" fill="#c6bebe" fill-rule="evenodd" stroke="none"/>
    <path d="M16.65 -71.9 L16.65 -73.85 17.25 -72.85 17.25 -70.45 17.25 -69.25 17.85 -69.25 17.25 -66.2 15.4 -63.2 13.45 -62.0 12.85 -61.65 12.4 -61.35 8.75 -60.15 5.25 -61.3 4.55 -61.95 8.15 -61.35 11.8 -61.95 14.8 -63.8 16.65 -66.8 17.25 -70.45 16.65 -71.9 M16.05 -74.85 L15.15 -76.05 15.4 -75.9 16.05 -74.85 M3.85 -62.15 L2.1 -63.2 1.75 -63.65 4.55 -61.95 3.85 -62.15 M1.2 -64.35 L-0.3 -66.2 -0.9 -69.25 -0.8 -69.85 -0.3 -66.8 1.2 -64.35" fill="#afaaaa" fill-rule="evenodd" stroke="none"/>
    <path d="M0.4 -75.0 L1.5 -76.5 2.75 -77.45 3.35 -77.95 4.55 -78.9 8.15 -79.5 11.8 -78.9 14.8 -76.5 15.15 -76.05 16.05 -74.85 16.65 -74.05 16.65 -73.85 16.65 -71.9 16.0 -73.45 14.2 -76.5 11.8 -78.3 8.15 -78.9 4.55 -78.3 2.1 -76.5 0.3 -73.45 -0.3 -70.45 0.3 -70.45 0.3 -67.4 2.1 -64.4 4.55 -62.55 8.15 -61.95 11.8 -62.55 14.2 -64.4 16.0 -67.4 17.25 -70.45 16.65 -66.8 14.8 -63.8 11.8 -61.95 8.15 -61.35 4.55 -61.95 5.25 -61.3 9.95 -57.15 11.2 -54.7 11.8 -54.1 6.05 -56.4 5.75 -56.5 3.3 -57.15 -1.5 -57.15 -5.75 -55.9 -10.0 -54.1 -13.6 -51.1 -13.0 -52.3 -12.4 -55.3 -10.6 -58.35 -9.75 -59.05 -7.95 -60.7 -10.6 -60.15 -13.6 -60.75 -16.65 -62.55 -17.95 -64.35 -18.45 -65.0 -19.05 -68.0 -18.45 -71.05 -16.65 -73.45 -13.6 -75.3 -10.6 -75.9 -9.35 -75.65 -9.05 -75.55 -7.55 -75.3 -6.9 -74.9 -4.55 -73.45 -3.65 -71.65 -3.35 -71.05 -5.15 -73.45 -7.55 -74.65 -10.6 -75.3 -13.6 -74.65 -16.05 -73.45 -17.85 -71.05 -18.45 -68.0 -17.85 -68.0 -17.85 -65.0 -16.05 -62.55 -13.6 -61.35 -10.6 -60.75 -7.55 -61.35 -5.15 -62.55 -3.35 -65.0 -4.45 -62.75 -3.85 -62.3 -3.35 -61.95 -2.1 -61.95 2.1 -62.55 3.85 -62.15 4.55 -61.95 1.75 -63.65 1.5 -63.8 1.2 -64.35 -0.3 -66.8 -0.8 -69.85 -0.9 -70.45 -0.3 -74.05 0.4 -75.0 M5.8 -57.35 L6.95 -57.15 10.6 -55.3 6.35 -59.55 4.9 -60.6 3.9 -61.35 2.1 -61.95 -2.1 -61.35 -3.35 -61.35 -4.3 -61.7 -5.15 -61.95 -8.8 -59.2 -9.35 -58.8 -10.0 -58.35 -11.2 -55.9 -11.75 -53.3 Q-10.85 -53.8 -10.0 -54.25 L-5.75 -56.5 -1.5 -57.75 3.3 -57.75 5.8 -57.35" fill="#000000" fill-rule="evenodd" stroke="none"/>
    <path d="M17.25 -70.45 L16.0 -67.4 14.2 -64.4 11.8 -62.55 8.15 -61.95 4.55 -62.55 2.1 -64.4 0.3 -67.4 0.3 -70.45 -0.3 -70.45 0.3 -73.45 2.1 -76.5 4.55 -78.3 8.15 -78.9 11.8 -78.3 14.2 -76.5 16.0 -73.45 16.65 -71.9 17.25 -70.45 M2.1 -69.85 L1.5 -69.85 0.9 -69.25 0.9 -67.4 1.5 -66.8 2.7 -66.2 3.3 -67.4 3.3 -68.6 2.1 -69.85 M-3.35 -65.0 L-5.15 -62.55 -7.55 -61.35 -10.6 -60.75 -13.6 -61.35 -16.05 -62.55 -17.85 -65.0 -17.85 -68.0 -18.45 -68.0 -17.85 -71.05 -16.05 -73.45 -13.6 -74.65 -10.6 -75.3 -7.55 -74.65 -5.15 -73.45 -3.35 -71.05 -2.75 -68.0 -3.35 -65.0 M-5.75 -69.25 L-6.35 -69.85 -6.95 -69.85 -8.15 -68.6 -8.15 -67.4 -7.55 -66.2 -6.35 -66.8 -5.75 -67.4 -5.75 -69.25" fill="#c4e1df" fill-rule="evenodd" stroke="none"/>
    <path d="M2.1 -69.85 L3.3 -68.6 3.3 -67.4 2.7 -66.2 1.5 -66.8 0.9 -67.4 0.9 -69.25 1.5 -69.85 2.1 -69.85 M-5.75 -69.25 L-5.75 -67.4 -6.35 -66.8 -7.55 -66.2 -8.15 -67.4 -8.15 -68.6 -6.95 -69.85 -6.35 -69.85 -5.75 -69.25" fill="#383432" fill-rule="evenodd" stroke="none"/>
  </g>
</svg>
