<?xml version="1.0" encoding="UTF-8" standalone="no"?>
<svg xmlns:xlink="http://www.w3.org/1999/xlink" height="53.45px" width="46.05px" xmlns="http://www.w3.org/2000/svg">
  <g transform="matrix(1.0, 0.0, 0.0, 1.0, 22.9, -28.3)">
    <path d="M0.75 31.9 L23.15 29.4 18.65 71.15 18.4 76.7 23.05 78.3 22.95 81.75 0.4 81.65 0.75 31.9" fill="#0d0f0d" fill-rule="evenodd" stroke="none"/>
    <path d="M-0.05 31.1 L-2.1 49.6 -0.05 59.9 -0.2 68.6 -20.2 68.6 -21.5 65.25 -18.15 64.4 -18.45 59.7 -22.9 51.0 -21.6 28.3 -0.05 31.1" fill="#0d0f0d" fill-rule="evenodd" stroke="none"/>
    <path d="M22.1 32.25 L22.1 32.15 22.7 32.15 22.1 32.25 17.9 70.85 9.4 70.25 0.95 70.85 1.55 34.6 22.1 32.25" fill="#261817" fill-rule="evenodd" stroke="none"/>
    <path d="M2.15 73.9 L2.15 75.1 4.55 75.1 5.2 73.9 4.55 72.7 3.35 72.7 2.15 72.7 2.15 73.9 M8.95 73.85 L10.0 73.3 10.0 71.5 8.8 71.5 7.6 71.5 7.0 72.7 7.6 73.3 8.4 73.7 7.0 73.3 0.95 78.15 0.95 71.5 10.0 70.85 17.9 71.5 17.9 76.3 8.95 73.85 M14.25 73.9 L14.25 74.5 15.45 75.1 16.65 74.5 17.3 73.9 16.65 72.7 15.45 72.7 14.25 72.7 14.25 73.9 M0.95 81.15 L0.95 79.95 22.1 80.55 22.1 81.15 0.95 81.15 M6.4 74.5 L7.0 74.5 22.7 78.75 22.1 79.95 0.95 79.35 0.95 78.15 6.4 74.5" fill="#181e16" fill-rule="evenodd" stroke="none"/>
    <path d="M2.15 73.9 L2.75 74.5 3.95 74.5 3.95 73.9 4.55 73.9 3.35 72.7 4.55 72.7 5.2 73.9 4.55 75.1 2.15 75.1 2.15 73.9 2.15 72.7 3.35 72.7 2.15 73.9 M7.6 72.1 L7.6 73.3 9.4 73.3 9.4 72.1 8.8 71.5 7.6 72.1 M8.4 73.7 L7.6 73.3 7.0 72.7 7.6 71.5 8.8 71.5 10.0 71.5 10.0 73.3 8.95 73.85 8.8 73.9 8.4 73.7 M14.25 73.9 L14.85 74.5 16.05 74.5 16.05 73.9 16.65 73.9 15.45 72.7 14.25 73.9 14.25 72.7 15.45 72.7 16.65 72.7 17.3 73.9 16.65 74.5 15.45 75.1 14.25 74.5 14.25 73.9" fill="#0d0f0d" fill-rule="evenodd" stroke="none"/>
    <path d="M3.35 72.7 L4.55 73.9 3.95 73.9 3.95 74.5 2.75 74.5 2.15 73.9 3.35 72.7 M7.6 72.1 L8.8 71.5 9.4 72.1 9.4 73.3 7.6 73.3 7.6 72.1 M14.25 73.9 L15.45 72.7 16.65 73.9 16.05 73.9 16.05 74.5 14.85 74.5 14.25 73.9" fill="#7e7e82" fill-rule="evenodd" stroke="none"/>
    <path d="M-1.05 34.45 L-2.7 49.6 -1.0 59.5 -9.5 58.8 -17.95 59.5 -22.0 51.0 -21.0 32.1 -1.05 34.45 M-21.2 32.2 L-21.8 32.15 -21.2 32.15 -21.2 32.2" fill="#261817" fill-rule="evenodd" stroke="none"/>
    <path d="M-7.1 60.2 L-8.3 60.2 -9.5 60.2 -9.5 62.05 -8.3 62.65 -7.1 62.05 -6.5 61.4 -7.1 60.2 M-1.65 61.4 L-2.85 61.4 -4.1 61.4 -4.7 62.65 -4.1 63.85 -1.65 63.85 -1.65 62.65 -1.65 61.4 M-0.45 60.2 L-0.45 66.35 Q-3.45 64.85 -6.5 63.3 L-17.4 64.55 -17.4 60.2 -9.55 59.6 -0.45 60.2 M-14.95 61.4 L-16.15 61.4 -16.8 62.65 -16.15 63.25 -14.95 63.85 -13.75 63.25 -13.75 62.65 -13.75 61.4 -14.95 61.4 M-20.2 65.45 L-6.75 63.7 -0.65 66.35 -0.35 68.6 -19.3 68.6 -20.2 65.45" fill="#181e16" fill-rule="evenodd" stroke="none"/>
    <path d="M-7.1 60.2 L-6.5 61.4 -7.1 62.05 -8.3 62.65 -9.5 62.05 -9.5 60.2 -8.3 60.2 -7.1 60.2 M-8.9 60.8 L-8.9 62.05 -7.1 62.05 -7.1 60.8 -8.3 60.2 -8.9 60.8 M-1.65 61.4 L-1.65 62.65 -1.65 63.85 -4.1 63.85 -4.7 62.65 -4.1 61.4 -2.85 61.4 -1.65 61.4 M-14.95 61.4 L-13.75 61.4 -13.75 62.65 -13.75 63.25 -14.95 63.85 -16.15 63.25 -16.8 62.65 -16.15 61.4 -14.95 61.4 -16.15 62.65 -15.55 62.65 -15.55 63.25 -14.35 63.25 -13.75 62.65 -14.95 61.4 M-1.65 62.65 L-2.85 61.4 -4.1 62.65 -3.45 62.65 -3.45 63.25 -2.25 63.25 -1.65 62.65" fill="#0d0f0d" fill-rule="evenodd" stroke="none"/>
    <path d="M-8.9 60.8 L-8.3 60.2 -7.1 60.8 -7.1 62.05 -8.9 62.05 -8.9 60.8 M-14.95 61.4 L-13.75 62.65 -14.35 63.25 -15.55 63.25 -15.55 62.65 -16.15 62.65 -14.95 61.4 M-1.65 62.65 L-2.25 63.25 -3.45 63.25 -3.45 62.65 -4.1 62.65 -2.85 61.4 -1.65 62.65" fill="#7e7e82" fill-rule="evenodd" stroke="none"/>
  </g>
</svg>
