<?xml version="1.0" encoding="UTF-8" standalone="no"?>
<svg xmlns:xlink="http://www.w3.org/1999/xlink" height="55.3px" width="47.5px" xmlns="http://www.w3.org/2000/svg">
  <g transform="matrix(1.0, 0.0, 0.0, 1.0, 22.2, -27.3)">
    <path d="M2.75 28.5 L24.8 27.3 20.05 72.4 25.3 74.65 24.0 78.0 2.15 77.75 1.95 65.2 2.75 28.5" fill="#0d0f0d" fill-rule="evenodd" stroke="none"/>
    <path d="M0.45 76.35 L-3.9 82.6 -15.4 81.8 -20.9 73.6 -21.9 69.25 -17.75 66.4 -22.2 27.5 -0.15 28.7 0.6 62.6 0.45 76.35" fill="#0d0f0d" fill-rule="evenodd" stroke="none"/>
    <path d="M24.0 28.25 L24.0 28.15 24.6 28.15 24.0 28.25 19.8 66.85 11.3 66.25 2.85 66.85 3.45 30.6 24.0 28.25" fill="#261817" fill-rule="evenodd" stroke="none"/>
    <path d="M4.05 69.9 L4.05 71.1 6.45 71.1 7.1 69.9 6.45 68.7 5.25 68.7 4.05 68.7 4.05 69.9 M10.7 67.5 L9.5 67.5 8.9 68.7 9.5 69.3 10.3 69.7 8.9 69.3 2.85 74.15 2.85 67.5 11.9 66.85 19.8 67.5 19.8 72.3 10.85 69.85 11.9 69.3 11.9 67.5 10.7 67.5 M8.3 70.5 L8.9 70.5 24.6 74.75 24.0 75.95 2.85 75.35 2.85 74.15 8.3 70.5 M16.15 69.9 L16.15 70.5 17.35 71.1 18.55 70.5 19.2 69.9 18.55 68.7 17.35 68.7 16.15 68.7 16.15 69.9 M2.85 77.15 L2.85 75.95 24.0 76.55 24.0 77.15 2.85 77.15" fill="#181e16" fill-rule="evenodd" stroke="none"/>
    <path d="M4.05 69.9 L4.05 68.7 5.25 68.7 6.45 68.7 7.1 69.9 6.45 71.1 4.05 71.1 4.05 69.9 4.65 70.5 5.85 70.5 5.85 69.9 6.45 69.9 5.25 68.7 4.05 69.9 M9.5 69.3 L8.9 68.7 9.5 67.5 10.7 67.5 9.5 68.1 9.5 69.3 11.3 69.3 11.3 68.1 10.7 67.5 11.9 67.5 11.9 69.3 10.85 69.85 10.7 69.9 10.3 69.7 9.5 69.3 M17.35 68.7 L18.55 68.7 19.2 69.9 18.55 70.5 17.35 71.1 16.15 70.5 16.15 69.9 16.75 70.5 17.95 70.5 17.95 69.9 18.55 69.9 17.35 68.7 16.15 69.9 16.15 68.7 17.35 68.7" fill="#0d0f0d" fill-rule="evenodd" stroke="none"/>
    <path d="M4.05 69.9 L5.25 68.7 6.45 69.9 5.85 69.9 5.85 70.5 4.65 70.5 4.05 69.9 M9.5 69.3 L9.5 68.1 10.7 67.5 11.3 68.1 11.3 69.3 9.5 69.3 M17.35 68.7 L18.55 69.9 17.95 69.9 17.95 70.5 16.75 70.5 16.15 69.9 17.35 68.7" fill="#7e7e82" fill-rule="evenodd" stroke="none"/>
    <path d="M-7.5 63.65 L-6.7 63.25 -6.1 62.6 -6.7 61.4 -7.9 61.4 -9.1 61.4 -9.1 63.25 -8.05 63.8 -17.0 66.25 -17.0 61.4 -9.1 60.8 -0.05 61.4 -0.05 68.05 -6.1 63.25 -7.5 63.65 M-13.35 63.85 L-13.35 62.6 -14.55 62.6 -15.75 62.6 -16.4 63.85 -15.75 64.45 -14.55 65.05 -13.35 64.45 -13.35 63.85 M-1.25 63.85 L-1.25 62.6 -2.45 62.6 -3.7 62.6 -4.3 63.85 -3.7 65.05 -1.25 65.05 -1.25 63.85 M-0.95 68.6 L-0.65 76.3 -4.35 81.85 -15.4 81.15 -20.3 73.25 -21.2 69.5 -16.9 66.95 -7.1 64.6 -0.95 68.6" fill="#181e16" fill-rule="evenodd" stroke="none"/>
    <path d="M-0.65 30.55 L-0.05 60.8 -8.5 60.2 -17.0 60.8 -21.2 28.2 -21.8 28.15 -21.2 28.15 -21.2 28.2 -0.65 30.55" fill="#261817" fill-rule="evenodd" stroke="none"/>
    <path d="M-8.05 63.8 L-9.1 63.25 -9.1 61.4 -7.9 61.4 -6.7 61.4 -6.1 62.6 -6.7 63.25 -7.5 63.65 -7.9 63.85 -8.05 63.8 M-13.35 63.85 L-14.55 62.6 -15.75 63.85 -15.15 63.85 -15.15 64.45 -13.95 64.45 -13.35 63.85 -13.35 64.45 -14.55 65.05 -15.75 64.45 -16.4 63.85 -15.75 62.6 -14.55 62.6 -13.35 62.6 -13.35 63.85 M-2.45 62.6 L-1.25 62.6 -1.25 63.85 -2.45 62.6 -3.7 63.85 -3.05 63.85 -3.05 64.45 -1.85 64.45 -1.25 63.85 -1.25 65.05 -3.7 65.05 -4.3 63.85 -3.7 62.6 -2.45 62.6 M-7.9 61.4 L-8.5 62.0 -8.5 63.25 -6.7 63.25 -6.7 62.0 -7.9 61.4" fill="#0d0f0d" fill-rule="evenodd" stroke="none"/>
    <path d="M-13.35 63.85 L-13.95 64.45 -15.15 64.45 -15.15 63.85 -15.75 63.85 -14.55 62.6 -13.35 63.85 M-2.45 62.6 L-1.25 63.85 -1.85 64.45 -3.05 64.45 -3.05 63.85 -3.7 63.85 -2.45 62.6 M-7.9 61.4 L-6.7 62.0 -6.7 63.25 -8.5 63.25 -8.5 62.0 -7.9 61.4" fill="#7e7e82" fill-rule="evenodd" stroke="none"/>
  </g>
</svg>
