<?xml version="1.0" encoding="UTF-8" standalone="no"?>
<svg xmlns:xlink="http://www.w3.org/1999/xlink" height="54.3px" width="47.7px" xmlns="http://www.w3.org/2000/svg">
  <g transform="matrix(1.0, 0.0, 0.0, 1.0, 22.2, -29.3)">
    <path d="M3.45 30.5 L25.5 29.3 24.3 54.9 20.65 65.2 20.75 70.2 25.2 72.45 23.9 75.8 7.2 76.2 2.85 74.75 2.65 65.4 3.8 54.1 3.45 30.5" fill="#0d0f0d" fill-rule="evenodd" stroke="none"/>
    <path d="M-0.15 32.5 L0.45 79.15 -4.2 83.6 -15.35 83.15 -20.6 79.6 -21.9 76.25 -17.45 74.0 -17.35 69.0 -22.2 31.3 -0.15 32.5" fill="#0d0f0d" fill-rule="evenodd" stroke="none"/>
    <path d="M24.3 30.2 L24.3 30.15 24.9 30.15 24.3 30.2 M3.45 32.75 L24.0 30.4 23.4 55.0 20.15 64.5 11.7 63.9 3.2 64.5 4.1 53.6 3.45 32.75" fill="#261817" fill-rule="evenodd" stroke="none"/>
    <path d="M4.2 67.45 L4.2 68.65 6.6 68.65 7.2 67.45 6.6 66.2 5.4 66.2 4.2 66.2 4.2 67.45 M10.85 65.0 L9.65 65.0 9.0 66.2 9.65 66.85 10.85 67.45 12.05 66.85 12.05 65.0 10.85 65.0 M9.0 68.6 L2.95 71.65 2.95 65.0 12.05 64.4 19.9 65.0 19.9 69.85 9.0 68.6 M3.9 71.85 L10.0 69.2 19.85 70.75 24.15 72.45 23.25 74.9 7.25 75.25 3.6 74.3 3.9 71.85 M17.5 66.2 L16.3 66.2 16.3 67.45 16.3 68.05 17.5 68.65 18.7 68.05 19.3 67.45 18.7 66.2 17.5 66.2" fill="#181e16" fill-rule="evenodd" stroke="none"/>
    <path d="M4.2 67.45 L4.8 68.05 6.0 68.05 6.0 67.45 6.6 67.45 5.4 66.2 6.6 66.2 7.2 67.45 6.6 68.65 4.2 68.65 4.2 67.45 4.2 66.2 5.4 66.2 4.2 67.45 M10.85 65.0 L9.65 65.6 9.65 66.85 9.0 66.2 9.65 65.0 10.85 65.0 12.05 65.0 12.05 66.85 10.85 67.45 9.65 66.85 11.45 66.85 11.45 65.6 10.85 65.0 M17.5 66.2 L16.3 67.45 16.3 66.2 17.5 66.2 18.7 66.2 19.3 67.45 18.7 68.05 17.5 68.65 16.3 68.05 16.3 67.45 16.9 68.05 18.1 68.05 18.1 67.45 18.7 67.45 17.5 66.2" fill="#0d0f0d" fill-rule="evenodd" stroke="none"/>
    <path d="M5.4 66.2 L6.6 67.45 6.0 67.45 6.0 68.05 4.8 68.05 4.2 67.45 5.4 66.2 M9.65 66.85 L9.65 65.6 10.85 65.0 11.45 65.6 11.45 66.85 9.65 66.85 M16.3 67.45 L17.5 66.2 18.7 67.45 18.1 67.45 18.1 68.05 16.9 68.05 16.3 67.45" fill="#7e7e82" fill-rule="evenodd" stroke="none"/>
    <path d="M-0.55 34.75 L0.1 68.5 -8.4 67.9 -16.85 68.5 -21.1 32.4 -0.55 34.75 M-21.4 32.15 L-21.4 32.2 -22.0 32.15 -21.4 32.15" fill="#261817" fill-rule="evenodd" stroke="none"/>
    <path d="M-16.4 71.35 L-15.75 71.95 -14.55 72.55 -13.35 71.95 -13.35 71.35 -13.35 70.1 -14.55 70.1 -15.75 70.1 -16.4 71.35 M-17.0 68.9 L-9.15 68.3 -0.05 68.9 -0.05 75.55 Q-3.05 74.05 -6.1 72.5 L-17.0 73.75 -17.0 68.9 M-6.7 70.75 L-6.1 70.1 -6.7 68.9 -7.9 68.9 -9.1 68.9 -9.1 70.75 -7.9 71.35 -6.7 70.75 M-1.25 70.1 L-2.45 70.1 -3.7 70.1 -4.3 71.35 -3.7 72.55 -1.25 72.55 -1.25 71.35 -1.25 70.1 M-21.2 76.35 L-16.9 74.65 -7.1 73.1 -0.95 75.75 -0.65 79.4 -4.35 83.05 -15.4 82.6 -20.3 78.8 -21.2 76.35" fill="#181e16" fill-rule="evenodd" stroke="none"/>
    <path d="M-16.4 71.35 L-15.75 70.1 -14.55 70.1 -13.35 70.1 -13.35 71.35 -13.35 71.95 -14.55 72.55 -15.75 71.95 -16.4 71.35 M-14.55 70.1 L-15.75 71.35 -15.15 71.35 -15.15 71.95 -13.95 71.95 -13.35 71.35 -14.55 70.1 M-7.9 68.9 L-6.7 68.9 -6.1 70.1 -6.7 70.75 -6.7 69.5 -7.9 68.9 -8.5 69.5 -8.5 70.75 -6.7 70.75 -7.9 71.35 -9.1 70.75 -9.1 68.9 -7.9 68.9 M-1.25 70.1 L-1.25 71.35 -1.25 72.55 -3.7 72.55 -4.3 71.35 -3.7 70.1 -2.45 70.1 -1.25 70.1 M-3.05 71.95 L-1.85 71.95 -1.25 71.35 -2.45 70.1 -3.7 71.35 -3.05 71.35 -3.05 71.95" fill="#0d0f0d" fill-rule="evenodd" stroke="none"/>
    <path d="M-14.55 70.1 L-13.35 71.35 -13.95 71.95 -15.15 71.95 -15.15 71.35 -15.75 71.35 -14.55 70.1 M-7.9 68.9 L-6.7 69.5 -6.7 70.75 -8.5 70.75 -8.5 69.5 -7.9 68.9 M-3.05 71.95 L-3.05 71.35 -3.7 71.35 -2.45 70.1 -1.25 71.35 -1.85 71.95 -3.05 71.95" fill="#7e7e82" fill-rule="evenodd" stroke="none"/>
  </g>
</svg>
