<?xml version="1.0" encoding="UTF-8" standalone="no"?>
<svg xmlns:xlink="http://www.w3.org/1999/xlink" height="211.0px" width="219.0px" xmlns="http://www.w3.org/2000/svg">
  <g transform="matrix(1.0, 0.0, 0.0, 1.0, -0.3, -1.4)">
    <path d="M217.35 179.9 L219.3 205.75 Q219.3 208.5 217.35 210.45 215.4 212.4 212.6 212.4 L6.95 212.4 Q4.15 212.4 2.25 210.45 0.3 208.5 0.3 205.75 L3.9 143.25 3.9 144.45 Q4.05 150.4 5.1 154.9 6.45 160.65 10.0 165.6 L10.3 166.05 8.15 199.6 Q8.15 202.15 10.0 203.95 11.75 205.75 14.3 205.75 L204.9 205.75 Q207.45 205.75 209.3 203.95 211.05 202.2 211.05 199.6 L209.4 180.55 217.35 179.9" fill="#f9361b" fill-rule="evenodd" stroke="none"/>
    <path d="M110.35 34.9 Q122.75 34.9 133.0 39.1 144.45 43.75 151.5 53.4 158.45 62.75 159.85 74.0 L159.95 74.95 156.75 76.05 Q154.4 76.9 152.2 78.15 L151.9 74.95 Q150.8 65.7 145.1 58.15 139.35 50.35 129.95 46.5 121.05 42.9 110.35 42.9 98.95 42.9 90.1 46.75 80.9 50.75 75.25 58.5 69.8 66.0 68.75 75.25 65.3 73.15 61.2 71.7 62.85 62.0 68.75 53.85 75.55 44.4 86.85 39.45 97.2 34.9 110.35 34.9" fill="#f9361b" fill-rule="evenodd" stroke="none"/>
    <path d="M21.8 86.3 Q17.4 91.35 16.05 97.3 14.95 102.2 14.25 110.8 L12.3 133.5 11.95 140.7 11.75 142.05 10.3 166.05 10.0 165.6 Q6.45 160.65 5.1 154.9 4.05 150.4 3.9 144.45 3.8 138.7 4.4 132.8 L6.3 110.15 Q7.1 100.8 8.3 95.55 10.0 87.65 15.8 81.05 21.65 74.25 30.75 71.2 39.15 68.35 48.8 69.15 55.15 69.7 60.3 71.4 64.8 72.9 68.75 75.25 L68.75 75.35 68.3 80.2 68.1 84.7 66.15 83.15 Q59.0 78.05 48.15 77.15 40.1 76.4 33.35 78.75 26.3 81.15 21.8 86.3" fill="#f9361b" fill-rule="evenodd" stroke="none"/>
    <path d="M169.6 81.35 Q159.45 82.15 152.65 87.3 L152.2 78.15 Q154.4 76.9 156.75 76.05 162.3 73.9 168.95 73.35 L180.85 73.75 Q186.95 74.75 192.2 77.45 197.3 80.1 201.0 83.65 205.25 87.7 207.55 92.85 209.2 96.55 210.4 102.05 L211.3 107.65 211.4 107.65 217.4 179.9 209.4 180.55 208.7 172.65 208.8 172.6 203.85 112.9 Q202.9 102.2 200.25 96.1 198.6 92.45 195.5 89.35 192.7 86.7 188.6 84.55 180.55 80.45 169.6 81.35" fill="#f9361b" fill-rule="evenodd" stroke="none"/>
    <path d="M183.4 174.7 L208.7 172.65 211.05 199.6 Q211.05 202.2 209.3 203.95 207.45 205.75 204.9 205.75 L14.3 205.75 Q11.75 205.75 10.0 203.95 8.15 202.15 8.15 199.6 L11.75 142.05 11.95 140.7 Q11.7 148.05 12.9 153.05 13.9 157.3 16.45 160.95 19.1 164.5 22.75 167.0 29.8 171.75 40.5 172.7 51.2 173.65 59.25 169.3 63.25 167.1 66.1 164.3 69.15 161.3 70.75 157.55 L71.25 156.45 Q72.85 160.35 75.6 163.95 81.3 171.75 90.7 175.6 99.4 179.2 110.35 179.2 121.75 179.2 130.55 175.3 139.95 171.3 145.4 163.6 L147.45 160.5 Q148.65 163.75 151.1 167.0 L151.05 167.0 Q154.8 172.0 161.1 174.8 167.4 177.75 174.45 177.15 179.35 176.75 183.35 174.6 L183.4 174.7 M41.5 149.05 L41.5 149.0 41.65 149.05 41.85 149.1 41.75 149.1 41.5 149.05" fill="#000000" fill-rule="evenodd" stroke="none"/>
    <path d="M110.35 42.9 Q121.05 42.9 129.95 46.5 139.35 50.35 145.1 58.15 150.8 65.7 151.9 74.95 152.5 79.95 152.65 87.3 L151.1 88.55 Q149.35 90.0 147.65 92.0 147.5 84.75 146.95 79.95 L146.1 75.7 148.3 75.4 146.1 75.65 146.05 75.65 Q145.25 72.7 143.55 69.7 142.2 66.0 139.65 62.5 L139.45 62.35 Q135.0 56.35 127.6 53.35 L127.2 53.2 Q119.8 50.3 110.8 50.3 L108.5 50.3 Q99.75 50.6 92.95 53.55 85.5 56.8 81.15 62.85 76.75 69.0 76.0 76.2 75.3 82.45 75.15 94.4 74.1 91.55 72.25 89.05 70.5 86.7 68.1 84.7 68.4 78.2 68.75 75.35 69.75 66.15 75.25 58.5 80.9 50.75 90.1 46.75 98.95 42.9 110.35 42.9 M112.85 74.15 L114.6 74.4 Q115.0 77.2 115.0 82.65 L115.0 136.3 Q115.0 146.0 114.25 149.05 L114.1 149.4 Q113.3 152.05 110.25 152.1 L109.8 152.1 Q108.95 152.0 108.35 151.7 L108.15 149.1 107.95 141.3 107.95 86.8 108.05 82.65 Q108.25 77.35 109.2 75.95 110.45 74.15 112.85 74.15 M76.0 146.25 Q76.8 153.2 81.15 159.2 82.2 161.4 83.85 163.7 87.35 168.35 92.45 171.25 L95.9 172.85 Q102.35 175.5 110.35 175.9 L112.75 175.95 Q122.3 175.95 129.5 172.9 L130.0 172.7 Q137.45 169.4 141.8 163.4 144.65 159.4 145.9 155.1 L146.25 156.8 Q146.7 158.6 147.45 160.5 L145.4 163.6 Q139.95 171.3 130.55 175.3 121.75 179.2 110.35 179.2 99.4 179.2 90.7 175.6 81.3 171.75 75.6 163.95 72.85 160.35 71.25 156.45 72.4 153.25 73.1 149.25 73.9 145.1 74.55 138.25 L75.2 130.35 Q75.4 141.3 76.0 146.25" fill="#000000" fill-rule="evenodd" stroke="none"/>
    <path d="M23.2 98.95 Q22.25 103.3 21.55 111.45 L19.6 134.1 Q18.6 145.55 20.05 151.3 L20.05 151.35 Q20.55 153.4 21.3 154.75 L23.2 157.6 Q25.0 162.0 29.35 164.9 33.9 168.0 40.85 169.05 L43.65 169.4 Q52.1 170.05 58.25 166.8 64.45 163.5 66.55 158.6 L67.45 156.05 Q68.85 151.15 69.75 141.75 L70.0 138.7 67.55 138.5 67.65 137.65 67.65 137.6 67.9 134.6 67.45 134.6 47.7 132.9 47.25 132.9 46.4 142.6 Q46.0 147.4 45.4 149.7 L45.5 149.65 45.15 150.65 45.1 150.7 Q44.35 152.15 42.5 152.15 L42.15 152.1 42.05 152.1 41.4 151.95 41.5 149.05 41.75 149.1 41.85 149.1 41.65 149.05 41.5 149.0 44.75 110.9 Q45.2 105.05 46.05 103.35 46.85 101.65 49.35 101.8 L49.7 101.85 49.45 106.75 48.35 120.2 48.45 120.2 51.3 120.5 50.95 124.35 71.05 126.1 71.7 118.7 Q72.65 108.05 71.25 102.55 70.6 100.1 69.05 97.85 67.55 92.95 62.3 89.15 L62.0 88.95 Q56.55 85.15 47.95 84.45 L47.5 84.4 39.65 84.8 35.75 85.75 Q31.8 87.15 29.0 89.55 L29.05 89.45 27.4 91.15 26.65 92.0 Q24.1 95.3 23.2 98.95 M33.35 78.75 Q40.1 76.4 48.15 77.15 59.0 78.05 66.15 83.15 69.75 85.75 72.25 89.05 74.1 91.55 75.15 94.4 L75.2 130.35 74.55 138.25 Q73.9 145.1 73.1 149.25 72.25 154.2 70.75 157.55 69.15 161.3 66.1 164.3 63.25 167.1 59.25 169.3 52.6 172.85 44.15 172.85 L40.5 172.7 Q29.8 171.75 22.75 167.0 19.1 164.5 16.45 160.95 13.9 157.3 12.9 153.05 11.3 146.1 12.3 133.5 L14.25 110.8 Q14.95 102.2 16.05 97.3 17.4 91.35 21.8 86.3 26.3 81.15 33.35 78.75" fill="#000000" fill-rule="evenodd" stroke="none"/>
    <path d="M167.35 89.1 Q160.35 90.3 155.9 94.2 L155.4 94.65 155.45 94.55 Q154.05 95.9 152.6 97.65 150.35 100.6 149.85 103.85 L149.85 103.95 Q149.05 109.05 149.95 120.15 L149.95 120.2 151.85 143.15 Q152.5 151.1 153.45 155.1 154.15 158.3 156.05 161.2 L157.1 162.75 Q158.05 164.8 159.4 166.6 161.0 168.7 163.2 170.2 L166.65 172.1 Q170.2 173.8 174.15 173.85 L176.35 173.8 Q180.55 173.5 183.65 171.4 186.3 169.55 187.9 166.5 L188.05 166.9 188.9 166.85 190.7 171.0 203.35 169.95 199.85 128.4 198.15 128.5 197.8 124.2 176.35 126.0 176.35 125.95 173.8 126.15 174.8 137.95 176.95 137.8 177.3 142.05 179.1 141.9 179.5 146.8 Q179.9 151.75 179.45 153.7 L179.55 153.7 179.45 154.15 179.4 154.25 Q178.75 156.1 176.6 156.25 L176.6 156.3 176.15 156.3 175.45 156.05 171.95 115.0 Q171.45 109.0 172.0 107.6 172.5 106.15 174.45 105.95 L175.35 106.0 175.95 111.5 176.55 118.55 176.65 118.55 178.75 118.4 179.1 122.65 199.25 121.0 198.9 116.7 198.5 113.35 Q197.65 106.85 196.0 103.3 L194.7 100.95 193.95 99.15 193.85 98.95 Q191.65 94.25 185.65 91.1 L185.3 90.95 Q179.2 88.0 170.7 88.7 L167.35 89.1 M188.6 84.55 Q192.7 86.7 195.5 89.35 198.6 92.45 200.25 96.1 202.9 102.2 203.85 112.9 L208.8 172.6 183.4 174.7 183.35 174.6 Q179.35 176.75 174.45 177.15 L172.2 177.25 Q166.35 177.25 161.1 174.8 154.8 172.0 151.05 167.0 L151.1 167.0 Q147.55 162.25 146.25 156.8 L145.9 155.1 Q146.7 152.65 146.95 150.05 147.85 142.55 147.85 125.1 L147.85 105.2 147.65 92.0 Q149.35 90.0 151.1 88.55 158.25 82.25 169.6 81.35 180.55 80.45 188.6 84.55" fill="#000000" fill-rule="evenodd" stroke="none"/>
    <path d="M145.8 75.7 L145.75 75.7 145.0 75.8 146.1 75.7 146.95 79.95 Q147.5 84.75 147.65 92.0 L145.85 94.45 Q145.7 81.45 145.0 75.9 L145.0 75.8 Q144.6 72.55 143.55 69.7 145.25 72.7 146.05 75.65 L145.8 75.7 M115.05 171.65 Q122.05 171.0 127.6 168.6 134.1 165.8 138.35 160.7 L138.05 161.1 136.1 163.5 Q138.3 161.5 139.85 159.25 143.85 153.75 144.9 147.25 145.3 151.75 145.9 155.1 144.65 159.4 141.8 163.4 137.45 169.4 130.0 172.7 L129.5 172.9 Q122.3 175.95 112.75 175.95 L110.35 175.9 Q102.35 175.5 95.9 172.85 L92.45 171.25 Q87.35 168.35 83.85 163.7 82.2 161.4 81.15 159.2 L81.4 159.55 Q86.0 165.75 93.4 168.75 L93.45 168.8 Q100.95 171.8 110.2 171.8 L110.35 171.8 115.05 171.65" fill="#0b2c2e" fill-rule="evenodd" stroke="none"/>
    <path d="M147.65 92.0 L147.85 105.2 147.85 125.1 Q147.85 142.55 146.95 150.05 146.7 152.65 145.9 155.1 145.3 151.75 144.9 147.25 L145.05 145.9 Q145.9 138.8 145.9 121.05 L145.85 94.45 147.65 92.0" fill="#0b2c2e" fill-rule="evenodd" stroke="none"/>
    <path d="M110.45 70.0 Q113.2 70.1 114.1 72.25 L114.6 74.4 112.85 74.15 Q110.45 74.15 109.2 75.95 108.25 77.35 108.05 82.65 L107.95 86.8 107.95 141.3 108.15 149.1 108.35 151.7 Q107.2 151.05 106.8 149.75 L106.75 149.65 Q105.9 146.95 105.9 137.25 L105.9 82.65 Q105.9 74.55 107.0 72.2 L106.4 72.6 106.75 71.85 Q108.0 70.0 110.4 70.0 L110.45 70.0" fill="#0b2c2e" fill-rule="evenodd" stroke="none"/>
    <path d="M69.75 141.75 Q68.85 151.15 67.45 156.05 L66.55 158.6 Q64.45 163.5 58.25 166.8 53.25 169.5 46.65 169.5 L43.65 169.4 40.85 169.05 Q33.9 168.0 29.35 164.9 25.0 162.0 23.2 157.6 24.65 159.4 26.9 160.85 32.45 164.65 41.2 165.35 49.7 166.1 55.75 162.8 58.35 161.4 60.1 159.85 L61.65 158.25 60.5 159.9 Q63.05 157.6 64.4 154.75 L64.5 154.6 Q66.5 149.85 67.55 138.5 L70.0 138.7 69.75 141.75" fill="#0b2c2e" fill-rule="evenodd" stroke="none"/>
    <path d="M48.75 98.3 Q49.3 98.75 49.45 99.35 L49.7 101.85 49.35 101.8 Q46.85 101.65 46.05 103.35 45.2 105.05 44.75 110.9 L41.5 149.0 39.55 148.45 Q39.4 146.55 39.75 142.8 L42.8 106.75 Q43.3 101.4 43.95 99.6 L43.3 99.9 43.55 99.2 43.6 99.15 Q44.45 97.55 46.85 97.75 48.0 97.8 48.75 98.3 M69.05 97.85 Q70.6 100.1 71.25 102.55 72.65 108.05 71.7 118.7 L71.05 126.1 50.95 124.35 51.3 120.5 68.6 121.95 68.6 121.85 69.0 121.9 69.6 114.55 Q70.55 103.75 69.15 98.4 L69.05 97.85 M39.55 148.5 L41.5 149.05 41.4 151.95 Q40.15 151.5 39.75 150.2 L39.55 148.5" fill="#0b2c2e" fill-rule="evenodd" stroke="none"/>
    <path d="M183.65 171.4 Q180.55 173.5 176.35 173.8 L174.7 173.9 174.15 173.85 Q170.2 173.8 166.65 172.1 L163.2 170.2 Q161.0 168.7 159.4 166.6 158.05 164.8 157.1 162.75 159.65 166.05 164.15 168.1 168.75 170.2 173.85 169.8 177.45 169.45 180.1 167.95 L181.15 167.3 183.0 165.7 182.35 166.65 184.7 164.05 184.6 163.8 185.9 161.55 186.2 162.2 186.05 162.3 187.9 166.5 Q186.3 169.55 183.65 171.4" fill="#0b2c2e" fill-rule="evenodd" stroke="none"/>
    <path d="M199.85 128.4 L203.35 169.95 190.7 171.0 188.9 166.85 199.35 166.0 199.35 166.05 201.3 165.85 201.25 165.8 198.15 128.5 199.85 128.4" fill="#0b2c2e" fill-rule="evenodd" stroke="none"/>
    <path d="M175.35 106.0 L174.45 105.95 Q172.5 106.15 172.0 107.6 171.45 109.0 171.95 115.0 L175.2 154.25 175.45 156.05 Q174.8 155.75 174.35 154.9 L174.25 154.7 175.2 154.25 174.25 154.65 Q173.5 152.95 173.15 148.1 L170.05 110.9 Q169.6 105.45 170.0 103.75 L169.4 103.95 169.55 103.5 169.55 103.45 Q170.15 102.0 171.95 101.85 173.2 101.75 174.0 102.25 L174.75 103.25 175.35 106.0 M176.95 137.8 L178.75 137.6 179.1 141.9 177.3 142.05 176.95 137.8" fill="#0b2c2e" fill-rule="evenodd" stroke="none"/>
    <path d="M196.0 103.3 Q197.65 106.85 198.5 113.35 L198.9 116.7 199.25 121.0 179.1 122.65 178.75 118.4 197.2 116.9 197.2 116.85 196.95 113.5 196.9 113.5 Q196.25 105.65 194.7 100.95 L196.0 103.3" fill="#0b2c2e" fill-rule="evenodd" stroke="none"/>
    <path d="M110.45 69.95 Q113.35 69.95 114.25 72.25 115.15 74.55 115.15 82.65 L115.15 136.35 Q115.15 146.6 114.3 149.4 116.05 148.8 116.65 146.95 117.5 144.35 117.5 133.9 L117.5 80.15 Q117.5 72.05 116.6 69.75 115.7 67.45 112.8 67.45 110.45 67.45 109.15 69.3 L108.7 70.3 110.45 69.95 M105.45 73.6 Q104.15 75.5 104.15 84.45 L104.15 139.0 Q104.15 149.15 105.0 151.55 105.8 153.95 108.9 153.95 111.75 153.95 112.75 151.75 111.9 152.15 110.7 152.15 L109.8 152.1 110.15 152.1 Q113.3 152.1 114.1 149.4 115.0 146.75 115.0 136.3 L115.0 82.7 Q115.0 74.6 114.1 72.25 113.2 70.0 110.4 70.0 108.0 70.0 106.75 71.85 L106.4 72.6 105.45 73.6 M84.7 58.9 Q82.75 60.75 81.25 62.8 76.85 68.9 76.05 76.2 75.2 83.65 75.2 101.1 L75.2 121.05 Q75.2 138.85 76.05 146.25 76.95 153.55 81.5 159.55 86.1 165.75 93.5 168.75 L95.35 169.5 93.4 168.75 Q86.0 165.75 81.4 159.55 76.9 153.5 76.0 146.25 75.15 139.35 75.15 121.05 L75.15 101.1 Q75.15 83.35 76.0 76.2 76.75 69.0 81.15 62.85 85.5 56.8 92.95 53.55 96.45 52.0 100.55 51.25 96.8 52.1 93.45 53.55 87.65 56.05 83.65 60.45 87.1 57.3 91.7 55.3 99.15 52.1 109.0 52.1 118.4 52.1 125.85 55.15 133.35 58.2 137.8 64.35 142.4 70.5 143.25 77.65 144.1 85.05 144.1 102.85 L144.1 122.8 Q144.1 139.95 143.3 147.75 142.5 154.3 139.0 159.75 L137.95 161.1 Q134.45 164.15 130.0 166.1 122.45 169.35 112.7 169.35 103.25 169.35 95.85 166.3 88.45 163.25 83.85 157.1 79.3 151.05 78.45 143.8 77.6 136.9 77.6 118.55 L77.6 98.6 Q77.6 80.8 78.4 73.7 79.2 66.4 83.55 60.35 L84.7 58.9" fill="#ffe600" fill-rule="evenodd" stroke="none"/>
    <path d="M34.4 87.5 Q39.55 85.7 46.15 86.25 55.1 87.05 60.55 90.95 66.0 94.9 67.4 100.15 68.75 105.45 67.8 116.3 L67.55 119.15 50.7 117.7 51.8 104.25 Q52.35 98.4 51.8 96.9 51.35 95.4 49.2 95.2 46.8 95.0 46.05 96.7 45.8 97.15 45.7 97.7 L46.85 97.65 Q48.05 97.8 48.75 98.3 48.0 97.8 46.85 97.75 44.45 97.5 43.55 99.2 L43.3 99.9 Q42.75 100.15 42.3 101.0 41.5 102.75 41.05 108.6 L37.9 144.55 Q37.45 150.3 37.95 152.0 38.45 153.75 40.7 154.0 42.85 154.1 43.7 152.45 L43.85 152.0 42.5 152.15 42.15 152.1 Q44.3 152.3 45.15 150.65 L45.5 149.65 Q46.75 149.4 47.4 148.2 48.2 146.55 48.75 140.15 L49.2 134.95 66.1 136.4 65.8 139.45 Q64.8 151.5 62.7 156.35 L62.0 157.7 Q60.35 159.1 58.15 160.3 53.1 163.0 46.5 163.0 L43.5 162.85 Q34.65 162.1 29.25 158.4 23.8 154.7 22.45 148.9 21.1 143.05 22.05 131.65 L23.95 109.0 Q24.65 100.8 25.6 96.45 26.25 93.6 27.85 91.1 30.6 88.8 34.4 87.5 M38.8 85.05 L36.2 85.7 Q31.05 87.5 28.0 90.95 L29.0 89.55 Q31.8 87.15 35.75 85.75 L38.8 85.05" fill="#ffe600" fill-rule="evenodd" stroke="none"/>
    <path d="M154.6 95.9 Q160.0 91.2 168.9 90.5 177.7 89.7 183.85 92.95 189.9 96.05 192.2 100.9 194.3 105.75 195.1 114.7 L178.9 116.05 178.35 109.0 Q177.75 102.45 177.1 100.8 176.4 99.2 174.3 99.3 172.5 99.5 171.95 100.95 L171.8 101.8 171.95 101.8 Q173.05 101.7 173.85 102.15 L171.95 101.85 Q170.05 102.0 169.55 103.5 L169.4 103.95 Q168.55 104.35 168.25 105.25 167.75 106.7 168.25 112.65 L171.3 149.85 Q171.8 155.15 172.55 156.65 173.3 158.3 175.25 158.1 177.3 157.9 177.95 156.15 L177.1 156.3 176.6 156.3 Q178.8 156.1 179.45 154.15 L179.55 153.7 Q181.25 153.35 181.7 151.7 182.35 149.8 181.85 144.35 L181.1 135.15 177.1 135.5 176.45 127.65 196.05 126.0 199.15 163.75 190.45 164.45 188.1 159.05 186.2 162.2 185.9 161.55 184.6 163.8 184.4 163.3 183.7 164.6 183.35 164.85 Q180.4 166.95 176.15 167.35 L174.5 167.4 Q170.35 167.4 166.5 165.65 161.8 163.45 159.35 160.1 156.75 156.65 155.8 152.65 154.9 148.75 154.25 140.7 L152.35 117.65 Q151.45 106.55 152.2 101.4 152.6 98.8 154.25 96.25 L154.5 96.0 154.6 95.9 154.5 96.0 154.25 96.25 155.4 94.65 155.9 94.2 Q159.3 91.25 164.15 89.85 159.6 91.3 156.4 94.1 L154.6 95.9" fill="#ffe600" fill-rule="evenodd" stroke="none"/>
    <path d="M116.6 69.75 Q117.5 72.05 117.5 80.15 L117.5 133.9 Q117.5 144.35 116.65 146.95 116.05 148.8 114.3 149.4 115.15 146.6 115.15 136.35 L115.15 82.65 Q115.15 74.55 114.25 72.25 113.35 69.95 110.45 69.95 L108.7 70.3 109.15 69.3 Q110.45 67.45 112.8 67.45 115.7 67.45 116.6 69.75 M84.7 58.9 L83.55 60.35 Q79.2 66.4 78.4 73.7 77.6 80.8 77.6 98.6 L77.6 118.55 Q77.6 136.9 78.45 143.8 79.3 151.05 83.85 157.1 88.45 163.25 95.85 166.3 103.25 169.35 112.7 169.35 122.45 169.35 130.0 166.1 134.75 164.0 138.35 160.7 134.1 165.8 127.6 168.6 120.15 171.8 110.35 171.8 100.9 171.8 93.5 168.75 86.1 165.75 81.5 159.55 76.95 153.55 76.05 146.25 75.2 138.85 75.2 121.05 L75.2 101.1 Q75.2 83.65 76.05 76.2 76.85 68.9 81.25 62.8 82.75 60.75 84.7 58.9" fill="#f99322" fill-rule="evenodd" stroke="none"/>
    <path d="M27.8 91.15 L27.75 91.25 Q26.25 93.65 25.6 96.45 24.65 100.8 23.95 109.0 L22.05 131.65 Q21.1 143.05 22.45 148.9 23.8 154.7 29.25 158.4 34.65 162.1 43.5 162.85 52.0 163.6 58.15 160.3 60.35 159.1 62.0 157.7 L61.75 158.15 Q59.35 160.85 55.75 162.8 50.7 165.45 44.15 165.45 L41.2 165.35 Q32.35 164.65 26.9 160.85 21.5 157.25 20.1 151.35 18.65 145.55 19.65 134.1 L21.6 111.45 Q22.3 103.25 23.25 98.9 24.15 94.85 27.4 91.15 L29.05 89.45 28.0 90.95 27.8 91.15 M51.8 96.9 Q52.35 98.4 51.8 104.25 L50.7 117.7 67.55 119.15 67.35 121.75 68.5 121.85 68.5 121.9 48.35 120.2 49.45 106.75 Q50.0 100.85 49.45 99.35 49.05 97.85 46.85 97.65 L45.7 97.7 Q45.8 97.15 46.05 96.7 46.8 95.0 49.2 95.2 51.35 95.4 51.8 96.9 M47.4 148.2 Q46.8 149.4 45.4 149.7 46.0 147.4 46.4 142.6 L47.25 132.9 47.7 132.9 47.5 134.8 49.2 134.95 48.75 140.15 Q48.2 146.55 47.4 148.2" fill="#f99322" fill-rule="evenodd" stroke="none"/>
    <path d="M195.25 116.95 L176.55 118.55 175.95 111.5 Q175.45 105.0 174.75 103.25 174.05 101.65 171.95 101.8 L171.8 101.8 171.95 100.95 Q172.5 99.5 174.3 99.3 176.4 99.2 177.1 100.8 177.75 102.45 178.35 109.0 L178.9 116.05 195.1 114.7 195.25 116.95 M176.35 126.0 L174.25 126.15 174.4 127.8 176.45 127.65 177.1 135.5 181.1 135.15 181.85 144.35 Q182.35 149.8 181.7 151.7 181.15 153.4 179.45 153.7 179.9 151.75 179.5 146.8 L178.75 137.6 174.8 137.95 173.8 126.15 176.35 125.95 176.35 126.0 M190.45 164.45 L199.15 163.75 199.35 166.0 188.05 166.9 186.05 162.3 188.1 159.05 190.45 164.45 M183.7 164.6 L183.4 165.15 181.05 167.4 Q178.1 169.4 173.85 169.8 L172.2 169.85 Q167.9 169.85 164.15 168.1 159.45 165.9 157.0 162.55 154.4 159.15 153.45 155.15 152.55 151.2 151.9 143.15 L150.0 120.15 Q149.1 109.0 149.85 103.9 150.6 99.05 155.45 94.55 L154.25 96.25 Q152.6 98.8 152.2 101.4 151.45 106.55 152.35 117.65 L154.25 140.7 Q154.9 148.75 155.8 152.65 156.75 156.65 159.35 160.1 161.8 163.45 166.5 165.65 171.1 167.75 176.15 167.35 180.4 166.95 183.35 164.85 L183.7 164.6" fill="#f99322" fill-rule="evenodd" stroke="none"/>
    <path d="M119.4 51.05 Q123.5 51.75 127.2 53.2 L127.6 53.35 Q135.0 56.35 139.45 62.35 L139.65 62.5 Q142.2 66.0 143.55 69.7 L141.85 67.0 Q140.65 64.75 139.1 62.6 L139.05 62.55 Q134.5 56.45 127.15 53.4 L127.05 53.35 Q123.45 51.85 119.4 51.05" fill="#dae5eb" fill-rule="evenodd" stroke="none"/>
    <path d="M141.85 67.0 L143.55 69.7 Q144.6 72.55 145.0 75.8 L145.0 75.9 Q145.7 81.45 145.85 94.45 L145.5 94.95 145.3 95.3 Q145.2 81.5 144.45 75.9 143.95 71.3 141.85 67.0 M144.9 147.25 Q143.85 153.75 139.85 159.25 138.3 161.5 136.1 163.5 L138.05 161.1 139.35 159.3 Q143.7 153.25 144.5 145.95 L144.5 145.9 144.6 144.65 144.9 147.25" fill="#e0e9ee" fill-rule="evenodd" stroke="none"/>
    <path d="M145.5 94.95 L145.85 94.45 145.9 121.05 Q145.9 138.8 145.05 145.9 L144.9 147.25 144.6 144.65 Q145.3 137.4 145.3 121.05 L145.3 95.3 145.5 94.95" fill="#e0e9ee" fill-rule="evenodd" stroke="none"/>
    <path d="M110.2 50.3 Q119.65 50.3 127.05 53.35 134.45 56.4 139.05 62.55 143.6 68.65 144.45 75.9 145.3 82.75 145.3 101.1 L145.3 121.05 Q145.3 138.8 144.5 145.95 143.7 153.25 139.35 159.3 L139.0 159.75 Q142.5 154.3 143.3 147.75 144.1 139.95 144.1 122.8 L144.1 102.85 Q144.1 85.05 143.25 77.65 142.4 70.5 137.8 64.35 133.35 58.2 125.85 55.15 118.4 52.1 109.0 52.1 99.15 52.1 91.7 55.3 87.1 57.3 83.65 60.45 87.65 56.05 93.45 53.55 100.1 50.6 108.5 50.3 L110.2 50.3" fill="#fffbd9" fill-rule="evenodd" stroke="none"/>
    <path d="M108.4 151.85 L108.35 151.7 Q108.95 152.0 109.8 152.1 L108.4 151.85" fill="#dae5eb" fill-rule="evenodd" stroke="none"/>
    <path d="M105.9 82.65 L105.9 137.25 Q105.9 146.95 106.75 149.65 L106.8 149.75 Q107.2 151.05 108.35 151.7 L108.4 151.85 Q106.9 151.35 106.3 149.75 L106.3 149.7 Q105.5 147.4 105.5 137.25 L105.5 82.65 Q105.5 75.05 106.4 72.6 L107.0 72.2 Q105.9 74.55 105.9 82.65" fill="#e0e9ee" fill-rule="evenodd" stroke="none"/>
    <path d="M105.45 73.6 L106.4 72.6 Q105.5 75.15 105.5 82.7 L105.5 137.2 Q105.5 147.4 106.3 149.7 107.1 152.0 109.8 152.1 L110.7 152.15 Q111.9 152.15 112.75 151.75 111.75 153.95 108.9 153.95 105.8 153.95 105.0 151.55 104.15 149.15 104.15 139.0 L104.15 84.45 Q104.15 75.5 105.45 73.6" fill="#fffbd9" fill-rule="evenodd" stroke="none"/>
    <path d="M67.5 134.6 L67.9 134.6 67.65 137.6 67.65 137.65 67.55 138.5 67.15 138.5 67.5 134.6" fill="#dae5eb" fill-rule="evenodd" stroke="none"/>
    <path d="M67.55 138.5 Q66.5 149.85 64.5 154.6 L64.4 154.75 Q63.05 157.6 60.5 159.9 L61.65 158.25 Q63.2 156.6 64.05 154.6 L64.1 154.55 Q66.15 149.8 67.15 138.5 L67.55 138.5" fill="#e0e9ee" fill-rule="evenodd" stroke="none"/>
    <path d="M66.1 136.4 L49.2 134.95 49.35 133.05 67.5 134.6 67.25 137.6 Q66.2 149.7 64.1 154.55 63.4 156.1 62.3 157.5 L62.0 157.7 62.7 156.35 Q64.8 151.5 65.8 139.45 L66.1 136.4" fill="#fffbd9" fill-rule="evenodd" stroke="none"/>
    <path d="M47.5 134.8 L47.7 132.9 49.35 133.05 49.2 134.95 47.5 134.8" fill="#f7ece5" fill-rule="evenodd" stroke="none"/>
    <path d="M41.4 152.0 L41.4 151.95 42.05 152.1 41.4 152.0" fill="#dae5eb" fill-rule="evenodd" stroke="none"/>
    <path d="M42.8 106.75 L39.75 142.8 Q39.4 146.55 39.55 148.45 L38.95 148.35 Q38.9 146.65 39.15 142.75 L42.2 106.8 Q42.7 101.75 43.3 99.9 L43.95 99.6 Q43.3 101.4 42.8 106.75 M39.75 150.2 Q40.15 151.5 41.4 151.95 L41.4 152.0 Q39.6 151.65 39.2 150.15 L38.95 148.4 39.55 148.5 39.75 150.2" fill="#e0e9ee" fill-rule="evenodd" stroke="none"/>
    <path d="M42.2 106.8 L39.15 142.75 Q38.65 148.4 39.2 150.15 39.7 151.95 42.05 152.1 L42.15 152.1 42.5 152.15 43.85 152.0 43.7 152.45 Q42.95 154.0 41.15 154.0 L40.7 154.0 Q38.45 153.75 37.95 152.0 37.45 150.3 37.9 144.55 L41.05 108.6 Q41.5 102.75 42.3 101.0 42.75 100.15 43.3 99.9 42.7 101.75 42.2 106.8" fill="#fffbd9" fill-rule="evenodd" stroke="none"/>
    <path d="M47.5 84.55 L39.65 84.8 47.5 84.4 47.95 84.45 Q56.55 85.15 62.0 88.95 L62.3 89.15 Q67.55 92.95 69.05 97.85 L68.25 96.9 Q66.55 92.6 61.9 89.25 56.35 85.35 47.5 84.55" fill="#dae5eb" fill-rule="evenodd" stroke="none"/>
    <path d="M69.15 98.4 Q70.55 103.75 69.6 114.55 L69.0 121.9 68.6 121.85 69.2 114.6 Q70.1 103.7 68.75 98.5 L68.25 96.9 69.05 97.85 69.15 98.4" fill="#e0e9ee" fill-rule="evenodd" stroke="none"/>
    <path d="M39.65 84.8 L47.5 84.55 Q56.35 85.35 61.9 89.25 67.45 93.25 68.75 98.5 70.1 103.7 69.2 114.6 L68.6 121.85 68.5 121.85 68.75 119.2 67.55 119.15 67.8 116.3 Q68.75 105.45 67.4 100.15 66.0 94.9 60.55 90.95 55.1 87.05 46.15 86.25 39.55 85.7 34.4 87.5 30.6 88.8 27.85 91.1 L28.0 90.95 Q31.05 87.5 36.2 85.7 L39.65 84.8" fill="#fffbd9" fill-rule="evenodd" stroke="none"/>
    <path d="M67.35 121.75 L67.55 119.15 68.75 119.2 68.5 121.85 67.35 121.75" fill="#f7ece5" fill-rule="evenodd" stroke="none"/>
    <path d="M183.0 165.7 L184.6 163.8 184.7 164.05 182.35 166.65 183.0 165.7" fill="#e0e9ee" fill-rule="evenodd" stroke="none"/>
    <path d="M184.05 164.3 L183.7 164.6 184.4 163.3 184.6 163.8 183.0 165.7 184.05 164.3" fill="#fffbd9" fill-rule="evenodd" stroke="none"/>
    <path d="M197.8 124.2 L198.15 128.5 197.75 128.55 197.4 124.25 197.1 124.3 197.8 124.2" fill="#dae5eb" fill-rule="evenodd" stroke="none"/>
    <path d="M198.15 128.5 L201.25 165.8 200.85 165.85 197.75 128.55 198.15 128.5" fill="#e0e9ee" fill-rule="evenodd" stroke="none"/>
    <path d="M197.4 124.25 L200.85 165.85 200.8 165.85 200.65 163.6 199.15 163.75 196.05 126.0 176.45 127.65 176.35 126.0 197.4 124.25" fill="#fffbd9" fill-rule="evenodd" stroke="none"/>
    <path d="M176.45 127.65 L174.4 127.8 174.25 126.15 176.35 126.0 176.45 127.65 M199.15 163.75 L200.65 163.6 200.8 165.85 199.35 166.0 199.15 163.75" fill="#f7ece5" fill-rule="evenodd" stroke="none"/>
    <path d="M170.05 110.9 L173.15 148.1 Q173.5 152.95 174.25 154.65 L174.0 154.85 174.25 154.7 174.35 154.9 Q174.8 155.75 175.45 156.05 L175.5 156.2 Q174.35 155.95 173.85 154.9 L173.8 154.85 Q173.0 153.35 172.5 148.05 L169.45 110.9 Q169.05 105.55 169.4 103.95 L170.0 103.75 Q169.6 105.45 170.05 110.9" fill="#e0e9ee" fill-rule="evenodd" stroke="none"/>
    <path d="M169.45 110.9 L172.5 148.05 Q173.0 153.35 173.8 154.85 174.5 156.25 176.15 156.3 L177.1 156.3 177.95 156.15 Q177.3 157.9 175.25 158.1 L174.9 158.1 Q173.2 158.1 172.55 156.65 171.8 155.15 171.3 149.85 L168.25 112.65 Q167.75 106.7 168.25 105.25 168.55 104.35 169.4 103.95 169.05 105.55 169.45 110.9" fill="#fffbd9" fill-rule="evenodd" stroke="none"/>
    <path d="M170.45 88.75 L170.7 88.7 Q179.2 88.0 185.3 90.95 L185.65 91.1 Q191.65 94.25 193.85 98.95 L193.95 99.15 194.7 100.95 193.85 99.9 193.55 99.2 193.55 99.15 Q191.3 94.3 185.2 91.2 L185.2 91.15 Q179.2 88.1 170.45 88.75" fill="#dae5eb" fill-rule="evenodd" stroke="none"/>
    <path d="M194.7 100.95 Q196.25 105.65 196.9 113.5 L196.95 113.5 197.2 116.85 196.8 116.9 196.5 113.55 196.5 113.5 Q195.75 104.6 193.85 99.9 L194.7 100.95" fill="#e0e9ee" fill-rule="evenodd" stroke="none"/>
    <path d="M154.6 95.9 L156.4 94.1 Q160.65 90.35 167.35 89.1 L170.2 88.75 Q179.15 88.0 185.2 91.2 191.35 94.3 193.55 99.2 195.75 104.1 196.5 113.55 L196.7 115.75 196.55 114.6 195.1 114.7 Q194.3 105.75 192.2 100.9 189.9 96.05 183.85 92.95 177.7 89.7 168.9 90.5 160.0 91.2 154.6 95.9" fill="#fffbd9" fill-rule="evenodd" stroke="none"/>
    <path d="M195.1 114.7 L196.55 114.6 196.8 116.9 195.25 116.95 195.1 114.7" fill="#f7ece5" fill-rule="evenodd" stroke="none"/>
    <path d="M136.75 196.65 L136.75 181.9 140.55 181.9 140.55 196.65 136.75 196.65 M115.9 182.95 Q117.3 181.55 119.5 181.55 121.95 181.55 124.2 182.75 L122.65 185.75 Q121.4 184.75 120.15 184.75 118.5 184.75 118.5 186.0 118.5 186.65 119.5 187.15 L121.15 187.7 Q124.8 188.75 124.8 191.75 124.8 197.0 119.0 197.0 116.3 197.0 113.9 195.35 L115.55 192.3 Q117.3 193.75 118.95 193.75 120.75 193.75 120.75 192.35 120.75 191.3 118.45 190.65 116.4 190.05 115.6 189.4 114.5 188.45 114.5 186.5 114.5 184.3 115.9 182.95 M97.25 191.15 L95.7 186.45 94.05 191.15 97.25 191.15 M93.6 181.9 L97.8 181.9 103.35 196.65 99.25 196.65 98.3 194.1 93.05 194.1 92.0 196.65 87.95 196.65 93.6 181.9 M71.7 190.9 L75.3 181.9 79.45 181.9 73.15 196.65 70.15 196.65 63.95 181.9 68.15 181.9 71.7 190.9 M38.2 196.65 L38.2 181.9 42.05 181.9 49.05 190.95 49.05 181.9 52.95 181.9 52.95 196.65 49.05 196.65 42.05 187.65 42.05 196.65 38.2 196.65 M25.6 181.9 L25.6 196.65 21.8 196.65 21.8 181.9 25.6 181.9 M180.75 196.65 L180.75 181.9 184.6 181.9 191.65 190.95 191.65 181.9 195.5 181.9 195.5 196.65 191.65 196.65 184.6 187.65 184.6 196.65 180.75 196.65 M163.6 192.25 Q164.8 191.05 164.8 189.3 164.8 187.6 163.6 186.4 162.35 185.15 160.65 185.15 158.9 185.15 157.75 186.4 156.5 187.6 156.5 189.3 156.5 191.05 157.75 192.25 158.9 193.45 160.65 193.45 162.35 193.45 163.6 192.25 M166.5 183.7 Q168.85 185.95 168.85 189.3 168.85 192.7 166.5 194.95 164.15 197.2 160.65 197.2 157.15 197.2 154.8 194.95 152.5 192.7 152.5 189.3 152.5 185.95 154.8 183.7 157.15 181.45 160.65 181.45 164.15 181.45 166.5 183.7" fill="#ffffff" fill-rule="evenodd" stroke="none"/>
    <path d="M167.6 42.05 Q167.25 44.55 165.65 46.4 164.1 48.3 162.05 48.5 L139.25 51.8 Q136.1 52.25 133.9 51.2 L132.3 49.95 131.95 49.6 Q124.3 55.85 117.15 53.65 110.8 51.7 108.15 43.9 L86.65 42.1 Q83.6 46.2 77.6 44.7 77.95 46.45 76.0 47.5 L62.65 53.75 Q57.75 56.1 57.25 49.95 L55.65 32.7 51.7 34.15 Q48.75 35.2 47.65 31.6 L42.45 13.7 Q41.85 11.5 42.8 10.15 43.9 8.6 46.6 8.9 L68.25 11.45 Q72.05 6.15 77.9 7.8 83.2 9.25 86.15 14.8 89.1 13.0 92.05 13.4 95.05 13.85 96.8 16.4 97.55 14.85 98.7 14.35 L101.25 13.8 115.25 11.6 Q119.3 7.05 123.95 5.15 128.85 3.15 133.15 4.5 139.35 6.35 142.0 13.85 L167.1 9.25 Q169.95 8.8 171.35 10.4 172.7 11.9 172.05 14.5 L166.75 36.65 Q168.1 38.95 167.6 42.05" fill="#f9361b" fill-rule="evenodd" stroke="none"/>
    <path d="M168.9 12.9 L162.95 37.8 Q164.15 39.15 163.75 41.55 163.25 45.05 160.9 45.25 L142.05 47.65 Q140.3 49.95 137.75 49.45 136.15 49.15 135.1 47.45 134.2 45.95 134.3 44.4 L132.75 43.7 130.0 48.1 123.3 49.65 122.15 47.85 116.95 49.75 Q114.9 48.95 113.4 46.45 L112.35 44.1 112.9 41.25 101.75 40.4 102.25 37.9 100.1 37.85 99.85 39.5 90.7 39.1 91.3 36.35 Q90.2 36.9 89.05 36.9 87.15 36.85 85.8 35.5 84.15 40.9 79.9 41.85 76.65 42.55 73.95 41.05 L74.6 43.75 61.0 49.85 58.3 27.15 50.7 29.7 46.35 12.55 69.6 13.95 70.7 18.65 Q72.8 16.35 75.8 15.65 78.35 15.1 80.85 17.05 83.25 18.9 84.85 22.5 87.15 19.3 90.8 19.6 93.8 19.8 95.35 23.3 L98.85 23.05 99.45 16.85 119.7 13.75 120.4 10.0 Q124.9 7.0 129.15 6.95 L134.0 10.55 133.6 12.85 135.85 12.0 139.6 13.7 Q140.95 16.45 140.75 21.3 L142.6 21.4 142.95 17.75 153.8 18.35 153.8 15.1 168.9 12.9" fill="#000000" fill-rule="evenodd" stroke="none"/>
    <path d="M150.85 21.9 L155.7 22.0 156.6 23.7 156.45 17.2 165.15 16.4 161.2 36.45 157.05 36.45 155.7 34.0 155.4 37.55 150.15 37.75 150.85 21.9" fill="#f7fa16" fill-rule="evenodd" stroke="none"/>
    <path d="M150.85 21.9 L150.15 37.75 155.4 37.55 155.7 34.0 157.05 36.45 161.2 36.45 165.15 16.4 156.45 17.2 156.6 23.7 155.7 22.0 150.85 21.9 Z" fill="none" stroke="#000000" stroke-linecap="round" stroke-linejoin="round" stroke-width="0.55"/>
    <path d="M117.5 15.8 L116.5 23.55 111.45 23.35 111.45 39.1 104.1 38.15 106.0 23.35 101.7 23.15 101.65 18.35 117.5 15.8" fill="#f7fa16" fill-rule="evenodd" stroke="none"/>
    <path d="M117.5 15.8 L101.65 18.35 101.7 23.15 106.0 23.35 104.1 38.15 111.45 39.1 111.45 23.35 116.5 23.55 117.5 15.8 Z" fill="none" stroke="#000000" stroke-linecap="round" stroke-linejoin="round" stroke-width="0.55"/>
    <path d="M70.05 21.3 L66.15 22.45 72.45 42.0 62.8 45.35 59.65 24.4 52.55 26.35 49.9 15.8 68.7 15.85 70.05 21.3" fill="#f7fa16" fill-rule="evenodd" stroke="none"/>
    <path d="M70.05 21.3 L68.7 15.85 49.9 15.8 52.55 26.35 59.65 24.4 62.8 45.35 72.45 42.0 66.15 22.45 70.05 21.3 Z" fill="none" stroke="#000000" stroke-linecap="round" stroke-linejoin="round" stroke-width="0.55"/>
    <path d="M143.95 21.7 L149.85 21.4 147.65 38.65 143.95 38.75 142.55 34.95 141.2 37.8 137.35 37.7 135.4 23.85 140.55 23.75 141.35 26.85 142.25 24.6 143.35 26.8 143.95 21.7" fill="#f7fa16" fill-rule="evenodd" stroke="none"/>
    <path d="M143.95 21.7 L143.35 26.8 142.25 24.6 141.35 26.85 140.55 23.75 135.4 23.85 137.35 37.7 141.2 37.8 142.55 34.95 143.95 38.75 147.65 38.65 149.85 21.4 143.95 21.7 Z" fill="none" stroke="#000000" stroke-linecap="round" stroke-linejoin="round" stroke-width="0.55"/>
    <path d="M98.9 27.35 L98.65 25.2 103.8 24.8 103.1 36.1 99.75 35.95 98.7 34.4 98.65 37.2 92.95 37.05 93.45 32.95 94.0 32.1 94.5 30.8 94.7 29.65 94.7 29.45 94.75 29.25 94.75 28.6 94.7 28.45 94.7 27.95 94.7 27.7 94.7 27.45 94.65 27.2 94.65 26.9 98.9 27.35" fill="#f7fa16" fill-rule="evenodd" stroke="none"/>
    <path d="M99.6 31.15 L98.95 27.75 98.9 27.4 98.9 27.35 94.65 26.9 94.65 27.2 94.7 27.45 94.7 27.7 94.7 27.95 94.7 28.45 94.75 28.6 94.75 29.25 94.7 29.45 94.7 29.65 94.5 30.8 94.0 32.1 93.45 32.95 92.95 37.05 98.65 37.2 98.7 34.4 99.75 35.95 103.1 36.1 103.8 24.8 98.65 25.2 98.9 27.35 98.95 27.75" fill="none" stroke="#000000" stroke-linecap="round" stroke-linejoin="round" stroke-width="0.55"/>
    <path d="M163.95 17.55 L165.15 16.4 161.2 36.45 160.45 35.4 163.95 17.55" fill="#f4f5c6" fill-rule="evenodd" stroke="none"/>
    <path d="M165.15 16.4 L163.95 17.55 157.7 18.15 156.45 17.2 165.15 16.4" fill="#f4f5c6" fill-rule="evenodd" stroke="none"/>
    <path d="M160.45 35.4 L161.2 36.45 157.05 36.45 157.85 35.4 160.45 35.4" fill="#f99322" fill-rule="evenodd" stroke="none"/>
    <path d="M157.8 27.65 L156.6 23.7 156.45 17.2 157.7 18.15 157.8 27.65" fill="#f99322" fill-rule="evenodd" stroke="none"/>
    <path d="M155.2 23.05 L155.7 22.0 156.6 23.7 157.8 27.65 155.2 23.05" fill="#f4f5c6" fill-rule="evenodd" stroke="none"/>
    <path d="M157.85 35.4 L157.05 36.45 155.7 34.05 155.0 29.8 157.85 35.4" fill="#f99322" fill-rule="evenodd" stroke="none"/>
    <path d="M155.0 29.8 L155.7 34.05 155.4 37.55 154.5 36.55 155.0 29.8" fill="#f4f5c6" fill-rule="evenodd" stroke="none"/>
    <path d="M151.95 23.0 L150.85 21.95 155.7 22.0 155.2 23.05 151.95 23.0" fill="#f4f5c6" fill-rule="evenodd" stroke="none"/>
    <path d="M154.5 36.55 L155.4 37.55 150.15 37.75 151.35 36.65 154.5 36.55" fill="#f99322" fill-rule="evenodd" stroke="none"/>
    <path d="M151.35 36.65 L150.15 37.75 150.85 21.95 151.95 23.0 151.35 36.65" fill="#f99322" fill-rule="evenodd" stroke="none"/>
    <path d="M155.0 29.8 L154.5 36.55 151.35 36.65 151.95 23.0 155.2 23.05 157.8 27.65 157.7 18.15 163.95 17.55 160.45 35.4 157.85 35.4 155.0 29.8" fill="#efea11" fill-rule="evenodd" stroke="none"/>
    <path d="M122.3 24.0 Q123.5 22.6 124.7 22.9 125.9 23.25 126.3 25.1 126.8 27.0 126.2 29.3 125.7 31.6 124.5 33.0 123.25 34.45 122.1 34.1 120.9 33.75 120.45 31.9 120.0 29.95 120.55 27.65 121.05 25.35 122.3 24.0" fill="#ffffff" fill-rule="evenodd" stroke="none"/>
    <path d="M115.6 22.4 L116.35 17.0 117.55 15.75 116.5 23.5 115.6 22.4" fill="#f4f5c6" fill-rule="evenodd" stroke="none"/>
    <path d="M116.35 17.0 L102.8 19.15 101.7 18.25 117.55 15.75 116.35 17.0" fill="#f4f5c6" fill-rule="evenodd" stroke="none"/>
    <path d="M102.8 19.15 L102.8 22.0 101.7 23.05 101.7 18.25 102.8 19.15" fill="#f99322" fill-rule="evenodd" stroke="none"/>
    <path d="M110.45 22.25 L115.6 22.4 116.5 23.5 111.5 23.35 110.45 22.25" fill="#f99322" fill-rule="evenodd" stroke="none"/>
    <path d="M111.45 39.05 L104.15 38.1 105.35 37.15 110.4 37.8 111.45 39.05" fill="#f99322" fill-rule="evenodd" stroke="none"/>
    <path d="M106.05 23.35 L101.7 23.05 102.8 22.0 107.3 22.25 106.05 23.35" fill="#f99322" fill-rule="evenodd" stroke="none"/>
    <path d="M110.4 37.8 L110.45 22.25 111.5 23.35 111.45 39.05 110.4 37.8" fill="#f4f5c6" fill-rule="evenodd" stroke="none"/>
    <path d="M107.3 22.25 L105.35 37.15 104.15 38.1 106.05 23.35 107.3 22.25" fill="#f99322" fill-rule="evenodd" stroke="none"/>
    <path d="M116.35 17.0 L115.6 22.4 110.45 22.25 110.4 37.8 105.35 37.15 107.3 22.25 102.8 22.0 102.8 19.15 116.35 17.0" fill="#efea11" fill-rule="evenodd" stroke="none"/>
    <path d="M83.0 14.95 L82.2 15.55 Q80.25 13.6 77.5 13.35 74.25 13.0 72.05 15.65 L71.4 15.3 Q72.85 9.9 77.25 10.45 81.25 10.95 83.0 14.95" fill="#000000" fill-rule="evenodd" stroke="none"/>
    <path d="M86.95 18.45 Q87.8 16.15 90.1 15.95 92.6 15.8 94.2 18.65 L93.45 19.05 Q90.25 16.6 87.65 18.8 L86.95 18.45" fill="#000000" fill-rule="evenodd" stroke="none"/>
    <path d="M83.4 28.3 Q83.75 30.35 83.1 31.9 82.5 33.5 81.3 33.55 80.1 33.7 79.0 32.35 77.95 30.95 77.6 28.95 77.4 27.65 77.6 26.5 80.25 26.1 81.45 28.55 81.4 25.3 78.7 24.15 79.2 23.7 79.75 23.65 80.95 23.5 82.05 24.9 83.1 26.25 83.4 28.3" fill="#000000" fill-rule="evenodd" stroke="none"/>
    <path d="M51.3 16.95 L53.3 24.85 52.6 26.35 49.9 15.8 51.3 16.95" fill="#f99322" fill-rule="evenodd" stroke="none"/>
    <path d="M51.3 16.95 L53.3 24.85 52.6 26.35 49.9 15.8 51.3 16.95 Z" fill="none" stroke="#f99322" stroke-linecap="round" stroke-linejoin="round" stroke-width="2.85"/>
    <path d="M53.3 24.85 L60.55 22.85 59.65 24.4 52.6 26.35 53.3 24.85" fill="#f99322" fill-rule="evenodd" stroke="none"/>
    <path d="M67.65 17.05 L51.3 16.95 49.9 15.8 68.75 15.85 67.65 17.05" fill="#f4f5c6" fill-rule="evenodd" stroke="none"/>
    <path d="M60.55 22.85 L63.65 43.75 62.8 45.35 59.65 24.4 60.55 22.85" fill="#f99322" fill-rule="evenodd" stroke="none"/>
    <path d="M72.5 42.0 L62.8 45.35 63.65 43.75 70.85 41.25 72.5 42.0" fill="#f99322" fill-rule="evenodd" stroke="none"/>
    <path d="M64.5 21.65 L68.5 20.4 70.05 21.3 66.15 22.45 64.5 21.65" fill="#f99322" fill-rule="evenodd" stroke="none"/>
    <path d="M68.5 20.4 L67.65 17.05 68.75 15.85 70.05 21.3 68.5 20.4" fill="#f4f5c6" fill-rule="evenodd" stroke="none"/>
    <path d="M70.85 41.25 L64.5 21.65 66.15 22.45 72.5 42.0 70.85 41.25" fill="#f4f5c6" fill-rule="evenodd" stroke="none"/>
    <path d="M67.65 17.05 L68.5 20.4 64.5 21.65 70.85 41.25 63.65 43.75 60.55 22.85 53.3 24.85 51.3 16.95 67.65 17.05" fill="#efea11" fill-rule="evenodd" stroke="none"/>
    <path d="M146.8 37.6 L148.8 22.45 149.85 21.4 147.65 38.6 146.8 37.6" fill="#f4f5c6" fill-rule="evenodd" stroke="none"/>
    <path d="M148.8 22.45 L145.05 22.65 143.95 21.65 149.85 21.4 148.8 22.45" fill="#f4f5c6" fill-rule="evenodd" stroke="none"/>
    <path d="M144.75 37.65 L146.8 37.6 147.65 38.6 143.95 38.7 144.75 37.65" fill="#f99322" fill-rule="evenodd" stroke="none"/>
    <path d="M145.05 22.65 L144.3 30.7 143.35 26.75 143.95 21.65 145.05 22.65" fill="#f99322" fill-rule="evenodd" stroke="none"/>
    <path d="M142.35 31.95 L144.75 37.65 143.95 38.7 142.55 34.95 142.35 31.95" fill="#f99322" fill-rule="evenodd" stroke="none"/>
    <path d="M144.3 30.7 L142.4 27.05 142.25 24.6 143.35 26.75 144.3 30.7" fill="#f4f5c6" fill-rule="evenodd" stroke="none"/>
    <path d="M141.2 37.8 L140.45 36.7 142.35 31.95 142.55 34.95 141.2 37.8" fill="#f4f5c6" fill-rule="evenodd" stroke="none"/>
    <path d="M142.4 27.05 L141.0 30.45 141.35 26.85 142.25 24.6 142.4 27.05" fill="#f99322" fill-rule="evenodd" stroke="none"/>
    <path d="M141.0 30.45 L139.7 24.8 140.55 23.7 141.35 26.85 141.0 30.45" fill="#f4f5c6" fill-rule="evenodd" stroke="none"/>
    <path d="M138.35 36.65 L140.45 36.7 141.2 37.8 137.35 37.7 138.35 36.65" fill="#f99322" fill-rule="evenodd" stroke="none"/>
    <path d="M139.7 24.8 L136.7 24.85 135.4 23.85 140.55 23.7 139.7 24.8" fill="#f4f5c6" fill-rule="evenodd" stroke="none"/>
    <path d="M136.7 24.85 L138.35 36.65 137.35 37.7 135.4 23.85 136.7 24.85" fill="#f99322" fill-rule="evenodd" stroke="none"/>
    <path d="M145.05 22.65 L148.8 22.45 146.8 37.6 144.75 37.65 142.35 31.95 140.45 36.7 138.35 36.65 136.7 24.85 139.7 24.8 141.0 30.45 142.4 27.05 144.3 30.7 145.05 22.65" fill="#efea11" fill-rule="evenodd" stroke="none"/>
    <path d="M94.45 33.0 L94.05 36.1 93.0 37.05 93.5 32.95 94.45 33.0" fill="#f99322" fill-rule="evenodd" stroke="none"/>
    <path d="M94.05 36.1 L97.7 36.2 98.65 37.25 93.0 37.05 94.05 36.1" fill="#f99322" fill-rule="evenodd" stroke="none"/>
    <path d="M98.25 28.3 L95.7 28.0 94.65 26.9 98.95 27.35 98.25 28.3" fill="#f4f5c6" fill-rule="evenodd" stroke="none"/>
    <path d="M97.7 36.2 L98.05 31.9 98.75 34.45 98.65 37.25 97.7 36.2" fill="#f4f5c6" fill-rule="evenodd" stroke="none"/>
    <path d="M98.05 31.9 L100.35 35.1 99.75 36.0 98.75 34.45 98.05 31.9" fill="#f99322" fill-rule="evenodd" stroke="none"/>
    <path d="M98.7 25.25 L99.7 26.15 99.6 31.2 98.7 25.25" fill="#f99322" fill-rule="evenodd" stroke="none"/>
    <path d="M102.7 25.9 L99.7 26.15 98.7 25.25 103.85 24.8 102.7 25.9" fill="#f4f5c6" fill-rule="evenodd" stroke="none"/>
    <path d="M99.6 31.2 L98.25 28.3 98.95 27.35 99.6 31.2" fill="#f4f5c6" fill-rule="evenodd" stroke="none"/>
    <path d="M100.35 35.1 L102.2 35.0 103.1 36.15 99.75 36.0 100.35 35.1" fill="#f99322" fill-rule="evenodd" stroke="none"/>
    <path d="M102.2 35.0 L102.7 25.9 103.85 24.8 103.1 36.15 102.2 35.0" fill="#f4f5c6" fill-rule="evenodd" stroke="none"/>
    <path d="M95.7 29.55 L95.7 28.0 98.25 28.3 99.6 31.2 99.7 26.15 102.7 25.9 102.2 35.0 100.35 35.1 98.05 31.9 97.7 36.2 94.05 36.1 94.4 33.35 Q95.55 31.55 95.7 29.55" fill="#efea11" fill-rule="evenodd" stroke="none"/>
    <path d="M146.75 40.8 L146.35 45.05 144.75 45.25 144.15 42.8 143.95 45.25 142.8 45.35 142.75 41.4 144.8 41.2 145.35 43.6 145.45 40.9 146.75 40.8" fill="#efea11" fill-rule="evenodd" stroke="none"/>
    <path d="M150.2 43.85 L150.15 44.55 147.55 44.8 147.75 40.6 149.3 40.45 148.95 43.9 150.2 43.85" fill="#efea11" fill-rule="evenodd" stroke="none"/>
    <path d="M152.1 44.4 L150.85 44.5 150.95 40.35 152.5 40.15 152.1 44.4" fill="#efea11" fill-rule="evenodd" stroke="none"/>
    <path d="M155.45 40.15 L156.0 42.55 156.1 39.85 157.4 39.8 157.0 44.0 155.4 44.2 154.8 41.75 154.6 44.2 153.45 44.3 153.4 40.35 155.45 40.15" fill="#efea11" fill-rule="evenodd" stroke="none"/>
    <path d="M159.35 43.05 L160.7 42.85 160.5 43.65 158.0 43.9 158.25 39.7 161.25 39.4 161.0 40.3 159.6 40.45 159.5 41.4 160.75 41.25 160.55 42.05 159.4 42.1 159.35 43.05" fill="#efea11" fill-rule="evenodd" stroke="none"/>
    <path d="M139.85 39.8 Q140.95 40.0 141.5 41.15 142.05 42.35 141.7 43.85 141.35 45.35 140.4 46.25 139.4 47.2 138.35 47.0 137.25 46.8 136.7 45.6 136.15 44.4 136.45 42.9 136.8 41.4 137.75 40.5 138.75 39.6 139.85 39.8 M140.0 42.3 Q139.9 41.55 139.05 40.65 138.15 42.2 138.3 44.15 138.35 45.05 138.95 46.25 140.35 44.5 140.0 42.3" fill="#efea11" fill-rule="evenodd" stroke="none"/>
    <path d="M92.75 10.25 Q91.75 11.1 90.25 11.25 L88.3 11.2 88.15 11.35 87.55 11.65 87.05 11.6 86.65 11.4 Q86.4 11.1 86.3 10.6 L86.25 10.45 85.1 9.65 Q84.1 8.85 83.85 8.1 83.6 7.35 84.2 6.85 84.6 6.45 85.15 6.25 L86.3 5.85 86.35 5.3 Q86.45 4.6 86.7 4.1 L87.05 3.8 84.5 3.45 84.0 4.0 83.45 4.05 Q82.65 4.05 82.35 3.5 82.15 3.2 82.3 2.9 L82.55 2.4 83.2 1.8 Q87.4 0.4 91.65 3.75 93.45 5.2 93.95 6.9 94.55 8.85 92.75 10.25 M90.0 5.9 Q90.95 6.05 91.4 6.8 90.65 5.3 88.3 4.3 L88.05 4.15 88.45 5.15 88.45 5.65 90.0 5.9 M89.1 8.4 L89.15 8.0 88.45 7.9 88.5 9.05 89.8 9.05 89.95 9.05 89.55 8.95 89.1 8.4 M86.1 8.0 L85.85 8.05 86.2 8.3 86.2 8.0 86.1 8.0" fill="#000000" fill-rule="evenodd" stroke="none"/>
    <path d="M99.15 5.7 Q99.6 5.8 99.85 6.1 100.3 6.6 99.95 7.2 L99.65 7.5 99.5 7.6 99.9 8.05 100.0 9.0 99.7 9.9 Q99.05 10.9 97.35 10.75 95.65 10.65 95.35 9.25 95.2 8.8 95.4 8.35 L95.1 7.8 Q94.95 6.75 95.95 6.2 96.5 5.85 97.6 5.65 L99.15 5.7" fill="#000000" fill-rule="evenodd" stroke="none"/>
    <path d="M102.1 5.1 Q103.25 5.3 103.7 7.4 104.2 9.6 102.95 10.35 L102.85 10.45 102.55 10.55 101.9 10.45 101.4 10.0 101.25 10.35 100.6 10.8 Q99.7 10.9 99.45 9.9 99.3 9.35 99.4 8.6 99.6 7.2 99.95 6.45 L100.05 6.3 100.3 6.05 Q100.7 5.8 101.1 6.05 L101.25 6.15 101.25 5.7 101.3 5.55 101.5 5.3 Q101.75 5.0 102.1 5.1" fill="#000000" fill-rule="evenodd" stroke="none"/>
    <path d="M105.7 5.6 L106.85 5.75 Q107.7 6.15 107.55 7.0 L107.3 7.5 106.9 7.65 106.95 8.25 106.85 8.55 107.05 8.95 107.1 9.55 106.85 9.9 Q105.85 10.7 105.1 10.85 103.35 11.2 103.2 9.35 L103.4 7.85 103.65 7.35 103.5 7.2 Q103.25 6.65 103.35 6.3 103.5 6.0 103.8 5.95 L105.7 5.6" fill="#000000" fill-rule="evenodd" stroke="none"/>
    <path d="M108.65 5.7 Q109.1 5.8 109.15 6.3 L109.65 6.05 Q110.65 5.75 111.1 6.85 111.45 7.55 111.25 8.45 110.8 10.6 108.7 10.95 L108.05 13.55 Q107.95 14.15 107.45 14.15 106.45 14.25 106.1 13.2 105.9 12.6 106.1 11.7 106.25 10.6 106.65 9.65 L106.55 9.3 Q106.4 8.6 106.95 7.3 L107.5 6.3 107.85 5.9 108.65 5.7" fill="#000000" fill-rule="evenodd" stroke="none"/>
    <path d="M114.6 5.7 Q115.05 5.8 115.3 6.05 115.7 6.5 115.5 7.1 L115.4 7.3 115.0 7.6 115.4 8.05 115.5 9.0 115.25 9.9 Q114.55 10.9 112.9 10.75 111.1 10.65 110.8 9.25 110.7 8.75 110.9 8.4 L110.6 7.8 Q110.45 6.85 111.45 6.2 112.1 5.8 113.05 5.65 L114.6 5.7" fill="#000000" fill-rule="evenodd" stroke="none"/>
    <path d="M97.55 4.25 L96.9 5.4 Q95.9 6.5 94.5 6.35 L94.3 6.55 Q93.7 6.9 93.25 6.3 L92.95 5.55 Q92.0 4.1 93.75 2.8 L96.6 2.7 96.7 2.7 97.05 2.9 Q97.7 3.35 97.55 4.25" fill="#000000" fill-rule="evenodd" stroke="none"/>
    <path d="M110.4 5.9 L110.35 5.85 Q109.5 5.2 110.3 4.3 110.5 4.05 110.7 4.05 112.05 3.75 112.3 5.3 112.6 6.75 111.3 7.15 L111.15 7.15 110.9 7.2 Q110.3 7.1 110.2 6.55 110.1 6.2 110.4 5.9" fill="#000000" fill-rule="evenodd" stroke="none"/>
    <path d="M95.2 5.95 L95.65 6.8 95.75 8.35 95.75 9.95 95.55 10.45 95.05 10.75 94.35 10.7 Q93.75 10.55 93.65 9.85 L93.6 9.5 93.6 9.25 93.6 7.85 93.7 6.4 Q93.85 5.95 94.25 5.7 94.7 5.45 95.2 5.95" fill="#000000" fill-rule="evenodd" stroke="none"/>
    <path d="M92.35 9.7 Q90.5 11.1 87.85 10.35 87.75 11.05 87.15 10.9 L86.9 10.0 Q84.85 8.95 84.5 7.9 84.2 6.85 86.95 6.4 87.05 4.85 87.3 4.45 87.7 4.55 87.8 6.25 L87.9 6.3 Q91.3 6.3 90.95 7.75 L90.35 8.35 89.8 8.3 90.25 7.65 Q88.3 6.7 87.8 7.2 L87.85 9.65 Q90.35 10.15 91.8 8.95 92.65 8.15 92.25 6.95 91.5 4.95 88.55 3.65 85.75 2.4 83.6 2.9 L83.35 3.05 83.85 3.2 82.9 3.15 Q83.2 2.5 83.45 2.45 87.2 1.15 91.2 4.35 95.2 7.45 92.35 9.7 M85.4 8.55 L86.85 9.3 86.95 7.2 85.0 7.6 Q84.3 7.8 85.4 8.55" fill="#ffffff" fill-rule="evenodd" stroke="none"/>
    <path d="M96.3 9.05 Q96.5 9.45 97.6 9.3 98.7 9.2 98.75 8.75 98.65 8.25 97.25 8.15 95.85 8.1 95.75 7.65 95.6 6.65 97.65 6.35 99.8 6.1 99.35 6.85 L96.4 7.45 97.7 7.7 Q98.95 7.8 99.25 8.3 99.55 8.95 99.15 9.55 98.7 10.2 97.45 10.05 96.15 9.9 96.0 9.1 95.85 8.4 96.9 8.35 L98.3 8.65 Q98.35 9.6 96.35 8.85 L96.3 9.05" fill="#ffffff" fill-rule="evenodd" stroke="none"/>
    <path d="M102.4 8.6 L101.95 5.75 Q102.7 5.9 103.05 7.55 103.45 9.25 102.6 9.8 L102.25 9.85 100.95 7.8 Q100.95 10.05 100.55 10.1 99.95 10.2 100.1 8.65 100.25 7.3 100.55 6.8 100.65 6.6 100.85 6.65 L102.3 8.8 102.4 8.6" fill="#ffffff" fill-rule="evenodd" stroke="none"/>
    <path d="M105.2 7.65 Q106.35 7.65 106.3 8.15 L105.55 8.3 Q104.95 8.3 104.9 8.55 L104.75 9.1 106.3 8.95 106.45 9.4 Q104.1 11.2 103.9 9.25 L104.1 7.95 104.65 7.05 Q103.85 6.85 104.0 6.6 107.15 5.55 106.9 6.95 L105.35 7.1 105.2 7.65" fill="#ffffff" fill-rule="evenodd" stroke="none"/>
    <path d="M110.6 8.3 Q110.2 10.2 108.15 10.3 L107.4 13.5 Q105.7 13.55 107.4 9.65 L107.2 9.15 Q107.1 8.7 107.6 7.5 108.1 6.3 108.5 6.35 L108.1 7.65 Q107.6 8.5 107.8 8.85 109.35 6.9 109.8 6.7 111.0 6.4 110.6 8.3 M110.0 7.45 Q109.8 7.4 108.65 9.35 109.25 9.35 109.8 8.85 110.3 8.3 110.15 7.6 L110.0 7.45" fill="#ffffff" fill-rule="evenodd" stroke="none"/>
    <path d="M113.25 7.7 Q114.5 7.85 114.75 8.35 115.05 8.95 114.7 9.55 114.2 10.25 112.95 10.1 111.7 9.95 111.5 9.1 111.35 8.4 112.4 8.35 L113.85 8.65 Q113.85 9.6 111.85 8.85 L111.75 9.05 Q112.0 9.45 113.1 9.3 114.15 9.2 114.3 8.75 114.15 8.25 112.75 8.15 111.35 8.1 111.25 7.65 111.1 6.65 113.1 6.35 115.15 6.05 114.9 6.85 L111.9 7.45 113.25 7.7" fill="#ffffff" fill-rule="evenodd" stroke="none"/>
    <path d="M96.65 3.45 Q97.35 3.9 96.4 4.95 95.4 6.0 94.15 5.65 93.95 6.15 93.75 5.9 L93.65 5.3 Q92.75 4.35 94.2 3.35 95.65 2.35 96.25 3.35 96.45 3.25 96.65 3.45 M93.9 4.7 L94.8 3.7 Q94.55 3.7 94.1 4.05 93.7 4.5 93.9 4.7 M94.55 5.0 L95.8 4.8 Q96.65 4.45 96.4 3.9 L95.95 3.75 Q95.25 3.9 94.55 5.0" fill="#ffffff" fill-rule="evenodd" stroke="none"/>
    <path d="M110.8 4.7 Q111.45 4.6 111.65 5.4 111.85 6.3 111.1 6.45 L110.85 6.4 Q111.35 6.15 111.2 5.75 L110.8 5.3 Q110.5 5.1 110.8 4.7" fill="#ffffff" fill-rule="evenodd" stroke="none"/>
    <path d="M95.1 9.9 L94.6 10.05 Q94.35 10.0 94.25 9.25 L94.35 6.6 Q94.7 5.35 94.95 6.9 L95.1 9.9" fill="#ffffff" fill-rule="evenodd" stroke="none"/>
    <path d="M91.3 20.1 Q93.7 20.45 95.0 23.2 96.3 25.95 95.7 29.4 95.1 32.9 93.0 35.05 90.85 37.2 88.45 36.85 87.35 36.7 87.2 35.7 L85.55 33.4 85.55 25.35 89.75 20.3 91.3 20.1" fill="#000000" fill-rule="evenodd" stroke="none"/>
    <path d="M91.9 24.7 Q93.9 24.85 93.7 27.85 93.55 30.85 91.55 30.75 89.45 30.65 89.75 27.65 89.75 26.9 90.05 26.2 91.6 26.3 92.35 27.65 92.65 25.75 91.1 24.85 L91.9 24.7" fill="#000000" fill-rule="evenodd" stroke="none"/>
    <path d="M128.0 10.3 L127.9 14.75 Q129.3 15.1 130.4 16.3 L133.9 15.1 Q135.6 17.9 134.8 21.75 L131.85 23.7 Q131.95 25.8 131.65 27.25 L133.85 28.25 Q133.75 29.95 132.8 33.15 131.7 36.5 130.85 37.2 L128.05 36.25 127.0 38.3 128.25 41.2 Q126.85 44.75 124.25 45.7 L121.5 43.0 119.5 43.35 117.3 46.2 Q115.9 45.4 114.8 43.1 L115.85 40.1 115.4 37.8 113.75 37.15 Q113.45 34.2 114.05 31.5 L115.85 31.2 Q116.35 28.85 117.0 27.45 L114.75 26.35 114.8 24.6 118.45 24.9 119.7 16.4 121.85 15.15 122.35 11.85 Q124.8 10.65 128.0 10.3" fill="#ffffff" fill-rule="evenodd" stroke="none"/>
    <path d="M124.9 22.25 Q126.3 22.7 126.9 24.75 127.5 26.85 126.85 29.45 126.05 33.1 123.9 34.4 L121.9 34.75 Q120.45 34.3 119.85 32.25 119.3 30.15 119.9 27.55 120.7 23.85 122.9 22.55 123.85 22.0 124.9 22.25" fill="#000000" fill-rule="evenodd" stroke="none"/>
    <path d="M121.85 38.05 Q125.15 38.3 127.5 33.85 L127.75 34.0 Q126.55 37.9 123.95 39.5 122.1 40.65 120.45 40.3 L121.3 41.0 123.9 41.1 124.0 41.4 Q121.1 43.1 119.0 40.75 116.7 38.25 117.25 32.75 L117.6 32.5 Q118.4 37.75 121.85 38.05" fill="#000000" fill-rule="evenodd" stroke="none"/>
    <path d="M121.55 19.15 Q123.6 15.85 126.65 17.05 129.95 18.35 129.45 24.95 L129.15 25.05 Q129.0 21.7 126.8 19.65 124.35 17.3 121.65 19.5 L121.55 19.15" fill="#000000" fill-rule="evenodd" stroke="none"/>
    <path d="M125.65 29.15 Q125.25 31.3 123.95 32.7 123.45 30.85 124.0 28.35 124.55 26.15 125.6 24.8 126.3 26.65 125.65 29.15" fill="#f9361b" fill-rule="evenodd" stroke="none"/>
    <path d="M123.1 30.5 L120.2 30.75 Q119.85 29.9 120.55 27.3 L123.35 28.6 123.1 30.5" fill="#aec3cb" fill-rule="evenodd" stroke="none"/>
    <path d="M123.7 27.35 L123.6 27.85 120.9 26.35 121.3 25.5 123.7 27.35" fill="#aec3cb" fill-rule="evenodd" stroke="none"/>
    <path d="M134.2 34.0 L136.05 35.05 Q135.5 37.8 134.8 38.9 L132.55 37.8 Q133.45 36.8 134.2 34.0" fill="#aec3cb" fill-rule="evenodd" stroke="none"/>
    <path d="M128.4 39.1 L132.4 41.05 132.45 42.65 129.35 41.25 128.4 39.1" fill="#aec3cb" fill-rule="evenodd" stroke="none"/>
    <path d="M121.7 45.2 L121.6 46.65 118.65 47.3 119.95 44.75 121.7 45.2" fill="#aec3cb" fill-rule="evenodd" stroke="none"/>
    <path d="M139.65 15.7 L136.75 14.5 136.45 13.05 139.1 14.25 139.65 15.7" fill="#aec3cb" fill-rule="evenodd" stroke="none"/>
    <path d="M137.05 16.4 L139.95 17.15 Q140.25 19.3 140.0 21.2 L137.1 20.7 137.05 16.4" fill="#aec3cb" fill-rule="evenodd" stroke="none"/>
    <path d="M128.95 13.65 L129.25 11.05 132.9 12.95 129.95 14.1 128.95 13.65" fill="#aec3cb" fill-rule="evenodd" stroke="none"/>
    <path d="M133.1 11.9 L129.35 9.9 129.5 8.45 133.3 11.05 133.1 11.9" fill="#aec3cb" fill-rule="evenodd" stroke="none"/>
    <path d="M174.75 8.6 Q174.55 8.8 174.2 8.8 173.6 8.8 173.4 8.2 L173.6 8.15 Q173.75 8.6 174.2 8.6 L174.55 8.45 174.7 8.2 174.35 7.9 174.05 7.8 173.65 7.6 173.5 7.3 Q173.5 6.7 174.15 6.7 174.7 6.7 174.9 7.2 L174.65 7.3 Q174.55 6.95 174.15 6.95 173.75 6.95 173.75 7.25 173.75 7.45 174.1 7.55 L174.4 7.6 174.8 7.8 174.95 8.2 174.75 8.6" fill="#000000" fill-rule="evenodd" stroke="none"/>
    <path d="M175.5 7.0 L175.5 8.75 175.3 8.75 175.3 6.75 175.7 6.75 176.3 8.35 176.85 6.75 177.25 6.75 177.25 8.75 177.0 8.75 177.0 7.0 176.35 8.75 176.15 8.75 175.55 7.0 175.5 7.0" fill="#000000" fill-rule="evenodd" stroke="none"/>
    <path d="M86.8 26.95 Q87.15 24.5 88.55 22.9 89.95 21.35 91.55 21.55 93.15 21.75 94.1 23.7 95.05 25.6 94.7 28.0 94.35 30.5 92.95 32.1 91.5 33.65 89.9 33.45 88.25 33.2 87.4 31.3 86.5 29.4 86.8 26.95" fill="#ffffff" fill-rule="evenodd" stroke="none"/>
    <path d="M83.6 34.55 Q82.55 37.9 80.15 38.6 77.75 39.3 75.45 36.85 73.1 34.5 72.25 30.4 71.4 26.35 72.4 23.0 73.5 19.6 75.9 18.9 78.3 18.2 80.6 20.65 82.95 23.05 83.85 27.1 84.7 31.2 83.6 34.55" fill="#ffffff" fill-rule="evenodd" stroke="none"/>
    <path d="M87.55 26.55 Q88.3 21.5 91.55 21.55 92.9 21.55 93.9 23.55 94.9 25.55 94.65 27.6 94.0 32.55 90.6 32.1 89.2 31.9 88.25 30.25 87.25 28.5 87.55 26.55" fill="#ffffff" fill-rule="evenodd" stroke="none"/>
    <path d="M83.6 34.55 Q82.55 37.9 80.15 38.6 77.75 39.3 75.45 36.85 73.1 34.5 72.25 30.4 71.4 26.35 72.4 23.0 73.5 19.6 75.9 18.9 78.3 18.2 80.6 20.65 82.95 23.05 83.85 27.1 84.7 31.2 83.6 34.55" fill="#ffffff" fill-rule="evenodd" stroke="none"/>
    <path d="M86.65 27.15 Q87.0 24.7 88.4 23.1 89.75 21.55 91.4 21.75 93.0 22.0 93.95 23.9 94.85 25.8 94.5 28.25 94.15 30.7 92.75 32.3 91.4 33.85 89.75 33.6 88.15 33.4 87.25 31.5 86.35 29.6 86.65 27.15" fill="#7d7d7d" fill-rule="evenodd" stroke="none"/>
    <path d="M86.7 27.15 Q87.05 24.7 88.4 23.1 89.75 21.55 91.4 21.75 93.0 22.0 93.95 23.9 94.85 25.8 94.5 28.25 94.15 30.75 92.75 32.25 91.4 33.8 89.75 33.55 88.15 33.35 87.25 31.5 86.35 29.6 86.7 27.15" fill="#828282" fill-rule="evenodd" stroke="none"/>
    <path d="M86.7 27.1 Q87.05 24.7 88.4 23.1 89.75 21.55 91.4 21.75 93.0 22.0 93.95 23.9 94.85 25.75 94.5 28.2 94.15 30.75 92.75 32.25 91.4 33.75 89.8 33.55 88.2 33.3 87.3 31.45 86.4 29.55 86.7 27.1" fill="#868686" fill-rule="evenodd" stroke="none"/>
    <path d="M86.75 27.1 Q87.1 24.7 88.4 23.1 89.75 21.55 91.4 21.75 93.0 22.0 93.9 23.9 94.85 25.8 94.5 28.2 94.15 30.75 92.75 32.25 91.45 33.7 89.85 33.5 88.25 33.25 87.35 31.4 86.45 29.5 86.75 27.1" fill="#8a8a8a" fill-rule="evenodd" stroke="none"/>
    <path d="M86.8 27.1 Q87.15 24.65 88.4 23.15 89.7 21.6 91.4 21.75 93.0 21.95 93.9 23.85 94.85 25.75 94.5 28.2 94.15 30.75 92.75 32.25 91.45 33.65 89.85 33.45 88.3 33.2 87.35 31.35 86.45 29.45 86.8 27.1" fill="#8f8f8f" fill-rule="evenodd" stroke="none"/>
    <path d="M86.8 27.1 Q87.15 24.65 88.4 23.15 89.7 21.6 91.4 21.75 93.0 21.95 93.9 23.85 94.85 25.75 94.5 28.15 94.15 30.75 92.8 32.25 91.5 33.6 89.9 33.4 88.3 33.2 87.4 31.3 86.5 29.5 86.8 27.1" fill="#939393" fill-rule="evenodd" stroke="none"/>
    <path d="M86.8 27.05 Q87.15 24.65 88.4 23.15 89.7 21.6 91.4 21.75 93.0 21.95 93.9 23.85 94.85 25.75 94.5 28.15 94.1 30.8 92.75 32.25 91.5 33.55 89.9 33.35 88.35 33.2 87.45 31.3 86.5 29.45 86.8 27.05" fill="#979797" fill-rule="evenodd" stroke="none"/>
    <path d="M86.85 27.05 Q87.2 24.65 88.45 23.15 89.7 21.6 91.4 21.75 92.95 21.95 93.9 23.85 94.85 25.75 94.5 28.15 93.7 33.8 89.95 33.3 88.4 33.15 87.45 31.25 86.55 29.4 86.85 27.05" fill="#9c9c9c" fill-rule="evenodd" stroke="none"/>
    <path d="M86.85 27.05 Q87.65 21.4 91.4 21.75 92.95 21.95 93.9 23.85 94.85 25.8 94.5 28.1 93.7 33.75 89.95 33.25 88.4 33.05 87.45 31.25 86.55 29.4 86.85 27.05" fill="#a0a0a0" fill-rule="evenodd" stroke="none"/>
    <path d="M86.9 27.0 Q87.7 21.4 91.4 21.75 92.95 21.9 93.9 23.85 94.85 25.8 94.5 28.1 93.7 33.75 90.0 33.2 88.45 33.0 87.5 31.2 86.6 29.35 86.9 27.0" fill="#a4a4a4" fill-rule="evenodd" stroke="none"/>
    <path d="M86.9 27.0 Q87.7 21.4 91.4 21.75 92.95 21.9 93.9 23.85 94.85 25.8 94.5 28.1 93.7 33.7 90.05 33.2 88.5 33.0 87.55 31.15 86.6 29.3 86.9 27.0" fill="#a9a9a9" fill-rule="evenodd" stroke="none"/>
    <path d="M86.95 27.0 Q87.75 21.45 91.4 21.75 92.95 21.9 93.9 23.85 94.85 25.75 94.5 28.05 93.75 33.65 90.05 33.15 88.5 32.9 87.6 31.15 86.65 29.3 86.95 27.0" fill="#adadad" fill-rule="evenodd" stroke="none"/>
    <path d="M87.0 27.0 Q87.7 21.45 91.4 21.75 92.95 21.9 93.9 23.85 94.85 25.8 94.5 28.05 93.75 33.6 90.1 33.1 88.55 32.9 87.65 31.1 86.7 29.3 87.0 27.0" fill="#b1b1b1" fill-rule="evenodd" stroke="none"/>
    <path d="M87.0 27.0 Q87.8 21.45 91.4 21.75 92.95 21.9 93.9 23.85 94.85 25.8 94.5 28.05 93.8 33.55 90.1 33.05 88.55 32.85 87.65 31.05 86.7 29.25 87.0 27.0" fill="#b6b6b6" fill-rule="evenodd" stroke="none"/>
    <path d="M87.05 27.0 Q87.8 21.45 91.4 21.75 92.9 21.85 93.9 23.8 94.85 25.75 94.5 28.0 93.7 33.55 90.1 33.0 88.6 32.8 87.7 31.0 86.75 29.2 87.05 27.0" fill="#bababa" fill-rule="evenodd" stroke="none"/>
    <path d="M87.05 27.0 Q87.8 21.55 91.4 21.75 92.9 21.85 93.9 23.8 94.85 25.75 94.5 28.0 93.75 33.5 90.15 32.95 88.65 32.75 87.7 30.95 86.75 29.2 87.05 27.0" fill="#bebebe" fill-rule="evenodd" stroke="none"/>
    <path d="M87.1 26.95 Q87.85 21.55 91.4 21.75 92.9 21.85 93.85 23.8 94.85 25.75 94.5 28.0 93.75 33.45 90.15 32.9 88.7 32.7 87.75 30.95 86.8 29.15 87.1 26.95" fill="#c3c3c3" fill-rule="evenodd" stroke="none"/>
    <path d="M87.15 26.95 Q87.8 21.55 91.4 21.75 92.9 21.85 93.85 23.8 94.85 25.75 94.5 27.95 93.75 33.4 90.2 32.9 88.75 32.65 87.8 30.9 86.8 29.1 87.15 26.95" fill="#c7c7c7" fill-rule="evenodd" stroke="none"/>
    <path d="M87.15 26.95 Q87.9 21.55 91.4 21.75 92.9 21.85 93.85 23.85 94.85 25.8 94.5 27.95 93.8 33.35 90.2 32.85 88.75 32.6 87.8 30.9 86.8 29.05 87.15 26.95" fill="#cbcbcb" fill-rule="evenodd" stroke="none"/>
    <path d="M87.15 26.95 Q87.9 21.55 91.4 21.75 92.9 21.85 93.85 23.8 94.85 25.75 94.55 27.95 93.8 33.3 90.25 32.8 88.8 32.55 87.85 30.85 86.85 29.05 87.15 26.95" fill="#d0d0d0" fill-rule="evenodd" stroke="none"/>
    <path d="M87.2 26.9 Q87.95 21.55 91.45 21.75 92.9 21.8 93.85 23.8 94.85 25.75 94.55 27.95 93.8 33.25 90.25 32.75 88.8 32.55 87.85 30.8 86.9 29.0 87.2 26.9" fill="#d4d4d4" fill-rule="evenodd" stroke="none"/>
    <path d="M87.2 26.9 Q87.95 21.6 91.45 21.75 92.85 21.8 93.85 23.8 94.85 25.8 94.55 27.95 93.8 33.2 90.3 32.7 88.8 32.5 87.9 30.8 86.9 29.0 87.2 26.9" fill="#d8d8d8" fill-rule="evenodd" stroke="none"/>
    <path d="M87.25 26.9 Q88.0 21.65 91.45 21.75 92.85 21.8 93.85 23.8 94.85 25.8 94.55 27.95 93.75 33.2 90.35 32.65 88.85 32.45 87.95 30.75 86.95 28.95 87.25 26.9" fill="#dddddd" fill-rule="evenodd" stroke="none"/>
    <path d="M87.25 26.85 Q88.0 21.65 91.45 21.75 92.85 21.8 93.85 23.8 94.85 25.75 94.55 27.9 93.8 33.15 90.35 32.6 88.9 32.4 87.95 30.7 86.95 28.95 87.25 26.85" fill="#e1e1e1" fill-rule="evenodd" stroke="none"/>
    <path d="M87.3 26.85 Q88.05 21.65 91.45 21.75 92.85 21.8 93.85 23.75 94.85 25.75 94.55 27.9 93.8 33.1 90.4 32.55 88.95 32.35 88.0 30.65 87.0 28.95 87.3 26.85" fill="#e5e5e5" fill-rule="evenodd" stroke="none"/>
    <path d="M87.35 26.85 Q88.1 21.65 91.45 21.75 92.85 21.8 93.85 23.75 94.85 25.75 94.55 27.9 93.8 33.1 90.4 32.55 89.0 32.3 88.05 30.6 87.05 28.9 87.35 26.85" fill="#eaeaea" fill-rule="evenodd" stroke="none"/>
    <path d="M87.35 26.8 Q88.1 21.7 91.45 21.75 92.85 21.8 93.85 23.75 94.85 25.75 94.55 27.85 93.85 32.95 90.45 32.5 89.05 32.3 88.05 30.6 87.05 28.85 87.35 26.8" fill="#eeeeee" fill-rule="evenodd" stroke="none"/>
    <path d="M87.4 26.8 Q88.15 21.7 91.45 21.75 92.8 21.8 93.85 23.8 94.85 25.8 94.55 27.85 93.85 32.9 90.45 32.45 89.1 32.25 88.1 30.6 87.1 28.85 87.4 26.8" fill="#f2f2f2" fill-rule="evenodd" stroke="none"/>
    <path d="M87.45 26.8 Q88.1 21.7 91.45 21.75 92.8 21.8 93.85 23.8 94.85 25.8 94.55 27.85 93.85 32.9 90.45 32.4 89.1 32.25 88.15 30.55 87.15 28.8 87.45 26.8" fill="#f7f7f7" fill-rule="evenodd" stroke="none"/>
    <path d="M87.45 26.8 Q88.15 21.7 91.45 21.75 92.8 21.75 93.8 23.75 94.8 25.75 94.55 27.8 93.85 32.85 90.5 32.35 89.1 32.2 88.15 30.5 87.15 28.8 87.45 26.8" fill="#fbfbfb" fill-rule="evenodd" stroke="none"/>
    <path d="M87.45 26.75 Q88.15 21.6 91.45 21.65 93.05 21.7 94.0 23.7 94.95 25.65 94.65 27.8 93.95 32.8 90.5 32.3 89.1 32.15 88.15 30.45 87.15 28.7 87.45 26.75" fill="#ffffff" fill-rule="evenodd" stroke="none"/>
    <path d="M83.55 34.8 Q82.5 38.15 80.05 38.85 77.65 39.55 75.35 37.15 73.05 34.7 72.1 30.6 71.25 26.55 72.35 23.1 73.4 19.7 75.8 19.0 78.2 18.3 80.55 20.75 82.9 23.25 83.75 27.3 84.6 31.45 83.55 34.8" fill="#797979" fill-rule="evenodd" stroke="none"/>
    <path d="M84.05 34.15 Q82.95 37.5 80.6 38.15 78.2 38.8 75.9 36.45 73.55 34.05 72.7 29.95 71.8 25.9 72.85 22.55 73.9 19.15 76.3 18.45 78.65 17.8 81.0 20.15 83.35 22.6 84.2 26.65 85.1 30.8 84.05 34.15" fill="#7d7d7d" fill-rule="evenodd" stroke="none"/>
    <path d="M84.05 34.1 Q83.0 37.4 80.6 38.1 78.25 38.8 75.95 36.4 73.6 33.95 72.7 29.95 71.85 25.85 72.85 22.55 73.85 19.15 76.3 18.45 78.65 17.8 81.0 20.15 83.35 22.6 84.2 26.65 85.15 30.8 84.05 34.1" fill="#828282" fill-rule="evenodd" stroke="none"/>
    <path d="M84.05 34.1 Q83.0 37.35 80.6 38.0 78.3 38.7 75.95 36.3 73.6 33.9 72.75 29.95 71.9 25.8 72.85 22.55 73.85 19.2 76.3 18.45 78.65 17.8 80.95 20.15 83.3 22.55 84.2 26.65 85.15 30.8 84.05 34.1" fill="#868686" fill-rule="evenodd" stroke="none"/>
    <path d="M84.1 34.05 Q83.05 37.25 80.65 37.95 78.3 38.6 76.0 36.2 73.65 33.85 72.8 29.95 71.9 25.8 72.85 22.55 73.85 19.2 76.3 18.45 78.6 17.8 80.95 20.15 83.3 22.55 84.2 26.65 85.15 30.8 84.1 34.05" fill="#8a8a8a" fill-rule="evenodd" stroke="none"/>
    <path d="M84.1 34.05 Q83.05 37.2 80.65 37.9 78.35 38.55 76.0 36.2 73.7 33.85 72.85 29.95 71.95 25.75 72.9 22.55 73.8 19.25 76.3 18.45 78.6 17.8 80.9 20.1 83.3 22.5 84.2 26.65 85.15 30.8 84.1 34.05" fill="#8f8f8f" fill-rule="evenodd" stroke="none"/>
    <path d="M84.1 34.0 Q83.1 37.15 80.7 37.8 78.4 38.45 76.05 36.15 73.7 33.75 72.9 29.9 72.0 25.75 72.9 22.55 73.8 19.25 76.3 18.45 78.6 17.8 80.9 20.1 83.35 22.5 84.2 26.65 85.15 30.8 84.1 34.0" fill="#939393" fill-rule="evenodd" stroke="none"/>
    <path d="M84.1 33.95 Q83.1 37.1 80.7 37.8 78.4 38.45 76.1 36.1 73.7 33.7 72.9 29.9 72.05 25.7 72.9 22.55 73.75 19.25 76.3 18.45 78.6 17.8 80.9 20.1 83.3 22.45 84.2 26.65 85.15 30.8 84.1 33.95" fill="#979797" fill-rule="evenodd" stroke="none"/>
    <path d="M84.15 33.9 Q83.15 37.05 80.75 37.7 78.45 38.35 76.15 36.0 73.8 33.65 72.95 29.85 72.05 25.65 72.9 22.55 73.75 19.25 76.3 18.45 78.6 17.8 80.9 20.1 83.3 22.45 84.2 26.65 85.15 30.8 84.15 33.9" fill="#9c9c9c" fill-rule="evenodd" stroke="none"/>
    <path d="M84.15 33.9 Q83.15 36.95 80.8 37.65 78.5 38.3 76.15 35.95 73.8 33.6 73.0 29.85 72.1 25.65 72.9 22.55 73.75 19.3 76.3 18.45 78.55 17.8 80.9 20.1 83.3 22.4 84.2 26.6 85.15 30.8 84.15 33.9" fill="#a0a0a0" fill-rule="evenodd" stroke="none"/>
    <path d="M84.15 33.85 Q83.15 36.9 80.8 37.55 78.55 38.2 76.2 35.85 73.85 33.55 73.05 29.85 72.1 25.65 72.9 22.55 73.7 19.3 76.3 18.45 78.55 17.8 80.85 20.05 83.3 22.4 84.2 26.6 85.15 30.8 84.15 33.85" fill="#a4a4a4" fill-rule="evenodd" stroke="none"/>
    <path d="M84.15 33.85 Q83.2 36.85 80.85 37.5 78.6 38.15 76.25 35.85 73.9 33.5 73.05 29.8 72.15 25.6 72.9 22.6 73.7 19.3 76.3 18.45 78.5 17.8 80.85 20.05 83.25 22.4 84.2 26.6 85.1 30.8 84.15 33.85" fill="#a9a9a9" fill-rule="evenodd" stroke="none"/>
    <path d="M84.15 33.85 Q83.2 36.8 80.85 37.45 78.6 38.1 76.3 35.8 73.9 33.45 73.1 29.8 71.0 20.2 76.3 18.45 78.5 17.8 80.8 20.05 83.25 22.4 84.2 26.6 85.1 30.8 84.15 33.85" fill="#adadad" fill-rule="evenodd" stroke="none"/>
    <path d="M84.15 33.8 Q83.2 36.75 80.9 37.4 78.65 38.0 76.3 35.7 73.95 33.4 73.15 29.75 71.05 20.2 76.3 18.45 78.45 17.8 80.8 20.0 83.25 22.35 84.2 26.55 85.1 30.8 84.15 33.8" fill="#b1b1b1" fill-rule="evenodd" stroke="none"/>
    <path d="M84.15 33.75 Q83.2 36.65 80.9 37.3 78.7 37.95 76.3 35.65 74.0 33.3 73.2 29.75 71.1 20.2 76.3 18.45 78.45 17.8 80.75 20.0 83.25 22.35 84.2 26.55 85.1 30.8 84.15 33.75" fill="#b6b6b6" fill-rule="evenodd" stroke="none"/>
    <path d="M84.2 33.75 Q83.25 36.6 80.9 37.25 78.7 37.85 76.35 35.6 74.0 33.3 73.25 29.75 71.15 20.2 76.3 18.45 78.45 17.8 80.75 19.95 83.25 22.3 84.2 26.55 85.1 30.8 84.2 33.75" fill="#bababa" fill-rule="evenodd" stroke="none"/>
    <path d="M84.2 33.75 Q83.25 36.55 80.9 37.2 78.75 37.8 76.4 35.5 74.0 33.2 73.3 29.7 71.15 20.2 76.3 18.45 78.4 17.8 80.75 19.95 83.25 22.25 84.2 26.55 85.1 30.85 84.2 33.75" fill="#bebebe" fill-rule="evenodd" stroke="none"/>
    <path d="M84.2 33.7 Q83.25 36.5 80.95 37.15 78.8 37.75 76.45 35.5 74.05 33.2 73.35 29.7 71.25 20.2 76.3 18.45 78.4 17.8 80.7 19.9 83.25 22.25 84.2 26.5 85.1 30.8 84.2 33.7" fill="#c3c3c3" fill-rule="evenodd" stroke="none"/>
    <path d="M84.2 33.65 Q83.3 36.45 80.95 37.1 78.8 37.7 76.45 35.4 74.05 33.1 73.35 29.65 71.3 20.2 76.3 18.45 78.35 17.8 80.7 19.9 83.25 22.2 84.2 26.5 85.1 30.8 84.2 33.65" fill="#c7c7c7" fill-rule="evenodd" stroke="none"/>
    <path d="M81.0 37.0 Q78.85 37.6 76.5 35.35 74.1 33.1 73.35 29.65 71.4 20.2 76.3 18.45 78.35 17.8 80.65 19.9 83.2 22.2 84.2 26.5 86.15 35.5 81.0 37.0" fill="#cbcbcb" fill-rule="evenodd" stroke="none"/>
    <path d="M81.0 36.95 Q78.9 37.55 76.55 35.25 74.15 33.0 73.4 29.65 71.4 20.15 76.3 18.45 78.3 17.8 80.65 19.85 83.2 22.15 84.2 26.5 86.1 35.5 81.0 36.95" fill="#d0d0d0" fill-rule="evenodd" stroke="none"/>
    <path d="M81.05 36.85 Q78.95 37.5 76.55 35.2 74.15 32.95 73.45 29.6 71.4 20.2 76.3 18.45 78.35 17.8 80.65 19.85 83.2 22.15 84.2 26.45 86.1 35.5 81.05 36.85" fill="#d4d4d4" fill-rule="evenodd" stroke="none"/>
    <path d="M81.05 36.85 Q78.95 37.45 76.6 35.2 74.2 32.9 73.5 29.6 71.5 20.15 76.3 18.45 78.3 17.8 80.6 19.85 83.2 22.1 84.2 26.45 86.1 35.4 81.05 36.85" fill="#d8d8d8" fill-rule="evenodd" stroke="none"/>
    <path d="M81.1 36.75 Q79.0 37.35 76.65 35.1 74.25 32.85 73.55 29.6 71.55 20.2 76.3 18.45 78.3 17.8 80.6 19.8 83.2 22.1 84.2 26.45 86.05 35.35 81.1 36.75" fill="#dddddd" fill-rule="evenodd" stroke="none"/>
    <path d="M81.1 36.7 Q79.05 37.3 76.65 35.05 74.3 32.8 73.6 29.6 71.55 20.15 76.3 18.45 78.3 17.8 80.6 19.8 83.2 22.05 84.15 26.45 86.05 35.2 81.1 36.7" fill="#e1e1e1" fill-rule="evenodd" stroke="none"/>
    <path d="M81.15 36.6 Q79.1 37.2 76.7 34.95 74.35 32.75 73.65 29.55 71.6 20.15 76.3 18.45 78.25 17.8 80.6 19.75 83.2 22.05 84.15 26.4 86.05 35.2 81.15 36.6" fill="#e5e5e5" fill-rule="evenodd" stroke="none"/>
    <path d="M81.15 36.55 Q79.1 37.15 76.75 34.9 74.35 32.7 73.7 29.55 72.7 24.95 73.05 22.6 73.5 19.45 76.3 18.45 78.25 17.8 80.55 19.75 83.2 22.05 84.15 26.4 86.05 35.2 81.15 36.55" fill="#eaeaea" fill-rule="evenodd" stroke="none"/>
    <path d="M81.2 36.5 Q79.15 37.1 76.75 34.85 74.35 32.65 73.7 29.55 72.7 24.9 73.05 22.6 73.45 19.5 76.3 18.45 78.25 17.8 80.55 19.75 83.2 22.05 84.15 26.4 86.0 35.15 81.2 36.5" fill="#eeeeee" fill-rule="evenodd" stroke="none"/>
    <path d="M81.2 36.45 Q79.2 37.0 76.8 34.8 74.4 32.55 73.75 29.5 72.75 24.85 73.05 22.6 73.45 19.5 76.3 18.45 78.25 17.8 80.55 19.75 83.2 22.0 84.15 26.4 86.05 35.05 81.2 36.45" fill="#f2f2f2" fill-rule="evenodd" stroke="none"/>
    <path d="M81.25 36.4 Q79.25 36.95 76.85 34.75 74.45 32.55 73.8 29.5 72.8 24.8 73.05 22.65 73.45 19.55 76.3 18.45 78.2 17.8 80.5 19.75 83.2 21.95 84.15 26.35 86.05 35.05 81.25 36.4" fill="#f7f7f7" fill-rule="evenodd" stroke="none"/>
    <path d="M81.25 36.3 Q79.25 36.85 76.9 34.65 74.45 32.5 73.8 29.5 72.8 24.7 73.05 22.65 73.4 19.5 76.3 18.45 78.2 17.8 80.5 19.75 83.2 21.95 84.15 26.35 86.0 34.95 81.25 36.3" fill="#fbfbfb" fill-rule="evenodd" stroke="none"/>
    <path d="M83.5 28.35 Q83.85 30.4 83.2 31.95 82.55 33.55 81.35 33.65 80.15 33.8 79.05 32.45 78.0 31.05 77.65 28.95 77.45 27.65 77.65 26.55 80.25 26.15 81.5 28.6 81.45 25.35 78.75 24.2 79.3 23.7 79.8 23.7 81.0 23.6 82.1 24.95 83.2 26.35 83.5 28.35" fill="#000000" fill-rule="evenodd" stroke="none"/>
    <path d="M91.95 24.75 Q93.95 24.85 93.75 27.9 93.6 30.95 91.6 30.8 89.6 30.7 89.75 27.65 89.85 26.8 90.1 26.25 91.65 26.35 92.4 27.7 92.7 25.8 91.15 24.95 L91.95 24.75" fill="#000000" fill-rule="evenodd" stroke="none"/>
    <path d="M112.6 63.35 L112.8 63.45 Q118.25 70.1 121.3 79.05 121.4 79.3 121.1 79.5 118.0 81.25 114.2 82.1 106.8 83.75 101.4 79.85 101.25 79.8 101.25 79.55 102.9 70.45 106.55 63.7 L106.8 63.5 112.6 63.35" fill="#000000" fill-rule="evenodd" stroke="none"/>
    <path d="M114.05 82.05 Q106.6 83.8 101.6 79.6 103.25 70.5 106.85 63.85 L112.55 63.7 Q117.95 70.2 121.0 79.2 117.8 81.15 114.05 82.05" fill="#efeaf0" fill-rule="evenodd" stroke="none"/>
    <path d="M111.35 82.25 L112.25 154.0 98.65 154.15 98.4 152.1 100.9 151.0 98.4 125.35 94.7 125.45 93.4 108.35 92.25 116.7 92.85 124.85 92.05 125.0 92.0 126.95 94.25 128.5 93.85 131.0 94.7 132.25 90.05 136.05 84.1 130.75 85.85 128.05 85.2 128.1 84.85 125.9 83.95 126.0 82.65 105.25 84.65 92.25 84.25 91.65 101.5 81.25 111.35 82.25" fill="#000000" fill-rule="evenodd" stroke="none"/>
    <path d="M122.05 81.5 L138.25 91.65 137.9 92.25 139.85 105.25 138.2 125.65 137.35 125.5 137.0 127.75 136.4 127.65 138.1 130.4 132.15 135.65 127.45 131.85 128.3 130.6 127.95 128.1 130.15 126.6 130.15 124.6 129.3 124.45 130.9 116.2 129.5 108.2 127.95 125.3 124.0 125.3 121.65 151.0 124.15 152.1 123.9 154.15 110.3 154.0 111.45 82.0 122.05 81.5" fill="#000000" fill-rule="evenodd" stroke="none"/>
    <path d="M112.2 83.2 Q118.9 83.4 122.2 81.5 L115.0 92.7 108.6 93.0 102.15 81.4 Q106.0 83.05 112.2 83.2" fill="#718f9c" fill-rule="evenodd" stroke="none"/>
    <path d="M114.55 85.55 L113.0 87.25 110.1 87.65 108.65 85.8 111.25 81.95 114.55 85.55" fill="#000000" fill-rule="evenodd" stroke="none"/>
    <path d="M104.75 96.15 L104.55 96.0 104.4 95.55 104.45 95.3 104.65 94.7 Q107.55 93.45 107.85 92.6 L109.8 87.35 Q109.8 87.05 110.4 86.95 L112.95 87.0 117.15 95.9 104.75 96.15" fill="#000000" fill-rule="evenodd" stroke="none"/>
    <path d="M110.4 87.1 L109.4 85.8 111.45 82.7 113.7 85.7 112.45 87.05 110.4 87.1" fill="#000000" fill-rule="evenodd" stroke="none"/>
    <path d="M111.25 98.25 L108.6 92.3 110.4 87.45 112.45 87.45 114.8 92.35 111.25 98.25" fill="#000000" fill-rule="evenodd" stroke="none"/>
    <path d="M112.4 97.8 L122.15 82.25 124.4 83.45 124.0 87.7 119.5 88.7 121.05 91.75 112.4 97.8" fill="#000000" fill-rule="evenodd" stroke="none"/>
    <path d="M111.7 98.75 L121.35 91.75 119.8 88.8 124.25 87.9 124.75 83.6 126.3 84.55 125.9 89.45 121.2 89.45 123.7 91.75 111.85 100.35 111.7 98.75" fill="#000000" fill-rule="evenodd" stroke="none"/>
    <path d="M129.7 122.15 L131.4 116.55 131.4 116.45 129.6 107.8 130.1 106.7 137.5 93.2 139.35 105.35 138.2 123.15 129.7 122.15" fill="#000000" fill-rule="evenodd" stroke="none"/>
    <path d="M130.55 126.45 L130.65 124.8 136.85 125.7 136.6 127.25 130.55 126.45" fill="#718f9c" fill-rule="evenodd" stroke="none"/>
    <path d="M132.5 130.25 L130.15 130.9 128.85 130.4 128.35 128.7 131.0 126.95 135.75 127.7 137.4 130.35 132.3 134.85 128.35 131.7 128.75 130.9 130.25 131.7 132.65 130.6 133.35 131.1 132.65 129.05 132.5 130.25" fill="#efeaf0" fill-rule="evenodd" stroke="none"/>
    <path d="M138.1 123.5 L137.75 125.3 129.9 124.25 130.2 122.35 138.1 123.5" fill="#000000" fill-rule="evenodd" stroke="none"/>
    <path d="M131.55 98.2 Q135.2 91.35 135.95 90.65 L137.8 91.65 129.35 106.75 123.4 112.8 128.1 104.85 131.55 98.2" fill="#000000" fill-rule="evenodd" stroke="none"/>
    <path d="M126.5 89.85 L126.6 85.05 135.4 90.55 122.95 113.1 123.55 122.55 112.25 123.6 111.35 112.9 111.5 100.95 124.45 91.85 122.4 89.85 126.5 89.85" fill="#000000" fill-rule="evenodd" stroke="none"/>
    <path d="M123.9 124.95 L110.8 126.4 111.15 112.65 111.95 123.9 123.65 122.85 123.9 124.95" fill="#000000" fill-rule="evenodd" stroke="none"/>
    <path d="M121.3 147.65 Q116.65 146.95 111.5 147.5 L111.65 126.95 123.8 125.5 121.3 147.65" fill="#000000" fill-rule="evenodd" stroke="none"/>
    <path d="M111.55 147.95 Q116.95 147.1 121.2 148.0 L121.2 150.8 114.75 149.15 111.45 151.7 111.55 147.95" fill="#000000" fill-rule="evenodd" stroke="none"/>
    <path d="M114.8 149.7 L123.8 152.05 123.65 152.8 111.45 152.6 111.45 151.9 114.8 149.7" fill="#000000" fill-rule="evenodd" stroke="none"/>
    <path d="M111.45 153.4 L111.45 152.85 123.7 153.0 123.6 153.6 111.45 153.4" fill="#000000" fill-rule="evenodd" stroke="none"/>
    <path d="M111.85 124.45 Q112.5 124.45 112.5 125.05 112.5 125.6 111.85 125.6 111.2 125.6 111.2 125.05 111.2 124.45 111.85 124.45" fill="#000000" fill-rule="evenodd" stroke="none"/>
    <path d="M112.3 125.05 Q112.3 125.45 111.85 125.45 111.45 125.45 111.45 125.05 111.45 124.65 111.85 124.65 112.3 124.65 112.3 125.05" fill="#50a548" fill-rule="evenodd" stroke="none"/>
    <path d="M98.45 83.8 L101.9 81.7 110.5 97.8 101.45 91.75 103.05 88.7 98.55 87.7 98.45 83.8" fill="#000000" fill-rule="evenodd" stroke="none"/>
    <path d="M109.65 126.7 L110.4 98.1 112.05 100.5 112.25 126.7 109.65 126.7" fill="#000000" fill-rule="evenodd" stroke="none"/>
    <path d="M97.8 83.6 L98.3 87.9 102.75 88.8 101.15 91.75 111.4 99.05 111.7 101.15 98.75 91.85 101.35 89.45 96.65 89.45 96.25 84.55 97.8 83.6" fill="#000000" fill-rule="evenodd" stroke="none"/>
    <path d="M92.65 122.7 L83.95 123.5 83.2 105.35 85.05 93.2 92.45 106.7 93.3 107.95 91.75 116.95 91.75 117.05 92.65 122.7" fill="#000000" fill-rule="evenodd" stroke="none"/>
    <path d="M91.65 126.85 L85.55 127.65 85.3 126.05 91.5 125.1 91.65 126.85" fill="#718f9c" fill-rule="evenodd" stroke="none"/>
    <path d="M91.2 127.3 L93.8 129.05 93.35 130.8 92.05 131.25 89.65 130.65 Q89.5 130.35 89.5 129.4 L88.85 131.5 89.5 131.0 91.9 132.05 93.45 131.25 93.8 132.05 89.9 135.2 84.8 130.7 86.45 128.05 91.2 127.3" fill="#efeaf0" fill-rule="evenodd" stroke="none"/>
    <path d="M84.1 123.9 L91.95 122.7 92.25 124.6 84.4 125.7 84.1 123.9" fill="#000000" fill-rule="evenodd" stroke="none"/>
    <path d="M91.0 98.2 L94.4 104.85 99.15 112.8 93.2 106.75 84.7 91.65 86.6 90.65 Q87.4 91.35 91.0 98.2" fill="#000000" fill-rule="evenodd" stroke="none"/>
    <path d="M87.15 90.55 L95.95 85.05 96.05 89.85 100.3 89.8 98.0 91.8 110.05 100.5 109.65 123.35 99.0 122.55 99.6 113.1 87.15 90.55" fill="#000000" fill-rule="evenodd" stroke="none"/>
    <path d="M110.05 123.8 L110.3 100.55 111.75 101.4 112.05 126.4 98.65 124.95 98.9 122.85 110.05 123.8" fill="#000000" fill-rule="evenodd" stroke="none"/>
    <path d="M98.75 125.5 L110.9 126.95 111.05 147.5 Q105.9 146.95 101.25 147.65 L98.75 125.5" fill="#000000" fill-rule="evenodd" stroke="none"/>
    <path d="M110.8 147.9 L110.85 151.7 105.35 149.15 101.35 150.8 101.35 148.0 Q105.6 147.1 110.8 147.9" fill="#000000" fill-rule="evenodd" stroke="none"/>
    <path d="M98.9 152.8 L98.75 152.05 105.25 149.7 110.8 152.15 110.8 152.5 98.9 152.8" fill="#000000" fill-rule="evenodd" stroke="none"/>
    <path d="M98.95 153.05 L110.8 152.8 110.8 153.35 98.95 153.6 98.95 153.05" fill="#000000" fill-rule="evenodd" stroke="none"/>
    <path d="M111.5 90.9 Q112.65 90.9 112.65 91.75 112.65 92.6 111.5 92.6 110.4 92.6 110.4 91.75 110.4 90.9 111.5 90.9" fill="#000000" fill-rule="evenodd" stroke="none"/>
    <path d="M111.45 84.5 Q112.45 84.5 112.45 85.25 112.45 86.0 111.45 86.0 110.5 86.0 110.5 85.25 110.5 84.5 111.45 84.5" fill="#000000" fill-rule="evenodd" stroke="none"/>
    <path d="M133.75 95.7 Q134.85 95.7 134.85 96.65 134.85 97.65 133.75 97.65 132.65 97.65 132.65 96.65 132.65 95.7 133.75 95.7" fill="#000000" fill-rule="evenodd" stroke="none"/>
    <path d="M131.3 99.9 Q132.4 99.9 132.4 100.85 132.4 101.8 131.3 101.8 130.15 101.8 130.15 100.85 130.15 99.9 131.3 99.9" fill="#000000" fill-rule="evenodd" stroke="none"/>
    <path d="M128.5 104.85 Q129.65 104.85 129.65 105.8 129.65 106.75 128.5 106.75 127.45 106.75 127.45 105.8 127.45 104.85 128.5 104.85" fill="#000000" fill-rule="evenodd" stroke="none"/>
    <path d="M136.8 123.3 Q137.7 123.3 137.7 124.1 137.7 124.9 136.8 124.9 135.9 124.9 135.9 124.1 135.9 123.3 136.8 123.3" fill="#000000" fill-rule="evenodd" stroke="none"/>
    <path d="M134.0 123.0 Q134.9 123.0 134.9 123.8 134.9 124.6 134.0 124.6 133.05 124.6 133.05 123.8 133.05 123.0 134.0 123.0" fill="#000000" fill-rule="evenodd" stroke="none"/>
    <path d="M131.15 122.65 Q132.05 122.65 132.05 123.45 132.05 124.2 131.15 124.2 130.2 124.2 130.2 123.45 130.2 122.65 131.15 122.65" fill="#000000" fill-rule="evenodd" stroke="none"/>
    <path d="M114.05 124.35 Q114.8 124.35 114.8 124.9 114.8 125.45 114.05 125.45 113.4 125.45 113.4 124.9 113.4 124.35 114.05 124.35" fill="#000000" fill-rule="evenodd" stroke="none"/>
    <path d="M118.3 123.8 Q119.0 123.8 119.0 124.4 119.0 124.95 118.3 124.95 117.6 124.95 117.6 124.4 117.6 123.8 118.3 123.8" fill="#000000" fill-rule="evenodd" stroke="none"/>
    <path d="M122.25 123.4 Q122.95 123.4 122.95 123.95 122.95 124.5 122.25 124.5 121.5 124.5 121.5 123.95 121.5 123.4 122.25 123.4" fill="#000000" fill-rule="evenodd" stroke="none"/>
    <path d="M86.45 91.6 Q87.5 91.6 87.5 92.55 87.5 93.5 86.45 93.5 85.3 93.5 85.3 92.55 85.3 91.6 86.45 91.6" fill="#000000" fill-rule="evenodd" stroke="none"/>
    <path d="M88.8 95.7 Q89.85 95.7 89.85 96.65 89.85 97.65 88.8 97.65 87.65 97.65 87.65 96.65 87.65 95.7 88.8 95.7" fill="#000000" fill-rule="evenodd" stroke="none"/>
    <path d="M91.1 99.7 Q92.25 99.7 92.25 100.65 92.25 101.6 91.1 101.6 90.05 101.6 90.05 100.65 90.05 99.7 91.1 99.7" fill="#000000" fill-rule="evenodd" stroke="none"/>
    <path d="M93.9 104.55 Q95.0 104.55 95.0 105.5 95.0 106.45 93.9 106.45 92.75 106.45 92.75 105.5 92.75 104.55 93.9 104.55" fill="#000000" fill-rule="evenodd" stroke="none"/>
    <path d="M85.25 123.85 Q86.15 123.85 86.15 124.65 86.15 125.45 85.25 125.45 84.35 125.45 84.35 124.65 84.35 123.85 85.25 123.85" fill="#000000" fill-rule="evenodd" stroke="none"/>
    <path d="M88.3 123.45 Q89.2 123.45 89.2 124.3 89.2 125.1 88.3 125.1 87.35 125.1 87.35 124.3 87.35 123.45 88.3 123.45" fill="#000000" fill-rule="evenodd" stroke="none"/>
    <path d="M91.1 123.15 Q92.05 123.15 92.05 123.9 92.05 124.7 91.1 124.7 90.2 124.7 90.2 123.9 90.2 123.15 91.1 123.15" fill="#000000" fill-rule="evenodd" stroke="none"/>
    <path d="M110.6 124.65 Q111.35 124.65 111.35 125.2 111.35 125.75 110.6 125.75 109.9 125.75 109.9 125.2 109.9 124.65 110.6 124.65" fill="#000000" fill-rule="evenodd" stroke="none"/>
    <path d="M106.9 124.3 Q107.65 124.3 107.65 124.85 107.65 125.45 106.9 125.45 106.2 125.45 106.2 124.85 106.2 124.3 106.9 124.3" fill="#000000" fill-rule="evenodd" stroke="none"/>
    <path d="M103.0 124.0 Q103.75 124.0 103.75 124.5 103.75 125.1 103.0 125.1 102.3 125.1 102.3 124.5 102.3 124.0 103.0 124.0" fill="#000000" fill-rule="evenodd" stroke="none"/>
    <path d="M100.0 123.6 Q100.7 123.6 100.7 124.15 100.7 124.75 100.0 124.75 99.3 124.75 99.3 124.15 99.3 123.6 100.0 123.6" fill="#000000" fill-rule="evenodd" stroke="none"/>
    <path d="M101.5 149.1 Q101.5 148.35 102.45 148.35 103.35 148.35 103.35 149.1 103.35 149.95 102.45 149.95 101.5 149.95 101.5 149.1" fill="#000000" fill-rule="evenodd" stroke="none"/>
    <path d="M104.8 148.6 Q104.8 147.8 105.7 147.8 106.65 147.8 106.65 148.6 106.65 149.4 105.7 149.4 104.8 149.4 104.8 148.6" fill="#000000" fill-rule="evenodd" stroke="none"/>
    <path d="M109.4 148.55 Q110.3 148.55 110.3 149.4 110.3 150.15 109.4 150.15 108.5 150.15 108.5 149.4 108.5 148.55 109.4 148.55" fill="#000000" fill-rule="evenodd" stroke="none"/>
    <path d="M119.85 148.5 Q120.75 148.5 120.75 149.35 120.75 150.1 119.85 150.1 118.95 150.1 118.95 149.35 118.95 148.5 119.85 148.5" fill="#000000" fill-rule="evenodd" stroke="none"/>
    <path d="M116.75 148.6 Q116.75 149.4 115.8 149.4 114.9 149.4 114.9 148.6 114.9 147.8 115.8 147.8 116.75 147.8 116.75 148.6" fill="#000000" fill-rule="evenodd" stroke="none"/>
    <path d="M112.85 148.55 Q113.8 148.55 113.8 149.4 113.8 150.15 112.85 150.15 111.95 150.15 111.95 149.4 111.95 148.55 112.85 148.55" fill="#000000" fill-rule="evenodd" stroke="none"/>
    <path d="M111.0 121.1 Q111.75 121.1 111.75 121.65 111.75 122.2 111.0 122.2 110.3 122.2 110.3 121.65 110.3 121.1 111.0 121.1" fill="#000000" fill-rule="evenodd" stroke="none"/>
    <path d="M111.1 117.55 Q111.8 117.55 111.8 118.1 111.8 118.65 111.1 118.65 110.4 118.65 110.4 118.1 110.4 117.55 111.1 117.55" fill="#000000" fill-rule="evenodd" stroke="none"/>
    <path d="M111.0 114.0 Q111.7 114.0 111.7 114.55 111.7 115.1 111.0 115.1 110.25 115.1 110.25 114.55 110.25 114.0 111.0 114.0" fill="#000000" fill-rule="evenodd" stroke="none"/>
    <path d="M111.0 110.35 Q111.75 110.35 111.75 110.95 111.75 111.5 111.0 111.5 110.3 111.5 110.3 110.95 110.3 110.35 111.0 110.35" fill="#000000" fill-rule="evenodd" stroke="none"/>
    <path d="M111.05 106.9 Q111.75 106.9 111.75 107.45 111.75 108.0 111.05 108.0 110.3 108.0 110.3 107.45 110.3 106.9 111.05 106.9" fill="#000000" fill-rule="evenodd" stroke="none"/>
    <path d="M110.95 103.35 Q111.65 103.35 111.65 103.9 111.65 104.45 110.95 104.45 110.2 104.45 110.2 103.9 110.2 103.35 110.95 103.35" fill="#000000" fill-rule="evenodd" stroke="none"/>
    <path d="M120.6 88.7 Q121.3 88.7 121.3 89.3 121.3 89.9 120.6 89.9 119.9 89.9 119.9 89.3 119.9 88.7 120.6 88.7" fill="#000000" fill-rule="evenodd" stroke="none"/>
    <path d="M124.7 87.95 Q125.4 87.95 125.4 88.5 125.4 89.1 124.7 89.1 124.0 89.1 124.0 88.5 124.0 87.95 124.7 87.95" fill="#000000" fill-rule="evenodd" stroke="none"/>
    <path d="M125.35 84.1 Q126.05 84.1 126.05 84.7 126.05 85.25 125.35 85.25 124.65 85.25 124.65 84.7 124.65 84.1 125.35 84.1" fill="#000000" fill-rule="evenodd" stroke="none"/>
    <path d="M122.3 91.25 Q123.05 91.25 123.05 91.85 123.05 92.45 122.3 92.45 121.6 92.45 121.6 91.85 121.6 91.25 122.3 91.25" fill="#000000" fill-rule="evenodd" stroke="none"/>
    <path d="M118.05 94.4 Q118.75 94.4 118.75 95.0 118.75 95.55 118.05 95.55 117.35 95.55 117.35 95.0 117.35 94.4 118.05 94.4" fill="#000000" fill-rule="evenodd" stroke="none"/>
    <path d="M101.85 88.7 Q102.55 88.7 102.55 89.3 102.55 89.9 101.85 89.9 101.15 89.9 101.15 89.3 101.15 88.7 101.85 88.7" fill="#000000" fill-rule="evenodd" stroke="none"/>
    <path d="M97.75 87.95 Q98.45 87.95 98.45 88.5 98.45 89.1 97.75 89.1 97.0 89.1 97.0 88.5 97.0 87.95 97.75 87.95" fill="#000000" fill-rule="evenodd" stroke="none"/>
    <path d="M97.3 84.7 Q98.0 84.7 98.0 85.3 98.0 85.85 97.3 85.85 96.6 85.85 96.6 85.3 96.6 84.7 97.3 84.7" fill="#000000" fill-rule="evenodd" stroke="none"/>
    <path d="M100.1 91.25 Q100.85 91.25 100.85 91.85 100.85 92.45 100.1 92.45 99.4 92.45 99.4 91.85 99.4 91.25 100.1 91.25" fill="#000000" fill-rule="evenodd" stroke="none"/>
    <path d="M105.45 95.1 Q106.2 95.1 106.2 95.65 106.2 96.25 105.45 96.25 104.75 96.25 104.75 95.65 104.75 95.1 105.45 95.1" fill="#000000" fill-rule="evenodd" stroke="none"/>
    <path d="M109.9 98.2 Q110.6 98.2 110.6 98.85 110.6 99.45 109.9 99.45 109.2 99.45 109.2 98.85 109.2 98.2 109.9 98.2" fill="#000000" fill-rule="evenodd" stroke="none"/>
    <path d="M119.9 98.6 L123.1 96.65 125.0 99.05 119.9 98.6" fill="#718f9c" fill-rule="evenodd" stroke="none"/>
    <path d="M123.7 96.95 L124.25 96.55 125.55 99.15 125.25 99.05 123.7 96.95" fill="#718f9c" fill-rule="evenodd" stroke="none"/>
    <path d="M123.1 96.65 L119.9 98.6 125.0 99.05 123.1 96.65 M123.25 96.25 L123.6 96.65 124.25 96.25 126.05 99.15 127.0 99.2 126.8 99.85 119.3 98.7 123.25 96.25 M124.25 96.55 L123.7 96.95 125.25 99.05 125.55 99.15 124.25 96.55" fill="#000000" fill-rule="evenodd" stroke="none"/>
    <path d="M112.95 98.05 Q113.65 98.05 113.65 98.65 113.65 99.2 112.95 99.2 112.25 99.2 112.25 98.65 112.25 98.05 112.95 98.05" fill="#000000" fill-rule="evenodd" stroke="none"/>
    <path d="M114.6 116.25 L121.8 116.7 114.75 116.55 114.6 116.25" fill="#718f9c" fill-rule="evenodd" stroke="none"/>
    <path d="M107.95 116.25 L107.85 116.55 100.7 116.7 107.95 116.25" fill="#718f9c" fill-rule="evenodd" stroke="none"/>
    <path d="M112.25 91.75 Q112.25 92.35 111.5 92.35 110.8 92.35 110.8 91.75 110.8 91.15 111.5 91.15 112.25 91.15 112.25 91.75" fill="#718f9c" fill-rule="evenodd" stroke="none"/>
    <path d="M112.1 85.25 Q112.1 85.75 111.45 85.75 110.8 85.75 110.8 85.25 110.8 84.75 111.45 84.75 112.1 84.75 112.1 85.25" fill="#718f9c" fill-rule="evenodd" stroke="none"/>
    <path d="M134.45 96.65 Q134.45 97.35 133.75 97.35 133.05 97.35 133.05 96.65 133.05 96.0 133.75 96.0 134.45 96.0 134.45 96.65" fill="#718f9c" fill-rule="evenodd" stroke="none"/>
    <path d="M132.0 100.8 Q132.0 101.5 131.3 101.5 130.55 101.5 130.55 100.8 130.55 100.15 131.3 100.15 132.0 100.15 132.0 100.8" fill="#718f9c" fill-rule="evenodd" stroke="none"/>
    <path d="M129.25 105.75 Q129.25 106.4 128.5 106.4 127.8 106.4 127.8 105.75 127.8 105.1 128.5 105.1 129.25 105.1 129.25 105.75" fill="#718f9c" fill-rule="evenodd" stroke="none"/>
    <path d="M137.4 124.05 Q137.4 124.6 136.8 124.6 136.2 124.6 136.2 124.05 136.2 123.45 136.8 123.45 137.4 123.45 137.4 124.05" fill="#718f9c" fill-rule="evenodd" stroke="none"/>
    <path d="M134.6 123.8 Q134.6 124.35 134.0 124.35 133.4 124.35 133.4 123.8 133.4 123.2 134.0 123.2 134.6 123.2 134.6 123.8" fill="#718f9c" fill-rule="evenodd" stroke="none"/>
    <path d="M131.75 123.4 Q131.75 123.95 131.15 123.95 130.5 123.95 130.5 123.4 130.5 122.8 131.15 122.8 131.75 122.8 131.75 123.4" fill="#718f9c" fill-rule="evenodd" stroke="none"/>
    <path d="M114.55 124.9 Q114.55 125.3 114.05 125.3 113.6 125.3 113.6 124.9 113.6 124.5 114.05 124.5 114.55 124.5 114.55 124.9" fill="#718f9c" fill-rule="evenodd" stroke="none"/>
    <path d="M118.75 124.4 Q118.75 124.8 118.3 124.8 117.8 124.8 117.8 124.4 117.8 124.0 118.3 124.0 118.75 124.0 118.75 124.4" fill="#718f9c" fill-rule="evenodd" stroke="none"/>
    <path d="M122.7 123.95 Q122.7 124.35 122.25 124.35 121.75 124.35 121.75 123.95 121.75 123.55 122.25 123.55 122.7 123.55 122.7 123.95" fill="#718f9c" fill-rule="evenodd" stroke="none"/>
    <path d="M85.7 92.55 Q85.7 91.9 86.45 91.9 87.15 91.9 87.15 92.55 87.15 93.2 86.45 93.2 85.7 93.2 85.7 92.55" fill="#718f9c" fill-rule="evenodd" stroke="none"/>
    <path d="M88.05 96.65 Q88.05 96.0 88.8 96.0 89.5 96.0 89.5 96.65 89.5 97.35 88.8 97.35 88.05 97.35 88.05 96.65" fill="#718f9c" fill-rule="evenodd" stroke="none"/>
    <path d="M90.45 100.6 Q90.45 99.9 91.1 99.9 91.85 99.9 91.85 100.6 91.85 101.25 91.1 101.25 90.45 101.25 90.45 100.6" fill="#718f9c" fill-rule="evenodd" stroke="none"/>
    <path d="M93.15 105.45 Q93.15 104.8 93.9 104.8 94.65 104.8 94.65 105.45 94.65 106.1 93.9 106.1 93.15 106.1 93.15 105.45" fill="#718f9c" fill-rule="evenodd" stroke="none"/>
    <path d="M84.65 124.65 Q84.65 124.1 85.25 124.1 85.85 124.1 85.85 124.65 85.85 125.15 85.25 125.15 84.65 125.15 84.65 124.65" fill="#718f9c" fill-rule="evenodd" stroke="none"/>
    <path d="M87.7 124.25 Q87.7 123.7 88.3 123.7 88.9 123.7 88.9 124.25 88.9 124.8 88.3 124.8 87.7 124.8 87.7 124.25" fill="#718f9c" fill-rule="evenodd" stroke="none"/>
    <path d="M90.5 123.85 Q90.5 123.3 91.1 123.3 91.75 123.3 91.75 123.85 91.75 124.45 91.1 124.45 90.5 124.45 90.5 123.85" fill="#718f9c" fill-rule="evenodd" stroke="none"/>
    <path d="M110.15 125.2 Q110.15 124.8 110.6 124.8 111.1 124.8 111.1 125.2 L110.6 125.6 Q110.15 125.6 110.15 125.2" fill="#718f9c" fill-rule="evenodd" stroke="none"/>
    <path d="M106.45 124.85 Q106.45 124.45 106.9 124.45 107.4 124.45 107.4 124.85 107.4 125.25 106.9 125.25 106.45 125.25 106.45 124.85" fill="#718f9c" fill-rule="evenodd" stroke="none"/>
    <path d="M102.6 124.5 Q102.6 124.1 103.0 124.1 103.5 124.1 103.5 124.5 103.5 124.9 103.0 124.9 102.6 124.9 102.6 124.5" fill="#718f9c" fill-rule="evenodd" stroke="none"/>
    <path d="M99.55 124.15 Q99.55 123.8 100.0 123.8 100.45 123.8 100.45 124.15 L100.0 124.55 Q99.55 124.55 99.55 124.15" fill="#718f9c" fill-rule="evenodd" stroke="none"/>
    <path d="M101.85 149.05 Q101.85 148.5 102.45 148.5 103.0 148.5 103.0 149.05 103.0 149.65 102.45 149.65 101.85 149.65 101.85 149.05" fill="#718f9c" fill-rule="evenodd" stroke="none"/>
    <path d="M105.15 148.55 Q105.15 148.0 105.7 148.0 106.3 148.0 106.3 148.55 106.3 149.1 105.7 149.1 105.15 149.1 105.15 148.55" fill="#718f9c" fill-rule="evenodd" stroke="none"/>
    <path d="M108.8 149.35 Q108.8 148.75 109.4 148.75 110.0 148.75 110.0 149.35 110.0 149.9 109.4 149.9 108.8 149.9 108.8 149.35" fill="#718f9c" fill-rule="evenodd" stroke="none"/>
    <path d="M120.45 149.3 Q120.45 149.85 119.85 149.85 119.25 149.85 119.25 149.3 119.25 148.75 119.85 148.75 120.45 148.75 120.45 149.3" fill="#718f9c" fill-rule="evenodd" stroke="none"/>
    <path d="M116.4 148.55 Q116.4 149.1 115.8 149.1 115.2 149.1 115.2 148.55 115.2 148.0 115.8 148.0 116.4 148.0 116.4 148.55" fill="#718f9c" fill-rule="evenodd" stroke="none"/>
    <path d="M113.45 149.35 Q113.45 149.9 112.85 149.9 112.25 149.9 112.25 149.35 112.25 148.75 112.85 148.75 113.45 148.75 113.45 149.35" fill="#718f9c" fill-rule="evenodd" stroke="none"/>
    <path d="M110.5 121.65 Q110.5 121.25 111.0 121.25 111.45 121.25 111.45 121.65 111.45 122.05 111.0 122.05 110.5 122.05 110.5 121.65" fill="#718f9c" fill-rule="evenodd" stroke="none"/>
    <path d="M110.6 118.1 Q110.6 117.7 111.1 117.7 111.55 117.7 111.55 118.1 111.55 118.5 111.1 118.5 110.6 118.5 110.6 118.1" fill="#718f9c" fill-rule="evenodd" stroke="none"/>
    <path d="M110.5 114.55 Q110.5 114.2 111.0 114.2 111.45 114.2 111.45 114.55 111.45 114.95 111.0 114.95 110.5 114.95 110.5 114.55" fill="#718f9c" fill-rule="evenodd" stroke="none"/>
    <path d="M110.5 110.95 Q110.5 110.55 111.0 110.55 111.45 110.55 111.45 110.95 L111.0 111.3 Q110.5 111.3 110.5 110.95" fill="#718f9c" fill-rule="evenodd" stroke="none"/>
    <path d="M110.55 107.45 Q110.55 107.05 111.05 107.05 111.5 107.05 111.5 107.45 111.5 107.85 111.05 107.85 110.55 107.85 110.55 107.45" fill="#718f9c" fill-rule="evenodd" stroke="none"/>
    <path d="M110.45 103.9 Q110.45 103.5 110.95 103.5 111.45 103.5 111.45 103.9 111.45 104.3 110.95 104.3 110.45 104.3 110.45 103.9" fill="#718f9c" fill-rule="evenodd" stroke="none"/>
    <path d="M121.05 89.3 L120.6 89.65 Q120.15 89.65 120.15 89.3 120.15 88.85 120.6 88.85 121.05 88.85 121.05 89.3" fill="#718f9c" fill-rule="evenodd" stroke="none"/>
    <path d="M125.2 88.5 L124.7 88.95 Q124.25 88.95 124.25 88.5 124.25 88.1 124.7 88.1 125.2 88.1 125.2 88.5" fill="#718f9c" fill-rule="evenodd" stroke="none"/>
    <path d="M125.85 84.7 Q125.85 85.05 125.35 85.05 124.9 85.05 124.9 84.7 124.9 84.25 125.35 84.25 125.85 84.25 125.85 84.7" fill="#718f9c" fill-rule="evenodd" stroke="none"/>
    <path d="M122.8 91.85 Q122.8 92.3 122.3 92.3 121.9 92.3 121.9 91.85 121.9 91.4 122.3 91.4 122.8 91.4 122.8 91.85" fill="#718f9c" fill-rule="evenodd" stroke="none"/>
    <path d="M118.55 95.0 Q118.55 95.4 118.05 95.4 117.6 95.4 117.6 95.0 117.6 94.6 118.05 94.6 118.55 94.6 118.55 95.0" fill="#718f9c" fill-rule="evenodd" stroke="none"/>
    <path d="M101.35 89.3 Q101.35 88.85 101.85 88.85 102.3 88.85 102.3 89.3 102.3 89.65 101.85 89.65 101.35 89.65 101.35 89.3" fill="#718f9c" fill-rule="evenodd" stroke="none"/>
    <path d="M97.3 88.5 Q97.3 88.1 97.75 88.1 98.2 88.1 98.2 88.5 L97.75 88.95 Q97.3 88.95 97.3 88.5" fill="#718f9c" fill-rule="evenodd" stroke="none"/>
    <path d="M96.85 85.3 Q96.85 84.85 97.3 84.85 97.75 84.85 97.75 85.3 97.75 85.7 97.3 85.7 96.85 85.7 96.85 85.3" fill="#718f9c" fill-rule="evenodd" stroke="none"/>
    <path d="M99.65 91.85 Q99.65 91.4 100.1 91.4 100.6 91.4 100.6 91.85 100.6 92.3 100.1 92.3 99.65 92.3 99.65 91.85" fill="#718f9c" fill-rule="evenodd" stroke="none"/>
    <path d="M105.0 95.65 Q105.0 95.25 105.45 95.25 105.9 95.25 105.9 95.65 L105.45 96.1 Q105.0 96.1 105.0 95.65" fill="#718f9c" fill-rule="evenodd" stroke="none"/>
    <path d="M110.4 98.85 Q110.4 99.25 109.9 99.25 109.45 99.25 109.45 98.85 109.45 98.4 109.9 98.4 110.4 98.4 110.4 98.85" fill="#718f9c" fill-rule="evenodd" stroke="none"/>
    <path d="M113.4 98.65 Q113.4 99.05 112.95 99.05 112.45 99.05 112.45 98.65 112.45 98.2 112.95 98.2 113.4 98.2 113.4 98.65" fill="#718f9c" fill-rule="evenodd" stroke="none"/>
    <path d="M105.55 81.85 Q103.3 81.1 101.6 79.6 103.2 70.65 106.85 63.8 L107.95 63.7 Q105.2 76.45 105.55 81.85" fill="#f4f6f9" fill-rule="evenodd" stroke="none"/>
    <path d="M116.05 81.45 Q115.5 78.25 113.4 71.85 L110.7 63.6 112.55 63.65 Q117.95 70.25 121.0 79.2 119.45 80.5 116.05 81.45" fill="#c6cdd8" fill-rule="evenodd" stroke="none"/>
    <path d="M120.0 65.25 Q121.55 66.75 121.55 68.9 121.55 71.0 120.0 72.5 118.35 74.0 116.15 74.0 114.0 74.0 112.4 72.5 110.8 71.0 110.8 68.9 110.8 66.75 112.4 65.25 114.0 63.75 116.15 63.75 118.35 63.75 120.0 65.25" fill="#adbcc7" fill-rule="evenodd" stroke="none"/>
    <path d="M121.3 68.35 Q121.3 70.45 119.7 71.95 118.15 73.45 115.95 73.45 113.75 73.45 112.15 71.95 110.6 70.45 110.6 68.35 110.6 66.2 112.15 64.7 113.75 63.15 115.95 63.15 118.15 63.15 119.7 64.7 121.3 66.2 121.3 68.35" fill="#000000" fill-rule="evenodd" stroke="none"/>
    <path d="M110.9 68.35 Q110.9 66.35 112.4 64.95 113.85 63.5 115.95 63.5 118.0 63.5 119.5 64.95 120.95 66.35 120.95 68.35 120.95 70.3 119.5 71.7 118.0 73.15 115.95 73.15 113.85 73.15 112.4 71.7 110.9 70.3 110.9 68.35" fill="#c3f3ea" fill-rule="evenodd" stroke="none"/>
    <path d="M113.0 69.35 Q113.4 70.4 112.7 70.65 112.0 70.9 111.7 69.85 111.3 68.85 112.0 68.65 112.7 68.35 113.0 69.35" fill="#000a06" fill-rule="evenodd" stroke="none"/>
    <path d="M114.45 86.4 L110.85 81.95 121.3 78.95 123.0 81.45 114.45 86.4" fill="#000000" fill-rule="evenodd" stroke="none"/>
    <path d="M120.85 79.75 L122.05 81.25 114.75 85.5 112.0 82.15 120.85 79.75" fill="#718f9c" fill-rule="evenodd" stroke="none"/>
    <path d="M101.4 79.15 L112.3 81.95 108.7 86.4 100.15 81.45 101.35 79.15 101.4 79.15" fill="#000000" fill-rule="evenodd" stroke="none"/>
    <path d="M101.1 81.25 L101.9 79.95 111.15 82.15 108.45 85.5 101.1 81.25" fill="#718f9c" fill-rule="evenodd" stroke="none"/>
    <path d="M105.35 65.65 Q107.3 65.65 108.7 67.0 110.05 68.3 110.05 70.2 110.05 72.1 108.7 73.45 107.3 74.8 105.35 74.8 103.45 74.8 102.05 73.45 100.65 72.1 100.65 70.2 100.65 68.35 102.05 67.0 103.45 65.65 105.35 65.65" fill="#c6cdd8" fill-rule="evenodd" stroke="none"/>
    <path d="M108.4 73.0 Q104.8 75.3 104.05 78.45 105.8 77.15 107.9 76.35 109.8 75.65 113.1 75.65 115.05 75.65 117.2 76.85 L114.8 74.45 Q113.1 73.05 112.4 73.05 L110.2 73.55 108.4 73.0 M110.2 73.25 L112.4 72.75 Q113.4 72.75 115.45 74.55 117.45 76.3 117.75 77.25 L117.95 77.65 Q114.95 76.0 113.1 76.0 109.8 76.0 108.05 76.65 105.65 77.55 103.55 79.25 L103.65 78.85 Q104.2 75.25 108.4 72.6 109.45 73.25 110.2 73.25" fill="#000000" fill-rule="evenodd" stroke="none"/>
    <path d="M105.2 65.15 Q107.1 65.15 108.5 66.5 109.85 67.85 109.85 69.7 109.85 71.6 108.5 72.95 107.1 74.25 105.2 74.25 103.25 74.25 101.9 72.95 100.5 71.6 100.5 69.7 100.5 67.8 101.9 66.5 103.25 65.15 105.2 65.15" fill="#000000" fill-rule="evenodd" stroke="none"/>
    <path d="M100.8 69.7 Q100.8 67.95 102.1 66.7 103.35 65.45 105.2 65.45 106.95 65.45 108.25 66.7 109.5 68.0 109.5 69.7 109.5 71.5 108.25 72.7 106.95 73.95 105.2 73.95 103.35 73.95 102.1 72.7 100.8 71.5 100.8 69.7" fill="#c3f3ea" fill-rule="evenodd" stroke="none"/>
    <path d="M106.7 69.35 Q107.1 68.35 107.75 68.65 108.45 68.85 108.05 69.85 107.65 70.85 107.0 70.65 106.4 70.4 106.7 69.35" fill="#000a06" fill-rule="evenodd" stroke="none"/>
  </g>
</svg>
