<?xml version="1.0" encoding="UTF-8" standalone="no"?>
<svg xmlns:xlink="http://www.w3.org/1999/xlink" height="39.05px" width="37.25px" xmlns="http://www.w3.org/2000/svg">
  <g transform="matrix(1.0, 0.0, 0.0, 1.0, -0.55, 37.0)">
    <path d="M16.3 -22.75 L16.5 -20.2 Q19.8 -20.6 21.35 -21.6 22.9 -22.6 22.75 -23.7 22.65 -24.8 21.0 -25.35 L16.15 -25.5 16.3 -22.75 M17.1 -13.55 L17.2 -12.8 17.45 -11.05 17.7 -9.2 Q20.4 -9.5 21.7 -10.3 22.95 -11.1 22.85 -11.95 22.75 -12.85 21.3 -13.35 L17.1 -13.55 M35.05 -32.65 Q37.25 -30.4 37.75 -26.7 38.0 -24.25 37.35 -22.3 36.7 -20.35 35.5 -19.0 34.3 -17.6 33.0 -16.85 34.2 -16.4 35.4 -15.25 36.6 -14.15 37.25 -12.3 37.85 -10.5 37.35 -7.8 36.9 -5.7 34.75 -3.6 32.55 -1.5 28.5 0.05 24.45 1.6 18.35 2.05 L3.9 1.35 2.85 -10.5 1.7 -22.35 0.55 -33.7 6.4 -35.3 Q9.9 -36.15 13.95 -36.6 L22.0 -37.0 Q26.0 -36.9 29.4 -35.85 32.8 -34.85 35.05 -32.65" fill="#000000" fill-rule="evenodd" stroke="none"/>
  </g>
</svg>
