<?xml version="1.0" encoding="UTF-8" standalone="no"?>
<svg xmlns:xlink="http://www.w3.org/1999/xlink" height="36.0px" width="32.85px" xmlns="http://www.w3.org/2000/svg">
  <g transform="matrix(1.0, 0.0, 0.0, 1.0, -1.0, 35.0)">
    <path d="M22.15 -34.85 L32.55 -35.0 32.5 -33.75 32.4 -30.55 32.2 -26.25 31.85 -21.8 30.2 -21.9 26.0 -22.2 20.65 -22.6 15.4 -23.1 15.4 -21.65 15.45 -20.25 16.75 -20.15 19.85 -19.95 23.45 -19.7 23.55 -18.85 23.7 -16.75 23.95 -14.05 19.3 -13.1 15.65 -12.45 15.7 -11.6 15.8 -10.15 17.2 -10.25 20.85 -10.55 26.15 -11.1 32.2 -11.75 32.5 -10.0 33.15 -5.5 33.85 0.4 22.35 0.75 11.35 0.9 1.65 1.0 1.4 -9.2 1.15 -21.25 1.0 -33.85 11.95 -34.55 22.15 -34.85" fill="#000000" fill-rule="evenodd" stroke="none"/>
  </g>
</svg>
