<?xml version="1.0" encoding="UTF-8" standalone="no"?>
<svg xmlns:xlink="http://www.w3.org/1999/xlink" height="188.45px" width="189.05px" xmlns="http://www.w3.org/2000/svg">
  <g transform="matrix(1.0, 0.0, 0.0, 1.0, 118.4, 74.55)">
    <use height="59.0" transform="matrix(0.8006, 0.0, 0.0, 0.664, -111.4794, 74.6559)" width="196.0" xlink:href="#sprite0"/>
    <use height="34.6" transform="matrix(0.8187, 0.57, -0.57, 0.8187, -33.8042, 39.8141)" width="14.25" xlink:href="#sprite2"/>
    <use height="28.35" transform="matrix(0.0562, 0.9955, -0.9955, 0.0562, -58.4294, 46.9588)" width="46.8" xlink:href="#sprite3"/>
    <use height="25.35" transform="matrix(0.2587, 0.9608, -0.9608, 0.2587, -42.741, 48.7082)" width="21.85" xlink:href="#sprite4"/>
    <use height="34.6" transform="matrix(0.7114, -0.6958, 0.6958, 0.7114, -38.3703, 52.3452)" width="14.25" xlink:href="#sprite2"/>
    <use height="60.8" transform="matrix(-0.5107, -0.3115, -0.3115, 0.5107, -5.0442, 32.1795)" width="78.75" xlink:href="#shape4"/>
    <use height="31.0" transform="matrix(1.0, 0.0, 0.0, 1.0, 31.9, -23.15)" width="37.1" xlink:href="#sprite5"/>
    <use height="75.8" transform="matrix(-0.0811, 0.5942, 0.5942, 0.0811, 0.2394, -9.1687)" width="18.25" xlink:href="#shape6"/>
    <use height="41.7" transform="matrix(-0.1431, 0.5822, 0.5822, 0.1431, -10.8533, -16.646)" width="38.35" xlink:href="#shape7"/>
    <use height="95.5" transform="matrix(-0.4134, -0.4333, -0.4333, 0.4134, 21.686, 9.9945)" width="81.0" xlink:href="#shape8"/>
    <use height="75.8" transform="matrix(-0.0811, 0.5942, 0.5942, 0.0811, 0.4394, -4.1687)" width="18.25" xlink:href="#shape6"/>
    <use height="28.0" transform="matrix(-0.6, 0.0, 0.0, 0.6, 6.5899, -20.9499)" width="21.05" xlink:href="#sprite6"/>
    <use height="41.7" transform="matrix(-0.1431, 0.5822, 0.5822, 0.1431, -10.6533, -13.646)" width="38.35" xlink:href="#shape7"/>
    <use height="31.0" transform="matrix(1.0, 0.0, 0.0, 1.0, 33.55, -19.3)" width="37.1" xlink:href="#sprite7"/>
    <use height="28.35" transform="matrix(0.9268, -0.3577, 0.3577, 0.9268, -21.6487, 85.0543)" width="46.8" xlink:href="#sprite3"/>
    <use height="25.35" transform="matrix(0.5661, -0.8139, 0.8139, 0.5661, -28.1729, 77.291)" width="21.85" xlink:href="#sprite4"/>
    <use height="115.65" transform="matrix(-0.6, 0.0, 0.0, 0.6, 43.8795, -69.9295)" width="114.1" xlink:href="#shape11"/>
  </g>
  <defs>
    <g id="sprite0" transform="matrix(1.0, 0.0, 0.0, 1.0, 113.2, 27.4)">
      <use height="59.0" transform="matrix(1.0, 0.0, 0.0, 1.0, -113.2, -27.4)" width="196.0" xlink:href="#sprite1"/>
    </g>
    <g id="sprite1" transform="matrix(1.0, 0.0, 0.0, 1.0, 98.0, 29.55)">
      <use height="7.5" transform="matrix(4.0833, 0.0, 0.0, 7.86, -97.9999, -29.525)" width="48.0" xlink:href="#shape0"/>
    </g>
    <g id="shape0" transform="matrix(1.0, 0.0, 0.0, 1.0, 24.0, 3.75)">
      <path d="M24.0 0.0 Q24.0 1.55 16.95 2.65 L0.0 3.75 -17.0 2.65 Q-24.0 1.55 -24.0 0.0 -24.0 -1.55 -17.0 -2.65 L0.0 -3.75 16.95 -2.65 Q24.0 -1.55 24.0 0.0" fill="#000000" fill-opacity="0.28627452" fill-rule="evenodd" stroke="none"/>
    </g>
    <g id="sprite2" transform="matrix(1.0, 0.0, 0.0, 1.0, 7.1, 14.4)">
      <use height="34.6" transform="matrix(1.0, 0.0, 0.0, 1.0, -7.1, -14.4)" width="14.25" xlink:href="#shape1"/>
    </g>
    <g id="shape1" transform="matrix(1.0, 0.0, 0.0, 1.0, 7.1, 14.4)">
      <path d="M3.45 13.45 Q4.1 11.2 4.9 9.4 L5.7 2.3 5.8 -0.95 Q5.5 -6.05 3.4 -10.6 L2.75 -11.45 2.1 -12.2 Q0.1 -13.35 -1.85 -12.85 -4.05 -10.6 -4.4 -7.2 L-5.65 7.45 -6.05 9.9 -6.2 10.25 -6.7 10.6 -7.0 10.45 -7.1 10.35 -6.1 -2.95 -5.35 -8.75 Q-4.95 -10.85 -3.8 -12.25 L-3.9 -12.4 Q-2.55 -14.4 -0.05 -14.4 4.45 -13.2 5.75 -8.7 7.8 -1.5 6.9 5.95 L6.3 9.6 6.15 11.4 6.05 11.6 Q5.4 18.45 -1.3 20.1 -3.3 20.6 -4.35 19.1 -4.2 18.35 -3.35 18.35 1.7 18.85 3.35 13.8 L3.45 13.45" fill="#000000" fill-rule="evenodd" stroke="none"/>
      <path d="M3.2 13.8 L3.45 13.45 3.35 13.8 3.2 13.8" fill="#ff6600" fill-rule="evenodd" stroke="none"/>
      <path d="M-6.2 10.25 L-6.05 9.9 -5.65 7.45 -4.4 -7.2 Q-4.05 -10.6 -1.85 -12.85 0.1 -13.35 2.1 -12.2 L2.75 -11.45 3.4 -10.6 Q5.5 -6.05 5.8 -0.95 L5.7 2.3 4.9 9.4 Q4.1 11.2 3.45 13.45 L3.2 13.8 2.5 14.05 1.7 14.1 -0.55 13.75 -3.5 12.8 -4.65 12.15 Q-5.8 11.35 -6.2 10.25" fill="#0ecfe4" fill-rule="evenodd" stroke="none"/>
    </g>
    <g id="sprite3" transform="matrix(1.0, 0.0, 0.0, 1.0, 23.4, 14.15)">
      <use height="28.35" transform="matrix(1.0, 0.0, 0.0, 1.0, -23.4, -14.15)" width="46.8" xlink:href="#shape2"/>
    </g>
    <g id="shape2" transform="matrix(1.0, 0.0, 0.0, 1.0, 23.4, 14.15)">
      <path d="M11.6 2.7 L11.35 2.5 Q10.25 1.75 9.05 1.15 6.95 0.1 4.45 -0.4 L4.05 -0.25 3.95 -0.15 4.35 0.3 7.8 1.55 9.55 2.8 Q12.0 4.45 14.05 6.55 L14.25 6.75 13.7 6.9 12.95 7.15 10.7 7.65 5.2 8.3 -0.55 8.35 -5.9 7.9 -9.3 7.05 Q-11.85 6.15 -14.0 4.55 -15.2 3.7 -15.7 2.4 -16.1 1.45 -16.0 0.5 -15.8 -1.15 -15.15 -2.65 L-14.35 -4.35 Q-13.1 -6.95 -11.25 -9.15 L-8.85 -11.9 -6.25 -13.1 -6.1 -13.4 -6.15 -13.75 -6.15 -13.9 -5.3 -13.85 Q-3.9 -13.6 -2.75 -12.7 -1.9 -12.0 -1.4 -11.1 L-1.55 -11.0 -1.6 -10.85 -1.65 -10.7 -1.55 -10.2 Q-1.2 -9.35 -1.15 -8.5 L-0.85 -6.15 -5.1 -5.1 Q-8.35 -3.8 -10.8 -1.4 L-10.85 -1.25 -10.8 -1.15 -10.75 -1.05 -9.95 -1.2 Q-6.65 -3.4 -2.85 -4.35 6.0 -6.5 14.15 -2.75 17.45 -1.2 19.85 1.45 L21.15 3.25 20.6 3.6 Q19.55 4.15 18.35 4.15 15.4 4.2 12.7 3.0 L11.65 2.6 11.6 2.7" fill="#0ecfe4" fill-rule="evenodd" stroke="none"/>
      <path d="M14.25 6.75 L14.05 6.55 Q12.0 4.45 9.55 2.8 L7.8 1.55 4.35 0.3 3.95 -0.15 4.05 -0.25 4.45 -0.4 Q6.95 0.1 9.05 1.15 10.25 1.75 11.35 2.5 L11.6 2.7 12.45 3.35 Q14.6 5.1 16.3 7.65 L17.4 9.65 19.65 8.45 21.8 6.55 22.2 6.0 22.3 5.95 22.3 5.9 Q21.9 4.5 21.15 3.25 L19.85 1.45 Q17.45 -1.2 14.15 -2.75 6.0 -6.5 -2.85 -4.35 -6.65 -3.4 -9.95 -1.2 L-10.75 -1.05 -10.8 -1.15 -10.85 -1.25 -10.8 -1.4 Q-8.35 -3.8 -5.1 -5.1 L-0.85 -6.15 -1.15 -8.5 Q-1.2 -9.35 -1.55 -10.2 L-1.65 -10.7 -1.6 -10.85 -1.55 -11.0 -1.4 -11.1 -1.35 -11.15 -0.9 -11.15 -0.75 -11.1 Q0.85 -8.75 0.0 -6.25 L1.85 -6.4 Q9.5 -6.8 16.2 -3.25 19.85 -1.35 22.1 1.9 L22.1 1.95 Q23.7 4.1 23.3 6.65 L23.1 7.05 23.0 7.15 Q22.65 8.45 20.85 9.2 L19.15 9.95 Q3.95 16.95 -12.45 12.45 -16.7 11.3 -20.25 8.8 -22.15 7.55 -23.2 5.6 -23.55 4.95 -23.35 4.25 L-21.65 0.0 -21.65 -0.1 -21.65 -0.3 -20.9 -1.65 Q-18.6 -6.25 -14.6 -9.75 -11.25 -12.65 -7.2 -14.05 L-6.9 -14.15 -6.25 -13.9 -6.2 -13.85 -6.15 -13.75 -6.1 -13.4 -6.25 -13.1 -8.85 -11.9 -11.85 -10.05 Q-15.2 -7.65 -17.7 -4.15 L-19.55 -1.65 -19.8 -1.15 -20.85 0.85 Q-21.75 3.0 -22.1 5.15 L-21.9 5.6 Q-15.4 11.45 -6.5 12.6 4.05 13.95 14.05 10.9 L16.2 10.15 16.1 10.0 15.8 9.25 15.8 9.15 15.05 7.95 14.3 6.8 14.25 6.75" fill="#000000" fill-rule="evenodd" stroke="none"/>
      <path d="M-11.85 -10.05 L-8.85 -11.9 -11.25 -9.15 -11.85 -10.05 M12.45 3.35 L11.6 2.7 11.65 2.6 12.7 3.0 12.45 3.35" fill="#ca5100" fill-rule="evenodd" stroke="none"/>
      <path d="M14.25 6.75 L14.3 6.8 15.05 7.95 15.8 9.15 15.8 9.25 16.1 10.0 16.2 10.15 14.05 10.9 Q4.05 13.95 -6.5 12.6 -15.4 11.45 -21.9 5.6 L-22.1 5.15 Q-21.75 3.0 -20.85 0.85 L-19.8 -1.15 -19.55 -1.65 -17.7 -4.15 Q-15.2 -7.65 -11.85 -10.05 L-11.25 -9.15 Q-13.1 -6.95 -14.35 -4.35 L-15.15 -2.65 Q-15.8 -1.15 -16.0 0.5 -16.1 1.45 -15.7 2.4 -15.2 3.7 -14.0 4.55 -11.85 6.15 -9.3 7.05 L-5.9 7.9 -0.55 8.35 5.2 8.3 10.7 7.65 12.95 7.15 13.7 6.9 14.25 6.75 M21.15 3.25 Q21.9 4.5 22.3 5.9 L22.3 5.95 22.2 6.0 21.8 6.55 19.65 8.45 17.4 9.65 16.3 7.65 Q14.6 5.1 12.45 3.35 L12.7 3.0 Q15.4 4.2 18.35 4.15 19.55 4.15 20.6 3.6 L21.15 3.25" fill="#0db5c8" fill-rule="evenodd" stroke="none"/>
    </g>
    <g id="sprite4" transform="matrix(1.0, 0.0, 0.0, 1.0, 11.0, 12.65)">
      <use height="25.35" transform="matrix(1.0, 0.0, 0.0, 1.0, -11.0, -12.65)" width="21.85" xlink:href="#shape3"/>
    </g>
    <g id="shape3" transform="matrix(1.0, 0.0, 0.0, 1.0, 11.0, 12.65)">
      <path d="M0.0 -10.8 Q-1.25 -6.15 -3.7 -2.0 L-3.9 -1.8 -8.3 6.3 -8.3 6.35 Q-8.45 7.1 -8.95 7.6 L-10.45 9.3 -10.75 9.35 -10.8 9.3 -10.95 8.9 -11.0 8.7 -10.1 7.2 -10.05 7.1 -10.0 7.05 -9.75 6.55 -9.6 6.4 -9.55 6.3 -7.5 2.15 -4.6 -2.85 -3.15 -5.55 -1.6 -9.75 -1.0 -11.2 -0.85 -11.4 -0.75 -11.45 -0.5 -11.5 -0.25 -11.45 -0.05 -11.15 0.0 -10.95 0.0 -10.8 M3.55 9.85 Q7.15 4.05 8.75 -2.65 L10.0 -7.95 Q10.1 -8.4 10.5 -8.45 L10.7 -8.35 10.85 -8.3 Q11.0 -4.8 10.1 -1.35 8.85 3.2 6.35 7.2 5.55 10.05 3.0 11.45 2.7 11.6 2.6 11.3 L3.55 9.85" fill="#000000" fill-rule="evenodd" stroke="none"/>
      <path d="M0.0 -10.8 L0.6 -11.55 1.0 -11.85 Q3.7 -13.2 6.5 -12.25 9.35 -11.25 10.45 -8.55 L10.5 -8.45 Q10.1 -8.4 10.0 -7.95 L8.75 -2.65 Q7.15 4.05 3.55 9.85 L2.75 10.2 Q1.1 11.05 -0.75 11.4 L-1.4 11.6 -3.65 12.25 -6.75 12.7 Q-8.25 12.75 -9.5 12.1 -10.95 11.35 -10.85 9.8 L-10.8 9.3 -10.75 9.35 -10.45 9.3 -8.95 7.6 Q-8.45 7.1 -8.3 6.35 L-8.3 6.3 -3.9 -1.8 -3.7 -2.0 Q-1.25 -6.15 0.0 -10.8" fill="#0ecfe4" fill-rule="evenodd" stroke="none"/>
    </g>
    <g id="shape4" transform="matrix(1.0, 0.0, 0.0, 1.0, 39.1, 30.45)">
      <path d="M34.9 -0.85 L33.35 1.65 Q34.95 11.45 32.1 20.9 31.6 22.55 30.4 23.65 27.5 26.4 23.85 27.35 11.9 30.4 -0.4 30.35 -16.5 30.25 -27.35 18.8 L-26.6 16.45 -28.8 15.65 Q-36.2 12.75 -38.6 5.45 -35.0 2.6 -34.65 -2.0 -34.25 -7.2 -36.75 -11.8 -39.5 -16.9 -39.0 -22.35 -29.65 -25.85 -20.0 -27.9 -8.7 -30.2 2.75 -30.45 22.65 -30.9 39.5 -20.3 L39.65 -17.7 Q39.9 -8.55 34.9 -0.85 M38.1 -15.35 Q38.45 -19.05 35.3 -21.15 33.4 -22.4 31.3 -23.15 10.05 -30.2 -12.4 -27.65 -25.65 -26.1 -38.15 -21.45 -34.35 -6.85 -22.55 2.25 L-21.2 -7.0 Q-19.5 6.1 -25.55 17.95 -15.8 27.15 -2.45 28.25 8.5 28.3 19.0 25.85 26.05 24.35 31.65 19.75 32.5 10.15 31.25 0.75 37.15 -6.3 38.1 -15.35 M-36.6 6.0 Q-33.0 12.25 -26.05 14.7 L-22.9 4.05 Q-28.25 0.55 -32.15 -4.25 -32.45 0.35 -35.25 4.2 L-36.6 6.0" fill="#000000" fill-rule="evenodd" stroke="none"/>
      <path d="M38.1 -15.35 Q37.15 -6.3 31.25 0.75 32.5 10.15 31.65 19.75 26.05 24.35 19.0 25.85 8.5 28.3 -2.45 28.25 -15.8 27.15 -25.55 17.95 -19.5 6.1 -21.2 -7.0 L-22.55 2.25 Q-34.35 -6.85 -38.15 -21.45 -25.65 -26.1 -12.4 -27.65 10.05 -30.2 31.3 -23.15 33.4 -22.4 35.3 -21.15 38.45 -19.05 38.1 -15.35 M-36.6 6.0 L-35.25 4.2 Q-32.45 0.35 -32.15 -4.25 -28.25 0.55 -22.9 4.05 L-26.05 14.7 Q-33.0 12.25 -36.6 6.0" fill="#666666" fill-rule="evenodd" stroke="none"/>
    </g>
    <g id="sprite5" transform="matrix(1.0, 0.0, 0.0, 1.0, 18.55, 15.5)">
      <use height="31.0" transform="matrix(1.0, 0.0, 0.0, 1.0, -18.55, -15.5)" width="37.1" xlink:href="#shape5"/>
    </g>
    <g id="shape5" transform="matrix(1.0, 0.0, 0.0, 1.0, 18.55, 15.5)">
      <path d="M-3.7 -9.7 Q-6.25 -7.45 -8.05 -4.45 L-11.2 0.75 -11.65 1.45 -11.75 1.55 -12.0 1.85 -12.05 2.2 -11.75 3.85 Q-10.85 7.95 -7.55 10.2 L-7.55 10.15 -7.15 10.3 -6.2 10.5 -6.1 10.3 -6.0 10.2 -3.8 10.55 -3.8 10.45 -3.05 10.45 -3.0 10.5 -1.05 9.95 Q3.2 8.65 4.95 4.4 7.45 0.65 11.95 -0.8 16.4 -2.3 17.5 -6.45 L17.45 -6.5 Q18.1 -12.15 12.35 -13.75 5.4 -15.7 -0.6 -11.95 L-1.3 -11.45 Q0.45 -10.7 0.85 -9.1 L0.85 -9.05 Q-3.85 -7.0 -6.6 -2.75 L-6.8 -2.4 -7.15 -2.2 -7.2 -1.85 Q-7.25 -1.65 -7.45 -1.55 L-7.5 -1.3 -7.65 -1.1 Q-8.15 -0.9 -8.45 -1.3 -7.2 -6.1 -3.65 -9.65 L-3.15 -10.1 -3.7 -9.7 M-5.55 -9.2 L-5.25 -9.6 -5.1 -9.65 -5.05 -9.75 -4.85 -9.85 -4.85 -9.8 Q-0.1 -14.3 6.6 -15.45 13.45 -16.1 17.5 -11.1 L18.3 -9.65 Q18.7 -8.5 18.45 -7.4 18.55 -5.55 17.25 -3.7 14.8 -0.15 10.55 1.3 6.45 2.7 4.55 6.6 2.75 10.15 -1.1 11.25 L-2.9 11.6 Q-2.95 14.05 -6.0 15.05 -10.25 16.45 -13.55 13.55 -18.4 9.95 -18.55 4.05 -18.65 -0.1 -14.65 -1.3 -13.25 -1.35 -12.1 -0.8 L-12.05 -0.6 Q-11.65 -0.5 -11.35 -0.9 L-11.2 -1.25 -11.1 -1.45 -10.5 -2.25 -10.55 -2.1 -10.25 -2.7 -10.1 -2.95 -10.05 -3.0 -10.05 -3.05 -7.75 -6.55 -5.55 -9.1 -5.55 -9.2 M-3.3 0.0 Q0.1 -3.05 3.95 -5.25 L2.9 -6.65 2.7 -6.7 Q-0.65 -3.75 -3.35 -0.05 L-3.4 0.05 -3.3 0.0 M4.55 -4.4 Q-1.65 -1.7 -5.2 4.05 L-5.45 4.25 -5.95 4.1 -6.0 4.05 Q-4.85 -0.6 -1.3 -4.0 L0.9 -6.2 1.05 -6.45 1.1 -6.65 2.6 -7.75 Q4.55 -6.6 5.25 -4.6 L5.25 -4.5 5.1 -4.35 4.85 -4.3 4.55 -4.4 M-1.3 -11.45 L-1.75 -11.15 -1.3 -11.45 M-5.65 -5.5 Q-3.25 -8.0 -0.2 -9.6 L-1.1 -10.4 -1.3 -10.4 Q-4.1 -8.45 -5.7 -5.55 L-5.75 -5.45 -5.65 -5.5 M-11.9 -0.25 L-14.75 -0.1 -15.7 0.15 Q-18.3 1.95 -17.7 5.3 -16.95 9.6 -13.55 12.3 -9.6 16.1 -5.05 13.3 -4.1 12.75 -4.0 11.7 L-4.0 11.6 -4.95 11.45 -5.6 11.55 -5.7 11.65 -6.3 11.75 -7.2 11.35 -7.95 10.95 Q-12.6 8.25 -12.75 2.65 L-12.7 2.3 -12.85 2.1 -12.9 2.0 -12.9 1.7 -12.9 1.55 Q-12.6 1.15 -12.15 0.9 L-12.15 0.55 -11.9 -0.25" fill="#000000" fill-rule="evenodd" stroke="none"/>
      <path d="M-3.65 -9.65 Q-7.2 -6.1 -8.45 -1.3 -8.15 -0.9 -7.65 -1.1 L-7.5 -1.3 -7.45 -1.55 Q-7.25 -1.65 -7.2 -1.85 L-7.15 -2.2 -6.8 -2.4 -6.6 -2.75 Q-3.85 -7.0 0.85 -9.05 L0.85 -9.1 Q0.45 -10.7 -1.3 -11.45 L-0.6 -11.95 Q5.4 -15.7 12.35 -13.75 18.1 -12.15 17.45 -6.5 L17.5 -6.45 Q16.4 -2.3 11.95 -0.8 7.45 0.65 4.95 4.4 3.2 8.65 -1.05 9.95 L-3.0 10.5 -3.05 10.45 -3.8 10.45 -3.8 10.55 -6.0 10.2 -6.1 10.3 -6.2 10.5 -7.15 10.3 -7.55 10.15 -7.55 10.2 Q-10.85 7.95 -11.75 3.85 L-12.05 2.2 -12.0 1.85 -11.75 1.55 -11.65 1.45 -11.2 0.75 -8.05 -4.45 Q-6.25 -7.45 -3.7 -9.7 L-3.65 -9.65 M-10.5 -2.25 L-10.25 -2.7 -10.55 -2.1 -10.5 -2.25 M-10.05 -3.05 L-9.7 -3.7 -9.65 -3.85 -9.6 -4.05 -9.45 -4.25 -7.9 -6.5 -7.85 -6.7 -7.85 -6.75 -6.6 -8.25 -6.35 -8.45 -5.65 -9.15 -5.55 -9.2 -5.55 -9.1 -7.75 -6.55 -10.05 -3.05 M-3.35 -0.05 Q-0.65 -3.75 2.7 -6.7 L2.9 -6.65 3.95 -5.25 Q0.1 -3.05 -3.3 0.0 L-3.35 -0.05 M4.55 -4.4 L4.85 -4.3 5.1 -4.35 5.25 -4.5 5.25 -4.6 Q4.55 -6.6 2.6 -7.75 L1.1 -6.65 1.05 -6.45 0.9 -6.2 -1.3 -4.0 Q-4.85 -0.6 -6.0 4.05 L-5.95 4.1 -5.45 4.25 -5.2 4.05 Q-1.65 -1.7 4.55 -4.4 M-5.7 -5.55 Q-4.1 -8.45 -1.3 -10.4 L-1.1 -10.4 -0.2 -9.6 Q-3.25 -8.0 -5.65 -5.5 L-5.7 -5.55 M-11.9 -0.25 L-12.15 0.55 -12.15 0.9 Q-12.6 1.15 -12.9 1.55 L-12.9 1.7 -12.9 2.0 -12.85 2.1 -12.7 2.3 -12.75 2.65 Q-12.6 8.25 -7.95 10.95 L-7.2 11.35 -6.3 11.75 -5.7 11.65 -5.6 11.55 -4.95 11.45 -4.0 11.6 -4.0 11.7 Q-4.1 12.75 -5.05 13.3 -9.6 16.1 -13.55 12.3 -16.95 9.6 -17.7 5.3 -18.3 1.95 -15.7 0.15 L-14.75 -0.1 -11.9 -0.25" fill="#ffffff" fill-rule="evenodd" stroke="none"/>
    </g>
    <g id="shape6" transform="matrix(1.0, 0.0, 0.0, 1.0, 9.0, 37.85)">
      <path d="M-2.0 -37.85 Q3.2 -37.85 5.4 -32.95 7.05 -29.25 7.95 -25.4 8.6 -22.55 8.55 -19.45 10.4 3.6 7.35 26.5 6.9 29.95 5.95 33.4 4.95 37.0 1.2 37.8 -2.2 38.55 -4.45 35.6 -7.9 31.25 -7.4 25.6 -5.3 2.8 -8.7 -19.8 -9.3 -23.9 -8.75 -28.2 -8.05 -33.5 -4.3 -36.8 -3.35 -37.55 -2.0 -37.85 M-5.8 23.25 Q-6.55 28.35 -4.5 33.25 -3.4 35.95 -0.6 36.55 L1.05 36.5 Q3.8 35.75 4.75 32.9 L5.3 30.6 Q8.05 12.85 7.25 -5.05 7.0 -10.4 6.9 -15.75 6.75 -23.4 4.4 -30.75 2.65 -36.25 -2.65 -35.95 -5.45 -35.45 -6.55 -32.85 -8.2 -29.0 -7.45 -24.5 -3.5 -2.9 -5.35 19.1 L-5.8 23.25" fill="#000000" fill-rule="evenodd" stroke="none"/>
      <path d="M-7.45 -24.5 Q-4.25 -28.5 -0.35 -25.5 3.7 -22.45 4.05 -17.35 5.7 4.8 0.75 26.4 L-0.45 26.6 Q-4.1 26.55 -5.8 23.25 L-5.35 19.1 Q-3.5 -2.9 -7.45 -24.5" fill="#0ecfe4" fill-rule="evenodd" stroke="none"/>
      <path d="M-5.8 23.25 Q-4.1 26.55 -0.45 26.6 L0.75 26.4 Q5.7 4.8 4.05 -17.35 3.7 -22.45 -0.35 -25.5 -4.25 -28.5 -7.45 -24.5 -8.2 -29.0 -6.55 -32.85 -5.45 -35.45 -2.65 -35.95 2.65 -36.25 4.4 -30.75 6.75 -23.4 6.9 -15.75 7.0 -10.4 7.25 -5.05 8.05 12.85 5.3 30.6 L4.75 32.9 Q3.8 35.75 1.05 36.5 L-0.6 36.55 Q-3.4 35.95 -4.5 33.25 -6.55 28.35 -5.8 23.25" fill="#0db5c8" fill-rule="evenodd" stroke="none"/>
    </g>
    <g id="shape7" transform="matrix(1.0, 0.0, 0.0, 1.0, 19.15, 20.6)">
      <path d="M2.8 18.4 Q9.95 17.5 15.95 13.75 L17.7 12.65 Q15.2 0.8 10.45 -10.25 9.5 -12.55 7.6 -14.35 L3.55 -17.9 Q1.2 -19.9 -1.75 -19.3 L-8.0 -17.55 Q-11.45 -14.65 -13.05 -10.65 L-14.55 -6.25 Q-17.2 3.1 -17.85 13.0 L-18.05 16.2 Q-7.85 19.95 2.8 18.4 M12.55 -9.2 L15.35 -1.5 Q17.8 5.85 19.2 13.35 15.95 16.35 12.0 18.45 9.65 19.75 6.7 20.2 L-3.75 21.05 -9.05 20.5 Q-13.05 19.75 -16.3 17.95 L-19.15 16.1 Q-19.15 6.8 -17.35 -2.35 -16.2 -8.05 -13.5 -13.0 L-11.5 -15.9 Q-9.25 -18.55 -5.95 -19.7 -1.15 -21.45 3.6 -19.8 7.35 -18.15 9.75 -14.5 11.45 -11.95 12.55 -9.2" fill="#000000" fill-rule="evenodd" stroke="none"/>
      <path d="M2.8 18.4 Q5.35 8.6 4.8 -1.35 4.6 -4.35 3.8 -7.3 L2.9 -9.75 Q1.0 -13.3 -2.65 -14.7 L-7.25 -16.55 Q-8.05 -16.85 -8.0 -17.55 L-1.75 -19.3 Q1.2 -19.9 3.55 -17.9 L7.6 -14.35 Q9.5 -12.55 10.45 -10.25 15.2 0.8 17.7 12.65 L15.95 13.75 Q9.95 17.5 2.8 18.4" fill="#9e1e07" fill-rule="evenodd" stroke="none"/>
      <path d="M-8.0 -17.55 Q-8.05 -16.85 -7.25 -16.55 L-2.65 -14.7 Q1.0 -13.3 2.9 -9.75 L3.8 -7.3 Q4.6 -4.35 4.8 -1.35 5.35 8.6 2.8 18.4 -7.85 19.95 -18.05 16.2 L-17.85 13.0 Q-17.2 3.1 -14.55 -6.25 L-13.05 -10.65 Q-11.45 -14.65 -8.0 -17.55" fill="#f02d0b" fill-rule="evenodd" stroke="none"/>
    </g>
    <g id="shape8" transform="matrix(1.0, 0.0, 0.0, 1.0, 40.45, 47.0)">
      <path d="M28.95 -10.15 L25.85 -21.0 23.0 -29.5 22.9 -29.8 Q21.1 -34.8 18.35 -38.2 11.25 -46.95 -1.95 -45.05 L-2.25 -45.0 -5.4 -43.2 Q-8.2 -41.4 -10.55 -39.1 -8.3 -41.65 -6.05 -43.4 -3.65 -45.2 -1.25 -46.1 8.6 -49.8 18.7 -38.25 L18.75 -38.2 Q22.1 -34.35 24.3 -29.75 25.5 -27.25 26.35 -24.45 L27.35 -21.15 30.5 -10.2 32.55 -2.45 Q35.15 8.0 37.25 18.55 L40.55 36.05 38.5 39.7 Q15.75 50.8 -6.5 47.9 -20.2 46.05 -33.7 39.0 -37.2 37.15 -40.45 34.8 -39.15 13.4 -31.3 -5.55 L-27.85 -13.2 Q-24.75 -19.45 -20.9 -25.35 L-15.35 -33.35 -15.0 -33.8 -15.3 -33.35 -15.9 -32.45 -20.15 -25.2 Q-23.55 -19.15 -26.4 -12.9 L-29.65 -5.15 Q-32.15 1.15 -34.1 7.65 L-36.0 15.35 -37.55 24.05 -38.2 33.55 -38.0 35.5 Q-24.0 43.75 -7.9 45.5 L-4.6 45.75 Q4.45 46.75 13.3 45.35 25.05 43.4 35.95 38.4 L38.05 37.4 37.35 34.55 35.95 24.65 34.75 16.9 33.05 8.25 30.95 -2.1 29.0 -10.1 28.95 -10.15" fill="#000000" fill-rule="evenodd" stroke="none"/>
      <path d="M29.0 -10.1 L28.7 -10.1 28.95 -10.15 29.0 -10.1" fill="#d6280a" fill-rule="evenodd" stroke="none"/>
      <path d="M-15.3 -33.35 L-15.0 -33.8 -15.1 -33.3 -15.3 -33.35" fill="#6666cc" fill-rule="evenodd" stroke="none"/>
      <path d="M-2.25 -45.0 L-1.95 -45.05 Q11.25 -46.95 18.35 -38.2 21.1 -34.8 22.9 -29.8 L23.0 -29.5 25.85 -21.0 28.95 -10.15 28.7 -10.1 29.0 -10.1 30.95 -2.1 33.05 8.25 17.55 10.4 Q3.5 11.75 -10.65 10.8 L-17.7 10.2 -17.95 2.15 Q-17.75 -5.85 -15.8 -13.55 -13.95 -20.9 -11.05 -27.85 L-8.85 -32.85 Q-5.9 -39.15 -2.05 -44.85 L-2.25 -45.0 M34.75 16.9 L35.95 24.65 16.9 28.3 Q1.15 30.15 -14.45 28.5 L-16.5 18.85 Q0.45 20.9 17.55 19.3 L34.75 16.9 M37.35 34.55 L38.05 37.4 35.95 38.4 Q25.05 43.4 13.3 45.35 4.45 46.75 -4.6 45.75 L-7.9 45.5 -9.1 43.15 -11.4 38.05 Q-3.0 38.7 5.45 38.5 L15.25 38.1 37.35 34.55" fill="#f02d0b" fill-rule="evenodd" stroke="none"/>
      <path d="M-17.7 10.2 L-10.65 10.8 Q3.5 11.75 17.55 10.4 L33.05 8.25 34.75 16.9 17.55 19.3 Q0.45 20.9 -16.5 18.85 L-17.05 15.65 -17.7 10.2 M35.95 24.65 L37.35 34.55 15.25 38.1 5.45 38.5 Q-3.0 38.7 -11.4 38.05 -12.95 34.15 -14.05 30.05 L-14.45 28.5 Q1.15 30.15 16.9 28.3 L35.95 24.65" fill="#c62509" fill-rule="evenodd" stroke="none"/>
      <path d="M-2.25 -45.0 L-2.05 -44.85 Q-5.9 -39.15 -8.85 -32.85 L-11.05 -27.85 Q-13.95 -20.9 -15.8 -13.55 -17.75 -5.85 -17.95 2.15 L-17.7 10.2 Q-25.9 9.3 -34.1 7.65 -32.15 1.15 -29.65 -5.15 L-26.4 -12.9 Q-23.55 -19.15 -20.15 -25.2 L-15.9 -32.45 -15.3 -33.35 -15.1 -33.3 -15.0 -33.8 Q-13.0 -36.75 -10.55 -39.1 -8.2 -41.4 -5.4 -43.2 L-2.25 -45.0 M-7.9 45.5 Q-24.0 43.75 -38.0 35.5 L-38.2 33.55 Q-24.9 36.95 -11.4 38.05 L-9.1 43.15 -7.9 45.5 M-37.55 24.05 L-36.0 15.35 -27.5 17.15 -16.5 18.85 -14.45 28.5 -27.15 26.55 -37.55 24.05" fill="#c9260a" fill-rule="evenodd" stroke="none"/>
      <path d="M-38.2 33.55 L-37.55 24.05 -27.15 26.55 -14.45 28.5 -14.05 30.05 Q-12.95 34.15 -11.4 38.05 -24.9 36.95 -38.2 33.55 M-36.0 15.35 L-34.1 7.65 Q-25.9 9.3 -17.7 10.2 L-17.05 15.65 -16.5 18.85 -27.5 17.15 -36.0 15.35" fill="#9e1e07" fill-rule="evenodd" stroke="none"/>
    </g>
    <g id="sprite6" transform="matrix(1.0, 0.0, 0.0, 1.0, 10.65, 14.0)">
      <use height="28.0" transform="matrix(1.0, 0.0, 0.0, 1.0, -10.65, -14.0)" width="21.05" xlink:href="#shape9"/>
    </g>
    <g id="shape9" transform="matrix(1.0, 0.0, 0.0, 1.0, 10.65, 14.0)">
      <path d="M6.6 -11.55 Q6.6 -2.9 9.75 5.35 10.3 6.8 10.4 8.4 L10.4 9.95 9.9 9.55 Q6.25 15.2 -0.15 13.65 -3.1 12.8 -4.0 9.9 L-4.8 6.5 Q-6.25 -1.45 -10.65 -8.25 L-10.4 -11.25 Q-5.85 -10.25 -1.25 -11.15 2.25 -12.05 5.4 -14.0 L6.6 -11.55 M5.25 10.95 L8.4 8.0 7.9 6.95 Q4.65 -1.95 5.2 -11.45 L5.2 -11.55 5.15 -11.55 Q-1.75 -7.9 -9.4 -9.5 L-6.4 -5.4 -5.6 -3.3 Q-4.55 -0.05 -4.3 3.3 -3.95 8.8 0.1 12.4 L1.55 12.25 Q3.45 12.05 5.25 10.95" fill="#000000" fill-rule="evenodd" stroke="none"/>
      <path d="M-6.4 -5.4 Q-2.25 -4.3 1.8 -6.0 L1.8 -3.5 Q1.95 4.1 5.25 10.95 3.45 12.05 1.55 12.25 L0.1 12.4 Q-3.95 8.8 -4.3 3.3 -4.55 -0.05 -5.6 -3.3 L-6.4 -5.4" fill="#0ecfe4" fill-rule="evenodd" stroke="none"/>
      <path d="M5.25 10.95 Q1.95 4.1 1.8 -3.5 L1.8 -6.0 Q-2.25 -4.3 -6.4 -5.4 L-9.4 -9.5 Q-1.75 -7.9 5.15 -11.55 L5.2 -11.45 Q4.65 -1.95 7.9 6.95 L8.4 8.0 5.25 10.95" fill="#0db5c8" fill-rule="evenodd" stroke="none"/>
    </g>
    <g id="sprite7" transform="matrix(1.0, 0.0, 0.0, 1.0, 18.55, 15.5)">
      <use height="31.0" transform="matrix(1.0, 0.0, 0.0, 1.0, -18.55, -15.5)" width="37.1" xlink:href="#shape10"/>
    </g>
    <g id="shape10" transform="matrix(1.0, 0.0, 0.0, 1.0, 18.55, 15.5)">
      <path d="M-3.65 -9.65 Q-7.2 -6.1 -8.45 -1.3 -8.15 -0.9 -7.65 -1.1 L-7.5 -1.3 -7.45 -1.55 Q-7.25 -1.65 -7.2 -1.85 L-7.15 -2.2 -6.8 -2.4 -6.6 -2.75 Q-3.85 -7.0 0.85 -9.05 L0.85 -9.1 Q0.45 -10.7 -1.3 -11.45 L-0.6 -11.95 Q5.4 -15.7 12.35 -13.75 18.1 -12.15 17.45 -6.5 L17.5 -6.45 Q16.4 -2.3 11.95 -0.8 7.45 0.65 4.95 4.4 3.2 8.65 -1.05 9.95 L-3.0 10.5 -3.05 10.45 -3.8 10.45 -3.8 10.55 -6.0 10.2 -6.1 10.3 -6.2 10.5 -7.15 10.3 -7.55 10.15 -7.55 10.2 Q-10.85 7.95 -11.75 3.85 L-12.05 2.2 -12.0 1.85 -11.75 1.55 -11.65 1.45 -11.2 0.75 -8.05 -4.45 Q-6.25 -7.45 -3.7 -9.7 L-3.65 -9.65 M-5.7 -5.55 Q-4.1 -8.45 -1.3 -10.4 L-1.1 -10.4 -0.2 -9.6 Q-3.25 -8.0 -5.65 -5.5 L-5.7 -5.55 M-3.35 -0.05 Q-0.65 -3.75 2.7 -6.7 L2.9 -6.65 3.95 -5.25 Q0.1 -3.05 -3.3 0.0 L-3.35 -0.05 M1.1 -6.65 L1.05 -6.45 0.9 -6.2 -1.3 -4.0 Q-4.85 -0.6 -6.0 4.05 L-5.95 4.1 -5.45 4.25 -5.2 4.05 Q-1.65 -1.7 4.55 -4.4 L4.85 -4.3 5.1 -4.35 5.25 -4.5 5.25 -4.6 Q4.55 -6.6 2.6 -7.75 L1.1 -6.65 M-11.9 -0.25 L-12.15 0.55 -12.15 0.9 Q-12.6 1.15 -12.9 1.55 L-12.9 1.7 -12.9 2.0 -12.85 2.1 -12.7 2.3 -12.75 2.65 Q-12.6 8.25 -7.95 10.95 L-7.2 11.35 -6.3 11.75 -5.7 11.65 -5.6 11.55 -4.95 11.45 -4.0 11.6 -4.0 11.7 Q-4.1 12.75 -5.05 13.3 -9.6 16.1 -13.55 12.3 -16.95 9.6 -17.7 5.3 -18.3 1.95 -15.7 0.15 L-14.75 -0.1 -11.9 -0.25 M-11.05 -10.8 L-11.0 -11.1 -10.9 -11.4 -10.85 -11.45 -10.65 -11.55 Q-6.75 -12.55 -5.55 -9.1 L-7.75 -6.55 -10.55 -2.1 -10.35 -3.3 Q-9.9 -7.15 -11.05 -10.8" fill="#ffffff" fill-rule="evenodd" stroke="none"/>
      <path d="M-1.3 -11.45 L-1.75 -11.15 -1.3 -11.45 Q0.45 -10.7 0.85 -9.1 L0.85 -9.05 Q-3.85 -7.0 -6.6 -2.75 L-6.8 -2.4 -7.15 -2.2 -7.2 -1.85 Q-7.25 -1.65 -7.45 -1.55 L-7.5 -1.3 -7.65 -1.1 Q-8.15 -0.9 -8.45 -1.3 -7.2 -6.1 -3.65 -9.65 L-3.15 -10.1 -3.7 -9.7 Q-6.25 -7.45 -8.05 -4.45 L-11.2 0.75 -11.65 1.45 -11.75 1.55 -12.0 1.85 -12.05 2.2 -11.75 3.85 Q-10.85 7.95 -7.55 10.2 L-7.55 10.15 -7.15 10.3 -6.2 10.5 -6.1 10.3 -6.0 10.2 -3.8 10.55 -3.8 10.45 -3.05 10.45 -3.0 10.5 -1.05 9.95 Q3.2 8.65 4.95 4.4 7.45 0.65 11.95 -0.8 16.4 -2.3 17.5 -6.45 L17.45 -6.5 Q18.1 -12.15 12.35 -13.75 5.4 -15.7 -0.6 -11.95 L-1.3 -11.45 M-5.65 -5.5 Q-3.25 -8.0 -0.2 -9.6 L-1.1 -10.4 -1.3 -10.4 Q-4.1 -8.45 -5.7 -5.55 L-5.75 -5.45 -5.65 -5.5 M1.1 -6.65 L2.6 -7.75 Q4.55 -6.6 5.25 -4.6 L5.25 -4.5 5.1 -4.35 4.85 -4.3 4.55 -4.4 Q-1.65 -1.7 -5.2 4.05 L-5.45 4.25 -5.95 4.1 -6.0 4.05 Q-4.85 -0.6 -1.3 -4.0 L0.9 -6.2 1.05 -6.45 1.1 -6.65 M-3.3 0.0 Q0.1 -3.05 3.95 -5.25 L2.9 -6.65 2.7 -6.7 Q-0.65 -3.75 -3.35 -0.05 L-3.4 0.05 -3.3 0.0 M6.6 -15.45 Q13.45 -16.1 17.5 -11.1 L18.3 -9.65 Q18.7 -8.5 18.45 -7.4 18.55 -5.55 17.25 -3.7 14.8 -0.15 10.55 1.3 6.45 2.7 4.55 6.6 2.75 10.15 -1.1 11.25 L-2.9 11.6 Q-2.95 14.05 -6.0 15.05 -10.25 16.45 -13.55 13.55 -18.4 9.95 -18.55 4.05 -18.65 -0.1 -14.65 -1.3 -13.05 -1.35 -11.75 -0.6 L-11.75 -1.2 Q-11.15 -4.5 -11.5 -7.85 L-11.9 -9.85 Q-12.15 -10.85 -11.8 -11.8 L-11.55 -12.05 -10.05 -12.8 Q-5.85 -13.0 -4.85 -9.8 -0.1 -14.3 6.6 -15.45 M-11.05 -10.8 Q-9.9 -7.15 -10.35 -3.3 L-10.55 -2.1 -7.75 -6.55 -5.55 -9.1 Q-6.75 -12.55 -10.65 -11.55 L-10.85 -11.45 -10.9 -11.4 -11.0 -11.1 -11.05 -10.8 M-11.9 -0.25 L-14.75 -0.1 -15.7 0.15 Q-18.3 1.95 -17.7 5.3 -16.95 9.6 -13.55 12.3 -9.6 16.1 -5.05 13.3 -4.1 12.75 -4.0 11.7 L-4.0 11.6 -4.95 11.45 -5.6 11.55 -5.7 11.65 -6.3 11.75 -7.2 11.35 -7.95 10.95 Q-12.6 8.25 -12.75 2.65 L-12.7 2.3 -12.85 2.1 -12.9 2.0 -12.9 1.7 -12.9 1.55 Q-12.6 1.15 -12.15 0.9 L-12.15 0.55 -11.9 -0.25" fill="#000000" fill-rule="evenodd" stroke="none"/>
    </g>
    <g id="shape11" transform="matrix(1.0, 0.0, 0.0, 1.0, 54.55, 50.55)">
      <path d="M33.9 31.85 Q25.9 36.65 16.7 38.0 L11.15 38.2 Q-2.7 37.95 -16.5 39.0 L-22.45 38.15 -24.95 37.45 Q-31.15 34.05 -36.1 28.9 L-39.6 25.0 Q-45.65 17.55 -46.25 7.7 -52.0 4.4 -53.9 -2.1 -55.85 -8.85 -51.95 -14.75 -48.55 -19.9 -42.3 -20.6 -32.5 -20.7 -28.65 -11.65 L-23.75 -11.3 Q-20.2 -10.7 -17.3 -8.7 -16.85 -20.6 -10.65 -30.55 -8.6 -33.9 -6.0 -36.85 5.65 -50.25 23.55 -50.55 L28.6 -50.15 Q38.95 -48.95 45.6 -41.05 L43.75 -41.15 43.7 -41.2 Q34.95 -49.55 22.8 -49.3 8.65 -48.15 -2.55 -39.6 L-1.1 -39.65 -0.05 -38.5 Q3.3 -34.2 0.9 -29.35 L0.1 -28.3 0.25 -29.3 0.0 -29.65 Q0.8 -34.4 -1.7 -38.3 L-2.75 -38.65 -2.95 -39.2 -2.8 -39.4 -3.0 -39.25 -5.35 -36.7 Q-8.0 -33.75 -9.7 -30.3 L-10.35 -29.0 -9.4 -30.15 -7.3 -31.6 Q-2.95 -29.9 -3.25 -24.6 -3.85 -14.5 -7.2 -5.05 -8.95 0.0 -8.25 5.5 -4.45 7.55 -0.35 7.85 2.8 8.05 5.55 7.05 17.1 3.1 29.15 5.25 31.75 6.0 33.9 7.7 L35.5 9.2 35.45 11.25 Q33.0 8.8 29.7 7.45 27.05 6.55 24.4 6.55 14.35 5.95 4.9 8.5 L0.35 9.4 Q-10.75 8.65 -15.5 -1.2 -16.65 -3.6 -16.95 -6.25 -20.85 -9.8 -26.15 -10.15 -37.35 -9.25 -42.4 0.95 -44.3 4.9 -44.1 9.35 -43.6 20.15 -35.05 27.1 -26.0 34.5 -14.35 34.0 L-10.85 33.2 Q-1.95 30.55 6.9 26.9 L0.15 26.0 0.0 25.6 Q10.7 23.2 18.95 30.45 L18.7 31.3 Q17.0 31.15 15.75 30.35 13.15 28.45 10.1 27.55 6.4 28.6 2.9 30.05 -2.9 32.5 -8.85 34.2 -20.8 37.4 -31.5 31.3 -25.35 38.25 -16.15 37.55 L18.85 35.3 Q27.3 34.85 34.15 29.7 L33.9 31.85 M51.75 -34.7 Q55.45 -31.3 57.2 -26.4 62.75 -11.05 55.15 3.1 L54.55 2.9 55.05 0.05 Q56.65 -2.9 57.3 -6.1 60.3 -20.75 52.05 -32.95 L50.95 -35.2 51.75 -34.7 M35.5 -33.4 Q33.7 -32.65 31.55 -32.7 L30.3 -32.75 Q32.85 -36.75 37.65 -38.6 44.1 -41.15 50.1 -38.05 53.5 -14.75 53.85 8.75 L54.4 39.95 Q54.55 47.35 54.3 54.7 54.15 59.35 50.3 61.9 45.05 65.45 40.35 61.05 35.35 56.45 34.95 49.65 34.4 39.5 35.9 29.5 37.05 21.7 37.1 13.9 37.25 -1.9 39.25 -17.75 40.4 -27.05 36.1 -35.35 L35.25 -35.7 35.85 -33.55 35.5 -33.4 M-49.25 -15.6 L-50.1 -12.2 -48.95 -11.95 Q-45.1 -17.3 -38.65 -16.2 -37.8 -16.1 -37.05 -15.6 -34.05 -13.45 -32.55 -10.35 L-31.35 -10.45 Q-30.5 -12.85 -32.25 -15.2 -35.55 -19.7 -41.3 -19.5 -46.0 -19.2 -49.25 -15.6 M-10.65 -26.4 L-10.8 -26.2 -10.5 -26.3 Q-6.6 -25.05 -5.2 -21.0 L-4.85 -19.9 Q-3.25 -25.1 -6.3 -29.7 L-7.9 -30.0 -10.65 -26.4 M-5.4 -16.95 L-5.95 -18.95 Q-7.0 -23.55 -11.6 -24.45 -15.25 -16.3 -16.1 -7.55 L-15.7 -7.1 -16.05 -6.55 -15.45 -4.8 -15.05 -7.65 -14.7 -8.05 -14.55 -8.9 -12.95 -9.5 -14.55 -11.0 Q-14.05 -15.55 -12.2 -20.0 L-11.2 -20.05 Q-10.85 -19.95 -10.6 -19.7 -9.0 -17.9 -9.35 -15.2 -9.1 -6.75 -13.2 0.7 -11.6 3.0 -9.4 4.75 -8.85 -6.4 -5.4 -16.95 M-36.75 11.15 Q-36.75 10.55 -36.35 10.15 -35.95 9.75 -35.35 9.75 -34.75 9.75 -34.35 10.15 -33.95 10.55 -33.95 11.15 -33.95 11.75 -34.35 12.15 -34.75 12.55 -35.35 12.55 -35.95 12.55 -36.35 12.15 -36.75 11.75 -36.75 11.15 M-36.35 1.45 L-35.75 2.35 -36.85 4.35 -38.35 4.1 -38.6 3.75 Q-38.95 2.2 -37.7 1.25 L-37.2 1.15 -36.35 1.45 M-33.05 2.4 Q-32.75 2.1 -32.3 2.1 -31.85 2.1 -31.55 2.4 -31.25 2.7 -31.25 3.15 -31.25 3.6 -31.55 3.9 -31.85 4.2 -32.3 4.2 -32.75 4.2 -33.05 3.9 L-33.35 3.15 -33.05 2.4 M-28.35 10.95 Q-28.7 11.3 -29.2 11.3 -29.7 11.3 -30.05 10.95 L-30.4 10.1 -30.05 9.25 Q-29.7 8.9 -29.2 8.9 -28.7 8.9 -28.35 9.25 -28.0 9.6 -28.0 10.1 -28.0 10.6 -28.35 10.95" fill="#000000" fill-rule="evenodd" stroke="none"/>
      <path d="M29.15 5.25 Q17.1 3.1 5.55 7.05 2.8 8.05 -0.35 7.85 -4.45 7.55 -8.25 5.5 -8.95 0.0 -7.2 -5.05 -3.85 -14.5 -3.25 -24.6 -2.95 -29.9 -7.3 -31.6 L-9.4 -30.15 -9.7 -30.3 Q-8.0 -33.75 -5.35 -36.7 L-3.0 -39.25 -2.95 -39.2 -2.75 -38.65 -1.7 -38.3 Q0.8 -34.4 0.0 -29.65 L0.25 -29.3 0.1 -28.3 0.9 -29.35 Q0.3 -24.7 1.4 -20.25 1.85 -18.45 3.7 -18.5 5.95 -20.25 7.15 -22.85 L9.65 -28.1 13.5 -35.7 Q16.4 -41.45 22.5 -42.65 30.0 -43.9 33.05 -37.6 29.9 -35.65 29.2 -32.1 L29.25 -31.8 35.45 -31.6 Q37.8 -15.2 31.4 0.1 L29.15 5.25" fill="#0ecfe4" fill-rule="evenodd" stroke="none"/>
      <path d="M33.9 31.85 L34.15 29.7 35.55 18.85 35.45 11.25 35.5 9.2 Q37.0 -6.45 37.65 -22.15 37.85 -27.1 36.4 -31.85 L35.45 -31.6 29.25 -31.8 29.2 -32.1 Q29.9 -35.65 33.05 -37.6 L33.45 -37.9 Q38.2 -40.7 43.65 -41.15 L43.75 -41.15 45.6 -41.05 50.05 -39.45 50.8 -39.7 51.75 -34.7 50.95 -35.2 52.05 -32.95 52.45 -29.9 Q54.25 -15.0 55.05 0.05 L54.55 2.9 55.15 3.1 Q55.55 25.55 56.35 47.9 56.6 54.2 54.5 59.85 L54.05 59.85 Q50.95 66.4 43.55 64.75 40.4 64.1 38.55 61.9 35.8 58.65 34.75 54.5 31.95 43.25 33.9 31.85 M35.5 -33.4 L35.85 -33.55 35.25 -35.7 36.1 -35.35 Q40.4 -27.05 39.25 -17.75 37.25 -1.9 37.1 13.9 37.05 21.7 35.9 29.5 34.4 39.5 34.95 49.65 35.35 56.45 40.35 61.05 45.05 65.45 50.3 61.9 54.15 59.35 54.3 54.7 54.55 47.35 54.4 39.95 L53.85 8.75 Q53.5 -14.75 50.1 -38.05 44.1 -41.15 37.65 -38.6 32.85 -36.75 30.3 -32.75 L31.55 -32.7 Q33.7 -32.65 35.5 -33.4 M-49.25 -15.6 Q-46.0 -19.2 -41.3 -19.5 -35.55 -19.7 -32.25 -15.2 -30.5 -12.85 -31.35 -10.45 L-32.55 -10.35 Q-34.05 -13.45 -37.05 -15.6 -37.8 -16.1 -38.65 -16.2 -45.1 -17.3 -48.95 -11.95 L-50.1 -12.2 -49.25 -15.6" fill="#999999" fill-rule="evenodd" stroke="none"/>
      <path d="M35.5 9.2 L33.9 7.7 Q31.75 6.0 29.15 5.25 L31.4 0.1 Q37.8 -15.2 35.45 -31.6 L36.4 -31.85 Q37.85 -27.1 37.65 -22.15 37.0 -6.45 35.5 9.2 M0.9 -29.35 Q3.3 -34.2 -0.05 -38.5 L-1.1 -39.65 -2.55 -39.6 Q8.65 -48.15 22.8 -49.3 34.95 -49.55 43.7 -41.2 L43.65 -41.15 Q38.2 -40.7 33.45 -37.9 L33.05 -37.6 Q30.0 -43.9 22.5 -42.65 16.4 -41.45 13.5 -35.7 L9.65 -28.1 7.15 -22.85 Q5.95 -20.25 3.7 -18.5 1.85 -18.45 1.4 -20.25 0.3 -24.7 0.9 -29.35 M55.05 0.05 Q54.25 -15.0 52.45 -29.9 L52.05 -32.95 Q60.3 -20.75 57.3 -6.1 56.65 -2.9 55.05 0.05 M-10.5 -26.3 L-10.65 -26.4 -7.9 -30.0 -6.3 -29.7 Q-3.25 -25.1 -4.85 -19.9 L-5.2 -21.0 Q-6.6 -25.05 -10.5 -26.3" fill="#0db5c8" fill-rule="evenodd" stroke="none"/>
      <path d="M34.15 29.7 Q27.3 34.85 18.85 35.3 L-16.15 37.55 Q-25.35 38.25 -31.5 31.3 -20.8 37.4 -8.85 34.2 -2.9 32.5 2.9 30.05 6.4 28.6 10.1 27.55 13.15 28.45 15.75 30.35 17.0 31.15 18.7 31.3 L18.95 30.45 Q10.7 23.2 0.0 25.6 L0.15 26.0 6.9 26.9 Q-1.95 30.55 -10.85 33.2 L-14.35 34.0 Q-26.0 34.5 -35.05 27.1 -43.6 20.15 -44.1 9.35 -44.3 4.9 -42.4 0.95 -37.35 -9.25 -26.15 -10.15 -26.8 -0.15 -20.4 7.45 -16.55 12.0 -10.65 13.1 L-3.7 13.85 14.8 12.75 Q26.6 11.45 35.55 18.85 L34.15 29.7 M-28.35 10.95 Q-28.0 10.6 -28.0 10.1 -28.0 9.6 -28.35 9.25 -28.7 8.9 -29.2 8.9 -29.7 8.9 -30.05 9.25 L-30.4 10.1 -30.05 10.95 Q-29.7 11.3 -29.2 11.3 -28.7 11.3 -28.35 10.95 M-33.05 2.4 L-33.35 3.15 -33.05 3.9 Q-32.75 4.2 -32.3 4.2 -31.85 4.2 -31.55 3.9 -31.25 3.6 -31.25 3.15 -31.25 2.7 -31.55 2.4 -31.85 2.1 -32.3 2.1 -32.75 2.1 -33.05 2.4 M-36.35 1.45 L-37.2 1.15 -37.7 1.25 Q-38.95 2.2 -38.6 3.75 L-38.35 4.1 -36.85 4.35 -35.75 2.35 -36.35 1.45 M-36.75 11.15 Q-36.75 11.75 -36.35 12.15 -35.95 12.55 -35.35 12.55 -34.75 12.55 -34.35 12.15 -33.95 11.75 -33.95 11.15 -33.95 10.55 -34.35 10.15 -34.75 9.75 -35.35 9.75 -35.95 9.75 -36.35 10.15 -36.75 10.55 -36.75 11.15" fill="#a88b69" fill-rule="evenodd" stroke="none"/>
      <path d="M-5.4 -16.95 Q-8.85 -6.4 -9.4 4.75 -11.6 3.0 -13.2 0.7 -9.1 -6.75 -9.35 -15.2 -9.0 -17.9 -10.6 -19.7 -10.85 -19.95 -11.2 -20.05 L-12.2 -20.0 Q-14.05 -15.55 -14.55 -11.0 L-12.95 -9.5 -14.55 -8.9 -14.7 -8.05 -15.05 -7.65 -15.45 -4.8 -16.05 -6.55 -15.7 -7.1 -16.1 -7.55 Q-15.25 -16.3 -11.6 -24.45 -7.0 -23.55 -5.95 -18.95 L-5.4 -16.95" fill="#ffffff" fill-rule="evenodd" stroke="none"/>
      <path d="M-26.15 -10.15 Q-20.85 -9.8 -16.95 -6.25 -16.65 -3.6 -15.5 -1.2 -10.75 8.65 0.35 9.4 L4.9 8.5 Q14.35 5.95 24.4 6.55 27.05 6.55 29.7 7.45 33.0 8.8 35.45 11.25 L35.55 18.85 Q26.6 11.45 14.8 12.75 L-3.7 13.85 -10.65 13.1 Q-16.55 12.0 -20.4 7.45 -26.8 -0.15 -26.15 -10.15" fill="#c19f79" fill-rule="evenodd" stroke="none"/>
    </g>
  </defs>
</svg>
