<?xml version="1.0" encoding="UTF-8" standalone="no"?>
<svg xmlns:xlink="http://www.w3.org/1999/xlink" height="5.0px" width="14.0px" xmlns="http://www.w3.org/2000/svg">
  <g transform="matrix(1.0, 0.0, 0.0, 1.0, -1.0, 0.0)">
    <use height="5.0" transform="matrix(1.0, 0.0, 0.0, -1.0, 1.0, 5.0)" width="14.0" xlink:href="#shape0"/>
    <use height="5.0" transform="matrix(1.0, 0.0, 0.0, -1.0, 1.0, 5.0)" width="14.0" xlink:href="#sprite0"/>
    <use height="5.0" transform="matrix(1.0, 0.0, 0.0, -1.0, 1.0, 5.0)" width="14.0" xlink:href="#shape2"/>
    <use height="4.0" transform="matrix(1.0, 0.0, 0.0, -1.0, 1.0, 4.0)" width="13.0" xlink:href="#shape3"/>
    <use height="3.0" transform="matrix(1.0, 0.0, 0.0, -1.0, 1.0, 3.0)" width="12.0" xlink:href="#shape4"/>
    <use height="3.0" transform="matrix(1.0, 0.0, 0.0, -1.0, 1.0, 3.0)" width="12.0" xlink:href="#sprite1"/>
    <use height="3.0" transform="matrix(1.0, 0.0, 0.0, -1.0, 1.0, 3.0)" width="12.0" xlink:href="#shape6"/>
  </g>
  <defs>
    <g id="shape0" transform="matrix(1.0, 0.0, 0.0, 1.0, 0.0, 0.0)">
      <path d="M13.25 0.75 Q13.95 1.45 14.0 2.5 L14.0 5.0 0.0 5.0 0.0 0.0 11.5 0.0 Q12.55 0.05 13.25 0.75" fill="#cccccc" fill-rule="evenodd" stroke="none"/>
    </g>
    <g id="sprite0" transform="matrix(1.0, 0.0, 0.0, 1.0, 0.0, 0.0)">
      <use height="5.0" transform="matrix(1.0, 0.0, 0.0, 1.0, 0.0, 0.0)" width="14.0" xlink:href="#shape1"/>
    </g>
    <g id="shape1" transform="matrix(1.0, 0.0, 0.0, 1.0, 0.0, 0.0)">
      <path d="M0.0 5.0 L0.0 0.0 11.5 0.0 Q12.55 0.05 13.25 0.75 13.95 1.45 14.0 2.5 L14.0 5.0 0.0 5.0" fill="#00ff00" fill-opacity="0.7490196" fill-rule="evenodd" stroke="none"/>
    </g>
    <g id="shape2" transform="matrix(1.0, 0.0, 0.0, 1.0, 0.0, 0.0)">
      <path d="M14.0 5.0 L0.0 5.0 0.0 0.0 11.5 0.0 Q12.55 0.05 13.25 0.75 13.95 1.45 14.0 2.5 L14.0 5.0" fill="url(#gradient0)" fill-rule="evenodd" stroke="none"/>
    </g>
    <linearGradient gradientTransform="matrix(0.0068, 0.0, 0.0, 0.0031, 7.05, 2.5)" gradientUnits="userSpaceOnUse" id="gradient0" spreadMethod="pad" x1="-819.2" x2="819.2">
      <stop offset="0.0" stop-color="#ffffff" stop-opacity="0.2509804"/>
      <stop offset="1.0" stop-color="#2d2d2d" stop-opacity="0.3137255"/>
    </linearGradient>
    <g id="shape3" transform="matrix(1.0, 0.0, 0.0, 1.0, 0.0, 0.0)">
      <path d="M13.0 1.5 L13.0 4.0 0.0 4.0 0.0 0.0 11.5 0.0 Q12.1 0.0 12.55 0.45 12.95 0.85 13.0 1.5" fill="#ffffff" fill-opacity="0.8980392" fill-rule="evenodd" stroke="none"/>
    </g>
    <g id="shape4" transform="matrix(1.0, 0.0, 0.0, 1.0, 0.0, 0.0)">
      <path d="M0.0 0.0 L11.5 0.0 Q11.95 0.05 12.0 0.5 L12.0 1.25 12.0 2.4 12.0 3.0 0.0 3.0 0.0 0.0" fill="#f7f7f7" fill-rule="evenodd" stroke="none"/>
    </g>
    <g id="sprite1" transform="matrix(1.0, 0.0, 0.0, 1.0, 0.0, 0.0)">
      <use height="3.0" transform="matrix(1.0, 0.0, 0.0, 1.0, 0.0, 0.0)" width="12.0" xlink:href="#shape5"/>
    </g>
    <g id="shape5" transform="matrix(1.0, 0.0, 0.0, 1.0, 0.0, 0.0)">
      <path d="M12.0 3.0 L0.0 3.0 0.0 0.0 11.5 0.0 Q11.95 0.05 12.0 0.5 L12.0 1.25 12.0 2.4 12.0 3.0" fill="#00ff00" fill-opacity="0.19607843" fill-rule="evenodd" stroke="none"/>
    </g>
    <g id="shape6" transform="matrix(1.0, 0.0, 0.0, 1.0, 0.0, 0.0)">
      <path d="M0.0 0.0 L11.5 0.0 Q11.95 0.05 12.0 0.5 L12.0 1.25 12.0 2.4 12.0 3.0 0.0 3.0 0.0 0.0" fill="url(#gradient1)" fill-rule="evenodd" stroke="none"/>
    </g>
    <linearGradient gradientTransform="matrix(-0.0068, 0.0, 0.0, -0.0018, 6.3, 1.5)" gradientUnits="userSpaceOnUse" id="gradient1" spreadMethod="pad" x1="-819.2" x2="819.2">
      <stop offset="0.16470588235294117" stop-color="#ffffff" stop-opacity="0.49803922"/>
      <stop offset="0.6705882352941176" stop-color="#ffffff" stop-opacity="0.0"/>
      <stop offset="1.0" stop-color="#2d2d2d" stop-opacity="0.09803922"/>
    </linearGradient>
  </defs>
</svg>
