<?xml version="1.0" encoding="UTF-8" standalone="no"?>
<svg xmlns:xlink="http://www.w3.org/1999/xlink" height="51.25px" width="255.8px" xmlns="http://www.w3.org/2000/svg">
  <g transform="matrix(1.0, 0.0, 0.0, 1.0, 121.5, 24.15)">
    <use height="51.25" transform="matrix(1.0, 0.0, 0.0, 1.0, -121.5, -24.15)" width="243.0" xlink:href="#shape0"/>
    <use height="46.25" transform="matrix(1.0, 0.0, 0.0, 1.0, -118.6, -20.8)" width="252.9" xlink:href="#text0"/>
  </g>
  <defs>
    <g id="shape0" transform="matrix(1.0, 0.0, 0.0, 1.0, 121.5, 24.15)">
      <path d="M16.05 -23.75 L22.2 -23.55 Q24.75 -23.55 26.9 -21.35 L28.8 -23.8 Q36.8 -23.55 41.05 -23.6 45.25 -23.7 46.7 -21.3 46.7 -21.95 51.25 -22.25 55.8 -22.55 56.95 -20.85 57.6 -22.35 62.05 -22.8 64.85 -23.15 67.9 -22.9 L68.9 -21.85 76.65 -21.55 Q85.85 -23.8 93.35 -21.75 L94.35 -21.95 Q105.15 -23.0 106.4 -19.65 109.35 -22.5 113.1 -22.3 L119.05 -21.9 120.9 -21.15 Q121.55 -21.2 121.5 -18.55 121.4 -15.95 119.3 -8.45 117.2 -0.95 117.25 -0.4 L117.1 -0.35 113.95 -0.3 108.5 -0.55 Q106.9 -0.15 101.5 -0.65 L98.65 -0.85 97.55 -1.5 97.85 -1.65 97.45 -1.55 97.2 -1.65 97.25 -1.5 Q85.95 1.25 78.0 -0.85 75.45 0.85 68.0 -0.35 L67.4 -2.35 66.65 -6.95 Q66.0 -4.6 65.35 -3.15 64.7 -1.75 63.25 -1.35 L58.15 -0.4 53.45 -0.15 51.55 -0.85 Q50.8 -1.15 48.25 -6.2 48.7 -4.8 48.25 -2.65 47.8 -0.5 45.8 -0.3 43.75 -0.15 40.0 -0.3 L32.15 -0.4 Q28.05 -0.3 28.05 -2.0 27.3 -0.3 26.85 -0.15 23.55 1.25 20.1 0.3 18.25 1.05 16.25 1.2 L13.3 1.1 10.8 0.7 Q9.15 0.3 8.25 -1.0 6.8 -3.1 7.3 -5.6 6.0 -4.75 4.5 -4.65 3.15 -4.5 1.8 -4.65 L2.4 -1.3 Q-3.7 1.05 -9.8 -0.4 L-9.7 -0.65 -10.25 -2.5 -10.7 -4.1 -11.0 -6.3 -11.4 -10.55 Q-11.85 -16.25 -11.05 -21.55 L-7.95 -22.55 Q-4.1 -23.8 0.0 -23.8 L2.95 -23.85 5.0 -23.8 6.6 -23.55 9.0 -22.3 Q9.6 -22.8 11.1 -23.35 L16.05 -23.75 M77.9 15.35 L76.95 26.15 65.6 26.0 65.45 26.6 54.25 25.6 53.7 26.15 37.15 26.4 36.15 25.75 Q35.15 24.6 33.85 21.2 L29.75 21.4 29.35 24.7 Q29.05 25.9 27.6 26.5 26.1 27.1 23.9 27.1 L20.75 27.1 Q17.7 27.05 16.5 24.35 L15.3 25.05 Q13.65 26.05 11.7 26.5 L7.45 26.95 Q3.45 26.95 -0.1 25.3 -1.6 24.55 -2.85 23.5 L-3.85 22.5 -3.95 22.4 -4.05 22.3 Q-6.1 19.95 -6.6 16.95 -7.35 12.3 -4.8 8.45 -3.3 6.2 -1.0 4.7 1.05 3.35 3.4 2.8 L5.15 2.5 Q11.15 1.65 16.2 4.95 L17.1 3.4 22.95 2.15 Q28.25 1.1 35.6 4.9 36.4 2.95 37.65 3.05 L44.7 3.0 Q50.6 2.8 54.05 3.9 L54.85 3.2 55.9 3.2 Q59.15 3.05 65.95 3.45 L76.85 4.0 Q77.25 4.05 78.3 4.85 78.55 6.55 77.9 15.35 M-115.65 -22.55 Q-112.85 -23.85 -111.2 -23.95 L-107.95 -24.15 -104.5 -23.6 -101.15 -22.2 Q-99.9 -22.95 -98.4 -23.0 L-91.25 -22.75 -88.7 -22.35 Q-88.1 -23.1 -87.15 -23.2 L-81.65 -23.25 -78.55 -23.05 Q-74.85 -23.35 -70.05 -23.15 L-61.7 -22.85 Q-58.1 -22.75 -57.8 -20.95 -57.45 -18.85 -57.7 -16.65 L-55.15 -20.85 Q-54.0 -22.5 -52.15 -22.6 L-47.35 -22.9 Q-44.45 -23.2 -42.5 -22.35 -40.55 -21.55 -39.0 -18.15 -39.85 -22.0 -35.95 -22.1 L-26.45 -21.35 Q-25.05 -23.1 -23.4 -23.05 L-18.15 -22.55 Q-14.5 -22.15 -13.5 -20.8 -12.5 -19.45 -13.6 -17.7 -15.35 -14.95 -17.25 -12.3 L-15.05 -9.8 Q-13.4 -7.75 -13.95 -5.25 -14.45 -3.15 -16.5 -2.15 -19.75 -0.55 -23.2 0.4 L-25.2 0.95 -26.9 -0.1 -34.05 1.05 Q-35.5 1.2 -36.75 0.5 L-37.8 -0.35 -38.6 -0.1 Q-42.55 1.35 -46.35 0.3 L-48.2 -0.2 Q-48.6 0.65 -49.5 1.0 L-50.9 1.25 -55.0 0.65 -59.05 0.1 -60.65 0.45 Q-67.7 0.35 -74.75 0.65 L-77.9 0.45 -78.0 -0.85 Q-79.75 0.15 -83.6 0.85 -87.5 1.5 -88.35 0.5 -89.2 -0.55 -92.65 -0.1 -96.1 0.3 -98.35 -0.05 -100.6 -0.45 -100.15 -1.8 -103.55 0.35 -104.4 0.5 L-110.4 0.4 Q-115.5 0.15 -117.0 -0.7 -118.6 -1.6 -120.05 -3.5 -121.55 -5.4 -121.5 -7.5 -121.5 -9.65 -118.25 -10.3 -121.3 -12.15 -120.7 -15.9 -120.15 -19.65 -119.3 -20.45 -118.5 -21.25 -115.65 -22.55 M-7.45 6.2 Q-7.9 7.85 -8.35 12.45 -8.8 17.05 -10.4 21.15 -12.0 25.25 -13.2 25.8 -14.4 26.35 -16.3 26.35 L-21.8 25.55 Q-22.4 26.25 -25.7 26.1 L-29.9 25.6 -30.85 25.25 -33.05 23.25 -33.8 23.9 Q-36.1 25.8 -38.95 26.55 L-45.7 27.0 Q-47.5 26.75 -49.15 26.1 L-53.55 24.4 -53.8 24.6 Q-55.8 25.95 -56.6 26.1 L-61.65 26.35 Q-65.85 26.35 -65.95 25.65 -66.0 24.9 -67.7 25.65 -69.5 26.4 -72.9 26.35 L-77.75 25.9 Q-79.25 25.45 -79.4 23.55 -79.55 21.6 -79.3 16.8 L-78.9 8.55 -78.6 4.6 -68.3 4.4 -65.85 7.8 -65.4 4.7 -65.3 4.5 Q-63.6 3.75 -52.9 4.7 L-52.9 5.7 Q-48.55 3.15 -41.55 3.95 -35.75 4.65 -35.85 5.15 -32.45 3.1 -24.2 3.9 -22.0 4.95 -21.7 5.7 L-20.7 4.45 -20.65 4.4 Q-13.9 2.8 -7.15 4.4 -7.05 4.55 -7.45 6.2" fill="#990000" fill-rule="evenodd" stroke="none"/>
    </g>
    <g id="text0" transform="matrix(1.0, 0.0, 0.0, 1.0, 63.5, -8.05)">
      <g transform="matrix(1.0, 0.0, 0.0, 1.0, -63.75, 0.0)">
        <use fill="#ffff00" height="46.25" transform="matrix(0.5078, 0.0, 0.0, 0.5078, 0.05, 26.3)" width="252.9" xlink:href="#font_Coop_Black_s0"/>
        <use fill="#ffff00" height="46.25" transform="matrix(0.5078, 0.0, 0.0, 0.5078, 19.4, 26.3)" width="252.9" xlink:href="#font_Coop_Black_n0"/>
        <use fill="#ffff00" height="46.25" transform="matrix(0.5078, 0.0, 0.0, 0.5078, 41.3, 26.3)" width="252.9" xlink:href="#font_Coop_Black_e0"/>
        <use fill="#ffff00" height="46.25" transform="matrix(0.5078, 0.0, 0.0, 0.5078, 58.5, 26.3)" width="252.9" xlink:href="#font_Coop_Black_a0"/>
        <use fill="#ffff00" height="46.25" transform="matrix(0.5078, 0.0, 0.0, 0.5078, 82.1, 26.3)" width="252.9" xlink:href="#font_Coop_Black_k0"/>
        <use fill="#ffff00" height="46.25" transform="matrix(0.5078, 0.0, 0.0, 0.5078, 109.6, 26.3)" width="252.9" xlink:href="#font_Coop_Black_p0"/>
        <use fill="#ffff00" height="46.25" transform="matrix(0.5078, 0.0, 0.0, 0.5078, 128.45, 26.3)" width="252.9" xlink:href="#font_Coop_Black_r0"/>
        <use fill="#ffff00" height="46.25" transform="matrix(0.5078, 0.0, 0.0, 0.5078, 147.2, 26.3)" width="252.9" xlink:href="#font_Coop_Black_e0"/>
        <use fill="#ffff00" height="46.25" transform="matrix(0.5078, 0.0, 0.0, 0.5078, 163.95, 26.3)" width="252.9" xlink:href="#font_Coop_Black_v0"/>
        <use fill="#ffff00" height="46.25" transform="matrix(0.5078, 0.0, 0.0, 0.5078, 187.1, 26.3)" width="252.9" xlink:href="#font_Coop_Black_i0"/>
        <use fill="#ffff00" height="46.25" transform="matrix(0.5078, 0.0, 0.0, 0.5078, 196.3, 26.3)" width="252.9" xlink:href="#font_Coop_Black_e0"/>
        <use fill="#ffff00" height="46.25" transform="matrix(0.5078, 0.0, 0.0, 0.5078, 213.05, 26.3)" width="252.9" xlink:href="#font_Coop_Black_w0"/>
      </g>
      <g transform="matrix(1.0, 0.0, 0.0, 1.0, -63.75, 0.0)">
        <use fill="#ffff00" height="46.25" transform="matrix(0.5078, 0.0, 0.0, 0.5078, 42.1, 53.35)" width="252.9" xlink:href="#font_Coop_Black_n0"/>
        <use fill="#ffff00" height="46.25" transform="matrix(0.5078, 0.0, 0.0, 0.5078, 63.2, 53.35)" width="252.9" xlink:href="#font_Coop_Black_o0"/>
        <use fill="#ffff00" height="46.25" transform="matrix(0.5078, 0.0, 0.0, 0.5078, 83.95, 53.35)" width="252.9" xlink:href="#font_Coop_Black_w0"/>
        <use fill="#ffff00" height="46.25" transform="matrix(0.5078, 0.0, 0.0, 0.5078, 114.95, 53.35)" width="252.9" xlink:href="#font_Coop_Black_o0"/>
        <use fill="#ffff00" height="46.25" transform="matrix(0.5078, 0.0, 0.0, 0.5078, 136.75, 53.35)" width="252.9" xlink:href="#font_Coop_Black_p0"/>
        <use fill="#ffff00" height="46.25" transform="matrix(0.5078, 0.0, 0.0, 0.5078, 155.7, 53.35)" width="252.9" xlink:href="#font_Coop_Black_e0"/>
        <use fill="#ffff00" height="46.25" transform="matrix(0.5078, 0.0, 0.0, 0.5078, 173.0, 53.35)" width="252.9" xlink:href="#font_Coop_Black_n0"/>
      </g>
    </g>
    <g id="font_Coop_Black_s0">
      <path d="M35.9 -27.85 Q37.15 -25.75 37.8 -23.6 33.65 -22.45 29.45 -21.8 L23.2 -21.0 Q22.7 -22.05 21.55 -22.6 20.4 -23.15 19.1 -23.15 L17.3 -22.8 Q16.5 -22.45 16.3 -21.9 16.3 -19.4 22.85 -19.2 L27.6 -18.65 Q30.15 -18.2 32.45 -17.15 34.7 -16.1 36.2 -14.2 37.7 -12.3 37.7 -9.45 37.6 -6.65 36.05 -4.5 34.45 -2.3 31.9 -0.95 29.35 0.35 26.1 1.0 L19.05 1.65 Q12.2 1.6 7.6 -0.75 3.0 -3.1 0.4 -8.35 L8.95 -10.8 14.55 -12.0 Q15.35 -10.6 16.75 -10.0 18.15 -9.4 19.7 -9.4 L21.85 -9.7 Q22.8 -10.0 22.95 -10.45 22.95 -12.35 16.2 -12.9 2.55 -14.2 1.75 -22.5 1.75 -25.15 2.85 -27.5 3.9 -29.8 6.05 -31.5 8.15 -33.2 11.45 -34.2 14.75 -35.2 19.0 -35.2 23.7 -35.2 27.05 -34.2 30.45 -33.2 32.55 -31.55 34.6 -29.95 35.9 -27.85" fill-rule="evenodd" stroke="none"/>
    </g>
    <g id="font_Coop_Black_n0">
      <path d="M36.05 -33.7 L42.25 -32.85 Q41.45 -15.1 40.25 -0.4 L33.3 0.75 27.05 1.55 23.75 1.85 20.45 -4.35 17.9 -9.0 16.1 -12.15 16.05 -8.05 16.05 -4.95 15.95 -1.75 15.9 1.45 7.5 0.8 1.1 0.1 Q1.15 -15.3 1.65 -34.35 L10.8 -34.0 16.9 -33.5 19.55 -28.1 22.55 -22.4 25.05 -17.8 25.75 -16.45 25.95 -21.7 26.1 -27.4 26.3 -32.5 26.35 -34.5 36.05 -33.7" fill-rule="evenodd" stroke="none"/>
    </g>
    <g id="font_Coop_Black_e0">
      <path d="M32.35 -29.35 L31.85 -21.8 28.0 -22.05 22.0 -22.5 15.35 -23.1 15.4 -20.2 23.45 -19.7 23.9 -14.0 15.65 -12.45 15.8 -10.15 18.95 -10.4 25.5 -11.0 32.2 -11.75 33.0 -6.55 33.85 0.4 Q16.25 1.0 1.65 1.0 1.15 -16.0 1.0 -33.85 L32.5 -35.0 32.35 -29.35" fill-rule="evenodd" stroke="none"/>
    </g>
    <g id="font_Coop_Black_a0">
      <path d="M33.0 -33.75 L36.55 -26.1 39.95 -18.65 43.55 -10.4 46.75 -2.3 Q44.9 -1.6 42.25 -0.85 L37.0 0.5 29.8 2.15 27.45 -6.05 22.95 -5.3 19.35 -4.65 18.1 -0.1 17.3 3.0 Q12.05 2.0 7.35 0.55 L0.55 -1.65 4.75 -10.8 10.15 -22.15 15.65 -33.3 25.5 -33.65 33.0 -33.75 M25.4 -13.2 L23.45 -20.1 22.35 -16.05 21.45 -12.7 24.05 -13.0 25.4 -13.2" fill-rule="evenodd" stroke="none"/>
    </g>
    <g id="font_Coop_Black_k0">
      <path d="M39.6 -32.9 L37.15 -29.3 32.95 -23.4 28.45 -17.4 Q31.8 -14.95 34.4 -11.7 37.0 -8.4 38.85 -4.2 34.65 -1.85 30.65 -0.25 L24.8 1.9 23.3 -1.0 21.5 -4.1 19.25 -7.1 16.7 -9.65 16.7 0.25 12.2 0.55 6.9 0.85 4.15 1.05 2.0 1.2 1.6 -10.0 1.2 -23.15 1.05 -34.25 7.95 -33.95 13.9 -33.7 17.0 -33.55 16.85 -23.0 20.9 -28.9 22.95 -32.05 24.35 -34.15 27.4 -34.0 33.0 -33.65 39.6 -32.9" fill-rule="evenodd" stroke="none"/>
    </g>
    <g id="font_Coop_Black_p0">
      <path d="M33.2 -31.1 Q35.9 -28.45 36.35 -24.15 L36.4 -23.15 Q36.4 -21.0 35.5 -18.6 34.6 -16.25 32.4 -14.0 30.25 -11.75 26.6 -10.2 23.0 -8.6 17.65 -8.15 L17.95 -3.7 18.25 -0.25 9.1 0.95 3.45 1.6 2.8 -7.4 2.2 -16.95 1.65 -24.75 0.9 -33.3 5.5 -34.55 11.3 -35.55 17.4 -35.95 Q22.3 -35.95 26.4 -34.85 30.5 -33.75 33.2 -31.1 M16.6 -18.2 Q19.4 -18.3 21.05 -19.25 22.7 -20.2 22.7 -21.4 22.7 -22.4 21.6 -23.05 20.45 -23.7 18.45 -23.7 L16.25 -23.5 16.6 -18.2" fill-rule="evenodd" stroke="none"/>
    </g>
    <g id="font_Coop_Black_r0">
      <path d="M31.85 -31.05 Q34.35 -28.45 34.75 -24.15 34.75 -22.15 34.2 -20.2 33.6 -18.25 32.35 -16.35 31.05 -14.5 29.1 -13.0 L33.0 -8.5 35.75 -5.2 37.1 -3.5 28.25 -0.25 22.85 1.9 Q19.6 -1.95 15.35 -8.1 L15.55 -4.55 15.75 -1.45 15.9 0.55 15.95 1.65 10.4 1.45 5.7 1.25 2.85 1.15 1.35 1.1 1.2 -6.4 1.1 -15.15 1.05 -25.45 1.05 -33.3 8.45 -35.05 17.0 -35.8 Q21.7 -35.8 25.5 -34.7 29.3 -33.65 31.85 -31.05 M14.8 -18.2 L18.15 -18.75 Q19.6 -19.25 20.3 -19.95 21.0 -20.7 21.0 -21.4 21.0 -22.35 19.9 -23.0 18.75 -23.65 16.8 -23.65 L14.55 -23.45 14.8 -18.2" fill-rule="evenodd" stroke="none"/>
    </g>
    <g id="font_Coop_Black_v0">
      <path d="M38.5 -33.95 L45.3 -34.3 41.8 -25.35 38.1 -16.25 35.25 -9.5 31.75 -1.75 25.65 -0.65 20.2 0.0 17.15 0.3 12.75 -7.7 9.4 -13.85 5.55 -21.2 0.3 -31.2 8.95 -33.2 15.65 -34.45 17.75 -30.4 19.45 -27.0 21.2 -23.35 23.2 -19.2 24.85 -23.6 26.75 -28.8 28.6 -33.4 30.95 -33.55 34.3 -33.7 38.5 -33.95" fill-rule="evenodd" stroke="none"/>
    </g>
    <g id="font_Coop_Black_i0">
      <path d="M17.1 -33.1 L17.05 -15.4 16.75 0.15 10.6 1.0 4.85 1.55 1.05 1.85 1.0 -4.95 0.95 -11.9 1.2 -33.95 2.75 -33.95 11.2 -33.6 17.1 -33.1" fill-rule="evenodd" stroke="none"/>
    </g>
    <g id="font_Coop_Black_w0">
      <path d="M38.8 -33.55 L46.55 -33.45 43.6 -19.95 41.45 -10.8 39.05 -1.1 34.6 -0.55 29.8 -0.05 27.3 0.1 25.25 -5.6 23.55 -10.15 22.35 -6.7 20.2 -0.25 13.7 -0.45 8.5 -0.8 6.3 -8.8 3.05 -21.6 0.5 -32.3 6.9 -33.7 12.05 -34.6 15.3 -35.1 16.35 -30.3 18.65 -19.7 20.25 -22.7 22.85 -27.05 23.9 -25.7 25.65 -23.15 27.65 -20.05 29.55 -28.25 30.85 -33.45 33.8 -33.5 38.8 -33.55" fill-rule="evenodd" stroke="none"/>
    </g>
    <g id="font_Coop_Black_o0">
      <path d="M30.55 -32.9 Q34.3 -31.55 37.0 -29.15 39.7 -26.8 41.3 -23.55 42.9 -20.35 43.05 -16.7 43.05 -11.7 40.55 -7.55 38.05 -3.4 33.2 -1.0 28.35 1.45 21.7 1.45 15.95 1.45 11.2 -0.65 6.45 -2.75 3.7 -6.8 0.9 -10.85 0.9 -16.4 0.95 -20.65 2.75 -24.0 4.55 -27.35 7.65 -29.6 10.7 -31.9 14.5 -33.05 18.3 -34.25 22.4 -34.25 26.85 -34.25 30.55 -32.9 M18.95 -12.35 Q20.5 -11.15 22.75 -11.15 24.95 -11.15 26.5 -12.35 28.1 -13.6 28.1 -15.35 28.1 -17.1 26.5 -18.35 24.95 -19.55 22.75 -19.55 20.5 -19.55 18.95 -18.35 17.35 -17.1 17.35 -15.35 17.35 -13.6 18.95 -12.35" fill-rule="evenodd" stroke="none"/>
    </g>
  </defs>
</svg>
