<?xml version="1.0" encoding="UTF-8" standalone="no"?>
<svg xmlns:xlink="http://www.w3.org/1999/xlink" height="50.45px" width="153.6px" xmlns="http://www.w3.org/2000/svg">
  <g transform="matrix(1.0, 0.0, 0.0, 1.0, 75.45, -2.75)">
    <use height="6.8" transform="matrix(0.1869, 0.0, 0.0, 1.3732, -75.45, 3.6652)" width="12.95" xlink:href="#shape0"/>
    <use height="23.7" transform="matrix(0.2734, 0.0, 0.0, 0.2734, -70.9844, 6.5195)" width="24.5" xlink:href="#shape1"/>
    <use height="34.15" transform="matrix(0.2734, 0.0, 0.0, 0.2734, -59.3543, 3.6621)" width="23.45" xlink:href="#shape2"/>
    <use height="24.95" transform="matrix(0.2734, 0.0, 0.0, 0.2734, -52.0305, 6.4238)" width="27.9" xlink:href="#shape3"/>
    <use height="24.95" transform="matrix(0.2734, 0.0, 0.0, 0.2734, -43.0805, 6.4238)" width="27.9" xlink:href="#shape3"/>
    <use height="23.7" transform="matrix(0.2734, 0.0, 0.0, 0.2734, -33.8844, 6.5195)" width="24.5" xlink:href="#shape1"/>
    <use height="30.15" transform="matrix(0.2734, 0.0, 0.0, 0.2734, -25.8492, 4.7559)" width="15.55" xlink:href="#shape4"/>
    <use height="24.95" transform="matrix(0.2734, 0.0, 0.0, 0.2734, -20.7305, 6.4238)" width="27.9" xlink:href="#shape3"/>
    <use height="23.2" transform="matrix(0.2734, 0.0, 0.0, 0.2734, -12.3, 6.6563)" width="46.45" xlink:href="#shape5"/>
    <use height="23.7" transform="matrix(0.2734, 0.0, 0.0, 0.2734, 1.4656, 6.5195)" width="24.5" xlink:href="#shape1"/>
    <use height="15.0" transform="matrix(0.2734, 0.0, 0.0, 0.2734, 9.077, 10.6348)" width="13.55" xlink:href="#shape6"/>
    <use height="30.15" transform="matrix(0.2734, 0.0, 0.0, 0.2734, 17.8508, 4.7559)" width="15.55" xlink:href="#shape4"/>
    <use height="37.55" transform="matrix(0.2734, 0.0, 0.0, 0.2734, 23.2156, 2.7324)" width="24.5" xlink:href="#shape7"/>
    <use height="24.8" transform="matrix(0.2734, 0.0, 0.0, 0.2734, 31.4559, 6.4785)" width="25.55" xlink:href="#shape8"/>
    <use height="23.6" transform="matrix(0.2734, 0.0, 0.0, 0.2734, 43.8156, 6.5469)" width="39.25" xlink:href="#shape9"/>
    <use height="24.95" transform="matrix(0.2734, 0.0, 0.0, 0.2734, 56.1695, 6.4238)" width="27.9" xlink:href="#shape3"/>
    <use height="23.5" transform="matrix(0.2734, 0.0, 0.0, 0.2734, 65.3656, 6.5742)" width="17.4" xlink:href="#shape10"/>
    <use height="24.8" transform="matrix(0.2734, 0.0, 0.0, 0.2734, 71.1559, 6.4785)" width="25.55" xlink:href="#shape8"/>
    <use height="35.6" transform="matrix(0.2734, 0.0, 0.0, 0.2734, -59.6844, 18.4512)" width="27.1" xlink:href="#shape11"/>
    <use height="24.95" transform="matrix(0.2734, 0.0, 0.0, 0.2734, -50.9305, 18.4238)" width="27.9" xlink:href="#shape3"/>
    <use height="23.2" transform="matrix(0.2734, 0.0, 0.0, 0.2734, -42.5, 18.6563)" width="46.45" xlink:href="#shape5"/>
    <use height="24.8" transform="matrix(0.2734, 0.0, 0.0, 0.2734, -28.9941, 18.4785)" width="25.55" xlink:href="#shape8"/>
    <use height="23.5" transform="matrix(0.2734, 0.0, 0.0, 0.2734, -20.4344, 18.5742)" width="17.4" xlink:href="#shape10"/>
    <use height="38.05" transform="matrix(0.2734, 0.0, 0.0, 0.2734, -14.9996, 14.5957)" width="16.9" xlink:href="#shape12"/>
    <use height="24.2" transform="matrix(0.2734, 0.0, 0.0, 0.2734, -9.2344, 18.6563)" width="24.75" xlink:href="#shape13"/>
    <use height="6.8" transform="matrix(0.1731, 0.0, 0.0, 1.5079, -0.65, 14.777)" width="12.95" xlink:href="#shape0"/>
    <use height="30.15" transform="matrix(0.2734, 0.0, 0.0, 0.2734, 6.7508, 16.7559)" width="15.55" xlink:href="#shape4"/>
    <use height="37.55" transform="matrix(0.2734, 0.0, 0.0, 0.2734, 12.1156, 14.7324)" width="24.5" xlink:href="#shape7"/>
    <use height="24.8" transform="matrix(0.2734, 0.0, 0.0, 0.2734, 20.3559, 18.4785)" width="25.55" xlink:href="#shape8"/>
    <use height="35.6" transform="matrix(0.2734, 0.0, 0.0, 0.2734, 32.4695, 18.4785)" width="26.9" xlink:href="#shape14"/>
    <use height="24.75" transform="matrix(0.2734, 0.0, 0.0, 0.2734, 41.4195, 18.4512)" width="27.1" xlink:href="#shape15"/>
    <use height="35.6" transform="matrix(0.2734, 0.0, 0.0, 0.2734, 50.4195, 18.4785)" width="26.9" xlink:href="#shape14"/>
    <use height="15.0" transform="matrix(0.2734, 0.0, 0.0, 0.2734, 58.727, 22.6348)" width="13.55" xlink:href="#shape6"/>
    <use height="30.15" transform="matrix(0.2734, 0.0, 0.0, 0.2734, -59.1492, 29.7559)" width="15.55" xlink:href="#shape4"/>
    <use height="37.55" transform="matrix(0.2734, 0.0, 0.0, 0.2734, -53.7844, 27.7324)" width="24.5" xlink:href="#shape7"/>
    <use height="24.8" transform="matrix(0.2734, 0.0, 0.0, 0.2734, -45.5441, 31.4785)" width="25.55" xlink:href="#shape8"/>
    <use height="23.6" transform="matrix(0.2734, 0.0, 0.0, 0.2734, -33.1844, 31.5469)" width="39.25" xlink:href="#shape9"/>
    <use height="24.95" transform="matrix(0.2734, 0.0, 0.0, 0.2734, -20.8305, 31.4238)" width="27.9" xlink:href="#shape3"/>
    <use height="23.5" transform="matrix(0.2734, 0.0, 0.0, 0.2734, -11.6344, 31.5742)" width="17.4" xlink:href="#shape10"/>
    <use height="24.8" transform="matrix(0.2734, 0.0, 0.0, 0.2734, -5.8441, 31.4785)" width="25.55" xlink:href="#shape8"/>
    <use height="38.35" transform="matrix(0.2734, 0.0, 0.0, 0.2734, 6.2695, 27.7324)" width="27.1" xlink:href="#shape16"/>
    <use height="24.75" transform="matrix(0.2734, 0.0, 0.0, 0.2734, 15.2695, 31.4512)" width="27.1" xlink:href="#shape15"/>
    <use height="23.6" transform="matrix(0.2734, 0.0, 0.0, 0.2734, 24.5156, 31.5469)" width="39.25" xlink:href="#shape9"/>
    <use height="24.75" transform="matrix(0.2734, 0.0, 0.0, 0.2734, 36.8695, 31.4512)" width="27.1" xlink:href="#shape15"/>
    <use height="35.6" transform="matrix(0.2734, 0.0, 0.0, 0.2734, 45.8695, 31.4785)" width="26.9" xlink:href="#shape14"/>
    <use height="24.8" transform="matrix(0.2734, 0.0, 0.0, 0.2734, 54.8059, 31.4785)" width="25.55" xlink:href="#shape8"/>
    <use height="30.15" transform="matrix(0.2734, 0.0, 0.0, 0.2734, -29.1492, 41.7559)" width="15.55" xlink:href="#shape4"/>
    <use height="24.95" transform="matrix(0.2734, 0.0, 0.0, 0.2734, -24.0305, 43.4238)" width="27.9" xlink:href="#shape3"/>
    <use height="24.75" transform="matrix(0.2734, 0.0, 0.0, 0.2734, -11.2805, 43.4512)" width="27.1" xlink:href="#shape15"/>
    <use height="35.8" transform="matrix(0.2734, 0.0, 0.0, 0.2734, 1.5605, 40.4707)" width="26.15" xlink:href="#shape17"/>
    <use height="24.95" transform="matrix(0.2734, 0.0, 0.0, 0.2734, 10.0695, 43.4238)" width="27.9" xlink:href="#shape3"/>
    <use height="35.6" transform="matrix(0.2734, 0.0, 0.0, 0.2734, 19.0195, 43.4785)" width="26.9" xlink:href="#shape14"/>
    <use height="15.3" transform="matrix(0.1894, 0.0, 0.0, 0.1894, 28.1161, 47.3661)" width="15.3" xlink:href="#shape18"/>
  </g>
  <defs>
    <g id="shape0" transform="matrix(1.0, 0.0, 0.0, 1.0, 0.0, 15.5)">
      <path d="M0.0 -15.5 L12.95 -15.5 12.95 -8.7 0.0 -8.7 0.0 -15.5" fill="#000000" fill-rule="evenodd" stroke="none"/>
    </g>
    <g id="shape1" transform="matrix(1.0, 0.0, 0.0, 1.0, -2.8, 23.7)">
      <path d="M11.0 -20.3 Q12.6 -22.2 14.3 -22.95 16.05 -23.75 18.55 -23.7 20.65 -23.7 22.3 -23.05 23.95 -22.4 25.15 -21.15 26.35 -20.0 26.85 -18.55 27.35 -17.1 27.3 -14.75 L27.3 0.0 19.1 0.0 19.1 -11.75 19.1 -13.55 18.95 -14.6 18.6 -15.4 Q18.2 -16.25 17.3 -16.7 L15.3 -17.2 Q13.25 -17.2 12.15 -15.95 11.0 -14.75 11.0 -12.45 L11.0 0.0 2.8 0.0 2.8 -23.2 11.0 -23.2 11.0 -20.3" fill="#000000" fill-rule="evenodd" stroke="none"/>
    </g>
    <g id="shape2" transform="matrix(1.0, 0.0, 0.0, 1.0, -0.35, 34.15)">
      <path d="M7.6 -26.6 L0.35 -26.6 0.35 -34.15 23.8 -34.15 23.8 -26.6 16.45 -26.6 16.45 0.0 7.6 0.0 7.6 -26.6" fill="#000000" fill-rule="evenodd" stroke="none"/>
    </g>
    <g id="shape3" transform="matrix(1.0, 0.0, 0.0, 1.0, -1.9, 24.05)">
      <path d="M3.7 -18.05 Q5.5 -20.85 8.6 -22.45 11.75 -24.05 15.9 -24.05 20.0 -24.05 23.1 -22.45 26.25 -20.85 28.0 -18.05 29.8 -15.3 29.8 -11.6 29.8 -7.9 28.0 -5.1 26.25 -2.3 23.1 -0.75 20.0 0.85 15.9 0.9 11.75 0.85 8.6 -0.75 5.5 -2.3 3.7 -5.1 1.95 -7.9 1.9 -11.6 1.95 -15.3 3.7 -18.05 M15.9 -17.0 Q13.6 -16.95 12.1 -15.45 10.6 -13.95 10.55 -11.65 10.6 -9.4 12.1 -7.9 13.6 -6.4 15.9 -6.35 18.15 -6.4 19.6 -7.9 21.1 -9.4 21.15 -11.65 21.1 -13.95 19.6 -15.45 18.15 -16.95 15.9 -17.0" fill="#000000" fill-rule="evenodd" stroke="none"/>
    </g>
    <g id="shape4" transform="matrix(1.0, 0.0, 0.0, 1.0, -1.1, 30.15)">
      <path d="M3.8 -30.15 L12.0 -30.15 12.0 -23.2 16.65 -23.2 16.65 -16.4 12.0 -16.4 12.0 0.0 3.8 0.0 3.8 -16.4 1.1 -16.4 1.1 -23.2 3.8 -23.2 3.8 -30.15" fill="#000000" fill-rule="evenodd" stroke="none"/>
    </g>
    <g id="shape5" transform="matrix(1.0, 0.0, 0.0, 1.0, 0.0, 23.2)">
      <path d="M9.2 -23.2 L14.7 -10.95 20.55 -23.2 25.65 -23.2 31.5 -10.6 37.35 -23.2 46.45 -23.2 34.3 0.0 28.8 0.0 23.0 -12.7 17.5 0.0 11.95 0.0 0.0 -23.2 9.2 -23.2" fill="#000000" fill-rule="evenodd" stroke="none"/>
    </g>
    <g id="shape6" transform="matrix(1.0, 0.0, 0.0, 1.0, 0.45, 8.65)">
      <path d="M5.45 -8.65 L13.1 -8.65 4.8 6.35 -0.45 6.35 5.45 -8.65" fill="#000000" fill-rule="evenodd" stroke="none"/>
    </g>
    <g id="shape7" transform="matrix(1.0, 0.0, 0.0, 1.0, -2.8, 37.55)">
      <path d="M2.8 -37.55 L11.0 -37.55 11.0 -20.3 Q12.6 -22.2 14.3 -22.95 16.05 -23.75 18.55 -23.7 20.65 -23.7 22.3 -23.05 23.95 -22.4 25.15 -21.15 26.35 -20.0 26.85 -18.55 27.35 -17.1 27.3 -14.75 L27.3 0.0 19.1 0.0 19.1 -11.75 19.1 -13.55 18.95 -14.6 18.6 -15.4 Q18.2 -16.25 17.3 -16.7 L15.3 -17.2 Q13.25 -17.2 12.15 -15.95 11.0 -14.75 11.0 -12.45 L11.0 0.0 2.8 0.0 2.8 -37.55" fill="#000000" fill-rule="evenodd" stroke="none"/>
    </g>
    <g id="shape8" transform="matrix(1.0, 0.0, 0.0, 1.0, -1.85, 23.85)">
      <path d="M3.45 -17.95 Q5.0 -20.75 7.8 -22.3 10.65 -23.85 14.5 -23.85 20.6 -23.8 23.95 -20.5 27.35 -17.15 27.4 -11.15 L27.4 -10.1 10.15 -10.1 Q10.2 -7.45 11.45 -6.15 12.7 -4.85 15.25 -4.85 16.6 -4.8 17.5 -5.35 18.45 -5.85 19.15 -7.05 L27.05 -7.05 Q25.9 -3.1 22.9 -1.1 19.95 0.95 15.35 0.95 11.2 0.9 8.2 -0.6 5.2 -2.1 3.55 -4.85 1.9 -7.6 1.85 -11.35 1.9 -15.2 3.45 -17.95 M10.35 -14.85 L19.8 -14.85 Q19.35 -16.6 18.1 -17.6 16.85 -18.55 15.1 -18.6 13.1 -18.6 11.9 -17.6 10.7 -16.65 10.35 -14.85" fill="#000000" fill-rule="evenodd" stroke="none"/>
    </g>
    <g id="shape9" transform="matrix(1.0, 0.0, 0.0, 1.0, -2.8, 23.6)">
      <path d="M11.0 -23.2 L11.0 -20.35 Q12.75 -22.1 14.5 -22.85 16.25 -23.6 18.5 -23.55 21.2 -23.55 23.1 -22.55 25.0 -21.5 26.4 -19.25 27.75 -21.4 29.75 -22.5 31.7 -23.6 34.2 -23.6 38.05 -23.6 40.05 -21.4 42.05 -19.2 42.05 -15.05 L42.05 0.0 33.85 0.0 33.85 -11.45 33.85 -13.25 33.7 -14.3 33.45 -15.15 Q33.0 -16.15 32.25 -16.65 31.45 -17.2 30.45 -17.2 28.5 -17.2 27.5 -15.75 26.55 -14.3 26.55 -11.45 L26.55 0.0 18.35 0.0 18.35 -11.5 18.3 -13.35 18.2 -14.4 18.0 -15.15 Q17.6 -16.15 16.7 -16.75 15.8 -17.35 14.75 -17.35 13.8 -17.35 12.9 -16.8 12.0 -16.25 11.55 -15.4 L11.15 -13.9 Q11.0 -13.0 11.0 -11.45 L11.0 0.0 2.8 0.0 2.8 -23.2 11.0 -23.2" fill="#000000" fill-rule="evenodd" stroke="none"/>
    </g>
    <g id="shape10" transform="matrix(1.0, 0.0, 0.0, 1.0, -2.8, 23.5)">
      <path d="M19.35 -23.5 L20.2 -23.45 20.2 -15.6 18.5 -16.25 16.75 -16.4 Q13.85 -16.4 12.45 -14.8 11.0 -13.15 11.0 -9.9 L11.0 0.0 2.8 0.0 2.8 -23.2 11.0 -23.2 11.0 -19.4 Q12.4 -21.55 14.2 -22.55 16.0 -23.5 18.65 -23.5 L19.35 -23.5" fill="#000000" fill-rule="evenodd" stroke="none"/>
    </g>
    <g id="shape11" transform="matrix(1.0, 0.0, 0.0, 1.0, -2.8, 23.95)">
      <path d="M11.0 -23.2 L11.0 -20.65 Q12.35 -22.35 14.1 -23.15 15.85 -23.95 18.2 -23.95 21.5 -23.9 24.15 -22.3 26.8 -20.65 28.35 -17.85 29.9 -15.1 29.9 -11.55 29.9 -8.05 28.35 -5.25 26.85 -2.5 24.2 -0.85 21.55 0.75 18.25 0.8 16.05 0.8 14.3 0.05 12.55 -0.65 11.0 -2.25 L11.0 11.65 2.8 11.65 2.8 -23.2 11.0 -23.2 M16.1 -16.9 Q13.8 -16.85 12.3 -15.35 10.8 -13.85 10.75 -11.6 10.8 -9.35 12.3 -7.85 13.85 -6.35 16.1 -6.3 18.35 -6.35 19.8 -7.85 21.3 -9.35 21.35 -11.6 21.3 -13.85 19.8 -15.35 18.35 -16.85 16.1 -16.9" fill="#000000" fill-rule="evenodd" stroke="none"/>
    </g>
    <g id="shape12" transform="matrix(1.0, 0.0, 0.0, 1.0, -0.55, 38.05)">
      <path d="M15.65 -37.85 L17.45 -37.15 17.45 -30.05 15.85 -30.7 14.6 -30.85 Q13.75 -30.85 13.05 -30.4 12.3 -30.0 12.0 -29.35 11.8 -28.95 11.75 -28.2 L11.7 -26.1 11.7 -23.2 17.45 -23.2 17.45 -16.4 11.7 -16.4 11.7 0.0 3.5 0.0 3.5 -16.4 0.55 -16.4 0.55 -23.2 3.5 -23.2 3.5 -26.7 Q3.45 -29.6 4.1 -31.4 4.75 -33.25 6.25 -34.75 7.8 -36.35 9.75 -37.2 11.7 -38.05 13.85 -38.05 L15.65 -37.85" fill="#000000" fill-rule="evenodd" stroke="none"/>
    </g>
    <g id="shape13" transform="matrix(1.0, 0.0, 0.0, 1.0, -2.8, 23.2)">
      <path d="M6.0 -1.4 Q2.85 -3.8 2.8 -8.45 L2.8 -23.2 11.0 -23.2 11.0 -10.0 Q11.0 -7.9 12.05 -6.85 13.1 -5.75 15.2 -5.75 17.3 -5.75 18.35 -6.85 19.35 -7.9 19.35 -10.0 L19.35 -23.2 27.55 -23.2 27.55 -8.45 Q27.55 -3.8 24.4 -1.4 21.25 0.95 15.2 1.0 9.15 0.95 6.0 -1.4" fill="#000000" fill-rule="evenodd" stroke="none"/>
    </g>
    <g id="shape14" transform="matrix(1.0, 0.0, 0.0, 1.0, -1.9, 23.85)">
      <path d="M13.7 -23.85 Q15.9 -23.9 17.5 -23.15 19.15 -22.45 20.6 -20.8 L20.6 -23.2 28.8 -23.2 28.8 -1.55 28.5 2.55 Q28.2 4.25 27.55 5.55 L25.65 8.0 Q23.8 9.9 21.25 10.8 18.65 11.75 15.35 11.75 11.85 11.7 9.05 10.6 6.25 9.5 4.45 7.55 2.65 5.55 2.15 2.85 L11.4 2.85 Q11.8 4.0 12.75 4.6 13.75 5.2 15.25 5.2 17.8 5.15 19.2 3.7 20.55 2.25 20.6 -0.4 L20.6 -2.55 Q18.8 -0.85 17.15 -0.2 15.45 0.5 13.2 0.5 9.9 0.45 7.35 -1.05 4.8 -2.5 3.4 -5.15 1.95 -7.8 1.9 -11.25 1.95 -14.9 3.5 -17.7 5.0 -20.55 7.65 -22.2 10.3 -23.85 13.7 -23.85 M15.75 -16.95 Q13.5 -16.9 12.0 -15.4 10.5 -13.9 10.45 -11.65 10.5 -9.4 12.0 -7.9 13.5 -6.4 15.75 -6.35 17.95 -6.4 19.45 -7.9 20.95 -9.4 21.0 -11.65 20.95 -13.9 19.45 -15.4 17.95 -16.9 15.75 -16.95" fill="#000000" fill-rule="evenodd" stroke="none"/>
    </g>
    <g id="shape15" transform="matrix(1.0, 0.0, 0.0, 1.0, -1.9, 23.95)">
      <path d="M13.6 -23.95 Q15.8 -23.95 17.55 -23.25 19.3 -22.5 20.8 -20.95 L20.8 -23.2 29.0 -23.2 29.0 0.0 20.8 0.0 20.8 -2.55 Q19.45 -0.8 17.7 0.0 15.95 0.8 13.65 0.8 10.3 0.75 7.65 -0.9 5.0 -2.5 3.5 -5.3 1.95 -8.1 1.9 -11.6 1.95 -15.15 3.45 -17.95 5.0 -20.7 7.6 -22.3 10.25 -23.95 13.6 -23.95 M15.8 -16.9 Q13.5 -16.85 12.0 -15.35 10.5 -13.85 10.45 -11.6 10.5 -9.35 12.05 -7.85 13.55 -6.35 15.8 -6.3 18.0 -6.35 19.5 -7.85 21.0 -9.3 21.05 -11.55 21.0 -13.85 19.5 -15.35 18.0 -16.85 15.8 -16.9" fill="#000000" fill-rule="evenodd" stroke="none"/>
    </g>
    <g id="shape16" transform="matrix(1.0, 0.0, 0.0, 1.0, -1.9, 37.55)">
      <path d="M15.8 -16.9 Q13.5 -16.85 12.0 -15.35 10.5 -13.85 10.45 -11.6 10.5 -9.35 12.05 -7.85 13.55 -6.35 15.8 -6.3 18.0 -6.35 19.5 -7.85 21.0 -9.3 21.05 -11.55 21.0 -13.85 19.5 -15.35 18.0 -16.85 15.8 -16.9 M20.8 -37.55 L29.0 -37.55 29.0 0.0 20.8 0.0 20.8 -2.55 Q19.45 -0.8 17.7 0.0 15.95 0.8 13.65 0.8 10.3 0.75 7.65 -0.9 5.0 -2.5 3.5 -5.3 1.95 -8.1 1.9 -11.6 1.95 -15.15 3.45 -17.95 5.0 -20.7 7.6 -22.3 10.25 -23.95 13.6 -23.95 15.8 -23.95 17.55 -23.25 19.3 -22.5 20.8 -20.95 L20.8 -37.55" fill="#000000" fill-rule="evenodd" stroke="none"/>
    </g>
    <g id="shape17" transform="matrix(1.0, 0.0, 0.0, 1.0, -2.05, 34.85)">
      <path d="M24.7 -25.35 Q22.8 -26.25 20.5 -26.25 17.8 -26.25 15.75 -25.05 13.7 -23.85 12.55 -21.7 11.35 -19.6 11.35 -16.85 11.35 -14.15 12.55 -12.1 13.7 -10.05 15.8 -8.85 17.85 -7.7 20.5 -7.65 22.7 -7.65 24.55 -8.55 26.45 -9.4 28.2 -11.25 L28.2 -0.75 24.8 0.3 22.5 0.8 20.35 0.95 Q15.15 0.9 11.05 -1.45 6.9 -3.8 4.5 -7.8 2.1 -11.8 2.05 -16.9 2.1 -21.95 4.5 -26.0 6.9 -30.05 11.0 -32.4 15.05 -34.8 20.15 -34.85 L23.95 -34.45 28.2 -33.1 28.2 -22.5 Q26.6 -24.4 24.7 -25.35" fill="#000000" fill-rule="evenodd" stroke="none"/>
    </g>
    <g id="shape18" transform="matrix(1.0, 0.0, 0.0, 1.0, -5.1, -5.1)">
      <path d="M20.4 12.75 Q20.4 15.95 18.15 18.15 15.95 20.4 12.75 20.4 9.55 20.4 7.3 18.15 5.1 15.95 5.1 12.75 5.1 9.6 7.3 7.35 9.55 5.1 12.75 5.1 15.95 5.1 18.15 7.35 20.4 9.6 20.4 12.75" fill="#000000" fill-rule="evenodd" stroke="none"/>
    </g>
  </defs>
</svg>
