<?xml version="1.0" encoding="UTF-8" standalone="no"?>
<svg xmlns:xlink="http://www.w3.org/1999/xlink" height="43.55px" width="41.1px" xmlns="http://www.w3.org/2000/svg">
  <g transform="matrix(1.0, 0.0, 0.0, 1.0, 1.6, 1.5)">
    <use height="15.3" transform="matrix(2.6144, 0.0, 0.0, 2.6144, -1.6167, 2.0833)" width="15.3" xlink:href="#shape0"/>
    <use height="41.0" transform="matrix(1.0, 0.0, 0.0, 1.0, -1.5, -1.5)" width="41.0" xlink:href="#shape1"/>
  </g>
  <defs>
    <g id="shape0" transform="matrix(1.0, 0.0, 0.0, 1.0, -5.1, -5.1)">
      <path d="M20.4 12.75 Q20.4 15.95 18.15 18.15 15.95 20.4 12.75 20.4 9.55 20.4 7.3 18.15 5.1 15.95 5.1 12.75 5.1 9.6 7.3 7.35 9.55 5.1 12.75 5.1 15.95 5.1 18.15 7.35 20.4 9.6 20.4 12.75" fill="#000000" fill-rule="evenodd" stroke="none"/>
    </g>
    <g id="shape1" transform="matrix(1.0, 0.0, 0.0, 1.0, 1.5, 1.5)">
      <path d="M5.55 32.45 Q0.0 26.85 0.0 19.0 0.0 11.1 5.55 5.55 11.1 0.0 19.0 0.0 26.85 0.0 32.45 5.55 38.0 11.1 38.0 19.0 38.0 26.85 32.45 32.45 26.85 38.0 19.0 38.0 11.1 38.0 5.55 32.45" fill="#5ffc00" fill-rule="evenodd" stroke="none"/>
      <path d="M5.55 32.45 Q0.0 26.85 0.0 19.0 0.0 11.1 5.55 5.55 11.1 0.0 19.0 0.0 26.85 0.0 32.45 5.55 38.0 11.1 38.0 19.0 38.0 26.85 32.45 32.45 26.85 38.0 19.0 38.0 11.1 38.0 5.55 32.45 Z" fill="none" stroke="#ffffff" stroke-linecap="round" stroke-linejoin="round" stroke-width="3.0"/>
      <path d="M32.85 18.4 L32.95 18.65 32.95 18.9 32.85 19.15 20.5 30.75 20.15 30.9 15.45 30.9 15.2 30.8 15.0 30.55 14.95 30.3 15.1 30.0 24.95 20.9 4.8 20.9 4.45 20.75 4.3 20.4 4.3 17.25 Q4.3 17.05 4.45 16.9 4.55 16.75 4.8 16.75 L24.95 16.75 15.1 7.6 14.95 7.35 Q14.9 7.2 15.0 7.05 L15.2 6.8 15.45 6.75 20.15 6.75 20.5 6.85 32.85 18.4" fill="#000000" fill-rule="evenodd" stroke="none"/>
    </g>
  </defs>
</svg>
