<?xml version="1.0" encoding="UTF-8" standalone="no"?>
<svg xmlns:xlink="http://www.w3.org/1999/xlink" height="9.25px" width="397.15px" xmlns="http://www.w3.org/2000/svg">
  <g transform="matrix(1.0, 0.0, 0.0, 1.0, -0.9, -3.05)">
    <use height="34.15" transform="matrix(0.2539, 0.0, 0.0, 0.2539, 0.9141, 3.3291)" width="25.95" xlink:href="#shape0"/>
    <use height="34.15" transform="matrix(0.2539, 0.0, 0.0, 0.2539, 9.4141, 3.3291)" width="19.5" xlink:href="#shape1"/>
    <use height="34.15" transform="matrix(0.2539, 0.0, 0.0, 0.2539, 15.4016, 3.3291)" width="35.6" xlink:href="#shape2"/>
    <use height="34.15" transform="matrix(0.2539, 0.0, 0.0, 0.2539, 25.0977, 3.3291)" width="34.0" xlink:href="#shape3"/>
    <use height="34.15" transform="matrix(0.2539, 0.0, 0.0, 0.2539, 38.2889, 3.3291)" width="23.45" xlink:href="#shape4"/>
    <use height="34.15" transform="matrix(0.2539, 0.0, 0.0, 0.2539, 45.9141, 3.3291)" width="30.55" xlink:href="#shape5"/>
    <use height="34.15" transform="matrix(0.2539, 0.0, 0.0, 0.2539, 56.2141, 3.3291)" width="19.4" xlink:href="#shape6"/>
    <use height="34.15" transform="matrix(0.2539, 0.0, 0.0, 0.2539, 66.3889, 3.3291)" width="23.45" xlink:href="#shape4"/>
    <use height="36.4" transform="matrix(0.2539, 0.0, 0.0, 0.2539, 73.6205, 3.0752)" width="37.8" xlink:href="#shape7"/>
    <use height="36.4" transform="matrix(0.2539, 0.0, 0.0, 0.2539, 84.9705, 3.0752)" width="37.8" xlink:href="#shape7"/>
    <use height="34.15" transform="matrix(0.2539, 0.0, 0.0, 0.2539, 96.7141, 3.3291)" width="34.05" xlink:href="#shape8"/>
    <use height="34.15" transform="matrix(0.2539, 0.0, 0.0, 0.2539, 107.0389, 3.3291)" width="23.45" xlink:href="#shape4"/>
    <use height="36.4" transform="matrix(0.2539, 0.0, 0.0, 0.2539, 114.2705, 3.0752)" width="37.8" xlink:href="#shape7"/>
    <use height="34.15" transform="matrix(0.2539, 0.0, 0.0, 0.2539, 125.1, 3.3291)" width="51.95" xlink:href="#shape9"/>
    <use height="34.15" transform="matrix(0.2539, 0.0, 0.0, 0.2539, 139.9141, 3.3291)" width="34.05" xlink:href="#shape8"/>
    <use height="35.8" transform="matrix(0.2539, 0.0, 0.0, 0.2539, 154.6205, 3.1514)" width="26.15" xlink:href="#shape10"/>
    <use height="36.4" transform="matrix(0.2539, 0.0, 0.0, 0.2539, 162.9705, 3.0752)" width="37.8" xlink:href="#shape7"/>
    <use height="36.45" transform="matrix(0.2539, 0.0, 0.0, 0.2539, 174.3205, 3.0625)" width="35.75" xlink:href="#shape11"/>
    <use height="6.8" transform="matrix(0.1735, 0.0, 0.0, 1.2751, 189.45, 3.3355)" width="12.95" xlink:href="#shape12"/>
    <use height="34.15" transform="matrix(0.2539, 0.0, 0.0, 0.2539, 194.2141, 3.3291)" width="34.05" xlink:href="#shape8"/>
    <use height="34.15" transform="matrix(0.2539, 0.0, 0.0, 0.2539, 204.45, 3.3291)" width="35.8" xlink:href="#shape13"/>
    <use height="34.15" transform="matrix(0.2539, 0.0, 0.0, 0.2539, 214.3516, 3.3291)" width="35.6" xlink:href="#shape2"/>
    <use height="35.85" transform="matrix(0.2539, 0.0, 0.0, 0.2539, 224.7205, 3.126)" width="25.2" xlink:href="#shape14"/>
    <use height="6.8" transform="matrix(0.1735, 0.0, 0.0, 1.2751, 233.2, 3.3355)" width="12.95" xlink:href="#shape12"/>
    <use height="36.4" transform="matrix(0.2539, 0.0, 0.0, 0.2539, 237.5705, 3.0752)" width="37.8" xlink:href="#shape7"/>
    <use height="34.15" transform="matrix(0.2539, 0.0, 0.0, 0.2539, 249.3141, 3.3291)" width="34.05" xlink:href="#shape8"/>
    <use height="36.45" transform="matrix(0.2539, 0.0, 0.0, 0.2539, 264.0205, 3.0625)" width="35.75" xlink:href="#shape11"/>
    <use height="34.15" transform="matrix(0.2539, 0.0, 0.0, 0.2539, 274.4016, 3.3291)" width="35.6" xlink:href="#shape2"/>
    <use height="34.15" transform="matrix(0.2539, 0.0, 0.0, 0.2539, 284.7705, 3.3291)" width="42.75" xlink:href="#shape15"/>
    <use height="34.15" transform="matrix(0.2539, 0.0, 0.0, 0.2539, 297.7641, 3.3291)" width="19.4" xlink:href="#shape6"/>
    <use height="34.15" transform="matrix(0.2539, 0.0, 0.0, 0.2539, 307.9389, 3.3291)" width="23.45" xlink:href="#shape4"/>
    <use height="36.4" transform="matrix(0.2539, 0.0, 0.0, 0.2539, 315.1705, 3.0752)" width="37.8" xlink:href="#shape7"/>
    <use height="34.15" transform="matrix(0.2539, 0.0, 0.0, 0.2539, 330.8641, 3.3291)" width="19.55" xlink:href="#shape16"/>
    <use height="6.8" transform="matrix(0.1735, 0.0, 0.0, 1.2751, 337.85, 3.3355)" width="12.95" xlink:href="#shape12"/>
    <use height="34.15" transform="matrix(0.2539, 0.0, 0.0, 0.2539, 342.6141, 3.3291)" width="34.05" xlink:href="#shape8"/>
    <use height="34.15" transform="matrix(0.2539, 0.0, 0.0, 0.2539, 353.7641, 3.3291)" width="29.9" xlink:href="#shape17"/>
    <use height="36.4" transform="matrix(0.2539, 0.0, 0.0, 0.2539, 367.0705, 3.0752)" width="37.8" xlink:href="#shape7"/>
    <use height="35.05" transform="matrix(0.2539, 0.0, 0.0, 0.2539, 378.8141, 3.3291)" width="29.75" xlink:href="#shape18"/>
    <use height="34.15" transform="matrix(0.2539, 0.0, 0.0, 0.2539, 388.0389, 3.3291)" width="23.45" xlink:href="#shape4"/>
    <use height="15.3" transform="matrix(0.1759, 0.0, 0.0, 0.1759, 395.3471, 9.5471)" width="15.3" xlink:href="#shape19"/>
  </g>
  <defs>
    <g id="shape0" transform="matrix(1.0, 0.0, 0.0, 1.0, -3.6, 34.15)">
      <path d="M19.05 -25.95 Q17.85 -27.0 15.45 -27.0 L12.45 -27.0 12.45 -18.45 15.4 -18.45 Q17.95 -18.45 19.1 -19.5 20.3 -20.55 20.3 -22.8 20.3 -24.9 19.05 -25.95 M26.25 -31.25 Q27.9 -29.75 28.7 -27.65 29.55 -25.55 29.55 -22.9 29.55 -17.2 26.6 -14.3 23.7 -11.35 18.0 -11.35 L12.45 -11.35 12.45 0.0 3.6 0.0 3.6 -34.15 17.7 -34.15 22.65 -33.5 Q24.65 -32.8 26.25 -31.25" fill="#000000" fill-rule="evenodd" stroke="none"/>
    </g>
    <g id="shape1" transform="matrix(1.0, 0.0, 0.0, 1.0, -3.6, 34.15)">
      <path d="M12.45 -34.15 L12.45 -7.5 23.1 -7.5 23.1 0.0 3.6 0.0 3.6 -34.15 12.45 -34.15" fill="#000000" fill-rule="evenodd" stroke="none"/>
    </g>
    <g id="shape2" transform="matrix(1.0, 0.0, 0.0, 1.0, -0.4, 34.15)">
      <path d="M24.35 -5.95 L12.1 -5.95 9.75 0.0 0.4 0.0 13.5 -34.15 23.15 -34.15 36.0 0.0 26.55 0.0 24.35 -5.95 M21.95 -12.7 L18.3 -23.6 14.55 -12.7 21.95 -12.7" fill="#000000" fill-rule="evenodd" stroke="none"/>
    </g>
    <g id="shape3" transform="matrix(1.0, 0.0, 0.0, 1.0, 0.6, 34.15)">
      <path d="M10.0 -34.15 L16.45 -24.8 22.65 -34.15 33.4 -34.15 20.6 -16.35 20.6 0.0 11.75 0.0 11.75 -16.35 -0.6 -34.15 10.0 -34.15" fill="#000000" fill-rule="evenodd" stroke="none"/>
    </g>
    <g id="shape4" transform="matrix(1.0, 0.0, 0.0, 1.0, -0.35, 34.15)">
      <path d="M7.6 -26.6 L0.35 -26.6 0.35 -34.15 23.8 -34.15 23.8 -26.6 16.45 -26.6 16.45 0.0 7.6 0.0 7.6 -26.6" fill="#000000" fill-rule="evenodd" stroke="none"/>
    </g>
    <g id="shape5" transform="matrix(1.0, 0.0, 0.0, 1.0, -3.6, 34.15)">
      <path d="M12.45 -20.9 L25.3 -20.9 25.3 -34.15 34.15 -34.15 34.15 0.0 25.3 0.0 25.3 -14.0 12.45 -14.0 12.45 0.0 3.6 0.0 3.6 -34.15 12.45 -34.15 12.45 -20.9" fill="#000000" fill-rule="evenodd" stroke="none"/>
    </g>
    <g id="shape6" transform="matrix(1.0, 0.0, 0.0, 1.0, -3.6, 34.15)">
      <path d="M23.0 -34.15 L23.0 -26.6 12.45 -26.6 12.45 -20.95 22.45 -20.95 22.45 -13.4 12.45 -13.4 12.45 -7.5 23.0 -7.5 23.0 0.0 3.6 0.0 3.6 -34.15 23.0 -34.15" fill="#000000" fill-rule="evenodd" stroke="none"/>
    </g>
    <g id="shape7" transform="matrix(1.0, 0.0, 0.0, 1.0, -2.05, 35.15)">
      <path d="M20.95 -35.15 Q26.4 -35.1 30.65 -32.75 34.9 -30.4 37.35 -26.3 39.8 -22.25 39.85 -17.0 39.8 -11.75 37.35 -7.65 34.9 -3.55 30.65 -1.2 26.4 1.2 20.95 1.25 15.5 1.2 11.25 -1.2 7.0 -3.55 4.55 -7.65 2.1 -11.75 2.05 -17.0 2.1 -22.2 4.55 -26.3 7.0 -30.4 11.25 -32.75 15.5 -35.1 20.95 -35.15 M25.85 -25.25 Q23.65 -26.55 20.95 -26.55 18.25 -26.55 16.1 -25.25 13.95 -23.95 12.65 -21.8 11.35 -19.65 11.35 -17.0 11.35 -14.3 12.65 -12.15 13.95 -9.95 16.1 -8.65 18.25 -7.4 20.95 -7.35 23.65 -7.4 25.85 -8.65 28.0 -9.95 29.3 -12.15 30.55 -14.3 30.6 -17.0 30.55 -19.65 29.3 -21.8 28.0 -23.95 25.85 -25.25" fill="#000000" fill-rule="evenodd" stroke="none"/>
    </g>
    <g id="shape8" transform="matrix(1.0, 0.0, 0.0, 1.0, -3.6, 34.15)">
      <path d="M3.6 -34.15 L12.45 -34.15 28.8 -13.25 28.8 -34.15 37.65 -34.15 37.65 0.0 28.8 0.0 12.45 -20.9 12.45 0.0 3.6 0.0 3.6 -34.15" fill="#000000" fill-rule="evenodd" stroke="none"/>
    </g>
    <g id="shape9" transform="matrix(1.0, 0.0, 0.0, 1.0, 0.0, 34.15)">
      <path d="M9.3 -34.15 L15.2 -12.05 22.45 -34.15 29.5 -34.15 36.2 -12.05 42.65 -34.15 51.95 -34.15 41.05 0.0 31.95 0.0 25.75 -19.75 19.2 0.0 10.2 0.0 0.0 -34.15 9.3 -34.15" fill="#000000" fill-rule="evenodd" stroke="none"/>
    </g>
    <g id="shape10" transform="matrix(1.0, 0.0, 0.0, 1.0, -2.05, 34.85)">
      <path d="M24.7 -25.35 Q22.8 -26.25 20.5 -26.25 17.8 -26.25 15.75 -25.05 13.7 -23.85 12.55 -21.7 11.35 -19.6 11.35 -16.85 11.35 -14.15 12.55 -12.1 13.7 -10.05 15.8 -8.85 17.85 -7.7 20.5 -7.65 22.7 -7.65 24.55 -8.55 26.45 -9.4 28.2 -11.25 L28.2 -0.75 24.8 0.3 22.5 0.8 20.35 0.95 Q15.15 0.9 11.05 -1.45 6.9 -3.8 4.5 -7.8 2.1 -11.8 2.05 -16.9 2.1 -21.95 4.5 -26.0 6.9 -30.05 11.0 -32.4 15.05 -34.8 20.15 -34.85 L23.95 -34.45 28.2 -33.1 28.2 -22.5 Q26.6 -24.4 24.7 -25.35" fill="#000000" fill-rule="evenodd" stroke="none"/>
    </g>
    <g id="shape11" transform="matrix(1.0, 0.0, 0.0, 1.0, -2.05, 35.2)">
      <path d="M20.6 -35.2 Q26.05 -35.2 29.8 -32.85 33.55 -30.5 35.95 -25.6 L27.5 -22.1 Q26.35 -24.85 24.55 -26.2 22.75 -27.55 20.2 -27.55 17.65 -27.5 15.65 -26.15 13.65 -24.75 12.5 -22.35 11.35 -19.95 11.35 -16.85 11.35 -13.65 12.5 -11.25 13.65 -8.85 15.7 -7.5 17.75 -6.1 20.45 -6.1 23.5 -6.1 25.25 -7.6 27.05 -9.05 27.45 -12.05 L20.2 -12.05 20.2 -18.95 37.8 -18.95 37.55 -14.4 36.9 -10.95 Q36.5 -9.4 35.8 -8.0 33.6 -3.45 29.65 -1.15 25.7 1.2 20.3 1.25 14.85 1.2 10.75 -1.05 6.7 -3.35 4.4 -7.4 2.1 -11.5 2.05 -16.9 2.1 -22.4 4.45 -26.5 6.75 -30.6 10.9 -32.9 15.05 -35.15 20.6 -35.2" fill="#000000" fill-rule="evenodd" stroke="none"/>
    </g>
    <g id="shape12" transform="matrix(1.0, 0.0, 0.0, 1.0, 0.0, 15.5)">
      <path d="M0.0 -15.5 L12.95 -15.5 12.95 -8.7 0.0 -8.7 0.0 -15.5" fill="#000000" fill-rule="evenodd" stroke="none"/>
    </g>
    <g id="shape13" transform="matrix(1.0, 0.0, 0.0, 1.0, 0.0, 34.15)">
      <path d="M9.7 -34.15 L17.9 -13.35 26.2 -34.15 35.8 -34.15 21.25 0.0 14.35 0.0 0.0 -34.15 9.7 -34.15" fill="#000000" fill-rule="evenodd" stroke="none"/>
    </g>
    <g id="shape14" transform="matrix(1.0, 0.0, 0.0, 1.0, -2.05, 34.95)">
      <path d="M25.9 -32.2 L22.35 -25.3 Q20.85 -26.45 19.45 -27.05 L16.5 -27.6 Q14.9 -27.55 13.8 -26.75 12.75 -25.95 12.7 -24.65 12.7 -23.85 13.3 -23.2 13.85 -22.55 15.0 -22.0 L15.55 -21.8 16.6 -21.45 18.85 -20.8 Q23.3 -19.5 25.3 -17.25 27.3 -14.95 27.25 -11.3 27.2 -5.5 23.75 -2.35 20.3 0.85 13.95 0.9 10.8 0.9 7.8 -0.1 4.75 -1.05 2.05 -2.95 L5.85 -10.1 Q7.85 -8.35 9.8 -7.5 11.75 -6.65 13.7 -6.65 15.65 -6.65 16.8 -7.55 17.95 -8.45 18.0 -9.95 18.05 -11.3 16.9 -12.15 15.7 -13.05 12.65 -13.9 L9.5 -14.9 7.45 -15.8 6.0 -16.8 Q4.75 -17.9 4.1 -19.55 3.45 -21.2 3.45 -23.45 3.45 -26.9 4.9 -29.5 6.35 -32.05 9.0 -33.5 11.6 -34.95 15.05 -34.95 L20.55 -34.25 Q23.3 -33.55 25.9 -32.2" fill="#000000" fill-rule="evenodd" stroke="none"/>
    </g>
    <g id="shape15" transform="matrix(1.0, 0.0, 0.0, 1.0, -2.05, 34.15)">
      <path d="M7.85 -34.15 L16.6 -34.15 23.5 -15.9 30.85 -34.15 39.7 -34.15 44.8 0.0 35.95 0.0 33.45 -19.65 25.2 0.0 21.65 0.0 13.8 -19.65 10.85 0.0 2.05 0.0 7.85 -34.15" fill="#000000" fill-rule="evenodd" stroke="none"/>
    </g>
    <g id="shape16" transform="matrix(1.0, 0.0, 0.0, 1.0, -3.6, 34.15)">
      <path d="M23.15 -26.6 L12.45 -26.6 12.45 -20.95 22.2 -20.95 22.2 -13.4 12.45 -13.4 12.45 0.0 3.6 0.0 3.6 -34.15 23.15 -34.15 23.15 -26.6" fill="#000000" fill-rule="evenodd" stroke="none"/>
    </g>
    <g id="shape17" transform="matrix(1.0, 0.0, 0.0, 1.0, -3.6, 34.15)">
      <path d="M14.5 -26.6 L12.45 -26.6 12.45 -7.5 14.5 -7.5 Q19.0 -7.55 21.6 -10.15 24.2 -12.7 24.25 -17.1 24.2 -21.45 21.6 -24.0 19.0 -26.55 14.5 -26.6 M25.05 -31.75 Q28.85 -29.45 31.15 -25.6 33.45 -21.75 33.5 -17.1 33.45 -12.4 31.15 -8.55 28.85 -4.7 25.05 -2.35 21.3 -0.05 16.7 0.0 L3.6 0.0 3.6 -34.15 16.7 -34.15 Q21.3 -34.05 25.05 -31.75" fill="#000000" fill-rule="evenodd" stroke="none"/>
    </g>
    <g id="shape18" transform="matrix(1.0, 0.0, 0.0, 1.0, -3.6, 34.15)">
      <path d="M24.5 -34.15 L33.35 -34.15 33.35 -14.4 Q33.35 -11.95 33.0 -10.1 32.7 -8.25 31.95 -6.75 31.25 -5.3 30.0 -3.9 27.85 -1.5 24.9 -0.3 21.95 0.9 18.1 0.9 14.25 0.85 11.05 -0.5 7.9 -1.85 6.05 -4.25 4.75 -5.95 4.15 -8.3 3.6 -10.7 3.6 -14.4 L3.6 -34.15 12.45 -34.15 12.45 -15.65 12.5 -12.65 12.8 -10.9 Q13.0 -10.25 13.45 -9.55 14.2 -8.3 15.45 -7.65 16.75 -6.95 18.35 -6.95 20.1 -6.95 21.5 -7.7 22.85 -8.4 23.55 -9.7 L24.15 -11.05 24.4 -12.8 24.5 -15.65 24.5 -34.15" fill="#000000" fill-rule="evenodd" stroke="none"/>
    </g>
    <g id="shape19" transform="matrix(1.0, 0.0, 0.0, 1.0, -5.1, -5.1)">
      <path d="M20.4 12.75 Q20.4 15.95 18.15 18.15 15.95 20.4 12.75 20.4 9.55 20.4 7.3 18.15 5.1 15.95 5.1 12.75 5.1 9.6 7.3 7.35 9.55 5.1 12.75 5.1 15.95 5.1 18.15 7.35 20.4 9.6 20.4 12.75" fill="#000000" fill-rule="evenodd" stroke="none"/>
    </g>
  </defs>
</svg>
