<?xml version="1.0" encoding="UTF-8" standalone="no"?>
<svg xmlns:xlink="http://www.w3.org/1999/xlink" height="29.15px" width="20.3px" xmlns="http://www.w3.org/2000/svg">
  <g transform="matrix(1.0, 0.0, 0.0, 1.0, 10.15, 14.55)">
    <use height="29.15" transform="matrix(1.0, 0.0, 0.0, 1.0, -10.15, -14.55)" width="20.3" xlink:href="#shape0"/>
  </g>
  <defs>
    <g id="shape0" transform="matrix(1.0, 0.0, 0.0, 1.0, 10.15, 14.55)">
      <path d="M5.85 -12.05 L6.4 -11.2 6.45 -11.2 6.9 -10.55 6.9 -10.5 6.95 -10.4 7.15 -10.1 7.35 -9.75 7.6 -9.1 9.7 -0.95 9.65 -0.7 9.65 -0.55 9.1 -0.2 9.1 -0.3 8.9 -0.4 7.25 0.5 7.2 0.6 6.45 0.85 5.95 0.95 5.7 0.85 Q6.05 -1.7 5.6 -4.05 4.7 -8.65 0.15 -12.4 0.0 -13.25 0.75 -13.85 L2.85 -14.0 3.15 -13.9 3.8 -13.6 4.0 -13.5 4.55 -13.15 5.0 -12.8 5.85 -12.05" fill="#a10095" fill-rule="evenodd" stroke="none"/>
      <path d="M7.6 -9.1 L7.35 -9.75 7.15 -10.1 6.95 -10.4 6.9 -10.5 6.9 -10.55 6.45 -11.2 6.4 -11.2 5.85 -12.05 Q4.8 -13.4 3.15 -13.9 L2.85 -14.0 0.75 -13.85 -0.2 -13.1 -1.45 -10.75 -1.6 -10.4 -1.8 -10.0 -1.8 -9.95 -1.85 -9.85 -1.95 -9.8 -2.25 -9.2 -2.3 -9.0 -2.4 -8.8 -2.45 -8.75 -2.5 -8.7 -2.95 -7.8 -5.35 -3.55 -6.4 -1.75 -6.45 -1.7 -6.2 -1.55 -5.85 -1.25 -5.8 -1.35 -5.65 -1.35 -5.55 -1.3 -4.55 -0.45 -4.5 -0.4 -4.45 -0.35 Q-3.55 0.0 -2.65 0.45 L-2.6 0.3 -2.55 0.2 -2.5 0.15 -1.5 0.55 -1.45 0.6 -1.05 0.65 -1.0 0.7 -0.95 0.75 0.5 0.95 1.45 1.0 Q2.0 0.6 2.7 0.6 L5.7 0.85 5.95 0.95 6.05 0.95 6.45 0.85 7.2 0.6 7.25 0.5 8.9 -0.4 9.1 -0.3 9.1 -0.2 9.65 -0.55 9.65 -0.7 9.7 -0.95 9.6 -1.45 8.25 -7.2 8.2 -7.3 8.15 -7.35 8.15 -7.4 7.6 -9.1 M8.55 -7.6 L8.6 -7.3 8.6 -7.25 9.7 -3.0 9.9 -2.05 10.1 -0.6 10.15 -0.55 10.15 -0.5 10.1 -0.4 10.1 0.15 9.95 2.0 9.75 3.35 9.7 3.6 9.7 3.65 9.2 6.4 8.35 9.3 7.8 11.2 7.85 11.2 7.85 11.25 7.85 11.3 7.75 11.45 7.55 12.2 7.55 12.3 7.5 12.4 7.5 12.45 7.45 12.55 7.15 12.55 Q3.95 14.65 0.15 14.5 L0.05 14.55 0.0 14.6 -0.2 14.45 -0.35 13.85 -0.4 13.7 -1.0 12.5 -1.15 12.25 -2.15 13.65 -2.25 13.8 Q-2.4 14.25 -2.85 14.3 L-4.05 14.35 -5.5 14.05 Q-7.8 13.65 -9.7 12.4 L-9.8 12.3 -9.9 12.2 Q-10.4 9.35 -9.8 6.5 L-9.45 4.35 -8.95 2.9 Q-8.65 1.4 -7.85 0.05 L-7.7 -0.25 -7.55 -0.45 -7.55 -0.5 -7.45 -0.55 -7.25 -1.1 -7.2 -1.15 -6.8 -1.8 -6.65 -2.05 -6.45 -2.35 -5.5 -4.0 -4.2 -6.35 -3.55 -7.5 -1.25 -11.95 -1.2 -12.05 -0.85 -12.8 -0.65 -13.1 -0.6 -13.15 -0.5 -13.3 -0.4 -13.45 0.0 -13.85 Q0.7 -14.4 1.65 -14.55 4.8 -14.45 6.45 -11.95 7.9 -10.0 8.55 -7.6 M5.6 1.2 L5.4 1.05 4.85 0.95 2.7 1.05 2.15 1.15 1.75 1.3 1.15 2.05 2.0 2.25 2.0 2.2 2.05 2.15 2.05 2.1 2.05 2.05 2.1 1.8 2.15 1.7 2.2 1.7 2.4 1.5 2.6 1.35 5.3 1.45 5.4 1.5 5.55 1.7 5.75 2.2 Q6.0 2.95 5.6 3.8 L5.45 3.9 4.9 4.05 2.4 3.85 2.05 3.5 1.3 3.4 1.35 3.6 1.7 4.25 Q3.65 4.95 5.55 4.25 L5.65 4.2 5.75 4.15 5.8 4.15 6.0 4.05 6.05 4.0 6.15 3.65 Q6.3 2.55 5.85 1.5 L5.75 1.35 5.6 1.2 M7.3 2.85 L7.25 1.05 7.2 1.05 7.15 1.1 6.3 1.3 6.45 1.75 6.6 3.0 6.6 3.05 7.3 2.9 7.3 2.85 M8.6 0.3 L8.55 0.25 8.4 0.4 7.7 0.7 7.65 0.75 7.7 2.3 7.65 2.8 7.75 2.85 8.55 2.6 8.55 2.55 Q8.5 1.65 8.7 0.7 L8.6 0.3 M9.05 0.25 L8.9 2.35 9.5 2.1 9.65 -0.05 9.55 0.0 9.5 0.05 9.4 0.05 9.05 0.15 9.05 0.25 M7.4 11.2 L7.8 9.65 Q8.75 6.9 9.15 4.05 L9.35 3.35 9.45 2.55 8.85 2.7 8.85 2.85 8.8 2.95 7.5 3.25 6.55 3.4 6.35 4.15 6.0 4.45 6.0 4.5 5.95 4.55 5.9 4.55 5.75 4.7 5.4 4.85 4.1 5.05 Q2.65 5.1 1.45 4.45 L1.4 4.4 1.35 4.4 1.1 4.05 0.95 3.65 Q-0.45 3.7 -1.55 3.15 L-1.85 3.35 -3.25 3.05 -3.2 2.9 Q-4.75 2.7 -5.7 1.65 L-5.8 1.85 -5.85 1.9 -5.95 1.95 -6.8 1.5 -7.0 1.35 -7.15 1.2 -7.05 0.9 -7.55 0.4 -7.6 0.35 -8.05 1.2 -8.5 2.7 -8.75 3.7 -8.9 3.95 -9.7 8.1 -9.75 10.15 -9.75 10.55 -9.65 10.55 -9.6 10.6 -7.0 12.3 -4.25 13.05 -3.05 13.25 -2.4 13.4 -2.35 13.35 -2.15 13.05 -0.25 10.0 0.3 9.0 0.85 8.1 1.15 7.65 1.0 8.6 0.1 10.2 0.05 10.3 -0.05 10.55 0.75 9.85 1.9 8.75 2.15 8.7 Q1.6 9.85 0.35 10.65 L-0.45 11.15 -0.9 11.9 -0.1 13.4 Q3.55 13.45 6.7 11.6 L7.0 11.45 7.35 11.25 7.4 11.2 M5.4 2.2 L5.35 2.15 5.2 1.9 5.05 1.85 2.65 1.75 2.55 1.85 2.55 1.9 2.45 2.0 2.4 2.15 2.4 2.2 2.45 2.25 2.45 2.3 2.5 2.35 2.5 2.4 2.45 2.45 2.45 2.5 2.75 2.7 2.8 2.85 2.6 3.45 2.5 3.45 2.55 3.55 2.7 3.7 4.9 3.6 4.95 3.6 5.4 3.45 5.4 3.35 5.4 2.2 M0.25 14.2 L1.5 14.15 1.65 14.15 Q4.15 13.85 6.35 12.6 L7.2 12.1 7.3 11.75 7.25 11.75 Q5.4 12.9 3.25 13.45 L1.25 13.75 0.0 13.65 0.05 13.85 0.1 13.95 0.2 14.2 0.25 14.2 M-2.8 0.9 L-2.75 0.75 -4.6 -0.05 -4.7 0.15 -5.55 1.45 Q-4.45 2.2 -3.2 2.65 L-2.85 0.95 -2.8 0.9 M-1.45 1.25 L-1.4 1.05 -1.7 0.85 -2.35 0.7 -2.85 2.65 -2.85 2.7 -1.9 2.9 -1.6 1.8 -1.45 1.25 M-1.05 1.35 L-1.35 2.55 -1.45 2.95 0.75 3.25 0.1 2.9 0.05 2.8 0.1 2.65 0.2 2.4 0.3 2.15 0.35 2.1 0.45 2.1 0.5 2.05 0.85 2.05 0.85 2.0 0.85 1.8 0.9 1.7 1.05 1.4 -0.95 1.1 -1.05 1.35 M1.9 2.65 L1.5 2.55 1.1 2.45 1.05 2.45 0.85 2.45 0.65 2.45 0.5 2.6 0.5 2.65 0.75 2.8 2.4 3.05 2.4 3.0 2.4 2.85 2.4 2.8 1.9 2.65 M-6.2 -0.75 L-6.1 -0.95 -6.6 -1.4 -7.4 0.0 -7.35 0.05 -7.3 0.1 -6.9 0.55 -6.4 -0.45 -6.2 -0.75 M-5.55 -0.7 L-5.6 -0.7 -5.7 -0.75 -6.65 0.85 -6.75 1.0 -6.05 1.45 -4.95 -0.15 -5.25 -0.55 -5.5 -0.75 -5.55 -0.7 M-9.65 11.25 L-9.55 11.95 -9.5 11.95 -9.45 12.0 -9.45 12.1 Q-6.55 13.85 -3.1 13.95 L-2.8 14.0 -2.55 13.65 Q-5.3 13.5 -7.7 12.35 L-9.15 11.5 -9.7 11.05 -9.65 11.25" fill="#000000" fill-rule="evenodd" stroke="none"/>
      <path d="M5.85 -12.05 L5.0 -12.8 4.55 -13.15 4.0 -13.5 3.8 -13.6 3.15 -13.9 Q4.8 -13.4 5.85 -12.05 M9.7 -0.95 L7.6 -9.1 8.15 -7.4 8.15 -7.35 8.2 -7.3 8.25 -7.2 9.6 -1.45 9.7 -0.95 M9.7 -3.0 L8.6 -7.25 8.6 -7.3 8.55 -7.6 9.7 -3.0 M-0.5 -13.3 L-0.6 -13.15 -0.65 -13.1 -0.85 -12.8 -0.7 -13.15 -0.5 -13.3 M-5.5 -4.0 L-6.45 -2.35 -6.65 -2.05 -6.8 -1.8 -6.85 -1.95 -5.5 -4.0 M5.4 1.05 L5.6 1.2 5.4 1.2 5.2 1.25 5.1 1.25 5.5 1.3 5.55 1.35 5.65 1.55 5.65 1.6 5.6 1.55 5.5 1.35 Q3.6 1.0 1.75 1.3 L2.15 1.15 2.7 1.15 4.2 1.15 5.4 1.05 M5.65 4.2 L5.55 4.25 5.6 4.2 5.65 4.2 M8.4 0.4 L8.55 0.25 8.6 0.3 8.5 0.35 8.4 0.4 M-2.3 -9.0 L-2.25 -9.2 -1.95 -9.8 -1.85 -9.85 -2.3 -9.0 M-2.95 -7.8 L-2.5 -8.7 -2.45 -8.75 -2.4 -8.8 -2.95 -7.8 M-4.5 -0.4 L-4.0 -0.2 -2.6 0.3 -2.65 0.45 Q-3.55 0.0 -4.45 -0.35 L-4.5 -0.4 M-1.0 0.7 L0.5 0.95 -0.95 0.75 -1.0 0.7 M1.5 2.55 L1.9 2.65 0.6 2.5 0.5 2.65 0.5 2.6 0.65 2.45 0.85 2.45 1.05 2.5 1.05 2.45 1.1 2.45 1.1 2.5 1.5 2.55 M1.35 4.4 L1.4 4.4 1.45 4.45 1.4 4.4 1.35 4.4 M-5.25 -0.55 L-5.55 -0.7 -5.5 -0.75 -5.25 -0.55 M-6.2 -1.55 L-6.45 -1.7 -6.4 -1.75 -6.2 -1.55" fill="#4d0000" fill-rule="evenodd" stroke="none"/>
      <path d="M0.75 -13.85 Q0.0 -13.25 0.15 -12.4 4.7 -8.65 5.6 -4.05 6.05 -1.7 5.7 0.85 L2.7 0.6 Q2.0 0.6 1.45 1.0 L0.5 0.95 -1.0 0.7 -1.05 0.65 -1.45 0.6 -1.5 0.55 -2.5 0.15 -2.55 0.2 -2.6 0.3 -4.0 -0.2 -4.5 -0.4 -4.55 -0.45 -5.55 -1.3 -5.65 -1.35 -5.8 -1.35 -5.85 -1.25 -6.2 -1.55 -6.4 -1.75 -5.35 -3.55 -2.95 -7.8 -2.4 -8.8 -2.3 -9.0 -1.85 -9.85 -1.8 -9.95 -1.8 -10.0 -1.6 -10.4 -1.45 -10.75 -0.2 -13.1 0.75 -13.85 M5.95 0.95 L6.45 0.85 6.05 0.95 5.95 0.95 M-6.45 -2.35 L-6.65 -2.05 -6.45 -2.35 M5.4 1.05 L4.2 1.15 2.7 1.15 2.15 1.15 2.7 1.05 4.85 0.95 5.4 1.05" fill="#c009c3" fill-rule="evenodd" stroke="none"/>
      <path d="M5.65 1.55 L5.55 1.35 5.5 1.3 5.1 1.25 5.2 1.25 5.4 1.2 5.6 1.2 5.75 1.35 5.65 1.55 M5.75 2.2 L5.55 1.7 5.6 1.55 5.75 2.1 5.75 2.2 M6.6 3.0 L6.45 1.75 6.3 1.3 7.15 1.1 7.2 1.05 7.25 1.05 7.3 2.85 6.6 3.0 M9.65 -0.05 L9.5 2.1 8.9 2.35 9.05 0.25 9.3 0.15 9.5 0.05 9.55 0.0 9.65 -0.05 M4.95 3.6 L5.4 2.2 5.4 3.35 5.4 3.45 4.95 3.6" fill="#723a00" fill-rule="evenodd" stroke="none"/>
      <path d="M6.15 3.65 L6.05 4.0 6.0 4.05 6.15 3.65 M5.8 4.15 L5.75 4.15 5.65 4.2 5.8 4.15 M8.4 0.4 L8.5 0.35 8.6 0.3 8.7 0.7 Q8.5 1.65 8.55 2.55 L8.55 2.6 7.75 2.85 7.65 2.8 7.7 2.3 7.65 0.75 7.7 0.7 8.4 0.4 M9.05 0.25 L9.05 0.15 9.4 0.05 9.3 0.15 9.05 0.25 M4.1 5.05 L5.4 4.85 5.75 4.7 5.9 4.55 5.95 4.55 6.0 4.5 6.0 4.45 6.35 4.15 6.55 3.4 7.5 3.25 8.8 2.95 8.85 2.85 8.85 2.7 9.45 2.55 9.35 3.35 9.15 4.05 Q8.75 6.9 7.8 9.65 L7.4 11.2 7.0 11.45 6.7 11.6 Q3.55 13.45 -0.1 13.4 L-0.9 11.9 -0.45 11.15 0.35 10.65 Q1.6 9.85 2.15 8.7 L1.9 8.75 0.75 9.85 0.05 10.3 0.1 10.2 2.85 7.1 4.1 5.05 M3.25 13.45 Q5.4 12.9 7.25 11.75 L7.3 11.75 7.2 12.1 6.35 12.6 Q4.15 13.85 1.65 14.15 L1.5 14.15 0.25 14.2 0.1 13.95 0.05 13.85 3.25 13.45" fill="#dca285" fill-rule="evenodd" stroke="none"/>
      <path d="M5.6 1.55 L5.65 1.6 5.75 2.1 5.6 1.55 5.55 1.7 5.4 1.5 5.6 1.55 M2.4 1.5 L2.2 1.7 2.15 1.7 2.1 1.8 2.05 2.05 2.05 2.1 2.2 1.55 2.4 1.5 M6.6 3.0 L7.3 2.85 7.3 2.9 6.6 3.05 6.6 3.0 M9.4 0.05 L9.5 0.05 9.3 0.15 9.4 0.05 M4.95 3.6 L4.9 3.6 2.7 3.7 2.55 3.55 2.5 3.45 2.6 3.45 2.8 2.85 2.75 2.7 2.45 2.5 2.45 2.45 2.5 2.4 2.5 2.35 2.45 2.3 2.45 2.25 2.4 2.2 2.4 2.15 2.45 2.0 2.55 1.9 2.55 1.85 2.65 1.75 5.05 1.85 5.2 1.9 5.35 2.15 5.4 2.2 4.95 3.6 M-4.7 0.15 L-2.8 0.9 -2.85 0.95 -3.2 2.65 Q-4.45 2.2 -5.55 1.45 L-4.7 0.15 M-1.6 1.8 L-1.45 1.25 -1.6 1.8 M0.9 1.7 L0.85 1.8 0.85 2.0 0.85 2.05 0.5 2.05 0.45 2.1 0.35 2.1 0.3 2.15 0.2 2.4 0.1 2.65 0.05 2.8 0.1 2.9 0.75 3.25 -1.45 2.95 -1.35 2.55 -1.05 1.35 0.9 1.7 M1.05 2.45 L1.05 2.5 0.85 2.45 1.05 2.45 M-7.3 0.1 L-6.55 -1.05 -6.2 -0.75 -6.4 -0.45 -6.9 0.55 -7.3 0.1" fill="#7f4c00" fill-rule="evenodd" stroke="none"/>
      <path d="M5.65 1.6 L5.65 1.55 5.75 1.35 5.85 1.5 Q6.3 2.55 6.15 3.65 L6.0 4.05 5.8 4.15 5.65 4.2 5.6 4.2 4.65 4.4 4.9 4.05 5.45 3.9 5.6 3.8 Q6.0 2.95 5.75 2.2 L5.75 2.1 5.65 1.6 M2.4 3.0 L2.4 3.05 0.75 2.8 2.4 3.0" fill="#fc7931" fill-rule="evenodd" stroke="none"/>
      <path d="M1.75 1.3 Q3.6 1.0 5.5 1.35 L5.6 1.55 5.4 1.5 5.3 1.45 2.6 1.35 2.4 1.5 2.2 1.55 2.05 2.1 2.05 2.15 2.0 2.2 2.0 2.25 1.15 2.05 1.75 1.3 M5.55 4.25 Q3.65 4.95 1.7 4.25 L1.35 3.6 1.3 3.4 2.05 3.5 2.4 3.85 4.9 4.05 4.65 4.4 5.6 4.2 5.55 4.25 M1.5 2.55 L1.1 2.5 1.1 2.45 1.5 2.55 M0.5 2.65 L0.6 2.5 1.9 2.65 2.4 2.8 2.4 2.85 2.4 3.0 0.75 2.8 0.5 2.65" fill="#e6b300" fill-rule="evenodd" stroke="none"/>
      <path d="M-1.15 12.25 L-1.0 12.5 -1.15 12.25 M7.85 11.2 L7.8 11.2 8.35 9.3 9.2 6.4 7.85 11.2 M0.05 10.3 L0.75 9.85 -0.05 10.55 0.05 10.3 M7.0 11.45 L7.4 11.2 7.35 11.25 7.0 11.45 M3.25 13.45 L0.05 13.85 0.0 13.65 1.25 13.75 3.25 13.45 M0.1 13.95 L0.25 14.2 0.2 14.2 0.1 13.95 M-7.55 0.4 L-8.5 2.7 -8.05 1.2 -7.6 0.35 -7.55 0.4 M-3.05 13.25 L-2.35 13.35 -2.4 13.4 -3.05 13.25 M-6.6 -1.4 L-7.35 0.05 -7.4 0.0 -6.6 -1.4 M-9.65 11.25 L-9.7 11.05 -9.15 11.5 -7.7 12.35 -9.65 11.25" fill="#be7004" fill-rule="evenodd" stroke="none"/>
      <path d="M4.1 5.05 L2.85 7.1 0.1 10.2 1.0 8.6 1.15 7.65 0.85 8.1 0.3 9.0 -0.25 10.0 -2.15 13.05 -2.35 13.35 -3.05 13.25 -4.25 13.05 -7.0 12.3 -9.6 10.6 -9.65 10.55 -9.75 10.55 -9.75 10.15 -9.7 8.1 -8.9 3.95 -8.75 3.7 -8.5 2.7 -7.55 0.4 -7.05 0.9 -7.15 1.2 -7.0 1.35 -6.8 1.5 -5.95 1.95 -5.85 1.9 -5.8 1.85 -5.7 1.65 Q-4.75 2.7 -3.2 2.9 L-3.25 3.05 -1.85 3.35 -1.55 3.15 Q-0.45 3.7 0.95 3.65 L1.1 4.05 1.35 4.4 1.4 4.4 1.45 4.45 Q2.65 5.1 4.1 5.05 M-4.7 0.15 L-4.6 -0.05 -2.75 0.75 -2.8 0.9 -4.7 0.15 M-1.6 1.8 L-1.9 2.9 -2.85 2.7 -2.85 2.65 -2.35 0.7 -1.7 0.85 -1.4 1.05 -1.45 1.25 -1.6 1.8 M0.9 1.7 L-1.05 1.35 -0.95 1.1 1.05 1.4 0.9 1.7 M-6.6 -1.4 L-6.1 -0.95 -6.2 -0.75 -6.55 -1.05 -7.3 0.1 -7.35 0.05 -6.6 -1.4 M-5.25 -0.55 L-4.95 -0.15 -6.05 1.45 -6.75 1.0 -6.65 0.85 -5.7 -0.75 -5.6 -0.7 -5.55 -0.7 -5.25 -0.55 M-7.7 12.35 Q-5.3 13.5 -2.55 13.65 L-2.8 14.0 -3.1 13.95 Q-6.55 13.85 -9.45 12.1 L-9.45 12.0 -9.5 11.95 -9.55 11.95 -9.65 11.25 -7.7 12.35" fill="#ebb277" fill-rule="evenodd" stroke="none"/>
    </g>
  </defs>
</svg>
