<?xml version="1.0" encoding="UTF-8" standalone="no"?>
<svg xmlns:xlink="http://www.w3.org/1999/xlink" height="77.15px" width="80.25px" xmlns="http://www.w3.org/2000/svg">
  <g transform="matrix(1.0, 0.0, 0.0, 1.0, 36.85, 38.55)">
    <use height="72.85" transform="matrix(1.0, 0.0, 0.0, 1.0, -35.4, -36.4)" width="74.6" xlink:href="#shape0"/>
  </g>
  <defs>
    <g id="shape0" transform="matrix(1.0, 0.0, 0.0, 1.0, 35.4, 36.4)">
      <path d="M35.75 -22.45 Q29.6 -18.25 23.25 -14.55 L16.1 -10.4 16.85 -8.4 Q18.6 -3.55 17.2 1.8 L16.25 4.0 16.35 3.95 16.5 4.1 16.6 4.2 Q17.55 6.35 17.5 8.35 17.45 11.15 15.4 13.7 14.05 15.4 12.25 16.3 L12.2 16.35 10.65 17.1 9.3 17.95 8.35 18.2 8.2 18.15 Q4.85 22.8 1.95 27.85 -1.4 33.35 -7.4 35.6 -12.25 37.45 -17.2 35.35 L-18.05 34.9 Q-20.15 33.7 -21.25 31.15 L-21.85 28.4 -21.9 27.4 Q-22.0 25.0 -21.3 22.75 -26.0 22.05 -30.35 19.25 L-30.85 18.9 -30.9 18.9 Q-35.7 16.1 -35.4 10.6 -35.3 8.2 -34.55 6.05 L-34.1 5.05 -32.55 2.25 -31.5 1.0 Q-31.45 -1.05 -30.55 -2.85 -29.85 -4.65 -28.15 -5.5 -27.55 -6.05 -26.65 -6.15 L-25.25 -6.25 Q-23.2 -5.95 -22.2 -4.25 L-20.95 -4.35 -14.95 -4.3 -12.8 -3.8 -12.55 -4.0 -11.55 -4.5 -12.25 -5.0 Q-13.8 -6.1 -13.0 -7.2 L-11.55 -5.55 Q-11.9 -6.5 -11.4 -7.7 L-11.3 -7.7 Q-10.95 -7.15 -11.05 -6.35 L-11.0 -6.25 -10.6 -5.75 Q-9.8 -8.35 -8.2 -10.65 L-7.65 -11.55 -7.35 -11.9 -7.35 -12.25 -6.05 -14.55 -4.75 -16.0 Q-2.75 -17.8 -0.05 -18.25 L1.85 -18.55 2.75 -18.5 Q2.1 -25.15 3.5 -31.75 3.9 -34.0 5.65 -35.4 L6.35 -35.85 7.7 -36.3 8.2 -36.4 Q10.8 -35.7 11.05 -32.85 11.6 -25.4 8.8 -18.35 L8.3 -17.2 Q10.35 -16.3 12.05 -14.95 15.9 -19.65 20.25 -23.95 24.3 -28.05 29.45 -30.8 32.5 -32.5 35.9 -32.05 39.75 -31.35 39.1 -27.75 38.5 -24.4 35.75 -22.45 M12.25 -10.2 Q11.2 -11.1 11.05 -12.7 L10.95 -12.85 10.85 -13.0 10.85 -13.25 11.0 -13.6 11.15 -13.9 11.45 -14.25 Q7.75 -17.05 2.65 -17.45 L0.6 -17.5 Q-1.0 -17.1 -2.35 -16.3 L-1.2 -16.15 Q-1.1 -15.25 -2.95 -15.05 L-4.25 -14.95 -5.25 -13.85 -5.4 -13.65 -5.25 -13.7 -5.1 -13.7 -4.75 -13.6 -4.55 -13.45 -4.35 -13.0 -4.5 -12.75 Q-3.9 -11.15 -4.65 -9.15 -5.85 -6.15 -7.7 -3.55 -6.3 -2.8 -5.2 -1.7 L-5.05 -1.85 -4.95 -1.95 Q-3.8 -5.5 -2.05 -8.75 L-1.7 -9.55 Q0.85 -12.55 4.65 -12.6 7.9 -10.2 6.75 -5.85 L5.7 -2.75 5.15 -1.65 6.65 -2.0 Q5.7 -1.05 4.35 -0.65 L4.05 -0.15 3.95 -0.1 3.85 0.05 3.95 0.1 8.15 0.4 Q6.8 1.2 4.95 1.25 L5.65 1.65 Q6.5 2.2 7.55 2.55 L7.65 2.55 7.55 2.7 7.35 2.7 Q4.85 2.7 2.6 1.5 1.85 2.05 0.95 2.2 L1.9 1.1 0.85 0.45 Q-1.65 -1.35 -4.7 -1.15 L-3.5 0.45 -1.0 2.95 2.25 3.05 2.75 3.15 5.1 4.1 Q8.85 5.25 12.95 4.8 L15.05 4.3 15.85 2.25 16.2 1.7 Q17.3 -2.9 16.35 -7.3 16.15 -7.4 16.2 -7.65 L15.5 -9.25 Q15.3 -9.6 15.25 -9.9 L14.75 -9.6 14.65 -9.3 14.5 -9.15 Q13.05 -9.4 12.25 -10.2 M7.3 -13.45 L4.85 -14.65 Q5.6 -15.05 6.6 -14.65 9.4 -13.5 10.4 -10.4 L10.45 -10.35 Q10.6 -9.25 10.4 -8.25 L10.0 -6.95 Q9.8 -9.85 8.0 -12.35 L7.3 -13.45 M3.25 -11.55 Q1.95 -11.2 0.8 -10.55 -0.55 -9.6 -1.45 -8.1 L-1.8 -7.75 -4.15 -1.95 -2.95 -2.05 -1.4 -1.6 -1.3 -1.65 -1.2 -1.7 -0.85 -1.65 0.2 -1.4 Q2.05 -1.25 3.9 -1.45 L4.35 -2.05 Q5.25 -4.05 5.8 -6.25 6.6 -9.5 4.25 -11.3 3.8 -11.7 3.25 -11.55 M2.05 -0.25 L2.85 -0.1 3.05 -0.3 2.5 -0.25 2.05 -0.25 M13.4 14.2 L14.55 13.15 Q16.6 11.4 16.55 8.6 L16.55 7.8 Q16.35 6.55 15.8 5.35 L15.7 4.9 Q13.2 6.45 9.7 6.1 6.45 5.65 3.6 4.55 L2.5 4.1 2.15 3.9 Q-0.35 4.55 -1.95 3.45 L-1.7 3.85 -1.55 4.5 -1.2 5.35 -1.0 5.7 -0.85 7.15 Q-0.6 8.15 -0.7 9.2 L-0.9 9.45 -0.85 9.55 Q-0.8 9.8 -1.05 9.75 -1.5 9.1 -1.6 8.2 L-2.0 5.9 Q-3.65 0.55 -8.15 -2.65 L-8.3 -2.8 Q-8.45 -2.8 -8.6 -2.95 L-9.55 -3.2 -11.25 -3.45 -13.25 -2.15 Q-14.65 -0.8 -15.25 1.35 -15.6 2.45 -15.55 3.65 -15.9 4.5 -15.8 5.45 L-15.75 5.9 -16.0 6.4 -16.4 5.25 -16.4 5.2 Q-17.05 2.9 -15.85 0.15 -15.2 -1.35 -14.15 -2.55 L-13.7 -3.05 -16.8 -3.25 -25.8 -2.7 -25.85 -2.8 -25.8 -3.0 -25.75 -3.1 Q-24.55 -3.8 -23.2 -4.1 -25.35 -6.1 -28.2 -4.5 -29.2 -3.5 -29.75 -2.15 L-30.5 -0.25 -30.55 0.0 -30.45 -0.1 -28.3 -1.45 Q-27.95 -1.05 -28.35 -0.7 L-28.4 -0.6 Q-31.15 1.45 -32.65 4.2 -33.75 6.1 -34.3 8.45 L-34.35 8.65 Q-35.0 12.95 -32.45 16.5 L-32.35 16.6 Q-27.35 20.45 -21.0 21.65 L-14.55 22.05 -12.35 21.75 Q-7.65 20.95 -3.25 18.9 L-3.25 18.85 Q3.6 15.5 9.5 10.35 L10.45 9.25 10.75 8.95 8.35 8.9 6.9 8.95 6.75 8.85 6.7 8.6 6.75 8.45 Q7.15 8.05 7.7 7.9 L8.25 7.75 9.75 7.65 Q11.0 7.65 11.85 8.1 L11.95 8.15 12.1 8.15 12.45 8.45 12.7 8.7 Q13.5 9.5 13.55 10.9 L13.5 10.9 12.2 9.8 11.65 9.45 10.65 10.45 8.35 13.35 4.7 17.25 Q-0.75 22.4 -5.65 27.85 L-6.45 28.7 Q-8.25 30.4 -10.8 31.05 -13.1 31.75 -14.95 31.05 L-15.05 31.05 -17.05 30.15 Q-18.65 28.35 -18.75 26.0 L-18.7 25.95 -18.85 25.7 Q-19.05 24.3 -18.6 22.95 L-20.4 22.85 -20.45 22.9 Q-22.0 28.05 -19.05 32.3 L-18.7 32.7 -17.7 33.75 -16.35 34.75 Q-10.4 36.8 -4.95 33.5 -3.15 32.35 -1.85 30.75 1.55 26.55 4.3 21.95 6.75 17.9 10.2 15.1 L10.35 15.1 10.15 15.6 10.1 15.7 9.15 16.85 8.9 17.2 9.35 16.95 Q11.45 15.75 13.4 14.2 M-1.8 19.4 L-4.65 20.75 -5.55 21.5 Q-7.15 22.45 -7.5 24.3 -8.0 26.2 -6.75 27.7 -4.8 26.2 -3.2 24.25 -0.95 21.3 1.75 18.7 L5.5 14.85 1.1 17.8 -1.05 18.85 -1.8 19.4 M-5.3 -12.75 Q-8.55 -9.35 -9.9 -4.95 L-9.25 -4.25 -8.35 -3.85 -8.3 -3.85 Q-6.5 -7.2 -5.3 -10.95 L-5.25 -11.25 Q-5.15 -11.8 -5.2 -12.3 L-5.2 -12.7 -5.25 -12.8 -5.3 -12.75 M-8.75 2.05 Q-6.25 3.55 -6.1 6.65 -6.05 9.0 -7.45 10.85 -9.55 10.9 -10.3 8.75 -11.05 6.9 -11.1 5.05 -11.15 2.7 -9.05 2.0 L-8.9 2.0 -8.75 2.05 M-12.75 22.9 L-16.05 23.1 -17.65 23.0 Q-18.55 26.7 -16.25 29.25 -12.95 31.25 -9.15 29.25 L-8.85 29.05 -7.7 28.35 -7.65 28.35 -7.8 28.2 Q-9.45 24.2 -7.15 21.65 L-12.75 22.9" fill="#000000" fill-rule="evenodd" stroke="none"/>
      <path d="M-5.25 -13.85 L-4.25 -14.95 -2.95 -15.05 Q-1.1 -15.25 -1.2 -16.15 L-2.35 -16.3 Q-1.0 -17.1 0.6 -17.5 L2.65 -17.45 Q7.75 -17.05 11.45 -14.25 L11.15 -13.9 11.0 -13.6 10.85 -13.25 10.85 -13.0 10.95 -12.85 11.05 -12.7 Q11.2 -11.1 12.25 -10.2 L12.3 -8.1 12.25 -7.15 Q11.85 -2.15 8.5 1.55 L7.55 2.55 Q6.5 2.2 5.65 1.65 L4.95 1.25 Q6.8 1.2 8.15 0.4 L3.95 0.1 3.95 -0.1 4.05 -0.15 4.35 -0.65 Q5.7 -1.05 6.65 -2.0 L5.15 -1.65 5.7 -2.75 6.75 -5.85 Q7.9 -10.2 4.65 -12.6 0.85 -12.55 -1.7 -9.55 L-2.05 -8.75 Q-3.8 -5.5 -4.95 -1.95 L-5.05 -1.85 -5.2 -1.7 Q-6.3 -2.8 -7.7 -3.55 -5.85 -6.15 -4.65 -9.15 -3.9 -11.15 -4.5 -12.75 L-4.35 -13.0 -4.55 -13.45 -4.75 -13.6 -5.1 -13.7 -5.25 -13.85 M5.1 4.1 L2.75 3.15 2.25 3.05 -1.0 2.95 -3.5 0.45 -4.7 -1.15 Q-1.65 -1.35 0.85 0.45 L1.9 1.1 0.95 2.2 Q1.85 2.05 2.6 1.5 4.85 2.7 7.35 2.7 6.3 3.55 5.1 4.1 M3.25 -11.55 Q3.8 -11.7 4.25 -11.3 6.6 -9.5 5.8 -6.25 5.25 -4.05 4.35 -2.05 L3.9 -1.45 Q2.05 -1.25 0.2 -1.4 L-0.85 -1.65 -1.2 -1.7 -1.3 -1.65 -1.4 -1.6 -2.95 -2.05 -4.15 -1.95 -1.8 -7.75 -1.45 -8.1 Q-0.55 -9.6 0.8 -10.55 1.95 -11.2 3.25 -11.55 M7.3 -13.45 L8.0 -12.35 Q9.8 -9.85 10.0 -6.95 L10.4 -8.25 Q10.6 -9.25 10.45 -10.35 L10.4 -10.4 Q9.4 -13.5 6.6 -14.65 5.6 -15.05 4.85 -14.65 L7.3 -13.45 M-5.2 -12.7 L-5.2 -12.3 Q-5.15 -11.8 -5.25 -11.25 L-5.3 -10.95 Q-6.5 -7.2 -8.3 -3.85 L-8.35 -3.85 -9.25 -4.25 -9.9 -4.95 Q-8.55 -9.35 -5.3 -12.75 L-5.2 -12.7" fill="#75640a" fill-rule="evenodd" stroke="none"/>
      <path d="M7.55 2.55 L8.5 1.55 Q11.85 -2.15 12.25 -7.15 L12.3 -8.1 12.25 -10.2 Q13.05 -9.4 14.5 -9.15 L14.65 -9.3 14.75 -9.6 15.25 -9.9 Q15.3 -9.6 15.5 -9.25 L16.2 -7.65 Q16.15 -7.4 16.35 -7.3 17.3 -2.9 16.2 1.7 L15.85 2.25 15.05 4.3 12.95 4.8 Q8.85 5.25 5.1 4.1 6.3 3.55 7.35 2.7 L7.55 2.7 7.65 2.55 7.55 2.55" fill="#5f5300" fill-rule="evenodd" stroke="none"/>
      <path d="M-16.4 5.2 L-16.4 5.25 -16.0 6.4 -15.75 5.9 -15.8 5.45 Q-15.9 4.5 -15.55 3.65 -15.6 2.45 -15.25 1.35 -14.65 -0.8 -13.25 -2.15 L-11.25 -3.45 -9.55 -3.2 -8.6 -2.95 Q-8.45 -2.8 -8.3 -2.8 L-8.15 -2.65 Q-3.65 0.55 -2.0 5.9 L-1.6 8.2 Q-1.5 9.1 -1.05 9.75 -0.8 9.8 -0.85 9.55 L-0.9 9.45 -0.7 9.2 Q-0.6 8.15 -0.85 7.15 L-1.0 5.7 -1.2 5.35 -1.55 4.5 -1.7 3.85 -1.95 3.45 Q-0.35 4.55 2.15 3.9 L2.5 4.1 3.6 4.55 Q6.45 5.65 9.7 6.1 13.2 6.45 15.7 4.9 L15.8 5.35 Q16.35 6.55 16.55 7.8 L16.55 8.6 Q16.6 11.4 14.55 13.15 L13.4 14.2 13.65 13.6 14.0 12.1 14.1 11.35 Q14.05 10.2 13.5 9.1 L13.25 8.7 12.8 8.1 12.65 7.9 12.7 8.25 12.7 8.5 12.7 8.7 12.45 8.45 12.1 8.15 11.95 8.15 11.85 8.1 Q11.0 7.65 9.75 7.65 L8.25 7.75 7.7 7.9 Q7.15 8.05 6.75 8.45 L6.7 8.6 6.3 9.0 1.25 12.6 -0.2 13.25 Q-3.4 14.55 -6.6 15.0 L-7.35 15.05 -12.15 14.45 -14.0 13.7 -14.3 13.55 -15.8 12.4 -18.9 9.15 -19.45 8.7 -23.75 5.1 -24.2 4.8 Q-25.8 4.15 -27.55 3.85 L-32.25 4.1 -32.65 4.2 Q-31.15 1.45 -28.4 -0.6 L-28.35 -0.7 Q-27.95 -1.05 -28.3 -1.45 L-30.45 -0.1 -30.5 -0.25 -29.75 -2.15 Q-29.2 -3.5 -28.2 -4.5 -25.35 -6.1 -23.2 -4.1 -24.55 -3.8 -25.75 -3.1 L-25.8 -3.0 -25.85 -2.8 -25.8 -2.7 -16.8 -3.25 -13.7 -3.05 -14.15 -2.55 Q-16.65 -2.85 -17.65 -0.5 L-17.9 0.5 Q-18.4 2.3 -17.65 3.9 L-17.0 4.9 -16.6 5.2 -16.4 5.2 M-18.7 32.7 L-19.05 32.3 Q-22.0 28.05 -20.45 22.9 L-20.4 22.85 -18.6 22.95 Q-19.05 24.3 -18.85 25.7 L-18.7 25.95 -18.75 26.0 Q-18.65 28.35 -17.05 30.15 L-15.05 31.05 -14.95 31.05 Q-13.1 31.75 -10.8 31.05 -8.25 30.4 -6.45 28.7 L-5.65 27.85 Q-0.75 22.4 4.7 17.25 L8.35 13.35 6.8 15.7 6.35 16.35 Q4.95 18.95 3.2 21.05 L2.5 22.05 1.5 23.25 -0.2 25.25 -0.75 25.8 -2.75 28.05 Q-4.2 29.7 -6.15 31.15 L-8.15 32.25 Q-9.85 33.15 -11.95 33.55 L-16.5 33.2 -18.15 32.7 -18.65 32.55 -18.7 32.7 M-8.75 2.05 L-8.9 2.0 -9.05 2.0 Q-11.15 2.7 -11.1 5.05 -11.05 6.9 -10.3 8.75 -9.55 10.9 -7.45 10.85 -6.05 9.0 -6.1 6.65 -6.25 3.55 -8.75 2.05" fill="#cfb392" fill-rule="evenodd" stroke="none"/>
      <path d="M-16.4 5.2 L-16.6 5.2 -17.0 4.9 -17.65 3.9 Q-18.4 2.3 -17.9 0.5 L-17.65 -0.5 Q-16.65 -2.85 -14.15 -2.55 -15.2 -1.35 -15.85 0.15 -17.05 2.9 -16.4 5.2 M-32.65 4.2 L-32.25 4.1 -27.55 3.85 Q-25.8 4.15 -24.2 4.8 L-23.75 5.1 -19.45 8.7 -18.9 9.15 -15.8 12.4 -14.3 13.55 -14.0 13.7 -12.15 14.45 -7.35 15.05 -6.6 15.0 Q-3.4 14.55 -0.2 13.25 L1.25 12.6 6.3 9.0 6.7 8.6 6.75 8.85 6.9 8.95 8.35 8.9 10.75 8.95 10.45 9.25 9.5 10.35 Q3.6 15.5 -3.25 18.85 L-3.25 18.9 Q-7.65 20.95 -12.35 21.75 L-14.55 22.05 -21.0 21.65 Q-27.35 20.45 -32.35 16.6 L-32.45 16.5 Q-35.0 12.95 -34.35 8.65 L-34.3 8.45 Q-33.75 6.1 -32.65 4.2 M12.7 8.7 L12.7 8.5 12.7 8.25 12.65 7.9 12.8 8.1 13.25 8.7 13.5 9.1 Q14.05 10.2 14.1 11.35 L14.0 12.1 13.65 13.6 13.4 14.2 Q11.45 15.75 9.35 16.95 L9.15 16.85 10.1 15.7 10.15 15.6 10.35 15.1 10.2 15.1 Q6.75 17.9 4.3 21.95 1.55 26.55 -1.85 30.75 -3.15 32.35 -4.95 33.5 -10.4 36.8 -16.35 34.75 L-17.7 33.75 -18.7 32.7 -18.65 32.55 -18.15 32.7 -16.5 33.2 -11.95 33.55 Q-9.85 33.15 -8.15 32.25 L-6.15 31.15 Q-4.2 29.7 -2.75 28.05 L-0.75 25.8 -0.2 25.25 1.5 23.25 2.5 22.05 3.2 21.05 Q4.95 18.95 6.35 16.35 L6.8 15.7 8.35 13.35 10.65 10.45 11.65 9.45 12.2 9.8 13.5 10.9 13.55 10.9 Q13.5 9.5 12.7 8.7" fill="#c19b6b" fill-rule="evenodd" stroke="none"/>
      <path d="M-1.8 19.4 L-1.05 18.85 1.1 17.8 5.5 14.85 1.75 18.7 Q-0.95 21.3 -3.2 24.25 -4.8 26.2 -6.75 27.7 -8.0 26.2 -7.5 24.3 -7.15 22.45 -5.55 21.5 L-4.65 20.75 -1.8 19.4" fill="#ff66cc" fill-rule="evenodd" stroke="none"/>
      <path d="M-8.85 29.05 L-9.15 29.25 Q-12.95 31.25 -16.25 29.25 -18.55 26.7 -17.65 23.0 L-16.05 23.1 -12.75 22.9 -13.25 24.35 -13.35 25.1 Q-13.25 27.4 -11.15 28.4 L-10.2 28.8 -8.85 29.05" fill="#660000" fill-rule="evenodd" stroke="none"/>
      <path d="M-8.85 29.05 L-10.2 28.8 -11.15 28.4 Q-13.25 27.4 -13.35 25.1 L-13.25 24.35 -12.75 22.9 -7.15 21.65 Q-9.45 24.2 -7.8 28.2 L-7.7 28.35 -8.85 29.05" fill="#3c0000" fill-rule="evenodd" stroke="none"/>
    </g>
  </defs>
</svg>
