<?xml version="1.0" encoding="UTF-8" standalone="no"?>
<svg xmlns:xlink="http://www.w3.org/1999/xlink" height="77.15px" width="80.25px" xmlns="http://www.w3.org/2000/svg">
  <g transform="matrix(1.0, 0.0, 0.0, 1.0, 36.85, 38.55)">
    <use height="70.45" transform="matrix(1.0, 0.0, 0.0, 1.0, -36.35, -35.5)" width="78.35" xlink:href="#shape0"/>
  </g>
  <defs>
    <g id="shape0" transform="matrix(1.0, 0.0, 0.0, 1.0, 36.35, 35.5)">
      <path d="M14.4 -31.65 Q14.2 -24.2 10.7 -17.45 L10.15 -16.4 Q12.05 -15.3 13.55 -13.75 17.9 -18.0 22.65 -21.85 27.1 -25.5 32.55 -27.7 35.8 -29.05 39.05 -28.35 42.8 -27.15 41.8 -23.65 40.8 -20.35 37.9 -18.75 31.4 -15.15 24.65 -12.25 L17.1 -8.8 17.65 -6.8 Q18.95 -1.8 16.95 3.45 L15.75 5.5 15.85 5.5 16.0 5.65 16.1 5.75 Q16.8 8.0 16.5 10.0 16.15 12.75 14.0 15.05 12.5 16.6 10.5 17.35 L10.45 17.4 8.85 17.95 Q8.55 18.4 7.45 18.65 L6.5 18.85 6.35 18.75 Q2.45 23.05 -0.95 27.7 -4.85 32.85 -11.0 34.5 -16.0 35.85 -20.7 33.25 L-21.45 32.65 Q-23.45 31.25 -24.3 28.55 -24.65 27.15 -24.6 25.8 L-24.55 24.8 Q-24.45 22.45 -23.5 20.2 -28.05 19.05 -32.15 15.8 L-32.65 15.45 Q-37.1 12.2 -36.2 6.7 -35.9 4.35 -34.95 2.3 L-34.4 1.4 -32.55 -1.3 -31.35 -2.5 Q-31.1 -4.5 -30.05 -6.25 -29.1 -7.9 -27.35 -8.55 -26.7 -9.05 -25.8 -9.1 L-24.4 -8.95 Q-22.35 -8.45 -21.55 -6.7 L-20.3 -6.65 -14.3 -6.0 -12.3 -5.25 -12.0 -5.45 -10.95 -5.85 -11.6 -6.4 Q-13.05 -7.6 -12.1 -8.7 L-10.85 -6.9 Q-11.1 -7.9 -10.55 -9.0 L-10.45 -9.05 Q-10.15 -8.45 -10.35 -7.7 L-10.3 -7.6 -9.95 -7.0 Q-8.9 -9.5 -7.05 -11.65 L-6.4 -12.45 -6.05 -12.8 -6.0 -13.05 -4.45 -15.2 -3.1 -16.6 Q-0.8 -18.05 1.9 -18.25 L3.85 -18.4 4.7 -18.3 Q4.75 -24.85 6.85 -31.35 7.5 -33.55 9.35 -34.75 L10.1 -35.15 11.45 -35.45 11.95 -35.5 Q14.5 -34.55 14.4 -31.65 M6.35 -14.15 L8.2 -14.0 Q10.85 -12.6 11.5 -9.45 L11.5 -9.4 11.25 -7.25 10.7 -6.1 Q10.85 -8.9 9.35 -11.55 L8.75 -12.75 6.35 -14.15 M13.2 -9.0 Q12.35 -10.05 12.4 -11.65 L12.3 -11.85 12.2 -11.95 12.25 -12.2 12.4 -12.55 12.6 -12.8 12.9 -13.15 Q9.6 -16.3 4.5 -17.2 L2.45 -17.5 Q0.9 -17.25 -0.55 -16.55 L0.55 -16.4 Q0.5 -15.4 -1.3 -15.4 L-2.65 -15.4 -3.75 -14.4 -3.95 -14.2 -3.8 -14.3 -3.65 -14.3 -3.3 -14.1 -3.15 -13.95 Q-3.0 -13.8 -3.0 -13.45 L-3.1 -13.25 Q-2.65 -11.65 -3.65 -9.75 -5.15 -6.85 -7.25 -4.45 L-4.95 -2.4 -4.75 -2.55 -4.8 -2.65 Q-3.15 -6.0 -1.1 -9.05 L-0.65 -9.85 Q2.15 -12.55 5.95 -12.25 9.0 -9.45 7.4 -5.3 L6.05 -2.25 5.35 -1.25 6.9 -1.4 Q5.8 -0.65 4.45 -0.35 L4.05 0.1 3.95 0.25 3.85 0.35 3.95 0.4 8.15 1.1 Q6.7 1.75 4.85 1.6 L5.5 2.1 7.35 3.15 7.45 3.2 7.3 3.3 7.1 3.3 Q4.65 3.0 2.45 1.55 1.65 2.0 0.7 2.1 L1.8 1.1 0.85 0.35 Q-1.4 -1.65 -4.5 -1.8 L-3.5 -0.05 -1.25 2.65 1.95 3.1 2.5 3.2 4.7 4.4 Q8.3 6.0 12.4 5.95 L14.6 5.7 15.6 3.7 16.0 3.25 Q17.5 -1.25 17.05 -5.7 L16.9 -6.1 16.4 -7.7 16.15 -8.4 15.65 -8.2 15.55 -7.85 15.35 -7.75 Q13.95 -8.2 13.2 -9.0 M2.0 -10.6 Q0.5 -9.75 -0.55 -8.4 L-0.95 -8.0 -3.85 -2.55 -2.6 -2.5 -1.15 -1.9 -1.1 -1.95 -0.95 -1.9 -0.6 -1.85 Q0.0 -1.85 0.35 -1.5 L4.1 -1.2 4.55 -1.7 Q5.7 -3.6 6.5 -5.8 7.65 -8.9 5.45 -11.0 L4.45 -11.3 2.0 -10.6 M2.1 -0.2 L2.9 0.1 3.1 -0.2 2.55 -0.15 2.1 -0.2 M11.85 15.3 L13.2 14.45 Q15.4 12.85 15.6 10.2 L15.65 9.4 Q15.65 8.05 15.2 6.8 L15.2 6.35 Q12.5 7.7 9.05 6.95 5.9 6.2 3.1 4.7 L2.15 4.2 1.7 3.9 Q-0.75 4.3 -2.25 3.05 L-2.0 3.5 -1.95 4.2 -1.75 5.05 -1.6 5.4 -1.5 6.85 Q-1.4 7.95 -1.6 8.95 L-1.8 9.2 -1.8 9.3 Q-1.75 9.55 -2.05 9.4 L-2.35 7.85 -2.55 5.5 Q-3.65 0.0 -7.8 -3.6 L-7.95 -3.75 -8.2 -4.0 -9.15 -4.35 -10.75 -4.75 -12.85 -3.65 Q-14.35 -2.55 -15.25 -0.4 -15.7 0.65 -15.8 1.8 -16.2 2.7 -16.2 3.65 L-16.3 4.05 -16.5 4.55 -16.8 3.4 -16.85 3.35 Q-17.2 0.9 -15.75 -1.65 -14.95 -3.1 -13.75 -4.15 L-13.25 -4.6 -16.3 -5.15 -25.3 -5.5 -25.3 -5.6 -25.3 -5.8 -25.3 -5.9 -22.5 -6.6 Q-24.55 -8.85 -27.55 -7.55 -28.6 -6.65 -29.25 -5.4 L-30.25 -3.6 -30.3 -3.3 -30.15 -3.4 Q-29.15 -4.1 -27.9 -4.5 -27.65 -4.1 -28.1 -3.8 L-28.15 -3.7 Q-31.1 -1.95 -32.9 0.65 -34.15 2.4 -34.9 4.65 L-35.0 4.85 Q-36.05 9.15 -33.95 12.9 L-33.85 13.0 Q-29.3 17.35 -23.1 19.15 -19.95 20.0 -16.7 20.25 L-14.45 20.2 Q-9.8 19.9 -5.2 18.25 2.05 15.6 8.4 11.15 L9.5 10.15 9.8 9.85 7.45 9.6 6.0 9.5 5.85 9.35 5.9 9.15 5.85 9.0 Q6.3 8.65 6.9 8.55 L7.45 8.45 8.95 8.5 Q10.15 8.7 10.95 9.2 L11.1 9.25 11.2 9.2 11.55 9.55 11.8 9.85 Q12.5 10.7 12.35 12.1 L12.35 12.15 11.15 10.9 10.65 10.4 9.5 11.35 6.95 13.95 2.9 17.5 Q-3.05 22.0 -8.5 27.0 L-9.35 27.7 Q-11.35 29.15 -13.9 29.6 -16.25 30.05 -18.0 29.2 L-18.1 29.15 -20.0 28.05 Q-21.5 26.05 -21.25 23.75 L-21.25 23.7 -21.4 23.45 Q-21.4 22.0 -20.8 20.7 L-22.6 20.4 Q-24.75 25.45 -22.2 30.0 L-22.0 30.35 -21.05 31.55 -19.75 32.7 Q-14.05 35.4 -8.35 32.65 -6.45 31.7 -5.0 30.25 -1.2 26.4 2.05 22.1 4.85 18.35 8.6 15.85 L8.75 15.85 8.5 16.35 8.4 16.4 7.4 17.55 7.15 17.9 7.6 17.7 11.85 15.3 M-3.9 -13.3 Q-7.45 -10.35 -9.3 -6.1 L-8.75 -5.3 -7.9 -4.85 -7.85 -4.8 Q-5.7 -8.05 -4.1 -11.65 L-4.0 -11.9 -3.85 -12.95 -3.85 -13.3 -3.85 -13.35 -3.9 -13.3 M-8.9 0.9 Q-6.6 2.7 -6.75 5.85 -6.9 8.2 -8.55 9.8 -10.6 9.7 -11.1 7.5 -11.7 5.6 -11.55 3.7 -11.35 1.3 -9.2 0.9 L-9.05 0.9 -8.9 0.9 M-15.0 21.2 L-18.25 21.15 -19.9 20.85 Q-21.2 24.45 -19.15 27.2 -16.05 29.6 -12.1 27.95 L-11.75 27.8 -10.6 27.25 -10.5 27.2 -10.7 27.05 Q-11.95 22.95 -9.35 20.6 L-15.0 21.2 M-3.75 18.95 L-6.75 19.95 -7.7 20.65 Q-9.35 21.4 -9.95 23.2 -10.7 25.1 -9.55 26.7 -7.45 25.4 -5.65 23.6 -3.1 20.95 -0.2 18.6 L4.0 15.15 -0.75 17.65 -2.95 18.5 -3.75 18.95" fill="#000000" fill-rule="evenodd" stroke="none"/>
      <path d="M-3.75 -14.4 L-2.65 -15.4 -1.3 -15.4 Q0.5 -15.4 0.55 -16.4 L-0.55 -16.55 Q0.9 -17.25 2.45 -17.5 L4.5 -17.2 Q9.6 -16.3 12.9 -13.15 L12.6 -12.8 12.4 -12.55 12.25 -12.2 12.2 -11.95 12.3 -11.85 12.4 -11.65 Q12.35 -10.05 13.2 -9.0 L13.1 -6.9 12.95 -6.0 Q12.0 -1.05 8.4 2.3 L7.35 3.15 5.5 2.1 4.85 1.6 Q6.7 1.75 8.15 1.1 L3.95 0.4 3.95 0.25 4.05 0.1 4.45 -0.35 Q5.8 -0.65 6.9 -1.4 L5.35 -1.25 6.05 -2.25 7.4 -5.3 Q9.0 -9.45 5.95 -12.25 2.15 -12.55 -0.65 -9.85 L-1.1 -9.05 Q-3.15 -6.0 -4.8 -2.65 L-4.75 -2.55 -4.95 -2.4 -7.25 -4.45 Q-5.15 -6.85 -3.65 -9.75 -2.65 -11.65 -3.1 -13.25 L-3.0 -13.45 Q-3.0 -13.8 -3.15 -13.95 L-3.3 -14.1 -3.65 -14.3 -3.75 -14.4 M6.35 -14.15 L8.75 -12.75 9.35 -11.55 Q10.85 -8.9 10.7 -6.1 L11.25 -7.25 11.5 -9.4 11.5 -9.45 Q10.85 -12.6 8.2 -14.0 L6.35 -14.15 M4.7 4.4 L2.5 3.2 1.95 3.1 -1.25 2.65 -3.5 -0.05 -4.5 -1.8 Q-1.4 -1.65 0.85 0.35 L1.8 1.1 0.7 2.1 Q1.65 2.0 2.45 1.55 4.65 3.0 7.1 3.3 5.95 4.0 4.7 4.4 M2.0 -10.6 L4.45 -11.3 5.45 -11.0 Q7.65 -8.9 6.5 -5.8 5.7 -3.6 4.55 -1.7 L4.1 -1.2 0.35 -1.5 Q0.0 -1.85 -0.6 -1.85 L-0.95 -1.9 -1.1 -1.95 -1.15 -1.9 -2.6 -2.5 -3.85 -2.55 -0.95 -8.0 -0.55 -8.4 Q0.5 -9.75 2.0 -10.6 M-3.85 -13.3 L-3.85 -12.95 -4.0 -11.9 -4.1 -11.65 Q-5.7 -8.05 -7.85 -4.8 L-7.9 -4.85 -8.75 -5.3 -9.3 -6.1 Q-7.45 -10.35 -3.9 -13.3 L-3.85 -13.3" fill="#75640a" fill-rule="evenodd" stroke="none"/>
      <path d="M7.35 3.15 L8.4 2.3 Q12.0 -1.05 12.95 -6.0 L13.1 -6.9 13.2 -9.0 Q13.95 -8.2 15.35 -7.75 L15.55 -7.85 15.65 -8.2 16.15 -8.4 16.4 -7.7 16.9 -6.1 17.05 -5.7 Q17.5 -1.25 16.0 3.25 L15.6 3.7 14.6 5.7 12.4 5.95 Q8.3 6.0 4.7 4.4 5.95 4.0 7.1 3.3 L7.3 3.3 7.45 3.2 7.35 3.15" fill="#5f5300" fill-rule="evenodd" stroke="none"/>
      <path d="M-16.85 3.35 L-16.8 3.4 -16.5 4.55 -16.3 4.05 -16.2 3.65 Q-16.2 2.7 -15.8 1.8 -15.7 0.65 -15.25 -0.4 -14.35 -2.55 -12.85 -3.65 L-10.75 -4.75 -9.15 -4.35 -8.2 -4.0 -7.95 -3.75 -7.8 -3.6 Q-3.65 0.0 -2.55 5.5 L-2.35 7.85 -2.05 9.4 Q-1.75 9.55 -1.8 9.3 L-1.8 9.2 -1.6 8.95 Q-1.4 7.95 -1.5 6.85 L-1.6 5.4 -1.75 5.05 -1.95 4.2 -2.0 3.5 -2.25 3.05 Q-0.75 4.3 1.7 3.9 L2.15 4.2 3.1 4.7 Q5.9 6.2 9.05 6.95 12.5 7.7 15.2 6.35 L15.2 6.8 Q15.65 8.05 15.65 9.4 L15.6 10.2 Q15.4 12.85 13.2 14.45 L11.85 15.3 12.25 14.75 12.7 13.25 12.85 12.6 Q12.95 11.45 12.5 10.3 L12.3 9.9 11.9 9.25 11.8 9.0 11.8 9.35 11.8 9.65 11.8 9.85 11.55 9.55 11.2 9.2 11.1 9.25 10.95 9.2 Q10.15 8.7 8.95 8.5 L7.45 8.45 6.9 8.55 Q6.3 8.65 5.85 9.0 L5.9 9.15 5.4 9.45 0.0 12.5 -1.5 13.0 Q-4.85 13.95 -8.15 14.1 L-8.95 14.05 -13.5 13.0 Q-14.7 12.6 -15.25 12.05 L-15.55 11.85 -16.9 10.55 -19.65 7.0 -20.1 6.5 -24.05 2.5 -24.45 2.15 Q-26.0 1.3 -27.75 0.85 L-32.45 0.55 -32.9 0.65 Q-31.1 -1.95 -28.15 -3.7 L-28.1 -3.8 Q-27.65 -4.1 -27.9 -4.5 -29.15 -4.1 -30.15 -3.4 L-30.25 -3.6 -29.25 -5.4 Q-28.6 -6.65 -27.55 -7.55 -24.55 -8.85 -22.5 -6.6 L-25.3 -5.9 -25.3 -5.8 -25.3 -5.6 -25.3 -5.5 -16.3 -5.15 -13.25 -4.6 -13.75 -4.15 Q-16.2 -4.7 -17.4 -2.45 L-17.8 -1.55 Q-18.45 0.15 -17.85 1.9 L-17.35 3.0 -17.05 3.35 -16.85 3.35 M-22.0 30.35 L-22.2 30.0 Q-24.75 25.45 -22.6 20.4 L-20.8 20.7 Q-21.4 22.0 -21.4 23.45 L-21.25 23.7 -21.25 23.75 Q-21.5 26.05 -20.0 28.05 L-18.1 29.15 -18.0 29.2 Q-16.25 30.05 -13.9 29.6 -11.35 29.15 -9.35 27.7 L-8.5 27.0 Q-3.05 22.0 2.9 17.5 L6.95 13.95 5.2 16.15 4.65 16.8 1.05 21.1 0.2 21.95 -0.9 23.15 -2.8 24.95 -3.4 25.45 -5.6 27.45 Q-7.25 28.95 -9.35 30.15 L-11.4 31.05 Q-13.2 31.75 -15.35 31.9 -17.65 32.05 -19.8 31.15 L-21.4 30.45 -21.9 30.2 -22.0 30.35 M-8.9 0.9 L-9.05 0.9 -9.2 0.9 Q-11.35 1.3 -11.55 3.7 -11.7 5.6 -11.1 7.5 -10.6 9.7 -8.55 9.8 -6.9 8.2 -6.75 5.85 -6.6 2.7 -8.9 0.9" fill="#cfb392" fill-rule="evenodd" stroke="none"/>
      <path d="M-16.85 3.35 L-17.05 3.35 -17.35 3.0 -17.85 1.9 Q-18.45 0.15 -17.8 -1.55 L-17.4 -2.45 Q-16.2 -4.7 -13.75 -4.15 -14.95 -3.1 -15.75 -1.65 -17.2 0.9 -16.85 3.35 M-32.9 0.65 L-32.45 0.55 -27.75 0.85 Q-26.0 1.3 -24.45 2.15 L-24.05 2.5 -20.1 6.5 -19.65 7.0 -16.9 10.55 -15.55 11.85 -15.25 12.05 Q-14.7 12.6 -13.5 13.0 L-8.95 14.05 -8.15 14.1 Q-4.85 13.95 -1.5 13.0 L0.0 12.5 5.4 9.45 5.9 9.15 5.85 9.35 6.0 9.5 7.45 9.6 9.8 9.85 9.5 10.15 8.4 11.15 Q2.05 15.6 -5.2 18.25 -9.8 19.9 -14.45 20.2 L-16.7 20.25 Q-19.95 20.0 -23.1 19.15 -29.3 17.35 -33.85 13.0 L-33.95 12.9 Q-36.05 9.15 -35.0 4.85 L-34.9 4.65 Q-34.15 2.4 -32.9 0.65 M11.8 9.85 L11.8 9.65 11.8 9.35 11.8 9.0 11.9 9.25 12.3 9.9 12.5 10.3 Q12.95 11.45 12.85 12.6 L12.7 13.25 12.25 14.75 11.85 15.3 7.6 17.7 7.4 17.55 8.4 16.4 8.5 16.35 8.75 15.85 8.6 15.85 Q4.85 18.35 2.05 22.1 -1.2 26.4 -5.0 30.25 -6.45 31.7 -8.35 32.65 -14.05 35.4 -19.75 32.7 L-21.05 31.55 -22.0 30.35 -21.9 30.2 -21.4 30.45 -19.8 31.15 Q-17.65 32.05 -15.35 31.9 -13.2 31.75 -11.4 31.05 L-9.35 30.15 Q-7.25 28.95 -5.6 27.45 L-3.4 25.45 -2.8 24.95 -0.9 23.15 0.2 21.95 1.05 21.1 4.65 16.8 5.2 16.15 6.95 13.95 9.5 11.35 10.65 10.4 11.15 10.9 12.35 12.15 12.35 12.1 Q12.5 10.7 11.8 9.85" fill="#c19b6b" fill-rule="evenodd" stroke="none"/>
      <path d="M-11.75 27.8 L-13.1 27.35 -13.95 26.9 Q-16.0 25.65 -15.8 23.45 L-15.65 22.75 -15.0 21.2 -9.35 20.6 Q-11.95 22.95 -10.7 27.05 L-10.6 27.25 -11.75 27.8" fill="#3c0000" fill-rule="evenodd" stroke="none"/>
      <path d="M-11.75 27.8 L-12.1 27.95 Q-16.05 29.6 -19.15 27.2 -21.2 24.45 -19.9 20.85 L-18.25 21.15 -15.0 21.2 -15.65 22.75 -15.8 23.45 Q-16.0 25.65 -13.95 26.9 L-13.1 27.35 -11.75 27.8" fill="#660000" fill-rule="evenodd" stroke="none"/>
      <path d="M-3.75 18.95 L-2.95 18.5 -0.75 17.65 4.0 15.15 -0.2 18.6 Q-3.1 20.95 -5.65 23.6 -7.45 25.4 -9.55 26.7 -10.7 25.1 -9.95 23.2 -9.35 21.4 -7.7 20.65 L-6.75 19.95 -3.75 18.95" fill="#ff66cc" fill-rule="evenodd" stroke="none"/>
    </g>
  </defs>
</svg>
