<?xml version="1.0" encoding="UTF-8" standalone="no"?>
<svg xmlns:xlink="http://www.w3.org/1999/xlink" height="77.15px" width="80.25px" xmlns="http://www.w3.org/2000/svg">
  <g transform="matrix(1.0, 0.0, 0.0, 1.0, 36.85, 38.55)">
    <use height="72.4" transform="matrix(1.0, 0.0, 0.0, 1.0, -35.5, -36.1)" width="75.35" xlink:href="#shape0"/>
  </g>
  <defs>
    <g id="shape0" transform="matrix(1.0, 0.0, 0.0, 1.0, 35.5, 36.1)">
      <path d="M36.55 -31.25 Q40.45 -30.4 39.75 -26.8 39.05 -23.5 36.2 -21.6 30.1 -17.55 23.65 -13.95 L16.35 -9.95 17.15 -7.95 Q18.8 -3.15 17.25 2.3 L16.25 4.45 16.35 4.4 16.45 4.55 16.65 4.6 Q17.45 6.75 17.4 8.8 17.2 11.65 15.2 14.15 13.85 15.75 11.95 16.65 L11.85 16.75 10.35 17.45 Q10.05 17.95 8.95 18.25 L8.1 18.5 7.9 18.4 Q4.45 23.0 1.4 27.95 -2.05 33.4 -8.0 35.5 -12.95 37.25 -17.75 35.1 L-18.55 34.6 Q-20.7 33.3 -21.75 30.75 L-22.3 28.0 -22.35 27.0 Q-22.4 24.65 -21.6 22.35 -26.35 21.6 -30.65 18.75 L-31.15 18.35 -31.2 18.35 Q-35.85 15.5 -35.45 9.95 -35.35 7.6 -34.5 5.5 L-34.1 4.5 Q-33.45 3.0 -32.45 1.75 L-31.4 0.4 Q-31.35 -1.65 -30.4 -3.45 -29.6 -5.15 -27.9 -5.9 -27.3 -6.45 -26.45 -6.6 L-25.0 -6.6 Q-22.95 -6.25 -21.95 -4.6 L-20.75 -4.65 -14.75 -4.5 -12.65 -3.95 -12.35 -4.2 -11.35 -4.65 -12.05 -5.15 Q-13.55 -6.2 -12.75 -7.4 L-11.25 -5.65 Q-11.65 -6.6 -11.2 -7.8 L-11.1 -7.8 Q-10.7 -7.3 -10.85 -6.5 L-10.8 -6.4 -10.4 -5.8 Q-9.55 -8.4 -7.9 -10.7 L-7.4 -11.6 -7.05 -12.0 -7.05 -12.3 -5.65 -14.55 -4.4 -16.05 Q-2.25 -17.75 0.4 -18.15 L2.3 -18.4 3.2 -18.4 Q2.75 -24.9 4.2 -31.55 4.65 -33.7 6.45 -35.15 6.85 -35.25 7.1 -35.55 L8.45 -36.0 8.95 -36.1 Q11.65 -35.35 11.8 -32.45 12.15 -25.05 9.25 -18.1 L8.7 -16.95 12.45 -14.6 Q16.4 -19.2 20.75 -23.4 24.95 -27.45 30.2 -30.1 33.2 -31.7 36.55 -31.25 M12.5 -9.8 Q11.5 -10.75 11.35 -12.4 L11.25 -12.55 11.2 -12.65 11.2 -12.9 11.3 -13.3 11.5 -13.55 11.8 -13.9 Q8.2 -16.8 3.1 -17.3 L1.0 -17.4 Q-0.55 -17.0 -1.95 -16.25 L-0.8 -16.15 Q-0.75 -15.15 -2.55 -15.05 L-3.9 -14.95 -4.9 -13.8 -5.1 -13.6 -4.95 -13.7 -4.8 -13.7 -4.45 -13.55 -4.2 -13.45 -4.1 -12.95 -4.15 -12.75 Q-3.55 -11.1 -4.4 -9.15 -5.65 -6.1 -7.5 -3.55 L-5.1 -1.75 -4.95 -1.9 -4.9 -1.95 Q-3.6 -5.5 -1.75 -8.65 L-1.45 -9.5 Q1.2 -12.45 5.0 -12.4 8.2 -9.9 6.95 -5.6 L5.9 -2.5 5.25 -1.45 6.8 -1.75 Q5.85 -0.85 4.4 -0.45 L4.1 0.0 4.0 0.1 3.95 0.25 4.05 0.25 8.2 0.65 Q6.8 1.45 5.0 1.45 L5.75 1.9 7.55 2.75 7.65 2.85 7.55 2.95 7.4 2.95 Q4.9 2.85 2.65 1.65 1.85 2.15 0.95 2.3 L1.95 1.2 0.95 0.55 Q-1.55 -1.3 -4.6 -1.15 L-3.4 0.5 -1.0 2.95 2.3 3.2 2.75 3.3 5.1 4.25 Q8.8 5.55 12.9 5.15 L15.05 4.7 15.9 2.65 16.25 2.15 Q17.45 -2.45 16.55 -6.9 16.4 -7.0 16.4 -7.25 L15.75 -8.8 15.5 -9.45 15.0 -9.15 14.9 -8.85 14.75 -8.75 Q13.3 -9.0 12.5 -9.8 M5.2 -14.4 L7.0 -14.45 Q9.8 -13.2 10.65 -10.1 L10.7 -10.0 Q10.85 -8.9 10.6 -7.9 L10.2 -6.7 Q10.05 -9.5 8.35 -12.05 L7.7 -13.15 5.2 -14.4 M1.1 -10.45 Q-0.25 -9.5 -1.2 -8.05 L-1.55 -7.6 -4.0 -1.95 -2.75 -2.05 -1.3 -1.55 -1.15 -1.6 -1.05 -1.55 -0.7 -1.6 0.25 -1.35 4.0 -1.25 4.45 -1.85 Q5.45 -3.85 6.05 -6.05 6.9 -9.25 4.6 -11.1 L3.55 -11.35 Q2.2 -11.1 1.1 -10.45 M2.15 -0.15 L2.95 0.05 3.15 -0.15 2.6 -0.1 2.15 -0.15 M6.7 8.8 L6.65 8.65 Q7.15 8.3 7.6 8.1 L8.15 8.0 9.65 7.95 11.7 8.45 11.8 8.45 11.95 8.45 12.3 8.8 12.6 9.05 Q13.35 9.85 13.35 11.2 L13.3 11.25 12.0 10.1 11.5 9.7 10.45 10.75 8.1 13.55 4.4 17.45 Q-1.15 22.4 -6.1 27.8 L-6.95 28.65 Q-8.8 30.25 -11.3 30.9 L-15.45 30.8 -15.55 30.8 -17.5 29.9 Q-19.1 28.05 -19.15 25.7 L-19.1 25.65 -19.3 25.4 Q-19.45 23.95 -18.9 22.65 L-20.75 22.5 -20.8 22.5 Q-22.45 27.7 -19.6 32.0 L-19.3 32.4 -18.25 33.45 -16.85 34.5 Q-11.05 36.65 -5.5 33.45 -3.75 32.4 -2.35 30.75 1.1 26.65 4.0 22.05 6.45 18.15 9.95 15.4 9.95 15.25 10.1 15.35 L9.9 15.9 9.8 15.95 8.85 17.15 8.6 17.5 9.1 17.25 13.15 14.55 14.4 13.55 Q16.5 11.8 16.5 9.05 L16.45 8.25 Q16.3 6.9 15.75 5.75 L15.75 5.3 Q13.15 6.8 9.65 6.4 6.45 5.95 3.55 4.7 L2.5 4.2 2.15 4.0 Q-0.35 4.6 -1.95 3.5 L-1.7 3.9 -1.55 4.55 -1.25 5.45 -1.1 5.8 -0.95 7.2 Q-0.7 8.25 -0.8 9.3 L-1.0 9.5 -0.9 9.6 Q-0.9 9.85 -1.2 9.75 L-1.7 8.25 -2.05 5.95 Q-3.6 0.6 -7.95 -2.7 L-8.15 -2.85 Q-8.3 -2.85 -8.45 -3.0 L-9.35 -3.3 -11.05 -3.55 -13.05 -2.3 Q-14.5 -1.05 -15.2 1.1 -15.55 2.2 -15.55 3.4 L-15.85 5.25 -15.85 5.65 -16.05 6.25 -16.45 5.05 -16.45 4.95 Q-17.0 2.6 -15.85 -0.1 L-14.0 -2.75 -13.55 -3.25 -16.7 -3.5 -25.65 -3.1 -25.65 -3.2 -25.65 -3.45 -25.65 -3.55 -22.95 -4.4 Q-25.15 -6.5 -28.0 -4.95 L-29.55 -2.65 -30.45 -0.8 -30.45 -0.5 -30.3 -0.6 -28.15 -1.9 Q-27.85 -1.55 -28.25 -1.15 L-28.3 -1.05 Q-31.05 0.9 -32.65 3.65 -33.75 5.55 -34.3 7.85 L-34.4 8.05 Q-35.1 12.35 -32.6 15.95 L-32.55 16.05 Q-27.7 20.0 -21.35 21.3 L-14.95 21.8 -12.7 21.55 Q-8.0 20.85 -3.6 18.95 L-3.55 18.9 Q3.4 15.65 9.35 10.6 L10.3 9.5 10.6 9.25 8.25 9.15 Q7.45 9.35 6.85 9.15 L6.7 9.0 6.7 8.8 M-4.85 -12.75 L-4.9 -12.8 -4.9 -12.75 Q-8.2 -9.45 -9.65 -5.0 L-9.05 -4.3 -8.2 -3.95 -8.15 -3.9 Q-6.3 -7.2 -5.05 -11.0 L-4.95 -11.25 -4.9 -12.35 -4.85 -12.75 M-8.65 1.95 Q-6.25 3.5 -6.1 6.65 -6.1 8.95 -7.6 10.7 -9.65 10.8 -10.35 8.65 -11.1 6.85 -11.1 4.9 -11.15 2.55 -8.95 1.9 L-8.8 1.9 -8.65 1.95 M-13.1 22.6 L-16.4 22.85 -18.0 22.65 Q-19.0 26.4 -16.75 28.95 -13.45 31.05 -9.7 29.1 L-9.3 28.95 -8.15 28.3 -8.05 28.25 -8.3 28.1 Q-9.9 24.1 -7.5 21.55 L-13.1 22.6 M-1.35 18.95 L-2.1 19.45 -4.95 20.65 -5.8 21.45 Q-7.45 22.4 -7.9 24.2 -8.45 26.15 -7.2 27.65 -5.2 26.2 -3.6 24.25 -1.3 21.35 1.4 18.85 L5.3 15.05 Q3.15 16.55 0.8 17.9 L-1.35 18.95" fill="#000000" fill-rule="evenodd" stroke="none"/>
      <path d="M-4.9 -13.8 L-3.9 -14.95 -2.55 -15.05 Q-0.75 -15.15 -0.8 -16.15 L-1.95 -16.25 Q-0.55 -17.0 1.0 -17.4 L3.1 -17.3 Q8.2 -16.8 11.8 -13.9 L11.5 -13.55 11.3 -13.3 11.2 -12.9 11.2 -12.65 11.25 -12.55 11.35 -12.4 Q11.5 -10.75 12.5 -9.8 L12.45 -7.7 12.4 -6.85 Q11.9 -1.8 8.55 1.8 L7.55 2.75 5.75 1.9 5.0 1.45 Q6.8 1.45 8.2 0.65 L4.05 0.25 4.0 0.1 4.1 0.0 4.4 -0.45 Q5.85 -0.85 6.8 -1.75 L5.25 -1.45 5.9 -2.5 6.95 -5.6 Q8.2 -9.9 5.0 -12.4 1.2 -12.45 -1.45 -9.5 L-1.75 -8.65 Q-3.6 -5.5 -4.9 -1.95 L-4.95 -1.9 -5.1 -1.75 -7.5 -3.55 Q-5.65 -6.1 -4.4 -9.15 -3.55 -11.1 -4.15 -12.75 L-4.1 -12.95 -4.2 -13.45 -4.45 -13.55 -4.8 -13.7 -4.9 -13.8 M5.1 4.25 L2.75 3.3 2.3 3.2 -1.0 2.95 -3.4 0.5 -4.6 -1.15 Q-1.55 -1.3 0.95 0.55 L1.95 1.2 0.95 2.3 Q1.85 2.15 2.65 1.65 4.9 2.85 7.4 2.95 L5.1 4.25 M1.1 -10.45 Q2.2 -11.1 3.55 -11.35 L4.6 -11.1 Q6.9 -9.25 6.05 -6.05 5.45 -3.85 4.45 -1.85 L4.0 -1.25 0.25 -1.35 -0.7 -1.6 -1.05 -1.55 -1.15 -1.6 -1.3 -1.55 -2.75 -2.05 -4.0 -1.95 -1.55 -7.6 -1.2 -8.05 Q-0.25 -9.5 1.1 -10.45 M5.2 -14.4 L7.7 -13.15 8.35 -12.05 Q10.05 -9.5 10.2 -6.7 L10.6 -7.9 Q10.85 -8.9 10.7 -10.0 L10.65 -10.1 Q9.8 -13.2 7.0 -14.45 L5.2 -14.4 M-4.9 -12.75 L-4.85 -12.75 -4.9 -12.35 -4.95 -11.25 -5.05 -11.0 Q-6.3 -7.2 -8.15 -3.9 L-8.2 -3.95 -9.05 -4.3 -9.65 -5.0 Q-8.2 -9.45 -4.9 -12.75" fill="#75640a" fill-rule="evenodd" stroke="none"/>
      <path d="M7.55 2.75 L8.55 1.8 Q11.9 -1.8 12.4 -6.85 L12.45 -7.7 12.5 -9.8 Q13.3 -9.0 14.75 -8.75 L14.9 -8.85 15.0 -9.15 15.5 -9.45 15.75 -8.8 16.4 -7.25 Q16.4 -7.0 16.55 -6.9 17.45 -2.45 16.25 2.15 L15.9 2.65 15.05 4.7 12.9 5.15 Q8.8 5.55 5.1 4.25 L7.4 2.95 7.55 2.95 7.65 2.85 7.55 2.75" fill="#5f5300" fill-rule="evenodd" stroke="none"/>
      <path d="M12.6 9.05 L12.3 8.8 11.95 8.45 11.8 8.45 11.7 8.45 9.65 7.95 8.15 8.0 7.6 8.1 Q7.15 8.3 6.65 8.65 L6.7 8.8 6.25 9.2 Q3.85 11.2 1.1 12.65 L-0.35 13.3 Q-3.65 14.55 -6.85 15.0 L-7.6 15.0 -12.35 14.35 Q-13.55 14.05 -14.2 13.55 L-14.45 13.3 -15.95 12.15 -19.0 8.85 -19.45 8.4 -23.7 4.75 -24.15 4.45 -27.55 3.45 Q-29.95 2.9 -32.25 3.5 L-32.65 3.65 Q-31.05 0.9 -28.3 -1.05 L-28.25 -1.15 Q-27.85 -1.55 -28.15 -1.9 L-30.3 -0.6 -30.45 -0.8 -29.55 -2.65 -28.0 -4.95 Q-25.15 -6.5 -22.95 -4.4 L-25.65 -3.55 -25.65 -3.45 -25.65 -3.2 -25.65 -3.1 -16.7 -3.5 -13.55 -3.25 -14.0 -2.75 Q-16.5 -3.05 -17.5 -0.75 L-17.9 0.25 Q-18.4 2.0 -17.65 3.6 L-17.05 4.7 -16.65 5.05 -16.45 4.95 -16.45 5.05 -16.05 6.25 -15.85 5.65 -15.85 5.25 -15.55 3.4 Q-15.55 2.2 -15.2 1.1 -14.5 -1.05 -13.05 -2.3 L-11.05 -3.55 -9.35 -3.3 -8.45 -3.0 Q-8.3 -2.85 -8.15 -2.85 L-7.95 -2.7 Q-3.6 0.6 -2.05 5.95 L-1.7 8.25 -1.2 9.75 Q-0.9 9.85 -0.9 9.6 L-1.0 9.5 -0.8 9.3 Q-0.7 8.25 -0.95 7.2 L-1.1 5.8 -1.25 5.45 -1.55 4.55 -1.7 3.9 -1.95 3.5 Q-0.35 4.6 2.15 4.0 L2.5 4.2 3.55 4.7 Q6.45 5.95 9.65 6.4 13.15 6.8 15.75 5.3 L15.75 5.75 Q16.3 6.9 16.45 8.25 L16.5 9.05 Q16.5 11.8 14.4 13.55 L13.15 14.55 13.45 13.95 13.8 12.45 13.85 11.7 Q13.85 10.55 13.35 9.45 L13.15 9.0 12.7 8.45 12.55 8.2 12.6 8.55 12.55 8.85 12.6 9.05 M-19.3 32.4 L-19.6 32.0 Q-22.45 27.7 -20.8 22.5 L-20.75 22.5 -18.9 22.65 Q-19.45 23.95 -19.3 25.4 L-19.1 25.65 -19.15 25.7 Q-19.1 28.05 -17.5 29.9 L-15.55 30.8 -15.45 30.8 -11.3 30.9 Q-8.8 30.25 -6.95 28.65 L-6.1 27.8 Q-1.15 22.4 4.4 17.45 L8.1 13.55 6.55 15.9 6.1 16.6 Q4.65 19.15 2.85 21.15 L2.1 22.15 1.15 23.3 -0.65 25.35 -1.2 25.9 -3.2 28.1 Q-4.7 29.7 -6.75 31.05 L-8.7 32.15 Q-10.45 33.0 -12.6 33.35 L-17.05 32.95 -18.7 32.4 -19.2 32.2 -19.3 32.4 M-8.65 1.95 L-8.8 1.9 -8.95 1.9 Q-11.15 2.55 -11.1 4.9 -11.1 6.85 -10.35 8.65 -9.65 10.8 -7.6 10.7 -6.1 8.95 -6.1 6.65 -6.25 3.5 -8.65 1.95" fill="#cfb392" fill-rule="evenodd" stroke="none"/>
      <path d="M6.7 8.8 L6.7 9.0 6.85 9.15 Q7.45 9.35 8.25 9.15 L10.6 9.25 10.3 9.5 9.35 10.6 Q3.4 15.65 -3.55 18.9 L-3.6 18.95 Q-8.0 20.85 -12.7 21.55 L-14.95 21.8 -21.35 21.3 Q-27.7 20.0 -32.55 16.05 L-32.6 15.95 Q-35.1 12.35 -34.4 8.05 L-34.3 7.85 Q-33.75 5.55 -32.65 3.65 L-32.25 3.5 Q-29.95 2.9 -27.55 3.45 L-24.15 4.45 -23.7 4.75 -19.45 8.4 -19.0 8.85 -15.95 12.15 -14.45 13.3 -14.2 13.55 Q-13.55 14.05 -12.35 14.35 L-7.6 15.0 -6.85 15.0 Q-3.65 14.55 -0.35 13.3 L1.1 12.65 Q3.85 11.2 6.25 9.2 L6.7 8.8 M-14.0 -2.75 L-15.85 -0.1 Q-17.0 2.6 -16.45 4.95 L-16.65 5.05 -17.05 4.7 -17.65 3.6 Q-18.4 2.0 -17.9 0.25 L-17.5 -0.75 Q-16.5 -3.05 -14.0 -2.75 M13.15 14.55 L9.1 17.25 8.85 17.15 9.8 15.95 9.9 15.9 10.1 15.35 Q9.95 15.25 9.95 15.4 6.45 18.15 4.0 22.05 1.1 26.65 -2.35 30.75 -3.75 32.4 -5.5 33.45 -11.05 36.65 -16.85 34.5 L-18.25 33.45 -19.3 32.4 -19.2 32.2 -18.7 32.4 -17.05 32.95 -12.6 33.35 Q-10.45 33.0 -8.7 32.15 L-6.75 31.05 Q-4.7 29.7 -3.2 28.1 L-1.2 25.9 -0.65 25.35 1.15 23.3 2.1 22.15 2.85 21.15 Q4.65 19.15 6.1 16.6 L6.55 15.9 8.1 13.55 10.45 10.75 11.5 9.7 12.0 10.1 13.3 11.25 13.35 11.2 Q13.35 9.85 12.6 9.05 L12.55 8.85 12.6 8.55 12.55 8.2 12.7 8.45 13.15 9.0 13.35 9.45 Q13.85 10.55 13.85 11.7 L13.8 12.45 13.45 13.95 13.15 14.55" fill="#c19b6b" fill-rule="evenodd" stroke="none"/>
      <path d="M-13.1 22.6 L-13.65 24.2 -13.8 24.95 Q-13.75 27.2 -11.65 28.2 L-10.7 28.6 -9.3 28.95 -9.7 29.1 Q-13.45 31.05 -16.75 28.95 -19.0 26.4 -18.0 22.65 L-16.4 22.85 -13.1 22.6" fill="#660000" fill-rule="evenodd" stroke="none"/>
      <path d="M-9.3 28.95 L-10.7 28.6 -11.65 28.2 Q-13.75 27.2 -13.8 24.95 L-13.65 24.2 -13.1 22.6 -7.5 21.55 Q-9.9 24.1 -8.3 28.1 L-8.15 28.3 -9.3 28.95" fill="#3c0000" fill-rule="evenodd" stroke="none"/>
      <path d="M-1.35 18.95 L0.8 17.9 Q3.15 16.55 5.3 15.05 L1.4 18.85 Q-1.3 21.35 -3.6 24.25 -5.2 26.2 -7.2 27.65 -8.45 26.15 -7.9 24.2 -7.45 22.4 -5.8 21.45 L-4.95 20.65 -2.1 19.45 -1.35 18.95" fill="#ff66cc" fill-rule="evenodd" stroke="none"/>
    </g>
  </defs>
</svg>
