<?xml version="1.0" encoding="UTF-8" standalone="no"?>
<svg xmlns:xlink="http://www.w3.org/1999/xlink" height="77.15px" width="80.25px" xmlns="http://www.w3.org/2000/svg">
  <g transform="matrix(1.0, 0.0, 0.0, 1.0, 36.85, 38.55)">
    <use height="74.05" transform="matrix(1.0, 0.0, 0.0, 1.0, -34.45, -36.55)" width="71.75" xlink:href="#shape0"/>
  </g>
  <defs>
    <g id="shape0" transform="matrix(1.0, 0.0, 0.0, 1.0, 34.45, 36.55)">
      <path d="M33.7 -34.1 Q37.65 -33.6 37.25 -30.0 36.8 -26.6 34.15 -24.45 28.4 -19.9 22.3 -15.8 L15.45 -11.15 16.35 -9.2 Q18.45 -4.55 17.4 0.95 L16.6 3.2 16.7 3.15 16.85 3.3 17.0 3.35 Q18.05 5.4 18.05 7.45 18.15 10.3 16.4 12.9 15.2 14.7 13.35 15.75 L13.3 15.8 11.85 16.7 10.55 17.55 9.6 17.9 9.45 17.8 Q6.45 22.7 3.85 27.95 0.85 33.65 -4.9 36.3 -9.65 38.5 -14.7 36.7 L-15.5 36.25 Q-17.7 35.15 -18.95 32.7 -19.55 31.4 -19.75 30.1 L-19.9 29.1 Q-20.2 26.75 -19.6 24.4 -24.35 24.0 -28.85 21.5 L-29.4 21.15 Q-34.35 18.8 -34.45 13.2 -34.55 10.85 -33.9 8.7 L-33.55 7.7 Q-33.05 6.1 -32.15 4.75 L-31.2 3.35 Q-31.35 1.35 -30.55 -0.55 -29.95 -2.35 -28.3 -3.3 L-26.95 -4.05 -25.5 -4.2 Q-23.4 -4.05 -22.3 -2.5 L-21.05 -2.65 -15.1 -3.0 -12.95 -2.65 -12.65 -2.85 -11.7 -3.4 -12.45 -3.85 Q-14.05 -4.8 -13.3 -6.05 L-11.75 -4.5 Q-12.2 -5.4 -11.85 -6.6 L-11.75 -6.65 Q-11.35 -6.1 -11.35 -5.3 L-11.3 -5.2 -10.85 -4.75 Q-10.25 -7.35 -8.85 -9.75 L-8.35 -10.7 -8.05 -11.15 -8.05 -11.45 -6.9 -13.8 -5.8 -15.35 Q-3.8 -17.25 -1.2 -17.95 L0.7 -18.3 1.6 -18.4 Q0.55 -24.85 1.5 -31.55 1.7 -33.8 3.35 -35.35 L4.0 -35.85 5.25 -36.45 5.8 -36.55 Q8.5 -36.05 8.9 -33.15 9.95 -25.8 7.6 -18.65 L7.2 -17.45 Q9.3 -16.7 11.1 -15.45 14.65 -20.35 18.6 -24.95 22.45 -29.35 27.4 -32.45 30.35 -34.25 33.7 -34.1 M11.6 -10.65 Q10.5 -11.5 10.25 -13.15 L10.1 -13.3 10.05 -13.4 10.0 -13.65 10.1 -14.05 10.25 -14.3 10.55 -14.7 Q6.7 -17.25 1.6 -17.25 L-0.5 -17.25 Q-2.05 -16.7 -3.35 -15.8 L-2.2 -15.8 Q-2.05 -14.85 -3.85 -14.55 L-5.15 -14.3 -6.1 -13.1 -6.25 -12.95 -6.15 -12.95 -5.95 -13.05 -5.6 -12.9 -5.45 -12.85 -5.2 -12.35 -5.25 -12.15 Q-4.5 -10.55 -5.2 -8.5 -6.2 -5.4 -7.8 -2.7 L-5.2 -1.1 -5.1 -1.25 -5.05 -1.3 Q-4.1 -4.95 -2.5 -8.25 L-2.25 -9.15 Q0.1 -12.25 3.85 -12.6 7.3 -10.35 6.45 -6.0 L5.65 -2.8 5.1 -1.7 6.6 -2.15 Q5.75 -1.15 4.35 -0.65 L4.1 -0.15 4.0 0.0 3.9 0.1 4.1 0.15 8.2 0.15 Q6.95 1.05 5.15 1.2 L5.85 1.6 7.8 2.3 7.9 2.35 7.75 2.45 7.6 2.5 Q5.15 2.6 2.75 1.6 2.05 2.2 1.15 2.4 L2.05 1.25 1.0 0.65 Q-1.6 -0.95 -4.65 -0.6 L-3.35 1.0 -0.75 3.25 2.6 3.15 3.05 3.2 5.45 4.0 13.3 4.2 15.45 3.55 16.1 1.45 16.4 0.95 Q17.15 -3.75 15.9 -8.05 L15.7 -8.45 14.95 -9.95 14.55 -10.55 14.15 -10.25 14.1 -9.9 13.95 -9.8 Q12.45 -9.95 11.6 -10.65 M5.75 -14.8 Q8.6 -13.8 9.7 -10.8 L9.75 -10.75 Q10.0 -9.65 9.85 -8.6 L9.55 -7.35 Q9.2 -10.2 7.25 -12.55 L6.5 -13.55 3.95 -14.6 5.75 -14.8 M0.2 -10.3 Q-1.15 -9.2 -1.9 -7.7 L-2.2 -7.25 -4.15 -1.4 -2.9 -1.55 -1.45 -1.25 -1.3 -1.3 -1.2 -1.25 -0.85 -1.35 0.15 -1.1 3.9 -1.4 4.3 -2.05 Q5.05 -4.05 5.5 -6.4 6.1 -9.6 3.6 -11.3 L2.5 -11.4 Q1.25 -11.05 0.2 -10.3 M2.1 -0.15 L2.95 0.0 3.1 -0.2 2.55 -0.1 2.1 -0.15 M14.35 13.55 L15.55 12.45 Q17.45 10.5 17.25 7.75 L17.1 6.95 Q16.85 5.65 16.2 4.55 L16.15 4.05 Q13.7 5.85 10.15 5.7 6.9 5.55 3.95 4.55 L2.85 4.2 2.45 4.0 -1.65 3.8 -1.35 4.25 -1.15 4.9 -0.75 5.75 -0.6 6.1 -0.25 7.45 Q0.0 8.45 0.0 9.5 L-0.1 9.8 -0.1 9.9 Q-0.05 10.15 -0.35 10.0 L-0.9 8.6 -1.5 6.3 Q-3.55 1.1 -8.2 -1.8 L-8.35 -1.95 -8.65 -2.05 -9.65 -2.3 -11.3 -2.4 -13.2 -0.95 Q-14.55 0.4 -15.0 2.6 -15.3 3.75 -15.2 4.95 L-15.3 6.85 -15.3 7.25 -15.45 7.75 -15.95 6.7 -15.95 6.6 Q-16.75 4.25 -15.75 1.55 -15.2 -0.05 -14.2 -1.3 L-13.75 -1.8 -16.9 -1.8 Q-21.55 -1.95 -25.8 -0.65 L-25.85 -0.75 -25.85 -0.95 -25.85 -1.05 -23.25 -2.25 Q-25.6 -4.05 -28.35 -2.3 L-29.7 0.15 -30.3 2.05 -30.35 2.35 -30.25 2.25 Q-29.35 1.35 -28.2 0.75 -27.9 1.1 -28.25 1.5 L-28.3 1.6 Q-30.8 3.8 -32.2 6.7 -33.1 8.7 -33.45 10.95 L-33.55 11.15 Q-33.85 15.6 -31.1 18.95 L-31.0 19.05 Q-25.8 22.5 -19.4 23.25 -16.2 23.6 -13.0 23.2 L-10.75 22.8 Q-6.1 21.7 -1.95 19.3 L-1.9 19.3 Q4.75 15.5 10.25 9.95 L11.1 8.8 11.35 8.45 9.05 8.55 7.55 8.75 7.4 8.6 7.4 8.4 7.35 8.25 Q7.75 7.85 8.3 7.65 L8.8 7.45 10.35 7.25 Q11.55 7.25 12.4 7.6 L12.55 7.6 12.65 7.55 13.0 7.85 13.35 8.1 Q14.15 8.85 14.35 10.25 L14.3 10.25 Q13.65 9.7 12.9 9.25 L12.3 8.9 11.4 10.0 9.3 13.05 5.95 17.2 Q0.8 22.65 -3.6 28.45 L-4.4 29.3 Q-6.15 31.1 -8.6 31.95 L-12.7 32.2 -12.75 32.2 -14.9 31.5 Q-16.6 29.8 -16.8 27.45 L-16.8 27.4 -17.0 27.2 Q-17.25 25.8 -16.85 24.4 L-18.7 24.4 -18.75 24.4 Q-19.95 29.7 -16.7 33.75 L-16.4 34.1 -15.3 35.1 -13.85 36.05 Q-7.75 37.65 -2.6 34.0 -0.85 32.7 0.35 31.0 3.45 26.65 5.95 21.85 8.0 17.75 11.25 14.65 11.3 14.55 11.4 14.6 L11.25 15.2 11.15 15.25 10.35 16.45 10.15 16.9 10.55 16.6 14.35 13.55 M2.35 18.0 L0.3 19.15 -0.4 19.75 -3.15 21.25 -3.95 22.1 Q-5.45 23.15 -5.75 25.0 -6.1 27.0 -4.75 28.4 -2.95 26.75 -1.5 24.65 0.55 21.6 3.1 18.8 L6.6 14.75 2.35 18.0 M-5.95 -12.05 L-6.0 -12.1 -6.0 -12.05 Q-9.0 -8.5 -10.1 -3.95 L-9.4 -3.3 -8.55 -3.0 -8.45 -3.0 Q-6.9 -6.45 -5.95 -10.3 L-5.95 -10.55 Q-5.9 -11.15 -6.0 -11.6 L-5.95 -12.05 M-8.5 2.9 Q-5.95 4.25 -5.5 7.35 -5.25 9.65 -6.6 11.55 -8.65 11.8 -9.6 9.7 -10.45 7.9 -10.6 6.05 -10.9 3.7 -8.8 2.9 L-8.65 2.85 -8.5 2.9 M-11.1 23.9 L-14.3 24.4 -16.0 24.4 Q-16.6 28.15 -14.15 30.5 -10.7 32.3 -7.1 30.05 L-6.7 29.85 -5.65 29.05 -5.6 29.05 -5.8 28.95 Q-7.7 25.05 -5.55 22.3 -8.3 23.35 -11.1 23.9" fill="#000000" fill-rule="evenodd" stroke="none"/>
      <path d="M-6.1 -13.1 L-5.15 -14.3 -3.85 -14.55 Q-2.05 -14.85 -2.2 -15.8 L-3.35 -15.8 Q-2.05 -16.7 -0.5 -17.25 L1.6 -17.25 Q6.7 -17.25 10.55 -14.7 L10.25 -14.3 10.1 -14.05 10.0 -13.65 10.05 -13.4 10.1 -13.3 10.25 -13.15 Q10.5 -11.5 11.6 -10.65 L11.75 -8.6 11.75 -7.65 Q11.75 -2.65 8.65 1.25 L7.8 2.3 5.85 1.6 5.15 1.2 Q6.95 1.05 8.2 0.15 L4.1 0.15 4.0 0.0 4.1 -0.15 4.35 -0.65 Q5.75 -1.15 6.6 -2.15 L5.1 -1.7 5.65 -2.8 6.45 -6.0 Q7.3 -10.35 3.85 -12.6 0.1 -12.25 -2.25 -9.15 L-2.5 -8.25 Q-4.1 -4.95 -5.05 -1.3 L-5.1 -1.25 -5.2 -1.1 -7.8 -2.7 Q-6.2 -5.4 -5.2 -8.5 -4.5 -10.55 -5.25 -12.15 L-5.2 -12.35 -5.45 -12.85 -5.6 -12.9 -5.95 -13.05 -6.1 -13.1 M5.45 4.0 L3.05 3.2 2.6 3.15 -0.75 3.25 -3.35 1.0 -4.65 -0.6 Q-1.6 -0.95 1.0 0.65 L2.05 1.25 1.15 2.4 Q2.05 2.2 2.75 1.6 5.15 2.6 7.6 2.5 6.6 3.4 5.45 4.0 M0.2 -10.3 Q1.25 -11.05 2.5 -11.4 L3.6 -11.3 Q6.1 -9.6 5.5 -6.4 5.05 -4.05 4.3 -2.05 L3.9 -1.4 0.15 -1.1 -0.85 -1.35 -1.2 -1.25 -1.3 -1.3 -1.45 -1.25 -2.9 -1.55 -4.15 -1.4 -2.2 -7.25 -1.9 -7.7 Q-1.15 -9.2 0.2 -10.3 M5.75 -14.8 L3.95 -14.6 6.5 -13.55 7.25 -12.55 Q9.2 -10.2 9.55 -7.35 L9.85 -8.6 Q10.0 -9.65 9.75 -10.75 L9.7 -10.8 Q8.6 -13.8 5.75 -14.8 M-6.0 -12.05 L-5.95 -12.05 -6.0 -11.6 Q-5.9 -11.15 -5.95 -10.55 L-5.95 -10.3 Q-6.9 -6.45 -8.45 -3.0 L-8.55 -3.0 -9.4 -3.3 -10.1 -3.95 Q-9.0 -8.5 -6.0 -12.05" fill="#75640a" fill-rule="evenodd" stroke="none"/>
      <path d="M7.8 2.3 L8.65 1.25 Q11.75 -2.65 11.75 -7.65 L11.75 -8.6 11.6 -10.65 Q12.45 -9.95 13.95 -9.8 L14.1 -9.9 14.15 -10.25 14.55 -10.55 14.95 -9.95 15.7 -8.45 15.9 -8.05 Q17.15 -3.75 16.4 0.95 L16.1 1.45 15.45 3.55 13.3 4.2 5.45 4.0 Q6.6 3.4 7.6 2.5 L7.75 2.45 7.9 2.35 7.8 2.3" fill="#5f5300" fill-rule="evenodd" stroke="none"/>
      <path d="M-15.95 6.6 L-15.95 6.7 -15.45 7.75 -15.3 7.25 -15.3 6.85 -15.2 4.95 Q-15.3 3.75 -15.0 2.6 -14.55 0.4 -13.2 -0.95 L-11.3 -2.4 -9.65 -2.3 -8.65 -2.05 -8.35 -1.95 -8.2 -1.8 Q-3.55 1.1 -1.5 6.3 L-0.9 8.6 -0.35 10.0 Q-0.05 10.15 -0.1 9.9 L-0.1 9.8 0.0 9.5 Q0.0 8.45 -0.25 7.45 L-0.6 6.1 -0.75 5.75 -1.15 4.9 -1.35 4.25 -1.65 3.8 2.45 4.0 2.85 4.2 3.95 4.55 Q6.9 5.55 10.15 5.7 13.7 5.85 16.15 4.05 L16.2 4.55 Q16.85 5.65 17.1 6.95 L17.25 7.75 Q17.45 10.5 15.55 12.45 L14.35 13.55 14.6 12.9 14.85 11.4 14.8 10.65 Q14.7 9.5 14.15 8.5 L13.85 8.05 13.4 7.5 13.2 7.3 13.3 7.6 13.25 7.9 13.35 8.1 13.0 7.85 12.65 7.55 12.55 7.6 12.4 7.6 Q11.55 7.25 10.35 7.25 L8.8 7.45 8.3 7.65 Q7.75 7.85 7.35 8.25 L7.4 8.4 7.0 8.8 Q4.8 11.0 2.2 12.7 L0.8 13.5 Q-2.35 15.0 -5.55 15.7 L-6.3 15.8 -11.05 15.55 -12.9 14.9 -13.25 14.7 -14.85 13.7 -18.15 10.65 -18.6 10.25 Q-20.85 8.6 -23.2 7.0 L-23.65 6.75 Q-25.3 6.2 -27.1 6.0 -29.6 5.7 -31.75 6.55 L-32.2 6.7 Q-30.8 3.8 -28.3 1.6 L-28.25 1.5 Q-27.9 1.1 -28.2 0.75 -29.35 1.35 -30.25 2.25 L-30.3 2.05 -29.7 0.15 -28.35 -2.3 Q-25.6 -4.05 -23.25 -2.25 L-25.85 -1.05 -25.85 -0.95 -25.85 -0.75 -25.8 -0.65 Q-21.55 -1.95 -16.9 -1.8 L-13.75 -1.8 -14.2 -1.3 Q-16.7 -1.35 -17.5 1.0 L-17.8 2.0 Q-18.1 3.8 -17.25 5.35 L-16.55 6.4 -16.15 6.65 -15.95 6.6 M-16.4 34.1 L-16.7 33.75 Q-19.95 29.7 -18.75 24.4 L-18.7 24.4 -16.85 24.4 Q-17.25 25.8 -17.0 27.2 L-16.8 27.4 -16.8 27.45 Q-16.6 29.8 -14.9 31.5 L-12.75 32.2 -12.7 32.2 -8.6 31.95 Q-6.15 31.1 -4.4 29.3 L-3.6 28.45 Q0.8 22.65 5.95 17.2 L9.3 13.05 7.9 15.5 7.5 16.2 Q6.3 18.8 4.75 21.05 L4.05 22.05 3.2 23.35 1.55 25.5 1.05 26.1 -0.75 28.5 Q-2.15 30.2 -4.0 31.7 L-5.85 32.95 Q-7.5 33.9 -9.6 34.45 -11.85 35.05 -14.1 34.5 L-15.8 34.05 -16.3 33.95 -16.4 34.1 M-8.5 2.9 L-8.65 2.85 -8.8 2.9 Q-10.9 3.7 -10.6 6.05 -10.45 7.9 -9.6 9.7 -8.65 11.8 -6.6 11.55 -5.25 9.65 -5.5 7.35 -5.95 4.25 -8.5 2.9" fill="#cfb392" fill-rule="evenodd" stroke="none"/>
      <path d="M-15.95 6.6 L-16.15 6.65 -16.55 6.4 -17.25 5.35 Q-18.1 3.8 -17.8 2.0 L-17.5 1.0 Q-16.7 -1.35 -14.2 -1.3 -15.2 -0.05 -15.75 1.55 -16.75 4.25 -15.95 6.6 M-32.2 6.7 L-31.75 6.55 Q-29.6 5.7 -27.1 6.0 -25.3 6.2 -23.65 6.75 L-23.2 7.0 Q-20.85 8.6 -18.6 10.25 L-18.15 10.65 -14.85 13.7 -13.25 14.7 -12.9 14.9 -11.05 15.55 -6.3 15.8 -5.55 15.7 Q-2.35 15.0 0.8 13.5 L2.2 12.7 Q4.8 11.0 7.0 8.8 L7.4 8.4 7.4 8.6 7.55 8.75 9.05 8.55 11.35 8.45 11.1 8.8 10.25 9.95 Q4.75 15.5 -1.9 19.3 L-1.95 19.3 Q-6.1 21.7 -10.75 22.8 L-13.0 23.2 Q-16.2 23.6 -19.4 23.25 -25.8 22.5 -31.0 19.05 L-31.1 18.95 Q-33.85 15.6 -33.55 11.15 L-33.45 10.95 Q-33.1 8.7 -32.2 6.7 M13.35 8.1 L13.25 7.9 13.3 7.6 13.2 7.3 13.4 7.5 13.85 8.05 14.15 8.5 Q14.7 9.5 14.8 10.65 L14.85 11.4 14.6 12.9 14.35 13.55 10.55 16.6 10.35 16.45 11.15 15.25 11.25 15.2 11.4 14.6 Q11.3 14.55 11.25 14.65 8.0 17.75 5.95 21.85 3.45 26.65 0.35 31.0 -0.85 32.7 -2.6 34.0 -7.75 37.65 -13.85 36.05 L-15.3 35.1 -16.4 34.1 -16.3 33.95 -15.8 34.05 -14.1 34.5 Q-11.85 35.05 -9.6 34.45 -7.5 33.9 -5.85 32.95 L-4.0 31.7 Q-2.15 30.2 -0.75 28.5 L1.05 26.1 1.55 25.5 3.2 23.35 4.05 22.05 4.75 21.05 Q6.3 18.8 7.5 16.2 L7.9 15.5 9.3 13.05 11.4 10.0 12.3 8.9 12.9 9.25 Q13.65 9.7 14.3 10.25 L14.35 10.25 Q14.15 8.85 13.35 8.1" fill="#c19b6b" fill-rule="evenodd" stroke="none"/>
      <path d="M2.35 18.0 L6.6 14.75 3.1 18.8 Q0.55 21.6 -1.5 24.65 -2.95 26.75 -4.75 28.4 -6.1 27.0 -5.75 25.0 -5.45 23.15 -3.95 22.1 L-3.15 21.25 -0.4 19.75 0.3 19.15 2.35 18.0" fill="#ff66cc" fill-rule="evenodd" stroke="none"/>
      <path d="M-6.7 29.85 L-7.1 30.05 Q-10.7 32.3 -14.15 30.5 -16.6 28.15 -16.0 24.4 L-14.3 24.4 -11.1 23.9 -11.5 25.5 -11.5 26.25 Q-11.25 28.5 -9.15 29.3 L-8.15 29.65 -6.7 29.85" fill="#660000" fill-rule="evenodd" stroke="none"/>
      <path d="M-6.7 29.85 L-8.15 29.65 -9.15 29.3 Q-11.25 28.5 -11.5 26.25 L-11.5 25.5 -11.1 23.9 Q-8.3 23.35 -5.55 22.3 -7.7 25.05 -5.8 28.95 L-5.65 29.05 -6.7 29.85" fill="#3c0000" fill-rule="evenodd" stroke="none"/>
    </g>
  </defs>
</svg>
