<?xml version="1.0" encoding="UTF-8" standalone="no"?>
<svg xmlns:xlink="http://www.w3.org/1999/xlink" height="77.15px" width="80.25px" xmlns="http://www.w3.org/2000/svg">
  <g transform="matrix(1.0, 0.0, 0.0, 1.0, 36.85, 38.55)">
    <use height="76.05" transform="matrix(1.0, 0.0, 0.0, 1.0, -33.0, -37.45)" width="66.65" xlink:href="#shape0"/>
  </g>
  <defs>
    <g id="shape0" transform="matrix(1.0, 0.0, 0.0, 1.0, 33.0, 37.45)">
      <path d="M29.7 -37.45 Q33.65 -37.35 33.65 -33.75 33.6 -30.3 31.2 -27.9 26.0 -22.7 20.35 -18.0 L14.05 -12.65 15.15 -10.8 Q17.75 -6.4 17.3 -0.85 17.2 0.4 16.75 1.45 L16.85 1.45 17.0 1.55 17.15 1.6 Q18.4 3.55 18.7 5.6 19.15 8.4 17.65 11.2 16.65 13.05 14.95 14.3 L14.9 14.4 13.55 15.4 Q13.35 15.95 12.35 16.45 11.85 16.65 11.5 16.9 L11.35 16.85 Q8.85 22.0 6.85 27.45 4.55 33.45 -0.9 36.75 -5.35 39.4 -10.55 38.25 L-11.45 37.85 Q-13.75 37.05 -15.3 34.75 L-16.4 32.2 -16.65 31.25 Q-17.15 28.95 -16.85 26.55 -21.6 26.7 -26.4 24.7 L-26.95 24.45 Q-32.1 22.55 -32.8 17.05 -33.15 14.7 -32.8 12.5 L-32.55 11.45 -31.5 8.4 -30.7 6.95 Q-31.05 4.95 -30.5 3.0 -30.05 1.1 -28.55 0.0 -28.05 -0.65 -27.25 -0.9 L-25.85 -1.25 Q-23.75 -1.3 -22.5 0.15 L-21.3 -0.15 -15.35 -1.15 -13.2 -1.05 -12.95 -1.3 -12.05 -1.95 -12.85 -2.3 Q-14.55 -3.1 -13.95 -4.4 -13.2 -3.55 -12.2 -3.0 -12.8 -3.9 -12.55 -5.1 L-12.45 -5.15 Q-12.0 -4.7 -11.95 -3.9 L-11.85 -3.8 -11.4 -3.35 Q-11.05 -6.05 -9.9 -8.6 L-9.55 -9.55 -9.3 -10.0 -9.3 -10.3 -8.45 -12.8 -7.45 -14.5 Q-5.75 -16.55 -3.2 -17.5 L-1.4 -18.1 -0.5 -18.3 Q-2.25 -24.6 -2.05 -31.4 -2.05 -33.65 -0.6 -35.35 -0.25 -35.55 -0.05 -35.9 L1.15 -36.65 1.7 -36.8 Q4.45 -36.6 5.2 -33.8 7.0 -26.6 5.5 -19.2 L5.2 -17.95 Q7.35 -17.45 9.3 -16.4 12.25 -21.7 15.7 -26.7 19.05 -31.4 23.65 -35.05 26.3 -37.25 29.7 -37.45 M4.0 -15.15 Q7.0 -14.5 8.45 -11.65 L8.5 -11.6 8.85 -9.5 8.65 -8.2 Q7.95 -10.95 5.8 -13.1 L4.95 -14.05 2.25 -14.75 Q2.85 -15.4 4.0 -15.15 M10.3 -11.7 Q9.15 -12.45 8.7 -14.05 L8.55 -14.15 8.45 -14.25 8.4 -14.5 8.45 -14.9 8.55 -15.2 8.8 -15.55 Q4.75 -17.7 -0.35 -17.15 L-2.5 -16.9 -5.1 -15.15 -3.95 -15.3 Q-3.7 -14.35 -5.45 -13.85 L-6.75 -13.5 -7.5 -12.2 -7.65 -12.0 -7.55 -12.05 -7.4 -12.1 -7.0 -12.05 -6.8 -12.0 -6.55 -11.55 Q-6.5 -11.45 -6.6 -11.3 -5.7 -9.85 -6.1 -7.75 -6.8 -4.55 -8.1 -1.65 -6.6 -1.2 -5.3 -0.35 L-5.25 -0.5 -5.25 -0.6 Q-4.65 -4.3 -3.45 -7.8 L-3.3 -8.65 Q-1.3 -12.05 2.4 -12.75 6.05 -10.95 5.7 -6.5 L5.2 -3.25 4.8 -2.1 6.3 -2.65 Q5.5 -1.6 4.2 -0.95 L3.95 -0.45 3.95 -0.3 3.85 -0.2 4.0 -0.15 8.1 -0.6 Q6.95 0.4 5.15 0.75 L5.9 1.1 7.95 1.55 8.1 1.6 7.95 1.7 7.8 1.8 2.85 1.45 Q2.2 2.1 1.35 2.4 L2.1 1.15 1.0 0.7 Q-1.75 -0.6 -4.7 0.1 L-3.3 1.55 -0.45 3.45 Q1.3 3.65 2.85 3.0 L3.3 3.0 5.8 3.5 Q9.7 4.05 13.6 2.9 L15.7 1.95 16.1 -0.2 16.3 -0.75 Q16.55 -5.5 14.85 -9.65 L14.6 -9.95 13.7 -11.4 13.25 -11.95 12.85 -11.6 12.85 -11.25 12.7 -11.1 Q11.25 -11.1 10.3 -11.7 M1.2 -11.45 Q-0.05 -10.95 -1.0 -10.1 -2.15 -8.9 -2.8 -7.3 L-3.1 -6.85 -4.35 -0.75 -3.15 -1.1 -1.6 -0.9 -1.45 -1.0 -1.35 -0.95 -1.05 -1.05 -0.05 -1.0 3.65 -1.65 3.95 -2.3 Q4.55 -4.45 4.7 -6.75 4.95 -10.1 2.2 -11.45 1.7 -11.7 1.2 -11.45 M2.0 -0.2 L2.9 -0.15 3.0 -0.4 2.45 -0.25 2.0 -0.2 M15.75 12.05 L16.75 10.85 Q18.45 8.7 17.9 6.0 L17.7 5.2 Q17.3 3.9 16.55 2.9 L16.45 2.4 Q14.2 4.5 10.7 4.75 L4.35 4.25 3.25 4.0 2.85 3.85 Q0.5 4.9 -1.25 4.1 L-0.9 4.5 -0.65 5.15 -0.2 5.9 0.05 6.25 0.5 7.6 1.0 9.65 0.9 9.9 0.95 10.0 Q1.0 10.2 0.7 10.15 L-0.05 8.8 -0.85 6.6 Q-3.4 1.65 -8.4 -0.7 L-8.6 -0.85 -8.9 -0.95 -9.9 -1.05 -11.55 -0.95 -13.3 0.65 Q-14.45 2.2 -14.7 4.4 -14.85 5.6 -14.6 6.75 -14.75 7.7 -14.5 8.6 L-14.45 9.0 -14.55 9.6 -15.2 8.55 -15.15 8.45 Q-16.2 6.2 -15.55 3.4 -15.15 1.8 -14.3 0.45 L-13.9 -0.15 -17.05 0.25 Q-21.7 0.6 -25.8 2.35 L-25.8 2.25 -25.85 2.05 -25.85 1.95 Q-24.7 1.05 -23.4 0.5 -25.95 -1.1 -28.45 1.0 -29.25 2.15 -29.5 3.55 L-30.0 5.55 -29.95 5.85 -29.8 5.7 -27.95 4.0 Q-27.6 4.3 -27.95 4.8 L-28.0 4.9 Q-30.25 7.35 -31.3 10.35 -32.0 12.4 -32.1 14.75 L-32.15 14.95 Q-32.0 19.4 -28.9 22.4 L-28.8 22.45 Q-23.2 25.4 -16.75 25.4 L-10.4 24.65 -8.2 24.0 Q-3.75 22.4 0.15 19.55 L0.2 19.55 Q6.35 15.0 11.2 8.9 L11.95 7.65 12.2 7.35 Q11.0 7.15 9.9 7.7 L8.45 8.0 8.25 7.9 8.25 7.7 8.15 7.55 9.05 6.85 9.55 6.6 11.0 6.25 13.1 6.35 13.25 6.35 13.35 6.3 Q13.65 6.35 13.75 6.6 L14.1 6.75 Q15.0 7.4 15.3 8.75 L15.25 8.8 13.75 7.9 13.15 7.65 12.35 8.8 10.65 12.05 7.7 16.6 Q3.25 22.55 -0.55 28.8 L-1.2 29.75 Q-2.75 31.7 -5.05 32.85 -7.2 33.9 -9.1 33.6 L-9.2 33.6 -11.35 33.05 Q-13.3 31.6 -13.75 29.3 L-13.75 29.25 -13.95 29.05 Q-14.4 27.65 -14.15 26.3 L-15.95 26.5 -16.0 26.5 Q-16.6 31.85 -12.95 35.55 L-12.65 35.85 -11.4 36.7 -9.8 37.45 Q-3.65 38.4 1.15 34.2 2.7 32.8 3.7 30.95 6.3 26.25 8.25 21.2 9.85 16.85 12.7 13.45 12.75 13.35 12.85 13.4 L12.8 14.0 12.7 14.05 12.05 15.35 11.85 15.8 12.25 15.45 15.75 12.05 M8.1 14.05 L4.25 17.75 2.35 19.2 1.75 19.85 -0.85 21.6 -1.55 22.55 Q-2.95 23.75 -3.05 25.6 -3.2 27.65 -1.65 28.9 0.0 27.05 1.2 24.85 2.9 21.55 5.1 18.55 L8.1 14.05 M-7.3 -11.15 L-7.35 -11.2 -7.35 -11.15 Q-9.95 -7.3 -10.5 -2.65 L-9.75 -2.1 -8.85 -1.85 -8.8 -1.85 Q-7.6 -5.55 -7.1 -9.45 L-7.1 -9.7 -7.25 -10.75 -7.3 -11.15 M-8.2 3.95 Q-5.5 5.0 -4.75 8.05 -4.25 10.35 -5.35 12.35 -7.4 12.8 -8.5 10.85 -9.55 9.15 -9.95 7.3 -10.45 5.0 -8.5 4.0 L-8.35 3.95 -8.2 3.95 M-8.45 25.1 L-11.55 25.95 -13.25 26.15 Q-13.45 29.95 -10.75 32.0 -7.15 33.4 -3.8 30.8 L-3.45 30.55 -2.5 29.65 -2.4 29.6 -2.65 29.5 Q-4.95 25.9 -3.15 22.95 -5.7 24.25 -8.45 25.1" fill="#000000" fill-rule="evenodd" stroke="none"/>
      <path d="M-7.5 -12.2 L-6.75 -13.5 -5.45 -13.85 Q-3.7 -14.35 -3.95 -15.3 L-5.1 -15.15 -2.5 -16.9 -0.35 -17.15 Q4.75 -17.7 8.8 -15.55 L8.55 -15.2 8.45 -14.9 8.4 -14.5 8.45 -14.25 8.55 -14.15 8.7 -14.05 Q9.15 -12.45 10.3 -11.7 L10.7 -9.65 10.8 -8.75 Q11.3 -3.75 8.7 0.45 L7.95 1.55 5.9 1.1 5.15 0.75 Q6.95 0.4 8.1 -0.6 L4.0 -0.15 3.95 -0.3 3.95 -0.45 4.2 -0.95 Q5.5 -1.6 6.3 -2.65 L4.8 -2.1 5.2 -3.25 5.7 -6.5 Q6.05 -10.95 2.4 -12.75 -1.3 -12.05 -3.3 -8.65 L-3.45 -7.8 Q-4.65 -4.3 -5.25 -0.6 L-5.25 -0.5 -5.3 -0.35 Q-6.6 -1.2 -8.1 -1.65 -6.8 -4.55 -6.1 -7.75 -5.7 -9.85 -6.6 -11.3 -6.5 -11.45 -6.55 -11.55 L-6.8 -12.0 -7.0 -12.05 -7.4 -12.1 -7.5 -12.2 M4.0 -15.15 Q2.85 -15.4 2.25 -14.75 L4.95 -14.05 5.8 -13.1 Q7.95 -10.95 8.65 -8.2 L8.85 -9.5 8.5 -11.6 8.45 -11.65 Q7.0 -14.5 4.0 -15.15 M5.8 3.5 L3.3 3.0 2.85 3.0 Q1.3 3.65 -0.45 3.45 L-3.3 1.55 -4.7 0.1 Q-1.75 -0.6 1.0 0.7 L2.1 1.15 1.35 2.4 Q2.2 2.1 2.85 1.45 L7.8 1.8 5.8 3.5 M1.2 -11.45 Q1.7 -11.7 2.2 -11.45 4.95 -10.1 4.7 -6.75 4.55 -4.45 3.95 -2.3 L3.65 -1.65 -0.05 -1.0 -1.05 -1.05 -1.35 -0.95 -1.45 -1.0 -1.6 -0.9 -3.15 -1.1 -4.35 -0.75 -3.1 -6.85 -2.8 -7.3 Q-2.15 -8.9 -1.0 -10.1 -0.05 -10.95 1.2 -11.45 M-7.35 -11.15 L-7.3 -11.15 -7.25 -10.75 -7.1 -9.7 -7.1 -9.45 Q-7.6 -5.55 -8.8 -1.85 L-8.85 -1.85 -9.75 -2.1 -10.5 -2.65 Q-9.95 -7.3 -7.35 -11.15" fill="#75640a" fill-rule="evenodd" stroke="none"/>
      <path d="M7.95 1.55 L8.7 0.45 Q11.3 -3.75 10.8 -8.75 L10.7 -9.65 10.3 -11.7 Q11.25 -11.1 12.7 -11.1 L12.85 -11.25 12.85 -11.6 13.25 -11.95 13.7 -11.4 14.6 -9.95 14.85 -9.65 Q16.55 -5.5 16.3 -0.75 L16.1 -0.2 15.7 1.95 13.6 2.9 Q9.7 4.05 5.8 3.5 L7.8 1.8 7.95 1.7 8.1 1.6 7.95 1.55" fill="#5f5300" fill-rule="evenodd" stroke="none"/>
      <path d="M-15.15 8.45 L-15.2 8.55 -14.55 9.6 -14.45 9.0 -14.5 8.6 Q-14.75 7.7 -14.6 6.75 -14.85 5.6 -14.7 4.4 -14.45 2.2 -13.3 0.65 L-11.55 -0.95 -9.9 -1.05 -8.9 -0.95 -8.6 -0.85 -8.4 -0.7 Q-3.4 1.65 -0.85 6.6 L-0.05 8.8 0.7 10.15 Q1.0 10.2 0.95 10.0 L0.9 9.9 1.0 9.65 0.5 7.6 0.05 6.25 -0.2 5.9 -0.65 5.15 -0.9 4.5 -1.25 4.1 Q0.5 4.9 2.85 3.85 L3.25 4.0 4.35 4.25 10.7 4.75 Q14.2 4.5 16.45 2.4 L16.55 2.9 Q17.3 3.9 17.7 5.2 L17.9 6.0 Q18.45 8.7 16.75 10.85 L15.75 12.05 15.9 11.4 15.95 9.85 15.85 9.1 Q15.65 8.0 14.95 7.05 L14.6 6.65 14.05 6.15 13.9 5.95 14.0 6.3 14.0 6.6 14.1 6.75 13.75 6.6 Q13.65 6.35 13.35 6.3 L13.25 6.35 13.1 6.35 11.0 6.25 9.55 6.6 9.05 6.85 8.15 7.55 8.25 7.7 7.9 8.15 Q5.9 10.6 3.5 12.55 L2.2 13.45 Q-0.7 15.3 -3.85 16.35 L-4.6 16.55 -9.3 16.8 -11.25 16.35 -11.55 16.2 Q-12.55 15.9 -13.25 15.4 L-16.9 12.75 -17.45 12.4 Q-19.8 10.95 -22.3 9.65 L-22.8 9.45 -26.35 9.1 Q-28.8 9.1 -30.9 10.15 L-31.3 10.35 Q-30.25 7.35 -28.0 4.9 L-27.95 4.8 Q-27.6 4.3 -27.95 4.0 L-29.8 5.7 -30.0 5.55 -29.5 3.55 Q-29.25 2.15 -28.45 1.0 -25.95 -1.1 -23.4 0.5 -24.7 1.05 -25.85 1.95 L-25.85 2.05 -25.8 2.25 -25.8 2.35 Q-21.7 0.6 -17.05 0.25 L-13.9 -0.15 -14.3 0.45 Q-16.75 0.6 -17.35 3.05 L-17.45 4.1 Q-17.6 5.9 -16.6 7.35 L-15.8 8.3 -15.35 8.5 -15.15 8.45 M-12.65 35.85 L-12.95 35.55 Q-16.6 31.85 -16.0 26.5 L-15.95 26.5 -14.15 26.3 Q-14.4 27.65 -13.95 29.05 L-13.75 29.25 -13.75 29.3 Q-13.3 31.6 -11.35 33.05 L-9.2 33.6 -9.1 33.6 Q-7.2 33.9 -5.05 32.85 -2.75 31.7 -1.2 29.75 L-0.55 28.8 Q3.25 22.55 7.7 16.6 L10.65 12.05 9.5 14.65 9.2 15.4 Q8.3 18.15 6.95 20.55 L6.4 21.65 5.65 23.0 4.35 25.35 3.9 25.95 2.35 28.55 -0.55 32.05 -2.25 33.55 Q-3.8 34.7 -5.8 35.45 -7.95 36.25 -10.3 36.0 L-12.05 35.75 -12.55 35.65 -12.65 35.85 M-8.2 3.95 L-8.35 3.95 -8.5 4.0 Q-10.45 5.0 -9.95 7.3 -9.55 9.15 -8.5 10.85 -7.4 12.8 -5.35 12.35 -4.25 10.35 -4.75 8.05 -5.5 5.0 -8.2 3.95" fill="#cfb392" fill-rule="evenodd" stroke="none"/>
      <path d="M-15.15 8.45 L-15.35 8.5 -15.8 8.3 -16.6 7.35 Q-17.6 5.9 -17.45 4.1 L-17.35 3.05 Q-16.75 0.6 -14.3 0.45 -15.15 1.8 -15.55 3.4 -16.2 6.2 -15.15 8.45 M-31.3 10.35 L-30.9 10.15 Q-28.8 9.1 -26.35 9.1 L-22.8 9.45 -22.3 9.65 Q-19.8 10.95 -17.45 12.4 L-16.9 12.75 -13.25 15.4 Q-12.55 15.9 -11.55 16.2 L-11.25 16.35 -9.3 16.8 -4.6 16.55 -3.85 16.35 Q-0.7 15.3 2.2 13.45 L3.5 12.55 Q5.9 10.6 7.9 8.15 L8.25 7.7 8.25 7.9 8.45 8.0 9.9 7.7 Q11.0 7.15 12.2 7.35 L11.95 7.65 11.2 8.9 Q6.35 15.0 0.2 19.55 L0.15 19.55 Q-3.75 22.4 -8.2 24.0 L-10.4 24.65 -16.75 25.4 Q-23.2 25.4 -28.8 22.45 L-28.9 22.4 Q-32.0 19.4 -32.15 14.95 L-32.1 14.75 Q-32.0 12.4 -31.3 10.35 M14.1 6.75 L14.0 6.6 14.0 6.3 13.9 5.95 14.05 6.15 14.6 6.65 14.95 7.05 Q15.65 8.0 15.85 9.1 L15.95 9.85 15.9 11.4 15.75 12.05 12.25 15.45 12.05 15.35 12.7 14.05 12.8 14.0 12.85 13.4 Q12.75 13.35 12.7 13.45 9.85 16.85 8.25 21.2 6.3 26.25 3.7 30.95 2.7 32.8 1.15 34.2 -3.65 38.4 -9.8 37.45 L-11.4 36.7 -12.65 35.85 -12.55 35.65 -12.05 35.75 -10.3 36.0 Q-7.95 36.25 -5.8 35.45 -3.8 34.7 -2.25 33.55 L-0.55 32.05 2.35 28.55 3.9 25.95 4.35 25.35 5.65 23.0 6.4 21.65 6.95 20.55 Q8.3 18.15 9.2 15.4 L9.5 14.65 10.65 12.05 12.35 8.8 13.15 7.65 13.75 7.9 15.25 8.8 15.3 8.75 Q15.0 7.4 14.1 6.75" fill="#c19b6b" fill-rule="evenodd" stroke="none"/>
      <path d="M8.1 14.05 L5.1 18.55 Q2.9 21.55 1.2 24.85 0.0 27.05 -1.65 28.9 -3.2 27.65 -3.05 25.6 -2.95 23.75 -1.55 22.55 L-0.85 21.6 1.75 19.85 2.35 19.2 4.25 17.75 8.1 14.05" fill="#ff66cc" fill-rule="evenodd" stroke="none"/>
      <path d="M-8.45 25.1 L-8.65 26.75 -8.65 27.5 Q-8.15 29.7 -5.9 30.3 L-4.9 30.5 -3.45 30.55 -3.8 30.8 Q-7.15 33.4 -10.75 32.0 -13.45 29.95 -13.25 26.15 L-11.55 25.95 -8.45 25.1" fill="#660000" fill-rule="evenodd" stroke="none"/>
      <path d="M-3.45 30.55 L-4.9 30.5 -5.9 30.3 Q-8.15 29.7 -8.65 27.5 L-8.65 26.75 -8.45 25.1 Q-5.7 24.25 -3.15 22.95 -4.95 25.9 -2.65 29.5 L-2.5 29.65 -3.45 30.55" fill="#3c0000" fill-rule="evenodd" stroke="none"/>
    </g>
  </defs>
</svg>
