<?xml version="1.0" encoding="UTF-8" standalone="no"?>
<svg xmlns:xlink="http://www.w3.org/1999/xlink" height="136.15px" width="177.5px" xmlns="http://www.w3.org/2000/svg">
  <g transform="matrix(1.0, 0.0, 0.0, 1.0, 88.75, 68.05)">
    <use height="65.8" transform="matrix(1.0, 0.0, 0.0, 1.0, 21.85, -68.05)" width="66.9" xlink:href="#sprite0"/>
    <use height="19.8" transform="matrix(1.0, 0.0, 0.0, 1.0, 52.15, -32.35)" width="30.95" xlink:href="#shape1"/>
    <use height="32.85" transform="matrix(0.9701, -0.2071, 0.2071, 0.9701, 41.0094, -43.4694)" width="27.95" xlink:href="#shape2"/>
    <use height="31.9" transform="matrix(0.9764, -0.2129, 0.2129, 0.9764, 46.0818, -47.1182)" width="19.3" xlink:href="#shape3"/>
    <use height="31.9" transform="matrix(0.8911, -0.4611, 0.2305, 0.4456, 38.7737, -41.9574)" width="19.3" xlink:href="#shape3"/>
    <use height="65.8" transform="matrix(1.0, 0.0, 0.0, 1.0, -34.25, -34.35)" width="66.9" xlink:href="#sprite0"/>
    <use height="19.8" transform="matrix(1.0, 0.0, 0.0, 1.0, -3.95, 1.35)" width="30.95" xlink:href="#shape1"/>
    <use height="32.85" transform="matrix(0.8541, 0.5044, -0.5044, 0.8541, 7.4838, -22.5863)" width="27.95" xlink:href="#shape2"/>
    <use height="31.9" transform="matrix(0.9764, -0.2129, 0.2129, 0.9764, -10.0182, -13.4182)" width="19.3" xlink:href="#shape3"/>
    <use height="31.9" transform="matrix(0.8911, -0.4611, 0.2305, 0.4456, -17.3263, -8.2574)" width="19.3" xlink:href="#shape3"/>
    <use height="65.8" transform="matrix(1.0, 0.0, 0.0, 1.0, -88.75, 2.3)" width="66.9" xlink:href="#sprite0"/>
    <use height="19.8" transform="matrix(1.0, 0.0, 0.0, 1.0, -58.45, 38.0)" width="30.95" xlink:href="#shape1"/>
    <use height="32.85" transform="matrix(0.9906, 0.0611, -0.0611, 0.9906, -62.5634, 20.2524)" width="27.95" xlink:href="#shape2"/>
    <use height="31.9" transform="matrix(0.9764, -0.2129, 0.2129, 0.9764, -64.5182, 23.2318)" width="19.3" xlink:href="#shape3"/>
    <use height="31.9" transform="matrix(0.8911, -0.4611, 0.2305, 0.4456, -71.8263, 28.3926)" width="19.3" xlink:href="#shape3"/>
  </g>
  <defs>
    <g id="sprite0" transform="matrix(1.0, 0.0, 0.0, 1.0, 33.45, 32.9)">
      <use height="65.8" transform="matrix(1.0, 0.0, 0.0, 1.0, -33.45, -32.9)" width="66.9" xlink:href="#shape0"/>
    </g>
    <g id="shape0" transform="matrix(1.0, 0.0, 0.0, 1.0, 33.45, 32.9)">
      <path d="M32.4 -1.8 L31.9 -4.0 Q28.65 -16.75 17.35 -25.05 14.75 -26.95 12.1 -28.35 L12.25 -28.3 17.4 -25.1 Q28.65 -16.85 31.9 -4.15 L32.35 -2.0 32.4 -1.8" fill="#3399cc" fill-rule="evenodd" stroke="none"/>
      <path d="M-19.1 -17.6 L-18.35 -18.35 Q-13.45 -22.85 -5.9 -23.5 L1.25 -23.1 1.4 -23.1 1.6 -23.05 Q7.55 -21.8 13.05 -17.8 L13.35 -17.8 13.1 -17.75 Q18.2 -14.0 20.75 -8.75 L20.9 -8.75 20.75 -8.7 Q22.6 -4.85 23.15 -0.15 24.35 11.0 22.4 15.35 17.15 21.8 7.95 22.5 -2.05 23.3 -10.95 16.85 -13.7 14.85 -15.8 12.5 L-16.05 12.25 Q-20.65 7.05 -22.4 0.35 -23.2 -2.9 -23.2 -5.9 L-23.2 -6.0 -21.7 -6.0 -23.2 -6.1 Q-23.15 -11.9 -19.95 -16.75 L-19.6 -17.3 -17.9 -19.45 -19.25 -17.7 -19.9 -16.7 -19.1 -17.6 M-16.95 -4.8 L-21.7 -6.0 -16.95 -4.8 M-0.7 -20.75 L-0.6 -17.85 -0.7 -20.75 M-14.7 -17.75 L-12.05 -14.7 -14.7 -17.75" fill="#cccc99" fill-rule="evenodd" stroke="none"/>
      <path d="M26.1 21.35 L26.35 21.55 23.2 25.3 Q16.85 31.5 6.75 32.3 -6.05 33.35 -17.35 25.1 -28.65 16.8 -31.9 4.05 -35.0 -8.05 -29.0 -17.45 L-28.35 -18.45 -28.2 -18.35 -28.75 -17.25 Q-32.5 -9.05 -29.9 1.05 -26.65 13.8 -15.35 22.1 -4.05 30.35 8.75 29.3 16.85 28.65 22.6 24.5 L26.1 21.35" fill="#000033" fill-rule="evenodd" stroke="none"/>
      <path d="M-19.1 -17.6 L-19.9 -16.7 -19.25 -17.7 -19.1 -17.6 M22.4 15.35 L23.35 14.05 24.0 13.1 Q28.5 5.75 26.1 -3.65 23.55 -13.65 14.7 -20.15 5.8 -26.65 -4.25 -25.85 -11.8 -25.2 -16.7 -20.7 L-17.9 -19.45 -16.35 -21.1 Q-11.45 -25.6 -3.9 -26.25 6.15 -27.05 15.05 -20.55 23.9 -14.05 26.45 -4.05 28.85 5.35 24.35 12.7 L23.7 13.65 22.35 15.45 22.4 15.35" fill="#ffffff" fill-rule="evenodd" stroke="none"/>
      <path d="M22.4 15.35 Q24.35 11.0 23.15 -0.15 22.6 -4.85 20.75 -8.7 L20.9 -8.75 20.75 -8.75 Q18.2 -14.0 13.1 -17.75 L13.35 -17.8 13.05 -17.8 Q7.55 -21.8 1.6 -23.05 L1.4 -23.1 1.25 -23.1 -5.9 -23.5 Q-13.45 -22.85 -18.35 -18.35 L-19.1 -17.6 -19.25 -17.7 -17.9 -19.45 -16.7 -20.7 Q-11.8 -25.2 -4.25 -25.85 5.8 -26.65 14.7 -20.15 23.55 -13.65 26.1 -3.65 28.5 5.75 24.0 13.1 L23.35 14.05 22.4 15.35" fill="#999966" fill-rule="evenodd" stroke="none"/>
      <path d="M-5.6 -32.35 L-6.55 -32.3 Q-15.75 -31.55 -21.8 -26.25 L-22.35 -25.8 Q-24.35 -23.9 -26.0 -21.5 L-26.35 -21.0 -24.0 -23.5 -23.45 -23.95 Q-17.35 -29.35 -8.0 -30.1 4.85 -31.1 16.25 -22.8 27.65 -14.5 30.9 -1.65 33.05 6.85 30.8 14.1 L31.5 12.35 31.05 13.7 30.9 14.05 30.6 14.7 29.15 17.3 28.35 18.55 27.6 19.6 27.05 20.25 26.1 21.35 22.6 24.5 Q16.85 28.65 8.75 29.3 -4.05 30.35 -15.35 22.1 -26.65 13.8 -29.9 1.05 -32.5 -9.05 -28.75 -17.25 L-28.2 -18.35 -27.6 -19.5 -26.35 -21.45 Q-24.7 -23.85 -22.65 -25.75 L-22.15 -26.2 Q-16.05 -31.55 -6.8 -32.3 L-5.6 -32.35 M31.75 11.5 L32.4 9.15 32.15 10.3 31.75 11.5 M-17.9 -19.45 L-19.6 -17.3 -19.95 -16.75 Q-23.15 -11.9 -23.2 -6.1 L-23.2 -6.0 -23.2 -5.9 Q-23.2 -2.9 -22.4 0.35 -20.65 7.05 -16.05 12.25 L-15.8 12.5 Q-13.7 14.85 -10.95 16.85 -2.05 23.3 7.95 22.5 17.15 21.8 22.4 15.35 L22.35 15.45 23.7 13.65 24.35 12.7 Q28.85 5.35 26.45 -4.05 23.9 -14.05 15.05 -20.55 6.15 -27.05 -3.9 -26.25 -11.45 -25.6 -16.35 -21.1 L-17.9 -19.45" fill="#003399" fill-rule="evenodd" stroke="none"/>
      <path d="M12.1 -28.35 Q14.75 -26.95 17.35 -25.05 28.65 -16.75 31.9 -4.0 L32.4 -1.8 32.95 3.85 32.4 9.15 31.75 11.5 31.4 12.7 31.5 12.3 31.5 12.35 30.8 14.1 Q33.05 6.85 30.9 -1.65 27.65 -14.5 16.25 -22.8 4.85 -31.1 -8.0 -30.1 -17.35 -29.35 -23.45 -23.95 L-24.0 -23.5 -26.35 -21.0 -26.0 -21.5 Q-24.35 -23.9 -22.35 -25.8 L-21.8 -26.25 Q-15.75 -31.55 -6.55 -32.3 L-5.6 -32.35 Q3.65 -32.8 12.1 -28.35" fill="#3366cc" fill-rule="evenodd" stroke="none"/>
      <path d="M-23.2 -6.1 L-21.7 -6.0 -23.2 -6.0 -23.2 -6.1" fill="#ffffcc" fill-rule="evenodd" stroke="none"/>
      <path d="M12.1 -28.35 Q14.75 -26.95 17.35 -25.05 28.65 -16.75 31.9 -4.0 L32.4 -1.8 Q33.6 4.65 32.15 10.3 L31.75 11.5 M12.1 -28.35 Q3.65 -32.8 -5.6 -32.35 L-6.8 -32.3 Q-16.05 -31.55 -22.15 -26.2 L-22.65 -25.75 Q-24.7 -23.85 -26.35 -21.45 L-27.6 -19.5 -28.2 -18.35 -28.75 -17.25 Q-32.5 -9.05 -29.9 1.05 -26.65 13.8 -15.35 22.1 -4.05 30.35 8.75 29.3 16.85 28.65 22.6 24.5 L26.1 21.35 27.05 20.25 27.6 19.6 28.35 18.55 29.15 17.3 30.6 14.7 30.9 14.05 31.05 13.7 31.5 12.35 M31.5 12.3 L31.4 12.7 31.75 11.5 M-17.9 -19.45 L-19.6 -17.3 -19.95 -16.75 Q-23.15 -11.9 -23.2 -6.1 M-21.7 -6.0 L-16.95 -4.8 M22.4 15.35 L23.35 14.05 24.0 13.1 Q28.5 5.75 26.1 -3.65 23.55 -13.65 14.7 -20.15 5.8 -26.65 -4.25 -25.85 -11.8 -25.2 -16.7 -20.7 L-17.9 -19.45 M22.4 15.35 Q17.15 21.8 7.95 22.5 -2.05 23.3 -10.95 16.85 -13.7 14.85 -15.8 12.5 L-16.05 12.25 Q-20.65 7.05 -22.4 0.35 -23.2 -2.9 -23.2 -5.9 L-23.2 -6.0 -23.2 -6.1 M26.35 21.55 L27.15 20.3 27.6 19.6 M-28.35 -18.45 L-29.0 -17.45 Q-35.0 -8.05 -31.9 4.05 -28.65 16.8 -17.35 25.1 -6.05 33.35 6.75 32.3 16.85 31.5 23.2 25.3 L26.35 21.55 M-28.35 -18.45 L-27.6 -19.5 M-0.6 -17.85 L-0.7 -20.75 M-12.05 -14.7 L-14.7 -17.75" fill="none" stroke="#000033" stroke-linecap="round" stroke-linejoin="round" stroke-width="1.0"/>
      <path d="M26.95 3.3 Q26.75 8.55 24.0 13.1 L23.35 14.05 22.4 15.35 Q17.15 21.8 7.95 22.5 2.3 22.95 -3.0 21.1" fill="none" stroke="#000033" stroke-linecap="round" stroke-linejoin="round" stroke-width="1.0"/>
      <path d="M-22.0 3.4 L-21.85 3.7 -21.85 3.75 -22.0 3.4" fill="#333333" fill-rule="evenodd" stroke="none"/>
    </g>
    <g id="shape1" transform="matrix(1.0, 0.0, 0.0, 1.0, 15.45, 10.15)">
      <path d="M15.0 -9.65 Q14.8 -4.4 12.05 0.15 L11.4 1.1 10.45 2.4 Q5.2 8.85 -4.0 9.55 -9.65 10.0 -14.95 8.15 -5.7 -9.05 15.0 -9.65" fill="#000033" fill-rule="evenodd" stroke="none"/>
      <path d="M-14.95 8.15 Q-5.7 -9.05 15.0 -9.65" fill="none" stroke="#000033" stroke-linecap="round" stroke-linejoin="round" stroke-width="1.0"/>
    </g>
    <g id="shape2" transform="matrix(1.0, 0.0, 0.0, 1.0, 13.95, 16.45)">
      <path d="M14.0 8.85 L4.5 16.4 -13.95 -16.45 14.0 8.85" fill="#000033" fill-rule="evenodd" stroke="none"/>
    </g>
    <g id="shape3" transform="matrix(1.0, 0.0, 0.0, 1.0, 9.65, 15.95)">
      <path d="M9.65 -13.55 L-8.45 15.95 -9.65 13.3 7.95 -15.95 9.65 -13.55" fill="#ffffff" fill-opacity="0.28627452" fill-rule="evenodd" stroke="none"/>
    </g>
  </defs>
</svg>
