<?xml version="1.0" encoding="UTF-8" standalone="no"?>
<svg xmlns:xlink="http://www.w3.org/1999/xlink" height="30.7px" width="90.7px" xmlns="http://www.w3.org/2000/svg">
  <g transform="matrix(1.0, 0.0, 0.0, 1.0, 45.35, 15.35)">
    <use height="30.7" transform="matrix(1.0, 0.0, 0.0, 1.0, -45.35, -15.35)" width="90.7" xlink:href="#shape0"/>
    <use height="15.95" transform="matrix(1.0, 0.0, 0.0, 1.0, -24.15, -5.95)" width="59.55" xlink:href="#text0"/>
    <use height="15.95" transform="matrix(1.0, 0.0, 0.0, 1.0, -25.85, -7.25)" width="59.55" xlink:href="#text1"/>
  </g>
  <defs>
    <g id="shape0" transform="matrix(1.0, 0.0, 0.0, 1.0, 45.35, 15.35)">
      <path d="M43.45 -13.45 Q44.0 -12.9 44.0 -12.05 L44.0 12.1 Q44.0 12.9 43.45 13.45 42.9 14.0 42.1 14.0 L-42.05 14.0 Q-42.9 14.0 -43.45 13.45 -44.0 12.9 -44.0 12.1 L-44.0 -12.05 Q-44.0 -12.9 -43.45 -13.45 -42.9 -14.0 -42.05 -14.0 L42.1 -14.0 Q42.9 -14.0 43.45 -13.45 Z" fill="none" stroke="#ffeca2" stroke-linecap="round" stroke-linejoin="round" stroke-width="2.75"/>
      <path d="M-42.05 -14.0 L42.1 -14.0 Q42.9 -14.0 43.45 -13.45 44.0 -12.9 44.0 -12.05 L44.0 12.1 Q44.0 12.9 43.45 13.45 42.9 14.0 42.1 14.0 L-42.05 14.0 Q-42.9 14.0 -43.45 13.45 -44.0 12.9 -44.0 12.1 L-44.0 -12.05 Q-44.0 -12.9 -43.45 -13.45 -42.9 -14.0 -42.05 -14.0" fill="url(#gradient0)" fill-rule="evenodd" stroke="none"/>
      <path d="M-42.35 -12.4 L-42.05 -12.5 42.1 -12.5 42.4 -12.4 42.4 -12.35 42.5 -12.05 42.5 12.1 42.4 12.4 42.1 12.5 -42.05 12.5 -42.35 12.4 -42.4 12.4 -42.5 12.1 -42.5 -12.05 -42.4 -12.35 -42.35 -12.4 M-42.0 -12.0 L-42.0 12.0 42.0 12.0 42.0 -12.0 -42.0 -12.0" fill="#f35001" fill-opacity="0.39607844" fill-rule="evenodd" stroke="none"/>
      <path d="M-42.35 -12.4 L-42.4 -12.35 -42.5 -12.05 -42.5 12.1 -42.4 12.4 -42.35 12.4 -42.05 12.5 42.1 12.5 42.4 12.4 42.5 12.1 42.5 -12.05 42.4 -12.35 42.4 -12.4 42.1 -12.5 -42.05 -12.5 -42.35 -12.4 M-42.75 -12.75 L-42.05 -13.0 42.1 -13.0 42.75 -12.75 43.0 -12.05 43.0 12.1 42.75 12.75 42.1 13.0 -42.05 13.0 -42.75 12.75 -43.0 12.1 -43.0 -12.05 -42.75 -12.75" fill="#f35001" fill-opacity="0.59607846" fill-rule="evenodd" stroke="none"/>
      <path d="M-43.5 -12.05 Q-43.5 -12.65 -43.1 -13.1 -42.65 -13.5 -42.05 -13.5 L42.1 -13.5 Q42.7 -13.5 43.1 -13.1 43.5 -12.65 43.5 -12.05 L43.5 12.1 Q43.5 12.7 43.1 13.1 42.7 13.5 42.1 13.5 L-42.05 13.5 Q-42.65 13.5 -43.1 13.1 -43.5 12.7 -43.5 12.1 L-43.5 -12.05 M-42.75 -12.75 L-43.0 -12.05 -43.0 12.1 -42.75 12.75 -42.05 13.0 42.1 13.0 42.75 12.75 43.0 12.1 43.0 -12.05 42.75 -12.75 42.1 -13.0 -42.05 -13.0 -42.75 -12.75" fill="#f35001" fill-opacity="0.79607844" fill-rule="evenodd" stroke="none"/>
      <path d="M-42.05 -14.0 L42.1 -14.0 Q42.9 -14.0 43.45 -13.45 44.0 -12.9 44.0 -12.05 L44.0 12.1 Q44.0 12.9 43.45 13.45 42.9 14.0 42.1 14.0 L-42.05 14.0 Q-42.9 14.0 -43.45 13.45 -44.0 12.9 -44.0 12.1 L-44.0 -12.05 Q-44.0 -12.9 -43.45 -13.45 -42.9 -14.0 -42.05 -14.0 M-43.5 -12.05 L-43.5 12.1 Q-43.5 12.7 -43.1 13.1 -42.65 13.5 -42.05 13.5 L42.1 13.5 Q42.7 13.5 43.1 13.1 43.5 12.7 43.5 12.1 L43.5 -12.05 Q43.5 -12.65 43.1 -13.1 42.7 -13.5 42.1 -13.5 L-42.05 -13.5 Q-42.65 -13.5 -43.1 -13.1 -43.5 -12.65 -43.5 -12.05" fill="#f35001" fill-rule="evenodd" stroke="none"/>
      <path d="M-42.0 -12.0 L42.0 -12.0 42.0 12.0 -42.0 12.0 -42.0 -12.0 M-41.5 -11.5 L-41.5 11.5 41.5 11.5 41.5 -11.5 -41.5 -11.5" fill="#f35001" fill-opacity="0.19607843" fill-rule="evenodd" stroke="none"/>
      <path d="M-40.95 -11.0 L-40.25 -11.3 40.25 -11.3 40.95 -11.0 41.25 -10.3 41.25 -2.8 40.95 -2.1 Q40.65 -1.8 40.25 -1.8 L-40.25 -1.8 Q-40.65 -1.8 -40.95 -2.1 L-41.25 -2.8 -41.25 -10.3 -40.95 -11.0" fill="#ffffff" fill-opacity="0.4" fill-rule="evenodd" stroke="none"/>
    </g>
    <linearGradient gradientTransform="matrix(0.0, 0.0159, -1.0, 0.0, 196.45, -0.05)" gradientUnits="userSpaceOnUse" id="gradient0" spreadMethod="pad" x1="-819.2" x2="819.2">
      <stop offset="0.0" stop-color="#ff6600"/>
      <stop offset="1.0" stop-color="#febe01"/>
    </linearGradient>
    <g id="text0" transform="matrix(1.0, 0.0, 0.0, 1.0, -1.05, -1.1)">
      <g transform="matrix(1.0, 0.0, 0.0, 1.0, 0.0, 0.0)">
        <use fill="#d15f01" height="15.95" transform="matrix(0.3516, 0.0, 0.0, 0.3516, 0.0, 15.0)" width="59.55" xlink:href="#font_HG___________0"/>
        <use fill="#d15f01" height="15.95" transform="matrix(0.3516, 0.0, 0.0, 0.3516, 18.0, 15.0)" width="59.55" xlink:href="#font_HG___________1"/>
        <use fill="#d15f01" height="15.95" transform="matrix(0.3516, 0.0, 0.0, 0.3516, 36.0, 15.0)" width="59.55" xlink:href="#font_HG___________2"/>
      </g>
    </g>
    <g id="font_HG___________0">
      <path d="M38.8 -3.0 L38.8 -3.0 Q37.6 -4.0 37.4 -5.6 37.2 -7.4 38.2 -8.8 39.2 -10.2 41.4 -10.2 42.8 -10.2 44.2 -9.2 45.4 -8.0 45.4 -6.2 45.0 -3.0 42.4 -2.2 40.2 -1.8 38.8 -3.0 M38.4 -12.2 L45.0 -24.2 Q47.8 -29.4 47.2 -33.2 46.4 -37.6 42.8 -38.8 39.6 -39.8 32.0 -38.6 L3.0 -34.2 4.6 -25.2 37.8 -31.2 30.0 -16.6 19.8 0.4 28.4 4.6 34.8 -6.0 Q35.6 -2.2 38.0 -0.6 40.4 0.8 43.8 -0.2 47.0 -1.4 47.6 -5.0 48.2 -9.2 45.2 -11.4 42.6 -13.4 38.4 -12.2" fill-rule="evenodd" stroke="none"/>
    </g>
    <g id="font_HG___________1">
      <path d="M19.2 -39.6 L10.2 -40.0 Q7.6 -19.8 7.4 -11.2 7.2 -4.4 7.8 -2.0 9.0 2.8 14.2 3.6 17.4 4.0 22.4 2.6 32.2 -0.4 47.8 -8.0 L44.2 -16.6 Q34.0 -11.8 29.4 -10.0 24.6 -8.2 16.8 -5.8 L17.6 -23.6 Q18.0 -29.8 19.2 -39.6" fill-rule="evenodd" stroke="none"/>
    </g>
    <g id="font_HG___________2">
      <path d="M22.6 -29.2 L22.6 -29.2 Q13.2 -22.6 4.4 -16.0 L9.4 -6.8 24.0 -19.0 22.4 3.8 31.8 4.0 33.2 -25.4 47.6 -34.6 40.8 -40.8 22.6 -29.2" fill-rule="evenodd" stroke="none"/>
    </g>
    <g id="text1" transform="matrix(1.0, 0.0, 0.0, 1.0, -1.05, -1.1)">
      <g transform="matrix(1.0, 0.0, 0.0, 1.0, 0.0, 0.0)">
        <use fill="#ffffff" height="15.95" transform="matrix(0.3516, 0.0, 0.0, 0.3516, 0.0, 15.0)" width="59.55" xlink:href="#font_HG___________0"/>
        <use fill="#ffffff" height="15.95" transform="matrix(0.3516, 0.0, 0.0, 0.3516, 18.0, 15.0)" width="59.55" xlink:href="#font_HG___________1"/>
        <use fill="#ffffff" height="15.95" transform="matrix(0.3516, 0.0, 0.0, 0.3516, 36.0, 15.0)" width="59.55" xlink:href="#font_HG___________2"/>
      </g>
    </g>
  </defs>
</svg>
