<?xml version="1.0" encoding="UTF-8" standalone="no"?>
<svg xmlns:xlink="http://www.w3.org/1999/xlink" height="58.85px" width="146.95px" xmlns="http://www.w3.org/2000/svg">
  <g transform="matrix(1.0, 0.0, 0.0, 1.0, 73.45, 29.4)">
    <use height="58.85" transform="matrix(1.0, 0.0, 0.0, 1.0, -73.45, -29.4)" width="146.95" xlink:href="#shape0"/>
  </g>
  <defs>
    <g id="shape0" transform="matrix(1.0, 0.0, 0.0, 1.0, 73.45, 29.4)">
      <path d="M-17.25 -23.2 L-25.0 -1.6 -25.95 -1.7 -26.95 -1.65 -27.95 -1.6 Q-28.35 -1.6 -29.1 -4.15 -32.35 -14.55 -33.35 -21.0 L-29.3 -22.7 -25.05 -10.4 -22.35 -18.5 Q-20.7 -23.3 -20.4 -23.3 L-19.3 -23.2 -18.15 -23.1 -17.25 -23.2" fill="#000000" fill-rule="evenodd" stroke="none"/>
      <path d="M-17.25 -23.2 L-25.0 -1.6 -25.95 -1.7 -26.95 -1.65 -27.95 -1.6 Q-28.35 -1.6 -29.1 -4.15 -32.35 -14.55 -33.35 -21.0 L-29.3 -22.7 -25.05 -10.4 -22.35 -18.5 Q-20.7 -23.3 -20.4 -23.3 L-19.3 -23.2 -18.15 -23.1 -17.25 -23.2 Z" fill="none" stroke="#000000" stroke-linecap="round" stroke-linejoin="round" stroke-width="4.0"/>
      <path d="M-13.4 -24.95 Q-13.4 -24.05 -13.85 -23.2 -14.45 -22.2 -15.25 -22.2 -16.05 -22.2 -16.55 -23.1 -16.95 -23.85 -16.95 -24.7 -17.0 -25.65 -16.55 -26.4 -16.05 -27.4 -15.2 -27.4 -14.3 -27.4 -13.8 -26.55 -13.4 -25.85 -13.4 -24.95 M-15.6 -19.5 L-13.55 -19.7 -13.45 -16.7 -13.8 -9.3 -14.1 -1.95 -15.85 -2.05 -17.6 -2.25 -17.95 -1.95 -17.1 -19.7 -15.6 -19.5" fill="#000000" fill-rule="evenodd" stroke="none"/>
      <path d="M-13.4 -24.95 Q-13.4 -24.05 -13.85 -23.2 -14.45 -22.2 -15.25 -22.2 -16.05 -22.2 -16.55 -23.1 -16.95 -23.85 -16.95 -24.7 -17.0 -25.65 -16.55 -26.4 -16.05 -27.4 -15.2 -27.4 -14.3 -27.4 -13.8 -26.55 -13.4 -25.85 -13.4 -24.95 M-15.6 -19.5 L-13.55 -19.7 -13.45 -16.7 -13.8 -9.3 -14.1 -1.95 -15.85 -2.05 -17.6 -2.25 -17.95 -1.95 -17.1 -19.7 -15.6 -19.5" fill="none" stroke="#000000" stroke-linecap="round" stroke-linejoin="round" stroke-width="4.0"/>
      <path d="M-1.05 -13.65 L-7.25 -12.0 -7.25 -10.25 Q-7.0 -9.8 -6.75 -9.8 -6.2 -9.8 -4.8 -10.3 L-2.85 -10.85 -1.6 -10.85 -1.6 -7.35 -10.6 -3.75 -11.6 -13.7 -12.2 -22.05 -12.2 -24.0 -2.2 -24.0 -2.3 -20.8 -9.0 -19.45 -9.0 -17.9 -8.65 -17.4 Q-8.45 -17.15 -8.1 -17.2 L-5.6 -17.65 -1.05 -18.5 -1.05 -15.35 -1.05 -13.65" fill="#000000" fill-rule="evenodd" stroke="none"/>
      <path d="M-1.05 -13.65 L-7.25 -12.0 -7.25 -10.25 Q-7.0 -9.8 -6.75 -9.8 -6.2 -9.8 -4.8 -10.3 L-2.85 -10.85 -1.6 -10.85 -1.6 -7.35 -10.6 -3.75 -11.6 -13.7 -12.2 -22.05 -12.2 -24.0 -2.2 -24.0 -2.3 -20.8 -9.0 -19.45 -9.0 -17.9 -8.65 -17.4 Q-8.45 -17.15 -8.1 -17.2 L-5.6 -17.65 -1.05 -18.5 -1.05 -15.35 -1.05 -13.65 Z" fill="none" stroke="#000000" stroke-linecap="round" stroke-linejoin="round" stroke-width="4.0"/>
      <path d="M16.55 -1.05 L12.5 -0.25 8.9 -13.35 Q8.65 -13.4 8.55 -13.15 7.2 -7.2 5.9 -3.0 4.35 -2.9 2.15 -3.6 L-1.8 -21.0 0.7 -22.15 1.75 -16.65 Q2.35 -13.8 3.1 -11.15 L5.95 -22.35 Q6.3 -22.7 7.2 -22.7 L8.1 -22.6 9.0 -22.55 9.8 -22.65 12.35 -10.65 Q13.3 -13.3 14.0 -16.75 L15.2 -22.95 18.05 -22.95 16.55 -1.05" fill="#000000" fill-rule="evenodd" stroke="none"/>
      <path d="M16.55 -1.05 L12.5 -0.25 8.9 -13.35 Q8.65 -13.4 8.55 -13.15 7.2 -7.2 5.9 -3.0 4.35 -2.9 2.15 -3.6 L-1.8 -21.0 0.7 -22.15 1.75 -16.65 Q2.35 -13.8 3.1 -11.15 L5.95 -22.35 Q6.3 -22.7 7.2 -22.7 L8.1 -22.6 9.0 -22.55 9.8 -22.65 12.35 -10.65 Q13.3 -13.3 14.0 -16.75 L15.2 -22.95 18.05 -22.95 16.55 -1.05 Z" fill="none" stroke="#000000" stroke-linecap="round" stroke-linejoin="round" stroke-width="4.0"/>
      <path d="M-66.9 4.45 Q-66.9 5.35 -67.35 6.2 -67.95 7.2 -68.75 7.2 -69.55 7.2 -70.05 6.3 -70.45 5.55 -70.45 4.7 -70.5 3.75 -70.05 3.0 -69.55 2.0 -68.7 2.0 -67.8 2.0 -67.3 2.85 -66.9 3.55 -66.9 4.45 M-69.1 9.9 L-67.05 9.7 -66.95 12.7 -67.3 20.1 -67.6 27.45 -69.35 27.35 -71.1 27.15 -71.45 27.45 -70.6 9.7 -69.1 9.9" fill="#000000" fill-rule="evenodd" stroke="none"/>
      <path d="M-66.9 4.45 Q-66.9 5.35 -67.35 6.2 -67.95 7.2 -68.75 7.2 -69.55 7.2 -70.05 6.3 -70.45 5.55 -70.45 4.7 -70.5 3.75 -70.05 3.0 -69.55 2.0 -68.7 2.0 -67.8 2.0 -67.3 2.85 -66.9 3.55 -66.9 4.45 M-69.1 9.9 L-67.05 9.7 -66.95 12.7 -67.3 20.1 -67.6 27.45 -69.35 27.35 -71.1 27.15 -71.45 27.45 -70.6 9.7 -69.1 9.9" fill="none" stroke="#000000" stroke-linecap="round" stroke-linejoin="round" stroke-width="4.0"/>
      <path d="M-51.9 2.95 L-51.9 23.7 -54.4 25.15 -61.9 17.45 -61.9 18.4 Q-61.9 20.7 -61.35 22.5 L-61.35 23.45 -63.3 24.9 -64.85 25.95 Q-65.2 26.0 -65.4 23.1 L-66.1 9.05 Q-62.8 7.05 -62.0 7.05 -61.75 7.05 -59.85 10.35 L-56.8 15.0 -55.25 4.2 -51.9 2.95" fill="#000000" fill-rule="evenodd" stroke="none"/>
      <path d="M-51.9 2.95 L-51.9 23.7 -54.4 25.15 -61.9 17.45 -61.9 18.4 Q-61.9 20.7 -61.35 22.5 L-61.35 23.45 -63.3 24.9 -64.85 25.95 Q-65.2 26.0 -65.4 23.1 L-66.1 9.05 Q-62.8 7.05 -62.0 7.05 -61.75 7.05 -59.85 10.35 L-56.8 15.0 -55.25 4.2 -51.9 2.95 Z" fill="none" stroke="#000000" stroke-linecap="round" stroke-linejoin="round" stroke-width="4.0"/>
      <path d="M-37.9 17.9 Q-37.9 19.15 -38.85 20.85 -40.9 24.5 -45.7 24.5 L-48.6 24.3 Q-50.35 23.95 -51.45 23.0 L-50.35 20.4 -48.05 21.05 -45.8 21.45 Q-44.85 21.45 -43.7 20.5 -42.55 19.5 -42.35 18.6 -43.45 16.8 -45.85 16.8 L-46.7 16.8 -47.5 16.8 Q-49.3 16.8 -50.2 15.85 L-50.75 14.65 -50.9 13.35 Q-50.95 7.75 -44.1 7.75 L-41.85 7.85 -38.75 8.95 Q-39.15 9.45 -39.4 10.8 L-39.65 12.65 -40.2 12.65 -42.45 12.15 Q-44.3 11.6 -44.85 11.6 L-46.05 11.6 -47.3 12.55 Q-46.85 13.3 -46.05 13.45 L-43.65 13.6 Q-41.45 13.8 -39.9 14.65 -37.9 15.8 -37.9 17.9" fill="#000000" fill-rule="evenodd" stroke="none"/>
      <path d="M-37.9 17.9 Q-37.9 19.15 -38.85 20.85 -40.9 24.5 -45.7 24.5 L-48.6 24.3 Q-50.35 23.95 -51.45 23.0 L-50.35 20.4 -48.05 21.05 -45.8 21.45 Q-44.85 21.45 -43.7 20.5 -42.55 19.5 -42.35 18.6 -43.45 16.8 -45.85 16.8 L-46.7 16.8 -47.5 16.8 Q-49.3 16.8 -50.2 15.85 L-50.75 14.65 -50.9 13.35 Q-50.95 7.75 -44.1 7.75 L-41.85 7.85 -38.75 8.95 Q-39.15 9.45 -39.4 10.8 L-39.65 12.65 -40.2 12.65 -42.45 12.15 Q-44.3 11.6 -44.85 11.6 L-46.05 11.6 -47.3 12.55 Q-46.85 13.3 -46.05 13.45 L-43.65 13.6 Q-41.45 13.8 -39.9 14.65 -37.9 15.8 -37.9 17.9 Z" fill="none" stroke="#000000" stroke-linecap="round" stroke-linejoin="round" stroke-width="4.0"/>
      <path d="M-24.5 9.75 Q-26.25 10.45 -27.05 10.9 -28.75 11.85 -29.3 13.0 L-27.95 23.5 Q-30.95 24.4 -32.85 25.45 L-33.4 14.4 Q-33.6 14.1 -33.95 14.1 L-35.1 14.55 -36.1 15.05 Q-36.3 15.0 -36.95 15.3 L-37.8 15.55 -38.9 15.55 Q-38.75 15.05 -38.75 13.6 L-38.9 9.9 -26.5 5.45 -25.05 5.45 -24.5 9.75" fill="#000000" fill-rule="evenodd" stroke="none"/>
      <path d="M-24.5 9.75 Q-26.25 10.45 -27.05 10.9 -28.75 11.85 -29.3 13.0 L-27.95 23.5 Q-30.95 24.4 -32.85 25.45 L-33.4 14.4 Q-33.6 14.1 -33.95 14.1 L-35.1 14.55 -36.1 15.05 Q-36.3 15.0 -36.95 15.3 L-37.8 15.55 -38.9 15.55 Q-38.75 15.05 -38.75 13.6 L-38.9 9.9 -26.5 5.45 -25.05 5.45 -24.5 9.75 Z" fill="none" stroke="#000000" stroke-linecap="round" stroke-linejoin="round" stroke-width="4.0"/>
      <path d="M-13.7 14.2 Q-14.55 15.1 -16.65 16.2 L-13.8 18.1 Q-11.65 19.5 -10.8 20.8 L-12.9 25.65 -17.1 21.85 Q-19.25 19.9 -21.3 18.5 L-21.35 19.55 -21.1 22.85 Q-22.5 23.4 -25.3 23.95 L-25.7 17.8 -25.7 7.7 Q-25.7 6.95 -25.1 5.75 L-24.55 5.35 -22.0 5.35 -21.85 6.5 Q-21.75 7.25 -21.5 7.25 L-20.25 6.55 -18.75 5.75 -16.2 5.35 Q-14.6 5.35 -13.45 6.15 -11.85 7.35 -11.85 9.9 -11.8 12.45 -13.7 14.2 M-15.45 10.1 Q-16.2 9.5 -16.6 9.5 -17.45 9.45 -17.95 10.45 L-18.4 12.15 -18.35 12.75 -16.65 11.75 Q-15.7 11.2 -15.45 10.1" fill="#000000" fill-rule="evenodd" stroke="none"/>
      <path d="M-13.7 14.2 Q-14.55 15.1 -16.65 16.2 L-13.8 18.1 Q-11.65 19.5 -10.8 20.8 L-12.9 25.65 -17.1 21.85 Q-19.25 19.9 -21.3 18.5 L-21.35 19.55 -21.1 22.85 Q-22.5 23.4 -25.3 23.95 L-25.7 17.8 -25.7 7.7 Q-25.7 6.95 -25.1 5.75 L-24.55 5.35 -22.0 5.35 -21.85 6.5 Q-21.75 7.25 -21.5 7.25 L-20.25 6.55 -18.75 5.75 -16.2 5.35 Q-14.6 5.35 -13.45 6.15 -11.85 7.35 -11.85 9.9 -11.8 12.45 -13.7 14.2 M-15.45 10.1 Q-16.2 9.5 -16.6 9.5 -17.45 9.45 -17.95 10.45 L-18.4 12.15 -18.35 12.75 -16.65 11.75 Q-15.7 11.2 -15.45 10.1" fill="none" stroke="#000000" stroke-linecap="round" stroke-linejoin="round" stroke-width="4.0"/>
      <path d="M-0.6 8.85 L-0.6 8.6 -0.6 8.3 -0.3 7.9 1.1 8.2 2.6 8.5 2.95 12.15 Q2.95 17.25 1.5 20.7 -0.55 25.45 -4.9 25.45 -7.4 25.45 -9.3 23.4 -11.6 21.0 -11.6 16.95 -11.6 15.4 -10.55 10.95 -9.45 6.25 -8.85 6.25 -8.55 6.25 -5.95 8.0 -6.45 9.25 -6.55 10.65 L-6.65 13.4 Q-6.65 18.6 -3.9 18.65 -3.15 18.6 -1.95 17.75 -0.95 16.95 -0.6 15.25 L-0.3 13.35 -0.1 11.45 -0.35 10.1 -0.6 8.85" fill="#000000" fill-rule="evenodd" stroke="none"/>
      <path d="M-0.6 8.85 L-0.6 8.6 -0.6 8.3 -0.3 7.9 1.1 8.2 2.6 8.5 2.95 12.15 Q2.95 17.25 1.5 20.7 -0.55 25.45 -4.9 25.45 -7.4 25.45 -9.3 23.4 -11.6 21.0 -11.6 16.95 -11.6 15.4 -10.55 10.95 -9.45 6.25 -8.85 6.25 -8.55 6.25 -5.95 8.0 -6.45 9.25 -6.55 10.65 L-6.65 13.4 Q-6.65 18.6 -3.9 18.65 -3.15 18.6 -1.95 17.75 -0.95 16.95 -0.6 15.25 L-0.3 13.35 -0.1 11.45 -0.35 10.1 -0.6 8.85 Z" fill="none" stroke="#000000" stroke-linecap="round" stroke-linejoin="round" stroke-width="4.0"/>
      <path d="M12.6 12.2 Q7.1 12.2 7.1 15.15 7.1 18.35 10.2 18.35 L12.1 18.0 14.6 17.25 15.0 20.95 Q14.2 22.05 12.1 22.85 L9.15 23.55 Q7.2 23.55 5.35 21.55 3.15 19.15 3.15 15.7 3.15 10.7 6.45 8.15 8.9 6.25 11.9 6.25 12.95 6.25 14.1 7.15 L13.75 12.2 12.6 12.2" fill="#000000" fill-rule="evenodd" stroke="none"/>
      <path d="M12.6 12.2 Q7.1 12.2 7.1 15.15 7.1 18.35 10.2 18.35 L12.1 18.0 14.6 17.25 15.0 20.95 Q14.2 22.05 12.1 22.85 L9.15 23.55 Q7.2 23.55 5.35 21.55 3.15 19.15 3.15 15.7 3.15 10.7 6.45 8.15 8.9 6.25 11.9 6.25 12.95 6.25 14.1 7.15 L13.75 12.2 12.6 12.2 Z" fill="none" stroke="#000000" stroke-linecap="round" stroke-linejoin="round" stroke-width="4.0"/>
      <path d="M28.45 9.75 Q26.7 10.45 25.9 10.9 24.2 11.85 23.65 13.0 L25.0 23.5 Q22.0 24.4 20.1 25.45 L19.55 14.4 Q19.35 14.1 19.0 14.1 18.65 14.1 17.85 14.55 L16.85 15.05 Q16.65 15.0 16.0 15.3 L15.15 15.55 14.05 15.55 14.2 13.6 14.05 9.9 26.45 5.45 27.9 5.45 28.45 9.75" fill="#000000" fill-rule="evenodd" stroke="none"/>
      <path d="M28.45 9.75 Q26.7 10.45 25.9 10.9 24.2 11.85 23.65 13.0 L25.0 23.5 Q22.0 24.4 20.1 25.45 L19.55 14.4 Q19.35 14.1 19.0 14.1 18.65 14.1 17.85 14.55 L16.85 15.05 Q16.65 15.0 16.0 15.3 L15.15 15.55 14.05 15.55 14.2 13.6 14.05 9.9 26.45 5.45 27.9 5.45 28.45 9.75 Z" fill="none" stroke="#000000" stroke-linecap="round" stroke-linejoin="round" stroke-width="4.0"/>
      <path d="M32.8 4.45 L32.35 6.2 Q31.75 7.2 30.95 7.2 30.15 7.2 29.65 6.3 29.25 5.55 29.25 4.7 29.2 3.75 29.65 3.0 30.15 2.0 31.0 2.0 31.9 2.0 32.4 2.85 32.8 3.55 32.8 4.45 M30.6 9.9 L32.65 9.7 32.75 12.7 32.4 20.1 32.1 27.45 30.35 27.35 28.6 27.15 28.25 27.45 29.1 9.7 30.6 9.9" fill="#000000" fill-rule="evenodd" stroke="none"/>
      <path d="M32.8 4.45 L32.35 6.2 Q31.75 7.2 30.95 7.2 30.15 7.2 29.65 6.3 29.25 5.55 29.25 4.7 29.2 3.75 29.65 3.0 30.15 2.0 31.0 2.0 31.9 2.0 32.4 2.85 32.8 3.55 32.8 4.45 M30.6 9.9 L32.65 9.7 32.75 12.7 32.4 20.1 32.1 27.45 30.35 27.35 28.6 27.15 28.25 27.45 29.1 9.7 30.6 9.9" fill="none" stroke="#000000" stroke-linecap="round" stroke-linejoin="round" stroke-width="4.0"/>
      <path d="M43.7 15.7 Q43.7 18.45 42.2 20.35 40.9 22.05 39.55 22.05 37.55 22.0 35.9 20.4 33.9 18.45 33.9 14.9 33.9 12.05 35.75 10.4 37.2 9.15 38.9 9.15 41.2 9.15 42.55 11.35 43.7 13.25 43.7 15.7 M40.25 14.25 L39.15 13.9 38.05 13.55 37.45 17.1 39.7 18.0 40.05 16.15 40.25 14.25" fill="#000000" fill-rule="evenodd" stroke="none"/>
      <path d="M43.7 15.7 Q43.7 18.45 42.2 20.35 40.9 22.05 39.55 22.05 37.55 22.0 35.9 20.4 33.9 18.45 33.9 14.9 33.9 12.05 35.75 10.4 37.2 9.15 38.9 9.15 41.2 9.15 42.55 11.35 43.7 13.25 43.7 15.7 M40.25 14.25 L39.15 13.9 38.05 13.55 37.45 17.1 39.7 18.0 40.05 16.15 40.25 14.25" fill="none" stroke="#000000" stroke-linecap="round" stroke-linejoin="round" stroke-width="4.0"/>
      <path d="M57.5 2.95 L57.5 23.7 Q56.8 24.0 55.0 25.15 L47.5 17.45 47.5 18.4 Q47.5 20.7 48.05 22.5 L48.05 23.45 Q47.55 23.75 46.1 24.9 L44.55 25.95 Q44.2 26.0 44.0 23.1 L43.3 9.05 Q46.6 7.05 47.4 7.05 47.65 7.05 49.55 10.35 51.65 14.0 52.6 15.0 L54.15 4.2 57.5 2.95" fill="#000000" fill-rule="evenodd" stroke="none"/>
      <path d="M57.5 2.95 L57.5 23.7 Q56.8 24.0 55.0 25.15 L47.5 17.45 47.5 18.4 Q47.5 20.7 48.05 22.5 L48.05 23.45 Q47.55 23.75 46.1 24.9 L44.55 25.95 Q44.2 26.0 44.0 23.1 L43.3 9.05 Q46.6 7.05 47.4 7.05 47.65 7.05 49.55 10.35 51.65 14.0 52.6 15.0 L54.15 4.2 57.5 2.95 Z" fill="none" stroke="#000000" stroke-linecap="round" stroke-linejoin="round" stroke-width="4.0"/>
      <path d="M71.5 17.9 Q71.5 19.15 70.55 20.85 68.5 24.5 63.7 24.5 L60.8 24.3 Q59.05 23.95 57.95 23.0 L59.05 20.4 61.35 21.05 63.6 21.45 Q64.55 21.45 65.7 20.5 66.85 19.5 67.05 18.6 65.95 16.8 63.55 16.8 L62.7 16.8 61.9 16.8 Q60.1 16.8 59.2 15.85 L58.65 14.65 58.5 13.35 Q58.45 7.75 65.3 7.75 L67.55 7.85 70.65 8.95 Q70.25 9.45 70.0 10.8 L69.75 12.65 69.2 12.65 66.95 12.15 64.55 11.6 63.35 11.6 62.1 12.55 Q62.55 13.3 63.35 13.45 L65.75 13.6 Q67.95 13.8 69.5 14.65 71.5 15.8 71.5 17.9" fill="#000000" fill-rule="evenodd" stroke="none"/>
      <path d="M71.5 17.9 Q71.5 19.15 70.55 20.85 68.5 24.5 63.7 24.5 L60.8 24.3 Q59.05 23.95 57.95 23.0 L59.05 20.4 61.35 21.05 63.6 21.45 Q64.55 21.45 65.7 20.5 66.85 19.5 67.05 18.6 65.95 16.8 63.55 16.8 L62.7 16.8 61.9 16.8 Q60.1 16.8 59.2 15.85 L58.65 14.65 58.5 13.35 Q58.45 7.75 65.3 7.75 L67.55 7.85 70.65 8.95 Q70.25 9.45 70.0 10.8 L69.75 12.65 69.2 12.65 66.95 12.15 64.55 11.6 63.35 11.6 62.1 12.55 Q62.55 13.3 63.35 13.45 L65.75 13.6 Q67.95 13.8 69.5 14.65 71.5 15.8 71.5 17.9 Z" fill="none" stroke="#000000" stroke-linecap="round" stroke-linejoin="round" stroke-width="4.0"/>
      <path d="M-17.25 -23.2 L-25.0 -1.6 -26.0 -1.75 -27.0 -1.65 -27.95 -1.6 Q-28.35 -1.6 -29.15 -4.15 -32.35 -14.55 -33.35 -21.0 L-29.3 -22.7 -25.05 -10.4 -22.4 -18.5 Q-20.7 -23.3 -20.4 -23.3 L-19.3 -23.2 -18.2 -23.1 -17.25 -23.2" fill="#ffff00" fill-rule="evenodd" stroke="none"/>
      <path d="M-13.85 -23.2 Q-14.4 -22.2 -15.2 -22.2 -16.0 -22.2 -16.5 -23.1 -16.95 -23.85 -16.95 -24.7 -16.95 -25.65 -16.55 -26.4 -16.05 -27.4 -15.15 -27.4 -14.3 -27.4 -13.8 -26.55 -13.35 -25.85 -13.35 -24.95 -13.35 -24.05 -13.85 -23.2 M-13.45 -16.7 Q-13.45 -14.1 -13.75 -9.3 L-14.05 -1.95 -15.8 -2.05 -17.6 -2.25 -17.95 -1.95 -17.1 -19.7 -15.55 -19.5 -13.55 -19.7 -13.45 -16.7" fill="#ffff00" fill-rule="evenodd" stroke="none"/>
      <path d="M-1.05 -13.65 L-7.25 -12.0 -7.25 -10.25 Q-7.0 -9.8 -6.75 -9.8 -6.2 -9.8 -4.8 -10.3 L-2.85 -10.85 -1.6 -10.85 -1.6 -7.35 -10.6 -3.75 -11.6 -13.7 -12.2 -22.05 -12.2 -24.0 -2.2 -24.0 -2.3 -20.8 -9.0 -19.45 -9.0 -17.9 -8.65 -17.4 Q-8.45 -17.15 -8.1 -17.2 L-5.6 -17.65 -1.05 -18.5 -1.05 -15.35 -1.05 -13.65" fill="#ffff00" fill-rule="evenodd" stroke="none"/>
      <path d="M18.05 -22.95 L16.5 -1.05 12.45 -0.25 8.85 -13.35 Q8.65 -13.45 8.5 -13.15 7.2 -7.2 5.85 -3.0 4.35 -2.9 2.15 -3.6 L-1.8 -21.0 0.7 -22.15 1.75 -16.65 3.05 -11.15 5.95 -22.35 Q6.3 -22.7 7.2 -22.7 L8.1 -22.6 9.0 -22.55 9.8 -22.65 12.35 -10.65 Q13.3 -13.3 14.0 -16.75 L15.2 -22.95 18.05 -22.95" fill="#ffff00" fill-rule="evenodd" stroke="none"/>
      <path d="M-67.4 6.2 Q-67.95 7.2 -68.75 7.2 -69.55 7.2 -70.05 6.3 L-70.5 4.7 Q-70.5 3.75 -70.1 3.0 -69.6 2.0 -68.7 2.0 -67.85 2.0 -67.35 2.85 -66.9 3.55 -66.9 4.45 -66.9 5.35 -67.4 6.2 M-67.0 12.7 Q-67.0 15.3 -67.3 20.1 L-67.6 27.45 -69.35 27.35 -71.15 27.15 -71.5 27.45 -70.65 9.7 -69.1 9.9 -67.1 9.7 -67.0 12.7" fill="#ffff00" fill-rule="evenodd" stroke="none"/>
      <path d="M-51.9 3.0 L-51.9 23.75 -54.4 25.2 -61.9 17.5 -61.9 18.45 Q-61.9 20.75 -61.3 22.55 L-61.3 23.5 Q-61.85 23.75 -63.3 24.9 L-64.85 26.0 Q-65.2 26.0 -65.4 23.15 L-66.1 9.05 Q-62.8 7.05 -62.0 7.05 -61.75 7.1 -59.85 10.4 L-56.8 15.05 -55.25 4.2 -51.9 3.0" fill="#ffff00" fill-rule="evenodd" stroke="none"/>
      <path d="M-37.9 17.9 Q-37.9 19.15 -38.85 20.85 -40.9 24.5 -45.7 24.5 L-48.6 24.3 Q-50.35 23.95 -51.45 23.0 L-50.35 20.4 -48.05 21.05 -45.8 21.45 Q-44.85 21.45 -43.7 20.5 -42.55 19.5 -42.35 18.6 -43.45 16.8 -45.85 16.8 L-46.65 16.8 -47.5 16.8 Q-49.3 16.8 -50.2 15.85 L-50.75 14.65 -50.9 13.35 Q-50.95 7.75 -44.1 7.75 L-41.85 7.85 -38.75 8.95 Q-39.15 9.45 -39.4 10.8 L-39.65 12.65 -40.2 12.65 -42.45 12.15 Q-44.3 11.6 -44.85 11.6 L-46.05 11.6 -47.3 12.55 Q-46.85 13.3 -46.05 13.45 L-43.65 13.6 Q-41.45 13.8 -39.9 14.65 -37.9 15.8 -37.9 17.9" fill="#ffff00" fill-rule="evenodd" stroke="none"/>
      <path d="M-24.5 9.75 Q-26.25 10.45 -27.05 10.9 -28.8 11.85 -29.3 13.0 L-27.95 23.5 Q-30.95 24.4 -32.9 25.45 L-33.4 14.4 Q-33.6 14.1 -34.0 14.1 L-35.1 14.55 -36.1 15.05 Q-36.35 15.0 -36.95 15.3 L-37.8 15.55 -38.9 15.55 -38.8 13.6 -38.9 9.9 -26.5 5.45 -25.05 5.45 -24.5 9.75" fill="#ffff00" fill-rule="evenodd" stroke="none"/>
      <path d="M-13.7 14.2 Q-14.55 15.1 -16.65 16.2 L-13.8 18.1 Q-11.65 19.5 -10.8 20.8 L-12.9 25.65 -17.1 21.85 Q-19.25 19.9 -21.3 18.5 L-21.35 19.55 -21.1 22.85 Q-22.5 23.4 -25.3 23.95 L-25.7 17.8 -25.7 7.7 Q-25.7 6.95 -25.1 5.75 L-24.55 5.35 -22.0 5.35 -21.85 6.5 Q-21.75 7.25 -21.5 7.25 L-20.25 6.55 -18.75 5.75 -16.2 5.35 Q-14.6 5.35 -13.45 6.15 -11.85 7.35 -11.85 9.9 -11.8 12.45 -13.7 14.2 M-17.95 10.45 L-18.4 12.15 -18.35 12.75 -16.65 11.75 Q-15.7 11.2 -15.45 10.1 -16.2 9.5 -16.6 9.5 -17.45 9.45 -17.95 10.45" fill="#ffff00" fill-rule="evenodd" stroke="none"/>
      <path d="M2.95 12.15 Q2.95 17.25 1.5 20.7 -0.55 25.45 -4.9 25.45 -7.4 25.45 -9.3 23.4 -11.6 21.0 -11.6 16.95 -11.6 15.4 -10.55 10.95 -9.45 6.25 -8.85 6.25 -8.55 6.25 -5.95 8.0 -6.45 9.25 -6.55 10.65 L-6.65 13.4 Q-6.65 18.6 -3.9 18.65 -3.15 18.6 -1.95 17.75 -0.95 16.95 -0.6 15.25 L-0.3 13.35 -0.1 11.45 -0.35 10.1 -0.6 8.85 -0.6 8.6 -0.6 8.3 -0.3 7.9 1.1 8.2 2.6 8.5 2.95 12.15" fill="#ffff00" fill-rule="evenodd" stroke="none"/>
      <path d="M13.75 12.2 L12.6 12.2 Q7.1 12.2 7.1 15.15 7.1 18.35 10.2 18.35 L12.1 18.0 14.6 17.25 15.0 20.95 Q14.2 22.05 12.1 22.85 L9.15 23.55 Q7.2 23.55 5.35 21.55 3.15 19.15 3.15 15.7 3.15 10.7 6.45 8.15 8.9 6.25 11.9 6.25 12.95 6.25 14.1 7.15 L13.75 12.2" fill="#ffff00" fill-rule="evenodd" stroke="none"/>
      <path d="M28.45 9.75 Q26.7 10.45 25.9 10.9 24.15 11.85 23.65 13.0 L25.0 23.5 Q22.0 24.4 20.05 25.45 L19.55 14.4 Q19.35 14.1 18.95 14.1 L17.85 14.55 16.85 15.05 Q16.6 15.0 16.0 15.3 L15.15 15.55 14.05 15.55 14.15 13.6 14.05 9.9 26.45 5.45 27.9 5.45 28.45 9.75" fill="#ffff00" fill-rule="evenodd" stroke="none"/>
      <path d="M32.3 6.2 Q31.75 7.2 30.9 7.2 30.15 7.2 29.65 6.3 29.2 5.55 29.2 4.7 29.2 3.75 29.6 3.0 30.1 2.0 31.0 2.0 31.85 2.0 32.35 2.85 32.8 3.55 32.8 4.45 32.8 5.35 32.3 6.2 M32.7 12.7 L32.4 20.1 32.1 27.45 30.35 27.35 28.55 27.15 28.2 27.45 29.05 9.7 30.6 9.9 32.6 9.7 32.7 12.7" fill="#ffff00" fill-rule="evenodd" stroke="none"/>
      <path d="M39.15 13.9 L38.05 13.55 37.45 17.1 39.7 18.0 40.05 16.15 40.25 14.25 39.15 13.9 M35.75 10.4 Q37.2 9.15 38.9 9.15 41.2 9.15 42.55 11.35 43.7 13.25 43.7 15.7 43.7 18.45 42.2 20.35 40.9 22.05 39.55 22.05 37.55 22.0 35.9 20.4 33.9 18.45 33.9 14.9 33.9 12.05 35.75 10.4" fill="#ffff00" fill-rule="evenodd" stroke="none"/>
      <path d="M57.5 3.0 L57.5 23.75 Q56.8 24.0 55.0 25.2 L47.5 17.5 47.5 18.45 Q47.5 20.75 48.1 22.55 L48.1 23.5 Q47.55 23.75 46.1 24.9 L44.55 26.0 Q44.2 26.0 44.0 23.15 L43.3 9.05 Q46.6 7.05 47.4 7.05 L49.55 10.4 Q51.65 14.05 52.6 15.05 L54.15 4.2 57.5 3.0" fill="#ffff00" fill-rule="evenodd" stroke="none"/>
      <path d="M71.5 17.9 Q71.5 19.15 70.55 20.85 68.5 24.5 63.7 24.5 L60.8 24.3 Q59.05 23.95 57.95 23.0 L59.05 20.4 61.35 21.05 63.6 21.45 Q64.55 21.45 65.7 20.5 66.85 19.5 67.05 18.6 65.95 16.8 63.55 16.8 L62.75 16.8 61.9 16.8 Q60.1 16.8 59.2 15.85 L58.65 14.65 58.5 13.35 Q58.45 7.75 65.3 7.75 L67.55 7.85 70.65 8.95 Q70.25 9.45 70.0 10.8 L69.75 12.65 69.2 12.65 66.95 12.15 64.55 11.6 63.35 11.6 62.1 12.55 Q62.55 13.3 63.35 13.45 L65.75 13.6 Q67.95 13.8 69.5 14.65 71.5 15.8 71.5 17.9" fill="#ffff00" fill-rule="evenodd" stroke="none"/>
    </g>
  </defs>
</svg>
