<?xml version="1.0" encoding="UTF-8" standalone="no"?>
<svg xmlns:xlink="http://www.w3.org/1999/xlink" height="604.15px" width="11.5px" xmlns="http://www.w3.org/2000/svg">
  <g transform="matrix(1.0, 0.0, 0.0, 1.0, 5.75, 529.6)">
    <use height="604.15" transform="matrix(1.0, 0.0, 0.0, 1.0, -5.75, -529.6)" width="11.5" xlink:href="#shape0"/>
  </g>
  <defs>
    <g id="shape0" transform="matrix(1.0, 0.0, 0.0, 1.0, 5.75, 529.6)">
      <path d="M2.5 -460.0 L5.75 -460.0 5.75 68.8 Q5.75 71.4 4.05 72.95 L3.85 73.1 Q2.2 74.55 0.0 74.55 -2.2 74.55 -3.85 73.1 L-4.0 72.95 Q-5.75 71.4 -5.75 68.8 L-5.75 -460.0 -2.5 -460.0 -2.5 68.8 Q-2.5 70.0 -1.7 70.7 -1.0 71.3 0.0 71.3 1.0 71.3 1.7 70.7 2.5 70.0 2.5 68.8 L2.5 -460.0" fill="#996633" fill-rule="evenodd" stroke="none"/>
      <path d="M-2.5 -460.0 L2.5 -460.0 2.5 68.8 Q2.5 70.0 1.7 70.7 1.0 71.3 0.0 71.3 -1.0 71.3 -1.7 70.7 -2.5 70.0 -2.5 68.8 L-2.5 -460.0" fill="#cc9966" fill-rule="evenodd" stroke="none"/>
      <path d="M2.5 -529.6 L5.75 -529.6 5.75 -454.4 2.5 -454.4 2.5 -529.6 M-2.5 -454.4 L-5.75 -454.4 -5.75 -529.6 -2.5 -529.6 -2.5 -454.4" fill="#996633" fill-rule="evenodd" stroke="none"/>
      <path d="M2.5 -454.4 L-2.5 -454.4 -2.5 -529.6 2.5 -529.6 2.5 -454.4" fill="#cc9966" fill-rule="evenodd" stroke="none"/>
    </g>
  </defs>
</svg>
