<?xml version="1.0" encoding="UTF-8" standalone="no"?>
<svg xmlns:xlink="http://www.w3.org/1999/xlink" height="67.0px" width="98.65px" xmlns="http://www.w3.org/2000/svg">
  <g transform="matrix(1.0, 0.0, 0.0, 1.0, 42.0, 35.2)">
    <use height="69.35" transform="matrix(-0.8763, 0.1157, 0.1157, 0.8763, -1.1117, -32.7374)" width="32.45" xlink:href="#sprite0"/>
    <use height="57.0" transform="matrix(0.6762, 0.0034, -0.0041, 0.8194, -20.7027, -33.0658)" width="67.25" xlink:href="#sprite1"/>
    <use height="30.4" transform="matrix(1.0, 0.0, 0.0, 1.0, -21.9, -22.3)" width="23.2" xlink:href="#shape2"/>
    <use height="34.9" transform="matrix(0.8843, 0.0, 0.0, 0.8843, -38.1823, -1.3806)" width="70.35" xlink:href="#sprite2"/>
    <use height="22.4" transform="matrix(0.5539, 0.0929, -0.1096, 0.6534, -39.5494, -2.2659)" width="34.4" xlink:href="#sprite3"/>
    <use height="69.35" transform="matrix(0.8447, -0.2589, 0.2589, 0.8447, 11.2941, -26.7728)" width="32.45" xlink:href="#sprite0"/>
  </g>
  <defs>
    <g id="sprite0" transform="matrix(1.0, 0.0, 0.0, 1.0, 16.2, 34.65)">
      <use height="69.35" transform="matrix(1.0, 0.0, 0.0, 1.0, -16.2, -34.65)" width="32.45" xlink:href="#shape0"/>
    </g>
    <g id="shape0" transform="matrix(1.0, 0.0, 0.0, 1.0, 16.2, 34.65)">
      <path d="M-15.65 -28.95 Q-7.3 -34.75 1.7 -34.65 4.55 -18.95 9.7 -3.25 L10.35 -1.25 10.6 -0.4 10.9 0.45 Q15.75 15.65 16.25 29.3 13.4 33.65 8.85 34.7 1.3 25.25 -1.5 9.35 L-6.0 -29.1 -11.25 -27.2 Q-15.3 -25.25 -16.2 -28.6 L-15.65 -28.85 Q-15.3 -29.15 -15.65 -28.95" fill="#000000" fill-rule="evenodd" stroke="none"/>
      <path d="M-16.2 -28.6 L-15.65 -28.95 Q-15.3 -29.15 -15.65 -28.85 M-16.2 -28.6 L-15.65 -28.9 -15.65 -28.95" fill="none" stroke="#339900" stroke-linecap="round" stroke-linejoin="round" stroke-width="0.05"/>
    </g>
    <g id="sprite1" transform="matrix(1.0, 0.0, 0.0, 1.0, 33.6, 28.5)">
      <use height="57.0" transform="matrix(1.0, 0.0, 0.0, 1.0, -33.6, -28.5)" width="67.25" xlink:href="#shape1"/>
    </g>
    <g id="shape1" transform="matrix(1.0, 0.0, 0.0, 1.0, 33.6, 28.5)">
      <path d="M-23.75 20.15 Q-13.9 28.5 0.0 28.5 13.9 28.5 23.8 20.15 33.65 11.8 33.65 0.0 33.65 -11.8 23.8 -20.15 13.9 -28.5 0.0 -28.5 -13.9 -28.5 -23.75 -20.15 -33.6 -11.8 -33.6 0.0 -33.6 11.8 -23.75 20.15" fill="url(#gradient0)" fill-rule="evenodd" stroke="none"/>
    </g>
    <radialGradient cx="0" cy="0" gradientTransform="matrix(0.0435, 0.0, 0.0, 0.0435, 1.35, -6.55)" gradientUnits="userSpaceOnUse" id="gradient0" r="819.2" spreadMethod="pad">
      <stop offset="0.0" stop-color="#54b4cc"/>
      <stop offset="0.7176470588235294" stop-color="#54b4cc"/>
      <stop offset="1.0" stop-color="#3e8699"/>
    </radialGradient>
    <g id="shape2" transform="matrix(1.0, 0.0, 0.0, 1.0, 21.9, 22.3)">
      <path d="M-18.3 -18.75 Q-19.7 -20.3 -20.6 -16.75 L-20.35 -18.0 Q-20.0 -19.6 -19.35 -20.0 -18.65 -20.5 -18.3 -18.75 M-16.75 -13.75 L-16.6 -13.55 Q-16.1 -12.75 -15.7 -10.8 -15.2 -8.25 -15.1 -2.8 L-15.1 -0.45 -15.0 -0.3 -14.95 -0.3 -14.95 -0.25 -15.0 -0.05 -14.95 0.0 -15.05 0.2 -15.1 0.2 -15.2 2.9 Q-15.35 5.25 -17.8 5.4 L-19.2 5.3 -19.75 4.95 Q-20.2 3.95 -20.45 1.3 L-20.65 -1.25 -21.15 -1.35 -21.25 -1.45 -21.7 -1.6 -21.85 -2.0 -21.9 -2.25 -21.15 -2.0 -21.05 -1.95 -20.65 -2.0 -20.75 -4.7 Q-20.8 -8.7 -20.15 -11.45 -19.5 -14.3 -18.35 -14.45 L-17.8 -14.5 Q-17.2 -14.4 -16.75 -13.75 M-20.3 -7.85 L-20.3 -7.55 -20.3 -6.8 -20.35 -5.6 -20.3 -5.55 -20.25 -5.0 -20.25 -4.55 -20.2 -2.15 -19.4 -2.4 Q-16.95 -2.5 -15.4 -0.75 L-15.4 -3.0 Q-15.4 -8.15 -15.9 -10.4 L-15.9 -10.45 -15.95 -10.5 -16.15 -11.45 -16.2 -11.45 -16.7 -12.85 Q-17.15 -13.7 -17.85 -13.85 -19.65 -14.2 -20.35 -7.85 L-20.15 -8.7 -20.2 -8.45 -20.3 -7.85 M-19.3 4.5 L-19.05 4.6 -17.7 4.7 Q-16.45 4.65 -15.7 2.75 -15.5 2.2 -15.4 0.2 L-15.7 -0.1 -15.7 -0.15 -16.0 -0.3 -16.1 -0.4 Q-18.0 -1.45 -20.15 -1.3 L-19.9 1.15 -19.3 4.4 -19.35 4.45 -19.4 4.4 -19.5 4.45 -19.15 4.6 -19.3 4.5" fill="#000000" fill-rule="evenodd" stroke="none"/>
      <path d="M-19.3 4.4 L-19.3 4.5 -19.4 4.45 -19.35 4.45 -19.3 4.4" fill="#ffffff" fill-rule="evenodd" stroke="none"/>
      <path d="M-20.3 -7.85 L-20.2 -8.45 -20.15 -8.7 -20.35 -7.85 Q-19.65 -14.2 -17.85 -13.85 -17.15 -13.7 -16.7 -12.85 L-16.2 -11.45 -16.15 -11.45 -15.95 -10.5 -15.9 -10.45 -15.9 -10.4 Q-15.4 -8.15 -15.4 -3.0 L-15.4 -0.75 Q-16.95 -2.5 -19.4 -2.4 L-20.2 -2.15 -20.25 -4.55 -20.25 -5.0 -20.3 -5.55 -20.35 -5.6 -20.3 -6.8 -20.3 -7.55 -20.3 -7.85 M-19.3 4.4 L-19.9 1.15 -20.15 -1.3 Q-18.0 -1.45 -16.1 -0.4 L-16.0 -0.3 -15.7 -0.15 -15.7 -0.1 -15.4 0.2 Q-15.5 2.2 -15.7 2.75 -16.45 4.65 -17.7 4.7 L-19.05 4.6 -19.3 4.5 -19.3 4.4" fill="#53b3cb" fill-rule="evenodd" stroke="none"/>
      <path d="M-7.95 -20.65 Q-7.35 -22.75 -5.65 -22.15 -4.15 -21.7 -3.25 -19.85 L-2.6 -18.4 Q-4.95 -22.55 -7.95 -20.65 M-8.4 -14.75 Q-10.05 -14.55 -10.95 -13.5 L-12.1 -11.4 -11.95 -11.55 -12.25 -10.75 -12.5 -10.6 -12.5 -10.55 Q-13.35 -7.85 -12.9 -1.75 L-12.7 0.45 -12.1 0.4 -11.25 0.3 Q-8.0 0.15 -5.25 1.75 L-5.15 1.75 -4.7 1.95 -4.45 2.2 -2.35 3.2 -2.3 2.9 Q-2.05 0.8 -2.1 -1.7 -1.75 -4.75 -2.4 -7.85 L-2.45 -7.95 -2.5 -8.0 -2.55 -8.1 -2.55 -8.25 -2.6 -8.4 -2.25 -7.8 Q-4.4 -15.25 -8.4 -14.75 M-10.85 -14.6 Q-10.0 -15.4 -8.65 -15.55 L-7.3 -15.55 Q-4.85 -15.35 -3.05 -12.05 -1.4 -8.8 -1.05 -4.05 -0.8 0.0 -1.1 3.1 L-1.2 3.7 -0.6 3.9 1.3 4.35 1.3 4.45 1.2 4.55 1.1 4.6 0.5 4.6 -1.35 4.85 Q-1.75 6.6 -2.3 7.5 L-3.55 7.9 -6.65 8.1 Q-12.25 8.05 -12.75 5.25 -13.2 2.9 -13.45 -1.5 -13.9 -7.95 -12.95 -11.05 -12.25 -13.35 -11.15 -14.35 L-10.85 -14.6 M-3.4 6.85 Q-2.9 6.1 -2.6 4.65 L-3.1 4.5 Q-4.25 4.15 -5.4 3.4 -8.6 1.85 -12.15 1.25 L-12.6 1.25 Q-12.2 4.35 -11.65 5.05 -9.8 7.25 -6.95 7.3 L-3.95 7.1 -3.35 6.95 -3.7 7.1 -2.9 6.9 -3.15 6.85 -3.2 6.9 -3.4 6.85" fill="#000000" fill-rule="evenodd" stroke="none"/>
      <path d="M-3.4 6.85 L-3.2 6.9 -3.15 6.9 -3.35 6.95 -3.4 6.85" fill="#ffffff" fill-rule="evenodd" stroke="none"/>
      <path d="M-8.4 -14.75 Q-4.4 -15.25 -2.25 -7.8 L-2.6 -8.4 -2.55 -8.25 -2.55 -8.1 -2.5 -8.0 -2.45 -7.95 -2.4 -7.85 Q-1.75 -4.75 -2.1 -1.7 -2.05 0.8 -2.3 2.9 L-2.35 3.2 -4.45 2.2 -4.7 1.95 -5.15 1.75 -5.25 1.75 Q-8.0 0.15 -11.25 0.3 L-12.1 0.4 -12.7 0.45 -12.9 -1.75 Q-13.35 -7.85 -12.5 -10.55 L-12.5 -10.6 -12.25 -10.75 -11.95 -11.55 -12.1 -11.4 -10.95 -13.5 Q-10.05 -14.55 -8.4 -14.75 M-3.35 6.95 L-3.95 7.1 -6.95 7.3 Q-9.8 7.25 -11.65 5.05 -12.2 4.35 -12.6 1.25 L-12.15 1.25 Q-8.6 1.85 -5.4 3.4 -4.25 4.15 -3.1 4.5 L-2.6 4.65 Q-2.9 6.1 -3.4 6.85 L-3.35 6.95" fill="#53b3cb" fill-rule="evenodd" stroke="none"/>
    </g>
    <g id="sprite2" transform="matrix(1.0, 0.0, 0.0, 1.0, 35.15, 17.45)">
      <use height="34.9" transform="matrix(1.0, 0.0, 0.0, 1.0, -35.15, -17.45)" width="70.35" xlink:href="#shape3"/>
    </g>
    <g id="shape3" transform="matrix(1.0, 0.0, 0.0, 1.0, 35.15, 17.45)">
      <path d="M-34.15 -8.3 Q-33.45 -9.85 -32.25 -11.2 -30.3 -13.4 -27.85 -14.95 -25.4 -16.5 -22.55 -16.9 L-17.15 -17.4 -12.85 -17.3 -9.65 -16.0 Q-7.3 -14.9 -5.15 -13.05 L-1.5 -10.0 1.3 -8.05 Q2.2 -7.25 3.35 -6.9 L6.7 -6.7 Q9.45 -7.0 11.75 -8.2 13.8 -9.3 15.9 -11.15 17.95 -12.95 20.45 -13.4 22.95 -13.85 25.0 -12.45 L25.5 -12.1 25.55 -12.15 Q27.0 -10.45 28.15 -8.35 29.35 -6.05 29.95 -3.55 30.45 -1.55 30.55 0.5 L30.6 1.3 28.4 4.75 27.65 5.15 22.85 7.25 Q20.3 8.25 18.35 8.65 16.35 9.05 12.95 10.2 L7.0 11.95 Q4.45 12.6 1.9 13.5 3.5 12.6 5.25 11.75 12.2 9.7 16.7 6.25 18.4 4.95 19.9 2.4 21.05 2.0 21.85 1.95 22.65 1.9 24.7 2.7 25.1 0.1 20.85 0.7 L18.65 1.15 15.7 2.3 15.55 2.95 Q15.0 3.2 14.45 3.55 L10.35 5.95 Q8.2 7.05 5.5 7.8 L-0.05 8.5 -5.65 7.85 -9.75 6.95 Q-10.0 5.95 -11.4 6.5 -13.85 5.7 -15.65 3.9 L-19.4 0.45 Q-21.4 -1.3 -22.95 -3.45 -24.45 -5.6 -26.6 -6.85 -28.8 -8.15 -31.7 -8.45 L-34.15 -8.3 M-15.65 15.8 L-16.95 14.65 -2.65 13.4 Q-3.7 14.25 -5.5 14.85 -8.25 15.75 -11.15 15.9 L-15.65 15.8 M-16.4 -1.75 Q-18.35 -2.25 -18.1 -0.7 -16.95 0.4 -16.05 -1.1 L-15.95 -1.2 Q-15.75 -1.6 -16.35 -1.75 L-16.4 -1.75 M-14.95 1.3 Q-15.45 3.45 -12.9 3.35 -12.3 3.35 -12.6 2.45 -13.4 -0.05 -14.95 1.3" fill="#c19f79" fill-rule="evenodd" stroke="none"/>
      <path d="M25.55 -12.15 Q26.95 -14.45 29.25 -14.85 L32.55 -14.5 Q35.2 -13.4 35.2 -10.3 35.2 -7.35 33.95 -4.75 L31.25 0.25 30.6 1.3 30.55 0.5 Q30.45 -1.55 29.95 -3.55 29.35 -6.05 28.15 -8.35 27.0 -10.45 25.55 -12.15" fill="#b2936f" fill-rule="evenodd" stroke="none"/>
      <path d="M-16.95 14.65 L-17.05 14.65 -16.95 14.65 -17.45 14.0 -17.2 14.15 -17.95 13.5 -18.25 13.2 -18.15 13.25 -17.95 13.35 Q-17.85 13.35 -17.7 13.45 L-2.0 11.85 0.25 11.6 Q13.85 9.65 17.95 2.35 L17.95 2.3 Q17.35 1.95 15.7 2.3 L18.65 1.15 20.85 0.7 Q25.1 0.1 24.7 2.7 22.65 1.9 21.85 1.95 21.05 2.0 19.9 2.4 18.4 4.95 16.7 6.25 12.2 9.7 5.25 11.75 L-0.8 13.1 -2.65 13.4 -16.95 14.65 M-17.95 13.5 L-18.0 13.4 -18.15 13.25 -17.95 13.5" fill="#65543f" fill-rule="evenodd" stroke="none"/>
      <path d="M1.9 13.5 L1.7 13.55 -3.5 15.6 Q-6.0 16.6 -8.75 17.2 -11.85 17.85 -14.1 16.75 L-14.3 16.65 Q-12.15 16.9 -10.0 16.6 L-5.05 15.6 Q-2.45 15.0 -0.85 13.15 L-0.8 13.1 5.25 11.75 Q3.5 12.6 1.9 13.5 M-16.95 14.65 L-17.15 14.45 -17.45 14.0 -17.5 13.95 Q-19.35 13.7 -21.2 12.85 L-25.35 10.75 -29.65 7.9 Q-31.75 6.2 -33.05 4.25 -34.25 2.45 -34.9 -0.45 -35.45 -3.3 -34.85 -6.2 L-34.8 -6.4 Q-32.9 -6.95 -30.3 -5.9 -25.65 -4.1 -23.05 -0.15 L-19.9 3.75 -20.05 3.75 -20.3 3.8 Q-21.6 5.85 -19.75 6.05 -18.3 6.2 -18.05 5.45 L-16.6 6.5 Q-12.4 9.3 -7.35 9.65 L4.0 9.05 Q9.8 8.0 12.7 5.95 15.0 4.25 15.55 2.95 L15.7 2.3 Q17.35 1.95 17.95 2.3 L17.95 2.35 Q13.85 9.65 0.25 11.6 L-2.0 11.85 -17.7 13.45 Q-17.85 13.35 -17.95 13.35 L-18.15 13.25 -18.25 13.2 -17.95 13.5 -17.2 14.15 -17.45 14.0 -16.95 14.65" fill="#8c7357" fill-rule="evenodd" stroke="none"/>
      <path d="M-14.3 16.65 L-15.65 15.8 -11.15 15.9 Q-8.25 15.75 -5.5 14.85 -3.7 14.25 -2.65 13.4 L-0.8 13.1 -0.85 13.15 Q-2.45 15.0 -5.05 15.6 L-10.0 16.6 Q-12.15 16.9 -14.3 16.65 M-34.8 -6.4 L-34.15 -8.3 -31.7 -8.45 Q-28.8 -8.15 -26.6 -6.85 -24.45 -5.6 -22.95 -3.45 -21.4 -1.3 -19.4 0.45 L-15.65 3.9 Q-13.85 5.7 -11.4 6.5 L-11.6 6.55 -11.85 6.7 Q-12.2 8.75 -9.95 8.85 -9.6 7.55 -9.75 6.95 L-5.65 7.85 -0.05 8.5 5.5 7.8 Q8.2 7.05 10.35 5.95 L14.45 3.55 Q15.0 3.2 15.55 2.95 15.0 4.25 12.7 5.95 9.8 8.0 4.0 9.05 L-7.35 9.65 Q-12.4 9.3 -16.6 6.5 L-18.05 5.45 -17.95 4.95 -19.35 3.75 -19.9 3.75 -23.05 -0.15 Q-25.65 -4.1 -30.3 -5.9 -32.9 -6.95 -34.8 -6.4" fill="#a88b69" fill-rule="evenodd" stroke="none"/>
      <path d="M-11.4 6.5 Q-10.0 5.95 -9.75 6.95 -9.6 7.55 -9.95 8.85 -12.2 8.75 -11.85 6.7 L-11.6 6.55 -11.4 6.5 M-16.4 -1.75 L-16.35 -1.75 Q-15.75 -1.6 -15.95 -1.2 L-16.05 -1.1 Q-16.95 0.4 -18.1 -0.7 -18.35 -2.25 -16.4 -1.75 M-14.95 1.3 Q-13.4 -0.05 -12.6 2.45 -12.3 3.35 -12.9 3.35 -15.45 3.45 -14.95 1.3 M-19.9 3.75 L-19.35 3.75 -17.95 4.95 -18.05 5.45 Q-18.3 6.2 -19.75 6.05 -21.6 5.85 -20.3 3.8 L-20.05 3.75 -19.9 3.75" fill="#352c21" fill-rule="evenodd" stroke="none"/>
    </g>
    <g id="sprite3" transform="matrix(1.0, 0.0, 0.0, 1.0, 17.2, 11.2)">
      <use height="22.4" transform="matrix(1.0, 0.0, 0.0, 1.0, -17.2, -11.2)" width="34.4" xlink:href="#shape4"/>
    </g>
    <g id="shape4" transform="matrix(1.0, 0.0, 0.0, 1.0, 17.2, 11.2)">
      <path d="M-11.8 8.6 Q-6.85 11.2 0.95 11.2 8.6 11.2 12.45 8.9 16.85 6.25 17.2 0.05 17.45 -4.4 12.3 -7.8 7.15 -11.2 0.05 -11.2 -7.5 -11.2 -12.05 -8.5 -17.0 -5.5 -17.2 0.05 -17.35 5.6 -11.8 8.6" fill="url(#gradient1)" fill-rule="evenodd" stroke="none"/>
      <path d="M2.2 -0.55 Q3.45 0.3 5.2 0.3 6.95 0.3 8.2 -0.55 9.45 -1.45 9.45 -2.7 9.45 -3.95 8.2 -4.8 6.95 -5.7 5.2 -5.7 3.45 -5.7 2.2 -4.8 0.95 -3.95 0.95 -2.7 0.95 -1.45 2.2 -0.55" fill="url(#gradient2)" fill-rule="evenodd" stroke="none"/>
    </g>
    <radialGradient cx="0" cy="0" gradientTransform="matrix(0.022, 0.0, 0.0, 0.022, 0.65, -2.1)" gradientUnits="userSpaceOnUse" id="gradient1" r="819.2" spreadMethod="pad">
      <stop offset="0.0" stop-color="#202020"/>
      <stop offset="0.7843137254901961" stop-color="#0a0a0a"/>
      <stop offset="1.0" stop-color="#0a0a0a"/>
    </radialGradient>
    <radialGradient cx="0" cy="0" gradientTransform="matrix(0.0052, 0.0, 0.0, 0.0052, 5.2, -2.7)" gradientUnits="userSpaceOnUse" id="gradient2" r="819.2" spreadMethod="pad">
      <stop offset="0.0" stop-color="#5d5d5d"/>
      <stop offset="0.37254901960784315" stop-color="#5d5d5d"/>
      <stop offset="1.0" stop-color="#202020"/>
    </radialGradient>
  </defs>
</svg>
