<?xml version="1.0" encoding="UTF-8" standalone="no"?>
<svg xmlns:xlink="http://www.w3.org/1999/xlink" height="149.65px" width="326.7px" xmlns="http://www.w3.org/2000/svg">
  <g transform="matrix(1.0, 0.0, 0.0, 1.0, 197.25, 104.15)">
    <use height="47.95" transform="matrix(1.0, 0.0, 0.0, 1.0, -77.45, -23.95)" width="39.75" xlink:href="#shape0"/>
    <use height="9.0" transform="matrix(0.4297, -0.4297, 0.4297, 0.4297, -70.8098, -12.2574)" width="8.5" xlink:href="#shape1"/>
    <use height="9.0" transform="matrix(0.0983, 0.3669, -0.3669, 0.0983, -62.5171, -0.7517)" width="8.5" xlink:href="#shape1"/>
    <use height="9.0" transform="matrix(-0.5136, -0.1376, 0.1376, -0.5136, -62.1866, 16.0461)" width="8.5" xlink:href="#shape1"/>
    <use height="36.85" transform="matrix(1.0, 0.0, 0.0, 1.0, -31.35, -20.95)" width="32.1" xlink:href="#shape2"/>
    <use height="9.0" transform="matrix(0.2578, 0.2578, -0.2578, 0.2578, -19.1855, -14.7059)" width="8.5" xlink:href="#shape1"/>
    <use height="9.0" transform="matrix(-0.1823, 0.3158, -0.3157, -0.1823, -16.7545, -3.7717)" width="8.5" xlink:href="#shape1"/>
    <use height="9.0" transform="matrix(0.4834, -0.4834, 0.4834, 0.4834, -25.9797, 5.1292)" width="8.5" xlink:href="#shape1"/>
    <use height="74.25" transform="matrix(1.0, 0.0, 0.0, 1.0, -105.3, -37.1)" width="49.8" xlink:href="#shape3"/>
    <use height="9.0" transform="matrix(0.8057, 0.8057, -0.8057, 0.8057, -92.3486, 15.0004)" width="8.5" xlink:href="#shape1"/>
    <use height="33.45" transform="matrix(1.0, 0.0, 0.0, 1.0, -53.95, -1.75)" width="40.9" xlink:href="#shape4"/>
    <use height="9.0" transform="matrix(-0.1573, 0.587, -0.587, -0.1573, -31.9403, 21.563)" width="8.5" xlink:href="#shape1"/>
    <use height="46.65" transform="matrix(1.0, 0.0, 0.0, 1.0, -9.15, -20.95)" width="40.85" xlink:href="#shape5"/>
    <use height="9.0" transform="matrix(0.587, -0.1573, 0.1573, 0.587, -3.9524, 12.877)" width="8.5" xlink:href="#shape1"/>
    <use height="76.35" transform="matrix(1.0, 0.0, 0.0, 1.0, 42.6, -61.1)" width="59.2" xlink:href="#shape6"/>
  </g>
  <defs>
    <g id="shape0" transform="matrix(1.0, 0.0, 0.0, 1.0, 3.1, 3.0)">
      <path d="M30.05 0.5 L2.55 4.65 2.6 5.25 0.4 5.55 3.8 37.75 7.0 38.1 7.05 39.0 30.7 41.45 33.15 30.4 13.95 29.25 13.9 25.5 30.35 24.75 30.6 15.6 13.7 17.7 13.6 13.65 31.0 12.15 30.05 0.5 Z" fill="none" stroke="#000000" stroke-linecap="round" stroke-linejoin="round" stroke-width="7.0"/>
      <path d="M13.95 25.5 L13.95 29.25 13.85 25.5 13.95 25.5" fill="#f0a200" fill-rule="evenodd" stroke="none"/>
      <path d="M13.7 16.8 L13.7 17.75 13.7 16.8" fill="#ffcc00" fill-rule="evenodd" stroke="none"/>
      <path d="M3.85 37.75 L3.8 37.75 0.4 5.55 2.6 5.25 2.55 4.65 30.05 0.5 28.6 1.95 3.6 5.45 4.15 13.2 2.85 14.55 2.6 6.0 1.2 6.2 4.85 36.4 3.85 37.75 M13.7 17.75 L30.6 15.6 30.6 15.65 29.05 16.95 13.7 18.5 13.7 17.75 M13.95 29.25 L33.1 30.4 31.05 31.5 7.8 29.9 8.45 37.65 7.05 39.0 7.05 38.1 7.0 36.55 6.75 28.85 13.2 29.25 13.95 29.25 M2.6 5.25 L2.6 6.0 2.6 5.25" fill="#8debe3" fill-rule="evenodd" stroke="none"/>
      <path d="M4.85 36.4 L1.2 6.2 2.6 6.0 2.85 14.55 12.8 13.7 13.2 29.25 6.75 28.85 7.0 36.55 4.85 36.4 M4.15 13.2 L3.6 5.45 28.6 1.95 29.35 11.0 4.15 13.2 M29.05 16.95 L29.05 23.65 13.85 24.75 13.7 18.5 29.05 16.95 M8.45 37.65 L7.8 29.9 31.05 31.5 29.55 39.85 8.45 37.65" fill="url(#gradient0)" fill-rule="evenodd" stroke="none"/>
      <path d="M30.05 0.5 L31.0 12.15 13.55 13.65 13.7 16.8 13.7 17.75 13.7 18.5 13.85 24.75 29.05 23.65 29.05 16.95 30.6 15.65 30.35 24.75 13.95 25.5 13.85 25.5 13.85 24.75 13.85 25.5 13.95 29.25 13.2 29.25 12.8 13.7 2.85 14.55 4.15 13.2 29.35 11.0 28.6 1.95 30.05 0.5 M33.1 30.4 L30.7 41.45 7.05 39.0 8.45 37.65 29.55 39.85 31.05 31.5 33.1 30.4 M7.05 38.1 L3.85 37.75 4.85 36.4 7.0 36.55 7.05 38.1 M13.55 13.65 L12.8 13.7 13.55 13.65" fill="#226666" fill-rule="evenodd" stroke="none"/>
      <path d="M3.85 37.75 L3.8 37.75 0.4 5.55 2.6 5.25 2.55 4.65 30.05 0.5 31.0 12.15 13.55 13.65 13.7 16.8 M13.7 17.75 L30.6 15.6 30.6 15.65 30.35 24.75 13.95 25.5 M13.95 29.25 L33.1 30.4 30.7 41.45 7.05 39.0 7.05 38.1 3.85 37.75 M2.6 6.0 L2.6 5.25 M2.6 6.0 L2.85 14.55 12.8 13.7 13.55 13.65 M13.85 24.75 L13.85 25.5 M13.7 18.5 L13.7 17.75 13.7 16.8 M13.2 29.25 L13.95 29.25 13.85 25.5 M7.0 36.55 L6.75 28.85 13.2 29.25 M13.85 24.75 L13.7 18.5 M7.0 36.55 L7.05 38.1" fill="none" stroke="#1a4d4d" stroke-linecap="round" stroke-linejoin="round" stroke-width="1.0"/>
    </g>
    <linearGradient gradientTransform="matrix(0.019, 0.019, -0.0049, 0.0049, 25.9, 11.5)" gradientUnits="userSpaceOnUse" id="gradient0" spreadMethod="pad" x1="-819.2" x2="819.2">
      <stop offset="0.0" stop-color="#32b4b3"/>
      <stop offset="1.0" stop-color="#2c8584"/>
    </linearGradient>
    <g id="shape1" transform="matrix(1.0, 0.0, 0.0, 1.0, 4.25, 4.5)">
      <path d="M0.0 -4.0 Q1.65 -4.0 2.8 -2.85 4.0 -1.65 4.0 0.0 4.0 1.65 2.8 2.8 1.65 4.0 0.0 4.0 L0.0 -4.0 0.0 4.0 Q-1.65 4.0 -2.85 2.8 -4.0 1.65 -4.0 0.0 -4.0 -1.65 -2.85 -2.85 -1.65 -4.0 0.0 -4.0" fill="url(#gradient1)" fill-rule="evenodd" stroke="none"/>
      <path d="M0.0 4.0 Q1.65 4.0 2.8 2.8 4.0 1.65 4.0 0.0 4.0 -1.65 2.8 -2.85 1.65 -4.0 0.0 -4.0 M0.0 4.0 Q-1.65 4.0 -2.85 2.8 -4.0 1.65 -4.0 0.0 -4.0 -1.65 -2.85 -2.85 -1.65 -4.0 0.0 -4.0" fill="none" stroke="#1a4d4d" stroke-linecap="round" stroke-linejoin="round" stroke-width="0.5"/>
      <path d="M0.0 -4.0 L0.0 4.0 Z" fill="none" stroke="#0e2c2c" stroke-linecap="round" stroke-linejoin="round" stroke-width="1.0"/>
    </g>
    <radialGradient cx="0" cy="0" gradientTransform="matrix(0.0042, 0.0, 0.0, 0.0042, 0.0, 0.0)" gradientUnits="userSpaceOnUse" id="gradient1" r="819.2" spreadMethod="pad">
      <stop offset="0.0" stop-color="#8debe3"/>
      <stop offset="1.0" stop-color="#267574"/>
    </radialGradient>
    <g id="shape2" transform="matrix(1.0, 0.0, 0.0, 1.0, 16.05, 18.45)">
      <path d="M12.55 -14.5 L11.5 -6.75 11.4 -6.45 -0.95 -5.5 -1.2 -4.0 8.05 -3.9 7.15 2.95 -2.25 2.5 -2.45 3.85 9.3 5.2 9.15 14.9 -3.9 12.35 -4.1 13.15 -12.55 11.35 -9.35 -13.05 -6.3 -13.3 -6.0 -14.1 12.45 -14.95 12.55 -14.5 Z" fill="none" stroke="#000000" stroke-linecap="round" stroke-linejoin="round" stroke-width="7.0"/>
      <path d="M-10.45 10.45 L-10.4 10.45 -5.0 11.6 -5.1 11.9 -10.5 10.65 -10.45 10.45" fill="#ffcc00" fill-rule="evenodd" stroke="none"/>
      <path d="M-5.8 -13.2 L-5.7 -13.75 12.2 -14.55 10.85 -13.5 -5.1 -13.05 -6.0 -6.75 -7.2 -5.6 -6.05 -12.1 -5.8 -13.2 -6.05 -12.1 -8.1 -11.65 -11.3 10.5 -12.15 11.05 -9.0 -12.7 -5.85 -12.85 -5.8 -13.2 M-1.8 -3.5 L7.75 -3.5 6.55 -2.75 -4.45 -2.75 -5.2 1.05 -6.05 1.75 -5.1 -3.5 -2.55 -3.5 -1.8 -3.5 M-3.05 4.25 L-2.9 4.3 9.0 5.65 7.6 6.65 -8.55 4.35 -9.35 9.7 -10.4 10.45 -10.45 10.45 -9.2 3.55 -3.8 4.2 -3.05 4.25" fill="#8debe3" fill-rule="evenodd" stroke="none"/>
      <path d="M-6.05 -12.1 L-7.2 -5.6 -2.2 -5.9 -2.55 -3.5 -5.1 -3.5 -6.05 1.75 -3.45 1.9 -3.8 4.2 -9.2 3.55 -10.45 10.45 -10.5 10.65 -11.3 10.5 -8.1 -11.65 -6.05 -12.1 M-6.0 -6.75 L-5.1 -13.05 10.85 -13.5 10.0 -7.8 -6.0 -6.75 M-5.2 1.05 L-4.45 -2.75 6.55 -2.75 5.95 1.4 -5.2 1.05 M-9.35 9.7 L-8.55 4.35 7.6 6.65 7.6 13.05 -9.35 9.7" fill="url(#gradient2)" fill-rule="evenodd" stroke="none"/>
      <path d="M-7.2 -5.6 L-6.0 -6.75 10.0 -7.8 10.85 -13.5 12.2 -14.55 11.05 -6.85 -1.45 -6.0 -1.8 -3.5 -2.55 -3.5 -2.2 -5.9 -1.45 -6.0 -2.2 -5.9 -7.2 -5.6 M7.75 -3.5 L6.8 2.55 -2.45 2.0 -2.7 2.0 -3.05 4.25 -3.8 4.2 -3.45 1.9 -2.7 2.0 -3.45 1.9 -6.05 1.75 -5.2 1.05 5.95 1.4 6.55 -2.75 7.75 -3.5 M9.0 5.65 L8.75 14.6 -4.3 11.75 -4.45 12.8 -12.15 11.05 -11.3 10.5 -10.5 10.65 -5.1 11.9 -5.0 11.6 -10.4 10.45 -9.35 9.7 7.6 13.05 7.6 6.65 9.0 5.65 M-4.3 11.75 L-5.0 11.6 -4.3 11.75" fill="#226666" fill-rule="evenodd" stroke="none"/>
      <path d="M12.2 -14.55 L-5.7 -13.75 -5.8 -13.2 -6.05 -12.1 -7.2 -5.6 M12.2 -14.55 L11.05 -6.85 -1.45 -6.0 -1.8 -3.5 7.75 -3.5 6.8 2.55 -2.45 2.0 M-2.7 2.0 L-3.05 4.25 -2.9 4.3 9.0 5.65 8.75 14.6 -4.3 11.75 -4.45 12.8 -12.15 11.05 -9.0 -12.7 -5.85 -12.85 M-1.45 -6.0 L-2.2 -5.9 -7.2 -5.6 M-2.55 -3.5 L-1.8 -3.5 M-2.55 -3.5 L-5.1 -3.5 -6.05 1.75 M-3.8 4.2 L-3.05 4.25 M-3.8 4.2 L-9.2 3.55 -10.45 10.45 -10.4 10.45 M-2.7 2.0 L-3.45 1.9 -6.05 1.75 M-5.0 11.6 L-10.4 10.45 M-5.0 11.6 L-4.3 11.75" fill="none" stroke="#1a4d4d" stroke-linecap="round" stroke-linejoin="round" stroke-width="1.0"/>
    </g>
    <linearGradient gradientTransform="matrix(0.0084, 0.0146, -0.0112, 0.0064, -16.95, 11.2)" gradientUnits="userSpaceOnUse" id="gradient2" spreadMethod="pad" x1="-819.2" x2="819.2">
      <stop offset="0.0" stop-color="#32b4b3"/>
      <stop offset="1.0" stop-color="#2c8584"/>
    </linearGradient>
    <g id="shape3" transform="matrix(1.0, 0.0, 0.0, 1.0, 3.35, 3.35)">
      <path d="M26.25 5.8 L24.9 6.75 4.2 2.35 2.85 48.05 3.4 1.1 26.25 5.8" fill="#8debe3" fill-rule="evenodd" stroke="none"/>
      <path d="M24.9 6.75 L26.25 5.8 17.3 48.35 24.9 6.75" fill="#226666" fill-rule="evenodd" stroke="none"/>
      <path d="M0.7 48.0 L1.85 48.05 2.55 0.15 27.35 5.15 18.6 48.35 42.95 48.9 40.15 67.4 0.15 62.45 0.15 48.5" fill="none" stroke="#000000" stroke-linecap="round" stroke-linejoin="round" stroke-width="7.0"/>
      <path d="M17.95 48.85 L42.65 49.3 42.65 49.35 41.1 50.95 1.95 50.0 1.95 60.95 0.5 62.1 0.65 48.5 2.35 48.55 2.9 0.5 26.9 5.4 24.85 6.7 4.15 2.35 3.1 48.55 17.2 48.8 17.95 48.85 M2.35 48.55 L3.1 48.55 2.35 48.55" fill="#8debe3" fill-rule="evenodd" stroke="none"/>
      <path d="M17.2 48.8 L3.1 48.55 4.15 2.35 24.85 6.7 17.2 48.8 M41.1 50.95 L38.25 65.45 1.95 60.95 1.95 50.0 41.1 50.95" fill="url(#gradient3)" fill-rule="evenodd" stroke="none"/>
      <path d="M42.65 49.35 L39.85 67.0 0.5 62.1 1.95 60.95 38.25 65.45 41.1 50.95 42.65 49.35 M26.9 5.4 L17.95 48.85 17.2 48.8 24.85 6.7 26.9 5.4" fill="#226666" fill-rule="evenodd" stroke="none"/>
      <path d="M17.95 48.85 L42.65 49.3 42.65 49.35 39.85 67.0 0.5 62.1 0.65 48.5 2.35 48.55 2.9 0.5 26.9 5.4 17.95 48.85 17.2 48.8 3.1 48.55 2.35 48.55" fill="none" stroke="#1a4d4d" stroke-linecap="round" stroke-linejoin="round" stroke-width="1.0"/>
    </g>
    <linearGradient gradientTransform="matrix(0.0287, 0.0287, -0.5371, 0.5371, 94.35, -39.75)" gradientUnits="userSpaceOnUse" id="gradient3" spreadMethod="pad" x1="-819.2" x2="819.2">
      <stop offset="0.0" stop-color="#32b4b3"/>
      <stop offset="1.0" stop-color="#2c8584"/>
    </linearGradient>
    <g id="shape4" transform="matrix(1.0, 0.0, 0.0, 1.0, 3.5, 3.5)">
      <path d="M33.8 1.9 L18.4 26.45 9.3 25.9 9.25 25.3 9.85 23.65 0.0 0.85 0.45 0.45 10.75 0.0 11.05 0.1 15.0 12.45 20.25 1.15 33.45 1.15 Q34.15 1.35 33.8 1.9 Z" fill="none" stroke="#000000" stroke-linecap="round" stroke-linejoin="round" stroke-width="7.0"/>
      <path d="M33.45 1.7 L33.4 1.75 33.45 1.7" fill="#fff8b9" fill-rule="evenodd" stroke="none"/>
      <path d="M33.45 1.7 L33.5 1.7 33.45 1.7" fill="#ffcc00" fill-rule="evenodd" stroke="none"/>
      <path d="M9.55 25.5 L10.4 23.65 0.45 0.95 10.75 0.5 9.9 1.7 2.4 2.45 10.8 22.8 14.45 14.8 14.9 13.8 20.5 1.5 33.45 1.7 33.4 1.75 30.85 2.85 21.4 2.45 10.85 24.55 9.55 25.5 M10.4 23.65 L10.8 22.8 10.4 23.65" fill="#8debe3" fill-rule="evenodd" stroke="none"/>
      <path d="M30.85 2.85 L17.45 24.35 10.85 24.55 21.4 2.45 30.85 2.85 M14.45 14.8 L10.8 22.8 2.4 2.45 9.9 1.7 14.45 14.8" fill="url(#gradient4)" fill-rule="evenodd" stroke="none"/>
      <path d="M33.4 1.75 L17.9 26.15 9.55 25.5 10.85 24.55 17.45 24.35 30.85 2.85 33.4 1.75 M10.75 0.5 L14.9 13.8 14.45 14.8 9.9 1.7 10.75 0.5" fill="#226666" fill-rule="evenodd" stroke="none"/>
      <path d="M33.4 1.75 L17.9 26.15 9.55 25.5 10.4 23.65 0.45 0.95 10.75 0.5 14.9 13.8 20.5 1.5 33.45 1.7 M14.9 13.8 L14.45 14.8 10.8 22.8 10.4 23.65" fill="none" stroke="#1a4d4d" stroke-linecap="round" stroke-linejoin="round" stroke-width="1.0"/>
    </g>
    <linearGradient gradientTransform="matrix(0.0084, 0.0145, -0.0112, 0.0064, 3.9, 17.35)" gradientUnits="userSpaceOnUse" id="gradient4" spreadMethod="pad" x1="-819.2" x2="819.2">
      <stop offset="0.0" stop-color="#32b4b3"/>
      <stop offset="1.0" stop-color="#2c8584"/>
    </linearGradient>
    <g id="shape5" transform="matrix(1.0, 0.0, 0.0, 1.0, 3.5, 3.5)">
      <path d="M9.85 26.4 L31.85 15.7 33.85 29.95 8.15 36.45 7.95 37.6 0.0 39.65 2.5 0.0 13.7 2.9 9.85 26.4 Z" fill="none" stroke="#000000" stroke-linecap="round" stroke-linejoin="round" stroke-width="7.0"/>
      <path d="M13.7 2.95 L12.3 3.6 3.55 1.45 1.05 38.35 0.0 39.65 2.5 0.0 13.7 2.9 13.7 2.95 M31.85 15.7 L30.9 17.25 9.7 27.15 9.85 26.4 31.85 15.7" fill="#8debe3" fill-rule="evenodd" stroke="none"/>
      <path d="M12.3 3.6 L13.7 2.95 9.85 26.4 9.7 27.15 8.3 35.65 31.8 29.0 30.9 17.25 31.85 15.7 33.85 29.95 8.15 36.45 7.95 37.6 7.95 37.65 0.8 39.45 0.75 39.5 0.0 39.65 1.05 38.35 7.25 36.75 12.3 3.6 M8.15 36.45 L8.3 35.65 8.15 36.45" fill="#226666" fill-rule="evenodd" stroke="none"/>
      <path d="M1.05 38.35 L3.55 1.45 12.3 3.6 7.25 36.75 1.05 38.35 M9.7 27.15 L30.9 17.25 31.8 29.0 8.3 35.65 9.7 27.15" fill="url(#gradient5)" fill-rule="evenodd" stroke="none"/>
      <path d="M13.7 2.95 L13.7 2.9 2.5 0.0 0.0 39.65 M31.85 15.7 L9.85 26.4 9.7 27.15 8.3 35.65 8.15 36.45 33.85 29.95 31.85 15.7 M8.15 36.45 L7.95 37.6 7.95 37.65 0.8 39.45 0.75 39.5 0.0 39.65 M13.7 2.95 L9.85 26.4" fill="none" stroke="#1a4d4d" stroke-linecap="round" stroke-linejoin="round" stroke-width="1.0"/>
    </g>
    <linearGradient gradientTransform="matrix(0.0115, 0.0199, -0.0112, 0.0064, 1.95, 24.65)" gradientUnits="userSpaceOnUse" id="gradient5" spreadMethod="pad" x1="-819.2" x2="819.2">
      <stop offset="0.0" stop-color="#32b4b3"/>
      <stop offset="1.0" stop-color="#2c8584"/>
    </linearGradient>
    <g id="shape6" transform="matrix(1.0, 0.0, 0.0, 1.0, 29.6, 38.15)">
      <path d="M27.2 -14.35 L27.2 -14.25 Q27.2 -7.4 23.65 -2.9 L23.55 -2.75 22.8 -1.9 23.95 -0.8 24.0 -0.7 Q29.4 4.7 29.6 13.3 L29.6 13.4 Q29.65 24.55 20.55 31.7 12.5 38.2 0.1 38.2 -12.7 38.2 -20.7 31.7 -29.75 24.55 -29.6 13.4 L-29.6 13.3 Q-29.6 4.75 -24.35 -0.65 L-22.95 -2.0 -23.3 -2.5 -23.45 -2.55 Q-27.3 -7.7 -27.2 -14.35 -27.15 -25.4 -18.9 -31.95 L-19.1 -31.8 Q-11.85 -38.25 0.05 -38.15 L0.25 -38.15 Q12.1 -38.25 19.2 -31.9 26.95 -25.3 27.2 -14.35 M-15.5 -27.6 Q-21.65 -22.6 -21.65 -14.45 -21.65 -9.65 -18.95 -5.95 L-18.9 -5.9 Q-16.95 -3.35 -13.8 -1.65 -17.5 0.25 -20.2 3.2 -24.05 7.15 -24.05 13.35 -24.05 21.9 -17.2 27.3 -10.55 32.55 0.05 32.6 10.35 32.6 17.15 27.3 23.95 21.85 23.95 13.35 23.9 7.1 20.0 3.2 L20.0 3.15 Q17.0 0.25 13.35 -1.6 17.3 -3.85 19.1 -6.3 L19.1 -6.25 19.15 -6.3 Q21.55 -9.45 21.55 -14.3 21.5 -22.65 15.55 -27.65 9.75 -32.6 0.05 -32.6 -9.55 -32.65 -15.5 -27.6 M-5.4 -14.45 L-5.4 -14.55 Q-5.35 -16.7 -3.85 -18.15 -2.35 -19.7 -0.05 -19.7 2.15 -19.7 3.7 -18.15 5.25 -16.6 5.25 -14.45 5.25 -12.2 3.7 -10.65 L3.7 -10.6 Q2.15 -9.1 -0.05 -9.1 -2.35 -9.1 -3.85 -10.6 -5.35 -12.15 -5.4 -14.45 M4.25 7.8 Q5.9 9.45 5.9 11.95 5.9 14.35 4.2 16.15 L4.25 16.1 Q2.5 17.8 0.0 17.8 -2.4 17.8 -4.15 16.15 L-4.15 16.1 Q-5.85 14.35 -5.9 11.95 L-5.9 11.85 Q-5.85 9.45 -4.15 7.8 -2.4 6.05 0.0 6.1 L0.05 6.1 Q2.5 6.05 4.25 7.8" fill="#000000" fill-rule="evenodd" stroke="none"/>
      <path d="M19.1 -6.3 Q17.3 -3.85 13.35 -1.6 17.0 0.25 20.0 3.15 L20.0 3.2 Q23.9 7.1 23.95 13.35 23.95 21.85 17.15 27.3 10.35 32.6 0.05 32.6 -10.55 32.55 -17.2 27.3 -24.05 21.9 -24.05 13.35 -24.05 7.15 -20.2 3.2 -17.5 0.25 -13.8 -1.65 -16.95 -3.35 -18.9 -5.9 L-18.95 -5.95 Q-21.65 -9.65 -21.65 -14.45 -21.65 -22.6 -15.5 -27.6 -9.55 -32.65 0.05 -32.6 9.75 -32.6 15.55 -27.65 21.5 -22.65 21.55 -14.3 21.55 -9.45 19.15 -6.3 L19.1 -6.3 M-13.9 -25.7 L-13.9 -25.65 Q-19.15 -21.4 -19.15 -14.45 -19.15 -10.5 -16.95 -7.45 -14.65 -4.5 -10.55 -2.85 L-10.0 -2.4 -9.8 -1.7 -9.8 -1.55 -10.0 -0.85 Q-10.25 -0.55 -10.6 -0.4 -15.2 1.45 -18.35 4.9 L-18.4 4.95 Q-21.55 8.2 -21.55 13.35 -21.55 20.7 -15.65 25.35 -9.55 30.05 0.05 30.1 9.45 30.1 15.6 25.35 21.45 20.65 21.45 13.35 21.4 8.2 18.25 4.95 L18.2 4.95 Q14.7 1.45 10.05 -0.4 9.55 -0.6 9.35 -1.05 9.15 -1.5 9.35 -1.95 9.5 -2.45 9.95 -2.65 15.0 -5.1 17.1 -7.8 19.05 -10.35 19.05 -14.3 19.0 -21.45 13.95 -25.75 8.75 -30.1 0.05 -30.1 -8.55 -30.15 -13.9 -25.7" fill="url(#gradient6)" fill-rule="evenodd" stroke="none"/>
      <path d="M19.1 -6.3 L19.15 -6.3 19.1 -6.25 19.1 -6.3 M5.45 -19.9 L5.45 -19.95 5.45 -19.9" fill="#809c27" fill-rule="evenodd" stroke="none"/>
      <path d="M-13.9 -25.7 Q-8.55 -30.15 0.05 -30.1 8.75 -30.1 13.95 -25.75 19.0 -21.45 19.05 -14.3 19.05 -10.35 17.1 -7.8 15.0 -5.1 9.95 -2.65 9.5 -2.45 9.35 -1.95 9.15 -1.5 9.35 -1.05 9.55 -0.6 10.05 -0.4 14.7 1.45 18.2 4.95 L18.25 4.95 Q21.4 8.2 21.45 13.35 21.45 20.65 15.6 25.35 9.45 30.1 0.05 30.1 -9.55 30.05 -15.65 25.35 -21.55 20.7 -21.55 13.35 -21.55 8.2 -18.4 4.95 L-18.35 4.9 Q-15.2 1.45 -10.6 -0.4 -10.25 -0.55 -10.0 -0.85 L-9.8 -1.55 -9.8 -1.7 -10.0 -2.4 -10.55 -2.85 Q-14.65 -4.5 -16.95 -7.45 -19.15 -10.5 -19.15 -14.45 -19.15 -21.4 -13.9 -25.65 L-13.9 -25.7 M5.45 -19.9 Q3.15 -22.2 -0.05 -22.2 -3.35 -22.2 -5.6 -19.9 -7.85 -17.75 -7.9 -14.55 L-7.9 -14.4 Q-7.85 -11.05 -5.6 -8.85 -3.35 -6.6 -0.05 -6.6 3.15 -6.6 5.45 -8.85 7.75 -11.15 7.75 -14.45 7.75 -17.65 5.45 -19.9 L5.45 -19.95 5.45 -19.9 M0.05 3.6 L0.0 3.6 Q-3.4 3.55 -5.9 6.0 -8.35 8.35 -8.4 11.85 L-8.4 12.0 Q-8.35 15.4 -5.95 17.9 L-5.9 17.9 Q-3.4 20.3 0.0 20.3 3.5 20.3 6.0 17.9 8.4 15.35 8.4 11.95 8.4 8.45 6.0 6.05 3.5 3.55 0.05 3.6" fill="url(#gradient7)" fill-rule="evenodd" stroke="none"/>
      <path d="M-5.4 -14.45 Q-5.35 -12.15 -3.85 -10.6 -2.35 -9.1 -0.05 -9.1 2.15 -9.1 3.7 -10.6 L3.7 -10.65 Q5.25 -12.2 5.25 -14.45 5.25 -16.6 3.7 -18.15 2.15 -19.7 -0.05 -19.7 -2.35 -19.7 -3.85 -18.15 -5.35 -16.7 -5.4 -14.55 L-5.4 -14.45 M5.45 -19.9 Q7.75 -17.65 7.75 -14.45 7.75 -11.15 5.45 -8.85 3.15 -6.6 -0.05 -6.6 -3.35 -6.6 -5.6 -8.85 -7.85 -11.05 -7.9 -14.4 L-7.9 -14.55 Q-7.85 -17.75 -5.6 -19.9 -3.35 -22.2 -0.05 -22.2 3.15 -22.2 5.45 -19.9" fill="url(#gradient8)" fill-rule="evenodd" stroke="none"/>
      <path d="M4.25 7.8 Q2.5 6.05 0.05 6.1 L0.0 6.1 Q-2.4 6.05 -4.15 7.8 -5.85 9.45 -5.9 11.85 L-5.9 11.95 Q-5.85 14.35 -4.15 16.1 L-4.15 16.15 Q-2.4 17.8 0.0 17.8 2.5 17.8 4.25 16.1 L4.2 16.15 Q5.9 14.35 5.9 11.95 5.9 9.45 4.25 7.8 M0.05 3.6 Q3.5 3.55 6.0 6.05 8.4 8.45 8.4 11.95 8.4 15.35 6.0 17.9 3.5 20.3 0.0 20.3 -3.4 20.3 -5.9 17.9 L-5.95 17.9 Q-8.35 15.4 -8.4 12.0 L-8.4 11.85 Q-8.35 8.35 -5.9 6.0 -3.4 3.55 0.0 3.6 L0.05 3.6" fill="url(#gradient9)" fill-rule="evenodd" stroke="none"/>
    </g>
    <linearGradient gradientTransform="matrix(0.0032, 0.0019, -0.0195, 0.0336, -0.9, -0.05)" gradientUnits="userSpaceOnUse" id="gradient6" spreadMethod="pad" x1="-819.2" x2="819.2">
      <stop offset="0.0" stop-color="#dcf19a"/>
      <stop offset="1.0" stop-color="#809c27"/>
    </linearGradient>
    <linearGradient gradientTransform="matrix(0.0188, 0.0325, -0.0331, 0.0191, 0.0, 0.05)" gradientUnits="userSpaceOnUse" id="gradient7" spreadMethod="pad" x1="-819.2" x2="819.2">
      <stop offset="0.0" stop-color="#c6e21d"/>
      <stop offset="1.0" stop-color="#99cc33"/>
    </linearGradient>
    <linearGradient gradientTransform="matrix(-0.0015, -0.0015, 0.0068, -0.0068, -0.1, -14.4)" gradientUnits="userSpaceOnUse" id="gradient8" spreadMethod="pad" x1="-819.2" x2="819.2">
      <stop offset="0.0" stop-color="#dcf19a"/>
      <stop offset="1.0" stop-color="#809c27"/>
    </linearGradient>
    <linearGradient gradientTransform="matrix(-0.002, -0.002, 0.0072, -0.0073, 0.05, 11.95)" gradientUnits="userSpaceOnUse" id="gradient9" spreadMethod="pad" x1="-819.2" x2="819.2">
      <stop offset="0.0" stop-color="#dcf19a"/>
      <stop offset="1.0" stop-color="#809c27"/>
    </linearGradient>
  </defs>
</svg>
