<?xml version="1.0" encoding="UTF-8" standalone="no"?>
<svg xmlns:xlink="http://www.w3.org/1999/xlink" height="149.65px" width="326.7px" xmlns="http://www.w3.org/2000/svg">
  <g transform="matrix(1.0, 0.0, 0.0, 1.0, 197.25, 104.15)">
    <use height="47.95" transform="matrix(1.0, 0.0, 0.0, 1.0, -97.45, -22.85)" width="39.75" xlink:href="#shape0"/>
    <use height="9.0" transform="matrix(0.4297, -0.4297, 0.4297, 0.4297, -90.8098, -11.1574)" width="8.5" xlink:href="#shape1"/>
    <use height="9.0" transform="matrix(0.0983, 0.3669, -0.3669, 0.0983, -82.5171, 0.3483)" width="8.5" xlink:href="#shape1"/>
    <use height="9.0" transform="matrix(-0.5136, -0.1376, 0.1376, -0.5136, -82.1866, 17.1461)" width="8.5" xlink:href="#shape1"/>
    <use height="36.85" transform="matrix(1.0, 0.0, 0.0, 1.0, -51.35, -19.85)" width="32.1" xlink:href="#shape2"/>
    <use height="9.0" transform="matrix(0.2578, 0.2578, -0.2578, 0.2578, -39.1855, -13.6059)" width="8.5" xlink:href="#shape1"/>
    <use height="9.0" transform="matrix(-0.1823, 0.3158, -0.3157, -0.1823, -36.7545, -2.6717)" width="8.5" xlink:href="#shape1"/>
    <use height="9.0" transform="matrix(0.4834, -0.4834, 0.4834, 0.4834, -45.9797, 6.2292)" width="8.5" xlink:href="#shape1"/>
    <use height="74.25" transform="matrix(1.0, 0.0, 0.0, 1.0, -125.3, -36.0)" width="49.8" xlink:href="#shape3"/>
    <use height="9.0" transform="matrix(0.8057, 0.8057, -0.8057, 0.8057, -112.3486, 16.1004)" width="8.5" xlink:href="#shape1"/>
    <use height="33.45" transform="matrix(1.0, 0.0, 0.0, 1.0, -73.95, -0.65)" width="40.9" xlink:href="#shape4"/>
    <use height="9.0" transform="matrix(-0.1573, 0.587, -0.587, -0.1573, -51.9403, 22.663)" width="8.5" xlink:href="#shape1"/>
    <use height="46.65" transform="matrix(1.0, 0.0, 0.0, 1.0, -29.15, -19.85)" width="40.85" xlink:href="#shape5"/>
    <use height="9.0" transform="matrix(0.587, -0.1573, 0.1573, 0.587, -23.9524, 13.977)" width="8.5" xlink:href="#shape1"/>
    <use height="75.65" transform="matrix(1.0, 0.0, 0.0, 1.0, 57.65, -39.7)" width="64.2" xlink:href="#shape6"/>
    <use height="73.35" transform="matrix(1.0, 0.0, 0.0, 1.0, 21.8, -37.4)" width="37.7" xlink:href="#shape7"/>
  </g>
  <defs>
    <g id="shape0" transform="matrix(1.0, 0.0, 0.0, 1.0, 3.1, 3.0)">
      <path d="M30.05 0.5 L2.55 4.65 2.6 5.25 0.4 5.55 3.8 37.75 7.0 38.1 7.05 39.0 30.7 41.45 33.15 30.4 13.95 29.25 13.9 25.5 30.35 24.75 30.6 15.6 13.7 17.7 13.6 13.65 31.0 12.15 30.05 0.5 Z" fill="none" stroke="#000000" stroke-linecap="round" stroke-linejoin="round" stroke-width="7.0"/>
      <path d="M13.95 25.5 L13.95 29.25 13.85 25.5 13.95 25.5" fill="#f0a200" fill-rule="evenodd" stroke="none"/>
      <path d="M13.7 16.8 L13.7 17.75 13.7 16.8" fill="#ffcc00" fill-rule="evenodd" stroke="none"/>
      <path d="M3.85 37.75 L3.8 37.75 0.4 5.55 2.6 5.25 2.55 4.65 30.05 0.5 28.6 1.95 3.6 5.45 4.15 13.2 2.85 14.55 2.6 6.0 1.2 6.2 4.85 36.4 3.85 37.75 M13.7 17.75 L30.6 15.6 30.6 15.65 29.05 16.95 13.7 18.5 13.7 17.75 M13.95 29.25 L33.1 30.4 31.05 31.5 7.8 29.9 8.45 37.65 7.05 39.0 7.05 38.1 7.0 36.55 6.75 28.85 13.2 29.25 13.95 29.25 M2.6 5.25 L2.6 6.0 2.6 5.25" fill="#8debe3" fill-rule="evenodd" stroke="none"/>
      <path d="M4.85 36.4 L1.2 6.2 2.6 6.0 2.85 14.55 12.8 13.7 13.2 29.25 6.75 28.85 7.0 36.55 4.85 36.4 M4.15 13.2 L3.6 5.45 28.6 1.95 29.35 11.0 4.15 13.2 M29.05 16.95 L29.05 23.65 13.85 24.75 13.7 18.5 29.05 16.95 M8.45 37.65 L7.8 29.9 31.05 31.5 29.55 39.85 8.45 37.65" fill="url(#gradient0)" fill-rule="evenodd" stroke="none"/>
      <path d="M30.05 0.5 L31.0 12.15 13.55 13.65 13.7 16.8 13.7 17.75 13.7 18.5 13.85 24.75 29.05 23.65 29.05 16.95 30.6 15.65 30.35 24.75 13.95 25.5 13.85 25.5 13.85 24.75 13.85 25.5 13.95 29.25 13.2 29.25 12.8 13.7 2.85 14.55 4.15 13.2 29.35 11.0 28.6 1.95 30.05 0.5 M33.1 30.4 L30.7 41.45 7.05 39.0 8.45 37.65 29.55 39.85 31.05 31.5 33.1 30.4 M7.05 38.1 L3.85 37.75 4.85 36.4 7.0 36.55 7.05 38.1 M13.55 13.65 L12.8 13.7 13.55 13.65" fill="#226666" fill-rule="evenodd" stroke="none"/>
      <path d="M3.85 37.75 L3.8 37.75 0.4 5.55 2.6 5.25 2.55 4.65 30.05 0.5 31.0 12.15 13.55 13.65 13.7 16.8 M13.7 17.75 L30.6 15.6 30.6 15.65 30.35 24.75 13.95 25.5 M13.95 29.25 L33.1 30.4 30.7 41.45 7.05 39.0 7.05 38.1 3.85 37.75 M2.6 6.0 L2.6 5.25 M2.6 6.0 L2.85 14.55 12.8 13.7 13.55 13.65 M13.85 24.75 L13.85 25.5 M13.7 18.5 L13.7 17.75 13.7 16.8 M13.2 29.25 L13.95 29.25 13.85 25.5 M7.0 36.55 L6.75 28.85 13.2 29.25 M13.85 24.75 L13.7 18.5 M7.0 36.55 L7.05 38.1" fill="none" stroke="#1a4d4d" stroke-linecap="round" stroke-linejoin="round" stroke-width="1.0"/>
    </g>
    <linearGradient gradientTransform="matrix(0.019, 0.019, -0.0049, 0.0049, 25.9, 11.5)" gradientUnits="userSpaceOnUse" id="gradient0" spreadMethod="pad" x1="-819.2" x2="819.2">
      <stop offset="0.0" stop-color="#32b4b3"/>
      <stop offset="1.0" stop-color="#2c8584"/>
    </linearGradient>
    <g id="shape1" transform="matrix(1.0, 0.0, 0.0, 1.0, 4.25, 4.5)">
      <path d="M0.0 -4.0 Q1.65 -4.0 2.8 -2.85 4.0 -1.65 4.0 0.0 4.0 1.65 2.8 2.8 1.65 4.0 0.0 4.0 L0.0 -4.0 0.0 4.0 Q-1.65 4.0 -2.85 2.8 -4.0 1.65 -4.0 0.0 -4.0 -1.65 -2.85 -2.85 -1.65 -4.0 0.0 -4.0" fill="url(#gradient1)" fill-rule="evenodd" stroke="none"/>
      <path d="M0.0 4.0 Q1.65 4.0 2.8 2.8 4.0 1.65 4.0 0.0 4.0 -1.65 2.8 -2.85 1.65 -4.0 0.0 -4.0 M0.0 4.0 Q-1.65 4.0 -2.85 2.8 -4.0 1.65 -4.0 0.0 -4.0 -1.65 -2.85 -2.85 -1.65 -4.0 0.0 -4.0" fill="none" stroke="#1a4d4d" stroke-linecap="round" stroke-linejoin="round" stroke-width="0.5"/>
      <path d="M0.0 -4.0 L0.0 4.0 Z" fill="none" stroke="#0e2c2c" stroke-linecap="round" stroke-linejoin="round" stroke-width="1.0"/>
    </g>
    <radialGradient cx="0" cy="0" gradientTransform="matrix(0.0042, 0.0, 0.0, 0.0042, 0.0, 0.0)" gradientUnits="userSpaceOnUse" id="gradient1" r="819.2" spreadMethod="pad">
      <stop offset="0.0" stop-color="#8debe3"/>
      <stop offset="1.0" stop-color="#267574"/>
    </radialGradient>
    <g id="shape2" transform="matrix(1.0, 0.0, 0.0, 1.0, 16.05, 18.45)">
      <path d="M12.55 -14.5 L11.5 -6.75 11.4 -6.45 -0.95 -5.5 -1.2 -4.0 8.05 -3.9 7.15 2.95 -2.25 2.5 -2.45 3.85 9.3 5.2 9.15 14.9 -3.9 12.35 -4.1 13.15 -12.55 11.35 -9.35 -13.05 -6.3 -13.3 -6.0 -14.1 12.45 -14.95 12.55 -14.5 Z" fill="none" stroke="#000000" stroke-linecap="round" stroke-linejoin="round" stroke-width="7.0"/>
      <path d="M-10.45 10.45 L-10.4 10.45 -5.0 11.6 -5.1 11.9 -10.5 10.65 -10.45 10.45" fill="#ffcc00" fill-rule="evenodd" stroke="none"/>
      <path d="M-5.8 -13.2 L-5.7 -13.75 12.2 -14.55 10.85 -13.5 -5.1 -13.05 -6.0 -6.75 -7.2 -5.6 -6.05 -12.1 -5.8 -13.2 -6.05 -12.1 -8.1 -11.65 -11.3 10.5 -12.15 11.05 -9.0 -12.7 -5.85 -12.85 -5.8 -13.2 M-1.8 -3.5 L7.75 -3.5 6.55 -2.75 -4.45 -2.75 -5.2 1.05 -6.05 1.75 -5.1 -3.5 -2.55 -3.5 -1.8 -3.5 M-3.05 4.25 L-2.9 4.3 9.0 5.65 7.6 6.65 -8.55 4.35 -9.35 9.7 -10.4 10.45 -10.45 10.45 -9.2 3.55 -3.8 4.2 -3.05 4.25" fill="#8debe3" fill-rule="evenodd" stroke="none"/>
      <path d="M-6.05 -12.1 L-7.2 -5.6 -2.2 -5.9 -2.55 -3.5 -5.1 -3.5 -6.05 1.75 -3.45 1.9 -3.8 4.2 -9.2 3.55 -10.45 10.45 -10.5 10.65 -11.3 10.5 -8.1 -11.65 -6.05 -12.1 M-6.0 -6.75 L-5.1 -13.05 10.85 -13.5 10.0 -7.8 -6.0 -6.75 M-5.2 1.05 L-4.45 -2.75 6.55 -2.75 5.95 1.4 -5.2 1.05 M-9.35 9.7 L-8.55 4.35 7.6 6.65 7.6 13.05 -9.35 9.7" fill="url(#gradient2)" fill-rule="evenodd" stroke="none"/>
      <path d="M-7.2 -5.6 L-6.0 -6.75 10.0 -7.8 10.85 -13.5 12.2 -14.55 11.05 -6.85 -1.45 -6.0 -1.8 -3.5 -2.55 -3.5 -2.2 -5.9 -1.45 -6.0 -2.2 -5.9 -7.2 -5.6 M7.75 -3.5 L6.8 2.55 -2.45 2.0 -2.7 2.0 -3.05 4.25 -3.8 4.2 -3.45 1.9 -2.7 2.0 -3.45 1.9 -6.05 1.75 -5.2 1.05 5.95 1.4 6.55 -2.75 7.75 -3.5 M9.0 5.65 L8.75 14.6 -4.3 11.75 -4.45 12.8 -12.15 11.05 -11.3 10.5 -10.5 10.65 -5.1 11.9 -5.0 11.6 -10.4 10.45 -9.35 9.7 7.6 13.05 7.6 6.65 9.0 5.65 M-4.3 11.75 L-5.0 11.6 -4.3 11.75" fill="#226666" fill-rule="evenodd" stroke="none"/>
      <path d="M12.2 -14.55 L-5.7 -13.75 -5.8 -13.2 -6.05 -12.1 -7.2 -5.6 M12.2 -14.55 L11.05 -6.85 -1.45 -6.0 -1.8 -3.5 7.75 -3.5 6.8 2.55 -2.45 2.0 M-2.7 2.0 L-3.05 4.25 -2.9 4.3 9.0 5.65 8.75 14.6 -4.3 11.75 -4.45 12.8 -12.15 11.05 -9.0 -12.7 -5.85 -12.85 M-1.45 -6.0 L-2.2 -5.9 -7.2 -5.6 M-2.55 -3.5 L-1.8 -3.5 M-2.55 -3.5 L-5.1 -3.5 -6.05 1.75 M-3.8 4.2 L-3.05 4.25 M-3.8 4.2 L-9.2 3.55 -10.45 10.45 -10.4 10.45 M-2.7 2.0 L-3.45 1.9 -6.05 1.75 M-5.0 11.6 L-10.4 10.45 M-5.0 11.6 L-4.3 11.75" fill="none" stroke="#1a4d4d" stroke-linecap="round" stroke-linejoin="round" stroke-width="1.0"/>
    </g>
    <linearGradient gradientTransform="matrix(0.0084, 0.0146, -0.0112, 0.0064, -16.95, 11.2)" gradientUnits="userSpaceOnUse" id="gradient2" spreadMethod="pad" x1="-819.2" x2="819.2">
      <stop offset="0.0" stop-color="#32b4b3"/>
      <stop offset="1.0" stop-color="#2c8584"/>
    </linearGradient>
    <g id="shape3" transform="matrix(1.0, 0.0, 0.0, 1.0, 3.35, 3.35)">
      <path d="M26.25 5.8 L24.9 6.75 4.2 2.35 2.85 48.05 3.4 1.1 26.25 5.8" fill="#8debe3" fill-rule="evenodd" stroke="none"/>
      <path d="M24.9 6.75 L26.25 5.8 17.3 48.35 24.9 6.75" fill="#226666" fill-rule="evenodd" stroke="none"/>
      <path d="M0.7 48.0 L1.85 48.05 2.55 0.15 27.35 5.15 18.6 48.35 42.95 48.9 40.15 67.4 0.15 62.45 0.15 48.5" fill="none" stroke="#000000" stroke-linecap="round" stroke-linejoin="round" stroke-width="7.0"/>
      <path d="M17.95 48.85 L42.65 49.3 42.65 49.35 41.1 50.95 1.95 50.0 1.95 60.95 0.5 62.1 0.65 48.5 2.35 48.55 2.9 0.5 26.9 5.4 24.85 6.7 4.15 2.35 3.1 48.55 17.2 48.8 17.95 48.85 M2.35 48.55 L3.1 48.55 2.35 48.55" fill="#8debe3" fill-rule="evenodd" stroke="none"/>
      <path d="M17.2 48.8 L3.1 48.55 4.15 2.35 24.85 6.7 17.2 48.8 M41.1 50.95 L38.25 65.45 1.95 60.95 1.95 50.0 41.1 50.95" fill="url(#gradient3)" fill-rule="evenodd" stroke="none"/>
      <path d="M42.65 49.35 L39.85 67.0 0.5 62.1 1.95 60.95 38.25 65.45 41.1 50.95 42.65 49.35 M26.9 5.4 L17.95 48.85 17.2 48.8 24.85 6.7 26.9 5.4" fill="#226666" fill-rule="evenodd" stroke="none"/>
      <path d="M17.95 48.85 L42.65 49.3 42.65 49.35 39.85 67.0 0.5 62.1 0.65 48.5 2.35 48.55 2.9 0.5 26.9 5.4 17.95 48.85 17.2 48.8 3.1 48.55 2.35 48.55" fill="none" stroke="#1a4d4d" stroke-linecap="round" stroke-linejoin="round" stroke-width="1.0"/>
    </g>
    <linearGradient gradientTransform="matrix(0.0287, 0.0287, -0.5371, 0.5371, 94.35, -39.75)" gradientUnits="userSpaceOnUse" id="gradient3" spreadMethod="pad" x1="-819.2" x2="819.2">
      <stop offset="0.0" stop-color="#32b4b3"/>
      <stop offset="1.0" stop-color="#2c8584"/>
    </linearGradient>
    <g id="shape4" transform="matrix(1.0, 0.0, 0.0, 1.0, 3.5, 3.5)">
      <path d="M33.8 1.9 L18.4 26.45 9.3 25.9 9.25 25.3 9.85 23.65 0.0 0.85 0.45 0.45 10.75 0.0 11.05 0.1 15.0 12.45 20.25 1.15 33.45 1.15 Q34.15 1.35 33.8 1.9 Z" fill="none" stroke="#000000" stroke-linecap="round" stroke-linejoin="round" stroke-width="7.0"/>
      <path d="M33.45 1.7 L33.4 1.75 33.45 1.7" fill="#fff8b9" fill-rule="evenodd" stroke="none"/>
      <path d="M33.45 1.7 L33.5 1.7 33.45 1.7" fill="#ffcc00" fill-rule="evenodd" stroke="none"/>
      <path d="M9.55 25.5 L10.4 23.65 0.45 0.95 10.75 0.5 9.9 1.7 2.4 2.45 10.8 22.8 14.45 14.8 14.9 13.8 20.5 1.5 33.45 1.7 33.4 1.75 30.85 2.85 21.4 2.45 10.85 24.55 9.55 25.5 M10.4 23.65 L10.8 22.8 10.4 23.65" fill="#8debe3" fill-rule="evenodd" stroke="none"/>
      <path d="M30.85 2.85 L17.45 24.35 10.85 24.55 21.4 2.45 30.85 2.85 M14.45 14.8 L10.8 22.8 2.4 2.45 9.9 1.7 14.45 14.8" fill="url(#gradient4)" fill-rule="evenodd" stroke="none"/>
      <path d="M33.4 1.75 L17.9 26.15 9.55 25.5 10.85 24.55 17.45 24.35 30.85 2.85 33.4 1.75 M10.75 0.5 L14.9 13.8 14.45 14.8 9.9 1.7 10.75 0.5" fill="#226666" fill-rule="evenodd" stroke="none"/>
      <path d="M33.4 1.75 L17.9 26.15 9.55 25.5 10.4 23.65 0.45 0.95 10.75 0.5 14.9 13.8 20.5 1.5 33.45 1.7 M14.9 13.8 L14.45 14.8 10.8 22.8 10.4 23.65" fill="none" stroke="#1a4d4d" stroke-linecap="round" stroke-linejoin="round" stroke-width="1.0"/>
    </g>
    <linearGradient gradientTransform="matrix(0.0084, 0.0145, -0.0112, 0.0064, 3.9, 17.35)" gradientUnits="userSpaceOnUse" id="gradient4" spreadMethod="pad" x1="-819.2" x2="819.2">
      <stop offset="0.0" stop-color="#32b4b3"/>
      <stop offset="1.0" stop-color="#2c8584"/>
    </linearGradient>
    <g id="shape5" transform="matrix(1.0, 0.0, 0.0, 1.0, 3.5, 3.5)">
      <path d="M9.85 26.4 L31.85 15.7 33.85 29.95 8.15 36.45 7.95 37.6 0.0 39.65 2.5 0.0 13.7 2.9 9.85 26.4 Z" fill="none" stroke="#000000" stroke-linecap="round" stroke-linejoin="round" stroke-width="7.0"/>
      <path d="M13.7 2.95 L12.3 3.6 3.55 1.45 1.05 38.35 0.0 39.65 2.5 0.0 13.7 2.9 13.7 2.95 M31.85 15.7 L30.9 17.25 9.7 27.15 9.85 26.4 31.85 15.7" fill="#8debe3" fill-rule="evenodd" stroke="none"/>
      <path d="M12.3 3.6 L13.7 2.95 9.85 26.4 9.7 27.15 8.3 35.65 31.8 29.0 30.9 17.25 31.85 15.7 33.85 29.95 8.15 36.45 7.95 37.6 7.95 37.65 0.8 39.45 0.75 39.5 0.0 39.65 1.05 38.35 7.25 36.75 12.3 3.6 M8.15 36.45 L8.3 35.65 8.15 36.45" fill="#226666" fill-rule="evenodd" stroke="none"/>
      <path d="M1.05 38.35 L3.55 1.45 12.3 3.6 7.25 36.75 1.05 38.35 M9.7 27.15 L30.9 17.25 31.8 29.0 8.3 35.65 9.7 27.15" fill="url(#gradient5)" fill-rule="evenodd" stroke="none"/>
      <path d="M13.7 2.95 L13.7 2.9 2.5 0.0 0.0 39.65 M31.85 15.7 L9.85 26.4 9.7 27.15 8.3 35.65 8.15 36.45 33.85 29.95 31.85 15.7 M8.15 36.45 L7.95 37.6 7.95 37.65 0.8 39.45 0.75 39.5 0.0 39.65 M13.7 2.95 L9.85 26.4" fill="none" stroke="#1a4d4d" stroke-linecap="round" stroke-linejoin="round" stroke-width="1.0"/>
    </g>
    <linearGradient gradientTransform="matrix(0.0115, 0.0199, -0.0112, 0.0064, 1.95, 24.65)" gradientUnits="userSpaceOnUse" id="gradient5" spreadMethod="pad" x1="-819.2" x2="819.2">
      <stop offset="0.0" stop-color="#32b4b3"/>
      <stop offset="1.0" stop-color="#2c8584"/>
    </linearGradient>
    <g id="shape6" transform="matrix(1.0, 0.0, 0.0, 1.0, 32.05, 37.8)">
      <path d="M23.1 -29.75 L23.15 -29.65 Q31.95 -21.55 32.15 -8.95 L32.15 -8.6 Q32.05 -5.0 31.1 -1.0 L31.05 -0.75 Q29.95 2.95 28.15 6.95 L28.1 7.05 25.45 12.5 25.3 12.65 21.7 17.8 21.65 17.85 8.35 35.2 Q7.35 36.45 5.95 37.2 4.5 37.85 2.9 37.85 L-14.7 37.85 Q-17.4 37.85 -19.35 36.0 -21.4 34.1 -21.55 31.4 -21.7 28.7 -19.95 26.6 L-13.15 18.45 Q-19.9 16.65 -24.7 11.55 -32.2 3.9 -32.05 -8.35 L-32.05 -8.45 Q-32.2 -22.0 -22.45 -29.95 L-22.4 -30.0 Q-13.6 -37.8 1.45 -37.8 14.5 -37.8 23.1 -29.75 M0.4 -17.45 Q3.95 -17.5 6.45 -15.0 8.9 -12.55 8.9 -8.95 8.9 -5.45 6.45 -2.8 L6.4 -2.8 Q3.95 -0.35 0.35 -0.3 -3.15 -0.35 -5.65 -2.8 L-5.65 -2.85 Q-8.15 -5.45 -8.2 -8.95 L-8.2 -9.0 Q-8.15 -12.55 -5.65 -15.0 -3.15 -17.5 0.35 -17.45 L0.4 -17.45 M-15.7 31.7 L-15.55 31.85 -15.5 31.9 Q-15.15 32.2 -14.7 32.2 L2.9 32.2 3.45 32.1 3.9 31.75 17.3 14.45 17.3 14.4 20.55 9.65 23.05 4.75 23.05 4.8 Q24.7 1.1 25.6 -2.3 L25.6 -2.35 Q26.5 -5.8 26.5 -8.95 26.5 -19.05 19.3 -25.6 12.2 -32.2 1.35 -32.2 -11.3 -32.2 -18.85 -25.75 -26.55 -19.35 -26.5 -8.5 -26.55 1.45 -20.6 7.65 L-20.6 7.7 Q-14.65 13.85 -5.15 13.85 L-4.5 13.85 -3.7 13.8 -1.6 13.45 -15.65 30.15 -15.95 30.95 -15.95 31.05 -15.95 31.1 -15.7 31.7" fill="#000000" fill-rule="evenodd" stroke="none"/>
      <path d="M0.4 -17.45 L0.35 -17.45 Q-3.15 -17.5 -5.65 -15.0 -8.15 -12.55 -8.2 -9.0 L-8.2 -8.95 Q-8.15 -5.45 -5.65 -2.85 L-5.65 -2.8 Q-3.15 -0.35 0.35 -0.3 3.95 -0.35 6.4 -2.8 L6.45 -2.8 Q8.9 -5.45 8.9 -8.95 8.9 -12.55 6.45 -15.0 3.95 -17.5 0.4 -17.45 M0.35 -19.95 L0.4 -19.95 Q4.95 -20.0 8.2 -16.75 11.4 -13.55 11.4 -8.95 11.4 -4.45 8.2 -1.1 L8.2 -1.05 Q5.0 2.15 0.4 2.2 L0.35 2.2 Q-4.15 2.15 -7.4 -1.05 L-7.45 -1.05 Q-10.65 -4.4 -10.7 -8.9 L-10.7 -9.0 Q-10.65 -13.6 -7.4 -16.75 L-7.4 -16.8 Q-4.15 -20.0 0.35 -19.95" fill="url(#gradient6)" fill-rule="evenodd" stroke="none"/>
      <path d="M0.35 -19.95 Q-4.15 -20.0 -7.4 -16.8 L-7.4 -16.75 Q-10.65 -13.6 -10.7 -9.0 L-10.7 -8.9 Q-10.65 -4.4 -7.45 -1.05 L-7.4 -1.05 Q-4.15 2.15 0.35 2.2 L0.4 2.2 Q5.0 2.15 8.2 -1.05 L8.2 -1.1 Q11.4 -4.45 11.4 -8.95 11.4 -13.55 8.2 -16.75 4.95 -20.0 0.4 -19.95 L0.35 -19.95 M1.3 9.75 L-1.45 10.8 -1.5 10.8 -4.0 11.3 -4.05 11.35 -4.5 11.35 -5.15 11.35 Q-13.55 11.35 -18.8 5.95 -24.05 0.35 -24.0 -8.5 -24.05 -18.15 -17.25 -23.85 -10.3 -29.7 1.35 -29.7 11.2 -29.7 17.6 -23.75 24.0 -17.95 24.0 -8.95 24.0 -6.1 23.2 -2.95 22.3 0.3 20.75 3.75 L18.4 8.35 15.3 12.9 2.3 29.7 -12.0 29.7 3.25 11.55 3.45 11.25 3.55 11.1 3.6 10.55 3.5 10.15 3.4 9.95 3.3 9.85 3.15 9.7 2.85 9.5 2.8 9.5 2.25 9.4 2.15 9.45 1.7 9.6 1.3 9.75" fill="url(#gradient7)" fill-rule="evenodd" stroke="none"/>
      <path d="M-12.0 29.7 L2.3 29.7 15.3 12.9 18.4 8.35 20.75 3.75 Q22.3 0.3 23.2 -2.95 24.0 -6.1 24.0 -8.95 24.0 -17.95 17.6 -23.75 11.2 -29.7 1.35 -29.7 -10.3 -29.7 -17.25 -23.85 -24.05 -18.15 -24.0 -8.5 -24.05 0.35 -18.8 5.95 -13.55 11.35 -5.15 11.35 L-4.5 11.35 -4.05 11.35 -4.0 11.3 -1.5 10.8 -1.45 10.8 1.3 9.75 1.4 9.85 1.7 9.6 2.15 9.45 2.25 9.4 2.8 9.5 2.85 9.5 3.15 9.7 3.3 9.85 3.4 9.95 -1.6 13.45 -3.7 13.8 -4.5 13.85 -5.15 13.85 Q-14.65 13.85 -20.6 7.7 L-20.6 7.65 Q-26.55 1.45 -26.5 -8.5 -26.55 -19.35 -18.85 -25.75 -11.3 -32.2 1.35 -32.2 12.2 -32.2 19.3 -25.6 26.5 -19.05 26.5 -8.95 26.5 -5.8 25.6 -2.35 L25.6 -2.3 Q24.7 1.1 23.05 4.8 L23.05 4.75 20.55 9.65 17.3 14.4 17.3 14.45 3.9 31.75 3.45 32.1 2.9 32.2 -14.7 32.2 Q-15.15 32.2 -15.5 31.9 L-15.55 31.85 -15.7 31.7 -12.05 29.75 -12.0 29.7" fill="url(#gradient8)" fill-rule="evenodd" stroke="none"/>
      <path d="M-12.0 29.7 L-12.05 29.75 -12.0 29.7 M1.7 9.6 L1.4 9.85 1.3 9.75 1.7 9.6 M3.25 11.55 L3.3 11.45 3.45 11.25 3.25 11.55" fill="#809c27" fill-rule="evenodd" stroke="none"/>
      <path d="M-12.05 29.75 L-15.7 31.7 -15.95 31.1 -15.95 31.05 -15.95 30.95 -15.65 30.15 -1.6 13.45 3.4 9.95 3.5 10.15 3.6 10.55 3.55 11.1 3.45 11.25 3.3 11.45 3.25 11.55 -12.0 29.7 -12.05 29.75" fill="#dcf19a" fill-rule="evenodd" stroke="none"/>
    </g>
    <linearGradient gradientTransform="matrix(-0.0022, -0.0022, 0.0096, -0.0096, 0.35, -8.9)" gradientUnits="userSpaceOnUse" id="gradient6" spreadMethod="pad" x1="-819.2" x2="819.2">
      <stop offset="0.0" stop-color="#dcf19a"/>
      <stop offset="1.0" stop-color="#809c27"/>
    </linearGradient>
    <linearGradient gradientTransform="matrix(0.0176, 0.0306, -0.0327, 0.0189, 0.05, 0.0)" gradientUnits="userSpaceOnUse" id="gradient7" spreadMethod="pad" x1="-819.2" x2="819.2">
      <stop offset="0.0" stop-color="#c6e21d"/>
      <stop offset="1.0" stop-color="#99cc33"/>
    </linearGradient>
    <linearGradient gradientTransform="matrix(0.0032, 0.0031, -0.0288, 0.0289, 11.45, -19.05)" gradientUnits="userSpaceOnUse" id="gradient8" spreadMethod="pad" x1="-819.2" x2="819.2">
      <stop offset="0.0" stop-color="#dcf19a"/>
      <stop offset="1.0" stop-color="#809c27"/>
    </linearGradient>
    <g id="shape7" transform="matrix(1.0, 0.0, 0.0, 1.0, 18.85, 36.65)">
      <path d="M-12.85 -15.75 Q-13.25 -16.15 -13.25 -16.65 L-13.25 -29.85 Q-13.25 -30.35 -12.85 -30.7 -12.5 -31.1 -12.0 -31.1 L12.0 -31.1 Q12.5 -31.1 12.9 -30.7 L10.75 -28.6 -10.75 -28.6 -10.75 -17.9 -12.85 -15.75 M-4.25 30.8 L-4.35 30.7 Q-4.75 30.3 -4.75 29.8 L-4.75 -15.4 -2.6 -17.5 Q-2.25 -17.15 -2.25 -16.65 L-2.25 28.55 -4.25 30.8" fill="#dcf19a" fill-rule="evenodd" stroke="none"/>
      <path d="M-12.85 -15.75 L-10.75 -17.9 -3.5 -17.9 Q-3.0 -17.9 -2.6 -17.5 L-4.75 -15.4 -12.0 -15.4 Q-12.5 -15.4 -12.85 -15.75 M10.75 -28.6 L12.9 -30.7 13.25 -29.85 13.25 29.8 Q13.25 30.3 12.9 30.7 12.5 31.05 12.0 31.05 L-3.5 31.05 -4.25 30.8 -2.25 28.55 10.75 28.55 10.75 -28.6" fill="#809c27" fill-rule="evenodd" stroke="none"/>
      <path d="M-10.75 -17.9 L-10.75 -28.6 10.75 -28.6 10.75 28.55 -2.25 28.55 -2.25 -16.65 Q-2.25 -17.15 -2.6 -17.5 -3.0 -17.9 -3.5 -17.9 L-10.75 -17.9" fill="url(#gradient9)" fill-rule="evenodd" stroke="none"/>
      <path d="M12.0 -36.65 Q14.8 -36.65 16.85 -34.65 18.85 -32.65 18.85 -29.8 L18.85 29.85 Q18.85 32.7 16.85 34.7 14.8 36.7 12.0 36.7 L-3.45 36.7 Q-6.3 36.7 -8.3 34.7 -10.35 32.7 -10.3 29.85 L-10.3 -9.8 -12.0 -9.8 Q-14.85 -9.8 -16.85 -11.8 -18.9 -13.8 -18.85 -16.65 L-18.85 -29.8 Q-18.9 -32.65 -16.85 -34.65 -14.85 -36.65 -12.0 -36.65 L12.0 -36.65 M12.9 -30.7 Q12.5 -31.1 12.0 -31.1 L-12.0 -31.1 Q-12.5 -31.1 -12.85 -30.7 -13.25 -30.35 -13.25 -29.85 L-13.25 -16.65 Q-13.25 -16.15 -12.85 -15.75 -12.5 -15.4 -12.0 -15.4 L-4.75 -15.4 -4.75 29.8 Q-4.75 30.3 -4.35 30.7 L-4.25 30.8 -3.5 31.05 12.0 31.05 Q12.5 31.05 12.9 30.7 13.25 30.3 13.25 29.8 L13.25 -29.85 12.9 -30.7" fill="#000000" fill-rule="evenodd" stroke="none"/>
    </g>
    <linearGradient gradientTransform="matrix(0.0167, 0.0289, -0.0315, 0.0182, 0.1, 0.0)" gradientUnits="userSpaceOnUse" id="gradient9" spreadMethod="pad" x1="-819.2" x2="819.2">
      <stop offset="0.0" stop-color="#c6e21d"/>
      <stop offset="1.0" stop-color="#99cc33"/>
    </linearGradient>
  </defs>
</svg>
