<?xml version="1.0" encoding="UTF-8" standalone="no"?>
<svg xmlns:xlink="http://www.w3.org/1999/xlink" height="149.65px" width="326.7px" xmlns="http://www.w3.org/2000/svg">
  <g transform="matrix(1.0, 0.0, 0.0, 1.0, 197.25, 104.15)">
    <use height="47.95" transform="matrix(1.0, 0.0, 0.0, 1.0, -100.9, -23.95)" width="39.75" xlink:href="#shape0"/>
    <use height="9.0" transform="matrix(0.4297, -0.4297, 0.4297, 0.4297, -94.2598, -12.2574)" width="8.5" xlink:href="#shape1"/>
    <use height="9.0" transform="matrix(0.0983, 0.3669, -0.3669, 0.0983, -85.9671, -0.7517)" width="8.5" xlink:href="#shape1"/>
    <use height="9.0" transform="matrix(-0.5136, -0.1376, 0.1376, -0.5136, -85.6366, 16.0461)" width="8.5" xlink:href="#shape1"/>
    <use height="36.85" transform="matrix(1.0, 0.0, 0.0, 1.0, -54.8, -20.95)" width="32.1" xlink:href="#shape2"/>
    <use height="9.0" transform="matrix(0.2578, 0.2578, -0.2578, 0.2578, -42.6355, -14.7059)" width="8.5" xlink:href="#shape1"/>
    <use height="9.0" transform="matrix(-0.1823, 0.3158, -0.3157, -0.1823, -40.2045, -3.7717)" width="8.5" xlink:href="#shape1"/>
    <use height="9.0" transform="matrix(0.4834, -0.4834, 0.4834, 0.4834, -49.4297, 5.1292)" width="8.5" xlink:href="#shape1"/>
    <use height="74.25" transform="matrix(1.0, 0.0, 0.0, 1.0, -128.75, -37.1)" width="49.8" xlink:href="#shape3"/>
    <use height="9.0" transform="matrix(0.8057, 0.8057, -0.8057, 0.8057, -115.7986, 15.0004)" width="8.5" xlink:href="#shape1"/>
    <use height="33.45" transform="matrix(1.0, 0.0, 0.0, 1.0, -77.4, -1.75)" width="40.9" xlink:href="#shape4"/>
    <use height="9.0" transform="matrix(-0.1573, 0.587, -0.587, -0.1573, -55.3903, 21.563)" width="8.5" xlink:href="#shape1"/>
    <use height="46.65" transform="matrix(1.0, 0.0, 0.0, 1.0, -32.6, -20.95)" width="40.85" xlink:href="#shape5"/>
    <use height="9.0" transform="matrix(0.587, -0.1573, 0.1573, 0.587, -27.4024, 12.877)" width="8.5" xlink:href="#shape1"/>
    <use height="74.5" transform="matrix(1.0, 0.0, 0.0, 1.0, 7.35, -37.25)" width="122.1" xlink:href="#shape6"/>
  </g>
  <defs>
    <g id="shape0" transform="matrix(1.0, 0.0, 0.0, 1.0, 3.1, 3.0)">
      <path d="M30.05 0.5 L2.55 4.65 2.6 5.25 0.4 5.55 3.8 37.75 7.0 38.1 7.05 39.0 30.7 41.45 33.15 30.4 13.95 29.25 13.9 25.5 30.35 24.75 30.6 15.6 13.7 17.7 13.6 13.65 31.0 12.15 30.05 0.5 Z" fill="none" stroke="#000000" stroke-linecap="round" stroke-linejoin="round" stroke-width="7.0"/>
      <path d="M13.95 25.5 L13.95 29.25 13.85 25.5 13.95 25.5" fill="#f0a200" fill-rule="evenodd" stroke="none"/>
      <path d="M13.7 16.8 L13.7 17.75 13.7 16.8" fill="#ffcc00" fill-rule="evenodd" stroke="none"/>
      <path d="M3.85 37.75 L3.8 37.75 0.4 5.55 2.6 5.25 2.55 4.65 30.05 0.5 28.6 1.95 3.6 5.45 4.15 13.2 2.85 14.55 2.6 6.0 1.2 6.2 4.85 36.4 3.85 37.75 M13.7 17.75 L30.6 15.6 30.6 15.65 29.05 16.95 13.7 18.5 13.7 17.75 M13.95 29.25 L33.1 30.4 31.05 31.5 7.8 29.9 8.45 37.65 7.05 39.0 7.05 38.1 7.0 36.55 6.75 28.85 13.2 29.25 13.95 29.25 M2.6 5.25 L2.6 6.0 2.6 5.25" fill="#8debe3" fill-rule="evenodd" stroke="none"/>
      <path d="M4.85 36.4 L1.2 6.2 2.6 6.0 2.85 14.55 12.8 13.7 13.2 29.25 6.75 28.85 7.0 36.55 4.85 36.4 M4.15 13.2 L3.6 5.45 28.6 1.95 29.35 11.0 4.15 13.2 M29.05 16.95 L29.05 23.65 13.85 24.75 13.7 18.5 29.05 16.95 M8.45 37.65 L7.8 29.9 31.05 31.5 29.55 39.85 8.45 37.65" fill="url(#gradient0)" fill-rule="evenodd" stroke="none"/>
      <path d="M30.05 0.5 L31.0 12.15 13.55 13.65 13.7 16.8 13.7 17.75 13.7 18.5 13.85 24.75 29.05 23.65 29.05 16.95 30.6 15.65 30.35 24.75 13.95 25.5 13.85 25.5 13.85 24.75 13.85 25.5 13.95 29.25 13.2 29.25 12.8 13.7 2.85 14.55 4.15 13.2 29.35 11.0 28.6 1.95 30.05 0.5 M33.1 30.4 L30.7 41.45 7.05 39.0 8.45 37.65 29.55 39.85 31.05 31.5 33.1 30.4 M7.05 38.1 L3.85 37.75 4.85 36.4 7.0 36.55 7.05 38.1 M13.55 13.65 L12.8 13.7 13.55 13.65" fill="#226666" fill-rule="evenodd" stroke="none"/>
      <path d="M3.85 37.75 L3.8 37.75 0.4 5.55 2.6 5.25 2.55 4.65 30.05 0.5 31.0 12.15 13.55 13.65 13.7 16.8 M13.7 17.75 L30.6 15.6 30.6 15.65 30.35 24.75 13.95 25.5 M13.95 29.25 L33.1 30.4 30.7 41.45 7.05 39.0 7.05 38.1 3.85 37.75 M2.6 6.0 L2.6 5.25 M2.6 6.0 L2.85 14.55 12.8 13.7 13.55 13.65 M13.85 24.75 L13.85 25.5 M13.7 18.5 L13.7 17.75 13.7 16.8 M13.2 29.25 L13.95 29.25 13.85 25.5 M7.0 36.55 L6.75 28.85 13.2 29.25 M13.85 24.75 L13.7 18.5 M7.0 36.55 L7.05 38.1" fill="none" stroke="#1a4d4d" stroke-linecap="round" stroke-linejoin="round" stroke-width="1.0"/>
    </g>
    <linearGradient gradientTransform="matrix(0.019, 0.019, -0.0049, 0.0049, 25.9, 11.5)" gradientUnits="userSpaceOnUse" id="gradient0" spreadMethod="pad" x1="-819.2" x2="819.2">
      <stop offset="0.0" stop-color="#32b4b3"/>
      <stop offset="1.0" stop-color="#2c8584"/>
    </linearGradient>
    <g id="shape1" transform="matrix(1.0, 0.0, 0.0, 1.0, 4.25, 4.5)">
      <path d="M0.0 -4.0 Q1.65 -4.0 2.8 -2.85 4.0 -1.65 4.0 0.0 4.0 1.65 2.8 2.8 1.65 4.0 0.0 4.0 L0.0 -4.0 0.0 4.0 Q-1.65 4.0 -2.85 2.8 -4.0 1.65 -4.0 0.0 -4.0 -1.65 -2.85 -2.85 -1.65 -4.0 0.0 -4.0" fill="url(#gradient1)" fill-rule="evenodd" stroke="none"/>
      <path d="M0.0 4.0 Q1.65 4.0 2.8 2.8 4.0 1.65 4.0 0.0 4.0 -1.65 2.8 -2.85 1.65 -4.0 0.0 -4.0 M0.0 4.0 Q-1.65 4.0 -2.85 2.8 -4.0 1.65 -4.0 0.0 -4.0 -1.65 -2.85 -2.85 -1.65 -4.0 0.0 -4.0" fill="none" stroke="#1a4d4d" stroke-linecap="round" stroke-linejoin="round" stroke-width="0.5"/>
      <path d="M0.0 -4.0 L0.0 4.0 Z" fill="none" stroke="#0e2c2c" stroke-linecap="round" stroke-linejoin="round" stroke-width="1.0"/>
    </g>
    <radialGradient cx="0" cy="0" gradientTransform="matrix(0.0042, 0.0, 0.0, 0.0042, 0.0, 0.0)" gradientUnits="userSpaceOnUse" id="gradient1" r="819.2" spreadMethod="pad">
      <stop offset="0.0" stop-color="#8debe3"/>
      <stop offset="1.0" stop-color="#267574"/>
    </radialGradient>
    <g id="shape2" transform="matrix(1.0, 0.0, 0.0, 1.0, 16.05, 18.45)">
      <path d="M12.55 -14.5 L11.5 -6.75 11.4 -6.45 -0.95 -5.5 -1.2 -4.0 8.05 -3.9 7.15 2.95 -2.25 2.5 -2.45 3.85 9.3 5.2 9.15 14.9 -3.9 12.35 -4.1 13.15 -12.55 11.35 -9.35 -13.05 -6.3 -13.3 -6.0 -14.1 12.45 -14.95 12.55 -14.5 Z" fill="none" stroke="#000000" stroke-linecap="round" stroke-linejoin="round" stroke-width="7.0"/>
      <path d="M-10.45 10.45 L-10.4 10.45 -5.0 11.6 -5.1 11.9 -10.5 10.65 -10.45 10.45" fill="#ffcc00" fill-rule="evenodd" stroke="none"/>
      <path d="M-5.8 -13.2 L-5.7 -13.75 12.2 -14.55 10.85 -13.5 -5.1 -13.05 -6.0 -6.75 -7.2 -5.6 -6.05 -12.1 -5.8 -13.2 -6.05 -12.1 -8.1 -11.65 -11.3 10.5 -12.15 11.05 -9.0 -12.7 -5.85 -12.85 -5.8 -13.2 M-1.8 -3.5 L7.75 -3.5 6.55 -2.75 -4.45 -2.75 -5.2 1.05 -6.05 1.75 -5.1 -3.5 -2.55 -3.5 -1.8 -3.5 M-3.05 4.25 L-2.9 4.3 9.0 5.65 7.6 6.65 -8.55 4.35 -9.35 9.7 -10.4 10.45 -10.45 10.45 -9.2 3.55 -3.8 4.2 -3.05 4.25" fill="#8debe3" fill-rule="evenodd" stroke="none"/>
      <path d="M-6.05 -12.1 L-7.2 -5.6 -2.2 -5.9 -2.55 -3.5 -5.1 -3.5 -6.05 1.75 -3.45 1.9 -3.8 4.2 -9.2 3.55 -10.45 10.45 -10.5 10.65 -11.3 10.5 -8.1 -11.65 -6.05 -12.1 M-6.0 -6.75 L-5.1 -13.05 10.85 -13.5 10.0 -7.8 -6.0 -6.75 M-5.2 1.05 L-4.45 -2.75 6.55 -2.75 5.95 1.4 -5.2 1.05 M-9.35 9.7 L-8.55 4.35 7.6 6.65 7.6 13.05 -9.35 9.7" fill="url(#gradient2)" fill-rule="evenodd" stroke="none"/>
      <path d="M-7.2 -5.6 L-6.0 -6.75 10.0 -7.8 10.85 -13.5 12.2 -14.55 11.05 -6.85 -1.45 -6.0 -1.8 -3.5 -2.55 -3.5 -2.2 -5.9 -1.45 -6.0 -2.2 -5.9 -7.2 -5.6 M7.75 -3.5 L6.8 2.55 -2.45 2.0 -2.7 2.0 -3.05 4.25 -3.8 4.2 -3.45 1.9 -2.7 2.0 -3.45 1.9 -6.05 1.75 -5.2 1.05 5.95 1.4 6.55 -2.75 7.75 -3.5 M9.0 5.65 L8.75 14.6 -4.3 11.75 -4.45 12.8 -12.15 11.05 -11.3 10.5 -10.5 10.65 -5.1 11.9 -5.0 11.6 -10.4 10.45 -9.35 9.7 7.6 13.05 7.6 6.65 9.0 5.65 M-4.3 11.75 L-5.0 11.6 -4.3 11.75" fill="#226666" fill-rule="evenodd" stroke="none"/>
      <path d="M12.2 -14.55 L-5.7 -13.75 -5.8 -13.2 -6.05 -12.1 -7.2 -5.6 M12.2 -14.55 L11.05 -6.85 -1.45 -6.0 -1.8 -3.5 7.75 -3.5 6.8 2.55 -2.45 2.0 M-2.7 2.0 L-3.05 4.25 -2.9 4.3 9.0 5.65 8.75 14.6 -4.3 11.75 -4.45 12.8 -12.15 11.05 -9.0 -12.7 -5.85 -12.85 M-1.45 -6.0 L-2.2 -5.9 -7.2 -5.6 M-2.55 -3.5 L-1.8 -3.5 M-2.55 -3.5 L-5.1 -3.5 -6.05 1.75 M-3.8 4.2 L-3.05 4.25 M-3.8 4.2 L-9.2 3.55 -10.45 10.45 -10.4 10.45 M-2.7 2.0 L-3.45 1.9 -6.05 1.75 M-5.0 11.6 L-10.4 10.45 M-5.0 11.6 L-4.3 11.75" fill="none" stroke="#1a4d4d" stroke-linecap="round" stroke-linejoin="round" stroke-width="1.0"/>
    </g>
    <linearGradient gradientTransform="matrix(0.0084, 0.0146, -0.0112, 0.0064, -16.95, 11.2)" gradientUnits="userSpaceOnUse" id="gradient2" spreadMethod="pad" x1="-819.2" x2="819.2">
      <stop offset="0.0" stop-color="#32b4b3"/>
      <stop offset="1.0" stop-color="#2c8584"/>
    </linearGradient>
    <g id="shape3" transform="matrix(1.0, 0.0, 0.0, 1.0, 3.35, 3.35)">
      <path d="M26.25 5.8 L24.9 6.75 4.2 2.35 2.85 48.05 3.4 1.1 26.25 5.8" fill="#8debe3" fill-rule="evenodd" stroke="none"/>
      <path d="M24.9 6.75 L26.25 5.8 17.3 48.35 24.9 6.75" fill="#226666" fill-rule="evenodd" stroke="none"/>
      <path d="M0.7 48.0 L1.85 48.05 2.55 0.15 27.35 5.15 18.6 48.35 42.95 48.9 40.15 67.4 0.15 62.45 0.15 48.5" fill="none" stroke="#000000" stroke-linecap="round" stroke-linejoin="round" stroke-width="7.0"/>
      <path d="M17.95 48.85 L42.65 49.3 42.65 49.35 41.1 50.95 1.95 50.0 1.95 60.95 0.5 62.1 0.65 48.5 2.35 48.55 2.9 0.5 26.9 5.4 24.85 6.7 4.15 2.35 3.1 48.55 17.2 48.8 17.95 48.85 M2.35 48.55 L3.1 48.55 2.35 48.55" fill="#8debe3" fill-rule="evenodd" stroke="none"/>
      <path d="M17.2 48.8 L3.1 48.55 4.15 2.35 24.85 6.7 17.2 48.8 M41.1 50.95 L38.25 65.45 1.95 60.95 1.95 50.0 41.1 50.95" fill="url(#gradient3)" fill-rule="evenodd" stroke="none"/>
      <path d="M42.65 49.35 L39.85 67.0 0.5 62.1 1.95 60.95 38.25 65.45 41.1 50.95 42.65 49.35 M26.9 5.4 L17.95 48.85 17.2 48.8 24.85 6.7 26.9 5.4" fill="#226666" fill-rule="evenodd" stroke="none"/>
      <path d="M17.95 48.85 L42.65 49.3 42.65 49.35 39.85 67.0 0.5 62.1 0.65 48.5 2.35 48.55 2.9 0.5 26.9 5.4 17.95 48.85 17.2 48.8 3.1 48.55 2.35 48.55" fill="none" stroke="#1a4d4d" stroke-linecap="round" stroke-linejoin="round" stroke-width="1.0"/>
    </g>
    <linearGradient gradientTransform="matrix(0.0287, 0.0287, -0.5371, 0.5371, 94.35, -39.75)" gradientUnits="userSpaceOnUse" id="gradient3" spreadMethod="pad" x1="-819.2" x2="819.2">
      <stop offset="0.0" stop-color="#32b4b3"/>
      <stop offset="1.0" stop-color="#2c8584"/>
    </linearGradient>
    <g id="shape4" transform="matrix(1.0, 0.0, 0.0, 1.0, 3.5, 3.5)">
      <path d="M33.8 1.9 L18.4 26.45 9.3 25.9 9.25 25.3 9.85 23.65 0.0 0.85 0.45 0.45 10.75 0.0 11.05 0.1 15.0 12.45 20.25 1.15 33.45 1.15 Q34.15 1.35 33.8 1.9 Z" fill="none" stroke="#000000" stroke-linecap="round" stroke-linejoin="round" stroke-width="7.0"/>
      <path d="M33.45 1.7 L33.4 1.75 33.45 1.7" fill="#fff8b9" fill-rule="evenodd" stroke="none"/>
      <path d="M33.45 1.7 L33.5 1.7 33.45 1.7" fill="#ffcc00" fill-rule="evenodd" stroke="none"/>
      <path d="M9.55 25.5 L10.4 23.65 0.45 0.95 10.75 0.5 9.9 1.7 2.4 2.45 10.8 22.8 14.45 14.8 14.9 13.8 20.5 1.5 33.45 1.7 33.4 1.75 30.85 2.85 21.4 2.45 10.85 24.55 9.55 25.5 M10.4 23.65 L10.8 22.8 10.4 23.65" fill="#8debe3" fill-rule="evenodd" stroke="none"/>
      <path d="M30.85 2.85 L17.45 24.35 10.85 24.55 21.4 2.45 30.85 2.85 M14.45 14.8 L10.8 22.8 2.4 2.45 9.9 1.7 14.45 14.8" fill="url(#gradient4)" fill-rule="evenodd" stroke="none"/>
      <path d="M33.4 1.75 L17.9 26.15 9.55 25.5 10.85 24.55 17.45 24.35 30.85 2.85 33.4 1.75 M10.75 0.5 L14.9 13.8 14.45 14.8 9.9 1.7 10.75 0.5" fill="#226666" fill-rule="evenodd" stroke="none"/>
      <path d="M33.4 1.75 L17.9 26.15 9.55 25.5 10.4 23.65 0.45 0.95 10.75 0.5 14.9 13.8 20.5 1.5 33.45 1.7 M14.9 13.8 L14.45 14.8 10.8 22.8 10.4 23.65" fill="none" stroke="#1a4d4d" stroke-linecap="round" stroke-linejoin="round" stroke-width="1.0"/>
    </g>
    <linearGradient gradientTransform="matrix(0.0084, 0.0145, -0.0112, 0.0064, 3.9, 17.35)" gradientUnits="userSpaceOnUse" id="gradient4" spreadMethod="pad" x1="-819.2" x2="819.2">
      <stop offset="0.0" stop-color="#32b4b3"/>
      <stop offset="1.0" stop-color="#2c8584"/>
    </linearGradient>
    <g id="shape5" transform="matrix(1.0, 0.0, 0.0, 1.0, 3.5, 3.5)">
      <path d="M9.85 26.4 L31.85 15.7 33.85 29.95 8.15 36.45 7.95 37.6 0.0 39.65 2.5 0.0 13.7 2.9 9.85 26.4 Z" fill="none" stroke="#000000" stroke-linecap="round" stroke-linejoin="round" stroke-width="7.0"/>
      <path d="M13.7 2.95 L12.3 3.6 3.55 1.45 1.05 38.35 0.0 39.65 2.5 0.0 13.7 2.9 13.7 2.95 M31.85 15.7 L30.9 17.25 9.7 27.15 9.85 26.4 31.85 15.7" fill="#8debe3" fill-rule="evenodd" stroke="none"/>
      <path d="M12.3 3.6 L13.7 2.95 9.85 26.4 9.7 27.15 8.3 35.65 31.8 29.0 30.9 17.25 31.85 15.7 33.85 29.95 8.15 36.45 7.95 37.6 7.95 37.65 0.8 39.45 0.75 39.5 0.0 39.65 1.05 38.35 7.25 36.75 12.3 3.6 M8.15 36.45 L8.3 35.65 8.15 36.45" fill="#226666" fill-rule="evenodd" stroke="none"/>
      <path d="M1.05 38.35 L3.55 1.45 12.3 3.6 7.25 36.75 1.05 38.35 M9.7 27.15 L30.9 17.25 31.8 29.0 8.3 35.65 9.7 27.15" fill="url(#gradient5)" fill-rule="evenodd" stroke="none"/>
      <path d="M13.7 2.95 L13.7 2.9 2.5 0.0 0.0 39.65 M31.85 15.7 L9.85 26.4 9.7 27.15 8.3 35.65 8.15 36.45 33.85 29.95 31.85 15.7 M8.15 36.45 L7.95 37.6 7.95 37.65 0.8 39.45 0.75 39.5 0.0 39.65 M13.7 2.95 L9.85 26.4" fill="none" stroke="#1a4d4d" stroke-linecap="round" stroke-linejoin="round" stroke-width="1.0"/>
    </g>
    <linearGradient gradientTransform="matrix(0.0115, 0.0199, -0.0112, 0.0064, 1.95, 24.65)" gradientUnits="userSpaceOnUse" id="gradient5" spreadMethod="pad" x1="-819.2" x2="819.2">
      <stop offset="0.0" stop-color="#32b4b3"/>
      <stop offset="1.0" stop-color="#2c8584"/>
    </linearGradient>
    <g id="shape6" transform="matrix(1.0, 0.0, 0.0, 1.0, 61.05, 37.25)">
      <path d="M38.2 -16.4 L38.2 -11.55 38.2 -11.2 38.15 -11.4 31.65 -29.6 33.25 -31.9 33.8 -31.1 38.2 -16.4 M52.2 -29.6 L55.0 -31.7 55.35 -31.15 55.35 -30.2 45.25 -0.75 55.95 30.3 55.95 31.2 55.4 31.95 54.5 32.25 44.55 32.25 43.65 31.95 45.25 29.65 52.8 29.65 42.25 -0.25 Q42.05 -0.75 42.25 -1.25 L52.2 -29.6 M38.2 14.7 L33.1 31.2 32.55 31.95 31.65 32.25 21.7 32.25 21.35 32.2 21.15 32.15 20.55 32.25 10.95 32.25 Q10.4 32.25 10.0 31.9 L12.2 29.65 19.1 29.65 7.35 -29.6 9.0 -31.9 9.1 -31.85 9.65 -31.0 21.35 27.15 21.35 32.2 23.15 29.65 30.95 29.65 38.2 9.45 38.2 9.85 38.2 14.7 M7.35 20.15 L-2.2 20.15 -4.3 31.05 -4.85 31.9 Q-5.25 32.25 -5.8 32.25 L-15.4 32.25 -16.2 32.0 -16.35 31.9 -17.35 32.25 -25.55 32.25 -26.35 32.0 -24.45 29.65 -18.45 29.65 -18.45 -29.6 -16.3 -31.75 Q-15.85 -31.3 -15.85 -30.7 L-15.85 25.4 -16.35 31.9 -13.95 29.65 -6.65 29.65 -4.35 17.5 -4.4 17.5 -4.35 17.5 Q-3.95 17.15 -3.45 17.15 L8.55 17.15 Q9.1 17.15 9.5 17.5 L7.35 20.15 M-27.05 7.65 L-30.6 31.0 Q-30.7 31.55 -31.1 31.9 -31.55 32.25 -32.1 32.25 L-39.8 32.25 Q-40.35 32.25 -40.75 31.95 L-38.9 29.65 -32.95 29.65 -25.8 -15.35 -25.1 -15.45 -27.05 7.65 M-44.8 8.0 L-44.8 30.75 Q-44.8 31.35 -45.25 31.8 -45.7 32.25 -46.3 32.25 L-54.55 32.25 Q-55.1 32.25 -55.5 31.9 L-53.45 29.65 -47.4 29.65 -47.4 -15.25 -46.95 -15.4 -44.8 8.0 M-41.05 -31.65 L-40.7 -30.9 -35.95 0.75 -35.95 12.25 -36.8 11.95 -36.9 11.9 -36.85 11.85 -43.05 -29.6 -41.05 -31.65 M-2.3 6.3 L2.05 -16.85 2.6 -17.0 2.6 -7.2 0.55 3.75 -2.3 6.3" fill="#e37f00" fill-rule="evenodd" stroke="none"/>
      <path d="M55.0 -31.7 L54.8 -31.9 53.9 -32.2 44.05 -32.2 Q43.55 -32.2 43.15 -31.9 L42.6 -31.1 38.2 -16.4 33.8 -31.1 33.25 -31.9 32.35 -32.2 22.5 -32.2 Q22.0 -32.2 21.65 -31.9 L21.1 -31.15 Q20.9 -30.7 21.1 -30.2 L31.1 -0.75 21.35 27.15 9.65 -31.0 9.1 -31.85 9.0 -31.9 8.15 -32.2 -2.95 -32.2 Q-3.5 -32.2 -3.9 -31.85 L-4.4 -31.0 -15.85 25.4 -15.85 -30.7 Q-15.85 -31.3 -16.3 -31.75 -16.75 -32.2 -17.35 -32.2 L-29.7 -32.2 Q-30.25 -32.2 -30.65 -31.8 -31.1 -31.45 -31.15 -30.9 L-35.95 0.75 -40.7 -30.9 -41.05 -31.65 -41.2 -31.8 Q-41.65 -32.2 -42.2 -32.2 L-54.55 -32.2 Q-55.15 -32.2 -55.6 -31.75 L-56.05 -30.7 -56.05 30.75 -55.6 31.8 -55.5 31.9 Q-55.1 32.25 -54.55 32.25 L-46.3 32.25 Q-45.7 32.25 -45.25 31.8 -44.8 31.35 -44.8 30.75 L-44.8 8.0 -41.25 31.0 Q-41.2 31.55 -40.75 31.9 L-40.75 31.95 Q-40.35 32.25 -39.8 32.25 L-32.1 32.25 Q-31.55 32.25 -31.1 31.9 -30.7 31.55 -30.6 31.0 L-27.05 7.65 -27.05 30.75 -26.6 31.8 -26.35 32.0 -25.55 32.25 -17.35 32.25 -16.35 31.9 -16.2 32.0 -15.4 32.25 -5.8 32.25 Q-5.25 32.25 -4.85 31.9 L-4.3 31.05 -2.2 20.15 7.35 20.15 9.5 31.05 Q9.6 31.55 10.0 31.9 10.4 32.25 10.95 32.25 L20.55 32.25 21.15 32.15 21.35 32.2 21.7 32.25 31.65 32.25 32.55 31.95 33.1 31.2 38.2 14.7 43.15 31.2 Q43.25 31.65 43.65 31.95 L44.55 32.25 54.5 32.25 55.4 31.95 55.95 31.2 55.95 30.3 45.25 -0.75 55.35 -30.2 55.35 -31.15 55.0 -31.7 M56.9 -36.3 L58.95 -34.6 Q59.7 -33.75 60.25 -32.15 60.75 -30.55 60.1 -28.55 L50.55 -0.75 60.7 28.7 60.7 28.75 Q61.4 30.75 60.7 32.8 L60.55 33.25 Q59.85 34.75 58.65 35.75 L58.4 35.95 Q56.65 37.25 54.5 37.25 L44.55 37.25 Q42.4 37.25 40.65 35.95 38.75 34.55 38.3 32.4 L38.15 31.85 37.9 32.7 37.7 33.25 Q37.0 34.75 35.8 35.75 L35.55 35.95 Q33.8 37.25 31.65 37.25 L21.7 37.25 21.15 37.25 20.55 37.25 10.95 37.25 Q8.5 37.25 6.7 35.7 5.0 34.2 4.6 32.05 L3.4 25.8 1.8 25.8 0.6 32.0 0.5 32.5 Q-0.05 34.35 -1.55 35.7 -3.35 37.25 -5.8 37.25 L-15.4 37.25 -16.35 37.15 -17.35 37.25 -25.55 37.25 Q-27.5 37.25 -29.05 36.2 -30.35 37.25 -32.1 37.25 L-39.8 37.25 Q-41.5 37.25 -42.8 36.25 -44.4 37.3 -46.3 37.25 L-54.55 37.25 Q-57.0 37.25 -58.8 35.7 L-59.0 35.45 -59.1 35.35 Q-61.1 33.35 -61.05 30.75 L-61.05 -30.7 Q-61.1 -33.3 -59.1 -35.25 -57.15 -37.25 -54.55 -37.2 L-42.2 -37.2 -41.7 -37.15 Q-36.65 -37.8 -36.1 -32.9 L-35.9 -32.4 -35.75 -32.9 Q-34.85 -37.3 -29.7 -37.2 L-17.35 -37.2 Q-14.75 -37.25 -12.75 -35.25 -10.8 -33.3 -10.85 -30.7 L-10.85 -24.35 -9.4 -31.35 Q-8.5 -37.45 -3.4 -37.2 L-2.95 -37.2 8.15 -37.2 8.95 -37.15 Q13.9 -37.45 14.7 -31.2 L22.65 8.3 25.85 -0.8 16.4 -28.6 Q15.75 -30.6 16.5 -32.55 17.2 -34.5 19.1 -36.1 20.45 -37.2 22.5 -37.2 L32.35 -37.2 Q36.0 -37.25 38.25 -33.65 38.95 -35.0 40.15 -35.9 41.9 -37.2 44.05 -37.2 L53.55 -37.2 Q55.6 -37.2 56.9 -36.3 M0.55 3.75 L2.6 -7.2 4.6 3.75 0.55 3.75" fill="#630000" fill-rule="evenodd" stroke="none"/>
      <path d="M38.2 -16.4 L42.6 -31.1 43.15 -31.9 Q43.55 -32.2 44.05 -32.2 L53.9 -32.2 54.8 -31.9 55.0 -31.7 52.2 -29.6 44.8 -29.6 38.2 -11.55 38.2 -16.4 M43.65 31.95 Q43.25 31.65 43.15 31.2 L38.2 14.7 38.2 9.85 45.25 29.65 43.65 31.95 M10.0 31.9 Q9.6 31.55 9.5 31.05 L7.35 20.15 9.5 17.5 9.95 18.05 10.05 18.35 12.2 29.65 10.0 31.9 M-26.35 32.0 L-26.6 31.8 -27.05 30.75 -27.05 7.65 -25.1 -15.45 -24.45 -15.2 -24.45 29.65 -26.35 32.0 M-40.75 31.95 L-40.75 31.9 Q-41.2 31.55 -41.25 31.0 L-44.8 8.0 -46.95 -15.4 -46.75 -15.45 -46.1 -15.35 -38.9 29.65 -40.75 31.95 M-55.5 31.9 L-55.6 31.8 -56.05 30.75 -56.05 -30.7 -55.6 -31.75 Q-55.15 -32.2 -54.55 -32.2 L-42.2 -32.2 Q-41.65 -32.2 -41.2 -31.8 L-41.05 -31.65 -43.05 -29.6 -53.45 -29.6 -53.45 29.65 -55.5 31.9 M-35.95 0.75 L-31.15 -30.9 Q-31.1 -31.45 -30.65 -31.8 -30.25 -32.2 -29.7 -32.2 L-17.35 -32.2 Q-16.75 -32.2 -16.3 -31.75 L-18.45 -29.6 -28.8 -29.6 -35.25 12.1 -35.95 12.25 -35.95 0.75 M-15.85 25.4 L-4.4 -31.0 -3.9 -31.85 Q-3.5 -32.2 -2.95 -32.2 L8.15 -32.2 9.0 -31.9 7.35 -29.6 -2.1 -29.6 -13.95 29.65 -16.35 31.9 -15.85 25.4 M21.35 27.15 L31.1 -0.75 21.1 -30.2 Q20.9 -30.7 21.1 -31.15 L21.65 -31.9 Q22.0 -32.2 22.5 -32.2 L32.35 -32.2 33.25 -31.9 31.65 -29.6 24.2 -29.6 34.15 -1.2 34.2 -0.65 34.15 -0.25 23.15 29.65 21.35 32.2 21.35 27.15 M-2.3 6.3 L0.55 3.75 4.6 3.75 2.6 -7.2 2.6 -17.0 3.1 -16.9 7.6 6.15 7.25 6.5 6.4 6.75 -1.25 6.75 -2.05 6.5 -2.3 6.3" fill="#ffd44c" fill-rule="evenodd" stroke="none"/>
      <path d="M38.2 -11.55 L44.8 -29.6 52.2 -29.6 42.25 -1.25 Q42.05 -0.75 42.25 -0.25 L52.8 29.65 45.25 29.65 38.2 9.85 38.2 9.45 30.95 29.65 23.15 29.65 34.15 -0.25 34.2 -0.65 34.15 -1.2 24.2 -29.6 31.65 -29.6 38.15 -11.4 38.2 -11.2 38.2 -11.55 M-25.1 -15.45 L-25.8 -15.35 -32.95 29.65 -38.9 29.65 -46.1 -15.35 -46.75 -15.45 -46.95 -15.4 -47.4 -15.25 -47.4 29.65 -53.45 29.65 -53.45 -29.6 -43.05 -29.6 -36.85 11.85 -36.9 11.9 -36.8 11.95 -35.95 12.25 -35.25 12.1 -28.8 -29.6 -18.45 -29.6 -18.45 29.65 -24.45 29.65 -24.45 -15.2 -25.1 -15.45 M7.35 -29.6 L19.1 29.65 12.2 29.65 10.05 18.35 9.95 18.05 9.5 17.5 Q9.1 17.15 8.55 17.15 L-3.45 17.15 Q-3.95 17.15 -4.35 17.5 L-4.4 17.5 -4.35 17.5 -6.65 29.65 -13.95 29.65 -2.1 -29.6 7.35 -29.6 M2.6 -17.0 L2.05 -16.85 -2.3 6.3 -2.05 6.5 -1.25 6.75 6.4 6.75 7.25 6.5 7.6 6.15 3.1 -16.9 2.6 -17.0" fill="url(#gradient6)" fill-rule="evenodd" stroke="none"/>
    </g>
    <linearGradient gradientTransform="matrix(0.0311, 0.0538, -0.0328, 0.0189, -86.05, 48.85)" gradientUnits="userSpaceOnUse" id="gradient6" spreadMethod="pad" x1="-819.2" x2="819.2">
      <stop offset="0.0" stop-color="#ffc500"/>
      <stop offset="1.0" stop-color="#fcaf00"/>
    </linearGradient>
  </defs>
</svg>
