<?xml version="1.0" encoding="UTF-8" standalone="no"?>
<svg xmlns:xlink="http://www.w3.org/1999/xlink" height="149.65px" width="326.7px" xmlns="http://www.w3.org/2000/svg">
  <g transform="matrix(1.0, 0.0, 0.0, 1.0, 197.25, 104.15)">
    <use height="47.95" transform="matrix(1.0816, 0.0, 0.0, 1.0816, -81.9031, -28.2949)" width="39.75" xlink:href="#shape0"/>
    <use height="9.0" transform="matrix(0.4648, -0.4648, 0.4648, 0.4648, -74.7166, -15.6662)" width="8.5" xlink:href="#shape1"/>
    <use height="9.0" transform="matrix(0.1064, 0.3968, -0.3968, 0.1064, -65.7665, -3.2151)" width="8.5" xlink:href="#shape1"/>
    <use height="9.0" transform="matrix(-0.5555, -0.1489, 0.1488, -0.5555, -65.409, 14.9824)" width="8.5" xlink:href="#shape1"/>
    <use height="36.85" transform="matrix(1.7346, 0.0, 0.0, 1.7346, -28.4417, -58.4543)" width="32.1" xlink:href="#shape2"/>
    <use height="9.0" transform="matrix(0.4472, 0.4472, -0.4472, 0.4472, -7.3383, -47.6132)" width="8.5" xlink:href="#shape1"/>
    <use height="9.0" transform="matrix(-0.3162, 0.5477, -0.5477, -0.3162, -3.1417, -28.655)" width="8.5" xlink:href="#shape1"/>
    <use height="9.0" transform="matrix(0.8385, -0.8385, 0.8385, 0.8385, -19.1372, -13.2096)" width="8.5" xlink:href="#shape1"/>
    <use height="74.25" transform="matrix(1.0, 0.0, 0.0, 1.0, -106.4, -37.1)" width="49.8" xlink:href="#shape3"/>
    <use height="9.0" transform="matrix(0.8057, 0.8057, -0.8057, 0.8057, -93.4486, 15.0004)" width="8.5" xlink:href="#shape1"/>
    <use height="33.45" transform="matrix(1.3265, 0.0, 0.0, 1.3265, -60.6928, -12.0927)" width="40.9" xlink:href="#shape4"/>
    <use height="9.0" transform="matrix(-0.2086, 0.7786, -0.7786, -0.2086, -31.5097, 18.8296)" width="8.5" xlink:href="#shape1"/>
  </g>
  <defs>
    <g id="shape0" transform="matrix(1.0, 0.0, 0.0, 1.0, 3.1, 3.0)">
      <path d="M30.05 0.5 L2.55 4.65 2.6 5.25 0.4 5.55 3.8 37.75 7.0 38.1 7.05 39.0 30.7 41.45 33.15 30.4 13.95 29.25 13.9 25.5 30.35 24.75 30.6 15.6 13.7 17.7 13.6 13.65 31.0 12.15 30.05 0.5 Z" fill="none" stroke="#000000" stroke-linecap="round" stroke-linejoin="round" stroke-width="7.0"/>
      <path d="M13.95 25.5 L13.95 29.25 13.85 25.5 13.95 25.5" fill="#f0a200" fill-rule="evenodd" stroke="none"/>
      <path d="M13.7 16.8 L13.7 17.75 13.7 16.8" fill="#ffcc00" fill-rule="evenodd" stroke="none"/>
      <path d="M3.85 37.75 L3.8 37.75 0.4 5.55 2.6 5.25 2.55 4.65 30.05 0.5 28.6 1.95 3.6 5.45 4.15 13.2 2.85 14.55 2.6 6.0 1.2 6.2 4.85 36.4 3.85 37.75 M13.7 17.75 L30.6 15.6 30.6 15.65 29.05 16.95 13.7 18.5 13.7 17.75 M13.95 29.25 L33.1 30.4 31.05 31.5 7.8 29.9 8.45 37.65 7.05 39.0 7.05 38.1 7.0 36.55 6.75 28.85 13.2 29.25 13.95 29.25 M2.6 5.25 L2.6 6.0 2.6 5.25" fill="#8debe3" fill-rule="evenodd" stroke="none"/>
      <path d="M4.85 36.4 L1.2 6.2 2.6 6.0 2.85 14.55 12.8 13.7 13.2 29.25 6.75 28.85 7.0 36.55 4.85 36.4 M4.15 13.2 L3.6 5.45 28.6 1.95 29.35 11.0 4.15 13.2 M29.05 16.95 L29.05 23.65 13.85 24.75 13.7 18.5 29.05 16.95 M8.45 37.65 L7.8 29.9 31.05 31.5 29.55 39.85 8.45 37.65" fill="url(#gradient0)" fill-rule="evenodd" stroke="none"/>
      <path d="M30.05 0.5 L31.0 12.15 13.55 13.65 13.7 16.8 13.7 17.75 13.7 18.5 13.85 24.75 29.05 23.65 29.05 16.95 30.6 15.65 30.35 24.75 13.95 25.5 13.85 25.5 13.85 24.75 13.85 25.5 13.95 29.25 13.2 29.25 12.8 13.7 2.85 14.55 4.15 13.2 29.35 11.0 28.6 1.95 30.05 0.5 M33.1 30.4 L30.7 41.45 7.05 39.0 8.45 37.65 29.55 39.85 31.05 31.5 33.1 30.4 M7.05 38.1 L3.85 37.75 4.85 36.4 7.0 36.55 7.05 38.1 M13.55 13.65 L12.8 13.7 13.55 13.65" fill="#226666" fill-rule="evenodd" stroke="none"/>
      <path d="M3.85 37.75 L3.8 37.75 0.4 5.55 2.6 5.25 2.55 4.65 30.05 0.5 31.0 12.15 13.55 13.65 13.7 16.8 M13.7 17.75 L30.6 15.6 30.6 15.65 30.35 24.75 13.95 25.5 M13.95 29.25 L33.1 30.4 30.7 41.45 7.05 39.0 7.05 38.1 3.85 37.75 M2.6 6.0 L2.6 5.25 M2.6 6.0 L2.85 14.55 12.8 13.7 13.55 13.65 M13.85 24.75 L13.85 25.5 M13.7 18.5 L13.7 17.75 13.7 16.8 M13.2 29.25 L13.95 29.25 13.85 25.5 M7.0 36.55 L6.75 28.85 13.2 29.25 M13.85 24.75 L13.7 18.5 M7.0 36.55 L7.05 38.1" fill="none" stroke="#1a4d4d" stroke-linecap="round" stroke-linejoin="round" stroke-width="1.0"/>
    </g>
    <linearGradient gradientTransform="matrix(0.019, 0.019, -0.0049, 0.0049, 25.9, 11.5)" gradientUnits="userSpaceOnUse" id="gradient0" spreadMethod="pad" x1="-819.2" x2="819.2">
      <stop offset="0.0" stop-color="#32b4b3"/>
      <stop offset="1.0" stop-color="#2c8584"/>
    </linearGradient>
    <g id="shape1" transform="matrix(1.0, 0.0, 0.0, 1.0, 4.25, 4.5)">
      <path d="M0.0 -4.0 Q1.65 -4.0 2.8 -2.85 4.0 -1.65 4.0 0.0 4.0 1.65 2.8 2.8 1.65 4.0 0.0 4.0 L0.0 -4.0 0.0 4.0 Q-1.65 4.0 -2.85 2.8 -4.0 1.65 -4.0 0.0 -4.0 -1.65 -2.85 -2.85 -1.65 -4.0 0.0 -4.0" fill="url(#gradient1)" fill-rule="evenodd" stroke="none"/>
      <path d="M0.0 4.0 Q1.65 4.0 2.8 2.8 4.0 1.65 4.0 0.0 4.0 -1.65 2.8 -2.85 1.65 -4.0 0.0 -4.0 M0.0 4.0 Q-1.65 4.0 -2.85 2.8 -4.0 1.65 -4.0 0.0 -4.0 -1.65 -2.85 -2.85 -1.65 -4.0 0.0 -4.0" fill="none" stroke="#1a4d4d" stroke-linecap="round" stroke-linejoin="round" stroke-width="0.5"/>
      <path d="M0.0 -4.0 L0.0 4.0 Z" fill="none" stroke="#0e2c2c" stroke-linecap="round" stroke-linejoin="round" stroke-width="1.0"/>
    </g>
    <radialGradient cx="0" cy="0" gradientTransform="matrix(0.0042, 0.0, 0.0, 0.0042, 0.0, 0.0)" gradientUnits="userSpaceOnUse" id="gradient1" r="819.2" spreadMethod="pad">
      <stop offset="0.0" stop-color="#8debe3"/>
      <stop offset="1.0" stop-color="#267574"/>
    </radialGradient>
    <g id="shape2" transform="matrix(1.0, 0.0, 0.0, 1.0, 16.05, 18.45)">
      <path d="M12.55 -14.5 L11.5 -6.75 11.4 -6.45 -0.95 -5.5 -1.2 -4.0 8.05 -3.9 7.15 2.95 -2.25 2.5 -2.45 3.85 9.3 5.2 9.15 14.9 -3.9 12.35 -4.1 13.15 -12.55 11.35 -9.35 -13.05 -6.3 -13.3 -6.0 -14.1 12.45 -14.95 12.55 -14.5 Z" fill="none" stroke="#000000" stroke-linecap="round" stroke-linejoin="round" stroke-width="7.0"/>
      <path d="M-10.45 10.45 L-10.4 10.45 -5.0 11.6 -5.1 11.9 -10.5 10.65 -10.45 10.45" fill="#ffcc00" fill-rule="evenodd" stroke="none"/>
      <path d="M-5.8 -13.2 L-5.7 -13.75 12.2 -14.55 10.85 -13.5 -5.1 -13.05 -6.0 -6.75 -7.2 -5.6 -6.05 -12.1 -5.8 -13.2 -6.05 -12.1 -8.1 -11.65 -11.3 10.5 -12.15 11.05 -9.0 -12.7 -5.85 -12.85 -5.8 -13.2 M-1.8 -3.5 L7.75 -3.5 6.55 -2.75 -4.45 -2.75 -5.2 1.05 -6.05 1.75 -5.1 -3.5 -2.55 -3.5 -1.8 -3.5 M-3.05 4.25 L-2.9 4.3 9.0 5.65 7.6 6.65 -8.55 4.35 -9.35 9.7 -10.4 10.45 -10.45 10.45 -9.2 3.55 -3.8 4.2 -3.05 4.25" fill="#8debe3" fill-rule="evenodd" stroke="none"/>
      <path d="M-6.05 -12.1 L-7.2 -5.6 -2.2 -5.9 -2.55 -3.5 -5.1 -3.5 -6.05 1.75 -3.45 1.9 -3.8 4.2 -9.2 3.55 -10.45 10.45 -10.5 10.65 -11.3 10.5 -8.1 -11.65 -6.05 -12.1 M-6.0 -6.75 L-5.1 -13.05 10.85 -13.5 10.0 -7.8 -6.0 -6.75 M-5.2 1.05 L-4.45 -2.75 6.55 -2.75 5.95 1.4 -5.2 1.05 M-9.35 9.7 L-8.55 4.35 7.6 6.65 7.6 13.05 -9.35 9.7" fill="url(#gradient2)" fill-rule="evenodd" stroke="none"/>
      <path d="M-7.2 -5.6 L-6.0 -6.75 10.0 -7.8 10.85 -13.5 12.2 -14.55 11.05 -6.85 -1.45 -6.0 -1.8 -3.5 -2.55 -3.5 -2.2 -5.9 -1.45 -6.0 -2.2 -5.9 -7.2 -5.6 M7.75 -3.5 L6.8 2.55 -2.45 2.0 -2.7 2.0 -3.05 4.25 -3.8 4.2 -3.45 1.9 -2.7 2.0 -3.45 1.9 -6.05 1.75 -5.2 1.05 5.95 1.4 6.55 -2.75 7.75 -3.5 M9.0 5.65 L8.75 14.6 -4.3 11.75 -4.45 12.8 -12.15 11.05 -11.3 10.5 -10.5 10.65 -5.1 11.9 -5.0 11.6 -10.4 10.45 -9.35 9.7 7.6 13.05 7.6 6.65 9.0 5.65 M-4.3 11.75 L-5.0 11.6 -4.3 11.75" fill="#226666" fill-rule="evenodd" stroke="none"/>
      <path d="M12.2 -14.55 L-5.7 -13.75 -5.8 -13.2 -6.05 -12.1 -7.2 -5.6 M12.2 -14.55 L11.05 -6.85 -1.45 -6.0 -1.8 -3.5 7.75 -3.5 6.8 2.55 -2.45 2.0 M-2.7 2.0 L-3.05 4.25 -2.9 4.3 9.0 5.65 8.75 14.6 -4.3 11.75 -4.45 12.8 -12.15 11.05 -9.0 -12.7 -5.85 -12.85 M-1.45 -6.0 L-2.2 -5.9 -7.2 -5.6 M-2.55 -3.5 L-1.8 -3.5 M-2.55 -3.5 L-5.1 -3.5 -6.05 1.75 M-3.8 4.2 L-3.05 4.25 M-3.8 4.2 L-9.2 3.55 -10.45 10.45 -10.4 10.45 M-2.7 2.0 L-3.45 1.9 -6.05 1.75 M-5.0 11.6 L-10.4 10.45 M-5.0 11.6 L-4.3 11.75" fill="none" stroke="#1a4d4d" stroke-linecap="round" stroke-linejoin="round" stroke-width="1.0"/>
    </g>
    <linearGradient gradientTransform="matrix(0.0084, 0.0146, -0.0112, 0.0064, -16.95, 11.2)" gradientUnits="userSpaceOnUse" id="gradient2" spreadMethod="pad" x1="-819.2" x2="819.2">
      <stop offset="0.0" stop-color="#32b4b3"/>
      <stop offset="1.0" stop-color="#2c8584"/>
    </linearGradient>
    <g id="shape3" transform="matrix(1.0, 0.0, 0.0, 1.0, 3.35, 3.35)">
      <path d="M26.25 5.8 L24.9 6.75 4.2 2.35 2.85 48.05 3.4 1.1 26.25 5.8" fill="#8debe3" fill-rule="evenodd" stroke="none"/>
      <path d="M24.9 6.75 L26.25 5.8 17.3 48.35 24.9 6.75" fill="#226666" fill-rule="evenodd" stroke="none"/>
      <path d="M0.7 48.0 L1.85 48.05 2.55 0.15 27.35 5.15 18.6 48.35 42.95 48.9 40.15 67.4 0.15 62.45 0.15 48.5" fill="none" stroke="#000000" stroke-linecap="round" stroke-linejoin="round" stroke-width="7.0"/>
      <path d="M17.95 48.85 L42.65 49.3 42.65 49.35 41.1 50.95 1.95 50.0 1.95 60.95 0.5 62.1 0.65 48.5 2.35 48.55 2.9 0.5 26.9 5.4 24.85 6.7 4.15 2.35 3.1 48.55 17.2 48.8 17.95 48.85 M2.35 48.55 L3.1 48.55 2.35 48.55" fill="#8debe3" fill-rule="evenodd" stroke="none"/>
      <path d="M17.2 48.8 L3.1 48.55 4.15 2.35 24.85 6.7 17.2 48.8 M41.1 50.95 L38.25 65.45 1.95 60.95 1.95 50.0 41.1 50.95" fill="url(#gradient3)" fill-rule="evenodd" stroke="none"/>
      <path d="M42.65 49.35 L39.85 67.0 0.5 62.1 1.95 60.95 38.25 65.45 41.1 50.95 42.65 49.35 M26.9 5.4 L17.95 48.85 17.2 48.8 24.85 6.7 26.9 5.4" fill="#226666" fill-rule="evenodd" stroke="none"/>
      <path d="M17.95 48.85 L42.65 49.3 42.65 49.35 39.85 67.0 0.5 62.1 0.65 48.5 2.35 48.55 2.9 0.5 26.9 5.4 17.95 48.85 17.2 48.8 3.1 48.55 2.35 48.55" fill="none" stroke="#1a4d4d" stroke-linecap="round" stroke-linejoin="round" stroke-width="1.0"/>
    </g>
    <linearGradient gradientTransform="matrix(0.0287, 0.0287, -0.5371, 0.5371, 94.35, -39.75)" gradientUnits="userSpaceOnUse" id="gradient3" spreadMethod="pad" x1="-819.2" x2="819.2">
      <stop offset="0.0" stop-color="#32b4b3"/>
      <stop offset="1.0" stop-color="#2c8584"/>
    </linearGradient>
    <g id="shape4" transform="matrix(1.0, 0.0, 0.0, 1.0, 3.5, 3.5)">
      <path d="M33.8 1.9 L18.4 26.45 9.3 25.9 9.25 25.3 9.85 23.65 0.0 0.85 0.45 0.45 10.75 0.0 11.05 0.1 15.0 12.45 20.25 1.15 33.45 1.15 Q34.15 1.35 33.8 1.9 Z" fill="none" stroke="#000000" stroke-linecap="round" stroke-linejoin="round" stroke-width="7.0"/>
      <path d="M33.45 1.7 L33.4 1.75 33.45 1.7" fill="#fff8b9" fill-rule="evenodd" stroke="none"/>
      <path d="M33.45 1.7 L33.5 1.7 33.45 1.7" fill="#ffcc00" fill-rule="evenodd" stroke="none"/>
      <path d="M9.55 25.5 L10.4 23.65 0.45 0.95 10.75 0.5 9.9 1.7 2.4 2.45 10.8 22.8 14.45 14.8 14.9 13.8 20.5 1.5 33.45 1.7 33.4 1.75 30.85 2.85 21.4 2.45 10.85 24.55 9.55 25.5 M10.4 23.65 L10.8 22.8 10.4 23.65" fill="#8debe3" fill-rule="evenodd" stroke="none"/>
      <path d="M30.85 2.85 L17.45 24.35 10.85 24.55 21.4 2.45 30.85 2.85 M14.45 14.8 L10.8 22.8 2.4 2.45 9.9 1.7 14.45 14.8" fill="url(#gradient4)" fill-rule="evenodd" stroke="none"/>
      <path d="M33.4 1.75 L17.9 26.15 9.55 25.5 10.85 24.55 17.45 24.35 30.85 2.85 33.4 1.75 M10.75 0.5 L14.9 13.8 14.45 14.8 9.9 1.7 10.75 0.5" fill="#226666" fill-rule="evenodd" stroke="none"/>
      <path d="M33.4 1.75 L17.9 26.15 9.55 25.5 10.4 23.65 0.45 0.95 10.75 0.5 14.9 13.8 20.5 1.5 33.45 1.7 M14.9 13.8 L14.45 14.8 10.8 22.8 10.4 23.65" fill="none" stroke="#1a4d4d" stroke-linecap="round" stroke-linejoin="round" stroke-width="1.0"/>
    </g>
    <linearGradient gradientTransform="matrix(0.0084, 0.0145, -0.0112, 0.0064, 3.9, 17.35)" gradientUnits="userSpaceOnUse" id="gradient4" spreadMethod="pad" x1="-819.2" x2="819.2">
      <stop offset="0.0" stop-color="#32b4b3"/>
      <stop offset="1.0" stop-color="#2c8584"/>
    </linearGradient>
  </defs>
</svg>
