<?xml version="1.0" encoding="UTF-8" standalone="no"?>
<svg xmlns:xlink="http://www.w3.org/1999/xlink" height="114.65px" width="108.3px" xmlns="http://www.w3.org/2000/svg">
  <g transform="matrix(1.0, 0.0, 0.0, 1.0, 50.1, 49.05)">
    <use height="97.5" id="pp0" transform="matrix(0.5596, 0.0, 0.0, 0.5596, -27.5655, -27.2798)" width="98.6" xlink:href="#sprite0"/>
  </g>
  <defs>
    <g id="sprite0" transform="matrix(1.0, 0.0, 0.0, 1.0, 49.35, 48.75)">
      <use height="72.4" transform="matrix(1.0, 0.0, 0.0, 1.0, -38.6, -36.2)" width="77.2" xlink:href="#shape0"/>
    </g>
    <g id="shape0" transform="matrix(1.0, 0.0, 0.0, 1.0, 38.55, 36.2)">
      <path d="M-17.6 32.1 L-20.95 29.5 -23.4 27.25 Q-31.35 20.4 -37.05 11.9 -38.35 9.95 -38.55 7.8 L-38.45 6.05 Q-37.8 2.7 -36.65 -0.55 -33.5 -9.35 -29.2 -17.85 -26.8 -22.6 -23.1 -26.5 L-21.05 -28.05 Q-17.85 -29.85 -14.3 -30.95 -4.0 -34.3 6.75 -35.8 11.75 -36.75 16.45 -35.3 17.3 -35.1 17.95 -34.3 18.25 -33.85 18.0 -33.65 L-19.9 -24.3 -36.0 11.95 -17.6 32.1" fill="#8a4c2c" fill-rule="evenodd" stroke="none"/>
      <path d="M31.8 -4.8 L32.85 -3.4 32.0 -1.55 20.15 22.3 -7.45 29.95 -24.25 11.5 -11.75 -16.1 17.75 -23.55 31.8 -4.8" fill="#666360" fill-rule="evenodd" stroke="none"/>
      <path d="M32.0 -1.55 L32.9 -3.4 31.8 -4.8 17.75 -23.55 -11.75 -16.1 -24.25 11.5 -7.45 29.95 20.15 22.3 32.0 -1.55 M18.25 -29.55 L36.25 -6.05 21.35 24.2 -11.3 33.35 -31.15 11.5 -16.55 -21.15 18.25 -29.55" fill="#54504e" fill-rule="evenodd" stroke="none"/>
      <path d="M18.0 -33.65 L18.7 -33.65 38.65 -7.75 22.1 26.1 -13.9 36.2 -17.6 32.1 -36.0 11.95 -19.9 -24.3 18.0 -33.65 M18.25 -29.55 L-16.55 -21.15 -31.15 11.5 -11.3 33.35 21.35 24.2 36.25 -6.05 18.25 -29.55" fill="#454240" fill-rule="evenodd" stroke="none"/>
    </g>
  </defs>
</svg>
