<?xml version="1.0" encoding="UTF-8" standalone="no"?>
<svg xmlns:xlink="http://www.w3.org/1999/xlink" height="181.25px" width="455.15px" xmlns="http://www.w3.org/2000/svg">
  <g transform="matrix(1.0, 0.0, 0.0, 1.0, 265.05, 116.9)">
    <clipPath id="clipPath0" transform="matrix(1.0, 0.0, 0.0, 1.0, 265.05, 116.9)">
      <use height="97.95" transform="matrix(1.0, 0.0, 0.0, 1.0, -133.45, -105.6)" width="266.5" xlink:href="#shape0"/>
    </clipPath>
    <g clip-path="url(#clipPath0)">
      <use height="31.25" transform="matrix(1.0, 0.0, 0.0, 1.0, -31.0, -37.9)" width="62.0" xlink:href="#shape1"/>
      <use height="78.0" transform="matrix(0.4973, 0.0042, -0.0042, 0.4972, -16.7816, -70.9393)" width="91.05" xlink:href="#sprite0"/>
      <use height="37.7" transform="matrix(0.4973, 0.0042, -0.0042, 0.4972, -6.2029, -64.6033)" width="49.5" xlink:href="#sprite4"/>
      <use height="37.45" transform="matrix(0.4959, -0.0351, 0.0352, 0.4959, -11.1537, -48.6884)" width="70.25" xlink:href="#button0"/>
      <use height="5.7" transform="matrix(0.4959, -0.0351, 0.0352, 0.4959, -3.1923, -34.1981)" width="40.65" xlink:href="#sprite7"/>
      <use height="22.4" transform="matrix(0.4959, -0.0351, 0.0352, 0.4959, -2.2737, -50.0494)" width="34.4" xlink:href="#sprite8"/>
    </g>
    <use height="32.45" transform="matrix(1.0, 0.0, 0.0, 1.0, -10.85, -55.6)" width="36.15" xlink:href="#shape8"/>
  </g>
  <defs>
    <g id="shape0" transform="matrix(1.0, 0.0, 0.0, 1.0, 133.45, 105.6)">
      <path d="M13.0 -7.65 Q-38.8 -7.65 -80.8 -8.25 -122.85 -8.9 -133.05 -12.2 L-133.05 -12.35 Q-133.05 -13.25 -132.55 -14.1 L-133.45 -14.1 -133.45 -105.6 133.05 -105.6 133.05 -14.1 130.85 -14.1 131.1 -13.6 Q127.35 -12.1 112.55 -10.7 L81.25 -8.45 Q64.75 -7.65 13.0 -7.65" fill="#0066ff" fill-rule="evenodd" stroke="none"/>
    </g>
    <g id="shape1" transform="matrix(1.0, 0.0, 0.0, 1.0, 31.0, 37.9)">
      <path d="M3.3 -34.8 Q3.35 -35.85 4.3 -36.55 4.95 -37.05 5.75 -36.75 8.7 -35.7 8.95 -32.65 L9.0 -32.45 8.65 -32.0 7.85 -31.15 Q6.95 -30.3 5.75 -29.95 L4.9 -29.85 4.4 -29.85 3.35 -34.8 3.3 -34.8 M24.05 -6.65 L21.85 -6.65 21.35 -7.65 25.35 -8.85 Q25.5 -8.2 25.8 -7.5 L24.05 -6.65 M2.65 -6.65 L-0.7 -6.65 -0.5 -6.95 -0.3 -7.05 0.45 -7.3 0.8 -7.3 1.15 -7.4 1.3 -7.5 Q1.9 -7.45 2.25 -7.0 L2.55 -6.7 2.65 -6.65 M-10.6 -10.4 L-9.95 -12.25 -9.2 -12.1 -10.6 -10.4" fill="#0db5c8" fill-rule="evenodd" stroke="none"/>
      <path d="M9.0 -32.45 L8.95 -32.65 Q8.7 -35.7 5.75 -36.75 4.95 -37.05 4.3 -36.55 3.35 -35.85 3.3 -34.8 L3.3 -34.75 3.35 -34.8 4.4 -29.85 4.5 -26.2 Q6.8 -24.7 9.35 -26.4 L9.0 -32.45 M-11.9 -6.65 L-13.05 -6.65 -13.0 -6.75 -13.0 -6.8 -13.1 -7.0 Q-12.7 -10.15 -11.25 -12.65 -13.25 -13.45 -14.85 -15.15 L-14.95 -15.55 -14.75 -16.0 Q-9.15 -18.0 -5.7 -23.05 -2.25 -28.1 3.5 -29.9 L3.2 -32.65 Q1.95 -34.95 3.45 -36.75 4.4 -37.95 5.9 -37.9 8.75 -36.6 9.8 -34.15 10.5 -32.45 10.4 -30.2 L10.35 -29.5 10.7 -29.2 10.75 -29.1 11.3 -28.75 Q17.95 -25.2 22.75 -19.3 24.65 -16.95 27.45 -15.75 L31.0 -14.1 Q30.35 -11.75 27.9 -10.2 L26.3 -9.3 26.85 -8.2 26.9 -8.15 27.1 -7.5 27.15 -7.4 27.45 -6.65 26.15 -6.65 25.85 -7.4 25.8 -7.5 Q25.5 -8.2 25.35 -8.85 L21.35 -7.65 21.85 -6.65 21.05 -6.65 20.65 -7.55 20.1 -7.5 20.05 -6.65 19.15 -6.65 19.15 -8.15 Q19.0 -14.25 16.9 -19.85 15.8 -22.7 14.0 -25.0 12.4 -27.0 10.3 -28.6 L10.25 -28.6 10.1 -27.4 10.25 -26.9 10.4 -26.95 10.7 -26.95 Q10.55 -24.55 7.45 -24.4 3.7 -24.25 2.4 -27.35 L2.4 -27.65 Q2.55 -27.9 2.85 -27.85 L2.85 -27.9 Q3.35 -27.8 3.3 -27.25 L3.3 -27.15 3.75 -26.75 3.55 -28.95 0.95 -27.95 -0.8 -26.55 -1.5 -25.6 -1.6 -25.55 Q-1.55 -25.25 -1.8 -25.05 L-1.9 -24.95 Q-3.35 -20.25 -5.65 -15.9 L-6.85 -13.7 -7.95 -11.9 -8.1 -11.7 -8.3 -11.6 -8.3 -11.5 -9.8 -9.3 -11.55 -7.15 -11.9 -6.65 M5.0 -6.65 L4.1 -6.65 3.9 -7.2 2.9 -8.75 2.25 -9.65 2.1 -9.8 Q0.35 -12.8 -2.4 -10.9 L-3.05 -10.3 Q-4.75 -8.7 -5.65 -6.65 L-11.75 -6.65 -11.05 -6.85 -9.2 -7.2 -6.65 -7.15 -6.55 -7.15 Q-5.75 -8.8 -4.55 -10.25 L-4.5 -10.35 -3.35 -11.5 Q-2.65 -12.2 -1.65 -12.5 L-1.15 -12.65 -0.65 -12.8 0.95 -12.4 1.4 -12.15 1.6 -12.05 2.4 -11.1 3.05 -10.25 3.6 -9.35 5.0 -6.65 M23.6 -9.35 L25.2 -10.0 Q25.3 -10.25 25.6 -10.2 L25.6 -10.25 25.65 -10.2 26.4 -10.5 Q28.5 -11.5 29.75 -13.4 22.35 -16.85 17.3 -23.3 L17.2 -23.4 17.05 -23.7 16.95 -23.9 14.5 -25.85 16.3 -23.4 17.55 -20.8 17.85 -20.0 Q19.95 -14.3 20.05 -8.1 21.8 -8.65 23.6 -9.35 M-2.7 -24.75 L-2.65 -24.9 -2.75 -24.8 Q-6.15 -21.75 -9.15 -18.25 -10.85 -16.2 -13.4 -15.3 L-12.0 -14.2 -11.75 -14.05 Q-10.75 -13.4 -9.6 -13.0 L-8.7 -12.65 -8.5 -12.85 -8.45 -13.05 -8.45 -13.15 -8.25 -13.4 -7.1 -15.05 -6.7 -15.85 -6.65 -15.9 -5.5 -18.3 Q-4.15 -21.2 -3.1 -24.15 L-3.05 -24.35 -2.7 -24.75 M-30.05 -6.65 L-31.0 -6.65 -29.45 -9.55 Q-28.45 -11.2 -27.0 -12.3 L-26.95 -12.3 -25.45 -13.4 -24.95 -13.6 Q-20.95 -11.8 -18.95 -8.05 L-18.75 -9.25 -18.6 -10.1 -18.3 -10.35 -18.15 -10.4 Q-16.3 -8.15 -13.9 -6.65 L-15.9 -6.65 -17.25 -8.1 -17.65 -8.6 -18.0 -6.65 -19.35 -6.65 -19.55 -7.05 -20.15 -7.9 Q-21.2 -10.1 -23.15 -11.6 L-24.05 -12.3 Q-24.4 -12.35 -24.65 -12.55 L-24.8 -12.6 Q-25.3 -12.5 -25.65 -12.2 L-26.45 -11.55 -26.6 -11.4 -26.8 -11.2 Q-28.85 -9.3 -30.05 -6.7 L-30.05 -6.65 M-9.95 -12.25 L-10.65 -12.45 -11.7 -8.85 -10.6 -10.4 -9.2 -12.1 -9.95 -12.25" fill="#000000" fill-rule="evenodd" stroke="none"/>
      <path d="M4.4 -29.85 L4.9 -29.85 5.75 -29.95 Q6.95 -30.3 7.85 -31.15 L8.65 -32.0 9.0 -32.45 9.35 -26.4 Q6.8 -24.7 4.5 -26.2 L4.4 -29.85 M26.15 -6.65 L24.05 -6.65 25.8 -7.5 25.85 -7.4 26.15 -6.65 M4.1 -6.65 L2.65 -6.65 2.55 -6.7 2.25 -7.0 Q1.9 -7.45 1.3 -7.5 L1.15 -7.4 0.8 -7.3 0.45 -7.3 -0.3 -7.05 -0.5 -6.95 -0.7 -6.65 -5.65 -6.65 Q-4.75 -8.7 -3.05 -10.3 L-2.4 -10.9 Q0.35 -12.8 2.1 -9.8 L2.25 -9.65 2.9 -8.75 3.9 -7.2 4.1 -6.65 M-19.35 -6.65 L-30.05 -6.65 -30.05 -6.7 Q-28.85 -9.3 -26.8 -11.2 L-26.6 -11.4 -26.45 -11.55 -25.65 -12.2 Q-25.3 -12.5 -24.8 -12.6 L-24.65 -12.55 Q-24.4 -12.35 -24.05 -12.3 L-23.15 -11.6 Q-21.2 -10.1 -20.15 -7.9 L-19.55 -7.05 -19.35 -6.65 M-9.95 -12.25 L-10.6 -10.4 -11.7 -8.85 -10.65 -12.45 -9.95 -12.25" fill="#0ecfe4" fill-rule="evenodd" stroke="none"/>
      <path d="M16.05 -6.65 L14.0 -6.65 12.55 -7.75 Q10.5 -9.2 8.2 -10.3 6.05 -11.35 3.7 -11.95 L2.85 -12.15 2.05 -12.3 0.95 -12.4 -0.65 -12.8 -1.15 -12.65 -1.65 -12.5 -2.55 -12.45 -4.85 -12.3 -7.3 -11.85 -8.3 -11.5 -8.3 -11.6 -8.1 -11.7 -7.95 -11.9 -6.85 -13.7 -4.85 -14.4 -3.3 -14.7 -2.95 -14.8 -1.15 -14.85 -0.65 -14.8 4.25 -14.05 6.55 -13.4 7.05 -13.2 9.35 -12.4 Q11.7 -11.6 13.7 -10.05 L14.5 -9.55 16.25 -8.15 16.15 -7.5 16.05 -6.65 M9.5 -6.65 L5.0 -6.65 3.6 -9.35 4.6 -9.0 6.9 -8.0 7.55 -7.7 8.1 -7.4 9.5 -6.65 M-11.75 -6.65 L-11.9 -6.65 -11.55 -7.15 -9.8 -9.3 -9.2 -9.45 -8.45 -9.65 -4.5 -10.35 -4.55 -10.25 Q-5.75 -8.8 -6.55 -7.15 L-6.65 -7.15 -9.2 -7.2 -11.05 -6.85 -11.75 -6.65 M-5.65 -15.9 Q-3.35 -20.25 -1.9 -24.95 L-1.8 -25.05 Q-1.55 -25.25 -1.6 -25.55 L-1.5 -25.6 -0.8 -26.55 0.95 -27.95 3.55 -28.95 3.75 -26.75 3.3 -27.15 3.3 -27.25 Q3.35 -27.8 2.85 -27.9 L2.85 -27.85 Q2.55 -27.9 2.4 -27.65 L2.4 -27.35 Q3.7 -24.25 7.45 -24.4 10.55 -24.55 10.7 -26.95 L10.4 -26.95 10.25 -26.9 10.1 -27.4 10.25 -28.6 10.3 -28.6 Q12.4 -27.0 14.0 -25.0 L15.35 -22.0 15.7 -20.8 16.25 -18.1 16.35 -17.1 16.45 -13.75 16.45 -12.45 16.45 -10.7 16.25 -10.9 15.9 -11.2 14.75 -12.1 13.5 -12.9 13.05 -13.2 10.65 -14.4 9.6 -14.85 9.15 -15.15 Q8.6 -15.55 7.95 -15.65 L7.3 -15.85 4.6 -16.3 3.2 -16.55 -1.65 -16.85 -3.85 -16.45 -4.1 -16.35 -4.45 -16.25 -5.0 -16.1 -5.65 -15.9 M17.85 -20.0 L17.55 -20.8 16.3 -23.4 14.5 -25.85 16.95 -23.9 17.05 -23.7 17.2 -23.4 17.3 -23.3 Q22.35 -16.85 29.75 -13.4 28.5 -11.5 26.4 -10.5 L25.65 -10.2 25.6 -10.25 25.6 -10.2 Q25.3 -10.25 25.2 -10.0 L23.6 -9.35 23.45 -9.55 23.05 -10.3 22.1 -11.85 20.8 -14.05 18.85 -18.35 18.4 -19.25 18.0 -20.1 17.85 -20.0 M-2.75 -24.8 L-2.7 -24.75 -3.05 -24.35 -3.1 -24.15 Q-4.15 -21.2 -5.5 -18.3 L-6.1 -17.7 -6.85 -17.0 Q-8.4 -15.7 -10.1 -14.7 -10.9 -14.25 -11.75 -14.05 L-12.0 -14.2 -13.4 -15.3 Q-10.85 -16.2 -9.15 -18.25 -6.15 -21.75 -2.75 -24.8" fill="#f02d0b" fill-rule="evenodd" stroke="none"/>
      <path d="M18.1 -6.65 L16.05 -6.65 16.15 -7.5 16.25 -8.15 16.8 -7.75 17.15 -7.5 18.1 -6.65 M14.0 -25.0 Q15.8 -22.7 16.9 -19.85 19.0 -14.25 19.15 -8.15 L18.5 -8.95 18.3 -9.1 17.9 -9.5 17.6 -9.7 16.45 -10.7 16.45 -12.45 16.45 -13.75 16.35 -17.1 16.25 -18.1 15.7 -20.8 15.35 -22.0 14.0 -25.0 M17.85 -20.0 L18.0 -20.1 18.4 -19.25 18.85 -18.35 20.8 -14.05 22.1 -11.85 23.05 -10.3 23.45 -9.55 23.6 -9.35 Q21.8 -8.65 20.05 -8.1 19.95 -14.3 17.85 -20.0 M-5.5 -18.3 L-6.65 -15.9 -6.7 -15.85 -7.1 -15.05 -8.25 -13.4 -8.45 -13.15 -8.45 -13.05 -8.5 -12.85 -8.7 -12.65 -9.6 -13.0 Q-10.75 -13.4 -11.75 -14.05 -10.9 -14.25 -10.1 -14.7 -8.4 -15.7 -6.85 -17.0 L-6.1 -17.7 -5.5 -18.3" fill="#d6280a" fill-rule="evenodd" stroke="none"/>
      <path d="M19.15 -6.65 L18.1 -6.65 17.15 -7.5 16.8 -7.75 16.25 -8.15 14.5 -9.55 13.7 -10.05 Q11.7 -11.6 9.35 -12.4 L7.05 -13.2 6.55 -13.4 4.25 -14.05 -0.65 -14.8 -1.15 -14.85 -2.95 -14.8 -3.3 -14.7 -4.85 -14.4 -6.85 -13.7 -5.65 -15.9 -5.0 -16.1 -4.45 -16.25 -4.1 -16.35 -3.85 -16.45 -1.65 -16.85 3.2 -16.55 4.6 -16.3 7.3 -15.85 7.95 -15.65 Q8.6 -15.55 9.15 -15.15 L9.6 -14.85 10.65 -14.4 13.05 -13.2 13.5 -12.9 14.75 -12.1 15.9 -11.2 16.25 -10.9 16.45 -10.7 17.6 -9.7 17.9 -9.5 18.3 -9.1 18.5 -8.95 19.15 -8.15 19.15 -6.65 M14.0 -6.65 L9.5 -6.65 8.1 -7.4 7.55 -7.7 6.9 -8.0 4.6 -9.0 3.6 -9.35 3.05 -10.25 2.4 -11.1 1.6 -12.05 1.4 -12.15 0.95 -12.4 2.05 -12.3 2.85 -12.15 3.7 -11.95 Q6.05 -11.35 8.2 -10.3 10.5 -9.2 12.55 -7.75 L14.0 -6.65 M-9.8 -9.3 L-8.3 -11.5 -7.3 -11.85 -4.85 -12.3 -2.55 -12.45 -1.65 -12.5 Q-2.65 -12.2 -3.35 -11.5 L-4.5 -10.35 -8.45 -9.65 -9.2 -9.45 -9.8 -9.3" fill="#c62509" fill-rule="evenodd" stroke="none"/>
      <path d="M-15.9 -6.65 L-18.0 -6.65 -17.65 -8.6 -17.25 -8.1 -15.9 -6.65" fill="#666666" fill-rule="evenodd" stroke="none"/>
    </g>
    <g id="sprite0" transform="matrix(1.0, 0.0, 0.0, 1.0, 46.65, 39.3)">
      <use height="68.55" transform="matrix(0.9994, 0.0085, -0.0085, 0.9994, 23.2973, -32.1191)" width="21.1" xlink:href="#sprite1"/>
      <use height="69.3" transform="matrix(-0.999, 0.0348, 0.0348, 0.999, -23.1916, -31.339)" width="23.5" xlink:href="#sprite2"/>
      <use height="57.65" transform="matrix(0.9966, -0.0792, 0.0792, 0.9966, -35.9936, -33.9156)" width="68.05" xlink:href="#sprite3"/>
    </g>
    <g id="sprite1" transform="matrix(1.0, 0.0, 0.0, 1.0, 10.55, 34.3)">
      <use height="68.55" transform="matrix(1.0, 0.0, 0.0, 1.0, -10.55, -34.3)" width="21.1" xlink:href="#shape2"/>
    </g>
    <g id="shape2" transform="matrix(1.0, 0.0, 0.0, 1.0, 10.55, 34.3)">
      <path d="M6.6 -9.2 Q5.55 -23.75 0.1 -29.7 L-8.65 -27.2 -10.55 -29.45 Q-7.8 -31.05 -2.0 -32.9 4.45 -34.95 5.35 -33.95 10.2 -28.6 10.5 -4.3 10.65 5.1 10.0 14.75 L8.75 32.2 Q7.85 35.65 6.4 33.35 7.25 -0.15 6.6 -9.2" fill="#000000" fill-rule="evenodd" stroke="none"/>
    </g>
    <g id="sprite2" transform="matrix(1.0, 0.0, 0.0, 1.0, 10.7, 32.5)">
      <use height="68.55" transform="matrix(1.0, 0.0, 0.0, 1.0, -10.55, -31.8)" width="21.1" xlink:href="#sprite1"/>
    </g>
    <g id="sprite3" transform="matrix(1.0, 0.0, 0.0, 1.0, 33.9, 29.15)">
      <use height="57.65" transform="matrix(1.0, 0.0, 0.0, 1.0, -33.9, -29.15)" width="68.05" xlink:href="#shape3"/>
    </g>
    <g id="shape3" transform="matrix(1.0, 0.0, 0.0, 1.0, 33.9, 29.15)">
      <path d="M-22.05 21.5 L-21.1 22.05 Q-20.7 22.05 -20.7 21.7 L-20.75 21.55 Q-25.3 18.15 -28.85 13.7 L-28.85 13.6 -28.9 13.3 Q-32.55 7.8 -32.75 1.15 L-32.85 0.9 -32.8 0.7 -32.9 -1.05 -32.85 -1.15 -32.8 -1.3 -32.8 -1.8 -32.75 -2.2 -32.55 -5.05 -32.45 -5.2 -32.35 -5.5 -32.35 -5.6 -32.4 -5.8 -32.05 -6.8 -30.9 -10.7 -30.55 -11.1 -29.7 -12.95 -29.5 -13.2 -28.9 -14.2 -28.75 -14.25 -28.5 -14.5 -28.3 -14.7 -27.45 -16.05 -27.05 -16.25 -27.0 -16.35 -26.5 -17.1 -26.35 -17.15 -22.85 -20.4 Q-21.6 -21.05 -20.4 -22.05 -19.1 -23.15 -17.6 -23.85 L-17.5 -23.95 -17.4 -24.1 -17.3 -24.2 -15.1 -25.1 -13.15 -25.7 -7.3 -27.35 Q4.05 -29.7 14.8 -25.0 L19.15 -22.9 Q24.45 -20.1 27.7 -15.3 L27.9 -15.2 28.15 -15.2 Q28.55 -14.35 29.1 -13.55 33.35 -7.2 32.9 0.15 L33.1 0.35 Q32.75 4.2 31.4 7.9 L31.3 8.05 Q29.55 13.2 25.8 17.05 L25.75 17.1 Q24.75 18.65 23.15 19.65 L23.05 19.8 Q22.7 20.05 22.8 20.35 L23.7 20.25 Q13.85 28.5 0.0 28.5 -12.75 28.5 -22.05 21.5 M30.8 11.75 L32.0 8.75 32.2 8.65 30.8 11.75" fill="url(#gradient0)" fill-rule="evenodd" stroke="none"/>
      <path d="M23.7 20.25 L22.8 20.35 Q22.7 20.05 23.05 19.8 L23.15 19.65 Q24.75 18.65 25.75 17.1 L25.8 17.05 Q29.55 13.2 31.3 8.05 L31.4 7.9 Q32.75 4.2 33.1 0.35 L32.9 0.15 Q33.35 -7.2 29.1 -13.55 28.55 -14.35 28.15 -15.2 L27.9 -15.2 27.7 -15.3 Q24.45 -20.1 19.15 -22.9 L14.8 -25.0 Q4.05 -29.7 -7.3 -27.35 L-13.15 -25.7 -15.1 -25.1 -17.3 -24.2 -17.4 -24.1 -17.5 -23.95 -17.6 -23.85 Q-19.1 -23.15 -20.4 -22.05 -21.6 -21.05 -22.85 -20.4 L-26.35 -17.15 -26.5 -17.1 -27.0 -16.35 -27.05 -16.25 -27.45 -16.05 -28.3 -14.7 -28.5 -14.5 -28.75 -14.25 -28.9 -14.2 -29.5 -13.2 -29.7 -12.95 -30.55 -11.1 -30.9 -10.7 -32.05 -6.8 -32.4 -5.8 -32.35 -5.6 -32.35 -5.5 -32.45 -5.2 -32.55 -5.05 -32.75 -2.2 -32.8 -1.8 -32.8 -1.3 -32.85 -1.15 -32.9 -1.05 -32.8 0.7 -32.85 0.9 -32.75 1.15 Q-32.55 7.8 -28.9 13.3 L-28.85 13.6 -28.85 13.7 Q-25.3 18.15 -20.75 21.55 L-20.7 21.7 Q-20.7 22.05 -21.1 22.05 L-22.05 21.5 Q-23.65 20.5 -25.05 19.15 -26.75 18.1 -27.85 16.25 -33.85 9.25 -33.9 0.0 L-33.75 -1.65 -33.65 -2.6 -33.65 -2.9 -33.6 -3.1 -33.55 -3.2 -33.3 -5.35 -33.3 -5.8 -31.45 -11.4 -30.8 -12.5 -30.8 -12.7 -30.75 -12.8 -30.65 -12.95 -30.55 -13.05 Q-27.45 -18.6 -22.05 -21.85 L-17.75 -24.65 Q-14.15 -26.55 -10.1 -27.7 0.0 -30.5 10.15 -27.95 17.9 -25.4 24.3 -20.4 L26.8 -18.35 26.9 -18.3 27.1 -18.2 27.25 -17.9 Q27.25 -18.1 27.5 -18.0 L27.8 -17.45 27.85 -17.35 Q31.6 -12.55 33.3 -6.75 L33.3 -6.55 Q33.9 -4.5 33.95 -2.4 L34.0 -2.3 Q33.95 -1.95 34.05 -1.65 L34.15 -1.45 34.05 -0.45 34.0 -0.2 34.1 0.05 34.1 0.15 33.8 2.9 33.7 3.25 32.45 8.2 32.2 8.65 32.0 8.75 30.8 11.75 Q28.35 16.75 23.75 20.2 L23.7 20.25" fill="#000000" fill-rule="evenodd" stroke="none"/>
    </g>
    <radialGradient cx="0" cy="0" gradientTransform="matrix(0.0435, 0.0, 0.0, 0.0435, 1.35, -6.55)" gradientUnits="userSpaceOnUse" id="gradient0" r="819.2" spreadMethod="pad">
      <stop offset="0.0" stop-color="#54b4cc"/>
      <stop offset="0.7176470588235294" stop-color="#54b4cc"/>
      <stop offset="1.0" stop-color="#3e8699"/>
    </radialGradient>
    <g id="sprite4" transform="matrix(1.0, 0.0, 0.0, 1.0, 24.8, 18.8)">
      <use height="34.35" transform="matrix(0.9966, -0.0792, 0.0792, 0.9966, -24.8179, -15.3403)" width="21.5" xlink:href="#sprite5"/>
      <use height="34.35" transform="matrix(-0.9984, 0.0487, 0.0487, 0.9984, 23.0507, -18.7968)" width="21.5" xlink:href="#sprite5"/>
    </g>
    <g id="sprite5" transform="matrix(1.0, 0.0, 0.0, 1.0, 10.75, 17.1)">
      <use height="34.35" transform="matrix(1.0, 0.0, 0.0, 1.0, -10.75, -17.1)" width="21.5" xlink:href="#shape4"/>
      <use height="26.55" transform="matrix(1.0, 0.0, 0.0, 1.0, -9.7998, -10.4998)" width="19.65" xlink:href="#sprite6"/>
    </g>
    <g id="shape4" transform="matrix(1.0, 0.0, 0.0, 1.0, 10.75, 17.1)">
      <path d="M5.95 -10.15 Q7.85 -9.0 9.2 -6.25 11.0 -2.55 10.7 5.25 10.55 10.6 9.9 13.45 9.2 16.85 -0.3 17.2 L-5.65 17.05 -7.8 16.65 Q-9.35 15.2 -10.15 11.4 -10.9 7.7 -10.7 2.75 -10.45 -2.95 -7.75 -6.95 -4.95 -11.05 -0.7 -11.35 L1.55 -11.5 Q3.85 -11.4 5.35 -10.45 L5.95 -10.15 M5.65 -9.15 Q4.05 -10.35 1.2 -10.5 -5.65 -10.9 -8.85 -1.8 -6.2 -6.1 -2.1 -7.65 2.65 -9.45 7.75 -6.65 L5.65 -9.15 M8.05 -5.7 Q2.25 -7.75 -2.05 -6.1 -5.85 -4.65 -8.8 -0.25 L-9.2 3.0 Q-9.4 7.6 -8.55 11.15 -7.8 14.5 -6.45 15.85 L-6.85 15.9 -5.5 16.1 -0.35 16.2 Q4.55 16.05 7.55 13.25 8.85 12.05 9.25 5.0 9.65 -2.4 8.05 -5.65 L8.05 -5.7 M-0.3 -16.95 Q2.5 -17.7 3.7 -15.2 -1.55 -17.35 -5.3 -12.25 L-4.25 -14.05 Q-2.8 -16.3 -0.3 -16.95 M-6.0 7.9 L-0.35 6.6 -5.9 3.7 Q-5.1 -2.45 -0.35 -2.3 5.2 -2.15 5.2 6.2 5.2 10.1 4.15 11.95 2.85 14.35 -0.4 14.45 -5.35 14.6 -6.0 7.9" fill="#000000" fill-rule="evenodd" stroke="none"/>
      <path d="M8.05 -5.7 L8.05 -5.65 Q9.65 -2.4 9.25 5.0 8.85 12.05 7.55 13.25 4.55 16.05 -0.35 16.2 L-5.5 16.1 -6.85 15.9 -6.45 15.85 Q-7.8 14.5 -8.55 11.15 -9.4 7.6 -9.2 3.0 L-8.8 -0.25 Q-5.85 -4.65 -2.05 -6.1 2.25 -7.75 8.05 -5.7 M-6.0 7.9 Q-5.35 14.6 -0.4 14.45 2.85 14.35 4.15 11.95 5.2 10.1 5.2 6.2 5.2 -2.15 -0.35 -2.3 -5.1 -2.45 -5.9 3.7 L-0.35 6.6 -6.0 7.9" fill="#ffffff" fill-rule="evenodd" stroke="none"/>
      <path d="M5.65 -9.15 L7.75 -6.65 Q2.65 -9.45 -2.1 -7.65 -6.2 -6.1 -8.85 -1.8 -5.65 -10.9 1.2 -10.5 4.05 -10.35 5.65 -9.15" fill="#53b3cb" fill-rule="evenodd" stroke="none"/>
    </g>
    <g id="button0" transform="matrix(1.0, 0.0, 0.0, 1.0, 35.25, 17.7)">
      <use height="37.45" transform="matrix(1.0, 0.0, 0.0, 1.0, -35.25, -17.7)" width="70.25" xlink:href="#shape5"/>
    </g>
    <g id="shape5" transform="matrix(1.0, 0.0, 0.0, 1.0, 35.25, 17.7)">
      <path d="M4.2 -7.65 L8.85 -7.55 13.9 -6.85 Q16.5 -6.25 18.15 -4.1 L21.25 -0.05 Q22.85 2.05 25.2 3.35 27.0 4.35 28.75 5.5 L27.35 7.05 25.65 6.35 Q23.4 5.5 21.8 3.4 L20.85 1.85 19.15 -0.9 Q16.7 -4.8 12.35 -6.4 9.2 -7.55 4.2 -7.65 M-25.8 -12.0 L-33.0 -3.9 -34.25 -5.4 -34.2 -5.5 Q-34.1 -5.8 -34.35 -6.0 L-34.35 -6.2 -34.3 -7.35 -34.2 -7.55 -34.0 -8.4 -33.9 -8.5 Q-33.65 -8.75 -33.65 -9.1 L-33.5 -9.2 -33.4 -9.3 -33.35 -9.4 -33.3 -9.6 -33.2 -9.7 -33.05 -9.85 Q-31.7 -12.35 -30.6 -14.95 L-30.55 -15.05 -30.3 -16.25 -25.8 -12.0 M-30.95 3.1 Q-29.9 2.8 -29.0 1.85 -28.9 3.6 -27.6 3.6 L-27.5 3.6 Q-28.55 4.8 -29.9 5.05 L-30.55 3.8 -30.95 3.4 -30.95 3.25 -30.95 3.1 M-27.2 -0.6 L-27.0 -0.9 Q-21.5 -9.15 -15.75 -9.15 L-10.05 -8.55 -5.8 -8.0 -14.35 -8.4 Q-18.65 -7.1 -20.35 -6.15 -23.05 -4.65 -24.6 -1.9 L-26.35 1.7 -26.35 0.85 Q-26.35 -0.4 -27.2 -0.6 M-31.0 -16.35 L-31.0 -16.9 -30.95 -16.85 -31.0 -16.35" fill="#a88b69" fill-rule="evenodd" stroke="none"/>
      <path d="M-5.8 -8.0 L4.2 -7.65 Q9.2 -7.55 12.35 -6.4 16.7 -4.8 19.15 -0.9 L20.85 1.85 21.8 3.4 Q23.4 5.5 25.65 6.35 L27.35 7.05 25.2 9.4 Q16.9 16.45 6.05 18.0 L3.85 18.6 0.65 18.45 0.25 18.35 0.0 18.4 -4.25 18.05 -9.8 17.2 Q-19.8 14.95 -27.6 8.1 L-29.9 5.05 Q-28.55 4.8 -27.5 3.6 -26.6 3.5 -26.4 1.85 L-26.35 1.7 -24.6 -1.9 Q-23.05 -4.65 -20.35 -6.15 -18.65 -7.1 -14.35 -8.4 L-5.8 -8.0 M-7.75 18.8 L-7.95 18.75 -12.45 17.9 Q-14.6 17.35 -16.45 16.25 L-15.25 16.7 Q-11.6 18.0 -7.75 18.8 M-22.15 13.2 L-24.4 11.8 -26.45 10.3 Q-24.5 11.75 -22.35 13.0 L-22.15 13.2 M22.15 5.75 Q22.15 4.75 20.9 4.75 20.0 4.75 19.35 5.45 18.75 6.15 18.75 7.1 18.75 8.0 19.75 8.0 20.75 8.0 21.45 7.35 22.15 6.7 22.15 5.75 M-23.65 -2.6 Q-24.55 -2.6 -24.55 -1.15 -24.55 0.1 -23.65 0.1 -22.85 0.1 -22.85 -1.65 -22.85 -2.6 -23.65 -2.6" fill="#8c7357" fill-rule="evenodd" stroke="none"/>
      <path d="M28.75 5.5 Q27.0 4.35 25.2 3.35 22.85 2.05 21.25 -0.05 L18.15 -4.1 Q16.5 -6.25 13.9 -6.85 L8.85 -7.55 4.2 -7.65 -5.8 -8.0 -10.05 -8.55 -15.75 -9.15 Q-21.5 -9.15 -27.0 -0.9 L-27.2 -0.6 Q-27.95 -0.6 -28.45 0.1 -29.0 0.85 -29.0 1.85 -29.9 2.8 -30.95 3.1 L-31.3 2.65 -32.4 -0.9 Q-32.25 -2.55 -33.0 -3.9 L-25.8 -12.0 -25.5 -11.75 Q-21.6 -14.35 -15.0 -15.75 -8.4 -17.1 -0.9 -16.9 16.05 -16.4 26.3 -9.15 26.85 -7.7 28.1 -5.7 29.45 -3.5 29.85 -1.0 L30.55 3.45 28.75 5.5 M24.15 -2.0 Q24.15 -2.95 23.5 -3.15 22.65 -3.3 22.65 -2.0 22.65 -0.5 23.15 -0.5 24.15 -0.35 24.15 -2.0 M26.45 3.2 Q27.1 3.25 27.1 1.9 L27.1 1.85 Q27.1 0.4 26.1 0.8 25.8 0.9 25.85 1.85 L25.85 2.0 Q25.85 3.15 26.45 3.2 M-28.3 -5.95 Q-28.95 -5.95 -28.95 -4.5 -28.95 -3.2 -28.3 -3.2 -27.7 -3.2 -27.7 -4.95 -27.7 -5.95 -28.3 -5.95 M-31.3 -5.1 Q-31.8 -5.1 -31.8 -3.7 -31.8 -2.5 -31.3 -2.5 -30.8 -2.5 -30.8 -4.2 -30.8 -5.1 -31.3 -5.1" fill="#c19f79" fill-rule="evenodd" stroke="none"/>
      <path d="M30.55 3.45 L29.85 -1.0 Q29.45 -3.5 28.1 -5.7 26.85 -7.7 26.3 -9.15 L30.1 -13.7 Q30.05 -12.7 30.4 -11.65 L31.8 -9.0 Q33.75 -5.55 34.0 -1.8 33.65 -0.15 32.5 1.2 L30.55 3.45 M30.85 -13.6 L30.9 -13.55 30.85 -13.6 M34.55 -4.25 Q35.05 -3.25 35.0 -2.25 L34.8 -3.35 34.55 -4.25" fill="#b2936f" fill-rule="evenodd" stroke="none"/>
      <path d="M-29.0 1.85 Q-29.0 0.85 -28.45 0.1 -27.95 -0.6 -27.2 -0.6 -26.35 -0.4 -26.35 0.85 L-26.35 1.7 -26.4 1.85 Q-26.6 3.5 -27.5 3.6 L-27.6 3.6 Q-28.9 3.6 -29.0 1.85 M24.15 -2.0 Q24.15 -0.35 23.15 -0.5 22.65 -0.5 22.65 -2.0 22.65 -3.3 23.5 -3.15 24.15 -2.95 24.15 -2.0 M26.45 3.2 Q25.85 3.15 25.85 2.0 L25.85 1.85 Q25.8 0.9 26.1 0.8 27.1 0.4 27.1 1.85 L27.1 1.9 Q27.1 3.25 26.45 3.2 M22.15 5.75 Q22.15 6.7 21.45 7.35 20.75 8.0 19.75 8.0 18.75 8.0 18.75 7.1 18.75 6.15 19.35 5.45 20.0 4.75 20.9 4.75 22.15 4.75 22.15 5.75 M-31.3 -5.1 Q-30.8 -5.1 -30.8 -4.2 -30.8 -2.5 -31.3 -2.5 -31.8 -2.5 -31.8 -3.7 -31.8 -5.1 -31.3 -5.1 M-28.3 -5.95 Q-27.7 -5.95 -27.7 -4.95 -27.7 -3.2 -28.3 -3.2 -28.95 -3.2 -28.95 -4.5 -28.95 -5.95 -28.3 -5.95 M-23.65 -2.6 Q-22.85 -2.6 -22.85 -1.65 -22.85 0.1 -23.65 0.1 -24.55 0.1 -24.55 -1.15 -24.55 -2.6 -23.65 -2.6" fill="#352c21" fill-rule="evenodd" stroke="none"/>
      <path d="M28.75 5.5 L30.55 3.45 32.5 1.2 Q33.65 -0.15 34.0 -1.8 33.75 -5.55 31.8 -9.0 L30.4 -11.65 Q30.05 -12.7 30.1 -13.7 L30.3 -14.9 30.45 -15.05 30.9 -14.0 30.9 -13.9 30.9 -13.8 30.85 -13.6 30.9 -13.55 31.3 -12.05 31.35 -11.95 Q33.25 -8.2 34.55 -4.25 L34.8 -3.35 35.0 -2.25 Q35.0 -1.3 34.5 -0.4 33.55 1.35 32.15 2.75 L30.65 4.65 Q27.7 9.0 23.5 12.15 17.4 16.6 10.15 18.25 L5.5 19.25 -0.15 19.7 -7.75 18.8 Q-11.6 18.0 -15.25 16.7 L-16.45 16.25 Q-18.5 15.4 -20.35 14.2 L-20.75 13.95 -21.7 13.45 -22.05 13.3 -22.15 13.2 -22.35 13.0 Q-24.5 11.75 -26.45 10.3 L-28.35 8.8 Q-30.25 6.65 -31.5 4.2 -33.2 1.55 -33.3 -1.55 -33.4 -3.3 -34.9 -4.2 L-35.25 -5.55 -35.25 -5.7 Q-35.25 -7.55 -34.4 -9.2 L-34.3 -9.35 -34.0 -9.85 -33.95 -9.95 Q-32.55 -12.05 -31.6 -14.45 L-31.6 -14.65 -31.6 -14.85 -31.0 -16.35 -30.95 -16.85 -30.95 -16.95 -30.95 -17.05 Q-31.25 -17.55 -30.7 -17.65 L-30.7 -17.7 Q-30.3 -17.0 -30.3 -16.25 L-30.55 -15.05 -30.6 -14.95 Q-31.7 -12.35 -33.05 -9.85 L-33.2 -9.7 -33.3 -9.6 -33.35 -9.4 -33.4 -9.3 -33.5 -9.2 -33.65 -9.1 Q-33.65 -8.75 -33.9 -8.5 L-34.0 -8.4 -34.2 -7.55 -34.3 -7.35 -34.35 -6.2 -34.35 -6.0 Q-34.1 -5.8 -34.2 -5.5 L-34.25 -5.4 -33.0 -3.9 Q-32.25 -2.55 -32.4 -0.9 L-31.3 2.65 -30.95 3.1 -30.95 3.25 -30.95 3.4 -30.55 3.8 -29.9 5.05 -27.6 8.1 Q-19.8 14.95 -9.8 17.2 L-4.25 18.05 0.0 18.4 0.25 18.35 0.65 18.45 3.85 18.6 6.05 18.0 Q16.9 16.45 25.2 9.4 L27.35 7.05 28.75 5.5" fill="#000000" fill-rule="evenodd" stroke="none"/>
    </g>
    <g id="sprite7" transform="matrix(1.0, 0.0, 0.0, 1.0, 20.35, 2.85)">
      <use height="5.7" transform="matrix(1.0, 0.0, 0.0, 1.0, -20.35, -2.85)" width="40.65" xlink:href="#shape6"/>
    </g>
    <g id="shape6" transform="matrix(1.0, 0.0, 0.0, 1.0, 20.35, 2.85)">
      <path d="M-17.95 -1.45 L0.05 -1.2 12.65 -0.65 17.4 -0.35 20.3 -1.6 -0.6 -1.95 -20.35 -2.85 -17.95 -1.45" fill="#65543f" fill-rule="evenodd" stroke="none"/>
      <path d="M-4.35 2.8 L7.25 2.7 Q11.05 2.4 13.85 1.25 0.7 -0.65 -15.75 0.1 -11.7 2.3 -4.35 2.8" fill="#8c7357" fill-rule="evenodd" stroke="none"/>
    </g>
    <g id="sprite8" transform="matrix(1.0, 0.0, 0.0, 1.0, 17.2, 11.2)">
      <use height="22.4" transform="matrix(1.0, 0.0, 0.0, 1.0, -17.2, -11.2)" width="34.4" xlink:href="#shape7"/>
    </g>
    <g id="shape7" transform="matrix(1.0, 0.0, 0.0, 1.0, 17.2, 11.2)">
      <path d="M-11.8 8.6 Q-6.85 11.2 0.95 11.2 8.6 11.2 12.45 8.9 16.85 6.25 17.2 0.05 17.45 -4.4 12.3 -7.8 7.15 -11.2 0.05 -11.2 -7.5 -11.2 -12.05 -8.5 -17.0 -5.5 -17.2 0.05 -17.35 5.6 -11.8 8.6" fill="url(#gradient1)" fill-rule="evenodd" stroke="none"/>
      <path d="M2.2 -0.55 Q3.45 0.3 5.2 0.3 6.95 0.3 8.2 -0.55 9.45 -1.45 9.45 -2.7 9.45 -3.95 8.2 -4.8 6.95 -5.7 5.2 -5.7 3.45 -5.7 2.2 -4.8 0.95 -3.95 0.95 -2.7 0.95 -1.45 2.2 -0.55" fill="url(#gradient2)" fill-rule="evenodd" stroke="none"/>
    </g>
    <radialGradient cx="0" cy="0" gradientTransform="matrix(0.022, 0.0, 0.0, 0.022, 0.65, -2.1)" gradientUnits="userSpaceOnUse" id="gradient1" r="819.2" spreadMethod="pad">
      <stop offset="0.0" stop-color="#202020"/>
      <stop offset="0.7843137254901961" stop-color="#0a0a0a"/>
      <stop offset="1.0" stop-color="#0a0a0a"/>
    </radialGradient>
    <radialGradient cx="0" cy="0" gradientTransform="matrix(0.0052, 0.0, 0.0, 0.0052, 5.2, -2.7)" gradientUnits="userSpaceOnUse" id="gradient2" r="819.2" spreadMethod="pad">
      <stop offset="0.0" stop-color="#5d5d5d"/>
      <stop offset="0.37254901960784315" stop-color="#5d5d5d"/>
      <stop offset="1.0" stop-color="#202020"/>
    </radialGradient>
    <g id="shape8" transform="matrix(1.0, 0.0, 0.0, 1.0, 10.85, 55.6)">
      <path d="M18.6 -55.6 L19.6 -53.45 19.65 -53.35 Q19.6 -52.45 18.9 -51.9 L18.75 -51.85 Q18.35 -51.85 18.1 -52.15 L18.15 -54.55 18.1 -54.8 18.45 -55.5 18.6 -55.6 M23.4 -44.65 Q24.7 -43.5 24.8 -41.75 L24.75 -41.4 Q23.3 -40.6 22.45 -42.15 22.5 -44.45 21.9 -46.45 L22.1 -46.8 Q22.45 -46.7 22.4 -46.35 L22.4 -46.2 Q23.1 -45.65 23.35 -44.75 L23.4 -44.65 M18.9 -47.45 Q20.3 -46.5 20.65 -44.95 L20.6 -44.85 Q20.15 -44.3 19.45 -44.6 L19.1 -44.95 19.0 -45.8 19.0 -46.3 Q18.65 -46.7 18.75 -47.2 L18.9 -47.45 M23.95 -38.15 Q24.3 -36.55 24.2 -34.7 L24.2 -34.55 24.45 -34.35 25.3 -31.65 Q25.0 -31.05 24.35 -30.8 23.65 -30.9 23.4 -31.6 L23.4 -31.85 23.45 -31.95 Q23.3 -34.45 23.7 -37.0 L23.8 -37.35 Q23.6 -37.8 23.8 -38.1 L23.95 -38.15 M-7.55 -44.95 Q-7.7 -43.75 -8.7 -42.95 -8.65 -41.45 -9.05 -40.05 L-9.15 -39.8 -9.85 -39.75 -10.35 -40.25 Q-10.55 -41.05 -10.4 -41.8 L-10.4 -41.9 -10.4 -42.15 -10.4 -42.25 Q-8.25 -45.0 -7.05 -47.95 -6.65 -47.65 -6.7 -47.0 L-6.7 -46.85 Q-6.85 -45.8 -7.55 -44.95 M-9.45 -35.65 L-9.4 -35.3 -9.45 -35.2 -9.35 -33.55 -9.35 -33.4 -9.65 -33.05 Q-9.6 -30.25 -9.7 -27.5 L-9.7 -27.4 -9.25 -26.85 Q-8.5 -24.6 -9.95 -23.15 -10.5 -23.15 -10.8 -23.6 -11.0 -25.0 -10.15 -26.0 -9.45 -29.5 -9.95 -33.1 L-9.95 -33.2 Q-9.95 -34.5 -9.5 -35.65 L-9.45 -35.65" fill="#dfefff" fill-rule="evenodd" stroke="none"/>
    </g>
  </defs>
</svg>
