<?xml version="1.0" encoding="UTF-8" standalone="no"?>
<svg xmlns:xlink="http://www.w3.org/1999/xlink" height="181.25px" width="455.15px" xmlns="http://www.w3.org/2000/svg">
  <g transform="matrix(1.0, 0.0, 0.0, 1.0, 265.05, 116.9)">
    <clipPath id="clipPath0" transform="matrix(1.0, 0.0, 0.0, 1.0, 265.05, 116.9)">
      <use height="97.95" transform="matrix(1.0, 0.0, 0.0, 1.0, -133.45, -105.6)" width="266.5" xlink:href="#shape0"/>
    </clipPath>
    <g clip-path="url(#clipPath0)">
      <use height="47.95" transform="matrix(1.0, 0.0, 0.0, 1.0, -63.1, -25.8)" width="134.2" xlink:href="#shape1"/>
      <use height="78.0" transform="matrix(0.4973, 0.0042, -0.0042, 0.4972, -16.4316, -42.1393)" width="91.05" xlink:href="#sprite0"/>
      <use height="37.7" transform="matrix(0.4973, 0.0042, -0.0042, 0.4972, -5.8529, -35.8033)" width="49.5" xlink:href="#sprite4"/>
      <use height="37.45" transform="matrix(0.4959, -0.0351, 0.0352, 0.4959, -10.8037, -19.8884)" width="70.25" xlink:href="#button0"/>
      <use height="5.7" transform="matrix(0.4959, -0.0351, 0.0352, 0.4959, -2.8423, -5.3981)" width="40.65" xlink:href="#sprite7"/>
      <use height="22.4" transform="matrix(0.4959, -0.0351, 0.0352, 0.4959, -1.9237, -21.2494)" width="34.4" xlink:href="#sprite8"/>
    </g>
  </g>
  <defs>
    <g id="shape0" transform="matrix(1.0, 0.0, 0.0, 1.0, 133.45, 105.6)">
      <path d="M13.0 -7.65 Q-38.8 -7.65 -80.8 -8.25 -122.85 -8.9 -133.05 -12.2 L-133.05 -12.35 Q-133.05 -13.25 -132.55 -14.1 L-133.45 -14.1 -133.45 -105.6 133.05 -105.6 133.05 -14.1 130.85 -14.1 131.1 -13.6 Q127.35 -12.1 112.55 -10.7 L81.25 -8.45 Q64.75 -7.65 13.0 -7.65" fill="#0066ff" fill-rule="evenodd" stroke="none"/>
    </g>
    <g id="shape1" transform="matrix(1.0, 0.0, 0.0, 1.0, 63.1, 25.8)">
      <path d="M35.15 -25.3 Q35.7 -25.85 36.55 -25.75 L37.15 -25.75 Q54.5 -25.2 70.85 -20.0 L71.1 -19.85 35.0 -25.1 35.15 -25.3 M9.5 -24.95 Q-7.6 -25.5 -24.6 -24.0 -39.0 -22.85 -53.15 -20.0 L-63.1 -18.05 Q-58.55 -21.45 -52.0 -22.3 L-23.8 -25.15 -8.6 -25.7 9.4 -25.05 9.5 -24.95 M37.9 -21.55 L38.0 -21.45 Q14.15 -23.3 -9.9 -21.75 L-27.8 -20.1 -28.9 -20.1 Q-24.65 -22.1 -19.15 -22.55 L3.55 -23.75 29.95 -22.75 Q27.7 -23.15 25.95 -23.95 L34.05 -22.5 34.1 -22.4 31.75 -22.5 37.9 -21.55" fill="#dfefff" fill-rule="evenodd" stroke="none"/>
      <path d="M-11.55 22.15 L-12.7 22.15 -12.65 22.05 -12.65 22.0 -12.75 21.8 Q-12.35 18.65 -10.9 16.15 -12.9 15.35 -14.5 13.65 L-14.6 13.25 Q-14.6 12.95 -14.4 12.8 -8.8 10.8 -5.35 5.75 -1.9 0.7 3.85 -1.1 L3.55 -3.85 Q2.3 -6.15 3.8 -7.95 4.75 -9.15 6.25 -9.1 9.1 -7.8 10.15 -5.35 10.85 -3.7 10.75 -1.4 L10.7 -0.7 11.05 -0.4 11.1 -0.3 11.65 0.05 Q18.3 3.6 23.1 9.5 25.0 11.85 27.8 13.05 L31.35 14.7 Q30.7 17.05 28.25 18.6 L26.65 19.5 27.2 20.6 27.25 20.65 27.45 21.3 27.5 21.4 27.8 22.15 26.5 22.15 26.2 21.4 26.15 21.3 25.7 19.95 Q23.75 20.75 21.7 21.15 L22.2 22.15 21.4 22.15 21.0 21.25 20.45 21.3 20.4 22.15 19.5 22.15 19.5 20.65 Q19.35 14.6 17.25 8.95 16.15 6.1 14.35 3.8 12.75 1.75 10.65 0.2 L10.6 0.2 10.45 1.4 10.6 1.9 10.75 1.85 11.05 1.85 Q10.9 4.25 7.8 4.4 4.05 4.55 2.75 1.45 L2.75 1.15 Q2.9 0.9 3.2 0.95 L3.2 0.9 Q3.7 1.0 3.65 1.55 L3.65 1.65 4.1 2.05 3.9 -0.15 1.3 0.85 -0.45 2.25 -1.15 3.2 -1.25 3.25 Q-1.2 3.55 -1.45 3.75 L-1.55 3.85 Q-3.0 8.55 -5.3 12.9 L-6.5 15.1 -7.6 16.9 -7.75 17.1 -7.95 17.2 -7.95 17.3 -9.45 19.5 -11.2 21.65 -11.55 22.15 M5.35 22.15 L4.45 22.15 4.25 21.55 3.25 20.05 2.6 19.15 2.45 19.0 Q0.7 16.0 -2.05 17.9 L-2.7 18.5 Q-4.4 20.1 -5.3 22.15 L-11.4 22.15 -10.7 21.95 -8.85 21.6 -6.3 21.65 -6.2 21.65 Q-5.4 20.0 -4.2 18.55 L-4.15 18.45 -3.0 17.3 Q-2.3 16.6 -1.3 16.3 L-0.8 16.15 -0.3 16.0 1.3 16.4 1.75 16.65 1.95 16.75 2.75 17.7 3.4 18.55 3.95 19.45 5.35 22.15 M9.35 -3.65 L9.3 -3.85 Q9.05 -6.9 6.1 -7.95 5.3 -8.25 4.65 -7.75 3.7 -7.05 3.65 -6.0 L3.65 -5.95 3.7 -6.0 Q4.45 -3.65 4.75 -1.05 L4.85 2.6 Q7.15 4.1 9.7 2.4 L9.35 -3.65 M23.95 19.45 L25.55 18.8 Q25.65 18.55 25.95 18.6 L25.95 18.55 26.0 18.6 26.75 18.3 Q28.85 17.3 30.1 15.4 22.7 11.95 17.65 5.5 L17.55 5.4 17.4 5.1 17.3 4.9 14.85 2.95 Q15.85 4.05 16.65 5.4 L17.9 8.0 18.2 8.8 Q20.3 14.5 20.4 20.7 L23.95 19.45 M-2.35 4.05 L-2.3 3.9 -2.4 4.0 Q-5.8 7.05 -8.8 10.55 -10.5 12.6 -13.05 13.5 L-11.65 14.6 -11.4 14.75 -9.25 15.8 -8.35 16.15 -8.15 15.95 -8.1 15.75 -8.1 15.65 -7.9 15.4 -6.75 13.75 -6.35 12.95 -6.3 12.9 -5.15 10.5 Q-3.8 7.6 -2.75 4.65 L-2.7 4.45 -2.35 4.05 M-9.6 16.55 L-10.3 16.35 -11.35 19.95 -10.25 18.4 -8.85 16.7 -9.6 16.55 M-29.7 22.15 L-30.65 22.15 -29.1 19.25 Q-28.1 17.6 -26.65 16.5 L-26.6 16.5 Q-25.95 15.75 -25.1 15.4 L-24.6 15.2 Q-20.6 17.0 -18.6 20.75 L-18.4 19.55 -18.25 18.7 -17.95 18.45 -17.8 18.4 Q-15.95 20.65 -13.55 22.15 L-15.55 22.15 -16.9 20.7 -17.3 20.2 -17.65 22.15 -19.0 22.15 -19.2 21.75 Q-19.4 21.25 -19.8 20.9 -20.85 18.7 -22.8 17.2 L-23.7 16.5 -24.3 16.25 -24.45 16.2 Q-24.95 16.3 -25.3 16.6 L-26.1 17.25 -26.25 17.4 -26.45 17.6 Q-28.5 19.5 -29.7 22.1 L-29.7 22.15" fill="#000000" fill-rule="evenodd" stroke="none"/>
      <path d="M24.4 22.15 L22.2 22.15 21.7 21.15 Q23.75 20.75 25.7 19.95 L26.15 21.3 24.4 22.15 M3.0 22.15 L-0.35 22.15 -0.15 21.85 0.05 21.75 0.8 21.5 1.15 21.5 1.5 21.4 Q1.5 21.3 1.65 21.3 2.25 21.35 2.6 21.8 L2.9 22.1 3.0 22.15 M9.35 -3.65 L9.0 -3.2 8.2 -2.35 Q7.3 -1.5 6.1 -1.15 L5.25 -1.05 4.75 -1.05 Q4.45 -3.65 3.7 -6.0 L3.65 -6.0 Q3.7 -7.05 4.65 -7.75 5.3 -8.25 6.1 -7.95 9.05 -6.9 9.3 -3.85 L9.35 -3.65 M-10.25 18.4 L-9.6 16.55 -8.85 16.7 -10.25 18.4" fill="#0db5c8" fill-rule="evenodd" stroke="none"/>
      <path d="M26.5 22.15 L24.4 22.15 26.15 21.3 26.2 21.4 26.5 22.15 M4.45 22.15 L3.0 22.15 2.9 22.1 2.6 21.8 Q2.25 21.35 1.65 21.3 1.5 21.3 1.5 21.4 L1.15 21.5 0.8 21.5 0.05 21.75 -0.15 21.85 -0.35 22.15 -5.3 22.15 Q-4.4 20.1 -2.7 18.5 L-2.05 17.9 Q0.7 16.0 2.45 19.0 L2.6 19.15 3.25 20.05 4.25 21.55 4.45 22.15 M4.75 -1.05 L5.25 -1.05 6.1 -1.15 Q7.3 -1.5 8.2 -2.35 L9.0 -3.2 9.35 -3.65 9.7 2.4 Q7.15 4.1 4.85 2.6 L4.75 -1.05 M-10.25 18.4 L-11.35 19.95 -10.3 16.35 -9.6 16.55 -10.25 18.4 M-19.0 22.15 L-29.7 22.15 -29.7 22.1 Q-28.5 19.5 -26.45 17.6 L-26.25 17.4 -26.1 17.25 -25.3 16.6 Q-24.95 16.3 -24.45 16.2 L-24.3 16.25 -23.7 16.5 -22.8 17.2 Q-20.85 18.7 -19.8 20.9 -19.4 21.25 -19.2 21.75 L-19.0 22.15" fill="#0ecfe4" fill-rule="evenodd" stroke="none"/>
      <path d="M16.4 22.15 L14.35 22.15 12.9 21.05 Q10.85 19.6 8.55 18.5 6.4 17.45 4.05 16.85 L3.2 16.65 2.4 16.5 1.3 16.4 -0.3 16.0 -0.8 16.15 -1.3 16.3 -2.2 16.35 -4.5 16.5 -6.95 16.95 -7.95 17.3 -7.95 17.2 -7.75 17.1 -7.6 16.9 -6.5 15.1 -4.5 14.4 -2.95 14.1 -2.6 14.0 -0.8 13.95 -0.3 14.0 4.6 14.75 6.9 15.4 7.4 15.6 9.7 16.4 Q12.05 17.2 14.05 18.75 L14.85 19.25 16.6 20.65 16.5 21.3 16.4 22.15 M9.85 22.15 L5.35 22.15 3.95 19.45 4.95 19.8 7.25 20.8 7.9 21.1 8.45 21.4 9.85 22.15 M-11.4 22.15 L-11.55 22.15 -11.2 21.65 -9.45 19.5 -8.85 19.35 -8.1 19.15 Q-6.15 18.5 -4.15 18.45 L-4.2 18.55 Q-5.4 20.0 -6.2 21.65 L-6.3 21.65 -8.85 21.6 -10.7 21.95 -11.4 22.15 M-5.3 12.9 Q-3.0 8.55 -1.55 3.85 L-1.45 3.75 Q-1.2 3.55 -1.25 3.25 L-1.15 3.2 -0.45 2.25 1.3 0.85 3.9 -0.15 4.1 2.05 3.65 1.65 3.65 1.55 Q3.7 1.0 3.2 0.9 L3.2 0.95 Q2.9 0.9 2.75 1.15 L2.75 1.45 Q4.05 4.55 7.8 4.4 10.9 4.25 11.05 1.85 L10.75 1.85 10.6 1.9 10.45 1.4 10.6 0.2 10.65 0.2 Q12.75 1.75 14.35 3.8 L15.7 6.8 16.05 8.0 16.6 10.7 16.7 11.7 16.8 15.05 16.8 16.35 16.8 18.1 16.6 17.9 16.25 17.6 15.1 16.7 13.85 15.9 13.4 15.6 11.0 14.4 9.95 13.95 9.5 13.65 Q8.95 13.25 8.3 13.15 L7.65 12.95 4.95 12.5 3.55 12.25 -1.3 11.95 -3.5 12.35 -3.75 12.45 -4.1 12.55 -4.65 12.7 -5.3 12.9 M18.2 8.8 L17.9 8.0 16.65 5.4 Q15.85 4.05 14.85 2.95 L17.3 4.9 17.4 5.1 17.55 5.4 17.65 5.5 Q22.7 11.95 30.1 15.4 28.85 17.3 26.75 18.3 L26.0 18.6 25.95 18.55 25.95 18.6 Q25.65 18.55 25.55 18.8 L23.95 19.45 23.8 19.25 23.4 18.5 22.45 16.95 21.15 14.75 19.2 10.45 18.75 9.55 18.35 8.7 18.2 8.8 M-2.4 4.0 L-2.35 4.05 -2.7 4.45 -2.75 4.65 Q-3.8 7.6 -5.15 10.5 L-5.75 11.1 -6.5 11.8 Q-8.05 13.1 -9.75 14.1 L-11.4 14.75 -11.65 14.6 -13.05 13.5 Q-10.5 12.6 -8.8 10.55 -5.8 7.05 -2.4 4.0" fill="#f02d0b" fill-rule="evenodd" stroke="none"/>
      <path d="M19.5 22.15 L18.45 22.15 17.5 21.3 17.15 21.05 16.6 20.65 14.85 19.25 14.05 18.75 Q12.05 17.2 9.7 16.4 L7.4 15.6 6.9 15.4 4.6 14.75 -0.3 14.0 -0.8 13.95 -2.6 14.0 -2.95 14.1 -4.5 14.4 -6.5 15.1 -5.3 12.9 -4.65 12.7 -4.1 12.55 -3.75 12.45 -3.5 12.35 -1.3 11.95 3.55 12.25 4.95 12.5 7.65 12.95 8.3 13.15 Q8.95 13.25 9.5 13.65 L9.95 13.95 11.0 14.4 13.4 15.6 13.85 15.9 15.1 16.7 16.25 17.6 16.6 17.9 16.8 18.1 17.95 19.1 18.25 19.3 18.65 19.7 18.85 19.85 19.5 20.65 19.5 22.15 M14.35 22.15 L9.85 22.15 8.45 21.4 7.9 21.1 7.25 20.8 4.95 19.8 3.95 19.45 3.4 18.55 2.75 17.7 1.95 16.75 1.75 16.65 1.3 16.4 2.4 16.5 3.2 16.65 4.05 16.85 Q6.4 17.45 8.55 18.5 10.85 19.6 12.9 21.05 L14.35 22.15 M-9.45 19.5 L-7.95 17.3 -6.95 16.95 -4.5 16.5 -2.2 16.35 -1.3 16.3 Q-2.3 16.6 -3.0 17.3 L-4.15 18.45 Q-6.15 18.5 -8.1 19.15 L-8.85 19.35 -9.45 19.5" fill="#c62509" fill-rule="evenodd" stroke="none"/>
      <path d="M18.45 22.15 L16.4 22.15 16.5 21.3 16.6 20.65 17.15 21.05 17.5 21.3 18.45 22.15 M14.35 3.8 Q16.15 6.1 17.25 8.95 19.35 14.6 19.5 20.65 L18.85 19.85 18.65 19.7 18.25 19.3 17.95 19.1 16.8 18.1 16.8 16.35 16.8 15.05 16.7 11.7 16.6 10.7 16.05 8.0 15.7 6.8 14.35 3.8 M18.2 8.8 L18.35 8.7 18.75 9.55 19.2 10.45 21.15 14.75 22.45 16.95 23.4 18.5 23.8 19.25 23.95 19.45 20.4 20.7 Q20.3 14.5 18.2 8.8 M-5.15 10.5 L-6.3 12.9 -6.35 12.95 -6.75 13.75 -7.9 15.4 -8.1 15.65 -8.1 15.75 -8.15 15.95 -8.35 16.15 -9.25 15.8 -11.4 14.75 -9.75 14.1 Q-8.05 13.1 -6.5 11.8 L-5.75 11.1 -5.15 10.5" fill="#d6280a" fill-rule="evenodd" stroke="none"/>
      <path d="M-15.55 22.15 L-17.65 22.15 -17.3 20.2 -16.9 20.7 -15.55 22.15" fill="#666666" fill-rule="evenodd" stroke="none"/>
    </g>
    <g id="sprite0" transform="matrix(1.0, 0.0, 0.0, 1.0, 46.65, 39.3)">
      <use height="68.55" transform="matrix(0.9994, 0.0085, -0.0085, 0.9994, 23.2973, -32.1191)" width="21.1" xlink:href="#sprite1"/>
      <use height="69.3" transform="matrix(-0.999, 0.0348, 0.0348, 0.999, -23.1916, -31.339)" width="23.5" xlink:href="#sprite2"/>
      <use height="57.65" transform="matrix(0.9966, -0.0792, 0.0792, 0.9966, -35.9936, -33.9156)" width="68.05" xlink:href="#sprite3"/>
    </g>
    <g id="sprite1" transform="matrix(1.0, 0.0, 0.0, 1.0, 10.55, 34.3)">
      <use height="68.55" transform="matrix(1.0, 0.0, 0.0, 1.0, -10.55, -34.3)" width="21.1" xlink:href="#shape2"/>
    </g>
    <g id="shape2" transform="matrix(1.0, 0.0, 0.0, 1.0, 10.55, 34.3)">
      <path d="M6.6 -9.2 Q5.55 -23.75 0.1 -29.7 L-8.65 -27.2 -10.55 -29.45 Q-7.8 -31.05 -2.0 -32.9 4.45 -34.95 5.35 -33.95 10.2 -28.6 10.5 -4.3 10.65 5.1 10.0 14.75 L8.75 32.2 Q7.85 35.65 6.4 33.35 7.25 -0.15 6.6 -9.2" fill="#000000" fill-rule="evenodd" stroke="none"/>
    </g>
    <g id="sprite2" transform="matrix(1.0, 0.0, 0.0, 1.0, 10.7, 32.5)">
      <use height="68.55" transform="matrix(1.0, 0.0, 0.0, 1.0, -10.55, -31.8)" width="21.1" xlink:href="#sprite1"/>
    </g>
    <g id="sprite3" transform="matrix(1.0, 0.0, 0.0, 1.0, 33.9, 29.15)">
      <use height="57.65" transform="matrix(1.0, 0.0, 0.0, 1.0, -33.9, -29.15)" width="68.05" xlink:href="#shape3"/>
    </g>
    <g id="shape3" transform="matrix(1.0, 0.0, 0.0, 1.0, 33.9, 29.15)">
      <path d="M-22.05 21.5 L-21.1 22.05 Q-20.7 22.05 -20.7 21.7 L-20.75 21.55 Q-25.3 18.15 -28.85 13.7 L-28.85 13.6 -28.9 13.3 Q-32.55 7.8 -32.75 1.15 L-32.85 0.9 -32.8 0.7 -32.9 -1.05 -32.85 -1.15 -32.8 -1.3 -32.8 -1.8 -32.75 -2.2 -32.55 -5.05 -32.45 -5.2 -32.35 -5.5 -32.35 -5.6 -32.4 -5.8 -32.05 -6.8 -30.9 -10.7 -30.55 -11.1 -29.7 -12.95 -29.5 -13.2 -28.9 -14.2 -28.75 -14.25 -28.5 -14.5 -28.3 -14.7 -27.45 -16.05 -27.05 -16.25 -27.0 -16.35 -26.5 -17.1 -26.35 -17.15 -22.85 -20.4 Q-21.6 -21.05 -20.4 -22.05 -19.1 -23.15 -17.6 -23.85 L-17.5 -23.95 -17.4 -24.1 -17.3 -24.2 -15.1 -25.1 -13.15 -25.7 -7.3 -27.35 Q4.05 -29.7 14.8 -25.0 L19.15 -22.9 Q24.45 -20.1 27.7 -15.3 L27.9 -15.2 28.15 -15.2 Q28.55 -14.35 29.1 -13.55 33.35 -7.2 32.9 0.15 L33.1 0.35 Q32.75 4.2 31.4 7.9 L31.3 8.05 Q29.55 13.2 25.8 17.05 L25.75 17.1 Q24.75 18.65 23.15 19.65 L23.05 19.8 Q22.7 20.05 22.8 20.35 L23.7 20.25 Q13.85 28.5 0.0 28.5 -12.75 28.5 -22.05 21.5 M30.8 11.75 L32.0 8.75 32.2 8.65 30.8 11.75" fill="url(#gradient0)" fill-rule="evenodd" stroke="none"/>
      <path d="M23.7 20.25 L22.8 20.35 Q22.7 20.05 23.05 19.8 L23.15 19.65 Q24.75 18.65 25.75 17.1 L25.8 17.05 Q29.55 13.2 31.3 8.05 L31.4 7.9 Q32.75 4.2 33.1 0.35 L32.9 0.15 Q33.35 -7.2 29.1 -13.55 28.55 -14.35 28.15 -15.2 L27.9 -15.2 27.7 -15.3 Q24.45 -20.1 19.15 -22.9 L14.8 -25.0 Q4.05 -29.7 -7.3 -27.35 L-13.15 -25.7 -15.1 -25.1 -17.3 -24.2 -17.4 -24.1 -17.5 -23.95 -17.6 -23.85 Q-19.1 -23.15 -20.4 -22.05 -21.6 -21.05 -22.85 -20.4 L-26.35 -17.15 -26.5 -17.1 -27.0 -16.35 -27.05 -16.25 -27.45 -16.05 -28.3 -14.7 -28.5 -14.5 -28.75 -14.25 -28.9 -14.2 -29.5 -13.2 -29.7 -12.95 -30.55 -11.1 -30.9 -10.7 -32.05 -6.8 -32.4 -5.8 -32.35 -5.6 -32.35 -5.5 -32.45 -5.2 -32.55 -5.05 -32.75 -2.2 -32.8 -1.8 -32.8 -1.3 -32.85 -1.15 -32.9 -1.05 -32.8 0.7 -32.85 0.9 -32.75 1.15 Q-32.55 7.8 -28.9 13.3 L-28.85 13.6 -28.85 13.7 Q-25.3 18.15 -20.75 21.55 L-20.7 21.7 Q-20.7 22.05 -21.1 22.05 L-22.05 21.5 Q-23.65 20.5 -25.05 19.15 -26.75 18.1 -27.85 16.25 -33.85 9.25 -33.9 0.0 L-33.75 -1.65 -33.65 -2.6 -33.65 -2.9 -33.6 -3.1 -33.55 -3.2 -33.3 -5.35 -33.3 -5.8 -31.45 -11.4 -30.8 -12.5 -30.8 -12.7 -30.75 -12.8 -30.65 -12.95 -30.55 -13.05 Q-27.45 -18.6 -22.05 -21.85 L-17.75 -24.65 Q-14.15 -26.55 -10.1 -27.7 0.0 -30.5 10.15 -27.95 17.9 -25.4 24.3 -20.4 L26.8 -18.35 26.9 -18.3 27.1 -18.2 27.25 -17.9 Q27.25 -18.1 27.5 -18.0 L27.8 -17.45 27.85 -17.35 Q31.6 -12.55 33.3 -6.75 L33.3 -6.55 Q33.9 -4.5 33.95 -2.4 L34.0 -2.3 Q33.95 -1.95 34.05 -1.65 L34.15 -1.45 34.05 -0.45 34.0 -0.2 34.1 0.05 34.1 0.15 33.8 2.9 33.7 3.25 32.45 8.2 32.2 8.65 32.0 8.75 30.8 11.75 Q28.35 16.75 23.75 20.2 L23.7 20.25" fill="#000000" fill-rule="evenodd" stroke="none"/>
    </g>
    <radialGradient cx="0" cy="0" gradientTransform="matrix(0.0435, 0.0, 0.0, 0.0435, 1.35, -6.55)" gradientUnits="userSpaceOnUse" id="gradient0" r="819.2" spreadMethod="pad">
      <stop offset="0.0" stop-color="#54b4cc"/>
      <stop offset="0.7176470588235294" stop-color="#54b4cc"/>
      <stop offset="1.0" stop-color="#3e8699"/>
    </radialGradient>
    <g id="sprite4" transform="matrix(1.0, 0.0, 0.0, 1.0, 24.8, 18.8)">
      <use height="34.35" transform="matrix(0.9966, -0.0792, 0.0792, 0.9966, -24.8179, -15.3403)" width="21.5" xlink:href="#sprite5"/>
      <use height="34.35" transform="matrix(-0.9984, 0.0487, 0.0487, 0.9984, 23.0507, -18.7968)" width="21.5" xlink:href="#sprite5"/>
    </g>
    <g id="sprite5" transform="matrix(1.0, 0.0, 0.0, 1.0, 10.75, 17.1)">
      <use height="34.35" transform="matrix(1.0, 0.0, 0.0, 1.0, -10.75, -17.1)" width="21.5" xlink:href="#shape4"/>
      <use height="26.55" transform="matrix(1.0, 0.0, 0.0, 1.0, -9.7998, -10.4998)" width="19.65" xlink:href="#sprite6"/>
    </g>
    <g id="shape4" transform="matrix(1.0, 0.0, 0.0, 1.0, 10.75, 17.1)">
      <path d="M5.95 -10.15 Q7.85 -9.0 9.2 -6.25 11.0 -2.55 10.7 5.25 10.55 10.6 9.9 13.45 9.2 16.85 -0.3 17.2 L-5.65 17.05 -7.8 16.65 Q-9.35 15.2 -10.15 11.4 -10.9 7.7 -10.7 2.75 -10.45 -2.95 -7.75 -6.95 -4.95 -11.05 -0.7 -11.35 L1.55 -11.5 Q3.85 -11.4 5.35 -10.45 L5.95 -10.15 M5.65 -9.15 Q4.05 -10.35 1.2 -10.5 -5.65 -10.9 -8.85 -1.8 -6.2 -6.1 -2.1 -7.65 2.65 -9.45 7.75 -6.65 L5.65 -9.15 M8.05 -5.7 Q2.25 -7.75 -2.05 -6.1 -5.85 -4.65 -8.8 -0.25 L-9.2 3.0 Q-9.4 7.6 -8.55 11.15 -7.8 14.5 -6.45 15.85 L-6.85 15.9 -5.5 16.1 -0.35 16.2 Q4.55 16.05 7.55 13.25 8.85 12.05 9.25 5.0 9.65 -2.4 8.05 -5.65 L8.05 -5.7 M-0.3 -16.95 Q2.5 -17.7 3.7 -15.2 -1.55 -17.35 -5.3 -12.25 L-4.25 -14.05 Q-2.8 -16.3 -0.3 -16.95 M-6.0 7.9 L-0.35 6.6 -5.9 3.7 Q-5.1 -2.45 -0.35 -2.3 5.2 -2.15 5.2 6.2 5.2 10.1 4.15 11.95 2.85 14.35 -0.4 14.45 -5.35 14.6 -6.0 7.9" fill="#000000" fill-rule="evenodd" stroke="none"/>
      <path d="M8.05 -5.7 L8.05 -5.65 Q9.65 -2.4 9.25 5.0 8.85 12.05 7.55 13.25 4.55 16.05 -0.35 16.2 L-5.5 16.1 -6.85 15.9 -6.45 15.85 Q-7.8 14.5 -8.55 11.15 -9.4 7.6 -9.2 3.0 L-8.8 -0.25 Q-5.85 -4.65 -2.05 -6.1 2.25 -7.75 8.05 -5.7 M-6.0 7.9 Q-5.35 14.6 -0.4 14.45 2.85 14.35 4.15 11.95 5.2 10.1 5.2 6.2 5.2 -2.15 -0.35 -2.3 -5.1 -2.45 -5.9 3.7 L-0.35 6.6 -6.0 7.9" fill="#ffffff" fill-rule="evenodd" stroke="none"/>
      <path d="M5.65 -9.15 L7.75 -6.65 Q2.65 -9.45 -2.1 -7.65 -6.2 -6.1 -8.85 -1.8 -5.65 -10.9 1.2 -10.5 4.05 -10.35 5.65 -9.15" fill="#53b3cb" fill-rule="evenodd" stroke="none"/>
    </g>
    <g id="button0" transform="matrix(1.0, 0.0, 0.0, 1.0, 35.25, 17.7)">
      <use height="37.45" transform="matrix(1.0, 0.0, 0.0, 1.0, -35.25, -17.7)" width="70.25" xlink:href="#shape5"/>
    </g>
    <g id="shape5" transform="matrix(1.0, 0.0, 0.0, 1.0, 35.25, 17.7)">
      <path d="M4.2 -7.65 L8.85 -7.55 13.9 -6.85 Q16.5 -6.25 18.15 -4.1 L21.25 -0.05 Q22.85 2.05 25.2 3.35 27.0 4.35 28.75 5.5 L27.35 7.05 25.65 6.35 Q23.4 5.5 21.8 3.4 L20.85 1.85 19.15 -0.9 Q16.7 -4.8 12.35 -6.4 9.2 -7.55 4.2 -7.65 M-25.8 -12.0 L-33.0 -3.9 -34.25 -5.4 -34.2 -5.5 Q-34.1 -5.8 -34.35 -6.0 L-34.35 -6.2 -34.3 -7.35 -34.2 -7.55 -34.0 -8.4 -33.9 -8.5 Q-33.65 -8.75 -33.65 -9.1 L-33.5 -9.2 -33.4 -9.3 -33.35 -9.4 -33.3 -9.6 -33.2 -9.7 -33.05 -9.85 Q-31.7 -12.35 -30.6 -14.95 L-30.55 -15.05 -30.3 -16.25 -25.8 -12.0 M-30.95 3.1 Q-29.9 2.8 -29.0 1.85 -28.9 3.6 -27.6 3.6 L-27.5 3.6 Q-28.55 4.8 -29.9 5.05 L-30.55 3.8 -30.95 3.4 -30.95 3.25 -30.95 3.1 M-27.2 -0.6 L-27.0 -0.9 Q-21.5 -9.15 -15.75 -9.15 L-10.05 -8.55 -5.8 -8.0 -14.35 -8.4 Q-18.65 -7.1 -20.35 -6.15 -23.05 -4.65 -24.6 -1.9 L-26.35 1.7 -26.35 0.85 Q-26.35 -0.4 -27.2 -0.6 M-31.0 -16.35 L-31.0 -16.9 -30.95 -16.85 -31.0 -16.35" fill="#a88b69" fill-rule="evenodd" stroke="none"/>
      <path d="M-5.8 -8.0 L4.2 -7.65 Q9.2 -7.55 12.35 -6.4 16.7 -4.8 19.15 -0.9 L20.85 1.85 21.8 3.4 Q23.4 5.5 25.65 6.35 L27.35 7.05 25.2 9.4 Q16.9 16.45 6.05 18.0 L3.85 18.6 0.65 18.45 0.25 18.35 0.0 18.4 -4.25 18.05 -9.8 17.2 Q-19.8 14.95 -27.6 8.1 L-29.9 5.05 Q-28.55 4.8 -27.5 3.6 -26.6 3.5 -26.4 1.85 L-26.35 1.7 -24.6 -1.9 Q-23.05 -4.65 -20.35 -6.15 -18.65 -7.1 -14.35 -8.4 L-5.8 -8.0 M-7.75 18.8 L-7.95 18.75 -12.45 17.9 Q-14.6 17.35 -16.45 16.25 L-15.25 16.7 Q-11.6 18.0 -7.75 18.8 M-22.15 13.2 L-24.4 11.8 -26.45 10.3 Q-24.5 11.75 -22.35 13.0 L-22.15 13.2 M22.15 5.75 Q22.15 4.75 20.9 4.75 20.0 4.75 19.35 5.45 18.75 6.15 18.75 7.1 18.75 8.0 19.75 8.0 20.75 8.0 21.45 7.35 22.15 6.7 22.15 5.75 M-23.65 -2.6 Q-24.55 -2.6 -24.55 -1.15 -24.55 0.1 -23.65 0.1 -22.85 0.1 -22.85 -1.65 -22.85 -2.6 -23.65 -2.6" fill="#8c7357" fill-rule="evenodd" stroke="none"/>
      <path d="M28.75 5.5 Q27.0 4.35 25.2 3.35 22.85 2.05 21.25 -0.05 L18.15 -4.1 Q16.5 -6.25 13.9 -6.85 L8.85 -7.55 4.2 -7.65 -5.8 -8.0 -10.05 -8.55 -15.75 -9.15 Q-21.5 -9.15 -27.0 -0.9 L-27.2 -0.6 Q-27.95 -0.6 -28.45 0.1 -29.0 0.85 -29.0 1.85 -29.9 2.8 -30.95 3.1 L-31.3 2.65 -32.4 -0.9 Q-32.25 -2.55 -33.0 -3.9 L-25.8 -12.0 -25.5 -11.75 Q-21.6 -14.35 -15.0 -15.75 -8.4 -17.1 -0.9 -16.9 16.05 -16.4 26.3 -9.15 26.85 -7.7 28.1 -5.7 29.45 -3.5 29.85 -1.0 L30.55 3.45 28.75 5.5 M24.15 -2.0 Q24.15 -2.95 23.5 -3.15 22.65 -3.3 22.65 -2.0 22.65 -0.5 23.15 -0.5 24.15 -0.35 24.15 -2.0 M26.45 3.2 Q27.1 3.25 27.1 1.9 L27.1 1.85 Q27.1 0.4 26.1 0.8 25.8 0.9 25.85 1.85 L25.85 2.0 Q25.85 3.15 26.45 3.2 M-28.3 -5.95 Q-28.95 -5.95 -28.95 -4.5 -28.95 -3.2 -28.3 -3.2 -27.7 -3.2 -27.7 -4.95 -27.7 -5.95 -28.3 -5.95 M-31.3 -5.1 Q-31.8 -5.1 -31.8 -3.7 -31.8 -2.5 -31.3 -2.5 -30.8 -2.5 -30.8 -4.2 -30.8 -5.1 -31.3 -5.1" fill="#c19f79" fill-rule="evenodd" stroke="none"/>
      <path d="M30.55 3.45 L29.85 -1.0 Q29.45 -3.5 28.1 -5.7 26.85 -7.7 26.3 -9.15 L30.1 -13.7 Q30.05 -12.7 30.4 -11.65 L31.8 -9.0 Q33.75 -5.55 34.0 -1.8 33.65 -0.15 32.5 1.2 L30.55 3.45 M30.85 -13.6 L30.9 -13.55 30.85 -13.6 M34.55 -4.25 Q35.05 -3.25 35.0 -2.25 L34.8 -3.35 34.55 -4.25" fill="#b2936f" fill-rule="evenodd" stroke="none"/>
      <path d="M-29.0 1.85 Q-29.0 0.85 -28.45 0.1 -27.95 -0.6 -27.2 -0.6 -26.35 -0.4 -26.35 0.85 L-26.35 1.7 -26.4 1.85 Q-26.6 3.5 -27.5 3.6 L-27.6 3.6 Q-28.9 3.6 -29.0 1.85 M24.15 -2.0 Q24.15 -0.35 23.15 -0.5 22.65 -0.5 22.65 -2.0 22.65 -3.3 23.5 -3.15 24.15 -2.95 24.15 -2.0 M26.45 3.2 Q25.85 3.15 25.85 2.0 L25.85 1.85 Q25.8 0.9 26.1 0.8 27.1 0.4 27.1 1.85 L27.1 1.9 Q27.1 3.25 26.45 3.2 M22.15 5.75 Q22.15 6.7 21.45 7.35 20.75 8.0 19.75 8.0 18.75 8.0 18.75 7.1 18.75 6.15 19.35 5.45 20.0 4.75 20.9 4.75 22.15 4.75 22.15 5.75 M-31.3 -5.1 Q-30.8 -5.1 -30.8 -4.2 -30.8 -2.5 -31.3 -2.5 -31.8 -2.5 -31.8 -3.7 -31.8 -5.1 -31.3 -5.1 M-28.3 -5.95 Q-27.7 -5.95 -27.7 -4.95 -27.7 -3.2 -28.3 -3.2 -28.95 -3.2 -28.95 -4.5 -28.95 -5.95 -28.3 -5.95 M-23.65 -2.6 Q-22.85 -2.6 -22.85 -1.65 -22.85 0.1 -23.65 0.1 -24.55 0.1 -24.55 -1.15 -24.55 -2.6 -23.65 -2.6" fill="#352c21" fill-rule="evenodd" stroke="none"/>
      <path d="M28.75 5.5 L30.55 3.45 32.5 1.2 Q33.65 -0.15 34.0 -1.8 33.75 -5.55 31.8 -9.0 L30.4 -11.65 Q30.05 -12.7 30.1 -13.7 L30.3 -14.9 30.45 -15.05 30.9 -14.0 30.9 -13.9 30.9 -13.8 30.85 -13.6 30.9 -13.55 31.3 -12.05 31.35 -11.95 Q33.25 -8.2 34.55 -4.25 L34.8 -3.35 35.0 -2.25 Q35.0 -1.3 34.5 -0.4 33.55 1.35 32.15 2.75 L30.65 4.65 Q27.7 9.0 23.5 12.15 17.4 16.6 10.15 18.25 L5.5 19.25 -0.15 19.7 -7.75 18.8 Q-11.6 18.0 -15.25 16.7 L-16.45 16.25 Q-18.5 15.4 -20.35 14.2 L-20.75 13.95 -21.7 13.45 -22.05 13.3 -22.15 13.2 -22.35 13.0 Q-24.5 11.75 -26.45 10.3 L-28.35 8.8 Q-30.25 6.65 -31.5 4.2 -33.2 1.55 -33.3 -1.55 -33.4 -3.3 -34.9 -4.2 L-35.25 -5.55 -35.25 -5.7 Q-35.25 -7.55 -34.4 -9.2 L-34.3 -9.35 -34.0 -9.85 -33.95 -9.95 Q-32.55 -12.05 -31.6 -14.45 L-31.6 -14.65 -31.6 -14.85 -31.0 -16.35 -30.95 -16.85 -30.95 -16.95 -30.95 -17.05 Q-31.25 -17.55 -30.7 -17.65 L-30.7 -17.7 Q-30.3 -17.0 -30.3 -16.25 L-30.55 -15.05 -30.6 -14.95 Q-31.7 -12.35 -33.05 -9.85 L-33.2 -9.7 -33.3 -9.6 -33.35 -9.4 -33.4 -9.3 -33.5 -9.2 -33.65 -9.1 Q-33.65 -8.75 -33.9 -8.5 L-34.0 -8.4 -34.2 -7.55 -34.3 -7.35 -34.35 -6.2 -34.35 -6.0 Q-34.1 -5.8 -34.2 -5.5 L-34.25 -5.4 -33.0 -3.9 Q-32.25 -2.55 -32.4 -0.9 L-31.3 2.65 -30.95 3.1 -30.95 3.25 -30.95 3.4 -30.55 3.8 -29.9 5.05 -27.6 8.1 Q-19.8 14.95 -9.8 17.2 L-4.25 18.05 0.0 18.4 0.25 18.35 0.65 18.45 3.85 18.6 6.05 18.0 Q16.9 16.45 25.2 9.4 L27.35 7.05 28.75 5.5" fill="#000000" fill-rule="evenodd" stroke="none"/>
    </g>
    <g id="sprite7" transform="matrix(1.0, 0.0, 0.0, 1.0, 20.35, 2.85)">
      <use height="5.7" transform="matrix(1.0, 0.0, 0.0, 1.0, -20.35, -2.85)" width="40.65" xlink:href="#shape6"/>
    </g>
    <g id="shape6" transform="matrix(1.0, 0.0, 0.0, 1.0, 20.35, 2.85)">
      <path d="M-17.95 -1.45 L0.05 -1.2 12.65 -0.65 17.4 -0.35 20.3 -1.6 -0.6 -1.95 -20.35 -2.85 -17.95 -1.45" fill="#65543f" fill-rule="evenodd" stroke="none"/>
      <path d="M-4.35 2.8 L7.25 2.7 Q11.05 2.4 13.85 1.25 0.7 -0.65 -15.75 0.1 -11.7 2.3 -4.35 2.8" fill="#8c7357" fill-rule="evenodd" stroke="none"/>
    </g>
    <g id="sprite8" transform="matrix(1.0, 0.0, 0.0, 1.0, 17.2, 11.2)">
      <use height="22.4" transform="matrix(1.0, 0.0, 0.0, 1.0, -17.2, -11.2)" width="34.4" xlink:href="#shape7"/>
    </g>
    <g id="shape7" transform="matrix(1.0, 0.0, 0.0, 1.0, 17.2, 11.2)">
      <path d="M-11.8 8.6 Q-6.85 11.2 0.95 11.2 8.6 11.2 12.45 8.9 16.85 6.25 17.2 0.05 17.45 -4.4 12.3 -7.8 7.15 -11.2 0.05 -11.2 -7.5 -11.2 -12.05 -8.5 -17.0 -5.5 -17.2 0.05 -17.35 5.6 -11.8 8.6" fill="url(#gradient1)" fill-rule="evenodd" stroke="none"/>
      <path d="M2.2 -0.55 Q3.45 0.3 5.2 0.3 6.95 0.3 8.2 -0.55 9.45 -1.45 9.45 -2.7 9.45 -3.95 8.2 -4.8 6.95 -5.7 5.2 -5.7 3.45 -5.7 2.2 -4.8 0.95 -3.95 0.95 -2.7 0.95 -1.45 2.2 -0.55" fill="url(#gradient2)" fill-rule="evenodd" stroke="none"/>
    </g>
    <radialGradient cx="0" cy="0" gradientTransform="matrix(0.022, 0.0, 0.0, 0.022, 0.65, -2.1)" gradientUnits="userSpaceOnUse" id="gradient1" r="819.2" spreadMethod="pad">
      <stop offset="0.0" stop-color="#202020"/>
      <stop offset="0.7843137254901961" stop-color="#0a0a0a"/>
      <stop offset="1.0" stop-color="#0a0a0a"/>
    </radialGradient>
    <radialGradient cx="0" cy="0" gradientTransform="matrix(0.0052, 0.0, 0.0, 0.0052, 5.2, -2.7)" gradientUnits="userSpaceOnUse" id="gradient2" r="819.2" spreadMethod="pad">
      <stop offset="0.0" stop-color="#5d5d5d"/>
      <stop offset="0.37254901960784315" stop-color="#5d5d5d"/>
      <stop offset="1.0" stop-color="#202020"/>
    </radialGradient>
  </defs>
</svg>
