<?xml version="1.0" encoding="UTF-8" standalone="no"?>
<svg xmlns:xlink="http://www.w3.org/1999/xlink" height="181.25px" width="455.15px" xmlns="http://www.w3.org/2000/svg">
  <g transform="matrix(1.0, 0.0, 0.0, 1.0, 265.05, 116.9)">
    <clipPath id="clipPath0" transform="matrix(1.0, 0.0, 0.0, 1.0, 265.05, 116.9)">
      <use height="97.95" transform="matrix(1.0, 0.0, 0.0, 1.0, -133.45, -105.6)" width="266.5" xlink:href="#shape0"/>
    </clipPath>
    <g clip-path="url(#clipPath0)">
      <use height="31.2" transform="matrix(1.0, 0.0, 0.0, 1.0, -30.65, -23.75)" width="62.0" xlink:href="#shape1"/>
      <use height="78.0" transform="matrix(0.4973, 0.0042, -0.0042, 0.4972, -16.4316, -56.8393)" width="91.05" xlink:href="#sprite0"/>
      <use height="37.7" transform="matrix(0.4973, 0.0042, -0.0042, 0.4972, -5.8529, -50.5533)" width="49.5" xlink:href="#sprite4"/>
      <use height="37.45" transform="matrix(0.4959, -0.0351, 0.0352, 0.4959, -10.8037, -34.6384)" width="70.25" xlink:href="#button0"/>
      <use height="5.7" transform="matrix(0.4959, -0.0351, 0.0352, 0.4959, -2.8423, -20.1481)" width="40.65" xlink:href="#sprite7"/>
      <use height="22.4" transform="matrix(0.4959, -0.0351, 0.0352, 0.4959, -1.9237, -35.9494)" width="34.4" xlink:href="#sprite8"/>
    </g>
    <use height="46.15" transform="matrix(1.0, 0.0, 0.0, 1.0, -54.3, -48.95)" width="113.25" xlink:href="#shape8"/>
  </g>
  <defs>
    <g id="shape0" transform="matrix(1.0, 0.0, 0.0, 1.0, 133.45, 105.6)">
      <path d="M13.0 -7.65 Q-38.8 -7.65 -80.8 -8.25 -122.85 -8.9 -133.05 -12.2 L-133.05 -12.35 Q-133.05 -13.25 -132.55 -14.1 L-133.45 -14.1 -133.45 -105.6 133.05 -105.6 133.05 -14.1 130.85 -14.1 131.1 -13.6 Q127.35 -12.1 112.55 -10.7 L81.25 -8.45 Q64.75 -7.65 13.0 -7.65" fill="#0066ff" fill-rule="evenodd" stroke="none"/>
    </g>
    <g id="shape1" transform="matrix(1.0, 0.0, 0.0, 1.0, 30.65, 23.75)">
      <path d="M-11.55 7.45 L-12.7 7.45 -12.65 7.35 -12.65 7.3 -12.75 7.1 Q-12.35 3.95 -10.9 1.45 -12.9 0.65 -14.5 -1.05 L-14.6 -1.45 -14.4 -1.9 Q-8.8 -3.85 -5.35 -8.9 -1.9 -14.0 3.85 -15.8 L3.55 -18.55 Q2.3 -20.85 3.8 -22.65 4.75 -23.85 6.25 -23.75 9.1 -22.5 10.15 -20.05 10.85 -18.35 10.75 -16.1 L10.7 -15.4 11.05 -15.05 11.1 -14.95 11.65 -14.6 11.65 -14.65 Q18.3 -11.1 23.1 -5.2 25.0 -2.85 27.8 -1.65 L31.35 0.0 Q30.7 2.4 28.25 3.9 L26.65 4.8 27.2 5.95 27.25 5.95 27.45 6.65 27.5 6.75 27.8 7.45 26.5 7.45 26.2 6.75 26.15 6.6 25.7 5.25 Q23.75 6.05 21.7 6.45 L22.2 7.45 21.4 7.45 21.0 6.55 20.45 6.65 20.4 7.45 19.5 7.45 19.5 5.95 Q19.35 -0.1 17.25 -5.7 16.15 -8.6 14.35 -10.9 12.75 -12.9 10.65 -14.5 L10.6 -14.5 10.45 -13.3 10.6 -12.8 10.75 -12.85 11.05 -12.85 Q10.9 -10.45 7.8 -10.3 4.05 -10.15 2.75 -13.25 L2.75 -13.55 3.2 -13.75 3.2 -13.8 Q3.7 -13.65 3.65 -13.15 L3.65 -13.05 4.1 -12.6 3.9 -14.85 1.3 -13.85 -0.45 -12.45 -1.15 -11.5 -1.25 -11.4 Q-1.2 -11.15 -1.45 -10.95 L-1.55 -10.85 Q-3.0 -6.15 -5.3 -1.75 L-6.5 0.4 -7.6 2.2 -7.75 2.4 -7.95 2.5 -7.95 2.6 -9.45 4.8 -11.2 7.0 -11.55 7.45 M5.35 7.45 L4.45 7.45 4.25 6.9 3.25 5.35 2.6 4.45 2.45 4.3 Q0.7 1.3 -2.05 3.2 L-2.7 3.8 Q-4.4 5.4 -5.3 7.45 L-11.4 7.45 -10.7 7.25 -8.85 6.9 -6.3 6.95 -6.2 6.95 Q-5.4 5.3 -4.2 3.85 L-4.15 3.75 -3.0 2.65 Q-2.3 1.95 -1.3 1.6 L-0.8 1.45 -0.3 1.3 1.3 1.7 1.75 1.95 1.95 2.05 2.75 3.0 3.4 3.9 3.95 4.75 5.35 7.45 M9.35 -18.35 L9.3 -18.5 Q9.05 -21.6 6.1 -22.65 5.3 -22.95 4.65 -22.45 3.7 -21.75 3.65 -20.7 L3.65 -20.65 3.7 -20.65 3.7 -20.7 Q4.45 -18.3 4.75 -15.75 L4.85 -12.05 Q7.15 -10.6 9.7 -12.3 L9.35 -18.35 M-2.4 -10.7 Q-5.8 -7.65 -8.8 -4.1 -10.5 -2.1 -13.05 -1.2 L-11.65 -0.1 -11.4 0.05 -9.25 1.15 -8.35 1.45 -8.15 1.25 -8.1 1.05 -8.1 0.95 -7.9 0.75 -6.75 -0.9 -6.35 -1.7 -6.3 -1.8 -5.15 -4.2 Q-3.8 -7.1 -2.75 -10.05 L-2.7 -10.25 -2.35 -10.6 -2.3 -10.8 -2.4 -10.7 M23.95 4.75 L25.55 4.1 Q25.65 3.85 25.95 3.9 L26.0 3.95 26.75 3.6 Q28.85 2.6 30.1 0.7 22.7 -2.75 17.65 -9.2 L17.55 -9.3 Q17.4 -9.4 17.4 -9.6 L17.3 -9.8 14.85 -11.75 16.65 -9.25 17.9 -6.7 18.2 -5.9 Q20.3 -0.2 20.4 6.0 L23.95 4.75 M-9.6 1.85 L-10.3 1.65 -11.35 5.25 -10.25 3.75 -8.85 2.0 -9.6 1.85 M-29.7 7.45 L-30.65 7.45 -29.1 4.55 Q-28.1 2.9 -26.65 1.85 L-26.6 1.8 Q-25.95 1.05 -25.1 0.7 L-24.6 0.5 Q-20.6 2.3 -18.6 6.05 L-18.4 4.85 -18.25 4.0 -17.95 3.75 -17.8 3.7 Q-15.95 5.95 -13.55 7.45 L-15.55 7.45 -16.9 6.0 -17.3 5.5 -17.65 7.45 -19.0 7.45 -19.2 7.05 Q-19.4 6.55 -19.8 6.2 -20.85 4.05 -22.8 2.55 L-23.7 1.8 -24.3 1.55 -24.45 1.5 Q-24.95 1.65 -25.3 1.9 L-26.1 2.55 -26.25 2.75 -26.45 2.9 Q-28.5 4.85 -29.7 7.4 L-29.7 7.45" fill="#000000" fill-rule="evenodd" stroke="none"/>
      <path d="M24.4 7.45 L22.2 7.45 21.7 6.45 Q23.75 6.05 25.7 5.25 L26.15 6.6 24.4 7.45 M3.0 7.45 L-0.35 7.45 -0.15 7.15 0.05 7.1 0.8 6.8 1.15 6.8 1.5 6.7 Q1.5 6.6 1.65 6.65 2.25 6.65 2.6 7.1 L2.9 7.4 3.0 7.45 M3.65 -20.7 Q3.7 -21.75 4.65 -22.45 5.3 -22.95 6.1 -22.65 9.05 -21.6 9.3 -18.5 L9.35 -18.35 9.0 -17.9 8.2 -17.0 Q7.3 -16.15 6.1 -15.85 L5.25 -15.75 4.75 -15.75 Q4.45 -18.3 3.7 -20.7 L3.65 -20.7 M-10.25 3.75 L-9.6 1.85 -8.85 2.0 -10.25 3.75" fill="#0db5c8" fill-rule="evenodd" stroke="none"/>
      <path d="M26.5 7.45 L24.4 7.45 26.15 6.6 26.2 6.75 26.5 7.45 M4.45 7.45 L3.0 7.45 2.9 7.4 2.6 7.1 Q2.25 6.65 1.65 6.65 1.5 6.6 1.5 6.7 L1.15 6.8 0.8 6.8 0.05 7.1 -0.15 7.15 -0.35 7.45 -5.3 7.45 Q-4.4 5.4 -2.7 3.8 L-2.05 3.2 Q0.7 1.3 2.45 4.3 L2.6 4.45 3.25 5.35 4.25 6.9 4.45 7.45 M9.35 -18.35 L9.7 -12.3 Q7.15 -10.6 4.85 -12.05 L4.75 -15.75 5.25 -15.75 6.1 -15.85 Q7.3 -16.15 8.2 -17.0 L9.0 -17.9 9.35 -18.35 M-10.25 3.75 L-11.35 5.25 -10.3 1.65 -9.6 1.85 -10.25 3.75 M-19.0 7.45 L-29.7 7.45 -29.7 7.4 Q-28.5 4.85 -26.45 2.9 L-26.25 2.75 -26.1 2.55 -25.3 1.9 Q-24.95 1.65 -24.45 1.5 L-24.3 1.55 -23.7 1.8 -22.8 2.55 Q-20.85 4.05 -19.8 6.2 -19.4 6.55 -19.2 7.05 L-19.0 7.45" fill="#0ecfe4" fill-rule="evenodd" stroke="none"/>
      <path d="M16.4 7.45 L14.35 7.45 12.9 6.35 Q10.85 4.9 8.55 3.8 6.4 2.8 4.05 2.2 L3.2 1.95 2.4 1.85 1.3 1.7 -0.3 1.3 -0.8 1.45 -1.3 1.6 -2.2 1.65 -4.5 1.8 -6.95 2.25 -7.95 2.6 -7.95 2.5 -7.75 2.4 -7.6 2.2 -6.5 0.4 -4.5 -0.3 -2.95 -0.6 -2.6 -0.65 -0.8 -0.75 -0.3 -0.65 4.6 0.05 6.9 0.7 7.4 0.9 9.7 1.75 Q12.05 2.5 14.05 4.05 L14.85 4.6 16.6 5.95 16.5 6.65 16.4 7.45 M9.85 7.45 L5.35 7.45 3.95 4.75 4.95 5.1 7.25 6.1 7.9 6.4 8.45 6.7 9.85 7.45 M-11.4 7.45 L-11.55 7.45 -11.2 7.0 -9.45 4.8 -8.85 4.65 -8.1 4.45 Q-6.15 3.8 -4.15 3.75 L-4.2 3.85 Q-5.4 5.3 -6.2 6.95 L-6.3 6.95 -8.85 6.9 -10.7 7.25 -11.4 7.45 M-5.3 -1.75 Q-3.0 -6.15 -1.55 -10.85 L-1.45 -10.95 Q-1.2 -11.15 -1.25 -11.4 L-1.15 -11.5 -0.45 -12.45 1.3 -13.85 3.9 -14.85 4.1 -12.6 3.65 -13.05 3.65 -13.15 Q3.7 -13.65 3.2 -13.8 L3.2 -13.75 2.75 -13.55 2.75 -13.25 Q4.05 -10.15 7.8 -10.3 10.9 -10.45 11.05 -12.85 L10.75 -12.85 10.6 -12.8 10.45 -13.3 10.6 -14.5 10.65 -14.5 Q12.75 -12.9 14.35 -10.9 L15.7 -7.9 16.05 -6.7 16.6 -4.0 16.7 -2.95 16.8 0.35 16.8 1.65 16.8 3.4 16.6 3.2 16.25 2.9 15.1 2.0 13.85 1.2 13.4 0.95 11.0 -0.3 9.95 -0.75 9.5 -1.0 Q8.95 -1.45 8.3 -1.55 L7.65 -1.7 4.95 -2.2 3.55 -2.45 -1.3 -2.75 -3.5 -2.35 -3.75 -2.25 -4.1 -2.15 -4.65 -2.0 -5.3 -1.75 M-11.4 0.05 L-11.65 -0.1 -13.05 -1.2 Q-10.5 -2.1 -8.8 -4.1 -5.8 -7.65 -2.4 -10.7 L-2.35 -10.6 -2.7 -10.25 -2.75 -10.05 Q-3.8 -7.1 -5.15 -4.2 L-5.75 -3.6 -6.5 -2.9 -9.75 -0.55 Q-10.55 -0.1 -11.4 0.05 M18.2 -5.9 L17.9 -6.7 16.65 -9.25 14.85 -11.75 17.3 -9.8 17.4 -9.6 Q17.4 -9.4 17.55 -9.3 L17.65 -9.2 Q22.7 -2.75 30.1 0.7 28.85 2.6 26.75 3.6 L26.0 3.95 25.95 3.9 Q25.65 3.85 25.55 4.1 L23.95 4.75 23.8 4.55 23.4 3.8 22.45 2.3 21.15 0.05 Q20.05 -2.05 19.2 -4.25 L18.75 -5.15 18.35 -6.0 18.2 -5.9" fill="#f02d0b" fill-rule="evenodd" stroke="none"/>
      <path d="M18.45 7.45 L16.4 7.45 16.5 6.65 16.6 5.95 17.15 6.35 17.5 6.65 18.45 7.45 M14.35 -10.9 Q16.15 -8.6 17.25 -5.7 19.35 -0.1 19.5 5.95 L18.85 5.15 18.65 5.0 18.25 4.6 17.95 4.4 16.8 3.4 16.8 1.65 16.8 0.35 16.7 -2.95 16.6 -4.0 16.05 -6.7 15.7 -7.9 14.35 -10.9 M-11.4 0.05 Q-10.55 -0.1 -9.75 -0.55 L-6.5 -2.9 -5.75 -3.6 -5.15 -4.2 -6.3 -1.8 -6.35 -1.7 -6.75 -0.9 -7.9 0.75 -8.1 0.95 -8.1 1.05 -8.15 1.25 -8.35 1.45 -9.25 1.15 -11.4 0.05 M18.2 -5.9 L18.35 -6.0 18.75 -5.15 19.2 -4.25 Q20.05 -2.05 21.15 0.05 L22.45 2.3 23.4 3.8 23.8 4.55 23.95 4.75 20.4 6.0 Q20.3 -0.2 18.2 -5.9" fill="#d6280a" fill-rule="evenodd" stroke="none"/>
      <path d="M19.5 7.45 L18.45 7.45 17.5 6.65 17.15 6.35 16.6 5.95 14.85 4.6 14.05 4.05 Q12.05 2.5 9.7 1.75 L7.4 0.9 6.9 0.7 4.6 0.05 -0.3 -0.65 -0.8 -0.75 -2.6 -0.65 -2.95 -0.6 -4.5 -0.3 -6.5 0.4 -5.3 -1.75 -4.65 -2.0 -4.1 -2.15 -3.75 -2.25 -3.5 -2.35 -1.3 -2.75 3.55 -2.45 4.95 -2.2 7.65 -1.7 8.3 -1.55 Q8.95 -1.45 9.5 -1.0 L9.95 -0.75 11.0 -0.3 13.4 0.95 13.85 1.2 15.1 2.0 16.25 2.9 16.6 3.2 16.8 3.4 17.95 4.4 18.25 4.6 18.65 5.0 18.85 5.15 19.5 5.95 19.5 7.45 M14.35 7.45 L9.85 7.45 8.45 6.7 7.9 6.4 7.25 6.1 4.95 5.1 3.95 4.75 3.4 3.9 2.75 3.0 1.95 2.05 1.75 1.95 1.3 1.7 2.4 1.85 3.2 1.95 4.05 2.2 Q6.4 2.8 8.55 3.8 10.85 4.9 12.9 6.35 L14.35 7.45 M-9.45 4.8 L-7.95 2.6 -6.95 2.25 -4.5 1.8 -2.2 1.65 -1.3 1.6 Q-2.3 1.95 -3.0 2.65 L-4.15 3.75 Q-6.15 3.8 -8.1 4.45 L-8.85 4.65 -9.45 4.8" fill="#c62509" fill-rule="evenodd" stroke="none"/>
      <path d="M-15.55 7.45 L-17.65 7.45 -17.3 5.5 -16.9 6.0 -15.55 7.45" fill="#666666" fill-rule="evenodd" stroke="none"/>
    </g>
    <g id="sprite0" transform="matrix(1.0, 0.0, 0.0, 1.0, 46.65, 39.3)">
      <use height="68.55" transform="matrix(0.9994, 0.0085, -0.0085, 0.9994, 23.2973, -32.1191)" width="21.1" xlink:href="#sprite1"/>
      <use height="69.3" transform="matrix(-0.999, 0.0348, 0.0348, 0.999, -23.1916, -31.339)" width="23.5" xlink:href="#sprite2"/>
      <use height="57.65" transform="matrix(0.9966, -0.0792, 0.0792, 0.9966, -35.9936, -33.9156)" width="68.05" xlink:href="#sprite3"/>
    </g>
    <g id="sprite1" transform="matrix(1.0, 0.0, 0.0, 1.0, 10.55, 34.3)">
      <use height="68.55" transform="matrix(1.0, 0.0, 0.0, 1.0, -10.55, -34.3)" width="21.1" xlink:href="#shape2"/>
    </g>
    <g id="shape2" transform="matrix(1.0, 0.0, 0.0, 1.0, 10.55, 34.3)">
      <path d="M6.6 -9.2 Q5.55 -23.75 0.1 -29.7 L-8.65 -27.2 -10.55 -29.45 Q-7.8 -31.05 -2.0 -32.9 4.45 -34.95 5.35 -33.95 10.2 -28.6 10.5 -4.3 10.65 5.1 10.0 14.75 L8.75 32.2 Q7.85 35.65 6.4 33.35 7.25 -0.15 6.6 -9.2" fill="#000000" fill-rule="evenodd" stroke="none"/>
    </g>
    <g id="sprite2" transform="matrix(1.0, 0.0, 0.0, 1.0, 10.7, 32.5)">
      <use height="68.55" transform="matrix(1.0, 0.0, 0.0, 1.0, -10.55, -31.8)" width="21.1" xlink:href="#sprite1"/>
    </g>
    <g id="sprite3" transform="matrix(1.0, 0.0, 0.0, 1.0, 33.9, 29.15)">
      <use height="57.65" transform="matrix(1.0, 0.0, 0.0, 1.0, -33.9, -29.15)" width="68.05" xlink:href="#shape3"/>
    </g>
    <g id="shape3" transform="matrix(1.0, 0.0, 0.0, 1.0, 33.9, 29.15)">
      <path d="M-22.05 21.5 L-21.1 22.05 Q-20.7 22.05 -20.7 21.7 L-20.75 21.55 Q-25.3 18.15 -28.85 13.7 L-28.85 13.6 -28.9 13.3 Q-32.55 7.8 -32.75 1.15 L-32.85 0.9 -32.8 0.7 -32.9 -1.05 -32.85 -1.15 -32.8 -1.3 -32.8 -1.8 -32.75 -2.2 -32.55 -5.05 -32.45 -5.2 -32.35 -5.5 -32.35 -5.6 -32.4 -5.8 -32.05 -6.8 -30.9 -10.7 -30.55 -11.1 -29.7 -12.95 -29.5 -13.2 -28.9 -14.2 -28.75 -14.25 -28.5 -14.5 -28.3 -14.7 -27.45 -16.05 -27.05 -16.25 -27.0 -16.35 -26.5 -17.1 -26.35 -17.15 -22.85 -20.4 Q-21.6 -21.05 -20.4 -22.05 -19.1 -23.15 -17.6 -23.85 L-17.5 -23.95 -17.4 -24.1 -17.3 -24.2 -15.1 -25.1 -13.15 -25.7 -7.3 -27.35 Q4.05 -29.7 14.8 -25.0 L19.15 -22.9 Q24.45 -20.1 27.7 -15.3 L27.9 -15.2 28.15 -15.2 Q28.55 -14.35 29.1 -13.55 33.35 -7.2 32.9 0.15 L33.1 0.35 Q32.75 4.2 31.4 7.9 L31.3 8.05 Q29.55 13.2 25.8 17.05 L25.75 17.1 Q24.75 18.65 23.15 19.65 L23.05 19.8 Q22.7 20.05 22.8 20.35 L23.7 20.25 Q13.85 28.5 0.0 28.5 -12.75 28.5 -22.05 21.5 M30.8 11.75 L32.0 8.75 32.2 8.65 30.8 11.75" fill="url(#gradient0)" fill-rule="evenodd" stroke="none"/>
      <path d="M23.7 20.25 L22.8 20.35 Q22.7 20.05 23.05 19.8 L23.15 19.65 Q24.75 18.65 25.75 17.1 L25.8 17.05 Q29.55 13.2 31.3 8.05 L31.4 7.9 Q32.75 4.2 33.1 0.35 L32.9 0.15 Q33.35 -7.2 29.1 -13.55 28.55 -14.35 28.15 -15.2 L27.9 -15.2 27.7 -15.3 Q24.45 -20.1 19.15 -22.9 L14.8 -25.0 Q4.05 -29.7 -7.3 -27.35 L-13.15 -25.7 -15.1 -25.1 -17.3 -24.2 -17.4 -24.1 -17.5 -23.95 -17.6 -23.85 Q-19.1 -23.15 -20.4 -22.05 -21.6 -21.05 -22.85 -20.4 L-26.35 -17.15 -26.5 -17.1 -27.0 -16.35 -27.05 -16.25 -27.45 -16.05 -28.3 -14.7 -28.5 -14.5 -28.75 -14.25 -28.9 -14.2 -29.5 -13.2 -29.7 -12.95 -30.55 -11.1 -30.9 -10.7 -32.05 -6.8 -32.4 -5.8 -32.35 -5.6 -32.35 -5.5 -32.45 -5.2 -32.55 -5.05 -32.75 -2.2 -32.8 -1.8 -32.8 -1.3 -32.85 -1.15 -32.9 -1.05 -32.8 0.7 -32.85 0.9 -32.75 1.15 Q-32.55 7.8 -28.9 13.3 L-28.85 13.6 -28.85 13.7 Q-25.3 18.15 -20.75 21.55 L-20.7 21.7 Q-20.7 22.05 -21.1 22.05 L-22.05 21.5 Q-23.65 20.5 -25.05 19.15 -26.75 18.1 -27.85 16.25 -33.85 9.25 -33.9 0.0 L-33.75 -1.65 -33.65 -2.6 -33.65 -2.9 -33.6 -3.1 -33.55 -3.2 -33.3 -5.35 -33.3 -5.8 -31.45 -11.4 -30.8 -12.5 -30.8 -12.7 -30.75 -12.8 -30.65 -12.95 -30.55 -13.05 Q-27.45 -18.6 -22.05 -21.85 L-17.75 -24.65 Q-14.15 -26.55 -10.1 -27.7 0.0 -30.5 10.15 -27.95 17.9 -25.4 24.3 -20.4 L26.8 -18.35 26.9 -18.3 27.1 -18.2 27.25 -17.9 Q27.25 -18.1 27.5 -18.0 L27.8 -17.45 27.85 -17.35 Q31.6 -12.55 33.3 -6.75 L33.3 -6.55 Q33.9 -4.5 33.95 -2.4 L34.0 -2.3 Q33.95 -1.95 34.05 -1.65 L34.15 -1.45 34.05 -0.45 34.0 -0.2 34.1 0.05 34.1 0.15 33.8 2.9 33.7 3.25 32.45 8.2 32.2 8.65 32.0 8.75 30.8 11.75 Q28.35 16.75 23.75 20.2 L23.7 20.25" fill="#000000" fill-rule="evenodd" stroke="none"/>
    </g>
    <radialGradient cx="0" cy="0" gradientTransform="matrix(0.0435, 0.0, 0.0, 0.0435, 1.35, -6.55)" gradientUnits="userSpaceOnUse" id="gradient0" r="819.2" spreadMethod="pad">
      <stop offset="0.0" stop-color="#54b4cc"/>
      <stop offset="0.7176470588235294" stop-color="#54b4cc"/>
      <stop offset="1.0" stop-color="#3e8699"/>
    </radialGradient>
    <g id="sprite4" transform="matrix(1.0, 0.0, 0.0, 1.0, 24.8, 18.8)">
      <use height="34.35" transform="matrix(0.9966, -0.0792, 0.0792, 0.9966, -24.8179, -15.3403)" width="21.5" xlink:href="#sprite5"/>
      <use height="34.35" transform="matrix(-0.9984, 0.0487, 0.0487, 0.9984, 23.0507, -18.7968)" width="21.5" xlink:href="#sprite5"/>
    </g>
    <g id="sprite5" transform="matrix(1.0, 0.0, 0.0, 1.0, 10.75, 17.1)">
      <use height="34.35" transform="matrix(1.0, 0.0, 0.0, 1.0, -10.75, -17.1)" width="21.5" xlink:href="#shape4"/>
      <use height="26.55" transform="matrix(1.0, 0.0, 0.0, 1.0, -9.7998, -10.4998)" width="19.65" xlink:href="#sprite6"/>
    </g>
    <g id="shape4" transform="matrix(1.0, 0.0, 0.0, 1.0, 10.75, 17.1)">
      <path d="M5.95 -10.15 Q7.85 -9.0 9.2 -6.25 11.0 -2.55 10.7 5.25 10.55 10.6 9.9 13.45 9.2 16.85 -0.3 17.2 L-5.65 17.05 -7.8 16.65 Q-9.35 15.2 -10.15 11.4 -10.9 7.7 -10.7 2.75 -10.45 -2.95 -7.75 -6.95 -4.95 -11.05 -0.7 -11.35 L1.55 -11.5 Q3.85 -11.4 5.35 -10.45 L5.95 -10.15 M5.65 -9.15 Q4.05 -10.35 1.2 -10.5 -5.65 -10.9 -8.85 -1.8 -6.2 -6.1 -2.1 -7.65 2.65 -9.45 7.75 -6.65 L5.65 -9.15 M8.05 -5.7 Q2.25 -7.75 -2.05 -6.1 -5.85 -4.65 -8.8 -0.25 L-9.2 3.0 Q-9.4 7.6 -8.55 11.15 -7.8 14.5 -6.45 15.85 L-6.85 15.9 -5.5 16.1 -0.35 16.2 Q4.55 16.05 7.55 13.25 8.85 12.05 9.25 5.0 9.65 -2.4 8.05 -5.65 L8.05 -5.7 M-0.3 -16.95 Q2.5 -17.7 3.7 -15.2 -1.55 -17.35 -5.3 -12.25 L-4.25 -14.05 Q-2.8 -16.3 -0.3 -16.95 M-6.0 7.9 L-0.35 6.6 -5.9 3.7 Q-5.1 -2.45 -0.35 -2.3 5.2 -2.15 5.2 6.2 5.2 10.1 4.15 11.95 2.85 14.35 -0.4 14.45 -5.35 14.6 -6.0 7.9" fill="#000000" fill-rule="evenodd" stroke="none"/>
      <path d="M8.05 -5.7 L8.05 -5.65 Q9.65 -2.4 9.25 5.0 8.85 12.05 7.55 13.25 4.55 16.05 -0.35 16.2 L-5.5 16.1 -6.85 15.9 -6.45 15.85 Q-7.8 14.5 -8.55 11.15 -9.4 7.6 -9.2 3.0 L-8.8 -0.25 Q-5.85 -4.65 -2.05 -6.1 2.25 -7.75 8.05 -5.7 M-6.0 7.9 Q-5.35 14.6 -0.4 14.45 2.85 14.35 4.15 11.95 5.2 10.1 5.2 6.2 5.2 -2.15 -0.35 -2.3 -5.1 -2.45 -5.9 3.7 L-0.35 6.6 -6.0 7.9" fill="#ffffff" fill-rule="evenodd" stroke="none"/>
      <path d="M5.65 -9.15 L7.75 -6.65 Q2.65 -9.45 -2.1 -7.65 -6.2 -6.1 -8.85 -1.8 -5.65 -10.9 1.2 -10.5 4.05 -10.35 5.65 -9.15" fill="#53b3cb" fill-rule="evenodd" stroke="none"/>
    </g>
    <g id="button0" transform="matrix(1.0, 0.0, 0.0, 1.0, 35.25, 17.7)">
      <use height="37.45" transform="matrix(1.0, 0.0, 0.0, 1.0, -35.25, -17.7)" width="70.25" xlink:href="#shape5"/>
    </g>
    <g id="shape5" transform="matrix(1.0, 0.0, 0.0, 1.0, 35.25, 17.7)">
      <path d="M4.2 -7.65 L8.85 -7.55 13.9 -6.85 Q16.5 -6.25 18.15 -4.1 L21.25 -0.05 Q22.85 2.05 25.2 3.35 27.0 4.35 28.75 5.5 L27.35 7.05 25.65 6.35 Q23.4 5.5 21.8 3.4 L20.85 1.85 19.15 -0.9 Q16.7 -4.8 12.35 -6.4 9.2 -7.55 4.2 -7.65 M-25.8 -12.0 L-33.0 -3.9 -34.25 -5.4 -34.2 -5.5 Q-34.1 -5.8 -34.35 -6.0 L-34.35 -6.2 -34.3 -7.35 -34.2 -7.55 -34.0 -8.4 -33.9 -8.5 Q-33.65 -8.75 -33.65 -9.1 L-33.5 -9.2 -33.4 -9.3 -33.35 -9.4 -33.3 -9.6 -33.2 -9.7 -33.05 -9.85 Q-31.7 -12.35 -30.6 -14.95 L-30.55 -15.05 -30.3 -16.25 -25.8 -12.0 M-30.95 3.1 Q-29.9 2.8 -29.0 1.85 -28.9 3.6 -27.6 3.6 L-27.5 3.6 Q-28.55 4.8 -29.9 5.05 L-30.55 3.8 -30.95 3.4 -30.95 3.25 -30.95 3.1 M-27.2 -0.6 L-27.0 -0.9 Q-21.5 -9.15 -15.75 -9.15 L-10.05 -8.55 -5.8 -8.0 -14.35 -8.4 Q-18.65 -7.1 -20.35 -6.15 -23.05 -4.65 -24.6 -1.9 L-26.35 1.7 -26.35 0.85 Q-26.35 -0.4 -27.2 -0.6 M-31.0 -16.35 L-31.0 -16.9 -30.95 -16.85 -31.0 -16.35" fill="#a88b69" fill-rule="evenodd" stroke="none"/>
      <path d="M-5.8 -8.0 L4.2 -7.65 Q9.2 -7.55 12.35 -6.4 16.7 -4.8 19.15 -0.9 L20.85 1.85 21.8 3.4 Q23.4 5.5 25.65 6.35 L27.35 7.05 25.2 9.4 Q16.9 16.45 6.05 18.0 L3.85 18.6 0.65 18.45 0.25 18.35 0.0 18.4 -4.25 18.05 -9.8 17.2 Q-19.8 14.95 -27.6 8.1 L-29.9 5.05 Q-28.55 4.8 -27.5 3.6 -26.6 3.5 -26.4 1.85 L-26.35 1.7 -24.6 -1.9 Q-23.05 -4.65 -20.35 -6.15 -18.65 -7.1 -14.35 -8.4 L-5.8 -8.0 M-7.75 18.8 L-7.95 18.75 -12.45 17.9 Q-14.6 17.35 -16.45 16.25 L-15.25 16.7 Q-11.6 18.0 -7.75 18.8 M-22.15 13.2 L-24.4 11.8 -26.45 10.3 Q-24.5 11.75 -22.35 13.0 L-22.15 13.2 M22.15 5.75 Q22.15 4.75 20.9 4.75 20.0 4.75 19.35 5.45 18.75 6.15 18.75 7.1 18.75 8.0 19.75 8.0 20.75 8.0 21.45 7.35 22.15 6.7 22.15 5.75 M-23.65 -2.6 Q-24.55 -2.6 -24.55 -1.15 -24.55 0.1 -23.65 0.1 -22.85 0.1 -22.85 -1.65 -22.85 -2.6 -23.65 -2.6" fill="#8c7357" fill-rule="evenodd" stroke="none"/>
      <path d="M28.75 5.5 Q27.0 4.35 25.2 3.35 22.85 2.05 21.25 -0.05 L18.15 -4.1 Q16.5 -6.25 13.9 -6.85 L8.85 -7.55 4.2 -7.65 -5.8 -8.0 -10.05 -8.55 -15.75 -9.15 Q-21.5 -9.15 -27.0 -0.9 L-27.2 -0.6 Q-27.95 -0.6 -28.45 0.1 -29.0 0.85 -29.0 1.85 -29.9 2.8 -30.95 3.1 L-31.3 2.65 -32.4 -0.9 Q-32.25 -2.55 -33.0 -3.9 L-25.8 -12.0 -25.5 -11.75 Q-21.6 -14.35 -15.0 -15.75 -8.4 -17.1 -0.9 -16.9 16.05 -16.4 26.3 -9.15 26.85 -7.7 28.1 -5.7 29.45 -3.5 29.85 -1.0 L30.55 3.45 28.75 5.5 M24.15 -2.0 Q24.15 -2.95 23.5 -3.15 22.65 -3.3 22.65 -2.0 22.65 -0.5 23.15 -0.5 24.15 -0.35 24.15 -2.0 M26.45 3.2 Q27.1 3.25 27.1 1.9 L27.1 1.85 Q27.1 0.4 26.1 0.8 25.8 0.9 25.85 1.85 L25.85 2.0 Q25.85 3.15 26.45 3.2 M-28.3 -5.95 Q-28.95 -5.95 -28.95 -4.5 -28.95 -3.2 -28.3 -3.2 -27.7 -3.2 -27.7 -4.95 -27.7 -5.95 -28.3 -5.95 M-31.3 -5.1 Q-31.8 -5.1 -31.8 -3.7 -31.8 -2.5 -31.3 -2.5 -30.8 -2.5 -30.8 -4.2 -30.8 -5.1 -31.3 -5.1" fill="#c19f79" fill-rule="evenodd" stroke="none"/>
      <path d="M30.55 3.45 L29.85 -1.0 Q29.45 -3.5 28.1 -5.7 26.85 -7.7 26.3 -9.15 L30.1 -13.7 Q30.05 -12.7 30.4 -11.65 L31.8 -9.0 Q33.75 -5.55 34.0 -1.8 33.65 -0.15 32.5 1.2 L30.55 3.45 M30.85 -13.6 L30.9 -13.55 30.85 -13.6 M34.55 -4.25 Q35.05 -3.25 35.0 -2.25 L34.8 -3.35 34.55 -4.25" fill="#b2936f" fill-rule="evenodd" stroke="none"/>
      <path d="M-29.0 1.85 Q-29.0 0.85 -28.45 0.1 -27.95 -0.6 -27.2 -0.6 -26.35 -0.4 -26.35 0.85 L-26.35 1.7 -26.4 1.85 Q-26.6 3.5 -27.5 3.6 L-27.6 3.6 Q-28.9 3.6 -29.0 1.85 M24.15 -2.0 Q24.15 -0.35 23.15 -0.5 22.65 -0.5 22.65 -2.0 22.65 -3.3 23.5 -3.15 24.15 -2.95 24.15 -2.0 M26.45 3.2 Q25.85 3.15 25.85 2.0 L25.85 1.85 Q25.8 0.9 26.1 0.8 27.1 0.4 27.1 1.85 L27.1 1.9 Q27.1 3.25 26.45 3.2 M22.15 5.75 Q22.15 6.7 21.45 7.35 20.75 8.0 19.75 8.0 18.75 8.0 18.75 7.1 18.75 6.15 19.35 5.45 20.0 4.75 20.9 4.75 22.15 4.75 22.15 5.75 M-31.3 -5.1 Q-30.8 -5.1 -30.8 -4.2 -30.8 -2.5 -31.3 -2.5 -31.8 -2.5 -31.8 -3.7 -31.8 -5.1 -31.3 -5.1 M-28.3 -5.95 Q-27.7 -5.95 -27.7 -4.95 -27.7 -3.2 -28.3 -3.2 -28.95 -3.2 -28.95 -4.5 -28.95 -5.95 -28.3 -5.95 M-23.65 -2.6 Q-22.85 -2.6 -22.85 -1.65 -22.85 0.1 -23.65 0.1 -24.55 0.1 -24.55 -1.15 -24.55 -2.6 -23.65 -2.6" fill="#352c21" fill-rule="evenodd" stroke="none"/>
      <path d="M28.75 5.5 L30.55 3.45 32.5 1.2 Q33.65 -0.15 34.0 -1.8 33.75 -5.55 31.8 -9.0 L30.4 -11.65 Q30.05 -12.7 30.1 -13.7 L30.3 -14.9 30.45 -15.05 30.9 -14.0 30.9 -13.9 30.9 -13.8 30.85 -13.6 30.9 -13.55 31.3 -12.05 31.35 -11.95 Q33.25 -8.2 34.55 -4.25 L34.8 -3.35 35.0 -2.25 Q35.0 -1.3 34.5 -0.4 33.55 1.35 32.15 2.75 L30.65 4.65 Q27.7 9.0 23.5 12.15 17.4 16.6 10.15 18.25 L5.5 19.25 -0.15 19.7 -7.75 18.8 Q-11.6 18.0 -15.25 16.7 L-16.45 16.25 Q-18.5 15.4 -20.35 14.2 L-20.75 13.95 -21.7 13.45 -22.05 13.3 -22.15 13.2 -22.35 13.0 Q-24.5 11.75 -26.45 10.3 L-28.35 8.8 Q-30.25 6.65 -31.5 4.2 -33.2 1.55 -33.3 -1.55 -33.4 -3.3 -34.9 -4.2 L-35.25 -5.55 -35.25 -5.7 Q-35.25 -7.55 -34.4 -9.2 L-34.3 -9.35 -34.0 -9.85 -33.95 -9.95 Q-32.55 -12.05 -31.6 -14.45 L-31.6 -14.65 -31.6 -14.85 -31.0 -16.35 -30.95 -16.85 -30.95 -16.95 -30.95 -17.05 Q-31.25 -17.55 -30.7 -17.65 L-30.7 -17.7 Q-30.3 -17.0 -30.3 -16.25 L-30.55 -15.05 -30.6 -14.95 Q-31.7 -12.35 -33.05 -9.85 L-33.2 -9.7 -33.3 -9.6 -33.35 -9.4 -33.4 -9.3 -33.5 -9.2 -33.65 -9.1 Q-33.65 -8.75 -33.9 -8.5 L-34.0 -8.4 -34.2 -7.55 -34.3 -7.35 -34.35 -6.2 -34.35 -6.0 Q-34.1 -5.8 -34.2 -5.5 L-34.25 -5.4 -33.0 -3.9 Q-32.25 -2.55 -32.4 -0.9 L-31.3 2.65 -30.95 3.1 -30.95 3.25 -30.95 3.4 -30.55 3.8 -29.9 5.05 -27.6 8.1 Q-19.8 14.95 -9.8 17.2 L-4.25 18.05 0.0 18.4 0.25 18.35 0.65 18.45 3.85 18.6 6.05 18.0 Q16.9 16.45 25.2 9.4 L27.35 7.05 28.75 5.5" fill="#000000" fill-rule="evenodd" stroke="none"/>
    </g>
    <g id="sprite7" transform="matrix(1.0, 0.0, 0.0, 1.0, 20.35, 2.85)">
      <use height="5.7" transform="matrix(1.0, 0.0, 0.0, 1.0, -20.35, -2.85)" width="40.65" xlink:href="#shape6"/>
    </g>
    <g id="shape6" transform="matrix(1.0, 0.0, 0.0, 1.0, 20.35, 2.85)">
      <path d="M-17.95 -1.45 L0.05 -1.2 12.65 -0.65 17.4 -0.35 20.3 -1.6 -0.6 -1.95 -20.35 -2.85 -17.95 -1.45" fill="#65543f" fill-rule="evenodd" stroke="none"/>
      <path d="M-4.35 2.8 L7.25 2.7 Q11.05 2.4 13.85 1.25 0.7 -0.65 -15.75 0.1 -11.7 2.3 -4.35 2.8" fill="#8c7357" fill-rule="evenodd" stroke="none"/>
    </g>
    <g id="sprite8" transform="matrix(1.0, 0.0, 0.0, 1.0, 17.2, 11.2)">
      <use height="22.4" transform="matrix(1.0, 0.0, 0.0, 1.0, -17.2, -11.2)" width="34.4" xlink:href="#shape7"/>
    </g>
    <g id="shape7" transform="matrix(1.0, 0.0, 0.0, 1.0, 17.2, 11.2)">
      <path d="M-11.8 8.6 Q-6.85 11.2 0.95 11.2 8.6 11.2 12.45 8.9 16.85 6.25 17.2 0.05 17.45 -4.4 12.3 -7.8 7.15 -11.2 0.05 -11.2 -7.5 -11.2 -12.05 -8.5 -17.0 -5.5 -17.2 0.05 -17.35 5.6 -11.8 8.6" fill="url(#gradient1)" fill-rule="evenodd" stroke="none"/>
      <path d="M2.2 -0.55 Q3.45 0.3 5.2 0.3 6.95 0.3 8.2 -0.55 9.45 -1.45 9.45 -2.7 9.45 -3.95 8.2 -4.8 6.95 -5.7 5.2 -5.7 3.45 -5.7 2.2 -4.8 0.95 -3.95 0.95 -2.7 0.95 -1.45 2.2 -0.55" fill="url(#gradient2)" fill-rule="evenodd" stroke="none"/>
    </g>
    <radialGradient cx="0" cy="0" gradientTransform="matrix(0.022, 0.0, 0.0, 0.022, 0.65, -2.1)" gradientUnits="userSpaceOnUse" id="gradient1" r="819.2" spreadMethod="pad">
      <stop offset="0.0" stop-color="#202020"/>
      <stop offset="0.7843137254901961" stop-color="#0a0a0a"/>
      <stop offset="1.0" stop-color="#0a0a0a"/>
    </radialGradient>
    <radialGradient cx="0" cy="0" gradientTransform="matrix(0.0052, 0.0, 0.0, 0.0052, 5.2, -2.7)" gradientUnits="userSpaceOnUse" id="gradient2" r="819.2" spreadMethod="pad">
      <stop offset="0.0" stop-color="#5d5d5d"/>
      <stop offset="0.37254901960784315" stop-color="#5d5d5d"/>
      <stop offset="1.0" stop-color="#202020"/>
    </radialGradient>
    <g id="shape8" transform="matrix(1.0, 0.0, 0.0, 1.0, 54.3, 48.95)">
      <path d="M35.7 -40.55 L35.75 -40.75 35.65 -40.65 35.6 -40.65 Q32.2 -38.65 29.7 -35.2 L28.65 -34.2 Q25.0 -31.6 22.95 -27.95 24.85 -26.55 22.8 -24.6 L21.0 -22.9 Q18.45 -20.55 15.25 -20.8 L14.9 -20.8 14.85 -20.85 14.55 -21.25 14.55 -21.3 Q13.7 -22.8 14.75 -24.8 L15.1 -25.6 15.85 -27.8 15.9 -27.85 15.65 -27.9 Q12.8 -24.75 10.25 -21.3 9.4 -20.15 8.05 -19.5 5.95 -18.4 4.55 -20.25 L4.5 -20.65 4.5 -21.65 4.5 -21.75 4.25 -21.7 4.15 -21.6 3.65 -21.25 0.5 -17.35 0.4 -17.2 Q-0.85 -14.75 -3.0 -12.95 -4.3 -10.05 -8.25 -10.75 -9.65 -11.0 -10.55 -12.2 -13.2 -15.7 -14.55 -19.85 L-16.8 -25.95 -17.75 -28.05 Q-17.65 -25.05 -18.1 -22.05 -18.65 -18.7 -22.15 -18.15 L-23.85 -18.2 Q-25.4 -18.15 -26.5 -19.85 L-27.45 -21.25 Q-27.85 -21.8 -27.85 -22.5 L-28.65 -24.55 -28.8 -25.0 -28.7 -24.5 Q-28.3 -22.6 -28.85 -20.85 -29.05 -20.25 -29.65 -20.05 L-30.85 -20.0 Q-34.1 -22.7 -36.3 -26.3 L-36.35 -26.55 -36.35 -26.65 -36.95 -27.6 -37.0 -27.8 -37.5 -28.65 -37.55 -28.8 -38.45 -29.75 Q-39.55 -32.8 -41.45 -35.5 L-41.8 -36.2 Q-44.75 -41.0 -47.95 -45.5 L-48.1 -45.55 -49.8 -47.8 -50.1 -47.8 -50.05 -47.7 Q-48.5 -41.1 -44.75 -35.35 L-42.15 -31.25 Q-40.95 -29.3 -40.9 -26.95 L-41.05 -26.5 -41.15 -26.15 -41.3 -26.05 -41.35 -25.95 Q-41.95 -25.8 -42.55 -25.95 L-43.55 -26.15 -43.9 -26.35 -43.95 -26.45 -44.05 -26.6 -44.1 -26.7 -45.7 -28.2 -46.55 -28.85 -47.1 -28.8 -46.85 -28.55 -41.45 -22.65 Q-40.25 -21.2 -40.6 -19.7 -40.7 -19.4 -40.95 -19.25 -44.4 -19.45 -47.15 -21.85 L-48.45 -22.75 -50.35 -24.05 -50.95 -24.45 -50.95 -24.5 -51.0 -24.55 -51.05 -24.55 Q-52.35 -24.9 -53.4 -24.2 L-53.45 -24.1 Q-51.45 -21.7 -48.8 -19.65 L-46.45 -17.65 -40.6 -11.95 Q-34.3 -9.3 -27.4 -9.0 L-20.25 -8.55 -7.2 -7.55 2.6 -7.2 16.25 -7.9 21.65 -8.3 Q29.05 -8.7 36.1 -10.7 36.25 -11.15 36.75 -11.2 L36.85 -11.2 Q38.95 -13.65 41.75 -15.45 42.95 -16.2 43.7 -17.3 L43.65 -17.35 43.3 -17.6 43.2 -17.8 43.05 -18.25 Q45.2 -20.65 48.4 -22.0 51.3 -23.2 53.05 -25.65 50.35 -25.35 47.55 -23.95 45.15 -22.7 43.15 -20.95 40.2 -18.3 36.4 -17.2 33.6 -16.35 32.45 -18.55 31.65 -20.1 32.9 -21.45 L34.35 -23.25 Q32.55 -22.15 30.1 -21.55 27.25 -20.85 26.2 -23.35 25.4 -25.15 26.2 -27.1 28.35 -32.55 33.1 -35.85 34.7 -38.05 35.7 -40.55 M36.35 -41.8 L36.45 -41.7 Q36.8 -39.45 35.4 -37.3 L33.95 -35.3 Q33.55 -34.85 32.85 -34.75 27.75 -30.45 26.95 -24.05 26.9 -23.6 27.2 -23.2 L28.05 -22.4 Q31.35 -22.15 34.2 -24.15 35.0 -24.75 35.85 -24.45 L36.0 -24.1 35.95 -23.6 Q33.8 -21.65 33.25 -19.1 33.15 -18.65 33.6 -18.5 L38.05 -18.75 Q41.65 -20.3 44.6 -22.85 46.7 -24.65 49.4 -25.7 L52.15 -26.7 53.95 -26.6 Q53.95 -23.9 51.2 -22.4 L44.15 -18.35 Q45.35 -16.3 42.85 -14.75 L39.1 -12.05 37.05 -10.3 36.85 -9.95 36.55 -9.85 36.3 -9.65 36.05 -9.6 35.95 -9.7 Q27.55 -7.4 18.65 -7.0 L7.85 -6.6 Q-4.95 -6.2 -17.7 -7.2 L-21.3 -7.6 -27.15 -8.15 Q-32.5 -8.5 -37.65 -9.7 -40.05 -10.25 -41.9 -11.7 L-42.05 -12.1 -42.0 -12.15 Q-44.1 -13.75 -45.95 -15.7 L-48.45 -18.1 -49.1 -18.95 Q-52.1 -21.0 -54.2 -23.85 -54.4 -24.15 -54.2 -24.5 -53.7 -25.45 -52.55 -25.6 -50.4 -25.45 -48.9 -24.05 L-42.35 -20.3 -41.3 -20.35 Q-43.2 -24.25 -46.75 -26.85 -48.0 -27.75 -48.05 -29.25 L-48.0 -29.35 -47.3 -29.85 -46.4 -29.85 -46.2 -29.8 Q-44.45 -28.3 -42.55 -27.05 L-42.3 -26.9 -42.0 -27.05 Q-41.9 -28.0 -42.2 -28.9 L-42.55 -29.85 -48.15 -39.55 -48.3 -40.25 -49.35 -42.2 -49.7 -42.8 -50.9 -46.9 -50.95 -48.15 -50.35 -48.85 -50.1 -48.95 Q-48.65 -48.25 -47.95 -47.05 -43.7 -41.55 -40.25 -35.55 L-37.95 -31.3 Q-37.75 -30.35 -37.0 -29.65 L-36.75 -29.45 Q-35.2 -25.4 -32.0 -22.6 L-31.8 -22.5 -30.55 -21.0 -30.5 -20.95 -29.8 -20.95 -29.4 -21.45 -29.35 -21.5 -29.95 -25.25 -29.9 -26.3 -28.9 -26.4 -28.25 -25.95 Q-27.65 -24.95 -27.35 -23.8 L-27.3 -23.3 Q-26.9 -22.9 -26.85 -22.3 L-26.8 -22.0 Q-25.75 -20.45 -24.25 -19.25 L-23.7 -19.1 -22.55 -19.05 Q-20.0 -19.15 -19.05 -22.0 -18.3 -24.1 -18.75 -26.45 -19.1 -28.15 -17.85 -29.05 L-17.6 -29.0 -17.45 -28.95 -17.25 -28.8 -17.05 -28.6 -16.95 -28.35 -16.8 -28.05 Q-14.85 -24.15 -13.85 -19.9 -13.6 -18.85 -13.0 -17.8 L-11.2 -14.4 Q-9.6 -11.05 -5.8 -11.45 L-3.55 -13.35 Q-0.15 -18.15 3.85 -22.35 L5.2 -22.45 5.45 -21.45 Q5.35 -20.95 5.6 -20.5 L5.9 -20.3 6.55 -20.05 Q11.0 -22.05 13.25 -26.55 14.0 -28.05 15.4 -28.9 L16.2 -28.85 16.45 -28.8 Q17.15 -27.15 16.15 -25.3 15.2 -23.6 15.3 -21.95 L15.35 -21.9 15.55 -21.55 Q20.3 -22.25 22.85 -26.45 L22.9 -26.55 22.9 -26.65 22.95 -26.85 22.15 -27.5 22.05 -27.6 Q22.25 -30.3 24.6 -32.1 29.3 -35.65 33.1 -40.0 L33.85 -40.75 Q34.7 -41.55 35.75 -41.85 L36.35 -41.8 M17.2 -45.65 Q13.95 -39.1 9.5 -33.3 L7.9 -31.35 7.6 -31.1 7.1 -31.15 6.8 -31.05 6.65 -31.15 6.6 -31.2 6.55 -31.3 Q6.6 -31.85 6.9 -32.25 L7.05 -32.6 7.15 -32.7 7.25 -32.8 Q8.5 -39.15 12.0 -44.55 12.9 -45.95 14.3 -46.55 L15.85 -47.1 Q17.1 -47.0 17.2 -45.75 L17.2 -45.65 M16.1 -46.05 L14.9 -45.95 Q12.6 -44.5 11.35 -41.9 L11.1 -41.6 Q9.35 -37.4 8.25 -33.05 10.35 -35.2 11.9 -37.85 14.2 -41.8 16.1 -45.85 L16.1 -46.05 M-0.1 -4.05 L-0.1 -3.95 Q-2.5 -2.75 -5.6 -2.8 -10.4 -2.85 -15.0 -4.05 L-16.7 -4.7 -16.5 -4.9 -16.1 -5.0 -16.0 -5.05 -2.4 -4.55 -0.55 -4.5 -0.2 -4.2 -0.1 -4.05 M17.65 -4.45 L17.6 -4.55 Q27.1 -5.95 36.65 -8.25 39.2 -8.85 41.4 -9.95 L41.2 -10.2 40.1 -10.8 39.05 -10.95 Q38.9 -11.0 38.95 -11.2 L39.15 -11.4 40.25 -11.55 Q42.55 -11.55 44.5 -10.35 L44.65 -10.25 Q45.1 -7.95 42.35 -7.15 L36.85 -5.5 34.65 -5.1 20.15 -4.0 Q18.8 -3.9 17.65 -4.45 M29.15 -5.65 Q33.75 -5.7 38.8 -6.85 41.9 -7.55 44.1 -9.45 43.5 -10.45 42.2 -10.4 42.15 -8.3 39.45 -7.85 L37.05 -7.3 29.15 -5.65 M58.95 -40.15 Q58.75 -37.65 56.3 -35.85 55.8 -35.45 55.6 -34.85 54.9 -32.4 52.8 -30.7 49.45 -28.0 45.4 -27.45 L45.3 -27.65 45.3 -27.85 45.3 -27.95 Q49.05 -31.55 52.0 -36.0 53.25 -37.9 55.15 -39.1 L58.05 -40.5 58.85 -40.25 58.95 -40.15 M48.25 -29.55 L47.7 -28.95 48.45 -29.2 Q52.25 -30.85 54.6 -34.35 55.0 -36.8 57.15 -38.4 57.95 -38.95 57.95 -39.45 52.3 -36.75 49.3 -31.15 L48.25 -29.55 M-46.4 -12.5 L-45.4 -12.95 Q-44.95 -12.25 -46.3 -11.55 L-46.35 -11.5 Q-44.4 -9.3 -41.15 -8.65 -34.95 -7.45 -28.6 -6.95 L-25.55 -6.45 -24.65 -6.35 Q-24.45 -6.35 -24.4 -6.15 L-24.7 -6.1 -24.9 -5.9 -25.0 -5.85 -26.5 -5.85 Q-34.85 -4.95 -43.2 -6.8 -46.4 -7.5 -49.25 -8.95 L-49.55 -9.6 -49.65 -9.8 -49.65 -10.45 -49.65 -10.65 Q-48.25 -12.0 -46.5 -12.75 L-46.4 -12.5 M-47.3 -11.3 L-47.5 -11.2 -48.85 -10.2 -48.45 -9.45 -48.4 -9.4 Q-41.85 -6.6 -34.75 -6.6 -39.95 -7.45 -44.95 -9.2 -46.5 -9.75 -47.3 -11.15 L-47.3 -11.3 M-12.05 -3.95 L-5.5 -3.6 -4.5 -3.7 -12.05 -3.95" fill="#389cff" fill-rule="evenodd" stroke="none"/>
      <path d="M35.65 -40.65 L35.7 -40.55 35.6 -40.65 35.65 -40.65 M48.45 -29.2 L48.25 -29.55 48.45 -29.2" fill="#aad5ff" fill-rule="evenodd" stroke="none"/>
      <path d="M35.6 -40.65 L35.7 -40.55 Q34.7 -38.05 33.1 -35.85 28.35 -32.55 26.2 -27.1 25.4 -25.15 26.2 -23.35 27.25 -20.85 30.1 -21.55 32.55 -22.15 34.35 -23.25 L32.9 -21.45 Q31.65 -20.1 32.45 -18.55 33.6 -16.35 36.4 -17.2 40.2 -18.3 43.15 -20.95 45.15 -22.7 47.55 -23.95 50.35 -25.35 53.05 -25.65 51.3 -23.2 48.4 -22.0 45.2 -20.65 43.05 -18.25 L43.2 -17.8 43.3 -17.6 43.65 -17.35 43.7 -17.3 Q42.95 -16.2 41.75 -15.45 38.95 -13.65 36.85 -11.2 L36.75 -11.2 Q36.25 -11.15 36.1 -10.7 29.05 -8.7 21.65 -8.3 L16.25 -7.9 2.6 -7.2 -7.2 -7.55 -20.25 -8.55 -27.4 -9.0 Q-34.3 -9.3 -40.6 -11.95 L-46.45 -17.65 -48.8 -19.65 Q-51.45 -21.7 -53.45 -24.1 L-53.4 -24.2 Q-52.35 -24.9 -51.05 -24.55 L-51.0 -24.55 -50.95 -24.5 -50.95 -24.45 -50.35 -24.05 -48.45 -22.75 -47.15 -21.85 Q-44.4 -19.45 -40.95 -19.25 -40.7 -19.4 -40.6 -19.7 -40.25 -21.2 -41.45 -22.65 L-46.85 -28.55 -46.55 -28.85 -45.7 -28.2 -44.1 -26.7 -44.05 -26.6 -43.95 -26.45 -43.9 -26.35 -43.55 -26.15 -42.55 -25.95 Q-41.95 -25.8 -41.35 -25.95 L-41.3 -26.05 -41.15 -26.15 -41.05 -26.5 -40.9 -26.95 Q-40.95 -29.3 -42.15 -31.25 L-44.75 -35.35 Q-48.5 -41.1 -50.05 -47.7 L-49.8 -47.8 -48.1 -45.55 -47.95 -45.5 Q-44.75 -41.0 -41.8 -36.2 L-41.45 -35.5 Q-39.55 -32.8 -38.45 -29.75 L-37.55 -28.8 -37.5 -28.65 -37.0 -27.8 -36.95 -27.6 -36.35 -26.65 -36.35 -26.55 -36.3 -26.3 Q-34.1 -22.7 -30.85 -20.0 L-29.65 -20.05 Q-29.05 -20.25 -28.85 -20.85 -28.3 -22.6 -28.7 -24.5 L-28.65 -24.55 -27.85 -22.5 Q-27.85 -21.8 -27.45 -21.25 L-26.5 -19.85 Q-25.4 -18.15 -23.85 -18.2 L-22.15 -18.15 Q-18.65 -18.7 -18.1 -22.05 -17.65 -25.05 -17.75 -28.05 L-16.8 -25.95 -14.55 -19.85 Q-13.2 -15.7 -10.55 -12.2 -9.65 -11.0 -8.25 -10.75 -4.3 -10.05 -3.0 -12.95 -0.85 -14.75 0.4 -17.2 L0.5 -17.35 3.65 -21.25 4.15 -21.6 4.25 -21.7 4.5 -21.75 4.5 -21.65 4.5 -20.65 4.55 -20.25 Q5.95 -18.4 8.05 -19.5 9.4 -20.15 10.25 -21.3 12.8 -24.75 15.65 -27.9 L15.85 -27.8 15.1 -25.6 14.75 -24.8 Q13.7 -22.8 14.55 -21.3 L14.55 -21.25 14.85 -20.85 14.9 -20.8 15.25 -20.8 Q18.45 -20.55 21.0 -22.9 L22.8 -24.6 Q24.85 -26.55 22.95 -27.95 25.0 -31.6 28.65 -34.2 L29.7 -35.2 Q32.2 -38.65 35.6 -40.65 M16.1 -46.05 L16.1 -45.85 Q14.2 -41.8 11.9 -37.85 10.35 -35.2 8.25 -33.05 9.35 -37.4 11.1 -41.6 L11.35 -41.9 Q12.6 -44.5 14.9 -45.95 L16.1 -46.05 M48.45 -29.2 L48.25 -29.55 49.3 -31.15 Q52.3 -36.75 57.95 -39.45 57.95 -38.95 57.15 -38.4 55.0 -36.8 54.6 -34.35 52.25 -30.85 48.45 -29.2" fill="#dfefff" fill-rule="evenodd" stroke="none"/>
    </g>
  </defs>
</svg>
