<?xml version="1.0" encoding="UTF-8" standalone="no"?>
<svg xmlns:xlink="http://www.w3.org/1999/xlink" height="181.25px" width="455.15px" xmlns="http://www.w3.org/2000/svg">
  <g transform="matrix(1.0, 0.0, 0.0, 1.0, 265.05, 116.9)">
    <clipPath id="clipPath0" transform="matrix(1.0, 0.0, 0.0, 1.0, 265.05, 116.9)">
      <use height="97.95" transform="matrix(1.0, 0.0, 0.0, 1.0, -133.45, -105.6)" width="266.5" xlink:href="#shape0"/>
    </clipPath>
    <g clip-path="url(#clipPath0)">
      <use height="31.25" transform="matrix(1.0, 0.0, 0.0, 1.0, -57.4, -32.75)" width="133.05" xlink:href="#shape1"/>
      <use height="78.0" transform="matrix(0.4973, 0.0042, -0.0042, 0.4972, -16.4316, -65.8393)" width="91.05" xlink:href="#sprite0"/>
      <use height="37.7" transform="matrix(0.4973, 0.0042, -0.0042, 0.4972, -5.8529, -59.5033)" width="49.5" xlink:href="#sprite4"/>
      <use height="37.45" transform="matrix(0.4959, -0.0351, 0.0352, 0.4959, -10.8037, -43.5884)" width="70.25" xlink:href="#button0"/>
      <use height="5.7" transform="matrix(0.4959, -0.0351, 0.0352, 0.4959, -2.8423, -29.0981)" width="40.65" xlink:href="#sprite7"/>
      <use height="22.4" transform="matrix(0.4959, -0.0351, 0.0352, 0.4959, -1.9237, -44.8994)" width="34.4" xlink:href="#sprite8"/>
    </g>
    <use height="96.45" transform="matrix(1.0, 0.0, 0.0, 1.0, -110.0, -95.65)" width="213.25" xlink:href="#shape8"/>
  </g>
  <defs>
    <g id="shape0" transform="matrix(1.0, 0.0, 0.0, 1.0, 133.45, 105.6)">
      <path d="M13.0 -7.65 Q-38.8 -7.65 -80.8 -8.25 -122.85 -8.9 -133.05 -12.2 L-133.05 -12.35 Q-133.05 -13.25 -132.55 -14.1 L-133.45 -14.1 -133.45 -105.6 133.05 -105.6 133.05 -14.1 130.85 -14.1 131.1 -13.6 Q127.35 -12.1 112.55 -10.7 L81.25 -8.45 Q64.75 -7.65 13.0 -7.65" fill="#0066ff" fill-rule="evenodd" stroke="none"/>
    </g>
    <g id="shape1" transform="matrix(1.0, 0.0, 0.0, 1.0, 57.4, 32.75)">
      <path d="M9.35 -27.35 L9.0 -26.85 8.2 -26.0 7.2 -25.25 6.3 -24.85 6.1 -24.8 5.25 -24.7 4.75 -24.7 4.7 -24.9 4.65 -25.3 Q4.4 -27.6 3.7 -29.7 L3.65 -29.7 Q3.7 -30.7 4.65 -31.4 5.3 -31.9 6.1 -31.65 9.05 -30.6 9.3 -27.5 L9.35 -27.35 M22.2 -1.5 L21.7 -2.55 Q23.75 -2.9 25.7 -3.75 L26.15 -2.4 24.4 -1.5 22.2 -1.5 M-10.25 -5.25 L-9.6 -7.1 -8.85 -6.95 -10.25 -5.25 M-0.35 -1.5 L-0.15 -1.85 0.05 -1.9 0.8 -2.15 1.15 -2.2 1.5 -2.3 1.65 -2.35 Q2.25 -2.35 2.6 -1.85 L2.9 -1.6 3.0 -1.5 -0.35 -1.5" fill="#0db5c8" fill-rule="evenodd" stroke="none"/>
      <path d="M4.75 -24.7 L5.25 -24.7 6.1 -24.8 6.3 -24.85 7.2 -25.25 8.2 -26.0 9.0 -26.85 9.35 -27.35 9.5 -25.2 9.55 -24.8 9.6 -23.45 9.7 -21.8 9.7 -21.25 Q7.15 -19.55 4.85 -21.05 L4.85 -21.65 4.85 -23.3 4.75 -24.7 M26.15 -2.4 L26.2 -2.25 26.5 -1.5 24.4 -1.5 26.15 -2.4 M-29.7 -1.5 L-29.7 -1.6 Q-28.5 -4.15 -26.45 -6.1 L-26.25 -6.25 -26.1 -6.45 -25.3 -7.1 Q-24.95 -7.35 -24.45 -7.45 L-24.3 -7.4 -23.7 -7.2 -22.8 -6.45 Q-20.85 -4.95 -19.8 -2.75 L-19.2 -1.95 -19.0 -1.5 -29.7 -1.5 M-10.25 -5.25 L-11.35 -3.7 -10.3 -7.3 -9.6 -7.1 -10.25 -5.25 M-5.3 -1.5 Q-4.4 -3.6 -2.7 -5.2 L-2.05 -5.75 Q0.7 -7.65 2.45 -4.7 L2.6 -4.55 3.25 -3.65 4.25 -2.1 4.45 -1.5 3.0 -1.5 2.9 -1.6 2.6 -1.85 Q2.25 -2.35 1.65 -2.35 L1.5 -2.3 1.15 -2.2 0.8 -2.15 0.05 -1.9 -0.15 -1.85 -0.35 -1.5 -5.3 -1.5" fill="#0ecfe4" fill-rule="evenodd" stroke="none"/>
      <path d="M10.7 -24.8 L10.75 -25.05 10.75 -25.15 11.65 -25.15 Q12.4 -25.15 13.15 -24.75 L10.7 -24.8 M3.8 -25.35 L3.85 -24.9 -21.65 -24.15 -31.3 -23.5 -57.4 -20.95 Q-53.65 -22.35 -49.6 -22.75 L-30.85 -24.5 -16.9 -25.6 3.8 -25.35 M0.05 -23.1 Q-1.3 -22.3 -2.45 -21.25 L-2.5 -21.25 -26.7 -20.3 Q-13.4 -22.35 0.05 -23.1 M10.6 -23.45 L10.6 -23.5 10.65 -23.45 10.6 -23.45 M14.65 -21.85 L11.9 -23.5 23.7 -23.45 Q40.9 -23.15 57.75 -19.6 L57.85 -19.5 Q36.35 -22.1 14.65 -21.85 M48.9 -23.95 L49.05 -24.0 Q62.6 -24.0 75.55 -20.0 L75.65 -19.85 48.9 -23.95" fill="#dfefff" fill-rule="evenodd" stroke="none"/>
      <path d="M9.35 -27.35 L9.3 -27.5 Q9.05 -30.6 6.1 -31.65 5.3 -31.9 4.65 -31.4 3.7 -30.7 3.65 -29.7 L3.65 -29.6 3.7 -29.65 3.7 -29.7 Q4.4 -27.6 4.65 -25.3 L4.7 -24.9 4.75 -24.7 4.85 -23.3 4.85 -21.65 4.85 -21.05 Q7.15 -19.55 9.7 -21.25 L9.7 -21.8 9.6 -23.45 9.55 -24.8 9.5 -25.2 9.35 -27.35 M10.75 -25.15 L10.75 -25.05 10.7 -24.8 10.7 -24.4 11.05 -24.05 11.1 -23.95 11.65 -23.6 11.65 -23.65 11.9 -23.5 14.65 -21.85 Q19.4 -18.7 23.1 -14.15 25.0 -11.85 27.8 -10.6 L31.35 -8.95 Q30.7 -6.6 28.25 -5.05 L26.65 -4.15 27.2 -3.05 27.25 -3.0 27.45 -2.35 27.5 -2.25 27.8 -1.5 26.5 -1.5 26.2 -2.25 26.15 -2.4 25.7 -3.75 Q23.75 -2.9 21.7 -2.55 L22.2 -1.5 21.4 -1.5 21.0 -2.4 20.45 -2.35 20.4 -1.5 19.5 -1.5 19.5 -3.0 Q19.35 -9.1 17.25 -14.7 16.15 -17.6 14.35 -19.85 L12.55 -21.85 10.65 -23.45 10.6 -23.5 10.6 -23.45 10.45 -22.3 10.6 -21.8 10.6 -21.75 10.75 -21.8 11.05 -21.85 11.05 -21.8 Q10.85 -19.4 7.8 -19.3 4.45 -19.15 3.1 -21.55 L2.75 -22.2 2.75 -22.5 Q2.9 -22.8 3.2 -22.75 3.7 -22.65 3.65 -22.15 L3.65 -22.05 4.05 -21.6 4.1 -21.6 3.95 -23.3 3.9 -23.8 2.25 -23.2 1.3 -22.85 -0.45 -21.4 Q-0.65 -20.95 -1.15 -20.5 L-1.25 -20.4 Q-1.2 -20.1 -1.45 -19.9 L-1.55 -19.8 Q-3.0 -15.1 -5.3 -10.75 L-6.5 -8.55 -7.6 -6.75 -7.75 -6.55 -7.95 -6.45 -7.95 -6.35 -9.45 -4.2 -11.2 -2.0 -11.55 -1.5 -12.7 -1.5 -12.65 -1.65 -12.65 -1.7 -12.75 -1.85 Q-12.35 -5.0 -10.9 -7.55 -12.9 -8.35 -14.5 -10.05 L-14.6 -10.4 -14.4 -10.9 Q-8.8 -12.85 -5.35 -17.9 -4.05 -19.85 -2.45 -21.25 -1.3 -22.3 0.05 -23.1 1.8 -24.15 3.85 -24.8 L3.85 -24.9 3.8 -25.35 3.55 -27.55 Q2.3 -29.8 3.8 -31.65 4.75 -32.8 6.25 -32.75 9.1 -31.45 10.15 -29.0 10.85 -27.35 10.75 -25.15 M23.95 -4.2 L25.55 -4.85 25.95 -5.05 25.95 -5.1 26.0 -5.05 26.75 -5.4 Q28.85 -6.35 30.1 -8.25 22.7 -11.75 17.65 -18.2 L17.55 -18.3 17.4 -18.55 17.3 -18.75 14.85 -20.75 16.65 -18.25 17.9 -15.7 18.2 -14.9 Q20.3 -9.15 20.4 -3.0 L23.95 -4.2 M1.3 -7.3 L1.75 -7.0 1.95 -6.95 2.75 -5.95 3.4 -5.1 3.95 -4.2 5.35 -1.5 4.45 -1.5 4.25 -2.1 3.25 -3.65 2.6 -4.55 2.45 -4.7 Q0.7 -7.65 -2.05 -5.75 L-2.7 -5.2 Q-4.4 -3.6 -5.3 -1.5 L-11.4 -1.5 -10.7 -1.7 -8.85 -2.05 -6.3 -2.05 -6.2 -2.05 Q-5.4 -3.7 -4.2 -5.15 L-4.15 -5.2 -3.0 -6.35 Q-2.3 -7.05 -1.3 -7.35 L-0.8 -7.55 -0.3 -7.7 1.3 -7.3 M-19.0 -1.5 L-19.2 -1.95 -19.8 -2.75 Q-20.85 -4.95 -22.8 -6.45 L-23.7 -7.2 -24.3 -7.4 -24.45 -7.45 Q-24.95 -7.35 -25.3 -7.1 L-26.1 -6.45 -26.25 -6.25 -26.45 -6.1 Q-28.5 -4.15 -29.7 -1.6 L-29.7 -1.5 -30.65 -1.5 -29.1 -4.45 Q-28.1 -6.1 -26.65 -7.15 L-26.6 -7.2 -25.1 -8.25 -24.6 -8.45 Q-20.6 -6.7 -18.6 -2.95 L-18.4 -4.15 -18.25 -4.95 -17.95 -5.25 -17.8 -5.25 Q-15.95 -3.0 -13.55 -1.5 L-15.55 -1.5 -16.9 -3.0 -17.3 -3.45 -17.65 -1.5 -19.0 -1.5 M-2.35 -19.6 L-2.3 -19.75 -2.4 -19.65 Q-5.8 -16.6 -8.8 -13.1 -10.5 -11.05 -13.05 -10.15 L-11.65 -9.1 -11.4 -8.95 -9.25 -7.85 -8.35 -7.55 -8.15 -7.75 -8.1 -7.9 -8.1 -8.0 -7.9 -8.25 -6.75 -9.9 -6.35 -10.7 -6.3 -10.75 -5.15 -13.2 Q-3.8 -16.05 -2.75 -19.0 L-2.7 -19.2 -2.35 -19.6 M-9.6 -7.1 L-10.3 -7.3 -11.35 -3.7 -10.25 -5.25 -8.85 -6.95 -9.6 -7.1" fill="#000000" fill-rule="evenodd" stroke="none"/>
      <path d="M-11.55 -1.5 L-11.2 -2.0 -9.45 -4.2 -8.85 -4.35 -8.1 -4.55 -4.15 -5.2 -4.2 -5.15 Q-5.4 -3.7 -6.2 -2.05 L-6.3 -2.05 -8.85 -2.05 -10.7 -1.7 -11.4 -1.5 -11.55 -1.5 M-7.95 -6.35 L-7.95 -6.45 -7.75 -6.55 -7.6 -6.75 -6.5 -8.55 -4.5 -9.25 -2.95 -9.6 -2.6 -9.65 -0.8 -9.7 -0.3 -9.65 4.6 -8.95 6.9 -8.25 7.4 -8.1 9.7 -7.25 Q12.05 -6.5 14.05 -4.95 L14.85 -4.4 16.6 -3.0 16.5 -2.35 16.4 -1.5 14.35 -1.5 12.9 -2.6 Q10.85 -4.1 8.55 -5.15 6.4 -6.2 4.05 -6.8 L3.2 -7.0 2.4 -7.15 1.3 -7.3 -0.3 -7.7 -0.8 -7.55 -1.3 -7.35 -2.2 -7.35 -4.5 -7.2 -6.95 -6.75 -7.95 -6.35 M-5.3 -10.75 Q-3.0 -15.1 -1.55 -19.8 L-1.45 -19.9 Q-1.2 -20.1 -1.25 -20.4 L-1.15 -20.5 Q-0.65 -20.95 -0.45 -21.4 L1.3 -22.85 2.25 -23.2 3.9 -23.8 3.95 -23.3 4.1 -21.6 4.05 -21.6 3.65 -22.05 3.65 -22.15 Q3.7 -22.65 3.2 -22.75 2.9 -22.8 2.75 -22.5 L2.75 -22.2 3.1 -21.55 Q4.45 -19.15 7.8 -19.3 10.85 -19.4 11.05 -21.8 L11.05 -21.85 10.75 -21.8 10.6 -21.75 10.6 -21.8 10.45 -22.3 10.6 -23.45 10.65 -23.45 12.55 -21.85 14.35 -19.85 15.7 -16.9 16.05 -15.65 16.6 -12.95 16.7 -11.95 16.8 -8.6 16.8 -7.35 16.8 -5.6 16.6 -5.75 16.25 -6.1 15.1 -6.95 13.85 -7.75 13.4 -8.05 11.0 -9.25 9.95 -9.75 9.5 -10.0 8.3 -10.55 7.65 -10.7 4.95 -11.2 3.55 -11.4 -1.3 -11.75 -3.5 -11.3 -3.75 -11.2 -4.1 -11.1 -4.65 -11.0 -5.3 -10.75 M23.95 -4.2 L23.8 -4.45 23.4 -5.15 22.45 -6.7 21.15 -8.9 Q20.05 -11.05 19.2 -13.25 L18.75 -14.15 18.35 -14.95 18.2 -14.9 17.9 -15.7 16.65 -18.25 14.85 -20.75 17.3 -18.75 17.4 -18.55 17.55 -18.3 17.65 -18.2 Q22.7 -11.75 30.1 -8.25 28.85 -6.35 26.75 -5.4 L26.0 -5.05 25.95 -5.1 25.95 -5.05 25.55 -4.85 23.95 -4.2 M3.95 -4.2 L4.95 -3.9 7.25 -2.9 7.9 -2.55 8.45 -2.3 9.85 -1.5 5.35 -1.5 3.95 -4.2 M-2.4 -19.65 L-2.35 -19.6 -2.7 -19.2 -2.75 -19.0 Q-3.8 -16.05 -5.15 -13.2 L-5.75 -12.55 -6.5 -11.9 -9.75 -9.55 Q-10.55 -9.1 -11.4 -8.95 L-11.65 -9.1 -13.05 -10.15 Q-10.5 -11.05 -8.8 -13.1 -5.8 -16.6 -2.4 -19.65" fill="#f02d0b" fill-rule="evenodd" stroke="none"/>
      <path d="M14.35 -19.85 Q16.15 -17.6 17.25 -14.7 19.35 -9.1 19.5 -3.0 L18.85 -3.8 18.65 -4.0 18.25 -4.35 17.95 -4.6 16.8 -5.6 16.8 -7.35 16.8 -8.6 16.7 -11.95 16.6 -12.95 16.05 -15.65 15.7 -16.9 14.35 -19.85 M18.2 -14.9 L18.35 -14.95 18.75 -14.15 19.2 -13.25 Q20.05 -11.05 21.15 -8.9 L22.45 -6.7 23.4 -5.15 23.8 -4.45 23.95 -4.2 20.4 -3.0 Q20.3 -9.15 18.2 -14.9 M16.6 -3.0 L17.15 -2.6 17.5 -2.35 18.45 -1.5 16.4 -1.5 16.5 -2.35 16.6 -3.0 M-5.15 -13.2 L-6.3 -10.75 -6.35 -10.7 -6.75 -9.9 -7.9 -8.25 -8.1 -8.0 -8.1 -7.9 -8.15 -7.75 -8.35 -7.55 -9.25 -7.85 -11.4 -8.95 Q-10.55 -9.1 -9.75 -9.55 L-6.5 -11.9 -5.75 -12.55 -5.15 -13.2" fill="#d6280a" fill-rule="evenodd" stroke="none"/>
      <path d="M-9.45 -4.2 L-7.95 -6.35 -6.95 -6.75 -4.5 -7.2 -2.2 -7.35 -1.3 -7.35 Q-2.3 -7.05 -3.0 -6.35 L-4.15 -5.2 -8.1 -4.55 -8.85 -4.35 -9.45 -4.2 M-6.5 -8.55 L-5.3 -10.75 -4.65 -11.0 -4.1 -11.1 -3.75 -11.2 -3.5 -11.3 -1.3 -11.75 3.55 -11.4 4.95 -11.2 7.65 -10.7 8.3 -10.55 9.5 -10.0 9.95 -9.75 11.0 -9.25 13.4 -8.05 13.85 -7.75 15.1 -6.95 16.25 -6.1 16.6 -5.75 16.8 -5.6 17.95 -4.6 18.25 -4.35 18.65 -4.0 18.85 -3.8 19.5 -3.0 19.5 -1.5 18.45 -1.5 17.5 -2.35 17.15 -2.6 16.6 -3.0 14.85 -4.4 14.05 -4.95 Q12.05 -6.5 9.7 -7.25 L7.4 -8.1 6.9 -8.25 4.6 -8.95 -0.3 -9.65 -0.8 -9.7 -2.6 -9.65 -2.95 -9.6 -4.5 -9.25 -6.5 -8.55 M9.85 -1.5 L8.45 -2.3 7.9 -2.55 7.25 -2.9 4.95 -3.9 3.95 -4.2 3.4 -5.1 2.75 -5.95 1.95 -6.95 1.75 -7.0 1.3 -7.3 2.4 -7.15 3.2 -7.0 4.05 -6.8 Q6.4 -6.2 8.55 -5.15 10.85 -4.1 12.9 -2.6 L14.35 -1.5 9.85 -1.5" fill="#c62509" fill-rule="evenodd" stroke="none"/>
      <path d="M-17.65 -1.5 L-17.3 -3.45 -16.9 -3.0 -15.55 -1.5 -17.65 -1.5" fill="#666666" fill-rule="evenodd" stroke="none"/>
    </g>
    <g id="sprite0" transform="matrix(1.0, 0.0, 0.0, 1.0, 46.65, 39.3)">
      <use height="68.55" transform="matrix(0.9994, 0.0085, -0.0085, 0.9994, 23.2973, -32.1191)" width="21.1" xlink:href="#sprite1"/>
      <use height="69.3" transform="matrix(-0.999, 0.0348, 0.0348, 0.999, -23.1916, -31.339)" width="23.5" xlink:href="#sprite2"/>
      <use height="57.65" transform="matrix(0.9966, -0.0792, 0.0792, 0.9966, -35.9936, -33.9156)" width="68.05" xlink:href="#sprite3"/>
    </g>
    <g id="sprite1" transform="matrix(1.0, 0.0, 0.0, 1.0, 10.55, 34.3)">
      <use height="68.55" transform="matrix(1.0, 0.0, 0.0, 1.0, -10.55, -34.3)" width="21.1" xlink:href="#shape2"/>
    </g>
    <g id="shape2" transform="matrix(1.0, 0.0, 0.0, 1.0, 10.55, 34.3)">
      <path d="M6.6 -9.2 Q5.55 -23.75 0.1 -29.7 L-8.65 -27.2 -10.55 -29.45 Q-7.8 -31.05 -2.0 -32.9 4.45 -34.95 5.35 -33.95 10.2 -28.6 10.5 -4.3 10.65 5.1 10.0 14.75 L8.75 32.2 Q7.85 35.65 6.4 33.35 7.25 -0.15 6.6 -9.2" fill="#000000" fill-rule="evenodd" stroke="none"/>
    </g>
    <g id="sprite2" transform="matrix(1.0, 0.0, 0.0, 1.0, 10.7, 32.5)">
      <use height="68.55" transform="matrix(1.0, 0.0, 0.0, 1.0, -10.55, -31.8)" width="21.1" xlink:href="#sprite1"/>
    </g>
    <g id="sprite3" transform="matrix(1.0, 0.0, 0.0, 1.0, 33.9, 29.15)">
      <use height="57.65" transform="matrix(1.0, 0.0, 0.0, 1.0, -33.9, -29.15)" width="68.05" xlink:href="#shape3"/>
    </g>
    <g id="shape3" transform="matrix(1.0, 0.0, 0.0, 1.0, 33.9, 29.15)">
      <path d="M-22.05 21.5 L-21.1 22.05 Q-20.7 22.05 -20.7 21.7 L-20.75 21.55 Q-25.3 18.15 -28.85 13.7 L-28.85 13.6 -28.9 13.3 Q-32.55 7.8 -32.75 1.15 L-32.85 0.9 -32.8 0.7 -32.9 -1.05 -32.85 -1.15 -32.8 -1.3 -32.8 -1.8 -32.75 -2.2 -32.55 -5.05 -32.45 -5.2 -32.35 -5.5 -32.35 -5.6 -32.4 -5.8 -32.05 -6.8 -30.9 -10.7 -30.55 -11.1 -29.7 -12.95 -29.5 -13.2 -28.9 -14.2 -28.75 -14.25 -28.5 -14.5 -28.3 -14.7 -27.45 -16.05 -27.05 -16.25 -27.0 -16.35 -26.5 -17.1 -26.35 -17.15 -22.85 -20.4 Q-21.6 -21.05 -20.4 -22.05 -19.1 -23.15 -17.6 -23.85 L-17.5 -23.95 -17.4 -24.1 -17.3 -24.2 -15.1 -25.1 -13.15 -25.7 -7.3 -27.35 Q4.05 -29.7 14.8 -25.0 L19.15 -22.9 Q24.45 -20.1 27.7 -15.3 L27.9 -15.2 28.15 -15.2 Q28.55 -14.35 29.1 -13.55 33.35 -7.2 32.9 0.15 L33.1 0.35 Q32.75 4.2 31.4 7.9 L31.3 8.05 Q29.55 13.2 25.8 17.05 L25.75 17.1 Q24.75 18.65 23.15 19.65 L23.05 19.8 Q22.7 20.05 22.8 20.35 L23.7 20.25 Q13.85 28.5 0.0 28.5 -12.75 28.5 -22.05 21.5 M30.8 11.75 L32.0 8.75 32.2 8.65 30.8 11.75" fill="url(#gradient0)" fill-rule="evenodd" stroke="none"/>
      <path d="M23.7 20.25 L22.8 20.35 Q22.7 20.05 23.05 19.8 L23.15 19.65 Q24.75 18.65 25.75 17.1 L25.8 17.05 Q29.55 13.2 31.3 8.05 L31.4 7.9 Q32.75 4.2 33.1 0.35 L32.9 0.15 Q33.35 -7.2 29.1 -13.55 28.55 -14.35 28.15 -15.2 L27.9 -15.2 27.7 -15.3 Q24.45 -20.1 19.15 -22.9 L14.8 -25.0 Q4.05 -29.7 -7.3 -27.35 L-13.15 -25.7 -15.1 -25.1 -17.3 -24.2 -17.4 -24.1 -17.5 -23.95 -17.6 -23.85 Q-19.1 -23.15 -20.4 -22.05 -21.6 -21.05 -22.85 -20.4 L-26.35 -17.15 -26.5 -17.1 -27.0 -16.35 -27.05 -16.25 -27.45 -16.05 -28.3 -14.7 -28.5 -14.5 -28.75 -14.25 -28.9 -14.2 -29.5 -13.2 -29.7 -12.95 -30.55 -11.1 -30.9 -10.7 -32.05 -6.8 -32.4 -5.8 -32.35 -5.6 -32.35 -5.5 -32.45 -5.2 -32.55 -5.05 -32.75 -2.2 -32.8 -1.8 -32.8 -1.3 -32.85 -1.15 -32.9 -1.05 -32.8 0.7 -32.85 0.9 -32.75 1.15 Q-32.55 7.8 -28.9 13.3 L-28.85 13.6 -28.85 13.7 Q-25.3 18.15 -20.75 21.55 L-20.7 21.7 Q-20.7 22.05 -21.1 22.05 L-22.05 21.5 Q-23.65 20.5 -25.05 19.15 -26.75 18.1 -27.85 16.25 -33.85 9.25 -33.9 0.0 L-33.75 -1.65 -33.65 -2.6 -33.65 -2.9 -33.6 -3.1 -33.55 -3.2 -33.3 -5.35 -33.3 -5.8 -31.45 -11.4 -30.8 -12.5 -30.8 -12.7 -30.75 -12.8 -30.65 -12.95 -30.55 -13.05 Q-27.45 -18.6 -22.05 -21.85 L-17.75 -24.65 Q-14.15 -26.55 -10.1 -27.7 0.0 -30.5 10.15 -27.95 17.9 -25.4 24.3 -20.4 L26.8 -18.35 26.9 -18.3 27.1 -18.2 27.25 -17.9 Q27.25 -18.1 27.5 -18.0 L27.8 -17.45 27.85 -17.35 Q31.6 -12.55 33.3 -6.75 L33.3 -6.55 Q33.9 -4.5 33.95 -2.4 L34.0 -2.3 Q33.95 -1.95 34.05 -1.65 L34.15 -1.45 34.05 -0.45 34.0 -0.2 34.1 0.05 34.1 0.15 33.8 2.9 33.7 3.25 32.45 8.2 32.2 8.65 32.0 8.75 30.8 11.75 Q28.35 16.75 23.75 20.2 L23.7 20.25" fill="#000000" fill-rule="evenodd" stroke="none"/>
    </g>
    <radialGradient cx="0" cy="0" gradientTransform="matrix(0.0435, 0.0, 0.0, 0.0435, 1.35, -6.55)" gradientUnits="userSpaceOnUse" id="gradient0" r="819.2" spreadMethod="pad">
      <stop offset="0.0" stop-color="#54b4cc"/>
      <stop offset="0.7176470588235294" stop-color="#54b4cc"/>
      <stop offset="1.0" stop-color="#3e8699"/>
    </radialGradient>
    <g id="sprite4" transform="matrix(1.0, 0.0, 0.0, 1.0, 24.8, 18.8)">
      <use height="34.35" transform="matrix(0.9966, -0.0792, 0.0792, 0.9966, -24.8179, -15.3403)" width="21.5" xlink:href="#sprite5"/>
      <use height="34.35" transform="matrix(-0.9984, 0.0487, 0.0487, 0.9984, 23.0507, -18.7968)" width="21.5" xlink:href="#sprite5"/>
    </g>
    <g id="sprite5" transform="matrix(1.0, 0.0, 0.0, 1.0, 10.75, 17.1)">
      <use height="34.35" transform="matrix(1.0, 0.0, 0.0, 1.0, -10.75, -17.1)" width="21.5" xlink:href="#shape4"/>
      <use height="26.55" transform="matrix(1.0, 0.0, 0.0, 1.0, -9.7998, -10.4998)" width="19.65" xlink:href="#sprite6"/>
    </g>
    <g id="shape4" transform="matrix(1.0, 0.0, 0.0, 1.0, 10.75, 17.1)">
      <path d="M5.95 -10.15 Q7.85 -9.0 9.2 -6.25 11.0 -2.55 10.7 5.25 10.55 10.6 9.9 13.45 9.2 16.85 -0.3 17.2 L-5.65 17.05 -7.8 16.65 Q-9.35 15.2 -10.15 11.4 -10.9 7.7 -10.7 2.75 -10.45 -2.95 -7.75 -6.95 -4.95 -11.05 -0.7 -11.35 L1.55 -11.5 Q3.85 -11.4 5.35 -10.45 L5.95 -10.15 M5.65 -9.15 Q4.05 -10.35 1.2 -10.5 -5.65 -10.9 -8.85 -1.8 -6.2 -6.1 -2.1 -7.65 2.65 -9.45 7.75 -6.65 L5.65 -9.15 M8.05 -5.7 Q2.25 -7.75 -2.05 -6.1 -5.85 -4.65 -8.8 -0.25 L-9.2 3.0 Q-9.4 7.6 -8.55 11.15 -7.8 14.5 -6.45 15.85 L-6.85 15.9 -5.5 16.1 -0.35 16.2 Q4.55 16.05 7.55 13.25 8.85 12.05 9.25 5.0 9.65 -2.4 8.05 -5.65 L8.05 -5.7 M-0.3 -16.95 Q2.5 -17.7 3.7 -15.2 -1.55 -17.35 -5.3 -12.25 L-4.25 -14.05 Q-2.8 -16.3 -0.3 -16.95 M-6.0 7.9 L-0.35 6.6 -5.9 3.7 Q-5.1 -2.45 -0.35 -2.3 5.2 -2.15 5.2 6.2 5.2 10.1 4.15 11.95 2.85 14.35 -0.4 14.45 -5.35 14.6 -6.0 7.9" fill="#000000" fill-rule="evenodd" stroke="none"/>
      <path d="M8.05 -5.7 L8.05 -5.65 Q9.65 -2.4 9.25 5.0 8.85 12.05 7.55 13.25 4.55 16.05 -0.35 16.2 L-5.5 16.1 -6.85 15.9 -6.45 15.85 Q-7.8 14.5 -8.55 11.15 -9.4 7.6 -9.2 3.0 L-8.8 -0.25 Q-5.85 -4.65 -2.05 -6.1 2.25 -7.75 8.05 -5.7 M-6.0 7.9 Q-5.35 14.6 -0.4 14.45 2.85 14.35 4.15 11.95 5.2 10.1 5.2 6.2 5.2 -2.15 -0.35 -2.3 -5.1 -2.45 -5.9 3.7 L-0.35 6.6 -6.0 7.9" fill="#ffffff" fill-rule="evenodd" stroke="none"/>
      <path d="M5.65 -9.15 L7.75 -6.65 Q2.65 -9.45 -2.1 -7.65 -6.2 -6.1 -8.85 -1.8 -5.65 -10.9 1.2 -10.5 4.05 -10.35 5.65 -9.15" fill="#53b3cb" fill-rule="evenodd" stroke="none"/>
    </g>
    <g id="button0" transform="matrix(1.0, 0.0, 0.0, 1.0, 35.25, 17.7)">
      <use height="37.45" transform="matrix(1.0, 0.0, 0.0, 1.0, -35.25, -17.7)" width="70.25" xlink:href="#shape5"/>
    </g>
    <g id="shape5" transform="matrix(1.0, 0.0, 0.0, 1.0, 35.25, 17.7)">
      <path d="M4.2 -7.65 L8.85 -7.55 13.9 -6.85 Q16.5 -6.25 18.15 -4.1 L21.25 -0.05 Q22.85 2.05 25.2 3.35 27.0 4.35 28.75 5.5 L27.35 7.05 25.65 6.35 Q23.4 5.5 21.8 3.4 L20.85 1.85 19.15 -0.9 Q16.7 -4.8 12.35 -6.4 9.2 -7.55 4.2 -7.65 M-25.8 -12.0 L-33.0 -3.9 -34.25 -5.4 -34.2 -5.5 Q-34.1 -5.8 -34.35 -6.0 L-34.35 -6.2 -34.3 -7.35 -34.2 -7.55 -34.0 -8.4 -33.9 -8.5 Q-33.65 -8.75 -33.65 -9.1 L-33.5 -9.2 -33.4 -9.3 -33.35 -9.4 -33.3 -9.6 -33.2 -9.7 -33.05 -9.85 Q-31.7 -12.35 -30.6 -14.95 L-30.55 -15.05 -30.3 -16.25 -25.8 -12.0 M-30.95 3.1 Q-29.9 2.8 -29.0 1.85 -28.9 3.6 -27.6 3.6 L-27.5 3.6 Q-28.55 4.8 -29.9 5.05 L-30.55 3.8 -30.95 3.4 -30.95 3.25 -30.95 3.1 M-27.2 -0.6 L-27.0 -0.9 Q-21.5 -9.15 -15.75 -9.15 L-10.05 -8.55 -5.8 -8.0 -14.35 -8.4 Q-18.65 -7.1 -20.35 -6.15 -23.05 -4.65 -24.6 -1.9 L-26.35 1.7 -26.35 0.85 Q-26.35 -0.4 -27.2 -0.6 M-31.0 -16.35 L-31.0 -16.9 -30.95 -16.85 -31.0 -16.35" fill="#a88b69" fill-rule="evenodd" stroke="none"/>
      <path d="M-5.8 -8.0 L4.2 -7.65 Q9.2 -7.55 12.35 -6.4 16.7 -4.8 19.15 -0.9 L20.85 1.85 21.8 3.4 Q23.4 5.5 25.65 6.35 L27.35 7.05 25.2 9.4 Q16.9 16.45 6.05 18.0 L3.85 18.6 0.65 18.45 0.25 18.35 0.0 18.4 -4.25 18.05 -9.8 17.2 Q-19.8 14.95 -27.6 8.1 L-29.9 5.05 Q-28.55 4.8 -27.5 3.6 -26.6 3.5 -26.4 1.85 L-26.35 1.7 -24.6 -1.9 Q-23.05 -4.65 -20.35 -6.15 -18.65 -7.1 -14.35 -8.4 L-5.8 -8.0 M-7.75 18.8 L-7.95 18.75 -12.45 17.9 Q-14.6 17.35 -16.45 16.25 L-15.25 16.7 Q-11.6 18.0 -7.75 18.8 M-22.15 13.2 L-24.4 11.8 -26.45 10.3 Q-24.5 11.75 -22.35 13.0 L-22.15 13.2 M22.15 5.75 Q22.15 4.75 20.9 4.75 20.0 4.75 19.35 5.45 18.75 6.15 18.75 7.1 18.75 8.0 19.75 8.0 20.75 8.0 21.45 7.35 22.15 6.7 22.15 5.75 M-23.65 -2.6 Q-24.55 -2.6 -24.55 -1.15 -24.55 0.1 -23.65 0.1 -22.85 0.1 -22.85 -1.65 -22.85 -2.6 -23.65 -2.6" fill="#8c7357" fill-rule="evenodd" stroke="none"/>
      <path d="M28.75 5.5 Q27.0 4.35 25.2 3.35 22.85 2.05 21.25 -0.05 L18.15 -4.1 Q16.5 -6.25 13.9 -6.85 L8.85 -7.55 4.2 -7.65 -5.8 -8.0 -10.05 -8.55 -15.75 -9.15 Q-21.5 -9.15 -27.0 -0.9 L-27.2 -0.6 Q-27.95 -0.6 -28.45 0.1 -29.0 0.85 -29.0 1.85 -29.9 2.8 -30.95 3.1 L-31.3 2.65 -32.4 -0.9 Q-32.25 -2.55 -33.0 -3.9 L-25.8 -12.0 -25.5 -11.75 Q-21.6 -14.35 -15.0 -15.75 -8.4 -17.1 -0.9 -16.9 16.05 -16.4 26.3 -9.15 26.85 -7.7 28.1 -5.7 29.45 -3.5 29.85 -1.0 L30.55 3.45 28.75 5.5 M24.15 -2.0 Q24.15 -2.95 23.5 -3.15 22.65 -3.3 22.65 -2.0 22.65 -0.5 23.15 -0.5 24.15 -0.35 24.15 -2.0 M26.45 3.2 Q27.1 3.25 27.1 1.9 L27.1 1.85 Q27.1 0.4 26.1 0.8 25.8 0.9 25.85 1.85 L25.85 2.0 Q25.85 3.15 26.45 3.2 M-28.3 -5.95 Q-28.95 -5.95 -28.95 -4.5 -28.95 -3.2 -28.3 -3.2 -27.7 -3.2 -27.7 -4.95 -27.7 -5.95 -28.3 -5.95 M-31.3 -5.1 Q-31.8 -5.1 -31.8 -3.7 -31.8 -2.5 -31.3 -2.5 -30.8 -2.5 -30.8 -4.2 -30.8 -5.1 -31.3 -5.1" fill="#c19f79" fill-rule="evenodd" stroke="none"/>
      <path d="M30.55 3.45 L29.85 -1.0 Q29.45 -3.5 28.1 -5.7 26.85 -7.7 26.3 -9.15 L30.1 -13.7 Q30.05 -12.7 30.4 -11.65 L31.8 -9.0 Q33.75 -5.55 34.0 -1.8 33.65 -0.15 32.5 1.2 L30.55 3.45 M30.85 -13.6 L30.9 -13.55 30.85 -13.6 M34.55 -4.25 Q35.05 -3.25 35.0 -2.25 L34.8 -3.35 34.55 -4.25" fill="#b2936f" fill-rule="evenodd" stroke="none"/>
      <path d="M-29.0 1.85 Q-29.0 0.85 -28.45 0.1 -27.95 -0.6 -27.2 -0.6 -26.35 -0.4 -26.35 0.85 L-26.35 1.7 -26.4 1.85 Q-26.6 3.5 -27.5 3.6 L-27.6 3.6 Q-28.9 3.6 -29.0 1.85 M24.15 -2.0 Q24.15 -0.35 23.15 -0.5 22.65 -0.5 22.65 -2.0 22.65 -3.3 23.5 -3.15 24.15 -2.95 24.15 -2.0 M26.45 3.2 Q25.85 3.15 25.85 2.0 L25.85 1.85 Q25.8 0.9 26.1 0.8 27.1 0.4 27.1 1.85 L27.1 1.9 Q27.1 3.25 26.45 3.2 M22.15 5.75 Q22.15 6.7 21.45 7.35 20.75 8.0 19.75 8.0 18.75 8.0 18.75 7.1 18.75 6.15 19.35 5.45 20.0 4.75 20.9 4.75 22.15 4.75 22.15 5.75 M-31.3 -5.1 Q-30.8 -5.1 -30.8 -4.2 -30.8 -2.5 -31.3 -2.5 -31.8 -2.5 -31.8 -3.7 -31.8 -5.1 -31.3 -5.1 M-28.3 -5.95 Q-27.7 -5.95 -27.7 -4.95 -27.7 -3.2 -28.3 -3.2 -28.95 -3.2 -28.95 -4.5 -28.95 -5.95 -28.3 -5.95 M-23.65 -2.6 Q-22.85 -2.6 -22.85 -1.65 -22.85 0.1 -23.65 0.1 -24.55 0.1 -24.55 -1.15 -24.55 -2.6 -23.65 -2.6" fill="#352c21" fill-rule="evenodd" stroke="none"/>
      <path d="M28.75 5.5 L30.55 3.45 32.5 1.2 Q33.65 -0.15 34.0 -1.8 33.75 -5.55 31.8 -9.0 L30.4 -11.65 Q30.05 -12.7 30.1 -13.7 L30.3 -14.9 30.45 -15.05 30.9 -14.0 30.9 -13.9 30.9 -13.8 30.85 -13.6 30.9 -13.55 31.3 -12.05 31.35 -11.95 Q33.25 -8.2 34.55 -4.25 L34.8 -3.35 35.0 -2.25 Q35.0 -1.3 34.5 -0.4 33.55 1.35 32.15 2.75 L30.65 4.65 Q27.7 9.0 23.5 12.15 17.4 16.6 10.15 18.25 L5.5 19.25 -0.15 19.7 -7.75 18.8 Q-11.6 18.0 -15.25 16.7 L-16.45 16.25 Q-18.5 15.4 -20.35 14.2 L-20.75 13.95 -21.7 13.45 -22.05 13.3 -22.15 13.2 -22.35 13.0 Q-24.5 11.75 -26.45 10.3 L-28.35 8.8 Q-30.25 6.65 -31.5 4.2 -33.2 1.55 -33.3 -1.55 -33.4 -3.3 -34.9 -4.2 L-35.25 -5.55 -35.25 -5.7 Q-35.25 -7.55 -34.4 -9.2 L-34.3 -9.35 -34.0 -9.85 -33.95 -9.95 Q-32.55 -12.05 -31.6 -14.45 L-31.6 -14.65 -31.6 -14.85 -31.0 -16.35 -30.95 -16.85 -30.95 -16.95 -30.95 -17.05 Q-31.25 -17.55 -30.7 -17.65 L-30.7 -17.7 Q-30.3 -17.0 -30.3 -16.25 L-30.55 -15.05 -30.6 -14.95 Q-31.7 -12.35 -33.05 -9.85 L-33.2 -9.7 -33.3 -9.6 -33.35 -9.4 -33.4 -9.3 -33.5 -9.2 -33.65 -9.1 Q-33.65 -8.75 -33.9 -8.5 L-34.0 -8.4 -34.2 -7.55 -34.3 -7.35 -34.35 -6.2 -34.35 -6.0 Q-34.1 -5.8 -34.2 -5.5 L-34.25 -5.4 -33.0 -3.9 Q-32.25 -2.55 -32.4 -0.9 L-31.3 2.65 -30.95 3.1 -30.95 3.25 -30.95 3.4 -30.55 3.8 -29.9 5.05 -27.6 8.1 Q-19.8 14.95 -9.8 17.2 L-4.25 18.05 0.0 18.4 0.25 18.35 0.65 18.45 3.85 18.6 6.05 18.0 Q16.9 16.45 25.2 9.4 L27.35 7.05 28.75 5.5" fill="#000000" fill-rule="evenodd" stroke="none"/>
    </g>
    <g id="sprite7" transform="matrix(1.0, 0.0, 0.0, 1.0, 20.35, 2.85)">
      <use height="5.7" transform="matrix(1.0, 0.0, 0.0, 1.0, -20.35, -2.85)" width="40.65" xlink:href="#shape6"/>
    </g>
    <g id="shape6" transform="matrix(1.0, 0.0, 0.0, 1.0, 20.35, 2.85)">
      <path d="M-17.95 -1.45 L0.05 -1.2 12.65 -0.65 17.4 -0.35 20.3 -1.6 -0.6 -1.95 -20.35 -2.85 -17.95 -1.45" fill="#65543f" fill-rule="evenodd" stroke="none"/>
      <path d="M-4.35 2.8 L7.25 2.7 Q11.05 2.4 13.85 1.25 0.7 -0.65 -15.75 0.1 -11.7 2.3 -4.35 2.8" fill="#8c7357" fill-rule="evenodd" stroke="none"/>
    </g>
    <g id="sprite8" transform="matrix(1.0, 0.0, 0.0, 1.0, 17.2, 11.2)">
      <use height="22.4" transform="matrix(1.0, 0.0, 0.0, 1.0, -17.2, -11.2)" width="34.4" xlink:href="#shape7"/>
    </g>
    <g id="shape7" transform="matrix(1.0, 0.0, 0.0, 1.0, 17.2, 11.2)">
      <path d="M-11.8 8.6 Q-6.85 11.2 0.95 11.2 8.6 11.2 12.45 8.9 16.85 6.25 17.2 0.05 17.45 -4.4 12.3 -7.8 7.15 -11.2 0.05 -11.2 -7.5 -11.2 -12.05 -8.5 -17.0 -5.5 -17.2 0.05 -17.35 5.6 -11.8 8.6" fill="url(#gradient1)" fill-rule="evenodd" stroke="none"/>
      <path d="M2.2 -0.55 Q3.45 0.3 5.2 0.3 6.95 0.3 8.2 -0.55 9.45 -1.45 9.45 -2.7 9.45 -3.95 8.2 -4.8 6.95 -5.7 5.2 -5.7 3.45 -5.7 2.2 -4.8 0.95 -3.95 0.95 -2.7 0.95 -1.45 2.2 -0.55" fill="url(#gradient2)" fill-rule="evenodd" stroke="none"/>
    </g>
    <radialGradient cx="0" cy="0" gradientTransform="matrix(0.022, 0.0, 0.0, 0.022, 0.65, -2.1)" gradientUnits="userSpaceOnUse" id="gradient1" r="819.2" spreadMethod="pad">
      <stop offset="0.0" stop-color="#202020"/>
      <stop offset="0.7843137254901961" stop-color="#0a0a0a"/>
      <stop offset="1.0" stop-color="#0a0a0a"/>
    </radialGradient>
    <radialGradient cx="0" cy="0" gradientTransform="matrix(0.0052, 0.0, 0.0, 0.0052, 5.2, -2.7)" gradientUnits="userSpaceOnUse" id="gradient2" r="819.2" spreadMethod="pad">
      <stop offset="0.0" stop-color="#5d5d5d"/>
      <stop offset="0.37254901960784315" stop-color="#5d5d5d"/>
      <stop offset="1.0" stop-color="#202020"/>
    </radialGradient>
    <g id="shape8" transform="matrix(1.0, 0.0, 0.0, 1.0, 110.0, 95.65)">
      <path d="M57.95 -74.35 L58.1 -73.45 58.2 -73.3 58.2 -73.2 57.1 -70.15 Q63.05 -75.4 69.6 -79.8 L72.55 -81.8 Q74.05 -82.8 75.8 -83.25 78.05 -81.95 76.75 -79.45 75.25 -76.5 72.35 -74.7 66.1 -70.9 60.15 -66.6 58.7 -65.55 57.55 -64.1 L56.45 -63.05 52.95 -59.65 Q50.0 -56.95 47.8 -53.5 L46.3 -51.3 Q43.9 -48.15 41.1 -45.55 L41.0 -45.55 Q40.75 -45.6 40.55 -45.8 41.1 -47.8 42.4 -49.7 L43.75 -51.7 44.35 -54.35 44.3 -55.3 44.3 -55.35 44.4 -55.65 44.45 -55.85 Q45.95 -58.45 47.2 -61.4 49.25 -66.25 52.8 -70.15 L55.65 -73.25 56.85 -74.4 56.95 -74.45 57.1 -74.5 57.85 -74.4 57.95 -74.35 M44.85 -51.05 L50.95 -58.8 Q52.3 -60.55 53.95 -61.95 L56.8 -64.8 56.95 -65.15 58.45 -66.6 Q60.2 -68.45 62.6 -69.7 L64.95 -71.1 72.7 -76.1 Q75.4 -77.75 76.2 -80.65 76.45 -81.45 75.95 -82.1 72.05 -80.75 68.55 -78.05 L66.05 -76.1 57.35 -69.0 Q56.95 -68.65 56.55 -68.6 L56.5 -68.5 56.25 -68.25 Q55.85 -68.1 55.6 -68.45 55.55 -69.15 55.85 -69.85 L55.9 -70.1 57.1 -72.85 Q56.95 -72.95 56.95 -73.15 L56.85 -73.05 Q51.85 -68.2 48.6 -62.05 46.9 -58.9 45.55 -55.75 L45.3 -55.25 Q45.6 -53.2 44.5 -51.35 44.1 -50.75 43.95 -50.05 L44.85 -51.05 M38.15 -66.45 L38.3 -66.9 38.2 -66.9 37.8 -66.9 Q32.05 -63.55 29.35 -57.1 28.35 -54.75 26.75 -52.8 L25.75 -51.75 Q22.75 -49.1 19.3 -47.3 18.05 -46.65 16.65 -46.85 L16.15 -47.3 15.95 -47.5 15.9 -48.1 Q15.35 -49.2 15.55 -50.6 L15.7 -51.35 16.75 -53.4 17.05 -53.9 17.0 -54.55 17.05 -54.8 16.75 -54.65 16.7 -54.55 15.4 -53.75 Q13.2 -50.6 11.85 -46.9 10.2 -42.45 7.25 -38.8 5.45 -36.6 2.8 -36.35 L2.1 -37.0 Q1.6 -38.05 1.5 -39.25 L1.35 -40.0 0.85 -39.9 0.6 -39.05 0.55 -38.8 Q-2.0 -36.1 -3.95 -38.95 -6.15 -42.15 -6.25 -46.05 -6.35 -48.35 -6.8 -50.55 -7.55 -54.25 -6.75 -57.85 -6.0 -61.05 -6.9 -64.4 L-7.05 -66.1 Q-6.9 -69.2 -4.55 -70.65 L-3.9 -71.05 -3.05 -71.05 -0.8 -68.2 -0.45 -68.25 -0.4 -68.3 -0.2 -68.55 0.0 -68.85 Q2.15 -75.6 1.55 -83.0 1.4 -84.95 2.25 -86.55 L2.45 -87.8 2.3 -88.3 1.6 -87.9 Q-0.55 -84.2 -1.1 -79.9 -1.95 -73.7 -7.65 -71.1 L-7.7 -71.1 -7.9 -70.95 Q-9.9 -67.05 -9.1 -62.5 L-9.05 -60.95 -10.35 -48.1 Q-10.7 -44.65 -12.45 -41.55 -13.5 -39.65 -15.05 -38.15 L-15.2 -38.0 Q-16.6 -36.65 -18.95 -37.8 L-20.2 -38.8 Q-20.55 -41.0 -22.35 -42.1 L-22.65 -42.2 -22.7 -42.15 -22.85 -42.1 -23.2 -42.0 -23.45 -41.7 -23.6 -41.6 -23.65 -41.6 Q-24.35 -40.4 -24.35 -39.05 L-24.55 -38.05 Q-24.3 -33.7 -25.5 -29.6 L-26.05 -28.55 -26.4 -28.4 -26.9 -28.45 Q-27.5 -28.3 -28.35 -28.45 -31.35 -28.95 -33.55 -31.0 -35.15 -32.45 -36.3 -34.2 L-39.05 -37.3 -40.9 -40.0 -41.0 -40.2 -41.35 -40.2 -41.4 -40.15 -41.35 -40.1 Q-40.2 -37.35 -40.7 -34.6 -40.8 -34.0 -41.5 -34.0 -44.6 -34.25 -46.65 -36.75 L-49.6 -40.85 -49.65 -40.95 -49.7 -41.0 -58.1 -51.05 -60.35 -53.55 Q-62.8 -56.1 -64.7 -59.25 L-66.5 -61.5 -73.25 -68.15 -74.7 -69.65 Q-75.5 -70.15 -76.35 -70.3 L-76.45 -70.1 -76.45 -69.9 -76.45 -69.8 Q-75.1 -68.3 -74.1 -66.55 -73.65 -65.75 -74.45 -65.15 -77.2 -65.65 -79.1 -68.0 -80.4 -69.65 -82.25 -70.55 -85.75 -72.3 -88.1 -75.4 -90.7 -78.85 -94.2 -81.5 L-96.65 -83.4 -98.8 -84.95 -99.95 -85.6 Q-99.95 -85.15 -99.5 -84.95 L-98.95 -84.6 -90.5 -76.85 -89.25 -75.6 Q-88.15 -74.25 -88.95 -72.95 L-86.1 -70.3 -85.55 -69.8 Q-82.4 -68.25 -81.1 -65.15 -80.8 -64.5 -80.15 -64.0 -76.2 -60.9 -73.2 -56.85 -71.2 -54.25 -68.45 -52.65 -68.3 -52.65 -68.2 -52.75 L-68.2 -52.8 Q-69.2 -54.65 -67.75 -55.7 L-67.2 -55.7 Q-65.5 -55.1 -64.55 -53.65 -62.35 -51.05 -59.65 -48.8 L-59.1 -48.25 -54.3 -42.65 -54.15 -42.45 -53.3 -41.55 -53.15 -41.0 -53.05 -40.65 Q-49.8 -37.1 -47.2 -32.95 -46.85 -32.35 -46.95 -31.65 -50.3 -30.0 -53.15 -32.35 L-59.15 -36.75 -64.55 -40.25 -65.45 -40.9 -64.75 -40.1 -61.1 -35.7 Q-60.4 -34.8 -60.55 -33.65 -61.0 -30.0 -64.95 -31.0 -67.95 -31.8 -70.3 -33.85 L-72.55 -36.0 -72.7 -36.25 -79.0 -42.35 -79.15 -42.4 -86.8 -48.9 -88.35 -50.1 -91.3 -52.2 Q-96.5 -55.8 -102.7 -57.5 L-104.5 -57.9 -108.65 -58.7 -107.25 -57.7 -106.4 -57.2 -106.35 -57.1 -106.25 -56.95 -106.2 -56.85 -96.0 -51.2 -88.7 -47.0 Q-86.35 -45.65 -84.4 -43.7 L-83.55 -42.9 -78.4 -37.95 Q-77.4 -36.8 -76.95 -35.35 -76.7 -34.45 -77.55 -34.15 L-79.2 -33.9 Q-73.1 -30.7 -66.55 -28.3 -63.25 -27.05 -60.35 -25.2 -57.85 -23.6 -55.55 -21.75 -53.5 -20.4 -51.65 -18.75 L-51.6 -18.65 -42.8 -11.85 -42.65 -11.9 -42.65 -11.95 Q-39.85 -9.5 -36.05 -9.3 L-35.35 -9.1 Q-34.2 -8.45 -32.85 -8.55 L-24.6 -8.05 Q-19.25 -6.95 -13.7 -6.8 L-12.7 -6.75 Q-5.3 -6.25 2.15 -6.55 L6.9 -7.1 9.0 -7.5 9.45 -7.3 Q12.1 -7.7 14.9 -7.2 17.65 -6.7 20.4 -7.2 L24.65 -7.95 31.2 -9.15 Q36.2 -10.9 41.0 -13.25 45.8 -15.65 47.45 -20.75 49.05 -25.65 52.25 -29.6 L53.55 -30.85 54.95 -32.55 55.65 -33.35 Q58.95 -39.1 64.05 -43.55 L65.05 -44.4 Q66.85 -46.9 69.2 -45.4 L69.55 -44.85 Q69.75 -43.0 68.9 -41.25 68.6 -40.7 68.6 -40.05 70.4 -40.2 71.8 -42.1 76.05 -47.7 81.3 -52.35 L86.25 -56.35 91.15 -60.55 Q95.4 -64.3 100.4 -67.3 101.45 -67.9 102.2 -68.85 L101.1 -68.9 Q94.8 -67.35 89.7 -63.15 89.1 -62.65 88.4 -62.3 82.15 -58.8 76.9 -54.1 73.35 -50.9 69.1 -49.0 L68.25 -48.95 67.85 -49.2 67.85 -49.45 67.8 -50.15 Q67.85 -51.95 69.2 -53.5 L70.5 -55.2 70.45 -55.35 70.4 -55.4 Q64.4 -51.45 59.95 -45.65 55.4 -39.65 49.5 -34.85 L46.35 -31.95 Q44.15 -29.9 41.45 -29.5 L41.35 -29.4 41.3 -29.3 40.5 -29.05 Q40.05 -29.15 39.7 -29.45 39.6 -30.65 40.1 -31.8 L40.15 -32.05 40.0 -32.0 Q34.65 -29.9 31.55 -24.8 L31.0 -24.2 Q27.65 -21.6 24.45 -24.05 24.0 -24.35 23.9 -24.9 L23.8 -26.7 Q21.0 -24.85 18.45 -27.35 15.5 -30.15 16.65 -34.25 L16.85 -34.9 16.8 -35.1 Q18.05 -39.5 21.85 -42.1 24.45 -42.05 24.15 -39.35 L24.1 -38.3 31.4 -48.8 31.6 -49.0 31.75 -49.45 32.0 -49.85 32.2 -50.8 32.35 -51.35 32.3 -51.55 32.3 -51.65 32.3 -51.7 Q29.9 -53.6 31.55 -56.4 L33.15 -59.05 Q35.5 -62.85 38.15 -66.45 M39.1 -67.55 Q39.3 -64.75 37.0 -62.8 L35.75 -61.45 Q32.95 -57.8 31.85 -53.4 32.35 -52.75 33.1 -52.45 L33.15 -52.4 Q33.3 -48.55 30.55 -45.4 28.8 -43.4 27.4 -41.15 25.95 -38.85 24.0 -37.05 22.75 -38.4 22.9 -40.55 L22.8 -41.05 22.1 -41.15 Q19.2 -38.9 17.85 -35.4 17.05 -32.6 17.7 -29.7 L17.75 -29.5 Q19.15 -26.8 22.05 -27.1 22.3 -27.15 22.6 -27.3 L23.6 -27.85 Q25.25 -27.1 25.2 -25.0 25.15 -23.9 26.45 -23.9 30.65 -23.75 32.45 -27.4 35.45 -31.85 40.6 -33.05 41.55 -31.85 40.8 -30.4 44.65 -31.0 47.55 -34.1 L50.55 -37.0 Q56.3 -41.95 60.9 -47.9 64.9 -53.15 70.35 -56.45 L71.35 -56.2 71.45 -56.15 71.5 -55.65 71.4 -55.4 71.4 -55.35 71.45 -55.15 Q69.8 -52.95 68.75 -50.45 L68.65 -50.2 68.7 -50.05 Q71.7 -50.9 74.05 -53.2 78.9 -57.85 84.75 -61.3 L96.25 -68.2 Q98.45 -69.6 101.05 -70.0 L102.15 -69.9 103.0 -69.8 103.1 -69.7 103.25 -69.05 102.9 -68.05 92.75 -60.6 90.55 -58.65 89.9 -58.25 86.45 -55.3 83.15 -52.7 Q77.9 -48.25 73.8 -42.7 71.9 -40.15 68.95 -39.1 L68.15 -39.0 67.75 -39.4 67.7 -39.45 Q67.55 -41.15 68.3 -42.65 L68.8 -44.15 68.6 -44.8 68.55 -45.1 68.1 -45.25 68.05 -45.25 67.05 -44.8 62.05 -40.3 Q58.35 -36.3 55.4 -31.85 L55.15 -31.4 55.1 -31.1 55.05 -31.05 54.45 -30.5 53.75 -29.75 53.65 -29.7 Q50.35 -26.35 48.85 -21.7 47.6 -17.9 45.0 -15.05 43.85 -13.8 42.35 -12.95 37.65 -10.2 32.45 -8.6 L32.35 -8.5 Q24.45 -6.4 16.3 -6.15 L11.8 -6.45 9.0 -6.6 Q0.7 -4.45 -8.05 -5.3 L-13.65 -5.8 -22.4 -6.7 -27.1 -7.4 -35.15 -8.05 Q-36.0 -8.05 -36.55 -8.7 -39.15 -8.55 -41.15 -9.7 L-41.25 -9.7 -52.9 -18.5 -55.7 -20.7 -62.15 -25.15 Q-63.2 -25.9 -64.4 -26.4 L-73.25 -29.85 Q-76.8 -31.15 -79.8 -33.4 -80.35 -33.8 -80.2 -34.45 -79.25 -35.4 -77.75 -35.2 L-77.75 -35.3 -78.1 -35.8 -78.15 -36.05 Q-81.0 -39.45 -84.35 -42.45 -87.0 -44.85 -90.1 -46.65 L-97.9 -51.2 -103.55 -54.3 Q-106.95 -56.05 -109.9 -58.5 L-109.95 -58.6 -110.0 -58.95 -109.95 -59.35 -109.85 -59.45 -109.25 -59.7 Q-103.65 -59.05 -98.3 -57.0 -91.3 -54.35 -85.8 -49.25 L-81.6 -45.65 -79.25 -43.95 Q-78.8 -43.65 -78.65 -43.2 L-71.95 -36.8 -68.0 -33.3 Q-65.2 -31.05 -62.1 -32.4 L-61.6 -32.65 Q-61.15 -36.35 -64.6 -38.45 -66.7 -39.75 -66.3 -41.85 L-65.05 -41.9 -64.75 -41.6 -64.7 -41.55 -57.45 -36.85 -53.7 -33.9 Q-52.4 -32.8 -50.85 -32.25 L-47.9 -32.15 Q-49.9 -36.1 -53.1 -39.3 L-53.95 -40.2 -53.95 -40.3 -53.95 -40.5 -54.0 -40.6 -54.2 -40.8 -54.2 -40.9 -54.2 -41.05 -54.25 -41.05 -54.75 -41.65 -55.6 -42.5 -55.65 -42.75 -60.05 -48.2 -60.85 -48.9 Q-62.85 -50.25 -64.3 -52.15 -65.55 -53.85 -67.4 -54.9 L-67.65 -54.85 -67.65 -54.8 -67.35 -53.4 Q-67.1 -52.85 -67.2 -52.25 -69.0 -51.1 -70.85 -52.8 -73.4 -55.15 -75.45 -58.05 -77.45 -60.85 -80.2 -62.9 -82.25 -64.4 -83.35 -66.75 L-83.75 -67.25 Q-87.3 -69.6 -89.75 -72.95 L-89.85 -73.4 -89.75 -73.6 -89.5 -73.85 Q-92.6 -78.8 -97.6 -82.2 L-99.35 -83.55 -100.85 -84.95 -100.9 -85.4 -100.85 -86.05 -100.4 -86.5 -99.9 -86.75 Q-96.65 -84.9 -93.8 -82.3 L-90.15 -79.0 -84.5 -73.3 -83.15 -72.3 Q-79.15 -70.15 -76.15 -66.75 -75.6 -66.2 -74.9 -66.05 -76.3 -68.0 -77.3 -70.05 L-77.3 -70.5 Q-77.15 -71.1 -76.55 -71.35 -74.7 -71.2 -73.75 -69.95 -70.85 -67.9 -68.65 -65.05 L-66.05 -62.1 Q-62.85 -58.9 -60.3 -55.15 L-59.2 -53.7 -50.25 -43.0 -46.6 -38.75 -44.65 -36.4 Q-43.3 -34.9 -41.4 -35.0 -41.1 -35.95 -41.5 -36.95 L-41.6 -37.55 -41.75 -37.7 -41.8 -37.8 -42.3 -39.9 -42.35 -40.55 Q-41.65 -41.55 -40.4 -41.05 L-38.25 -38.15 -38.2 -38.05 -38.15 -37.9 -38.15 -37.7 Q-35.1 -33.45 -31.0 -30.4 -29.25 -29.1 -27.15 -29.3 -26.6 -29.75 -26.55 -30.5 L-26.35 -30.85 -26.2 -30.9 Q-25.1 -34.1 -25.35 -37.7 -25.45 -39.75 -24.8 -41.65 L-23.8 -42.8 -23.6 -42.9 -22.9 -43.2 Q-20.1 -42.75 -19.25 -39.85 -18.75 -38.05 -16.8 -38.35 -16.15 -38.45 -15.65 -38.95 L-15.5 -39.1 -13.95 -41.4 -13.8 -41.65 Q-10.05 -47.7 -10.4 -55.15 -10.55 -58.85 -10.1 -62.45 -9.9 -64.05 -10.05 -65.65 -10.4 -68.45 -9.05 -70.9 -8.35 -72.35 -6.75 -72.6 L-6.75 -72.65 -6.7 -72.6 -4.0 -75.3 Q-3.65 -75.7 -3.45 -76.2 -2.5 -78.8 -1.7 -81.45 -1.45 -85.2 0.7 -88.05 1.15 -89.1 2.25 -89.4 L2.5 -89.35 2.7 -89.3 Q3.3 -88.9 3.4 -88.2 L3.45 -87.9 3.1 -86.35 2.85 -85.85 Q2.2 -80.65 2.25 -75.25 2.3 -73.5 2.0 -71.75 1.55 -69.2 -0.3 -67.4 L-0.85 -67.3 Q-1.7 -67.55 -2.3 -68.3 L-3.2 -69.8 -3.35 -70.05 -4.0 -69.9 -4.7 -69.15 Q-5.85 -68.2 -5.95 -66.7 -6.15 -63.25 -5.65 -59.8 -5.55 -59.15 -5.75 -58.45 -6.8 -54.9 -6.1 -51.1 L-4.4 -41.3 Q-3.65 -39.65 -2.35 -38.45 L-2.15 -38.3 -0.7 -38.9 Q-0.25 -40.45 1.0 -41.05 L1.25 -41.15 2.1 -40.7 Q2.65 -39.45 2.8 -38.1 L3.1 -37.3 Q5.9 -38.0 7.5 -40.55 L9.45 -44.15 Q11.6 -49.35 14.5 -54.1 14.75 -54.55 15.3 -54.75 L16.6 -55.85 Q17.35 -56.0 17.85 -55.45 18.0 -52.85 16.7 -50.45 16.35 -49.8 16.65 -49.1 L16.8 -48.15 16.95 -47.9 Q20.65 -48.0 23.45 -50.95 L26.2 -53.6 Q27.15 -54.4 27.55 -55.55 30.05 -62.3 35.6 -66.8 36.35 -67.45 37.25 -67.7 L37.75 -67.95 38.1 -67.95 39.0 -67.65 39.1 -67.55 M6.05 -27.75 Q6.9 -29.25 8.55 -29.7 L9.35 -30.0 10.75 -29.95 10.95 -29.95 Q13.75 -26.5 12.0 -22.05 L9.85 -17.15 8.5 -14.5 Q7.7 -13.0 6.2 -12.55 L4.65 -12.35 4.5 -12.45 4.1 -12.75 Q3.4 -16.65 4.35 -20.45 L4.85 -22.4 5.95 -27.05 6.05 -27.75 M10.65 -28.85 L9.25 -29.0 8.75 -28.7 8.6 -28.6 8.15 -28.6 Q6.15 -26.65 6.05 -23.7 6.0 -22.05 5.35 -20.45 4.3 -17.9 4.75 -15.1 L4.95 -13.35 6.35 -13.3 Q10.85 -19.15 11.65 -26.55 L11.3 -27.55 11.1 -28.3 10.65 -28.85 M29.15 -2.3 Q36.4 -2.6 42.6 -5.8 L42.75 -6.05 43.0 -6.15 Q43.8 -6.15 44.0 -5.4 L44.0 -5.3 43.55 -4.25 43.4 -3.9 Q40.9 -2.3 37.85 -1.85 33.25 -1.25 28.85 -1.75 L28.9 -2.0 29.15 -2.3 M42.7 -4.85 Q39.3 -2.95 35.4 -2.45 38.15 -2.6 40.85 -3.35 L41.35 -3.7 41.55 -3.85 Q42.5 -3.95 42.9 -4.65 L43.0 -4.9 Q43.15 -5.25 42.95 -5.2 L42.75 -4.95 42.7 -4.85 M-7.9 -94.3 Q-10.3 -90.25 -8.85 -85.6 L-8.65 -83.95 -8.1 -85.75 -7.75 -86.3 Q-6.1 -90.0 -7.0 -94.1 L-7.2 -94.55 -7.75 -94.35 -7.9 -94.3 M-5.7 -91.15 Q-5.5 -88.15 -7.15 -85.55 -7.45 -84.2 -8.15 -83.0 L-8.4 -82.75 -9.6 -82.85 -10.2 -90.65 Q-10.35 -92.45 -9.25 -93.8 -8.7 -95.25 -7.25 -95.65 -5.45 -94.5 -5.7 -92.0 L-5.7 -91.15 M-55.95 -9.6 Q-54.45 -11.0 -52.4 -11.65 L-51.9 -11.8 Q-51.65 -10.85 -53.1 -10.1 L-53.75 -9.55 Q-52.6 -7.0 -49.3 -6.6 -48.15 -6.45 -47.85 -5.55 L-48.0 -5.25 -48.1 -5.15 Q-52.6 -4.4 -55.95 -7.25 -57.3 -8.4 -55.95 -9.6 M-54.6 -9.8 L-55.8 -8.55 -55.8 -8.45 Q-54.4 -6.1 -51.35 -5.95 L-49.95 -5.85 -51.3 -6.2 Q-53.8 -7.1 -54.35 -9.5 L-54.6 -9.85 -54.6 -9.8 M-15.9 -32.45 L-15.4 -32.35 -15.15 -32.3 -15.05 -32.2 -14.9 -32.05 -14.85 -32.05 -13.85 -31.75 -13.5 -31.85 Q-12.1 -30.9 -10.5 -30.95 L-9.55 -32.8 -8.9 -33.25 Q-6.35 -32.5 -6.45 -29.6 -6.55 -27.6 -6.0 -25.7 -5.7 -24.45 -5.9 -23.25 -6.3 -22.9 -6.8 -22.85 -6.6 -22.1 -6.85 -21.25 -7.3 -19.65 -8.65 -18.5 L-8.75 -15.95 Q-8.65 -14.35 -9.45 -13.05 L-9.55 -12.95 Q-10.45 -12.3 -11.55 -12.05 L-12.2 -12.0 Q-14.55 -15.35 -16.4 -19.05 L-18.5 -22.5 Q-20.15 -24.75 -19.7 -27.7 -19.55 -28.55 -20.05 -29.25 -21.2 -31.0 -20.65 -33.0 -20.4 -33.85 -19.65 -34.1 -17.55 -33.95 -15.95 -32.5 L-15.9 -32.45 M-16.35 -31.5 Q-17.25 -32.4 -18.45 -33.0 L-19.5 -33.1 -19.65 -33.05 -19.9 -32.85 Q-19.75 -30.6 -18.85 -28.35 -18.45 -27.4 -18.6 -26.3 -18.9 -23.7 -17.0 -21.65 L-15.7 -19.85 -12.65 -14.3 -12.45 -13.9 -12.1 -13.15 -11.9 -12.95 Q-9.25 -13.6 -9.6 -16.7 -9.85 -19.15 -8.05 -20.95 -7.5 -21.5 -7.75 -22.3 L-7.9 -23.65 -7.95 -24.2 -7.85 -24.3 -7.65 -24.45 -7.5 -24.5 -7.1 -24.2 Q-6.95 -23.9 -6.7 -23.95 L-7.9 -31.35 Q-7.95 -31.9 -8.4 -32.25 L-8.85 -32.15 Q-9.65 -29.05 -12.6 -30.35 L-13.55 -30.8 -15.1 -31.1 -15.55 -31.4 -16.15 -31.45 -16.35 -31.5 M-16.75 -2.15 Q-11.8 -0.85 -6.75 -0.4 L-6.7 -0.35 -6.8 -0.05 -7.05 0.2 -14.1 0.5 -14.95 0.1 -17.2 -1.75 -17.05 -2.05 -16.75 -2.15 M-14.2 -0.4 Q-12.55 0.7 -10.5 0.05 L-9.95 -0.05 -14.2 -0.4" fill="#389cff" fill-rule="evenodd" stroke="none"/>
      <path d="M57.1 -72.85 L55.9 -70.1 55.85 -69.85 Q55.55 -69.15 55.6 -68.45 55.85 -68.1 56.25 -68.25 L56.5 -68.5 56.55 -68.6 Q56.95 -68.65 57.35 -69.0 L66.05 -76.1 68.55 -78.05 Q72.05 -80.75 75.95 -82.1 76.45 -81.45 76.2 -80.65 75.4 -77.75 72.7 -76.1 L64.95 -71.1 62.6 -69.7 Q60.2 -68.45 58.45 -66.6 L56.95 -65.15 56.8 -64.8 53.95 -61.95 Q52.3 -60.55 50.95 -58.8 L44.85 -51.05 44.5 -51.35 Q45.6 -53.2 45.3 -55.25 L45.55 -55.75 Q46.9 -58.9 48.6 -62.05 51.85 -68.2 56.85 -73.05 L57.1 -72.85 M38.2 -66.9 L38.15 -66.45 Q35.5 -62.85 33.15 -59.05 L31.55 -56.4 Q29.9 -53.6 32.3 -51.7 L32.3 -51.65 32.3 -51.55 32.35 -51.35 32.2 -50.8 32.0 -49.85 31.75 -49.45 31.6 -49.0 31.4 -48.8 24.1 -38.3 24.15 -39.35 Q24.45 -42.05 21.85 -42.1 18.05 -39.5 16.8 -35.1 L16.85 -34.9 16.65 -34.25 Q15.5 -30.15 18.45 -27.35 21.0 -24.85 23.8 -26.7 L23.9 -24.9 Q24.0 -24.35 24.45 -24.05 27.65 -21.6 31.0 -24.2 L31.55 -24.8 Q34.65 -29.9 40.0 -32.0 L40.1 -31.8 Q39.6 -30.65 39.7 -29.45 40.05 -29.15 40.5 -29.05 L41.3 -29.3 41.35 -29.4 41.45 -29.5 Q44.15 -29.9 46.35 -31.95 L49.5 -34.85 Q55.4 -39.65 59.95 -45.65 64.4 -51.45 70.4 -55.4 L70.45 -55.35 70.5 -55.2 69.2 -53.5 Q67.85 -51.95 67.8 -50.15 L67.85 -49.45 67.85 -49.2 68.25 -48.95 69.1 -49.0 Q73.35 -50.9 76.9 -54.1 82.15 -58.8 88.4 -62.3 89.1 -62.65 89.7 -63.15 94.8 -67.35 101.1 -68.9 L102.2 -68.85 Q101.45 -67.9 100.4 -67.3 95.4 -64.3 91.15 -60.55 L86.25 -56.35 81.3 -52.35 Q76.05 -47.7 71.8 -42.1 70.4 -40.2 68.6 -40.05 68.6 -40.7 68.9 -41.25 69.75 -43.0 69.55 -44.85 L69.2 -45.4 Q66.85 -46.9 65.05 -44.4 L64.05 -43.55 Q58.95 -39.1 55.65 -33.35 L54.95 -32.55 53.55 -30.85 52.25 -29.6 Q49.05 -25.65 47.45 -20.75 45.8 -15.65 41.0 -13.25 36.2 -10.9 31.2 -9.15 L24.65 -7.95 20.4 -7.2 Q17.65 -6.7 14.9 -7.2 12.1 -7.7 9.45 -7.3 L9.0 -7.5 6.9 -7.1 2.15 -6.55 Q-5.3 -6.25 -12.7 -6.75 L-13.7 -6.8 Q-19.25 -6.95 -24.6 -8.05 L-32.85 -8.55 Q-34.2 -8.45 -35.35 -9.1 L-36.05 -9.3 Q-39.85 -9.5 -42.65 -11.95 L-42.8 -11.85 -51.6 -18.65 -51.65 -18.75 Q-53.5 -20.4 -55.55 -21.75 -57.85 -23.6 -60.35 -25.2 -63.25 -27.05 -66.55 -28.3 -73.1 -30.7 -79.2 -33.9 L-77.55 -34.15 Q-76.7 -34.45 -76.95 -35.35 -77.4 -36.8 -78.4 -37.95 L-83.55 -42.9 -84.4 -43.7 Q-86.35 -45.65 -88.7 -47.0 L-96.0 -51.2 -106.2 -56.85 -106.25 -56.95 -106.35 -57.1 -106.4 -57.2 -107.25 -57.7 -108.65 -58.7 -104.5 -57.9 -102.7 -57.5 Q-96.5 -55.8 -91.3 -52.2 L-88.35 -50.1 -86.8 -48.9 -79.15 -42.4 -79.0 -42.35 -72.7 -36.25 -72.55 -36.0 -70.3 -33.85 Q-67.95 -31.8 -64.95 -31.0 -61.0 -30.0 -60.55 -33.65 -60.4 -34.8 -61.1 -35.7 L-64.75 -40.1 -64.55 -40.25 -59.15 -36.75 -53.15 -32.35 Q-50.3 -30.0 -46.95 -31.65 -46.85 -32.35 -47.2 -32.95 -49.8 -37.1 -53.05 -40.65 L-53.15 -41.0 -53.3 -41.55 -54.15 -42.45 -54.3 -42.65 -59.1 -48.25 -59.65 -48.8 Q-62.35 -51.05 -64.55 -53.65 -65.5 -55.1 -67.2 -55.7 L-67.75 -55.7 Q-69.2 -54.65 -68.2 -52.8 L-68.2 -52.75 Q-68.3 -52.65 -68.45 -52.65 -71.2 -54.25 -73.2 -56.85 -76.2 -60.9 -80.15 -64.0 -80.8 -64.5 -81.1 -65.15 -82.4 -68.25 -85.55 -69.8 L-86.1 -70.3 -88.95 -72.95 Q-88.15 -74.25 -89.25 -75.6 L-90.5 -76.85 -98.95 -84.6 -98.8 -84.95 -96.65 -83.4 -94.2 -81.5 Q-90.7 -78.85 -88.1 -75.4 -85.75 -72.3 -82.25 -70.55 -80.4 -69.65 -79.1 -68.0 -77.2 -65.65 -74.45 -65.15 -73.65 -65.75 -74.1 -66.55 -75.1 -68.3 -76.45 -69.8 L-76.45 -69.9 -76.45 -70.1 -76.35 -70.3 Q-75.5 -70.15 -74.7 -69.65 L-73.25 -68.15 -66.5 -61.5 -64.7 -59.25 Q-62.8 -56.1 -60.35 -53.55 L-58.1 -51.05 -49.7 -41.0 -49.65 -40.95 -49.6 -40.85 -46.65 -36.75 Q-44.6 -34.25 -41.5 -34.0 -40.8 -34.0 -40.7 -34.6 -40.2 -37.35 -41.35 -40.1 L-41.0 -40.2 -40.9 -40.0 -39.05 -37.3 -36.3 -34.2 Q-35.15 -32.45 -33.55 -31.0 -31.35 -28.95 -28.35 -28.45 -27.5 -28.3 -26.9 -28.45 L-26.4 -28.4 -26.05 -28.55 -25.5 -29.6 Q-24.3 -33.7 -24.55 -38.05 L-24.35 -39.05 Q-24.35 -40.4 -23.65 -41.6 L-23.6 -41.6 -23.45 -41.7 -23.2 -42.0 -22.85 -42.1 -22.7 -42.15 -22.65 -42.2 -22.35 -42.1 Q-20.55 -41.0 -20.2 -38.8 L-18.95 -37.8 Q-16.6 -36.65 -15.2 -38.0 L-15.05 -38.15 Q-13.5 -39.65 -12.45 -41.55 -10.7 -44.65 -10.35 -48.1 L-9.05 -60.95 -9.1 -62.5 Q-9.9 -67.05 -7.9 -70.95 L-7.7 -71.1 -7.65 -71.1 Q-1.95 -73.7 -1.1 -79.9 -0.55 -84.2 1.6 -87.9 L2.3 -88.3 2.45 -87.8 2.25 -86.55 Q1.4 -84.95 1.55 -83.0 2.15 -75.6 0.0 -68.85 L-0.2 -68.55 -0.4 -68.3 -0.45 -68.25 -0.8 -68.2 -3.05 -71.05 -3.9 -71.05 -4.55 -70.65 Q-6.9 -69.2 -7.05 -66.1 L-6.9 -64.4 Q-6.0 -61.05 -6.75 -57.85 -7.55 -54.25 -6.8 -50.55 -6.35 -48.35 -6.25 -46.05 -6.15 -42.15 -3.95 -38.95 -2.0 -36.1 0.55 -38.8 L0.6 -39.05 0.85 -39.9 1.35 -40.0 1.5 -39.25 Q1.6 -38.05 2.1 -37.0 L2.8 -36.35 Q5.45 -36.6 7.25 -38.8 10.2 -42.45 11.85 -46.9 13.2 -50.6 15.4 -53.75 L16.7 -54.55 16.75 -54.65 17.05 -54.8 17.0 -54.55 17.05 -53.9 16.75 -53.4 15.7 -51.35 15.55 -50.6 Q15.35 -49.2 15.9 -48.1 L15.95 -47.5 16.15 -47.3 16.65 -46.85 Q18.05 -46.65 19.3 -47.3 22.75 -49.1 25.75 -51.75 L26.75 -52.8 Q28.35 -54.75 29.35 -57.1 32.05 -63.55 37.8 -66.9 L38.2 -66.9 M6.05 -27.75 L5.95 -27.05 4.85 -22.4 4.35 -20.45 Q3.4 -16.65 4.1 -12.75 L4.5 -12.45 4.65 -12.35 6.2 -12.55 Q7.7 -13.0 8.5 -14.5 L9.85 -17.15 12.0 -22.05 Q13.75 -26.5 10.95 -29.95 L10.75 -29.95 9.35 -30.0 8.55 -29.7 Q6.9 -29.25 6.05 -27.75 M42.9 -4.65 Q42.5 -3.95 41.55 -3.85 L41.35 -3.7 40.85 -3.35 Q38.15 -2.6 35.4 -2.45 39.3 -2.95 42.7 -4.85 L42.9 -4.65 M-7.9 -94.3 L-7.75 -94.35 -7.2 -94.55 -7.0 -94.1 Q-6.1 -90.0 -7.75 -86.3 L-8.1 -85.75 -8.65 -83.95 -8.85 -85.6 Q-10.3 -90.25 -7.9 -94.3 M-51.35 -5.95 Q-54.4 -6.1 -55.8 -8.45 L-55.8 -8.55 -54.6 -9.8 -54.35 -9.5 Q-53.8 -7.1 -51.3 -6.2 L-51.35 -5.95 M-15.9 -32.45 L-15.95 -32.5 Q-17.55 -33.95 -19.65 -34.1 -20.4 -33.85 -20.65 -33.0 -21.2 -31.0 -20.05 -29.25 -19.55 -28.55 -19.7 -27.7 -20.15 -24.75 -18.5 -22.5 L-16.4 -19.05 Q-14.55 -15.35 -12.2 -12.0 L-11.55 -12.05 Q-10.45 -12.3 -9.55 -12.95 L-9.45 -13.05 Q-8.65 -14.35 -8.75 -15.95 L-8.65 -18.5 Q-7.3 -19.65 -6.85 -21.25 -6.6 -22.1 -6.8 -22.85 -6.3 -22.9 -5.9 -23.25 -5.7 -24.45 -6.0 -25.7 -6.55 -27.6 -6.45 -29.6 -6.35 -32.5 -8.9 -33.25 L-9.55 -32.8 -10.5 -30.95 Q-12.1 -30.9 -13.5 -31.85 L-13.85 -31.75 -14.85 -32.05 -14.9 -32.05 -15.05 -32.2 -15.15 -32.3 -15.4 -32.35 -15.9 -32.45" fill="#dfefff" fill-rule="evenodd" stroke="none"/>
    </g>
  </defs>
</svg>
