<?xml version="1.0" encoding="UTF-8" standalone="no"?>
<svg xmlns:xlink="http://www.w3.org/1999/xlink" height="181.25px" width="455.15px" xmlns="http://www.w3.org/2000/svg">
  <g transform="matrix(1.0, 0.0, 0.0, 1.0, 265.05, 116.9)">
    <clipPath id="clipPath0" transform="matrix(1.0, 0.0, 0.0, 1.0, 265.05, 116.9)">
      <use height="97.95" transform="matrix(1.0, 0.0, 0.0, 1.0, -133.45, -105.6)" width="266.5" xlink:href="#shape0"/>
    </clipPath>
    <g clip-path="url(#clipPath0)">
      <use height="31.25" transform="matrix(1.0, 0.0, 0.0, 1.0, -31.0, -37.9)" width="62.0" xlink:href="#shape1"/>
      <use height="78.0" transform="matrix(0.4973, 0.0042, -0.0042, 0.4972, -16.7816, -70.9393)" width="91.05" xlink:href="#sprite0"/>
      <use height="37.7" transform="matrix(0.4973, 0.0042, -0.0042, 0.4972, -6.2029, -64.6033)" width="49.5" xlink:href="#sprite4"/>
      <use height="37.45" transform="matrix(0.4959, -0.0351, 0.0352, 0.4959, -11.1537, -48.6884)" width="70.25" xlink:href="#button0"/>
      <use height="5.7" transform="matrix(0.4959, -0.0351, 0.0352, 0.4959, -3.1923, -34.1981)" width="40.65" xlink:href="#sprite7"/>
      <use height="22.4" transform="matrix(0.4959, -0.0351, 0.0352, 0.4959, -2.2737, -50.0494)" width="34.4" xlink:href="#sprite8"/>
    </g>
    <use height="117.55" transform="matrix(1.0, 0.0, 0.0, 1.0, -188.5, -116.9)" width="356.3" xlink:href="#shape8"/>
  </g>
  <defs>
    <g id="shape0" transform="matrix(1.0, 0.0, 0.0, 1.0, 133.45, 105.6)">
      <path d="M13.0 -7.65 Q-38.8 -7.65 -80.8 -8.25 -122.85 -8.9 -133.05 -12.2 L-133.05 -12.35 Q-133.05 -13.25 -132.55 -14.1 L-133.45 -14.1 -133.45 -105.6 133.05 -105.6 133.05 -14.1 130.85 -14.1 131.1 -13.6 Q127.35 -12.1 112.55 -10.7 L81.25 -8.45 Q64.75 -7.65 13.0 -7.65" fill="#0066ff" fill-rule="evenodd" stroke="none"/>
    </g>
    <g id="shape1" transform="matrix(1.0, 0.0, 0.0, 1.0, 31.0, 37.9)">
      <path d="M3.3 -34.8 Q3.35 -35.85 4.3 -36.55 4.95 -37.05 5.75 -36.75 8.7 -35.7 8.95 -32.65 L9.0 -32.45 8.65 -32.0 7.85 -31.15 Q6.95 -30.3 5.75 -29.95 L4.9 -29.85 4.4 -29.85 3.35 -34.8 3.3 -34.8 M24.05 -6.65 L21.85 -6.65 21.35 -7.65 25.35 -8.85 Q25.5 -8.2 25.8 -7.5 L24.05 -6.65 M2.65 -6.65 L-0.7 -6.65 -0.5 -6.95 -0.3 -7.05 0.45 -7.3 0.8 -7.3 1.15 -7.4 1.3 -7.5 Q1.9 -7.45 2.25 -7.0 L2.55 -6.7 2.65 -6.65 M-10.6 -10.4 L-9.95 -12.25 -9.2 -12.1 -10.6 -10.4" fill="#0db5c8" fill-rule="evenodd" stroke="none"/>
      <path d="M9.0 -32.45 L8.95 -32.65 Q8.7 -35.7 5.75 -36.75 4.95 -37.05 4.3 -36.55 3.35 -35.85 3.3 -34.8 L3.3 -34.75 3.35 -34.8 4.4 -29.85 4.5 -26.2 Q6.8 -24.7 9.35 -26.4 L9.0 -32.45 M-11.9 -6.65 L-13.05 -6.65 -13.0 -6.75 -13.0 -6.8 -13.1 -7.0 Q-12.7 -10.15 -11.25 -12.65 -13.25 -13.45 -14.85 -15.15 L-14.95 -15.55 -14.75 -16.0 Q-9.15 -18.0 -5.7 -23.05 -2.25 -28.1 3.5 -29.9 L3.2 -32.65 Q1.95 -34.95 3.45 -36.75 4.4 -37.95 5.9 -37.9 8.75 -36.6 9.8 -34.15 10.5 -32.45 10.4 -30.2 L10.35 -29.5 10.7 -29.2 10.75 -29.1 11.3 -28.75 Q17.95 -25.2 22.75 -19.3 24.65 -16.95 27.45 -15.75 L31.0 -14.1 Q30.35 -11.75 27.9 -10.2 L26.3 -9.3 26.85 -8.2 26.9 -8.15 27.1 -7.5 27.15 -7.4 27.45 -6.65 26.15 -6.65 25.85 -7.4 25.8 -7.5 Q25.5 -8.2 25.35 -8.85 L21.35 -7.65 21.85 -6.65 21.05 -6.65 20.65 -7.55 20.1 -7.5 20.05 -6.65 19.15 -6.65 19.15 -8.15 Q19.0 -14.25 16.9 -19.85 15.8 -22.7 14.0 -25.0 12.4 -27.0 10.3 -28.6 L10.25 -28.6 10.1 -27.4 10.25 -26.9 10.4 -26.95 10.7 -26.95 Q10.55 -24.55 7.45 -24.4 3.7 -24.25 2.4 -27.35 L2.4 -27.65 Q2.55 -27.9 2.85 -27.85 L2.85 -27.9 Q3.35 -27.8 3.3 -27.25 L3.3 -27.15 3.75 -26.75 3.55 -28.95 0.95 -27.95 -0.8 -26.55 -1.5 -25.6 -1.6 -25.55 Q-1.55 -25.25 -1.8 -25.05 L-1.9 -24.95 Q-3.35 -20.25 -5.65 -15.9 L-6.85 -13.7 -7.95 -11.9 -8.1 -11.7 -8.3 -11.6 -8.3 -11.5 -9.8 -9.3 -11.55 -7.15 -11.9 -6.65 M5.0 -6.65 L4.1 -6.65 3.9 -7.2 2.9 -8.75 2.25 -9.65 2.1 -9.8 Q0.35 -12.8 -2.4 -10.9 L-3.05 -10.3 Q-4.75 -8.7 -5.65 -6.65 L-11.75 -6.65 -11.05 -6.85 -9.2 -7.2 -6.65 -7.15 -6.55 -7.15 Q-5.75 -8.8 -4.55 -10.25 L-4.5 -10.35 -3.35 -11.5 Q-2.65 -12.2 -1.65 -12.5 L-1.15 -12.65 -0.65 -12.8 0.95 -12.4 1.4 -12.15 1.6 -12.05 2.4 -11.1 3.05 -10.25 3.6 -9.35 5.0 -6.65 M23.6 -9.35 L25.2 -10.0 Q25.3 -10.25 25.6 -10.2 L25.6 -10.25 25.65 -10.2 26.4 -10.5 Q28.5 -11.5 29.75 -13.4 22.35 -16.85 17.3 -23.3 L17.2 -23.4 17.05 -23.7 16.95 -23.9 14.5 -25.85 16.3 -23.4 17.55 -20.8 17.85 -20.0 Q19.95 -14.3 20.05 -8.1 21.8 -8.65 23.6 -9.35 M-2.7 -24.75 L-2.65 -24.9 -2.75 -24.8 Q-6.15 -21.75 -9.15 -18.25 -10.85 -16.2 -13.4 -15.3 L-12.0 -14.2 -11.75 -14.05 Q-10.75 -13.4 -9.6 -13.0 L-8.7 -12.65 -8.5 -12.85 -8.45 -13.05 -8.45 -13.15 -8.25 -13.4 -7.1 -15.05 -6.7 -15.85 -6.65 -15.9 -5.5 -18.3 Q-4.15 -21.2 -3.1 -24.15 L-3.05 -24.35 -2.7 -24.75 M-30.05 -6.65 L-31.0 -6.65 -29.45 -9.55 Q-28.45 -11.2 -27.0 -12.3 L-26.95 -12.3 -25.45 -13.4 -24.95 -13.6 Q-20.95 -11.8 -18.95 -8.05 L-18.75 -9.25 -18.6 -10.1 -18.3 -10.35 -18.15 -10.4 Q-16.3 -8.15 -13.9 -6.65 L-15.9 -6.65 -17.25 -8.1 -17.65 -8.6 -18.0 -6.65 -19.35 -6.65 -19.55 -7.05 -20.15 -7.9 Q-21.2 -10.1 -23.15 -11.6 L-24.05 -12.3 Q-24.4 -12.35 -24.65 -12.55 L-24.8 -12.6 Q-25.3 -12.5 -25.65 -12.2 L-26.45 -11.55 -26.6 -11.4 -26.8 -11.2 Q-28.85 -9.3 -30.05 -6.7 L-30.05 -6.65 M-9.95 -12.25 L-10.65 -12.45 -11.7 -8.85 -10.6 -10.4 -9.2 -12.1 -9.95 -12.25" fill="#000000" fill-rule="evenodd" stroke="none"/>
      <path d="M4.4 -29.85 L4.9 -29.85 5.75 -29.95 Q6.95 -30.3 7.85 -31.15 L8.65 -32.0 9.0 -32.45 9.35 -26.4 Q6.8 -24.7 4.5 -26.2 L4.4 -29.85 M26.15 -6.65 L24.05 -6.65 25.8 -7.5 25.85 -7.4 26.15 -6.65 M4.1 -6.65 L2.65 -6.65 2.55 -6.7 2.25 -7.0 Q1.9 -7.45 1.3 -7.5 L1.15 -7.4 0.8 -7.3 0.45 -7.3 -0.3 -7.05 -0.5 -6.95 -0.7 -6.65 -5.65 -6.65 Q-4.75 -8.7 -3.05 -10.3 L-2.4 -10.9 Q0.35 -12.8 2.1 -9.8 L2.25 -9.65 2.9 -8.75 3.9 -7.2 4.1 -6.65 M-19.35 -6.65 L-30.05 -6.65 -30.05 -6.7 Q-28.85 -9.3 -26.8 -11.2 L-26.6 -11.4 -26.45 -11.55 -25.65 -12.2 Q-25.3 -12.5 -24.8 -12.6 L-24.65 -12.55 Q-24.4 -12.35 -24.05 -12.3 L-23.15 -11.6 Q-21.2 -10.1 -20.15 -7.9 L-19.55 -7.05 -19.35 -6.65 M-9.95 -12.25 L-10.6 -10.4 -11.7 -8.85 -10.65 -12.45 -9.95 -12.25" fill="#0ecfe4" fill-rule="evenodd" stroke="none"/>
      <path d="M16.05 -6.65 L14.0 -6.65 12.55 -7.75 Q10.5 -9.2 8.2 -10.3 6.05 -11.35 3.7 -11.95 L2.85 -12.15 2.05 -12.3 0.95 -12.4 -0.65 -12.8 -1.15 -12.65 -1.65 -12.5 -2.55 -12.45 -4.85 -12.3 -7.3 -11.85 -8.3 -11.5 -8.3 -11.6 -8.1 -11.7 -7.95 -11.9 -6.85 -13.7 -4.85 -14.4 -3.3 -14.7 -2.95 -14.8 -1.15 -14.85 -0.65 -14.8 4.25 -14.05 6.55 -13.4 7.05 -13.2 9.35 -12.4 Q11.7 -11.6 13.7 -10.05 L14.5 -9.55 16.25 -8.15 16.15 -7.5 16.05 -6.65 M9.5 -6.65 L5.0 -6.65 3.6 -9.35 4.6 -9.0 6.9 -8.0 7.55 -7.7 8.1 -7.4 9.5 -6.65 M-11.75 -6.65 L-11.9 -6.65 -11.55 -7.15 -9.8 -9.3 -9.2 -9.45 -8.45 -9.65 -4.5 -10.35 -4.55 -10.25 Q-5.75 -8.8 -6.55 -7.15 L-6.65 -7.15 -9.2 -7.2 -11.05 -6.85 -11.75 -6.65 M-5.65 -15.9 Q-3.35 -20.25 -1.9 -24.95 L-1.8 -25.05 Q-1.55 -25.25 -1.6 -25.55 L-1.5 -25.6 -0.8 -26.55 0.95 -27.95 3.55 -28.95 3.75 -26.75 3.3 -27.15 3.3 -27.25 Q3.35 -27.8 2.85 -27.9 L2.85 -27.85 Q2.55 -27.9 2.4 -27.65 L2.4 -27.35 Q3.7 -24.25 7.45 -24.4 10.55 -24.55 10.7 -26.95 L10.4 -26.95 10.25 -26.9 10.1 -27.4 10.25 -28.6 10.3 -28.6 Q12.4 -27.0 14.0 -25.0 L15.35 -22.0 15.7 -20.8 16.25 -18.1 16.35 -17.1 16.45 -13.75 16.45 -12.45 16.45 -10.7 16.25 -10.9 15.9 -11.2 14.75 -12.1 13.5 -12.9 13.05 -13.2 10.65 -14.4 9.6 -14.85 9.15 -15.15 Q8.6 -15.55 7.95 -15.65 L7.3 -15.85 4.6 -16.3 3.2 -16.55 -1.65 -16.85 -3.85 -16.45 -4.1 -16.35 -4.45 -16.25 -5.0 -16.1 -5.65 -15.9 M17.85 -20.0 L17.55 -20.8 16.3 -23.4 14.5 -25.85 16.95 -23.9 17.05 -23.7 17.2 -23.4 17.3 -23.3 Q22.35 -16.85 29.75 -13.4 28.5 -11.5 26.4 -10.5 L25.65 -10.2 25.6 -10.25 25.6 -10.2 Q25.3 -10.25 25.2 -10.0 L23.6 -9.35 23.45 -9.55 23.05 -10.3 22.1 -11.85 20.8 -14.05 18.85 -18.35 18.4 -19.25 18.0 -20.1 17.85 -20.0 M-2.75 -24.8 L-2.7 -24.75 -3.05 -24.35 -3.1 -24.15 Q-4.15 -21.2 -5.5 -18.3 L-6.1 -17.7 -6.85 -17.0 Q-8.4 -15.7 -10.1 -14.7 -10.9 -14.25 -11.75 -14.05 L-12.0 -14.2 -13.4 -15.3 Q-10.85 -16.2 -9.15 -18.25 -6.15 -21.75 -2.75 -24.8" fill="#f02d0b" fill-rule="evenodd" stroke="none"/>
      <path d="M18.1 -6.65 L16.05 -6.65 16.15 -7.5 16.25 -8.15 16.8 -7.75 17.15 -7.5 18.1 -6.65 M14.0 -25.0 Q15.8 -22.7 16.9 -19.85 19.0 -14.25 19.15 -8.15 L18.5 -8.95 18.3 -9.1 17.9 -9.5 17.6 -9.7 16.45 -10.7 16.45 -12.45 16.45 -13.75 16.35 -17.1 16.25 -18.1 15.7 -20.8 15.35 -22.0 14.0 -25.0 M17.85 -20.0 L18.0 -20.1 18.4 -19.25 18.85 -18.35 20.8 -14.05 22.1 -11.85 23.05 -10.3 23.45 -9.55 23.6 -9.35 Q21.8 -8.65 20.05 -8.1 19.95 -14.3 17.85 -20.0 M-5.5 -18.3 L-6.65 -15.9 -6.7 -15.85 -7.1 -15.05 -8.25 -13.4 -8.45 -13.15 -8.45 -13.05 -8.5 -12.85 -8.7 -12.65 -9.6 -13.0 Q-10.75 -13.4 -11.75 -14.05 -10.9 -14.25 -10.1 -14.7 -8.4 -15.7 -6.85 -17.0 L-6.1 -17.7 -5.5 -18.3" fill="#d6280a" fill-rule="evenodd" stroke="none"/>
      <path d="M19.15 -6.65 L18.1 -6.65 17.15 -7.5 16.8 -7.75 16.25 -8.15 14.5 -9.55 13.7 -10.05 Q11.7 -11.6 9.35 -12.4 L7.05 -13.2 6.55 -13.4 4.25 -14.05 -0.65 -14.8 -1.15 -14.85 -2.95 -14.8 -3.3 -14.7 -4.85 -14.4 -6.85 -13.7 -5.65 -15.9 -5.0 -16.1 -4.45 -16.25 -4.1 -16.35 -3.85 -16.45 -1.65 -16.85 3.2 -16.55 4.6 -16.3 7.3 -15.85 7.95 -15.65 Q8.6 -15.55 9.15 -15.15 L9.6 -14.85 10.65 -14.4 13.05 -13.2 13.5 -12.9 14.75 -12.1 15.9 -11.2 16.25 -10.9 16.45 -10.7 17.6 -9.7 17.9 -9.5 18.3 -9.1 18.5 -8.95 19.15 -8.15 19.15 -6.65 M14.0 -6.65 L9.5 -6.65 8.1 -7.4 7.55 -7.7 6.9 -8.0 4.6 -9.0 3.6 -9.35 3.05 -10.25 2.4 -11.1 1.6 -12.05 1.4 -12.15 0.95 -12.4 2.05 -12.3 2.85 -12.15 3.7 -11.95 Q6.05 -11.35 8.2 -10.3 10.5 -9.2 12.55 -7.75 L14.0 -6.65 M-9.8 -9.3 L-8.3 -11.5 -7.3 -11.85 -4.85 -12.3 -2.55 -12.45 -1.65 -12.5 Q-2.65 -12.2 -3.35 -11.5 L-4.5 -10.35 -8.45 -9.65 -9.2 -9.45 -9.8 -9.3" fill="#c62509" fill-rule="evenodd" stroke="none"/>
      <path d="M-15.9 -6.65 L-18.0 -6.65 -17.65 -8.6 -17.25 -8.1 -15.9 -6.65" fill="#666666" fill-rule="evenodd" stroke="none"/>
    </g>
    <g id="sprite0" transform="matrix(1.0, 0.0, 0.0, 1.0, 46.65, 39.3)">
      <use height="68.55" transform="matrix(0.9994, 0.0085, -0.0085, 0.9994, 23.2973, -32.1191)" width="21.1" xlink:href="#sprite1"/>
      <use height="69.3" transform="matrix(-0.999, 0.0348, 0.0348, 0.999, -23.1916, -31.339)" width="23.5" xlink:href="#sprite2"/>
      <use height="57.65" transform="matrix(0.9966, -0.0792, 0.0792, 0.9966, -35.9936, -33.9156)" width="68.05" xlink:href="#sprite3"/>
    </g>
    <g id="sprite1" transform="matrix(1.0, 0.0, 0.0, 1.0, 10.55, 34.3)">
      <use height="68.55" transform="matrix(1.0, 0.0, 0.0, 1.0, -10.55, -34.3)" width="21.1" xlink:href="#shape2"/>
    </g>
    <g id="shape2" transform="matrix(1.0, 0.0, 0.0, 1.0, 10.55, 34.3)">
      <path d="M6.6 -9.2 Q5.55 -23.75 0.1 -29.7 L-8.65 -27.2 -10.55 -29.45 Q-7.8 -31.05 -2.0 -32.9 4.45 -34.95 5.35 -33.95 10.2 -28.6 10.5 -4.3 10.65 5.1 10.0 14.75 L8.75 32.2 Q7.85 35.65 6.4 33.35 7.25 -0.15 6.6 -9.2" fill="#000000" fill-rule="evenodd" stroke="none"/>
    </g>
    <g id="sprite2" transform="matrix(1.0, 0.0, 0.0, 1.0, 10.7, 32.5)">
      <use height="68.55" transform="matrix(1.0, 0.0, 0.0, 1.0, -10.55, -31.8)" width="21.1" xlink:href="#sprite1"/>
    </g>
    <g id="sprite3" transform="matrix(1.0, 0.0, 0.0, 1.0, 33.9, 29.15)">
      <use height="57.65" transform="matrix(1.0, 0.0, 0.0, 1.0, -33.9, -29.15)" width="68.05" xlink:href="#shape3"/>
    </g>
    <g id="shape3" transform="matrix(1.0, 0.0, 0.0, 1.0, 33.9, 29.15)">
      <path d="M-22.05 21.5 L-21.1 22.05 Q-20.7 22.05 -20.7 21.7 L-20.75 21.55 Q-25.3 18.15 -28.85 13.7 L-28.85 13.6 -28.9 13.3 Q-32.55 7.8 -32.75 1.15 L-32.85 0.9 -32.8 0.7 -32.9 -1.05 -32.85 -1.15 -32.8 -1.3 -32.8 -1.8 -32.75 -2.2 -32.55 -5.05 -32.45 -5.2 -32.35 -5.5 -32.35 -5.6 -32.4 -5.8 -32.05 -6.8 -30.9 -10.7 -30.55 -11.1 -29.7 -12.95 -29.5 -13.2 -28.9 -14.2 -28.75 -14.25 -28.5 -14.5 -28.3 -14.7 -27.45 -16.05 -27.05 -16.25 -27.0 -16.35 -26.5 -17.1 -26.35 -17.15 -22.85 -20.4 Q-21.6 -21.05 -20.4 -22.05 -19.1 -23.15 -17.6 -23.85 L-17.5 -23.95 -17.4 -24.1 -17.3 -24.2 -15.1 -25.1 -13.15 -25.7 -7.3 -27.35 Q4.05 -29.7 14.8 -25.0 L19.15 -22.9 Q24.45 -20.1 27.7 -15.3 L27.9 -15.2 28.15 -15.2 Q28.55 -14.35 29.1 -13.55 33.35 -7.2 32.9 0.15 L33.1 0.35 Q32.75 4.2 31.4 7.9 L31.3 8.05 Q29.55 13.2 25.8 17.05 L25.75 17.1 Q24.75 18.65 23.15 19.65 L23.05 19.8 Q22.7 20.05 22.8 20.35 L23.7 20.25 Q13.85 28.5 0.0 28.5 -12.75 28.5 -22.05 21.5 M30.8 11.75 L32.0 8.75 32.2 8.65 30.8 11.75" fill="url(#gradient0)" fill-rule="evenodd" stroke="none"/>
      <path d="M23.7 20.25 L22.8 20.35 Q22.7 20.05 23.05 19.8 L23.15 19.65 Q24.75 18.65 25.75 17.1 L25.8 17.05 Q29.55 13.2 31.3 8.05 L31.4 7.9 Q32.75 4.2 33.1 0.35 L32.9 0.15 Q33.35 -7.2 29.1 -13.55 28.55 -14.35 28.15 -15.2 L27.9 -15.2 27.7 -15.3 Q24.45 -20.1 19.15 -22.9 L14.8 -25.0 Q4.05 -29.7 -7.3 -27.35 L-13.15 -25.7 -15.1 -25.1 -17.3 -24.2 -17.4 -24.1 -17.5 -23.95 -17.6 -23.85 Q-19.1 -23.15 -20.4 -22.05 -21.6 -21.05 -22.85 -20.4 L-26.35 -17.15 -26.5 -17.1 -27.0 -16.35 -27.05 -16.25 -27.45 -16.05 -28.3 -14.7 -28.5 -14.5 -28.75 -14.25 -28.9 -14.2 -29.5 -13.2 -29.7 -12.95 -30.55 -11.1 -30.9 -10.7 -32.05 -6.8 -32.4 -5.8 -32.35 -5.6 -32.35 -5.5 -32.45 -5.2 -32.55 -5.05 -32.75 -2.2 -32.8 -1.8 -32.8 -1.3 -32.85 -1.15 -32.9 -1.05 -32.8 0.7 -32.85 0.9 -32.75 1.15 Q-32.55 7.8 -28.9 13.3 L-28.85 13.6 -28.85 13.7 Q-25.3 18.15 -20.75 21.55 L-20.7 21.7 Q-20.7 22.05 -21.1 22.05 L-22.05 21.5 Q-23.65 20.5 -25.05 19.15 -26.75 18.1 -27.85 16.25 -33.85 9.25 -33.9 0.0 L-33.75 -1.65 -33.65 -2.6 -33.65 -2.9 -33.6 -3.1 -33.55 -3.2 -33.3 -5.35 -33.3 -5.8 -31.45 -11.4 -30.8 -12.5 -30.8 -12.7 -30.75 -12.8 -30.65 -12.95 -30.55 -13.05 Q-27.45 -18.6 -22.05 -21.85 L-17.75 -24.65 Q-14.15 -26.55 -10.1 -27.7 0.0 -30.5 10.15 -27.95 17.9 -25.4 24.3 -20.4 L26.8 -18.35 26.9 -18.3 27.1 -18.2 27.25 -17.9 Q27.25 -18.1 27.5 -18.0 L27.8 -17.45 27.85 -17.35 Q31.6 -12.55 33.3 -6.75 L33.3 -6.55 Q33.9 -4.5 33.95 -2.4 L34.0 -2.3 Q33.95 -1.95 34.05 -1.65 L34.15 -1.45 34.05 -0.45 34.0 -0.2 34.1 0.05 34.1 0.15 33.8 2.9 33.7 3.25 32.45 8.2 32.2 8.65 32.0 8.75 30.8 11.75 Q28.35 16.75 23.75 20.2 L23.7 20.25" fill="#000000" fill-rule="evenodd" stroke="none"/>
    </g>
    <radialGradient cx="0" cy="0" gradientTransform="matrix(0.0435, 0.0, 0.0, 0.0435, 1.35, -6.55)" gradientUnits="userSpaceOnUse" id="gradient0" r="819.2" spreadMethod="pad">
      <stop offset="0.0" stop-color="#54b4cc"/>
      <stop offset="0.7176470588235294" stop-color="#54b4cc"/>
      <stop offset="1.0" stop-color="#3e8699"/>
    </radialGradient>
    <g id="sprite4" transform="matrix(1.0, 0.0, 0.0, 1.0, 24.8, 18.8)">
      <use height="34.35" transform="matrix(0.9966, -0.0792, 0.0792, 0.9966, -24.8179, -15.3403)" width="21.5" xlink:href="#sprite5"/>
      <use height="34.35" transform="matrix(-0.9984, 0.0487, 0.0487, 0.9984, 23.0507, -18.7968)" width="21.5" xlink:href="#sprite5"/>
    </g>
    <g id="sprite5" transform="matrix(1.0, 0.0, 0.0, 1.0, 10.75, 17.1)">
      <use height="34.35" transform="matrix(1.0, 0.0, 0.0, 1.0, -10.75, -17.1)" width="21.5" xlink:href="#shape4"/>
      <use height="26.55" transform="matrix(1.0, 0.0, 0.0, 1.0, -9.7998, -10.4998)" width="19.65" xlink:href="#sprite6"/>
    </g>
    <g id="shape4" transform="matrix(1.0, 0.0, 0.0, 1.0, 10.75, 17.1)">
      <path d="M5.95 -10.15 Q7.85 -9.0 9.2 -6.25 11.0 -2.55 10.7 5.25 10.55 10.6 9.9 13.45 9.2 16.85 -0.3 17.2 L-5.65 17.05 -7.8 16.65 Q-9.35 15.2 -10.15 11.4 -10.9 7.7 -10.7 2.75 -10.45 -2.95 -7.75 -6.95 -4.95 -11.05 -0.7 -11.35 L1.55 -11.5 Q3.85 -11.4 5.35 -10.45 L5.95 -10.15 M5.65 -9.15 Q4.05 -10.35 1.2 -10.5 -5.65 -10.9 -8.85 -1.8 -6.2 -6.1 -2.1 -7.65 2.65 -9.45 7.75 -6.65 L5.65 -9.15 M8.05 -5.7 Q2.25 -7.75 -2.05 -6.1 -5.85 -4.65 -8.8 -0.25 L-9.2 3.0 Q-9.4 7.6 -8.55 11.15 -7.8 14.5 -6.45 15.85 L-6.85 15.9 -5.5 16.1 -0.35 16.2 Q4.55 16.05 7.55 13.25 8.85 12.05 9.25 5.0 9.65 -2.4 8.05 -5.65 L8.05 -5.7 M-0.3 -16.95 Q2.5 -17.7 3.7 -15.2 -1.55 -17.35 -5.3 -12.25 L-4.25 -14.05 Q-2.8 -16.3 -0.3 -16.95 M-6.0 7.9 L-0.35 6.6 -5.9 3.7 Q-5.1 -2.45 -0.35 -2.3 5.2 -2.15 5.2 6.2 5.2 10.1 4.15 11.95 2.85 14.35 -0.4 14.45 -5.35 14.6 -6.0 7.9" fill="#000000" fill-rule="evenodd" stroke="none"/>
      <path d="M8.05 -5.7 L8.05 -5.65 Q9.65 -2.4 9.25 5.0 8.85 12.05 7.55 13.25 4.55 16.05 -0.35 16.2 L-5.5 16.1 -6.85 15.9 -6.45 15.85 Q-7.8 14.5 -8.55 11.15 -9.4 7.6 -9.2 3.0 L-8.8 -0.25 Q-5.85 -4.65 -2.05 -6.1 2.25 -7.75 8.05 -5.7 M-6.0 7.9 Q-5.35 14.6 -0.4 14.45 2.85 14.35 4.15 11.95 5.2 10.1 5.2 6.2 5.2 -2.15 -0.35 -2.3 -5.1 -2.45 -5.9 3.7 L-0.35 6.6 -6.0 7.9" fill="#ffffff" fill-rule="evenodd" stroke="none"/>
      <path d="M5.65 -9.15 L7.75 -6.65 Q2.65 -9.45 -2.1 -7.65 -6.2 -6.1 -8.85 -1.8 -5.65 -10.9 1.2 -10.5 4.05 -10.35 5.65 -9.15" fill="#53b3cb" fill-rule="evenodd" stroke="none"/>
    </g>
    <g id="button0" transform="matrix(1.0, 0.0, 0.0, 1.0, 35.25, 17.7)">
      <use height="37.45" transform="matrix(1.0, 0.0, 0.0, 1.0, -35.25, -17.7)" width="70.25" xlink:href="#shape5"/>
    </g>
    <g id="shape5" transform="matrix(1.0, 0.0, 0.0, 1.0, 35.25, 17.7)">
      <path d="M4.2 -7.65 L8.85 -7.55 13.9 -6.85 Q16.5 -6.25 18.15 -4.1 L21.25 -0.05 Q22.85 2.05 25.2 3.35 27.0 4.35 28.75 5.5 L27.35 7.05 25.65 6.35 Q23.4 5.5 21.8 3.4 L20.85 1.85 19.15 -0.9 Q16.7 -4.8 12.35 -6.4 9.2 -7.55 4.2 -7.65 M-25.8 -12.0 L-33.0 -3.9 -34.25 -5.4 -34.2 -5.5 Q-34.1 -5.8 -34.35 -6.0 L-34.35 -6.2 -34.3 -7.35 -34.2 -7.55 -34.0 -8.4 -33.9 -8.5 Q-33.65 -8.75 -33.65 -9.1 L-33.5 -9.2 -33.4 -9.3 -33.35 -9.4 -33.3 -9.6 -33.2 -9.7 -33.05 -9.85 Q-31.7 -12.35 -30.6 -14.95 L-30.55 -15.05 -30.3 -16.25 -25.8 -12.0 M-30.95 3.1 Q-29.9 2.8 -29.0 1.85 -28.9 3.6 -27.6 3.6 L-27.5 3.6 Q-28.55 4.8 -29.9 5.05 L-30.55 3.8 -30.95 3.4 -30.95 3.25 -30.95 3.1 M-27.2 -0.6 L-27.0 -0.9 Q-21.5 -9.15 -15.75 -9.15 L-10.05 -8.55 -5.8 -8.0 -14.35 -8.4 Q-18.65 -7.1 -20.35 -6.15 -23.05 -4.65 -24.6 -1.9 L-26.35 1.7 -26.35 0.85 Q-26.35 -0.4 -27.2 -0.6 M-31.0 -16.35 L-31.0 -16.9 -30.95 -16.85 -31.0 -16.35" fill="#a88b69" fill-rule="evenodd" stroke="none"/>
      <path d="M-5.8 -8.0 L4.2 -7.65 Q9.2 -7.55 12.35 -6.4 16.7 -4.8 19.15 -0.9 L20.85 1.85 21.8 3.4 Q23.4 5.5 25.65 6.35 L27.35 7.05 25.2 9.4 Q16.9 16.45 6.05 18.0 L3.85 18.6 0.65 18.45 0.25 18.35 0.0 18.4 -4.25 18.05 -9.8 17.2 Q-19.8 14.95 -27.6 8.1 L-29.9 5.05 Q-28.55 4.8 -27.5 3.6 -26.6 3.5 -26.4 1.85 L-26.35 1.7 -24.6 -1.9 Q-23.05 -4.65 -20.35 -6.15 -18.65 -7.1 -14.35 -8.4 L-5.8 -8.0 M-7.75 18.8 L-7.95 18.75 -12.45 17.9 Q-14.6 17.35 -16.45 16.25 L-15.25 16.7 Q-11.6 18.0 -7.75 18.8 M-22.15 13.2 L-24.4 11.8 -26.45 10.3 Q-24.5 11.75 -22.35 13.0 L-22.15 13.2 M22.15 5.75 Q22.15 4.75 20.9 4.75 20.0 4.75 19.35 5.45 18.75 6.15 18.75 7.1 18.75 8.0 19.75 8.0 20.75 8.0 21.45 7.35 22.15 6.7 22.15 5.75 M-23.65 -2.6 Q-24.55 -2.6 -24.55 -1.15 -24.55 0.1 -23.65 0.1 -22.85 0.1 -22.85 -1.65 -22.85 -2.6 -23.65 -2.6" fill="#8c7357" fill-rule="evenodd" stroke="none"/>
      <path d="M28.75 5.5 Q27.0 4.35 25.2 3.35 22.85 2.05 21.25 -0.05 L18.15 -4.1 Q16.5 -6.25 13.9 -6.85 L8.85 -7.55 4.2 -7.65 -5.8 -8.0 -10.05 -8.55 -15.75 -9.15 Q-21.5 -9.15 -27.0 -0.9 L-27.2 -0.6 Q-27.95 -0.6 -28.45 0.1 -29.0 0.85 -29.0 1.85 -29.9 2.8 -30.95 3.1 L-31.3 2.65 -32.4 -0.9 Q-32.25 -2.55 -33.0 -3.9 L-25.8 -12.0 -25.5 -11.75 Q-21.6 -14.35 -15.0 -15.75 -8.4 -17.1 -0.9 -16.9 16.05 -16.4 26.3 -9.15 26.85 -7.7 28.1 -5.7 29.45 -3.5 29.85 -1.0 L30.55 3.45 28.75 5.5 M24.15 -2.0 Q24.15 -2.95 23.5 -3.15 22.65 -3.3 22.65 -2.0 22.65 -0.5 23.15 -0.5 24.15 -0.35 24.15 -2.0 M26.45 3.2 Q27.1 3.25 27.1 1.9 L27.1 1.85 Q27.1 0.4 26.1 0.8 25.8 0.9 25.85 1.85 L25.85 2.0 Q25.85 3.15 26.45 3.2 M-28.3 -5.95 Q-28.95 -5.95 -28.95 -4.5 -28.95 -3.2 -28.3 -3.2 -27.7 -3.2 -27.7 -4.95 -27.7 -5.95 -28.3 -5.95 M-31.3 -5.1 Q-31.8 -5.1 -31.8 -3.7 -31.8 -2.5 -31.3 -2.5 -30.8 -2.5 -30.8 -4.2 -30.8 -5.1 -31.3 -5.1" fill="#c19f79" fill-rule="evenodd" stroke="none"/>
      <path d="M30.55 3.45 L29.85 -1.0 Q29.45 -3.5 28.1 -5.7 26.85 -7.7 26.3 -9.15 L30.1 -13.7 Q30.05 -12.7 30.4 -11.65 L31.8 -9.0 Q33.75 -5.55 34.0 -1.8 33.65 -0.15 32.5 1.2 L30.55 3.45 M30.85 -13.6 L30.9 -13.55 30.85 -13.6 M34.55 -4.25 Q35.05 -3.25 35.0 -2.25 L34.8 -3.35 34.55 -4.25" fill="#b2936f" fill-rule="evenodd" stroke="none"/>
      <path d="M-29.0 1.85 Q-29.0 0.85 -28.45 0.1 -27.95 -0.6 -27.2 -0.6 -26.35 -0.4 -26.35 0.85 L-26.35 1.7 -26.4 1.85 Q-26.6 3.5 -27.5 3.6 L-27.6 3.6 Q-28.9 3.6 -29.0 1.85 M24.15 -2.0 Q24.15 -0.35 23.15 -0.5 22.65 -0.5 22.65 -2.0 22.65 -3.3 23.5 -3.15 24.15 -2.95 24.15 -2.0 M26.45 3.2 Q25.85 3.15 25.85 2.0 L25.85 1.85 Q25.8 0.9 26.1 0.8 27.1 0.4 27.1 1.85 L27.1 1.9 Q27.1 3.25 26.45 3.2 M22.15 5.75 Q22.15 6.7 21.45 7.35 20.75 8.0 19.75 8.0 18.75 8.0 18.75 7.1 18.75 6.15 19.35 5.45 20.0 4.75 20.9 4.75 22.15 4.75 22.15 5.75 M-31.3 -5.1 Q-30.8 -5.1 -30.8 -4.2 -30.8 -2.5 -31.3 -2.5 -31.8 -2.5 -31.8 -3.7 -31.8 -5.1 -31.3 -5.1 M-28.3 -5.95 Q-27.7 -5.95 -27.7 -4.95 -27.7 -3.2 -28.3 -3.2 -28.95 -3.2 -28.95 -4.5 -28.95 -5.95 -28.3 -5.95 M-23.65 -2.6 Q-22.85 -2.6 -22.85 -1.65 -22.85 0.1 -23.65 0.1 -24.55 0.1 -24.55 -1.15 -24.55 -2.6 -23.65 -2.6" fill="#352c21" fill-rule="evenodd" stroke="none"/>
      <path d="M28.75 5.5 L30.55 3.45 32.5 1.2 Q33.65 -0.15 34.0 -1.8 33.75 -5.55 31.8 -9.0 L30.4 -11.65 Q30.05 -12.7 30.1 -13.7 L30.3 -14.9 30.45 -15.05 30.9 -14.0 30.9 -13.9 30.9 -13.8 30.85 -13.6 30.9 -13.55 31.3 -12.05 31.35 -11.95 Q33.25 -8.2 34.55 -4.25 L34.8 -3.35 35.0 -2.25 Q35.0 -1.3 34.5 -0.4 33.55 1.35 32.15 2.75 L30.65 4.65 Q27.7 9.0 23.5 12.15 17.4 16.6 10.15 18.25 L5.5 19.25 -0.15 19.7 -7.75 18.8 Q-11.6 18.0 -15.25 16.7 L-16.45 16.25 Q-18.5 15.4 -20.35 14.2 L-20.75 13.95 -21.7 13.45 -22.05 13.3 -22.15 13.2 -22.35 13.0 Q-24.5 11.75 -26.45 10.3 L-28.35 8.8 Q-30.25 6.65 -31.5 4.2 -33.2 1.55 -33.3 -1.55 -33.4 -3.3 -34.9 -4.2 L-35.25 -5.55 -35.25 -5.7 Q-35.25 -7.55 -34.4 -9.2 L-34.3 -9.35 -34.0 -9.85 -33.95 -9.95 Q-32.55 -12.05 -31.6 -14.45 L-31.6 -14.65 -31.6 -14.85 -31.0 -16.35 -30.95 -16.85 -30.95 -16.95 -30.95 -17.05 Q-31.25 -17.55 -30.7 -17.65 L-30.7 -17.7 Q-30.3 -17.0 -30.3 -16.25 L-30.55 -15.05 -30.6 -14.95 Q-31.7 -12.35 -33.05 -9.85 L-33.2 -9.7 -33.3 -9.6 -33.35 -9.4 -33.4 -9.3 -33.5 -9.2 -33.65 -9.1 Q-33.65 -8.75 -33.9 -8.5 L-34.0 -8.4 -34.2 -7.55 -34.3 -7.35 -34.35 -6.2 -34.35 -6.0 Q-34.1 -5.8 -34.2 -5.5 L-34.25 -5.4 -33.0 -3.9 Q-32.25 -2.55 -32.4 -0.9 L-31.3 2.65 -30.95 3.1 -30.95 3.25 -30.95 3.4 -30.55 3.8 -29.9 5.05 -27.6 8.1 Q-19.8 14.95 -9.8 17.2 L-4.25 18.05 0.0 18.4 0.25 18.35 0.65 18.45 3.85 18.6 6.05 18.0 Q16.9 16.45 25.2 9.4 L27.35 7.05 28.75 5.5" fill="#000000" fill-rule="evenodd" stroke="none"/>
    </g>
    <g id="sprite7" transform="matrix(1.0, 0.0, 0.0, 1.0, 20.35, 2.85)">
      <use height="5.7" transform="matrix(1.0, 0.0, 0.0, 1.0, -20.35, -2.85)" width="40.65" xlink:href="#shape6"/>
    </g>
    <g id="shape6" transform="matrix(1.0, 0.0, 0.0, 1.0, 20.35, 2.85)">
      <path d="M-17.95 -1.45 L0.05 -1.2 12.65 -0.65 17.4 -0.35 20.3 -1.6 -0.6 -1.95 -20.35 -2.85 -17.95 -1.45" fill="#65543f" fill-rule="evenodd" stroke="none"/>
      <path d="M-4.35 2.8 L7.25 2.7 Q11.05 2.4 13.85 1.25 0.7 -0.65 -15.75 0.1 -11.7 2.3 -4.35 2.8" fill="#8c7357" fill-rule="evenodd" stroke="none"/>
    </g>
    <g id="sprite8" transform="matrix(1.0, 0.0, 0.0, 1.0, 17.2, 11.2)">
      <use height="22.4" transform="matrix(1.0, 0.0, 0.0, 1.0, -17.2, -11.2)" width="34.4" xlink:href="#shape7"/>
    </g>
    <g id="shape7" transform="matrix(1.0, 0.0, 0.0, 1.0, 17.2, 11.2)">
      <path d="M-11.8 8.6 Q-6.85 11.2 0.95 11.2 8.6 11.2 12.45 8.9 16.85 6.25 17.2 0.05 17.45 -4.4 12.3 -7.8 7.15 -11.2 0.05 -11.2 -7.5 -11.2 -12.05 -8.5 -17.0 -5.5 -17.2 0.05 -17.35 5.6 -11.8 8.6" fill="url(#gradient1)" fill-rule="evenodd" stroke="none"/>
      <path d="M2.2 -0.55 Q3.45 0.3 5.2 0.3 6.95 0.3 8.2 -0.55 9.45 -1.45 9.45 -2.7 9.45 -3.95 8.2 -4.8 6.95 -5.7 5.2 -5.7 3.45 -5.7 2.2 -4.8 0.95 -3.95 0.95 -2.7 0.95 -1.45 2.2 -0.55" fill="url(#gradient2)" fill-rule="evenodd" stroke="none"/>
    </g>
    <radialGradient cx="0" cy="0" gradientTransform="matrix(0.022, 0.0, 0.0, 0.022, 0.65, -2.1)" gradientUnits="userSpaceOnUse" id="gradient1" r="819.2" spreadMethod="pad">
      <stop offset="0.0" stop-color="#202020"/>
      <stop offset="0.7843137254901961" stop-color="#0a0a0a"/>
      <stop offset="1.0" stop-color="#0a0a0a"/>
    </radialGradient>
    <radialGradient cx="0" cy="0" gradientTransform="matrix(0.0052, 0.0, 0.0, 0.0052, 5.2, -2.7)" gradientUnits="userSpaceOnUse" id="gradient2" r="819.2" spreadMethod="pad">
      <stop offset="0.0" stop-color="#5d5d5d"/>
      <stop offset="0.37254901960784315" stop-color="#5d5d5d"/>
      <stop offset="1.0" stop-color="#202020"/>
    </radialGradient>
    <g id="shape8" transform="matrix(1.0, 0.0, 0.0, 1.0, 188.5, 116.9)">
      <path d="M11.55 -67.3 L11.65 -67.15 11.7 -66.95 11.65 -66.35 11.35 -66.2 10.85 -66.2 9.35 -67.2 9.25 -67.35 9.35 -67.55 Q9.5 -67.95 9.8 -67.95 10.8 -67.95 11.55 -67.3 M-2.6 -63.85 L-3.15 -64.4 Q-3.15 -64.9 -2.75 -65.25 L-2.65 -65.35 -1.0 -66.15 -0.6 -66.5 -0.55 -66.5 Q-0.25 -66.05 -0.9 -65.75 L-1.05 -65.65 Q-1.4 -64.35 -2.6 -63.85 M18.65 -62.15 Q18.35 -63.1 18.35 -63.95 18.35 -64.25 18.6 -64.2 19.6 -63.65 20.05 -62.55 L20.05 -62.45 20.05 -62.05 19.8 -61.7 Q19.4 -61.45 19.0 -61.7 L18.85 -61.9 18.65 -62.15" fill="#dfefff" fill-rule="evenodd" stroke="none"/>
      <path d="M107.95 -103.95 L108.2 -104.0 Q110.9 -104.45 112.4 -102.6 113.05 -101.85 112.4 -101.05 110.7 -99.0 108.0 -98.45 100.65 -96.9 93.75 -94.1 90.95 -93.0 88.4 -91.3 L87.15 -90.35 87.6 -90.25 87.95 -90.15 88.7 -89.85 Q90.5 -87.1 87.2 -85.6 83.45 -83.9 80.3 -81.25 77.75 -79.1 74.65 -77.75 71.95 -76.55 69.7 -74.6 67.65 -72.8 65.1 -72.2 L64.55 -72.1 64.45 -72.2 64.45 -72.35 64.55 -72.45 65.65 -73.65 66.95 -74.8 Q70.75 -80.6 76.7 -84.65 78.55 -86.0 77.7 -88.05 74.5 -88.75 71.5 -87.2 67.9 -85.3 64.45 -83.0 62.65 -81.8 61.0 -80.45 57.95 -77.95 54.3 -76.4 L51.95 -74.95 46.9 -70.7 46.45 -70.1 Q46.25 -69.8 45.9 -69.95 L46.15 -70.5 46.1 -70.6 46.1 -70.8 46.4 -71.1 Q47.65 -73.95 49.9 -76.5 L56.2 -83.0 Q60.5 -86.95 65.65 -89.7 71.55 -92.85 77.35 -96.2 81.3 -98.45 85.75 -99.35 93.95 -100.95 102.1 -103.05 L107.95 -103.95 M111.55 -102.55 Q104.9 -103.45 98.4 -101.25 93.4 -99.55 88.15 -98.85 81.25 -97.9 75.35 -94.3 L60.05 -84.9 Q57.4 -83.25 55.3 -80.9 L49.6 -74.15 Q52.2 -76.35 55.3 -77.9 56.8 -78.65 58.2 -79.55 61.45 -81.7 64.5 -84.2 L65.8 -85.15 Q70.45 -87.95 75.6 -89.35 77.1 -89.6 78.35 -88.75 L78.45 -88.7 Q79.85 -85.15 76.45 -83.0 73.6 -81.25 71.3 -78.8 L67.7 -74.65 Q72.65 -78.0 77.85 -81.0 L80.1 -82.45 Q83.45 -84.8 87.1 -86.6 89.1 -87.6 87.95 -89.1 L87.45 -89.2 Q86.8 -89.2 86.3 -89.55 L86.0 -89.85 Q86.8 -92.05 89.25 -93.15 97.3 -96.8 105.85 -98.7 109.1 -99.4 111.65 -101.3 L111.7 -101.4 111.7 -101.5 111.75 -101.6 111.8 -101.75 111.85 -101.85 111.85 -101.95 111.75 -102.05 111.7 -102.15 111.6 -102.4 111.55 -102.55 M14.7 -104.6 Q19.7 -109.75 25.5 -113.9 L26.1 -114.3 26.2 -114.45 28.3 -115.6 28.95 -115.95 29.1 -115.9 30.35 -116.25 Q33.1 -116.45 32.5 -114.1 32.3 -113.35 31.75 -112.75 29.1 -109.8 25.65 -107.6 L23.1 -105.5 Q17.9 -100.05 15.55 -93.0 L13.65 -87.95 11.25 -80.6 Q10.7 -78.9 9.8 -77.35 L9.0 -75.6 8.0 -74.45 7.85 -74.45 7.25 -74.6 Q6.9 -77.05 7.4 -79.65 7.7 -81.0 6.95 -82.0 L6.8 -82.1 6.05 -82.25 5.5 -81.8 5.15 -81.5 Q3.15 -78.75 1.45 -75.8 0.85 -74.8 0.6 -73.65 -0.15 -70.15 -0.45 -66.5 L-0.8 -64.9 -3.8 -55.9 -4.45 -50.7 -4.95 -50.8 -4.9 -54.2 -5.05 -54.35 -4.85 -55.55 Q-4.65 -59.95 -3.75 -64.3 -3.4 -66.0 -4.55 -67.0 -6.85 -64.8 -7.8 -61.5 -8.0 -60.9 -8.55 -60.7 -8.9 -60.65 -9.1 -60.95 -8.6 -66.25 -6.0 -71.15 -4.1 -74.75 -2.95 -78.65 L-2.15 -80.45 -1.4 -82.25 -1.35 -82.4 -1.2 -82.7 -1.1 -82.8 -1.05 -82.95 -1.05 -83.15 -0.9 -83.35 -0.8 -83.45 -0.05 -85.05 Q0.8 -86.75 2.75 -87.6 L3.4 -87.7 3.55 -87.6 3.65 -87.55 Q5.9 -87.75 6.5 -89.85 7.85 -91.65 7.25 -93.6 L7.15 -93.8 Q7.3 -95.45 8.2 -96.65 L8.8 -97.7 9.5 -98.85 13.65 -103.7 14.7 -104.6 M8.9 -77.65 Q10.45 -80.85 11.55 -84.25 L12.75 -88.35 12.8 -88.45 12.9 -88.5 13.05 -88.6 Q14.35 -93.4 16.7 -97.9 L19.25 -102.5 Q23.55 -108.25 29.65 -112.05 30.8 -112.75 31.55 -113.9 L31.9 -114.6 31.85 -114.7 31.7 -114.95 31.55 -115.15 28.65 -114.7 28.6 -114.65 Q22.25 -110.65 16.75 -105.45 12.55 -101.45 9.35 -96.75 L8.6 -95.35 8.55 -95.25 Q8.1 -94.9 8.05 -94.3 L8.2 -94.0 8.3 -93.95 Q8.8 -90.7 6.5 -87.95 5.05 -86.2 2.85 -86.8 L1.15 -85.15 0.85 -84.4 Q-2.1 -78.5 -4.5 -72.35 L-6.9 -66.3 -7.15 -65.4 -6.7 -66.25 Q-5.8 -67.7 -4.1 -67.95 -3.35 -67.55 -2.95 -66.8 -2.8 -63.9 -3.1 -61.0 -0.95 -66.95 -0.35 -73.3 -0.1 -76.1 1.55 -78.35 L4.2 -81.55 Q4.6 -82.75 5.6 -83.0 L5.6 -83.05 5.65 -83.05 7.55 -82.85 Q9.0 -80.6 8.4 -77.9 L7.9 -75.85 8.9 -77.65 M76.25 -68.65 Q75.35 -67.55 73.95 -66.85 L73.95 -66.75 73.9 -66.55 Q71.55 -64.7 70.0 -62.15 L69.85 -61.6 Q72.65 -60.75 75.3 -62.6 80.9 -66.45 87.4 -68.2 L88.35 -68.3 88.65 -68.0 88.7 -67.95 Q88.0 -65.75 85.45 -64.7 84.7 -64.4 84.05 -63.8 80.5 -60.2 76.35 -57.25 L74.3 -55.55 Q70.15 -51.3 65.45 -47.65 L62.6 -45.05 Q61.45 -43.85 59.9 -43.85 59.15 -45.75 60.0 -47.9 L59.95 -48.6 Q59.75 -49.1 59.1 -49.2 52.9 -45.5 48.85 -39.5 L48.35 -39.1 44.3 -33.6 43.6 -32.85 42.75 -31.45 41.55 -28.9 41.3 -28.7 41.2 -28.55 40.9 -29.05 40.85 -29.1 41.2 -30.2 41.15 -30.3 41.15 -30.5 41.45 -30.95 Q42.5 -34.15 44.05 -37.15 44.95 -38.8 46.25 -40.1 49.4 -44.95 53.0 -49.35 56.4 -53.5 60.35 -57.1 66.95 -63.15 74.0 -68.45 75.1 -69.3 76.35 -69.95 L76.6 -70.2 76.7 -70.15 77.05 -70.35 Q77.4 -69.5 76.25 -68.65 M48.1 -40.35 Q50.85 -43.65 53.95 -46.55 L56.95 -49.0 59.05 -50.25 Q62.0 -49.1 60.7 -46.05 L60.45 -45.0 Q63.3 -47.0 66.25 -49.5 71.1 -53.5 75.6 -57.9 L79.3 -61.0 84.55 -65.15 Q85.95 -66.4 87.55 -67.35 80.55 -65.15 74.3 -61.15 71.4 -59.3 69.1 -61.3 68.85 -61.45 68.95 -61.8 69.4 -63.15 70.3 -64.3 L61.5 -56.85 Q55.9 -51.9 51.5 -46.15 L47.65 -40.6 45.65 -37.2 48.1 -40.35 M32.95 -82.75 L32.95 -82.85 32.95 -83.05 33.55 -83.65 33.7 -83.7 33.85 -83.7 34.05 -83.65 Q34.65 -81.9 33.8 -80.0 33.15 -78.55 33.1 -76.9 32.95 -69.4 29.4 -62.85 28.25 -60.8 28.0 -58.5 L27.55 -56.0 Q26.4 -53.05 23.45 -52.6 L22.6 -52.2 Q18.25 -48.95 16.5 -44.1 L16.5 -44.05 14.75 -37.95 14.7 -37.85 Q14.3 -37.5 13.9 -37.85 14.15 -42.85 15.6 -47.65 L15.55 -47.7 18.6 -57.9 Q19.3 -60.5 21.3 -62.35 L23.8 -62.3 Q26.35 -65.1 27.5 -68.85 L28.25 -71.0 Q30.85 -76.2 32.5 -81.8 L32.7 -82.35 32.95 -82.75 M32.25 -79.0 Q31.5 -75.4 30.05 -72.05 28.05 -67.25 25.5 -62.8 L24.15 -61.35 Q23.7 -61.2 23.2 -61.35 L22.85 -61.85 Q22.0 -61.9 21.3 -61.2 18.2 -56.2 17.25 -50.3 L16.75 -48.5 15.9 -44.95 Q16.45 -46.45 17.3 -47.9 18.6 -50.05 20.4 -51.8 L22.1 -53.25 Q23.35 -54.15 24.9 -53.95 27.15 -56.4 27.3 -59.85 27.35 -60.6 27.7 -61.35 L27.7 -61.55 Q31.8 -68.0 32.0 -75.7 32.05 -77.4 32.4 -78.95 L32.75 -80.45 32.25 -79.0 M8.75 -13.8 Q6.2 -13.45 4.15 -14.7 2.4 -15.4 0.75 -16.35 L-1.3 -16.4 Q-3.6 -15.4 -5.45 -13.6 -6.35 -12.75 -7.65 -13.0 -14.05 -14.35 -15.1 -20.7 L-17.15 -32.75 Q-17.65 -35.8 -14.7 -36.8 -14.0 -37.05 -13.25 -36.8 -11.8 -36.4 -11.2 -34.9 -9.9 -34.6 -9.25 -35.8 -9.3 -40.6 -11.05 -45.05 -11.1 -43.55 -11.75 -42.0 L-11.8 -41.9 Q-12.5 -37.8 -16.6 -38.0 -17.55 -38.65 -18.2 -39.65 L-19.15 -39.7 Q-20.45 -37.7 -19.25 -35.2 -18.7 -33.95 -18.6 -32.6 -18.45 -29.8 -17.85 -27.15 -17.15 -24.05 -18.7 -21.35 -19.9 -19.85 -22.1 -20.05 L-22.55 -19.9 Q-23.2 -15.1 -28.1 -13.9 -28.0 -12.1 -25.8 -11.65 L-21.6 -10.95 Q-16.55 -10.15 -12.85 -7.15 L-12.6 -6.9 -12.4 -6.55 -12.4 -6.45 -12.45 -6.35 -12.5 -6.3 -12.65 -6.1 -12.7 -6.1 -12.8 -6.05 -13.05 -5.85 -13.35 -5.75 -15.15 -5.25 Q-25.5 -4.55 -35.35 -7.45 L-38.3 -8.3 -43.8 -9.7 Q-46.5 -10.3 -48.8 -11.7 -51.5 -13.3 -54.65 -12.5 L-59.3 -11.5 Q-63.0 -10.9 -64.55 -13.65 -65.0 -14.45 -64.4 -15.15 -62.75 -16.9 -60.45 -17.85 L-55.95 -19.45 Q-52.45 -20.55 -48.8 -21.0 -52.4 -21.3 -56.4 -20.25 L-59.85 -19.6 Q-62.85 -19.25 -65.4 -17.7 -66.4 -17.1 -67.65 -17.05 -72.1 -16.85 -73.1 -12.95 L-73.05 -11.85 Q-72.1 -10.6 -70.75 -9.75 -69.5 -8.95 -68.0 -8.45 -64.15 -7.15 -60.25 -6.75 L-58.05 -6.55 -44.7 -5.05 Q-44.05 -4.95 -43.9 -4.35 -44.6 -3.0 -46.5 -3.25 -30.65 -0.65 -14.35 -0.35 L-3.65 -1.1 -8.25 -1.6 Q-8.8 -2.0 -8.8 -2.65 L-8.7 -2.95 Q-6.1 -4.4 -2.9 -3.35 L-2.8 -3.3 5.05 -3.05 5.5 -2.95 14.85 -3.0 18.65 -3.4 Q24.3 -3.65 30.05 -3.4 L32.4 -3.5 53.2 -6.85 Q58.75 -7.9 64.05 -9.65 67.6 -10.85 70.75 -12.6 L70.95 -13.35 70.85 -14.1 71.0 -15.35 Q71.15 -16.0 70.65 -16.5 L70.3 -15.15 Q69.85 -14.25 69.0 -13.6 68.3 -13.05 67.4 -12.95 66.55 -12.2 65.35 -12.1 L63.2 -12.1 63.1 -12.2 62.8 -12.5 62.75 -12.6 62.7 -12.85 62.7 -13.05 Q62.65 -13.45 62.9 -13.75 L63.15 -14.0 63.25 -14.05 63.7 -14.2 63.7 -14.3 63.8 -14.55 63.9 -14.65 64.1 -14.85 64.1 -14.95 64.15 -15.1 64.15 -15.2 64.45 -15.6 65.0 -16.15 65.7 -17.3 Q63.95 -20.85 59.6 -21.25 L57.7 -21.35 54.4 -21.4 Q57.25 -20.75 60.05 -19.7 61.35 -19.25 61.45 -17.85 61.5 -16.8 60.55 -16.35 L59.9 -16.05 Q61.9 -13.85 59.05 -12.4 53.35 -9.5 46.95 -9.05 46.2 -9.0 45.75 -9.6 L45.75 -9.8 45.75 -9.95 45.7 -10.25 45.45 -10.45 45.35 -10.55 Q39.95 -10.6 35.15 -13.45 L34.75 -14.1 34.7 -14.2 34.5 -14.95 34.4 -15.15 33.9 -15.4 33.6 -15.4 Q30.0 -12.1 24.9 -12.15 L23.15 -12.1 Q20.05 -11.9 18.4 -14.1 18.1 -14.5 18.2 -15.0 L18.45 -15.4 18.1 -15.85 10.2 -14.1 8.75 -13.8 M17.05 -16.7 L18.35 -16.8 Q20.05 -16.0 19.15 -14.4 21.55 -12.5 25.0 -13.15 L27.45 -13.5 Q30.95 -13.7 33.1 -16.3 35.35 -16.45 35.85 -14.15 40.6 -11.5 46.0 -11.2 L46.5 -11.2 47.1 -11.2 47.2 -11.15 47.2 -10.9 47.45 -10.75 47.55 -10.5 47.5 -10.3 47.3 -10.15 47.2 -10.05 49.9 -10.1 Q55.15 -11.0 59.45 -13.9 L59.9 -14.45 59.4 -15.2 58.75 -15.75 58.65 -15.85 Q58.5 -16.45 59.05 -16.8 L60.45 -17.45 60.5 -17.6 60.6 -17.7 60.7 -17.8 60.55 -18.0 60.5 -18.2 60.45 -18.35 Q57.8 -20.5 54.2 -20.6 51.4 -20.65 49.2 -21.85 L49.3 -22.05 49.4 -22.2 49.6 -22.3 50.1 -22.2 51.2 -22.45 52.7 -22.45 Q58.4 -22.8 63.65 -20.75 66.95 -19.45 66.1 -16.45 65.9 -15.55 65.15 -14.9 L65.0 -14.55 64.8 -14.05 63.65 -13.05 Q65.4 -12.9 66.85 -13.7 L67.85 -14.05 68.2 -14.45 68.65 -14.75 69.6 -15.45 69.7 -16.2 69.55 -17.45 Q69.25 -18.15 69.55 -18.75 L69.65 -18.8 70.05 -18.8 70.2 -18.7 70.35 -18.45 70.4 -18.35 Q71.9 -17.2 71.85 -15.35 L71.8 -13.45 71.85 -13.4 71.95 -13.3 Q72.0 -11.2 69.5 -10.55 L65.6 -9.35 Q58.35 -6.5 50.65 -5.4 L43.9 -4.3 Q37.1 -2.95 30.1 -2.4 27.55 -2.2 24.95 -2.3 L16.45 -2.15 15.2 -2.15 Q9.9 -2.0 4.65 -2.2 0.05 -1.7 -4.4 -2.75 L-4.75 -2.75 -7.7 -2.6 Q-5.25 -2.45 -2.6 -1.5 L-2.15 -1.1 Q-3.35 0.25 -5.45 0.35 -16.9 1.1 -28.25 -0.15 L-43.4 -1.8 -45.95 -2.1 -49.1 -2.2 -49.5 -2.7 -49.5 -2.8 -48.3 -3.95 -46.2 -4.3 -54.95 -5.25 -65.7 -6.85 Q-69.7 -7.65 -72.7 -10.05 L-72.75 -10.05 -73.1 -10.05 Q-75.6 -13.3 -72.5 -15.9 -69.7 -18.3 -65.9 -18.3 -61.35 -21.35 -55.8 -21.25 L-54.25 -21.45 Q-50.95 -22.4 -47.5 -22.4 L-46.85 -22.5 Q-45.7 -22.7 -44.95 -21.9 L-44.9 -21.85 Q-46.2 -19.95 -48.95 -19.8 -53.05 -19.55 -56.85 -18.1 -60.2 -16.9 -63.3 -15.2 L-63.45 -15.0 -63.8 -14.45 -63.9 -14.2 -63.75 -13.75 -62.8 -12.8 Q-58.05 -12.45 -53.4 -13.5 -50.3 -14.15 -47.7 -12.5 -43.5 -9.8 -38.4 -9.25 L-37.1 -8.9 Q-30.9 -6.25 -24.05 -6.3 L-22.05 -6.3 -15.2 -6.25 Q-14.5 -6.3 -13.85 -6.6 L-13.75 -6.7 -13.7 -6.8 -13.65 -6.9 Q-18.4 -9.7 -24.2 -10.65 L-27.7 -11.5 Q-29.4 -12.45 -29.05 -14.3 -27.35 -15.1 -25.8 -16.15 -23.55 -17.7 -23.15 -20.4 L-22.6 -20.95 -19.9 -21.45 -18.6 -23.8 Q-18.85 -29.8 -20.35 -35.55 -20.75 -37.1 -20.65 -38.65 -20.55 -39.55 -20.05 -40.35 L-19.85 -40.55 Q-17.5 -41.0 -16.2 -38.9 -13.05 -39.1 -12.35 -42.4 L-11.95 -45.05 -12.0 -47.6 -11.75 -48.4 -11.65 -48.45 -11.45 -47.9 -11.4 -47.95 Q-8.85 -43.2 -8.2 -37.65 -7.75 -34.0 -11.35 -33.85 -12.4 -35.45 -14.15 -35.8 -15.3 -36.0 -15.85 -34.95 -16.95 -32.8 -16.15 -30.35 -14.9 -26.3 -14.2 -22.15 L-13.65 -18.95 Q-11.6 -13.75 -6.05 -14.05 -3.75 -17.1 -0.05 -17.5 L0.85 -17.35 4.25 -15.7 Q6.35 -14.45 8.9 -14.7 L17.05 -16.7 M145.95 -89.2 L151.35 -89.65 Q158.75 -89.55 165.95 -88.15 167.0 -87.95 167.75 -87.4 L167.75 -87.3 Q167.9 -86.8 167.5 -86.4 L166.45 -85.7 165.2 -85.1 150.0 -84.05 Q143.0 -83.6 136.4 -81.7 L134.45 -80.9 Q136.4 -81.3 137.9 -80.4 138.05 -78.1 135.6 -77.5 130.45 -76.15 125.45 -74.35 L118.0 -71.75 Q111.1 -69.5 104.8 -65.85 99.25 -62.65 94.55 -58.35 92.6 -56.55 90.5 -55.3 L88.7 -53.9 88.25 -53.95 88.2 -54.05 88.15 -54.35 88.4 -54.75 88.45 -54.9 94.3 -61.3 96.05 -63.15 Q99.1 -66.1 102.4 -68.55 103.5 -69.35 104.75 -69.85 107.7 -71.0 109.75 -73.3 110.15 -73.8 110.1 -74.45 106.9 -75.35 103.55 -74.05 102.55 -73.7 101.95 -74.35 L101.95 -74.5 102.1 -74.7 Q103.7 -75.35 105.1 -76.15 L108.65 -78.2 Q113.45 -80.9 118.7 -82.65 L125.05 -84.65 Q132.45 -86.95 140.1 -88.35 L145.95 -89.2 M107.25 -75.95 Q109.25 -76.1 111.05 -74.8 111.2 -73.8 110.7 -72.95 L109.85 -71.7 101.65 -66.95 100.7 -66.3 Q96.4 -62.7 93.05 -58.35 L93.1 -58.4 Q96.15 -61.0 99.45 -63.45 L101.2 -64.55 109.2 -68.95 Q112.6 -70.7 116.2 -72.0 123.5 -74.7 130.9 -77.0 L135.8 -78.75 136.8 -79.2 136.85 -79.3 136.95 -79.5 137.0 -79.6 137.05 -79.7 137.0 -79.75 133.5 -80.2 133.45 -80.3 Q133.35 -80.45 133.4 -80.6 L133.4 -80.8 133.4 -80.9 133.4 -80.95 133.45 -81.05 Q135.55 -82.9 138.45 -83.35 L156.35 -85.35 166.0 -86.55 166.6 -86.9 166.1 -87.0 Q161.7 -88.15 157.05 -88.35 147.2 -88.75 137.45 -86.95 133.95 -86.3 130.55 -85.25 L120.45 -82.15 Q113.5 -80.0 107.25 -76.25 L106.65 -75.9 107.25 -75.95 M-126.55 -66.35 L-131.05 -67.45 Q-134.45 -68.05 -135.4 -70.95 L-135.5 -71.8 -135.3 -72.05 -135.25 -72.15 -134.95 -72.55 -133.9 -73.2 -133.35 -73.55 Q-136.45 -75.3 -140.05 -76.2 L-153.9 -78.85 Q-167.75 -80.85 -181.75 -79.35 L-183.75 -78.85 -184.85 -78.65 -186.7 -78.2 -165.05 -77.3 -161.1 -77.1 -150.55 -76.0 Q-146.9 -75.45 -143.95 -73.45 L-143.8 -73.15 Q-143.65 -70.0 -147.0 -69.8 L-148.55 -69.75 Q-153.2 -69.55 -157.1 -67.55 -155.5 -66.55 -153.3 -66.35 L-144.25 -65.65 Q-139.5 -65.3 -135.1 -63.55 -134.1 -63.2 -133.45 -62.3 L-133.45 -61.75 Q-133.5 -61.35 -133.7 -61.0 L-126.9 -57.2 Q-124.85 -56.0 -122.5 -55.3 L-114.6 -53.05 -117.55 -54.6 -123.05 -57.65 Q-126.4 -59.5 -127.15 -62.9 L-127.0 -63.8 Q-126.45 -64.9 -126.25 -66.05 L-126.4 -66.2 -126.45 -66.3 -126.55 -66.35 M-184.4 -79.7 L-179.05 -80.6 -168.9 -81.0 -154.1 -79.8 Q-146.65 -78.8 -139.45 -77.0 -135.85 -76.1 -132.8 -74.15 L-132.3 -73.6 -132.35 -73.3 -132.35 -73.2 -132.6 -72.9 -132.8 -72.75 -133.7 -72.15 -134.1 -72.05 -134.35 -71.75 -134.4 -71.65 -134.55 -71.45 Q-134.15 -69.1 -131.4 -68.65 -128.05 -68.15 -125.45 -66.35 -125.15 -66.15 -125.3 -65.75 -126.0 -64.2 -126.2 -62.5 -126.3 -61.9 -125.85 -61.4 -122.1 -57.45 -116.95 -55.35 L-115.9 -54.9 Q-112.7 -53.4 -109.6 -51.7 -108.05 -51.15 -106.7 -50.25 -105.2 -49.5 -103.85 -48.3 -102.25 -47.2 -101.3 -45.8 -102.7 -46.0 -103.95 -47.25 L-104.6 -47.65 -107.55 -49.6 Q-108.5 -49.85 -109.5 -50.4 -110.35 -50.85 -111.3 -51.15 L-117.35 -52.9 Q-120.8 -53.8 -124.15 -55.1 -126.8 -56.15 -129.35 -57.55 L-132.25 -58.85 Q-134.05 -59.55 -134.5 -61.15 L-134.35 -61.85 Q-137.4 -64.1 -141.45 -64.35 L-150.9 -65.0 Q-154.6 -65.25 -157.7 -66.9 -158.3 -67.25 -158.0 -67.95 L-157.95 -68.15 Q-153.15 -70.65 -147.5 -71.0 L-145.1 -71.4 -144.95 -71.95 -144.65 -72.6 -144.65 -72.7 -144.7 -73.0 -144.75 -73.2 Q-148.25 -74.7 -152.2 -75.25 L-161.3 -76.35 -171.65 -76.8 Q-176.35 -76.65 -181.05 -76.65 -184.75 -76.65 -188.3 -77.6 L-188.45 -77.7 -188.5 -77.9 -188.5 -78.35 -188.45 -78.45 Q-187.05 -79.65 -185.15 -79.7 L-184.4 -79.7 M-186.9 -78.25 L-187.05 -78.2 -186.85 -78.2 -186.9 -78.25 M-57.05 -91.6 Q-58.7 -96.45 -61.0 -100.95 L-61.95 -102.4 Q-65.9 -107.4 -67.85 -113.35 L-68.6 -114.45 -68.85 -115.6 -69.15 -115.7 -69.95 -114.7 -70.05 -114.6 Q-70.3 -113.55 -70.0 -112.5 L-69.95 -112.15 Q-68.7 -108.85 -68.5 -105.2 L-68.05 -103.65 Q-65.9 -99.6 -62.65 -96.4 L-61.1 -95.3 Q-59.6 -94.6 -58.6 -93.2 L-57.15 -91.5 -56.8 -91.1 -57.0 -91.5 -57.05 -91.6 M-68.55 -116.8 Q-66.6 -111.85 -63.8 -107.2 L-59.7 -100.55 Q-58.4 -98.55 -57.75 -96.35 L-56.5 -93.1 -56.15 -91.95 Q-55.45 -90.85 -55.3 -89.55 -55.25 -89.25 -55.45 -89.05 -55.55 -88.95 -55.75 -88.95 L-55.95 -89.0 Q-58.65 -92.15 -61.85 -94.65 L-62.55 -95.2 -65.75 -98.15 Q-69.0 -101.75 -69.65 -106.35 L-70.0 -108.85 -70.5 -111.3 Q-72.25 -114.7 -69.25 -116.9 L-68.75 -116.85 -68.55 -116.8 M-45.0 -99.45 Q-41.2 -98.55 -42.4 -94.75 -44.65 -87.6 -41.7 -80.4 L-41.05 -78.4 -36.9 -72.3 -36.85 -72.3 -36.7 -72.25 -36.55 -72.15 Q-33.0 -65.8 -30.0 -59.1 -28.9 -56.65 -28.35 -54.1 -27.7 -51.45 -30.4 -50.9 -32.95 -50.4 -35.4 -51.3 L-37.8 -51.55 Q-39.05 -51.35 -40.1 -50.75 -44.4 -45.95 -41.75 -40.25 -41.05 -38.85 -39.95 -37.7 -38.1 -35.75 -37.05 -33.4 L-36.8 -33.2 -36.6 -32.75 -36.55 -32.55 -36.7 -32.5 -36.65 -32.3 -36.8 -32.15 -37.05 -32.05 -37.85 -32.65 -38.75 -33.35 -40.95 -35.3 Q-42.65 -36.65 -43.95 -38.3 -49.5 -42.85 -48.45 -49.9 -48.05 -52.65 -45.95 -54.7 -43.8 -56.75 -41.1 -58.15 -40.1 -58.7 -39.85 -59.8 -39.25 -62.4 -40.25 -64.9 L-40.4 -65.1 -40.45 -65.2 -40.5 -65.35 -40.5 -65.55 Q-41.4 -67.4 -42.55 -69.1 L-42.7 -69.3 -42.75 -69.55 -43.9 -71.15 Q-47.6 -77.75 -47.3 -85.4 -47.15 -89.65 -47.6 -93.95 -47.8 -95.85 -47.05 -97.3 L-46.3 -98.4 -46.3 -98.5 -46.3 -98.6 -45.85 -99.05 -45.0 -99.45 M-99.15 -88.65 L-90.45 -82.65 -87.05 -80.4 -86.15 -80.5 -86.15 -80.55 -86.15 -80.8 -86.3 -81.1 -86.35 -81.2 Q-86.75 -81.65 -86.65 -82.3 -86.6 -82.95 -86.15 -83.35 L-85.8 -83.6 Q-82.65 -83.55 -80.2 -81.55 L-73.85 -75.95 -69.95 -71.9 Q-68.0 -69.75 -66.4 -67.3 L-65.8 -66.55 -64.2 -65.35 -63.2 -64.3 -59.8 -61.0 -59.8 -60.9 -59.9 -60.75 -60.0 -60.65 -60.25 -60.55 -60.4 -60.55 Q-62.05 -61.7 -63.5 -63.2 L-64.2 -63.9 -64.8 -64.3 Q-67.55 -66.45 -69.95 -68.95 L-72.45 -71.25 Q-75.95 -74.05 -80.1 -75.8 L-80.7 -75.9 -80.7 -75.6 -80.7 -75.4 -79.95 -74.55 Q-79.9 -74.1 -80.0 -73.65 -80.0 -73.45 -80.15 -73.35 -83.6 -73.7 -86.75 -75.7 L-88.8 -76.8 Q-94.65 -79.3 -100.2 -82.2 L-103.15 -82.1 Q-102.05 -79.6 -99.2 -78.7 L-97.95 -78.1 Q-96.5 -77.2 -96.55 -75.7 -96.55 -75.25 -97.0 -75.25 -99.2 -75.2 -101.3 -75.8 -107.05 -77.45 -112.25 -80.3 L-113.3 -81.05 -117.2 -84.2 Q-117.55 -84.45 -117.35 -84.9 -116.7 -86.45 -115.15 -86.95 -118.05 -89.0 -121.75 -89.95 L-130.2 -91.7 -143.2 -93.7 -143.6 -93.8 Q-146.65 -94.5 -148.85 -96.2 -148.0 -97.1 -146.7 -97.45 L-146.65 -97.5 Q-143.05 -98.75 -139.25 -99.15 L-124.9 -98.1 Q-117.5 -97.0 -110.65 -94.1 L-103.15 -90.85 Q-101.05 -89.95 -99.15 -88.65 M-102.95 -83.2 Q-100.2 -83.8 -97.75 -82.35 -91.4 -78.6 -84.6 -75.65 L-83.05 -74.9 -80.95 -74.3 Q-81.75 -74.85 -81.65 -75.8 L-81.65 -76.25 -77.9 -76.15 Q-76.6 -75.15 -75.15 -74.25 -72.5 -72.55 -70.1 -70.55 L-71.4 -72.15 -80.25 -80.55 Q-82.65 -82.75 -85.6 -82.45 L-85.65 -82.35 -85.6 -81.85 -85.55 -81.8 -85.35 -81.3 -85.05 -80.55 -85.05 -80.45 -85.05 -80.4 -85.1 -80.2 -85.15 -80.1 -85.3 -79.9 -85.3 -79.8 -85.4 -79.65 -85.5 -79.55 -85.6 -79.45 Q-88.15 -79.45 -90.3 -81.05 L-97.95 -86.65 Q-102.2 -89.75 -107.2 -91.75 L-115.8 -94.8 Q-122.05 -96.8 -128.5 -97.7 -135.8 -98.7 -143.0 -97.4 -145.3 -97.0 -147.4 -96.1 -142.4 -94.0 -137.0 -93.65 L-134.75 -93.45 -124.0 -91.45 Q-119.05 -90.25 -114.7 -87.75 L-114.1 -87.05 -114.05 -86.65 -116.55 -84.65 Q-113.75 -83.1 -111.45 -80.85 L-109.35 -79.5 Q-103.5 -77.2 -97.35 -76.05 -99.55 -78.25 -102.25 -79.7 -103.65 -80.4 -103.95 -81.85 -104.15 -82.95 -102.95 -83.2 M-75.35 -58.95 L-78.6 -61.0 Q-84.85 -64.9 -92.0 -66.95 -99.85 -69.15 -107.8 -69.75 L-107.85 -69.75 -95.4 -64.55 Q-92.05 -63.2 -89.15 -61.15 -88.6 -60.75 -89.1 -60.2 -90.25 -59.0 -92.1 -59.05 L-96.0 -58.55 Q-89.4 -56.05 -82.6 -53.7 -78.8 -52.35 -75.2 -50.6 -72.65 -49.4 -70.4 -47.65 -69.05 -46.6 -67.35 -45.95 L-67.25 -45.9 -67.3 -46.0 Q-70.85 -49.35 -74.9 -52.05 L-78.6 -54.75 Q-79.95 -55.85 -80.55 -57.4 -81.2 -59.0 -79.4 -59.4 -77.4 -59.45 -75.65 -58.6 L-75.6 -58.6 -74.35 -58.25 -75.35 -58.95 M-108.65 -70.65 L-108.65 -70.7 -106.85 -70.6 Q-99.75 -70.05 -92.8 -68.15 -85.55 -66.15 -79.1 -62.5 -75.1 -60.25 -71.65 -57.3 L-70.95 -56.7 -70.6 -56.4 -70.6 -56.3 -70.8 -56.0 -71.05 -55.95 -71.65 -56.35 Q-72.85 -56.45 -74.15 -57.05 L-76.3 -58.05 Q-78.1 -58.55 -79.85 -58.1 L-79.85 -58.05 -79.9 -57.95 -79.85 -57.8 -79.8 -57.7 -79.8 -57.5 Q-78.95 -56.2 -77.65 -55.35 L-76.05 -54.2 Q-74.45 -52.45 -72.25 -51.2 -71.5 -50.8 -70.9 -50.25 -70.35 -49.75 -69.7 -49.35 L-67.0 -47.2 Q-66.0 -45.85 -64.55 -44.95 -63.5 -44.3 -63.3 -43.2 -64.3 -43.05 -65.25 -43.9 -66.85 -44.55 -68.45 -45.45 L-70.35 -46.45 -70.45 -46.55 -70.75 -47.05 -70.95 -47.3 Q-76.65 -50.4 -82.6 -52.65 -88.1 -54.7 -93.7 -56.35 -95.55 -56.9 -96.95 -58.05 -96.75 -60.2 -94.05 -60.1 -91.7 -60.0 -89.8 -60.7 -96.05 -64.0 -102.65 -66.65 L-106.6 -68.05 Q-108.2 -68.55 -109.1 -69.8 L-109.2 -70.3 -109.15 -70.4 -108.65 -70.65 M-92.8 -43.9 Q-85.4 -42.9 -78.15 -41.35 L-76.8 -41.05 Q-74.2 -39.05 -70.9 -38.35 -68.05 -37.7 -65.9 -36.15 L-65.95 -36.05 -66.05 -35.85 -66.15 -35.75 -78.3 -38.25 -81.8 -38.5 Q-88.3 -38.1 -93.95 -41.1 -94.9 -41.6 -95.25 -42.65 L-95.25 -42.7 -95.15 -43.0 -95.0 -43.2 -94.95 -43.3 -93.55 -43.65 -92.8 -43.9 M-93.9 -42.55 L-94.1 -42.45 -94.0 -42.35 Q-88.55 -38.9 -81.75 -39.35 -78.35 -39.55 -75.05 -38.65 -75.65 -39.15 -77.0 -39.75 -78.95 -40.65 -81.05 -41.0 L-92.85 -42.9 -93.9 -42.55 M-6.4 -93.45 Q-8.35 -92.55 -9.25 -90.55 L-9.3 -90.45 -10.6 -83.1 Q-10.7 -82.45 -10.95 -81.85 -7.75 -84.75 -7.3 -88.95 L-7.25 -89.2 Q-6.6 -90.5 -6.25 -91.95 L-6.05 -92.85 -6.15 -93.15 -6.3 -93.4 -6.4 -93.45 M-5.25 -91.3 L-7.45 -85.05 Q-7.65 -84.45 -8.0 -83.9 -9.75 -81.4 -11.8 -79.45 L-12.25 -79.6 -12.35 -79.7 Q-12.1 -82.2 -11.35 -84.65 L-11.05 -86.35 Q-11.0 -89.9 -9.05 -92.75 -8.05 -94.2 -6.3 -94.5 -4.4 -93.55 -5.25 -91.3 M-39.25 -35.4 L-39.3 -35.6 Q-42.55 -38.3 -43.45 -42.2 -44.1 -44.95 -43.15 -47.65 -41.15 -53.35 -34.9 -52.45 -32.2 -51.15 -29.35 -52.35 -28.8 -55.4 -30.65 -58.2 L-31.5 -59.75 Q-34.0 -65.35 -36.85 -70.7 L-40.95 -76.3 -41.05 -76.4 Q-44.05 -82.55 -44.25 -89.45 -44.3 -91.8 -43.35 -94.0 -42.45 -96.2 -43.8 -97.95 L-44.45 -98.5 -45.15 -98.35 -45.4 -98.3 -45.65 -97.95 -45.75 -97.8 Q-47.45 -93.9 -46.5 -89.5 -46.1 -87.7 -46.25 -85.9 -46.75 -78.8 -43.4 -72.7 L-43.35 -72.75 Q-42.9 -72.55 -43.1 -72.15 L-42.85 -71.75 -42.5 -71.2 Q-39.45 -66.8 -38.8 -61.5 -38.4 -57.9 -41.8 -56.5 -43.75 -55.7 -45.15 -54.2 L-45.75 -53.35 Q-49.4 -48.8 -46.75 -43.4 -45.3 -40.45 -42.85 -38.25 L-39.35 -35.25 -39.0 -34.95 -39.25 -35.4 M-7.55 -64.6 L-7.85 -63.95 -7.85 -63.85 -7.5 -64.6 -7.55 -64.6 M-46.3 -21.55 L-46.8 -21.5 -47.9 -21.2 -46.6 -21.45 -46.3 -21.55 M-38.95 -26.6 L-38.8 -26.7 -34.7 -21.75 -33.9 -21.3 Q-30.95 -19.45 -32.45 -16.65 L-32.6 -16.45 Q-36.8 -16.85 -38.25 -20.9 -38.5 -21.55 -38.35 -22.35 -38.0 -24.05 -38.8 -25.6 L-38.95 -25.7 -39.05 -25.8 -39.05 -25.95 -38.95 -26.15 Q-39.15 -26.4 -38.95 -26.6 M-36.6 -19.45 Q-35.35 -18.15 -33.7 -17.4 L-32.85 -17.55 Q-32.65 -19.05 -33.8 -20.05 -36.25 -21.05 -37.35 -23.1 -37.2 -22.2 -37.55 -21.35 L-37.55 -21.25 -37.05 -20.05 -36.6 -19.45" fill="#389cff" fill-rule="evenodd" stroke="none"/>
      <path d="M111.55 -102.55 L111.6 -102.4 111.7 -102.15 111.75 -102.05 111.85 -101.95 111.85 -101.85 111.8 -101.75 111.75 -101.6 111.7 -101.5 111.7 -101.4 111.65 -101.3 Q109.1 -99.4 105.85 -98.7 97.3 -96.8 89.25 -93.15 86.8 -92.05 86.0 -89.85 L86.3 -89.55 Q86.8 -89.2 87.45 -89.2 L87.95 -89.1 Q89.1 -87.6 87.1 -86.6 83.45 -84.8 80.1 -82.45 L77.85 -81.0 Q72.65 -78.0 67.7 -74.65 L71.3 -78.8 Q73.6 -81.25 76.45 -83.0 79.85 -85.15 78.45 -88.7 L78.35 -88.75 Q77.1 -89.6 75.6 -89.35 70.45 -87.95 65.8 -85.15 L64.5 -84.2 Q61.45 -81.7 58.2 -79.55 56.8 -78.65 55.3 -77.9 52.2 -76.35 49.6 -74.15 L55.3 -80.9 Q57.4 -83.25 60.05 -84.9 L75.35 -94.3 Q81.25 -97.9 88.15 -98.85 93.4 -99.55 98.4 -101.25 104.9 -103.45 111.55 -102.55 M8.05 -94.3 Q8.1 -94.9 8.55 -95.25 L8.6 -95.35 9.35 -96.75 Q12.55 -101.45 16.75 -105.45 22.25 -110.65 28.6 -114.65 L28.65 -114.7 31.55 -115.15 31.7 -114.95 31.85 -114.7 31.9 -114.6 31.55 -113.9 Q30.8 -112.75 29.65 -112.05 23.55 -108.25 19.25 -102.5 L16.7 -97.9 Q14.35 -93.4 13.05 -88.6 L12.9 -88.5 12.8 -88.45 12.75 -88.35 11.55 -84.25 Q10.45 -80.85 8.9 -77.65 L8.4 -77.9 Q9.0 -80.6 7.55 -82.85 L5.65 -83.05 5.6 -83.05 5.6 -83.0 Q4.6 -82.75 4.2 -81.55 L1.55 -78.35 Q-0.1 -76.1 -0.35 -73.3 -0.95 -66.95 -3.1 -61.0 -2.8 -63.9 -2.95 -66.8 -3.35 -67.55 -4.1 -67.95 -5.8 -67.7 -6.7 -66.25 L-6.9 -66.3 -4.5 -72.35 Q-2.1 -78.5 0.85 -84.4 L1.15 -85.15 2.85 -86.8 Q5.05 -86.2 6.5 -87.95 8.8 -90.7 8.3 -93.95 L8.05 -94.3 M47.65 -40.6 L51.5 -46.15 Q55.9 -51.9 61.5 -56.85 L70.3 -64.3 Q69.4 -63.15 68.95 -61.8 68.85 -61.45 69.1 -61.3 71.4 -59.3 74.3 -61.15 80.55 -65.15 87.55 -67.35 85.95 -66.4 84.55 -65.15 L79.3 -61.0 75.6 -57.9 Q71.1 -53.5 66.25 -49.5 63.3 -47.0 60.45 -45.0 L60.7 -46.05 Q62.0 -49.1 59.05 -50.25 L56.95 -49.0 53.95 -46.55 Q50.85 -43.65 48.1 -40.35 L47.65 -40.6 M32.25 -79.0 L32.4 -78.95 Q32.05 -77.4 32.0 -75.7 31.8 -68.0 27.7 -61.55 L27.7 -61.35 Q27.35 -60.6 27.3 -59.85 27.15 -56.4 24.9 -53.95 23.35 -54.15 22.1 -53.25 L20.4 -51.8 Q18.6 -50.05 17.3 -47.9 16.45 -46.45 15.9 -44.95 L16.75 -48.5 17.25 -50.3 Q18.2 -56.2 21.3 -61.2 22.0 -61.9 22.85 -61.85 L23.2 -61.35 Q23.7 -61.2 24.15 -61.35 L25.5 -62.8 Q28.05 -67.25 30.05 -72.05 31.5 -75.4 32.25 -79.0 M8.75 -13.8 L10.2 -14.1 18.1 -15.85 18.45 -15.4 18.2 -15.0 Q18.1 -14.5 18.4 -14.1 20.05 -11.9 23.15 -12.1 L24.9 -12.15 Q30.0 -12.1 33.6 -15.4 L33.9 -15.4 34.4 -15.15 34.5 -14.95 34.7 -14.2 34.75 -14.1 35.15 -13.45 Q39.95 -10.6 45.35 -10.55 L45.45 -10.45 45.7 -10.25 45.75 -9.95 45.75 -9.8 45.75 -9.6 Q46.2 -9.0 46.95 -9.05 53.35 -9.5 59.05 -12.4 61.9 -13.85 59.9 -16.05 L60.55 -16.35 Q61.5 -16.8 61.45 -17.85 61.35 -19.25 60.05 -19.7 57.25 -20.75 54.4 -21.4 L57.7 -21.35 59.6 -21.25 Q63.95 -20.85 65.7 -17.3 L65.0 -16.15 64.45 -15.6 64.15 -15.2 64.15 -15.1 64.1 -14.95 64.1 -14.85 63.9 -14.65 63.8 -14.55 63.7 -14.3 63.7 -14.2 63.25 -14.05 63.15 -14.0 62.9 -13.75 Q62.65 -13.45 62.7 -13.05 L62.7 -12.85 62.75 -12.6 62.8 -12.5 63.1 -12.2 63.2 -12.1 65.35 -12.1 Q66.55 -12.2 67.4 -12.95 68.3 -13.05 69.0 -13.6 69.85 -14.25 70.3 -15.15 L70.65 -16.5 Q71.15 -16.0 71.0 -15.35 L70.85 -14.1 70.95 -13.35 70.75 -12.6 Q67.6 -10.85 64.05 -9.65 58.75 -7.9 53.2 -6.85 L32.4 -3.5 30.05 -3.4 Q24.3 -3.65 18.65 -3.4 L14.85 -3.0 5.5 -2.95 5.05 -3.05 -2.8 -3.3 -2.9 -3.35 Q-6.1 -4.4 -8.7 -2.95 L-8.8 -2.65 Q-8.8 -2.0 -8.25 -1.6 L-3.65 -1.1 -14.35 -0.35 Q-30.65 -0.65 -46.5 -3.25 -44.6 -3.0 -43.9 -4.35 -44.05 -4.95 -44.7 -5.05 L-58.05 -6.55 -60.25 -6.75 Q-64.15 -7.15 -68.0 -8.45 -69.5 -8.95 -70.75 -9.75 -72.1 -10.6 -73.05 -11.85 L-73.1 -12.95 Q-72.1 -16.85 -67.65 -17.05 -66.4 -17.1 -65.4 -17.7 -62.85 -19.25 -59.85 -19.6 L-56.4 -20.25 Q-52.4 -21.3 -48.8 -21.0 -52.45 -20.55 -55.95 -19.45 L-60.45 -17.85 Q-62.75 -16.9 -64.4 -15.15 -65.0 -14.45 -64.55 -13.65 -63.0 -10.9 -59.3 -11.5 L-54.65 -12.5 Q-51.5 -13.3 -48.8 -11.7 -46.5 -10.3 -43.8 -9.7 L-38.3 -8.3 -35.35 -7.45 Q-25.5 -4.55 -15.15 -5.25 L-13.35 -5.75 -13.05 -5.85 -12.8 -6.05 -12.7 -6.1 -12.65 -6.1 -12.5 -6.3 -12.45 -6.35 -12.4 -6.45 -12.4 -6.55 -12.6 -6.9 -12.85 -7.15 Q-16.55 -10.15 -21.6 -10.95 L-25.8 -11.65 Q-28.0 -12.1 -28.1 -13.9 -23.2 -15.1 -22.55 -19.9 L-22.1 -20.05 Q-19.9 -19.85 -18.7 -21.35 -17.15 -24.05 -17.85 -27.15 -18.45 -29.8 -18.6 -32.6 -18.7 -33.95 -19.25 -35.2 -20.45 -37.7 -19.15 -39.7 L-18.2 -39.65 Q-17.55 -38.65 -16.6 -38.0 -12.5 -37.8 -11.8 -41.9 L-11.75 -42.0 Q-11.1 -43.55 -11.05 -45.05 -9.3 -40.6 -9.25 -35.8 -9.9 -34.6 -11.2 -34.9 -11.8 -36.4 -13.25 -36.8 -14.0 -37.05 -14.7 -36.8 -17.65 -35.8 -17.15 -32.75 L-15.1 -20.7 Q-14.05 -14.35 -7.65 -13.0 -6.35 -12.75 -5.45 -13.6 -3.6 -15.4 -1.3 -16.4 L0.75 -16.35 Q2.4 -15.4 4.15 -14.7 6.2 -13.45 8.75 -13.8 M166.0 -86.55 L156.35 -85.35 138.45 -83.35 Q135.55 -82.9 133.45 -81.05 L133.4 -80.95 133.4 -80.9 133.4 -80.8 133.4 -80.6 Q133.35 -80.45 133.45 -80.3 L133.5 -80.2 137.0 -79.75 137.05 -79.7 137.0 -79.6 136.95 -79.5 136.85 -79.3 136.8 -79.2 135.8 -78.75 130.9 -77.0 Q123.5 -74.7 116.2 -72.0 112.6 -70.7 109.2 -68.95 L101.2 -64.55 99.45 -63.45 Q96.15 -61.0 93.1 -58.4 L93.05 -58.35 Q96.4 -62.7 100.7 -66.3 L101.65 -66.95 109.85 -71.7 110.7 -72.95 Q111.2 -73.8 111.05 -74.8 109.25 -76.1 107.25 -75.95 L107.25 -76.25 Q113.5 -80.0 120.45 -82.15 L130.55 -85.25 Q133.95 -86.3 137.45 -86.95 147.2 -88.75 157.05 -88.35 161.7 -88.15 166.1 -87.0 L166.0 -86.55 M-126.4 -66.2 L-126.25 -66.05 Q-126.45 -64.9 -127.0 -63.8 L-127.15 -62.9 Q-126.4 -59.5 -123.05 -57.65 L-117.55 -54.6 -114.6 -53.05 -122.5 -55.3 Q-124.85 -56.0 -126.9 -57.2 L-133.7 -61.0 Q-133.5 -61.35 -133.45 -61.75 L-133.45 -62.3 Q-134.1 -63.2 -135.1 -63.55 -139.5 -65.3 -144.25 -65.65 L-153.3 -66.35 Q-155.5 -66.55 -157.1 -67.55 -153.2 -69.55 -148.55 -69.75 L-147.0 -69.8 Q-143.65 -70.0 -143.8 -73.15 L-143.95 -73.45 Q-146.9 -75.45 -150.55 -76.0 L-161.1 -77.1 -165.05 -77.3 -186.7 -78.2 -184.85 -78.65 -183.75 -78.85 -181.75 -79.35 Q-167.75 -80.85 -153.9 -78.85 L-140.05 -76.2 Q-136.45 -75.3 -133.35 -73.55 L-133.9 -73.2 -134.95 -72.55 -135.25 -72.15 -135.3 -72.05 -135.5 -71.8 -135.4 -70.95 Q-134.45 -68.05 -131.05 -67.45 L-126.55 -66.35 -126.4 -66.2 M-57.15 -91.5 L-58.6 -93.2 Q-59.6 -94.6 -61.1 -95.3 L-62.65 -96.4 Q-65.9 -99.6 -68.05 -103.65 L-68.5 -105.2 Q-68.7 -108.85 -69.95 -112.15 L-70.0 -112.5 Q-70.3 -113.55 -70.05 -114.6 L-69.95 -114.7 -69.15 -115.7 -68.85 -115.6 -68.6 -114.45 -67.85 -113.35 Q-65.9 -107.4 -61.95 -102.4 L-61.0 -100.95 Q-58.7 -96.45 -57.05 -91.6 L-57.15 -91.5 M-67.35 -45.95 Q-69.05 -46.6 -70.4 -47.65 -72.65 -49.4 -75.2 -50.6 -78.8 -52.35 -82.6 -53.7 -89.4 -56.05 -96.0 -58.55 L-92.1 -59.05 Q-90.25 -59.0 -89.1 -60.2 -88.6 -60.75 -89.15 -61.15 -92.05 -63.2 -95.4 -64.55 L-107.85 -69.75 -107.8 -69.75 Q-99.85 -69.15 -92.0 -66.95 -84.85 -64.9 -78.6 -61.0 L-75.35 -58.95 -75.6 -58.6 -75.65 -58.6 Q-77.4 -59.45 -79.4 -59.4 -81.2 -59.0 -80.55 -57.4 -79.95 -55.85 -78.6 -54.75 L-74.9 -52.05 Q-70.85 -49.35 -67.3 -46.0 L-67.35 -45.95 M-102.95 -83.2 Q-104.15 -82.95 -103.95 -81.85 -103.65 -80.4 -102.25 -79.7 -99.55 -78.25 -97.35 -76.05 -103.5 -77.2 -109.35 -79.5 L-111.45 -80.85 Q-113.75 -83.1 -116.55 -84.65 L-114.05 -86.65 -114.1 -87.05 -114.7 -87.75 Q-119.05 -90.25 -124.0 -91.45 L-134.75 -93.45 -137.0 -93.65 Q-142.4 -94.0 -147.4 -96.1 -145.3 -97.0 -143.0 -97.4 -135.8 -98.7 -128.5 -97.7 -122.05 -96.8 -115.8 -94.8 L-107.2 -91.75 Q-102.2 -89.75 -97.95 -86.65 L-90.3 -81.05 Q-88.15 -79.45 -85.6 -79.45 L-85.5 -79.55 -85.4 -79.65 -85.3 -79.8 -85.3 -79.9 -85.15 -80.1 -85.1 -80.2 -85.05 -80.4 -85.05 -80.45 -85.05 -80.55 -85.35 -81.3 -85.55 -81.8 -85.6 -81.85 -85.65 -82.35 -85.6 -82.45 Q-82.65 -82.75 -80.25 -80.55 L-71.4 -72.15 -70.1 -70.55 Q-72.5 -72.55 -75.15 -74.25 -76.6 -75.15 -77.9 -76.15 L-81.65 -76.25 -81.65 -75.8 Q-81.75 -74.85 -80.95 -74.3 L-83.05 -74.9 -84.6 -75.65 Q-91.4 -78.6 -97.75 -82.35 -100.2 -83.8 -102.95 -83.2 M-94.0 -42.35 L-93.9 -42.55 -92.85 -42.9 -81.05 -41.0 Q-78.95 -40.65 -77.0 -39.75 -75.65 -39.15 -75.05 -38.65 -78.35 -39.55 -81.75 -39.35 -88.55 -38.9 -94.0 -42.35 M-6.15 -93.15 L-6.05 -92.85 -6.25 -91.95 Q-6.6 -90.5 -7.25 -89.2 L-7.3 -88.95 Q-7.75 -84.75 -10.95 -81.85 -10.7 -82.45 -10.6 -83.1 L-9.3 -90.45 -9.25 -90.55 Q-8.35 -92.55 -6.4 -93.45 L-6.15 -93.15 M-39.35 -35.25 L-42.85 -38.25 Q-45.3 -40.45 -46.75 -43.4 -49.4 -48.8 -45.75 -53.35 L-45.15 -54.2 Q-43.75 -55.7 -41.8 -56.5 -38.4 -57.9 -38.8 -61.5 -39.45 -66.8 -42.5 -71.2 L-42.85 -71.75 -43.1 -72.15 Q-42.9 -72.55 -43.35 -72.75 L-43.4 -72.7 Q-46.75 -78.8 -46.25 -85.9 -46.1 -87.7 -46.5 -89.5 -47.45 -93.9 -45.75 -97.8 L-45.65 -97.95 -45.4 -98.3 -45.15 -98.35 -44.45 -98.5 -43.8 -97.95 Q-42.45 -96.2 -43.35 -94.0 -44.3 -91.8 -44.25 -89.45 -44.05 -82.55 -41.05 -76.4 L-40.95 -76.3 -36.85 -70.7 Q-34.0 -65.35 -31.5 -59.75 L-30.65 -58.2 Q-28.8 -55.4 -29.35 -52.35 -32.2 -51.15 -34.9 -52.45 -41.15 -53.35 -43.15 -47.65 -44.1 -44.95 -43.45 -42.2 -42.55 -38.3 -39.3 -35.6 L-39.25 -35.4 -39.35 -35.25 M-36.6 -19.45 L-37.05 -20.05 -37.55 -21.25 -37.55 -21.35 Q-37.2 -22.2 -37.35 -23.1 -36.25 -21.05 -33.8 -20.05 -32.65 -19.05 -32.85 -17.55 L-33.7 -17.4 Q-35.35 -18.15 -36.6 -19.45" fill="#dfefff" fill-rule="evenodd" stroke="none"/>
    </g>
  </defs>
</svg>
