<?xml version="1.0" encoding="UTF-8" standalone="no"?>
<svg xmlns:xlink="http://www.w3.org/1999/xlink" height="33.25px" width="57.6px" xmlns="http://www.w3.org/2000/svg">
  <g transform="matrix(1.0, 0.0, 0.0, 1.0, 25.7, 16.9)">
    <use height="22.55" transform="matrix(0.8528, -0.1173, 0.0, 1.1239, -25.6835, -9.0066)" width="67.5" xlink:href="#text0"/>
  </g>
  <defs>
    <g id="text0" transform="matrix(1.0, 0.0, 0.0, 1.0, 2.15, -2.35)">
      <g transform="matrix(1.0, 0.0, 0.0, 1.0, -2.05, 0.0)">
        <use fill="#3333ff" height="22.55" transform="matrix(0.2344, 0.0, 0.0, 0.2344, 11.3, 12.5)" width="67.5" xlink:href="#font_ComicBook_Bold_P0"/>
        <use fill="#3333ff" height="22.55" transform="matrix(0.2344, 0.0, 0.0, 0.2344, 20.6, 12.5)" width="67.5" xlink:href="#font_ComicBook_Bold_L0"/>
        <use fill="#3333ff" height="22.55" transform="matrix(0.2344, 0.0, 0.0, 0.2344, 28.4, 12.5)" width="67.5" xlink:href="#font_ComicBook_Bold_A0"/>
        <use fill="#3333ff" height="22.55" transform="matrix(0.2344, 0.0, 0.0, 0.2344, 39.15, 12.5)" width="67.5" xlink:href="#font_ComicBook_Bold_Y0"/>
      </g>
      <g transform="matrix(1.0, 0.0, 0.0, 1.0, -2.05, 0.0)">
        <use fill="#3333ff" height="22.55" transform="matrix(0.2344, 0.0, 0.0, 0.2344, 0.1, 24.35)" width="67.5" xlink:href="#font_ComicBook_Bold_P0"/>
        <use fill="#3333ff" height="22.55" transform="matrix(0.2344, 0.0, 0.0, 0.2344, 9.4, 24.35)" width="67.5" xlink:href="#font_ComicBook_Bold_U0"/>
        <use fill="#3333ff" height="22.55" transform="matrix(0.2344, 0.0, 0.0, 0.2344, 20.25, 24.35)" width="67.5" xlink:href="#font_ComicBook_Bold_Z0"/>
        <use fill="#3333ff" height="22.55" transform="matrix(0.2344, 0.0, 0.0, 0.2344, 31.6, 24.35)" width="67.5" xlink:href="#font_ComicBook_Bold_Z0"/>
        <use fill="#3333ff" height="22.55" transform="matrix(0.2344, 0.0, 0.0, 0.2344, 42.95, 24.35)" width="67.5" xlink:href="#font_ComicBook_Bold_L0"/>
        <use fill="#3333ff" height="22.55" transform="matrix(0.2344, 0.0, 0.0, 0.2344, 50.75, 24.35)" width="67.5" xlink:href="#font_ComicBook_Bold_E0"/>
      </g>
    </g>
    <g id="font_ComicBook_Bold_P0">
      <path d="M24.8 -28.75 L24.95 -29.05 Q24.95 -29.7 22.35 -30.15 L18.9 -30.4 16.8 -30.35 Q14.55 -30.2 11.5 -29.15 L11.5 -22.45 Q16.25 -23.55 19.9 -24.95 24.85 -26.95 24.85 -28.45 L24.8 -28.75 M32.25 -39.95 Q34.85 -38.55 36.2 -36.1 37.5 -33.7 37.5 -30.2 37.4 -25.15 33.2 -20.9 30.8 -18.4 24.75 -14.3 L24.8 -14.3 Q20.2 -11.5 13.3 -11.5 L10.85 -11.75 11.0 -9.0 11.15 -5.7 Q11.15 -2.6 10.0 -0.7 8.55 1.95 5.6 1.95 2.9 1.95 1.0 0.05 -0.85 -1.85 -0.85 -4.4 L-0.85 -4.45 Q-0.85 -6.6 -0.45 -9.7 L-0.05 -14.2 -0.15 -18.55 -0.25 -22.55 -0.1 -24.85 0.1 -27.1 0.45 -30.45 0.85 -33.65 Q1.25 -37.05 3.1 -39.0 4.2 -39.7 6.2 -40.3 L11.2 -41.4 17.5 -42.15 21.2 -42.3 Q28.15 -42.3 32.25 -39.95" fill-rule="evenodd" stroke="none"/>
    </g>
    <g id="font_ComicBook_Bold_L0">
      <path d="M12.0 -36.85 L12.0 -36.8 Q12.35 -34.7 12.35 -31.9 12.35 -27.45 11.5 -21.6 L11.3 -12.05 Q11.3 -11.0 11.95 -11.0 12.45 -11.0 16.1 -13.25 19.75 -15.55 22.05 -15.55 L26.4 -15.1 Q29.6 -13.95 29.6 -10.25 L29.6 -10.2 Q29.6 -8.5 28.95 -7.2 28.25 -5.9 26.85 -5.0 25.45 -4.1 23.25 -3.45 L23.35 -3.5 17.8 -2.15 12.85 -1.0 12.9 -1.0 9.4 0.75 Q7.0 2.05 4.7 2.25 L2.1 1.8 Q1.15 1.35 0.5 0.3 -0.5 -1.35 -0.5 -3.4 -0.5 -6.55 0.1 -12.15 0.7 -18.0 0.7 -21.05 L0.5 -28.55 0.4 -36.5 Q0.45 -38.9 2.35 -41.1 4.15 -43.3 7.0 -43.3 11.0 -42.8 12.0 -36.85" fill-rule="evenodd" stroke="none"/>
    </g>
    <g id="font_ComicBook_Bold_A0">
      <path d="M29.25 -31.3 Q33.05 -26.95 35.25 -23.05 L37.0 -19.45 40.05 -12.6 40.9 -11.1 41.75 -9.65 Q42.8 -7.9 42.8 -5.65 L43.05 -4.8 Q43.05 -2.55 40.35 -0.45 38.4 1.05 36.6 1.05 L34.85 0.65 Q31.55 -0.9 30.15 -7.75 29.4 -8.45 27.7 -8.45 L25.7 -8.2 20.4 -7.4 Q17.45 -7.05 13.6 -5.7 10.2 -4.5 10.2 -4.05 L10.2 -4.15 10.15 -1.5 10.05 -1.15 10.0 -0.85 Q8.35 2.9 5.05 2.9 2.1 2.9 0.1 0.9 -1.35 -1.0 -1.35 -3.25 -1.35 -5.55 0.35 -8.45 L2.6 -12.5 5.9 -19.7 8.0 -24.25 9.4 -27.25 10.5 -29.55 Q16.4 -41.4 18.25 -41.4 20.9 -41.05 22.85 -39.4 24.3 -38.25 26.05 -35.75 L27.9 -33.15 29.25 -31.3 M21.05 -26.5 L21.3 -26.65 21.25 -26.75 20.75 -26.9 21.05 -26.5 20.85 -26.45 Q18.25 -23.0 17.1 -20.6 L15.8 -17.5 15.85 -17.5 17.7 -17.7 19.95 -17.85 25.4 -18.95 24.05 -21.55 22.05 -24.95 21.25 -26.15 21.05 -26.5" fill-rule="evenodd" stroke="none"/>
    </g>
    <g id="font_ComicBook_Bold_Y0">
      <path d="M32.4 -40.85 Q34.5 -40.6 36.1 -39.2 37.7 -37.85 37.7 -36.0 37.7 -34.7 36.95 -33.45 L37.0 -33.45 34.45 -30.1 31.55 -26.2 27.4 -20.7 23.9 -15.95 23.15 -14.75 21.8 -12.4 19.55 -8.5 16.95 -4.5 13.9 -0.95 13.85 -0.9 13.05 -0.05 12.05 1.05 Q10.7 2.15 8.4 2.15 6.5 1.75 5.3 0.6 3.9 -0.8 3.9 -2.8 L3.95 -3.55 Q4.7 -6.4 6.6 -8.9 L9.85 -12.7 Q11.65 -14.55 12.2 -16.0 L12.2 -17.0 Q1.55 -30.25 -1.0 -36.05 L-1.15 -37.5 Q-1.15 -40.2 1.4 -41.3 L5.8 -42.3 Q9.25 -42.3 11.05 -39.6 L13.4 -35.6 13.4 -35.5 16.6 -30.0 17.7 -27.15 17.95 -26.65 18.1 -26.45 18.1 -26.5 18.15 -26.55 21.2 -29.9 24.65 -34.8 25.85 -36.55 27.2 -38.45 Q29.1 -40.85 32.35 -40.85 L32.4 -40.85" fill-rule="evenodd" stroke="none"/>
    </g>
    <g id="font_ComicBook_Bold_U0">
      <path d="M36.55 -41.95 Q41.0 -40.5 41.0 -36.9 L40.95 -36.0 Q38.85 -27.7 38.4 -21.95 L38.15 -15.6 Q38.15 -9.9 40.55 -4.8 L41.0 -2.45 Q41.0 -1.05 40.25 -0.15 39.5 0.7 37.95 1.1 L34.1 1.4 Q31.9 1.4 27.85 -0.15 21.4 2.45 17.05 2.45 -0.35 1.85 -0.6 -9.2 -0.6 -14.15 0.65 -19.5 L2.65 -28.8 Q2.65 -31.95 2.9 -34.9 L2.95 -35.0 Q3.3 -37.35 5.25 -38.75 7.05 -40.05 9.35 -40.05 12.65 -39.85 14.1 -37.1 L15.3 -32.75 15.65 -30.45 Q15.65 -28.75 14.6 -26.35 13.6 -23.8 13.5 -23.0 L11.15 -10.25 Q12.45 -9.6 13.8 -9.6 L18.0 -10.4 Q21.6 -10.6 24.25 -11.75 26.6 -12.75 26.6 -14.15 L26.85 -16.5 27.3 -20.8 28.05 -27.8 28.75 -34.3 Q29.05 -37.1 30.25 -39.15 32.0 -42.05 35.35 -42.05 L36.55 -41.95" fill-rule="evenodd" stroke="none"/>
    </g>
    <g id="font_ComicBook_Bold_Z0">
      <path d="M25.95 -30.35 L17.95 -29.9 10.55 -29.05 7.25 -29.45 4.9 -30.7 Q3.0 -32.2 2.95 -34.2 L2.95 -34.3 3.25 -36.45 Q3.6 -37.4 4.3 -38.15 6.0 -39.85 8.75 -40.05 L39.05 -41.9 Q41.7 -41.9 43.45 -39.5 45.1 -37.15 45.1 -34.05 45.1 -31.95 43.6 -30.55 42.7 -29.75 40.05 -28.35 L36.15 -25.9 Q20.05 -11.0 20.05 -10.7 L25.85 -11.4 32.75 -12.1 32.85 -12.1 39.95 -11.5 Q44.6 -10.2 44.6 -6.4 L44.5 -5.3 44.5 -5.2 Q44.5 -2.55 42.1 -0.75 39.8 0.9 36.85 1.05 L28.4 0.75 20.55 0.15 Q15.0 0.15 13.15 0.3 L4.5 1.65 Q1.25 1.65 0.05 -0.35 -0.75 -1.7 -0.75 -4.65 -0.75 -6.95 1.5 -9.2 2.35 -10.1 5.05 -12.15 L18.25 -22.75 Q26.05 -29.3 26.05 -30.25 L25.95 -30.35" fill-rule="evenodd" stroke="none"/>
    </g>
    <g id="font_ComicBook_Bold_E0">
      <path d="M32.95 -26.3 Q35.0 -24.7 35.15 -22.0 35.15 -19.85 34.05 -18.3 32.7 -16.2 30.0 -15.95 26.8 -15.8 24.05 -15.05 L17.4 -13.2 17.35 -13.2 12.6 -12.65 10.15 -12.4 10.15 -9.75 10.15 -9.45 11.7 -9.25 Q13.35 -9.25 19.2 -11.1 25.15 -12.95 28.75 -12.95 31.0 -12.95 32.7 -11.7 34.4 -10.45 34.6 -8.3 34.6 -6.65 34.25 -5.6 33.85 -4.55 33.0 -3.65 31.15 -1.85 28.55 -1.55 L23.95 -0.85 18.8 0.25 13.05 1.45 8.35 2.1 7.35 2.15 Q4.85 2.15 2.95 1.2 -0.05 -0.3 -0.45 -3.75 L-0.45 -3.65 -0.7 -6.7 Q-0.7 -8.9 -0.05 -12.2 0.7 -16.1 0.7 -17.5 L0.75 -21.85 0.65 -24.85 0.6 -26.0 Q0.6 -29.6 1.4 -32.35 2.8 -36.6 7.3 -38.2 L7.25 -38.1 Q9.9 -39.2 12.55 -39.45 L15.4 -39.7 17.4 -39.9 23.9 -41.25 31.3 -42.0 Q35.25 -41.95 36.2 -37.15 L36.2 -37.05 36.25 -36.2 Q36.25 -33.75 34.55 -32.15 32.95 -30.6 30.35 -30.55 L19.15 -29.85 Q15.6 -29.85 13.0 -28.65 11.95 -28.25 11.25 -26.7 10.65 -25.5 10.65 -24.4 L10.65 -24.3 12.4 -24.5 Q14.5 -24.65 19.85 -26.25 24.6 -27.75 28.6 -27.75 31.2 -27.75 32.95 -26.3" fill-rule="evenodd" stroke="none"/>
    </g>
  </defs>
</svg>
