<?xml version="1.0" encoding="UTF-8" standalone="no"?>
<svg xmlns:xlink="http://www.w3.org/1999/xlink" height="34.35px" width="21.5px" xmlns="http://www.w3.org/2000/svg">
  <g transform="matrix(1.0, 0.0, 0.0, 1.0, 10.75, 17.1)">
    <use height="34.35" transform="matrix(1.0, 0.0, 0.0, 1.0, -10.75, -17.1)" width="21.5" xlink:href="#shape0"/>
    <use height="26.55" transform="matrix(1.0, 0.0, 0.0, 1.0, -9.7998, -10.4998)" width="19.65" xlink:href="#sprite0"/>
  </g>
  <defs>
    <g id="shape0" transform="matrix(1.0, 0.0, 0.0, 1.0, 10.75, 17.1)">
      <path d="M5.95 -10.15 Q7.85 -9.0 9.2 -6.25 11.0 -2.55 10.7 5.25 10.55 10.6 9.9 13.45 9.2 16.85 -0.3 17.2 L-5.65 17.05 -7.8 16.65 Q-9.35 15.2 -10.15 11.4 -10.65 8.9 -10.75 5.8 L-10.75 5.1 -10.7 2.75 Q-10.45 -2.95 -7.75 -6.95 -4.95 -11.05 -0.7 -11.35 L1.55 -11.5 Q3.85 -11.4 5.35 -10.45 L5.95 -10.15 M5.65 -9.15 Q4.05 -10.35 1.2 -10.5 -5.65 -10.9 -8.85 -1.8 -6.2 -6.1 -2.1 -7.65 2.65 -9.45 7.75 -6.65 L5.65 -9.15 M-9.1 2.05 L-9.2 3.0 Q-9.4 7.6 -8.55 11.15 -7.8 14.5 -6.45 15.85 L-6.85 15.9 -5.5 16.1 -0.35 16.2 Q4.55 16.05 7.55 13.25 8.85 12.05 9.25 5.0 9.55 -0.95 8.6 -4.25 L8.05 -5.65 8.05 -5.7 Q2.25 -7.75 -2.05 -6.1 -5.85 -4.65 -8.8 -0.25 L-9.1 2.05 M5.2 6.2 Q5.2 10.1 4.15 11.95 2.85 14.35 -0.4 14.45 -5.35 14.6 -6.0 7.9 L-0.35 6.6 -5.9 3.7 Q-5.1 -2.45 -0.35 -2.3 5.2 -2.15 5.2 6.2 M-0.3 -16.95 Q2.5 -17.7 3.7 -15.2 -1.55 -17.35 -5.3 -12.25 L-4.25 -14.05 Q-2.8 -16.3 -0.3 -16.95" fill="#000000" fill-rule="evenodd" stroke="none"/>
      <path d="M-9.1 2.05 L-8.85 1.7 -6.7 -0.5 -6.25 -0.85 -4.0 -2.35 -1.55 -3.75 1.4 -4.6 1.8 -4.65 Q4.7 -4.8 7.55 -4.55 L8.0 -4.4 8.6 -4.25 Q9.55 -0.95 9.25 5.0 8.85 12.05 7.55 13.25 4.55 16.05 -0.35 16.2 L-5.5 16.1 -6.85 15.9 -6.45 15.85 Q-7.8 14.5 -8.55 11.15 -9.4 7.6 -9.2 3.0 L-9.1 2.05 M5.2 6.2 Q5.2 -2.15 -0.35 -2.3 -5.1 -2.45 -5.9 3.7 L-0.35 6.6 -6.0 7.9 Q-5.35 14.6 -0.4 14.45 2.85 14.35 4.15 11.95 5.2 10.1 5.2 6.2" fill="#ffffff" fill-rule="evenodd" stroke="none"/>
      <path d="M5.65 -9.15 L7.75 -6.65 Q2.65 -9.45 -2.1 -7.65 -6.2 -6.1 -8.85 -1.8 -5.65 -10.9 1.2 -10.5 4.05 -10.35 5.65 -9.15" fill="#53b3cb" fill-rule="evenodd" stroke="none"/>
      <path d="M8.6 -4.25 L8.0 -4.4 7.55 -4.55 Q4.7 -4.8 1.8 -4.65 L1.4 -4.6 -1.55 -3.75 -4.0 -2.35 -6.25 -0.85 -6.7 -0.5 -8.85 1.7 -9.1 2.05 -8.8 -0.25 Q-5.85 -4.65 -2.05 -6.1 2.25 -7.75 8.05 -5.7 L8.05 -5.65 8.6 -4.25" fill="#cccccc" fill-rule="evenodd" stroke="none"/>
    </g>
  </defs>
</svg>
