<?xml version="1.0" encoding="UTF-8" standalone="no"?>
<svg xmlns:xlink="http://www.w3.org/1999/xlink" height="136.3px" width="147.5px" xmlns="http://www.w3.org/2000/svg">
  <g transform="matrix(1.0, 0.0, 0.0, 1.0, 93.2, 129.25)">
    <use height="97.85" transform="matrix(0.512, 0.0, 0.0, 0.512, -41.1883, -43.5872)" width="152.55" xlink:href="#sprite0"/>
    <use height="39.75" transform="matrix(1.0, 0.0, 0.0, 1.0, -6.45, -74.6)" width="35.4" xlink:href="#shape1"/>
    <use height="56.55" transform="matrix(0.5099, 0.0358, -0.0358, 0.5099, -18.5049, -103.0305)" width="89.0" xlink:href="#sprite2"/>
  </g>
  <defs>
    <g id="sprite0" transform="matrix(1.0, 0.0, 0.0, 1.0, 76.25, 19.8)">
      <use height="97.85" transform="matrix(1.0, 0.0, 0.0, 1.0, -76.25, -19.8)" width="152.55" xlink:href="#sprite1"/>
    </g>
    <g id="sprite1" transform="matrix(1.0, 0.0, 0.0, 1.0, 76.25, 48.9)">
      <use height="97.85" transform="matrix(1.0, 0.0, 0.0, 1.0, -76.25, -48.9)" width="152.55" xlink:href="#shape0"/>
    </g>
    <g id="shape0" transform="matrix(1.0, 0.0, 0.0, 1.0, 76.25, 48.9)">
      <path d="M20.85 -34.65 Q31.3 -29.1 38.8 -19.85 41.75 -16.2 46.15 -14.3 L51.7 -11.75 Q50.65 -8.0 46.85 -5.65 L44.35 -4.25 45.2 -2.5 45.25 -2.45 45.6 -1.4 45.65 -1.25 Q49.25 7.6 51.0 16.95 L51.05 16.9 51.05 16.85 Q54.2 17.6 53.9 20.55 L56.05 20.45 Q67.0 20.2 74.95 27.1 77.25 29.1 75.65 31.55 73.35 35.15 68.85 35.5 62.3 35.95 56.1 34.05 50.1 32.25 44.15 33.15 L43.15 34.05 Q42.8 34.35 42.3 34.4 36.35 37.1 33.2 31.75 32.35 30.35 33.35 29.0 34.65 27.3 36.65 26.4 38.75 25.4 40.4 23.65 L40.8 23.3 40.15 22.5 Q39.65 19.0 42.5 17.95 40.05 9.5 36.7 1.35 L35.5 -1.5 34.6 -1.4 34.6 0.4 34.5 2.1 Q34.05 11.25 31.15 19.85 L30.15 21.5 30.35 22.4 30.0 22.85 29.8 22.95 29.75 23.05 Q28.45 27.6 24.45 31.1 15.05 39.25 2.6 37.15 L2.8 42.1 2.75 42.25 Q1.95 43.35 0.9 43.65 -1.35 46.5 -5.7 47.25 L-10.55 48.05 -28.15 48.7 -34.55 47.9 Q-39.4 47.1 -43.05 43.95 L-43.05 43.15 -43.15 43.0 Q-43.45 40.0 -42.25 37.25 -41.4 35.3 -40.25 33.65 -43.9 35.5 -48.3 36.0 -56.3 36.9 -64.15 36.35 L-65.35 36.25 Q-71.1 35.55 -75.4 32.2 L-75.55 32.3 -75.9 32.2 -76.25 31.75 Q-74.75 27.85 -72.0 24.6 -67.25 19.05 -60.2 16.85 -56.35 15.65 -52.35 15.25 L-49.25 15.3 Q-48.45 4.55 -42.75 -4.65 -41.2 -7.2 -38.9 -8.9 L-38.9 -8.95 Q-37.85 -10.1 -36.5 -10.65 L-35.75 -10.95 Q-29.55 -8.15 -26.35 -2.3 L-26.05 -4.2 -25.85 -5.5 -25.4 -5.9 -25.15 -5.95 Q-21.85 -1.9 -17.45 0.55 L-17.05 -0.25 -17.1 -0.35 -17.2 -0.65 Q-16.6 -5.55 -14.35 -9.5 -17.4 -10.75 -20.0 -13.4 L-20.15 -14.0 -19.85 -14.75 Q-11.05 -17.8 -5.7 -25.7 -0.3 -33.6 8.7 -36.45 L8.2 -40.75 Q6.3 -44.3 8.6 -47.15 10.1 -49.0 12.45 -48.9 16.9 -46.9 18.55 -43.05 19.7 -40.4 19.45 -36.9 L19.4 -35.8 19.95 -35.3 20.05 -35.15 20.85 -34.6 20.85 -34.65 M28.2 -23.9 Q26.85 -26.5 25.15 -28.75 L25.1 -28.75 Q22.65 -31.95 19.3 -34.4 L19.25 -34.4 19.05 -32.55 19.25 -31.7 19.45 -31.8 19.95 -31.85 19.75 -30.6 Q19.05 -28.6 16.5 -28.05 L14.85 -27.85 Q12.5 -27.75 10.75 -28.45 8.4 -29.45 7.2 -31.95 L7.0 -32.45 7.0 -32.9 Q7.2 -33.3 7.65 -33.25 L7.65 -33.3 Q8.45 -33.1 8.35 -32.3 L8.35 -32.15 8.5 -32.0 9.1 -31.45 8.8 -34.95 4.7 -33.4 2.1 -31.25 2.0 -31.15 Q1.75 -30.5 0.9 -29.75 L0.75 -29.6 Q0.8 -29.15 0.4 -28.85 L0.25 -28.7 -0.4 -26.6 -2.1 -22.0 -3.55 -18.65 -5.55 -14.5 -7.45 -11.1 -9.2 -8.3 -9.4 -8.0 -9.7 -7.8 -9.75 -7.65 -12.05 -4.25 -14.8 -0.85 -15.45 0.05 -14.05 -0.4 -11.15 -0.95 -7.15 -0.9 -7.0 -0.9 Q-5.75 -3.45 -3.9 -5.75 L-3.8 -5.85 -1.95 -7.65 Q-0.85 -8.7 0.65 -9.25 L1.45 -9.5 2.25 -9.75 4.7 -9.1 5.45 -8.7 5.75 -8.55 7.0 -7.05 8.0 -5.7 8.85 -4.3 11.85 1.7 Q19.6 5.25 24.85 11.75 26.85 14.2 28.45 17.1 L29.55 19.45 31.4 13.15 32.5 7.25 33.0 3.0 33.0 2.55 33.05 1.85 33.15 -2.45 Q33.05 -6.45 32.4 -10.35 L31.0 -16.6 29.6 -20.7 28.2 -23.9 M40.1 -4.3 L42.65 -5.3 Q42.8 -5.7 43.25 -5.65 L43.25 -5.7 43.3 -5.6 44.45 -6.15 Q47.8 -7.65 49.75 -10.65 38.2 -16.05 30.25 -26.15 L30.1 -26.3 Q29.9 -26.45 29.85 -26.75 L29.75 -27.05 25.9 -30.1 28.7 -26.25 30.7 -22.2 31.15 -21.0 Q32.35 -17.7 33.15 -14.25 34.45 -8.45 34.6 -2.4 L40.1 -4.3 M17.3 -40.4 L17.25 -40.7 Q16.85 -45.5 12.2 -47.15 11.0 -47.55 9.95 -46.8 8.45 -45.7 8.4 -44.1 L8.4 -44.0 8.45 -44.05 8.45 -44.1 Q9.7 -40.35 10.1 -36.35 10.35 -33.55 10.25 -30.6 13.85 -28.3 17.9 -30.95 L17.3 -40.4 M12.85 7.9 L10.65 2.5 9.3 -1.0 7.75 -3.4 6.8 -4.8 6.55 -5.05 Q3.8 -9.7 -0.5 -6.75 L-1.55 -5.8 Q-5.5 -2.0 -6.75 3.5 L-7.2 4.4 Q-9.45 12.6 -9.65 21.2 -9.65 22.9 -10.0 24.5 L-10.25 24.7 -10.0 24.75 -9.9 24.85 -9.85 25.0 -9.8 25.3 -9.85 25.6 -9.9 25.75 -10.0 25.9 -24.3 25.5 Q-31.5 26.35 -36.6 31.55 -40.45 35.55 -41.75 40.7 L-41.7 42.8 -41.7 42.95 -38.5 45.2 Q-33.35 36.45 -23.35 33.4 L-20.95 32.75 -19.15 32.9 -19.0 32.95 Q-30.6 35.85 -37.0 45.65 L-37.05 45.75 -37.0 45.75 -36.9 45.8 Q-32.2 46.95 -27.55 47.4 -13.8 48.55 -0.85 43.1 -0.15 42.8 0.3 42.1 L1.2 41.1 1.25 41.1 Q0.95 38.85 1.05 36.7 0.75 29.1 1.05 21.45 L0.95 21.0 Q0.95 20.75 1.1 20.6 L1.35 15.5 Q1.8 9.3 4.65 4.4 5.6 5.9 4.65 8.1 4.15 9.15 3.95 10.35 6.1 16.2 6.7 22.4 L6.7 22.45 Q11.1 23.05 14.8 19.0 L14.9 18.95 Q14.6 14.45 13.5 10.2 L12.85 7.9 M43.55 -1.45 L42.9 -3.55 Q39.85 -2.25 36.6 -1.65 L37.95 1.0 Q42.1 9.6 44.35 19.15 L44.35 19.85 46.35 20.35 49.6 20.2 50.05 19.6 Q47.95 8.8 43.65 -1.25 L43.55 -1.45 M65.7 24.6 L65.65 24.75 65.6 24.9 65.55 25.2 65.5 25.35 65.45 25.5 65.3 25.65 65.15 25.8 65.1 25.95 65.05 26.1 64.95 26.2 Q60.55 24.8 55.8 23.95 55.2 23.85 55.15 23.35 55.4 23.0 55.85 23.0 L57.45 23.0 58.25 22.95 Q62.1 22.95 65.6 24.05 L65.7 24.15 65.7 24.3 65.7 24.45 65.7 24.6 M45.85 31.35 Q49.65 30.4 54.05 32.0 62.85 35.2 71.7 32.95 L73.25 32.55 73.4 32.4 74.0 31.8 74.5 30.95 74.9 30.15 Q73.1 25.0 67.15 23.6 L61.85 22.6 53.65 21.7 Q52.55 25.3 48.45 25.85 44.7 26.4 42.1 24.5 39.55 26.1 37.0 27.85 L34.5 29.55 Q34.05 34.15 39.7 33.6 41.45 33.45 42.85 32.35 43.3 31.2 44.55 30.6 L45.05 30.45 Q45.5 30.5 45.75 30.85 L45.85 31.3 45.8 31.35 45.85 31.35 M51.15 20.85 Q49.0 22.4 47.1 22.3 L46.95 22.25 Q45.25 22.05 43.75 20.6 43.45 20.65 43.15 20.35 L42.8 19.05 42.05 20.1 41.6 20.65 Q41.5 21.35 41.85 21.95 L42.3 22.7 Q42.9 22.7 43.25 23.15 L43.3 23.3 43.3 23.45 Q48.45 25.9 51.9 21.7 L52.5 20.55 52.3 19.8 51.95 18.75 51.25 18.45 51.5 20.05 Q51.55 20.5 51.2 20.8 L51.15 20.85 M60.35 27.95 Q58.45 27.05 56.35 27.0 L58.9 28.8 59.1 28.9 60.25 28.1 60.4 27.95 60.35 27.95 M59.05 30.1 L54.95 27.65 52.55 26.3 52.45 26.1 Q52.75 25.6 53.45 25.65 L54.65 25.7 Q58.8 25.6 62.1 27.45 L62.2 27.55 Q62.05 28.2 61.5 28.55 L59.55 29.95 59.05 30.1 M64.5 25.05 Q64.0 24.05 62.05 24.3 L64.35 25.1 64.5 25.05 M27.75 24.3 L28.7 22.45 28.7 22.05 Q27.0 17.15 23.9 13.15 22.2 10.95 20.1 9.0 L17.0 6.05 Q14.9 4.6 12.65 3.5 L14.1 7.35 14.4 7.25 14.65 7.2 Q20.15 10.55 17.9 16.7 16.55 20.4 13.05 22.5 7.75 25.65 2.65 22.65 L2.45 25.3 2.2 31.2 2.4 35.7 2.5 36.15 Q13.7 37.25 22.3 30.4 25.6 27.8 27.75 24.3 M3.5 13.8 L2.75 21.0 5.25 22.1 Q4.65 17.85 3.5 13.8 M16.4 17.15 L16.4 17.25 16.45 17.15 Q18.6 11.7 14.45 8.25 L15.85 13.2 Q16.35 15.15 16.4 17.15 M-27.2 4.3 L-26.75 0.35 -27.35 -0.75 Q-27.65 -1.5 -28.25 -2.05 -29.9 -5.45 -32.95 -7.8 L-34.35 -8.95 Q-34.85 -9.0 -35.3 -9.3 L-35.5 -9.4 -36.85 -8.8 -38.05 -7.75 -38.3 -7.5 -38.65 -7.2 Q-41.8 -4.2 -43.7 -0.2 L-43.8 -0.05 Q-47.0 7.55 -47.9 15.7 L-47.9 15.85 -47.8 16.1 -47.8 16.25 -47.85 16.4 -48.05 16.75 -48.4 18.4 Q-48.9 18.8 -49.25 18.25 L-49.4 17.05 Q-60.1 16.55 -68.5 23.25 -72.0 26.05 -73.75 30.1 L-74.5 31.35 -71.45 32.85 Q-67.6 23.8 -57.7 21.35 L-57.35 21.2 -56.65 21.4 -56.5 21.5 Q-65.0 24.35 -69.4 32.2 L-69.75 32.65 -69.8 32.8 -69.8 32.95 -69.85 33.25 -69.95 33.45 -69.9 33.45 -64.4 34.9 Q-59.7 35.65 -54.5 34.95 L-49.35 34.4 Q-43.75 33.9 -38.95 31.25 L-38.55 31.4 -37.7 30.5 Q-38.75 19.1 -35.15 8.45 -34.2 5.7 -31.95 4.15 -31.55 4.2 -31.35 4.55 L-31.3 4.7 -31.45 5.15 -31.7 5.45 -31.8 5.75 -31.85 6.05 -32.45 7.3 Q-29.55 9.8 -27.45 12.9 -27.55 8.55 -27.2 4.3 M-1.0 -28.35 L-0.9 -28.6 -1.1 -28.45 Q-6.35 -23.65 -11.05 -18.2 -13.75 -15.0 -17.7 -13.6 L-15.5 -11.9 -15.15 -11.65 Q-13.55 -10.65 -11.8 -10.0 L-10.35 -9.5 -10.05 -9.8 -10.0 -10.1 -9.95 -10.25 -9.65 -10.6 Q-8.7 -11.85 -7.9 -13.2 L-7.25 -14.45 -7.15 -14.55 -5.9 -17.15 -5.35 -18.3 Q-3.25 -22.8 -1.6 -27.45 L-1.55 -27.75 -1.0 -28.35 M-11.2 20.2 Q-11.15 12.15 -9.05 4.45 L-7.75 0.7 Q-12.1 0.5 -16.2 1.85 L-16.55 1.95 Q-17.1 2.9 -17.95 3.5 -18.45 3.35 -18.6 2.8 L-18.0 1.6 Q-21.45 0.95 -23.7 -2.4 L-24.35 -3.15 -25.05 0.65 -25.05 0.8 -25.1 1.0 -25.6 6.0 Q-25.85 9.3 -25.7 12.7 -25.5 18.2 -23.75 23.2 L-24.0 23.4 -24.05 23.45 -23.7 23.4 -22.55 23.25 -20.55 23.2 Q-21.9 21.25 -22.3 18.8 L-22.5 18.5 -22.65 18.35 Q-24.7 10.45 -20.15 4.3 -19.65 5.85 -20.5 8.0 -22.0 11.7 -21.35 15.8 L-20.55 19.2 -19.05 23.2 Q-15.0 23.3 -11.1 24.45 L-11.2 20.2 M-12.3 -8.85 L-13.4 -9.15 -15.05 -3.5 -13.3 -5.9 -11.1 -8.6 -12.3 -8.85 M-36.15 20.4 Q-36.6 24.3 -36.35 28.4 L-36.3 29.2 -35.0 28.1 Q-30.2 24.45 -24.4 23.5 L-24.6 23.3 Q-30.75 24.45 -35.7 21.2 -36.1 20.95 -36.15 20.4 M-29.1 18.1 Q-32.3 18.3 -34.5 20.55 -30.4 22.4 -25.45 22.05 -26.75 20.1 -27.15 17.7 L-29.1 18.1 M-27.4 15.6 Q-29.95 11.85 -32.95 8.5 -35.35 14.0 -36.1 20.0 -32.6 16.2 -27.35 16.25 L-27.4 15.65 -27.4 15.6" fill="#000000" fill-rule="evenodd" stroke="none"/>
      <path d="M27.75 2.1 L27.9 2.15 27.9 2.25 27.75 2.1 M-3.9 -5.75 L-3.9 -5.85 -3.8 -5.85 -3.9 -5.75" fill="#f02d0b" fill-rule="evenodd" stroke="none"/>
      <path d="M-47.9 15.7 L-47.8 16.1 -47.9 15.85 -47.9 15.7" fill="#0ecfe4" fill-rule="evenodd" stroke="none"/>
      <path d="M27.2 -24.3 L27.25 -24.25 27.3 -24.2 27.25 -24.1 27.2 -24.3 M28.7 -18.15 L28.6 -18.0 28.55 -18.2 28.7 -18.15" fill="#d6280a" fill-rule="evenodd" stroke="none"/>
      <path d="M45.85 31.3 L45.75 30.85 Q45.5 30.5 45.05 30.45 L44.55 30.6 Q43.3 31.2 42.85 32.35 41.45 33.45 39.7 33.6 34.05 34.15 34.5 29.55 L37.0 27.85 Q39.55 26.1 42.1 24.5 44.7 26.4 48.45 25.85 52.55 25.3 53.65 21.7 L61.85 22.6 67.15 23.6 Q73.1 25.0 74.9 30.15 L74.5 30.95 74.0 31.8 73.4 32.4 73.25 32.55 71.7 32.95 Q62.85 35.2 54.05 32.0 49.65 30.4 45.85 31.35 L45.85 31.3 M65.7 24.6 L65.7 24.45 65.7 24.3 65.7 24.15 65.6 24.05 Q62.1 22.95 58.25 22.95 L57.45 23.0 55.85 23.0 Q55.4 23.0 55.15 23.35 55.2 23.85 55.8 23.95 60.55 24.8 64.95 26.2 L65.05 26.1 65.1 25.95 65.15 25.8 65.3 25.65 65.45 25.5 65.5 25.35 65.55 25.2 65.6 24.9 65.65 24.75 65.7 24.6 M51.2 20.8 Q51.55 20.5 51.5 20.05 L51.25 18.45 51.95 18.75 52.3 19.8 52.5 20.55 51.9 21.7 Q48.45 25.9 43.3 23.45 L43.3 23.3 43.25 23.15 Q42.9 22.7 42.3 22.7 L41.85 21.95 Q41.5 21.35 41.6 20.65 L42.05 20.1 42.8 19.05 43.15 20.35 Q43.45 20.65 43.75 20.6 45.25 22.05 46.95 22.25 L47.1 22.3 Q49.0 22.4 51.15 20.85 L51.2 20.8 M60.25 28.1 L59.1 28.9 58.9 28.8 56.35 27.0 Q58.45 27.05 60.35 27.95 L60.25 28.1 M64.5 25.05 L64.35 25.1 62.05 24.3 Q64.0 24.05 64.5 25.05 M59.05 30.1 L59.55 29.95 61.5 28.55 Q62.05 28.2 62.2 27.55 L62.1 27.45 Q58.8 25.6 54.65 25.7 L53.45 25.65 Q52.75 25.6 52.45 26.1 L52.55 26.3 54.95 27.65 59.05 30.1 M-29.1 18.1 L-27.15 17.7 Q-26.75 20.1 -25.45 22.05 -30.4 22.4 -34.5 20.55 -32.3 18.3 -29.1 18.1" fill="#ffffff" fill-rule="evenodd" stroke="none"/>
      <path d="M-23.75 23.2 L-23.7 23.4 -24.05 23.45 -24.0 23.4 -23.75 23.2" fill="#666666" fill-rule="evenodd" stroke="none"/>
      <path d="M10.1 -36.35 L10.85 -36.35 12.25 -36.5 Q14.1 -37.0 15.5 -38.35 L16.75 -39.7 17.3 -40.4 17.9 -30.95 Q13.85 -28.3 10.25 -30.6 10.35 -33.55 10.1 -36.35 M12.85 7.9 L10.05 3.2 9.5 2.35 Q8.7 0.8 7.25 -0.2 L6.75 -0.65 Q6.2 -1.35 5.25 -1.4 L5.0 -1.3 Q4.9 -1.05 4.45 -1.15 L3.9 -1.1 2.75 -0.7 2.45 -0.6 0.95 2.15 0.15 2.95 -1.25 5.85 -2.0 7.8 Q-3.25 11.4 -4.0 15.2 L-5.05 22.2 -5.5 25.8 -5.75 28.2 -6.4 35.4 -6.4 36.2 -10.35 36.55 Q-14.2 37.45 -17.8 39.15 -20.75 40.55 -23.2 42.75 L-25.3 44.65 Q-26.6 45.9 -27.55 47.4 -32.2 46.95 -36.9 45.8 L-37.0 45.75 -37.0 45.65 Q-30.6 35.85 -19.0 32.95 L-19.15 32.9 -20.95 32.75 -23.35 33.4 Q-33.35 36.45 -38.5 45.2 L-41.7 42.95 -41.7 42.8 -41.75 40.7 Q-40.45 35.55 -36.6 31.55 -31.5 26.35 -24.3 25.5 L-10.0 25.9 -9.9 25.75 -9.85 25.6 -9.8 25.3 -9.85 25.0 -9.9 24.85 -10.0 24.75 -10.25 24.7 -10.0 24.5 Q-9.65 22.9 -9.65 21.2 -9.45 12.6 -7.2 4.4 L-6.75 3.5 Q-5.5 -2.0 -1.55 -5.8 L-0.5 -6.75 Q3.8 -9.7 6.55 -5.05 L6.8 -4.8 7.75 -3.4 9.3 -1.0 10.65 2.5 12.85 7.9 M43.55 -1.45 L43.65 -1.25 Q47.95 8.8 50.05 19.6 L49.6 20.2 46.35 20.35 44.85 14.4 Q44.05 10.6 42.65 7.0 L41.9 5.0 41.15 2.65 Q40.65 1.35 40.5 0.05 42.1 -0.65 43.55 -1.45 M-47.9 15.7 Q-47.0 7.55 -43.8 -0.05 L-43.7 -0.2 Q-41.8 -4.2 -38.65 -7.2 L-38.3 -7.5 -38.05 -7.75 -36.85 -8.8 -35.5 -9.4 -35.3 -9.3 Q-34.85 -9.0 -34.35 -8.95 L-32.95 -7.8 Q-29.9 -5.45 -28.25 -2.05 -27.65 -1.5 -27.35 -0.75 L-26.75 0.35 -27.2 4.3 -27.8 3.7 -28.7 2.95 Q-31.2 0.95 -34.2 0.55 L-34.5 0.5 Q-36.55 2.2 -37.5 4.75 L-38.15 6.0 Q-40.15 9.25 -41.15 13.0 L-42.3 17.2 -42.55 18.2 -43.65 24.8 -45.35 24.85 -46.35 24.95 -47.75 25.15 Q-51.5 25.85 -54.95 27.45 -55.95 27.9 -56.9 28.5 L-58.4 29.55 -60.45 31.1 -62.4 32.75 -64.4 34.9 -69.9 33.45 -69.85 33.25 -69.8 32.95 -69.8 32.8 -69.75 32.65 -69.4 32.2 Q-65.0 24.35 -56.5 21.5 L-56.65 21.4 -57.35 21.2 -57.7 21.35 Q-67.6 23.8 -71.45 32.85 L-74.5 31.35 -73.75 30.1 Q-72.0 26.05 -68.5 23.25 -60.1 16.55 -49.4 17.05 L-49.25 18.25 Q-48.9 18.8 -48.4 18.4 L-48.05 16.75 -47.85 16.4 -47.8 16.25 -47.8 16.1 -47.9 15.7" fill="#55bb65" fill-rule="evenodd" stroke="none"/>
      <path d="M17.3 -40.4 L16.75 -39.7 15.5 -38.35 Q14.1 -37.0 12.25 -36.5 L10.85 -36.35 10.1 -36.35 Q9.7 -40.35 8.45 -44.1 L8.4 -44.1 Q8.45 -45.7 9.95 -46.8 11.0 -47.55 12.2 -47.15 16.85 -45.5 17.25 -40.7 L17.3 -40.4 M-27.55 47.4 Q-26.6 45.9 -25.3 44.65 L-23.2 42.75 Q-20.75 40.55 -17.8 39.15 -14.2 37.45 -10.35 36.55 L-6.4 36.2 -6.4 35.4 -5.75 28.2 -5.5 25.8 -5.05 22.2 -4.0 15.2 Q-3.25 11.4 -2.0 7.8 L-1.25 5.85 0.15 2.95 0.95 2.15 2.45 -0.6 2.75 -0.7 3.9 -1.1 4.45 -1.15 Q4.9 -1.05 5.0 -1.3 L5.25 -1.4 Q6.2 -1.35 6.75 -0.65 L7.25 -0.2 Q8.7 0.8 9.5 2.35 L10.05 3.2 12.85 7.9 13.5 10.2 Q14.6 14.45 14.9 18.95 L14.8 19.0 Q11.1 23.05 6.7 22.45 L6.7 22.4 Q6.1 16.2 3.95 10.35 4.15 9.15 4.65 8.1 5.6 5.9 4.65 4.4 1.8 9.3 1.35 15.5 L1.1 20.6 Q0.95 20.75 0.95 21.0 L1.05 21.45 Q0.75 29.1 1.05 36.7 0.95 38.85 1.25 41.1 L1.2 41.1 0.3 42.1 Q-0.15 42.8 -0.85 43.1 -13.8 48.55 -27.55 47.4 M46.35 20.35 L44.35 19.85 44.35 19.15 Q42.1 9.6 37.95 1.0 L36.6 -1.65 Q39.85 -2.25 42.9 -3.55 L43.55 -1.45 Q42.1 -0.65 40.5 0.05 40.65 1.35 41.15 2.65 L41.9 5.0 42.65 7.0 Q44.05 10.6 44.85 14.4 L46.35 20.35 M-64.4 34.9 L-62.4 32.75 -60.45 31.1 -58.4 29.55 -56.9 28.5 Q-55.95 27.9 -54.95 27.45 -51.5 25.85 -47.75 25.15 L-46.35 24.95 -45.35 24.85 -43.65 24.8 -42.55 18.2 -42.3 17.2 -41.15 13.0 Q-40.15 9.25 -38.15 6.0 L-37.5 4.75 Q-36.55 2.2 -34.5 0.5 L-34.2 0.55 Q-31.2 0.95 -28.7 2.95 L-27.8 3.7 -27.2 4.3 Q-27.55 8.55 -27.45 12.9 -29.55 9.8 -32.45 7.3 L-31.85 6.05 -31.8 5.75 -31.7 5.45 -31.45 5.15 -31.3 4.7 -31.35 4.55 Q-31.55 4.2 -31.95 4.15 -34.2 5.7 -35.15 8.45 -38.75 19.1 -37.7 30.5 L-38.55 31.4 -38.95 31.25 Q-43.75 33.9 -49.35 34.4 L-54.5 34.95 Q-59.7 35.65 -64.4 34.9 M-12.3 -8.85 L-11.1 -8.6 -13.3 -5.9 -15.05 -3.5 -13.4 -9.15 -12.3 -8.85" fill="#43a752" fill-rule="evenodd" stroke="none"/>
      <path d="M2.45 25.3 L2.65 22.65 Q7.75 25.65 13.05 22.5 16.55 20.4 17.9 16.7 20.15 10.55 14.65 7.2 L14.4 7.25 14.1 7.35 12.65 3.5 Q14.9 4.6 17.0 6.05 L20.1 9.0 Q22.2 10.95 23.9 13.15 27.0 17.15 28.7 22.05 L28.7 22.45 27.75 24.3 26.25 24.95 23.45 25.85 22.0 26.25 19.65 26.7 18.05 26.95 13.25 27.4 9.25 27.25 Q5.7 26.9 2.45 25.3 M-23.75 23.2 Q-25.5 18.2 -25.7 12.7 -25.85 9.3 -25.6 6.0 L-25.1 1.0 -25.05 0.8 -25.05 0.65 -24.35 -3.15 -23.7 -2.4 Q-21.45 0.95 -18.0 1.6 L-18.6 2.8 Q-18.45 3.35 -17.95 3.5 -17.1 2.9 -16.55 1.95 L-16.2 1.85 Q-12.1 0.5 -7.75 0.7 L-9.05 4.45 Q-11.15 12.15 -11.2 20.2 -11.65 19.95 -12.15 19.85 L-13.1 19.5 Q-15.1 18.65 -17.35 18.8 L-20.55 19.2 -21.35 15.8 Q-22.0 11.7 -20.5 8.0 -19.65 5.85 -20.15 4.3 -24.7 10.45 -22.65 18.35 L-22.5 18.5 -22.3 18.8 Q-21.9 21.25 -20.55 23.2 L-22.55 23.25 -23.7 23.4 -23.75 23.2" fill="#6633cc" fill-rule="evenodd" stroke="none"/>
      <path d="M2.45 25.3 Q5.7 26.9 9.25 27.25 L13.25 27.4 18.05 26.95 19.65 26.7 22.0 26.25 23.45 25.85 26.25 24.95 27.75 24.3 Q25.6 27.8 22.3 30.4 13.7 37.25 2.5 36.15 L2.4 35.7 2.2 31.2 2.45 25.3 M3.5 13.8 Q4.65 17.85 5.25 22.1 L2.75 21.0 3.5 13.8 M16.45 17.15 L16.4 17.15 Q16.35 15.15 15.85 13.2 L14.45 8.25 Q18.6 11.7 16.45 17.15 M-20.55 19.2 L-17.35 18.8 Q-15.1 18.65 -13.1 19.5 L-12.15 19.85 Q-11.65 19.95 -11.2 20.2 L-11.1 24.45 Q-15.0 23.3 -19.05 23.2 L-20.55 19.2" fill="#4d269b" fill-rule="evenodd" stroke="none"/>
      <path d="M16.5 -28.05 Q18.4 -27.85 20.0 -27.05 20.4 -26.85 20.75 -26.75 L23.75 -25.75 27.2 -24.3 27.25 -24.1 27.8 -22.2 28.55 -18.2 28.5 -18.25 28.05 -18.55 27.7 -18.8 25.45 -19.65 25.05 -19.85 24.45 -20.15 22.8 -20.85 Q20.65 -21.85 18.25 -22.4 L17.55 -22.65 Q15.45 -23.45 13.0 -23.6 L12.5 -23.65 11.5 -23.85 11.25 -23.9 7.5 -23.9 5.75 -23.8 Q3.1 -23.65 0.75 -22.75 L0.25 -22.65 Q-1.1 -22.65 -2.1 -22.0 L-0.4 -26.6 Q3.2 -28.4 7.5 -28.5 L10.75 -28.45 Q12.5 -27.75 14.85 -27.85 L16.5 -28.05 M25.15 -28.75 L23.2 -29.65 22.8 -29.85 19.75 -30.6 19.95 -31.85 19.45 -31.8 19.25 -31.7 19.05 -32.55 19.25 -34.4 19.3 -34.4 Q22.65 -31.95 25.1 -28.75 L25.15 -28.75 M31.15 -21.0 L30.7 -22.2 28.7 -26.25 25.9 -30.1 29.75 -27.05 29.85 -26.75 Q29.9 -26.45 30.1 -26.3 L30.25 -26.15 Q38.2 -16.05 49.75 -10.65 47.8 -7.65 44.45 -6.15 L43.3 -5.6 43.25 -5.7 43.25 -5.65 Q42.8 -5.7 42.65 -5.3 L40.1 -4.3 39.9 -4.65 39.25 -5.8 37.8 -8.2 35.7 -11.65 Q34.0 -14.95 32.65 -18.4 L32.0 -19.8 31.35 -21.1 31.15 -21.0 M7.2 -31.95 L6.25 -31.95 3.5 -31.55 2.1 -31.25 4.7 -33.4 8.8 -34.95 9.1 -31.45 8.5 -32.0 8.35 -32.15 8.35 -32.3 Q8.45 -33.1 7.65 -33.3 L7.65 -33.25 Q7.2 -33.3 7.0 -32.9 L7.0 -32.45 7.2 -31.95 M-3.55 -18.65 L-2.0 -19.35 2.5 -20.55 5.25 -20.85 5.75 -20.9 11.0 -20.65 13.25 -20.25 18.0 -18.95 20.2 -18.15 22.5 -17.2 23.8 -16.55 27.7 -14.2 28.85 -13.55 28.9 -11.2 28.95 -9.2 28.95 -6.45 28.6 -6.75 28.1 -7.25 26.25 -8.6 24.3 -9.85 23.6 -10.3 19.85 -12.2 18.2 -12.95 Q17.85 -13.1 17.55 -13.35 16.7 -14.0 15.65 -14.2 L14.65 -14.45 10.45 -15.2 8.25 -15.55 0.65 -16.05 -2.75 -15.4 -3.15 -15.25 -3.75 -15.1 -4.55 -14.9 -5.55 -14.5 -3.55 -18.65 M-7.45 -11.1 L-4.35 -12.2 -1.95 -12.7 -1.35 -12.8 1.45 -12.9 2.25 -12.8 9.85 -11.7 13.45 -10.65 14.25 -10.35 17.85 -9.05 Q21.5 -7.85 24.65 -5.45 L25.85 -4.6 28.65 -2.45 28.5 -1.4 27.9 2.15 27.75 2.1 26.0 0.65 22.85 -1.8 Q19.65 -4.1 16.05 -5.8 12.7 -7.4 9.05 -8.35 L7.65 -8.7 6.45 -8.9 5.8 -9.0 4.7 -9.1 2.25 -9.75 1.45 -9.5 0.65 -9.25 -0.75 -9.2 -4.35 -8.95 -8.15 -8.25 -9.05 -7.95 -9.75 -7.65 -9.7 -7.8 -9.4 -8.0 -9.2 -8.3 -7.45 -11.1 M8.85 -4.3 L10.45 -3.8 14.05 -2.25 15.0 -1.75 15.9 -1.3 Q17.7 -0.4 19.3 0.7 L20.4 1.45 21.9 2.55 22.65 3.15 Q24.95 4.7 26.85 6.65 L25.5 10.4 24.85 11.75 Q19.6 5.25 11.85 1.7 L8.85 -4.3 M-1.1 -28.45 L-1.0 -28.35 -1.55 -27.75 -1.6 -27.45 Q-3.25 -22.8 -5.35 -18.3 L-6.3 -17.35 -7.45 -16.3 Q-9.85 -14.25 -12.55 -12.65 -13.8 -11.9 -15.15 -11.65 L-15.5 -11.9 -17.7 -13.6 Q-13.75 -15.0 -11.05 -18.2 -6.35 -23.65 -1.1 -28.45 M-12.05 -4.25 L-11.15 -4.5 -9.95 -4.8 Q-7.0 -5.8 -3.9 -5.85 L-3.9 -5.75 Q-5.75 -3.45 -7.0 -0.9 L-7.15 -0.9 -11.15 -0.95 -14.05 -0.4 -15.45 0.05 -14.8 -0.85 -12.05 -4.25" fill="#3399ff" fill-rule="evenodd" stroke="none"/>
      <path d="M27.2 -24.3 L23.75 -25.75 20.75 -26.75 Q20.4 -26.85 20.0 -27.05 18.4 -27.85 16.5 -28.05 19.05 -28.6 19.75 -30.6 L22.8 -29.85 23.2 -29.65 25.15 -28.75 Q26.85 -26.5 28.2 -23.9 L27.3 -24.2 27.25 -24.25 27.2 -24.3 M10.75 -28.45 L7.5 -28.5 Q3.2 -28.4 -0.4 -26.6 L0.25 -28.7 0.4 -28.85 Q0.8 -29.15 0.75 -29.6 L0.9 -29.75 Q1.75 -30.5 2.0 -31.15 L2.1 -31.25 3.5 -31.55 6.25 -31.95 7.2 -31.95 Q8.4 -29.45 10.75 -28.45 M-2.1 -22.0 Q-1.1 -22.65 0.25 -22.65 L0.75 -22.75 Q3.1 -23.65 5.75 -23.8 L7.5 -23.9 11.25 -23.9 11.5 -23.85 12.5 -23.65 13.0 -23.6 Q15.45 -23.45 17.55 -22.65 L18.25 -22.4 Q20.65 -21.85 22.8 -20.85 L24.45 -20.15 25.05 -19.85 25.45 -19.65 27.7 -18.8 28.05 -18.55 28.5 -18.25 28.55 -18.2 28.6 -18.0 28.7 -18.15 31.0 -16.6 32.4 -10.35 32.0 -10.75 31.35 -11.55 30.25 -12.7 29.75 -13.0 28.85 -13.55 27.7 -14.2 23.8 -16.55 22.5 -17.2 20.2 -18.15 18.0 -18.95 13.25 -20.25 11.0 -20.65 5.75 -20.9 5.25 -20.85 2.5 -20.55 -2.0 -19.35 -3.55 -18.65 -2.1 -22.0 M-5.55 -14.5 L-4.55 -14.9 -3.75 -15.1 -3.15 -15.25 -2.75 -15.4 0.65 -16.05 8.25 -15.55 10.45 -15.2 14.65 -14.45 15.65 -14.2 Q16.7 -14.0 17.55 -13.35 17.85 -13.1 18.2 -12.95 L19.85 -12.2 23.6 -10.3 24.3 -9.85 26.25 -8.6 28.1 -7.25 28.6 -6.75 28.95 -6.45 30.75 -4.9 31.2 -4.55 31.8 -3.95 32.1 -3.7 33.15 -2.45 33.05 1.85 32.5 1.0 32.2 0.65 31.75 0.15 30.05 -1.4 29.45 -1.8 28.65 -2.45 25.85 -4.6 24.65 -5.45 Q21.5 -7.85 17.85 -9.05 L14.25 -10.35 13.45 -10.65 9.85 -11.7 2.25 -12.8 1.45 -12.9 -1.35 -12.8 -1.95 -12.7 -4.35 -12.2 -7.45 -11.1 -5.55 -14.5 M-9.75 -7.65 L-9.05 -7.95 -8.15 -8.25 -4.35 -8.95 -0.75 -9.2 0.65 -9.25 Q-0.85 -8.7 -1.95 -7.65 L-3.8 -5.85 -3.9 -5.85 Q-7.0 -5.8 -9.95 -4.8 L-11.15 -4.5 -12.05 -4.25 -9.75 -7.65 M4.7 -9.1 L5.8 -9.0 6.45 -8.9 7.65 -8.7 9.05 -8.35 Q12.7 -7.4 16.05 -5.8 19.65 -4.1 22.85 -1.8 L26.0 0.65 27.75 2.1 27.9 2.25 28.2 2.45 29.1 3.35 29.45 3.8 Q31.2 5.35 32.5 7.25 L31.4 13.15 30.9 12.2 Q30.1 10.65 28.8 9.05 L28.3 8.35 26.85 6.65 Q24.95 4.7 22.65 3.15 L21.9 2.55 20.4 1.45 19.3 0.7 Q17.7 -0.4 15.9 -1.3 L15.0 -1.75 14.05 -2.25 10.45 -3.8 8.85 -4.3 8.0 -5.7 7.0 -7.05 5.75 -8.55 5.45 -8.7 4.7 -9.1" fill="#0060bf" fill-rule="evenodd" stroke="none"/>
      <path d="M27.3 -24.2 L28.2 -23.9 29.6 -20.7 31.0 -16.6 28.7 -18.15 28.55 -18.2 27.8 -22.2 27.25 -24.1 27.3 -24.2 M31.15 -21.0 L31.35 -21.1 32.0 -19.8 32.65 -18.4 Q34.0 -14.95 35.7 -11.65 L37.8 -8.2 39.25 -5.8 39.9 -4.65 40.1 -4.3 34.6 -2.4 Q34.45 -8.45 33.15 -14.25 32.35 -17.7 31.15 -21.0 M28.85 -13.55 L29.75 -13.0 30.25 -12.7 31.35 -11.55 32.0 -10.75 32.4 -10.35 Q33.05 -6.45 33.15 -2.45 L32.1 -3.7 31.8 -3.95 31.2 -4.55 30.75 -4.9 28.95 -6.45 28.95 -9.2 28.9 -11.2 28.85 -13.55 M27.9 2.15 L28.5 -1.4 28.65 -2.45 29.45 -1.8 30.05 -1.4 31.75 0.15 32.2 0.65 32.5 1.0 33.05 1.85 33.0 2.55 33.0 3.0 32.5 7.25 Q31.2 5.35 29.45 3.8 L29.1 3.35 28.2 2.45 27.9 2.25 27.9 2.15 M24.85 11.75 L25.5 10.4 26.85 6.65 28.3 8.35 28.8 9.05 Q30.1 10.65 30.9 12.2 L31.4 13.15 29.55 19.45 28.45 17.1 Q26.85 14.2 24.85 11.75 M-5.35 -18.3 L-5.9 -17.15 -7.15 -14.55 -7.25 -14.45 -7.9 -13.2 Q-8.7 -11.85 -9.65 -10.6 L-9.95 -10.25 -10.0 -10.1 -10.05 -9.8 -10.35 -9.5 -11.8 -10.0 Q-13.55 -10.65 -15.15 -11.65 -13.8 -11.9 -12.55 -12.65 -9.85 -14.25 -7.45 -16.3 L-6.3 -17.35 -5.35 -18.3" fill="#007dfb" fill-rule="evenodd" stroke="none"/>
    </g>
    <g id="shape1" transform="matrix(1.0, 0.0, 0.0, 1.0, 6.45, 74.6)">
      <path d="M9.7 -74.55 L9.7 -74.5 9.8 -74.5 Q10.95 -71.6 14.1 -70.75 L14.25 -70.8 14.45 -70.9 14.55 -70.85 14.65 -70.85 14.8 -70.6 14.85 -70.6 14.85 -70.45 14.75 -70.35 14.45 -70.35 11.15 -68.85 15.2 -69.65 15.2 -69.7 15.45 -69.8 15.6 -69.8 Q16.55 -68.35 18.35 -68.4 L18.55 -68.15 18.55 -68.1 18.5 -67.95 18.4 -67.75 13.8 -66.85 13.6 -66.8 14.5 -66.4 Q18.5 -63.95 19.45 -59.65 L19.75 -58.7 19.75 -58.65 Q20.1 -55.9 19.7 -53.3 L19.55 -51.95 19.5 -51.95 19.4 -51.9 18.65 -49.55 18.3 -48.75 18.2 -48.5 18.35 -47.8 18.3 -47.75 18.3 -47.65 18.3 -47.6 18.25 -47.55 18.0 -47.45 17.8 -47.8 17.75 -47.9 17.05 -47.0 16.85 -46.85 16.9 -46.7 16.9 -46.65 16.95 -46.3 16.85 -45.85 16.8 -45.85 16.7 -45.7 Q19.1 -43.75 22.15 -43.05 L25.5 -42.95 27.15 -42.55 27.3 -42.45 27.4 -42.4 Q29.85 -41.05 28.4 -38.75 27.8 -37.8 26.8 -37.4 L26.7 -37.4 26.65 -37.4 26.55 -37.4 26.45 -37.35 26.4 -37.35 26.35 -37.3 26.1 -37.25 25.7 -37.2 Q26.15 -36.05 24.9 -35.05 24.6 -34.8 24.15 -34.85 22.8 -35.05 21.5 -35.55 L20.9 -35.8 19.35 -36.15 12.05 -36.25 Q7.5 -36.3 3.4 -38.15 -1.2 -40.25 -4.5 -43.85 -5.35 -44.85 -5.8 -46.05 -6.75 -47.0 -6.3 -48.5 -6.1 -49.25 -5.4 -49.6 L-4.55 -49.95 Q-5.0 -50.2 -5.25 -50.95 L-5.9 -53.25 Q-6.55 -56.0 -6.15 -58.8 L-6.15 -58.95 -6.15 -59.05 Q-5.35 -63.25 -2.15 -66.2 L-1.45 -66.9 -1.3 -66.95 -1.25 -67.0 -0.05 -68.0 0.0 -68.05 5.1 -71.2 5.75 -71.65 8.3 -73.45 9.6 -74.6 9.7 -74.55 M2.1 -48.1 Q1.65 -48.8 1.45 -49.65 0.95 -51.5 1.1 -53.25 1.25 -55.25 2.2 -57.15 3.05 -58.9 4.4 -60.15 6.1 -62.1 8.7 -62.05 L8.85 -61.8 8.8 -61.65 8.4 -61.55 8.1 -61.45 9.05 -60.45 9.15 -60.45 9.6 -59.85 9.55 -59.85 10.0 -59.05 Q10.95 -57.1 10.75 -54.7 L10.65 -54.1 10.4 -52.5 11.15 -52.55 11.4 -52.55 12.0 -52.45 12.1 -52.4 12.15 -52.35 12.2 -52.35 12.2 -52.3 12.2 -52.25 12.1 -52.15 10.3 -51.95 9.95 -50.25 Q9.55 -48.8 8.75 -47.55 L8.65 -47.4 9.6 -47.75 11.2 -48.25 13.25 -48.45 14.85 -48.3 14.9 -48.3 14.9 -48.35 Q14.9 -49.8 15.15 -51.15 L15.3 -51.95 15.1 -52.15 15.1 -52.3 15.2 -52.4 15.25 -52.4 15.4 -52.45 Q15.8 -54.1 16.55 -55.65 L16.8 -56.15 17.05 -56.6 17.05 -56.65 17.35 -57.15 17.4 -57.2 17.5 -57.4 Q18.05 -58.25 18.85 -58.55 L18.75 -58.8 18.7 -59.0 18.7 -59.05 18.75 -59.1 18.7 -59.15 18.7 -59.2 18.65 -59.45 18.6 -59.6 18.6 -59.7 18.8 -59.7 18.8 -59.75 18.75 -59.85 18.3 -61.05 17.6 -62.7 Q15.55 -65.65 12.1 -66.75 L12.1 -66.85 12.1 -66.9 12.15 -66.95 12.25 -66.95 12.3 -67.0 12.85 -67.0 12.9 -67.05 Q14.25 -67.75 15.85 -68.0 L16.35 -68.15 Q15.55 -68.45 15.3 -69.1 15.0 -68.75 14.25 -68.65 L10.4 -68.35 10.15 -68.45 10.1 -68.45 9.95 -68.7 10.0 -68.75 Q11.4 -69.85 13.15 -70.45 11.35 -70.85 9.95 -72.5 9.5 -73.1 9.45 -73.65 L9.1 -73.35 9.0 -73.35 9.0 -73.25 8.95 -73.15 Q4.95 -70.25 0.75 -67.6 L0.65 -67.55 -0.55 -66.8 Q-4.1 -64.0 -5.3 -59.55 L-5.65 -57.4 Q-5.8 -53.5 -4.05 -50.05 -2.4 -50.4 -0.65 -49.4 L2.05 -47.9 2.15 -47.7 2.75 -47.35 2.5 -47.65 2.3 -47.9 2.1 -48.1 M3.35 -62.1 Q3.3 -62.7 3.55 -63.15 L4.25 -63.95 Q5.8 -65.2 7.8 -65.0 8.25 -64.9 8.3 -64.4 L8.3 -64.3 8.2 -64.2 8.05 -64.15 Q6.55 -64.8 5.15 -63.8 L4.8 -63.6 4.2 -62.75 Q3.85 -62.2 3.35 -62.1 M8.75 -59.85 L8.7 -59.95 8.6 -60.05 8.25 -60.4 8.35 -60.4 8.15 -60.6 7.45 -61.1 7.3 -61.2 Q5.7 -60.6 4.55 -59.5 L4.15 -59.1 3.6 -58.5 3.55 -58.45 3.55 -58.35 2.85 -57.35 2.75 -57.15 2.7 -57.1 2.65 -56.8 2.55 -56.6 2.25 -55.8 2.15 -55.4 2.1 -55.25 Q1.6 -53.55 1.7 -51.75 1.75 -50.45 2.25 -49.3 L3.9 -50.65 6.35 -51.7 6.4 -51.7 7.6 -52.1 8.85 -52.5 9.7 -52.7 9.85 -52.95 10.05 -54.35 10.05 -54.65 10.1 -55.05 10.15 -55.25 Q10.15 -56.65 9.75 -57.8 L9.35 -58.7 9.35 -58.75 9.3 -58.8 9.25 -58.9 9.2 -59.0 9.2 -59.05 9.15 -59.1 9.1 -59.2 8.8 -59.85 8.75 -59.85 M10.5 -60.25 L10.45 -60.35 10.5 -60.3 10.5 -60.25 M17.35 -55.65 L17.25 -55.5 17.1 -55.15 17.05 -55.0 16.85 -54.65 16.75 -54.5 16.1 -52.6 16.0 -52.4 16.05 -52.3 16.1 -52.3 16.4 -51.8 16.5 -51.65 16.7 -51.4 16.9 -50.95 17.1 -50.6 17.15 -50.5 17.2 -50.45 17.65 -49.65 17.65 -49.55 17.7 -49.6 17.7 -49.55 17.8 -49.5 17.85 -49.55 17.9 -49.6 18.15 -50.2 18.25 -50.55 18.6 -51.7 18.75 -52.15 19.0 -53.7 19.05 -54.5 19.1 -55.35 19.15 -55.3 19.15 -55.45 19.0 -57.8 19.0 -57.95 18.9 -57.95 17.95 -56.7 17.65 -56.15 17.6 -56.1 17.35 -55.65 M4.65 -41.6 L4.9 -41.5 Q5.8 -41.0 6.8 -40.65 11.05 -38.95 15.9 -39.3 L20.3 -39.7 25.05 -39.5 25.5 -38.95 25.5 -38.9 24.1 -39.0 25.35 -37.95 25.45 -37.85 25.5 -37.75 Q27.4 -37.95 28.1 -39.7 28.65 -41.1 27.15 -41.65 L25.1 -42.3 24.9 -42.35 22.25 -42.45 21.8 -42.4 Q19.85 -42.25 17.95 -41.6 L16.65 -41.75 20.1 -42.8 Q17.8 -43.75 16.05 -45.35 L15.6 -45.9 15.75 -45.85 15.5 -46.45 15.6 -46.6 15.65 -46.6 15.8 -46.65 16.2 -46.3 16.3 -46.2 16.25 -46.4 Q16.1 -46.5 16.1 -46.7 L16.15 -46.8 15.95 -47.15 15.5 -47.3 15.35 -47.35 15.3 -47.4 15.25 -47.4 12.9 -47.8 Q11.2 -47.85 9.5 -47.2 L9.15 -47.05 8.9 -46.95 8.0 -46.6 7.9 -46.55 Q5.2 -45.65 2.75 -46.6 L2.65 -46.8 Q1.45 -47.25 0.35 -48.15 -1.15 -49.35 -3.1 -49.55 L-3.15 -49.55 -3.2 -49.5 -3.25 -49.45 Q-4.2 -49.65 -5.0 -49.15 L-5.85 -48.4 -5.85 -48.25 Q-5.8 -48.05 -5.9 -47.9 L-5.9 -47.75 Q-5.8 -46.9 -5.2 -46.3 L-4.95 -45.85 -4.95 -45.75 -4.95 -45.7 Q-0.55 -39.7 7.0 -37.6 11.45 -36.35 16.1 -36.85 19.7 -37.25 23.05 -35.9 L23.95 -35.5 24.6 -35.45 24.8 -35.55 24.85 -35.7 25.0 -35.85 25.05 -35.95 Q25.4 -36.85 24.75 -37.55 L24.7 -37.6 23.4 -38.6 22.4 -39.1 21.6 -39.1 15.8 -38.8 13.65 -38.75 Q7.15 -38.7 1.85 -42.5 -0.35 -44.1 -1.1 -46.65 L-1.4 -46.9 -2.55 -46.65 -3.0 -46.5 -3.1 -46.6 -3.3 -46.85 -3.3 -46.9 Q-2.55 -47.75 -1.35 -47.65 L-0.05 -47.35 Q1.15 -46.9 1.35 -45.7 L1.35 -45.65 1.25 -45.65 1.2 -45.6 1.15 -45.55 1.1 -45.6 Q0.35 -46.6 -0.55 -46.85 -0.1 -46.25 0.2 -45.45 0.65 -44.15 1.75 -43.4 3.2 -42.4 4.65 -41.6 M16.9 -49.6 L16.9 -49.55 16.95 -49.5 17.0 -49.5 16.95 -49.55 16.9 -49.6 M16.35 -48.8 L16.2 -48.85 15.6 -49.05 15.6 -48.3 15.65 -48.25 15.65 -48.2 16.05 -47.95 16.15 -47.8 16.2 -47.85 16.25 -47.9 16.25 -47.85 16.2 -47.75 16.55 -47.35 16.6 -47.35 17.0 -48.0 17.15 -48.2 17.2 -48.3 17.4 -48.65 17.15 -49.2 17.1 -49.2 17.0 -49.1 16.95 -49.05 16.9 -49.05 16.9 -49.1 16.45 -49.85 16.05 -50.4 16.15 -49.8 16.25 -49.4 16.35 -48.8 M16.8 -48.8 L16.75 -48.7 16.75 -48.75 16.8 -48.8 M8.6 -48.95 L8.45 -48.95 Q7.5 -48.65 6.7 -49.2 L6.35 -49.5 6.4 -49.5 6.6 -49.7 7.15 -50.35 7.25 -50.55 7.4 -50.75 7.3 -50.85 6.95 -50.7 5.9 -50.15 Q5.75 -50.4 5.75 -50.7 L5.65 -50.65 Q4.45 -50.15 3.4 -49.35 L2.45 -48.85 Q2.85 -47.95 3.6 -47.15 L3.55 -47.0 4.25 -46.9 6.4 -46.9 6.3 -47.0 Q7.15 -47.0 8.0 -47.5 L8.05 -47.55 8.15 -47.65 8.45 -48.1 8.6 -48.95 M16.35 -48.05 L16.4 -48.05 16.4 -48.0 16.35 -48.05 M6.65 -47.7 L6.65 -47.8 6.7 -47.7 6.65 -47.7" fill="#000000" fill-rule="evenodd" stroke="none"/>
      <path d="M0.65 -67.55 L0.75 -67.6 Q4.95 -70.25 8.95 -73.15 L9.0 -73.25 9.0 -73.35 9.1 -73.35 9.45 -73.65 Q9.5 -73.1 9.95 -72.5 11.35 -70.85 13.15 -70.45 11.4 -69.85 10.0 -68.75 L9.95 -68.7 10.1 -68.45 10.15 -68.45 10.4 -68.35 14.25 -68.65 Q15.0 -68.75 15.3 -69.1 15.55 -68.45 16.35 -68.15 L15.85 -68.0 Q14.25 -67.75 12.9 -67.05 L12.85 -67.0 12.3 -67.0 12.25 -66.95 12.15 -66.95 12.1 -66.9 12.1 -66.85 12.1 -66.75 Q15.55 -65.65 17.6 -62.7 L18.3 -61.05 18.75 -59.85 18.8 -59.75 18.8 -59.7 18.6 -59.7 18.6 -59.6 18.65 -59.45 18.7 -59.2 18.7 -59.15 18.75 -59.1 18.7 -59.05 18.7 -59.0 18.75 -58.8 18.85 -58.55 Q18.05 -58.25 17.5 -57.4 L17.4 -57.2 17.35 -57.15 17.05 -56.65 17.05 -56.6 16.8 -56.15 16.55 -55.65 Q15.8 -54.1 15.4 -52.45 L15.25 -52.4 15.2 -52.4 15.1 -52.3 15.1 -52.15 15.3 -51.95 15.15 -51.15 Q14.9 -49.8 14.9 -48.35 L14.9 -48.3 14.85 -48.3 13.25 -48.45 11.2 -48.25 9.6 -47.75 8.65 -47.4 8.75 -47.55 Q9.55 -48.8 9.95 -50.25 L10.3 -51.95 12.1 -52.15 12.2 -52.25 12.2 -52.3 12.2 -52.35 12.15 -52.35 12.1 -52.4 12.0 -52.45 11.4 -52.55 11.15 -52.55 10.4 -52.5 10.65 -54.1 10.75 -54.7 Q10.95 -57.1 10.0 -59.05 L9.55 -59.85 9.6 -59.85 9.15 -60.45 9.05 -60.45 8.1 -61.45 8.4 -61.55 8.8 -61.65 8.85 -61.8 8.7 -62.05 Q6.1 -62.1 4.4 -60.15 3.05 -58.9 2.2 -57.15 1.25 -55.25 1.1 -53.25 0.95 -51.5 1.45 -49.65 1.65 -48.8 2.1 -48.1 L1.75 -48.35 1.75 -48.4 1.65 -48.55 -0.35 -50.45 -1.3 -51.8 -1.75 -52.6 -2.4 -53.75 -2.9 -55.6 -3.05 -56.5 -3.15 -57.4 Q-3.35 -58.55 -3.1 -59.7 -2.5 -62.7 -0.75 -65.4 L-0.2 -66.4 0.65 -67.55 M2.65 -56.8 L2.7 -57.1 2.75 -57.15 2.85 -57.35 3.55 -58.35 3.55 -58.45 3.6 -58.5 4.15 -59.1 4.55 -59.5 Q5.7 -60.6 7.3 -61.2 L7.45 -61.1 8.15 -60.6 8.35 -60.4 8.25 -60.4 8.6 -60.05 8.7 -59.95 8.75 -59.85 8.85 -59.7 8.85 -59.65 8.85 -59.55 8.95 -59.45 9.05 -59.2 9.15 -59.1 9.2 -59.05 9.2 -59.0 9.25 -58.9 9.3 -58.8 9.35 -58.75 9.35 -58.7 9.75 -57.8 Q10.15 -56.65 10.15 -55.25 L10.1 -55.05 10.05 -54.65 10.05 -54.35 9.85 -52.95 9.7 -52.7 8.85 -52.5 7.6 -52.1 6.4 -51.7 6.35 -51.7 3.9 -50.65 2.25 -49.3 Q1.75 -50.45 1.7 -51.75 1.6 -53.55 2.1 -55.25 L2.15 -55.4 2.2 -55.4 2.35 -55.9 2.45 -56.25 2.55 -56.6 2.65 -56.75 2.65 -56.8 M3.35 -62.1 Q3.85 -62.2 4.2 -62.75 L4.8 -63.6 5.15 -63.8 Q6.55 -64.8 8.05 -64.15 L8.2 -64.2 8.3 -64.3 8.3 -64.4 Q8.25 -64.9 7.8 -65.0 5.8 -65.2 4.25 -63.95 L3.55 -63.15 Q3.3 -62.7 3.35 -62.1 M10.5 -60.25 L10.5 -60.3 10.45 -60.35 10.5 -60.25 M9.65 -56.85 L9.65 -56.8 9.65 -56.7 9.65 -56.85 M17.05 -55.0 L17.1 -55.15 17.25 -55.5 17.35 -55.65 17.6 -56.05 17.65 -56.1 17.65 -56.15 17.95 -56.7 18.9 -57.95 19.0 -57.95 19.0 -57.8 19.15 -55.45 19.15 -55.3 19.1 -55.35 19.05 -54.5 19.0 -53.7 18.75 -52.15 18.6 -51.7 18.55 -51.5 18.4 -51.25 18.35 -51.0 18.25 -50.55 18.15 -50.2 17.9 -49.6 17.85 -49.55 17.8 -49.5 17.7 -49.55 17.7 -49.6 17.65 -49.55 17.65 -49.65 17.2 -50.45 17.15 -50.5 17.1 -50.6 16.9 -50.95 16.7 -51.4 16.5 -51.65 16.4 -51.8 16.1 -52.3 16.05 -52.3 16.0 -52.4 16.1 -52.6 16.75 -54.5 16.8 -54.6 16.85 -54.6 16.85 -54.65 17.05 -55.0" fill="#55bb65" fill-rule="evenodd" stroke="none"/>
      <path d="M0.65 -67.55 L-0.2 -66.4 -0.75 -65.4 Q-2.5 -62.7 -3.1 -59.7 -3.35 -58.55 -3.15 -57.4 L-3.05 -56.5 -2.9 -55.6 -2.4 -53.75 -1.75 -52.6 -1.3 -51.8 -0.35 -50.45 1.65 -48.55 1.75 -48.4 1.75 -48.35 2.1 -48.1 2.3 -47.9 2.5 -47.65 2.75 -47.35 2.15 -47.7 2.05 -47.9 -0.65 -49.4 Q-2.4 -50.4 -4.05 -50.05 -5.8 -53.5 -5.65 -57.4 L-5.3 -59.55 Q-4.1 -64.0 -0.55 -66.8 L0.65 -67.55" fill="#43a752" fill-rule="evenodd" stroke="none"/>
      <path d="M2.65 -56.8 L2.65 -56.75 2.55 -56.6 2.45 -56.25 2.35 -55.9 2.2 -55.4 2.15 -55.4 2.25 -55.8 2.55 -56.6 2.65 -56.8 M9.15 -59.1 L9.05 -59.2 8.95 -59.45 8.85 -59.55 8.85 -59.65 8.85 -59.7 8.75 -59.85 8.8 -59.85 9.1 -59.2 9.15 -59.1 M17.35 -55.65 L17.6 -56.1 17.65 -56.1 17.6 -56.05 17.35 -55.65" fill="#cccccc" fill-rule="evenodd" stroke="none"/>
      <path d="M9.65 -56.85 L9.65 -56.7 9.65 -56.8 9.65 -56.85 M17.6 -56.1 L17.65 -56.15 17.65 -56.1 17.6 -56.1 M18.6 -51.7 L18.25 -50.55 18.35 -51.0 18.4 -51.25 18.55 -51.5 18.6 -51.7 M17.85 -49.55 L17.8 -49.5 17.85 -49.55 M16.1 -52.3 L16.05 -52.3 16.1 -52.3 M16.75 -54.5 L16.85 -54.65 17.05 -55.0 16.85 -54.65 16.85 -54.6 16.8 -54.6 16.75 -54.5 M16.9 -49.6 L16.95 -49.55 17.0 -49.5 16.95 -49.5 16.9 -49.55 16.9 -49.6 M16.8 -48.8 L16.75 -48.75 16.75 -48.7 16.8 -48.8 M16.35 -48.8 L16.25 -49.4 16.15 -49.8 16.05 -50.4 16.45 -49.85 16.9 -49.1 16.9 -49.05 16.95 -49.05 17.0 -49.1 17.1 -49.2 17.15 -49.2 17.4 -48.65 17.2 -48.3 17.15 -48.2 17.0 -48.0 16.6 -47.35 16.55 -47.35 16.2 -47.75 16.25 -47.85 16.25 -47.9 16.2 -47.85 16.15 -47.8 16.05 -47.95 15.65 -48.2 15.65 -48.25 15.6 -48.3 15.6 -49.05 16.2 -48.85 16.35 -48.8 M8.6 -48.95 L8.45 -48.1 8.15 -47.65 8.05 -47.55 8.0 -47.5 Q7.15 -47.0 6.3 -47.0 L6.4 -46.9 4.25 -46.9 3.55 -47.0 3.6 -47.15 Q2.85 -47.95 2.45 -48.85 L3.4 -49.35 Q4.45 -50.15 5.65 -50.65 L5.75 -50.7 Q5.75 -50.4 5.9 -50.15 L6.95 -50.7 7.3 -50.85 7.4 -50.75 7.25 -50.55 7.15 -50.35 6.6 -49.7 6.4 -49.5 6.35 -49.5 6.7 -49.2 Q7.5 -48.65 8.45 -48.95 L8.6 -48.95 M6.65 -47.7 L6.7 -47.7 6.65 -47.8 6.65 -47.7 M16.35 -48.05 L16.4 -48.0 16.4 -48.05 16.35 -48.05" fill="#ffffff" fill-rule="evenodd" stroke="none"/>
      <path d="M9.5 -47.2 Q11.2 -47.85 12.9 -47.8 L15.25 -47.4 15.3 -47.4 15.35 -47.35 15.5 -47.3 15.95 -47.15 16.15 -46.8 16.1 -46.7 Q16.1 -46.5 16.25 -46.4 L16.3 -46.2 16.2 -46.3 15.8 -46.65 15.65 -46.6 15.6 -46.6 15.5 -46.45 15.75 -45.85 15.6 -45.9 16.05 -45.35 Q17.8 -43.75 20.1 -42.8 L16.65 -41.75 17.95 -41.6 Q19.85 -42.25 21.8 -42.4 L22.25 -42.45 24.9 -42.35 25.1 -42.3 27.15 -41.65 Q28.65 -41.1 28.1 -39.7 27.4 -37.95 25.5 -37.75 L25.45 -37.85 25.35 -37.95 24.1 -39.0 25.5 -38.9 25.5 -38.95 25.05 -39.5 20.3 -39.7 15.9 -39.3 Q11.05 -38.95 6.8 -40.65 5.8 -41.0 4.9 -41.5 L4.65 -41.6 4.7 -41.65 3.7 -42.6 Q2.95 -43.45 3.15 -44.45 L3.3 -44.75 3.9 -45.25 4.15 -45.1 5.05 -45.2 6.4 -45.25 7.3 -45.45 Q8.45 -45.8 9.1 -46.7 L9.5 -47.2 M23.4 -38.6 L24.7 -37.6 24.75 -37.55 Q25.4 -36.85 25.05 -35.95 L25.0 -35.85 24.85 -35.7 24.8 -35.55 24.6 -35.45 23.95 -35.5 23.05 -35.9 23.55 -36.5 23.8 -37.1 Q23.9 -37.95 23.4 -38.6" fill="#f07942" fill-rule="evenodd" stroke="none"/>
      <path d="M9.5 -47.2 L9.1 -46.7 Q8.45 -45.8 7.3 -45.45 L6.4 -45.25 5.05 -45.2 4.15 -45.1 3.9 -45.25 3.3 -44.75 3.15 -44.45 Q2.95 -43.45 3.7 -42.6 L4.7 -41.65 4.65 -41.6 Q3.2 -42.4 1.75 -43.4 0.65 -44.15 0.2 -45.45 -0.1 -46.25 -0.55 -46.85 0.35 -46.6 1.1 -45.6 L1.15 -45.55 1.2 -45.6 1.25 -45.65 1.35 -45.65 1.35 -45.7 Q1.15 -46.9 -0.05 -47.35 L-1.35 -47.65 Q-2.55 -47.75 -3.3 -46.9 L-3.3 -46.85 -3.1 -46.6 -3.0 -46.5 -2.55 -46.65 -1.4 -46.9 -1.1 -46.65 Q-0.35 -44.1 1.85 -42.5 7.15 -38.7 13.65 -38.75 L15.8 -38.8 21.6 -39.1 22.4 -39.1 23.4 -38.6 Q23.9 -37.95 23.8 -37.1 L23.55 -36.5 23.05 -35.9 Q19.7 -37.25 16.1 -36.85 11.45 -36.35 7.0 -37.6 -0.55 -39.7 -4.95 -45.7 L-4.95 -45.75 -4.95 -45.85 -5.2 -46.3 Q-5.8 -46.9 -5.9 -47.75 L-5.9 -47.9 Q-5.8 -48.05 -5.85 -48.25 L-5.85 -48.4 -5.0 -49.15 Q-4.2 -49.65 -3.25 -49.45 L-3.2 -49.5 -3.15 -49.55 -3.1 -49.55 Q-1.15 -49.35 0.35 -48.15 1.45 -47.25 2.65 -46.8 L2.75 -46.6 Q5.2 -45.65 7.9 -46.55 L8.0 -46.6 8.9 -46.95 9.15 -47.05 9.5 -47.2" fill="#e05512" fill-rule="evenodd" stroke="none"/>
    </g>
    <g id="sprite2" transform="matrix(1.0, 0.0, 0.0, 1.0, 44.9, 27.6)">
      <use height="54.95" transform="matrix(1.0, 0.0, 0.0, 1.0, -44.9, -27.6)" width="86.4" xlink:href="#sprite3"/>
    </g>
    <g id="sprite3" transform="matrix(1.0, 0.0, 0.0, 1.0, 43.2, 27.5)">
      <use height="54.95" transform="matrix(1.0, 0.0, 0.0, 1.0, -43.2, -27.5)" width="86.4" xlink:href="#shape2"/>
    </g>
    <g id="shape2" transform="matrix(1.0, 0.0, 0.0, 1.0, 43.2, 27.5)">
      <path d="M-0.55 18.15 L-0.6 18.05 -0.55 18.05 -0.55 18.15 M-14.8 -6.15 L-14.75 -6.1 -14.8 -6.1 -14.8 -6.15 M-34.85 9.85 L-34.75 9.95 -34.85 9.95 -34.85 9.85 M-16.25 -10.2 L-16.15 -10.1 -16.2 -10.05 -16.25 -10.2" fill="#000000" fill-rule="evenodd" stroke="none"/>
      <path d="M-1.45 -23.85 L-1.35 -23.2 -1.15 -21.8 0.0 -15.1 -0.05 -15.1 -0.05 -15.0 -0.05 -14.85 0.0 -14.8 0.05 -14.75 0.1 -14.55 0.45 -14.5 0.5 -14.6 0.5 -14.65 1.5 -14.55 6.85 -14.4 6.0 -13.65 2.9 -10.9 2.5 -10.45 2.15 -10.15 2.0 -9.9 1.8 -9.7 1.8 -9.65 1.75 -9.65 1.75 -9.6 1.75 -9.1 2.1 -8.0 Q2.9 -5.2 4.05 -2.55 L-1.05 -6.4 -1.1 -6.45 -1.3 -6.55 -1.55 -6.4 -1.5 -6.3 -1.45 -6.3 -6.1 -2.35 -6.2 -2.45 -4.25 -9.1 -4.3 -9.2 -4.35 -9.3 -4.45 -9.35 -4.5 -9.35 -5.05 -10.05 Q-7.45 -12.7 -10.35 -14.6 -7.55 -14.4 -4.65 -14.5 -4.0 -14.55 -3.6 -14.85 L-3.4 -14.85 -2.9 -16.6 -1.6 -23.85 -1.45 -23.85 M34.75 9.65 L33.8 10.55 31.15 13.35 Q30.35 14.1 30.05 15.05 L29.95 15.15 29.95 15.25 30.0 15.3 29.95 15.4 30.1 15.55 Q30.65 16.55 31.65 17.3 L33.55 19.1 28.75 19.1 Q28.25 19.1 27.95 19.35 L27.9 19.35 23.4 25.8 24.2 21.55 24.35 19.45 24.25 19.0 17.9 18.9 22.5 16.25 24.25 15.0 24.4 14.9 24.4 14.85 24.6 14.65 24.55 14.55 24.5 14.45 24.45 14.45 24.6 10.65 24.6 4.8 24.85 5.45 25.85 7.4 Q27.25 9.75 28.25 12.25 L28.55 12.35 28.6 12.3 28.65 12.25 28.75 12.1 29.9 11.85 34.75 9.65 M-31.5 21.2 L-29.7 15.55 -29.65 15.45 -29.5 15.05 -29.45 14.95 -29.4 14.8 -29.45 14.7 -29.5 14.65 -29.55 14.6 -30.4 13.85 -33.25 12.35 -31.75 11.95 -30.45 11.6 -29.05 10.95 -28.8 10.95 -28.65 10.5 Q-28.15 7.25 -28.15 4.0 L-26.15 10.65 -25.95 10.75 -25.5 10.9 -19.3 10.6 -20.85 12.1 -22.5 13.5 -23.8 14.9 -23.85 15.0 -23.9 15.15 -23.85 15.25 -23.6 15.8 -23.6 15.95 Q-22.8 18.9 -21.55 21.65 L-21.55 21.8 -21.55 21.9 -21.15 22.65 -24.2 20.4 -24.2 20.35 -27.05 18.0 -27.05 17.95 -27.15 17.8 Q-27.55 17.6 -27.75 18.0 L-31.45 21.25 -31.5 21.2" fill="#ffff66" fill-rule="evenodd" stroke="none"/>
      <path d="M-6.1 -2.35 L-1.45 -6.3 -1.5 -6.3 -1.55 -6.4 -1.3 -6.55 -1.1 -6.45 -1.05 -6.4 4.05 -2.55 Q2.9 -5.2 2.1 -8.0 L1.75 -9.1 1.75 -9.6 1.75 -9.65 1.8 -9.65 1.8 -9.7 2.0 -9.9 2.15 -10.15 2.5 -10.45 2.9 -10.9 6.0 -13.65 6.85 -14.4 1.5 -14.55 0.5 -14.65 0.5 -14.6 0.45 -14.5 0.1 -14.55 0.05 -14.75 0.0 -14.8 -0.05 -14.85 -0.05 -15.0 -0.05 -15.1 0.0 -15.1 -1.15 -21.8 -1.35 -23.2 -1.45 -23.85 -1.5 -24.25 -1.6 -23.85 -2.9 -16.6 -3.4 -14.85 -3.6 -14.85 Q-4.0 -14.55 -4.65 -14.5 -7.55 -14.4 -10.35 -14.6 -7.45 -12.7 -5.05 -10.05 L-4.5 -9.35 -4.45 -9.35 -4.35 -9.3 -4.3 -9.2 -4.25 -9.1 -6.2 -2.45 -6.25 -2.25 -6.1 -2.35 M0.45 -15.3 L7.85 -15.0 7.9 -15.0 7.95 -14.95 8.0 -14.85 8.0 -14.75 7.5 -14.1 2.25 -9.45 Q3.3 -6.2 4.65 -3.05 L4.8 -2.45 5.25 -1.5 5.3 -1.3 5.3 -1.25 5.35 -1.2 5.35 -1.05 5.3 -0.95 4.8 -0.9 4.6 -1.2 3.9 -1.7 2.75 -2.65 Q0.7 -4.25 -1.15 -6.0 L-3.9 -3.45 -6.85 -0.8 -7.15 -0.85 Q-7.35 -1.15 -7.2 -1.4 L-7.1 -1.5 Q-6.05 -5.0 -5.15 -8.5 L-4.95 -8.95 -5.75 -9.8 -6.8 -10.95 -10.9 -14.45 -10.85 -14.6 -10.85 -14.65 -10.9 -14.7 -10.9 -14.75 -10.9 -14.85 -10.85 -14.95 -4.5 -15.35 -4.0 -15.35 -3.9 -15.85 -3.85 -15.95 -3.7 -16.15 -3.35 -18.55 -2.0 -25.75 -1.4 -27.5 -1.15 -26.65 -0.95 -25.45 Q-0.65 -21.75 0.05 -18.1 L0.45 -15.3 M34.75 9.65 L29.9 11.85 28.75 12.1 28.65 12.25 28.6 12.3 28.55 12.35 28.25 12.25 Q27.25 9.75 25.85 7.4 L24.85 5.45 24.6 4.8 24.6 10.65 24.45 14.45 24.5 14.45 24.55 14.55 24.6 14.65 24.4 14.85 24.4 14.9 24.25 15.0 22.5 16.25 17.9 18.9 24.25 19.0 24.35 19.45 24.2 21.55 23.4 25.8 27.9 19.35 27.95 19.35 Q28.25 19.1 28.75 19.1 L33.55 19.1 31.65 17.3 Q30.65 16.55 30.1 15.55 L29.95 15.4 30.0 15.3 29.95 15.25 29.95 15.15 30.05 15.05 Q30.35 14.1 31.15 13.35 L33.8 10.55 34.75 9.65 M36.2 8.3 L36.3 8.3 36.4 8.35 Q36.5 9.2 35.6 9.8 L34.15 11.1 30.55 15.25 34.45 19.05 34.5 19.05 34.6 19.05 34.7 19.1 34.75 19.2 34.8 19.35 34.8 19.4 34.85 19.55 Q34.5 20.05 34.05 19.7 L28.25 19.8 23.55 26.8 23.15 27.4 22.65 27.4 Q22.7 25.6 23.05 23.75 L23.45 21.4 23.8 19.55 16.75 19.35 16.5 19.05 22.85 15.1 24.0 14.5 23.8 7.55 Q23.8 5.3 24.15 3.2 L24.35 3.15 24.5 3.15 24.55 3.25 24.65 3.3 Q26.05 6.65 27.75 9.8 L28.7 11.6 Q29.2 11.2 29.9 11.0 L31.6 10.35 Q33.9 9.25 36.2 8.3 M-17.65 10.0 L-17.65 10.1 -23.0 14.9 -23.25 15.1 -23.25 15.2 -23.2 15.3 -20.95 21.4 -20.95 21.55 Q-20.75 21.8 -20.7 22.1 L-20.7 22.2 Q-20.15 23.0 -19.85 23.95 L-19.8 24.0 -19.8 24.1 -19.75 24.3 -19.7 24.35 -19.85 24.5 -19.95 24.6 -20.25 24.55 -20.5 24.05 -21.5 23.3 -25.75 19.9 -27.35 18.55 -32.2 22.8 -32.75 22.65 -32.6 22.1 -32.55 22.05 Q-31.35 19.15 -30.45 16.15 L-30.45 16.1 -30.05 14.95 -30.75 14.55 Q-32.5 13.35 -34.4 12.35 L-34.4 12.3 -34.4 12.15 Q-33.05 11.5 -31.5 11.2 L-29.25 10.45 -29.2 10.3 -29.2 10.2 -29.15 10.1 -28.95 7.75 -28.9 7.55 -28.75 4.05 -28.7 3.8 Q-28.85 3.25 -28.65 2.65 L-28.55 2.55 -28.45 2.45 -28.35 2.4 -28.2 2.45 Q-28.05 2.65 -28.05 2.9 -27.4 4.05 -27.2 5.45 L-27.2 5.5 -25.55 10.35 -18.25 9.8 -17.85 9.85 -17.75 9.85 -17.7 9.9 -17.65 10.0 M-31.45 21.25 L-27.75 18.0 Q-27.55 17.6 -27.15 17.8 L-27.05 17.95 -27.05 18.0 -24.2 20.35 -24.2 20.4 -21.15 22.65 -21.55 21.9 -21.55 21.8 -21.55 21.65 Q-22.8 18.9 -23.6 15.95 L-23.6 15.8 -23.85 15.25 -23.9 15.15 -23.85 15.0 -23.8 14.9 -22.5 13.5 -20.85 12.1 -19.3 10.6 -25.5 10.9 -25.95 10.75 -26.15 10.65 -28.15 4.0 Q-28.15 7.25 -28.65 10.5 L-28.8 10.95 -29.05 10.95 -30.45 11.6 -31.75 11.95 -33.25 12.35 -30.4 13.85 -29.55 14.6 -29.5 14.65 -29.45 14.7 -29.4 14.8 -29.45 14.95 -29.5 15.05 -29.65 15.45 -29.7 15.55 -31.5 21.2 -31.55 21.3 -31.45 21.25" fill="#ff6600" fill-rule="evenodd" stroke="none"/>
      <path d="M3.05 -17.7 Q10.45 -17.05 17.65 -15.3 24.85 -13.55 31.75 -10.8 36.4 -8.95 40.4 -6.25 32.6 -9.85 24.1 -12.8 18.7 -14.65 13.05 -15.7 L2.3 -17.4 2.7 -17.65 3.05 -17.7 M4.4 -9.65 L6.05 -10.05 11.55 -10.5 Q18.95 -10.55 26.25 -9.1 33.55 -7.6 40.15 -4.25 41.15 -3.75 41.95 -3.05 L42.25 -2.75 Q38.6 -5.05 34.35 -6.3 27.35 -8.4 20.1 -9.25 12.5 -10.2 4.95 -9.6 L4.4 -9.65 M22.55 -4.9 Q29.95 -4.4 37.05 -2.0 40.65 -0.75 42.65 2.35 L43.1 3.65 Q43.6 6.7 40.95 7.2 41.9 6.6 42.25 5.4 43.35 2.0 40.15 0.5 31.2 -3.65 21.45 -4.8 L22.55 -4.9 M-0.55 18.05 Q8.45 17.3 17.35 15.35 L21.7 14.05 22.15 14.25 22.2 14.35 Q15.05 17.3 7.05 17.9 L-0.55 18.15 -0.55 18.05 M17.15 22.35 Q5.6 25.05 -6.25 22.35 L-11.7 20.9 Q-13.85 20.3 -14.9 19.15 -8.0 21.65 -0.55 22.5 6.9 23.4 14.3 22.55 L17.15 22.35 M19.55 9.5 L21.55 9.15 Q14.75 11.75 7.2 11.75 L-2.2 11.9 -13.4 11.9 8.15 10.75 19.55 9.5 M-27.6 -0.75 Q-31.45 0.25 -32.25 3.85 -32.8 6.45 -30.85 8.4 -32.5 8.0 -32.95 6.0 -33.5 3.8 -32.3 1.9 -30.8 -0.55 -27.95 -1.35 L-26.05 -2.05 Q-25.9 -1.2 -27.6 -0.75 M-16.2 -10.05 Q-23.2 -8.35 -30.15 -5.35 -34.25 -3.55 -36.9 -0.35 -28.65 -4.95 -19.15 -6.25 L-16.9 -6.4 -14.8 -6.15 -14.8 -6.1 Q-21.6 -5.5 -28.2 -3.45 -34.05 -1.65 -38.7 2.2 L-38.75 2.25 Q-39.8 4.05 -38.8 5.9 -37.55 8.2 -35.35 9.55 L-34.85 9.85 -34.85 9.95 Q-37.6 9.8 -39.2 7.3 -40.45 5.35 -40.15 3.45 L-40.45 3.7 Q-43.05 6.2 -41.95 9.5 -40.75 13.1 -37.35 15.1 L-35.2 16.3 -32.95 17.15 -32.85 17.25 -32.8 17.3 -32.4 17.4 -32.25 17.45 -32.2 17.65 -32.25 17.7 -32.3 17.75 -33.05 17.95 Q-38.35 16.35 -41.7 12.0 -44.35 8.5 -42.25 4.7 -41.05 2.55 -39.15 1.1 -36.75 -2.65 -32.75 -4.75 -25.3 -8.6 -17.15 -10.35 L-16.25 -10.2 -16.2 -10.05" fill="#999999" fill-rule="evenodd" stroke="none"/>
    </g>
  </defs>
</svg>
