<?xml version="1.0" encoding="UTF-8" standalone="no"?>
<svg xmlns:xlink="http://www.w3.org/1999/xlink" height="136.3px" width="147.5px" xmlns="http://www.w3.org/2000/svg">
  <g transform="matrix(1.0, 0.0, 0.0, 1.0, 93.2, 129.25)">
    <use height="136.9" transform="matrix(0.512, 0.0, 0.0, 0.512, -43.5784, -63.3449)" width="142.5" xlink:href="#sprite0"/>
    <use height="56.55" transform="matrix(0.4979, -0.1174, 0.1174, 0.4979, -56.3978, -88.7718)" width="89.0" xlink:href="#sprite1"/>
  </g>
  <defs>
    <g id="sprite0" transform="matrix(1.0, 0.0, 0.0, 1.0, 71.25, 68.45)">
      <use height="136.9" transform="matrix(1.0, 0.0, 0.0, 1.0, -71.25, -68.45)" width="142.5" xlink:href="#shape0"/>
    </g>
    <g id="shape0" transform="matrix(1.0, 0.0, 0.0, 1.0, 71.25, 68.45)">
      <path d="M12.0 -18.6 L15.75 -16.5 Q18.0 -15.1 20.1 -13.35 L20.9 -12.65 23.45 -10.25 Q26.2 -7.45 28.55 -4.2 L30.4 -1.4 31.25 0.05 33.3 4.25 34.85 8.7 35.65 12.1 35.65 12.15 36.0 14.05 36.15 14.7 36.25 15.05 Q36.95 17.15 37.1 19.45 L42.6 25.0 44.8 24.75 Q51.05 24.65 51.05 30.6 61.35 32.65 68.15 40.55 73.75 47.05 69.3 53.75 67.7 55.8 65.3 56.45 60.25 57.8 56.25 54.35 51.6 50.35 48.0 45.55 47.7 50.35 43.2 52.0 39.8 53.15 36.85 51.15 38.95 45.05 37.8 38.7 L37.45 38.55 Q34.6 45.55 28.15 49.65 21.4 53.9 13.2 52.5 L11.85 52.15 Q12.05 56.85 12.75 61.5 12.9 62.4 12.4 63.1 L12.3 63.15 Q11.75 64.45 10.0 65.05 -0.05 68.65 -10.75 68.45 L-19.0 67.95 -19.6 67.85 Q-23.55 67.35 -27.35 66.2 -30.5 65.2 -32.35 62.75 L-32.5 62.75 -32.75 62.65 -32.95 62.5 -33.05 62.4 -33.2 62.25 Q-33.6 60.05 -32.8 58.0 -32.05 55.9 -30.85 54.05 L-30.1 52.95 Q-34.15 55.3 -39.0 56.1 L-49.15 56.55 -52.3 56.2 Q-58.45 55.3 -64.0 52.5 -65.1 51.9 -65.6 50.95 L-65.95 50.85 -66.05 50.75 Q-65.55 48.4 -64.1 46.3 -61.1 41.95 -56.6 39.0 -51.15 35.35 -44.6 35.05 -41.9 34.7 -39.8 35.7 -39.95 31.15 -38.75 26.75 -36.6 18.85 -31.35 12.75 -29.3 10.3 -26.4 9.1 L-25.75 8.85 -25.35 8.8 Q-22.55 9.65 -20.55 11.75 -18.15 7.3 -18.25 2.05 L-20.1 3.1 Q-28.0 7.45 -37.0 8.2 L-51.55 9.45 Q-53.15 9.65 -54.55 10.4 L-55.65 10.95 Q-58.2 12.2 -60.9 12.8 -61.75 12.95 -62.4 12.5 -65.1 10.7 -64.3 8.35 L-65.15 8.35 -65.7 8.25 -65.8 8.15 -65.9 8.1 -66.05 8.05 -66.25 8.05 -66.35 8.1 -66.5 8.05 Q-68.65 7.4 -69.9 5.65 -73.2 1.3 -68.5 -1.75 L-68.35 -1.85 -68.0 -2.1 Q-66.5 -2.85 -64.8 -3.1 L-58.15 -3.85 Q-52.2 -5.65 -47.75 -9.9 -48.1 -10.35 -48.05 -10.9 L-48.1 -11.6 -48.05 -11.75 -48.0 -12.0 -48.75 -12.6 -51.2 -12.55 Q-52.25 -12.65 -53.1 -13.15 L-53.3 -13.4 -53.3 -13.7 -52.35 -13.6 -50.15 -14.1 -51.3 -15.75 -51.8 -16.55 -52.2 -17.35 -52.5 -18.05 -52.55 -18.0 -53.0 -18.95 -52.95 -19.05 -54.05 -21.85 -54.1 -21.85 -54.65 -24.05 -54.8 -24.6 Q-56.05 -29.75 -55.75 -35.25 L-55.8 -35.4 -55.25 -37.25 Q-54.05 -45.95 -46.5 -51.45 -45.7 -52.0 -44.7 -52.35 L-45.1 -52.45 Q-49.65 -53.55 -54.4 -53.55 L-54.65 -53.85 -54.8 -54.15 -54.8 -54.3 -54.4 -54.8 Q-50.85 -55.05 -49.15 -58.0 L-48.85 -58.05 -48.3 -57.9 -48.3 -57.85 -40.1 -56.85 -46.95 -59.3 -47.6 -59.25 -47.75 -59.45 -47.8 -59.75 -47.7 -59.8 -47.45 -60.3 -47.25 -60.35 -47.05 -60.4 -46.6 -60.3 -46.25 -60.2 Q-40.15 -62.3 -38.3 -68.3 L-38.15 -68.3 -38.1 -68.4 -37.9 -68.45 Q-36.7 -67.25 -35.25 -66.35 L-29.85 -63.2 -28.5 -62.45 -17.85 -56.85 -17.7 -56.75 Q-16.4 -55.95 -15.25 -54.95 L-15.1 -54.9 -14.8 -54.8 -13.3 -53.55 Q-6.55 -48.2 -4.25 -39.9 L-4.25 -39.75 -4.25 -39.45 Q-3.1 -33.95 -3.9 -28.35 -4.3 -26.0 -4.85 -23.7 L-5.1 -22.85 1.95 -22.05 6.4 -20.9 8.25 -20.25 12.0 -18.6 M19.35 -12.7 Q17.15 -14.55 14.75 -16.0 L11.2 -17.95 5.9 -20.0 1.05 -21.15 0.3 -21.3 -4.25 -21.85 -5.65 -21.95 -5.85 -21.75 -6.1 -21.6 -5.65 -21.45 -4.3 -21.0 Q-3.0 -20.45 -2.45 -19.15 L-2.4 -19.0 -2.3 -18.65 -2.0 -17.3 0.0 -17.65 3.8 -17.25 6.7 -16.3 8.15 -15.55 10.0 -14.2 10.6 -13.7 12.75 -11.3 13.85 -9.95 16.7 -7.15 17.5 -6.55 Q19.55 -5.0 21.85 -3.8 L25.1 -2.4 25.35 -2.3 27.0 -1.55 27.4 -1.55 27.6 -1.5 27.75 0.6 27.45 1.95 26.2 4.05 25.85 4.55 24.4 6.05 25.6 7.2 27.1 8.7 30.4 12.05 31.0 12.7 34.3 16.35 36.0 18.25 35.45 15.7 35.2 15.2 35.0 13.6 35.0 13.2 34.95 12.6 34.5 11.15 33.95 8.7 33.15 6.15 32.5 4.45 Q31.6 2.25 30.4 0.2 L29.0 -1.95 27.45 -4.1 22.5 -9.8 22.15 -10.15 19.35 -12.7 M19.15 9.0 L22.05 7.15 Q23.75 5.9 24.9 4.35 26.1 2.7 26.7 0.65 L27.0 -0.55 26.7 -0.75 26.45 -0.9 25.95 -1.05 Q22.75 -2.1 19.95 -3.8 17.75 -5.1 15.75 -6.8 L15.2 -7.25 12.7 -9.65 11.5 -10.9 9.6 -13.1 7.25 -14.85 Q5.15 -16.1 2.65 -16.35 L-1.9 -16.2 -2.05 -16.15 Q-2.2 -14.95 -3.0 -14.0 -3.5 -12.45 -4.3 -11.05 L-5.35 -9.5 -6.65 -7.85 Q-8.1 -6.15 -9.7 -4.6 L-12.9 -1.75 -15.4 0.15 -14.75 2.2 -13.25 6.7 -12.25 9.55 -11.8 10.8 -11.2 12.6 -11.1 12.55 -10.85 12.55 -10.6 12.95 -10.6 13.05 -10.95 13.5 -10.5 14.75 -9.7 17.4 -9.4 18.4 -9.55 18.55 -7.95 19.75 -7.95 19.7 -7.8 19.65 -7.6 19.6 -7.6 19.55 Q-2.45 19.25 2.55 20.4 3.4 18.35 4.5 16.45 5.45 14.75 6.55 13.15 L7.3 12.3 6.4 12.15 6.2 12.05 6.1 12.0 6.05 11.95 Q5.15 9.85 4.05 7.9 L1.2 3.45 0.95 3.1 0.75 2.85 -0.1 1.75 -0.15 1.7 -0.85 0.55 -0.5 -0.15 2.6 3.5 Q4.15 5.6 5.3 8.0 L6.15 9.9 6.6 10.95 Q13.35 12.05 19.15 9.0 M54.65 33.15 Q48.8 29.85 43.1 33.4 40.3 35.1 38.45 37.85 41.0 44.3 37.95 50.5 40.9 52.6 43.95 50.7 46.35 49.1 46.75 46.25 46.85 45.4 46.5 44.65 L43.2 43.65 Q48.55 43.4 51.55 48.2 54.9 53.6 60.85 55.0 66.65 56.3 69.25 51.3 70.15 49.5 69.65 47.4 67.4 38.4 58.45 34.7 L54.65 33.15 M41.35 26.5 Q40.1 26.85 39.05 27.55 L38.45 28.05 Q37.35 28.95 36.6 30.35 L36.15 31.15 35.85 31.95 35.75 32.25 35.65 32.45 Q35.3 33.75 35.55 34.9 L35.85 35.7 Q36.35 36.65 37.5 37.45 L37.7 37.6 Q42.0 30.95 49.85 30.4 48.95 25.7 43.6 26.1 L41.35 26.5 M60.15 45.1 L61.6 46.7 62.6 44.9 Q58.6 41.65 53.9 39.85 L60.15 45.1 M59.45 41.8 L63.3 44.55 Q63.55 45.25 63.25 45.9 L61.7 47.5 Q56.45 41.65 49.2 38.65 54.4 38.1 59.45 41.8 M64.1 42.0 Q58.55 37.2 51.65 34.5 57.35 34.9 62.2 37.95 L65.9 40.15 64.1 42.0 M64.6 39.95 L58.65 36.65 64.45 41.05 64.6 39.95 M25.2 8.0 L23.8 6.6 19.7 9.55 19.7 9.6 16.85 10.9 18.95 12.8 19.85 13.6 Q23.75 17.15 27.35 21.0 L29.15 22.85 35.9 29.65 Q36.9 28.0 38.3 26.9 L38.8 26.5 38.95 26.4 Q40.15 25.6 41.6 25.2 L35.95 19.8 32.95 16.5 29.7 12.85 28.65 11.55 28.5 11.25 28.1 10.85 25.9 8.7 25.2 8.0 M32.0 27.4 L26.45 21.6 21.7 16.8 20.8 15.9 17.85 13.2 17.1 12.55 15.7 11.3 15.2 11.45 15.35 11.6 16.7 13.0 Q19.35 16.05 21.15 19.65 L22.05 21.6 22.25 21.7 22.4 21.9 22.5 22.05 Q27.8 23.95 31.75 27.75 L31.85 27.8 34.35 30.55 35.0 31.45 35.0 31.4 35.4 30.55 32.1 27.5 32.0 27.4 M22.6 23.0 L22.55 22.95 22.55 23.0 Q23.85 26.55 24.8 30.15 25.55 32.9 25.5 35.7 L25.4 37.55 25.7 36.8 Q25.6 36.15 25.75 35.7 25.85 35.15 26.25 34.8 L26.25 34.75 26.55 34.95 26.6 35.0 Q26.9 37.4 25.95 39.25 24.95 41.0 22.7 42.2 L21.55 42.75 Q17.35 44.45 13.35 42.3 L13.3 41.9 13.35 41.7 14.1 41.85 15.35 42.0 15.3 41.8 Q14.95 35.8 13.05 30.15 12.35 33.15 12.25 36.3 11.9 39.05 11.8 41.85 11.55 46.2 11.75 50.6 L11.75 50.65 13.3 50.85 Q15.4 51.55 17.65 51.45 L21.6 50.85 Q29.9 48.7 34.35 41.5 L36.65 37.95 36.45 37.7 Q34.5 36.35 34.7 33.7 L34.7 33.35 34.7 33.3 Q31.35 28.6 26.5 25.4 L22.6 23.0 M21.7 41.05 L23.05 40.3 24.45 39.0 Q24.5 32.65 22.55 26.7 21.2 22.7 19.3 19.1 L17.95 16.8 Q16.75 14.65 15.2 12.8 L14.25 11.75 13.75 11.85 11.15 12.3 8.35 12.35 6.9 14.7 6.8 14.85 6.4 15.15 5.65 16.5 Q2.7 21.95 1.35 28.05 0.1 33.85 -0.35 39.75 L-0.55 42.6 -0.5 43.05 -0.4 43.15 -0.3 43.25 -0.25 43.4 -0.2 43.5 -0.2 43.6 -0.25 43.8 -0.35 43.85 -0.35 43.95 Q-0.3 44.55 -0.7 44.95 L-0.85 45.05 -1.25 44.8 -1.3 44.05 -3.8 43.9 -4.2 43.85 Q-7.6 43.6 -11.1 43.75 -16.2 43.9 -20.65 46.15 -25.25 48.5 -28.55 52.35 -31.95 56.3 -32.25 61.4 -30.75 63.15 -28.65 64.25 L-28.5 63.45 -28.35 63.1 Q-27.95 61.85 -26.85 60.8 L-25.25 59.15 Q-19.45 53.6 -11.7 51.95 L-10.65 52.1 -10.55 52.15 Q-17.45 54.35 -23.15 59.05 -25.85 61.25 -27.65 64.25 L-27.65 64.45 -27.65 64.55 -27.7 64.65 -27.7 64.7 -26.5 65.1 Q-20.1 66.75 -13.7 67.05 -4.05 67.55 5.6 65.0 L10.4 63.25 Q11.25 62.85 11.35 62.05 L10.55 52.1 10.5 51.45 10.45 51.4 10.5 51.4 Q10.15 48.1 10.35 44.7 L10.55 41.8 Q10.9 36.0 11.7 30.4 12.6 27.3 13.75 24.3 L14.2 23.9 Q14.25 23.6 14.5 23.6 14.6 25.05 14.0 26.75 L13.5 28.45 Q16.25 34.8 16.4 41.7 L16.4 42.05 18.75 41.9 21.45 41.2 21.7 41.05 M-1.45 39.4 Q-1.4 35.6 -0.7 31.8 -0.05 28.15 1.05 24.5 L2.15 21.35 -7.1 20.4 -7.15 20.4 -7.1 20.45 Q-8.55 20.95 -10.2 19.8 -12.9 18.0 -15.2 15.75 L-15.65 15.25 -15.8 15.5 -15.85 15.6 Q-16.95 20.85 -17.15 26.35 L-17.2 30.05 -17.0 33.15 -17.0 33.2 -17.0 33.25 -16.5 36.4 -14.95 41.9 -14.85 42.15 -14.5 42.2 Q-14.35 42.2 -14.35 42.35 L-14.35 42.45 -14.45 42.75 -14.65 42.8 -14.7 43.1 -14.4 43.05 -10.85 42.55 -9.75 42.5 -10.3 42.05 Q-11.95 40.65 -12.6 38.25 L-13.0 36.25 Q-13.85 30.35 -11.3 24.8 L-10.55 23.8 -10.25 23.6 Q-10.0 24.55 -10.8 25.75 L-11.25 26.6 -11.65 28.45 -11.7 28.75 Q-12.4 32.7 -11.5 36.4 L-10.55 39.3 Q-9.75 41.1 -8.35 42.45 L-6.3 42.55 -6.25 42.55 -1.4 42.9 -1.45 39.4 M47.0 54.3 L48.0 52.65 47.45 53.8 47.0 54.3 M-19.1 -55.85 L-19.3 -55.95 Q-28.1 -60.5 -36.45 -65.65 L-36.6 -65.9 -36.6 -66.05 -36.8 -66.1 -37.45 -66.6 Q-37.5 -65.55 -38.35 -64.3 -40.9 -60.85 -44.4 -59.75 -40.9 -58.8 -37.85 -56.85 L-37.8 -56.7 Q-37.75 -56.4 -38.0 -56.2 L-38.1 -56.2 Q-38.25 -55.95 -38.65 -55.95 -42.5 -55.55 -46.35 -55.95 -47.8 -56.1 -48.5 -56.7 -48.9 -55.35 -50.4 -54.65 L-49.45 -54.45 Q-46.25 -54.15 -43.3 -52.95 L-43.25 -52.85 -42.15 -53.0 -42.05 -52.9 -41.85 -52.85 -41.8 -52.8 -41.75 -52.7 -41.8 -52.5 Q-48.45 -49.75 -52.05 -43.55 L-53.25 -40.2 -53.9 -37.75 -53.95 -37.55 -54.15 -36.4 -54.15 -36.35 -54.15 -36.25 -54.1 -36.15 -54.05 -36.0 -54.15 -35.65 -54.3 -35.0 Q-52.6 -34.65 -51.35 -33.0 L-51.05 -32.55 -51.0 -32.6 -50.3 -31.55 -49.1 -29.7 Q-46.95 -26.1 -45.75 -22.15 L-45.6 -22.0 -45.55 -21.9 -45.55 -21.8 -45.55 -21.7 -45.55 -21.55 Q-44.85 -19.15 -44.5 -16.6 L-44.3 -16.7 Q-44.05 -16.75 -43.9 -16.5 L-43.8 -16.45 -44.1 -15.4 -36.95 -15.95 -33.65 -15.3 -32.5 -14.95 -32.55 -15.0 -32.85 -15.1 Q-33.45 -15.4 -33.5 -15.95 -33.6 -16.3 -33.3 -16.3 L-32.85 -16.2 Q-34.1 -18.05 -34.85 -20.25 L-36.0 -23.8 -36.1 -23.8 -36.45 -25.05 -36.35 -25.1 -37.25 -29.0 Q-38.15 -33.8 -36.6 -37.8 L-35.9 -39.45 -36.05 -39.4 -35.75 -39.95 -35.25 -40.75 -35.1 -40.8 -33.3 -42.95 -34.75 -43.2 -34.8 -43.2 Q-35.05 -43.7 -34.7 -44.0 -29.55 -44.65 -25.7 -41.15 -22.75 -38.85 -20.7 -35.55 -18.5 -31.9 -17.75 -27.95 -17.2 -24.95 -17.55 -21.75 L-17.55 -21.65 -17.6 -21.6 -17.7 -20.7 Q-18.0 -18.9 -18.75 -17.5 L-18.95 -17.1 Q-16.55 -18.5 -14.5 -20.9 L-14.15 -21.15 Q-14.0 -20.45 -14.75 -19.4 L-14.95 -19.1 -13.75 -19.9 Q-10.5 -22.2 -7.1 -21.75 -4.15 -28.9 -5.1 -36.55 -5.4 -38.75 -6.0 -40.75 -9.05 -49.4 -16.6 -54.55 L-19.1 -55.85 M-54.25 -33.85 L-54.45 -33.85 -54.45 -33.8 Q-54.55 -31.15 -54.2 -28.5 L-54.15 -28.65 -54.0 -27.15 -53.95 -26.8 -53.95 -26.7 -53.55 -25.3 -53.4 -24.65 -53.25 -24.05 -52.4 -21.25 -52.0 -20.25 -51.65 -18.95 Q-50.95 -17.1 -49.8 -15.35 L-48.9 -14.4 -48.6 -14.45 Q-46.95 -14.9 -46.0 -16.2 -45.8 -16.9 -45.9 -17.7 -46.25 -20.75 -47.5 -23.3 L-47.55 -23.45 Q-48.6 -26.2 -50.1 -28.65 L-51.35 -30.45 -51.4 -30.5 -51.45 -30.45 -51.95 -31.3 -52.25 -31.65 -52.3 -31.65 -54.25 -33.85 M-33.35 -14.2 Q-39.4 -15.85 -44.95 -13.45 L-45.0 -13.45 -45.15 -13.35 -45.45 -13.25 -46.25 -12.85 -46.6 -12.1 -46.4 -11.9 -46.75 -11.3 -46.75 -10.9 -45.9 -11.85 -45.6 -11.8 -45.25 -11.55 Q-45.4 -10.35 -46.3 -9.35 -49.7 -5.85 -54.1 -3.65 -50.5 -3.3 -47.0 -2.1 -48.0 -1.4 -49.65 -1.55 -53.5 -2.65 -57.35 -2.6 L-58.3 -2.6 -63.5 -1.95 -63.95 -1.9 -67.85 -0.3 Q-70.85 1.0 -69.5 3.75 -67.85 7.05 -64.0 7.2 L-63.9 6.95 -63.7 6.75 -61.4 4.45 -64.2 4.9 -64.15 4.85 -63.35 3.65 Q-58.8 2.25 -54.0 2.55 L-45.15 2.7 Q-35.5 2.55 -27.2 -1.35 L-23.6 -3.35 -23.2 -3.6 Q-20.35 -5.35 -17.65 -7.6 -15.55 -9.35 -14.8 -12.0 -14.4 -13.6 -13.55 -14.75 -15.35 -14.15 -16.6 -12.1 L-16.8 -12.0 -16.9 -12.05 -17.0 -12.1 -17.2 -12.15 -17.2 -12.3 Q-17.0 -14.7 -14.65 -15.8 L-12.15 -16.55 Q-9.8 -16.9 -8.1 -15.4 L-8.05 -15.25 Q-8.1 -14.9 -8.45 -14.7 L-8.55 -14.6 -8.6 -14.55 -9.6 -14.7 -11.95 -15.05 -12.4 -14.5 Q-13.25 -10.8 -15.55 -8.0 L-15.7 -7.8 -16.7 -6.75 -17.7 -5.85 Q-27.75 2.55 -40.7 3.45 L-44.9 3.55 -56.5 3.9 -58.05 4.05 -60.0 5.2 -62.4 7.3 -62.5 7.45 Q-63.7 9.0 -62.9 10.75 L-62.7 10.9 -62.45 11.2 -62.3 11.4 -61.9 11.6 -60.65 11.45 -58.9 10.5 Q-52.5 7.35 -45.2 7.55 -35.9 7.85 -27.2 4.75 -22.4 2.95 -18.3 0.45 L-17.25 -0.25 -16.65 -0.65 -15.85 -1.2 -14.6 -2.15 -13.8 -2.75 -13.45 -3.05 -13.25 -3.2 Q-9.45 -6.5 -6.4 -10.6 L-4.65 -13.25 -4.65 -13.35 -4.65 -13.5 -4.4 -14.2 -4.2 -14.45 -3.5 -15.6 -3.1 -16.85 -3.05 -17.4 -3.1 -17.7 -3.25 -18.0 -3.3 -18.1 -3.3 -18.4 -3.3 -18.45 -3.35 -18.75 -5.1 -20.05 Q-6.8 -20.95 -8.55 -20.4 L-8.7 -20.5 -8.85 -20.55 -8.95 -20.65 Q-12.75 -19.95 -15.6 -17.25 -21.95 -11.35 -30.05 -13.2 L-30.2 -13.25 -30.25 -13.25 -32.05 -13.8 -33.35 -14.2 M-18.95 -21.6 L-18.85 -22.85 -18.7 -22.75 -18.65 -24.8 Q-18.8 -28.35 -20.1 -31.65 L-20.25 -32.0 -20.25 -32.05 -21.75 -35.1 -21.85 -35.15 Q-22.4 -36.25 -23.25 -37.15 L-24.75 -38.8 -24.55 -38.65 Q-27.5 -41.55 -31.7 -42.6 L-31.9 -42.4 -32.9 -41.6 -32.95 -41.5 -33.7 -40.85 -33.6 -40.85 -34.3 -39.65 -34.4 -39.65 -34.6 -39.15 Q-35.4 -37.95 -35.8 -36.35 -36.45 -33.85 -36.2 -31.5 L-36.1 -29.7 -35.8 -27.95 Q-35.5 -25.2 -34.25 -22.65 -33.35 -19.4 -31.4 -16.4 L-30.85 -15.75 -29.6 -15.2 Q-24.8 -14.55 -20.85 -16.15 L-20.75 -16.35 Q-19.75 -18.05 -19.2 -19.9 L-18.85 -21.55 -18.95 -21.6 M-27.15 -47.85 L-27.95 -48.2 Q-30.9 -49.9 -33.7 -48.4 L-34.1 -48.5 -34.25 -48.65 -34.35 -48.8 -34.35 -48.85 Q-34.4 -49.8 -33.5 -50.1 -29.55 -50.95 -26.15 -48.7 -23.95 -47.25 -23.9 -45.2 -25.05 -45.25 -25.75 -46.3 L-27.15 -47.85 M-17.2 1.35 Q-17.15 5.95 -18.5 10.35 -18.85 11.5 -19.6 12.1 -16.1 13.3 -12.25 12.8 L-12.8 11.3 -12.8 11.25 -14.2 7.35 -15.05 4.8 -15.7 2.7 -16.25 0.75 -17.2 1.35 M-10.5 17.7 L-11.45 15.05 -11.85 14.0 -12.6 14.1 -13.05 14.15 -12.8 15.45 -12.7 15.9 -12.65 16.15 -10.85 17.55 -10.6 17.75 -10.55 17.8 Q-10.5 17.8 -10.4 17.9 L-10.5 17.7 M-14.05 14.2 L-15.25 14.15 -13.9 15.2 -14.05 14.2 M-16.15 14.35 L-16.0 14.05 -19.4 13.1 -19.45 13.1 -19.4 13.15 -17.05 16.6 -16.1 14.45 -16.15 14.35 M-18.35 24.7 L-17.8 19.45 -17.55 18.15 -17.65 18.1 -17.75 18.0 Q-20.45 12.85 -25.4 10.0 L-25.8 9.85 Q-32.35 13.25 -35.45 20.1 -37.7 25.25 -38.45 30.7 L-39.0 36.1 -38.85 36.2 -38.85 36.3 -38.85 36.35 -38.95 36.55 -38.95 36.65 -39.0 36.75 -39.05 37.45 Q-39.35 37.75 -39.7 37.45 L-39.75 36.65 Q-46.4 35.65 -52.65 38.15 -58.35 40.45 -61.95 45.35 -63.65 47.6 -64.95 50.05 L-61.4 52.35 Q-60.65 50.1 -59.0 48.0 -55.45 43.4 -50.0 41.75 L-49.1 41.55 -48.35 41.6 -48.2 41.65 Q-54.9 44.1 -58.9 50.4 L-60.55 52.75 Q-58.3 53.8 -55.85 54.4 -51.6 55.45 -47.2 55.55 L-40.65 55.05 Q-35.7 54.25 -31.3 52.0 L-29.15 50.95 -28.45 50.9 -27.9 50.3 Q-28.75 49.0 -28.85 47.15 -29.25 40.0 -27.3 33.1 -26.0 28.45 -23.25 24.55 L-22.3 23.55 -22.15 23.5 -22.0 23.45 Q-21.75 23.45 -21.6 23.7 L-21.6 23.8 -23.2 26.4 -18.4 31.75 -18.4 25.35 -18.35 24.7 M-26.95 37.1 Q-28.1 43.45 -27.45 49.85 -24.0 46.45 -19.2 44.5 L-15.5 43.3 -15.85 43.0 Q-21.2 43.65 -25.85 40.8 -26.55 40.35 -26.4 39.5 -22.9 36.25 -18.05 35.7 L-18.3 33.3 -21.2 30.65 -23.85 27.7 Q-26.05 32.1 -26.95 37.1 M-25.3 39.8 Q-23.35 41.35 -20.55 41.55 L-16.65 41.95 -17.3 40.1 -17.9 36.65 -17.95 36.65 Q-19.5 37.5 -21.45 37.9 -23.65 38.35 -25.3 39.8" fill="#000000" fill-rule="evenodd" stroke="none"/>
      <path d="M14.75 -16.0 Q17.15 -14.55 19.35 -12.7 17.75 -11.5 15.9 -10.7 L13.85 -9.95 12.75 -11.3 10.6 -13.7 10.85 -13.8 14.75 -16.0 M22.15 -10.15 L22.5 -9.8 27.45 -4.1 24.35 -3.9 21.85 -3.8 Q19.55 -5.0 17.5 -6.55 L16.7 -7.15 19.1 -8.15 22.35 -9.7 22.15 -10.15 M30.4 0.2 Q31.6 2.25 32.5 4.45 L29.15 4.8 25.85 4.55 26.2 4.05 27.45 1.95 27.75 0.6 30.4 0.2 M33.95 8.7 L34.5 11.15 34.95 12.6 35.0 13.2 35.0 13.6 Q33.3 12.8 31.4 12.35 L30.4 12.05 27.1 8.7 31.8 8.7 33.95 8.7 M8.15 -15.55 L6.7 -16.3 3.8 -17.25 4.6 -18.15 5.9 -20.0 11.2 -17.95 Q9.75 -16.7 8.15 -15.55 M-2.3 -18.65 L-2.4 -19.0 -2.45 -19.15 Q-3.0 -20.45 -4.3 -21.0 L-4.25 -21.85 0.3 -21.3 1.05 -21.15 0.6 -20.75 -2.3 -18.65 M-4.3 -11.05 Q-3.5 -12.45 -3.0 -14.0 -2.2 -14.95 -2.05 -16.15 L-1.9 -16.2 2.65 -16.35 Q5.15 -16.1 7.25 -14.85 L9.6 -13.1 11.5 -10.9 12.7 -9.65 15.2 -7.25 15.75 -6.8 Q17.75 -5.1 19.95 -3.8 22.75 -2.1 25.95 -1.05 L26.45 -0.9 26.7 -0.75 27.0 -0.55 26.7 0.65 Q26.1 2.7 24.9 4.35 23.75 5.9 22.05 7.15 L19.15 9.0 Q18.0 7.85 15.9 6.9 L14.1 5.7 Q10.0 2.05 5.4 -1.1 3.9 -2.1 2.6 -3.35 1.65 -4.25 0.65 -4.6 L0.3 -3.6 0.15 -2.95 -0.1 -1.05 -0.5 -0.15 -0.85 0.55 -0.15 1.7 -0.1 1.75 -0.2 1.7 Q-1.4 1.0 -1.45 -0.3 L-1.45 -1.15 -2.7 -1.15 -5.2 -0.9 -6.2 -0.75 Q-10.6 0.0 -14.75 2.2 L-15.4 0.15 -12.9 -1.75 -9.7 -4.6 -6.7 -5.6 -1.6 -6.7 -1.5 -9.8 -1.15 -12.05 -1.2 -12.05 Q-2.95 -11.95 -4.3 -11.05 M0.95 3.1 L1.2 3.45 4.05 7.9 Q-4.4 7.45 -11.8 10.8 L-12.25 9.55 -13.25 6.7 Q-9.75 4.45 -5.75 3.75 L-3.7 3.45 -3.15 3.4 Q-1.0 3.1 0.95 3.4 L0.95 3.1 M6.4 12.15 L7.3 12.3 6.55 13.15 Q5.45 14.75 4.5 16.45 L-0.1 16.2 Q-5.1 15.95 -9.7 17.4 L-10.5 14.75 -5.05 13.05 Q-2.45 12.25 0.4 12.15 L1.9 12.1 6.05 12.0 6.4 12.15 M-17.2 1.35 L-16.25 0.75 -15.7 2.7 -15.05 4.8 -14.2 7.35 -12.8 11.25 -12.8 11.3 -12.25 12.8 Q-16.1 13.3 -19.6 12.1 -18.85 11.5 -18.5 10.35 -17.15 5.95 -17.2 1.35" fill="#3399ff" fill-rule="evenodd" stroke="none"/>
      <path d="M19.35 -12.7 L22.15 -10.15 22.35 -9.7 19.1 -8.15 16.7 -7.15 13.85 -9.95 15.9 -10.7 Q17.75 -11.5 19.35 -12.7 M27.45 -4.1 L29.0 -1.95 30.4 0.2 27.75 0.6 27.6 -1.5 27.4 -1.55 27.0 -1.55 25.35 -2.3 25.1 -2.4 21.85 -3.8 24.35 -3.9 27.45 -4.1 M32.5 4.45 L33.15 6.15 33.95 8.7 31.8 8.7 27.1 8.7 25.6 7.2 24.4 6.05 25.85 4.55 29.15 4.8 32.5 4.45 M35.0 13.6 L35.2 15.2 35.45 15.7 36.0 18.25 34.3 16.35 31.0 12.7 31.4 12.35 Q33.3 12.8 35.0 13.6 M10.6 -13.7 L10.0 -14.2 8.15 -15.55 Q9.75 -16.7 11.2 -17.95 L14.75 -16.0 10.85 -13.8 10.6 -13.7 M3.8 -17.25 L0.0 -17.65 -2.0 -17.3 -2.3 -18.65 0.6 -20.75 1.05 -21.15 5.9 -20.0 4.6 -18.15 3.8 -17.25 M-0.1 1.75 L0.75 2.85 0.95 3.1 0.95 3.4 Q-1.0 3.1 -3.15 3.4 L-3.7 3.45 -5.75 3.75 Q-9.75 4.45 -13.25 6.7 L-14.75 2.2 Q-10.6 0.0 -6.2 -0.75 L-5.2 -0.9 -2.7 -1.15 -1.45 -1.15 -1.45 -0.3 Q-1.4 1.0 -0.2 1.7 L-0.1 1.75 M4.05 7.9 Q5.15 9.85 6.05 11.95 L6.05 12.0 1.9 12.1 0.4 12.15 Q-2.45 12.25 -5.05 13.05 L-10.5 14.75 -10.95 13.5 -10.6 13.05 -10.6 12.95 -10.85 12.55 -11.1 12.55 -11.2 12.6 -11.8 10.8 Q-4.4 7.45 4.05 7.9 M4.5 16.45 Q3.4 18.35 2.55 20.4 -2.45 19.25 -7.6 19.55 L-7.6 19.6 -7.8 19.65 -7.95 19.7 -7.95 19.75 -9.55 18.55 -9.4 18.4 -9.7 17.4 Q-5.1 15.95 -0.1 16.2 L4.5 16.45 M-9.7 -4.6 Q-8.1 -6.15 -6.65 -7.85 L-5.35 -9.5 -4.3 -11.05 Q-2.95 -11.95 -1.2 -12.05 L-1.15 -12.05 -1.5 -9.8 -1.6 -6.7 -6.7 -5.6 -9.7 -4.6 M15.7 11.3 L17.1 12.55 17.85 13.2 20.8 15.9 21.7 16.8 26.45 21.6 32.0 27.4 31.75 27.75 Q27.8 23.95 22.5 22.05 L22.4 21.9 22.25 21.7 22.05 21.6 21.15 19.65 Q19.35 16.05 16.7 13.0 L15.35 11.6 15.7 11.3 M32.1 27.5 L35.4 30.55 35.0 31.4 35.0 31.45 34.35 30.55 31.85 27.8 32.1 27.5 M-4.75 2.55 L-4.9 2.45 -4.9 2.6 -4.75 2.55" fill="#0060bf" fill-rule="evenodd" stroke="none"/>
      <path d="M19.15 9.0 Q13.35 12.05 6.6 10.95 L6.15 9.9 5.3 8.0 Q4.15 5.6 2.6 3.5 L-0.5 -0.15 -0.1 -1.05 0.15 -2.95 0.3 -3.6 0.65 -4.6 Q1.65 -4.25 2.6 -3.35 3.9 -2.1 5.4 -1.1 10.0 2.05 14.1 5.7 L15.9 6.9 Q18.0 7.85 19.15 9.0" fill="#007dfb" fill-rule="evenodd" stroke="none"/>
      <path d="M64.6 39.95 L64.45 41.05 58.65 36.65 64.6 39.95 M64.1 42.0 L65.9 40.15 62.2 37.95 Q57.35 34.9 51.65 34.5 58.55 37.2 64.1 42.0 M59.45 41.8 Q54.4 38.1 49.2 38.65 56.45 41.65 61.7 47.5 L63.25 45.9 Q63.55 45.25 63.3 44.55 L59.45 41.8 M60.15 45.1 L53.9 39.85 Q58.6 41.65 62.6 44.9 L61.6 46.7 60.15 45.1 M41.35 26.5 L43.6 26.1 Q48.95 25.7 49.85 30.4 42.0 30.95 37.7 37.6 L37.5 37.45 Q36.35 36.65 35.85 35.7 L35.55 34.9 Q35.3 33.75 35.65 32.45 L35.75 32.25 35.85 31.95 36.15 31.15 36.6 30.35 Q37.35 28.95 38.45 28.05 L39.05 27.55 Q40.1 26.85 41.35 26.5 M54.65 33.15 L58.45 34.7 Q67.4 38.4 69.65 47.4 70.15 49.5 69.25 51.3 66.65 56.3 60.85 55.0 54.9 53.6 51.55 48.2 48.55 43.4 43.2 43.65 L46.5 44.65 Q46.85 45.4 46.75 46.25 46.35 49.1 43.95 50.7 40.9 52.6 37.95 50.5 41.0 44.3 38.45 37.85 40.3 35.1 43.1 33.4 48.8 29.85 54.65 33.15 M-47.5 -23.3 L-47.55 -23.45 -47.5 -23.3 M-51.35 -30.45 L-51.4 -30.4 -51.45 -30.45 -51.4 -30.5 -51.35 -30.45 M-19.2 -19.9 Q-19.75 -18.05 -20.75 -16.35 -19.75 -18.1 -19.25 -19.95 L-19.2 -19.9 M-20.25 -32.05 L-20.25 -32.0 -20.35 -31.95 -20.25 -32.05 M-25.3 39.8 Q-23.65 38.35 -21.45 37.9 -19.5 37.5 -17.95 36.65 L-17.9 36.65 -17.3 40.1 -16.65 41.95 -20.55 41.55 Q-23.35 41.35 -25.3 39.8" fill="#ffffff" fill-rule="evenodd" stroke="none"/>
      <path d="M31.0 12.7 L30.4 12.05 31.4 12.35 31.0 12.7" fill="#a72007" fill-rule="evenodd" stroke="none"/>
      <path d="M38.3 26.9 Q36.9 28.0 35.9 29.65 L29.15 22.85 27.35 21.0 Q23.75 17.15 19.85 13.6 L18.95 12.8 16.85 10.9 19.7 9.6 19.7 9.55 23.8 6.6 25.2 8.0 24.8 8.7 Q23.55 10.45 21.35 11.3 21.3 13.7 23.7 14.85 24.9 15.4 25.85 16.45 L31.75 22.1 33.1 23.15 35.8 25.05 Q37.15 25.9 38.3 26.9 M-13.7 67.05 Q-4.7 65.6 2.85 60.3 L4.0 59.6 4.4 59.3 5.1 54.4 5.2 48.9 Q5.1 44.95 5.55 41.1 L6.15 37.35 6.65 34.95 7.15 32.35 Q8.15 27.1 11.35 22.8 13.1 21.65 15.35 21.85 15.9 21.9 16.35 22.45 19.75 26.5 20.1 31.9 L20.4 34.4 21.4 40.8 21.45 41.1 21.45 41.2 18.75 41.9 16.4 42.05 16.4 41.7 Q16.25 34.8 13.5 28.45 L14.0 26.75 Q14.6 25.05 14.5 23.6 14.25 23.6 14.2 23.9 L13.75 24.3 Q12.6 27.3 11.7 30.4 10.9 36.0 10.55 41.8 L10.35 44.7 Q10.15 48.1 10.5 51.4 L10.45 51.4 10.5 51.45 10.55 52.1 11.35 62.05 Q11.25 62.85 10.4 63.25 L5.6 65.0 Q-4.05 67.55 -13.7 67.05 M-19.1 -55.85 L-16.6 -54.55 Q-9.05 -49.4 -6.0 -40.75 -5.4 -38.75 -5.1 -36.55 -4.15 -28.9 -7.1 -21.75 -10.5 -22.2 -13.75 -19.9 L-14.95 -19.1 -14.75 -19.4 Q-14.0 -20.45 -14.15 -21.15 L-14.5 -20.9 Q-16.55 -18.5 -18.95 -17.1 L-18.75 -17.5 Q-16.45 -19.6 -14.5 -21.95 -13.5 -23.25 -12.85 -24.8 L-12.1 -26.4 Q-11.4 -27.65 -11.0 -28.9 L-10.2 -32.55 -10.1 -34.45 -10.0 -36.15 Q-9.75 -38.5 -10.4 -40.75 -12.15 -46.65 -16.0 -51.75 L-17.3 -53.65 Q-18.05 -54.9 -19.1 -55.85 M-47.2 55.55 Q-42.8 53.35 -38.15 51.8 L-37.25 51.25 Q-36.6 50.5 -36.45 49.45 -34.75 39.9 -31.6 30.4 L-30.85 27.35 Q-30.1 23.25 -27.0 20.5 -26.6 20.15 -26.15 20.2 -21.5 20.95 -18.35 24.7 L-18.4 25.35 -18.4 31.75 -23.2 26.4 -21.6 23.8 -21.6 23.7 Q-21.75 23.45 -22.0 23.45 L-22.15 23.5 -22.3 23.55 -23.25 24.55 Q-26.0 28.45 -27.3 33.1 -29.25 40.0 -28.85 47.15 -28.75 49.0 -27.9 50.3 L-28.45 50.9 -29.15 50.95 -31.3 52.0 Q-35.7 54.25 -40.65 55.05 L-47.2 55.55" fill="#43a752" fill-rule="evenodd" stroke="none"/>
      <path d="M38.3 26.9 Q37.15 25.9 35.8 25.05 L33.1 23.15 31.75 22.1 25.85 16.45 Q24.9 15.4 23.7 14.85 21.3 13.7 21.35 11.3 23.55 10.45 24.8 8.7 L25.2 8.0 25.9 8.7 28.1 10.85 28.5 11.25 28.65 11.55 29.7 12.85 32.95 16.5 35.95 19.8 41.6 25.2 Q40.15 25.6 38.95 26.4 L38.8 26.5 38.3 26.9 M-13.7 67.05 Q-20.1 66.75 -26.5 65.1 L-27.7 64.7 -27.7 64.65 -27.65 64.55 -27.65 64.45 -27.65 64.25 Q-25.85 61.25 -23.15 59.05 -17.45 54.35 -10.55 52.15 L-10.65 52.1 -11.7 51.95 Q-19.45 53.6 -25.25 59.15 L-26.85 60.8 Q-27.95 61.85 -28.35 63.1 L-28.5 63.45 -28.65 64.25 Q-30.75 63.15 -32.25 61.4 -31.95 56.3 -28.55 52.35 -25.25 48.5 -20.65 46.15 -16.2 43.9 -11.1 43.75 -7.6 43.6 -4.2 43.85 L-3.8 43.9 -1.3 44.05 -1.25 44.8 -0.85 45.05 -0.7 44.95 Q-0.3 44.55 -0.35 43.95 L-0.35 43.85 -0.25 43.8 -0.2 43.6 -0.2 43.5 -0.25 43.4 -0.3 43.25 -0.4 43.15 -0.5 43.05 -0.55 42.6 -0.35 39.75 Q0.1 33.85 1.35 28.05 2.7 21.95 5.65 16.5 L6.4 15.15 6.8 14.85 6.9 14.7 8.35 12.35 11.15 12.3 13.75 11.85 14.25 11.75 15.2 12.8 Q16.75 14.65 17.95 16.8 L19.3 19.1 Q21.2 22.7 22.55 26.7 24.5 32.65 24.45 39.0 L23.05 40.3 21.7 41.05 21.45 41.1 21.4 40.8 20.4 34.4 20.1 31.9 Q19.75 26.5 16.35 22.45 15.9 21.9 15.35 21.85 13.1 21.65 11.35 22.8 8.15 27.1 7.15 32.35 L6.65 34.95 6.15 37.35 5.55 41.1 Q5.1 44.95 5.2 48.9 L5.1 54.4 4.4 59.3 4.0 59.6 2.85 60.3 Q-4.7 65.6 -13.7 67.05 M-18.75 -17.5 Q-18.0 -18.9 -17.7 -20.7 L-17.6 -21.6 -17.55 -21.65 -17.55 -21.75 Q-17.2 -24.95 -17.75 -27.95 -18.5 -31.9 -20.7 -35.55 -22.75 -38.85 -25.7 -41.15 -29.55 -44.65 -34.7 -44.0 -35.05 -43.7 -34.8 -43.2 L-34.75 -43.2 -33.3 -42.95 -35.1 -40.8 -35.25 -40.75 -35.75 -39.95 -36.05 -39.4 -35.9 -39.45 -36.6 -37.8 Q-38.15 -33.8 -37.25 -29.0 L-36.35 -25.1 -36.45 -25.05 -36.1 -23.8 -36.0 -23.8 -34.85 -20.25 Q-34.1 -18.05 -32.85 -16.2 L-33.3 -16.3 Q-33.6 -16.3 -33.5 -15.95 -33.45 -15.4 -32.85 -15.1 L-32.55 -15.0 -32.5 -14.95 -33.65 -15.3 -36.95 -15.95 -44.1 -15.4 -43.8 -16.45 -43.9 -16.5 Q-44.05 -16.75 -44.3 -16.7 L-44.5 -16.6 Q-44.85 -19.15 -45.55 -21.55 L-45.55 -21.7 -45.55 -21.8 -45.55 -21.9 -45.6 -22.0 -45.75 -22.15 Q-46.95 -26.1 -49.1 -29.7 L-50.3 -31.55 -51.0 -32.6 -51.05 -32.55 -51.35 -33.0 Q-52.6 -34.65 -54.3 -35.0 L-54.15 -35.65 -54.05 -36.0 -54.1 -36.15 -54.15 -36.25 -54.15 -36.35 -54.15 -36.4 -53.95 -37.55 -53.9 -37.75 -53.25 -40.2 -52.05 -43.55 Q-48.45 -49.75 -41.8 -52.5 L-41.75 -52.7 -41.8 -52.8 -41.85 -52.85 -42.05 -52.9 -42.15 -53.0 -43.25 -52.85 -43.3 -52.95 Q-46.25 -54.15 -49.45 -54.45 L-50.4 -54.65 Q-48.9 -55.35 -48.5 -56.7 -47.8 -56.1 -46.35 -55.95 -42.5 -55.55 -38.65 -55.95 -38.25 -55.95 -38.1 -56.2 L-38.0 -56.2 Q-37.75 -56.4 -37.8 -56.7 L-37.85 -56.85 Q-40.9 -58.8 -44.4 -59.75 -40.9 -60.85 -38.35 -64.3 -37.5 -65.55 -37.45 -66.6 L-36.8 -66.1 -36.6 -66.05 -36.6 -65.9 -36.45 -65.65 Q-28.1 -60.5 -19.3 -55.95 L-19.1 -55.85 Q-18.05 -54.9 -17.3 -53.65 L-16.0 -51.75 Q-12.15 -46.65 -10.4 -40.75 -9.75 -38.5 -10.0 -36.15 L-10.1 -34.45 -10.2 -32.55 -11.0 -28.9 Q-11.4 -27.65 -12.1 -26.4 L-12.85 -24.8 Q-13.5 -23.25 -14.5 -21.95 -16.45 -19.6 -18.75 -17.5 M-54.45 -33.8 L-54.25 -33.85 -52.3 -31.65 -52.25 -31.65 -51.95 -31.3 -51.45 -30.45 -51.4 -30.4 -51.35 -30.45 -50.1 -28.65 Q-48.6 -26.2 -47.55 -23.45 L-47.5 -23.3 Q-46.25 -20.75 -45.9 -17.7 -45.8 -16.9 -46.0 -16.2 -46.95 -14.9 -48.6 -14.45 L-48.9 -14.4 -49.8 -15.35 Q-50.95 -17.1 -51.65 -18.95 L-52.0 -20.25 -52.4 -21.25 -53.25 -24.05 -53.4 -24.65 -53.55 -25.3 -53.95 -26.7 -53.95 -26.8 -54.0 -27.15 -54.15 -28.65 -54.2 -28.5 Q-54.55 -31.15 -54.45 -33.8 M-20.25 -32.0 L-20.1 -31.65 Q-18.8 -28.35 -18.65 -24.8 L-18.7 -22.75 -18.85 -22.85 -18.95 -21.6 -19.25 -19.95 Q-19.75 -18.1 -20.75 -16.35 L-20.85 -16.15 Q-24.8 -14.55 -29.6 -15.2 L-30.85 -15.75 -31.4 -16.4 Q-33.35 -19.4 -34.25 -22.65 -35.5 -25.2 -35.8 -27.95 L-36.1 -29.7 -36.2 -31.5 Q-36.45 -33.85 -35.8 -36.35 -35.4 -37.95 -34.6 -39.15 L-34.4 -39.65 -34.3 -39.65 -33.6 -40.85 -33.7 -40.85 -32.95 -41.5 -32.9 -41.6 -31.9 -42.4 -31.7 -42.6 Q-27.5 -41.55 -24.55 -38.65 L-24.75 -38.8 -23.25 -37.15 Q-22.4 -36.25 -21.85 -35.15 L-21.75 -35.1 -20.25 -32.05 -20.35 -31.95 -20.25 -32.0 M-27.15 -47.85 L-25.75 -46.3 Q-25.05 -45.25 -23.9 -45.2 -23.95 -47.25 -26.15 -48.7 -29.55 -50.95 -33.5 -50.1 -34.4 -49.8 -34.35 -48.85 L-34.35 -48.8 -34.25 -48.65 -34.1 -48.5 -33.7 -48.4 Q-30.9 -49.9 -27.95 -48.2 L-27.15 -47.85 M-10.55 17.8 L-10.6 17.75 -10.85 17.55 -12.65 16.15 -12.7 15.9 -12.8 15.45 -13.05 14.15 -12.6 14.1 -11.85 14.0 -11.45 15.05 -10.5 17.7 -10.55 17.8 M-47.2 55.55 Q-51.6 55.45 -55.85 54.4 -58.3 53.8 -60.55 52.75 L-58.9 50.4 Q-54.9 44.1 -48.2 41.65 L-48.35 41.6 -49.1 41.55 -50.0 41.75 Q-55.45 43.4 -59.0 48.0 -60.65 50.1 -61.4 52.35 L-64.95 50.05 Q-63.65 47.6 -61.95 45.35 -58.35 40.45 -52.65 38.15 -46.4 35.65 -39.75 36.65 L-39.7 37.45 Q-39.35 37.75 -39.05 37.45 L-39.0 36.75 -38.95 36.65 -38.95 36.55 -38.85 36.35 -38.85 36.3 -38.85 36.2 -39.0 36.1 -38.45 30.7 Q-37.7 25.25 -35.45 20.1 -32.35 13.25 -25.8 9.85 L-25.4 10.0 Q-20.45 12.85 -17.75 18.0 L-17.65 18.1 -17.55 18.15 -17.8 19.45 -18.35 24.7 Q-21.5 20.95 -26.15 20.2 -26.6 20.15 -27.0 20.5 -30.1 23.25 -30.85 27.35 L-31.6 30.4 Q-34.75 39.9 -36.45 49.45 -36.6 50.5 -37.25 51.25 L-38.15 51.8 Q-42.8 53.35 -47.2 55.55" fill="#55bb65" fill-rule="evenodd" stroke="none"/>
      <path d="M22.55 23.0 L22.6 23.0 26.5 25.4 Q31.35 28.6 34.7 33.3 31.25 36.8 26.85 38.8 L25.95 39.25 Q26.9 37.4 26.6 35.0 L26.55 34.95 26.25 34.75 26.25 34.8 Q25.85 35.15 25.75 35.7 25.6 36.15 25.7 36.8 L25.4 37.55 25.5 35.7 Q25.55 32.9 24.8 30.15 23.85 26.55 22.55 23.0 M-7.1 20.4 L2.15 21.35 1.05 24.5 Q-0.05 28.15 -0.7 31.8 -1.4 35.6 -1.45 39.4 L-1.75 39.3 -7.1 37.5 Q-9.3 36.7 -11.5 36.4 -12.4 32.7 -11.7 28.75 L-11.65 28.45 -11.25 26.6 -10.8 25.75 Q-10.0 24.55 -10.25 23.6 L-10.55 23.8 -11.3 24.8 Q-13.85 30.35 -13.0 36.25 L-16.5 36.4 -17.0 33.25 -17.0 33.2 -17.0 33.15 -17.2 30.05 -17.15 26.35 Q-16.95 20.85 -15.85 15.6 L-15.8 15.5 -15.65 15.25 -15.2 15.75 Q-12.9 18.0 -10.2 19.8 -8.55 20.95 -7.1 20.45 L-7.1 20.4 M11.8 41.85 Q11.9 39.05 12.25 36.3 12.35 33.15 13.05 30.15 14.95 35.8 15.3 41.8 L15.35 42.0 14.1 41.85 13.35 41.7 13.3 41.9 11.8 41.85 M-14.4 43.05 L-14.7 43.1 -14.65 42.8 -14.45 42.75 -14.4 43.05" fill="#6633cc" fill-rule="evenodd" stroke="none"/>
      <path d="M-4.3 -21.0 L-5.65 -21.45 -5.85 -21.75 -5.65 -21.95 -4.25 -21.85 -4.3 -21.0 M6.05 11.95 L6.1 12.0 6.2 12.05 6.4 12.15 6.05 12.0 6.05 11.95" fill="#f02d0b" fill-rule="evenodd" stroke="none"/>
      <path d="M25.95 39.25 L26.85 38.8 Q31.25 36.8 34.7 33.3 L34.7 33.35 34.7 33.7 Q34.5 36.35 36.45 37.7 L36.65 37.95 34.35 41.5 Q29.9 48.7 21.6 50.85 L17.65 51.45 Q15.4 51.55 13.3 50.85 L11.75 50.65 11.75 50.6 Q11.55 46.2 11.8 41.85 L13.3 41.9 13.35 42.3 Q17.35 44.45 21.55 42.75 L22.7 42.2 Q24.95 41.0 25.95 39.25 M-16.5 36.4 L-13.0 36.25 -12.6 38.25 Q-11.95 40.65 -10.3 42.05 L-10.85 42.55 -14.4 43.05 -14.45 42.75 -14.35 42.45 -14.35 42.35 Q-14.35 42.2 -14.5 42.2 L-14.95 41.9 -16.5 36.4 M-11.5 36.4 Q-9.3 36.7 -7.1 37.5 L-1.75 39.3 -1.45 39.4 -1.4 42.9 -6.25 42.55 -6.3 42.55 -8.35 42.45 Q-9.75 41.1 -10.55 39.3 L-11.5 36.4" fill="#4d269b" fill-rule="evenodd" stroke="none"/>
      <path d="M31.75 27.75 L32.0 27.4 32.1 27.5 31.85 27.8 31.75 27.75" fill="#c62509" fill-rule="evenodd" stroke="none"/>
      <path d="M21.45 41.1 L21.7 41.05 21.45 41.2 21.45 41.1 M-10.55 17.8 L-10.5 17.7 -10.4 17.9 Q-10.5 17.8 -10.55 17.8" fill="#0ecfe4" fill-rule="evenodd" stroke="none"/>
      <path d="M-23.2 -3.6 L-23.6 -3.35 -27.2 -1.35 Q-35.5 2.55 -45.15 2.7 L-54.0 2.55 Q-58.8 2.25 -63.35 3.65 L-64.15 4.85 -64.2 4.9 -61.4 4.45 -63.7 6.75 -63.9 6.95 -64.0 7.2 Q-67.85 7.05 -69.5 3.75 -70.85 1.0 -67.85 -0.3 L-63.95 -1.9 -63.5 -1.95 -58.3 -2.6 -57.35 -2.6 Q-53.5 -2.65 -49.65 -1.55 -48.0 -1.4 -47.0 -2.1 -50.5 -3.3 -54.1 -3.65 -49.7 -5.85 -46.3 -9.35 -45.4 -10.35 -45.25 -11.55 L-45.6 -11.8 -45.9 -11.85 -46.75 -10.9 -46.75 -11.3 -46.4 -11.9 -46.6 -12.1 -46.25 -12.85 -45.45 -13.25 -45.15 -13.35 -45.0 -13.45 -44.95 -13.45 Q-39.4 -15.85 -33.35 -14.2 L-32.45 -13.3 Q-31.0 -11.6 -28.65 -11.15 L-26.75 -10.9 -24.1 -11.0 Q-22.1 -11.5 -20.9 -10.1 L-20.6 -9.5 Q-20.05 -7.5 -21.4 -5.75 L-23.2 -3.65 -23.2 -3.6 M-58.9 10.5 L-60.65 11.45 -61.9 11.6 -62.3 11.4 -62.45 11.2 -62.7 10.9 -62.9 10.75 Q-63.7 9.0 -62.5 7.45 L-62.4 7.3 -60.0 5.2 Q-60.95 6.6 -60.5 8.2 L-59.95 9.45 -58.9 10.5" fill="#f07942" fill-rule="evenodd" stroke="none"/>
      <path d="M-33.35 -14.2 L-32.05 -13.8 -30.25 -13.25 -30.2 -13.25 -30.05 -13.2 Q-21.95 -11.35 -15.6 -17.25 -12.75 -19.95 -8.95 -20.65 L-8.85 -20.55 -8.7 -20.5 -8.55 -20.4 Q-6.8 -20.95 -5.1 -20.05 L-3.35 -18.75 -3.3 -18.45 -3.3 -18.4 -3.3 -18.1 -3.25 -18.0 -3.1 -17.7 -3.05 -17.4 -3.1 -16.85 -3.5 -15.6 -4.2 -14.45 -4.4 -14.2 -4.65 -13.5 -4.65 -13.35 -4.65 -13.25 -6.4 -10.6 Q-9.45 -6.5 -13.25 -3.2 L-13.45 -3.05 -13.8 -2.75 -14.6 -2.15 -15.85 -1.2 -16.65 -0.65 -17.25 -0.25 -18.3 0.45 Q-22.4 2.95 -27.2 4.75 -35.9 7.85 -45.2 7.55 -52.5 7.35 -58.9 10.5 L-59.95 9.45 -60.5 8.2 Q-60.95 6.6 -60.0 5.2 L-58.05 4.05 -56.5 3.9 -44.9 3.55 -40.7 3.45 Q-27.75 2.55 -17.7 -5.85 L-16.7 -6.75 -15.7 -7.8 -15.55 -8.0 Q-13.25 -10.8 -12.4 -14.5 L-11.95 -15.05 -9.6 -14.7 -8.6 -14.55 -8.55 -14.6 -8.45 -14.7 Q-8.1 -14.9 -8.05 -15.25 L-8.1 -15.4 Q-9.8 -16.9 -12.15 -16.55 L-14.65 -15.8 Q-17.0 -14.7 -17.2 -12.3 L-17.2 -12.15 -17.0 -12.1 -16.9 -12.05 -16.8 -12.0 -16.6 -12.1 Q-15.35 -14.15 -13.55 -14.75 -14.4 -13.6 -14.8 -12.0 -15.55 -9.35 -17.65 -7.6 -20.35 -5.35 -23.2 -3.6 L-23.2 -3.65 -21.4 -5.75 Q-20.05 -7.5 -20.6 -9.5 L-20.9 -10.1 Q-22.1 -11.5 -24.1 -11.0 L-26.75 -10.9 -28.65 -11.15 Q-31.0 -11.6 -32.45 -13.3 L-33.35 -14.2" fill="#e05512" fill-rule="evenodd" stroke="none"/>
      <path d="M-18.95 -21.6 L-18.85 -21.55 -19.2 -19.9 -19.25 -19.95 -18.95 -21.6" fill="#cccccc" fill-rule="evenodd" stroke="none"/>
      <path d="M-4.75 2.55 L-4.9 2.6 -4.9 2.45 -4.75 2.55 M-14.5 42.2 L-14.85 42.15 -14.95 41.9 -14.5 42.2 M-10.85 42.55 L-10.3 42.05 -9.75 42.5 -10.85 42.55" fill="#666666" fill-rule="evenodd" stroke="none"/>
    </g>
    <g id="sprite1" transform="matrix(1.0, 0.0, 0.0, 1.0, 44.9, 27.6)">
      <use height="54.95" transform="matrix(1.0, 0.0, 0.0, 1.0, -44.9, -27.6)" width="86.4" xlink:href="#sprite2"/>
    </g>
    <g id="sprite2" transform="matrix(1.0, 0.0, 0.0, 1.0, 43.2, 27.5)">
      <use height="54.95" transform="matrix(1.0, 0.0, 0.0, 1.0, -43.2, -27.5)" width="86.4" xlink:href="#shape1"/>
    </g>
    <g id="shape1" transform="matrix(1.0, 0.0, 0.0, 1.0, 43.2, 27.5)">
      <path d="M-0.55 18.15 L-0.6 18.05 -0.55 18.05 -0.55 18.15 M-14.8 -6.15 L-14.75 -6.1 -14.8 -6.1 -14.8 -6.15 M-34.85 9.85 L-34.75 9.95 -34.85 9.95 -34.85 9.85 M-16.25 -10.2 L-16.15 -10.1 -16.2 -10.05 -16.25 -10.2" fill="#000000" fill-rule="evenodd" stroke="none"/>
      <path d="M-1.45 -23.85 L-1.35 -23.2 -1.15 -21.8 0.0 -15.1 -0.05 -15.1 -0.05 -15.0 -0.05 -14.85 0.0 -14.8 0.05 -14.75 0.1 -14.55 0.45 -14.5 0.5 -14.6 0.5 -14.65 1.5 -14.55 6.85 -14.4 6.0 -13.65 2.9 -10.9 2.5 -10.45 2.15 -10.15 2.0 -9.9 1.8 -9.7 1.8 -9.65 1.75 -9.65 1.75 -9.6 1.75 -9.1 2.1 -8.0 Q2.9 -5.2 4.05 -2.55 L-1.05 -6.4 -1.1 -6.45 -1.3 -6.55 -1.55 -6.4 -1.5 -6.3 -1.45 -6.3 -6.1 -2.35 -6.2 -2.45 -4.25 -9.1 -4.3 -9.2 -4.35 -9.3 -4.45 -9.35 -4.5 -9.35 -5.05 -10.05 Q-7.45 -12.7 -10.35 -14.6 -7.55 -14.4 -4.65 -14.5 -4.0 -14.55 -3.6 -14.85 L-3.4 -14.85 -2.9 -16.6 -1.6 -23.85 -1.45 -23.85 M34.75 9.65 L33.8 10.55 31.15 13.35 Q30.35 14.1 30.05 15.05 L29.95 15.15 29.95 15.25 30.0 15.3 29.95 15.4 30.1 15.55 Q30.65 16.55 31.65 17.3 L33.55 19.1 28.75 19.1 Q28.25 19.1 27.95 19.35 L27.9 19.35 23.4 25.8 24.2 21.55 24.35 19.45 24.25 19.0 17.9 18.9 22.5 16.25 24.25 15.0 24.4 14.9 24.4 14.85 24.6 14.65 24.55 14.55 24.5 14.45 24.45 14.45 24.6 10.65 24.6 4.8 24.85 5.45 25.85 7.4 Q27.25 9.75 28.25 12.25 L28.55 12.35 28.6 12.3 28.65 12.25 28.75 12.1 29.9 11.85 34.75 9.65 M-31.5 21.2 L-29.7 15.55 -29.65 15.45 -29.5 15.05 -29.45 14.95 -29.4 14.8 -29.45 14.7 -29.5 14.65 -29.55 14.6 -30.4 13.85 -33.25 12.35 -31.75 11.95 -30.45 11.6 -29.05 10.95 -28.8 10.95 -28.65 10.5 Q-28.15 7.25 -28.15 4.0 L-26.15 10.65 -25.95 10.75 -25.5 10.9 -19.3 10.6 -20.85 12.1 -22.5 13.5 -23.8 14.9 -23.85 15.0 -23.9 15.15 -23.85 15.25 -23.6 15.8 -23.6 15.95 Q-22.8 18.9 -21.55 21.65 L-21.55 21.8 -21.55 21.9 -21.15 22.65 -24.2 20.4 -24.2 20.35 -27.05 18.0 -27.05 17.95 -27.15 17.8 Q-27.55 17.6 -27.75 18.0 L-31.45 21.25 -31.5 21.2" fill="#ffff66" fill-rule="evenodd" stroke="none"/>
      <path d="M-6.1 -2.35 L-1.45 -6.3 -1.5 -6.3 -1.55 -6.4 -1.3 -6.55 -1.1 -6.45 -1.05 -6.4 4.05 -2.55 Q2.9 -5.2 2.1 -8.0 L1.75 -9.1 1.75 -9.6 1.75 -9.65 1.8 -9.65 1.8 -9.7 2.0 -9.9 2.15 -10.15 2.5 -10.45 2.9 -10.9 6.0 -13.65 6.85 -14.4 1.5 -14.55 0.5 -14.65 0.5 -14.6 0.45 -14.5 0.1 -14.55 0.05 -14.75 0.0 -14.8 -0.05 -14.85 -0.05 -15.0 -0.05 -15.1 0.0 -15.1 -1.15 -21.8 -1.35 -23.2 -1.45 -23.85 -1.5 -24.25 -1.6 -23.85 -2.9 -16.6 -3.4 -14.85 -3.6 -14.85 Q-4.0 -14.55 -4.65 -14.5 -7.55 -14.4 -10.35 -14.6 -7.45 -12.7 -5.05 -10.05 L-4.5 -9.35 -4.45 -9.35 -4.35 -9.3 -4.3 -9.2 -4.25 -9.1 -6.2 -2.45 -6.25 -2.25 -6.1 -2.35 M0.45 -15.3 L7.85 -15.0 7.9 -15.0 7.95 -14.95 8.0 -14.85 8.0 -14.75 7.5 -14.1 2.25 -9.45 Q3.3 -6.2 4.65 -3.05 L4.8 -2.45 5.25 -1.5 5.3 -1.3 5.3 -1.25 5.35 -1.2 5.35 -1.05 5.3 -0.95 4.8 -0.9 4.6 -1.2 3.9 -1.7 2.75 -2.65 Q0.7 -4.25 -1.15 -6.0 L-3.9 -3.45 -6.85 -0.8 -7.15 -0.85 Q-7.35 -1.15 -7.2 -1.4 L-7.1 -1.5 Q-6.05 -5.0 -5.15 -8.5 L-4.95 -8.95 -5.75 -9.8 -6.8 -10.95 -10.9 -14.45 -10.85 -14.6 -10.85 -14.65 -10.9 -14.7 -10.9 -14.75 -10.9 -14.85 -10.85 -14.95 -4.5 -15.35 -4.0 -15.35 -3.9 -15.85 -3.85 -15.95 -3.7 -16.15 -3.35 -18.55 -2.0 -25.75 -1.4 -27.5 -1.15 -26.65 -0.95 -25.45 Q-0.65 -21.75 0.05 -18.1 L0.45 -15.3 M34.75 9.65 L29.9 11.85 28.75 12.1 28.65 12.25 28.6 12.3 28.55 12.35 28.25 12.25 Q27.25 9.75 25.85 7.4 L24.85 5.45 24.6 4.8 24.6 10.65 24.45 14.45 24.5 14.45 24.55 14.55 24.6 14.65 24.4 14.85 24.4 14.9 24.25 15.0 22.5 16.25 17.9 18.9 24.25 19.0 24.35 19.45 24.2 21.55 23.4 25.8 27.9 19.35 27.95 19.35 Q28.25 19.1 28.75 19.1 L33.55 19.1 31.65 17.3 Q30.65 16.55 30.1 15.55 L29.95 15.4 30.0 15.3 29.95 15.25 29.95 15.15 30.05 15.05 Q30.35 14.1 31.15 13.35 L33.8 10.55 34.75 9.65 M36.2 8.3 L36.3 8.3 36.4 8.35 Q36.5 9.2 35.6 9.8 L34.15 11.1 30.55 15.25 34.45 19.05 34.5 19.05 34.6 19.05 34.7 19.1 34.75 19.2 34.8 19.35 34.8 19.4 34.85 19.55 Q34.5 20.05 34.05 19.7 L28.25 19.8 23.55 26.8 23.15 27.4 22.65 27.4 Q22.7 25.6 23.05 23.75 L23.45 21.4 23.8 19.55 16.75 19.35 16.5 19.05 22.85 15.1 24.0 14.5 23.8 7.55 Q23.8 5.3 24.15 3.2 L24.35 3.15 24.5 3.15 24.55 3.25 24.65 3.3 Q26.05 6.65 27.75 9.8 L28.7 11.6 Q29.2 11.2 29.9 11.0 L31.6 10.35 Q33.9 9.25 36.2 8.3 M-17.65 10.0 L-17.65 10.1 -23.0 14.9 -23.25 15.1 -23.25 15.2 -23.2 15.3 -20.95 21.4 -20.95 21.55 Q-20.75 21.8 -20.7 22.1 L-20.7 22.2 Q-20.15 23.0 -19.85 23.95 L-19.8 24.0 -19.8 24.1 -19.75 24.3 -19.7 24.35 -19.85 24.5 -19.95 24.6 -20.25 24.55 -20.5 24.05 -21.5 23.3 -25.75 19.9 -27.35 18.55 -32.2 22.8 -32.75 22.65 -32.6 22.1 -32.55 22.05 Q-31.35 19.15 -30.45 16.15 L-30.45 16.1 -30.05 14.95 -30.75 14.55 Q-32.5 13.35 -34.4 12.35 L-34.4 12.3 -34.4 12.15 Q-33.05 11.5 -31.5 11.2 L-29.25 10.45 -29.2 10.3 -29.2 10.2 -29.15 10.1 -28.95 7.75 -28.9 7.55 -28.75 4.05 -28.7 3.8 Q-28.85 3.25 -28.65 2.65 L-28.55 2.55 -28.45 2.45 -28.35 2.4 -28.2 2.45 Q-28.05 2.65 -28.05 2.9 -27.4 4.05 -27.2 5.45 L-27.2 5.5 -25.55 10.35 -18.25 9.8 -17.85 9.85 -17.75 9.85 -17.7 9.9 -17.65 10.0 M-31.45 21.25 L-27.75 18.0 Q-27.55 17.6 -27.15 17.8 L-27.05 17.95 -27.05 18.0 -24.2 20.35 -24.2 20.4 -21.15 22.65 -21.55 21.9 -21.55 21.8 -21.55 21.65 Q-22.8 18.9 -23.6 15.95 L-23.6 15.8 -23.85 15.25 -23.9 15.15 -23.85 15.0 -23.8 14.9 -22.5 13.5 -20.85 12.1 -19.3 10.6 -25.5 10.9 -25.95 10.75 -26.15 10.65 -28.15 4.0 Q-28.15 7.25 -28.65 10.5 L-28.8 10.95 -29.05 10.95 -30.45 11.6 -31.75 11.95 -33.25 12.35 -30.4 13.85 -29.55 14.6 -29.5 14.65 -29.45 14.7 -29.4 14.8 -29.45 14.95 -29.5 15.05 -29.65 15.45 -29.7 15.55 -31.5 21.2 -31.55 21.3 -31.45 21.25" fill="#ff6600" fill-rule="evenodd" stroke="none"/>
      <path d="M3.05 -17.7 Q10.45 -17.05 17.65 -15.3 24.85 -13.55 31.75 -10.8 36.4 -8.95 40.4 -6.25 32.6 -9.85 24.1 -12.8 18.7 -14.65 13.05 -15.7 L2.3 -17.4 2.7 -17.65 3.05 -17.7 M4.4 -9.65 L6.05 -10.05 11.55 -10.5 Q18.95 -10.55 26.25 -9.1 33.55 -7.6 40.15 -4.25 41.15 -3.75 41.95 -3.05 L42.25 -2.75 Q38.6 -5.05 34.35 -6.3 27.35 -8.4 20.1 -9.25 12.5 -10.2 4.95 -9.6 L4.4 -9.65 M22.55 -4.9 Q29.95 -4.4 37.05 -2.0 40.65 -0.75 42.65 2.35 L43.1 3.65 Q43.6 6.7 40.95 7.2 41.9 6.6 42.25 5.4 43.35 2.0 40.15 0.5 31.2 -3.65 21.45 -4.8 L22.55 -4.9 M-0.55 18.05 Q8.45 17.3 17.35 15.35 L21.7 14.05 22.15 14.25 22.2 14.35 Q15.05 17.3 7.05 17.9 L-0.55 18.15 -0.55 18.05 M17.15 22.35 Q5.6 25.05 -6.25 22.35 L-11.7 20.9 Q-13.85 20.3 -14.9 19.15 -8.0 21.65 -0.55 22.5 6.9 23.4 14.3 22.55 L17.15 22.35 M19.55 9.5 L21.55 9.15 Q14.75 11.75 7.2 11.75 L-2.2 11.9 -13.4 11.9 8.15 10.75 19.55 9.5 M-27.6 -0.75 Q-31.45 0.25 -32.25 3.85 -32.8 6.45 -30.85 8.4 -32.5 8.0 -32.95 6.0 -33.5 3.8 -32.3 1.9 -30.8 -0.55 -27.95 -1.35 L-26.05 -2.05 Q-25.9 -1.2 -27.6 -0.75 M-16.2 -10.05 Q-23.2 -8.35 -30.15 -5.35 -34.25 -3.55 -36.9 -0.35 -28.65 -4.95 -19.15 -6.25 L-16.9 -6.4 -14.8 -6.15 -14.8 -6.1 Q-21.6 -5.5 -28.2 -3.45 -34.05 -1.65 -38.7 2.2 L-38.75 2.25 Q-39.8 4.05 -38.8 5.9 -37.55 8.2 -35.35 9.55 L-34.85 9.85 -34.85 9.95 Q-37.6 9.8 -39.2 7.3 -40.45 5.35 -40.15 3.45 L-40.45 3.7 Q-43.05 6.2 -41.95 9.5 -40.75 13.1 -37.35 15.1 L-35.2 16.3 -32.95 17.15 -32.85 17.25 -32.8 17.3 -32.4 17.4 -32.25 17.45 -32.2 17.65 -32.25 17.7 -32.3 17.75 -33.05 17.95 Q-38.35 16.35 -41.7 12.0 -44.35 8.5 -42.25 4.7 -41.05 2.55 -39.15 1.1 -36.75 -2.65 -32.75 -4.75 -25.3 -8.6 -17.15 -10.35 L-16.25 -10.2 -16.2 -10.05" fill="#999999" fill-rule="evenodd" stroke="none"/>
    </g>
  </defs>
</svg>
