<?xml version="1.0" encoding="UTF-8" standalone="no"?>
<svg xmlns:xlink="http://www.w3.org/1999/xlink" height="73.35px" width="64.9px" xmlns="http://www.w3.org/2000/svg">
  <g transform="matrix(1.0, 0.0, 0.0, 1.0, 32.45, 36.65)">
    <path d="M26.65 -30.5 L26.8 -30.15 26.85 -29.85 26.7 -29.2 -7.55 30.45 -8.0 30.9 -8.65 31.05 -25.65 31.05 -26.25 30.9 -26.75 30.35 -23.45 28.6 -23.45 28.55 -9.35 28.55 23.45 -28.6 26.65 -30.5 M-26.75 30.35 L-26.9 29.8 -26.85 30.15 -26.75 30.35 M-0.6 -15.4 L-23.4 -15.4 Q-23.9 -15.4 -24.25 -15.75 L-22.15 -17.9 1.55 -17.9 2.2 -17.7 2.55 -17.4 -0.6 -15.4" fill="#809c27" fill-rule="evenodd" stroke="none"/>
    <path d="M-26.75 30.35 L-26.25 30.9 -25.65 31.05 -8.65 31.05 -8.0 30.9 -7.55 30.45 26.7 -29.2 26.85 -29.85 26.8 -30.15 26.65 -30.5 26.5 -30.7 26.25 -30.9 26.1 -31.0 25.6 -31.1 -23.4 -31.1 Q-23.9 -31.1 -24.25 -30.7 -24.65 -30.35 -24.65 -29.85 L-24.65 -16.65 Q-24.65 -16.15 -24.25 -15.75 -23.9 -15.4 -23.4 -15.4 L-0.6 -15.4 -26.65 29.1 -26.65 29.15 -26.7 29.2 -26.9 29.8 -26.75 30.35 M25.6 -36.65 Q28.05 -36.65 30.0 -35.05 31.9 -33.45 32.35 -31.0 32.75 -28.55 31.55 -26.4 L-2.65 33.25 Q-3.55 34.85 -5.15 35.8 -6.75 36.7 -8.6 36.7 L-25.6 36.7 Q-28.1 36.7 -30.0 35.1 -31.95 33.45 -32.35 31.0 -32.8 28.55 -31.55 26.4 L-10.4 -9.8 -23.3 -9.8 Q-26.2 -9.8 -28.2 -11.8 -30.2 -13.8 -30.2 -16.65 L-30.2 -29.8 Q-30.2 -32.65 -28.2 -34.65 -26.2 -36.65 -23.3 -36.65 L25.6 -36.65" fill="#000000" fill-rule="evenodd" stroke="none"/>
    <path d="M26.65 -30.5 L23.45 -28.6 -22.15 -28.6 -22.15 -17.9 -24.25 -15.75 Q-24.65 -16.15 -24.65 -16.65 L-24.65 -29.85 Q-24.65 -30.35 -24.25 -30.7 -23.9 -31.1 -23.4 -31.1 L25.6 -31.1 26.1 -31.0 26.25 -30.9 26.5 -30.7 26.65 -30.5 M-23.45 28.55 L-23.45 28.6 -26.75 30.35 -26.85 30.15 -26.9 29.8 -26.7 29.2 -26.65 29.15 -26.65 29.1 -0.6 -15.4 2.55 -17.4 2.7 -17.15 2.75 -17.0 2.75 -16.95 2.8 -16.65 2.65 -16.0 2.6 -15.95 2.55 -15.9 -23.45 28.55" fill="#dcf19a" fill-rule="evenodd" stroke="none"/>
    <path d="M23.45 -28.6 L-9.35 28.55 -23.45 28.55 2.55 -15.9 2.6 -15.95 2.65 -16.0 2.8 -16.65 2.75 -16.95 2.75 -17.0 2.7 -17.15 2.55 -17.4 2.2 -17.7 1.55 -17.9 -22.15 -17.9 -22.15 -28.6 23.45 -28.6" fill="url(#gradient0)" fill-rule="evenodd" stroke="none"/>
  </g>
  <defs>
    <linearGradient gradientTransform="matrix(0.0156, 0.0271, -0.0315, 0.0182, -5.15, -5.25)" gradientUnits="userSpaceOnUse" id="gradient0" spreadMethod="pad" x1="-819.2" x2="819.2">
      <stop offset="0.0" stop-color="#c6e21d"/>
      <stop offset="1.0" stop-color="#99cc33"/>
    </linearGradient>
  </defs>
</svg>
