<?xml version="1.0" encoding="UTF-8" standalone="no"?>
<svg xmlns:xlink="http://www.w3.org/1999/xlink" height="76.35px" width="59.2px" xmlns="http://www.w3.org/2000/svg">
  <g transform="matrix(1.0, 0.0, 0.0, 1.0, 29.6, 38.15)">
    <path d="M27.2 -14.35 L27.2 -14.25 Q27.2 -7.4 23.65 -2.9 L23.55 -2.75 22.8 -1.9 23.95 -0.8 24.0 -0.7 Q29.4 4.7 29.6 13.3 L29.6 13.4 Q29.65 24.55 20.55 31.7 12.5 38.2 0.1 38.2 -12.7 38.2 -20.7 31.7 -29.75 24.55 -29.6 13.4 L-29.6 13.3 Q-29.6 4.75 -24.35 -0.65 L-22.95 -2.0 -23.3 -2.5 -23.45 -2.55 Q-27.3 -7.7 -27.2 -14.35 -27.15 -25.4 -18.9 -31.95 L-19.1 -31.8 Q-11.85 -38.25 0.05 -38.15 L0.25 -38.15 Q12.1 -38.25 19.2 -31.9 26.95 -25.3 27.2 -14.35 M-15.5 -27.6 Q-21.65 -22.6 -21.65 -14.45 -21.65 -9.65 -18.95 -5.95 L-18.9 -5.9 Q-16.95 -3.35 -13.8 -1.65 -17.5 0.25 -20.2 3.2 -24.05 7.15 -24.05 13.35 -24.05 21.9 -17.2 27.3 -10.55 32.55 0.05 32.6 10.35 32.6 17.15 27.3 23.95 21.85 23.95 13.35 23.9 7.1 20.0 3.2 L20.0 3.15 Q17.0 0.25 13.35 -1.6 17.3 -3.85 19.1 -6.3 L19.1 -6.25 19.15 -6.3 Q21.55 -9.45 21.55 -14.3 21.5 -22.65 15.55 -27.65 9.75 -32.6 0.05 -32.6 -9.55 -32.65 -15.5 -27.6 M-5.4 -14.45 L-5.4 -14.55 Q-5.35 -16.7 -3.85 -18.15 -2.35 -19.7 -0.05 -19.7 2.15 -19.7 3.7 -18.15 5.25 -16.6 5.25 -14.45 5.25 -12.2 3.7 -10.65 L3.7 -10.6 Q2.15 -9.1 -0.05 -9.1 -2.35 -9.1 -3.85 -10.6 -5.35 -12.15 -5.4 -14.45 M4.25 7.8 Q5.9 9.45 5.9 11.95 5.9 14.35 4.2 16.15 L4.25 16.1 Q2.5 17.8 0.0 17.8 -2.4 17.8 -4.15 16.15 L-4.15 16.1 Q-5.85 14.35 -5.9 11.95 L-5.9 11.85 Q-5.85 9.45 -4.15 7.8 -2.4 6.05 0.0 6.1 L0.05 6.1 Q2.5 6.05 4.25 7.8" fill="#000000" fill-rule="evenodd" stroke="none"/>
    <path d="M19.1 -6.3 Q17.3 -3.85 13.35 -1.6 17.0 0.25 20.0 3.15 L20.0 3.2 Q23.9 7.1 23.95 13.35 23.95 21.85 17.15 27.3 10.35 32.6 0.05 32.6 -10.55 32.55 -17.2 27.3 -24.05 21.9 -24.05 13.35 -24.05 7.15 -20.2 3.2 -17.5 0.25 -13.8 -1.65 -16.95 -3.35 -18.9 -5.9 L-18.95 -5.95 Q-21.65 -9.65 -21.65 -14.45 -21.65 -22.6 -15.5 -27.6 -9.55 -32.65 0.05 -32.6 9.75 -32.6 15.55 -27.65 21.5 -22.65 21.55 -14.3 21.55 -9.45 19.15 -6.3 L19.1 -6.3 M-13.9 -25.7 L-13.9 -25.65 Q-19.15 -21.4 -19.15 -14.45 -19.15 -10.5 -16.95 -7.45 -14.65 -4.5 -10.55 -2.85 L-10.0 -2.4 -9.8 -1.7 -9.8 -1.55 -10.0 -0.85 Q-10.25 -0.55 -10.6 -0.4 -15.2 1.45 -18.35 4.9 L-18.4 4.95 Q-21.55 8.2 -21.55 13.35 -21.55 20.7 -15.65 25.35 -9.55 30.05 0.05 30.1 9.45 30.1 15.6 25.35 21.45 20.65 21.45 13.35 21.4 8.2 18.25 4.95 L18.2 4.95 Q14.7 1.45 10.05 -0.4 9.55 -0.6 9.35 -1.05 9.15 -1.5 9.35 -1.95 9.5 -2.45 9.95 -2.65 15.0 -5.1 17.1 -7.8 19.05 -10.35 19.05 -14.3 19.0 -21.45 13.95 -25.75 8.75 -30.1 0.05 -30.1 -8.55 -30.15 -13.9 -25.7" fill="url(#gradient0)" fill-rule="evenodd" stroke="none"/>
    <path d="M19.1 -6.3 L19.15 -6.3 19.1 -6.25 19.1 -6.3 M5.45 -19.9 L5.45 -19.95 5.45 -19.9" fill="#809c27" fill-rule="evenodd" stroke="none"/>
    <path d="M-13.9 -25.7 Q-8.55 -30.15 0.05 -30.1 8.75 -30.1 13.95 -25.75 19.0 -21.45 19.05 -14.3 19.05 -10.35 17.1 -7.8 15.0 -5.1 9.95 -2.65 9.5 -2.45 9.35 -1.95 9.15 -1.5 9.35 -1.05 9.55 -0.6 10.05 -0.4 14.7 1.45 18.2 4.95 L18.25 4.95 Q21.4 8.2 21.45 13.35 21.45 20.65 15.6 25.35 9.45 30.1 0.05 30.1 -9.55 30.05 -15.65 25.35 -21.55 20.7 -21.55 13.35 -21.55 8.2 -18.4 4.95 L-18.35 4.9 Q-15.2 1.45 -10.6 -0.4 -10.25 -0.55 -10.0 -0.85 L-9.8 -1.55 -9.8 -1.7 -10.0 -2.4 -10.55 -2.85 Q-14.65 -4.5 -16.95 -7.45 -19.15 -10.5 -19.15 -14.45 -19.15 -21.4 -13.9 -25.65 L-13.9 -25.7 M5.45 -19.9 Q3.15 -22.2 -0.05 -22.2 -3.35 -22.2 -5.6 -19.9 -7.85 -17.75 -7.9 -14.55 L-7.9 -14.4 Q-7.85 -11.05 -5.6 -8.85 -3.35 -6.6 -0.05 -6.6 3.15 -6.6 5.45 -8.85 7.75 -11.15 7.75 -14.45 7.75 -17.65 5.45 -19.9 L5.45 -19.95 5.45 -19.9 M0.05 3.6 L0.0 3.6 Q-3.4 3.55 -5.9 6.0 -8.35 8.35 -8.4 11.85 L-8.4 12.0 Q-8.35 15.4 -5.95 17.9 L-5.9 17.9 Q-3.4 20.3 0.0 20.3 3.5 20.3 6.0 17.9 8.4 15.35 8.4 11.95 8.4 8.45 6.0 6.05 3.5 3.55 0.05 3.6" fill="url(#gradient1)" fill-rule="evenodd" stroke="none"/>
    <path d="M-5.4 -14.45 Q-5.35 -12.15 -3.85 -10.6 -2.35 -9.1 -0.05 -9.1 2.15 -9.1 3.7 -10.6 L3.7 -10.65 Q5.25 -12.2 5.25 -14.45 5.25 -16.6 3.7 -18.15 2.15 -19.7 -0.05 -19.7 -2.35 -19.7 -3.85 -18.15 -5.35 -16.7 -5.4 -14.55 L-5.4 -14.45 M5.45 -19.9 Q7.75 -17.65 7.75 -14.45 7.75 -11.15 5.45 -8.85 3.15 -6.6 -0.05 -6.6 -3.35 -6.6 -5.6 -8.85 -7.85 -11.05 -7.9 -14.4 L-7.9 -14.55 Q-7.85 -17.75 -5.6 -19.9 -3.35 -22.2 -0.05 -22.2 3.15 -22.2 5.45 -19.9" fill="url(#gradient2)" fill-rule="evenodd" stroke="none"/>
    <path d="M4.25 7.8 Q2.5 6.05 0.05 6.1 L0.0 6.1 Q-2.4 6.05 -4.15 7.8 -5.85 9.45 -5.9 11.85 L-5.9 11.95 Q-5.85 14.35 -4.15 16.1 L-4.15 16.15 Q-2.4 17.8 0.0 17.8 2.5 17.8 4.25 16.1 L4.2 16.15 Q5.9 14.35 5.9 11.95 5.9 9.45 4.25 7.8 M0.05 3.6 Q3.5 3.55 6.0 6.05 8.4 8.45 8.4 11.95 8.4 15.35 6.0 17.9 3.5 20.3 0.0 20.3 -3.4 20.3 -5.9 17.9 L-5.95 17.9 Q-8.35 15.4 -8.4 12.0 L-8.4 11.85 Q-8.35 8.35 -5.9 6.0 -3.4 3.55 0.0 3.6 L0.05 3.6" fill="url(#gradient3)" fill-rule="evenodd" stroke="none"/>
  </g>
  <defs>
    <linearGradient gradientTransform="matrix(0.0032, 0.0019, -0.0195, 0.0336, -0.9, -0.05)" gradientUnits="userSpaceOnUse" id="gradient0" spreadMethod="pad" x1="-819.2" x2="819.2">
      <stop offset="0.0" stop-color="#dcf19a"/>
      <stop offset="1.0" stop-color="#809c27"/>
    </linearGradient>
    <linearGradient gradientTransform="matrix(0.0188, 0.0325, -0.0331, 0.0191, 0.0, 0.05)" gradientUnits="userSpaceOnUse" id="gradient1" spreadMethod="pad" x1="-819.2" x2="819.2">
      <stop offset="0.0" stop-color="#c6e21d"/>
      <stop offset="1.0" stop-color="#99cc33"/>
    </linearGradient>
    <linearGradient gradientTransform="matrix(-0.0015, -0.0015, 0.0068, -0.0068, -0.1, -14.4)" gradientUnits="userSpaceOnUse" id="gradient2" spreadMethod="pad" x1="-819.2" x2="819.2">
      <stop offset="0.0" stop-color="#dcf19a"/>
      <stop offset="1.0" stop-color="#809c27"/>
    </linearGradient>
    <linearGradient gradientTransform="matrix(-0.002, -0.002, 0.0072, -0.0073, 0.05, 11.95)" gradientUnits="userSpaceOnUse" id="gradient3" spreadMethod="pad" x1="-819.2" x2="819.2">
      <stop offset="0.0" stop-color="#dcf19a"/>
      <stop offset="1.0" stop-color="#809c27"/>
    </linearGradient>
  </defs>
</svg>
