<?xml version="1.0" encoding="UTF-8" standalone="no"?>
<svg xmlns:xlink="http://www.w3.org/1999/xlink" height="75.65px" width="64.2px" xmlns="http://www.w3.org/2000/svg">
  <g transform="matrix(1.0, 0.0, 0.0, 1.0, 32.05, 37.8)">
    <path d="M23.1 -29.75 L23.15 -29.65 Q31.95 -21.55 32.15 -8.95 L32.15 -8.6 Q32.05 -5.0 31.1 -1.0 L31.05 -0.75 Q29.95 2.95 28.15 6.95 L28.1 7.05 25.45 12.5 25.3 12.65 21.7 17.8 21.65 17.85 8.35 35.2 Q7.35 36.45 5.95 37.2 4.5 37.85 2.9 37.85 L-14.7 37.85 Q-17.4 37.85 -19.35 36.0 -21.4 34.1 -21.55 31.4 -21.7 28.7 -19.95 26.6 L-13.15 18.45 Q-19.9 16.65 -24.7 11.55 -32.2 3.9 -32.05 -8.35 L-32.05 -8.45 Q-32.2 -22.0 -22.45 -29.95 L-22.4 -30.0 Q-13.6 -37.8 1.45 -37.8 14.5 -37.8 23.1 -29.75 M0.4 -17.45 Q3.95 -17.5 6.45 -15.0 8.9 -12.55 8.9 -8.95 8.9 -5.45 6.45 -2.8 L6.4 -2.8 Q3.95 -0.35 0.35 -0.3 -3.15 -0.35 -5.65 -2.8 L-5.65 -2.85 Q-8.15 -5.45 -8.2 -8.95 L-8.2 -9.0 Q-8.15 -12.55 -5.65 -15.0 -3.15 -17.5 0.35 -17.45 L0.4 -17.45 M-15.7 31.7 L-15.55 31.85 -15.5 31.9 Q-15.15 32.2 -14.7 32.2 L2.9 32.2 3.45 32.1 3.9 31.75 17.3 14.45 17.3 14.4 20.55 9.65 23.05 4.75 23.05 4.8 Q24.7 1.1 25.6 -2.3 L25.6 -2.35 Q26.5 -5.8 26.5 -8.95 26.5 -19.05 19.3 -25.6 12.2 -32.2 1.35 -32.2 -11.3 -32.2 -18.85 -25.75 -26.55 -19.35 -26.5 -8.5 -26.55 1.45 -20.6 7.65 L-20.6 7.7 Q-14.65 13.85 -5.15 13.85 L-4.5 13.85 -3.7 13.8 -1.6 13.45 -15.65 30.15 -15.95 30.95 -15.95 31.05 -15.95 31.1 -15.7 31.7" fill="#000000" fill-rule="evenodd" stroke="none"/>
    <path d="M0.4 -17.45 L0.35 -17.45 Q-3.15 -17.5 -5.65 -15.0 -8.15 -12.55 -8.2 -9.0 L-8.2 -8.95 Q-8.15 -5.45 -5.65 -2.85 L-5.65 -2.8 Q-3.15 -0.35 0.35 -0.3 3.95 -0.35 6.4 -2.8 L6.45 -2.8 Q8.9 -5.45 8.9 -8.95 8.9 -12.55 6.45 -15.0 3.95 -17.5 0.4 -17.45 M0.35 -19.95 L0.4 -19.95 Q4.95 -20.0 8.2 -16.75 11.4 -13.55 11.4 -8.95 11.4 -4.45 8.2 -1.1 L8.2 -1.05 Q5.0 2.15 0.4 2.2 L0.35 2.2 Q-4.15 2.15 -7.4 -1.05 L-7.45 -1.05 Q-10.65 -4.4 -10.7 -8.9 L-10.7 -9.0 Q-10.65 -13.6 -7.4 -16.75 L-7.4 -16.8 Q-4.15 -20.0 0.35 -19.95" fill="url(#gradient0)" fill-rule="evenodd" stroke="none"/>
    <path d="M0.35 -19.95 Q-4.15 -20.0 -7.4 -16.8 L-7.4 -16.75 Q-10.65 -13.6 -10.7 -9.0 L-10.7 -8.9 Q-10.65 -4.4 -7.45 -1.05 L-7.4 -1.05 Q-4.15 2.15 0.35 2.2 L0.4 2.2 Q5.0 2.15 8.2 -1.05 L8.2 -1.1 Q11.4 -4.45 11.4 -8.95 11.4 -13.55 8.2 -16.75 4.95 -20.0 0.4 -19.95 L0.35 -19.95 M1.3 9.75 L-1.45 10.8 -1.5 10.8 -4.0 11.3 -4.05 11.35 -4.5 11.35 -5.15 11.35 Q-13.55 11.35 -18.8 5.95 -24.05 0.35 -24.0 -8.5 -24.05 -18.15 -17.25 -23.85 -10.3 -29.7 1.35 -29.7 11.2 -29.7 17.6 -23.75 24.0 -17.95 24.0 -8.95 24.0 -6.1 23.2 -2.95 22.3 0.3 20.75 3.75 L18.4 8.35 15.3 12.9 2.3 29.7 -12.0 29.7 3.25 11.55 3.45 11.25 3.55 11.1 3.6 10.55 3.5 10.15 3.4 9.95 3.3 9.85 3.15 9.7 2.85 9.5 2.8 9.5 2.25 9.4 2.15 9.45 1.7 9.6 1.3 9.75" fill="url(#gradient1)" fill-rule="evenodd" stroke="none"/>
    <path d="M-12.0 29.7 L2.3 29.7 15.3 12.9 18.4 8.35 20.75 3.75 Q22.3 0.3 23.2 -2.95 24.0 -6.1 24.0 -8.95 24.0 -17.95 17.6 -23.75 11.2 -29.7 1.35 -29.7 -10.3 -29.7 -17.25 -23.85 -24.05 -18.15 -24.0 -8.5 -24.05 0.35 -18.8 5.95 -13.55 11.35 -5.15 11.35 L-4.5 11.35 -4.05 11.35 -4.0 11.3 -1.5 10.8 -1.45 10.8 1.3 9.75 1.4 9.85 1.7 9.6 2.15 9.45 2.25 9.4 2.8 9.5 2.85 9.5 3.15 9.7 3.3 9.85 3.4 9.95 -1.6 13.45 -3.7 13.8 -4.5 13.85 -5.15 13.85 Q-14.65 13.85 -20.6 7.7 L-20.6 7.65 Q-26.55 1.45 -26.5 -8.5 -26.55 -19.35 -18.85 -25.75 -11.3 -32.2 1.35 -32.2 12.2 -32.2 19.3 -25.6 26.5 -19.05 26.5 -8.95 26.5 -5.8 25.6 -2.35 L25.6 -2.3 Q24.7 1.1 23.05 4.8 L23.05 4.75 20.55 9.65 17.3 14.4 17.3 14.45 3.9 31.75 3.45 32.1 2.9 32.2 -14.7 32.2 Q-15.15 32.2 -15.5 31.9 L-15.55 31.85 -15.7 31.7 -12.05 29.75 -12.0 29.7" fill="url(#gradient2)" fill-rule="evenodd" stroke="none"/>
    <path d="M-12.0 29.7 L-12.05 29.75 -12.0 29.7 M1.7 9.6 L1.4 9.85 1.3 9.75 1.7 9.6 M3.25 11.55 L3.3 11.45 3.45 11.25 3.25 11.55" fill="#809c27" fill-rule="evenodd" stroke="none"/>
    <path d="M-12.05 29.75 L-15.7 31.7 -15.95 31.1 -15.95 31.05 -15.95 30.95 -15.65 30.15 -1.6 13.45 3.4 9.95 3.5 10.15 3.6 10.55 3.55 11.1 3.45 11.25 3.3 11.45 3.25 11.55 -12.0 29.7 -12.05 29.75" fill="#dcf19a" fill-rule="evenodd" stroke="none"/>
  </g>
  <defs>
    <linearGradient gradientTransform="matrix(-0.0022, -0.0022, 0.0096, -0.0096, 0.35, -8.9)" gradientUnits="userSpaceOnUse" id="gradient0" spreadMethod="pad" x1="-819.2" x2="819.2">
      <stop offset="0.0" stop-color="#dcf19a"/>
      <stop offset="1.0" stop-color="#809c27"/>
    </linearGradient>
    <linearGradient gradientTransform="matrix(0.0176, 0.0306, -0.0327, 0.0189, 0.05, 0.0)" gradientUnits="userSpaceOnUse" id="gradient1" spreadMethod="pad" x1="-819.2" x2="819.2">
      <stop offset="0.0" stop-color="#c6e21d"/>
      <stop offset="1.0" stop-color="#99cc33"/>
    </linearGradient>
    <linearGradient gradientTransform="matrix(0.0032, 0.0031, -0.0288, 0.0289, 11.45, -19.05)" gradientUnits="userSpaceOnUse" id="gradient2" spreadMethod="pad" x1="-819.2" x2="819.2">
      <stop offset="0.0" stop-color="#dcf19a"/>
      <stop offset="1.0" stop-color="#809c27"/>
    </linearGradient>
  </defs>
</svg>
