<?xml version="1.0" encoding="UTF-8" standalone="no"?>
<svg xmlns:xlink="http://www.w3.org/1999/xlink" height="77.8px" width="64.2px" xmlns="http://www.w3.org/2000/svg">
  <g transform="matrix(1.0, 0.0, 0.0, 1.0, 32.1, 38.9)">
    <path d="M13.2 -35.95 L13.25 -35.9 Q19.15 -33.05 23.85 -27.05 L23.65 -27.2 Q28.25 -21.8 30.25 -14.9 32.1 -8.6 32.1 -0.05 32.1 8.3 30.25 14.75 L30.25 14.8 Q28.25 21.55 23.75 27.2 19.1 33.0 13.25 35.9 L13.05 36.0 Q7.1 38.75 0.15 38.9 L-0.1 38.9 Q-7.1 38.75 -13.05 36.0 L-13.25 35.9 Q-19.1 33.0 -23.75 27.2 L-23.85 27.15 Q-28.2 21.5 -30.1 14.8 L-30.1 14.85 Q-32.15 8.4 -32.1 -0.05 -32.15 -8.7 -30.1 -15.05 L-30.1 -14.9 Q-28.15 -21.75 -23.7 -27.15 L-23.85 -27.05 Q-19.15 -33.05 -13.25 -35.9 L-13.2 -35.95 Q-7.15 -38.9 0.0 -38.9 7.1 -38.9 13.2 -35.95 M19.4 -23.6 Q15.55 -28.45 10.75 -30.9 L10.7 -30.9 Q5.8 -33.35 0.0 -33.3 -5.8 -33.35 -10.7 -30.9 -15.6 -28.45 -19.4 -23.6 L-19.4 -23.65 -19.45 -23.6 Q-23.15 -19.1 -24.8 -13.35 -26.55 -7.7 -26.55 -0.15 L-26.55 -0.05 Q-26.55 7.45 -24.8 13.2 L-24.8 13.15 Q-23.15 18.95 -19.4 23.65 -15.6 28.4 -10.7 30.85 -5.8 33.2 0.0 33.25 5.8 33.2 10.7 30.85 15.55 28.4 19.4 23.65 23.15 18.95 24.8 13.15 26.5 7.45 26.5 -0.05 26.5 -7.7 24.8 -13.35 23.15 -19.1 19.4 -23.6 L19.4 -23.65 19.4 -23.6 M-1.05 -10.0 L-1.1 -9.9 Q-3.1 -6.0 -3.1 0.05 L-3.1 0.15 Q-3.1 6.2 -1.1 10.1 L-1.1 10.15 0.0 11.6 1.1 10.15 1.05 10.2 Q2.95 6.3 3.1 0.3 L3.1 0.05 Q2.95 -6.1 1.05 -10.0 L0.0 -11.5 -1.05 -10.0 M6.0 -12.6 Q8.6 -7.8 8.65 0.1 8.6 7.9 6.0 12.75 L6.0 12.8 Q3.7 17.1 0.0 17.2 -3.7 17.1 -6.05 12.75 -8.7 7.9 -8.7 0.1 L-8.7 0.05 Q-8.7 -7.75 -6.05 -12.6 -3.7 -17.0 0.0 -17.1 3.7 -17.0 6.0 -12.6" fill="#000000" fill-rule="evenodd" stroke="none"/>
    <path d="M-19.4 -23.6 Q-15.6 -28.45 -10.7 -30.9 -5.8 -33.35 0.0 -33.3 5.8 -33.35 10.7 -30.9 L10.75 -30.9 Q15.55 -28.45 19.4 -23.6 23.15 -19.1 24.8 -13.35 26.5 -7.7 26.5 -0.05 26.5 7.45 24.8 13.15 23.15 18.95 19.4 23.65 15.55 28.4 10.7 30.85 5.8 33.2 0.0 33.25 -5.8 33.2 -10.7 30.85 -15.6 28.4 -19.4 23.65 -23.15 18.95 -24.8 13.15 L-24.8 13.2 Q-26.55 7.45 -26.55 -0.05 L-26.55 -0.15 Q-26.55 -7.7 -24.8 -13.35 -23.15 -19.1 -19.45 -23.6 L-19.4 -23.6 M9.6 -28.65 Q5.2 -30.85 0.0 -30.8 -5.2 -30.85 -9.6 -28.65 L-9.55 -28.65 Q-14.0 -26.45 -17.45 -22.05 -20.85 -17.9 -22.4 -12.65 L-22.4 -12.6 Q-24.05 -7.3 -24.05 -0.15 L-24.05 -0.05 Q-24.05 7.05 -22.4 12.45 -20.85 17.75 -17.45 22.1 -14.0 26.4 -9.6 28.6 -5.2 30.7 0.0 30.75 5.2 30.7 9.6 28.6 13.95 26.4 17.45 22.1 20.85 17.75 22.4 12.45 24.0 7.05 24.0 -0.05 24.0 -7.3 22.4 -12.65 20.85 -17.9 17.45 -22.05 13.95 -26.45 9.6 -28.65" fill="url(#gradient0)" fill-rule="evenodd" stroke="none"/>
    <path d="M9.6 -28.65 Q13.95 -26.45 17.45 -22.05 20.85 -17.9 22.4 -12.65 24.0 -7.3 24.0 -0.05 24.0 7.05 22.4 12.45 20.85 17.75 17.45 22.1 13.95 26.4 9.6 28.6 5.2 30.7 0.0 30.75 -5.2 30.7 -9.6 28.6 -14.0 26.4 -17.45 22.1 -20.85 17.75 -22.4 12.45 -24.05 7.05 -24.05 -0.05 L-24.05 -0.15 Q-24.05 -7.3 -22.4 -12.6 L-22.4 -12.65 Q-20.85 -17.9 -17.45 -22.05 -14.0 -26.45 -9.55 -28.65 L-9.6 -28.65 Q-5.2 -30.85 0.0 -30.8 5.2 -30.85 9.6 -28.65 M8.2 -13.75 Q5.1 -19.7 0.0 -19.6 -5.1 -19.7 -8.25 -13.8 -11.2 -8.55 -11.2 0.05 L-11.2 0.1 Q-11.2 8.6 -8.25 13.95 -5.1 19.8 0.0 19.7 5.1 19.8 8.2 13.95 11.1 8.6 11.15 0.1 11.1 -8.5 8.2 -13.8 L8.2 -13.75" fill="url(#gradient1)" fill-rule="evenodd" stroke="none"/>
    <path d="M8.2 -13.75 L8.2 -13.8 Q11.1 -8.5 11.15 0.1 11.1 8.6 8.2 13.95 5.1 19.8 0.0 19.7 -5.1 19.8 -8.25 13.95 -11.2 8.6 -11.2 0.1 L-11.2 0.05 Q-11.2 -8.55 -8.25 -13.8 -5.1 -19.7 0.0 -19.6 5.1 -19.7 8.2 -13.75 M6.0 -12.6 Q3.7 -17.0 0.0 -17.1 -3.7 -17.0 -6.05 -12.6 -8.7 -7.75 -8.7 0.05 L-8.7 0.1 Q-8.7 7.9 -6.05 12.75 -3.7 17.1 0.0 17.2 3.7 17.1 6.0 12.8 L6.0 12.75 Q8.6 7.9 8.65 0.1 8.6 -7.8 6.0 -12.6" fill="url(#gradient2)" fill-rule="evenodd" stroke="none"/>
    <path d="M-19.4 -23.6 L-19.45 -23.6 -19.4 -23.65 -19.4 -23.6 M19.4 -23.6 L19.4 -23.65 19.4 -23.6" fill="#809c27" fill-rule="evenodd" stroke="none"/>
  </g>
  <defs>
    <linearGradient gradientTransform="matrix(0.0084, 0.0027, -0.3087, 0.9501, 47.8, -145.95)" gradientUnits="userSpaceOnUse" id="gradient0" spreadMethod="pad" x1="-819.2" x2="819.2">
      <stop offset="0.0" stop-color="#dcf19a"/>
      <stop offset="1.0" stop-color="#809c27"/>
    </linearGradient>
    <linearGradient gradientTransform="matrix(0.0244, 0.0244, -0.7071, 0.7071, 121.5, -121.0)" gradientUnits="userSpaceOnUse" id="gradient1" spreadMethod="pad" x1="-819.2" x2="819.2">
      <stop offset="0.0" stop-color="#c6e21d"/>
      <stop offset="1.0" stop-color="#99cc33"/>
    </linearGradient>
    <linearGradient gradientTransform="matrix(-0.0033, -0.0011, 0.0074, -0.0227, -0.05, 0.05)" gradientUnits="userSpaceOnUse" id="gradient2" spreadMethod="pad" x1="-819.2" x2="819.2">
      <stop offset="0.0" stop-color="#dcf19a"/>
      <stop offset="1.0" stop-color="#809c27"/>
    </linearGradient>
  </defs>
</svg>
