<?xml version="1.0" encoding="UTF-8" standalone="no"?>
<svg xmlns:xlink="http://www.w3.org/1999/xlink" height="74.5px" width="122.1px" xmlns="http://www.w3.org/2000/svg">
  <g transform="matrix(1.0, 0.0, 0.0, 1.0, 61.05, 37.25)">
    <path d="M38.2 -16.4 L38.2 -11.55 38.2 -11.2 38.15 -11.4 31.65 -29.6 33.25 -31.9 33.8 -31.1 38.2 -16.4 M52.2 -29.6 L55.0 -31.7 55.35 -31.15 55.35 -30.2 45.25 -0.75 55.95 30.3 55.95 31.2 55.4 31.95 54.5 32.25 44.55 32.25 43.65 31.95 45.25 29.65 52.8 29.65 42.25 -0.25 Q42.05 -0.75 42.25 -1.25 L52.2 -29.6 M38.2 14.7 L33.1 31.2 32.55 31.95 31.65 32.25 21.7 32.25 21.35 32.2 21.15 32.15 20.55 32.25 10.95 32.25 Q10.4 32.25 10.0 31.9 L12.2 29.65 19.1 29.65 7.35 -29.6 9.0 -31.9 9.1 -31.85 9.65 -31.0 21.35 27.15 21.35 32.2 23.15 29.65 30.95 29.65 38.2 9.45 38.2 9.85 38.2 14.7 M7.35 20.15 L-2.2 20.15 -4.3 31.05 -4.85 31.9 Q-5.25 32.25 -5.8 32.25 L-15.4 32.25 -16.2 32.0 -16.35 31.9 -17.35 32.25 -25.55 32.25 -26.35 32.0 -24.45 29.65 -18.45 29.65 -18.45 -29.6 -16.3 -31.75 Q-15.85 -31.3 -15.85 -30.7 L-15.85 25.4 -16.35 31.9 -13.95 29.65 -6.65 29.65 -4.35 17.5 -4.4 17.5 -4.35 17.5 Q-3.95 17.15 -3.45 17.15 L8.55 17.15 Q9.1 17.15 9.5 17.5 L7.35 20.15 M-27.05 7.65 L-30.6 31.0 Q-30.7 31.55 -31.1 31.9 -31.55 32.25 -32.1 32.25 L-39.8 32.25 Q-40.35 32.25 -40.75 31.95 L-38.9 29.65 -32.95 29.65 -25.8 -15.35 -25.1 -15.45 -27.05 7.65 M-44.8 8.0 L-44.8 30.75 Q-44.8 31.35 -45.25 31.8 -45.7 32.25 -46.3 32.25 L-54.55 32.25 Q-55.1 32.25 -55.5 31.9 L-53.45 29.65 -47.4 29.65 -47.4 -15.25 -46.95 -15.4 -44.8 8.0 M-41.05 -31.65 L-40.7 -30.9 -35.95 0.75 -35.95 12.25 -36.8 11.95 -36.9 11.9 -36.85 11.85 -43.05 -29.6 -41.05 -31.65 M-2.3 6.3 L2.05 -16.85 2.6 -17.0 2.6 -7.2 0.55 3.75 -2.3 6.3" fill="#809c27" fill-rule="evenodd" stroke="none"/>
    <path d="M55.0 -31.7 L54.8 -31.9 53.9 -32.2 44.05 -32.2 Q43.55 -32.2 43.15 -31.9 L42.6 -31.1 38.2 -16.4 33.8 -31.1 33.25 -31.9 32.35 -32.2 22.5 -32.2 Q22.0 -32.2 21.65 -31.9 L21.1 -31.15 Q20.9 -30.7 21.1 -30.2 L31.1 -0.75 21.35 27.15 9.65 -31.0 9.1 -31.85 9.0 -31.9 8.15 -32.2 -2.95 -32.2 Q-3.5 -32.2 -3.9 -31.85 L-4.4 -31.0 -15.85 25.4 -15.85 -30.7 Q-15.85 -31.3 -16.3 -31.75 -16.75 -32.2 -17.35 -32.2 L-29.7 -32.2 Q-30.25 -32.2 -30.65 -31.8 -31.1 -31.45 -31.15 -30.9 L-35.95 0.75 -40.7 -30.9 -41.05 -31.65 -41.2 -31.8 Q-41.65 -32.2 -42.2 -32.2 L-54.55 -32.2 Q-55.15 -32.2 -55.6 -31.75 L-56.05 -30.7 -56.05 30.75 -55.6 31.8 -55.5 31.9 Q-55.1 32.25 -54.55 32.25 L-46.3 32.25 Q-45.7 32.25 -45.25 31.8 -44.8 31.35 -44.8 30.75 L-44.8 8.0 -41.25 31.0 Q-41.2 31.55 -40.75 31.9 L-40.75 31.95 Q-40.35 32.25 -39.8 32.25 L-32.1 32.25 Q-31.55 32.25 -31.1 31.9 -30.7 31.55 -30.6 31.0 L-27.05 7.65 -27.05 30.75 -26.6 31.8 -26.35 32.0 -25.55 32.25 -17.35 32.25 -16.35 31.9 -16.2 32.0 -15.4 32.25 -5.8 32.25 Q-5.25 32.25 -4.85 31.9 L-4.3 31.05 -2.2 20.15 7.35 20.15 9.5 31.05 Q9.6 31.55 10.0 31.9 10.4 32.25 10.95 32.25 L20.55 32.25 21.15 32.15 21.35 32.2 21.7 32.25 31.65 32.25 32.55 31.95 33.1 31.2 38.2 14.7 43.15 31.2 Q43.25 31.65 43.65 31.95 L44.55 32.25 54.5 32.25 55.4 31.95 55.95 31.2 55.95 30.3 45.25 -0.75 55.35 -30.2 55.35 -31.15 55.0 -31.7 M56.9 -36.3 L58.95 -34.6 Q59.7 -33.75 60.25 -32.15 60.75 -30.55 60.1 -28.55 L50.55 -0.75 60.7 28.7 60.7 28.75 Q61.4 30.75 60.7 32.8 L60.55 33.25 Q59.85 34.75 58.65 35.75 L58.4 35.95 Q56.65 37.25 54.5 37.25 L44.55 37.25 Q42.4 37.25 40.65 35.95 38.75 34.55 38.3 32.4 L38.15 31.85 37.9 32.7 37.7 33.25 Q37.0 34.75 35.8 35.75 L35.55 35.95 Q33.8 37.25 31.65 37.25 L21.7 37.25 21.15 37.25 20.55 37.25 10.95 37.25 Q8.5 37.25 6.7 35.7 5.0 34.2 4.6 32.05 L3.4 25.8 1.8 25.8 0.6 32.0 0.5 32.5 Q-0.05 34.35 -1.55 35.7 -3.35 37.25 -5.8 37.25 L-15.4 37.25 -16.35 37.15 -17.35 37.25 -25.55 37.25 Q-27.5 37.25 -29.05 36.2 -30.35 37.25 -32.1 37.25 L-39.8 37.25 Q-41.5 37.25 -42.8 36.25 -44.4 37.3 -46.3 37.25 L-54.55 37.25 Q-57.0 37.25 -58.8 35.7 L-59.0 35.45 -59.1 35.35 Q-61.1 33.35 -61.05 30.75 L-61.05 -30.7 Q-61.1 -33.3 -59.1 -35.25 -57.15 -37.25 -54.55 -37.2 L-42.2 -37.2 -41.7 -37.15 Q-36.65 -37.8 -36.1 -32.9 L-35.9 -32.4 -35.75 -32.9 Q-34.85 -37.3 -29.7 -37.2 L-17.35 -37.2 Q-14.75 -37.25 -12.75 -35.25 -10.8 -33.3 -10.85 -30.7 L-10.85 -24.35 -9.4 -31.35 Q-8.5 -37.45 -3.4 -37.2 L-2.95 -37.2 8.15 -37.2 8.95 -37.15 Q13.9 -37.45 14.7 -31.2 L22.65 8.3 25.85 -0.8 16.4 -28.6 Q15.75 -30.6 16.5 -32.55 17.2 -34.5 19.1 -36.1 20.45 -37.2 22.5 -37.2 L32.35 -37.2 Q36.0 -37.25 38.25 -33.65 38.95 -35.0 40.15 -35.9 41.9 -37.2 44.05 -37.2 L53.55 -37.2 Q55.6 -37.2 56.9 -36.3 M0.55 3.75 L2.6 -7.2 4.6 3.75 0.55 3.75" fill="#000000" fill-rule="evenodd" stroke="none"/>
    <path d="M38.2 -16.4 L42.6 -31.1 43.15 -31.9 Q43.55 -32.2 44.05 -32.2 L53.9 -32.2 54.8 -31.9 55.0 -31.7 52.2 -29.6 44.8 -29.6 38.2 -11.55 38.2 -16.4 M43.65 31.95 Q43.25 31.65 43.15 31.2 L38.2 14.7 38.2 9.85 45.25 29.65 43.65 31.95 M10.0 31.9 Q9.6 31.55 9.5 31.05 L7.35 20.15 9.5 17.5 9.95 18.05 10.05 18.35 12.2 29.65 10.0 31.9 M-26.35 32.0 L-26.6 31.8 -27.05 30.75 -27.05 7.65 -25.1 -15.45 -24.45 -15.2 -24.45 29.65 -26.35 32.0 M-40.75 31.95 L-40.75 31.9 Q-41.2 31.55 -41.25 31.0 L-44.8 8.0 -46.95 -15.4 -46.75 -15.45 -46.1 -15.35 -38.9 29.65 -40.75 31.95 M-55.5 31.9 L-55.6 31.8 -56.05 30.75 -56.05 -30.7 -55.6 -31.75 Q-55.15 -32.2 -54.55 -32.2 L-42.2 -32.2 Q-41.65 -32.2 -41.2 -31.8 L-41.05 -31.65 -43.05 -29.6 -53.45 -29.6 -53.45 29.65 -55.5 31.9 M-35.95 0.75 L-31.15 -30.9 Q-31.1 -31.45 -30.65 -31.8 -30.25 -32.2 -29.7 -32.2 L-17.35 -32.2 Q-16.75 -32.2 -16.3 -31.75 L-18.45 -29.6 -28.8 -29.6 -35.25 12.1 -35.95 12.25 -35.95 0.75 M-15.85 25.4 L-4.4 -31.0 -3.9 -31.85 Q-3.5 -32.2 -2.95 -32.2 L8.15 -32.2 9.0 -31.9 7.35 -29.6 -2.1 -29.6 -13.95 29.65 -16.35 31.9 -15.85 25.4 M21.35 27.15 L31.1 -0.75 21.1 -30.2 Q20.9 -30.7 21.1 -31.15 L21.65 -31.9 Q22.0 -32.2 22.5 -32.2 L32.35 -32.2 33.25 -31.9 31.65 -29.6 24.2 -29.6 34.15 -1.2 34.2 -0.65 34.15 -0.25 23.15 29.65 21.35 32.2 21.35 27.15 M-2.3 6.3 L0.55 3.75 4.6 3.75 2.6 -7.2 2.6 -17.0 3.1 -16.9 7.6 6.15 7.25 6.5 6.4 6.75 -1.25 6.75 -2.05 6.5 -2.3 6.3" fill="#dcf19a" fill-rule="evenodd" stroke="none"/>
    <path d="M38.2 -11.55 L44.8 -29.6 52.2 -29.6 42.25 -1.25 Q42.05 -0.75 42.25 -0.25 L52.8 29.65 45.25 29.65 38.2 9.85 38.2 9.45 30.95 29.65 23.15 29.65 34.15 -0.25 34.2 -0.65 34.15 -1.2 24.2 -29.6 31.65 -29.6 38.15 -11.4 38.2 -11.2 38.2 -11.55 M-25.1 -15.45 L-25.8 -15.35 -32.95 29.65 -38.9 29.65 -46.1 -15.35 -46.75 -15.45 -46.95 -15.4 -47.4 -15.25 -47.4 29.65 -53.45 29.65 -53.45 -29.6 -43.05 -29.6 -36.85 11.85 -36.9 11.9 -36.8 11.95 -35.95 12.25 -35.25 12.1 -28.8 -29.6 -18.45 -29.6 -18.45 29.65 -24.45 29.65 -24.45 -15.2 -25.1 -15.45 M7.35 -29.6 L19.1 29.65 12.2 29.65 10.05 18.35 9.95 18.05 9.5 17.5 Q9.1 17.15 8.55 17.15 L-3.45 17.15 Q-3.95 17.15 -4.35 17.5 L-4.4 17.5 -4.35 17.5 -6.65 29.65 -13.95 29.65 -2.1 -29.6 7.35 -29.6 M2.6 -17.0 L2.05 -16.85 -2.3 6.3 -2.05 6.5 -1.25 6.75 6.4 6.75 7.25 6.5 7.6 6.15 3.1 -16.9 2.6 -17.0" fill="url(#gradient0)" fill-rule="evenodd" stroke="none"/>
  </g>
  <defs>
    <linearGradient gradientTransform="matrix(0.0311, 0.0538, -0.0328, 0.0189, -86.05, 48.85)" gradientUnits="userSpaceOnUse" id="gradient0" spreadMethod="pad" x1="-819.2" x2="819.2">
      <stop offset="0.0" stop-color="#c6e21d"/>
      <stop offset="1.0" stop-color="#99cc33"/>
    </linearGradient>
  </defs>
</svg>
