<?xml version="1.0" encoding="UTF-8" standalone="no"?>
<svg xmlns:xlink="http://www.w3.org/1999/xlink" height="18.15px" width="36.3px" xmlns="http://www.w3.org/2000/svg">
  <g transform="matrix(1.0, 0.0, 0.0, 1.0, 16.85, 11.85)">
    <path d="M4.45 -8.7 Q7.0 -11.3 10.65 -11.3 14.25 -11.3 16.85 -8.7 19.45 -6.15 19.45 -2.5 19.45 1.1 16.85 3.7 14.25 6.3 10.65 6.3 7.0 6.3 4.45 3.7 1.85 1.1 1.85 -2.5 1.85 -6.15 4.45 -8.7 M-14.25 -9.25 Q-11.7 -11.85 -8.05 -11.85 -4.45 -11.85 -1.85 -9.25 0.75 -6.7 0.75 -3.05 0.75 0.55 -1.85 3.15 -4.45 5.75 -8.05 5.75 -11.7 5.75 -14.25 3.15 -16.85 0.55 -16.85 -3.05 -16.85 -6.7 -14.25 -9.25" fill="#ffffff" fill-rule="evenodd" stroke="none"/>
    <path d="M4.45 -8.7 Q7.0 -11.3 10.65 -11.3 14.25 -11.3 16.85 -8.7 19.45 -6.15 19.45 -2.5 19.45 1.1 16.85 3.7 14.25 6.3 10.65 6.3 7.0 6.3 4.45 3.7 1.85 1.1 1.85 -2.5 1.85 -6.15 4.45 -8.7 M-14.25 -9.25 Q-11.7 -11.85 -8.05 -11.85 -4.45 -11.85 -1.85 -9.25 0.75 -6.7 0.75 -3.05 0.75 0.55 -1.85 3.15 -4.45 5.75 -8.05 5.75 -11.7 5.75 -14.25 3.15 -16.85 0.55 -16.85 -3.05 -16.85 -6.7 -14.25 -9.25" fill="none" stroke="#000000" stroke-linecap="round" stroke-linejoin="round" stroke-width="0.05"/>
  </g>
</svg>
