<?xml version="1.0" encoding="UTF-8" standalone="no"?>
<svg xmlns:xlink="http://www.w3.org/1999/xlink" height="32.8px" width="39.25px" xmlns="http://www.w3.org/2000/svg">
  <g transform="matrix(1.0, 0.0, 0.0, 1.0, 18.7, 10.1)">
    <path d="M0.05 12.85 Q0.7 18.6 -1.55 20.95 -3.5 23.0 -6.05 22.65 -8.55 22.35 -9.3 20.15 -10.1 17.6 -7.7 14.2 -5.8 13.55 -3.85 13.25 L-5.2 17.8 -3.85 13.25 0.05 12.85" fill="#ff0000" fill-rule="evenodd" stroke="none"/>
    <path d="M19.45 19.25 Q9.95 12.45 0.05 12.85 0.7 18.6 -1.55 20.95 -3.5 23.0 -6.05 22.65 -8.55 22.35 -9.3 20.15 -10.1 17.6 -7.7 14.2 -12.7 15.75 -17.8 19.1 M-3.85 13.25 Q-5.8 13.55 -7.7 14.2 M0.05 12.85 L-3.85 13.25" fill="none" stroke="#000000" stroke-linecap="round" stroke-linejoin="round" stroke-width="0.05"/>
    <path d="M17.05 21.2 L19.45 19.25 20.55 16.45 M-17.8 19.1 L-14.7 21.45 M-3.85 13.25 L-5.2 17.8 M-17.8 19.1 L-18.7 16.45" fill="none" stroke="#000000" stroke-linecap="round" stroke-linejoin="round" stroke-width="0.05"/>
    <path d="M16.25 -8.75 L10.5 -2.45 16.15 3.45 M4.45 4.2 L10.5 -2.45 4.0 -9.25" fill="none" stroke="#000000" stroke-linecap="round" stroke-linejoin="round" stroke-width="1.0"/>
    <path d="M-14.55 -9.0 L-8.8 -2.7 -2.2 -9.6 M-2.7 3.95 L-8.8 -2.7 -14.35 3.1" fill="none" stroke="#000000" stroke-linecap="round" stroke-linejoin="round" stroke-width="1.0"/>
  </g>
</svg>
