<?xml version="1.0" encoding="UTF-8" standalone="no"?>
<svg xmlns:xlink="http://www.w3.org/1999/xlink" height="12.75px" width="63.95px" xmlns="http://www.w3.org/2000/svg">
  <g transform="matrix(1.0, 0.0, 0.0, 1.0, -1.0, -3.0)">
    <path d="M38.35 4.0 L38.35 14.75 27.6 14.75 27.6 4.0 38.35 4.0 M25.55 4.0 L25.55 6.4 17.25 6.4 17.25 12.35 25.55 12.35 25.55 14.75 14.8 14.75 14.8 4.0 25.55 4.0 M35.95 12.35 L35.95 6.4 30.05 6.4 30.05 12.35 35.95 12.35 M42.85 6.4 L42.85 8.15 48.75 8.15 48.75 6.4 42.85 6.4 M51.15 4.0 L51.15 10.6 49.1 10.6 49.1 12.35 51.15 12.35 51.15 14.75 46.65 14.75 46.65 10.6 42.85 10.6 42.85 14.75 40.4 14.75 40.4 4.0 51.15 4.0 M63.95 4.0 L63.95 6.4 55.65 6.4 55.65 8.15 63.95 8.15 63.95 10.6 55.65 10.6 55.65 12.35 63.95 12.35 63.95 14.75 53.2 14.75 53.2 4.0 63.95 4.0 M12.75 4.0 L12.75 6.4 4.45 6.4 4.45 8.15 12.75 8.15 12.75 14.75 2.0 14.75 2.0 12.35 10.35 12.35 10.35 10.6 2.0 10.6 2.0 4.0 12.75 4.0" fill="#ffffff" fill-rule="evenodd" stroke="none"/>
    <path d="M63.95 4.0 L53.2 4.0 53.2 14.75 63.95 14.75 63.95 12.35 55.65 12.35 55.65 10.6 63.95 10.6 63.95 8.15 55.65 8.15 55.65 6.4 63.95 6.4 63.95 4.0 M51.15 4.0 L40.4 4.0 40.4 14.75 42.85 14.75 42.85 10.6 46.65 10.6 46.65 14.75 51.15 14.75 51.15 12.35 49.1 12.35 49.1 10.6 51.15 10.6 51.15 4.0 M42.85 6.4 L48.75 6.4 48.75 8.15 42.85 8.15 42.85 6.4 M35.95 12.35 L30.05 12.35 30.05 6.4 35.95 6.4 35.95 12.35 M25.55 4.0 L14.8 4.0 14.8 14.75 25.55 14.75 25.55 12.35 17.25 12.35 17.25 6.4 25.55 6.4 25.55 4.0 M38.35 4.0 L27.6 4.0 27.6 14.75 38.35 14.75 38.35 4.0" fill="none" stroke="#336666" stroke-linecap="round" stroke-linejoin="round" stroke-width="2.0"/>
    <path d="M12.75 4.0 L2.0 4.0 2.0 10.6 10.35 10.6 10.35 12.35 2.0 12.35 2.0 14.75 12.75 14.75 12.75 8.15 4.45 8.15 4.45 6.4 12.75 6.4 12.75 4.0" fill="none" stroke="#336666" stroke-linecap="round" stroke-linejoin="round" stroke-width="2.0"/>
    <path d="M12.75 4.0 L12.75 6.4 4.45 6.4 4.45 8.15 12.75 8.15 12.75 14.75 2.0 14.75 2.0 12.35 10.35 12.35 10.35 10.6 2.0 10.6 2.0 4.0 12.75 4.0 M27.6 4.0 L38.35 4.0 38.35 14.75 27.6 14.75 27.6 4.0 M25.55 4.0 L25.55 6.4 17.25 6.4 17.25 12.35 25.55 12.35 25.55 14.75 14.8 14.75 14.8 4.0 25.55 4.0 M35.95 12.35 L35.95 6.4 30.05 6.4 30.05 12.35 35.95 12.35 M48.75 8.15 L48.75 6.4 42.85 6.4 42.85 8.15 48.75 8.15 M51.15 4.0 L51.15 10.6 49.1 10.6 49.1 12.35 51.15 12.35 51.15 14.75 46.65 14.75 46.65 10.6 42.85 10.6 42.85 14.75 40.4 14.75 40.4 4.0 51.15 4.0 M63.95 4.0 L63.95 6.4 55.65 6.4 55.65 8.15 63.95 8.15 63.95 10.6 55.65 10.6 55.65 12.35 63.95 12.35 63.95 14.75 53.2 14.75 53.2 4.0 63.95 4.0" fill="#ffffff" fill-rule="evenodd" stroke="none"/>
  </g>
</svg>
