<?xml version="1.0" encoding="UTF-8" standalone="no"?>
<svg xmlns:xlink="http://www.w3.org/1999/xlink" height="55.8px" width="55.75px" xmlns="http://www.w3.org/2000/svg">
  <g transform="matrix(1.0, 0.0, 0.0, 1.0, -497.85, -392.45)">
    <path d="M500.65 411.6 L500.25 411.6 499.95 411.95 499.95 412.4 500.1 412.55 499.7 412.55 499.35 412.25 499.3 411.8 Q500.6 407.65 503.25 404.1 L503.65 403.85 504.1 404.0 504.3 404.2 504.1 404.2 503.75 404.45 503.6 404.9 503.85 405.3 503.9 405.3 Q501.8 408.25 500.65 411.6 M499.3 420.95 Q499.35 424.6 500.35 428.0 L500.0 428.3 500.0 428.75 500.3 429.1 500.35 429.2 500.1 429.35 499.65 429.3 499.35 428.95 Q498.05 424.85 498.1 420.35 L498.3 419.9 Q498.45 419.7 498.7 419.75 L499.0 419.8 498.9 419.9 498.7 420.35 498.9 420.75 Q499.05 420.95 499.3 420.95 M504.7 436.4 L506.95 439.0 509.7 441.4 509.7 441.45 509.6 441.9 509.85 442.25 510.3 442.4 510.4 442.45 510.3 442.6 509.9 442.85 509.45 442.75 506.1 439.85 503.4 436.65 503.25 436.2 503.5 435.8 Q503.6 435.7 503.8 435.7 L503.75 435.85 503.85 436.3 504.25 436.55 504.7 436.45 504.7 436.4 M518.1 445.75 Q521.4 446.65 525.1 446.75 L525.1 446.8 525.3 447.2 525.7 447.4 526.1 447.2 526.2 447.1 526.3 447.4 526.1 447.8 525.7 448.0 Q521.15 447.95 517.15 446.7 L516.8 446.4 516.75 445.95 516.95 445.7 517.0 445.85 517.35 446.15 517.8 446.1 518.1 445.8 518.1 445.75 M534.4 445.35 Q537.7 444.15 540.7 442.1 L541.1 442.35 541.55 442.2 541.8 441.8 541.8 441.65 542.0 441.85 542.15 442.3 541.9 442.7 Q538.3 445.35 534.15 446.7 L533.7 446.7 533.4 446.3 533.4 446.0 533.55 446.1 534.0 446.15 534.35 445.85 534.4 445.4 534.4 445.35 M547.4 435.45 Q549.5 432.45 550.7 429.1 L551.2 429.1 551.5 428.7 551.45 428.25 551.35 428.15 551.65 428.2 552.0 428.45 552.05 428.9 Q550.65 433.05 548.0 436.65 L547.6 436.9 547.2 436.8 547.0 436.55 547.15 436.55 547.55 436.3 547.65 435.85 547.4 435.45 M552.15 419.7 Q552.05 416.05 551.1 412.75 L551.5 412.45 551.5 412.0 551.2 411.65 551.05 411.6 551.3 411.4 551.8 411.45 552.1 411.8 Q553.35 415.8 553.35 420.3 L553.15 420.7 Q552.95 420.9 552.75 420.9 L552.45 420.8 552.55 420.7 552.75 420.3 552.55 419.9 552.15 419.7 M546.8 404.4 L544.35 401.65 541.8 399.35 541.9 398.9 541.65 398.5 541.2 398.4 541.05 398.4 541.2 398.15 Q541.35 397.9 541.6 397.9 L542.0 398.0 545.2 400.8 548.1 404.15 548.2 404.6 548.0 405.0 547.7 405.1 547.75 404.95 547.6 404.5 547.25 404.25 546.8 404.4 M533.3 395.0 Q529.95 393.95 526.3 393.9 L526.1 393.5 525.7 393.3 Q525.45 393.3 525.3 393.5 L525.2 393.6 525.1 393.3 525.3 392.9 Q525.45 392.7 525.7 392.7 530.2 392.65 534.3 394.0 L534.65 394.3 534.7 394.75 534.5 395.05 534.4 394.9 534.1 394.6 533.6 394.65 533.3 395.0 M516.95 395.35 Q513.5 396.45 510.55 398.6 L510.2 398.4 509.75 398.5 509.5 398.9 509.4 398.95 509.25 398.8 509.15 398.4 Q509.15 398.15 509.4 398.0 512.95 395.3 517.1 394.0 L517.6 394.05 517.9 394.4 517.9 394.75 517.75 394.65 517.3 394.6 516.95 394.9 516.95 395.35" fill="url(#gradient0)" fill-rule="evenodd" stroke="none"/>
    <path d="M500.65 411.6 L500.7 411.6 503.85 412.6 504.1 412.75 504.2 412.9 504.2 413.35 503.9 413.7 503.5 413.75 500.3 412.7 500.1 412.55 499.95 412.4 499.95 411.95 500.25 411.6 500.65 411.6 M503.0 420.8 L502.6 420.95 499.3 420.95 Q499.05 420.95 498.9 420.75 L498.7 420.35 498.9 419.9 499.0 419.8 499.3 419.75 502.6 419.75 503.05 419.9 503.2 420.35 503.05 420.75 503.0 420.8 M507.6 434.2 L507.4 434.5 504.7 436.4 504.7 436.45 504.25 436.55 503.85 436.3 503.75 435.85 503.8 435.7 Q503.85 435.5 504.0 435.45 L506.7 433.5 507.15 433.4 507.55 433.65 507.65 434.1 507.6 434.2 M541.8 399.35 L539.8 402.1 539.55 402.3 539.4 402.35 538.95 402.2 538.7 401.85 538.8 401.4 540.8 398.6 Q540.9 398.45 541.05 398.4 L541.2 398.4 541.65 398.5 541.9 398.9 541.8 399.35 M526.3 393.9 L526.3 397.2 526.2 397.55 526.1 397.65 525.7 397.8 525.3 397.65 525.1 397.2 525.1 393.9 525.2 393.6 525.3 393.5 Q525.45 393.3 525.7 393.3 L526.1 393.5 526.3 393.9 M518.05 398.7 L517.95 398.5 516.95 395.35 516.95 394.9 517.3 394.6 517.75 394.65 517.9 394.75 518.05 395.0 519.05 398.1 519.05 398.55 518.7 398.85 518.25 398.85 518.05 398.7 M510.55 398.6 L510.6 398.6 512.55 401.3 512.65 401.6 512.65 401.75 512.4 402.15 511.95 402.25 511.6 402.0 511.55 402.0 509.6 399.35 509.5 399.0 509.5 398.9 509.75 398.5 510.2 398.4 510.55 398.6 M506.9 407.4 L506.6 407.3 503.9 405.3 503.85 405.3 503.6 404.9 503.75 404.45 504.1 404.2 504.3 404.2 504.6 404.35 507.3 406.3 507.3 406.35 507.55 406.7 507.4 407.2 507.05 407.4 506.9 407.4" fill="#626a67" fill-rule="evenodd" stroke="none"/>
    <path d="M504.1 412.75 L503.85 412.6 500.7 411.6 500.65 411.6 Q501.8 408.25 503.9 405.3 L506.6 407.3 506.9 407.4 507.1 407.6 507.5 407.75 507.9 407.5 Q508.85 406.1 510.15 404.9 L510.2 404.9 Q511.35 403.6 512.75 402.6 L513.0 402.2 512.85 401.8 512.65 401.6 512.55 401.3 510.6 398.6 510.55 398.6 Q513.5 396.45 516.95 395.35 L517.95 398.5 518.05 398.7 518.1 399.05 518.4 399.4 518.85 399.45 Q522.0 398.4 525.65 398.4 L526.1 398.25 526.25 397.8 526.2 397.55 526.3 397.2 526.3 393.9 Q529.95 393.95 533.3 395.0 L532.3 398.2 532.3 398.5 532.15 398.75 532.15 399.2 532.5 399.5 Q535.75 400.55 538.6 402.7 L539.0 402.8 539.4 402.6 539.55 402.3 539.8 402.1 541.8 399.35 544.35 401.65 546.8 404.4 544.0 406.35 543.8 406.6 543.55 406.7 Q543.3 406.85 543.3 407.1 L543.4 407.55 Q545.45 410.3 546.5 413.6 L546.8 413.95 547.3 414.0 547.55 413.8 547.9 413.8 551.1 412.75 Q552.05 416.05 552.15 419.7 L548.7 419.7 548.4 419.8 548.1 419.7 Q547.85 419.7 547.7 419.9 L547.5 420.3 Q547.45 423.9 546.45 427.1 L546.5 427.6 546.85 427.9 547.15 427.9 547.45 428.1 550.7 429.1 Q549.5 432.45 547.4 435.45 L544.55 433.4 544.3 433.3 544.1 433.05 543.65 432.95 543.25 433.2 541.1 435.7 538.4 438.0 538.2 438.4 538.3 438.8 538.55 439.0 538.65 439.35 540.7 442.1 Q537.7 444.15 534.4 445.35 L533.3 442.1 533.15 441.85 533.1 441.5 532.8 441.15 532.35 441.1 Q529.25 442.1 525.7 442.15 525.45 442.15 525.3 442.3 L525.1 442.75 525.2 443.05 525.1 443.35 525.1 446.75 Q521.4 446.65 518.1 445.75 L519.2 442.5 519.2 442.15 519.35 441.9 519.3 441.4 518.95 441.1 Q515.7 440.1 512.9 438.05 L512.45 437.95 Q512.2 437.95 512.05 438.2 L511.95 438.45 511.7 438.7 509.7 441.4 506.95 439.0 504.7 436.4 507.4 434.5 507.6 434.2 507.9 434.1 508.15 433.7 508.0 433.25 Q505.85 430.4 504.85 427.15 L504.55 426.8 504.1 426.75 Q503.9 426.8 503.8 426.95 L503.5 427.0 500.35 428.0 Q499.35 424.6 499.3 420.95 L502.6 420.95 503.0 420.8 503.2 420.85 503.65 420.7 503.8 420.25 Q503.8 416.65 504.8 413.5 L504.75 413.05 504.4 412.75 504.1 412.75 M525.65 400.15 Q517.25 400.15 511.35 406.05 505.5 411.9 505.5 420.25 505.5 428.6 511.35 434.45 517.25 440.35 525.65 440.4 533.9 440.4 539.85 434.45 545.75 428.6 545.75 420.25 545.75 411.9 539.85 406.05 533.9 400.1 525.65 400.15" fill="url(#gradient1)" fill-rule="evenodd" stroke="none"/>
    <path d="M503.5 413.75 L503.9 413.7 504.2 413.35 504.2 412.9 504.1 412.75 504.4 412.75 504.75 413.05 504.8 413.5 Q503.8 416.65 503.8 420.25 L503.65 420.7 503.2 420.85 503.0 420.8 503.05 420.75 503.2 420.35 503.05 419.9 502.6 419.75 Q502.65 416.55 503.5 413.75 M503.8 426.95 Q503.9 426.8 504.1 426.75 L504.55 426.8 504.85 427.15 Q505.85 430.4 508.0 433.25 L508.15 433.7 507.9 434.1 507.6 434.2 507.65 434.1 507.55 433.65 507.15 433.4 506.7 433.5 Q504.85 430.95 503.9 428.1 L504.25 427.8 504.25 427.35 503.95 427.0 503.8 426.95 M511.95 438.45 L512.05 438.2 Q512.2 437.95 512.45 437.95 L512.9 438.05 Q515.7 440.1 518.95 441.1 L519.3 441.4 519.35 441.9 519.2 442.15 519.15 442.05 518.8 441.75 518.35 441.75 Q518.15 441.85 518.05 442.1 515.15 441.1 512.65 439.35 L512.8 438.9 512.5 438.55 512.1 438.4 511.95 438.45 M525.2 443.05 L525.1 442.75 525.3 442.3 Q525.45 442.15 525.7 442.15 529.25 442.1 532.35 441.1 L532.8 441.15 533.1 441.5 533.15 441.85 533.0 441.75 532.55 441.7 Q532.3 441.8 532.2 442.0 L532.15 442.45 526.3 443.3 526.1 442.9 525.7 442.75 Q525.45 442.7 525.3 442.9 L525.2 443.05 M538.55 439.0 L538.3 438.8 538.2 438.4 538.4 438.0 541.1 435.7 543.25 433.2 543.65 432.95 544.1 433.05 544.3 433.3 544.1 433.3 543.75 433.55 Q543.55 433.75 543.6 434.0 L543.85 434.35 541.9 436.5 539.6 438.6 539.2 438.4 538.8 438.5 538.55 438.9 538.55 439.0 M547.15 427.9 L546.85 427.9 546.5 427.6 546.45 427.1 Q547.45 423.9 547.5 420.3 L547.7 419.9 Q547.85 419.7 548.1 419.7 L548.4 419.8 548.3 419.9 548.1 420.3 548.3 420.7 548.7 420.9 Q548.6 424.05 547.8 426.9 L547.35 426.95 Q547.1 427.05 547.05 427.3 L547.1 427.8 547.15 427.9 M547.55 413.8 L547.3 414.0 546.8 413.95 546.5 413.6 Q545.45 410.3 543.4 407.55 L543.3 407.1 Q543.3 406.85 543.55 406.7 L543.8 406.6 543.8 406.7 543.9 407.2 544.3 407.4 544.7 407.3 Q546.45 409.8 547.5 412.65 L547.15 412.95 Q547.05 413.15 547.1 413.4 L547.4 413.75 547.55 413.8 M539.55 402.3 L539.4 402.6 539.0 402.8 538.6 402.7 Q535.75 400.55 532.5 399.5 L532.15 399.2 532.15 398.75 532.3 398.5 532.4 398.65 532.7 398.95 533.2 398.9 533.5 398.55 Q536.3 399.55 538.8 401.4 L538.7 401.85 538.95 402.2 539.4 402.35 539.55 402.3 M526.2 397.55 L526.25 397.8 526.1 398.25 525.65 398.4 Q522.0 398.4 518.85 399.45 L518.4 399.4 518.1 399.05 518.05 398.7 518.25 398.85 518.7 398.85 519.05 398.55 519.05 398.1 Q521.9 397.25 525.1 397.2 L525.3 397.65 525.7 397.8 526.1 397.65 526.2 397.55 M512.65 401.6 L512.85 401.8 513.0 402.2 512.75 402.6 Q511.35 403.6 510.2 404.9 L510.15 404.9 Q508.85 406.1 507.9 407.5 L507.5 407.75 507.1 407.6 506.9 407.4 507.05 407.4 507.4 407.2 507.55 406.7 507.3 406.35 507.3 406.3 Q508.15 405.1 509.3 404.05 L509.3 404.0 511.55 402.0 511.6 402.0 511.95 402.25 512.4 402.15 512.65 401.75 512.65 401.6 M500.3 429.1 L500.4 429.15 500.35 429.2 500.3 429.1 M510.4 442.35 L510.4 442.45 510.3 442.4 510.4 442.35 M509.4 398.95 L509.5 398.9 509.5 399.0 509.4 398.95" fill="url(#gradient2)" fill-rule="evenodd" stroke="none"/>
    <path d="M500.35 428.0 L503.5 427.0 503.8 426.95 503.95 427.0 504.25 427.35 504.25 427.8 503.9 428.1 500.7 429.15 500.4 429.15 500.3 429.1 500.0 428.75 500.0 428.3 500.35 428.0 M509.7 441.4 L511.7 438.7 511.95 438.45 512.1 438.4 512.5 438.55 512.8 438.9 512.65 439.35 510.65 442.1 510.4 442.35 510.3 442.4 509.85 442.25 509.6 441.9 509.7 441.45 509.7 441.4 M543.8 406.6 L544.0 406.35 546.8 404.4 547.25 404.25 547.6 404.5 547.75 404.95 547.7 405.1 547.5 405.35 544.75 407.3 544.7 407.3 544.3 407.4 543.9 407.2 543.8 406.7 543.8 406.6 M532.3 398.5 L532.3 398.2 533.3 395.0 533.6 394.65 534.1 394.6 534.4 394.9 534.5 395.05 534.5 395.35 533.5 398.55 533.2 398.9 532.7 398.95 532.4 398.65 532.3 398.5" fill="#3e4240" fill-rule="evenodd" stroke="none"/>
    <path d="M525.1 446.75 L525.1 443.35 525.2 443.05 525.3 442.9 Q525.45 442.7 525.7 442.75 L526.1 442.9 526.3 443.3 526.3 446.8 526.2 447.1 526.1 447.2 525.7 447.4 525.3 447.2 525.1 446.8 525.1 446.75 M533.15 441.85 L533.3 442.1 534.4 445.35 534.4 445.4 534.35 445.85 534.0 446.15 533.55 446.1 533.4 446.0 533.25 445.75 532.15 442.5 532.15 442.45 532.2 442.0 Q532.3 441.8 532.55 441.7 L533.0 441.75 533.15 441.85 M540.7 442.1 L538.65 439.35 538.55 439.0 538.55 438.9 538.8 438.5 539.2 438.4 539.6 438.6 541.65 441.4 541.8 441.65 541.8 441.8 541.55 442.2 541.1 442.35 540.7 442.1 M544.3 433.3 L544.55 433.4 547.4 435.45 547.65 435.85 547.55 436.3 547.15 436.55 547.0 436.55 546.7 436.4 543.9 434.4 543.85 434.35 543.6 434.0 Q543.55 433.75 543.75 433.55 L544.1 433.3 544.3 433.3 M550.7 429.1 L547.45 428.1 547.15 427.9 547.1 427.8 547.05 427.3 Q547.1 427.05 547.35 426.95 L547.8 426.9 551.1 427.95 551.35 428.15 551.45 428.25 551.5 428.7 551.2 429.1 550.7 429.1 M548.4 419.8 L548.7 419.7 552.15 419.7 552.55 419.9 552.75 420.3 552.55 420.7 552.45 420.8 552.15 420.9 548.7 420.9 548.3 420.7 548.1 420.3 548.3 419.9 548.4 419.8" fill="#303231" fill-rule="evenodd" stroke="none"/>
    <path d="M519.2 442.15 L519.2 442.5 518.1 445.75 518.1 445.8 517.8 446.1 517.35 446.15 517.0 445.85 516.95 445.7 517.0 445.4 518.05 442.1 Q518.15 441.85 518.35 441.75 L518.8 441.75 519.15 442.05 519.2 442.15 M551.1 412.75 L547.9 413.8 547.55 413.8 547.4 413.75 547.1 413.4 Q547.05 413.15 547.15 412.95 L547.5 412.65 550.75 411.6 551.05 411.6 551.2 411.65 551.5 412.0 551.5 412.45 551.1 412.75" fill="#3d413f" fill-rule="evenodd" stroke="none"/>
    <path d="M500.1 412.55 L500.3 412.7 503.5 413.75 M504.3 404.2 L504.1 404.0 503.65 403.85 503.25 404.1 Q500.6 407.65 499.3 411.8 L499.35 412.25 499.7 412.55 500.1 412.55 M500.35 429.2 L500.1 429.35 499.65 429.3 499.35 428.95 Q498.05 424.85 498.1 420.35 L498.3 419.9 Q498.45 419.7 498.7 419.75 L499.0 419.8 499.3 419.75 502.6 419.75 Q502.65 416.55 503.5 413.75 M500.4 429.15 L500.7 429.15 503.9 428.1 M500.35 429.2 L500.4 429.15 M510.4 442.45 L510.3 442.6 509.9 442.85 509.45 442.75 506.1 439.85 503.4 436.65 503.25 436.2 503.5 435.8 Q503.6 435.7 503.8 435.7 503.85 435.5 504.0 435.45 L506.7 433.5 Q504.85 430.95 503.9 428.1 M534.5 395.05 L534.7 394.75 534.65 394.3 534.3 394.0 Q530.2 392.65 525.7 392.7 525.45 392.7 525.3 392.9 L525.1 393.3 525.2 393.6 525.1 393.9 525.1 397.2 Q521.9 397.25 519.05 398.1 L518.05 395.0 517.9 394.75 517.9 394.4 517.6 394.05 517.1 394.0 Q512.95 395.3 509.4 398.0 509.15 398.15 509.15 398.4 L509.25 398.8 509.4 398.95 509.5 399.0 509.6 399.35 511.55 402.0 M534.5 395.05 L534.5 395.35 533.5 398.55 Q536.3 399.55 538.8 401.4 L540.8 398.6 Q540.9 398.45 541.05 398.4 L541.2 398.15 Q541.35 397.9 541.6 397.9 L542.0 398.0 545.2 400.8 548.1 404.15 548.2 404.6 548.0 405.0 547.7 405.1 547.5 405.35 544.75 407.3 544.7 407.3 Q546.45 409.8 547.5 412.65 L550.75 411.6 551.05 411.6 551.3 411.4 551.8 411.45 552.1 411.8 Q553.35 415.8 553.35 420.3 L553.15 420.7 Q552.95 420.9 552.75 420.9 L552.45 420.8 552.15 420.9 548.7 420.9 Q548.6 424.05 547.8 426.9 L551.1 427.95 551.35 428.15 551.65 428.2 552.0 428.45 552.05 428.9 Q550.65 433.05 548.0 436.65 L547.6 436.9 547.2 436.8 547.0 436.55 546.7 436.4 543.9 434.4 543.85 434.35 541.9 436.5 539.6 438.6 541.65 441.4 541.8 441.65 542.0 441.85 542.15 442.3 541.9 442.7 Q538.3 445.35 534.15 446.7 L533.7 446.7 533.4 446.3 533.4 446.0 533.25 445.75 532.15 442.5 532.15 442.45 526.3 443.3 526.3 446.8 526.2 447.1 526.3 447.4 526.1 447.8 525.7 448.0 Q521.15 447.95 517.15 446.7 L516.8 446.4 516.75 445.95 516.95 445.7 517.0 445.4 518.05 442.1 Q515.15 441.1 512.65 439.35 L510.65 442.1 510.4 442.35 510.4 442.45 M507.3 406.3 Q508.15 405.1 509.3 404.05 L509.3 404.0 511.55 402.0 M507.3 406.3 L504.6 404.35 504.3 404.2" fill="none" stroke="#1d2226" stroke-linecap="round" stroke-linejoin="round" stroke-width="0.5"/>
    <path d="M531.25 399.5 Q528.6 398.8 525.7 398.8 516.75 398.8 510.5 405.1 504.2 411.35 504.2 420.3 504.2 423.25 504.85 425.9 506.25 431.3 510.5 435.5 516.75 441.8 525.7 441.8 534.6 441.8 540.9 435.5 547.15 429.2 547.2 420.3 547.15 411.35 540.9 405.1 536.65 400.85 531.25 399.5 M525.7 396.8 Q535.4 396.8 542.3 403.7 L543.5 404.95 544.6 406.35 Q549.15 412.35 549.2 420.3 549.15 430.05 542.3 436.95 535.4 443.8 525.7 443.8 517.75 443.8 511.7 439.25 L510.35 438.15 509.05 436.95 Q502.2 430.05 502.2 420.3 502.2 410.55 509.05 403.7 515.9 396.8 525.7 396.8" fill="url(#gradient3)" fill-rule="evenodd" stroke="none"/>
    <path d="M531.25 399.5 Q536.65 400.85 540.9 405.1 547.15 411.35 547.2 420.3 547.15 429.2 540.9 435.5 534.6 441.8 525.7 441.8 516.75 441.8 510.5 435.5 506.25 431.3 504.85 425.9 504.2 423.25 504.2 420.3 504.2 411.35 510.5 405.1 516.75 398.8 525.7 398.8 528.6 398.8 531.25 399.5 M539.15 406.85 Q533.55 401.3 525.7 401.3 517.8 401.3 512.25 406.85 506.65 412.4 506.7 420.3 506.65 428.15 512.25 433.7 517.8 439.3 525.7 439.3 533.55 439.3 539.15 433.7 544.7 428.15 544.7 420.3 544.7 412.4 539.15 406.85" fill="url(#gradient4)" fill-rule="evenodd" stroke="none"/>
    <path d="M537.8 408.2 Q532.75 403.2 525.7 403.2 518.6 403.2 513.6 408.2 508.55 413.2 508.6 420.3 508.55 427.35 513.6 432.35 518.6 437.4 525.7 437.4 532.75 437.4 537.8 432.35 542.8 427.35 542.8 420.3 542.8 413.2 537.8 408.2 M539.15 406.85 Q544.7 412.4 544.7 420.3 544.7 428.15 539.15 433.7 533.55 439.3 525.7 439.3 517.8 439.3 512.25 433.7 506.65 428.15 506.7 420.3 506.65 412.4 512.25 406.85 517.8 401.3 525.7 401.3 533.55 401.3 539.15 406.85" fill="url(#gradient5)" fill-rule="evenodd" stroke="none"/>
    <path d="M537.8 408.2 Q542.8 413.2 542.8 420.3 542.8 427.35 537.8 432.35 532.75 437.4 525.7 437.4 518.6 437.4 513.6 432.35 508.55 427.35 508.6 420.3 508.55 413.2 513.6 408.2 518.6 403.2 525.7 403.2 532.75 403.2 537.8 408.2" fill="url(#gradient6)" fill-rule="evenodd" stroke="none"/>
    <path d="M525.7 396.8 Q515.9 396.8 509.05 403.7 502.2 410.55 502.2 420.3 502.2 430.05 509.05 436.95 L510.35 438.15 511.7 439.25 Q517.75 443.8 525.7 443.8 535.4 443.8 542.3 436.95 549.15 430.05 549.2 420.3 549.15 412.35 544.6 406.35 L543.5 404.95 542.3 403.7 Q535.4 396.8 525.7 396.8" fill="none" stroke="#1d2226" stroke-linecap="round" stroke-linejoin="round" stroke-width="0.5"/>
    <path d="M539.15 406.85 Q544.7 412.4 544.7 420.3 544.7 428.15 539.15 433.7 533.55 439.3 525.7 439.3 517.8 439.3 512.25 433.7 506.65 428.15 506.7 420.3 506.65 412.4 512.25 406.85 517.8 401.3 525.7 401.3 533.55 401.3 539.15 406.85" fill="none" stroke="#979c76" stroke-linecap="round" stroke-linejoin="round" stroke-width="0.5"/>
  </g>
  <defs>
    <linearGradient gradientTransform="matrix(0.0035, 0.0035, -0.3535, 0.3536, 671.8, 273.9)" gradientUnits="userSpaceOnUse" id="gradient0" spreadMethod="pad" x1="-819.2" x2="819.2">
      <stop offset="0.0" stop-color="#939797"/>
      <stop offset="1.0" stop-color="#484d4f"/>
    </linearGradient>
    <radialGradient cx="0" cy="0" gradientTransform="matrix(0.053, 0.0, 0.0, 0.053, 516.2, 402.45)" gradientUnits="userSpaceOnUse" id="gradient1" r="819.2" spreadMethod="pad">
      <stop offset="0.0" stop-color="#656869"/>
      <stop offset="1.0" stop-color="#565a5d"/>
    </radialGradient>
    <linearGradient gradientTransform="matrix(0.0062, 0.0075, -0.6156, 0.5089, 724.5, 255.75)" gradientUnits="userSpaceOnUse" id="gradient2" spreadMethod="pad" x1="-819.2" x2="819.2">
      <stop offset="0.0" stop-color="#626a67"/>
      <stop offset="1.0" stop-color="#303231"/>
    </linearGradient>
    <linearGradient gradientTransform="matrix(0.0043, 0.0043, -0.3535, 0.3536, 671.8, 273.9)" gradientUnits="userSpaceOnUse" id="gradient3" spreadMethod="pad" x1="-819.2" x2="819.2">
      <stop offset="0.0" stop-color="#939797"/>
      <stop offset="1.0" stop-color="#484d4f"/>
    </linearGradient>
    <radialGradient cx="0" cy="0" gradientTransform="matrix(0.0376, 0.0, 0.0, 0.0376, 515.85, 406.25)" gradientUnits="userSpaceOnUse" id="gradient4" r="819.2" spreadMethod="pad">
      <stop offset="0.0" stop-color="#656869"/>
      <stop offset="1.0" stop-color="#565a5d"/>
    </radialGradient>
    <linearGradient gradientTransform="matrix(0.0, 0.0095, -0.5, 0.0, 732.45, 412.8)" gradientUnits="userSpaceOnUse" id="gradient5" spreadMethod="pad" x1="-819.2" x2="819.2">
      <stop offset="0.0" stop-color="#ffffff"/>
      <stop offset="1.0" stop-color="#cfd7b5"/>
    </linearGradient>
    <radialGradient cx="0" cy="0" gradientTransform="matrix(0.0, 0.0125, -0.0193, 0.0, 525.15, 426.55)" gradientUnits="userSpaceOnUse" id="gradient6" r="819.2" spreadMethod="pad">
      <stop offset="0.2235294117647059" stop-color="#ffffff"/>
      <stop offset="0.7686274509803922" stop-color="#f2f3d8"/>
      <stop offset="1.0" stop-color="#f0f2d5"/>
    </radialGradient>
  </defs>
</svg>
