<?xml version="1.0" encoding="UTF-8" standalone="no"?>
<svg xmlns:xlink="http://www.w3.org/1999/xlink" height="30.6px" width="80.05px" xmlns="http://www.w3.org/2000/svg">
  <g transform="matrix(1.0, 0.0, 0.0, 1.0, 40.05, 15.3)">
    <path d="M40.0 -3.1 L39.85 -2.55 39.35 -1.45 38.75 -0.7 Q40.9 1.75 39.4 4.55 L38.55 5.6 Q37.5 6.6 36.2 7.0 L33.65 6.8 Q32.35 6.8 31.3 6.1 L28.75 3.9 Q28.05 5.5 26.6 6.5 25.15 7.45 23.5 7.6 L21.2 15.05 Q19.7 15.75 18.45 14.65 17.25 13.7 17.05 12.4 16.85 8.9 18.0 5.7 15.9 7.15 13.35 7.15 11.3 7.15 10.5 5.25 L7.7 6.55 5.75 5.2 5.65 5.7 Q5.45 6.5 4.55 6.9 3.3 7.45 2.3 6.5 L1.25 5.5 Q-0.25 6.85 -2.5 7.1 -5.5 7.4 -7.9 5.4 L-8.7 6.15 -9.8 6.55 -10.6 6.75 -11.4 6.45 Q-12.6 5.85 -12.95 4.55 L-13.15 3.65 Q-15.65 7.25 -19.95 8.1 -22.95 8.65 -25.9 8.1 -26.8 8.65 -27.75 8.7 -28.75 9.0 -29.45 8.35 L-33.7 4.35 -35.35 2.55 Q-36.15 1.7 -36.3 0.6 -36.5 -1.25 -35.3 -2.35 L-33.7 -3.6 -30.85 -4.85 -29.05 -9.75 -33.7 -10.4 -35.2 -10.6 -35.95 -9.75 Q-36.25 -9.4 -36.7 -9.3 -38.0 -9.0 -39.2 -9.65 -40.0 -10.2 -40.05 -11.25 L-39.9 -12.45 Q-38.95 -14.65 -36.55 -15.05 L-33.7 -15.3 -31.7 -15.25 Q-22.1 -14.5 -15.4 -7.5 -14.85 -10.1 -12.75 -11.75 -11.75 -12.55 -10.55 -12.9 -6.85 -14.25 -4.4 -11.2 -3.6 -10.25 -3.7 -8.7 -3.85 -7.05 -5.05 -6.0 -6.55 -4.65 -8.65 -3.8 L-8.4 -3.3 -6.5 -4.25 -2.5 -5.15 Q-0.6 -5.65 1.05 -4.7 L2.45 -3.7 4.0 -4.3 5.1 -4.35 5.25 -4.25 6.35 -6.45 7.25 -6.3 Q8.45 -5.75 9.5 -4.9 L10.55 -3.7 Q11.5 -4.65 12.55 -5.0 16.65 -6.0 20.3 -4.1 L23.85 -5.0 24.65 -3.85 27.3 -4.35 27.45 -4.85 Q26.55 -5.75 26.75 -6.85 27.0 -7.95 28.0 -8.65 L29.3 -9.15 30.55 -8.4 31.4 -7.4 32.3 -4.9 37.0 -5.0 Q38.85 -4.7 40.0 -3.1 M38.5 -2.8 Q38.05 -3.55 37.35 -3.55 35.8 -3.8 34.15 -3.6 L32.5 -3.1 Q31.4 -2.7 30.45 -2.0 29.7 -1.45 29.65 -0.45 29.95 0.4 30.85 0.6 L34.9 0.9 36.3 1.35 Q37.25 1.7 36.75 2.55 34.25 4.35 31.25 3.25 L31.1 2.4 35.65 2.75 35.9 1.95 Q34.3 1.2 32.4 1.25 31.55 1.45 30.8 1.85 30.05 2.25 30.2 3.05 30.45 4.1 31.5 4.7 33.3 5.7 35.45 5.3 37.9 5.2 38.35 2.65 38.6 1.15 37.2 0.4 35.3 -0.5 33.0 -0.5 32.0 -0.3 31.25 -1.0 L37.25 -2.0 38.1 -2.4 38.5 -2.8 M29.55 -5.1 L29.55 -4.5 28.7 -3.5 Q29.5 -3.05 30.2 -3.9 30.65 -4.5 30.6 -5.35 30.5 -7.45 28.6 -7.6 L28.15 -6.65 29.55 -5.1 M26.25 -2.75 Q23.15 -0.8 21.25 2.45 L23.05 -3.6 Q21.3 -2.8 20.85 -1.25 20.35 0.5 20.0 2.3 19.8 3.5 20.3 4.4 L19.0 9.5 Q18.75 10.6 18.8 11.8 18.9 13.2 20.35 13.6 L22.25 6.0 24.35 5.7 Q25.6 5.25 26.55 4.2 28.7 1.85 28.2 -1.25 27.95 -2.75 26.25 -2.75 M26.6 1.65 Q25.9 2.65 24.75 3.1 L23.35 3.6 26.65 -1.0 Q27.7 0.1 26.6 1.65 M-9.0 -12.0 Q-11.65 -11.6 -13.2 -9.3 -14.25 -7.75 -13.05 -6.3 L-12.45 -4.6 -11.75 -5.4 Q-8.1 -4.85 -5.8 -7.75 -4.9 -8.9 -5.4 -10.15 -5.75 -11.0 -6.75 -11.05 -7.55 -12.05 -9.0 -12.0 M-4.6 -0.5 Q-5.7 -0.4 -6.3 -1.05 L0.65 -2.3 0.85 -3.1 0.55 -3.35 -3.3 -3.7 -5.0 -3.2 Q-6.15 -2.8 -7.05 -2.05 -7.85 -1.4 -7.9 -0.5 -7.65 0.3 -6.7 0.55 L-2.7 0.85 Q-0.75 0.95 -0.75 2.5 -3.3 4.3 -6.35 3.15 -6.9 2.85 -6.5 2.3 L-1.95 2.65 -1.65 1.9 Q-3.3 1.2 -5.2 1.2 L-6.8 1.8 Q-7.55 2.15 -7.3 3.0 -7.0 4.15 -6.05 4.55 -3.4 5.85 -0.7 4.85 0.25 4.45 0.5 3.35 L0.6 1.85 Q0.45 0.45 -0.9 0.0 L-4.6 -0.5 M3.05 -1.15 Q2.35 2.05 3.0 5.25 L3.95 5.35 4.6 -0.15 8.0 4.9 Q9.65 4.05 9.9 2.15 10.2 -0.45 9.05 -2.65 L8.25 -3.9 7.1 -5.1 8.0 2.2 4.15 -3.0 Q3.25 -2.15 3.05 -1.15 M-6.9 -8.0 Q-8.65 -6.75 -10.8 -6.85 -9.7 -8.9 -7.45 -9.95 L-6.45 -9.8 Q-5.85 -8.7 -6.9 -8.0 M-12.4 -8.65 L-11.25 -9.7 Q-10.65 -10.15 -10.15 -10.2 L-12.4 -7.6 Q-12.75 -8.1 -12.4 -8.65 M-11.35 -2.7 L-11.35 4.8 -10.4 5.4 -9.5 5.0 -10.65 -3.75 -11.35 -2.7 M-14.6 -3.25 Q-15.65 -5.6 -17.5 -7.35 -23.5 -12.95 -31.9 -13.8 L-33.7 -13.6 -36.25 -13.3 Q-38.25 -13.15 -39.0 -11.4 L-36.8 -11.35 -37.95 -11.7 -35.55 -12.2 -33.7 -12.05 -30.9 -11.6 Q-27.3 -10.7 -23.85 -9.25 -19.7 -7.5 -17.1 -3.8 -16.25 -2.65 -16.2 -1.3 -16.1 0.55 -17.2 2.05 -18.65 3.95 -21.1 4.35 L-27.05 4.35 -27.15 -1.6 -25.55 -1.65 -21.5 -0.6 -22.2 0.65 -21.0 1.3 -20.1 0.2 Q-19.8 -0.35 -19.9 -0.95 L-20.4 -1.95 -21.5 -2.85 Q-24.15 -3.8 -26.95 -3.8 L-27.8 -7.9 -28.45 -8.3 -29.3 -3.55 Q-31.5 -3.0 -33.7 -1.85 L-34.15 -1.6 Q-34.95 -1.1 -35.2 0.05 L-33.7 2.05 Q-31.85 4.05 -29.35 5.2 L-28.75 7.4 -27.6 7.45 -27.05 6.05 -21.4 6.5 Q-19.2 6.45 -17.55 5.4 -16.25 4.6 -15.35 3.45 -12.9 0.45 -14.6 -3.25 M18.45 -3.45 Q16.65 -3.95 14.65 -3.45 L12.15 -2.9 13.65 -1.9 Q11.15 0.9 12.3 4.2 12.45 4.7 12.9 5.1 13.8 5.9 15.1 5.4 16.75 4.8 18.0 3.65 L17.65 2.55 13.85 3.0 14.2 1.6 17.65 0.75 17.2 -0.4 14.95 -0.5 15.3 -1.8 19.1 -2.3 18.45 -3.45 M-25.55 0.05 L-25.5 3.0 -21.95 2.85 -23.45 2.1 -23.9 0.4 -25.55 0.05 M-17.85 0.1 L-18.0 -1.65 -18.3 1.15 -17.85 0.1 M-18.55 -2.7 Q-21.3 -6.85 -26.0 -8.7 L-26.6 -8.95 Q-25.5 -7.35 -25.55 -5.35 -23.2 -5.25 -21.0 -4.45 -19.4 -3.9 -18.55 -2.7 M-34.5 0.0 Q-34.2 -0.3 -33.8 -0.4 L-33.7 -0.4 -29.3 -1.6 -29.5 3.55 -33.7 0.55 -34.5 0.0 M-31.0 0.35 L-31.85 0.5 -31.05 0.95 -31.0 0.35" fill="#000000" fill-rule="evenodd" stroke="none"/>
    <path d="M18.45 -3.45 L19.1 -2.3 15.3 -1.8 14.95 -0.5 17.2 -0.4 17.65 0.75 14.2 1.6 13.85 3.0 17.65 2.55 18.0 3.65 Q16.75 4.8 15.1 5.4 13.8 5.9 12.9 5.1 12.45 4.7 12.3 4.2 11.15 0.9 13.65 -1.9 L12.15 -2.9 14.65 -3.45 Q16.65 -3.95 18.45 -3.45 M-14.6 -3.25 Q-12.9 0.45 -15.35 3.45 -16.25 4.6 -17.55 5.4 -19.2 6.45 -21.4 6.5 L-27.05 6.05 -27.6 7.45 -28.75 7.4 -29.35 5.2 Q-31.85 4.05 -33.7 2.05 L-35.2 0.05 Q-34.95 -1.1 -34.15 -1.6 L-33.7 -1.85 Q-31.5 -3.0 -29.3 -3.55 L-28.45 -8.3 -27.8 -7.9 -26.95 -3.8 Q-24.15 -3.8 -21.5 -2.85 L-20.4 -1.95 -19.9 -0.95 Q-19.8 -0.35 -20.1 0.2 L-21.0 1.3 -22.2 0.65 -21.5 -0.6 -25.55 -1.65 -27.15 -1.6 -27.05 4.35 -21.1 4.35 Q-18.65 3.95 -17.2 2.05 -16.1 0.55 -16.2 -1.3 -16.25 -2.65 -17.1 -3.8 -19.7 -7.5 -23.85 -9.25 -27.3 -10.7 -30.9 -11.6 L-33.7 -12.05 -35.55 -12.2 -37.95 -11.7 -36.8 -11.35 -39.0 -11.4 Q-38.25 -13.15 -36.25 -13.3 L-33.7 -13.6 -31.9 -13.8 Q-23.5 -12.95 -17.5 -7.35 -15.65 -5.6 -14.6 -3.25 M-11.35 -2.7 L-10.65 -3.75 -9.5 5.0 -10.4 5.4 -11.35 4.8 -11.35 -2.7 M-12.4 -8.65 Q-12.75 -8.1 -12.4 -7.6 L-10.15 -10.2 Q-10.65 -10.15 -11.25 -9.7 L-12.4 -8.65 M-6.9 -8.0 Q-5.85 -8.7 -6.45 -9.8 L-7.45 -9.95 Q-9.7 -8.9 -10.8 -6.85 -8.65 -6.75 -6.9 -8.0 M3.05 -1.15 Q3.25 -2.15 4.15 -3.0 L8.0 2.2 7.1 -5.1 8.25 -3.9 9.05 -2.65 Q10.2 -0.45 9.9 2.15 9.65 4.05 8.0 4.9 L4.6 -0.15 3.95 5.35 3.0 5.25 Q2.35 2.05 3.05 -1.15 M-4.6 -0.5 L-0.9 0.0 Q0.45 0.45 0.6 1.85 L0.5 3.35 Q0.25 4.45 -0.7 4.85 -3.4 5.85 -6.05 4.55 -7.0 4.15 -7.3 3.0 -7.55 2.15 -6.8 1.8 L-5.2 1.2 Q-3.3 1.2 -1.65 1.9 L-1.95 2.65 -6.5 2.3 Q-6.9 2.85 -6.35 3.15 -3.3 4.3 -0.75 2.5 -0.75 0.95 -2.7 0.85 L-6.7 0.55 Q-7.65 0.3 -7.9 -0.5 -7.85 -1.4 -7.05 -2.05 -6.15 -2.8 -5.0 -3.2 L-3.3 -3.7 0.55 -3.35 0.85 -3.1 0.65 -2.3 -6.3 -1.05 Q-5.7 -0.4 -4.6 -0.5 M-9.0 -12.0 Q-7.55 -12.05 -6.75 -11.05 -5.75 -11.0 -5.4 -10.15 -4.9 -8.9 -5.8 -7.75 -8.1 -4.85 -11.75 -5.4 L-12.45 -4.6 -13.05 -6.3 Q-14.25 -7.75 -13.2 -9.3 -11.65 -11.6 -9.0 -12.0 M26.6 1.65 Q27.7 0.1 26.65 -1.0 L23.35 3.6 24.75 3.1 Q25.9 2.65 26.6 1.65 M26.25 -2.75 Q27.95 -2.75 28.2 -1.25 28.7 1.85 26.55 4.2 25.6 5.25 24.35 5.7 L22.25 6.0 20.35 13.6 Q18.9 13.2 18.8 11.8 18.75 10.6 19.0 9.5 L20.3 4.4 Q19.8 3.5 20.0 2.3 20.35 0.5 20.85 -1.25 21.3 -2.8 23.05 -3.6 L21.25 2.45 Q23.15 -0.8 26.25 -2.75 M29.55 -5.1 L28.15 -6.65 28.6 -7.6 Q30.5 -7.45 30.6 -5.35 30.65 -4.5 30.2 -3.9 29.5 -3.05 28.7 -3.5 L29.55 -4.5 29.55 -5.1 M38.5 -2.8 L38.1 -2.4 37.25 -2.0 31.25 -1.0 Q32.0 -0.3 33.0 -0.5 35.3 -0.5 37.2 0.4 38.6 1.15 38.35 2.65 37.9 5.2 35.45 5.3 33.3 5.7 31.5 4.7 30.45 4.1 30.2 3.05 30.05 2.25 30.8 1.85 31.55 1.45 32.4 1.25 34.3 1.2 35.9 1.95 L35.65 2.75 31.1 2.4 31.25 3.25 Q34.25 4.35 36.75 2.55 37.25 1.7 36.3 1.35 L34.9 0.9 30.85 0.6 Q29.95 0.4 29.65 -0.45 29.7 -1.45 30.45 -2.0 31.4 -2.7 32.5 -3.1 L34.15 -3.6 Q35.8 -3.8 37.35 -3.55 38.05 -3.55 38.5 -2.8 M-34.5 0.0 L-33.7 0.55 -29.5 3.55 -29.3 -1.6 -33.7 -0.4 -33.8 -0.4 Q-34.2 -0.3 -34.5 0.0" fill="#ffffff" fill-rule="evenodd" stroke="none"/>
  </g>
</svg>
