<?xml version="1.0" encoding="UTF-8" standalone="no"?>
<svg xmlns:xlink="http://www.w3.org/1999/xlink" height="69.1px" width="69.05px" xmlns="http://www.w3.org/2000/svg">
  <g transform="matrix(1.0, 0.0, 0.0, 1.0, 34.5, 34.55)">
    <path d="M10.75 -32.9 L11.2 -32.55 11.25 -31.95 11.0 -31.6 11.0 -31.2 9.75 -27.2 Q13.25 -25.95 16.4 -23.7 L18.9 -27.15 19.2 -27.4 19.35 -27.75 19.85 -28.05 20.4 -27.9 24.4 -24.4 28.0 -20.25 28.15 -19.7 27.85 -19.2 27.5 -19.05 27.25 -18.75 23.8 -16.3 Q25.95 -13.15 27.25 -9.6 L27.3 -9.6 31.35 -10.9 31.7 -10.95 32.05 -11.15 32.6 -11.1 33.0 -10.65 Q34.55 -5.65 34.55 -0.05 L34.35 0.5 33.8 0.7 33.45 0.6 33.05 0.7 28.75 0.7 Q28.6 4.65 27.6 8.25 L27.65 8.25 31.75 9.55 32.1 9.75 32.45 9.8 32.9 10.15 32.95 10.75 Q31.25 15.9 27.9 20.4 L27.4 20.7 26.85 20.55 26.6 20.25 26.3 20.1 22.75 17.55 22.7 17.55 20.3 20.25 17.4 22.85 19.95 26.3 20.1 26.65 20.4 26.9 20.55 27.45 20.25 27.95 Q15.75 31.3 10.6 33.0 L10.0 32.95 9.65 32.5 9.65 32.1 9.45 31.8 8.1 27.7 8.1 27.65 Q4.6 28.6 0.75 28.75 L0.75 33.05 0.65 33.45 0.75 33.8 0.55 34.35 0.0 34.55 Q-5.65 34.5 -10.65 33.0 L-11.1 32.6 -11.15 32.05 -10.9 31.7 -10.9 31.3 -9.55 27.2 Q-13.15 26.0 -16.3 23.8 L-18.8 27.25 -19.1 27.5 -19.25 27.85 Q-19.45 28.1 -19.75 28.15 L-20.3 28.0 -24.45 24.4 -27.9 20.4 -28.05 19.85 -27.75 19.35 -27.4 19.2 -27.1 18.9 -23.75 16.45 Q-26.0 13.25 -27.25 9.7 L-31.2 11.0 -31.6 11.05 -31.95 11.3 -32.55 11.25 -32.9 10.8 Q-34.55 5.65 -34.5 0.0 L-34.25 -0.5 -33.75 -0.75 -33.35 -0.65 -33.0 -0.75 -28.85 -0.75 Q-28.75 -4.7 -27.75 -8.25 L-31.7 -9.55 -32.0 -9.7 -32.45 -9.7 -32.9 -10.1 -32.95 -10.65 Q-31.35 -15.85 -28.05 -20.3 L-27.55 -20.6 -27.0 -20.45 -26.75 -20.15 -26.4 -20.0 -23.0 -17.5 -20.5 -20.35 -20.45 -20.4 -17.65 -22.9 -20.1 -26.25 -20.25 -26.65 -20.55 -26.9 -20.7 -27.45 -20.4 -27.95 Q-15.95 -31.3 -10.7 -32.9 L-10.15 -32.85 -9.75 -32.4 -9.75 -32.0 -9.55 -31.65 -8.3 -27.8 Q-4.75 -28.8 -0.75 -28.9 L-0.75 -33.05 -0.65 -33.4 -0.75 -33.8 -0.5 -34.3 0.0 -34.55 Q5.65 -34.55 10.75 -32.9" fill="#000000" fill-rule="evenodd" stroke="none"/>
  </g>
</svg>
