<?xml version="1.0" encoding="UTF-8" standalone="no"?>
<svg xmlns:xlink="http://www.w3.org/1999/xlink" height="76.75px" width="290.6px" xmlns="http://www.w3.org/2000/svg">
  <g transform="matrix(1.0, 0.0, 0.0, 1.0, 145.3, 36.55)">
    <path d="M112.1 -17.55 L128.85 -17.55 128.85 -8.3 112.1 -8.3 112.1 -17.55" fill="url(#gradient0)" fill-rule="evenodd" stroke="none"/>
    <path d="M128.85 -8.3 L128.85 -17.55 133.1 -17.55 Q136.85 -17.55 139.45 -14.95 142.1 -12.3 142.1 -8.55 L142.1 -4.3 132.85 -4.3 Q132.85 -5.95 131.65 -7.15 130.5 -8.3 128.85 -8.3" fill="url(#gradient1)" fill-rule="evenodd" stroke="none"/>
    <path d="M142.1 -4.3 L143.1 -4.3 143.1 -1.8 131.85 -1.8 131.85 -4.3 132.85 -4.3 142.1 -4.3 M143.1 14.7 L143.1 17.2 142.1 17.2 132.85 17.2 131.85 17.2 131.85 14.7 143.1 14.7" fill="url(#gradient2)" fill-rule="evenodd" stroke="none"/>
    <path d="M143.1 -1.8 L144.6 -1.8 Q145.55 6.45 144.6 14.7 L143.1 14.7 131.85 14.7 130.35 14.7 Q129.45 6.65 130.35 -1.8 L131.85 -1.8 143.1 -1.8" fill="url(#gradient3)" fill-rule="evenodd" stroke="none"/>
    <path d="M128.85 30.45 L112.1 30.45 112.1 21.2 128.85 21.2 128.85 30.45" fill="url(#gradient4)" fill-rule="evenodd" stroke="none"/>
    <path d="M142.1 17.2 L142.1 18.2 132.75 18.2 132.85 17.2 142.1 17.2" fill="#544e4e" fill-rule="evenodd" stroke="none"/>
    <path d="M142.1 18.2 L142.1 21.45 Q142.1 25.2 139.45 27.8 136.85 30.45 133.1 30.45 L128.85 30.45 128.85 21.2 Q130.5 21.2 131.65 20.0 132.5 19.2 132.75 18.2 L142.1 18.2" fill="url(#gradient5)" fill-rule="evenodd" stroke="none"/>
    <path d="M128.85 -17.55 L112.1 -17.55 M112.1 -8.3 L128.85 -8.3 M128.85 -17.55 L133.1 -17.55 Q136.85 -17.55 139.45 -14.95 142.1 -12.3 142.1 -8.55 L142.1 -4.3 M143.1 -4.3 L143.1 -1.8 144.6 -1.8 Q145.55 6.45 144.6 14.7 L143.1 14.7 143.1 17.2 M142.1 17.2 L142.1 18.2 142.1 21.45 Q142.1 25.2 139.45 27.8 136.85 30.45 133.1 30.45 L128.85 30.45 112.1 30.45 M112.1 21.2 L128.85 21.2 Q130.5 21.2 131.65 20.0 132.5 19.2 132.75 18.2 L132.85 17.2 142.1 17.2 M131.85 17.2 L131.85 14.7 130.35 14.7 Q129.45 6.65 130.35 -1.8 L131.85 -1.8 131.85 -4.3 M132.85 -4.3 Q132.85 -5.95 131.65 -7.15 130.5 -8.3 128.85 -8.3 M131.85 -1.8 L143.1 -1.8 M131.85 14.7 L143.1 14.7 M132.85 -4.3 L142.1 -4.3" fill="none" stroke="#363434" stroke-linecap="round" stroke-linejoin="round" stroke-width="0.5"/>
    <path d="M112.1 -17.55 L112.1 -8.3 M142.1 -4.3 L143.1 -4.3 M143.1 17.2 L142.1 17.2 M112.1 30.45 L112.1 21.2 M132.85 17.2 L131.85 17.2 M131.85 -4.3 L132.85 -4.3" fill="none" stroke="#363434" stroke-linecap="round" stroke-linejoin="round" stroke-width="0.5"/>
    <path d="M138.5 -0.4 L138.85 0.5 138.5 1.35 137.65 1.7 Q137.1 1.7 136.75 1.35 136.4 1.0 136.45 0.5 136.4 -0.05 136.75 -0.4 137.1 -0.75 137.65 -0.7 L138.5 -0.4" fill="url(#gradient6)" fill-rule="evenodd" stroke="none"/>
    <path d="M138.5 11.6 L138.85 12.5 138.5 13.35 137.65 13.7 Q137.1 13.7 136.75 13.35 136.4 13.0 136.45 12.5 136.4 11.95 136.75 11.6 137.1 11.25 137.65 11.3 L138.5 11.6" fill="url(#gradient7)" fill-rule="evenodd" stroke="none"/>
    <path d="M133.3 -0.4 L133.6 0.5 133.3 1.35 Q133.05 1.7 132.65 1.7 132.2 1.7 131.9 1.35 131.65 1.0 131.7 0.5 131.65 -0.05 131.9 -0.4 132.2 -0.75 132.65 -0.7 133.05 -0.75 133.3 -0.4" fill="url(#gradient8)" fill-rule="evenodd" stroke="none"/>
    <path d="M133.3 11.6 L133.6 12.5 133.3 13.35 Q133.05 13.7 132.65 13.7 132.2 13.7 131.9 13.35 131.65 13.0 131.7 12.5 131.65 11.95 131.9 11.6 132.2 11.25 132.65 11.3 133.05 11.25 133.3 11.6" fill="url(#gradient9)" fill-rule="evenodd" stroke="none"/>
    <path d="M143.3 -0.4 L143.6 0.5 143.3 1.35 142.65 1.7 Q142.2 1.7 141.9 1.35 141.65 1.0 141.7 0.5 141.65 -0.05 141.9 -0.4 142.2 -0.75 142.65 -0.7 143.05 -0.75 143.3 -0.4" fill="url(#gradient10)" fill-rule="evenodd" stroke="none"/>
    <path d="M143.3 11.6 L143.6 12.5 143.3 13.35 142.65 13.7 Q142.2 13.7 141.9 13.35 141.65 13.0 141.7 12.5 141.65 11.95 141.9 11.6 142.2 11.25 142.65 11.3 143.05 11.25 143.3 11.6" fill="url(#gradient11)" fill-rule="evenodd" stroke="none"/>
    <path d="M92.4 -34.6 L94.7 -34.6 Q96.35 -34.6 97.5 -33.45 98.7 -32.25 98.7 -30.6 L98.7 -27.8 93.4 -27.8 93.4 -28.3 93.1 -29.0 92.4 -29.3 92.4 -34.6" fill="url(#gradient12)" fill-rule="evenodd" stroke="none"/>
    <path d="M92.4 -34.6 L92.4 -29.3 55.25 -29.3 55.25 -34.6 92.4 -34.6" fill="url(#gradient13)" fill-rule="evenodd" stroke="none"/>
    <path d="M93.4 -27.8 L98.7 -27.8 98.7 -18.1 93.4 -18.1 93.4 -27.8" fill="url(#gradient14)" fill-rule="evenodd" stroke="none"/>
    <path d="M54.55 -34.6 L55.25 -34.6 55.25 -29.3 54.55 -29.3 54.55 -34.6" fill="#544e4e" fill-rule="evenodd" stroke="none"/>
    <path d="M54.55 -34.6 L54.55 -29.3 54.55 -28.0 50.8 -28.0 50.8 -28.75 50.8 -35.1 50.8 -36.3 54.55 -36.3 54.55 -34.6" fill="url(#gradient15)" fill-rule="evenodd" stroke="none"/>
    <path d="M50.8 -28.75 L48.9 -28.75 Q48.45 -28.75 48.1 -28.35 47.7 -28.0 47.7 -27.55 L41.35 -27.55 41.35 -30.3 Q41.35 -32.3 42.75 -33.7 44.15 -35.1 46.15 -35.1 L50.8 -35.1 50.8 -28.75" fill="url(#gradient16)" fill-rule="evenodd" stroke="none"/>
    <path d="M47.7 -27.55 L47.7 -18.1 41.35 -18.1 41.35 -27.55 47.7 -27.55" fill="url(#gradient17)" fill-rule="evenodd" stroke="none"/>
    <path d="M98.7 -27.8 L98.7 -30.6 Q98.7 -32.25 97.5 -33.45 96.35 -34.6 94.7 -34.6 L92.4 -34.6 M92.4 -29.3 L93.1 -29.0 93.4 -28.3 93.4 -27.8 M98.7 -27.8 L98.7 -18.1 M93.4 -18.1 L93.4 -27.8 M55.25 -34.6 L54.55 -34.6 54.55 -29.3 55.25 -29.3 M55.25 -34.6 L92.4 -34.6 M50.8 -35.1 L50.8 -36.3 54.55 -36.3 54.55 -34.6 M50.8 -28.75 L48.9 -28.75 Q48.45 -28.75 48.1 -28.35 47.7 -28.0 47.7 -27.55 L47.7 -18.1 M41.35 -18.1 L41.35 -27.55 41.35 -30.3 Q41.35 -32.3 42.75 -33.7 44.15 -35.1 46.15 -35.1 L50.8 -35.1 50.8 -28.75 50.8 -28.0 54.55 -28.0 54.55 -29.3 M92.4 -29.3 L55.25 -29.3" fill="none" stroke="#363434" stroke-linecap="round" stroke-linejoin="round" stroke-width="0.5"/>
    <path d="M113.2 -22.4 Q114.95 -20.65 114.95 -18.25 L114.95 34.15 Q114.95 36.5 113.2 38.2 111.5 39.95 109.15 39.95 L-139.25 39.95 Q-141.65 39.95 -143.35 38.2 -145.05 36.5 -145.05 34.15 L-145.05 -18.25 Q-145.05 -20.65 -143.35 -22.4 -141.65 -24.1 -139.25 -24.05 L109.15 -24.05 Q111.5 -24.1 113.2 -22.4 M107.7 -17.35 Q107.0 -18.05 106.05 -18.05 L-109.75 -18.05 -110.1 -17.9 -110.25 -17.55 -110.25 -9.9 Q-110.25 -9.3 -110.7 -8.85 -111.15 -8.4 -111.75 -8.4 L-137.95 -8.4 -138.05 -8.4 -138.4 -8.25 -138.55 -7.9 -138.55 30.55 Q-138.55 31.5 -137.85 32.2 -137.15 32.9 -136.15 32.95 L106.1 32.95 Q107.0 32.9 107.7 32.2 108.4 31.5 108.45 30.6 L108.45 -15.65 Q108.4 -16.65 107.7 -17.35" fill="url(#gradient18)" fill-rule="evenodd" stroke="none"/>
    <path d="M107.7 -17.35 Q108.4 -16.65 108.45 -15.65 L108.45 30.6 Q108.4 31.5 107.7 32.2 107.0 32.9 106.1 32.95 L-136.15 32.95 Q-137.15 32.9 -137.85 32.2 -138.55 31.5 -138.55 30.55 L-138.55 -7.9 -138.4 -8.25 -138.05 -8.4 -137.95 -8.4 -111.75 -8.4 Q-111.15 -8.4 -110.7 -8.85 -110.25 -9.3 -110.25 -9.9 L-110.25 -17.55 -110.1 -17.9 -109.75 -18.05 106.05 -18.05 Q107.0 -18.05 107.7 -17.35 M107.45 -15.55 L107.45 -15.6 107.0 -16.65 Q106.6 -17.05 106.05 -17.05 L-109.25 -17.05 -109.25 -9.9 Q-109.25 -8.9 -110.0 -8.15 -110.75 -7.4 -111.75 -7.4 L-137.55 -7.4 -137.55 -5.9 -137.55 30.55 Q-137.55 31.1 -137.15 31.5 -136.75 31.9 -136.15 31.95 L106.05 31.95 107.0 31.5 107.45 30.55 107.45 -15.55" fill="url(#gradient19)" fill-rule="evenodd" stroke="none"/>
    <path d="M-137.55 -5.9 L-137.55 -7.4 -111.75 -7.4 Q-110.75 -7.4 -110.0 -8.15 -109.25 -8.9 -109.25 -9.9 L-109.25 -17.05 106.05 -17.05 Q106.6 -17.05 107.0 -16.65 L107.45 -15.6 107.45 -15.55 -107.35 -15.55 -107.35 -7.9 Q-107.35 -7.1 -107.95 -6.5 -108.55 -5.9 -109.35 -5.9 L-137.55 -5.9" fill="#354043" fill-rule="evenodd" stroke="none"/>
    <path d="M-137.55 -5.9 L-109.35 -5.9 Q-108.55 -5.9 -107.95 -6.5 -107.35 -7.1 -107.35 -7.9 L-107.35 -15.55 107.45 -15.55 107.45 30.55 107.0 31.5 106.05 31.95 -136.15 31.95 Q-136.75 31.9 -137.15 31.5 -137.55 31.1 -137.55 30.55 L-137.55 -5.9" fill="url(#gradient20)" fill-rule="evenodd" stroke="none"/>
    <path d="M113.2 -22.4 Q111.5 -24.1 109.15 -24.05 L-139.25 -24.05 Q-141.65 -24.1 -143.35 -22.4 -145.05 -20.65 -145.05 -18.25 L-145.05 34.15 Q-145.05 36.5 -143.35 38.2 -141.65 39.95 -139.25 39.95 L109.15 39.95 Q111.5 39.95 113.2 38.2 114.95 36.5 114.95 34.15 L114.95 -18.25 Q114.95 -20.65 113.2 -22.4 Z" fill="none" stroke="#363434" stroke-linecap="round" stroke-linejoin="round" stroke-width="0.5"/>
  </g>
  <defs>
    <linearGradient gradientTransform="matrix(0.0, 0.0056, -0.0056, 0.0, 120.5, -12.9)" gradientUnits="userSpaceOnUse" id="gradient0" spreadMethod="pad" x1="-819.2" x2="819.2">
      <stop offset="0.0" stop-color="#6f6b6a"/>
      <stop offset="0.48627450980392156" stop-color="#adaeb1"/>
      <stop offset="1.0" stop-color="#5c5c5c"/>
    </linearGradient>
    <radialGradient cx="0" cy="0" gradientTransform="matrix(0.0109, 0.0109, -0.0106, 0.0106, 130.35, -5.75)" gradientUnits="userSpaceOnUse" id="gradient1" r="819.2" spreadMethod="pad">
      <stop offset="0.2823529411764706" stop-color="#666464"/>
      <stop offset="0.6" stop-color="#b1b2b5"/>
      <stop offset="1.0" stop-color="#605b5a"/>
    </radialGradient>
    <linearGradient gradientTransform="matrix(0.0051, 0.0, 0.0, 0.0015, 137.45, -3.05)" gradientUnits="userSpaceOnUse" id="gradient2" spreadMethod="pad" x1="-819.2" x2="819.2">
      <stop offset="0.0" stop-color="#68605d"/>
      <stop offset="0.48627450980392156" stop-color="#89807b"/>
      <stop offset="1.0" stop-color="#5b5a59"/>
    </linearGradient>
    <linearGradient gradientTransform="matrix(0.0092, 0.0, 0.0, 0.0101, 137.45, 6.45)" gradientUnits="userSpaceOnUse" id="gradient3" spreadMethod="pad" x1="-819.2" x2="819.2">
      <stop offset="0.0" stop-color="#78695c"/>
      <stop offset="0.48627450980392156" stop-color="#d9d7d4"/>
      <stop offset="1.0" stop-color="#6f7276"/>
    </linearGradient>
    <linearGradient gradientTransform="matrix(0.0, -0.0056, 0.0102, 0.0, 120.5, 25.8)" gradientUnits="userSpaceOnUse" id="gradient4" spreadMethod="pad" x1="-819.2" x2="819.2">
      <stop offset="0.0" stop-color="#625e5e"/>
      <stop offset="0.48627450980392156" stop-color="#adaeb1"/>
      <stop offset="1.0" stop-color="#535353"/>
    </linearGradient>
    <radialGradient cx="0" cy="0" gradientTransform="matrix(0.0143, 0.0, 0.0, 0.0143, 130.6, 18.9)" gradientUnits="userSpaceOnUse" id="gradient5" r="819.2" spreadMethod="pad">
      <stop offset="0.2823529411764706" stop-color="#666464"/>
      <stop offset="0.6" stop-color="#b1b2b5"/>
      <stop offset="1.0" stop-color="#605b5a"/>
    </radialGradient>
    <radialGradient cx="0" cy="0" gradientTransform="matrix(0.0014, 0.0, 0.0, 0.0014, 137.75, 0.5)" gradientUnits="userSpaceOnUse" id="gradient6" r="819.2" spreadMethod="pad">
      <stop offset="0.0" stop-color="#8d8076"/>
      <stop offset="1.0" stop-color="#605959"/>
    </radialGradient>
    <radialGradient cx="0" cy="0" gradientTransform="matrix(0.0014, 0.0, 0.0, 0.0014, 137.75, 12.5)" gradientUnits="userSpaceOnUse" id="gradient7" r="819.2" spreadMethod="pad">
      <stop offset="0.0" stop-color="#8d8076"/>
      <stop offset="1.0" stop-color="#605959"/>
    </radialGradient>
    <radialGradient cx="0" cy="0" gradientTransform="matrix(0.0011, 0.0, 0.0, 0.0014, 132.7, 0.5)" gradientUnits="userSpaceOnUse" id="gradient8" r="819.2" spreadMethod="pad">
      <stop offset="0.0" stop-color="#8d8076"/>
      <stop offset="1.0" stop-color="#605959"/>
    </radialGradient>
    <radialGradient cx="0" cy="0" gradientTransform="matrix(0.0011, 0.0, 0.0, 0.0014, 132.7, 12.5)" gradientUnits="userSpaceOnUse" id="gradient9" r="819.2" spreadMethod="pad">
      <stop offset="0.0" stop-color="#8d8076"/>
      <stop offset="1.0" stop-color="#605959"/>
    </radialGradient>
    <radialGradient cx="0" cy="0" gradientTransform="matrix(0.0011, 0.0, 0.0, 0.0014, 142.7, 0.5)" gradientUnits="userSpaceOnUse" id="gradient10" r="819.2" spreadMethod="pad">
      <stop offset="0.0" stop-color="#8d8076"/>
      <stop offset="1.0" stop-color="#605959"/>
    </radialGradient>
    <radialGradient cx="0" cy="0" gradientTransform="matrix(0.0011, 0.0, 0.0, 0.0014, 142.7, 12.5)" gradientUnits="userSpaceOnUse" id="gradient11" r="819.2" spreadMethod="pad">
      <stop offset="0.0" stop-color="#8d8076"/>
      <stop offset="1.0" stop-color="#605959"/>
    </radialGradient>
    <radialGradient cx="0" cy="0" gradientTransform="matrix(0.007, 0.0, 0.0, 0.007, 92.75, -28.5)" gradientUnits="userSpaceOnUse" id="gradient12" r="819.2" spreadMethod="pad">
      <stop offset="0.2823529411764706" stop-color="#666464"/>
      <stop offset="0.6" stop-color="#b1b2b5"/>
      <stop offset="1.0" stop-color="#605b5a"/>
    </radialGradient>
    <linearGradient gradientTransform="matrix(0.0, 0.0026, -0.0231, 0.0, 73.5, -31.95)" gradientUnits="userSpaceOnUse" id="gradient13" spreadMethod="pad" x1="-819.2" x2="819.2">
      <stop offset="0.0" stop-color="#6b6767"/>
      <stop offset="0.48627450980392156" stop-color="#adaeb1"/>
      <stop offset="1.0" stop-color="#5c5c5c"/>
    </linearGradient>
    <linearGradient gradientTransform="matrix(-0.0026, 0.0, 0.0, -0.0032, 96.05, -22.95)" gradientUnits="userSpaceOnUse" id="gradient14" spreadMethod="pad" x1="-819.2" x2="819.2">
      <stop offset="0.0" stop-color="#6f6b6a"/>
      <stop offset="0.48627450980392156" stop-color="#adaeb1"/>
      <stop offset="1.0" stop-color="#5c5c5c"/>
    </linearGradient>
    <linearGradient gradientTransform="matrix(0.0, 0.0034, -0.0051, 0.0, 52.65, -32.15)" gradientUnits="userSpaceOnUse" id="gradient15" spreadMethod="pad" x1="-819.2" x2="819.2">
      <stop offset="0.0" stop-color="#68605d"/>
      <stop offset="0.48627450980392156" stop-color="#89807b"/>
      <stop offset="1.0" stop-color="#5b5a59"/>
    </linearGradient>
    <radialGradient cx="0" cy="0" gradientTransform="matrix(0.0088, 0.0, 0.0, 0.0088, 48.9, -27.85)" gradientUnits="userSpaceOnUse" id="gradient16" r="819.2" spreadMethod="pad">
      <stop offset="0.2823529411764706" stop-color="#666464"/>
      <stop offset="0.6" stop-color="#b1b2b5"/>
      <stop offset="1.0" stop-color="#605b5a"/>
    </radialGradient>
    <linearGradient gradientTransform="matrix(0.0032, 0.0, 0.0, 0.0039, 44.55, -22.85)" gradientUnits="userSpaceOnUse" id="gradient17" spreadMethod="pad" x1="-819.2" x2="819.2">
      <stop offset="0.0" stop-color="#646060"/>
      <stop offset="0.48627450980392156" stop-color="#adaeb1"/>
      <stop offset="1.0" stop-color="#5c5c5c"/>
    </linearGradient>
    <linearGradient gradientTransform="matrix(0.0097, 0.0363, -0.9659, 0.2588, 82.4, -16.2)" gradientUnits="userSpaceOnUse" id="gradient18" spreadMethod="pad" x1="-819.2" x2="819.2">
      <stop offset="0.0" stop-color="#acacae"/>
      <stop offset="1.0" stop-color="#8d8989"/>
    </linearGradient>
    <linearGradient gradientTransform="matrix(-5.0E-4, -0.0028, 0.9797, -0.1884, -127.1, 28.25)" gradientUnits="userSpaceOnUse" id="gradient19" spreadMethod="pad" x1="-819.2" x2="819.2">
      <stop offset="0.0" stop-color="#c7c5c5"/>
      <stop offset="1.0" stop-color="#363434"/>
    </linearGradient>
    <radialGradient cx="0" cy="0" gradientTransform="matrix(0.0263, 0.0712, -0.1147, 0.0424, -16.35, 4.1)" gradientUnits="userSpaceOnUse" id="gradient20" r="819.2" spreadMethod="pad">
      <stop offset="0.0" stop-color="#52646e"/>
      <stop offset="1.0" stop-color="#525e63"/>
    </radialGradient>
  </defs>
</svg>
