<?xml version="1.0" encoding="UTF-8" standalone="no"?>
<svg xmlns:xlink="http://www.w3.org/1999/xlink" height="50.5px" width="223.5px" xmlns="http://www.w3.org/2000/svg">
  <g transform="matrix(1.0, 0.0, 0.0, 1.0, 111.75, 25.3)">
    <path d="M-1.75 -7.6 L0.2 -7.1 -4.2 -3.8 -9.1 -9.55 -6.35 -8.85 -3.9 -6.05 -1.75 -7.6 M8.95 -4.2 L-1.45 6.15 -6.65 0.15 -3.7 0.45 -1.4 3.35 6.9 -4.6 8.95 -4.2 M17.75 -10.7 L17.95 -5.4 25.0 -5.25 23.25 -3.65 16.0 -3.65 15.3 -12.85 17.75 -10.7 M19.0 2.2 L22.25 5.45 26.5 0.15 26.9 7.25 30.65 7.25 30.9 7.9 31.45 9.1 25.8 8.85 25.45 3.15 22.45 7.4 16.6 2.25 19.0 2.2 M31.7 -4.9 L35.15 -4.85 36.05 -3.6 32.7 -3.6 31.7 -4.9 M25.65 -17.2 L25.75 -9.7 24.65 -11.3 24.2 -18.85 25.65 -17.2 M36.8 -4.75 L38.65 -3.8 40.55 -0.4 43.3 -1.6 44.75 -0.75 40.15 1.1 36.8 -4.75 M55.65 -11.6 L55.75 -7.7 64.25 -6.25 65.35 -5.0 54.25 -6.4 54.3 -13.55 55.65 -11.6 M51.7 -4.15 L53.4 -2.15 53.25 1.65 59.65 2.3 57.05 9.5 61.9 10.25 62.75 12.8 54.95 11.15 57.8 3.3 51.95 2.8 51.7 -4.15 M87.7 -0.8 L90.05 0.1 92.85 5.85 96.85 4.25 98.55 4.95 98.45 4.95 92.5 7.35 91.8 6.2 91.4 5.55 87.7 -0.8 M-104.85 -10.55 L-102.8 -9.4 -91.25 16.2 -87.0 14.45 -84.55 15.75 -92.2 20.4 -106.85 -11.6 -104.85 -10.55 M-89.4 5.3 L-82.7 2.75 -80.75 3.6 -85.9 5.8 -86.25 5.95 -87.2 6.35 -89.4 5.3 M-63.3 1.95 L-71.2 3.7 -71.8 -2.4 -70.4 -1.65 -70.1 -1.5 -69.65 1.9 -64.65 1.0 -63.3 1.95 M-66.3 -8.8 L-63.85 -8.3 -59.35 -3.4 -56.9 -5.15 -54.95 -4.9 -59.85 -1.15 -66.3 -8.8 M-40.75 -13.95 L-41.7 -15.95 -35.8 -15.05 -36.15 -8.25 -37.8 -9.95 -37.55 -13.4 -40.75 -13.95 M-46.4 -21.55 L-44.55 -19.45 -45.15 -5.8 -41.6 -5.05 -40.7 -3.15 -47.2 -4.3 -46.4 -21.55 M-33.25 4.8 L-31.9 7.05 -31.9 6.95 -31.85 7.05 -31.9 7.05 -39.15 6.3 -38.4 -4.75 -39.35 -5.0 -40.6 -5.4 -41.55 -6.8 -37.0 -6.15 -37.7 4.2 -33.25 4.8 M-23.9 -13.05 L-24.05 -16.65 -21.85 -14.5 -21.75 -6.9 -23.65 -8.6 -23.85 -12.65 -23.9 -13.05 M-14.95 7.5 L-21.05 6.35 -18.3 -2.4 -22.65 -2.3 -24.25 -3.65 -16.15 -3.95 -18.3 4.35 -15.85 5.0 -14.95 7.4 -14.95 7.5 M-22.5 1.55 L-28.75 1.65 -28.95 -8.4 -27.25 -6.8 -27.25 -0.45 -24.15 -0.45 -22.5 1.55 M-59.3 5.1 L-55.5 9.8 -47.75 0.65 -45.7 0.75 -55.5 12.25 -62.6 5.05 -59.3 5.1 M-79.65 4.9 Q-78.8 5.3 -77.9 5.75 L-77.15 9.3 -78.35 8.75 -79.65 4.9 M-70.05 13.65 L-68.65 14.75 -74.2 15.6 -74.35 10.85 -76.7 11.4 -78.05 11.0 -73.1 9.8 -72.65 14.15 -70.05 13.65 M-80.65 10.5 L-79.6 13.7 -77.45 13.1 -76.05 13.65 -80.2 15.1 -82.3 10.1 -80.65 10.5 M105.55 11.05 L107.35 11.8 91.9 19.9 87.65 11.8 90.7 13.15 92.8 17.3 105.55 11.05 M69.35 2.1 L70.2 4.9 74.8 3.8 73.2 11.6 79.1 12.6 80.1 14.3 80.1 14.4 80.05 14.4 77.65 13.95 71.55 12.8 73.3 5.55 69.15 6.65 67.35 1.35 69.35 2.1 M36.95 4.1 L39.35 4.65 40.85 7.4 48.85 3.95 50.45 4.65 40.0 9.4 36.95 4.1 M11.35 4.25 Q10.05 4.25 9.15 3.2 8.25 2.1 8.25 0.55 L9.5 0.5 Q9.85 2.6 11.9 2.7 L12.9 2.3 13.55 3.7 Q12.65 4.3 11.35 4.25" fill="#f79710" fill-rule="evenodd" stroke="none"/>
    <path d="M0.25 -7.15 L0.2 -7.1 -1.75 -7.6 0.25 -7.15 M-9.1 -9.55 L-9.2 -9.65 -6.35 -8.9 -4.2 -10.75 -1.75 -7.6 -3.9 -6.05 -6.35 -8.85 -9.1 -9.55 M-3.7 0.45 L5.35 -6.7 6.9 -4.6 -1.4 3.35 -3.7 0.45 M25.0 -5.25 L17.95 -5.4 17.75 -10.7 25.7 -9.7 24.65 -11.3 25.75 -9.7 25.65 -17.2 32.5 -16.2 32.05 -8.65 35.3 -8.15 35.15 -4.85 31.7 -4.9 30.65 7.25 26.9 7.25 26.5 0.15 22.25 5.45 19.0 2.2 26.35 -5.25 25.0 -5.25 M43.3 -1.6 L40.55 -0.4 38.65 -3.8 42.0 -5.4 43.3 -1.6 M31.45 9.0 L31.45 9.1 30.9 7.9 31.45 9.0 M64.25 -6.25 L55.75 -7.7 55.65 -11.6 64.5 -9.9 64.25 -6.25 M53.4 -2.15 L65.1 -0.9 61.9 10.25 57.05 9.5 59.65 2.3 53.25 1.65 53.4 -2.15 M65.8 -9.1 L65.75 -8.75 65.4 -11.15 66.0 -11.05 65.8 -9.1 M90.05 0.1 L94.65 -1.5 96.85 4.25 92.85 5.85 90.05 0.1 M98.55 5.0 L92.5 7.4 92.15 6.8 91.8 6.2 92.5 7.35 98.45 4.95 98.55 5.0 M-84.55 15.75 L-87.0 14.45 -91.25 16.2 -102.8 -9.4 -104.85 -10.55 -102.8 -9.45 -94.65 -10.85 -91.8 -0.7 -84.2 -2.8 -82.7 2.75 -89.4 5.3 -87.0 14.45 -84.5 15.75 -84.55 15.75 M-86.4 6.05 L-87.15 6.35 -86.55 8.35 -87.2 6.35 -86.25 5.95 -86.4 6.05 M-71.8 -2.4 L-71.8 -2.45 -70.4 -1.65 -71.8 -2.4 M-63.25 1.95 L-63.3 1.95 -64.65 1.0 -69.65 1.9 -70.1 -1.5 -64.95 -2.05 -64.65 0.95 -63.25 1.95 M-56.9 -5.15 L-59.35 -3.4 -63.85 -8.3 -60.0 -10.45 -56.9 -5.15 M-36.15 -8.25 L-35.8 -15.05 -41.7 -15.95 -41.95 -9.1 -36.15 -8.25 M-41.6 -5.05 L-45.15 -5.8 -44.55 -19.45 -32.2 -18.2 -33.25 4.8 -37.7 4.2 -37.0 -6.15 -41.55 -6.8 -41.6 -5.05 M-40.6 -5.35 L-40.6 -5.4 -39.35 -5.0 -40.6 -5.35 M-23.85 -12.65 L-23.65 -8.6 -21.75 -6.9 -21.85 -14.5 -17.55 -14.35 -17.9 -6.9 -12.25 -7.0 -15.8 5.0 -14.95 7.4 -15.85 5.0 -18.3 4.35 -16.15 -3.95 -24.25 -3.65 -24.05 -0.45 -22.5 1.5 -22.5 1.55 -24.15 -0.45 -27.25 -0.45 -27.25 -6.8 -21.8 -6.8 -23.7 -8.6 -23.85 -12.05 -23.85 -12.65 M-47.75 0.65 L-55.5 9.8 -59.3 5.1 -49.95 -1.8 -47.75 0.65 M-77.15 9.3 L-77.9 5.75 -74.25 4.75 -74.15 8.45 -70.15 7.35 -70.05 13.65 -72.65 14.15 -73.1 9.8 -78.05 11.0 -77.45 13.05 -76.05 13.65 -77.45 13.1 -79.6 13.7 -80.65 10.5 -77.15 9.3 M90.7 13.15 L103.9 7.75 105.55 11.05 92.8 17.3 90.7 13.15 M86.8 0.85 L86.75 0.85 84.8 0.15 80.55 1.95 79.1 12.6 73.2 11.6 74.8 3.8 70.2 4.9 69.35 2.1 83.45 -3.2 84.85 0.15 86.8 0.85 M82.35 2.3 L81.6 2.55 80.1 14.4 80.05 14.45 77.65 13.95 80.05 14.4 80.05 14.45 80.05 14.4 80.1 14.4 80.1 14.3 81.55 2.55 82.75 2.15 82.35 2.3 M50.45 4.65 L48.85 3.95 40.85 7.4 39.35 4.65 36.95 4.1 36.9 4.0 39.35 4.55 47.7 1.35 48.85 3.9 50.45 4.65 M9.5 0.5 Q13.05 -3.25 13.45 0.9 L13.5 1.95 12.9 2.3 11.9 2.7 Q9.85 2.6 9.5 0.5" fill="#f3f31d" fill-rule="evenodd" stroke="none"/>
    <path d="M0.25 -7.15 L-1.75 -7.6 -4.2 -10.75 -6.35 -8.9 -9.2 -9.65 -3.9 -13.55 0.25 -7.15 M-6.65 0.15 L5.4 -9.1 8.95 -4.2 6.9 -4.6 5.35 -6.7 -3.7 0.45 -6.65 0.15 M17.75 -10.7 L15.3 -12.85 24.65 -11.3 25.7 -9.7 17.75 -10.7 M23.25 -3.65 L25.0 -5.25 26.35 -5.25 19.0 2.2 16.6 2.25 23.25 -3.65 M30.65 7.25 L31.7 -4.9 32.7 -3.6 31.45 9.0 30.9 7.9 30.65 7.25 M35.15 -4.85 L35.3 -8.15 32.05 -8.65 32.5 -16.2 25.65 -17.2 24.2 -18.85 33.95 -17.55 33.3 -9.85 36.35 -9.35 36.05 -3.6 35.15 -4.85 M38.65 -3.8 L36.8 -4.75 42.35 -7.25 44.75 -0.75 43.3 -1.6 42.0 -5.4 38.65 -3.8 M64.25 -6.25 L64.5 -9.9 55.65 -11.6 54.3 -13.55 65.4 -11.15 65.75 -8.75 65.7 -8.5 65.35 -5.0 64.25 -6.25 M53.4 -2.15 L51.7 -4.15 66.75 -2.25 62.75 12.8 61.9 10.25 65.1 -0.9 53.4 -2.15 M87.7 -0.8 L95.25 -3.4 98.55 4.95 96.85 4.25 94.65 -1.5 90.05 0.1 87.7 -0.8 M98.55 4.95 L98.55 5.0 98.45 4.95 98.55 4.95 M-104.85 -10.55 L-106.85 -11.6 -92.55 -14.65 -89.9 -3.75 -82.9 -5.5 -80.75 3.6 -82.7 2.75 -84.2 -2.8 -91.8 -0.7 -94.65 -10.85 -102.8 -9.45 -104.85 -10.55 M-84.5 15.75 L-87.0 14.45 -89.4 5.3 -87.2 6.35 -86.55 8.35 -84.5 15.75 M-71.8 -2.45 L-63.6 -3.4 -63.25 1.95 -64.65 0.95 -64.95 -2.05 -70.1 -1.5 -70.4 -1.65 -71.8 -2.45 M-63.85 -8.3 L-66.3 -8.8 -59.45 -12.85 -54.95 -4.9 -56.9 -5.15 -60.0 -10.45 -63.85 -8.3 M-41.7 -15.95 L-40.75 -13.95 -40.8 -10.55 -37.8 -9.95 -36.15 -8.25 -41.95 -9.1 -41.7 -15.95 M-44.55 -19.45 L-46.4 -21.55 -30.55 -20.5 -31.75 4.35 -31.9 6.95 -31.9 7.05 -33.25 4.8 -32.2 -18.2 -44.55 -19.45 M-40.7 -3.15 L-41.6 -5.05 -41.55 -6.8 -40.6 -5.4 -40.6 -5.35 -40.7 -3.15 M-21.85 -14.5 L-24.05 -16.65 -16.15 -16.3 -16.6 -8.6 -10.15 -8.7 -14.95 7.5 -14.95 7.4 -15.8 5.0 -12.25 -7.0 -17.9 -6.9 -17.55 -14.35 -21.85 -14.5 M-22.65 -2.3 L-22.5 1.5 -24.05 -0.45 -24.25 -3.65 -22.65 -2.3 M-28.95 -8.4 L-23.7 -8.6 -21.8 -6.8 -27.25 -6.8 -28.95 -8.4 M-47.75 0.65 L-49.95 -1.8 -59.3 5.1 -62.6 5.05 -49.75 -4.45 -45.7 0.75 -47.75 0.65 M-77.9 5.75 Q-78.8 5.3 -79.65 4.9 L-73.35 3.0 -73.0 6.95 -68.5 5.6 -68.65 14.75 -70.05 13.65 -70.15 7.35 -74.15 8.45 -74.25 4.75 -77.9 5.75 M-78.35 8.75 L-77.15 9.3 -80.65 10.5 -82.3 10.1 -78.35 8.75 M-76.05 13.65 L-77.45 13.05 -78.05 11.0 -76.7 11.4 -76.05 13.65 M105.55 11.05 L103.9 7.75 90.7 13.15 87.65 11.8 104.9 5.75 107.35 11.8 105.55 11.05 M86.8 0.85 L84.85 0.15 83.45 -3.2 69.35 2.1 67.35 1.35 84.4 -5.25 86.8 0.85 M79.1 12.6 L80.55 1.95 81.55 2.55 80.1 14.3 79.1 12.6 M80.05 14.45 L80.05 14.4 80.05 14.45 M50.45 4.65 L48.85 3.9 47.7 1.35 39.35 4.55 36.9 4.0 48.35 -0.15 50.45 4.65 M8.25 0.55 Q12.0 -5.4 14.6 0.75 L14.7 0.95 Q14.85 1.6 14.5 2.4 13.7 4.45 11.35 4.25 12.65 4.3 13.55 3.7 L12.9 2.3 13.5 1.95 13.45 0.9 Q13.05 -3.25 9.5 0.5 L8.25 0.55" fill="#f6f5c1" fill-rule="evenodd" stroke="none"/>
    <path d="M0.2 -7.1 L0.25 -7.15 -3.9 -13.55 -9.2 -9.65 -9.1 -9.55 -4.2 -3.8 0.2 -7.1 M8.95 -4.2 L5.4 -9.1 -6.65 0.15 -1.45 6.15 8.95 -4.2 M15.3 -12.85 L16.0 -3.65 23.25 -3.65 16.6 2.25 22.45 7.4 25.45 3.15 25.8 8.85 31.45 9.1 31.45 9.0 32.7 -3.6 36.05 -3.6 36.35 -9.35 33.3 -9.85 33.95 -17.55 24.2 -18.85 24.65 -11.3 15.3 -12.85 M6.1 -14.0 L12.35 -6.0 11.55 -17.0 21.0 -15.4 20.4 -22.8 37.5 -20.25 Q37.95 -20.05 37.05 -12.7 L39.75 -12.25 39.8 -9.95 44.4 -11.95 47.45 -3.5 48.25 -3.8 48.15 -8.1 50.8 -7.75 50.95 -17.85 69.75 -13.8 68.85 -5.45 71.1 -5.15 70.75 -3.7 86.3 -9.7 88.35 -4.65 97.3 -7.75 101.55 3.25 106.85 1.4 111.75 13.35 90.4 24.5 83.85 11.95 83.05 18.45 67.35 15.4 68.55 10.4 66.95 10.75 65.3 16.7 50.25 13.6 52.6 7.4 38.55 13.8 35.05 7.65 34.6 12.7 23.2 12.35 15.95 6.2 14.05 7.3 12.4 7.65 10.65 7.65 9.85 7.5 9.05 7.2 Q7.5 6.35 6.45 5.15 L5.6 3.95 -1.7 11.2 -9.75 1.9 -12.55 11.45 -25.45 8.95 -24.25 5.1 -28.3 5.0 -28.6 10.8 -42.8 9.25 -42.35 2.05 -55.25 17.25 -65.05 7.4 -65.2 17.65 -77.55 19.55 -77.65 17.75 -81.95 19.3 -82.5 18.5 -93.75 25.2 -111.75 -14.15 -89.95 -18.75 -87.4 -8.0 -80.4 -9.6 -77.9 0.7 -75.0 -0.15 -75.55 -5.45 -68.65 -6.25 -71.5 -9.75 -58.15 -17.6 -52.1 -7.0 -50.5 -8.2 -49.7 -25.3 -26.95 -23.8 -27.15 -20.25 -12.55 -19.45 -13.0 -12.15 -11.55 -12.15 Q-7.25 -15.3 -3.0 -18.5 L2.0 -10.85 6.1 -14.0 M36.8 -4.75 L40.15 1.1 44.75 -0.75 42.35 -7.25 36.8 -4.75 M54.3 -13.55 L54.25 -6.4 65.35 -5.0 65.7 -8.5 65.8 -9.1 66.0 -11.05 65.4 -11.15 54.3 -13.55 M62.75 12.8 L66.75 -2.25 51.7 -4.15 51.95 2.8 57.8 3.3 54.95 11.15 62.75 12.8 M98.55 4.95 L95.25 -3.4 87.7 -0.8 91.4 5.55 92.15 6.8 92.5 7.4 98.55 5.0 98.55 4.95 M-106.85 -11.6 L-92.2 20.4 -84.55 15.75 -84.5 15.75 -86.55 8.35 -87.15 6.35 -86.4 6.05 -85.9 5.8 -80.75 3.6 -82.9 -5.5 -89.9 -3.75 -92.55 -14.65 -106.85 -11.6 M-71.8 -2.45 L-71.8 -2.4 -71.2 3.7 -63.3 1.95 -63.25 1.95 -63.6 -3.4 -71.8 -2.45 M-66.3 -8.8 L-59.85 -1.15 -54.95 -4.9 -59.45 -12.85 -66.3 -8.8 M-40.75 -13.95 L-37.55 -13.4 -37.8 -9.95 -40.8 -10.55 -40.75 -13.95 M-46.4 -21.55 L-47.2 -4.3 -40.7 -3.15 -40.6 -5.35 -39.35 -5.0 -38.4 -4.75 -39.15 6.3 -31.9 7.05 -31.85 7.05 -31.75 4.35 -30.55 -20.5 -46.4 -21.55 M-24.05 -16.65 L-23.9 -13.05 -23.85 -12.05 -23.7 -8.6 -28.95 -8.4 -28.75 1.65 -22.5 1.55 -22.5 1.5 -22.65 -2.3 -18.3 -2.4 -21.05 6.35 -14.95 7.5 -10.15 -8.7 -16.6 -8.6 -16.15 -16.3 -24.05 -16.65 M-62.6 5.05 L-55.5 12.25 -45.7 0.75 -49.75 -4.45 -62.6 5.05 M-79.65 4.9 L-78.35 8.75 -82.3 10.1 -80.2 15.1 -76.05 13.65 -76.7 11.4 -74.35 10.85 -74.2 15.6 -68.65 14.75 -68.5 5.6 -73.0 6.95 -73.35 3.0 -79.65 4.9 M107.35 11.8 L104.9 5.75 87.65 11.8 91.9 19.9 107.35 11.8 M86.75 0.85 L86.8 0.85 84.4 -5.25 67.35 1.35 69.15 6.65 73.3 5.55 71.55 12.8 77.65 13.95 80.05 14.45 80.1 14.4 81.6 2.55 82.35 2.3 86.75 0.85 M88.75 7.8 L86.8 4.45 84.7 5.2 84.15 9.4 88.75 7.8 M36.9 4.0 L36.95 4.1 40.0 9.4 50.45 4.65 48.35 -0.15 36.9 4.0 M11.35 4.25 Q13.7 4.45 14.5 2.4 14.85 1.6 14.7 0.95 L14.6 0.75 Q12.0 -5.4 8.25 0.55 8.25 2.1 9.15 3.2 10.05 4.25 11.35 4.25" fill="#000000" fill-rule="evenodd" stroke="none"/>
  </g>
</svg>
