<?xml version="1.0" encoding="UTF-8" standalone="no"?>
<svg xmlns:xlink="http://www.w3.org/1999/xlink" height="45.55px" width="45.55px" xmlns="http://www.w3.org/2000/svg">
  <g transform="matrix(1.0, 0.0, 0.0, 1.0, 22.8, 22.75)">
    <path d="M7.5 -0.05 Q7.45 -3.2 5.25 -5.4 3.05 -7.6 -0.1 -7.6 -3.25 -7.6 -5.45 -5.4 -7.65 -3.2 -7.65 -0.05 -7.65 3.1 -5.45 5.3 -3.25 7.5 -0.1 7.55 3.05 7.5 5.25 5.3 7.45 3.1 7.5 -0.05 M5.95 -6.1 Q8.45 -3.6 8.5 -0.05 8.45 3.5 5.95 6.0 3.45 8.5 -0.1 8.55 -3.65 8.5 -6.15 6.0 -8.65 3.5 -8.65 -0.05 -8.65 -3.6 -6.15 -6.1 -3.65 -8.6 -0.1 -8.6 3.45 -8.6 5.95 -6.1" fill="url(#gradient0)" fill-rule="evenodd" stroke="none"/>
    <path d="M7.5 -0.05 Q7.45 3.1 5.25 5.3 3.05 7.5 -0.1 7.55 -3.25 7.5 -5.45 5.3 -7.65 3.1 -7.65 -0.05 -7.65 -3.2 -5.45 -5.4 -3.25 -7.6 -0.1 -7.6 3.05 -7.6 5.25 -5.4 7.45 -3.2 7.5 -0.05" fill="url(#gradient1)" fill-rule="evenodd" stroke="none"/>
    <path d="M5.95 -6.1 Q3.45 -8.6 -0.1 -8.6 -3.65 -8.6 -6.15 -6.1 -8.65 -3.6 -8.65 -0.05 -8.65 3.5 -6.15 6.0 -3.65 8.5 -0.1 8.55 3.45 8.5 5.95 6.0 8.45 3.5 8.5 -0.05 8.45 -3.6 5.95 -6.1 M11.8 -0.05 Q11.8 4.9 8.3 8.35 4.8 11.85 -0.1 11.85 -5.05 11.85 -8.55 8.35 -12.0 4.9 -12.0 -0.05 -12.0 -5.0 -8.55 -8.45 -5.05 -11.95 -0.1 -11.95 4.8 -11.95 8.3 -8.45 11.8 -5.0 11.8 -0.05" fill="url(#gradient2)" fill-rule="evenodd" stroke="none"/>
    <path d="M11.8 -0.05 Q11.8 -5.0 8.3 -8.45 4.8 -11.95 -0.1 -11.95 -5.05 -11.95 -8.55 -8.45 -12.0 -5.0 -12.0 -0.05 -12.0 4.9 -8.55 8.35 -5.05 11.85 -0.1 11.85 4.8 11.85 8.3 8.35 11.8 4.9 11.8 -0.05 M9.0 -9.15 Q12.8 -5.4 12.8 -0.05 12.8 5.3 9.0 9.05 5.2 12.85 -0.1 12.85 -5.45 12.85 -9.25 9.05 -13.0 5.3 -13.0 -0.05 -13.0 -5.4 -9.25 -9.15 -5.45 -12.95 -0.1 -12.95 5.2 -12.95 9.0 -9.15" fill="url(#gradient3)" fill-rule="evenodd" stroke="none"/>
    <path d="M13.25 -18.2 L15.85 -15.9 18.2 -13.2 14.55 -10.55 Q16.3 -8.25 17.15 -5.55 L21.45 -6.95 Q22.45 -3.7 22.5 0.0 L17.95 0.0 Q17.9 2.95 17.1 5.6 L21.4 7.0 Q20.3 10.4 18.15 13.3 L14.45 10.65 12.65 12.7 10.45 14.6 13.15 18.25 Q10.2 20.45 6.85 21.5 L5.45 17.15 Q2.85 17.95 -0.05 17.95 L-0.05 22.55 Q-3.75 22.55 -7.0 21.5 L-5.6 17.15 Q-8.3 16.3 -10.6 14.6 L-13.3 18.3 -16.0 15.9 -18.25 13.3 -14.6 10.65 Q-16.4 8.3 -17.25 5.65 L-21.5 7.05 Q-22.6 3.75 -22.55 0.0 L-18.1 0.0 -18.1 -0.05 Q-18.1 -3.0 -17.25 -5.6 L-21.55 -6.95 Q-20.5 -10.3 -18.35 -13.2 L-14.75 -10.6 -12.85 -12.8 -10.75 -14.6 -13.35 -18.2 Q-10.45 -20.4 -7.05 -21.45 L-5.7 -17.2 Q-3.05 -18.05 -0.05 -18.05 L-0.05 -22.5 Q3.65 -22.5 6.95 -21.45 L5.6 -17.2 Q8.25 -16.35 10.6 -14.55 L13.25 -18.2 M9.0 -9.15 Q5.2 -12.95 -0.1 -12.95 -5.45 -12.95 -9.25 -9.15 -13.0 -5.4 -13.0 -0.05 -13.0 5.3 -9.25 9.05 -5.45 12.85 -0.1 12.85 5.2 12.85 9.0 9.05 12.8 5.3 12.8 -0.05 12.8 -5.4 9.0 -9.15" fill="url(#gradient4)" fill-rule="evenodd" stroke="none"/>
    <path d="M13.25 -18.2 L15.85 -15.9 18.2 -13.2 14.55 -10.55 Q16.3 -8.25 17.15 -5.55 L21.45 -6.95 Q22.45 -3.7 22.5 0.0 L17.95 0.0 Q17.9 2.95 17.1 5.6 L21.4 7.0 Q20.3 10.4 18.15 13.3 L14.45 10.65 12.65 12.7 10.45 14.6 13.15 18.25 Q10.2 20.45 6.85 21.5 L5.45 17.15 Q2.85 17.95 -0.05 17.95 L-0.05 22.55 Q-3.75 22.55 -7.0 21.5 L-5.6 17.15 Q-8.3 16.3 -10.6 14.6 L-13.3 18.3 -16.0 15.9 -18.25 13.3 -14.6 10.65 Q-16.4 8.3 -17.25 5.65 L-21.5 7.05 Q-22.6 3.75 -22.55 0.0 L-18.1 0.0 -18.1 -0.05 Q-18.1 -3.0 -17.25 -5.6 L-21.55 -6.95 Q-20.5 -10.3 -18.35 -13.2 L-14.75 -10.6 -12.85 -12.8 -10.75 -14.6 -13.35 -18.2 Q-10.45 -20.4 -7.05 -21.45 L-5.7 -17.2 Q-3.05 -18.05 -0.05 -18.05 L-0.05 -22.5 Q3.65 -22.5 6.95 -21.45 L5.6 -17.2 Q8.25 -16.35 10.6 -14.55 L13.25 -18.2 Z" fill="none" stroke="#96888c" stroke-linecap="round" stroke-linejoin="round" stroke-width="0.5"/>
  </g>
  <defs>
    <linearGradient gradientTransform="matrix(0.0, 0.0093, -1.0, 0.0, 397.8, -0.05)" gradientUnits="userSpaceOnUse" id="gradient0" spreadMethod="pad" x1="-819.2" x2="819.2">
      <stop offset="0.0" stop-color="#988990"/>
      <stop offset="1.0" stop-color="#725f58"/>
    </linearGradient>
    <radialGradient cx="0" cy="0" gradientTransform="matrix(0.012, 0.0, 0.0, 0.012, -1.55, -1.3)" gradientUnits="userSpaceOnUse" id="gradient1" r="819.2" spreadMethod="pad">
      <stop offset="0.0" stop-color="#a29498"/>
      <stop offset="1.0" stop-color="#7f7074"/>
    </radialGradient>
    <radialGradient cx="0" cy="0" gradientTransform="matrix(0.0192, 0.0, 0.0, 0.0192, -0.15, -1.3)" gradientUnits="userSpaceOnUse" id="gradient2" r="819.2" spreadMethod="pad">
      <stop offset="0.596078431372549" stop-color="#c0a08a"/>
      <stop offset="0.6666666666666666" stop-color="#b49680"/>
    </radialGradient>
    <linearGradient gradientTransform="matrix(0.0, 0.0159, -0.9984, 4.0E-4, 395.6, -0.35)" gradientUnits="userSpaceOnUse" id="gradient3" spreadMethod="pad" x1="-819.2" x2="819.2">
      <stop offset="0.0" stop-color="#bea592"/>
      <stop offset="1.0" stop-color="#876a54"/>
    </linearGradient>
    <radialGradient cx="0" cy="0" gradientTransform="matrix(0.0448, 0.0045, -0.0045, 0.0448, -4.35, -12.3)" gradientUnits="userSpaceOnUse" id="gradient4" r="819.2" spreadMethod="pad">
      <stop offset="0.4235294117647059" stop-color="#e4e3e2"/>
      <stop offset="0.5882352941176471" stop-color="#d0cdca"/>
      <stop offset="1.0" stop-color="#b8b8bc"/>
    </radialGradient>
  </defs>
</svg>
