<?xml version="1.0" encoding="UTF-8" standalone="no"?>
<svg xmlns:xlink="http://www.w3.org/1999/xlink" height="24.45px" width="18.55px" xmlns="http://www.w3.org/2000/svg">
  <g transform="matrix(1.0, 0.0, 0.0, 1.0, -6.35, -3.25)">
    <path d="M21.8 20.05 L19.4 23.95 16.85 27.7 11.7 25.0 14.15 21.7 15.7 19.0 12.1 19.35 Q10.65 19.2 9.5 18.7 6.0 17.05 6.4 12.85 6.75 9.45 9.0 6.75 11.35 4.05 14.65 3.45 L20.05 3.65 Q22.8 4.5 24.05 6.75 25.2 8.9 24.8 11.9 L23.95 15.0 Q23.05 17.8 21.8 20.05 M12.8 11.1 Q12.4 12.75 13.45 13.75 14.35 14.7 15.7 14.5 17.95 14.05 18.9 11.2 19.3 9.95 18.9 9.0 18.5 8.0 17.25 7.8 15.8 7.45 14.45 8.6 13.35 9.65 12.8 11.1" fill="#336666" fill-rule="evenodd" stroke="none"/>
  </g>
</svg>
