<?xml version="1.0" encoding="UTF-8" standalone="no"?>
<svg xmlns:xlink="http://www.w3.org/1999/xlink" height="24.0px" width="18.4px" xmlns="http://www.w3.org/2000/svg">
  <g transform="matrix(1.0, 0.0, 0.0, 1.0, -6.4, -3.75)">
    <path d="M24.7 16.75 Q25.2 20.35 22.8 23.45 20.15 26.95 16.1 27.6 11.7 28.2 9.1 26.35 5.8 23.95 6.55 19.2 7.05 15.9 9.5 11.6 L14.45 3.75 19.1 5.7 15.6 12.1 20.75 11.9 Q24.15 13.15 24.7 16.75 M18.5 17.7 Q18.5 16.85 18.1 16.25 17.55 15.5 16.75 15.4 14.45 15.1 13.45 17.9 12.7 19.95 13.25 21.1 13.95 22.65 15.4 22.4 16.65 22.3 17.45 21.0 18.4 19.55 18.5 17.7" fill="#336666" fill-rule="evenodd" stroke="none"/>
  </g>
</svg>
