<?xml version="1.0" encoding="UTF-8" standalone="no"?>
<svg xmlns:xlink="http://www.w3.org/1999/xlink" height="59.6px" width="116.9px" xmlns="http://www.w3.org/2000/svg">
  <g transform="matrix(1.0, 0.0, 0.0, 1.0, 58.5, 12.35)">
    <path d="M-22.95 0.4 L-22.95 11.35 -5.8 11.35 -5.8 20.4 -22.95 20.4 -22.95 33.9 -1.5 33.9 -1.5 43.2 -56.5 43.2 -56.5 33.9 -50.25 33.9 -50.25 5.55 -40.45 5.55 -40.45 33.9 -32.8 33.9 -32.8 0.4 -54.85 0.4 -54.85 -8.8 -2.85 -8.8 -2.85 0.4 -22.95 0.4" fill="#6a4a5a" fill-rule="evenodd" stroke="none"/>
    <path d="M31.2 10.9 L32.75 11.1 28.7 6.05 28.7 22.5 Q29.8 20.25 30.35 17.5 L31.2 10.9 M26.95 -7.55 L26.95 0.25 25.9 2.05 24.9 3.5 28.7 3.5 28.7 5.1 Q30.65 3.9 31.9 2.3 33.2 0.65 33.65 -0.8 L29.1 -0.8 29.1 -8.6 55.6 -8.6 55.35 -1.15 54.95 3.45 Q54.7 5.25 54.1 6.5 53.6 7.8 52.3 8.75 50.95 9.7 48.8 9.75 L42.05 9.75 40.7 4.25 Q39.9 5.7 38.3 7.55 36.7 9.35 34.0 11.25 L38.0 11.75 37.9 13.2 37.65 15.3 40.15 15.3 40.15 11.1 48.8 11.1 48.8 15.3 55.4 15.3 55.4 23.6 48.8 23.6 48.8 27.1 56.4 27.1 56.4 36.0 48.8 36.0 48.8 44.75 40.2 44.75 40.2 36.0 29.75 36.0 29.75 27.1 34.7 27.1 34.7 27.05 28.7 23.3 28.7 39.35 Q28.65 41.95 27.75 43.1 26.8 44.25 25.4 44.55 L22.7 44.8 16.55 44.8 14.85 36.1 20.2 36.1 21.45 35.9 Q22.0 35.65 22.05 34.5 L22.05 31.75 11.35 31.75 10.7 36.2 9.35 40.9 Q8.5 43.25 7.3 45.25 L0.25 39.15 Q1.75 36.9 2.6 34.0 3.5 31.05 3.9 27.95 4.3 24.85 4.3 22.1 L4.3 9.35 3.45 10.05 2.65 10.75 0.3 0.9 2.7 -1.35 5.4 -4.9 Q6.8 -7.05 8.25 -10.35 L17.75 -9.85 17.35 -8.7 16.9 -7.55 26.95 -7.55" fill="#326549" fill-rule="evenodd" stroke="none"/>
    <path d="M26.95 -7.55 L16.9 -7.55 17.35 -8.7 17.75 -9.85 8.25 -10.35 Q6.8 -7.05 5.4 -4.9 L2.7 -1.35 0.3 0.9 2.65 10.75 3.45 10.05 4.3 9.35 4.3 22.1 Q4.3 24.85 3.9 27.95 3.5 31.05 2.6 34.0 1.75 36.9 0.25 39.15 L7.3 45.25 Q8.5 43.25 9.35 40.9 L10.7 36.2 11.35 31.75 22.05 31.75 22.05 34.5 Q22.0 35.65 21.45 35.9 L20.2 36.1 14.85 36.1 16.55 44.8 22.7 44.8 25.4 44.55 Q26.8 44.25 27.75 43.1 28.65 41.95 28.7 39.35 L28.7 23.3 34.7 27.05 34.7 27.1 29.75 27.1 29.75 36.0 40.2 36.0 40.2 44.75 48.8 44.75 48.8 36.0 56.4 36.0 56.4 27.1 48.8 27.1 48.8 23.6 55.4 23.6 55.4 15.3 48.8 15.3 48.8 11.1 40.15 11.1 40.15 15.3 37.65 15.3 37.9 13.2 38.0 11.75 34.0 11.25 Q36.7 9.35 38.3 7.55 39.9 5.7 40.7 4.25 L42.05 9.75 48.8 9.75 Q50.95 9.7 52.3 8.75 53.6 7.8 54.1 6.5 54.7 5.25 54.95 3.45 L55.35 -1.15 55.6 -8.6 29.1 -8.6 29.1 -0.8 33.65 -0.8 Q33.2 0.65 31.9 2.3 30.65 3.9 28.7 5.1 L28.7 3.5 24.9 3.5 25.9 2.05 26.95 0.25 26.95 -7.55 M31.2 10.9 L30.35 17.5 Q29.8 20.25 28.7 22.5 L28.7 6.05 32.75 11.1 31.2 10.9 M-22.95 0.4 L-2.85 0.4 -2.85 -8.8 -54.85 -8.8 -54.85 0.4 -32.8 0.4 -32.8 33.9 -40.45 33.9 -40.45 5.55 -50.25 5.55 -50.25 33.9 -56.5 33.9 -56.5 43.2 -1.5 43.2 -1.5 33.9 -22.95 33.9 -22.95 20.4 -5.8 20.4 -5.8 11.35 -22.95 11.35 -22.95 0.4" fill="none" stroke="#326549" stroke-linecap="round" stroke-linejoin="round" stroke-width="4.0"/>
    <path d="M-2.85 -8.8 L-2.85 0.4 -22.95 0.4 -22.95 11.35 -5.8 11.35 -5.8 20.4 -22.95 20.4 -22.95 33.9 -1.5 33.9 -1.5 43.2 -56.5 43.2 -56.5 33.9 -50.25 33.9 -50.25 5.55 -40.45 5.55 -40.45 33.9 -32.8 33.9 -32.8 0.4 -54.85 0.4 -54.85 -8.8 -2.85 -8.8" fill="url(#gradient0)" fill-rule="evenodd" stroke="none"/>
    <path d="M26.95 -7.55 L26.95 0.25 25.9 2.05 24.9 3.5 28.7 3.5 28.7 5.1 Q30.65 3.9 31.9 2.3 33.2 0.65 33.65 -0.8 L29.1 -0.8 29.1 -8.6 55.6 -8.6 55.35 -1.15 54.95 3.45 Q54.7 5.25 54.1 6.5 53.6 7.8 52.3 8.75 50.95 9.7 48.8 9.75 L42.05 9.75 40.7 4.25 Q39.9 5.7 38.3 7.55 36.7 9.35 34.0 11.25 L38.0 11.75 37.9 13.2 37.65 15.3 40.15 15.3 40.15 11.1 48.8 11.1 48.8 15.3 55.4 15.3 55.4 23.6 48.8 23.6 48.8 27.1 56.4 27.1 56.4 36.0 48.8 36.0 48.8 44.75 40.2 44.75 40.2 36.0 29.75 36.0 29.75 27.1 40.15 27.1 40.15 23.6 36.0 23.6 35.4 25.45 34.7 27.05 28.7 23.3 28.7 39.35 Q28.65 41.95 27.75 43.1 26.8 44.25 25.4 44.55 L22.7 44.8 16.55 44.8 14.85 36.1 20.2 36.1 21.45 35.9 Q22.0 35.65 22.05 34.5 L22.05 31.75 11.35 31.75 10.7 36.2 9.35 40.9 Q8.5 43.25 7.3 45.25 L0.25 39.15 Q1.75 36.9 2.6 34.0 3.5 31.05 3.9 27.95 4.3 24.85 4.3 22.1 L4.3 9.35 3.45 10.05 2.55 10.3 0.3 0.9 2.7 -1.35 5.4 -4.9 Q6.8 -7.05 8.25 -10.35 L17.75 -9.85 17.35 -8.7 16.9 -7.55 26.95 -7.55 M28.7 22.5 Q29.8 20.25 30.35 17.5 L31.2 10.9 32.75 11.1 28.7 6.05 28.7 22.5 M46.75 -0.8 L42.65 -0.8 42.4 0.35 41.6 2.7 44.55 2.7 Q46.05 2.7 46.4 1.9 46.8 1.05 46.75 -0.8 M16.8 0.25 L12.55 0.25 11.7 1.45 11.0 2.4 10.1 3.5 14.65 3.5 16.15 1.6 16.8 0.25 M14.45 11.0 L11.95 11.0 11.95 14.45 14.45 14.45 14.45 11.0 M11.95 24.9 L14.45 24.9 14.45 21.45 11.95 21.45 11.95 24.9 M22.05 21.45 L19.35 21.45 19.35 24.9 22.05 24.9 22.05 21.45 M22.05 11.0 L19.35 11.0 19.35 14.45 22.05 14.45 22.05 11.0" fill="url(#gradient1)" fill-rule="evenodd" stroke="none"/>
    <path d="M2.55 10.3 L3.45 10.05 2.65 10.75 2.55 10.3" fill="url(#gradient2)" fill-rule="evenodd" stroke="none"/>
    <path d="M26.95 -7.55 L16.9 -7.55 M17.75 -9.85 L8.25 -10.35 Q6.8 -7.05 5.4 -4.9 L2.7 -1.35 0.3 0.9 2.55 10.3 M4.3 9.35 L4.3 22.1 Q4.3 24.85 3.9 27.95 3.5 31.05 2.6 34.0 1.75 36.9 0.25 39.15 L7.3 45.25 M22.05 31.75 L22.05 34.5 Q22.0 35.65 21.45 35.9 L20.2 36.1 14.85 36.1 16.55 44.8 M40.15 23.6 L40.15 27.1 29.75 27.1 29.75 36.0 M40.2 36.0 L40.2 44.75 M56.4 27.1 L48.8 27.1 M55.4 15.3 L48.8 15.3 M48.8 11.1 L40.15 11.1 40.15 15.3 37.65 15.3 M38.0 11.75 L34.0 11.25 M40.7 4.25 L42.05 9.75 M55.6 -8.6 L29.1 -8.6 29.1 -0.8 M33.65 -0.8 Q33.2 0.65 31.9 2.3 30.65 3.9 28.7 5.1 M28.7 3.5 L24.9 3.5 M32.75 11.1 L31.2 10.9 30.35 17.5 Q29.8 20.25 28.7 22.5 M46.75 -0.8 Q46.8 1.05 46.4 1.9 46.05 2.7 44.55 2.7 L41.6 2.7 M-2.85 -8.8 L-54.85 -8.8 -54.85 0.4 M-32.8 0.4 L-32.8 33.9 -40.45 33.9 M-40.45 5.55 L-50.25 5.55 -50.25 33.9 -56.5 33.9 -56.5 43.2 M-1.5 33.9 L-22.95 33.9 M-5.8 11.35 L-22.95 11.35 M16.8 0.25 L16.15 1.6 14.65 3.5 10.1 3.5 M14.45 11.0 L14.45 14.45 11.95 14.45 M14.45 21.45 L14.45 24.9 11.95 24.9 M22.05 21.45 L22.05 24.9 19.35 24.9 M22.05 11.0 L22.05 14.45 19.35 14.45" fill="none" stroke="#9fd9c8" stroke-linecap="round" stroke-linejoin="round" stroke-width="1.0"/>
    <path d="M24.9 3.5 L25.9 2.05 26.95 0.25 26.95 -7.55 M16.9 -7.55 L17.35 -8.7 17.75 -9.85 M2.55 10.3 L3.45 10.05 4.3 9.35 M7.3 45.25 Q8.5 43.25 9.35 40.9 L10.7 36.2 11.35 31.75 22.05 31.75 M16.55 44.8 L22.7 44.8 25.4 44.55 Q26.8 44.25 27.75 43.1 28.65 41.95 28.7 39.35 L28.7 23.3 34.7 27.05 35.4 25.45 36.0 23.6 40.15 23.6 M29.75 36.0 L40.2 36.0 M40.2 44.75 L48.8 44.75 48.8 36.0 56.4 36.0 56.4 27.1 M48.8 27.1 L48.8 23.6 55.4 23.6 55.4 15.3 M48.8 15.3 L48.8 11.1 M37.65 15.3 L37.9 13.2 38.0 11.75 M34.0 11.25 Q36.7 9.35 38.3 7.55 39.9 5.7 40.7 4.25 M42.05 9.75 L48.8 9.75 Q50.95 9.7 52.3 8.75 53.6 7.8 54.1 6.5 54.7 5.25 54.95 3.45 L55.35 -1.15 55.6 -8.6 M29.1 -0.8 L33.65 -0.8 M28.7 5.1 L28.7 3.5 M28.7 22.5 L28.7 6.05 32.75 11.1 M41.6 2.7 L42.4 0.35 42.65 -0.8 46.75 -0.8 M-22.95 11.35 L-22.95 0.4 -2.85 0.4 -2.85 -8.8 M-54.85 0.4 L-32.8 0.4 M-40.45 33.9 L-40.45 5.55 M-56.5 43.2 L-1.5 43.2 -1.5 33.9 M-22.95 33.9 L-22.95 20.4 -5.8 20.4 -5.8 11.35 M10.1 3.5 L11.0 2.4 11.7 1.45 12.55 0.25 16.8 0.25 M11.95 14.45 L11.95 11.0 14.45 11.0 M11.95 24.9 L11.95 21.45 14.45 21.45 M19.35 24.9 L19.35 21.45 22.05 21.45 M19.35 14.45 L19.35 11.0 22.05 11.0" fill="none" stroke="#3a7659" stroke-linecap="round" stroke-linejoin="round" stroke-width="1.0"/>
  </g>
  <defs>
    <radialGradient cx="0" cy="0" gradientTransform="matrix(0.0398, 0.0, 0.0, 0.0398, -28.0, 18.25)" gradientUnits="userSpaceOnUse" id="gradient0" r="819.2" spreadMethod="pad">
      <stop offset="0.0" stop-color="#72c7b1"/>
      <stop offset="1.0" stop-color="#52a782"/>
    </radialGradient>
    <radialGradient cx="0" cy="0" gradientTransform="matrix(0.0367, 0.0, 0.0, 0.0367, 29.0, 16.05)" gradientUnits="userSpaceOnUse" id="gradient1" r="819.2" spreadMethod="pad">
      <stop offset="0.0" stop-color="#72c7b1"/>
      <stop offset="1.0" stop-color="#52a782"/>
    </radialGradient>
    <radialGradient cx="0" cy="0" gradientTransform="matrix(0.0631, 0.0, 0.0, 0.0631, 20.5, -4.75)" gradientUnits="userSpaceOnUse" id="gradient2" r="819.2" spreadMethod="pad">
      <stop offset="0.0" stop-color="#a1778a"/>
      <stop offset="1.0" stop-color="#8a6072"/>
    </radialGradient>
  </defs>
</svg>
