<?xml version="1.0" encoding="UTF-8" standalone="no"?>
<svg xmlns:xlink="http://www.w3.org/1999/xlink" height="4.1px" width="4.1px" xmlns="http://www.w3.org/2000/svg">
  <g transform="matrix(1.0, 0.0, 0.0, 1.0, 2.05, 2.05)">
    <path d="M1.25 -1.3 Q1.8 -0.75 1.8 0.0 1.8 0.75 1.25 1.25 0.75 1.8 0.0 1.8 -0.75 1.8 -1.3 1.25 -1.8 0.75 -1.8 0.0 -1.8 -0.75 -1.3 -1.3 -0.75 -1.8 0.0 -1.8 0.75 -1.8 1.25 -1.3" fill="url(#gradient0)" fill-rule="evenodd" stroke="none"/>
    <path d="M1.25 -1.3 Q1.8 -0.75 1.8 0.0 1.8 0.75 1.25 1.25 0.75 1.8 0.0 1.8 -0.75 1.8 -1.3 1.25 -1.8 0.75 -1.8 0.0 -1.8 -0.75 -1.3 -1.3 -0.75 -1.8 0.0 -1.8 0.75 -1.8 1.25 -1.3 Z" fill="none" stroke="#4a3541" stroke-linecap="round" stroke-linejoin="round" stroke-width="0.5"/>
  </g>
  <defs>
    <radialGradient cx="0" cy="0" gradientTransform="matrix(0.0022, 0.0, 0.0, 0.0022, 0.0, 0.0)" gradientUnits="userSpaceOnUse" id="gradient0" r="819.2" spreadMethod="pad">
      <stop offset="0.0" stop-color="#cd9cb7"/>
      <stop offset="1.0" stop-color="#604352"/>
    </radialGradient>
  </defs>
</svg>
