<?xml version="1.0" encoding="UTF-8" standalone="no"?>
<svg xmlns:xlink="http://www.w3.org/1999/xlink" height="59.6px" width="175.7px" xmlns="http://www.w3.org/2000/svg">
  <g transform="matrix(1.0, 0.0, 0.0, 1.0, 87.8, 12.35)">
    <path d="M58.2 22.5 Q59.3 20.25 59.85 17.5 L60.7 10.9 62.25 11.1 58.2 6.05 58.2 22.5 M85.1 -8.6 L84.85 -1.15 84.45 3.45 Q84.2 5.25 83.6 6.5 83.1 7.8 81.8 8.75 80.45 9.7 78.3 9.75 L71.55 9.75 70.2 4.25 Q69.4 5.7 67.8 7.55 L63.5 11.25 67.5 11.75 67.4 13.2 67.15 15.3 69.65 15.3 69.65 11.1 78.3 11.1 78.3 15.3 84.9 15.3 84.9 23.6 78.3 23.6 78.3 27.1 85.9 27.1 85.9 36.0 78.3 36.0 78.3 44.75 69.7 44.75 69.7 36.0 59.25 36.0 59.25 27.1 64.2 27.1 64.2 27.05 58.2 23.3 58.2 39.35 Q58.15 41.95 57.25 43.1 56.3 44.25 54.9 44.55 L52.2 44.8 46.05 44.8 44.35 36.1 49.7 36.1 50.95 35.9 Q51.5 35.65 51.55 34.5 L51.55 31.75 40.85 31.75 40.2 36.2 Q39.7 38.55 38.85 40.9 38.0 43.25 36.8 45.25 L29.75 39.15 Q31.25 36.9 32.1 34.0 33.0 31.05 33.4 27.95 33.8 24.85 33.8 22.1 L33.8 9.35 32.95 10.05 32.15 10.75 29.8 0.9 32.2 -1.35 34.9 -4.9 Q36.3 -7.05 37.75 -10.35 L47.25 -9.85 46.85 -8.7 46.4 -7.55 56.45 -7.55 56.45 0.25 55.4 2.05 54.4 3.5 58.2 3.5 58.2 5.1 Q60.15 3.9 61.4 2.3 62.7 0.65 63.15 -0.8 L58.6 -0.8 58.6 -8.6 85.1 -8.6 M-25.35 0.4 L-25.35 -8.8 26.65 -8.8 26.65 0.4 6.55 0.4 6.55 11.35 23.7 11.35 23.7 20.4 6.55 20.4 6.55 33.9 28.0 33.9 28.0 43.2 -27.0 43.2 -27.0 33.9 -20.75 33.9 -20.75 5.55 -10.95 5.55 -10.95 33.9 -3.3 33.9 -3.3 0.4 -25.35 0.4 M-85.05 0.8 L-85.05 -8.85 -29.95 -8.85 -29.95 0.8 -51.3 0.8 -52.25 2.75 -53.85 5.65 -52.65 5.65 -52.65 9.65 -46.45 6.15 -41.1 12.7 Q-38.55 15.5 -35.65 17.9 -32.7 20.3 -29.1 22.6 L-35.05 32.3 -40.8 27.5 Q-43.7 24.9 -46.6 21.45 -49.6 18.05 -52.65 13.5 L-52.65 44.85 -62.75 44.85 -62.75 17.6 Q-66.45 21.6 -69.5 24.3 -72.55 27.0 -75.25 28.8 -77.95 30.65 -80.65 32.1 L-85.8 22.3 Q-79.6 19.2 -74.9 15.65 -70.2 12.1 -66.95 8.3 -63.75 4.5 -61.85 0.8 L-85.05 0.8" fill="#6a4a5a" fill-rule="evenodd" stroke="none"/>
    <path d="M-85.05 0.8 L-61.85 0.8 Q-63.75 4.5 -66.95 8.3 -70.2 12.1 -74.9 15.65 -79.6 19.2 -85.8 22.3 L-80.65 32.1 Q-77.95 30.65 -75.25 28.8 -72.55 27.0 -69.5 24.3 -66.45 21.6 -62.75 17.6 L-62.75 44.85 -52.65 44.85 -52.65 13.5 Q-49.6 18.05 -46.6 21.45 -43.7 24.9 -40.8 27.5 L-35.05 32.3 -29.1 22.6 Q-32.7 20.3 -35.65 17.9 -38.55 15.5 -41.1 12.7 L-46.45 6.15 -52.65 9.65 -52.65 5.65 -53.85 5.65 -52.25 2.75 -51.3 0.8 -29.95 0.8 -29.95 -8.85 -85.05 -8.85 -85.05 0.8 M-25.35 0.4 L-3.3 0.4 -3.3 33.9 -10.95 33.9 -10.95 5.55 -20.75 5.55 -20.75 33.9 -27.0 33.9 -27.0 43.2 28.0 43.2 28.0 33.9 6.55 33.9 6.55 20.4 23.7 20.4 23.7 11.35 6.55 11.35 6.55 0.4 26.65 0.4 26.65 -8.8 -25.35 -8.8 -25.35 0.4 M85.1 -8.6 L58.6 -8.6 58.6 -0.8 63.15 -0.8 Q62.7 0.65 61.4 2.3 60.15 3.9 58.2 5.1 L58.2 3.5 54.4 3.5 55.4 2.05 56.45 0.25 56.45 -7.55 46.4 -7.55 46.85 -8.7 47.25 -9.85 37.75 -10.35 Q36.3 -7.05 34.9 -4.9 L32.2 -1.35 29.8 0.9 32.15 10.75 32.95 10.05 33.8 9.35 33.8 22.1 Q33.8 24.85 33.4 27.95 33.0 31.05 32.1 34.0 31.25 36.9 29.75 39.15 L36.8 45.25 Q38.0 43.25 38.85 40.9 39.7 38.55 40.2 36.2 L40.85 31.75 51.55 31.75 51.55 34.5 Q51.5 35.65 50.95 35.9 L49.7 36.1 44.35 36.1 46.05 44.8 52.2 44.8 54.9 44.55 Q56.3 44.25 57.25 43.1 58.15 41.95 58.2 39.35 L58.2 23.3 64.2 27.05 64.2 27.1 59.25 27.1 59.25 36.0 69.7 36.0 69.7 44.75 78.3 44.75 78.3 36.0 85.9 36.0 85.9 27.1 78.3 27.1 78.3 23.6 84.9 23.6 84.9 15.3 78.3 15.3 78.3 11.1 69.65 11.1 69.65 15.3 67.15 15.3 67.4 13.2 67.5 11.75 63.5 11.25 67.8 7.55 Q69.4 5.7 70.2 4.25 L71.55 9.75 78.3 9.75 Q80.45 9.7 81.8 8.75 83.1 7.8 83.6 6.5 84.2 5.25 84.45 3.45 L84.85 -1.15 85.1 -8.6 M58.2 22.5 L58.2 6.05 62.25 11.1 60.7 10.9 59.85 17.5 Q59.3 20.25 58.2 22.5" fill="none" stroke="#5f4352" stroke-linecap="round" stroke-linejoin="round" stroke-width="4.0"/>
    <path d="M85.1 -8.6 L84.85 -1.15 84.45 3.45 Q84.2 5.25 83.6 6.5 83.1 7.8 81.8 8.75 80.45 9.7 78.3 9.75 L71.55 9.75 70.2 4.25 Q69.4 5.7 67.8 7.55 L63.5 11.25 67.5 11.75 67.4 13.2 67.15 15.3 69.65 15.3 69.65 11.1 78.3 11.1 78.3 15.3 84.9 15.3 84.9 23.6 78.3 23.6 78.3 27.1 85.9 27.1 85.9 36.0 78.3 36.0 78.3 44.75 69.7 44.75 69.7 36.0 59.25 36.0 59.25 27.1 69.65 27.1 69.65 23.6 65.5 23.6 64.9 25.45 64.2 27.05 58.2 23.3 58.2 39.35 Q58.15 41.95 57.25 43.1 56.3 44.25 54.9 44.55 L52.2 44.8 46.05 44.8 44.35 36.1 49.7 36.1 50.95 35.9 Q51.5 35.65 51.55 34.5 L51.55 31.75 40.85 31.75 40.2 36.2 Q39.7 38.55 38.85 40.9 38.0 43.25 36.8 45.25 L29.75 39.15 Q31.25 36.9 32.1 34.0 33.0 31.05 33.4 27.95 33.8 24.85 33.8 22.1 L33.8 9.35 32.95 10.05 32.05 10.3 29.8 0.9 32.2 -1.35 34.9 -4.9 Q36.3 -7.05 37.75 -10.35 L47.25 -9.85 46.85 -8.7 46.4 -7.55 56.45 -7.55 56.45 0.25 55.4 2.05 54.4 3.5 58.2 3.5 58.2 5.1 Q60.15 3.9 61.4 2.3 62.7 0.65 63.15 -0.8 L58.6 -0.8 58.6 -8.6 85.1 -8.6 M76.25 -0.8 L72.15 -0.8 71.9 0.35 71.1 2.7 74.05 2.7 Q75.55 2.7 75.9 1.9 76.3 1.05 76.25 -0.8 M46.3 0.25 L42.05 0.25 41.2 1.45 40.5 2.4 39.6 3.5 44.15 3.5 45.65 1.6 46.3 0.25 M48.85 14.45 L51.55 14.45 51.55 11.0 48.85 11.0 48.85 14.45 M41.45 14.45 L43.95 14.45 43.95 11.0 41.45 11.0 41.45 14.45 M43.95 21.45 L41.45 21.45 41.45 24.9 43.95 24.9 43.95 21.45 M51.55 21.45 L48.85 21.45 48.85 24.9 51.55 24.9 51.55 21.45 M58.2 22.5 Q59.3 20.25 59.85 17.5 L60.7 10.9 62.25 11.1 58.2 6.05 58.2 22.5" fill="url(#gradient0)" fill-rule="evenodd" stroke="none"/>
    <path d="M-25.35 0.4 L-25.35 -8.8 26.65 -8.8 26.65 0.4 6.55 0.4 6.55 11.35 23.7 11.35 23.7 20.4 6.55 20.4 6.55 33.9 28.0 33.9 28.0 43.2 -27.0 43.2 -27.0 33.9 -20.75 33.9 -20.75 5.55 -10.95 5.55 -10.95 33.9 -3.3 33.9 -3.3 0.4 -25.35 0.4" fill="url(#gradient1)" fill-rule="evenodd" stroke="none"/>
    <path d="M32.05 10.3 L32.95 10.05 32.15 10.75 32.05 10.3" fill="url(#gradient2)" fill-rule="evenodd" stroke="none"/>
    <path d="M-61.85 0.8 L-85.05 0.8 -85.05 -8.85 -29.95 -8.85 -29.95 0.8 -51.3 0.8 -52.25 2.75 -53.85 5.65 -52.65 5.65 -52.65 9.65 -46.45 6.15 -41.1 12.7 Q-38.55 15.5 -35.65 17.9 -32.7 20.3 -29.1 22.6 L-35.05 32.3 -40.8 27.5 Q-43.7 24.9 -46.6 21.45 -49.6 18.05 -52.65 13.5 L-52.65 44.85 -62.75 44.85 -62.75 17.6 Q-66.45 21.6 -69.5 24.3 -72.55 27.0 -75.25 28.8 -77.95 30.65 -80.65 32.1 L-85.8 22.3 Q-79.6 19.2 -74.9 15.65 -70.2 12.1 -66.95 8.3 -63.75 4.5 -61.85 0.8" fill="url(#gradient3)" fill-rule="evenodd" stroke="none"/>
    <path d="M-61.85 0.8 Q-63.75 4.5 -66.95 8.3 -70.2 12.1 -74.9 15.65 -79.6 19.2 -85.8 22.3 L-80.65 32.1 M-62.75 17.6 L-62.75 44.85 M-52.65 13.5 Q-49.6 18.05 -46.6 21.45 -43.7 24.9 -40.8 27.5 L-35.05 32.3 M-46.45 6.15 L-52.65 9.65 M-29.95 -8.85 L-85.05 -8.85 -85.05 0.8 M26.65 -8.8 L-25.35 -8.8 -25.35 0.4 M-3.3 0.4 L-3.3 33.9 -10.95 33.9 M-10.95 5.55 L-20.75 5.55 -20.75 33.9 -27.0 33.9 -27.0 43.2 M28.0 33.9 L6.55 33.9 M23.7 11.35 L6.55 11.35 M85.1 -8.6 L58.6 -8.6 58.6 -0.8 M63.15 -0.8 Q62.7 0.65 61.4 2.3 60.15 3.9 58.2 5.1 M58.2 3.5 L54.4 3.5 M56.45 -7.55 L46.4 -7.55 M47.25 -9.85 L37.75 -10.35 Q36.3 -7.05 34.9 -4.9 L32.2 -1.35 29.8 0.9 32.05 10.3 M33.8 9.35 L33.8 22.1 Q33.8 24.85 33.4 27.95 33.0 31.05 32.1 34.0 31.25 36.9 29.75 39.15 L36.8 45.25 M51.55 31.75 L51.55 34.5 Q51.5 35.65 50.95 35.9 L49.7 36.1 44.35 36.1 46.05 44.8 M69.65 23.6 L69.65 27.1 59.25 27.1 59.25 36.0 M69.7 36.0 L69.7 44.75 M85.9 27.1 L78.3 27.1 M84.9 15.3 L78.3 15.3 M78.3 11.1 L69.65 11.1 69.65 15.3 67.15 15.3 M67.5 11.75 L63.5 11.25 M70.2 4.25 L71.55 9.75 M76.25 -0.8 Q76.3 1.05 75.9 1.9 75.55 2.7 74.05 2.7 L71.1 2.7 M46.3 0.25 L45.65 1.6 44.15 3.5 39.6 3.5 M51.55 11.0 L51.55 14.45 48.85 14.45 M43.95 11.0 L43.95 14.45 41.45 14.45 M43.95 21.45 L43.95 24.9 41.45 24.9 M51.55 21.45 L51.55 24.9 48.85 24.9 M62.25 11.1 L60.7 10.9 59.85 17.5 Q59.3 20.25 58.2 22.5" fill="none" stroke="#ceaabd" stroke-linecap="round" stroke-linejoin="round" stroke-width="1.0"/>
    <path d="M-85.05 0.8 L-61.85 0.8 M-80.65 32.1 Q-77.95 30.65 -75.25 28.8 -72.55 27.0 -69.5 24.3 -66.45 21.6 -62.75 17.6 M-62.75 44.85 L-52.65 44.85 -52.65 13.5 M-35.05 32.3 L-29.1 22.6 Q-32.7 20.3 -35.65 17.9 -38.55 15.5 -41.1 12.7 L-46.45 6.15 M-52.65 9.65 L-52.65 5.65 -53.85 5.65 -52.25 2.75 -51.3 0.8 -29.95 0.8 -29.95 -8.85 M-25.35 0.4 L-3.3 0.4 M-10.95 33.9 L-10.95 5.55 M-27.0 43.2 L28.0 43.2 28.0 33.9 M6.55 33.9 L6.55 20.4 23.7 20.4 23.7 11.35 M6.55 11.35 L6.55 0.4 26.65 0.4 26.65 -8.8 M71.55 9.75 L78.3 9.75 Q80.45 9.7 81.8 8.75 83.1 7.8 83.6 6.5 84.2 5.25 84.45 3.45 L84.85 -1.15 85.1 -8.6 M58.6 -0.8 L63.15 -0.8 M58.2 5.1 L58.2 3.5 M54.4 3.5 L55.4 2.05 56.45 0.25 56.45 -7.55 M46.4 -7.55 L46.85 -8.7 47.25 -9.85 M32.05 10.3 L32.95 10.05 33.8 9.35 M36.8 45.25 Q38.0 43.25 38.85 40.9 39.7 38.55 40.2 36.2 L40.85 31.75 51.55 31.75 M46.05 44.8 L52.2 44.8 54.9 44.55 Q56.3 44.25 57.25 43.1 58.15 41.95 58.2 39.35 L58.2 23.3 64.2 27.05 64.9 25.45 65.5 23.6 69.65 23.6 M59.25 36.0 L69.7 36.0 M69.7 44.75 L78.3 44.75 78.3 36.0 85.9 36.0 85.9 27.1 M78.3 27.1 L78.3 23.6 84.9 23.6 84.9 15.3 M78.3 15.3 L78.3 11.1 M67.15 15.3 L67.4 13.2 67.5 11.75 M63.5 11.25 L67.8 7.55 Q69.4 5.7 70.2 4.25 M71.1 2.7 L71.9 0.35 72.15 -0.8 76.25 -0.8 M39.6 3.5 L40.5 2.4 41.2 1.45 42.05 0.25 46.3 0.25 M48.85 14.45 L48.85 11.0 51.55 11.0 M41.45 14.45 L41.45 11.0 43.95 11.0 M41.45 24.9 L41.45 21.45 43.95 21.45 M48.85 24.9 L48.85 21.45 51.55 21.45 M58.2 22.5 L58.2 6.05 62.25 11.1" fill="none" stroke="#735162" stroke-linecap="round" stroke-linejoin="round" stroke-width="1.0"/>
  </g>
  <defs>
    <radialGradient cx="0" cy="0" gradientTransform="matrix(0.0416, 0.0, 0.0, 0.0416, 58.2, 14.25)" gradientUnits="userSpaceOnUse" id="gradient0" r="819.2" spreadMethod="pad">
      <stop offset="0.0" stop-color="#9b7185"/>
      <stop offset="1.0" stop-color="#7c5669"/>
    </radialGradient>
    <radialGradient cx="0" cy="0" gradientTransform="matrix(0.045, 0.0, 0.0, 0.045, 2.0, 16.8)" gradientUnits="userSpaceOnUse" id="gradient1" r="819.2" spreadMethod="pad">
      <stop offset="0.0" stop-color="#9b7185"/>
      <stop offset="1.0" stop-color="#7c5669"/>
    </radialGradient>
    <radialGradient cx="0" cy="0" gradientTransform="matrix(0.0631, 0.0, 0.0, 0.0631, 50.0, -4.75)" gradientUnits="userSpaceOnUse" id="gradient2" r="819.2" spreadMethod="pad">
      <stop offset="0.0" stop-color="#a1778a"/>
      <stop offset="1.0" stop-color="#8a6072"/>
    </radialGradient>
    <radialGradient cx="0" cy="0" gradientTransform="matrix(0.0492, 0.0, 0.0, 0.0492, -57.5, 11.8)" gradientUnits="userSpaceOnUse" id="gradient3" r="819.2" spreadMethod="pad">
      <stop offset="0.0" stop-color="#9b7185"/>
      <stop offset="1.0" stop-color="#7c5669"/>
    </radialGradient>
  </defs>
</svg>
