<?xml version="1.0" encoding="UTF-8" standalone="no"?>
<svg xmlns:xlink="http://www.w3.org/1999/xlink" height="12.75px" width="61.0px" xmlns="http://www.w3.org/2000/svg">
  <g transform="matrix(1.0, 0.0, 0.0, 1.0, 30.5, -49.3)">
    <path d="M-28.55 56.4 L-28.4 54.6 -26.6 54.85 -26.65 56.4 -26.9 58.0 -27.25 59.4 -27.65 60.45 -29.5 59.65 -28.9 58.15 -28.55 56.4 M-19.7 54.25 L-19.4 55.05 -19.0 56.15 -18.65 57.7 -18.35 59.95 -20.4 60.25 -20.55 58.4 -20.9 56.5 -21.5 54.7 -19.7 54.25 M3.75 52.15 L4.65 53.65 5.3 56.0 5.5 59.45 3.45 59.55 3.45 59.15 3.45 58.7 3.25 56.05 2.7 54.15 2.0 52.9 1.35 52.2 2.9 51.2 3.75 52.15 M17.5 54.85 L17.8 56.95 15.8 57.3 15.5 54.9 14.95 53.3 14.3 52.25 15.95 51.4 16.95 53.05 17.5 54.85 M27.75 52.15 L28.65 53.65 29.3 56.0 29.5 59.45 27.45 59.55 27.45 59.15 27.45 58.7 27.25 56.05 26.7 54.15 26.0 52.9 25.35 52.2 26.9 51.2 27.75 52.15 M19.1 50.95 L21.15 51.1 20.9 52.95 20.8 54.8 20.8 55.6 20.9 56.6 21.05 57.5 21.35 58.25 Q21.55 58.5 21.85 58.5 L22.45 58.15 22.95 57.3 23.3 56.3 24.9 57.2 24.6 57.95 24.15 58.9 23.55 59.8 22.75 60.45 21.75 60.75 Q20.95 60.7 20.45 60.3 L19.65 59.15 19.15 57.65 18.95 56.0 18.9 54.6 18.95 53.35 19.05 52.05 19.1 50.95 M9.1 50.3 L11.05 50.4 11.0 51.3 10.85 52.4 11.9 52.4 Q12.9 52.4 13.45 52.85 14.05 53.25 14.3 54.1 L14.55 56.05 14.5 57.05 14.35 58.2 14.1 59.3 13.65 60.15 13.0 60.7 11.85 60.95 11.2 60.95 10.5 60.85 9.95 60.8 9.8 58.9 11.0 59.05 11.45 59.1 11.7 59.05 12.0 58.95 12.25 58.55 12.5 57.75 12.6 56.8 12.65 56.05 12.7 55.7 12.45 54.5 Q12.2 54.2 11.6 54.2 L10.55 54.2 10.25 55.7 9.8 57.5 9.2 59.35 8.5 60.95 6.65 60.0 7.6 57.9 8.25 55.9 8.6 54.25 6.9 54.25 6.9 52.4 8.9 52.4 8.95 51.6 9.05 50.95 9.1 50.3 M-4.9 50.95 L-2.85 51.1 -3.1 52.95 -3.2 54.8 -3.2 55.6 -3.1 56.6 -2.95 57.5 -2.65 58.25 -2.15 58.5 -1.55 58.15 -1.05 57.3 -0.7 56.3 0.9 57.2 0.6 57.95 0.15 58.9 -0.45 59.8 -1.25 60.45 -2.25 60.75 Q-3.05 60.7 -3.55 60.3 L-4.35 59.15 -4.85 57.65 -5.05 56.0 -5.1 54.6 -5.05 53.35 -4.95 52.05 -4.9 50.95 M-10.25 50.45 L-8.3 50.4 -8.25 51.45 -8.25 52.6 -6.5 52.55 -6.5 54.35 -8.25 54.4 -8.3 56.05 -8.6 57.25 -9.3 57.95 -10.5 58.2 -11.05 58.2 -12.2 58.05 -12.25 56.3 -11.8 56.4 -11.3 56.45 -10.85 56.5 -10.4 56.35 Q-10.25 56.25 -10.2 55.8 L-10.15 54.4 -13.55 54.5 -13.6 57.1 -13.55 58.2 -13.25 58.8 -12.45 59.05 -10.95 59.1 -8.8 59.05 -7.4 58.95 -7.4 60.8 -7.7 60.85 -8.15 60.85 -8.95 60.85 -10.2 60.85 -12.25 60.85 -13.85 60.55 -14.9 59.75 -15.15 59.35 -15.35 58.6 -15.4 57.25 -15.4 54.55 -17.2 54.55 -17.2 52.8 -15.4 52.75 -15.4 50.6 -13.55 50.6 -13.55 52.7 -10.15 52.65 -10.2 51.75 -10.2 51.2 -10.25 50.8 -10.25 50.45 M-22.95 50.9 L-21.2 51.5 -21.8 53.45 -22.55 53.6 -23.25 54.05 -23.5 54.8 -23.45 55.1 -23.25 55.45 -22.65 56.1 -22.15 56.7 -21.75 57.5 Q-21.6 57.95 -21.6 58.55 -21.6 59.4 -21.95 59.95 L-22.85 60.75 -24.05 61.05 -24.4 61.0 -25.25 60.85 -26.45 60.45 -26.3 58.65 -25.85 58.8 -25.2 59.0 -24.5 59.1 -24.05 58.95 -23.8 58.65 -23.75 58.35 Q-23.75 57.9 -24.0 57.5 L-24.55 56.8 -24.9 56.35 -25.25 55.7 -25.4 54.85 -25.4 54.55 -25.25 54.0 -24.75 53.3 Q-24.45 52.95 -23.85 52.7 L-25.2 52.4 -26.4 52.25 -27.2 52.2 -26.85 50.45 -26.0 50.45 -24.65 50.6 -22.95 50.9" fill="#5f4352" fill-rule="evenodd" stroke="none"/>
    <path d="M-22.95 50.9 L-24.65 50.6 -26.0 50.45 -26.85 50.45 -27.2 52.2 -26.4 52.25 -25.2 52.4 -23.85 52.7 Q-24.45 52.95 -24.75 53.3 L-25.25 54.0 -25.4 54.55 -25.4 54.85 -25.25 55.7 -24.9 56.35 -24.55 56.8 -24.0 57.5 Q-23.75 57.9 -23.75 58.35 L-23.8 58.65 -24.05 58.95 -24.5 59.1 -25.2 59.0 -25.85 58.8 -26.3 58.65 -26.45 60.45 -25.25 60.85 -24.4 61.0 -24.05 61.05 -22.85 60.75 -21.95 59.95 Q-21.6 59.4 -21.6 58.55 -21.6 57.95 -21.75 57.5 L-22.15 56.7 -22.65 56.1 -23.25 55.45 -23.45 55.1 -23.5 54.8 -23.25 54.05 -22.55 53.6 -21.8 53.45 -21.2 51.5 -22.95 50.9 M-10.25 50.45 L-10.25 50.8 -10.2 51.2 -10.2 51.75 -10.15 52.65 -13.55 52.7 -13.55 50.6 -15.4 50.6 -15.4 52.75 -17.2 52.8 -17.2 54.55 -15.4 54.55 -15.4 57.25 -15.35 58.6 -15.15 59.35 -14.9 59.75 -13.85 60.55 -12.25 60.85 -10.2 60.85 -8.95 60.85 -8.15 60.85 -7.7 60.85 -7.4 60.8 -7.4 58.95 -8.8 59.05 -10.95 59.1 -12.45 59.05 -13.25 58.8 -13.55 58.2 -13.6 57.1 -13.55 54.5 -10.15 54.4 -10.2 55.8 Q-10.25 56.25 -10.4 56.35 L-10.85 56.5 -11.3 56.45 -11.8 56.4 -12.25 56.3 -12.2 58.05 -11.05 58.2 -10.5 58.2 -9.3 57.95 -8.6 57.25 -8.3 56.05 -8.25 54.4 -6.5 54.35 -6.5 52.55 -8.25 52.6 -8.25 51.45 -8.3 50.4 -10.25 50.45 M-4.9 50.95 L-4.95 52.05 -5.05 53.35 -5.1 54.6 -5.05 56.0 -4.85 57.65 -4.35 59.15 -3.55 60.3 Q-3.05 60.7 -2.25 60.75 L-1.25 60.45 -0.45 59.8 0.15 58.9 0.6 57.95 0.9 57.2 -0.7 56.3 -1.05 57.3 -1.55 58.15 -2.15 58.5 -2.65 58.25 -2.95 57.5 -3.1 56.6 -3.2 55.6 -3.2 54.8 -3.1 52.95 -2.85 51.1 -4.9 50.95 M9.1 50.3 L9.05 50.95 8.95 51.6 8.9 52.4 6.9 52.4 6.9 54.25 8.6 54.25 8.25 55.9 7.6 57.9 6.65 60.0 8.5 60.95 9.2 59.35 9.8 57.5 10.25 55.7 10.55 54.2 11.6 54.2 Q12.2 54.2 12.45 54.5 L12.7 55.7 12.65 56.05 12.6 56.8 12.5 57.75 12.25 58.55 12.0 58.95 11.7 59.05 11.45 59.1 11.0 59.05 9.8 58.9 9.95 60.8 10.5 60.85 11.2 60.95 11.85 60.95 13.0 60.7 13.65 60.15 14.1 59.3 14.35 58.2 14.5 57.05 14.55 56.05 14.3 54.1 Q14.05 53.25 13.45 52.85 12.9 52.4 11.9 52.4 L10.85 52.4 11.0 51.3 11.05 50.4 9.1 50.3 M19.1 50.95 L19.05 52.05 18.95 53.35 18.9 54.6 18.95 56.0 19.15 57.65 19.65 59.15 20.45 60.3 Q20.95 60.7 21.75 60.75 L22.75 60.45 23.55 59.8 24.15 58.9 24.6 57.95 24.9 57.2 23.3 56.3 22.95 57.3 22.45 58.15 21.85 58.5 Q21.55 58.5 21.35 58.25 L21.05 57.5 20.9 56.6 20.8 55.6 20.8 54.8 20.9 52.95 21.15 51.1 19.1 50.95 M27.75 52.15 L26.9 51.2 25.35 52.2 26.0 52.9 26.7 54.15 27.25 56.05 27.45 58.7 27.45 59.15 27.45 59.55 29.5 59.45 29.3 56.0 28.65 53.65 27.75 52.15 M17.5 54.85 L16.95 53.05 15.95 51.4 14.3 52.25 14.95 53.3 15.5 54.9 15.8 57.3 17.8 56.95 17.5 54.85 M3.75 52.15 L2.9 51.2 1.35 52.2 2.0 52.9 2.7 54.15 3.25 56.05 3.45 58.7 3.45 59.15 3.45 59.55 5.5 59.45 5.3 56.0 4.65 53.65 3.75 52.15 M-19.7 54.25 L-21.5 54.7 -20.9 56.5 -20.55 58.4 -20.4 60.25 -18.35 59.95 -18.65 57.7 -19.0 56.15 -19.4 55.05 -19.7 54.25 M-28.55 56.4 L-28.9 58.15 -29.5 59.65 -27.65 60.45 -27.25 59.4 -26.9 58.0 -26.65 56.4 -26.6 54.85 -28.4 54.6 -28.55 56.4" fill="none" stroke="#5f4352" stroke-linecap="round" stroke-linejoin="round" stroke-width="2.0"/>
    <path d="M-22.95 50.9 L-21.2 51.5 -21.8 53.45 -22.55 53.6 -23.25 54.05 -23.5 54.8 -23.45 55.1 -23.25 55.45 -22.65 56.1 -22.15 56.7 -21.75 57.5 Q-21.6 57.95 -21.6 58.55 -21.6 59.4 -21.95 59.95 L-22.85 60.75 -24.05 61.05 -24.4 61.0 -25.25 60.85 -26.45 60.45 -26.3 58.65 -25.85 58.8 -25.2 59.0 -24.5 59.1 -24.05 58.95 -23.8 58.65 -23.75 58.35 Q-23.75 57.9 -24.0 57.5 L-24.55 56.8 -24.9 56.35 -25.25 55.7 -25.4 54.85 -25.4 54.55 -25.25 54.0 -24.75 53.3 Q-24.45 52.95 -23.85 52.7 L-25.2 52.4 -26.4 52.25 -27.2 52.2 -26.85 50.45 -26.0 50.45 -24.65 50.6 -22.95 50.9" fill="url(#gradient0)" fill-rule="evenodd" stroke="none"/>
    <path d="M-28.4 54.6 L-26.6 54.85 -26.65 56.4 -26.9 58.0 -27.25 59.4 -27.65 60.45 -29.5 59.65 -28.9 58.15 -28.55 56.4 -28.4 54.6 M-19.4 55.05 L-19.0 56.15 -18.65 57.7 -18.35 59.95 -20.4 60.25 -20.55 58.4 -20.9 56.5 -21.5 54.7 -19.7 54.25 -19.4 55.05" fill="url(#gradient1)" fill-rule="evenodd" stroke="none"/>
    <path d="M-10.2 51.2 L-10.25 50.8 -10.25 50.45 -8.3 50.4 -8.25 51.45 -8.25 52.6 -6.5 52.55 -6.5 54.35 -8.25 54.4 -8.3 56.05 -8.6 57.25 -9.3 57.95 -10.5 58.2 -11.05 58.2 -12.2 58.05 -12.25 56.3 -11.8 56.4 -11.3 56.45 -10.85 56.5 -10.4 56.35 Q-10.25 56.25 -10.2 55.8 L-10.15 54.4 -13.55 54.5 -13.6 57.1 -13.55 58.2 -13.25 58.8 -12.45 59.05 -10.95 59.1 -8.8 59.05 -7.4 58.95 -7.4 60.8 -7.7 60.85 -8.15 60.85 -8.95 60.85 -10.2 60.85 -12.25 60.85 -13.85 60.55 -14.9 59.75 -15.15 59.35 -15.35 58.6 -15.4 57.25 -15.4 54.55 -17.2 54.55 -17.2 52.8 -15.4 52.75 -15.4 50.6 -13.55 50.6 -13.55 52.7 -10.15 52.65 -10.2 51.75 -10.2 51.2" fill="url(#gradient2)" fill-rule="evenodd" stroke="none"/>
    <path d="M-4.9 50.95 L-2.85 51.1 -3.1 52.95 -3.2 54.8 -3.2 55.6 -3.1 56.6 -2.95 57.5 -2.65 58.25 -2.15 58.5 -1.55 58.15 -1.05 57.3 -0.7 56.3 0.9 57.2 0.6 57.95 0.15 58.9 -0.45 59.8 -1.25 60.45 -2.25 60.75 Q-3.05 60.7 -3.55 60.3 L-4.35 59.15 -4.85 57.65 -5.05 56.0 -5.1 54.6 -5.05 53.35 -4.95 52.05 -4.9 50.95" fill="url(#gradient3)" fill-rule="evenodd" stroke="none"/>
    <path d="M2.0 52.9 L1.35 52.2 2.9 51.2 3.75 52.15 4.65 53.65 5.3 56.0 5.5 59.45 3.45 59.55 3.45 59.15 3.45 58.7 3.25 56.05 2.7 54.15 2.0 52.9" fill="url(#gradient4)" fill-rule="evenodd" stroke="none"/>
    <path d="M8.95 51.6 L9.05 50.95 9.1 50.3 11.05 50.4 11.0 51.3 10.85 52.4 11.9 52.4 Q12.9 52.4 13.45 52.85 14.05 53.25 14.3 54.1 L14.55 56.05 14.5 57.05 14.35 58.2 14.1 59.3 13.65 60.15 13.0 60.7 11.85 60.95 11.2 60.95 10.5 60.85 9.95 60.8 9.8 58.9 11.0 59.05 11.45 59.1 11.7 59.05 12.0 58.95 12.25 58.55 12.5 57.75 12.6 56.8 12.65 56.05 12.7 55.7 12.45 54.5 Q12.2 54.2 11.6 54.2 L10.55 54.2 10.25 55.7 9.8 57.5 9.2 59.35 8.5 60.95 6.65 60.0 7.6 57.9 8.25 55.9 8.6 54.25 6.9 54.25 6.9 52.4 8.9 52.4 8.95 51.6" fill="url(#gradient5)" fill-rule="evenodd" stroke="none"/>
    <path d="M17.5 54.85 L17.8 56.95 15.8 57.3 15.5 54.9 14.95 53.3 14.3 52.25 15.95 51.4 16.95 53.05 17.5 54.85" fill="url(#gradient6)" fill-rule="evenodd" stroke="none"/>
    <path d="M19.1 50.95 L21.15 51.1 20.9 52.95 20.8 54.8 20.8 55.6 20.9 56.6 21.05 57.5 21.35 58.25 Q21.55 58.5 21.85 58.5 L22.45 58.15 22.95 57.3 23.3 56.3 24.9 57.2 24.6 57.95 24.15 58.9 23.55 59.8 22.75 60.45 21.75 60.75 Q20.95 60.7 20.45 60.3 L19.65 59.15 19.15 57.65 18.95 56.0 18.9 54.6 18.95 53.35 19.05 52.05 19.1 50.95" fill="url(#gradient7)" fill-rule="evenodd" stroke="none"/>
    <path d="M27.75 52.15 L28.65 53.65 29.3 56.0 29.5 59.45 27.45 59.55 27.45 59.15 27.45 58.7 27.25 56.05 26.7 54.15 26.0 52.9 25.35 52.2 26.9 51.2 27.75 52.15" fill="url(#gradient8)" fill-rule="evenodd" stroke="none"/>
  </g>
  <defs>
    <radialGradient cx="0" cy="0" gradientTransform="matrix(0.0108, 0.0, 0.0, 0.0108, -24.9, 55.3)" gradientUnits="userSpaceOnUse" id="gradient0" r="819.2" spreadMethod="pad">
      <stop offset="0.0" stop-color="#b7829e"/>
      <stop offset="1.0" stop-color="#976882"/>
    </radialGradient>
    <radialGradient cx="0" cy="0" gradientTransform="matrix(0.0095, 0.0, 0.0, 0.0095, -23.0, 53.5)" gradientUnits="userSpaceOnUse" id="gradient1" r="819.2" spreadMethod="pad">
      <stop offset="0.0" stop-color="#b7829e"/>
      <stop offset="1.0" stop-color="#976882"/>
    </radialGradient>
    <radialGradient cx="0" cy="0" gradientTransform="matrix(0.0102, 0.0, 0.0, 0.0102, -11.4, 53.55)" gradientUnits="userSpaceOnUse" id="gradient2" r="819.2" spreadMethod="pad">
      <stop offset="0.0" stop-color="#b7829e"/>
      <stop offset="1.0" stop-color="#976882"/>
    </radialGradient>
    <radialGradient cx="0" cy="0" gradientTransform="matrix(0.0115, 0.0, 0.0, 0.0115, -1.65, 53.55)" gradientUnits="userSpaceOnUse" id="gradient3" r="819.2" spreadMethod="pad">
      <stop offset="0.0" stop-color="#b7829e"/>
      <stop offset="1.0" stop-color="#976882"/>
    </radialGradient>
    <radialGradient cx="0" cy="0" gradientTransform="matrix(0.0111, 0.0, 0.0, 0.0111, -0.65, 59.0)" gradientUnits="userSpaceOnUse" id="gradient4" r="819.2" spreadMethod="pad">
      <stop offset="0.0" stop-color="#b7829e"/>
      <stop offset="1.0" stop-color="#976882"/>
    </radialGradient>
    <radialGradient cx="0" cy="0" gradientTransform="matrix(0.0105, 0.0, 0.0, 0.0105, 11.85, 53.8)" gradientUnits="userSpaceOnUse" id="gradient5" r="819.2" spreadMethod="pad">
      <stop offset="0.0" stop-color="#b7829e"/>
      <stop offset="1.0" stop-color="#976882"/>
    </radialGradient>
    <radialGradient cx="0" cy="0" gradientTransform="matrix(0.009, 0.0, 0.0, 0.009, 10.1, 54.25)" gradientUnits="userSpaceOnUse" id="gradient6" r="819.2" spreadMethod="pad">
      <stop offset="0.0" stop-color="#b7829e"/>
      <stop offset="1.0" stop-color="#976882"/>
    </radialGradient>
    <radialGradient cx="0" cy="0" gradientTransform="matrix(0.0099, 0.0, 0.0, 0.0099, 23.1, 57.3)" gradientUnits="userSpaceOnUse" id="gradient7" r="819.2" spreadMethod="pad">
      <stop offset="0.0" stop-color="#b7829e"/>
      <stop offset="1.0" stop-color="#976882"/>
    </radialGradient>
    <radialGradient cx="0" cy="0" gradientTransform="matrix(0.01, 0.0, 0.0, 0.01, 20.25, 53.0)" gradientUnits="userSpaceOnUse" id="gradient8" r="819.2" spreadMethod="pad">
      <stop offset="0.0" stop-color="#b7829e"/>
      <stop offset="1.0" stop-color="#976882"/>
    </radialGradient>
  </defs>
</svg>
