<?xml version="1.0" encoding="UTF-8" standalone="no"?>
<svg xmlns:xlink="http://www.w3.org/1999/xlink" height="69.95px" width="119.0px" xmlns="http://www.w3.org/2000/svg">
  <g transform="matrix(1.0, 0.0, 0.0, 1.0, 59.5, 10.0)">
    <path d="M56.0 3.4 L56.0 10.0 38.35 10.0 38.35 14.85 57.25 14.85 57.25 21.75 30.1 21.75 30.1 -8.0 56.75 -8.0 56.75 -1.1 38.35 -1.1 38.35 3.4 56.0 3.4 M48.95 27.75 L52.0 28.1 51.95 28.05 52.0 28.05 Q53.45 28.4 54.7 29.3 55.95 30.2 56.7 32.0 L56.75 32.05 Q57.4 33.75 57.45 36.5 L57.25 39.3 Q57.05 40.85 56.05 42.25 L56.1 42.25 54.2 43.95 Q55.35 44.45 56.0 45.4 L56.05 45.45 Q56.95 46.8 56.95 49.0 L56.95 51.6 Q57.0 53.5 57.2 54.85 L57.75 57.9 48.7 57.9 48.7 54.45 48.65 52.95 48.65 50.25 Q48.6 49.05 48.25 48.55 47.9 48.1 47.4 48.0 L45.9 47.85 38.8 47.85 38.8 57.9 30.4 57.9 30.4 28.25 Q30.4 28.05 30.55 27.95 L30.55 27.9 Q30.7 27.75 30.9 27.75 L48.95 27.75 M-42.9 35.2 L-46.6 35.35 -46.65 35.35 Q-47.85 35.45 -48.45 36.05 L-48.4 36.05 Q-49.0 36.7 -49.2 38.15 L-49.35 42.8 -49.2 47.4 Q-49.0 48.9 -48.45 49.5 L-48.45 49.55 Q-47.9 50.15 -46.8 50.3 L-43.4 50.45 -39.3 50.3 Q-38.0 50.15 -37.35 49.55 -36.75 48.9 -36.55 47.45 -36.35 45.8 -36.4 42.8 L-36.6 38.15 Q-36.8 36.7 -37.35 36.05 -37.95 35.5 -39.1 35.35 L-42.9 35.2 M-27.55 -8.0 L-27.55 -1.15 -38.25 -1.15 -38.25 21.75 -46.6 21.75 -46.6 -1.15 -57.25 -1.15 -57.25 -8.0 -27.55 -8.0 M-24.25 -8.0 L-15.8 -8.0 -15.8 21.75 -24.25 21.75 -24.25 -8.0 M-6.45 28.25 L1.7 28.25 -7.95 57.4 -17.55 57.4 -27.15 28.25 -19.05 28.25 -12.75 49.4 -6.45 28.25 M11.3 35.0 L11.3 39.4 26.95 39.4 26.95 45.9 11.3 45.9 11.3 50.65 28.05 50.65 28.05 57.4 3.95 57.4 3.95 28.25 27.6 28.25 27.6 35.0 11.3 35.0 M17.8 1.7 L17.85 0.1 11.15 21.75 3.7 21.75 -3.0 0.1 -2.95 1.8 -2.85 4.45 -2.7 7.05 -2.65 8.7 -2.65 21.75 -10.65 21.75 -10.65 -8.0 1.35 -8.0 7.45 12.05 13.5 -8.0 25.5 -8.0 25.5 21.75 17.5 21.75 17.5 8.7 17.55 7.05 17.7 4.4 17.8 1.7 M48.9 39.45 L49.15 37.6 Q49.15 36.45 48.7 36.0 48.1 35.5 47.1 35.5 L38.8 35.5 38.8 40.35 47.15 40.35 48.25 40.2 48.9 39.45 M-35.7 28.0 Q-32.75 28.65 -31.05 30.3 -29.35 31.9 -28.65 34.9 -28.0 37.7 -28.0 42.2 -27.95 46.55 -28.4 49.6 -28.85 52.65 -30.35 54.55 -31.85 56.55 -34.8 57.4 L-42.5 58.2 -49.8 57.7 Q-52.85 57.1 -54.55 55.5 L-54.6 55.5 -54.55 55.5 Q-56.35 53.9 -57.05 50.95 -57.8 48.05 -57.75 43.45 -57.8 38.9 -57.3 35.9 -56.8 32.65 -55.2 30.85 -53.7 28.95 -50.65 28.2 -47.75 27.4 -42.9 27.45 L-35.7 28.0" fill="#5f4352" fill-rule="evenodd" stroke="none"/>
    <path d="M56.0 3.4 L38.35 3.4 38.35 -1.1 56.75 -1.1 56.75 -8.0 30.1 -8.0 30.1 21.75 57.25 21.75 57.25 14.85 38.35 14.85 38.35 10.0 56.0 10.0 56.0 3.4 M48.9 39.45 L48.25 40.2 47.15 40.35 38.8 40.35 38.8 35.5 47.1 35.5 Q48.1 35.5 48.7 36.0 49.15 36.45 49.15 37.6 L48.9 39.45 M17.8 1.7 L17.7 4.4 17.55 7.05 17.5 8.7 17.5 21.75 25.5 21.75 25.5 -8.0 13.5 -8.0 7.45 12.05 1.35 -8.0 -10.65 -8.0 -10.65 21.75 -2.65 21.75 -2.65 8.7 -2.7 7.05 -2.85 4.45 -2.95 1.8 -3.0 0.1 3.7 21.75 11.15 21.75 17.85 0.1 17.8 1.7 M11.3 35.0 L27.6 35.0 27.6 28.25 3.95 28.25 3.95 57.4 28.05 57.4 28.05 50.65 11.3 50.65 11.3 45.9 26.95 45.9 26.95 39.4 11.3 39.4 11.3 35.0 M-6.45 28.25 L-12.75 49.4 -19.05 28.25 -27.15 28.25 -17.55 57.4 -7.95 57.4 1.7 28.25 -6.45 28.25 M-24.25 -8.0 L-24.25 21.75 -15.8 21.75 -15.8 -8.0 -24.25 -8.0 M-27.55 -8.0 L-57.25 -8.0 -57.25 -1.15 -46.6 -1.15 -46.6 21.75 -38.25 21.75 -38.25 -1.15 -27.55 -1.15 -27.55 -8.0 M-42.9 35.2 L-39.1 35.35 Q-37.95 35.5 -37.35 36.05 -36.8 36.7 -36.6 38.15 L-36.4 42.8 Q-36.35 45.8 -36.55 47.45 -36.75 48.9 -37.35 49.55 -38.0 50.15 -39.3 50.3 L-43.4 50.45 -46.8 50.3 Q-47.9 50.15 -48.45 49.55 L-48.45 49.5 Q-49.0 48.9 -49.2 47.4 L-49.35 42.8 -49.2 38.15 Q-49.0 36.7 -48.4 36.05 L-48.45 36.05 Q-47.85 35.45 -46.65 35.35 L-46.6 35.35 -42.9 35.2" fill="none" stroke="#5f4352" stroke-linecap="round" stroke-linejoin="round" stroke-width="4.0"/>
    <path d="M48.95 27.75 L30.9 27.75 Q30.7 27.75 30.55 27.9 L30.55 27.95 Q30.4 28.05 30.4 28.25 L30.4 57.9 38.8 57.9 38.8 47.85 45.9 47.85 47.4 48.0 Q47.9 48.1 48.25 48.55 48.6 49.05 48.65 50.25 L48.65 52.95 48.7 54.45 48.7 57.9 57.75 57.9 57.2 54.85 Q57.0 53.5 56.95 51.6 L56.95 49.0 Q56.95 46.8 56.05 45.45 L56.0 45.4 Q55.35 44.45 54.2 43.95 L56.1 42.25 56.05 42.25 Q57.05 40.85 57.25 39.3 L57.45 36.5 Q57.4 33.75 56.75 32.05 L56.7 32.0 Q55.95 30.2 54.7 29.3 53.45 28.4 52.0 28.05 L51.95 28.05 52.0 28.1 48.95 27.75 M-35.7 28.0 L-42.9 27.45 Q-47.75 27.4 -50.65 28.2 -53.7 28.95 -55.2 30.85 -56.8 32.65 -57.3 35.9 -57.8 38.9 -57.75 43.45 -57.8 48.05 -57.05 50.95 -56.35 53.9 -54.55 55.5 L-54.6 55.5 -54.55 55.5 Q-52.85 57.1 -49.8 57.7 L-42.5 58.2 -34.8 57.4 Q-31.85 56.55 -30.35 54.55 -28.85 52.65 -28.4 49.6 -27.95 46.55 -28.0 42.2 -28.0 37.7 -28.65 34.9 -29.35 31.9 -31.05 30.3 -32.75 28.65 -35.7 28.0" fill="none" stroke="#5f4352" stroke-linecap="round" stroke-linejoin="round" stroke-width="3.5"/>
    <path d="M56.1 42.25 L56.05 42.25 56.1 42.25 M52.0 28.05 L52.0 28.1 51.95 28.05 52.0 28.05 M30.55 27.95 L31.4 28.75 31.4 56.9 30.65 57.8 30.55 57.75 30.4 57.4 30.4 28.25 Q30.4 28.05 30.55 27.95 M-49.25 50.2 L-49.2 50.2 -49.25 50.2 M-54.55 55.5 L-54.6 55.5 -54.55 55.5" fill="#ceaabd" fill-rule="evenodd" stroke="none"/>
    <path d="M31.4 56.9 L37.8 56.9 37.8 47.35 37.95 47.0 38.8 47.85 38.8 57.4 38.65 57.75 38.3 57.9 30.9 57.9 30.65 57.8 31.4 56.9" fill="#735162" fill-rule="evenodd" stroke="none"/>
    <path d="M-24.25 21.75 L-24.25 -8.0 -15.8 -8.0 -15.8 21.75 -24.25 21.75" fill="url(#gradient0)" fill-rule="evenodd" stroke="none"/>
    <path d="M17.5 21.75 L17.5 8.7 17.55 7.05 17.7 4.4 17.8 1.7 17.85 0.1 11.15 21.75 3.7 21.75 -3.0 0.1 -2.95 1.8 -2.85 4.45 -2.7 7.05 -2.65 8.7 -2.65 21.75 -10.65 21.75 -10.65 -8.0 1.35 -8.0 7.45 12.05 13.5 -8.0 25.5 -8.0 25.5 21.75 17.5 21.75" fill="url(#gradient1)" fill-rule="evenodd" stroke="none"/>
    <path d="M56.75 -8.0 L56.75 -1.1 38.35 -1.1 38.35 3.4 56.0 3.4 56.0 10.0 38.35 10.0 38.35 14.85 57.25 14.85 57.25 21.75 30.1 21.75 30.1 -8.0 56.75 -8.0" fill="url(#gradient2)" fill-rule="evenodd" stroke="none"/>
    <path d="M-27.55 -8.0 L-27.55 -1.15 -38.25 -1.15 -38.25 21.75 -46.6 21.75 -46.6 -1.15 -57.25 -1.15 -57.25 -8.0 -27.55 -8.0" fill="url(#gradient3)" fill-rule="evenodd" stroke="none"/>
    <path d="M37.8 35.0 L37.95 34.65 Q38.1 34.5 38.3 34.5 L47.1 34.5 Q48.5 34.5 49.35 35.25 50.15 35.85 50.15 37.6 50.15 39.1 49.8 39.85 49.45 40.75 48.7 41.1 L48.65 41.1 47.1 41.35 38.3 41.35 37.95 41.2 37.8 40.85 37.8 35.0 M48.7 36.0 Q48.1 35.5 47.1 35.5 L38.8 35.5 38.8 40.35 47.15 40.35 48.25 40.2 48.9 39.45 49.15 37.6 Q49.15 36.45 48.7 36.0" fill="url(#gradient4)" fill-rule="evenodd" stroke="none"/>
    <path d="M37.8 35.0 L37.8 40.85 37.95 41.2 38.3 41.35 47.1 41.35 48.65 41.1 48.7 41.1 Q49.45 40.75 49.8 39.85 50.15 39.1 50.15 37.6 50.15 35.85 49.35 35.25 48.5 34.5 47.1 34.5 L38.3 34.5 Q38.1 34.5 37.95 34.65 L37.8 35.0 M31.4 28.75 L49.0 28.75 51.75 29.05 Q53.05 29.3 54.1 30.1 55.15 30.9 55.8 32.4 56.4 33.95 56.45 36.5 L56.45 36.55 56.25 39.15 Q56.05 40.45 55.25 41.7 54.45 42.85 52.75 43.55 L52.5 43.75 52.4 44.05 52.55 44.35 52.8 44.5 Q54.35 44.9 55.2 46.0 55.95 47.1 55.95 49.0 L55.95 51.6 56.25 55.3 56.65 56.9 50.0 56.9 Q49.8 56.1 49.75 55.15 L49.65 52.95 49.65 50.25 Q49.6 48.65 49.05 47.95 48.5 47.2 47.6 47.0 L45.9 46.85 38.3 46.85 Q38.1 46.85 37.95 47.0 L37.8 47.35 37.8 56.9 31.4 56.9 31.4 28.75" fill="url(#gradient5)" fill-rule="evenodd" stroke="none"/>
    <path d="M50.0 56.9 L56.65 56.9 56.25 55.3 55.95 51.6 55.95 49.0 Q55.95 47.1 55.2 46.0 54.35 44.9 52.8 44.5 L52.55 44.35 52.4 44.05 52.5 43.75 52.75 43.55 Q54.45 42.85 55.25 41.7 56.05 40.45 56.25 39.15 L56.45 36.55 56.45 36.5 Q56.4 33.95 55.8 32.4 55.15 30.9 54.1 30.1 53.05 29.3 51.75 29.05 L49.0 28.75 31.4 28.75 30.55 27.95 30.55 27.9 Q30.7 27.75 30.9 27.75 L48.95 27.75 52.0 28.1 52.0 28.05 Q53.45 28.4 54.7 29.3 55.95 30.2 56.7 32.0 L56.75 32.05 Q57.4 33.75 57.45 36.5 L57.25 39.3 Q57.05 40.85 56.05 42.25 L56.1 42.25 54.2 43.95 Q55.35 44.45 56.0 45.4 L56.05 45.45 Q56.95 46.8 56.95 49.0 L56.95 51.6 57.25 55.15 57.75 57.3 57.75 57.6 57.55 57.8 57.25 57.9 49.6 57.9 49.2 57.9 49.05 57.85 50.0 56.9" fill="url(#gradient6)" fill-rule="evenodd" stroke="none"/>
    <path d="M-12.75 49.4 L-6.45 28.25 1.7 28.25 -7.95 57.4 -17.55 57.4 -27.15 28.25 -19.05 28.25 -12.75 49.4" fill="url(#gradient7)" fill-rule="evenodd" stroke="none"/>
    <path d="M27.6 28.25 L27.6 35.0 11.3 35.0 11.3 39.4 26.95 39.4 26.95 45.9 11.3 45.9 11.3 50.65 28.05 50.65 28.05 57.4 3.95 57.4 3.95 28.25 27.6 28.25" fill="url(#gradient8)" fill-rule="evenodd" stroke="none"/>
    <path d="M50.0 56.9 L49.05 57.85 48.9 57.25 48.75 55.3 48.65 52.95 48.65 50.25 Q48.6 49.05 48.25 48.55 47.9 48.1 47.4 48.0 L45.9 47.85 38.8 47.85 37.95 47.0 Q38.1 46.85 38.3 46.85 L45.9 46.85 47.6 47.0 Q48.5 47.2 49.05 47.95 49.6 48.65 49.65 50.25 L49.65 52.95 49.75 55.15 Q49.8 56.1 50.0 56.9" fill="url(#gradient9)" fill-rule="evenodd" stroke="none"/>
    <path d="M-39.1 35.35 L-42.9 35.2 -46.6 35.35 -46.65 35.35 Q-47.85 35.45 -48.45 36.05 L-48.4 36.05 Q-49.0 36.7 -49.2 38.15 L-49.35 42.8 -49.2 47.4 Q-49.0 48.9 -48.45 49.5 L-48.45 49.55 Q-47.9 50.15 -46.8 50.3 L-43.4 50.45 -39.3 50.3 Q-38.0 50.15 -37.35 49.55 -36.75 48.9 -36.55 47.45 -36.35 45.8 -36.4 42.8 L-36.6 38.15 Q-36.8 36.7 -37.35 36.05 -37.95 35.5 -39.1 35.35 M-49.25 50.2 Q-50.0 49.4 -50.2 47.5 L-50.35 42.8 -50.2 38.05 Q-50.0 36.2 -49.15 35.35 -48.35 34.55 -46.75 34.35 L-42.9 34.2 -39.0 34.35 Q-37.35 34.5 -36.6 35.35 -35.8 36.2 -35.6 38.05 L-35.4 42.8 Q-35.35 45.9 -35.55 47.55 -35.75 49.45 -36.6 50.25 L-36.65 50.3 Q-37.45 51.15 -39.2 51.3 L-43.4 51.45 -46.95 51.3 Q-48.5 51.05 -49.2 50.2 L-49.25 50.2" fill="url(#gradient10)" fill-rule="evenodd" stroke="none"/>
    <path d="M-49.2 50.2 Q-48.5 51.05 -46.95 51.3 L-43.4 51.45 -39.2 51.3 Q-37.45 51.15 -36.65 50.3 L-36.6 50.25 Q-35.75 49.45 -35.55 47.55 -35.35 45.9 -35.4 42.8 L-35.6 38.05 Q-35.8 36.2 -36.6 35.35 -37.35 34.5 -39.0 34.35 L-42.9 34.2 -46.75 34.35 Q-48.35 34.55 -49.15 35.35 -50.0 36.2 -50.2 38.05 L-50.35 42.8 -50.2 47.5 Q-50.0 49.4 -49.25 50.2 L-49.2 50.2 M-29.6 35.15 Q-29.0 37.9 -29.0 42.2 -28.95 46.45 -29.4 49.45 -29.85 52.25 -31.15 53.95 -32.45 55.65 -35.05 56.45 L-35.1 56.45 -42.5 57.2 -49.6 56.7 Q-52.35 56.2 -53.9 54.75 -55.45 53.3 -56.1 50.7 -56.8 47.85 -56.75 43.45 -56.8 39.0 -56.3 36.05 -55.9 33.15 -54.45 31.5 -53.1 29.85 -50.4 29.15 L-42.9 28.45 -35.9 29.0 Q-33.25 29.55 -31.75 31.0 -30.25 32.5 -29.6 35.15" fill="url(#gradient11)" fill-rule="evenodd" stroke="none"/>
    <path d="M-54.55 55.5 Q-56.35 53.9 -57.05 50.95 -57.8 48.05 -57.75 43.45 -57.8 38.9 -57.3 35.9 -56.8 32.65 -55.2 30.85 -53.7 28.95 -50.65 28.2 -47.75 27.4 -42.9 27.45 L-35.7 28.0 Q-32.75 28.65 -31.05 30.3 -29.35 31.9 -28.65 34.9 -28.0 37.7 -28.0 42.2 -27.95 46.55 -28.4 49.6 -28.85 52.65 -30.35 54.55 -31.85 56.55 -34.8 57.4 L-42.5 58.2 -49.8 57.7 Q-52.85 57.1 -54.55 55.5 M-29.6 35.15 Q-30.25 32.5 -31.75 31.0 -33.25 29.55 -35.9 29.0 L-42.9 28.45 -50.4 29.15 Q-53.1 29.85 -54.45 31.5 -55.9 33.15 -56.3 36.05 -56.8 39.0 -56.75 43.45 -56.8 47.85 -56.1 50.7 -55.45 53.3 -53.9 54.75 -52.35 56.2 -49.6 56.7 L-42.5 57.2 -35.1 56.45 -35.05 56.45 Q-32.45 55.65 -31.15 53.95 -29.85 52.25 -29.4 49.45 -28.95 46.45 -29.0 42.2 -29.0 37.9 -29.6 35.15" fill="url(#gradient12)" fill-rule="evenodd" stroke="none"/>
    <path d="M56.75 -8.0 L30.1 -8.0 30.1 21.75 M57.25 14.85 L38.35 14.85 M56.0 3.4 L38.35 3.4 M17.85 0.1 L17.8 1.7 17.7 4.4 17.55 7.05 17.5 8.7 17.5 21.75 M25.5 -8.0 L13.5 -8.0 7.45 12.05 M1.35 -8.0 L-10.65 -8.0 -10.65 21.75 M-3.0 0.1 L3.7 21.75 M27.6 28.25 L3.95 28.25 3.95 57.4 M28.05 50.65 L11.3 50.65 M26.95 39.4 L11.3 39.4 M1.7 28.25 L-6.45 28.25 -12.75 49.4 M-19.05 28.25 L-27.15 28.25 -17.55 57.4 M-15.8 -8.0 L-24.25 -8.0 -24.25 21.75 M-27.55 -8.0 L-57.25 -8.0 -57.25 -1.15 M-46.6 -1.15 L-46.6 21.75" fill="none" stroke="#ceaabd" stroke-linecap="round" stroke-linejoin="round" stroke-width="1.0"/>
    <path d="M38.35 3.4 L38.35 -1.1 56.75 -1.1 56.75 -8.0 M30.1 21.75 L57.25 21.75 57.25 14.85 M38.35 14.85 L38.35 10.0 56.0 10.0 56.0 3.4 M17.5 21.75 L25.5 21.75 25.5 -8.0 M7.45 12.05 L1.35 -8.0 M-10.65 21.75 L-2.65 21.75 -2.65 8.7 -2.7 7.05 -2.85 4.45 -2.95 1.8 -3.0 0.1 M3.7 21.75 L11.15 21.75 17.85 0.1 M11.3 39.4 L11.3 35.0 27.6 35.0 27.6 28.25 M3.95 57.4 L28.05 57.4 28.05 50.65 M11.3 50.65 L11.3 45.9 26.95 45.9 26.95 39.4 M-12.75 49.4 L-19.05 28.25 M-17.55 57.4 L-7.95 57.4 1.7 28.25 M-24.25 21.75 L-15.8 21.75 -15.8 -8.0 M-46.6 21.75 L-38.25 21.75 -38.25 -1.15 -27.55 -1.15 -27.55 -8.0 M-57.25 -1.15 L-46.6 -1.15" fill="none" stroke="#735162" stroke-linecap="round" stroke-linejoin="round" stroke-width="1.0"/>
  </g>
  <defs>
    <radialGradient cx="0" cy="0" gradientTransform="matrix(0.0317, 0.0, 0.0, 0.0317, -18.45, -3.55)" gradientUnits="userSpaceOnUse" id="gradient0" r="819.2" spreadMethod="pad">
      <stop offset="0.0" stop-color="#9b7185"/>
      <stop offset="1.0" stop-color="#7c5669"/>
    </radialGradient>
    <radialGradient cx="0" cy="0" gradientTransform="matrix(0.0405, 0.0, 0.0, 0.0405, 0.35, 0.05)" gradientUnits="userSpaceOnUse" id="gradient1" r="819.2" spreadMethod="pad">
      <stop offset="0.0" stop-color="#9b7185"/>
      <stop offset="1.0" stop-color="#7c5669"/>
    </radialGradient>
    <radialGradient cx="0" cy="0" gradientTransform="matrix(0.0362, 0.0, 0.0, 0.0362, 38.35, -1.1)" gradientUnits="userSpaceOnUse" id="gradient2" r="819.2" spreadMethod="pad">
      <stop offset="0.0" stop-color="#9b7185"/>
      <stop offset="1.0" stop-color="#7c5669"/>
    </radialGradient>
    <radialGradient cx="0" cy="0" gradientTransform="matrix(0.0239, 0.0, 0.0, 0.0239, -41.25, 3.25)" gradientUnits="userSpaceOnUse" id="gradient3" r="819.2" spreadMethod="pad">
      <stop offset="0.0" stop-color="#9b7185"/>
      <stop offset="1.0" stop-color="#7c5669"/>
    </radialGradient>
    <linearGradient gradientTransform="matrix(-3.0E-4, -6.0E-4, 0.0037, -0.0019, 43.95, 38.0)" gradientUnits="userSpaceOnUse" id="gradient4" spreadMethod="pad" x1="-819.2" x2="819.2">
      <stop offset="0.0" stop-color="#ceaabd"/>
      <stop offset="1.0" stop-color="#735162"/>
    </linearGradient>
    <radialGradient cx="0" cy="0" gradientTransform="matrix(0.0394, 0.0, 0.0, 0.0394, 44.75, 28.25)" gradientUnits="userSpaceOnUse" id="gradient5" r="819.2" spreadMethod="pad">
      <stop offset="0.0" stop-color="#9b7185"/>
      <stop offset="1.0" stop-color="#7c5669"/>
    </radialGradient>
    <linearGradient gradientTransform="matrix(0.0029, 0.0027, -0.0125, 0.0135, 44.05, 42.8)" gradientUnits="userSpaceOnUse" id="gradient6" spreadMethod="pad" x1="-819.2" x2="819.2">
      <stop offset="0.0" stop-color="#ceaabd"/>
      <stop offset="1.0" stop-color="#735162"/>
    </linearGradient>
    <radialGradient cx="0" cy="0" gradientTransform="matrix(0.037, 0.0, 0.0, 0.037, -2.85, 30.85)" gradientUnits="userSpaceOnUse" id="gradient7" r="819.2" spreadMethod="pad">
      <stop offset="0.0" stop-color="#9b7185"/>
      <stop offset="1.0" stop-color="#7c5669"/>
    </radialGradient>
    <radialGradient cx="0" cy="0" gradientTransform="matrix(0.0392, 0.0, 0.0, 0.0392, 21.95, 30.85)" gradientUnits="userSpaceOnUse" id="gradient8" r="819.2" spreadMethod="pad">
      <stop offset="0.0" stop-color="#9b7185"/>
      <stop offset="1.0" stop-color="#7c5669"/>
    </radialGradient>
    <linearGradient gradientTransform="matrix(-0.0011, -0.0011, 0.0031, -0.0032, 45.9, 49.9)" gradientUnits="userSpaceOnUse" id="gradient9" spreadMethod="pad" x1="-819.2" x2="819.2">
      <stop offset="0.0" stop-color="#ceaabd"/>
      <stop offset="1.0" stop-color="#735162"/>
    </linearGradient>
    <linearGradient gradientTransform="matrix(-0.0016, -0.0012, 0.0063, -0.0085, -42.85, 42.8)" gradientUnits="userSpaceOnUse" id="gradient10" spreadMethod="pad" x1="-819.2" x2="819.2">
      <stop offset="0.0" stop-color="#ceaabd"/>
      <stop offset="1.0" stop-color="#735162"/>
    </linearGradient>
    <radialGradient cx="0" cy="0" gradientTransform="matrix(0.0334, 0.0, 0.0, 0.0334, -40.45, 31.65)" gradientUnits="userSpaceOnUse" id="gradient11" r="819.2" spreadMethod="pad">
      <stop offset="0.0" stop-color="#9b7185"/>
      <stop offset="1.0" stop-color="#7c5669"/>
    </radialGradient>
    <linearGradient gradientTransform="matrix(0.0032, 0.0032, -0.0133, 0.0133, -42.85, 42.8)" gradientUnits="userSpaceOnUse" id="gradient12" spreadMethod="pad" x1="-819.2" x2="819.2">
      <stop offset="0.0" stop-color="#ceaabd"/>
      <stop offset="1.0" stop-color="#735162"/>
    </linearGradient>
  </defs>
</svg>
