<?xml version="1.0" encoding="UTF-8" standalone="no"?>
<svg xmlns:xlink="http://www.w3.org/1999/xlink" height="118.85px" width="325.65px" xmlns="http://www.w3.org/2000/svg">
  <g transform="matrix(1.0, 0.0, 0.0, 1.0, -23.95, -27.6)">
    <path d="M336.15 30.65 Q339.35 31.15 341.4 32.95 344.75 35.8 344.75 40.35 344.75 47.4 337.45 50.35 340.3 52.4 342.55 56.35 L347.6 65.25 335.2 65.25 329.95 56.7 Q328.25 54.0 327.15 53.05 326.1 52.05 324.65 52.05 L323.75 52.05 323.75 65.1 313.2 65.1 313.2 30.4 330.25 30.4 336.15 30.65 M306.65 38.75 L288.45 38.75 288.45 42.95 305.25 42.95 305.25 51.4 288.45 51.4 288.45 56.55 307.2 56.55 307.2 65.25 277.7 65.25 277.7 30.25 306.65 30.25 306.65 38.75 M274.15 30.4 L261.45 65.25 250.15 65.25 237.45 30.4 248.4 30.4 255.95 53.05 263.45 30.4 274.15 30.4 M177.35 51.4 L160.55 51.4 160.55 56.55 179.3 56.55 179.3 65.25 149.8 65.25 149.8 30.25 178.75 30.25 178.75 38.75 160.55 38.75 160.55 42.95 177.35 42.95 177.35 51.4 M129.0 30.4 L143.0 30.4 143.0 65.25 133.3 65.25 133.3 45.55 128.05 65.15 119.0 65.15 113.8 45.8 113.8 65.25 104.2 65.25 104.2 30.4 118.1 30.4 123.65 49.4 129.0 30.4 M236.3 47.65 Q236.3 55.8 231.85 60.6 227.05 65.9 217.85 65.9 208.5 65.9 203.65 60.5 199.35 55.7 199.35 47.8 199.35 39.5 203.95 34.7 208.8 29.6 217.6 29.6 227.05 29.6 231.9 34.85 236.3 39.6 236.3 47.65 M223.55 40.95 Q221.8 38.55 217.75 38.55 210.6 38.55 210.6 47.75 210.6 52.35 212.6 54.7 214.45 56.9 217.75 56.9 225.1 56.9 225.1 47.6 225.1 43.15 223.55 40.95 M87.35 30.25 L101.2 65.25 89.6 65.25 87.55 59.35 76.4 59.35 74.45 65.25 63.05 65.25 76.7 30.25 87.35 30.25 M30.35 35.45 Q35.7 29.6 45.5 29.6 50.95 29.6 54.35 31.2 59.95 33.8 61.8 40.75 L51.75 42.25 Q49.9 38.4 45.1 38.4 37.2 38.4 37.2 47.25 37.2 52.25 39.15 54.55 41.05 56.85 45.2 56.85 49.3 56.85 51.9 54.85 L51.9 53.05 44.55 53.05 44.55 44.85 62.1 44.85 62.1 60.1 Q54.8 65.9 45.2 65.9 35.85 65.9 30.7 60.65 25.95 55.8 25.95 47.8 25.95 40.25 30.35 35.45" fill="#16171f" fill-rule="evenodd" stroke="none"/>
    <path d="M336.15 30.65 Q339.35 31.15 341.4 32.95 344.75 35.8 344.75 40.35 344.75 47.4 337.45 50.35 340.3 52.4 342.55 56.35 L347.6 65.25 335.2 65.25 329.95 56.7 Q328.25 54.0 327.15 53.05 326.1 52.05 324.65 52.05 L323.75 52.05 323.75 65.1 313.2 65.1 313.2 30.4 330.25 30.4 336.15 30.65 M306.65 38.75 L288.45 38.75 288.45 42.95 305.25 42.95 305.25 51.4 288.45 51.4 288.45 56.55 307.2 56.55 307.2 65.25 277.7 65.25 277.7 30.25 306.65 30.25 306.65 38.75 M274.15 30.4 L261.45 65.25 250.15 65.25 237.45 30.4 248.4 30.4 255.95 53.05 263.45 30.4 274.15 30.4 M177.35 51.4 L160.55 51.4 160.55 56.55 179.3 56.55 179.3 65.25 149.8 65.25 149.8 30.25 178.75 30.25 178.75 38.75 160.55 38.75 160.55 42.95 177.35 42.95 177.35 51.4 M129.0 30.4 L143.0 30.4 143.0 65.25 133.3 65.25 133.3 45.55 128.05 65.15 119.0 65.15 113.8 45.8 113.8 65.25 104.2 65.25 104.2 30.4 118.1 30.4 123.65 49.4 129.0 30.4 M236.3 47.65 Q236.3 55.8 231.85 60.6 227.05 65.9 217.85 65.9 208.5 65.9 203.65 60.5 199.35 55.7 199.35 47.8 199.35 39.5 203.95 34.7 208.8 29.6 217.6 29.6 227.05 29.6 231.9 34.85 236.3 39.6 236.3 47.65 M223.55 40.95 Q221.8 38.55 217.75 38.55 210.6 38.55 210.6 47.75 210.6 52.35 212.6 54.7 214.45 56.9 217.75 56.9 225.1 56.9 225.1 47.6 225.1 43.15 223.55 40.95 M87.35 30.25 L101.2 65.25 89.6 65.25 87.55 59.35 76.4 59.35 74.45 65.25 63.05 65.25 76.7 30.25 87.35 30.25 M30.35 35.45 Q35.7 29.6 45.5 29.6 50.95 29.6 54.35 31.2 59.95 33.8 61.8 40.75 L51.75 42.25 Q49.9 38.4 45.1 38.4 37.2 38.4 37.2 47.25 37.2 52.25 39.15 54.55 41.05 56.85 45.2 56.85 49.3 56.85 51.9 54.85 L51.9 53.05 44.55 53.05 44.55 44.85 62.1 44.85 62.1 60.1 Q54.8 65.9 45.2 65.9 35.85 65.9 30.7 60.65 25.95 55.8 25.95 47.8 25.95 40.25 30.35 35.45" fill="none" stroke="#16171f" stroke-linecap="round" stroke-linejoin="round" stroke-width="4.0"/>
    <path d="M30.15 59.3 L30.1 59.25 Q26.45 54.75 26.45 47.8 26.45 40.45 30.75 35.8 35.95 30.1 45.5 30.1 50.8 30.1 54.15 31.65 56.35 32.7 58.0 34.45 L58.05 34.55 Q60.25 37.0 61.3 40.85 L51.75 42.25 Q49.9 38.4 45.1 38.4 37.2 38.4 37.2 47.25 37.2 52.25 39.15 54.55 41.05 56.85 45.2 56.85 49.3 56.85 51.9 54.85 L51.9 53.05 44.55 53.05 44.55 44.85 62.1 44.85 62.1 59.6 61.8 59.7 Q54.65 65.4 45.2 65.4 L41.85 65.2 41.8 65.2 38.35 64.55 Q33.95 63.25 31.05 60.3 L30.15 59.3" fill="url(#gradient0)" fill-rule="evenodd" stroke="none"/>
    <path d="M178.75 30.25 L178.75 38.75 160.55 38.75 160.55 42.95 177.35 42.95 177.35 51.4 160.55 51.4 160.55 56.55 179.3 56.55 179.3 65.25 149.8 65.25 149.8 30.25 178.75 30.25" fill="url(#gradient1)" fill-rule="evenodd" stroke="none"/>
    <path d="M255.95 53.05 L263.45 30.4 274.15 30.4 261.45 65.25 250.15 65.25 237.45 30.4 248.4 30.4 255.95 53.05" fill="url(#gradient2)" fill-rule="evenodd" stroke="none"/>
    <path d="M229.15 33.15 Q230.4 34.0 231.55 35.2 L233.6 38.0 Q235.8 41.95 235.8 47.65 235.8 55.6 231.5 60.25 L231.5 60.3 Q226.8 65.4 217.85 65.4 214.05 65.4 211.0 64.55 208.5 63.75 206.5 62.35 L204.05 60.15 204.05 60.2 203.35 59.35 Q199.85 54.8 199.85 47.8 199.85 39.7 204.3 35.05 209.05 30.1 217.6 30.1 222.85 30.1 226.6 31.75 L226.65 31.8 Q227.95 32.3 229.1 33.1 L229.15 33.15 M223.7 40.3 Q222.5 38.9 220.6 38.45 L217.75 38.05 Q210.1 38.0 210.1 47.75 L210.3 50.45 Q210.7 53.15 212.1 54.9 L212.15 54.95 212.25 55.05 Q214.25 57.4 217.7 57.4 225.35 57.45 225.6 48.25 L225.6 48.2 225.6 47.6 Q225.6 42.95 223.95 40.65 L223.75 40.35 223.7 40.3" fill="url(#gradient3)" fill-rule="evenodd" stroke="none"/>
    <path d="M104.2 65.25 L104.2 30.4 118.1 30.4 123.65 49.4 129.0 30.4 143.0 30.4 143.0 65.25 133.3 65.25 133.3 45.55 128.05 65.15 119.0 65.15 113.8 45.8 113.8 65.25 104.2 65.25" fill="url(#gradient4)" fill-rule="evenodd" stroke="none"/>
    <path d="M79.4 50.55 L84.65 50.55 82.1 43.25 79.4 50.55 M63.05 65.25 L76.7 30.25 87.35 30.25 101.2 65.25 89.6 65.25 87.55 59.35 76.4 59.35 74.45 65.25 63.05 65.25" fill="url(#gradient5)" fill-rule="evenodd" stroke="none"/>
    <path d="M305.25 42.95 L305.25 51.4 288.45 51.4 288.45 56.55 307.2 56.55 307.2 65.25 277.7 65.25 277.7 30.25 306.65 30.25 306.65 38.75 288.45 38.75 288.45 42.95 305.25 42.95" fill="url(#gradient6)" fill-rule="evenodd" stroke="none"/>
    <path d="M313.2 30.9 L330.25 30.9 336.1 31.15 Q339.1 31.6 341.05 33.3 L341.1 33.35 341.6 33.8 341.65 33.85 Q344.25 36.4 344.25 40.35 344.25 47.05 337.3 49.9 337.1 49.95 337.0 50.15 L337.0 50.55 337.25 50.8 337.65 50.85 337.95 50.7 Q340.5 52.75 342.55 56.35 L347.6 65.25 335.2 65.25 329.95 56.7 Q328.25 54.0 327.15 53.05 326.1 52.05 324.65 52.05 L323.75 52.05 323.75 65.1 313.2 65.1 313.2 30.9 M334.0 39.85 Q333.55 38.75 332.35 38.35 L332.3 38.35 328.45 38.05 323.8 38.05 323.45 38.2 323.3 38.55 323.3 43.95 323.45 44.3 323.8 44.45 328.45 44.45 332.3 44.15 Q334.25 43.5 334.25 41.3 L334.15 40.2 334.1 40.05 334.0 39.85" fill="url(#gradient7)" fill-rule="evenodd" stroke="none"/>
    <path d="M30.0 35.15 L29.95 35.15 30.0 35.1 30.0 35.15 M29.35 59.9 L29.4 59.95 29.35 59.9" fill="#a2a7b9" fill-rule="evenodd" stroke="none"/>
    <path d="M342.55 33.35 L342.45 33.4 342.35 33.15 342.55 33.35 M334.1 40.05 L333.95 39.9 334.0 39.85 334.1 40.05 M41.85 65.2 L45.2 65.4 Q54.65 65.4 61.8 59.7 L62.1 59.6 62.15 59.6 62.5 59.8 62.6 60.15 62.4 60.5 Q54.95 66.4 45.2 66.4 L41.75 66.2 42.1 66.1 42.25 65.75 42.15 65.4 41.85 65.2" fill="#21222c" fill-rule="evenodd" stroke="none"/>
    <path d="M61.3 40.85 Q60.25 37.0 58.05 34.55 L58.0 34.45 Q56.35 32.7 54.15 31.65 50.8 30.1 45.5 30.1 35.95 30.1 30.75 35.8 26.45 40.45 26.45 47.8 26.45 54.75 30.1 59.25 L30.15 59.3 30.25 59.65 30.1 60.0 29.7 60.1 29.4 59.95 29.35 59.9 Q25.45 55.1 25.45 47.8 25.45 40.05 29.95 35.15 L30.0 35.15 Q35.45 29.1 45.5 29.1 51.1 29.1 54.6 30.75 56.95 31.9 58.75 33.75 L58.8 33.85 Q61.15 36.5 62.3 40.65 L62.25 41.0 61.95 41.25 61.55 41.2 61.35 40.9 61.3 40.85" fill="url(#gradient8)" fill-rule="evenodd" stroke="none"/>
    <path d="M29.4 59.95 L29.7 60.1 30.1 60.0 30.25 59.65 30.15 59.3 31.05 60.3 Q33.95 63.25 38.35 64.55 L41.8 65.2 41.85 65.2 42.15 65.4 42.25 65.75 42.1 66.1 41.75 66.2 41.7 66.2 38.05 65.5 Q33.45 64.15 30.35 61.0 L29.4 59.95" fill="url(#gradient9)" fill-rule="evenodd" stroke="none"/>
    <path d="M229.15 33.15 L229.1 33.1 Q227.95 32.3 226.65 31.8 L226.6 31.75 Q222.85 30.1 217.6 30.1 209.05 30.1 204.3 35.05 199.85 39.7 199.85 47.8 199.85 54.8 203.35 59.35 L204.05 60.2 204.05 60.15 206.5 62.35 Q208.5 63.75 211.0 64.55 214.05 65.4 217.85 65.4 226.8 65.4 231.5 60.3 L231.5 60.25 Q235.8 55.6 235.8 47.65 235.8 41.95 233.6 38.0 L231.55 35.2 Q230.4 34.0 229.15 33.15 M232.25 60.95 Q227.3 66.4 217.85 66.4 L210.7 65.5 Q208.0 64.65 205.9 63.15 204.45 62.15 203.3 60.85 L202.55 59.95 Q198.85 55.2 198.85 47.8 198.85 39.3 203.6 34.35 208.55 29.1 217.6 29.1 223.05 29.1 227.0 30.85 228.45 31.4 229.7 32.3 231.1 33.2 232.3 34.5 L234.45 37.5 Q236.8 41.65 236.8 47.65 236.8 56.0 232.25 60.95" fill="url(#gradient10)" fill-rule="evenodd" stroke="none"/>
    <path d="M220.35 39.4 L220.3 39.4 217.75 39.05 Q211.1 39.1 211.1 47.75 L211.3 50.3 Q211.7 52.75 212.9 54.3 L212.95 54.35 213.0 54.4 Q214.7 56.4 217.7 56.4 224.35 56.35 224.6 48.2 L224.6 47.6 Q224.6 43.35 223.15 41.25 L222.9 40.9 Q221.9 39.8 220.35 39.4 M223.7 40.3 L223.75 40.35 223.95 40.65 Q225.6 42.95 225.6 47.6 L225.6 48.2 225.6 48.25 Q225.35 57.45 217.7 57.4 214.25 57.4 212.25 55.05 L212.15 54.95 212.1 54.9 Q210.7 53.15 210.3 50.45 L210.1 47.75 Q210.1 38.0 217.75 38.05 L220.6 38.45 Q222.5 38.9 223.7 40.3" fill="url(#gradient11)" fill-rule="evenodd" stroke="none"/>
    <path d="M313.2 30.9 Q313.0 30.9 312.85 30.75 L312.7 30.4 312.85 30.05 Q313.0 29.9 313.2 29.9 L330.25 29.9 336.25 30.15 Q339.6 30.7 341.75 32.6 L342.25 33.05 342.3 33.1 342.35 33.15 342.45 33.4 342.55 33.35 Q345.25 36.1 345.25 40.35 345.25 47.6 337.95 50.7 L337.65 50.85 337.25 50.8 337.0 50.55 337.0 50.15 Q337.1 49.95 337.3 49.9 344.25 47.05 344.25 40.35 344.25 36.4 341.65 33.85 L341.6 33.8 341.1 33.35 341.05 33.3 Q339.1 31.6 336.1 31.15 L330.25 30.9 313.2 30.9" fill="url(#gradient12)" fill-rule="evenodd" stroke="none"/>
    <path d="M334.1 40.05 L334.15 40.2 334.25 41.3 Q334.25 43.5 332.3 44.15 L328.45 44.45 323.8 44.45 323.45 44.3 323.3 43.95 323.3 38.55 323.45 38.2 323.8 38.05 328.45 38.05 332.3 38.35 332.35 38.35 Q333.55 38.75 334.0 39.85 L333.95 39.9 334.1 40.05 M332.0 39.3 L328.45 39.05 324.3 39.05 324.3 43.45 328.45 43.45 332.0 43.2 Q333.25 42.8 333.25 41.3 L333.15 40.4 Q332.85 39.55 332.0 39.3" fill="url(#gradient13)" fill-rule="evenodd" stroke="none"/>
    <path d="M288.45 56.55 L307.2 56.55 M277.7 65.25 L277.7 30.25 306.65 30.25 M288.45 42.95 L305.25 42.95 M255.95 53.05 L263.45 30.4 274.15 30.4 M250.15 65.25 L237.45 30.4 248.4 30.4 M335.2 65.25 L329.95 56.7 Q328.25 54.0 327.15 53.05 326.1 52.05 324.65 52.05 L323.75 52.05 M313.2 65.1 L313.2 30.9 M160.55 42.95 L177.35 42.95 M160.55 56.55 L179.3 56.55 M149.8 65.25 L149.8 30.25 178.75 30.25 M104.2 65.25 L104.2 30.4 118.1 30.4 M123.65 49.4 L129.0 30.4 143.0 30.4 M133.3 65.25 L133.3 45.55 M119.0 65.15 L113.8 45.8 M62.1 44.85 L44.55 44.85 44.55 53.05 M51.9 53.05 L51.9 54.85 M79.4 50.55 L84.65 50.55 82.1 43.25 M63.05 65.25 L76.7 30.25 87.35 30.25 M89.6 65.25 L87.55 59.35" fill="none" stroke="#a2a7b9" stroke-linecap="round" stroke-linejoin="round" stroke-width="1.0"/>
    <path d="M305.25 42.95 L305.25 51.4 288.45 51.4 288.45 56.55 M307.2 56.55 L307.2 65.25 277.7 65.25 M306.65 30.25 L306.65 38.75 288.45 38.75 288.45 42.95 M274.15 30.4 L261.45 65.25 250.15 65.25 M248.4 30.4 L255.95 53.05 M323.75 52.05 L323.75 65.1 313.2 65.1 M337.95 50.7 Q340.5 52.75 342.55 56.35 L347.6 65.25 335.2 65.25 M178.75 30.25 L178.75 38.75 160.55 38.75 160.55 42.95 M177.35 42.95 L177.35 51.4 160.55 51.4 160.55 56.55 M179.3 56.55 L179.3 65.25 149.8 65.25 M118.1 30.4 L123.65 49.4 M143.0 30.4 L143.0 65.25 133.3 65.25 M133.3 45.55 L128.05 65.15 119.0 65.15 M113.8 45.8 L113.8 65.25 104.2 65.25 M62.1 59.6 L62.1 44.85 M44.55 53.05 L51.9 53.05 M51.9 54.85 Q49.3 56.85 45.2 56.85 41.05 56.85 39.15 54.55 37.2 52.25 37.2 47.25 37.2 38.4 45.1 38.4 49.9 38.4 51.75 42.25 L61.3 40.85 M82.1 43.25 L79.4 50.55 M87.35 30.25 L101.2 65.25 89.6 65.25 M87.55 59.35 L76.4 59.35 74.45 65.25 63.05 65.25" fill="none" stroke="#21222c" stroke-linecap="round" stroke-linejoin="round" stroke-width="1.0"/>
    <path d="M120.85 103.25 L120.85 101.55 119.65 101.55 119.65 103.25 120.85 103.25 M122.75 101.55 L122.75 103.25 123.95 103.25 123.95 101.55 122.75 101.55 M145.4 105.75 L146.1 104.75 146.5 104.0 144.0 104.0 143.85 104.35 143.4 105.25 144.3 105.45 145.4 105.75 M154.15 95.7 L154.65 98.35 155.2 100.2 155.6 101.3 156.35 98.15 156.55 95.7 154.15 95.7 M146.4 99.95 L145.5 99.95 145.25 100.75 145.1 101.25 150.6 101.25 150.6 104.0 149.5 104.0 149.05 105.15 148.15 106.7 148.75 106.95 149.9 107.45 151.55 106.55 153.6 104.8 152.85 103.05 152.0 99.7 151.5 100.35 151.05 100.85 148.95 98.5 148.3 99.4 147.75 99.0 147.15 98.4 146.4 97.45 146.4 99.95 M143.2 92.7 L143.2 89.15 146.4 89.15 146.4 92.7 149.15 92.7 146.65 91.95 147.25 91.0 148.05 89.05 150.7 89.75 150.15 91.15 149.25 92.7 150.4 92.7 150.4 95.35 147.45 95.35 148.25 96.1 149.55 97.0 150.55 95.3 151.6 92.6 152.35 89.0 155.7 89.35 155.5 90.6 155.2 92.25 160.5 92.25 160.5 95.7 159.75 95.7 159.65 97.25 159.35 99.55 158.7 102.2 157.65 104.75 159.5 106.6 160.95 107.65 159.0 111.0 157.45 109.8 155.45 107.75 152.95 109.85 151.15 110.95 149.55 108.6 148.4 110.55 147.8 110.1 147.0 109.6 145.8 109.0 143.3 110.25 139.95 111.15 138.75 108.3 140.95 107.95 142.4 107.5 140.8 106.9 139.85 106.6 139.3 106.5 139.7 105.85 140.1 105.15 140.65 104.0 138.75 104.0 138.75 101.25 141.75 101.25 142.1 100.3 142.3 99.55 143.2 99.65 143.2 97.15 141.25 99.15 139.8 100.15 138.25 97.7 139.65 97.0 141.75 95.35 138.75 95.35 138.75 92.7 140.1 92.7 139.45 91.0 139.0 90.0 141.4 89.15 141.95 90.2 142.3 91.05 142.65 91.95 140.65 92.7 143.2 92.7 M128.05 97.55 L126.45 95.4 126.45 102.25 127.0 100.9 127.4 99.35 127.65 97.5 128.05 97.55 M131.65 93.65 L131.3 94.4 132.95 94.4 Q133.5 94.45 133.7 94.05 L133.9 92.75 132.0 92.75 131.65 93.65 M123.95 97.3 L122.75 97.3 122.75 99.05 123.95 99.05 123.95 97.3 M120.85 97.3 L119.65 97.3 119.65 99.05 120.85 99.05 120.85 97.3 M121.75 89.95 L121.55 90.4 125.6 90.4 125.6 93.15 125.35 93.65 125.05 94.05 124.6 94.6 126.45 94.6 126.45 95.25 127.7 94.3 128.75 92.75 126.65 92.75 126.65 89.9 137.1 89.9 137.05 91.2 136.95 92.9 136.8 94.55 136.55 95.75 135.9 96.6 135.15 96.95 134.65 97.0 131.75 97.0 131.15 94.65 130.25 96.0 129.3 96.9 128.3 97.55 130.2 97.85 130.1 98.6 130.0 99.35 131.15 99.35 131.15 97.55 134.3 97.55 134.3 99.35 137.0 99.35 137.0 102.3 134.3 102.3 134.3 104.0 137.45 104.0 137.45 107.2 134.3 107.2 134.3 111.0 131.2 111.0 131.2 107.2 126.9 107.2 126.9 104.0 131.15 104.0 131.15 102.3 129.35 102.3 129.05 103.2 128.75 103.85 126.45 102.35 126.45 108.95 126.3 109.75 125.7 110.6 124.4 111.0 121.65 111.0 121.05 107.85 123.25 107.85 123.75 107.75 123.95 107.25 123.95 105.75 119.4 105.75 119.2 107.4 118.65 109.3 117.8 111.15 115.25 108.9 116.2 106.85 116.7 104.55 116.85 102.25 116.85 96.75 116.6 97.0 116.15 97.35 115.25 93.85 116.1 93.05 117.3 91.6 118.55 89.2 121.95 89.45 121.75 89.95 M122.0 93.15 L120.05 93.15 119.65 93.75 118.95 94.6 120.95 94.6 121.5 93.95 122.0 93.15 M113.9 89.85 L113.9 93.15 105.8 93.15 105.8 97.9 112.8 97.9 112.8 101.15 105.8 101.15 105.8 107.05 114.45 107.05 114.45 110.3 92.75 110.3 92.75 107.05 95.4 107.05 95.4 95.5 98.9 95.5 98.9 107.05 102.25 107.05 102.25 93.15 93.45 93.15 93.45 89.85 113.9 89.85" fill="#d1d2ed" fill-rule="evenodd" stroke="none"/>
    <path d="M111.8 133.05 L111.8 124.9 125.05 124.9 125.05 133.05 111.8 133.05 M115.1 130.95 L121.8 130.95 121.8 129.95 115.1 129.95 115.1 130.95 M129.6 139.35 L132.7 140.55 132.0 142.75 131.1 144.6 129.9 146.45 126.95 144.25 128.6 142.0 Q129.3 140.75 129.6 139.35 M113.15 140.2 L110.45 140.2 110.45 137.3 120.35 137.3 120.35 136.45 111.1 136.45 111.1 133.85 125.8 133.85 125.8 136.45 123.75 136.45 123.75 137.3 126.35 137.3 126.35 140.2 123.75 140.2 123.75 143.95 123.65 145.05 123.0 145.8 121.45 146.05 117.8 146.05 117.25 143.0 119.75 143.0 120.25 142.85 120.35 142.25 120.35 140.2 114.65 140.2 115.85 141.35 117.05 142.8 114.35 144.9 113.45 143.6 112.4 142.35 111.55 141.45 113.15 140.2 M110.9 132.3 L109.55 134.45 109.55 146.05 106.15 146.05 106.15 138.35 105.65 138.8 105.1 139.1 104.2 134.85 106.1 133.15 107.65 131.2 108.65 129.5 111.65 130.85 110.9 132.3 M110.9 125.15 L109.55 127.4 107.65 129.7 105.45 131.55 104.1 128.1 106.05 126.5 107.7 124.1 110.9 125.15 M115.1 127.2 L115.1 128.2 121.8 128.2 121.8 127.2 115.1 127.2 M133.65 140.3 L137.0 140.3 137.1 141.75 137.15 143.3 137.2 144.75 137.15 145.4 137.15 145.95 133.45 146.0 133.7 144.45 133.75 143.1 133.8 142.25 133.75 141.1 133.65 140.3 M138.5 140.4 L141.8 140.05 142.4 141.7 142.95 143.75 143.35 145.55 139.65 146.0 139.15 142.7 138.5 140.4 M143.85 135.95 L143.85 133.65 133.05 133.65 133.05 135.95 143.85 135.95 M146.85 139.3 L147.8 140.8 148.7 142.45 149.65 144.55 146.35 146.3 145.8 144.8 144.95 142.8 143.85 140.75 146.85 139.3 M139.85 124.2 L139.85 125.7 149.35 125.7 149.35 129.1 139.85 129.1 139.85 130.35 147.5 130.35 147.5 139.25 129.35 139.25 129.35 130.35 136.15 130.35 136.15 124.2 139.85 124.2" fill="#d1d2ed" fill-rule="evenodd" stroke="none"/>
  </g>
  <defs>
    <radialGradient cx="0" cy="0" gradientTransform="matrix(0.0085, 0.0237, -0.025, 0.009, 43.0, 48.55)" gradientUnits="userSpaceOnUse" id="gradient0" r="819.2" spreadMethod="pad">
      <stop offset="0.0" stop-color="#4b4f65"/>
      <stop offset="1.0" stop-color="#2d2e3e"/>
    </radialGradient>
    <radialGradient cx="0" cy="0" gradientTransform="matrix(0.0255, 0.0, 0.0, 0.0255, 164.0, 47.55)" gradientUnits="userSpaceOnUse" id="gradient1" r="819.2" spreadMethod="pad">
      <stop offset="0.0" stop-color="#4b4f65"/>
      <stop offset="1.0" stop-color="#2d2e3e"/>
    </radialGradient>
    <radialGradient cx="0" cy="0" gradientTransform="matrix(0.0326, 0.0, 0.0, 0.0326, 255.45, 51.05)" gradientUnits="userSpaceOnUse" id="gradient2" r="819.2" spreadMethod="pad">
      <stop offset="0.0" stop-color="#4b4f65"/>
      <stop offset="1.0" stop-color="#2d2e3e"/>
    </radialGradient>
    <radialGradient cx="0" cy="0" gradientTransform="matrix(0.0307, 0.0, 0.0, 0.0307, 217.45, 53.55)" gradientUnits="userSpaceOnUse" id="gradient3" r="819.2" spreadMethod="pad">
      <stop offset="0.0" stop-color="#4b4f65"/>
      <stop offset="1.0" stop-color="#2d2e3e"/>
    </radialGradient>
    <radialGradient cx="0" cy="0" gradientTransform="matrix(0.038, 0.0, 0.0, 0.038, 124.0, 49.55)" gradientUnits="userSpaceOnUse" id="gradient4" r="819.2" spreadMethod="pad">
      <stop offset="0.0" stop-color="#4b4f65"/>
      <stop offset="1.0" stop-color="#2d2e3e"/>
    </radialGradient>
    <radialGradient cx="0" cy="0" gradientTransform="matrix(0.0285, 0.0, 0.0, 0.0285, 82.5, 48.55)" gradientUnits="userSpaceOnUse" id="gradient5" r="819.2" spreadMethod="pad">
      <stop offset="0.0" stop-color="#4b4f65"/>
      <stop offset="1.0" stop-color="#2d2e3e"/>
    </radialGradient>
    <radialGradient cx="0" cy="0" gradientTransform="matrix(0.0347, 0.0, 0.0, 0.0347, 287.45, 47.55)" gradientUnits="userSpaceOnUse" id="gradient6" r="819.2" spreadMethod="pad">
      <stop offset="0.0" stop-color="#4b4f65"/>
      <stop offset="1.0" stop-color="#2d2e3e"/>
    </radialGradient>
    <radialGradient cx="0" cy="0" gradientTransform="matrix(0.0295, 0.0, 0.0, 0.0295, 326.45, 47.05)" gradientUnits="userSpaceOnUse" id="gradient7" r="819.2" spreadMethod="pad">
      <stop offset="0.0" stop-color="#4b4f65"/>
      <stop offset="1.0" stop-color="#2d2e3e"/>
    </radialGradient>
    <linearGradient gradientTransform="matrix(0.0026, 0.0, 0.0, 0.0045, 60.15, 37.55)" gradientUnits="userSpaceOnUse" id="gradient8" spreadMethod="pad" x1="-819.2" x2="819.2">
      <stop offset="0.0" stop-color="#a2a7b9"/>
      <stop offset="1.0" stop-color="#21222c"/>
    </linearGradient>
    <linearGradient gradientTransform="matrix(0.0078, 0.0, 0.0, 0.0042, 35.8, 62.75)" gradientUnits="userSpaceOnUse" id="gradient9" spreadMethod="pad" x1="-819.2" x2="819.2">
      <stop offset="0.0" stop-color="#a2a7b9"/>
      <stop offset="1.0" stop-color="#21222c"/>
    </linearGradient>
    <linearGradient gradientTransform="matrix(0.0063, 0.0063, -0.016, 0.0161, 217.75, 47.75)" gradientUnits="userSpaceOnUse" id="gradient10" spreadMethod="pad" x1="-819.2" x2="819.2">
      <stop offset="0.0" stop-color="#a2a7b9"/>
      <stop offset="1.0" stop-color="#21222c"/>
    </linearGradient>
    <linearGradient gradientTransform="matrix(-0.0027, -0.0021, 0.0141, -0.0179, 217.8, 47.7)" gradientUnits="userSpaceOnUse" id="gradient11" spreadMethod="pad" x1="-819.2" x2="819.2">
      <stop offset="0.0" stop-color="#a2a7b9"/>
      <stop offset="1.0" stop-color="#21222c"/>
    </linearGradient>
    <linearGradient gradientTransform="matrix(0.0029, 0.0029, -0.009, 0.009, 332.45, 40.3)" gradientUnits="userSpaceOnUse" id="gradient12" spreadMethod="pad" x1="-819.2" x2="819.2">
      <stop offset="0.0" stop-color="#a2a7b9"/>
      <stop offset="1.0" stop-color="#21222c"/>
    </linearGradient>
    <linearGradient gradientTransform="matrix(-5.0E-4, -8.0E-4, 0.0025, -0.0014, 327.95, 41.55)" gradientUnits="userSpaceOnUse" id="gradient13" spreadMethod="pad" x1="-819.2" x2="819.2">
      <stop offset="0.0" stop-color="#a2a7b9"/>
      <stop offset="1.0" stop-color="#21222c"/>
    </linearGradient>
  </defs>
</svg>
