<?xml version="1.0" encoding="UTF-8" standalone="no"?>
<svg xmlns:xlink="http://www.w3.org/1999/xlink" height="376.0px" width="501.5px" xmlns="http://www.w3.org/2000/svg">
  <g transform="matrix(1.0, 0.0, 0.0, 1.0, 250.75, 300.25)">
    <path d="M250.0 -75.75 L250.0 75.75 -250.0 75.75 -250.0 -75.75 250.0 -75.75" fill="url(#gradient0)" fill-rule="evenodd" stroke="none"/>
    <path d="M39.2 -1.15 L114.15 -1.15 183.95 -1.15 250.0 -1.15 M-39.2 -1.15 L39.2 -1.15 47.5 17.85 138.3 17.85 114.15 -1.15 M-114.15 -1.15 L-39.2 -1.15 -47.45 17.85 47.5 17.85 72.35 74.85 M250.0 31.15 L222.85 17.85 138.3 17.85 210.75 74.85 M183.95 -1.15 L222.85 17.85 250.0 17.85 M-250.0 17.85 L-222.8 17.85 -183.9 -1.15 -250.0 -1.15 M-183.9 -1.15 L-114.15 -1.15 -138.3 17.85 -47.45 17.85 -72.35 74.85 M-210.75 74.85 L-138.3 17.85 -222.8 17.85 -250.0 31.15" fill="none" stroke="#3b413f" stroke-linecap="round" stroke-linejoin="round" stroke-width="1.5"/>
    <path d="M24.55 -34.65 L71.6 -34.65 63.35 -41.15 M114.15 -1.15 L96.7 -14.9 33.2 -14.9 39.2 -1.15 M183.95 -1.15 L155.8 -14.9 96.7 -14.9 82.1 -26.4 28.15 -26.4 33.2 -14.9 -33.2 -14.9 -39.2 -1.15 M24.55 -34.65 L28.15 -26.4 -28.15 -26.4 -33.2 -14.9 -96.7 -14.9 -114.15 -1.15 M102.05 -41.15 L115.35 -34.65 159.35 -34.65 140.95 -41.15 M155.8 -14.9 L132.25 -26.4 82.1 -26.4 71.6 -34.65 115.35 -34.65 132.25 -26.4 182.65 -26.4 159.35 -34.65 198.7 -34.65 175.75 -41.15 M155.8 -14.9 L215.15 -14.9 182.65 -26.4 227.8 -26.4 198.7 -34.65 250.0 -34.65 M250.0 -2.55 L215.15 -14.9 250.0 -14.9 M250.0 -20.1 L227.8 -26.4 250.0 -26.4 M-175.8 -41.15 L-198.7 -34.65 -159.3 -34.65 -140.95 -41.15 M-250.0 -26.4 L-227.8 -26.4 -198.7 -34.65 -250.0 -34.65 M-250.0 -14.9 L-215.15 -14.9 -182.65 -26.4 -227.8 -26.4 -250.0 -20.1 M-183.9 -1.15 Q-169.85 -8.0 -155.75 -14.9 L-215.15 -14.9 -250.0 -2.55 M-155.75 -14.9 L-96.7 -14.9 -82.1 -26.4 -132.2 -26.4 -155.75 -14.9 M-159.3 -34.65 L-115.3 -34.65 -102.0 -41.15 M-82.1 -26.4 L-71.6 -34.65 -115.3 -34.65 -132.2 -26.4 -182.65 -26.4 -159.3 -34.65 M-63.35 -41.15 L-71.6 -34.65 -24.55 -34.65 -21.75 -41.15 M24.55 -34.65 L-24.55 -34.65 -28.15 -26.4 -82.1 -26.4" fill="none" stroke="#3b413f" stroke-linecap="round" stroke-linejoin="round" stroke-width="1.0"/>
    <path d="M50.65 -51.15 L81.6 -51.15 73.9 -54.9 45.9 -54.9 50.65 -51.15 56.4 -46.65 90.8 -46.65 81.6 -51.15 112.7 -51.15 102.1 -54.9 73.9 -54.9 M45.9 -54.9 L15.75 -54.9 17.4 -51.15 50.65 -51.15 M21.75 -41.15 L63.35 -41.15 56.4 -46.65 19.35 -46.65 21.75 -41.15 24.55 -34.65 M63.35 -41.15 L102.05 -41.15 90.8 -46.65 125.4 -46.65 112.7 -51.15 140.5 -51.15 127.25 -54.9 102.1 -54.9 M17.4 -51.15 L19.35 -46.65 -19.35 -46.65 -21.75 -41.15 21.75 -41.15 M140.95 -41.15 L102.05 -41.15 M125.4 -46.65 L140.95 -41.15 175.75 -41.15 156.35 -46.65 125.4 -46.65 M175.75 -41.15 L250.0 -41.15 M156.35 -46.65 L140.5 -51.15 250.0 -51.15 M156.35 -46.65 L250.0 -46.65 M127.25 -54.9 L250.0 -54.9 M-140.95 -41.15 L-175.8 -41.15 -156.4 -46.65 -250.0 -46.65 M-250.0 -41.15 L-175.8 -41.15 M-81.55 -51.15 L-73.9 -54.9 -102.05 -54.9 -112.65 -51.15 -81.55 -51.15 -50.65 -51.15 -45.85 -54.9 -73.9 -54.9 M-102.05 -54.9 L-127.3 -54.9 -140.5 -51.15 -112.65 -51.15 -125.4 -46.65 -90.75 -46.65 -81.55 -51.15 M-125.4 -46.65 L-140.95 -41.15 -102.0 -41.15 -90.75 -46.65 -56.35 -46.65 -50.65 -51.15 -17.4 -51.15 -15.75 -54.9 -45.85 -54.9 M-140.5 -51.15 L-156.4 -46.65 -125.4 -46.65 M-102.0 -41.15 L-63.35 -41.15 -56.35 -46.65 -19.35 -46.65 -17.4 -51.15 17.4 -51.15 M-21.75 -41.15 L-63.35 -41.15 M-250.0 -51.15 L-140.5 -51.15 M-250.0 -54.9 L-127.3 -54.9 M15.75 -54.9 L-15.75 -54.9" fill="none" stroke="#3b413f" stroke-linecap="round" stroke-linejoin="round" stroke-width="0.5"/>
    <path d="M250.75 -39.8 L-249.35 -39.8 -249.35 -75.8 250.75 -75.8 250.75 -39.8" fill="url(#gradient1)" fill-rule="evenodd" stroke="none"/>
    <path d="M250.0 -172.3 L250.0 -165.8 85.0 -165.8 85.0 -172.3 250.0 -172.3 M-250.0 -165.8 L-250.0 -172.3 -85.0 -172.3 -85.0 -165.8 -250.0 -165.8 M60.0 -172.3 L60.0 -165.8 -60.0 -165.8 -60.0 -172.3 60.0 -172.3" fill="url(#gradient2)" fill-rule="evenodd" stroke="none"/>
    <path d="M250.0 -147.8 L250.0 -100.3 85.0 -100.3 85.0 -147.8 250.0 -147.8 M-250.0 -100.3 L-250.0 -147.8 -85.0 -147.8 -85.0 -100.3 -250.0 -100.3 M60.0 -147.8 L60.0 -100.3 -60.0 -100.3 -60.0 -147.8 60.0 -147.8" fill="url(#gradient3)" fill-rule="evenodd" stroke="none"/>
    <path d="M250.0 -165.8 L250.0 -147.8 85.0 -147.8 83.0 -147.8 83.0 -165.8 85.0 -165.8 250.0 -165.8 M-250.0 -147.8 L-250.0 -165.8 -85.0 -165.8 -83.0 -165.8 -83.0 -147.8 -85.0 -147.8 -250.0 -147.8 M60.0 -165.8 L62.0 -165.8 62.0 -147.8 60.0 -147.8 -60.0 -147.8 -62.0 -147.8 -62.0 -165.8 -60.0 -165.8 60.0 -165.8" fill="url(#gradient4)" fill-rule="evenodd" stroke="none"/>
    <path d="M250.0 -100.3 L250.0 -82.3 90.0 -82.3 83.0 -82.3 83.0 -100.3 85.0 -100.3 250.0 -100.3 M-250.0 -82.3 L-250.0 -100.3 -85.0 -100.3 -83.0 -100.3 -83.0 -82.3 -90.0 -82.3 -250.0 -82.3 M60.0 -100.3 L62.0 -100.3 62.0 -82.3 55.0 -82.3 -55.0 -82.3 -62.0 -82.3 -62.0 -100.3 -60.0 -100.3 60.0 -100.3" fill="url(#gradient5)" fill-rule="evenodd" stroke="none"/>
    <path d="M-81.5 -300.0 L-63.5 -300.0 -63.5 -172.3 -60.0 -172.3 -60.0 -165.8 -62.0 -165.8 -62.0 -147.8 -60.0 -147.8 -60.0 -100.3 -62.0 -100.3 -62.0 -82.3 -83.0 -82.3 -83.0 -100.3 -85.0 -100.3 -85.0 -147.8 -83.0 -147.8 -83.0 -165.8 -85.0 -165.8 -85.0 -172.3 -81.5 -172.3 -81.5 -300.0" fill="url(#gradient6)" fill-rule="evenodd" stroke="none"/>
    <path d="M63.5 -300.0 L81.5 -300.0 81.5 -172.3 85.0 -172.3 85.0 -165.8 83.0 -165.8 83.0 -147.8 85.0 -147.8 85.0 -100.3 83.0 -100.3 83.0 -82.3 62.0 -82.3 62.0 -100.3 60.0 -100.3 60.0 -147.8 62.0 -147.8 62.0 -165.8 60.0 -165.8 60.0 -172.3 63.5 -172.3 63.5 -300.0" fill="url(#gradient7)" fill-rule="evenodd" stroke="none"/>
    <path d="M-55.0 -75.8 Q-73.0 -73.35 -90.0 -75.8 L-90.0 -82.3 -83.0 -82.3 -62.0 -82.3 -55.0 -82.3 -55.0 -75.8" fill="url(#gradient8)" fill-rule="evenodd" stroke="none"/>
    <path d="M90.0 -75.8 Q72.5 -73.4 55.0 -75.8 L55.0 -82.3 62.0 -82.3 83.0 -82.3 90.0 -82.3 90.0 -75.8" fill="url(#gradient9)" fill-rule="evenodd" stroke="none"/>
    <path d="M250.0 -82.3 L250.0 -75.8 90.0 -75.8 90.0 -82.3 250.0 -82.3 M55.0 -75.8 L-55.0 -75.8 -55.0 -82.3 55.0 -82.3 55.0 -75.8 M-90.0 -75.8 L-250.0 -75.8 -250.0 -82.3 -90.0 -82.3 -90.0 -75.8" fill="url(#gradient10)" fill-rule="evenodd" stroke="none"/>
    <path d="M81.5 -300.0 L250.0 -300.0 250.0 -172.3 85.0 -172.3 81.5 -172.3 81.5 -300.0 M-250.0 -172.3 L-250.0 -300.0 -81.5 -300.0 -81.5 -172.3 -85.0 -172.3 -250.0 -172.3 M-63.5 -300.0 L63.5 -300.0 63.5 -172.3 60.0 -172.3 -60.0 -172.3 -63.5 -172.3 -63.5 -300.0" fill="url(#gradient11)" fill-rule="evenodd" stroke="none"/>
    <path d="M250.0 -75.8 L90.0 -75.8 Q72.5 -73.4 55.0 -75.8 L-55.0 -75.8 Q-73.0 -73.35 -90.0 -75.8 L-250.0 -75.8 M63.5 -300.0 L63.5 -172.3 M60.0 -172.3 L60.0 -165.8 M60.0 -147.8 L60.0 -100.3 M62.0 -82.3 L83.0 -82.3 M85.0 -100.3 L85.0 -147.8 M85.0 -165.8 L85.0 -172.3 M81.5 -172.3 L81.5 -300.0 M62.0 -82.3 L55.0 -82.3 55.0 -75.8 M90.0 -75.8 L90.0 -82.3 83.0 -82.3 M250.0 -82.3 L90.0 -82.3 M-63.5 -172.3 L-63.5 -300.0 M-60.0 -165.8 L-60.0 -172.3 M-60.0 -100.3 L-60.0 -147.8 M-85.0 -147.8 L-85.0 -100.3 M-83.0 -82.3 L-62.0 -82.3 -55.0 -82.3 55.0 -82.3 M-85.0 -172.3 L-85.0 -165.8 M-83.0 -82.3 L-90.0 -82.3 -90.0 -75.8 M-55.0 -75.8 L-55.0 -82.3 M-90.0 -82.3 L-250.0 -82.3 M-81.5 -300.0 L-81.5 -172.3" fill="none" stroke="#3b413f" stroke-linecap="round" stroke-linejoin="round" stroke-width="0.5"/>
    <path d="M60.0 -165.8 L62.0 -165.8 62.0 -147.8 60.0 -147.8 M60.0 -100.3 L62.0 -100.3 62.0 -82.3 M83.0 -82.3 L83.0 -100.3 85.0 -100.3 250.0 -100.3 M85.0 -147.8 L83.0 -147.8 83.0 -165.8 85.0 -165.8 250.0 -165.8 M250.0 -147.8 L85.0 -147.8 M-60.0 -147.8 L-62.0 -147.8 -62.0 -165.8 -60.0 -165.8 60.0 -165.8 M-60.0 -147.8 L60.0 -147.8 M-62.0 -82.3 L-62.0 -100.3 -60.0 -100.3 60.0 -100.3 M-85.0 -165.8 L-83.0 -165.8 -83.0 -147.8 -85.0 -147.8 -250.0 -147.8 M-85.0 -100.3 L-83.0 -100.3 -83.0 -82.3 M-85.0 -165.8 L-250.0 -165.8 M-250.0 -100.3 L-85.0 -100.3" fill="none" stroke="#666c71" stroke-linecap="round" stroke-linejoin="round" stroke-width="0.5"/>
    <path d="M63.5 -172.3 L60.0 -172.3 M85.0 -172.3 L81.5 -172.3 M85.0 -172.3 L250.0 -172.3 M-60.0 -172.3 L-63.5 -172.3 M-60.0 -172.3 L60.0 -172.3 M-81.5 -172.3 L-85.0 -172.3 -250.0 -172.3" fill="none" stroke="#676b6b" stroke-linecap="round" stroke-linejoin="round" stroke-width="0.5"/>
  </g>
  <defs>
    <radialGradient cx="0" cy="0" gradientTransform="matrix(0.0, 0.0843, -0.3461, 0.0, 1.5, 33.5)" gradientUnits="userSpaceOnUse" id="gradient0" r="819.2" spreadMethod="pad">
      <stop offset="0.0" stop-color="#515554"/>
      <stop offset="1.0" stop-color="#424746"/>
    </radialGradient>
    <linearGradient gradientTransform="matrix(0.0, 0.0136, -0.022, 0.0, 0.0, -54.9)" gradientUnits="userSpaceOnUse" id="gradient1" spreadMethod="pad" x1="-819.2" x2="819.2">
      <stop offset="0.0" stop-color="#424746"/>
      <stop offset="1.0" stop-color="#424746" stop-opacity="0.0"/>
    </linearGradient>
    <linearGradient gradientTransform="matrix(0.0, 0.137, -0.2289, 0.0, 7.05, -188.05)" gradientUnits="userSpaceOnUse" id="gradient2" spreadMethod="pad" x1="-819.2" x2="819.2">
      <stop offset="0.0" stop-color="#787d80"/>
      <stop offset="1.0" stop-color="#8f9496"/>
    </linearGradient>
    <linearGradient gradientTransform="matrix(0.0, -0.039, 1.0, 0.0, 127.55, -133.0)" gradientUnits="userSpaceOnUse" id="gradient3" spreadMethod="pad" x1="-819.2" x2="819.2">
      <stop offset="0.0" stop-color="#7d8282"/>
      <stop offset="1.0" stop-color="#6c7272"/>
    </linearGradient>
    <linearGradient gradientTransform="matrix(0.0, 0.0104, -1.0, 0.0, -156.3, -157.05)" gradientUnits="userSpaceOnUse" id="gradient4" spreadMethod="pad" x1="-819.2" x2="819.2">
      <stop offset="0.0" stop-color="#7e858f"/>
      <stop offset="0.1607843137254902" stop-color="#8d959b"/>
      <stop offset="0.8666666666666667" stop-color="#8f989d"/>
      <stop offset="1.0" stop-color="#7e858f"/>
    </linearGradient>
    <linearGradient gradientTransform="matrix(0.0, 0.0104, -0.2289, 0.0, 10.55, -91.55)" gradientUnits="userSpaceOnUse" id="gradient5" spreadMethod="pad" x1="-819.2" x2="819.2">
      <stop offset="0.0" stop-color="#7e858f"/>
      <stop offset="0.1607843137254902" stop-color="#8d959b"/>
      <stop offset="0.8666666666666667" stop-color="#8f989d"/>
      <stop offset="1.0" stop-color="#7e858f"/>
    </linearGradient>
    <linearGradient gradientTransform="matrix(0.0175, 0.0, 0.0, 0.2288, -72.35, -267.55)" gradientUnits="userSpaceOnUse" id="gradient6" spreadMethod="pad" x1="-819.2" x2="819.2">
      <stop offset="0.0" stop-color="#33383c"/>
      <stop offset="0.5098039215686274" stop-color="#696e74"/>
      <stop offset="1.0" stop-color="#33383c"/>
    </linearGradient>
    <linearGradient gradientTransform="matrix(0.0172, 0.0, 0.0, 0.2289, 72.5, -122.6)" gradientUnits="userSpaceOnUse" id="gradient7" spreadMethod="pad" x1="-819.2" x2="819.2">
      <stop offset="0.0" stop-color="#33383c"/>
      <stop offset="0.5098039215686274" stop-color="#696e74"/>
      <stop offset="1.0" stop-color="#33383c"/>
    </linearGradient>
    <linearGradient gradientTransform="matrix(0.0214, 0.0, 0.0, 0.2289, -72.5, -157.3)" gradientUnits="userSpaceOnUse" id="gradient8" spreadMethod="pad" x1="-819.2" x2="819.2">
      <stop offset="0.0" stop-color="#222629"/>
      <stop offset="0.5098039215686274" stop-color="#494e51"/>
      <stop offset="1.0" stop-color="#222629"/>
    </linearGradient>
    <linearGradient gradientTransform="matrix(0.0214, 0.0, 0.0, 0.2289, 72.5, -12.35)" gradientUnits="userSpaceOnUse" id="gradient9" spreadMethod="pad" x1="-819.2" x2="819.2">
      <stop offset="0.0" stop-color="#222629"/>
      <stop offset="0.5098039215686274" stop-color="#494e51"/>
      <stop offset="1.0" stop-color="#222629"/>
    </linearGradient>
    <linearGradient gradientTransform="matrix(0.0, 0.004, -1.0, 0.0, -79.05, -79.05)" gradientUnits="userSpaceOnUse" id="gradient10" spreadMethod="pad" x1="-819.2" x2="819.2">
      <stop offset="0.0" stop-color="#3f4346"/>
      <stop offset="1.0" stop-color="#4e5254"/>
    </linearGradient>
    <linearGradient gradientTransform="matrix(0.0, 0.0557, -1.0, 0.0, -237.65, -224.05)" gradientUnits="userSpaceOnUse" id="gradient11" spreadMethod="pad" x1="-819.2" x2="819.2">
      <stop offset="0.0" stop-color="#6b7070"/>
      <stop offset="1.0" stop-color="#9da0a2"/>
    </linearGradient>
  </defs>
</svg>
