<?xml version="1.0" encoding="UTF-8" standalone="no"?>
<svg xmlns:xlink="http://www.w3.org/1999/xlink" height="375.75px" width="330.45px" xmlns="http://www.w3.org/2000/svg">
  <g transform="matrix(1.0, 0.0, 0.0, 1.0, 165.2, 187.75)">
    <path d="M-110.65 -172.75 L-139.95 -172.75 -140.0 -172.75 -150.6 -187.5 -118.9 -187.5 -110.65 -172.9 -110.65 -172.75" fill="url(#gradient0)" fill-rule="evenodd" stroke="none"/>
    <path d="M110.75 -172.75 L-110.55 -172.75 -110.65 -172.9 -118.9 -187.5 119.15 -187.5 110.8 -172.8 110.75 -172.75" fill="url(#gradient1)" fill-rule="evenodd" stroke="none"/>
    <path d="M110.8 -172.75 L140.0 -172.75 140.0 -137.5 -140.0 -137.5 -140.0 -172.75 -139.95 -172.75 -110.65 -172.75 -110.55 -172.75 110.75 -172.75 110.8 -172.75" fill="url(#gradient2)" fill-rule="evenodd" stroke="none"/>
    <path d="M-140.0 162.4 L-140.0 -137.5 -129.95 -126.05 -129.95 152.3 -130.15 152.5 -140.0 162.4" fill="url(#gradient3)" fill-rule="evenodd" stroke="none"/>
    <path d="M-140.0 -137.5 L140.0 -137.5 130.1 -126.25 129.95 -126.05 -129.9 -126.05 -129.95 -126.05 -140.0 -137.5" fill="url(#gradient4)" fill-rule="evenodd" stroke="none"/>
    <path d="M140.0 -172.75 L110.8 -172.75 110.8 -172.8 119.15 -187.5 150.6 -187.5 140.0 -172.75" fill="url(#gradient5)" fill-rule="evenodd" stroke="none"/>
    <path d="M130.1 -126.05 L130.1 -126.25 140.0 -137.5 140.0 162.4 130.1 152.5 130.1 -126.05" fill="url(#gradient6)" fill-rule="evenodd" stroke="none"/>
    <path d="M130.1 152.5 L140.0 162.4 140.0 162.5 110.8 162.5 -110.65 162.5 -140.0 162.5 -140.0 162.4 -130.15 152.5 130.1 152.5" fill="url(#gradient7)" fill-rule="evenodd" stroke="none"/>
    <path d="M140.05 162.45 L165.0 187.5 130.45 187.5 110.8 162.5 140.0 162.5 140.05 162.45" fill="url(#gradient8)" fill-rule="evenodd" stroke="none"/>
    <path d="M130.45 187.5 L-130.3 187.5 -110.65 162.5 110.8 162.5 130.45 187.5" fill="url(#gradient9)" fill-rule="evenodd" stroke="none"/>
    <path d="M-130.3 187.5 L-164.95 187.5 -140.05 162.45 -140.0 162.5 -110.65 162.5 -130.3 187.5" fill="url(#gradient10)" fill-rule="evenodd" stroke="none"/>
    <path d="M140.0 -172.75 L110.8 -172.75 M110.75 -172.75 L-110.55 -172.75 M-110.65 -172.75 L-139.95 -172.75 M-140.0 -172.75 L-140.0 -137.5 140.0 -137.5 140.0 -172.75" fill="none" stroke="#1b2024" stroke-linecap="round" stroke-linejoin="round" stroke-width="0.5"/>
    <path d="M110.8 -172.75 L110.75 -172.75 M-110.55 -172.75 L-110.65 -172.75 M-139.95 -172.75 L-140.0 -172.75 M110.8 -172.8 L119.15 -187.5 M-118.9 -187.5 L-110.65 -172.9 -110.55 -172.75 M110.8 -172.8 L110.75 -172.75 M110.8 -172.75 L110.8 -172.8 M110.8 162.5 L130.45 187.5 M-110.65 -172.9 L-110.65 -172.75" fill="none" stroke="#424546" stroke-linecap="round" stroke-linejoin="round" stroke-width="0.5"/>
    <path d="M119.15 -187.5 L150.6 -187.5 140.0 -172.75 M119.15 -187.5 L-118.9 -187.5 M130.1 -126.05 L130.1 -126.25 129.95 -126.05 130.1 -126.05 130.1 152.5 140.0 162.4 140.0 -137.5 130.1 -126.25 M140.0 162.5 L140.0 162.4 140.05 162.45 165.0 187.5 130.45 187.5 -130.3 187.5 -164.95 187.5 -140.05 162.45 -140.0 162.4 -140.0 -137.5 -129.95 -126.05 -129.9 -126.05 129.95 -126.05 M110.8 162.5 L140.0 162.5 M-139.95 -172.75 L-140.0 -172.75 -150.6 -187.5 -118.9 -187.5 M-129.95 -126.05 L-129.9 -126.05 M-130.15 152.5 L-129.95 152.3 -129.95 -126.05 M-140.0 162.4 L-140.0 162.5 -110.65 162.5 110.8 162.5 M-130.15 152.5 L-140.0 162.4 M130.1 152.5 L-130.15 152.5" fill="none" stroke="#424546" stroke-linecap="round" stroke-linejoin="round" stroke-width="0.5"/>
    <path d="M-110.65 162.5 L-130.3 187.5" fill="none" stroke="#424546" stroke-linecap="round" stroke-linejoin="round" stroke-width="1.0"/>
  </g>
  <defs>
    <linearGradient gradientTransform="matrix(0.0156, -0.0093, 0.0112, 0.0188, -131.5, -179.5)" gradientUnits="userSpaceOnUse" id="gradient0" spreadMethod="pad" x1="-819.2" x2="819.2">
      <stop offset="0.0" stop-color="#676b72"/>
      <stop offset="0.3411764705882353" stop-color="#80858b"/>
      <stop offset="0.6980392156862745" stop-color="#81868c"/>
      <stop offset="1.0" stop-color="#676b72"/>
    </linearGradient>
    <radialGradient cx="0" cy="0" gradientTransform="matrix(0.0, 0.018, -0.1538, 0.0, 0.0, -187.5)" gradientUnits="userSpaceOnUse" id="gradient1" r="819.2" spreadMethod="pad">
      <stop offset="0.0" stop-color="#4b4f57"/>
      <stop offset="1.0" stop-color="#43484c"/>
    </radialGradient>
    <radialGradient cx="0" cy="0" gradientTransform="matrix(0.0, 0.039, -0.1817, 0.0, -1.0, -155.0)" gradientUnits="userSpaceOnUse" id="gradient2" r="819.2" spreadMethod="pad">
      <stop offset="0.0" stop-color="#4b4f57"/>
      <stop offset="1.0" stop-color="#43484c"/>
    </radialGradient>
    <linearGradient gradientTransform="matrix(0.0061, 0.0, 0.0, 0.1458, -133.0, 12.3)" gradientUnits="userSpaceOnUse" id="gradient3" spreadMethod="pad" x1="-819.2" x2="819.2">
      <stop offset="0.0" stop-color="#676b72"/>
      <stop offset="0.3411764705882353" stop-color="#80858b"/>
      <stop offset="0.6980392156862745" stop-color="#81868c"/>
      <stop offset="1.0" stop-color="#676b72"/>
    </linearGradient>
    <linearGradient gradientTransform="matrix(0.0, -0.0073, 0.1048, 0.0, 0.9, -130.0)" gradientUnits="userSpaceOnUse" id="gradient4" spreadMethod="pad" x1="-819.2" x2="819.2">
      <stop offset="0.0" stop-color="#676b72"/>
      <stop offset="0.3411764705882353" stop-color="#80858b"/>
      <stop offset="0.6980392156862745" stop-color="#81868c"/>
      <stop offset="1.0" stop-color="#676b72"/>
    </linearGradient>
    <linearGradient gradientTransform="matrix(0.015, 0.0088, -0.0076, 0.0128, 130.45, -180.65)" gradientUnits="userSpaceOnUse" id="gradient5" spreadMethod="pad" x1="-819.2" x2="819.2">
      <stop offset="0.0" stop-color="#676b72"/>
      <stop offset="0.3411764705882353" stop-color="#80858b"/>
      <stop offset="0.6980392156862745" stop-color="#81868c"/>
      <stop offset="1.0" stop-color="#676b72"/>
    </linearGradient>
    <linearGradient gradientTransform="matrix(0.0076, 0.0, 0.0, 0.1458, 133.95, 13.6)" gradientUnits="userSpaceOnUse" id="gradient6" spreadMethod="pad" x1="-819.2" x2="819.2">
      <stop offset="0.0" stop-color="#676b72"/>
      <stop offset="0.3411764705882353" stop-color="#80858b"/>
      <stop offset="0.6980392156862745" stop-color="#81868c"/>
      <stop offset="1.0" stop-color="#676b72"/>
    </linearGradient>
    <linearGradient gradientTransform="matrix(0.0, -0.0061, 0.1041, 0.0, 0.9, 156.5)" gradientUnits="userSpaceOnUse" id="gradient7" spreadMethod="pad" x1="-819.2" x2="819.2">
      <stop offset="0.0" stop-color="#676b72"/>
      <stop offset="0.3411764705882353" stop-color="#80858b"/>
      <stop offset="0.6980392156862745" stop-color="#81868c"/>
      <stop offset="1.0" stop-color="#676b72"/>
    </linearGradient>
    <linearGradient gradientTransform="matrix(0.0105, -0.008, 0.0093, 0.0122, 136.05, 174.3)" gradientUnits="userSpaceOnUse" id="gradient8" spreadMethod="pad" x1="-819.2" x2="819.2">
      <stop offset="0.0" stop-color="#676b72"/>
      <stop offset="0.3411764705882353" stop-color="#80858b"/>
      <stop offset="0.6980392156862745" stop-color="#81868c"/>
      <stop offset="1.0" stop-color="#676b72"/>
    </linearGradient>
    <radialGradient cx="0" cy="0" gradientTransform="matrix(0.0, 0.025, -0.1751, 0.0, 4.0, 177.0)" gradientUnits="userSpaceOnUse" id="gradient9" r="819.2" spreadMethod="pad">
      <stop offset="0.0" stop-color="#4b4f57"/>
      <stop offset="1.0" stop-color="#43484c"/>
    </radialGradient>
    <linearGradient gradientTransform="matrix(0.0148, 0.0105, -0.0088, 0.0125, -137.8, 174.95)" gradientUnits="userSpaceOnUse" id="gradient10" spreadMethod="pad" x1="-819.2" x2="819.2">
      <stop offset="0.0" stop-color="#676b72"/>
      <stop offset="0.3411764705882353" stop-color="#80858b"/>
      <stop offset="0.6980392156862745" stop-color="#81868c"/>
      <stop offset="1.0" stop-color="#676b72"/>
    </linearGradient>
  </defs>
</svg>
