<?xml version="1.0" encoding="UTF-8" standalone="no"?>
<svg xmlns:xlink="http://www.w3.org/1999/xlink" height="190.25px" width="406.4px" xmlns="http://www.w3.org/2000/svg">
  <g transform="matrix(1.0, 0.0, 0.0, 1.0, -146.9, -189.75)">
    <path d="M538.1 207.3 L539.6 207.55 539.8 207.7 Q545.25 208.65 549.05 212.45 553.3 216.65 553.3 222.6 L553.3 331.0 Q553.3 336.95 549.05 341.15 544.85 345.35 538.95 345.35 L165.1 345.35 Q159.15 345.35 154.95 341.15 150.7 336.95 150.7 331.0 L150.7 222.6 Q150.7 216.65 154.95 212.45 158.8 208.5 164.15 207.7 L164.3 207.7 165.9 207.55 Q353.1 180.8 538.1 207.3" fill="#000000" fill-opacity="0.2" fill-rule="evenodd" stroke="none"/>
    <path d="M534.85 203.45 L534.7 214.7 Q349.75 187.9 162.6 214.8 L162.6 203.7 Q349.8 176.95 534.85 203.45" fill="url(#gradient0)" fill-rule="evenodd" stroke="none"/>
    <path d="M538.95 218.75 Q538.95 217.35 538.0 216.4 536.6 215.1 534.7 214.7 L534.85 203.45 536.3 203.7 536.55 203.85 Q541.95 204.85 545.75 208.6 550.0 212.8 550.0 218.75 L538.95 218.75" fill="url(#gradient1)" fill-rule="evenodd" stroke="none"/>
    <path d="M534.7 214.7 Q536.6 215.1 538.0 216.4 538.95 217.35 538.95 218.75 L538.95 311.05 158.5 311.05 158.5 218.75 Q158.45 217.35 159.45 216.4 160.75 215.05 162.6 214.8 349.75 187.9 534.7 214.7" fill="url(#gradient2)" fill-rule="evenodd" stroke="none"/>
    <path d="M538.95 218.75 L550.0 218.75 550.0 311.05 538.95 311.05 538.95 218.75" fill="url(#gradient3)" fill-rule="evenodd" stroke="none"/>
    <path d="M162.6 214.8 Q160.75 215.05 159.45 216.4 158.45 217.35 158.5 218.75 L147.4 218.75 Q147.4 212.8 151.65 208.6 155.45 204.7 160.9 203.85 L161.0 203.85 162.6 203.7 162.6 214.8" fill="url(#gradient4)" fill-rule="evenodd" stroke="none"/>
    <path d="M158.5 218.75 L158.5 311.05 147.4 311.05 147.4 218.75 158.5 218.75" fill="url(#gradient5)" fill-rule="evenodd" stroke="none"/>
    <path d="M550.0 218.75 Q550.0 212.8 545.75 208.6 541.95 204.85 536.55 203.85 L536.3 203.7 534.85 203.45 M550.0 311.05 L550.0 218.75 M162.6 203.7 L161.0 203.85 160.9 203.85 Q155.45 204.7 151.65 208.6 147.4 212.8 147.4 218.75 L147.4 311.05 M162.6 203.7 Q349.8 176.95 534.85 203.45" fill="none" stroke="#be6d01" stroke-linecap="round" stroke-linejoin="round" stroke-width="1.0"/>
    <path d="M534.7 214.7 Q536.6 215.1 538.0 216.4 538.95 217.35 538.95 218.75 M534.7 214.7 Q349.75 187.9 162.6 214.8 160.75 215.05 159.45 216.4 158.45 217.35 158.5 218.75 L158.5 311.05 M538.95 311.05 L538.95 218.75" fill="none" stroke="#be6d01" stroke-linecap="round" stroke-linejoin="round" stroke-width="0.5"/>
    <path d="M538.95 300.05 L550.0 300.05 550.0 306.05 538.95 306.05 538.95 300.05" fill="url(#gradient6)" fill-rule="evenodd" stroke="none"/>
    <path d="M538.95 300.05 L538.95 306.05 158.5 306.05 158.5 300.05 538.95 300.05" fill="url(#gradient7)" fill-rule="evenodd" stroke="none"/>
    <path d="M538.95 306.05 L550.0 306.05 550.0 365.15 538.95 365.15 538.95 306.05" fill="url(#gradient8)" fill-rule="evenodd" stroke="none"/>
    <path d="M147.4 300.05 L158.5 300.05 158.5 306.05 147.4 306.05 147.4 300.05" fill="url(#gradient9)" fill-rule="evenodd" stroke="none"/>
    <path d="M147.4 306.05 L158.5 306.05 158.5 365.15 147.4 365.15 147.4 306.05" fill="url(#gradient10)" fill-rule="evenodd" stroke="none"/>
    <path d="M147.4 365.15 L158.5 365.15 Q158.45 366.5 159.45 367.5 160.4 368.45 161.8 368.45 L161.8 379.5 Q155.85 379.5 151.65 375.3 147.4 371.05 147.4 365.15" fill="url(#gradient11)" fill-rule="evenodd" stroke="none"/>
    <path d="M161.8 368.45 Q160.4 368.45 159.45 367.5 158.45 366.5 158.5 365.15 L158.5 306.05 538.95 306.05 538.95 365.15 Q538.95 366.5 538.0 367.5 537.0 368.45 535.65 368.45 L161.8 368.45" fill="url(#gradient12)" fill-rule="evenodd" stroke="none"/>
    <path d="M161.8 379.5 L161.8 368.45 535.65 368.45 535.65 379.5 161.8 379.5" fill="url(#gradient13)" fill-rule="evenodd" stroke="none"/>
    <path d="M538.95 365.15 L550.0 365.15 Q550.0 371.05 545.75 375.3 541.55 379.5 535.65 379.5 L535.65 368.45 Q537.0 368.45 538.0 367.5 538.95 366.5 538.95 365.15" fill="url(#gradient14)" fill-rule="evenodd" stroke="none"/>
    <path d="M538.95 300.05 L538.95 306.05 538.95 365.15 Q538.95 366.5 538.0 367.5 537.0 368.45 535.65 368.45 L161.8 368.45 Q160.4 368.45 159.45 367.5 158.45 366.5 158.5 365.15 L158.5 306.05 158.5 300.05" fill="none" stroke="#be6d01" stroke-linecap="round" stroke-linejoin="round" stroke-width="0.5"/>
    <path d="M550.0 306.05 L550.0 300.05 M147.4 300.05 L147.4 306.05" fill="none" stroke="#be6d01" stroke-linecap="round" stroke-linejoin="round" stroke-width="1.0"/>
    <path d="M147.4 365.15 Q147.4 371.05 151.65 375.3 155.85 379.5 161.8 379.5 M550.0 365.15 L550.0 306.05 M535.65 379.5 Q541.55 379.5 545.75 375.3 550.0 371.05 550.0 365.15 M535.65 379.5 L161.8 379.5 M147.4 306.05 L147.4 365.15" fill="none" stroke="#be6d01" stroke-linecap="round" stroke-linejoin="round" stroke-width="1.0"/>
  </g>
  <defs>
    <radialGradient cx="0" cy="0" gradientTransform="matrix(2.0E-4, 0.0628, -0.3571, 7.0E-4, 345.4, 242.5)" gradientUnits="userSpaceOnUse" id="gradient0" r="819.2" spreadMethod="pad">
      <stop offset="0.8509803921568627" stop-color="#fe9c0c"/>
      <stop offset="0.9137254901960784" stop-color="#fea834"/>
      <stop offset="0.9647058823529412" stop-color="#eb8906"/>
    </radialGradient>
    <radialGradient cx="0" cy="0" gradientTransform="matrix(0.0192, 0.0, 0.0, 0.0192, 533.6, 220.6)" gradientUnits="userSpaceOnUse" id="gradient1" r="819.2" spreadMethod="pad">
      <stop offset="0.4745098039215686" stop-color="#fe9c0c"/>
      <stop offset="0.6745098039215687" stop-color="#fea834"/>
      <stop offset="1.0" stop-color="#eb8906"/>
    </radialGradient>
    <radialGradient cx="0" cy="0" gradientTransform="matrix(0.0619, 0.2192, -0.3233, 0.0913, 293.25, 235.95)" gradientUnits="userSpaceOnUse" id="gradient2" r="819.2" spreadMethod="pad">
      <stop offset="0.0" stop-color="#fdd255"/>
      <stop offset="1.0" stop-color="#fdc92d"/>
    </radialGradient>
    <linearGradient gradientTransform="matrix(0.0068, 0.0, 0.0, 0.0662, 544.45, 272.85)" gradientUnits="userSpaceOnUse" id="gradient3" spreadMethod="pad" x1="-819.2" x2="819.2">
      <stop offset="0.0" stop-color="#ff9900"/>
      <stop offset="0.5137254901960784" stop-color="#fea936"/>
      <stop offset="1.0" stop-color="#e98601"/>
    </linearGradient>
    <radialGradient cx="0" cy="0" gradientTransform="matrix(0.0168, 0.0, 0.0, 0.0168, 162.45, 218.45)" gradientUnits="userSpaceOnUse" id="gradient4" r="819.2" spreadMethod="pad">
      <stop offset="0.4745098039215686" stop-color="#fe9c0c"/>
      <stop offset="0.6745098039215687" stop-color="#fea834"/>
      <stop offset="1.0" stop-color="#eb8906"/>
    </radialGradient>
    <linearGradient gradientTransform="matrix(-0.0068, 0.0, 0.0, -0.0662, 152.95, 273.4)" gradientUnits="userSpaceOnUse" id="gradient5" spreadMethod="pad" x1="-819.2" x2="819.2">
      <stop offset="0.0" stop-color="#ff9900"/>
      <stop offset="0.5137254901960784" stop-color="#fea936"/>
      <stop offset="1.0" stop-color="#e98601"/>
    </linearGradient>
    <linearGradient gradientTransform="matrix(0.0068, 0.0, 0.0, 0.0662, 544.45, 261.85)" gradientUnits="userSpaceOnUse" id="gradient6" spreadMethod="pad" x1="-819.2" x2="819.2">
      <stop offset="0.0" stop-color="#ff9900"/>
      <stop offset="0.5137254901960784" stop-color="#fea936"/>
      <stop offset="1.0" stop-color="#e98601"/>
    </linearGradient>
    <radialGradient cx="0" cy="0" gradientTransform="matrix(0.0619, 0.2192, -0.3233, 0.0913, 293.25, 224.95)" gradientUnits="userSpaceOnUse" id="gradient7" r="819.2" spreadMethod="pad">
      <stop offset="0.0" stop-color="#fdd255"/>
      <stop offset="1.0" stop-color="#fdc92d"/>
    </radialGradient>
    <linearGradient gradientTransform="matrix(0.0068, 0.0, 0.0, 0.0662, 544.45, 310.85)" gradientUnits="userSpaceOnUse" id="gradient8" spreadMethod="pad" x1="-819.2" x2="819.2">
      <stop offset="0.0" stop-color="#ff9900"/>
      <stop offset="0.5137254901960784" stop-color="#fea936"/>
      <stop offset="1.0" stop-color="#e98601"/>
    </linearGradient>
    <linearGradient gradientTransform="matrix(-0.0068, 0.0, 0.0, -0.0662, 152.95, 262.4)" gradientUnits="userSpaceOnUse" id="gradient9" spreadMethod="pad" x1="-819.2" x2="819.2">
      <stop offset="0.0" stop-color="#ff9900"/>
      <stop offset="0.5137254901960784" stop-color="#fea936"/>
      <stop offset="1.0" stop-color="#e98601"/>
    </linearGradient>
    <linearGradient gradientTransform="matrix(-0.0068, 0.0, 0.0, -0.0662, 152.95, 311.4)" gradientUnits="userSpaceOnUse" id="gradient10" spreadMethod="pad" x1="-819.2" x2="819.2">
      <stop offset="0.0" stop-color="#ff9900"/>
      <stop offset="0.5137254901960784" stop-color="#fea936"/>
      <stop offset="1.0" stop-color="#e98601"/>
    </linearGradient>
    <radialGradient cx="0" cy="0" gradientTransform="matrix(0.0193, 0.0, 0.0, 0.0193, 162.95, 362.9)" gradientUnits="userSpaceOnUse" id="gradient11" r="819.2" spreadMethod="pad">
      <stop offset="0.4745098039215686" stop-color="#fe9c0c"/>
      <stop offset="0.6745098039215687" stop-color="#fea834"/>
      <stop offset="1.0" stop-color="#eb8906"/>
    </radialGradient>
    <radialGradient cx="0" cy="0" gradientTransform="matrix(0.0619, 0.2192, -0.3233, 0.0913, 293.25, 273.95)" gradientUnits="userSpaceOnUse" id="gradient12" r="819.2" spreadMethod="pad">
      <stop offset="0.0" stop-color="#fdd255"/>
      <stop offset="1.0" stop-color="#fdc92d"/>
    </radialGradient>
    <linearGradient gradientTransform="matrix(0.0, 0.0068, -5.2799, 0.0, 1035.0, 373.95)" gradientUnits="userSpaceOnUse" id="gradient13" spreadMethod="pad" x1="-819.2" x2="819.2">
      <stop offset="0.0" stop-color="#ff9900"/>
      <stop offset="0.5137254901960784" stop-color="#fea936"/>
      <stop offset="1.0" stop-color="#e98601"/>
    </linearGradient>
    <radialGradient cx="0" cy="0" gradientTransform="matrix(0.0145, 0.0, 0.0, 0.0145, 536.5, 366.55)" gradientUnits="userSpaceOnUse" id="gradient14" r="819.2" spreadMethod="pad">
      <stop offset="0.4745098039215686" stop-color="#fe9c0c"/>
      <stop offset="0.6745098039215687" stop-color="#fea834"/>
      <stop offset="1.0" stop-color="#eb8906"/>
    </radialGradient>
  </defs>
</svg>
