<?xml version="1.0" encoding="UTF-8" standalone="no"?>
<svg xmlns:xlink="http://www.w3.org/1999/xlink" height="30.7px" width="90.7px" xmlns="http://www.w3.org/2000/svg">
  <g transform="matrix(1.0, 0.0, 0.0, 1.0, 45.35, 15.35)">
    <path d="M43.45 -13.45 Q44.0 -12.9 44.0 -12.05 L44.0 12.1 Q44.0 12.9 43.45 13.45 42.9 14.0 42.1 14.0 L-42.05 14.0 Q-42.9 14.0 -43.45 13.45 -44.0 12.9 -44.0 12.1 L-44.0 -12.05 Q-44.0 -12.9 -43.45 -13.45 -42.9 -14.0 -42.05 -14.0 L42.1 -14.0 Q42.9 -14.0 43.45 -13.45 Z" fill="none" stroke="#ffeca2" stroke-linecap="round" stroke-linejoin="round" stroke-width="2.75"/>
    <path d="M-42.05 -14.0 L42.1 -14.0 Q42.9 -14.0 43.45 -13.45 44.0 -12.9 44.0 -12.05 L44.0 12.1 Q44.0 12.9 43.45 13.45 42.9 14.0 42.1 14.0 L-42.05 14.0 Q-42.9 14.0 -43.45 13.45 -44.0 12.9 -44.0 12.1 L-44.0 -12.05 Q-44.0 -12.9 -43.45 -13.45 -42.9 -14.0 -42.05 -14.0" fill="url(#gradient0)" fill-rule="evenodd" stroke="none"/>
    <path d="M-42.35 -12.4 L-42.05 -12.5 42.1 -12.5 42.4 -12.4 42.4 -12.35 42.5 -12.05 42.5 12.1 42.4 12.4 42.1 12.5 -42.05 12.5 -42.35 12.4 -42.4 12.4 -42.5 12.1 -42.5 -12.05 -42.4 -12.35 -42.35 -12.4 M-42.0 -12.0 L-42.0 12.0 42.0 12.0 42.0 -12.0 -42.0 -12.0" fill="#f35001" fill-opacity="0.39607844" fill-rule="evenodd" stroke="none"/>
    <path d="M-42.35 -12.4 L-42.4 -12.35 -42.5 -12.05 -42.5 12.1 -42.4 12.4 -42.35 12.4 -42.05 12.5 42.1 12.5 42.4 12.4 42.5 12.1 42.5 -12.05 42.4 -12.35 42.4 -12.4 42.1 -12.5 -42.05 -12.5 -42.35 -12.4 M-42.75 -12.75 L-42.05 -13.0 42.1 -13.0 42.75 -12.75 43.0 -12.05 43.0 12.1 42.75 12.75 42.1 13.0 -42.05 13.0 -42.75 12.75 -43.0 12.1 -43.0 -12.05 -42.75 -12.75" fill="#f35001" fill-opacity="0.59607846" fill-rule="evenodd" stroke="none"/>
    <path d="M-43.5 -12.05 Q-43.5 -12.65 -43.1 -13.1 -42.65 -13.5 -42.05 -13.5 L42.1 -13.5 Q42.7 -13.5 43.1 -13.1 43.5 -12.65 43.5 -12.05 L43.5 12.1 Q43.5 12.7 43.1 13.1 42.7 13.5 42.1 13.5 L-42.05 13.5 Q-42.65 13.5 -43.1 13.1 -43.5 12.7 -43.5 12.1 L-43.5 -12.05 M-42.75 -12.75 L-43.0 -12.05 -43.0 12.1 -42.75 12.75 -42.05 13.0 42.1 13.0 42.75 12.75 43.0 12.1 43.0 -12.05 42.75 -12.75 42.1 -13.0 -42.05 -13.0 -42.75 -12.75" fill="#f35001" fill-opacity="0.79607844" fill-rule="evenodd" stroke="none"/>
    <path d="M-42.05 -14.0 L42.1 -14.0 Q42.9 -14.0 43.45 -13.45 44.0 -12.9 44.0 -12.05 L44.0 12.1 Q44.0 12.9 43.45 13.45 42.9 14.0 42.1 14.0 L-42.05 14.0 Q-42.9 14.0 -43.45 13.45 -44.0 12.9 -44.0 12.1 L-44.0 -12.05 Q-44.0 -12.9 -43.45 -13.45 -42.9 -14.0 -42.05 -14.0 M-43.5 -12.05 L-43.5 12.1 Q-43.5 12.7 -43.1 13.1 -42.65 13.5 -42.05 13.5 L42.1 13.5 Q42.7 13.5 43.1 13.1 43.5 12.7 43.5 12.1 L43.5 -12.05 Q43.5 -12.65 43.1 -13.1 42.7 -13.5 42.1 -13.5 L-42.05 -13.5 Q-42.65 -13.5 -43.1 -13.1 -43.5 -12.65 -43.5 -12.05" fill="#f35001" fill-rule="evenodd" stroke="none"/>
    <path d="M-42.0 -12.0 L42.0 -12.0 42.0 12.0 -42.0 12.0 -42.0 -12.0 M-41.5 -11.5 L-41.5 11.5 41.5 11.5 41.5 -11.5 -41.5 -11.5" fill="#f35001" fill-opacity="0.19607843" fill-rule="evenodd" stroke="none"/>
    <path d="M-40.95 -11.0 L-40.25 -11.3 40.25 -11.3 40.95 -11.0 41.25 -10.3 41.25 -2.8 40.95 -2.1 Q40.65 -1.8 40.25 -1.8 L-40.25 -1.8 Q-40.65 -1.8 -40.95 -2.1 L-41.25 -2.8 -41.25 -10.3 -40.95 -11.0" fill="#ffffff" fill-opacity="0.4" fill-rule="evenodd" stroke="none"/>
  </g>
  <defs>
    <linearGradient gradientTransform="matrix(0.0, 0.0159, -1.0, 0.0, 196.45, -0.05)" gradientUnits="userSpaceOnUse" id="gradient0" spreadMethod="pad" x1="-819.2" x2="819.2">
      <stop offset="0.0" stop-color="#ff6600"/>
      <stop offset="1.0" stop-color="#febe01"/>
    </linearGradient>
  </defs>
</svg>
