<?xml version="1.0" encoding="UTF-8" standalone="no"?>
<svg xmlns:xlink="http://www.w3.org/1999/xlink" height="82.45px" width="220.6px" xmlns="http://www.w3.org/2000/svg">
  <g transform="matrix(1.0, 0.0, 0.0, 1.0, -240.05, -399.25)">
    <path d="M452.3 405.8 L452.3 399.75 Q455.55 399.7 457.85 402.05 460.15 404.35 460.15 407.6 L454.1 407.6 Q454.1 406.8 453.6 406.3 453.05 405.75 452.3 405.8" fill="url(#gradient0)" fill-rule="evenodd" stroke="none"/>
    <path d="M452.3 405.8 Q453.05 405.75 453.6 406.3 454.1 406.8 454.1 407.6 L454.1 473.35 Q454.1 474.1 453.6 474.65 453.05 475.15 452.3 475.15 L248.4 475.15 Q247.65 475.15 247.1 474.65 246.6 474.1 246.6 473.35 L246.6 407.6 Q246.6 406.8 247.1 406.3 247.65 405.75 248.4 405.8 L452.3 405.8" fill="url(#gradient1)" fill-rule="evenodd" stroke="none"/>
    <path d="M454.1 407.6 L460.15 407.6 460.15 473.35 454.1 473.35 454.1 407.6" fill="url(#gradient2)" fill-rule="evenodd" stroke="none"/>
    <path d="M452.3 399.75 L452.3 405.8 248.4 405.8 248.4 399.75 452.3 399.75" fill="url(#gradient3)" fill-rule="evenodd" stroke="none"/>
    <path d="M452.3 481.2 L452.3 475.15 Q453.05 475.15 453.6 474.65 454.1 474.1 454.1 473.35 L460.15 473.35 Q460.15 476.55 457.85 478.9 455.55 481.2 452.3 481.2" fill="url(#gradient4)" fill-rule="evenodd" stroke="none"/>
    <path d="M452.3 475.15 L452.3 481.2 248.4 481.2 248.4 475.15 452.3 475.15" fill="url(#gradient5)" fill-rule="evenodd" stroke="none"/>
    <path d="M248.4 399.75 L248.4 405.8 Q247.65 405.75 247.1 406.3 246.6 406.8 246.6 407.6 L240.55 407.6 Q240.55 404.35 242.85 402.05 245.15 399.7 248.4 399.75" fill="url(#gradient6)" fill-rule="evenodd" stroke="none"/>
    <path d="M240.55 407.6 L246.6 407.6 246.6 473.35 240.55 473.35 240.55 407.6" fill="url(#gradient7)" fill-rule="evenodd" stroke="none"/>
    <path d="M248.4 475.15 L248.4 481.2 Q245.15 481.2 242.85 478.9 240.55 476.55 240.55 473.35 L246.6 473.35 Q246.6 474.1 247.1 474.65 247.65 475.15 248.4 475.15" fill="url(#gradient8)" fill-rule="evenodd" stroke="none"/>
    <path d="M452.3 405.8 Q453.05 405.75 453.6 406.3 454.1 406.8 454.1 407.6 M248.4 405.8 L452.3 405.8 M454.1 473.35 Q454.1 474.1 453.6 474.65 453.05 475.15 452.3 475.15 L248.4 475.15 M454.1 473.35 L454.1 407.6 M246.6 473.35 L246.6 407.6 Q246.6 406.8 247.1 406.3 247.65 405.75 248.4 405.8 M246.6 473.35 Q246.6 474.1 247.1 474.65 247.65 475.15 248.4 475.15" fill="none" stroke="#be6d01" stroke-linecap="round" stroke-linejoin="round" stroke-width="0.5"/>
    <path d="M460.15 407.6 Q460.15 404.35 457.85 402.05 455.55 399.7 452.3 399.75 L248.4 399.75 M452.3 481.2 Q455.55 481.2 457.85 478.9 460.15 476.55 460.15 473.35 L460.15 407.6 M248.4 481.2 L452.3 481.2 M240.55 407.6 L240.55 473.35 Q240.55 476.55 242.85 478.9 245.15 481.2 248.4 481.2 M240.55 407.6 Q240.55 404.35 242.85 402.05 245.15 399.7 248.4 399.75" fill="none" stroke="#be6d01" stroke-linecap="round" stroke-linejoin="round" stroke-width="1.0"/>
  </g>
  <defs>
    <radialGradient cx="0" cy="0" gradientTransform="matrix(0.0079, 0.0, 0.0, -0.0079, 452.8, 406.8)" gradientUnits="userSpaceOnUse" id="gradient0" r="819.2" spreadMethod="pad">
      <stop offset="0.4745098039215686" stop-color="#fe9c0c"/>
      <stop offset="0.6745098039215687" stop-color="#fea834"/>
      <stop offset="1.0" stop-color="#eb8906"/>
    </radialGradient>
    <radialGradient cx="0" cy="0" gradientTransform="matrix(0.0338, 0.1196, -0.1763, 0.0498, 320.1, 423.6)" gradientUnits="userSpaceOnUse" id="gradient1" r="819.2" spreadMethod="pad">
      <stop offset="0.0" stop-color="#fdd255"/>
      <stop offset="1.0" stop-color="#fdc92d"/>
    </radialGradient>
    <linearGradient gradientTransform="matrix(0.0037, 0.0, 0.0, 0.0361, 457.1, 443.75)" gradientUnits="userSpaceOnUse" id="gradient2" spreadMethod="pad" x1="-819.2" x2="819.2">
      <stop offset="0.0" stop-color="#ff9900"/>
      <stop offset="0.5137254901960784" stop-color="#fea936"/>
      <stop offset="1.0" stop-color="#e98601"/>
    </linearGradient>
    <linearGradient gradientTransform="matrix(0.0, -0.0037, -2.8799, 0.0, 724.7, 402.75)" gradientUnits="userSpaceOnUse" id="gradient3" spreadMethod="pad" x1="-819.2" x2="819.2">
      <stop offset="0.0" stop-color="#ff9900"/>
      <stop offset="0.5137254901960784" stop-color="#fea936"/>
      <stop offset="1.0" stop-color="#e98601"/>
    </linearGradient>
    <radialGradient cx="0" cy="0" gradientTransform="matrix(0.0079, 0.0, 0.0, 0.0079, 452.8, 474.1)" gradientUnits="userSpaceOnUse" id="gradient4" r="819.2" spreadMethod="pad">
      <stop offset="0.4745098039215686" stop-color="#fe9c0c"/>
      <stop offset="0.6745098039215687" stop-color="#fea834"/>
      <stop offset="1.0" stop-color="#eb8906"/>
    </radialGradient>
    <linearGradient gradientTransform="matrix(0.0, 0.0037, -2.8799, 0.0, 724.7, 478.15)" gradientUnits="userSpaceOnUse" id="gradient5" spreadMethod="pad" x1="-819.2" x2="819.2">
      <stop offset="0.0" stop-color="#ff9900"/>
      <stop offset="0.5137254901960784" stop-color="#fea936"/>
      <stop offset="1.0" stop-color="#e98601"/>
    </linearGradient>
    <radialGradient cx="0" cy="0" gradientTransform="matrix(0.0105, 0.0, 0.0, -0.0105, 249.05, 408.8)" gradientUnits="userSpaceOnUse" id="gradient6" r="819.2" spreadMethod="pad">
      <stop offset="0.4745098039215686" stop-color="#fe9c0c"/>
      <stop offset="0.6745098039215687" stop-color="#fea834"/>
      <stop offset="1.0" stop-color="#eb8906"/>
    </radialGradient>
    <linearGradient gradientTransform="matrix(-0.0037, 0.0, 0.0, -0.0361, 243.6, 444.05)" gradientUnits="userSpaceOnUse" id="gradient7" spreadMethod="pad" x1="-819.2" x2="819.2">
      <stop offset="0.0" stop-color="#ff9900"/>
      <stop offset="0.5137254901960784" stop-color="#fea936"/>
      <stop offset="1.0" stop-color="#e98601"/>
    </linearGradient>
    <radialGradient cx="0" cy="0" gradientTransform="matrix(0.0105, 0.0, 0.0, 0.0105, 249.05, 472.1)" gradientUnits="userSpaceOnUse" id="gradient8" r="819.2" spreadMethod="pad">
      <stop offset="0.4745098039215686" stop-color="#fe9c0c"/>
      <stop offset="0.6745098039215687" stop-color="#fea834"/>
      <stop offset="1.0" stop-color="#eb8906"/>
    </radialGradient>
  </defs>
</svg>
