<?xml version="1.0" encoding="UTF-8" standalone="no"?>
<svg xmlns:xlink="http://www.w3.org/1999/xlink" height="30.7px" width="115.7px" xmlns="http://www.w3.org/2000/svg">
  <g transform="matrix(1.0, 0.0, 0.0, 1.0, 57.85, 15.35)">
    <path d="M55.95 -13.45 Q56.5 -12.9 56.5 -12.05 L56.5 12.1 Q56.5 12.9 55.95 13.45 55.4 14.0 54.6 14.0 L-54.55 14.0 Q-55.4 14.0 -55.95 13.45 -56.5 12.9 -56.5 12.1 L-56.5 -12.05 Q-56.5 -12.9 -55.95 -13.45 -55.4 -14.0 -54.55 -14.0 L54.6 -14.0 Q55.4 -14.0 55.95 -13.45 Z" fill="none" stroke="#ffeca2" stroke-linecap="round" stroke-linejoin="round" stroke-width="2.75"/>
    <path d="M56.5 -12.05 L56.5 12.1 Q56.5 12.9 55.95 13.45 55.4 14.0 54.6 14.0 L-54.55 14.0 Q-55.4 14.0 -55.95 13.45 -56.5 12.9 -56.5 12.1 L-56.5 -12.05 Q-56.5 -12.9 -55.95 -13.45 -55.4 -14.0 -54.55 -14.0 L54.6 -14.0 Q55.4 -14.0 55.95 -13.45 56.5 -12.9 56.5 -12.05" fill="url(#gradient0)" fill-rule="evenodd" stroke="none"/>
    <path d="M54.6 -12.5 L54.9 -12.4 54.9 -12.35 55.0 -12.05 55.0 12.1 54.9 12.4 54.6 12.5 -54.55 12.5 -54.85 12.4 -54.9 12.4 -55.0 12.1 -55.0 -12.05 -54.9 -12.35 -54.85 -12.4 -54.55 -12.5 54.6 -12.5 M54.5 12.0 L54.5 -12.0 -54.5 -12.0 -54.5 12.0 54.5 12.0" fill="#f35001" fill-opacity="0.39607844" fill-rule="evenodd" stroke="none"/>
    <path d="M54.6 -12.5 L-54.55 -12.5 -54.85 -12.4 -54.9 -12.35 -55.0 -12.05 -55.0 12.1 -54.9 12.4 -54.85 12.4 -54.55 12.5 54.6 12.5 54.9 12.4 55.0 12.1 55.0 -12.05 54.9 -12.35 54.9 -12.4 54.6 -12.5 M54.6 -13.0 L55.25 -12.75 55.5 -12.05 55.5 12.1 55.25 12.75 54.6 13.0 -54.55 13.0 -55.25 12.75 -55.5 12.1 -55.5 -12.05 -55.25 -12.75 -54.55 -13.0 54.6 -13.0" fill="#f35001" fill-opacity="0.59607846" fill-rule="evenodd" stroke="none"/>
    <path d="M54.6 -13.5 Q55.2 -13.5 55.6 -13.1 56.0 -12.65 56.0 -12.05 L56.0 12.1 Q56.0 12.7 55.6 13.1 55.2 13.5 54.6 13.5 L-54.55 13.5 Q-55.15 13.5 -55.6 13.1 -56.0 12.7 -56.0 12.1 L-56.0 -12.05 Q-56.0 -12.65 -55.6 -13.1 -55.15 -13.5 -54.55 -13.5 L54.6 -13.5 M54.6 -13.0 L-54.55 -13.0 -55.25 -12.75 -55.5 -12.05 -55.5 12.1 -55.25 12.75 -54.55 13.0 54.6 13.0 55.25 12.75 55.5 12.1 55.5 -12.05 55.25 -12.75 54.6 -13.0" fill="#f35001" fill-opacity="0.79607844" fill-rule="evenodd" stroke="none"/>
    <path d="M55.95 -13.45 Q56.5 -12.9 56.5 -12.05 L56.5 12.1 Q56.5 12.9 55.95 13.45 55.4 14.0 54.6 14.0 L-54.55 14.0 Q-55.4 14.0 -55.95 13.45 -56.5 12.9 -56.5 12.1 L-56.5 -12.05 Q-56.5 -12.9 -55.95 -13.45 -55.4 -14.0 -54.55 -14.0 L54.6 -14.0 Q55.4 -14.0 55.95 -13.45 M54.6 -13.5 L-54.55 -13.5 Q-55.15 -13.5 -55.6 -13.1 -56.0 -12.65 -56.0 -12.05 L-56.0 12.1 Q-56.0 12.7 -55.6 13.1 -55.15 13.5 -54.55 13.5 L54.6 13.5 Q55.2 13.5 55.6 13.1 56.0 12.7 56.0 12.1 L56.0 -12.05 Q56.0 -12.65 55.6 -13.1 55.2 -13.5 54.6 -13.5" fill="#f35001" fill-rule="evenodd" stroke="none"/>
    <path d="M54.0 11.5 L54.0 -11.5 -54.0 -11.5 -54.0 11.5 54.0 11.5 M54.5 12.0 L-54.5 12.0 -54.5 -12.0 54.5 -12.0 54.5 12.0" fill="#f35001" fill-opacity="0.19607843" fill-rule="evenodd" stroke="none"/>
    <path d="M52.75 -11.3 L53.45 -11.0 53.75 -10.3 53.75 -2.8 53.45 -2.1 Q53.15 -1.8 52.75 -1.8 L-52.75 -1.8 Q-53.15 -1.8 -53.45 -2.1 L-53.75 -2.8 -53.75 -10.3 -53.45 -11.0 -52.75 -11.3 52.75 -11.3" fill="#ffffff" fill-opacity="0.4" fill-rule="evenodd" stroke="none"/>
  </g>
  <defs>
    <linearGradient gradientTransform="matrix(0.0, 0.0159, -1.0, 0.0, 183.95, -0.05)" gradientUnits="userSpaceOnUse" id="gradient0" spreadMethod="pad" x1="-819.2" x2="819.2">
      <stop offset="0.0" stop-color="#ff6600"/>
      <stop offset="1.0" stop-color="#febe01"/>
    </linearGradient>
  </defs>
</svg>
