<?xml version="1.0" encoding="UTF-8" standalone="no"?>
<svg xmlns:xlink="http://www.w3.org/1999/xlink" height="74.25px" width="49.8px" xmlns="http://www.w3.org/2000/svg">
  <g transform="matrix(1.0, 0.0, 0.0, 1.0, 3.35, 3.35)">
    <path d="M26.25 5.8 L24.9 6.75 4.2 2.35 2.85 48.05 3.4 1.1 26.25 5.8" fill="#8debe3" fill-rule="evenodd" stroke="none"/>
    <path d="M24.9 6.75 L26.25 5.8 17.3 48.35 24.9 6.75" fill="#226666" fill-rule="evenodd" stroke="none"/>
    <path d="M0.7 48.0 L1.85 48.05 2.55 0.15 27.35 5.15 18.6 48.35 42.95 48.9 40.15 67.4 0.15 62.45 0.15 48.5" fill="none" stroke="#000000" stroke-linecap="round" stroke-linejoin="round" stroke-width="7.0"/>
    <path d="M17.95 48.85 L42.65 49.3 42.65 49.35 41.1 50.95 1.95 50.0 1.95 60.95 0.5 62.1 0.65 48.5 2.35 48.55 2.9 0.5 26.9 5.4 24.85 6.7 4.15 2.35 3.1 48.55 17.2 48.8 17.95 48.85 M2.35 48.55 L3.1 48.55 2.35 48.55" fill="#8debe3" fill-rule="evenodd" stroke="none"/>
    <path d="M17.2 48.8 L3.1 48.55 4.15 2.35 24.85 6.7 17.2 48.8 M41.1 50.95 L38.25 65.45 1.95 60.95 1.95 50.0 41.1 50.95" fill="url(#gradient0)" fill-rule="evenodd" stroke="none"/>
    <path d="M42.65 49.35 L39.85 67.0 0.5 62.1 1.95 60.95 38.25 65.45 41.1 50.95 42.65 49.35 M26.9 5.4 L17.95 48.85 17.2 48.8 24.85 6.7 26.9 5.4" fill="#226666" fill-rule="evenodd" stroke="none"/>
    <path d="M17.95 48.85 L42.65 49.3 42.65 49.35 39.85 67.0 0.5 62.1 0.65 48.5 2.35 48.55 2.9 0.5 26.9 5.4 17.95 48.85 17.2 48.8 3.1 48.55 2.35 48.55" fill="none" stroke="#1a4d4d" stroke-linecap="round" stroke-linejoin="round" stroke-width="1.0"/>
  </g>
  <defs>
    <linearGradient gradientTransform="matrix(0.0287, 0.0287, -0.5371, 0.5371, 94.35, -39.75)" gradientUnits="userSpaceOnUse" id="gradient0" spreadMethod="pad" x1="-819.2" x2="819.2">
      <stop offset="0.0" stop-color="#32b4b3"/>
      <stop offset="1.0" stop-color="#2c8584"/>
    </linearGradient>
  </defs>
</svg>
