<?xml version="1.0" encoding="UTF-8" standalone="no"?>
<svg xmlns:xlink="http://www.w3.org/1999/xlink" height="33.45px" width="40.9px" xmlns="http://www.w3.org/2000/svg">
  <g transform="matrix(1.0, 0.0, 0.0, 1.0, 3.5, 3.5)">
    <path d="M33.8 1.9 L18.4 26.45 9.3 25.9 9.25 25.3 9.85 23.65 0.0 0.85 0.45 0.45 10.75 0.0 11.05 0.1 15.0 12.45 20.25 1.15 33.45 1.15 Q34.15 1.35 33.8 1.9 Z" fill="none" stroke="#000000" stroke-linecap="round" stroke-linejoin="round" stroke-width="7.0"/>
    <path d="M33.45 1.7 L33.4 1.75 33.45 1.7" fill="#fff8b9" fill-rule="evenodd" stroke="none"/>
    <path d="M33.45 1.7 L33.5 1.7 33.45 1.7" fill="#ffcc00" fill-rule="evenodd" stroke="none"/>
    <path d="M9.55 25.5 L10.4 23.65 0.45 0.95 10.75 0.5 9.9 1.7 2.4 2.45 10.8 22.8 14.45 14.8 14.9 13.8 20.5 1.5 33.45 1.7 33.4 1.75 30.85 2.85 21.4 2.45 10.85 24.55 9.55 25.5 M10.4 23.65 L10.8 22.8 10.4 23.65" fill="#8debe3" fill-rule="evenodd" stroke="none"/>
    <path d="M30.85 2.85 L17.45 24.35 10.85 24.55 21.4 2.45 30.85 2.85 M14.45 14.8 L10.8 22.8 2.4 2.45 9.9 1.7 14.45 14.8" fill="url(#gradient0)" fill-rule="evenodd" stroke="none"/>
    <path d="M33.4 1.75 L17.9 26.15 9.55 25.5 10.85 24.55 17.45 24.35 30.85 2.85 33.4 1.75 M10.75 0.5 L14.9 13.8 14.45 14.8 9.9 1.7 10.75 0.5" fill="#226666" fill-rule="evenodd" stroke="none"/>
    <path d="M33.4 1.75 L17.9 26.15 9.55 25.5 10.4 23.65 0.45 0.95 10.75 0.5 14.9 13.8 20.5 1.5 33.45 1.7 M14.9 13.8 L14.45 14.8 10.8 22.8 10.4 23.65" fill="none" stroke="#1a4d4d" stroke-linecap="round" stroke-linejoin="round" stroke-width="1.0"/>
  </g>
  <defs>
    <linearGradient gradientTransform="matrix(0.0084, 0.0145, -0.0112, 0.0064, 3.9, 17.35)" gradientUnits="userSpaceOnUse" id="gradient0" spreadMethod="pad" x1="-819.2" x2="819.2">
      <stop offset="0.0" stop-color="#32b4b3"/>
      <stop offset="1.0" stop-color="#2c8584"/>
    </linearGradient>
  </defs>
</svg>
