<?xml version="1.0" encoding="UTF-8" standalone="no"?>
<svg xmlns:xlink="http://www.w3.org/1999/xlink" height="36.85px" width="32.1px" xmlns="http://www.w3.org/2000/svg">
  <g transform="matrix(1.0, 0.0, 0.0, 1.0, 16.05, 18.45)">
    <path d="M12.55 -14.5 L11.5 -6.75 11.4 -6.45 -0.95 -5.5 -1.2 -4.0 8.05 -3.9 7.15 2.95 -2.25 2.5 -2.45 3.85 9.3 5.2 9.15 14.9 -3.9 12.35 -4.1 13.15 -12.55 11.35 -9.35 -13.05 -6.3 -13.3 -6.0 -14.1 12.45 -14.95 12.55 -14.5 Z" fill="none" stroke="#000000" stroke-linecap="round" stroke-linejoin="round" stroke-width="7.0"/>
    <path d="M-10.45 10.45 L-10.4 10.45 -5.0 11.6 -5.1 11.9 -10.5 10.65 -10.45 10.45" fill="#ffcc00" fill-rule="evenodd" stroke="none"/>
    <path d="M-5.8 -13.2 L-5.7 -13.75 12.2 -14.55 10.85 -13.5 -5.1 -13.05 -6.0 -6.75 -7.2 -5.6 -6.05 -12.1 -5.8 -13.2 -6.05 -12.1 -8.1 -11.65 -11.3 10.5 -12.15 11.05 -9.0 -12.7 -5.85 -12.85 -5.8 -13.2 M-1.8 -3.5 L7.75 -3.5 6.55 -2.75 -4.45 -2.75 -5.2 1.05 -6.05 1.75 -5.1 -3.5 -2.55 -3.5 -1.8 -3.5 M-3.05 4.25 L-2.9 4.3 9.0 5.65 7.6 6.65 -8.55 4.35 -9.35 9.7 -10.4 10.45 -10.45 10.45 -9.2 3.55 -3.8 4.2 -3.05 4.25" fill="#8debe3" fill-rule="evenodd" stroke="none"/>
    <path d="M-6.05 -12.1 L-7.2 -5.6 -2.2 -5.9 -2.55 -3.5 -5.1 -3.5 -6.05 1.75 -3.45 1.9 -3.8 4.2 -9.2 3.55 -10.45 10.45 -10.5 10.65 -11.3 10.5 -8.1 -11.65 -6.05 -12.1 M-6.0 -6.75 L-5.1 -13.05 10.85 -13.5 10.0 -7.8 -6.0 -6.75 M-5.2 1.05 L-4.45 -2.75 6.55 -2.75 5.95 1.4 -5.2 1.05 M-9.35 9.7 L-8.55 4.35 7.6 6.65 7.6 13.05 -9.35 9.7" fill="url(#gradient0)" fill-rule="evenodd" stroke="none"/>
    <path d="M-7.2 -5.6 L-6.0 -6.75 10.0 -7.8 10.85 -13.5 12.2 -14.55 11.05 -6.85 -1.45 -6.0 -1.8 -3.5 -2.55 -3.5 -2.2 -5.9 -1.45 -6.0 -2.2 -5.9 -7.2 -5.6 M7.75 -3.5 L6.8 2.55 -2.45 2.0 -2.7 2.0 -3.05 4.25 -3.8 4.2 -3.45 1.9 -2.7 2.0 -3.45 1.9 -6.05 1.75 -5.2 1.05 5.95 1.4 6.55 -2.75 7.75 -3.5 M9.0 5.65 L8.75 14.6 -4.3 11.75 -4.45 12.8 -12.15 11.05 -11.3 10.5 -10.5 10.65 -5.1 11.9 -5.0 11.6 -10.4 10.45 -9.35 9.7 7.6 13.05 7.6 6.65 9.0 5.65 M-4.3 11.75 L-5.0 11.6 -4.3 11.75" fill="#226666" fill-rule="evenodd" stroke="none"/>
    <path d="M12.2 -14.55 L-5.7 -13.75 -5.8 -13.2 -6.05 -12.1 -7.2 -5.6 M12.2 -14.55 L11.05 -6.85 -1.45 -6.0 -1.8 -3.5 7.75 -3.5 6.8 2.55 -2.45 2.0 M-2.7 2.0 L-3.05 4.25 -2.9 4.3 9.0 5.65 8.75 14.6 -4.3 11.75 -4.45 12.8 -12.15 11.05 -9.0 -12.7 -5.85 -12.85 M-1.45 -6.0 L-2.2 -5.9 -7.2 -5.6 M-2.55 -3.5 L-1.8 -3.5 M-2.55 -3.5 L-5.1 -3.5 -6.05 1.75 M-3.8 4.2 L-3.05 4.25 M-3.8 4.2 L-9.2 3.55 -10.45 10.45 -10.4 10.45 M-2.7 2.0 L-3.45 1.9 -6.05 1.75 M-5.0 11.6 L-10.4 10.45 M-5.0 11.6 L-4.3 11.75" fill="none" stroke="#1a4d4d" stroke-linecap="round" stroke-linejoin="round" stroke-width="1.0"/>
  </g>
  <defs>
    <linearGradient gradientTransform="matrix(0.0084, 0.0146, -0.0112, 0.0064, -16.95, 11.2)" gradientUnits="userSpaceOnUse" id="gradient0" spreadMethod="pad" x1="-819.2" x2="819.2">
      <stop offset="0.0" stop-color="#32b4b3"/>
      <stop offset="1.0" stop-color="#2c8584"/>
    </linearGradient>
  </defs>
</svg>
