<?xml version="1.0" encoding="UTF-8" standalone="no"?>
<svg xmlns:xlink="http://www.w3.org/1999/xlink" height="75.75px" width="61.6px" xmlns="http://www.w3.org/2000/svg">
  <g transform="matrix(1.0, 0.0, 0.0, 1.0, 30.8, 37.85)">
    <path d="M21.65 -29.9 L21.7 -29.85 Q30.15 -21.7 30.25 -9.5 L30.25 -9.35 Q30.05 -4.15 28.45 0.5 L28.4 0.7 Q26.7 5.25 22.9 9.75 L22.85 9.8 21.8 11.05 23.95 11.05 Q26.8 11.05 28.8 13.05 30.8 15.05 30.8 17.9 L30.8 31.05 Q30.8 33.9 28.8 35.9 26.8 37.9 23.95 37.9 L-23.95 37.9 Q-26.75 37.9 -28.75 35.9 -30.75 33.9 -30.8 31.1 -30.8 28.3 -28.85 26.25 L-13.55 10.4 -13.65 10.55 -10.8 7.4 -10.6 7.25 -7.6 3.9 -7.75 4.1 -4.5 -0.15 -3.5 -1.55 -5.75 -1.15 -22.8 -1.3 Q-25.65 -1.3 -27.65 -3.3 -29.65 -5.3 -29.65 -8.15 -29.65 -22.05 -20.6 -29.9 L-20.75 -29.85 Q-12.3 -37.85 0.85 -37.85 13.4 -37.85 21.65 -29.9 M7.65 16.65 L15.3 9.6 15.3 9.55 17.05 7.9 17.1 7.85 18.6 6.2 18.65 6.15 Q21.75 2.45 23.15 -1.35 24.55 -5.25 24.55 -9.55 24.55 -19.35 17.9 -25.85 L17.85 -25.85 Q11.0 -32.3 0.85 -32.3 -9.95 -32.3 -16.95 -25.8 -24.1 -19.35 -24.1 -8.15 -24.1 -7.65 -23.7 -7.25 L-23.6 -7.15 -22.85 -6.9 -5.75 -6.8 Q-5.35 -6.8 -5.05 -7.0 L-4.8 -7.2 -4.55 -7.6 -4.5 -8.3 -4.75 -9.5 -4.8 -10.3 -4.8 -10.45 Q-4.8 -13.35 -3.35 -15.0 -1.95 -16.6 0.5 -16.55 2.7 -16.55 4.3 -14.65 L4.35 -14.65 Q6.0 -12.75 6.0 -10.1 6.0 -8.2 5.25 -5.9 L5.25 -5.95 3.0 -1.25 0.0 3.15 0.0 3.2 -3.35 7.5 -6.65 11.25 -9.55 14.3 -9.6 14.3 -24.85 30.15 Q-25.2 30.5 -25.2 31.05 L-24.95 31.75 -24.8 31.9 Q-24.45 32.25 -23.95 32.25 L23.9 32.25 Q24.4 32.25 24.8 31.9 L25.15 31.0 25.15 17.9 Q25.15 17.4 24.8 17.05 24.4 16.65 23.9 16.65 L7.65 16.65" fill="#000000" fill-rule="evenodd" stroke="none"/>
    <path d="M-23.6 -7.15 L-23.7 -7.25 Q-24.1 -7.65 -24.1 -8.15 -24.1 -19.35 -16.95 -25.8 -9.95 -32.3 0.85 -32.3 11.0 -32.3 17.85 -25.85 L17.9 -25.85 Q24.55 -19.35 24.55 -9.55 24.55 -5.25 23.15 -1.35 21.75 2.45 18.65 6.15 L18.6 6.2 17.1 7.85 17.05 7.9 15.3 9.55 15.3 9.6 7.65 16.65 3.5 18.75 Q3.15 18.4 3.15 17.9 L3.15 17.85 3.2 17.65 Q3.25 17.25 3.55 17.0 L13.6 7.75 15.3 6.15 15.35 6.1 16.7 4.55 Q19.55 1.2 20.8 -2.2 22.05 -5.65 22.05 -9.55 22.05 -18.25 16.15 -24.05 10.0 -29.8 0.85 -29.8 -8.95 -29.8 -15.25 -23.95 -21.2 -18.5 -21.55 -9.4 L-21.55 -9.35 -23.6 -7.15" fill="url(#gradient0)" fill-rule="evenodd" stroke="none"/>
    <path d="M-21.55 -9.4 Q-21.2 -18.5 -15.25 -23.95 -8.95 -29.8 0.85 -29.8 10.0 -29.8 16.15 -24.05 22.05 -18.25 22.05 -9.55 22.05 -5.65 20.8 -2.2 19.55 1.2 16.7 4.55 L15.35 6.1 15.3 6.15 13.6 7.75 3.55 17.0 Q3.25 17.25 3.2 17.65 L3.15 17.85 3.15 17.9 Q3.15 18.4 3.5 18.75 L3.5 18.8 Q3.75 19.05 4.15 19.15 L4.35 19.15 22.65 19.15 22.65 29.75 -21.0 29.75 -7.8 16.05 -4.85 12.95 -1.45 9.1 2.0 4.65 2.05 4.65 5.15 0.0 7.6 -5.05 7.6 -5.1 Q8.5 -7.8 8.5 -10.1 8.5 -13.75 6.2 -16.3 L6.2 -16.35 Q3.8 -19.05 0.55 -19.05 L0.5 -19.05 Q-3.15 -19.1 -5.25 -16.7 L-5.25 -16.65 -5.2 -16.65 Q-7.3 -14.45 -7.3 -10.45 L-7.3 -10.3 -7.25 -9.3 -21.55 -9.4" fill="url(#gradient1)" fill-rule="evenodd" stroke="none"/>
    <path d="M-23.6 -7.15 L-21.55 -9.35 -21.55 -9.4 -7.25 -9.3 -4.8 -7.2 -5.05 -7.0 Q-5.35 -6.8 -5.75 -6.8 L-22.85 -6.9 -23.6 -7.15 M24.8 17.05 Q25.15 17.4 25.15 17.9 L25.15 31.0 24.8 31.9 Q24.4 32.25 23.9 32.25 L-23.95 32.25 Q-24.45 32.25 -24.8 31.9 L-24.95 31.75 -21.0 29.75 22.65 29.75 22.65 19.15 24.8 17.05 M6.2 -16.35 L6.2 -16.3 6.2 -16.35 M4.15 19.15 Q3.75 19.05 3.5 18.8 L3.5 18.75 3.55 18.8 4.15 19.15 M-5.25 -16.7 L-5.2 -16.65 -5.25 -16.65 -5.25 -16.7" fill="#809c27" fill-rule="evenodd" stroke="none"/>
    <path d="M-24.95 31.75 L-25.2 31.05 Q-25.2 30.5 -24.85 30.15 L-9.6 14.3 -9.55 14.3 -6.65 11.25 -3.35 7.5 0.0 3.2 0.0 3.15 3.0 -1.25 5.25 -5.95 5.25 -5.9 Q6.0 -8.2 6.0 -10.1 6.0 -12.75 4.35 -14.65 L4.3 -14.65 Q2.7 -16.55 0.5 -16.55 -1.95 -16.6 -3.35 -15.0 -4.8 -13.35 -4.8 -10.45 L-4.8 -10.3 -4.75 -9.5 -4.5 -8.3 -4.55 -7.6 -4.8 -7.2 -7.25 -9.3 -7.3 -10.3 -7.3 -10.45 Q-7.3 -14.45 -5.2 -16.65 L-5.25 -16.7 Q-3.15 -19.1 0.5 -19.05 L0.55 -19.05 Q3.8 -19.05 6.2 -16.35 L6.2 -16.3 Q8.5 -13.75 8.5 -10.1 8.5 -7.8 7.6 -5.1 L7.6 -5.05 5.15 0.0 2.05 4.65 2.0 4.65 -1.45 9.1 -4.85 12.95 -7.8 16.05 -21.0 29.75 -24.95 31.75" fill="url(#gradient2)" fill-rule="evenodd" stroke="none"/>
    <path d="M3.5 18.75 L7.65 16.65 23.9 16.65 Q24.4 16.65 24.8 17.05 L22.65 19.15 4.35 19.15 4.15 19.15 3.55 18.8 3.5 18.75" fill="#dcf19a" fill-rule="evenodd" stroke="none"/>
  </g>
  <defs>
    <linearGradient gradientTransform="matrix(0.0059, 0.0055, -0.0214, 0.0226, 0.2, -6.8)" gradientUnits="userSpaceOnUse" id="gradient0" spreadMethod="pad" x1="-819.2" x2="819.2">
      <stop offset="0.0" stop-color="#dcf19a"/>
      <stop offset="1.0" stop-color="#809c27"/>
    </linearGradient>
    <linearGradient gradientTransform="matrix(0.0205, 0.0356, -0.0328, 0.0189, 3.5, 3.4)" gradientUnits="userSpaceOnUse" id="gradient1" spreadMethod="pad" x1="-819.2" x2="819.2">
      <stop offset="0.0" stop-color="#c6e21d"/>
      <stop offset="1.0" stop-color="#99cc33"/>
    </linearGradient>
    <linearGradient gradientTransform="matrix(-0.0038, -0.0037, 0.0216, -0.0221, -7.7, 0.75)" gradientUnits="userSpaceOnUse" id="gradient2" spreadMethod="pad" x1="-819.2" x2="819.2">
      <stop offset="0.0" stop-color="#dcf19a"/>
      <stop offset="1.0" stop-color="#809c27"/>
    </linearGradient>
  </defs>
</svg>
