<?xml version="1.0" encoding="UTF-8" standalone="no"?>
<svg xmlns:xlink="http://www.w3.org/1999/xlink" height="78.15px" width="61.6px" xmlns="http://www.w3.org/2000/svg">
  <g transform="matrix(1.0, 0.0, 0.0, 1.0, 30.75, 39.05)">
    <path d="M5.2 -18.7 L5.25 -18.7 5.2 -18.7 M-7.5 -14.0 L-5.45 -11.85 Q-5.85 -11.5 -6.35 -11.5 L-20.75 -11.6 Q-21.25 -11.6 -21.55 -11.9 L-19.3 -14.05 -19.3 -14.1 -7.5 -14.0 M-3.15 -8.05 L-3.1 -7.95 -3.15 -7.85 Q-3.55 -7.5 -3.55 -7.0 L-3.55 -7.15 -3.3 -7.9 -3.15 -8.05 M-18.7 -23.1 L-18.75 -23.1 -18.7 -23.2 -18.7 -23.1 M-19.4 -22.0 L-19.4 -21.95 -19.5 -21.85 -19.4 -22.0 M-3.05 4.45 L-3.45 3.9 -3.15 4.35 -3.05 4.45 M6.95 4.55 L7.0 4.55 6.95 4.55" fill="#809c27" fill-rule="evenodd" stroke="none"/>
    <path d="M5.2 -18.7 L5.25 -18.7 5.2 -18.7 Q3.1 -20.75 0.0 -20.8 L-0.05 -20.8 Q-3.5 -20.8 -5.45 -18.55 L-5.5 -18.5 Q-7.2 -16.9 -7.5 -14.0 L-19.3 -14.1 -18.75 -16.95 -18.7 -17.0 -17.9 -19.55 -17.85 -19.6 -17.4 -20.5 -17.3 -20.65 -16.6 -21.8 -16.55 -21.85 Q-14.15 -26.1 -9.55 -28.55 -4.95 -31.0 0.45 -30.95 9.15 -31.0 14.25 -26.75 19.15 -22.55 19.2 -15.35 19.15 -11.25 17.8 -8.35 16.45 -5.65 13.45 -3.65 13.05 -3.4 12.95 -2.9 12.8 -2.45 13.05 -2.0 13.3 -1.55 13.8 -1.4 18.0 -0.05 20.3 3.7 L20.3 3.75 Q22.65 7.5 22.7 13.1 22.65 20.85 16.45 25.9 L16.5 25.9 Q10.15 30.95 0.25 31.0 -8.5 30.95 -15.45 25.3 -21.85 20.05 -22.55 11.85 L-9.1 11.85 Q-8.6 15.6 -6.35 17.65 L-6.35 17.7 Q-3.85 20.1 0.75 20.1 4.65 20.1 7.25 17.55 9.8 14.85 9.8 11.0 9.8 7.2 6.95 4.55 L7.0 4.55 6.95 4.55 Q4.15 1.8 0.25 1.8 L-0.05 1.8 -0.35 1.8 -0.7 1.85 -1.05 1.95 -1.05 -5.7 -0.85 -5.7 -0.6 -5.7 Q2.9 -5.7 5.05 -7.85 7.25 -10.1 7.25 -13.65 7.25 -16.8 5.2 -18.7" fill="url(#gradient0)" fill-rule="evenodd" stroke="none"/>
    <path d="M-7.5 -14.0 Q-7.2 -16.9 -5.5 -18.5 L-5.45 -18.55 Q-3.5 -20.8 -0.05 -20.8 L0.0 -20.8 Q3.1 -20.75 5.2 -18.7 7.25 -16.8 7.25 -13.65 7.25 -10.1 5.05 -7.85 2.9 -5.7 -0.6 -5.7 L-0.85 -5.7 -1.05 -5.7 -3.1 -7.95 -3.15 -8.05 -2.6 -8.35 -1.8 -8.3 -1.65 -8.25 -1.35 -8.25 -1.1 -8.2 -0.85 -8.2 -0.6 -8.2 Q1.8 -8.2 3.3 -9.6 L3.25 -9.6 Q4.75 -11.2 4.75 -13.65 4.75 -15.7 3.5 -16.9 2.05 -18.25 -0.05 -18.3 -2.35 -18.3 -3.65 -16.85 L-3.7 -16.8 Q-5.05 -15.4 -5.1 -12.7 -5.1 -12.2 -5.45 -11.85 L-7.5 -14.0" fill="url(#gradient1)" fill-rule="evenodd" stroke="none"/>
    <path d="M-18.7 -23.1 Q-15.95 -28.0 -10.7 -30.75 L-10.75 -30.75 Q-5.65 -33.5 0.45 -33.45 10.15 -33.5 15.85 -28.65 21.65 -23.75 21.7 -15.35 L21.7 -15.3 Q21.65 -10.55 20.05 -7.25 18.9 -4.85 16.7 -2.9 20.25 -1.15 22.45 2.4 L22.4 2.4 Q25.15 6.7 25.2 13.1 25.15 22.05 18.05 27.85 11.15 33.45 0.25 33.5 -9.4 33.45 -17.05 27.25 -24.85 20.85 -25.15 10.7 L-25.15 10.65 -25.15 10.55 -24.8 9.75 -24.75 9.75 -22.55 11.85 Q-21.85 20.05 -15.45 25.3 -8.5 30.95 0.25 31.0 10.15 30.95 16.5 25.9 L16.45 25.9 Q22.65 20.85 22.7 13.1 22.65 7.5 20.3 3.75 L20.3 3.7 Q18.0 -0.05 13.8 -1.4 13.3 -1.55 13.05 -2.0 12.8 -2.45 12.95 -2.9 13.05 -3.4 13.45 -3.65 16.45 -5.65 17.8 -8.35 19.15 -11.25 19.2 -15.35 19.15 -22.55 14.25 -26.75 9.15 -31.0 0.45 -30.95 -4.95 -31.0 -9.55 -28.55 -14.15 -26.1 -16.55 -21.85 L-16.6 -21.8 -17.3 -20.65 -17.4 -20.5 -17.85 -19.6 -17.9 -19.55 -18.7 -17.0 -18.75 -16.95 -19.3 -14.1 -19.3 -14.05 -21.55 -11.9 -21.6 -11.95 Q-22.0 -12.35 -22.0 -12.85 L-21.9 -13.55 -21.9 -13.5 -21.9 -13.65 -21.85 -13.85 -21.15 -17.6 -21.15 -17.55 -20.2 -20.5 -20.2 -20.55 -19.4 -21.95 -19.4 -22.0 -18.75 -23.1 -18.7 -23.1" fill="url(#gradient2)" fill-rule="evenodd" stroke="none"/>
    <path d="M-5.45 -11.85 Q-5.1 -12.2 -5.1 -12.7 -5.05 -15.4 -3.7 -16.8 L-3.65 -16.85 Q-2.35 -18.3 -0.05 -18.3 2.05 -18.25 3.5 -16.9 4.75 -15.7 4.75 -13.65 4.75 -11.2 3.25 -9.6 L3.3 -9.6 Q1.8 -8.2 -0.6 -8.2 L-0.85 -8.2 -1.1 -8.2 -1.35 -8.25 -1.65 -8.25 -1.8 -8.3 -2.6 -8.35 -3.15 -8.05 -3.3 -7.9 -3.55 -7.15 -3.55 -7.0 -3.55 3.4 -3.55 3.45 -3.5 3.8 -3.45 3.9 -3.05 4.45 -2.9 4.55 -2.3 4.7 -1.95 4.65 -1.05 4.45 -0.15 4.3 -0.05 4.3 0.25 4.3 Q3.15 4.3 5.25 6.35 7.3 8.3 7.3 11.0 7.3 13.8 5.5 15.75 L5.45 15.8 Q3.55 17.6 0.75 17.6 -2.7 17.6 -4.6 15.85 L-4.65 15.85 Q-6.5 14.0 -6.75 10.6 L-6.75 10.55 Q-6.8 10.05 -7.1 9.75 L-7.15 9.7 Q-7.35 9.5 -7.5 9.45 L-8.0 9.35 -8.05 9.35 -23.95 9.35 Q-24.45 9.35 -24.75 9.75 L-24.8 9.75 -25.15 10.55 -25.15 10.65 -25.15 10.7 Q-24.85 20.85 -17.05 27.25 -9.4 33.45 0.25 33.5 11.15 33.45 18.05 27.85 25.15 22.05 25.2 13.1 25.15 6.7 22.4 2.4 L22.45 2.4 Q20.25 -1.15 16.7 -2.9 18.9 -4.85 20.05 -7.25 21.65 -10.55 21.7 -15.3 L21.7 -15.35 Q21.65 -23.75 15.85 -28.65 10.15 -33.5 0.45 -33.45 -5.65 -33.5 -10.75 -30.75 L-10.7 -30.75 Q-15.95 -28.0 -18.7 -23.1 L-18.7 -23.2 -18.75 -23.1 -19.4 -22.0 -19.5 -21.85 -19.4 -21.95 -20.2 -20.55 -20.2 -20.5 -21.15 -17.55 -21.15 -17.6 -21.85 -13.85 -21.9 -13.65 -21.9 -13.5 -21.9 -13.55 -22.0 -12.85 Q-22.0 -12.35 -21.6 -11.95 L-21.55 -11.9 Q-21.25 -11.6 -20.75 -11.6 L-6.35 -11.5 Q-5.85 -11.5 -5.45 -11.85 M27.3 -15.3 Q27.3 -9.1 25.15 -4.8 L25.05 -4.65 24.65 -3.85 27.25 -0.4 27.2 -0.55 27.3 -0.4 Q30.7 4.95 30.85 13.05 L30.85 13.25 Q30.7 24.75 21.6 32.2 13.25 39.1 0.35 39.1 -11.35 39.1 -20.6 31.6 L-20.65 31.55 Q-30.3 23.55 -30.75 10.85 -30.8 9.0 -29.9 7.4 -29.0 5.7 -27.4 4.75 -25.8 3.8 -23.9 3.8 L-9.15 3.8 -9.15 3.45 -9.15 -5.8 -20.7 -5.95 Q-23.55 -5.95 -25.55 -7.95 -27.6 -9.95 -27.55 -12.8 L-27.55 -13.25 -27.35 -14.95 -26.55 -18.9 -26.6 -18.8 -25.5 -22.15 -24.3 -24.8 -23.25 -26.4 Q-19.75 -32.4 -13.2 -35.7 L-13.4 -35.6 Q-7.1 -39.05 0.45 -39.05 12.55 -39.05 19.55 -32.85 27.3 -26.4 27.3 -15.3" fill="#000000" fill-rule="evenodd" stroke="none"/>
    <path d="M-3.1 -7.95 L-1.05 -5.7 -1.05 1.95 -3.05 4.45 -3.15 4.35 -3.45 3.9 -3.5 3.8 -3.55 3.45 -3.55 3.4 -3.55 -7.0 Q-3.55 -7.5 -3.15 -7.85 L-3.1 -7.95 M-22.55 11.85 L-24.75 9.75 Q-24.45 9.35 -23.95 9.35 L-8.05 9.35 -8.0 9.35 -7.5 9.45 Q-7.35 9.5 -7.15 9.7 L-9.1 11.85 -22.55 11.85" fill="#dcf19a" fill-rule="evenodd" stroke="none"/>
    <path d="M-7.15 9.7 L-7.1 9.75 Q-6.8 10.05 -6.75 10.55 L-6.75 10.6 Q-6.5 14.0 -4.65 15.85 L-4.6 15.85 Q-2.7 17.6 0.75 17.6 3.55 17.6 5.45 15.8 L5.5 15.75 Q7.3 13.8 7.3 11.0 7.3 8.3 5.25 6.35 3.15 4.3 0.25 4.3 L-0.05 4.3 -0.15 4.3 -1.05 4.45 -1.95 4.65 -2.3 4.7 -2.9 4.55 -3.05 4.45 -1.05 1.95 -0.7 1.85 -0.35 1.8 -0.05 1.8 0.25 1.8 Q4.15 1.8 6.95 4.55 9.8 7.2 9.8 11.0 9.8 14.85 7.25 17.55 4.65 20.1 0.75 20.1 -3.85 20.1 -6.35 17.7 L-6.35 17.65 Q-8.6 15.6 -9.1 11.85 L-7.15 9.7" fill="url(#gradient3)" fill-rule="evenodd" stroke="none"/>
  </g>
  <defs>
    <linearGradient gradientTransform="matrix(0.0195, 0.0338, -0.0341, 0.0197, 0.05, 0.0)" gradientUnits="userSpaceOnUse" id="gradient0" spreadMethod="pad" x1="-819.2" x2="819.2">
      <stop offset="0.0" stop-color="#c6e21d"/>
      <stop offset="1.0" stop-color="#99cc33"/>
    </linearGradient>
    <linearGradient gradientTransform="matrix(-0.0022, -0.0022, 0.0059, -0.0059, 0.35, -13.85)" gradientUnits="userSpaceOnUse" id="gradient1" spreadMethod="pad" x1="-819.2" x2="819.2">
      <stop offset="0.0" stop-color="#dcf19a"/>
      <stop offset="1.0" stop-color="#809c27"/>
    </linearGradient>
    <linearGradient gradientTransform="matrix(0.0047, 0.0022, -0.0165, 0.0349, 0.95, 0.8)" gradientUnits="userSpaceOnUse" id="gradient2" spreadMethod="pad" x1="-819.2" x2="819.2">
      <stop offset="0.0" stop-color="#dcf19a"/>
      <stop offset="1.0" stop-color="#809c27"/>
    </linearGradient>
    <linearGradient gradientTransform="matrix(-0.0018, -0.0018, 0.0081, -0.0081, 1.05, 11.85)" gradientUnits="userSpaceOnUse" id="gradient3" spreadMethod="pad" x1="-819.2" x2="819.2">
      <stop offset="0.0" stop-color="#dcf19a"/>
      <stop offset="1.0" stop-color="#809c27"/>
    </linearGradient>
  </defs>
</svg>
