<?xml version="1.0" encoding="UTF-8" standalone="no"?>
<svg xmlns:xlink="http://www.w3.org/1999/xlink" height="73.35px" width="64.25px" xmlns="http://www.w3.org/2000/svg">
  <g transform="matrix(1.0, 0.0, 0.0, 1.0, 32.1, 36.65)">
    <path d="M-25.95 18.55 L-26.05 18.45 Q-26.45 18.05 -26.45 17.55 L-26.45 7.65 -26.25 7.0 -3.4 -30.5 -2.95 -30.95 -2.35 -31.1 18.0 -31.1 Q18.5 -31.1 18.9 -30.7 L16.75 -28.6 -1.65 -28.6 -23.95 8.05 -23.95 16.3 -25.95 18.55 M19.25 4.45 L25.25 4.45 Q25.75 4.45 26.15 4.85 L24.0 6.95 18.0 6.95 Q17.5 6.95 17.15 6.6 L19.25 4.45 M3.05 30.9 L2.8 30.7 Q2.4 30.3 2.4 29.8 L2.4 18.8 4.55 16.7 Q4.9 17.05 4.9 17.55 L4.9 28.55 3.05 30.9 M-10.15 6.95 L-10.35 6.95 Q-10.85 6.95 -11.2 6.6 L-11.25 6.55 -8.1 4.45 2.4 4.45 2.4 -12.85 3.95 -18.55 4.55 -18.2 4.9 -17.35 4.9 -17.15 4.9 5.7 4.55 6.6 Q4.15 6.95 3.65 6.95 L-10.15 6.95" fill="#dcf19a" fill-rule="evenodd" stroke="none"/>
    <path d="M22.85 -34.65 Q24.85 -32.65 24.85 -29.8 L24.85 -1.1 25.3 -1.1 Q28.15 -1.15 30.15 0.9 32.15 2.9 32.15 5.75 L32.15 17.65 Q32.15 20.45 30.15 22.5 28.15 24.5 25.3 24.5 L24.85 24.5 24.85 29.85 Q24.85 32.7 22.85 34.7 20.8 36.7 18.0 36.7 L3.7 36.7 Q0.85 36.7 -1.15 34.7 -3.2 32.7 -3.15 29.85 L-3.15 24.5 -25.2 24.5 Q-28.1 24.5 -30.1 22.5 -32.1 20.45 -32.1 17.65 L-32.1 7.7 Q-32.1 5.8 -31.05 4.15 L-8.2 -33.35 Q-7.3 -34.9 -5.75 -35.8 -4.15 -36.7 -2.35 -36.65 L18.0 -36.65 Q20.8 -36.65 22.85 -34.65 M18.9 -30.7 Q18.5 -31.1 18.0 -31.1 L-2.35 -31.1 -2.95 -30.95 -3.4 -30.5 -26.25 7.0 -26.45 7.65 -26.45 17.55 Q-26.45 18.05 -26.05 18.45 L-25.95 18.55 -25.2 18.8 2.4 18.8 2.4 29.8 Q2.4 30.3 2.8 30.7 L3.05 30.9 3.65 31.05 18.0 31.05 18.9 30.7 19.25 29.8 19.25 18.8 25.25 18.8 Q25.75 18.8 26.15 18.45 L26.5 17.55 26.5 5.7 Q26.5 5.2 26.15 4.85 25.75 4.45 25.25 4.45 L19.25 4.45 19.25 -29.85 18.9 -30.7 M-8.1 4.45 L2.4 -12.85 2.4 4.45 -8.1 4.45" fill="#000000" fill-rule="evenodd" stroke="none"/>
    <path d="M-25.95 18.55 L-23.95 16.3 3.65 16.3 Q4.15 16.3 4.55 16.7 L2.4 18.8 -25.2 18.8 -25.95 18.55 M16.75 -28.6 L18.9 -30.7 19.25 -29.85 19.25 4.45 17.15 6.6 Q16.75 6.2 16.75 5.7 L16.75 -28.6 M26.15 4.85 Q26.5 5.2 26.5 5.7 L26.5 17.55 26.15 18.45 Q25.75 18.8 25.25 18.8 L19.25 18.8 19.25 29.8 18.9 30.7 18.0 31.05 3.65 31.05 3.05 30.9 4.9 28.55 16.75 28.55 16.75 17.55 Q16.75 17.05 17.15 16.7 17.5 16.3 18.0 16.3 L24.0 16.3 24.0 6.95 26.15 4.85 M-10.15 6.95 L-11.0 6.8 -11.25 6.55 -11.55 6.0 Q-11.7 5.5 -11.4 5.05 L2.6 -18.0 3.35 -18.55 4.3 -18.4 4.9 -17.65 4.9 -17.15 4.9 -17.35 4.55 -18.2 3.95 -18.55 2.4 -12.85 -8.1 4.45 -11.25 6.55 -11.2 6.6 Q-10.85 6.95 -10.35 6.95 L-10.15 6.95" fill="#809c27" fill-rule="evenodd" stroke="none"/>
    <path d="M-23.95 16.3 L-23.95 8.05 -1.65 -28.6 16.75 -28.6 16.75 5.7 Q16.75 6.2 17.15 6.6 17.5 6.95 18.0 6.95 L24.0 6.95 24.0 16.3 18.0 16.3 Q17.5 16.3 17.15 16.7 16.75 17.05 16.75 17.55 L16.75 28.55 4.9 28.55 4.9 17.55 Q4.9 17.05 4.55 16.7 4.15 16.3 3.65 16.3 L-23.95 16.3 M4.9 -17.15 L4.9 -17.65 4.3 -18.4 3.35 -18.55 2.6 -18.0 -11.4 5.05 Q-11.7 5.5 -11.55 6.0 L-11.25 6.55 -11.0 6.8 -10.15 6.95 3.65 6.95 Q4.15 6.95 4.55 6.6 L4.9 5.7 4.9 -17.15" fill="url(#gradient0)" fill-rule="evenodd" stroke="none"/>
  </g>
  <defs>
    <linearGradient gradientTransform="matrix(0.0212, 0.0368, -0.0315, 0.0182, 0.05, 0.0)" gradientUnits="userSpaceOnUse" id="gradient0" spreadMethod="pad" x1="-819.2" x2="819.2">
      <stop offset="0.0" stop-color="#c6e21d"/>
      <stop offset="1.0" stop-color="#99cc33"/>
    </linearGradient>
  </defs>
</svg>
