<?xml version="1.0" encoding="UTF-8" standalone="no"?>
<svg xmlns:xlink="http://www.w3.org/1999/xlink" height="75.2px" width="58.25px" xmlns="http://www.w3.org/2000/svg">
  <g transform="matrix(1.0, 0.0, 0.0, 1.0, 29.1, 37.6)">
    <path d="M-17.5 -35.95 Q-15.55 -37.6 -13.05 -37.6 L17.95 -37.6 Q20.75 -37.6 22.8 -35.6 24.8 -33.6 24.8 -30.75 L24.8 -17.6 Q24.8 -14.75 22.8 -12.75 21.6 -11.6 20.2 -11.1 L20.95 -10.4 Q29.05 -2.6 29.15 9.25 29.15 22.7 20.0 30.3 11.65 37.6 -2.75 37.6 -9.35 37.6 -14.8 36.1 -20.5 34.6 -25.9 31.15 -27.65 30.0 -28.45 28.15 -29.3 26.3 -29.0 24.3 L-26.7 9.75 Q-26.25 7.25 -24.3 5.65 L-23.9 5.3 -24.1 4.95 Q-25.5 2.8 -25.05 0.3 L-19.8 -31.85 Q-19.4 -34.3 -17.5 -35.95 M18.85 -31.65 Q18.45 -32.05 17.95 -32.05 L-13.1 -32.05 -13.9 -31.75 -14.3 -31.0 -19.5 0.9 -19.55 1.1 -19.45 1.75 -19.3 2.05 -18.8 2.45 -17.85 2.5 -15.05 1.5 -14.95 1.5 -12.4 0.65 -9.85 0.35 -9.7 0.35 -7.05 0.15 Q-1.65 0.15 1.85 2.65 5.05 4.95 5.05 8.55 5.0 12.1 2.7 14.4 L2.65 14.4 Q0.15 16.6 -3.85 16.65 L-3.9 16.65 -6.65 16.4 -9.45 15.75 -9.5 15.75 Q-11.8 14.9 -14.1 13.55 -16.5 12.15 -18.9 10.05 L-18.95 10.0 Q-19.15 9.75 -19.4 9.65 L-19.95 9.55 -20.5 9.7 -20.6 9.8 -21.0 10.3 -21.15 10.75 -23.45 25.05 -23.45 25.65 -23.25 26.1 -22.75 26.5 Q-18.2 29.3 -13.4 30.6 -8.55 32.0 -2.8 32.0 9.3 32.0 16.35 25.95 L16.4 25.95 Q23.45 19.85 23.45 9.25 23.45 -0.3 17.1 -6.45 10.75 -12.65 1.1 -12.65 L0.3 -12.65 -0.35 -12.65 -0.5 -12.65 -1.9 -12.5 -1.95 -12.5 -2.3 -12.5 -1.65 -16.35 17.95 -16.35 Q18.45 -16.35 18.85 -16.7 19.2 -17.1 19.2 -17.6 L19.2 -30.8 18.85 -31.65" fill="#000000" fill-rule="evenodd" stroke="none"/>
    <path d="M-19.5 0.9 L-14.3 -31.0 -13.9 -31.75 -13.1 -32.05 17.95 -32.05 Q18.45 -32.05 18.85 -31.65 L16.7 -29.55 -12.05 -29.55 -16.7 -0.6 -16.7 -0.55 -19.1 2.25 -19.3 2.05 Q-19.6 1.6 -19.5 1.1 L-19.5 0.9 M-23.25 26.1 L-23.45 25.65 -23.45 25.15 -23.45 25.05 -21.15 10.75 -21.1 10.6 -21.0 10.3 -20.6 9.8 -20.5 9.7 -19.0 13.1 -19.0 13.15 -20.9 24.75 -23.25 26.1" fill="#dcf19a" fill-rule="evenodd" stroke="none"/>
    <path d="M-19.5 0.9 L-19.5 1.1 Q-19.6 1.6 -19.3 2.05 L-19.45 1.75 -19.55 1.1 -19.5 0.9 M16.7 -29.55 L18.85 -31.65 19.2 -30.8 19.2 -17.6 Q19.2 -17.1 18.85 -16.7 18.45 -16.35 17.95 -16.35 L-1.65 -16.35 -2.3 -12.5 -4.55 -10.1 -4.9 -10.55 -5.0 -11.3 -3.9 -17.8 -3.5 -18.55 Q-3.15 -18.85 -2.7 -18.85 L16.7 -18.85 16.7 -29.55 M-23.45 25.65 L-23.45 25.05 -23.45 25.15 -23.45 25.65 M-21.15 10.75 L-21.0 10.3 -21.1 10.6 -21.15 10.75" fill="#809c27" fill-rule="evenodd" stroke="none"/>
    <path d="M-16.7 -0.6 L-12.05 -29.55 16.7 -29.55 16.7 -18.85 -2.7 -18.85 Q-3.15 -18.85 -3.5 -18.55 L-3.9 -17.8 -5.0 -11.3 -4.9 -10.55 -4.55 -10.1 -4.4 -10.0 -3.65 -9.85 -1.9 -10.0 -1.8 -10.0 -0.2 -10.15 0.3 -10.15 1.1 -10.15 Q9.65 -10.15 15.35 -4.65 20.95 0.8 20.95 9.25 20.95 18.65 14.75 24.05 8.3 29.5 -2.8 29.5 -8.15 29.5 -12.7 28.2 -16.9 27.1 -20.9 24.75 L-19.0 13.15 -15.35 15.7 -15.4 15.7 Q-12.9 17.2 -10.3 18.1 L-7.0 18.9 -3.95 19.15 -3.85 19.15 Q1.2 19.1 4.35 16.25 L4.35 16.2 Q7.5 13.25 7.55 8.6 L7.55 8.55 Q7.55 3.65 3.3 0.6 -0.75 -2.35 -7.05 -2.35 L-10.05 -2.15 -12.85 -1.8 -12.95 -1.8 -15.85 -0.85 -16.7 -0.6" fill="url(#gradient0)" fill-rule="evenodd" stroke="none"/>
    <path d="M-2.3 -12.5 L-1.95 -12.5 -1.9 -12.5 -0.5 -12.65 -0.35 -12.65 0.3 -12.65 1.1 -12.65 Q10.75 -12.65 17.1 -6.45 23.45 -0.3 23.45 9.25 23.45 19.85 16.4 25.95 L16.35 25.95 Q9.3 32.0 -2.8 32.0 -8.55 32.0 -13.4 30.6 -18.2 29.3 -22.75 26.5 L-23.25 26.1 -20.9 24.75 Q-16.9 27.1 -12.7 28.2 -8.15 29.5 -2.8 29.5 8.3 29.5 14.75 24.05 20.95 18.65 20.95 9.25 20.95 0.8 15.35 -4.65 9.65 -10.15 1.1 -10.15 L0.3 -10.15 -0.2 -10.15 -1.8 -10.0 -1.9 -10.0 -3.65 -9.85 -4.4 -10.0 -4.55 -10.1 -2.3 -12.5" fill="url(#gradient1)" fill-rule="evenodd" stroke="none"/>
    <path d="M-19.3 2.05 L-19.1 2.25 -16.7 -0.55 -16.7 -0.6 -15.85 -0.85 -12.95 -1.8 -12.85 -1.8 -10.05 -2.15 -7.05 -2.35 Q-0.75 -2.35 3.3 0.6 7.55 3.65 7.55 8.55 L7.55 8.6 Q7.5 13.25 4.35 16.2 L4.35 16.25 Q1.2 19.1 -3.85 19.15 L-3.95 19.15 -7.0 18.9 -10.3 18.1 Q-12.9 17.2 -15.4 15.7 L-15.35 15.7 -19.0 13.15 -19.0 13.1 -20.5 9.7 -19.95 9.55 -19.4 9.65 Q-19.15 9.75 -18.95 10.0 L-18.9 10.05 Q-16.5 12.15 -14.1 13.55 -11.8 14.9 -9.5 15.75 L-9.45 15.75 -6.65 16.4 -3.9 16.65 -3.85 16.65 Q0.15 16.6 2.65 14.4 L2.7 14.4 Q5.0 12.1 5.05 8.55 5.05 4.95 1.85 2.65 -1.65 0.15 -7.05 0.15 L-9.7 0.35 -9.85 0.35 -12.4 0.65 -14.95 1.5 -15.05 1.5 -17.85 2.5 -18.8 2.45 -19.3 2.05" fill="url(#gradient2)" fill-rule="evenodd" stroke="none"/>
  </g>
  <defs>
    <linearGradient gradientTransform="matrix(0.018, 0.0311, -0.0325, 0.0188, 0.0, 0.0)" gradientUnits="userSpaceOnUse" id="gradient0" spreadMethod="pad" x1="-819.2" x2="819.2">
      <stop offset="0.0" stop-color="#c6e21d"/>
      <stop offset="1.0" stop-color="#99cc33"/>
    </linearGradient>
    <linearGradient gradientTransform="matrix(0.0047, 0.0034, -0.0186, 0.0254, -5.95, 9.2)" gradientUnits="userSpaceOnUse" id="gradient1" spreadMethod="pad" x1="-819.2" x2="819.2">
      <stop offset="0.0" stop-color="#dcf19a"/>
      <stop offset="1.0" stop-color="#809c27"/>
    </linearGradient>
    <linearGradient gradientTransform="matrix(0.0, -0.0028, 0.0151, 0.0, -3.1, 8.45)" gradientUnits="userSpaceOnUse" id="gradient2" spreadMethod="pad" x1="-819.2" x2="819.2">
      <stop offset="0.0" stop-color="#dcf19a"/>
      <stop offset="1.0" stop-color="#809c27"/>
    </linearGradient>
  </defs>
</svg>
