<?xml version="1.0" encoding="UTF-8" standalone="no"?>
<svg xmlns:xlink="http://www.w3.org/1999/xlink" height="75.65px" width="64.25px" xmlns="http://www.w3.org/2000/svg">
  <g transform="matrix(1.0, 0.0, 0.0, 1.0, 32.1, 37.8)">
    <path d="M15.75 -31.55 L11.95 -29.75 -2.35 -29.75 -3.55 -32.1 -3.0 -32.25 14.5 -32.25 14.6 -32.25 15.4 -31.95 15.5 -31.85 15.75 -31.55" fill="#dcf19a" fill-rule="evenodd" stroke="none"/>
    <path d="M11.95 -29.75 L15.75 -31.55 15.85 -31.2 15.85 -31.1 15.85 -31.0 15.55 -30.2 1.35 -13.2 -3.25 -9.9 -3.35 -10.05 -3.6 -10.8 -3.3 -11.55 11.95 -29.75 M-8.15 16.8 L-8.2 16.8 -8.15 16.8" fill="#809c27" fill-rule="evenodd" stroke="none"/>
    <path d="M15.75 -31.55 L15.5 -31.85 15.4 -31.95 14.6 -32.25 14.5 -32.25 -3.0 -32.25 -3.55 -32.1 -4.0 -31.75 -17.2 -14.2 -17.15 -14.25 Q-19.0 -12.05 -20.4 -9.65 -21.85 -7.25 -22.9 -4.85 L-22.9 -4.9 Q-24.7 -1.25 -25.6 2.3 -26.55 5.85 -26.55 8.95 -26.55 19.05 -19.3 25.75 -12.2 32.2 -1.3 32.2 11.3 32.2 18.85 25.85 26.45 19.4 26.45 8.5 26.5 -1.45 20.65 -7.5 14.7 -13.75 5.1 -13.75 L4.6 -13.75 4.05 -13.75 3.85 -13.7 1.35 -13.2 15.55 -30.2 15.85 -31.0 15.85 -31.1 15.85 -31.2 15.75 -31.55 M19.35 -35.9 Q21.3 -34.05 21.5 -31.35 21.65 -28.65 19.9 -26.55 L13.05 -18.3 Q19.85 -16.5 24.75 -11.35 32.15 -3.85 32.15 8.5 32.1 22.05 22.55 30.15 L22.4 30.25 Q13.65 37.7 -1.2 37.85 L-1.3 37.85 Q-14.5 37.7 -22.95 29.95 L-23.0 29.85 Q-32.1 21.6 -32.1 8.95 -32.15 5.1 -30.95 0.85 -30.0 -3.15 -28.0 -7.25 -26.85 -9.95 -25.2 -12.55 L-25.05 -12.7 Q-23.55 -15.2 -21.65 -17.6 L-21.6 -17.65 -8.4 -35.1 Q-7.4 -36.4 -6.0 -37.1 -4.55 -37.8 -2.95 -37.8 L14.65 -37.8 Q17.35 -37.8 19.35 -35.9 M5.8 2.95 Q8.3 5.4 8.3 8.85 L8.3 8.95 Q8.3 12.5 5.75 15.0 3.15 17.5 -0.35 17.55 -3.95 17.5 -6.4 15.05 -8.95 12.5 -8.9 9.0 L-8.9 8.95 Q-8.95 5.45 -6.4 2.95 L-6.4 2.9 Q-3.95 0.35 -0.35 0.35 3.25 0.35 5.75 2.95 L5.8 2.95" fill="#000000" fill-rule="evenodd" stroke="none"/>
    <path d="M-3.55 -32.1 L-2.35 -29.75 -15.2 -12.7 -15.2 -12.65 -18.25 -8.35 -20.65 -3.8 Q-22.3 -0.35 -23.2 2.95 -24.05 6.15 -24.05 8.95 -24.05 17.95 -17.6 23.9 -11.2 29.7 -1.3 29.7 10.3 29.7 17.25 23.95 23.95 18.2 23.95 8.5 24.0 -0.35 18.85 -5.75 13.6 -11.25 5.1 -11.25 L4.6 -11.25 4.05 -11.25 1.6 -10.7 1.65 -10.7 -1.95 -9.55 -2.75 -9.55 -3.25 -9.9 1.35 -13.2 3.85 -13.7 4.05 -13.75 4.6 -13.75 5.1 -13.75 Q14.7 -13.75 20.65 -7.5 26.5 -1.45 26.45 8.5 26.45 19.4 18.85 25.85 11.3 32.2 -1.3 32.2 -12.2 32.2 -19.3 25.75 -26.55 19.05 -26.55 8.95 -26.55 5.85 -25.6 2.3 -24.7 -1.25 -22.9 -4.9 L-22.9 -4.85 Q-21.85 -7.25 -20.4 -9.65 -19.0 -12.05 -17.15 -14.25 L-17.2 -14.2 -4.0 -31.75 -3.55 -32.1" fill="url(#gradient0)" fill-rule="evenodd" stroke="none"/>
    <path d="M-2.35 -29.75 L11.95 -29.75 -3.3 -11.55 -3.6 -10.8 -3.35 -10.05 -3.25 -9.9 -2.75 -9.55 -1.95 -9.55 1.65 -10.7 1.6 -10.7 4.05 -11.25 4.6 -11.25 5.1 -11.25 Q13.6 -11.25 18.85 -5.75 24.0 -0.35 23.95 8.5 23.95 18.2 17.25 23.95 10.3 29.7 -1.3 29.7 -11.2 29.7 -17.6 23.9 -24.05 17.95 -24.05 8.95 -24.05 6.15 -23.2 2.95 -22.3 -0.35 -20.65 -3.8 L-18.25 -8.35 -15.2 -12.65 -15.2 -12.7 -2.35 -29.75 M-8.15 16.8 Q-5.05 20.0 -0.35 20.05 L-0.3 20.05 Q4.15 20.0 7.5 16.8 10.8 13.5 10.8 8.95 L10.8 8.85 Q10.8 4.35 7.55 1.2 L7.55 1.15 Q4.3 -2.15 -0.35 -2.15 -5.0 -2.15 -8.15 1.2 L-8.2 1.2 Q-11.45 4.45 -11.4 8.95 L-11.4 9.0 Q-11.45 13.5 -8.15 16.8 L-8.2 16.8 -8.15 16.8" fill="url(#gradient1)" fill-rule="evenodd" stroke="none"/>
    <path d="M-8.15 16.8 Q-11.45 13.5 -11.4 9.0 L-11.4 8.95 Q-11.45 4.45 -8.2 1.2 L-8.15 1.2 Q-5.0 -2.15 -0.35 -2.15 4.3 -2.15 7.55 1.15 L7.55 1.2 Q10.8 4.35 10.8 8.85 L10.8 8.95 Q10.8 13.5 7.5 16.8 4.15 20.0 -0.3 20.05 L-0.35 20.05 Q-5.05 20.0 -8.15 16.8 M5.8 2.95 L5.75 2.95 Q3.25 0.35 -0.35 0.35 -3.95 0.35 -6.4 2.9 L-6.4 2.95 Q-8.95 5.45 -8.9 8.95 L-8.9 9.0 Q-8.95 12.5 -6.4 15.05 -3.95 17.5 -0.35 17.55 3.15 17.5 5.75 15.0 8.3 12.5 8.3 8.95 L8.3 8.85 Q8.3 5.4 5.8 2.95" fill="url(#gradient2)" fill-rule="evenodd" stroke="none"/>
  </g>
  <defs>
    <linearGradient gradientTransform="matrix(0.0064, 0.0047, -0.0203, 0.0276, -1.05, 10.6)" gradientUnits="userSpaceOnUse" id="gradient0" spreadMethod="pad" x1="-819.2" x2="819.2">
      <stop offset="0.0" stop-color="#dcf19a"/>
      <stop offset="1.0" stop-color="#809c27"/>
    </linearGradient>
    <linearGradient gradientTransform="matrix(0.016, 0.0277, -0.0327, 0.0189, 0.4, 5.2)" gradientUnits="userSpaceOnUse" id="gradient1" spreadMethod="pad" x1="-819.2" x2="819.2">
      <stop offset="0.0" stop-color="#c6e21d"/>
      <stop offset="1.0" stop-color="#99cc33"/>
    </linearGradient>
    <linearGradient gradientTransform="matrix(-0.0023, -0.0023, 0.0096, -0.0096, -0.35, 9.0)" gradientUnits="userSpaceOnUse" id="gradient2" spreadMethod="pad" x1="-819.2" x2="819.2">
      <stop offset="0.0" stop-color="#dcf19a"/>
      <stop offset="1.0" stop-color="#809c27"/>
    </linearGradient>
  </defs>
</svg>
