<?xml version="1.0" encoding="UTF-8" standalone="no"?>
<svg xmlns:xlink="http://www.w3.org/1999/xlink" height="109.8px" width="78.1px" xmlns="http://www.w3.org/2000/svg">
  <g transform="matrix(1.0, 0.0, 0.0, 1.0, 39.45, 62.6)">
    <use height="24.7" transform="matrix(0.507, -0.8587, 0.8587, 0.507, -39.4417, -32.1599)" width="10.6" xlink:href="#sprite0"/>
    <use height="9.85" transform="matrix(0.507, -0.8587, 0.8587, 0.507, -15.9667, -28.0352)" width="17.05" xlink:href="#sprite1"/>
    <use height="24.7" transform="matrix(-0.3784, -0.9215, -0.9215, 0.3784, 38.6363, -27.089)" width="10.6" xlink:href="#sprite0"/>
    <use height="9.85" transform="matrix(-0.3784, -0.9215, -0.9215, 0.3784, 14.8818, -26.4211)" width="17.05" xlink:href="#sprite1"/>
    <use height="42.4" transform="matrix(0.9992, -0.0128, 0.0128, 0.9992, -14.9154, -4.5531)" width="12.5" xlink:href="#sprite2"/>
    <use height="42.4" transform="matrix(-0.9992, -0.0128, -0.0128, 0.9992, 15.4654, -4.1531)" width="12.5" xlink:href="#sprite2"/>
    <use height="48.9" transform="matrix(1.0, 0.0, 0.0, 1.0, -10.1, -43.55)" width="21.15" xlink:href="#sprite3"/>
    <use height="19.25" transform="matrix(0.9857, -0.1651, 0.1651, 0.9857, -11.2504, -58.1023)" width="18.9" xlink:href="#sprite4"/>
    <use height="7.5" transform="matrix(0.791, 0.0, 0.0, 0.7881, -18.1344, 39.4944)" width="48.0" xlink:href="#sprite5"/>
  </g>
  <defs>
    <g id="sprite0" transform="matrix(1.0, 0.0, 0.0, 1.0, 5.3, 12.35)">
      <use height="24.7" transform="matrix(1.0, 0.0, 0.0, 1.0, -5.3, -12.35)" width="10.6" xlink:href="#shape0"/>
    </g>
    <g id="shape0" transform="matrix(1.0, 0.0, 0.0, 1.0, 5.3, 12.35)">
      <path d="M-4.6 -8.1 Q-3.75 -11.05 -1.0 -11.95 L-0.85 -11.9 Q0.1 -10.65 -0.05 -9.0 L-0.25 -6.85 Q-0.9 -6.2 -1.1 -5.2 L-1.05 -5.15 -0.95 -5.1 -0.9 -5.2 -0.2 -6.35 -0.1 -6.4 -0.05 -6.5 Q0.4 -7.0 1.0 -7.3 L1.95 -7.2 2.15 -6.7 Q1.95 -5.8 1.2 -5.25 L0.8 -4.7 Q0.3 -3.1 -1.05 -2.15 L-1.05 -2.05 -1.05 -1.95 -2.1 -1.45 -3.1 -1.3 -3.3 -1.45 -3.4 -1.55 -3.35 -1.6 -3.6 -1.75 -4.0 -2.3 Q-5.4 -5.1 -4.6 -8.1" fill="url(#gradient0)" fill-rule="evenodd" stroke="none"/>
      <path d="M3.55 12.15 L3.4 12.25 2.0 10.15 0.25 6.9 -1.9 1.9 -2.4 0.9 -2.55 0.4 Q-3.85 0.45 -4.05 -0.85 L-3.95 -1.45 -3.9 -1.55 Q-4.45 -2.15 -4.8 -3.05 -5.75 -5.85 -4.8 -8.6 -4.15 -10.5 -2.6 -11.7 -1.8 -12.35 -0.8 -12.35 L-0.65 -12.15 Q0.35 -11.15 0.4 -9.55 0.45 -8.35 0.15 -7.25 L1.2 -7.75 1.3 -7.8 Q2.7 -7.85 2.5 -6.5 L2.05 -5.65 1.2 -4.65 0.5 -3.3 -0.05 -2.4 0.2 -1.45 -0.1 -0.85 -0.45 -0.4 -0.25 0.3 -0.2 0.35 2.25 5.65 4.85 10.15 5.1 10.45 5.3 10.9 5.25 11.0 5.0 11.0 4.4 10.15 Q2.95 8.05 1.8 5.7 L-0.65 0.55 -0.8 -0.15 -2.2 0.35 -1.7 1.6 -1.7 1.65 0.8 7.0 2.45 10.15 3.35 11.7 3.6 12.05 3.55 12.15 M-4.6 -8.1 Q-5.4 -5.1 -4.0 -2.3 L-3.6 -1.75 -3.35 -1.6 -3.4 -1.55 -3.3 -1.45 -3.1 -1.3 -2.1 -1.45 -1.05 -1.95 -1.05 -2.05 -1.05 -2.15 Q0.3 -3.1 0.8 -4.7 L1.2 -5.25 Q1.95 -5.8 2.15 -6.7 L1.95 -7.2 1.0 -7.3 Q0.4 -7.0 -0.05 -6.5 L-0.1 -6.4 -0.2 -6.35 -0.9 -5.2 -0.95 -5.1 -1.05 -5.15 -1.1 -5.2 Q-0.9 -6.2 -0.25 -6.85 L-0.05 -9.0 Q0.1 -10.65 -0.85 -11.9 L-1.0 -11.95 Q-3.75 -11.05 -4.6 -8.1 M-3.55 -1.1 L-3.5 -1.2 -3.6 -1.25 -3.7 -1.05 Q-3.9 -0.5 -3.0 -0.2 L-1.2 -0.3 Q-0.3 -0.7 -0.2 -1.45 L-0.2 -2.05 -0.35 -2.1 -0.5 -2.0 -0.55 -1.9 -0.6 -1.85 -0.8 -1.75 -1.15 -1.45 Q-2.1 -0.8 -3.15 -1.0 L-3.2 -1.0 -3.25 -1.05 -3.5 -1.1 -3.55 -1.1" fill="#000000" fill-rule="evenodd" stroke="none"/>
      <path d="M-3.7 -1.05 L-3.55 -1.1 -3.5 -1.1 -3.25 -1.05 -3.2 -1.0 -3.15 -1.0 Q-2.1 -0.8 -1.15 -1.45 L-0.8 -1.75 -0.6 -1.85 -0.55 -1.9 -0.5 -2.0 -0.35 -2.1 -0.2 -2.05 -0.2 -1.45 Q-0.3 -0.7 -1.2 -0.3 L-3.0 -0.2 Q-3.9 -0.5 -3.7 -1.05" fill="url(#gradient1)" fill-rule="evenodd" stroke="none"/>
      <path d="M5.25 11.0 L5.2 11.55 5.05 11.85 4.65 12.2 4.5 12.3 3.55 12.15 3.6 12.05 3.35 11.7 2.45 10.15 0.8 7.0 -1.7 1.65 -1.7 1.6 -2.2 0.35 -0.8 -0.15 -0.65 0.55 1.8 5.7 Q2.95 8.05 4.4 10.15 L5.0 11.0 5.25 11.0" fill="url(#gradient2)" fill-rule="evenodd" stroke="none"/>
    </g>
    <linearGradient gradientTransform="matrix(-0.0031, 0.0055, -0.0036, -0.0021, -3.3, -2.85)" gradientUnits="userSpaceOnUse" id="gradient0" spreadMethod="pad" x1="-819.2" x2="819.2">
      <stop offset="0.0" stop-color="#ffffff"/>
      <stop offset="1.0" stop-color="#000000"/>
    </linearGradient>
    <linearGradient gradientTransform="matrix(-9.0E-4, 0.0016, -0.0016, -9.0E-4, -3.35, 0.0)" gradientUnits="userSpaceOnUse" id="gradient1" spreadMethod="pad" x1="-819.2" x2="819.2">
      <stop offset="0.0" stop-color="#ffffff"/>
      <stop offset="1.0" stop-color="#000000"/>
    </linearGradient>
    <linearGradient gradientTransform="matrix(-0.0038, 0.0024, -0.0041, -0.0064, 0.85, 7.35)" gradientUnits="userSpaceOnUse" id="gradient2" spreadMethod="pad" x1="-819.2" x2="819.2">
      <stop offset="0.0" stop-color="#236fdd"/>
      <stop offset="1.0" stop-color="#000000"/>
    </linearGradient>
    <g id="sprite1" transform="matrix(1.0, 0.0, 0.0, 1.0, 8.5, 4.9)">
      <use height="9.85" transform="matrix(1.0, 0.0, 0.0, 1.0, -8.5, -4.9)" width="17.05" xlink:href="#shape1"/>
    </g>
    <g id="shape1" transform="matrix(1.0, 0.0, 0.0, 1.0, 8.5, 4.9)">
      <path d="M-6.95 -4.65 L-6.85 -4.8 -6.7 -4.65 -6.65 -4.6 -6.55 -4.5 -6.45 -4.45 Q-4.4 -2.9 -1.9 -1.9 L-1.1 -2.8 -0.95 -2.7 Q1.75 -1.5 4.5 -0.45 5.3 -0.15 5.95 0.35 L7.75 1.65 Q8.5 2.35 8.55 3.35 8.4 4.35 7.4 4.75 L5.7 4.95 5.55 4.95 5.45 4.9 Q2.8 3.75 -0.05 2.95 L-2.8 2.05 -3.0 2.05 -3.05 2.0 -3.1 1.95 -2.9 0.2 Q-5.65 -0.65 -7.95 -2.35 L-8.35 -2.85 -8.3 -2.9 -8.2 -2.95 -7.8 -2.65 Q-5.55 -1.1 -2.95 -0.25 L-2.8 -0.15 -2.1 -1.6 -2.15 -1.65 Q-4.65 -2.6 -6.75 -4.2 -7.05 -4.45 -6.95 -4.65 M7.25 1.7 L5.8 0.7 5.6 0.55 5.55 0.5 -0.2 -1.9 -1.15 -2.4 Q-2.6 -0.55 -2.7 1.8 L2.85 3.5 5.65 4.5 Q6.9 4.75 7.95 3.95 8.5 2.65 7.25 1.7" fill="#000000" fill-rule="evenodd" stroke="none"/>
      <path d="M7.25 1.7 Q8.5 2.65 7.95 3.95 6.9 4.75 5.65 4.5 L2.85 3.5 -2.7 1.8 Q-2.6 -0.55 -1.15 -2.4 L-0.2 -1.9 5.55 0.5 5.6 0.55 5.8 0.7 7.25 1.7" fill="url(#gradient3)" fill-rule="evenodd" stroke="none"/>
      <path d="M-8.3 -2.9 L-8.5 -3.45 Q-8.6 -4.1 -8.15 -4.5 L-8.0 -4.6 Q-7.8 -4.9 -7.4 -4.9 L-7.3 -4.9 -6.95 -4.65 Q-7.05 -4.45 -6.75 -4.2 -4.65 -2.6 -2.15 -1.65 L-2.1 -1.6 -2.8 -0.15 -2.95 -0.25 Q-5.55 -1.1 -7.8 -2.65 L-8.2 -2.95 -8.3 -2.9" fill="url(#gradient4)" fill-rule="evenodd" stroke="none"/>
    </g>
    <linearGradient gradientTransform="matrix(-0.0019, 0.0063, -0.0041, -0.0012, 1.6, 3.3)" gradientUnits="userSpaceOnUse" id="gradient3" spreadMethod="pad" x1="-819.2" x2="819.2">
      <stop offset="0.0" stop-color="#ffd485"/>
      <stop offset="1.0" stop-color="#000000"/>
    </linearGradient>
    <linearGradient gradientTransform="matrix(-3.0E-4, 0.0039, -0.0029, -2.0E-4, -5.65, -1.5)" gradientUnits="userSpaceOnUse" id="gradient4" spreadMethod="pad" x1="-819.2" x2="819.2">
      <stop offset="0.0" stop-color="#236fdd"/>
      <stop offset="1.0" stop-color="#000000"/>
    </linearGradient>
    <g id="sprite2" transform="matrix(1.0, 0.0, 0.0, 1.0, 6.25, 21.2)">
      <use height="42.4" transform="matrix(1.0, 0.0, 0.0, 1.0, -6.25, -21.2)" width="12.5" xlink:href="#shape2"/>
    </g>
    <g id="shape2" transform="matrix(1.0, 0.0, 0.0, 1.0, 6.25, 21.2)">
      <path d="M5.75 -20.05 L5.8 -19.45 Q5.85 -17.65 5.15 -16.0 L4.8 -14.65 Q3.9 -12.25 3.3 -9.85 2.9 -8.65 2.65 -7.45 L1.2 -1.75 Q0.5 1.05 0.3 3.95 L0.2 4.05 0.2 4.1 0.2 4.65 0.05 5.8 0.1 6.2 0.55 7.25 Q1.7 9.85 1.95 12.7 2.25 15.65 0.85 18.25 0.35 18.7 0.15 19.3 L-1.05 20.25 -1.35 19.25 -1.7 18.1 Q-1.95 16.85 -1.55 15.65 -1.4 15.15 -1.6 14.8 L-2.05 15.55 Q-2.45 18.1 -1.35 20.4 L-2.6 20.8 -3.2 20.5 -3.75 20.05 -4.25 19.65 Q-4.95 17.45 -4.1 15.15 L-4.0 14.4 Q-4.75 15.25 -4.95 16.45 -5.15 17.8 -4.8 18.95 L-5.05 18.55 Q-6.3 15.75 -5.5 12.75 L-4.0 8.2 Q-3.1 5.7 -2.9 3.15 L-2.8 2.65 -1.55 -3.1 -0.65 -6.65 0.4 -11.1 0.55 -11.4 Q1.15 -14.3 2.05 -17.1 2.75 -19.25 4.5 -20.75 5.3 -20.9 5.75 -20.05" fill="url(#gradient5)" fill-rule="evenodd" stroke="none"/>
      <path d="M5.75 -20.05 Q5.3 -20.9 4.5 -20.75 2.75 -19.25 2.05 -17.1 1.15 -14.3 0.55 -11.4 L0.4 -11.1 -0.65 -6.65 -1.55 -3.1 -2.8 2.65 -2.9 3.15 Q-3.1 5.7 -4.0 8.2 L-5.5 12.75 Q-6.3 15.75 -5.05 18.55 L-4.8 18.95 Q-5.15 17.8 -4.95 16.45 -4.75 15.25 -4.0 14.4 L-4.1 15.15 Q-4.95 17.45 -4.25 19.65 L-3.75 20.05 -3.2 20.5 -2.6 20.8 -1.35 20.4 Q-2.45 18.1 -2.05 15.55 L-1.6 14.8 Q-1.4 15.15 -1.55 15.65 -1.95 16.85 -1.7 18.1 L-1.35 19.25 -1.05 20.25 0.15 19.3 Q0.35 18.7 0.85 18.25 2.25 15.65 1.95 12.7 1.7 9.85 0.55 7.25 L0.1 6.2 0.05 5.8 0.2 4.65 0.2 4.1 0.2 4.05 0.3 3.95 Q0.5 1.05 1.2 -1.75 L2.65 -7.45 Q2.9 -8.65 3.3 -9.85 3.9 -12.25 4.8 -14.65 L5.15 -16.0 Q5.85 -17.65 5.8 -19.45 L5.75 -20.05 M4.85 -21.2 Q6.45 -20.7 6.25 -19.0 L5.55 -15.85 3.95 -10.65 3.65 -9.85 2.5 -5.25 1.2 0.5 Q0.9 1.85 0.75 3.25 L0.7 4.3 0.45 5.7 Q0.4 6.4 0.85 6.95 L1.2 7.6 Q2.2 10.4 2.35 13.4 2.55 16.3 1.0 18.65 L0.7 19.3 Q-0.6 20.8 -2.6 21.2 L-2.8 21.1 Q-3.45 20.95 -4.0 20.4 L-4.1 20.3 Q-6.5 18.2 -6.2 14.9 -5.9 12.0 -4.8 9.25 -3.8 6.65 -3.35 3.95 L-3.4 3.9 -3.25 3.0 -3.15 2.4 -3.1 2.4 -2.25 -1.75 -0.9 -7.5 0.15 -11.7 0.25 -12.3 1.85 -17.55 Q2.55 -19.5 4.05 -20.85 L4.1 -20.9 4.15 -20.95 4.3 -21.0 4.65 -21.15 4.85 -21.2" fill="#000000" fill-rule="evenodd" stroke="none"/>
    </g>
    <linearGradient gradientTransform="matrix(0.007, 8.0E-4, -0.0027, 0.0252, 2.15, -1.15)" gradientUnits="userSpaceOnUse" id="gradient5" spreadMethod="pad" x1="-819.2" x2="819.2">
      <stop offset="0.0" stop-color="#236fdd"/>
      <stop offset="1.0" stop-color="#000000"/>
    </linearGradient>
    <g id="sprite3" transform="matrix(1.0, 0.0, 0.0, 1.0, 10.55, 24.45)">
      <use height="48.9" transform="matrix(1.0, 0.0, 0.0, 1.0, -10.55, -24.45)" width="21.15" xlink:href="#shape3"/>
    </g>
    <g id="shape3" transform="matrix(1.0, 0.0, 0.0, 1.0, 10.55, 24.45)">
      <path d="M-0.2 -24.0 L0.15 -23.5 Q0.75 -21.6 0.8 -19.6 L0.5 -19.2 -0.05 -19.1 Q-0.8 -19.1 -1.35 -19.5 L-1.35 -19.65 -1.4 -19.75 -1.4 -19.8 -1.4 -19.9 -1.45 -20.15 -1.6 -21.5 -1.4 -23.05 Q-1.15 -24.1 -0.2 -24.0" fill="#10356a" fill-rule="evenodd" stroke="none"/>
      <path d="M-0.2 -24.0 Q-1.15 -24.1 -1.4 -23.05 L-1.6 -21.5 -1.45 -20.15 -1.4 -19.9 -1.4 -19.8 -1.4 -19.75 -1.35 -19.65 -1.35 -19.5 Q-0.8 -19.1 -0.05 -19.1 L0.5 -19.2 0.8 -19.6 Q0.75 -21.6 0.15 -23.5 L-0.2 -24.0 M-1.8 -23.25 Q-1.4 -24.4 -0.2 -24.45 1.0 -23.55 1.05 -21.95 L1.15 -20.3 Q2.4 -20.2 3.1 -19.3 L3.25 -18.95 3.85 -16.8 4.8 -10.95 4.95 -9.8 Q5.25 -9.05 5.15 -8.15 L5.15 -8.1 6.0 -2.35 6.6 3.0 7.15 5.15 Q7.45 6.75 7.35 8.3 L7.45 8.45 7.4 8.55 7.4 8.65 7.35 8.75 Q7.75 11.65 8.6 14.45 L9.75 18.75 10.6 21.5 10.1 22.05 10.05 22.1 Q7.3 23.8 4.05 24.3 L2.55 24.15 2.25 24.1 0.6 19.3 0.25 18.35 0.2 18.25 -0.05 17.55 -2.0 22.6 -2.4 23.85 -2.5 24.25 -2.6 24.3 -2.7 24.35 -2.75 24.4 Q-6.25 24.75 -9.0 22.65 -10.6 21.45 -10.55 19.65 L-10.45 19.25 Q-9.0 16.65 -8.1 13.8 L-7.0 9.75 -6.25 7.9 -6.4 7.45 -6.25 5.2 -6.0 3.35 -5.8 2.25 -5.5 -2.45 -5.4 -4.7 -5.0 -8.3 -4.9 -10.25 -4.15 -16.15 Q-4.0 -16.95 -4.0 -17.8 -3.95 -18.8 -3.3 -19.5 L-2.65 -19.85 -1.8 -20.1 -2.05 -22.0 -1.8 -23.25 M-1.8 -19.65 L-1.7 -19.75 -1.75 -19.8 -1.85 -19.75 -3.1 -19.3 Q-3.65 -18.2 -3.7 -16.9 L-4.0 -14.35 -4.65 -8.5 -4.65 -8.35 -4.7 -8.35 -5.05 -3.35 -5.25 0.35 -5.5 2.75 -5.75 4.6 Q-6.1 6.3 -5.8 7.95 L-5.7 8.2 Q-3.4 10.05 -0.4 10.25 L-0.15 10.3 0.2 10.3 2.85 10.2 Q4.7 10.0 6.2 9.05 L7.05 8.3 Q6.9 5.8 6.4 3.4 L6.35 3.35 6.3 3.3 6.2 2.65 6.2 2.6 5.55 -2.45 4.75 -8.15 4.8 -8.3 4.75 -8.8 4.5 -10.45 3.55 -16.25 3.05 -18.45 Q2.8 -19.7 1.45 -19.85 1.3 -19.85 1.2 -19.95 L1.2 -19.85 1.1 -19.45 Q0.8 -18.7 -0.05 -18.7 L-0.55 -18.75 Q-1.45 -18.9 -1.8 -19.65 M0.15 17.35 L0.25 17.5 1.1 19.8 1.25 20.15 Q2.05 21.9 2.5 23.8 4.65 24.2 6.75 23.25 L7.55 22.95 9.35 22.15 9.7 21.8 9.75 21.75 9.85 21.65 9.9 21.6 9.95 21.6 10.2 21.35 Q9.1 18.6 8.5 15.7 L7.8 12.75 7.3 10.55 7.0 8.95 Q5.55 10.25 3.5 10.5 L0.2 10.6 -0.15 10.55 -1.85 10.35 Q-4.4 9.95 -6.0 8.2 L-7.65 13.5 Q-8.5 16.35 -9.95 18.95 L-10.25 20.0 -9.9 20.95 Q-7.8 24.0 -4.1 23.9 L-2.8 24.05 -2.55 23.05 -2.5 22.9 -0.45 17.45 -0.2 17.05 -0.1 17.0 0.05 17.1 0.1 17.15 0.1 17.25 0.15 17.35" fill="#000000" fill-rule="evenodd" stroke="none"/>
      <path d="M-1.85 -19.75 L-1.8 -19.65 Q-1.45 -18.9 -0.55 -18.75 L-0.05 -18.7 0.2 10.3 -0.15 10.3 -0.4 10.25 Q-3.4 10.05 -5.7 8.2 L-5.8 7.95 Q-6.1 6.3 -5.75 4.6 L-5.5 2.75 -5.25 0.35 -5.05 -3.35 -4.7 -8.35 -4.65 -8.35 -4.65 -8.5 -4.0 -14.35 -3.7 -16.9 Q-3.65 -18.2 -3.1 -19.3 L-1.85 -19.75" fill="url(#gradient6)" fill-rule="evenodd" stroke="none"/>
      <path d="M0.2 10.3 L-0.05 -18.7 Q0.8 -18.7 1.1 -19.45 L1.2 -19.85 1.2 -19.95 Q1.3 -19.85 1.45 -19.85 2.8 -19.7 3.05 -18.45 L3.55 -16.25 4.5 -10.45 4.75 -8.8 4.8 -8.3 4.75 -8.15 5.55 -2.45 6.2 2.6 6.2 2.65 6.3 3.3 6.35 3.35 6.4 3.4 Q6.9 5.8 7.05 8.3 L6.2 9.05 Q4.7 10.0 2.85 10.2 L0.2 10.3" fill="url(#gradient7)" fill-rule="evenodd" stroke="none"/>
      <path d="M-0.15 10.55 L0.2 10.6 3.5 10.5 Q5.55 10.25 7.0 8.95 L7.3 10.55 7.8 12.75 8.5 15.7 Q9.1 18.6 10.2 21.35 L9.95 21.6 9.9 21.6 9.85 21.65 9.75 21.75 9.7 21.8 9.35 22.15 7.55 22.95 6.75 23.25 Q4.65 24.2 2.5 23.8 2.05 21.9 1.25 20.15 L1.1 19.8 0.25 17.5 0.15 17.35 0.15 17.15 -0.15 10.55" fill="url(#gradient8)" fill-rule="evenodd" stroke="none"/>
      <path d="M-0.15 10.55 L0.15 17.15 0.1 17.15 0.05 17.1 -0.1 17.0 -0.2 17.05 -0.45 17.45 -2.5 22.9 -2.55 23.05 -2.8 24.05 -4.1 23.9 Q-7.8 24.0 -9.9 20.95 L-10.25 20.0 -9.95 18.95 Q-8.5 16.35 -7.65 13.5 L-6.0 8.2 Q-4.4 9.95 -1.85 10.35 L-0.15 10.55" fill="url(#gradient9)" fill-rule="evenodd" stroke="none"/>
    </g>
    <linearGradient gradientTransform="matrix(-0.0066, -3.0E-4, 7.0E-4, -0.0183, -5.1, -5.15)" gradientUnits="userSpaceOnUse" id="gradient6" spreadMethod="pad" x1="-819.2" x2="819.2">
      <stop offset="0.0" stop-color="#ffd485"/>
      <stop offset="1.0" stop-color="#000000"/>
    </linearGradient>
    <linearGradient gradientTransform="matrix(0.0067, -0.0011, 0.0031, 0.0182, 6.35, -2.95)" gradientUnits="userSpaceOnUse" id="gradient7" spreadMethod="pad" x1="-819.2" x2="819.2">
      <stop offset="0.0" stop-color="#ffd485"/>
      <stop offset="1.0" stop-color="#000000"/>
    </linearGradient>
    <linearGradient gradientTransform="matrix(0.0056, -0.0012, 0.0018, 0.0085, 8.5, 16.05)" gradientUnits="userSpaceOnUse" id="gradient8" spreadMethod="pad" x1="-819.2" x2="819.2">
      <stop offset="0.0" stop-color="#e57026"/>
      <stop offset="1.0" stop-color="#000000"/>
    </linearGradient>
    <linearGradient gradientTransform="matrix(-0.0062, -0.0013, 0.002, -0.0095, -9.65, 16.85)" gradientUnits="userSpaceOnUse" id="gradient9" spreadMethod="pad" x1="-819.2" x2="819.2">
      <stop offset="0.0" stop-color="#e57026"/>
      <stop offset="1.0" stop-color="#000000"/>
    </linearGradient>
    <g id="sprite4" transform="matrix(1.0, 0.0, 0.0, 1.0, 9.45, 9.6)">
      <use height="19.25" transform="matrix(1.0, 0.0, 0.0, 1.0, -9.45, -9.6)" width="18.9" xlink:href="#shape4"/>
    </g>
    <g id="shape4" transform="matrix(1.0, 0.0, 0.0, 1.0, 9.45, 9.6)">
      <path d="M7.35 -8.95 L7.5 -8.85 7.5 -8.9 7.55 -8.8 7.55 -8.75 7.65 -7.6 Q7.55 -5.65 6.35 -4.15 L5.4 -3.3 5.8 -1.5 Q6.8 1.3 9.3 2.6 L9.4 2.65 9.45 2.7 9.4 2.8 9.25 3.85 8.45 5.05 7.65 5.65 7.05 6.5 Q6.3 7.05 5.45 7.3 4.4 8.75 2.55 9.3 L-0.15 9.65 Q-1.65 9.55 -3.1 8.85 L-5.5 7.7 -5.5 7.6 -6.15 7.45 -6.6 7.25 Q-7.6 6.5 -7.75 5.45 -8.85 4.8 -9.3 3.6 L-9.35 3.55 -9.45 3.4 Q-6.85 1.3 -6.05 -2.05 L-5.75 -3.15 Q-7.7 -4.5 -8.0 -6.85 L-8.1 -8.3 -7.85 -8.65 -7.8 -8.7 -7.75 -8.7 -7.65 -8.65 -4.7 -8.55 -4.2 -8.55 -3.45 -8.2 Q-3.05 -8.85 -2.25 -9.15 L-0.65 -9.6 -0.5 -9.6 Q1.7 -9.7 2.95 -8.0 4.15 -9.1 6.0 -8.8 L7.35 -8.95 M-0.5 -9.15 L-1.5 -8.95 Q-2.55 -8.65 -3.35 -7.95 L-3.4 -7.9 -3.4 -7.8 -3.5 -7.8 -3.65 -7.8 -3.7 -7.85 -3.75 -7.9 -3.75 -7.95 -6.9 -8.25 -7.65 -8.35 -7.7 -8.4 -7.7 -8.35 Q-7.8 -5.85 -6.1 -4.0 L-5.65 -3.55 -4.2 -6.95 Q-5.05 -7.7 -6.3 -7.55 L-7.15 -7.65 -7.3 -7.95 -7.25 -8.0 -7.2 -8.0 -5.15 -7.7 -4.25 -7.5 -4.1 -7.45 -3.95 -7.25 -3.85 -7.35 -3.75 -7.3 -3.7 -7.25 Q-5.05 -4.7 -5.7 -1.8 -6.45 1.2 -8.7 3.3 L-8.95 3.4 -9.0 3.45 -7.75 5.1 -7.6 4.2 -6.95 3.3 Q-5.75 2.5 -4.3 2.3 -5.3 1.2 -5.15 -0.4 -5.05 -1.7 -4.05 -2.3 L-4.05 -2.35 -3.65 -2.6 -3.15 -2.65 Q-1.1 -2.6 -0.65 -0.65 -0.4 0.35 -0.55 1.35 L-0.3 1.35 0.7 1.45 Q0.45 0.95 0.5 0.3 0.7 -2.05 3.0 -2.75 L3.05 -2.75 3.35 -2.7 Q5.15 -2.5 5.2 -0.55 5.2 1.45 3.6 2.6 L3.7 2.65 3.75 2.6 3.85 2.55 Q5.6 2.3 6.85 3.3 7.8 4.05 7.7 5.3 8.35 4.75 8.6 4.0 L9.2 2.85 Q6.2 1.45 5.35 -1.7 L5.0 -3.2 4.95 -3.2 4.85 -3.35 4.95 -3.4 4.8 -4.35 4.75 -4.4 4.75 -4.45 4.65 -4.75 4.6 -5.0 4.55 -5.0 4.55 -5.05 4.5 -5.15 4.5 -5.2 3.9 -6.35 3.85 -6.65 3.5 -7.0 3.45 -7.1 3.2 -7.25 3.1 -7.5 3.2 -7.6 3.75 -7.1 3.75 -7.15 Q4.5 -7.15 5.2 -7.65 5.7 -8.1 6.35 -8.15 6.75 -8.2 7.0 -7.9 L7.0 -7.85 6.95 -7.85 6.95 -7.8 6.9 -7.8 6.85 -7.75 Q5.5 -7.85 4.4 -6.9 L4.05 -6.75 4.95 -5.0 5.3 -3.65 Q7.45 -5.5 7.25 -8.35 L7.25 -8.45 6.1 -8.3 Q4.35 -8.65 2.95 -7.7 L2.85 -7.75 2.75 -7.8 2.7 -7.85 2.65 -7.9 Q1.35 -9.35 -0.5 -9.15 M-2.75 -3.75 L-2.7 -3.7 -2.75 -3.65 -2.75 -3.6 -2.8 -3.55 Q-3.85 -3.85 -4.55 -3.0 L-4.75 -2.75 -4.75 -2.65 -4.75 -2.5 -4.8 -2.5 -4.8 -2.45 -4.9 -2.45 -5.0 -2.45 -5.0 -2.5 -5.05 -2.6 -5.1 -2.65 -4.85 -3.25 -4.45 -3.6 -4.45 -3.65 -3.5 -4.0 Q-3.0 -4.1 -2.75 -3.75 M-4.55 -1.25 L-4.75 -0.2 -3.9 -1.15 Q-3.1 -1.75 -2.15 -1.9 L-1.9 -1.9 -2.35 -2.15 -3.5 -2.25 -4.45 -1.4 -4.55 -1.25 M-3.8 2.3 Q-3.35 1.95 -2.8 1.75 L-3.05 1.3 -1.85 0.55 -1.9 0.55 -2.0 0.45 -3.15 0.65 -2.85 -0.55 -2.8 -0.6 -2.8 -0.7 -2.75 -0.7 -2.4 -0.95 -2.2 -0.95 Q-1.5 -0.9 -1.25 -0.3 L-1.2 -0.25 -1.1 0.75 -1.0 1.25 -1.0 1.35 -0.85 1.35 Q-0.8 -0.15 -1.55 -1.45 -2.75 -1.75 -3.75 -0.85 L-4.7 0.45 -4.15 1.9 -3.85 2.2 -3.8 2.3 M-5.85 3.1 Q-7.5 3.7 -7.35 5.25 -7.3 6.05 -6.7 6.65 -5.65 7.6 -4.15 7.5 -2.7 7.4 -1.45 6.75 L-0.35 6.45 -0.25 6.45 -0.25 5.2 -0.15 4.45 -0.25 4.45 -0.65 4.3 Q-2.3 3.65 -2.6 2.05 L-2.8 2.1 -3.7 2.75 -4.6 3.3 -4.65 3.25 -4.65 3.15 -4.05 2.55 -4.1 2.5 -5.85 3.1 M-1.95 2.7 Q-1.35 3.75 -0.25 3.9 L0.3 3.9 0.85 3.65 1.8 2.7 2.0 2.15 1.0 1.9 0.95 1.9 -0.3 1.75 -2.3 1.95 -2.3 2.05 -1.95 2.7 M1.05 1.5 L1.75 1.7 1.55 0.95 2.65 0.7 2.7 0.7 1.8 0.35 1.6 0.3 1.8 -0.25 Q2.0 -0.75 2.45 -1.0 L2.7 -0.9 Q3.7 -0.2 3.65 1.1 L3.65 1.15 3.2 2.35 3.45 2.5 4.15 1.45 4.6 0.6 4.55 0.55 4.5 0.45 4.4 0.1 4.3 -0.35 4.25 -0.35 4.2 -0.4 4.2 -0.45 4.1 -0.65 4.05 -0.7 4.05 -0.75 4.0 -0.8 3.95 -0.8 Q3.85 -0.9 3.9 -0.95 2.8 -1.75 1.5 -1.35 L1.4 -1.3 1.0 -0.05 Q0.85 0.7 1.05 1.45 L1.05 1.5 M2.7 -4.15 L3.1 -4.2 Q4.4 -4.25 4.8 -3.1 L4.8 -3.0 4.75 -2.95 4.65 -2.85 Q3.9 -4.3 2.35 -3.6 L2.25 -3.6 2.2 -3.7 2.2 -3.75 2.7 -4.15 M2.05 -1.8 Q3.25 -1.95 4.15 -1.15 L4.2 -1.1 4.2 -1.0 4.25 -0.95 4.3 -0.95 4.35 -0.9 4.4 -0.7 4.65 -0.45 4.8 0.0 4.8 -0.7 Q4.75 -2.35 3.05 -2.35 L2.8 -2.35 2.0 -1.9 1.85 -1.75 2.05 -1.8 M0.2 4.45 L0.05 6.45 3.5 6.9 6.1 6.65 Q7.35 6.15 7.35 4.9 L7.25 4.45 Q7.0 3.7 6.35 3.25 L4.05 2.95 4.45 3.3 4.6 3.75 4.55 3.8 4.5 3.8 4.4 3.8 4.05 3.35 3.0 2.65 2.95 2.6 2.85 2.55 2.8 2.5 2.35 2.3 Q1.85 3.8 0.25 4.35 L0.2 4.4 0.2 4.45 M4.7 4.35 L4.7 4.4 4.6 4.55 4.5 4.6 Q4.25 4.55 4.35 4.35 L4.45 4.25 4.5 4.2 4.7 4.35 M4.25 6.0 L4.0 5.65 4.15 5.55 4.2 5.5 4.3 5.55 4.35 5.6 4.4 5.75 4.45 5.85 4.3 5.95 4.25 6.0 M2.7 4.05 L2.9 4.2 2.9 4.25 2.8 4.4 2.7 4.45 Q2.45 4.4 2.55 4.2 L2.65 4.1 2.7 4.05 M2.8 5.65 L2.7 5.8 2.6 5.85 Q2.35 5.8 2.45 5.6 L2.55 5.5 2.6 5.45 2.8 5.6 2.8 5.65 M2.65 7.25 Q1.25 8.15 -0.2 8.0 L-2.0 7.45 -4.45 7.7 -3.85 8.0 Q-2.1 9.1 -0.15 9.2 L2.65 8.8 Q4.0 8.4 4.95 7.4 L2.7 7.25 2.65 7.25 M-0.1 6.8 L-0.2 6.75 -1.55 7.35 -0.2 7.65 Q1.0 7.7 2.1 7.1 L0.0 6.7 -0.05 6.8 -0.1 6.8 M-3.1 4.15 L-3.05 4.2 -3.35 4.55 -3.4 4.55 Q-3.7 4.3 -3.35 4.05 L-3.3 4.0 -3.1 4.15 M-2.95 5.55 L-2.8 5.5 Q-2.6 5.55 -2.65 5.7 L-2.65 5.75 -2.95 5.7 -2.95 5.6 -2.95 5.55 M-4.55 4.5 L-4.5 4.6 -4.65 4.85 -4.7 4.9 Q-4.95 4.9 -5.0 4.65 L-4.95 4.5 -4.85 4.4 -4.8 4.4 -4.75 4.35 -4.65 4.4 -4.6 4.45 -4.55 4.5 M-4.2 6.2 L-4.35 5.85 -4.35 5.8 -4.2 5.65 -4.15 5.65 -3.9 5.85 -3.9 5.9 -4.2 6.2" fill="#000000" fill-rule="evenodd" stroke="none"/>
      <path d="M-7.65 -8.35 L-6.9 -8.25 -3.75 -7.95 -3.75 -7.9 -3.7 -7.85 -3.65 -7.8 -3.5 -7.8 -3.4 -7.8 -3.4 -7.9 -3.35 -7.95 Q-2.55 -8.65 -1.5 -8.95 L-0.5 -9.15 -0.3 1.35 -0.55 1.35 Q-0.4 0.35 -0.65 -0.65 -1.1 -2.6 -3.15 -2.65 L-3.65 -2.6 -4.05 -2.35 -4.05 -2.3 Q-5.05 -1.7 -5.15 -0.4 -5.3 1.2 -4.3 2.3 -5.75 2.5 -6.95 3.3 L-7.6 4.2 -7.75 5.1 -9.0 3.45 -8.95 3.4 -8.7 3.3 Q-6.45 1.2 -5.7 -1.8 -5.05 -4.7 -3.7 -7.25 L-3.75 -7.3 -3.85 -7.35 -3.95 -7.25 -4.1 -7.45 -4.25 -7.5 -5.15 -7.7 -7.2 -8.0 -7.25 -8.0 -7.3 -7.95 -7.15 -7.65 -6.3 -7.55 Q-5.05 -7.7 -4.2 -6.95 L-5.65 -3.55 -6.1 -4.0 Q-7.8 -5.85 -7.7 -8.35 L-7.65 -8.35 M-2.75 -3.75 Q-3.0 -4.1 -3.5 -4.0 L-4.45 -3.65 -4.45 -3.6 -4.85 -3.25 -5.1 -2.65 -5.05 -2.6 -5.0 -2.5 -5.0 -2.45 -4.9 -2.45 -4.8 -2.45 -4.8 -2.5 -4.75 -2.5 -4.75 -2.65 -4.75 -2.75 -4.55 -3.0 Q-3.85 -3.85 -2.8 -3.55 L-2.75 -3.6 -2.75 -3.65 -2.7 -3.7 -2.75 -3.75" fill="url(#gradient10)" fill-rule="evenodd" stroke="none"/>
      <path d="M-4.55 -1.25 L-4.45 -1.4 -3.5 -2.25 -2.35 -2.15 -1.9 -1.9 -2.15 -1.9 Q-3.1 -1.75 -3.9 -1.15 L-4.75 -0.2 -4.55 -1.25 M2.0 -1.9 L2.8 -2.35 3.05 -2.35 Q4.75 -2.35 4.8 -0.7 L4.8 0.0 4.65 -0.45 4.4 -0.7 4.35 -0.9 4.3 -0.95 4.25 -0.95 4.2 -1.0 4.2 -1.1 4.15 -1.15 Q3.25 -1.95 2.05 -1.8 L2.0 -1.9" fill="#1d5ebb" fill-rule="evenodd" stroke="none"/>
      <path d="M-3.8 2.3 L-3.85 2.2 -4.15 1.9 -4.7 0.45 -3.75 -0.85 Q-2.75 -1.75 -1.55 -1.45 -0.8 -0.15 -0.85 1.35 L-1.0 1.35 -1.0 1.25 -1.1 0.75 -1.2 -0.25 -1.25 -0.3 Q-1.5 -0.9 -2.2 -0.95 L-2.4 -0.95 -2.75 -0.7 -2.8 -0.7 -2.8 -0.6 -2.85 -0.55 -3.15 0.65 -2.0 0.45 -1.9 0.55 -1.85 0.55 -3.05 1.3 -2.8 1.75 Q-3.35 1.95 -3.8 2.3 M1.05 1.5 L1.05 1.45 Q0.85 0.7 1.0 -0.05 L1.4 -1.3 1.5 -1.35 Q2.8 -1.75 3.9 -0.95 3.85 -0.9 3.95 -0.8 L4.0 -0.8 4.05 -0.75 4.05 -0.7 4.1 -0.65 4.2 -0.45 4.2 -0.4 4.25 -0.35 4.3 -0.35 4.4 0.1 4.5 0.45 4.55 0.55 4.6 0.6 4.15 1.45 3.45 2.5 3.2 2.35 3.65 1.15 3.65 1.1 Q3.7 -0.2 2.7 -0.9 L2.45 -1.0 Q2.0 -0.75 1.8 -0.25 L1.6 0.3 1.8 0.35 2.7 0.7 2.65 0.7 1.55 0.95 1.75 1.7 1.05 1.5" fill="#ffffff" fill-rule="evenodd" stroke="none"/>
      <path d="M-5.85 3.1 L-4.1 2.5 -4.05 2.55 -4.65 3.15 -4.65 3.25 -4.6 3.3 -3.7 2.75 -2.8 2.1 -2.6 2.05 Q-2.3 3.65 -0.65 4.3 L-0.25 4.45 -0.15 4.45 -0.25 5.2 -0.25 6.45 -0.35 6.45 -1.45 6.75 Q-2.7 7.4 -4.15 7.5 -5.65 7.6 -6.7 6.65 -7.3 6.05 -7.35 5.25 -7.5 3.7 -5.85 3.1 M-4.2 6.2 L-3.9 5.9 -3.9 5.85 -4.15 5.65 -4.2 5.65 -4.35 5.8 -4.35 5.85 -4.2 6.2 M-4.55 4.5 L-4.6 4.45 -4.65 4.4 -4.75 4.35 -4.8 4.4 -4.85 4.4 -4.95 4.5 -5.0 4.65 Q-4.95 4.9 -4.7 4.9 L-4.65 4.85 -4.5 4.6 -4.55 4.5 M-2.95 5.55 L-2.95 5.6 -2.95 5.7 -2.65 5.75 -2.65 5.7 Q-2.6 5.55 -2.8 5.5 L-2.95 5.55 M-3.1 4.15 L-3.3 4.0 -3.35 4.05 Q-3.7 4.3 -3.4 4.55 L-3.35 4.55 -3.05 4.2 -3.1 4.15" fill="url(#gradient11)" fill-rule="evenodd" stroke="none"/>
      <path d="M-1.95 2.7 L-2.3 2.05 -2.3 1.95 -0.3 1.75 0.95 1.9 1.0 1.9 2.0 2.15 1.8 2.7 0.85 3.65 0.3 3.9 -0.25 3.9 Q-1.35 3.75 -1.95 2.7" fill="url(#gradient12)" fill-rule="evenodd" stroke="none"/>
      <path d="M-0.3 1.35 L-0.5 -9.15 Q1.35 -9.35 2.65 -7.9 L2.7 -7.85 2.75 -7.8 2.85 -7.75 2.95 -7.7 Q4.35 -8.65 6.1 -8.3 L7.25 -8.45 7.25 -8.35 Q7.45 -5.5 5.3 -3.65 L4.95 -5.0 4.05 -6.75 4.4 -6.9 Q5.5 -7.85 6.85 -7.75 L6.9 -7.8 6.95 -7.8 6.95 -7.85 7.0 -7.85 7.0 -7.9 Q6.75 -8.2 6.35 -8.15 5.7 -8.1 5.2 -7.65 4.5 -7.15 3.75 -7.15 L3.75 -7.1 3.2 -7.6 3.1 -7.5 3.2 -7.25 3.45 -7.1 3.5 -7.0 3.85 -6.65 3.9 -6.35 4.5 -5.2 4.5 -5.15 4.55 -5.05 4.55 -5.0 4.6 -5.0 4.65 -4.75 4.75 -4.45 4.75 -4.4 4.8 -4.35 4.95 -3.4 4.85 -3.35 4.95 -3.2 5.0 -3.2 5.35 -1.7 Q6.2 1.45 9.2 2.85 L8.6 4.0 Q8.35 4.75 7.7 5.3 7.8 4.05 6.85 3.3 5.6 2.3 3.85 2.55 L3.75 2.6 3.7 2.65 3.6 2.6 Q5.2 1.45 5.2 -0.55 5.15 -2.5 3.35 -2.7 L3.05 -2.75 3.0 -2.75 Q0.7 -2.05 0.5 0.3 0.45 0.95 0.7 1.45 L-0.3 1.35 M2.7 -4.15 L2.2 -3.75 2.2 -3.7 2.25 -3.6 2.35 -3.6 Q3.9 -4.3 4.65 -2.85 L4.75 -2.95 4.8 -3.0 4.8 -3.1 Q4.4 -4.25 3.1 -4.2 L2.7 -4.15" fill="url(#gradient13)" fill-rule="evenodd" stroke="none"/>
      <path d="M0.25 4.35 Q1.85 3.8 2.35 2.3 L2.8 2.5 2.85 2.55 2.95 2.6 3.0 2.65 4.05 3.35 4.4 3.8 4.5 3.8 4.55 3.8 4.6 3.75 4.45 3.3 4.05 2.95 6.35 3.25 Q7.0 3.7 7.25 4.45 L7.35 4.9 Q7.35 6.15 6.1 6.65 L3.5 6.9 0.05 6.45 0.2 4.45 0.25 4.35 M2.8 5.65 L2.8 5.6 2.6 5.45 2.55 5.5 2.45 5.6 Q2.35 5.8 2.6 5.85 L2.7 5.8 2.8 5.65 M2.7 4.05 L2.65 4.1 2.55 4.2 Q2.45 4.4 2.7 4.45 L2.8 4.4 2.9 4.25 2.9 4.2 2.7 4.05 M4.25 6.0 L4.3 5.95 4.45 5.85 4.4 5.75 4.35 5.6 4.3 5.55 4.2 5.5 4.15 5.55 4.0 5.65 4.25 6.0 M4.7 4.35 L4.5 4.2 4.45 4.25 4.35 4.35 Q4.25 4.55 4.5 4.6 L4.6 4.55 4.7 4.4 4.7 4.35" fill="url(#gradient14)" fill-rule="evenodd" stroke="none"/>
      <path d="M2.65 7.25 L2.7 7.25 4.95 7.4 Q4.0 8.4 2.65 8.8 L-0.15 9.2 Q-2.1 9.1 -3.85 8.0 L-4.45 7.7 -2.0 7.45 -0.2 8.0 Q1.25 8.15 2.65 7.25" fill="url(#gradient15)" fill-rule="evenodd" stroke="none"/>
      <path d="M-0.1 6.8 L-0.05 6.8 0.0 6.7 2.1 7.1 Q1.0 7.7 -0.2 7.65 L-1.55 7.35 -0.2 6.75 -0.1 6.8" fill="url(#gradient16)" fill-rule="evenodd" stroke="none"/>
    </g>
    <linearGradient gradientTransform="matrix(-0.0053, 2.0E-4, -3.0E-4, -0.0087, -7.1, 2.3)" gradientUnits="userSpaceOnUse" id="gradient10" spreadMethod="pad" x1="-819.2" x2="819.2">
      <stop offset="0.0" stop-color="#236fdd"/>
      <stop offset="1.0" stop-color="#000000"/>
    </linearGradient>
    <linearGradient gradientTransform="matrix(-0.0037, 0.0024, -0.0018, -0.0028, -4.8, 5.35)" gradientUnits="userSpaceOnUse" id="gradient11" spreadMethod="pad" x1="-819.2" x2="819.2">
      <stop offset="0.0" stop-color="#c29962"/>
      <stop offset="1.0" stop-color="#000000"/>
    </linearGradient>
    <radialGradient cx="0" cy="0" gradientTransform="matrix(0.001, 0.0, 0.0, 0.001, 0.0, 2.35)" gradientUnits="userSpaceOnUse" id="gradient12" r="819.2" spreadMethod="pad">
      <stop offset="0.0" stop-color="#ffffff"/>
      <stop offset="1.0" stop-color="#000000"/>
    </radialGradient>
    <linearGradient gradientTransform="matrix(0.0059, 0.0, 0.0, 0.0088, 6.75, -0.15)" gradientUnits="userSpaceOnUse" id="gradient13" spreadMethod="pad" x1="-819.2" x2="819.2">
      <stop offset="0.0" stop-color="#236fdd"/>
      <stop offset="1.0" stop-color="#000000"/>
    </linearGradient>
    <linearGradient gradientTransform="matrix(0.0043, 0.0013, -9.0E-4, 0.0027, 6.15, 5.15)" gradientUnits="userSpaceOnUse" id="gradient14" spreadMethod="pad" x1="-819.2" x2="819.2">
      <stop offset="0.0" stop-color="#c29962"/>
      <stop offset="1.0" stop-color="#000000"/>
    </linearGradient>
    <linearGradient gradientTransform="matrix(4.0E-4, 0.0057, -0.0012, 1.0E-4, 0.55, 10.8)" gradientUnits="userSpaceOnUse" id="gradient15" spreadMethod="pad" x1="-819.2" x2="819.2">
      <stop offset="0.0" stop-color="#c29962"/>
      <stop offset="1.0" stop-color="#000000"/>
    </linearGradient>
    <radialGradient cx="0" cy="0" gradientTransform="matrix(0.0029, 0.0, 0.0, 0.0029, -0.05, 7.0)" gradientUnits="userSpaceOnUse" id="gradient16" r="819.2" spreadMethod="pad">
      <stop offset="0.0" stop-color="#ff0000"/>
      <stop offset="1.0" stop-color="#000000"/>
    </radialGradient>
    <g id="sprite5" transform="matrix(1.0, 0.0, 0.0, 1.0, 24.0, 3.75)">
      <use height="7.5" transform="matrix(1.0, 0.0, 0.0, 1.0, -24.0, -3.75)" width="48.0" xlink:href="#shape5"/>
    </g>
    <g id="shape5" transform="matrix(1.0, 0.0, 0.0, 1.0, 24.0, 3.75)">
      <path d="M24.0 0.0 Q24.0 1.55 16.95 2.65 L0.0 3.75 -17.0 2.65 Q-24.0 1.55 -24.0 0.0 -24.0 -1.55 -17.0 -2.65 L0.0 -3.75 16.95 -2.65 Q24.0 -1.55 24.0 0.0" fill="#000000" fill-opacity="0.29803923" fill-rule="evenodd" stroke="none"/>
    </g>
  </defs>
</svg>
