<?xml version="1.0" encoding="UTF-8" standalone="no"?>
<svg xmlns:xlink="http://www.w3.org/1999/xlink" height="17.9px" width="15.2px" xmlns="http://www.w3.org/2000/svg">
  <g transform="matrix(1.0, 0.0, 0.0, 1.0, 7.6, 8.95)">
    <path d="M6.65 0.95 L6.6 1.0 Q5.7 0.05 4.65 -0.6 L4.65 -0.65 Q5.35 -1.75 5.15 -3.0 4.8 -5.3 2.4 -5.55 1.9 -5.65 1.6 -5.35 1.6 -5.15 1.85 -5.2 L2.15 -5.2 1.5 -4.6 Q0.95 -3.85 0.95 -2.8 L0.05 -2.9 0.05 -2.95 -0.05 -3.9 -0.05 -4.05 -0.3 -4.7 -0.5 -5.0 -0.55 -5.0 -0.85 -5.45 -0.1 -5.65 -0.15 -5.65 -0.5 -5.8 -1.2 -5.7 Q-2.85 -5.4 -3.5 -3.9 L-3.6 -3.8 -3.6 -3.7 -3.85 -2.65 -3.75 -1.7 -3.7 -1.6 -3.65 -1.55 -3.8 -1.55 -4.95 -1.15 -4.75 -3.1 -4.3 -4.8 -4.0 -5.4 -3.75 -5.85 Q-2.35 -7.75 -0.05 -8.4 L0.65 -8.5 2.05 -8.45 2.15 -8.45 Q4.4 -8.2 5.75 -6.45 L5.85 -6.3 5.9 -6.25 5.9 -6.15 5.95 -6.1 6.0 -6.0 6.05 -6.0 6.05 -5.9 6.1 -5.85 6.1 -5.8 6.55 -4.7 Q7.6 -1.95 6.55 0.8 L6.6 0.85 6.65 0.95" fill="url(#gradient0)" fill-rule="evenodd" stroke="none"/>
    <path d="M-5.8 -0.05 L-5.95 0.0 Q-7.6 1.6 -7.0 3.8 L-6.2 5.65 -6.0 5.8 -5.95 5.85 -5.75 6.15 -5.75 6.2 Q-3.7 7.55 -1.2 7.85 L1.25 7.95 4.85 7.35 5.3 7.1 6.7 5.4 6.85 5.15 Q7.5 3.75 7.0 2.3 L6.95 2.25 6.9 2.05 6.8 1.95 6.75 1.9 6.75 1.75 Q6.25 0.65 5.15 0.1 L4.5 -0.3 4.2 -0.45 4.15 -0.45 2.8 -1.15 2.9 -0.95 2.9 -0.85 Q2.35 0.9 0.45 1.15 -1.8 1.4 -2.95 -0.35 L-3.25 -1.05 -3.25 -1.1 -3.25 -1.3 -5.3 -0.5 -5.8 -0.05 M6.6 1.0 L6.95 1.35 7.3 2.1 7.3 2.15 Q7.75 3.0 7.5 4.15 L7.2 5.15 Q6.6 6.6 5.4 7.5 L4.6 8.05 Q2.95 8.75 1.25 8.9 L-2.05 8.65 Q-3.95 8.2 -5.55 7.1 L-5.95 6.7 -6.3 6.3 -7.0 5.1 Q-8.5 2.1 -6.15 -0.25 L-5.25 -0.95 Q-5.45 -2.25 -5.15 -3.55 -4.65 -6.1 -2.6 -7.55 -1.3 -8.5 0.2 -8.8 L0.6 -8.95 0.7 -8.95 1.3 -8.85 Q4.1 -8.85 5.95 -6.8 L6.15 -6.6 6.3 -6.4 6.3 -6.35 6.3 -6.3 Q7.8 -3.8 7.4 -0.8 L7.0 0.8 6.65 0.95 6.6 0.85 6.55 0.8 Q7.6 -1.95 6.55 -4.7 L6.1 -5.8 6.1 -5.85 6.05 -5.9 6.05 -6.0 6.0 -6.0 5.95 -6.1 5.9 -6.15 5.9 -6.25 5.85 -6.3 5.75 -6.45 Q4.4 -8.2 2.15 -8.45 L2.05 -8.45 0.65 -8.5 -0.05 -8.4 Q-2.35 -7.75 -3.75 -5.85 L-4.0 -5.4 -4.3 -4.8 -4.75 -3.1 -4.95 -1.15 -3.8 -1.55 -3.65 -1.55 -3.7 -1.6 -3.75 -1.7 -3.85 -2.65 -3.6 -3.7 -3.6 -3.8 -3.5 -3.9 Q-2.85 -5.4 -1.2 -5.7 L-0.5 -5.8 -0.15 -5.65 -0.1 -5.65 -0.85 -5.45 -0.55 -5.0 -0.5 -5.0 -0.3 -4.7 -0.05 -4.05 -0.05 -3.9 0.05 -2.95 0.05 -2.9 0.95 -2.8 Q0.95 -3.85 1.5 -4.6 L2.15 -5.2 1.85 -5.2 Q1.6 -5.15 1.6 -5.35 1.9 -5.65 2.4 -5.55 4.8 -5.3 5.15 -3.0 5.35 -1.75 4.65 -0.65 L4.65 -0.6 Q5.7 0.05 6.6 1.0 M-0.8 -4.7 L-1.05 -5.35 -2.2 -4.85 -2.95 -4.1 -3.25 -3.55 -3.45 -2.7 -3.3 -1.65 -3.15 -1.65 -3.1 -1.75 -3.05 -1.85 -3.05 -1.9 -1.85 -2.6 -2.0 -3.0 -1.05 -3.1 -1.0 -3.15 -1.05 -3.2 -1.85 -3.55 -1.9 -3.55 -1.6 -4.0 -0.75 -4.4 -0.6 -4.4 -0.8 -4.7 M-2.55 -0.35 Q-1.1 1.3 1.1 0.55 2.2 0.15 2.55 -0.9 L2.1 -1.6 1.8 -1.95 1.75 -2.0 0.95 -2.35 -2.25 -2.05 -2.4 -1.9 -2.8 -1.55 -2.85 -1.5 -2.85 -1.35 -2.85 -1.25 -2.8 -0.95 -2.8 -0.9 -2.55 -0.35 M4.85 -2.3 Q5.0 -4.25 3.0 -5.05 L2.65 -5.15 2.35 -5.05 1.9 -4.5 Q1.35 -3.75 1.3 -2.75 L1.3 -2.7 1.5 -2.6 1.55 -2.85 1.7 -3.35 2.4 -4.1 2.5 -4.15 2.6 -4.2 2.85 -4.2 2.9 -4.15 Q4.0 -3.8 3.9 -2.7 L2.65 -2.9 2.55 -2.9 2.45 -2.8 2.75 -2.6 3.4 -2.25 3.75 -2.05 3.45 -1.5 3.15 -1.35 4.25 -0.8 4.45 -1.15 4.75 -1.75 4.85 -2.15 4.85 -2.3 M1.25 8.35 Q-1.7 8.45 -4.6 7.25 L-4.65 7.25 Q-3.0 8.3 -0.95 8.55 L1.25 8.55 3.15 8.15 1.25 8.35" fill="#000000" fill-rule="evenodd" stroke="none"/>
    <path d="M-2.95 -4.1 L-2.25 -4.55 -1.7 -4.65 -1.55 -4.7 -0.8 -4.7 -0.6 -4.4 -0.75 -4.4 -1.6 -4.0 -1.9 -3.55 -1.85 -3.55 -1.05 -3.2 -1.0 -3.15 -1.05 -3.1 -2.0 -3.0 -1.85 -2.6 -3.05 -1.9 -3.05 -1.85 -3.1 -1.75 -3.15 -1.65 -3.3 -1.65 -3.45 -2.7 -3.25 -3.55 -2.95 -4.1 M1.9 -4.5 L2.65 -4.4 2.85 -4.35 3.5 -4.05 3.65 -4.0 4.05 -3.6 4.2 -3.5 4.45 -3.1 4.65 -2.8 4.85 -2.3 4.85 -2.15 4.75 -1.75 4.45 -1.15 4.25 -0.8 3.15 -1.35 3.45 -1.5 3.75 -2.05 3.4 -2.25 2.75 -2.6 2.45 -2.8 2.55 -2.9 2.65 -2.9 3.9 -2.7 Q4.0 -3.8 2.9 -4.15 L2.85 -4.2 2.6 -4.2 2.5 -4.15 2.4 -4.1 1.7 -3.35 1.55 -2.85 1.5 -2.6 1.3 -2.7 1.3 -2.75 Q1.35 -3.75 1.9 -4.5" fill="#ffffff" fill-rule="evenodd" stroke="none"/>
    <path d="M-2.55 -0.35 L-2.8 -0.9 -2.8 -0.95 -2.85 -1.25 -2.85 -1.35 -2.85 -1.5 -2.8 -1.55 -2.4 -1.9 -2.25 -2.05 0.95 -2.35 1.75 -2.0 1.8 -1.95 2.1 -1.6 2.55 -0.9 Q2.2 0.15 1.1 0.55 -1.1 1.3 -2.55 -0.35" fill="url(#gradient1)" fill-rule="evenodd" stroke="none"/>
    <path d="M-5.8 -0.05 L-5.3 -0.5 -3.25 -1.3 -3.25 -1.1 -3.25 -1.05 -2.95 -0.35 Q-1.8 1.4 0.45 1.15 2.35 0.9 2.9 -0.85 L2.9 -0.95 2.8 -1.15 4.15 -0.45 4.2 -0.45 4.5 -0.3 5.15 0.1 Q6.25 0.65 6.75 1.75 L6.75 1.9 6.8 1.95 6.9 2.05 6.95 2.25 7.0 2.3 Q7.5 3.75 6.85 5.15 L6.7 5.4 5.3 7.1 4.85 7.35 1.25 7.95 -1.2 7.85 Q-3.7 7.55 -5.75 6.2 L-5.75 6.15 -5.95 5.85 -6.0 5.8 -6.2 5.65 -7.0 3.8 Q-7.6 1.6 -5.95 0.0 L-5.8 -0.05" fill="url(#gradient2)" fill-rule="evenodd" stroke="none"/>
    <path d="M1.25 8.35 L3.15 8.15 1.25 8.55 -0.95 8.55 Q-3.0 8.3 -4.65 7.25 L-4.6 7.25 Q-1.7 8.45 1.25 8.35" fill="#594b3d" fill-rule="evenodd" stroke="none"/>
    <path d="M-2.95 -4.1 L-2.2 -4.85 -1.05 -5.35 -0.8 -4.7 -1.55 -4.7 -1.7 -4.65 -2.25 -4.55 -2.95 -4.1 M1.9 -4.5 L2.35 -5.05 2.65 -5.15 3.0 -5.05 Q5.0 -4.25 4.85 -2.3 L4.65 -2.8 4.45 -3.1 4.2 -3.5 4.05 -3.6 3.65 -4.0 3.5 -4.05 2.85 -4.35 2.65 -4.4 1.9 -4.5" fill="#cccccc" fill-rule="evenodd" stroke="none"/>
  </g>
  <defs>
    <linearGradient gradientTransform="matrix(-5.0E-4, 0.0073, -0.0058, -4.0E-4, 1.2, -1.2)" gradientUnits="userSpaceOnUse" id="gradient0" spreadMethod="pad" x1="-819.2" x2="819.2">
      <stop offset="0.0" stop-color="#6f3827"/>
      <stop offset="1.0" stop-color="#000000"/>
    </linearGradient>
    <radialGradient cx="0" cy="0" gradientTransform="matrix(0.002, 0.0, 0.0, 0.0022, 0.1, -1.3)" gradientUnits="userSpaceOnUse" id="gradient1" r="819.2" spreadMethod="pad">
      <stop offset="0.0" stop-color="#ffffff"/>
      <stop offset="1.0" stop-color="#000000"/>
    </radialGradient>
    <linearGradient gradientTransform="matrix(-6.0E-4, 0.0087, -0.0056, -4.0E-4, -0.45, 8.45)" gradientUnits="userSpaceOnUse" id="gradient2" spreadMethod="pad" x1="-819.2" x2="819.2">
      <stop offset="0.0" stop-color="#988168"/>
      <stop offset="1.0" stop-color="#000000"/>
    </linearGradient>
  </defs>
</svg>
