<?xml version="1.0" encoding="UTF-8" standalone="no"?>
<svg xmlns:xlink="http://www.w3.org/1999/xlink" height="12.6px" width="12.05px" xmlns="http://www.w3.org/2000/svg">
  <g transform="matrix(1.0, 0.0, 0.0, 1.0, 6.0, 6.3)">
    <path d="M-1.5 -0.45 L-1.15 -0.75 -2.1 -1.35 -2.15 -1.35 -1.85 -0.7 -1.65 -0.35 -1.65 -0.3 -1.5 -0.45 M-5.45 4.0 L-5.45 3.95 -5.5 3.9 -5.5 3.85 -5.3 3.6 -1.85 -0.1 -2.35 -0.85 -2.45 -1.5 1.15 -4.45 Q2.95 -5.7 5.0 -6.25 L5.1 -6.25 5.1 -6.3 5.15 -6.3 5.15 -6.25 Q6.3 -5.25 5.95 -3.6 5.7 -2.3 5.05 -1.15 3.65 1.25 1.1 2.6 L1.05 2.6 1.0 2.6 0.85 2.7 0.65 2.6 0.0 2.05 -3.2 5.3 -3.9 5.85 -3.95 5.85 -4.05 5.6 -3.75 5.35 0.05 1.3 0.4 1.0 -0.9 -0.55 -2.75 1.35 -4.05 2.75 -5.45 4.0 M1.3 2.25 L4.0 -0.35 Q5.35 -1.9 5.6 -4.0 5.8 -5.2 5.0 -5.95 L4.55 -5.75 Q1.7 -4.8 -0.5 -2.8 L-1.85 -1.55 -0.8 -0.95 -0.7 -0.85 Q0.2 -0.15 0.7 0.85 L0.8 0.8 0.95 1.0 0.9 1.05 0.85 1.15 1.2 2.15 1.25 2.25 1.3 2.25 M0.75 1.65 L0.7 1.65 0.7 1.6 0.6 1.4 0.25 1.8 0.6 2.1 0.8 2.25 0.85 2.25 0.85 2.05 0.75 1.7 0.75 1.65" fill="#000000" fill-rule="evenodd" stroke="none"/>
    <path d="M1.2 2.15 L0.85 1.15 0.9 1.05 0.95 1.0 0.8 0.8 0.7 0.85 Q0.2 -0.15 -0.7 -0.85 L-0.8 -0.95 -1.85 -1.55 -0.5 -2.8 Q1.7 -4.8 4.55 -5.75 L5.0 -5.95 Q5.8 -5.2 5.6 -4.0 5.35 -1.9 4.0 -0.35 L1.3 2.25 1.2 2.15" fill="url(#gradient0)" fill-rule="evenodd" stroke="none"/>
    <path d="M-3.95 5.85 L-4.25 6.15 -4.35 6.2 -4.65 6.3 -5.0 6.3 -5.75 5.85 -5.95 5.45 -6.0 5.0 -5.7 4.15 -5.55 3.95 -5.45 4.0 -4.05 2.75 -2.75 1.35 -0.9 -0.55 0.4 1.0 0.05 1.3 -3.75 5.35 -4.05 5.6 -3.95 5.85" fill="#40e49f" fill-rule="evenodd" stroke="none"/>
    <path d="M0.75 1.65 L0.75 1.7 0.85 2.05 0.85 2.25 0.8 2.25 0.6 2.1 0.25 1.8 0.6 1.4 0.7 1.6 0.7 1.65 0.75 1.65" fill="url(#gradient1)" fill-rule="evenodd" stroke="none"/>
    <path d="M-1.5 -0.45 L-1.65 -0.3 -1.65 -0.35 -1.85 -0.7 -2.15 -1.35 -2.1 -1.35 -1.15 -0.75 -1.5 -0.45" fill="url(#gradient2)" fill-rule="evenodd" stroke="none"/>
  </g>
  <defs>
    <linearGradient gradientTransform="matrix(0.0033, 0.0031, -0.0034, 0.0036, 3.45, 0.15)" gradientUnits="userSpaceOnUse" id="gradient0" spreadMethod="pad" x1="-819.2" x2="819.2">
      <stop offset="0.0" stop-color="#ff3366"/>
      <stop offset="1.0" stop-color="#000000"/>
    </linearGradient>
    <linearGradient gradientTransform="matrix(4.0E-4, 0.0, 0.0, 5.0E-4, 0.55, 1.8)" gradientUnits="userSpaceOnUse" id="gradient1" spreadMethod="pad" x1="-819.2" x2="819.2">
      <stop offset="0.0" stop-color="#ff3366"/>
      <stop offset="1.0" stop-color="#000000"/>
    </linearGradient>
    <linearGradient gradientTransform="matrix(6.0E-4, 0.0, 0.0, 6.0E-4, -1.65, -0.85)" gradientUnits="userSpaceOnUse" id="gradient2" spreadMethod="pad" x1="-819.2" x2="819.2">
      <stop offset="0.0" stop-color="#ff3366"/>
      <stop offset="1.0" stop-color="#000000"/>
    </linearGradient>
  </defs>
</svg>
