<?xml version="1.0" encoding="UTF-8" standalone="no"?>
<svg xmlns:xlink="http://www.w3.org/1999/xlink" height="36.7px" width="19.8px" xmlns="http://www.w3.org/2000/svg">
  <g transform="matrix(1.0, 0.0, 0.0, 1.0, 9.9, 18.35)">
    <path d="M3.45 -15.3 L5.05 -17.7 5.95 -18.35 6.1 -18.15 Q6.95 -17.0 7.15 -15.5 7.5 -12.55 7.1 -9.6 6.65 -6.65 5.85 -3.8 L5.0 -1.1 Q4.65 0.0 3.95 0.9 5.3 1.7 5.9 3.2 L6.15 3.75 7.0 5.95 Q7.5 7.35 8.15 8.6 L8.25 8.65 8.3 8.8 8.3 8.85 Q10.1 9.6 9.85 11.65 9.75 12.5 9.15 13.2 7.45 15.15 5.0 16.05 4.3 16.6 3.55 16.65 L3.3 18.0 3.1 18.15 2.0 18.25 Q0.9 18.5 -0.35 18.25 L-0.9 16.95 -0.95 16.8 -0.95 16.75 -1.25 16.75 Q-5.35 16.7 -8.0 13.7 -9.25 12.25 -8.2 10.8 -7.8 10.25 -7.2 10.0 L-7.1 10.0 Q-6.9 7.5 -6.1 5.05 L-5.8 4.0 -5.7 3.9 -5.0 2.5 -4.9 2.4 -4.5 1.85 -4.15 1.5 -4.4 0.95 -4.45 0.95 -4.45 0.9 Q-6.35 -1.85 -7.7 -4.9 -8.9 -7.65 -9.5 -10.55 -10.05 -13.15 -9.8 -15.7 L-9.65 -16.6 -9.6 -16.65 -9.6 -16.7 -9.55 -16.7 -9.4 -16.8 -9.35 -16.75 -9.2 -16.8 -9.1 -16.85 Q-6.75 -16.1 -5.65 -13.85 L-4.25 -11.3 Q-2.75 -8.75 -1.95 -5.85 -1.2 -3.2 -1.1 -0.5 L-0.6 -0.7 -0.5 -0.7 0.95 -0.6 0.9 -1.0 0.95 -1.65 Q0.9 -4.15 1.2 -6.6 1.55 -9.55 2.4 -12.35 L3.45 -15.3 M6.1 4.7 L5.15 2.65 4.8 2.2 Q4.5 1.45 3.75 1.1 L3.2 1.7 3.15 1.7 3.1 1.6 3.1 1.55 Q4.85 -1.0 5.55 -4.05 L6.05 -6.05 Q6.8 -8.9 6.95 -11.85 7.1 -14.6 6.35 -17.2 L6.0 -18.05 Q4.05 -16.35 3.25 -13.85 2.35 -11.05 1.9 -8.1 1.4 -5.2 1.4 -2.25 L1.4 0.65 1.3 0.85 1.15 0.8 1.15 0.75 1.0 -0.2 -1.1 -0.25 -1.1 0.0 -1.25 1.15 -1.35 1.15 -1.45 1.1 -1.8 -3.05 Q-2.15 -5.8 -3.3 -8.3 L-5.3 -12.3 -7.35 -15.35 Q-8.15 -16.3 -9.3 -16.5 L-9.35 -16.5 Q-9.85 -13.65 -9.2 -10.75 -8.55 -7.8 -7.35 -5.1 -6.2 -2.35 -4.5 0.15 L-3.5 1.65 -3.15 2.2 -3.25 2.35 -3.3 2.35 -3.95 1.75 -4.0 1.75 -4.1 1.85 -4.5 2.4 -4.5 2.45 Q-5.3 3.8 -5.8 5.3 L-6.45 7.65 -6.9 10.25 Q-6.15 10.85 -5.05 11.0 L-3.6 11.05 -2.7 10.95 -0.7 10.45 2.6 10.15 4.0 10.25 6.1 9.95 7.2 9.4 7.8 8.8 7.75 8.7 7.65 8.55 6.45 5.55 6.2 4.95 6.1 4.7 M-5.5 7.25 Q-5.4 6.35 -4.75 5.5 -4.25 4.9 -3.5 4.8 -2.6 4.65 -2.1 5.4 L-1.8 5.5 -1.8 5.6 -1.85 5.65 -1.9 5.7 -1.85 5.8 Q-0.85 7.35 -1.4 9.25 -1.7 10.35 -2.65 10.65 L-2.75 10.7 -2.75 10.75 -3.95 10.65 Q-4.85 10.35 -5.3 9.2 L-5.35 9.1 -5.45 8.75 -5.45 8.7 -5.5 8.65 -5.55 8.65 -5.55 8.55 -5.55 8.4 -5.5 8.35 -5.55 8.3 -5.55 8.25 -5.5 7.25 M4.15 10.1 L4.0 10.1 3.95 10.05 Q2.35 9.35 2.0 7.6 1.85 6.7 2.05 5.8 L2.05 5.7 2.15 5.35 2.1 5.3 2.1 5.25 2.15 5.2 2.25 5.1 2.75 4.3 2.75 4.2 2.75 4.05 2.75 4.0 2.95 3.85 3.55 3.7 4.55 3.9 4.65 3.95 4.7 4.0 4.7 4.05 Q5.6 4.65 6.0 5.55 6.4 6.4 6.25 7.5 L6.25 7.9 5.95 8.9 Q5.45 10.15 4.15 10.1 M3.8 -4.95 L3.9 -4.8 3.8 -4.65 3.75 -4.6 3.75 -4.5 3.8 -4.4 Q3.55 -3.2 2.85 -2.2 L2.9 0.0 2.65 -0.1 2.5 -1.95 2.5 -2.0 2.5 -2.05 2.5 -2.4 2.6 -5.45 3.1 -9.85 Q3.5 -13.05 5.25 -15.75 L6.05 -16.75 5.8 -16.0 5.35 -15.25 5.2 -14.9 Q5.6 -13.7 5.45 -12.2 L5.4 -11.75 5.3 -11.0 4.65 -8.8 4.5 -8.6 4.5 -8.9 4.5 -9.0 Q5.1 -11.35 5.1 -13.8 L5.1 -13.85 5.05 -13.95 5.05 -14.0 Q4.95 -14.3 5.0 -14.55 3.85 -12.4 3.5 -9.95 L2.9 -4.1 2.85 -2.9 2.85 -2.7 3.05 -3.25 3.55 -4.7 3.8 -4.95 M-4.8 -2.95 L-4.95 -3.2 -4.95 -3.25 -4.95 -3.5 -4.9 -3.55 -4.85 -3.5 -4.8 -3.5 -3.75 -2.0 -3.55 -1.75 -3.55 -1.95 -3.6 -2.05 -4.35 -5.2 -6.4 -10.8 Q-7.1 -12.45 -8.1 -13.8 L-8.0 -13.0 -7.6 -10.6 -6.95 -8.2 -7.0 -8.1 -7.0 -8.05 -7.2 -8.35 -7.95 -10.25 -8.05 -10.55 -8.1 -10.8 -8.5 -13.55 -8.4 -14.2 -8.45 -14.25 -9.05 -15.15 -9.0 -15.3 -8.85 -15.15 -8.85 -15.1 Q-7.85 -14.35 -7.3 -13.25 L-7.25 -13.15 Q-5.9 -10.85 -4.95 -8.25 -4.0 -5.5 -3.35 -2.65 L-3.15 -1.6 -3.1 -1.25 -3.05 -1.2 -3.05 -1.15 -3.05 -1.1 Q-2.9 0.1 -2.9 1.3 L-3.3 0.1 -3.45 -1.2 -4.55 -2.55 -4.8 -2.95 M4.0 2.8 L3.15 2.85 3.05 2.95 2.8 3.1 2.7 3.2 2.6 3.15 2.55 3.05 2.55 3.0 2.75 2.7 Q3.05 2.45 3.4 2.35 4.75 2.35 5.15 3.55 L5.15 3.65 5.1 3.65 5.05 3.7 5.0 3.7 4.6 3.25 Q4.35 2.95 4.0 2.8 M5.8 6.3 L5.6 5.65 5.1 4.7 4.9 4.55 4.45 4.2 3.4 4.05 2.8 4.9 3.0 4.85 Q4.9 4.95 5.7 6.4 L5.75 6.5 5.9 6.65 5.8 6.3 M5.6 7.0 Q4.75 5.15 2.65 5.25 L2.6 5.25 2.4 5.85 Q2.05 7.15 2.8 8.65 L3.35 9.3 3.95 9.7 4.05 9.7 4.5 9.65 4.65 9.6 Q5.65 9.3 5.8 8.0 L5.85 7.5 5.85 7.45 5.75 7.15 5.7 7.1 5.65 7.1 5.6 7.0 M4.15 6.5 L4.35 6.45 5.1 6.9 5.4 7.6 5.4 7.65 5.45 7.8 5.4 7.75 5.35 7.8 5.3 7.85 Q4.6 7.9 4.2 8.2 L5.45 8.5 Q5.3 9.15 4.6 9.5 L4.5 9.55 4.05 9.65 Q2.55 8.25 3.8 6.6 L3.9 6.5 4.15 6.5 M-3.05 3.8 L-3.0 3.95 -3.05 4.05 -3.1 4.1 -3.15 4.1 -3.2 4.15 -3.3 4.1 -3.35 4.05 -3.4 4.0 Q-4.55 3.9 -5.0 5.05 L-5.3 5.55 -5.35 5.5 -5.35 5.4 -5.35 5.3 -4.95 4.25 -4.0 3.55 -3.15 3.7 -3.05 3.8 M-3.15 10.3 Q-3.9 10.15 -4.1 9.35 L-3.85 9.25 Q-3.1 8.95 -2.55 8.65 L-2.6 8.65 -3.1 8.6 -4.25 8.75 -4.05 7.7 -3.85 7.45 -3.45 7.15 Q-2.85 7.0 -2.5 7.45 L-2.45 7.5 Q-1.5 8.8 -2.45 10.05 L-2.55 10.2 -2.4 10.1 Q-1.8 9.65 -1.65 8.7 -1.4 7.25 -2.15 5.9 L-2.25 5.75 -3.45 6.05 Q-4.45 6.7 -5.0 7.8 L-5.2 8.25 -5.2 8.4 -5.15 8.45 -4.8 9.35 -3.75 10.3 -3.15 10.45 -3.15 10.4 -3.1 10.4 -2.85 10.35 -3.15 10.3 M-3.3 5.6 L-2.5 5.4 Q-3.65 4.7 -4.6 5.95 -5.15 6.6 -5.25 7.5 -4.6 6.25 -3.3 5.6 M-4.15 9.1 L-4.15 9.05 -4.1 9.05 -4.15 9.1 M6.35 12.1 L6.3 12.1 6.2 12.1 6.05 12.1 6.0 12.05 6.0 11.9 6.15 11.75 6.3 11.75 Q7.1 11.75 7.1 12.55 L7.1 12.6 7.0 12.65 6.85 12.6 6.75 12.45 6.75 12.3 6.4 12.8 6.35 12.85 Q5.4 14.4 3.85 14.95 L3.6 16.4 7.65 14.15 Q9.3 13.05 9.5 11.15 L9.35 10.3 Q8.95 9.45 8.1 9.05 L7.2 9.8 Q5.5 10.8 3.55 10.7 L2.65 10.55 1.05 10.5 1.0 10.5 -0.9 10.85 -2.45 11.25 Q-4.85 12.05 -6.8 10.7 L-7.15 10.35 -7.15 10.3 -7.2 10.3 Q-8.45 11.15 -8.15 12.55 L-7.7 13.45 Q-5.5 16.1 -1.95 16.2 L-1.5 16.3 -1.4 16.25 -1.25 16.3 -1.4 15.75 -2.5 15.6 Q-4.35 15.3 -5.45 13.75 L-5.65 13.3 -5.9 13.65 -6.0 13.7 -6.1 13.7 -6.15 13.6 Q-6.15 13.0 -5.5 12.85 L-5.15 12.75 Q-4.9 12.7 -4.8 12.95 L-4.8 13.0 -5.35 13.2 Q-4.6 14.3 -3.4 14.9 L-0.5 15.2 1.1 14.7 1.1 14.65 1.0 13.3 Q-0.65 13.15 -1.25 11.7 L-1.25 11.4 -1.2 11.35 -0.85 11.1 Q-0.05 10.55 1.05 10.6 2.1 10.4 2.65 11.1 L2.75 11.25 2.8 11.65 Q2.5 12.85 1.5 13.25 L1.45 13.3 1.3 13.3 1.45 13.95 1.5 14.6 1.5 14.65 4.3 14.4 Q5.6 13.5 6.35 12.15 L6.4 12.1 6.35 12.1 M-3.2 13.5 L-3.1 13.5 Q-2.85 13.5 -2.8 13.75 L-2.75 13.75 -3.1 14.0 -3.3 13.7 -3.3 13.65 -3.2 13.5 M-0.5 12.25 L-0.45 12.2 -0.3 12.15 -0.1 12.15 0.0 12.15 0.2 12.4 0.35 12.55 0.35 12.6 0.4 12.7 0.4 12.8 1.35 13.05 1.85 12.55 Q1.7 12.25 1.95 12.0 L2.2 11.85 2.3 11.85 2.4 11.5 2.4 11.4 2.4 11.25 2.3 11.15 Q0.6 10.7 -0.8 11.5 L-0.9 11.65 -0.95 11.75 -0.5 12.25 M-1.95 12.75 L-1.85 12.8 -1.8 12.85 -1.7 13.0 -1.7 13.05 -1.75 13.15 -1.9 13.25 -2.0 13.3 -2.3 12.95 -2.3 12.9 -2.15 12.8 -2.05 12.75 -1.95 12.75 M-1.45 13.9 L-1.3 13.85 -1.1 13.9 -1.05 13.95 -1.1 14.2 -1.15 14.3 -1.5 14.25 -1.5 14.0 -1.45 13.9 M4.8 12.1 Q4.55 12.2 4.4 11.95 4.4 11.65 4.65 11.6 4.95 11.75 4.8 12.05 L4.8 12.1 M3.2 12.75 Q3.25 12.65 3.4 12.65 L3.45 12.65 3.55 12.65 3.65 12.9 3.65 12.95 3.4 13.15 3.2 13.0 3.15 12.9 3.2 12.75 M4.7 13.05 L4.9 13.2 4.9 13.25 4.65 13.55 4.45 13.4 Q4.4 13.25 4.5 13.15 L4.55 13.1 4.65 13.05 4.7 13.05 M5.45 8.25 L5.45 8.2 5.45 8.25 M1.5 16.4 L1.55 17.9 2.35 17.85 3.05 17.7 Q3.2 16.35 3.5 15.05 L2.0 15.15 1.4 14.95 1.3 14.95 1.5 16.4 M-1.1 15.75 L-0.75 16.4 -0.7 16.45 -0.2 17.7 -0.15 17.9 1.25 17.95 1.1 15.05 Q0.2 15.65 -1.05 15.7 L-1.15 15.7 -1.1 15.75" fill="#000000" fill-rule="evenodd" stroke="none"/>
    <path d="M-5.8 5.3 Q-5.3 3.8 -4.5 2.45 L-4.5 2.4 -4.1 1.85 -4.0 1.75 -3.95 1.75 -3.3 2.35 -3.25 2.35 -3.15 2.2 -3.5 1.65 -4.5 0.15 Q-6.2 -2.35 -7.35 -5.1 -8.55 -7.8 -9.2 -10.75 -9.85 -13.65 -9.35 -16.5 L-9.3 -16.5 Q-8.15 -16.3 -7.35 -15.35 L-5.3 -12.3 -3.3 -8.3 Q-2.15 -5.8 -1.8 -3.05 L-1.45 1.1 -1.35 1.15 -1.25 1.15 -1.1 0.0 -1.1 -0.25 1.0 -0.2 1.15 0.75 1.15 0.8 1.3 0.85 1.4 0.65 1.4 -2.25 Q1.4 -5.2 1.9 -8.1 2.35 -11.05 3.25 -13.85 4.05 -16.35 6.0 -18.05 L6.35 -17.2 Q7.1 -14.6 6.95 -11.85 6.8 -8.9 6.05 -6.05 L5.55 -4.05 Q4.85 -1.0 3.1 1.55 L3.1 1.6 3.15 1.7 3.2 1.7 3.75 1.1 Q4.5 1.45 4.8 2.2 L5.15 2.65 6.1 4.7 6.0 5.55 Q5.6 4.65 4.7 4.05 L4.7 4.0 4.65 3.95 4.55 3.9 3.55 3.7 2.95 3.85 2.75 4.0 2.75 4.05 2.75 4.2 2.75 4.3 2.25 5.1 2.15 5.2 2.1 5.25 2.1 5.3 2.15 5.35 2.05 5.7 2.05 5.8 Q1.85 6.7 2.0 7.6 2.35 9.35 3.95 10.05 L4.0 10.1 4.15 10.1 4.0 10.25 2.6 10.15 -0.7 10.45 -2.7 10.95 -3.6 11.05 -3.95 10.65 -2.75 10.75 -2.65 10.65 Q-1.7 10.35 -1.4 9.25 -0.85 7.35 -1.85 5.8 L-1.9 5.7 -1.85 5.65 -1.8 5.6 -1.8 5.5 -2.1 5.4 Q-2.6 4.65 -3.5 4.8 -4.25 4.9 -4.75 5.5 -5.4 6.35 -5.5 7.25 L-5.8 5.3 M5.3 -11.0 L5.4 -11.75 5.45 -12.2 Q5.6 -13.7 5.2 -14.9 L5.35 -15.25 5.8 -16.0 6.05 -16.75 5.25 -15.75 Q3.5 -13.05 3.1 -9.85 L2.6 -5.45 2.5 -2.4 2.5 -2.05 2.5 -2.0 2.5 -1.95 2.65 -0.1 2.9 0.0 2.85 -2.2 Q3.55 -3.2 3.8 -4.4 L3.75 -4.5 3.75 -4.6 3.8 -4.65 3.9 -4.8 3.8 -4.95 3.95 -4.9 4.5 -6.45 4.7 -6.95 Q5.4 -8.85 5.3 -11.0 M3.05 -3.25 L2.85 -2.7 2.85 -2.9 3.05 -3.25 M-4.8 -2.95 L-4.55 -2.55 -3.45 -1.2 -3.3 0.1 -2.9 1.3 Q-2.9 0.1 -3.05 -1.1 L-3.05 -1.15 -3.05 -1.2 -3.1 -1.25 -3.15 -1.6 -3.35 -2.65 Q-4.0 -5.5 -4.95 -8.25 -5.9 -10.85 -7.25 -13.15 L-7.3 -13.25 Q-7.85 -14.35 -8.85 -15.1 L-8.85 -15.15 -9.0 -15.3 -9.05 -15.15 -8.45 -14.25 -8.4 -14.2 -8.5 -13.55 -8.1 -10.8 -8.05 -10.55 -7.95 -10.25 -7.2 -8.35 -7.3 -8.35 -7.0 -7.6 Q-6.55 -5.9 -5.75 -4.4 L-4.85 -2.95 -4.8 -2.95 M-3.6 -2.05 L-3.55 -1.95 -3.55 -1.75 -3.75 -2.0 -3.6 -2.05 M4.0 2.8 Q4.35 2.95 4.6 3.25 L5.0 3.7 5.05 3.7 5.1 3.65 5.15 3.65 5.15 3.55 Q4.75 2.35 3.4 2.35 3.05 2.45 2.75 2.7 L2.55 3.0 2.55 3.05 2.6 3.15 2.7 3.2 2.8 3.1 3.05 2.95 3.15 2.85 4.0 2.8 M-3.05 3.8 L-3.15 3.7 -4.0 3.55 -4.95 4.25 -5.35 5.3 -5.35 5.4 -5.35 5.5 -5.3 5.55 -5.0 5.05 Q-4.55 3.9 -3.4 4.0 L-3.35 4.05 -3.3 4.1 -3.2 4.15 -3.15 4.1 -3.1 4.1 -3.05 4.05 -3.0 3.95 -3.05 3.8" fill="#40e49f" fill-rule="evenodd" stroke="none"/>
    <path d="M-5.8 5.3 L-5.5 7.25 -5.55 8.25 -5.55 8.3 -5.5 8.35 -5.55 8.4 -5.55 8.55 -5.55 8.65 -5.5 8.65 -5.45 8.7 -5.45 8.75 -5.35 9.1 -5.3 9.2 Q-4.85 10.35 -3.95 10.65 L-3.6 11.05 -5.05 11.0 Q-6.15 10.85 -6.9 10.25 L-6.45 7.65 -5.8 5.3 M4.0 10.25 L4.15 10.1 Q5.45 10.15 5.95 8.9 L6.25 7.9 6.25 7.5 Q6.4 6.4 6.0 5.55 L6.1 4.7 6.2 4.95 6.45 5.55 7.65 8.55 7.75 8.7 7.8 8.8 7.2 9.4 6.1 9.95 4.0 10.25 M3.8 -4.95 L3.55 -4.7 3.05 -3.25 2.85 -2.9 2.9 -4.1 3.5 -9.95 Q3.85 -12.4 5.0 -14.55 4.95 -14.3 5.05 -14.0 L5.05 -13.95 5.1 -13.85 5.1 -13.8 Q5.1 -11.35 4.5 -9.0 L4.5 -8.9 4.5 -8.6 4.65 -8.8 5.3 -11.0 Q5.4 -8.85 4.7 -6.95 L4.5 -6.45 3.95 -4.9 3.8 -4.95 M-3.75 -2.0 L-4.8 -3.5 -4.85 -3.5 -4.9 -3.55 -4.95 -3.5 -4.95 -3.25 -4.95 -3.2 -4.8 -2.95 -4.85 -2.95 -5.75 -4.4 Q-6.55 -5.9 -7.0 -7.6 L-7.3 -8.35 -7.2 -8.35 -7.0 -8.05 -7.0 -8.1 -6.95 -8.2 -7.6 -10.6 -8.0 -13.0 -8.1 -13.8 Q-7.1 -12.45 -6.4 -10.8 L-4.35 -5.2 -3.6 -2.05 -3.75 -2.0 M3.4 4.05 L4.45 4.2 4.9 4.55 5.1 4.7 5.6 5.65 5.8 6.3 5.8 6.45 5.7 6.4 Q4.9 4.95 3.0 4.85 L2.8 4.9 3.4 4.05 M-3.3 5.6 Q-4.6 6.25 -5.25 7.5 -5.15 6.6 -4.6 5.95 -3.65 4.7 -2.5 5.4 L-3.3 5.6" fill="#1ab975" fill-rule="evenodd" stroke="none"/>
    <path d="M2.4 5.85 L2.6 5.25 2.65 5.25 Q4.75 5.15 5.6 7.0 L5.55 7.25 5.5 7.2 5.1 6.9 4.35 6.45 4.15 6.5 3.3 6.15 2.4 5.85 M-2.15 5.9 Q-3.1 6.25 -3.85 7.05 L-4.75 7.85 -5.2 8.4 -5.2 8.25 -5.0 7.8 Q-4.45 6.7 -3.45 6.05 L-2.25 5.75 -2.15 5.9" fill="#cccccc" fill-rule="evenodd" stroke="none"/>
    <path d="M2.4 5.85 L3.3 6.15 4.15 6.5 3.9 6.5 3.8 6.6 Q2.55 8.25 4.05 9.65 L4.05 9.7 3.95 9.7 3.35 9.3 2.8 8.65 Q2.05 7.15 2.4 5.85 M5.1 6.9 L5.5 7.2 5.55 7.25 5.6 7.0 5.65 7.1 5.7 7.1 5.75 7.15 5.85 7.45 5.85 7.5 5.8 8.0 Q5.65 9.3 4.65 9.6 L4.6 9.5 Q5.3 9.15 5.45 8.5 L4.2 8.2 Q4.6 7.9 5.3 7.85 L5.35 7.8 5.4 7.75 5.45 7.8 5.4 7.65 5.4 7.6 5.1 6.9 M-2.45 10.05 Q-1.5 8.8 -2.45 7.5 L-2.5 7.45 Q-2.85 7.0 -3.45 7.15 L-3.85 7.45 -4.05 7.7 -4.25 8.75 -3.1 8.6 -2.6 8.65 -2.55 8.65 Q-3.1 8.95 -3.85 9.25 L-4.1 9.35 Q-3.9 10.15 -3.15 10.3 L-3.1 10.4 -3.15 10.4 -3.15 10.45 -3.75 10.3 -4.8 9.35 -5.15 8.45 -5.2 8.4 -4.75 7.85 -3.85 7.05 Q-3.1 6.25 -2.15 5.9 -1.4 7.25 -1.65 8.7 -1.8 9.65 -2.4 10.1 L-2.45 10.05 M-4.15 9.1 L-4.1 9.05 -4.15 9.05 -4.15 9.1 M5.45 8.25 L5.45 8.2 5.45 8.25" fill="#ffffff" fill-rule="evenodd" stroke="none"/>
    <path d="M6.35 12.15 Q5.6 13.5 4.3 14.4 L1.5 14.65 1.5 14.6 1.45 13.95 1.3 13.3 1.45 13.3 1.5 13.25 Q2.5 12.85 2.8 11.65 L2.75 11.25 2.65 11.1 Q2.1 10.4 1.05 10.6 -0.05 10.55 -0.85 11.1 L-1.2 11.35 -1.25 11.4 -1.25 11.7 Q-0.65 13.15 1.0 13.3 L1.1 14.65 1.1 14.7 -0.5 15.2 -3.4 14.9 Q-4.6 14.3 -5.35 13.2 L-4.8 13.0 -4.8 12.95 Q-4.9 12.7 -5.15 12.75 L-5.5 12.85 Q-6.15 13.0 -6.15 13.6 L-6.1 13.7 -6.0 13.7 -5.9 13.65 -5.65 13.3 -5.45 13.75 Q-4.35 15.3 -2.5 15.6 L-1.4 15.75 -1.25 16.3 -1.4 16.25 -1.5 16.3 -1.95 16.2 Q-5.5 16.1 -7.7 13.45 L-8.15 12.55 Q-8.45 11.15 -7.2 10.3 L-7.15 10.3 -7.15 10.35 -6.8 10.7 Q-4.85 12.05 -2.45 11.25 L-0.9 10.85 1.0 10.5 1.05 10.5 2.65 10.55 3.55 10.7 Q5.5 10.8 7.2 9.8 L8.1 9.05 Q8.95 9.45 9.35 10.3 L9.5 11.15 Q9.3 13.05 7.65 14.15 L3.6 16.4 3.85 14.95 Q5.4 14.4 6.35 12.85 L6.4 12.8 6.75 12.3 6.75 12.45 6.85 12.6 7.0 12.65 7.1 12.6 7.1 12.55 Q7.1 11.75 6.3 11.75 L6.15 11.75 6.0 11.9 6.0 12.05 6.05 12.1 6.2 12.1 6.3 12.1 6.35 12.1 6.35 12.15 M-3.2 13.5 L-3.3 13.65 -3.3 13.7 -3.1 14.0 -2.75 13.75 -2.8 13.75 Q-2.85 13.5 -3.1 13.5 L-3.2 13.5 M-1.45 13.9 L-1.5 14.0 -1.5 14.25 -1.15 14.3 -1.1 14.2 -1.05 13.95 -1.1 13.9 -1.3 13.85 -1.45 13.9 M-1.95 12.75 L-2.05 12.75 -2.15 12.8 -2.3 12.9 -2.3 12.95 -2.0 13.3 -1.9 13.25 -1.75 13.15 -1.7 13.05 -1.7 13.0 -1.8 12.85 -1.85 12.8 -1.95 12.75 M4.7 13.05 L4.65 13.05 4.55 13.1 4.5 13.15 Q4.4 13.25 4.45 13.4 L4.65 13.55 4.9 13.25 4.9 13.2 4.7 13.05 M3.2 12.75 L3.15 12.9 3.2 13.0 3.4 13.15 3.65 12.95 3.65 12.9 3.55 12.65 3.45 12.65 3.4 12.65 Q3.25 12.65 3.2 12.75 M4.8 12.1 L4.8 12.05 Q4.95 11.75 4.65 11.6 4.4 11.65 4.4 11.95 4.55 12.2 4.8 12.1" fill="#e9bda1" fill-rule="evenodd" stroke="none"/>
    <path d="M-0.5 12.25 L-0.95 11.75 -0.9 11.65 -0.8 11.5 Q0.6 10.7 2.3 11.15 L2.4 11.25 2.4 11.4 2.4 11.5 2.3 11.85 2.2 11.85 1.95 12.0 Q1.7 12.25 1.85 12.55 L1.35 13.05 0.4 12.8 0.4 12.7 0.35 12.6 0.35 12.55 0.2 12.4 0.0 12.15 -0.1 12.15 -0.3 12.15 -0.45 12.2 -0.5 12.25" fill="#333333" fill-rule="evenodd" stroke="none"/>
    <path d="M-1.05 15.7 Q0.2 15.65 1.1 15.05 L1.25 17.95 -0.15 17.9 -0.2 17.7 -0.7 16.45 -0.75 16.4 -1.1 15.75 -1.05 15.7 M1.5 16.4 L1.3 14.95 1.4 14.95 2.0 15.15 3.5 15.05 Q3.2 16.35 3.05 17.7 L2.35 17.85 1.55 17.9 1.5 16.4" fill="#ffff99" fill-rule="evenodd" stroke="none"/>
  </g>
</svg>
