<?xml version="1.0" encoding="UTF-8" standalone="no"?>
<svg xmlns:xlink="http://www.w3.org/1999/xlink" height="162.0px" width="162.0px" xmlns="http://www.w3.org/2000/svg">
  <g transform="matrix(1.0, 0.0, 0.0, 1.0, 81.0, 81.0)">
    <path d="M57.25 -57.3 Q80.95 -33.6 81.0 0.0 80.95 33.55 57.25 57.25 33.55 80.95 0.0 81.0 -33.6 80.95 -57.3 57.25 -81.0 33.55 -81.0 0.0 -81.0 -33.6 -57.3 -57.3 -33.6 -81.0 0.0 -81.0 33.55 -81.0 57.25 -57.3" fill="#ff0000" fill-rule="evenodd" stroke="none"/>
    <path d="M44.55 44.55 Q26.1 63.0 0.0 63.0 -26.1 63.0 -44.55 44.55 -63.0 26.1 -63.0 0.0 -63.0 -26.1 -44.55 -44.55 -26.1 -63.0 0.0 -63.0 26.1 -63.0 44.55 -44.55 63.0 -26.1 63.0 0.0 63.0 26.1 44.55 44.55" fill="#ffffff" fill-rule="evenodd" stroke="none"/>
    <path d="M31.8 -31.85 Q45.0 -18.65 45.0 0.0 45.0 18.6 31.8 31.8 18.6 45.0 0.0 45.0 -18.65 45.0 -31.85 31.8 -45.05 18.6 -45.0 0.0 -45.05 -18.65 -31.85 -31.85 -18.65 -45.05 0.0 -45.0 18.6 -45.05 31.8 -31.85" fill="#ff0000" fill-rule="evenodd" stroke="none"/>
    <path d="M19.1 -19.1 Q27.0 -11.2 27.0 0.0 27.0 11.15 19.1 19.1 11.15 27.0 0.0 27.0 -11.2 27.0 -19.1 19.1 -27.0 11.15 -27.0 0.0 -27.0 -11.2 -19.1 -19.1 -11.2 -27.0 0.0 -27.0 11.15 -27.0 19.1 -19.1" fill="#ffffff" fill-rule="evenodd" stroke="none"/>
    <path d="M9.2 -9.15 Q13.0 -5.4 13.0 0.0 13.0 5.4 9.2 9.2 5.4 13.0 0.0 13.0 -5.4 13.0 -9.15 9.2 -13.0 5.4 -13.0 0.0 -13.0 -5.4 -9.15 -9.15 -5.4 -13.0 0.0 -13.0 5.4 -13.0 9.2 -9.15" fill="#ff0000" fill-rule="evenodd" stroke="none"/>
  </g>
</svg>
