<?xml version="1.0" encoding="UTF-8" standalone="no"?>
<svg xmlns:xlink="http://www.w3.org/1999/xlink" height="19.05px" width="25.15px" xmlns="http://www.w3.org/2000/svg">
  <g transform="matrix(1.0, 0.0, 0.0, 1.0, 12.65, 28.4)">
    <path d="M1.8 -26.85 Q2.7 -25.9 1.85 -24.8 1.65 -24.3 1.25 -23.9 0.45 -23.1 -0.6 -23.1 -1.7 -23.1 -2.45 -23.9 -3.25 -24.7 -3.25 -25.75 -3.25 -26.85 -2.45 -27.65 -1.7 -28.45 -0.6 -28.4 0.45 -28.45 1.25 -27.65 L1.8 -26.85 M12.05 -13.1 Q12.95 -12.15 12.1 -11.05 L11.5 -10.15 Q10.7 -9.35 9.65 -9.35 8.55 -9.35 7.8 -10.15 7.0 -10.95 7.0 -12.0 7.0 -13.1 7.8 -13.9 8.55 -14.7 9.65 -14.65 10.7 -14.7 11.5 -13.9 L12.05 -13.1 M-7.6 -13.3 Q-6.7 -12.35 -7.55 -11.25 L-8.15 -10.35 Q-8.95 -9.55 -10.0 -9.55 -11.1 -9.55 -11.85 -10.35 -12.65 -11.15 -12.65 -12.2 -12.65 -13.3 -11.85 -14.1 -11.1 -14.9 -10.0 -14.85 -8.95 -14.9 -8.15 -14.1 L-7.6 -13.3" fill="#ff9a00" fill-rule="evenodd" stroke="none"/>
  </g>
</svg>
