<?xml version="1.0" encoding="UTF-8" standalone="no"?>
<svg xmlns:xlink="http://www.w3.org/1999/xlink" height="15.8px" width="57.45px" xmlns="http://www.w3.org/2000/svg">
  <g transform="matrix(1.0, 0.0, 0.0, 1.0, 28.75, 7.9)">
    <path d="M-28.3 -1.1 Q-25.1 1.05 -21.2 2.25 L-16.0 3.4 -11.75 3.7 -2.5 3.35 6.75 2.15 15.75 1.05 Q18.85 0.75 22.0 0.95 L23.0 1.05 Q25.55 1.3 27.95 2.1 L28.05 2.25 Q27.3 2.9 25.7 2.9 L24.8 2.55 Q20.45 2.3 16.0 2.75 9.1 3.45 2.45 5.45 -4.7 7.65 -12.15 7.9 -18.6 7.9 -24.05 4.6 -26.15 3.35 -27.5 1.55 L-28.7 0.15 -28.7 -0.15 -28.65 -0.25 -28.7 -0.35 -28.6 -0.5 -28.55 -0.55 -28.3 -1.1" fill="#333333" fill-rule="evenodd" stroke="none"/>
    <path d="M-28.3 -1.1 Q-26.1 -6.3 -19.95 -7.4 -12.5 -8.75 -5.3 -6.35 1.8 -4.0 9.4 -4.55 14.9 -5.0 20.45 -4.65 24.05 -4.45 27.05 -2.65 28.25 -1.95 28.55 -0.6 29.0 1.3 28.15 2.15 L28.05 2.25 27.95 2.1 Q25.55 1.3 23.0 1.05 L22.0 0.95 Q18.85 0.75 15.75 1.05 L6.75 2.15 -2.5 3.35 -11.75 3.7 -16.0 3.4 -21.2 2.25 Q-25.1 1.05 -28.3 -1.1" fill="#000000" fill-rule="evenodd" stroke="none"/>
  </g>
</svg>
