<?xml version="1.0" encoding="UTF-8" standalone="no"?>
<svg xmlns:xlink="http://www.w3.org/1999/xlink" height="58.1px" width="83.9px" xmlns="http://www.w3.org/2000/svg">
  <g transform="matrix(1.0, 0.0, 0.0, 1.0, 43.85, 30.8)">
    <path d="M10.85 -30.7 L12.25 -30.75 12.75 -30.7 Q15.05 -29.25 14.4 -26.4 12.55 -19.15 7.75 -13.35 L7.0 -12.45 Q8.6 -11.0 9.8 -9.15 L20.35 -15.15 Q25.45 -17.75 31.2 -18.75 34.65 -19.45 37.7 -18.05 41.15 -16.1 39.5 -12.9 37.8 -9.9 34.6 -8.9 27.5 -6.75 20.35 -5.3 L12.2 -3.55 Q12.45 -2.5 12.3 -1.45 12.5 3.75 9.5 8.45 L8.05 10.0 8.2 10.45 8.25 11.05 Q8.65 15.5 4.5 18.2 L3.2 18.95 1.75 19.55 -0.6 20.2 -1.45 20.55 Q-8.65 22.45 -15.45 25.3 -19.05 26.75 -22.9 27.2 L-23.15 27.15 Q-28.0 27.85 -32.85 25.25 L-34.5 24.3 Q-36.3 23.45 -37.65 21.7 -40.95 17.35 -42.15 12.25 L-42.35 11.3 -42.35 10.7 -42.35 10.3 Q-43.2 8.7 -43.25 7.05 -44.5 4.0 -43.15 0.45 -42.35 -1.8 -40.95 -3.55 L-40.3 -4.35 -37.9 -6.5 -36.55 -7.45 Q-35.85 -9.35 -34.45 -10.85 -33.2 -12.3 -31.35 -12.6 L-29.75 -12.75 -28.7 -12.5 -28.45 -12.4 Q-26.4 -11.55 -25.8 -9.65 -21.1 -8.8 -16.9 -6.45 L-16.65 -6.35 -15.75 -5.85 -14.75 -5.85 Q-13.6 -8.4 -11.6 -10.3 L-11.8 -10.5 -11.5 -10.8 Q-12.75 -11.8 -12.5 -13.85 L-12.15 -14.2 -12.05 -14.2 -12.05 -14.0 -12.1 -13.9 Q-11.9 -12.3 -10.85 -11.25 L-10.85 -11.3 -10.7 -11.4 Q-11.5 -12.6 -11.35 -14.1 -11.35 -14.9 -10.85 -14.95 -11.0 -13.2 -10.15 -11.9 L-10.0 -12.0 -9.9 -12.1 -10.0 -12.3 Q-10.35 -14.1 -9.3 -15.15 -9.7 -14.0 -9.4 -12.75 L-9.5 -12.65 -9.4 -12.6 -7.55 -14.3 -5.9 -15.35 Q-3.35 -16.4 -0.7 -16.0 L1.2 -15.7 2.05 -15.4 Q3.5 -21.8 6.9 -27.75 7.95 -29.7 10.0 -30.55 L10.85 -30.7 M8.45 -4.5 Q7.75 -5.7 8.15 -7.3 L8.05 -7.45 8.05 -7.6 8.15 -7.85 8.35 -8.2 8.6 -8.4 9.0 -8.65 Q6.4 -12.45 1.65 -14.4 L-0.3 -15.1 -3.45 -14.85 -2.4 -14.4 Q-2.65 -13.45 -4.4 -13.85 L-5.7 -14.15 -7.05 -13.4 -7.0 -13.35 -6.85 -13.35 -6.7 -13.3 -6.3 -13.1 -6.05 -12.8 -5.95 -12.65 Q-6.2 -9.7 -8.45 -7.45 L-12.0 -4.2 -10.85 -2.25 -10.8 -2.1 -10.75 -1.9 -10.55 -1.95 Q-9.5 -4.8 -7.0 -6.9 -4.95 -8.75 -2.5 -9.35 -0.15 -10.55 2.35 -9.3 3.85 -7.05 3.35 -4.75 L5.6 -4.45 5.65 -4.45 Q5.65 -6.15 5.15 -7.9 L4.8 -9.1 2.8 -11.05 Q3.65 -11.25 4.6 -10.5 6.85 -8.5 6.8 -5.35 L6.8 -5.25 6.7 -4.7 6.9 -4.7 6.95 -4.7 6.65 -4.45 6.15 -3.25 5.35 -2.2 5.5 -2.85 Q3.85 -2.1 2.4 -2.55 L2.25 -2.25 Q3.7 -1.5 5.6 -1.7 L5.7 -1.65 Q4.1 -0.6 2.25 -1.1 L2.15 -1.1 1.6 -1.3 0.45 0.2 Q-1.65 2.7 -4.4 3.95 -2.7 6.05 -0.55 7.35 2.35 9.1 6.05 9.4 L7.3 9.45 8.15 8.4 8.6 8.0 Q11.05 3.95 11.5 -0.55 11.4 -0.7 11.45 -0.9 11.55 -1.8 11.3 -2.6 L11.25 -3.3 10.7 -3.2 10.45 -2.95 10.35 -2.8 Q9.0 -3.5 8.45 -4.5 M0.95 -9.0 L-0.4 -9.05 -1.1 -8.8 -0.95 -8.6 Q0.1 -7.5 0.55 -6.1 L2.05 -5.2 2.3 -5.1 Q2.5 -6.7 2.05 -8.3 L0.95 -9.0 M2.9 -3.45 L5.55 -2.95 5.65 -3.9 3.05 -3.8 2.9 -3.45 M0.85 -3.25 L1.25 -2.95 1.3 -3.05 0.9 -3.4 0.85 -3.25 M2.1 -4.05 L1.85 -4.2 Q1.3 -4.4 0.85 -4.7 L1.35 -4.05 1.75 -3.85 1.95 -3.75 2.1 -4.05 M3.5 17.6 L4.1 17.4 Q5.55 16.8 6.3 15.45 L6.7 14.7 7.0 13.8 Q7.55 12.15 7.35 10.45 0.75 10.95 -4.1 5.95 L-4.85 4.95 -5.25 4.3 -5.25 4.25 -6.45 4.65 -7.6 4.9 -8.25 4.9 -8.5 4.85 -9.1 4.75 -9.55 4.65 Q-9.65 7.0 -10.4 9.3 L-10.5 9.6 Q-10.8 10.25 -11.3 10.6 -11.35 9.95 -11.0 9.2 L-10.85 8.4 Q-9.95 3.65 -11.4 -0.6 L-12.45 -3.05 -13.9 -4.5 Q-16.0 -5.8 -18.5 -3.85 L-19.65 -2.8 Q-21.35 -1.1 -22.2 1.15 L-22.55 2.15 -22.55 2.2 -22.9 2.6 -23.05 2.6 -23.1 2.55 -23.2 2.2 -23.25 1.6 -23.25 1.5 -22.7 0.35 -21.9 -1.2 -20.25 -3.35 -19.8 -3.8 Q-18.6 -4.8 -17.2 -5.4 L-19.35 -6.6 Q-23.15 -8.4 -27.35 -8.9 L-28.3 -9.15 -28.35 -9.25 -28.3 -9.45 -28.25 -9.5 -27.85 -9.65 -27.75 -9.7 -27.65 -9.75 -27.45 -9.7 -27.15 -9.7 -27.0 -9.7 -27.05 -9.8 -26.85 -10.05 Q-27.7 -11.15 -29.0 -11.5 L-30.4 -11.7 -30.65 -11.75 Q-33.0 -11.05 -34.25 -9.0 L-34.65 -8.35 -34.75 -8.2 -34.1 -8.35 -33.75 -8.3 Q-34.05 -7.8 -34.6 -7.45 L-35.5 -6.95 -35.55 -6.85 -35.7 -6.75 -35.8 -6.75 -35.8 -6.8 -36.5 -6.55 -38.0 -5.25 -38.6 -4.75 -39.0 -4.3 Q-42.35 -0.5 -42.25 4.85 L-41.95 5.95 -41.9 6.05 Q-42.15 6.3 -42.05 6.7 L-41.45 9.4 -41.45 9.8 -41.45 9.95 Q-40.1 12.85 -36.85 14.85 -26.6 21.1 -14.85 18.5 L-9.25 17.1 -4.65 15.35 Q-3.5 14.6 -2.2 14.25 -2.85 13.8 -3.7 13.55 L-3.7 13.45 -3.65 13.3 -3.55 13.1 -3.0 13.05 -2.0 13.15 Q0.6 14.4 0.3 17.1 L0.25 17.15 0.15 17.2 -0.3 17.2 Q-0.55 15.85 -1.35 15.0 L-1.85 14.95 -2.05 15.05 -2.15 15.2 Q-8.7 18.7 -16.2 19.8 L-28.55 19.4 Q-36.05 17.75 -41.1 12.05 L-41.2 11.95 -40.95 13.2 Q-39.9 17.7 -36.4 21.4 L-33.85 23.6 Q-27.9 27.25 -21.1 26.0 L-19.95 25.7 -16.0 24.55 -11.3 22.85 -9.2 22.1 Q-6.1 20.8 -2.9 19.9 L3.5 17.6 M2.8 15.85 L2.8 16.0 2.75 16.0 2.7 16.1 2.65 16.1 2.8 15.85 M-16.95 -5.55 L-17.15 -5.45 -17.2 -5.4 -17.1 -5.4 -17.0 -5.45 -16.95 -5.5 -16.45 -5.65 -16.95 -5.55 M-6.9 -12.6 L-7.35 -12.4 -7.4 -12.35 -8.65 -11.6 -8.35 -10.95 -7.85 -10.8 -7.8 -10.8 -7.5 -10.6 -6.9 -11.5 -6.65 -11.9 -6.7 -12.25 -6.7 -12.45 -6.9 -12.6 M-10.6 -10.2 L-11.2 -9.6 Q-12.6 -8.3 -13.7 -6.6 L-13.9 -5.85 -14.05 -5.6 -13.7 -5.45 -12.65 -7.2 -11.75 -7.9 -10.75 -8.2 -10.65 -8.15 -10.5 -8.15 -10.1 -7.9 -10.05 -7.9 -9.85 -7.7 -9.65 -7.6 -7.85 -10.0 -8.35 -10.15 -8.75 -10.2 -8.95 -10.15 -9.55 -10.3 -9.85 -10.3 -9.95 -10.15 -10.05 -10.05 -10.4 -10.2 -10.6 -10.2 M-1.8 -8.65 Q-4.0 -8.1 -5.7 -6.6 -5.85 -6.45 -6.05 -6.5 L-7.25 -5.35 -6.65 -5.35 -6.3 -5.35 Q-3.45 -3.45 -5.0 -0.2 L-5.2 0.25 -6.1 1.4 -7.65 2.45 -8.7 2.75 -9.6 2.7 -9.6 3.7 -8.6 4.1 -7.9 4.0 -5.05 3.15 Q-3.05 2.25 -1.35 0.75 L-0.95 0.4 -1.0 0.25 -0.9 0.0 Q-0.15 -2.65 -0.45 -5.35 L-0.7 -7.15 Q-1.05 -8.0 -1.65 -8.55 L-1.8 -8.65 M-14.85 0.85 Q-13.5 3.05 -13.85 5.8 -14.2 8.15 -16.25 9.05 L-16.35 9.05 Q-17.65 8.75 -18.2 7.5 -19.1 4.35 -17.3 1.65 L-16.9 1.15 -16.75 1.0 -16.55 1.0 -16.5 0.8 -16.35 0.7 -15.8 0.55 -15.55 0.5 -15.05 0.75 -14.85 0.85" fill="#000000" fill-rule="evenodd" stroke="none"/>
    <path d="M-7.05 -13.4 L-5.7 -14.15 -4.4 -13.85 Q-2.65 -13.45 -2.4 -14.4 L-3.45 -14.85 -0.3 -15.1 1.65 -14.4 Q6.4 -12.45 9.0 -8.65 L8.6 -8.4 8.35 -8.2 8.15 -7.85 8.05 -7.6 8.05 -7.45 8.15 -7.3 Q7.75 -5.7 8.45 -4.5 L7.85 -2.55 7.5 -1.65 Q5.6 3.0 1.35 5.45 L1.3 5.5 1.4 5.7 Q0.8 6.9 -0.55 7.35 -2.7 6.05 -4.4 3.95 -1.65 2.7 0.45 0.2 L1.6 -1.3 2.15 -1.1 2.25 -1.1 Q4.1 -0.6 5.7 -1.65 L5.6 -1.7 Q3.7 -1.5 2.25 -2.25 L2.4 -2.55 Q3.85 -2.1 5.5 -2.85 L5.35 -2.2 6.15 -3.25 6.65 -4.45 6.95 -4.7 6.9 -4.7 6.7 -4.7 6.8 -5.25 6.8 -5.35 Q6.85 -8.5 4.6 -10.5 3.65 -11.25 2.8 -11.05 L4.8 -9.1 5.15 -7.9 Q5.65 -6.15 5.65 -4.45 L5.6 -4.45 3.35 -4.75 Q3.85 -7.05 2.35 -9.3 -0.15 -10.55 -2.5 -9.35 -4.95 -8.75 -7.0 -6.9 -9.5 -4.8 -10.55 -1.95 L-10.75 -1.9 -10.8 -2.1 -10.85 -2.25 -12.0 -4.2 -8.45 -7.45 Q-6.2 -9.7 -5.95 -12.65 L-6.05 -12.8 -6.3 -13.1 -6.7 -13.3 -6.85 -13.35 -7.0 -13.35 -7.05 -13.4 M2.1 -4.05 L1.95 -3.75 1.75 -3.85 1.35 -4.05 0.85 -4.7 Q1.3 -4.4 1.85 -4.2 L2.1 -4.05 M0.85 -3.25 L0.9 -3.4 1.3 -3.05 1.25 -2.95 0.85 -3.25 M2.9 -3.45 L3.05 -3.8 5.65 -3.9 5.55 -2.95 2.9 -3.45 M0.95 -9.0 L2.05 -8.3 Q2.5 -6.7 2.3 -5.1 L2.05 -5.2 0.55 -6.1 Q0.1 -7.5 -0.95 -8.6 L-1.1 -8.8 -0.4 -9.05 0.95 -9.0 M-6.9 -12.6 L-6.7 -12.45 -6.7 -12.25 -6.65 -11.9 -6.9 -11.5 -7.5 -10.6 -7.8 -10.8 -7.85 -10.8 -8.35 -10.95 -8.65 -11.6 -7.4 -12.35 -7.35 -12.4 -6.9 -12.6" fill="#75640a" fill-rule="evenodd" stroke="none"/>
    <path d="M-0.55 7.35 Q0.8 6.9 1.4 5.7 L1.3 5.5 1.35 5.45 Q5.6 3.0 7.5 -1.65 L7.85 -2.55 8.45 -4.5 Q9.0 -3.5 10.35 -2.8 L10.45 -2.95 10.7 -3.2 11.25 -3.3 11.3 -2.6 Q11.55 -1.8 11.45 -0.9 11.4 -0.7 11.5 -0.55 11.05 3.95 8.6 8.0 L8.15 8.4 7.3 9.45 6.05 9.4 Q2.35 9.1 -0.55 7.35" fill="#5f5300" fill-rule="evenodd" stroke="none"/>
    <path d="M-22.7 0.35 L-23.25 1.5 -23.25 1.6 -23.2 2.2 -23.1 2.55 -23.05 2.6 -22.9 2.6 -22.55 2.2 -22.55 2.15 -22.2 1.15 Q-21.35 -1.1 -19.65 -2.8 L-18.5 -3.85 Q-16.0 -5.8 -13.9 -4.5 L-12.45 -3.05 -11.4 -0.6 Q-9.95 3.65 -10.85 8.4 L-11.0 9.2 Q-11.35 9.95 -11.3 10.6 -10.8 10.25 -10.5 9.6 L-10.4 9.3 Q-9.65 7.0 -9.55 4.65 L-9.1 4.75 -8.5 4.85 -8.25 4.9 -7.6 4.9 -6.45 4.65 -5.25 4.25 -5.25 4.3 -4.85 4.95 -4.1 5.95 Q0.75 10.95 7.35 10.45 7.55 12.15 7.0 13.8 L6.7 14.7 6.3 15.45 Q5.55 16.8 4.1 17.4 L3.5 17.6 3.5 16.8 3.45 16.6 3.25 15.9 2.7 16.1 2.75 16.0 2.8 16.0 2.8 15.85 Q3.5 14.55 1.8 13.2 0.65 12.55 -0.6 12.5 L-0.6 12.35 -1.65 12.2 -1.95 12.25 -2.65 12.45 Q-4.9 13.75 -7.05 13.8 L-8.05 14.0 Q-11.65 15.8 -16.55 14.35 L-17.55 13.9 -18.9 13.0 -21.65 11.1 -22.4 10.35 Q-24.55 7.8 -26.15 4.8 L-26.45 3.8 Q-26.5 3.25 -27.1 2.5 L-29.95 -0.4 -34.15 -3.25 Q-34.8 -3.65 -35.45 -3.75 L-37.2 -4.1 -39.0 -4.3 -38.6 -4.75 -38.0 -5.25 -36.5 -6.55 -35.8 -6.8 -35.8 -6.75 -35.7 -6.75 -35.55 -6.85 -35.5 -6.95 -34.6 -7.45 Q-34.05 -7.8 -33.75 -8.3 L-34.1 -8.35 -34.75 -8.2 -34.65 -8.35 -34.25 -9.0 Q-33.0 -11.05 -30.65 -11.75 L-30.4 -11.7 -29.0 -11.5 Q-27.7 -11.15 -26.85 -10.05 L-27.05 -9.8 -27.0 -9.7 -27.15 -9.7 -27.45 -9.7 -27.65 -9.75 -27.75 -9.7 -27.85 -9.65 -28.25 -9.5 -28.3 -9.45 -28.35 -9.25 -28.3 -9.15 -27.35 -8.9 Q-23.15 -8.4 -19.35 -6.6 L-17.2 -5.4 -19.5 -6.15 -21.65 -6.05 -22.15 -5.95 Q-23.25 -5.45 -23.65 -4.25 L-23.8 -3.75 -24.05 -2.7 -24.0 -1.85 Q-23.85 -1.0 -23.25 -0.25 L-23.0 0.0 -22.7 0.35 M-41.45 9.8 L-41.45 9.4 -41.35 9.75 -41.45 9.8 M-17.2 -5.4 L-17.15 -5.45 -16.95 -5.55 -16.95 -5.5 -17.0 -5.45 -17.1 -5.4 -17.2 -5.4 M-14.85 0.85 L-15.05 0.75 -15.55 0.5 -15.8 0.55 -16.35 0.7 -16.5 0.8 -16.55 1.0 -16.75 1.0 -16.9 1.15 -17.3 1.65 Q-19.1 4.35 -18.2 7.5 -17.65 8.75 -16.35 9.05 L-16.25 9.05 Q-14.2 8.15 -13.85 5.8 -13.5 3.05 -14.85 0.85 M-24.95 21.45 L-24.9 21.55 -24.95 21.6 -25.35 21.55 -24.95 21.45 M-29.45 20.55 L-29.7 20.45 -29.55 20.4 -29.4 20.4 -29.45 20.5 -29.45 20.55 M-12.05 19.8 L-12.55 19.9 -12.65 19.85 -11.95 19.75 -12.05 19.8" fill="#cfb392" fill-rule="evenodd" stroke="none"/>
    <path d="M-22.7 0.35 L-23.0 0.0 -23.25 -0.25 Q-23.85 -1.0 -24.0 -1.85 L-24.05 -2.7 -23.8 -3.75 -23.65 -4.25 Q-23.25 -5.45 -22.15 -5.95 L-21.65 -6.05 -19.5 -6.15 -17.2 -5.4 Q-18.6 -4.8 -19.8 -3.8 L-20.25 -3.35 -21.9 -1.2 -22.7 0.35 M-39.0 -4.3 L-37.2 -4.1 -35.45 -3.75 Q-34.8 -3.65 -34.15 -3.25 L-29.95 -0.4 -27.1 2.5 Q-26.5 3.25 -26.45 3.8 L-26.15 4.8 Q-24.55 7.8 -22.4 10.35 L-21.65 11.1 -18.9 13.0 -17.55 13.9 -16.55 14.35 Q-11.65 15.8 -8.05 14.0 L-7.05 13.8 Q-4.9 13.75 -2.65 12.45 L-1.95 12.25 -1.65 12.2 -0.6 12.35 -0.6 12.5 Q0.65 12.55 1.8 13.2 3.5 14.55 2.8 15.85 L2.65 16.1 2.7 16.1 3.25 15.9 3.45 16.6 3.5 16.8 3.5 17.6 -2.9 19.9 Q-6.1 20.8 -9.2 22.1 L-11.3 22.85 -16.0 24.55 -19.95 25.7 -21.1 26.0 Q-27.9 27.25 -33.85 23.6 L-36.4 21.4 Q-39.9 17.7 -40.95 13.2 L-41.2 11.95 -41.1 12.05 Q-36.05 17.75 -28.55 19.4 L-16.2 19.8 Q-8.7 18.7 -2.15 15.2 L-2.05 15.05 -1.85 14.95 -1.35 15.0 Q-0.55 15.85 -0.3 17.2 L0.15 17.2 0.25 17.15 0.3 17.1 Q0.6 14.4 -2.0 13.15 L-3.0 13.05 -3.55 13.1 -3.65 13.3 -3.7 13.45 -3.7 13.55 Q-2.85 13.8 -2.2 14.25 -3.5 14.6 -4.65 15.35 L-9.25 17.1 -14.85 18.5 Q-26.6 21.1 -36.85 14.85 -40.1 12.85 -41.45 9.95 L-41.45 9.8 -41.35 9.75 -41.45 9.4 -42.05 6.7 Q-42.15 6.3 -41.9 6.05 L-41.95 5.95 -42.25 4.85 Q-42.35 -0.5 -39.0 -4.3 M-12.05 19.8 L-11.95 19.75 -12.65 19.85 -12.55 19.9 -12.05 19.8 M-29.45 20.55 L-29.45 20.5 -29.4 20.4 -29.55 20.4 -29.7 20.45 -29.45 20.55 M-24.95 21.45 L-25.35 21.55 -24.95 21.6 -24.9 21.55 -24.95 21.45" fill="#c19b6b" fill-rule="evenodd" stroke="none"/>
    <path d="M-10.6 -10.2 L-10.4 -10.2 -10.05 -10.05 -9.95 -10.15 -9.85 -10.3 -9.55 -10.3 -8.95 -10.15 -8.75 -10.2 -8.35 -10.15 -7.85 -10.0 -9.65 -7.6 -9.85 -7.7 -10.05 -7.9 -10.1 -7.9 -10.5 -8.15 -10.65 -8.15 -10.75 -8.2 -11.75 -7.9 -12.65 -7.2 -13.7 -5.45 -14.05 -5.6 -13.9 -5.85 -13.7 -6.6 Q-12.6 -8.3 -11.2 -9.6 L-10.6 -10.2 M-1.8 -8.65 L-1.65 -8.55 Q-1.05 -8.0 -0.7 -7.15 L-0.45 -5.35 Q-0.15 -2.65 -0.9 0.0 L-1.0 0.25 -0.95 0.4 -1.35 0.75 Q-3.05 2.25 -5.05 3.15 L-7.9 4.0 -8.6 4.1 -9.6 3.7 -9.6 2.7 -8.7 2.75 -7.65 2.45 -6.1 1.4 -5.2 0.25 -5.0 -0.2 Q-3.45 -3.45 -6.3 -5.35 L-6.65 -5.35 -7.25 -5.35 -6.05 -6.5 Q-5.85 -6.45 -5.7 -6.6 -4.0 -8.1 -1.8 -8.65" fill="#ffffff" fill-rule="evenodd" stroke="none"/>
  </g>
</svg>
