<?xml version="1.0" encoding="UTF-8" standalone="no"?>
<svg xmlns:xlink="http://www.w3.org/1999/xlink" height="63.05px" width="96.6px" xmlns="http://www.w3.org/2000/svg">
  <g transform="matrix(1.0, 0.0, 0.0, 1.0, 76.95, 36.6)">
    <path d="M-29.95 15.25 L-30.55 14.25 Q-31.65 12.75 -32.2 10.95 -33.2 7.55 -33.1 3.95 L-32.95 0.45 Q-32.9 -1.7 -34.35 -2.9 L-33.55 -2.65 -31.4 -1.65 -31.3 -1.7 -31.2 -1.7 -31.1 -1.75 -31.0 -1.8 -31.0 -1.85 -31.1 -2.05 Q-31.85 -2.8 -32.95 -3.2 -38.05 -4.9 -43.4 -4.6 L-49.55 -3.55 -51.55 -2.95 Q-54.65 -1.75 -57.5 0.0 -59.95 1.55 -62.2 3.45 L-63.6 4.5 Q-62.85 2.7 -61.7 1.25 L-58.7 -1.9 Q-56.4 -3.85 -53.55 -4.8 L-51.75 -5.5 -49.05 -6.35 -41.6 -7.2 -35.9 -6.7 -33.35 -5.8 Q-31.55 -4.9 -30.05 -3.5 L-28.55 -2.15 Q-29.3 -0.95 -29.7 0.6 L-29.95 1.9 Q-30.55 5.4 -30.15 8.8 L-29.3 13.25 -28.85 14.4 Q-29.05 14.75 -29.5 15.0 L-29.85 15.25 -29.95 15.25 M-31.55 15.8 Q-33.65 15.4 -35.45 14.15 L-36.05 13.65 Q-37.3 12.6 -38.2 11.1 L-39.55 8.95 -41.65 5.85 Q-43.6 3.35 -46.6 2.95 L-45.85 2.8 -39.5 1.25 -39.45 1.15 -39.45 1.1 -39.45 1.0 -39.4 0.9 -39.5 0.8 Q-40.2 0.15 -41.1 -0.05 L-41.1 -0.15 -41.6 -0.3 Q-44.8 -0.2 -47.95 0.75 -50.1 1.45 -51.8 2.8 L-51.9 2.8 -52.7 2.25 Q-54.4 0.8 -56.5 0.25 L-55.8 -0.2 -54.5 -0.9 Q-51.75 -2.3 -48.8 -3.15 L-45.8 -3.8 -35.4 -3.25 -35.4 -3.2 -34.85 -2.8 -34.7 -2.7 -34.0 -1.55 Q-33.4 0.2 -33.55 2.05 -33.9 5.55 -33.3 9.0 -32.65 12.7 -30.3 15.45 L-31.6 15.85 -31.55 15.8 M-41.85 0.25 Q-41.0 0.45 -40.35 0.95 L-46.2 2.25 -52.05 4.05 -51.85 3.65 -51.75 3.55 -51.65 3.55 -51.65 3.5 -51.55 3.45 -51.5 3.25 -51.5 3.15 Q-50.25 2.15 -48.6 1.6 -45.3 0.4 -41.85 0.25" fill="#e9bb05" fill-rule="evenodd" stroke="none"/>
    <path d="M-28.85 14.4 L-29.3 13.25 -30.15 8.8 Q-30.55 5.4 -29.95 1.9 L-29.7 0.6 Q-29.3 -0.95 -28.55 -2.15 L-30.05 -3.5 Q-31.55 -4.9 -33.35 -5.8 L-35.9 -6.7 -41.6 -7.2 -49.05 -6.35 -51.75 -5.5 -53.55 -4.8 Q-56.4 -3.85 -58.7 -1.9 L-61.7 1.25 Q-62.85 2.7 -63.6 4.5 L-62.2 3.45 Q-59.95 1.55 -57.5 0.0 -54.65 -1.75 -51.55 -2.95 L-49.55 -3.55 -43.4 -4.6 Q-38.05 -4.9 -32.95 -3.2 -31.85 -2.8 -31.1 -2.05 L-31.0 -1.85 -31.0 -1.8 -31.1 -1.75 -31.2 -1.7 -31.3 -1.7 -31.4 -1.65 -33.55 -2.65 -34.35 -2.9 Q-32.9 -1.7 -32.95 0.45 L-33.1 3.95 Q-33.2 7.55 -32.2 10.95 -31.65 12.75 -30.55 14.25 L-29.95 15.25 -29.8 15.45 -30.1 15.6 -30.2 15.65 -30.3 15.45 Q-32.65 12.7 -33.3 9.0 -33.9 5.55 -33.55 2.05 -33.4 0.2 -34.0 -1.55 L-34.7 -2.7 -34.85 -2.8 -35.4 -3.2 -35.4 -3.25 -45.8 -3.8 -48.8 -3.15 Q-51.75 -2.3 -54.5 -0.9 L-55.8 -0.2 -56.5 0.25 Q-54.4 0.8 -52.7 2.25 L-51.9 2.8 -51.8 2.8 Q-50.1 1.45 -47.95 0.75 -44.8 -0.2 -41.6 -0.3 L-41.1 -0.15 -41.1 -0.05 Q-40.2 0.15 -39.5 0.8 L-39.4 0.9 -39.45 1.0 -39.45 1.1 -39.45 1.15 -39.5 1.25 -45.85 2.8 -46.6 2.95 Q-43.6 3.35 -41.65 5.85 L-39.55 8.95 -38.2 11.1 Q-37.3 12.6 -36.05 13.65 L-35.45 14.15 Q-33.65 15.4 -31.55 15.8 L-31.65 15.85 -33.3 15.95 -33.35 15.95 Q-37.2 14.5 -39.2 10.95 L-40.45 8.75 Q-41.65 6.9 -43.15 5.35 -44.0 4.55 -45.0 4.05 -46.25 3.55 -47.65 3.35 L-47.85 3.3 -50.8 4.25 -52.4 4.8 -52.6 4.7 -52.5 4.2 -52.05 3.3 Q-54.0 1.55 -56.5 0.85 L-57.45 0.8 -60.5 2.85 -63.85 5.75 -63.95 5.75 -64.1 5.8 -64.25 5.7 -64.35 5.6 -64.4 5.5 -64.45 5.4 -64.15 4.2 Q-63.35 2.2 -62.05 0.55 -60.55 -1.35 -58.65 -2.8 L-57.6 -3.55 Q-55.0 -5.25 -52.1 -6.15 L-49.95 -6.8 -43.65 -7.85 -40.4 -7.9 Q-36.75 -7.8 -33.45 -6.55 -31.55 -5.8 -30.15 -4.45 L-29.2 -3.45 -28.15 -2.25 -28.0 -2.2 -28.0 -2.1 -28.0 -2.0 -28.05 -1.95 -28.3 -1.9 Q-29.45 1.25 -29.7 4.75 -29.95 8.3 -29.1 11.8 -28.7 13.75 -27.7 15.5 L-27.7 15.6 -27.7 15.85 -28.85 14.4 M-41.85 0.25 Q-45.3 0.4 -48.6 1.6 -50.25 2.15 -51.5 3.15 L-51.5 3.25 -51.55 3.45 -51.65 3.5 -51.65 3.55 -51.75 3.55 -51.85 3.65 -52.05 4.05 -46.2 2.25 -40.35 0.95 Q-41.0 0.45 -41.85 0.25" fill="#000000" fill-rule="evenodd" stroke="none"/>
    <path d="M-38.5 16.15 L-39.35 15.15 Q-40.7 13.65 -41.55 11.75 -43.05 8.25 -43.45 4.4 L-43.75 0.6 Q-43.95 -1.7 -45.65 -2.85 L-44.8 -2.65 -42.35 -1.9 -42.2 -1.95 -42.1 -1.95 -42.0 -1.95 -41.95 -2.1 -41.95 -2.15 -42.05 -2.35 Q-43.0 -3.05 -44.2 -3.3 -49.95 -4.45 -55.65 -3.4 -59.0 -2.75 -62.1 -1.55 L-64.15 -0.55 Q-67.35 1.15 -70.2 3.4 -72.65 5.4 -74.75 7.75 L-76.15 9.0 Q-75.55 7.05 -74.55 5.25 -73.4 3.2 -71.75 1.5 -69.55 -0.9 -66.55 -2.35 -65.65 -2.75 -64.75 -3.3 L-61.95 -4.6 Q-58.1 -6.0 -54.1 -6.5 L-47.85 -6.65 -45.0 -6.1 Q-42.9 -5.35 -41.15 -4.0 L-39.35 -2.8 Q-40.0 -1.35 -40.2 0.3 L-40.3 1.8 Q-40.45 5.55 -39.6 9.15 L-38.1 13.9 -37.5 15.05 -38.05 15.8 -38.4 16.1 -38.5 16.15 M-63.4 6.35 L-63.35 6.3 -63.3 6.1 -63.3 6.0 Q-62.1 4.75 -60.45 3.9 -57.0 2.25 -53.3 1.55 -52.35 1.65 -51.6 2.1 L-57.75 4.3 Q-60.85 5.45 -63.75 7.0 L-63.6 6.6 -63.5 6.45 -63.45 6.4 -63.4 6.35" fill="#fce142" fill-rule="evenodd" stroke="none"/>
    <path d="M-37.5 15.05 L-38.1 13.9 -39.6 9.15 Q-40.45 5.55 -40.3 1.8 L-40.2 0.3 Q-40.0 -1.35 -39.35 -2.8 L-41.15 -4.0 Q-42.9 -5.35 -45.0 -6.1 L-47.85 -6.65 -54.1 -6.5 Q-58.1 -6.0 -61.95 -4.6 L-64.75 -3.3 Q-65.65 -2.75 -66.55 -2.35 -69.55 -0.9 -71.75 1.5 -73.4 3.2 -74.55 5.25 -75.55 7.05 -76.15 9.0 L-74.75 7.75 Q-72.65 5.4 -70.2 3.4 -67.35 1.15 -64.15 -0.55 L-62.1 -1.55 Q-59.0 -2.75 -55.65 -3.4 -49.95 -4.45 -44.2 -3.3 -43.0 -3.05 -42.05 -2.35 L-41.95 -2.15 -41.95 -2.1 -42.0 -1.95 -42.1 -1.95 -42.2 -1.95 -42.35 -1.9 -44.8 -2.65 -45.65 -2.85 Q-43.95 -1.7 -43.75 0.6 L-43.45 4.4 Q-43.05 8.25 -41.55 11.75 -40.7 13.65 -39.35 15.15 L-38.5 16.15 -38.35 16.3 -38.6 16.55 -38.75 16.55 -38.9 16.45 Q-41.8 13.75 -42.95 9.85 -44.05 6.2 -44.15 2.4 -44.25 0.4 -45.1 -1.35 L-46.05 -2.55 -46.2 -2.65 Q-46.6 -2.7 -46.85 -2.95 L-46.9 -3.0 Q-52.55 -3.7 -58.1 -2.25 -59.7 -1.8 -61.3 -1.15 -64.35 0.1 -67.05 2.0 L-68.35 2.95 -69.1 3.5 Q-66.75 3.85 -64.7 5.15 L-63.8 5.65 -63.65 5.65 Q-62.05 3.95 -59.85 2.95 -56.55 1.5 -53.15 0.95 L-52.6 1.05 -52.55 1.1 Q-51.55 1.25 -50.75 1.85 L-50.65 1.95 -50.65 2.05 -50.65 2.15 -50.65 2.25 -50.7 2.35 -57.3 4.85 -58.05 5.1 Q-54.8 5.15 -52.4 7.55 L-49.7 10.6 -47.95 12.75 Q-46.85 14.25 -45.25 15.2 L-44.55 15.65 Q-42.5 16.8 -40.2 16.9 L-40.25 17.0 Q-40.9 17.65 -42.05 17.35 L-42.1 17.35 Q-46.45 16.25 -49.05 12.65 L-50.7 10.55 Q-52.2 8.7 -54.1 7.2 -55.05 6.45 -56.2 6.1 L-59.15 5.65 -59.35 5.65 -62.45 7.05 -64.1 7.85 -64.25 7.8 -64.3 7.2 -63.9 6.2 Q-66.25 4.6 -69.05 4.15 L-70.0 4.25 -73.05 6.85 Q-74.85 8.5 -76.25 10.4 L-76.35 10.45 -76.5 10.5 -76.7 10.4 -76.8 10.35 -76.9 10.25 -76.95 10.15 -76.8 8.75 Q-76.2 6.5 -75.05 4.55 -73.7 2.35 -71.8 0.55 L-70.75 -0.45 Q-68.25 -2.55 -65.2 -3.95 L-62.95 -4.95 Q-59.75 -6.2 -56.4 -6.95 L-52.9 -7.4 -45.15 -6.85 Q-43.05 -6.35 -41.35 -5.05 L-40.2 -4.1 -38.95 -2.95 -38.8 -2.9 -38.75 -2.8 -38.75 -2.7 -38.8 -2.65 -39.05 -2.55 Q-39.85 1.0 -39.65 4.75 -39.45 8.65 -38.1 12.3 -37.35 14.35 -36.05 16.05 L-36.05 16.15 -36.05 16.45 -37.5 15.05 M-63.4 6.35 L-63.45 6.4 -63.5 6.45 -63.6 6.6 -63.75 7.0 Q-60.85 5.45 -57.75 4.3 L-51.6 2.1 Q-52.35 1.65 -53.3 1.55 -57.0 2.25 -60.45 3.9 -62.1 4.75 -63.3 6.0 L-63.3 6.1 -63.35 6.3 -63.4 6.35" fill="#000000" fill-rule="evenodd" stroke="none"/>
    <path d="M-40.2 16.9 Q-42.5 16.8 -44.55 15.65 L-45.25 15.2 Q-46.85 14.25 -47.95 12.75 L-49.7 10.6 -52.4 7.55 Q-54.8 5.15 -58.05 5.1 L-57.3 4.85 -50.7 2.35 -50.65 2.25 -50.65 2.15 -50.65 2.05 -50.65 1.95 -50.75 1.85 Q-51.55 1.25 -52.55 1.1 L-52.6 1.05 -53.15 0.95 Q-56.55 1.5 -59.85 2.95 -62.05 3.95 -63.65 5.65 L-63.8 5.65 -64.7 5.15 Q-66.75 3.85 -69.1 3.5 L-68.35 2.95 -67.05 2.0 Q-64.35 0.1 -61.3 -1.15 -59.7 -1.8 -58.1 -2.25 -52.55 -3.7 -46.9 -3.0 L-46.85 -2.95 Q-46.6 -2.7 -46.2 -2.65 L-46.05 -2.55 -45.1 -1.35 Q-44.25 0.4 -44.15 2.4 -44.05 6.2 -42.95 9.85 -41.8 13.75 -38.9 16.45 L-40.2 16.95 -40.2 16.9" fill="#e9bb05" fill-rule="evenodd" stroke="none"/>
    <path d="M-31.2 -20.9 L-31.35 -20.95 -31.2 -21.0 -31.2 -20.9 M-31.15 2.6 L-31.4 2.45 -30.55 2.45 -30.55 2.2 -30.3 2.4 Q-27.2 4.85 -25.5 8.5 L-25.4 8.55 -25.2 8.6 Q-22.75 7.7 -20.2 7.1 L-19.1 7.6 -19.1 7.65 -19.9 7.8 -22.6 10.1 -24.0 11.15 -25.35 12.15 -29.9 15.35 -29.9 15.4 -33.2 17.6 -36.3 19.75 -37.15 20.25 -38.75 21.25 -40.4 22.1 -43.45 23.4 -44.7 23.9 -44.9 24.05 -45.05 24.15 -45.3 24.1 -48.7 25.3 -48.9 25.35 -49.45 25.5 -52.65 26.25 -54.1 26.4 -56.25 26.45 -57.1 25.95 -57.25 25.5 -54.2 23.3 -51.0 21.25 -48.6 19.55 -48.45 19.45 -47.05 18.3 -41.6 13.6 -38.8 11.0 Q-36.25 8.45 -34.05 5.5 L-33.8 5.15 -33.7 4.95 -33.75 4.75 -33.75 4.6 -33.7 4.6 -33.5 4.45 -33.45 4.45 -32.25 2.45 -31.6 2.45 -31.95 3.25 -33.05 5.05 -33.05 5.1 -32.8 6.45 Q-32.7 7.45 -32.05 8.2 L-31.05 9.25 Q-29.1 10.95 -26.5 11.45 L-26.2 11.35 -25.65 11.4 -25.0 10.95 -21.7 8.35 -25.3 9.35 -25.7 9.25 -26.9 7.6 -28.3 5.4 -28.45 5.2 Q-29.6 3.75 -31.1 2.65 L-31.15 2.6 M-48.65 21.0 L-48.7 20.4 -48.8 20.5 -51.25 22.15 -52.0 22.65 -51.95 22.75 -52.05 22.85 -52.1 22.9 -52.1 22.95 Q-52.1 23.8 -51.6 24.5 L-51.5 24.55 -51.45 24.55 -51.3 24.75 Q-51.2 24.75 -51.15 24.85 L-50.95 25.15 -49.7 24.85 -47.95 24.35 -46.5 23.85 -46.85 23.6 -48.15 22.55 -48.25 22.45 -48.3 22.35 -48.65 21.0 M-43.85 17.65 L-44.0 16.75 -45.25 17.85 -48.2 20.05 Q-48.15 21.05 -47.75 21.9 L-47.6 22.15 -46.75 22.85 Q-46.25 23.35 -45.6 23.5 L-44.5 23.05 -40.7 21.35 -40.2 21.1 -40.55 21.0 Q-41.65 20.65 -42.55 19.8 L-43.45 18.65 -43.85 17.65 M-53.8 23.85 L-56.25 25.65 -51.7 25.25 Q-52.6 24.4 -52.7 23.15 L-53.8 23.85 M-33.3 7.1 L-33.3 6.9 -33.35 6.75 -33.55 5.75 -34.4 6.95 -38.2 11.3 -37.4 14.05 -37.3 14.15 -36.5 14.8 Q-34.9 16.15 -32.85 16.05 L-32.7 16.15 -32.5 16.3 -31.15 15.35 -31.1 15.3 -30.6 15.0 -26.75 12.25 -26.65 12.15 -26.85 12.1 Q-29.55 11.45 -31.45 9.65 L-33.0 7.85 -33.3 7.1 M-38.25 20.05 L-37.3 19.5 -35.6 18.45 -33.1 16.7 Q-35.65 16.65 -37.45 14.8 L-37.7 14.45 -37.75 14.4 -38.45 12.8 -38.65 11.75 -41.9 14.95 -43.6 16.45 Q-43.45 17.45 -42.95 18.25 L-42.2 19.3 -41.4 19.9 -40.05 20.55 -39.8 20.55 -39.6 20.6 -39.45 20.55 -39.35 20.5 -39.15 20.55 -38.25 20.05" fill="#000000" fill-rule="evenodd" stroke="none"/>
    <path d="M-31.6 2.45 L-31.6 2.4 -31.15 2.6 -31.1 2.65 -31.45 3.45 Q-31.5 3.75 -31.7 4.05 L-32.35 4.95 -32.4 5.15 Q-32.3 6.85 -30.9 8.05 L-30.4 8.5 -28.65 9.55 Q-26.9 10.45 -25.0 10.95 L-25.65 11.4 -26.2 11.35 -26.5 11.45 Q-29.1 10.95 -31.05 9.25 L-32.05 8.2 Q-32.7 7.45 -32.8 6.45 L-33.05 5.1 -33.05 5.05 -31.95 3.25 -31.6 2.45 M-49.7 24.85 L-50.95 25.15 -51.15 24.85 Q-51.2 24.75 -51.3 24.75 L-51.45 24.55 -51.5 24.55 -51.6 24.5 Q-52.1 23.8 -52.1 22.95 L-52.1 22.9 -52.05 22.85 -51.95 22.75 -52.0 22.65 -51.25 22.15 -48.8 20.5 -48.7 20.4 -48.65 21.0 -50.75 22.65 -51.05 22.9 -51.15 23.05 Q-51.3 23.85 -50.6 24.35 L-50.5 24.4 -49.7 24.85 M-44.5 23.05 L-45.6 23.5 Q-46.25 23.35 -46.75 22.85 L-47.6 22.15 -47.75 21.9 Q-48.15 21.05 -48.2 20.05 L-45.25 17.85 -44.0 16.75 -43.85 17.65 Q-45.35 18.45 -46.4 19.8 L-46.85 20.3 -46.95 20.5 -46.8 21.15 -46.3 21.85 Q-45.55 22.65 -44.5 23.05 M-53.8 23.85 L-52.7 23.15 Q-52.6 24.4 -51.7 25.25 L-56.25 25.65 -53.8 23.85 M-33.3 7.1 L-33.4 7.05 -34.3 8.25 -36.1 9.9 -36.4 10.15 -36.8 10.6 -37.0 11.05 -37.0 11.5 Q-37.1 12.35 -36.6 13.05 L-36.3 13.45 -36.0 13.7 -34.05 14.55 -31.85 15.2 -31.15 15.35 -32.5 16.3 -32.7 16.15 -32.85 16.05 Q-34.9 16.15 -36.5 14.8 L-37.3 14.15 -37.4 14.05 -38.2 11.3 -34.4 6.95 -33.55 5.75 -33.35 6.75 -33.3 6.9 -33.3 7.1 M-38.25 20.05 L-39.15 20.55 -39.35 20.5 -39.45 20.55 -39.6 20.6 -39.8 20.55 -40.05 20.55 -41.4 19.9 -42.2 19.3 -42.95 18.25 Q-43.45 17.45 -43.6 16.45 L-41.9 14.95 -38.65 11.75 -38.45 12.8 -40.6 14.9 -40.9 15.35 -41.3 15.65 -41.6 15.85 -42.1 16.65 -42.1 17.25 -41.95 17.55 -41.8 17.75 Q-40.35 19.45 -38.25 20.05" fill="#fce142" fill-rule="evenodd" stroke="none"/>
    <path d="M-31.1 2.65 Q-29.6 3.75 -28.45 5.2 L-28.3 5.4 -26.9 7.6 -25.7 9.25 -25.3 9.35 -21.7 8.35 -25.0 10.95 Q-26.9 10.45 -28.65 9.55 L-30.4 8.5 -30.9 8.05 Q-32.3 6.85 -32.4 5.15 L-32.35 4.95 -31.7 4.05 Q-31.5 3.75 -31.45 3.45 L-31.1 2.65 M-49.7 24.85 L-50.5 24.4 -50.6 24.35 Q-51.3 23.85 -51.15 23.05 L-51.05 22.9 -50.75 22.65 -48.65 21.0 -48.3 22.35 -48.25 22.45 -48.15 22.55 -46.85 23.6 -46.5 23.85 -47.95 24.35 -49.7 24.85 M-44.5 23.05 Q-45.55 22.65 -46.3 21.85 L-46.8 21.15 -46.95 20.5 -46.85 20.3 -46.4 19.8 Q-45.35 18.45 -43.85 17.65 L-43.45 18.65 -42.55 19.8 Q-41.65 20.65 -40.55 21.0 L-40.7 21.35 -44.5 23.05 M-31.15 15.35 L-31.85 15.2 -34.05 14.55 -36.0 13.7 -36.3 13.45 -36.6 13.05 Q-37.1 12.35 -37.0 11.5 L-37.0 11.05 -36.8 10.6 -36.4 10.15 -36.1 9.9 -34.3 8.25 -33.4 7.05 -33.3 7.1 -33.0 7.85 -31.45 9.65 Q-29.55 11.45 -26.85 12.1 L-26.75 12.25 -30.6 15.0 -31.1 15.3 -31.15 15.35 M-38.45 12.8 L-37.75 14.4 -37.7 14.45 -37.45 14.8 Q-35.65 16.65 -33.1 16.7 L-35.6 18.45 -37.3 19.5 -38.25 20.05 Q-40.35 19.45 -41.8 17.75 L-41.95 17.55 -42.1 17.25 -42.1 16.65 -41.6 15.85 -41.3 15.65 -40.9 15.35 -40.6 14.9 -38.45 12.8" fill="#e9bb05" fill-rule="evenodd" stroke="none"/>
    <path d="M-14.9 -22.95 L-15.0 -23.05 Q-14.1 -23.85 -12.95 -24.2 L-10.5 -24.5 -8.4 -24.6 -8.35 -24.7 -8.3 -24.8 -8.35 -24.9 -8.45 -25.1 -8.55 -25.25 -8.6 -25.35 -8.55 -25.45 -8.5 -25.7 -8.55 -25.8 -8.45 -25.9 -8.2 -26.3 -8.1 -26.45 -7.0 -26.45 Q-4.45 -25.95 -3.3 -23.65 L-3.15 -23.25 Q-2.8 -22.3 -2.05 -21.75 L-2.1 -21.7 -2.0 -21.55 -1.5 -21.15 Q0.8 -20.25 3.15 -20.7 2.5 -19.15 2.25 -17.4 L2.35 -17.35 2.5 -17.35 2.8 -18.15 Q3.8 -21.05 5.6 -23.5 5.8 -23.75 5.65 -24.05 5.0 -25.1 5.0 -26.35 L5.1 -26.5 5.3 -26.75 5.65 -26.9 5.8 -27.05 6.3 -26.8 7.25 -25.15 8.45 -25.3 8.8 -25.25 11.25 -24.9 Q15.4 -23.8 16.95 -19.95 17.7 -18.0 18.05 -15.85 L15.15 -16.05 Q13.15 -15.7 11.65 -14.4 8.8 -12.0 6.9 -8.7 5.0 -5.55 2.6 -2.75 0.95 -0.8 -1.4 0.1 L-3.55 1.25 -3.5 1.35 -3.5 1.45 -3.45 1.55 Q-0.7 3.55 2.65 4.35 L4.45 4.7 7.0 4.85 9.15 4.7 Q11.85 4.35 14.25 3.05 L17.6 1.15 17.7 1.25 Q15.8 3.95 13.0 5.9 L10.0 7.65 Q6.95 9.05 3.55 9.75 L1.75 10.1 1.2 9.85 -1.7 8.55 Q-5.1 6.85 -5.7 3.2 L-5.6 1.95 Q-5.0 0.1 -3.25 -0.75 L-1.95 -1.15 Q-1.2 -1.35 -1.5 -2.25 L-3.05 -2.45 Q-0.95 -4.1 0.4 -6.4 1.65 -8.25 1.45 -10.5 L1.4 -10.6 1.1 -11.0 0.8 -11.6 Q0.25 -12.75 -0.85 -13.7 -2.7 -15.4 -5.05 -15.85 L-5.9 -15.95 Q-5.0 -17.4 -6.05 -18.95 -8.05 -21.85 -11.55 -20.95 L-12.05 -20.75 Q-12.85 -20.45 -13.45 -19.95 L-13.5 -19.95 -15.2 -18.8 -16.1 -18.0 Q-15.9 -19.3 -16.25 -20.45 L-15.2 -20.95 -15.1 -20.9 -15.0 -21.0 -14.95 -21.05 -14.9 -21.05 -13.3 -21.75 -13.6 -21.8 Q-13.3 -21.95 -13.3 -22.4 L-14.85 -22.95 -14.9 -22.95 M-15.8 -17.45 L-14.35 -18.75 -14.35 -18.7 -14.35 -18.6 -14.2 -18.55 -14.0 -18.65 -13.8 -18.95 -12.4 -19.95 -10.35 -20.4 Q-7.05 -20.35 -6.2 -17.25 L-6.9 -16.15 -6.9 -16.1 -7.85 -15.05 -12.35 -10.6 Q-13.8 -9.0 -14.7 -7.0 L-15.25 -5.6 -15.3 -5.65 Q-16.6 -9.6 -14.65 -13.2 L-14.15 -14.2 -13.5 -15.35 Q-12.55 -16.8 -12.35 -18.3 -14.2 -18.8 -15.8 -17.45 M4.8 -15.0 L4.8 -14.9 Q4.8 -13.75 6.0 -13.4 L6.1 -13.45 6.2 -13.55 6.25 -13.8 6.1 -13.85 Q5.35 -14.3 5.1 -15.15 L4.95 -15.2 4.9 -15.15 4.8 -15.0 M6.95 -23.8 L6.9 -23.75 Q7.5 -23.05 7.6 -22.15 7.7 -21.2 7.3 -20.3 6.45 -18.3 4.95 -16.8 L3.85 -17.05 3.5 -16.8 Q3.0 -16.55 2.85 -16.0 L2.85 -15.05 Q2.8 -12.75 4.75 -11.85 L4.85 -12.0 4.9 -12.1 4.8 -12.4 4.3 -13.05 Q3.15 -14.3 3.55 -16.0 3.9 -16.45 4.5 -16.45 L4.55 -16.4 4.45 -16.3 Q4.65 -16.05 4.9 -16.15 L4.95 -16.1 5.9 -15.35 6.1 -15.3 6.25 -15.45 6.25 -15.55 6.2 -15.65 5.4 -16.55 Q7.45 -18.35 8.0 -20.9 8.3 -22.7 7.1 -23.85 L6.95 -23.8" fill="#8a78b6" fill-rule="evenodd" stroke="none"/>
    <path d="M-22.35 -34.25 Q-23.8 -32.7 -24.5 -30.5 L-24.9 -28.95 Q-25.3 -27.0 -25.15 -25.05 L-25.2 -24.95 -25.35 -24.9 -25.55 -24.95 -25.95 -26.55 -29.7 -27.35 Q-31.75 -28.05 -33.75 -27.05 L-34.6 -26.6 -36.05 -25.75 Q-33.7 -25.65 -32.45 -23.7 L-32.1 -23.15 Q-31.5 -21.8 -31.55 -20.25 -31.65 -18.45 -32.95 -17.15 -34.85 -15.25 -37.4 -15.1 L-37.8 -15.15 -38.1 -15.15 -37.95 -15.0 -35.8 -12.75 -34.2 -10.4 -33.05 -8.05 Q-31.95 -4.75 -32.55 -1.4 -32.8 -0.05 -33.3 1.2 L-32.2 1.8 Q-30.7 2.15 -29.55 3.25 -28.1 4.65 -27.2 6.35 L-25.8 8.8 -25.6 9.15 Q-23.1 7.9 -20.1 7.55 L-19.3 7.55 -21.95 6.0 Q-24.95 4.1 -27.05 1.2 -28.45 -0.75 -29.05 -3.05 -29.5 -4.9 -29.0 -6.75 -27.85 -10.55 -25.45 -13.8 L-23.25 -16.35 Q-20.95 -18.7 -18.0 -20.25 L-16.45 -21.05 -16.05 -21.25 -16.7 -21.55 Q-18.55 -22.5 -19.75 -24.35 L-20.25 -25.1 Q-22.4 -28.15 -22.5 -31.9 -22.55 -33.05 -22.2 -34.15 L-22.1 -34.55 -22.35 -34.25 M-21.7 -35.75 Q-20.95 -36.35 -20.0 -36.6 L-19.9 -36.55 -19.9 -36.5 -19.75 -36.45 -19.65 -36.4 Q-19.6 -35.9 -20.0 -35.45 -20.95 -31.75 -19.1 -28.35 L-18.55 -27.25 -17.2 -24.95 -15.35 -23.4 -14.05 -24.45 -13.4 -24.85 Q-11.45 -25.85 -9.4 -25.45 L-9.2 -25.9 -8.55 -27.05 -8.3 -27.15 -8.35 -27.2 Q-5.75 -27.75 -3.95 -25.65 -2.6 -24.1 -1.6 -22.35 L-1.15 -21.8 -1.15 -21.7 -1.2 -21.6 -1.15 -21.55 Q-0.3 -21.1 0.8 -21.1 L3.35 -21.15 3.7 -21.8 5.0 -23.95 Q4.3 -25.15 4.55 -26.65 L4.7 -26.95 5.6 -27.65 Q7.0 -27.5 7.5 -26.0 L7.55 -25.9 12.5 -25.35 Q15.1 -24.55 16.5 -22.4 18.6 -19.25 18.8 -15.55 18.8 -14.45 17.7 -15.1 L17.55 -15.25 Q13.35 -15.7 10.7 -12.45 L9.65 -11.05 5.2 -4.6 5.15 -4.45 Q6.1 -3.0 7.7 -2.35 L8.9 -2.85 11.95 -2.95 12.0 -2.85 12.0 -2.75 11.8 -2.35 11.4 -2.05 10.8 -1.05 13.55 -1.3 18.4 -2.0 Q18.9 -2.05 19.2 -1.7 L19.4 -1.65 19.5 -1.6 19.45 -1.25 19.4 -0.95 19.35 -0.85 19.65 -0.55 Q18.0 3.65 14.15 6.15 L12.4 7.3 Q8.65 9.75 4.15 10.65 L3.8 10.75 0.0 11.35 -6.1 11.15 -10.75 11.05 Q-14.0 10.25 -17.0 8.8 L-18.2 8.15 -18.2 8.2 -18.2 8.3 -18.25 8.35 -18.3 8.45 -19.25 8.5 -19.5 8.35 Q-22.15 8.35 -24.45 9.65 L-25.15 10.0 -25.2 10.1 -25.35 10.45 -25.5 10.55 -25.75 10.55 -25.95 10.4 Q-26.5 8.95 -27.3 7.65 L-28.75 5.35 Q-29.6 4.05 -30.95 3.25 -32.55 2.25 -34.4 2.1 L-34.4 2.0 -34.45 1.9 -34.45 1.8 Q-33.7 0.2 -33.35 -1.5 -32.95 -3.35 -33.2 -5.2 -33.4 -6.55 -33.9 -7.8 -35.0 -10.95 -37.3 -13.35 L-40.55 -16.15 -40.55 -16.25 -40.5 -16.35 -40.45 -16.45 -38.45 -16.2 Q-36.55 -15.4 -34.8 -16.6 -33.8 -17.25 -33.15 -18.15 -32.7 -18.8 -32.4 -19.55 -32.2 -21.05 -32.8 -22.5 L-32.9 -22.8 -33.85 -24.05 Q-35.3 -25.5 -37.2 -24.55 L-37.7 -24.65 -37.75 -24.7 -37.8 -24.8 -37.8 -24.9 Q-36.75 -26.35 -35.1 -27.15 L-33.3 -27.95 -28.0 -27.7 -26.8 -27.25 -26.0 -26.95 -25.8 -28.8 Q-24.9 -32.3 -22.5 -35.0 L-21.7 -35.75 M-20.2 -36.15 L-20.25 -36.15 -20.25 -36.05 -20.2 -36.15 M-14.1 -22.2 Q-14.95 -22.45 -15.7 -22.9 L-15.9 -22.95 Q-16.75 -23.4 -17.4 -24.15 -18.7 -25.5 -19.45 -27.3 L-20.6 -30.45 Q-21.6 -33.35 -20.3 -35.95 L-21.7 -34.95 Q-22.5 -31.1 -20.95 -27.55 -20.2 -25.9 -19.05 -24.5 -17.8 -23.05 -16.25 -22.1 L-15.35 -21.55 -14.3 -22.05 -14.2 -22.0 -13.9 -22.15 -14.1 -22.2 M-15.0 -23.05 L-14.9 -22.95 -14.85 -22.95 -13.3 -22.4 Q-13.3 -21.95 -13.6 -21.8 L-13.3 -21.75 -14.9 -21.05 -14.95 -21.05 -15.0 -21.0 -15.1 -20.9 -15.2 -20.95 -16.25 -20.45 Q-18.5 -19.3 -20.55 -17.65 -23.15 -15.65 -25.05 -13.05 -26.95 -10.35 -27.85 -7.2 L-28.2 -5.5 Q-28.7 -2.65 -27.0 -0.25 L-24.45 2.85 -21.5 5.3 Q-17.9 7.55 -13.95 9.05 -11.6 9.95 -9.15 10.3 L-8.8 10.35 -9.15 10.25 Q-10.7 9.55 -11.9 8.35 L-12.25 7.95 Q-13.35 6.55 -13.5 4.75 L-13.5 3.45 Q-13.25 1.2 -11.4 -0.05 -12.95 -0.35 -13.95 -1.55 L-14.9 -2.85 -15.05 0.15 -15.1 0.25 -15.2 0.35 -15.4 0.35 Q-16.0 -0.9 -15.9 -2.35 L-15.55 -4.65 -15.6 -5.25 -15.6 -5.4 -15.45 -5.5 -15.4 -5.55 -15.3 -5.45 -15.25 -5.6 -14.7 -7.0 Q-13.8 -9.0 -12.35 -10.6 L-7.85 -15.05 -6.9 -16.1 -6.9 -16.15 -6.2 -17.25 Q-7.05 -20.35 -10.35 -20.4 L-12.4 -19.95 -13.8 -18.95 -14.0 -18.65 -14.2 -18.55 -14.35 -18.6 -14.35 -18.7 -14.35 -18.75 -15.8 -17.45 -15.95 -17.3 -16.1 -17.15 -18.7 -13.85 -20.0 -11.55 Q-21.7 -8.05 -21.15 -4.25 -20.7 -0.9 -18.9 1.95 L-18.9 2.05 -18.9 2.25 -19.5 2.3 Q-20.9 0.35 -21.55 -1.9 -22.4 -4.85 -21.9 -7.95 -21.55 -10.15 -20.6 -12.1 L-19.7 -13.6 Q-18.15 -16.05 -16.1 -18.0 L-15.2 -18.8 -13.5 -19.95 -13.45 -19.95 Q-12.85 -20.45 -12.05 -20.75 L-11.55 -20.95 Q-8.05 -21.85 -6.05 -18.95 -5.0 -17.4 -5.9 -15.95 L-5.05 -15.85 Q-2.7 -15.4 -0.85 -13.7 0.25 -12.75 0.8 -11.6 L1.1 -11.0 1.4 -10.6 1.45 -10.5 Q1.65 -8.25 0.4 -6.4 -0.95 -4.1 -3.05 -2.45 L-3.55 -2.15 -3.7 -2.0 Q-4.75 -1.3 -5.95 -0.75 -7.9 0.15 -9.9 0.05 L-10.9 0.75 Q-11.8 1.2 -12.2 2.15 -12.95 3.7 -12.4 5.45 -11.5 8.65 -8.15 9.7 -4.5 10.85 -0.65 10.4 L1.75 10.1 3.55 9.75 Q6.95 9.05 10.0 7.65 L13.0 5.9 Q15.8 3.95 17.7 1.25 L17.9 0.95 17.6 1.15 14.25 3.05 Q11.85 4.35 9.15 4.7 L7.0 4.85 4.45 4.7 2.65 4.35 Q-0.7 3.55 -3.45 1.55 L-3.5 1.45 -3.5 1.35 -3.55 1.25 -1.4 0.1 Q0.95 -0.8 2.6 -2.75 5.0 -5.55 6.9 -8.7 8.8 -12.0 11.65 -14.4 13.15 -15.7 15.15 -16.05 L18.05 -15.85 Q17.7 -18.0 16.95 -19.95 15.4 -23.8 11.25 -24.9 L8.8 -25.25 8.45 -25.3 7.25 -25.15 6.3 -26.8 5.8 -27.05 5.65 -26.9 5.3 -26.75 5.1 -26.5 5.0 -26.35 Q5.0 -25.1 5.65 -24.05 5.8 -23.75 5.6 -23.5 3.8 -21.05 2.8 -18.15 L2.5 -17.35 2.35 -17.35 2.25 -17.4 Q2.5 -19.15 3.15 -20.7 0.8 -20.25 -1.5 -21.15 L-2.0 -21.55 -2.1 -21.7 -2.05 -21.75 Q-2.8 -22.3 -3.15 -23.25 L-3.3 -23.65 Q-4.45 -25.95 -7.0 -26.45 L-8.1 -26.45 -8.2 -26.3 -8.45 -25.9 -8.55 -25.8 -8.5 -25.7 -8.55 -25.45 -8.6 -25.35 -8.55 -25.25 -8.45 -25.1 -8.35 -24.9 -8.3 -24.8 -8.35 -24.7 -8.4 -24.6 -10.5 -24.5 -12.95 -24.2 Q-14.1 -23.85 -15.0 -23.05 M-9.15 -10.4 L-9.75 -11.0 -10.2 -11.65 -11.95 -9.8 Q-14.25 -7.35 -14.75 -4.15 L-14.8 -3.9 -14.4 -3.1 -13.9 -2.4 -13.9 -2.3 Q-12.65 -0.95 -10.9 -0.55 -8.05 -0.6 -5.6 -1.85 L-3.15 -3.45 -1.65 -4.95 0.0 -7.15 0.55 -8.45 0.5 -9.25 -0.5 -8.5 Q-3.2 -7.35 -5.9 -8.4 -7.7 -9.15 -9.15 -10.4 M0.4 -10.9 L-1.2 -13.05 Q-1.0 -12.0 -1.85 -11.45 -3.2 -10.55 -4.7 -11.25 L-5.2 -11.45 Q-6.25 -11.85 -7.15 -12.45 L-8.3 -13.5 -9.2 -12.65 -9.85 -12.0 -8.65 -10.85 Q-6.4 -9.05 -3.3 -8.75 -1.55 -8.55 -0.1 -9.55 -0.05 -9.95 0.35 -10.15 L0.5 -10.6 0.5 -10.7 0.4 -10.9 M-6.95 -13.95 L-7.25 -13.6 -7.0 -13.1 -6.75 -12.85 Q-5.95 -12.1 -5.05 -13.0 L-5.1 -13.1 Q-5.3 -13.8 -5.85 -14.0 L-6.8 -14.05 -6.95 -13.95 M6.95 -23.8 L7.1 -23.85 Q8.3 -22.7 8.0 -20.9 7.45 -18.35 5.4 -16.55 L6.2 -15.65 6.25 -15.55 6.25 -15.45 6.1 -15.3 5.9 -15.35 4.95 -16.1 4.9 -16.15 Q4.65 -16.05 4.45 -16.3 L4.55 -16.4 4.5 -16.45 Q3.9 -16.45 3.55 -16.0 3.15 -14.3 4.3 -13.05 L4.8 -12.4 4.9 -12.1 4.85 -12.0 4.75 -11.85 Q2.8 -12.75 2.85 -15.05 L2.85 -16.0 Q3.0 -16.55 3.5 -16.8 L3.85 -17.05 4.95 -16.8 Q6.45 -18.3 7.3 -20.3 7.7 -21.2 7.6 -22.15 7.5 -23.05 6.9 -23.75 L6.95 -23.8 M4.8 -15.0 L4.9 -15.15 4.95 -15.2 5.1 -15.15 Q5.35 -14.3 6.1 -13.85 L6.25 -13.8 6.2 -13.55 6.1 -13.45 6.0 -13.4 Q4.8 -13.75 4.8 -14.9 L4.8 -15.0 M4.85 -3.95 L4.8 -4.05 4.7 -3.85 Q2.0 -0.25 -2.1 1.5 -0.2 2.65 1.95 3.3 2.0 3.1 2.2 2.95 L2.2 2.85 2.3 2.8 Q2.45 2.2 3.0 1.6 L3.5 0.9 Q4.35 -0.6 5.9 -1.45 L6.85 -1.95 Q5.45 -2.65 4.85 -3.95 M10.4 -2.05 L10.6 -2.35 8.6 -1.85 8.6 -1.75 8.5 -1.65 7.85 -1.6 5.45 -0.25 Q4.6 0.35 4.05 1.2 3.4 2.2 2.9 3.3 L2.8 3.55 4.95 3.9 7.0 3.95 7.55 3.95 9.3 3.75 Q8.8 2.15 9.3 0.45 L9.8 -0.9 9.8 -1.0 9.85 -1.1 9.9 -1.15 10.4 -2.05 M10.0 1.4 Q9.8 2.55 9.9 3.65 14.9 2.65 18.5 -0.95 L18.05 -1.1 17.2 -1.15 12.4 -0.35 11.5 -0.35 10.5 -0.5 10.0 1.4" fill="#000000" fill-rule="evenodd" stroke="none"/>
    <path d="M-9.2 -12.65 Q-8.9 -11.95 -8.25 -11.5 L-7.6 -11.05 -6.15 -10.2 -5.45 -9.9 -2.95 -9.35 -2.3 -9.45 Q-1.05 -9.7 -0.1 -10.4 L0.4 -10.9 0.5 -10.7 0.5 -10.6 0.35 -10.15 Q-0.05 -9.95 -0.1 -9.55 -1.55 -8.55 -3.3 -8.75 -6.4 -9.05 -8.65 -10.85 L-9.85 -12.0 -9.2 -12.65" fill="#1f3c8f" fill-rule="evenodd" stroke="none"/>
    <path d="M-9.2 -12.65 L-8.3 -13.5 -7.15 -12.45 Q-6.25 -11.85 -5.2 -11.45 L-4.7 -11.25 Q-3.2 -10.55 -1.85 -11.45 -1.0 -12.0 -1.2 -13.05 L0.4 -10.9 -0.1 -10.4 Q-1.05 -9.7 -2.3 -9.45 L-2.95 -9.35 -5.45 -9.9 -6.15 -10.2 -7.6 -11.05 -8.25 -11.5 Q-8.9 -11.95 -9.2 -12.65" fill="#2548af" fill-rule="evenodd" stroke="none"/>
    <path d="M-5.6 -1.85 Q-8.35 -1.85 -10.95 -3.25 L-11.65 -3.85 -12.35 -4.55 -12.55 -4.95 Q-12.9 -6.3 -12.3 -7.2 -11.25 -8.75 -9.65 -9.95 L-9.15 -10.4 Q-7.7 -9.15 -5.9 -8.4 -3.2 -7.35 -0.5 -8.5 L0.5 -9.25 0.55 -8.45 0.0 -7.15 -1.65 -4.95 -3.15 -3.45 -5.6 -1.85 M-6.95 -13.95 L-6.8 -14.05 -5.85 -14.0 Q-5.3 -13.8 -5.1 -13.1 L-5.05 -13.0 Q-5.95 -12.1 -6.75 -12.85 L-7.0 -13.1 -7.25 -13.6 -6.95 -13.95" fill="#ffffff" fill-rule="evenodd" stroke="none"/>
    <path d="M10.4 -2.05 L8.8 -0.8 Q8.25 -0.25 8.0 0.45 L7.7 1.15 Q7.05 2.5 7.0 3.95 L4.95 3.9 2.8 3.55 2.9 3.3 Q3.4 2.2 4.05 1.2 4.6 0.35 5.45 -0.25 L7.85 -1.6 8.5 -1.65 8.6 -1.75 8.6 -1.85 10.6 -2.35 10.4 -2.05" fill="#ffcccc" fill-rule="evenodd" stroke="none"/>
    <path d="M7.0 3.95 Q7.05 2.5 7.7 1.15 L8.0 0.45 Q8.25 -0.25 8.8 -0.8 L10.4 -2.05 9.9 -1.15 9.85 -1.1 9.8 -1.0 9.8 -0.9 9.3 0.45 Q8.8 2.15 9.3 3.75 L7.55 3.95 7.0 3.95" fill="#ff9f9f" fill-rule="evenodd" stroke="none"/>
    <path d="M4.7 -3.85 L4.85 -3.95 Q5.45 -2.65 6.85 -1.95 L5.9 -1.45 Q4.35 -0.6 3.5 0.9 L3.0 1.6 Q2.45 2.2 2.3 2.8 L2.2 2.85 2.2 2.95 Q2.0 3.1 1.95 3.3 -0.2 2.65 -2.1 1.5 2.0 -0.25 4.7 -3.85 M10.0 1.4 L10.5 -0.5 11.5 -0.35 12.4 -0.35 17.2 -1.15 18.05 -1.1 18.5 -0.95 Q14.9 2.65 9.9 3.65 9.8 2.55 10.0 1.4" fill="#990000" fill-rule="evenodd" stroke="none"/>
    <path d="M-22.35 -34.25 L-22.2 -34.15 Q-22.55 -33.05 -22.5 -31.9 -22.4 -28.15 -20.25 -25.1 L-19.75 -24.35 Q-18.55 -22.5 -16.7 -21.55 L-16.05 -21.25 -16.45 -21.05 -18.0 -20.25 Q-20.95 -18.7 -23.25 -16.35 -24.05 -18.7 -23.25 -20.95 -23.15 -21.25 -23.2 -21.5 L-23.4 -21.75 -23.95 -22.35 Q-24.2 -22.65 -24.55 -22.75 -27.5 -23.8 -30.75 -23.45 L-32.1 -23.15 -32.45 -23.7 Q-33.7 -25.65 -36.05 -25.75 L-34.6 -26.6 -33.75 -27.05 Q-31.75 -28.05 -29.7 -27.35 L-25.95 -26.55 -25.55 -24.95 -25.35 -24.9 -25.2 -24.95 -25.15 -25.05 Q-25.3 -27.0 -24.9 -28.95 L-24.5 -30.5 Q-23.8 -32.7 -22.35 -34.25" fill="#e9bb05" fill-rule="evenodd" stroke="none"/>
    <path d="M-22.2 -34.15 L-22.35 -34.25 -22.2 -34.15 M-32.1 -23.15 L-30.75 -23.45 Q-27.5 -23.8 -24.55 -22.75 -24.2 -22.65 -23.95 -22.35 L-23.4 -21.75 -23.2 -21.5 Q-23.15 -21.25 -23.25 -20.95 -24.05 -18.7 -23.25 -16.35 L-25.45 -13.8 Q-27.85 -10.55 -29.0 -6.75 -29.5 -4.9 -29.05 -3.05 -28.45 -0.75 -27.05 1.2 -24.95 4.1 -21.95 6.0 L-19.3 7.55 -20.1 7.55 Q-23.1 7.9 -25.6 9.15 L-25.8 8.8 -27.2 6.35 Q-28.1 4.65 -29.55 3.25 -30.7 2.15 -32.2 1.8 L-33.3 1.2 Q-32.8 -0.05 -32.55 -1.4 -31.95 -4.75 -33.05 -8.05 L-34.2 -10.4 -35.8 -12.75 -37.95 -15.0 -37.8 -15.15 -37.4 -15.1 Q-34.85 -15.25 -32.95 -17.15 -31.65 -18.45 -31.55 -20.25 -31.5 -21.8 -32.1 -23.15" fill="#fce142" fill-rule="evenodd" stroke="none"/>
    <path d="M-14.2 -22.0 L-14.3 -22.05 -15.35 -21.55 -16.25 -22.1 Q-17.8 -23.05 -19.05 -24.5 -20.2 -25.9 -20.95 -27.55 -22.5 -31.1 -21.7 -34.95 L-20.3 -35.95 Q-21.6 -33.35 -20.6 -30.45 L-19.45 -27.3 Q-18.7 -25.5 -17.4 -24.15 -16.75 -23.4 -15.9 -22.95 L-15.7 -22.9 Q-14.95 -22.45 -14.1 -22.2 L-14.2 -22.0" fill="#bf9a04" fill-rule="evenodd" stroke="none"/>
    <path d="M1.75 10.1 L-0.65 10.4 Q-4.5 10.85 -8.15 9.7 -11.5 8.65 -12.4 5.45 -12.95 3.7 -12.2 2.15 -11.8 1.2 -10.9 0.75 L-9.9 0.05 Q-7.9 0.15 -5.95 -0.75 -4.75 -1.3 -3.7 -2.0 L-3.55 -2.15 -3.05 -2.45 -1.5 -2.25 Q-1.2 -1.35 -1.95 -1.15 L-3.25 -0.75 Q-5.0 0.1 -5.6 1.95 L-5.7 3.2 Q-5.1 6.85 -1.7 8.55 L1.2 9.85 1.75 10.1 M-16.1 -18.0 Q-18.15 -16.05 -19.7 -13.6 L-20.6 -12.1 Q-21.55 -10.15 -21.9 -7.95 -22.4 -4.85 -21.55 -1.9 -20.9 0.35 -19.5 2.3 L-18.9 2.25 -18.9 2.05 -18.9 1.95 Q-20.7 -0.9 -21.15 -4.25 -21.7 -8.05 -20.0 -11.55 L-18.7 -13.85 -16.1 -17.15 -15.95 -17.3 -15.8 -17.45 Q-14.2 -18.8 -12.35 -18.3 -12.55 -16.8 -13.5 -15.35 L-14.15 -14.2 -14.65 -13.2 Q-16.6 -9.6 -15.3 -5.65 L-15.25 -5.6 -15.3 -5.45 -15.4 -5.55 -15.45 -5.5 -15.6 -5.4 -15.6 -5.25 -15.55 -4.65 -15.9 -2.35 Q-16.0 -0.9 -15.4 0.35 L-15.2 0.35 -15.1 0.25 -15.05 0.15 -14.9 -2.85 -13.95 -1.55 Q-12.95 -0.35 -11.4 -0.05 -13.25 1.2 -13.5 3.45 L-13.5 4.75 Q-13.35 6.55 -12.25 7.95 L-11.9 8.35 Q-10.7 9.55 -9.15 10.25 L-9.15 10.3 Q-11.6 9.95 -13.95 9.05 -17.9 7.55 -21.5 5.3 L-24.45 2.85 -27.0 -0.25 Q-28.7 -2.65 -28.2 -5.5 L-27.85 -7.2 Q-26.95 -10.35 -25.05 -13.05 -23.15 -15.65 -20.55 -17.65 -18.5 -19.3 -16.25 -20.45 -15.9 -19.3 -16.1 -18.0" fill="#7b67ad" fill-rule="evenodd" stroke="none"/>
    <path d="M-5.6 -1.85 Q-8.05 -0.6 -10.9 -0.55 -12.65 -0.95 -13.9 -2.3 L-13.9 -2.4 -14.4 -3.1 -14.8 -3.9 -14.75 -4.15 Q-14.25 -7.35 -11.95 -9.8 L-10.2 -11.65 -9.75 -11.0 -9.15 -10.4 -9.65 -9.95 Q-11.25 -8.75 -12.3 -7.2 -12.9 -6.3 -12.55 -4.95 L-12.35 -4.55 -11.65 -3.85 -10.95 -3.25 Q-8.35 -1.85 -5.6 -1.85" fill="#cefaff" fill-rule="evenodd" stroke="none"/>
  </g>
</svg>
