<?xml version="1.0" encoding="UTF-8" standalone="no"?>
<svg xmlns:xlink="http://www.w3.org/1999/xlink" height="106.9px" width="270.15px" xmlns="http://www.w3.org/2000/svg">
  <g transform="matrix(1.0, 0.0, 0.0, 1.0, 143.95, 53.45)">
    <path d="M38.25 -26.35 L38.85 -32.05 46.85 -27.85 40.4 -25.35 38.25 -26.35 M30.5 -32.7 L36.1 -33.7 35.85 -23.9 Q38.25 -23.3 39.7 -22.2 L41.35 -20.45 49.1 -23.2 Q50.8 -20.35 51.35 -16.6 51.95 -12.6 51.05 -8.4 L44.6 -4.1 44.55 0.45 44.15 3.55 48.95 5.85 Q48.85 9.5 46.6 16.6 44.25 23.95 42.45 25.6 L36.2 23.5 33.9 28.0 36.65 34.4 Q35.2 38.1 32.7 40.9 30.35 43.45 27.9 44.4 L21.75 38.4 Q19.4 39.25 17.3 39.15 L12.4 45.4 Q10.35 44.2 9.55 43.25 L7.0 38.7 9.2 31.65 8.35 26.85 4.7 25.55 4.4 20.2 5.4 12.95 9.25 12.25 9.7 10.4 Q10.65 6.4 11.8 4.05 L6.8 1.6 Q7.1 -0.4 7.0 -2.25 L15.05 -1.6 17.8 -20.3 22.45 -23.1 23.7 -30.4 Q26.5 -31.75 30.5 -32.7 M39.1 -34.7 L39.45 -37.8 47.75 -32.05 47.35 -30.2 39.1 -34.7 M2.9 -38.1 L4.9 -37.35 Q4.65 -36.25 3.45 -36.7 L0.4 -36.85 Q0.65 -37.5 1.45 -38.2 L1.2 -38.25 Q-0.5 -38.85 0.1 -40.65 0.3 -41.35 0.9 -41.65 4.7 -43.7 7.15 -41.35 L0.65 -40.05 5.75 -38.2 Q7.65 -37.5 6.3 -35.65 4.8 -33.6 2.35 -34.5 -0.1 -35.4 0.35 -36.75 0.55 -35.75 1.9 -35.7 4.2 -35.6 5.75 -37.0 5.35 -38.4 3.8 -38.15 L2.9 -38.1 M-0.4 29.6 L-16.6 27.7 -12.4 -4.85 -21.95 -5.4 -21.9 -16.15 13.0 -21.8 10.75 -4.65 -0.25 -4.85 -0.35 29.55 -0.4 29.55 -0.4 29.6 M56.15 -10.85 Q56.6 -14.8 56.0 -20.35 L62.4 -18.6 Q63.05 -13.95 62.6 -9.75 L56.15 -10.85 M54.75 -27.65 Q60.5 -25.0 60.55 -25.05 L61.7 -21.8 55.4 -24.45 54.75 -27.65 M24.8 -6.7 Q22.6 -5.4 20.85 -2.45 19.05 0.45 18.2 4.25 16.85 10.0 18.15 14.6 19.45 19.2 22.65 20.1 24.75 20.7 27.0 19.4 L27.45 19.1 30.2 16.2 Q31.55 14.45 32.4 12.45 L33.55 8.75 34.3 3.4 Q34.35 0.55 33.7 -1.9 32.4 -6.5 29.2 -7.4 27.0 -8.0 24.8 -6.7 M36.4 -16.4 L35.0 -17.8 Q33.45 -18.95 31.55 -19.25 29.35 -19.65 27.3 -18.85 25.15 -18.1 23.55 -16.5 22.4 -15.45 21.9 -14.15 L22.1 -13.45 Q25.1 -15.95 28.2 -15.7 30.95 -15.5 33.4 -13.2 35.6 -11.1 37.1 -7.75 38.5 -4.5 38.75 -1.2 L39.25 -1.5 Q39.75 -7.3 38.7 -11.35 L38.4 -12.3 Q37.7 -14.5 36.4 -16.4 M63.8 -4.1 L65.5 2.7 67.5 -2.25 69.95 2.6 71.3 -8.7 84.25 -9.35 79.4 28.75 71.25 28.9 68.15 20.6 65.2 26.85 56.7 26.65 52.45 -3.85 63.8 -4.1 M97.0 20.1 L96.5 26.4 84.85 26.75 86.45 -8.1 97.15 -7.95 99.1 -4.2 98.85 -18.45 118.0 -20.35 109.25 23.9 100.1 23.9 97.15 18.6 97.1 18.6 97.0 20.1 M100.85 31.2 L100.0 40.55 96.5 41.0 95.15 35.7 94.7 41.0 92.15 41.25 92.1 32.55 96.6 32.1 97.8 37.35 98.05 31.5 100.85 31.2 M90.15 32.15 L89.2 41.45 86.45 41.7 86.65 32.45 90.15 32.15 M84.85 41.8 L79.25 42.3 79.65 33.1 83.1 32.75 82.25 40.35 85.0 40.25 84.85 41.8 M105.75 32.7 L105.5 34.8 108.3 34.55 107.8 36.25 105.35 36.45 105.15 38.4 108.2 38.05 107.75 39.75 102.25 40.3 102.75 31.05 109.4 30.4 108.9 32.45 105.75 32.7 M60.3 45.4 L60.35 45.3 Q61.6 43.3 62.25 41.05 62.85 38.95 62.55 36.85 62.2 34.6 60.5 33.15 57.25 39.55 60.3 45.4 M58.85 47.1 Q56.4 46.65 55.2 44.05 54.05 41.4 54.75 38.15 55.4 34.85 57.65 32.85 59.85 30.8 62.25 31.25 L62.5 31.3 Q64.7 31.8 65.85 34.3 67.05 36.95 66.35 40.2 65.6 43.5 63.45 45.5 L62.5 46.25 Q60.7 47.45 58.85 47.1 M49.75 18.55 L53.8 20.8 Q52.65 26.85 51.1 29.3 L46.15 26.85 Q48.15 24.6 49.75 18.55 M45.9 37.6 L39.05 34.55 37.0 29.75 45.7 34.05 45.9 37.6 M77.4 33.55 L76.5 42.85 73.05 43.3 71.7 38.0 71.2 43.3 68.7 43.55 68.65 34.85 73.1 34.45 74.35 39.65 74.55 33.8 77.4 33.55 M19.45 32.4 L20.5 32.5 23.9 32.1 24.9 31.8 28.95 29.4 Q31.05 27.7 32.6 25.2 L34.6 21.25 35.5 18.55 34.95 18.25 Q32.25 23.8 26.95 26.5 25.2 27.4 23.25 27.45 L22.85 27.45 20.4 27.0 Q18.35 26.2 16.95 24.55 15.35 22.7 14.5 20.45 L13.15 15.2 12.35 15.75 Q11.75 21.9 12.9 26.6 13.9 30.9 16.2 33.45 18.4 35.9 21.3 36.25 24.25 36.6 27.25 34.9 L27.0 34.3 Q21.95 35.75 19.45 32.45 L19.45 32.4 M-135.6 -19.45 L-136.15 -21.65 -94.65 -21.45 -91.65 -9.5 -100.3 -6.9 -86.3 36.15 -107.7 43.45 -114.6 -2.6 -130.25 1.6 -135.6 -19.45 M-85.1 -8.95 Q-83.9 -11.6 -82.2 -13.4 -80.0 -15.75 -77.25 -16.35 -74.55 -17.0 -71.75 -15.8 -69.1 -14.6 -66.7 -11.85 -65.15 -10.1 -63.95 -7.9 -61.25 -3.15 -60.2 3.35 -59.65 6.85 -59.7 10.15 L-59.7 11.15 Q-59.85 13.95 -60.45 16.55 L-61.3 19.65 -61.55 20.3 Q-62.55 22.9 -63.95 24.85 L-65.05 26.15 Q-67.25 28.5 -69.95 29.15 -72.7 29.75 -75.45 28.55 -78.15 27.35 -80.5 24.6 -85.55 18.85 -87.0 9.45 -88.55 0.0 -85.7 -7.55 L-85.6 -7.75 -85.1 -9.0 -85.1 -8.95 M-55.7 -51.9 Q-48.9 -50.55 -43.8 -45.9 -42.2 -44.45 -41.15 -42.5 -40.55 -41.35 -40.3 -40.05 -40.15 -39.2 -40.35 -38.3 -40.65 -37.25 -41.3 -36.4 -42.05 -35.45 -43.0 -34.85 -47.4 -32.15 -52.45 -33.6 L-52.75 -32.55 -54.0 -32.35 -54.55 -34.4 Q-58.25 -35.6 -58.9 -38.5 -57.05 -36.8 -54.65 -35.9 L-54.45 -40.55 -58.95 -39.65 Q-58.35 -42.3 -54.5 -42.35 -54.55 -44.6 -53.7 -46.65 -52.1 -45.0 -52.55 -42.7 L-50.4 -42.75 -48.75 -42.5 -47.4 -41.65 Q-45.6 -39.75 -47.0 -37.95 L-48.15 -38.25 -47.2 -39.5 Q-49.7 -40.85 -52.5 -40.6 L-52.45 -35.2 -49.75 -34.8 Q-46.55 -34.75 -44.1 -36.85 -43.2 -37.65 -42.75 -38.75 -42.5 -39.35 -42.55 -40.0 -42.7 -41.15 -43.2 -42.15 -43.85 -43.45 -44.8 -44.45 -46.35 -46.05 -48.2 -47.2 -54.8 -51.35 -62.25 -49.85 L-61.35 -49.25 -61.45 -49.2 Q-62.35 -48.65 -63.25 -49.35 -62.1 -50.8 -60.4 -51.5 -58.15 -52.4 -55.7 -51.9 M-70.35 -4.35 Q-71.65 -4.2 -72.65 -3.2 -68.95 -1.65 -67.4 2.4 -66.95 3.7 -66.75 5.15 L-66.6 6.45 Q-69.25 1.1 -75.0 1.95 -75.45 4.55 -75.0 7.35 -74.3 11.9 -71.9 14.9 -69.55 17.85 -66.9 17.6 -65.15 17.4 -63.95 15.8 -63.35 15.05 -62.9 13.95 -61.55 10.5 -62.25 6.0 -62.7 2.95 -63.95 0.55 L-65.3 -1.6 Q-67.7 -4.65 -70.35 -4.35 M-51.1 -6.1 L-50.85 -6.35 Q-47.8 -9.6 -44.3 -9.05 -40.7 -8.45 -38.7 -4.15 -37.3 -1.0 -37.4 2.85 L-37.75 6.2 -38.45 8.8 -38.4 8.75 -38.65 9.4 -40.6 13.2 -40.7 13.3 -41.7 14.55 Q-44.9 18.0 -48.5 17.45 -52.15 16.85 -54.05 12.55 -56.05 8.3 -55.15 2.8 -54.3 -2.7 -51.1 -6.1 M-45.2 -1.6 Q-43.15 -0.4 -42.65 2.1 -42.5 2.9 -42.5 3.75 L-42.55 4.55 Q-44.2 1.55 -47.65 1.3 -48.25 2.65 -48.35 4.45 -48.5 7.2 -47.3 9.2 -46.15 11.25 -44.3 11.35 -42.5 11.45 -41.1 9.55 -39.65 7.65 -39.5 4.9 -39.35 2.15 -40.55 0.1 -41.75 -1.9 -43.55 -2.0 -44.35 -2.1 -45.2 -1.6 M-1.8 -46.1 Q1.1 -44.65 -0.9 -42.65 -1.2 -42.4 -1.55 -42.25 -0.7 -43.65 -2.0 -44.85 L-1.8 -46.1 M-7.05 -42.4 L-8.55 -37.05 Q-6.85 -39.95 -4.0 -41.65 -1.45 -41.0 -2.1 -38.15 -2.75 -35.8 -4.8 -34.5 -6.1 -33.7 -7.6 -33.65 L-9.35 -26.75 Q-12.75 -29.2 -10.0 -33.9 L-9.35 -35.15 Q-10.45 -39.55 -7.2 -42.35 L-7.05 -42.4 M-16.9 -41.8 Q-13.85 -43.3 -10.8 -41.9 -10.25 -41.65 -10.5 -41.1 L-13.9 -40.75 -14.25 -39.55 Q-11.9 -40.35 -11.8 -38.4 L-14.8 -37.85 -15.2 -36.35 -11.75 -36.75 -11.45 -35.9 Q-14.1 -33.0 -16.45 -35.15 -17.35 -35.95 -17.1 -37.2 L-16.65 -39.0 -15.4 -40.85 Q-16.4 -41.05 -16.85 -41.75 L-16.9 -41.8 M-4.95 -36.3 Q-2.5 -37.85 -3.6 -40.05 -5.55 -38.3 -6.6 -35.85 -5.7 -35.85 -4.95 -36.3 M-19.7 -35.25 Q-20.0 -34.8 -20.55 -34.7 L-21.3 -35.3 -23.65 -39.2 -23.75 -36.4 Q-23.75 -34.95 -24.6 -34.15 -26.0 -35.4 -25.7 -37.4 -25.4 -39.75 -24.2 -41.8 -23.9 -41.85 -23.7 -41.6 -21.85 -39.55 -20.45 -37.1 L-21.35 -43.65 Q-19.95 -43.25 -19.35 -41.8 -17.9 -38.35 -19.7 -35.25 M-27.1 -41.35 L-33.55 -40.05 Q-32.8 -39.6 -31.9 -39.5 -29.5 -39.5 -28.1 -37.85 -27.15 -36.65 -28.4 -35.3 -30.3 -33.3 -32.6 -34.95 -35.45 -37.05 -32.7 -38.2 L-32.9 -38.25 Q-34.45 -38.95 -34.45 -40.65 -31.35 -43.95 -27.0 -41.9 L-27.1 -41.35 M-32.55 -47.45 Q-32.75 -46.55 -33.6 -45.6 -35.75 -43.35 -38.5 -44.05 -39.0 -43.0 -39.35 -43.5 -39.75 -43.95 -39.7 -44.85 -40.6 -45.8 -40.15 -47.05 -39.75 -48.2 -38.5 -49.1 -37.25 -50.0 -36.0 -50.05 -34.6 -50.15 -33.95 -49.15 -33.5 -49.25 -32.95 -48.85 -32.35 -48.4 -32.55 -47.45 M-33.6 -48.0 Q-36.05 -48.35 -37.4 -45.8 L-37.65 -45.35 Q-35.1 -45.2 -33.65 -47.1 -33.35 -47.55 -33.6 -48.0 M-37.1 -48.35 Q-37.75 -48.35 -38.65 -47.5 -39.6 -46.55 -39.1 -46.05 L-37.1 -48.35 M-37.3 -42.35 Q-36.25 -40.35 -36.35 -37.9 L-36.45 -34.55 Q-37.25 -33.9 -37.5 -34.7 -38.65 -38.1 -38.1 -41.75 L-37.7 -42.5 -37.3 -42.35 M-28.4 -37.05 Q-29.0 -38.45 -30.7 -37.95 L-29.35 -37.25 -29.55 -36.8 -33.85 -36.85 Q-31.75 -34.55 -28.65 -36.85 L-28.4 -37.05 M-28.55 -0.85 L-17.3 -1.75 -18.85 23.2 -26.2 22.85 -28.4 19.55 -28.65 25.7 -41.15 25.2 -40.45 20.15 Q-39.0 18.45 -37.9 16.5 -35.95 12.9 -35.15 8.35 L-34.8 3.2 -28.05 3.9 -28.55 -0.85" fill="#ffffff" fill-rule="evenodd" stroke="none"/>
    <path d="M39.1 -34.7 L47.35 -30.2 47.75 -32.05 39.45 -37.8 39.1 -34.7 M30.5 -32.7 Q26.5 -31.75 23.7 -30.4 L22.45 -23.1 17.8 -20.3 15.05 -1.6 7.0 -2.25 Q7.1 -0.4 6.8 1.6 L11.8 4.05 Q10.65 6.4 9.7 10.4 L9.25 12.25 5.4 12.95 4.4 20.2 4.7 25.55 8.35 26.85 9.2 31.65 7.0 38.7 9.55 43.25 Q10.35 44.2 12.4 45.4 L17.3 39.15 Q19.4 39.25 21.75 38.4 L27.9 44.4 Q30.35 43.45 32.7 40.9 35.2 38.1 36.65 34.4 L33.9 28.0 36.2 23.5 42.45 25.6 Q44.25 23.95 46.6 16.6 48.85 9.5 48.95 5.85 L44.15 3.55 44.55 0.45 44.6 -4.1 51.05 -8.4 Q51.95 -12.6 51.35 -16.6 50.8 -20.35 49.1 -23.2 L41.35 -20.45 39.7 -22.2 Q38.25 -23.3 35.85 -23.9 L36.1 -33.7 30.5 -32.7 M38.25 -26.35 L40.4 -25.35 46.85 -27.85 38.85 -32.05 38.25 -26.35 M1.55 -43.6 L6.5 -43.85 Q7.55 -43.65 8.15 -42.75 9.45 -40.9 7.4 -39.75 8.3 -39.0 8.5 -37.8 8.7 -36.35 8.0 -35.1 6.55 -32.6 3.5 -32.6 -0.05 -32.6 -1.65 -35.55 -2.65 -33.9 -4.3 -33.0 -5.35 -32.45 -6.5 -32.25 L-7.45 -28.6 Q-7.2 -25.55 -9.75 -25.6 -11.95 -25.65 -12.35 -27.85 -12.6 -30.1 -11.95 -32.2 L-11.4 -33.95 Q-13.2 -32.65 -15.4 -32.5 -16.6 -32.5 -17.5 -33.3 L-18.25 -34.35 Q-19.15 -33.25 -20.5 -33.3 -21.7 -33.3 -22.4 -34.25 -22.8 -33.45 -24.15 -32.85 -25.15 -32.5 -25.95 -33.15 L-26.7 -34.1 Q-28.1 -32.9 -30.0 -32.7 -31.85 -32.6 -33.55 -33.25 L-35.0 -34.25 Q-35.2 -33.45 -36.0 -33.05 L-38.0 -32.9 Q-40.0 -33.6 -39.8 -35.8 -41.05 -34.1 -42.85 -33.05 -44.5 -32.1 -46.35 -31.8 -48.9 -31.35 -51.45 -31.8 -52.65 -30.25 -54.55 -31.1 -55.6 -31.6 -55.85 -32.7 L-56.0 -33.4 Q-59.0 -35.05 -60.85 -37.8 -61.85 -39.25 -60.85 -40.6 -59.05 -43.05 -55.9 -43.55 -56.0 -45.9 -54.65 -47.75 L-54.25 -48.05 Q-57.0 -48.9 -59.85 -48.8 -60.3 -47.7 -61.5 -47.5 L-63.3 -47.75 Q-65.7 -48.8 -63.9 -50.85 -61.25 -53.9 -56.8 -53.35 -50.4 -52.6 -45.1 -48.9 -43.3 -47.65 -41.8 -46.0 -41.8 -48.05 -40.35 -49.45 -38.85 -50.95 -36.8 -51.3 -34.25 -51.8 -32.2 -50.05 -30.1 -48.25 -31.6 -45.75 -33.05 -43.4 -35.65 -42.6 L-35.55 -42.4 Q-33.95 -43.3 -31.5 -43.8 -29.4 -44.3 -27.3 -43.75 -26.2 -43.45 -25.6 -42.5 -25.15 -43.2 -24.35 -43.25 -23.55 -43.4 -22.85 -42.9 -23.2 -44.7 -21.55 -45.05 -20.55 -45.3 -19.8 -44.6 -18.8 -43.75 -18.25 -42.5 -17.0 -44.1 -14.7 -44.2 L-10.75 -43.8 Q-9.7 -43.55 -9.15 -42.6 -8.3 -43.95 -6.8 -43.9 -6.1 -43.85 -5.65 -43.3 L-5.4 -42.65 Q-4.45 -43.25 -3.35 -43.15 L-3.05 -43.1 -2.75 -43.5 Q-3.95 -44.4 -3.55 -45.85 -3.3 -47.05 -2.2 -47.35 -0.2 -47.95 0.95 -46.1 1.65 -45.0 1.55 -43.6 M2.9 -38.1 L3.8 -38.15 Q5.35 -38.4 5.75 -37.0 4.2 -35.6 1.9 -35.7 0.55 -35.75 0.35 -36.75 -0.1 -35.4 2.35 -34.5 4.8 -33.6 6.3 -35.65 7.65 -37.5 5.75 -38.2 L0.65 -40.05 7.15 -41.35 Q4.7 -43.7 0.9 -41.65 0.3 -41.35 0.1 -40.65 -0.5 -38.85 1.2 -38.25 L1.45 -38.2 Q0.65 -37.5 0.4 -36.85 L3.45 -36.7 Q4.65 -36.25 4.9 -37.35 L2.9 -38.1 M17.85 -26.15 L19.35 -34.35 Q29.15 -41.0 38.6 -41.1 L49.3 -33.3 48.4 -28.05 53.45 -30.0 61.65 -26.2 Q62.6 -24.35 63.3 -21.25 64.45 -16.0 64.25 -9.45 L68.25 -9.35 69.0 -17.35 93.0 -16.05 92.95 -23.2 126.2 -28.0 113.15 26.85 Q114.35 28.25 114.85 30.45 115.35 32.7 114.95 35.2 114.4 38.5 112.6 40.8 110.85 43.05 108.65 43.35 L67.1 48.55 Q65.4 50.75 62.65 51.9 L62.5 51.95 Q59.9 53.0 57.6 52.55 54.05 51.9 51.8 48.15 49.8 44.85 50.0 41.5 L46.5 39.9 43.8 45.45 Q42.3 48.35 40.55 49.6 L25.75 53.05 23.2 49.0 11.7 53.3 Q4.4 50.45 1.55 40.8 L2.85 34.5 1.4 34.3 -21.8 32.65 -20.8 27.2 -25.4 27.05 -26.05 30.7 -46.2 29.9 -44.85 23.75 Q-47.85 25.35 -51.1 24.85 L-51.2 24.85 -51.75 24.75 -52.2 24.6 Q-54.9 23.9 -57.0 21.85 -58.8 27.45 -62.15 31.15 L-63.95 32.85 Q-66.7 35.1 -70.0 35.8 -77.15 37.35 -83.15 34.05 L-81.7 40.0 -111.65 53.45 -117.6 3.4 -134.35 9.1 -143.95 -28.85 -92.7 -25.7 -90.25 -15.3 Q-85.75 -20.45 -79.0 -21.9 -73.4 -23.15 -67.9 -18.9 -65.8 -17.25 -63.95 -14.95 -61.2 -11.6 -59.15 -6.85 -56.75 -10.15 -53.05 -11.85 -49.55 -13.5 -45.95 -13.25 -42.8 -13.05 -40.1 -10.85 -37.5 -8.7 -35.9 -5.1 L-28.2 -5.55 -26.85 -19.25 17.85 -26.15 M-0.35 29.55 L-0.25 -4.85 10.75 -4.65 13.0 -21.8 -21.9 -16.15 -21.95 -5.4 -12.4 -4.85 -16.6 27.7 -0.4 29.6 -0.35 29.6 -0.35 29.55 M36.4 -16.4 Q37.7 -14.5 38.4 -12.3 L38.7 -11.35 Q39.75 -7.3 39.25 -1.5 L38.75 -1.2 Q38.5 -4.5 37.1 -7.75 35.6 -11.1 33.4 -13.2 30.95 -15.5 28.2 -15.7 25.1 -15.95 22.1 -13.45 L21.9 -14.15 Q22.4 -15.45 23.55 -16.5 25.15 -18.1 27.3 -18.85 29.35 -19.65 31.55 -19.25 33.45 -18.95 35.0 -17.8 L36.4 -16.4 M24.8 -6.7 Q27.0 -8.0 29.2 -7.4 32.4 -6.5 33.7 -1.9 34.35 0.55 34.3 3.4 L33.55 8.75 32.4 12.45 Q31.55 14.45 30.2 16.2 L27.45 19.1 27.0 19.4 Q24.75 20.7 22.65 20.1 19.45 19.2 18.15 14.6 16.85 10.0 18.2 4.25 19.05 0.45 20.85 -2.45 22.6 -5.4 24.8 -6.7 M54.75 -27.65 L55.4 -24.45 61.7 -21.8 60.55 -25.05 Q60.5 -25.0 54.75 -27.65 M56.15 -10.85 L62.6 -9.75 Q63.05 -13.95 62.4 -18.6 L56.0 -20.35 Q56.6 -14.8 56.15 -10.85 M63.8 -4.1 L52.45 -3.85 56.7 26.65 65.2 26.85 68.15 20.6 71.25 28.9 79.4 28.75 84.25 -9.35 71.3 -8.7 69.95 2.6 67.5 -2.25 65.5 2.7 63.8 -4.1 M97.15 18.6 L100.1 23.9 109.25 23.9 118.0 -20.35 98.85 -18.45 99.1 -4.2 97.15 -7.95 86.45 -8.1 84.85 26.75 96.5 26.4 97.0 20.1 97.15 18.6 M105.75 32.7 L108.9 32.45 109.4 30.4 102.75 31.05 102.25 40.3 107.75 39.75 108.2 38.05 105.15 38.4 105.35 36.45 107.8 36.25 108.3 34.55 105.5 34.8 105.75 32.7 M84.85 41.8 L85.0 40.25 82.25 40.35 83.1 32.75 79.65 33.1 79.25 42.3 84.85 41.8 M90.15 32.15 L86.65 32.45 86.45 41.7 89.2 41.45 90.15 32.15 M100.85 31.2 L98.05 31.5 97.8 37.35 96.6 32.1 92.1 32.55 92.15 41.25 94.7 41.0 95.15 35.7 96.5 41.0 100.0 40.55 100.85 31.2 M49.75 18.55 Q48.15 24.6 46.15 26.85 L51.1 29.3 Q52.65 26.85 53.8 20.8 L49.75 18.55 M58.85 47.1 Q60.7 47.45 62.5 46.25 L63.45 45.5 Q65.6 43.5 66.35 40.2 67.05 36.95 65.85 34.3 64.7 31.8 62.5 31.3 L62.25 31.25 Q59.85 30.8 57.65 32.85 55.4 34.85 54.75 38.15 54.05 41.4 55.2 44.05 56.4 46.65 58.85 47.1 M60.3 45.4 Q57.25 39.55 60.5 33.15 62.2 34.6 62.55 36.85 62.85 38.95 62.25 41.05 61.6 43.3 60.35 45.3 L60.3 45.4 M19.45 32.45 Q21.95 35.75 27.0 34.3 L27.25 34.9 Q24.25 36.6 21.3 36.25 18.4 35.9 16.2 33.45 13.9 30.9 12.9 26.6 11.75 21.9 12.35 15.75 L13.15 15.2 14.5 20.45 Q15.35 22.7 16.95 24.55 18.35 26.2 20.4 27.0 L22.85 27.45 23.25 27.45 Q25.2 27.4 26.95 26.5 32.25 23.8 34.95 18.25 L35.5 18.55 34.6 21.25 32.6 25.2 Q31.05 27.7 28.95 29.4 L24.9 31.8 23.9 32.1 20.5 32.5 19.45 32.4 19.4 32.4 19.45 32.45 M77.4 33.55 L74.55 33.8 74.35 39.65 73.1 34.45 68.65 34.85 68.7 43.55 71.2 43.3 71.7 38.0 73.05 43.3 76.5 42.85 77.4 33.55 M45.9 37.6 L45.7 34.05 37.0 29.75 39.05 34.55 45.9 37.6 M27.2 15.65 Q29.75 12.85 30.95 7.85 32.25 2.15 30.85 -1.75 28.4 1.3 27.3 6.1 26.0 11.5 27.2 15.65 M-136.15 -21.65 L-136.2 -21.65 -135.6 -19.45 -130.25 1.6 -114.6 -2.6 -107.7 43.45 -86.3 36.15 -100.3 -6.9 -91.65 -9.5 -94.65 -21.45 -136.15 -21.65 M-87.3 -21.95 L-88.7 -22.65 Q-87.05 -28.75 -83.4 -31.5 -80.15 -33.95 -75.9 -33.4 -72.0 -32.95 -68.4 -30.15 -64.85 -27.4 -63.15 -23.5 L-64.95 -22.1 Q-66.75 -24.0 -69.4 -25.3 -72.3 -26.7 -75.25 -27.0 -82.55 -27.75 -87.3 -21.95 M-55.7 -51.9 Q-58.15 -52.4 -60.4 -51.5 -62.1 -50.8 -63.25 -49.35 -62.35 -48.65 -61.45 -49.2 L-61.35 -49.25 -62.25 -49.85 Q-54.8 -51.35 -48.2 -47.2 -46.35 -46.05 -44.8 -44.45 -43.85 -43.45 -43.2 -42.15 -42.7 -41.15 -42.55 -40.0 -42.5 -39.35 -42.75 -38.75 -43.2 -37.65 -44.1 -36.85 -46.55 -34.75 -49.75 -34.8 L-52.45 -35.2 -52.5 -40.6 Q-49.7 -40.85 -47.2 -39.5 L-48.15 -38.25 -47.0 -37.95 Q-45.6 -39.75 -47.4 -41.65 L-48.75 -42.5 -50.4 -42.75 -52.55 -42.7 Q-52.1 -45.0 -53.7 -46.65 -54.55 -44.6 -54.5 -42.35 -58.35 -42.3 -58.95 -39.65 L-54.45 -40.55 -54.65 -35.9 Q-57.05 -36.8 -58.9 -38.5 -58.25 -35.6 -54.55 -34.4 L-54.0 -32.35 -52.75 -32.55 -52.45 -33.6 Q-47.4 -32.15 -43.0 -34.85 -42.05 -35.45 -41.3 -36.4 -40.65 -37.25 -40.35 -38.3 -40.15 -39.2 -40.3 -40.05 -40.55 -41.35 -41.15 -42.5 -42.2 -44.45 -43.8 -45.9 -48.9 -50.55 -55.7 -51.9 M-85.1 -8.95 L-85.1 -9.0 -85.6 -7.75 -85.7 -7.55 Q-88.55 0.0 -87.0 9.45 -85.55 18.85 -80.5 24.6 -78.15 27.35 -75.45 28.55 -72.7 29.75 -69.95 29.15 -67.25 28.5 -65.05 26.15 L-63.95 24.85 Q-62.55 22.9 -61.55 20.3 L-61.3 19.65 -60.45 16.55 Q-59.85 13.95 -59.7 11.15 L-59.7 10.15 Q-59.65 6.85 -60.2 3.35 -61.25 -3.15 -63.95 -7.9 -65.15 -10.1 -66.7 -11.85 -69.1 -14.6 -71.75 -15.8 -74.55 -17.0 -77.25 -16.35 -80.0 -15.75 -82.2 -13.4 -83.9 -11.6 -85.1 -8.95 M-44.75 -37.85 L-44.35 -38.4 Q-43.85 -39.5 -44.2 -40.6 L-44.1 -39.8 Q-44.1 -38.75 -44.75 -37.85 M-44.55 -41.45 Q-46.35 -44.85 -51.5 -47.05 L-52.0 -47.3 Q-51.3 -46.45 -51.15 -45.1 L-51.1 -44.05 -47.75 -43.5 Q-45.45 -42.9 -44.55 -41.45 M-56.8 -38.7 L-56.1 -38.25 -56.05 -38.8 -56.8 -38.7 M-48.75 -36.85 Q-49.95 -37.45 -49.6 -38.75 L-51.05 -39.1 -51.0 -36.45 -47.85 -36.5 -48.75 -36.85 M-70.35 -4.35 Q-67.7 -4.65 -65.3 -1.6 L-63.95 0.55 Q-62.7 2.95 -62.25 6.0 -61.55 10.5 -62.9 13.95 -63.35 15.05 -63.95 15.8 -65.15 17.4 -66.9 17.6 -69.55 17.85 -71.9 14.9 -74.3 11.9 -75.0 7.35 -75.45 4.55 -75.0 1.95 -69.25 1.1 -66.6 6.45 L-66.75 5.15 Q-66.95 3.7 -67.4 2.4 -68.95 -1.65 -72.65 -3.2 -71.65 -4.2 -70.35 -4.35 M-42.7 -20.05 Q-40.2 -18.5 -38.4 -15.35 L-40.05 -14.45 Q-43.25 -16.9 -46.35 -17.15 -49.9 -17.5 -52.9 -14.95 L-54.45 -15.75 Q-53.65 -18.15 -51.75 -19.65 -49.85 -21.1 -47.45 -21.25 -45.0 -21.45 -42.7 -20.05 M-50.85 -6.35 L-50.85 -6.4 -51.05 -6.2 -51.1 -6.1 Q-54.3 -2.7 -55.15 2.8 -56.05 8.3 -54.05 12.55 -52.15 16.85 -48.5 17.45 -44.9 18.0 -41.7 14.55 L-40.7 13.3 -40.6 13.2 -38.65 9.4 -38.4 8.75 -38.45 8.8 -37.75 6.2 -37.4 2.85 Q-37.3 -1.0 -38.7 -4.15 -40.7 -8.45 -44.3 -9.05 -47.8 -9.6 -50.85 -6.35 M-19.7 -35.25 Q-17.9 -38.35 -19.35 -41.8 -19.95 -43.25 -21.35 -43.65 L-20.45 -37.1 Q-21.85 -39.55 -23.7 -41.6 -23.9 -41.85 -24.2 -41.8 -25.4 -39.75 -25.7 -37.4 -26.0 -35.4 -24.6 -34.15 -23.75 -34.95 -23.75 -36.4 L-23.65 -39.2 -21.3 -35.3 -20.55 -34.7 Q-20.0 -34.8 -19.7 -35.25 M-4.95 -36.3 Q-5.7 -35.85 -6.6 -35.85 -5.55 -38.3 -3.6 -40.05 -2.5 -37.85 -4.95 -36.3 M-16.9 -41.8 L-16.85 -41.75 Q-16.4 -41.05 -15.4 -40.85 L-16.65 -39.0 -17.1 -37.2 Q-17.35 -35.95 -16.45 -35.15 -14.1 -33.0 -11.45 -35.9 L-11.75 -36.75 -15.2 -36.35 -14.8 -37.85 -11.8 -38.4 Q-11.9 -40.35 -14.25 -39.55 L-13.9 -40.75 -10.5 -41.1 Q-10.25 -41.65 -10.8 -41.9 -13.85 -43.3 -16.9 -41.8 M-7.05 -42.4 L-7.2 -42.35 Q-10.45 -39.55 -9.35 -35.15 L-10.0 -33.9 Q-12.75 -29.2 -9.35 -26.75 L-7.6 -33.65 Q-6.1 -33.7 -4.8 -34.5 -2.75 -35.8 -2.1 -38.15 -1.45 -41.0 -4.0 -41.65 -6.85 -39.95 -8.55 -37.05 L-7.05 -42.4 M-1.8 -46.1 L-2.0 -44.85 Q-0.7 -43.65 -1.55 -42.25 -1.2 -42.4 -0.9 -42.65 1.1 -44.65 -1.8 -46.1 M-45.2 -1.6 Q-44.35 -2.1 -43.55 -2.0 -41.75 -1.9 -40.55 0.1 -39.35 2.15 -39.5 4.9 -39.65 7.65 -41.1 9.55 -42.5 11.45 -44.3 11.35 -46.15 11.25 -47.3 9.2 -48.5 7.2 -48.35 4.45 -48.25 2.65 -47.65 1.3 -44.2 1.55 -42.55 4.55 L-42.5 3.75 Q-42.5 2.9 -42.65 2.1 -43.15 -0.4 -45.2 -1.6 M-26.55 -39.9 L-26.8 -39.8 -26.6 -39.65 -26.55 -39.9 M-28.4 -37.05 L-28.65 -36.85 Q-31.75 -34.55 -33.85 -36.85 L-29.55 -36.8 -29.35 -37.25 -30.7 -37.95 Q-29.0 -38.45 -28.4 -37.05 M-37.3 -42.35 L-37.7 -42.5 -38.1 -41.75 Q-38.65 -38.1 -37.5 -34.7 -37.25 -33.9 -36.45 -34.55 L-36.35 -37.9 Q-36.25 -40.35 -37.3 -42.35 M-37.1 -48.35 L-39.1 -46.05 Q-39.6 -46.55 -38.65 -47.5 -37.75 -48.35 -37.1 -48.35 M-33.6 -48.0 Q-33.35 -47.55 -33.65 -47.1 -35.1 -45.2 -37.65 -45.35 L-37.4 -45.8 Q-36.05 -48.35 -33.6 -48.0 M-32.55 -47.45 Q-32.35 -48.4 -32.95 -48.85 -33.5 -49.25 -33.95 -49.15 -34.6 -50.15 -36.0 -50.05 -37.25 -50.0 -38.5 -49.1 -39.75 -48.2 -40.15 -47.05 -40.6 -45.8 -39.7 -44.85 -39.75 -43.95 -39.35 -43.5 -39.0 -43.0 -38.5 -44.05 -35.75 -43.35 -33.6 -45.6 -32.75 -46.55 -32.55 -47.45 M-27.1 -41.35 L-27.0 -41.9 Q-31.35 -43.95 -34.45 -40.65 -34.45 -38.95 -32.9 -38.25 L-32.7 -38.2 Q-35.45 -37.05 -32.6 -34.95 -30.3 -33.3 -28.4 -35.3 -27.15 -36.65 -28.1 -37.85 -29.5 -39.5 -31.9 -39.5 -32.8 -39.6 -33.55 -40.05 L-27.1 -41.35 M-28.55 -0.85 L-28.05 3.9 -34.8 3.2 -35.15 8.35 Q-35.95 12.9 -37.9 16.5 -39.0 18.45 -40.45 20.15 L-41.15 25.2 -28.65 25.7 -28.4 19.55 -26.2 22.85 -18.85 23.2 -17.3 -1.75 -28.55 -0.85" fill="#000000" fill-rule="evenodd" stroke="none"/>
    <path d="M97.0 20.1 L97.1 18.6 97.15 18.6 97.0 20.1 M-136.15 -21.65 L-135.6 -19.45 -136.2 -21.65 -136.15 -21.65" fill="#f7fa16" fill-rule="evenodd" stroke="none"/>
  </g>
</svg>
