<?xml version="1.0" encoding="UTF-8" standalone="no"?>
<svg xmlns:xlink="http://www.w3.org/1999/xlink" height="8.55px" width="13.55px" xmlns="http://www.w3.org/2000/svg">
  <g transform="matrix(1.0, 0.0, 0.0, 1.0, 6.75, 4.25)">
    <path d="M1.05 -1.8 Q1.0 -3.1 0.15 -3.0 L-0.1 -3.0 -0.1 -0.6 0.25 -0.6 Q1.05 -0.75 1.05 -1.8 M2.6 -1.8 Q2.65 -0.55 1.65 0.25 L2.6 4.3 1.05 4.3 0.3 0.65 -0.1 0.65 -0.1 4.3 -1.65 4.3 -1.65 -4.25 0.1 -4.25 Q2.45 -4.4 2.6 -1.8 M6.75 -4.25 L6.75 -2.9 4.75 -2.9 4.75 -0.75 6.2 -0.75 6.2 0.65 4.75 0.65 4.75 3.0 6.8 3.0 6.8 4.3 3.2 4.3 3.2 -4.25 6.75 -4.25 M-3.3 -4.25 L-2.25 4.3 -3.75 4.3 -3.95 2.4 -5.2 2.4 -5.45 4.3 -6.75 4.3 -5.55 -4.25 -3.3 -4.25 M-4.1 1.15 L-4.55 -2.9 -5.05 1.15 -4.1 1.15" fill="#000000" fill-rule="evenodd" stroke="none"/>
  </g>
</svg>
