<?xml version="1.0" encoding="UTF-8" standalone="no"?>
<svg xmlns:xlink="http://www.w3.org/1999/xlink" height="8.9px" width="32.8px" xmlns="http://www.w3.org/2000/svg">
  <g transform="matrix(1.0, 0.0, 0.0, 1.0, 16.4, 4.45)">
    <path d="M1.95 -4.3 L1.95 2.1 Q1.9 4.55 -0.05 4.4 -1.95 4.55 -2.05 2.1 L-2.05 -4.3 -0.5 -4.3 -0.5 2.3 Q-0.55 3.0 0.05 3.1 0.65 3.0 0.65 2.3 L0.65 -4.3 1.95 -4.3 M4.55 -2.6 Q4.35 -2.0 4.35 0.0 4.35 2.05 4.55 2.6 4.75 3.2 5.1 3.1 L5.65 2.5 5.7 1.55 5.15 1.55 5.15 0.3 7.05 0.3 7.05 4.25 6.4 4.25 6.15 3.7 Q5.8 4.35 4.95 4.45 2.55 4.35 2.7 0.0 2.9 -4.65 4.95 -4.45 5.7 -4.5 6.35 -3.9 6.95 -3.35 7.0 -1.75 L7.0 -1.2 5.6 -1.2 5.55 -2.3 Q5.5 -3.05 5.0 -3.1 4.7 -3.2 4.55 -2.6 M9.35 -4.3 L9.35 -0.85 10.35 -0.85 10.35 -4.3 11.9 -4.3 11.9 4.25 10.35 4.25 10.35 0.65 9.35 0.65 9.35 4.25 7.8 4.25 7.8 -4.3 9.35 -4.3 M14.45 -3.3 Q13.8 -3.25 13.8 -1.9 L12.65 -2.0 Q12.55 -4.15 14.55 -4.4 16.25 -4.3 16.4 -2.6 16.35 -1.45 15.8 -0.75 15.3 -0.05 15.2 1.5 L15.2 1.7 13.95 1.7 13.95 1.25 Q14.05 -0.3 14.45 -0.95 14.95 -1.6 15.0 -2.4 15.05 -3.25 14.45 -3.3 M15.35 4.25 L13.8 4.25 13.8 2.7 15.35 2.7 15.35 4.25 M-12.85 -4.3 L-12.85 -2.95 -14.85 -2.95 -14.85 -0.8 -13.4 -0.8 -13.4 0.6 -14.85 0.6 -14.85 2.95 -12.8 2.95 -12.8 4.25 -16.4 4.25 -16.4 -4.3 -12.85 -4.3 M-10.7 -4.3 L-9.3 0.2 -9.25 0.2 -9.25 -4.3 -8.0 -4.3 -8.0 4.25 -9.25 4.25 -10.9 -0.9 -10.9 4.25 -12.25 4.25 -12.25 -4.3 -10.7 -4.3 M-4.6 -2.7 L-5.0 -3.1 Q-5.55 -3.4 -5.6 -0.9 L-5.6 0.9 Q-5.55 3.4 -5.0 3.1 -4.45 3.4 -4.45 0.9 L-4.45 -0.9 Q-4.45 -2.25 -4.6 -2.7 M-5.0 -4.45 Q-3.95 -4.5 -3.35 -3.5 -2.75 -2.5 -2.75 0.0 -2.75 2.5 -3.35 3.5 -3.95 4.5 -5.0 4.45 -6.05 4.5 -6.65 3.5 -7.25 2.5 -7.3 0.0 -7.25 -2.5 -6.65 -3.5 -6.05 -4.5 -5.0 -4.45" fill="#000000" fill-rule="evenodd" stroke="none"/>
  </g>
</svg>
