<?xml version="1.0" encoding="UTF-8" standalone="no"?>
<svg xmlns:xlink="http://www.w3.org/1999/xlink" height="69.35px" width="70.75px" xmlns="http://www.w3.org/2000/svg">
  <g transform="matrix(1.0, 0.0, 0.0, 1.0, 39.3, 34.2)">
    <path d="M27.8 -32.35 Q31.75 -31.9 31.45 -28.35 31.1 -24.9 28.5 -22.7 22.85 -18.0 16.85 -13.85 L10.05 -9.05 10.95 -7.15 Q13.2 -2.5 12.25 3.05 L11.55 5.05 11.85 5.35 11.9 5.4 12.15 5.95 Q14.25 9.85 11.45 13.95 L10.6 15.15 9.5 16.25 7.6 17.8 6.95 18.45 Q1.1 23.0 -4.1 28.3 -6.85 31.0 -10.15 32.95 L-10.4 33.0 Q-14.6 35.55 -20.05 35.05 L-22.0 34.85 Q-23.95 34.75 -25.9 33.65 -30.65 30.95 -33.75 26.7 L-34.25 25.9 -34.5 25.4 -34.65 25.0 Q-36.05 23.9 -36.75 22.35 -39.1 20.05 -39.25 16.3 -39.4 13.9 -38.8 11.75 L-38.5 10.75 Q-38.0 9.25 -37.15 7.85 L-36.25 6.45 Q-36.4 4.4 -35.65 2.5 -35.05 0.65 -33.5 -0.3 L-32.1 -1.05 -31.05 -1.3 -30.8 -1.3 Q-28.55 -1.3 -27.25 0.2 L-17.8 -0.3 -17.55 -0.35 -16.55 -0.25 -15.65 -0.6 Q-15.55 -3.4 -14.45 -5.95 L-14.75 -6.05 -14.55 -6.45 Q-16.1 -6.9 -16.7 -8.85 L-16.5 -9.3 -16.4 -9.35 -16.35 -9.15 -16.3 -9.05 Q-15.5 -7.7 -14.15 -7.15 L-14.05 -7.3 Q-15.25 -8.1 -15.75 -9.55 -16.0 -10.25 -15.55 -10.5 -15.05 -8.85 -13.75 -8.0 L-13.65 -8.15 -13.6 -8.25 -13.8 -8.4 Q-14.8 -9.9 -14.25 -11.3 -14.15 -10.1 -13.4 -9.0 L-13.45 -8.95 -13.35 -8.9 -12.35 -11.2 -11.15 -12.8 Q-9.25 -14.75 -6.7 -15.45 L-4.8 -15.9 -3.9 -15.95 Q-5.05 -22.4 -4.3 -29.2 -4.1 -31.45 -2.5 -33.0 -2.1 -33.15 -1.85 -33.45 L-0.55 -34.05 -0.05 -34.2 Q2.65 -33.75 3.15 -30.9 4.3 -23.55 2.1 -16.35 L1.8 -15.2 Q3.85 -14.5 5.65 -13.25 9.05 -18.25 13.0 -22.9 16.7 -27.3 21.55 -30.45 24.45 -32.4 27.8 -32.35 M6.2 -8.45 Q5.15 -9.3 4.9 -10.9 L4.7 -11.0 4.65 -11.15 4.65 -11.4 4.7 -11.8 4.85 -12.1 5.1 -12.45 Q1.25 -14.95 -3.9 -14.9 L-5.95 -14.8 Q-7.45 -14.25 -8.75 -13.35 L-7.6 -13.3 Q-7.45 -12.35 -9.2 -12.05 L-10.55 -11.75 -11.5 -10.6 -11.5 -10.55 -11.45 -10.55 -11.3 -10.6 -11.1 -10.65 -10.7 -10.55 -10.35 -10.4 -10.2 -10.35 Q-9.25 -7.5 -10.45 -4.55 L-12.4 -0.15 -10.6 1.15 -10.5 1.3 -10.4 1.45 -10.2 1.35 Q-10.35 -1.7 -8.9 -4.65 -7.75 -7.1 -5.75 -8.6 -4.0 -10.65 -1.25 -10.45 1.0 -9.0 1.45 -6.65 L3.65 -7.3 3.7 -7.35 Q3.05 -8.9 1.9 -10.25 L1.1 -11.25 Q-0.25 -11.85 -1.55 -12.25 L0.35 -12.45 Q3.2 -11.55 4.35 -8.55 L4.45 -8.55 4.55 -7.95 4.7 -8.0 4.75 -8.05 4.6 -7.7 4.6 -6.4 4.3 -5.15 4.2 -5.75 Q2.95 -4.45 1.45 -4.3 L1.45 -3.95 Q3.05 -3.85 4.7 -4.75 L4.8 -4.75 Q3.75 -3.2 1.85 -2.9 L1.75 -2.85 1.2 -2.85 0.75 -1.05 Q-0.25 2.1 -2.3 4.35 0.1 5.6 2.6 5.95 5.95 6.4 9.5 5.2 L10.65 4.8 11.0 3.5 11.25 3.0 Q11.95 -1.7 10.6 -6.0 L10.4 -6.3 9.6 -7.85 9.25 -8.45 8.8 -8.15 8.7 -7.8 8.65 -7.65 Q7.15 -7.8 6.2 -8.45 M0.35 -6.6 Q-0.05 -8.15 -1.1 -9.45 L-2.45 -9.65 Q-3.1 -9.5 -3.65 -9.15 L-4.25 -8.65 -4.0 -8.55 Q-2.65 -7.95 -1.65 -6.85 L0.1 -6.6 0.35 -6.6 M1.55 -5.3 L4.15 -5.9 3.9 -6.8 Q2.95 -6.0 1.5 -5.7 L1.55 -5.3 M0.55 -5.55 L0.3 -5.6 -0.85 -5.65 -0.1 -5.3 0.35 -5.25 0.55 -5.25 0.55 -5.55 M0.25 -4.35 L-0.3 -4.5 -0.25 -4.3 0.25 -4.2 0.25 -4.35 M10.3 13.8 L10.8 13.4 Q11.9 12.25 12.05 10.75 L12.15 9.85 12.05 8.95 Q11.95 7.25 11.1 5.7 5.2 8.75 -1.2 6.05 L-2.3 5.45 -2.9 5.0 -2.95 4.95 -3.85 5.8 -4.85 6.5 -5.4 6.7 -5.7 6.8 -6.3 6.95 -6.7 7.0 Q-5.9 9.15 -5.65 11.6 L-5.65 11.95 Q-5.65 12.6 -6.0 13.2 -6.35 12.6 -6.3 11.8 -6.3 11.3 -6.45 10.95 -7.5 6.2 -10.5 2.9 L-12.4 1.1 Q-13.45 0.45 -14.3 0.3 -16.75 -0.1 -18.25 2.7 L-18.95 4.1 Q-19.85 6.3 -19.75 8.75 L-19.65 9.8 -19.65 9.85 -19.8 10.35 -19.9 10.4 -19.95 10.35 -20.25 10.05 -20.55 9.55 -20.55 9.45 -20.5 8.2 -20.35 6.45 Q-20.2 5.05 -19.7 3.8 L-19.45 3.25 Q-18.75 1.85 -17.65 0.75 L-20.15 0.5 Q-24.3 0.3 -28.35 1.5 L-29.35 1.65 -29.45 1.55 -29.45 1.4 -29.45 1.3 -29.15 1.0 -29.05 0.95 -29.0 0.85 -28.8 0.8 -28.55 0.65 -28.4 0.65 -28.5 0.55 -28.35 0.25 Q-29.6 -0.4 -30.95 -0.25 L-32.3 0.1 -32.55 0.2 Q-34.4 1.75 -34.75 4.1 L-34.85 4.85 -34.9 5.05 -34.4 4.7 -34.0 4.6 -34.5 5.7 -35.1 6.5 -35.1 6.6 -35.2 6.75 -35.3 6.75 -35.9 7.25 -36.75 9.05 -37.1 9.75 -37.3 10.3 Q-38.9 15.1 -36.7 19.95 L-36.0 20.9 -35.9 20.95 -35.8 21.6 -34.2 23.85 -34.05 24.2 -33.95 24.35 Q-31.6 26.45 -27.8 27.0 -15.95 28.75 -6.2 21.8 L-1.6 18.35 1.95 14.95 Q2.7 13.75 3.8 12.9 3.0 12.75 2.15 12.9 L2.1 12.8 2.05 12.65 2.05 12.45 Q2.2 12.2 2.55 12.15 L3.55 11.85 Q6.4 12.0 7.2 14.6 L7.2 14.65 7.1 14.7 6.7 14.9 Q5.9 13.75 4.85 13.25 L4.4 13.45 4.25 13.65 4.2 13.8 Q-0.45 19.55 -6.9 23.5 -12.3 26.8 -18.4 28.0 -25.95 29.4 -32.8 26.15 L-33.0 26.1 -32.25 27.15 Q-29.5 30.85 -24.85 32.9 -23.35 33.6 -21.65 33.95 -14.75 34.95 -9.0 31.15 L-8.05 30.4 -4.9 27.8 -1.2 24.4 0.4 22.85 5.35 18.4 10.3 13.8 M9.0 12.5 L9.05 12.6 9.05 12.65 9.0 12.7 8.95 12.75 9.0 12.5 M-10.8 -9.8 L-11.05 -9.9 -11.35 -9.5 -11.4 -9.5 -12.25 -8.3 -11.75 -7.8 -11.25 -7.9 -11.15 -7.9 -10.8 -7.85 -10.6 -8.9 -10.55 -9.35 -10.75 -9.65 -10.8 -9.8 M-12.85 -6.4 L-12.95 -6.35 -13.35 -6.3 -13.5 -6.25 -13.8 -5.5 Q-14.55 -3.7 -14.9 -1.7 L-14.85 -0.9 -14.9 -0.65 -14.5 -0.65 Q-14.65 -1.55 -14.2 -2.7 L-13.65 -3.65 -12.85 -4.35 -12.75 -4.35 -12.6 -4.4 -12.15 -4.35 -12.1 -4.35 -11.85 -4.25 -11.65 -4.25 -10.95 -7.15 -11.45 -7.1 -11.8 -7.0 -11.95 -6.85 -12.55 -6.7 -12.85 -6.6 -12.85 -6.4 M-4.85 -8.25 Q-6.6 -6.9 -7.6 -4.8 L-7.85 -4.6 -8.55 -3.05 -8.0 -3.35 -7.65 -3.45 Q-4.3 -2.8 -4.4 0.75 L-4.45 1.25 -4.85 2.65 -5.8 4.2 -6.7 4.9 -7.55 5.25 -7.1 6.15 -6.1 6.1 -5.45 5.75 -3.2 3.85 Q-1.7 2.25 -0.7 0.2 L-0.45 -0.25 -0.55 -0.4 -0.6 -0.65 Q-0.95 -3.4 -2.3 -5.75 L-3.25 -7.3 Q-3.85 -7.95 -4.6 -8.25 L-4.85 -8.25 M-13.1 5.6 Q-10.95 7.1 -10.25 9.75 -9.6 12.05 -11.15 13.65 L-11.25 13.7 Q-12.55 13.95 -13.55 13.0 -15.65 10.45 -15.0 7.3 L-14.85 6.65 -14.75 6.45 -14.6 6.4 -14.6 6.2 -14.55 6.0 -14.05 5.7 -13.85 5.55 -13.3 5.55 -13.1 5.6 M-17.5 0.55 L-17.65 0.7 -17.65 0.75 -17.6 0.75 -17.55 0.6 -17.5 0.6 -17.1 0.25 -17.5 0.55" fill="#000000" fill-rule="evenodd" stroke="none"/>
    <path d="M6.2 -8.45 L6.45 -6.45 6.5 -5.45 Q6.55 -0.45 3.65 3.45 L3.6 3.55 3.75 3.65 Q3.65 5.0 2.6 5.95 0.1 5.6 -2.3 4.35 -0.25 2.1 0.75 -1.05 L1.2 -2.85 1.75 -2.85 1.85 -2.9 Q3.75 -3.2 4.8 -4.75 L4.7 -4.75 Q3.05 -3.85 1.45 -3.95 L1.45 -4.3 Q2.95 -4.45 4.2 -5.75 L4.3 -5.15 4.6 -6.4 4.6 -7.7 4.75 -8.05 4.7 -8.0 4.55 -7.95 4.45 -8.55 4.35 -8.55 Q3.2 -11.55 0.35 -12.45 L-1.55 -12.25 Q-0.25 -11.85 1.1 -11.25 L1.9 -10.25 Q3.05 -8.9 3.7 -7.35 L3.65 -7.3 1.45 -6.65 Q1.0 -9.0 -1.25 -10.45 -4.0 -10.65 -5.75 -8.6 -7.75 -7.1 -8.9 -4.65 -10.35 -1.7 -10.2 1.35 L-10.4 1.45 -10.5 1.3 -10.6 1.15 -12.4 -0.15 -10.45 -4.55 Q-9.25 -7.5 -10.2 -10.35 L-10.35 -10.4 -10.7 -10.55 -11.1 -10.65 -11.3 -10.6 -11.45 -10.55 -11.5 -10.6 -10.55 -11.75 -9.2 -12.05 Q-7.45 -12.35 -7.6 -13.3 L-8.75 -13.35 Q-7.45 -14.25 -5.95 -14.8 L-3.9 -14.9 Q1.25 -14.95 5.1 -12.45 L4.85 -12.1 4.7 -11.8 4.65 -11.4 4.65 -11.15 4.7 -11.0 4.9 -10.9 Q5.15 -9.3 6.2 -8.45 M0.25 -4.35 L0.25 -4.2 -0.25 -4.3 -0.3 -4.5 0.25 -4.35 M0.55 -5.55 L0.55 -5.25 0.35 -5.25 -0.1 -5.3 -0.85 -5.65 0.3 -5.6 0.55 -5.55 M1.55 -5.3 L1.5 -5.7 Q2.95 -6.0 3.9 -6.8 L4.15 -5.9 1.55 -5.3 M0.35 -6.6 L0.1 -6.6 -1.65 -6.85 Q-2.65 -7.95 -4.0 -8.55 L-4.25 -8.65 -3.65 -9.15 Q-3.1 -9.5 -2.45 -9.65 L-1.1 -9.45 Q-0.05 -8.15 0.35 -6.6 M-10.8 -9.8 L-10.75 -9.65 -10.55 -9.35 -10.6 -8.9 -10.8 -7.85 -11.15 -7.9 -11.25 -7.9 -11.75 -7.8 -12.25 -8.3 -11.4 -9.5 -11.35 -9.5 -11.05 -9.9 -10.8 -9.8" fill="#75640a" fill-rule="evenodd" stroke="none"/>
    <path d="M2.6 5.95 Q3.65 5.0 3.75 3.65 L3.6 3.55 3.65 3.45 Q6.55 -0.45 6.5 -5.45 L6.45 -6.45 6.2 -8.45 Q7.15 -7.8 8.65 -7.65 L8.7 -7.8 8.8 -8.15 9.25 -8.45 9.6 -7.85 10.4 -6.3 10.6 -6.0 Q11.95 -1.7 11.25 3.0 L11.0 3.5 10.65 4.8 9.5 5.2 Q5.95 6.4 2.6 5.95" fill="#5f5300" fill-rule="evenodd" stroke="none"/>
    <path d="M-20.5 8.2 L-20.55 9.45 -20.55 9.55 -20.25 10.05 -19.95 10.35 -19.9 10.4 -19.8 10.35 -19.65 9.85 -19.65 9.8 -19.75 8.75 Q-19.85 6.3 -18.95 4.1 L-18.25 2.7 Q-16.75 -0.1 -14.3 0.3 -13.45 0.45 -12.4 1.1 L-10.5 2.9 Q-7.5 6.2 -6.45 10.95 -6.3 11.3 -6.3 11.8 -6.35 12.6 -6.0 13.2 -5.65 12.6 -5.65 11.95 L-5.65 11.6 Q-5.9 9.15 -6.7 7.0 L-6.3 6.95 -5.7 6.8 -5.4 6.7 -4.85 6.5 -3.85 5.8 -2.95 4.95 -2.9 5.0 -2.3 5.45 -1.2 6.05 Q5.2 8.75 11.1 5.7 11.95 7.25 12.05 8.95 L12.15 9.85 12.05 10.75 Q11.9 12.25 10.8 13.4 L10.3 13.8 10.0 13.05 9.9 12.9 9.45 12.3 9.0 12.7 9.05 12.65 9.05 12.6 9.0 12.5 Q9.15 11.0 7.05 10.4 L4.55 10.7 4.5 10.55 3.5 10.85 3.2 11.0 2.65 11.5 Q1.1 13.5 -0.85 14.4 -1.4 14.65 -1.7 15.0 -4.3 18.0 -9.35 18.6 L-10.45 18.6 -12.05 18.35 -15.35 17.65 -16.3 17.25 Q-19.3 15.75 -21.9 13.6 L-22.6 12.8 Q-22.85 12.35 -23.65 11.9 -25.45 10.95 -27.45 10.35 -29.8 9.6 -32.45 9.35 L-33.8 9.4 -35.55 9.8 -37.3 10.3 -37.1 9.75 -36.75 9.05 -35.9 7.25 -35.3 6.75 -35.2 6.75 -35.1 6.6 -35.1 6.5 -34.5 5.7 -34.0 4.6 -34.4 4.7 -34.9 5.05 -34.85 4.85 -34.75 4.1 Q-34.4 1.75 -32.55 0.2 L-32.3 0.1 -30.95 -0.25 Q-29.6 -0.4 -28.35 0.25 L-28.5 0.55 -28.4 0.65 -28.55 0.65 -28.8 0.8 -29.0 0.85 -29.05 0.95 -29.15 1.0 -29.45 1.3 -29.45 1.4 -29.45 1.55 -29.35 1.65 -28.35 1.5 Q-24.3 0.3 -20.15 0.5 L-17.65 0.75 -20.05 0.95 Q-21.2 1.25 -22.05 1.9 L-22.45 2.2 Q-23.25 3.05 -23.15 4.35 L-23.1 4.85 -22.9 5.9 -22.55 6.65 -21.2 7.85 -20.9 8.0 -20.5 8.2 M-34.05 24.2 L-34.2 23.85 -33.95 24.1 -34.05 24.2 M-13.1 5.6 L-13.3 5.55 -13.85 5.55 -14.05 5.7 -14.55 6.0 -14.6 6.2 -14.6 6.4 -14.75 6.45 -14.85 6.65 -15.0 7.3 Q-15.65 10.45 -13.55 13.0 -12.55 13.95 -11.25 13.7 L-11.15 13.65 Q-9.6 12.05 -10.25 9.75 -10.95 7.1 -13.1 5.6 M-17.65 0.75 L-17.65 0.7 -17.5 0.55 -17.5 0.6 -17.55 0.6 -17.6 0.75 -17.65 0.75 M-19.05 29.4 L-18.95 29.3 -18.8 29.25 -18.8 29.35 -18.75 29.4 -19.05 29.4 M-14.3 28.45 L-14.25 28.5 -14.25 28.6 -14.65 28.7 -14.3 28.45 M-3.65 22.2 L-3.05 21.8 -3.1 21.9 -3.5 22.15 -3.65 22.2" fill="#cfb392" fill-rule="evenodd" stroke="none"/>
    <path d="M-20.5 8.2 L-20.9 8.0 -21.2 7.85 -22.55 6.65 -22.9 5.9 -23.1 4.85 -23.15 4.35 Q-23.25 3.05 -22.45 2.2 L-22.05 1.9 Q-21.2 1.25 -20.05 0.95 L-17.65 0.75 Q-18.75 1.85 -19.45 3.25 L-19.7 3.8 Q-20.2 5.05 -20.35 6.45 L-20.5 8.2 M-37.3 10.3 L-35.55 9.8 -33.8 9.4 -32.45 9.35 Q-29.8 9.6 -27.45 10.35 -25.45 10.95 -23.65 11.9 -22.85 12.35 -22.6 12.8 L-21.9 13.6 Q-19.3 15.75 -16.3 17.25 L-15.35 17.65 -12.05 18.35 -10.45 18.6 -9.35 18.6 Q-4.3 18.0 -1.7 15.0 -1.4 14.65 -0.85 14.4 1.1 13.5 2.65 11.5 L3.2 11.0 3.5 10.85 4.5 10.55 4.55 10.7 7.05 10.4 Q9.15 11.0 9.0 12.5 L8.95 12.75 9.0 12.7 9.45 12.3 9.9 12.9 10.0 13.05 10.3 13.8 5.35 18.4 0.4 22.85 -1.2 24.4 -4.9 27.8 -8.05 30.4 -9.0 31.15 Q-14.75 34.95 -21.65 33.95 -23.35 33.6 -24.85 32.9 -29.5 30.85 -32.25 27.15 L-33.0 26.1 -32.8 26.15 Q-25.95 29.4 -18.4 28.0 -12.3 26.8 -6.9 23.5 -0.45 19.55 4.2 13.8 L4.25 13.65 4.4 13.45 4.85 13.25 Q5.9 13.75 6.7 14.9 L7.1 14.7 7.2 14.65 7.2 14.6 Q6.4 12.0 3.55 11.85 L2.55 12.15 Q2.2 12.2 2.05 12.45 L2.05 12.65 2.1 12.8 2.15 12.9 Q3.0 12.75 3.8 12.9 2.7 13.75 1.95 14.95 L-1.6 18.35 -6.2 21.8 Q-15.95 28.75 -27.8 27.0 -31.6 26.45 -33.95 24.35 L-34.05 24.2 -33.95 24.1 -34.2 23.85 -35.8 21.6 -35.9 20.95 -36.0 20.9 -36.7 19.95 Q-38.9 15.1 -37.3 10.3 M-3.65 22.2 L-3.5 22.15 -3.1 21.9 -3.05 21.8 -3.65 22.2 M-14.3 28.45 L-14.65 28.7 -14.25 28.6 -14.25 28.5 -14.3 28.45 M-19.05 29.4 L-18.75 29.4 -18.8 29.35 -18.8 29.25 -18.95 29.3 -19.05 29.4" fill="#c19b6b" fill-rule="evenodd" stroke="none"/>
    <path d="M-4.85 -8.25 L-4.6 -8.25 Q-3.85 -7.95 -3.25 -7.3 L-2.3 -5.75 Q-0.95 -3.4 -0.6 -0.65 L-0.55 -0.4 -0.45 -0.25 -0.7 0.2 Q-1.7 2.25 -3.2 3.85 L-5.45 5.75 -6.1 6.1 -7.1 6.15 -7.55 5.25 -6.7 4.9 -5.8 4.2 -4.85 2.65 -4.45 1.25 -4.4 0.75 Q-4.3 -2.8 -7.65 -3.45 L-8.0 -3.35 -8.55 -3.05 -7.85 -4.6 -7.6 -4.8 Q-6.6 -6.9 -4.85 -8.25 M-12.85 -6.4 L-12.85 -6.6 -12.55 -6.7 -11.95 -6.85 -11.8 -7.0 -11.45 -7.1 -10.95 -7.15 -11.65 -4.25 -11.85 -4.25 -12.1 -4.35 -12.15 -4.35 -12.6 -4.4 -12.75 -4.35 -12.85 -4.35 -13.65 -3.65 -14.2 -2.7 Q-14.65 -1.55 -14.5 -0.65 L-14.9 -0.65 -14.85 -0.9 -14.9 -1.7 Q-14.55 -3.7 -13.8 -5.5 L-13.5 -6.25 -13.35 -6.3 -12.95 -6.35 -12.85 -6.4" fill="#ffffff" fill-rule="evenodd" stroke="none"/>
  </g>
</svg>
