<?xml version="1.0" encoding="UTF-8" standalone="no"?>
<svg xmlns:xlink="http://www.w3.org/1999/xlink" height="68.9px" width="80.25px" xmlns="http://www.w3.org/2000/svg">
  <g transform="matrix(1.0, 0.0, 0.0, 1.0, 36.85, 35.0)">
    <path d="M40.55 -26.25 Q44.35 -24.85 43.1 -21.4 41.95 -18.2 38.85 -16.7 32.15 -13.55 25.35 -11.0 L17.55 -8.0 Q18.0 -7.0 18.05 -5.95 18.95 -0.9 16.75 4.25 L15.4 6.2 15.5 6.2 15.65 6.35 15.8 6.45 Q16.3 8.7 15.9 10.7 15.4 13.5 13.0 15.65 11.45 17.15 9.4 17.75 L9.35 17.8 7.75 18.25 Q7.35 18.75 6.3 18.85 L5.3 18.95 5.2 18.85 Q1.15 22.9 -2.55 27.45 -6.8 32.3 -13.0 33.6 -18.1 34.65 -22.6 31.85 L-23.3 31.15 Q-25.25 29.65 -25.95 26.95 L-26.1 24.15 -26.05 23.15 Q-25.75 20.8 -24.65 18.65 -29.2 17.2 -33.0 13.8 L-33.5 13.35 Q-37.75 9.85 -36.6 4.4 -36.1 2.1 -35.05 0.1 L-34.45 -0.8 -32.4 -3.35 -31.2 -4.5 Q-30.85 -6.5 -29.75 -8.15 -28.7 -9.75 -26.9 -10.25 -26.2 -10.7 -25.35 -10.75 L-23.9 -10.55 Q-21.9 -9.9 -21.15 -8.15 L-19.9 -8.05 -14.0 -7.0 -12.0 -6.2 -11.7 -6.3 -10.6 -6.65 -11.25 -7.3 Q-12.6 -8.55 -11.65 -9.55 L-10.45 -7.65 Q-10.7 -8.7 -10.05 -9.8 L-9.95 -9.8 Q-9.65 -9.2 -9.85 -8.4 L-9.8 -8.3 -9.5 -7.75 Q-8.3 -10.2 -6.35 -12.2 L-5.7 -13.0 -5.3 -13.3 -5.2 -13.6 -3.65 -15.7 -2.15 -16.95 Q0.25 -18.35 2.9 -18.35 L4.85 -18.3 5.7 -18.2 Q6.2 -24.75 8.6 -31.1 9.3 -33.25 11.25 -34.4 L12.05 -34.65 13.4 -34.95 14.0 -34.95 Q16.45 -33.85 16.2 -30.95 15.55 -23.55 11.65 -17.05 L11.0 -16.0 14.35 -13.15 Q18.9 -17.15 23.8 -20.75 28.55 -24.1 34.05 -26.05 L40.55 -26.25 M13.7 -8.4 Q12.85 -9.5 13.0 -11.1 L12.85 -11.25 12.8 -11.4 12.85 -11.65 13.05 -12.0 13.25 -12.25 13.65 -12.55 Q10.45 -15.95 5.45 -17.15 L3.4 -17.6 0.35 -16.85 1.45 -16.55 Q1.35 -15.55 -0.45 -15.7 L-1.8 -15.75 -2.95 -14.8 -3.15 -14.7 -3.0 -14.65 -2.85 -14.7 -2.5 -14.55 -2.35 -14.35 -2.25 -13.85 -2.4 -13.65 Q-2.05 -11.95 -3.1 -10.15 -4.8 -7.35 -7.0 -5.05 -5.75 -4.15 -4.85 -2.9 L-4.7 -3.05 -4.65 -3.05 Q-2.9 -6.4 -0.6 -9.25 L-0.1 -10.05 Q2.9 -12.6 6.65 -12.0 9.45 -9.1 7.65 -5.05 L6.1 -2.15 5.35 -1.15 6.9 -1.2 Q5.8 -0.5 4.4 -0.25 L4.0 0.15 3.95 0.25 3.85 0.35 3.9 0.4 8.0 1.35 4.7 1.65 5.35 2.25 7.05 3.35 7.2 3.4 7.05 3.5 6.85 3.5 Q4.4 3.1 2.3 1.5 L0.55 1.95 1.7 1.0 0.8 0.2 Q-1.35 -1.95 -4.45 -2.25 L-3.5 -0.45 -1.45 2.35 Q0.1 3.1 1.8 3.0 L2.25 3.15 4.45 4.45 Q7.9 6.3 12.0 6.5 L14.25 6.3 15.35 4.4 15.75 4.0 Q17.55 -0.45 17.35 -4.9 L17.25 -5.3 16.8 -6.95 16.6 -7.6 16.1 -7.4 15.95 -7.1 15.75 -7.05 Q14.4 -7.5 13.7 -8.4 M7.15 -14.0 L8.9 -13.8 Q11.55 -12.15 11.95 -8.95 L11.95 -8.9 Q11.95 -7.75 11.55 -6.8 L11.0 -5.65 Q11.25 -8.5 9.95 -11.2 L9.4 -12.4 7.15 -14.0 M5.05 -11.2 L2.55 -10.65 Q1.0 -9.9 -0.1 -8.55 L-0.5 -8.25 -3.75 -2.95 -2.55 -2.85 -1.15 -2.15 -1.0 -2.2 -0.9 -2.2 -0.55 -2.1 0.4 -1.75 4.1 -1.15 4.6 -1.65 Q5.9 -3.45 6.7 -5.6 8.1 -8.65 6.0 -10.8 L5.05 -11.2 M2.05 -0.25 L2.85 0.05 3.05 -0.2 2.5 -0.25 2.05 -0.25 M11.1 10.3 Q11.8 11.2 11.65 12.55 L11.55 12.6 10.45 11.3 9.95 10.8 8.8 11.65 6.1 14.15 Q4.1 15.95 1.9 17.5 -4.35 21.6 -10.0 26.25 L-10.95 26.95 Q-13.05 28.3 -15.6 28.55 -18.0 28.8 -19.75 27.9 L-19.8 27.9 -21.6 26.65 Q-22.95 24.65 -22.65 22.3 L-22.6 22.25 -22.75 22.0 Q-22.7 20.55 -22.0 19.3 L-23.8 18.9 Q-26.2 23.8 -23.95 28.45 L-23.75 28.85 -22.85 30.1 -21.65 31.3 Q-16.15 34.25 -10.2 31.85 L-6.75 29.7 Q-2.75 26.1 0.8 22.0 3.75 18.4 7.6 16.2 L7.75 16.2 7.5 16.7 7.4 16.7 6.35 17.75 6.0 18.1 6.45 17.95 Q8.7 17.05 10.9 15.8 L12.25 15.0 Q14.55 13.55 15.0 10.85 L15.05 10.05 Q15.15 8.7 14.8 7.45 L14.8 7.0 8.6 7.2 Q5.55 6.35 2.8 4.7 L1.85 4.1 1.45 3.8 Q-1.1 4.1 -2.45 2.7 L-2.25 3.2 -2.2 3.85 -2.05 4.75 -1.95 5.1 -1.95 6.55 Q-1.9 7.6 -2.2 8.65 L-2.35 8.8 -2.35 8.9 Q-2.35 9.15 -2.6 9.05 L-2.9 7.5 -2.9 5.2 Q-3.7 -0.35 -7.55 -4.3 L-7.75 -4.4 -8.0 -4.65 -8.9 -5.05 -10.45 -5.55 Q-11.7 -5.25 -12.65 -4.6 -14.25 -3.55 -15.25 -1.55 -15.8 -0.4 -15.95 0.7 -16.45 1.6 -16.45 2.5 L-16.55 2.95 -16.85 3.4 -17.1 2.25 -17.05 2.15 Q-17.3 -0.3 -15.75 -2.75 -14.8 -4.15 -13.5 -5.15 L-13.0 -5.55 -16.1 -6.3 Q-20.6 -7.45 -25.05 -7.2 L-25.05 -7.3 -24.95 -7.45 -24.95 -7.55 -22.2 -8.15 Q-24.05 -10.4 -27.1 -9.3 L-28.95 -7.25 -30.05 -5.55 -30.15 -5.25 -30.0 -5.35 -27.7 -6.35 Q-27.4 -5.95 -27.9 -5.6 L-27.95 -5.5 Q-30.9 -3.95 -32.9 -1.45 -34.25 0.25 -35.15 2.45 L-35.25 2.65 Q-36.55 6.9 -34.6 10.7 L-34.55 10.85 Q-30.3 15.5 -24.2 17.6 -21.1 18.65 -17.9 19.05 L-15.65 19.15 Q-10.9 19.1 -6.25 17.75 L-6.25 17.7 Q1.1 15.5 7.65 11.4 L8.85 10.45 9.1 10.2 Q8.05 9.65 6.85 9.75 L5.35 9.6 5.25 9.45 5.25 9.25 5.3 9.1 Q5.75 8.75 6.35 8.65 L6.9 8.6 8.4 8.75 Q9.6 9.0 10.4 9.6 L10.45 9.65 10.65 9.6 10.9 10.0 10.9 10.05 11.1 10.3 M3.1 15.2 L-1.8 17.45 -4.0 18.1 -4.85 18.45 -7.85 19.3 -8.85 20.0 Q-10.6 20.65 -11.3 22.4 -12.1 24.3 -11.05 25.95 -8.9 24.75 -7.1 23.05 -4.4 20.55 -1.3 18.4 L3.1 15.2 M-3.1 -13.7 L-3.15 -13.85 -3.15 -13.8 Q-6.85 -11.0 -8.95 -6.85 L-8.4 -6.05 -7.65 -5.5 -7.55 -5.5 Q-5.25 -8.5 -3.5 -12.05 L-3.35 -12.3 -3.15 -13.3 -3.1 -13.7 M-8.9 0.25 Q-6.75 2.1 -7.1 5.25 -7.4 7.55 -9.1 9.1 -11.1 8.85 -11.6 6.6 -11.95 4.75 -11.75 2.85 -11.45 0.45 -9.2 0.15 L-9.05 0.2 -8.9 0.25 M-16.3 20.1 L-19.5 19.85 -21.05 19.45 Q-22.6 23.0 -20.75 25.9 -17.75 28.4 -13.75 27.0 L-13.35 26.9 -12.1 26.4 -12.05 26.35 -12.25 26.25 Q-13.25 22.0 -10.5 19.85 L-16.3 20.1" fill="#000000" fill-rule="evenodd" stroke="none"/>
    <path d="M-2.95 -14.8 L-1.8 -15.75 -0.45 -15.7 Q1.35 -15.55 1.45 -16.55 L0.35 -16.85 3.4 -17.6 5.45 -17.15 Q10.45 -15.95 13.65 -12.55 L13.25 -12.25 13.05 -12.0 12.85 -11.65 12.8 -11.4 12.85 -11.25 13.0 -11.1 Q12.85 -9.5 13.7 -8.4 L13.45 -6.35 13.2 -5.4 Q12.0 -0.55 8.2 2.55 L7.05 3.35 5.35 2.25 4.7 1.65 8.0 1.35 3.9 0.4 3.95 0.25 4.0 0.15 4.4 -0.25 Q5.8 -0.5 6.9 -1.2 L5.35 -1.15 6.1 -2.15 7.65 -5.05 Q9.45 -9.1 6.65 -12.0 2.9 -12.6 -0.1 -10.05 L-0.6 -9.25 Q-2.9 -6.4 -4.65 -3.05 L-4.7 -3.05 -4.85 -2.9 Q-5.75 -4.15 -7.0 -5.05 -4.8 -7.35 -3.1 -10.15 -2.05 -11.95 -2.4 -13.65 L-2.25 -13.85 -2.35 -14.35 -2.5 -14.55 -2.85 -14.7 -2.95 -14.8 M4.45 4.45 L2.25 3.15 1.8 3.0 Q0.1 3.1 -1.45 2.35 L-3.5 -0.45 -4.45 -2.25 Q-1.35 -1.95 0.8 0.2 L1.7 1.0 0.55 1.95 2.3 1.5 Q4.4 3.1 6.85 3.5 5.7 4.2 4.45 4.45 M5.05 -11.2 L6.0 -10.8 Q8.1 -8.65 6.7 -5.6 5.9 -3.45 4.6 -1.65 L4.1 -1.15 0.4 -1.75 -0.55 -2.1 -0.9 -2.2 -1.0 -2.2 -1.15 -2.15 -2.55 -2.85 -3.75 -2.95 -0.5 -8.25 -0.1 -8.55 Q1.0 -9.9 2.55 -10.65 L5.05 -11.2 M7.15 -14.0 L9.4 -12.4 9.95 -11.2 Q11.25 -8.5 11.0 -5.65 L11.55 -6.8 Q11.95 -7.75 11.95 -8.9 L11.95 -8.95 Q11.55 -12.15 8.9 -13.8 L7.15 -14.0 M-3.15 -13.8 L-3.1 -13.7 -3.15 -13.3 -3.35 -12.3 -3.5 -12.05 Q-5.25 -8.5 -7.55 -5.5 L-7.65 -5.5 -8.4 -6.05 -8.95 -6.85 Q-6.85 -11.0 -3.15 -13.8" fill="#75640a" fill-rule="evenodd" stroke="none"/>
    <path d="M7.05 3.35 L8.2 2.55 Q12.0 -0.55 13.2 -5.4 L13.45 -6.35 13.7 -8.4 Q14.4 -7.5 15.75 -7.05 L15.95 -7.1 16.1 -7.4 16.6 -7.6 16.8 -6.95 17.25 -5.3 17.35 -4.9 Q17.55 -0.45 15.75 4.0 L15.35 4.4 14.25 6.3 12.0 6.5 Q7.9 6.3 4.45 4.45 5.7 4.2 6.85 3.5 L7.05 3.5 7.2 3.4 7.05 3.35" fill="#5f5300" fill-rule="evenodd" stroke="none"/>
    <path d="M10.9 15.8 L11.3 15.25 11.85 13.85 12.05 13.1 Q12.2 11.95 11.85 10.8 L11.65 10.35 11.3 9.7 11.2 9.45 11.2 9.8 11.15 10.1 11.1 10.3 10.9 10.05 10.9 10.0 10.65 9.6 10.45 9.65 10.4 9.6 Q9.6 9.0 8.4 8.75 L6.9 8.6 6.35 8.65 Q5.75 8.75 5.3 9.1 L5.25 9.25 4.85 9.55 Q2.15 11.15 -0.8 12.25 L-2.3 12.65 -8.95 13.35 -9.7 13.3 Q-12.0 12.85 -14.3 12.0 L-16.0 10.95 -16.25 10.65 -17.55 9.35 -20.1 5.6 -20.5 5.05 -24.25 0.9 -24.6 0.55 Q-26.1 -0.35 -27.8 -0.95 -30.15 -1.8 -32.45 -1.5 L-32.9 -1.45 Q-30.9 -3.95 -27.95 -5.5 L-27.9 -5.6 Q-27.4 -5.95 -27.7 -6.35 L-30.0 -5.35 -30.05 -5.55 -28.95 -7.25 -27.1 -9.3 Q-24.05 -10.4 -22.2 -8.15 L-24.95 -7.55 -24.95 -7.45 -25.05 -7.3 -25.05 -7.2 Q-20.6 -7.45 -16.1 -6.3 L-13.0 -5.55 -13.5 -5.15 Q-16.0 -5.8 -17.35 -3.7 L-17.75 -2.75 Q-18.45 -1.05 -18.05 0.65 L-17.6 1.8 -17.25 2.15 -17.05 2.15 -17.1 2.25 -16.85 3.4 -16.55 2.95 -16.45 2.5 Q-16.45 1.6 -15.95 0.7 -15.8 -0.4 -15.25 -1.55 -14.25 -3.55 -12.65 -4.6 -11.7 -5.25 -10.45 -5.55 L-8.9 -5.05 -8.0 -4.65 -7.75 -4.4 -7.55 -4.3 Q-3.7 -0.35 -2.9 5.2 L-2.9 7.5 -2.6 9.05 Q-2.35 9.15 -2.35 8.9 L-2.35 8.8 -2.2 8.65 Q-1.9 7.6 -1.95 6.55 L-1.95 5.1 -2.05 4.75 -2.2 3.85 -2.25 3.2 -2.45 2.7 Q-1.1 4.1 1.45 3.8 L1.85 4.1 2.8 4.7 Q5.55 6.35 8.6 7.2 L14.8 7.0 14.8 7.45 Q15.15 8.7 15.05 10.05 L15.0 10.85 Q14.55 13.55 12.25 15.0 L10.9 15.8 M6.1 14.15 L4.2 16.25 3.65 16.85 Q1.9 19.1 -0.2 20.95 L-1.05 21.75 -2.2 22.85 -4.3 24.55 -4.9 25.0 -7.2 26.95 Q-8.9 28.35 -11.05 29.35 L-13.2 30.15 -17.15 30.75 Q-19.5 30.8 -21.55 29.75 L-23.15 28.95 -23.65 28.7 -23.75 28.85 -23.95 28.45 Q-26.2 23.8 -23.8 18.9 L-22.0 19.3 Q-22.7 20.55 -22.75 22.0 L-22.6 22.25 -22.65 22.3 Q-22.95 24.65 -21.6 26.65 L-19.8 27.9 -19.75 27.9 Q-18.0 28.8 -15.6 28.55 -13.05 28.3 -10.95 26.95 L-10.0 26.25 Q-4.35 21.6 1.9 17.5 4.1 15.95 6.1 14.15 M-8.9 0.25 L-9.05 0.2 -9.2 0.15 Q-11.45 0.45 -11.75 2.85 -11.95 4.75 -11.6 6.6 -11.1 8.85 -9.1 9.1 -7.4 7.55 -7.1 5.25 -6.75 2.1 -8.9 0.25" fill="#cfb392" fill-rule="evenodd" stroke="none"/>
    <path d="M11.1 10.3 L11.15 10.1 11.2 9.8 11.2 9.45 11.3 9.7 11.65 10.35 11.85 10.8 Q12.2 11.95 12.05 13.1 L11.85 13.85 11.3 15.25 10.9 15.8 Q8.7 17.05 6.45 17.95 L6.35 17.75 7.4 16.7 7.5 16.7 7.75 16.2 7.6 16.2 Q3.75 18.4 0.8 22.0 -2.75 26.1 -6.75 29.7 L-10.2 31.85 Q-16.15 34.25 -21.65 31.3 L-22.85 30.1 -23.75 28.85 -23.65 28.7 -23.15 28.95 -21.55 29.75 Q-19.5 30.8 -17.15 30.75 L-13.2 30.15 -11.05 29.35 Q-8.9 28.35 -7.2 26.95 L-4.9 25.0 -4.3 24.55 -2.2 22.85 -1.05 21.75 -0.2 20.95 Q1.9 19.1 3.65 16.85 L4.2 16.25 6.1 14.15 8.8 11.65 9.95 10.8 10.45 11.3 11.55 12.6 11.65 12.55 Q11.8 11.2 11.1 10.3 M-17.05 2.15 L-17.25 2.15 -17.6 1.8 -18.05 0.65 Q-18.45 -1.05 -17.75 -2.75 L-17.35 -3.7 Q-16.0 -5.8 -13.5 -5.15 -14.8 -4.15 -15.75 -2.75 -17.3 -0.3 -17.05 2.15 M-32.9 -1.45 L-32.45 -1.5 Q-30.15 -1.8 -27.8 -0.95 -26.1 -0.35 -24.6 0.55 L-24.25 0.9 -20.5 5.05 -20.1 5.6 -17.55 9.35 -16.25 10.65 -16.0 10.95 -14.3 12.0 Q-12.0 12.85 -9.7 13.3 L-8.95 13.35 -2.3 12.65 -0.8 12.25 Q2.15 11.15 4.85 9.55 L5.25 9.25 5.25 9.45 5.35 9.6 6.85 9.75 Q8.05 9.65 9.1 10.2 L8.85 10.45 7.65 11.4 Q1.1 15.5 -6.25 17.7 L-6.25 17.75 Q-10.9 19.1 -15.65 19.15 L-17.9 19.05 Q-21.1 18.65 -24.2 17.6 -30.3 15.5 -34.55 10.85 L-34.6 10.7 Q-36.55 6.9 -35.25 2.65 L-35.15 2.45 Q-34.25 0.25 -32.9 -1.45" fill="#c19b6b" fill-rule="evenodd" stroke="none"/>
    <path d="M3.1 15.2 L-1.3 18.4 Q-4.4 20.55 -7.1 23.05 -8.9 24.75 -11.05 25.95 -12.1 24.3 -11.3 22.4 -10.6 20.65 -8.85 20.0 L-7.85 19.3 -4.85 18.45 -4.0 18.1 -1.8 17.45 3.1 15.2" fill="#ff66cc" fill-rule="evenodd" stroke="none"/>
    <path d="M-16.3 20.1 L-17.0 21.6 -17.25 22.25 Q-17.5 24.5 -15.6 25.85 L-14.65 26.4 -13.35 26.9 -13.75 27.0 Q-17.75 28.4 -20.75 25.9 -22.6 23.0 -21.05 19.45 L-19.5 19.85 -16.3 20.1" fill="#660000" fill-rule="evenodd" stroke="none"/>
    <path d="M-13.35 26.9 L-14.65 26.4 -15.6 25.85 Q-17.5 24.5 -17.25 22.25 L-17.0 21.6 -16.3 20.1 -10.5 19.85 Q-13.25 22.0 -12.25 26.25 L-12.1 26.4 -13.35 26.9" fill="#3c0000" fill-rule="evenodd" stroke="none"/>
  </g>
</svg>
