<?xml version="1.0" encoding="UTF-8" standalone="no"?>
<svg xmlns:xlink="http://www.w3.org/1999/xlink" height="39.1px" width="35.3px" xmlns="http://www.w3.org/2000/svg">
  <g transform="matrix(1.0, 0.0, 0.0, 1.0, 21.0, 74.65)">
    <path d="M0.15 -73.5 L2.7 -71.65 3.3 -71.2 8.35 -67.95 8.4 -67.9 9.5 -66.85 9.6 -66.85 9.75 -66.75 10.45 -66.05 Q13.5 -63.1 14.25 -58.9 L14.2 -58.8 14.2 -58.65 Q14.55 -55.9 13.85 -53.15 L13.15 -50.85 Q12.9 -50.15 12.45 -49.9 L13.3 -49.55 Q13.95 -49.2 14.15 -48.45 14.55 -46.95 13.6 -46.0 13.1 -44.85 12.25 -43.9 10.2 -41.7 7.7 -40.1 L6.5 -39.4 4.35 -38.35 4.15 -38.3 Q2.05 -37.4 -0.15 -37.0 L-4.3 -36.65 -9.15 -36.7 -11.55 -36.7 -13.1 -36.4 -13.65 -36.15 -16.35 -35.55 Q-16.75 -35.5 -17.05 -35.75 -18.3 -36.75 -17.8 -37.9 L-18.2 -37.9 -18.5 -38.0 -18.55 -38.05 -18.6 -38.1 -18.65 -38.15 -18.75 -38.1 -18.8 -38.1 -18.9 -38.15 Q-19.9 -38.55 -20.45 -39.45 -21.9 -41.8 -19.4 -43.1 L-19.3 -43.15 -19.1 -43.25 -17.5 -43.6 -14.2 -43.65 Q-11.3 -44.2 -8.95 -45.95 L-8.75 -46.15 -8.85 -46.65 -8.85 -47.0 -8.8 -47.05 -8.8 -47.2 -8.95 -47.35 -9.65 -48.25 -9.75 -48.1 -9.9 -47.8 Q-10.1 -47.75 -10.15 -47.9 L-10.2 -47.95 -10.2 -48.05 -10.25 -48.1 -10.05 -48.9 -10.2 -49.2 -10.55 -50.0 -11.25 -52.35 -11.4 -52.35 -11.4 -52.4 -11.5 -53.75 Q-11.9 -56.35 -11.5 -59.05 L-11.5 -59.1 -11.1 -60.05 Q-10.45 -62.8 -8.5 -64.8 L-6.15 -66.65 -5.2 -67.0 -5.4 -67.05 -8.45 -67.85 -9.9 -68.05 -10.05 -68.2 -10.1 -68.35 -10.1 -68.45 -9.85 -68.65 -8.45 -68.9 Q-7.65 -69.25 -7.1 -70.0 L-6.95 -70.0 Q-6.8 -70.05 -6.7 -69.9 L-2.7 -69.0 -5.95 -70.55 -6.3 -70.55 -6.35 -70.65 -6.35 -70.8 -6.3 -70.85 -6.15 -71.05 -6.1 -71.05 -5.95 -71.1 -5.75 -71.0 -5.6 -70.95 Q-2.45 -71.7 -1.25 -74.6 L-1.15 -74.6 -1.05 -74.65 0.15 -73.5 M7.7 -67.5 L7.55 -67.55 Q3.4 -70.25 -0.45 -73.2 L-0.5 -73.3 -0.5 -73.4 -0.6 -73.4 -0.9 -73.7 Q-0.95 -73.2 -1.45 -72.6 -2.9 -71.0 -4.65 -70.65 -3.0 -70.0 -1.55 -68.9 L-1.55 -68.8 -1.7 -68.6 -2.0 -68.5 -5.85 -68.85 Q-6.55 -69.0 -6.85 -69.35 -7.15 -68.7 -7.9 -68.4 L-7.45 -68.25 -4.45 -67.2 -4.45 -67.15 -3.9 -67.2 -3.8 -67.15 -3.75 -67.1 -3.7 -67.05 -3.7 -66.95 Q-6.6 -66.05 -8.55 -63.9 L-9.25 -63.0 -10.0 -61.4 -10.45 -60.2 -10.5 -60.1 -10.65 -59.55 -10.65 -59.5 -10.6 -59.45 -10.6 -59.35 -10.65 -59.15 -10.75 -58.9 Q-9.95 -58.6 -9.45 -57.75 L-9.3 -57.5 -9.25 -57.5 -8.95 -57.0 -8.95 -56.95 -8.7 -56.5 -8.45 -56.0 -7.3 -52.8 -7.2 -52.75 -7.1 -52.75 -7.0 -52.65 -7.0 -52.5 -7.2 -52.3 Q-6.8 -50.55 -6.8 -48.7 L-6.8 -48.65 Q-4.95 -49.0 -3.1 -48.6 L-1.5 -48.1 -0.55 -47.75 Q-1.45 -49.05 -1.85 -50.6 L-2.25 -52.25 -4.0 -52.5 -4.1 -52.6 -4.1 -52.7 -4.05 -52.75 -3.9 -52.8 -3.35 -52.9 -3.1 -52.9 -2.35 -52.85 -2.65 -55.05 Q-2.85 -57.5 -1.9 -59.4 L-1.45 -60.2 -1.5 -60.2 -1.05 -60.8 -1.0 -60.8 0.0 -61.8 -0.7 -61.95 -0.75 -62.0 -0.6 -62.4 Q1.95 -62.45 3.7 -60.55 5.05 -59.3 5.9 -57.5 6.8 -55.6 7.0 -53.6 7.1 -51.85 6.65 -50.0 L6.0 -48.45 5.8 -48.25 5.35 -47.7 8.6 -49.45 Q10.3 -50.45 11.95 -50.05 13.75 -53.45 13.65 -57.3 L13.4 -59.4 Q12.3 -63.85 8.85 -66.75 L7.7 -67.5 M3.85 -64.3 Q4.8 -63.5 4.75 -62.45 4.2 -62.55 3.9 -63.05 L3.3 -63.95 2.9 -64.1 Q1.5 -65.1 0.05 -64.5 L-0.1 -64.55 -0.2 -64.65 -0.25 -64.75 -0.2 -64.8 0.25 -65.35 Q2.25 -65.6 3.85 -64.3 M5.45 -57.15 L5.35 -57.45 5.3 -57.5 4.55 -58.7 4.5 -58.75 4.45 -58.85 3.95 -59.45 Q2.65 -60.85 0.8 -61.55 L0.65 -61.45 -0.3 -60.8 -0.15 -60.75 -0.6 -60.3 -0.65 -60.2 -0.7 -60.2 -1.05 -59.45 -1.1 -59.4 -1.1 -59.35 -1.15 -59.25 -1.25 -59.15 -1.25 -59.1 -1.25 -59.05 Q-2.05 -57.5 -2.05 -55.6 L-2.0 -55.4 -1.95 -55.0 -1.75 -53.3 -1.6 -53.05 -0.75 -52.85 0.5 -52.45 1.75 -52.1 4.2 -51.0 5.85 -49.65 Q6.3 -50.8 6.4 -52.1 6.45 -53.9 6.0 -55.55 L5.95 -55.75 5.5 -56.95 5.45 -57.15 M0.7 -51.1 L0.95 -50.7 Q1.25 -50.2 1.7 -49.85 L1.75 -49.85 1.4 -49.55 Q0.55 -49.05 -0.35 -49.3 L-0.5 -49.3 -0.35 -48.45 -0.1 -48.0 -0.05 -48.0 0.05 -47.9 0.05 -47.85 Q0.9 -47.35 1.8 -47.35 L1.7 -47.25 3.85 -47.25 4.55 -47.35 4.5 -47.5 5.65 -49.2 4.7 -49.7 2.45 -51.0 Q2.35 -51.05 2.35 -51.05 L2.2 -50.5 0.75 -51.2 0.7 -51.1 M-15.25 -36.55 Q-12.3 -37.7 -9.15 -37.45 L-8.35 -37.35 Q-3.75 -36.75 0.75 -37.9 8.25 -39.85 12.75 -45.7 L12.75 -45.75 12.75 -45.8 13.05 -46.3 Q13.6 -46.9 13.75 -47.7 L13.75 -47.8 13.65 -48.2 13.65 -48.35 12.85 -49.1 11.2 -49.45 11.1 -49.5 11.05 -49.55 11.0 -49.6 Q9.05 -49.45 7.55 -48.2 4.1 -45.6 0.2 -46.9 L0.1 -46.95 -0.8 -47.3 -1.4 -47.55 -7.2 -47.75 -7.3 -47.7 -7.45 -47.7 -7.85 -47.5 -8.05 -47.15 -8.0 -47.05 -8.2 -46.8 -8.2 -46.6 -7.75 -47.0 -7.55 -46.95 -7.4 -46.8 Q-7.55 -46.25 -8.05 -45.8 L-9.0 -45.05 Q-10.45 -44.0 -12.15 -43.35 L-9.05 -42.35 -8.75 -42.2 -9.05 -42.1 Q-9.5 -41.95 -10.1 -42.1 L-13.85 -43.0 -14.3 -43.0 -16.9 -42.95 -17.15 -42.95 -19.15 -42.35 Q-20.7 -41.85 -20.15 -40.4 -19.5 -38.7 -17.6 -38.45 L-17.55 -38.6 -17.45 -38.65 -16.2 -39.65 -17.6 -39.6 -17.55 -39.6 -17.1 -40.15 -12.45 -40.25 -9.1 -39.85 -8.05 -39.75 Q-3.3 -39.4 1.0 -40.9 L2.9 -41.7 3.15 -41.8 6.05 -43.55 Q7.15 -44.3 7.65 -45.6 L8.45 -46.9 Q7.5 -46.65 6.75 -45.7 L6.7 -45.65 6.65 -45.7 6.6 -45.75 6.5 -45.75 6.5 -45.85 Q6.7 -47.05 7.95 -47.45 L9.2 -47.7 Q10.4 -47.8 11.15 -46.95 L11.15 -46.85 10.95 -46.6 10.85 -46.55 10.35 -46.65 9.25 -46.95 9.0 -46.7 Q8.15 -44.2 5.95 -42.65 0.55 -39.0 -5.9 -39.2 L-8.0 -39.3 -9.1 -39.45 -13.75 -39.7 -14.5 -39.7 -15.55 -39.25 -16.85 -38.3 -16.85 -38.25 Q-17.55 -37.55 -17.2 -36.65 L-17.15 -36.55 -17.0 -36.4 -16.95 -36.25 -16.75 -36.15 -16.15 -36.2 -15.25 -36.55 M1.45 -48.15 L1.4 -48.05 1.4 -48.15 1.45 -48.15 M-10.8 -58.3 L-10.9 -58.35 -10.9 -58.3 -11.05 -55.65 -11.0 -55.7 -11.0 -54.85 Q-10.95 -53.45 -10.5 -52.05 L-10.45 -51.85 -10.15 -50.9 -9.8 -49.95 -9.75 -49.9 -9.75 -49.85 -9.7 -49.9 -9.6 -49.95 -9.6 -49.9 -9.6 -49.95 -9.6 -49.9 -9.55 -50.0 -9.1 -50.8 -9.05 -50.85 -9.0 -51.0 -8.85 -51.3 -8.6 -51.75 -8.4 -52.0 -8.3 -52.15 -8.0 -52.65 -7.95 -52.65 -7.9 -52.75 -8.0 -52.95 Q-8.2 -53.95 -8.7 -54.85 L-8.75 -54.95 -8.75 -55.0 -8.95 -55.4 -9.0 -55.5 -9.15 -55.85 -9.25 -56.0 -9.55 -56.45 -9.55 -56.5 -9.9 -57.05 -10.8 -58.3 M-2.45 -60.65 L-2.35 -60.7 -2.45 -60.6 -2.45 -60.65 M-9.0 -49.55 L-9.05 -49.55 -9.3 -49.0 -8.9 -48.35 -8.5 -47.7 -8.1 -48.1 -8.2 -48.2 -8.15 -48.25 -8.05 -48.1 -7.95 -48.3 -7.55 -48.55 -7.55 -48.6 -7.5 -48.65 -7.5 -49.4 Q-7.7 -49.25 -8.1 -49.15 L-8.25 -49.15 -7.95 -50.75 -8.85 -49.45 -8.85 -49.4 -8.9 -49.45 -9.0 -49.55 M-8.8 -49.95 L-8.85 -49.95 -8.85 -49.9 -8.8 -49.9 -8.8 -49.95 M-8.3 -48.4 L-8.3 -48.35 -8.3 -48.4 M-8.65 -49.05 L-8.7 -49.05 -8.75 -49.1 -8.7 -49.1 -8.65 -49.05" fill="#000000" fill-rule="evenodd" stroke="none"/>
    <path d="M3.85 -64.3 Q2.25 -65.6 0.25 -65.35 L-0.2 -64.8 -0.25 -64.75 -0.2 -64.65 -0.1 -64.55 0.05 -64.5 Q1.5 -65.1 2.9 -64.1 L3.3 -63.95 3.9 -63.05 Q4.2 -62.55 4.75 -62.45 4.8 -63.5 3.85 -64.3 M-6.8 -48.7 Q-6.8 -50.55 -7.2 -52.3 L-7.0 -52.5 -7.0 -52.65 -7.1 -52.75 -7.2 -52.75 -7.3 -52.8 -8.45 -56.0 -8.7 -56.5 -8.95 -56.95 -8.95 -57.0 -9.25 -57.5 -9.3 -57.5 -9.45 -57.75 Q-9.95 -58.6 -10.75 -58.9 L-10.65 -59.15 -10.6 -59.35 -10.6 -59.45 -10.65 -59.5 -10.65 -59.55 -10.5 -60.1 -10.45 -60.2 -10.0 -61.4 -9.25 -63.0 -8.55 -63.9 Q-6.6 -66.05 -3.7 -66.95 L-3.7 -67.05 -3.75 -67.1 -3.8 -67.15 -3.9 -67.2 -4.45 -67.15 -4.45 -67.2 -7.45 -68.25 -7.9 -68.4 Q-7.15 -68.7 -6.85 -69.35 -6.55 -69.0 -5.85 -68.85 L-2.0 -68.5 -1.7 -68.6 -1.55 -68.8 -1.55 -68.9 Q-3.0 -70.0 -4.65 -70.65 -2.9 -71.0 -1.45 -72.6 -0.95 -73.2 -0.9 -73.7 L-0.6 -73.4 -0.5 -73.4 -0.5 -73.3 -0.45 -73.2 Q3.4 -70.25 7.55 -67.55 L7.7 -67.5 8.45 -66.35 9.0 -65.3 Q10.65 -62.6 11.25 -59.6 L11.2 -57.3 11.1 -56.45 10.95 -55.55 10.35 -53.75 9.7 -52.6 9.25 -51.8 8.3 -50.5 6.0 -48.45 6.65 -50.0 Q7.1 -51.85 7.0 -53.6 6.8 -55.6 5.9 -57.5 5.05 -59.3 3.7 -60.55 1.95 -62.45 -0.6 -62.4 L-0.75 -62.0 -0.7 -61.95 0.0 -61.8 -1.0 -60.8 -1.05 -60.8 -1.5 -60.2 -1.45 -60.2 -1.9 -59.4 Q-2.85 -57.5 -2.65 -55.05 L-2.35 -52.85 -3.1 -52.9 -3.35 -52.9 -3.9 -52.8 -4.05 -52.75 -4.1 -52.7 -4.1 -52.6 -4.0 -52.5 -2.25 -52.25 -1.85 -50.6 Q-1.45 -49.05 -0.55 -47.75 L-1.5 -48.1 -3.1 -48.6 Q-4.95 -49.0 -6.8 -48.65 L-6.8 -48.7 M-0.65 -60.2 L-0.6 -60.3 -0.15 -60.75 -0.3 -60.8 0.65 -61.45 0.8 -61.55 Q2.65 -60.85 3.95 -59.45 L4.45 -58.85 4.5 -58.75 4.55 -58.7 5.3 -57.5 5.35 -57.45 5.45 -57.15 5.45 -57.1 5.5 -56.95 5.6 -56.6 5.9 -55.75 5.95 -55.75 6.0 -55.55 Q6.45 -53.9 6.4 -52.1 6.3 -50.8 5.85 -49.65 L4.2 -51.0 1.75 -52.1 0.5 -52.45 -0.75 -52.85 -1.6 -53.05 -1.75 -53.3 -1.95 -55.0 -2.0 -55.4 -2.05 -55.6 Q-2.05 -57.5 -1.25 -59.05 L-1.25 -59.1 -1.25 -59.15 -1.15 -59.25 -1.1 -59.35 -1.1 -59.4 -1.05 -59.45 -0.85 -59.75 -0.8 -59.9 -0.8 -60.0 -0.75 -60.05 -0.65 -60.2 M-10.9 -58.3 L-10.8 -58.3 -9.9 -57.05 -9.55 -56.5 -9.55 -56.45 -9.5 -56.4 -9.25 -56.0 -9.15 -55.85 -9.0 -55.5 -8.95 -55.4 -8.75 -55.0 -8.75 -54.95 -8.7 -54.85 Q-8.2 -53.95 -8.0 -52.95 L-7.9 -52.75 -7.95 -52.65 -8.0 -52.65 -8.3 -52.15 -8.4 -52.0 -8.6 -51.75 -8.85 -51.3 -9.0 -51.0 -9.05 -50.85 -9.1 -50.8 -9.55 -50.0 -9.6 -49.9 -9.6 -49.95 -9.6 -49.9 -9.6 -49.95 -9.7 -49.9 -9.75 -49.9 -9.8 -49.95 -10.15 -50.9 -10.25 -51.35 -10.35 -51.6 -10.45 -51.85 -10.5 -52.05 Q-10.95 -53.45 -11.0 -54.85 L-11.0 -55.7 -11.05 -55.65 -10.9 -58.3 M-2.45 -60.65 L-2.45 -60.6 -2.35 -60.7 -2.45 -60.65 M-1.55 -57.2 L-1.55 -57.05 -1.55 -57.15 -1.55 -57.2" fill="#55bb65" fill-rule="evenodd" stroke="none"/>
    <path d="M7.7 -67.5 L8.85 -66.75 Q12.3 -63.85 13.4 -59.4 L13.65 -57.3 Q13.75 -53.45 11.95 -50.05 10.3 -50.45 8.6 -49.45 L5.35 -47.7 5.8 -48.25 6.0 -48.45 8.3 -50.5 9.25 -51.8 9.7 -52.6 10.35 -53.75 10.95 -55.55 11.1 -56.45 11.2 -57.3 11.25 -59.6 Q10.65 -62.6 9.0 -65.3 L8.45 -66.35 7.7 -67.5" fill="#43a752" fill-rule="evenodd" stroke="none"/>
    <path d="M5.45 -57.15 L5.5 -56.95 5.95 -55.75 5.9 -55.75 5.6 -56.6 5.5 -56.95 5.45 -57.1 5.45 -57.15 M-1.05 -59.45 L-0.7 -60.2 -0.65 -60.2 -0.75 -60.05 -0.8 -60.0 -0.8 -59.9 -0.85 -59.75 -1.05 -59.45 M-9.55 -56.45 L-9.25 -56.0 -9.5 -56.4 -9.55 -56.45" fill="#cccccc" fill-rule="evenodd" stroke="none"/>
    <path d="M0.7 -51.1 L0.75 -51.2 2.2 -50.5 2.35 -51.05 Q2.35 -51.05 2.45 -51.0 L4.7 -49.7 5.65 -49.2 4.5 -47.5 4.55 -47.35 3.85 -47.25 1.7 -47.25 1.8 -47.35 Q0.9 -47.35 0.05 -47.85 L0.05 -47.9 -0.05 -48.0 -0.1 -48.0 -0.35 -48.45 -0.5 -49.3 -0.35 -49.3 Q0.55 -49.05 1.4 -49.55 L1.75 -49.85 1.7 -49.85 Q1.25 -50.2 0.95 -50.7 L0.7 -51.1 M1.45 -48.15 L1.4 -48.15 1.4 -48.05 1.45 -48.15 M-9.55 -56.5 L-9.55 -56.45 -9.55 -56.5 M-8.75 -55.0 L-8.75 -54.95 -8.75 -55.0 M-7.95 -52.65 L-8.0 -52.65 -7.95 -52.65 M-9.7 -49.9 L-9.75 -49.85 -9.75 -49.9 -9.7 -49.9 M-10.15 -50.9 L-10.45 -51.85 -10.35 -51.6 -10.25 -51.35 -10.15 -50.9 M-1.55 -57.2 L-1.55 -57.15 -1.55 -57.05 -1.55 -57.2 M-9.0 -49.55 L-8.9 -49.45 -8.85 -49.4 -8.85 -49.45 -7.95 -50.75 -8.25 -49.15 -8.1 -49.15 Q-7.7 -49.25 -7.5 -49.4 L-7.5 -48.65 -7.55 -48.6 -7.55 -48.55 -7.95 -48.3 -8.05 -48.1 -8.15 -48.25 -8.2 -48.2 -8.1 -48.1 -8.5 -47.7 -8.9 -48.35 -9.3 -49.0 -9.05 -49.55 -9.0 -49.55 M-8.8 -49.95 L-8.8 -49.9 -8.85 -49.9 -8.85 -49.95 -8.8 -49.95 M-8.65 -49.05 L-8.7 -49.1 -8.75 -49.1 -8.7 -49.05 -8.65 -49.05 M-8.3 -48.4 L-8.3 -48.35 -8.3 -48.4" fill="#ffffff" fill-rule="evenodd" stroke="none"/>
    <path d="M-1.4 -47.55 L-0.8 -47.3 0.1 -46.95 0.2 -46.9 Q4.1 -45.6 7.55 -48.2 9.05 -49.45 11.0 -49.6 L11.05 -49.55 11.1 -49.5 11.2 -49.45 12.85 -49.1 13.65 -48.35 13.65 -48.2 13.75 -47.8 13.75 -47.7 Q13.6 -46.9 13.05 -46.3 L12.75 -45.8 12.75 -45.75 12.75 -45.7 Q8.25 -39.85 0.75 -37.9 -3.75 -36.75 -8.35 -37.35 L-9.15 -37.45 Q-12.3 -37.7 -15.25 -36.55 L-15.7 -37.15 -15.95 -37.75 Q-16.05 -38.6 -15.55 -39.25 L-14.5 -39.7 -13.75 -39.7 -9.1 -39.45 -8.0 -39.3 -5.9 -39.2 Q0.55 -39.0 5.95 -42.65 8.15 -44.2 9.0 -46.7 L9.25 -46.95 10.35 -46.65 10.85 -46.55 10.95 -46.6 11.15 -46.85 11.15 -46.95 Q10.4 -47.8 9.2 -47.7 L7.95 -47.45 Q6.7 -47.05 6.5 -45.85 L6.5 -45.75 6.6 -45.75 6.65 -45.7 6.7 -45.65 6.75 -45.7 Q7.5 -46.65 8.45 -46.9 L7.65 -45.6 Q7.15 -44.3 6.05 -43.55 L3.15 -41.8 3.1 -41.85 4.1 -42.8 Q4.85 -43.6 4.7 -44.6 L4.55 -44.9 Q4.0 -45.7 3.05 -45.55 L1.7 -45.6 0.75 -45.85 Q-0.35 -46.15 -1.0 -47.05 L-1.4 -47.55" fill="#e05512" fill-rule="evenodd" stroke="none"/>
    <path d="M-15.25 -36.55 L-16.15 -36.2 -16.75 -36.15 -16.95 -36.25 -17.0 -36.4 -17.15 -36.55 -17.2 -36.65 Q-17.55 -37.55 -16.85 -38.25 L-16.85 -38.3 -15.55 -39.25 Q-16.05 -38.6 -15.95 -37.75 L-15.7 -37.15 -15.25 -36.55 M3.15 -41.8 L2.9 -41.7 1.0 -40.9 Q-3.3 -39.4 -8.05 -39.75 L-9.1 -39.85 -12.45 -40.25 -17.1 -40.15 -17.55 -39.6 -17.6 -39.6 -16.2 -39.65 -17.45 -38.65 -17.55 -38.6 -17.6 -38.45 Q-19.5 -38.7 -20.15 -40.4 -20.7 -41.85 -19.15 -42.35 L-17.15 -42.95 -16.9 -42.95 -14.3 -43.0 -13.85 -43.0 -10.1 -42.1 Q-9.5 -41.95 -9.05 -42.1 L-8.75 -42.2 -9.05 -42.35 -12.15 -43.35 Q-10.45 -44.0 -9.0 -45.05 L-8.05 -45.8 Q-7.55 -46.25 -7.4 -46.8 L-7.55 -46.95 -7.75 -47.0 -8.2 -46.6 -8.2 -46.8 -8.0 -47.05 -8.05 -47.15 -7.85 -47.5 -7.45 -47.7 -7.3 -47.7 -7.2 -47.75 -1.4 -47.55 -1.0 -47.05 Q-0.35 -46.15 0.75 -45.85 L1.7 -45.6 3.05 -45.55 Q4.0 -45.7 4.55 -44.9 L4.7 -44.6 Q4.85 -43.6 4.1 -42.8 L3.1 -41.85 3.15 -41.8" fill="#f07942" fill-rule="evenodd" stroke="none"/>
  </g>
</svg>
