<?xml version="1.0" encoding="UTF-8" standalone="no"?>
<svg xmlns:xlink="http://www.w3.org/1999/xlink" height="40.35px" width="37.7px" xmlns="http://www.w3.org/2000/svg">
  <g transform="matrix(1.0, 0.0, 0.0, 1.0, 23.2, 76.5)">
    <path d="M-3.1 -76.25 L-3.1 -76.5 -3.05 -76.5 -2.9 -76.3 Q-2.7 -76.15 -2.75 -75.8 -2.25 -74.7 -1.35 -73.85 -0.5 -73.05 0.55 -72.6 4.0 -71.0 7.2 -69.0 9.1 -67.85 10.6 -66.2 12.5 -64.05 13.5 -61.3 L14.0 -60.1 Q14.9 -56.5 14.1 -52.75 L14.1 -52.7 14.1 -52.5 14.0 -52.3 Q13.5 -49.95 12.0 -48.2 L12.05 -47.3 Q11.9 -44.55 10.0 -42.4 7.3 -39.45 3.4 -38.2 0.1 -37.2 -3.4 -36.85 -8.9 -36.4 -14.35 -37.05 L-14.45 -37.0 -14.9 -36.7 Q-16.7 -35.85 -18.6 -36.3 -20.15 -36.65 -20.4 -38.05 L-20.5 -38.1 -20.55 -38.1 -21.45 -38.2 Q-22.9 -38.75 -23.15 -40.25 -23.55 -42.7 -21.05 -43.65 L-20.65 -43.75 -20.25 -43.85 -19.7 -43.95 -19.45 -44.0 -19.2 -44.0 -15.8 -43.85 Q-13.2 -44.6 -11.45 -46.6 L-11.45 -46.7 Q-11.55 -47.95 -10.3 -48.5 L-9.75 -48.55 Q-11.55 -51.5 -12.3 -54.85 -12.95 -57.7 -12.0 -60.2 L-11.95 -60.35 -11.35 -61.7 -11.35 -61.75 -11.35 -61.85 -10.75 -62.75 Q-8.65 -66.05 -5.2 -67.7 L-5.25 -67.75 -5.55 -67.8 -6.65 -68.15 -8.9 -68.2 -11.25 -68.4 -11.25 -68.5 Q-9.35 -69.45 -7.75 -70.85 L-7.8 -70.85 -7.7 -70.95 -7.65 -70.95 -6.7 -70.45 Q-5.55 -69.65 -4.1 -69.55 L-3.1 -69.7 -4.5 -70.15 Q-5.9 -70.6 -6.5 -71.8 L-6.6 -71.9 -6.6 -71.95 -6.65 -72.05 -6.55 -72.1 -6.45 -72.25 -6.45 -72.2 -6.35 -72.3 Q-3.75 -73.45 -3.1 -76.25 M2.85 -70.65 L2.35 -70.85 Q-1.15 -72.1 -2.85 -75.2 -3.6 -72.85 -5.8 -71.85 -4.25 -70.35 -2.1 -69.8 -2.35 -69.3 -3.05 -69.15 -5.65 -68.7 -7.55 -70.4 -7.8 -69.95 -8.25 -69.65 L-9.35 -68.85 -7.35 -68.75 -5.15 -68.25 Q-4.55 -68.2 -4.15 -67.7 L-4.2 -67.65 Q-6.8 -66.55 -8.75 -64.45 -9.9 -63.2 -10.7 -61.65 L-11.2 -60.75 Q-12.55 -57.1 -11.25 -53.4 -10.4 -50.9 -9.05 -48.5 L-7.75 -48.2 -6.0 -47.55 Q-7.3 -48.95 -7.85 -50.9 L-7.9 -50.95 -7.95 -51.0 -8.0 -51.1 -8.25 -52.2 -9.7 -52.65 -9.65 -52.75 -9.6 -52.8 -9.5 -52.85 -8.35 -52.8 Q-8.65 -54.4 -8.55 -56.0 -8.45 -57.55 -7.95 -58.9 L-7.6 -59.6 -7.65 -59.6 -7.4 -60.15 -7.3 -60.15 -6.8 -60.9 -6.95 -61.05 Q-7.45 -61.35 -8.0 -61.5 -8.6 -61.7 -8.6 -62.05 L-7.15 -61.65 Q-4.25 -60.15 -2.55 -57.4 -0.6 -54.25 -0.6 -50.6 -0.6 -47.7 -3.0 -46.4 L-3.05 -46.4 -2.95 -46.35 Q-1.05 -46.15 0.75 -46.95 2.65 -47.85 4.05 -49.4 6.25 -51.85 9.2 -51.05 L9.6 -50.9 10.75 -50.25 11.1 -49.95 11.8 -48.9 12.35 -49.85 Q13.95 -53.05 13.85 -56.55 L13.45 -59.0 13.15 -60.3 12.2 -62.7 Q11.5 -64.35 10.3 -65.6 7.9 -68.15 4.8 -69.8 L2.85 -70.65 M-7.9 -54.4 L-7.85 -54.4 -7.8 -53.65 -7.8 -53.15 -7.75 -53.05 -7.75 -53.0 -7.7 -53.0 -7.45 -52.85 -7.35 -52.8 -7.15 -52.75 -5.0 -52.15 -4.1 -51.85 -2.2 -50.95 -1.25 -50.15 Q-1.15 -51.25 -1.35 -52.3 L-1.75 -54.05 -2.5 -55.85 -2.5 -55.9 -3.3 -57.3 -3.3 -57.35 Q-3.9 -58.6 -4.95 -59.4 L-5.2 -59.6 -5.0 -59.55 -6.5 -60.75 -6.9 -60.1 -6.8 -60.05 -6.95 -59.75 -7.1 -59.55 -7.4 -58.8 -7.8 -57.05 -7.95 -54.4 -7.9 -54.4 M-2.75 -62.55 L-2.55 -62.3 -2.15 -61.7 -2.15 -61.6 Q-2.0 -61.25 -2.25 -61.1 L-2.35 -61.2 Q-3.7 -63.5 -6.3 -64.1 L-6.4 -64.15 -6.45 -64.2 -6.5 -64.25 -6.35 -64.5 -6.2 -64.55 Q-4.0 -64.4 -2.75 -62.55 M-15.45 -37.25 L-15.2 -37.3 -15.25 -37.35 Q-15.0 -37.85 -14.25 -37.75 L-13.65 -37.65 -7.25 -37.25 -0.2 -37.85 Q3.3 -38.45 6.45 -40.3 9.45 -42.05 11.0 -45.2 11.85 -46.95 11.2 -48.65 L10.3 -49.7 9.9 -50.15 8.95 -50.5 8.6 -50.55 7.85 -50.6 Q5.6 -50.55 4.1 -48.85 L2.05 -46.95 0.3 -46.0 -2.95 -45.8 -3.2 -45.85 -5.05 -46.65 -5.4 -46.8 -5.55 -46.85 Q-7.7 -47.75 -9.9 -47.9 -10.25 -47.95 -10.4 -47.65 L-10.6 -47.25 -10.65 -47.05 Q-10.75 -46.3 -11.25 -45.9 L-11.3 -45.85 Q-12.8 -44.25 -14.8 -43.65 L-13.15 -43.0 -13.1 -42.95 -12.95 -42.8 -12.9 -42.7 -12.9 -42.65 -15.65 -43.15 -19.05 -43.4 -19.65 -43.3 -20.75 -43.0 Q-23.1 -42.25 -22.45 -40.05 -22.25 -39.35 -21.55 -39.1 L-20.5 -38.6 Q-20.0 -39.55 -18.8 -39.9 L-18.65 -39.9 -18.25 -40.05 -19.75 -40.2 -19.8 -40.25 -19.6 -40.6 -16.6 -40.55 -12.95 -39.9 -8.0 -39.75 Q-2.45 -40.15 2.6 -42.6 4.5 -43.5 5.75 -45.05 L6.7 -46.5 5.15 -46.25 4.75 -46.1 4.7 -46.25 4.7 -46.35 4.8 -46.55 4.9 -46.65 5.15 -46.8 5.3 -46.85 5.85 -47.05 Q7.1 -47.3 8.2 -46.75 L8.5 -46.4 8.65 -46.0 8.6 -45.9 8.45 -45.75 8.3 -45.8 8.25 -45.8 8.2 -45.8 8.0 -46.1 7.95 -46.2 7.75 -46.25 7.2 -46.4 Q7.25 -45.95 6.9 -45.45 5.75 -43.85 4.0 -42.85 -0.3 -40.3 -5.25 -39.35 -8.95 -38.7 -12.6 -39.3 L-16.35 -39.8 -16.45 -39.7 -16.5 -39.7 Q-17.8 -39.7 -18.9 -39.15 L-19.95 -38.4 -19.95 -38.35 -19.8 -37.9 -19.75 -37.8 -19.2 -37.2 Q-18.05 -36.45 -16.8 -36.85 L-15.45 -37.25 M-3.2 -49.95 L-3.1 -49.3 Q-2.9 -47.95 -3.65 -47.05 -1.7 -47.5 -1.35 -49.45 L-2.65 -50.2 -4.35 -51.15 -5.95 -50.55 -3.2 -49.95 M-5.8 -59.85 L-5.8 -59.8 -5.8 -59.85" fill="#000000" fill-rule="evenodd" stroke="none"/>
    <path d="M-3.0 -46.4 Q-0.6 -47.7 -0.6 -50.6 -0.6 -54.25 -2.55 -57.4 -4.25 -60.15 -7.15 -61.65 L-8.6 -62.05 Q-8.6 -61.7 -8.0 -61.5 -7.45 -61.35 -6.95 -61.05 L-6.8 -60.9 -7.3 -60.15 -7.4 -60.15 -7.65 -59.6 -7.6 -59.6 -7.95 -58.9 Q-8.45 -57.55 -8.55 -56.0 -8.65 -54.4 -8.35 -52.8 L-9.5 -52.85 -9.6 -52.8 -9.65 -52.75 -9.7 -52.65 -8.25 -52.2 -8.0 -51.1 -7.95 -51.0 -7.9 -50.95 -7.85 -50.9 Q-7.3 -48.95 -6.0 -47.55 L-7.75 -48.2 -9.05 -48.5 Q-10.4 -50.9 -11.25 -53.4 -12.55 -57.1 -11.2 -60.75 L-10.7 -61.65 Q-9.9 -63.2 -8.75 -64.45 -6.8 -66.55 -4.2 -67.65 L-4.15 -67.7 Q-4.55 -68.2 -5.15 -68.25 L-7.35 -68.75 -9.35 -68.85 -8.25 -69.65 Q-7.8 -69.95 -7.55 -70.4 -5.65 -68.7 -3.05 -69.15 -2.35 -69.3 -2.1 -69.8 -4.25 -70.35 -5.8 -71.85 -3.6 -72.85 -2.85 -75.2 -1.15 -72.1 2.35 -70.85 L2.85 -70.65 4.8 -68.75 6.1 -67.2 6.8 -66.3 9.1 -62.25 Q10.05 -60.15 10.25 -57.9 L10.45 -56.4 10.5 -55.85 9.95 -52.65 9.8 -52.1 9.2 -51.05 Q6.25 -51.85 4.05 -49.4 2.65 -47.85 0.75 -46.95 -1.05 -46.15 -2.95 -46.35 L-3.0 -46.4 M-2.75 -62.55 Q-4.0 -64.4 -6.2 -64.55 L-6.35 -64.5 -6.5 -64.25 -6.45 -64.2 -6.4 -64.15 -6.3 -64.1 Q-3.7 -63.5 -2.35 -61.2 L-2.25 -61.1 Q-2.0 -61.25 -2.15 -61.6 L-2.15 -61.7 -2.55 -62.3 -2.75 -62.55 M-7.95 -54.4 L-7.8 -57.05 -7.4 -58.8 -7.1 -59.55 -6.95 -59.75 -6.8 -60.05 -6.9 -60.1 -6.5 -60.75 -5.0 -59.55 -5.2 -59.6 -4.95 -59.4 Q-3.9 -58.6 -3.3 -57.35 L-3.3 -57.3 -2.5 -55.9 -2.5 -55.85 -1.75 -54.05 -1.35 -52.3 Q-1.15 -51.25 -1.25 -50.15 L-2.2 -50.95 -4.1 -51.85 -5.0 -52.15 -7.15 -52.75 -7.35 -52.8 -7.45 -52.85 -7.7 -53.0 -7.75 -53.0 -7.75 -53.05 -7.8 -53.15 -7.8 -53.65 -7.85 -54.4 -7.9 -54.4 -7.95 -54.4 M-5.8 -59.85 L-5.8 -59.8 -5.8 -59.85" fill="#55bb65" fill-rule="evenodd" stroke="none"/>
    <path d="M2.85 -70.65 L4.8 -69.8 Q7.9 -68.15 10.3 -65.6 11.5 -64.35 12.2 -62.7 L13.15 -60.3 13.45 -59.0 13.85 -56.55 Q13.95 -53.05 12.35 -49.85 L11.8 -48.9 11.1 -49.95 10.75 -50.25 9.6 -50.9 9.2 -51.05 9.8 -52.1 9.95 -52.65 10.5 -55.85 10.45 -56.4 10.25 -57.9 Q10.05 -60.15 9.1 -62.25 L6.8 -66.3 6.1 -67.2 4.8 -68.75 2.85 -70.65" fill="#43a752" fill-rule="evenodd" stroke="none"/>
    <path d="M-5.4 -46.8 L-5.05 -46.65 -3.2 -45.85 -2.95 -45.8 0.3 -46.0 2.05 -46.95 4.1 -48.85 Q5.6 -50.55 7.85 -50.6 L8.6 -50.55 8.95 -50.5 9.9 -50.15 10.3 -49.7 11.2 -48.65 Q11.85 -46.95 11.0 -45.2 9.45 -42.05 6.45 -40.3 3.3 -38.45 -0.2 -37.85 L-7.25 -37.25 -13.65 -37.65 -14.25 -37.75 Q-15.0 -37.85 -15.25 -37.35 L-15.2 -37.3 -15.45 -37.25 -16.45 -37.2 Q-17.8 -37.3 -18.6 -38.3 L-18.9 -39.15 Q-17.8 -39.7 -16.5 -39.7 L-16.45 -39.7 -16.35 -39.8 -12.6 -39.3 Q-8.95 -38.7 -5.25 -39.35 -0.3 -40.3 4.0 -42.85 5.75 -43.85 6.9 -45.45 7.25 -45.95 7.2 -46.4 L7.75 -46.25 7.95 -46.2 8.0 -46.1 8.2 -45.8 8.25 -45.8 8.3 -45.8 8.45 -45.75 8.6 -45.9 8.65 -46.0 8.5 -46.4 8.2 -46.75 Q7.1 -47.3 5.85 -47.05 L5.3 -46.85 5.15 -46.8 4.9 -46.65 4.8 -46.55 4.7 -46.35 4.7 -46.25 4.05 -46.2 3.9 -46.2 1.25 -45.65 0.2 -45.4 -1.25 -45.3 Q-3.6 -45.25 -5.4 -46.75 L-5.4 -46.8" fill="#e05512" fill-rule="evenodd" stroke="none"/>
    <path d="M-7.9 -54.4 L-7.95 -54.4 -7.9 -54.4 M-3.2 -49.95 L-5.95 -50.55 -4.35 -51.15 -2.65 -50.2 -1.35 -49.45 Q-1.7 -47.5 -3.65 -47.05 -2.9 -47.95 -3.1 -49.3 L-3.2 -49.95" fill="#ffffff" fill-rule="evenodd" stroke="none"/>
    <path d="M-15.45 -37.25 L-16.8 -36.85 Q-18.05 -36.45 -19.2 -37.2 L-19.75 -37.8 -19.8 -37.9 -19.95 -38.35 -19.95 -38.4 -18.9 -39.15 -18.6 -38.3 Q-17.8 -37.3 -16.45 -37.2 L-15.45 -37.25 M4.7 -46.25 L4.75 -46.1 5.15 -46.25 6.7 -46.5 5.75 -45.05 Q4.5 -43.5 2.6 -42.6 -2.45 -40.15 -8.0 -39.75 L-12.95 -39.9 -16.6 -40.55 -19.6 -40.6 -19.8 -40.25 -19.75 -40.2 -18.25 -40.05 -18.65 -39.9 -18.8 -39.9 Q-20.0 -39.55 -20.5 -38.6 L-21.55 -39.1 Q-22.25 -39.35 -22.45 -40.05 -23.1 -42.25 -20.75 -43.0 L-19.65 -43.3 -19.05 -43.4 -15.65 -43.15 -12.9 -42.65 -12.9 -42.7 -12.95 -42.8 -13.1 -42.95 -13.15 -43.0 -14.8 -43.65 Q-12.8 -44.25 -11.3 -45.85 L-11.25 -45.9 Q-10.75 -46.3 -10.65 -47.05 L-10.6 -47.25 -10.4 -47.65 Q-10.25 -47.95 -9.9 -47.9 -7.7 -47.75 -5.55 -46.85 L-5.4 -46.8 -5.4 -46.75 Q-3.6 -45.25 -1.25 -45.3 L0.2 -45.4 1.25 -45.65 3.9 -46.2 4.05 -46.2 4.7 -46.25" fill="#f07942" fill-rule="evenodd" stroke="none"/>
  </g>
</svg>
