<?xml version="1.0" encoding="UTF-8" standalone="no"?>
<svg xmlns:xlink="http://www.w3.org/1999/xlink" height="40.0px" width="36.6px" xmlns="http://www.w3.org/2000/svg">
  <g transform="matrix(1.0, 0.0, 0.0, 1.0, 10.9, 77.0)">
    <path d="M23.95 -44.9 L24.05 -44.85 Q26.6 -43.55 25.2 -41.15 24.65 -40.15 23.6 -39.75 L23.55 -39.7 23.5 -39.7 23.4 -39.7 23.3 -39.65 23.2 -39.6 22.95 -39.5 22.5 -39.45 Q23.05 -38.25 21.8 -37.2 21.45 -36.95 21.05 -37.0 L18.25 -37.6 17.7 -37.85 16.1 -38.1 8.6 -37.9 Q4.0 -37.8 -0.3 -39.55 -5.05 -41.5 -8.55 -45.1 -9.45 -46.05 -9.95 -47.2 -10.95 -48.15 -10.6 -49.75 -10.4 -50.5 -9.75 -50.85 L-8.85 -51.3 Q-9.35 -51.5 -9.6 -52.25 L-10.4 -54.6 Q-11.1 -57.35 -10.85 -60.25 L-10.85 -60.4 -10.85 -60.5 Q-10.2 -64.85 -7.1 -67.95 L-6.4 -68.65 -6.25 -68.75 -6.15 -68.8 -5.0 -69.85 -4.95 -69.9 0.15 -73.35 0.8 -73.85 3.35 -75.75 4.6 -77.0 4.7 -76.95 4.7 -76.9 4.8 -76.9 Q6.1 -73.95 9.35 -73.25 L9.5 -73.3 9.7 -73.4 9.8 -73.4 9.9 -73.35 10.05 -73.15 10.15 -73.1 10.1 -73.0 10.05 -72.85 9.7 -72.85 6.4 -71.2 10.5 -72.2 10.75 -72.3 10.9 -72.3 Q11.95 -70.9 13.8 -71.0 L14.0 -70.75 14.0 -70.7 13.95 -70.55 13.85 -70.35 Q11.45 -70.05 9.2 -69.25 L9.0 -69.2 9.95 -68.8 Q14.1 -66.45 15.25 -62.1 L15.65 -61.2 15.65 -61.1 Q16.1 -58.35 15.75 -55.65 L15.65 -54.25 15.5 -54.2 15.15 -52.7 15.65 -52.15 15.7 -52.1 15.7 -52.0 15.75 -51.95 15.75 -51.8 15.75 -51.75 15.1 -52.05 14.95 -52.15 14.85 -51.8 14.7 -51.4 14.5 -50.95 13.05 -48.85 13.05 -48.7 13.1 -48.65 13.1 -48.3 13.0 -47.75 Q15.5 -45.85 18.65 -45.3 L22.1 -45.3 23.75 -45.0 23.95 -44.9 M0.9 -43.1 L1.1 -43.0 3.1 -42.2 Q7.5 -40.7 12.45 -41.2 L16.95 -41.8 Q19.35 -42.2 21.75 -41.8 L22.25 -41.2 20.8 -41.25 22.15 -40.2 Q22.15 -40.15 22.25 -40.15 L22.3 -40.0 Q24.25 -40.3 24.9 -42.1 25.4 -43.55 23.8 -44.05 L21.7 -44.6 21.5 -44.65 18.8 -44.65 18.35 -44.6 Q16.35 -44.4 14.5 -43.6 L13.1 -43.75 Q14.8 -44.55 16.6 -44.95 14.2 -45.85 12.3 -47.4 11.8 -47.85 11.65 -48.45 L11.8 -48.6 11.95 -48.65 12.45 -48.2 12.45 -48.4 12.2 -48.7 12.3 -48.8 12.1 -49.2 11.65 -49.35 11.5 -49.35 11.4 -49.4 5.45 -49.1 4.8 -48.8 3.9 -48.45 3.85 -48.4 Q-0.2 -47.0 -3.8 -49.6 -5.4 -50.8 -7.35 -50.95 L-7.4 -50.9 -7.45 -50.85 -7.55 -50.8 Q-8.5 -50.95 -9.3 -50.4 L-10.1 -49.65 -10.1 -49.5 -10.15 -49.1 -10.2 -48.95 Q-10.0 -48.15 -9.4 -47.55 L-9.1 -47.05 -9.1 -47.0 -9.1 -46.95 Q-4.4 -41.0 3.4 -39.1 L12.75 -38.75 Q16.4 -39.25 19.9 -38.0 L20.8 -37.65 21.45 -37.65 21.65 -37.75 21.75 -37.9 21.85 -38.05 21.9 -38.1 Q22.25 -39.05 21.55 -39.8 L21.5 -39.85 20.15 -40.8 19.1 -41.25 18.25 -41.25 12.4 -40.75 10.2 -40.55 Q3.55 -40.25 -2.05 -43.95 -4.35 -45.45 -5.25 -48.05 L-5.5 -48.3 -6.65 -48.0 -7.2 -47.85 -7.25 -47.9 -7.5 -48.15 -7.5 -48.25 Q-6.7 -49.1 -5.5 -49.05 L-4.15 -48.8 Q-2.9 -48.4 -2.7 -47.2 L-2.65 -47.1 -2.75 -47.1 -2.8 -47.05 -2.85 -47.05 -2.95 -47.05 Q-3.75 -48.05 -4.65 -48.25 L-3.85 -46.9 Q-3.35 -45.6 -2.15 -44.85 L0.9 -43.1 M-4.25 -69.45 L-5.45 -68.65 Q-8.95 -65.6 -10.0 -61.0 L-10.25 -58.85 Q-10.3 -54.85 -8.35 -51.4 -6.65 -51.85 -4.85 -50.85 L-1.45 -49.15 -2.0 -49.65 -2.2 -49.9 -2.9 -51.5 -3.0 -51.95 -3.05 -51.95 -3.05 -52.0 -3.3 -55.2 Q-3.15 -57.2 -2.25 -59.2 -1.4 -61.05 -0.05 -62.35 1.7 -64.4 4.4 -64.35 L4.5 -63.95 4.45 -63.9 3.75 -63.75 4.75 -62.7 4.85 -62.7 5.15 -62.35 5.35 -62.1 5.25 -62.1 5.7 -61.3 Q6.7 -59.35 6.55 -56.85 L6.35 -54.85 7.6 -54.5 8.0 -54.15 6.25 -54.15 5.85 -52.25 Q5.45 -50.6 4.6 -49.3 L5.55 -49.65 7.2 -50.2 10.95 -50.3 10.95 -50.35 11.2 -53.55 11.2 -53.65 11.2 -53.7 11.2 -53.75 11.2 -53.8 11.3 -53.85 11.3 -53.9 Q11.65 -55.95 12.55 -57.9 L13.05 -58.95 13.35 -59.5 13.5 -59.75 Q14.05 -60.65 14.9 -60.95 L14.8 -61.25 14.7 -61.4 14.7 -61.5 14.75 -61.55 14.75 -61.6 14.6 -62.2 14.55 -62.3 14.05 -63.5 13.25 -65.15 Q11.0 -68.05 7.5 -69.1 L7.45 -69.15 7.5 -69.25 7.6 -69.3 7.65 -69.35 8.25 -69.35 8.25 -69.4 Q9.65 -70.2 11.3 -70.55 L11.75 -70.7 Q10.95 -70.95 10.65 -71.65 L9.6 -71.1 5.7 -70.65 5.4 -70.75 5.35 -70.75 5.2 -71.0 5.25 -71.05 Q6.65 -72.2 8.4 -72.9 6.55 -73.25 5.05 -74.9 4.55 -75.5 4.45 -76.0 L4.15 -75.7 4.05 -75.65 4.1 -75.6 4.0 -75.45 -4.15 -69.55 -4.25 -69.45 M-0.25 -66.25 Q1.35 -67.6 3.4 -67.4 3.9 -67.3 3.95 -66.8 L3.95 -66.75 3.9 -66.7 3.8 -66.6 3.6 -66.55 Q2.1 -67.1 0.7 -66.05 L0.3 -65.85 -0.3 -64.95 Q-0.65 -64.4 -1.2 -64.3 -1.25 -65.4 -0.25 -66.25 M1.25 -54.2 L1.4 -54.2 1.5 -54.2 2.75 -54.55 3.45 -54.75 5.3 -55.05 5.55 -55.1 5.6 -55.15 5.7 -55.2 5.75 -55.35 5.7 -55.45 5.75 -55.65 5.85 -57.15 5.8 -57.85 5.25 -60.35 4.9 -61.3 4.5 -62.1 4.45 -62.1 4.0 -62.7 4.05 -62.7 3.65 -63.0 3.6 -63.05 3.05 -63.35 2.95 -63.45 Q0.9 -62.65 -0.45 -61.05 L-0.35 -61.1 -1.05 -60.2 -1.65 -59.1 -1.7 -59.05 -2.25 -57.4 -2.3 -57.2 Q-2.8 -55.45 -2.65 -53.65 L-2.5 -52.6 Q-1.45 -53.35 -0.2 -53.8 L1.25 -54.2 M15.05 -60.3 L15.05 -60.35 14.95 -60.3 14.05 -59.1 13.9 -58.9 13.7 -58.45 13.65 -58.4 13.1 -57.4 12.1 -54.65 12.1 -54.45 12.1 -54.5 12.15 -54.4 12.1 -54.3 13.1 -53.85 13.2 -53.8 14.1 -53.45 14.15 -53.45 14.55 -53.2 14.85 -54.35 15.05 -55.6 15.1 -55.95 15.2 -56.7 15.2 -56.75 15.2 -56.9 15.15 -57.7 15.2 -57.6 15.05 -60.3 M14.05 -51.85 L14.35 -52.65 13.25 -53.05 13.3 -52.3 13.25 -52.15 12.2 -51.9 12.15 -51.9 12.05 -51.85 12.05 -51.8 13.1 -51.2 12.3 -49.8 12.75 -49.4 14.05 -51.85 M2.05 -53.15 L2.3 -53.7 1.3 -53.5 Q-0.65 -53.0 -2.35 -52.0 L-2.1 -51.2 -0.65 -48.9 -0.7 -48.8 0.05 -48.7 2.25 -48.75 Q1.95 -49.05 1.8 -49.6 L1.5 -50.35 1.6 -51.3 4.15 -51.75 4.15 -51.8 4.2 -51.85 4.2 -51.9 Q4.15 -52.1 3.9 -52.1 L1.95 -52.85 2.05 -53.15" fill="#000000" fill-rule="evenodd" stroke="none"/>
    <path d="M5.45 -49.1 L11.4 -49.4 11.5 -49.35 11.65 -49.35 12.1 -49.2 12.3 -48.8 12.2 -48.7 12.45 -48.4 12.45 -48.2 11.95 -48.65 11.8 -48.6 11.65 -48.45 Q11.8 -47.85 12.3 -47.4 14.2 -45.85 16.6 -44.95 14.8 -44.55 13.1 -43.75 L14.5 -43.6 Q16.35 -44.4 18.35 -44.6 L18.8 -44.65 21.5 -44.65 21.7 -44.6 23.8 -44.05 Q25.4 -43.55 24.9 -42.1 24.25 -40.3 22.3 -40.0 L22.25 -40.15 Q22.15 -40.15 22.15 -40.2 L20.8 -41.25 22.25 -41.2 21.75 -41.8 Q19.35 -42.2 16.95 -41.8 L12.45 -41.2 Q7.5 -40.7 3.1 -42.2 L1.1 -43.0 0.9 -43.1 0.9 -43.15 -0.15 -44.1 Q-0.95 -44.95 -0.8 -45.95 L-0.65 -46.3 Q-0.1 -47.1 0.9 -46.95 L2.3 -47.05 3.25 -47.3 Q4.4 -47.6 5.05 -48.6 L5.45 -49.1 M20.15 -40.8 L21.5 -39.85 21.55 -39.8 Q22.25 -39.05 21.9 -38.1 L21.85 -38.05 21.75 -37.9 21.65 -37.75 21.45 -37.65 20.8 -37.65 19.9 -38.0 20.35 -38.65 20.55 -39.3 Q20.65 -40.15 20.15 -40.8" fill="#f07942" fill-rule="evenodd" stroke="none"/>
    <path d="M5.45 -49.1 L5.05 -48.6 Q4.4 -47.6 3.25 -47.3 L2.3 -47.05 0.9 -46.95 Q-0.1 -47.1 -0.65 -46.3 L-0.8 -45.95 Q-0.95 -44.95 -0.15 -44.1 L0.9 -43.15 0.9 -43.1 -2.15 -44.85 Q-3.35 -45.6 -3.85 -46.9 L-4.65 -48.25 Q-3.75 -48.05 -2.95 -47.05 L-2.85 -47.05 -2.8 -47.05 -2.75 -47.1 -2.65 -47.1 -2.7 -47.2 Q-2.9 -48.4 -4.15 -48.8 L-5.5 -49.05 Q-6.7 -49.1 -7.5 -48.25 L-7.5 -48.15 -7.25 -47.9 -7.2 -47.85 -6.65 -48.0 -5.5 -48.3 -5.25 -48.05 Q-4.35 -45.45 -2.05 -43.95 3.55 -40.25 10.2 -40.55 L12.4 -40.75 18.25 -41.25 19.1 -41.25 20.15 -40.8 Q20.65 -40.15 20.55 -39.3 L20.35 -38.65 19.9 -38.0 Q16.4 -39.25 12.75 -38.75 L3.4 -39.1 Q-4.4 -41.0 -9.1 -46.95 L-9.1 -47.0 -9.1 -47.05 -9.4 -47.55 Q-10.0 -48.15 -10.2 -48.95 L-10.15 -49.1 -10.1 -49.5 -10.1 -49.65 -9.3 -50.4 Q-8.5 -50.95 -7.55 -50.8 L-7.45 -50.85 -7.4 -50.9 -7.35 -50.95 Q-5.4 -50.8 -3.8 -49.6 -0.2 -47.0 3.85 -48.4 L3.9 -48.45 4.8 -48.8 5.45 -49.1" fill="#e05512" fill-rule="evenodd" stroke="none"/>
    <path d="M-2.2 -49.9 L-4.6 -51.95 Q-5.2 -52.55 -5.6 -53.3 L-6.1 -54.05 -6.75 -55.25 -7.4 -57.1 -7.55 -58.05 -7.7 -58.9 Q-7.95 -60.1 -7.75 -61.3 -7.25 -64.4 -5.6 -67.2 L-5.05 -68.25 -4.25 -69.45 -4.15 -69.55 4.0 -75.45 4.1 -75.6 4.05 -75.65 4.15 -75.7 4.45 -76.0 Q4.55 -75.5 5.05 -74.9 6.55 -73.25 8.4 -72.9 6.65 -72.2 5.25 -71.05 L5.2 -71.0 5.35 -70.75 5.4 -70.75 5.7 -70.65 9.6 -71.1 10.65 -71.65 Q10.95 -70.95 11.75 -70.7 L11.3 -70.55 Q9.65 -70.2 8.25 -69.4 L8.25 -69.35 7.65 -69.35 7.6 -69.3 7.5 -69.25 7.45 -69.15 7.5 -69.1 Q11.0 -68.05 13.25 -65.15 L14.05 -63.5 14.55 -62.3 14.6 -62.2 14.75 -61.6 14.75 -61.55 14.7 -61.5 14.7 -61.4 14.8 -61.25 14.9 -60.95 Q14.05 -60.65 13.5 -59.75 L13.35 -59.5 13.05 -58.95 12.55 -57.9 Q11.65 -55.95 11.3 -53.9 L11.3 -53.85 11.2 -53.8 11.2 -53.75 11.2 -53.7 11.2 -53.65 11.2 -53.55 10.95 -50.35 10.95 -50.3 7.2 -50.2 5.55 -49.65 4.6 -49.3 Q5.45 -50.6 5.85 -52.25 L6.25 -54.15 8.0 -54.15 7.6 -54.5 6.35 -54.85 6.55 -56.85 Q6.7 -59.35 5.7 -61.3 L5.25 -62.1 5.35 -62.1 5.15 -62.35 4.85 -62.7 4.75 -62.7 3.75 -63.75 4.45 -63.9 4.5 -63.95 4.4 -64.35 Q1.7 -64.4 -0.05 -62.35 -1.4 -61.05 -2.25 -59.2 -3.15 -57.2 -3.3 -55.2 L-3.05 -52.0 -3.05 -51.95 -3.0 -51.95 -2.9 -51.5 -2.2 -49.9 M-2.25 -57.4 L-1.7 -59.05 -1.65 -59.1 -1.05 -60.2 -0.35 -61.1 -0.45 -61.05 Q0.9 -62.65 2.95 -63.45 L3.05 -63.35 3.6 -63.05 3.65 -63.0 4.05 -62.7 4.0 -62.7 4.45 -62.1 4.5 -62.1 4.9 -61.3 5.25 -60.35 5.8 -57.85 5.85 -57.15 5.75 -55.65 5.7 -55.45 5.75 -55.35 5.7 -55.2 5.6 -55.15 5.55 -55.1 5.3 -55.05 3.45 -54.75 2.75 -54.55 1.5 -54.2 1.4 -54.2 1.25 -54.2 1.2 -54.25 -0.2 -53.8 Q-1.45 -53.35 -2.5 -52.6 L-2.65 -53.65 Q-2.8 -55.45 -2.3 -57.2 L-2.25 -57.4 -2.2 -57.35 -2.25 -57.4 M-0.25 -66.25 Q-1.25 -65.4 -1.2 -64.3 -0.65 -64.4 -0.3 -64.95 L0.3 -65.85 0.7 -66.05 Q2.1 -67.1 3.6 -66.55 L3.8 -66.6 3.9 -66.7 3.95 -66.75 3.95 -66.8 Q3.9 -67.3 3.4 -67.4 1.35 -67.6 -0.25 -66.25 M15.05 -60.3 L15.2 -57.6 15.15 -57.7 15.2 -56.9 15.2 -56.75 15.2 -56.7 15.1 -55.95 15.05 -55.6 14.85 -54.35 14.55 -53.2 14.15 -53.45 14.15 -53.5 14.1 -53.45 13.2 -53.8 13.1 -53.85 12.1 -54.3 12.15 -54.4 12.1 -54.5 12.1 -54.55 12.15 -54.65 12.1 -54.65 13.1 -57.4 13.65 -58.4 13.7 -58.4 13.7 -58.45 13.9 -58.9 14.05 -59.1 14.95 -60.3 15.05 -60.3" fill="#55bb65" fill-rule="evenodd" stroke="none"/>
    <path d="M-2.2 -49.9 L-2.0 -49.65 -1.45 -49.15 -4.85 -50.85 Q-6.65 -51.85 -8.35 -51.4 -10.3 -54.85 -10.25 -58.85 L-10.0 -61.0 Q-8.95 -65.6 -5.45 -68.65 L-4.25 -69.45 -5.05 -68.25 -5.6 -67.2 Q-7.25 -64.4 -7.75 -61.3 -7.95 -60.1 -7.7 -58.9 L-7.55 -58.05 -7.4 -57.1 -6.75 -55.25 -6.1 -54.05 -5.6 -53.3 Q-5.2 -52.55 -4.6 -51.95 L-2.2 -49.9" fill="#43a752" fill-rule="evenodd" stroke="none"/>
    <path d="M-2.25 -57.4 L-2.2 -57.35 -2.25 -57.4 M-0.2 -53.8 L1.2 -54.25 1.25 -54.2 -0.2 -53.8 M14.15 -53.45 L14.1 -53.45 14.15 -53.5 14.15 -53.45 M13.2 -53.8 L13.1 -53.85 13.2 -53.8 M12.1 -54.5 L12.1 -54.45 12.1 -54.65 12.15 -54.65 12.1 -54.55 12.1 -54.5 M13.65 -58.4 L13.7 -58.45 13.7 -58.4 13.65 -58.4 M13.3 -52.3 L13.35 -52.3 14.05 -51.85 12.75 -49.4 12.3 -49.8 13.1 -51.2 12.05 -51.8 12.05 -51.85 12.15 -51.9 12.2 -51.9 13.25 -52.15 13.3 -52.3 M-2.1 -51.2 L-1.4 -51.7 0.2 -52.5 2.05 -53.15 1.95 -52.85 3.9 -52.1 Q4.15 -52.1 4.2 -51.9 L4.2 -51.85 4.15 -51.8 4.15 -51.75 1.6 -51.3 1.5 -50.35 1.8 -49.6 Q1.95 -49.05 2.25 -48.75 L0.05 -48.7 -0.7 -48.8 -0.65 -48.9 -2.1 -51.2" fill="#ffffff" fill-rule="evenodd" stroke="none"/>
    <path d="M13.3 -52.3 L13.25 -53.05 14.35 -52.65 14.05 -51.85 13.35 -52.3 13.3 -52.3 M-2.1 -51.2 L-2.35 -52.0 Q-0.65 -53.0 1.3 -53.5 L2.3 -53.7 2.05 -53.15 0.2 -52.5 -1.4 -51.7 -2.1 -51.2" fill="#cccccc" fill-rule="evenodd" stroke="none"/>
  </g>
</svg>
