<?xml version="1.0" encoding="UTF-8" standalone="no"?>
<svg xmlns:xlink="http://www.w3.org/1999/xlink" height="41.65px" width="35.5px" xmlns="http://www.w3.org/2000/svg">
  <g transform="matrix(1.0, 0.0, 0.0, 1.0, 8.7, 74.25)">
    <path d="M25.1 -40.25 L25.3 -40.15 25.4 -40.1 Q27.8 -38.55 26.1 -36.3 25.45 -35.4 24.35 -35.05 L24.25 -35.05 24.1 -35.05 24.05 -35.05 24.0 -35.0 23.95 -34.95 23.65 -34.9 23.25 -34.9 Q23.65 -33.7 22.3 -32.8 L21.5 -32.65 Q20.1 -32.95 18.8 -33.6 L18.25 -33.85 16.7 -34.35 9.25 -35.0 Q4.65 -35.4 0.6 -37.6 -3.9 -40.1 -6.95 -44.05 -7.8 -45.15 -8.15 -46.35 -9.05 -47.4 -8.45 -48.9 -8.2 -49.65 -7.45 -49.95 L-6.55 -50.25 -7.2 -51.35 -7.7 -53.7 Q-8.1 -56.55 -7.5 -59.4 L-7.5 -59.55 -7.5 -59.6 Q-6.35 -63.85 -2.9 -66.6 L-2.1 -67.25 -1.95 -67.3 -1.85 -67.35 -0.65 -68.25 -0.55 -68.3 4.9 -71.15 5.6 -71.55 8.4 -73.15 9.75 -74.25 Q9.75 -74.25 9.85 -74.2 L9.85 -74.15 9.9 -74.15 Q10.85 -71.1 14.0 -70.0 L14.2 -70.05 14.4 -70.1 14.5 -70.1 14.6 -70.05 14.75 -69.8 14.8 -69.8 14.75 -69.65 14.65 -69.55 14.35 -69.55 10.85 -68.3 15.05 -68.8 15.05 -68.85 15.35 -68.9 15.5 -68.9 Q16.35 -67.4 18.15 -67.25 L18.35 -67.0 18.35 -66.9 18.3 -66.75 18.2 -66.6 13.4 -66.05 13.2 -66.0 14.15 -65.55 Q17.95 -62.7 18.6 -58.25 L18.85 -57.3 18.85 -57.25 Q19.0 -54.4 18.35 -51.8 L18.3 -51.5 18.05 -50.4 17.95 -50.4 17.45 -48.95 17.45 -48.9 17.25 -48.4 17.2 -48.45 17.05 -48.1 16.8 -47.65 16.6 -47.25 16.0 -46.4 17.1 -46.15 17.6 -46.2 17.6 -46.05 17.5 -45.95 16.55 -45.6 15.25 -45.65 14.9 -45.35 14.95 -45.2 14.95 -45.15 14.95 -44.75 14.8 -44.25 Q17.05 -42.1 20.05 -41.15 L23.5 -40.8 25.1 -40.25 M2.2 -41.05 L2.4 -40.9 Q3.3 -40.35 4.25 -39.9 8.5 -37.9 13.45 -37.8 L17.95 -37.9 22.75 -37.3 23.15 -36.7 21.75 -36.9 22.95 -35.75 23.05 -35.65 23.1 -35.5 Q25.05 -35.6 25.9 -37.25 26.6 -38.7 25.05 -39.35 L23.05 -40.15 22.8 -40.2 20.15 -40.5 19.7 -40.5 15.7 -40.0 Q14.9 -39.9 14.35 -40.25 16.15 -40.9 18.0 -41.05 15.75 -42.2 14.05 -44.0 13.55 -44.5 13.45 -45.1 L13.65 -45.25 13.85 -45.25 14.25 -44.75 14.25 -45.0 Q14.1 -45.1 14.1 -45.3 L14.2 -45.4 14.0 -45.75 Q13.8 -45.85 13.55 -46.0 L13.45 -46.05 Q13.35 -46.05 13.35 -46.1 L13.3 -46.1 Q10.45 -47.3 7.4 -46.45 L6.75 -46.25 5.8 -46.0 5.7 -45.95 Q1.55 -45.0 -1.7 -48.0 -3.15 -49.4 -5.1 -49.75 L-5.15 -49.7 -5.25 -49.7 -5.3 -49.65 -7.1 -49.45 -8.0 -48.8 -8.0 -48.65 -8.1 -48.25 -8.15 -48.1 Q-8.05 -47.25 -7.5 -46.6 L-7.3 -46.1 -7.3 -46.05 -7.3 -46.0 Q-3.3 -39.55 4.25 -36.75 8.7 -35.15 13.45 -35.35 17.2 -35.45 20.45 -33.8 L21.35 -33.35 22.0 -33.25 22.2 -33.35 22.3 -33.45 22.45 -33.6 22.5 -33.7 Q22.9 -34.6 22.3 -35.4 L22.3 -35.45 21.0 -36.55 20.05 -37.1 19.25 -37.2 13.3 -37.4 11.15 -37.45 Q4.5 -37.9 -0.6 -42.2 -2.75 -43.95 -3.3 -46.6 L-3.6 -46.9 -4.75 -46.7 -5.3 -46.65 -5.35 -46.7 Q-5.55 -46.8 -5.55 -47.0 L-5.55 -47.1 Q-4.7 -47.85 -3.5 -47.65 L-2.2 -47.3 Q-1.0 -46.7 -0.9 -45.5 L-0.9 -45.4 -1.0 -45.4 -1.05 -45.35 -1.1 -45.35 -1.15 -45.4 Q-1.85 -46.45 -2.75 -46.75 -2.3 -46.15 -2.1 -45.35 -1.75 -44.0 -0.65 -43.1 0.7 -41.95 2.2 -41.05 M-0.1 -48.15 L-0.65 -49.8 -0.7 -50.25 -0.7 -50.3 -0.7 -50.35 Q-0.9 -51.95 -0.6 -53.5 -0.25 -55.55 0.9 -57.4 1.95 -59.1 3.45 -60.25 5.45 -62.05 8.05 -61.7 L8.15 -61.3 8.1 -61.3 7.4 -61.2 8.25 -60.1 8.4 -60.05 8.6 -59.65 8.75 -59.35 8.7 -59.4 9.05 -58.55 Q9.85 -56.5 9.35 -54.05 L8.95 -52.05 9.0 -52.0 8.8 -51.4 8.75 -51.4 8.15 -49.55 7.1 -47.5 7.35 -47.55 7.5 -47.35 7.15 -46.9 6.95 -46.85 7.55 -47.05 9.25 -47.35 12.9 -47.1 12.75 -47.6 12.8 -47.65 13.0 -47.75 13.1 -47.7 13.65 -50.25 13.6 -50.3 13.6 -50.35 13.65 -50.4 13.65 -50.45 13.75 -50.55 Q14.35 -52.55 15.45 -54.4 L16.1 -55.35 16.05 -55.35 16.4 -55.9 16.45 -55.85 16.6 -56.1 Q17.25 -56.95 18.1 -57.1 L18.05 -57.45 18.0 -57.6 18.0 -57.7 18.05 -57.75 18.05 -57.8 18.05 -57.85 17.95 -58.4 17.9 -58.5 17.6 -59.75 17.0 -61.5 Q15.1 -64.65 11.7 -66.05 L11.7 -66.15 11.75 -66.25 11.85 -66.3 11.9 -66.35 12.45 -66.25 12.5 -66.3 Q14.0 -66.9 15.65 -67.05 L16.1 -67.15 Q15.35 -67.55 15.15 -68.2 14.8 -67.9 14.05 -67.85 12.05 -67.65 10.1 -67.85 L9.8 -67.95 Q9.65 -68.05 9.65 -68.2 L9.7 -68.3 Q11.25 -69.3 13.05 -69.8 11.25 -70.35 9.95 -72.1 9.5 -72.75 9.5 -73.3 L9.15 -73.05 9.05 -73.0 9.05 -72.95 9.0 -72.8 Q4.7 -70.15 0.2 -67.85 L0.1 -67.8 -1.15 -67.1 Q-5.05 -64.5 -6.6 -60.05 L-7.1 -57.9 Q-7.55 -54.0 -6.05 -50.35 -4.3 -50.55 -2.65 -49.4 L-2.05 -48.95 -2.15 -49.15 Q-2.55 -49.65 -2.45 -50.0 L-2.25 -49.9 Q-1.2 -48.65 0.05 -47.95 L-0.1 -48.15 M0.95 -47.55 L1.0 -47.45 Q3.0 -46.65 5.45 -47.0 L6.1 -47.25 6.4 -47.6 Q7.4 -49.15 7.85 -50.8 8.5 -52.1 8.65 -53.5 L8.8 -54.4 8.85 -55.3 Q8.95 -56.5 8.65 -57.8 L8.0 -59.25 7.9 -59.5 7.5 -60.1 7.6 -60.1 7.2 -60.45 7.15 -60.5 6.65 -60.9 6.55 -61.0 Q4.4 -60.45 2.9 -59.0 L3.0 -59.05 2.25 -58.2 1.5 -57.2 1.45 -57.15 0.7 -55.6 0.65 -55.6 0.6 -55.4 Q-0.05 -53.7 -0.1 -51.9 L-0.1 -50.85 0.0 -50.9 0.05 -50.25 0.0 -50.25 0.15 -49.4 Q0.4 -48.45 0.95 -47.55 M3.7 -64.15 Q5.45 -65.3 7.45 -64.85 7.9 -64.7 7.9 -64.2 L7.85 -64.1 7.75 -64.0 7.6 -63.95 4.6 -63.85 4.25 -63.7 3.5 -62.9 Q3.15 -62.35 2.55 -62.35 2.55 -63.4 3.7 -64.15 M18.2 -56.5 L18.1 -56.5 17.1 -55.4 16.95 -55.2 16.65 -54.8 16.6 -54.8 16.0 -53.85 14.65 -51.2 14.65 -51.1 Q14.0 -49.8 13.8 -48.25 13.75 -47.85 13.85 -47.5 14.35 -46.8 15.2 -46.6 L15.35 -46.55 15.8 -47.05 16.75 -48.9 16.95 -49.55 17.15 -50.05 17.6 -51.5 17.65 -51.8 17.75 -52.15 17.95 -52.85 17.95 -52.9 17.95 -53.1 18.05 -53.85 18.05 -53.8 18.2 -56.5" fill="#000000" fill-rule="evenodd" stroke="none"/>
    <path d="M7.4 -46.45 Q10.45 -47.3 13.3 -46.1 L13.35 -46.1 Q13.35 -46.05 13.45 -46.05 L13.55 -46.0 Q13.8 -45.85 14.0 -45.75 L14.2 -45.4 14.1 -45.3 Q14.1 -45.1 14.25 -45.0 L14.25 -44.75 13.85 -45.25 13.65 -45.25 13.45 -45.1 Q13.55 -44.5 14.05 -44.0 15.75 -42.2 18.0 -41.05 16.15 -40.9 14.35 -40.25 14.9 -39.9 15.7 -40.0 L19.7 -40.5 20.15 -40.5 22.8 -40.2 23.05 -40.15 25.05 -39.35 Q26.6 -38.7 25.9 -37.25 25.05 -35.6 23.1 -35.5 L23.05 -35.65 22.95 -35.75 21.75 -36.9 23.15 -36.7 22.75 -37.3 17.95 -37.9 13.45 -37.8 Q8.5 -37.9 4.25 -39.9 3.3 -40.35 2.4 -40.9 L2.2 -41.05 1.3 -42.15 Q0.55 -43.05 0.85 -44.05 L1.0 -44.35 Q1.6 -45.1 2.65 -44.8 L4.0 -44.75 5.0 -44.9 Q6.15 -45.15 6.95 -46.0 L7.4 -46.45 M21.0 -36.55 L22.3 -35.45 22.3 -35.4 Q22.9 -34.6 22.5 -33.7 L22.45 -33.6 22.3 -33.45 22.2 -33.35 22.0 -33.25 21.35 -33.35 20.45 -33.8 21.0 -34.35 21.3 -35.0 Q21.5 -35.8 21.0 -36.55" fill="#f07942" fill-rule="evenodd" stroke="none"/>
    <path d="M0.1 -67.8 L0.2 -67.85 Q4.7 -70.15 9.0 -72.8 L9.05 -72.95 9.05 -73.0 9.15 -73.05 9.5 -73.3 Q9.5 -72.75 9.95 -72.1 11.25 -70.35 13.05 -69.8 11.25 -69.3 9.7 -68.3 L9.65 -68.2 Q9.65 -68.05 9.8 -67.95 L10.1 -67.85 Q12.05 -67.65 14.05 -67.85 14.8 -67.9 15.15 -68.2 15.35 -67.55 16.1 -67.15 L15.65 -67.05 Q14.0 -66.9 12.5 -66.3 L12.45 -66.25 11.9 -66.35 11.85 -66.3 11.75 -66.25 11.7 -66.15 11.7 -66.05 Q15.1 -64.65 17.0 -61.5 L17.6 -59.75 17.9 -58.5 17.95 -58.4 18.05 -57.85 18.05 -57.8 18.05 -57.75 18.0 -57.7 18.0 -57.6 18.05 -57.45 18.1 -57.1 Q17.25 -56.95 16.6 -56.1 L16.45 -55.85 16.4 -55.9 16.05 -55.35 16.1 -55.35 15.45 -54.4 Q14.35 -52.55 13.75 -50.55 L13.65 -50.45 13.65 -50.4 13.6 -50.35 13.6 -50.3 13.65 -50.25 13.1 -47.7 13.0 -47.75 12.8 -47.65 12.75 -47.6 12.9 -47.1 9.25 -47.35 7.55 -47.05 6.95 -46.85 7.15 -46.9 7.5 -47.35 7.35 -47.55 7.1 -47.5 8.15 -49.55 8.75 -51.4 8.8 -51.4 9.0 -52.0 8.95 -52.05 9.35 -54.05 Q9.85 -56.5 9.05 -58.55 L8.7 -59.4 8.75 -59.35 8.6 -59.65 8.4 -60.05 8.25 -60.1 7.4 -61.2 8.1 -61.3 8.15 -61.3 8.05 -61.7 Q5.45 -62.05 3.45 -60.25 1.95 -59.1 0.9 -57.4 -0.25 -55.55 -0.6 -53.5 -0.9 -51.95 -0.7 -50.35 L-0.7 -50.3 -0.7 -50.25 -0.65 -49.8 -0.1 -48.15 -2.25 -50.45 -3.1 -51.9 -3.5 -52.7 -4.05 -54.0 -4.45 -55.85 -4.55 -56.85 -4.6 -57.7 -4.35 -60.05 Q-3.5 -63.1 -1.5 -65.7 L-0.85 -66.65 0.1 -67.8 M0.7 -55.6 L1.45 -57.15 1.5 -57.2 2.25 -58.2 3.0 -59.05 2.9 -59.0 Q4.4 -60.45 6.55 -61.0 L6.65 -60.9 7.15 -60.5 7.2 -60.45 7.6 -60.1 7.5 -60.1 7.9 -59.5 8.0 -59.25 8.65 -57.8 Q8.95 -56.5 8.85 -55.3 L8.8 -54.4 8.65 -53.5 Q8.5 -52.1 7.85 -50.8 7.4 -49.15 6.4 -47.6 L6.1 -47.25 5.45 -47.0 Q3.0 -46.65 1.0 -47.45 L0.95 -47.55 Q0.4 -48.45 0.2 -49.4 L0.05 -50.25 0.0 -50.9 -0.1 -50.85 -0.1 -51.9 Q-0.05 -53.7 0.6 -55.4 L0.65 -55.6 0.7 -55.55 0.7 -55.6 M3.7 -64.15 Q2.55 -63.4 2.55 -62.35 3.15 -62.35 3.5 -62.9 L4.25 -63.7 4.6 -63.85 7.6 -63.95 7.75 -64.0 7.85 -64.1 7.9 -64.2 Q7.9 -64.7 7.45 -64.85 5.45 -65.3 3.7 -64.15 M18.1 -56.5 L18.2 -56.5 18.05 -53.8 18.05 -53.85 17.95 -53.1 17.95 -52.9 17.95 -52.85 17.75 -52.15 17.65 -51.8 17.6 -51.5 17.15 -50.05 16.95 -49.55 16.75 -48.9 15.8 -47.05 15.35 -46.55 15.2 -46.6 Q14.35 -46.8 13.85 -47.5 13.75 -47.85 13.8 -48.25 14.0 -49.8 14.65 -51.1 L14.65 -51.2 16.0 -53.85 16.6 -54.8 16.65 -54.75 16.65 -54.8 16.95 -55.2 17.1 -55.4 18.1 -56.5" fill="#55bb65" fill-rule="evenodd" stroke="none"/>
    <path d="M0.1 -67.8 L-0.85 -66.65 -1.5 -65.7 Q-3.5 -63.1 -4.35 -60.05 L-4.6 -57.7 -4.55 -56.85 -4.45 -55.85 -4.05 -54.0 -3.5 -52.7 -3.1 -51.9 -2.25 -50.45 -0.1 -48.15 0.05 -47.95 Q-1.2 -48.65 -2.25 -49.9 L-2.45 -50.0 Q-2.55 -49.65 -2.15 -49.15 L-2.05 -48.95 -2.65 -49.4 Q-4.3 -50.55 -6.05 -50.35 -7.55 -54.0 -7.1 -57.9 L-6.6 -60.05 Q-5.05 -64.5 -1.15 -67.1 L0.1 -67.8" fill="#43a752" fill-rule="evenodd" stroke="none"/>
    <path d="M0.7 -55.6 L0.7 -55.55 0.65 -55.6 0.7 -55.6 M0.2 -49.4 Q0.4 -48.45 0.95 -47.55 0.4 -48.45 0.15 -49.4 L0.2 -49.4 M14.65 -51.1 L14.65 -51.2 14.65 -51.1 M16.6 -54.8 L16.65 -54.8 16.65 -54.75 16.6 -54.8" fill="#ffffff" fill-rule="evenodd" stroke="none"/>
    <path d="M7.4 -46.45 L6.95 -46.0 Q6.15 -45.15 5.0 -44.9 L4.0 -44.75 2.65 -44.8 Q1.6 -45.1 1.0 -44.35 L0.85 -44.05 Q0.55 -43.05 1.3 -42.15 L2.2 -41.05 Q0.7 -41.95 -0.65 -43.1 -1.75 -44.0 -2.1 -45.35 -2.3 -46.15 -2.75 -46.75 -1.85 -46.45 -1.15 -45.4 L-1.1 -45.35 -1.05 -45.35 -1.0 -45.4 -0.9 -45.4 -0.9 -45.5 Q-1.0 -46.7 -2.2 -47.3 L-3.5 -47.65 Q-4.7 -47.85 -5.55 -47.1 L-5.55 -47.0 Q-5.55 -46.8 -5.35 -46.7 L-5.3 -46.65 -4.75 -46.7 -3.6 -46.9 -3.3 -46.6 Q-2.75 -43.95 -0.6 -42.2 4.5 -37.9 11.15 -37.45 L13.3 -37.4 19.25 -37.2 20.05 -37.1 21.0 -36.55 Q21.5 -35.8 21.3 -35.0 L21.0 -34.35 20.45 -33.8 Q17.2 -35.45 13.45 -35.35 8.7 -35.15 4.25 -36.75 -3.3 -39.55 -7.3 -46.0 L-7.3 -46.05 -7.3 -46.1 -7.5 -46.6 Q-8.05 -47.25 -8.15 -48.1 L-8.1 -48.25 -8.0 -48.65 -8.0 -48.8 -7.1 -49.45 -5.3 -49.65 -5.25 -49.7 -5.15 -49.7 -5.1 -49.75 Q-3.15 -49.4 -1.7 -48.0 1.55 -45.0 5.7 -45.95 L5.8 -46.0 6.75 -46.25 7.4 -46.45" fill="#e05512" fill-rule="evenodd" stroke="none"/>
    <path d="M0.05 -50.25 L0.2 -49.4 0.15 -49.4 0.0 -50.25 0.05 -50.25" fill="#cccccc" fill-rule="evenodd" stroke="none"/>
  </g>
</svg>
