<?xml version="1.0" encoding="UTF-8" standalone="no"?>
<svg xmlns:xlink="http://www.w3.org/1999/xlink" height="41.65px" width="35.5px" xmlns="http://www.w3.org/2000/svg">
  <g transform="matrix(1.0, 0.0, 0.0, 1.0, 6.15, 74.8)">
    <path d="M27.65 -40.8 L27.85 -40.7 27.95 -40.65 Q30.35 -39.1 28.65 -36.85 28.0 -35.95 26.9 -35.6 L26.8 -35.6 26.65 -35.6 26.6 -35.6 26.55 -35.55 26.5 -35.5 26.2 -35.45 25.8 -35.45 Q26.2 -34.25 24.85 -33.35 L24.05 -33.2 Q22.65 -33.5 21.35 -34.15 L20.8 -34.4 19.25 -34.9 11.8 -35.55 Q7.2 -35.95 3.15 -38.15 -1.35 -40.65 -4.4 -44.6 -5.25 -45.7 -5.6 -46.9 -6.5 -47.95 -5.9 -49.45 -5.65 -50.2 -4.9 -50.5 L-4.0 -50.8 Q-4.45 -51.1 -4.65 -51.9 L-5.15 -54.25 Q-5.55 -57.1 -4.95 -59.95 L-4.95 -60.1 -4.95 -60.15 Q-3.8 -64.4 -0.35 -67.15 L0.45 -67.8 0.6 -67.85 0.7 -67.9 1.9 -68.8 2.0 -68.85 7.45 -71.7 8.15 -72.1 10.95 -73.7 12.3 -74.8 12.4 -74.75 12.4 -74.7 12.45 -74.7 Q13.4 -71.65 16.55 -70.55 L16.75 -70.6 16.95 -70.65 17.05 -70.65 17.15 -70.6 17.3 -70.35 17.35 -70.35 17.3 -70.2 17.2 -70.1 16.9 -70.1 13.4 -68.85 17.6 -69.35 17.6 -69.4 17.9 -69.45 18.05 -69.45 Q18.9 -67.95 20.7 -67.8 L20.9 -67.55 20.9 -67.45 20.85 -67.3 20.75 -67.15 15.95 -66.6 15.75 -66.55 16.7 -66.1 Q20.5 -63.25 21.15 -58.8 L21.4 -57.85 21.4 -57.8 Q21.55 -54.95 20.9 -52.35 L20.85 -52.05 20.6 -50.95 20.5 -50.95 20.0 -49.5 20.0 -49.45 19.8 -48.95 19.75 -49.0 19.6 -48.65 19.35 -48.2 19.15 -47.8 18.55 -46.95 19.65 -46.7 20.15 -46.75 20.15 -46.6 20.05 -46.5 19.1 -46.15 17.8 -46.2 17.45 -45.9 17.5 -45.75 17.5 -45.7 17.5 -45.3 17.35 -44.8 Q19.6 -42.65 22.6 -41.7 L26.05 -41.35 27.65 -40.8 M4.75 -41.6 L4.95 -41.45 Q5.85 -40.9 6.8 -40.45 11.05 -38.45 16.0 -38.35 L20.5 -38.45 Q23.0 -38.6 25.3 -37.85 L25.7 -37.25 24.3 -37.45 25.5 -36.3 25.6 -36.2 25.65 -36.05 Q27.6 -36.15 28.45 -37.8 29.15 -39.25 27.6 -39.9 L25.6 -40.7 25.35 -40.75 22.7 -41.05 22.25 -41.05 18.25 -40.55 Q17.45 -40.45 16.9 -40.8 L20.55 -41.6 Q18.3 -42.75 16.6 -44.55 16.1 -45.05 16.0 -45.65 L16.2 -45.8 16.4 -45.8 16.8 -45.3 16.8 -45.55 Q16.65 -45.65 16.65 -45.85 L16.75 -45.95 16.55 -46.3 16.1 -46.55 16.0 -46.6 15.9 -46.65 15.85 -46.65 Q13.0 -47.85 9.95 -47.0 L9.3 -46.8 8.35 -46.55 8.25 -46.5 Q4.1 -45.55 0.85 -48.55 -0.6 -49.95 -2.55 -50.3 L-2.6 -50.25 -2.7 -50.25 -2.75 -50.2 -4.55 -50.0 -5.45 -49.35 -5.45 -49.2 -5.55 -48.8 -5.6 -48.65 Q-5.5 -47.8 -4.95 -47.15 L-4.75 -46.65 -4.75 -46.6 -4.75 -46.55 Q-0.75 -40.1 6.8 -37.3 11.25 -35.7 16.0 -35.9 19.75 -36.0 23.0 -34.35 L23.9 -33.9 24.55 -33.8 24.75 -33.9 24.85 -34.0 25.0 -34.15 25.05 -34.25 Q25.45 -35.15 24.85 -35.95 L24.85 -36.0 23.55 -37.1 22.6 -37.65 21.8 -37.75 15.85 -37.95 13.7 -38.0 Q7.05 -38.45 1.95 -42.75 -0.2 -44.5 -0.75 -47.15 L-1.05 -47.45 -2.2 -47.25 -2.75 -47.2 -2.8 -47.25 -3.0 -47.55 -3.0 -47.65 Q-2.15 -48.4 -0.95 -48.2 L0.35 -47.85 Q1.55 -47.25 1.65 -46.05 L1.65 -45.95 1.55 -45.95 1.5 -45.9 1.45 -45.9 1.4 -45.95 Q0.7 -47.0 -0.2 -47.3 L0.45 -45.9 Q0.8 -44.55 1.9 -43.65 3.25 -42.5 4.75 -41.6 M2.45 -48.7 Q2.05 -49.4 1.9 -50.35 L1.85 -50.8 1.85 -50.85 1.85 -50.9 Q1.65 -52.5 1.95 -54.05 2.3 -56.1 3.45 -57.95 4.5 -59.65 6.0 -60.8 8.0 -62.6 10.6 -62.25 L10.7 -61.85 10.65 -61.85 9.95 -61.75 10.8 -60.65 10.95 -60.6 11.15 -60.2 11.3 -59.9 11.25 -59.95 11.6 -59.1 Q12.4 -57.05 11.9 -54.6 L11.5 -52.6 11.55 -52.55 11.35 -51.95 11.3 -51.95 10.7 -50.1 9.65 -48.05 9.9 -48.1 10.05 -47.9 9.7 -47.45 9.5 -47.4 10.1 -47.6 11.8 -47.9 15.45 -47.65 15.3 -48.15 15.35 -48.2 15.55 -48.3 15.65 -48.25 16.2 -50.8 16.15 -50.85 16.15 -50.9 16.2 -50.95 16.2 -51.0 16.3 -51.1 Q16.9 -53.1 18.0 -54.95 L18.65 -55.9 18.6 -55.9 18.95 -56.45 19.0 -56.4 19.15 -56.65 Q19.8 -57.5 20.65 -57.65 L20.6 -58.0 20.55 -58.15 20.55 -58.25 20.6 -58.3 20.6 -58.35 20.6 -58.4 20.5 -58.95 20.45 -59.05 20.15 -60.3 19.55 -62.05 Q17.65 -65.2 14.25 -66.6 L14.25 -66.7 14.3 -66.8 14.4 -66.85 14.45 -66.9 15.0 -66.8 15.05 -66.85 18.2 -67.6 18.65 -67.7 Q17.9 -68.1 17.7 -68.75 17.35 -68.45 16.6 -68.4 14.6 -68.2 12.65 -68.4 L12.35 -68.5 12.2 -68.75 12.25 -68.85 Q13.8 -69.85 15.6 -70.35 13.8 -70.9 12.5 -72.65 12.05 -73.3 12.05 -73.85 L11.7 -73.6 11.6 -73.55 11.6 -73.5 11.55 -73.35 Q7.25 -70.7 2.75 -68.4 L2.65 -68.35 1.4 -67.65 Q-2.5 -65.05 -4.05 -60.6 L-4.55 -58.45 Q-5.0 -54.55 -3.5 -50.9 -1.75 -51.1 -0.1 -49.95 L0.5 -49.5 0.4 -49.7 Q0.0 -50.2 0.1 -50.55 L0.3 -50.45 Q1.35 -49.2 2.6 -48.5 L2.45 -48.7 M3.5 -48.1 L3.55 -48.0 Q5.55 -47.2 8.0 -47.55 L8.65 -47.8 8.95 -48.15 Q9.95 -49.7 10.4 -51.35 11.05 -52.65 11.2 -54.05 L11.35 -54.95 11.4 -55.85 Q11.5 -57.05 11.2 -58.35 L10.55 -59.8 10.45 -60.05 10.05 -60.65 10.15 -60.65 9.75 -61.0 9.7 -61.05 9.2 -61.45 9.1 -61.55 Q6.95 -61.0 5.45 -59.55 L5.55 -59.6 4.8 -58.75 4.05 -57.75 4.0 -57.7 3.25 -56.15 3.2 -56.15 3.15 -55.95 Q2.5 -54.25 2.45 -52.45 L2.45 -51.4 2.55 -51.45 2.6 -50.8 2.55 -50.8 2.7 -49.95 Q2.95 -49.0 3.5 -48.1 M6.25 -64.7 Q8.0 -65.85 10.0 -65.4 L10.45 -64.75 10.4 -64.65 10.3 -64.55 10.15 -64.5 7.15 -64.4 6.8 -64.25 6.05 -63.45 Q5.7 -62.9 5.1 -62.9 5.1 -63.95 6.25 -64.7 M20.75 -57.05 L20.65 -57.05 19.65 -55.95 19.5 -55.75 19.2 -55.35 19.15 -55.35 18.55 -54.4 17.2 -51.75 17.2 -51.65 Q16.55 -50.35 16.35 -48.8 16.3 -48.4 16.4 -48.05 16.9 -47.35 17.75 -47.15 L17.9 -47.1 18.35 -47.6 19.3 -49.45 19.5 -50.1 19.7 -50.6 20.15 -52.05 20.2 -52.35 20.3 -52.7 20.5 -53.4 20.5 -53.45 20.5 -53.65 20.6 -54.4 20.6 -54.35 20.75 -57.05" fill="#000000" fill-rule="evenodd" stroke="none"/>
    <path d="M9.95 -47.0 Q13.0 -47.85 15.85 -46.65 L15.9 -46.65 16.0 -46.6 16.1 -46.55 16.55 -46.3 16.75 -45.95 16.65 -45.85 Q16.65 -45.65 16.8 -45.55 L16.8 -45.3 16.4 -45.8 16.2 -45.8 16.0 -45.65 Q16.1 -45.05 16.6 -44.55 18.3 -42.75 20.55 -41.6 L16.9 -40.8 Q17.45 -40.45 18.25 -40.55 L22.25 -41.05 22.7 -41.05 25.35 -40.75 25.6 -40.7 27.6 -39.9 Q29.15 -39.25 28.45 -37.8 27.6 -36.15 25.65 -36.05 L25.6 -36.2 25.5 -36.3 24.3 -37.45 25.7 -37.25 25.3 -37.85 Q23.0 -38.6 20.5 -38.45 L16.0 -38.35 Q11.05 -38.45 6.8 -40.45 5.85 -40.9 4.95 -41.45 L4.75 -41.6 3.85 -42.7 Q3.1 -43.6 3.4 -44.6 L3.55 -44.9 Q4.15 -45.65 5.2 -45.35 L6.55 -45.3 7.55 -45.45 Q8.7 -45.7 9.5 -46.55 L9.95 -47.0 M23.55 -37.1 L24.85 -36.0 24.85 -35.95 Q25.45 -35.15 25.05 -34.25 L25.0 -34.15 24.85 -34.0 24.75 -33.9 24.55 -33.8 23.9 -33.9 23.0 -34.35 23.55 -34.9 23.85 -35.55 Q24.05 -36.35 23.55 -37.1" fill="#f07942" fill-rule="evenodd" stroke="none"/>
    <path d="M2.65 -68.35 L2.75 -68.4 Q7.25 -70.7 11.55 -73.35 L11.6 -73.5 11.6 -73.55 11.7 -73.6 12.05 -73.85 Q12.05 -73.3 12.5 -72.65 13.8 -70.9 15.6 -70.35 13.8 -69.85 12.25 -68.85 L12.2 -68.75 12.35 -68.5 12.65 -68.4 Q14.6 -68.2 16.6 -68.4 17.35 -68.45 17.7 -68.75 17.9 -68.1 18.65 -67.7 L18.2 -67.6 15.05 -66.85 15.0 -66.8 14.45 -66.9 14.4 -66.85 14.3 -66.8 14.25 -66.7 14.25 -66.6 Q17.65 -65.2 19.55 -62.05 L20.15 -60.3 20.45 -59.05 20.5 -58.95 20.6 -58.4 20.6 -58.35 20.6 -58.3 20.55 -58.25 20.55 -58.15 20.6 -58.0 20.65 -57.65 Q19.8 -57.5 19.15 -56.65 L19.0 -56.4 18.95 -56.45 18.6 -55.9 18.65 -55.9 18.0 -54.95 Q16.9 -53.1 16.3 -51.1 L16.2 -51.0 16.2 -50.95 16.15 -50.9 16.15 -50.85 16.2 -50.8 15.65 -48.25 15.55 -48.3 15.35 -48.2 15.3 -48.15 15.45 -47.65 11.8 -47.9 10.1 -47.6 9.5 -47.4 9.7 -47.45 10.05 -47.9 9.9 -48.1 9.65 -48.05 10.7 -50.1 11.3 -51.95 11.35 -51.95 11.55 -52.55 11.5 -52.6 11.9 -54.6 Q12.4 -57.05 11.6 -59.1 L11.25 -59.95 11.3 -59.9 11.15 -60.2 10.95 -60.6 10.8 -60.65 9.95 -61.75 10.65 -61.85 10.7 -61.85 10.6 -62.25 Q8.0 -62.6 6.0 -60.8 4.5 -59.65 3.45 -57.95 2.3 -56.1 1.95 -54.05 1.65 -52.5 1.85 -50.9 L1.85 -50.85 1.85 -50.8 1.9 -50.35 Q2.05 -49.4 2.45 -48.7 L0.3 -51.0 -0.55 -52.45 -0.95 -53.25 -1.5 -54.55 -1.9 -56.4 -2.0 -57.4 -2.05 -58.25 -1.8 -60.6 Q-0.95 -63.65 1.05 -66.25 L1.7 -67.2 2.65 -68.35 M3.25 -56.15 L4.0 -57.7 4.05 -57.75 4.8 -58.75 5.55 -59.6 5.45 -59.55 Q6.95 -61.0 9.1 -61.55 L9.2 -61.45 9.7 -61.05 9.75 -61.0 10.15 -60.65 10.05 -60.65 10.45 -60.05 10.55 -59.8 11.2 -58.35 Q11.5 -57.05 11.4 -55.85 L11.35 -54.95 11.2 -54.05 Q11.05 -52.65 10.4 -51.35 9.95 -49.7 8.95 -48.15 L8.65 -47.8 8.0 -47.55 Q5.55 -47.2 3.55 -48.0 L3.5 -48.1 Q2.95 -49.0 2.75 -49.95 L2.6 -50.8 2.55 -51.45 2.45 -51.4 2.45 -52.45 Q2.5 -54.25 3.15 -55.95 L3.2 -56.15 3.25 -56.1 3.25 -56.15 M6.25 -64.7 Q5.1 -63.95 5.1 -62.9 5.7 -62.9 6.05 -63.45 L6.8 -64.25 7.15 -64.4 10.15 -64.5 10.3 -64.55 10.4 -64.65 10.45 -64.75 10.0 -65.4 Q8.0 -65.85 6.25 -64.7 M20.65 -57.05 L20.75 -57.05 20.6 -54.35 20.6 -54.4 20.5 -53.65 20.5 -53.45 20.5 -53.4 20.3 -52.7 20.2 -52.35 20.15 -52.05 19.7 -50.6 19.5 -50.1 19.3 -49.45 18.35 -47.6 17.9 -47.1 17.75 -47.15 Q16.9 -47.35 16.4 -48.05 16.3 -48.4 16.35 -48.8 16.55 -50.35 17.2 -51.65 L17.2 -51.75 18.55 -54.4 19.15 -55.35 19.2 -55.3 19.2 -55.35 19.5 -55.75 19.65 -55.95 20.65 -57.05" fill="#55bb65" fill-rule="evenodd" stroke="none"/>
    <path d="M2.65 -68.35 L1.7 -67.2 1.05 -66.25 Q-0.95 -63.65 -1.8 -60.6 L-2.05 -58.25 -2.0 -57.4 -1.9 -56.4 -1.5 -54.55 -0.95 -53.25 -0.55 -52.45 0.3 -51.0 2.45 -48.7 2.6 -48.5 Q1.35 -49.2 0.3 -50.45 L0.1 -50.55 Q0.0 -50.2 0.4 -49.7 L0.5 -49.5 -0.1 -49.95 Q-1.75 -51.1 -3.5 -50.9 -5.0 -54.55 -4.55 -58.45 L-4.05 -60.6 Q-2.5 -65.05 1.4 -67.65 L2.65 -68.35" fill="#43a752" fill-rule="evenodd" stroke="none"/>
    <path d="M3.25 -56.15 L3.25 -56.1 3.2 -56.15 3.25 -56.15 M2.75 -49.95 Q2.95 -49.0 3.5 -48.1 2.95 -49.0 2.7 -49.95 L2.75 -49.95 M17.2 -51.65 L17.2 -51.75 17.2 -51.65 M19.15 -55.35 L19.2 -55.35 19.2 -55.3 19.15 -55.35" fill="#ffffff" fill-rule="evenodd" stroke="none"/>
    <path d="M9.95 -47.0 L9.5 -46.55 Q8.7 -45.7 7.55 -45.45 L6.55 -45.3 5.2 -45.35 Q4.15 -45.65 3.55 -44.9 L3.4 -44.6 Q3.1 -43.6 3.85 -42.7 L4.75 -41.6 Q3.25 -42.5 1.9 -43.65 0.8 -44.55 0.45 -45.9 L-0.2 -47.3 Q0.7 -47.0 1.4 -45.95 L1.45 -45.9 1.5 -45.9 1.55 -45.95 1.65 -45.95 1.65 -46.05 Q1.55 -47.25 0.35 -47.85 L-0.95 -48.2 Q-2.15 -48.4 -3.0 -47.65 L-3.0 -47.55 -2.8 -47.25 -2.75 -47.2 -2.2 -47.25 -1.05 -47.45 -0.75 -47.15 Q-0.2 -44.5 1.95 -42.75 7.05 -38.45 13.7 -38.0 L15.85 -37.95 21.8 -37.75 22.6 -37.65 23.55 -37.1 Q24.05 -36.35 23.85 -35.55 L23.55 -34.9 23.0 -34.35 Q19.75 -36.0 16.0 -35.9 11.25 -35.7 6.8 -37.3 -0.75 -40.1 -4.75 -46.55 L-4.75 -46.6 -4.75 -46.65 -4.95 -47.15 Q-5.5 -47.8 -5.6 -48.65 L-5.55 -48.8 -5.45 -49.2 -5.45 -49.35 -4.55 -50.0 -2.75 -50.2 -2.7 -50.25 -2.6 -50.25 -2.55 -50.3 Q-0.6 -49.95 0.85 -48.55 4.1 -45.55 8.25 -46.5 L8.35 -46.55 9.3 -46.8 9.95 -47.0" fill="#e05512" fill-rule="evenodd" stroke="none"/>
    <path d="M2.6 -50.8 L2.75 -49.95 2.7 -49.95 2.55 -50.8 2.6 -50.8" fill="#cccccc" fill-rule="evenodd" stroke="none"/>
  </g>
</svg>
