<?xml version="1.0" encoding="UTF-8" standalone="no"?>
<svg xmlns:xlink="http://www.w3.org/1999/xlink" height="41.0px" width="35.9px" xmlns="http://www.w3.org/2000/svg">
  <g transform="matrix(1.0, 0.0, 0.0, 1.0, 22.75, 73.95)">
    <path d="M-4.05 -73.95 L-3.95 -73.95 -2.65 -72.85 0.05 -71.05 0.7 -70.65 Q3.3 -69.05 6.05 -67.55 L6.1 -67.5 7.3 -66.5 7.4 -66.45 7.55 -66.4 8.3 -65.7 Q11.6 -62.8 12.55 -58.5 L12.55 -58.45 12.55 -58.3 Q13.0 -55.45 12.45 -52.6 L11.85 -50.25 Q11.6 -49.45 11.15 -49.2 L12.05 -48.85 Q12.75 -48.55 12.95 -47.8 13.45 -46.25 12.55 -45.25 12.1 -44.05 11.25 -43.0 8.0 -39.2 3.4 -36.9 -0.75 -34.9 -5.4 -34.75 L-12.85 -34.45 -14.4 -34.05 -15.0 -33.75 Q-16.35 -33.2 -17.7 -32.95 -18.15 -32.9 -18.5 -33.15 -19.8 -34.1 -19.35 -35.35 L-19.8 -35.35 -20.05 -35.45 -20.15 -35.45 -20.15 -35.5 -20.25 -35.5 -20.35 -35.55 -20.4 -35.5 -20.5 -35.55 Q-21.55 -35.9 -22.15 -36.85 -23.7 -39.15 -21.25 -40.6 L-21.15 -40.65 -20.95 -40.75 -19.3 -41.2 -15.9 -41.4 Q-12.85 -42.2 -10.45 -44.25 L-10.6 -44.75 -10.6 -45.15 -10.55 -45.2 -10.55 -45.35 Q-11.5 -46.2 -12.1 -47.35 L-12.35 -47.75 -12.55 -48.15 -12.7 -48.55 -12.8 -48.4 -13.4 -48.05 -13.4 -48.1 -13.4 -48.25 -13.4 -48.3 -13.35 -48.4 -13.35 -48.45 -12.85 -49.05 -13.35 -50.55 -13.45 -50.55 -13.7 -51.95 Q-14.2 -54.6 -13.9 -57.4 L-13.9 -57.45 -13.6 -58.4 Q-12.75 -62.85 -8.75 -65.45 L-7.85 -65.9 -8.0 -65.95 -12.75 -66.75 -12.9 -66.9 -12.95 -67.05 -12.95 -67.15 -12.75 -67.4 Q-10.9 -67.45 -9.95 -68.9 L-9.8 -68.9 -9.55 -68.85 -9.55 -68.8 -5.35 -68.1 -8.8 -69.5 -9.1 -69.5 -9.2 -69.6 -9.25 -69.75 -9.15 -69.8 -9.05 -70.0 -8.95 -70.05 -8.8 -70.05 -8.6 -70.0 -8.45 -69.95 Q-5.25 -70.85 -4.15 -73.9 L-4.1 -73.9 -4.05 -73.95 M5.35 -67.05 L5.25 -67.1 Q0.85 -69.65 -3.3 -72.5 L-3.35 -72.65 -3.35 -72.7 -3.45 -72.75 -3.75 -73.0 Q-3.8 -72.45 -4.3 -71.85 -5.65 -70.15 -7.5 -69.65 -5.7 -69.05 -4.2 -68.0 L-4.2 -67.95 Q-4.15 -67.75 -4.3 -67.7 L-4.35 -67.7 -4.65 -67.6 -8.6 -67.75 Q-9.3 -67.9 -9.65 -68.2 -9.9 -67.55 -10.7 -67.2 L-10.2 -67.05 -7.1 -66.15 -7.05 -66.1 -6.5 -66.15 -6.45 -66.1 -6.35 -66.05 -6.3 -66.0 -6.35 -65.9 Q-9.8 -64.65 -11.8 -61.55 L-12.5 -59.9 -12.9 -58.65 -12.95 -58.55 -13.05 -57.95 -13.05 -57.9 -13.05 -57.85 -13.0 -57.75 -13.05 -57.55 -13.15 -57.25 Q-12.3 -57.05 -11.7 -56.15 L-11.6 -55.95 -11.55 -55.95 -11.2 -55.4 -10.65 -54.4 Q-9.65 -52.55 -9.1 -50.5 L-9.1 -50.45 -9.05 -50.4 -9.0 -50.35 -9.0 -50.3 -9.0 -50.25 -9.0 -50.15 -8.55 -47.0 -8.55 -46.9 -4.75 -47.1 -3.1 -46.65 -2.15 -46.35 Q-3.1 -47.6 -3.6 -49.2 L-4.1 -51.05 -5.85 -50.95 -5.45 -51.3 -4.25 -51.75 -4.6 -53.75 Q-4.9 -56.25 -4.05 -58.25 L-3.65 -59.05 -3.7 -59.05 -3.55 -59.3 -3.3 -59.7 -3.2 -59.7 -2.25 -60.8 -3.0 -60.95 -3.0 -61.0 -2.9 -61.4 Q-0.25 -61.6 1.65 -59.65 3.05 -58.45 4.05 -56.7 5.1 -54.75 5.35 -52.75 L5.3 -49.55 5.3 -49.5 5.2 -49.0 4.6 -47.4 4.4 -47.15 3.95 -46.6 7.2 -48.55 Q8.95 -49.6 10.65 -49.3 12.35 -52.9 12.05 -56.85 L11.65 -59.0 Q10.3 -63.5 6.6 -66.35 L5.35 -67.05 M4.15 -54.9 L3.45 -56.5 2.75 -57.55 2.05 -58.45 Q2.05 -58.4 2.15 -58.4 0.7 -59.95 -1.4 -60.6 L-1.55 -60.5 -2.05 -60.1 -2.1 -60.05 -2.5 -59.75 -2.4 -59.75 -2.8 -59.15 -2.85 -59.15 -3.25 -58.3 -3.55 -57.35 -3.9 -54.8 -3.9 -54.05 -3.7 -52.6 -3.65 -52.4 -3.7 -52.35 -3.65 -52.15 -3.5 -52.1 -3.5 -52.05 -3.2 -52.0 -1.35 -51.85 -0.6 -51.7 0.6 -51.45 0.7 -51.45 0.85 -51.5 2.35 -51.1 Q3.65 -50.8 4.75 -50.1 L4.8 -51.15 Q4.85 -52.95 4.25 -54.7 L4.2 -54.85 4.15 -54.9 M-2.6 -63.85 Q-2.6 -64.35 -2.15 -64.45 -0.1 -64.8 1.6 -63.55 2.65 -62.75 2.65 -61.7 2.05 -61.75 1.7 -62.3 L1.05 -63.15 0.65 -63.35 Q-0.85 -64.3 -2.3 -63.6 L-2.5 -63.65 -2.6 -63.75 -2.6 -63.8 -2.6 -63.85 M-3.0 -46.1 Q-6.0 -47.1 -8.9 -46.0 L-8.95 -46.0 -9.0 -45.95 -9.15 -45.9 -9.6 -45.7 -9.8 -45.35 -9.7 -45.25 -9.9 -44.95 -9.9 -44.7 -9.45 -45.2 -9.25 -45.15 -9.1 -45.05 Q-9.2 -44.45 -9.7 -43.95 -11.55 -42.25 -13.85 -41.2 L-10.2 -40.25 -11.6 -40.05 Q-13.55 -40.7 -15.5 -40.75 L-16.0 -40.8 -18.7 -40.6 -18.9 -40.55 -20.95 -39.85 Q-22.55 -39.25 -21.9 -37.8 -21.15 -36.1 -19.2 -35.9 L-19.15 -36.05 -19.05 -36.15 -17.75 -37.25 -19.2 -37.1 -18.75 -37.7 -13.95 -38.05 -9.45 -37.75 Q-4.45 -37.6 -0.15 -39.35 L1.75 -40.3 2.0 -40.4 4.9 -42.3 Q6.0 -43.15 6.45 -44.5 L7.15 -45.9 Q6.25 -45.6 5.55 -44.6 L5.45 -44.55 5.4 -44.55 5.35 -44.6 5.25 -44.65 5.25 -44.7 Q5.4 -45.95 6.65 -46.45 L7.95 -46.75 Q9.15 -46.9 10.0 -46.1 L10.0 -46.0 9.8 -45.7 9.7 -45.65 9.2 -45.75 8.0 -46.0 7.75 -45.7 Q7.05 -43.1 4.85 -41.45 -0.5 -37.4 -7.15 -37.25 L-9.35 -37.3 Q-12.3 -37.55 -15.25 -37.4 L-16.05 -37.4 -17.1 -36.85 -18.35 -35.8 -18.4 -35.75 Q-19.05 -34.95 -18.7 -34.05 L-18.6 -33.95 -18.5 -33.8 -18.4 -33.7 -18.2 -33.6 -17.55 -33.65 -16.65 -34.1 Q-13.3 -35.55 -9.6 -35.3 -4.8 -34.9 -0.3 -36.25 7.35 -38.65 11.7 -44.9 L11.7 -44.95 11.7 -45.0 11.95 -45.5 12.6 -47.0 12.6 -47.15 12.5 -47.5 12.5 -47.65 11.65 -48.4 Q10.8 -48.9 9.85 -48.65 L9.8 -48.7 9.75 -48.75 9.65 -48.8 Q7.7 -48.55 6.2 -47.2 2.8 -44.35 -1.3 -45.5 L-1.4 -45.5 -1.4 -45.55 -2.3 -45.85 -3.0 -46.1 M4.4 -48.65 L4.65 -49.5 Q2.85 -50.4 0.9 -50.75 L-0.1 -50.85 0.15 -50.35 0.25 -50.05 -1.6 -49.2 -1.95 -48.95 -1.9 -48.9 -1.85 -48.85 -1.85 -48.8 0.7 -48.55 0.85 -47.6 0.65 -46.85 0.25 -45.95 2.4 -46.05 3.15 -46.2 3.1 -46.3 Q4.0 -47.4 4.4 -48.65 M-13.15 -56.65 L-13.25 -56.7 -13.25 -56.65 -13.25 -53.95 -13.25 -54.0 -13.2 -53.2 -13.2 -53.05 -13.2 -53.0 -13.05 -52.25 -12.95 -51.9 -12.7 -50.7 -12.3 -49.55 -11.9 -49.85 -11.0 -50.3 -10.9 -50.3 -10.9 -50.35 -9.95 -50.85 -10.0 -50.9 -10.0 -51.0 -9.95 -51.0 -10.0 -51.15 -11.15 -53.9 -11.75 -54.85 -11.8 -54.9 -11.8 -54.85 -12.05 -55.3 -12.2 -55.45 -12.2 -55.5 -13.15 -56.65 M-11.75 -48.25 L-10.25 -45.9 -9.9 -46.3 -10.75 -47.65 -9.75 -48.35 -9.75 -48.4 -9.85 -48.45 -9.9 -48.45 -11.0 -48.6 -11.0 -48.75 -11.0 -49.55 -12.1 -49.05 -11.75 -48.25" fill="#000000" fill-rule="evenodd" stroke="none"/>
    <path d="M-8.55 -47.0 L-9.0 -50.15 -9.0 -50.25 -9.0 -50.3 -9.0 -50.35 -9.05 -50.4 -9.1 -50.45 -9.1 -50.5 Q-9.65 -52.55 -10.65 -54.4 L-11.2 -55.4 -11.55 -55.95 -11.6 -55.95 -11.7 -56.15 Q-12.3 -57.05 -13.15 -57.25 L-13.05 -57.55 -13.0 -57.75 -13.05 -57.85 -13.05 -57.9 -13.05 -57.95 -12.95 -58.55 -12.9 -58.65 -12.5 -59.9 -11.8 -61.55 Q-9.8 -64.65 -6.35 -65.9 L-6.3 -66.0 -6.35 -66.05 -6.45 -66.1 -6.5 -66.15 -7.05 -66.1 -7.1 -66.15 -10.2 -67.05 -10.7 -67.2 Q-9.9 -67.55 -9.65 -68.2 -9.3 -67.9 -8.6 -67.75 L-4.65 -67.6 -4.35 -67.7 -4.3 -67.7 Q-4.15 -67.75 -4.2 -67.95 L-4.2 -68.0 Q-5.7 -69.05 -7.5 -69.65 -5.65 -70.15 -4.3 -71.85 -3.8 -72.45 -3.75 -73.0 L-3.45 -72.75 -3.35 -72.7 -3.35 -72.65 -3.3 -72.5 Q0.85 -69.65 5.25 -67.1 L5.35 -67.05 6.25 -65.85 6.85 -64.85 Q8.65 -62.2 9.4 -59.1 9.7 -57.95 9.5 -56.75 L9.45 -55.85 9.35 -54.9 8.8 -53.05 8.2 -51.8 7.75 -51.0 6.9 -49.6 4.6 -47.4 5.2 -49.0 5.3 -49.5 5.3 -49.55 5.35 -52.75 Q5.1 -54.75 4.05 -56.7 3.05 -58.45 1.65 -59.65 -0.25 -61.6 -2.9 -61.4 L-3.0 -61.0 -3.0 -60.95 -2.25 -60.8 -3.2 -59.7 -3.3 -59.7 -3.55 -59.3 -3.7 -59.05 -3.65 -59.05 -4.05 -58.25 Q-4.9 -56.25 -4.6 -53.75 L-4.25 -51.75 -5.45 -51.3 -5.85 -50.95 -4.1 -51.05 -3.6 -49.2 Q-3.1 -47.6 -2.15 -46.35 L-3.1 -46.65 -4.75 -47.1 -8.55 -46.9 -8.55 -47.0 M-2.6 -63.85 L-2.6 -63.8 -2.6 -63.75 -2.5 -63.65 -2.3 -63.6 Q-0.85 -64.3 0.65 -63.35 L1.05 -63.15 1.7 -62.3 Q2.05 -61.75 2.65 -61.7 2.65 -62.75 1.6 -63.55 -0.1 -64.8 -2.15 -64.45 -2.6 -64.35 -2.6 -63.85 M0.85 -51.5 L0.7 -51.45 0.6 -51.45 -0.6 -51.7 -1.35 -51.85 -3.2 -52.0 -3.5 -52.05 -3.5 -52.1 -3.65 -52.15 -3.7 -52.35 -3.65 -52.4 -3.7 -52.6 -3.9 -54.05 -3.9 -54.8 -3.55 -57.35 -3.25 -58.3 -2.85 -59.15 -2.8 -59.15 -2.4 -59.75 -2.5 -59.75 -2.1 -60.05 -2.05 -60.1 -1.55 -60.5 -1.4 -60.6 Q0.7 -59.95 2.15 -58.4 2.05 -58.4 2.05 -58.45 L2.75 -57.55 3.45 -56.5 4.15 -54.9 4.15 -54.85 4.2 -54.85 4.25 -54.7 Q4.85 -52.95 4.8 -51.15 L4.75 -50.1 Q3.65 -50.8 2.35 -51.1 L2.35 -51.15 0.9 -51.55 0.85 -51.5 M-13.25 -56.65 L-13.15 -56.65 -12.2 -55.5 -12.2 -55.45 -12.05 -55.3 -11.8 -54.85 -11.75 -54.85 -11.15 -53.9 -10.0 -51.15 -10.0 -51.05 -10.0 -51.0 -10.0 -50.9 -9.95 -50.85 -10.9 -50.35 -11.0 -50.3 -11.9 -49.85 -12.3 -49.55 -12.7 -50.7 -12.95 -51.9 -13.05 -52.25 -13.2 -53.0 -13.2 -53.05 -13.2 -53.2 -13.25 -54.0 -13.25 -53.95 -13.25 -56.65 M-11.9 -49.85 L-11.95 -49.85 -11.9 -49.85" fill="#55bb65" fill-rule="evenodd" stroke="none"/>
    <path d="M5.35 -67.05 L6.6 -66.35 Q10.3 -63.5 11.65 -59.0 L12.05 -56.85 Q12.35 -52.9 10.65 -49.3 8.95 -49.6 7.2 -48.55 L3.95 -46.6 4.4 -47.15 4.6 -47.4 6.9 -49.6 7.75 -51.0 8.2 -51.8 8.8 -53.05 9.35 -54.9 9.45 -55.85 9.5 -56.75 Q9.7 -57.95 9.4 -59.1 8.65 -62.2 6.85 -64.85 L6.25 -65.85 5.35 -67.05" fill="#43a752" fill-rule="evenodd" stroke="none"/>
    <path d="M2.0 -40.4 L1.75 -40.3 -0.15 -39.35 Q-4.45 -37.6 -9.45 -37.75 L-13.95 -38.05 -18.75 -37.7 -19.2 -37.1 -17.75 -37.25 -19.05 -36.15 -19.15 -36.05 -19.2 -35.9 Q-21.15 -36.1 -21.9 -37.8 -22.55 -39.25 -20.95 -39.85 L-18.9 -40.55 -18.7 -40.6 -16.0 -40.8 -15.5 -40.75 Q-13.55 -40.7 -11.6 -40.05 L-10.2 -40.25 -13.85 -41.2 Q-11.55 -42.25 -9.7 -43.95 -9.2 -44.45 -9.1 -45.05 L-9.25 -45.15 -9.45 -45.2 -9.9 -44.7 -9.9 -44.95 -9.7 -45.25 -9.8 -45.35 -9.6 -45.7 -9.15 -45.9 -9.0 -45.95 -8.95 -46.0 -8.9 -46.0 Q-6.0 -47.1 -3.0 -46.1 L-2.55 -45.6 Q-1.85 -44.7 -0.65 -44.4 L0.3 -44.25 1.7 -44.25 Q2.7 -44.45 3.3 -43.65 L3.45 -43.35 Q3.7 -42.35 2.95 -41.45 L1.95 -40.45 2.0 -40.4 M-16.65 -34.1 L-17.55 -33.65 -18.2 -33.6 -18.4 -33.7 -18.5 -33.8 -18.6 -33.95 -18.7 -34.05 Q-19.05 -34.95 -18.4 -35.75 L-18.35 -35.8 -17.1 -36.85 Q-17.6 -36.15 -17.4 -35.3 L-17.15 -34.65 -16.65 -34.1" fill="#f07942" fill-rule="evenodd" stroke="none"/>
    <path d="M-3.0 -46.1 L-2.3 -45.85 -1.4 -45.55 -1.4 -45.5 -1.3 -45.5 Q2.8 -44.35 6.2 -47.2 7.7 -48.55 9.65 -48.8 L9.75 -48.75 9.8 -48.7 9.85 -48.65 Q10.8 -48.9 11.65 -48.4 L12.5 -47.65 12.5 -47.5 12.6 -47.15 12.6 -47.0 11.95 -45.5 11.7 -45.0 11.7 -44.95 11.7 -44.9 Q7.35 -38.65 -0.3 -36.25 -4.8 -34.9 -9.6 -35.3 -13.3 -35.55 -16.65 -34.1 L-17.15 -34.65 -17.4 -35.3 Q-17.6 -36.15 -17.1 -36.85 L-16.05 -37.4 -15.25 -37.4 Q-12.3 -37.55 -9.35 -37.3 L-7.15 -37.25 Q-0.5 -37.4 4.85 -41.45 7.05 -43.1 7.75 -45.7 L8.0 -46.0 9.2 -45.75 9.7 -45.65 9.8 -45.7 10.0 -46.0 10.0 -46.1 Q9.15 -46.9 7.95 -46.75 L6.65 -46.45 Q5.4 -45.95 5.25 -44.7 L5.25 -44.65 5.35 -44.6 5.4 -44.55 5.45 -44.55 5.55 -44.6 Q6.25 -45.6 7.15 -45.9 L6.45 -44.5 Q6.0 -43.15 4.9 -42.3 L2.0 -40.4 1.95 -40.45 2.95 -41.45 Q3.7 -42.35 3.45 -43.35 L3.3 -43.65 Q2.7 -44.45 1.7 -44.25 L0.3 -44.25 -0.65 -44.4 Q-1.85 -44.7 -2.55 -45.6 L-3.0 -46.1" fill="#e05512" fill-rule="evenodd" stroke="none"/>
    <path d="M4.15 -54.9 L4.2 -54.85 4.15 -54.85 4.15 -54.9 M2.35 -51.1 L0.85 -51.5 0.9 -51.55 2.35 -51.15 2.35 -51.1 M0.15 -50.35 L2.05 -49.8 3.7 -49.15 4.4 -48.65 Q4.0 -47.4 3.1 -46.3 L3.15 -46.2 2.4 -46.05 0.25 -45.95 0.65 -46.85 0.85 -47.6 0.7 -48.55 -1.85 -48.8 -1.85 -48.85 -1.9 -48.9 -1.95 -48.95 -1.6 -49.2 0.25 -50.05 0.15 -50.35 M-11.8 -54.85 L-11.8 -54.9 -11.75 -54.85 -11.8 -54.85 M-10.0 -51.15 L-9.95 -51.0 -10.0 -51.0 -10.0 -51.05 -10.0 -51.15 M-10.9 -50.35 L-10.9 -50.3 -11.0 -50.3 -10.9 -50.35 M-11.9 -49.85 L-11.95 -49.85 -11.9 -49.85 M-11.75 -48.25 L-11.1 -48.7 -11.0 -48.75 -11.0 -48.6 -9.9 -48.45 -9.85 -48.45 -9.75 -48.4 -9.75 -48.35 -10.75 -47.65 -9.9 -46.3 -10.25 -45.9 -11.75 -48.25" fill="#ffffff" fill-rule="evenodd" stroke="none"/>
    <path d="M4.4 -48.65 L3.7 -49.15 2.05 -49.8 0.15 -50.35 -0.1 -50.85 0.9 -50.75 Q2.85 -50.4 4.65 -49.5 L4.4 -48.65 M-11.0 -48.75 L-11.1 -48.7 -11.75 -48.25 -12.1 -49.05 -11.0 -49.55 -11.0 -48.75" fill="#cccccc" fill-rule="evenodd" stroke="none"/>
  </g>
</svg>
