<?xml version="1.0" encoding="UTF-8" standalone="no"?>
<svg xmlns:xlink="http://www.w3.org/1999/xlink" height="39.75px" width="35.4px" xmlns="http://www.w3.org/2000/svg">
  <g transform="matrix(1.0, 0.0, 0.0, 1.0, 6.45, 74.6)">
    <path d="M9.7 -74.55 L9.7 -74.5 9.8 -74.5 Q10.95 -71.6 14.1 -70.75 L14.25 -70.8 14.45 -70.9 14.55 -70.85 14.65 -70.85 14.8 -70.6 14.85 -70.6 14.85 -70.45 14.75 -70.35 14.45 -70.35 11.15 -68.85 15.2 -69.65 15.2 -69.7 15.45 -69.8 15.6 -69.8 Q16.55 -68.35 18.35 -68.4 L18.55 -68.15 18.55 -68.1 18.5 -67.95 18.4 -67.75 13.8 -66.85 13.6 -66.8 14.5 -66.4 Q18.5 -63.95 19.45 -59.65 L19.75 -58.7 19.75 -58.65 Q20.1 -55.9 19.7 -53.3 L19.55 -51.95 19.5 -51.95 19.4 -51.9 18.65 -49.55 18.3 -48.75 18.2 -48.5 18.35 -47.8 18.3 -47.75 18.3 -47.65 18.3 -47.6 18.25 -47.55 18.0 -47.45 17.8 -47.8 17.75 -47.9 17.05 -47.0 16.85 -46.85 16.9 -46.7 16.9 -46.65 16.95 -46.3 16.85 -45.85 16.8 -45.85 16.7 -45.7 Q19.1 -43.75 22.15 -43.05 L25.5 -42.95 27.15 -42.55 27.3 -42.45 27.4 -42.4 Q29.85 -41.05 28.4 -38.75 27.8 -37.8 26.8 -37.4 L26.7 -37.4 26.65 -37.4 26.55 -37.4 26.45 -37.35 26.4 -37.35 26.35 -37.3 26.1 -37.25 25.7 -37.2 Q26.15 -36.05 24.9 -35.05 24.6 -34.8 24.15 -34.85 22.8 -35.05 21.5 -35.55 L20.9 -35.8 19.35 -36.15 12.05 -36.25 Q7.5 -36.3 3.4 -38.15 -1.2 -40.25 -4.5 -43.85 -5.35 -44.85 -5.8 -46.05 -6.75 -47.0 -6.3 -48.5 -6.1 -49.25 -5.4 -49.6 L-4.55 -49.95 Q-5.0 -50.2 -5.25 -50.95 L-5.9 -53.25 Q-6.55 -56.0 -6.15 -58.8 L-6.15 -58.95 -6.15 -59.05 Q-5.35 -63.25 -2.15 -66.2 L-1.45 -66.9 -1.3 -66.95 -1.25 -67.0 -0.05 -68.0 0.0 -68.05 5.1 -71.2 5.75 -71.65 8.3 -73.45 9.6 -74.6 9.7 -74.55 M2.1 -48.1 Q1.65 -48.8 1.45 -49.65 0.95 -51.5 1.1 -53.25 1.25 -55.25 2.2 -57.15 3.05 -58.9 4.4 -60.15 6.1 -62.1 8.7 -62.05 L8.85 -61.8 8.8 -61.65 8.4 -61.55 8.1 -61.45 9.05 -60.45 9.15 -60.45 9.6 -59.85 9.55 -59.85 10.0 -59.05 Q10.95 -57.1 10.75 -54.7 L10.65 -54.1 10.4 -52.5 11.15 -52.55 11.4 -52.55 12.0 -52.45 12.1 -52.4 12.15 -52.35 12.2 -52.35 12.2 -52.3 12.2 -52.25 12.1 -52.15 10.3 -51.95 9.95 -50.25 Q9.55 -48.8 8.75 -47.55 L8.65 -47.4 9.6 -47.75 11.2 -48.25 13.25 -48.45 14.85 -48.3 14.9 -48.3 14.9 -48.35 Q14.9 -49.8 15.15 -51.15 L15.3 -51.95 15.1 -52.15 15.1 -52.3 15.2 -52.4 15.25 -52.4 15.4 -52.45 Q15.8 -54.1 16.55 -55.65 L16.8 -56.15 17.05 -56.6 17.05 -56.65 17.35 -57.15 17.4 -57.2 17.5 -57.4 Q18.05 -58.25 18.85 -58.55 L18.75 -58.8 18.7 -59.0 18.7 -59.05 18.75 -59.1 18.7 -59.15 18.7 -59.2 18.65 -59.45 18.6 -59.6 18.6 -59.7 18.8 -59.7 18.8 -59.75 18.75 -59.85 18.3 -61.05 17.6 -62.7 Q15.55 -65.65 12.1 -66.75 L12.1 -66.85 12.1 -66.9 12.15 -66.95 12.25 -66.95 12.3 -67.0 12.85 -67.0 12.9 -67.05 Q14.25 -67.75 15.85 -68.0 L16.35 -68.15 Q15.55 -68.45 15.3 -69.1 15.0 -68.75 14.25 -68.65 L10.4 -68.35 10.15 -68.45 10.1 -68.45 9.95 -68.7 10.0 -68.75 Q11.4 -69.85 13.15 -70.45 11.35 -70.85 9.95 -72.5 9.5 -73.1 9.45 -73.65 L9.1 -73.35 9.0 -73.35 9.0 -73.25 8.95 -73.15 Q4.95 -70.25 0.75 -67.6 L0.65 -67.55 -0.55 -66.8 Q-4.1 -64.0 -5.3 -59.55 L-5.65 -57.4 Q-5.8 -53.5 -4.05 -50.05 -2.4 -50.4 -0.65 -49.4 L2.05 -47.9 2.15 -47.7 2.75 -47.35 2.5 -47.65 2.3 -47.9 2.1 -48.1 M3.35 -62.1 Q3.3 -62.7 3.55 -63.15 L4.25 -63.95 Q5.8 -65.2 7.8 -65.0 8.25 -64.9 8.3 -64.4 L8.3 -64.3 8.2 -64.2 8.05 -64.15 Q6.55 -64.8 5.15 -63.8 L4.8 -63.6 4.2 -62.75 Q3.85 -62.2 3.35 -62.1 M8.75 -59.85 L8.7 -59.95 8.6 -60.05 8.25 -60.4 8.35 -60.4 8.15 -60.6 7.45 -61.1 7.3 -61.2 Q5.7 -60.6 4.55 -59.5 L4.15 -59.1 3.6 -58.5 3.55 -58.45 3.55 -58.35 2.85 -57.35 2.75 -57.15 2.7 -57.1 2.65 -56.8 2.55 -56.6 2.25 -55.8 2.15 -55.4 2.1 -55.25 Q1.6 -53.55 1.7 -51.75 1.75 -50.45 2.25 -49.3 L3.9 -50.65 6.35 -51.7 6.4 -51.7 7.6 -52.1 8.85 -52.5 9.7 -52.7 9.85 -52.95 10.05 -54.35 10.05 -54.65 10.1 -55.05 10.15 -55.25 Q10.15 -56.65 9.75 -57.8 L9.35 -58.7 9.35 -58.75 9.3 -58.8 9.25 -58.9 9.2 -59.0 9.2 -59.05 9.15 -59.1 9.1 -59.2 8.8 -59.85 8.75 -59.85 M10.5 -60.25 L10.45 -60.35 10.5 -60.3 10.5 -60.25 M17.35 -55.65 L17.25 -55.5 17.1 -55.15 17.05 -55.0 16.85 -54.65 16.75 -54.5 16.1 -52.6 16.0 -52.4 16.05 -52.3 16.1 -52.3 16.4 -51.8 16.5 -51.65 16.7 -51.4 16.9 -50.95 17.1 -50.6 17.15 -50.5 17.2 -50.45 17.65 -49.65 17.65 -49.55 17.7 -49.6 17.7 -49.55 17.8 -49.5 17.85 -49.55 17.9 -49.6 18.15 -50.2 18.25 -50.55 18.6 -51.7 18.75 -52.15 19.0 -53.7 19.05 -54.5 19.1 -55.35 19.15 -55.3 19.15 -55.45 19.0 -57.8 19.0 -57.95 18.9 -57.95 17.95 -56.7 17.65 -56.15 17.6 -56.1 17.35 -55.65 M4.65 -41.6 L4.9 -41.5 Q5.8 -41.0 6.8 -40.65 11.05 -38.95 15.9 -39.3 L20.3 -39.7 25.05 -39.5 25.5 -38.95 25.5 -38.9 24.1 -39.0 25.35 -37.95 25.45 -37.85 25.5 -37.75 Q27.4 -37.95 28.1 -39.7 28.65 -41.1 27.15 -41.65 L25.1 -42.3 24.9 -42.35 22.25 -42.45 21.8 -42.4 Q19.85 -42.25 17.95 -41.6 L16.65 -41.75 20.1 -42.8 Q17.8 -43.75 16.05 -45.35 L15.6 -45.9 15.75 -45.85 15.5 -46.45 15.6 -46.6 15.65 -46.6 15.8 -46.65 16.2 -46.3 16.3 -46.2 16.25 -46.4 Q16.1 -46.5 16.1 -46.7 L16.15 -46.8 15.95 -47.15 15.5 -47.3 15.35 -47.35 15.3 -47.4 15.25 -47.4 12.9 -47.8 Q11.2 -47.85 9.5 -47.2 L9.15 -47.05 8.9 -46.95 8.0 -46.6 7.9 -46.55 Q5.2 -45.65 2.75 -46.6 L2.65 -46.8 Q1.45 -47.25 0.35 -48.15 -1.15 -49.35 -3.1 -49.55 L-3.15 -49.55 -3.2 -49.5 -3.25 -49.45 Q-4.2 -49.65 -5.0 -49.15 L-5.85 -48.4 -5.85 -48.25 Q-5.8 -48.05 -5.9 -47.9 L-5.9 -47.75 Q-5.8 -46.9 -5.2 -46.3 L-4.95 -45.85 -4.95 -45.75 -4.95 -45.7 Q-0.55 -39.7 7.0 -37.6 11.45 -36.35 16.1 -36.85 19.7 -37.25 23.05 -35.9 L23.95 -35.5 24.6 -35.45 24.8 -35.55 24.85 -35.7 25.0 -35.85 25.05 -35.95 Q25.4 -36.85 24.75 -37.55 L24.7 -37.6 23.4 -38.6 22.4 -39.1 21.6 -39.1 15.8 -38.8 13.65 -38.75 Q7.15 -38.7 1.85 -42.5 -0.35 -44.1 -1.1 -46.65 L-1.4 -46.9 -2.55 -46.65 -3.0 -46.5 -3.1 -46.6 -3.3 -46.85 -3.3 -46.9 Q-2.55 -47.75 -1.35 -47.65 L-0.05 -47.35 Q1.15 -46.9 1.35 -45.7 L1.35 -45.65 1.25 -45.65 1.2 -45.6 1.15 -45.55 1.1 -45.6 Q0.35 -46.6 -0.55 -46.85 -0.1 -46.25 0.2 -45.45 0.65 -44.15 1.75 -43.4 3.2 -42.4 4.65 -41.6 M16.9 -49.6 L16.9 -49.55 16.95 -49.5 17.0 -49.5 16.95 -49.55 16.9 -49.6 M16.35 -48.8 L16.2 -48.85 15.6 -49.05 15.6 -48.3 15.65 -48.25 15.65 -48.2 16.05 -47.95 16.15 -47.8 16.2 -47.85 16.25 -47.9 16.25 -47.85 16.2 -47.75 16.55 -47.35 16.6 -47.35 17.0 -48.0 17.15 -48.2 17.2 -48.3 17.4 -48.65 17.15 -49.2 17.1 -49.2 17.0 -49.1 16.95 -49.05 16.9 -49.05 16.9 -49.1 16.45 -49.85 16.05 -50.4 16.15 -49.8 16.25 -49.4 16.35 -48.8 M16.8 -48.8 L16.75 -48.7 16.75 -48.75 16.8 -48.8 M8.6 -48.95 L8.45 -48.95 Q7.5 -48.65 6.7 -49.2 L6.35 -49.5 6.4 -49.5 6.6 -49.7 7.15 -50.35 7.25 -50.55 7.4 -50.75 7.3 -50.85 6.95 -50.7 5.9 -50.15 Q5.75 -50.4 5.75 -50.7 L5.65 -50.65 Q4.45 -50.15 3.4 -49.35 L2.45 -48.85 Q2.85 -47.95 3.6 -47.15 L3.55 -47.0 4.25 -46.9 6.4 -46.9 6.3 -47.0 Q7.15 -47.0 8.0 -47.5 L8.05 -47.55 8.15 -47.65 8.45 -48.1 8.6 -48.95 M16.35 -48.05 L16.4 -48.05 16.4 -48.0 16.35 -48.05 M6.65 -47.7 L6.65 -47.8 6.7 -47.7 6.65 -47.7" fill="#000000" fill-rule="evenodd" stroke="none"/>
    <path d="M0.65 -67.55 L0.75 -67.6 Q4.95 -70.25 8.95 -73.15 L9.0 -73.25 9.0 -73.35 9.1 -73.35 9.45 -73.65 Q9.5 -73.1 9.95 -72.5 11.35 -70.85 13.15 -70.45 11.4 -69.85 10.0 -68.75 L9.95 -68.7 10.1 -68.45 10.15 -68.45 10.4 -68.35 14.25 -68.65 Q15.0 -68.75 15.3 -69.1 15.55 -68.45 16.35 -68.15 L15.85 -68.0 Q14.25 -67.75 12.9 -67.05 L12.85 -67.0 12.3 -67.0 12.25 -66.95 12.15 -66.95 12.1 -66.9 12.1 -66.85 12.1 -66.75 Q15.55 -65.65 17.6 -62.7 L18.3 -61.05 18.75 -59.85 18.8 -59.75 18.8 -59.7 18.6 -59.7 18.6 -59.6 18.65 -59.45 18.7 -59.2 18.7 -59.15 18.75 -59.1 18.7 -59.05 18.7 -59.0 18.75 -58.8 18.85 -58.55 Q18.05 -58.25 17.5 -57.4 L17.4 -57.2 17.35 -57.15 17.05 -56.65 17.05 -56.6 16.8 -56.15 16.55 -55.65 Q15.8 -54.1 15.4 -52.45 L15.25 -52.4 15.2 -52.4 15.1 -52.3 15.1 -52.15 15.3 -51.95 15.15 -51.15 Q14.9 -49.8 14.9 -48.35 L14.9 -48.3 14.85 -48.3 13.25 -48.45 11.2 -48.25 9.6 -47.75 8.65 -47.4 8.75 -47.55 Q9.55 -48.8 9.95 -50.25 L10.3 -51.95 12.1 -52.15 12.2 -52.25 12.2 -52.3 12.2 -52.35 12.15 -52.35 12.1 -52.4 12.0 -52.45 11.4 -52.55 11.15 -52.55 10.4 -52.5 10.65 -54.1 10.75 -54.7 Q10.95 -57.1 10.0 -59.05 L9.55 -59.85 9.6 -59.85 9.15 -60.45 9.05 -60.45 8.1 -61.45 8.4 -61.55 8.8 -61.65 8.85 -61.8 8.7 -62.05 Q6.1 -62.1 4.4 -60.15 3.05 -58.9 2.2 -57.15 1.25 -55.25 1.1 -53.25 0.95 -51.5 1.45 -49.65 1.65 -48.8 2.1 -48.1 L1.75 -48.35 1.75 -48.4 1.65 -48.55 -0.35 -50.45 -1.3 -51.8 -1.75 -52.6 -2.4 -53.75 -2.9 -55.6 -3.05 -56.5 -3.15 -57.4 Q-3.35 -58.55 -3.1 -59.7 -2.5 -62.7 -0.75 -65.4 L-0.2 -66.4 0.65 -67.55 M2.65 -56.8 L2.7 -57.1 2.75 -57.15 2.85 -57.35 3.55 -58.35 3.55 -58.45 3.6 -58.5 4.15 -59.1 4.55 -59.5 Q5.7 -60.6 7.3 -61.2 L7.45 -61.1 8.15 -60.6 8.35 -60.4 8.25 -60.4 8.6 -60.05 8.7 -59.95 8.75 -59.85 8.85 -59.7 8.85 -59.65 8.85 -59.55 8.95 -59.45 9.05 -59.2 9.15 -59.1 9.2 -59.05 9.2 -59.0 9.25 -58.9 9.3 -58.8 9.35 -58.75 9.35 -58.7 9.75 -57.8 Q10.15 -56.65 10.15 -55.25 L10.1 -55.05 10.05 -54.65 10.05 -54.35 9.85 -52.95 9.7 -52.7 8.85 -52.5 7.6 -52.1 6.4 -51.7 6.35 -51.7 3.9 -50.65 2.25 -49.3 Q1.75 -50.45 1.7 -51.75 1.6 -53.55 2.1 -55.25 L2.15 -55.4 2.2 -55.4 2.35 -55.9 2.45 -56.25 2.55 -56.6 2.65 -56.75 2.65 -56.8 M3.35 -62.1 Q3.85 -62.2 4.2 -62.75 L4.8 -63.6 5.15 -63.8 Q6.55 -64.8 8.05 -64.15 L8.2 -64.2 8.3 -64.3 8.3 -64.4 Q8.25 -64.9 7.8 -65.0 5.8 -65.2 4.25 -63.95 L3.55 -63.15 Q3.3 -62.7 3.35 -62.1 M10.5 -60.25 L10.5 -60.3 10.45 -60.35 10.5 -60.25 M9.65 -56.85 L9.65 -56.8 9.65 -56.7 9.65 -56.85 M17.05 -55.0 L17.1 -55.15 17.25 -55.5 17.35 -55.65 17.6 -56.05 17.65 -56.1 17.65 -56.15 17.95 -56.7 18.9 -57.95 19.0 -57.95 19.0 -57.8 19.15 -55.45 19.15 -55.3 19.1 -55.35 19.05 -54.5 19.0 -53.7 18.75 -52.15 18.6 -51.7 18.55 -51.5 18.4 -51.25 18.35 -51.0 18.25 -50.55 18.15 -50.2 17.9 -49.6 17.85 -49.55 17.8 -49.5 17.7 -49.55 17.7 -49.6 17.65 -49.55 17.65 -49.65 17.2 -50.45 17.15 -50.5 17.1 -50.6 16.9 -50.95 16.7 -51.4 16.5 -51.65 16.4 -51.8 16.1 -52.3 16.05 -52.3 16.0 -52.4 16.1 -52.6 16.75 -54.5 16.8 -54.6 16.85 -54.6 16.85 -54.65 17.05 -55.0" fill="#55bb65" fill-rule="evenodd" stroke="none"/>
    <path d="M0.65 -67.55 L-0.2 -66.4 -0.75 -65.4 Q-2.5 -62.7 -3.1 -59.7 -3.35 -58.55 -3.15 -57.4 L-3.05 -56.5 -2.9 -55.6 -2.4 -53.75 -1.75 -52.6 -1.3 -51.8 -0.35 -50.45 1.65 -48.55 1.75 -48.4 1.75 -48.35 2.1 -48.1 2.3 -47.9 2.5 -47.65 2.75 -47.35 2.15 -47.7 2.05 -47.9 -0.65 -49.4 Q-2.4 -50.4 -4.05 -50.05 -5.8 -53.5 -5.65 -57.4 L-5.3 -59.55 Q-4.1 -64.0 -0.55 -66.8 L0.65 -67.55" fill="#43a752" fill-rule="evenodd" stroke="none"/>
    <path d="M2.65 -56.8 L2.65 -56.75 2.55 -56.6 2.45 -56.25 2.35 -55.9 2.2 -55.4 2.15 -55.4 2.25 -55.8 2.55 -56.6 2.65 -56.8 M9.15 -59.1 L9.05 -59.2 8.95 -59.45 8.85 -59.55 8.85 -59.65 8.85 -59.7 8.75 -59.85 8.8 -59.85 9.1 -59.2 9.15 -59.1 M17.35 -55.65 L17.6 -56.1 17.65 -56.1 17.6 -56.05 17.35 -55.65" fill="#cccccc" fill-rule="evenodd" stroke="none"/>
    <path d="M9.65 -56.85 L9.65 -56.7 9.65 -56.8 9.65 -56.85 M17.6 -56.1 L17.65 -56.15 17.65 -56.1 17.6 -56.1 M18.6 -51.7 L18.25 -50.55 18.35 -51.0 18.4 -51.25 18.55 -51.5 18.6 -51.7 M17.85 -49.55 L17.8 -49.5 17.85 -49.55 M16.1 -52.3 L16.05 -52.3 16.1 -52.3 M16.75 -54.5 L16.85 -54.65 17.05 -55.0 16.85 -54.65 16.85 -54.6 16.8 -54.6 16.75 -54.5 M16.9 -49.6 L16.95 -49.55 17.0 -49.5 16.95 -49.5 16.9 -49.55 16.9 -49.6 M16.8 -48.8 L16.75 -48.75 16.75 -48.7 16.8 -48.8 M16.35 -48.8 L16.25 -49.4 16.15 -49.8 16.05 -50.4 16.45 -49.85 16.9 -49.1 16.9 -49.05 16.95 -49.05 17.0 -49.1 17.1 -49.2 17.15 -49.2 17.4 -48.65 17.2 -48.3 17.15 -48.2 17.0 -48.0 16.6 -47.35 16.55 -47.35 16.2 -47.75 16.25 -47.85 16.25 -47.9 16.2 -47.85 16.15 -47.8 16.05 -47.95 15.65 -48.2 15.65 -48.25 15.6 -48.3 15.6 -49.05 16.2 -48.85 16.35 -48.8 M8.6 -48.95 L8.45 -48.1 8.15 -47.65 8.05 -47.55 8.0 -47.5 Q7.15 -47.0 6.3 -47.0 L6.4 -46.9 4.25 -46.9 3.55 -47.0 3.6 -47.15 Q2.85 -47.95 2.45 -48.85 L3.4 -49.35 Q4.45 -50.15 5.65 -50.65 L5.75 -50.7 Q5.75 -50.4 5.9 -50.15 L6.95 -50.7 7.3 -50.85 7.4 -50.75 7.25 -50.55 7.15 -50.35 6.6 -49.7 6.4 -49.5 6.35 -49.5 6.7 -49.2 Q7.5 -48.65 8.45 -48.95 L8.6 -48.95 M6.65 -47.7 L6.7 -47.7 6.65 -47.8 6.65 -47.7 M16.35 -48.05 L16.4 -48.0 16.4 -48.05 16.35 -48.05" fill="#ffffff" fill-rule="evenodd" stroke="none"/>
    <path d="M9.5 -47.2 Q11.2 -47.85 12.9 -47.8 L15.25 -47.4 15.3 -47.4 15.35 -47.35 15.5 -47.3 15.95 -47.15 16.15 -46.8 16.1 -46.7 Q16.1 -46.5 16.25 -46.4 L16.3 -46.2 16.2 -46.3 15.8 -46.65 15.65 -46.6 15.6 -46.6 15.5 -46.45 15.75 -45.85 15.6 -45.9 16.05 -45.35 Q17.8 -43.75 20.1 -42.8 L16.65 -41.75 17.95 -41.6 Q19.85 -42.25 21.8 -42.4 L22.25 -42.45 24.9 -42.35 25.1 -42.3 27.15 -41.65 Q28.65 -41.1 28.1 -39.7 27.4 -37.95 25.5 -37.75 L25.45 -37.85 25.35 -37.95 24.1 -39.0 25.5 -38.9 25.5 -38.95 25.05 -39.5 20.3 -39.7 15.9 -39.3 Q11.05 -38.95 6.8 -40.65 5.8 -41.0 4.9 -41.5 L4.65 -41.6 4.7 -41.65 3.7 -42.6 Q2.95 -43.45 3.15 -44.45 L3.3 -44.75 3.9 -45.25 4.15 -45.1 5.05 -45.2 6.4 -45.25 7.3 -45.45 Q8.45 -45.8 9.1 -46.7 L9.5 -47.2 M23.4 -38.6 L24.7 -37.6 24.75 -37.55 Q25.4 -36.85 25.05 -35.95 L25.0 -35.85 24.85 -35.7 24.8 -35.55 24.6 -35.45 23.95 -35.5 23.05 -35.9 23.55 -36.5 23.8 -37.1 Q23.9 -37.95 23.4 -38.6" fill="#f07942" fill-rule="evenodd" stroke="none"/>
    <path d="M9.5 -47.2 L9.1 -46.7 Q8.45 -45.8 7.3 -45.45 L6.4 -45.25 5.05 -45.2 4.15 -45.1 3.9 -45.25 3.3 -44.75 3.15 -44.45 Q2.95 -43.45 3.7 -42.6 L4.7 -41.65 4.65 -41.6 Q3.2 -42.4 1.75 -43.4 0.65 -44.15 0.2 -45.45 -0.1 -46.25 -0.55 -46.85 0.35 -46.6 1.1 -45.6 L1.15 -45.55 1.2 -45.6 1.25 -45.65 1.35 -45.65 1.35 -45.7 Q1.15 -46.9 -0.05 -47.35 L-1.35 -47.65 Q-2.55 -47.75 -3.3 -46.9 L-3.3 -46.85 -3.1 -46.6 -3.0 -46.5 -2.55 -46.65 -1.4 -46.9 -1.1 -46.65 Q-0.35 -44.1 1.85 -42.5 7.15 -38.7 13.65 -38.75 L15.8 -38.8 21.6 -39.1 22.4 -39.1 23.4 -38.6 Q23.9 -37.95 23.8 -37.1 L23.55 -36.5 23.05 -35.9 Q19.7 -37.25 16.1 -36.85 11.45 -36.35 7.0 -37.6 -0.55 -39.7 -4.95 -45.7 L-4.95 -45.75 -4.95 -45.85 -5.2 -46.3 Q-5.8 -46.9 -5.9 -47.75 L-5.9 -47.9 Q-5.8 -48.05 -5.85 -48.25 L-5.85 -48.4 -5.0 -49.15 Q-4.2 -49.65 -3.25 -49.45 L-3.2 -49.5 -3.15 -49.55 -3.1 -49.55 Q-1.15 -49.35 0.35 -48.15 1.45 -47.25 2.65 -46.8 L2.75 -46.6 Q5.2 -45.65 7.9 -46.55 L8.0 -46.6 8.9 -46.95 9.15 -47.05 9.5 -47.2" fill="#e05512" fill-rule="evenodd" stroke="none"/>
  </g>
</svg>
