<?xml version="1.0" encoding="UTF-8" standalone="no"?>
<svg xmlns:xlink="http://www.w3.org/1999/xlink" height="40.5px" width="37.1px" xmlns="http://www.w3.org/2000/svg">
  <g transform="matrix(1.0, 0.0, 0.0, 1.0, 23.1, 75.4)">
    <path d="M7.95 -68.25 L8.0 -68.2 9.15 -67.1 Q9.15 -67.1 9.25 -67.05 L9.4 -67.0 10.1 -66.25 Q13.25 -63.1 13.95 -58.7 L13.9 -58.6 13.9 -58.45 Q14.2 -55.55 13.45 -52.7 L12.7 -50.35 Q12.4 -49.6 11.9 -49.35 L12.8 -48.95 Q13.5 -48.6 13.65 -47.8 14.05 -46.2 13.05 -45.25 12.5 -44.05 11.6 -43.1 8.05 -39.45 3.25 -37.5 -1.1 -35.7 -5.8 -35.85 L-13.35 -36.05 -14.95 -35.75 -15.55 -35.5 -18.35 -34.9 Q-18.8 -34.85 -19.1 -35.1 -20.4 -36.2 -19.85 -37.35 L-20.25 -37.4 -20.55 -37.5 -20.6 -37.55 -20.65 -37.55 -20.7 -37.6 -20.85 -37.65 -20.85 -37.6 -20.95 -37.65 Q-22.05 -38.1 -22.6 -39.1 -24.0 -41.55 -21.45 -42.8 L-21.3 -42.85 -21.15 -42.95 -19.4 -43.3 -15.95 -43.3 Q-12.8 -43.85 -10.25 -45.8 L-10.35 -46.35 -10.35 -46.45 -11.1 -47.4 -11.15 -47.25 -11.3 -46.95 -11.55 -47.0 -11.6 -47.05 -11.6 -47.1 -11.65 -47.2 -11.65 -47.25 -11.5 -48.05 -11.65 -48.35 -12.0 -49.15 -12.7 -51.5 -12.8 -51.5 -12.8 -51.55 -12.9 -52.55 -13.0 -53.65 -13.05 -54.2 Q-13.35 -56.75 -12.9 -59.3 L-12.9 -59.4 -12.5 -60.35 Q-11.35 -64.75 -7.15 -67.15 L-6.2 -67.5 -6.4 -67.55 Q-8.65 -68.4 -11.1 -68.7 L-11.2 -68.85 -11.25 -69.05 -11.25 -69.1 -11.05 -69.3 Q-9.2 -69.25 -8.15 -70.65 L-8.0 -70.65 -7.7 -70.55 -3.55 -69.55 -6.9 -71.2 -7.25 -71.2 -7.3 -71.35 -7.35 -71.5 -7.3 -71.5 -7.15 -71.75 -7.0 -71.75 -6.9 -71.75 -6.7 -71.7 -6.5 -71.65 Q-3.25 -72.35 -1.95 -75.3 L-1.85 -75.3 -1.85 -75.35 -1.7 -75.4 -0.5 -74.15 2.15 -72.2 2.75 -71.75 Q5.3 -69.95 7.95 -68.25 M1.85 -63.05 L1.5 -63.25 Q0.1 -64.25 -1.35 -63.65 L-1.5 -63.7 -1.6 -63.8 -1.65 -63.85 -1.6 -63.9 Q-1.6 -64.4 -1.15 -64.5 0.85 -64.7 2.4 -63.45 3.4 -62.65 3.35 -61.6 L2.5 -62.2 1.85 -63.05 M4.6 -47.6 L4.4 -47.35 3.9 -46.85 4.55 -47.15 4.6 -47.3 7.85 -48.95 Q9.65 -49.95 11.4 -49.5 13.35 -53.0 13.3 -57.0 L13.05 -59.25 Q12.0 -63.9 8.45 -67.0 L7.25 -67.8 7.1 -67.85 -1.15 -73.9 -1.2 -74.0 -1.2 -74.05 -1.3 -74.1 -1.6 -74.4 Q-1.7 -73.9 -2.2 -73.3 -3.7 -71.65 -5.55 -71.3 -3.85 -70.6 -2.4 -69.4 L-2.35 -69.35 Q-2.35 -69.15 -2.5 -69.1 L-2.55 -69.1 -2.85 -69.0 -6.8 -69.45 -7.85 -69.95 Q-8.15 -69.3 -8.95 -69.0 L-8.5 -68.85 Q-6.85 -68.5 -5.4 -67.7 L-5.4 -67.65 -4.8 -67.65 -4.75 -67.6 -4.65 -67.6 -4.65 -67.55 -4.65 -67.5 -4.65 -67.4 Q-8.25 -66.4 -10.5 -63.4 L-11.3 -61.75 -11.8 -60.5 -11.8 -60.4 -12.0 -59.8 -12.0 -59.75 -11.95 -59.7 -11.95 -59.6 -12.05 -59.45 -12.1 -59.2 -11.9 -59.15 -11.95 -59.1 -11.95 -59.05 -11.95 -58.95 -12.05 -58.65 -12.05 -58.6 -12.0 -58.55 -12.0 -58.5 -12.05 -58.35 -12.1 -58.3 -12.2 -58.0 -11.6 -57.7 -10.85 -56.85 -10.7 -56.65 -10.65 -56.65 -10.35 -56.1 -10.4 -56.1 -10.1 -55.6 -9.9 -55.1 Q-9.15 -53.55 -8.75 -51.95 L-8.7 -51.95 -8.6 -51.9 -8.5 -51.85 -8.45 -51.75 -8.4 -51.6 -8.6 -51.4 Q-8.2 -49.65 -8.2 -47.8 L-8.2 -47.75 Q-6.35 -48.15 -4.5 -47.75 L-4.25 -47.65 -2.9 -47.25 -2.5 -47.05 -2.0 -46.9 -1.95 -46.9 -2.45 -47.65 -3.25 -49.75 -3.65 -51.4 -5.4 -51.6 -5.5 -51.7 -5.5 -51.8 -5.5 -51.85 -5.45 -51.9 -5.3 -51.95 -4.75 -52.0 -4.5 -52.0 -3.75 -52.0 -4.05 -54.2 Q-4.25 -56.6 -3.3 -58.5 L-3.25 -58.6 -2.85 -59.3 -2.9 -59.3 -2.5 -59.95 -2.4 -59.95 -1.4 -60.9 -1.85 -61.05 -2.1 -61.1 -2.15 -61.1 -2.05 -61.5 -1.4 -61.5 -0.55 -61.35 Q0.65 -61.1 1.65 -60.25 L2.3 -59.65 3.5 -58.25 4.5 -56.65 4.7 -56.25 Q5.4 -54.55 5.55 -52.75 L5.6 -51.5 5.25 -49.15 4.6 -47.6 M4.05 -56.25 L3.95 -56.6 3.9 -56.65 3.55 -57.25 3.15 -57.8 3.1 -57.9 3.05 -58.0 2.5 -58.6 1.2 -59.75 -0.6 -60.65 -0.75 -60.6 -1.1 -60.3 -1.7 -59.9 -1.55 -59.9 -1.95 -59.5 -2.0 -59.45 -2.0 -59.4 -2.05 -59.3 -2.1 -59.3 -2.15 -59.3 -2.45 -58.6 -2.5 -58.55 -2.5 -58.5 -2.55 -58.4 -2.65 -58.3 -2.65 -58.2 -2.65 -58.15 Q-3.45 -56.65 -3.45 -54.75 L-3.4 -54.55 -3.4 -54.1 -3.15 -52.45 -3.0 -52.2 -2.15 -52.0 -0.9 -51.55 0.3 -51.2 0.95 -51.0 2.8 -50.1 Q3.75 -49.6 4.45 -48.8 4.9 -49.95 4.95 -51.25 5.05 -53.0 4.6 -54.7 L4.55 -54.9 4.1 -56.1 4.05 -56.25 M0.8 -49.6 L-0.65 -50.35 -0.7 -50.35 -0.7 -50.3 -0.75 -50.3 -0.75 -50.25 -0.45 -49.85 -0.35 -49.65 0.3 -49.0 0.3 -48.95 0.0 -48.65 Q-0.85 -48.15 -1.75 -48.4 -1.9 -48.6 -1.95 -48.4 L-1.75 -47.55 -1.5 -47.15 -1.45 -47.1 -1.35 -47.0 Q-0.5 -46.5 0.4 -46.5 L0.3 -46.4 2.4 -46.35 3.15 -46.5 3.1 -46.65 3.2 -46.75 4.25 -48.35 Q3.75 -48.45 3.25 -48.8 L1.05 -50.15 Q0.95 -50.2 0.95 -50.2 L0.8 -49.6 M-17.15 -35.95 Q-13.7 -37.2 -9.95 -36.65 L-0.5 -37.05 Q7.4 -38.95 12.15 -45.0 L12.15 -45.05 12.15 -45.1 12.45 -45.6 Q13.05 -46.2 13.25 -47.05 L13.2 -47.2 Q13.1 -47.4 13.15 -47.6 L13.15 -47.75 12.35 -48.5 Q11.5 -49.1 10.6 -48.9 L10.5 -48.95 10.45 -49.0 10.4 -49.05 Q8.35 -48.9 6.75 -47.7 5.4 -46.75 4.05 -46.3 L3.95 -46.1 Q1.45 -45.15 -1.25 -46.05 L-1.3 -46.05 -1.35 -46.1 -1.9 -46.3 -2.2 -46.4 -2.8 -46.7 -8.6 -46.9 -8.6 -46.85 -8.7 -46.8 -8.85 -46.8 -9.25 -46.65 -9.35 -46.5 -9.45 -46.3 -9.4 -46.15 -9.6 -45.9 -9.6 -45.7 -9.35 -45.95 -9.4 -45.8 -8.6 -46.05 -7.8 -46.25 -7.25 -46.3 -6.95 -46.3 Q-5.65 -46.25 -4.45 -45.45 L-4.4 -45.4 -4.35 -45.35 -4.15 -45.15 -3.95 -45.0 -9.1 -45.15 -10.05 -45.0 Q-11.8 -43.75 -13.85 -42.95 -12.05 -42.55 -10.3 -41.7 L-11.7 -41.6 Q-13.65 -42.4 -15.6 -42.6 L-16.1 -42.65 -18.8 -42.65 -19.05 -42.6 -21.15 -42.0 Q-22.8 -41.55 -22.25 -40.05 -21.6 -38.25 -19.65 -37.95 L-19.55 -38.05 -19.45 -38.15 -18.15 -39.2 -19.6 -39.15 -19.55 -39.15 -19.1 -39.7 Q-16.7 -40.2 -14.2 -39.75 L-9.65 -39.15 Q-4.65 -38.65 -0.15 -40.2 L1.85 -41.0 2.05 -41.1 Q3.6 -41.85 5.15 -42.85 6.3 -43.6 6.85 -44.95 L7.65 -46.3 Q6.7 -46.1 5.95 -45.1 L5.85 -45.05 5.8 -45.1 5.75 -45.1 5.65 -45.15 5.65 -45.25 Q5.85 -46.45 7.15 -46.9 L8.5 -47.15 Q9.75 -47.2 10.5 -46.3 L10.5 -46.2 10.3 -45.95 10.2 -45.9 9.7 -46.05 8.5 -46.35 8.25 -46.1 Q7.35 -43.5 5.0 -41.95 -0.65 -38.2 -7.4 -38.5 L-9.6 -38.7 -15.55 -39.2 -16.4 -39.2 Q-16.95 -39.0 -17.45 -38.75 L-18.8 -37.8 -18.85 -37.7 Q-19.6 -37.0 -19.25 -36.05 L-19.2 -35.95 -19.05 -35.8 -19.0 -35.65 -18.8 -35.55 -18.15 -35.55 -17.15 -35.95 M0.0 -47.3 L0.05 -47.3 0.0 -47.2 0.0 -47.3 M-10.95 -55.6 L-11.3 -56.2 -11.7 -56.8 -12.2 -57.4 -12.3 -57.45 -12.3 -57.4 -12.45 -55.8 -12.45 -54.8 -12.45 -54.85 -12.4 -53.95 -11.95 -51.2 -11.55 -50.0 -11.2 -49.05 -11.15 -49.0 -11.05 -49.05 -11.0 -49.05 -10.95 -49.15 -10.5 -49.9 -10.45 -49.95 -10.4 -50.1 -10.35 -50.2 -10.25 -50.4 -10.0 -50.9 -9.8 -51.1 -9.7 -51.3 -9.4 -51.8 -9.35 -51.75 -9.35 -51.8 -9.35 -51.9 -9.4 -52.1 -9.55 -52.65 -10.1 -53.95 -10.15 -54.05 -10.15 -54.1 -10.35 -54.5 -10.4 -54.65 -10.55 -54.95 -10.65 -55.1 -10.7 -55.2 -10.95 -55.6 -10.95 -55.65 -10.95 -55.6 M-3.85 -59.75 L-3.85 -59.8 -3.75 -59.8 -3.85 -59.75 M-10.1 -48.25 L-10.05 -48.2 -10.1 -48.2 -10.15 -48.25 -10.1 -48.25 M-9.4 -49.9 L-9.6 -49.6 -10.1 -48.8 -10.25 -48.6 -10.25 -48.5 -10.3 -48.55 -10.45 -48.7 -10.55 -48.45 -10.7 -48.15 -10.3 -47.45 -9.9 -46.85 -9.5 -47.25 -9.6 -47.35 -9.55 -47.35 -9.5 -47.25 -9.35 -47.45 -8.95 -47.65 -8.95 -47.75 -8.9 -47.75 -8.9 -47.8 -8.9 -48.5 -9.55 -48.3 -9.65 -48.3 -9.4 -49.75 -9.4 -49.9 M-9.15 -46.1 L-9.15 -46.15 -9.1 -46.1 -9.1 -46.05 -9.15 -46.1 M-10.25 -49.05 L-10.2 -49.05 -10.25 -49.1 -10.25 -49.0 -10.25 -49.05" fill="#000000" fill-rule="evenodd" stroke="none"/>
    <path d="M1.85 -63.05 L2.5 -62.2 3.35 -61.6 Q3.4 -62.65 2.4 -63.45 0.85 -64.7 -1.15 -64.5 -1.6 -64.4 -1.6 -63.9 L-1.65 -63.85 -1.6 -63.8 -1.5 -63.7 -1.35 -63.65 Q0.1 -64.25 1.5 -63.25 L1.85 -63.05 M7.25 -67.8 L8.05 -66.55 8.6 -65.5 Q10.25 -62.65 10.8 -59.5 L10.75 -57.1 10.6 -56.25 10.45 -55.25 9.8 -53.4 9.1 -52.2 8.6 -51.45 7.6 -50.05 5.55 -48.3 4.85 -47.45 4.6 -47.5 4.8 -47.75 4.6 -47.6 5.25 -49.15 5.6 -51.5 5.55 -52.75 Q5.4 -54.55 4.7 -56.25 L4.5 -56.65 3.5 -58.25 2.3 -59.65 1.65 -60.25 Q0.65 -61.1 -0.55 -61.35 L-1.4 -61.5 -2.05 -61.5 -2.15 -61.1 -2.1 -61.1 -1.85 -61.05 -1.4 -60.9 -2.4 -59.95 -2.5 -59.95 -2.9 -59.3 -2.85 -59.3 -3.25 -58.6 -3.3 -58.5 Q-4.25 -56.6 -4.05 -54.2 L-3.75 -52.0 -4.5 -52.0 -4.75 -52.0 -5.3 -51.95 -5.45 -51.9 -5.5 -51.85 -5.5 -51.8 -5.5 -51.7 -5.4 -51.6 -3.65 -51.4 -3.25 -49.75 -2.45 -47.65 -1.95 -46.9 -2.0 -46.9 -2.5 -47.05 -2.9 -47.25 -4.25 -47.65 -4.5 -47.75 Q-6.35 -48.15 -8.2 -47.75 L-8.2 -47.8 Q-8.2 -49.65 -8.6 -51.4 L-8.4 -51.6 -8.45 -51.75 -8.5 -51.85 -8.6 -51.9 -8.7 -51.95 -8.75 -51.95 Q-9.15 -53.55 -9.9 -55.1 L-10.1 -55.6 -10.4 -56.1 -10.35 -56.1 -10.65 -56.65 -10.7 -56.65 -10.85 -56.85 -11.6 -57.7 -12.2 -58.0 -12.1 -58.3 -12.05 -58.35 -12.0 -58.5 -12.0 -58.55 -12.05 -58.6 -12.05 -58.65 -11.95 -58.95 -11.95 -59.05 -11.95 -59.1 -11.9 -59.15 -12.1 -59.2 -12.05 -59.45 -11.95 -59.6 -11.95 -59.7 -12.0 -59.75 -12.0 -59.8 -11.8 -60.4 -11.8 -60.5 -11.3 -61.75 -10.5 -63.4 Q-8.25 -66.4 -4.65 -67.4 L-4.65 -67.5 -4.65 -67.55 -4.65 -67.6 -4.75 -67.6 -4.8 -67.65 -5.4 -67.65 -5.4 -67.7 Q-6.85 -68.5 -8.5 -68.85 L-8.95 -69.0 Q-8.15 -69.3 -7.85 -69.95 L-6.8 -69.45 -2.85 -69.0 -2.55 -69.1 -2.5 -69.1 Q-2.35 -69.15 -2.35 -69.35 L-2.4 -69.4 Q-3.85 -70.6 -5.55 -71.3 -3.7 -71.65 -2.2 -73.3 -1.7 -73.9 -1.6 -74.4 L-1.3 -74.1 -1.2 -74.05 -1.2 -74.0 -1.15 -73.9 7.1 -67.85 7.25 -67.8 M-2.05 -59.3 L-2.0 -59.4 -2.0 -59.45 -1.95 -59.5 -1.55 -59.9 -1.7 -59.9 -1.1 -60.3 -0.75 -60.6 -0.6 -60.65 1.2 -59.75 2.5 -58.6 3.05 -58.0 3.1 -57.9 3.15 -57.8 3.55 -57.25 3.9 -56.65 3.95 -56.6 4.05 -56.25 4.1 -56.1 4.2 -55.75 4.5 -54.9 4.5 -54.85 4.55 -54.9 4.6 -54.7 Q5.05 -53.0 4.95 -51.25 4.9 -49.95 4.45 -48.8 3.75 -49.6 2.8 -50.1 L0.95 -51.0 0.3 -51.2 -0.9 -51.55 -2.15 -52.0 -3.0 -52.2 -3.15 -52.45 -3.4 -54.1 -3.4 -54.55 -3.45 -54.75 Q-3.45 -56.65 -2.65 -58.15 L-2.65 -58.2 -2.65 -58.3 -2.55 -58.4 -2.5 -58.5 -2.5 -58.55 -2.45 -58.6 -2.3 -58.8 -2.25 -58.9 -2.2 -59.05 -2.2 -59.1 -2.15 -59.15 -2.05 -59.3 M-11.95 -51.2 L-12.4 -53.95 -12.45 -54.85 -12.45 -54.8 -12.45 -55.8 -12.3 -57.4 -12.3 -57.45 -12.2 -57.4 -11.7 -56.8 -11.3 -56.2 -10.95 -55.6 -10.9 -55.5 -10.7 -55.2 -10.65 -55.1 -10.55 -54.95 -10.4 -54.65 -10.35 -54.5 -10.15 -54.1 -10.15 -54.05 -10.1 -53.95 -9.55 -52.65 -9.4 -52.1 -9.35 -51.9 -9.35 -51.8 -9.4 -51.8 -9.7 -51.3 -9.8 -51.1 -10.0 -50.9 -10.25 -50.4 -10.35 -50.2 -10.4 -50.1 -10.45 -49.95 -10.5 -49.9 -10.95 -49.15 -11.0 -49.05 -11.05 -49.05 -11.15 -49.0 -11.2 -49.05 -11.55 -50.0 -11.65 -50.5 -11.75 -50.7 -11.85 -51.0 -11.95 -51.2 M-3.85 -59.75 L-3.75 -59.8 -3.85 -59.8 -3.85 -59.75" fill="#55bb65" fill-rule="evenodd" stroke="none"/>
    <path d="M4.6 -47.6 L4.8 -47.75 4.6 -47.5 4.85 -47.45 5.55 -48.3 7.6 -50.05 8.6 -51.45 9.1 -52.2 9.8 -53.4 10.45 -55.25 10.6 -56.25 10.75 -57.1 10.8 -59.5 Q10.25 -62.65 8.6 -65.5 L8.05 -66.55 7.25 -67.8 8.45 -67.0 Q12.0 -63.9 13.05 -59.25 L13.3 -57.0 Q13.35 -53.0 11.4 -49.5 9.65 -49.95 7.85 -48.95 L4.6 -47.3 4.55 -47.15 3.9 -46.85 4.4 -47.35 4.6 -47.6" fill="#43a752" fill-rule="evenodd" stroke="none"/>
    <path d="M-2.8 -46.7 L-2.2 -46.4 -1.9 -46.3 -1.35 -46.1 -1.3 -46.05 -1.25 -46.05 Q1.45 -45.15 3.95 -46.1 L4.05 -46.3 Q5.4 -46.75 6.75 -47.7 8.35 -48.9 10.4 -49.05 L10.45 -49.0 10.5 -48.95 10.6 -48.9 Q11.5 -49.1 12.35 -48.5 L13.15 -47.75 13.15 -47.6 Q13.1 -47.4 13.2 -47.2 L13.25 -47.05 Q13.05 -46.2 12.45 -45.6 L12.15 -45.1 12.15 -45.05 12.15 -45.0 Q7.4 -38.95 -0.5 -37.05 L-9.95 -36.65 Q-13.7 -37.2 -17.15 -35.95 L-17.65 -36.55 -17.9 -37.2 Q-18.0 -38.1 -17.45 -38.75 -16.95 -39.0 -16.4 -39.2 L-15.55 -39.2 -9.6 -38.7 -7.4 -38.5 Q-0.65 -38.2 5.0 -41.95 7.35 -43.5 8.25 -46.1 L8.5 -46.35 9.7 -46.05 10.2 -45.9 10.3 -45.95 10.5 -46.2 10.5 -46.3 Q9.75 -47.2 8.5 -47.15 L7.15 -46.9 Q5.85 -46.45 5.65 -45.25 L5.65 -45.15 5.75 -45.1 5.8 -45.1 5.85 -45.05 5.95 -45.1 Q6.7 -46.1 7.65 -46.3 L6.85 -44.95 Q6.3 -43.6 5.15 -42.85 3.6 -41.85 2.05 -41.1 L3.1 -42.1 Q3.9 -42.95 3.75 -44.0 L3.6 -44.3 2.95 -44.85 2.55 -44.55 1.65 -44.65 0.3 -44.75 -0.65 -44.95 Q-1.75 -45.3 -2.4 -46.2 L-2.8 -46.7" fill="#e05512" fill-rule="evenodd" stroke="none"/>
    <path d="M4.05 -56.25 L4.1 -56.1 4.55 -54.9 4.5 -54.85 4.5 -54.9 4.2 -55.75 4.1 -56.1 4.05 -56.25 M-2.45 -58.6 L-2.15 -59.3 -2.1 -59.3 -2.05 -59.3 -2.15 -59.15 -2.2 -59.1 -2.2 -59.05 -2.25 -58.9 -2.3 -58.8 -2.45 -58.6 M-10.95 -55.6 L-10.7 -55.2 -10.9 -55.5 -10.95 -55.6" fill="#cccccc" fill-rule="evenodd" stroke="none"/>
    <path d="M0.8 -49.6 L0.95 -50.2 Q0.95 -50.2 1.05 -50.15 L3.25 -48.8 Q3.75 -48.45 4.25 -48.35 L3.2 -46.75 3.1 -46.65 3.15 -46.5 2.4 -46.35 0.3 -46.4 0.4 -46.5 Q-0.5 -46.5 -1.35 -47.0 L-1.45 -47.1 -1.5 -47.15 -1.75 -47.55 -1.95 -48.4 Q-1.9 -48.6 -1.75 -48.4 -0.85 -48.15 0.0 -48.65 L0.3 -48.95 0.3 -49.0 -0.35 -49.65 -0.45 -49.85 -0.75 -50.25 -0.75 -50.3 -0.7 -50.3 -0.7 -50.35 -0.65 -50.35 0.8 -49.6 M0.0 -47.3 L0.0 -47.2 0.05 -47.3 0.0 -47.3 M-10.95 -55.6 L-10.95 -55.65 -10.95 -55.6 M-10.15 -54.1 L-10.15 -54.05 -10.15 -54.1 M-9.35 -51.8 L-9.35 -51.75 -9.4 -51.8 -9.35 -51.8 M-11.55 -50.0 L-11.95 -51.2 -11.85 -51.0 -11.75 -50.7 -11.65 -50.5 -11.55 -50.0 M-9.4 -49.9 L-9.4 -49.75 -9.65 -48.3 -9.55 -48.3 -8.9 -48.5 -8.9 -47.8 -8.9 -47.75 -8.95 -47.75 -8.95 -47.65 -9.35 -47.45 -9.5 -47.25 -9.55 -47.35 -9.6 -47.35 -9.5 -47.25 -9.9 -46.85 -10.3 -47.45 -10.7 -48.15 -10.55 -48.45 -10.45 -48.7 -10.3 -48.55 -10.25 -48.5 -10.25 -48.6 -10.1 -48.8 -9.6 -49.6 -9.4 -49.9 M-10.1 -48.25 L-10.15 -48.25 -10.1 -48.2 -10.05 -48.2 -10.1 -48.25 M-10.25 -49.05 L-10.25 -49.0 -10.25 -49.1 -10.2 -49.05 -10.25 -49.05" fill="#ffffff" fill-rule="evenodd" stroke="none"/>
    <path d="M-17.15 -35.95 L-18.15 -35.55 -18.8 -35.55 -19.0 -35.65 -19.05 -35.8 -19.2 -35.95 -19.25 -36.05 Q-19.6 -37.0 -18.85 -37.7 L-18.8 -37.8 -17.45 -38.75 Q-18.0 -38.1 -17.9 -37.2 L-17.65 -36.55 -17.15 -35.95 M2.05 -41.1 L1.85 -41.0 -0.15 -40.2 Q-4.65 -38.65 -9.65 -39.15 L-14.2 -39.75 Q-16.7 -40.2 -19.1 -39.7 L-19.55 -39.15 -19.6 -39.15 -18.15 -39.2 -19.45 -38.15 -19.55 -38.05 -19.65 -37.95 Q-21.6 -38.25 -22.25 -40.05 -22.8 -41.55 -21.15 -42.0 L-19.05 -42.6 -18.8 -42.65 -16.1 -42.65 -15.6 -42.6 Q-13.65 -42.4 -11.7 -41.6 L-10.3 -41.7 Q-12.05 -42.55 -13.85 -42.95 -11.8 -43.75 -10.05 -45.0 L-9.1 -45.15 -3.95 -45.0 -4.15 -45.15 -4.35 -45.35 -4.4 -45.4 -4.45 -45.45 Q-5.65 -46.25 -6.95 -46.3 L-7.25 -46.3 -7.8 -46.25 -8.6 -46.05 -9.4 -45.8 -9.35 -45.95 -9.6 -45.7 -9.6 -45.9 -9.4 -46.15 -9.45 -46.3 -9.35 -46.5 -9.25 -46.65 -8.85 -46.8 -8.7 -46.8 -8.6 -46.85 -8.6 -46.9 -2.8 -46.7 -2.4 -46.2 Q-1.75 -45.3 -0.65 -44.95 L0.3 -44.75 1.65 -44.65 2.55 -44.55 2.95 -44.85 3.6 -44.3 3.75 -44.0 Q3.9 -42.95 3.1 -42.1 L2.05 -41.1 M-9.15 -46.1 L-9.1 -46.05 -9.1 -46.1 -9.15 -46.15 -9.15 -46.1" fill="#f07942" fill-rule="evenodd" stroke="none"/>
  </g>
</svg>
