<?xml version="1.0" encoding="UTF-8" standalone="no"?>
<svg xmlns:xlink="http://www.w3.org/1999/xlink" height="58.15px" width="32.85px" xmlns="http://www.w3.org/2000/svg">
  <g transform="matrix(1.0, 0.0, 0.0, 1.0, 16.45, 29.05)">
    <path d="M7.2 -27.5 L9.05 -29.05 9.65 -28.9 Q5.1 -19.95 2.75 -10.25 L0.1 -10.15 Q2.15 -16.7 5.1 -22.95 L7.2 -27.5" fill="#43a752" fill-rule="evenodd" stroke="none"/>
    <path d="M14.25 -24.55 L14.35 -24.2 14.35 -22.2 Q10.7 -15.35 8.05 -8.05 L8.35 -7.85 9.75 -6.0 Q11.6 -3.1 9.4 -0.45 11.45 5.9 16.4 10.3 14.75 13.55 11.25 14.15 6.55 14.95 3.95 10.9 3.1 16.85 1.05 22.65 -0.8 27.6 -5.85 28.9 -8.25 29.5 -10.65 28.5 -17.85 24.85 -16.1 16.4 -14.05 6.2 -6.05 -0.65 -9.0 -5.85 -3.45 -8.85 L-0.95 -9.9 Q0.5 -14.6 2.25 -19.1 L3.25 -21.05 Q4.7 -25.05 7.2 -27.5 L5.1 -22.95 Q2.15 -16.7 0.1 -10.15 L2.75 -10.25 Q5.0 -10.0 7.2 -8.65 10.0 -16.95 14.25 -24.55 M-0.3 -8.85 L-1.35 -8.45 -1.75 -8.3 Q-6.65 -6.0 -5.15 -1.45 L-2.85 -2.3 -2.05 -2.55 Q1.6 -3.5 5.25 -2.6 L6.1 -2.35 9.0 -1.1 Q10.75 -4.5 7.9 -6.95 L7.7 -7.1 6.85 -7.7 Q4.75 -9.15 2.5 -9.2 L-0.3 -8.85 M10.0 13.4 Q13.55 13.55 15.1 10.25 9.4 6.35 8.5 -0.5 L5.8 -1.55 4.9 -1.8 2.2 -2.15 Q-0.2 -2.25 -2.2 -1.55 L-3.0 -1.25 Q-6.0 0.05 -7.95 3.3 L-10.5 6.55 Q-16.5 14.2 -14.1 23.1 -13.5 25.2 -11.8 26.35 -7.05 29.4 -2.65 25.4 1.85 21.3 2.15 14.9 2.3 10.95 4.75 8.55 L5.4 8.0 7.15 6.85 4.8 9.35 Q4.85 10.2 5.35 10.9 7.1 13.2 10.0 13.4 M-13.35 14.15 L-12.65 15.0 -9.75 8.35 -13.35 14.15 M-11.9 15.65 L-14.35 14.95 -12.2 11.2 Q-9.45 6.2 -4.7 3.05 -9.4 8.75 -11.9 15.65 M-7.05 19.3 L-9.2 18.7 Q-9.8 18.25 -9.9 17.5 L-7.9 13.25 Q-5.3 7.55 -0.5 5.45 -5.35 11.6 -7.05 19.3 M-6.95 16.45 L-4.0 8.8 Q-7.25 12.65 -9.15 17.45 L-7.4 18.55 -6.95 16.45" fill="#000000" fill-rule="evenodd" stroke="none"/>
    <path d="M9.65 -28.9 L10.0 -28.8 12.25 -28.25 Q13.7 -26.65 14.25 -24.55 10.0 -16.95 7.2 -8.65 5.0 -10.0 2.75 -10.25 5.1 -19.95 9.65 -28.9" fill="#55bb65" fill-rule="evenodd" stroke="none"/>
    <path d="M10.0 13.4 Q7.1 13.2 5.35 10.9 4.85 10.2 4.8 9.35 L7.15 6.85 5.4 8.0 4.75 8.55 Q2.3 10.95 2.15 14.9 1.85 21.3 -2.65 25.4 -7.05 29.4 -11.8 26.35 -13.5 25.2 -14.1 23.1 -16.5 14.2 -10.5 6.55 L-7.95 3.3 Q-6.0 0.05 -3.0 -1.25 L-2.2 -1.55 Q-0.2 -2.25 2.2 -2.15 L4.9 -1.8 5.8 -1.55 8.5 -0.5 Q9.4 6.35 15.1 10.25 13.55 13.55 10.0 13.4 M-0.3 -8.85 L2.5 -9.2 Q4.75 -9.15 6.85 -7.7 L7.7 -7.1 7.9 -6.95 Q10.75 -4.5 9.0 -1.1 L6.1 -2.35 5.25 -2.6 Q1.6 -3.5 -2.05 -2.55 L-2.85 -2.3 -5.15 -1.45 Q-6.65 -6.0 -1.75 -8.3 L-1.35 -8.45 -0.3 -8.85 M-6.95 16.45 L-7.4 18.55 -9.15 17.45 Q-7.25 12.65 -4.0 8.8 L-6.95 16.45 M-7.05 19.3 Q-5.35 11.6 -0.5 5.45 -5.3 7.55 -7.9 13.25 L-9.9 17.5 Q-9.8 18.25 -9.2 18.7 L-7.05 19.3 M-11.9 15.65 Q-9.4 8.75 -4.7 3.05 -9.45 6.2 -12.2 11.2 L-14.35 14.95 -11.9 15.65 M-13.35 14.15 L-9.75 8.35 -12.65 15.0 -13.35 14.15" fill="#ffffff" fill-rule="evenodd" stroke="none"/>
  </g>
</svg>
