<?xml version="1.0" encoding="UTF-8" standalone="no"?>
<svg xmlns:xlink="http://www.w3.org/1999/xlink" height="42.05px" width="32.25px" xmlns="http://www.w3.org/2000/svg">
  <g transform="matrix(1.0, 0.0, 0.0, 1.0, 16.1, 21.0)">
    <path d="M7.95 20.15 L8.0 20.45 Q7.45 20.85 7.0 20.3 L5.95 19.0 4.15 16.8 -1.1 10.35 -1.6 9.7 -4.7 9.65 -5.2 9.9 Q-5.75 9.9 -6.1 9.55 -7.75 7.95 -8.95 5.75 -12.65 -0.8 -15.2 -7.85 -17.65 -14.55 -13.55 -19.55 L-12.6 -20.6 -12.4 -20.65 -10.85 -21.0 -10.6 -20.9 -10.55 -20.9 -10.3 -20.85 Q-3.75 -18.65 0.25 -12.8 L1.55 -10.95 2.3 -9.8 Q4.25 -6.75 6.75 -4.35 9.0 -2.2 11.75 -0.5 L11.75 -0.25 Q10.75 1.9 9.2 3.65 L11.05 5.9 12.55 7.95 13.9 9.6 15.15 11.25 Q15.75 12.2 16.05 13.3 L16.15 13.65 16.1 13.85 15.75 13.85 Q13.4 11.6 11.45 8.85 L10.15 7.05 8.4 4.5 6.1 6.35 5.4 6.8 5.25 6.9 2.45 8.5 Q1.15 9.15 -0.2 9.5 L0.55 10.35 4.4 14.95 6.15 16.9 Q7.55 18.4 7.95 20.15 M-13.05 -18.35 L-13.85 -16.75 Q-15.8 -11.15 -13.15 -5.5 -9.8 1.6 -5.9 8.4 -5.55 8.5 -5.2 8.7 L-0.8 8.2 0.95 7.6 4.2 6.0 5.6 5.05 7.65 3.4 7.55 3.25 7.65 3.05 7.8 2.85 7.95 2.85 8.2 2.75 8.25 2.75 10.4 0.05 Q9.3 -0.5 8.4 -1.3 L6.6 -2.95 Q3.65 -5.8 1.3 -9.1 L0.1 -10.8 Q-4.0 -17.1 -10.75 -19.95 -12.2 -19.5 -13.05 -18.35" fill="#000000" fill-rule="evenodd" stroke="none"/>
    <path d="M-13.05 -18.35 Q-12.2 -19.5 -10.75 -19.95 -4.0 -17.1 0.1 -10.8 L1.3 -9.1 Q3.65 -5.8 6.6 -2.95 L8.4 -1.3 Q9.3 -0.5 10.4 0.05 L8.25 2.75 8.2 2.75 7.95 2.85 7.8 2.85 7.65 3.05 7.55 3.25 7.65 3.4 5.6 5.05 4.2 6.0 -0.2 3.05 -0.9 2.6 -2.1 1.65 Q-6.9 -3.15 -9.6 -9.55 L-10.75 -12.45 -13.05 -18.35" fill="#3399ff" fill-rule="evenodd" stroke="none"/>
    <path d="M4.2 6.0 L0.95 7.6 -0.8 8.2 -5.2 8.7 Q-5.55 8.5 -5.9 8.4 -9.8 1.6 -13.15 -5.5 -15.8 -11.15 -13.85 -16.75 L-13.05 -18.35 -10.75 -12.45 -9.6 -9.55 Q-6.9 -3.15 -2.1 1.65 L-0.9 2.6 -0.2 3.05 4.2 6.0" fill="#007dfb" fill-rule="evenodd" stroke="none"/>
    <path d="M7.95 20.15 Q7.55 18.4 6.15 16.9 L4.4 14.95 0.55 10.35 -0.2 9.5 Q1.15 9.15 2.45 8.5 L5.25 6.9 5.4 6.8 6.1 6.35 8.4 4.5 10.15 7.05 Q8.05 9.45 4.95 10.4 L4.85 10.45 Q4.45 10.35 4.85 11.0 L5.1 11.35 11.95 20.9 11.75 21.05 11.5 21.05 8.95 20.65 7.95 20.15" fill="#43a752" fill-rule="evenodd" stroke="none"/>
    <path d="M10.15 7.05 L11.45 8.85 Q13.4 11.6 15.75 13.85 L16.1 13.85 15.4 19.6 Q13.95 20.95 12.05 21.05 L11.95 21.05 11.95 20.9 5.1 11.35 4.85 11.0 Q4.45 10.35 4.85 10.45 L4.95 10.4 Q8.05 9.45 10.15 7.05" fill="#55bb65" fill-rule="evenodd" stroke="none"/>
    <path d="M16.15 13.65 L16.05 13.3 16.15 13.5 16.15 13.65 M11.75 21.05 L11.95 20.9 11.95 21.05 11.75 21.05" fill="#0ecfe4" fill-rule="evenodd" stroke="none"/>
  </g>
</svg>
