<?xml version="1.0" encoding="UTF-8" standalone="no"?>
<svg xmlns:xlink="http://www.w3.org/1999/xlink" height="60.15px" width="47.35px" xmlns="http://www.w3.org/2000/svg">
  <g transform="matrix(1.0, 0.0, 0.0, 1.0, 23.7, 30.1)">
    <path d="M3.7 -20.55 Q5.2 -13.25 4.15 -5.85 3.2 0.85 0.35 7.05 L-0.1 7.7 -0.8 9.15 Q1.5 8.85 4.0 9.2 L9.35 10.2 Q15.4 11.85 20.0 16.0 22.35 18.15 23.6 21.05 L23.6 21.25 23.6 21.5 23.65 21.9 23.6 22.0 23.4 22.25 23.35 22.25 Q20.1 26.35 14.95 28.05 9.25 29.9 3.1 30.05 L-0.35 30.05 -10.1 28.85 Q-16.35 27.55 -22.05 24.95 -23.8 24.1 -23.5 23.0 -23.8 22.45 -23.65 21.7 -22.7 15.7 -19.2 10.75 L-19.0 10.45 -18.25 9.5 Q-13.3 3.9 -10.7 -3.15 -8.1 -10.1 -8.5 -17.6 -8.7 -21.35 -8.3 -25.0 -8.0 -28.05 -5.85 -29.3 -4.9 -29.9 -3.65 -30.1 L-3.0 -29.9 -2.05 -29.6 -1.9 -29.65 Q-0.4 -29.1 0.6 -27.7 2.9 -24.45 3.7 -20.55 M-2.65 28.55 L9.6 28.15 Q13.15 27.65 16.2 26.25 L14.35 23.35 Q11.15 18.05 5.3 16.05 L1.1 15.35 1.15 15.25 2.85 14.85 Q8.4 15.25 12.5 18.9 15.85 21.85 17.05 25.8 20.1 24.2 22.65 21.6 L22.7 21.6 Q21.0 17.95 17.65 15.55 13.2 12.4 7.85 11.05 0.15 9.1 -6.65 12.5 L-10.35 14.25 Q-10.35 13.6 -9.8 13.15 -6.35 10.15 -2.1 9.35 L-1.8 8.5 Q1.5 2.45 2.5 -4.25 L2.9 -5.85 3.45 -12.6 2.8 -19.25 Q2.1 -24.5 -1.45 -28.15 L-2.2 -28.45 -5.3 -28.3 -6.0 -27.45 Q-7.85 -24.5 -7.5 -20.8 -6.8 -13.75 -8.35 -7.05 -10.25 1.05 -15.25 7.75 L-17.9 11.55 -19.0 12.7 -19.05 12.85 -19.05 12.95 -19.5 13.6 Q-21.9 17.85 -22.35 22.7 L-22.35 22.9 -22.35 23.0 Q-21.15 24.4 -19.35 25.05 -12.4 27.4 -5.05 28.3 L-2.65 28.55" fill="#000000" fill-rule="evenodd" stroke="none"/>
    <path d="M-5.3 -28.3 L-2.2 -28.45 -1.45 -28.15 Q2.1 -24.5 2.8 -19.25 L3.45 -12.6 2.9 -5.85 2.5 -4.25 Q1.5 2.45 -1.8 8.5 L-2.1 9.35 Q-6.35 10.15 -9.8 13.15 -10.35 13.6 -10.35 14.25 L-6.65 12.5 Q0.15 9.1 7.85 11.05 13.2 12.4 17.65 15.55 21.0 17.95 22.7 21.6 L22.65 21.6 Q20.1 24.2 17.05 25.8 15.85 21.85 12.5 18.9 8.4 15.25 2.85 14.85 L1.15 15.25 1.1 15.35 5.3 16.05 Q11.15 18.05 14.35 23.35 L16.2 26.25 Q13.15 27.65 9.6 28.15 L-2.65 28.55 -8.0 24.45 Q-10.6 22.25 -12.4 19.4 L-13.2 18.1 Q-14.25 16.25 -13.0 14.55 L-12.65 13.95 -10.55 10.5 Q-7.4 6.0 -5.5 0.55 -3.75 -4.35 -3.0 -9.5 L-2.8 -12.5 -2.75 -16.5 Q-2.55 -22.8 -5.3 -28.3" fill="#55bb65" fill-rule="evenodd" stroke="none"/>
    <path d="M-5.3 -28.3 Q-2.55 -22.8 -2.75 -16.5 L-2.8 -12.5 -3.0 -9.5 Q-3.75 -4.35 -5.5 0.55 -7.4 6.0 -10.55 10.5 L-12.65 13.95 -13.0 14.55 Q-14.25 16.25 -13.2 18.1 L-12.4 19.4 Q-10.6 22.25 -8.0 24.45 L-2.65 28.55 -5.05 28.3 Q-12.4 27.4 -19.35 25.05 -21.15 24.4 -22.35 23.0 L-22.35 22.9 -22.35 22.7 Q-21.9 17.85 -19.5 13.6 L-19.05 12.95 -19.05 12.85 -19.0 12.7 -17.9 11.55 -15.25 7.75 Q-10.25 1.05 -8.35 -7.05 -6.8 -13.75 -7.5 -20.8 -7.85 -24.5 -6.0 -27.45 L-5.3 -28.3" fill="#43a752" fill-rule="evenodd" stroke="none"/>
  </g>
</svg>
