<?xml version="1.0" encoding="UTF-8" standalone="no"?>
<svg xmlns:xlink="http://www.w3.org/1999/xlink" height="30.4px" width="23.2px" xmlns="http://www.w3.org/2000/svg">
  <g transform="matrix(1.0, 0.0, 0.0, 1.0, 21.9, 22.3)">
    <path d="M-18.3 -18.75 Q-19.7 -20.3 -20.6 -16.75 L-20.35 -18.0 Q-20.0 -19.6 -19.35 -20.0 -18.65 -20.5 -18.3 -18.75 M-16.75 -13.75 L-16.6 -13.55 Q-16.1 -12.75 -15.7 -10.8 -15.2 -8.25 -15.1 -2.8 L-15.1 -0.45 -15.0 -0.3 -14.95 -0.3 -14.95 -0.25 -15.0 -0.05 -14.95 0.0 -15.05 0.2 -15.1 0.2 -15.2 2.9 Q-15.35 5.25 -17.8 5.4 L-19.2 5.3 -19.75 4.95 Q-20.2 3.95 -20.45 1.3 L-20.65 -1.25 -21.15 -1.35 -21.25 -1.45 -21.7 -1.6 -21.85 -2.0 -21.9 -2.25 -21.15 -2.0 -21.05 -1.95 -20.65 -2.0 -20.75 -4.7 Q-20.8 -8.7 -20.15 -11.45 -19.5 -14.3 -18.35 -14.45 L-17.8 -14.5 Q-17.2 -14.4 -16.75 -13.75 M-20.3 -7.85 L-20.3 -7.55 -20.3 -6.8 -20.35 -5.6 -20.3 -5.55 -20.25 -5.0 -20.25 -4.55 -20.2 -2.15 -19.4 -2.4 Q-16.95 -2.5 -15.4 -0.75 L-15.4 -3.0 Q-15.4 -8.15 -15.9 -10.4 L-15.9 -10.45 -15.95 -10.5 -16.15 -11.45 -16.2 -11.45 -16.7 -12.85 Q-17.15 -13.7 -17.85 -13.85 -19.65 -14.2 -20.35 -7.85 L-20.15 -8.7 -20.2 -8.45 -20.3 -7.85 M-19.3 4.5 L-19.05 4.6 -17.7 4.7 Q-16.45 4.65 -15.7 2.75 -15.5 2.2 -15.4 0.2 L-15.7 -0.1 -15.7 -0.15 -16.0 -0.3 -16.1 -0.4 Q-18.0 -1.45 -20.15 -1.3 L-19.9 1.15 -19.3 4.4 -19.35 4.45 -19.4 4.4 -19.5 4.45 -19.15 4.6 -19.3 4.5" fill="#000000" fill-rule="evenodd" stroke="none"/>
    <path d="M-19.3 4.4 L-19.3 4.5 -19.4 4.45 -19.35 4.45 -19.3 4.4" fill="#ffffff" fill-rule="evenodd" stroke="none"/>
    <path d="M-20.3 -7.85 L-20.2 -8.45 -20.15 -8.7 -20.35 -7.85 Q-19.65 -14.2 -17.85 -13.85 -17.15 -13.7 -16.7 -12.85 L-16.2 -11.45 -16.15 -11.45 -15.95 -10.5 -15.9 -10.45 -15.9 -10.4 Q-15.4 -8.15 -15.4 -3.0 L-15.4 -0.75 Q-16.95 -2.5 -19.4 -2.4 L-20.2 -2.15 -20.25 -4.55 -20.25 -5.0 -20.3 -5.55 -20.35 -5.6 -20.3 -6.8 -20.3 -7.55 -20.3 -7.85 M-19.3 4.4 L-19.9 1.15 -20.15 -1.3 Q-18.0 -1.45 -16.1 -0.4 L-16.0 -0.3 -15.7 -0.15 -15.7 -0.1 -15.4 0.2 Q-15.5 2.2 -15.7 2.75 -16.45 4.65 -17.7 4.7 L-19.05 4.6 -19.3 4.5 -19.3 4.4" fill="#53b3cb" fill-rule="evenodd" stroke="none"/>
    <path d="M-7.95 -20.65 Q-7.35 -22.75 -5.65 -22.15 -4.15 -21.7 -3.25 -19.85 L-2.6 -18.4 Q-4.95 -22.55 -7.95 -20.65 M-8.4 -14.75 Q-10.05 -14.55 -10.95 -13.5 L-12.1 -11.4 -11.95 -11.55 -12.25 -10.75 -12.5 -10.6 -12.5 -10.55 Q-13.35 -7.85 -12.9 -1.75 L-12.7 0.45 -12.1 0.4 -11.25 0.3 Q-8.0 0.15 -5.25 1.75 L-5.15 1.75 -4.7 1.95 -4.45 2.2 -2.35 3.2 -2.3 2.9 Q-2.05 0.8 -2.1 -1.7 -1.75 -4.75 -2.4 -7.85 L-2.45 -7.95 -2.5 -8.0 -2.55 -8.1 -2.55 -8.25 -2.6 -8.4 -2.25 -7.8 Q-4.4 -15.25 -8.4 -14.75 M-10.85 -14.6 Q-10.0 -15.4 -8.65 -15.55 L-7.3 -15.55 Q-4.85 -15.35 -3.05 -12.05 -1.4 -8.8 -1.05 -4.05 -0.8 0.0 -1.1 3.1 L-1.2 3.7 -0.6 3.9 1.3 4.35 1.3 4.45 1.2 4.55 1.1 4.6 0.5 4.6 -1.35 4.85 Q-1.75 6.6 -2.3 7.5 L-3.55 7.9 -6.65 8.1 Q-12.25 8.05 -12.75 5.25 -13.2 2.9 -13.45 -1.5 -13.9 -7.95 -12.95 -11.05 -12.25 -13.35 -11.15 -14.35 L-10.85 -14.6 M-3.4 6.85 Q-2.9 6.1 -2.6 4.65 L-3.1 4.5 Q-4.25 4.15 -5.4 3.4 -8.6 1.85 -12.15 1.25 L-12.6 1.25 Q-12.2 4.35 -11.65 5.05 -9.8 7.25 -6.95 7.3 L-3.95 7.1 -3.35 6.95 -3.7 7.1 -2.9 6.9 -3.15 6.85 -3.2 6.9 -3.4 6.85" fill="#000000" fill-rule="evenodd" stroke="none"/>
    <path d="M-3.4 6.85 L-3.2 6.9 -3.15 6.9 -3.35 6.95 -3.4 6.85" fill="#ffffff" fill-rule="evenodd" stroke="none"/>
    <path d="M-8.4 -14.75 Q-4.4 -15.25 -2.25 -7.8 L-2.6 -8.4 -2.55 -8.25 -2.55 -8.1 -2.5 -8.0 -2.45 -7.95 -2.4 -7.85 Q-1.75 -4.75 -2.1 -1.7 -2.05 0.8 -2.3 2.9 L-2.35 3.2 -4.45 2.2 -4.7 1.95 -5.15 1.75 -5.25 1.75 Q-8.0 0.15 -11.25 0.3 L-12.1 0.4 -12.7 0.45 -12.9 -1.75 Q-13.35 -7.85 -12.5 -10.55 L-12.5 -10.6 -12.25 -10.75 -11.95 -11.55 -12.1 -11.4 -10.95 -13.5 Q-10.05 -14.55 -8.4 -14.75 M-3.35 6.95 L-3.95 7.1 -6.95 7.3 Q-9.8 7.25 -11.65 5.05 -12.2 4.35 -12.6 1.25 L-12.15 1.25 Q-8.6 1.85 -5.4 3.4 -4.25 4.15 -3.1 4.5 L-2.6 4.65 Q-2.9 6.1 -3.4 6.85 L-3.35 6.95" fill="#53b3cb" fill-rule="evenodd" stroke="none"/>
  </g>
</svg>
