<?xml version="1.0" encoding="UTF-8" standalone="no"?>
<svg xmlns:xlink="http://www.w3.org/1999/xlink" height="36.0px" width="69.7px" xmlns="http://www.w3.org/2000/svg">
  <g transform="matrix(1.0, 0.0, 0.0, 1.0, 34.7, 16.95)">
    <path d="M28.15 7.35 L25.65 6.35 Q23.4 5.5 21.8 3.4 L20.85 1.85 19.15 -0.9 Q16.7 -4.8 12.35 -6.4 9.2 -7.55 4.2 -7.65 L8.85 -7.55 13.9 -6.85 Q16.5 -6.25 18.15 -4.1 L21.25 -0.05 Q22.85 2.05 25.2 3.35 L29.3 5.85 28.15 7.35 M-5.8 -8.0 L-14.35 -8.4 Q-18.65 -7.1 -20.35 -6.15 -23.05 -4.65 -24.6 -1.9 L-26.35 1.7 -26.35 0.85 Q-26.35 -0.4 -27.2 -0.6 L-27.0 -0.9 Q-21.5 -9.15 -15.75 -9.15 L-10.05 -8.55 -5.8 -8.0 M-27.5 3.6 Q-28.8 5.1 -30.55 5.1 L-31.75 3.25 Q-30.2 3.1 -29.0 1.85 -28.9 3.6 -27.6 3.6 L-27.5 3.6 M26.4 9.3 L27.3 8.35 26.4 9.3 M-25.8 -12.0 L-33.25 -3.65 Q-35.4 -5.35 -34.4 -7.85 L-32.2 -12.3 Q-30.95 -14.45 -31.0 -16.9 L-25.8 -12.0" fill="#a88b69" fill-rule="evenodd" stroke="none"/>
    <path d="M4.2 -7.65 Q9.2 -7.55 12.35 -6.4 16.7 -4.8 19.15 -0.9 L20.85 1.85 21.8 3.4 Q23.4 5.5 25.65 6.35 L28.15 7.35 27.3 8.35 26.4 9.3 Q23.0 12.65 18.5 14.9 L16.45 15.85 11.7 17.75 7.05 18.8 2.2 19.0 -3.0 19.05 -7.95 18.75 -12.45 17.9 Q-14.6 17.35 -16.45 16.25 L-20.45 14.1 Q-22.5 13.1 -24.4 11.8 L-28.1 8.8 Q-30.05 6.85 -30.55 5.1 -28.8 5.1 -27.5 3.6 -26.6 3.5 -26.4 1.85 L-26.35 1.7 -24.6 -1.9 Q-23.05 -4.65 -20.35 -6.15 -18.65 -7.1 -14.35 -8.4 L-5.8 -8.0 4.2 -7.65 M22.15 5.75 Q22.15 4.75 20.9 4.75 20.0 4.75 19.35 5.45 18.75 6.15 18.75 7.1 18.75 8.0 19.75 8.0 20.75 8.0 21.45 7.35 22.15 6.7 22.15 5.75 M-23.65 -2.6 Q-24.55 -2.6 -24.55 -1.15 -24.55 0.1 -23.65 0.1 -22.85 0.1 -22.85 -1.65 -22.85 -2.6 -23.65 -2.6" fill="#8c7357" fill-rule="evenodd" stroke="none"/>
    <path d="M29.3 5.85 L25.2 3.35 Q22.85 2.05 21.25 -0.05 L18.15 -4.1 Q16.5 -6.25 13.9 -6.85 L8.85 -7.55 4.2 -7.65 -5.8 -8.0 -10.05 -8.55 -15.75 -9.15 Q-21.5 -9.15 -27.0 -0.9 L-27.2 -0.6 Q-27.95 -0.6 -28.45 0.1 -29.0 0.85 -29.0 1.85 -30.2 3.1 -31.75 3.25 L-33.25 -3.65 -25.8 -12.0 -25.5 -11.75 Q-21.6 -14.35 -15.0 -15.75 -8.4 -17.1 -0.9 -16.9 16.05 -16.4 26.3 -9.15 26.85 -7.7 28.1 -5.7 29.45 -3.5 29.85 -1.0 L30.6 3.95 29.3 5.85 M18.5 14.9 Q23.0 12.65 26.4 9.3 22.95 12.85 18.5 14.9 M24.15 -2.0 Q24.15 -2.95 23.5 -3.15 22.65 -3.3 22.65 -2.0 22.65 -0.5 23.15 -0.5 24.15 -0.35 24.15 -2.0 M26.45 3.2 Q27.1 3.25 27.1 1.9 L27.1 1.85 Q27.1 0.4 26.1 0.8 25.8 0.9 25.85 1.85 L25.85 2.0 Q25.85 3.15 26.45 3.2 M-31.8 -3.7 Q-31.8 -2.5 -31.3 -2.5 -30.8 -2.5 -30.8 -4.2 -30.8 -5.1 -31.3 -5.1 -31.8 -5.1 -31.8 -3.7 M-28.3 -5.95 Q-28.95 -5.95 -28.95 -4.5 -28.95 -3.2 -28.3 -3.2 -27.7 -3.2 -27.7 -4.95 -27.7 -5.95 -28.3 -5.95" fill="#c19f79" fill-rule="evenodd" stroke="none"/>
    <path d="M26.3 -9.15 L30.7 -14.45 31.0 -13.15 Q32.15 -8.55 34.5 -4.35 35.55 -2.45 34.4 -0.45 33.2 1.55 31.4 3.05 L30.6 3.95 29.85 -1.0 Q29.45 -3.5 28.1 -5.7 26.85 -7.7 26.3 -9.15" fill="#b2936f" fill-rule="evenodd" stroke="none"/>
    <path d="M-26.35 1.7 L-26.4 1.85 Q-26.6 3.5 -27.5 3.6 L-27.6 3.6 Q-28.9 3.6 -29.0 1.85 -29.0 0.85 -28.45 0.1 -27.95 -0.6 -27.2 -0.6 -26.35 -0.4 -26.35 0.85 L-26.35 1.7 M24.15 -2.0 Q24.15 -0.35 23.15 -0.5 22.65 -0.5 22.65 -2.0 22.65 -3.3 23.5 -3.15 24.15 -2.95 24.15 -2.0 M26.45 3.2 Q25.85 3.15 25.85 2.0 L25.85 1.85 Q25.8 0.9 26.1 0.8 27.1 0.4 27.1 1.85 L27.1 1.9 Q27.1 3.25 26.45 3.2 M22.15 5.75 Q22.15 6.7 21.45 7.35 20.75 8.0 19.75 8.0 18.75 8.0 18.75 7.1 18.75 6.15 19.35 5.45 20.0 4.75 20.9 4.75 22.15 4.75 22.15 5.75 M-31.8 -3.7 Q-31.8 -5.1 -31.3 -5.1 -30.8 -5.1 -30.8 -4.2 -30.8 -2.5 -31.3 -2.5 -31.8 -2.5 -31.8 -3.7 M-28.3 -5.95 Q-27.7 -5.95 -27.7 -4.95 -27.7 -3.2 -28.3 -3.2 -28.95 -3.2 -28.95 -4.5 -28.95 -5.95 -28.3 -5.95 M-23.65 -2.6 Q-22.85 -2.6 -22.85 -1.65 -22.85 0.1 -23.65 0.1 -24.55 0.1 -24.55 -1.15 -24.55 -2.6 -23.65 -2.6" fill="#352c21" fill-rule="evenodd" stroke="none"/>
  </g>
</svg>
