<?xml version="1.0" encoding="UTF-8" standalone="no"?>
<svg xmlns:xlink="http://www.w3.org/1999/xlink" height="32.45px" width="36.15px" xmlns="http://www.w3.org/2000/svg">
  <g transform="matrix(1.0, 0.0, 0.0, 1.0, 10.85, 55.6)">
    <path d="M18.6 -55.6 L19.6 -53.45 19.65 -53.35 Q19.6 -52.45 18.9 -51.9 L18.75 -51.85 Q18.35 -51.85 18.1 -52.15 L18.15 -54.55 18.1 -54.8 18.45 -55.5 18.6 -55.6 M23.4 -44.65 Q24.7 -43.5 24.8 -41.75 L24.75 -41.4 Q23.3 -40.6 22.45 -42.15 22.5 -44.45 21.9 -46.45 L22.1 -46.8 Q22.45 -46.7 22.4 -46.35 L22.4 -46.2 Q23.1 -45.65 23.35 -44.75 L23.4 -44.65 M18.9 -47.45 Q20.3 -46.5 20.65 -44.95 L20.6 -44.85 Q20.15 -44.3 19.45 -44.6 L19.1 -44.95 19.0 -45.8 19.0 -46.3 Q18.65 -46.7 18.75 -47.2 L18.9 -47.45 M23.95 -38.15 Q24.3 -36.55 24.2 -34.7 L24.2 -34.55 24.45 -34.35 25.3 -31.65 Q25.0 -31.05 24.35 -30.8 23.65 -30.9 23.4 -31.6 L23.4 -31.85 23.45 -31.95 Q23.3 -34.45 23.7 -37.0 L23.8 -37.35 Q23.6 -37.8 23.8 -38.1 L23.95 -38.15 M-7.55 -44.95 Q-7.7 -43.75 -8.7 -42.95 -8.65 -41.45 -9.05 -40.05 L-9.15 -39.8 -9.85 -39.75 -10.35 -40.25 Q-10.55 -41.05 -10.4 -41.8 L-10.4 -41.9 -10.4 -42.15 -10.4 -42.25 Q-8.25 -45.0 -7.05 -47.95 -6.65 -47.65 -6.7 -47.0 L-6.7 -46.85 Q-6.85 -45.8 -7.55 -44.95 M-9.45 -35.65 L-9.4 -35.3 -9.45 -35.2 -9.35 -33.55 -9.35 -33.4 -9.65 -33.05 Q-9.6 -30.25 -9.7 -27.5 L-9.7 -27.4 -9.25 -26.85 Q-8.5 -24.6 -9.95 -23.15 -10.5 -23.15 -10.8 -23.6 -11.0 -25.0 -10.15 -26.0 -9.45 -29.5 -9.95 -33.1 L-9.95 -33.2 Q-9.95 -34.5 -9.5 -35.65 L-9.45 -35.65" fill="#dfefff" fill-rule="evenodd" stroke="none"/>
  </g>
</svg>
