<?xml version="1.0" encoding="UTF-8" standalone="no"?>
<svg xmlns:xlink="http://www.w3.org/1999/xlink" height="29.75px" width="37.0px" xmlns="http://www.w3.org/2000/svg">
  <g transform="matrix(1.0, 0.0, 0.0, 1.0, 11.55, 41.0)">
    <path d="M19.95 -40.9 L20.05 -40.95 Q20.7 -37.3 20.0 -33.6 L20.0 -33.55 20.3 -33.2 Q20.65 -31.5 20.4 -29.85 19.65 -29.5 19.25 -30.35 19.95 -35.55 19.95 -40.9 M24.7 -22.75 Q25.75 -20.2 25.3 -17.4 L25.25 -17.3 Q24.9 -17.15 24.55 -17.3 L24.2 -17.7 Q23.9 -18.25 23.95 -18.85 L23.95 -19.0 24.05 -19.2 24.2 -19.35 Q24.1 -20.0 24.35 -20.45 L24.4 -20.55 24.2 -21.4 24.2 -21.55 24.6 -22.7 24.7 -22.75 M-9.9 -14.0 Q-10.35 -12.95 -10.2 -11.7 L-10.25 -11.6 Q-10.6 -11.15 -11.15 -11.3 L-11.55 -12.15 -11.4 -12.9 -11.4 -13.0 -11.05 -13.45 -10.15 -15.3 -9.9 -14.1 -9.9 -14.0" fill="#dfefff" fill-rule="evenodd" stroke="none"/>
  </g>
</svg>
