<?xml version="1.0" encoding="UTF-8" standalone="no"?>
<svg xmlns:xlink="http://www.w3.org/1999/xlink" height="60.15px" width="112.75px" xmlns="http://www.w3.org/2000/svg">
  <g transform="matrix(1.0, 0.0, 0.0, 1.0, 47.0, 24.55)">
    <path d="M11.7 -22.05 Q10.1 -21.25 9.6 -22.25 L9.65 -22.35 11.65 -22.15 11.7 -22.05 M26.1 -23.85 L27.55 -24.0 27.9 -24.05 29.65 -24.15 Q48.35 -26.0 65.3 -19.25 L65.75 -19.05 Q47.7 -23.65 28.5 -23.5 L26.1 -23.85 M-40.9 -14.9 L-43.0 -15.2 Q-45.55 -15.35 -46.75 -17.2 L-47.0 -17.7 Q-35.75 -22.5 -22.7 -22.1 L-11.95 -21.8 -0.9 -22.4 3.35 -22.15 3.4 -22.05 -35.4 -19.75 Q-40.8 -19.55 -45.5 -17.55 -44.5 -16.9 -43.2 -16.65 L-41.45 -16.3 -40.3 -15.9 Q-38.9 -15.35 -37.35 -15.15 L-37.25 -15.05 -40.9 -14.9" fill="#dfefff" fill-rule="evenodd" stroke="none"/>
    <path d="M-11.55 35.6 L-12.7 35.6 -12.65 35.5 -12.65 35.45 -12.75 35.25 Q-12.35 32.1 -10.9 29.55 -12.9 28.75 -14.5 27.1 L-14.6 26.7 -14.4 26.2 Q-8.8 24.25 -5.35 19.2 -1.9 14.15 3.85 12.35 L3.55 9.6 Q2.3 7.3 3.8 5.5 4.75 4.3 6.25 4.35 9.1 5.65 10.15 8.1 10.85 9.75 10.75 12.05 L10.7 12.75 11.05 13.05 11.1 13.15 11.65 13.5 Q18.3 17.05 23.1 22.95 25.0 25.3 27.8 26.5 L31.35 28.15 Q30.7 30.5 28.25 32.05 L26.65 32.95 27.2 34.05 27.25 34.1 27.45 34.75 27.5 34.85 27.8 35.6 26.5 35.6 26.2 34.85 26.15 34.75 25.7 33.35 21.7 34.6 22.2 35.6 21.4 35.6 21.0 34.7 20.45 34.75 20.4 35.6 19.5 35.6 19.5 34.1 Q19.35 28.0 17.25 22.4 16.15 19.55 14.35 17.25 12.75 15.2 10.65 13.65 L10.6 13.6 10.6 13.65 10.45 14.8 10.6 15.35 10.75 15.3 11.05 15.25 Q10.9 17.7 7.8 17.85 4.05 18.0 2.75 14.9 L2.75 14.6 Q2.9 14.35 3.2 14.4 L3.2 14.35 Q3.7 14.45 3.65 15.0 L3.65 15.1 4.1 15.5 3.9 13.3 1.3 14.3 -0.45 15.7 Q-0.6 16.15 -1.15 16.6 L-1.25 16.7 Q-1.2 17.0 -1.45 17.2 L-1.55 17.3 Q-3.0 22.0 -5.3 26.35 L-6.5 28.55 -7.6 30.35 -7.75 30.55 -7.95 30.65 -7.95 30.75 -9.45 32.9 -11.2 35.1 -11.55 35.6 M5.35 35.6 L4.45 35.6 4.25 35.0 3.25 33.5 2.6 32.55 2.45 32.4 Q0.7 29.45 -2.05 31.35 L-2.7 31.95 Q-4.4 33.5 -5.3 35.6 L-11.4 35.6 -10.7 35.4 -8.85 35.05 -6.3 35.1 -6.2 35.1 Q-5.4 33.45 -4.2 31.95 L-4.15 31.9 -3.0 30.75 Q-2.3 30.05 -1.3 29.75 L-0.8 29.55 -0.3 29.4 1.3 29.8 1.75 30.1 1.95 30.2 2.75 31.15 3.4 32.0 3.95 32.9 5.35 35.6 M9.35 9.8 L9.3 9.6 Q9.05 6.55 6.1 5.5 5.3 5.2 4.65 5.7 3.7 6.4 3.65 7.4 L3.65 7.5 3.7 7.45 Q4.45 9.8 4.75 12.4 L4.85 16.05 Q7.15 17.55 9.7 15.85 L9.35 9.8 M23.95 32.9 L25.55 32.25 Q25.65 32.0 25.95 32.05 L25.95 32.0 26.0 32.05 26.75 31.7 Q28.85 30.75 30.1 28.85 22.7 25.35 17.65 18.9 L17.55 18.8 17.4 18.55 17.3 18.35 14.85 16.4 Q15.85 17.5 16.65 18.85 L17.9 21.45 18.2 22.2 Q20.3 27.95 20.4 34.1 L23.95 32.9 M-5.15 23.95 Q-3.8 21.05 -2.75 18.1 L-2.7 17.9 -2.35 17.5 -2.3 17.35 -2.4 17.45 Q-5.8 20.5 -8.8 24.0 -10.5 26.05 -13.05 26.95 L-11.65 28.0 -11.4 28.2 -9.25 29.25 -8.35 29.55 -8.15 29.4 -8.1 29.2 -8.1 29.1 -7.9 28.85 -6.75 27.2 -6.35 26.4 -6.3 26.35 -5.15 23.95 M-19.0 35.6 L-19.2 35.15 -19.8 34.35 Q-20.85 32.15 -22.8 30.65 L-23.7 29.95 -24.3 29.7 -24.45 29.65 Q-24.95 29.75 -25.3 30.0 L-26.1 30.7 -26.25 30.85 -26.45 31.05 Q-28.5 32.95 -29.7 35.55 L-29.7 35.6 -30.65 35.6 -29.1 32.7 Q-28.1 31.05 -26.65 29.95 L-26.6 29.95 Q-25.95 29.2 -25.1 28.85 L-24.6 28.65 Q-20.6 30.4 -18.6 34.2 L-18.4 32.95 -18.25 32.15 -17.95 31.9 -17.8 31.85 Q-15.95 34.1 -13.55 35.6 L-15.55 35.6 -16.9 34.1 -17.3 33.65 -17.65 35.6 -19.0 35.6 M-9.6 30.0 L-10.3 29.8 -11.35 33.4 -10.25 31.85 -8.85 30.15 -9.6 30.0" fill="#000000" fill-rule="evenodd" stroke="none"/>
    <path d="M24.4 35.6 L22.2 35.6 21.7 34.6 25.7 33.35 26.15 34.75 24.4 35.6 M3.0 35.6 L-0.35 35.6 -0.15 35.25 0.05 35.2 0.8 34.95 1.15 34.9 1.5 34.8 1.65 34.75 Q2.25 34.8 2.6 35.25 L2.9 35.55 3.0 35.6 M9.35 9.8 L9.0 10.25 8.2 11.1 Q7.3 11.95 6.1 12.3 L5.25 12.4 4.75 12.4 Q4.45 9.8 3.7 7.45 L3.65 7.4 Q3.7 6.4 4.65 5.7 5.3 5.2 6.1 5.5 9.05 6.55 9.3 9.6 L9.35 9.8 M-10.25 31.85 L-9.6 30.0 -8.85 30.15 -10.25 31.85" fill="#0db5c8" fill-rule="evenodd" stroke="none"/>
    <path d="M16.4 35.6 L14.35 35.6 12.9 34.5 Q10.85 33.0 8.55 31.95 6.4 30.9 4.05 30.3 L3.2 30.1 2.4 29.95 1.3 29.8 -0.3 29.4 -0.8 29.55 -1.3 29.75 -2.2 29.75 -4.5 29.95 -6.95 30.35 -7.95 30.75 -7.95 30.65 -7.75 30.55 -7.6 30.35 -6.5 28.55 -4.5 27.85 -2.95 27.55 -2.6 27.45 -0.8 27.4 -0.3 27.45 4.6 28.15 6.9 28.85 7.4 29.05 9.7 29.85 Q12.05 30.6 14.05 32.15 L14.85 32.7 16.6 34.1 16.5 34.75 16.4 35.6 M9.85 35.6 L5.35 35.6 3.95 32.9 4.95 33.2 7.25 34.2 7.9 34.55 8.45 34.8 9.85 35.6 M-11.4 35.6 L-11.55 35.6 -11.2 35.1 -9.45 32.9 -8.85 32.75 -8.1 32.6 Q-6.15 31.9 -4.15 31.9 L-4.2 31.95 Q-5.4 33.45 -6.2 35.1 L-6.3 35.1 -8.85 35.05 -10.7 35.4 -11.4 35.6 M-5.3 26.35 Q-3.0 22.0 -1.55 17.3 L-1.45 17.2 Q-1.2 17.0 -1.25 16.7 L-1.15 16.6 Q-0.6 16.15 -0.45 15.7 L1.3 14.3 3.9 13.3 4.1 15.5 3.65 15.1 3.65 15.0 Q3.7 14.45 3.2 14.35 L3.2 14.4 Q2.9 14.35 2.75 14.6 L2.75 14.9 Q4.05 18.0 7.8 17.85 10.9 17.7 11.05 15.25 L10.75 15.3 10.6 15.35 10.45 14.8 10.6 13.65 10.65 13.65 Q12.75 15.2 14.35 17.25 L15.7 20.25 16.05 21.45 16.6 24.15 16.7 25.15 16.8 28.5 16.8 29.75 16.8 31.55 16.6 31.35 16.25 31.0 15.1 30.15 13.85 29.35 13.4 29.05 11.0 27.85 9.95 27.35 9.5 27.1 Q8.95 26.7 8.3 26.55 L7.65 26.4 4.95 25.95 3.55 25.7 -1.3 25.4 -3.5 25.8 -3.75 25.9 -4.1 26.0 -4.65 26.1 -5.3 26.35 M23.95 32.9 L23.8 32.7 23.4 31.95 22.45 30.4 21.15 28.2 19.2 23.9 18.75 23.0 18.35 22.15 18.2 22.2 17.9 21.45 16.65 18.85 Q15.85 17.5 14.85 16.4 L17.3 18.35 17.4 18.55 17.55 18.8 17.65 18.9 Q22.7 25.35 30.1 28.85 28.85 30.75 26.75 31.7 L26.0 32.05 25.95 32.0 25.95 32.05 Q25.65 32.0 25.55 32.25 L23.95 32.9 M-5.15 23.95 L-5.75 24.55 -6.5 25.2 -9.75 27.55 -11.4 28.2 -11.65 28.0 -13.05 26.95 Q-10.5 26.05 -8.8 24.0 -5.8 20.5 -2.4 17.45 L-2.35 17.5 -2.7 17.9 -2.75 18.1 Q-3.8 21.05 -5.15 23.95" fill="#f02d0b" fill-rule="evenodd" stroke="none"/>
    <path d="M18.45 35.6 L16.4 35.6 16.5 34.75 16.6 34.1 17.15 34.5 17.5 34.75 18.45 35.6 M14.35 17.25 Q16.15 19.55 17.25 22.4 19.35 28.0 19.5 34.1 L18.85 33.3 18.65 33.15 18.25 32.75 17.95 32.5 16.8 31.55 16.8 29.75 16.8 28.5 16.7 25.15 16.6 24.15 16.05 21.45 15.7 20.25 14.35 17.25 M18.2 22.2 L18.35 22.15 18.75 23.0 19.2 23.9 21.15 28.2 22.45 30.4 23.4 31.95 23.8 32.7 23.95 32.9 20.4 34.1 Q20.3 27.95 18.2 22.2 M-11.4 28.2 L-9.75 27.55 -6.5 25.2 -5.75 24.55 -5.15 23.95 -6.3 26.35 -6.35 26.4 -6.75 27.2 -7.9 28.85 -8.1 29.1 -8.1 29.2 -8.15 29.4 -8.35 29.55 -9.25 29.25 -11.4 28.2" fill="#d6280a" fill-rule="evenodd" stroke="none"/>
    <path d="M26.5 35.6 L24.4 35.6 26.15 34.75 26.2 34.85 26.5 35.6 M4.45 35.6 L3.0 35.6 2.9 35.55 2.6 35.25 Q2.25 34.8 1.65 34.75 L1.5 34.8 1.15 34.9 0.8 34.95 0.05 35.2 -0.15 35.25 -0.35 35.6 -5.3 35.6 Q-4.4 33.5 -2.7 31.95 L-2.05 31.35 Q0.7 29.45 2.45 32.4 L2.6 32.55 3.25 33.5 4.25 35.0 4.45 35.6 M4.75 12.4 L5.25 12.4 6.1 12.3 Q7.3 11.95 8.2 11.1 L9.0 10.25 9.35 9.8 9.7 15.85 Q7.15 17.55 4.85 16.05 L4.75 12.4 M-29.7 35.6 L-29.7 35.55 Q-28.5 32.95 -26.45 31.05 L-26.25 30.85 -26.1 30.7 -25.3 30.0 Q-24.95 29.75 -24.45 29.65 L-24.3 29.7 -23.7 29.95 -22.8 30.65 Q-20.85 32.15 -19.8 34.35 L-19.2 35.15 -19.0 35.6 -29.7 35.6 M-10.25 31.85 L-11.35 33.4 -10.3 29.8 -9.6 30.0 -10.25 31.85" fill="#0ecfe4" fill-rule="evenodd" stroke="none"/>
    <path d="M-17.65 35.6 L-17.3 33.65 -16.9 34.1 -15.55 35.6 -17.65 35.6" fill="#666666" fill-rule="evenodd" stroke="none"/>
    <path d="M19.5 35.6 L18.45 35.6 17.5 34.75 17.15 34.5 16.6 34.1 14.85 32.7 14.05 32.15 Q12.05 30.6 9.7 29.85 L7.4 29.05 6.9 28.85 4.6 28.15 -0.3 27.45 -0.8 27.4 -2.6 27.45 -2.95 27.55 -4.5 27.85 -6.5 28.55 -5.3 26.35 -4.65 26.1 -4.1 26.0 -3.75 25.9 -3.5 25.8 -1.3 25.4 3.55 25.7 4.95 25.95 7.65 26.4 8.3 26.55 Q8.95 26.7 9.5 27.1 L9.95 27.35 11.0 27.85 13.4 29.05 13.85 29.35 15.1 30.15 16.25 31.0 16.6 31.35 16.8 31.55 17.95 32.5 18.25 32.75 18.65 33.15 18.85 33.3 19.5 34.1 19.5 35.6 M14.35 35.6 L9.85 35.6 8.45 34.8 7.9 34.55 7.25 34.2 4.95 33.2 3.95 32.9 3.4 32.0 2.75 31.15 1.95 30.2 1.75 30.1 1.3 29.8 2.4 29.95 3.2 30.1 4.05 30.3 Q6.4 30.9 8.55 31.95 10.85 33.0 12.9 34.5 L14.35 35.6 M-9.45 32.9 L-7.95 30.75 -6.95 30.35 -4.5 29.95 -2.2 29.75 -1.3 29.75 Q-2.3 30.05 -3.0 30.75 L-4.15 31.9 Q-6.15 31.9 -8.1 32.6 L-8.85 32.75 -9.45 32.9" fill="#c62509" fill-rule="evenodd" stroke="none"/>
  </g>
</svg>
