<?xml version="1.0" encoding="UTF-8" standalone="no"?>
<svg xmlns:xlink="http://www.w3.org/1999/xlink" height="42.05px" width="118.4px" xmlns="http://www.w3.org/2000/svg">
  <g transform="matrix(1.0, 0.0, 0.0, 1.0, 52.9, 26.9)">
    <path d="M10.75 -26.25 L-25.2 -24.3 Q-38.35 -23.45 -51.3 -21.1 -45.5 -23.5 -39.05 -24.2 -18.4 -26.55 2.3 -26.8 L10.65 -26.35 10.75 -26.25 M35.25 -19.35 Q50.85 -18.95 65.4 -13.55 L65.5 -13.45 Q49.0 -17.55 32.2 -19.05 L35.25 -19.3 35.25 -19.35 M65.5 -17.1 L50.55 -20.0 Q31.2 -23.15 11.55 -23.05 -17.0 -23.0 -44.9 -17.55 L-52.9 -15.65 Q-44.0 -19.6 -34.1 -20.85 -10.25 -23.9 13.8 -24.4 32.9 -23.95 51.85 -21.05 59.45 -19.85 65.5 -17.1" fill="#dfefff" fill-rule="evenodd" stroke="none"/>
    <path d="M-11.55 15.15 L-12.7 15.15 -12.65 15.05 -12.65 15.0 -12.75 14.8 Q-12.35 11.65 -10.9 9.15 -12.9 8.35 -14.5 6.65 L-14.6 6.25 Q-14.6 5.95 -14.4 5.8 -8.8 3.8 -5.35 -1.25 -1.9 -6.3 3.85 -8.1 L3.55 -10.85 Q2.3 -13.15 3.8 -14.95 4.75 -16.15 6.25 -16.1 9.1 -14.8 10.15 -12.35 10.85 -10.7 10.75 -8.4 L10.7 -7.7 11.05 -7.4 11.1 -7.3 11.65 -6.95 Q18.3 -3.4 23.1 2.5 25.0 4.85 27.8 6.05 L31.35 7.7 Q30.7 10.05 28.25 11.6 L26.65 12.5 27.2 13.6 27.25 13.65 27.45 14.3 27.5 14.4 27.8 15.15 26.5 15.15 26.2 14.4 26.15 14.3 25.7 12.95 Q23.75 13.75 21.7 14.15 L22.2 15.15 21.4 15.15 21.0 14.25 20.45 14.3 20.4 15.15 19.5 15.15 19.5 13.65 Q19.35 7.6 17.25 1.95 16.15 -0.9 14.35 -3.2 12.75 -5.25 10.65 -6.8 L10.6 -6.8 10.45 -5.6 10.6 -5.1 10.75 -5.15 11.05 -5.15 Q10.9 -2.75 7.8 -2.6 4.05 -2.45 2.75 -5.55 L2.75 -5.85 3.2 -6.05 3.2 -6.1 Q3.7 -6.0 3.65 -5.45 L3.65 -5.35 4.1 -4.95 3.9 -7.15 1.3 -6.15 -0.45 -4.75 -1.15 -3.8 -1.25 -3.75 Q-1.2 -3.45 -1.45 -3.25 L-1.55 -3.15 Q-3.0 1.55 -5.3 5.9 L-6.5 8.1 -7.6 9.9 -7.75 10.1 -7.95 10.2 -7.95 10.3 -9.45 12.5 -11.2 14.65 -11.55 15.15 M5.35 15.15 L4.45 15.15 4.25 14.55 3.25 13.05 2.6 12.15 2.45 12.0 Q0.7 9.0 -2.05 10.9 L-2.7 11.5 Q-4.4 13.1 -5.3 15.15 L-11.4 15.15 -10.7 14.95 -8.85 14.6 -6.3 14.65 -6.2 14.65 Q-5.4 13.0 -4.2 11.55 L-4.15 11.45 -3.0 10.3 Q-2.3 9.6 -1.3 9.3 L-0.8 9.15 -0.3 9.0 1.3 9.4 1.75 9.65 1.95 9.75 2.75 10.7 3.4 11.55 3.95 12.45 5.35 15.15 M9.35 -10.65 L9.3 -10.85 Q9.05 -13.9 6.1 -14.95 5.3 -15.25 4.65 -14.75 3.7 -14.05 3.65 -13.0 L3.65 -12.95 3.7 -13.0 Q4.45 -10.65 4.75 -8.05 L4.85 -4.4 Q7.15 -2.9 9.7 -4.6 L9.35 -10.65 M23.95 12.45 L25.55 11.8 Q25.65 11.55 25.95 11.6 L25.95 11.55 26.0 11.6 26.75 11.3 Q28.85 10.3 30.1 8.4 22.7 4.95 17.65 -1.5 L17.55 -1.6 17.4 -1.9 17.3 -2.1 14.85 -4.05 16.65 -1.6 17.9 1.0 18.2 1.8 Q20.3 7.5 20.4 13.7 L23.95 12.45 M-2.35 -2.95 L-2.3 -3.1 -2.4 -3.0 Q-5.8 0.05 -8.8 3.55 -10.5 5.6 -13.05 6.5 L-11.65 7.6 -11.4 7.75 -9.25 8.8 -8.35 9.15 -8.15 8.95 -8.1 8.75 -8.1 8.65 -7.9 8.4 -6.75 6.75 -6.35 5.95 -6.3 5.9 -5.15 3.5 Q-3.8 0.6 -2.75 -2.35 L-2.7 -2.55 -2.35 -2.95 M-9.6 9.55 L-10.3 9.35 -11.35 12.95 -10.25 11.4 -8.85 9.7 -9.6 9.55 M-29.7 15.15 L-30.65 15.15 -29.1 12.25 Q-28.1 10.6 -26.65 9.5 L-26.6 9.5 Q-25.95 8.75 -25.1 8.4 L-24.6 8.2 Q-20.6 10.0 -18.6 13.75 L-18.4 12.55 -18.25 11.7 -17.95 11.45 -17.8 11.4 Q-15.95 13.65 -13.55 15.15 L-15.55 15.15 -16.9 13.7 -17.3 13.2 -17.65 15.15 -19.0 15.15 -19.2 14.75 Q-19.4 14.25 -19.8 13.9 -20.85 11.7 -22.8 10.2 L-23.7 9.5 -24.3 9.25 -24.45 9.2 Q-24.95 9.3 -25.3 9.6 L-26.1 10.25 -26.25 10.4 -26.45 10.6 Q-28.5 12.5 -29.7 15.1 L-29.7 15.15" fill="#000000" fill-rule="evenodd" stroke="none"/>
    <path d="M24.4 15.15 L22.2 15.15 21.7 14.15 Q23.75 13.75 25.7 12.95 L26.15 14.3 24.4 15.15 M3.0 15.15 L-0.35 15.15 -0.15 14.85 0.05 14.75 0.8 14.5 1.15 14.5 1.5 14.4 Q1.5 14.3 1.65 14.3 2.25 14.35 2.6 14.8 L2.9 15.1 3.0 15.15 M3.65 -13.0 Q3.7 -14.05 4.65 -14.75 5.3 -15.25 6.1 -14.95 9.05 -13.9 9.3 -10.85 L9.35 -10.65 9.0 -10.2 8.2 -9.35 Q7.3 -8.5 6.1 -8.15 L5.25 -8.05 4.75 -8.05 Q4.45 -10.65 3.7 -13.0 L3.65 -13.0 M-10.25 11.4 L-9.6 9.55 -8.85 9.7 -10.25 11.4" fill="#0db5c8" fill-rule="evenodd" stroke="none"/>
    <path d="M26.5 15.15 L24.4 15.15 26.15 14.3 26.2 14.4 26.5 15.15 M4.45 15.15 L3.0 15.15 2.9 15.1 2.6 14.8 Q2.25 14.35 1.65 14.3 1.5 14.3 1.5 14.4 L1.15 14.5 0.8 14.5 0.05 14.75 -0.15 14.85 -0.35 15.15 -5.3 15.15 Q-4.4 13.1 -2.7 11.5 L-2.05 10.9 Q0.7 9.0 2.45 12.0 L2.6 12.15 3.25 13.05 4.25 14.55 4.45 15.15 M4.75 -8.05 L5.25 -8.05 6.1 -8.15 Q7.3 -8.5 8.2 -9.35 L9.0 -10.2 9.35 -10.65 9.7 -4.6 Q7.15 -2.9 4.85 -4.4 L4.75 -8.05 M-9.6 9.55 L-10.25 11.4 -11.35 12.95 -10.3 9.35 -9.6 9.55 M-19.0 15.15 L-29.7 15.15 -29.7 15.1 Q-28.5 12.5 -26.45 10.6 L-26.25 10.4 -26.1 10.25 -25.3 9.6 Q-24.95 9.3 -24.45 9.2 L-24.3 9.25 -23.7 9.5 -22.8 10.2 Q-20.85 11.7 -19.8 13.9 -19.4 14.25 -19.2 14.75 L-19.0 15.15" fill="#0ecfe4" fill-rule="evenodd" stroke="none"/>
    <path d="M16.4 15.15 L14.35 15.15 12.9 14.05 Q10.85 12.6 8.55 11.5 6.4 10.45 4.05 9.85 L3.2 9.65 2.4 9.5 1.3 9.4 -0.3 9.0 -0.8 9.15 -1.3 9.3 -2.2 9.35 -4.5 9.5 -6.95 9.95 -7.95 10.3 -7.95 10.2 -7.75 10.1 -7.6 9.9 -6.5 8.1 -4.5 7.4 -2.95 7.1 -2.6 7.0 -0.8 6.95 -0.3 7.0 4.6 7.75 6.9 8.4 7.4 8.6 9.7 9.4 Q12.05 10.2 14.05 11.75 L14.85 12.25 16.6 13.65 16.5 14.3 16.4 15.15 M9.85 15.15 L5.35 15.15 3.95 12.45 4.95 12.8 7.25 13.8 7.9 14.1 8.45 14.4 9.85 15.15 M-11.4 15.15 L-11.55 15.15 -11.2 14.65 -9.45 12.5 -8.85 12.35 -8.1 12.15 Q-6.15 11.5 -4.15 11.45 L-4.2 11.55 Q-5.4 13.0 -6.2 14.65 L-6.3 14.65 -8.85 14.6 -10.7 14.95 -11.4 15.15 M-5.3 5.9 Q-3.0 1.55 -1.55 -3.15 L-1.45 -3.25 Q-1.2 -3.45 -1.25 -3.75 L-1.15 -3.8 -0.45 -4.75 1.3 -6.15 3.9 -7.15 4.1 -4.95 3.65 -5.35 3.65 -5.45 Q3.7 -6.0 3.2 -6.1 L3.2 -6.05 2.75 -5.85 2.75 -5.55 Q4.05 -2.45 7.8 -2.6 10.9 -2.75 11.05 -5.15 L10.75 -5.15 10.6 -5.1 10.45 -5.6 10.6 -6.8 10.65 -6.8 Q12.75 -5.25 14.35 -3.2 L15.7 -0.2 16.05 1.0 16.6 3.7 16.7 4.7 16.8 8.05 16.8 9.35 16.8 11.1 16.6 10.9 16.25 10.6 15.1 9.7 13.85 8.9 13.4 8.6 11.0 7.4 9.95 6.95 9.5 6.65 Q8.95 6.25 8.3 6.15 L7.65 5.95 4.95 5.5 3.55 5.25 -1.3 4.95 -3.5 5.35 -3.75 5.45 -4.1 5.55 -4.65 5.7 -5.3 5.9 M18.2 1.8 L17.9 1.0 16.65 -1.6 14.85 -4.05 17.3 -2.1 17.4 -1.9 17.55 -1.6 17.65 -1.5 Q22.7 4.95 30.1 8.4 28.85 10.3 26.75 11.3 L26.0 11.6 25.95 11.55 25.95 11.6 Q25.65 11.55 25.55 11.8 L23.95 12.45 23.8 12.25 23.4 11.5 22.45 9.95 21.15 7.75 19.2 3.45 18.75 2.55 18.35 1.7 18.2 1.8 M-2.4 -3.0 L-2.35 -2.95 -2.7 -2.55 -2.75 -2.35 Q-3.8 0.6 -5.15 3.5 L-5.75 4.1 -6.5 4.8 Q-8.05 6.1 -9.75 7.1 L-11.4 7.75 -11.65 7.6 -13.05 6.5 Q-10.5 5.6 -8.8 3.55 -5.8 0.05 -2.4 -3.0" fill="#f02d0b" fill-rule="evenodd" stroke="none"/>
    <path d="M18.45 15.15 L16.4 15.15 16.5 14.3 16.6 13.65 17.15 14.05 17.5 14.3 18.45 15.15 M14.35 -3.2 Q16.15 -0.9 17.25 1.95 19.35 7.6 19.5 13.65 L18.85 12.85 18.65 12.7 18.25 12.3 17.95 12.1 16.8 11.1 16.8 9.35 16.8 8.05 16.7 4.7 16.6 3.7 16.05 1.0 15.7 -0.2 14.35 -3.2 M18.2 1.8 L18.35 1.7 18.75 2.55 19.2 3.45 21.15 7.75 22.45 9.95 23.4 11.5 23.8 12.25 23.95 12.45 20.4 13.7 Q20.3 7.5 18.2 1.8 M-11.4 7.75 L-9.75 7.1 Q-8.05 6.1 -6.5 4.8 L-5.75 4.1 -5.15 3.5 -6.3 5.9 -6.35 5.95 -6.75 6.75 -7.9 8.4 -8.1 8.65 -8.1 8.75 -8.15 8.95 -8.35 9.15 -9.25 8.8 -11.4 7.75" fill="#d6280a" fill-rule="evenodd" stroke="none"/>
    <path d="M19.5 15.15 L18.45 15.15 17.5 14.3 17.15 14.05 16.6 13.65 14.85 12.25 14.05 11.75 Q12.05 10.2 9.7 9.4 L7.4 8.6 6.9 8.4 4.6 7.75 -0.3 7.0 -0.8 6.95 -2.6 7.0 -2.95 7.1 -4.5 7.4 -6.5 8.1 -5.3 5.9 -4.65 5.7 -4.1 5.55 -3.75 5.45 -3.5 5.35 -1.3 4.95 3.55 5.25 4.95 5.5 7.65 5.95 8.3 6.15 Q8.95 6.25 9.5 6.65 L9.95 6.95 11.0 7.4 13.4 8.6 13.85 8.9 15.1 9.7 16.25 10.6 16.6 10.9 16.8 11.1 17.95 12.1 18.25 12.3 18.65 12.7 18.85 12.85 19.5 13.65 19.5 15.15 M14.35 15.15 L9.85 15.15 8.45 14.4 7.9 14.1 7.25 13.8 4.95 12.8 3.95 12.45 3.4 11.55 2.75 10.7 1.95 9.75 1.75 9.65 1.3 9.4 2.4 9.5 3.2 9.65 4.05 9.85 Q6.4 10.45 8.55 11.5 10.85 12.6 12.9 14.05 L14.35 15.15 M-9.45 12.5 L-7.95 10.3 -6.95 9.95 -4.5 9.5 -2.2 9.35 -1.3 9.3 Q-2.3 9.6 -3.0 10.3 L-4.15 11.45 Q-6.15 11.5 -8.1 12.15 L-8.85 12.35 -9.45 12.5" fill="#c62509" fill-rule="evenodd" stroke="none"/>
    <path d="M-15.55 15.15 L-17.65 15.15 -17.3 13.2 -16.9 13.7 -15.55 15.15" fill="#666666" fill-rule="evenodd" stroke="none"/>
  </g>
</svg>
