<?xml version="1.0" encoding="UTF-8" standalone="no"?>
<svg xmlns:xlink="http://www.w3.org/1999/xlink" height="72.6px" width="65.6px" xmlns="http://www.w3.org/2000/svg">
  <g transform="matrix(1.0, 0.0, 0.0, 1.0, 32.8, 36.3)">
    <path d="M30.5 -26.8 Q25.4 -21.45 19.85 -16.6 L13.65 -11.05 Q14.4 -10.25 14.8 -9.25 17.55 -4.9 17.2 0.7 L16.8 2.8 17.05 3.1 17.1 3.1 17.45 3.6 Q20.0 7.3 17.7 11.7 L16.95 13.0 15.95 14.2 14.25 15.9 13.65 16.7 Q8.35 21.9 3.8 27.75 1.4 30.8 -1.7 33.1 L-1.9 33.2 Q-5.8 36.2 -11.35 36.3 L-13.25 36.3 Q-15.25 36.45 -17.3 35.6 -22.3 33.45 -25.9 29.55 L-26.5 28.8 -26.8 28.35 -27.65 27.1 -27.95 26.5 Q-31.85 24.5 -32.6 19.8 -33.0 17.45 -32.65 15.2 L-32.45 14.2 Q-32.15 12.6 -31.45 11.1 L-30.7 9.6 Q-31.1 7.6 -30.6 5.65 -30.2 3.75 -28.75 2.6 -28.25 1.95 -27.45 1.65 L-26.4 1.35 -26.15 1.3 Q-23.95 1.05 -22.45 2.4 -17.95 0.8 -13.15 0.8 L-12.9 0.8 -11.85 0.8 -10.95 0.3 Q-11.2 -2.55 -10.45 -5.15 L-10.7 -5.2 -10.55 -5.65 Q-12.15 -5.9 -13.0 -7.85 L-12.85 -8.3 -12.75 -8.35 -12.65 -8.15 -12.65 -8.05 Q-11.65 -6.8 -10.25 -6.4 L-10.25 -6.45 -10.2 -6.55 Q-11.5 -7.2 -12.1 -8.6 -12.45 -9.3 -12.05 -9.6 -11.3 -8.0 -9.95 -7.3 L-9.9 -7.45 -9.8 -7.55 -10.0 -7.75 Q-11.2 -9.1 -10.85 -10.55 -10.6 -9.35 -9.75 -8.4 L-9.75 -8.3 -9.65 -8.25 -8.9 -10.7 -7.95 -12.4 Q-6.25 -14.55 -3.7 -15.55 -2.9 -15.95 -1.95 -16.2 L-1.05 -16.35 Q-2.95 -22.65 -2.95 -29.5 -3.0 -31.75 -1.6 -33.5 L-1.0 -34.05 0.2 -34.8 0.7 -35.0 Q3.45 -34.85 4.25 -32.05 6.25 -24.85 4.9 -17.4 L4.7 -16.2 Q6.85 -15.75 8.8 -14.75 11.65 -20.1 15.0 -25.2 18.2 -30.0 22.7 -33.75 25.35 -36.0 28.7 -36.3 32.7 -36.3 32.8 -32.7 32.85 -29.25 30.5 -26.8 M-7.95 -10.1 L-7.8 -10.2 -7.65 -10.25 -7.2 -10.2 -6.85 -10.1 -6.7 -10.0 Q-5.4 -7.3 -6.25 -4.25 L-7.75 0.35 -5.8 1.45 -5.65 1.55 -5.5 1.7 -5.4 1.6 Q-5.85 -1.4 -4.75 -4.5 -3.85 -7.1 -2.05 -8.85 -0.55 -11.05 2.2 -11.2 4.6 -10.0 5.35 -7.7 6.4 -8.0 7.45 -8.6 L7.5 -8.65 Q6.7 -10.1 5.35 -11.35 L4.45 -12.25 1.75 -12.95 Q2.4 -13.55 3.55 -13.35 6.55 -12.75 8.05 -9.95 L8.1 -9.9 8.3 -9.35 8.45 -9.45 8.5 -9.45 8.35 -9.05 8.5 -7.8 8.35 -6.5 8.15 -7.1 Q7.1 -5.65 5.65 -5.35 L5.65 -5.0 Q7.3 -5.1 8.8 -6.2 L8.9 -6.2 Q8.05 -4.5 6.15 -4.0 L6.05 -3.95 5.55 -3.85 5.25 -2.0 Q4.65 1.2 2.9 3.65 5.4 4.65 7.95 4.75 11.35 4.85 14.7 3.25 L15.8 2.7 16.0 1.35 16.2 0.8 Q16.35 -3.95 14.55 -8.05 14.35 -8.15 14.3 -8.4 L13.3 -9.8 12.9 -10.35 12.5 -10.0 12.45 -9.7 12.35 -9.5 Q10.9 -9.45 9.9 -10.05 8.75 -10.75 8.3 -12.3 L8.1 -12.45 8.0 -12.55 7.95 -12.8 8.0 -13.2 8.1 -13.5 8.35 -13.9 Q4.2 -15.95 -0.95 -15.3 L-3.0 -14.95 Q-4.4 -14.25 -5.6 -13.15 L-4.45 -13.3 Q-4.15 -12.35 -5.9 -11.85 L-7.2 -11.45 -7.95 -10.15 -8.0 -10.1 -7.95 -10.1 M5.6 -6.35 Q6.9 -6.65 8.1 -7.25 L7.75 -8.15 Q6.95 -7.25 5.55 -6.75 L5.6 -6.35 M1.1 -10.25 L-0.05 -9.6 -0.55 -9.05 -0.3 -9.0 Q1.15 -8.55 2.25 -7.5 L4.0 -7.5 4.25 -7.5 Q3.7 -9.0 2.45 -10.2 L1.1 -10.25 M0.6 -7.85 Q-0.1 -8.4 -0.9 -8.55 L-1.1 -8.6 Q-2.7 -7.05 -3.45 -4.85 -3.5 -4.65 -3.7 -4.6 L-4.2 -3.0 -3.65 -3.3 -3.4 -3.45 Q0.05 -3.2 0.3 0.35 L0.35 0.65 -2.85 0.55 -3.3 0.7 -3.4 0.8 -3.4 0.85 Q-2.45 1.7 -1.05 2.2 L0.0 2.55 -0.7 3.95 -1.4 4.8 Q-1.85 5.1 -2.25 5.2 L-1.7 6.05 -0.7 5.9 -0.15 5.45 1.9 3.3 Q3.25 1.55 4.0 -0.6 L4.15 -1.1 4.05 -1.2 4.0 -1.5 Q3.35 -4.2 1.75 -6.4 L0.6 -7.85 M4.35 -6.5 L3.2 -6.45 3.2 -6.4 3.95 -6.15 4.4 -6.15 4.6 -6.2 4.55 -6.5 4.35 -6.5 M3.95 -5.2 L4.4 -5.1 4.45 -5.25 3.85 -5.35 3.95 -5.2 M15.1 10.75 L15.05 10.75 15.05 10.5 15.1 10.6 15.1 10.65 15.1 10.75 M-31.3 13.65 Q-32.35 18.6 -29.65 23.15 L-28.85 24.0 -28.75 24.1 -28.55 24.7 -26.7 26.75 -26.5 27.1 -24.4 29.8 Q-21.25 33.2 -16.4 34.7 L-13.05 35.4 Q-6.05 35.6 -0.75 31.2 L-0.7 31.15 0.1 30.35 2.95 27.35 6.25 23.55 7.65 21.85 Q9.75 19.2 12.1 16.85 L16.55 11.65 16.9 11.2 Q17.9 9.95 17.9 8.4 L17.85 7.55 17.7 6.6 Q17.35 4.9 16.3 3.5 10.85 7.2 4.15 5.25 L3.0 4.8 2.3 4.4 1.45 5.3 0.55 6.1 0.0 6.4 -0.25 6.5 -0.8 6.75 -1.25 6.9 Q-0.2 8.95 0.3 11.3 L0.35 11.6 Q0.45 12.3 0.15 12.9 L-0.25 11.55 -0.55 10.75 Q-2.1 6.15 -5.45 3.2 -6.45 2.3 -7.55 1.6 -8.65 1.1 -9.55 1.05 -12.05 0.95 -13.25 3.9 L-13.75 5.35 Q-14.35 7.65 -14.0 10.05 L-13.8 11.1 -13.8 11.15 -13.9 11.65 -14.0 11.75 -14.1 11.7 -14.35 11.45 -14.7 10.95 -14.75 10.85 -14.85 9.6 -14.9 7.85 Q-14.9 6.45 -14.55 5.15 L-14.35 4.55 Q-13.8 3.1 -12.85 1.85 L-12.8 1.85 -12.7 1.7 -12.7 1.65 -12.35 1.25 -12.75 1.6 -12.9 1.8 -12.9 1.85 -15.3 1.9 Q-19.5 2.2 -23.45 3.85 L-24.4 4.1 -24.5 4.0 -24.55 3.8 -24.55 3.75 -24.25 3.45 -24.2 3.35 -24.15 3.3 -24.15 3.25 -23.95 3.2 -23.7 3.05 -23.55 3.0 -23.65 2.9 -23.6 2.55 -26.2 2.4 -27.5 2.9 -27.75 3.0 Q-29.4 4.75 -29.5 7.15 L-29.5 7.95 -29.5 8.1 -29.1 7.65 -28.75 7.55 Q-28.75 8.1 -29.05 8.7 L-29.6 9.6 -29.6 9.65 -29.65 9.85 -29.75 9.85 -29.8 9.85 -30.25 10.4 -30.95 12.3 -31.15 13.0 -31.3 13.65 M0.15 1.35 L0.3 1.3 0.3 1.4 0.15 1.35 M-10.4 -1.3 L-10.35 -1.25 -10.4 -0.9 -10.25 -0.15 -10.25 0.1 -9.85 0.1 -9.95 -1.0 -8.5 -0.7 -8.35 -0.75 -8.05 -1.05 -8.05 -1.1 Q-8.65 -1.85 -9.6 -2.15 L-9.75 -2.05 -9.8 -2.0 -9.35 -3.0 -8.65 -3.75 -8.55 -3.8 -8.4 -3.85 -7.95 -3.85 -7.9 -3.85 -7.65 -3.8 -7.4 -3.75 Q-7.15 -5.25 -7.05 -6.75 L-7.5 -6.65 -7.9 -6.5 -8.05 -6.35 -8.65 -6.15 -8.9 -6.0 -8.9 -5.85 -8.95 -5.75 -9.35 -5.65 -9.45 -5.55 -9.7 -4.75 Q-10.2 -3.15 -10.35 -1.4 L-10.4 -1.3 M-7.2 -9.45 L-7.5 -9.5 -7.75 -9.1 -7.75 -9.05 -8.5 -7.75 -7.9 -7.35 -7.45 -7.45 -7.4 -7.5 -7.0 -7.5 -6.95 -8.55 -6.9 -9.0 -7.15 -9.3 -7.2 -9.45 M-7.75 6.15 Q-5.45 7.4 -4.45 9.95 -3.55 12.2 -4.9 14.0 L-5.0 14.05 Q-6.25 14.4 -7.35 13.6 -9.7 11.3 -9.45 8.05 L-9.4 7.4 -9.3 7.2 -9.2 7.1 -9.2 6.9 -9.15 6.75 -8.75 6.35 -8.55 6.2 -7.95 6.15 -7.75 6.15 M-20.65 28.75 Q-16.7 29.5 -14.0 32.15 L-13.95 32.2 Q-14.3 34.6 -16.9 33.45 -19.85 32.2 -21.1 29.2 L-21.0 29.05 -20.85 28.85 -20.65 28.75 M-15.65 32.85 L-14.9 32.6 Q-16.75 30.6 -19.4 30.2 -18.2 32.25 -15.85 32.8 L-15.65 32.85" fill="#000000" fill-rule="evenodd" stroke="none"/>
    <path d="M7.95 4.75 Q5.4 4.65 2.9 3.65 4.65 1.2 5.25 -2.0 L5.55 -3.85 6.05 -3.95 6.15 -4.0 Q8.05 -4.5 8.9 -6.2 L8.8 -6.2 Q7.3 -5.1 5.65 -5.0 L5.65 -5.35 Q7.1 -5.65 8.15 -7.1 L8.35 -6.5 8.5 -7.8 8.35 -9.05 8.5 -9.45 8.45 -9.45 8.3 -9.35 8.1 -9.9 8.05 -9.95 Q6.55 -12.75 3.55 -13.35 2.4 -13.55 1.75 -12.95 L4.45 -12.25 5.35 -11.35 Q6.7 -10.1 7.5 -8.65 L7.45 -8.6 Q6.4 -8.0 5.35 -7.7 4.6 -10.0 2.2 -11.2 -0.55 -11.05 -2.05 -8.85 -3.85 -7.1 -4.75 -4.5 -5.85 -1.4 -5.4 1.6 L-5.5 1.7 -5.65 1.55 -5.8 1.45 -7.75 0.35 -6.25 -4.25 Q-5.4 -7.3 -6.7 -10.0 L-6.85 -10.1 -7.2 -10.2 -7.65 -10.25 -7.8 -10.2 -7.95 -10.1 -7.95 -10.15 -7.2 -11.45 -5.9 -11.85 Q-4.15 -12.35 -4.45 -13.3 L-5.6 -13.15 Q-4.4 -14.25 -3.0 -14.95 L-0.95 -15.3 Q4.2 -15.95 8.35 -13.9 L8.1 -13.5 8.0 -13.2 7.95 -12.8 8.0 -12.55 8.1 -12.45 8.3 -12.3 Q8.75 -10.75 9.9 -10.05 L10.35 -8.05 10.5 -7.1 Q11.15 -2.1 8.65 2.15 L8.65 2.2 8.8 2.3 Q8.9 3.7 7.95 4.75 M1.1 -10.25 L2.45 -10.2 Q3.7 -9.0 4.25 -7.5 L4.0 -7.5 2.25 -7.5 Q1.15 -8.55 -0.3 -9.0 L-0.55 -9.05 -0.05 -9.6 1.1 -10.25 M5.6 -6.35 L5.55 -6.75 Q6.95 -7.25 7.75 -8.15 L8.1 -7.25 Q6.9 -6.65 5.6 -6.35 M3.95 -5.2 L3.85 -5.35 4.45 -5.25 4.4 -5.1 3.95 -5.2 M4.35 -6.5 L4.55 -6.5 4.6 -6.2 4.4 -6.15 3.95 -6.15 3.2 -6.4 3.2 -6.45 4.35 -6.5 M-7.2 -9.45 L-7.15 -9.3 -6.9 -9.0 -6.95 -8.55 -7.0 -7.5 -7.4 -7.5 -7.45 -7.45 -7.9 -7.35 -8.5 -7.75 -7.75 -9.05 -7.75 -9.1 -7.5 -9.5 -7.2 -9.45" fill="#75640a" fill-rule="evenodd" stroke="none"/>
    <path d="M0.6 -7.85 L1.75 -6.4 Q3.35 -4.2 4.0 -1.5 L4.05 -1.2 4.15 -1.1 4.0 -0.6 Q3.25 1.55 1.9 3.3 L-0.15 5.45 -0.7 5.9 -1.7 6.05 -2.25 5.2 Q-1.85 5.1 -1.4 4.8 L-0.7 3.95 0.0 2.55 -1.05 2.2 Q-2.45 1.7 -3.4 0.85 L-3.4 0.8 -3.3 0.7 -2.85 0.55 0.35 0.65 0.3 0.35 Q0.05 -3.2 -3.4 -3.45 L-3.65 -3.3 -4.2 -3.0 -3.7 -4.6 Q-3.5 -4.65 -3.45 -4.85 -2.7 -7.05 -1.1 -8.6 L-0.9 -8.55 Q-0.1 -8.4 0.6 -7.85 M0.15 1.35 L0.3 1.4 0.3 1.3 0.15 1.35 M-10.4 -1.3 L-10.35 -1.4 Q-10.2 -3.15 -9.7 -4.75 L-9.45 -5.55 -9.35 -5.65 -8.95 -5.75 -8.9 -5.85 -8.9 -6.0 -8.65 -6.15 -8.05 -6.35 -7.9 -6.5 -7.5 -6.65 -7.05 -6.75 Q-7.15 -5.25 -7.4 -3.75 L-7.65 -3.8 -7.9 -3.85 -7.95 -3.85 -8.4 -3.85 -8.55 -3.8 -8.65 -3.75 -9.35 -3.0 -9.8 -2.0 -9.75 -2.05 -9.6 -2.15 Q-8.65 -1.85 -8.05 -1.1 L-8.05 -1.05 -8.35 -0.75 -8.5 -0.7 -9.95 -1.0 -9.85 0.1 -10.25 0.1 -10.25 -0.15 -10.4 -0.9 -10.35 -1.25 -10.4 -1.3" fill="#ffffff" fill-rule="evenodd" stroke="none"/>
    <path d="M7.95 4.75 Q8.9 3.7 8.8 2.3 L8.65 2.2 8.65 2.15 Q11.15 -2.1 10.5 -7.1 L10.35 -8.05 9.9 -10.05 Q10.9 -9.45 12.35 -9.5 L12.45 -9.7 12.5 -10.0 12.9 -10.35 13.3 -9.8 14.3 -8.4 Q14.35 -8.15 14.55 -8.05 16.35 -3.95 16.2 0.8 L16.0 1.35 15.8 2.7 14.7 3.25 Q11.35 4.85 7.95 4.75" fill="#5f5300" fill-rule="evenodd" stroke="none"/>
    <path d="M15.05 10.5 L15.05 10.75 15.1 10.75 15.45 10.3 16.0 10.8 16.1 10.95 16.55 11.65 12.1 16.85 Q9.75 19.2 7.65 21.85 L6.25 23.55 2.95 27.35 0.1 30.35 -0.7 31.15 -0.75 31.2 Q-6.05 35.6 -13.05 35.4 L-16.4 34.7 Q-21.25 33.2 -24.4 29.8 L-26.5 27.1 -26.4 27.0 -26.7 26.75 -28.55 24.7 -28.75 24.1 -28.85 24.0 -29.65 23.15 Q-32.35 18.6 -31.3 13.65 L-29.65 12.9 -28.0 12.35 -26.6 12.1 -21.5 12.55 Q-19.5 12.9 -17.6 13.65 -16.7 14.0 -16.4 14.45 L-15.65 15.15 Q-12.75 17.0 -9.6 18.15 L-8.6 18.4 -5.25 18.75 -3.6 18.85 -2.55 18.7 Q2.45 17.55 4.65 14.25 L5.4 13.55 Q7.3 12.45 8.65 10.25 L9.15 9.7 9.35 9.55 10.35 9.1 10.45 9.25 Q11.55 8.65 12.85 8.65 15.05 9.0 15.05 10.5 M4.05 21.25 L4.15 21.2 3.55 21.6 3.7 21.6 4.05 21.25 M-14.85 9.6 L-15.25 9.45 -15.6 9.35 Q-16.45 9.0 -17.05 8.3 L-17.5 7.6 -17.85 6.55 -17.95 6.05 Q-18.15 4.8 -17.45 3.85 L-17.1 3.5 Q-16.3 2.8 -15.25 2.4 -14.2 1.95 -12.9 1.85 L-12.85 1.85 Q-13.8 3.1 -14.35 4.55 L-14.55 5.15 Q-14.9 6.45 -14.9 7.85 L-14.85 9.6 M-20.65 28.75 L-20.85 28.85 -21.0 29.05 -21.1 29.2 Q-19.85 32.2 -16.9 33.45 -14.3 34.6 -13.95 32.2 L-14.0 32.15 Q-16.7 29.5 -20.65 28.75 M-6.3 29.15 L-6.35 29.1 -6.65 29.4 -6.25 29.2 -6.3 29.15 M-10.75 30.5 L-10.8 30.4 -10.85 30.45 -10.95 30.6 -10.7 30.55 -10.75 30.5" fill="#c19b6b" fill-rule="evenodd" stroke="none"/>
    <path d="M15.05 10.5 Q15.05 9.0 12.85 8.65 11.55 8.65 10.45 9.25 L10.35 9.1 9.35 9.55 9.15 9.7 8.65 10.25 Q7.3 12.45 5.4 13.55 L4.65 14.25 Q2.45 17.55 -2.55 18.7 L-3.6 18.85 -5.25 18.75 -8.6 18.4 -9.6 18.15 Q-12.75 17.0 -15.65 15.15 L-16.4 14.45 Q-16.7 14.0 -17.6 13.65 -19.5 12.9 -21.5 12.55 L-26.6 12.1 -28.0 12.35 -29.65 12.9 -31.3 13.65 -31.15 13.0 -30.95 12.3 -30.25 10.4 -29.8 9.85 -29.75 9.85 -29.65 9.85 -29.6 9.65 -29.6 9.6 -29.05 8.7 Q-28.75 8.1 -28.75 7.55 L-29.1 7.65 -29.5 8.1 -29.5 7.95 -29.5 7.15 Q-29.4 4.75 -27.75 3.0 L-27.5 2.9 -26.2 2.4 -23.6 2.55 -23.65 2.9 -23.55 3.0 -23.7 3.05 -23.95 3.2 -24.15 3.25 -24.15 3.3 -24.2 3.35 -24.25 3.45 -24.55 3.75 -24.55 3.8 -24.5 4.0 -24.4 4.1 -23.45 3.85 Q-19.5 2.2 -15.3 1.9 L-12.9 1.85 -12.9 1.8 -12.75 1.6 -12.7 1.65 -12.7 1.7 -12.8 1.85 -12.85 1.85 -12.9 1.85 Q-14.2 1.95 -15.25 2.4 -16.3 2.8 -17.1 3.5 L-17.45 3.85 Q-18.15 4.8 -17.95 6.05 L-17.85 6.55 -17.5 7.6 -17.05 8.3 Q-16.45 9.0 -15.6 9.35 L-15.25 9.45 -14.85 9.6 -14.75 10.85 -14.7 10.95 -14.35 11.45 -14.1 11.7 -14.0 11.75 -13.9 11.65 -13.8 11.15 -13.8 11.1 -14.0 10.05 Q-14.35 7.65 -13.75 5.35 L-13.25 3.9 Q-12.05 0.95 -9.55 1.05 -8.65 1.1 -7.55 1.6 -6.45 2.3 -5.45 3.2 -2.1 6.15 -0.55 10.75 L-0.25 11.55 0.15 12.9 Q0.45 12.3 0.35 11.6 L0.3 11.3 Q-0.2 8.95 -1.25 6.9 L-0.8 6.75 -0.25 6.5 0.0 6.4 0.55 6.1 1.45 5.3 2.3 4.4 3.0 4.8 4.15 5.25 Q10.85 7.2 16.3 3.5 17.35 4.9 17.7 6.6 L17.85 7.55 17.9 8.4 Q17.9 9.95 16.9 11.2 L16.55 11.65 16.1 10.95 16.0 10.8 15.45 10.3 15.1 10.75 15.1 10.65 15.1 10.6 15.05 10.5 M-26.7 26.75 L-26.4 27.0 -26.5 27.1 -26.7 26.75 M4.05 21.25 L3.7 21.6 3.55 21.6 4.15 21.2 4.05 21.25 M-7.75 6.15 L-7.95 6.15 -8.55 6.2 -8.75 6.35 -9.15 6.75 -9.2 6.9 -9.2 7.1 -9.3 7.2 -9.4 7.4 -9.45 8.05 Q-9.7 11.3 -7.35 13.6 -6.25 14.4 -5.0 14.05 L-4.9 14.0 Q-3.55 12.2 -4.45 9.95 -5.45 7.4 -7.75 6.15 M-10.75 30.5 L-10.7 30.55 -10.95 30.6 -10.85 30.45 -10.8 30.4 -10.75 30.5 M-6.3 29.15 L-6.25 29.2 -6.65 29.4 -6.35 29.1 -6.3 29.15" fill="#cfb392" fill-rule="evenodd" stroke="none"/>
    <path d="M-15.65 32.85 L-15.85 32.8 Q-18.2 32.25 -19.4 30.2 -16.75 30.6 -14.9 32.6 L-15.65 32.85" fill="#660000" fill-rule="evenodd" stroke="none"/>
  </g>
</svg>
