<?xml version="1.0" encoding="UTF-8" standalone="no"?>
<svg xmlns:xlink="http://www.w3.org/1999/xlink" height="31.2px" width="62.0px" xmlns="http://www.w3.org/2000/svg">
  <g transform="matrix(1.0, 0.0, 0.0, 1.0, 30.65, 23.75)">
    <path d="M-11.55 7.45 L-12.7 7.45 -12.65 7.35 -12.65 7.3 -12.75 7.1 Q-12.35 3.95 -10.9 1.45 -12.9 0.65 -14.5 -1.05 L-14.6 -1.45 -14.4 -1.9 Q-8.8 -3.85 -5.35 -8.9 -1.9 -14.0 3.85 -15.8 L3.55 -18.55 Q2.3 -20.85 3.8 -22.65 4.75 -23.85 6.25 -23.75 9.1 -22.5 10.15 -20.05 10.85 -18.35 10.75 -16.1 L10.7 -15.4 11.05 -15.05 11.1 -14.95 11.65 -14.6 11.65 -14.65 Q18.3 -11.1 23.1 -5.2 25.0 -2.85 27.8 -1.65 L31.35 0.0 Q30.7 2.4 28.25 3.9 L26.65 4.8 27.2 5.95 27.25 5.95 27.45 6.65 27.5 6.75 27.8 7.45 26.5 7.45 26.2 6.75 26.15 6.6 25.7 5.25 Q23.75 6.05 21.7 6.45 L22.2 7.45 21.4 7.45 21.0 6.55 20.45 6.65 20.4 7.45 19.5 7.45 19.5 5.95 Q19.35 -0.1 17.25 -5.7 16.15 -8.6 14.35 -10.9 12.75 -12.9 10.65 -14.5 L10.6 -14.5 10.45 -13.3 10.6 -12.8 10.75 -12.85 11.05 -12.85 Q10.9 -10.45 7.8 -10.3 4.05 -10.15 2.75 -13.25 L2.75 -13.55 3.2 -13.75 3.2 -13.8 Q3.7 -13.65 3.65 -13.15 L3.65 -13.05 4.1 -12.6 3.9 -14.85 1.3 -13.85 -0.45 -12.45 -1.15 -11.5 -1.25 -11.4 Q-1.2 -11.15 -1.45 -10.95 L-1.55 -10.85 Q-3.0 -6.15 -5.3 -1.75 L-6.5 0.4 -7.6 2.2 -7.75 2.4 -7.95 2.5 -7.95 2.6 -9.45 4.8 -11.2 7.0 -11.55 7.45 M5.35 7.45 L4.45 7.45 4.25 6.9 3.25 5.35 2.6 4.45 2.45 4.3 Q0.7 1.3 -2.05 3.2 L-2.7 3.8 Q-4.4 5.4 -5.3 7.45 L-11.4 7.45 -10.7 7.25 -8.85 6.9 -6.3 6.95 -6.2 6.95 Q-5.4 5.3 -4.2 3.85 L-4.15 3.75 -3.0 2.65 Q-2.3 1.95 -1.3 1.6 L-0.8 1.45 -0.3 1.3 1.3 1.7 1.75 1.95 1.95 2.05 2.75 3.0 3.4 3.9 3.95 4.75 5.35 7.45 M9.35 -18.35 L9.3 -18.5 Q9.05 -21.6 6.1 -22.65 5.3 -22.95 4.65 -22.45 3.7 -21.75 3.65 -20.7 L3.65 -20.65 3.7 -20.65 3.7 -20.7 Q4.45 -18.3 4.75 -15.75 L4.85 -12.05 Q7.15 -10.6 9.7 -12.3 L9.35 -18.35 M-2.4 -10.7 Q-5.8 -7.65 -8.8 -4.1 -10.5 -2.1 -13.05 -1.2 L-11.65 -0.1 -11.4 0.05 -9.25 1.15 -8.35 1.45 -8.15 1.25 -8.1 1.05 -8.1 0.95 -7.9 0.75 -6.75 -0.9 -6.35 -1.7 -6.3 -1.8 -5.15 -4.2 Q-3.8 -7.1 -2.75 -10.05 L-2.7 -10.25 -2.35 -10.6 -2.3 -10.8 -2.4 -10.7 M23.95 4.75 L25.55 4.1 Q25.65 3.85 25.95 3.9 L26.0 3.95 26.75 3.6 Q28.85 2.6 30.1 0.7 22.7 -2.75 17.65 -9.2 L17.55 -9.3 Q17.4 -9.4 17.4 -9.6 L17.3 -9.8 14.85 -11.75 16.65 -9.25 17.9 -6.7 18.2 -5.9 Q20.3 -0.2 20.4 6.0 L23.95 4.75 M-9.6 1.85 L-10.3 1.65 -11.35 5.25 -10.25 3.75 -8.85 2.0 -9.6 1.85 M-29.7 7.45 L-30.65 7.45 -29.1 4.55 Q-28.1 2.9 -26.65 1.85 L-26.6 1.8 Q-25.95 1.05 -25.1 0.7 L-24.6 0.5 Q-20.6 2.3 -18.6 6.05 L-18.4 4.85 -18.25 4.0 -17.95 3.75 -17.8 3.7 Q-15.95 5.95 -13.55 7.45 L-15.55 7.45 -16.9 6.0 -17.3 5.5 -17.65 7.45 -19.0 7.45 -19.2 7.05 Q-19.4 6.55 -19.8 6.2 -20.85 4.05 -22.8 2.55 L-23.7 1.8 -24.3 1.55 -24.45 1.5 Q-24.95 1.65 -25.3 1.9 L-26.1 2.55 -26.25 2.75 -26.45 2.9 Q-28.5 4.85 -29.7 7.4 L-29.7 7.45" fill="#000000" fill-rule="evenodd" stroke="none"/>
    <path d="M24.4 7.45 L22.2 7.45 21.7 6.45 Q23.75 6.05 25.7 5.25 L26.15 6.6 24.4 7.45 M3.0 7.45 L-0.35 7.45 -0.15 7.15 0.05 7.1 0.8 6.8 1.15 6.8 1.5 6.7 Q1.5 6.6 1.65 6.65 2.25 6.65 2.6 7.1 L2.9 7.4 3.0 7.45 M3.65 -20.7 Q3.7 -21.75 4.65 -22.45 5.3 -22.95 6.1 -22.65 9.05 -21.6 9.3 -18.5 L9.35 -18.35 9.0 -17.9 8.2 -17.0 Q7.3 -16.15 6.1 -15.85 L5.25 -15.75 4.75 -15.75 Q4.45 -18.3 3.7 -20.7 L3.65 -20.7 M-10.25 3.75 L-9.6 1.85 -8.85 2.0 -10.25 3.75" fill="#0db5c8" fill-rule="evenodd" stroke="none"/>
    <path d="M26.5 7.45 L24.4 7.45 26.15 6.6 26.2 6.75 26.5 7.45 M4.45 7.45 L3.0 7.45 2.9 7.4 2.6 7.1 Q2.25 6.65 1.65 6.65 1.5 6.6 1.5 6.7 L1.15 6.8 0.8 6.8 0.05 7.1 -0.15 7.15 -0.35 7.45 -5.3 7.45 Q-4.4 5.4 -2.7 3.8 L-2.05 3.2 Q0.7 1.3 2.45 4.3 L2.6 4.45 3.25 5.35 4.25 6.9 4.45 7.45 M9.35 -18.35 L9.7 -12.3 Q7.15 -10.6 4.85 -12.05 L4.75 -15.75 5.25 -15.75 6.1 -15.85 Q7.3 -16.15 8.2 -17.0 L9.0 -17.9 9.35 -18.35 M-10.25 3.75 L-11.35 5.25 -10.3 1.65 -9.6 1.85 -10.25 3.75 M-19.0 7.45 L-29.7 7.45 -29.7 7.4 Q-28.5 4.85 -26.45 2.9 L-26.25 2.75 -26.1 2.55 -25.3 1.9 Q-24.95 1.65 -24.45 1.5 L-24.3 1.55 -23.7 1.8 -22.8 2.55 Q-20.85 4.05 -19.8 6.2 -19.4 6.55 -19.2 7.05 L-19.0 7.45" fill="#0ecfe4" fill-rule="evenodd" stroke="none"/>
    <path d="M16.4 7.45 L14.35 7.45 12.9 6.35 Q10.85 4.9 8.55 3.8 6.4 2.8 4.05 2.2 L3.2 1.95 2.4 1.85 1.3 1.7 -0.3 1.3 -0.8 1.45 -1.3 1.6 -2.2 1.65 -4.5 1.8 -6.95 2.25 -7.95 2.6 -7.95 2.5 -7.75 2.4 -7.6 2.2 -6.5 0.4 -4.5 -0.3 -2.95 -0.6 -2.6 -0.65 -0.8 -0.75 -0.3 -0.65 4.6 0.05 6.9 0.7 7.4 0.9 9.7 1.75 Q12.05 2.5 14.05 4.05 L14.85 4.6 16.6 5.95 16.5 6.65 16.4 7.45 M9.85 7.45 L5.35 7.45 3.95 4.75 4.95 5.1 7.25 6.1 7.9 6.4 8.45 6.7 9.85 7.45 M-11.4 7.45 L-11.55 7.45 -11.2 7.0 -9.45 4.8 -8.85 4.65 -8.1 4.45 Q-6.15 3.8 -4.15 3.75 L-4.2 3.85 Q-5.4 5.3 -6.2 6.95 L-6.3 6.95 -8.85 6.9 -10.7 7.25 -11.4 7.45 M-5.3 -1.75 Q-3.0 -6.15 -1.55 -10.85 L-1.45 -10.95 Q-1.2 -11.15 -1.25 -11.4 L-1.15 -11.5 -0.45 -12.45 1.3 -13.85 3.9 -14.85 4.1 -12.6 3.65 -13.05 3.65 -13.15 Q3.7 -13.65 3.2 -13.8 L3.2 -13.75 2.75 -13.55 2.75 -13.25 Q4.05 -10.15 7.8 -10.3 10.9 -10.45 11.05 -12.85 L10.75 -12.85 10.6 -12.8 10.45 -13.3 10.6 -14.5 10.65 -14.5 Q12.75 -12.9 14.35 -10.9 L15.7 -7.9 16.05 -6.7 16.6 -4.0 16.7 -2.95 16.8 0.35 16.8 1.65 16.8 3.4 16.6 3.2 16.25 2.9 15.1 2.0 13.85 1.2 13.4 0.95 11.0 -0.3 9.95 -0.75 9.5 -1.0 Q8.95 -1.45 8.3 -1.55 L7.65 -1.7 4.95 -2.2 3.55 -2.45 -1.3 -2.75 -3.5 -2.35 -3.75 -2.25 -4.1 -2.15 -4.65 -2.0 -5.3 -1.75 M-11.4 0.05 L-11.65 -0.1 -13.05 -1.2 Q-10.5 -2.1 -8.8 -4.1 -5.8 -7.65 -2.4 -10.7 L-2.35 -10.6 -2.7 -10.25 -2.75 -10.05 Q-3.8 -7.1 -5.15 -4.2 L-5.75 -3.6 -6.5 -2.9 -9.75 -0.55 Q-10.55 -0.1 -11.4 0.05 M18.2 -5.9 L17.9 -6.7 16.65 -9.25 14.85 -11.75 17.3 -9.8 17.4 -9.6 Q17.4 -9.4 17.55 -9.3 L17.65 -9.2 Q22.7 -2.75 30.1 0.7 28.85 2.6 26.75 3.6 L26.0 3.95 25.95 3.9 Q25.65 3.85 25.55 4.1 L23.95 4.75 23.8 4.55 23.4 3.8 22.45 2.3 21.15 0.05 Q20.05 -2.05 19.2 -4.25 L18.75 -5.15 18.35 -6.0 18.2 -5.9" fill="#f02d0b" fill-rule="evenodd" stroke="none"/>
    <path d="M18.45 7.45 L16.4 7.45 16.5 6.65 16.6 5.95 17.15 6.35 17.5 6.65 18.45 7.45 M14.35 -10.9 Q16.15 -8.6 17.25 -5.7 19.35 -0.1 19.5 5.95 L18.85 5.15 18.65 5.0 18.25 4.6 17.95 4.4 16.8 3.4 16.8 1.65 16.8 0.35 16.7 -2.95 16.6 -4.0 16.05 -6.7 15.7 -7.9 14.35 -10.9 M-11.4 0.05 Q-10.55 -0.1 -9.75 -0.55 L-6.5 -2.9 -5.75 -3.6 -5.15 -4.2 -6.3 -1.8 -6.35 -1.7 -6.75 -0.9 -7.9 0.75 -8.1 0.95 -8.1 1.05 -8.15 1.25 -8.35 1.45 -9.25 1.15 -11.4 0.05 M18.2 -5.9 L18.35 -6.0 18.75 -5.15 19.2 -4.25 Q20.05 -2.05 21.15 0.05 L22.45 2.3 23.4 3.8 23.8 4.55 23.95 4.75 20.4 6.0 Q20.3 -0.2 18.2 -5.9" fill="#d6280a" fill-rule="evenodd" stroke="none"/>
    <path d="M19.5 7.45 L18.45 7.45 17.5 6.65 17.15 6.35 16.6 5.95 14.85 4.6 14.05 4.05 Q12.05 2.5 9.7 1.75 L7.4 0.9 6.9 0.7 4.6 0.05 -0.3 -0.65 -0.8 -0.75 -2.6 -0.65 -2.95 -0.6 -4.5 -0.3 -6.5 0.4 -5.3 -1.75 -4.65 -2.0 -4.1 -2.15 -3.75 -2.25 -3.5 -2.35 -1.3 -2.75 3.55 -2.45 4.95 -2.2 7.65 -1.7 8.3 -1.55 Q8.95 -1.45 9.5 -1.0 L9.95 -0.75 11.0 -0.3 13.4 0.95 13.85 1.2 15.1 2.0 16.25 2.9 16.6 3.2 16.8 3.4 17.95 4.4 18.25 4.6 18.65 5.0 18.85 5.15 19.5 5.95 19.5 7.45 M14.35 7.45 L9.85 7.45 8.45 6.7 7.9 6.4 7.25 6.1 4.95 5.1 3.95 4.75 3.4 3.9 2.75 3.0 1.95 2.05 1.75 1.95 1.3 1.7 2.4 1.85 3.2 1.95 4.05 2.2 Q6.4 2.8 8.55 3.8 10.85 4.9 12.9 6.35 L14.35 7.45 M-9.45 4.8 L-7.95 2.6 -6.95 2.25 -4.5 1.8 -2.2 1.65 -1.3 1.6 Q-2.3 1.95 -3.0 2.65 L-4.15 3.75 Q-6.15 3.8 -8.1 4.45 L-8.85 4.65 -9.45 4.8" fill="#c62509" fill-rule="evenodd" stroke="none"/>
    <path d="M-15.55 7.45 L-17.65 7.45 -17.3 5.5 -16.9 6.0 -15.55 7.45" fill="#666666" fill-rule="evenodd" stroke="none"/>
  </g>
</svg>
