<?xml version="1.0" encoding="UTF-8" standalone="no"?>
<svg xmlns:xlink="http://www.w3.org/1999/xlink" height="31.25px" width="133.05px" xmlns="http://www.w3.org/2000/svg">
  <g transform="matrix(1.0, 0.0, 0.0, 1.0, 57.4, 32.75)">
    <path d="M9.35 -27.35 L9.0 -26.85 8.2 -26.0 7.2 -25.25 6.3 -24.85 6.1 -24.8 5.25 -24.7 4.75 -24.7 4.7 -24.9 4.65 -25.3 Q4.4 -27.6 3.7 -29.7 L3.65 -29.7 Q3.7 -30.7 4.65 -31.4 5.3 -31.9 6.1 -31.65 9.05 -30.6 9.3 -27.5 L9.35 -27.35 M22.2 -1.5 L21.7 -2.55 Q23.75 -2.9 25.7 -3.75 L26.15 -2.4 24.4 -1.5 22.2 -1.5 M-10.25 -5.25 L-9.6 -7.1 -8.85 -6.95 -10.25 -5.25 M-0.35 -1.5 L-0.15 -1.85 0.05 -1.9 0.8 -2.15 1.15 -2.2 1.5 -2.3 1.65 -2.35 Q2.25 -2.35 2.6 -1.85 L2.9 -1.6 3.0 -1.5 -0.35 -1.5" fill="#0db5c8" fill-rule="evenodd" stroke="none"/>
    <path d="M4.75 -24.7 L5.25 -24.7 6.1 -24.8 6.3 -24.85 7.2 -25.25 8.2 -26.0 9.0 -26.85 9.35 -27.35 9.5 -25.2 9.55 -24.8 9.6 -23.45 9.7 -21.8 9.7 -21.25 Q7.15 -19.55 4.85 -21.05 L4.85 -21.65 4.85 -23.3 4.75 -24.7 M26.15 -2.4 L26.2 -2.25 26.5 -1.5 24.4 -1.5 26.15 -2.4 M-29.7 -1.5 L-29.7 -1.6 Q-28.5 -4.15 -26.45 -6.1 L-26.25 -6.25 -26.1 -6.45 -25.3 -7.1 Q-24.95 -7.35 -24.45 -7.45 L-24.3 -7.4 -23.7 -7.2 -22.8 -6.45 Q-20.85 -4.95 -19.8 -2.75 L-19.2 -1.95 -19.0 -1.5 -29.7 -1.5 M-10.25 -5.25 L-11.35 -3.7 -10.3 -7.3 -9.6 -7.1 -10.25 -5.25 M-5.3 -1.5 Q-4.4 -3.6 -2.7 -5.2 L-2.05 -5.75 Q0.7 -7.65 2.45 -4.7 L2.6 -4.55 3.25 -3.65 4.25 -2.1 4.45 -1.5 3.0 -1.5 2.9 -1.6 2.6 -1.85 Q2.25 -2.35 1.65 -2.35 L1.5 -2.3 1.15 -2.2 0.8 -2.15 0.05 -1.9 -0.15 -1.85 -0.35 -1.5 -5.3 -1.5" fill="#0ecfe4" fill-rule="evenodd" stroke="none"/>
    <path d="M10.7 -24.8 L10.75 -25.05 10.75 -25.15 11.65 -25.15 Q12.4 -25.15 13.15 -24.75 L10.7 -24.8 M3.8 -25.35 L3.85 -24.9 -21.65 -24.15 -31.3 -23.5 -57.4 -20.95 Q-53.65 -22.35 -49.6 -22.75 L-30.85 -24.5 -16.9 -25.6 3.8 -25.35 M0.05 -23.1 Q-1.3 -22.3 -2.45 -21.25 L-2.5 -21.25 -26.7 -20.3 Q-13.4 -22.35 0.05 -23.1 M10.6 -23.45 L10.6 -23.5 10.65 -23.45 10.6 -23.45 M14.65 -21.85 L11.9 -23.5 23.7 -23.45 Q40.9 -23.15 57.75 -19.6 L57.85 -19.5 Q36.35 -22.1 14.65 -21.85 M48.9 -23.95 L49.05 -24.0 Q62.6 -24.0 75.55 -20.0 L75.65 -19.85 48.9 -23.95" fill="#dfefff" fill-rule="evenodd" stroke="none"/>
    <path d="M9.35 -27.35 L9.3 -27.5 Q9.05 -30.6 6.1 -31.65 5.3 -31.9 4.65 -31.4 3.7 -30.7 3.65 -29.7 L3.65 -29.6 3.7 -29.65 3.7 -29.7 Q4.4 -27.6 4.65 -25.3 L4.7 -24.9 4.75 -24.7 4.85 -23.3 4.85 -21.65 4.85 -21.05 Q7.15 -19.55 9.7 -21.25 L9.7 -21.8 9.6 -23.45 9.55 -24.8 9.5 -25.2 9.35 -27.35 M10.75 -25.15 L10.75 -25.05 10.7 -24.8 10.7 -24.4 11.05 -24.05 11.1 -23.95 11.65 -23.6 11.65 -23.65 11.9 -23.5 14.65 -21.85 Q19.4 -18.7 23.1 -14.15 25.0 -11.85 27.8 -10.6 L31.35 -8.95 Q30.7 -6.6 28.25 -5.05 L26.65 -4.15 27.2 -3.05 27.25 -3.0 27.45 -2.35 27.5 -2.25 27.8 -1.5 26.5 -1.5 26.2 -2.25 26.15 -2.4 25.7 -3.75 Q23.75 -2.9 21.7 -2.55 L22.2 -1.5 21.4 -1.5 21.0 -2.4 20.45 -2.35 20.4 -1.5 19.5 -1.5 19.5 -3.0 Q19.35 -9.1 17.25 -14.7 16.15 -17.6 14.35 -19.85 L12.55 -21.85 10.65 -23.45 10.6 -23.5 10.6 -23.45 10.45 -22.3 10.6 -21.8 10.6 -21.75 10.75 -21.8 11.05 -21.85 11.05 -21.8 Q10.85 -19.4 7.8 -19.3 4.45 -19.15 3.1 -21.55 L2.75 -22.2 2.75 -22.5 Q2.9 -22.8 3.2 -22.75 3.7 -22.65 3.65 -22.15 L3.65 -22.05 4.05 -21.6 4.1 -21.6 3.95 -23.3 3.9 -23.8 2.25 -23.2 1.3 -22.85 -0.45 -21.4 Q-0.65 -20.95 -1.15 -20.5 L-1.25 -20.4 Q-1.2 -20.1 -1.45 -19.9 L-1.55 -19.8 Q-3.0 -15.1 -5.3 -10.75 L-6.5 -8.55 -7.6 -6.75 -7.75 -6.55 -7.95 -6.45 -7.95 -6.35 -9.45 -4.2 -11.2 -2.0 -11.55 -1.5 -12.7 -1.5 -12.65 -1.65 -12.65 -1.7 -12.75 -1.85 Q-12.35 -5.0 -10.9 -7.55 -12.9 -8.35 -14.5 -10.05 L-14.6 -10.4 -14.4 -10.9 Q-8.8 -12.85 -5.35 -17.9 -4.05 -19.85 -2.45 -21.25 -1.3 -22.3 0.05 -23.1 1.8 -24.15 3.85 -24.8 L3.85 -24.9 3.8 -25.35 3.55 -27.55 Q2.3 -29.8 3.8 -31.65 4.75 -32.8 6.25 -32.75 9.1 -31.45 10.15 -29.0 10.85 -27.35 10.75 -25.15 M23.95 -4.2 L25.55 -4.85 25.95 -5.05 25.95 -5.1 26.0 -5.05 26.75 -5.4 Q28.85 -6.35 30.1 -8.25 22.7 -11.75 17.65 -18.2 L17.55 -18.3 17.4 -18.55 17.3 -18.75 14.85 -20.75 16.65 -18.25 17.9 -15.7 18.2 -14.9 Q20.3 -9.15 20.4 -3.0 L23.95 -4.2 M1.3 -7.3 L1.75 -7.0 1.95 -6.95 2.75 -5.95 3.4 -5.1 3.95 -4.2 5.35 -1.5 4.45 -1.5 4.25 -2.1 3.25 -3.65 2.6 -4.55 2.45 -4.7 Q0.7 -7.65 -2.05 -5.75 L-2.7 -5.2 Q-4.4 -3.6 -5.3 -1.5 L-11.4 -1.5 -10.7 -1.7 -8.85 -2.05 -6.3 -2.05 -6.2 -2.05 Q-5.4 -3.7 -4.2 -5.15 L-4.15 -5.2 -3.0 -6.35 Q-2.3 -7.05 -1.3 -7.35 L-0.8 -7.55 -0.3 -7.7 1.3 -7.3 M-19.0 -1.5 L-19.2 -1.95 -19.8 -2.75 Q-20.85 -4.95 -22.8 -6.45 L-23.7 -7.2 -24.3 -7.4 -24.45 -7.45 Q-24.95 -7.35 -25.3 -7.1 L-26.1 -6.45 -26.25 -6.25 -26.45 -6.1 Q-28.5 -4.15 -29.7 -1.6 L-29.7 -1.5 -30.65 -1.5 -29.1 -4.45 Q-28.1 -6.1 -26.65 -7.15 L-26.6 -7.2 -25.1 -8.25 -24.6 -8.45 Q-20.6 -6.7 -18.6 -2.95 L-18.4 -4.15 -18.25 -4.95 -17.95 -5.25 -17.8 -5.25 Q-15.95 -3.0 -13.55 -1.5 L-15.55 -1.5 -16.9 -3.0 -17.3 -3.45 -17.65 -1.5 -19.0 -1.5 M-2.35 -19.6 L-2.3 -19.75 -2.4 -19.65 Q-5.8 -16.6 -8.8 -13.1 -10.5 -11.05 -13.05 -10.15 L-11.65 -9.1 -11.4 -8.95 -9.25 -7.85 -8.35 -7.55 -8.15 -7.75 -8.1 -7.9 -8.1 -8.0 -7.9 -8.25 -6.75 -9.9 -6.35 -10.7 -6.3 -10.75 -5.15 -13.2 Q-3.8 -16.05 -2.75 -19.0 L-2.7 -19.2 -2.35 -19.6 M-9.6 -7.1 L-10.3 -7.3 -11.35 -3.7 -10.25 -5.25 -8.85 -6.95 -9.6 -7.1" fill="#000000" fill-rule="evenodd" stroke="none"/>
    <path d="M-11.55 -1.5 L-11.2 -2.0 -9.45 -4.2 -8.85 -4.35 -8.1 -4.55 -4.15 -5.2 -4.2 -5.15 Q-5.4 -3.7 -6.2 -2.05 L-6.3 -2.05 -8.85 -2.05 -10.7 -1.7 -11.4 -1.5 -11.55 -1.5 M-7.95 -6.35 L-7.95 -6.45 -7.75 -6.55 -7.6 -6.75 -6.5 -8.55 -4.5 -9.25 -2.95 -9.6 -2.6 -9.65 -0.8 -9.7 -0.3 -9.65 4.6 -8.95 6.9 -8.25 7.4 -8.1 9.7 -7.25 Q12.05 -6.5 14.05 -4.95 L14.85 -4.4 16.6 -3.0 16.5 -2.35 16.4 -1.5 14.35 -1.5 12.9 -2.6 Q10.85 -4.1 8.55 -5.15 6.4 -6.2 4.05 -6.8 L3.2 -7.0 2.4 -7.15 1.3 -7.3 -0.3 -7.7 -0.8 -7.55 -1.3 -7.35 -2.2 -7.35 -4.5 -7.2 -6.95 -6.75 -7.95 -6.35 M-5.3 -10.75 Q-3.0 -15.1 -1.55 -19.8 L-1.45 -19.9 Q-1.2 -20.1 -1.25 -20.4 L-1.15 -20.5 Q-0.65 -20.95 -0.45 -21.4 L1.3 -22.85 2.25 -23.2 3.9 -23.8 3.95 -23.3 4.1 -21.6 4.05 -21.6 3.65 -22.05 3.65 -22.15 Q3.7 -22.65 3.2 -22.75 2.9 -22.8 2.75 -22.5 L2.75 -22.2 3.1 -21.55 Q4.45 -19.15 7.8 -19.3 10.85 -19.4 11.05 -21.8 L11.05 -21.85 10.75 -21.8 10.6 -21.75 10.6 -21.8 10.45 -22.3 10.6 -23.45 10.65 -23.45 12.55 -21.85 14.35 -19.85 15.7 -16.9 16.05 -15.65 16.6 -12.95 16.7 -11.95 16.8 -8.6 16.8 -7.35 16.8 -5.6 16.6 -5.75 16.25 -6.1 15.1 -6.95 13.85 -7.75 13.4 -8.05 11.0 -9.25 9.95 -9.75 9.5 -10.0 8.3 -10.55 7.65 -10.7 4.95 -11.2 3.55 -11.4 -1.3 -11.75 -3.5 -11.3 -3.75 -11.2 -4.1 -11.1 -4.65 -11.0 -5.3 -10.75 M23.95 -4.2 L23.8 -4.45 23.4 -5.15 22.45 -6.7 21.15 -8.9 Q20.05 -11.05 19.2 -13.25 L18.75 -14.15 18.35 -14.95 18.2 -14.9 17.9 -15.7 16.65 -18.25 14.85 -20.75 17.3 -18.75 17.4 -18.55 17.55 -18.3 17.65 -18.2 Q22.7 -11.75 30.1 -8.25 28.85 -6.35 26.75 -5.4 L26.0 -5.05 25.95 -5.1 25.95 -5.05 25.55 -4.85 23.95 -4.2 M3.95 -4.2 L4.95 -3.9 7.25 -2.9 7.9 -2.55 8.45 -2.3 9.85 -1.5 5.35 -1.5 3.95 -4.2 M-2.4 -19.65 L-2.35 -19.6 -2.7 -19.2 -2.75 -19.0 Q-3.8 -16.05 -5.15 -13.2 L-5.75 -12.55 -6.5 -11.9 -9.75 -9.55 Q-10.55 -9.1 -11.4 -8.95 L-11.65 -9.1 -13.05 -10.15 Q-10.5 -11.05 -8.8 -13.1 -5.8 -16.6 -2.4 -19.65" fill="#f02d0b" fill-rule="evenodd" stroke="none"/>
    <path d="M14.35 -19.85 Q16.15 -17.6 17.25 -14.7 19.35 -9.1 19.5 -3.0 L18.85 -3.8 18.65 -4.0 18.25 -4.35 17.95 -4.6 16.8 -5.6 16.8 -7.35 16.8 -8.6 16.7 -11.95 16.6 -12.95 16.05 -15.65 15.7 -16.9 14.35 -19.85 M18.2 -14.9 L18.35 -14.95 18.75 -14.15 19.2 -13.25 Q20.05 -11.05 21.15 -8.9 L22.45 -6.7 23.4 -5.15 23.8 -4.45 23.95 -4.2 20.4 -3.0 Q20.3 -9.15 18.2 -14.9 M16.6 -3.0 L17.15 -2.6 17.5 -2.35 18.45 -1.5 16.4 -1.5 16.5 -2.35 16.6 -3.0 M-5.15 -13.2 L-6.3 -10.75 -6.35 -10.7 -6.75 -9.9 -7.9 -8.25 -8.1 -8.0 -8.1 -7.9 -8.15 -7.75 -8.35 -7.55 -9.25 -7.85 -11.4 -8.95 Q-10.55 -9.1 -9.75 -9.55 L-6.5 -11.9 -5.75 -12.55 -5.15 -13.2" fill="#d6280a" fill-rule="evenodd" stroke="none"/>
    <path d="M-9.45 -4.2 L-7.95 -6.35 -6.95 -6.75 -4.5 -7.2 -2.2 -7.35 -1.3 -7.35 Q-2.3 -7.05 -3.0 -6.35 L-4.15 -5.2 -8.1 -4.55 -8.85 -4.35 -9.45 -4.2 M-6.5 -8.55 L-5.3 -10.75 -4.65 -11.0 -4.1 -11.1 -3.75 -11.2 -3.5 -11.3 -1.3 -11.75 3.55 -11.4 4.95 -11.2 7.65 -10.7 8.3 -10.55 9.5 -10.0 9.95 -9.75 11.0 -9.25 13.4 -8.05 13.85 -7.75 15.1 -6.95 16.25 -6.1 16.6 -5.75 16.8 -5.6 17.95 -4.6 18.25 -4.35 18.65 -4.0 18.85 -3.8 19.5 -3.0 19.5 -1.5 18.45 -1.5 17.5 -2.35 17.15 -2.6 16.6 -3.0 14.85 -4.4 14.05 -4.95 Q12.05 -6.5 9.7 -7.25 L7.4 -8.1 6.9 -8.25 4.6 -8.95 -0.3 -9.65 -0.8 -9.7 -2.6 -9.65 -2.95 -9.6 -4.5 -9.25 -6.5 -8.55 M9.85 -1.5 L8.45 -2.3 7.9 -2.55 7.25 -2.9 4.95 -3.9 3.95 -4.2 3.4 -5.1 2.75 -5.95 1.95 -6.95 1.75 -7.0 1.3 -7.3 2.4 -7.15 3.2 -7.0 4.05 -6.8 Q6.4 -6.2 8.55 -5.15 10.85 -4.1 12.9 -2.6 L14.35 -1.5 9.85 -1.5" fill="#c62509" fill-rule="evenodd" stroke="none"/>
    <path d="M-17.65 -1.5 L-17.3 -3.45 -16.9 -3.0 -15.55 -1.5 -17.65 -1.5" fill="#666666" fill-rule="evenodd" stroke="none"/>
  </g>
</svg>
