<?xml version="1.0" encoding="UTF-8" standalone="no"?>
<svg xmlns:xlink="http://www.w3.org/1999/xlink" height="130.7px" width="416.65px" xmlns="http://www.w3.org/2000/svg">
  <g transform="matrix(1.0, 0.0, 0.0, 1.0, 236.5, 108.95)">
    <path d="M13.3 -65.35 Q14.7 -64.75 14.95 -63.35 L14.9 -63.25 14.45 -62.9 14.3 -62.85 Q13.95 -62.95 13.75 -63.15 L13.55 -63.3 Q13.25 -63.6 13.25 -64.0 L13.25 -64.45 13.1 -65.1 Q13.05 -65.4 13.3 -65.35 M21.7 -59.2 L21.8 -59.1 22.05 -57.4 21.9 -56.9 20.75 -57.05 20.45 -57.55 20.3 -57.65 20.25 -59.1 20.25 -59.45 20.55 -60.2 20.75 -60.3 21.7 -59.2 M-3.95 -63.3 Q-4.15 -62.55 -4.9 -61.8 L-4.95 -61.7 Q-4.75 -60.9 -4.85 -60.0 L-4.9 -59.55 -5.25 -58.95 -5.35 -58.85 Q-5.6 -58.6 -5.95 -58.5 L-6.55 -58.85 Q-6.65 -59.75 -6.15 -60.45 L-5.85 -60.75 Q-5.55 -62.45 -4.0 -63.25 L-3.95 -63.3" fill="#dfefff" fill-rule="evenodd" stroke="none"/>
    <path d="M17.9 -78.85 L22.1 -85.15 Q24.45 -88.4 27.55 -91.05 31.95 -94.8 37.55 -95.55 L37.7 -95.45 37.8 -95.35 37.9 -95.3 38.0 -95.2 38.2 -94.9 38.3 -94.8 38.3 -94.25 Q38.2 -93.35 37.55 -92.65 L36.9 -91.55 Q38.5 -91.1 40.05 -92.2 41.5 -93.2 42.45 -94.6 L43.6 -96.55 Q44.9 -99.35 47.7 -100.65 53.2 -103.15 59.15 -104.45 L61.1 -104.75 Q62.9 -104.9 64.2 -105.95 L64.2 -106.0 64.2 -106.1 64.15 -106.2 64.05 -106.3 63.75 -106.6 63.7 -106.7 Q60.5 -108.2 56.9 -107.85 51.6 -107.75 46.85 -105.55 L44.6 -104.4 Q41.4 -102.65 38.6 -100.25 36.35 -98.3 33.35 -97.85 28.55 -95.8 25.2 -91.7 22.15 -87.9 19.8 -83.65 L18.8 -81.35 18.7 -81.3 18.65 -81.2 18.55 -81.1 18.55 -81.0 18.55 -80.9 18.5 -80.7 18.35 -80.35 18.3 -79.85 18.2 -79.8 18.15 -79.7 18.05 -79.6 18.05 -79.5 18.05 -79.4 18.05 -79.3 18.0 -79.2 17.85 -78.9 17.8 -78.75 17.9 -78.85 M49.85 -107.6 Q53.3 -108.95 56.95 -108.85 61.5 -109.35 64.75 -106.6 65.35 -106.15 64.9 -105.45 64.25 -104.5 63.0 -104.3 55.6 -103.05 48.75 -100.05 44.6 -98.2 43.15 -93.9 L42.95 -93.35 Q40.35 -90.85 36.9 -90.5 36.3 -90.45 36.2 -91.05 35.9 -92.5 37.05 -93.65 37.4 -93.95 37.4 -94.4 35.5 -94.75 33.55 -93.8 28.15 -91.2 24.65 -86.45 21.15 -81.7 17.4 -77.4 L16.85 -77.25 16.5 -77.35 Q16.55 -79.05 17.3 -80.8 18.95 -84.5 21.15 -87.95 L23.7 -91.55 Q28.5 -97.65 35.9 -99.8 37.55 -100.3 38.85 -101.5 43.1 -105.55 48.75 -107.2 L49.85 -107.6 M54.6 -59.15 Q52.35 -56.75 48.6 -56.8 L46.15 -56.7 Q39.65 -56.0 33.35 -54.15 26.25 -52.05 20.45 -47.65 L18.25 -45.65 17.65 -45.6 17.55 -45.7 17.5 -45.8 17.5 -45.85 17.5 -45.95 Q19.35 -48.65 21.5 -51.2 24.5 -54.7 28.05 -57.7 31.55 -60.65 35.95 -61.2 L36.1 -61.1 36.2 -61.0 36.25 -60.9 36.3 -60.8 36.35 -60.7 36.35 -60.6 36.35 -60.55 36.35 -60.25 36.25 -59.9 36.1 -59.6 39.45 -60.45 Q42.0 -61.4 44.6 -61.75 49.65 -62.5 53.95 -60.15 54.5 -59.85 54.6 -59.15 M35.3 -60.2 Q29.75 -58.6 25.5 -54.2 L21.9 -50.2 Q27.4 -53.25 33.85 -55.1 42.55 -57.6 51.55 -58.35 52.8 -58.45 53.55 -59.25 52.6 -60.55 50.65 -60.7 L44.5 -60.75 35.8 -58.8 Q35.35 -58.65 35.05 -59.1 L35.05 -59.2 35.05 -59.3 35.05 -59.45 35.05 -59.65 35.05 -59.75 35.15 -59.85 35.3 -60.1 35.3 -60.2 M12.55 -89.95 L12.95 -89.7 Q13.65 -87.2 11.55 -85.15 L10.45 -83.85 Q7.4 -82.5 5.3 -80.1 4.65 -79.9 3.95 -80.1 L3.85 -80.2 3.55 -80.5 3.5 -80.6 Q3.4 -81.2 3.75 -81.7 L4.2 -82.55 4.3 -82.65 4.45 -82.75 Q6.15 -88.15 11.6 -90.1 L12.2 -90.1 12.4 -90.05 12.55 -89.95 M4.95 -81.05 Q7.1 -83.3 9.8 -84.95 L10.8 -85.9 Q11.7 -87.1 12.4 -88.45 L12.2 -88.9 Q12.1 -89.2 11.8 -89.1 L11.35 -88.95 11.1 -88.85 Q6.35 -86.45 4.7 -81.5 L4.6 -81.15 4.55 -81.1 4.95 -81.05 M12.05 -17.5 L13.75 -17.9 Q16.35 -18.3 17.55 -16.25 L17.6 -16.2 Q20.7 -13.85 24.85 -14.9 L26.2 -14.7 Q26.35 -13.0 24.35 -12.3 14.1 -8.6 3.2 -10.95 2.45 -11.1 2.05 -11.65 3.3 -13.2 5.85 -13.0 L6.95 -13.2 9.6 -14.65 Q9.6 -16.95 12.05 -17.5 M16.6 -16.1 Q15.45 -17.15 13.8 -16.9 12.35 -16.7 11.1 -16.0 L10.95 -15.9 Q10.75 -14.2 9.3 -13.25 7.0 -11.75 4.25 -11.7 14.9 -9.55 24.55 -13.7 20.05 -12.95 16.85 -15.65 16.65 -15.8 16.6 -16.1 M10.85 -5.65 L10.8 -5.85 10.8 -6.6 17.0 -7.5 31.1 -8.1 Q32.85 -8.2 34.5 -8.75 37.1 -9.65 39.8 -8.7 L41.2 -8.45 50.1 -9.25 Q53.4 -9.8 56.55 -10.65 L57.1 -10.6 57.35 -10.55 57.45 -10.45 57.75 -10.0 57.75 -9.9 Q55.2 -6.85 50.85 -6.35 43.7 -5.6 36.7 -4.0 31.75 -2.85 26.6 -2.75 20.4 -2.6 14.4 -4.15 12.5 -4.6 10.85 -5.65 M22.5 -6.85 L12.0 -5.95 Q20.55 -2.7 29.9 -3.9 34.55 -4.5 39.1 -5.7 L43.05 -6.25 Q49.65 -6.6 55.7 -9.0 L56.1 -9.5 56.05 -9.55 Q48.75 -7.9 41.35 -7.55 L39.45 -7.75 Q36.75 -8.6 34.05 -7.7 28.7 -5.95 22.95 -6.8 L22.5 -6.85 M61.55 -31.3 L64.25 -31.65 Q68.4 -32.3 72.25 -31.1 74.7 -30.3 74.2 -28.1 75.85 -26.4 78.5 -26.95 L81.85 -27.5 Q92.25 -28.65 101.65 -24.3 L107.25 -21.7 107.8 -21.65 107.6 -21.95 Q104.7 -26.1 99.75 -28.05 L96.9 -29.2 Q91.35 -31.55 85.35 -32.25 L76.0 -33.1 Q73.6 -33.2 74.25 -35.3 L74.85 -36.4 74.9 -36.55 74.25 -37.0 73.55 -36.95 Q66.9 -35.7 61.55 -31.4 L61.4 -31.3 61.55 -31.3 M58.55 -28.75 L58.35 -28.75 Q57.95 -28.75 57.7 -29.05 60.65 -32.45 64.75 -34.8 68.9 -37.2 73.55 -37.95 76.25 -37.95 75.4 -35.8 L74.85 -34.75 Q75.45 -33.55 77.05 -33.65 85.1 -34.0 92.75 -31.7 99.8 -29.55 105.9 -25.4 108.25 -23.8 108.7 -21.25 L108.65 -21.15 108.2 -20.7 108.1 -20.6 Q105.15 -21.15 102.4 -22.65 100.05 -23.95 97.5 -24.9 89.9 -27.7 81.75 -26.35 77.9 -25.75 74.35 -26.9 73.4 -27.2 73.15 -28.15 L73.15 -28.2 73.3 -28.6 73.4 -28.9 73.35 -28.95 73.3 -29.25 73.3 -29.35 Q71.75 -30.65 69.7 -30.85 65.05 -31.25 60.75 -29.85 L58.55 -28.75 M57.0 -19.7 L57.05 -19.9 57.15 -20.0 57.3 -20.05 57.5 -20.1 57.55 -20.1 Q61.5 -19.55 65.25 -18.45 68.25 -17.55 68.45 -14.85 67.65 -13.45 66.0 -13.3 L61.4 -13.2 Q60.6 -13.25 60.1 -13.85 59.8 -14.9 60.6 -15.6 L61.25 -16.55 61.3 -16.65 61.25 -16.75 61.15 -16.95 61.1 -17.1 Q59.35 -18.45 57.3 -19.25 57.0 -19.35 56.95 -19.6 L57.0 -19.7 M61.0 -14.45 Q61.1 -14.05 61.75 -13.95 L66.4 -14.2 66.8 -14.35 67.4 -15.15 67.55 -15.3 Q66.6 -17.25 64.3 -17.75 L64.1 -17.95 64.05 -18.0 60.95 -18.5 Q63.3 -16.65 61.0 -14.55 L61.0 -14.45 M144.6 -76.1 L144.65 -75.95 144.65 -75.85 Q144.55 -75.45 144.25 -75.2 L143.6 -74.7 143.45 -74.7 141.7 -74.75 137.2 -76.0 Q132.2 -77.25 127.3 -77.4 L127.35 -77.3 127.4 -77.05 127.35 -76.85 127.3 -76.75 122.9 -76.9 Q119.15 -78.65 115.2 -80.0 112.75 -80.85 110.1 -80.9 L102.9 -80.7 102.85 -80.8 102.85 -81.0 102.9 -81.1 103.95 -81.65 112.95 -83.35 126.75 -82.9 Q134.15 -81.95 141.05 -78.8 143.2 -77.85 144.6 -76.1 M110.5 -81.9 Q116.95 -81.45 122.7 -78.1 123.45 -77.7 124.3 -77.4 L126.15 -77.5 126.15 -77.75 126.15 -77.85 126.25 -78.05 126.4 -78.25 Q131.55 -78.55 136.65 -77.15 L142.05 -75.65 143.6 -75.85 Q139.0 -78.95 133.5 -80.45 128.05 -81.95 122.45 -82.35 L122.2 -82.35 112.85 -82.4 110.5 -82.05 110.25 -81.95 110.5 -81.9 M122.6 -55.65 L122.55 -55.7 122.15 -55.9 122.1 -55.95 Q125.4 -56.9 129.2 -56.75 L133.95 -56.85 138.2 -56.95 Q143.6 -57.15 147.95 -54.3 L148.0 -54.2 148.05 -54.05 148.05 -53.95 148.1 -53.85 148.1 -53.65 148.15 -53.45 148.15 -53.4 Q151.25 -51.7 154.85 -50.75 156.55 -50.3 158.1 -49.5 164.05 -46.35 169.5 -42.4 L172.25 -40.1 Q176.85 -35.65 178.9 -29.75 179.4 -28.35 179.3 -26.9 177.2 -25.25 175.85 -27.6 L175.15 -28.85 Q173.05 -32.85 170.15 -36.4 L168.85 -37.8 Q164.5 -41.9 158.3 -42.2 L154.8 -42.6 Q151.65 -43.25 149.4 -45.15 L149.0 -45.55 Q148.2 -48.7 145.3 -50.6 L141.95 -52.45 Q134.85 -55.65 126.95 -55.4 124.75 -55.35 122.65 -55.45 L122.6 -55.65 M134.4 -55.9 Q140.1 -55.05 145.05 -51.8 147.95 -49.9 149.45 -47.0 L150.2 -45.8 Q151.15 -44.55 152.65 -44.2 155.9 -43.35 159.3 -42.9 162.3 -42.55 165.05 -41.4 169.6 -39.55 172.2 -35.35 L173.65 -33.3 Q175.65 -30.65 176.65 -27.55 L176.9 -27.4 177.1 -27.3 Q177.75 -26.95 178.4 -27.3 178.2 -30.3 176.6 -32.85 173.35 -37.95 168.7 -41.95 166.75 -43.65 164.5 -45.0 160.6 -47.35 156.45 -49.2 152.8 -50.8 148.85 -51.85 147.95 -52.1 147.25 -52.8 L147.25 -52.95 147.25 -53.05 147.15 -53.45 147.15 -53.7 Q144.15 -55.75 140.4 -55.95 L138.0 -56.0 137.6 -55.95 134.4 -55.9 M117.05 -49.55 L117.15 -49.45 117.35 -48.95 117.45 -48.8 117.6 -48.4 Q115.8 -46.7 113.0 -46.55 L101.0 -47.05 100.95 -47.45 101.05 -47.6 101.15 -48.0 Q106.25 -51.4 112.55 -51.2 115.1 -51.15 117.05 -49.55 M115.6 -49.45 Q114.1 -50.15 112.4 -50.25 107.3 -50.25 102.75 -48.1 L102.65 -48.05 Q109.65 -46.25 116.45 -48.6 L115.6 -49.45 M83.55 -7.2 Q86.8 -4.0 91.05 -2.45 L92.05 -2.35 Q92.15 -3.45 91.25 -4.25 L89.85 -5.65 Q87.8 -7.1 85.3 -7.4 L83.6 -7.3 83.4 -7.3 83.55 -7.2 M80.95 -7.95 L81.2 -8.35 81.35 -8.4 Q84.65 -8.55 87.8 -7.6 89.65 -7.05 91.2 -5.9 93.15 -4.45 92.85 -2.1 92.75 -1.3 91.9 -1.45 87.0 -2.45 83.4 -5.95 L81.35 -7.4 80.95 -7.95 M114.05 -14.45 Q117.75 -14.45 118.4 -11.2 118.45 -10.95 118.15 -10.85 116.25 -10.1 114.75 -11.9 L112.95 -14.05 113.15 -14.3 114.05 -14.45 M117.6 -11.55 Q116.75 -13.2 114.85 -13.45 115.85 -11.9 117.5 -11.5 L117.6 -11.55 M144.1 -12.45 Q151.75 -11.25 156.4 -5.05 L157.0 -4.0 Q157.65 -2.3 156.35 -1.2 149.9 -1.1 147.9 -6.9 L147.4 -8.3 Q146.2 -11.3 143.1 -11.9 L143.0 -12.0 Q143.25 -12.6 144.1 -12.4 L144.1 -12.45 M148.8 -6.3 Q151.2 -2.05 156.05 -2.25 156.4 -2.9 156.05 -3.55 L155.9 -3.95 Q152.35 -8.9 146.8 -10.9 148.65 -9.05 148.8 -6.4 L148.8 -6.3 M177.6 -12.55 L179.45 -9.95 Q180.7 -8.3 179.65 -6.75 175.3 -7.55 172.7 -11.3 L171.7 -13.05 Q171.0 -14.55 170.65 -16.15 L170.15 -16.7 170.15 -16.9 170.85 -17.1 Q175.15 -16.2 177.6 -12.55 M179.2 -7.75 Q178.75 -10.1 176.85 -11.75 176.6 -11.95 176.65 -12.25 174.65 -14.95 171.65 -15.95 173.1 -9.75 179.15 -7.75 L179.2 -7.75 M-176.2 -85.25 L-181.45 -82.2 -185.75 -79.45 -186.9 -78.5 Q-180.95 -79.8 -175.05 -82.0 -172.65 -82.9 -170.15 -83.45 L-159.8 -84.7 Q-156.3 -85.45 -155.35 -82.75 L-155.35 -82.1 -155.7 -81.3 Q-153.3 -79.6 -150.05 -80.05 -139.65 -81.35 -129.6 -78.6 -127.1 -77.95 -124.65 -76.95 -126.0 -78.15 -127.65 -78.95 -134.2 -82.25 -141.65 -82.6 -145.05 -82.75 -146.9 -85.6 L-147.5 -86.05 Q-155.45 -88.9 -164.05 -88.0 -169.85 -87.4 -175.2 -85.35 L-175.25 -85.35 -176.2 -85.25 M-176.95 -85.9 L-176.35 -86.2 -175.5 -86.3 Q-171.5 -87.9 -167.2 -88.5 L-161.9 -89.2 Q-154.35 -89.4 -147.4 -86.9 -145.45 -86.25 -144.4 -84.45 L-143.95 -83.95 Q-137.65 -83.4 -131.7 -81.65 -126.35 -80.1 -122.65 -76.1 L-122.6 -76.05 Q-122.0 -75.85 -121.8 -75.15 L-121.85 -75.05 -121.95 -74.9 -122.05 -74.8 -122.1 -74.7 -122.15 -74.7 -122.4 -74.65 -122.6 -74.65 -122.95 -75.15 Q-128.25 -77.7 -133.95 -78.8 L-146.15 -79.35 -152.55 -79.15 Q-155.35 -79.2 -156.55 -81.3 L-156.6 -81.65 -156.6 -81.7 -156.3 -82.2 -156.1 -82.85 -156.15 -82.95 -156.25 -83.1 -156.3 -83.2 -156.35 -83.3 Q-162.2 -84.2 -168.0 -83.05 -171.85 -82.35 -175.55 -81.05 L-182.45 -78.7 -184.75 -77.85 Q-186.6 -77.1 -188.25 -77.8 -188.05 -79.0 -186.9 -79.7 L-184.7 -81.25 -184.65 -81.25 -183.65 -82.0 Q-180.55 -84.25 -177.05 -85.8 L-176.95 -85.9 M-205.3 -62.55 L-205.0 -62.1 -204.8 -61.35 -204.85 -60.95 -205.3 -60.2 -205.3 -60.1 -205.25 -59.85 -205.25 -59.65 -205.2 -59.6 -204.65 -59.0 Q-194.8 -58.45 -184.9 -58.5 L-181.7 -58.35 -175.5 -57.75 Q-171.8 -57.45 -168.2 -56.4 -162.45 -54.75 -157.15 -52.05 -156.2 -51.6 -155.35 -50.95 -154.8 -50.55 -154.9 -50.0 L-155.7 -50.15 -155.8 -50.1 -155.95 -50.05 -156.0 -50.0 -157.6 -50.5 Q-162.95 -52.75 -168.9 -53.45 L-174.25 -54.1 Q-188.85 -55.85 -202.9 -52.15 L-208.7 -50.55 Q-211.25 -49.75 -212.85 -51.45 L-213.2 -51.8 -213.2 -51.9 -213.2 -52.2 -213.2 -52.3 -213.2 -52.55 -213.2 -52.65 -213.2 -53.1 -213.2 -53.3 -215.5 -52.95 Q-221.55 -50.35 -226.7 -46.35 L-232.3 -41.4 Q-233.85 -39.9 -235.75 -38.95 L-235.95 -39.0 -236.3 -39.3 -236.35 -39.35 -236.5 -39.85 -236.2 -41.15 -235.75 -42.2 -235.65 -42.25 Q-234.85 -44.0 -233.55 -45.4 L-231.1 -48.15 Q-228.3 -51.5 -224.65 -53.9 -218.25 -58.1 -211.35 -61.35 -208.95 -62.5 -206.25 -62.6 L-205.5 -62.6 -205.3 -62.55 M-205.9 -61.55 Q-210.35 -61.5 -214.25 -59.1 L-216.55 -57.75 -221.25 -55.1 Q-225.35 -52.65 -228.8 -49.3 -232.4 -45.8 -234.8 -41.5 L-235.5 -40.15 Q-235.1 -40.2 -234.45 -40.7 -231.55 -43.05 -228.95 -45.7 L-226.35 -47.95 Q-220.8 -51.95 -214.4 -54.3 -213.25 -54.7 -212.4 -54.05 L-212.3 -53.95 -212.25 -53.65 -212.25 -53.55 -212.2 -53.3 -212.2 -53.2 -212.25 -52.5 -212.3 -52.25 -211.45 -51.6 Q-207.9 -51.0 -204.65 -52.5 -203.05 -53.25 -201.35 -53.65 -195.4 -55.05 -189.4 -55.5 L-174.5 -55.0 -170.35 -54.6 -163.15 -53.3 -161.25 -52.8 -163.05 -53.7 -163.4 -53.95 Q-168.45 -55.55 -173.7 -56.3 L-184.05 -57.45 Q-191.1 -57.95 -198.15 -57.55 -201.95 -57.35 -205.35 -58.6 -205.7 -58.75 -206.05 -59.05 L-206.25 -60.15 -205.9 -61.0 -205.85 -61.1 -205.85 -61.35 -205.9 -61.55 M-74.65 -88.65 Q-74.25 -92.7 -74.65 -96.7 L-74.6 -98.85 Q-74.4 -100.75 -72.65 -99.9 L-72.4 -99.9 -72.15 -100.0 -71.75 -100.4 -71.55 -101.4 Q-71.55 -102.15 -71.95 -102.8 L-72.85 -103.5 -73.3 -104.15 -74.55 -104.7 -75.5 -104.75 -75.8 -104.9 -76.1 -105.0 -76.15 -105.2 -76.15 -105.25 -76.6 -105.35 -76.7 -105.4 -76.9 -105.4 -78.65 -105.05 -79.0 -104.95 -79.2 -104.8 -79.3 -104.7 -79.5 -104.5 -79.55 -103.85 -79.55 -102.9 Q-77.2 -100.2 -77.15 -96.7 -77.15 -94.4 -75.95 -92.3 -75.0 -90.6 -74.8 -88.65 L-74.7 -88.2 -74.65 -88.65 M-80.15 -102.1 Q-81.55 -104.55 -79.1 -105.8 L-77.0 -106.4 Q-72.3 -106.05 -70.9 -101.8 -70.65 -101.0 -70.9 -100.25 -71.3 -99.15 -72.4 -98.8 L-73.0 -99.0 -73.55 -99.2 -73.5 -94.65 -73.4 -93.0 Q-73.3 -90.0 -74.2 -87.4 L-74.65 -87.05 Q-76.15 -87.7 -76.15 -89.65 -76.2 -91.3 -77.15 -92.75 -78.55 -94.95 -78.35 -97.5 -78.15 -99.3 -79.35 -100.75 L-80.15 -102.1 M-125.95 -56.35 Q-122.8 -54.65 -118.95 -54.1 L-117.4 -53.85 Q-111.15 -52.65 -104.75 -52.7 -110.65 -53.95 -114.6 -58.3 L-114.75 -58.75 -114.7 -59.3 -114.55 -59.5 -114.5 -59.6 -114.3 -59.85 -114.4 -59.9 Q-120.1 -61.75 -126.35 -61.9 L-127.35 -61.65 -127.55 -61.65 -127.35 -61.55 Q-125.4 -60.8 -124.0 -59.1 -123.75 -58.75 -123.85 -58.35 L-123.95 -58.15 -124.05 -58.05 -124.3 -57.7 -125.8 -56.8 -126.1 -56.45 -125.95 -56.35 M-111.5 -59.7 L-111.5 -59.65 -111.6 -59.45 -111.65 -59.35 -112.15 -59.25 -113.4 -59.15 -113.85 -58.95 -113.85 -58.85 -113.85 -58.65 -113.85 -58.55 -113.85 -58.45 -113.55 -58.1 Q-112.7 -57.25 -111.6 -56.7 L-111.2 -56.4 -110.95 -56.3 -110.75 -56.1 -110.7 -56.05 -110.6 -55.95 Q-108.6 -55.0 -106.5 -54.2 L-104.65 -53.6 -102.6 -52.9 -102.6 -52.8 -102.55 -52.6 -102.55 -52.5 -102.65 -52.2 Q-107.3 -51.2 -112.3 -51.95 -118.6 -52.95 -124.75 -54.45 -126.8 -54.95 -126.85 -56.65 -126.9 -57.2 -126.35 -57.45 -125.3 -57.95 -124.85 -58.8 -126.05 -60.1 -127.9 -60.8 -128.75 -61.1 -128.35 -61.8 -127.75 -63.0 -126.3 -62.9 -118.75 -62.6 -111.75 -60.0 L-111.5 -59.7 M-133.1 -37.4 Q-136.2 -36.7 -139.4 -36.75 L-141.15 -36.6 Q-144.0 -36.05 -146.8 -35.1 L-146.85 -35.05 -147.1 -34.85 -147.2 -34.75 Q-145.25 -33.55 -147.05 -32.5 L-151.35 -29.65 -155.65 -26.6 Q-159.15 -24.2 -161.05 -20.55 -158.9 -21.0 -156.75 -22.7 -151.35 -27.0 -144.55 -26.75 -142.6 -26.65 -142.4 -24.65 L-142.2 -24.3 Q-135.8 -23.35 -129.9 -25.75 -127.4 -26.75 -125.2 -28.35 -124.3 -29.05 -123.2 -29.35 L-125.85 -28.85 Q-132.7 -26.35 -138.95 -29.65 -140.5 -30.45 -140.35 -32.2 -139.15 -33.55 -137.25 -34.0 -136.75 -34.15 -136.25 -34.4 L-130.75 -37.35 -133.1 -37.4 M-133.3 -38.4 L-133.15 -38.45 -132.4 -38.55 -132.3 -38.6 -132.0 -38.6 Q-130.65 -38.6 -129.65 -37.8 -129.35 -37.55 -129.5 -37.2 L-137.5 -32.6 Q-138.2 -32.25 -139.05 -32.25 L-139.2 -32.05 -139.3 -31.95 -139.45 -31.8 Q-138.05 -29.15 -134.75 -28.8 -130.25 -28.35 -126.05 -29.65 -122.25 -30.8 -118.45 -31.05 L-118.25 -30.85 -118.2 -30.75 -118.2 -30.6 -119.35 -29.75 Q-121.35 -28.45 -124.1 -28.15 -127.85 -25.2 -132.5 -23.9 -137.85 -22.4 -142.95 -23.95 L-143.3 -24.25 -143.65 -25.45 -143.7 -25.5 -143.85 -25.7 -144.05 -25.85 Q-150.6 -26.35 -155.85 -22.1 -158.4 -20.0 -161.5 -19.65 -161.85 -19.65 -162.1 -19.95 L-162.1 -20.35 -161.95 -21.0 Q-160.5 -23.7 -158.15 -25.75 -153.0 -30.2 -147.1 -33.3 L-148.35 -34.45 -148.35 -34.55 Q-146.85 -36.8 -143.7 -37.25 L-138.5 -37.95 -135.05 -38.2 -133.7 -38.35 -133.3 -38.4 M-135.45 -0.2 L-135.5 -0.3 -135.5 -0.35 -135.5 -0.45 -135.5 -0.65 Q-132.4 -4.0 -128.65 -6.65 L-127.65 -7.45 Q-125.25 -9.85 -121.9 -10.0 L-120.35 -9.6 -120.3 -9.55 Q-120.0 -4.45 -124.75 -2.35 -127.55 -1.1 -130.55 -0.2 L-135.0 0.3 -135.2 0.1 -135.4 -0.1 -135.45 -0.2 M-134.35 -0.65 Q-129.25 -1.1 -124.45 -3.5 -122.7 -4.35 -121.9 -6.15 -121.3 -7.4 -121.1 -8.8 L-121.1 -8.85 -121.15 -8.9 -121.8 -9.0 Q-126.1 -8.65 -128.75 -5.25 L-129.85 -4.3 Q-132.35 -2.8 -134.35 -0.65 M-52.1 -78.65 L-51.9 -78.7 Q-47.05 -72.95 -47.05 -65.25 -47.1 -61.55 -48.6 -58.15 -51.9 -50.8 -46.8 -44.35 L-45.45 -42.15 Q-45.05 -41.4 -45.85 -40.95 -48.25 -41.65 -50.5 -43.0 -52.9 -44.5 -54.8 -46.6 -58.35 -50.65 -56.8 -55.8 L-55.8 -58.9 -51.8 -65.25 Q-51.35 -66.55 -51.25 -67.9 L-51.1 -68.45 -52.65 -74.95 Q-53.1 -76.55 -52.3 -78.0 L-52.3 -78.1 -52.35 -78.3 -52.35 -78.4 -52.1 -78.65 M-75.4 -57.65 Q-75.2 -57.95 -74.9 -58.05 L-74.5 -58.2 Q-72.2 -57.55 -70.35 -55.85 -69.8 -55.35 -69.75 -54.7 -69.65 -53.2 -71.15 -52.5 -73.9 -51.2 -74.8 -54.25 -75.3 -55.9 -75.4 -57.65 M-73.75 -53.95 L-72.9 -52.95 Q-71.3 -52.95 -70.45 -54.4 -71.85 -55.3 -72.95 -56.55 -73.6 -57.05 -74.3 -57.25 -74.4 -55.55 -73.8 -54.05 L-73.75 -53.95 M-50.45 -66.85 Q-51.45 -63.5 -53.45 -60.5 L-54.9 -58.45 Q-57.75 -53.05 -54.65 -48.05 -53.55 -46.35 -51.8 -45.2 -49.1 -43.45 -46.3 -41.95 -52.05 -47.95 -50.25 -55.85 L-49.15 -59.35 Q-46.45 -66.0 -49.4 -72.45 -50.4 -74.75 -51.8 -76.65 -51.55 -73.1 -50.5 -69.55 -50.05 -68.2 -50.45 -66.85 M-70.9 -6.3 L-70.9 -6.0 -71.05 -5.8 Q-70.7 -2.25 -72.5 1.15 -73.2 2.45 -72.8 3.85 L-72.6 4.15 -72.45 4.3 Q-70.1 4.0 -68.5 5.35 -68.25 5.55 -68.4 5.9 L-70.3 8.75 Q-73.5 12.45 -76.1 16.6 L-78.3 19.75 Q-79.65 21.55 -81.65 21.75 L-82.0 21.7 Q-82.9 18.8 -80.8 16.25 L-80.45 15.7 Q-78.4 11.2 -77.05 6.5 L-77.15 6.2 -77.15 5.95 Q-78.65 5.15 -79.3 3.7 -79.55 3.15 -79.2 2.6 -76.25 -2.2 -72.0 -5.95 L-71.95 -6.25 -71.9 -6.45 -71.65 -6.55 -71.5 -6.6 Q-71.15 -6.65 -70.95 -6.35 L-70.9 -6.3 M-71.95 -4.65 Q-76.15 -1.1 -78.4 3.65 L-78.4 3.9 Q-74.85 5.7 -76.65 9.5 L-80.7 17.9 -81.4 20.15 -81.3 20.9 Q-77.05 17.6 -74.35 12.7 -72.8 9.9 -70.55 7.5 L-69.2 5.7 Q-71.2 5.75 -73.0 4.8 -73.7 4.45 -73.75 3.7 -74.0 0.9 -72.55 -1.7 -71.75 -3.2 -71.95 -4.65 M-71.15 -10.95 Q-71.4 -11.8 -70.75 -12.4 -65.75 -16.95 -58.8 -18.05 L-51.15 -19.4 Q-49.6 -19.8 -48.55 -19.05 L-48.5 -19.05 -47.85 -18.7 -47.8 -18.65 -48.4 -18.45 -48.5 -18.4 -48.65 -18.35 -48.75 -18.35 -55.2 -16.75 Q-57.8 -16.25 -60.1 -14.9 L-61.4 -14.2 -62.45 -12.85 -62.55 -12.7 Q-60.6 -10.75 -57.5 -10.6 L-52.85 -10.45 Q-49.15 -10.35 -45.75 -9.3 L-45.3 -8.9 Q-33.2 -6.05 -20.7 -5.95 L-17.65 -5.75 Q-11.35 -4.85 -5.45 -5.75 L-5.35 -5.45 -5.4 -5.3 Q-6.85 -4.55 -8.35 -4.25 L-8.45 -4.15 Q-21.45 -2.6 -34.6 -3.8 L-38.05 -4.05 Q-41.95 -4.35 -45.9 -3.95 -52.6 -3.25 -58.3 -6.1 L-58.45 -6.45 -58.4 -6.65 Q-62.45 -7.6 -66.9 -7.95 -70.3 -8.2 -71.15 -10.95 M-17.65 -4.9 L-33.6 -6.1 Q-39.65 -6.6 -45.5 -8.0 -46.1 -8.15 -46.3 -8.7 L-58.1 -9.8 Q-60.85 -10.05 -62.9 -11.8 -63.95 -12.75 -62.95 -13.75 -60.5 -16.2 -57.25 -17.3 L-62.05 -16.2 Q-65.2 -15.35 -67.9 -13.7 -69.85 -12.55 -70.45 -10.65 -66.8 -8.25 -62.2 -8.35 -59.65 -8.35 -57.45 -7.4 L-57.45 -7.3 -57.4 -7.0 -57.45 -6.35 Q-49.9 -3.85 -41.85 -5.1 L-35.55 -4.95 -32.8 -4.55 Q-25.2 -3.95 -17.6 -4.35 L-14.75 -4.55 -17.65 -4.9 M-7.6 -22.0 L-7.5 -21.9 -7.5 -21.6 -7.55 -21.45 Q-6.7 -18.5 -5.0 -16.1 L-4.9 -15.9 Q-5.55 -13.8 -8.05 -13.4 L-9.95 -13.25 Q-14.1 -13.2 -16.6 -15.95 L-16.2 -16.5 -16.1 -16.55 -15.0 -16.7 -11.6 -18.9 -10.55 -19.5 Q-9.35 -20.1 -8.65 -21.3 L-8.65 -21.6 -8.7 -21.75 Q-8.4 -22.2 -7.9 -22.15 L-7.6 -22.0 M-13.1 -16.85 L-15.0 -15.55 Q-10.45 -13.1 -5.95 -15.5 L-7.2 -18.3 -8.3 -20.25 Q-9.9 -18.5 -12.1 -17.45 L-13.1 -16.85 M-40.95 4.15 L-41.1 3.85 -41.2 3.6 -41.1 3.3 -40.75 3.15 Q-39.75 3.6 -39.1 4.7 L-39.05 4.8 Q-37.3 10.6 -42.4 14.3 L-42.55 14.4 -43.45 14.4 Q-44.8 12.25 -43.25 9.85 L-42.9 9.5 -42.85 9.4 -42.8 9.2 -42.8 9.15 Q-40.95 7.15 -40.95 4.55 L-40.95 4.15 M-41.95 9.9 Q-43.3 11.4 -43.05 13.35 -40.6 12.1 -39.75 9.35 -39.0 7.1 -40.05 5.2 -40.25 7.6 -41.85 9.5 L-41.9 9.6 -41.95 9.9" fill="#389cff" fill-rule="evenodd" stroke="none"/>
    <path d="M17.85 -78.9 L18.0 -79.2 18.05 -79.3 18.05 -79.4 18.05 -79.5 18.05 -79.6 18.15 -79.7 18.2 -79.8 18.3 -79.85 18.35 -80.35 18.5 -80.7 18.55 -80.9 18.55 -81.0 18.55 -81.1 18.65 -81.2 18.7 -81.3 18.8 -81.35 19.8 -83.65 Q22.15 -87.9 25.2 -91.7 28.55 -95.8 33.35 -97.85 36.35 -98.3 38.6 -100.25 41.4 -102.65 44.6 -104.4 L46.85 -105.55 Q51.6 -107.75 56.9 -107.85 60.5 -108.2 63.7 -106.7 L63.75 -106.6 64.05 -106.3 64.15 -106.2 64.2 -106.1 64.2 -106.0 64.2 -105.95 Q62.9 -104.9 61.1 -104.75 L59.15 -104.45 Q53.2 -103.15 47.7 -100.65 44.9 -99.35 43.6 -96.55 L42.45 -94.6 Q41.5 -93.2 40.05 -92.2 38.5 -91.1 36.9 -91.55 L37.55 -92.65 Q38.2 -93.35 38.3 -94.25 L38.3 -94.8 38.2 -94.9 38.0 -95.2 37.9 -95.3 37.8 -95.35 37.7 -95.45 37.55 -95.55 Q31.95 -94.8 27.55 -91.05 24.45 -88.4 22.1 -85.15 L17.9 -78.85 17.85 -78.9 M35.3 -60.1 L35.15 -59.85 35.05 -59.75 35.05 -59.65 35.05 -59.45 35.05 -59.3 35.05 -59.2 35.05 -59.1 Q35.35 -58.65 35.8 -58.8 L44.5 -60.75 50.65 -60.7 Q52.6 -60.55 53.55 -59.25 52.8 -58.45 51.55 -58.35 42.55 -57.6 33.85 -55.1 27.4 -53.25 21.9 -50.2 L25.5 -54.2 Q29.75 -58.6 35.3 -60.2 L35.3 -60.1 M4.6 -81.15 L4.7 -81.5 Q6.35 -86.45 11.1 -88.85 L11.35 -88.95 11.8 -89.1 Q12.1 -89.2 12.2 -88.9 L12.4 -88.45 Q11.7 -87.1 10.8 -85.9 L9.8 -84.95 Q7.1 -83.3 4.95 -81.05 L4.6 -81.15 M16.6 -16.1 Q16.65 -15.8 16.85 -15.65 20.05 -12.95 24.55 -13.7 14.9 -9.55 4.25 -11.7 7.0 -11.75 9.3 -13.25 10.75 -14.2 10.95 -15.9 L11.1 -16.0 Q12.35 -16.7 13.8 -16.9 15.45 -17.15 16.6 -16.1 M107.25 -21.7 L101.65 -24.3 Q92.25 -28.65 81.85 -27.5 L78.5 -26.95 Q75.85 -26.4 74.2 -28.1 74.7 -30.3 72.25 -31.1 68.4 -32.3 64.25 -31.65 L61.55 -31.3 61.55 -31.4 Q66.9 -35.7 73.55 -36.95 L74.25 -37.0 74.9 -36.55 74.85 -36.4 74.25 -35.3 Q73.6 -33.2 76.0 -33.1 L85.35 -32.25 Q91.35 -31.55 96.9 -29.2 L99.75 -28.05 Q104.7 -26.1 107.6 -21.95 L107.25 -21.7 M22.5 -6.85 L22.95 -6.8 Q28.7 -5.95 34.05 -7.7 36.75 -8.6 39.45 -7.75 L41.35 -7.55 Q48.75 -7.9 56.05 -9.55 L56.1 -9.5 55.7 -9.0 Q49.65 -6.6 43.05 -6.25 L39.1 -5.7 Q34.55 -4.5 29.9 -3.9 20.55 -2.7 12.0 -5.95 L22.5 -6.85 M61.0 -14.45 L61.0 -14.55 Q63.3 -16.65 60.95 -18.5 L64.05 -18.0 64.1 -17.95 64.3 -17.75 Q66.6 -17.25 67.55 -15.3 L67.4 -15.15 66.8 -14.35 66.4 -14.2 61.75 -13.95 Q61.1 -14.05 61.0 -14.45 M110.5 -82.05 L112.85 -82.4 122.2 -82.35 122.45 -82.35 Q128.05 -81.95 133.5 -80.45 139.0 -78.95 143.6 -75.85 L142.05 -75.65 136.65 -77.15 Q131.55 -78.55 126.4 -78.25 L126.25 -78.05 126.15 -77.85 126.15 -77.75 126.15 -77.5 124.3 -77.4 Q123.45 -77.7 122.7 -78.1 116.95 -81.45 110.5 -81.9 L110.5 -82.05 M134.4 -55.9 L137.6 -55.95 138.0 -56.0 140.4 -55.95 Q144.15 -55.75 147.15 -53.7 L147.15 -53.45 147.25 -53.05 147.25 -52.95 147.25 -52.8 Q147.95 -52.1 148.85 -51.85 152.8 -50.8 156.45 -49.2 160.6 -47.35 164.5 -45.0 166.75 -43.65 168.7 -41.95 173.35 -37.95 176.6 -32.85 178.2 -30.3 178.4 -27.3 177.75 -26.95 177.1 -27.3 L176.9 -27.4 176.65 -27.55 Q175.65 -30.65 173.65 -33.3 L172.2 -35.35 Q169.6 -39.55 165.05 -41.4 162.3 -42.55 159.3 -42.9 155.9 -43.35 152.65 -44.2 151.15 -44.55 150.2 -45.8 L149.45 -47.0 Q147.95 -49.9 145.05 -51.8 140.1 -55.05 134.4 -55.9 M83.6 -7.3 L85.3 -7.4 Q87.8 -7.1 89.85 -5.65 L91.25 -4.25 Q92.15 -3.45 92.05 -2.35 L91.05 -2.45 Q86.8 -4.0 83.55 -7.2 L83.6 -7.3 M148.8 -6.3 L148.8 -6.4 Q148.65 -9.05 146.8 -10.9 152.35 -8.9 155.9 -3.95 L156.05 -3.55 Q156.4 -2.9 156.05 -2.25 151.2 -2.05 148.8 -6.3 M179.15 -7.75 Q173.1 -9.75 171.65 -15.95 174.65 -14.95 176.65 -12.25 176.6 -11.95 176.85 -11.75 178.75 -10.1 179.2 -7.75 L179.15 -7.75 M-176.2 -85.25 L-175.25 -85.35 -175.2 -85.35 Q-169.85 -87.4 -164.05 -88.0 -155.45 -88.9 -147.5 -86.05 L-146.9 -85.6 Q-145.05 -82.75 -141.65 -82.6 -134.2 -82.25 -127.65 -78.95 -126.0 -78.15 -124.65 -76.95 -127.1 -77.95 -129.6 -78.6 -139.65 -81.35 -150.05 -80.05 -153.3 -79.6 -155.7 -81.3 L-155.35 -82.1 -155.35 -82.75 Q-156.3 -85.45 -159.8 -84.7 L-170.15 -83.45 Q-172.65 -82.9 -175.05 -82.0 -180.95 -79.8 -186.9 -78.5 L-185.75 -79.45 -181.45 -82.2 -176.2 -85.25 M-163.15 -53.3 L-170.35 -54.6 -174.5 -55.0 -189.4 -55.5 Q-195.4 -55.05 -201.35 -53.65 -203.05 -53.25 -204.65 -52.5 -207.9 -51.0 -211.45 -51.6 L-212.3 -52.25 -212.25 -52.5 -212.2 -53.2 -212.2 -53.3 -212.25 -53.55 -212.25 -53.65 -212.3 -53.95 -212.4 -54.05 Q-213.25 -54.7 -214.4 -54.3 -220.8 -51.95 -226.35 -47.95 L-228.95 -45.7 Q-231.55 -43.05 -234.45 -40.7 -235.1 -40.2 -235.5 -40.15 L-234.8 -41.5 Q-232.4 -45.8 -228.8 -49.3 -225.35 -52.65 -221.25 -55.1 L-216.55 -57.75 -214.25 -59.1 Q-210.35 -61.5 -205.9 -61.55 L-205.85 -61.1 -205.9 -61.0 -206.25 -60.15 -206.05 -59.05 Q-205.7 -58.75 -205.35 -58.6 -201.95 -57.35 -198.15 -57.55 -191.1 -57.95 -184.05 -57.45 L-173.7 -56.3 Q-168.45 -55.55 -163.4 -53.95 L-163.05 -53.7 -163.15 -53.3 M-74.8 -88.65 Q-75.0 -90.6 -75.95 -92.3 -77.15 -94.4 -77.15 -96.7 -77.2 -100.2 -79.55 -102.9 L-79.55 -103.85 -79.5 -104.5 -79.3 -104.7 -79.2 -104.8 -79.0 -104.95 -78.65 -105.05 -76.9 -105.4 -76.7 -105.4 -76.6 -105.35 -76.15 -105.25 -76.15 -105.2 -76.1 -105.0 -75.8 -104.9 -75.5 -104.75 -74.55 -104.7 -73.3 -104.15 -72.85 -103.5 -71.95 -102.8 Q-71.55 -102.15 -71.55 -101.4 L-71.75 -100.4 -72.15 -100.0 -72.4 -99.9 -72.65 -99.9 Q-74.4 -100.75 -74.6 -98.85 L-74.65 -96.7 Q-74.25 -92.7 -74.65 -88.65 L-74.8 -88.65 M-114.5 -59.6 L-114.55 -59.5 -114.7 -59.3 -114.75 -58.75 -114.6 -58.3 Q-110.65 -53.95 -104.75 -52.7 -111.15 -52.65 -117.4 -53.85 L-118.95 -54.1 Q-122.8 -54.65 -125.95 -56.35 L-125.8 -56.8 -124.3 -57.7 -124.05 -58.05 -123.95 -58.15 -123.85 -58.35 Q-123.75 -58.75 -124.0 -59.1 -125.4 -60.8 -127.35 -61.55 L-127.35 -61.65 -126.35 -61.9 Q-120.1 -61.75 -114.4 -59.9 L-114.5 -59.6 M-133.1 -37.4 L-130.75 -37.35 -136.25 -34.4 Q-136.75 -34.15 -137.25 -34.0 -139.15 -33.55 -140.35 -32.2 -140.5 -30.45 -138.95 -29.65 -132.7 -26.35 -125.85 -28.85 L-123.2 -29.35 Q-124.3 -29.05 -125.2 -28.35 -127.4 -26.75 -129.9 -25.75 -135.8 -23.35 -142.2 -24.3 L-142.4 -24.65 Q-142.6 -26.65 -144.55 -26.75 -151.35 -27.0 -156.75 -22.7 -158.9 -21.0 -161.05 -20.55 -159.15 -24.2 -155.65 -26.6 L-151.35 -29.65 -147.05 -32.5 Q-145.25 -33.55 -147.2 -34.75 L-147.1 -34.85 -146.85 -35.05 -146.8 -35.1 Q-144.0 -36.05 -141.15 -36.6 L-139.4 -36.75 Q-136.2 -36.7 -133.1 -37.4 M-134.35 -0.65 Q-132.35 -2.8 -129.85 -4.3 L-128.75 -5.25 Q-126.1 -8.65 -121.8 -9.0 L-121.15 -8.9 -121.1 -8.85 -121.1 -8.8 Q-121.3 -7.4 -121.9 -6.15 -122.7 -4.35 -124.45 -3.5 -129.25 -1.1 -134.35 -0.65 M-50.45 -66.85 Q-50.05 -68.2 -50.5 -69.55 -51.55 -73.1 -51.8 -76.65 -50.4 -74.75 -49.4 -72.45 -46.45 -66.0 -49.15 -59.35 L-50.25 -55.85 Q-52.05 -47.95 -46.3 -41.95 -49.1 -43.45 -51.8 -45.2 -53.55 -46.35 -54.65 -48.05 -57.75 -53.05 -54.9 -58.45 L-53.45 -60.5 Q-51.45 -63.5 -50.45 -66.85 M-73.75 -53.95 L-73.8 -54.05 Q-74.4 -55.55 -74.3 -57.25 -73.6 -57.05 -72.95 -56.55 -71.85 -55.3 -70.45 -54.4 -71.3 -52.95 -72.9 -52.95 L-73.75 -53.95 M-71.95 -4.65 Q-71.75 -3.2 -72.55 -1.7 -74.0 0.9 -73.75 3.7 -73.7 4.45 -73.0 4.8 -71.2 5.75 -69.2 5.7 L-70.55 7.5 Q-72.8 9.9 -74.35 12.7 -77.05 17.6 -81.3 20.9 L-81.4 20.15 -80.7 17.9 -76.65 9.5 Q-74.85 5.7 -78.4 3.9 L-78.4 3.65 Q-76.15 -1.1 -71.95 -4.65 M-17.6 -4.35 Q-25.2 -3.95 -32.8 -4.55 L-35.55 -4.95 -41.85 -5.1 Q-49.9 -3.85 -57.45 -6.35 L-57.4 -7.0 -57.45 -7.3 -57.45 -7.4 Q-59.65 -8.35 -62.2 -8.35 -66.8 -8.25 -70.45 -10.65 -69.85 -12.55 -67.9 -13.7 -65.2 -15.35 -62.05 -16.2 L-57.25 -17.3 Q-60.5 -16.2 -62.95 -13.75 -63.95 -12.75 -62.9 -11.8 -60.85 -10.05 -58.1 -9.8 L-46.3 -8.7 Q-46.1 -8.15 -45.5 -8.0 -39.65 -6.6 -33.6 -6.1 L-17.65 -4.9 -17.6 -4.35 M-13.1 -16.85 L-12.1 -17.45 Q-9.9 -18.5 -8.3 -20.25 L-7.2 -18.3 -5.95 -15.5 Q-10.45 -13.1 -15.0 -15.55 L-13.1 -16.85 M-41.95 9.9 L-41.9 9.6 -41.85 9.5 Q-40.25 7.6 -40.05 5.2 -39.0 7.1 -39.75 9.35 -40.6 12.1 -43.05 13.35 -43.3 11.4 -41.95 9.9" fill="#dfefff" fill-rule="evenodd" stroke="none"/>
  </g>
</svg>
