<?xml version="1.0" encoding="UTF-8" standalone="no"?>
<svg xmlns:xlink="http://www.w3.org/1999/xlink" height="8.5px" width="6.1px" xmlns="http://www.w3.org/2000/svg">
  <g transform="matrix(1.0, 0.0, 0.0, 1.0, 3.05, 4.25)">
    <path d="M2.55 -3.75 L2.55 3.75 0.45 3.75 0.45 -3.75 2.55 -3.75 M-0.45 -3.75 L-0.45 3.75 -2.55 3.75 -2.55 -3.75 -0.45 -3.75" fill="#e7e3e7" fill-rule="evenodd" stroke="none"/>
    <path d="M3.05 -3.75 L3.05 3.75 2.9 4.1 2.55 4.25 0.45 4.25 0.1 4.1 0.0 4.0 -0.1 4.1 -0.45 4.25 -2.55 4.25 -2.9 4.1 -3.05 3.75 -3.05 -3.75 -2.9 -4.1 -2.55 -4.25 -0.45 -4.25 -0.1 -4.1 0.0 -3.95 0.1 -4.1 0.45 -4.25 2.55 -4.25 2.9 -4.1 3.05 -3.75 M-0.2 -3.75 L-0.3 -3.9 -0.45 -4.0 -2.55 -4.0 -2.75 -3.9 -2.8 -3.75 -2.8 3.75 -2.75 3.95 -2.55 4.0 -0.45 4.0 -0.3 3.95 -0.2 3.75 -0.2 -3.75 M2.8 -3.75 L2.7 -3.9 2.55 -4.0 0.45 -4.0 0.25 -3.9 0.2 -3.75 0.2 3.75 0.25 3.95 0.45 4.0 2.55 4.0 2.7 3.95 2.8 3.75 2.8 -3.75" fill="#333333" fill-opacity="0.49803922" fill-rule="evenodd" stroke="none"/>
    <path d="M2.8 -3.75 L2.8 3.75 2.7 3.95 2.55 4.0 0.45 4.0 0.25 3.95 0.2 3.75 0.2 -3.75 0.25 -3.9 0.45 -4.0 2.55 -4.0 2.7 -3.9 2.8 -3.75 M-0.2 -3.75 L-0.2 3.75 -0.3 3.95 -0.45 4.0 -2.55 4.0 -2.75 3.95 -2.8 3.75 -2.8 -3.75 -2.75 -3.9 -2.55 -4.0 -0.45 -4.0 -0.3 -3.9 -0.2 -3.75" fill="#e7e3e7" fill-rule="evenodd" stroke="none"/>
  </g>
</svg>
