<?xml version="1.0" encoding="UTF-8" standalone="no"?>
<svg xmlns:xlink="http://www.w3.org/1999/xlink" height="28.35px" width="46.8px" xmlns="http://www.w3.org/2000/svg">
  <g transform="matrix(1.0, 0.0, 0.0, 1.0, 23.4, 14.15)">
    <path d="M11.6 2.7 L11.35 2.5 Q10.25 1.75 9.05 1.15 6.95 0.1 4.45 -0.4 L4.05 -0.25 3.95 -0.15 4.35 0.3 7.8 1.55 9.55 2.8 Q12.0 4.45 14.05 6.55 L14.25 6.75 13.7 6.9 12.95 7.15 10.7 7.65 5.2 8.3 -0.55 8.35 -5.9 7.9 -9.3 7.05 Q-11.85 6.15 -14.0 4.55 -15.2 3.7 -15.7 2.4 -16.1 1.45 -16.0 0.5 -15.8 -1.15 -15.15 -2.65 L-14.35 -4.35 Q-13.1 -6.95 -11.25 -9.15 L-8.85 -11.9 -6.25 -13.1 -6.1 -13.4 -6.15 -13.75 -6.15 -13.9 -5.3 -13.85 Q-3.9 -13.6 -2.75 -12.7 -1.9 -12.0 -1.4 -11.1 L-1.55 -11.0 -1.6 -10.85 -1.65 -10.7 -1.55 -10.2 Q-1.2 -9.35 -1.15 -8.5 L-0.85 -6.15 -5.1 -5.1 Q-8.35 -3.8 -10.8 -1.4 L-10.85 -1.25 -10.8 -1.15 -10.75 -1.05 -9.95 -1.2 Q-6.65 -3.4 -2.85 -4.35 6.0 -6.5 14.15 -2.75 17.45 -1.2 19.85 1.45 L21.15 3.25 20.6 3.6 Q19.55 4.15 18.35 4.15 15.4 4.2 12.7 3.0 L11.65 2.6 11.6 2.7" fill="#0ecfe4" fill-rule="evenodd" stroke="none"/>
    <path d="M14.25 6.75 L14.05 6.55 Q12.0 4.45 9.55 2.8 L7.8 1.55 4.35 0.3 3.95 -0.15 4.05 -0.25 4.45 -0.4 Q6.95 0.1 9.05 1.15 10.25 1.75 11.35 2.5 L11.6 2.7 12.45 3.35 Q14.6 5.1 16.3 7.65 L17.4 9.65 19.65 8.45 21.8 6.55 22.2 6.0 22.3 5.95 22.3 5.9 Q21.9 4.5 21.15 3.25 L19.85 1.45 Q17.45 -1.2 14.15 -2.75 6.0 -6.5 -2.85 -4.35 -6.65 -3.4 -9.95 -1.2 L-10.75 -1.05 -10.8 -1.15 -10.85 -1.25 -10.8 -1.4 Q-8.35 -3.8 -5.1 -5.1 L-0.85 -6.15 -1.15 -8.5 Q-1.2 -9.35 -1.55 -10.2 L-1.65 -10.7 -1.6 -10.85 -1.55 -11.0 -1.4 -11.1 -1.35 -11.15 -0.9 -11.15 -0.75 -11.1 Q0.85 -8.75 0.0 -6.25 L1.85 -6.4 Q9.5 -6.8 16.2 -3.25 19.85 -1.35 22.1 1.9 L22.1 1.95 Q23.7 4.1 23.3 6.65 L23.1 7.05 23.0 7.15 Q22.65 8.45 20.85 9.2 L19.15 9.95 Q3.95 16.95 -12.45 12.45 -16.7 11.3 -20.25 8.8 -22.15 7.55 -23.2 5.6 -23.55 4.95 -23.35 4.25 L-21.65 0.0 -21.65 -0.1 -21.65 -0.3 -20.9 -1.65 Q-18.6 -6.25 -14.6 -9.75 -11.25 -12.65 -7.2 -14.05 L-6.9 -14.15 -6.25 -13.9 -6.2 -13.85 -6.15 -13.75 -6.1 -13.4 -6.25 -13.1 -8.85 -11.9 -11.85 -10.05 Q-15.2 -7.65 -17.7 -4.15 L-19.55 -1.65 -19.8 -1.15 -20.85 0.85 Q-21.75 3.0 -22.1 5.15 L-21.9 5.6 Q-15.4 11.45 -6.5 12.6 4.05 13.95 14.05 10.9 L16.2 10.15 16.1 10.0 15.8 9.25 15.8 9.15 15.05 7.95 14.3 6.8 14.25 6.75" fill="#000000" fill-rule="evenodd" stroke="none"/>
    <path d="M-11.85 -10.05 L-8.85 -11.9 -11.25 -9.15 -11.85 -10.05 M12.45 3.35 L11.6 2.7 11.65 2.6 12.7 3.0 12.45 3.35" fill="#ca5100" fill-rule="evenodd" stroke="none"/>
    <path d="M14.25 6.75 L14.3 6.8 15.05 7.95 15.8 9.15 15.8 9.25 16.1 10.0 16.2 10.15 14.05 10.9 Q4.05 13.95 -6.5 12.6 -15.4 11.45 -21.9 5.6 L-22.1 5.15 Q-21.75 3.0 -20.85 0.85 L-19.8 -1.15 -19.55 -1.65 -17.7 -4.15 Q-15.2 -7.65 -11.85 -10.05 L-11.25 -9.15 Q-13.1 -6.95 -14.35 -4.35 L-15.15 -2.65 Q-15.8 -1.15 -16.0 0.5 -16.1 1.45 -15.7 2.4 -15.2 3.7 -14.0 4.55 -11.85 6.15 -9.3 7.05 L-5.9 7.9 -0.55 8.35 5.2 8.3 10.7 7.65 12.95 7.15 13.7 6.9 14.25 6.75 M21.15 3.25 Q21.9 4.5 22.3 5.9 L22.3 5.95 22.2 6.0 21.8 6.55 19.65 8.45 17.4 9.65 16.3 7.65 Q14.6 5.1 12.45 3.35 L12.7 3.0 Q15.4 4.2 18.35 4.15 19.55 4.15 20.6 3.6 L21.15 3.25" fill="#0db5c8" fill-rule="evenodd" stroke="none"/>
  </g>
</svg>
