<?xml version="1.0" encoding="UTF-8" standalone="no"?>
<svg xmlns:xlink="http://www.w3.org/1999/xlink" height="25.35px" width="21.85px" xmlns="http://www.w3.org/2000/svg">
  <g transform="matrix(1.0, 0.0, 0.0, 1.0, 11.0, 12.65)">
    <path d="M0.0 -10.8 Q-1.25 -6.15 -3.7 -2.0 L-3.9 -1.8 -8.3 6.3 -8.3 6.35 Q-8.45 7.1 -8.95 7.6 L-10.45 9.3 -10.75 9.35 -10.8 9.3 -10.95 8.9 -11.0 8.7 -10.1 7.2 -10.05 7.1 -10.0 7.05 -9.75 6.55 -9.6 6.4 -9.55 6.3 -7.5 2.15 -4.6 -2.85 -3.15 -5.55 -1.6 -9.75 -1.0 -11.2 -0.85 -11.4 -0.75 -11.45 -0.5 -11.5 -0.25 -11.45 -0.05 -11.15 0.0 -10.95 0.0 -10.8 M3.55 9.85 Q7.15 4.05 8.75 -2.65 L10.0 -7.95 Q10.1 -8.4 10.5 -8.45 L10.7 -8.35 10.85 -8.3 Q11.0 -4.8 10.1 -1.35 8.85 3.2 6.35 7.2 5.55 10.05 3.0 11.45 2.7 11.6 2.6 11.3 L3.55 9.85" fill="#000000" fill-rule="evenodd" stroke="none"/>
    <path d="M0.0 -10.8 L0.6 -11.55 1.0 -11.85 Q3.7 -13.2 6.5 -12.25 9.35 -11.25 10.45 -8.55 L10.5 -8.45 Q10.1 -8.4 10.0 -7.95 L8.75 -2.65 Q7.15 4.05 3.55 9.85 L2.75 10.2 Q1.1 11.05 -0.75 11.4 L-1.4 11.6 -3.65 12.25 -6.75 12.7 Q-8.25 12.75 -9.5 12.1 -10.95 11.35 -10.85 9.8 L-10.8 9.3 -10.75 9.35 -10.45 9.3 -8.95 7.6 Q-8.45 7.1 -8.3 6.35 L-8.3 6.3 -3.9 -1.8 -3.7 -2.0 Q-1.25 -6.15 0.0 -10.8" fill="#0ecfe4" fill-rule="evenodd" stroke="none"/>
  </g>
</svg>
