<?xml version="1.0" encoding="UTF-8" standalone="no"?>
<svg xmlns:xlink="http://www.w3.org/1999/xlink" height="148.05px" width="55.8px" xmlns="http://www.w3.org/2000/svg">
  <g transform="matrix(1.0, 0.0, 0.0, 1.0, 27.55, 124.05)">
    <path d="M-24.3 -56.55 L-20.0 -120.95 -19.25 -120.95 Q-1.95 -125.95 15.25 -119.45 L22.55 -56.75 Q-0.9 -63.45 -24.3 -56.55 M24.1 -42.8 L28.0 -6.2 Q29.35 7.55 20.6 16.05 16.8 19.8 11.5 21.85 6.45 23.85 0.8 24.0 -4.8 24.15 -10.0 22.45 -15.35 20.65 -19.3 17.05 -28.35 8.9 -27.5 -5.45 L-25.2 -42.8 Q-0.55 -50.3 24.1 -42.8" fill="#ffffff" fill-rule="evenodd" stroke="none"/>
    <path d="M-24.3 -56.55 Q-0.9 -63.45 22.55 -56.75 L24.1 -42.8 Q-0.55 -50.3 -25.2 -42.8 L-24.3 -56.55" fill="#ff0000" fill-rule="evenodd" stroke="none"/>
    <path d="M10.45 -78.1 L7.55 -81.45 3.4 -79.95 5.7 -83.75 3.0 -87.25 7.3 -86.2 9.8 -89.9 10.15 -85.45 14.4 -84.2 10.35 -82.5 10.45 -78.1" fill="#1e1fad" fill-rule="evenodd" stroke="none"/>
    <path d="M3.05 -106.4 L6.5 -105.55 8.5 -108.5 8.75 -104.95 12.15 -103.95 8.9 -102.65 9.0 -99.1 6.7 -101.75 3.35 -100.6 5.2 -103.6 3.05 -106.4" fill="#b43534" fill-rule="evenodd" stroke="none"/>
    <path d="M-8.3 -96.1 L-11.2 -99.45 -15.35 -97.95 -13.05 -101.75 -15.75 -105.25 -11.45 -104.2 -8.95 -107.9 -8.6 -103.45 -4.35 -102.2 -8.4 -100.5 -8.3 -96.1" fill="#1e1fad" fill-rule="evenodd" stroke="none"/>
    <path d="M5.95 -112.25 L3.05 -115.6 -1.1 -114.1 1.2 -117.9 -1.5 -121.4 2.8 -120.35 5.3 -124.05 5.65 -119.6 9.9 -118.35 5.85 -116.65 5.95 -112.25" fill="#1e1fad" fill-rule="evenodd" stroke="none"/>
    <path d="M-14.35 -111.65 L-16.5 -115.0 -19.55 -113.5 -17.85 -117.3 -19.85 -120.8 -16.7 -119.75 -14.85 -123.45 -14.6 -119.0 -11.45 -117.75 -14.45 -116.05 -14.35 -111.65" fill="#1e1fad" fill-rule="evenodd" stroke="none"/>
    <path d="M-18.25 -78.1 L-20.1 -81.45 -22.75 -79.95 -21.25 -83.75 -23.0 -87.25 -20.25 -86.2 -18.65 -89.9 -18.4 -85.45 -15.7 -84.2 -18.3 -82.5 -18.25 -78.1" fill="#1e1fad" fill-rule="evenodd" stroke="none"/>
    <path d="M-22.0 -58.6 L-23.85 -61.95 -26.5 -60.45 -25.0 -64.25 -26.75 -67.75 -24.0 -66.7 -22.4 -70.4 -22.15 -65.95 -19.45 -64.7 -22.05 -63.0 -22.0 -58.6" fill="#1e1fad" fill-rule="evenodd" stroke="none"/>
    <path d="M22.95 -67.6 L21.1 -70.95 18.45 -69.45 19.95 -73.25 18.2 -76.75 20.95 -75.7 22.55 -79.4 22.8 -74.95 25.5 -73.7 22.9 -72.0 22.95 -67.6" fill="#1e1fad" fill-rule="evenodd" stroke="none"/>
    <path d="M-15.15 -90.45 L-11.7 -89.6 -9.7 -92.55 -9.45 -89.0 -6.05 -88.0 -9.3 -86.7 -9.2 -83.15 -11.5 -85.8 -14.85 -84.65 -13.0 -87.65 -15.15 -90.45" fill="#b43534" fill-rule="evenodd" stroke="none"/>
    <path d="M-12.55 -68.9 L-9.1 -68.05 -7.1 -71.0 -6.85 -67.45 -3.45 -66.45 -6.7 -65.15 -6.6 -61.6 -8.9 -64.25 -12.25 -63.1 -10.4 -66.1 -12.55 -68.9" fill="#b43534" fill-rule="evenodd" stroke="none"/>
    <path d="M11.95 -69.45 L14.3 -68.6 15.7 -71.55 15.9 -68.0 18.2 -67.0 15.95 -65.7 16.05 -62.15 14.45 -64.8 12.15 -63.65 13.45 -66.65 11.95 -69.45" fill="#b43534" fill-rule="evenodd" stroke="none"/>
    <path d="M12.65 -94.95 L14.55 -94.1 15.6 -97.05 15.75 -93.5 17.6 -92.5 15.85 -91.2 15.9 -87.65 14.65 -90.3 12.85 -89.15 13.85 -92.15 12.65 -94.95" fill="#b43534" fill-rule="evenodd" stroke="none"/>
    <path d="M-23.0 -98.7 L-21.1 -97.85 -20.05 -100.8 -19.9 -97.25 -18.05 -96.25 -19.8 -94.95 -19.75 -91.4 -21.0 -94.05 -22.8 -92.9 -21.8 -95.9 -23.0 -98.7" fill="#b43534" fill-rule="evenodd" stroke="none"/>
    <path d="M7.0 -122.7 Q11.35 -122.0 15.65 -120.35 18.75 -99.25 22.15 -62.35 24.15 -40.7 27.6 -13.4 28.55 -5.8 28.1 0.7 27.1 14.5 15.6 19.25 -0.3 25.85 -11.8 20.9 -23.05 16.1 -26.65 1.95 L15.95 -2.1 16.0 -2.2 7.0 -122.7" fill="url(#gradient0)" fill-rule="evenodd" stroke="none"/>
  </g>
  <defs>
    <linearGradient gradientTransform="matrix(-0.0091, 6.0E-4, -9.0E-4, -0.0132, 19.5, -56.65)" gradientUnits="userSpaceOnUse" id="gradient0" spreadMethod="pad" x1="-819.2" x2="819.2">
      <stop offset="0.0" stop-color="#000000" stop-opacity="0.5019608"/>
      <stop offset="1.0" stop-color="#000000" stop-opacity="0.0"/>
    </linearGradient>
  </defs>
</svg>
