<?xml version="1.0" encoding="UTF-8" standalone="no"?>
<svg xmlns:xlink="http://www.w3.org/1999/xlink" height="39.9px" width="216.85px" xmlns="http://www.w3.org/2000/svg">
  <g transform="matrix(1.0, 0.0, 0.0, 1.0, 108.4, 19.95)">
    <path d="M-92.25 -4.15 Q-100.55 -4.15 -100.5 0.25 -100.55 5.05 -95.9 5.05 L-93.05 4.5 Q-90.55 3.95 -89.2 3.4 -89.2 5.45 -88.65 9.0 -89.8 10.65 -93.0 11.85 -95.7 12.85 -97.4 12.85 -100.3 12.85 -103.1 9.85 -106.4 6.3 -106.4 1.1 -106.4 -6.4 -101.45 -10.25 -97.75 -13.1 -93.25 -13.1 -91.7 -13.1 -89.95 -11.8 L-90.5 -4.15 -92.25 -4.15" fill="#000000" fill-rule="evenodd" stroke="none"/>
    <path d="M-92.25 -4.15 Q-100.55 -4.15 -100.5 0.25 -100.55 5.05 -95.9 5.05 L-93.05 4.5 Q-90.55 3.95 -89.2 3.4 -89.2 5.45 -88.65 9.0 -89.8 10.65 -93.0 11.85 -95.7 12.85 -97.4 12.85 -100.3 12.85 -103.1 9.85 -106.4 6.3 -106.4 1.1 -106.4 -6.4 -101.45 -10.25 -97.75 -13.1 -93.25 -13.1 -91.7 -13.1 -89.95 -11.8 L-90.5 -4.15 -92.25 -4.15 Z" fill="none" stroke="#000000" stroke-linecap="round" stroke-linejoin="round" stroke-width="4.0"/>
    <path d="M-74.95 -9.3 L-71.6 -3.35 Q-69.35 1.55 -65.85 11.2 L-69.95 14.35 -72.75 16.3 Q-73.1 16.3 -74.45 13.2 L-76.55 8.45 -80.55 8.95 Q-82.8 9.3 -83.9 10.25 -84.35 10.6 -85.1 12.75 -85.8 14.65 -86.15 14.6 L-87.95 13.85 -90.0 12.85 Q-86.6 3.9 -80.35 -13.55 L-78.4 -14.15 Q-77.85 -14.15 -74.95 -9.3 M-78.85 -4.3 L-80.2 1.0 -76.65 0.55 Q-77.45 -2.15 -78.85 -4.3" fill="#000000" fill-rule="evenodd" stroke="none"/>
    <path d="M-74.95 -9.3 L-71.6 -3.35 Q-69.35 1.55 -65.85 11.2 L-69.95 14.35 -72.75 16.3 Q-73.1 16.3 -74.45 13.2 L-76.55 8.45 -80.55 8.95 Q-82.8 9.3 -83.9 10.25 -84.35 10.6 -85.1 12.75 -85.8 14.65 -86.15 14.6 L-87.95 13.85 -90.0 12.85 Q-86.6 3.9 -80.35 -13.55 L-78.4 -14.15 Q-77.85 -14.15 -74.95 -9.3 M-78.85 -4.3 L-80.2 1.0 -76.65 0.55 Q-77.45 -2.15 -78.85 -4.3" fill="none" stroke="#000000" stroke-linecap="round" stroke-linejoin="round" stroke-width="4.0"/>
    <path d="M-50.55 -16.1 L-45.55 -17.95 -45.55 13.15 Q-46.55 13.55 -49.25 15.3 L-60.45 3.8 -60.5 5.25 Q-60.5 8.7 -59.7 11.4 L-59.7 12.8 -62.6 14.95 -64.9 16.55 Q-65.45 16.6 -65.75 12.3 L-66.8 -8.85 Q-61.85 -11.85 -60.65 -11.85 -60.3 -11.85 -57.45 -6.85 -54.3 -1.4 -52.9 0.1 L-50.55 -16.1" fill="#000000" fill-rule="evenodd" stroke="none"/>
    <path d="M-50.55 -16.1 L-45.55 -17.95 -45.55 13.15 Q-46.55 13.55 -49.25 15.3 L-60.45 3.8 -60.5 5.25 Q-60.5 8.7 -59.7 11.4 L-59.7 12.8 -62.6 14.95 -64.9 16.55 Q-65.45 16.6 -65.75 12.3 L-66.8 -8.85 Q-61.85 -11.85 -60.65 -11.85 -60.3 -11.85 -57.45 -6.85 -54.3 -1.4 -52.9 0.1 L-50.55 -16.1 Z" fill="none" stroke="#000000" stroke-linecap="round" stroke-linejoin="round" stroke-width="4.0"/>
    <path d="M-28.8 -16.1 L-23.8 -17.95 -23.8 13.15 -27.5 15.3 -38.7 3.8 -38.75 5.25 Q-38.75 8.7 -37.95 11.4 L-37.95 12.8 -40.85 14.95 -43.15 16.55 Q-43.7 16.6 -44.0 12.3 L-45.05 -8.85 Q-40.1 -11.85 -38.9 -11.85 -38.55 -11.85 -35.7 -6.85 -32.55 -1.4 -31.15 0.1 L-28.8 -16.1" fill="#000000" fill-rule="evenodd" stroke="none"/>
    <path d="M-28.8 -16.1 L-23.8 -17.95 -23.8 13.15 -27.5 15.3 -38.7 3.8 -38.75 5.25 Q-38.75 8.7 -37.95 11.4 L-37.95 12.8 -40.85 14.95 -43.15 16.55 Q-43.7 16.6 -44.0 12.3 L-45.05 -8.85 Q-40.1 -11.85 -38.9 -11.85 -38.55 -11.85 -35.7 -6.85 -32.55 -1.4 -31.15 0.1 L-28.8 -16.1 Z" fill="none" stroke="#000000" stroke-linecap="round" stroke-linejoin="round" stroke-width="4.0"/>
    <path d="M-8.2 1.15 Q-8.2 5.25 -10.45 8.15 -12.4 10.6 -14.4 10.6 -17.45 10.6 -19.9 8.2 -22.9 5.2 -22.9 -0.05 -22.9 -4.4 -20.15 -6.8 -17.95 -8.7 -15.4 -8.7 -11.9 -8.7 -9.9 -5.4 -8.2 -2.6 -8.2 1.15 M-16.7 -2.15 L-17.55 3.2 -14.2 4.5 Q-14.0 4.25 -13.7 1.75 L-13.4 -1.05 Q-13.75 -1.05 -15.05 -1.6 L-16.7 -2.15" fill="#000000" fill-rule="evenodd" stroke="none"/>
    <path d="M-8.2 1.15 Q-8.2 5.25 -10.45 8.15 -12.4 10.6 -14.4 10.6 -17.45 10.6 -19.9 8.2 -22.9 5.2 -22.9 -0.05 -22.9 -4.4 -20.15 -6.8 -17.95 -8.7 -15.4 -8.7 -11.9 -8.7 -9.9 -5.4 -8.2 -2.6 -8.2 1.15 M-16.7 -2.15 L-17.55 3.2 -14.2 4.5 Q-14.0 4.25 -13.7 1.75 L-13.4 -1.05 Q-13.75 -1.05 -15.05 -1.6 L-16.7 -2.15" fill="none" stroke="#000000" stroke-linecap="round" stroke-linejoin="round" stroke-width="4.0"/>
    <path d="M7.5 -16.1 L12.5 -17.95 12.5 13.15 Q11.5 13.55 8.8 15.3 L-2.4 3.8 -2.45 5.25 Q-2.45 8.7 -1.65 11.4 L-1.65 12.8 -4.55 14.95 -6.85 16.55 Q-7.4 16.6 -7.7 12.3 L-8.75 -8.85 Q-3.8 -11.85 -2.6 -11.85 -2.25 -11.85 0.6 -6.85 3.75 -1.4 5.15 0.1 L7.5 -16.1" fill="#000000" fill-rule="evenodd" stroke="none"/>
    <path d="M7.5 -16.1 L12.5 -17.95 12.5 13.15 Q11.5 13.55 8.8 15.3 L-2.4 3.8 -2.45 5.25 Q-2.45 8.7 -1.65 11.4 L-1.65 12.8 -4.55 14.95 -6.85 16.55 Q-7.4 16.6 -7.7 12.3 L-8.75 -8.85 Q-3.8 -11.85 -2.6 -11.85 -2.25 -11.85 0.6 -6.85 3.75 -1.4 5.15 0.1 L7.5 -16.1 Z" fill="none" stroke="#000000" stroke-linecap="round" stroke-linejoin="round" stroke-width="4.0"/>
    <path d="M49.25 -6.3 L48.9 -3.5 48.1 -3.5 Q47.45 -3.4 44.75 -4.25 L41.1 -5.1 39.3 -5.05 Q38.6 -4.85 37.4 -3.65 38.1 -2.55 39.35 -2.3 L42.9 -2.1 Q46.2 -1.8 48.55 -0.5 51.55 1.2 51.55 4.35 51.55 6.25 50.1 8.85 47.05 14.25 39.85 14.3 L35.5 14.0 Q32.8 13.5 31.2 12.05 L32.8 8.1 36.25 9.05 39.7 9.7 Q41.1 9.7 42.8 8.25 44.55 6.8 44.85 5.45 43.2 2.7 39.6 2.7 L38.35 2.7 37.1 2.7 Q34.4 2.7 33.05 1.3 32.6 0.85 32.3 -0.45 32.0 -1.6 32.0 -2.45 32.0 -10.85 42.25 -10.85 L45.6 -10.65 50.25 -9.0 Q49.65 -8.3 49.25 -6.3" fill="#000000" fill-rule="evenodd" stroke="none"/>
    <path d="M49.25 -6.3 L48.9 -3.5 48.1 -3.5 Q47.45 -3.4 44.75 -4.25 L41.1 -5.1 39.3 -5.05 Q38.6 -4.85 37.4 -3.65 38.1 -2.55 39.35 -2.3 L42.9 -2.1 Q46.2 -1.8 48.55 -0.5 51.55 1.2 51.55 4.35 51.55 6.25 50.1 8.85 47.05 14.25 39.85 14.3 L35.5 14.0 Q32.8 13.5 31.2 12.05 L32.8 8.1 36.25 9.05 39.7 9.7 Q41.1 9.7 42.8 8.25 44.55 6.8 44.85 5.45 43.2 2.7 39.6 2.7 L38.35 2.7 37.1 2.7 Q34.4 2.7 33.05 1.3 32.6 0.85 32.3 -0.45 32.0 -1.6 32.0 -2.45 32.0 -10.85 42.25 -10.85 L45.6 -10.65 50.25 -9.0 Q49.65 -8.3 49.25 -6.3 Z" fill="none" stroke="#000000" stroke-linecap="round" stroke-linejoin="round" stroke-width="4.0"/>
    <path d="M71.0 1.75 L71.25 7.05 71.25 13.05 69.45 12.85 65.15 13.0 64.1 3.55 60.35 4.85 Q58.15 5.6 56.6 6.4 L57.85 15.4 51.5 17.95 50.45 -11.1 53.4 -11.85 Q55.1 -12.25 56.55 -12.8 57.2 -6.35 57.1 -2.85 L57.1 -2.75 Q57.1 -2.6 57.55 -2.6 57.85 -2.6 60.7 -3.95 L65.45 -6.2 65.45 -10.65 65.25 -16.1 Q68.15 -14.7 70.7 -14.45 L70.7 -3.55 71.0 1.75" fill="#000000" fill-rule="evenodd" stroke="none"/>
    <path d="M71.0 1.75 L71.25 7.05 71.25 13.05 69.45 12.85 65.15 13.0 64.1 3.55 60.35 4.85 Q58.15 5.6 56.6 6.4 L57.85 15.4 51.5 17.95 50.45 -11.1 53.4 -11.85 Q55.1 -12.25 56.55 -12.8 57.2 -6.35 57.1 -2.85 L57.1 -2.75 Q57.1 -2.6 57.55 -2.6 57.85 -2.6 60.7 -3.95 L65.45 -6.2 65.45 -10.65 65.25 -16.1 Q68.15 -14.7 70.7 -14.45 L70.7 -3.55 71.0 1.75 Z" fill="none" stroke="#000000" stroke-linecap="round" stroke-linejoin="round" stroke-width="4.0"/>
    <path d="M85.9 1.15 Q85.9 5.25 83.65 8.15 81.7 10.6 79.7 10.6 76.65 10.6 74.2 8.2 71.2 5.2 71.2 -0.05 71.2 -4.4 73.95 -6.8 76.15 -8.7 78.7 -8.7 82.2 -8.7 84.2 -5.4 85.9 -2.6 85.9 1.15 M77.4 -2.15 L76.55 3.2 79.9 4.5 80.4 1.75 80.7 -1.05 Q80.35 -1.05 79.05 -1.6 L77.4 -2.15" fill="#000000" fill-rule="evenodd" stroke="none"/>
    <path d="M85.9 1.15 Q85.9 5.25 83.65 8.15 81.7 10.6 79.7 10.6 76.65 10.6 74.2 8.2 71.2 5.2 71.2 -0.05 71.2 -4.4 73.95 -6.8 76.15 -8.7 78.7 -8.7 82.2 -8.7 84.2 -5.4 85.9 -2.6 85.9 1.15 M77.4 -2.15 L76.55 3.2 79.9 4.5 80.4 1.75 80.7 -1.05 Q80.35 -1.05 79.05 -1.6 L77.4 -2.15" fill="none" stroke="#000000" stroke-linecap="round" stroke-linejoin="round" stroke-width="4.0"/>
    <path d="M106.45 -7.85 Q103.85 -6.9 102.6 -6.15 100.05 -4.7 99.25 -3.0 L101.3 12.75 Q96.75 14.15 93.9 15.7 L93.1 -0.9 Q92.8 -1.35 92.25 -1.35 91.75 -1.35 90.55 -0.65 89.3 0.05 89.05 0.05 L87.8 0.45 86.5 0.8 84.85 0.8 Q85.05 0.05 85.05 -2.1 L84.85 -7.7 103.45 -14.35 105.65 -14.35 106.45 -7.85" fill="#000000" fill-rule="evenodd" stroke="none"/>
    <path d="M106.45 -7.85 Q103.85 -6.9 102.6 -6.15 100.05 -4.7 99.25 -3.0 L101.3 12.75 Q96.75 14.15 93.9 15.7 L93.1 -0.9 Q92.8 -1.35 92.25 -1.35 91.75 -1.35 90.55 -0.65 89.3 0.05 89.05 0.05 L87.8 0.45 86.5 0.8 84.85 0.8 Q85.05 0.05 85.05 -2.1 L84.85 -7.7 103.45 -14.35 105.65 -14.35 106.45 -7.85 Z" fill="none" stroke="#000000" stroke-linecap="round" stroke-linejoin="round" stroke-width="4.0"/>
    <path d="M-92.25 -4.15 Q-100.55 -4.15 -100.5 0.25 -100.55 5.05 -95.9 5.05 L-93.05 4.5 Q-90.55 3.95 -89.2 3.4 -89.2 5.45 -88.65 9.0 -89.8 10.65 -93.0 11.85 -95.7 12.85 -97.4 12.85 -100.3 12.85 -103.1 9.85 -106.4 6.3 -106.4 1.1 -106.4 -6.4 -101.45 -10.25 -97.75 -13.1 -93.25 -13.1 -91.7 -13.1 -89.95 -11.8 L-90.5 -4.15 -92.25 -4.15" fill="#ffff00" fill-rule="evenodd" stroke="none"/>
    <path d="M-71.6 -3.35 Q-69.35 1.55 -65.85 11.2 L-69.95 14.35 -72.75 16.3 Q-73.1 16.3 -74.45 13.2 L-76.55 8.45 -80.55 8.95 Q-82.8 9.3 -83.9 10.25 -84.35 10.6 -85.1 12.75 -85.8 14.65 -86.15 14.6 L-87.95 13.85 -90.0 12.85 Q-86.6 3.9 -80.35 -13.55 L-78.4 -14.15 Q-77.85 -14.15 -74.95 -9.3 -72.3 -4.9 -71.6 -3.35 M-78.85 -4.3 L-80.2 1.0 -76.65 0.55 Q-77.45 -2.15 -78.85 -4.3" fill="#ffff00" fill-rule="evenodd" stroke="none"/>
    <path d="M-50.55 -16.1 L-45.5 -17.95 -45.5 13.15 Q-46.55 13.55 -49.25 15.3 L-60.45 3.75 -60.5 5.2 Q-60.5 8.65 -59.65 11.35 L-59.65 12.75 -62.6 14.95 -64.9 16.55 Q-65.45 16.55 -65.75 12.25 L-66.8 -8.85 Q-61.85 -11.85 -60.65 -11.85 -60.3 -11.85 -57.45 -6.9 -54.25 -1.4 -52.85 0.1 L-50.55 -16.1" fill="#ffff00" fill-rule="evenodd" stroke="none"/>
    <path d="M-28.8 -16.1 L-23.75 -17.95 -23.75 13.15 Q-24.8 13.55 -27.5 15.3 L-38.7 3.75 -38.75 5.2 Q-38.75 8.65 -37.9 11.35 L-37.9 12.75 -40.85 14.95 -43.15 16.55 Q-43.7 16.55 -44.0 12.25 L-45.05 -8.85 Q-40.1 -11.85 -38.9 -11.85 -38.55 -11.85 -35.7 -6.9 -32.5 -1.4 -31.1 0.1 L-28.8 -16.1" fill="#ffff00" fill-rule="evenodd" stroke="none"/>
    <path d="M-8.2 1.15 Q-8.2 5.25 -10.45 8.15 -12.4 10.6 -14.4 10.6 -17.45 10.6 -19.9 8.2 -22.9 5.2 -22.9 -0.05 -22.9 -4.4 -20.15 -6.8 -17.95 -8.7 -15.4 -8.7 -11.9 -8.7 -9.9 -5.4 -8.2 -2.6 -8.2 1.15 M-13.4 -1.05 Q-13.75 -1.05 -15.05 -1.6 L-16.7 -2.15 -17.55 3.2 -14.2 4.5 Q-14.0 4.25 -13.7 1.75 L-13.4 -1.05" fill="#ffff00" fill-rule="evenodd" stroke="none"/>
    <path d="M7.5 -16.1 L12.55 -17.95 12.55 13.15 Q11.5 13.55 8.8 15.3 L-2.4 3.75 -2.45 5.2 Q-2.45 8.65 -1.6 11.35 L-1.6 12.75 -4.55 14.95 -6.85 16.55 Q-7.4 16.55 -7.7 12.25 L-8.75 -8.85 Q-3.8 -11.85 -2.6 -11.85 -2.25 -11.85 0.6 -6.9 3.8 -1.4 5.2 0.1 L7.5 -16.1" fill="#ffff00" fill-rule="evenodd" stroke="none"/>
    <path d="M48.55 -0.5 Q51.55 1.2 51.55 4.35 51.55 6.25 50.1 8.85 47.05 14.25 39.85 14.3 L35.5 14.0 Q32.8 13.5 31.2 12.05 L32.8 8.1 36.3 9.05 39.7 9.7 Q41.1 9.7 42.85 8.25 44.55 6.8 44.85 5.45 43.2 2.7 39.6 2.7 L38.35 2.7 37.1 2.7 Q34.4 2.7 33.05 1.3 32.6 0.85 32.3 -0.45 32.0 -1.6 32.0 -2.45 32.0 -10.85 42.25 -10.85 L45.6 -10.65 50.25 -9.0 Q49.65 -8.3 49.25 -6.3 L48.9 -3.5 48.1 -3.5 Q47.45 -3.4 44.75 -4.25 L41.1 -5.1 39.3 -5.05 Q38.6 -4.85 37.4 -3.65 38.1 -2.55 39.35 -2.3 L42.9 -2.1 Q46.2 -1.8 48.55 -0.5" fill="#ffff00" fill-rule="evenodd" stroke="none"/>
    <path d="M71.2 7.05 L71.2 13.05 69.4 12.85 65.15 13.0 64.1 3.55 60.35 4.8 Q58.15 5.6 56.55 6.35 L57.85 15.4 51.5 17.95 50.45 -11.15 53.4 -11.85 Q55.1 -12.25 56.55 -12.8 57.2 -6.4 57.1 -2.9 L57.1 -2.8 Q57.05 -2.6 57.55 -2.6 57.8 -2.6 60.7 -3.95 L65.45 -6.2 65.45 -10.65 65.25 -16.1 Q68.15 -14.75 70.7 -14.45 L70.7 -3.55 71.0 1.7 71.2 7.05" fill="#ffff00" fill-rule="evenodd" stroke="none"/>
    <path d="M85.9 1.15 Q85.9 5.25 83.65 8.15 81.7 10.6 79.7 10.6 76.65 10.6 74.2 8.2 71.2 5.2 71.2 -0.05 71.2 -4.4 73.95 -6.8 76.15 -8.7 78.7 -8.7 82.2 -8.7 84.2 -5.4 85.9 -2.6 85.9 1.15 M80.7 -1.05 Q80.35 -1.05 79.05 -1.6 L77.4 -2.15 76.55 3.2 79.9 4.5 80.4 1.75 80.7 -1.05" fill="#ffff00" fill-rule="evenodd" stroke="none"/>
    <path d="M106.4 -7.85 Q103.85 -6.9 102.6 -6.15 100.05 -4.7 99.25 -3.0 L101.25 12.75 Q96.75 14.15 93.9 15.7 L93.1 -0.9 Q92.75 -1.35 92.25 -1.35 91.7 -1.35 90.5 -0.65 L89.05 0.05 87.8 0.45 86.45 0.8 84.85 0.8 Q85.05 0.05 85.05 -2.1 L84.85 -7.7 103.45 -14.35 105.6 -14.35 106.4 -7.85" fill="#ffff00" fill-rule="evenodd" stroke="none"/>
  </g>
</svg>
