<?xml version="1.0" encoding="UTF-8" standalone="no"?>
<svg xmlns:xlink="http://www.w3.org/1999/xlink" height="430.1px" width="568.15px" xmlns="http://www.w3.org/2000/svg">
  <g transform="matrix(1.0, 0.0, 0.0, 1.0, 284.1, 215.05)">
    <path d="M246.15 25.35 L246.2 25.2 246.35 25.0 246.5 24.8 247.0 24.45 247.3 24.35 Q260.5 23.55 271.2 30.3 271.95 27.65 273.15 25.15 274.95 21.45 278.15 18.9 278.85 18.35 279.65 18.1 280.5 18.05 281.25 18.65 L281.4 18.8 281.75 19.55 281.85 20.7 281.7 21.25 281.4 22.2 Q282.5 22.3 283.7 21.5 L284.05 21.4 284.05 90.35 Q279.8 91.6 274.65 90.95 L273.2 90.45 Q272.8 89.95 272.7 89.3 L272.7 88.95 Q263.1 91.75 253.6 88.0 L253.2 90.05 252.75 91.0 Q243.1 92.35 238.75 83.6 236.7 79.6 237.25 75.0 L235.4 74.9 234.6 74.1 234.45 73.95 Q235.35 70.05 238.45 66.95 241.7 63.7 245.35 61.3 243.05 60.75 240.95 59.1 237.1 56.1 235.65 51.55 L235.5 51.5 235.3 51.65 235.15 51.8 233.95 53.05 233.15 53.7 232.8 53.75 232.3 53.7 231.9 53.6 231.65 53.45 Q229.6 48.1 232.2 42.55 235.45 35.45 242.0 31.2 245.05 29.2 248.65 28.55 L248.4 28.4 248.0 28.2 247.7 27.95 246.55 26.85 246.2 26.5 246.15 26.3 246.15 26.1 246.15 25.95 246.15 25.55 246.15 25.35 M240.2 -4.9 L240.4 -4.85 240.45 -5.85 240.2 -4.9 M171.25 -95.65 L170.35 -96.65 Q170.35 -95.85 170.95 -95.55 L171.25 -95.65 M209.3 -192.75 L209.35 -192.9 Q210.6 -194.7 212.7 -195.4 214.8 -196.15 216.95 -196.3 L220.35 -196.45 Q217.6 -200.25 219.95 -205.85 222.4 -211.8 229.0 -212.5 L231.8 -212.85 234.45 -212.9 Q233.85 -213.95 233.7 -215.05 L284.05 -215.05 284.05 0.25 281.3 0.1 Q278.15 -0.25 275.45 -1.3 275.55 -0.2 274.7 0.55 L274.45 0.75 Q267.05 0.3 261.25 -4.9 258.4 -7.5 256.45 -10.7 254.55 -7.95 251.45 -5.7 246.15 -1.9 239.6 -2.65 238.3 -3.6 238.35 -5.1 L238.35 -5.65 Q233.3 -1.9 226.75 -2.7 216.45 -3.95 212.85 -13.6 212.1 -15.6 212.0 -17.75 211.6 -17.7 210.8 -17.0 210.7 -16.85 210.45 -16.8 209.75 -16.75 209.3 -17.3 L209.15 -17.5 Q206.45 -29.3 216.25 -36.1 212.8 -36.95 209.35 -38.85 205.1 -41.15 206.65 -45.25 204.85 -45.7 202.75 -46.6 202.25 -47.15 202.25 -47.9 L202.25 -48.65 Q203.8 -51.25 205.95 -53.2 200.6 -52.4 194.85 -53.45 191.1 -54.15 191.75 -57.35 183.25 -54.15 179.05 -61.75 177.85 -63.9 178.6 -66.15 174.05 -67.45 172.8 -71.3 172.55 -72.1 172.85 -72.9 173.95 -74.15 175.65 -74.6 174.3 -76.8 173.15 -79.5 172.6 -80.15 172.4 -81.25 L172.4 -81.45 172.35 -81.5 Q172.1 -82.15 172.2 -82.65 172.0 -84.1 171.95 -85.6 171.8 -89.65 172.6 -93.65 L172.6 -93.75 Q170.45 -93.0 168.85 -94.6 L168.65 -94.8 Q168.05 -98.75 169.2 -102.7 172.35 -113.15 182.3 -119.25 L182.7 -119.4 182.9 -119.45 Q181.2 -119.45 179.65 -120.5 180.7 -124.8 185.6 -127.05 190.75 -129.35 196.2 -130.95 L200.95 -131.9 Q203.35 -132.25 205.55 -131.9 204.65 -133.7 204.55 -136.15 204.5 -137.9 205.15 -139.5 207.0 -142.9 210.1 -144.9 206.5 -146.9 204.45 -150.5 202.85 -153.25 204.75 -155.3 L204.4 -155.25 202.2 -154.95 201.75 -155.05 Q199.05 -157.9 199.8 -162.2 200.7 -167.65 203.4 -172.5 L203.9 -173.35 203.95 -173.4 202.7 -173.3 201.25 -173.3 Q198.7 -176.7 201.6 -180.65 205.35 -185.8 211.4 -187.85 L211.2 -188.05 210.7 -188.65 209.6 -189.9 209.55 -190.1 209.45 -190.9 209.3 -192.75 M-214.4 -215.05 L-153.9 -215.05 Q-154.1 -208.9 -156.9 -202.95 -159.1 -198.3 -163.65 -195.95 -165.3 -195.4 -167.0 -195.95 -168.5 -196.65 -168.8 -198.2 -179.05 -191.2 -190.55 -195.85 -192.7 -196.7 -192.5 -198.8 -191.8 -199.9 -190.4 -199.95 -197.9 -200.3 -203.95 -205.95 -203.7 -204.2 -204.4 -202.8 -204.55 -202.5 -204.85 -202.35 -212.65 -206.1 -214.4 -215.05 M-284.05 -139.4 Q-278.35 -135.75 -275.95 -128.8 -268.8 -133.0 -260.0 -133.9 L-259.6 -133.95 Q-255.35 -134.8 -252.5 -132.25 L-252.4 -132.1 -252.4 -131.95 Q-252.75 -130.4 -254.45 -130.0 L-254.6 -129.85 Q-247.1 -128.0 -242.3 -122.2 L-240.45 -119.8 -240.4 -119.6 -240.35 -118.5 -240.45 -117.95 -241.55 -116.15 Q-242.85 -114.0 -245.2 -114.0 -244.45 -111.8 -244.35 -109.5 -244.2 -106.9 -244.85 -104.5 -237.85 -102.65 -233.5 -96.05 L-233.4 -95.95 -233.35 -96.0 -232.05 -97.55 -230.15 -98.95 Q-226.4 -96.4 -225.55 -91.4 -224.4 -85.05 -224.3 -78.55 -224.2 -71.9 -227.2 -66.0 L-227.2 -65.9 Q-226.1 -66.1 -225.05 -66.75 L-223.95 -66.8 Q-223.3 -62.8 -225.85 -58.75 -228.9 -53.75 -233.1 -49.75 -238.7 -44.4 -245.6 -42.5 -239.25 -38.45 -235.95 -31.55 -234.0 -27.5 -236.15 -23.95 -237.0 -23.55 -237.8 -24.1 L-238.95 -24.8 -239.4 -24.95 -240.9 -20.65 Q-242.0 -17.15 -244.5 -14.95 -241.2 -12.6 -238.55 -9.3 -235.3 -5.25 -236.0 -0.35 L-236.15 -0.2 -236.75 0.35 -237.1 0.35 Q-239.95 0.3 -242.25 -1.0 -241.85 1.05 -242.25 3.0 -242.95 6.9 -244.35 10.7 -244.75 11.95 -245.8 12.05 L-247.1 14.65 Q-235.05 15.55 -227.9 24.65 -227.3 25.45 -227.2 26.45 L-227.25 26.6 -227.4 26.8 -227.55 27.0 -227.95 27.35 Q-229.5 27.7 -230.95 26.85 L-232.1 26.8 Q-230.35 29.25 -230.05 32.25 -229.65 36.2 -230.3 39.9 -221.1 40.45 -214.4 46.1 -202.55 53.25 -197.15 66.25 L-196.3 68.55 -195.6 66.95 Q-194.95 65.85 -193.8 65.35 -190.5 69.85 -190.25 76.0 -189.9 86.0 -193.4 95.15 -195.55 100.75 -199.45 105.25 L-196.3 104.35 -195.65 104.45 Q-195.9 107.6 -198.8 110.05 -206.45 116.65 -216.25 119.15 -223.1 120.9 -229.9 121.85 -218.35 124.15 -211.4 134.45 -211.0 135.0 -211.3 135.65 L-211.6 135.8 -212.4 136.4 -215.3 136.15 -216.2 136.05 -214.4 140.95 Q-213.15 144.6 -214.9 147.65 L-217.4 147.45 -219.25 145.95 -219.45 146.5 -219.55 147.65 -220.05 149.15 -220.2 149.4 -218.7 150.7 -218.6 150.85 Q-217.6 153.4 -217.25 156.15 L-217.25 157.6 Q-216.45 157.4 -215.35 156.6 L-215.15 156.45 -213.4 156.5 Q-211.5 160.25 -212.6 164.25 -208.7 161.65 -204.05 160.15 L-199.8 158.85 Q-194.8 157.65 -192.45 161.15 L-192.35 161.3 -192.6 162.05 Q-193.6 163.7 -195.35 164.7 -185.65 165.5 -177.65 169.95 -175.4 163.5 -170.45 158.55 -163.4 151.45 -154.55 147.0 -150.35 144.85 -145.7 144.1 -143.35 143.95 -141.35 144.9 L-141.2 145.05 Q-140.8 147.35 -142.95 148.9 L-145.0 150.85 Q-131.6 145.9 -117.55 150.2 -111.75 151.95 -109.25 156.7 L-109.6 157.2 Q-110.8 158.2 -112.4 158.1 -103.2 162.85 -97.3 171.35 -93.9 176.3 -93.65 182.45 -87.95 176.95 -79.9 175.15 L-77.25 174.85 -74.25 174.4 Q-70.45 174.1 -68.15 176.65 L-68.05 176.8 Q-69.05 178.6 -71.05 179.5 L-73.45 180.55 Q-69.75 181.1 -65.15 183.75 -61.8 185.65 -59.15 188.5 L-58.6 186.9 Q-57.95 185.0 -56.45 183.75 -52.05 183.9 -50.25 188.55 -49.75 189.7 -49.4 190.95 -47.9 196.1 -49.65 201.05 -43.45 200.15 -42.9 206.6 -42.5 210.95 -43.5 215.05 L-284.05 215.05 -284.05 205.5 -284.1 205.45 -284.1 203.25 -284.05 203.3 -284.05 31.05 -284.1 31.05 -284.1 29.15 -284.05 29.15 -284.05 -137.0 -284.1 -137.05 -284.1 -139.45 -284.05 -139.4 M-229.9 24.9 L-230.1 25.05 -229.65 25.2 -229.9 24.9 M5.1 213.35 Q8.15 209.65 12.85 208.2 10.35 206.3 11.3 203.4 12.2 200.65 14.95 199.7 17.05 199.0 19.15 199.75 18.4 197.65 18.2 195.45 18.0 193.75 19.35 192.8 22.3 190.6 25.35 192.95 25.2 190.45 25.7 188.1 26.1 186.05 27.4 184.4 29.4 181.85 32.2 180.2 L27.85 179.85 27.6 179.7 27.2 179.3 Q27.8 176.0 32.15 174.95 37.7 173.55 43.25 173.1 47.95 172.9 52.3 174.15 52.65 172.95 53.15 171.8 L53.9 169.3 Q55.45 166.85 57.4 164.55 60.45 161.0 64.65 158.85 L64.1 158.75 62.6 158.4 Q61.55 158.25 60.8 157.55 L60.7 157.35 60.65 156.8 60.65 156.6 60.65 156.05 Q67.75 151.15 76.8 150.95 L82.35 150.6 Q91.1 150.2 99.0 153.05 97.5 151.0 98.5 147.55 98.95 145.8 100.6 145.35 110.45 147.35 112.3 157.6 L112.35 157.8 Q121.55 155.0 125.55 162.95 126.3 164.5 124.85 165.7 124.05 166.35 123.05 166.55 133.4 172.05 136.95 183.0 137.75 185.4 135.6 186.95 L130.15 186.15 Q136.6 192.15 136.45 200.75 136.35 204.05 133.3 205.2 132.0 204.9 130.95 204.15 L130.35 203.65 Q132.05 209.4 130.1 215.05 L3.9 215.05 5.1 213.35 M135.25 184.65 L135.5 183.9 135.5 183.8 135.15 184.8 135.25 184.65" fill="#000000" fill-rule="evenodd" stroke="none"/>
  </g>
</svg>
