<?xml version="1.0" encoding="UTF-8" standalone="no"?>
<svg xmlns:xlink="http://www.w3.org/1999/xlink" height="109.7px" width="48.05px" xmlns="http://www.w3.org/2000/svg">
  <g transform="matrix(1.0, 0.0, 0.0, 1.0, 24.0, 54.85)">
    <path d="M-13.75 -25.05 L-14.3 -28.5 Q-14.65 -30.95 -15.35 -33.25 L-15.95 -35.5 Q-16.8 -40.1 -19.05 -44.25 L-19.25 -44.75 -20.7 -49.05 -20.9 -49.45 -21.5 -51.25 Q-21.75 -52.6 -20.55 -52.4 L-20.3 -52.35 -19.6 -51.65 Q-18.9 -51.05 -18.05 -50.7 L-16.0 -49.6 -15.35 -49.2 -12.25 -47.35 -8.55 -44.5 Q-6.15 -42.45 -4.05 -39.95 L-2.35 -38.15 -1.65 -37.3 1.45 -33.7 2.0 -33.0 7.45 -25.0 Q10.15 -21.0 12.3 -16.55 L14.45 -11.7 16.5 -6.75 Q18.3 -2.45 19.55 2.25 20.75 6.9 21.3 11.75 L21.95 17.0 22.1 18.0 22.4 19.5 22.55 21.0 22.7 24.0 Q22.8 28.85 22.25 33.55 L22.25 33.7 Q20.35 40.55 16.45 46.8 14.5 50.0 11.95 52.25 L14.1 54.15 Q13.95 54.75 13.3 54.85 L10.7 53.3 8.45 54.8 8.2 54.55 8.0 54.2 9.25 52.3 Q-3.3 43.5 -7.7 28.4 -11.9 14.2 -11.1 -0.8 -10.8 -6.15 -11.1 -11.65 L-11.5 -16.15 -11.65 -16.85 -11.65 -17.35 -12.75 -21.75 -13.75 -25.05" fill="#000000" fill-rule="evenodd" stroke="none"/>
    <path d="M-13.75 -25.05 L-14.65 -28.1 Q-16.2 -32.65 -18.1 -37.1 L-18.3 -37.5 -18.8 -39.55 Q-21.6 -45.45 -23.7 -51.4 L-23.9 -52.55 -23.95 -53.15 -23.95 -53.2 -23.95 -54.3 -23.75 -54.5 Q-23.45 -54.85 -23.15 -54.85 L-22.4 -54.85 -22.05 -54.75 -21.4 -54.8 Q-13.15 -52.95 -7.2 -46.5 L3.1 -35.1 Q12.9 -24.0 18.35 -10.05 23.75 3.75 24.05 18.75 24.2 26.55 22.25 33.7 L22.25 33.55 Q22.8 28.85 22.7 24.0 L22.55 21.0 22.4 19.5 22.1 18.0 21.95 17.0 21.3 11.75 Q20.75 6.9 19.55 2.25 18.3 -2.45 16.5 -6.75 L14.45 -11.7 12.3 -16.55 Q10.15 -21.0 7.45 -25.0 L2.0 -33.0 1.45 -33.7 -1.65 -37.3 -2.35 -38.15 -4.05 -39.95 Q-6.15 -42.45 -8.55 -44.5 L-12.25 -47.35 -15.35 -49.2 -16.0 -49.6 -18.05 -50.7 Q-18.9 -51.05 -19.6 -51.65 L-20.3 -52.35 -20.55 -52.4 Q-21.75 -52.6 -21.5 -51.25 L-20.9 -49.45 -20.7 -49.05 -19.25 -44.75 -19.05 -44.25 Q-16.8 -40.1 -15.95 -35.5 L-15.35 -33.25 Q-14.65 -30.95 -14.3 -28.5 L-13.75 -25.05" fill="#666666" fill-rule="evenodd" stroke="none"/>
  </g>
</svg>
