<?xml version="1.0" encoding="UTF-8" standalone="no"?>
<svg xmlns:xlink="http://www.w3.org/1999/xlink" height="27.55px" width="191.25px" xmlns="http://www.w3.org/2000/svg">
  <g transform="matrix(1.0, 0.0, 0.0, 1.0, 95.65, 17.1)">
    <path d="M-79.7 -11.45 L-86.4 7.25 -87.25 7.1 -88.1 7.2 -89.0 7.25 -89.95 5.0 Q-92.75 -4.0 -93.65 -9.55 L-90.1 -11.05 -86.45 -0.4 -84.15 -7.35 Q-82.65 -11.55 -82.4 -11.55 L-81.45 -11.45 -80.5 -11.4 -79.7 -11.45" fill="#000000" fill-rule="evenodd" stroke="none"/>
    <path d="M-79.7 -11.45 L-86.4 7.25 -87.25 7.1 -88.1 7.2 -89.0 7.25 -89.95 5.0 Q-92.75 -4.0 -93.65 -9.55 L-90.1 -11.05 -86.45 -0.4 -84.15 -7.35 Q-82.65 -11.55 -82.4 -11.55 L-81.45 -11.45 -80.5 -11.4 -79.7 -11.45 Z" fill="none" stroke="#000000" stroke-linecap="round" stroke-linejoin="round" stroke-width="4.0"/>
    <path d="M-76.35 -12.95 Q-76.35 -11.85 -77.0 -11.15 -77.45 -10.6 -77.95 -10.6 -78.65 -10.6 -79.1 -11.35 -79.45 -12.0 -79.45 -12.75 L-79.1 -14.25 Q-78.65 -15.1 -77.9 -15.1 -77.15 -15.1 -76.7 -14.35 -76.35 -13.75 -76.35 -12.95 M-76.5 -8.4 L-76.4 -5.85 -76.7 0.6 -76.95 6.95 -78.3 6.8 -80.0 6.7 -80.3 6.95 -79.6 -8.4 -78.25 -8.25 -76.5 -8.4" fill="#000000" fill-rule="evenodd" stroke="none"/>
    <path d="M-76.35 -12.95 Q-76.35 -11.85 -77.0 -11.15 -77.45 -10.6 -77.95 -10.6 -78.65 -10.6 -79.1 -11.35 -79.45 -12.0 -79.45 -12.75 L-79.1 -14.25 Q-78.65 -15.1 -77.9 -15.1 -77.15 -15.1 -76.7 -14.35 -76.35 -13.75 -76.35 -12.95 M-76.5 -8.4 L-76.4 -5.85 -76.7 0.6 -76.95 6.95 -78.3 6.8 -80.0 6.7 -80.3 6.95 -79.6 -8.4 -78.25 -8.25 -76.5 -8.4" fill="none" stroke="#000000" stroke-linecap="round" stroke-linejoin="round" stroke-width="4.0"/>
    <path d="M-65.1 -7.5 L-65.3 -5.9 -65.75 -5.9 -67.75 -6.35 -69.8 -6.8 -70.85 -6.8 -71.95 -6.0 Q-71.55 -5.35 -70.8 -5.2 L-68.75 -5.1 Q-66.8 -4.9 -65.5 -4.15 -63.75 -3.2 -63.75 -1.35 L-64.05 -0.05 -64.6 1.25 Q-66.35 4.35 -70.5 4.4 L-73.05 4.2 Q-74.6 3.9 -75.5 3.1 L-74.6 0.8 -72.2 1.45 -70.6 1.7 Q-69.8 1.7 -68.8 0.9 -67.8 0.05 -67.65 -0.75 -68.6 -2.3 -70.65 -2.3 L-71.4 -2.3 -72.1 -2.3 Q-73.65 -2.3 -74.45 -3.15 L-74.9 -4.15 -75.05 -5.3 Q-75.05 -10.15 -69.15 -10.15 L-67.2 -10.05 -64.5 -9.1 -65.1 -7.5" fill="#000000" fill-rule="evenodd" stroke="none"/>
    <path d="M-65.1 -7.5 L-65.3 -5.9 -65.75 -5.9 -67.75 -6.35 -69.8 -6.8 -70.85 -6.8 -71.95 -6.0 Q-71.55 -5.35 -70.8 -5.2 L-68.75 -5.1 Q-66.8 -4.9 -65.5 -4.15 -63.75 -3.2 -63.75 -1.35 L-64.05 -0.05 -64.6 1.25 Q-66.35 4.35 -70.5 4.4 L-73.05 4.2 Q-74.6 3.9 -75.5 3.1 L-74.6 0.8 -72.2 1.45 -70.6 1.7 Q-69.8 1.7 -68.8 0.9 -67.8 0.05 -67.65 -0.75 -68.6 -2.3 -70.65 -2.3 L-71.4 -2.3 -72.1 -2.3 Q-73.65 -2.3 -74.45 -3.15 L-74.9 -4.15 -75.05 -5.3 Q-75.05 -10.15 -69.15 -10.15 L-67.2 -10.05 -64.5 -9.1 -65.1 -7.5 Z" fill="none" stroke="#000000" stroke-linecap="round" stroke-linejoin="round" stroke-width="4.0"/>
    <path d="M-59.7 -12.95 Q-59.7 -11.85 -60.35 -11.15 -60.8 -10.6 -61.3 -10.6 -62.0 -10.6 -62.45 -11.35 -62.8 -12.0 -62.8 -12.75 L-62.45 -14.25 Q-62.0 -15.1 -61.25 -15.1 -60.5 -15.1 -60.05 -14.35 -59.7 -13.75 -59.7 -12.95 M-59.85 -8.4 L-59.75 -5.85 -60.05 0.6 -60.3 6.95 -61.65 6.8 -63.35 6.7 -63.65 6.95 -62.95 -8.4 -61.6 -8.25 -59.85 -8.4" fill="#000000" fill-rule="evenodd" stroke="none"/>
    <path d="M-59.7 -12.95 Q-59.7 -11.85 -60.35 -11.15 -60.8 -10.6 -61.3 -10.6 -62.0 -10.6 -62.45 -11.35 -62.8 -12.0 -62.8 -12.75 L-62.45 -14.25 Q-62.0 -15.1 -61.25 -15.1 -60.5 -15.1 -60.05 -14.35 -59.7 -13.75 -59.7 -12.95 M-59.85 -8.4 L-59.75 -5.85 -60.05 0.6 -60.3 6.95 -61.65 6.8 -63.35 6.7 -63.65 6.95 -62.95 -8.4 -61.6 -8.25 -59.85 -8.4" fill="none" stroke="#000000" stroke-linecap="round" stroke-linejoin="round" stroke-width="4.0"/>
    <path d="M-46.85 -8.45 L-49.05 -7.45 Q-50.55 -6.6 -51.0 -5.65 L-49.8 3.45 Q-52.45 4.25 -54.1 5.15 L-54.55 -4.45 -55.05 -4.7 -56.0 -4.3 Q-56.7 -3.9 -56.9 -3.9 L-57.6 -3.65 -58.35 -3.45 -59.3 -3.45 -59.2 -5.1 -59.3 -8.35 -48.55 -12.2 -47.3 -12.2 -46.85 -8.45" fill="#000000" fill-rule="evenodd" stroke="none"/>
    <path d="M-46.85 -8.45 L-49.05 -7.45 Q-50.55 -6.6 -51.0 -5.65 L-49.8 3.45 Q-52.45 4.25 -54.1 5.15 L-54.55 -4.45 -55.05 -4.7 -56.0 -4.3 Q-56.7 -3.9 -56.9 -3.9 L-57.6 -3.65 -58.35 -3.45 -59.3 -3.45 -59.2 -5.1 -59.3 -8.35 -48.55 -12.2 -47.3 -12.2 -46.85 -8.45 Z" fill="none" stroke="#000000" stroke-linecap="round" stroke-linejoin="round" stroke-width="4.0"/>
    <path d="M-25.15 -8.45 L-27.35 -7.45 Q-28.85 -6.6 -29.3 -5.65 L-28.1 3.45 Q-30.75 4.25 -32.4 5.15 L-32.85 -4.45 -33.35 -4.7 -34.3 -4.3 -35.2 -3.9 -35.9 -3.65 -36.65 -3.45 -37.6 -3.45 -37.5 -5.1 -37.6 -8.35 -26.85 -12.2 -25.6 -12.2 -25.15 -8.45" fill="#000000" fill-rule="evenodd" stroke="none"/>
    <path d="M-25.15 -8.45 L-27.35 -7.45 Q-28.85 -6.6 -29.3 -5.65 L-28.1 3.45 Q-30.75 4.25 -32.4 5.15 L-32.85 -4.45 -33.35 -4.7 -34.3 -4.3 -35.2 -3.9 -35.9 -3.65 -36.65 -3.45 -37.6 -3.45 -37.5 -5.1 -37.6 -8.35 -26.85 -12.2 -25.6 -12.2 -25.15 -8.45 Z" fill="none" stroke="#000000" stroke-linecap="round" stroke-linejoin="round" stroke-width="4.0"/>
    <path d="M-17.3 -3.15 Q-17.3 -0.8 -18.6 0.9 -19.75 2.3 -20.9 2.3 -22.65 2.3 -24.05 0.9 -25.8 -0.8 -25.8 -3.85 -25.8 -6.35 -24.2 -7.75 -22.95 -8.85 -21.45 -8.85 -19.45 -8.85 -18.3 -6.95 -17.3 -5.3 -17.3 -3.15 M-22.2 -5.05 L-22.7 -1.95 -20.75 -1.2 -20.5 -2.8 -20.3 -4.45 -21.25 -4.75 -22.2 -5.05" fill="#000000" fill-rule="evenodd" stroke="none"/>
    <path d="M-17.3 -3.15 Q-17.3 -0.8 -18.6 0.9 -19.75 2.3 -20.9 2.3 -22.65 2.3 -24.05 0.9 -25.8 -0.8 -25.8 -3.85 -25.8 -6.35 -24.2 -7.75 -22.95 -8.85 -21.45 -8.85 -19.45 -8.85 -18.3 -6.95 -17.3 -5.3 -17.3 -3.15 M-22.2 -5.05 L-22.7 -1.95 -20.75 -1.2 -20.5 -2.8 -20.3 -4.45 -21.25 -4.75 -22.2 -5.05" fill="none" stroke="#000000" stroke-linecap="round" stroke-linejoin="round" stroke-width="4.0"/>
    <path d="M-8.85 -3.15 Q-8.85 -0.8 -10.15 0.9 -11.3 2.3 -12.45 2.3 -14.2 2.3 -15.6 0.9 -17.35 -0.8 -17.35 -3.85 -17.35 -6.35 -15.75 -7.75 -14.5 -8.85 -13.0 -8.85 -11.0 -8.85 -9.85 -6.95 -8.85 -5.3 -8.85 -3.15 M-13.75 -5.05 L-14.25 -1.95 -12.3 -1.2 -12.05 -2.8 -11.85 -4.45 -12.8 -4.75 -13.75 -5.05" fill="#000000" fill-rule="evenodd" stroke="none"/>
    <path d="M-8.85 -3.15 Q-8.85 -0.8 -10.15 0.9 -11.3 2.3 -12.45 2.3 -14.2 2.3 -15.6 0.9 -17.35 -0.8 -17.35 -3.85 -17.35 -6.35 -15.75 -7.75 -14.5 -8.85 -13.0 -8.85 -11.0 -8.85 -9.85 -6.95 -8.85 -5.3 -8.85 -3.15 M-13.75 -5.05 L-14.25 -1.95 -12.3 -1.2 -12.05 -2.8 -11.85 -4.45 -12.8 -4.75 -13.75 -5.05" fill="none" stroke="#000000" stroke-linecap="round" stroke-linejoin="round" stroke-width="4.0"/>
    <path d="M0.2 -13.15 L3.1 -14.2 3.1 3.75 Q2.55 4.0 0.95 5.0 L-5.55 -1.65 Q-5.65 0.85 -5.05 2.75 L-5.05 3.55 -6.75 4.8 -8.05 5.7 Q-8.4 5.75 -8.55 3.25 L-9.15 -8.95 Q-6.3 -10.7 -5.6 -10.7 -5.4 -10.7 -3.75 -7.8 -1.95 -4.6 -1.15 -3.8 L0.2 -13.15" fill="#000000" fill-rule="evenodd" stroke="none"/>
    <path d="M0.2 -13.15 L3.1 -14.2 3.1 3.75 Q2.55 4.0 0.95 5.0 L-5.55 -1.65 Q-5.65 0.85 -5.05 2.75 L-5.05 3.55 -6.75 4.8 -8.05 5.7 Q-8.4 5.75 -8.55 3.25 L-9.15 -8.95 Q-6.3 -10.7 -5.6 -10.7 -5.4 -10.7 -3.75 -7.8 -1.95 -4.6 -1.15 -3.8 L0.2 -13.15 Z" fill="none" stroke="#000000" stroke-linecap="round" stroke-linejoin="round" stroke-width="4.0"/>
    <path d="M15.5 -8.45 L13.3 -7.45 Q11.8 -6.6 11.35 -5.65 L12.55 3.45 Q9.9 4.25 8.25 5.15 L7.8 -4.45 7.3 -4.7 6.35 -4.3 5.45 -3.9 4.75 -3.65 4.0 -3.45 3.05 -3.45 3.15 -5.1 3.05 -8.35 13.8 -12.2 15.05 -12.2 15.5 -8.45" fill="#000000" fill-rule="evenodd" stroke="none"/>
    <path d="M15.5 -8.45 L13.3 -7.45 Q11.8 -6.6 11.35 -5.65 L12.55 3.45 Q9.9 4.25 8.25 5.15 L7.8 -4.45 7.3 -4.7 6.35 -4.3 5.45 -3.9 4.75 -3.65 4.0 -3.45 3.05 -3.45 3.15 -5.1 3.05 -8.35 13.8 -12.2 15.05 -12.2 15.5 -8.45 Z" fill="none" stroke="#000000" stroke-linecap="round" stroke-linejoin="round" stroke-width="4.0"/>
    <path d="M23.4 -3.15 Q23.4 -0.8 22.1 0.9 20.95 2.3 19.8 2.3 18.05 2.3 16.65 0.9 14.9 -0.8 14.9 -3.85 14.9 -6.35 16.5 -7.75 17.75 -8.85 19.25 -8.85 21.25 -8.85 22.4 -6.95 23.4 -5.3 23.4 -3.15 M18.5 -5.05 L18.0 -1.95 19.95 -1.2 20.2 -2.8 20.4 -4.45 19.45 -4.75 18.5 -5.05" fill="#000000" fill-rule="evenodd" stroke="none"/>
    <path d="M23.4 -3.15 Q23.4 -0.8 22.1 0.9 20.95 2.3 19.8 2.3 18.05 2.3 16.65 0.9 14.9 -0.8 14.9 -3.85 14.9 -6.35 16.5 -7.75 17.75 -8.85 19.25 -8.85 21.25 -8.85 22.4 -6.95 23.4 -5.3 23.4 -3.15 M18.5 -5.05 L18.0 -1.95 19.95 -1.2 20.2 -2.8 20.4 -4.45 19.45 -4.75 18.5 -5.05" fill="none" stroke="#000000" stroke-linecap="round" stroke-linejoin="round" stroke-width="4.0"/>
    <path d="M39.7 -11.25 L38.4 7.75 34.9 8.45 31.75 -2.95 31.45 -2.75 Q30.35 2.4 29.15 6.05 L25.95 5.5 Q23.75 -3.55 22.5 -9.55 23.25 -9.95 24.7 -10.55 L25.6 -5.8 26.75 -1.05 29.25 -10.75 30.3 -11.0 31.05 -10.95 31.85 -10.9 32.55 -11.0 34.75 -0.6 Q35.6 -2.9 36.2 -5.9 L37.25 -11.25 39.7 -11.25" fill="#000000" fill-rule="evenodd" stroke="none"/>
    <path d="M39.7 -11.25 L38.4 7.75 34.9 8.45 31.75 -2.95 31.45 -2.75 Q30.35 2.4 29.15 6.05 L25.95 5.5 Q23.75 -3.55 22.5 -9.55 23.25 -9.95 24.7 -10.55 L25.6 -5.8 26.75 -1.05 29.25 -10.75 30.3 -11.0 31.05 -10.95 31.85 -10.9 32.55 -11.0 34.75 -0.6 Q35.6 -2.9 36.2 -5.9 L37.25 -11.25 39.7 -11.25 Z" fill="none" stroke="#000000" stroke-linecap="round" stroke-linejoin="round" stroke-width="4.0"/>
    <path d="M48.45 -13.15 L51.35 -14.2 51.35 3.75 Q50.8 4.0 49.2 5.0 L42.7 -1.65 Q42.6 0.85 43.2 2.75 L43.2 3.55 41.5 4.8 40.2 5.7 Q39.85 5.75 39.7 3.25 L39.1 -8.95 Q41.95 -10.7 42.65 -10.7 L44.5 -7.8 Q46.3 -4.6 47.1 -3.8 L48.45 -13.15" fill="#000000" fill-rule="evenodd" stroke="none"/>
    <path d="M48.45 -13.15 L51.35 -14.2 51.35 3.75 Q50.8 4.0 49.2 5.0 L42.7 -1.65 Q42.6 0.85 43.2 2.75 L43.2 3.55 41.5 4.8 40.2 5.7 Q39.85 5.75 39.7 3.25 L39.1 -8.95 Q41.95 -10.7 42.65 -10.7 L44.5 -7.8 Q46.3 -4.6 47.1 -3.8 L48.45 -13.15 Z" fill="none" stroke="#000000" stroke-linecap="round" stroke-linejoin="round" stroke-width="4.0"/>
    <path d="M53.15 -1.35 L57.55 -1.35 57.55 2.8 53.15 2.8 53.15 -1.35" fill="#000000" fill-rule="evenodd" stroke="none"/>
    <path d="M53.15 -1.35 L57.55 -1.35 57.55 2.8 53.15 2.8 53.15 -1.35 Z" fill="none" stroke="#000000" stroke-linecap="round" stroke-linejoin="round" stroke-width="4.0"/>
    <path d="M67.25 -6.3 Q62.5 -6.3 62.5 -3.75 62.5 -0.95 65.15 -0.95 L66.8 -1.3 69.0 -1.9 Q69.0 -0.75 69.3 1.3 68.65 2.25 66.8 2.95 65.25 3.55 64.25 3.55 62.6 3.55 60.95 1.8 59.05 -0.25 59.05 -3.25 59.05 -7.55 61.9 -9.8 64.05 -11.45 66.65 -11.45 67.55 -11.45 68.55 -10.7 68.25 -8.2 68.25 -6.3 L67.25 -6.3" fill="#000000" fill-rule="evenodd" stroke="none"/>
    <path d="M67.25 -6.3 Q62.5 -6.3 62.5 -3.75 62.5 -0.95 65.15 -0.95 L66.8 -1.3 69.0 -1.9 Q69.0 -0.75 69.3 1.3 68.65 2.25 66.8 2.95 65.25 3.55 64.25 3.55 62.6 3.55 60.95 1.8 59.05 -0.25 59.05 -3.25 59.05 -7.55 61.9 -9.8 64.05 -11.45 66.65 -11.45 67.55 -11.45 68.55 -10.7 68.25 -8.2 68.25 -6.3 L67.25 -6.3 Z" fill="none" stroke="#000000" stroke-linecap="round" stroke-linejoin="round" stroke-width="4.0"/>
    <path d="M77.45 -3.15 Q77.45 -0.8 76.15 0.9 75.0 2.3 73.85 2.3 72.1 2.3 70.7 0.9 68.95 -0.8 68.95 -3.85 68.95 -6.35 70.55 -7.75 71.8 -8.85 73.3 -8.85 75.3 -8.85 76.45 -6.95 77.45 -5.3 77.45 -3.15 M72.55 -5.05 L72.05 -1.95 74.0 -1.2 74.25 -2.8 74.45 -4.45 73.5 -4.75 72.55 -5.05" fill="#000000" fill-rule="evenodd" stroke="none"/>
    <path d="M77.45 -3.15 Q77.45 -0.8 76.15 0.9 75.0 2.3 73.85 2.3 72.1 2.3 70.7 0.9 68.95 -0.8 68.95 -3.85 68.95 -6.35 70.55 -7.75 71.8 -8.85 73.3 -8.85 75.3 -8.85 76.45 -6.95 77.45 -5.3 77.45 -3.15 M72.55 -5.05 L72.05 -1.95 74.0 -1.2 74.25 -2.8 74.45 -4.45 73.5 -4.75 72.55 -5.05" fill="none" stroke="#000000" stroke-linecap="round" stroke-linejoin="round" stroke-width="4.0"/>
    <path d="M93.05 -2.15 L93.35 1.2 93.6 3.75 93.6 5.05 91.75 5.3 90.2 5.8 89.5 1.4 88.75 -3.0 Q87.55 0.4 86.9 5.5 L85.8 5.95 84.85 6.3 84.2 5.95 82.5 1.5 80.65 -3.25 Q80.35 -2.5 80.3 -0.75 L80.25 2.4 80.1 4.05 79.95 5.8 79.3 5.8 78.05 5.5 76.85 5.05 78.65 -10.45 79.55 -11.1 80.5 -11.75 84.45 -2.55 88.0 -12.95 88.65 -13.05 92.7 -12.0 Q92.65 -9.05 93.05 -2.15" fill="#000000" fill-rule="evenodd" stroke="none"/>
    <path d="M93.05 -2.15 L93.35 1.2 93.6 3.75 93.6 5.05 91.75 5.3 90.2 5.8 89.5 1.4 88.75 -3.0 Q87.55 0.4 86.9 5.5 L85.8 5.95 84.85 6.3 84.2 5.95 82.5 1.5 80.65 -3.25 Q80.35 -2.5 80.3 -0.75 L80.25 2.4 80.1 4.05 79.95 5.8 79.3 5.8 78.05 5.5 76.85 5.05 78.65 -10.45 79.55 -11.1 80.5 -11.75 84.45 -2.55 88.0 -12.95 88.65 -13.05 92.7 -12.0 Q92.65 -9.05 93.05 -2.15 Z" fill="none" stroke="#000000" stroke-linecap="round" stroke-linejoin="round" stroke-width="4.0"/>
    <path d="M-79.7 -11.45 L-86.4 7.2 -87.2 7.15 -88.1 7.15 -88.95 7.2 Q-89.25 7.2 -89.95 5.05 -92.75 -4.05 -93.6 -9.6 L-90.1 -11.05 -86.4 -0.35 -84.1 -7.4 Q-82.65 -11.55 -82.4 -11.55 L-81.45 -11.45 -80.45 -11.4 -79.7 -11.45" fill="#ffff00" fill-rule="evenodd" stroke="none"/>
    <path d="M-76.25 -12.95 Q-76.3 -11.85 -76.9 -11.15 -77.4 -10.6 -77.9 -10.6 -78.55 -10.6 -79.0 -11.35 -79.4 -12.0 -79.4 -12.75 L-79.05 -14.25 Q-78.55 -15.1 -77.8 -15.1 -77.1 -15.1 -76.65 -14.4 -76.3 -13.75 -76.25 -12.95 M-78.2 -8.25 L-76.45 -8.45 -76.35 -5.85 -76.6 0.6 -76.9 6.95 -78.25 6.8 -79.95 6.7 -80.25 6.95 -79.5 -8.45 -78.2 -8.25" fill="#ffff00" fill-rule="evenodd" stroke="none"/>
    <path d="M-65.5 -4.1 Q-63.75 -3.15 -63.75 -1.3 L-64.05 0.0 -64.6 1.3 Q-66.35 4.4 -70.5 4.45 L-73.0 4.25 Q-74.6 3.95 -75.5 3.15 L-74.6 0.85 -72.2 1.5 -70.6 1.75 Q-69.8 1.75 -68.8 0.95 -67.8 0.1 -67.6 -0.7 -68.55 -2.25 -70.65 -2.25 L-71.35 -2.25 -72.1 -2.25 Q-73.65 -2.25 -74.45 -3.1 L-74.85 -4.1 -75.05 -5.25 Q-75.05 -10.1 -69.1 -10.1 L-67.2 -10.0 -64.5 -9.05 -65.05 -7.45 -65.3 -5.85 -65.75 -5.85 -67.75 -6.3 -69.8 -6.8 -70.8 -6.8 -71.9 -5.95 Q-71.5 -5.3 -70.8 -5.15 L-68.75 -5.05 Q-66.8 -4.85 -65.5 -4.1" fill="#ffff00" fill-rule="evenodd" stroke="none"/>
    <path d="M-59.6 -12.95 Q-59.65 -11.85 -60.25 -11.15 -60.75 -10.6 -61.25 -10.6 -61.9 -10.6 -62.35 -11.35 -62.75 -12.0 -62.75 -12.75 L-62.4 -14.25 Q-61.9 -15.1 -61.15 -15.1 -60.45 -15.1 -60.0 -14.4 -59.65 -13.75 -59.6 -12.95 M-61.55 -8.25 L-59.8 -8.45 -59.7 -5.85 -59.95 0.6 -60.25 6.95 -61.6 6.8 -63.3 6.7 -63.6 6.95 -62.85 -8.45 -61.55 -8.25" fill="#ffff00" fill-rule="evenodd" stroke="none"/>
    <path d="M-46.85 -8.4 L-49.05 -7.4 Q-50.5 -6.6 -51.0 -5.6 L-49.85 3.5 Q-52.45 4.3 -54.05 5.2 L-54.55 -4.4 -55.05 -4.65 -56.05 -4.25 Q-56.7 -3.85 -56.85 -3.85 L-57.6 -3.6 -58.4 -3.4 -59.3 -3.4 -59.2 -5.05 -59.3 -8.3 -48.55 -12.15 -47.3 -12.15 -46.85 -8.4" fill="#ffff00" fill-rule="evenodd" stroke="none"/>
    <path d="M-25.1 -8.4 L-27.3 -7.4 Q-28.75 -6.6 -29.25 -5.6 L-28.1 3.5 Q-30.7 4.3 -32.3 5.2 L-32.8 -4.4 -33.3 -4.65 Q-33.6 -4.65 -34.3 -4.25 L-35.1 -3.85 -35.85 -3.6 -36.65 -3.4 -37.55 -3.4 -37.45 -5.05 -37.55 -8.3 -26.8 -12.15 -25.55 -12.15 -25.1 -8.4" fill="#ffff00" fill-rule="evenodd" stroke="none"/>
    <path d="M-17.25 -3.15 Q-17.25 -0.8 -18.55 0.9 -19.7 2.3 -20.85 2.3 -22.6 2.3 -24.0 0.9 -25.75 -0.8 -25.75 -3.85 -25.75 -6.35 -24.15 -7.75 -22.9 -8.85 -21.4 -8.85 -19.4 -8.85 -18.25 -6.95 -17.25 -5.35 -17.25 -3.15 M-20.25 -4.45 L-21.2 -4.75 -22.15 -5.05 -22.65 -2.0 -20.7 -1.25 Q-20.6 -1.35 -20.45 -2.8 L-20.25 -4.45" fill="#ffff00" fill-rule="evenodd" stroke="none"/>
    <path d="M-8.95 -3.15 Q-8.95 -0.8 -10.25 0.9 -11.4 2.3 -12.55 2.3 -14.3 2.3 -15.7 0.9 -17.45 -0.8 -17.45 -3.85 -17.45 -6.35 -15.85 -7.75 -14.6 -8.85 -13.1 -8.85 -11.1 -8.85 -9.95 -6.95 -8.95 -5.35 -8.95 -3.15 M-11.95 -4.45 L-12.9 -4.75 -13.85 -5.05 -14.35 -2.0 -12.4 -1.25 Q-12.3 -1.35 -12.15 -2.8 L-11.95 -4.45" fill="#ffff00" fill-rule="evenodd" stroke="none"/>
    <path d="M0.2 -13.2 L3.1 -14.25 3.1 3.7 Q2.5 3.95 0.95 4.95 L-5.55 -1.7 Q-5.7 0.8 -5.05 2.65 L-5.05 3.5 -6.75 4.75 -8.1 5.7 Q-8.4 5.7 -8.6 3.2 L-9.2 -9.0 Q-6.35 -10.75 -5.65 -10.75 L-3.8 -7.85 -1.15 -3.8 0.2 -13.2" fill="#ffff00" fill-rule="evenodd" stroke="none"/>
    <path d="M15.6 -8.4 L13.4 -7.4 Q11.95 -6.6 11.45 -5.6 L12.6 3.5 Q10.0 4.3 8.4 5.2 L7.9 -4.4 7.4 -4.65 6.4 -4.25 5.6 -3.85 4.85 -3.6 4.05 -3.4 3.15 -3.4 3.25 -5.05 3.15 -8.3 13.9 -12.15 15.15 -12.15 15.6 -8.4" fill="#ffff00" fill-rule="evenodd" stroke="none"/>
    <path d="M23.35 -3.15 Q23.35 -0.8 22.05 0.9 20.9 2.3 19.75 2.3 18.0 2.3 16.6 0.9 14.85 -0.8 14.85 -3.85 14.85 -6.35 16.45 -7.75 17.7 -8.85 19.2 -8.85 21.2 -8.85 22.35 -6.95 23.35 -5.35 23.35 -3.15 M20.35 -4.45 Q20.2 -4.45 19.4 -4.75 L18.45 -5.05 17.95 -2.0 19.9 -1.25 20.15 -2.8 20.35 -4.45" fill="#ffff00" fill-rule="evenodd" stroke="none"/>
    <path d="M39.7 -11.15 L38.4 7.75 34.85 8.5 31.75 -2.9 31.45 -2.7 Q30.3 2.45 29.15 6.1 L25.95 5.6 Q23.75 -3.5 22.5 -9.5 23.25 -9.9 24.7 -10.5 L25.6 -5.75 26.75 -1.0 29.25 -10.7 30.25 -10.95 31.05 -10.9 31.85 -10.85 32.55 -10.95 34.75 -0.55 Q35.6 -2.8 36.2 -5.85 L37.25 -11.2 39.7 -11.15" fill="#ffff00" fill-rule="evenodd" stroke="none"/>
    <path d="M48.5 -13.2 L51.4 -14.25 51.4 3.7 Q50.8 3.95 49.25 4.95 L42.75 -1.7 Q42.6 0.8 43.25 2.65 L43.25 3.5 41.55 4.75 40.2 5.7 Q39.9 5.7 39.7 3.2 L39.1 -9.0 Q41.95 -10.75 42.65 -10.75 L44.5 -7.85 Q46.35 -4.7 47.15 -3.8 L48.5 -13.2" fill="#ffff00" fill-rule="evenodd" stroke="none"/>
    <path d="M53.15 -1.3 L57.55 -1.3 57.55 2.85 53.15 2.85 53.15 -1.3" fill="#ffff00" fill-rule="evenodd" stroke="none"/>
    <path d="M67.25 -6.3 Q62.55 -6.3 62.55 -3.75 62.55 -0.95 65.2 -0.95 L66.85 -1.3 69.05 -1.9 Q69.05 -0.75 69.35 1.3 68.7 2.25 66.85 2.95 L64.3 3.55 Q62.6 3.55 61.0 1.8 59.1 -0.25 59.1 -3.25 59.1 -7.6 61.95 -9.8 64.1 -11.45 66.7 -11.45 67.6 -11.45 68.6 -10.7 68.3 -8.2 68.3 -6.3 L67.25 -6.3" fill="#ffff00" fill-rule="evenodd" stroke="none"/>
    <path d="M77.45 -3.15 Q77.45 -0.8 76.15 0.9 75.0 2.3 73.85 2.3 72.1 2.3 70.7 0.9 68.95 -0.8 68.95 -3.85 68.95 -6.35 70.55 -7.75 71.8 -8.85 73.3 -8.85 75.3 -8.85 76.45 -6.95 77.45 -5.35 77.45 -3.15 M74.45 -4.45 L73.5 -4.75 72.55 -5.05 72.05 -2.0 74.0 -1.25 74.25 -2.8 74.45 -4.45" fill="#ffff00" fill-rule="evenodd" stroke="none"/>
    <path d="M93.35 1.25 L93.6 3.8 93.6 5.1 91.8 5.35 90.25 5.85 89.55 1.45 88.8 -2.95 Q87.55 0.45 86.9 5.55 L85.85 6.0 84.85 6.3 84.2 5.95 82.5 1.55 80.65 -3.2 Q80.35 -2.45 80.3 -0.7 L80.25 2.4 80.1 4.1 79.95 5.85 79.3 5.85 78.05 5.55 76.85 5.1 78.65 -10.45 79.55 -11.05 80.5 -11.75 84.45 -2.5 88.05 -12.9 88.65 -13.0 92.7 -11.95 93.1 -2.1 93.35 1.25" fill="#ffff00" fill-rule="evenodd" stroke="none"/>
  </g>
</svg>
