<?xml version="1.0" encoding="UTF-8" standalone="no"?>
<svg xmlns:xlink="http://www.w3.org/1999/xlink" height="64.05px" width="360.15px" xmlns="http://www.w3.org/2000/svg">
  <g transform="matrix(1.0, 0.0, 0.0, 1.0, 180.05, 32.0)">
    <path d="M-131.45 -0.9 L-129.0 -1.1 -130.5 -4.6 -131.45 -0.9 M66.0 14.3 L66.15 14.25 Q66.4 14.1 66.65 14.1 L67.3 14.3 67.65 14.45 67.55 14.5 68.0 14.85 66.7 14.65 65.35 14.85 65.55 14.65 65.75 14.5 65.65 14.45 66.0 14.3 M-15.55 9.9 L-15.55 9.85 -15.6 9.9 -15.55 9.9 M-24.9 2.7 L-24.55 -0.25 -25.95 -0.8 -26.0 -0.8 -26.35 -0.95 -27.15 4.1 -25.2 4.9 -24.9 2.7 M-37.95 -30.6 Q-37.7 -29.85 -38.05 -29.1 -38.45 -28.35 -39.2 -28.1 L-39.8 -27.9 -39.8 -4.95 Q-38.65 -9.8 -35.05 -12.85 -30.75 -16.6 -25.8 -16.55 -19.05 -16.6 -15.1 -10.35 L-14.7 -9.75 -14.45 -9.35 -14.65 -13.45 -14.7 -14.8 Q-8.8 -18.4 -6.1 -19.4 L-6.1 -19.65 Q-6.1 -20.5 -5.5 -21.05 -4.95 -21.65 -4.1 -21.65 -3.25 -21.65 -2.65 -21.05 L-1.3 -19.25 Q-0.9 -18.55 -1.05 -17.75 -1.2 -16.95 -1.9 -16.45 L-1.95 -16.4 0.95 -11.55 Q4.65 -5.2 6.9 -2.05 L7.2 -3.7 7.2 -3.75 8.2 -10.75 Q8.3 -11.6 8.95 -12.1 9.6 -12.6 10.45 -12.45 L12.2 -24.6 12.5 -26.95 14.2 -27.55 16.6 -28.4 Q16.3 -29.15 16.6 -29.85 16.95 -30.65 17.7 -30.95 L20.3 -31.9 21.8 -31.75 Q22.55 -31.4 22.8 -30.6 23.05 -29.85 22.7 -29.1 22.3 -28.35 21.55 -28.1 L20.95 -27.9 20.95 20.0 21.5 20.1 Q22.25 20.3 22.65 21.05 23.05 21.8 22.85 22.6 22.6 23.35 21.85 23.75 L19.5 25.0 19.45 25.0 15.8 27.3 14.5 27.6 Q13.75 27.5 13.3 27.0 L-2.05 11.3 -1.95 12.45 Q-1.85 13.25 -2.4 13.9 -2.9 14.55 -3.7 14.65 L-2.7 19.0 -2.7 19.45 -2.2 19.55 Q-1.4 19.8 -1.0 20.55 -0.65 21.25 -0.9 22.05 -1.15 22.85 -1.85 23.25 -3.0 23.85 -6.35 26.6 L-6.4 26.65 Q-10.8 30.0 -11.5 29.7 -12.7 30.0 -13.6 28.35 L-13.7 28.25 -13.8 28.0 Q-14.15 27.25 -13.9 26.5 -13.65 25.7 -12.9 25.35 L-12.3 25.15 -12.85 21.8 -12.95 20.5 -13.0 19.45 -13.05 18.2 Q-13.9 18.25 -14.5 17.7 -15.15 17.15 -15.2 16.35 L-15.3 14.05 -15.85 14.85 -15.95 14.9 Q-20.0 19.9 -24.1 19.75 -30.05 19.8 -34.7 15.2 -38.6 11.35 -39.8 5.6 L-39.8 20.0 -39.2 20.1 Q-38.45 20.35 -38.05 21.1 -37.7 21.85 -37.95 22.65 -38.2 23.4 -38.95 23.8 L-41.35 25.05 -41.25 25.0 -44.95 27.3 -46.25 27.6 Q-47.0 27.5 -47.45 27.0 L-62.8 11.3 -62.7 12.55 Q-62.65 13.35 -63.2 14.0 -63.75 14.55 -64.45 14.65 L-63.45 19.0 -63.45 19.45 -62.95 19.55 Q-62.15 19.8 -61.75 20.55 -61.4 21.25 -61.65 22.05 -61.9 22.85 -62.6 23.25 -63.75 23.85 -67.1 26.6 L-67.15 26.65 Q-71.55 30.0 -72.25 29.7 -73.45 30.0 -74.35 28.35 L-74.55 28.0 -74.65 27.75 Q-74.9 26.95 -74.5 26.2 -74.15 25.45 -73.35 25.2 L-73.05 25.15 -73.6 21.8 -73.7 20.5 -73.75 19.35 -73.85 17.9 Q-74.65 17.95 -75.25 17.4 -75.9 16.85 -75.95 16.05 L-76.15 12.9 -76.15 22.0 -77.6 22.65 -77.75 22.75 Q-77.4 23.4 -77.55 24.2 -77.75 25.0 -78.4 25.45 L-80.9 27.05 -81.25 27.2 Q-81.85 27.65 -82.6 27.6 -83.35 27.55 -83.85 27.0 L-101.25 9.2 Q-101.2 14.65 -99.8 19.0 L-99.8 19.45 -99.3 19.55 Q-98.55 19.8 -98.15 20.55 -97.8 21.3 -98.05 22.1 -98.3 22.85 -99.05 23.25 L-99.6 23.55 -101.0 24.65 -101.05 24.65 -101.35 24.9 -101.45 24.95 -101.55 25.0 -102.45 25.2 -102.8 25.2 -103.0 25.95 -103.3 26.4 -103.6 26.65 -106.85 29.05 -107.05 29.2 -108.5 29.75 Q-111.1 30.15 -111.9 22.6 L-114.55 24.65 -114.6 24.65 -115.75 25.6 -115.8 25.65 Q-120.95 29.6 -121.75 29.3 L-121.8 29.3 -122.1 29.3 Q-123.55 29.55 -126.4 22.9 -126.75 22.15 -126.45 21.35 -126.15 20.6 -125.4 20.3 L-128.15 14.2 -129.25 14.3 -132.85 14.75 Q-132.8 15.35 -133.05 15.9 -133.45 16.65 -134.2 16.9 L-138.55 18.3 -139.05 18.7 -139.2 18.85 -140.5 22.0 -140.5 22.1 -141.7 24.7 -141.95 25.05 -142.65 25.8 Q-143.2 26.4 -144.0 26.45 -144.85 26.5 -145.45 25.95 -146.1 25.4 -146.15 24.6 L-146.05 23.8 -146.1 23.75 -147.2 23.2 Q-150.25 21.7 -150.65 21.55 L-149.9 19.6 -149.75 19.2 Q-151.8 20.55 -154.9 21.75 -159.85 23.5 -162.95 23.55 L-163.0 23.55 Q-168.65 23.6 -173.95 17.9 L-173.95 17.85 Q-180.05 11.35 -180.05 1.85 -180.05 -11.75 -170.95 -18.65 -164.3 -23.9 -156.05 -23.9 -152.85 -23.95 -149.3 -21.3 L-148.65 -20.45 -148.5 -19.45 Q-149.35 -12.45 -149.45 -6.85 -149.45 -6.05 -150.05 -5.45 -150.65 -4.9 -151.45 -4.9 L-154.35 -4.9 Q-160.65 -4.9 -163.8 -3.3 -166.15 -2.05 -166.15 0.45 L-166.15 0.5 Q-166.2 6.35 -160.65 6.5 L-160.6 6.5 -156.15 5.6 -156.1 5.6 Q-152.2 4.75 -150.0 3.85 L-148.7 3.8 Q-148.1 3.95 -147.65 4.5 -147.25 5.05 -147.25 5.7 -147.25 7.95 -146.85 11.25 L-135.15 -20.75 -135.4 -20.85 Q-136.15 -21.25 -136.4 -22.0 -136.65 -22.8 -136.25 -23.55 -135.9 -24.3 -135.1 -24.55 L-131.5 -25.6 -131.25 -25.65 -131.2 -25.65 Q-129.45 -26.15 -123.7 -16.55 L-122.45 -14.45 -121.35 -12.55 -118.7 -7.75 -118.5 -7.4 -118.0 -6.35 -112.9 5.85 -113.8 -14.7 Q-113.8 -15.55 -113.25 -16.15 -112.7 -16.8 -111.85 -16.8 -111.05 -16.8 -110.4 -16.25 L-110.0 -15.75 -102.9 -19.5 -101.5 -19.85 Q-100.9 -19.85 -96.15 -11.55 -92.5 -5.3 -90.25 -2.1 L-86.55 -27.2 Q-86.45 -28.0 -85.8 -28.5 -85.2 -28.95 -84.45 -28.9 L-83.7 -29.35 -78.95 -31.1 -79.0 -31.1 -76.9 -31.85 -75.4 -31.8 Q-74.65 -31.45 -74.35 -30.65 -74.1 -29.9 -74.45 -29.15 -74.8 -28.4 -75.55 -28.1 L-76.15 -27.9 -76.15 -9.95 -75.25 -10.25 -75.35 -13.15 -75.45 -14.8 Q-69.55 -18.4 -66.85 -19.4 L-66.85 -19.65 Q-66.85 -20.5 -66.25 -21.05 -65.7 -21.65 -64.85 -21.65 -64.0 -21.65 -63.4 -21.05 L-62.05 -19.25 Q-61.65 -18.55 -61.8 -17.75 -61.95 -16.95 -62.65 -16.45 L-62.7 -16.4 -59.8 -11.55 Q-56.1 -5.2 -53.85 -2.05 L-53.55 -3.9 -53.55 -3.95 -52.45 -11.55 Q-52.35 -12.4 -51.7 -12.9 -51.05 -13.4 -50.2 -13.25 L-48.55 -24.75 -48.25 -26.95 -46.55 -27.55 -44.15 -28.4 Q-44.45 -29.15 -44.15 -29.85 -43.8 -30.65 -43.05 -30.95 L-40.45 -31.9 -38.95 -31.75 Q-38.2 -31.4 -37.95 -30.6 M74.15 -5.2 Q69.9 -6.45 68.75 -6.5 L68.65 -6.5 68.55 -6.5 68.5 -6.5 68.4 -6.5 68.2 -6.5 68.1 -6.5 66.15 -6.45 65.6 -6.1 66.25 -5.8 70.35 -5.65 72.0 -5.45 71.95 -5.5 74.15 -5.2 M84.4 -10.15 L84.35 -10.1 84.15 -9.0 83.8 -5.65 Q83.75 -4.9 83.15 -4.35 82.55 -3.85 81.8 -3.85 L80.55 -3.85 79.2 -3.9 82.2 -2.55 85.0 -0.45 84.6 -11.25 84.4 -10.15 M131.5 -0.8 L131.45 -0.8 131.1 -0.95 130.3 4.1 132.25 4.9 132.55 2.7 132.9 -0.25 131.5 -0.8 M116.3 -24.5 Q116.35 -25.1 116.85 -25.55 117.4 -26.15 118.25 -26.15 119.1 -26.15 119.7 -25.55 120.25 -25.0 120.25 -24.15 L120.25 -10.55 122.4 -12.85 Q126.7 -16.6 131.65 -16.55 138.15 -16.6 142.0 -10.85 L141.9 -12.85 171.15 -23.3 171.05 -24.0 Q171.05 -24.85 171.65 -25.4 172.2 -26.0 173.05 -26.0 L176.75 -26.0 Q177.5 -26.0 178.1 -25.5 178.65 -25.0 178.75 -24.25 L180.1 -13.35 Q180.15 -12.65 179.8 -12.05 L178.8 -11.2 Q174.65 -9.75 172.75 -8.55 L172.65 -8.5 Q169.35 -6.7 168.1 -4.6 L171.45 21.1 Q171.5 21.8 171.15 22.45 L170.05 23.25 Q162.65 25.55 158.05 28.05 L156.55 28.25 Q155.75 28.0 155.35 27.25 154.95 26.5 155.2 25.75 155.4 24.95 156.15 24.55 L156.95 24.15 155.75 -0.85 Q155.2 -0.3 154.45 -0.25 L152.55 0.7 152.45 0.7 Q149.6 2.25 148.95 2.1 148.65 2.15 147.9 2.55 L147.6 2.65 145.7 3.3 Q145.35 10.0 141.55 14.9 L141.5 14.9 Q137.45 19.9 133.35 19.75 127.4 19.8 122.75 15.2 L121.2 13.5 121.2 21.85 Q121.2 22.7 120.65 23.3 120.05 23.85 119.2 23.85 L118.3 23.65 118.25 23.65 116.25 23.5 116.2 23.5 116.05 23.5 115.7 23.55 109.05 23.75 Q108.25 23.75 107.65 23.2 107.0 22.65 107.0 21.8 107.0 21.0 107.55 20.4 108.05 19.85 108.7 19.8 L107.4 8.0 104.6 8.9 101.7 9.95 101.6 10.0 Q98.9 10.9 96.85 11.9 L98.75 25.45 Q98.85 26.1 98.55 26.7 L97.6 27.55 95.65 28.45 95.6 28.45 86.9 31.9 Q86.15 32.2 85.4 31.9 84.6 31.55 84.3 30.8 84.0 30.05 84.3 29.3 84.65 28.5 85.4 28.2 L86.05 27.95 85.6 15.75 85.55 15.8 85.55 15.75 84.85 17.0 84.05 17.7 67.55 25.75 66.6 25.95 59.05 25.45 Q58.2 25.3 57.75 24.65 57.25 23.95 57.4 23.15 L57.5 22.75 53.65 21.3 53.6 21.25 53.25 21.5 51.7 21.55 Q50.9 21.25 50.6 20.5 50.25 19.7 50.55 18.95 L52.45 14.2 52.85 13.6 52.95 12.9 Q53.25 12.1 54.0 11.75 L55.5 11.65 58.05 12.45 Q58.8 12.65 59.25 13.35 59.65 14.05 59.45 14.85 L59.8 14.95 60.7 15.15 61.3 15.3 64.7 16.05 66.4 16.25 66.45 16.25 66.55 16.25 66.75 16.25 66.85 16.25 66.9 16.25 69.75 15.2 70.0 15.0 Q69.55 14.4 69.6 13.65 69.65 12.8 70.3 12.3 L72.0 10.65 72.75 9.35 Q70.5 6.45 66.3 6.55 L66.2 6.55 64.15 6.55 62.05 6.55 Q56.5 6.5 53.85 3.6 L53.8 3.6 Q52.7 2.55 52.05 -0.3 L52.1 -0.25 Q51.5 -2.5 51.5 -4.1 51.3 -20.15 70.65 -20.15 L77.0 -19.65 76.95 -19.65 83.85 -17.2 84.4 -17.05 84.35 -18.65 89.3 -19.85 92.05 -20.55 92.65 -20.75 92.6 -21.2 Q92.5 -22.05 93.05 -22.65 93.6 -23.3 94.4 -23.4 95.25 -23.5 95.9 -22.95 96.5 -22.4 96.6 -21.6 97.55 -11.75 97.55 -5.9 L97.7 -5.75 98.15 -5.05 101.5 -6.6 109.45 -10.35 109.45 -17.8 109.15 -26.95 113.85 -25.1 116.3 -24.5 M-100.55 23.25 L-100.75 24.15 -100.85 24.35 -100.8 24.4 Q-100.45 23.9 -100.45 23.2 L-100.55 23.25 Q-104.5 25.0 -102.85 25.2 L-102.8 25.15 Q-103.8 24.9 -100.55 23.25 M-102.8 25.1 L-102.75 25.0 -102.8 25.05 -102.8 25.1" fill="#000000" fill-rule="evenodd" stroke="none"/>
  </g>
</svg>
