<?xml version="1.0" encoding="UTF-8" standalone="no"?>
<svg xmlns:xlink="http://www.w3.org/1999/xlink" height="26.3px" width="62.05px" xmlns="http://www.w3.org/2000/svg">
  <g transform="matrix(1.0, 0.0, 0.0, 1.0, 31.0, 13.15)">
    <path d="M-14.95 1.15 L-16.65 1.95 -15.65 5.25 Q-17.05 7.1 -18.45 8.0 -19.0 8.4 -20.2 8.9 L-22.05 9.45 Q-24.5 9.45 -26.3 8.4 -29.0 6.75 -29.0 3.15 L-28.8 0.5 Q-28.4 -2.0 -25.7 -4.5 -23.3 -6.7 -21.85 -6.7 L-18.6 -6.7 -18.5 -5.95 Q-18.5 -5.0 -18.8 -3.45 L-19.35 -3.6 Q-20.9 -3.6 -22.85 -2.0 -25.05 -0.2 -25.05 1.75 L-24.6 3.1 Q-24.1 3.7 -23.4 3.7 L-22.15 3.7 -22.15 0.15 Q-19.95 -0.9 -15.3 -2.05 L-14.95 1.15" fill="#000000" fill-rule="evenodd" stroke="none"/>
    <path d="M-14.95 1.15 L-16.65 1.95 -15.65 5.25 Q-17.05 7.1 -18.45 8.0 -19.0 8.4 -20.2 8.9 L-22.05 9.45 Q-24.5 9.45 -26.3 8.4 -29.0 6.75 -29.0 3.15 L-28.8 0.5 Q-28.4 -2.0 -25.7 -4.5 -23.3 -6.7 -21.85 -6.7 L-18.6 -6.7 -18.5 -5.95 Q-18.5 -5.0 -18.8 -3.45 L-19.35 -3.6 Q-20.9 -3.6 -22.85 -2.0 -25.05 -0.2 -25.05 1.75 L-24.6 3.1 Q-24.1 3.7 -23.4 3.7 L-22.15 3.7 -22.15 0.15 Q-19.95 -0.9 -15.3 -2.05 L-14.95 1.15 Z" fill="none" stroke="#000000" stroke-linecap="round" stroke-linejoin="round" stroke-width="4.0"/>
    <path d="M-3.95 -2.9 Q-2.4 0.35 -0.1 6.85 L-2.85 8.9 -4.7 10.2 -5.85 8.15 -7.25 5.0 -9.9 5.35 Q-11.4 5.55 -12.1 6.2 L-12.95 7.85 Q-13.4 9.1 -13.65 9.1 L-14.85 8.6 -16.2 7.95 -9.75 -9.7 -8.45 -10.1 Q-8.1 -10.1 -6.15 -6.85 L-3.95 -2.9 M-9.65 0.0 L-7.3 -0.3 Q-7.85 -2.1 -8.75 -3.5 L-9.65 0.0" fill="#000000" fill-rule="evenodd" stroke="none"/>
    <path d="M-3.95 -2.9 Q-2.4 0.35 -0.1 6.85 L-2.85 8.9 -4.7 10.2 -5.85 8.15 -7.25 5.0 -9.9 5.35 Q-11.4 5.55 -12.1 6.2 L-12.95 7.85 Q-13.4 9.1 -13.65 9.1 L-14.85 8.6 -16.2 7.95 -9.75 -9.7 -8.45 -10.1 Q-8.1 -10.1 -6.15 -6.85 L-3.95 -2.9 M-9.65 0.0 L-7.3 -0.3 Q-7.85 -2.1 -8.75 -3.5 L-9.65 0.0" fill="none" stroke="#000000" stroke-linecap="round" stroke-linejoin="round" stroke-width="4.0"/>
    <path d="M18.3 9.7 L16.15 10.05 14.4 10.55 13.55 5.5 12.7 0.45 Q11.3 4.35 10.55 10.25 L9.3 10.75 8.2 11.15 Q7.85 11.15 7.4 10.75 L5.45 5.6 3.3 0.15 Q2.95 1.05 2.9 3.05 L2.85 6.65 2.7 8.55 2.5 10.55 1.75 10.55 Q0.35 10.55 -1.05 9.7 L1.05 -8.15 2.0 -8.9 3.15 -9.7 7.75 1.0 11.8 -11.05 12.55 -11.15 Q13.4 -11.15 17.25 -9.95 17.2 -6.5 17.65 1.4 L18.0 5.3 18.3 8.25 18.3 9.7" fill="#000000" fill-rule="evenodd" stroke="none"/>
    <path d="M18.3 9.7 L16.15 10.05 14.4 10.55 13.55 5.5 12.7 0.45 Q11.3 4.35 10.55 10.25 L9.3 10.75 8.2 11.15 Q7.85 11.15 7.4 10.75 L5.45 5.6 3.3 0.15 Q2.95 1.05 2.9 3.05 L2.85 6.65 2.7 8.55 2.5 10.55 1.75 10.55 Q0.35 10.55 -1.05 9.7 L1.05 -8.15 2.0 -8.9 3.15 -9.7 7.75 1.0 11.8 -11.05 12.55 -11.15 Q13.4 -11.15 17.25 -9.95 17.2 -6.5 17.65 1.4 L18.0 5.3 18.3 8.25 18.3 9.7 Z" fill="none" stroke="#000000" stroke-linecap="round" stroke-linejoin="round" stroke-width="4.0"/>
    <path d="M29.05 0.15 L22.85 1.8 22.85 3.55 23.35 4.0 25.3 3.5 Q26.75 2.95 27.25 2.95 L28.5 2.95 28.5 6.45 19.5 10.05 Q19.15 8.2 18.5 0.1 L17.9 -8.25 17.9 -10.2 27.9 -10.2 27.8 -7.0 21.1 -5.65 21.1 -4.1 21.45 -3.6 Q21.65 -3.35 22.0 -3.4 L24.5 -3.85 29.05 -4.7 29.05 -1.6 29.05 0.15" fill="#000000" fill-rule="evenodd" stroke="none"/>
    <path d="M29.05 0.15 L22.85 1.8 22.85 3.55 23.35 4.0 25.3 3.5 Q26.75 2.95 27.25 2.95 L28.5 2.95 28.5 6.45 19.5 10.05 Q19.15 8.2 18.5 0.1 L17.9 -8.25 17.9 -10.2 27.9 -10.2 27.8 -7.0 21.1 -5.65 21.1 -4.1 21.45 -3.6 Q21.65 -3.35 22.0 -3.4 L24.5 -3.85 29.05 -4.7 29.05 -1.6 29.05 0.15 Z" fill="none" stroke="#000000" stroke-linecap="round" stroke-linejoin="round" stroke-width="4.0"/>
    <path d="M-14.95 1.15 L-16.65 1.95 -15.65 5.25 Q-17.05 7.1 -18.45 8.0 -19.0 8.4 -20.2 8.9 L-22.05 9.45 Q-24.5 9.45 -26.3 8.4 -29.0 6.75 -29.0 3.15 L-28.8 0.5 Q-28.4 -2.0 -25.7 -4.5 -23.3 -6.7 -21.85 -6.7 L-18.6 -6.7 -18.5 -5.95 Q-18.5 -5.0 -18.8 -3.45 L-19.35 -3.6 Q-20.9 -3.6 -22.85 -2.0 -25.05 -0.2 -25.05 1.75 L-24.6 3.1 Q-24.1 3.7 -23.4 3.7 L-22.15 3.7 -22.15 0.15 Q-19.95 -0.9 -15.3 -2.05 L-14.95 1.15" fill="#ffff00" fill-rule="evenodd" stroke="none"/>
    <path d="M-7.3 -0.3 Q-7.85 -2.1 -8.75 -3.5 L-9.65 0.0 -7.3 -0.3 M-6.15 -6.85 L-3.95 -2.9 Q-2.4 0.35 -0.1 6.85 L-2.85 8.9 -4.7 10.2 -5.85 8.15 -7.2 5.0 -9.9 5.35 Q-11.4 5.55 -12.1 6.2 L-12.95 7.85 Q-13.4 9.1 -13.65 9.1 L-14.85 8.6 -16.2 7.95 -9.75 -9.7 -8.45 -10.1 Q-8.1 -10.1 -6.15 -6.85" fill="#ffff00" fill-rule="evenodd" stroke="none"/>
    <path d="M17.25 -9.95 L17.65 1.4 18.05 5.3 18.3 8.25 18.3 9.7 16.2 10.05 14.4 10.55 13.6 5.5 12.75 0.45 Q11.3 4.35 10.55 10.25 L9.3 10.75 8.2 11.15 Q7.9 11.15 7.4 10.75 L5.5 5.6 3.3 0.15 Q2.95 1.05 2.95 3.05 L2.9 6.65 2.7 8.55 2.55 10.55 1.8 10.55 Q0.35 10.55 -1.05 9.7 L1.05 -8.15 2.0 -8.9 3.15 -9.7 7.75 1.0 11.85 -11.05 12.6 -11.15 17.25 -9.95" fill="#ffff00" fill-rule="evenodd" stroke="none"/>
    <path d="M29.05 0.15 L22.85 1.8 22.85 3.55 23.35 4.0 25.3 3.5 Q26.75 2.95 27.25 2.95 L28.5 2.95 28.5 6.45 19.5 10.05 Q19.15 8.2 18.5 0.1 L17.9 -8.25 17.9 -10.2 27.9 -10.2 27.8 -7.0 21.1 -5.65 21.1 -4.1 21.45 -3.6 Q21.65 -3.35 22.0 -3.4 L24.5 -3.85 29.05 -4.7 29.05 -1.6 29.05 0.15" fill="#ffff00" fill-rule="evenodd" stroke="none"/>
  </g>
</svg>
