<?xml version="1.0" encoding="UTF-8" standalone="no"?>
<svg xmlns:xlink="http://www.w3.org/1999/xlink" height="29.45px" width="147.0px" xmlns="http://www.w3.org/2000/svg">
  <g transform="matrix(1.0, 0.0, 0.0, 1.0, 73.5, 14.75)">
    <path d="M-66.95 -10.3 Q-66.95 -9.4 -67.4 -8.55 -68.0 -7.55 -68.8 -7.55 -69.6 -7.55 -70.1 -8.45 -70.5 -9.2 -70.5 -10.05 -70.55 -11.0 -70.1 -11.75 -69.6 -12.75 -68.75 -12.75 -67.85 -12.75 -67.35 -11.9 -66.95 -11.2 -66.95 -10.3 M-69.15 -4.85 L-67.1 -5.05 -67.0 -2.05 -67.35 5.35 -67.65 12.7 -69.4 12.6 -71.15 12.4 -71.5 12.7 -70.65 -5.05 -69.15 -4.85" fill="#000000" fill-rule="evenodd" stroke="none"/>
    <path d="M-66.95 -10.3 Q-66.95 -9.4 -67.4 -8.55 -68.0 -7.55 -68.8 -7.55 -69.6 -7.55 -70.1 -8.45 -70.5 -9.2 -70.5 -10.05 -70.55 -11.0 -70.1 -11.75 -69.6 -12.75 -68.75 -12.75 -67.85 -12.75 -67.35 -11.9 -66.95 -11.2 -66.95 -10.3 M-69.15 -4.85 L-67.1 -5.05 -67.0 -2.05 -67.35 5.35 -67.65 12.7 -69.4 12.6 -71.15 12.4 -71.5 12.7 -70.65 -5.05 -69.15 -4.85" fill="none" stroke="#000000" stroke-linecap="round" stroke-linejoin="round" stroke-width="4.0"/>
    <path d="M-51.9 -11.8 L-51.9 8.95 -54.4 10.4 -61.9 2.7 -61.9 3.65 Q-61.9 5.95 -61.35 7.75 L-61.35 8.7 -63.3 10.15 -64.85 11.2 Q-65.2 11.25 -65.4 8.35 L-66.1 -5.7 Q-62.8 -7.7 -62.0 -7.7 -61.75 -7.7 -59.85 -4.4 -57.75 -0.75 -56.8 0.25 L-55.25 -10.55 -51.9 -11.8" fill="#000000" fill-rule="evenodd" stroke="none"/>
    <path d="M-51.9 -11.8 L-51.9 8.95 -54.4 10.4 -61.9 2.7 -61.9 3.65 Q-61.9 5.95 -61.35 7.75 L-61.35 8.7 -63.3 10.15 -64.85 11.2 Q-65.2 11.25 -65.4 8.35 L-66.1 -5.7 Q-62.8 -7.7 -62.0 -7.7 -61.75 -7.7 -59.85 -4.4 -57.75 -0.75 -56.8 0.25 L-55.25 -10.55 -51.9 -11.8 Z" fill="none" stroke="#000000" stroke-linecap="round" stroke-linejoin="round" stroke-width="4.0"/>
    <path d="M-37.9 3.15 Q-37.9 4.4 -38.85 6.1 -40.9 9.75 -45.7 9.75 L-48.6 9.55 Q-50.35 9.2 -51.45 8.25 L-50.35 5.65 -48.05 6.3 -45.8 6.7 Q-44.85 6.7 -43.7 5.75 -42.55 4.75 -42.35 3.85 -43.45 2.05 -45.85 2.05 L-46.7 2.05 -47.5 2.05 Q-49.3 2.05 -50.2 1.1 L-50.75 -0.1 -50.9 -1.4 Q-50.95 -7.0 -44.1 -7.0 L-41.85 -6.9 -38.75 -5.8 -39.4 -3.95 -39.65 -2.1 -40.2 -2.1 -42.45 -2.6 -44.85 -3.15 -46.05 -3.15 -47.3 -2.2 Q-46.85 -1.45 -46.05 -1.3 L-43.65 -1.15 Q-41.45 -0.95 -39.9 -0.1 -37.9 1.05 -37.9 3.15" fill="#000000" fill-rule="evenodd" stroke="none"/>
    <path d="M-37.9 3.15 Q-37.9 4.4 -38.85 6.1 -40.9 9.75 -45.7 9.75 L-48.6 9.55 Q-50.35 9.2 -51.45 8.25 L-50.35 5.65 -48.05 6.3 -45.8 6.7 Q-44.85 6.7 -43.7 5.75 -42.55 4.75 -42.35 3.85 -43.45 2.05 -45.85 2.05 L-46.7 2.05 -47.5 2.05 Q-49.3 2.05 -50.2 1.1 L-50.75 -0.1 -50.9 -1.4 Q-50.95 -7.0 -44.1 -7.0 L-41.85 -6.9 -38.75 -5.8 -39.4 -3.95 -39.65 -2.1 -40.2 -2.1 -42.45 -2.6 -44.85 -3.15 -46.05 -3.15 -47.3 -2.2 Q-46.85 -1.45 -46.05 -1.3 L-43.65 -1.15 Q-41.45 -0.95 -39.9 -0.1 -37.9 1.05 -37.9 3.15 Z" fill="none" stroke="#000000" stroke-linecap="round" stroke-linejoin="round" stroke-width="4.0"/>
    <path d="M-24.5 -5.0 L-27.05 -3.85 Q-28.75 -2.9 -29.3 -1.75 L-27.95 8.75 Q-30.95 9.65 -32.85 10.7 L-33.4 -0.35 Q-33.6 -0.65 -33.95 -0.65 L-35.1 -0.2 -36.1 0.3 Q-36.3 0.25 -36.95 0.55 L-37.8 0.8 -38.9 0.8 Q-38.75 0.3 -38.75 -1.15 L-38.9 -4.85 -26.5 -9.3 -25.05 -9.3 -24.5 -5.0" fill="#000000" fill-rule="evenodd" stroke="none"/>
    <path d="M-24.5 -5.0 L-27.05 -3.85 Q-28.75 -2.9 -29.3 -1.75 L-27.95 8.75 Q-30.95 9.65 -32.85 10.7 L-33.4 -0.35 Q-33.6 -0.65 -33.95 -0.65 L-35.1 -0.2 -36.1 0.3 Q-36.3 0.25 -36.95 0.55 L-37.8 0.8 -38.9 0.8 Q-38.75 0.3 -38.75 -1.15 L-38.9 -4.85 -26.5 -9.3 -25.05 -9.3 -24.5 -5.0 Z" fill="none" stroke="#000000" stroke-linecap="round" stroke-linejoin="round" stroke-width="4.0"/>
    <path d="M-15.45 -4.65 Q-16.2 -5.25 -16.6 -5.25 -17.45 -5.3 -17.95 -4.3 L-18.4 -2.6 -18.35 -2.0 -16.65 -3.0 Q-15.7 -3.55 -15.45 -4.65 M-13.7 -0.55 Q-14.55 0.35 -16.65 1.45 L-13.8 3.35 Q-11.65 4.75 -10.8 6.05 L-12.9 10.9 -17.1 7.1 Q-19.25 5.15 -21.3 3.75 L-21.35 4.8 -21.1 8.1 Q-22.5 8.65 -25.3 9.2 L-25.7 3.05 -25.7 -7.05 Q-25.7 -7.8 -25.1 -9.0 L-24.55 -9.4 -22.0 -9.4 -21.85 -8.25 Q-21.75 -7.5 -21.5 -7.5 L-20.25 -8.2 -18.75 -9.0 -16.2 -9.4 Q-14.6 -9.4 -13.45 -8.6 -11.85 -7.4 -11.85 -4.85 -11.8 -2.3 -13.7 -0.55" fill="#000000" fill-rule="evenodd" stroke="none"/>
    <path d="M-15.45 -4.65 Q-16.2 -5.25 -16.6 -5.25 -17.45 -5.3 -17.95 -4.3 L-18.4 -2.6 -18.35 -2.0 -16.65 -3.0 Q-15.7 -3.55 -15.45 -4.65 M-13.7 -0.55 Q-14.55 0.35 -16.65 1.45 L-13.8 3.35 Q-11.65 4.75 -10.8 6.05 L-12.9 10.9 -17.1 7.1 Q-19.25 5.15 -21.3 3.75 L-21.35 4.8 -21.1 8.1 Q-22.5 8.65 -25.3 9.2 L-25.7 3.05 -25.7 -7.05 Q-25.7 -7.8 -25.1 -9.0 L-24.55 -9.4 -22.0 -9.4 -21.85 -8.25 Q-21.75 -7.5 -21.5 -7.5 L-20.25 -8.2 -18.75 -9.0 -16.2 -9.4 Q-14.6 -9.4 -13.45 -8.6 -11.85 -7.4 -11.85 -4.85 -11.8 -2.3 -13.7 -0.55" fill="none" stroke="#000000" stroke-linecap="round" stroke-linejoin="round" stroke-width="4.0"/>
    <path d="M-0.6 -5.9 L-0.6 -6.15 -0.6 -6.45 -0.3 -6.85 1.1 -6.55 2.6 -6.25 2.95 -2.6 Q2.95 2.5 1.5 5.95 -0.55 10.7 -4.9 10.7 -7.4 10.7 -9.3 8.65 -11.6 6.25 -11.6 2.2 -11.6 0.65 -10.55 -3.8 -9.45 -8.5 -8.85 -8.5 -8.55 -8.5 -5.95 -6.75 -6.45 -5.5 -6.55 -4.1 L-6.65 -1.35 Q-6.65 3.85 -3.9 3.9 -3.15 3.85 -1.95 3.0 -0.95 2.2 -0.6 0.5 L-0.3 -1.4 -0.1 -3.3 -0.35 -4.65 -0.6 -5.9" fill="#000000" fill-rule="evenodd" stroke="none"/>
    <path d="M-0.6 -5.9 L-0.6 -6.15 -0.6 -6.45 -0.3 -6.85 1.1 -6.55 2.6 -6.25 2.95 -2.6 Q2.95 2.5 1.5 5.95 -0.55 10.7 -4.9 10.7 -7.4 10.7 -9.3 8.65 -11.6 6.25 -11.6 2.2 -11.6 0.65 -10.55 -3.8 -9.45 -8.5 -8.85 -8.5 -8.55 -8.5 -5.95 -6.75 -6.45 -5.5 -6.55 -4.1 L-6.65 -1.35 Q-6.65 3.85 -3.9 3.9 -3.15 3.85 -1.95 3.0 -0.95 2.2 -0.6 0.5 L-0.3 -1.4 -0.1 -3.3 -0.35 -4.65 -0.6 -5.9 Z" fill="none" stroke="#000000" stroke-linecap="round" stroke-linejoin="round" stroke-width="4.0"/>
    <path d="M12.6 -2.55 Q7.1 -2.55 7.1 0.4 7.1 3.6 10.2 3.6 L12.1 3.25 14.6 2.5 15.0 6.2 Q14.2 7.3 12.1 8.1 L9.15 8.8 Q7.2 8.8 5.35 6.8 3.15 4.4 3.15 0.95 3.15 -4.05 6.45 -6.6 8.9 -8.5 11.9 -8.5 12.95 -8.5 14.1 -7.6 L13.75 -2.55 12.6 -2.55" fill="#000000" fill-rule="evenodd" stroke="none"/>
    <path d="M12.6 -2.55 Q7.1 -2.55 7.1 0.4 7.1 3.6 10.2 3.6 L12.1 3.25 14.6 2.5 15.0 6.2 Q14.2 7.3 12.1 8.1 L9.15 8.8 Q7.2 8.8 5.35 6.8 3.15 4.4 3.15 0.95 3.15 -4.05 6.45 -6.6 8.9 -8.5 11.9 -8.5 12.95 -8.5 14.1 -7.6 L13.75 -2.55 12.6 -2.55 Z" fill="none" stroke="#000000" stroke-linecap="round" stroke-linejoin="round" stroke-width="4.0"/>
    <path d="M28.45 -5.0 Q26.7 -4.3 25.9 -3.85 24.2 -2.9 23.65 -1.75 L25.0 8.75 Q22.0 9.65 20.1 10.7 L19.55 -0.35 Q19.35 -0.65 19.0 -0.65 18.65 -0.65 17.85 -0.2 L16.85 0.3 Q16.65 0.25 16.0 0.55 L15.15 0.8 14.05 0.8 14.2 -1.15 14.05 -4.85 26.45 -9.3 27.9 -9.3 28.45 -5.0" fill="#000000" fill-rule="evenodd" stroke="none"/>
    <path d="M28.45 -5.0 Q26.7 -4.3 25.9 -3.85 24.2 -2.9 23.65 -1.75 L25.0 8.75 Q22.0 9.65 20.1 10.7 L19.55 -0.35 Q19.35 -0.65 19.0 -0.65 18.65 -0.65 17.85 -0.2 L16.85 0.3 Q16.65 0.25 16.0 0.55 L15.15 0.8 14.05 0.8 14.2 -1.15 14.05 -4.85 26.45 -9.3 27.9 -9.3 28.45 -5.0 Z" fill="none" stroke="#000000" stroke-linecap="round" stroke-linejoin="round" stroke-width="4.0"/>
    <path d="M32.8 -10.3 Q32.8 -9.4 32.35 -8.55 31.75 -7.55 30.95 -7.55 30.15 -7.55 29.65 -8.45 29.25 -9.2 29.25 -10.05 29.2 -11.0 29.65 -11.75 30.15 -12.75 31.0 -12.75 31.9 -12.75 32.4 -11.9 32.8 -11.2 32.8 -10.3 M30.6 -4.85 L32.65 -5.05 32.75 -2.05 32.4 5.35 32.1 12.7 30.35 12.6 28.6 12.4 28.25 12.7 29.1 -5.05 30.6 -4.85" fill="#000000" fill-rule="evenodd" stroke="none"/>
    <path d="M32.8 -10.3 Q32.8 -9.4 32.35 -8.55 31.75 -7.55 30.95 -7.55 30.15 -7.55 29.65 -8.45 29.25 -9.2 29.25 -10.05 29.2 -11.0 29.65 -11.75 30.15 -12.75 31.0 -12.75 31.9 -12.75 32.4 -11.9 32.8 -11.2 32.8 -10.3 M30.6 -4.85 L32.65 -5.05 32.75 -2.05 32.4 5.35 32.1 12.7 30.35 12.6 28.6 12.4 28.25 12.7 29.1 -5.05 30.6 -4.85" fill="none" stroke="#000000" stroke-linecap="round" stroke-linejoin="round" stroke-width="4.0"/>
    <path d="M43.7 0.95 Q43.7 3.7 42.2 5.6 40.9 7.3 39.55 7.3 37.55 7.25 35.9 5.65 33.9 3.7 33.9 0.15 33.9 -2.7 35.75 -4.35 37.2 -5.6 38.9 -5.6 41.2 -5.6 42.55 -3.4 43.7 -1.5 43.7 0.95 M40.25 -0.5 L39.15 -0.85 38.05 -1.2 37.45 2.35 39.7 3.25 40.05 1.4 40.25 -0.5" fill="#000000" fill-rule="evenodd" stroke="none"/>
    <path d="M43.7 0.95 Q43.7 3.7 42.2 5.6 40.9 7.3 39.55 7.3 37.55 7.25 35.9 5.65 33.9 3.7 33.9 0.15 33.9 -2.7 35.75 -4.35 37.2 -5.6 38.9 -5.6 41.2 -5.6 42.55 -3.4 43.7 -1.5 43.7 0.95 M40.25 -0.5 L39.15 -0.85 38.05 -1.2 37.45 2.35 39.7 3.25 40.05 1.4 40.25 -0.5" fill="none" stroke="#000000" stroke-linecap="round" stroke-linejoin="round" stroke-width="4.0"/>
    <path d="M57.5 -11.8 L57.5 8.95 Q56.8 9.25 55.0 10.4 L47.5 2.7 47.5 3.65 Q47.5 5.95 48.05 7.75 L48.05 8.7 Q47.55 9.0 46.1 10.15 L44.55 11.2 Q44.2 11.25 44.0 8.35 L43.3 -5.7 Q46.6 -7.7 47.4 -7.7 L49.55 -4.4 Q51.65 -0.75 52.6 0.25 L54.15 -10.55 57.5 -11.8" fill="#000000" fill-rule="evenodd" stroke="none"/>
    <path d="M57.5 -11.8 L57.5 8.95 Q56.8 9.25 55.0 10.4 L47.5 2.7 47.5 3.65 Q47.5 5.95 48.05 7.75 L48.05 8.7 Q47.55 9.0 46.1 10.15 L44.55 11.2 Q44.2 11.25 44.0 8.35 L43.3 -5.7 Q46.6 -7.7 47.4 -7.7 L49.55 -4.4 Q51.65 -0.75 52.6 0.25 L54.15 -10.55 57.5 -11.8 Z" fill="none" stroke="#000000" stroke-linecap="round" stroke-linejoin="round" stroke-width="4.0"/>
    <path d="M71.5 3.15 Q71.5 4.4 70.55 6.1 68.5 9.75 63.7 9.75 L60.8 9.55 Q59.05 9.2 57.95 8.25 L59.05 5.65 61.35 6.3 63.6 6.7 Q64.55 6.7 65.7 5.75 66.85 4.75 67.05 3.85 65.95 2.05 63.55 2.05 L62.7 2.05 61.9 2.05 Q60.1 2.05 59.2 1.1 L58.65 -0.1 58.5 -1.4 Q58.45 -7.0 65.3 -7.0 L67.55 -6.9 70.65 -5.8 Q70.25 -5.3 70.0 -3.95 L69.75 -2.1 69.2 -2.1 66.95 -2.6 64.55 -3.15 63.35 -3.15 62.1 -2.2 Q62.55 -1.45 63.35 -1.3 L65.75 -1.15 Q67.95 -0.95 69.5 -0.1 71.5 1.05 71.5 3.15" fill="#000000" fill-rule="evenodd" stroke="none"/>
    <path d="M71.5 3.15 Q71.5 4.4 70.55 6.1 68.5 9.75 63.7 9.75 L60.8 9.55 Q59.05 9.2 57.95 8.25 L59.05 5.65 61.35 6.3 63.6 6.7 Q64.55 6.7 65.7 5.75 66.85 4.75 67.05 3.85 65.95 2.05 63.55 2.05 L62.7 2.05 61.9 2.05 Q60.1 2.05 59.2 1.1 L58.65 -0.1 58.5 -1.4 Q58.45 -7.0 65.3 -7.0 L67.55 -6.9 70.65 -5.8 Q70.25 -5.3 70.0 -3.95 L69.75 -2.1 69.2 -2.1 66.95 -2.6 64.55 -3.15 63.35 -3.15 62.1 -2.2 Q62.55 -1.45 63.35 -1.3 L65.75 -1.15 Q67.95 -0.95 69.5 -0.1 71.5 1.05 71.5 3.15 Z" fill="none" stroke="#000000" stroke-linecap="round" stroke-linejoin="round" stroke-width="4.0"/>
    <path d="M-70.5 -10.05 Q-70.5 -11.0 -70.1 -11.75 -69.6 -12.75 -68.7 -12.75 -67.85 -12.75 -67.35 -11.9 -66.9 -11.2 -66.9 -10.3 -66.9 -9.4 -67.4 -8.55 -67.95 -7.55 -68.75 -7.55 -69.55 -7.55 -70.05 -8.45 -70.5 -9.2 -70.5 -10.05 M-67.0 -2.05 Q-67.0 0.55 -67.3 5.35 L-67.6 12.7 -69.35 12.6 -71.15 12.4 -71.5 12.7 -70.65 -5.05 -69.1 -4.85 -67.1 -5.05 -67.0 -2.05" fill="#ffff00" fill-rule="evenodd" stroke="none"/>
    <path d="M-51.9 -11.75 L-51.9 9.0 -54.4 10.45 -61.9 2.75 -61.9 3.7 Q-61.9 6.0 -61.3 7.8 L-61.3 8.75 Q-61.85 9.0 -63.3 10.15 L-64.85 11.25 Q-65.2 11.25 -65.4 8.4 L-66.1 -5.7 Q-62.8 -7.7 -62.0 -7.7 -61.75 -7.65 -59.85 -4.35 -57.75 -0.7 -56.8 0.3 L-55.25 -10.55 -51.9 -11.75" fill="#ffff00" fill-rule="evenodd" stroke="none"/>
    <path d="M-37.9 3.15 Q-37.9 4.4 -38.85 6.1 -40.9 9.75 -45.7 9.75 L-48.6 9.55 Q-50.35 9.2 -51.45 8.25 L-50.35 5.65 -48.05 6.3 -45.8 6.7 Q-44.85 6.7 -43.7 5.75 -42.55 4.75 -42.35 3.85 -43.45 2.05 -45.85 2.05 L-46.65 2.05 -47.5 2.05 Q-49.3 2.05 -50.2 1.1 L-50.75 -0.1 -50.9 -1.4 Q-50.95 -7.0 -44.1 -7.0 L-41.85 -6.9 -38.75 -5.8 -39.4 -3.95 -39.65 -2.1 -40.2 -2.1 -42.45 -2.6 -44.85 -3.15 -46.05 -3.15 -47.3 -2.2 Q-46.85 -1.45 -46.05 -1.3 L-43.65 -1.15 Q-41.45 -0.95 -39.9 -0.1 -37.9 1.05 -37.9 3.15" fill="#ffff00" fill-rule="evenodd" stroke="none"/>
    <path d="M-24.5 -5.0 L-27.05 -3.85 Q-28.8 -2.9 -29.3 -1.75 L-27.95 8.75 Q-30.95 9.65 -32.9 10.7 L-33.4 -0.35 Q-33.6 -0.65 -34.0 -0.65 L-35.1 -0.2 -36.1 0.3 Q-36.35 0.25 -36.95 0.55 L-37.8 0.8 -38.9 0.8 -38.8 -1.15 -38.9 -4.85 -26.5 -9.3 -25.05 -9.3 -24.5 -5.0" fill="#ffff00" fill-rule="evenodd" stroke="none"/>
    <path d="M-13.7 -0.55 Q-14.55 0.35 -16.65 1.45 L-13.8 3.35 Q-11.65 4.75 -10.8 6.05 L-12.9 10.9 -17.1 7.1 Q-19.25 5.15 -21.3 3.75 L-21.35 4.8 -21.1 8.1 Q-22.5 8.65 -25.3 9.2 L-25.7 3.05 -25.7 -7.05 Q-25.7 -7.8 -25.1 -9.0 L-24.55 -9.4 -22.0 -9.4 -21.85 -8.25 Q-21.75 -7.5 -21.5 -7.5 L-20.25 -8.2 -18.75 -9.0 -16.2 -9.4 Q-14.6 -9.4 -13.45 -8.6 -11.85 -7.4 -11.85 -4.85 -11.8 -2.3 -13.7 -0.55 M-17.95 -4.3 L-18.4 -2.6 -18.35 -2.0 -16.65 -3.0 Q-15.7 -3.55 -15.45 -4.65 -16.2 -5.25 -16.6 -5.25 -17.45 -5.3 -17.95 -4.3" fill="#ffff00" fill-rule="evenodd" stroke="none"/>
    <path d="M2.95 -2.6 Q2.95 2.5 1.5 5.95 -0.55 10.7 -4.9 10.7 -7.4 10.7 -9.3 8.65 -11.6 6.25 -11.6 2.2 -11.6 0.65 -10.55 -3.8 -9.45 -8.5 -8.85 -8.5 -8.55 -8.5 -5.95 -6.75 -6.45 -5.5 -6.55 -4.1 L-6.65 -1.35 Q-6.65 3.85 -3.9 3.9 -3.15 3.85 -1.95 3.0 -0.95 2.2 -0.6 0.5 L-0.3 -1.4 -0.1 -3.3 -0.35 -4.65 -0.6 -5.9 -0.6 -6.15 -0.6 -6.45 -0.3 -6.85 1.1 -6.55 2.6 -6.25 2.95 -2.6" fill="#ffff00" fill-rule="evenodd" stroke="none"/>
    <path d="M13.75 -2.55 L12.6 -2.55 Q7.1 -2.55 7.1 0.4 7.1 3.6 10.2 3.6 L12.1 3.25 14.6 2.5 15.0 6.2 Q14.2 7.3 12.1 8.1 L9.15 8.8 Q7.2 8.8 5.35 6.8 3.15 4.4 3.15 0.95 3.15 -4.05 6.45 -6.6 8.9 -8.5 11.9 -8.5 12.95 -8.5 14.1 -7.6 L13.75 -2.55" fill="#ffff00" fill-rule="evenodd" stroke="none"/>
    <path d="M28.45 -5.0 Q26.7 -4.3 25.9 -3.85 24.15 -2.9 23.65 -1.75 L25.0 8.75 Q22.0 9.65 20.05 10.7 L19.55 -0.35 18.95 -0.65 17.85 -0.2 16.85 0.3 Q16.6 0.25 16.0 0.55 L15.15 0.8 14.05 0.8 14.15 -1.15 14.05 -4.85 26.45 -9.3 27.9 -9.3 28.45 -5.0" fill="#ffff00" fill-rule="evenodd" stroke="none"/>
    <path d="M29.2 -10.05 Q29.2 -11.0 29.6 -11.75 30.1 -12.75 31.0 -12.75 31.85 -12.75 32.35 -11.9 32.8 -11.2 32.8 -10.3 32.8 -9.4 32.3 -8.55 31.75 -7.55 30.9 -7.55 30.15 -7.55 29.65 -8.45 29.2 -9.2 29.2 -10.05 M32.7 -2.05 L32.4 5.35 32.1 12.7 30.35 12.6 28.55 12.4 28.2 12.7 29.05 -5.05 30.6 -4.85 32.6 -5.05 32.7 -2.05" fill="#ffff00" fill-rule="evenodd" stroke="none"/>
    <path d="M39.15 -0.85 L38.05 -1.2 37.45 2.35 39.7 3.25 40.05 1.4 40.25 -0.5 39.15 -0.85 M35.75 -4.35 Q37.2 -5.6 38.9 -5.6 41.2 -5.6 42.55 -3.4 43.7 -1.5 43.7 0.95 43.7 3.7 42.2 5.6 40.9 7.3 39.55 7.3 37.55 7.25 35.9 5.65 33.9 3.7 33.9 0.15 33.9 -2.7 35.75 -4.35" fill="#ffff00" fill-rule="evenodd" stroke="none"/>
    <path d="M57.5 -11.75 L57.5 9.0 Q56.8 9.25 55.0 10.45 L47.5 2.75 47.5 3.7 Q47.5 6.0 48.1 7.8 L48.1 8.75 Q47.55 9.0 46.1 10.15 L44.55 11.25 Q44.2 11.25 44.0 8.4 L43.3 -5.7 Q46.6 -7.7 47.4 -7.7 L49.55 -4.35 Q51.65 -0.7 52.6 0.3 L54.15 -10.55 57.5 -11.75" fill="#ffff00" fill-rule="evenodd" stroke="none"/>
    <path d="M71.5 3.15 Q71.5 4.4 70.55 6.1 68.5 9.75 63.7 9.75 L60.8 9.55 Q59.05 9.2 57.95 8.25 L59.05 5.65 61.35 6.3 63.6 6.7 Q64.55 6.7 65.7 5.75 66.85 4.75 67.05 3.85 65.95 2.05 63.55 2.05 L62.75 2.05 61.9 2.05 Q60.1 2.05 59.2 1.1 L58.65 -0.1 58.5 -1.4 Q58.45 -7.0 65.3 -7.0 L67.55 -6.9 70.65 -5.8 Q70.25 -5.3 70.0 -3.95 L69.75 -2.1 69.2 -2.1 66.95 -2.6 64.55 -3.15 63.35 -3.15 62.1 -2.2 Q62.55 -1.45 63.35 -1.3 L65.75 -1.15 Q67.95 -0.95 69.5 -0.1 71.5 1.05 71.5 3.15" fill="#ffff00" fill-rule="evenodd" stroke="none"/>
  </g>
</svg>
