<?xml version="1.0" encoding="UTF-8" standalone="no"?>
<svg xmlns:xlink="http://www.w3.org/1999/xlink" height="31.2px" width="176.7px" xmlns="http://www.w3.org/2000/svg">
  <g transform="matrix(1.0, 0.0, 0.0, 1.0, 88.35, 15.6)">
    <path d="M85.15 7.95 L82.3 8.05 81.6 1.75 79.1 2.6 76.6 3.6 77.45 9.65 73.2 11.35 72.6 -5.45 71.05 -4.75 Q69.35 -3.75 68.8 -2.65 L70.15 7.85 Q67.15 8.8 65.25 9.8 L64.7 -1.25 64.15 -1.5 63.0 -1.05 62.05 -0.6 61.2 -0.35 60.3 -0.05 59.55 -0.05 Q59.2 5.0 55.55 7.7 52.75 9.75 49.5 9.75 L47.85 9.75 46.2 9.7 46.0 -6.0 45.65 -7.15 47.25 -7.65 49.4 -8.05 49.55 -6.4 Q49.65 -5.35 49.95 -5.35 L51.7 -6.0 53.45 -6.7 Q55.5 -6.7 57.1 -5.7 58.85 -4.65 59.35 -2.75 L59.25 -5.75 71.65 -10.2 73.1 -10.2 73.35 -8.2 74.5 -8.5 76.55 -9.2 Q77.0 -4.9 76.9 -2.55 L76.9 -2.45 77.25 -2.35 79.35 -3.25 82.55 -4.75 82.5 -7.75 82.4 -11.35 Q84.3 -10.45 86.0 -10.25 L86.0 -3.0 86.2 0.55 86.35 4.1 86.35 8.05 85.15 7.95 M42.7 -13.6 Q43.55 -13.6 44.05 -12.75 44.5 -12.05 44.5 -11.15 44.5 -9.9 43.8 -9.05 43.2 -8.4 42.6 -8.4 41.85 -8.4 41.35 -9.3 40.9 -10.05 40.9 -10.9 40.9 -11.85 41.3 -12.6 41.85 -13.6 42.7 -13.6 M29.75 -8.8 L30.7 -8.75 31.5 -8.85 34.05 3.15 35.7 -2.95 36.9 -9.15 39.75 -9.15 38.2 12.75 34.15 13.6 30.55 0.45 Q30.3 0.4 30.2 0.65 28.85 6.6 27.55 10.8 L23.85 10.2 19.9 -7.2 22.4 -8.35 23.45 -2.85 24.75 2.65 27.65 -8.55 Q28.0 -8.9 28.85 -8.9 L29.75 -8.8 M42.3 -5.7 L44.3 -5.9 44.4 -2.95 44.1 4.5 43.8 11.85 42.25 11.7 40.3 11.55 39.9 11.85 40.8 -5.9 42.3 -5.7 M12.7 -6.0 L14.45 -6.7 Q16.5 -6.7 18.1 -5.7 20.55 -4.25 20.55 -1.1 20.55 4.75 16.55 7.7 13.75 9.75 10.5 9.75 L8.85 9.75 7.2 9.7 7.0 -6.0 6.65 -7.15 8.25 -7.65 10.4 -8.05 10.55 -6.4 Q10.65 -5.35 10.95 -5.35 11.2 -5.35 12.7 -6.0 M5.95 8.15 Q5.3 8.4 3.5 9.55 L-4.0 1.85 Q-4.15 4.75 -3.45 6.95 L-3.45 7.85 -5.4 9.3 -6.95 10.4 Q-7.3 10.4 -7.5 7.55 L-8.2 -6.55 Q-4.9 -8.55 -4.1 -8.55 -3.85 -8.55 -2.0 -5.25 0.15 -1.55 1.05 -0.6 L2.65 -11.4 5.95 -12.6 5.95 8.15 M-47.05 -9.15 L-48.6 12.75 -52.65 13.6 -56.25 0.45 Q-56.5 0.4 -56.6 0.65 -57.95 6.6 -59.25 10.8 -60.8 10.9 -62.95 10.2 L-66.9 -7.2 -64.4 -8.35 -63.35 -2.85 -62.05 2.65 Q-60.75 -1.8 -59.15 -8.55 L-57.95 -8.9 -57.05 -8.8 -56.1 -8.75 -55.3 -8.85 -52.75 3.15 Q-51.8 0.5 -51.1 -2.95 L-49.9 -9.15 -47.05 -9.15 M-65.85 0.1 Q-65.85 2.85 -67.3 4.8 -68.6 6.45 -69.95 6.45 -72.0 6.45 -73.6 4.85 -75.65 2.85 -75.65 -0.7 -75.65 -3.6 -73.75 -5.2 -72.3 -6.45 -70.65 -6.45 -68.3 -6.45 -66.95 -4.25 -65.85 -2.4 -65.85 0.1 M-75.4 9.2 L-84.25 10.85 -86.35 10.85 -85.15 -8.5 -81.1 -9.35 -80.7 -3.8 -80.7 5.45 -78.1 5.55 -75.4 5.45 -75.4 9.2 M-13.65 -6.85 L-11.4 -2.9 Q-9.95 0.35 -7.6 6.85 L-10.3 8.9 Q-12.0 10.2 -12.2 10.2 -12.45 10.2 -13.3 8.15 L-14.7 5.0 -17.35 5.35 Q-18.9 5.6 -19.6 6.2 -19.9 6.45 -20.4 7.85 -20.9 9.1 -21.1 9.1 L-22.2 8.65 Q-23.15 8.15 -23.6 8.0 L-24.05 8.85 Q-25.1 10.8 -26.1 11.15 L-30.45 12.0 -33.35 12.3 -34.55 12.3 -34.55 -5.1 -34.2 -11.8 -32.9 -11.65 -30.5 -11.8 -30.35 -8.8 Q-29.85 -9.4 -28.0 -9.6 L-25.25 -9.6 Q-24.5 -9.6 -23.85 -8.25 -23.25 -7.05 -23.25 -6.2 -23.25 -2.4 -26.9 0.35 -23.1 2.25 -23.1 5.85 L-23.15 6.55 -17.25 -9.65 -15.95 -10.1 Q-15.6 -10.1 -13.65 -6.85" fill="#000000" fill-rule="evenodd" stroke="none"/>
    <path d="M85.15 7.95 L82.3 8.05 81.6 1.75 79.1 2.6 76.6 3.6 77.45 9.65 73.2 11.35 72.6 -5.45 71.05 -4.75 Q69.35 -3.75 68.8 -2.65 L70.15 7.85 Q67.15 8.8 65.25 9.8 L64.7 -1.25 64.15 -1.5 63.0 -1.05 62.05 -0.6 61.2 -0.35 60.3 -0.05 59.55 -0.05 Q59.2 5.0 55.55 7.7 52.75 9.75 49.5 9.75 L47.85 9.75 46.2 9.7 46.0 -6.0 45.65 -7.15 47.25 -7.65 49.4 -8.05 49.55 -6.4 Q49.65 -5.35 49.95 -5.35 L51.7 -6.0 53.45 -6.7 Q55.5 -6.7 57.1 -5.7 58.85 -4.65 59.35 -2.75 L59.25 -5.75 71.65 -10.2 73.1 -10.2 73.35 -8.2 74.5 -8.5 76.55 -9.2 Q77.0 -4.9 76.9 -2.55 L76.9 -2.45 77.25 -2.35 79.35 -3.25 82.55 -4.75 82.5 -7.75 82.4 -11.35 Q84.3 -10.45 86.0 -10.25 L86.0 -3.0 86.2 0.55 86.35 4.1 86.35 8.05 85.15 7.95 M42.7 -13.6 Q43.55 -13.6 44.05 -12.75 44.5 -12.05 44.5 -11.15 44.5 -9.9 43.8 -9.05 43.2 -8.4 42.6 -8.4 41.85 -8.4 41.35 -9.3 40.9 -10.05 40.9 -10.9 40.9 -11.85 41.3 -12.6 41.85 -13.6 42.7 -13.6 M29.75 -8.8 L30.7 -8.75 31.5 -8.85 34.05 3.15 35.7 -2.95 36.9 -9.15 39.75 -9.15 38.2 12.75 34.15 13.6 30.55 0.45 Q30.3 0.4 30.2 0.65 28.85 6.6 27.55 10.8 L23.85 10.2 19.9 -7.2 22.4 -8.35 23.45 -2.85 24.75 2.65 27.65 -8.55 Q28.0 -8.9 28.85 -8.9 L29.75 -8.8 M42.3 -5.7 L44.3 -5.9 44.4 -2.95 44.1 4.5 43.8 11.85 42.25 11.7 40.3 11.55 39.9 11.85 40.8 -5.9 42.3 -5.7 M12.7 -6.0 L14.45 -6.7 Q16.5 -6.7 18.1 -5.7 20.55 -4.25 20.55 -1.1 20.55 4.75 16.55 7.7 13.75 9.75 10.5 9.75 L8.85 9.75 7.2 9.7 7.0 -6.0 6.65 -7.15 8.25 -7.65 10.4 -8.05 10.55 -6.4 Q10.65 -5.35 10.95 -5.35 11.2 -5.35 12.7 -6.0 M5.95 8.15 Q5.3 8.4 3.5 9.55 L-4.0 1.85 Q-4.15 4.75 -3.45 6.95 L-3.45 7.85 -5.4 9.3 -6.95 10.4 Q-7.3 10.4 -7.5 7.55 L-8.2 -6.55 Q-4.9 -8.55 -4.1 -8.55 -3.85 -8.55 -2.0 -5.25 0.15 -1.55 1.05 -0.6 L2.65 -11.4 5.95 -12.6 5.95 8.15 M-47.05 -9.15 L-48.6 12.75 -52.65 13.6 -56.25 0.45 Q-56.5 0.4 -56.6 0.65 -57.95 6.6 -59.25 10.8 -60.8 10.9 -62.95 10.2 L-66.9 -7.2 -64.4 -8.35 -63.35 -2.85 -62.05 2.65 Q-60.75 -1.8 -59.15 -8.55 L-57.95 -8.9 -57.05 -8.8 -56.1 -8.75 -55.3 -8.85 -52.75 3.15 Q-51.8 0.5 -51.1 -2.95 L-49.9 -9.15 -47.05 -9.15 M-65.85 0.1 Q-65.85 2.85 -67.3 4.8 -68.6 6.45 -69.95 6.45 -72.0 6.45 -73.6 4.85 -75.65 2.85 -75.65 -0.7 -75.65 -3.6 -73.75 -5.2 -72.3 -6.45 -70.65 -6.45 -68.3 -6.45 -66.95 -4.25 -65.85 -2.4 -65.85 0.1 M-75.4 9.2 L-84.25 10.85 -86.35 10.85 -85.15 -8.5 -81.1 -9.35 -80.7 -3.8 -80.7 5.45 -78.1 5.55 -75.4 5.45 -75.4 9.2 M-13.65 -6.85 L-11.4 -2.9 Q-9.95 0.35 -7.6 6.85 L-10.3 8.9 Q-12.0 10.2 -12.2 10.2 -12.45 10.2 -13.3 8.15 L-14.7 5.0 -17.35 5.35 Q-18.9 5.6 -19.6 6.2 -19.9 6.45 -20.4 7.85 -20.9 9.1 -21.1 9.1 L-22.2 8.65 Q-23.15 8.15 -23.6 8.0 L-24.05 8.85 Q-25.1 10.8 -26.1 11.15 L-30.45 12.0 -33.35 12.3 -34.55 12.3 -34.55 -5.1 -34.2 -11.8 -32.9 -11.65 -30.5 -11.8 -30.35 -8.8 Q-29.85 -9.4 -28.0 -9.6 L-25.25 -9.6 Q-24.5 -9.6 -23.85 -8.25 -23.25 -7.05 -23.25 -6.2 -23.25 -2.4 -26.9 0.35 -23.1 2.25 -23.1 5.85 L-23.15 6.55 -17.25 -9.65 -15.95 -10.1 Q-15.6 -10.1 -13.65 -6.85" fill="none" stroke="#000000" stroke-linecap="round" stroke-linejoin="round" stroke-width="4.0"/>
    <path d="M85.15 7.95 L82.3 8.05 81.6 1.75 79.1 2.6 76.6 3.6 77.45 9.65 73.2 11.35 72.6 -5.45 71.05 -4.75 Q69.35 -3.75 68.8 -2.65 L70.15 7.85 Q67.15 8.8 65.25 9.8 L64.7 -1.25 64.15 -1.5 63.0 -1.05 62.05 -0.6 61.2 -0.35 60.3 -0.05 59.55 -0.05 Q59.2 5.0 55.55 7.7 52.75 9.75 49.5 9.75 L47.85 9.75 46.2 9.7 46.0 -6.0 45.65 -7.15 47.25 -7.65 49.4 -8.05 49.55 -6.4 Q49.65 -5.35 49.95 -5.35 L51.7 -6.0 53.45 -6.7 Q55.5 -6.7 57.1 -5.7 58.85 -4.65 59.35 -2.75 L59.25 -5.75 71.65 -10.2 73.1 -10.2 73.35 -8.2 74.5 -8.5 76.55 -9.2 Q77.0 -4.9 76.9 -2.55 L76.9 -2.45 77.25 -2.35 79.35 -3.25 82.55 -4.75 82.5 -7.75 82.4 -11.35 Q84.3 -10.45 86.0 -10.25 L86.0 -3.0 86.2 0.55 86.35 4.1 86.35 8.05 85.15 7.95 M42.7 -13.6 Q43.55 -13.6 44.05 -12.75 44.5 -12.05 44.5 -11.15 44.5 -9.9 43.8 -9.05 43.2 -8.4 42.6 -8.4 41.85 -8.4 41.35 -9.3 40.9 -10.05 40.9 -10.9 40.9 -11.85 41.3 -12.6 41.85 -13.6 42.7 -13.6 M31.5 -8.85 L34.05 3.15 35.7 -2.95 36.9 -9.15 39.75 -9.15 38.2 12.75 34.15 13.6 30.55 0.45 Q30.3 0.4 30.2 0.65 28.85 6.6 27.55 10.8 L23.85 10.2 19.9 -7.2 22.4 -8.35 23.45 -2.85 24.75 2.65 27.65 -8.55 Q28.0 -8.9 28.85 -8.9 L29.75 -8.8 30.7 -8.75 31.5 -8.85 M42.3 -5.7 L44.3 -5.9 44.4 -2.95 44.1 4.5 43.8 11.85 42.25 11.7 40.3 11.55 39.9 11.85 40.8 -5.9 42.3 -5.7 M12.7 -6.0 L14.45 -6.7 Q16.5 -6.7 18.1 -5.7 20.55 -4.25 20.55 -1.1 20.55 4.75 16.55 7.7 13.75 9.75 10.5 9.75 L8.85 9.75 7.2 9.7 7.0 -6.0 6.65 -7.15 8.25 -7.65 10.4 -8.05 10.55 -6.4 Q10.65 -5.35 10.95 -5.35 11.2 -5.35 12.7 -6.0 M12.15 -0.6 L12.6 2.1 13.05 4.8 15.15 2.9 Q16.6 1.25 16.6 0.0 16.6 -1.0 15.9 -1.35 L14.7 -1.5 13.45 -1.2 12.15 -0.6 M5.95 8.15 Q5.3 8.4 3.5 9.55 L-4.0 1.85 Q-4.15 4.75 -3.45 6.95 L-3.45 7.85 -5.4 9.3 -6.95 10.4 Q-7.3 10.4 -7.5 7.55 L-8.2 -6.55 Q-4.9 -8.55 -4.1 -8.55 -3.85 -8.55 -2.0 -5.25 0.15 -1.55 1.05 -0.6 L2.65 -11.4 5.95 -12.6 5.95 8.15 M51.15 -0.6 L51.6 2.1 52.05 4.8 54.15 2.9 Q55.6 1.25 55.6 0.0 55.6 -1.0 54.9 -1.35 L53.7 -1.5 52.45 -1.2 51.15 -0.6 M-47.05 -9.15 L-48.6 12.75 -52.65 13.6 -56.25 0.45 Q-56.5 0.4 -56.6 0.65 -57.95 6.6 -59.25 10.8 -60.8 10.9 -62.95 10.2 L-66.9 -7.2 -64.4 -8.35 -63.35 -2.85 -62.05 2.65 Q-60.75 -1.8 -59.15 -8.55 L-57.95 -8.9 -57.05 -8.8 -56.1 -8.75 -55.3 -8.85 -52.75 3.15 Q-51.8 0.5 -51.1 -2.95 L-49.9 -9.15 -47.05 -9.15 M-70.65 -6.45 Q-68.3 -6.45 -66.95 -4.25 -65.85 -2.4 -65.85 0.1 -65.85 2.85 -67.3 4.8 -68.6 6.45 -69.95 6.45 -72.0 6.45 -73.6 4.85 -75.65 2.85 -75.65 -0.7 -75.65 -3.6 -73.75 -5.2 -72.3 -6.45 -70.65 -6.45 M-71.5 -2.05 L-72.1 1.5 -69.8 2.4 -69.5 0.55 -69.3 -1.35 -70.4 -1.7 -71.5 -2.05 M-75.4 9.2 L-84.25 10.85 -86.35 10.85 -85.15 -8.5 -81.1 -9.35 -80.7 -3.8 -80.7 5.45 -78.1 5.55 -75.4 5.45 -75.4 9.2 M-13.65 -6.85 L-11.4 -2.9 Q-9.95 0.35 -7.6 6.85 L-10.3 8.9 Q-12.0 10.2 -12.2 10.2 -12.45 10.2 -13.3 8.15 L-14.7 5.0 -17.35 5.35 Q-18.9 5.6 -19.6 6.2 -19.9 6.45 -20.4 7.85 -20.9 9.1 -21.1 9.1 L-22.2 8.65 Q-23.15 8.15 -23.6 8.0 L-24.05 8.85 Q-25.1 10.8 -26.1 11.15 L-30.45 12.0 -33.35 12.3 -34.55 12.3 -34.55 -5.1 -34.2 -11.8 -32.9 -11.65 -30.5 -11.8 -30.35 -8.8 Q-29.85 -9.4 -28.0 -9.6 L-25.25 -9.6 Q-24.5 -9.6 -23.85 -8.25 -23.25 -7.05 -23.25 -6.2 -23.25 -2.4 -26.9 0.35 -23.1 2.25 -23.1 5.85 L-23.15 6.55 -17.25 -9.65 -15.95 -10.1 Q-15.6 -10.1 -13.65 -6.85 M-27.4 -5.45 L-27.75 -5.75 -28.25 -6.05 Q-29.2 -6.05 -30.3 -5.2 L-30.3 -2.25 -28.5 -3.25 Q-27.5 -4.1 -27.4 -5.45 M-17.15 0.0 L-14.8 -0.25 Q-15.35 -2.05 -16.25 -3.5 L-17.15 0.0 M-29.55 5.2 L-31.8 5.2 -32.0 5.9 -31.75 7.25 Q-31.45 8.2 -31.0 8.2 L-29.9 7.55 Q-28.9 6.8 -28.6 6.1 -29.2 5.2 -29.55 5.2" fill="#ffff00" fill-rule="evenodd" stroke="none"/>
  </g>
</svg>
