<?xml version="1.0" encoding="UTF-8" standalone="no"?>
<svg xmlns:xlink="http://www.w3.org/1999/xlink" height="33.9px" width="159.4px" xmlns="http://www.w3.org/2000/svg">
  <g transform="matrix(1.0, 0.0, 0.0, 1.0, 79.7, 16.95)">
    <path d="M76.65 8.75 L74.05 8.85 73.45 1.95 71.2 2.85 68.95 3.95 69.7 10.6 65.9 12.5 65.35 -6.0 63.95 -5.2 Q62.4 -4.1 61.9 -2.9 L63.15 8.65 Q60.45 9.7 58.75 10.8 L58.25 -1.35 57.75 -1.65 Q57.4 -1.65 56.7 -1.15 56.05 -0.65 55.85 -0.65 L55.1 -0.4 54.25 -0.05 53.6 -0.05 Q53.3 5.5 50.0 8.45 47.5 10.75 44.55 10.75 L43.05 10.75 41.6 10.65 41.4 -6.6 41.1 -7.85 42.55 -8.4 44.45 -8.85 44.6 -7.05 Q44.7 -5.9 44.95 -5.9 45.2 -5.9 46.55 -6.6 L48.1 -7.35 Q49.95 -7.35 51.4 -6.25 52.95 -5.1 53.4 -3.0 L53.35 -6.3 64.5 -11.2 65.8 -11.2 66.0 -9.0 67.05 -9.35 68.9 -10.1 Q69.3 -5.4 69.2 -2.8 L69.2 -2.7 69.55 -2.6 Q69.65 -2.6 71.4 -3.55 L74.3 -5.2 74.25 -8.5 74.15 -12.5 Q75.85 -11.5 77.4 -11.25 L77.4 -3.3 77.6 0.6 77.7 4.5 77.7 8.85 76.65 8.75 M38.45 -14.95 Q39.2 -14.95 39.65 -14.0 40.05 -13.25 40.05 -12.25 40.05 -10.9 39.4 -9.95 38.9 -9.25 38.35 -9.25 37.65 -9.25 37.2 -10.25 36.8 -11.05 36.8 -12.0 36.8 -13.05 37.15 -13.85 37.65 -14.95 38.45 -14.95 M26.8 -9.7 L27.65 -9.6 28.35 -9.75 30.65 3.45 Q31.5 0.55 32.15 -3.25 L33.2 -10.05 35.8 -10.05 34.4 14.05 30.75 14.95 27.5 0.5 Q27.25 0.45 27.2 0.7 L24.8 11.9 Q23.4 12.0 21.45 11.2 19.2 -0.25 17.9 -7.9 L20.15 -9.2 21.1 -3.15 Q21.65 0.15 22.3 2.9 L24.9 -9.4 Q25.2 -9.8 25.95 -9.8 L26.8 -9.7 M39.85 -6.5 L39.95 -3.25 39.7 4.95 39.4 13.05 38.05 12.85 36.25 12.7 35.9 13.05 36.7 -6.5 38.05 -6.25 39.85 -6.5 M11.45 -6.6 Q12.8 -7.35 13.0 -7.35 14.85 -7.35 16.3 -6.25 18.5 -4.65 18.5 -1.2 18.5 5.25 14.9 8.45 12.4 10.75 9.45 10.75 L7.95 10.75 6.5 10.65 6.3 -6.6 6.0 -7.85 7.45 -8.4 9.35 -8.85 9.5 -7.05 Q9.6 -5.9 9.85 -5.9 10.1 -5.9 11.45 -6.6 M5.35 8.95 L3.15 10.5 -3.6 2.05 Q-3.75 5.25 -3.1 7.65 L-3.1 8.65 -4.85 10.25 Q-6.05 11.45 -6.25 11.45 -6.55 11.45 -6.75 8.3 L-7.4 -7.2 Q-4.4 -9.4 -3.7 -9.4 L-1.8 -5.75 0.95 -0.65 2.4 -12.55 5.35 -13.85 5.35 8.95 M-42.35 -10.05 L-43.75 14.05 -47.4 14.95 -50.6 0.5 Q-50.85 0.45 -50.95 0.7 -52.15 7.25 -53.3 11.9 -54.7 12.0 -56.65 11.2 L-60.2 -7.9 -57.95 -9.2 -57.0 -3.15 -55.85 2.9 Q-54.65 -2.0 -53.25 -9.4 -52.9 -9.8 -52.15 -9.8 L-51.35 -9.7 -50.5 -9.6 -49.75 -9.75 -47.45 3.45 Q-46.6 0.55 -46.0 -3.25 L-44.9 -10.05 -42.35 -10.05 M-59.25 0.1 Q-59.25 3.15 -60.55 5.3 -61.75 7.1 -62.95 7.1 -64.8 7.1 -66.25 5.35 -68.1 3.15 -68.1 -0.75 -68.1 -3.95 -66.35 -5.7 -65.05 -7.1 -63.6 -7.1 -61.45 -7.1 -60.25 -4.65 -59.25 -2.65 -59.25 0.1 M-67.85 10.1 L-75.8 11.95 -77.7 11.95 -76.65 -9.35 -73.0 -10.3 Q-72.65 -6.4 -72.65 -4.2 L-72.65 6.0 -70.3 6.1 -67.85 6.0 -67.85 10.1 M-12.3 -7.55 L-10.25 -3.2 Q-8.95 0.4 -6.85 7.55 L-9.25 9.8 -11.0 11.2 -11.95 8.95 -13.25 5.5 -15.6 5.9 Q-17.0 6.15 -17.65 6.8 L-18.35 8.65 Q-18.8 10.0 -19.0 10.0 L-20.0 9.5 -21.25 8.8 -21.65 9.75 Q-22.6 11.9 -23.5 12.25 L-27.4 13.2 -30.0 13.55 -31.1 13.55 -31.1 -5.6 -30.8 -13.0 -29.6 -12.8 -27.45 -13.0 -27.3 -9.7 Q-26.85 -10.35 -25.2 -10.55 L-22.7 -10.55 Q-22.05 -10.55 -21.45 -9.05 -20.9 -7.75 -20.9 -6.8 -20.9 -2.65 -24.2 0.4 -20.8 2.5 -20.8 6.45 L-20.85 7.2 -15.5 -10.6 -14.35 -11.1 Q-14.05 -11.1 -12.3 -7.55" fill="#000000" fill-rule="evenodd" stroke="none"/>
    <path d="M76.65 8.75 L74.05 8.85 73.45 1.95 71.2 2.85 68.95 3.95 69.7 10.6 65.9 12.5 65.35 -6.0 63.95 -5.2 Q62.4 -4.1 61.9 -2.9 L63.15 8.65 Q60.45 9.7 58.75 10.8 L58.25 -1.35 57.75 -1.65 Q57.4 -1.65 56.7 -1.15 56.05 -0.65 55.85 -0.65 L55.1 -0.4 54.25 -0.05 53.6 -0.05 Q53.3 5.5 50.0 8.45 47.5 10.75 44.55 10.75 L43.05 10.75 41.6 10.65 41.4 -6.6 41.1 -7.85 42.55 -8.4 44.45 -8.85 44.6 -7.05 Q44.7 -5.9 44.95 -5.9 45.2 -5.9 46.55 -6.6 L48.1 -7.35 Q49.95 -7.35 51.4 -6.25 52.95 -5.1 53.4 -3.0 L53.35 -6.3 64.5 -11.2 65.8 -11.2 66.0 -9.0 67.05 -9.35 68.9 -10.1 Q69.3 -5.4 69.2 -2.8 L69.2 -2.7 69.55 -2.6 Q69.65 -2.6 71.4 -3.55 L74.3 -5.2 74.25 -8.5 74.15 -12.5 Q75.85 -11.5 77.4 -11.25 L77.4 -3.3 77.6 0.6 77.7 4.5 77.7 8.85 76.65 8.75 M38.45 -14.95 Q39.2 -14.95 39.65 -14.0 40.05 -13.25 40.05 -12.25 40.05 -10.9 39.4 -9.95 38.9 -9.25 38.35 -9.25 37.65 -9.25 37.2 -10.25 36.8 -11.05 36.8 -12.0 36.8 -13.05 37.15 -13.85 37.65 -14.95 38.45 -14.95 M26.8 -9.7 L27.65 -9.6 28.35 -9.75 30.65 3.45 Q31.5 0.55 32.15 -3.25 L33.2 -10.05 35.8 -10.05 34.4 14.05 30.75 14.95 27.5 0.5 Q27.25 0.45 27.2 0.7 L24.8 11.9 Q23.4 12.0 21.45 11.2 19.2 -0.25 17.9 -7.9 L20.15 -9.2 21.1 -3.15 Q21.65 0.15 22.3 2.9 L24.9 -9.4 Q25.2 -9.8 25.95 -9.8 L26.8 -9.7 M39.85 -6.5 L39.95 -3.25 39.7 4.95 39.4 13.05 38.05 12.85 36.25 12.7 35.9 13.05 36.7 -6.5 38.05 -6.25 39.85 -6.5 M11.45 -6.6 Q12.8 -7.35 13.0 -7.35 14.85 -7.35 16.3 -6.25 18.5 -4.65 18.5 -1.2 18.5 5.25 14.9 8.45 12.4 10.75 9.45 10.75 L7.95 10.75 6.5 10.65 6.3 -6.6 6.0 -7.85 7.45 -8.4 9.35 -8.85 9.5 -7.05 Q9.6 -5.9 9.85 -5.9 10.1 -5.9 11.45 -6.6 M5.35 8.95 L3.15 10.5 -3.6 2.05 Q-3.75 5.25 -3.1 7.65 L-3.1 8.65 -4.85 10.25 Q-6.05 11.45 -6.25 11.45 -6.55 11.45 -6.75 8.3 L-7.4 -7.2 Q-4.4 -9.4 -3.7 -9.4 L-1.8 -5.75 0.95 -0.65 2.4 -12.55 5.35 -13.85 5.35 8.95 M-42.35 -10.05 L-43.75 14.05 -47.4 14.95 -50.6 0.5 Q-50.85 0.45 -50.95 0.7 -52.15 7.25 -53.3 11.9 -54.7 12.0 -56.65 11.2 L-60.2 -7.9 -57.95 -9.2 -57.0 -3.15 -55.85 2.9 Q-54.65 -2.0 -53.25 -9.4 -52.9 -9.8 -52.15 -9.8 L-51.35 -9.7 -50.5 -9.6 -49.75 -9.75 -47.45 3.45 Q-46.6 0.55 -46.0 -3.25 L-44.9 -10.05 -42.35 -10.05 M-59.25 0.1 Q-59.25 3.15 -60.55 5.3 -61.75 7.1 -62.95 7.1 -64.8 7.1 -66.25 5.35 -68.1 3.15 -68.1 -0.75 -68.1 -3.95 -66.35 -5.7 -65.05 -7.1 -63.6 -7.1 -61.45 -7.1 -60.25 -4.65 -59.25 -2.65 -59.25 0.1 M-67.85 10.1 L-75.8 11.95 -77.7 11.95 -76.65 -9.35 -73.0 -10.3 Q-72.65 -6.4 -72.65 -4.2 L-72.65 6.0 -70.3 6.1 -67.85 6.0 -67.85 10.1 M-12.3 -7.55 L-10.25 -3.2 Q-8.95 0.4 -6.85 7.55 L-9.25 9.8 -11.0 11.2 -11.95 8.95 -13.25 5.5 -15.6 5.9 Q-17.0 6.15 -17.65 6.8 L-18.35 8.65 Q-18.8 10.0 -19.0 10.0 L-20.0 9.5 -21.25 8.8 -21.65 9.75 Q-22.6 11.9 -23.5 12.25 L-27.4 13.2 -30.0 13.55 -31.1 13.55 -31.1 -5.6 -30.8 -13.0 -29.6 -12.8 -27.45 -13.0 -27.3 -9.7 Q-26.85 -10.35 -25.2 -10.55 L-22.7 -10.55 Q-22.05 -10.55 -21.45 -9.05 -20.9 -7.75 -20.9 -6.8 -20.9 -2.65 -24.2 0.4 -20.8 2.5 -20.8 6.45 L-20.85 7.2 -15.5 -10.6 -14.35 -11.1 Q-14.05 -11.1 -12.3 -7.55" fill="none" stroke="#000000" stroke-linecap="round" stroke-linejoin="round" stroke-width="4.0"/>
    <path d="M76.65 8.75 L74.05 8.85 73.45 1.95 71.2 2.85 68.95 3.95 69.7 10.6 65.9 12.5 65.35 -6.0 63.95 -5.2 Q62.4 -4.1 61.9 -2.9 L63.15 8.65 Q60.45 9.7 58.75 10.8 L58.25 -1.35 57.75 -1.65 Q57.4 -1.65 56.7 -1.15 56.05 -0.65 55.85 -0.65 L55.1 -0.4 54.25 -0.05 53.6 -0.05 Q53.3 5.5 50.0 8.45 47.5 10.75 44.55 10.75 L43.05 10.75 41.6 10.65 41.4 -6.6 41.1 -7.85 42.55 -8.4 44.45 -8.85 44.6 -7.05 Q44.7 -5.9 44.95 -5.9 45.2 -5.9 46.55 -6.6 L48.1 -7.35 Q49.95 -7.35 51.4 -6.25 52.95 -5.1 53.4 -3.0 L53.35 -6.3 64.5 -11.2 65.8 -11.2 66.0 -9.0 67.05 -9.35 68.9 -10.1 Q69.3 -5.4 69.2 -2.8 L69.2 -2.7 69.55 -2.6 Q69.65 -2.6 71.4 -3.55 L74.3 -5.2 74.25 -8.5 74.15 -12.5 Q75.85 -11.5 77.4 -11.25 L77.4 -3.3 77.6 0.6 77.7 4.5 77.7 8.85 76.65 8.75 M38.45 -14.95 Q39.2 -14.95 39.65 -14.0 40.05 -13.25 40.05 -12.25 40.05 -10.9 39.4 -9.95 38.9 -9.25 38.35 -9.25 37.65 -9.25 37.2 -10.25 36.8 -11.05 36.8 -12.0 36.8 -13.05 37.15 -13.85 37.65 -14.95 38.45 -14.95 M28.35 -9.75 L30.65 3.45 Q31.5 0.55 32.15 -3.25 L33.2 -10.05 35.8 -10.05 34.4 14.05 30.75 14.95 27.5 0.5 Q27.25 0.45 27.2 0.7 L24.8 11.9 Q23.4 12.0 21.45 11.2 19.2 -0.25 17.9 -7.9 L20.15 -9.2 21.1 -3.15 Q21.65 0.15 22.3 2.9 L24.9 -9.4 Q25.2 -9.8 25.95 -9.8 L26.8 -9.7 27.65 -9.6 28.35 -9.75 M39.85 -6.5 L39.95 -3.25 39.7 4.95 39.4 13.05 38.05 12.85 36.25 12.7 35.9 13.05 36.7 -6.5 38.05 -6.25 39.85 -6.5 M10.95 -0.65 L11.35 2.3 11.75 5.3 13.65 3.2 Q14.95 1.4 14.95 0.0 14.95 -1.1 14.3 -1.5 L13.25 -1.65 12.1 -1.3 10.95 -0.65 M11.45 -6.6 Q12.8 -7.35 13.0 -7.35 14.85 -7.35 16.3 -6.25 18.5 -4.65 18.5 -1.2 18.5 5.25 14.9 8.45 12.4 10.75 9.45 10.75 L7.95 10.75 6.5 10.65 6.3 -6.6 6.0 -7.85 7.45 -8.4 9.35 -8.85 9.5 -7.05 Q9.6 -5.9 9.85 -5.9 10.1 -5.9 11.45 -6.6 M5.35 8.95 L3.15 10.5 -3.6 2.05 Q-3.75 5.25 -3.1 7.65 L-3.1 8.65 -4.85 10.25 Q-6.05 11.45 -6.25 11.45 -6.55 11.45 -6.75 8.3 L-7.4 -7.2 Q-4.4 -9.4 -3.7 -9.4 L-1.8 -5.75 0.95 -0.65 2.4 -12.55 5.35 -13.85 5.35 8.95 M47.2 -1.3 L46.05 -0.65 46.45 2.3 46.85 5.3 48.75 3.2 Q50.05 1.4 50.05 0.0 50.05 -1.1 49.4 -1.5 L48.35 -1.65 47.2 -1.3 M-42.35 -10.05 L-43.75 14.05 -47.4 14.95 -50.6 0.5 Q-50.85 0.45 -50.95 0.7 -52.15 7.25 -53.3 11.9 -54.7 12.0 -56.65 11.2 L-60.2 -7.9 -57.95 -9.2 -57.0 -3.15 -55.85 2.9 Q-54.65 -2.0 -53.25 -9.4 -52.9 -9.8 -52.15 -9.8 L-51.35 -9.7 -50.5 -9.6 -49.75 -9.75 -47.45 3.45 Q-46.6 0.55 -46.0 -3.25 L-44.9 -10.05 -42.35 -10.05 M-64.35 -2.25 L-64.9 1.65 -62.8 2.65 -62.55 0.6 -62.35 -1.5 -63.35 -1.85 -64.35 -2.25 M-60.25 -4.65 Q-59.25 -2.65 -59.25 0.1 -59.25 3.15 -60.55 5.3 -61.75 7.1 -62.95 7.1 -64.8 7.1 -66.25 5.35 -68.1 3.15 -68.1 -0.75 -68.1 -3.95 -66.35 -5.7 -65.05 -7.1 -63.6 -7.1 -61.45 -7.1 -60.25 -4.65 M-67.85 10.1 L-75.8 11.95 -77.7 11.95 -76.65 -9.35 -73.0 -10.3 Q-72.65 -6.4 -72.65 -4.2 L-72.65 6.0 -70.3 6.1 -67.85 6.0 -67.85 10.1 M-12.3 -7.55 L-10.25 -3.2 Q-8.95 0.4 -6.85 7.55 L-9.25 9.8 -11.0 11.2 -11.95 8.95 -13.25 5.5 -15.6 5.9 Q-17.0 6.15 -17.65 6.8 L-18.35 8.65 Q-18.8 10.0 -19.0 10.0 L-20.0 9.5 -21.25 8.8 -21.65 9.75 Q-22.6 11.9 -23.5 12.25 L-27.4 13.2 -30.0 13.55 -31.1 13.55 -31.1 -5.6 -30.8 -13.0 -29.6 -12.8 -27.45 -13.0 -27.3 -9.7 Q-26.85 -10.35 -25.2 -10.55 L-22.7 -10.55 Q-22.05 -10.55 -21.45 -9.05 -20.9 -7.75 -20.9 -6.8 -20.9 -2.65 -24.2 0.4 -20.8 2.5 -20.8 6.45 L-20.85 7.2 -15.5 -10.6 -14.35 -11.1 Q-14.05 -11.1 -12.3 -7.55 M-24.65 -6.0 L-24.95 -6.3 -25.4 -6.65 Q-26.3 -6.65 -27.25 -5.7 L-27.25 -2.45 -25.65 -3.55 Q-24.75 -4.5 -24.65 -6.0 M-15.45 0.0 L-13.3 -0.25 Q-13.8 -2.25 -14.6 -3.85 L-15.45 0.0 M-26.6 5.7 L-28.6 5.7 -28.8 6.5 -28.55 8.0 Q-28.3 9.0 -27.9 9.0 L-26.9 8.3 Q-26.0 7.5 -25.75 6.7 -26.3 5.7 -26.6 5.7" fill="#ffff00" fill-rule="evenodd" stroke="none"/>
  </g>
</svg>
