<?xml version="1.0" encoding="UTF-8" standalone="no"?>
<svg xmlns:xlink="http://www.w3.org/1999/xlink" height="31.2px" width="301.05px" xmlns="http://www.w3.org/2000/svg">
  <g transform="matrix(1.0, 0.0, 0.0, 1.0, 150.5, 15.6)">
    <path d="M-31.5 -8.85 L-31.1 -3.3 -31.1 5.95 -28.5 6.05 -25.8 5.95 -25.8 9.7 -34.65 11.35 -36.75 11.35 -35.55 -8.0 -31.5 -8.85 M-38.3 -6.5 L-45.0 -5.15 -45.0 -3.6 -44.65 -3.1 -44.1 -2.9 -41.6 -3.35 -37.05 -4.25 -37.1 -1.1 -37.05 0.6 -43.25 2.25 -43.25 4.05 Q-43.0 4.5 -42.75 4.5 L-40.8 3.95 -38.85 3.45 -37.6 3.45 -37.6 6.95 -46.65 10.55 -47.6 0.55 -48.2 -7.75 -48.2 -9.7 -38.2 -9.7 -38.3 -6.5 M-51.85 -7.25 L-48.75 -6.15 -49.4 -4.35 -49.65 -2.45 -50.2 -2.45 -52.45 -2.95 -54.85 -3.55 -56.05 -3.5 -57.3 -2.55 Q-56.85 -1.85 -56.0 -1.65 L-53.65 -1.5 Q-51.4 -1.3 -49.85 -0.45 -47.9 0.7 -47.9 2.8 L-48.2 4.3 -48.85 5.75 Q-50.9 9.4 -55.65 9.4 L-58.6 9.2 Q-60.35 8.85 -61.45 7.9 L-60.35 5.25 -57.65 6.0 -55.8 6.35 Q-54.85 6.35 -53.7 5.4 -52.55 4.4 -52.35 3.5 -53.45 1.65 -55.85 1.65 L-56.65 1.65 -57.5 1.65 Q-59.3 1.65 -60.2 0.75 L-60.75 -0.45 -60.9 -1.75 Q-60.9 -7.4 -54.05 -7.4 L-51.85 -7.25 M10.35 -9.7 L10.85 -5.35 Q9.1 -4.7 8.3 -4.25 6.6 -3.25 6.05 -2.15 L7.4 8.35 Q4.4 9.3 2.5 10.3 L1.95 -0.75 1.4 -1.0 0.25 -0.55 Q-0.5 -0.1 -0.7 -0.1 L-1.55 0.15 -2.45 0.45 -3.5 0.45 -3.4 -1.5 -3.5 -5.25 8.9 -9.7 10.35 -9.7 M-3.4 -7.95 L-3.8 -2.9 -4.95 -2.9 Q-10.45 -2.9 -10.45 0.05 -10.45 3.25 -7.35 3.25 L-5.45 2.9 -2.9 2.15 -2.55 5.9 Q-3.35 7.0 -5.45 7.8 L-8.4 8.45 Q-10.35 8.45 -12.2 6.45 -14.4 4.05 -14.4 0.6 -14.4 -4.4 -11.1 -6.95 -8.65 -8.85 -5.65 -8.85 -4.6 -8.85 -3.4 -7.95 M-25.95 -9.7 L-15.95 -9.7 -16.05 -6.5 -22.75 -5.15 -22.75 -3.6 -22.4 -3.1 -21.85 -2.9 -19.35 -3.35 -14.8 -4.25 -14.85 -1.1 -14.8 0.6 -21.0 2.25 -21.0 4.05 -20.5 4.5 -18.55 3.95 -16.6 3.45 -15.35 3.45 -15.35 6.95 -24.4 10.55 -25.35 0.55 -25.95 -7.75 -25.95 -9.7 M50.25 -6.95 Q52.95 -8.55 53.65 -8.55 53.9 -8.55 55.75 -5.25 57.9 -1.55 58.8 -0.6 L60.4 -11.4 63.7 -12.6 63.7 8.15 Q63.05 8.4 61.25 9.55 L53.75 1.85 53.75 2.75 Q53.7 5.1 54.3 6.95 L54.3 7.85 Q53.8 8.15 52.35 9.3 L50.8 10.4 Q50.45 10.4 50.25 7.55 L49.55 -6.55 50.25 -6.95 M41.8 -10.1 Q42.15 -10.1 44.1 -6.85 L46.35 -2.9 50.15 6.85 47.45 8.9 45.55 10.2 Q45.3 10.2 44.45 8.15 L43.05 5.0 40.4 5.35 Q38.85 5.6 38.15 6.2 37.85 6.45 37.35 7.85 L36.65 9.1 35.55 8.65 34.15 8.0 33.7 8.85 Q32.65 10.8 31.65 11.15 L27.3 12.0 24.4 12.3 23.2 12.3 23.55 -11.8 24.85 -11.65 27.25 -11.8 27.25 -10.85 27.4 -8.8 Q27.9 -9.4 29.75 -9.6 L32.5 -9.6 Q33.25 -9.6 33.9 -8.25 34.5 -7.05 34.5 -6.2 34.5 -2.4 30.85 0.35 34.65 2.25 34.65 5.85 L34.6 6.55 40.5 -9.65 41.8 -10.1 M89.25 -8.85 L91.8 3.15 93.45 -2.95 94.65 -9.15 97.5 -9.15 95.95 12.75 91.9 13.6 88.3 0.45 Q88.05 0.4 87.95 0.65 86.6 6.6 85.3 10.8 83.75 10.9 81.6 10.2 L77.65 -7.2 80.15 -8.35 81.2 -2.85 Q81.8 0.15 82.5 2.65 L85.4 -8.55 Q85.75 -8.9 86.6 -8.9 L87.5 -8.8 88.45 -8.75 89.25 -8.85 M66.0 -7.65 L68.15 -8.05 68.3 -6.4 Q68.4 -5.35 68.7 -5.35 L70.45 -6.0 72.2 -6.7 Q74.25 -6.7 75.85 -5.7 78.3 -4.25 78.3 -1.1 78.3 4.75 74.3 7.7 71.5 9.75 68.25 9.75 L66.6 9.75 64.95 9.7 64.75 -6.0 64.4 -7.15 66.0 -7.65 M131.1 -8.2 L132.25 -8.5 134.3 -9.2 Q134.75 -4.9 134.65 -2.55 L134.65 -2.45 135.0 -2.35 137.1 -3.25 140.3 -4.75 140.25 -7.75 140.15 -11.35 Q142.05 -10.45 143.75 -10.25 L143.75 -3.0 143.95 0.55 144.1 4.1 144.1 8.05 142.9 7.95 140.05 8.05 139.35 1.75 136.85 2.6 134.35 3.6 135.2 9.65 130.95 11.35 130.35 -5.45 128.8 -4.75 Q127.1 -3.75 126.55 -2.65 L127.9 7.85 Q124.9 8.8 123.0 9.8 L122.45 -1.25 121.9 -1.5 120.75 -1.05 119.8 -0.6 118.95 -0.35 118.05 -0.05 117.3 -0.05 Q116.95 5.0 113.3 7.7 110.5 9.75 107.25 9.75 L105.6 9.75 103.95 9.7 103.75 -6.0 103.4 -7.15 105.0 -7.65 107.15 -8.05 107.3 -6.4 Q107.4 -5.35 107.7 -5.35 L109.45 -6.0 111.2 -6.7 Q113.25 -6.7 114.85 -5.7 116.6 -4.65 117.1 -2.75 L117.0 -5.75 129.4 -10.2 130.85 -10.2 131.1 -8.2 M101.8 -12.75 Q102.25 -12.05 102.25 -11.15 102.25 -9.9 101.55 -9.05 100.95 -8.4 100.35 -8.4 99.6 -8.4 99.1 -9.3 98.65 -10.05 98.65 -10.9 98.65 -11.85 99.05 -12.6 99.6 -13.6 100.45 -13.6 101.3 -13.6 101.8 -12.75 M100.05 -5.7 L102.05 -5.9 102.15 -2.95 101.85 4.5 101.55 11.85 100.0 11.7 98.05 11.55 97.65 11.85 98.55 -5.9 100.05 -5.7 M148.55 -5.25 L148.55 -1.4 145.0 -1.4 145.0 -5.25 148.55 -5.25 M148.55 3.25 L148.55 7.1 145.0 7.1 145.0 3.25 148.55 3.25 M-124.2 -9.7 L-114.2 -9.7 -114.3 -6.5 -121.0 -5.15 -121.0 -3.6 -120.65 -3.1 Q-120.45 -2.9 -120.1 -2.9 L-117.6 -3.35 -113.05 -4.25 -113.1 -1.1 -113.05 0.6 -119.25 2.25 -119.25 4.05 -118.75 4.5 -116.8 3.95 -114.85 3.45 -113.6 3.45 -113.6 6.95 -122.65 10.55 -123.6 0.55 -124.2 -7.75 -124.2 -9.7 M-129.75 -8.85 L-129.35 -3.3 -129.35 5.95 -126.75 6.05 -124.05 5.95 -124.05 9.7 -132.9 11.35 -135.0 11.35 -133.8 -8.0 -129.75 -8.85 M-144.65 -6.65 Q-143.7 -7.65 -141.95 -8.6 -140.0 -9.65 -138.8 -9.65 -135.0 -9.65 -135.0 -3.75 -135.0 0.65 -138.35 3.55 -141.0 5.8 -144.25 6.2 L-144.15 8.75 -143.7 11.35 Q-144.75 12.0 -145.35 12.0 L-147.1 12.0 -148.5 -5.4 -148.5 -8.25 -145.3 -9.1 -144.65 -6.65 M-110.85 9.6 L-111.95 9.15 -113.45 8.45 -107.0 -9.15 -105.7 -9.6 Q-105.35 -9.6 -103.4 -6.35 L-101.15 -2.4 Q-99.75 0.75 -97.45 7.05 L-96.75 5.25 -94.05 6.0 -92.2 6.35 Q-91.25 6.35 -90.1 5.4 -88.95 4.4 -88.75 3.5 -89.85 1.65 -92.25 1.65 L-93.05 1.65 -93.9 1.65 Q-95.7 1.65 -96.6 0.75 L-97.15 -0.45 -97.3 -1.75 Q-97.3 -7.4 -90.45 -7.4 L-88.25 -7.25 -85.15 -6.15 -85.8 -4.35 -86.05 -2.45 -86.6 -2.45 -88.85 -2.95 -91.25 -3.55 -92.45 -3.5 -93.7 -2.55 Q-93.25 -1.85 -92.4 -1.65 L-90.05 -1.5 Q-87.8 -1.3 -86.25 -0.45 -84.3 0.7 -84.3 2.8 L-84.6 4.3 -85.25 5.75 Q-87.3 9.4 -92.05 9.4 L-95.0 9.2 Q-96.75 8.85 -97.85 7.9 L-97.7 7.65 -100.05 9.4 -101.95 10.7 Q-102.2 10.7 -103.05 8.65 L-104.45 5.5 -107.1 5.85 Q-108.65 6.1 -109.35 6.7 -109.65 6.95 -110.15 8.35 -110.65 9.6 -110.85 9.6 M-74.7 -6.5 L-81.4 -5.15 -81.4 -3.6 -81.05 -3.1 Q-80.85 -2.9 -80.5 -2.9 L-78.0 -3.35 -73.45 -4.25 -73.5 -1.1 -73.45 0.6 -79.65 2.25 -79.65 4.05 -79.15 4.5 -77.2 3.95 -75.25 3.45 -74.0 3.45 -74.0 6.95 -83.05 10.55 -84.0 0.55 -84.6 -7.75 -84.6 -9.7 -74.6 -9.7 -74.7 -6.5" fill="#000000" fill-rule="evenodd" stroke="none"/>
    <path d="M-31.5 -8.85 L-31.1 -3.3 -31.1 5.95 -28.5 6.05 -25.8 5.95 -25.8 9.7 -34.65 11.35 -36.75 11.35 -35.55 -8.0 -31.5 -8.85 M-38.3 -6.5 L-45.0 -5.15 -45.0 -3.6 -44.65 -3.1 -44.1 -2.9 -41.6 -3.35 -37.05 -4.25 -37.1 -1.1 -37.05 0.6 -43.25 2.25 -43.25 4.05 Q-43.0 4.5 -42.75 4.5 L-40.8 3.95 -38.85 3.45 -37.6 3.45 -37.6 6.95 -46.65 10.55 -47.6 0.55 -48.2 -7.75 -48.2 -9.7 -38.2 -9.7 -38.3 -6.5 M-51.85 -7.25 L-48.75 -6.15 -49.4 -4.35 -49.65 -2.45 -50.2 -2.45 -52.45 -2.95 -54.85 -3.55 -56.05 -3.5 -57.3 -2.55 Q-56.85 -1.85 -56.0 -1.65 L-53.65 -1.5 Q-51.4 -1.3 -49.85 -0.45 -47.9 0.7 -47.9 2.8 L-48.2 4.3 -48.85 5.75 Q-50.9 9.4 -55.65 9.4 L-58.6 9.2 Q-60.35 8.85 -61.45 7.9 L-60.35 5.25 -57.65 6.0 -55.8 6.35 Q-54.85 6.35 -53.7 5.4 -52.55 4.4 -52.35 3.5 -53.45 1.65 -55.85 1.65 L-56.65 1.65 -57.5 1.65 Q-59.3 1.65 -60.2 0.75 L-60.75 -0.45 -60.9 -1.75 Q-60.9 -7.4 -54.05 -7.4 L-51.85 -7.25 M10.35 -9.7 L10.85 -5.35 Q9.1 -4.7 8.3 -4.25 6.6 -3.25 6.05 -2.15 L7.4 8.35 Q4.4 9.3 2.5 10.3 L1.95 -0.75 1.4 -1.0 0.25 -0.55 Q-0.5 -0.1 -0.7 -0.1 L-1.55 0.15 -2.45 0.45 -3.5 0.45 -3.4 -1.5 -3.5 -5.25 8.9 -9.7 10.35 -9.7 M-3.4 -7.95 L-3.8 -2.9 -4.95 -2.9 Q-10.45 -2.9 -10.45 0.05 -10.45 3.25 -7.35 3.25 L-5.45 2.9 -2.9 2.15 -2.55 5.9 Q-3.35 7.0 -5.45 7.8 L-8.4 8.45 Q-10.35 8.45 -12.2 6.45 -14.4 4.05 -14.4 0.6 -14.4 -4.4 -11.1 -6.95 -8.65 -8.85 -5.65 -8.85 -4.6 -8.85 -3.4 -7.95 M-25.95 -9.7 L-15.95 -9.7 -16.05 -6.5 -22.75 -5.15 -22.75 -3.6 -22.4 -3.1 -21.85 -2.9 -19.35 -3.35 -14.8 -4.25 -14.85 -1.1 -14.8 0.6 -21.0 2.25 -21.0 4.05 -20.5 4.5 -18.55 3.95 -16.6 3.45 -15.35 3.45 -15.35 6.95 -24.4 10.55 -25.35 0.55 -25.95 -7.75 -25.95 -9.7 M50.25 -6.95 Q52.95 -8.55 53.65 -8.55 53.9 -8.55 55.75 -5.25 57.9 -1.55 58.8 -0.6 L60.4 -11.4 63.7 -12.6 63.7 8.15 Q63.05 8.4 61.25 9.55 L53.75 1.85 53.75 2.75 Q53.7 5.1 54.3 6.95 L54.3 7.85 Q53.8 8.15 52.35 9.3 L50.8 10.4 Q50.45 10.4 50.25 7.55 L49.55 -6.55 50.25 -6.95 M41.8 -10.1 Q42.15 -10.1 44.1 -6.85 L46.35 -2.9 50.15 6.85 47.45 8.9 45.55 10.2 Q45.3 10.2 44.45 8.15 L43.05 5.0 40.4 5.35 Q38.85 5.6 38.15 6.2 37.85 6.45 37.35 7.85 L36.65 9.1 35.55 8.65 34.15 8.0 33.7 8.85 Q32.65 10.8 31.65 11.15 L27.3 12.0 24.4 12.3 23.2 12.3 23.55 -11.8 24.85 -11.65 27.25 -11.8 27.25 -10.85 27.4 -8.8 Q27.9 -9.4 29.75 -9.6 L32.5 -9.6 Q33.25 -9.6 33.9 -8.25 34.5 -7.05 34.5 -6.2 34.5 -2.4 30.85 0.35 34.65 2.25 34.65 5.85 L34.6 6.55 40.5 -9.65 41.8 -10.1 M89.25 -8.85 L91.8 3.15 93.45 -2.95 94.65 -9.15 97.5 -9.15 95.95 12.75 91.9 13.6 88.3 0.45 Q88.05 0.4 87.95 0.65 86.6 6.6 85.3 10.8 83.75 10.9 81.6 10.2 L77.65 -7.2 80.15 -8.35 81.2 -2.85 Q81.8 0.15 82.5 2.65 L85.4 -8.55 Q85.75 -8.9 86.6 -8.9 L87.5 -8.8 88.45 -8.75 89.25 -8.85 M66.0 -7.65 L68.15 -8.05 68.3 -6.4 Q68.4 -5.35 68.7 -5.35 L70.45 -6.0 72.2 -6.7 Q74.25 -6.7 75.85 -5.7 78.3 -4.25 78.3 -1.1 78.3 4.75 74.3 7.7 71.5 9.75 68.25 9.75 L66.6 9.75 64.95 9.7 64.75 -6.0 64.4 -7.15 66.0 -7.65 M131.1 -8.2 L132.25 -8.5 134.3 -9.2 Q134.75 -4.9 134.65 -2.55 L134.65 -2.45 135.0 -2.35 137.1 -3.25 140.3 -4.75 140.25 -7.75 140.15 -11.35 Q142.05 -10.45 143.75 -10.25 L143.75 -3.0 143.95 0.55 144.1 4.1 144.1 8.05 142.9 7.95 140.05 8.05 139.35 1.75 136.85 2.6 134.35 3.6 135.2 9.65 130.95 11.35 130.35 -5.45 128.8 -4.75 Q127.1 -3.75 126.55 -2.65 L127.9 7.85 Q124.9 8.8 123.0 9.8 L122.45 -1.25 121.9 -1.5 120.75 -1.05 119.8 -0.6 118.95 -0.35 118.05 -0.05 117.3 -0.05 Q116.95 5.0 113.3 7.7 110.5 9.75 107.25 9.75 L105.6 9.75 103.95 9.7 103.75 -6.0 103.4 -7.15 105.0 -7.65 107.15 -8.05 107.3 -6.4 Q107.4 -5.35 107.7 -5.35 L109.45 -6.0 111.2 -6.7 Q113.25 -6.7 114.85 -5.7 116.6 -4.65 117.1 -2.75 L117.0 -5.75 129.4 -10.2 130.85 -10.2 131.1 -8.2 M101.8 -12.75 Q102.25 -12.05 102.25 -11.15 102.25 -9.9 101.55 -9.05 100.95 -8.4 100.35 -8.4 99.6 -8.4 99.1 -9.3 98.65 -10.05 98.65 -10.9 98.65 -11.85 99.05 -12.6 99.6 -13.6 100.45 -13.6 101.3 -13.6 101.8 -12.75 M100.05 -5.7 L102.05 -5.9 102.15 -2.95 101.85 4.5 101.55 11.85 100.0 11.7 98.05 11.55 97.65 11.85 98.55 -5.9 100.05 -5.7 M148.55 -5.25 L148.55 -1.4 145.0 -1.4 145.0 -5.25 148.55 -5.25 M148.55 3.25 L148.55 7.1 145.0 7.1 145.0 3.25 148.55 3.25 M-124.2 -9.7 L-114.2 -9.7 -114.3 -6.5 -121.0 -5.15 -121.0 -3.6 -120.65 -3.1 Q-120.45 -2.9 -120.1 -2.9 L-117.6 -3.35 -113.05 -4.25 -113.1 -1.1 -113.05 0.6 -119.25 2.25 -119.25 4.05 -118.75 4.5 -116.8 3.95 -114.85 3.45 -113.6 3.45 -113.6 6.95 -122.65 10.55 -123.6 0.55 -124.2 -7.75 -124.2 -9.7 M-129.75 -8.85 L-129.35 -3.3 -129.35 5.95 -126.75 6.05 -124.05 5.95 -124.05 9.7 -132.9 11.35 -135.0 11.35 -133.8 -8.0 -129.75 -8.85 M-110.85 9.6 L-111.95 9.15 -113.45 8.45 -107.0 -9.15 -105.7 -9.6 Q-105.35 -9.6 -103.4 -6.35 L-101.15 -2.4 Q-99.75 0.75 -97.45 7.05 L-96.75 5.25 -94.05 6.0 -92.2 6.35 Q-91.25 6.35 -90.1 5.4 -88.95 4.4 -88.75 3.5 -89.85 1.65 -92.25 1.65 L-93.05 1.65 -93.9 1.65 Q-95.7 1.65 -96.6 0.75 L-97.15 -0.45 -97.3 -1.75 Q-97.3 -7.4 -90.45 -7.4 L-88.25 -7.25 -85.15 -6.15 -85.8 -4.35 -86.05 -2.45 -86.6 -2.45 -88.85 -2.95 -91.25 -3.55 -92.45 -3.5 -93.7 -2.55 Q-93.25 -1.85 -92.4 -1.65 L-90.05 -1.5 Q-87.8 -1.3 -86.25 -0.45 -84.3 0.7 -84.3 2.8 L-84.6 4.3 -85.25 5.75 Q-87.3 9.4 -92.05 9.4 L-95.0 9.2 Q-96.75 8.85 -97.85 7.9 L-97.7 7.65 -100.05 9.4 -101.95 10.7 Q-102.2 10.7 -103.05 8.65 L-104.45 5.5 -107.1 5.85 Q-108.65 6.1 -109.35 6.7 -109.65 6.95 -110.15 8.35 -110.65 9.6 -110.85 9.6 M-74.7 -6.5 L-81.4 -5.15 -81.4 -3.6 -81.05 -3.1 Q-80.85 -2.9 -80.5 -2.9 L-78.0 -3.35 -73.45 -4.25 -73.5 -1.1 -73.45 0.6 -79.65 2.25 -79.65 4.05 -79.15 4.5 -77.2 3.95 -75.25 3.45 -74.0 3.45 -74.0 6.95 -83.05 10.55 -84.0 0.55 -84.6 -7.75 -84.6 -9.7 -74.6 -9.7 -74.7 -6.5" fill="none" stroke="#000000" stroke-linecap="round" stroke-linejoin="round" stroke-width="4.0"/>
    <path d="M-144.65 -6.65 Q-143.7 -7.65 -141.95 -8.6 -140.0 -9.65 -138.8 -9.65 -135.0 -9.65 -135.0 -3.75 -135.0 0.65 -138.35 3.55 -141.0 5.8 -144.25 6.2 L-144.15 8.75 -143.7 11.35 Q-144.75 12.0 -145.35 12.0 L-147.1 12.0 -148.5 -5.4 -148.5 -8.25 -145.3 -9.1 -144.65 -6.65" fill="none" stroke="#000000" stroke-linecap="round" stroke-linejoin="round" stroke-width="4.0"/>
    <path d="M-38.3 -6.5 L-45.0 -5.15 -45.0 -3.6 -44.65 -3.1 -44.1 -2.9 -41.6 -3.35 -37.05 -4.25 -37.1 -1.1 -37.05 0.6 -43.25 2.25 -43.25 4.05 Q-43.0 4.5 -42.75 4.5 L-40.8 3.95 -38.85 3.45 -37.6 3.45 -37.6 6.95 -46.65 10.55 -47.6 0.55 -48.2 -7.75 -48.2 -9.7 -38.2 -9.7 -38.3 -6.5 M-31.5 -8.85 L-31.1 -3.3 -31.1 5.95 -28.5 6.05 -25.8 5.95 -25.8 9.7 -34.65 11.35 -36.75 11.35 -35.55 -8.0 -31.5 -8.85 M-51.85 -7.25 L-48.75 -6.15 -49.4 -4.35 -49.65 -2.45 -50.2 -2.45 -52.45 -2.95 -54.85 -3.55 -56.05 -3.5 -57.3 -2.55 Q-56.85 -1.85 -56.0 -1.65 L-53.65 -1.5 Q-51.4 -1.3 -49.85 -0.45 -47.9 0.7 -47.9 2.8 L-48.2 4.3 -48.85 5.75 Q-50.9 9.4 -55.65 9.4 L-58.6 9.2 Q-60.35 8.85 -61.45 7.9 L-60.35 5.25 -57.65 6.0 -55.8 6.35 Q-54.85 6.35 -53.7 5.4 -52.55 4.4 -52.35 3.5 -53.45 1.65 -55.85 1.65 L-56.65 1.65 -57.5 1.65 Q-59.3 1.65 -60.2 0.75 L-60.75 -0.45 -60.9 -1.75 Q-60.9 -7.4 -54.05 -7.4 L-51.85 -7.25 M10.35 -9.7 L10.85 -5.35 Q9.1 -4.7 8.3 -4.25 6.6 -3.25 6.05 -2.15 L7.4 8.35 Q4.4 9.3 2.5 10.3 L1.95 -0.75 1.4 -1.0 0.25 -0.55 Q-0.5 -0.1 -0.7 -0.1 L-1.55 0.15 -2.45 0.45 -3.5 0.45 -3.4 -1.5 -3.5 -5.25 8.9 -9.7 10.35 -9.7 M-3.4 -7.95 L-3.8 -2.9 -4.95 -2.9 Q-10.45 -2.9 -10.45 0.05 -10.45 3.25 -7.35 3.25 L-5.45 2.9 -2.9 2.15 -2.55 5.9 Q-3.35 7.0 -5.45 7.8 L-8.4 8.45 Q-10.35 8.45 -12.2 6.45 -14.4 4.05 -14.4 0.6 -14.4 -4.4 -11.1 -6.95 -8.65 -8.85 -5.65 -8.85 -4.6 -8.85 -3.4 -7.95 M-25.95 -9.7 L-15.95 -9.7 -16.05 -6.5 -22.75 -5.15 -22.75 -3.6 -22.4 -3.1 -21.85 -2.9 -19.35 -3.35 -14.8 -4.25 -14.85 -1.1 -14.8 0.6 -21.0 2.25 -21.0 4.05 -20.5 4.5 -18.55 3.95 -16.6 3.45 -15.35 3.45 -15.35 6.95 -24.4 10.55 -25.35 0.55 -25.95 -7.75 -25.95 -9.7 M50.25 -6.95 Q52.95 -8.55 53.65 -8.55 53.9 -8.55 55.75 -5.25 57.9 -1.55 58.8 -0.6 L60.4 -11.4 63.7 -12.6 63.7 8.15 Q63.05 8.4 61.25 9.55 L53.75 1.85 53.75 2.75 Q53.7 5.1 54.3 6.95 L54.3 7.85 Q53.8 8.15 52.35 9.3 L50.8 10.4 Q50.45 10.4 50.25 7.55 L49.55 -6.55 50.25 -6.95 M44.1 -6.85 L46.35 -2.9 50.15 6.85 47.45 8.9 45.55 10.2 Q45.3 10.2 44.45 8.15 L43.05 5.0 40.4 5.35 Q38.85 5.6 38.15 6.2 37.85 6.45 37.35 7.85 L36.65 9.1 35.55 8.65 34.15 8.0 33.7 8.85 Q32.65 10.8 31.65 11.15 L27.3 12.0 24.4 12.3 23.2 12.3 23.55 -11.8 24.85 -11.65 27.25 -11.8 27.25 -10.85 27.4 -8.8 Q27.9 -9.4 29.75 -9.6 L32.5 -9.6 Q33.25 -9.6 33.9 -8.25 34.5 -7.05 34.5 -6.2 34.5 -2.4 30.85 0.35 34.65 2.25 34.65 5.85 L34.6 6.55 40.5 -9.65 41.8 -10.1 Q42.15 -10.1 44.1 -6.85 M29.5 -6.05 Q28.55 -6.05 27.45 -5.2 L27.45 -2.25 29.25 -3.25 Q30.25 -4.1 30.35 -5.45 L30.0 -5.75 29.5 -6.05 M25.75 5.9 L26.0 7.25 Q26.3 8.2 26.75 8.2 L27.85 7.55 29.15 6.1 Q28.55 5.2 28.2 5.2 L25.95 5.2 25.75 5.9 M40.6 0.0 L42.95 -0.25 Q42.4 -2.05 41.5 -3.5 L40.6 0.0 M89.25 -8.85 L91.8 3.15 93.45 -2.95 94.65 -9.15 97.5 -9.15 95.95 12.75 91.9 13.6 88.3 0.45 Q88.05 0.4 87.95 0.65 86.6 6.6 85.3 10.8 83.75 10.9 81.6 10.2 L77.65 -7.2 80.15 -8.35 81.2 -2.85 Q81.8 0.15 82.5 2.65 L85.4 -8.55 Q85.75 -8.9 86.6 -8.9 L87.5 -8.8 88.45 -8.75 89.25 -8.85 M66.0 -7.65 L68.15 -8.05 68.3 -6.4 Q68.4 -5.35 68.7 -5.35 L70.45 -6.0 72.2 -6.7 Q74.25 -6.7 75.85 -5.7 78.3 -4.25 78.3 -1.1 78.3 4.75 74.3 7.7 71.5 9.75 68.25 9.75 L66.6 9.75 64.95 9.7 64.75 -6.0 64.4 -7.15 66.0 -7.65 M70.8 4.8 L72.9 2.9 Q74.35 1.25 74.35 0.0 74.35 -1.0 73.65 -1.35 L72.45 -1.5 71.2 -1.2 69.9 -0.6 70.35 2.1 70.8 4.8 M131.1 -8.2 L132.25 -8.5 134.3 -9.2 Q134.75 -4.9 134.65 -2.55 L134.65 -2.45 135.0 -2.35 137.1 -3.25 140.3 -4.75 140.25 -7.75 140.15 -11.35 Q142.05 -10.45 143.75 -10.25 L143.75 -3.0 143.95 0.55 144.1 4.1 144.1 8.05 142.9 7.95 140.05 8.05 139.35 1.75 136.85 2.6 134.35 3.6 135.2 9.65 130.95 11.35 130.35 -5.45 128.8 -4.75 Q127.1 -3.75 126.55 -2.65 L127.9 7.85 Q124.9 8.8 123.0 9.8 L122.45 -1.25 121.9 -1.5 120.75 -1.05 119.8 -0.6 118.95 -0.35 118.05 -0.05 117.3 -0.05 Q116.95 5.0 113.3 7.7 110.5 9.75 107.25 9.75 L105.6 9.75 103.95 9.7 103.75 -6.0 103.4 -7.15 105.0 -7.65 107.15 -8.05 107.3 -6.4 Q107.4 -5.35 107.7 -5.35 L109.45 -6.0 111.2 -6.7 Q113.25 -6.7 114.85 -5.7 116.6 -4.65 117.1 -2.75 L117.0 -5.75 129.4 -10.2 130.85 -10.2 131.1 -8.2 M101.8 -12.75 Q102.25 -12.05 102.25 -11.15 102.25 -9.9 101.55 -9.05 100.95 -8.4 100.35 -8.4 99.6 -8.4 99.1 -9.3 98.65 -10.05 98.65 -10.9 98.65 -11.85 99.05 -12.6 99.6 -13.6 100.45 -13.6 101.3 -13.6 101.8 -12.75 M100.05 -5.7 L102.05 -5.9 102.15 -2.95 101.85 4.5 101.55 11.85 100.0 11.7 98.05 11.55 97.65 11.85 98.55 -5.9 100.05 -5.7 M111.9 2.9 Q113.35 1.25 113.35 0.0 113.35 -1.0 112.65 -1.35 L111.45 -1.5 110.2 -1.2 108.9 -0.6 109.35 2.1 109.8 4.8 111.9 2.9 M145.0 -1.4 L145.0 -5.25 148.55 -5.25 148.55 -1.4 145.0 -1.4 M148.55 3.25 L148.55 7.1 145.0 7.1 145.0 3.25 148.55 3.25 M-124.2 -9.7 L-114.2 -9.7 -114.3 -6.5 -121.0 -5.15 -121.0 -3.6 -120.65 -3.1 Q-120.45 -2.9 -120.1 -2.9 L-117.6 -3.35 -113.05 -4.25 -113.1 -1.1 -113.05 0.6 -119.25 2.25 -119.25 4.05 -118.75 4.5 -116.8 3.95 -114.85 3.45 -113.6 3.45 -113.6 6.95 -122.65 10.55 -123.6 0.55 -124.2 -7.75 -124.2 -9.7 M-129.75 -8.85 L-129.35 -3.3 -129.35 5.95 -126.75 6.05 -124.05 5.95 -124.05 9.7 -132.9 11.35 -135.0 11.35 -133.8 -8.0 -129.75 -8.85 M-144.65 -6.65 Q-143.7 -7.65 -141.95 -8.6 -140.0 -9.65 -138.8 -9.65 -135.0 -9.65 -135.0 -3.75 -135.0 0.65 -138.35 3.55 -141.0 5.8 -144.25 6.2 L-144.15 8.75 -143.7 11.35 Q-144.75 12.0 -145.35 12.0 L-147.1 12.0 -148.5 -5.4 -148.5 -8.25 -145.3 -9.1 -144.65 -6.65 M-138.95 -3.7 Q-139.45 -4.2 -140.0 -4.2 L-142.0 -3.3 Q-142.0 -0.8 -141.45 1.3 -140.5 0.9 -139.45 -0.4 -138.4 -1.7 -138.4 -2.7 -138.4 -3.25 -138.95 -3.7 M-110.85 9.6 L-111.95 9.15 -113.45 8.45 -107.0 -9.15 -105.7 -9.6 Q-105.35 -9.6 -103.4 -6.35 L-101.15 -2.4 Q-99.75 0.75 -97.45 7.05 L-96.75 5.25 -94.05 6.0 -92.2 6.35 Q-91.25 6.35 -90.1 5.4 -88.95 4.4 -88.75 3.5 -89.85 1.65 -92.25 1.65 L-93.05 1.65 -93.9 1.65 Q-95.7 1.65 -96.6 0.75 L-97.15 -0.45 -97.3 -1.75 Q-97.3 -7.4 -90.45 -7.4 L-88.25 -7.25 -85.15 -6.15 -85.8 -4.35 -86.05 -2.45 -86.6 -2.45 -88.85 -2.95 -91.25 -3.55 -92.45 -3.5 -93.7 -2.55 Q-93.25 -1.85 -92.4 -1.65 L-90.05 -1.5 Q-87.8 -1.3 -86.25 -0.45 -84.3 0.7 -84.3 2.8 L-84.6 4.3 -85.25 5.75 Q-87.3 9.4 -92.05 9.4 L-95.0 9.2 Q-96.75 8.85 -97.85 7.9 L-97.7 7.65 -100.05 9.4 -101.95 10.7 Q-102.2 10.7 -103.05 8.65 L-104.45 5.5 -107.1 5.85 Q-108.65 6.1 -109.35 6.7 -109.65 6.95 -110.15 8.35 -110.65 9.6 -110.85 9.6 M-74.7 -6.5 L-81.4 -5.15 -81.4 -3.6 -81.05 -3.1 Q-80.85 -2.9 -80.5 -2.9 L-78.0 -3.35 -73.45 -4.25 -73.5 -1.1 -73.45 0.6 -79.65 2.25 -79.65 4.05 -79.15 4.5 -77.2 3.95 -75.25 3.45 -74.0 3.45 -74.0 6.95 -83.05 10.55 -84.0 0.55 -84.6 -7.75 -84.6 -9.7 -74.6 -9.7 -74.7 -6.5 M-104.55 0.25 Q-105.1 -1.55 -106.0 -3.0 L-106.9 0.5 -104.55 0.25" fill="#ffff00" fill-rule="evenodd" stroke="none"/>
  </g>
</svg>
