<?xml version="1.0" encoding="UTF-8" standalone="no"?>
<svg xmlns:xlink="http://www.w3.org/1999/xlink" height="315.0px" width="188.3px" xmlns="http://www.w3.org/2000/svg">
  <g transform="matrix(1.0, 0.0, 0.0, 1.0, -230.85, -140.95)">
    <path d="M256.65 161.45 L254.1 162.7 255.65 167.55 Q253.5 170.35 251.45 171.7 L248.8 173.05 246.0 173.9 Q242.35 173.9 239.65 172.3 235.6 169.85 235.6 164.45 235.6 162.6 235.9 160.5 236.5 156.65 240.55 152.95 244.15 149.65 246.3 149.65 L251.2 149.65 251.35 150.8 250.95 154.55 250.05 154.3 Q247.75 154.25 244.8 156.7 241.5 159.4 241.5 162.35 241.5 163.4 242.2 164.35 242.95 165.25 244.0 165.3 L245.85 165.3 245.85 160.0 Q249.15 158.4 256.1 156.7 256.1 158.35 256.65 161.45" fill="#000000" fill-rule="evenodd" stroke="none"/>
    <path d="M256.65 161.45 L254.1 162.7 255.65 167.55 Q253.5 170.35 251.45 171.7 L248.8 173.05 246.0 173.9 Q242.35 173.9 239.65 172.3 235.6 169.85 235.6 164.45 235.6 162.6 235.9 160.5 236.5 156.65 240.55 152.95 244.15 149.65 246.3 149.65 L251.2 149.65 251.35 150.8 250.95 154.55 250.05 154.3 Q247.75 154.25 244.8 156.7 241.5 159.4 241.5 162.35 241.5 163.4 242.2 164.35 242.95 165.25 244.0 165.3 L245.85 165.3 245.85 160.0 Q249.15 158.4 256.1 156.7 256.1 158.35 256.65 161.45 Z" fill="none" stroke="#000000" stroke-linecap="round" stroke-linejoin="round" stroke-width="4.0"/>
    <path d="M269.85 149.5 L273.2 155.45 Q275.45 160.35 278.95 170.0 L274.85 173.15 272.05 175.1 Q271.7 175.1 270.35 172.0 L268.25 167.25 264.25 167.75 Q262.0 168.1 260.9 169.05 260.45 169.4 259.7 171.55 259.0 173.45 258.65 173.4 L256.85 172.65 254.8 171.65 264.45 145.25 266.4 144.65 Q266.95 144.65 269.85 149.5 M264.6 159.8 L268.15 159.35 Q267.35 156.65 265.95 154.5 L264.6 159.8" fill="#000000" fill-rule="evenodd" stroke="none"/>
    <path d="M269.85 149.5 L273.2 155.45 Q275.45 160.35 278.95 170.0 L274.85 173.15 272.05 175.1 Q271.7 175.1 270.35 172.0 L268.25 167.25 264.25 167.75 Q262.0 168.1 260.9 169.05 260.45 169.4 259.7 171.55 259.0 173.45 258.65 173.4 L256.85 172.65 254.8 171.65 264.45 145.25 266.4 144.65 Q266.95 144.65 269.85 149.5 M264.6 159.8 L268.15 159.35 Q267.35 156.65 265.95 154.5 L264.6 159.8" fill="none" stroke="#000000" stroke-linecap="round" stroke-linejoin="round" stroke-width="4.0"/>
    <path d="M305.55 161.8 L306.1 167.65 306.5 172.05 306.5 174.3 303.35 174.75 300.65 175.55 299.45 167.95 298.15 160.35 Q296.05 166.2 294.9 175.1 L293.05 175.85 291.35 176.4 Q290.9 176.4 290.2 175.8 L287.3 168.1 284.05 159.95 Q283.5 161.3 283.45 164.25 L283.4 169.65 283.1 172.55 282.85 175.55 281.75 175.55 Q279.55 175.55 277.5 174.25 L280.65 147.4 282.15 146.3 283.8 145.15 290.7 161.15 296.8 143.1 297.95 142.95 Q299.2 142.95 304.95 144.8 304.9 149.95 305.55 161.8" fill="#000000" fill-rule="evenodd" stroke="none"/>
    <path d="M305.55 161.8 L306.1 167.65 306.5 172.05 306.5 174.3 303.35 174.75 300.65 175.55 299.45 167.95 298.15 160.35 Q296.05 166.2 294.9 175.1 L293.05 175.85 291.35 176.4 Q290.9 176.4 290.2 175.8 L287.3 168.1 284.05 159.95 Q283.5 161.3 283.45 164.25 L283.4 169.65 283.1 172.55 282.85 175.55 281.75 175.55 Q279.55 175.55 277.5 174.25 L280.65 147.4 282.15 146.3 283.8 145.15 290.7 161.15 296.8 143.1 297.95 142.95 Q299.2 142.95 304.95 144.8 304.9 149.95 305.55 161.8 Z" fill="none" stroke="#000000" stroke-linecap="round" stroke-linejoin="round" stroke-width="4.0"/>
    <path d="M322.7 152.65 L322.65 157.35 322.7 159.9 313.35 162.4 313.35 165.05 Q313.75 165.75 314.15 165.75 L317.05 164.95 Q319.2 164.1 320.0 164.1 L321.85 164.1 321.85 169.35 308.3 174.75 Q307.8 171.95 306.85 159.85 L305.95 147.4 305.95 144.45 320.95 144.45 Q320.8 146.5 320.8 149.25 317.9 149.6 310.75 151.25 L310.75 153.6 311.25 154.35 312.05 154.65 315.85 153.95 322.7 152.65" fill="#000000" fill-rule="evenodd" stroke="none"/>
    <path d="M322.7 152.65 L322.65 157.35 322.7 159.9 313.35 162.4 313.35 165.05 Q313.75 165.75 314.15 165.75 L317.05 164.95 Q319.2 164.1 320.0 164.1 L321.85 164.1 321.85 169.35 308.3 174.75 Q307.8 171.95 306.85 159.85 L305.95 147.4 305.95 144.45 320.95 144.45 Q320.8 146.5 320.8 149.25 317.9 149.6 310.75 151.25 L310.75 153.6 311.25 154.35 312.05 154.65 315.85 153.95 322.7 152.65 Z" fill="none" stroke="#000000" stroke-linecap="round" stroke-linejoin="round" stroke-width="4.0"/>
    <path d="M355.6 159.95 Q355.6 164.05 353.35 166.95 351.4 169.4 349.4 169.4 346.35 169.4 343.9 167.0 340.9 164.0 340.9 158.75 340.9 154.4 343.65 152.0 345.85 150.1 348.4 150.1 351.9 150.1 353.9 153.4 355.6 156.2 355.6 159.95 M347.1 156.65 L346.25 162.0 349.6 163.3 350.1 160.55 350.4 157.75 348.75 157.2 347.1 156.65" fill="#000000" fill-rule="evenodd" stroke="none"/>
    <path d="M355.6 159.95 Q355.6 164.05 353.35 166.95 351.4 169.4 349.4 169.4 346.35 169.4 343.9 167.0 340.9 164.0 340.9 158.75 340.9 154.4 343.65 152.0 345.85 150.1 348.4 150.1 351.9 150.1 353.9 153.4 355.6 156.2 355.6 159.95 M347.1 156.65 L346.25 162.0 349.6 163.3 350.1 160.55 350.4 157.75 348.75 157.2 347.1 156.65" fill="none" stroke="#000000" stroke-linecap="round" stroke-linejoin="round" stroke-width="4.0"/>
    <path d="M377.55 145.65 L365.9 178.05 364.45 177.85 362.95 177.95 361.45 178.05 Q360.95 178.0 359.75 174.2 354.9 158.65 353.4 148.95 355.55 147.95 359.5 146.4 L365.85 164.85 369.85 152.75 Q372.4 145.55 372.8 145.55 L374.5 145.65 376.15 145.8 377.55 145.65" fill="#000000" fill-rule="evenodd" stroke="none"/>
    <path d="M377.55 145.65 L365.9 178.05 364.45 177.85 362.95 177.95 361.45 178.05 Q360.95 178.0 359.75 174.2 354.9 158.65 353.4 148.95 355.55 147.95 359.5 146.4 L365.85 164.85 369.85 152.75 Q372.4 145.55 372.8 145.55 L374.5 145.65 376.15 145.8 377.55 145.65 Z" fill="none" stroke="#000000" stroke-linecap="round" stroke-linejoin="round" stroke-width="4.0"/>
    <path d="M392.5 152.65 L392.45 157.35 392.5 159.9 383.15 162.4 383.15 165.05 Q383.55 165.75 383.95 165.75 384.75 165.75 386.85 164.95 389.0 164.1 389.8 164.1 L391.65 164.1 391.65 169.35 378.1 174.75 Q377.6 171.95 376.65 159.85 L375.75 147.4 375.75 144.45 390.75 144.45 Q390.6 146.5 390.6 149.25 387.7 149.6 380.55 151.25 L380.55 153.6 381.05 154.35 381.85 154.65 385.65 153.95 392.5 152.65" fill="#000000" fill-rule="evenodd" stroke="none"/>
    <path d="M392.5 152.65 L392.45 157.35 392.5 159.9 383.15 162.4 383.15 165.05 Q383.55 165.75 383.95 165.75 384.75 165.75 386.85 164.95 389.0 164.1 389.8 164.1 L391.65 164.1 391.65 169.35 378.1 174.75 Q377.6 171.95 376.65 159.85 L375.75 147.4 375.75 144.45 390.75 144.45 Q390.6 146.5 390.6 149.25 387.7 149.6 380.55 151.25 L380.55 153.6 381.05 154.35 381.85 154.65 385.65 153.95 392.5 152.65 Z" fill="none" stroke="#000000" stroke-linecap="round" stroke-linejoin="round" stroke-width="4.0"/>
    <path d="M412.85 151.2 Q412.85 155.05 410.1 157.7 408.75 159.0 405.65 160.65 L409.85 163.5 Q413.1 165.65 414.4 167.6 L411.25 174.85 404.95 169.15 Q401.75 166.25 398.7 164.1 L398.6 165.65 Q398.6 167.55 398.95 170.6 396.85 171.5 392.6 172.3 392.05 166.0 392.05 163.05 L392.05 147.95 Q392.05 146.8 392.9 145.0 393.4 144.35 393.75 144.4 L397.65 144.4 397.85 146.15 Q397.95 147.25 398.35 147.25 L400.25 146.2 Q401.95 145.1 402.45 144.95 L406.3 144.4 Q408.7 144.4 410.4 145.65 412.85 147.4 412.85 151.2 M407.45 151.5 Q406.3 150.6 405.65 150.6 404.45 150.6 403.65 152.05 403.0 153.3 403.0 154.6 L403.05 155.45 405.6 154.0 Q407.05 153.15 407.45 151.5" fill="#000000" fill-rule="evenodd" stroke="none"/>
    <path d="M412.85 151.2 Q412.85 155.05 410.1 157.7 408.75 159.0 405.65 160.65 L409.85 163.5 Q413.1 165.65 414.4 167.6 L411.25 174.85 404.95 169.15 Q401.75 166.25 398.7 164.1 L398.6 165.65 Q398.6 167.55 398.95 170.6 396.85 171.5 392.6 172.3 392.05 166.0 392.05 163.05 L392.05 147.95 Q392.05 146.8 392.9 145.0 393.4 144.35 393.75 144.4 L397.65 144.4 397.85 146.15 Q397.95 147.25 398.35 147.25 L400.25 146.2 Q401.95 145.1 402.45 144.95 L406.3 144.4 Q408.7 144.4 410.4 145.65 412.85 147.4 412.85 151.2 M407.45 151.5 Q406.3 150.6 405.65 150.6 404.45 150.6 403.65 152.05 403.0 153.3 403.0 154.6 L403.05 155.45 405.6 154.0 Q407.05 153.15 407.45 151.5" fill="none" stroke="#000000" stroke-linecap="round" stroke-linejoin="round" stroke-width="4.0"/>
    <path d="M256.65 161.45 L254.1 162.7 255.65 167.55 Q253.5 170.35 251.45 171.7 L248.8 173.05 246.0 173.9 Q242.35 173.9 239.65 172.3 235.6 169.85 235.6 164.45 235.6 162.6 235.9 160.5 236.5 156.65 240.55 152.95 244.15 149.65 246.3 149.65 L251.2 149.65 251.35 150.8 250.95 154.55 250.05 154.3 Q247.75 154.25 244.8 156.7 241.5 159.4 241.5 162.35 241.5 163.4 242.2 164.35 242.95 165.25 244.0 165.3 L245.85 165.3 245.85 160.0 Q249.15 158.4 256.1 156.7 256.1 158.35 256.65 161.45" fill="#ffff00" fill-rule="evenodd" stroke="none"/>
    <path d="M273.2 155.45 Q275.45 160.35 278.95 170.0 L274.85 173.15 272.05 175.1 Q271.7 175.1 270.35 172.0 L268.25 167.25 264.25 167.75 Q262.0 168.1 260.9 169.05 260.45 169.4 259.7 171.55 259.0 173.45 258.65 173.4 L256.85 172.65 254.8 171.65 264.45 145.25 266.4 144.65 Q266.95 144.65 269.85 149.5 L273.2 155.45 M264.6 159.8 L268.15 159.35 Q267.35 156.65 265.95 154.5 L264.6 159.8" fill="#ffff00" fill-rule="evenodd" stroke="none"/>
    <path d="M306.1 167.65 L306.5 172.05 306.5 174.3 303.35 174.75 300.7 175.55 Q300.2 173.15 299.45 167.95 L298.15 160.35 Q296.05 166.2 294.9 175.1 L293.05 175.85 291.35 176.4 Q290.9 176.4 290.2 175.8 L287.3 168.1 284.05 159.95 Q283.5 161.3 283.5 164.25 L283.4 169.65 283.1 172.55 282.85 175.55 281.75 175.55 Q279.6 175.55 277.5 174.25 L280.65 147.4 282.15 146.3 283.85 145.15 290.7 161.15 296.85 143.1 297.95 142.95 Q299.2 142.95 304.95 144.8 304.95 149.95 305.6 161.8 L306.1 167.65" fill="#ffff00" fill-rule="evenodd" stroke="none"/>
    <path d="M320.8 149.25 Q317.9 149.6 310.75 151.25 L310.75 153.6 311.25 154.35 312.05 154.65 315.85 153.95 322.7 152.65 322.65 157.35 322.7 159.9 313.35 162.4 313.35 165.05 Q313.75 165.75 314.15 165.75 L317.05 164.95 Q319.2 164.1 320.0 164.1 L321.85 164.1 321.85 169.35 308.3 174.75 Q307.8 171.95 306.85 159.85 L305.95 147.4 305.95 144.45 320.95 144.45 Q320.8 146.5 320.8 149.25" fill="#ffff00" fill-rule="evenodd" stroke="none"/>
    <path d="M355.6 159.95 Q355.6 164.05 353.35 166.95 351.4 169.4 349.4 169.4 346.35 169.4 343.9 167.0 340.9 164.0 340.9 158.75 340.9 154.4 343.65 152.0 345.85 150.1 348.4 150.1 351.9 150.1 353.9 153.4 355.6 156.2 355.6 159.95 M350.4 157.75 L348.75 157.2 347.1 156.65 346.25 162.0 349.6 163.3 350.1 160.55 350.4 157.75" fill="#ffff00" fill-rule="evenodd" stroke="none"/>
    <path d="M377.5 145.7 L365.9 178.05 364.45 177.9 362.95 177.95 361.45 178.05 Q360.95 178.05 359.75 174.25 354.9 158.65 353.4 148.95 355.55 147.95 359.5 146.4 L365.85 164.9 369.85 152.75 Q372.35 145.55 372.8 145.55 L374.5 145.7 376.15 145.85 377.5 145.7" fill="#ffff00" fill-rule="evenodd" stroke="none"/>
    <path d="M390.6 149.25 Q387.7 149.6 380.55 151.25 L380.55 153.6 381.05 154.35 381.85 154.65 385.65 153.95 392.5 152.65 392.45 157.35 392.5 159.9 383.15 162.4 383.15 165.05 Q383.55 165.75 383.95 165.75 384.75 165.75 386.85 164.95 389.0 164.1 389.8 164.1 L391.65 164.1 391.65 169.35 378.1 174.75 Q377.6 171.95 376.65 159.85 L375.75 147.4 375.75 144.45 390.75 144.45 Q390.6 146.5 390.6 149.25" fill="#ffff00" fill-rule="evenodd" stroke="none"/>
    <path d="M410.4 145.65 Q412.85 147.4 412.85 151.2 412.85 155.05 410.1 157.7 408.75 159.0 405.65 160.65 L409.85 163.5 Q413.1 165.65 414.4 167.6 L411.25 174.85 404.95 169.15 Q401.75 166.25 398.7 164.1 L398.6 165.65 Q398.6 167.55 398.95 170.6 396.85 171.5 392.6 172.3 392.05 166.0 392.05 163.05 L392.05 147.95 Q392.05 146.8 392.9 145.0 393.4 144.35 393.75 144.4 L397.65 144.4 397.85 146.15 Q397.95 147.25 398.35 147.25 L400.25 146.2 Q401.95 145.1 402.45 144.95 L406.3 144.4 Q408.7 144.4 410.4 145.65 M407.45 151.5 Q406.3 150.6 405.65 150.6 404.45 150.6 403.65 152.05 403.0 153.3 403.0 154.6 L403.05 155.45 405.6 154.0 Q407.05 153.15 407.45 151.5" fill="#ffff00" fill-rule="evenodd" stroke="none"/>
    <path d="M267.85 386.8 Q270.1 388.05 270.1 390.45 270.1 391.85 269.0 393.8 266.7 397.9 261.3 397.9 L258.0 397.65 Q256.0 397.3 254.8 396.2 L256.0 393.25 258.6 393.95 261.2 394.45 Q262.25 394.45 263.55 393.35 264.85 392.3 265.05 391.25 263.8 389.2 261.15 389.2 L260.2 389.2 259.25 389.2 Q257.2 389.2 256.2 388.15 255.85 387.8 255.6 386.8 L255.4 385.3 Q255.4 379.0 263.1 379.0 L265.6 379.15 269.1 380.4 Q268.7 380.9 268.4 382.4 L268.1 384.55 267.5 384.55 264.95 383.95 262.25 383.3 260.9 383.35 Q260.35 383.5 259.45 384.4 260.0 385.25 260.9 385.4 L263.6 385.6 Q266.1 385.8 267.85 386.8" fill="#000000" fill-rule="evenodd" stroke="none"/>
    <path d="M267.85 386.8 Q270.1 388.05 270.1 390.45 270.1 391.85 269.0 393.8 266.7 397.9 261.3 397.9 L258.0 397.65 Q256.0 397.3 254.8 396.2 L256.0 393.25 258.6 393.95 261.2 394.45 Q262.25 394.45 263.55 393.35 264.85 392.3 265.05 391.25 263.8 389.2 261.15 389.2 L260.2 389.2 259.25 389.2 Q257.2 389.2 256.2 388.15 255.85 387.8 255.6 386.8 L255.4 385.3 Q255.4 379.0 263.1 379.0 L265.6 379.15 269.1 380.4 Q268.7 380.9 268.4 382.4 L268.1 384.55 267.5 384.55 264.95 383.95 262.25 383.3 260.9 383.35 Q260.35 383.5 259.45 384.4 260.0 385.25 260.9 385.4 L263.6 385.6 Q266.1 385.8 267.85 386.8 Z" fill="none" stroke="#000000" stroke-linecap="round" stroke-linejoin="round" stroke-width="4.0"/>
    <path d="M282.2 386.05 L282.25 387.95 275.25 389.85 275.25 391.85 275.8 392.35 278.0 391.75 280.2 391.15 281.6 391.15 281.6 395.1 271.4 399.15 270.3 387.9 269.65 378.55 269.65 376.35 280.95 376.35 280.85 379.95 273.25 381.45 273.25 383.2 273.65 383.8 274.25 384.0 277.1 383.5 282.25 382.5 282.2 386.05" fill="#000000" fill-rule="evenodd" stroke="none"/>
    <path d="M282.2 386.05 L282.25 387.95 275.25 389.85 275.25 391.85 275.8 392.35 278.0 391.75 280.2 391.15 281.6 391.15 281.6 395.1 271.4 399.15 270.3 387.9 269.65 378.55 269.65 376.35 280.95 376.35 280.85 379.95 273.25 381.45 273.25 383.2 273.65 383.8 274.25 384.0 277.1 383.5 282.25 382.5 282.2 386.05 Z" fill="none" stroke="#000000" stroke-linecap="round" stroke-linejoin="round" stroke-width="4.0"/>
    <path d="M298.1 373.6 L298.1 397.0 Q297.35 397.3 295.3 398.6 L286.85 389.95 286.85 391.05 Q286.85 393.6 287.45 395.65 L287.45 396.7 285.25 398.35 283.5 399.55 Q283.1 399.55 282.9 396.35 L282.1 380.45 Q285.8 378.2 286.7 378.2 287.0 378.2 289.15 381.95 291.5 386.05 292.55 387.2 L294.35 375.0 298.1 373.6" fill="#000000" fill-rule="evenodd" stroke="none"/>
    <path d="M298.1 373.6 L298.1 397.0 Q297.35 397.3 295.3 398.6 L286.85 389.95 286.85 391.05 Q286.85 393.6 287.45 395.65 L287.45 396.7 285.25 398.35 283.5 399.55 Q283.1 399.55 282.9 396.35 L282.1 380.45 Q285.8 378.2 286.7 378.2 287.0 378.2 289.15 381.95 291.5 386.05 292.55 387.2 L294.35 375.0 298.1 373.6 Z" fill="none" stroke="#000000" stroke-linecap="round" stroke-linejoin="round" stroke-width="4.0"/>
    <path d="M314.6 386.65 Q314.6 393.25 310.1 396.55 306.95 398.85 303.25 398.85 L301.4 398.85 299.55 398.8 299.3 381.05 Q299.3 380.4 298.9 379.8 L300.7 379.25 Q302.05 378.85 303.15 378.8 L303.35 380.65 Q303.45 381.85 303.75 381.85 L305.75 381.05 Q307.4 380.3 307.7 380.3 310.0 380.3 311.85 381.4 314.6 383.1 314.6 386.65 M306.55 386.5 Q305.6 386.9 305.1 387.2 L305.6 390.25 306.15 393.25 308.5 391.1 Q310.2 389.3 310.2 387.85 310.2 386.7 309.35 386.35 L308.05 386.15 306.55 386.5" fill="#000000" fill-rule="evenodd" stroke="none"/>
    <path d="M314.6 386.65 Q314.6 393.25 310.1 396.55 306.95 398.85 303.25 398.85 L301.4 398.85 299.55 398.8 299.3 381.05 Q299.3 380.4 298.9 379.8 L300.7 379.25 Q302.05 378.85 303.15 378.8 L303.35 380.65 Q303.45 381.85 303.75 381.85 L305.75 381.05 Q307.4 380.3 307.7 380.3 310.0 380.3 311.85 381.4 314.6 383.1 314.6 386.65 M306.55 386.5 Q305.6 386.9 305.1 387.2 L305.6 390.25 306.15 393.25 308.5 391.1 Q310.2 389.3 310.2 387.85 310.2 386.7 309.35 386.35 L308.05 386.15 306.55 386.5" fill="none" stroke="#000000" stroke-linecap="round" stroke-linejoin="round" stroke-width="4.0"/>
    <path d="M341.25 386.8 Q343.5 388.05 343.5 390.45 343.5 391.85 342.4 393.8 340.1 397.9 334.7 397.9 L331.4 397.65 Q329.4 397.3 328.2 396.2 L329.4 393.25 332.0 393.95 334.6 394.45 Q335.65 394.45 336.95 393.35 338.25 392.3 338.45 391.25 337.2 389.2 334.55 389.2 L333.6 389.2 332.65 389.2 Q330.6 389.2 329.6 388.15 329.25 387.8 329.0 386.8 L328.8 385.3 Q328.8 379.0 336.5 379.0 L339.0 379.15 342.5 380.4 Q342.1 380.9 341.8 382.4 L341.5 384.55 340.9 384.55 338.35 383.95 335.65 383.3 334.3 383.35 Q333.75 383.5 332.85 384.4 333.4 385.25 334.3 385.4 L337.0 385.6 Q339.5 385.8 341.25 386.8" fill="#000000" fill-rule="evenodd" stroke="none"/>
    <path d="M341.25 386.8 Q343.5 388.05 343.5 390.45 343.5 391.85 342.4 393.8 340.1 397.9 334.7 397.9 L331.4 397.65 Q329.4 397.3 328.2 396.2 L329.4 393.25 332.0 393.95 334.6 394.45 Q335.65 394.45 336.95 393.35 338.25 392.3 338.45 391.25 337.2 389.2 334.55 389.2 L333.6 389.2 332.65 389.2 Q330.6 389.2 329.6 388.15 329.25 387.8 329.0 386.8 L328.8 385.3 Q328.8 379.0 336.5 379.0 L339.0 379.15 342.5 380.4 Q342.1 380.9 341.8 382.4 L341.5 384.55 340.9 384.55 338.35 383.95 335.65 383.3 334.3 383.35 Q333.75 383.5 332.85 384.4 333.4 385.25 334.3 385.4 L337.0 385.6 Q339.5 385.8 341.25 386.8 Z" fill="none" stroke="#000000" stroke-linecap="round" stroke-linejoin="round" stroke-width="4.0"/>
    <path d="M353.9 384.0 Q347.65 384.0 347.65 387.35 347.65 390.95 351.15 390.95 L353.3 390.55 356.2 389.7 356.6 393.9 Q355.7 395.15 353.3 396.05 L350.0 396.8 Q347.85 396.8 345.75 394.55 343.25 391.85 343.25 387.95 343.25 382.35 347.0 379.45 349.75 377.3 353.15 377.3 354.3 377.3 355.6 378.3 355.25 381.5 355.2 384.0 L353.9 384.0" fill="#000000" fill-rule="evenodd" stroke="none"/>
    <path d="M353.9 384.0 Q347.65 384.0 347.65 387.35 347.65 390.95 351.15 390.95 L353.3 390.55 356.2 389.7 356.6 393.9 Q355.7 395.15 353.3 396.05 L350.0 396.8 Q347.85 396.8 345.75 394.55 343.25 391.85 343.25 387.95 343.25 382.35 347.0 379.45 349.75 377.3 353.15 377.3 354.3 377.3 355.6 378.3 355.25 381.5 355.2 384.0 L353.9 384.0 Z" fill="none" stroke="#000000" stroke-linecap="round" stroke-linejoin="round" stroke-width="4.0"/>
    <path d="M367.2 388.0 Q367.2 391.1 365.5 393.25 364.05 395.1 362.55 395.1 360.25 395.1 358.4 393.3 356.15 391.05 356.15 387.1 356.15 383.85 358.25 382.05 359.9 380.6 361.8 380.6 364.4 380.6 365.9 383.1 367.2 385.2 367.2 388.0 M363.3 386.35 L362.05 385.95 360.8 385.55 360.15 389.55 362.7 390.55 363.1 388.45 363.3 386.35" fill="#000000" fill-rule="evenodd" stroke="none"/>
    <path d="M367.2 388.0 Q367.2 391.1 365.5 393.25 364.05 395.1 362.55 395.1 360.25 395.1 358.4 393.3 356.15 391.05 356.15 387.1 356.15 383.85 358.25 382.05 359.9 380.6 361.8 380.6 364.4 380.6 365.9 383.1 367.2 385.2 367.2 388.0 M363.3 386.35 L362.05 385.95 360.8 385.55 360.15 389.55 362.7 390.55 363.1 388.45 363.3 386.35" fill="none" stroke="#000000" stroke-linecap="round" stroke-linejoin="round" stroke-width="4.0"/>
    <path d="M374.9 384.6 L376.8 383.5 Q377.9 382.85 378.2 381.65 377.3 380.95 376.85 380.95 375.9 380.95 375.35 382.05 374.8 383.0 374.8 383.95 L374.9 384.6 M380.15 386.3 L376.85 388.55 380.0 390.65 Q382.45 392.3 383.4 393.75 L381.05 399.2 376.3 394.9 371.6 391.1 371.55 392.25 371.8 396.0 Q370.2 396.65 367.0 397.3 L366.6 390.3 366.6 378.95 Q366.6 378.1 367.25 376.75 367.6 376.25 367.85 376.3 L370.8 376.3 370.95 377.6 Q371.05 378.45 371.35 378.45 L372.75 377.65 Q374.05 376.85 374.4 376.75 L377.3 376.3 Q379.1 376.3 380.4 377.2 382.25 378.55 382.25 381.4 382.25 384.3 380.15 386.3" fill="#000000" fill-rule="evenodd" stroke="none"/>
    <path d="M374.9 384.6 L376.8 383.5 Q377.9 382.85 378.2 381.65 377.3 380.95 376.85 380.95 375.9 380.95 375.35 382.05 374.8 383.0 374.8 383.95 L374.9 384.6 M380.15 386.3 L376.85 388.55 380.0 390.65 Q382.45 392.3 383.4 393.75 L381.05 399.2 376.3 394.9 371.6 391.1 371.55 392.25 371.8 396.0 Q370.2 396.65 367.0 397.3 L366.6 390.3 366.6 378.95 Q366.6 378.1 367.25 376.75 367.6 376.25 367.85 376.3 L370.8 376.3 370.95 377.6 Q371.05 378.45 371.35 378.45 L372.75 377.65 Q374.05 376.85 374.4 376.75 L377.3 376.3 Q379.1 376.3 380.4 377.2 382.25 378.55 382.25 381.4 382.25 384.3 380.15 386.3" fill="none" stroke="#000000" stroke-linecap="round" stroke-linejoin="round" stroke-width="4.0"/>
    <path d="M395.15 386.05 L395.2 387.95 388.2 389.85 388.2 391.85 388.75 392.35 390.95 391.75 393.15 391.15 394.55 391.15 394.55 395.1 384.35 399.15 383.25 387.9 382.6 378.55 382.6 376.35 393.9 376.35 393.8 379.95 386.2 381.45 386.2 383.2 386.6 383.8 387.2 384.0 390.05 383.5 395.2 382.5 395.15 386.05" fill="#000000" fill-rule="evenodd" stroke="none"/>
    <path d="M395.15 386.05 L395.2 387.95 388.2 389.85 388.2 391.85 388.75 392.35 390.95 391.75 393.15 391.15 394.55 391.15 394.55 395.1 384.35 399.15 383.25 387.9 382.6 378.55 382.6 376.35 393.9 376.35 393.8 379.95 386.2 381.45 386.2 383.2 386.6 383.8 387.2 384.0 390.05 383.5 395.2 382.5 395.15 386.05 Z" fill="none" stroke="#000000" stroke-linecap="round" stroke-linejoin="round" stroke-width="4.0"/>
    <path d="M270.1 390.45 Q270.1 391.85 269.0 393.8 266.7 397.9 261.3 397.9 L258.0 397.65 Q256.0 397.3 254.8 396.2 L256.0 393.25 258.6 393.95 261.2 394.45 Q262.25 394.45 263.55 393.35 264.85 392.3 265.05 391.25 263.8 389.2 261.15 389.2 L260.2 389.2 259.25 389.2 Q257.2 389.2 256.2 388.15 255.85 387.8 255.6 386.8 L255.4 385.3 Q255.4 379.0 263.1 379.0 L265.65 379.15 269.1 380.4 Q268.7 380.9 268.4 382.4 L268.1 384.55 267.5 384.55 265.0 383.95 262.25 383.3 260.9 383.35 Q260.35 383.5 259.45 384.4 260.0 385.25 260.9 385.4 L263.6 385.6 Q266.1 385.8 267.85 386.8 270.1 388.05 270.1 390.45" fill="#ffff00" fill-rule="evenodd" stroke="none"/>
    <path d="M282.25 387.95 L275.25 389.85 275.25 391.85 275.8 392.35 278.0 391.75 280.2 391.15 281.6 391.15 281.6 395.1 271.4 399.15 270.3 387.9 269.65 378.55 269.65 376.35 280.95 376.35 280.85 379.95 273.25 381.45 273.25 383.2 273.65 383.8 274.25 384.0 277.1 383.5 282.25 382.5 282.2 386.05 282.25 387.95" fill="#ffff00" fill-rule="evenodd" stroke="none"/>
    <path d="M298.1 373.65 L298.1 397.0 Q297.35 397.35 295.3 398.65 L286.85 389.95 286.85 391.05 Q286.85 393.65 287.45 395.7 L287.45 396.75 285.25 398.35 283.5 399.6 Q283.1 399.6 282.9 396.35 L282.1 380.5 Q285.85 378.2 286.75 378.25 287.0 378.2 289.15 381.95 291.5 386.1 292.55 387.2 L294.35 375.05 298.1 373.65" fill="#ffff00" fill-rule="evenodd" stroke="none"/>
    <path d="M314.6 386.65 Q314.6 393.25 310.1 396.55 306.9 398.85 303.25 398.85 L301.4 398.85 299.5 398.8 299.3 381.05 Q299.3 380.45 298.9 379.8 L300.7 379.25 Q302.0 378.85 303.15 378.8 L303.3 380.65 Q303.45 381.85 303.75 381.85 L305.75 381.05 Q307.4 380.3 307.7 380.3 310.0 380.3 311.85 381.4 314.6 383.1 314.6 386.65 M309.35 386.35 L308.0 386.2 306.55 386.55 305.1 387.2 305.6 390.25 306.15 393.25 308.5 391.1 Q310.2 389.3 310.2 387.9 310.15 386.7 309.35 386.35" fill="#ffff00" fill-rule="evenodd" stroke="none"/>
    <path d="M343.5 390.45 Q343.5 391.85 342.4 393.8 340.1 397.9 334.7 397.9 L331.4 397.65 Q329.4 397.3 328.2 396.2 L329.4 393.25 332.0 393.95 334.6 394.45 Q335.65 394.45 336.95 393.35 338.25 392.3 338.45 391.25 337.2 389.2 334.55 389.2 L333.6 389.2 332.65 389.2 Q330.6 389.2 329.6 388.15 329.25 387.8 329.0 386.8 L328.8 385.3 Q328.8 379.0 336.5 379.0 L339.05 379.15 342.5 380.4 Q342.1 380.9 341.8 382.4 L341.5 384.55 340.9 384.55 338.4 383.95 335.65 383.3 334.3 383.35 Q333.75 383.5 332.85 384.4 333.4 385.25 334.3 385.4 L337.0 385.6 Q339.5 385.8 341.25 386.8 343.5 388.05 343.5 390.45" fill="#ffff00" fill-rule="evenodd" stroke="none"/>
    <path d="M353.9 384.0 Q347.65 384.0 347.65 387.35 347.65 390.95 351.15 390.95 L353.3 390.55 356.2 389.7 356.6 393.9 Q355.7 395.15 353.3 396.05 L350.0 396.8 Q347.85 396.8 345.75 394.55 343.25 391.85 343.25 387.95 343.25 382.35 347.0 379.45 349.75 377.3 353.15 377.3 354.3 377.3 355.6 378.3 355.25 381.5 355.2 384.0 L353.9 384.0" fill="#ffff00" fill-rule="evenodd" stroke="none"/>
    <path d="M365.9 383.1 Q367.2 385.2 367.2 388.0 367.2 391.1 365.5 393.25 364.05 395.1 362.55 395.1 360.25 395.1 358.4 393.3 356.15 391.05 356.15 387.1 356.15 383.85 358.25 382.05 359.9 380.6 361.8 380.6 364.4 380.6 365.9 383.1 M362.05 385.95 L360.8 385.55 360.15 389.55 362.7 390.55 363.1 388.45 363.3 386.35 362.05 385.95" fill="#ffff00" fill-rule="evenodd" stroke="none"/>
    <path d="M376.85 388.55 L380.0 390.65 Q382.45 392.3 383.4 393.75 L381.05 399.2 376.3 394.9 371.6 391.1 371.55 392.25 371.8 396.0 Q370.2 396.65 367.0 397.3 L366.6 390.3 366.6 378.95 Q366.6 378.1 367.25 376.75 367.6 376.25 367.85 376.3 L370.8 376.3 370.95 377.6 Q371.05 378.45 371.35 378.45 L372.75 377.65 Q374.05 376.85 374.4 376.75 L377.3 376.3 Q379.1 376.3 380.4 377.2 382.25 378.55 382.25 381.4 382.25 384.3 380.15 386.3 L376.85 388.55 M378.2 381.65 Q377.3 380.95 376.85 380.95 375.9 380.95 375.35 382.05 374.8 383.0 374.8 383.95 L374.9 384.6 376.8 383.5 Q377.9 382.85 378.2 381.65" fill="#ffff00" fill-rule="evenodd" stroke="none"/>
    <path d="M395.2 387.95 L388.2 389.85 388.2 391.85 388.75 392.35 390.95 391.75 393.15 391.15 394.55 391.15 394.55 395.1 384.35 399.15 383.25 387.9 382.6 378.55 382.6 376.35 393.9 376.35 393.8 379.95 386.2 381.45 386.2 383.2 386.6 383.8 387.2 384.0 390.05 383.5 395.2 382.5 395.15 386.05 395.2 387.95" fill="#ffff00" fill-rule="evenodd" stroke="none"/>
    <path d="M241.15 438.2 L243.05 437.1 Q244.15 436.45 244.45 435.25 243.55 434.55 243.1 434.55 242.15 434.55 241.6 435.65 241.05 436.6 241.05 437.55 L241.15 438.2 M246.4 439.9 L243.1 442.15 246.25 444.25 Q248.7 445.9 249.65 447.35 L247.3 452.8 242.55 448.5 Q240.15 446.3 237.85 444.7 L237.8 445.85 238.05 449.6 Q236.45 450.25 233.25 450.9 L232.85 443.9 232.85 432.55 Q232.85 431.7 233.5 430.35 233.85 429.85 234.1 429.9 L237.05 429.9 237.2 431.2 Q237.3 432.05 237.6 432.05 L239.0 431.25 Q240.3 430.45 240.65 430.35 L243.55 429.9 Q245.35 429.9 246.65 430.8 248.5 432.15 248.5 435.0 248.5 437.9 246.4 439.9" fill="#000000" fill-rule="evenodd" stroke="none"/>
    <path d="M241.15 438.2 L243.05 437.1 Q244.15 436.45 244.45 435.25 243.55 434.55 243.1 434.55 242.15 434.55 241.6 435.65 241.05 436.6 241.05 437.55 L241.15 438.2 M246.4 439.9 L243.1 442.15 246.25 444.25 Q248.7 445.9 249.65 447.35 L247.3 452.8 242.55 448.5 Q240.15 446.3 237.85 444.7 L237.8 445.85 238.05 449.6 Q236.45 450.25 233.25 450.9 L232.85 443.9 232.85 432.55 Q232.85 431.7 233.5 430.35 233.85 429.85 234.1 429.9 L237.05 429.9 237.2 431.2 Q237.3 432.05 237.6 432.05 L239.0 431.25 Q240.3 430.45 240.65 430.35 L243.55 429.9 Q245.35 429.9 246.65 430.8 248.5 432.15 248.5 435.0 248.5 437.9 246.4 439.9" fill="none" stroke="#000000" stroke-linecap="round" stroke-linejoin="round" stroke-width="4.0"/>
    <path d="M261.4 439.65 L261.45 441.55 254.4 443.45 254.4 445.45 255.0 445.95 257.2 445.35 259.4 444.75 260.8 444.75 260.8 448.7 250.6 452.75 249.5 441.5 248.85 432.15 248.85 429.95 260.15 429.95 260.05 433.55 Q257.8 433.8 252.45 435.05 L252.45 436.8 252.85 437.4 Q253.05 437.6 253.45 437.6 L256.3 437.1 261.45 436.1 261.4 439.65" fill="#000000" fill-rule="evenodd" stroke="none"/>
    <path d="M261.4 439.65 L261.45 441.55 254.4 443.45 254.4 445.45 255.0 445.95 257.2 445.35 259.4 444.75 260.8 444.75 260.8 448.7 250.6 452.75 249.5 441.5 248.85 432.15 248.85 429.95 260.15 429.95 260.05 433.55 Q257.8 433.8 252.45 435.05 L252.45 436.8 252.85 437.4 Q253.05 437.6 253.45 437.6 L256.3 437.1 261.45 436.1 261.4 439.65 Z" fill="none" stroke="#000000" stroke-linecap="round" stroke-linejoin="round" stroke-width="4.0"/>
    <path d="M274.5 440.35 Q276.75 441.6 276.75 444.0 276.75 445.4 275.65 447.35 273.35 451.45 267.95 451.45 L264.65 451.2 Q262.65 450.85 261.45 449.75 L262.65 446.8 265.25 447.5 267.85 448.0 Q268.9 448.0 270.2 446.9 271.5 445.85 271.7 444.8 270.45 442.75 267.8 442.75 L266.85 442.75 265.9 442.75 Q263.85 442.75 262.85 441.7 262.5 441.35 262.25 440.35 L262.05 438.85 Q262.05 432.55 269.75 432.55 L272.25 432.7 275.75 433.95 Q275.35 434.45 275.05 435.95 L274.75 438.1 274.15 438.1 271.6 437.5 268.9 436.85 267.55 436.9 Q267.0 437.05 266.1 437.95 266.65 438.8 267.55 438.95 L270.25 439.15 Q272.75 439.35 274.5 440.35" fill="#000000" fill-rule="evenodd" stroke="none"/>
    <path d="M274.5 440.35 Q276.75 441.6 276.75 444.0 276.75 445.4 275.65 447.35 273.35 451.45 267.95 451.45 L264.65 451.2 Q262.65 450.85 261.45 449.75 L262.65 446.8 265.25 447.5 267.85 448.0 Q268.9 448.0 270.2 446.9 271.5 445.85 271.7 444.8 270.45 442.75 267.8 442.75 L266.85 442.75 265.9 442.75 Q263.85 442.75 262.85 441.7 262.5 441.35 262.25 440.35 L262.05 438.85 Q262.05 432.55 269.75 432.55 L272.25 432.7 275.75 433.95 Q275.35 434.45 275.05 435.95 L274.75 438.1 274.15 438.1 271.6 437.5 268.9 436.85 267.55 436.9 Q267.0 437.05 266.1 437.95 266.65 438.8 267.55 438.95 L270.25 439.15 Q272.75 439.35 274.5 440.35 Z" fill="none" stroke="#000000" stroke-linecap="round" stroke-linejoin="round" stroke-width="4.0"/>
    <path d="M291.75 434.85 Q289.85 435.55 288.9 436.1 287.0 437.2 286.4 438.5 L287.9 450.35 Q284.5 451.4 282.35 452.55 L281.75 440.05 Q281.5 439.75 281.1 439.75 L279.8 440.25 278.75 440.75 Q278.45 440.75 277.75 441.05 L276.8 441.35 275.55 441.35 275.7 439.15 275.55 434.95 289.55 429.95 291.2 429.95 291.75 434.85" fill="#000000" fill-rule="evenodd" stroke="none"/>
    <path d="M291.75 434.85 Q289.85 435.55 288.9 436.1 287.0 437.2 286.4 438.5 L287.9 450.35 Q284.5 451.4 282.35 452.55 L281.75 440.05 Q281.5 439.75 281.1 439.75 L279.8 440.25 278.75 440.75 Q278.45 440.75 277.75 441.05 L276.8 441.35 275.55 441.35 275.7 439.15 275.55 434.95 289.55 429.95 291.2 429.95 291.75 434.85 Z" fill="none" stroke="#000000" stroke-linecap="round" stroke-linejoin="round" stroke-width="4.0"/>
    <path d="M304.2 438.2 Q305.9 441.9 308.5 449.15 L305.4 451.5 303.3 453.0 Q303.05 453.0 302.05 450.65 L300.45 447.1 297.45 447.5 Q295.75 447.7 294.95 448.45 294.6 448.7 294.05 450.3 L293.25 451.75 291.9 451.15 290.35 450.4 297.6 430.55 299.05 430.1 Q299.45 430.1 301.65 433.75 L304.2 438.2 M300.4 441.15 Q299.75 439.1 298.75 437.5 L297.7 441.5 300.4 441.15" fill="#000000" fill-rule="evenodd" stroke="none"/>
    <path d="M304.2 438.2 Q305.9 441.9 308.5 449.15 L305.4 451.5 303.3 453.0 Q303.05 453.0 302.05 450.65 L300.45 447.1 297.45 447.5 Q295.75 447.7 294.95 448.45 294.6 448.7 294.05 450.3 L293.25 451.75 291.9 451.15 290.35 450.4 297.6 430.55 299.05 430.1 Q299.45 430.1 301.65 433.75 L304.2 438.2 M300.4 441.15 Q299.75 439.1 298.75 437.5 L297.7 441.5 300.4 441.15" fill="none" stroke="#000000" stroke-linecap="round" stroke-linejoin="round" stroke-width="4.0"/>
    <path d="M315.9 438.2 L317.8 437.1 Q318.9 436.45 319.2 435.25 318.3 434.55 317.85 434.55 316.9 434.55 316.35 435.65 315.8 436.6 315.8 437.55 L315.9 438.2 M321.15 439.9 Q320.15 440.9 317.85 442.15 L321.0 444.25 Q323.45 445.9 324.4 447.35 L322.05 452.8 317.3 448.5 Q314.9 446.3 312.6 444.7 L312.55 445.85 312.8 449.6 Q311.2 450.25 308.0 450.9 L307.6 443.9 307.6 432.55 Q307.6 431.7 308.25 430.35 308.6 429.85 308.85 429.9 L311.8 429.9 311.95 431.2 Q312.05 432.05 312.35 432.05 L313.75 431.25 315.4 430.35 318.3 429.9 Q320.1 429.9 321.4 430.8 323.25 432.15 323.25 435.0 323.25 437.9 321.15 439.9" fill="#000000" fill-rule="evenodd" stroke="none"/>
    <path d="M315.9 438.2 L317.8 437.1 Q318.9 436.45 319.2 435.25 318.3 434.55 317.85 434.55 316.9 434.55 316.35 435.65 315.8 436.6 315.8 437.55 L315.9 438.2 M321.15 439.9 Q320.15 440.9 317.85 442.15 L321.0 444.25 Q323.45 445.9 324.4 447.35 L322.05 452.8 317.3 448.5 Q314.9 446.3 312.6 444.7 L312.55 445.85 312.8 449.6 Q311.2 450.25 308.0 450.9 L307.6 443.9 307.6 432.55 Q307.6 431.7 308.25 430.35 308.6 429.85 308.85 429.9 L311.8 429.9 311.95 431.2 Q312.05 432.05 312.35 432.05 L313.75 431.25 315.4 430.35 318.3 429.9 Q320.1 429.9 321.4 430.8 323.25 432.15 323.25 435.0 323.25 437.9 321.15 439.9" fill="none" stroke="#000000" stroke-linecap="round" stroke-linejoin="round" stroke-width="4.0"/>
    <path d="M339.05 434.85 Q337.15 435.55 336.2 436.1 334.3 437.2 333.7 438.5 L335.2 450.35 Q331.8 451.4 329.65 452.55 L329.05 440.05 Q328.8 439.75 328.4 439.75 328.05 439.75 327.1 440.25 L326.0 440.75 325.05 441.05 324.1 441.35 322.85 441.35 323.0 439.15 322.85 434.95 336.85 429.95 338.45 429.95 339.05 434.85" fill="#000000" fill-rule="evenodd" stroke="none"/>
    <path d="M339.05 434.85 Q337.15 435.55 336.2 436.1 334.3 437.2 333.7 438.5 L335.2 450.35 Q331.8 451.4 329.65 452.55 L329.05 440.05 Q328.8 439.75 328.4 439.75 328.05 439.75 327.1 440.25 L326.0 440.75 325.05 441.05 324.1 441.35 322.85 441.35 323.0 439.15 322.85 434.95 336.85 429.95 338.45 429.95 339.05 434.85 Z" fill="none" stroke="#000000" stroke-linecap="round" stroke-linejoin="round" stroke-width="4.0"/>
    <path d="M367.5 442.75 L365.55 443.65 366.7 447.3 Q365.1 449.4 363.55 450.45 L361.55 451.45 359.45 452.1 Q356.7 452.1 354.7 450.85 351.65 449.05 351.65 444.95 L351.9 442.0 Q352.3 439.1 355.35 436.35 358.05 433.85 359.7 433.85 L363.4 433.85 363.5 434.7 363.2 437.55 362.55 437.35 Q360.8 437.3 358.6 439.15 356.1 441.15 356.1 443.4 356.1 444.2 356.65 444.9 357.15 445.6 357.95 445.6 L359.35 445.6 359.35 441.6 Q361.85 440.45 367.1 439.15 367.05 440.4 367.5 442.75" fill="#000000" fill-rule="evenodd" stroke="none"/>
    <path d="M367.5 442.75 L365.55 443.65 366.7 447.3 Q365.1 449.4 363.55 450.45 L361.55 451.45 359.45 452.1 Q356.7 452.1 354.7 450.85 351.65 449.05 351.65 444.95 L351.9 442.0 Q352.3 439.1 355.35 436.35 358.05 433.85 359.7 433.85 L363.4 433.85 363.5 434.7 363.2 437.55 362.55 437.35 Q360.8 437.3 358.6 439.15 356.1 441.15 356.1 443.4 356.1 444.2 356.65 444.9 357.15 445.6 357.95 445.6 L359.35 445.6 359.35 441.6 Q361.85 440.45 367.1 439.15 367.05 440.4 367.5 442.75 Z" fill="none" stroke="#000000" stroke-linecap="round" stroke-linejoin="round" stroke-width="4.0"/>
    <path d="M379.9 438.2 Q381.6 441.9 384.2 449.15 L381.15 451.5 379.0 453.0 Q378.75 453.0 377.75 450.65 L376.15 447.1 373.15 447.5 Q371.45 447.7 370.65 448.45 370.3 448.7 369.75 450.3 L368.95 451.75 Q368.75 451.75 367.6 451.15 L366.05 450.4 373.3 430.55 374.75 430.1 Q375.15 430.1 377.35 433.75 L379.9 438.2 M376.1 441.15 Q375.45 439.1 374.45 437.5 L373.4 441.5 376.1 441.15" fill="#000000" fill-rule="evenodd" stroke="none"/>
    <path d="M379.9 438.2 Q381.6 441.9 384.2 449.15 L381.15 451.5 379.0 453.0 Q378.75 453.0 377.75 450.65 L376.15 447.1 373.15 447.5 Q371.45 447.7 370.65 448.45 370.3 448.7 369.75 450.3 L368.95 451.75 Q368.75 451.75 367.6 451.15 L366.05 450.4 373.3 430.55 374.75 430.1 Q375.15 430.1 377.35 433.75 L379.9 438.2 M376.1 441.15 Q375.45 439.1 374.45 437.5 L373.4 441.5 376.1 441.15" fill="none" stroke="#000000" stroke-linecap="round" stroke-linejoin="round" stroke-width="4.0"/>
    <path d="M404.95 450.65 L404.95 452.35 402.55 452.7 400.55 453.3 399.65 447.6 398.65 441.9 Q397.1 446.3 396.25 452.95 L394.85 453.55 393.55 453.95 392.7 453.5 390.5 447.7 388.05 441.6 Q387.65 442.55 387.65 444.85 L387.55 448.85 387.35 451.05 387.15 453.3 386.35 453.3 Q384.7 453.3 383.15 452.3 L385.5 432.15 Q385.85 431.85 386.65 431.3 L387.9 430.45 393.05 442.5 397.65 428.9 398.5 428.8 Q399.45 428.8 403.8 430.2 403.75 434.05 404.25 442.95 L404.65 447.35 404.95 450.65" fill="#000000" fill-rule="evenodd" stroke="none"/>
    <path d="M404.95 450.65 L404.95 452.35 402.55 452.7 400.55 453.3 399.65 447.6 398.65 441.9 Q397.1 446.3 396.25 452.95 L394.85 453.55 393.55 453.95 392.7 453.5 390.5 447.7 388.05 441.6 Q387.65 442.55 387.65 444.85 L387.55 448.85 387.35 451.05 387.15 453.3 386.35 453.3 Q384.7 453.3 383.15 452.3 L385.5 432.15 Q385.85 431.85 386.65 431.3 L387.9 430.45 393.05 442.5 397.65 428.9 398.5 428.8 Q399.45 428.8 403.8 430.2 403.75 434.05 404.25 442.95 L404.65 447.35 404.95 450.65 Z" fill="none" stroke="#000000" stroke-linecap="round" stroke-linejoin="round" stroke-width="4.0"/>
    <path d="M417.1 439.65 L417.15 441.55 410.15 443.45 410.15 445.45 410.7 445.95 Q411.3 445.95 412.9 445.35 L415.1 444.75 416.5 444.75 416.5 448.7 406.3 452.75 405.2 441.5 404.55 432.15 404.55 429.95 415.85 429.95 415.75 433.55 408.15 435.05 408.15 436.8 408.55 437.4 Q408.75 437.6 409.15 437.6 L412.0 437.1 417.15 436.1 417.1 439.65" fill="#000000" fill-rule="evenodd" stroke="none"/>
    <path d="M417.1 439.65 L417.15 441.55 410.15 443.45 410.15 445.45 410.7 445.95 Q411.3 445.95 412.9 445.35 L415.1 444.75 416.5 444.75 416.5 448.7 406.3 452.75 405.2 441.5 404.55 432.15 404.55 429.95 415.85 429.95 415.75 433.55 408.15 435.05 408.15 436.8 408.55 437.4 Q408.75 437.6 409.15 437.6 L412.0 437.1 417.15 436.1 417.1 439.65 Z" fill="none" stroke="#000000" stroke-linecap="round" stroke-linejoin="round" stroke-width="4.0"/>
    <path d="M243.1 442.15 L246.25 444.25 Q248.7 445.9 249.65 447.35 L247.3 452.8 242.55 448.5 Q240.15 446.3 237.85 444.7 L237.8 445.85 238.05 449.6 Q236.45 450.25 233.25 450.9 L232.85 443.9 232.85 432.55 Q232.85 431.7 233.5 430.35 233.85 429.85 234.1 429.9 L237.05 429.9 237.2 431.2 Q237.3 432.05 237.6 432.05 L239.0 431.25 Q240.3 430.45 240.65 430.35 L243.55 429.9 Q245.35 429.9 246.65 430.8 248.5 432.15 248.5 435.0 248.5 437.9 246.4 439.9 L243.1 442.15 M244.45 435.25 Q243.55 434.55 243.1 434.55 242.15 434.55 241.6 435.65 241.05 436.6 241.05 437.55 L241.15 438.2 243.05 437.1 Q244.15 436.45 244.45 435.25" fill="#ffff00" fill-rule="evenodd" stroke="none"/>
    <path d="M261.45 441.55 L254.4 443.45 254.4 445.45 255.0 445.95 257.2 445.35 259.4 444.75 260.8 444.75 260.8 448.7 250.6 452.75 249.5 441.5 248.85 432.15 248.85 429.95 260.15 429.95 260.05 433.55 Q257.8 433.8 252.45 435.05 L252.45 436.8 252.85 437.4 Q253.05 437.6 253.45 437.6 L256.3 437.1 261.45 436.1 261.4 439.65 261.45 441.55" fill="#ffff00" fill-rule="evenodd" stroke="none"/>
    <path d="M276.75 444.0 Q276.75 445.4 275.65 447.35 273.35 451.45 267.95 451.45 L264.65 451.2 Q262.65 450.85 261.45 449.75 L262.65 446.8 265.25 447.5 267.85 448.0 Q268.9 448.0 270.2 446.9 271.5 445.85 271.7 444.8 270.45 442.75 267.8 442.75 L266.85 442.75 265.9 442.75 Q263.85 442.75 262.85 441.7 262.5 441.35 262.25 440.35 L262.05 438.85 Q262.05 432.55 269.75 432.55 L272.3 432.7 275.75 433.95 Q275.35 434.45 275.05 435.95 L274.75 438.1 274.15 438.1 271.65 437.5 268.9 436.85 267.55 436.9 Q267.0 437.05 266.1 437.95 266.65 438.8 267.55 438.95 L270.25 439.15 Q272.75 439.35 274.5 440.35 276.75 441.6 276.75 444.0" fill="#ffff00" fill-rule="evenodd" stroke="none"/>
    <path d="M291.75 434.85 Q289.85 435.55 288.9 436.1 286.95 437.2 286.35 438.5 L287.9 450.35 Q284.5 451.4 282.35 452.55 L281.75 440.05 Q281.5 439.75 281.1 439.75 280.7 439.75 279.8 440.25 L278.7 440.75 277.75 441.05 276.75 441.35 275.55 441.35 275.7 439.15 275.55 434.95 289.55 429.95 291.15 429.95 291.75 434.85" fill="#ffff00" fill-rule="evenodd" stroke="none"/>
    <path d="M304.2 438.2 Q305.9 441.9 308.5 449.15 L305.4 451.5 303.3 453.0 Q303.05 453.0 302.05 450.65 L300.45 447.1 297.45 447.5 Q295.75 447.7 294.95 448.45 294.6 448.7 294.05 450.3 L293.25 451.75 291.9 451.15 290.35 450.4 297.6 430.55 299.05 430.1 Q299.45 430.1 301.65 433.75 L304.2 438.2 M300.4 441.15 Q299.75 439.1 298.75 437.5 L297.7 441.5 300.4 441.15" fill="#ffff00" fill-rule="evenodd" stroke="none"/>
    <path d="M317.85 442.15 L321.0 444.25 Q323.45 445.9 324.4 447.35 L322.05 452.8 317.3 448.5 Q314.9 446.3 312.6 444.7 L312.55 445.85 312.8 449.6 Q311.2 450.25 308.0 450.9 L307.6 443.9 307.6 432.55 Q307.6 431.7 308.25 430.35 308.6 429.85 308.85 429.9 L311.8 429.9 311.95 431.2 Q312.05 432.05 312.35 432.05 L313.75 431.25 315.4 430.35 318.3 429.9 Q320.1 429.9 321.4 430.8 323.25 432.15 323.25 435.0 323.25 437.9 321.15 439.9 320.15 440.9 317.85 442.15 M319.2 435.25 Q318.3 434.55 317.85 434.55 316.9 434.55 316.35 435.65 315.8 436.6 315.8 437.55 L315.9 438.2 317.8 437.1 Q318.9 436.45 319.2 435.25" fill="#ffff00" fill-rule="evenodd" stroke="none"/>
    <path d="M339.05 434.85 Q337.15 435.55 336.2 436.1 334.25 437.2 333.7 438.5 L335.2 450.35 Q331.8 451.4 329.65 452.55 L329.05 440.05 Q328.8 439.75 328.4 439.75 328.0 439.75 327.1 440.25 L326.0 440.75 325.05 441.05 324.05 441.35 322.85 441.35 323.0 439.15 322.85 434.95 336.85 429.95 338.45 429.95 339.05 434.85" fill="#ffff00" fill-rule="evenodd" stroke="none"/>
    <path d="M367.5 442.75 L365.55 443.65 366.7 447.3 Q365.1 449.4 363.55 450.45 L361.55 451.45 359.45 452.1 Q356.7 452.1 354.7 450.85 351.65 449.05 351.65 444.95 L351.9 442.0 Q352.3 439.1 355.35 436.35 358.05 433.85 359.7 433.85 L363.4 433.85 363.5 434.7 363.2 437.55 362.55 437.35 Q360.8 437.3 358.6 439.15 356.1 441.15 356.1 443.4 356.1 444.2 356.65 444.9 357.15 445.6 357.95 445.6 L359.35 445.6 359.35 441.6 Q361.85 440.45 367.1 439.15 367.05 440.4 367.5 442.75" fill="#ffff00" fill-rule="evenodd" stroke="none"/>
    <path d="M379.9 438.2 Q381.6 441.9 384.2 449.15 L381.15 451.5 379.0 453.0 Q378.75 453.0 377.75 450.65 L376.15 447.1 373.15 447.5 Q371.45 447.7 370.65 448.45 370.3 448.7 369.75 450.3 L368.95 451.75 Q368.75 451.75 367.6 451.15 L366.05 450.4 373.3 430.55 374.75 430.1 Q375.15 430.1 377.35 433.75 L379.9 438.2 M376.1 441.15 Q375.45 439.1 374.45 437.5 L373.4 441.5 376.1 441.15" fill="#ffff00" fill-rule="evenodd" stroke="none"/>
    <path d="M404.95 452.35 L402.6 452.7 400.6 453.3 399.65 447.6 398.7 441.9 Q397.1 446.3 396.25 452.95 L394.85 453.55 393.55 453.95 392.7 453.5 390.5 447.7 388.1 441.6 Q387.65 442.55 387.65 444.85 L387.6 448.85 387.35 451.05 387.2 453.3 386.35 453.3 Q384.7 453.3 383.15 452.3 L385.55 432.15 Q385.85 431.85 386.65 431.3 L387.9 430.45 393.1 442.5 397.7 428.9 398.55 428.8 403.8 430.2 Q403.75 434.05 404.25 442.95 L404.65 447.35 404.95 450.65 404.95 452.35" fill="#ffff00" fill-rule="evenodd" stroke="none"/>
    <path d="M417.15 441.55 L410.15 443.45 410.15 445.45 410.7 445.95 Q411.3 445.95 412.9 445.35 L415.1 444.75 416.5 444.75 416.5 448.7 406.3 452.75 405.2 441.5 404.55 432.15 404.55 429.95 415.85 429.95 415.75 433.55 408.15 435.05 408.15 436.8 408.55 437.4 Q408.75 437.6 409.15 437.6 L412.0 437.1 417.15 436.1 417.1 439.65 417.15 441.55" fill="#ffff00" fill-rule="evenodd" stroke="none"/>
  </g>
</svg>
