<?xml version="1.0" encoding="UTF-8" standalone="no"?>
<svg xmlns:xlink="http://www.w3.org/1999/xlink" height="28.0px" width="20.85px" xmlns="http://www.w3.org/2000/svg">
  <g transform="matrix(1.0, 0.0, 0.0, 1.0, 10.4, 14.0)">
    <path d="M7.75 13.15 L7.6 13.35 5.85 13.55 5.25 13.55 Q4.4 10.8 1.55 9.7 L1.45 9.75 1.4 9.85 1.45 9.95 Q4.0 11.15 4.95 13.55 L0.0 13.0 Q-2.3 12.6 -4.45 11.55 -5.75 10.9 -6.35 9.7 L-6.35 9.6 -6.25 9.35 -6.2 9.3 Q-4.65 7.25 -2.8 5.45 L-2.7 5.45 -2.35 5.05 -2.3 4.95 -2.25 4.9 -2.25 4.85 -1.35 3.2 Q-0.9 2.1 -0.75 0.95 -0.55 -0.5 -1.0 -1.95 -1.85 -4.75 -4.05 -6.8 L-8.55 -10.7 -8.6 -10.75 -8.75 -10.9 -8.8 -10.85 -9.4 -11.4 Q-10.0 -11.95 -10.0 -12.75 -9.95 -13.3 -9.45 -13.4 -6.8 -13.95 -5.15 -12.0 L-5.05 -11.9 -5.0 -11.8 -4.95 -11.7 -4.9 -11.65 -4.85 -11.65 -3.4 -10.1 -2.35 -8.65 -1.05 -7.25 0.85 -4.5 Q2.2 -2.15 2.15 0.55 2.1 2.9 0.95 4.95 L1.0 5.0 1.05 5.05 1.1 5.05 1.05 5.1 1.05 5.2 1.1 5.45 2.25 6.35 6.1 8.2 8.4 9.65 Q9.6 10.45 10.1 11.65 9.8 12.45 8.95 12.8 L8.25 13.1 Q7.65 10.55 5.0 9.65 L4.95 9.65 4.95 9.75 Q6.25 10.45 7.15 11.7 L7.9 13.1 7.75 13.15" fill="url(#gradient0)" fill-rule="evenodd" stroke="none"/>
    <path d="M7.9 13.1 L7.15 11.7 Q6.25 10.45 4.95 9.75 L4.95 9.65 5.0 9.65 Q7.65 10.55 8.25 13.1 L8.95 12.8 Q9.8 12.45 10.1 11.65 9.6 10.45 8.4 9.65 L6.1 8.2 2.25 6.35 1.1 5.45 1.05 5.2 1.05 5.1 1.1 5.05 1.05 5.05 1.0 5.0 0.95 4.95 Q2.1 2.9 2.15 0.55 2.2 -2.15 0.85 -4.5 L-1.05 -7.25 -2.35 -8.65 -3.4 -10.1 -4.85 -11.65 -4.9 -11.65 -4.95 -11.7 -5.0 -11.8 -5.05 -11.9 -5.15 -12.0 Q-6.8 -13.95 -9.45 -13.4 -9.95 -13.3 -10.0 -12.75 -10.0 -11.95 -9.4 -11.4 L-8.8 -10.85 -8.75 -10.9 -8.6 -10.75 -8.55 -10.7 -4.05 -6.8 Q-1.85 -4.75 -1.0 -1.95 -0.55 -0.5 -0.75 0.95 -0.9 2.1 -1.35 3.2 L-2.25 4.85 -2.25 4.9 -2.3 4.95 -2.35 5.05 -2.7 5.45 -2.8 5.45 Q-4.65 7.25 -6.2 9.3 L-6.25 9.35 -6.35 9.6 -6.35 9.7 Q-5.75 10.9 -4.45 11.55 -2.3 12.6 0.0 13.0 L4.95 13.55 Q4.0 11.15 1.45 9.95 L1.4 9.85 1.45 9.75 1.55 9.7 Q4.4 10.8 5.25 13.55 L5.85 13.55 7.6 13.35 7.75 13.15 7.8 13.15 7.9 13.15 7.9 13.1 M8.35 13.55 L7.25 13.85 7.05 13.8 Q4.55 14.25 1.95 13.75 L-3.15 12.55 Q-5.25 11.9 -6.5 10.15 -6.95 9.5 -6.45 8.9 L-6.3 8.85 Q-4.85 6.8 -2.95 5.05 L-2.9 5.0 -2.7 4.9 Q-1.6 3.4 -1.25 1.6 -0.75 -0.6 -1.6 -2.65 -2.3 -4.25 -3.5 -5.55 -5.45 -7.7 -7.8 -9.5 L-8.3 -9.95 Q-9.75 -10.85 -10.35 -12.5 L-10.4 -12.9 Q-10.05 -14.0 -8.85 -14.0 -6.25 -14.0 -4.75 -12.1 L-4.6 -11.9 -1.1 -7.95 Q0.95 -5.75 1.95 -2.95 2.95 -0.05 2.25 2.9 L1.55 4.6 1.25 5.05 Q2.6 6.55 4.8 7.15 L6.05 7.65 Q8.6 9.05 10.35 11.3 10.55 11.6 10.4 11.9 9.7 13.15 8.35 13.55" fill="#000000" fill-rule="evenodd" stroke="none"/>
  </g>
  <defs>
    <linearGradient gradientTransform="matrix(-0.0121, 0.0022, -0.003, -0.0162, -3.15, 0.15)" gradientUnits="userSpaceOnUse" id="gradient0" spreadMethod="pad" x1="-819.2" x2="819.2">
      <stop offset="0.0" stop-color="#236fdd"/>
      <stop offset="1.0" stop-color="#000000"/>
    </linearGradient>
  </defs>
</svg>
