<?xml version="1.0" encoding="UTF-8" standalone="no"?>
<svg xmlns:xlink="http://www.w3.org/1999/xlink" height="69.35px" width="32.45px" xmlns="http://www.w3.org/2000/svg">
  <g transform="matrix(1.0, 0.0, 0.0, 1.0, 16.2, 34.65)">
    <use height="69.35" transform="matrix(1.0, 0.0, 0.0, 1.0, -16.2, -34.65)" width="32.45" xlink:href="#shape0"/>
  </g>
  <defs>
    <g id="shape0" transform="matrix(1.0, 0.0, 0.0, 1.0, 16.2, 34.65)">
      <path d="M-15.65 -28.95 Q-7.3 -34.75 1.7 -34.65 4.55 -18.95 9.7 -3.25 L10.35 -1.25 10.6 -0.4 10.9 0.45 Q15.75 15.65 16.25 29.3 13.4 33.65 8.85 34.7 1.3 25.25 -1.5 9.35 L-6.0 -29.1 -11.25 -27.2 Q-15.3 -25.25 -16.2 -28.6 L-15.65 -28.85 Q-15.3 -29.15 -15.65 -28.95" fill="#000000" fill-rule="evenodd" stroke="none"/>
      <path d="M-16.2 -28.6 L-15.65 -28.95 Q-15.3 -29.15 -15.65 -28.85 M-16.2 -28.6 L-15.65 -28.9 -15.65 -28.95" fill="none" stroke="#339900" stroke-linecap="round" stroke-linejoin="round" stroke-width="0.05"/>
    </g>
  </defs>
</svg>
