<?xml version="1.0" encoding="UTF-8" standalone="no"?>
<svg xmlns:xlink="http://www.w3.org/1999/xlink" height="13.65px" width="126.8px" xmlns="http://www.w3.org/2000/svg">
  <g transform="matrix(1.0, 0.0, 0.0, 1.0, -0.7, -3.7)">
    <g transform="matrix(1.0, 0.0, 0.0, 1.0, 0.0, 0.0)">
      <use fill="#333333" height="13.65" transform="matrix(0.332, 0.0, 0.0, 0.332, 0.0, 17.15)" width="126.8" xlink:href="#font_Impact_R0"/>
      <use fill="#333333" height="13.65" transform="matrix(0.332, 0.0, 0.0, 0.332, 9.4, 17.15)" width="126.8" xlink:href="#font_Impact_e0"/>
      <use fill="#333333" height="13.65" transform="matrix(0.332, 0.0, 0.0, 0.332, 18.35, 17.15)" width="126.8" xlink:href="#font_Impact_a0"/>
      <use fill="#333333" height="13.65" transform="matrix(0.332, 0.0, 0.0, 0.332, 27.15, 17.15)" width="126.8" xlink:href="#font_Impact_d0"/>
      <use fill="#333333" height="13.65" transform="matrix(0.332, 0.0, 0.0, 0.332, 39.5, 17.15)" width="126.8" xlink:href="#font_Impact_A0"/>
      <use fill="#333333" height="13.65" transform="matrix(0.332, 0.0, 0.0, 0.332, 48.4, 17.15)" width="126.8" xlink:href="#font_Impact_l0"/>
      <use fill="#333333" height="13.65" transform="matrix(0.332, 0.0, 0.0, 0.332, 53.3, 17.15)" width="126.8" xlink:href="#font_Impact_l0"/>
      <use fill="#333333" height="13.65" transform="matrix(0.332, 0.0, 0.0, 0.332, 61.45, 17.15)" width="126.8" xlink:href="#font_Impact_A0"/>
      <use fill="#333333" height="13.65" transform="matrix(0.332, 0.0, 0.0, 0.332, 70.35, 17.15)" width="126.8" xlink:href="#font_Impact_b0"/>
      <use fill="#333333" height="13.65" transform="matrix(0.332, 0.0, 0.0, 0.332, 79.45, 17.15)" width="126.8" xlink:href="#font_Impact_o0"/>
      <use fill="#333333" height="13.65" transform="matrix(0.332, 0.0, 0.0, 0.332, 88.4, 17.15)" width="126.8" xlink:href="#font_Impact_u0"/>
      <use fill="#333333" height="13.65" transform="matrix(0.332, 0.0, 0.0, 0.332, 97.55, 17.15)" width="126.8" xlink:href="#font_Impact_t0"/>
      <use fill="#333333" height="13.65" transform="matrix(0.332, 0.0, 0.0, 0.332, 106.25, 17.15)" width="126.8" xlink:href="#font_Impact_I0"/>
      <use fill="#333333" height="13.65" transform="matrix(0.332, 0.0, 0.0, 0.332, 111.4, 17.15)" width="126.8" xlink:href="#font_Impact_t0"/>
    </g>
  </g>
  <defs>
    <g id="font_Impact_R0">
      <path d="M25.6 -29.4 Q25.6 -24.7 24.45 -23.05 23.25 -21.45 19.8 -21.1 22.95 -20.35 24.0 -19.05 25.1 -17.75 25.35 -16.65 L25.6 -10.65 25.6 0.0 15.85 0.0 15.85 -13.45 Q15.85 -16.7 15.35 -17.45 14.8 -18.25 12.65 -18.25 L12.65 0.0 2.1 0.0 2.1 -40.45 9.55 -40.45 19.65 -39.9 Q22.3 -39.3 23.95 -36.95 25.6 -34.6 25.6 -29.4 M12.65 -33.55 L12.65 -24.55 Q14.4 -24.55 15.15 -25.0 15.85 -25.5 15.85 -28.2 L15.85 -30.4 Q15.85 -32.35 15.15 -32.95 14.45 -33.55 12.65 -33.55" fill-rule="evenodd" stroke="none"/>
    </g>
    <g id="font_Impact_e0">
      <path d="M11.85 -27.25 Q11.6 -26.6 11.6 -23.8 L11.6 -21.4 14.55 -21.4 14.55 -23.8 14.3 -27.15 Q14.0 -27.9 13.15 -27.9 12.1 -27.9 11.85 -27.25 M19.7 -32.15 Q22.45 -30.55 23.6 -27.85 24.7 -25.2 24.7 -20.4 L24.7 -16.0 11.6 -16.0 11.6 -8.8 Q11.6 -6.55 11.95 -5.9 12.25 -5.25 13.2 -5.25 14.35 -5.25 14.75 -6.1 15.1 -7.0 15.1 -9.45 L15.1 -13.85 24.7 -13.85 24.7 -11.4 Q24.7 -8.3 24.3 -6.65 23.9 -5.0 22.5 -3.15 21.05 -1.25 18.9 -0.3 16.7 0.6 13.4 0.6 10.2 0.6 7.75 -0.3 5.3 -1.25 3.95 -2.85 2.55 -4.45 2.05 -6.4 1.5 -8.35 1.5 -12.05 L1.5 -21.7 Q1.5 -26.05 2.7 -28.55 3.85 -31.1 6.55 -32.4 9.2 -33.75 12.7 -33.75 16.95 -33.75 19.7 -32.15" fill-rule="evenodd" stroke="none"/>
    </g>
    <g id="font_Impact_a0">
      <path d="M23.6 -27.5 Q24.15 -24.85 24.15 -16.65 L24.15 0.0 14.3 0.0 14.3 -2.95 Q13.4 -1.15 11.95 -0.3 10.45 0.6 8.45 0.6 5.8 0.6 3.6 -0.85 1.35 -2.35 1.35 -7.4 L1.35 -10.1 Q1.35 -13.85 2.55 -15.2 3.7 -16.55 8.35 -18.35 13.35 -20.3 13.7 -20.95 14.05 -21.65 14.05 -23.7 14.05 -26.3 13.65 -27.1 13.25 -27.9 12.35 -27.9 11.35 -27.9 11.1 -27.2 10.85 -26.55 10.85 -23.8 L10.85 -20.3 1.35 -20.3 1.35 -22.55 Q1.35 -26.4 2.25 -28.45 3.15 -30.55 5.8 -32.15 8.5 -33.75 12.75 -33.75 17.9 -33.75 20.5 -31.95 23.1 -30.15 23.6 -27.5 M11.25 -12.8 Q10.85 -11.6 10.85 -9.35 10.85 -6.75 11.2 -6.0 11.5 -5.25 12.5 -5.25 13.45 -5.25 13.75 -5.85 14.05 -6.45 14.05 -8.95 L14.05 -15.75 Q11.6 -14.0 11.25 -12.8" fill-rule="evenodd" stroke="none"/>
    </g>
    <g id="font_Impact_d0">
      <path d="M8.4 -33.75 L11.85 -33.1 Q13.4 -32.4 14.7 -31.05 L14.7 -40.45 24.8 -40.45 24.8 0.0 14.7 0.0 14.7 -2.4 Q13.25 -0.9 11.65 -0.15 10.05 0.6 8.3 0.6 5.95 0.6 4.2 -0.6 2.5 -1.85 2.0 -3.5 1.5 -5.1 1.5 -8.8 L1.5 -24.3 Q1.5 -28.15 2.0 -29.75 2.5 -31.35 4.25 -32.55 6.0 -33.75 8.4 -33.75 M14.4 -27.25 Q14.05 -27.9 13.15 -27.9 12.25 -27.9 11.95 -27.3 11.6 -26.75 11.6 -24.8 L11.6 -8.55 Q11.6 -6.55 11.9 -5.9 12.2 -5.25 13.05 -5.25 14.05 -5.25 14.35 -5.95 14.7 -6.7 14.7 -9.45 L14.7 -24.8 Q14.7 -26.65 14.4 -27.25" fill-rule="evenodd" stroke="none"/>
    </g>
    <g id="font_Impact_A0">
      <path d="M14.75 -14.45 Q13.95 -21.3 13.15 -31.45 11.5 -19.8 11.1 -14.45 L14.75 -14.45 M20.3 -40.45 L26.35 0.0 15.55 0.0 15.0 -7.25 11.25 -7.25 10.6 0.0 -0.25 0.0 5.1 -40.45 20.3 -40.45" fill-rule="evenodd" stroke="none"/>
    </g>
    <g id="font_Impact_l0">
      <path d="M12.2 -40.45 L12.2 0.0 1.8 0.0 1.8 -40.45 12.2 -40.45" fill-rule="evenodd" stroke="none"/>
    </g>
    <g id="font_Impact_b0">
      <path d="M23.95 -31.3 Q24.75 -30.1 24.95 -29.0 L25.1 -24.2 25.1 -9.25 Q25.1 -5.6 24.6 -3.8 24.1 -2.0 22.3 -0.7 20.5 0.6 18.05 0.6 16.25 0.6 14.75 -0.15 13.2 -0.95 11.9 -2.5 L11.25 0.0 1.8 0.0 1.8 -40.45 11.9 -40.45 11.9 -30.9 Q13.15 -32.35 14.7 -33.05 16.25 -33.75 18.05 -33.75 20.1 -33.75 21.65 -33.1 23.15 -32.45 23.95 -31.3 M12.2 -27.2 Q11.9 -26.5 11.9 -23.75 L11.9 -9.45 Q11.9 -6.75 12.25 -6.0 12.55 -5.25 13.45 -5.25 14.4 -5.25 14.7 -6.05 15.0 -6.8 15.0 -9.75 L15.0 -23.75 Q15.0 -26.3 14.65 -27.1 14.35 -27.9 13.4 -27.9 12.45 -27.9 12.2 -27.2" fill-rule="evenodd" stroke="none"/>
    </g>
    <g id="font_Impact_o0">
      <path d="M24.2 -26.75 Q24.65 -25.05 24.65 -21.5 L24.65 -13.4 Q24.65 -8.9 24.2 -6.8 23.75 -4.75 22.3 -2.9 20.8 -1.1 18.5 -0.25 16.2 0.6 13.2 0.6 L7.5 -0.1 Q5.2 -0.85 3.9 -2.35 2.6 -3.85 2.05 -5.95 1.5 -8.05 1.5 -12.3 L1.5 -20.8 Q1.5 -25.4 2.5 -28.0 3.5 -30.6 6.1 -32.2 8.7 -33.75 12.75 -33.75 16.15 -33.75 18.6 -32.75 21.05 -31.75 22.35 -30.1 23.7 -28.5 24.2 -26.75 M11.9 -27.2 Q11.6 -26.55 11.6 -24.0 L11.6 -9.05 Q11.6 -6.7 11.9 -5.95 12.2 -5.25 13.1 -5.25 14.0 -5.25 14.3 -5.9 L14.55 -8.7 14.55 -24.0 14.3 -27.2 Q14.0 -27.9 13.1 -27.9 12.2 -27.9 11.9 -27.2" fill-rule="evenodd" stroke="none"/>
    </g>
    <g id="font_Impact_u0">
      <path d="M11.75 -33.15 L11.75 -10.6 Q11.75 -6.7 12.0 -6.0 12.25 -5.25 13.3 -5.25 14.4 -5.25 14.65 -6.0 14.85 -6.75 14.85 -10.85 L14.85 -33.15 24.95 -33.15 24.95 0.0 14.65 0.0 14.85 -2.75 Q13.8 -1.05 12.25 -0.25 10.7 0.6 8.7 0.6 6.45 0.6 4.95 -0.2 3.45 -1.0 2.75 -2.3 2.0 -3.65 1.85 -5.05 1.65 -6.5 1.65 -10.8 L1.65 -33.15 11.75 -33.15" fill-rule="evenodd" stroke="none"/>
    </g>
    <g id="font_Impact_t0">
      <path d="M0.15 -27.1 L0.15 -32.35 2.35 -32.35 2.35 -37.6 12.45 -37.6 12.45 -32.35 15.2 -32.35 15.2 -27.1 12.45 -27.1 12.45 -9.35 Q12.45 -6.1 12.8 -5.7 L15.6 -5.35 15.6 0.0 11.55 0.0 6.6 -0.25 Q5.15 -0.55 4.0 -1.6 2.9 -2.65 2.6 -3.95 2.35 -5.3 2.35 -10.25 L2.35 -27.1 0.15 -27.1" fill-rule="evenodd" stroke="none"/>
    </g>
    <g id="font_Impact_I0">
      <path d="M12.65 -40.45 L12.65 0.0 2.1 0.0 2.1 -40.45 12.65 -40.45" fill-rule="evenodd" stroke="none"/>
    </g>
  </defs>
</svg>
