<?xml version="1.0" encoding="UTF-8" standalone="no"?>
<svg xmlns:xlink="http://www.w3.org/1999/xlink" height="50.9px" width="141.85px" xmlns="http://www.w3.org/2000/svg">
  <g transform="matrix(1.0, 0.0, 0.0, 1.0, -11.7, -4.85)">
    <g transform="matrix(1.0, 0.0, 0.0, 1.0, 10.65, 0.0)">
      <use fill="#333333" height="50.9" transform="matrix(0.4688, 0.0, 0.0, 0.4688, 13.8, 24.2)" width="141.85" xlink:href="#font_Impact_C0"/>
      <use fill="#333333" height="50.9" transform="matrix(0.4688, 0.0, 0.0, 0.4688, 27.1, 24.2)" width="141.85" xlink:href="#font_Impact_l0"/>
      <use fill="#333333" height="50.9" transform="matrix(0.4688, 0.0, 0.0, 0.4688, 33.65, 24.2)" width="141.85" xlink:href="#font_Impact_i0"/>
      <use fill="#333333" height="50.9" transform="matrix(0.4688, 0.0, 0.0, 0.4688, 40.2, 24.2)" width="141.85" xlink:href="#font_Impact_c0"/>
      <use fill="#333333" height="50.9" transform="matrix(0.4688, 0.0, 0.0, 0.4688, 52.05, 24.2)" width="141.85" xlink:href="#font_Impact_k0"/>
      <use fill="#333333" height="50.9" transform="matrix(0.4688, 0.0, 0.0, 0.4688, 67.75, 24.2)" width="141.85" xlink:href="#font_Impact_H0"/>
      <use fill="#333333" height="50.9" transform="matrix(0.4688, 0.0, 0.0, 0.4688, 81.05, 24.2)" width="141.85" xlink:href="#font_Impact_e0"/>
      <use fill="#333333" height="50.9" transform="matrix(0.4688, 0.0, 0.0, 0.4688, 93.3, 24.2)" width="141.85" xlink:href="#font_Impact_r0"/>
      <use fill="#333333" height="50.9" transform="matrix(0.4688, 0.0, 0.0, 0.4688, 101.9, 24.2)" width="141.85" xlink:href="#font_Impact_e0"/>
    </g>
    <g transform="matrix(1.0, 0.0, 0.0, 1.0, 10.65, 0.0)">
      <use fill="#333333" height="50.9" transform="matrix(0.4688, 0.0, 0.0, 0.4688, 0.05, 55.45)" width="141.85" xlink:href="#font_Impact_F0"/>
      <use fill="#333333" height="50.9" transform="matrix(0.4688, 0.0, 0.0, 0.4688, 9.6, 55.45)" width="141.85" xlink:href="#font_Impact_o0"/>
      <use fill="#333333" height="50.9" transform="matrix(0.4688, 0.0, 0.0, 0.4688, 21.85, 55.45)" width="141.85" xlink:href="#font_Impact_r0"/>
      <use fill="#333333" height="50.9" transform="matrix(0.4688, 0.0, 0.0, 0.4688, 34.7, 55.45)" width="141.85" xlink:href="#font_Impact_M0"/>
      <use fill="#333333" height="50.9" transform="matrix(0.4688, 0.0, 0.0, 0.4688, 51.9, 55.45)" width="141.85" xlink:href="#font_Impact_o0"/>
      <use fill="#333333" height="50.9" transform="matrix(0.4688, 0.0, 0.0, 0.4688, 64.15, 55.45)" width="141.85" xlink:href="#font_Impact_r0"/>
      <use fill="#333333" height="50.9" transform="matrix(0.4688, 0.0, 0.0, 0.4688, 72.75, 55.45)" width="141.85" xlink:href="#font_Impact_e0"/>
      <use fill="#333333" height="50.9" transform="matrix(0.4688, 0.0, 0.0, 0.4688, 89.25, 55.45)" width="141.85" xlink:href="#font_Impact_I0"/>
      <use fill="#333333" height="50.9" transform="matrix(0.4688, 0.0, 0.0, 0.4688, 96.15, 55.45)" width="141.85" xlink:href="#font_Impact_n0"/>
      <use fill="#333333" height="50.9" transform="matrix(0.4688, 0.0, 0.0, 0.4688, 108.7, 55.45)" width="141.85" xlink:href="#font_Impact_f0"/>
      <use fill="#333333" height="50.9" transform="matrix(0.4688, 0.0, 0.0, 0.4688, 115.65, 55.45)" width="141.85" xlink:href="#font_Impact_o0"/>
    </g>
  </g>
  <defs>
    <g id="font_Impact_C0">
      <path d="M26.7 -26.7 L26.7 -22.85 16.15 -22.85 16.15 -29.85 Q16.15 -32.95 15.85 -33.7 15.5 -34.45 14.35 -34.45 13.05 -34.45 12.7 -33.55 12.35 -32.6 12.35 -29.55 L12.35 -10.75 Q12.35 -7.8 12.7 -6.9 13.05 -6.0 14.25 -6.0 15.45 -6.0 15.8 -6.9 16.15 -7.8 16.15 -11.1 L16.15 -16.2 26.7 -16.2 26.7 -14.65 Q26.7 -8.35 25.8 -5.7 24.9 -3.1 21.9 -1.1 18.85 0.85 14.4 0.85 9.75 0.85 6.75 -0.8 3.75 -2.5 2.8 -5.45 1.8 -8.4 1.8 -14.35 L1.8 -26.2 Q1.8 -30.55 2.1 -32.75 2.4 -34.95 3.9 -36.95 5.4 -39.0 8.05 -40.15 10.65 -41.3 14.1 -41.3 18.75 -41.3 21.75 -39.5 24.8 -37.7 25.75 -35.05 26.7 -32.35 26.7 -26.7" fill-rule="evenodd" stroke="none"/>
    </g>
    <g id="font_Impact_l0">
      <path d="M12.2 -40.45 L12.2 0.0 1.8 0.0 1.8 -40.45 12.2 -40.45" fill-rule="evenodd" stroke="none"/>
    </g>
    <g id="font_Impact_i0">
      <path d="M12.2 -33.15 L12.2 0.0 1.8 0.0 1.8 -33.15 12.2 -33.15 M12.2 -40.45 L12.2 -35.2 1.8 -35.2 1.8 -40.45 12.2 -40.45" fill-rule="evenodd" stroke="none"/>
    </g>
    <g id="font_Impact_c0">
      <path d="M19.5 -32.1 Q22.3 -30.4 23.2 -27.85 24.15 -25.3 24.15 -20.65 L14.6 -20.65 14.6 -24.45 Q14.6 -26.45 14.3 -27.15 13.95 -27.9 13.1 -27.9 12.2 -27.9 11.9 -27.25 11.6 -26.65 11.6 -24.45 L11.6 -8.8 Q11.6 -7.05 12.05 -6.15 12.5 -5.25 13.4 -5.25 14.4 -5.25 14.8 -6.2 15.15 -7.1 15.15 -9.7 L15.15 -13.65 24.15 -13.65 23.85 -7.65 Q23.6 -5.7 22.2 -3.6 20.75 -1.5 18.5 -0.45 16.2 0.6 12.85 0.6 8.6 0.6 6.1 -0.85 3.6 -2.3 2.55 -4.95 1.5 -7.6 1.5 -12.45 L1.5 -21.85 Q1.5 -26.1 2.35 -28.25 3.2 -30.4 6.0 -32.05 8.75 -33.75 12.75 -33.75 16.7 -33.75 19.5 -32.1" fill-rule="evenodd" stroke="none"/>
    </g>
    <g id="font_Impact_k0">
      <path d="M23.55 -33.15 L19.45 -19.95 24.8 0.0 15.1 0.0 11.95 -14.45 11.9 0.0 1.8 0.0 1.8 -40.45 11.9 -40.45 11.95 -23.45 15.1 -33.15 23.55 -33.15" fill-rule="evenodd" stroke="none"/>
    </g>
    <g id="font_Impact_H0">
      <path d="M26.3 -40.45 L26.3 0.0 15.8 0.0 15.8 -17.0 12.65 -17.0 12.65 0.0 2.1 0.0 2.1 -40.45 12.65 -40.45 12.65 -26.0 15.8 -26.0 15.8 -40.45 26.3 -40.45" fill-rule="evenodd" stroke="none"/>
    </g>
    <g id="font_Impact_e0">
      <path d="M11.85 -27.25 Q11.6 -26.6 11.6 -23.8 L11.6 -21.4 14.55 -21.4 14.55 -23.8 14.3 -27.15 Q14.0 -27.9 13.15 -27.9 12.1 -27.9 11.85 -27.25 M19.7 -32.15 Q22.45 -30.55 23.6 -27.85 24.7 -25.2 24.7 -20.4 L24.7 -16.0 11.6 -16.0 11.6 -8.8 Q11.6 -6.55 11.95 -5.9 12.25 -5.25 13.2 -5.25 14.35 -5.25 14.75 -6.1 15.1 -7.0 15.1 -9.45 L15.1 -13.85 24.7 -13.85 24.7 -11.4 Q24.7 -8.3 24.3 -6.65 23.9 -5.0 22.5 -3.15 21.05 -1.25 18.9 -0.3 16.7 0.6 13.4 0.6 10.2 0.6 7.75 -0.3 5.3 -1.25 3.95 -2.85 2.55 -4.45 2.05 -6.4 1.5 -8.35 1.5 -12.05 L1.5 -21.7 Q1.5 -26.05 2.7 -28.55 3.85 -31.1 6.55 -32.4 9.2 -33.75 12.7 -33.75 16.95 -33.75 19.7 -32.15" fill-rule="evenodd" stroke="none"/>
    </g>
    <g id="font_Impact_r0">
      <path d="M11.9 -33.15 L11.5 -28.8 Q13.7 -33.5 17.9 -33.75 L17.9 -22.1 Q15.1 -22.1 13.8 -21.35 12.5 -20.6 12.2 -19.25 11.9 -17.9 11.9 -13.1 L11.9 0.0 1.8 0.0 1.8 -33.15 11.9 -33.15" fill-rule="evenodd" stroke="none"/>
    </g>
    <g id="font_Impact_F0">
      <path d="M12.65 -17.0 L12.65 0.0 2.1 0.0 2.1 -40.45 19.95 -40.45 19.95 -32.35 12.65 -32.35 12.65 -24.7 19.15 -24.7 19.15 -17.0 12.65 -17.0" fill-rule="evenodd" stroke="none"/>
    </g>
    <g id="font_Impact_o0">
      <path d="M24.2 -26.75 Q24.65 -25.05 24.65 -21.5 L24.65 -13.4 Q24.65 -8.9 24.2 -6.8 23.75 -4.75 22.3 -2.9 20.8 -1.1 18.5 -0.25 16.2 0.6 13.2 0.6 L7.5 -0.1 Q5.2 -0.85 3.9 -2.35 2.6 -3.85 2.05 -5.95 1.5 -8.05 1.5 -12.3 L1.5 -20.8 Q1.5 -25.4 2.5 -28.0 3.5 -30.6 6.1 -32.2 8.7 -33.75 12.75 -33.75 16.15 -33.75 18.6 -32.75 21.05 -31.75 22.35 -30.1 23.7 -28.5 24.2 -26.75 M11.9 -27.2 Q11.6 -26.55 11.6 -24.0 L11.6 -9.05 Q11.6 -6.7 11.9 -5.95 12.2 -5.25 13.1 -5.25 14.0 -5.25 14.3 -5.9 L14.55 -8.7 14.55 -24.0 14.3 -27.2 Q14.0 -27.9 13.1 -27.9 12.2 -27.9 11.9 -27.2" fill-rule="evenodd" stroke="none"/>
    </g>
    <g id="font_Impact_M0">
      <path d="M34.6 -40.45 L34.6 0.0 25.4 0.0 25.4 -27.3 21.7 0.0 15.2 0.0 11.35 -26.7 11.3 0.0 2.1 0.0 2.1 -40.45 15.75 -40.45 17.0 -31.85 18.5 -21.55 20.9 -40.45 34.6 -40.45" fill-rule="evenodd" stroke="none"/>
    </g>
    <g id="font_Impact_I0">
      <path d="M12.65 -40.45 L12.65 0.0 2.1 0.0 2.1 -40.45 12.65 -40.45" fill-rule="evenodd" stroke="none"/>
    </g>
    <g id="font_Impact_n0">
      <path d="M24.65 -29.45 Q25.1 -27.6 25.1 -23.25 L25.1 0.0 15.0 0.0 15.0 -22.95 Q15.0 -26.4 14.8 -27.15 14.55 -27.9 13.55 -27.9 12.45 -27.9 12.2 -27.0 11.9 -26.15 11.9 -22.4 L11.9 0.0 1.8 0.0 1.8 -33.15 12.1 -33.15 11.9 -30.1 Q13.0 -31.95 14.6 -32.85 16.2 -33.75 18.25 -33.75 20.85 -33.75 22.5 -32.55 24.15 -31.3 24.65 -29.45" fill-rule="evenodd" stroke="none"/>
    </g>
    <g id="font_Impact_f0">
      <path d="M14.7 -40.45 L14.7 -35.35 11.0 -35.05 Q10.45 -34.75 10.45 -33.4 L10.45 -32.35 14.7 -32.35 14.7 -27.1 12.3 -27.1 12.3 0.0 2.2 0.0 2.2 -27.1 0.1 -27.1 0.1 -32.35 2.2 -32.35 2.4 -36.75 Q2.65 -37.85 3.55 -38.7 4.4 -39.55 6.0 -40.0 L11.0 -40.45 14.7 -40.45" fill-rule="evenodd" stroke="none"/>
    </g>
  </defs>
</svg>
