<?xml version="1.0" encoding="UTF-8" standalone="no"?>
<svg xmlns:xlink="http://www.w3.org/1999/xlink" height="98.9px" width="131.8px" xmlns="http://www.w3.org/2000/svg">
  <g transform="matrix(1.0, 0.0, 0.0, 1.0, 65.9, 49.45)">
    <use height="38.0" transform="matrix(1.0646, 0.0, 0.0, 1.0646, 26.8148, -46.8272)" width="36.7" xlink:href="#sprite0"/>
    <use height="92.9" transform="matrix(1.0646, 0.0, 0.0, 1.0646, -60.5604, -49.4502)" width="105.6" xlink:href="#sprite1"/>
    <use height="46.35" transform="matrix(1.0646, 0.0, 0.0, 1.0646, -65.8834, -41.6953)" width="32.05" xlink:href="#sprite2"/>
    <use height="37.15" transform="matrix(1.0581, 0.0, 0.0, 1.0581, -26.8093, -20.0485)" width="77.7" xlink:href="#button0"/>
  </g>
  <defs>
    <g id="sprite0" transform="matrix(1.0, 0.0, 0.0, 1.0, 18.35, 19.0)">
      <use height="38.0" transform="matrix(1.0, 0.0, 0.0, 1.0, -18.35, -19.0)" width="36.7" xlink:href="#shape0"/>
    </g>
    <g id="shape0" transform="matrix(1.0, 0.0, 0.0, 1.0, 18.35, 19.0)">
      <path d="M-18.3 -17.5 L-16.9 10.1 15.65 16.75 Q14.8 12.0 13.4 7.55 9.6 -5.2 2.2 -15.6 L-18.3 -17.5" fill="#878743" fill-rule="evenodd" stroke="none"/>
      <path d="M-16.9 10.1 L-16.85 11.8 18.35 19.0 Q17.0 13.2 15.1 7.6 10.75 -5.15 3.35 -17.2 L-18.35 -19.0 -18.3 -17.5 2.2 -15.6 Q9.6 -5.2 13.4 7.55 14.8 12.0 15.65 16.75 L-16.9 10.1" fill="#333300" fill-rule="evenodd" stroke="none"/>
    </g>
    <g id="sprite1" transform="matrix(1.0, 0.0, 0.0, 1.0, 52.8, 46.45)">
      <use height="92.9" transform="matrix(1.0, 0.0, 0.0, 1.0, -52.8, -46.45)" width="105.6" xlink:href="#shape1"/>
    </g>
    <g id="shape1" transform="matrix(1.0, 0.0, 0.0, 1.0, 52.8, 46.45)">
      <path d="M5.4 -37.65 L4.75 -44.3 -48.0 -38.55 -26.8 -34.25 5.4 -37.65 M6.05 -44.25 L7.05 -37.9 44.85 -41.35 6.05 -44.25 M51.2 -42.25 L52.1 -27.4 52.25 -24.35 Q53.5 4.05 52.0 32.4 14.1 41.9 -19.65 46.45 -33.05 37.65 -45.75 25.25 -51.0 -7.8 -52.8 -39.3 L4.65 -46.45 50.8 -42.35 51.2 -42.25 M49.9 -27.4 L48.8 -39.85 -26.4 -32.1 Q-25.05 6.95 -18.6 44.4 14.8 39.8 49.8 30.9 51.9 3.25 50.1 -24.35 L49.9 -27.4 M-50.3 -37.6 Q-49.7 -6.05 -44.15 24.7 -33.0 35.5 -20.75 43.5 -26.75 3.25 -28.75 -32.45 L-50.3 -37.6" fill="#333300" fill-rule="evenodd" stroke="none"/>
      <path d="M6.05 -44.25 L44.85 -41.35 7.05 -37.9 6.05 -44.25" fill="#999933" fill-rule="evenodd" stroke="none"/>
      <path d="M5.4 -37.65 L-26.8 -34.25 -48.0 -38.55 4.75 -44.3 5.4 -37.65" fill="#666633" fill-rule="evenodd" stroke="none"/>
      <path d="M49.9 -27.4 L50.1 -24.35 Q51.9 3.25 49.8 30.9 14.8 39.8 -18.6 44.4 -25.05 6.95 -26.4 -32.1 L48.8 -39.85 49.9 -27.4" fill="#cccc99" fill-rule="evenodd" stroke="none"/>
      <path d="M-50.3 -37.6 L-28.75 -32.45 Q-26.75 3.25 -20.75 43.5 -33.0 35.5 -44.15 24.7 -49.7 -6.05 -50.3 -37.6" fill="#999966" fill-rule="evenodd" stroke="none"/>
    </g>
    <g id="sprite2" transform="matrix(1.0, 0.0, 0.0, 1.0, 16.0, 23.15)">
      <use height="46.35" transform="matrix(1.0, 0.0, 0.0, 1.0, -16.0, -23.15)" width="32.05" xlink:href="#shape2"/>
    </g>
    <g id="shape2" transform="matrix(1.0, 0.0, 0.0, 1.0, 16.0, 23.15)">
      <path d="M14.1 -16.25 L-9.5 -21.6 Q-14.4 -8.25 -14.75 6.5 L6.7 20.25 Q6.9 -0.65 14.1 -16.25 M16.05 -17.35 Q7.75 2.95 8.4 23.2 L-16.0 7.15 Q-15.7 -8.8 -10.85 -23.15 L16.05 -17.35" fill="#333300" fill-rule="evenodd" stroke="none"/>
      <path d="M14.1 -16.25 Q6.9 -0.65 6.7 20.25 L-14.75 6.5 Q-14.4 -8.25 -9.5 -21.6 L14.1 -16.25" fill="#999933" fill-rule="evenodd" stroke="none"/>
    </g>
    <g id="button0" transform="matrix(1.0, 0.0, 0.0, 1.0, 35.45, 18.05)">
      <use height="35.85" transform="matrix(1.0, 0.0, 0.0, 1.0, -35.45, -18.05)" width="77.7" xlink:href="#sprite3"/>
    </g>
    <g id="sprite3" transform="matrix(1.0, 0.0, 0.0, 1.0, 35.45, 18.25)">
      <use height="22.4" transform="matrix(0.8528, -0.1173, 0.0, 1.1239, -35.4481, -7.551)" width="91.1" xlink:href="#text0"/>
    </g>
    <g id="text0" transform="matrix(1.0, 0.0, 0.0, 1.0, 13.6, -2.45)">
      <g transform="matrix(1.0, 0.0, 0.0, 1.0, -14.2, 0.0)">
        <use fill="#3333ff" height="22.4" transform="matrix(0.2344, 0.0, 0.0, 0.2344, 17.45, 12.5)" width="91.1" xlink:href="#font_ComicBook_Bold_G0"/>
        <use fill="#3333ff" height="22.4" transform="matrix(0.2344, 0.0, 0.0, 0.2344, 29.2, 12.5)" width="91.1" xlink:href="#font_ComicBook_Bold_O0"/>
        <use fill="#3333ff" height="22.4" transform="matrix(0.2344, 0.0, 0.0, 0.2344, 45.7, 12.5)" width="91.1" xlink:href="#font_ComicBook_Bold_T0"/>
        <use fill="#3333ff" height="22.4" transform="matrix(0.2344, 0.0, 0.0, 0.2344, 55.45, 12.5)" width="91.1" xlink:href="#font_ComicBook_Bold_O0"/>
      </g>
      <g transform="matrix(1.0, 0.0, 0.0, 1.0, -14.2, 0.0)">
        <use fill="#3333ff" height="22.4" transform="matrix(0.2344, 0.0, 0.0, 0.2344, 0.1, 24.35)" width="91.1" xlink:href="#font_ComicBook_Bold_T0"/>
        <use fill="#3333ff" height="22.4" transform="matrix(0.2344, 0.0, 0.0, 0.2344, 9.85, 24.35)" width="91.1" xlink:href="#font_ComicBook_Bold_O0"/>
        <use fill="#3333ff" height="22.4" transform="matrix(0.2344, 0.0, 0.0, 0.2344, 21.2, 24.35)" width="91.1" xlink:href="#font_ComicBook_Bold_O0"/>
        <use fill="#3333ff" height="22.4" transform="matrix(0.2344, 0.0, 0.0, 0.2344, 32.55, 24.35)" width="91.1" xlink:href="#font_ComicBook_Bold_N0"/>
        <use fill="#3333ff" height="22.4" transform="matrix(0.2344, 0.0, 0.0, 0.2344, 41.1, 24.35)" width="91.1" xlink:href="#font_ComicBook_Bold_T0"/>
        <use fill="#3333ff" height="22.4" transform="matrix(0.2344, 0.0, 0.0, 0.2344, 50.85, 24.35)" width="91.1" xlink:href="#font_ComicBook_Bold_O0"/>
        <use fill="#3333ff" height="22.4" transform="matrix(0.2344, 0.0, 0.0, 0.2344, 62.2, 24.35)" width="91.1" xlink:href="#font_ComicBook_Bold_W0"/>
        <use fill="#3333ff" height="22.4" transform="matrix(0.2344, 0.0, 0.0, 0.2344, 75.65, 24.35)" width="91.1" xlink:href="#font_ComicBook_Bold_N0"/>
      </g>
    </g>
    <g id="font_ComicBook_Bold_G0">
      <path d="M37.8 -41.1 Q43.9 -39.0 44.6 -36.2 44.0 -30.35 38.6 -30.35 32.15 -32.2 28.65 -32.2 23.0 -32.2 17.5 -27.05 12.6 -22.55 11.05 -17.55 10.75 -16.55 10.75 -15.7 10.75 -13.25 12.7 -12.05 14.6 -10.8 18.55 -10.7 23.85 -10.7 33.2 -14.9 34.05 -15.1 34.05 -15.45 34.05 -16.05 33.0 -16.05 L31.95 -15.95 25.8 -14.85 20.65 -13.95 16.5 -14.15 Q14.3 -14.75 14.3 -17.3 14.35 -20.0 16.5 -21.9 17.6 -22.85 20.55 -24.25 L23.65 -25.45 27.65 -26.45 32.75 -27.3 32.8 -27.25 35.65 -27.7 38.55 -27.95 41.7 -27.55 Q43.55 -27.15 44.8 -25.85 46.25 -24.35 46.25 -22.2 L46.3 -22.0 Q45.0 -8.85 34.8 -2.55 31.4 -0.5 27.4 0.7 23.4 1.85 19.15 2.0 L18.35 2.05 17.7 2.05 Q10.0 2.05 5.4 -1.0 -0.7 -5.0 -0.7 -13.7 L-0.65 -15.2 Q-0.25 -22.05 3.9 -28.65 L6.85 -32.6 10.35 -36.05 14.25 -38.9 Q20.45 -42.9 26.55 -42.9 32.25 -42.9 37.8 -41.1" fill-rule="evenodd" stroke="none"/>
    </g>
    <g id="font_ComicBook_Bold_O0">
      <path d="M23.65 -29.95 Q20.9 -29.95 18.25 -28.8 15.3 -27.45 14.0 -25.2 11.7 -21.1 11.7 -16.15 11.7 -13.15 12.85 -12.35 L12.85 -12.3 Q14.5 -10.25 18.35 -10.25 23.3 -10.25 26.1 -13.55 L26.2 -13.55 Q28.35 -15.9 29.4 -18.3 30.45 -20.65 30.45 -23.25 30.45 -26.7 28.1 -28.65 26.85 -29.95 23.65 -29.95 M31.75 -40.75 Q35.35 -39.35 37.25 -37.05 42.3 -30.8 42.3 -22.6 42.3 -18.3 41.0 -14.35 39.65 -10.35 37.0 -6.7 L37.0 -6.75 Q33.8 -2.35 28.75 0.0 24.0 2.2 18.65 2.2 L13.75 1.7 Q11.35 1.2 9.25 0.15 6.95 -0.95 5.2 -2.5 3.45 -4.05 2.15 -6.05 -0.8 -10.75 -0.8 -16.15 -0.8 -19.3 0.15 -22.5 1.1 -25.7 3.15 -29.0 4.6 -31.5 6.3 -33.5 8.0 -35.55 9.95 -37.15 12.95 -39.65 16.45 -40.9 20.0 -42.2 24.05 -42.2 28.2 -42.2 31.75 -40.75" fill-rule="evenodd" stroke="none"/>
    </g>
    <g id="font_ComicBook_Bold_T0">
      <path d="M38.0 -40.85 Q40.3 -39.45 40.3 -36.65 40.3 -34.05 38.45 -32.15 36.6 -30.3 34.1 -30.3 L28.6 -29.75 26.4 -29.65 25.5 -29.6 Q25.9 -28.75 25.9 -23.8 L25.65 -15.75 Q25.5 -13.8 24.75 -9.6 24.15 -6.0 24.15 -2.85 L24.15 -2.75 Q23.65 -0.65 21.95 0.45 20.2 1.7 18.05 1.7 12.7 1.7 12.2 -2.65 L12.2 -2.8 12.35 -7.6 12.8 -13.4 Q13.4 -19.55 13.4 -23.05 13.4 -25.8 13.0 -29.1 L13.1 -29.05 12.95 -29.6 8.5 -29.05 6.05 -29.35 Q5.05 -29.6 4.15 -30.25 2.15 -31.7 2.15 -34.35 2.15 -36.9 4.05 -38.6 5.85 -40.15 8.25 -40.15 L12.75 -40.4 19.45 -41.0 27.15 -41.65 33.75 -41.9 Q36.25 -41.9 38.0 -40.85" fill-rule="evenodd" stroke="none"/>
    </g>
    <g id="font_ComicBook_Bold_N0">
      <path d="M32.75 -38.05 Q32.75 -35.05 31.85 -31.0 30.9 -26.7 30.85 -24.85 L30.8 -22.2 Q30.8 -19.4 31.2 -15.15 L32.1 -7.35 32.1 -7.3 Q32.1 -5.55 31.55 -4.25 31.0 -3.0 29.8 -2.05 27.95 -0.6 25.0 -0.1 L24.95 -0.1 22.85 0.1 Q19.9 0.1 16.55 -3.2 L16.5 -3.25 Q13.6 -6.15 11.65 -10.4 L10.75 -12.15 10.1 -13.5 9.8 -14.05 9.65 -13.9 9.3 -12.85 9.25 -10.2 Q9.25 -7.05 9.65 -4.55 L9.75 -3.2 Q9.75 -0.1 7.2 1.25 L7.1 1.35 Q6.15 1.9 4.6 1.9 0.15 1.9 -0.45 -2.25 L-0.45 -2.35 Q-0.8 -3.95 -0.8 -5.9 -0.8 -7.95 -0.1 -11.45 0.65 -15.25 0.65 -16.85 L0.65 -17.75 0.65 -19.05 0.7 -20.35 0.75 -23.5 Q0.75 -28.3 -0.65 -31.95 L-0.6 -31.85 Q-1.0 -32.9 -1.0 -34.0 -1.0 -36.05 0.35 -37.65 1.8 -39.25 4.1 -39.3 8.45 -39.3 11.35 -34.85 12.5 -33.0 12.8 -30.85 13.05 -28.5 13.25 -28.0 L13.25 -27.85 14.1 -25.3 Q14.45 -24.25 15.15 -23.15 L15.05 -23.2 14.7 -23.5 17.85 -19.35 19.1 -17.7 20.95 -15.25 21.4 -19.7 21.25 -23.85 21.1 -27.65 21.15 -30.4 21.2 -32.8 Q21.2 -37.25 21.85 -39.1 L21.85 -39.25 Q22.5 -40.95 23.8 -42.2 25.5 -43.5 27.45 -43.5 29.8 -43.5 31.3 -41.8 32.75 -40.15 32.75 -38.05" fill-rule="evenodd" stroke="none"/>
    </g>
    <g id="font_ComicBook_Bold_W0">
      <path d="M25.65 -42.6 L26.7 -42.5 Q29.5 -42.5 31.8 -35.6 L32.35 -32.75 32.35 -29.15 Q32.35 -27.85 33.0 -24.55 33.55 -21.85 34.05 -20.8 L37.0 -28.05 37.8 -30.1 38.9 -32.9 39.75 -35.05 40.75 -37.7 40.65 -37.7 Q42.25 -40.2 43.95 -41.45 45.65 -42.7 47.7 -42.7 50.0 -42.4 51.4 -40.45 52.85 -38.55 52.85 -36.05 L52.75 -34.95 Q51.9 -29.8 49.9 -25.45 L48.3 -22.25 46.9 -19.3 45.15 -15.85 42.05 -10.05 37.6 -2.6 Q36.45 -0.65 34.65 0.35 32.95 1.4 31.3 1.4 28.1 1.4 28.1 -1.7 27.35 -3.7 25.85 -10.7 24.6 -16.0 23.75 -16.0 L23.55 -15.9 20.9 -9.3 17.75 -2.55 Q17.75 -1.45 15.8 0.25 13.65 2.05 11.7 2.05 8.35 2.05 7.1 -2.85 L7.1 -2.9 Q3.55 -13.7 2.15 -18.85 L1.15 -23.0 0.35 -26.5 -0.6 -31.65 -1.45 -36.3 -1.55 -37.25 Q-1.55 -39.6 0.0 -41.0 1.55 -42.55 3.65 -42.55 L3.7 -42.55 Q5.65 -42.55 7.35 -41.45 L10.4 -38.75 Q11.5 -37.7 12.1 -35.75 12.65 -33.8 12.65 -31.1 L12.35 -26.1 12.05 -22.1 Q12.05 -21.25 12.3 -20.85 12.5 -20.4 13.1 -20.4 L16.05 -26.0 Q17.4 -28.65 18.1 -31.35 19.15 -35.4 19.15 -36.75 L19.1 -36.85 Q19.1 -39.0 21.05 -40.8 23.0 -42.6 25.65 -42.6" fill-rule="evenodd" stroke="none"/>
    </g>
  </defs>
</svg>
