<?xml version="1.0" encoding="UTF-8" standalone="no"?>
<svg xmlns:xlink="http://www.w3.org/1999/xlink" height="104.6px" width="153.7px" xmlns="http://www.w3.org/2000/svg">
  <g transform="matrix(1.0, 0.0, 0.0, 1.0, 3.25, 75.0)">
    <use height="75.0" transform="matrix(0.0, 1.0, -1.0, 0.0, 75.0, 0.0)" width="5.0" xlink:href="#sprite0"/>
    <use height="75.0" id="angleArm_mc" transform="matrix(1.0, 0.0, 0.0, 1.0, 0.0, -75.0)" width="5.0" xlink:href="#sprite0"/>
    <use height="27.1" transform="matrix(1.0, 0.0, 0.0, 1.0, -3.25, 2.5)" width="153.7" xlink:href="#text0"/>
  </g>
  <defs>
    <g id="sprite0" transform="matrix(1.0, 0.0, 0.0, 1.0, 0.0, 75.0)">
      <use height="75.0" transform="matrix(1.0, 0.0, 0.0, 1.0, 0.0, -75.0)" width="5.0" xlink:href="#shape0"/>
    </g>
    <g id="shape0" transform="matrix(1.0, 0.0, 0.0, 1.0, 0.0, 75.0)">
      <path d="M5.0 -75.0 L5.0 0.0 2.0 0.0 2.0 -75.0 5.0 -75.0" fill="#000000" fill-rule="evenodd" stroke="none"/>
      <path d="M3.0 -75.0 L3.0 0.0 0.0 0.0 0.0 -75.0 3.0 -75.0" fill="#ffffff" fill-rule="evenodd" stroke="none"/>
    </g>
  </defs>
</svg>
