<?xml version="1.0" encoding="UTF-8" standalone="no"?>
<svg xmlns:xlink="http://www.w3.org/1999/xlink" height="192.15px" width="131.7px" xmlns="http://www.w3.org/2000/svg">
  <g transform="matrix(1.0, 0.0, 0.0, 1.0, 33.75, 164.1)">
    <use height="44.15" transform="matrix(0.8671, -0.4869, 0.4869, 0.8671, 12.2697, -94.3041)" width="74.05" xlink:href="#shape0"/>
    <use height="41.1" transform="matrix(1.0, 0.0, 0.0, 1.0, -6.15, -21.8)" width="53.3" xlink:href="#shape1"/>
    <use height="52.05" transform="matrix(1.0, 0.0, 0.0, 1.0, -30.85, -24.0)" width="60.2" xlink:href="#shape2"/>
    <use height="92.15" transform="matrix(0.9, 0.0, 0.0, 0.9, -33.7498, -88.1796)" width="73.55" xlink:href="#shape3"/>
    <use height="79.85" transform="matrix(0.7729, -0.456, 0.456, 0.7729, -19.0894, -62.8665)" width="66.1" xlink:href="#shape4"/>
    <use height="61.55" transform="matrix(0.9, 0.0, 0.0, 0.9, -6.3098, -160.4748)" width="53.85" xlink:href="#shape5"/>
    <use height="72.7" transform="matrix(0.9, 0.0, 0.0, 0.9, -11.1098, -132.3996)" width="61.35" xlink:href="#shape6"/>
    <use height="59.15" transform="matrix(0.81, 0.0, 0.0, 0.81, -3.2, -135.535)" width="52.1" xlink:href="#shape7"/>
    <use height="14.65" transform="matrix(0.8365, 0.0028, -0.0022, 0.6691, 10.2397, -120.2265)" width="6.45" xlink:href="#shape8"/>
    <use height="14.65" transform="matrix(0.8365, 0.0028, -0.0022, 0.6691, 20.0897, -120.2265)" width="6.45" xlink:href="#shape8"/>
  </g>
  <defs>
    <g id="shape0" transform="matrix(1.0, 0.0, 0.0, 1.0, 5.8, 20.85)">
      <path d="M67.5 -4.35 Q67.4 -5.55 66.4 -5.55 L63.8 -5.0 Q58.95 -3.45 56.6 -4.0 L56.25 -2.6 Q55.35 -5.45 59.25 -9.45 L63.0 -13.2 Q65.4 -15.85 65.2 -16.75 64.8 -18.35 62.0 -17.6 59.15 -16.85 56.75 -14.65 54.85 -12.95 52.4 -10.05 L48.9 -6.5 49.55 -5.95 Q48.8 -5.75 48.4 -6.25 46.55 -8.0 49.5 -13.65 L51.35 -17.55 Q52.0 -19.4 51.05 -20.0 48.85 -21.4 45.05 -16.25 41.25 -11.15 40.6 -6.45 L40.05 1.6 39.1 9.05 38.85 10.05 38.9 10.0 39.6 9.1 Q39.3 10.45 38.4 11.8 L36.4 14.2 34.95 15.5 Q33.35 16.75 33.0 17.35 32.45 18.35 33.45 19.35 L33.5 19.4 34.0 19.8 Q34.9 20.35 36.3 20.2 38.0 19.9 39.8 18.7 44.0 15.7 44.0 11.55 44.5 12.5 44.15 13.6 46.85 12.9 49.05 9.75 51.5 6.2 50.05 3.35 51.2 4.3 51.15 6.55 51.0 8.8 49.7 10.3 55.55 7.4 57.1 0.95 L57.25 1.95 Q60.7 2.0 64.2 -0.2 67.6 -2.35 67.5 -4.35 M1.6 -5.5 L1.4 -5.65 1.65 -5.55 2.75 -4.5 5.15 -2.15 Q9.1 1.3 13.55 2.15 L17.5 1.9 19.15 1.55 Q20.0 1.4 20.5 1.55 L21.7 1.55 22.5 1.2 23.25 1.0 24.1 1.55 Q24.8 0.2 26.1 -0.95 27.45 -2.1 29.0 -2.7 L32.1 -3.15 Q33.6 -2.95 36.35 -1.05 L39.55 -1.55 Q39.55 -5.0 39.85 -6.6 40.3 -10.6 43.9 -15.95 48.0 -22.15 51.3 -20.5 52.6 -19.95 52.2 -18.05 51.95 -16.8 50.7 -14.15 49.05 -10.95 48.75 -9.95 47.95 -7.85 48.6 -6.9 L51.15 -9.5 54.8 -13.85 Q58.75 -18.3 62.75 -18.6 64.35 -18.75 65.2 -18.1 66.1 -17.4 65.85 -16.25 65.4 -14.3 61.65 -10.75 57.65 -6.95 56.85 -4.65 L60.6 -4.8 64.1 -5.85 66.9 -6.3 Q68.05 -6.05 68.25 -4.35 68.45 -2.05 65.1 0.25 61.5 2.6 57.15 2.6 56.55 5.55 54.25 8.05 51.9 10.45 48.75 11.4 46.95 13.4 44.1 14.15 43.1 17.95 38.95 19.95 35.45 21.7 33.55 20.35 L31.75 22.05 Q26.95 25.55 21.8 19.25 14.2 21.25 6.45 16.75 3.0 14.8 0.05 11.8 -2.65 9.1 -4.65 5.95 L-4.85 5.6 -4.55 5.75 -3.9 6.35 -2.4 8.1 Q0.2 11.1 2.5 13.0 10.65 19.7 20.95 18.1 20.0 13.15 20.75 9.8 21.1 8.3 21.9 6.35 L23.75 2.15 Q20.65 2.1 14.55 9.45 15.2 7.65 16.85 5.85 L19.9 2.85 Q20.15 1.2 15.95 3.6 14.6 4.35 12.65 5.65 L10.3 7.2 Q10.85 6.15 12.3 5.25 L13.55 4.45 14.75 3.65 Q11.1 2.85 8.8 1.7 6.95 0.75 5.65 -0.65 L1.6 -5.5 M28.3 13.3 Q29.05 15.1 30.25 15.75 L32.2 16.7 Q29.3 16.95 28.05 14.9 26.9 13.0 27.4 9.8 27.85 6.7 29.6 3.8 31.35 0.7 33.8 -0.75 34.15 -1.8 32.1 -2.15 29.35 -2.6 26.8 -0.2 24.5 1.9 22.95 5.65 21.45 9.25 21.25 12.8 21.0 16.45 22.35 18.45 24.7 21.9 27.4 22.3 29.7 22.65 32.0 20.8 L33.05 19.9 32.95 19.8 Q31.4 17.9 33.7 15.75 L35.85 13.95 36.7 13.1 37.25 11.1 36.35 11.1 Q31.95 11.45 28.1 12.45 L28.15 12.9 28.3 13.35 28.3 13.3 M39.5 -0.65 L34.75 -0.05 Q30.9 3.1 29.5 6.95 28.75 8.95 28.7 11.2 L37.4 10.5 38.05 10.45 38.35 9.05 Q39.05 5.5 39.5 -0.65" fill="#000000" fill-rule="evenodd" stroke="none"/>
      <path d="M67.5 -4.35 Q67.6 -2.35 64.2 -0.2 60.7 2.0 57.25 1.95 L57.1 0.95 Q55.55 7.4 49.7 10.3 51.0 8.8 51.15 6.55 51.2 4.3 50.05 3.35 51.5 6.2 49.05 9.75 46.85 12.9 44.15 13.6 44.5 12.5 44.0 11.55 44.0 15.7 39.8 18.7 38.0 19.9 36.3 20.2 34.9 20.35 34.0 19.8 L33.5 19.4 33.45 19.35 Q32.45 18.35 33.0 17.35 33.35 16.75 34.95 15.5 L36.4 14.2 38.4 11.8 Q39.3 10.45 39.6 9.1 L38.9 10.0 38.85 10.05 39.1 9.05 40.05 1.6 40.6 -6.45 Q41.25 -11.15 45.05 -16.25 48.85 -21.4 51.05 -20.0 52.0 -19.4 51.35 -17.55 L49.5 -13.65 Q46.55 -8.0 48.4 -6.25 48.8 -5.75 49.55 -5.95 L48.9 -6.5 52.4 -10.05 Q54.85 -12.95 56.75 -14.65 59.15 -16.85 62.0 -17.6 64.8 -18.35 65.2 -16.75 65.4 -15.85 63.0 -13.2 L59.25 -9.45 Q55.35 -5.45 56.25 -2.6 L56.6 -4.0 Q58.95 -3.45 63.8 -5.0 L66.4 -5.55 Q67.4 -5.55 67.5 -4.35 M28.3 13.3 L28.3 13.35 28.15 12.9 28.3 13.3 M39.5 -0.65 Q39.05 5.5 38.35 9.05 L38.05 10.45 37.4 10.5 28.7 11.2 Q28.75 8.95 29.5 6.95 30.9 3.1 34.75 -0.05 L39.5 -0.65" fill="#ffffff" fill-rule="evenodd" stroke="none"/>
      <path d="M28.1 12.45 Q31.95 11.45 36.35 11.1 L37.25 11.1 36.7 13.1 35.85 13.95 33.7 15.75 Q31.4 17.9 32.95 19.8 L33.05 19.9 32.0 20.8 Q29.7 22.65 27.4 22.3 24.7 21.9 22.35 18.45 21.0 16.45 21.25 12.8 21.45 9.25 22.95 5.65 24.5 1.9 26.8 -0.2 29.35 -2.6 32.1 -2.15 34.15 -1.8 33.8 -0.75 31.35 0.7 29.6 3.8 27.85 6.7 27.4 9.8 26.9 13.0 28.05 14.9 29.3 16.95 32.2 16.7 L30.25 15.75 Q29.05 15.1 28.3 13.3 L28.15 12.9 28.1 12.45" fill="#990000" fill-rule="evenodd" stroke="none"/>
      <path d="M-4.55 5.75 Q-8.9 -7.55 1.6 -5.5 L5.65 -0.65 Q6.95 0.75 8.8 1.7 11.1 2.85 14.75 3.65 L13.55 4.45 12.3 5.25 Q10.85 6.15 10.3 7.2 L12.65 5.65 Q14.6 4.35 15.95 3.6 20.15 1.2 19.9 2.85 L16.85 5.85 Q15.2 7.65 14.55 9.45 20.65 2.1 23.75 2.15 L21.9 6.35 Q21.1 8.3 20.75 9.8 20.0 13.15 20.95 18.1 10.65 19.7 2.5 13.0 0.2 11.1 -2.4 8.1 L-3.9 6.35 -4.55 5.75" fill="#660099" fill-rule="evenodd" stroke="none"/>
    </g>
    <g id="shape1" transform="matrix(1.0, 0.0, 0.0, 1.0, 16.75, 6.85)">
      <path d="M-5.7 -1.45 Q-2.2 1.55 -1.95 3.4 L-1.9 4.15 -2.2 5.4 -2.6 6.5 -2.6 6.6 -3.4 8.15 -3.2 8.2 Q-0.7 9.15 2.8 9.15 6.3 9.15 8.75 8.2 L9.5 7.9 9.5 7.85 9.6 7.55 9.9 6.5 10.1 5.65 10.2 4.5 Q10.3 2.65 9.7 1.1 8.75 -1.25 6.75 -3.1 5.05 -4.6 1.5 -6.3 L2.35 -6.85 Q9.15 -3.0 10.25 0.4 11.35 3.8 11.1 5.4 L10.75 7.0 10.7 7.15 10.5 7.75 10.4 8.05 Q11.35 8.75 11.35 9.6 11.35 11.05 8.6 12.1 L7.6 12.4 7.45 12.6 13.55 12.0 24.05 11.25 30.35 11.65 Q30.45 12.15 31.15 12.25 37.7 13.35 36.3 16.85 L35.45 18.25 34.65 19.25 Q34.3 19.7 34.35 20.3 34.35 20.95 34.9 22.05 35.3 22.8 34.7 24.4 34.15 25.75 33.45 26.5 32.8 27.15 31.0 27.75 L27.5 28.75 Q25.35 29.35 24.4 29.9 23.0 30.65 22.95 31.6 20.8 34.75 14.35 34.15 8.85 33.65 5.1 32.2 1.3 30.75 0.8 30.8 0.25 30.8 -1.1 30.0 L-3.65 28.6 -5.9 27.5 Q-5.7 27.3 -6.05 27.0 -8.65 25.85 -10.95 24.35 -16.3 20.85 -16.65 19.0 -16.9 17.35 -14.65 15.8 L-14.25 15.55 -14.15 15.45 -13.9 14.6 Q-13.05 14.5 -11.7 13.85 L-9.3 12.65 -6.95 10.8 Q-7.5 10.25 -7.5 9.6 -7.5 8.5 -5.9 7.65 -5.55 7.4 -5.0 7.25 L-4.75 7.1 -3.85 6.85 Q-3.25 5.6 -3.15 4.5 L-3.1 3.75 Q-3.25 1.9 -6.35 -1.1 L-5.7 -1.45 M35.1 15.1 Q34.8 14.3 33.3 13.9 L30.3 13.25 Q24.05 19.4 17.55 29.05 17.35 30.2 15.15 29.95 10.0 29.85 1.85 27.9 L1.5 29.45 1.85 29.6 Q10.5 32.8 16.25 33.15 22.0 33.45 22.65 29.2 23.75 28.45 25.5 27.95 L30.6 26.7 Q32.95 26.1 33.5 24.75 34.0 23.4 33.5 21.65 33.05 19.85 33.6 18.65 L34.7 16.7 Q35.25 15.65 35.1 15.1 M22.7 12.05 L13.8 12.95 6.5 13.7 Q4.55 15.65 1.2 17.45 L6.1 12.8 1.95 13.15 Q-1.95 13.15 -4.75 12.1 L-6.25 11.35 Q-8.25 13.0 -11.4 14.8 -12.75 15.55 -13.25 15.3 -13.75 19.9 -5.9 23.7 9.2 28.9 14.75 28.65 16.35 29.05 19.45 24.0 22.55 18.95 29.55 12.4 L22.7 12.05 M10.35 9.25 L10.15 8.55 9.95 8.25 9.15 8.75 8.25 9.1 Q5.8 10.05 2.3 10.05 -1.2 10.05 -3.7 9.1 L-4.0 9.0 -4.95 8.55 -4.35 7.7 -4.3 7.6 -4.9 7.65 Q-5.35 7.7 -5.95 8.1 -6.55 8.5 -6.55 9.25 L-6.25 10.1 -5.55 10.75 -4.1 11.45 Q-1.6 12.4 1.9 12.4 4.9 12.4 7.1 11.7 L7.85 11.45 8.55 11.2 Q10.35 10.35 10.35 9.25 M-10.75 23.4 L-6.05 25.9 -6.1 24.75 Q-15.55 20.05 -14.05 16.5 -15.5 17.55 -15.7 18.3 -16.1 19.6 -10.75 23.4 M-4.9 26.9 Q-2.9 28.4 -0.2 29.25 L0.0 27.25 -4.65 25.55 -4.9 26.9" fill="#000000" fill-rule="evenodd" stroke="none"/>
      <path d="M1.5 -6.3 Q5.05 -4.6 6.75 -3.1 8.75 -1.25 9.7 1.1 10.3 2.65 10.2 4.5 L10.1 5.65 9.9 6.5 9.6 7.55 9.5 7.85 9.5 7.9 8.75 8.2 Q6.3 9.15 2.8 9.15 -0.7 9.15 -3.2 8.2 L-3.4 8.15 -2.6 6.6 -2.6 6.5 -2.2 5.4 -1.9 4.15 -1.95 3.4 Q-2.2 1.55 -5.7 -1.45 -5.6 -7.45 1.5 -6.3 M35.1 15.1 Q35.25 15.65 34.7 16.7 L33.6 18.65 Q33.05 19.85 33.5 21.65 34.0 23.4 33.5 24.75 32.95 26.1 30.6 26.7 L25.5 27.95 Q23.75 28.45 22.65 29.2 22.0 33.45 16.25 33.15 10.5 32.8 1.85 29.6 L1.5 29.45 1.85 27.9 Q10.0 29.85 15.15 29.95 17.35 30.2 17.55 29.05 24.05 19.4 30.3 13.25 L33.3 13.9 Q34.8 14.3 35.1 15.1 M-10.75 23.4 Q-16.1 19.6 -15.7 18.3 -15.5 17.55 -14.05 16.5 -15.55 20.05 -6.1 24.75 L-6.05 25.9 -10.75 23.4" fill="#ffcc00" fill-rule="evenodd" stroke="none"/>
      <path d="M22.7 12.05 L29.55 12.4 Q22.55 18.95 19.45 24.0 16.35 29.05 14.75 28.65 9.2 28.9 -5.9 23.7 -13.75 19.9 -13.25 15.3 -12.75 15.55 -11.4 14.8 -8.25 13.0 -6.25 11.35 L-4.75 12.1 Q-1.95 13.15 1.95 13.15 L6.1 12.8 1.2 17.45 Q4.55 15.65 6.5 13.7 L13.8 12.95 22.7 12.05 M10.35 9.25 Q10.35 10.35 8.55 11.2 L7.85 11.45 7.1 11.7 Q4.9 12.4 1.9 12.4 -1.6 12.4 -4.1 11.45 L-5.55 10.75 -6.25 10.1 -6.55 9.25 Q-6.55 8.5 -5.95 8.1 -5.35 7.7 -4.9 7.65 L-4.3 7.6 -4.35 7.7 -4.95 8.55 -4.0 9.0 -3.7 9.1 Q-1.2 10.05 2.3 10.05 5.8 10.05 8.25 9.1 L9.15 8.75 9.95 8.25 10.15 8.55 10.35 9.25 M-4.9 26.9 L-4.65 25.55 0.0 27.25 -0.2 29.25 Q-2.9 28.4 -4.9 26.9" fill="#990000" fill-rule="evenodd" stroke="none"/>
    </g>
    <g id="shape2" transform="matrix(1.0, 0.0, 0.0, 1.0, 17.75, 5.95)">
      <path d="M6.45 -1.35 L7.4 -1.05 Q10.8 5.2 10.75 11.4 L10.65 13.7 10.5 14.7 10.4 15.45 10.3 16.1 10.7 16.35 Q12.2 17.3 12.2 18.3 12.15 19.65 9.35 20.45 L9.1 20.5 7.1 25.45 15.75 26.95 25.65 29.0 37.0 32.05 Q36.85 32.85 37.0 32.85 L37.7 33.1 Q40.55 34.55 42.45 36.15 42.2 38.65 38.2 39.5 L34.9 39.95 32.15 40.3 Q30.6 42.5 28.4 43.25 L24.25 43.65 20.1 43.25 Q17.75 43.1 16.35 43.75 L13.35 45.15 10.9 46.0 Q8.6 46.45 5.1 45.1 3.05 44.25 -0.95 42.1 L-7.25 38.25 -7.7 38.35 Q-7.65 38.3 -8.15 38.0 L-10.2 36.7 -11.8 35.4 -13.5 33.9 Q-15.1 32.65 -16.6 30.6 -18.9 27.3 -16.55 25.4 -14.95 24.05 -12.2 23.4 L-7.35 22.9 Q-5.95 20.7 -5.05 18.5 -6.6 17.45 -6.6 16.45 -6.55 15.3 -4.6 14.6 L-3.95 14.4 -3.85 13.9 -3.75 12.65 -3.75 12.55 -3.7 11.6 Q-3.8 8.2 -5.1 4.2 L-6.05 1.05 Q-6.85 -1.45 -6.8 -2.7 L-6.7 -4.55 Q-6.6 -5.25 -6.0 -5.85 L-5.35 -5.95 -5.45 -5.9 -5.4 -5.9 Q-6.55 -4.3 -4.7 2.45 L-3.45 7.2 Q-3.0 9.45 -2.95 11.45 L-2.9 12.25 -2.9 12.5 -3.05 14.2 -3.05 14.3 -0.5 15.1 2.65 15.65 6.1 15.95 8.65 15.8 9.2 15.75 9.2 15.55 9.45 14.15 9.55 13.1 Q10.2 5.4 6.45 -1.35 M-3.4 15.2 L-4.1 15.35 Q-5.65 15.65 -5.75 16.25 -5.85 16.8 -4.7 17.5 L-3.85 17.9 -3.55 18.0 Q-1.2 18.95 2.2 19.4 L8.2 19.55 8.25 19.55 9.45 19.35 Q10.8 19.0 10.9 18.45 11.0 17.9 10.0 17.35 9.6 17.05 9.0 16.8 L8.95 16.8 8.55 16.85 2.55 16.7 Q-0.85 16.25 -3.2 15.3 L-3.4 15.2 M-4.25 18.95 L-5.65 21.55 Q-7.05 23.65 -8.85 27.0 L-8.1 23.9 -12.5 24.4 Q-18.95 28.5 4.55 39.35 18.45 32.75 36.3 32.65 33.85 31.65 25.25 29.55 16.6 27.45 6.35 26.75 5.45 27.2 4.35 28.55 6.6 24.55 7.9 20.75 5.6 21.1 2.7 20.8 -1.15 20.45 -3.85 19.15 L-4.25 18.95 M-10.1 32.6 L-11.1 35.35 -7.85 37.45 -6.7 34.9 -10.1 32.6 M-5.95 35.35 L-7.05 37.7 Q-3.6 39.95 0.15 41.9 6.35 45.05 9.05 45.1 11.3 45.1 14.0 43.7 L15.85 42.7 Q16.8 42.2 17.5 42.25 L22.0 42.4 26.5 42.4 Q28.0 42.25 28.95 41.45 L29.75 40.65 Q30.25 40.1 30.85 39.75 31.65 39.2 33.35 38.9 L36.55 38.4 39.55 37.95 Q40.95 37.6 41.25 36.45 40.05 34.9 36.55 33.4 18.25 34.55 4.4 40.95 -1.75 37.85 -5.95 35.35 M-11.6 34.5 L-10.9 32.0 Q-17.6 26.85 -13.55 24.65 -16.6 25.55 -16.65 27.4 -16.8 30.45 -11.6 34.5" fill="#000000" fill-rule="evenodd" stroke="none"/>
      <path d="M6.45 -1.35 Q10.2 5.4 9.55 13.1 L9.45 14.15 9.2 15.55 9.2 15.75 8.65 15.8 6.1 15.95 2.65 15.65 -0.5 15.1 -3.05 14.3 -3.05 14.2 -2.9 12.5 -2.9 12.25 -2.95 11.45 Q-3.0 9.45 -3.45 7.2 L-4.7 2.45 Q-6.55 -4.3 -5.4 -5.9 3.2 -6.15 6.45 -1.35 M-11.6 34.5 Q-16.8 30.45 -16.65 27.4 -16.6 25.55 -13.55 24.65 -17.6 26.85 -10.9 32.0 L-11.6 34.5 M-5.95 35.35 Q-1.75 37.85 4.4 40.95 18.25 34.55 36.55 33.4 40.05 34.9 41.25 36.45 40.95 37.6 39.55 37.95 L36.55 38.4 33.35 38.9 Q31.65 39.2 30.85 39.75 30.25 40.1 29.75 40.65 L28.95 41.45 Q28.0 42.25 26.5 42.4 L22.0 42.4 17.5 42.25 Q16.8 42.2 15.85 42.7 L14.0 43.7 Q11.3 45.1 9.05 45.1 6.35 45.05 0.15 41.9 -3.6 39.95 -7.05 37.7 L-5.95 35.35" fill="#ffcc00" fill-rule="evenodd" stroke="none"/>
      <path d="M-10.1 32.6 L-6.7 34.9 -7.85 37.45 -11.1 35.35 -10.1 32.6 M-4.25 18.95 L-3.85 19.15 Q-1.15 20.45 2.7 20.8 5.6 21.1 7.9 20.75 6.6 24.55 4.35 28.55 5.45 27.2 6.35 26.75 16.6 27.45 25.25 29.55 33.85 31.65 36.3 32.65 18.45 32.75 4.55 39.35 -18.95 28.5 -12.5 24.4 L-8.1 23.9 -8.85 27.0 Q-7.05 23.65 -5.65 21.55 L-4.25 18.95 M-3.4 15.2 L-3.2 15.3 Q-0.85 16.25 2.55 16.7 L8.55 16.85 8.95 16.8 9.0 16.8 Q9.6 17.05 10.0 17.35 11.0 17.9 10.9 18.45 10.8 19.0 9.45 19.35 L8.25 19.55 8.2 19.55 2.2 19.4 Q-1.2 18.95 -3.55 18.0 L-3.85 17.9 -4.7 17.5 Q-5.85 16.8 -5.75 16.25 -5.65 15.65 -4.1 15.35 L-3.4 15.2" fill="#990000" fill-rule="evenodd" stroke="none"/>
    </g>
    <g id="shape3" transform="matrix(1.0, 0.0, 0.0, 1.0, 39.0, 65.7)">
      <path d="M9.75 -62.85 Q8.3 -61.5 7.45 -58.95 6.9 -57.25 6.4 -53.9 L5.4 -48.6 Q4.65 -45.7 3.45 -43.9 L0.65 -40.15 Q-1.1 -37.95 -1.85 -36.55 -4.25 -32.45 -3.15 -28.05 -1.15 -20.25 2.9 -15.25 6.25 -11.05 10.9 -9.05 14.6 -7.45 18.75 -7.4 22.0 -7.35 24.35 -8.15 29.25 -9.9 31.75 -17.4 33.95 -24.35 33.55 -33.8 33.15 -43.15 30.4 -50.8 27.35 -59.1 22.6 -62.1 19.55 -64.05 16.2 -64.5 12.1 -65.05 9.75 -62.85 M13.35 -65.65 Q22.45 -66.4 28.05 -58.5 32.8 -51.8 34.1 -40.3 35.3 -29.95 33.35 -20.45 32.45 -16.0 31.0 -12.9 29.45 -9.75 27.55 -8.55 27.4 -8.5 27.5 -8.0 L27.75 -7.05 Q27.9 -5.65 26.55 -5.2 L28.0 0.25 Q28.95 4.25 29.2 7.35 30.05 16.25 25.6 17.95 23.65 17.25 21.2 14.6 L17.7 10.15 Q15.0 12.85 10.9 14.6 7.05 16.25 2.75 16.75 -0.8 20.85 -4.6 23.3 -8.55 25.85 -12.45 26.35 -21.05 27.35 -27.5 18.05 -29.8 14.8 -31.15 9.75 L-32.2 5.45 -33.5 0.95 -35.15 -3.55 Q-36.85 -8.55 -37.8 -13.45 -40.85 -29.05 -36.2 -39.85 -35.15 -36.55 -34.25 -34.95 -34.05 -38.95 -32.25 -42.8 -30.5 -46.55 -27.5 -49.4 -29.3 -34.6 -23.25 -41.7 -23.05 -40.55 -23.1 -39.15 L-23.2 -37.15 Q-23.15 -36.15 -22.65 -35.25 -22.1 -34.25 -20.75 -33.05 -17.1 -35.4 -12.95 -36.35 -8.35 -37.45 -4.55 -36.25 0.25 -40.5 2.7 -46.1 4.05 -49.4 5.25 -55.35 L6.1 -59.2 Q6.6 -61.2 7.35 -62.4 9.15 -65.3 13.35 -65.65 M31.4 -40.0 L31.1 -41.75 30.45 -43.4 Q29.25 -45.9 28.05 -45.2 26.6 -44.35 26.45 -41.3 26.3 -38.55 27.15 -37.0 27.85 -35.65 28.7 -35.45 29.45 -35.3 30.15 -36.0 30.75 -36.65 31.1 -37.85 31.45 -39.1 31.4 -40.0 M25.6 -41.9 Q25.95 -44.05 27.05 -45.3 L29.65 -45.4 Q31.1 -44.3 31.65 -41.4 32.25 -38.55 31.35 -36.75 30.4 -35.0 29.45 -34.85 28.45 -34.7 27.65 -35.1 26.25 -35.85 25.75 -37.9 25.25 -39.8 25.6 -41.9 M16.35 -2.8 Q16.3 -1.85 15.45 -0.3 14.55 1.2 14.55 1.7 14.55 2.75 15.9 5.2 17.15 7.5 19.15 10.1 21.15 12.75 23.0 14.4 25.0 16.25 26.1 16.25 29.2 13.7 28.15 6.1 27.75 3.1 26.8 0.0 L24.9 -4.55 Q20.7 -2.4 14.7 -3.3 8.6 -4.2 3.5 -7.95 -2.15 -12.1 -4.65 -18.45 -7.45 -25.7 -5.5 -34.7 -14.45 -36.85 -21.65 -30.7 -24.9 -27.9 -27.3 -23.7 -29.7 -19.65 -31.05 -14.7 -32.4 -9.8 -32.55 -4.6 -32.75 0.75 -31.6 5.75 -29.1 16.75 -21.15 23.05 -19.45 24.35 -17.1 24.75 -13.7 25.3 -9.65 23.6 1.9 18.75 16.35 -2.8 M23.8 -5.1 Q25.3 -5.65 25.9 -7.0 16.2 -4.85 9.15 -8.15 3.25 -10.95 -0.25 -17.25 -3.15 -22.4 -3.9 -28.6 -4.2 -31.2 -3.95 -33.35 -3.85 -35.45 -3.25 -36.55 -6.3 -32.6 -5.3 -26.1 -4.3 -19.9 -0.15 -14.25 4.15 -8.25 10.15 -5.65 16.85 -2.75 23.8 -5.1 M-27.95 -39.0 Q-28.7 -40.05 -28.6 -43.2 L-28.25 -47.65 Q-30.8 -44.8 -32.3 -39.6 -33.85 -34.45 -33.1 -30.95 -34.2 -32.05 -35.05 -33.9 L-36.3 -37.2 Q-38.65 -30.65 -37.8 -20.65 -37.0 -11.4 -34.0 -4.3 -34.2 -12.6 -31.15 -19.7 -27.95 -27.25 -21.7 -31.95 -23.15 -33.45 -23.75 -35.6 -24.3 -37.55 -24.1 -39.75 -24.95 -38.45 -25.85 -38.05 -27.0 -37.6 -27.95 -39.0 M16.4 8.4 L13.6 3.4 Q12.0 6.2 9.2 9.65 L4.3 15.35 Q7.75 14.65 10.85 12.95 14.05 11.1 16.4 8.4" fill="#000000" fill-rule="evenodd" stroke="none"/>
      <path d="M9.75 -62.85 Q12.1 -65.05 16.2 -64.5 19.55 -64.05 22.6 -62.1 27.35 -59.1 30.4 -50.8 33.15 -43.15 33.55 -33.8 33.95 -24.35 31.75 -17.4 29.25 -9.9 24.35 -8.15 22.0 -7.35 18.75 -7.4 14.6 -7.45 10.9 -9.05 6.25 -11.05 2.9 -15.25 -1.15 -20.25 -3.15 -28.05 -4.25 -32.45 -1.85 -36.55 -1.1 -37.95 0.65 -40.15 L3.45 -43.9 Q4.65 -45.7 5.4 -48.6 L6.4 -53.9 Q6.9 -57.25 7.45 -58.95 8.3 -61.5 9.75 -62.85 M25.6 -41.9 Q25.25 -39.8 25.75 -37.9 26.25 -35.85 27.65 -35.1 28.45 -34.7 29.45 -34.85 30.4 -35.0 31.35 -36.75 32.25 -38.55 31.65 -41.4 31.1 -44.3 29.65 -45.4 L27.05 -45.3 Q25.95 -44.05 25.6 -41.9 M16.35 -2.8 Q1.9 18.75 -9.65 23.6 -13.7 25.3 -17.1 24.75 -19.45 24.35 -21.15 23.05 -29.1 16.75 -31.6 5.75 -32.75 0.75 -32.55 -4.6 -32.4 -9.8 -31.05 -14.7 -29.7 -19.65 -27.3 -23.7 -24.9 -27.9 -21.65 -30.7 -14.45 -36.85 -5.5 -34.7 -7.45 -25.7 -4.65 -18.45 -2.15 -12.1 3.5 -7.95 8.6 -4.2 14.7 -3.3 20.7 -2.4 24.9 -4.55 L26.8 0.0 Q27.75 3.1 28.15 6.1 29.2 13.7 26.1 16.25 25.0 16.25 23.0 14.4 21.15 12.75 19.15 10.1 17.15 7.5 15.9 5.2 14.55 2.75 14.55 1.7 14.55 1.2 15.45 -0.3 16.3 -1.85 16.35 -2.8" fill="#660099" fill-rule="evenodd" stroke="none"/>
      <path d="M31.4 -40.0 Q31.45 -39.1 31.1 -37.85 30.75 -36.65 30.15 -36.0 29.45 -35.3 28.7 -35.45 27.85 -35.65 27.15 -37.0 26.3 -38.55 26.45 -41.3 26.6 -44.35 28.05 -45.2 29.25 -45.9 30.45 -43.4 L31.1 -41.75 31.4 -40.0" fill="#ffff00" fill-rule="evenodd" stroke="none"/>
      <path d="M23.8 -5.1 Q16.85 -2.75 10.15 -5.65 4.15 -8.25 -0.15 -14.25 -4.3 -19.9 -5.3 -26.1 -6.3 -32.6 -3.25 -36.55 -3.85 -35.45 -3.95 -33.35 -4.2 -31.2 -3.9 -28.6 -3.15 -22.4 -0.25 -17.25 3.25 -10.95 9.15 -8.15 16.2 -4.85 25.9 -7.0 25.3 -5.65 23.8 -5.1" fill="#990000" fill-rule="evenodd" stroke="none"/>
      <path d="M16.4 8.4 Q14.05 11.1 10.85 12.95 7.75 14.65 4.3 15.35 L9.2 9.65 Q12.0 6.2 13.6 3.4 L16.4 8.4 M-27.95 -39.0 Q-27.0 -37.6 -25.85 -38.05 -24.95 -38.45 -24.1 -39.75 -24.3 -37.55 -23.75 -35.6 -23.15 -33.45 -21.7 -31.95 -27.95 -27.25 -31.15 -19.7 -34.2 -12.6 -34.0 -4.3 -37.0 -11.4 -37.8 -20.65 -38.65 -30.65 -36.3 -37.2 L-35.05 -33.9 Q-34.2 -32.05 -33.1 -30.95 -33.85 -34.45 -32.3 -39.6 -30.8 -44.8 -28.25 -47.65 L-28.6 -43.2 Q-28.7 -40.05 -27.95 -39.0" fill="#ffffff" fill-rule="evenodd" stroke="none"/>
    </g>
    <g id="shape4" transform="matrix(1.0, 0.0, 0.0, 1.0, 33.75, 7.9)">
      <path d="M4.8 7.15 L5.0 7.15 4.85 7.25 Q4.4 7.65 2.9 8.05 L-1.1 9.1 Q-7.2 10.8 -10.1 13.95 L-9.15 15.35 -8.55 16.45 -6.25 18.45 Q-4.8 19.3 -3.95 21.75 -3.15 23.95 -3.35 25.75 3.1 24.45 5.1 26.95 L10.0 22.2 Q14.3 17.9 17.1 15.55 26.65 7.45 30.5 10.6 32.55 12.25 32.3 15.25 32.1 17.8 30.15 21.0 28.5 23.8 26.1 26.2 23.75 28.5 21.95 29.25 L20.45 28.35 Q19.85 27.8 19.75 26.8 L21.85 23.9 24.7 20.7 26.85 17.85 Q27.6 16.55 26.9 16.05 25.2 14.75 17.2 22.05 L7.8 31.35 Q9.35 32.2 10.35 34.2 11.4 36.2 11.3 38.4 11.2 40.8 9.8 42.6 8.2 44.55 5.1 45.3 4.6 47.15 2.3 48.3 0.25 49.3 -1.7 49.0 -3.55 51.1 -6.45 51.25 -9.25 51.35 -10.9 49.6 L-21.75 62.5 -29.35 71.65 Q-30.6 72.35 -31.95 71.3 L-32.85 70.4 -33.25 69.6 Q-33.5 67.6 -25.75 58.5 L-19.5 51.35 -14.65 46.0 Q-16.3 43.55 -17.7 39.55 -26.2 41.05 -28.45 33.9 -29.1 31.85 -29.35 28.3 -29.6 25.0 -29.85 24.5 -36.85 9.9 -31.35 3.9 -29.5 1.85 -26.1 0.75 L-23.55 0.05 -21.6 -0.45 Q-19.2 -1.15 -8.7 -5.2 -0.55 -8.35 -0.4 -7.85 L-0.45 -7.75 Q-0.8 -7.5 -3.1 -6.4 -5.95 -5.05 -9.45 -3.6 -19.1 0.35 -24.25 1.1 -28.05 1.65 -30.05 4.4 -31.75 6.85 -31.95 10.7 -32.1 14.1 -31.1 18.0 -30.15 21.55 -28.55 24.15 -25.2 19.55 -20.5 17.45 -15.35 15.05 -10.1 16.35 -11.35 13.7 -20.3 9.2 -18.3 8.95 -16.0 10.05 -14.75 10.55 -12.1 12.3 L-12.05 12.2 -14.15 9.45 Q-15.4 7.85 -16.6 6.95 -15.65 6.95 -13.45 8.95 -11.5 10.7 -10.85 11.8 -6.3 9.05 4.8 7.15 M21.15 28.15 Q22.0 28.8 24.3 26.9 26.65 25.05 28.65 22.2 30.95 19.0 31.5 16.25 32.15 13.0 30.15 11.35 26.55 8.2 15.35 17.9 9.6 22.85 2.05 31.2 L5.1 33.6 9.05 29.1 15.65 22.55 Q24.75 14.05 26.9 15.1 28.5 15.85 27.5 17.7 26.9 18.9 24.55 21.5 22.0 24.3 21.3 25.35 20.1 27.3 21.15 28.15 M9.1 34.7 Q8.2 32.9 7.25 32.05 L5.85 34.05 6.65 34.6 Q7.05 34.95 7.0 35.4 4.2 37.2 0.0 28.95 L1.6 30.7 4.6 27.45 Q2.9 26.1 0.8 26.2 L-2.75 27.05 -6.25 27.4 Q-8.15 27.0 -9.8 24.85 -16.95 26.35 -20.3 33.1 -18.9 33.8 -17.3 37.3 L-15.95 40.6 -14.45 43.95 Q-12.55 47.8 -10.3 49.2 -7.45 50.95 -3.45 49.1 L-4.15 48.7 -1.8 48.4 0.65 48.0 Q3.5 47.25 4.05 44.95 3.0 45.1 2.45 44.35 6.75 44.15 8.7 42.5 10.35 41.05 10.25 38.75 10.2 36.85 9.1 34.7 M-8.85 24.85 Q-6.75 26.5 -5.1 26.0 -3.5 23.35 -5.05 21.0 -6.45 18.8 -9.8 17.8 L-16.95 17.45 Q-21.05 18.2 -23.9 21.0 -27.4 24.3 -28.15 28.0 -28.8 31.25 -27.3 34.05 -25.85 36.65 -23.25 37.95 -20.55 39.25 -18.0 38.5 L-18.9 35.8 Q-19.5 34.3 -20.65 33.7 -20.95 34.5 -22.15 35.8 -21.0 30.8 -16.65 27.35 -12.4 23.95 -7.05 23.6 -6.4 24.0 -8.85 24.85 M-30.45 65.7 Q-32.6 68.75 -32.3 69.35 -32.35 70.05 -31.2 70.75 -30.05 71.45 -29.75 71.0 L-24.45 64.4 Q-25.7 64.5 -26.5 63.65 -27.4 62.8 -27.25 61.6 -28.75 63.2 -30.45 65.7 M-11.7 49.1 L-14.35 46.75 -20.75 53.85 -26.4 60.35 Q-26.7 60.95 -26.55 61.65 L-26.0 62.9 -25.0 63.7 Q-24.35 63.9 -23.75 63.5 L-11.7 49.1" fill="#000000" fill-rule="evenodd" stroke="none"/>
      <path d="M-0.45 -7.75 Q9.85 -4.75 4.8 7.15 -6.3 9.05 -10.85 11.8 -11.5 10.7 -13.45 8.95 -15.65 6.95 -16.6 6.95 -15.4 7.85 -14.15 9.45 L-12.05 12.2 -12.1 12.3 Q-14.75 10.55 -16.0 10.05 -18.3 8.95 -20.3 9.2 -11.35 13.7 -10.1 16.35 -15.35 15.05 -20.5 17.45 -25.2 19.55 -28.55 24.15 -30.15 21.55 -31.1 18.0 -32.1 14.1 -31.95 10.7 -31.75 6.85 -30.05 4.4 -28.05 1.65 -24.25 1.1 -19.1 0.35 -9.45 -3.6 -5.95 -5.05 -3.1 -6.4 -0.8 -7.5 -0.45 -7.75" fill="#660099" fill-rule="evenodd" stroke="none"/>
      <path d="M21.15 28.15 Q20.1 27.3 21.3 25.35 22.0 24.3 24.55 21.5 26.9 18.9 27.5 17.7 28.5 15.85 26.9 15.1 24.75 14.05 15.65 22.55 L9.05 29.1 5.1 33.6 2.05 31.2 Q9.6 22.85 15.35 17.9 26.55 8.2 30.15 11.35 32.15 13.0 31.5 16.25 30.95 19.0 28.65 22.2 26.65 25.05 24.3 26.9 22.0 28.8 21.15 28.15 M-11.7 49.1 L-23.75 63.5 Q-24.35 63.9 -25.0 63.7 L-26.0 62.9 -26.55 61.65 Q-26.7 60.95 -26.4 60.35 L-20.75 53.85 -14.35 46.75 -11.7 49.1" fill="#996600" fill-rule="evenodd" stroke="none"/>
      <path d="M9.1 34.7 Q10.2 36.85 10.25 38.75 10.35 41.05 8.7 42.5 6.75 44.15 2.45 44.35 3.0 45.1 4.05 44.95 3.5 47.25 0.65 48.0 L-1.8 48.4 -4.15 48.7 -3.45 49.1 Q-7.45 50.95 -10.3 49.2 -12.55 47.8 -14.45 43.95 L-15.95 40.6 -17.3 37.3 Q-18.9 33.8 -20.3 33.1 -16.95 26.35 -9.8 24.85 -8.15 27.0 -6.25 27.4 L-2.75 27.05 0.8 26.2 Q2.9 26.1 4.6 27.45 L1.6 30.7 0.0 28.95 Q4.2 37.2 7.0 35.4 7.05 34.95 6.65 34.6 L5.85 34.05 7.25 32.05 Q8.2 32.9 9.1 34.7" fill="#ffffff" fill-rule="evenodd" stroke="none"/>
      <path d="M-8.85 24.85 Q-6.4 24.0 -7.05 23.6 -12.4 23.95 -16.65 27.35 -21.0 30.8 -22.15 35.8 -20.95 34.5 -20.65 33.7 -19.5 34.3 -18.9 35.8 L-18.0 38.5 Q-20.55 39.25 -23.25 37.95 -25.85 36.65 -27.3 34.05 -28.8 31.25 -28.15 28.0 -27.4 24.3 -23.9 21.0 -21.05 18.2 -16.95 17.45 L-9.8 17.8 Q-6.45 18.8 -5.05 21.0 -3.5 23.35 -5.1 26.0 -6.75 26.5 -8.85 24.85" fill="#990000" fill-rule="evenodd" stroke="none"/>
      <path d="M-30.45 65.7 Q-28.75 63.2 -27.25 61.6 -27.4 62.8 -26.5 63.65 -25.7 64.5 -24.45 64.4 L-29.75 71.0 Q-30.05 71.45 -31.2 70.75 -32.35 70.05 -32.3 69.35 -32.6 68.75 -30.45 65.7" fill="#ffff00" fill-rule="evenodd" stroke="none"/>
    </g>
    <g id="shape5" transform="matrix(1.0, 0.0, 0.0, 1.0, 26.9, 30.75)">
      <path d="M3.2 -30.55 L4.05 -30.45 Q9.9 -29.75 14.55 -27.05 L15.2 -26.65 Q19.15 -24.3 20.2 -21.5 L19.35 -17.2 18.1 -10.1 Q19.65 -9.2 21.7 -6.65 24.35 -3.35 25.75 0.6 27.45 5.6 26.7 10.8 26.35 13.2 25.45 15.6 24.05 19.15 21.55 22.6 1.1 39.0 -20.9 22.6 -25.65 18.35 -26.65 12.9 -27.5 8.35 -25.7 3.25 -24.3 -0.7 -21.65 -4.45 -19.6 -7.35 -18.3 -8.25 L-19.35 -14.6 -20.25 -20.95 Q-15.4 -26.9 -8.5 -29.3 -4.75 -30.6 -0.65 -30.7 L3.2 -30.55 M-8.4 -11.0 Q-12.65 -12.3 -17.1 -8.6 -21.25 -5.2 -23.75 0.75 -25.3 4.45 -25.7 8.0 L-24.75 5.95 Q-21.7 -0.75 -19.7 -3.35 -17.55 -6.25 -15.35 -7.85 -12.9 -9.7 -10.9 -9.5 -9.35 -9.4 -7.75 -8.6 L-4.9 -6.9 -2.15 -5.0 Q-0.55 -4.05 0.85 -3.65 4.2 -2.7 8.0 -4.45 L11.0 -6.15 11.25 -6.3 13.75 -7.65 Q15.2 -8.35 16.35 -8.3 17.7 -8.3 18.9 -7.35 21.65 -5.25 24.35 2.35 25.65 6.05 25.6 11.3 L25.8 10.15 Q26.45 5.2 24.8 0.35 23.45 -3.5 20.95 -6.6 18.8 -9.25 17.35 -9.8 14.95 -10.7 12.15 -9.0 L11.7 -8.7 9.9 -7.4 Q8.45 -6.4 7.6 -5.95 4.7 -4.5 2.5 -4.65 L2.15 -4.7 Q0.6 -4.95 -1.0 -6.05 L-1.15 -6.15 -1.75 -6.6 -2.75 -7.4 -4.4 -8.75 Q-6.45 -10.4 -8.4 -11.0 M0.25 -29.95 L-0.65 -29.9 Q0.9 -19.75 -0.9 -11.05 L2.45 -11.1 3.1 -11.05 Q9.1 -10.9 11.65 -9.7 L11.95 -9.85 Q12.35 -18.25 15.05 -25.85 13.35 -27.15 11.3 -28.0 7.55 -29.65 3.15 -29.9 L0.25 -29.95 M-1.65 -7.3 L-0.95 -7.0 Q0.55 -6.35 2.25 -6.15 L2.8 -6.1 Q7.35 -5.85 10.85 -9.1 6.9 -10.4 2.4 -10.45 L-0.95 -10.3 -1.2 -10.3 -5.05 -9.8 Q-3.45 -8.2 -1.65 -7.3 M12.15 21.0 Q16.25 17.9 16.25 13.75 L16.05 12.05 Q15.3 8.6 11.5 6.05 6.75 2.85 0.1 2.85 -6.6 2.85 -11.3 6.05 -14.5 8.15 -15.5 10.9 -16.05 12.2 -16.05 13.75 -16.05 18.25 -11.3 21.45 L-9.55 22.5 Q-5.4 24.6 0.1 24.65 6.75 24.6 11.5 21.45 L12.15 21.0" fill="#000000" fill-rule="evenodd" stroke="none"/>
      <path d="M0.25 -29.95 L3.15 -29.9 Q7.55 -29.65 11.3 -28.0 13.35 -27.15 15.05 -25.85 12.35 -18.25 11.95 -9.85 L11.65 -9.7 Q9.1 -10.9 3.1 -11.05 L2.45 -11.1 -0.9 -11.05 Q0.9 -19.75 -0.65 -29.9 L0.25 -29.95 M-8.4 -11.0 Q-6.45 -10.4 -4.4 -8.75 L-2.75 -7.4 -1.75 -6.6 -1.15 -6.15 -1.0 -6.05 Q0.6 -4.95 2.15 -4.7 L2.5 -4.65 Q4.7 -4.5 7.6 -5.95 8.45 -6.4 9.9 -7.4 L11.7 -8.7 12.15 -9.0 Q14.95 -10.7 17.35 -9.8 18.8 -9.25 20.95 -6.6 23.45 -3.5 24.8 0.35 26.45 5.2 25.8 10.15 L25.6 11.3 Q25.65 6.05 24.35 2.35 21.65 -5.25 18.9 -7.35 17.7 -8.3 16.35 -8.3 15.2 -8.35 13.75 -7.65 L11.25 -6.3 11.0 -6.15 8.0 -4.45 Q4.2 -2.7 0.85 -3.65 -0.55 -4.05 -2.15 -5.0 L-4.9 -6.9 -7.75 -8.6 Q-9.35 -9.4 -10.9 -9.5 -12.9 -9.7 -15.35 -7.85 -17.55 -6.25 -19.7 -3.35 -21.7 -0.75 -24.75 5.95 L-25.7 8.0 Q-25.3 4.45 -23.75 0.75 -21.25 -5.2 -17.1 -8.6 -12.65 -12.3 -8.4 -11.0" fill="#00ccff" fill-rule="evenodd" stroke="none"/>
      <path d="M-1.2 -10.3 L-0.95 -10.3 2.4 -10.45 Q6.9 -10.4 10.85 -9.1 7.35 -5.85 2.8 -6.1 L2.25 -6.15 Q0.55 -6.35 -0.95 -7.0 L-1.65 -7.3 -1.2 -10.3" fill="#cc0000" fill-rule="evenodd" stroke="none"/>
      <path d="M-1.65 -7.3 Q-3.45 -8.2 -5.05 -9.8 L-1.2 -10.3 -1.65 -7.3" fill="#990000" fill-rule="evenodd" stroke="none"/>
      <path d="M12.15 21.0 L11.5 21.45 Q6.75 24.6 0.1 24.65 -5.4 24.6 -9.55 22.5 L-9.0 18.05 Q-4.9 20.05 0.45 20.1 6.75 20.05 11.35 17.25 L12.15 21.0" fill="#660000" fill-rule="evenodd" stroke="none"/>
      <path d="M-15.5 10.9 Q-14.5 8.15 -11.3 6.05 -6.6 2.85 0.1 2.85 6.75 2.85 11.5 6.05 15.3 8.6 16.05 12.05 15.0 14.75 11.85 16.9 L11.35 17.25 Q6.75 20.05 0.45 20.1 -4.9 20.05 -9.0 18.05 L-10.95 16.9 Q-14.8 14.3 -15.5 10.9" fill="#333333" fill-rule="evenodd" stroke="none"/>
      <path d="M16.05 12.05 L16.25 13.75 Q16.25 17.9 12.15 21.0 L11.35 17.25 11.85 16.9 Q15.0 14.75 16.05 12.05 M-9.55 22.5 L-11.3 21.45 Q-16.05 18.25 -16.05 13.75 -16.05 12.2 -15.5 10.9 -14.8 14.3 -10.95 16.9 L-9.0 18.05 -9.55 22.5" fill="#330000" fill-rule="evenodd" stroke="none"/>
    </g>
    <g id="shape6" transform="matrix(1.0, 0.0, 0.0, 1.0, 32.9, 57.5)">
      <path d="M25.95 -46.6 L24.95 -43.15 Q23.45 -39.35 20.65 -35.6 21.6 -33.8 27.15 -36.95 27.15 -35.2 25.5 -32.85 27.25 -31.05 28.05 -28.95 28.9 -26.5 28.05 -24.4 L24.45 -27.6 Q30.4 -17.6 23.65 -13.8 23.9 -16.0 22.05 -18.15 21.75 -16.1 20.5 -13.9 L17.85 -10.15 Q18.0 -12.65 16.75 -14.8 15.55 -16.9 13.65 -17.75 11.65 -18.7 9.9 -17.75 7.85 -16.75 6.75 -13.55 9.15 -12.0 10.9 -8.1 12.55 -4.5 13.1 0.05 13.7 4.65 12.9 8.45 12.05 12.5 9.8 14.4 8.05 14.35 6.7 13.05 5.7 12.1 4.6 10.2 L2.8 7.25 Q1.8 5.85 0.8 5.7 L-0.65 8.0 -2.2 10.95 Q-4.3 14.7 -5.85 15.05 -9.35 15.8 -11.5 12.5 -13.5 9.5 -13.8 4.15 -14.15 -1.15 -12.65 -6.35 -11.15 -11.95 -8.15 -15.15 -8.05 -16.9 -9.65 -17.8 -11.2 -18.65 -13.4 -18.25 -15.8 -17.85 -17.6 -16.15 -19.75 -14.2 -20.45 -11.0 -22.25 -10.9 -23.95 -14.25 L-25.1 -17.0 -25.65 -19.2 Q-27.3 -18.1 -27.8 -14.1 -29.75 -17.25 -30.3 -20.85 -30.9 -24.9 -29.3 -27.8 L-31.15 -26.55 -32.9 -25.1 Q-33.0 -27.3 -32.1 -29.4 -31.3 -31.45 -29.8 -33.1 -30.45 -36.35 -29.7 -38.95 -23.75 -32.0 -21.25 -36.0 -26.15 -40.3 -27.15 -45.85 L-27.4 -49.4 -21.0 -49.4 -21.0 -57.5 20.8 -57.5 20.8 -46.6 25.95 -46.6 M25.05 -31.9 L24.05 -33.15 Q25.75 -33.85 26.3 -36.0 25.0 -34.75 22.8 -34.3 20.35 -33.85 19.3 -35.2 19.1 -55.65 1.15 -56.95 -7.5 -57.6 -12.4 -52.85 -17.25 -48.3 -19.3 -37.7 -19.7 -35.6 -20.95 -34.55 -22.1 -33.6 -23.65 -33.65 -25.2 -33.75 -26.65 -34.65 -28.2 -35.6 -29.15 -37.15 -29.5 -34.45 -27.9 -33.15 -29.85 -32.75 -30.95 -30.6 L-31.7 -28.6 -32.25 -26.6 -31.25 -27.5 -29.8 -28.65 Q-27.85 -29.95 -27.0 -29.25 -29.45 -26.95 -29.75 -22.8 -30.05 -18.7 -28.1 -15.95 -28.0 -17.3 -26.95 -19.05 -25.8 -20.95 -24.6 -21.3 -25.2 -15.25 -21.0 -11.95 -20.8 -13.2 -19.85 -14.65 -18.95 -16.15 -17.6 -17.35 L-14.85 -19.3 Q-13.3 -20.0 -12.0 -19.7 L-10.4 -19.05 -7.15 -17.8 Q-2.0 -16.15 2.9 -16.35 4.15 -16.4 5.85 -17.05 L8.7 -18.25 Q10.35 -18.95 11.55 -19.05 13.1 -19.25 14.5 -18.55 16.45 -17.65 17.45 -15.65 18.3 -13.9 18.25 -11.55 20.6 -14.8 21.45 -20.5 24.1 -17.35 24.45 -15.45 25.9 -17.4 26.05 -19.25 26.2 -20.75 25.5 -22.55 L24.1 -25.6 Q23.25 -27.5 23.15 -28.9 L25.8 -27.75 Q27.2 -26.95 27.7 -25.75 28.35 -28.35 26.55 -30.45 L25.05 -31.9 M5.3 -7.5 Q4.75 -4.8 4.7 -2.7 2.4 0.2 -1.9 -1.15 -3.15 -1.6 -4.75 -2.45 L-6.25 -3.2 -6.8 -8.55 Q-7.2 -11.5 -7.85 -13.8 -9.75 -11.8 -11.1 -7.45 -12.45 -3.2 -12.65 1.3 -12.9 6.15 -11.65 9.35 -10.25 13.0 -7.15 13.6 -6.2 13.8 -4.85 12.4 L-2.3 9.1 0.55 5.4 Q2.25 3.5 3.8 3.0 L2.75 4.05 Q1.85 4.65 1.6 5.0 2.75 5.55 3.75 6.7 L5.3 8.95 6.75 11.3 Q7.65 12.5 8.7 13.2 10.6 13.05 11.5 9.7 12.35 6.55 12.0 2.0 11.65 -2.65 10.25 -6.45 8.7 -10.65 6.35 -12.25 L5.3 -7.5 M3.75 -3.2 Q4.1 -9.9 6.6 -16.2 0.6 -14.25 -7.45 -16.75 -5.5 -11.45 -5.4 -3.9 -0.8 -0.2 3.75 -3.2" fill="#000000" fill-rule="evenodd" stroke="none"/>
      <path d="M25.05 -31.9 L26.55 -30.45 Q28.35 -28.35 27.7 -25.75 27.2 -26.95 25.8 -27.75 L23.15 -28.9 Q23.25 -27.5 24.1 -25.6 L25.5 -22.55 Q26.2 -20.75 26.05 -19.25 25.9 -17.4 24.45 -15.45 24.1 -17.35 21.45 -20.5 20.6 -14.8 18.25 -11.55 18.3 -13.9 17.45 -15.65 16.45 -17.65 14.5 -18.55 13.1 -19.25 11.55 -19.05 10.35 -18.95 8.7 -18.25 L5.85 -17.05 Q4.15 -16.4 2.9 -16.35 -2.0 -16.15 -7.15 -17.8 L-10.4 -19.05 -12.0 -19.7 Q-13.3 -20.0 -14.85 -19.3 L-17.6 -17.35 Q-18.95 -16.15 -19.85 -14.65 -20.8 -13.2 -21.0 -11.95 -25.2 -15.25 -24.6 -21.3 -25.8 -20.95 -26.95 -19.05 -28.0 -17.3 -28.1 -15.95 -30.05 -18.7 -29.75 -22.8 -29.45 -26.95 -27.0 -29.25 -27.85 -29.95 -29.8 -28.65 L-31.25 -27.5 -32.25 -26.6 -31.7 -28.6 -30.95 -30.6 Q-29.85 -32.75 -27.9 -33.15 -29.5 -34.45 -29.15 -37.15 -28.2 -35.6 -26.65 -34.65 -25.2 -33.75 -23.65 -33.65 -22.1 -33.6 -20.95 -34.55 -19.7 -35.6 -19.3 -37.7 -17.25 -48.3 -12.4 -52.85 -7.5 -57.6 1.15 -56.95 19.1 -55.65 19.3 -35.2 20.35 -33.85 22.8 -34.3 25.0 -34.75 26.3 -36.0 25.75 -33.85 24.05 -33.15 L25.05 -31.9 M3.75 -3.2 Q-0.8 -0.2 -5.4 -3.9 -5.5 -11.45 -7.45 -16.75 0.6 -14.25 6.6 -16.2 4.1 -9.9 3.75 -3.2" fill="#ffffff" fill-rule="evenodd" stroke="none"/>
      <path d="M5.3 -7.5 L6.35 -12.25 Q8.7 -10.65 10.25 -6.45 11.65 -2.65 12.0 2.0 12.35 6.55 11.5 9.7 10.6 13.05 8.7 13.2 7.65 12.5 6.75 11.3 L5.3 8.95 3.75 6.7 Q2.75 5.55 1.6 5.0 1.85 4.65 2.75 4.05 L3.8 3.0 Q2.25 3.5 0.55 5.4 L-2.3 9.1 -4.85 12.4 Q-6.2 13.8 -7.15 13.6 -10.25 13.0 -11.65 9.35 -12.9 6.15 -12.65 1.3 -12.45 -3.2 -11.1 -7.45 -9.75 -11.8 -7.85 -13.8 -7.2 -11.5 -6.8 -8.55 L-6.25 -3.2 -4.75 -2.45 Q-3.15 -1.6 -1.9 -1.15 2.4 0.2 4.7 -2.7 4.75 -4.8 5.3 -7.5" fill="#990000" fill-rule="evenodd" stroke="none"/>
    </g>
    <g id="shape7" transform="matrix(1.0, 0.0, 0.0, 1.0, 26.05, 29.55)">
      <path d="M13.0 -14.2 Q11.1 -15.95 9.55 -19.1 L8.05 -22.3 6.4 -25.4 4.15 -25.3 Q3.2 -24.7 2.45 -23.15 1.75 -21.85 1.45 -20.25 L1.4 -19.9 Q1.15 -18.65 1.3 -17.85 0.75 -18.5 0.85 -20.05 L0.9 -20.3 Q1.0 -21.8 1.6 -23.25 2.35 -25.0 3.5 -25.85 4.75 -26.9 6.3 -26.5 7.4 -25.3 8.2 -23.65 L9.5 -20.65 Q10.3 -18.65 11.1 -17.35 12.15 -15.35 13.75 -13.55 L13.0 -14.2 M-2.1 -22.7 L-2.2 -21.45 -2.55 -23.4 -3.15 -25.8 Q-4.2 -28.8 -6.05 -28.65 -7.2 -28.6 -8.8 -26.2 L-11.7 -21.1 Q-13.7 -17.3 -14.55 -16.0 -15.4 -14.7 -16.05 -14.15 -16.6 -13.75 -17.05 -13.75 L-15.9 -15.0 -14.3 -17.4 -11.9 -21.95 -9.75 -26.2 Q-8.55 -28.25 -7.5 -28.9 -4.75 -30.8 -3.1 -27.2 -2.55 -25.85 -2.25 -24.1 L-2.1 -22.7 M-21.6 0.5 Q-23.7 4.45 -24.1 6.85 -22.2 6.0 -19.85 6.15 -17.7 6.25 -15.6 7.15 L-16.05 6.1 -16.7 5.1 Q-18.3 1.75 -17.1 -3.35 -16.55 -5.7 -15.55 -7.65 -14.55 -9.75 -13.2 -11.0 L-8.6 -15.85 Q-6.5 -18.65 -5.75 -21.85 -5.5 -19.75 -7.3 -16.15 -5.1 -15.35 -3.6 -12.85 -2.25 -10.6 -1.6 -7.3 -1.0 -4.4 -1.05 -1.25 -1.15 1.75 -1.8 3.8 L0.15 3.7 2.05 4.05 Q0.6 -0.6 1.5 -5.7 2.4 -10.65 5.2 -14.75 4.25 -16.45 3.85 -18.95 L4.4 -18.05 4.7 -17.05 Q5.95 -14.25 9.4 -11.25 L12.25 -8.8 14.95 -6.2 Q16.55 -4.4 17.15 -0.7 17.75 3.05 16.75 5.25 L16.15 6.3 20.05 6.05 Q22.25 6.15 23.75 7.1 23.65 5.65 22.85 4.15 L22.0 2.8 21.5 2.1 21.05 1.5 21.25 1.65 Q22.8 2.55 23.8 4.25 24.85 6.0 24.95 7.95 26.45 8.9 25.9 10.85 25.4 12.6 24.0 13.6 24.55 15.05 24.0 16.25 23.55 17.3 22.35 18.0 21.2 18.6 19.8 18.75 L17.25 18.5 Q19.8 25.25 16.65 27.9 14.05 30.15 7.65 29.4 2.55 28.8 -4.35 26.5 -9.65 24.7 -13.85 22.7 -15.7 23.05 -17.2 22.7 -18.65 22.3 -19.55 21.35 -20.45 20.3 -20.55 18.85 -20.7 17.3 -20.0 15.55 L-21.35 15.35 -22.65 15.15 Q-29.9 13.2 -21.8 0.7 L-21.4 0.15 -21.6 0.5 M14.1 -5.95 L12.0 -7.7 9.7 -9.5 Q6.8 -11.8 5.4 -14.1 2.8 -10.35 2.0 -5.7 1.2 -1.1 2.35 3.35 3.95 1.75 6.0 1.2 7.9 0.65 9.6 1.25 11.3 1.8 12.2 3.35 13.15 5.0 12.85 7.5 L14.1 7.2 15.2 6.55 Q17.05 1.8 16.6 -1.3 16.25 -3.85 14.1 -5.95 M20.45 10.1 L22.65 10.4 20.85 10.75 Q19.65 10.8 19.25 11.3 19.75 11.65 21.0 12.05 L22.75 12.8 Q25.9 10.7 24.85 9.0 23.35 6.55 19.15 7.0 17.0 7.25 12.8 8.7 12.6 9.75 11.25 11.55 L13.55 12.1 Q15.0 12.35 15.8 12.8 -3.4 10.25 -12.9 15.35 -11.35 14.05 -10.0 13.45 -13.6 11.9 -13.3 8.7 -14.4 8.55 -16.85 7.6 -19.05 6.75 -20.45 6.75 -22.1 6.75 -23.35 7.65 -24.6 8.4 -25.05 9.6 -25.55 10.85 -25.05 12.0 -24.55 13.2 -22.9 13.95 L-21.85 14.05 -20.75 14.4 Q-19.45 14.7 -19.1 13.6 -18.65 12.2 -20.05 11.55 -21.1 11.1 -22.6 11.15 -22.4 10.65 -21.7 10.55 L-20.5 10.5 Q-18.45 11.7 -18.2 13.25 -18.1 14.2 -18.8 15.95 -19.7 17.9 -19.7 18.65 -19.85 20.1 -18.3 21.2 -17.05 22.05 -15.2 21.9 -13.95 21.75 -12.1 20.95 -4.85 17.9 2.95 17.15 L18.45 17.6 Q21.45 17.95 22.4 16.95 24.45 14.8 22.3 13.5 L20.25 12.6 18.6 11.8 Q18.4 11.65 18.35 11.3 18.25 10.95 18.45 10.75 18.85 10.1 20.45 10.1 M11.1 10.6 Q11.8 9.5 12.1 8.15 12.4 6.75 12.15 5.4 11.6 2.3 8.95 1.5 6.45 0.75 4.6 2.25 L3.3 3.55 2.25 4.55 Q1.8 8.05 2.4 9.35 3.25 11.25 6.6 11.15 L7.8 11.25 9.05 11.45 Q10.45 11.5 11.1 10.6 M16.2 18.55 L14.05 18.35 Q15.65 22.9 13.1 24.6 10.95 25.95 6.05 25.35 -0.45 24.55 -9.1 21.05 L-12.9 22.5 Q-9.8 23.85 -4.55 25.4 2.15 27.45 7.25 28.05 13.75 28.75 16.3 26.9 19.3 24.6 16.2 18.55 M3.45 11.1 Q1.8 9.7 1.4 8.35 1.05 7.1 1.55 4.85 -1.0 4.4 -2.05 4.85 -0.95 8.55 -2.35 11.55 L0.55 11.3 3.45 11.1 M12.85 23.3 Q13.55 22.55 13.4 20.7 13.25 19.1 12.7 18.1 1.5 17.0 -7.3 20.4 L-3.05 22.1 Q0.05 23.15 2.95 23.8 10.65 25.5 12.85 23.3 M-3.85 -12.65 Q-5.3 -15.15 -7.45 -15.6 -7.6 -14.95 -8.75 -13.85 L-11.3 -11.7 Q-15.1 -8.3 -16.15 -4.6 -17.0 -1.6 -16.75 1.5 -16.45 5.05 -14.7 7.15 L-14.95 7.25 -14.1 7.6 -13.2 7.8 Q-13.25 5.85 -12.0 4.3 -10.9 2.8 -9.05 2.15 L-5.45 1.95 Q-3.6 2.4 -2.5 4.15 L-2.2 4.05 -2.35 4.05 Q-1.85 2.15 -1.75 -0.8 -1.65 -4.1 -2.1 -7.05 -2.65 -10.5 -3.85 -12.65 M-2.75 5.1 Q-3.5 3.35 -4.9 2.6 L-8.4 2.45 Q-9.75 2.95 -10.85 4.1 -11.9 5.15 -12.4 6.55 -12.95 7.95 -12.75 9.35 -12.55 10.85 -11.5 12.0 -10.2 13.45 -7.7 12.85 L-5.65 12.25 -3.65 11.9 Q-2.4 10.65 -2.2 8.7 -2.0 6.8 -2.75 5.1" fill="#000000" fill-rule="evenodd" stroke="none"/>
      <path d="M14.1 -5.95 Q16.25 -3.85 16.6 -1.3 17.05 1.8 15.2 6.55 L14.1 7.2 12.85 7.5 Q13.15 5.0 12.2 3.35 11.3 1.8 9.6 1.25 7.9 0.65 6.0 1.2 3.95 1.75 2.35 3.35 1.2 -1.1 2.0 -5.7 2.8 -10.35 5.4 -14.1 6.8 -11.8 9.7 -9.5 L12.0 -7.7 14.1 -5.95 M-3.85 -12.65 Q-2.65 -10.5 -2.1 -7.05 -1.65 -4.1 -1.75 -0.8 -1.85 2.15 -2.35 4.05 L-2.2 4.05 -2.5 4.15 Q-3.6 2.4 -5.45 1.95 L-9.05 2.15 Q-10.9 2.8 -12.0 4.3 -13.25 5.85 -13.2 7.8 L-14.1 7.6 -14.95 7.25 -14.7 7.15 Q-16.45 5.05 -16.75 1.5 -17.0 -1.6 -16.15 -4.6 -15.1 -8.3 -11.3 -11.7 L-8.75 -13.85 Q-7.6 -14.95 -7.45 -15.6 -5.3 -15.15 -3.85 -12.65" fill="#ccffff" fill-rule="evenodd" stroke="none"/>
      <path d="M0.9 -20.3 L0.85 -20.05 Q0.75 -18.5 1.3 -17.85 1.15 -18.65 1.4 -19.9 L1.45 -20.25 Q1.75 -21.85 2.45 -23.15 3.2 -24.7 4.15 -25.3 L6.4 -25.4 8.05 -22.3 9.55 -19.1 Q11.1 -15.95 13.0 -14.2 16.2 -4.05 21.25 1.65 L21.05 1.5 21.5 2.1 22.0 2.8 22.85 4.15 Q23.65 5.65 23.75 7.1 22.25 6.15 20.05 6.05 L16.15 6.3 16.75 5.25 Q17.75 3.05 17.15 -0.7 16.55 -4.4 14.95 -6.2 L12.25 -8.8 9.4 -11.25 Q5.95 -14.25 4.7 -17.05 L4.4 -18.05 3.85 -18.95 Q4.25 -16.45 5.2 -14.75 2.4 -10.65 1.5 -5.7 0.6 -0.6 2.05 4.05 L0.15 3.7 -1.8 3.8 Q-1.15 1.75 -1.05 -1.25 -1.0 -4.4 -1.6 -7.3 -2.25 -10.6 -3.6 -12.85 -5.1 -15.35 -7.3 -16.15 -5.5 -19.75 -5.75 -21.85 -6.5 -18.65 -8.6 -15.85 L-13.2 -11.0 Q-14.55 -9.75 -15.55 -7.65 -16.55 -5.7 -17.1 -3.35 -18.3 1.75 -16.7 5.1 L-16.05 6.1 -15.6 7.15 Q-17.7 6.25 -19.85 6.15 -22.2 6.0 -24.1 6.85 -23.7 4.45 -21.6 0.5 -16.6 -4.85 -16.05 -14.15 -15.4 -14.7 -14.55 -16.0 -13.7 -17.3 -11.7 -21.1 L-8.8 -26.2 Q-7.2 -28.6 -6.05 -28.65 -4.2 -28.8 -3.15 -25.8 L-2.55 -23.4 -2.2 -21.45 -2.1 -22.7 Q-1.1 -14.0 0.9 -20.3 M11.1 10.6 Q10.45 11.5 9.05 11.45 L7.8 11.25 6.6 11.15 Q3.25 11.25 2.4 9.35 1.8 8.05 2.25 4.55 L3.3 3.55 4.6 2.25 Q6.45 0.75 8.95 1.5 11.6 2.3 12.15 5.4 12.4 6.75 12.1 8.15 11.8 9.5 11.1 10.6 M-2.75 5.1 Q-2.0 6.8 -2.2 8.7 -2.4 10.65 -3.65 11.9 L-5.65 12.25 -7.7 12.85 Q-10.2 13.45 -11.5 12.0 -12.55 10.85 -12.75 9.35 -12.95 7.95 -12.4 6.55 -11.9 5.15 -10.85 4.1 -9.75 2.95 -8.4 2.45 L-4.9 2.6 Q-3.5 3.35 -2.75 5.1" fill="#ffffff" fill-rule="evenodd" stroke="none"/>
      <path d="M20.45 10.1 Q18.85 10.1 18.45 10.75 18.25 10.95 18.35 11.3 18.4 11.65 18.6 11.8 L20.25 12.6 22.3 13.5 Q24.45 14.8 22.4 16.95 21.45 17.95 18.45 17.6 L2.95 17.15 Q-4.85 17.9 -12.1 20.95 -13.95 21.75 -15.2 21.9 -17.05 22.05 -18.3 21.2 -19.85 20.1 -19.7 18.65 -19.7 17.9 -18.8 15.95 -18.1 14.2 -18.2 13.25 -18.45 11.7 -20.5 10.5 L-21.7 10.55 Q-22.4 10.65 -22.6 11.15 -21.1 11.1 -20.05 11.55 -18.65 12.2 -19.1 13.6 -19.45 14.7 -20.75 14.4 L-21.85 14.05 -22.9 13.95 Q-24.55 13.2 -25.05 12.0 -25.55 10.85 -25.05 9.6 -24.6 8.4 -23.35 7.65 -22.1 6.75 -20.45 6.75 -19.05 6.75 -16.85 7.6 -14.4 8.55 -13.3 8.7 -13.6 11.9 -10.0 13.45 -11.35 14.05 -12.9 15.35 -3.4 10.25 15.8 12.8 15.0 12.35 13.55 12.1 L11.25 11.55 Q12.6 9.75 12.8 8.7 17.0 7.25 19.15 7.0 23.35 6.55 24.85 9.0 25.9 10.7 22.75 12.8 L21.0 12.05 Q19.75 11.65 19.25 11.3 19.65 10.8 20.85 10.75 L22.65 10.4 20.45 10.1 M3.45 11.1 L0.55 11.3 -2.35 11.55 Q-0.95 8.55 -2.05 4.85 -1.0 4.4 1.55 4.85 1.05 7.1 1.4 8.35 1.8 9.7 3.45 11.1 M16.2 18.55 Q19.3 24.6 16.3 26.9 13.75 28.75 7.25 28.05 2.15 27.45 -4.55 25.4 -9.8 23.85 -12.9 22.5 L-9.1 21.05 Q-0.45 24.55 6.05 25.35 10.95 25.95 13.1 24.6 15.65 22.9 14.05 18.35 L16.2 18.55" fill="#ffcc00" fill-rule="evenodd" stroke="none"/>
      <path d="M12.85 23.3 Q10.65 25.5 2.95 23.8 0.05 23.15 -3.05 22.1 L-7.3 20.4 Q1.5 17.0 12.7 18.1 13.25 19.1 13.4 20.7 13.55 22.55 12.85 23.3" fill="#ff6666" fill-rule="evenodd" stroke="none"/>
    </g>
    <g id="shape8" transform="matrix(1.0, 0.0, 0.0, 1.0, 3.2, 7.35)">
      <path d="M-2.25 -5.25 Q-1.3 -7.35 0.05 -7.35 1.35 -7.35 2.3 -5.25 3.25 -3.1 3.25 -0.05 3.25 3.0 2.3 5.15 1.35 7.3 0.05 7.3 -1.3 7.3 -2.25 5.15 -3.2 3.0 -3.2 -0.05 -3.2 -3.1 -2.25 -5.25" fill="#000000" fill-rule="evenodd" stroke="none"/>
    </g>
  </defs>
</svg>
