<?xml version="1.0" encoding="UTF-8" standalone="no"?>
<svg xmlns:xlink="http://www.w3.org/1999/xlink" height="34.35px" width="21.5px" xmlns="http://www.w3.org/2000/svg">
  <g transform="matrix(1.0, 0.0, 0.0, 1.0, 10.75, 17.1)">
    <use height="34.35" transform="matrix(1.0, 0.0, 0.0, 1.0, -10.75, -17.1)" width="21.5" xlink:href="#shape0"/>
    <use height="26.55" transform="matrix(1.0, 0.0, 0.0, 1.0, -9.7998, -10.4998)" width="19.65" xlink:href="#sprite0"/>
  </g>
  <defs>
    <g id="shape0" transform="matrix(1.0, 0.0, 0.0, 1.0, 10.75, 17.1)">
      <path d="M5.95 -10.15 Q7.85 -9.0 9.2 -6.25 11.0 -2.55 10.7 5.25 10.55 10.6 9.9 13.45 9.2 16.85 -0.3 17.2 L-5.65 17.05 -7.8 16.65 Q-9.35 15.2 -10.15 11.4 -10.9 7.7 -10.7 2.75 -10.45 -2.95 -7.75 -6.95 -4.95 -11.05 -0.7 -11.35 L1.55 -11.5 Q3.85 -11.4 5.35 -10.45 L5.95 -10.15 M9.15 -1.55 L9.35 -1.55 9.25 -1.8 9.05 -2.35 9.05 -2.4 9.05 -2.5 8.6 -4.55 7.9 -6.15 7.5 -6.75 7.75 -6.65 5.65 -9.15 Q4.05 -10.35 1.2 -10.5 -5.65 -10.9 -8.85 -1.8 L-8.7 -2.0 -9.2 0.35 -9.25 0.7 -9.35 3.0 -9.45 3.2 -9.55 3.55 -9.55 3.65 -9.2 5.1 -9.2 5.3 -9.3 5.45 -9.35 6.05 -9.4 6.2 -9.2 6.45 -9.15 6.75 -9.0 6.5 -8.9 6.5 -8.85 6.5 -8.6 6.5 -7.15 4.8 -4.1 2.55 Q-1.5 1.1 1.2 -0.1 1.8 -0.1 2.3 -0.45 L2.95 -0.65 4.75 -1.05 8.95 -1.4 9.15 -1.35 9.15 -1.55 M9.3 0.2 L4.25 0.7 Q5.2 2.75 5.2 6.2 5.2 10.1 4.15 11.95 2.85 14.35 -0.4 14.45 -5.35 14.6 -6.0 7.9 L-0.35 6.6 -4.35 4.55 -6.2 6.0 Q-7.8 7.35 -8.95 9.05 L-8.55 11.15 Q-7.8 14.5 -6.45 15.85 L-6.85 15.9 -5.5 16.1 -0.35 16.2 Q4.55 16.05 7.55 13.25 8.85 12.05 9.25 5.0 L9.3 0.2 M-0.3 -16.95 Q2.5 -17.7 3.7 -15.2 -1.55 -17.35 -5.3 -12.25 L-4.25 -14.05 Q-2.8 -16.3 -0.3 -16.95" fill="#000000" fill-rule="evenodd" stroke="none"/>
      <path d="M-9.2 5.1 L-9.2 5.25 -9.2 5.3 -9.2 5.1 M-9.2 6.45 L-9.0 6.5 -9.15 6.75 -9.2 6.45 M4.75 -1.05 L5.55 -1.25 6.65 -1.45 7.8 -1.5 8.0 -1.5 9.15 -1.55 9.15 -1.35 8.95 -1.4 4.75 -1.05 M9.3 0.2 L9.25 5.0 Q8.85 12.05 7.55 13.25 4.55 16.05 -0.35 16.2 L-5.5 16.1 -6.85 15.9 -6.45 15.85 Q-7.8 14.5 -8.55 11.15 L-8.95 9.05 Q-7.8 7.35 -6.2 6.0 L-4.35 4.55 -0.35 6.6 -6.0 7.9 Q-5.35 14.6 -0.4 14.45 2.85 14.35 4.15 11.95 5.2 10.1 5.2 6.2 5.2 2.75 4.25 0.7 L9.3 0.2" fill="#ffffff" fill-rule="evenodd" stroke="none"/>
      <path d="M-9.2 5.1 L-9.55 3.65 -9.55 3.55 -9.45 3.2 -9.35 3.0 -9.25 0.7 -9.2 0.35 -8.7 -2.0 -8.85 -1.8 Q-5.65 -10.9 1.2 -10.5 4.05 -10.35 5.65 -9.15 L7.75 -6.65 7.5 -6.75 7.9 -6.15 8.6 -4.55 9.05 -2.5 9.05 -2.4 9.05 -2.35 9.25 -1.8 9.35 -1.55 9.15 -1.55 8.0 -1.5 7.8 -1.5 6.65 -1.45 5.55 -1.25 4.75 -1.05 2.95 -0.65 2.3 -0.45 Q1.8 -0.1 1.2 -0.1 -1.5 1.1 -4.1 2.55 L-7.15 4.8 -8.6 6.5 -8.85 6.5 -8.9 6.5 -9.0 6.5 -9.2 6.45 -9.4 6.2 -9.35 6.05 -9.3 5.45 -9.2 5.3 -9.2 5.25 -9.2 5.1" fill="#53b3cb" fill-rule="evenodd" stroke="none"/>
    </g>
  </defs>
</svg>
