<?xml version="1.0" encoding="UTF-8" standalone="no"?>
<svg xmlns:xlink="http://www.w3.org/1999/xlink" height="300.5px" width="140.5px" xmlns="http://www.w3.org/2000/svg">
  <g transform="matrix(1.0, 0.0, 0.0, 1.0, 70.25, 150.25)">
    <use height="300.5" transform="matrix(1.0, 0.0, 0.0, 1.0, -70.25, -150.25)" width="140.5" xlink:href="#shape0"/>
    <use height="9.0" transform="matrix(1.0, 0.0, 0.0, 1.0, 54.5, 90.05)" width="8.5" xlink:href="#shape1"/>
    <use height="9.0" transform="matrix(0.8991, 0.4347, -0.4347, 0.8991, 56.8849, 65.3063)" width="8.5" xlink:href="#shape1"/>
    <use height="9.0" transform="matrix(0.8042, -0.5918, 0.5918, 0.8042, 52.6693, 46.7464)" width="8.5" xlink:href="#shape1"/>
    <use height="9.0" transform="matrix(0.7801, 0.6231, -0.6231, 0.7801, 58.2382, 18.3414)" width="8.5" xlink:href="#shape1"/>
    <use height="9.0" transform="matrix(0.7722, -0.6328, 0.6328, 0.7722, 52.6203, 0.3647)" width="8.5" xlink:href="#shape1"/>
    <use height="9.0" transform="matrix(1.0, 0.0, 0.0, 1.0, 54.5, -26.7)" width="8.5" xlink:href="#shape1"/>
    <use height="9.0" transform="matrix(0.0, 1.0, -1.0, 0.0, 63.25, -49.8)" width="8.5" xlink:href="#shape1"/>
    <use height="9.0" transform="matrix(0.7748, -0.6296, 0.6296, 0.7748, 52.6236, -69.7108)" width="8.5" xlink:href="#shape1"/>
    <use height="9.0" transform="matrix(0.8911, -0.4492, 0.4492, 0.8911, 52.9415, -94.3506)" width="8.5" xlink:href="#shape1"/>
    <use height="9.0" transform="matrix(0.799, 0.5987, -0.5987, 0.799, 13.1987, 133.4099)" width="8.5" xlink:href="#shape1"/>
    <use height="9.0" transform="matrix(1.0, 0.0, 0.0, 1.0, -14.65, 135.05)" width="8.5" xlink:href="#shape1"/>
    <use height="9.0" transform="matrix(0.7639, 0.6429, -0.6429, 0.7639, -35.0534, 133.3804)" width="8.5" xlink:href="#shape1"/>
    <use height="9.0" transform="matrix(0.8617, -0.5046, 0.5046, 0.8617, -64.9329, 137.8168)" width="8.5" xlink:href="#shape1"/>
    <use height="9.0" transform="matrix(0.7936, -0.6058, 0.6058, 0.7936, 7.8009, -139.9464)" width="8.5" xlink:href="#shape1"/>
    <use height="9.0" transform="matrix(1.0, 0.0, 0.0, 1.0, -14.65, -143.45)" width="8.5" xlink:href="#shape1"/>
    <use height="9.0" transform="matrix(0.8617, -0.5046, 0.5046, 0.8617, -40.6329, -140.6832)" width="8.5" xlink:href="#shape1"/>
    <use height="9.0" transform="matrix(0.7963, -0.6023, 0.6023, 0.7963, -65.0947, -139.9734)" width="8.5" xlink:href="#shape1"/>
    <use height="9.0" transform="matrix(0.8528, -0.5194, 0.5194, 0.8528, 57.9381, -145.58)" width="8.5" xlink:href="#shape1"/>
    <use height="9.0" transform="matrix(0.8507, 0.5229, -0.5229, 0.8507, 62.6377, -122.5004)" width="8.5" xlink:href="#shape1"/>
    <use height="9.0" transform="matrix(0.8223, -0.5664, 0.5664, 0.8223, 30.3565, -145.2428)" width="8.5" xlink:href="#shape1"/>
    <use height="9.0" transform="matrix(0.7963, -0.6023, 0.6023, 0.7963, 30.3053, -127.4734)" width="8.5" xlink:href="#shape1"/>
    <use height="9.0" transform="matrix(1.0, 0.0, 0.0, 1.0, 42.15, -120.95)" width="8.5" xlink:href="#shape1"/>
    <use height="9.0" transform="matrix(0.7801, 0.6231, 0.6231, -0.7801, 57.7806, 144.4126)" width="8.5" xlink:href="#shape1"/>
    <use height="9.0" transform="matrix(0.8244, -0.5633, -0.5633, -0.8244, 62.931, 122.1538)" width="8.5" xlink:href="#shape1"/>
    <use height="9.0" transform="matrix(1.0, 0.0, 0.0, -1.0, 32.15, 148.05)" width="8.5" xlink:href="#shape1"/>
    <use height="9.0" transform="matrix(0.7071, 0.7071, 0.7071, -0.7071, 30.2128, 126.2268)" width="8.5" xlink:href="#shape1"/>
    <use height="9.0" transform="matrix(1.0, 0.0, 0.0, -1.0, 42.15, 120.55)" width="8.5" xlink:href="#shape1"/>
  </g>
  <defs>
    <g id="shape0" transform="matrix(1.0, 0.0, 0.0, 1.0, 70.25, 150.25)">
      <path d="M25.5 -150.0 L27.5 -150.0 27.5 -127.5 25.5 -127.5 27.5 -127.5 27.5 -125.0 45.0 -107.5 47.5 -107.5 47.5 -106.25 47.5 107.5 45.0 107.5 27.5 125.0 27.5 127.5 25.5 127.5 27.5 127.5 27.5 150.0 25.5 150.0 25.5 127.5 -70.0 127.5 -70.0 125.0 25.55 125.0 45.0 105.5 45.0 -105.5 25.5 -125.0 -70.0 -125.0 -70.0 -127.5 25.5 -127.5 25.5 -150.0 M70.0 -107.5 L70.0 -106.25 47.5 -106.25 47.5 -107.5 70.0 -107.5" fill="#1d2225" fill-rule="evenodd" stroke="none"/>
      <path d="M25.5 -150.0 L25.5 -127.5 -70.0 -127.5 -70.0 -150.0 25.5 -150.0" fill="url(#gradient0)" fill-rule="evenodd" stroke="none"/>
      <path d="M-70.0 125.0 L-70.0 44.7 -62.55 44.7 -61.35 34.85 -57.35 33.8 -51.35 41.75 -38.45 34.25 -42.35 25.0 -40.95 23.6 -39.55 22.15 -30.3 26.15 -22.85 13.2 -30.75 7.25 -29.7 3.2 -19.75 2.0 -19.75 -12.95 -29.7 -14.2 -30.75 -18.25 -22.85 -24.15 -30.3 -37.1 -39.5 -33.2 -40.95 -34.7 -42.35 -36.05 -38.45 -45.3 -51.4 -52.75 -57.35 -44.85 -61.35 -45.9 -62.55 -55.75 -70.0 -55.75 -70.0 -125.0 25.5 -125.0 45.0 -105.5 45.0 105.5 25.55 125.0 -70.0 125.0" fill="url(#gradient1)" fill-rule="evenodd" stroke="none"/>
      <path d="M-70.0 44.7 L-70.0 43.0 -62.8 43.0 -61.6 33.4 -57.7 32.4 -51.9 40.1 -39.35 32.85 -43.2 23.85 -41.8 22.5 -40.45 21.1 -31.45 24.95 -24.2 12.4 -31.9 6.6 Q-31.3 4.7 -30.85 2.7 L-21.25 1.5 -21.25 -13.0 -30.85 -14.15 -31.9 -18.1 -24.2 -23.85 -31.45 -36.4 -40.4 -32.6 -41.8 -34.05 -43.2 -35.4 -39.4 -44.35 -51.95 -51.6 -57.7 -43.95 -61.6 -44.95 -62.8 -54.5 -70.0 -54.5 -70.0 -55.75 -62.55 -55.75 -61.35 -45.9 -57.35 -44.85 -51.4 -52.75 -38.45 -45.3 -42.35 -36.05 -40.95 -34.7 -39.5 -33.2 -30.3 -37.1 -22.85 -24.15 -30.75 -18.25 -29.7 -14.2 -19.75 -12.95 -19.75 2.0 -29.7 3.2 -30.75 7.25 -22.85 13.2 -30.3 26.15 -39.55 22.15 -40.95 23.6 -42.35 25.0 -38.45 34.25 -51.35 41.75 -57.35 33.8 -61.35 34.85 -62.55 44.7 -70.0 44.7" fill="#282e2f" fill-rule="evenodd" stroke="none"/>
      <path d="M-70.0 43.0 L-70.0 34.25 -61.6 33.4 -62.8 43.0 -70.0 43.0 M-70.0 -45.75 L-70.0 -54.5 -62.8 -54.5 -61.6 -44.95 -70.0 -45.75 M-57.7 -43.95 L-51.95 -51.6 -39.4 -44.35 -43.2 -35.4 Q-49.75 -41.45 -57.7 -43.95 M-40.4 -32.6 L-31.45 -36.4 -24.2 -23.85 -31.9 -18.1 Q-34.4 -26.1 -40.4 -32.6 M-30.85 -14.15 L-21.25 -13.0 -21.25 1.5 -30.85 2.7 Q-30.05 -1.4 -30.05 -5.75 -30.05 -10.15 -30.85 -14.15 M-31.9 6.6 L-24.2 12.4 -31.45 24.95 -40.45 21.1 Q-34.45 14.6 -31.9 6.6 M-43.2 23.85 L-39.35 32.85 -51.9 40.1 -57.7 32.4 Q-49.75 29.85 -43.2 23.85" fill="url(#gradient2)" fill-rule="evenodd" stroke="none"/>
      <path d="M-70.0 30.25 L-70.0 26.9 Q-69.0 26.9 -68.3 26.2 -67.6 25.5 -67.6 24.5 -67.6 23.5 -68.3 22.8 -69.0 22.1 -70.0 22.1 L-70.0 19.45 Q-59.6 19.45 -52.25 12.05 -44.85 4.7 -44.85 -5.75 -44.85 -16.2 -52.25 -23.55 -59.6 -30.95 -70.0 -30.95 L-70.0 -33.6 Q-69.0 -33.6 -68.3 -34.3 -67.6 -35.0 -67.6 -36.0 -67.6 -37.0 -68.3 -37.7 -69.0 -38.4 -70.0 -38.4 L-70.0 -41.75 Q-55.15 -41.75 -44.6 -31.2 -34.05 -20.65 -34.05 -5.75 -34.05 9.1 -44.6 19.65 -55.15 30.2 -70.0 30.25 M-59.0 -32.15 Q-58.7 -31.25 -57.75 -30.8 L-55.9 -30.7 Q-55.0 -31.0 -54.55 -31.9 -54.15 -32.8 -54.45 -33.75 -54.75 -34.7 -55.65 -35.1 L-57.5 -35.25 Q-58.45 -34.95 -58.85 -34.0 -59.3 -33.1 -59.0 -32.15 M-43.85 -25.35 Q-44.5 -26.2 -45.45 -26.3 -46.45 -26.45 -47.25 -25.85 -48.05 -25.25 -48.15 -24.25 -48.3 -23.3 -47.7 -22.5 -47.1 -21.7 -46.1 -21.55 -45.15 -21.4 -44.35 -22.0 -43.55 -22.6 -43.4 -23.6 -43.3 -24.6 -43.85 -25.35 M-40.9 -14.4 Q-41.85 -14.2 -42.4 -13.35 -42.95 -12.5 -42.75 -11.55 -42.55 -10.55 -41.7 -10.0 -40.85 -9.5 -39.9 -9.7 -38.9 -9.9 -38.35 -10.75 -37.85 -11.6 -38.05 -12.55 -38.25 -13.55 -39.05 -14.05 -39.9 -14.6 -40.9 -14.4 M-38.4 -0.75 Q-38.95 -1.6 -39.9 -1.8 -40.9 -2.0 -41.7 -1.45 -42.55 -0.95 -42.75 0.05 -42.95 1.0 -42.4 1.85 -41.9 2.7 -40.9 2.9 L-39.1 2.6 Q-38.3 2.05 -38.05 1.05 -37.85 0.1 -38.4 -0.75 M-44.35 10.55 Q-45.2 9.95 -46.15 10.1 -47.15 10.2 -47.75 11.05 -48.35 11.8 -48.2 12.8 -48.05 13.8 -47.25 14.4 -46.5 15.0 -45.5 14.85 -44.5 14.7 -43.9 13.9 -43.3 13.1 -43.45 12.15 -43.6 11.15 -44.35 10.55 M-57.75 19.3 Q-58.65 19.7 -58.95 20.65 -59.3 21.6 -58.85 22.5 -58.45 23.4 -57.5 23.7 L-55.65 23.6 Q-54.75 23.15 -54.45 22.2 -54.1 21.25 -54.55 20.4 -55.0 19.45 -55.9 19.15 L-57.75 19.3" fill="url(#gradient3)" fill-rule="evenodd" stroke="none"/>
      <path d="M-59.0 -32.15 Q-59.3 -33.1 -58.85 -34.0 -58.45 -34.95 -57.5 -35.25 L-55.65 -35.1 Q-54.75 -34.7 -54.45 -33.75 -54.15 -32.8 -54.55 -31.9 -55.0 -31.0 -55.9 -30.7 L-57.75 -30.8 Q-58.7 -31.25 -59.0 -32.15" fill="url(#gradient4)" fill-rule="evenodd" stroke="none"/>
      <path d="M-70.0 34.25 L-70.0 30.25 Q-55.15 30.2 -44.6 19.65 -34.05 9.1 -34.05 -5.75 -34.05 -20.65 -44.6 -31.2 -55.15 -41.75 -70.0 -41.75 L-70.0 -45.75 -61.6 -44.95 -57.7 -43.95 Q-49.75 -41.45 -43.2 -35.4 L-41.8 -34.05 -40.4 -32.6 Q-34.4 -26.1 -31.9 -18.1 L-30.85 -14.15 Q-30.05 -10.15 -30.05 -5.75 -30.05 -1.4 -30.85 2.7 -31.3 4.7 -31.9 6.6 -34.45 14.6 -40.45 21.1 L-41.8 22.5 -43.2 23.85 Q-49.75 29.85 -57.7 32.4 L-61.6 33.4 -70.0 34.25 M-70.0 19.45 L-70.0 13.85 Q-61.9 13.8 -56.2 8.1 -50.45 2.35 -50.45 -5.75 -50.45 -13.9 -56.2 -19.65 -61.9 -25.35 -70.0 -25.35 L-70.0 -30.95 Q-59.6 -30.95 -52.25 -23.55 -44.85 -16.2 -44.85 -5.75 -44.85 4.7 -52.25 12.05 -59.6 19.45 -70.0 19.45 M-70.0 8.65 L-70.0 3.45 Q-66.2 3.4 -63.55 0.75 -60.85 -1.95 -60.85 -5.75 -60.85 -9.6 -63.55 -12.25 -66.2 -14.95 -70.0 -14.95 L-70.0 -20.15 Q-64.05 -20.15 -59.85 -15.95 -55.65 -11.75 -55.65 -5.75 -55.65 0.2 -59.85 4.4 -64.05 8.6 -70.0 8.65" fill="url(#gradient5)" fill-rule="evenodd" stroke="none"/>
      <path d="M-43.85 -25.35 Q-43.3 -24.6 -43.4 -23.6 -43.55 -22.6 -44.35 -22.0 -45.15 -21.4 -46.1 -21.55 -47.1 -21.7 -47.7 -22.5 -48.3 -23.3 -48.15 -24.25 -48.05 -25.25 -47.25 -25.85 -46.45 -26.45 -45.45 -26.3 -44.5 -26.2 -43.85 -25.35" fill="url(#gradient6)" fill-rule="evenodd" stroke="none"/>
      <path d="M-70.0 -33.6 L-70.0 -38.4 Q-69.0 -38.4 -68.3 -37.7 -67.6 -37.0 -67.6 -36.0 -67.6 -35.0 -68.3 -34.3 -69.0 -33.6 -70.0 -33.6" fill="url(#gradient7)" fill-rule="evenodd" stroke="none"/>
      <path d="M-70.0 3.45 L-70.0 -14.95 Q-66.2 -14.95 -63.55 -12.25 -60.85 -9.6 -60.85 -5.75 -60.85 -1.95 -63.55 0.75 -66.2 3.4 -70.0 3.45" fill="#303437" fill-rule="evenodd" stroke="none"/>
      <path d="M-40.9 -14.4 Q-39.9 -14.6 -39.05 -14.05 -38.25 -13.55 -38.05 -12.55 -37.85 -11.6 -38.35 -10.75 -38.9 -9.9 -39.9 -9.7 -40.85 -9.5 -41.7 -10.0 -42.55 -10.55 -42.75 -11.55 -42.95 -12.5 -42.4 -13.35 -41.85 -14.2 -40.9 -14.4" fill="url(#gradient8)" fill-rule="evenodd" stroke="none"/>
      <path d="M-70.0 13.85 L-70.0 8.65 Q-64.05 8.6 -59.85 4.4 -55.65 0.2 -55.65 -5.75 -55.65 -11.75 -59.85 -15.95 -64.05 -20.15 -70.0 -20.15 L-70.0 -25.35 Q-61.9 -25.35 -56.2 -19.65 -50.45 -13.9 -50.45 -5.75 -50.45 2.35 -56.2 8.1 -61.9 13.8 -70.0 13.85" fill="url(#gradient9)" fill-rule="evenodd" stroke="none"/>
      <path d="M-38.4 -0.75 Q-37.85 0.1 -38.05 1.05 -38.3 2.05 -39.1 2.6 L-40.9 2.9 Q-41.9 2.7 -42.4 1.85 -42.95 1.0 -42.75 0.05 -42.55 -0.95 -41.7 -1.45 -40.9 -2.0 -39.9 -1.8 -38.95 -1.6 -38.4 -0.75" fill="url(#gradient10)" fill-rule="evenodd" stroke="none"/>
      <path d="M27.5 -127.5 L27.5 -150.0 70.0 -150.0 70.0 -107.5 47.5 -107.5 45.0 -107.5 27.5 -125.0 27.5 -127.5" fill="url(#gradient11)" fill-rule="evenodd" stroke="none"/>
      <path d="M70.0 -106.25 L70.0 107.5 47.5 107.5 47.5 -106.25 70.0 -106.25" fill="url(#gradient12)" fill-rule="evenodd" stroke="none"/>
      <path d="M70.0 107.5 L70.0 150.0 27.5 150.0 27.5 127.5 27.5 125.0 45.0 107.5 47.5 107.5 70.0 107.5" fill="url(#gradient13)" fill-rule="evenodd" stroke="none"/>
      <path d="M25.5 150.0 L-70.0 150.0 -70.0 127.5 25.5 127.5 25.5 150.0" fill="url(#gradient14)" fill-rule="evenodd" stroke="none"/>
      <path d="M-44.35 10.55 Q-43.6 11.15 -43.45 12.15 -43.3 13.1 -43.9 13.9 -44.5 14.7 -45.5 14.85 -46.5 15.0 -47.25 14.4 -48.05 13.8 -48.2 12.8 -48.35 11.8 -47.75 11.05 -47.15 10.2 -46.15 10.1 -45.2 9.95 -44.35 10.55" fill="url(#gradient15)" fill-rule="evenodd" stroke="none"/>
      <path d="M-57.75 19.3 L-55.9 19.15 Q-55.0 19.45 -54.55 20.4 -54.1 21.25 -54.45 22.2 -54.75 23.15 -55.65 23.6 L-57.5 23.7 Q-58.45 23.4 -58.85 22.5 -59.3 21.6 -58.95 20.65 -58.65 19.7 -57.75 19.3" fill="url(#gradient16)" fill-rule="evenodd" stroke="none"/>
      <path d="M-70.0 26.9 L-70.0 22.1 Q-69.0 22.1 -68.3 22.8 -67.6 23.5 -67.6 24.5 -67.6 25.5 -68.3 26.2 -69.0 26.9 -70.0 26.9" fill="url(#gradient17)" fill-rule="evenodd" stroke="none"/>
      <path d="M-59.0 -32.15 Q-59.3 -33.1 -58.85 -34.0 -58.45 -34.95 -57.5 -35.25 L-55.65 -35.1 Q-54.75 -34.7 -54.45 -33.75 -54.15 -32.8 -54.55 -31.9 -55.0 -31.0 -55.9 -30.7 L-57.75 -30.8 Q-58.7 -31.25 -59.0 -32.15 M-43.85 -25.35 Q-43.3 -24.6 -43.4 -23.6 -43.55 -22.6 -44.35 -22.0 -45.15 -21.4 -46.1 -21.55 -47.1 -21.7 -47.7 -22.5 -48.3 -23.3 -48.15 -24.25 -48.05 -25.25 -47.25 -25.85 -46.45 -26.45 -45.45 -26.3 -44.5 -26.2 -43.85 -25.35 M-70.0 -38.4 Q-69.0 -38.4 -68.3 -37.7 -67.6 -37.0 -67.6 -36.0 -67.6 -35.0 -68.3 -34.3 -69.0 -33.6 -70.0 -33.6 M-40.9 -14.4 Q-39.9 -14.6 -39.05 -14.05 -38.25 -13.55 -38.05 -12.55 -37.85 -11.6 -38.35 -10.75 -38.9 -9.9 -39.9 -9.7 -40.85 -9.5 -41.7 -10.0 -42.55 -10.55 -42.75 -11.55 -42.95 -12.5 -42.4 -13.35 -41.85 -14.2 -40.9 -14.4 M-38.4 -0.75 Q-37.85 0.1 -38.05 1.05 -38.3 2.05 -39.1 2.6 L-40.9 2.9 Q-41.9 2.7 -42.4 1.85 -42.95 1.0 -42.75 0.05 -42.55 -0.95 -41.7 -1.45 -40.9 -2.0 -39.9 -1.8 -38.95 -1.6 -38.4 -0.75 M-44.35 10.55 Q-43.6 11.15 -43.45 12.15 -43.3 13.1 -43.9 13.9 -44.5 14.7 -45.5 14.85 -46.5 15.0 -47.25 14.4 -48.05 13.8 -48.2 12.8 -48.35 11.8 -47.75 11.05 -47.15 10.2 -46.15 10.1 -45.2 9.95 -44.35 10.55 M-57.75 19.3 L-55.9 19.15 Q-55.0 19.45 -54.55 20.4 -54.1 21.25 -54.45 22.2 -54.75 23.15 -55.65 23.6 L-57.5 23.7 Q-58.45 23.4 -58.85 22.5 -59.3 21.6 -58.95 20.65 -58.65 19.7 -57.75 19.3 M-70.0 22.1 Q-69.0 22.1 -68.3 22.8 -67.6 23.5 -67.6 24.5 -67.6 25.5 -68.3 26.2 -69.0 26.9 -70.0 26.9" fill="none" stroke="#232c30" stroke-linecap="round" stroke-linejoin="round" stroke-width="0.5"/>
      <path d="M27.5 -150.0 L25.5 -150.0 M25.5 -127.5 L27.5 -127.5 27.5 -150.0 70.0 -150.0 70.0 -107.5 70.0 -106.25 70.0 107.5 70.0 150.0 27.5 150.0 25.5 150.0 -70.0 150.0 -70.0 127.5 -70.0 125.0 -70.0 44.7 -70.0 43.0 -70.0 34.25 -70.0 30.25 -70.0 26.9 -70.0 22.1 -70.0 19.45 -70.0 13.85 -70.0 8.65 -70.0 3.45 -70.0 -14.95 -70.0 -20.15 -70.0 -25.35 -70.0 -30.95 -70.0 -33.6 -70.0 -38.4 -70.0 -41.75 -70.0 -45.75 -70.0 -54.5 -70.0 -55.75 -70.0 -125.0 -70.0 -127.5 -70.0 -150.0 25.5 -150.0 M47.5 -107.5 L45.0 -107.5 27.5 -125.0 27.5 -127.5 M47.5 -107.5 L47.5 -106.25 47.5 107.5 70.0 107.5 M70.0 -107.5 L47.5 -107.5 M27.5 127.5 L27.5 125.0 45.0 107.5 47.5 107.5 M25.5 127.5 L27.5 127.5 27.5 150.0 M-70.0 -54.5 L-62.8 -54.5 -61.6 -44.95 -57.7 -43.95 -51.95 -51.6 -39.4 -44.35 -43.2 -35.4 -41.8 -34.05 -40.4 -32.6 -31.45 -36.4 -24.2 -23.85 -31.9 -18.1 -30.85 -14.15 -21.25 -13.0 -21.25 1.5 -30.85 2.7 Q-31.3 4.7 -31.9 6.6 L-24.2 12.4 -31.45 24.95 -40.45 21.1 -41.8 22.5 -43.2 23.85 -39.35 32.85 -51.9 40.1 -57.7 32.4 -61.6 33.4 -62.8 43.0 -70.0 43.0 M-57.7 -43.95 Q-49.75 -41.45 -43.2 -35.4 M-70.0 -45.75 L-61.6 -44.95 M-70.0 -14.95 Q-66.2 -14.95 -63.55 -12.25 -60.85 -9.6 -60.85 -5.75 -60.85 -1.95 -63.55 0.75 -66.2 3.4 -70.0 3.45 M-70.0 13.85 Q-61.9 13.8 -56.2 8.1 -50.45 2.35 -50.45 -5.75 -50.45 -13.9 -56.2 -19.65 -61.9 -25.35 -70.0 -25.35 M-70.0 -30.95 Q-59.6 -30.95 -52.25 -23.55 -44.85 -16.2 -44.85 -5.75 -44.85 4.7 -52.25 12.05 -59.6 19.45 -70.0 19.45 M-70.0 8.65 Q-64.05 8.6 -59.85 4.4 -55.65 0.2 -55.65 -5.75 -55.65 -11.75 -59.85 -15.95 -64.05 -20.15 -70.0 -20.15 M-70.0 30.25 Q-55.15 30.2 -44.6 19.65 -34.05 9.1 -34.05 -5.75 -34.05 -20.65 -44.6 -31.2 -55.15 -41.75 -70.0 -41.75 M-30.85 -14.15 Q-30.05 -10.15 -30.05 -5.75 -30.05 -1.4 -30.85 2.7 M-40.4 -32.6 Q-34.4 -26.1 -31.9 -18.1 M-31.9 6.6 Q-34.45 14.6 -40.45 21.1 M-70.0 34.25 L-61.6 33.4 M-43.2 23.85 Q-49.75 29.85 -57.7 32.4 M-70.0 -127.5 L25.5 -127.5 M-70.0 127.5 L25.5 127.5" fill="none" stroke="#1b2024" stroke-linecap="round" stroke-linejoin="round" stroke-width="0.5"/>
    </g>
    <linearGradient gradientTransform="matrix(0.0, 0.0137, -0.0137, 0.0, -22.25, -138.75)" gradientUnits="userSpaceOnUse" id="gradient0" spreadMethod="pad" x1="-819.2" x2="819.2">
      <stop offset="0.0" stop-color="#43484b"/>
      <stop offset="0.26666666666666666" stop-color="#565c5f"/>
      <stop offset="0.7411764705882353" stop-color="#585e61"/>
      <stop offset="1.0" stop-color="#43484b"/>
    </linearGradient>
    <radialGradient cx="0" cy="0" gradientTransform="matrix(0.1042, 0.0, 0.0, 0.1582, -21.25, 1.5)" gradientUnits="userSpaceOnUse" id="gradient1" r="819.2" spreadMethod="pad">
      <stop offset="0.3686274509803922" stop-color="#373d3e"/>
      <stop offset="1.0" stop-color="#282d30"/>
    </radialGradient>
    <radialGradient cx="0" cy="0" gradientTransform="matrix(0.0594, 0.0, 0.0, 0.0594, -70.0, -5.75)" gradientUnits="userSpaceOnUse" id="gradient2" r="819.2" spreadMethod="pad">
      <stop offset="0.8313725490196079" stop-color="#474b4e"/>
      <stop offset="0.9647058823529412" stop-color="#5c6163"/>
    </radialGradient>
    <radialGradient cx="0" cy="0" gradientTransform="matrix(0.0439, 0.0, 0.0, 0.0439, -70.0, -5.75)" gradientUnits="userSpaceOnUse" id="gradient3" r="819.2" spreadMethod="pad">
      <stop offset="0.7568627450980392" stop-color="#565a5d"/>
      <stop offset="0.792156862745098" stop-color="#626667"/>
      <stop offset="0.9254901960784314" stop-color="#676a6b"/>
      <stop offset="0.984313725490196" stop-color="#565a5d"/>
    </radialGradient>
    <radialGradient cx="0" cy="0" gradientTransform="matrix(0.0029, 0.0, 0.0, 0.0029, -56.8, -33.0)" gradientUnits="userSpaceOnUse" id="gradient4" r="819.2" spreadMethod="pad">
      <stop offset="0.0" stop-color="#464d51"/>
      <stop offset="1.0" stop-color="#303437"/>
    </radialGradient>
    <radialGradient cx="0" cy="0" gradientTransform="matrix(0.0519, 0.0, 0.0, 0.0567, -60.8, -16.85)" gradientUnits="userSpaceOnUse" id="gradient5" r="819.2" spreadMethod="pad">
      <stop offset="0.0" stop-color="#404444"/>
      <stop offset="1.0" stop-color="#373c3e"/>
    </radialGradient>
    <radialGradient cx="0" cy="0" gradientTransform="matrix(0.0029, 0.0, 0.0, 0.0029, -45.75, -24.05)" gradientUnits="userSpaceOnUse" id="gradient6" r="819.2" spreadMethod="pad">
      <stop offset="0.0" stop-color="#464d51"/>
      <stop offset="1.0" stop-color="#303437"/>
    </radialGradient>
    <radialGradient cx="0" cy="0" gradientTransform="matrix(0.0029, 0.0, 0.0, 0.0029, -70.0, -36.0)" gradientUnits="userSpaceOnUse" id="gradient7" r="819.2" spreadMethod="pad">
      <stop offset="0.0" stop-color="#464d51"/>
      <stop offset="1.0" stop-color="#303437"/>
    </radialGradient>
    <radialGradient cx="0" cy="0" gradientTransform="matrix(0.0029, 0.0, 0.0, 0.0029, -40.4, -12.0)" gradientUnits="userSpaceOnUse" id="gradient8" r="819.2" spreadMethod="pad">
      <stop offset="0.0" stop-color="#464d51"/>
      <stop offset="1.0" stop-color="#303437"/>
    </radialGradient>
    <radialGradient cx="0" cy="0" gradientTransform="matrix(0.0239, 0.0, 0.0, 0.0239, -70.0, -5.75)" gradientUnits="userSpaceOnUse" id="gradient9" r="819.2" spreadMethod="pad">
      <stop offset="0.7568627450980392" stop-color="#565a5d"/>
      <stop offset="0.792156862745098" stop-color="#626667"/>
      <stop offset="0.9254901960784314" stop-color="#676a6b"/>
      <stop offset="0.984313725490196" stop-color="#565a5d"/>
    </radialGradient>
    <radialGradient cx="0" cy="0" gradientTransform="matrix(0.0028, 0.0, 0.0, 0.0028, -40.3, 0.6)" gradientUnits="userSpaceOnUse" id="gradient10" r="819.2" spreadMethod="pad">
      <stop offset="0.0" stop-color="#464d51"/>
      <stop offset="1.0" stop-color="#303437"/>
    </radialGradient>
    <radialGradient cx="0" cy="0" gradientTransform="matrix(0.0249, 0.0249, -0.0337, 0.0337, 44.45, -123.0)" gradientUnits="userSpaceOnUse" id="gradient11" r="819.2" spreadMethod="pad">
      <stop offset="0.0" stop-color="#5f6465"/>
      <stop offset="1.0" stop-color="#454a4d"/>
    </radialGradient>
    <linearGradient gradientTransform="matrix(0.0137, 0.0, 0.0, 0.1305, 58.75, 0.6)" gradientUnits="userSpaceOnUse" id="gradient12" spreadMethod="pad" x1="-819.2" x2="819.2">
      <stop offset="0.0" stop-color="#43484b"/>
      <stop offset="0.26666666666666666" stop-color="#565c5f"/>
      <stop offset="0.7411764705882353" stop-color="#585e61"/>
      <stop offset="1.0" stop-color="#43484b"/>
    </linearGradient>
    <radialGradient cx="0" cy="0" gradientTransform="matrix(-0.0229, 0.0229, -0.0322, -0.0322, 44.95, 127.5)" gradientUnits="userSpaceOnUse" id="gradient13" r="819.2" spreadMethod="pad">
      <stop offset="0.0" stop-color="#5f6465"/>
      <stop offset="1.0" stop-color="#454a4d"/>
    </radialGradient>
    <linearGradient gradientTransform="matrix(0.0, 0.0125, -0.0137, 0.0, -22.25, 138.75)" gradientUnits="userSpaceOnUse" id="gradient14" spreadMethod="pad" x1="-819.2" x2="819.2">
      <stop offset="0.0" stop-color="#43484b"/>
      <stop offset="0.26666666666666666" stop-color="#565c5f"/>
      <stop offset="0.7411764705882353" stop-color="#585e61"/>
      <stop offset="1.0" stop-color="#43484b"/>
    </linearGradient>
    <radialGradient cx="0" cy="0" gradientTransform="matrix(0.0029, 0.0, 0.0, 0.0029, -45.8, 12.5)" gradientUnits="userSpaceOnUse" id="gradient15" r="819.2" spreadMethod="pad">
      <stop offset="0.0" stop-color="#464d51"/>
      <stop offset="1.0" stop-color="#303437"/>
    </radialGradient>
    <radialGradient cx="0" cy="0" gradientTransform="matrix(0.0029, 0.0, 0.0, 0.0029, -56.65, 21.5)" gradientUnits="userSpaceOnUse" id="gradient16" r="819.2" spreadMethod="pad">
      <stop offset="0.0" stop-color="#464d51"/>
      <stop offset="1.0" stop-color="#303437"/>
    </radialGradient>
    <radialGradient cx="0" cy="0" gradientTransform="matrix(0.0029, 0.0, 0.0, 0.0029, -70.0, 24.5)" gradientUnits="userSpaceOnUse" id="gradient17" r="819.2" spreadMethod="pad">
      <stop offset="0.0" stop-color="#464d51"/>
      <stop offset="1.0" stop-color="#303437"/>
    </radialGradient>
    <g id="shape1" transform="matrix(1.0, 0.0, 0.0, 1.0, 4.25, 4.5)">
      <path d="M0.0 -4.0 Q1.65 -4.0 2.8 -2.85 4.0 -1.65 4.0 0.0 4.0 1.65 2.8 2.8 1.65 4.0 0.0 4.0 L0.0 -4.0 0.0 4.0 Q-1.65 4.0 -2.85 2.8 -4.0 1.65 -4.0 0.0 -4.0 -1.65 -2.85 -2.85 -1.65 -4.0 0.0 -4.0" fill="url(#gradient18)" fill-rule="evenodd" stroke="none"/>
      <path d="M0.0 -4.0 L0.0 4.0" fill="none" stroke="#282e2f" stroke-linecap="round" stroke-linejoin="round" stroke-width="1.0"/>
      <path d="M0.0 4.0 Q1.65 4.0 2.8 2.8 4.0 1.65 4.0 0.0 4.0 -1.65 2.8 -2.85 1.65 -4.0 0.0 -4.0 M0.0 4.0 Q-1.65 4.0 -2.85 2.8 -4.0 1.65 -4.0 0.0 -4.0 -1.65 -2.85 -2.85 -1.65 -4.0 0.0 -4.0 Z" fill="none" stroke="#34393d" stroke-linecap="round" stroke-linejoin="round" stroke-width="0.5"/>
    </g>
    <radialGradient cx="0" cy="0" gradientTransform="matrix(0.0047, 0.0, 0.0, 0.0047, 0.0, 0.2)" gradientUnits="userSpaceOnUse" id="gradient18" r="819.2" spreadMethod="pad">
      <stop offset="0.0" stop-color="#515759"/>
      <stop offset="1.0" stop-color="#373b3e"/>
    </radialGradient>
  </defs>
</svg>
