<?xml version="1.0" encoding="UTF-8" standalone="no"?>
<svg xmlns:xlink="http://www.w3.org/1999/xlink" height="222.4px" width="159.85px" xmlns="http://www.w3.org/2000/svg">
  <g transform="matrix(1.0, 0.0, 0.0, 1.0, 74.75, 121.95)">
    <use height="222.4" transform="matrix(1.0, 0.0, 0.0, 1.0, -74.75, -121.95)" width="159.85" xlink:href="#shape0"/>
  </g>
  <defs>
    <g id="shape0" transform="matrix(1.0, 0.0, 0.0, 1.0, 74.75, 121.95)">
      <path d="M60.55 -121.95 Q61.4 -122.1 61.6 -121.25 L62.2 -121.2 Q63.55 -121.2 64.5 -119.95 65.4 -118.75 65.35 -117.05 65.3 -115.4 64.35 -114.25 63.4 -113.15 62.2 -113.05 L62.6 -107.85 Q65.25 -66.5 70.9 -12.55 L70.95 -11.7 71.0 -11.2 71.2 -9.6 71.2 -9.45 71.45 -6.95 72.0 -2.25 72.05 -1.35 75.0 25.05 75.05 25.7 75.3 27.8 75.4 28.55 75.85 32.55 76.15 35.05 80.85 74.1 81.9 74.1 81.95 74.1 Q83.3 74.15 84.2 75.35 85.1 76.55 85.1 78.3 85.05 79.95 84.05 81.1 83.1 82.25 81.75 82.25 81.6 82.85 80.85 82.95 L77.2 83.15 77.15 83.15 64.5 83.9 63.25 84.0 47.35 85.2 46.55 85.25 37.3 86.05 35.75 86.2 19.45 87.85 18.85 87.95 15.7 88.3 14.4 88.45 14.1 88.5 13.5 88.55 -2.7 90.65 -4.25 90.85 -13.2 92.15 -14.0 92.25 -30.25 94.9 -31.5 95.1 -42.95 97.15 -43.5 97.45 -43.6 97.3 -45.65 97.65 -46.4 98.8 -46.65 99.05 -47.3 99.65 Q-48.35 100.6 -49.8 100.4 -51.25 100.15 -52.25 98.95 -53.3 97.65 -53.35 96.1 -53.4 94.55 -52.4 93.6 L-52.4 93.55 -51.45 92.7 Q-50.8 92.05 -49.9 91.95 L-52.5 59.55 -52.6 58.4 -53.35 49.9 -53.4 48.95 -53.55 47.3 -53.6 46.65 -53.65 46.25 -53.7 45.7 -53.8 44.95 -53.8 44.6 -53.8 44.3 -53.9 43.7 -55.6 24.95 -55.7 24.1 -56.0 21.05 -56.25 18.25 -56.3 17.5 -56.35 16.95 -56.45 15.6 -56.5 15.4 -56.85 11.75 -56.9 11.05 -56.95 10.8 -57.9 1.45 -57.95 0.55 Q-62.9 -48.45 -69.3 -99.3 L-71.65 -99.15 -72.0 -99.3 -72.8 -99.65 Q-74.05 -100.2 -74.5 -101.65 -75.0 -103.15 -74.45 -104.7 -73.85 -106.25 -72.55 -107.0 -71.25 -107.75 -70.0 -107.25 L-69.95 -107.2 -68.85 -106.75 Q-67.8 -106.3 -67.3 -105.2 -2.0 -109.4 47.95 -118.95 L60.55 -121.95" fill="#000000" fill-rule="evenodd" stroke="none"/>
    </g>
  </defs>
</svg>
