<?xml version="1.0" encoding="UTF-8" standalone="no"?>
<svg xmlns:xlink="http://www.w3.org/1999/xlink" height="164.25px" width="101.0px" xmlns="http://www.w3.org/2000/svg">
  <g transform="matrix(1.0, 0.0, 0.0, 1.0, 50.45, 80.15)">
    <use height="54.55" transform="matrix(1.0, 0.0, 0.0, 1.0, -24.3, 27.8)" width="46.3" xlink:href="#shape0"/>
    <use height="40.7" transform="matrix(1.0, 0.0, 0.0, 1.0, -15.4, -80.15)" width="30.25" xlink:href="#shape1"/>
    <use height="99.15" transform="matrix(1.0, 0.0, 0.0, 1.0, -50.45, -51.3)" width="101.0" xlink:href="#shape2"/>
  </g>
  <defs>
    <g id="shape0" transform="matrix(1.0, 0.0, 0.0, 1.0, 24.3, -27.8)">
      <path d="M14.6 81.85 L3.25 82.35 -1.15 76.55 -1.4 30.4 22.0 28.4 16.85 72.4 20.7 74.4 20.1 77.8 14.6 81.85" fill="#0d0f0d" fill-rule="evenodd" stroke="none"/>
      <path d="M-2.25 31.0 L-2.6 54.6 -1.45 65.9 -1.65 75.25 -6.0 76.7 -22.7 76.3 -24.0 72.95 -19.55 70.7 -19.45 65.7 -23.1 55.4 -24.3 27.8 -2.25 31.0" fill="#0d0f0d" fill-rule="evenodd" stroke="none"/>
      <path d="M21.1 30.65 L20.5 30.7 20.5 30.65 21.1 30.65" fill="#261817" fill-rule="evenodd" stroke="none"/>
      <path d="M7.05 67.4 L5.85 67.4 5.2 68.6 5.85 69.25 7.05 69.85 8.25 69.25 8.25 67.4 7.05 67.4 M0.4 69.85 L0.4 71.05 2.8 71.05 3.4 69.85 2.8 68.6 1.6 68.6 0.4 68.6 0.4 69.85 M12.5 69.85 L12.5 70.45 13.7 71.05 14.9 70.45 15.5 69.85 14.9 68.6 13.7 68.6 12.5 68.6 12.5 69.85 M6.2 71.6 L16.05 73.15 20.35 74.85 19.45 77.3 14.5 81.1 3.45 81.55 -0.2 76.7 0.1 74.25 6.2 71.6 M15.95 67.0 L7.5 66.4 -1.0 67.0 -0.5 32.25 20.2 30.9 15.95 67.0 M16.1 67.4 L16.1 72.25 5.2 71.0 -0.85 74.05 -0.85 67.4 8.25 66.8 16.1 67.4" fill="#1d1211" fill-rule="evenodd" stroke="none"/>
      <path d="M7.05 67.4 L8.25 67.4 8.25 69.25 7.05 69.85 5.85 69.25 5.2 68.6 5.85 67.4 7.05 67.4 5.85 68.0 5.85 69.25 7.65 69.25 7.65 68.0 7.05 67.4 M1.6 68.6 L2.8 68.6 3.4 69.85 2.8 71.05 0.4 71.05 0.4 69.85 1.0 70.45 2.2 70.45 2.2 69.85 2.8 69.85 1.6 68.6 0.4 69.85 0.4 68.6 1.6 68.6 M13.7 68.6 L14.9 68.6 15.5 69.85 14.9 70.45 13.7 71.05 12.5 70.45 12.5 69.85 13.1 70.45 14.3 70.45 14.3 69.85 14.9 69.85 13.7 68.6 12.5 69.85 12.5 68.6 13.7 68.6" fill="#0d0f0d" fill-rule="evenodd" stroke="none"/>
      <path d="M7.05 67.4 L7.65 68.0 7.65 69.25 5.85 69.25 5.85 68.0 7.05 67.4 M1.6 68.6 L2.8 69.85 2.2 69.85 2.2 70.45 1.0 70.45 0.4 69.85 1.6 68.6 M13.7 68.6 L14.9 69.85 14.3 69.85 14.3 70.45 13.1 70.45 12.5 69.85 13.7 68.6" fill="#844747" fill-rule="evenodd" stroke="none"/>
      <path d="M-24.0 30.65 L-23.4 30.65 -23.4 30.7 -24.0 30.65" fill="#261817" fill-rule="evenodd" stroke="none"/>
      <path d="M-2.55 32.25 L-3.2 54.1 -2.3 65.0 -10.8 64.4 -19.25 65.0 -22.5 55.5 -23.1 29.9 -2.55 32.25 M-9.9 65.5 L-11.1 65.5 -11.1 67.35 -9.9 67.95 -8.7 67.35 -8.1 66.7 -8.7 65.5 -9.9 65.5 M-16.55 66.7 L-17.75 66.7 -18.4 67.95 -17.75 68.55 -16.55 69.15 -15.35 68.55 -15.35 67.95 -15.35 66.7 -16.55 66.7 M-11.15 64.9 L-2.05 65.5 -2.05 72.15 -8.1 69.1 -19.0 70.35 -19.0 65.5 -11.15 64.9 M-3.25 67.95 L-3.25 66.7 -4.45 66.7 -5.7 66.7 -6.3 67.95 -5.7 69.15 -3.25 69.15 -3.25 67.95 M-2.95 72.35 L-2.65 74.8 -6.35 75.75 -22.3 75.4 -23.2 72.95 -18.9 71.25 -9.1 69.7 -2.95 72.35" fill="#1d1211" fill-rule="evenodd" stroke="none"/>
      <path d="M-9.9 65.5 L-10.5 66.1 -10.5 67.35 -8.7 67.35 -9.9 67.95 -11.1 67.35 -11.1 65.5 -9.9 65.5 -8.7 65.5 -8.1 66.7 -8.7 67.35 -8.7 66.1 -9.9 65.5 M-16.55 66.7 L-15.35 66.7 -15.35 67.95 -15.35 68.55 -16.55 69.15 -17.75 68.55 -18.4 67.95 -17.75 66.7 -16.55 66.7 -17.75 67.95 -17.15 67.95 -17.15 68.55 -15.95 68.55 -15.35 67.95 -16.55 66.7 M-3.25 67.95 L-4.45 66.7 -3.25 66.7 -3.25 67.95 -3.25 69.15 -5.7 69.15 -6.3 67.95 -5.7 66.7 -4.45 66.7 -5.7 67.95 -5.05 67.95 -5.05 68.55 -3.85 68.55 -3.25 67.95" fill="#0d0f0d" fill-rule="evenodd" stroke="none"/>
      <path d="M-8.7 67.35 L-10.5 67.35 -10.5 66.1 -9.9 65.5 -8.7 66.1 -8.7 67.35 M-16.55 66.7 L-15.35 67.95 -15.95 68.55 -17.15 68.55 -17.15 67.95 -17.75 67.95 -16.55 66.7 M-4.45 66.7 L-3.25 67.95 -3.85 68.55 -5.05 68.55 -5.05 67.95 -5.7 67.95 -4.45 66.7" fill="#844747" fill-rule="evenodd" stroke="none"/>
    </g>
    <g id="shape1" transform="matrix(1.0, 0.0, 0.0, 1.0, 15.4, 80.15)">
      <path d="M-3.35 -79.95 L0.35 -80.15 13.65 -79.55 14.85 -64.4 14.85 -44.9 -0.9 -39.45 -15.4 -44.3 -14.8 -64.4 -12.35 -79.55 -11.1 -79.6 -11.75 -79.55 -12.35 -76.5 -12.35 -74.7 -11.75 -74.7 -10.55 -75.3 -10.55 -78.35 0.95 -79.55 -3.35 -79.95 M9.75 -67.35 L11.2 -67.45 11.2 -66.85 9.75 -66.85 3.35 -66.85 1.55 -66.25 2.15 -67.45 1.55 -68.05 2.15 -68.05 9.55 -70.5 11.2 -71.05 10.0 -69.25 9.65 -69.15 2.75 -66.85 9.75 -67.35 M9.85 -58.55 L12.45 -57.75 11.85 -55.35 11.85 -57.15 9.8 -57.85 6.4 -58.95 0.35 -60.2 6.4 -59.6 9.85 -58.55 M-11.75 -73.5 L-13.6 -62.6 -14.2 -50.5 -0.9 -45.65 14.25 -50.5 14.25 -62.0 13.65 -72.9 13.05 -72.9 10.0 -74.1 3.95 -72.9 0.35 -71.05 -2.1 -72.9 -5.1 -74.1 -8.15 -74.1 -8.75 -74.0 -8.75 -74.1 -9.95 -73.8 -11.75 -73.5 M-8.95 -69.7 L-2.1 -67.45 -1.5 -67.45 -0.9 -67.45 -1.2 -66.4 -0.9 -66.25 -1.25 -66.25 -1.5 -65.3 -1.5 -63.8 -0.25 -63.2 1.55 -63.8 1.55 -65.0 2.15 -65.65 2.15 -63.2 -0.25 -63.2 -2.1 -63.2 -1.5 -65.3 -1.5 -66.25 -9.1 -66.25 -11.15 -66.25 -11.15 -66.85 -9.1 -66.85 -2.7 -66.85 -9.0 -68.3 -10.55 -68.65 -11.15 -70.45 -8.95 -69.7 M-9.15 -58.45 L-5.7 -59.6 0.35 -60.2 -9.15 -57.65 -10.55 -57.15 -9.95 -55.95 -10.55 -55.95 -11.15 -57.75 -9.15 -58.45 M0.95 -57.15 L1.55 -56.55 0.95 -55.35 0.35 -54.75 0.95 -55.95 -0.25 -57.15 -0.25 -57.75 0.95 -57.15 M-1.5 -67.45 L-2.1 -66.85 -1.5 -66.55 -1.5 -67.45" fill="#050505" fill-rule="evenodd" stroke="none"/>
      <path d="M9.75 -66.85 L9.85 -58.55 6.4 -59.6 0.35 -60.2 -5.7 -59.6 -9.15 -58.45 -9.1 -66.25 -1.5 -66.25 -1.5 -65.3 -2.1 -63.2 -0.25 -63.2 2.15 -63.2 2.15 -65.65 1.55 -65.0 1.55 -63.8 -0.25 -63.2 -1.5 -63.8 -1.5 -65.3 -1.25 -66.25 -0.9 -66.25 -1.2 -66.4 -0.9 -67.45 -1.5 -67.45 -2.1 -67.45 -8.95 -69.7 -8.75 -74.0 -8.15 -74.1 -5.1 -74.1 -2.1 -72.9 0.35 -71.05 3.95 -72.9 10.0 -74.1 13.05 -72.9 13.65 -72.9 14.25 -62.0 14.25 -50.5 -0.9 -45.65 -14.2 -50.5 -13.6 -62.6 -11.75 -73.5 -12.95 -63.2 -12.95 -51.1 -8.75 -49.3 -9.15 -57.65 0.35 -60.2 6.4 -58.95 9.8 -57.85 9.4 -49.3 13.05 -50.5 13.65 -62.6 12.45 -72.9 11.85 -72.9 9.4 -73.5 9.55 -70.5 2.15 -68.05 1.55 -68.05 2.15 -67.45 1.55 -66.25 3.35 -66.85 9.75 -66.85 M9.65 -69.15 L9.75 -67.35 2.75 -66.85 9.65 -69.15 M0.95 -57.15 L-0.25 -57.75 -0.25 -57.15 0.95 -55.95 0.35 -54.75 0.95 -55.35 1.55 -56.55 0.95 -57.15 M-9.95 -73.8 L-11.15 -73.5 -11.75 -73.5 -9.95 -73.8 M-1.5 -67.45 L-1.5 -66.55 -2.1 -66.85 -1.5 -67.45 M-9.1 -66.85 L-9.0 -68.3 -2.7 -66.85 -9.1 -66.85" fill="#54acce" fill-rule="evenodd" stroke="none"/>
      <path d="M-3.35 -79.95 L0.95 -79.55 -10.55 -78.35 -10.55 -75.3 -11.75 -74.7 -12.35 -74.7 -12.35 -76.5 -11.75 -79.55 -11.1 -79.6 -5.1 -80.15 -3.35 -79.95" fill="#e3f2ea" fill-rule="evenodd" stroke="none"/>
      <path d="M9.75 -66.85 L11.2 -66.85 11.2 -67.45 9.75 -67.35 9.65 -69.15 10.0 -69.25 11.2 -71.05 9.55 -70.5 9.4 -73.5 11.85 -72.9 12.45 -72.9 13.65 -62.6 13.05 -50.5 9.4 -49.3 9.8 -57.85 11.85 -57.15 11.85 -55.35 12.45 -57.75 9.85 -58.55 9.75 -66.85" fill="#4575b4" fill-rule="evenodd" stroke="none"/>
      <path d="M-8.75 -74.0 L-8.95 -69.7 -11.15 -70.45 -10.55 -68.65 -9.0 -68.3 -9.1 -66.85 -11.15 -66.85 -11.15 -66.25 -9.1 -66.25 -9.15 -58.45 -11.15 -57.75 -10.55 -55.95 -9.95 -55.95 -10.55 -57.15 -9.15 -57.65 -8.75 -49.3 -12.95 -51.1 -12.95 -63.2 -11.75 -73.5 -11.15 -73.5 -9.95 -73.8 -8.75 -74.1 -8.75 -74.0" fill="#96d4d9" fill-rule="evenodd" stroke="none"/>
    </g>
    <g id="shape2" transform="matrix(1.0, 0.0, 0.0, 1.0, 50.45, 51.3)">
      <path d="M-14.5 30.0 L-23.85 30.0 -23.85 29.75 -24.45 29.75 -22.65 9.15 -27.5 3.7 -30.5 15.2 -28.1 28.5 -29.3 29.1 -29.3 32.15 -27.5 35.15 -26.9 35.15 -27.5 39.4 -25.95 40.95 -25.95 41.45 -32.95 47.85 -43.8 38.8 -40.8 33.95 -41.4 34.55 -42.0 30.35 -43.8 30.95 -50.45 -4.75 -46.85 -27.15 -47.45 -28.35 -19.5 -45.45 -20.25 -45.9 -17.8 -51.3 -17.2 -51.3 -0.25 -45.65 17.25 -51.3 17.85 -51.3 20.3 -45.9 19.35 -45.35 47.5 -28.35 46.9 -27.15 50.55 -4.75 43.9 30.95 42.05 30.35 41.45 34.55 40.25 33.95 43.3 38.8 33.0 47.85 24.55 41.2 26.35 39.4 25.15 35.15 25.75 35.15 29.35 32.15 29.35 29.1 28.15 28.5 30.6 15.2 27.55 3.7 21.5 9.15 22.7 29.75 22.1 29.75 22.1 30.0 13.35 30.0 22.1 29.1 21.5 25.5 20.3 8.55 42.65 -30.15 42.05 -30.15 26.95 -39.85 26.35 -31.35 19.1 -31.35 22.1 -27.75 0.95 -12.0 0.95 28.5 1.55 29.1 1.55 30.35 0.95 30.35 0.95 31.3 0.95 32.15 -3.3 32.15 -3.25 31.15 0.35 31.55 0.35 24.3 0.35 17.65 0.35 11.6 0.35 5.55 0.35 -1.1 0.35 -7.15 0.35 -11.4 -2.1 -12.6 -2.35 5.2 -1.5 4.35 -0.9 4.35 0.35 5.55 -0.25 6.15 -0.9 6.15 -2.1 6.15 -2.35 5.85 -2.45 11.35 -1.5 10.35 -0.9 10.35 0.35 11.6 -0.25 12.2 -0.9 12.2 -2.1 12.2 -2.45 11.85 -2.55 17.5 -2.1 17.05 -1.5 17.05 -2.1 17.65 -1.5 17.65 -1.5 18.85 -2.1 18.85 -2.55 17.9 -2.65 24.25 -1.5 23.1 -0.9 23.1 0.35 24.3 -0.25 24.9 -0.9 24.9 -2.1 24.9 -2.65 24.35 -2.7 27.3 -20.75 25.6 -3.3 26.7 -2.7 -13.2 -23.85 -27.75 -20.25 -31.35 -27.5 -31.35 -27.5 -39.85 -42.0 -30.15 -42.6 -30.15 -21.45 8.55 -22.65 25.5 -23.25 29.1 -14.5 30.0 M-0.9 24.9 L-0.25 24.3 -0.9 23.7 -2.1 24.3 -1.5 24.3 -0.9 24.9 M-0.9 12.2 L-0.25 11.6 -0.9 11.0 -2.1 11.6 -1.5 11.6 -0.9 12.2 M-0.9 6.15 L-0.25 5.55 -0.9 4.95 -2.1 5.55 -1.5 5.55 -0.9 6.15 M19.1 -28.95 L20.3 -28.95 20.3 -27.4 21.5 -28.35 17.25 -31.95 25.75 -31.95 25.75 -40.45 26.35 -40.45 25.15 -41.15 25.15 -41.05 25.75 -40.45 24.55 -39.2 23.3 -39.85 23.3 -41.05 24.45 -41.6 23.3 -42.25 22.7 -35.0 14.85 -33.15 16.05 -33.15 16.65 -33.15 17.25 -32.55 16.05 -31.35 15.65 -31.55 17.25 -28.35 0.35 -16.25 0.95 -12.6 19.95 -27.15 19.1 -27.15 19.1 -27.75 19.7 -27.75 19.1 -28.95 18.5 -27.75 19.1 -27.15 17.85 -27.15 17.85 -28.95 19.1 -28.95 M16.05 -33.15 L15.45 -32.55 16.05 -31.95 16.05 -32.55 16.65 -32.55 16.05 -33.15 M23.9 -40.45 L24.55 -39.85 24.55 -40.45 25.15 -40.45 24.55 -41.05 23.9 -40.45 M23.9 -35.0 L24.55 -34.4 24.55 -33.15 23.3 -32.55 22.1 -33.8 23.3 -35.0 23.9 -35.0 M23.3 -33.8 L23.9 -33.8 23.3 -34.4 22.7 -33.8 23.3 -33.15 23.3 -33.8 M22.1 -35.0 L22.7 -42.25 18.5 -44.65 1.55 -17.45 16.65 -28.35 14.25 -33.15 22.1 -35.0 M5.8 -39.2 L6.4 -39.2 18.5 -46.5 16.65 -50.1 0.95 -44.65 5.8 -39.2 M5.15 -37.4 L4.35 -38.4 2.15 -36.2 2.75 -36.2 6.6 -28.2 16.5 -43.75 5.15 -37.4 M-0.25 -40.45 L0.95 -40.45 1.55 -39.2 0.95 -38.6 -0.25 -38.0 -1.5 -38.6 -2.1 -39.2 -1.5 -40.45 -0.25 -40.45 -1.5 -39.2 -0.9 -38.6 0.35 -38.6 0.35 -39.2 0.95 -39.2 -0.25 -40.45 M1.55 -28.95 L1.55 -27.15 -0.25 -26.5 -1.5 -27.15 -2.1 -28.35 -1.5 -28.95 -0.25 -29.55 0.35 -29.55 1.55 -28.95 M5.8 -27.15 L1.55 -35.6 -2.1 -35.6 -5.7 -27.15 -0.25 -16.85 5.8 -27.15 M0.95 -28.95 L-0.9 -28.95 -1.5 -28.35 -0.9 -27.15 0.95 -27.15 0.95 -28.95 M1.55 -36.2 L3.95 -38.6 -0.2 -43.75 -3.9 -38.6 -2.1 -36.2 1.55 -36.2 M11.2 -21.1 L10.0 -21.7 10.0 -22.3 10.0 -22.9 11.2 -23.5 11.85 -23.5 11.85 -22.9 12.45 -22.3 11.2 -21.1 M11.85 -22.3 L11.2 -22.9 10.0 -22.3 11.2 -21.7 11.2 -22.3 11.85 -22.3 M25.15 -18.25 L26.95 -15.05 28.75 -15.05 28.75 -13.8 14.95 -16.3 14.85 -16.25 11.85 -16.85 14.95 -16.3 22.1 -20.45 22.7 -20.45 22.7 -19.85 23.9 -20.45 24.25 -19.85 25.15 -18.25 M3.95 -16.25 L2.75 -16.85 3.95 -16.85 3.95 -16.25 3.95 -15.05 2.75 -15.05 2.15 -15.05 1.55 -16.25 2.15 -16.85 2.75 -16.85 2.15 -16.25 2.75 -16.25 2.75 -15.05 3.95 -16.25 M-11.15 -20.45 L-11.55 -20.45 0.35 -12.0 0.35 -15.65 -6.7 -20.45 -2.1 -17.45 -16.4 -43.7 -18.15 -44.7 -23.25 -41.65 -23.25 -35.0 -15.4 -33.15 -18.4 -28.35 -16.6 -32.0 -17.2 -31.35 -18.4 -31.95 -19.0 -32.55 -18.4 -33.15 -17.2 -33.15 -16.6 -33.15 -16.2 -32.75 -16.0 -33.15 -23.85 -35.0 -24.45 -42.25 -27.5 -40.45 -26.9 -40.45 -26.9 -39.2 -26.9 -31.95 -18.4 -31.95 -22.65 -28.35 -22.0 -27.85 -21.45 -28.95 -20.85 -28.95 -21.45 -27.75 -20.85 -27.75 -20.85 -27.15 -20.95 -27.15 -12.2 -20.9 -12.35 -21.1 -11.75 -22.3 -11.15 -22.3 -11.75 -21.1 -11.15 -21.1 -11.15 -20.45 -9.95 -21.1 -11.15 -22.3 -9.95 -22.3 -9.95 -21.1 -9.95 -20.45 -11.15 -20.45 M-17.2 -33.15 L-18.4 -32.55 -17.8 -32.55 -17.2 -31.95 -16.6 -32.55 -17.2 -33.15 M38.45 -20.45 L38.45 -18.65 40.25 -18.65 40.25 -19.85 40.85 -19.85 40.25 -20.45 38.45 -20.45 M34.8 -13.8 L35.4 -13.8 36.6 -13.2 37.25 -12.6 36.6 -11.4 34.8 -10.8 33.6 -11.4 33.1 -12.4 29.1 -4.9 29.95 -5.35 30.6 -5.35 31.8 -4.75 32.4 -3.55 31.8 -2.95 29.95 -2.35 28.75 -2.95 28.2 -3.5 20.9 8.55 31.2 -2.35 31.8 -2.35 46.9 -28.35 43.3 -30.15 37.5 -20.15 37.85 -20.45 39.65 -21.1 40.25 -21.1 41.45 -19.85 40.85 -18.65 39.65 -18.05 37.85 -18.65 37.3 -19.75 33.4 -13.0 33.6 -13.2 34.8 -13.8 33.6 -12.6 34.2 -11.4 36.0 -11.4 36.0 -12.6 36.6 -12.6 36.0 -13.2 34.8 -13.8 M28.75 -4.15 L29.35 -2.95 31.2 -2.95 31.2 -4.75 29.35 -4.75 28.75 -4.15 M43.9 -28.35 L44.5 -28.35 45.1 -27.75 45.7 -26.5 45.1 -25.9 43.9 -25.3 42.05 -25.9 41.45 -26.5 42.05 -27.75 43.9 -28.35 M42.65 -25.9 L44.5 -25.9 44.5 -26.5 45.1 -26.5 44.5 -27.75 42.65 -27.75 42.65 -25.9 M37.25 26.7 L37.85 27.3 37.25 28.5 36.0 29.1 34.8 28.5 34.8 26.7 36.0 26.1 29.35 24.9 28.75 28.5 43.3 30.35 43.3 27.3 42.65 27.3 42.65 29.1 41.45 29.1 42.05 28.5 42.05 27.3 41.45 26.7 40.9 27.0 36.75 26.25 37.25 26.7 35.4 26.7 35.4 27.9 36.0 28.5 37.25 27.9 37.25 26.7 M49.35 -4.75 L46.3 -25.9 33.0 -2.35 27.55 3.1 31.2 15.8 29.35 24.3 43.9 26.1 49.35 -4.75 M40.25 27.3 L40.25 28.5 41.45 29.1 40.25 29.1 39.65 27.9 40.25 27.3 M40.85 33.35 L41.45 30.95 30.6 29.1 29.95 32.15 40.85 33.35 M19.7 26.7 L20.3 27.9 19.7 28.5 19.1 28.5 17.85 28.5 17.85 27.9 17.85 26.7 19.1 26.7 19.7 26.7 M19.1 28.5 L19.1 27.9 19.7 27.9 19.1 26.7 17.85 27.9 19.1 28.5 M11.85 29.1 L11.2 29.1 10.6 28.5 11.85 27.3 12.45 27.3 13.05 27.9 13.05 29.1 11.85 29.1 11.85 28.5 12.45 28.5 11.85 27.9 11.2 28.5 11.85 29.1 M4.55 28.5 L5.15 28.5 5.8 29.1 4.55 30.35 3.35 29.75 3.35 29.1 4.55 29.75 4.55 29.1 5.15 29.1 4.55 28.5 3.35 29.1 3.35 28.5 4.55 28.5 M31.2 25.5 L31.8 25.5 33.0 26.7 32.4 27.9 31.2 28.5 29.95 27.9 29.35 26.7 29.95 26.1 31.2 25.5 M32.4 26.7 L31.8 26.1 30.6 26.1 29.95 26.7 31.2 27.9 31.8 27.3 31.8 26.7 32.4 26.7 M39.65 33.95 L30.6 32.75 26.35 35.8 26.95 38.8 29.35 40.0 33.6 38.8 33.6 36.4 34.8 40.0 33.6 39.4 29.35 41.2 26.95 40.0 26.35 41.2 33.0 46.65 42.05 38.8 39.65 33.95 M-43.8 -28.35 L-42.6 -27.75 -42.0 -26.5 -42.6 -25.9 -43.8 -25.3 -45.05 -25.9 -45.65 -26.5 -45.05 -27.75 -44.4 -28.35 -43.8 -28.35 M-42.6 -25.9 L-42.6 -27.75 -44.4 -27.75 -45.05 -26.5 -44.4 -26.5 -44.4 -25.9 -42.6 -25.9 M-36.55 -13.8 L-35.95 -14.4 -35.35 -14.4 -34.25 -13.85 -40.2 -25.3 -43.2 -30.15 -46.85 -28.35 -31.7 -2.35 -31.1 -2.35 -22.05 8.55 -28.8 -3.9 -29.3 -2.95 -30.5 -2.95 -31.7 -2.95 -32.35 -4.15 -31.7 -5.35 -31.1 -5.95 -30.5 -5.95 -29.7 -5.55 -33.7 -12.9 -33.55 -12.6 -34.15 -11.4 -35.35 -10.8 -36.55 -11.4 -37.15 -12.6 -36.55 -13.8 -36.55 -12.0 -35.35 -11.4 -34.15 -12.6 -34.75 -13.8 -36.55 -13.8 M-40.8 -18.65 L-39.0 -18.65 -38.4 -19.85 -39.0 -20.45 -40.8 -20.45 -40.8 -18.65 -41.4 -19.85 -40.2 -21.1 -39.6 -21.1 -38.4 -20.45 -37.75 -19.85 -38.4 -18.65 -39.6 -18.05 -40.8 -18.65 M-30.5 -2.95 L-29.3 -3.55 -29.3 -5.35 -31.1 -5.35 -31.7 -4.15 -31.1 -4.15 -31.1 -3.55 -30.5 -2.95 M-49.85 -4.75 L-43.8 26.1 -29.3 24.3 -31.1 15.8 -27.5 3.1 -32.95 -2.35 -46.25 -25.9 -49.85 -4.75 M-5.7 -39.2 L-0.9 -44.65 -16.6 -50.1 -19.0 -46.5 -6.3 -39.2 -5.7 -39.2 M-5.1 -37.4 L-14.8 -42.85 -6.25 -28.25 -3.3 -35.6 -3.3 -35.9 -4.7 -37.95 -5.1 -37.4 M-20.85 -28.95 L-19.65 -28.95 -19.0 -27.75 -19.65 -27.15 -20.85 -27.15 -19.65 -27.75 -20.85 -28.95 M-24.45 -39.2 L-24.45 -38.6 -25.65 -38.0 -26.9 -39.2 -26.3 -39.85 -26.3 -40.45 -25.65 -40.45 -24.45 -39.85 -24.45 -39.2 -25.65 -39.85 -26.3 -39.2 -25.65 -39.2 -25.65 -38.6 -24.45 -39.2 M-23.85 -34.4 L-23.25 -33.8 -23.85 -33.15 -25.05 -32.55 -26.3 -33.8 -25.65 -34.4 -25.65 -35.0 -25.05 -35.0 -23.85 -34.4 M-25.05 -33.15 L-23.85 -33.8 -25.05 -34.4 -25.65 -33.8 -25.05 -33.8 -25.05 -33.15 M-2.1 -15.65 L-2.1 -15.05 -3.3 -15.05 -3.9 -15.05 -4.5 -15.65 -3.9 -16.85 -3.3 -16.85 -2.1 -16.85 -2.1 -15.65 -3.3 -16.85 -3.9 -15.65 -3.3 -15.65 -3.3 -15.05 -2.1 -15.65 M-0.9 -7.75 L-1.5 -7.15 -0.9 -7.15 -0.9 -6.55 -0.25 -7.15 -0.9 -7.75 -0.25 -7.75 0.35 -7.15 -0.9 -5.95 -2.1 -6.55 -2.1 -7.75 -0.9 -7.75 M-0.9 -1.7 L-0.25 -1.7 0.35 -1.1 -0.9 0.1 -2.1 -0.5 -2.1 -1.1 -1.5 -1.1 -0.9 -0.5 -0.25 -1.1 -0.9 -1.7 -2.1 -1.1 -2.1 -1.7 -0.9 -1.7 M-1.5 18.85 L-0.25 17.65 -1.5 17.05 -0.25 17.05 0.35 17.65 -0.25 18.85 -1.5 18.85 M-21.45 26.7 L-20.85 26.7 -19.65 27.9 -20.25 28.5 -20.85 28.5 -22.05 28.5 -22.05 27.9 -22.05 27.3 -21.45 26.7 M-20.85 28.5 L-20.25 27.9 -20.85 27.3 -22.05 27.9 -21.45 27.9 -20.85 28.5 M-29.3 27.3 L-29.9 27.9 -31.1 28.5 -32.35 27.9 -32.95 27.3 -32.35 26.1 -31.7 25.5 -31.1 25.5 -29.9 26.1 -29.3 27.3 -29.3 24.9 -36.2 26.1 -35.95 26.1 -34.75 26.7 -34.75 27.9 -34.75 28.5 -35.95 29.1 -37.15 28.5 -37.75 27.9 -37.15 26.7 -36.65 26.15 -41.0 26.9 -40.2 27.3 -39.6 28.5 -40.2 29.1 -41.4 29.75 Q-42.0 29.4 -42.6 29.1 L-43.2 28.5 -42.6 27.3 -42.5 27.2 -43.2 27.3 -43.8 27.3 -43.2 30.35 -29.3 28.5 -29.3 27.3 M-34.75 27.9 L-35.35 26.7 -37.15 26.7 -37.15 28.5 -35.35 28.5 -34.75 27.9 M-30.5 26.1 L-31.7 26.1 -32.35 26.7 -31.7 26.7 -31.7 27.9 -30.5 27.9 -29.9 26.7 -30.5 26.1 M-39.6 33.95 L-42.6 38.8 -33.55 46.65 -27.5 41.2 -27.5 40.0 -29.9 41.2 -34.15 39.4 -35.35 40.0 -34.15 36.4 -33.55 38.8 -29.3 40.0 -27.5 38.8 -27.5 35.8 -31.1 32.75 -39.6 33.95 M-30.5 29.1 L-41.4 30.95 -40.8 33.35 -29.9 32.15 -30.5 29.1 M-3.3 29.75 L-2.7 29.1 -2.7 28.5 -2.1 28.5 -0.9 29.1 -0.25 29.75 -0.9 30.35 -2.1 30.35 -2.7 30.35 -3.3 29.75 M-2.1 30.35 L-0.9 29.75 -2.1 29.1 -2.7 29.75 -2.1 29.75 -2.1 30.35 M-8.75 29.75 L-9.35 29.75 -9.95 29.1 -9.35 28.5 -9.35 27.9 -8.75 27.9 -7.55 28.5 -7.55 29.1 -8.75 28.5 -9.35 29.1 -8.75 29.1 -8.75 29.75 -7.55 29.1 -7.55 29.75 -8.75 29.75 M-13.6 28.5 L-14.2 29.1 -15.4 29.1 -16.0 29.1 -16.6 28.5 -16.0 27.9 -16.0 27.3 -15.4 27.3 -14.2 27.9 -13.6 28.5 M-15.4 28.5 L-15.4 29.1 -14.2 28.5 -15.4 27.9 -16.0 28.5 -15.4 28.5 M-40.8 27.3 L-42.0 27.3 -42.6 28.5 -42.0 28.5 -42.0 29.1 -40.8 29.1 -40.2 28.5 -40.8 27.3" fill="#0f0b0b" fill-rule="evenodd" stroke="none"/>
      <path d="M-0.9 24.9 L-1.5 24.3 -2.1 24.3 -0.9 23.7 -0.25 24.3 -0.9 24.9 M-1.5 18.85 L-1.5 17.65 -2.1 17.65 -1.5 17.05 -0.25 17.65 -1.5 18.85 M-0.9 12.2 L-1.5 11.6 -2.1 11.6 -0.9 11.0 -0.25 11.6 -0.9 12.2 M-0.9 6.15 L-1.5 5.55 -2.1 5.55 -0.9 4.95 -0.25 5.55 -0.9 6.15 M19.1 -28.95 L19.7 -27.75 19.1 -27.75 19.1 -27.15 18.5 -27.75 19.1 -28.95 M16.05 -33.15 L16.65 -32.55 16.05 -32.55 16.05 -31.95 15.45 -32.55 16.05 -33.15 M23.9 -40.45 L24.55 -41.05 25.15 -40.45 24.55 -40.45 24.55 -39.85 23.9 -40.45 M23.3 -33.8 L23.3 -33.15 22.7 -33.8 23.3 -34.4 23.9 -33.8 23.3 -33.8 M5.15 -37.4 L16.5 -43.75 6.6 -28.2 2.75 -36.2 2.15 -36.2 4.35 -38.4 5.15 -37.4 M5.8 -39.2 L0.95 -44.65 16.65 -50.1 18.5 -46.5 6.4 -39.2 5.8 -39.2 M-0.25 -40.45 L0.95 -39.2 0.35 -39.2 0.35 -38.6 -0.9 -38.6 -1.5 -39.2 -0.25 -40.45 M0.95 -28.95 L0.95 -27.15 -0.9 -27.15 -1.5 -28.35 -0.9 -28.95 0.95 -28.95 M11.85 -22.3 L11.2 -22.3 11.2 -21.7 10.0 -22.3 11.2 -22.9 11.85 -22.3 M24.25 -19.85 L24.55 -19.85 25.15 -18.25 24.25 -19.85 M2.75 -16.85 L3.95 -16.25 2.75 -15.05 2.75 -16.25 2.15 -16.25 2.75 -16.85 M-11.15 -20.45 L-11.15 -21.1 -11.75 -21.1 -11.15 -22.3 -9.95 -21.1 -11.15 -20.45 M-20.85 -27.15 L-20.85 -27.75 -21.45 -27.75 -20.85 -28.95 -19.65 -27.75 -20.85 -27.15 M-17.2 -33.15 L-16.6 -32.55 -17.2 -31.95 -17.8 -32.55 -18.4 -32.55 -17.2 -33.15 M38.45 -20.45 L40.25 -20.45 40.85 -19.85 40.25 -19.85 40.25 -18.65 38.45 -18.65 38.45 -20.45 M34.8 -13.8 L36.0 -13.2 36.6 -12.6 36.0 -12.6 36.0 -11.4 34.2 -11.4 33.6 -12.6 34.8 -13.8 M28.75 -4.15 L29.35 -4.75 31.2 -4.75 31.2 -2.95 29.35 -2.95 28.75 -4.15 M42.65 -25.9 L42.65 -27.75 44.5 -27.75 45.1 -26.5 44.5 -26.5 44.5 -25.9 42.65 -25.9 M37.25 26.7 L37.25 27.9 36.0 28.5 35.4 27.9 35.4 26.7 37.25 26.7 M40.9 27.0 L41.45 26.7 42.05 27.3 42.05 28.5 41.45 29.1 40.25 28.5 40.25 27.3 40.9 27.0 M5.8 14.6 L5.15 14.0 17.25 15.15 5.8 14.6 M19.1 28.5 L17.85 27.9 19.1 26.7 19.7 27.9 19.1 27.9 19.1 28.5 M11.85 29.1 L11.2 28.5 11.85 27.9 12.45 28.5 11.85 28.5 11.85 29.1 M4.55 28.5 L5.15 29.1 4.55 29.1 4.55 29.75 3.35 29.1 4.55 28.5 M32.4 26.7 L31.8 26.7 31.8 27.3 31.2 27.9 29.95 26.7 30.6 26.1 31.8 26.1 32.4 26.7 M-42.6 -25.9 L-44.4 -25.9 -44.4 -26.5 -45.05 -26.5 -44.4 -27.75 -42.6 -27.75 -42.6 -25.9 M-36.55 -13.8 L-34.75 -13.8 -34.15 -12.6 -35.35 -11.4 -36.55 -12.0 -36.55 -13.8 M-30.5 -2.95 L-31.1 -3.55 -31.1 -4.15 -31.7 -4.15 -31.1 -5.35 -29.3 -5.35 -29.3 -3.55 -30.5 -2.95 M-40.8 -18.65 L-40.8 -20.45 -39.0 -20.45 -38.4 -19.85 -39.0 -18.65 -40.8 -18.65 M-5.1 -37.4 L-4.7 -37.95 -3.3 -35.9 -3.3 -35.6 -6.25 -28.25 -14.8 -42.85 -5.1 -37.4 M-5.7 -39.2 L-6.3 -39.2 -19.0 -46.5 -16.6 -50.1 -0.9 -44.65 -5.7 -39.2 M-24.45 -39.2 L-25.65 -38.6 -25.65 -39.2 -26.3 -39.2 -25.65 -39.85 -24.45 -39.2 M-25.05 -33.15 L-25.05 -33.8 -25.65 -33.8 -25.05 -34.4 -23.85 -33.8 -25.05 -33.15 M-2.1 -15.65 L-3.3 -15.05 -3.3 -15.65 -3.9 -15.65 -3.3 -16.85 -2.1 -15.65 M-0.9 -7.75 L-0.25 -7.15 -0.9 -6.55 -0.9 -7.15 -1.5 -7.15 -0.9 -7.75 M-0.9 -1.7 L-0.25 -1.1 -0.9 -0.5 -1.5 -1.1 -2.1 -1.1 -0.9 -1.7 M-6.3 14.0 L-6.9 14.6 -18.4 15.15 -6.3 14.0 M-20.85 28.5 L-21.45 27.9 -22.05 27.9 -20.85 27.3 -20.25 27.9 -20.85 28.5 M-30.5 26.1 L-29.9 26.7 -30.5 27.9 -31.7 27.9 -31.7 26.7 -32.35 26.7 -31.7 26.1 -30.5 26.1 M-34.75 27.9 L-35.35 28.5 -37.15 28.5 -37.15 26.7 -35.35 26.7 -34.75 27.9 M-2.1 30.35 L-2.1 29.75 -2.7 29.75 -2.1 29.1 -0.9 29.75 -2.1 30.35 M-8.75 29.75 L-8.75 29.1 -9.35 29.1 -8.75 28.5 -7.55 29.1 -8.75 29.75 M-15.4 28.5 L-16.0 28.5 -15.4 27.9 -14.2 28.5 -15.4 29.1 -15.4 28.5 M-40.8 27.3 L-40.2 28.5 -40.8 29.1 -42.0 29.1 -42.0 28.5 -42.6 28.5 -42.0 27.3 -40.8 27.3" fill="#844747" fill-rule="evenodd" stroke="none"/>
      <path d="M-0.25 -40.45 L-1.5 -40.45 -2.1 -39.2 -1.5 -38.6 -0.25 -38.0 0.95 -38.6 1.55 -39.2 0.95 -40.45 -0.25 -40.45 M5.8 -27.15 L-0.25 -16.85 -5.7 -27.15 -2.1 -35.6 1.55 -35.6 5.8 -27.15 M1.55 -28.95 L0.35 -29.55 -0.25 -29.55 -1.5 -28.95 -2.1 -28.35 -1.5 -27.15 -0.25 -26.5 1.55 -27.15 1.55 -28.95 M1.55 -36.2 L-2.1 -36.2 -3.9 -38.6 -0.2 -43.75 3.95 -38.6 1.55 -36.2" fill="#2f1916" fill-rule="evenodd" stroke="none"/>
      <path d="M-14.5 30.0 L-23.25 29.1 -22.65 25.5 -21.45 8.55 -42.6 -30.15 -42.0 -30.15 -27.5 -39.85 -27.5 -31.35 -20.25 -31.35 -23.85 -27.75 -2.7 -13.2 -3.3 26.7 -20.75 25.6 -2.7 27.3 -2.65 24.35 -2.1 24.9 -0.9 24.9 -0.25 24.9 0.35 24.3 -0.9 23.1 -1.5 23.1 -2.65 24.25 -2.55 17.9 -2.1 18.85 -1.5 18.85 -0.25 18.85 0.35 17.65 -0.25 17.05 -1.5 17.05 -2.1 17.05 -2.55 17.5 -2.45 11.85 -2.1 12.2 -0.9 12.2 -0.25 12.2 0.35 11.6 -0.9 10.35 -1.5 10.35 -2.45 11.35 -2.35 5.85 -2.1 6.15 -0.9 6.15 -0.25 6.15 0.35 5.55 -0.9 4.35 -1.5 4.35 -2.35 5.2 -2.1 -12.6 0.35 -11.4 0.35 -7.15 0.35 -1.1 0.35 5.55 0.35 11.6 0.35 17.65 0.35 24.3 0.35 31.55 -3.25 31.15 -14.5 30.0 M0.95 31.3 L0.95 30.35 1.55 30.35 1.55 29.1 0.95 28.5 0.95 -12.0 22.1 -27.75 19.1 -31.35 26.35 -31.35 26.95 -39.85 42.05 -30.15 42.65 -30.15 20.3 8.55 21.5 25.5 22.1 29.1 13.35 30.0 0.95 31.3 M16.05 -33.15 L14.85 -33.15 22.7 -35.0 23.3 -42.25 24.45 -41.6 23.3 -41.05 23.3 -39.85 24.55 -39.2 25.75 -40.45 25.15 -41.05 25.15 -41.15 26.35 -40.45 25.75 -40.45 25.75 -31.95 17.25 -31.95 21.5 -28.35 20.3 -27.4 20.3 -28.95 19.1 -28.95 17.85 -28.95 17.85 -27.15 19.1 -27.15 19.95 -27.15 0.95 -12.6 0.35 -16.25 17.25 -28.35 15.65 -31.55 16.05 -31.35 17.25 -32.55 16.65 -33.15 16.05 -33.15 M23.9 -35.0 L23.3 -35.0 22.1 -33.8 23.3 -32.55 24.55 -33.15 24.55 -34.4 23.9 -35.0 M22.1 -35.0 L14.25 -33.15 16.65 -28.35 1.55 -17.45 18.5 -44.65 22.7 -42.25 22.1 -35.0 M11.2 -21.1 L12.45 -22.3 11.85 -22.9 11.85 -23.5 11.2 -23.5 10.0 -22.9 10.0 -22.3 10.0 -21.7 11.2 -21.1 M24.25 -19.85 L23.9 -20.45 22.7 -19.85 22.7 -20.45 22.1 -20.45 14.95 -16.3 11.85 -16.85 14.85 -16.25 14.95 -16.3 28.75 -13.8 28.75 -15.05 26.95 -15.05 25.15 -18.25 24.55 -19.85 24.25 -19.85 M3.95 -16.25 L3.95 -16.85 2.75 -16.85 2.15 -16.85 1.55 -16.25 2.15 -15.05 2.75 -15.05 3.95 -15.05 3.95 -16.25 M-17.2 -33.15 L-18.4 -33.15 -19.0 -32.55 -18.4 -31.95 -17.2 -31.35 -16.6 -32.0 -18.4 -28.35 -15.4 -33.15 -23.25 -35.0 -23.25 -41.65 -18.15 -44.7 -16.4 -43.7 -2.1 -17.45 -6.7 -20.45 0.35 -15.65 0.35 -12.0 -11.55 -20.45 -11.15 -20.45 -9.95 -20.45 -9.95 -21.1 -9.95 -22.3 -11.15 -22.3 -11.75 -22.3 -12.35 -21.1 -12.2 -20.9 -20.95 -27.15 -20.85 -27.15 -19.65 -27.15 -19.0 -27.75 -19.65 -28.95 -20.85 -28.95 -21.45 -28.95 -22.0 -27.85 -22.65 -28.35 -18.4 -31.95 -26.9 -31.95 -26.9 -39.2 -26.9 -40.45 -27.5 -40.45 -24.45 -42.25 -23.85 -35.0 -16.0 -33.15 -16.2 -32.75 -16.6 -33.15 -17.2 -33.15 M34.8 -13.8 L33.6 -13.2 33.4 -13.0 37.3 -19.75 37.85 -18.65 39.65 -18.05 40.85 -18.65 41.45 -19.85 40.25 -21.1 39.65 -21.1 37.85 -20.45 37.5 -20.15 43.3 -30.15 46.9 -28.35 31.8 -2.35 31.2 -2.35 20.9 8.55 28.2 -3.5 28.75 -2.95 29.95 -2.35 31.8 -2.95 32.4 -3.55 31.8 -4.75 30.6 -5.35 29.95 -5.35 29.1 -4.9 33.1 -12.4 33.6 -11.4 34.8 -10.8 36.6 -11.4 37.25 -12.6 36.6 -13.2 35.4 -13.8 34.8 -13.8 M43.9 -28.35 L42.05 -27.75 41.45 -26.5 42.05 -25.9 43.9 -25.3 45.1 -25.9 45.7 -26.5 45.1 -27.75 44.5 -28.35 43.9 -28.35 M49.35 -4.75 L43.9 26.1 29.35 24.3 31.2 15.8 27.55 3.1 33.0 -2.35 46.3 -25.9 49.35 -4.75 M41.45 29.1 L42.65 29.1 42.65 27.3 43.3 27.3 43.3 30.35 28.75 28.5 29.35 24.9 36.0 26.1 34.8 26.7 34.8 28.5 36.0 29.1 37.25 28.5 37.85 27.3 37.25 26.7 36.75 26.25 40.9 27.0 40.25 27.3 39.65 27.9 40.25 29.1 41.45 29.1 M40.85 33.35 L29.95 32.15 30.6 29.1 41.45 30.95 40.85 33.35 M5.8 14.6 L17.25 15.15 5.15 14.0 5.8 14.6 M19.7 26.7 L19.1 26.7 17.85 26.7 17.85 27.9 17.85 28.5 19.1 28.5 19.7 28.5 20.3 27.9 19.7 26.7 M11.85 29.1 L13.05 29.1 13.05 27.9 12.45 27.3 11.85 27.3 10.6 28.5 11.2 29.1 11.85 29.1 M3.35 29.1 L3.35 29.75 4.55 30.35 5.8 29.1 5.15 28.5 4.55 28.5 3.35 28.5 3.35 29.1 M31.2 25.5 L29.95 26.1 29.35 26.7 29.95 27.9 31.2 28.5 32.4 27.9 33.0 26.7 31.8 25.5 31.2 25.5 M-43.8 -28.35 L-44.4 -28.35 -45.05 -27.75 -45.65 -26.5 -45.05 -25.9 -43.8 -25.3 -42.6 -25.9 -42.0 -26.5 -42.6 -27.75 -43.8 -28.35 M-30.5 -2.95 L-29.3 -2.95 -28.8 -3.9 -22.05 8.55 -31.1 -2.35 -31.7 -2.35 -46.85 -28.35 -43.2 -30.15 -40.2 -25.3 -34.25 -13.85 -35.35 -14.4 -35.95 -14.4 -36.55 -13.8 -37.15 -12.6 -36.55 -11.4 -35.35 -10.8 -34.15 -11.4 -33.55 -12.6 -33.7 -12.9 -29.7 -5.55 -30.5 -5.95 -31.1 -5.95 -31.7 -5.35 -32.35 -4.15 -31.7 -2.95 -30.5 -2.95 M-40.8 -18.65 L-39.6 -18.05 -38.4 -18.65 -37.75 -19.85 -38.4 -20.45 -39.6 -21.1 -40.2 -21.1 -41.4 -19.85 -40.8 -18.65 M-49.85 -4.75 L-46.25 -25.9 -32.95 -2.35 -27.5 3.1 -31.1 15.8 -29.3 24.3 -43.8 26.1 -49.85 -4.75 M-24.45 -39.2 L-24.45 -39.85 -25.65 -40.45 -26.3 -40.45 -26.3 -39.85 -26.9 -39.2 -25.65 -38.0 -24.45 -38.6 -24.45 -39.2 M-23.85 -34.4 L-25.05 -35.0 -25.65 -35.0 -25.65 -34.4 -26.3 -33.8 -25.05 -32.55 -23.85 -33.15 -23.25 -33.8 -23.85 -34.4 M-2.1 -15.65 L-2.1 -16.85 -3.3 -16.85 -3.9 -16.85 -4.5 -15.65 -3.9 -15.05 -3.3 -15.05 -2.1 -15.05 -2.1 -15.65 M-0.9 -7.75 L-2.1 -7.75 -2.1 -6.55 -0.9 -5.95 0.35 -7.15 -0.25 -7.75 -0.9 -7.75 M-2.1 -1.1 L-2.1 -0.5 -0.9 0.1 0.35 -1.1 -0.25 -1.7 -0.9 -1.7 -2.1 -1.7 -2.1 -1.1 M-6.3 14.0 L-18.4 15.15 -6.9 14.6 -6.3 14.0 M-21.45 26.7 L-22.05 27.3 -22.05 27.9 -22.05 28.5 -20.85 28.5 -20.25 28.5 -19.65 27.9 -20.85 26.7 -21.45 26.7 M-29.3 27.3 L-29.3 28.5 -43.2 30.35 -43.8 27.3 -43.2 27.3 -42.5 27.2 -42.6 27.3 -43.2 28.5 -42.6 29.1 Q-42.0 29.4 -41.4 29.75 L-40.2 29.1 -39.6 28.5 -40.2 27.3 -41.0 26.9 -36.65 26.15 -37.15 26.7 -37.75 27.9 -37.15 28.5 -35.95 29.1 -34.75 28.5 -34.75 27.9 -34.75 26.7 -35.95 26.1 -36.2 26.1 -29.3 24.9 -29.3 27.3 -29.9 26.1 -31.1 25.5 -31.7 25.5 -32.35 26.1 -32.95 27.3 -32.35 27.9 -31.1 28.5 -29.9 27.9 -29.3 27.3 M-3.3 29.75 L-2.7 30.35 -2.1 30.35 -0.9 30.35 -0.25 29.75 -0.9 29.1 -2.1 28.5 -2.7 28.5 -2.7 29.1 -3.3 29.75 M-30.5 29.1 L-29.9 32.15 -40.8 33.35 -41.4 30.95 -30.5 29.1 M-7.55 29.1 L-7.55 28.5 -8.75 27.9 -9.35 27.9 -9.35 28.5 -9.95 29.1 -9.35 29.75 -8.75 29.75 -7.55 29.75 -7.55 29.1 M-13.6 28.5 L-14.2 27.9 -15.4 27.3 -16.0 27.3 -16.0 27.9 -16.6 28.5 -16.0 29.1 -15.4 29.1 -14.2 29.1 -13.6 28.5" fill="#1d1211" fill-rule="evenodd" stroke="none"/>
      <path d="M39.65 33.95 L42.05 38.8 33.0 46.65 26.35 41.2 26.95 40.0 29.35 41.2 33.6 39.4 34.8 40.0 33.6 36.4 33.6 38.8 29.35 40.0 26.95 38.8 26.35 35.8 30.6 32.75 39.65 33.95 M-39.6 33.95 L-31.1 32.75 -27.5 35.8 -27.5 38.8 -29.3 40.0 -33.55 38.8 -34.15 36.4 -35.35 40.0 -34.15 39.4 -29.9 41.2 -27.5 40.0 -27.5 41.2 -33.55 46.65 -42.6 38.8 -39.6 33.95" fill="#54acce" fill-rule="evenodd" stroke="none"/>
    </g>
  </defs>
</svg>
